<?xml version="1.0" encoding="UTF-8" standalone="no"?>
<svg xmlns:ffdec="https://www.free-decompiler.com/flash" xmlns:xlink="http://www.w3.org/1999/xlink" ffdec:objectType="shape" height="4.6px" width="5.85px" xmlns="http://www.w3.org/2000/svg">
  <g transform="matrix(1.0, 0.0, 0.0, 1.0, 2.95, 2.35)">
    <path d="M-2.45 -0.5 L-2.4 -0.9 -2.25 -1.5 -0.9 -1.45 -0.05 -1.45 0.5 -1.55 0.85 -1.55 0.85 -1.6 1.05 -1.6 1.0 -1.3 Q1.0 -1.0 1.15 -0.75 L1.2 -0.7 1.15 -0.7 1.05 -0.65 1.0 -0.6 0.85 -0.6 -0.15 -0.45 Q-0.65 -0.4 -1.1 -0.4 L-2.45 -0.5" fill="#666633" fill-rule="evenodd" stroke="none"/>
    <path d="M-1.15 2.15 L-1.6 2.05 -2.0 1.95 -2.4 1.8 -2.7 1.5 Q-2.85 1.35 -2.9 1.15 -3.0 0.65 -2.9 0.1 -2.85 -0.05 -2.7 -0.2 L-2.65 -0.3 -2.75 -0.4 -2.7 -0.85 Q-2.65 -1.1 -2.55 -1.35 -2.5 -1.55 -2.35 -1.7 -2.25 -1.8 -2.1 -1.8 L-0.85 -1.8 0.35 -1.9 0.75 -1.95 0.9 -2.0 1.25 -2.05 1.3 -2.15 Q1.55 -2.4 1.95 -2.35 2.35 -2.35 2.6 -2.1 L2.5 -2.25 2.6 -2.25 2.65 -2.05 Q2.9 -1.8 2.9 -1.4 2.9 -1.0 2.7 -0.75 L2.7 -0.65 Q2.7 0.25 1.7 1.25 0.9 2.05 0.4 2.1 L0.05 2.2 0.0 2.15 -0.05 2.15 Q0.2 2.05 0.5 1.95 L1.15 1.4 Q1.75 0.85 1.9 0.65 L2.35 -0.1 2.55 -0.55 2.45 -0.45 2.4 -0.45 2.3 -0.35 2.1 -0.3 Q1.95 -0.25 1.95 -0.3 1.65 -0.35 1.4 -0.45 L1.35 -0.45 1.4 -0.4 1.25 -0.35 Q0.05 -0.05 -1.15 -0.1 L-2.5 -0.25 -2.65 0.35 -2.65 0.85 Q-2.65 1.05 -2.5 1.25 -2.3 1.7 -1.85 1.9 L-1.15 2.15 M-2.45 -0.5 L-1.1 -0.4 Q-0.65 -0.4 -0.15 -0.45 L0.85 -0.6 1.0 -0.6 1.05 -0.65 1.15 -0.7 1.2 -0.7 1.15 -0.75 Q1.0 -1.0 1.0 -1.3 L1.05 -1.6 0.85 -1.6 0.85 -1.55 0.5 -1.55 -0.05 -1.45 -0.9 -1.45 -2.25 -1.5 -2.4 -0.9 -2.45 -0.5 M1.45 -2.0 Q1.2 -1.75 1.2 -1.4 1.2 -1.15 1.35 -0.85 1.55 -0.5 1.9 -0.5 2.25 -0.5 2.5 -0.85 2.65 -1.1 2.65 -1.3 2.65 -1.75 2.45 -2.0 2.25 -2.2 1.95 -2.2 1.65 -2.2 1.45 -2.0" fill="#111111" fill-rule="evenodd" stroke="none"/>
    <path d="M1.45 -2.0 Q1.65 -2.2 1.95 -2.2 2.25 -2.2 2.45 -2.0 2.65 -1.75 2.65 -1.3 2.65 -1.1 2.5 -0.85 2.25 -0.5 1.9 -0.5 1.55 -0.5 1.35 -0.85 1.2 -1.15 1.2 -1.4 1.2 -1.75 1.45 -2.0" fill="#f0f0a0" fill-rule="evenodd" stroke="none"/>
    <path d="M-1.15 2.15 L-1.85 1.9 Q-2.3 1.7 -2.5 1.25 -2.65 1.05 -2.65 0.85 L-2.65 0.35 -2.5 -0.25 -1.15 -0.1 Q0.05 -0.05 1.25 -0.35 L1.4 -0.4 1.35 -0.45 1.4 -0.45 Q1.65 -0.35 1.95 -0.3 1.95 -0.25 2.1 -0.3 L2.3 -0.35 2.4 -0.45 2.45 -0.45 2.55 -0.55 2.35 -0.1 1.9 0.65 Q1.75 0.85 1.15 1.4 L0.5 1.95 Q0.2 2.05 -0.05 2.15 L0.0 2.15 -0.15 2.2 Q-0.7 2.35 -1.15 2.15" fill="#414243" fill-rule="evenodd" stroke="none"/>
  </g>
</svg>
