<?xml version="1.0" encoding="UTF-8" standalone="no"?>
<svg xmlns:ffdec="https://www.free-decompiler.com/flash" xmlns:xlink="http://www.w3.org/1999/xlink" ffdec:objectType="shape" height="3.45px" width="6.6px" xmlns="http://www.w3.org/2000/svg">
  <g transform="matrix(1.0, 0.0, 0.0, 1.0, 3.15, 1.75)">
    <path d="M-2.45 -0.45 L-2.75 -0.75 Q-2.55 -0.85 -2.45 -1.05 L-2.4 -1.05 Q-2.25 -1.25 -2.15 -1.4 L-1.7 -1.3 Q-1.9 -1.1 -1.9 -0.75 -1.9 -0.55 -1.8 -0.35 L-2.45 -0.45 M0.9 -0.55 L0.7 -0.55 0.75 -0.7 0.75 -0.9 0.7 -1.1 3.05 -1.6 3.05 -1.45 3.1 -1.35 3.05 -1.0 2.4 -0.8 2.3 -0.75 2.25 -0.75 2.0 -0.7 1.85 -0.7 0.9 -0.55" fill="#666633" fill-rule="evenodd" stroke="none"/>
    <path d="M-2.95 -0.45 L-3.05 -0.55 -3.15 -0.6 -3.1 -0.65 -3.1 -0.7 -2.7 -1.2 Q-2.3 -1.7 -2.2 -1.7 L-2.0 -1.65 -1.75 -1.6 -1.4 -1.55 Q-1.05 -1.75 -0.6 -1.75 -0.05 -1.75 0.35 -1.5 L0.4 -1.45 Q1.25 -1.5 2.05 -1.65 L2.9 -1.75 3.4 -1.7 3.45 -0.85 3.25 -0.75 3.05 -0.7 2.95 -0.65 2.15 -0.45 1.4 -0.25 0.5 -0.15 Q0.35 0.0 0.05 0.1 L0.0 0.1 -0.45 0.15 Q-1.4 0.15 -1.75 -0.25 L-1.8 -0.3 -1.8 -0.35 Q-1.9 -0.55 -1.9 -0.75 -1.9 -1.1 -1.7 -1.3 L-2.15 -1.4 Q-2.25 -1.25 -2.4 -1.05 L-2.45 -1.05 Q-2.55 -0.85 -2.75 -0.75 L-2.45 -0.45 -2.7 -0.4 -2.7 -0.35 Q-2.8 -0.4 -2.95 -0.45 M1.8 0.8 L1.2 1.3 1.1 1.35 1.05 1.4 0.9 1.5 0.4 1.6 0.35 1.6 -0.4 1.7 -0.45 1.7 -0.8 1.35 -0.75 1.35 -0.7 1.4 -0.7 1.4 Q-0.7 1.35 -0.45 1.4 L0.1 1.4 0.8 1.25 1.25 1.15 Q1.4 1.05 1.45 1.0 L1.55 0.95 1.8 0.8 M0.45 -0.8 Q0.45 -1.1 0.1 -1.3 -0.15 -1.45 -0.6 -1.45 -1.0 -1.45 -1.3 -1.3 -1.6 -1.1 -1.6 -0.75 -1.6 -0.55 -1.4 -0.35 L-1.25 -0.25 Q-1.0 -0.05 -0.5 -0.05 0.1 -0.05 0.3 -0.4 L0.4 -0.6 0.45 -0.8 M0.9 -0.55 L1.85 -0.7 2.0 -0.7 2.25 -0.75 2.3 -0.75 2.4 -0.8 3.05 -1.0 3.1 -1.35 3.05 -1.45 3.05 -1.6 0.7 -1.1 0.75 -0.9 0.75 -0.7 0.7 -0.55 0.9 -0.55 M-0.5 1.45 L-0.65 1.45 -0.5 1.5 -0.45 1.45 -0.5 1.45 M-0.4 1.5 L-0.05 1.6 0.1 1.55 -0.25 1.55 -0.4 1.5 M0.0 0.55 L0.05 0.55 0.0 0.6 0.0 0.55" fill="#111111" fill-rule="evenodd" stroke="none"/>
    <path d="M-0.5 1.45 L-0.45 1.45 -0.5 1.5 -0.65 1.45 -0.5 1.45 M-0.4 1.5 L-0.25 1.55 0.1 1.55 -0.05 1.6 -0.4 1.5" fill="#302010" fill-rule="evenodd" stroke="none"/>
    <path d="M0.45 -0.8 L0.4 -0.6 0.3 -0.4 Q0.1 -0.05 -0.5 -0.05 -1.0 -0.05 -1.25 -0.25 L-1.4 -0.35 Q-1.6 -0.55 -1.6 -0.75 -1.6 -1.1 -1.3 -1.3 -1.0 -1.45 -0.6 -1.45 -0.15 -1.45 0.1 -1.3 0.45 -1.1 0.45 -0.8" fill="#f0f0a0" fill-rule="evenodd" stroke="none"/>
    <path d="M3.25 -0.75 L3.1 -0.6 2.2 0.35 1.9 0.7 1.8 0.8 1.55 0.95 1.45 1.0 Q1.4 1.05 1.25 1.15 L0.8 1.25 0.1 1.4 -0.45 1.4 Q-0.7 1.35 -0.7 1.4 L-0.7 1.4 -0.75 1.35 -0.8 1.35 -1.15 1.1 -1.15 1.05 -2.0 0.4 -2.6 -0.1 -2.95 -0.45 Q-2.8 -0.4 -2.7 -0.35 L-2.7 -0.4 -2.45 -0.45 -1.8 -0.35 -1.8 -0.3 -1.75 -0.25 Q-1.4 0.15 -0.45 0.15 L0.0 0.1 0.05 0.1 Q0.35 0.0 0.5 -0.15 L1.4 -0.25 2.15 -0.45 2.95 -0.65 3.05 -0.7 3.25 -0.75 M0.0 0.55 L0.0 0.6 0.05 0.55 0.0 0.55" fill="#414243" fill-rule="evenodd" stroke="none"/>
  </g>
</svg>
