<?xml version="1.0" encoding="UTF-8" standalone="no"?>
<svg xmlns:ffdec="https://www.free-decompiler.com/flash" xmlns:xlink="http://www.w3.org/1999/xlink" ffdec:objectType="shape" height="5.55px" width="5.15px" xmlns="http://www.w3.org/2000/svg">
  <g transform="matrix(1.0, 0.0, 0.0, 1.0, 2.25, 1.9)">
    <path d="M0.4 3.5 Q1.15 3.2 1.7 2.75 2.35 2.15 2.65 1.35 L2.7 1.1 2.35 1.0 Q2.35 0.2 1.9 -0.45 1.5 -1.25 0.9 -1.6 0.3 -1.9 -0.45 -1.8 -1.3 -1.65 -1.6 -0.9 -1.95 0.0 -1.15 0.55 -0.65 0.95 -0.15 1.25 0.35 1.5 0.9 1.65 1.2 1.55 1.25 1.55 L1.15 1.65 1.2 1.65 1.25 1.7 1.15 1.8 0.95 1.9 0.95 1.95 0.85 2.0 0.35 2.0 0.4 2.05 Q0.4 2.1 0.35 2.1 L0.3 2.1 -0.05 2.0 Q-0.8 1.9 -1.5 1.25 -2.25 0.55 -2.25 -0.05 L-2.15 0.05 -2.1 -0.45 Q-2.05 -0.8 -1.9 -1.0 L-1.85 -0.95 -1.85 -0.9 Q-1.7 -1.2 -1.35 -1.45 -0.65 -1.9 0.2 -1.9 0.95 -1.9 1.4 -1.35 1.9 -0.85 2.3 -0.05 2.55 0.4 2.55 0.85 2.8 0.85 2.85 1.1 2.95 1.65 2.55 2.1 2.2 2.45 1.85 2.95 1.5 3.05 1.15 3.25 L0.45 3.65 0.4 3.5" fill="#111111" fill-rule="evenodd" stroke="none"/>
    <path d="M0.35 2.1 Q0.4 2.1 0.4 2.05 L0.35 2.0 0.85 2.0 0.95 1.95 0.95 1.9 1.15 1.8 1.25 1.7 1.2 1.65 1.15 1.65 1.25 1.55 Q1.2 1.55 0.9 1.65 0.35 1.5 -0.15 1.25 -0.65 0.95 -1.15 0.55 -1.95 0.0 -1.6 -0.9 -1.3 -1.65 -0.45 -1.8 0.3 -1.9 0.9 -1.6 1.5 -1.25 1.9 -0.45 2.35 0.2 2.35 1.0 L2.7 1.1 2.65 1.35 Q2.35 2.15 1.7 2.75 1.15 3.2 0.4 3.5 L0.35 3.15 Q0.3 2.65 0.35 2.1 M2.6 1.15 L2.5 1.15 Q1.9 1.65 1.65 2.45 L1.65 2.6 Q2.0 2.15 2.35 1.6 2.5 1.4 2.6 1.15 M1.25 1.1 L1.35 1.1 Q1.9 1.0 1.95 0.45 1.7 -0.55 0.95 -1.15 0.1 -0.9 -0.1 -0.05 0.65 0.5 1.25 1.1" fill="#414243" fill-rule="evenodd" stroke="none"/>
    <path d="M2.6 1.15 Q2.5 1.4 2.35 1.6 2.0 2.15 1.65 2.6 L1.65 2.45 Q1.9 1.65 2.5 1.15 L2.6 1.15 M1.25 1.1 Q0.65 0.5 -0.1 -0.05 0.1 -0.9 0.95 -1.15 1.7 -0.55 1.95 0.45 1.9 1.0 1.35 1.1 L1.25 1.1" fill="#616263" fill-rule="evenodd" stroke="none"/>
  </g>
</svg>
