<?xml version="1.0" encoding="UTF-8" standalone="no"?>
<svg xmlns:ffdec="https://www.free-decompiler.com/flash" xmlns:xlink="http://www.w3.org/1999/xlink" ffdec:objectType="shape" height="27.6px" width="25.05px" xmlns="http://www.w3.org/2000/svg">
  <g transform="matrix(1.0, 0.0, 0.0, 1.0, 3.1, 0.35)">
    <path d="M16.35 6.95 L16.25 8.0 15.8 9.25 15.8 9.4 Q15.75 10.2 16.05 10.85 16.2 11.25 16.5 11.65 L16.55 11.85 Q16.4 12.3 16.4 12.85 L17.0 14.9 Q16.95 15.4 17.3 16.0 18.1 17.35 19.3 17.6 20.0 18.0 20.8 18.15 21.05 18.6 21.25 19.05 21.1 19.1 21.05 19.25 L21.05 19.4 Q21.1 19.6 21.25 19.7 21.05 19.75 21.0 20.0 21.0 20.45 21.4 20.6 L21.45 20.6 21.35 21.0 Q21.2 20.85 20.95 20.8 20.65 20.85 20.45 21.15 20.35 21.3 20.35 21.5 20.45 21.7 20.65 21.8 L20.95 21.85 Q20.7 22.2 20.4 22.4 L20.35 22.25 Q20.2 21.9 19.8 21.95 19.55 21.9 19.45 22.1 L19.3 22.3 Q19.25 22.5 19.4 22.7 L19.2 22.95 Q19.1 23.0 19.05 23.05 L18.9 22.95 18.45 23.05 Q18.1 23.05 18.0 23.35 17.95 23.55 18.1 23.7 L18.1 23.75 17.85 23.75 17.85 23.7 17.7 23.65 17.5 23.6 17.4 23.55 Q17.1 23.6 16.9 23.9 16.8 24.05 16.85 24.25 16.85 24.3 16.95 24.35 L17.05 24.45 Q16.85 24.5 16.85 24.7 L16.5 24.6 Q16.25 24.6 16.1 24.8 16.1 24.9 16.05 24.95 L15.9 25.0 15.5 25.2 Q15.45 25.05 15.2 24.85 L14.15 25.55 14.1 25.65 14.05 25.7 14.05 25.65 Q14.1 25.5 14.0 25.35 L12.0 25.8 11.95 25.95 11.85 25.95 Q12.05 25.55 11.55 25.35 L10.85 25.55 Q10.6 25.55 10.55 25.8 L10.55 25.9 10.5 25.85 Q10.4 25.8 10.3 25.75 L10.3 25.8 10.15 25.8 9.95 25.8 Q10.05 25.65 9.95 25.5 L9.2 25.45 9.2 25.6 9.0 25.55 8.85 25.4 8.25 25.15 Q8.1 25.15 8.05 25.2 L7.6 25.05 Q7.15 25.1 6.8 25.0 L6.65 24.9 6.5 24.95 Q6.25 24.9 6.05 24.75 L5.85 24.65 Q5.6 24.45 5.35 24.2 L5.6 23.95 Q5.55 23.7 5.45 23.55 5.3 23.3 5.05 23.3 4.65 23.3 4.55 23.7 4.5 23.8 4.5 23.95 4.05 23.95 3.75 23.55 4.0 23.55 4.25 23.4 4.25 23.1 4.05 22.95 3.8 22.7 3.45 22.7 L3.4 22.7 3.4 22.5 2.85 22.65 2.85 22.6 2.8 22.25 Q2.75 22.1 2.6 22.05 2.55 21.85 2.2 21.8 L2.15 21.85 2.0 21.9 1.9 21.95 1.85 22.0 1.8 22.1 Q1.75 22.3 1.9 22.45 L2.05 22.6 2.05 22.65 Q1.55 22.55 1.25 22.05 1.5 21.75 0.9 21.65 0.7 21.65 0.65 21.8 0.2 21.6 0.1 21.05 L0.25 20.95 Q0.6 20.65 0.3 20.45 L0.25 20.4 Q0.1 20.25 -0.1 20.2 -0.2 20.25 -0.25 20.25 L-0.45 20.15 Q-0.6 20.15 -0.65 20.2 L-0.7 20.15 Q-0.55 20.0 -0.45 19.8 -0.35 19.4 -0.7 19.25 L-0.75 19.3 -0.75 19.25 -0.9 19.05 Q-0.9 18.9 -0.95 18.75 L-1.0 18.65 -1.2 18.5 Q-1.25 18.45 -1.3 18.45 L-1.4 18.15 Q-1.1 18.35 -0.95 17.95 -0.65 17.4 -1.25 17.4 L-1.45 17.45 -1.5 17.5 -1.5 17.45 Q-1.25 17.3 -1.25 17.0 -1.25 16.8 -1.35 16.65 L-1.25 16.3 Q-1.55 16.05 -1.65 15.8 -1.25 15.85 -1.15 15.45 -1.15 15.3 -1.3 15.2 -1.4 15.1 -1.6 15.05 -1.4 14.7 -0.95 14.3 L-1.0 14.25 Q-0.9 14.2 -0.85 14.05 -0.65 13.65 -1.05 13.45 -0.85 13.1 -0.35 12.65 L-0.1 12.75 Q0.2 12.65 0.3 12.35 L0.3 12.15 0.65 11.9 Q0.55 11.75 0.7 11.55 L0.8 11.4 Q0.95 11.25 1.15 11.1 1.3 11.1 1.4 10.9 L1.45 10.9 2.3 10.45 4.05 9.75 4.3 9.75 4.2 10.1 4.6 9.7 8.1 1.25 9.9 0.4 9.75 0.55 Q11.75 0.65 13.75 1.8 L14.55 2.3 15.65 4.3 15.7 4.45 16.35 6.95 M15.2 25.3 L15.15 25.3 15.2 25.3 M13.25 25.85 L12.85 25.9 12.9 25.85 12.8 25.75 13.0 25.8 Q13.1 25.85 13.25 25.85" fill="url(#gradient0)" fill-rule="evenodd" stroke="none"/>
    <path d="M21.25 19.05 L21.25 19.0 21.4 18.95 Q21.7 18.95 21.9 19.2 22.0 19.35 21.95 19.55 21.85 19.75 21.7 19.8 21.85 19.95 21.85 20.25 21.8 20.6 21.45 20.6 L21.4 20.6 Q21.0 20.45 21.0 20.0 21.05 19.75 21.25 19.7 21.1 19.6 21.05 19.4 L21.05 19.25 Q21.1 19.1 21.25 19.05 M21.35 21.0 Q21.45 21.1 21.5 21.2 L21.65 21.2 21.65 21.15 Q22.15 21.4 21.85 21.85 21.6 22.2 21.3 21.85 L21.3 21.7 Q21.15 21.85 20.95 21.85 L20.65 21.8 Q20.45 21.7 20.35 21.5 20.35 21.3 20.45 21.15 20.65 20.85 20.95 20.8 21.2 20.85 21.35 21.0 M20.4 22.4 Q20.4 22.55 20.35 22.65 L20.55 22.75 Q20.85 22.9 20.7 23.1 20.55 23.45 20.2 23.4 19.9 23.4 19.9 23.15 L19.75 23.15 Q19.85 23.3 19.85 23.5 L19.85 23.55 19.9 23.5 20.25 23.55 Q20.45 23.55 20.55 23.75 20.45 24.15 20.1 24.35 19.55 24.6 19.35 24.1 19.35 23.95 19.45 23.85 L19.3 23.8 Q19.25 24.2 18.9 24.25 18.75 24.25 18.65 24.15 L18.6 24.25 Q19.25 24.4 18.7 24.8 18.35 25.1 18.2 24.65 L18.2 24.55 17.95 24.6 17.7 24.55 Q17.6 24.6 17.45 24.6 L17.6 24.8 Q17.7 25.0 17.55 25.2 17.15 25.55 16.95 25.25 L16.9 25.4 Q17.05 25.45 17.2 25.6 17.4 25.8 17.25 26.05 16.75 26.5 16.45 25.8 16.4 25.65 16.45 25.55 16.3 25.5 16.15 25.35 16.05 25.25 16.1 25.1 L16.05 24.95 Q16.1 24.9 16.1 24.8 16.25 24.6 16.5 24.6 L16.85 24.7 Q16.85 24.5 17.05 24.45 L16.95 24.35 Q16.85 24.3 16.85 24.25 16.8 24.05 16.9 23.9 17.1 23.6 17.4 23.55 L17.5 23.6 17.7 23.65 17.85 23.7 17.85 23.75 18.1 23.75 18.1 23.7 Q17.95 23.55 18.0 23.35 18.1 23.05 18.45 23.05 L18.9 22.95 19.05 23.05 Q19.1 23.0 19.2 22.95 L19.35 22.95 Q19.5 22.95 19.65 23.05 19.65 23.0 19.7 22.9 19.55 22.85 19.4 22.7 19.25 22.5 19.3 22.3 L19.45 22.1 Q19.55 21.9 19.8 21.95 20.2 21.9 20.35 22.25 L20.4 22.4 M6.8 25.0 Q7.2 25.35 6.6 25.2 6.25 25.1 6.5 24.95 L6.65 24.9 6.8 25.0 M6.05 24.75 Q6.25 24.95 6.2 25.3 6.15 25.6 5.85 25.8 5.25 25.85 5.3 25.25 5.3 25.0 5.4 24.85 5.5 24.75 5.6 24.7 L5.85 24.65 6.05 24.75 M5.35 24.2 L4.75 24.2 Q4.6 24.1 4.5 23.95 4.5 23.8 4.55 23.7 4.65 23.3 5.05 23.3 5.3 23.3 5.45 23.55 5.55 23.7 5.6 23.95 L5.35 24.2 M3.75 23.55 Q3.55 23.6 3.25 23.5 3.05 23.4 3.0 23.15 3.0 23.05 3.05 22.9 3.2 22.7 3.4 22.7 L3.45 22.7 Q3.8 22.7 4.05 22.95 4.25 23.1 4.25 23.4 4.0 23.55 3.75 23.55 M2.85 22.65 Q2.55 23.1 2.1 22.65 L2.05 22.65 2.05 22.6 1.9 22.45 Q1.75 22.3 1.8 22.1 L1.85 22.0 1.9 21.95 2.0 21.9 2.15 21.85 2.2 21.8 Q2.55 21.85 2.6 22.05 2.75 22.1 2.8 22.25 L2.85 22.6 2.85 22.65 M1.25 22.05 L1.1 22.2 Q0.8 22.45 0.6 22.05 L0.6 21.9 Q0.6 21.85 0.65 21.8 0.7 21.65 0.9 21.65 1.5 21.75 1.25 22.05 M0.1 21.05 Q0.0 21.1 -0.05 21.05 L-0.25 21.0 -0.4 20.95 Q-0.65 20.95 -0.7 20.45 -0.75 20.3 -0.65 20.2 -0.6 20.15 -0.45 20.15 L-0.25 20.25 Q-0.2 20.25 -0.1 20.2 0.1 20.25 0.25 20.4 L0.3 20.45 Q0.6 20.65 0.25 20.95 L0.1 21.05 M-0.7 20.15 L-0.8 20.2 Q-1.1 20.2 -1.25 20.0 -1.4 20.3 -1.75 20.25 -2.2 20.25 -2.25 19.85 L-2.25 19.7 Q-2.25 19.45 -2.1 19.35 -1.95 19.25 -1.85 19.25 L-1.7 19.3 -1.8 19.15 Q-1.85 18.9 -1.8 18.7 L-1.75 18.6 -1.6 18.5 -1.35 18.4 -1.3 18.45 Q-1.25 18.45 -1.2 18.5 L-1.0 18.65 -0.95 18.75 Q-0.9 18.9 -0.9 19.05 L-0.95 19.1 Q-1.0 19.4 -1.35 19.45 L-1.4 19.45 -1.3 19.55 Q-1.2 19.4 -1.0 19.35 L-0.75 19.3 -0.7 19.25 Q-0.35 19.4 -0.45 19.8 -0.55 20.0 -0.7 20.15 M-1.4 18.15 L-1.5 18.1 -1.6 17.9 -1.6 17.6 -1.5 17.5 -1.45 17.45 -1.25 17.4 Q-0.65 17.4 -0.95 17.95 -1.1 18.35 -1.4 18.15 M-1.5 17.45 Q-1.95 17.55 -2.0 17.15 L-2.05 16.9 Q-2.25 17.25 -2.6 16.95 L-2.65 16.8 Q-2.7 16.6 -2.65 16.45 L-2.65 16.35 -2.55 16.3 Q-2.5 16.25 -2.45 16.25 L-2.3 16.15 Q-1.75 16.25 -1.95 16.75 L-1.85 16.65 Q-1.75 16.55 -1.6 16.55 -1.45 16.55 -1.35 16.65 -1.25 16.8 -1.25 17.0 -1.25 17.3 -1.5 17.45 M-1.65 15.8 L-1.75 15.8 Q-2.0 15.7 -2.0 15.45 L-1.95 15.3 Q-1.9 15.05 -1.6 15.05 -1.4 15.1 -1.3 15.2 -1.15 15.3 -1.15 15.45 -1.25 15.85 -1.65 15.8 M-1.0 14.25 Q-1.15 14.4 -1.4 14.35 L-1.55 14.15 -1.6 13.95 -1.6 13.85 -1.5 13.7 Q-1.35 13.5 -1.15 13.45 L-1.05 13.45 Q-0.65 13.65 -0.85 14.05 -0.9 14.2 -1.0 14.25 M-0.35 12.65 L-0.5 12.45 Q-0.55 12.25 -0.55 12.0 L-0.5 11.95 Q-0.35 11.7 -0.1 11.7 L0.05 11.8 Q0.15 11.85 0.25 11.95 L0.3 12.0 0.3 12.15 0.3 12.35 Q0.2 12.65 -0.1 12.75 L-0.35 12.65 M0.7 11.55 Q0.5 11.7 0.3 11.4 L0.25 11.05 Q0.2 10.7 0.55 10.65 0.7 10.7 0.8 10.8 L0.8 10.7 Q0.8 10.45 1.05 10.35 L1.15 10.35 Q1.75 10.4 1.45 10.9 L1.4 10.9 Q1.3 11.1 1.15 11.1 1.05 11.1 0.9 11.0 0.9 11.15 0.8 11.4 L0.7 11.55 M3.8 24.2 L4.2 24.2 Q4.45 24.2 4.6 24.35 4.25 25.2 3.6 24.65 3.2 24.35 3.8 24.2 M1.35 23.75 L1.85 23.55 Q2.1 23.7 2.2 24.05 2.25 24.35 2.0 24.55 1.6 24.65 1.25 24.4 1.1 24.3 1.15 24.15 1.1 23.85 1.35 23.75 M0.15 23.1 Q0.15 22.8 0.45 22.75 1.0 23.0 0.6 23.45 0.3 23.85 0.1 23.35 L0.15 23.1 M20.8 22.25 Q20.85 22.2 20.95 22.15 21.65 22.65 20.85 22.6 20.5 22.6 20.8 22.25 M18.6 25.45 Q18.55 25.6 18.45 25.75 18.3 25.9 18.05 25.75 17.75 25.6 17.75 25.3 17.55 25.3 17.8 24.9 17.85 24.85 17.95 24.85 L18.2 24.9 Q18.35 24.9 18.45 25.05 18.6 25.2 18.6 25.45 M-2.4 14.25 L-2.15 14.2 Q-1.65 14.75 -2.45 14.5 -2.9 14.4 -2.4 14.25 M-3.05 18.75 Q-2.9 18.5 -2.65 18.45 -2.0 18.75 -2.6 19.15 -2.95 19.35 -3.1 18.95 -3.15 18.85 -3.05 18.75 M-2.5 21.0 L-2.25 21.1 Q-2.0 21.2 -2.05 21.4 -2.05 21.75 -2.4 21.85 -2.8 21.95 -2.9 21.6 L-2.9 21.35 Q-2.9 21.1 -2.65 21.05 L-2.5 21.0 M-0.4 21.8 Q-0.2 21.9 -0.2 22.1 -0.45 22.6 -1.1 22.35 -1.25 22.25 -1.25 22.1 -1.25 21.95 -1.15 21.85 -1.05 21.65 -0.85 21.6 L-0.75 21.55 Q-0.6 21.75 -0.4 21.8 M-0.45 21.0 Q0.2 21.5 -0.5 21.3 -0.95 21.2 -0.45 21.0" fill="#c57676" fill-rule="evenodd" stroke="none"/>
    <path d="M9.9 0.4 Q9.25 0.35 8.6 0.4 8.65 0.3 8.7 0.25 8.85 0.15 9.05 0.05 9.85 -0.3 10.65 -0.3 11.55 -0.4 12.4 -0.1 L12.45 -0.1 Q12.85 -0.1 13.2 0.1 13.35 0.0 13.5 0.0 15.05 0.75 15.75 2.35 15.85 2.65 15.9 2.95 L16.0 2.8 Q16.4 4.05 16.5 5.45 16.6 6.4 16.55 7.35 L16.35 6.95 15.7 4.45 15.65 4.3 14.55 2.3 13.75 1.8 Q11.75 0.65 9.75 0.55 L9.9 0.4 M16.25 8.0 Q16.45 7.85 16.65 7.75 16.55 8.2 16.5 8.6 16.55 9.45 16.9 10.35 17.2 10.95 17.2 11.7 17.2 11.85 17.1 11.95 17.25 12.8 17.45 13.7 17.55 14.15 17.6 14.55 18.05 15.6 18.8 16.45 L19.95 17.7 19.4 17.5 19.3 17.6 Q18.1 17.35 17.3 16.0 16.95 15.4 17.0 14.9 L16.4 12.85 Q16.4 12.3 16.55 11.85 L16.6 11.75 16.5 11.65 Q16.2 11.25 16.05 10.85 15.75 10.2 15.8 9.4 L15.8 9.25 16.25 8.0 M15.5 25.2 Q15.6 25.35 15.2 25.3 L15.15 25.3 15.1 25.45 15.0 25.45 Q15.1 25.55 15.05 25.7 14.95 26.0 14.65 26.05 14.3 26.1 14.1 25.75 L14.1 25.65 14.15 25.55 15.2 24.85 Q15.45 25.05 15.5 25.2 M14.05 25.7 L14.0 25.85 Q14.1 26.0 13.9 26.25 13.75 26.45 13.6 26.4 13.6 26.5 13.5 26.6 13.35 26.7 13.25 26.7 12.9 26.75 12.8 26.35 12.8 26.3 12.8 26.2 12.9 25.95 13.15 25.95 L13.25 25.95 Q13.25 25.9 13.3 25.85 L13.25 25.85 Q13.1 25.85 13.0 25.8 L12.8 25.75 12.9 25.85 12.85 25.9 Q12.75 26.1 12.5 26.25 12.1 26.45 11.95 26.05 L11.95 25.95 12.0 25.8 14.0 25.35 Q14.1 25.5 14.05 25.65 L14.05 25.7 M11.85 25.95 L11.85 26.2 11.8 26.3 Q11.15 26.65 11.15 25.95 L11.05 26.05 Q10.8 26.3 10.6 26.05 10.7 26.2 10.5 26.5 10.3 26.8 10.1 26.55 L9.95 26.75 9.85 26.8 Q9.5 26.7 9.5 26.3 9.5 25.95 9.85 25.9 9.9 25.9 9.95 25.95 L10.0 25.95 Q10.0 25.85 10.15 25.8 L10.3 25.8 10.3 25.75 Q10.4 25.8 10.5 25.85 L10.55 25.95 10.55 25.9 10.55 25.8 Q10.6 25.55 10.85 25.55 L11.55 25.35 Q12.05 25.55 11.85 25.95 M9.95 25.8 Q9.85 25.85 9.75 25.9 9.3 25.9 9.2 25.6 L9.2 25.45 9.95 25.5 Q10.05 25.65 9.95 25.8 M9.0 25.55 Q9.1 25.65 9.05 25.85 8.8 26.05 8.6 26.0 L8.55 26.05 Q7.9 26.15 7.9 25.5 7.9 25.3 8.05 25.2 8.1 25.15 8.25 25.15 L8.85 25.4 9.0 25.55 M4.05 9.75 L4.0 9.75 Q4.3 9.0 4.75 8.3 5.3 6.6 6.0 4.95 6.35 4.2 6.7 3.55 6.8 2.95 7.0 2.35 7.35 1.4 8.05 0.9 L8.1 1.25 4.6 9.7 4.2 10.1 4.3 9.75 4.05 9.75 M11.85 27.25 Q11.25 27.3 11.8 26.95 12.35 27.15 11.85 27.25" fill="#111111" fill-rule="evenodd" stroke="none"/>
    <path d="M12.35 2.6 Q12.5 2.65 12.65 2.75 12.85 2.85 12.9 3.1 12.65 3.4 12.25 3.5 12.0 3.55 11.9 3.35 L11.9 3.0 Q11.95 2.8 12.15 2.65 L12.35 2.6 M12.9 2.75 Q12.9 2.5 13.15 2.4 L13.55 2.5 Q13.65 2.55 13.7 2.65 13.75 2.95 13.5 3.15 13.2 3.35 12.95 3.1 12.85 2.95 12.9 2.75 M13.05 3.95 L13.05 3.85 13.2 3.7 Q13.35 3.55 13.5 3.55 13.7 3.55 13.9 3.65 14.15 3.7 14.2 3.95 14.15 4.45 13.65 4.5 13.05 4.5 13.05 3.95 M16.05 8.05 L15.8 8.2 Q15.5 8.3 15.3 8.05 L15.25 7.85 Q15.25 7.75 15.25 7.6 L15.3 7.45 15.4 7.35 Q15.45 7.3 15.55 7.3 L15.7 7.25 Q16.05 7.3 16.15 7.65 16.2 7.85 16.05 8.05 M15.6 9.3 L15.55 9.35 Q15.75 9.4 15.95 9.5 L16.15 9.9 Q16.05 10.45 15.4 10.25 15.15 10.2 15.05 10.0 15.05 9.85 15.1 9.75 15.2 9.4 15.45 9.35 15.35 9.35 15.55 9.15 15.85 9.25 15.6 9.3 M14.4 9.9 Q14.45 9.9 14.55 9.85 14.95 9.95 15.05 10.35 15.15 10.7 14.85 10.85 14.8 11.0 14.65 11.0 14.7 11.1 14.7 11.25 14.6 11.6 14.35 11.7 L14.0 11.7 13.75 11.6 Q13.6 11.5 13.55 11.35 L13.6 11.1 Q13.7 10.7 14.1 10.7 L14.1 10.6 Q14.05 10.4 14.1 10.25 L14.15 10.15 Q14.5 10.45 15.0 10.55 14.65 10.25 14.4 9.9 M12.25 12.35 Q12.0 12.25 11.75 12.05 L11.6 12.3 11.55 12.4 Q11.2 12.65 10.9 12.5 L10.95 12.6 Q10.9 12.95 10.65 13.2 10.35 13.45 10.1 13.3 L10.05 13.35 9.85 13.4 9.8 13.4 9.85 13.2 9.65 13.4 9.6 13.4 9.6 12.65 9.3 13.15 9.25 13.05 Q9.25 12.9 9.25 12.8 9.25 12.7 9.25 12.65 L9.15 12.55 8.8 12.95 Q8.4 12.9 8.3 12.5 9.2 11.55 8.8 10.8 L8.4 11.15 8.35 11.05 8.4 11.0 Q8.5 10.9 8.6 10.85 8.85 10.75 9.05 10.75 9.3 10.8 9.4 10.95 9.4 10.65 9.55 10.35 9.9 9.7 10.55 9.55 10.7 9.65 10.8 9.75 10.6 9.95 10.7 10.25 10.85 10.4 11.05 10.4 11.05 10.75 10.85 11.15 L10.35 11.6 Q10.65 11.85 10.2 12.3 L10.4 12.3 10.4 12.25 10.65 12.35 Q10.45 12.0 10.7 11.7 11.0 11.4 11.35 11.4 L11.5 11.5 11.6 11.6 Q11.65 11.45 11.8 11.35 11.95 11.2 12.15 11.2 12.2 11.1 12.3 11.05 L12.55 10.95 Q12.65 10.8 12.8 10.75 L13.15 10.65 Q13.5 10.75 13.5 11.05 13.5 11.3 13.45 11.5 13.3 11.7 13.15 11.75 L13.05 12.05 12.25 12.35 M6.25 13.2 L6.0 13.2 Q5.55 13.2 5.45 12.8 L5.45 12.6 Q5.5 12.5 5.55 12.45 5.7 12.3 5.85 12.3 6.15 12.3 6.4 12.45 6.25 12.8 6.25 13.2 M6.9 11.75 L6.85 11.65 Q6.4 11.95 5.8 11.65 5.65 11.6 5.55 11.5 5.05 11.0 5.3 10.35 5.6 9.5 6.4 9.45 L6.8 9.6 6.95 9.65 Q6.95 9.45 7.1 9.35 6.9 8.95 7.35 8.9 L7.5 8.95 Q7.3 9.05 7.1 9.15 L7.55 9.1 7.35 9.2 7.95 9.25 7.9 9.4 7.9 9.5 7.8 9.6 Q7.85 9.75 7.85 9.9 L7.85 9.9 7.85 9.95 7.8 9.95 7.4 10.2 7.75 10.2 Q7.65 10.3 7.5 10.45 L8.05 10.35 8.05 10.4 Q7.95 10.7 7.65 10.9 7.6 10.9 7.55 10.95 7.65 11.0 7.7 11.1 L6.9 11.75 M11.5 9.4 Q11.55 9.2 11.75 9.15 L11.85 9.1 Q11.9 9.05 11.95 9.05 12.05 9.0 12.15 8.95 L12.3 9.05 12.35 9.05 Q12.5 8.9 12.7 8.85 L12.85 8.95 13.05 9.1 13.1 9.2 Q13.1 9.45 12.9 9.7 12.7 10.0 12.4 9.85 L12.05 10.0 Q12.6 9.55 11.9 9.25 L11.5 9.4 M16.35 11.75 Q16.2 11.4 15.9 11.2 16.3 11.2 16.35 11.6 L16.35 11.75 M15.45 11.4 Q15.3 11.7 15.45 12.2 L15.7 12.8 15.4 12.8 Q14.9 12.8 15.1 12.25 15.15 11.95 15.35 11.8 L15.35 11.7 Q15.3 11.55 15.45 11.4 M15.9 13.3 L15.95 13.4 16.0 13.35 16.1 13.55 Q16.2 14.05 15.7 14.2 15.15 14.4 14.8 13.95 14.75 13.75 14.85 13.55 15.05 13.15 15.45 13.15 L15.8 13.25 Q15.85 13.25 15.9 13.3 M16.35 12.7 L16.4 12.4 16.4 12.2 Q16.65 12.55 16.35 12.7 M8.65 4.35 Q8.3 5.0 7.85 4.35 7.65 4.05 8.0 4.0 L8.35 4.05 Q8.65 4.1 8.65 4.35 M7.1 6.9 Q7.15 6.75 7.35 6.65 L7.45 6.6 Q8.0 6.8 7.6 7.25 L7.45 7.35 Q7.85 7.65 7.25 8.05 L7.15 8.1 7.1 8.1 Q6.7 8.25 6.5 7.85 6.5 7.75 6.5 7.65 6.5 7.4 6.55 7.1 L6.65 7.05 Q6.75 6.95 6.85 6.9 L7.0 6.85 7.1 6.9 M6.3 8.5 Q6.55 8.5 6.7 8.7 6.85 8.85 6.8 9.0 6.65 9.35 6.3 9.4 6.0 9.4 5.9 9.15 L6.15 8.55 6.3 8.5 M7.75 14.6 Q7.9 14.4 7.8 14.1 7.8 13.95 7.7 13.9 7.9 14.0 8.05 14.15 8.2 14.3 8.05 14.45 7.9 14.6 7.75 14.6 M9.25 11.7 L9.25 11.7" fill="#c57676" fill-rule="evenodd" stroke="none"/>
    <path d="M14.7 8.7 L14.8 8.9 14.7 9.0 14.1 8.75 Q13.85 8.5 13.8 8.2 L13.85 7.55 Q14.1 7.6 14.2 7.75 L14.7 8.7 M12.15 10.15 Q12.3 10.45 11.9 10.8 L11.3 11.05 11.7 10.4 12.15 10.15" fill="#69221e" fill-rule="evenodd" stroke="none"/>
    <path d="M10.65 4.85 Q11.05 4.85 11.15 5.25 11.2 5.5 11.05 5.7 10.55 5.75 10.45 5.25 10.4 4.95 10.65 4.85 M10.8 4.95 L10.8 5.0 Q10.6 5.0 10.7 5.2 10.85 5.55 11.05 5.25 11.05 5.2 11.0 5.1 10.95 5.0 10.8 4.95" fill="#ff0000" fill-rule="evenodd" stroke="none"/>
    <path d="M8.3 12.5 L7.9 12.85 Q7.1 13.55 6.25 13.65 L6.4 13.4 Q6.85 12.6 7.6 11.9 L8.4 11.15 8.8 10.8 Q9.2 11.55 8.3 12.5 M10.8 9.75 Q10.9 9.65 11.05 9.55 11.3 9.45 11.5 9.4 L11.9 9.25 Q12.6 9.55 12.05 10.0 L11.7 10.25 Q11.35 10.45 11.05 10.4 10.85 10.4 10.7 10.25 10.6 9.95 10.8 9.75 M15.9 11.2 Q16.2 11.4 16.35 11.75 16.4 11.95 16.4 12.2 L16.4 12.4 16.35 12.7 Q16.25 13.1 16.0 13.35 L15.95 13.4 15.9 13.3 15.7 12.8 15.45 12.2 Q15.3 11.7 15.45 11.4 15.5 11.2 15.7 11.05 L15.9 11.2 M4.0 9.7 Q4.6 10.0 3.9 10.4 3.4 10.7 3.3 10.25 3.3 9.95 3.55 9.85 L4.0 9.7 M3.1 15.85 Q3.1 16.2 2.85 16.45 2.4 16.9 1.9 16.6 1.8 16.4 1.95 16.2 2.2 15.8 2.65 15.7 L2.8 15.75 3.05 15.8 3.1 15.85 M4.2 19.1 Q4.25 18.6 4.75 18.25 5.05 18.05 5.45 18.0 5.65 18.55 5.05 19.1 4.65 19.5 4.2 19.1 M18.55 17.05 L19.05 17.35 Q19.3 17.55 19.25 17.8 18.75 18.15 18.35 17.6 18.05 17.2 18.55 17.05 M18.5 18.5 L19.15 19.5 Q18.7 19.65 18.3 18.95 18.05 18.55 18.5 18.5 M17.2 19.2 L17.65 20.05 Q17.75 20.45 17.8 20.8 17.35 20.7 17.05 20.0 16.95 19.8 16.95 19.7 16.9 19.35 17.15 19.15 L17.2 19.2" fill="#ecacac" fill-rule="evenodd" stroke="none"/>
    <path d="M14.35 11.7 L14.9 12.3 Q14.25 13.0 15.0 15.55 L14.6 15.2 14.45 15.05 14.3 15.1 14.25 15.2 14.2 15.25 14.1 15.35 13.95 15.65 13.85 16.05 13.8 16.2 Q13.75 16.4 13.65 16.4 13.55 16.4 13.45 16.5 L13.4 16.55 13.35 16.55 13.3 16.5 13.1 16.7 12.8 17.0 11.95 17.3 11.6 17.45 11.55 17.5 11.5 17.45 11.45 17.5 Q10.85 16.8 10.25 17.2 L9.55 16.55 Q10.2 14.35 11.6 12.6 L12.25 12.35 13.05 12.05 14.0 11.7 14.35 11.7 M13.75 13.0 Q13.85 12.85 13.65 12.75 13.45 12.65 13.3 12.65 13.0 12.7 13.1 13.0 13.25 13.5 13.75 13.0 M12.7 12.75 Q12.4 12.75 12.35 13.05 L12.25 13.0 Q12.1 13.0 12.05 13.1 L12.0 13.05 Q12.0 13.0 11.85 13.0 11.65 13.1 11.8 13.1 L11.8 13.2 11.9 13.35 11.8 13.35 Q11.5 13.4 11.5 13.65 11.5 13.9 11.65 14.1 L11.55 14.05 Q11.35 14.1 11.45 14.25 11.7 14.55 11.9 14.2 12.2 14.15 12.25 13.85 12.3 13.5 12.0 13.35 L12.05 13.3 12.1 13.35 12.4 13.35 Q12.5 13.7 12.95 13.65 13.15 13.5 13.1 13.2 13.05 12.85 12.7 12.75 M10.65 15.45 Q10.4 15.5 10.4 15.75 9.9 15.95 10.4 16.0 L10.4 16.1 Q10.35 16.2 10.35 16.3 10.0 16.3 10.15 16.6 10.5 17.15 10.85 16.7 10.85 16.5 10.65 16.4 L10.5 16.3 10.45 16.2 Q10.6 16.4 10.95 16.35 11.05 16.15 11.0 15.9 10.95 15.55 10.65 15.45 M10.9 14.7 L11.0 14.85 Q10.85 14.9 11.15 14.95 L11.55 15.0 Q11.35 15.15 11.55 15.25 L11.75 15.35 Q12.45 15.5 11.8 15.05 L11.65 14.95 11.55 15.0 Q11.65 14.95 11.4 14.75 L11.2 14.55 11.05 14.55 Q10.8 14.55 10.9 14.7 M11.15 14.75 L11.15 14.75 M11.1 14.3 Q10.85 14.4 11.1 14.45 11.5 14.55 11.1 14.3 M11.2 16.4 Q11.25 16.55 11.4 16.65 11.7 16.8 11.8 16.5 11.9 16.2 11.75 16.0 L11.6 16.0 11.35 16.15 Q11.2 16.25 11.2 16.4 M11.8 16.7 Q11.4 16.8 11.7 16.9 12.25 17.1 11.8 16.7 M12.25 15.25 Q12.5 15.15 12.55 14.8 12.55 14.4 12.15 14.3 11.85 14.35 11.8 14.7 11.75 15.2 12.25 15.25 M12.35 15.65 Q11.85 15.95 12.45 15.9 12.95 15.85 12.35 15.65" fill="url(#gradient1)" fill-rule="evenodd" stroke="none"/>
    <path d="M14.6 15.2 L14.55 17.25 14.5 17.3 14.15 18.55 14.05 18.8 13.95 18.95 13.4 18.75 Q13.5 18.4 13.45 17.9 13.45 17.45 13.35 17.0 L13.4 17.0 13.7 16.75 13.8 16.75 13.8 16.7 Q13.9 16.6 13.8 16.55 13.9 16.5 14.0 16.4 L14.2 16.7 Q14.3 16.45 14.3 16.1 L14.35 15.2 14.1 15.35 14.2 15.25 14.25 15.2 14.3 15.1 14.45 15.05 14.6 15.2 M10.35 19.4 L10.4 19.3 10.45 19.25 10.35 19.15 10.35 18.9 Q10.4 19.2 10.6 19.35 10.45 19.05 10.45 18.7 L10.4 18.05 Q10.45 17.95 10.5 17.85 L10.5 17.8 10.7 17.75 10.9 17.65 10.95 17.6 11.0 17.6 Q11.2 17.7 11.25 17.55 11.15 17.35 10.95 17.25 L10.7 17.2 10.7 17.15 Q11.1 17.25 11.35 17.55 L11.45 17.5 11.5 17.45 11.55 17.5 11.6 17.45 11.95 17.3 12.8 17.0 13.1 16.7 13.35 16.55 13.4 16.55 13.5 16.6 13.4 16.6 Q13.2 16.65 13.05 16.85 L13.0 16.9 Q12.75 17.3 12.75 17.8 12.8 18.2 12.9 18.45 L12.9 18.6 12.55 19.45 11.85 19.3 11.75 19.25 11.7 19.15 11.7 19.1 11.95 19.2 11.9 19.05 11.8 18.7 11.65 18.5 11.65 18.15 Q11.75 17.9 12.0 17.8 12.5 17.55 12.45 17.3 L12.55 17.2 12.45 17.25 12.4 17.2 Q12.25 17.25 12.15 17.3 11.45 17.35 11.4 17.9 L11.4 18.05 Q11.1 18.7 11.6 19.05 L11.6 19.1 11.45 19.0 Q11.3 18.8 11.25 18.4 L11.0 19.1 Q10.9 19.15 10.8 19.3 L10.6 19.6 10.35 19.4 M10.25 19.05 L10.15 18.9 10.2 18.85 10.25 19.05 M9.85 18.0 Q9.85 18.3 9.7 18.55 9.5 19.0 9.15 18.8 L8.9 18.15 Q9.15 18.15 9.4 17.95 L9.65 17.65 9.85 18.0 M9.25 17.25 L9.45 17.05 9.25 17.25 M9.55 16.9 Q9.6 16.8 9.75 16.8 L9.95 17.05 9.8 16.85 Q9.7 16.85 9.7 16.95 L9.65 16.9 9.6 16.95 9.55 16.9 M10.05 17.25 L10.2 17.3 10.05 17.25 M10.5 8.4 Q11.05 7.9 11.3 7.05 L11.0 8.1 10.5 8.4 M10.65 4.85 Q10.4 4.95 10.45 5.25 10.55 5.75 11.05 5.7 11.2 5.5 11.15 5.25 11.05 4.85 10.65 4.85 M10.6 4.85 L10.9 4.6 11.0 4.75 Q11.4 5.15 11.35 5.8 L11.4 6.3 10.95 7.35 10.95 7.2 9.4 6.65 9.8 5.45 10.3 4.85 10.6 4.85 M9.5 17.4 L9.5 17.45 9.45 17.45 9.5 17.4 M13.8 16.2 L13.85 16.05 13.95 15.8 Q13.9 16.05 13.95 16.25 13.9 16.2 13.8 16.2 M10.25 18.25 L10.25 18.25" fill="#edd6d6" fill-rule="evenodd" stroke="none"/>
    <path d="M12.9 5.9 Q12.9 5.65 13.1 5.45 13.2 5.4 13.3 5.4 13.4 5.5 13.4 5.7 L13.35 5.95 Q13.2 6.2 12.95 5.95 L12.9 5.9 M9.8 13.4 L9.5 14.0 Q9.25 15.75 8.15 17.6 7.15 19.2 6.35 20.9 6.45 18.5 7.75 15.9 8.45 14.4 9.3 13.15 L9.6 12.65 9.6 13.4 9.6 13.45 9.65 13.4 9.85 13.2 9.8 13.4 M6.4 13.4 L6.25 13.45 6.25 13.2 Q6.25 12.8 6.4 12.45 6.55 12.15 6.8 11.9 L6.9 11.75 7.7 11.1 Q7.95 10.95 8.25 10.85 L8.35 11.05 8.4 11.15 7.6 11.9 Q6.85 12.6 6.4 13.4 M7.5 8.95 Q8.05 8.65 8.7 8.45 9.45 8.25 10.1 7.9 9.95 7.85 9.8 7.75 9.3 7.5 9.3 7.1 9.75 7.3 10.25 7.45 10.55 7.55 10.7 7.75 L10.85 7.7 10.75 7.85 9.0 9.1 Q8.5 9.3 7.95 9.25 L7.35 9.2 7.55 9.1 7.1 9.15 Q7.3 9.05 7.5 8.95 M7.85 9.9 L8.05 9.85 Q8.4 9.6 8.8 9.4 9.2 9.2 9.65 9.05 L10.5 8.4 11.0 8.1 9.15 9.95 Q8.6 10.2 8.05 10.35 L7.5 10.45 Q7.65 10.3 7.75 10.2 L7.4 10.2 7.8 9.95 7.95 9.9 7.85 9.9 7.85 9.9 M14.15 10.15 Q13.75 9.8 13.45 9.25 13.3 9.0 13.3 8.75 13.2 8.4 13.35 8.2 L13.45 8.2 13.55 8.3 Q13.55 8.5 13.6 8.7 L14.05 8.95 Q14.45 9.1 14.6 9.4 14.4 9.55 14.2 9.5 L14.25 9.6 14.15 9.6 14.2 9.7 14.4 9.9 Q14.65 10.25 15.0 10.55 14.5 10.45 14.15 10.15 M1.25 12.2 Q1.25 12.1 1.3 12.0 1.35 11.7 1.65 11.55 L2.6 11.55 Q2.85 11.65 2.9 11.9 L2.0 12.55 Q1.5 12.65 1.25 12.2 M7.7 13.9 Q7.8 13.95 7.8 14.1 7.9 14.4 7.75 14.6 7.7 14.75 7.55 14.9 L6.7 15.5 Q6.55 15.35 6.45 15.4 6.0 15.5 5.75 15.15 5.9 14.6 6.4 14.25 6.8 13.95 7.2 13.8 L7.6 13.85 7.7 13.9 M9.05 19.35 Q8.85 19.4 9.0 19.55 9.25 19.75 9.4 19.6 L9.45 19.6 Q9.15 19.85 8.8 19.55 8.6 19.35 8.85 19.3 L9.05 19.35 M10.25 19.55 L10.45 19.7 Q10.7 19.8 10.8 20.0 10.5 20.4 10.0 20.0 9.7 19.75 9.75 19.4 L9.8 19.35 9.9 19.3 9.95 19.3 10.0 19.35 Q9.75 19.45 9.95 19.75 10.2 20.2 10.55 19.9 L10.35 19.65 10.25 19.55 M9.1 21.1 L8.95 21.1 8.95 21.0 9.0 20.9 9.1 20.9 9.05 21.0 9.1 21.1 M9.4 21.45 Q9.4 21.6 9.4 21.75 9.1 21.75 9.2 21.4 L9.2 21.35 Q9.3 21.45 9.4 21.45 M0.65 16.4 Q0.65 15.35 1.35 14.35 L2.65 13.1 Q2.95 14.05 2.0 15.3 1.4 16.1 0.65 16.4 M2.55 18.2 L3.55 17.4 Q4.15 18.0 3.4 18.95 2.95 19.6 2.3 19.45 2.2 18.8 2.55 18.2 M10.6 21.65 L10.55 21.6 10.55 21.55 10.5 21.5 10.55 21.45 10.6 21.65 M10.4 22.0 Q10.45 22.1 10.55 22.1 L10.6 21.85 10.6 21.7 10.6 22.15 Q10.6 22.4 10.55 22.6 10.45 22.35 10.4 22.0 M4.5 21.55 Q4.7 20.65 5.05 19.75 L5.85 18.5 Q6.15 19.3 5.5 20.4 5.05 21.1 4.5 21.55 M19.8 19.1 L20.15 18.9 Q20.6 19.0 20.85 19.35 21.05 19.65 20.9 19.95 20.35 20.25 19.95 19.8 19.7 19.5 19.8 19.15 L19.8 19.1 M16.95 19.7 L16.85 19.75 Q16.65 19.05 16.55 18.3 16.45 17.6 16.85 17.25 L17.2 19.2 17.15 19.15 Q16.9 19.35 16.95 19.7 M19.9 20.8 Q20.05 21.1 19.9 21.35 19.2 21.75 19.05 20.9 L19.35 20.45 Q19.7 20.55 19.9 20.8 M18.15 19.15 Q17.4 18.25 17.05 16.85 16.75 15.8 17.3 15.15 L18.05 17.45 Q18.15 18.3 18.15 19.15 M14.6 18.1 L14.65 18.15 14.6 18.1 M14.8 18.65 L14.75 18.75 Q14.6 19.1 14.35 19.0 14.35 18.75 14.4 18.45 L14.4 18.4 Q14.5 18.65 14.75 18.65 L14.8 18.65 M13.75 19.4 L13.5 19.4 Q13.25 19.4 13.4 19.55 13.65 19.8 13.9 19.6 13.9 19.45 13.75 19.4 M13.9 19.75 L13.45 19.7 Q13.1 19.55 13.4 19.35 L13.8 19.4 Q14.0 19.45 14.05 19.65 L14.0 19.7 13.95 19.7 13.9 19.75 M14.15 20.1 Q14.1 20.3 13.95 20.4 13.85 20.25 13.85 20.0 13.8 19.85 13.85 19.8 L14.15 20.1 M12.35 20.45 L12.3 20.8 Q12.25 21.05 12.05 21.2 12.0 20.9 12.05 20.6 12.05 20.4 12.2 20.2 L12.05 20.2 Q11.85 20.1 11.7 19.95 L11.7 19.9 11.75 19.8 11.8 19.85 Q11.9 20.2 12.15 20.05 12.25 19.95 12.15 19.85 L11.95 19.75 Q12.1 19.75 12.25 19.8 12.45 19.9 12.4 20.05 L12.3 20.2 12.3 20.25 Q12.2 20.25 12.15 20.35 12.15 20.5 12.2 20.6 12.25 20.75 12.35 20.55 L12.35 20.45 M16.7 23.9 Q16.25 23.95 16.25 23.5 16.2 23.15 16.55 23.15 L16.85 23.6 Q16.9 23.8 16.7 23.9 M18.35 22.75 L17.85 21.75 Q18.25 21.85 18.4 22.2 18.5 22.5 18.35 22.75" fill="#a04545" fill-rule="evenodd" stroke="none"/>
    <path d="M10.35 19.15 L10.35 19.2 10.25 19.05 10.2 18.85 10.15 18.9 9.85 18.0 9.65 17.65 9.4 17.95 Q9.15 18.15 8.9 18.15 L9.25 17.25 9.45 17.05 9.55 16.9 9.6 16.95 9.65 16.9 9.7 16.95 Q9.7 16.85 9.8 16.85 L9.95 17.05 10.05 17.25 10.2 17.3 10.7 17.2 10.95 17.25 Q11.15 17.35 11.25 17.55 11.2 17.7 11.0 17.6 L10.95 17.6 10.9 17.65 10.7 17.75 10.5 17.8 10.5 17.85 Q10.45 17.95 10.4 18.05 L10.45 18.7 Q10.45 19.05 10.6 19.35 10.4 19.2 10.35 18.9 L10.35 19.15 M9.5 17.4 L9.45 17.45 9.5 17.45 9.5 17.4 M13.4 16.55 L13.45 16.5 Q13.55 16.4 13.65 16.4 13.75 16.4 13.8 16.2 13.9 16.2 13.95 16.25 13.9 16.05 13.95 15.8 L13.95 15.65 14.1 15.35 14.35 15.2 14.3 16.1 Q14.3 16.45 14.2 16.7 L14.0 16.4 Q13.9 16.5 13.8 16.55 13.9 16.6 13.8 16.7 L13.8 16.75 13.7 16.75 13.4 17.0 13.35 17.0 Q13.45 17.45 13.45 17.9 13.5 18.4 13.4 18.75 L13.25 18.75 13.15 18.8 13.1 18.75 12.9 18.45 Q12.8 18.2 12.75 17.8 12.75 17.3 13.0 16.9 L13.05 16.85 Q13.2 16.65 13.4 16.6 L13.5 16.6 13.4 16.55 M11.6 19.1 L11.6 19.05 Q11.1 18.7 11.4 18.05 L11.4 17.9 Q11.45 17.35 12.15 17.3 12.25 17.25 12.4 17.2 L12.45 17.25 12.55 17.2 12.45 17.3 Q12.5 17.55 12.0 17.8 11.75 17.9 11.65 18.15 L11.65 18.5 11.8 18.7 11.9 19.05 11.95 19.2 11.7 19.1 11.7 19.15 11.6 19.1 M10.25 18.25 L10.25 18.25" fill="#afadbf" fill-rule="evenodd" stroke="none"/>
    <path d="M9.4 19.6 Q9.25 19.75 9.0 19.55 8.85 19.4 9.05 19.35 L9.2 19.4 9.35 19.4 Q9.45 19.4 9.45 19.55 L9.4 19.6 M10.0 19.35 L10.25 19.55 10.35 19.65 10.55 19.9 Q10.2 20.2 9.95 19.75 9.75 19.45 10.0 19.35 M9.1 20.9 L9.2 20.8 Q9.45 20.9 9.55 21.15 9.6 21.3 9.45 21.45 L9.4 21.45 Q9.3 21.45 9.2 21.35 L9.2 21.3 9.1 21.1 9.05 21.0 9.1 20.9 M10.5 21.5 L10.55 21.55 10.55 21.6 10.6 21.65 10.6 21.7 10.6 21.85 10.55 22.1 Q10.45 22.1 10.4 22.0 10.35 21.95 10.35 21.85 10.35 21.75 10.4 21.65 L10.45 21.65 Q10.35 21.55 10.5 21.5 M14.4 18.4 L14.35 18.3 Q14.3 18.1 14.55 18.1 L14.6 18.1 14.65 18.15 Q14.8 18.2 14.85 18.35 L14.8 18.65 14.75 18.65 Q14.5 18.65 14.4 18.4 M13.75 19.4 Q13.9 19.45 13.9 19.6 13.65 19.8 13.4 19.55 13.25 19.4 13.5 19.4 L13.75 19.4 M14.0 19.7 L14.15 19.75 14.25 19.8 Q14.25 19.85 14.25 19.95 L14.15 20.1 13.85 19.8 Q13.85 19.75 13.9 19.75 L13.95 19.7 14.0 19.7 M12.3 20.25 L12.35 20.25 12.35 20.45 12.35 20.55 Q12.25 20.75 12.2 20.6 12.15 20.5 12.15 20.35 12.2 20.25 12.3 20.25 M11.75 19.8 Q11.8 19.7 11.9 19.7 L11.95 19.75 12.15 19.85 Q12.25 19.95 12.15 20.05 11.9 20.2 11.8 19.85 L11.75 19.8" fill="#e6c4c4" fill-rule="evenodd" stroke="none"/>
    <path d="M14.55 17.25 L15.15 16.75 Q15.95 18.85 15.3 21.2 15.0 23.55 15.85 25.0 12.25 26.7 7.6 25.05 6.5 21.8 8.8 18.35 L9.15 19.15 9.8 18.75 10.35 19.4 10.6 19.6 11.25 19.0 11.75 19.25 11.85 19.3 12.55 19.6 13.1 18.75 13.15 18.8 13.85 19.15 14.05 18.8 14.15 18.55 14.5 17.3 14.55 17.25 M12.7 12.75 Q13.05 12.85 13.1 13.2 13.15 13.5 12.95 13.65 12.5 13.7 12.4 13.35 L12.1 13.35 12.05 13.3 12.0 13.35 Q12.3 13.5 12.25 13.85 12.2 14.15 11.9 14.2 11.7 14.55 11.45 14.25 11.35 14.1 11.55 14.05 L11.65 14.1 Q11.5 13.9 11.5 13.65 11.5 13.4 11.8 13.35 L11.9 13.35 11.8 13.2 11.8 13.1 Q11.65 13.1 11.85 13.0 12.0 13.0 12.0 13.05 L12.05 13.1 Q12.1 13.0 12.25 13.0 L12.35 13.05 Q12.4 12.75 12.7 12.75 M13.75 13.0 Q13.25 13.5 13.1 13.0 13.0 12.7 13.3 12.65 13.45 12.65 13.65 12.75 13.85 12.85 13.75 13.0 M10.8 4.95 Q10.95 5.0 11.0 5.1 11.05 5.2 11.05 5.25 10.85 5.55 10.7 5.2 10.6 5.0 10.8 5.0 L10.8 4.95 M11.1 14.3 Q11.5 14.55 11.1 14.45 10.85 14.4 11.1 14.3 M11.15 14.75 L11.15 14.75 M10.9 14.7 Q10.8 14.55 11.05 14.55 L11.2 14.55 11.4 14.75 Q11.65 14.95 11.55 15.0 L11.65 14.95 11.8 15.05 Q12.45 15.5 11.75 15.35 L11.55 15.25 Q11.35 15.15 11.55 15.0 L11.15 14.95 Q10.85 14.9 11.0 14.85 L10.9 14.7 M10.65 15.45 Q10.95 15.55 11.0 15.9 11.05 16.15 10.95 16.35 10.6 16.4 10.45 16.2 L10.5 16.3 10.65 16.4 Q10.85 16.5 10.85 16.7 10.5 17.15 10.15 16.6 10.0 16.3 10.35 16.3 10.35 16.2 10.4 16.1 L10.4 16.0 Q9.9 15.95 10.4 15.75 10.4 15.5 10.65 15.45 M11.2 16.4 Q11.2 16.25 11.35 16.15 L11.6 16.0 11.75 16.0 Q11.9 16.2 11.8 16.5 11.7 16.8 11.4 16.65 11.25 16.55 11.2 16.4 M9.05 19.35 L8.85 19.3 Q8.6 19.35 8.8 19.55 9.15 19.85 9.45 19.6 L9.4 19.6 9.45 19.55 Q9.45 19.4 9.35 19.4 L9.2 19.4 9.05 19.35 M10.0 19.35 L9.95 19.3 9.9 19.3 9.8 19.35 9.75 19.4 Q9.7 19.75 10.0 20.0 10.5 20.4 10.8 20.0 10.7 19.8 10.45 19.7 L10.25 19.55 10.0 19.35 M9.1 20.9 L9.0 20.9 8.95 21.0 8.95 21.1 9.1 21.1 9.2 21.3 9.2 21.35 9.2 21.4 Q9.1 21.75 9.4 21.75 9.4 21.6 9.4 21.45 L9.45 21.45 Q9.6 21.3 9.55 21.15 9.45 20.9 9.2 20.8 L9.1 20.9 M10.6 21.65 L10.55 21.45 10.5 21.5 Q10.35 21.55 10.45 21.65 L10.4 21.65 Q10.35 21.75 10.35 21.85 10.35 21.95 10.4 22.0 10.45 22.35 10.55 22.6 10.6 22.4 10.6 22.15 L10.6 21.7 10.6 21.65 M12.25 15.25 Q11.75 15.2 11.8 14.7 11.85 14.35 12.15 14.3 12.55 14.4 12.55 14.8 12.5 15.15 12.25 15.25 M11.8 16.7 Q12.25 17.1 11.7 16.9 11.4 16.8 11.8 16.7 M12.35 15.65 Q12.95 15.85 12.45 15.9 11.85 15.95 12.35 15.65 M14.6 18.1 L14.55 18.1 Q14.3 18.1 14.35 18.3 L14.4 18.4 14.4 18.45 Q14.35 18.75 14.35 19.0 14.6 19.1 14.75 18.75 L14.8 18.65 14.85 18.35 Q14.8 18.2 14.65 18.15 L14.6 18.1 M14.0 19.7 L14.05 19.65 Q14.0 19.45 13.8 19.4 L13.4 19.35 Q13.1 19.55 13.45 19.7 L13.9 19.75 Q13.85 19.75 13.85 19.8 13.8 19.85 13.85 20.0 13.85 20.25 13.95 20.4 14.1 20.3 14.15 20.1 L14.25 19.95 Q14.25 19.85 14.25 19.8 L14.15 19.75 14.0 19.7 M12.35 20.45 L12.35 20.25 12.3 20.25 12.3 20.2 12.4 20.05 Q12.45 19.9 12.25 19.8 12.1 19.75 11.95 19.75 L11.9 19.7 Q11.8 19.7 11.75 19.8 L11.7 19.9 11.7 19.95 Q11.85 20.1 12.05 20.2 L12.2 20.2 Q12.05 20.4 12.05 20.6 12.0 20.9 12.05 21.2 12.25 21.05 12.3 20.8 L12.35 20.45" fill="#111111" fill-rule="evenodd" stroke="none"/>
    <path d="M15.1 2.4 Q15.6 2.95 15.8 3.75 16.0 4.2 16.1 4.7 16.2 5.05 16.2 5.45 L16.45 6.45 Q16.5 6.75 16.55 7.1 L16.55 7.6 16.6 7.75 16.55 7.7 16.5 7.9 16.55 8.0 16.45 7.95 16.35 8.25 16.25 8.4 16.15 8.8 Q16.05 9.0 16.0 9.2 L16.0 9.35 Q16.2 9.85 16.35 10.55 L16.35 10.65 16.55 10.5 Q16.65 11.0 16.75 11.5 16.8 11.95 16.8 12.4 L16.85 13.35 Q17.1 14.45 17.45 15.5 17.85 16.15 18.55 16.7 L19.7 17.6 20.5 18.15 Q19.1 17.95 18.05 16.95 L18.6 18.0 Q19.35 19.25 20.15 20.35 L19.5 19.85 19.65 20.1 19.15 19.55 Q18.0 18.4 17.3 16.7 16.95 15.85 16.9 15.1 L16.85 14.8 16.8 14.65 16.8 14.8 16.9 15.55 17.15 16.8 Q17.5 18.15 18.1 19.45 18.75 20.85 19.15 22.3 18.75 21.8 18.4 21.25 L18.55 21.8 18.35 21.5 18.5 22.15 Q17.25 19.95 16.7 17.4 L16.6 17.0 16.65 18.7 16.7 20.1 16.8 20.5 17.4 23.75 Q17.15 23.2 16.9 22.55 L16.95 23.0 16.75 22.2 Q16.2 20.65 16.0 18.9 15.9 18.0 16.0 17.15 15.95 15.55 16.25 13.9 16.4 13.05 16.35 12.2 L16.1 11.3 Q15.45 10.7 15.55 9.45 15.6 8.95 15.8 8.6 15.9 8.3 16.05 8.1 L16.05 7.45 15.55 6.65 Q15.25 6.25 15.0 5.75 14.65 5.05 14.7 4.5 14.5 3.85 14.65 3.3 L14.85 3.9 14.9 3.8 14.95 4.15 Q15.25 4.9 15.7 5.65 L15.8 5.9 15.7 5.45 Q15.5 4.5 15.05 3.75 14.85 3.15 14.55 2.6 13.95 2.1 13.25 1.7 12.1 1.15 10.95 0.9 9.55 0.75 8.25 1.2 L8.2 1.4 Q8.05 2.3 7.8 3.2 7.2 5.7 6.35 8.2 5.7 10.0 4.7 11.4 4.1 12.95 3.35 14.45 2.65 15.95 1.4 16.95 0.35 18.4 -0.95 19.4 -0.05 18.05 0.9 16.65 1.75 15.1 2.65 13.45 L2.35 13.65 2.45 13.45 2.05 13.85 Q1.5 14.45 0.85 15.0 -0.3 15.95 -1.55 16.35 L-1.0 15.9 Q-0.15 14.75 1.25 13.65 L1.65 13.3 Q1.45 13.45 1.3 13.55 -0.1 14.25 -1.4 14.45 L-0.7 14.1 -0.9 14.1 Q1.05 13.0 2.85 11.65 L2.15 11.9 Q1.2 12.1 0.45 11.85 1.7 11.55 2.95 11.15 3.5 11.0 4.0 10.7 L4.1 10.45 4.25 10.15 4.45 9.8 Q4.1 10.0 3.6 10.1 L3.55 10.1 3.3 10.15 3.15 10.2 2.75 10.4 2.3 10.6 2.15 10.7 1.85 10.85 1.9 10.8 Q1.35 10.95 0.75 11.0 1.3 10.55 2.25 10.25 L2.3 10.25 2.15 10.2 Q1.8 10.25 1.45 10.2 L1.15 10.2 1.0 10.15 1.15 10.15 0.95 10.05 2.15 9.85 3.0 9.65 3.5 9.55 4.1 9.4 4.6 9.35 4.65 9.3 Q5.35 7.8 5.9 6.15 6.7 3.85 7.65 1.75 L7.9 1.1 7.85 1.0 7.85 0.95 8.0 0.85 8.05 0.75 8.1 0.7 8.3 0.4 8.3 0.55 Q8.7 0.3 9.25 0.25 L10.3 0.05 Q11.65 -0.15 12.85 0.3 13.6 0.6 14.0 1.15 14.4 1.4 14.75 1.85 14.95 2.1 15.1 2.4 M14.2 6.95 L14.25 7.15 14.3 7.15 Q14.4 7.55 14.6 8.0 L14.75 8.25 Q15.0 8.7 15.1 9.15 L14.95 9.1 Q14.85 9.2 14.75 9.25 14.4 9.5 13.9 9.2 13.55 8.95 13.6 8.65 13.5 8.35 13.6 7.8 13.65 7.5 13.8 7.35 13.9 7.25 14.0 7.2 14.0 7.0 14.15 6.95 L14.2 6.95 M14.8 8.95 Q14.4 8.65 14.15 7.95 14.05 7.7 14.0 7.55 L14.0 7.6 13.9 7.95 13.9 8.1 13.95 8.4 14.0 8.6 14.0 8.65 Q14.3 8.9 14.75 8.95 L14.8 8.95 M12.5 9.85 Q12.5 10.0 12.5 10.2 12.45 10.45 12.25 10.55 L12.25 10.5 Q12.1 10.75 11.5 11.1 10.65 11.55 10.0 12.2 10.05 12.0 10.2 11.85 L10.05 11.9 Q10.55 11.1 11.3 10.4 11.95 9.75 12.75 9.55 L12.5 9.85 M12.15 10.15 L11.6 10.7 Q11.85 10.55 12.15 10.4 12.1 10.3 12.15 10.15 M14.35 11.2 L14.35 11.35 Q14.65 11.6 14.9 11.9 15.1 12.15 15.1 12.45 14.8 12.25 14.45 11.9 14.3 11.7 14.25 11.55 14.1 11.8 13.75 12.0 13.4 12.25 12.9 12.35 L12.7 12.4 12.15 12.45 Q11.6 12.65 11.25 13.1 L11.25 13.05 Q10.75 14.7 9.95 16.35 L10.05 16.5 Q10.35 16.6 10.3 16.95 L10.3 17.0 10.45 16.85 10.5 17.0 Q10.55 17.0 10.65 16.95 L10.75 16.9 Q11.25 17.0 11.4 17.4 11.5 17.25 11.65 17.15 12.0 16.95 12.35 16.8 12.65 16.85 12.8 16.95 12.95 16.55 13.45 16.35 L13.8 16.25 Q13.6 15.95 13.8 15.5 14.0 15.05 14.35 14.75 L14.6 14.8 Q14.7 14.85 14.7 15.0 L14.6 15.05 14.8 15.3 14.75 15.05 Q14.5 13.65 14.55 12.4 L14.6 12.6 Q14.6 12.45 14.65 12.3 L14.75 13.25 Q15.1 14.7 15.35 16.15 L15.4 16.9 Q16.1 18.45 15.8 20.25 L15.65 21.0 15.65 22.45 15.6 23.7 15.65 24.05 15.85 24.85 15.9 25.15 15.85 25.1 15.9 25.3 15.75 24.9 Q14.95 23.8 14.95 22.0 14.95 21.05 15.2 20.25 L15.2 19.95 15.25 18.85 15.2 17.55 15.1 16.75 Q14.95 17.35 14.6 17.55 14.55 17.8 14.45 18.0 L14.45 18.2 Q14.4 18.7 14.05 18.95 L14.1 19.0 Q13.85 19.4 13.35 19.05 13.15 18.95 13.1 18.8 L13.05 18.95 Q12.95 19.55 12.45 19.7 L12.5 19.65 Q12.2 19.8 11.75 19.5 11.45 19.3 11.35 18.95 11.35 18.9 11.4 18.9 11.75 19.15 12.1 19.3 L12.6 19.35 Q12.75 18.9 12.75 18.35 12.8 18.05 12.85 17.8 12.8 17.45 12.6 17.15 12.3 17.15 12.0 17.35 11.7 17.5 11.4 17.45 11.5 17.7 11.45 18.0 L11.4 18.0 Q11.5 18.4 11.35 18.85 11.15 19.4 10.75 19.5 11.1 18.95 11.15 18.25 L11.2 17.85 11.2 17.6 Q11.2 17.5 11.15 17.4 11.05 17.35 10.9 17.3 L10.8 17.25 10.75 17.2 10.5 17.25 10.45 17.25 10.3 17.65 Q9.85 18.6 10.5 19.4 L10.65 19.65 Q9.95 19.4 9.8 18.85 L9.6 19.0 Q9.5 19.1 9.45 19.15 L9.45 19.2 Q8.9 19.4 8.75 18.6 L8.75 18.5 8.5 18.95 8.25 19.65 Q7.8 20.9 7.55 22.15 L7.5 23.15 7.5 24.5 7.7 25.3 7.5 25.05 7.5 25.2 7.45 24.95 Q6.85 23.9 6.95 22.55 7.0 21.85 7.2 21.35 L7.25 21.2 7.1 21.4 7.3 20.85 Q7.6 19.55 8.2 18.35 8.5 17.75 8.8 17.2 L9.35 16.0 Q10.1 14.45 11.05 13.1 L11.25 12.75 Q11.4 12.05 12.3 12.05 L13.35 11.7 13.65 11.55 Q14.0 11.35 14.35 11.2 M7.9 1.15 L7.9 1.15 M10.95 4.75 L10.9 4.85 10.85 4.85 10.65 4.8 Q10.25 5.05 9.95 5.5 9.75 5.8 9.65 6.1 9.55 6.25 9.5 6.45 L9.4 6.65 Q10.15 6.85 10.8 7.2 L10.9 7.25 Q11.1 6.6 11.15 5.8 L11.2 5.35 11.1 4.75 10.95 4.75 M11.25 4.65 Q11.9 5.3 11.8 6.35 11.75 6.9 11.55 7.3 11.5 7.6 11.35 7.95 L11.25 7.9 Q11.15 8.6 10.4 9.25 L10.25 9.35 10.0 9.55 Q9.45 10.0 8.75 10.05 8.45 10.1 8.4 9.9 9.35 9.55 10.15 8.9 L9.7 9.05 Q9.05 9.3 8.45 9.15 L10.1 8.2 10.95 7.7 10.85 7.6 Q9.95 7.05 8.9 7.0 8.9 6.95 8.9 6.9 L8.8 6.85 Q8.75 6.75 8.85 6.75 8.8 6.55 8.9 6.3 9.2 5.55 9.85 4.9 10.1 4.65 10.35 4.55 L10.85 4.5 Q11.15 4.45 11.25 4.65 M7.9 10.3 L8.0 10.3 7.75 10.35 7.9 10.3 M7.65 10.2 L7.45 10.2 7.6 10.15 7.65 10.2 M8.1 10.15 L8.15 10.2 8.05 10.2 8.1 10.15 M7.7 11.65 Q7.25 11.85 6.9 11.8 L6.55 11.75 Q6.9 11.45 7.4 11.2 L7.8 11.0 Q8.2 10.85 8.6 10.75 L8.6 10.85 8.75 10.85 8.45 11.1 Q8.2 11.45 7.7 11.65 M8.9 10.8 Q8.45 11.95 7.35 12.95 6.65 13.65 5.75 14.1 6.55 13.1 7.65 11.95 8.25 11.3 8.9 10.8 M9.7 16.8 L8.95 18.1 Q9.15 18.4 9.25 18.7 L9.35 18.9 9.5 18.7 Q9.6 18.6 9.75 18.6 9.7 18.3 9.8 17.9 9.85 17.6 10.0 17.35 9.85 17.15 9.75 16.85 L9.7 16.8 M6.4 17.85 L6.35 17.95 5.6 20.95 5.05 23.1 5.05 23.05 Q5.0 23.5 5.0 24.0 4.6 22.55 5.0 20.9 5.2 20.25 5.45 19.6 5.6 19.15 5.85 18.75 L4.8 20.25 3.9 21.4 Q3.5 21.95 3.3 22.55 3.4 21.8 3.8 21.05 4.2 20.15 4.85 19.4 5.55 18.55 6.35 17.9 L6.4 17.85 M4.0 17.25 L4.1 17.35 Q3.75 18.5 3.0 19.4 L2.5 20.0 2.1 20.65 Q1.6 21.45 1.05 22.1 1.45 21.25 1.95 20.45 2.4 19.45 3.1 18.4 L3.6 17.65 Q3.0 18.25 2.15 18.8 L1.1 19.4 0.7 19.8 -0.1 20.5 Q0.1 20.15 0.45 19.75 1.0 18.7 2.15 18.0 3.15 17.4 4.15 17.0 L3.95 17.2 4.0 17.25 M19.4 18.25 L19.4 18.2 Q19.75 18.4 20.0 18.7 20.15 18.95 20.35 19.1 20.2 19.2 20.05 19.2 L20.15 19.35 20.8 20.3 Q20.05 19.95 19.5 19.1 19.1 18.5 19.25 18.05 L19.4 18.25 M19.4 20.35 Q19.6 20.65 19.55 20.9 19.4 20.85 19.2 20.7 L19.45 21.15 19.85 22.1 Q19.2 21.8 18.8 20.85 18.65 20.45 18.75 20.15 18.65 19.85 18.9 19.75 19.2 20.0 19.4 20.35 M14.5 16.05 L14.45 15.15 Q14.25 15.3 14.1 15.55 13.95 15.9 13.85 16.25 L13.95 16.25 Q14.35 16.5 14.5 16.9 14.55 16.5 14.5 16.05 M12.85 17.0 Q13.15 17.3 13.1 17.85 L13.1 17.9 Q13.15 18.2 13.1 18.6 L13.15 18.55 13.2 18.55 Q13.4 18.75 13.7 18.8 L13.85 18.85 Q14.1 18.25 14.1 17.55 L14.1 16.85 13.95 16.5 Q13.35 16.35 13.0 16.9 12.95 17.0 12.85 17.0 M15.15 19.3 Q15.0 19.95 14.5 19.95 14.7 19.45 14.7 18.95 14.75 18.4 14.7 18.1 15.4 18.45 15.15 19.3 M17.3 21.25 Q17.25 21.0 17.35 20.75 17.8 21.45 18.15 22.15 18.45 22.7 18.65 23.2 18.2 22.95 17.85 22.5 17.95 22.85 17.95 23.2 17.65 22.9 17.45 22.4 17.35 22.15 17.3 21.85 17.2 21.5 17.3 21.25 M16.35 23.05 Q16.35 23.5 16.45 23.95 16.55 24.45 16.5 24.85 16.05 24.35 16.0 23.6 15.9 22.95 16.35 22.6 16.7 22.9 16.85 23.4 16.95 23.75 16.9 24.05 16.6 23.9 16.55 23.5 16.5 23.25 16.35 23.05" fill="#111111" fill-rule="evenodd" stroke="none"/>
    <path d="M12.45 1.65 L12.6 1.65 Q13.05 1.65 13.45 1.85 13.8 2.05 13.9 2.5 13.4 2.95 12.55 2.65 12.1 2.45 12.05 2.0 L12.1 1.9 12.25 1.75 Q12.35 1.7 12.45 1.65 M12.1 9.5 Q12.35 9.85 12.0 9.65 L11.9 9.55 Q11.25 9.75 11.8 9.4 12.15 9.45 12.1 9.5 M16.6 11.95 Q16.55 12.2 16.3 12.2 15.95 12.1 16.05 11.75 16.1 11.55 16.35 11.55 L16.45 11.55 Q16.65 11.7 16.6 11.95 M4.9 18.4 Q5.05 18.3 5.25 18.3 L5.25 18.25 Q5.7 18.55 5.25 18.85 4.9 19.1 4.8 18.7 4.8 18.55 4.9 18.4" fill="#fffdff" fill-rule="evenodd" stroke="none"/>
    <path d="M14.25 5.25 L14.95 6.55 15.45 7.45 Q14.75 7.2 14.4 6.2 14.15 5.7 14.25 5.25 M11.15 5.65 Q11.2 5.8 11.15 5.9 10.85 6.0 10.8 5.65 10.75 5.5 10.85 5.45 11.05 5.5 11.15 5.65 M10.75 6.4 Q11.05 6.6 11.05 6.95 L10.25 6.65 Q9.65 6.4 9.95 6.2 10.35 6.25 10.75 6.4" fill="#ffffff" fill-rule="evenodd" stroke="none"/>
  </g>
  <defs>
    <radialGradient cx="0" cy="0" fx="240.0" fy="0" gradientTransform="matrix(0.0063, -0.0108, 0.0149, 0.0086, 12.55, 4.05)" gradientUnits="userSpaceOnUse" id="gradient0" r="819.2" spreadMethod="pad">
      <stop offset="0.0" stop-color="#edd6d6"/>
      <stop offset="1.0" stop-color="#c57676"/>
    </radialGradient>
    <linearGradient gradientTransform="matrix(0.0021, 0.0034, -0.0031, 0.0018, 12.7, 15.7)" gradientUnits="userSpaceOnUse" id="gradient1" spreadMethod="pad" x1="-819.2" x2="819.2">
      <stop offset="0.0" stop-color="#333333"/>
      <stop offset="1.0" stop-color="#a04545"/>
    </linearGradient>
  </defs>
</svg>
