<?xml version="1.0" encoding="UTF-8" standalone="no"?>
<svg xmlns:ffdec="https://www.free-decompiler.com/flash" xmlns:xlink="http://www.w3.org/1999/xlink" ffdec:objectType="shape" height="27.35px" width="25.25px" xmlns="http://www.w3.org/2000/svg">
  <g transform="matrix(1.0, 0.0, 0.0, 1.0, 6.2, 0.75)">
    <path d="M8.8 25.45 L8.55 25.6 Q8.2 25.75 7.9 25.6 7.9 25.9 7.6 26.25 7.15 26.85 6.55 26.4 6.15 25.85 6.75 25.45 7.05 25.25 7.4 25.1 L7.6 25.0 7.65 25.1 7.7 25.0 Q7.85 24.65 8.25 24.65 8.45 24.65 8.7 24.75 8.85 24.85 8.95 25.0 L8.8 25.45 M6.5 24.9 L6.45 24.9 6.4 25.0 6.25 25.15 Q6.15 25.5 5.8 25.6 L5.75 25.6 Q6.05 25.9 5.45 26.3 4.85 26.6 4.55 26.1 4.55 25.7 4.9 25.55 L5.15 25.45 Q5.0 25.35 5.0 25.15 L5.0 25.05 5.1 24.9 5.15 24.9 4.95 24.65 Q4.85 24.6 4.85 24.5 L4.85 24.4 Q4.9 24.35 4.95 24.25 5.05 24.05 5.35 24.0 5.55 24.05 5.7 24.1 5.75 24.05 5.85 24.0 6.1 23.85 6.35 23.8 L6.75 23.95 Q7.1 24.1 7.15 24.45 6.95 24.95 6.5 24.9 M4.15 24.25 L4.15 24.3 Q4.4 24.3 4.55 24.55 4.7 24.75 4.65 25.0 4.55 25.2 4.35 25.3 4.05 25.45 3.8 25.2 3.65 25.1 3.65 24.9 L3.6 24.9 3.45 25.15 Q3.15 25.55 2.7 25.2 L2.6 25.15 Q2.5 24.75 2.7 24.45 L2.85 24.3 Q2.35 24.5 2.05 24.05 2.05 23.85 2.1 23.7 L2.15 23.6 Q2.05 23.55 2.0 23.45 L1.85 23.4 Q1.8 23.55 1.6 23.65 1.2 23.85 1.0 23.55 L0.95 23.5 Q0.85 23.3 1.0 23.2 L1.1 23.0 1.2 22.9 Q1.3 22.8 1.45 22.8 L1.5 22.65 1.55 22.55 Q1.7 22.3 2.0 22.35 L2.0 22.3 Q2.25 22.35 2.4 22.55 L2.45 22.6 2.65 22.6 Q2.95 22.6 3.15 22.75 3.35 22.9 3.35 23.05 L3.4 23.05 3.6 23.0 Q3.9 22.95 4.1 23.15 4.35 23.3 4.4 23.6 L4.35 23.75 4.25 23.95 4.05 24.15 4.15 24.25 M-0.15 22.25 L-0.25 22.3 Q-0.95 22.75 -1.35 22.15 L-1.4 22.15 Q-1.45 22.05 -1.55 21.9 -1.55 21.65 -1.35 21.55 L-1.2 21.5 -0.95 21.4 -0.85 21.5 -0.35 21.35 Q0.1 21.45 0.05 21.85 0.0 22.1 -0.15 22.25 M-1.55 21.2 Q-1.95 21.25 -2.05 20.85 L-2.05 20.75 -2.0 20.65 -1.9 20.5 Q-1.7 20.35 -1.55 20.35 L-1.05 20.35 Q-0.8 20.4 -0.75 20.6 -0.85 21.05 -1.3 21.15 L-1.55 21.2 M-2.65 20.0 Q-2.75 20.15 -2.95 20.3 L-3.15 20.4 Q-2.75 20.55 -2.9 20.95 -3.0 21.25 -3.35 21.3 -3.9 21.2 -3.75 20.7 -3.7 20.5 -3.5 20.45 -3.65 20.35 -3.75 20.2 L-3.75 20.1 -3.7 19.9 -3.55 19.75 -3.25 19.6 -3.05 19.55 -3.0 19.55 -2.95 19.6 Q-3.0 19.5 -2.95 19.35 -2.9 19.0 -2.5 18.95 L-2.2 19.05 Q-2.0 19.15 -1.9 19.3 -2.0 19.55 -2.25 19.75 -2.45 19.95 -2.65 19.85 -2.65 19.9 -2.65 20.0 M-3.5 18.8 L-3.55 18.8 Q-3.5 18.95 -3.5 19.2 -3.5 19.6 -3.85 19.8 -4.15 19.95 -4.45 19.7 L-4.65 19.55 Q-4.75 19.1 -4.35 18.85 L-3.85 18.6 -4.0 18.45 Q-4.1 18.2 -4.05 18.05 L-4.1 18.0 Q-4.25 18.2 -4.45 18.3 -4.9 18.5 -5.0 18.05 L-5.0 17.9 Q-4.95 17.75 -4.9 17.7 L-4.95 17.4 Q-4.95 17.05 -4.55 17.0 -4.1 17.15 -4.1 17.6 L-4.1 17.7 -4.05 17.6 Q-3.95 17.45 -3.7 17.45 L-3.7 17.4 Q-3.1 17.6 -3.45 18.0 L-3.3 18.15 Q-3.15 18.35 -3.2 18.6 -3.35 18.75 -3.5 18.8 M-4.35 16.6 L-4.4 16.8 Q-4.7 17.15 -5.1 16.95 -5.35 16.85 -5.55 16.65 -5.55 16.4 -5.4 16.15 -5.25 16.0 -5.1 15.95 L-5.2 15.85 Q-5.35 15.75 -5.3 15.6 -5.35 15.2 -4.9 15.15 L-4.6 15.05 -4.6 15.1 Q-4.35 15.2 -4.2 15.45 -4.1 15.65 -4.25 15.85 L-4.45 16.0 -4.5 16.05 -4.45 16.05 -4.35 16.25 Q-4.3 16.45 -4.35 16.6 M-4.6 14.65 L-4.75 14.65 Q-5.45 14.7 -4.85 14.35 L-4.6 14.4 Q-3.95 14.55 -4.6 14.65 M-4.6 14.25 L-4.7 14.1 -4.7 14.05 Q-5.1 14.45 -5.45 14.05 L-5.45 13.95 Q-5.6 13.95 -5.8 13.9 -5.95 13.8 -6.0 13.6 L-5.95 13.35 Q-5.9 13.05 -5.55 13.0 L-5.4 12.95 -4.95 13.0 -5.0 12.85 Q-5.05 12.55 -4.75 12.5 L-4.55 12.6 -4.5 12.55 -4.4 12.45 -4.25 12.45 Q-3.5 12.65 -4.05 13.1 -4.2 13.25 -4.35 13.2 L-4.6 13.3 Q-4.75 13.3 -4.85 13.2 L-4.9 13.3 Q-4.7 13.35 -4.6 13.45 -4.5 13.6 -4.5 13.7 L-4.3 13.7 -4.3 13.65 Q-3.9 13.85 -4.05 14.1 L-3.55 14.1 Q-3.3 14.05 -3.2 14.25 -3.65 15.2 -4.25 14.4 L-4.3 14.35 Q-4.5 14.45 -4.6 14.25 M-4.45 12.25 Q-4.7 12.15 -4.8 11.95 L-4.75 11.8 Q-4.7 11.65 -4.55 11.55 L-4.35 11.5 Q-4.1 11.55 -3.9 11.65 -3.75 11.8 -3.7 12.0 -3.85 12.3 -4.25 12.3 L-4.45 12.25 M-4.25 11.05 L-4.4 11.0 Q-4.95 10.85 -4.3 10.7 L-4.2 10.8 Q-3.65 11.15 -4.25 11.05 M-4.15 10.75 L-4.25 10.7 Q-4.7 10.55 -4.15 10.4 L-4.1 10.45 Q-3.55 10.9 -4.15 10.75 M-3.95 9.8 L-4.0 9.8 -4.0 9.85 Q-4.05 10.05 -4.15 10.25 -4.45 10.2 -4.55 9.9 -4.9 10.0 -4.9 9.55 -4.95 9.2 -4.6 9.15 -4.35 9.2 -4.25 9.4 L-4.25 9.5 -4.15 9.5 Q-4.2 9.3 -3.95 9.25 L-3.75 9.2 -3.4 9.2 Q-3.15 9.5 -3.65 9.75 -3.8 9.85 -3.95 9.8 M-3.65 8.85 Q-3.9 9.05 -4.2 8.7 L-4.2 8.65 -4.25 8.45 Q-4.3 8.3 -4.2 8.2 L-4.05 8.1 -3.95 8.05 -3.9 8.05 Q-3.85 7.95 -3.7 7.95 -3.55 8.0 -3.5 8.15 L-3.4 8.2 Q-3.25 8.4 -3.55 8.75 L-3.65 8.85 M13.7 13.6 Q13.85 13.7 13.85 13.8 13.85 14.35 13.25 14.4 12.9 14.4 12.8 14.1 12.8 13.9 12.85 13.75 13.0 13.4 13.35 13.4 13.55 13.5 13.7 13.6 M4.25 7.85 L4.15 8.05 4.4 7.95 Q4.45 8.0 4.1 8.05 3.4 8.2 4.05 7.8 L4.25 7.85 M4.9 7.65 L5.9 7.0 5.95 6.95 Q6.75 7.35 6.05 8.05 5.7 8.4 5.25 8.35 L4.95 8.35 Q4.4 8.25 4.85 8.05 4.8 7.85 4.9 7.65 M4.0 9.15 Q4.1 9.2 4.2 9.3 4.3 9.5 4.25 9.7 L4.4 9.65 Q4.7 9.6 4.9 9.75 5.15 9.9 5.15 10.15 4.85 10.7 4.25 10.45 4.0 10.4 3.95 10.2 3.8 10.25 3.6 10.25 3.45 10.1 3.35 9.9 3.2 9.7 3.2 9.4 L3.3 9.2 Q3.5 9.05 3.65 9.05 L4.0 9.15 M5.05 10.9 Q5.65 11.05 5.3 11.55 5.05 11.95 4.7 11.55 4.6 11.35 4.65 11.2 4.7 10.9 5.05 10.9 M2.75 8.9 L3.0 9.05 Q3.05 9.2 3.05 9.3 3.05 9.6 2.9 9.85 L2.8 9.95 Q2.2 10.05 2.1 9.55 2.05 9.35 2.05 9.1 L2.1 9.0 2.5 8.8 Q2.65 8.85 2.75 8.9 M3.25 11.4 Q3.3 11.05 3.8 11.0 4.0 11.1 4.2 11.2 4.4 11.25 4.45 11.4 4.45 11.85 3.9 12.0 3.35 12.1 3.25 11.6 L3.25 11.4 M7.7 8.65 L7.4 8.75 7.4 8.85 7.35 8.95 7.25 9.1 7.2 9.25 Q6.6 9.1 6.7 8.45 6.75 7.85 7.3 7.75 7.6 7.7 7.8 7.9 8.0 8.1 8.0 8.35 L7.95 8.5 7.7 8.65 M7.9 9.35 Q7.2 9.45 7.8 9.1 8.45 9.3 7.9 9.35 M7.8 14.05 Q8.45 14.2 8.05 14.7 7.75 15.0 7.45 14.75 7.35 14.55 7.4 14.4 7.5 14.1 7.8 14.05 M8.55 14.15 Q9.2 14.4 8.65 14.8 8.35 15.05 8.2 14.65 L8.2 14.45 Q8.25 14.25 8.4 14.2 L8.55 14.15 M11.1 12.6 Q11.55 12.9 11.0 13.35 10.65 13.65 10.35 13.3 L10.35 13.1 10.4 12.85 10.4 12.75 Q10.55 12.55 10.85 12.6 L11.1 12.6 M12.1 14.65 Q12.4 14.65 12.55 14.85 L12.75 15.15 Q12.6 15.7 11.9 15.6 11.6 15.5 11.55 15.25 11.55 15.1 11.6 15.0 11.75 14.65 12.1 14.65 M10.2 15.55 L10.2 15.5 10.55 15.6 Q10.8 15.7 10.9 15.95 10.9 16.35 10.5 16.6 10.1 16.9 9.65 16.5 9.5 16.3 9.6 16.05 9.7 15.55 10.2 15.55 M10.45 17.4 L10.4 17.25 Q10.35 17.1 10.4 16.95 L10.4 16.8 10.45 16.7 10.55 16.65 10.85 16.55 Q11.1 16.55 11.3 16.75 11.45 16.9 11.45 17.15 11.35 17.4 11.15 17.5 10.8 17.65 10.45 17.4 M8.35 15.75 Q8.0 16.1 7.75 15.7 7.7 15.55 7.75 15.45 7.95 15.2 8.2 15.1 8.85 15.3 8.35 15.75 M8.05 16.95 Q7.9 16.55 8.3 16.5 8.6 16.45 8.75 16.65 8.95 16.85 8.9 17.1 8.35 17.65 8.05 16.95 M1.2 21.75 Q1.4 21.9 1.35 22.15 1.25 22.55 0.75 22.5 0.4 22.45 0.3 22.15 0.3 22.05 0.3 21.9 0.35 21.55 0.75 21.55 1.0 21.55 1.2 21.75 M0.7 23.4 Q0.75 23.75 0.4 23.95 -0.05 24.2 -0.4 23.8 -0.45 23.65 -0.35 23.5 -0.2 23.1 0.2 23.05 0.35 23.15 0.5 23.2 L0.7 23.4 M1.15 24.95 Q1.05 24.55 1.45 24.35 1.75 24.15 2.05 24.15 L2.2 24.25 2.35 24.4 Q2.4 24.6 2.3 24.8 2.15 25.1 1.9 25.3 1.45 25.35 1.2 25.05 L1.15 24.95 M-4.95 11.5 Q-4.55 11.85 -5.1 12.3 -5.4 12.5 -5.7 12.35 -5.9 12.3 -6.1 12.05 -6.35 11.8 -5.95 11.75 L-5.95 11.7 -5.85 11.75 Q-5.55 11.5 -5.15 11.5 L-4.95 11.5 M-5.35 14.6 Q-5.55 14.7 -5.35 14.4 -5.1 14.45 -5.35 14.6 M-2.2 21.0 Q-1.8 21.25 -2.2 21.6 -2.55 21.95 -2.7 21.5 -2.65 21.35 -2.6 21.25 -2.8 21.3 -2.9 21.0 L-2.8 20.85 -2.7 20.75 -2.6 20.7 Q-2.05 20.8 -2.25 21.0 L-2.2 21.0 M-2.1 23.55 Q-1.9 23.35 -1.7 23.35 -1.3 23.25 -1.25 23.6 -1.15 23.85 -1.4 24.05 -1.9 24.3 -2.15 23.85 -2.2 23.8 -2.2 23.7 L-2.1 23.55 M-3.05 23.35 Q-3.45 23.75 -3.85 23.3 -3.9 23.05 -3.75 22.9 -3.5 22.65 -3.15 22.6 -2.45 22.85 -3.05 23.35" fill="#c57676" fill-rule="evenodd" stroke="none"/>
    <path d="M16.55 15.2 L15.4 15.7 Q12.6 19.9 11.35 24.5 L8.8 25.45 8.95 25.0 Q8.85 24.85 8.7 24.75 8.45 24.65 8.25 24.65 7.85 24.65 7.7 25.0 L7.65 25.1 7.6 25.0 7.4 25.1 6.5 24.9 Q6.95 24.95 7.15 24.45 7.1 24.1 6.75 23.95 L6.35 23.8 Q6.1 23.85 5.85 24.0 5.75 24.05 5.7 24.1 5.55 24.05 5.35 24.0 5.05 24.05 4.95 24.25 4.9 24.35 4.85 24.4 L4.85 24.5 4.15 24.25 4.05 24.15 4.25 23.95 4.35 23.75 4.4 23.6 Q4.35 23.3 4.1 23.15 3.9 22.95 3.6 23.0 L3.4 23.05 3.35 23.05 Q3.35 22.9 3.15 22.75 2.95 22.6 2.65 22.6 L2.45 22.6 2.4 22.55 Q2.25 22.35 2.0 22.3 L2.0 22.35 Q1.7 22.3 1.55 22.55 L1.5 22.65 1.45 22.8 Q1.3 22.8 1.2 22.9 L1.1 23.0 Q0.45 22.65 -0.15 22.25 0.0 22.1 0.05 21.85 0.1 21.45 -0.35 21.35 L-0.85 21.5 -0.95 21.4 -1.2 21.5 -1.55 21.2 -1.3 21.15 Q-0.85 21.05 -0.75 20.6 -0.8 20.4 -1.05 20.35 L-1.55 20.35 Q-1.7 20.35 -1.9 20.5 L-2.0 20.65 -2.05 20.75 -2.65 20.0 Q-2.65 19.9 -2.65 19.85 -2.45 19.95 -2.25 19.75 -2.0 19.55 -1.9 19.3 -2.0 19.15 -2.2 19.05 L-2.5 18.95 Q-2.9 19.0 -2.95 19.35 -3.0 19.5 -2.95 19.6 L-3.0 19.55 -3.5 18.8 Q-3.35 18.75 -3.2 18.6 -3.15 18.35 -3.3 18.15 L-3.45 18.0 Q-3.1 17.6 -3.7 17.4 L-3.7 17.45 Q-3.95 17.45 -4.05 17.6 -4.2 17.1 -4.35 16.6 -4.3 16.45 -4.35 16.25 L-4.45 16.05 -4.45 16.0 -4.25 15.85 Q-4.1 15.65 -4.2 15.45 -4.35 15.2 -4.6 15.1 L-4.6 14.65 Q-3.95 14.55 -4.6 14.4 L-4.6 14.25 Q-4.5 14.45 -4.3 14.35 L-4.25 14.4 Q-3.65 15.2 -3.2 14.25 -3.3 14.05 -3.55 14.1 L-4.05 14.1 Q-3.9 13.85 -4.3 13.65 L-4.3 13.7 -4.5 13.7 Q-4.5 13.6 -4.6 13.45 L-4.6 13.3 -4.35 13.2 Q-4.2 13.25 -4.05 13.1 -3.5 12.65 -4.25 12.45 L-4.4 12.45 -4.5 12.55 -4.45 12.25 -4.25 12.3 Q-3.85 12.3 -3.7 12.0 -3.75 11.8 -3.9 11.65 -4.1 11.55 -4.35 11.5 L-4.25 11.05 Q-3.65 11.15 -4.2 10.8 L-4.15 10.75 Q-3.55 10.9 -4.1 10.45 L-3.95 9.8 Q-3.8 9.85 -3.65 9.75 -3.15 9.5 -3.4 9.2 L-3.75 9.2 -3.65 8.85 -3.55 8.75 Q-3.25 8.4 -3.4 8.2 L-3.25 7.8 Q-5.15 6.75 -1.6 6.4 1.05 6.8 3.15 6.3 L6.25 5.0 8.2 2.85 8.25 2.75 9.35 1.5 10.05 1.25 16.35 1.55 16.75 1.9 18.0 7.25 16.15 13.1 16.55 15.2 M13.7 2.45 Q13.7 3.1 14.35 3.45 15.25 3.9 16.0 3.95 16.3 3.4 15.8 2.9 15.15 2.3 14.25 2.1 14.15 2.1 14.05 2.15 L13.85 2.3 13.7 2.45 M14.55 10.8 Q15.15 10.6 14.75 10.3 L14.5 10.4 Q14.1 10.55 13.85 10.8 L14.55 10.8 M13.7 13.6 Q13.55 13.5 13.35 13.4 13.0 13.4 12.85 13.75 12.8 13.9 12.8 14.1 12.9 14.4 13.25 14.4 13.85 14.35 13.85 13.8 13.85 13.7 13.7 13.6 M15.3 13.6 L15.3 13.65 Q15.3 13.9 15.2 14.05 15.05 14.3 14.95 14.6 15.2 14.9 15.55 14.45 16.0 13.95 15.5 13.5 L15.45 13.55 15.3 13.6 M2.35 7.0 L1.95 7.1 Q1.55 7.25 1.3 7.55 L1.9 7.4 Q2.45 7.25 2.35 7.0 M5.55 6.5 L5.25 6.75 Q4.6 7.2 4.25 7.85 L4.05 7.8 Q3.4 8.2 4.1 8.05 4.45 8.0 4.4 7.95 L4.9 7.65 Q4.8 7.85 4.85 8.05 4.4 8.25 4.95 8.35 L5.25 8.35 Q5.7 8.4 6.05 8.05 6.75 7.35 5.95 6.95 6.75 6.35 6.9 5.9 6.45 6.0 6.1 6.2 L6.05 6.2 Q5.9 6.25 5.7 6.35 5.6 6.4 5.55 6.5 M7.7 8.65 L7.95 8.5 8.0 8.35 Q8.0 8.1 7.8 7.9 7.6 7.7 7.3 7.75 6.75 7.85 6.7 8.45 6.6 9.1 7.2 9.25 L7.25 9.1 7.35 8.95 7.4 8.85 7.4 8.75 7.7 8.65 M3.25 11.4 L3.25 11.6 Q3.35 12.1 3.9 12.0 4.45 11.85 4.45 11.4 4.4 11.25 4.2 11.2 4.0 11.1 3.8 11.0 3.3 11.05 3.25 11.4 M2.75 8.9 Q2.65 8.85 2.5 8.8 L2.1 9.0 2.05 9.1 Q2.05 9.35 2.1 9.55 2.2 10.05 2.8 9.95 L2.9 9.85 Q3.05 9.6 3.05 9.3 3.05 9.2 3.0 9.05 L2.75 8.9 M5.05 10.9 Q4.7 10.9 4.65 11.2 4.6 11.35 4.7 11.55 5.05 11.95 5.3 11.55 5.65 11.05 5.05 10.9 M4.0 9.15 L3.65 9.05 Q3.5 9.05 3.3 9.2 L3.2 9.4 Q3.2 9.7 3.35 9.9 3.45 10.1 3.6 10.25 3.8 10.25 3.95 10.2 4.0 10.4 4.25 10.45 4.85 10.7 5.15 10.15 5.15 9.9 4.9 9.75 4.7 9.6 4.4 9.65 L4.25 9.7 Q4.3 9.5 4.2 9.3 4.1 9.2 4.0 9.15 M8.7 10.15 L8.3 10.25 Q8.35 10.55 8.7 10.45 8.95 10.35 8.95 10.25 L8.7 10.15 M7.9 9.35 Q8.45 9.3 7.8 9.1 7.2 9.45 7.9 9.35 M7.1 14.5 L7.0 14.5 6.35 14.65 Q6.05 14.7 5.95 14.9 L6.6 14.8 Q6.95 14.7 7.1 14.5 M9.2 11.35 Q8.75 11.5 8.65 11.8 L9.3 11.8 Q9.85 11.55 9.95 11.25 9.55 11.25 9.2 11.35 M8.55 14.15 L8.4 14.2 Q8.25 14.25 8.2 14.45 L8.2 14.65 Q8.35 15.05 8.65 14.8 9.2 14.4 8.55 14.15 M7.8 14.05 Q7.5 14.1 7.4 14.4 7.35 14.55 7.45 14.75 7.75 15.0 8.05 14.7 8.45 14.2 7.8 14.05 M11.8 11.9 Q11.6 11.95 11.5 12.15 L11.5 12.2 11.15 12.5 11.5 12.4 11.5 12.45 Q11.75 12.5 11.9 12.3 L12.0 12.15 Q12.4 11.9 12.4 11.55 12.15 11.65 11.9 11.8 L11.8 11.9 M8.35 15.75 Q8.85 15.3 8.2 15.1 7.95 15.2 7.75 15.45 7.7 15.55 7.75 15.7 8.0 16.1 8.35 15.75 M10.45 17.4 Q10.8 17.65 11.15 17.5 11.35 17.4 11.45 17.15 11.45 16.9 11.3 16.75 11.1 16.55 10.85 16.55 L10.55 16.65 10.45 16.7 10.4 16.8 10.4 16.95 Q10.35 17.1 10.4 17.25 L10.45 17.4 M10.2 15.55 Q9.7 15.55 9.6 16.05 9.5 16.3 9.65 16.5 10.1 16.9 10.5 16.6 10.9 16.35 10.9 15.95 10.8 15.7 10.55 15.6 L10.2 15.5 10.2 15.55 M12.1 14.65 Q11.75 14.65 11.6 15.0 11.55 15.1 11.55 15.25 11.6 15.5 11.9 15.6 12.6 15.7 12.75 15.15 L12.55 14.85 Q12.4 14.65 12.1 14.65 M11.1 12.6 L10.85 12.6 Q10.55 12.55 10.4 12.75 L10.4 12.85 10.35 13.1 10.35 13.3 Q10.65 13.65 11.0 13.35 11.55 12.9 11.1 12.6 M8.65 18.2 Q9.2 17.7 9.1 17.4 8.7 17.6 8.4 17.9 8.1 18.2 7.95 18.55 8.3 18.5 8.65 18.2 M8.05 16.95 Q8.35 17.65 8.9 17.1 8.95 16.85 8.75 16.65 8.6 16.45 8.3 16.5 7.9 16.55 8.05 16.95 M2.95 19.1 L2.8 19.05 Q2.45 19.2 2.2 19.4 2.05 19.55 2.0 19.7 2.3 19.65 2.6 19.45 2.85 19.25 3.1 19.2 3.05 19.1 2.95 19.1 M1.2 21.75 Q1.0 21.55 0.75 21.55 0.35 21.55 0.3 21.9 0.3 22.05 0.3 22.15 0.4 22.45 0.75 22.5 1.25 22.55 1.35 22.15 1.4 21.9 1.2 21.75 M-0.2 10.8 L-0.5 10.75 -0.55 10.75 Q-0.65 10.85 -0.55 10.9 -0.3 11.0 -0.1 10.9 0.0 10.8 -0.2 10.8 M-0.95 13.4 L-1.2 13.45 -1.25 13.45 -1.3 13.55 Q-1.1 13.7 -0.75 13.75 -0.2 13.9 0.05 13.65 -0.05 13.45 -0.35 13.45 L-0.95 13.4 M0.1 6.85 Q0.15 6.8 -0.15 6.85 -0.2 7.0 0.1 6.85" fill="url(#gradient0)" fill-rule="evenodd" stroke="none"/>
    <path d="M14.55 10.8 L13.85 10.8 Q14.1 10.55 14.5 10.4 L14.75 10.3 Q15.15 10.6 14.55 10.8 M15.3 13.6 L15.45 13.55 15.5 13.5 Q16.0 13.95 15.55 14.45 15.2 14.9 14.95 14.6 15.05 14.3 15.2 14.05 15.3 13.9 15.3 13.65 L15.3 13.6 M15.35 13.85 Q15.35 14.05 15.6 14.15 15.75 14.05 15.75 13.95 15.7 13.7 15.5 13.65 15.35 13.65 15.35 13.85 M2.35 7.0 Q2.45 7.25 1.9 7.4 L1.3 7.55 Q1.55 7.25 1.95 7.1 L2.35 7.0 M5.55 6.5 Q5.55 6.55 5.55 6.65 L5.95 6.65 6.3 6.35 6.15 6.25 6.1 6.2 Q6.45 6.0 6.9 5.9 6.75 6.35 5.95 6.95 L5.9 7.0 4.9 7.65 4.4 7.95 4.15 8.05 4.25 7.85 Q4.6 7.2 5.25 6.75 L5.55 6.5 M8.7 10.15 L8.95 10.25 Q8.95 10.35 8.7 10.45 8.35 10.55 8.3 10.25 L8.7 10.15 M9.2 11.55 Q9.15 11.6 9.15 11.65 9.4 11.75 9.65 11.6 9.95 11.4 9.45 11.4 9.3 11.4 9.2 11.55 M9.2 11.35 Q9.55 11.25 9.95 11.25 9.85 11.55 9.3 11.8 L8.65 11.8 Q8.75 11.5 9.2 11.35 M7.1 14.5 Q6.95 14.7 6.6 14.8 L5.95 14.9 Q6.05 14.7 6.35 14.65 L7.0 14.5 7.1 14.5 M11.8 11.9 L11.9 11.8 Q12.15 11.65 12.4 11.55 12.4 11.9 12.0 12.15 L11.9 12.3 Q11.75 12.5 11.5 12.45 L11.5 12.4 11.15 12.5 11.5 12.2 11.5 12.15 Q11.6 11.95 11.8 11.9 M8.65 18.2 Q8.3 18.5 7.95 18.55 8.1 18.2 8.4 17.9 8.7 17.6 9.1 17.4 9.2 17.7 8.65 18.2 M2.95 19.1 Q3.05 19.1 3.1 19.2 2.85 19.25 2.6 19.45 2.3 19.65 2.0 19.7 2.05 19.55 2.2 19.4 2.45 19.2 2.8 19.05 L2.95 19.1 M-0.2 10.8 Q0.0 10.8 -0.1 10.9 -0.3 11.0 -0.55 10.9 -0.65 10.85 -0.55 10.75 L-0.5 10.75 -0.2 10.8 M-0.95 13.4 L-0.35 13.45 Q-0.05 13.45 0.05 13.65 -0.2 13.9 -0.75 13.75 -1.1 13.7 -1.3 13.55 L-1.25 13.45 -1.2 13.45 -0.95 13.4 M0.1 6.85 Q-0.2 7.0 -0.15 6.85 0.15 6.8 0.1 6.85" fill="#e6c4c4" fill-rule="evenodd" stroke="none"/>
    <path d="M13.7 2.45 L13.85 2.3 14.05 2.15 Q14.15 2.1 14.25 2.1 15.15 2.3 15.8 2.9 16.3 3.4 16.0 3.95 15.25 3.9 14.35 3.45 13.7 3.1 13.7 2.45 M15.35 13.85 Q15.35 13.65 15.5 13.65 15.7 13.7 15.75 13.95 15.75 14.05 15.6 14.15 15.35 14.05 15.35 13.85 M6.1 6.2 L6.15 6.25 6.3 6.35 5.95 6.65 5.55 6.65 Q5.55 6.55 5.55 6.5 5.6 6.4 5.7 6.35 5.9 6.25 6.05 6.2 L6.1 6.2 M9.2 11.55 Q9.3 11.4 9.45 11.4 9.95 11.4 9.65 11.6 9.4 11.75 9.15 11.65 9.15 11.6 9.2 11.55" fill="#fffdff" fill-rule="evenodd" stroke="none"/>
    <path d="M3.15 6.3 Q3.55 5.85 3.95 5.35 4.85 4.2 5.9 3.1 6.5 2.5 7.15 2.0 L7.35 1.5 Q8.0 0.15 9.45 -0.1 L9.55 -0.1 9.7 -0.25 Q9.8 -0.35 10.0 -0.4 L10.5 -0.5 10.95 -0.5 Q11.7 -0.65 12.45 -0.65 L12.55 -0.7 13.05 -0.75 Q14.5 -0.75 15.85 -0.05 L16.05 0.05 16.5 0.25 Q17.45 0.75 17.5 1.45 18.3 2.5 18.15 3.9 18.1 4.55 18.2 5.2 18.8 5.8 19.0 6.65 19.1 7.1 18.95 7.4 19.2 8.55 18.6 10.05 18.1 11.3 17.2 11.8 17.45 12.75 17.25 13.75 17.15 14.4 16.85 14.85 L16.75 15.0 16.55 15.25 16.55 15.2 16.15 13.1 18.0 7.25 16.75 1.9 16.35 1.55 10.05 1.25 9.35 1.5 8.25 2.75 8.2 2.85 6.25 5.0 3.15 6.3" fill="#111111" fill-rule="evenodd" stroke="none"/>
    <path d="M12.7 17.4 L14.1 16.4 12.8 17.45 12.7 17.4 M14.25 16.35 L14.95 16.1 14.25 16.35 M15.0 16.25 L15.05 16.3 15.15 16.65 15.2 16.65 Q15.4 16.55 15.55 16.35 L15.6 16.35 Q15.75 16.2 15.8 16.1 L15.15 17.55 Q14.75 17.35 14.9 17.05 L13.2 17.6 12.9 17.55 Q13.3 17.15 13.85 16.95 14.75 16.65 15.0 16.25 M15.2 16.05 L15.7 15.75 15.8 15.75 15.8 15.95 15.7 15.8 15.2 16.05" fill="#ffffff" fill-rule="evenodd" stroke="none"/>
    <path d="M14.1 16.4 L14.25 16.35 14.95 16.1 15.05 16.05 15.0 16.25 Q14.75 16.65 13.85 16.95 13.3 17.15 12.9 17.55 L12.8 17.45 14.1 16.4 M15.05 16.3 L15.2 16.05 15.7 15.8 15.8 15.95 15.8 16.1 Q15.75 16.2 15.6 16.35 L15.55 16.35 Q15.4 16.55 15.2 16.65 L15.15 16.65 15.05 16.3" fill="#afadbf" fill-rule="evenodd" stroke="none"/>
    <path d="M14.8 11.7 L14.3 11.3 Q14.3 11.15 14.5 11.05 14.6 11.0 14.7 11.0 14.85 11.0 15.0 11.1 L15.15 11.3 14.8 11.7 M10.95 9.65 L10.7 9.7 10.5 9.5 10.75 9.2 10.9 9.1 11.05 9.15 Q11.15 9.2 11.2 9.25 11.15 9.5 10.95 9.65 M11.5 9.0 L11.55 9.2 Q11.35 9.2 11.25 9.05 11.15 8.95 11.35 8.9 11.45 8.95 11.5 9.0" fill="#69221e" fill-rule="evenodd" stroke="none"/>
    <path d="M13.2 17.6 L14.45 17.75 Q12.05 21.25 11.35 24.5 10.35 27.05 8.5 25.5 8.8 22.3 9.85 20.25 L12.4 17.45 12.25 17.8 Q12.3 18.05 12.45 18.1 L12.65 18.15 12.85 18.05 Q13.1 17.9 13.0 17.7 L12.9 17.55 13.2 17.6 M12.45 17.4 L12.55 17.4 12.45 17.4 M12.35 18.4 Q12.3 18.3 12.1 18.3 12.45 18.15 11.85 18.05 L11.45 18.6 Q11.55 18.75 11.7 18.8 L11.8 18.85 11.65 19.05 11.6 19.05 11.5 18.95 11.35 19.05 11.25 19.1 Q11.15 19.0 10.95 18.95 L10.15 20.1 Q10.15 20.5 10.5 20.5 10.45 20.6 10.5 20.65 10.15 20.75 10.5 20.9 L10.7 20.95 Q10.55 21.05 10.45 21.2 L10.35 21.15 Q10.25 21.2 10.2 21.25 10.15 21.35 10.1 21.45 L9.95 21.35 9.95 21.4 Q9.65 21.35 9.6 21.65 L9.6 21.9 9.7 22.05 9.65 22.15 9.6 22.3 9.6 22.55 Q9.6 22.7 9.65 22.8 9.45 22.9 9.45 23.15 9.4 23.4 9.5 23.6 9.4 23.5 9.2 23.5 8.8 23.55 8.95 23.9 9.3 24.6 9.75 24.05 9.7 23.85 9.6 23.7 9.85 23.75 10.0 23.55 L10.0 24.15 9.95 24.15 9.8 24.2 Q9.6 24.25 9.55 24.45 9.5 24.55 9.5 24.7 9.65 25.05 10.1 24.95 L10.15 25.35 10.3 24.85 Q10.6 24.7 10.65 24.4 L10.6 24.3 10.95 24.25 Q11.45 24.1 11.45 23.6 11.35 23.5 11.25 23.4 11.45 23.15 10.85 23.05 L10.7 23.05 10.65 23.1 10.7 23.0 10.75 22.85 11.0 22.85 Q11.15 22.8 11.25 22.65 11.35 22.5 11.35 22.35 11.8 22.4 11.2 22.0 L11.2 22.05 11.1 21.95 11.15 21.75 Q11.85 21.9 11.35 21.55 L11.35 21.5 Q11.7 21.25 11.45 21.05 L11.6 20.7 11.65 20.6 Q12.1 20.45 11.85 20.2 L12.2 19.4 Q12.3 19.35 12.2 19.25 12.4 18.75 12.5 18.3 L12.35 18.4 M10.25 21.55 L10.25 21.5 10.3 21.5 10.3 21.55 10.25 21.55" fill="url(#gradient1)" fill-rule="evenodd" stroke="none"/>
    <path d="M15.55 10.05 Q15.55 9.75 15.9 9.65 16.45 9.8 16.15 10.25 15.95 10.55 15.6 10.45 15.5 10.3 15.55 10.05 M14.3 11.3 L14.8 11.7 14.85 11.7 14.3 12.05 Q14.05 12.4 13.5 12.75 12.5 13.35 11.7 14.15 11.15 14.6 10.55 14.9 L11.55 13.6 Q11.85 12.9 12.6 12.35 13.35 11.85 14.15 11.6 L14.3 11.3 M11.6 9.45 L10.95 9.65 Q11.15 9.5 11.2 9.25 11.15 9.2 11.05 9.15 L10.9 9.1 11.35 8.8 11.5 8.85 11.6 9.45 M10.7 9.7 L10.5 9.5 Q9.9 10.2 9.15 10.45 9.25 9.3 10.15 8.4 10.55 7.95 11.0 7.65 10.25 8.05 9.6 8.65 8.65 9.45 7.65 10.2 8.55 8.9 9.85 7.8 11.35 6.6 13.1 6.1 13.6 6.4 12.4 6.9 L12.35 7.05 12.4 7.15 10.75 9.2 10.5 9.5 10.7 9.7 M0.15 14.25 Q0.0 14.75 -1.05 14.95 -1.75 15.1 -2.4 15.0 -2.1 14.8 -1.75 14.65 L-2.05 14.7 -3.95 14.9 Q-3.1 14.25 -1.95 14.1 L-0.05 13.85 Q0.15 13.8 0.35 13.9 0.5 14.0 0.55 14.15 L0.15 14.25 M6.05 11.35 Q6.4 10.95 7.0 10.8 L7.6 10.75 7.8 10.9 Q7.2 11.35 6.35 11.4 L6.05 11.35 M5.75 13.25 Q5.65 13.15 5.85 13.05 6.4 12.7 7.0 12.45 L7.55 12.4 Q7.65 12.65 7.35 12.9 7.3 13.15 6.85 13.4 6.45 13.6 6.1 13.6 L6.15 13.45 5.95 13.35 5.65 13.35 5.8 13.3 5.75 13.25 M11.5 9.0 Q11.45 8.95 11.35 8.9 11.15 8.95 11.25 9.05 11.35 9.2 11.55 9.2 L11.5 9.0 M10.45 10.75 L8.0 11.3 Q8.85 10.7 10.05 10.45 L11.3 10.15 Q11.55 10.55 10.45 10.75 M7.1 13.7 Q8.4 12.65 10.2 11.7 11.05 11.2 11.95 10.75 10.95 11.95 9.35 12.8 L7.1 13.7 M10.15 14.0 Q10.25 14.05 10.3 14.15 L9.8 15.0 Q9.35 15.3 8.95 15.1 8.9 14.65 9.25 14.3 9.55 14.0 9.95 13.95 L10.15 14.0 M10.3 17.45 Q10.4 17.5 10.4 17.55 L10.3 17.65 Q10.4 17.95 9.95 18.5 9.35 19.25 9.0 20.15 8.45 21.5 7.7 22.65 L6.9 24.2 Q6.95 22.45 7.75 20.7 L6.9 21.75 Q7.0 20.4 7.9 19.15 8.75 17.9 10.15 17.4 L10.3 17.45 M12.35 18.4 L12.5 18.3 Q12.4 18.75 12.2 19.25 L12.2 19.4 11.85 20.2 11.5 20.0 11.5 19.95 11.4 19.8 11.4 19.75 11.3 19.65 Q11.25 19.5 11.25 19.35 11.25 19.1 11.6 19.05 L11.65 19.05 11.8 18.85 11.85 18.85 Q12.1 18.85 12.4 18.55 L12.35 18.4 M11.65 20.6 L11.6 20.7 11.45 21.05 11.3 21.45 11.2 21.45 Q10.65 21.65 11.15 21.75 L11.1 21.95 10.9 22.6 Q10.65 22.15 10.65 21.65 11.2 21.85 10.65 21.35 10.65 21.1 10.75 20.8 L10.8 20.8 10.8 20.75 Q10.8 20.6 10.85 20.45 11.0 20.25 11.2 20.25 L11.3 20.25 Q11.5 20.4 11.4 20.65 L11.65 20.6 M10.75 22.85 L10.7 23.0 10.65 23.1 10.5 23.2 Q10.05 23.35 9.95 23.0 9.9 22.8 9.95 22.65 10.05 22.35 10.35 22.35 10.65 22.4 10.75 22.65 L10.75 22.85 M10.1 21.45 Q10.15 21.35 10.2 21.25 10.25 21.2 10.35 21.15 L10.45 21.2 Q10.85 21.4 10.3 21.5 L10.25 21.5 10.25 21.55 Q10.1 21.55 10.1 21.45 M6.7 15.0 Q6.95 14.85 7.2 14.8 8.25 15.25 7.0 16.0 6.4 16.35 5.8 16.35 5.85 16.15 6.0 15.95 L6.2 15.75 5.55 16.1 Q5.1 16.35 4.55 16.55 4.9 16.0 5.5 15.6 6.05 15.2 6.7 15.0 M0.75 21.7 Q1.35 20.9 2.25 20.2 2.8 19.75 3.45 19.55 L3.65 19.6 3.8 19.65 Q3.9 20.2 3.45 20.65 3.05 21.0 2.55 21.1 L2.55 20.95 Q2.55 20.85 2.6 20.75 L2.65 20.65 Q1.95 21.15 1.3 21.7 1.05 21.9 0.75 21.7 M-1.75 7.0 L-1.0 7.35 -1.75 7.55 Q-2.55 7.55 -3.2 7.2 L-3.2 7.15 -3.1 7.05 Q-3.05 7.0 -2.95 7.0 L-2.85 7.0 -2.7 6.95 -1.75 7.0 M-0.4 8.1 L-0.1 8.4 Q-0.85 8.75 -1.85 9.0 -2.45 9.15 -3.0 9.0 -2.35 8.55 -1.45 8.35 L-0.4 8.1 M-0.55 11.35 Q0.35 11.25 0.95 11.65 0.35 12.0 -0.55 11.95 -1.95 11.8 -3.25 11.45 L-2.85 11.4 -2.45 11.4 -2.4 11.35 -1.95 11.35 Q-1.25 11.4 -0.55 11.35" fill="#a04545" fill-rule="evenodd" stroke="none"/>
    <path d="M13.05 7.95 L12.75 8.0 12.55 8.5 Q12.9 8.75 13.15 8.45 13.3 8.25 13.25 8.1 13.2 8.0 13.05 7.95 M11.5 8.85 L11.6 8.25 14.65 6.05 Q15.6 7.55 14.3 9.05 L11.6 9.45 11.5 8.85" fill="#edd6d6" fill-rule="evenodd" stroke="none"/>
    <path d="M13.05 7.95 Q13.2 8.0 13.25 8.1 13.3 8.25 13.15 8.45 12.9 8.75 12.55 8.5 L12.75 8.0 13.05 7.95" fill="#ff0000" fill-rule="evenodd" stroke="none"/>
    <path d="M12.55 17.4 L12.7 17.4 12.8 17.45 12.9 17.55 13.0 17.7 Q13.1 17.9 12.85 18.05 L12.65 18.15 12.45 18.1 Q12.3 18.05 12.25 17.8 L12.4 17.45 12.45 17.4 12.55 17.4 M11.8 18.85 L11.7 18.8 Q11.55 18.75 11.45 18.6 L11.85 18.05 Q12.45 18.15 12.1 18.3 12.3 18.3 12.35 18.4 L12.4 18.55 Q12.1 18.85 11.85 18.85 L11.8 18.85 M12.2 19.25 Q12.3 19.35 12.2 19.4 L12.2 19.25 M11.85 20.2 Q12.1 20.45 11.65 20.6 L11.4 20.65 Q11.5 20.4 11.3 20.25 L11.2 20.25 Q11.0 20.25 10.85 20.45 10.8 20.6 10.8 20.75 L10.8 20.8 10.75 20.8 Q10.65 21.1 10.65 21.35 11.2 21.85 10.65 21.65 10.65 22.15 10.9 22.6 L11.1 21.95 11.2 22.05 11.2 22.0 Q11.8 22.4 11.35 22.35 11.35 22.5 11.25 22.65 11.15 22.8 11.0 22.85 L10.75 22.85 10.75 22.65 Q10.65 22.4 10.35 22.35 10.05 22.35 9.95 22.65 9.9 22.8 9.95 23.0 10.05 23.35 10.5 23.2 L10.65 23.1 10.7 23.05 10.85 23.05 Q11.45 23.15 11.25 23.4 11.35 23.5 11.45 23.6 11.45 24.1 10.95 24.25 L10.6 24.3 10.65 24.4 Q10.6 24.7 10.3 24.85 L10.15 25.35 10.1 24.95 Q9.65 25.05 9.5 24.7 9.5 24.55 9.55 24.45 9.6 24.25 9.8 24.2 L9.95 24.15 10.0 24.15 10.0 23.55 Q9.85 23.75 9.6 23.7 9.7 23.85 9.75 24.05 9.3 24.6 8.95 23.9 8.8 23.55 9.2 23.5 9.4 23.5 9.5 23.6 9.4 23.4 9.45 23.15 9.45 22.9 9.65 22.8 9.6 22.7 9.6 22.55 L9.6 22.3 9.65 22.15 9.7 22.05 9.6 21.9 9.6 21.65 Q9.65 21.35 9.95 21.4 L9.95 21.35 10.1 21.45 Q10.1 21.55 10.25 21.55 L10.3 21.55 10.3 21.5 Q10.85 21.4 10.45 21.2 10.55 21.05 10.7 20.95 L10.5 20.9 Q10.15 20.75 10.5 20.65 10.45 20.6 10.5 20.5 10.15 20.5 10.15 20.1 L10.95 18.95 Q11.15 19.0 11.25 19.1 L11.35 19.05 11.5 18.95 11.6 19.05 Q11.25 19.1 11.25 19.35 11.25 19.5 11.3 19.65 L11.4 19.75 11.4 19.8 11.5 19.95 11.5 20.0 11.85 20.2 M11.45 21.05 Q11.7 21.25 11.35 21.5 L11.35 21.55 Q11.85 21.9 11.15 21.75 10.65 21.65 11.2 21.45 L11.3 21.45 11.45 21.05" fill="#111111" fill-rule="evenodd" stroke="none"/>
    <path d="M16.3 2.75 Q16.15 2.35 15.9 2.1 14.25 1.4 12.4 1.4 L11.6 1.55 11.4 1.65 Q10.2 2.1 9.2 2.2 8.8 3.65 7.25 5.05 L6.1 6.0 4.85 7.05 Q2.5 8.9 0.0 9.0 1.7 7.95 3.25 6.65 1.15 7.55 -1.1 7.9 L-2.25 7.9 Q-2.95 7.95 -3.5 7.7 L-2.2 7.6 -2.75 7.5 -1.3 7.35 Q-1.95 7.25 -2.15 6.9 L-2.1 6.9 -0.95 6.95 Q-0.5 6.95 -0.25 7.15 L1.1 6.9 1.55 6.75 -0.4 6.65 Q-1.2 6.6 -1.85 6.4 L-0.85 6.4 2.65 6.15 3.55 5.95 3.7 5.9 4.7 5.45 4.75 5.4 Q5.7 4.55 6.55 3.6 7.05 3.1 7.55 2.7 L8.15 2.1 8.1 2.1 Q8.3 0.9 9.9 0.6 10.5 0.35 11.2 0.2 L11.95 0.0 Q12.85 -0.05 13.75 0.15 14.35 0.2 14.9 0.35 15.0 0.4 15.1 0.45 L15.35 0.4 15.5 0.35 Q17.2 0.95 17.7 2.55 17.95 3.25 17.7 3.85 17.75 4.65 17.95 5.5 18.15 6.55 18.6 7.35 L18.25 7.2 Q18.45 8.8 17.65 10.55 17.3 11.25 16.8 11.85 17.0 12.65 16.95 13.6 16.9 14.65 16.5 15.6 L16.45 15.65 16.4 15.55 16.35 15.55 16.3 15.65 16.3 15.55 16.15 15.6 16.2 15.65 16.2 16.05 Q16.25 16.8 15.75 17.45 L15.4 17.75 15.35 17.8 Q15.2 17.9 15.05 17.9 L14.65 17.9 14.75 17.8 14.65 17.7 13.2 20.4 12.05 22.6 Q11.65 23.7 11.3 24.75 L11.35 24.2 11.25 24.4 Q11.35 22.1 12.35 20.0 L12.6 19.4 Q12.85 18.75 13.2 18.2 L13.35 18.1 13.55 17.95 Q13.0 18.0 12.7 17.55 L12.25 17.95 Q11.6 18.6 11.0 19.25 10.1 20.2 9.75 21.2 L9.2 23.35 8.55 26.2 8.55 25.15 8.5 25.3 8.3 26.0 Q8.25 24.6 8.65 23.0 L8.65 22.95 8.85 21.8 Q8.95 21.35 9.1 20.95 9.45 19.6 10.55 18.3 12.65 15.75 15.85 14.9 L15.95 14.75 Q16.05 14.7 16.15 14.65 16.0 14.0 16.05 13.2 L16.0 13.05 16.0 11.95 Q16.1 11.55 16.25 11.2 L16.35 10.85 16.45 11.0 16.95 9.75 Q17.1 9.55 17.2 9.25 17.4 8.7 17.35 8.2 17.55 7.7 17.8 7.3 17.0 6.9 16.75 5.8 16.4 5.1 16.4 4.1 16.4 3.6 16.55 3.2 L16.3 2.75 M14.25 5.85 Q14.35 5.8 14.4 5.8 L14.5 5.8 14.7 5.95 Q15.75 6.85 15.15 8.2 14.85 8.85 14.45 9.15 L14.35 9.15 Q14.2 9.25 14.0 9.25 L13.7 9.4 Q13.55 9.65 12.9 9.95 10.2 11.3 7.15 12.0 5.75 12.3 4.3 12.5 L5.6 12.0 4.2 12.2 6.75 11.6 Q8.15 11.15 9.6 10.75 L11.05 10.35 12.65 9.7 12.6 9.75 Q11.3 10.0 9.95 10.2 L9.7 10.4 9.85 10.2 7.55 10.4 6.15 10.3 7.45 10.15 6.95 10.1 6.6 10.05 6.7 10.05 6.15 9.95 8.45 9.9 10.05 9.65 Q10.7 8.45 11.95 7.5 L12.45 7.15 Q10.9 8.0 9.55 9.15 9.3 9.4 9.0 9.55 10.05 8.35 11.4 7.35 12.7 6.35 14.25 5.85 M13.6 6.85 Q12.65 7.6 11.8 8.4 L11.75 8.45 11.75 8.75 11.85 9.2 11.9 9.35 11.95 9.35 13.7 9.1 14.0 9.0 Q14.55 8.25 14.65 7.35 L14.6 7.45 Q14.5 7.3 14.6 7.05 L14.65 6.85 Q14.6 6.5 14.35 6.2 L14.2 6.35 Q14.05 6.55 13.6 6.85 M12.85 8.15 Q12.55 8.3 12.8 8.45 12.95 8.55 13.0 8.35 L13.0 8.3 12.85 8.15 M13.8 9.75 L14.15 9.45 Q12.15 11.8 9.25 13.3 7.25 14.35 5.15 14.7 L6.65 14.2 Q5.6 14.55 4.55 14.7 5.45 14.35 6.35 13.95 L6.0 13.95 6.4 13.7 6.2 13.7 7.1 13.15 7.55 12.75 7.35 12.8 6.65 12.9 Q6.0 13.05 5.45 12.85 L5.75 12.8 5.55 12.75 Q6.5 12.45 7.7 12.2 L8.5 12.15 8.3 12.35 8.3 12.4 8.4 12.4 8.3 12.45 Q8.1 12.85 7.75 13.15 L7.35 13.5 Q9.6 12.4 11.75 11.05 L14.05 9.45 13.8 9.75 M15.3 10.95 Q15.35 11.25 15.25 11.5 15.05 11.85 14.65 11.9 L14.65 11.8 Q14.6 11.8 14.6 11.7 L14.6 11.65 14.2 11.7 13.6 12.2 12.85 12.65 11.6 13.95 9.8 15.7 Q10.65 14.45 11.9 13.2 12.5 12.6 13.15 12.1 L13.55 11.75 13.8 11.6 Q14.05 11.35 14.4 11.15 L14.95 10.95 15.3 10.95 M15.05 11.2 Q14.75 11.25 14.5 11.4 L14.45 11.4 14.7 11.45 Q14.85 11.5 14.85 11.6 15.0 11.45 15.0 11.25 L15.05 11.2 M1.3 7.8 L0.65 8.1 Q0.45 8.25 0.15 8.35 L-0.3 8.6 Q-0.85 8.95 -1.45 9.05 -1.05 8.75 -0.55 8.45 L-1.05 8.35 Q-0.65 8.05 -0.05 7.95 L0.5 7.9 0.95 7.7 1.15 7.75 Q1.25 7.75 1.3 7.8 M12.2 8.6 Q12.2 7.9 13.0 7.7 14.1 8.6 12.5 8.85 12.2 8.9 12.2 8.6 M10.3 9.6 L10.35 9.5 10.2 9.65 10.3 9.65 10.3 9.6 M10.65 9.6 L11.5 9.45 Q11.35 9.2 11.35 8.85 L10.85 9.35 10.65 9.6 M6.95 10.6 L7.1 10.55 7.95 10.55 Q8.1 10.6 8.25 10.7 L7.95 10.8 Q8.1 11.0 7.55 11.3 7.2 11.45 6.85 11.4 7.15 11.15 7.5 10.9 L7.65 10.85 6.85 10.8 6.8 10.8 6.8 10.75 Q6.8 10.65 6.95 10.6 M9.5 9.25 Q10.0 9.4 9.5 9.4 9.2 9.45 9.5 9.25 M10.35 14.05 Q10.5 14.5 9.85 15.1 L8.0 17.0 7.85 17.2 Q8.3 16.3 9.1 15.4 L10.35 14.05 Q9.5 14.45 8.8 15.15 8.45 15.5 8.1 15.7 8.5 14.95 9.25 14.4 9.75 14.05 10.2 13.85 L10.35 14.05 M14.45 16.35 L14.05 16.5 13.45 17.05 12.85 17.45 13.0 17.45 Q13.6 17.5 14.2 17.2 14.6 17.0 14.75 16.6 L14.95 16.1 15.0 16.1 14.45 16.35 M15.7 15.85 L15.3 16.0 Q15.35 16.25 15.3 16.5 15.3 16.95 14.9 17.35 L15.05 17.4 Q15.4 17.0 15.6 16.55 L15.65 16.25 Q15.65 15.95 15.8 15.75 L15.7 15.85" fill="#111111" fill-rule="evenodd" stroke="none"/>
    <path d="M14.5 7.15 Q14.4 7.45 14.1 7.45 L14.1 7.4 Q13.95 7.2 14.0 6.9 14.05 6.6 14.3 6.55 14.6 6.75 14.5 7.15 M13.7 8.1 Q13.65 8.2 13.55 8.25 L13.45 8.3 13.45 8.35 13.25 8.35 13.1 8.3 Q13.0 8.1 13.1 7.95 13.2 7.75 13.4 7.7 13.5 7.65 13.65 7.65 14.05 7.75 13.7 8.1" fill="#ffffff" fill-rule="evenodd" stroke="none"/>
  </g>
  <defs>
    <radialGradient cx="0" cy="0" fx="169.60000000000002" fy="0" gradientTransform="matrix(0.0108, -0.0074, 0.0102, 0.0149, 12.2, 7.05)" gradientUnits="userSpaceOnUse" id="gradient0" r="819.2" spreadMethod="pad">
      <stop offset="0.0" stop-color="#edd6d6"/>
      <stop offset="1.0" stop-color="#c57676"/>
    </radialGradient>
    <radialGradient cx="0" cy="0" gradientTransform="matrix(0.0026, 0.0011, -0.0025, 0.0056, 12.4, 21.15)" gradientUnits="userSpaceOnUse" id="gradient1" r="819.2" spreadMethod="pad">
      <stop offset="0.0" stop-color="#a04545"/>
      <stop offset="1.0" stop-color="#333333"/>
    </radialGradient>
  </defs>
</svg>
