<?xml version="1.0" encoding="UTF-8" standalone="no"?>
<svg xmlns:ffdec="https://www.free-decompiler.com/flash" xmlns:xlink="http://www.w3.org/1999/xlink" ffdec:objectType="shape" height="22.1px" width="13.65px" xmlns="http://www.w3.org/2000/svg">
  <g transform="matrix(1.0, 0.0, 0.0, 1.0, 6.45, 22.65)">
    <path d="M3.9 -17.95 L3.85 -18.0 3.3 -18.65 Q2.7 -19.3 2.55 -19.5 2.45 -19.7 2.35 -19.9 L2.35 -19.95 2.25 -19.95 Q2.15 -19.95 2.05 -20.25 L2.05 -20.4 2.0 -20.6 Q2.0 -20.85 1.5 -21.35 0.95 -21.85 0.55 -21.85 L0.4 -21.8 -0.2 -21.65 -0.2 -21.6 Q-0.75 -21.35 -1.5 -20.75 L-2.4 -20.0 Q-2.8 -19.7 -2.95 -19.7 L-3.55 -19.2 Q-4.45 -17.9 -5.0 -16.6 -5.6 -15.0 -5.6 -13.65 L-5.55 -13.1 -5.5 -12.5 -5.45 -12.35 -5.35 -12.1 Q-5.2 -11.75 -5.2 -11.5 L-5.2 -11.35 Q-5.25 -11.0 -5.4 -10.1 L-5.6 -8.8 -5.6 -8.65 -5.55 -8.65 Q-5.35 -8.5 -5.05 -7.95 L-5.05 -7.9 -4.9 -7.6 -4.65 -7.05 -4.6 -7.0 -4.55 -6.95 Q-4.35 -6.7 -4.05 -6.6 L-3.6 -6.7 -3.5 -6.6 -3.5 -6.5 Q-3.55 -6.4 -3.65 -6.35 -3.65 -6.25 -3.8 -6.2 L-4.1 -6.2 Q-4.5 -6.2 -4.9 -6.7 -5.1 -7.0 -5.15 -7.3 L-5.4 -7.7 Q-5.6 -8.2 -5.65 -8.45 L-5.8 -7.55 -5.85 -7.1 -5.9 -6.5 Q-5.9 -5.95 -5.75 -5.55 -5.5 -4.95 -5.05 -4.6 -4.9 -4.5 -4.55 -4.3 -3.95 -4.2 -3.5 -3.75 L-3.45 -3.75 Q-2.55 -3.1 -2.5 -2.25 L-2.15 -1.8 Q-1.8 -1.35 -1.35 -1.15 L-1.15 -1.1 -1.1 -1.05 -1.1 -1.1 -1.2 -1.2 -1.4 -1.2 -1.4 -1.25 -1.45 -1.35 Q-1.45 -1.45 -1.2 -1.5 L-0.75 -1.6 -0.55 -2.4 -0.25 -1.2 Q-0.45 -1.1 -0.75 -1.1 -0.75 -1.05 -0.95 -0.85 L-1.1 -0.65 -1.1 -0.55 -1.2 -0.55 Q-2.05 -0.75 -2.55 -1.25 -3.2 -1.9 -3.2 -2.75 L-3.3 -2.9 Q-3.55 -3.25 -3.75 -3.4 L-4.5 -3.8 Q-4.8 -3.75 -5.05 -3.9 L-5.1 -3.9 Q-5.45 -3.9 -5.85 -4.7 -6.1 -5.15 -6.15 -5.4 L-6.3 -5.9 Q-6.4 -6.35 -6.4 -7.05 L-6.45 -7.25 -6.4 -7.25 -6.4 -7.4 Q-6.4 -7.6 -6.1 -8.85 -5.8 -10.1 -5.8 -10.25 -5.8 -10.55 -5.75 -10.85 L-5.7 -11.05 -5.65 -11.2 -5.7 -11.65 -5.9 -12.35 -5.95 -12.5 -5.95 -12.6 Q-6.15 -13.1 -6.15 -13.3 L-6.15 -13.35 -6.2 -13.65 -6.2 -13.7 -6.25 -14.1 -6.25 -14.55 -6.2 -15.1 Q-6.2 -15.2 -6.1 -15.6 L-6.0 -16.05 Q-6.0 -16.9 -5.0 -18.3 -4.1 -19.5 -3.2 -20.05 -3.1 -20.2 -2.85 -20.35 L-2.6 -20.45 Q-1.85 -21.05 -0.4 -22.1 -0.35 -22.35 -0.05 -22.45 L0.3 -22.5 0.25 -22.5 Q0.25 -22.65 0.25 -22.6 1.65 -22.55 2.3 -21.5 2.5 -21.15 2.7 -20.55 L2.95 -19.7 3.5 -19.25 3.7 -19.0 3.8 -19.05 Q4.15 -19.05 4.45 -18.55 L3.9 -17.95 M-4.6 -15.3 L-4.6 -15.35 Q-4.6 -15.55 -4.35 -15.55 L-4.2 -15.55 -4.2 -15.5 Q-4.15 -15.25 -3.95 -15.1 L-3.8 -15.0 Q-3.7 -14.95 -3.6 -14.85 L-3.65 -14.75 Q-3.7 -14.65 -3.8 -14.65 L-3.85 -14.65 Q-4.2 -14.65 -4.45 -14.9 -4.6 -15.1 -4.6 -15.3 M-2.05 -13.85 L-2.1 -13.85 Q-2.3 -13.85 -2.75 -14.05 L-2.8 -14.1 Q-3.1 -14.25 -3.25 -14.4 -3.4 -14.5 -3.45 -14.65 L-3.4 -14.8 -3.25 -14.8 -2.8 -14.55 Q-2.35 -14.35 -2.05 -14.35 -1.65 -14.35 -0.25 -16.25 0.65 -17.45 1.2 -18.1 L1.2 -18.15 1.65 -18.8 Q1.65 -18.9 1.8 -18.95 1.9 -19.05 1.95 -19.05 L2.0 -19.0 2.0 -18.85 1.9 -18.65 1.85 -18.5 1.65 -18.2 1.5 -17.95 1.05 -17.4 0.1 -16.25 0.05 -16.25 -0.1 -16.0 -0.35 -15.55 -0.55 -15.0 Q-0.75 -14.55 -0.95 -14.35 -1.2 -14.1 -1.45 -14.0 -1.7 -13.85 -2.05 -13.85 M2.85 -12.45 L3.1 -12.45 3.35 -12.4 Q3.4 -12.35 3.45 -12.3 L3.35 -12.0 3.2 -12.0 2.9 -12.05 Q2.7 -12.05 2.45 -11.9 L2.35 -11.85 2.25 -11.85 2.25 -11.8 Q2.0 -11.7 1.9 -11.65 L1.85 -11.65 Q1.8 -11.65 1.8 -11.75 1.8 -12.0 2.1 -12.2 2.4 -12.45 2.85 -12.45 M1.0 -10.1 L0.95 -10.0 0.9 -9.95 0.9 -9.9 Q0.55 -9.4 0.55 -9.25 L0.75 -8.9 0.85 -8.8 0.9 -8.7 Q1.2 -8.45 1.2 -8.3 L1.2 -8.2 1.15 -8.15 1.05 -8.1 Q0.75 -8.35 0.35 -8.65 0.05 -8.85 0.05 -9.3 0.05 -9.4 0.5 -10.0 0.9 -10.65 0.9 -10.95 0.9 -11.1 0.6 -11.3 L0.45 -11.3 0.2 -11.5 0.1 -11.6 Q0.0 -11.65 -0.1 -11.7 -0.45 -11.9 -0.45 -12.2 L-0.45 -12.3 -0.35 -12.65 -0.3 -12.7 Q-0.3 -13.1 -0.15 -13.25 L-0.1 -13.3 Q0.0 -13.15 0.05 -12.6 0.1 -12.25 0.15 -12.05 L0.2 -11.95 0.2 -11.9 0.25 -11.9 0.3 -11.85 0.3 -11.75 0.35 -11.7 0.5 -11.65 0.6 -11.75 Q0.9 -11.65 1.05 -11.5 1.2 -11.3 1.25 -11.0 L1.25 -10.95 Q1.25 -10.5 1.0 -10.1 M2.0 -8.25 L2.25 -8.9 2.3 -8.85 Q2.55 -9.45 3.25 -10.35 4.3 -11.65 4.7 -11.65 L4.8 -11.6 4.9 -11.9 5.35 -11.45 Q5.35 -11.3 5.25 -11.2 5.15 -11.1 4.95 -11.1 L4.95 -11.15 4.75 -11.05 Q4.25 -11.05 3.55 -10.2 2.9 -9.45 2.9 -9.15 L2.9 -9.05 2.2 -8.45 2.0 -8.25 M5.15 -13.1 L5.2 -14.35 5.75 -14.2 5.65 -13.4 5.65 -13.15 5.15 -13.1 M5.1 -15.85 Q5.0 -16.35 4.65 -16.95 L4.8 -16.9 Q5.1 -16.9 5.25 -17.0 5.35 -16.65 5.35 -16.45 5.35 -16.4 5.5 -16.05 L5.1 -15.85 M-1.85 -9.3 L-1.8 -9.1 Q-1.8 -8.9 -1.85 -8.75 L-1.9 -8.55 -1.95 -8.5 -1.95 -8.45 -2.6 -8.05 -2.85 -8.05 -2.8 -7.9 Q-2.65 -7.8 -2.55 -7.8 -2.5 -7.8 -2.25 -7.95 L-1.6 -8.35 -1.5 -8.35 -1.5 -8.4 Q-1.45 -8.4 -1.4 -8.4 L-1.4 -8.45 -1.2 -8.55 Q-1.2 -8.45 -1.4 -8.25 -1.4 -8.1 -1.6 -7.95 L-1.7 -7.75 -1.85 -7.5 Q-2.0 -7.25 -2.4 -7.15 L-2.55 -7.1 -2.75 -7.1 Q-2.85 -7.1 -2.95 -7.15 L-3.0 -7.2 -3.05 -7.2 -3.35 -8.25 -3.65 -9.75 -3.5 -10.55 Q-3.2 -11.4 -2.5 -11.4 L-2.25 -11.35 -2.2 -11.3 -2.35 -11.15 -2.3 -11.1 -2.3 -11.0 -2.4 -10.8 -2.3 -10.85 Q-2.05 -10.85 -1.95 -10.7 -1.9 -10.5 -1.85 -10.4 L-2.0 -10.35 -2.6 -10.45 -2.65 -10.35 -2.7 -10.25 -2.5 -10.25 -2.15 -10.05 -2.1 -10.0 -2.0 -9.75 Q-1.85 -9.5 -1.85 -9.3 M4.0 -13.5 L4.0 -13.5 M-4.8 -11.3 L-4.8 -11.35 -4.45 -11.9 Q-4.0 -12.5 -3.5 -12.5 L-3.35 -12.45 -3.25 -12.45 -2.95 -12.4 -2.9 -12.3 Q-2.9 -12.1 -3.1 -12.05 L-3.3 -12.1 -3.6 -12.05 Q-3.9 -11.95 -4.2 -11.65 -4.55 -11.2 -4.65 -11.15 L-4.75 -11.2 -4.8 -11.25 -4.8 -11.3 M-2.9 -9.8 L-2.95 -8.85 -2.9 -8.35 -2.8 -8.45 -2.35 -8.8 Q-2.15 -9.0 -2.15 -9.3 -2.15 -9.6 -2.25 -9.7 L-2.65 -9.85 -2.9 -9.9 -2.9 -9.8 M-2.45 -7.45 Q-2.3 -7.5 -2.2 -7.6 L-2.3 -7.55 -2.45 -7.45 M-1.85 -4.55 L-1.65 -3.85 -1.8 -3.6 -1.85 -3.6 Q-1.9 -3.6 -2.0 -3.7 -2.2 -3.7 -2.3 -4.15 L-2.3 -4.2 Q-2.55 -4.6 -2.55 -4.8 -2.55 -4.95 -2.4 -5.05 L-2.2 -5.1 -1.95 -5.15 -1.7 -4.85 -1.8 -4.75 -1.85 -4.55" fill="#000000" fill-rule="evenodd" stroke="none"/>
    <path d="M-0.2 -21.6 L-0.2 -21.65 0.4 -21.8 0.55 -21.85 Q0.95 -21.85 1.5 -21.35 2.0 -20.85 2.0 -20.6 L2.05 -20.4 2.05 -20.25 Q2.15 -19.95 2.25 -19.95 L2.35 -19.95 2.35 -19.9 Q2.45 -19.7 2.55 -19.5 2.7 -19.3 3.3 -18.65 L3.85 -18.0 3.9 -17.95 4.65 -16.95 Q5.0 -16.35 5.1 -15.85 L5.2 -14.35 5.15 -13.1 4.9 -11.9 4.8 -11.6 4.7 -11.65 Q4.3 -11.65 3.25 -10.35 2.55 -9.45 2.3 -8.85 L2.25 -8.9 2.0 -8.25 0.8 -7.2 0.55 -7.95 Q0.1 -7.95 -0.4 -8.55 -0.9 -9.1 -0.9 -9.35 -0.9 -9.65 -0.25 -10.05 0.4 -10.4 0.4 -10.7 0.4 -11.15 0.05 -11.5 L-0.1 -11.7 Q0.0 -11.65 0.1 -11.6 L0.2 -11.5 0.45 -11.3 0.6 -11.3 Q0.9 -11.1 0.9 -10.95 0.9 -10.65 0.5 -10.0 0.05 -9.4 0.05 -9.3 0.05 -8.85 0.35 -8.65 0.75 -8.35 1.05 -8.1 L1.15 -8.15 1.2 -8.2 1.2 -8.3 Q1.2 -8.45 0.9 -8.7 L0.85 -8.8 0.75 -8.9 0.55 -9.25 Q0.55 -9.4 0.9 -9.9 L0.9 -9.95 0.95 -10.0 1.0 -10.1 Q1.05 -9.9 1.05 -9.4 L1.15 -9.1 1.2 -8.8 1.2 -8.75 1.3 -8.7 1.45 -8.85 1.4 -8.85 Q1.3 -8.85 1.2 -8.95 L1.15 -9.1 Q1.15 -9.45 1.4 -9.55 L1.45 -9.55 1.35 -9.6 1.3 -9.6 1.3 -9.75 Q1.3 -9.85 1.35 -9.95 L1.75 -9.95 1.8 -9.8 Q1.75 -9.7 1.75 -9.65 1.7 -9.55 1.5 -9.55 1.65 -9.5 1.7 -9.2 L1.75 -9.35 Q1.75 -9.3 1.8 -9.3 L1.85 -9.25 Q2.0 -9.25 2.05 -9.35 2.25 -9.5 2.45 -9.65 L2.5 -9.65 2.5 -9.8 Q2.5 -9.95 2.3 -9.95 2.15 -9.95 2.0 -9.8 L2.1 -10.05 2.3 -10.45 2.15 -10.65 Q2.05 -10.85 2.05 -10.95 2.05 -11.1 2.15 -11.25 2.25 -11.35 2.25 -11.65 L2.25 -11.8 2.25 -11.85 2.35 -11.85 2.45 -11.9 Q2.7 -12.05 2.9 -12.05 L3.2 -12.0 3.35 -12.0 3.45 -12.3 Q3.4 -12.35 3.35 -12.4 L3.1 -12.45 2.85 -12.45 2.95 -12.5 3.25 -13.2 3.6 -14.05 3.4 -14.05 Q3.3 -14.05 3.2 -14.15 3.1 -14.3 3.1 -14.35 3.1 -14.6 3.25 -14.75 3.4 -14.95 3.7 -15.0 3.65 -15.3 3.5 -15.55 3.45 -15.65 3.4 -15.75 L3.6 -15.85 Q3.7 -15.95 3.7 -16.05 3.6 -16.35 3.45 -16.35 L3.3 -16.3 Q3.25 -16.5 3.25 -16.75 3.25 -17.1 3.0 -17.55 2.7 -18.1 2.25 -18.1 L1.5 -17.95 1.65 -18.2 1.85 -18.5 1.9 -18.65 2.0 -18.85 2.0 -19.0 1.95 -19.05 Q1.9 -19.05 1.8 -18.95 1.65 -18.9 1.65 -18.8 L1.2 -18.15 1.2 -18.1 Q0.65 -17.45 -0.25 -16.25 -1.65 -14.35 -2.05 -14.35 -2.35 -14.35 -2.8 -14.55 L-3.25 -14.8 -3.4 -14.8 -3.45 -14.65 Q-3.4 -14.5 -3.25 -14.4 -3.1 -14.25 -2.8 -14.1 L-2.75 -14.05 Q-2.3 -13.85 -2.1 -13.85 L-2.05 -13.85 Q-1.7 -13.85 -1.45 -14.0 L-1.4 -13.95 Q-1.35 -13.85 -1.35 -13.8 -1.35 -13.55 -1.5 -13.25 -1.7 -12.75 -2.15 -12.75 L-1.9 -12.55 Q-1.65 -12.45 -1.45 -12.2 -1.0 -11.75 -1.0 -11.45 -1.0 -11.4 -1.05 -11.3 L-1.05 -11.2 Q-1.1 -11.25 -1.55 -11.7 -1.95 -12.1 -2.2 -12.15 L-2.25 -12.15 Q-1.9 -12.05 -1.6 -11.7 -1.25 -11.2 -1.25 -11.0 L-1.3 -10.95 Q-1.3 -10.85 -1.45 -10.85 L-2.2 -11.5 -2.2 -11.4 -2.05 -11.15 Q-1.55 -10.2 -1.55 -9.6 -1.55 -9.45 -1.85 -9.3 -1.85 -9.5 -2.0 -9.75 L-2.1 -10.0 -2.15 -10.05 -2.5 -10.25 -2.55 -10.25 -2.65 -10.35 -2.6 -10.45 -2.0 -10.35 -1.85 -10.4 Q-1.9 -10.5 -1.95 -10.7 -2.05 -10.85 -2.3 -10.85 L-2.4 -10.8 -2.3 -11.0 -2.3 -11.1 -2.35 -11.15 -2.2 -11.3 -2.25 -11.35 -2.5 -11.4 Q-3.2 -11.4 -3.5 -10.55 L-3.65 -9.75 -3.35 -8.25 -3.05 -7.2 -3.0 -7.2 -2.95 -7.15 -3.0 -7.05 Q-3.2 -6.85 -3.5 -6.6 L-3.6 -6.7 -4.05 -6.6 Q-4.35 -6.7 -4.55 -6.95 L-4.6 -7.0 -4.65 -7.05 -4.9 -7.6 -5.05 -7.9 -5.05 -7.95 -4.95 -7.95 Q-4.75 -7.95 -4.65 -7.75 -4.5 -7.55 -4.25 -7.55 L-4.05 -7.55 Q-4.25 -7.55 -4.35 -7.7 -4.4 -7.8 -4.4 -7.9 -4.4 -8.05 -4.25 -8.15 -4.1 -8.3 -3.85 -8.3 L-3.75 -8.25 -3.7 -8.15 Q-3.7 -8.1 -3.7 -8.0 -3.7 -7.9 -3.8 -7.75 L-3.9 -7.6 Q-3.8 -7.65 -3.75 -7.7 -3.55 -7.85 -3.55 -7.9 -3.55 -7.95 -4.0 -8.85 -4.45 -9.7 -4.45 -10.1 -4.45 -10.25 -4.0 -10.9 L-3.5 -11.7 -3.65 -12.0 -3.6 -12.05 -3.3 -12.1 -3.1 -12.05 Q-2.9 -12.1 -2.9 -12.3 L-2.95 -12.4 -3.25 -12.45 -3.35 -12.45 -3.5 -12.5 Q-4.0 -12.5 -4.45 -11.9 L-4.8 -11.35 -4.8 -11.3 Q-4.9 -11.25 -5.05 -11.25 -5.15 -11.25 -5.2 -11.35 L-5.2 -11.5 Q-5.2 -11.75 -5.35 -12.1 L-5.45 -12.35 Q-5.3 -12.35 -5.15 -12.25 L-4.95 -12.0 -4.2 -12.7 Q-3.5 -13.35 -3.5 -13.6 -3.5 -13.9 -3.7 -14.15 -3.85 -14.35 -3.85 -14.65 L-3.8 -14.65 Q-3.7 -14.65 -3.65 -14.75 L-3.6 -14.85 Q-3.7 -14.95 -3.8 -15.0 L-3.95 -15.1 Q-4.15 -15.25 -4.2 -15.5 L-4.2 -15.55 -4.35 -15.55 Q-4.6 -15.55 -4.6 -15.35 L-4.6 -15.3 -4.7 -15.4 Q-4.75 -15.5 -4.75 -15.8 -4.75 -15.95 -4.65 -16.2 -4.55 -16.5 -4.3 -16.5 -4.2 -16.5 -4.0 -16.2 -3.85 -15.9 -3.65 -15.85 L-3.1 -15.8 -2.5 -15.65 Q-1.4 -16.45 -0.95 -17.5 L-0.65 -18.2 Q-0.5 -18.45 -0.3 -18.6 -0.3 -18.85 0.2 -19.55 0.7 -20.3 0.7 -20.5 0.7 -20.9 0.5 -21.25 0.25 -21.65 -0.1 -21.6 L-0.2 -21.6 M-0.55 -2.4 L-0.75 -1.6 -1.2 -1.5 Q-1.45 -1.45 -1.45 -1.35 L-1.4 -1.25 -1.4 -1.2 -1.2 -1.2 -1.1 -1.1 -1.1 -1.05 -1.15 -1.1 -1.35 -1.15 Q-1.8 -1.35 -2.15 -1.8 L-2.5 -2.25 Q-2.3 -2.25 -1.8 -2.0 L-1.25 -1.75 -0.75 -1.8 -0.75 -2.05 -0.9 -2.05 Q-1.05 -2.05 -1.4 -2.4 -1.7 -2.8 -1.7 -2.9 L-0.7 -3.4 -0.55 -2.4 M-3.5 -3.75 Q-3.95 -4.2 -4.55 -4.3 -4.9 -4.5 -5.05 -4.6 -5.5 -4.95 -5.75 -5.55 L-5.55 -5.6 -4.9 -5.25 Q-4.3 -4.9 -4.05 -4.9 -3.7 -4.9 -3.5 -5.15 -3.3 -5.45 -3.15 -5.45 -2.95 -5.45 -2.9 -5.2 -2.85 -5.05 -2.85 -4.9 -2.85 -4.7 -3.15 -4.2 -3.4 -3.85 -3.5 -3.75 M-1.85 -8.75 L-1.85 -8.85 -1.7 -8.85 -1.7 -8.95 Q-1.5 -9.4 -1.5 -10.0 -1.5 -10.75 -1.15 -10.35 L-0.85 -9.75 Q-0.85 -9.65 -1.15 -8.9 L-1.4 -8.45 -1.4 -8.4 Q-1.45 -8.4 -1.5 -8.4 L-1.5 -8.35 -1.6 -8.35 -2.25 -7.95 Q-2.5 -7.8 -2.55 -7.8 -2.65 -7.8 -2.8 -7.9 L-2.85 -8.05 -2.6 -8.05 -1.95 -8.45 -1.95 -8.5 -1.9 -8.55 -1.85 -8.75 M-0.15 -13.25 L0.05 -14.4 Q0.05 -14.6 0.25 -14.8 0.5 -15.0 0.75 -15.05 L0.9 -15.0 0.95 -14.85 0.8 -14.2 Q0.7 -13.6 0.7 -13.1 L0.7 -13.0 1.05 -13.75 1.6 -14.85 1.75 -14.8 1.75 -14.7 Q1.75 -13.8 1.6 -13.3 1.4 -12.65 0.85 -12.05 L0.9 -12.0 Q1.0 -11.75 1.05 -11.5 0.9 -11.65 0.6 -11.75 L0.5 -11.65 0.35 -11.7 0.3 -11.75 0.3 -11.85 0.25 -11.9 0.2 -11.9 0.2 -11.95 0.15 -12.05 Q0.1 -12.25 0.05 -12.6 0.0 -13.15 -0.1 -13.3 L-0.15 -13.25 M4.0 -13.5 L4.0 -13.5 M3.25 -13.7 Q3.25 -13.6 3.15 -13.5 3.1 -13.4 3.0 -13.4 2.95 -13.4 2.9 -13.55 2.8 -13.6 2.8 -13.65 2.8 -13.85 3.1 -13.85 L3.2 -13.8 3.25 -13.7 M3.5 -12.95 L3.6 -12.95 3.75 -12.9 Q3.8 -12.9 3.8 -13.0 3.8 -13.05 3.85 -13.1 L3.85 -13.25 Q3.85 -13.45 3.7 -13.45 3.6 -13.45 3.5 -13.4 3.4 -13.3 3.4 -13.2 L3.45 -13.05 3.5 -12.95 M2.55 -12.7 L2.5 -12.9 2.5 -13.1 2.75 -13.1 Q3.0 -13.1 3.0 -12.9 3.0 -12.55 2.7 -12.55 2.6 -12.55 2.55 -12.7 M1.95 -10.25 L1.95 -10.2 1.8 -10.15 1.65 -10.2 1.6 -10.25 1.6 -10.4 Q1.6 -10.5 1.75 -10.55 1.95 -10.55 1.95 -10.35 L1.95 -10.25 M-0.25 -6.0 L-0.7 -6.65 0.55 -6.95 -0.25 -6.0 M-2.95 -16.6 L-2.8 -16.45 -2.7 -16.6 Q-2.5 -16.75 -2.35 -16.75 -2.15 -16.75 -2.1 -16.65 -2.05 -16.65 -2.05 -16.55 -2.05 -16.35 -2.1 -16.2 -2.25 -15.9 -2.5 -15.9 -2.7 -15.9 -2.8 -16.05 -2.9 -16.2 -2.9 -16.3 L-2.95 -16.2 -3.1 -16.3 Q-3.25 -16.45 -3.25 -16.5 L-3.25 -16.6 -2.95 -16.6 M-0.45 -13.3 L-0.35 -13.1 -0.4 -12.95 Q-0.4 -12.9 -0.55 -12.9 -0.7 -12.9 -0.75 -13.0 L-0.85 -13.15 Q-0.85 -13.25 -0.75 -13.3 -0.7 -13.4 -0.55 -13.4 -0.45 -13.4 -0.45 -13.3 M-0.45 -12.3 L-0.55 -12.25 -0.7 -12.2 Q-0.8 -12.2 -0.85 -12.35 L-0.9 -12.5 Q-0.9 -12.8 -0.6 -12.8 -0.5 -12.8 -0.45 -12.65 L-0.45 -12.3 M-2.55 -12.25 L-2.55 -12.25 M-2.05 -13.85 L-2.05 -13.85 M-3.8 -13.4 Q-3.95 -13.15 -4.15 -13.15 -4.3 -13.15 -4.35 -13.35 L-4.4 -13.6 Q-4.4 -13.8 -4.25 -13.95 -4.15 -14.1 -4.0 -14.1 -3.8 -14.1 -3.75 -13.95 -3.65 -13.85 -3.65 -13.7 -3.65 -13.6 -3.8 -13.4 M-4.75 -13.5 L-4.8 -13.5 Q-4.85 -13.55 -4.85 -13.65 -4.85 -13.75 -4.8 -13.75 L-4.7 -13.75 -4.6 -13.7 -4.6 -13.55 -4.75 -13.5 M-4.8 -8.3 Q-4.8 -8.5 -4.55 -8.5 -4.35 -8.55 -4.35 -8.3 L-4.35 -8.2 -4.4 -8.15 -4.45 -8.15 -4.6 -8.1 -4.7 -8.2 Q-4.8 -8.25 -4.8 -8.3 M-1.9 -6.0 Q-1.7 -5.8 -1.7 -5.7 -1.7 -5.65 -2.15 -5.6 L-2.65 -5.5 Q-2.75 -5.5 -2.75 -5.6 L-2.8 -5.75 Q-2.8 -5.95 -2.65 -6.1 -2.55 -6.2 -2.35 -6.2 -2.15 -6.2 -1.9 -6.0 M-0.75 -3.85 L-0.8 -4.65 -0.75 -3.85 M-2.2 -3.25 Q-2.3 -3.1 -2.6 -3.1 -2.75 -3.1 -2.9 -3.3 -3.0 -3.45 -3.0 -3.55 L-2.6 -3.8 -2.2 -3.45 -2.2 -3.25" fill="#4d0f0f" fill-rule="evenodd" stroke="none"/>
    <path d="M-2.5 -2.25 Q-2.55 -3.1 -3.45 -3.75 L-3.5 -3.75 Q-3.4 -3.85 -3.15 -4.2 -2.85 -4.7 -2.85 -4.9 -2.85 -5.05 -2.9 -5.2 -2.95 -5.45 -3.15 -5.45 -3.3 -5.45 -3.5 -5.15 -3.7 -4.9 -4.05 -4.9 -4.3 -4.9 -4.9 -5.25 L-5.55 -5.6 -5.75 -5.55 Q-5.9 -5.95 -5.9 -6.5 L-5.85 -7.1 -5.8 -7.55 -5.65 -8.45 Q-5.6 -8.2 -5.4 -7.7 L-5.15 -7.3 Q-5.1 -7.0 -4.9 -6.7 -4.5 -6.2 -4.1 -6.2 L-3.8 -6.2 Q-3.65 -6.25 -3.65 -6.35 -3.55 -6.4 -3.5 -6.5 L-3.5 -6.6 Q-3.2 -6.85 -3.0 -7.05 L-2.95 -7.15 Q-2.85 -7.1 -2.75 -7.1 L-2.55 -7.1 -2.4 -7.15 Q-2.0 -7.25 -1.85 -7.5 L-1.7 -7.75 -1.6 -7.95 Q-1.4 -8.1 -1.4 -8.25 -1.2 -8.45 -1.2 -8.55 L-1.4 -8.45 -1.15 -8.9 Q-0.85 -9.65 -0.85 -9.75 L-1.15 -10.35 Q-1.5 -10.75 -1.5 -10.0 -1.5 -9.4 -1.7 -8.95 L-1.7 -8.85 -1.85 -8.85 -1.85 -8.75 Q-1.8 -8.9 -1.8 -9.1 L-1.85 -9.3 Q-1.55 -9.45 -1.55 -9.6 -1.55 -10.2 -2.05 -11.15 L-2.2 -11.4 -2.2 -11.5 -1.45 -10.85 Q-1.3 -10.85 -1.3 -10.95 L-1.25 -11.0 Q-1.25 -11.2 -1.6 -11.7 -1.9 -12.05 -2.25 -12.15 L-2.2 -12.15 Q-1.95 -12.1 -1.55 -11.7 -1.1 -11.25 -1.05 -11.2 L-1.05 -11.3 Q-1.0 -11.4 -1.0 -11.45 -1.0 -11.75 -1.45 -12.2 -1.65 -12.45 -1.9 -12.55 L-2.15 -12.75 Q-1.7 -12.75 -1.5 -13.25 -1.35 -13.55 -1.35 -13.8 -1.35 -13.85 -1.4 -13.95 L-1.45 -14.0 Q-1.2 -14.1 -0.95 -14.35 -0.75 -14.55 -0.55 -15.0 L-0.35 -15.55 -0.1 -16.0 0.05 -16.25 0.1 -16.25 1.05 -17.4 1.5 -17.95 2.25 -18.1 Q2.7 -18.1 3.0 -17.55 3.25 -17.1 3.25 -16.75 3.25 -16.5 3.3 -16.3 L3.45 -16.35 Q3.6 -16.35 3.7 -16.05 3.7 -15.95 3.6 -15.85 L3.4 -15.75 Q3.45 -15.65 3.5 -15.55 3.65 -15.3 3.7 -15.0 3.4 -14.95 3.25 -14.75 3.1 -14.6 3.1 -14.35 3.1 -14.3 3.2 -14.15 3.3 -14.05 3.4 -14.05 L3.6 -14.05 3.25 -13.2 2.95 -12.5 2.85 -12.45 Q2.4 -12.45 2.1 -12.2 1.8 -12.0 1.8 -11.75 1.8 -11.65 1.85 -11.65 L1.9 -11.65 Q2.0 -11.7 2.25 -11.8 L2.25 -11.65 Q2.25 -11.35 2.15 -11.25 2.05 -11.1 2.05 -10.95 2.05 -10.85 2.15 -10.65 L2.3 -10.45 2.1 -10.05 2.0 -9.8 Q2.15 -9.95 2.3 -9.95 2.5 -9.95 2.5 -9.8 L2.5 -9.65 2.45 -9.65 Q2.25 -9.5 2.05 -9.35 2.0 -9.25 1.85 -9.25 L1.8 -9.3 Q1.75 -9.3 1.75 -9.35 L1.7 -9.2 Q1.65 -9.5 1.5 -9.55 1.7 -9.55 1.75 -9.65 1.75 -9.7 1.8 -9.8 L1.75 -9.95 1.35 -9.95 Q1.3 -9.85 1.3 -9.75 L1.3 -9.6 1.35 -9.6 1.45 -9.55 1.4 -9.55 Q1.15 -9.45 1.15 -9.1 L1.2 -8.95 Q1.3 -8.85 1.4 -8.85 L1.45 -8.85 1.3 -8.7 1.2 -8.75 1.2 -8.8 1.15 -9.1 1.05 -9.4 Q1.05 -9.9 1.0 -10.1 1.25 -10.5 1.25 -10.95 L1.25 -11.0 Q1.2 -11.3 1.05 -11.5 1.0 -11.75 0.9 -12.0 L0.85 -12.05 Q1.4 -12.65 1.6 -13.3 1.75 -13.8 1.75 -14.7 L1.75 -14.8 1.6 -14.85 1.05 -13.75 0.7 -13.0 0.7 -13.1 Q0.7 -13.6 0.8 -14.2 L0.95 -14.85 0.9 -15.0 0.75 -15.05 Q0.5 -15.0 0.25 -14.8 0.05 -14.6 0.05 -14.4 L-0.15 -13.25 Q-0.3 -13.1 -0.3 -12.7 L-0.35 -12.65 -0.45 -12.3 -0.45 -12.2 Q-0.45 -11.9 -0.1 -11.7 L0.05 -11.5 Q0.4 -11.15 0.4 -10.7 0.4 -10.4 -0.25 -10.05 -0.9 -9.65 -0.9 -9.35 -0.9 -9.1 -0.4 -8.55 0.1 -7.95 0.55 -7.95 L0.8 -7.2 0.55 -6.95 -0.7 -6.65 -0.25 -6.0 -0.8 -4.65 -0.75 -3.85 -0.7 -3.4 -1.7 -2.9 Q-1.7 -2.8 -1.4 -2.4 -1.05 -2.05 -0.9 -2.05 L-0.75 -2.05 -0.75 -1.8 -1.25 -1.75 -1.8 -2.0 Q-2.3 -2.25 -2.5 -2.25 M-4.55 -6.95 L-4.6 -7.0 -4.55 -6.95 M-5.05 -7.95 Q-5.35 -8.5 -5.55 -8.65 L-5.6 -8.65 -5.6 -8.8 -5.4 -10.1 Q-5.25 -11.0 -5.2 -11.35 -5.15 -11.25 -5.05 -11.25 -4.9 -11.25 -4.8 -11.3 L-4.8 -11.25 -4.75 -11.2 -4.65 -11.15 Q-4.55 -11.2 -4.2 -11.65 -3.9 -11.95 -3.6 -12.05 L-3.65 -12.0 -3.5 -11.7 -4.0 -10.9 Q-4.45 -10.25 -4.45 -10.1 -4.45 -9.7 -4.0 -8.85 -3.55 -7.95 -3.55 -7.9 -3.55 -7.85 -3.75 -7.7 -3.8 -7.65 -3.9 -7.6 L-3.8 -7.75 Q-3.7 -7.9 -3.7 -8.0 -3.7 -8.1 -3.7 -8.15 L-3.75 -8.25 -3.85 -8.3 Q-4.1 -8.3 -4.25 -8.15 -4.4 -8.05 -4.4 -7.9 -4.4 -7.8 -4.35 -7.7 -4.25 -7.55 -4.05 -7.55 L-4.25 -7.55 Q-4.5 -7.55 -4.65 -7.75 -4.75 -7.95 -4.95 -7.95 L-5.05 -7.95 M-5.45 -12.35 L-5.5 -12.5 -5.55 -13.1 -5.6 -13.65 Q-5.6 -15.0 -5.0 -16.6 -4.45 -17.9 -3.55 -19.2 L-2.95 -19.7 Q-2.8 -19.7 -2.4 -20.0 L-1.5 -20.75 Q-0.75 -21.35 -0.2 -21.6 L-0.1 -21.6 Q0.25 -21.65 0.5 -21.25 0.7 -20.9 0.7 -20.5 0.7 -20.3 0.2 -19.55 -0.3 -18.85 -0.3 -18.6 -0.5 -18.45 -0.65 -18.2 L-0.95 -17.5 Q-1.4 -16.45 -2.5 -15.65 L-3.1 -15.8 -3.65 -15.85 Q-3.85 -15.9 -4.0 -16.2 -4.2 -16.5 -4.3 -16.5 -4.55 -16.5 -4.65 -16.2 -4.75 -15.95 -4.75 -15.8 -4.75 -15.5 -4.7 -15.4 L-4.6 -15.3 Q-4.6 -15.1 -4.45 -14.9 -4.2 -14.65 -3.85 -14.65 -3.85 -14.35 -3.7 -14.15 -3.5 -13.9 -3.5 -13.6 -3.5 -13.35 -4.2 -12.7 L-4.95 -12.0 -5.15 -12.25 Q-5.3 -12.35 -5.45 -12.35 M1.95 -16.3 L2.05 -16.25 Q2.2 -16.3 2.25 -16.35 L2.25 -16.5 Q2.25 -16.65 2.2 -16.55 1.9 -16.5 1.9 -16.4 1.9 -16.3 1.95 -16.3 M1.9 -15.95 L1.8 -16.0 1.6 -16.0 Q1.5 -15.95 1.5 -15.85 1.5 -15.75 1.55 -15.7 L1.9 -15.7 1.9 -15.95 M1.2 -15.2 Q1.25 -15.05 1.35 -15.05 1.9 -15.05 1.9 -15.35 1.9 -15.5 1.85 -15.5 L1.5 -15.6 1.3 -15.55 Q1.15 -15.5 1.15 -15.35 1.15 -15.3 1.2 -15.2 M2.2 -15.5 Q2.35 -15.5 2.45 -15.55 L2.5 -15.8 2.45 -15.9 2.3 -16.0 Q2.0 -15.8 2.0 -15.7 2.0 -15.6 2.05 -15.55 L2.1 -15.5 2.2 -15.5 M3.25 -13.7 L3.2 -13.8 3.1 -13.85 Q2.8 -13.85 2.8 -13.65 2.8 -13.6 2.9 -13.55 2.95 -13.4 3.0 -13.4 3.1 -13.4 3.15 -13.5 3.25 -13.6 3.25 -13.7 M3.5 -12.95 L3.45 -13.05 3.4 -13.2 Q3.4 -13.3 3.5 -13.4 3.6 -13.45 3.7 -13.45 3.85 -13.45 3.85 -13.25 L3.85 -13.1 Q3.8 -13.05 3.8 -13.0 3.8 -12.9 3.75 -12.9 L3.6 -12.95 3.5 -12.95 M2.55 -12.7 Q2.6 -12.55 2.7 -12.55 3.0 -12.55 3.0 -12.9 3.0 -13.1 2.75 -13.1 L2.5 -13.1 2.5 -12.9 2.55 -12.7 M1.95 -10.25 L1.95 -10.35 Q1.95 -10.55 1.75 -10.55 1.6 -10.5 1.6 -10.4 L1.6 -10.25 1.65 -10.2 1.8 -10.15 1.95 -10.2 1.95 -10.25 M-1.45 -20.05 L-1.4 -20.1 -1.35 -20.3 Q-1.45 -20.5 -1.6 -20.5 -1.75 -20.45 -1.75 -20.3 L-1.7 -20.15 Q-1.65 -20.05 -1.6 -20.05 L-1.45 -20.05 M-0.5 -20.55 Q-0.6 -20.65 -0.7 -20.65 -0.9 -20.65 -1.05 -20.45 -1.25 -20.3 -1.25 -20.1 L-1.2 -19.95 -1.15 -19.9 Q-0.95 -19.9 -0.7 -20.1 -0.45 -20.3 -0.45 -20.45 L-0.5 -20.55 M-0.6 -21.1 L-0.65 -21.1 Q-0.7 -21.05 -0.7 -21.0 -0.7 -20.85 -0.65 -20.8 L-0.55 -20.8 Q-0.45 -20.8 -0.4 -20.85 L-0.45 -21.0 Q-0.5 -21.05 -0.6 -21.1 M-2.95 -16.6 L-3.25 -16.6 -3.25 -16.5 Q-3.25 -16.45 -3.1 -16.3 L-2.95 -16.2 -2.9 -16.3 Q-2.9 -16.2 -2.8 -16.05 -2.7 -15.9 -2.5 -15.9 -2.25 -15.9 -2.1 -16.2 -2.05 -16.35 -2.05 -16.55 -2.05 -16.65 -2.1 -16.65 -2.15 -16.75 -2.35 -16.75 -2.5 -16.75 -2.7 -16.6 L-2.8 -16.45 -2.95 -16.6 M-4.95 -14.35 L-4.9 -14.4 Q-4.95 -14.55 -5.05 -14.55 L-5.15 -14.5 Q-5.1 -14.35 -5.0 -14.35 L-4.95 -14.35 M-0.45 -13.3 Q-0.45 -13.4 -0.55 -13.4 -0.7 -13.4 -0.75 -13.3 -0.85 -13.25 -0.85 -13.15 L-0.75 -13.0 Q-0.7 -12.9 -0.55 -12.9 -0.4 -12.9 -0.4 -12.95 L-0.35 -13.1 -0.45 -13.3 M-0.45 -12.3 L-0.45 -12.65 Q-0.5 -12.8 -0.6 -12.8 -0.9 -12.8 -0.9 -12.5 L-0.85 -12.35 Q-0.8 -12.2 -0.7 -12.2 L-0.55 -12.25 -0.45 -12.3 M-2.05 -13.85 L-2.05 -13.85 M-2.55 -12.25 L-2.55 -12.25 M-3.8 -13.4 Q-3.65 -13.6 -3.65 -13.7 -3.65 -13.85 -3.75 -13.95 -3.8 -14.1 -4.0 -14.1 -4.15 -14.1 -4.25 -13.95 -4.4 -13.8 -4.4 -13.6 L-4.35 -13.35 Q-4.3 -13.15 -4.15 -13.15 -3.95 -13.15 -3.8 -13.4 M-4.75 -13.5 L-4.6 -13.55 -4.6 -13.7 -4.7 -13.75 -4.8 -13.75 Q-4.85 -13.75 -4.85 -13.65 -4.85 -13.55 -4.8 -13.5 L-4.75 -13.5 M-4.9 -10.85 Q-5.0 -10.75 -5.0 -10.65 -5.0 -10.4 -4.8 -10.4 -4.7 -10.4 -4.55 -10.45 -4.5 -10.55 -4.5 -10.6 L-4.55 -10.8 Q-4.6 -10.95 -4.7 -10.95 -4.8 -10.95 -4.9 -10.85 M-4.8 -9.85 L-5.0 -10.0 -5.1 -9.95 Q-5.2 -9.9 -5.2 -9.8 -5.2 -9.7 -5.15 -9.7 L-5.1 -9.7 Q-4.95 -9.7 -4.9 -9.75 L-4.8 -9.85 M-4.8 -8.3 Q-4.8 -8.25 -4.7 -8.2 L-4.6 -8.1 -4.45 -8.15 -4.4 -8.15 -4.35 -8.2 -4.35 -8.3 Q-4.35 -8.55 -4.55 -8.5 -4.8 -8.5 -4.8 -8.3 M-2.5 -10.25 L-2.7 -10.25 -2.65 -10.35 -2.55 -10.25 -2.5 -10.25 M-0.55 -7.25 L-0.8 -7.2 -0.8 -6.95 -0.7 -6.95 -0.55 -7.0 -0.5 -7.1 -0.55 -7.25 M-1.9 -6.0 Q-2.15 -6.2 -2.35 -6.2 -2.55 -6.2 -2.65 -6.1 -2.8 -5.95 -2.8 -5.75 L-2.75 -5.6 Q-2.75 -5.5 -2.65 -5.5 L-2.15 -5.6 Q-1.7 -5.65 -1.7 -5.7 -1.7 -5.8 -1.9 -6.0 M-1.85 -4.55 L-1.8 -4.75 -1.7 -4.85 -1.95 -5.15 -2.2 -5.1 -2.4 -5.05 Q-2.55 -4.95 -2.55 -4.8 -2.55 -4.6 -2.3 -4.2 L-2.3 -4.15 Q-2.2 -3.7 -2.0 -3.7 -1.9 -3.6 -1.85 -3.6 L-1.8 -3.6 -1.65 -3.85 -1.85 -4.55 M-5.2 -6.25 L-5.35 -6.2 Q-5.45 -6.15 -5.45 -6.05 -5.4 -5.7 -5.25 -5.7 -5.0 -5.7 -4.9 -5.85 -4.85 -5.95 -4.85 -6.0 L-4.85 -6.1 Q-5.0 -6.25 -5.2 -6.25 M-5.35 -6.75 L-5.4 -6.9 -5.4 -6.95 Q-5.55 -6.95 -5.65 -6.8 -5.8 -6.7 -5.8 -6.6 -5.8 -6.5 -5.75 -6.45 L-5.65 -6.4 Q-5.5 -6.45 -5.4 -6.55 -5.35 -6.65 -5.35 -6.75 M-2.2 -3.25 L-2.2 -3.45 -2.6 -3.8 -3.0 -3.55 Q-3.0 -3.45 -2.9 -3.3 -2.75 -3.1 -2.6 -3.1 -2.3 -3.1 -2.2 -3.25" fill="#8c1c1c" fill-rule="evenodd" stroke="none"/>
    <path d="M1.9 -15.95 L1.9 -15.7 1.55 -15.7 Q1.5 -15.75 1.5 -15.85 1.5 -15.95 1.6 -16.0 L1.8 -16.0 1.9 -15.95 M1.95 -16.3 Q1.9 -16.3 1.9 -16.4 1.9 -16.5 2.2 -16.55 2.25 -16.65 2.25 -16.5 L2.25 -16.35 Q2.2 -16.3 2.05 -16.25 L1.95 -16.3 M1.2 -15.2 Q1.15 -15.3 1.15 -15.35 1.15 -15.5 1.3 -15.55 L1.5 -15.6 1.85 -15.5 Q1.9 -15.5 1.9 -15.35 1.9 -15.05 1.35 -15.05 1.25 -15.05 1.2 -15.2 M2.2 -15.5 L2.1 -15.5 2.05 -15.55 Q2.0 -15.6 2.0 -15.7 2.0 -15.8 2.3 -16.0 L2.45 -15.9 2.5 -15.8 2.45 -15.55 Q2.35 -15.5 2.2 -15.5 M-0.6 -21.1 Q-0.5 -21.05 -0.45 -21.0 L-0.4 -20.85 Q-0.45 -20.8 -0.55 -20.8 L-0.65 -20.8 Q-0.7 -20.85 -0.7 -21.0 -0.7 -21.05 -0.65 -21.1 L-0.6 -21.1 M-0.5 -20.55 L-0.45 -20.45 Q-0.45 -20.3 -0.7 -20.1 -0.95 -19.9 -1.15 -19.9 L-1.2 -19.95 -1.25 -20.1 Q-1.25 -20.3 -1.05 -20.45 -0.9 -20.65 -0.7 -20.65 -0.6 -20.65 -0.5 -20.55 M-1.45 -20.05 L-1.6 -20.05 Q-1.65 -20.05 -1.7 -20.15 L-1.75 -20.3 Q-1.75 -20.45 -1.6 -20.5 -1.45 -20.5 -1.35 -20.3 L-1.4 -20.1 -1.45 -20.05 M-4.95 -14.35 L-5.0 -14.35 Q-5.1 -14.35 -5.15 -14.5 L-5.05 -14.55 Q-4.95 -14.55 -4.9 -14.4 L-4.95 -14.35 M-4.9 -10.85 Q-4.8 -10.95 -4.7 -10.95 -4.6 -10.95 -4.55 -10.8 L-4.5 -10.6 Q-4.5 -10.55 -4.55 -10.45 -4.7 -10.4 -4.8 -10.4 -5.0 -10.4 -5.0 -10.65 -5.0 -10.75 -4.9 -10.85 M-2.8 -8.45 L-2.9 -8.35 -2.95 -8.85 -2.9 -9.8 -2.9 -9.9 -2.65 -9.85 -2.35 -9.4 -2.75 -9.35 -2.8 -9.0 -2.45 -9.0 -2.45 -8.8 -2.5 -8.75 -2.55 -8.75 -2.7 -8.7 Q-2.75 -8.7 -2.8 -8.75 L-2.8 -8.45 M-4.8 -9.85 L-4.9 -9.75 Q-4.95 -9.7 -5.1 -9.7 L-5.15 -9.7 Q-5.2 -9.7 -5.2 -9.8 -5.2 -9.9 -5.1 -9.95 L-5.0 -10.0 -4.8 -9.85 M-0.55 -7.25 L-0.5 -7.1 -0.55 -7.0 -0.7 -6.95 -0.8 -6.95 -0.8 -7.2 -0.55 -7.25 M-5.35 -6.75 Q-5.35 -6.65 -5.4 -6.55 -5.5 -6.45 -5.65 -6.4 L-5.75 -6.45 Q-5.8 -6.5 -5.8 -6.6 -5.8 -6.7 -5.65 -6.8 -5.55 -6.95 -5.4 -6.95 L-5.4 -6.9 -5.35 -6.75 M-5.2 -6.25 Q-5.0 -6.25 -4.85 -6.1 L-4.85 -6.0 Q-4.85 -5.95 -4.9 -5.85 -5.0 -5.7 -5.25 -5.7 -5.4 -5.7 -5.45 -6.05 -5.45 -6.15 -5.35 -6.2 L-5.2 -6.25" fill="#cc8a28" fill-rule="evenodd" stroke="none"/>
    <path d="M-2.8 -8.45 L-2.8 -8.75 Q-2.75 -8.7 -2.7 -8.7 L-2.55 -8.75 -2.5 -8.75 -2.45 -8.8 -2.45 -9.0 -2.8 -9.0 -2.75 -9.35 -2.35 -9.4 -2.65 -9.85 -2.25 -9.7 Q-2.15 -9.6 -2.15 -9.3 -2.15 -9.0 -2.35 -8.8 L-2.8 -8.45 M-2.9 -9.9 L-2.9 -9.8 -2.9 -9.9" fill="#ffbc59" fill-rule="evenodd" stroke="none"/>
    <path d="M-2.75 -9.35 L-2.35 -9.4 -2.75 -9.35" fill="#ffffff" fill-rule="evenodd" stroke="none"/>
    <path d="M4.0 -18.4 Q4.35 -18.85 5.05 -18.85 5.6 -18.85 6.1 -18.3 6.5 -17.85 6.5 -17.55 6.5 -17.3 6.35 -17.35 L6.1 -17.4 Q5.85 -17.4 5.35 -17.1 4.85 -16.85 4.65 -16.85 4.3 -16.85 4.0 -17.2 3.8 -17.5 3.8 -17.75 3.8 -18.1 4.0 -18.4 M5.6 -17.9 Q5.25 -18.2 4.8 -18.15 4.25 -18.1 4.25 -17.8 4.25 -17.6 4.4 -17.45 4.55 -17.25 4.7 -17.25 L4.8 -17.3 Q5.2 -17.5 5.4 -17.65 5.5 -17.75 5.7 -17.8 L5.7 -17.85 5.6 -17.9 M5.0 -15.35 L4.95 -15.3 5.0 -15.05 5.05 -14.95 Q5.15 -14.8 5.35 -14.75 5.55 -14.65 6.0 -14.65 L6.2 -14.65 Q6.35 -14.65 6.55 -14.55 L6.85 -14.4 6.7 -14.7 6.45 -15.05 Q6.05 -15.7 5.65 -15.7 5.15 -15.7 5.0 -15.5 L5.0 -15.35 M4.7 -15.8 Q4.95 -16.15 5.4 -16.15 6.3 -16.15 6.8 -15.25 7.2 -14.6 7.2 -13.95 L7.2 -13.8 7.15 -13.8 7.0 -13.75 Q6.95 -13.75 6.75 -14.05 6.5 -14.3 6.1 -14.3 L5.9 -14.35 Q5.8 -14.35 5.8 -14.25 L5.8 -14.15 5.65 -14.2 Q5.15 -14.2 4.8 -14.65 4.55 -15.05 4.55 -15.45 L4.7 -15.8 M5.1 -13.0 Q5.0 -13.0 4.95 -12.85 L4.95 -12.6 Q4.95 -12.15 5.2 -12.0 5.7 -11.7 5.95 -11.3 L6.0 -11.4 6.05 -11.55 6.05 -11.75 Q6.0 -12.25 5.8 -12.5 5.65 -12.7 5.1 -13.0 M5.95 -10.7 Q5.8 -10.9 4.95 -11.65 4.55 -11.95 4.55 -12.65 4.55 -12.9 4.7 -13.1 4.9 -13.35 5.25 -13.35 5.65 -13.35 5.65 -13.05 L6.05 -12.6 Q6.4 -12.1 6.4 -11.55 6.2 -10.8 5.95 -10.7" fill="#1f1919" fill-rule="evenodd" stroke="none"/>
    <path d="M5.6 -17.9 L5.2 -17.85 4.75 -17.75 4.4 -17.8 4.25 -17.8 Q4.25 -18.1 4.8 -18.15 5.25 -18.2 5.6 -17.9 M5.0 -15.35 L5.0 -15.5 Q5.15 -15.7 5.65 -15.7 6.05 -15.7 6.45 -15.05 L6.7 -14.7 6.65 -14.8 6.45 -14.9 Q6.05 -15.05 5.0 -15.35 M6.0 -14.65 Q5.55 -14.65 5.35 -14.75 5.15 -14.8 5.05 -14.95 L5.4 -14.8 6.0 -14.65 M6.05 -11.75 Q5.7 -12.3 5.1 -13.0 5.65 -12.7 5.8 -12.5 6.0 -12.25 6.05 -11.75 M-2.95 -9.6 Q-3.05 -9.5 -3.05 -9.4 -3.05 -8.95 -2.8 -8.9 L-2.8 -8.8 -2.9 -8.85 -2.95 -8.8 -3.0 -8.7 -2.95 -8.6 -2.85 -8.5 -2.85 -8.45 -2.9 -8.45 Q-3.15 -8.45 -3.3 -8.8 -3.45 -9.15 -3.45 -9.4 -3.45 -9.6 -3.3 -9.8 -3.1 -10.05 -2.65 -10.05 -2.5 -10.05 -2.35 -9.9 -2.25 -9.75 -2.25 -9.65 L-2.25 -9.6 -2.3 -9.7 Q-2.4 -9.9 -2.55 -9.9 L-2.6 -9.85 -2.65 -9.85 Q-2.7 -9.95 -2.75 -9.95 -2.85 -9.95 -2.9 -9.85 L-2.95 -9.7 -2.95 -9.6" fill="#cc8a28" fill-rule="evenodd" stroke="none"/>
    <path d="M4.25 -17.8 L4.4 -17.8 4.75 -17.75 5.2 -17.85 5.6 -17.9 5.7 -17.85 5.7 -17.8 Q5.5 -17.75 5.4 -17.65 5.2 -17.5 4.8 -17.3 L4.7 -17.25 Q4.55 -17.25 4.4 -17.45 4.25 -17.6 4.25 -17.8 M5.05 -14.95 L5.0 -15.05 4.95 -15.3 5.0 -15.35 Q6.05 -15.05 6.45 -14.9 L6.65 -14.8 6.7 -14.7 6.85 -14.4 6.55 -14.55 Q6.35 -14.65 6.2 -14.65 L6.0 -14.65 5.4 -14.8 5.05 -14.95 M6.05 -11.75 L6.05 -11.55 6.0 -11.4 5.95 -11.3 Q5.7 -11.7 5.2 -12.0 4.95 -12.15 4.95 -12.6 L4.95 -12.85 Q5.0 -13.0 5.1 -13.0 5.7 -12.3 6.05 -11.75" fill="#805619" fill-rule="evenodd" stroke="none"/>
    <path d="M1.05 -7.8 Q1.8 -8.55 2.75 -9.1 L2.85 -9.1 2.85 -9.0 Q2.85 -8.85 1.9 -7.75 L1.9 -7.5 Q1.9 -7.4 2.0 -7.3 L2.05 -7.15 Q2.05 -7.05 1.9 -7.0 L1.7 -6.95 1.45 -7.05 1.4 -7.05 1.4 -7.0 1.45 -6.7 Q1.7 -6.3 1.7 -6.25 L1.7 -6.1 1.35 -6.05 0.85 -6.1 Q0.8 -6.1 0.7 -6.2 0.7 -5.85 1.0 -5.55 L1.55 -5.0 1.5 -4.9 1.4 -4.85 0.7 -4.8 Q0.45 -4.8 0.15 -4.95 0.0 -5.05 -0.05 -5.15 0.0 -4.85 0.6 -4.4 L1.15 -4.0 1.2 -4.05 1.3 -4.0 1.3 -3.95 Q1.3 -3.75 0.8 -3.55 L0.65 -3.5 0.65 -3.45 0.45 -3.4 Q0.2 -3.3 0.1 -3.3 L-0.5 -3.2 -0.55 -2.9 Q-0.5 -2.6 -0.3 -2.05 L-0.15 -1.55 -0.15 -1.4 -0.3 -1.3 Q-0.8 -1.45 -0.95 -2.4 L-1.0 -3.1 Q-1.1 -3.0 -1.2 -3.0 L-1.35 -2.9 -1.45 -2.85 Q-1.6 -2.85 -1.55 -2.85 L-1.6 -2.9 -1.65 -3.05 Q-1.65 -4.05 -0.6 -5.75 L-0.6 -5.8 -0.4 -6.05 -0.35 -6.15 0.0 -6.6 Q0.45 -7.25 1.05 -7.8 M1.55 -7.4 L1.4 -7.25 1.6 -7.2 1.75 -7.2 1.7 -7.55 1.55 -7.4 M1.15 -6.3 L1.3 -6.3 1.15 -6.65 1.1 -6.9 0.7 -6.45 0.75 -6.45 0.95 -6.35 1.15 -6.3 M0.15 -5.45 Q0.6 -5.15 0.95 -5.1 L0.65 -5.6 Q0.5 -5.9 0.45 -6.1 L0.0 -5.55 0.15 -5.45 M0.8 -3.85 Q0.55 -3.95 0.15 -4.35 -0.2 -4.65 -0.3 -4.9 L-0.5 -4.35 Q-0.4 -4.15 -0.45 -3.85 L-0.45 -3.7 -0.2 -3.55 Q0.05 -3.55 0.4 -3.65 L0.8 -3.85 M-2.6 -11.25 L-3.5 -10.6 -3.45 -10.6 -3.3 -10.7 Q-3.25 -10.7 -3.25 -10.55 L-3.4 -10.2 Q-3.55 -9.8 -3.55 -9.6 -3.55 -9.35 -3.2 -8.5 -2.9 -7.6 -2.9 -7.45 -2.9 -7.4 -2.95 -7.35 L-3.0 -7.4 Q-3.05 -7.4 -3.15 -7.6 -3.25 -7.8 -3.25 -7.85 -3.25 -7.9 -3.45 -8.25 L-3.6 -8.6 -3.7 -8.8 -3.75 -8.95 -3.85 -9.15 -3.9 -9.35 -4.0 -9.55 Q-4.05 -9.75 -4.05 -9.9 -4.05 -10.25 -3.75 -10.7 -3.4 -11.4 -2.75 -11.4 L-2.65 -11.35 Q-2.6 -11.35 -2.6 -11.25" fill="#000000" fill-rule="evenodd" stroke="none"/>
    <path d="M-1.35 -2.9 L-1.35 -2.65 Q-1.35 -2.55 -1.45 -2.45 -1.55 -2.25 -1.75 -2.25 -2.05 -2.25 -2.05 -2.6 -2.05 -2.75 -1.9 -3.2 -1.8 -3.7 -1.8 -4.2 L-1.4 -5.0 Q-1.05 -5.75 -1.05 -6.45 L-0.75 -6.7 0.05 -7.4 0.0 -7.4 -0.05 -7.45 -1.2 -7.0 Q-1.25 -7.0 -1.25 -6.95 -1.3 -6.95 -1.35 -6.95 L-1.45 -7.05 Q-1.45 -7.45 0.25 -8.15 L0.8 -7.85 0.9 -7.9 1.0 -7.85 1.05 -7.8 Q0.45 -7.25 0.0 -6.6 L-0.05 -6.6 Q-0.1 -6.6 -0.45 -6.4 L-0.4 -6.3 -0.35 -6.15 -0.4 -6.05 -0.6 -5.8 -0.6 -5.75 Q-1.65 -4.05 -1.65 -3.05 L-1.6 -2.9 -1.55 -2.85 Q-1.6 -2.85 -1.45 -2.85 L-1.35 -2.9 M-2.05 -12.85 L-1.9 -12.95 -1.95 -13.1 -1.95 -13.2 -1.85 -13.25 Q-1.55 -13.25 -1.1 -12.5 -0.7 -11.8 -0.7 -11.5 L-0.7 -11.45 -0.8 -11.4 -1.15 -11.85 Q-1.3 -12.2 -1.5 -12.3 L-2.15 -12.55 Q-2.65 -12.75 -2.65 -12.85 -2.65 -12.95 -2.35 -12.9 L-2.05 -12.85 M-5.3 -8.65 Q-5.2 -8.65 -4.9 -8.2 -4.6 -7.75 -4.55 -7.55 L-4.6 -7.5 Q-4.7 -7.5 -4.75 -7.6 L-4.85 -7.8 -4.85 -7.75 Q-4.85 -7.7 -4.9 -7.7 L-5.2 -8.1 -5.45 -8.55 -5.4 -8.6 -5.3 -8.65 M-1.8 -7.1 L-1.8 -7.05 -1.85 -6.95 Q-1.85 -6.9 -1.95 -6.9 -2.15 -6.9 -2.45 -6.55 L-2.75 -6.2 -2.7 -5.8 -2.6 -5.7 Q-2.6 -5.6 -2.65 -5.5 -2.7 -5.45 -2.75 -5.45 -2.8 -5.45 -3.0 -5.9 L-3.2 -6.4 Q-3.2 -6.6 -2.65 -6.85 L-1.9 -7.15 -1.85 -7.15 -1.8 -7.1 M-1.3 -5.8 Q-1.45 -5.8 -1.55 -5.85 L-1.6 -6.0 Q-1.6 -6.1 -1.45 -6.2 -1.35 -6.25 -1.3 -6.25 -1.2 -6.25 -1.1 -6.0 L-1.3 -5.8 M-2.75 -3.6 L-2.35 -3.25 -2.4 -3.2 -2.45 -3.2 Q-2.6 -3.2 -2.85 -3.35 -3.1 -3.55 -3.1 -3.65 L-3.1 -4.1 Q-3.05 -4.45 -2.95 -4.45 -2.9 -4.45 -2.2 -3.45 -2.2 -3.4 -2.25 -3.35 L-2.3 -3.35 Q-2.45 -3.35 -2.5 -3.45 L-2.65 -3.65 -2.75 -3.6" fill="#4d0f0f" fill-rule="evenodd" stroke="none"/>
    <path d="M0.8 -3.85 L0.4 -3.65 Q0.05 -3.55 -0.2 -3.55 L-0.45 -3.7 -0.45 -3.85 Q-0.4 -4.15 -0.5 -4.35 L-0.3 -4.9 Q-0.2 -4.65 0.15 -4.35 0.55 -3.95 0.8 -3.85 M0.15 -5.45 L0.0 -5.55 0.45 -6.1 Q0.5 -5.9 0.65 -5.6 L0.95 -5.1 Q0.6 -5.15 0.15 -5.45 M1.15 -6.3 L0.95 -6.35 0.75 -6.45 0.7 -6.45 1.1 -6.9 1.15 -6.65 1.3 -6.3 1.15 -6.3 M1.55 -7.4 L1.7 -7.55 1.75 -7.2 1.6 -7.2 1.4 -7.25 1.55 -7.4" fill="#cccccc" fill-rule="evenodd" stroke="none"/>
    <path d="M-2.8 -8.9 Q-3.05 -8.95 -3.05 -9.4 -3.05 -9.5 -2.95 -9.6 -2.9 -9.4 -2.8 -9.4 -2.7 -9.4 -2.65 -9.55 -2.6 -9.6 -2.6 -9.7 L-2.65 -9.85 -2.6 -9.85 -2.55 -9.9 Q-2.4 -9.9 -2.3 -9.7 L-2.25 -9.6 Q-2.2 -9.5 -2.2 -9.4 -2.2 -9.35 -2.25 -9.3 L-2.3 -9.2 -2.5 -9.05 Q-2.6 -9.1 -2.65 -9.15 L-2.6 -9.0 -2.65 -8.95 Q-2.7 -8.9 -2.75 -8.9 L-2.8 -8.9 M-2.85 -8.5 L-2.95 -8.6 -3.0 -8.7 -2.95 -8.8 -2.9 -8.85 -2.8 -8.8 Q-2.7 -8.8 -2.7 -8.65 L-2.7 -8.55 Q-2.75 -8.5 -2.8 -8.5 L-2.85 -8.5" fill="#ffbc59" fill-rule="evenodd" stroke="none"/>
    <path d="M-2.95 -9.6 L-2.95 -9.7 -2.9 -9.85 Q-2.85 -9.95 -2.75 -9.95 -2.7 -9.95 -2.65 -9.85 L-2.6 -9.7 Q-2.6 -9.6 -2.65 -9.55 -2.7 -9.4 -2.8 -9.4 -2.9 -9.4 -2.95 -9.6" fill="#ffffff" fill-rule="evenodd" stroke="none"/>
  </g>
</svg>
