<?xml version="1.0" encoding="UTF-8" standalone="no"?>
<svg xmlns:ffdec="https://www.free-decompiler.com/flash" xmlns:xlink="http://www.w3.org/1999/xlink" ffdec:objectType="shape" height="22.7px" width="15.65px" xmlns="http://www.w3.org/2000/svg">
  <g transform="matrix(1.0, 0.0, 0.0, 1.0, 6.95, 22.4)">
    <path d="M0.2 -21.05 Q0.5 -20.6 1.0 -19.6 L1.7 -18.15 Q1.75 -18.25 1.75 -18.3 L1.75 -18.8 1.8 -18.95 1.8 -19.9 Q2.7 -18.95 3.7 -17.65 L3.8 -17.45 Q4.5 -15.55 4.55 -13.95 L4.8 -14.1 5.1 -14.35 Q5.45 -14.55 5.75 -14.65 L6.45 -15.05 6.75 -15.15 7.6 -15.25 Q7.8 -15.25 8.3 -15.05 8.05 -14.8 7.75 -14.3 L7.6 -14.1 Q6.2 -12.4 5.35 -9.6 6.05 -9.9 6.9 -10.8 L7.1 -11.0 Q7.35 -11.25 7.8 -11.8 8.3 -12.4 8.55 -12.8 L8.7 -12.7 8.7 -11.7 Q8.7 -10.95 8.35 -9.3 L8.1 -8.15 Q7.6 -7.35 7.0 -6.2 L5.35 -4.4 2.95 -1.75 Q0.55 0.3 -0.85 0.3 L-1.6 0.25 Q-2.6 0.2 -3.45 -0.55 L-3.5 -0.6 -3.6 -0.5 Q-3.85 -0.65 -4.1 -1.05 -5.4 -2.2 -6.15 -4.1 -6.95 -6.15 -6.95 -8.55 -6.95 -11.0 -5.8 -13.6 L-5.0 -15.3 Q-4.65 -16.1 -4.65 -16.4 L-4.65 -16.5 -4.15 -17.7 -4.0 -17.45 -3.95 -17.35 -3.95 -16.95 Q-3.85 -16.0 -3.85 -15.55 -3.4 -15.6 -2.85 -17.1 -2.3 -18.45 -2.3 -19.1 -2.3 -20.05 -2.95 -21.5 -3.2 -22.0 -3.45 -22.4 -2.95 -22.25 -2.5 -22.0 -2.05 -21.75 -1.3 -21.0 L-1.25 -20.9 -1.2 -20.85 Q-1.05 -20.55 -1.05 -20.2 -1.0 -20.25 -0.95 -20.3 L-0.9 -20.35 -0.9 -20.7 Q-0.9 -21.25 -1.25 -21.8 L-1.35 -22.3 Q-0.05 -21.4 0.2 -21.05 M2.4 -16.2 L2.25 -15.45 2.2 -15.05 2.25 -14.95 Q2.25 -13.85 1.95 -12.5 L1.95 -12.55 Q1.95 -14.4 1.4 -16.75 0.95 -18.8 0.35 -19.45 L0.2 -19.75 Q-0.15 -20.3 -0.6 -21.0 L-0.6 -20.8 -0.55 -20.45 Q-0.55 -20.0 -0.7 -19.3 -0.7 -19.0 -0.65 -18.7 L-0.85 -19.0 Q-1.35 -19.9 -1.6 -20.15 L-1.65 -20.1 -1.85 -20.45 -1.95 -20.45 -1.9 -20.2 Q-2.0 -20.4 -2.25 -20.7 L-2.15 -20.5 Q-1.7 -19.1 -1.7 -18.5 -1.7 -18.15 -1.9 -17.35 L-2.0 -17.0 -2.55 -16.1 -3.4 -14.7 -3.5 -14.55 -4.55 -12.8 Q-4.4 -14.1 -4.3 -14.35 L-4.35 -14.3 -4.3 -14.45 Q-4.3 -14.6 -4.35 -14.7 L-4.45 -14.8 -4.7 -14.25 -5.4 -12.7 -5.45 -12.65 -5.55 -12.3 -5.75 -11.85 Q-6.35 -10.1 -6.35 -8.7 -6.35 -6.95 -6.05 -5.85 -5.85 -5.2 -5.5 -4.55 L-5.45 -4.25 Q-5.1 -3.05 -4.65 -2.25 L-3.65 -1.65 -3.4 -1.5 Q-3.4 -1.2 -3.2 -0.9 -2.75 -0.15 -1.3 -0.15 -0.6 -0.15 0.95 -1.0 L1.7 -1.45 Q3.25 -2.1 4.85 -3.9 L5.15 -4.25 Q8.05 -7.2 8.05 -10.0 8.05 -10.2 8.0 -10.2 L7.95 -10.2 7.9 -10.15 8.0 -10.85 8.05 -11.05 7.95 -11.4 Q6.7 -9.8 5.0 -8.6 L4.5 -8.25 Q4.1 -8.35 4.1 -8.7 4.1 -8.95 5.2 -11.15 L5.65 -12.0 6.85 -14.25 6.9 -14.3 6.95 -14.45 6.55 -14.35 Q6.15 -14.25 6.0 -14.25 L5.5 -13.9 5.15 -13.55 4.75 -13.2 4.2 -12.65 Q4.1 -12.4 3.9 -12.3 L3.8 -12.15 Q4.05 -13.2 4.05 -14.0 4.05 -14.95 3.65 -16.15 L3.65 -16.2 Q3.2 -17.5 2.5 -18.2 L2.3 -18.15 2.35 -17.9 2.3 -18.1 2.4 -16.7 2.4 -16.2 M2.65 -17.05 L2.65 -17.05 M-1.85 -17.3 L-2.0 -17.05 -1.7 -17.85 -1.85 -17.3 M-1.6 -18.8 L-1.6 -18.9 -1.7 -19.55 Q-1.6 -19.1 -1.6 -18.8" fill="#121212" fill-rule="evenodd" stroke="none"/>
    <path d="M2.4 -16.2 L2.4 -16.7 2.3 -18.1 2.35 -17.9 2.3 -18.15 2.5 -18.2 Q3.2 -17.5 3.65 -16.2 L3.65 -16.15 Q3.6 -13.65 2.7 -11.55 2.05 -10.15 0.55 -8.15 L0.3 -7.8 Q0.9 -9.2 1.7 -11.05 2.45 -12.8 2.45 -14.5 2.45 -15.35 2.4 -16.2 M5.0 -8.6 Q6.7 -9.8 7.95 -11.4 L8.05 -11.05 8.0 -10.85 Q7.75 -10.5 7.5 -10.0 L6.95 -9.05 Q6.15 -7.9 4.45 -7.15 L4.45 -7.2 5.0 -8.6 M-3.65 -1.65 L-4.65 -2.25 Q-5.1 -3.05 -5.45 -4.25 L-5.5 -4.55 Q-5.85 -5.2 -6.05 -5.85 -6.35 -6.95 -6.35 -8.7 -6.35 -10.1 -5.75 -11.85 L-5.55 -12.3 -5.45 -12.65 -5.4 -12.7 -4.7 -14.25 -4.45 -14.8 -4.35 -14.7 Q-4.3 -14.6 -4.3 -14.45 L-4.35 -14.3 -4.65 -13.4 -4.7 -12.7 Q-4.7 -12.55 -4.8 -11.95 -4.95 -11.3 -5.0 -11.0 -5.0 -10.7 -5.1 -10.05 L-5.15 -9.25 -4.85 -6.75 Q-4.85 -6.45 -4.7 -6.35 L-4.65 -6.5 Q-4.85 -8.6 -4.55 -9.6 L-4.35 -10.45 Q-4.25 -11.05 -4.25 -11.9 -4.25 -12.25 -3.15 -14.45 -2.8 -15.3 -2.55 -16.1 L-2.0 -17.0 -1.9 -17.35 Q-1.7 -18.15 -1.7 -18.5 -1.7 -19.1 -2.15 -20.5 L-2.25 -20.7 Q-2.0 -20.4 -1.9 -20.2 L-1.95 -20.45 -1.85 -20.45 -1.65 -20.1 -1.6 -20.15 -1.2 -19.0 -1.0 -15.9 Q-1.0 -15.6 -1.5 -13.7 -2.0 -11.75 -2.25 -11.25 -2.15 -11.2 -2.05 -11.2 -1.95 -11.2 -1.95 -11.4 L-1.05 -13.7 Q-0.15 -16.15 -0.15 -17.15 -0.15 -19.3 -0.5 -20.55 L-0.6 -20.8 -0.6 -21.0 Q-0.15 -20.3 0.2 -19.75 0.9 -17.5 0.9 -16.05 0.9 -14.0 0.2 -11.75 -0.3 -10.3 -1.4 -7.9 -2.6 -5.25 -3.0 -4.25 -3.5 -2.85 -3.65 -1.65 M2.65 -17.05 L2.65 -17.05 M-1.6 -18.8 Q-1.6 -19.1 -1.7 -19.55 L-1.6 -18.9 -1.6 -18.8 M-1.85 -17.3 L-1.7 -17.85 -2.0 -17.05 -1.85 -17.3" fill="#cccccc" fill-rule="evenodd" stroke="none"/>
    <path d="M0.2 -19.75 L0.35 -19.45 Q0.95 -18.8 1.4 -16.75 1.95 -14.4 1.95 -12.55 L1.95 -12.5 Q2.25 -13.85 2.25 -14.95 L2.2 -15.05 2.25 -15.45 2.4 -16.2 Q2.45 -15.35 2.45 -14.5 2.45 -12.8 1.7 -11.05 0.9 -9.2 0.3 -7.8 L0.55 -8.15 Q2.05 -10.15 2.7 -11.55 3.6 -13.65 3.65 -16.15 4.05 -14.95 4.05 -14.0 4.05 -13.2 3.8 -12.15 L3.9 -12.3 Q4.1 -12.4 4.2 -12.65 L4.75 -13.2 5.15 -13.55 5.5 -13.9 6.0 -14.25 Q6.15 -14.25 6.55 -14.35 L6.95 -14.45 6.9 -14.3 6.85 -14.25 5.65 -12.0 5.2 -11.15 Q4.1 -8.95 4.1 -8.7 4.1 -8.35 4.5 -8.25 L5.0 -8.6 4.45 -7.2 4.45 -7.15 Q6.15 -7.9 6.95 -9.05 L7.5 -10.0 Q7.75 -10.5 8.0 -10.85 L7.9 -10.15 7.95 -10.2 8.0 -10.2 Q8.05 -10.2 8.05 -10.0 8.05 -7.2 5.15 -4.25 L4.85 -3.9 Q3.25 -2.1 1.7 -1.45 L0.95 -1.0 Q-0.6 -0.15 -1.3 -0.15 -2.75 -0.15 -3.2 -0.9 -3.4 -1.2 -3.4 -1.5 L-3.65 -1.65 Q-3.5 -2.85 -3.0 -4.25 -2.6 -5.25 -1.4 -7.9 -0.3 -10.3 0.2 -11.75 0.9 -14.0 0.9 -16.05 0.9 -17.5 0.2 -19.75 M-4.35 -14.3 L-4.3 -14.35 Q-4.4 -14.1 -4.55 -12.8 L-3.5 -14.55 -3.4 -14.7 -2.55 -16.1 Q-2.8 -15.3 -3.15 -14.45 -4.25 -12.25 -4.25 -11.9 -4.25 -11.05 -4.35 -10.45 L-4.55 -9.6 Q-4.85 -8.6 -4.65 -6.5 L-4.7 -6.35 Q-4.85 -6.45 -4.85 -6.75 L-5.15 -9.25 -5.1 -10.05 Q-5.0 -10.7 -5.0 -11.0 -4.95 -11.3 -4.8 -11.95 -4.7 -12.55 -4.7 -12.7 L-4.65 -13.4 -4.35 -14.3 M-1.6 -20.15 Q-1.35 -19.9 -0.85 -19.0 L-0.65 -18.7 Q-0.7 -19.0 -0.7 -19.3 -0.55 -20.0 -0.55 -20.45 L-0.6 -20.8 -0.5 -20.55 Q-0.15 -19.3 -0.15 -17.15 -0.15 -16.15 -1.05 -13.7 L-1.95 -11.4 Q-1.95 -11.2 -2.05 -11.2 -2.15 -11.2 -2.25 -11.25 -2.0 -11.75 -1.5 -13.7 -1.0 -15.6 -1.0 -15.9 L-1.2 -19.0 -1.6 -20.15" fill="#999999" fill-rule="evenodd" stroke="none"/>
  </g>
</svg>
