<?xml version="1.0" encoding="UTF-8" standalone="no"?>
<svg xmlns:ffdec="https://www.free-decompiler.com/flash" xmlns:xlink="http://www.w3.org/1999/xlink" ffdec:objectType="shape" height="20.2px" width="12.7px" xmlns="http://www.w3.org/2000/svg">
  <g transform="matrix(1.0, 0.0, 0.0, 1.0, 7.0, 20.4)">
    <path d="M4.05 -12.5 Q4.2 -12.65 4.3 -12.65 4.5 -12.65 4.7 -12.5 4.75 -12.2 4.9 -11.85 L5.1 -11.7 5.05 -11.4 Q5.05 -11.0 5.5 -10.25 L5.6 -10.1 Q5.7 -9.45 5.7 -8.95 L5.65 -8.15 5.45 -7.7 Q5.0 -6.7 4.95 -6.15 4.65 -5.35 3.8 -4.45 L2.85 -3.6 2.3 -2.9 Q1.7 -2.65 0.95 -1.35 L0.75 -0.95 0.35 -0.7 -0.1 -0.35 -0.95 -0.2 Q-1.25 -0.2 -1.5 -0.35 L-1.55 -0.4 Q-2.25 -0.5 -2.75 -1.2 L-3.3 -2.1 Q-3.6 -2.7 -3.95 -3.0 L-4.05 -3.15 -4.1 -3.15 Q-4.3 -3.15 -4.45 -3.3 -4.55 -3.45 -4.55 -3.65 L-5.55 -4.6 -6.5 -5.6 Q-6.7 -5.7 -6.8 -5.85 -7.0 -6.1 -7.0 -6.4 -7.0 -6.65 -6.65 -7.1 L-6.65 -8.8 -6.55 -9.25 Q-6.45 -9.8 -6.45 -10.4 -6.45 -10.55 -6.85 -10.9 L-6.85 -11.4 Q-6.85 -12.05 -6.8 -12.6 -6.6 -14.3 -5.85 -14.5 -5.7 -14.7 -5.45 -14.75 L-5.25 -15.0 Q-4.85 -15.75 -4.8 -16.05 L-4.7 -16.55 -4.55 -16.95 -4.5 -17.05 Q-4.4 -17.5 -4.1 -18.1 -3.4 -19.4 -1.85 -20.4 L-1.65 -20.35 -1.6 -20.2 -1.3 -19.95 -0.95 -19.5 -0.85 -19.4 Q-0.5 -19.1 -0.2 -18.75 L0.3 -18.05 0.85 -17.15 0.9 -17.15 Q1.2 -16.95 1.95 -16.35 3.0 -15.4 3.05 -15.25 L3.05 -14.95 Q3.15 -14.85 3.15 -14.7 L3.05 -14.6 3.05 -14.45 Q3.15 -14.25 3.25 -13.95 L3.2 -13.9 3.65 -12.95 3.7 -12.85 3.75 -12.8 3.8 -12.7 3.95 -12.45 3.95 -12.5 4.0 -12.45 4.05 -12.5 M-2.25 -12.9 L-2.0 -12.85 Q-1.55 -12.9 -1.35 -13.0 L-1.3 -13.0 -1.15 -13.1 -0.9 -13.2 -0.45 -13.4 -0.45 -13.45 0.05 -14.45 0.5 -15.25 0.5 -15.3 Q0.5 -15.4 0.5 -15.8 L0.55 -16.35 Q0.45 -16.75 -0.1 -17.3 L-0.3 -17.5 Q-0.55 -17.85 -0.7 -18.25 L-0.95 -18.6 -1.45 -19.4 Q-1.5 -19.4 -1.55 -19.45 L-1.6 -19.4 -1.8 -19.25 -1.9 -19.15 -2.7 -18.45 Q-3.3 -17.75 -4.0 -16.35 -4.15 -16.1 -4.15 -15.6 L-4.15 -14.9 Q-4.2 -14.35 -4.6 -14.15 L-4.3 -13.55 -4.3 -13.45 Q-4.85 -13.5 -5.05 -13.65 -5.1 -13.7 -5.25 -13.7 L-5.35 -13.5 -5.8 -12.95 Q-6.25 -12.45 -6.3 -11.9 -6.4 -11.7 -6.4 -11.5 -6.4 -11.35 -6.3 -11.15 -6.2 -10.95 -6.0 -10.95 L-5.75 -11.05 Q-5.3 -10.75 -4.85 -10.75 L-4.45 -10.6 -4.2 -10.55 -3.8 -10.45 Q-3.35 -10.45 -2.85 -9.95 L-2.6 -9.7 Q-1.95 -9.0 -1.95 -8.5 -1.95 -8.4 -2.15 -8.05 -2.35 -7.7 -2.45 -7.65 -2.9 -7.5 -3.1 -7.15 -3.25 -6.85 -3.45 -6.85 L-5.45 -7.05 Q-5.7 -7.25 -5.9 -7.25 -6.2 -7.25 -6.4 -7.0 -6.6 -6.8 -6.6 -6.5 -6.6 -6.3 -6.45 -6.1 -6.25 -5.85 -6.05 -5.85 L-5.75 -6.1 -5.5 -6.1 Q-4.75 -6.1 -4.2 -5.85 -3.95 -5.7 -3.7 -5.6 -3.5 -5.6 -3.35 -5.25 -3.25 -5.0 -3.25 -4.7 -3.95 -4.3 -3.95 -3.7 -3.95 -3.45 -3.5 -3.1 L-3.2 -2.9 Q-2.05 -1.6 -1.35 -0.95 L-1.1 -0.9 -0.9 -0.9 -0.85 -0.9 Q-0.55 -0.7 -0.35 -0.75 -0.25 -0.75 0.0 -0.9 0.3 -1.0 0.45 -1.15 0.55 -1.25 0.7 -1.5 L0.9 -1.75 Q1.3 -2.5 1.9 -3.2 2.45 -3.45 3.2 -4.25 3.65 -4.65 4.0 -5.15 4.85 -6.3 4.85 -7.2 L4.95 -7.25 Q5.0 -7.55 5.3 -7.95 5.65 -8.35 5.65 -8.9 5.65 -9.3 5.15 -10.6 L4.7 -11.7 4.65 -11.8 4.6 -11.8 4.45 -11.9 4.2 -12.05 Q4.1 -11.9 3.9 -11.6 L3.55 -10.9 3.5 -10.75 3.2 -10.25 2.75 -9.75 2.65 -9.75 Q2.6 -9.7 2.5 -9.7 L2.25 -9.75 2.2 -9.8 1.95 -9.85 Q1.65 -9.85 1.2 -10.2 0.7 -10.5 0.7 -10.65 0.7 -11.55 1.65 -12.95 L2.3 -13.9 Q2.6 -14.4 2.6 -14.65 2.6 -15.1 2.5 -15.25 L2.25 -15.6 Q2.05 -15.65 1.8 -15.65 1.65 -15.65 1.55 -15.55 L1.5 -15.6 1.45 -15.4 Q1.4 -15.25 1.4 -14.95 L1.4 -14.9 1.1 -14.6 0.0 -13.4 -0.2 -13.35 Q-0.45 -13.0 -0.8 -12.85 -1.0 -12.75 -1.35 -12.7 L-2.25 -12.7 -2.35 -12.75 -3.15 -12.75 -3.25 -12.85 -3.2 -12.85 -3.2 -12.9 -2.7 -13.0 -2.35 -12.9 -2.25 -12.9 M3.05 -14.55 L3.0 -14.5 3.05 -14.45 3.05 -14.55 M3.6 -12.7 L3.55 -12.9 Q3.3 -13.2 3.25 -13.3 L3.2 -13.45 3.1 -13.6 3.0 -13.8 3.05 -14.05 2.85 -14.25 2.55 -13.75 Q1.95 -12.75 1.9 -12.6 L1.35 -11.6 Q1.15 -11.1 1.15 -10.75 1.15 -10.35 1.8 -10.15 L2.1 -10.1 2.55 -10.05 2.65 -10.05 Q3.05 -10.35 3.1 -10.6 3.15 -10.75 3.15 -10.85 3.15 -10.95 3.25 -11.1 3.35 -11.45 3.65 -11.95 L3.75 -12.1 3.65 -12.55 3.6 -12.7 M-4.15 -13.4 L-4.15 -13.35 -4.0 -13.25 Q-3.9 -13.2 -3.75 -13.2 -3.6 -13.2 -3.6 -13.15 L-3.6 -13.0 -3.65 -13.0 Q-3.8 -12.8 -3.95 -12.95 -4.15 -13.05 -4.15 -13.2 L-4.15 -13.4 M-2.75 -9.1 Q-3.15 -9.4 -3.9 -9.8 -5.45 -10.7 -5.85 -10.7 L-5.95 -10.7 Q-5.9 -10.25 -6.0 -8.85 L-6.05 -7.85 Q-5.85 -7.85 -5.35 -7.5 -4.85 -7.15 -4.1 -7.15 -3.3 -7.15 -2.7 -7.85 -2.5 -8.1 -2.35 -8.35 -2.2 -8.5 -2.2 -8.65 -2.2 -8.8 -2.4 -8.95 -2.55 -9.05 -2.75 -9.1 M-4.85 -5.65 Q-5.05 -5.75 -5.15 -5.75 L-5.45 -5.7 -4.2 -4.1 -4.1 -4.25 Q-3.6 -4.65 -3.6 -4.8 -3.6 -5.1 -4.0 -5.35 -4.35 -5.55 -4.5 -5.55 -4.65 -5.55 -4.85 -5.65" fill="#111111" fill-rule="evenodd" stroke="none"/>
    <path d="M3.65 -12.95 L3.85 -12.75 3.8 -12.7 3.75 -12.8 3.7 -12.85 3.65 -12.95 M1.1 -14.6 L1.4 -14.9 1.4 -14.95 Q1.4 -15.25 1.45 -15.4 L1.5 -15.6 1.55 -15.55 Q1.65 -15.65 1.8 -15.65 2.05 -15.65 2.25 -15.6 L2.5 -15.25 Q2.6 -15.1 2.6 -14.65 2.6 -14.4 2.3 -13.9 L1.65 -12.95 Q0.7 -11.55 0.7 -10.65 0.7 -10.5 1.2 -10.2 1.65 -9.85 1.95 -9.85 L2.2 -9.8 2.25 -9.75 2.6 -9.5 2.65 -9.5 2.45 -9.4 Q2.55 -9.2 2.9 -9.2 3.6 -9.2 4.15 -10.0 4.7 -10.75 4.7 -11.45 L4.65 -11.7 4.7 -11.7 5.15 -10.6 Q5.65 -9.3 5.65 -8.9 5.65 -8.35 5.3 -7.95 5.0 -7.55 4.95 -7.25 L4.85 -7.2 Q4.85 -6.3 4.0 -5.15 3.65 -4.65 3.2 -4.25 2.45 -3.45 1.9 -3.2 1.3 -2.5 0.9 -1.75 L0.7 -1.5 Q0.55 -1.25 0.45 -1.15 0.3 -1.0 0.0 -0.9 -0.25 -0.75 -0.35 -0.75 -0.55 -0.7 -0.85 -0.9 L-0.9 -0.9 Q-0.7 -1.35 -0.45 -2.05 -0.05 -3.15 -0.15 -3.5 -0.2 -3.8 -0.1 -4.2 -0.25 -4.5 -0.35 -5.0 -0.4 -5.15 -0.35 -5.45 -0.25 -5.75 -0.3 -5.85 L-0.3 -6.1 -0.35 -6.45 -0.4 -6.5 -0.45 -6.75 -0.45 -7.3 -0.5 -7.4 Q-0.5 -7.6 -0.45 -8.25 -0.4 -8.9 -0.45 -9.1 -0.5 -9.25 -0.65 -9.5 -0.85 -9.75 -0.85 -9.8 L-0.85 -9.85 Q-1.15 -9.85 -1.3 -9.95 L-2.7 -10.0 -2.85 -9.95 Q-3.35 -10.45 -3.8 -10.45 L-4.2 -10.55 -3.9 -10.5 Q-3.5 -10.45 -3.05 -10.5 -2.8 -10.55 -2.25 -10.95 -1.75 -11.4 -1.55 -11.4 L-1.35 -11.35 -1.05 -11.45 Q-0.7 -11.45 -0.45 -11.55 -0.3 -11.7 0.1 -12.0 0.8 -12.9 1.2 -13.4 1.3 -13.8 1.2 -14.3 L1.1 -14.6 M0.7 -7.75 Q0.25 -6.9 0.15 -6.35 L0.1 -6.2 Q0.15 -5.95 0.35 -5.4 L0.5 -4.95 Q0.6 -4.75 0.65 -4.45 L0.7 -4.1 0.8 -4.05 Q0.9 -4.0 1.0 -4.0 1.15 -4.0 1.45 -4.3 L1.75 -4.9 Q1.95 -4.95 2.2 -5.2 2.55 -5.55 2.55 -5.85 2.55 -5.95 2.5 -6.05 L2.4 -6.1 2.15 -6.0 Q2.25 -6.5 2.25 -6.95 2.25 -7.2 2.35 -7.4 L2.15 -7.55 2.2 -7.6 1.7 -7.85 1.65 -7.8 0.9 -7.85 Q0.85 -7.85 0.7 -7.75 M4.6 -9.1 Q4.7 -9.3 4.7 -9.4 L4.65 -9.6 Q4.55 -9.8 4.4 -9.8 4.3 -9.8 4.1 -9.5 3.85 -9.2 3.85 -8.9 3.85 -8.75 3.95 -8.7 L4.05 -8.65 Q4.45 -8.8 4.6 -9.1" fill="#4d0f0f" fill-rule="evenodd" stroke="none"/>
    <path d="M3.85 -12.75 L3.95 -12.6 4.05 -12.5 4.0 -12.45 3.95 -12.5 3.95 -12.45 3.8 -12.7 3.85 -12.75 M-3.2 -12.85 L-3.25 -12.85 -3.15 -12.75 -2.35 -12.75 -2.25 -12.7 -1.35 -12.7 Q-1.0 -12.75 -0.8 -12.85 -0.45 -13.0 -0.2 -13.35 L0.0 -13.4 1.1 -14.6 1.2 -14.3 Q1.3 -13.8 1.2 -13.4 0.8 -12.9 0.1 -12.0 -0.3 -11.7 -0.45 -11.55 -0.7 -11.45 -1.05 -11.45 L-1.35 -11.35 -1.55 -11.4 Q-1.75 -11.4 -2.25 -10.95 -2.8 -10.55 -3.05 -10.5 -3.5 -10.45 -3.9 -10.5 L-4.2 -10.55 -4.45 -10.6 -4.85 -10.75 Q-5.3 -10.75 -5.75 -11.05 L-6.0 -10.95 Q-6.2 -10.95 -6.3 -11.15 -6.4 -11.35 -6.4 -11.5 -6.4 -11.7 -6.3 -11.9 -6.25 -12.45 -5.8 -12.95 L-5.35 -13.5 -5.25 -13.7 Q-5.1 -13.7 -5.05 -13.65 -4.85 -13.5 -4.3 -13.45 L-4.3 -13.55 -4.15 -13.4 -4.15 -13.2 Q-4.15 -13.05 -3.95 -12.95 -3.8 -12.8 -3.65 -13.0 -3.5 -12.9 -3.2 -12.85 M2.25 -9.75 L2.5 -9.7 Q2.6 -9.7 2.65 -9.75 L2.75 -9.75 3.2 -10.25 3.5 -10.75 3.55 -10.9 3.9 -11.6 Q4.1 -11.9 4.2 -12.05 L4.45 -11.9 4.6 -11.8 4.65 -11.8 4.7 -11.7 4.65 -11.7 4.7 -11.45 Q4.7 -10.75 4.15 -10.0 3.6 -9.2 2.9 -9.2 2.55 -9.2 2.45 -9.4 L2.65 -9.5 2.6 -9.5 2.25 -9.75 M-0.9 -0.9 L-1.1 -0.9 -1.35 -0.95 Q-2.05 -1.6 -3.2 -2.9 L-3.5 -3.1 Q-3.95 -3.45 -3.95 -3.7 -3.95 -4.3 -3.25 -4.7 -3.25 -5.0 -3.35 -5.25 -3.5 -5.6 -3.7 -5.6 -3.95 -5.7 -4.2 -5.85 -4.75 -6.1 -5.5 -6.1 L-5.75 -6.1 -6.05 -5.85 Q-6.25 -5.85 -6.45 -6.1 -6.6 -6.3 -6.6 -6.5 -6.6 -6.8 -6.4 -7.0 -6.2 -7.25 -5.9 -7.25 -5.7 -7.25 -5.45 -7.05 L-3.45 -6.85 Q-3.25 -6.85 -3.1 -7.15 -2.9 -7.5 -2.45 -7.65 -2.35 -7.7 -2.15 -8.05 -1.95 -8.4 -1.95 -8.5 -1.95 -9.0 -2.6 -9.7 L-2.85 -9.95 -2.7 -10.0 -1.3 -9.95 Q-1.15 -9.85 -0.85 -9.85 L-0.85 -9.8 Q-0.85 -9.75 -0.65 -9.5 -0.5 -9.25 -0.45 -9.1 -0.4 -8.9 -0.45 -8.25 -0.5 -7.6 -0.5 -7.4 L-0.45 -7.3 -0.45 -6.75 -0.4 -6.5 -0.35 -6.45 -0.3 -6.1 -0.3 -5.85 Q-0.25 -5.75 -0.35 -5.45 -0.4 -5.15 -0.35 -5.0 -0.25 -4.5 -0.1 -4.2 -0.2 -3.8 -0.15 -3.5 -0.05 -3.15 -0.45 -2.05 -0.7 -1.35 -0.9 -0.9 M0.7 -7.75 Q0.85 -7.85 0.9 -7.85 L1.65 -7.8 1.7 -7.85 2.2 -7.6 2.15 -7.55 2.35 -7.4 Q2.25 -7.2 2.25 -6.95 2.25 -6.5 2.15 -6.0 L2.4 -6.1 2.5 -6.05 Q2.55 -5.95 2.55 -5.85 2.55 -5.55 2.2 -5.2 1.95 -4.95 1.75 -4.9 L1.45 -4.3 Q1.15 -4.0 1.0 -4.0 0.9 -4.0 0.8 -4.05 L0.7 -4.1 0.65 -4.45 Q0.6 -4.75 0.5 -4.95 L0.35 -5.4 Q0.15 -5.95 0.1 -6.2 L0.15 -6.35 Q0.25 -6.9 0.7 -7.75 M4.6 -9.1 Q4.45 -8.8 4.05 -8.65 L3.95 -8.7 Q3.85 -8.75 3.85 -8.9 3.85 -9.2 4.1 -9.5 4.3 -9.8 4.4 -9.8 4.55 -9.8 4.65 -9.6 L4.7 -9.4 Q4.7 -9.3 4.6 -9.1" fill="#8c1c1c" fill-rule="evenodd" stroke="none"/>
    <path d="M-1.9 -19.15 L-1.7 -18.15 -1.95 -17.8 Q-2.5 -17.1 -2.45 -16.7 L-2.4 -16.55 -2.25 -16.55 Q-2.2 -16.65 -1.5 -17.1 L-1.5 -16.9 Q-1.45 -16.8 -1.9 -14.95 -2.3 -13.05 -2.25 -12.9 L-2.35 -12.9 -2.7 -13.0 -3.2 -12.9 -3.2 -12.85 Q-3.5 -12.9 -3.65 -13.0 L-3.6 -13.0 -3.6 -13.15 Q-3.6 -13.2 -3.75 -13.2 -3.9 -13.2 -4.0 -13.25 L-4.15 -13.35 -4.15 -13.4 -4.3 -13.55 -4.6 -14.15 Q-4.2 -14.35 -4.15 -14.9 L-4.15 -15.6 Q-4.15 -16.1 -4.0 -16.35 -3.3 -17.75 -2.7 -18.45 L-1.9 -19.15 M-1.05 -16.15 L-0.65 -16.85 -0.55 -16.95 Q-0.4 -16.6 -0.35 -16.35 -0.2 -15.6 -0.8 -14.5 L-0.9 -14.65 Q-1.1 -14.95 -1.15 -15.4 -1.25 -15.8 -1.05 -16.15 M-3.15 -14.4 L-3.0 -14.35 -2.8 -14.45 -2.45 -14.5 -2.5 -14.95 Q-2.55 -15.1 -2.65 -15.15 L-2.85 -15.15 Q-3.2 -14.85 -3.25 -14.7 -3.25 -14.55 -3.25 -14.5 L-3.15 -14.4" fill="#cc8a28" fill-rule="evenodd" stroke="none"/>
    <path d="M-1.9 -19.15 L-1.8 -19.25 -1.6 -19.4 -1.55 -19.45 Q-1.5 -19.4 -1.45 -19.4 L-0.95 -18.6 -0.7 -18.25 Q-0.55 -17.85 -0.3 -17.5 L-0.1 -17.3 Q0.45 -16.75 0.55 -16.35 L0.5 -15.8 Q0.5 -15.4 0.5 -15.3 L0.5 -15.25 0.05 -14.45 -0.45 -13.45 -0.45 -13.4 -0.9 -13.2 -1.15 -13.1 -1.3 -13.0 -1.35 -13.0 Q-1.55 -12.9 -2.0 -12.85 L-2.25 -12.9 Q-2.3 -13.05 -1.9 -14.95 -1.45 -16.8 -1.5 -16.9 L-1.5 -17.1 Q-2.2 -16.65 -2.25 -16.55 L-2.4 -16.55 -2.45 -16.7 Q-2.5 -17.1 -1.95 -17.8 L-1.7 -18.15 -1.9 -19.15 M-3.15 -14.4 L-3.25 -14.5 Q-3.25 -14.55 -3.25 -14.7 -3.2 -14.85 -2.85 -15.15 L-2.65 -15.15 Q-2.55 -15.1 -2.5 -14.95 L-2.45 -14.5 -2.8 -14.45 -3.0 -14.35 -3.15 -14.4 M-1.05 -16.15 Q-1.25 -15.8 -1.15 -15.4 -1.1 -14.95 -0.9 -14.65 L-0.8 -14.5 Q-0.2 -15.6 -0.35 -16.35 -0.4 -16.6 -0.55 -16.95 L-0.65 -16.85 -1.05 -16.15" fill="#805619" fill-rule="evenodd" stroke="none"/>
    <path d="M2.1 -10.1 Q1.9 -11.55 3.1 -12.45 L3.25 -12.6 3.6 -12.7 3.65 -12.55 3.75 -12.1 3.65 -11.95 Q3.35 -11.45 3.25 -11.1 3.15 -10.95 3.15 -10.85 3.15 -10.75 3.1 -10.6 3.05 -10.35 2.65 -10.05 L2.55 -10.05 2.1 -10.1 M-2.75 -9.1 L-2.85 -9.1 Q-3.0 -9.1 -3.6 -8.8 -4.2 -8.5 -4.4 -8.5 -4.9 -8.5 -4.95 -8.4 L-4.8 -8.25 Q-4.15 -8.3 -4.0 -8.1 -3.85 -7.9 -3.4 -7.9 -3.2 -7.9 -2.75 -8.1 -2.5 -8.25 -2.35 -8.35 -2.5 -8.1 -2.7 -7.85 -3.3 -7.15 -4.1 -7.15 -4.85 -7.15 -5.35 -7.5 -5.85 -7.85 -6.05 -7.85 L-6.0 -8.85 Q-5.9 -10.25 -5.95 -10.7 L-5.85 -10.7 Q-5.45 -10.7 -3.9 -9.8 -3.15 -9.4 -2.75 -9.1 M-5.1 -9.45 L-5.3 -9.2 -5.25 -9.0 -5.25 -8.95 -5.15 -8.9 -5.0 -8.9 Q-4.85 -8.9 -4.7 -9.1 -4.55 -9.35 -4.55 -9.5 -4.55 -9.6 -4.6 -9.65 L-4.7 -9.65 Q-4.85 -9.65 -5.1 -9.45 M-4.85 -5.65 Q-4.65 -5.55 -4.5 -5.55 -4.35 -5.55 -4.0 -5.35 -3.6 -5.1 -3.6 -4.8 -3.6 -4.65 -4.1 -4.25 L-4.2 -4.1 -5.45 -5.7 -5.15 -5.75 Q-5.05 -5.75 -4.85 -5.65" fill="#d9ba8d" fill-rule="evenodd" stroke="none"/>
    <path d="M2.1 -10.1 L1.8 -10.15 Q1.15 -10.35 1.15 -10.75 1.15 -11.1 1.35 -11.6 L1.9 -12.6 Q1.95 -12.75 2.55 -13.75 L2.85 -14.25 3.05 -14.05 3.0 -13.8 3.1 -13.6 3.2 -13.45 3.25 -13.3 Q3.3 -13.2 3.55 -12.9 L3.6 -12.7 3.25 -12.6 3.1 -12.45 Q1.9 -11.55 2.1 -10.1 M-5.1 -9.45 Q-4.85 -9.65 -4.7 -9.65 L-4.6 -9.65 Q-4.55 -9.6 -4.55 -9.5 -4.55 -9.35 -4.7 -9.1 -4.85 -8.9 -5.0 -8.9 L-5.15 -8.9 -5.25 -8.95 -5.25 -9.0 -5.3 -9.2 -5.1 -9.45 M-2.35 -8.35 Q-2.5 -8.25 -2.75 -8.1 -3.2 -7.9 -3.4 -7.9 -3.85 -7.9 -4.0 -8.1 -4.15 -8.3 -4.8 -8.25 L-4.95 -8.4 Q-4.9 -8.5 -4.4 -8.5 -4.2 -8.5 -3.6 -8.8 -3.0 -9.1 -2.85 -9.1 L-2.75 -9.1 Q-2.55 -9.05 -2.4 -8.95 -2.2 -8.8 -2.2 -8.65 -2.2 -8.5 -2.35 -8.35" fill="#806d53" fill-rule="evenodd" stroke="none"/>
  </g>
</svg>
