<?xml version="1.0" encoding="UTF-8" standalone="no"?>
<svg xmlns:ffdec="https://www.free-decompiler.com/flash" xmlns:xlink="http://www.w3.org/1999/xlink" ffdec:objectType="shape" height="20.25px" width="15.65px" xmlns="http://www.w3.org/2000/svg">
  <g transform="matrix(1.0, 0.0, 0.0, 1.0, 6.8, 20.25)">
    <path d="M4.8 -12.0 L4.85 -11.9 5.0 -11.7 4.85 -11.75 4.75 -11.65 Q4.95 -11.25 5.45 -10.9 L5.4 -10.85 5.05 -10.6 5.1 -10.55 5.35 -10.55 5.3 -10.55 Q5.2 -10.4 4.95 -10.4 L4.9 -10.45 4.8 -10.25 4.65 -10.25 Q4.6 -10.2 4.6 -10.05 4.6 -9.9 4.4 -9.65 4.25 -9.5 4.2 -9.35 L4.15 -9.3 4.05 -9.25 4.05 -9.2 4.1 -8.8 Q3.6 -8.65 3.45 -8.65 3.3 -8.65 2.95 -8.95 2.55 -9.25 2.55 -9.4 2.55 -11.0 4.0 -11.85 L4.2 -11.95 4.8 -12.0 M2.45 -5.1 L2.3 -4.95 2.35 -4.95 1.95 -4.45 2.0 -4.55 2.0 -4.6 2.1 -4.75 Q1.8 -4.45 1.6 -4.35 L1.55 -4.3 1.45 -4.25 Q1.2 -4.15 0.95 -3.95 0.55 -3.6 0.35 -3.6 0.25 -3.6 0.15 -3.7 L0.1 -3.75 0.1 -4.1 Q0.1 -4.4 0.05 -4.6 L0.0 -4.75 0.0 -5.1 Q-0.1 -5.65 -0.1 -5.9 L-0.05 -6.05 Q0.15 -6.55 0.75 -7.4 L1.0 -7.45 Q1.35 -7.45 1.7 -7.3 L1.75 -7.35 2.2 -7.05 2.15 -7.0 Q2.55 -6.65 2.55 -6.1 L2.55 -5.6 Q2.4 -5.35 2.4 -5.2 L2.45 -5.15 2.45 -5.1 M-2.1 -0.7 L-2.3 -0.75 -2.5 -0.75 Q-3.3 -1.8 -4.55 -3.95 -6.0 -6.45 -6.0 -6.85 -6.0 -7.55 -5.6 -9.2 -5.2 -10.85 -5.2 -11.15 -5.2 -11.3 -5.3 -11.4 -5.45 -11.55 -5.45 -11.7 -5.45 -12.5 -4.65 -13.25 L-4.1 -13.75 -4.1 -13.8 -3.95 -13.95 Q-3.85 -13.95 -3.75 -13.85 -3.6 -13.7 -3.05 -13.6 L-3.05 -13.7 -2.95 -13.5 Q-3.0 -13.5 -3.0 -13.35 -3.0 -13.15 -2.85 -13.05 L-2.55 -13.05 Q-2.4 -12.95 -2.15 -12.9 L-2.15 -12.85 -2.1 -12.8 -1.9 -12.75 -1.85 -12.75 -1.5 -12.7 -1.3 -12.65 -1.1 -12.65 -0.7 -12.6 -0.35 -12.55 -0.3 -12.55 0.25 -12.6 Q0.6 -12.75 0.9 -13.05 L0.95 -13.05 1.1 -13.1 Q1.45 -13.4 2.45 -14.2 L2.45 -13.9 Q2.45 -13.35 2.3 -12.95 1.8 -12.5 0.95 -11.65 L0.3 -11.3 -0.25 -11.25 -0.6 -11.2 -0.75 -11.25 Q-0.95 -11.25 -1.55 -10.9 -2.15 -10.5 -2.4 -10.5 -2.85 -10.5 -3.25 -10.6 L-3.9 -10.7 Q-3.75 -10.3 -3.0 -10.1 -2.5 -9.95 -2.15 -9.95 -1.05 -9.95 -0.8 -9.75 -0.65 -9.7 -0.4 -9.65 L-0.4 -9.6 Q-0.4 -9.55 -0.25 -9.25 -0.1 -9.0 -0.1 -8.85 -0.1 -8.6 -0.3 -8.0 -0.45 -7.35 -0.45 -7.15 L-0.45 -7.05 -0.55 -6.45 -0.55 -6.25 -0.5 -6.2 -0.55 -5.8 -0.55 -5.6 Q-0.55 -5.45 -0.7 -5.15 -0.8 -4.9 -0.8 -4.75 -0.8 -4.2 -0.7 -3.95 -0.85 -3.5 -0.85 -3.2 -0.85 -2.85 -1.45 -1.8 -1.8 -1.15 -2.1 -0.7" fill="#8c1c1c" fill-rule="evenodd" stroke="none"/>
    <path d="M5.0 -11.7 L7.0 -10.85 Q8.85 -10.15 8.85 -9.65 8.4 -8.7 7.7 -7.75 6.65 -6.3 5.75 -5.95 5.25 -5.9 4.85 -5.45 4.65 -5.35 4.55 -5.15 L4.35 -4.7 Q4.35 -4.6 4.45 -4.5 L4.35 -4.45 4.6 -4.0 Q5.0 -3.25 5.0 -3.1 5.0 -2.6 3.5 -2.5 L1.8 -2.4 1.7 -2.45 Q1.0 -2.45 -0.15 -0.95 L-0.5 -0.55 Q-0.65 -0.45 -0.9 -0.35 L-1.4 -0.05 -2.25 0.0 Q-2.55 0.0 -2.75 -0.25 L-2.8 -0.25 Q-3.5 -0.45 -3.85 -1.2 L-4.2 -2.15 Q-4.4 -2.75 -4.65 -3.1 L-5.95 -4.9 Q-6.8 -6.1 -6.8 -6.2 -6.8 -6.5 -6.45 -8.25 -6.05 -10.0 -6.05 -11.2 L-5.95 -11.8 Q-5.85 -12.45 -5.7 -13.05 -5.2 -14.7 -4.4 -14.8 -4.2 -14.95 -3.95 -15.0 L-3.75 -15.25 Q-3.2 -15.95 -3.1 -16.25 L-2.7 -17.15 -2.6 -17.2 Q-2.45 -17.65 -2.0 -18.2 -1.05 -19.45 0.6 -20.25 L0.8 -20.2 0.85 -20.1 1.05 -19.8 1.35 -19.3 1.4 -19.2 Q1.7 -18.85 1.9 -18.45 2.15 -18.1 2.3 -17.75 2.45 -17.4 2.7 -16.75 2.95 -16.5 3.55 -15.8 4.45 -14.8 4.45 -14.6 L4.35 -14.1 4.3 -13.75 4.3 -14.1 Q4.3 -14.4 4.15 -14.6 L4.15 -14.65 4.05 -14.75 4.05 -14.8 Q3.75 -15.15 3.3 -15.15 3.15 -15.15 3.05 -15.05 L3.0 -15.15 2.95 -14.95 Q2.85 -14.8 2.8 -14.5 L2.7 -14.4 2.65 -14.4 2.45 -14.2 Q1.45 -13.4 1.1 -13.1 L0.95 -13.05 0.9 -13.05 Q0.6 -12.75 0.25 -12.6 L-0.3 -12.55 -0.35 -12.55 -0.7 -12.6 -1.1 -12.65 -1.3 -12.65 -1.5 -12.7 -1.85 -12.75 -1.9 -12.75 -2.1 -12.8 -2.15 -12.85 -2.15 -12.9 -2.1 -12.9 -1.6 -12.95 Q-1.45 -12.95 -1.25 -12.85 L-1.2 -12.8 Q-1.05 -12.75 -0.95 -12.75 L-0.25 -12.85 -0.05 -12.9 0.2 -13.0 0.65 -13.15 0.65 -13.2 1.35 -14.1 1.95 -14.9 2.1 -15.45 Q2.2 -15.85 2.2 -15.95 2.2 -16.4 1.75 -17.0 L1.6 -17.25 Q1.4 -17.6 1.35 -18.05 L1.15 -18.4 Q0.95 -18.85 0.8 -19.25 L0.75 -19.3 0.7 -19.25 0.45 -19.1 0.4 -19.1 0.35 -19.05 Q-0.25 -18.7 -0.55 -18.45 -1.3 -17.8 -2.25 -16.45 -2.45 -16.2 -2.55 -15.75 L-2.7 -15.0 Q-2.8 -14.5 -3.25 -14.3 L-3.05 -13.7 -3.05 -13.6 Q-3.6 -13.7 -3.75 -13.85 -3.85 -13.95 -3.95 -13.95 L-4.1 -13.8 -4.1 -13.75 -4.65 -13.25 Q-5.45 -12.5 -5.45 -11.7 -5.45 -11.55 -5.3 -11.4 -5.2 -11.3 -5.2 -11.15 -5.2 -10.85 -5.6 -9.2 -6.0 -7.55 -6.0 -6.85 -6.0 -6.45 -4.55 -3.95 -3.3 -1.8 -2.5 -0.75 L-2.3 -0.75 -2.1 -0.7 -2.05 -0.65 Q-1.75 -0.45 -1.6 -0.45 -1.45 -0.45 -1.2 -0.6 -0.9 -0.65 -0.75 -0.8 -0.6 -0.85 -0.4 -1.15 L0.05 -1.5 Q0.6 -1.95 0.9 -2.25 L1.2 -2.55 1.35 -2.65 Q1.4 -2.85 1.55 -3.0 1.7 -3.15 1.85 -3.15 2.0 -3.15 2.25 -3.0 2.55 -2.9 2.65 -2.9 2.95 -2.9 3.5 -3.1 4.0 -3.3 4.0 -3.4 L3.85 -3.9 3.65 -4.4 3.7 -4.6 3.5 -4.8 3.35 -4.9 Q2.95 -5.1 2.8 -5.1 2.55 -5.1 2.35 -4.95 L2.3 -4.95 2.45 -5.1 2.45 -5.15 2.55 -5.25 2.65 -5.4 2.85 -5.4 Q2.95 -5.45 3.05 -5.45 L3.25 -5.45 3.35 -5.4 3.35 -5.35 3.3 -5.35 3.45 -5.2 3.5 -5.2 3.6 -5.05 3.65 -5.0 3.6 -5.1 3.7 -5.1 3.9 -5.05 Q4.45 -5.05 4.85 -5.75 L5.05 -6.05 Q4.8 -6.4 4.45 -7.45 4.25 -8.1 4.15 -8.6 L4.1 -8.75 4.1 -8.8 4.05 -9.2 4.05 -9.25 4.15 -9.3 4.2 -9.35 Q4.25 -9.5 4.4 -9.65 4.6 -9.9 4.6 -10.05 4.6 -10.2 4.65 -10.25 L4.8 -10.25 4.85 -10.2 4.6 -9.5 Q4.55 -9.3 4.4 -9.1 L4.5 -8.5 4.5 -8.15 Q4.5 -7.9 4.75 -7.3 5.0 -6.75 5.1 -6.75 6.3 -6.75 7.3 -8.15 7.8 -8.9 8.0 -9.6 8.0 -9.7 7.9 -9.8 7.8 -9.85 7.6 -9.95 L6.65 -10.3 6.15 -10.5 6.0 -10.5 5.6 -10.55 5.35 -10.55 5.1 -10.55 5.05 -10.6 5.4 -10.85 5.45 -10.9 Q4.95 -11.25 4.75 -11.65 L4.85 -11.75 5.0 -11.7 M4.25 -13.55 Q4.25 -13.5 4.65 -12.3 L4.65 -12.25 4.65 -12.15 Q4.65 -12.0 4.65 -12.05 L4.6 -12.1 Q4.3 -12.5 4.3 -12.65 L4.25 -12.85 4.2 -13.0 4.15 -13.2 Q4.25 -13.35 4.25 -13.55 M1.45 -4.25 L1.55 -4.3 1.6 -4.35 Q1.8 -4.45 2.1 -4.75 L2.0 -4.6 2.0 -4.55 1.95 -4.45 1.7 -3.9 1.6 -3.7 1.6 -3.65 1.55 -3.7 1.5 -3.75 Q1.45 -3.8 1.45 -3.95 1.45 -4.2 1.45 -4.25 M-2.95 -13.5 L-2.85 -13.4 Q-2.75 -13.3 -2.6 -13.3 -2.45 -13.3 -2.45 -13.25 L-2.5 -13.1 -2.55 -13.05 -2.85 -13.05 Q-3.0 -13.15 -3.0 -13.35 -3.0 -13.5 -2.95 -13.5" fill="#111111" fill-rule="evenodd" stroke="none"/>
    <path d="M4.15 -14.6 Q4.25 -14.35 4.25 -13.9 L4.25 -13.55 Q4.25 -13.35 4.15 -13.2 L4.2 -13.0 4.25 -12.85 4.3 -12.65 Q4.3 -12.5 4.6 -12.1 L4.65 -12.05 Q4.65 -12.0 4.65 -12.15 L4.65 -12.25 4.7 -12.15 4.8 -12.0 4.2 -11.95 4.0 -11.85 Q2.55 -11.0 2.55 -9.4 2.55 -9.25 2.95 -8.95 3.3 -8.65 3.45 -8.65 3.6 -8.65 4.1 -8.8 L4.1 -8.75 4.15 -8.6 Q4.25 -8.1 4.45 -7.45 4.8 -6.4 5.05 -6.05 L4.85 -5.75 Q4.45 -5.05 3.9 -5.05 L3.7 -5.1 3.6 -5.1 3.65 -5.0 3.6 -5.05 3.5 -5.2 3.45 -5.2 3.3 -5.35 3.35 -5.35 3.35 -5.4 3.25 -5.45 3.05 -5.45 Q2.95 -5.45 2.85 -5.4 L2.65 -5.4 2.55 -5.25 2.45 -5.15 2.45 -5.1 2.45 -5.15 2.4 -5.2 Q2.4 -5.35 2.55 -5.6 L2.55 -6.1 Q2.55 -6.65 2.15 -7.0 L2.2 -7.05 1.75 -7.35 1.7 -7.3 Q1.35 -7.45 1.0 -7.45 L0.75 -7.4 Q0.15 -6.55 -0.05 -6.05 L-0.1 -5.9 Q-0.1 -5.65 0.0 -5.1 L0.0 -4.75 0.05 -4.6 Q0.1 -4.4 0.1 -4.1 L0.1 -3.75 0.15 -3.7 Q0.25 -3.6 0.35 -3.6 0.55 -3.6 0.95 -3.95 1.2 -4.15 1.45 -4.25 1.45 -4.2 1.45 -3.95 1.45 -3.8 1.5 -3.75 L1.55 -3.7 1.55 -3.6 Q1.65 -3.3 1.85 -3.15 1.7 -3.15 1.55 -3.0 1.4 -2.85 1.35 -2.65 L1.2 -2.55 0.9 -2.25 Q0.6 -1.95 0.05 -1.5 L-0.4 -1.15 Q-0.6 -0.85 -0.75 -0.8 -0.9 -0.65 -1.2 -0.6 -1.45 -0.45 -1.6 -0.45 -1.75 -0.45 -2.05 -0.65 L-2.1 -0.7 Q-1.8 -1.15 -1.45 -1.8 -0.85 -2.85 -0.85 -3.2 -0.85 -3.5 -0.7 -3.95 -0.8 -4.2 -0.8 -4.75 -0.8 -4.9 -0.7 -5.15 -0.55 -5.45 -0.55 -5.6 L-0.55 -5.8 -0.5 -6.2 -0.55 -6.25 -0.55 -6.45 -0.45 -7.05 -0.45 -7.15 Q-0.45 -7.35 -0.3 -8.0 -0.1 -8.6 -0.1 -8.85 -0.1 -9.0 -0.25 -9.25 -0.4 -9.55 -0.4 -9.6 L-0.4 -9.65 Q-0.65 -9.7 -0.8 -9.75 -1.05 -9.95 -2.15 -9.95 -2.5 -9.95 -3.0 -10.1 -3.75 -10.3 -3.9 -10.7 L-3.25 -10.6 Q-2.85 -10.5 -2.4 -10.5 -2.15 -10.5 -1.55 -10.9 -0.95 -11.25 -0.75 -11.25 L-0.6 -11.2 -0.25 -11.25 0.3 -11.3 0.95 -11.65 Q1.8 -12.5 2.3 -12.95 2.45 -13.35 2.45 -13.9 L2.45 -14.2 2.65 -14.4 2.7 -14.4 2.8 -14.5 Q2.85 -14.8 2.95 -14.95 L3.0 -15.15 3.05 -15.05 Q3.15 -15.15 3.3 -15.15 3.75 -15.15 4.05 -14.8 L4.05 -14.75 4.15 -14.65 4.15 -14.6" fill="#4d0f0f" fill-rule="evenodd" stroke="none"/>
    <path d="M5.35 -10.55 L5.6 -10.55 6.0 -10.5 6.15 -10.5 6.65 -10.3 7.6 -9.95 Q7.8 -9.85 7.9 -9.8 7.75 -9.7 7.5 -9.55 L6.95 -9.65 Q5.8 -9.6 5.5 -9.7 L5.45 -9.6 Q5.6 -9.3 6.45 -8.9 5.95 -8.6 5.75 -8.6 L4.5 -8.5 4.4 -9.1 Q4.55 -9.3 4.6 -9.5 L4.85 -10.2 4.8 -10.25 4.9 -10.45 4.95 -10.4 Q5.2 -10.4 5.3 -10.55 L5.35 -10.55 M2.35 -4.95 Q2.55 -5.1 2.8 -5.1 L2.85 -5.0 Q3.1 -4.7 3.1 -4.25 3.1 -4.0 3.0 -3.75 L2.95 -3.75 2.7 -3.7 Q2.6 -3.7 2.2 -3.8 L1.75 -3.9 1.7 -3.9 1.95 -4.45 2.35 -4.95 M-3.05 -13.7 L-3.25 -14.3 Q-2.8 -14.5 -2.7 -15.0 L-2.55 -15.75 Q-2.45 -16.2 -2.25 -16.45 -1.3 -17.8 -0.55 -18.45 -0.25 -18.7 0.35 -19.05 L0.35 -18.0 0.05 -17.7 Q-0.65 -17.05 -0.65 -16.65 -0.65 -16.5 -0.6 -16.5 L-0.5 -16.45 0.35 -16.95 0.3 -16.75 Q0.3 -16.65 -0.45 -14.8 -1.2 -12.95 -1.2 -12.85 L-1.2 -12.8 -1.25 -12.85 Q-1.45 -12.95 -1.6 -12.95 L-2.1 -12.9 -2.15 -12.9 Q-2.4 -12.95 -2.55 -13.05 L-2.5 -13.1 -2.45 -13.25 Q-2.45 -13.3 -2.6 -13.3 -2.75 -13.3 -2.85 -13.4 L-2.95 -13.5 -3.05 -13.7 M1.15 -16.6 L1.2 -16.7 Q1.35 -16.3 1.35 -16.1 1.35 -15.3 0.55 -14.3 L0.5 -14.45 Q0.35 -14.75 0.35 -15.25 0.35 -15.6 0.6 -16.0 L1.15 -16.6 M-1.8 -14.4 L-1.65 -14.35 -1.4 -14.45 -1.1 -14.45 -1.05 -14.9 Q-1.05 -15.05 -1.1 -15.15 L-1.3 -15.15 Q-1.75 -14.85 -1.8 -14.75 L-1.85 -14.5 -1.8 -14.4" fill="#cc8a28" fill-rule="evenodd" stroke="none"/>
    <path d="M7.9 -9.8 Q8.0 -9.7 8.0 -9.6 7.8 -8.9 7.3 -8.15 6.3 -6.75 5.1 -6.75 5.0 -6.75 4.75 -7.3 4.5 -7.9 4.5 -8.15 L4.5 -8.5 5.75 -8.6 Q5.95 -8.6 6.45 -8.9 5.6 -9.3 5.45 -9.6 L5.5 -9.7 Q5.8 -9.6 6.95 -9.65 L7.5 -9.55 Q7.75 -9.7 7.9 -9.8 M2.8 -5.1 Q2.95 -5.1 3.35 -4.9 L3.5 -4.8 3.7 -4.6 3.65 -4.4 3.85 -3.9 4.0 -3.4 Q4.0 -3.3 3.5 -3.1 2.95 -2.9 2.65 -2.9 2.55 -2.9 2.25 -3.0 2.0 -3.15 1.85 -3.15 1.65 -3.3 1.55 -3.6 L1.55 -3.7 1.6 -3.65 1.6 -3.7 1.7 -3.9 1.75 -3.9 2.2 -3.8 Q2.6 -3.7 2.7 -3.7 L2.95 -3.75 3.0 -3.75 Q3.1 -4.0 3.1 -4.25 3.1 -4.7 2.85 -5.0 L2.8 -5.1 M0.35 -19.05 L0.4 -19.1 0.45 -19.1 0.7 -19.25 0.75 -19.3 0.8 -19.25 Q0.95 -18.85 1.15 -18.4 L1.35 -18.05 Q1.4 -17.6 1.6 -17.25 L1.75 -17.0 Q2.2 -16.4 2.2 -15.95 2.2 -15.85 2.1 -15.45 L1.95 -14.9 1.35 -14.1 0.65 -13.2 0.65 -13.15 0.2 -13.0 -0.05 -12.9 -0.25 -12.85 -0.95 -12.75 Q-1.05 -12.75 -1.2 -12.8 L-1.2 -12.85 Q-1.2 -12.95 -0.45 -14.8 0.3 -16.65 0.3 -16.75 L0.35 -16.95 -0.5 -16.45 -0.6 -16.5 Q-0.65 -16.5 -0.65 -16.65 -0.65 -17.05 0.05 -17.7 L0.35 -18.0 0.35 -19.05 M1.15 -16.6 L0.6 -16.0 Q0.35 -15.6 0.35 -15.25 0.35 -14.75 0.5 -14.45 L0.55 -14.3 Q1.35 -15.3 1.35 -16.1 1.35 -16.3 1.2 -16.7 L1.15 -16.6 M-1.8 -14.4 L-1.85 -14.5 -1.8 -14.75 Q-1.75 -14.85 -1.3 -15.15 L-1.1 -15.15 Q-1.05 -15.05 -1.05 -14.9 L-1.1 -14.45 -1.4 -14.45 -1.65 -14.35 -1.8 -14.4" fill="#805619" fill-rule="evenodd" stroke="none"/>
  </g>
</svg>
