<?xml version="1.0" encoding="UTF-8" standalone="no"?>
<svg xmlns:ffdec="https://www.free-decompiler.com/flash" xmlns:xlink="http://www.w3.org/1999/xlink" ffdec:objectType="shape" height="22.85px" width="16.55px" xmlns="http://www.w3.org/2000/svg">
  <g transform="matrix(1.0, 0.0, 0.0, 1.0, 9.0, 22.2)">
    <path d="M-7.35 -2.6 L-7.45 -2.6 Q-8.55 -2.6 -8.9 -3.9 -9.05 -4.6 -9.0 -5.35 -9.0 -5.8 -8.2 -6.7 -7.4 -7.6 -6.7 -7.8 -5.95 -8.0 -4.8 -8.8 L-4.75 -8.85 -4.75 -8.9 -4.5 -9.1 -3.9 -9.65 -3.85 -9.75 Q-3.3 -10.65 -2.65 -11.3 -2.0 -12.0 -1.6 -12.05 -1.35 -12.05 -1.25 -11.9 L-1.1 -11.9 -0.4 -13.0 0.9 -15.05 Q0.9 -15.2 1.05 -15.55 1.2 -15.85 1.4 -16.0 1.55 -17.05 2.2 -17.75 2.25 -17.95 2.35 -18.15 L2.85 -18.85 3.15 -18.85 3.2 -18.9 Q3.25 -18.85 3.25 -18.65 L3.2 -18.5 3.5 -18.95 Q4.0 -19.85 4.35 -20.3 L4.3 -20.65 Q4.3 -21.05 4.45 -21.35 4.6 -21.75 5.0 -21.75 5.4 -22.1 5.9 -22.15 L5.95 -22.2 5.95 -22.1 6.0 -22.0 6.0 -21.95 5.95 -21.95 5.5 -21.2 5.35 -21.0 5.3 -21.0 5.0 -20.55 4.95 -20.7 5.1 -20.15 5.25 -19.9 Q5.55 -19.15 5.55 -18.95 L5.5 -18.1 Q5.4 -16.75 5.05 -14.9 L4.95 -14.4 4.95 -14.3 4.9 -14.2 4.9 -14.1 Q4.7 -13.35 4.5 -12.75 L4.25 -12.2 Q3.7 -11.1 2.95 -11.1 2.35 -11.1 2.2 -12.7 2.15 -13.3 2.15 -14.0 L2.2 -14.15 2.2 -14.35 2.4 -15.8 2.45 -16.15 2.35 -15.95 2.25 -15.95 2.2 -16.0 Q2.2 -16.05 2.2 -16.1 L2.05 -15.65 1.75 -13.7 1.55 -12.8 1.35 -11.8 Q1.1 -10.75 0.75 -9.95 0.45 -9.25 0.05 -8.6 -0.3 -8.05 -0.8 -7.5 L-0.9 -7.4 -0.95 -7.3 -1.05 -7.2 -1.05 -7.15 -1.1 -7.15 -1.15 -7.1 -1.45 -7.1 -1.5 -7.15 -1.5 -7.25 Q-1.85 -7.5 -2.05 -8.2 -2.2 -8.75 -2.2 -9.95 -2.25 -9.9 -2.85 -9.45 -3.4 -9.05 -3.4 -8.8 -3.4 -8.7 -3.8 -8.3 L-3.9 -8.25 -3.9 -8.2 -4.05 -8.05 -4.35 -7.85 -4.4 -7.85 -4.85 -7.35 -4.85 -7.6 -5.0 -7.55 -5.2 -7.4 -6.05 -7.0 Q-7.2 -6.45 -7.75 -5.95 -8.5 -5.25 -8.5 -4.4 -8.5 -4.1 -7.95 -3.45 -7.45 -2.8 -7.1 -2.7 L-7.2 -2.6 -7.35 -2.6 M6.8 -21.7 Q6.8 -22.1 7.15 -21.7 7.55 -21.25 7.55 -20.85 L7.55 -20.2 7.5 -19.45 7.5 -19.05 7.45 -19.05 7.45 -18.95 Q7.45 -17.6 7.25 -16.5 L7.2 -15.8 7.4 -16.05 Q7.2 -15.55 6.8 -14.0 6.3 -12.2 6.05 -11.45 L5.9 -10.95 Q5.6 -9.6 4.95 -8.7 L4.85 -8.7 Q4.55 -8.35 4.3 -8.35 3.45 -8.35 2.45 -9.35 2.1 -9.1 1.55 -8.15 1.05 -7.2 1.05 -6.75 1.05 -6.25 0.6 -6.05 L0.45 -5.95 Q0.45 -4.9 0.05 -3.85 -0.35 -2.75 -1.15 -1.8 L-1.25 -1.8 -1.3 -1.8 Q-1.35 -1.8 -1.35 -1.95 -1.35 -2.1 -0.9 -3.45 L-0.85 -3.65 -0.75 -3.9 -0.8 -3.9 -0.95 -3.8 -1.05 -3.9 Q-1.1 -4.0 -1.1 -4.2 L-1.1 -4.55 Q-1.1 -5.1 -0.95 -5.55 L-0.95 -5.65 -0.85 -5.9 Q-0.55 -6.75 0.1 -6.85 L0.2 -6.85 0.9 -8.15 1.75 -9.65 1.85 -9.8 1.95 -9.95 1.95 -10.15 1.9 -10.15 2.15 -10.2 3.0 -9.65 3.75 -9.25 3.75 -9.2 3.8 -9.2 4.05 -9.15 4.55 -9.2 4.55 -9.25 Q4.75 -9.3 4.9 -9.4 5.05 -9.75 5.2 -10.4 L5.75 -12.55 5.85 -13.55 5.8 -14.35 Q6.3 -15.3 6.55 -16.35 L6.85 -17.7 6.85 -17.75 Q7.0 -18.5 7.0 -19.35 L7.0 -19.75 7.05 -19.75 7.0 -20.45 7.0 -21.05 Q6.8 -21.6 6.8 -21.7 M-2.3 -0.75 L-2.35 -0.7 Q-2.5 -0.45 -2.75 -0.2 -3.7 0.65 -5.2 0.65 -6.1 0.65 -6.4 -0.15 -6.55 -0.55 -6.55 -0.95 -6.55 -1.2 -6.45 -1.35 L-6.25 -1.6 -6.15 -1.65 -6.1 -1.6 Q-5.95 -1.55 -5.95 -1.1 L-5.9 -1.0 -5.8 -0.75 -5.55 -0.45 Q-5.3 -0.1 -5.0 0.05 L-4.95 0.05 Q-4.35 0.05 -3.8 -0.25 L-3.6 -0.45 Q-3.35 -0.6 -3.15 -0.85 -2.8 -1.25 -2.5 -1.95 L-2.3 -2.5 -2.15 -2.95 -2.2 -3.1 -2.2 -3.45 -2.25 -3.75 -2.3 -3.9 -2.3 -6.3 -2.25 -6.25 Q-2.15 -6.2 -2.0 -6.15 L-2.05 -6.7 -2.05 -6.8 -2.05 -6.9 -2.0 -6.95 Q-1.5 -6.75 -1.35 -5.75 L-1.35 -5.5 -1.35 -4.4 -1.35 -3.85 -1.4 -3.55 -1.4 -3.5 -1.45 -3.2 -1.45 -3.15 Q-1.5 -2.7 -1.65 -2.2 -1.9 -1.3 -2.3 -0.75 M4.45 -19.7 L4.45 -19.75 4.3 -19.45 4.3 -19.4 4.2 -19.25 4.15 -19.2 Q3.75 -18.45 3.75 -18.35 3.75 -18.2 3.05 -17.1 L3.0 -17.0 2.95 -16.5 2.85 -16.0 2.8 -15.55 2.8 -15.5 2.75 -15.15 Q2.65 -14.7 2.65 -14.6 L2.65 -14.1 2.75 -13.4 2.75 -13.2 Q3.05 -13.7 3.6 -14.4 L3.7 -14.5 4.4 -15.3 4.5 -15.4 4.65 -15.55 4.65 -15.6 4.7 -15.85 4.9 -17.15 4.9 -17.45 Q4.9 -17.75 4.6 -19.0 L4.5 -19.55 4.45 -19.7 M-1.4 -9.45 L-1.25 -8.7 -1.1 -8.1 -0.45 -9.35 0.9 -12.35 1.1 -13.05 Q1.25 -13.5 1.25 -14.4 L1.25 -14.5 1.1 -14.2 1.0 -14.05 1.0 -14.0 0.3 -12.8 Q-0.65 -11.25 -1.3 -10.6 -1.45 -10.25 -1.45 -10.1 -1.45 -9.85 -1.4 -9.45 M4.45 -14.75 L3.9 -14.0 Q3.25 -13.1 2.9 -12.4 L3.0 -11.6 Q3.65 -11.9 4.3 -14.25 L4.45 -14.75" fill="#111111" fill-rule="evenodd" stroke="none"/>
    <path d="M5.95 -22.1 Q6.15 -22.1 6.4 -22.0 L6.45 -21.95 6.8 -21.7 Q6.8 -21.6 7.0 -21.05 L7.0 -20.45 7.05 -19.75 7.0 -19.75 7.0 -19.35 Q7.0 -18.5 6.85 -17.75 L6.85 -17.7 6.55 -16.35 Q6.3 -15.3 5.8 -14.35 L5.85 -13.55 5.75 -12.55 5.2 -10.4 Q5.05 -9.75 4.9 -9.4 4.75 -9.3 4.55 -9.25 4.55 -9.45 4.85 -10.6 5.1 -11.75 5.1 -12.25 L5.4 -13.9 5.35 -13.65 Q4.65 -10.7 4.0 -10.35 3.75 -10.5 3.75 -10.75 L4.15 -12.0 4.25 -12.2 4.5 -12.75 Q4.7 -13.35 4.9 -14.1 L4.9 -14.2 4.95 -14.3 4.95 -14.4 5.05 -14.9 Q5.4 -16.75 5.5 -18.1 L5.55 -18.95 Q5.55 -19.15 5.25 -19.9 L5.1 -20.15 5.0 -20.55 5.3 -21.0 5.35 -21.0 5.5 -21.2 5.95 -21.95 6.0 -21.95 6.0 -22.0 5.95 -22.1 M-1.25 -1.8 Q-1.65 -1.1 -2.3 -0.75 -1.9 -1.3 -1.65 -2.2 -1.5 -2.7 -1.45 -3.15 L-1.45 -3.2 -1.4 -3.5 -1.4 -3.55 Q-1.25 -3.85 -1.1 -4.2 -1.1 -4.0 -1.05 -3.9 L-0.95 -3.8 -0.8 -3.9 -0.75 -3.9 -0.85 -3.65 -0.9 -3.45 Q-1.35 -2.1 -1.35 -1.95 -1.35 -1.8 -1.3 -1.8 L-1.25 -1.8 M-0.95 -7.3 L-0.9 -7.4 -0.8 -7.5 Q-0.3 -8.05 0.05 -8.6 L0.1 -8.35 Q0.05 -7.8 0.15 -7.65 0.4 -7.95 0.75 -8.7 1.1 -9.5 1.25 -9.65 1.6 -10.6 1.6 -10.8 L1.45 -11.3 Q1.4 -11.6 1.35 -11.8 L1.55 -12.8 1.75 -13.7 2.05 -15.65 2.2 -16.1 Q2.2 -16.05 2.2 -16.0 L2.25 -15.95 2.35 -15.95 2.45 -16.15 2.4 -15.8 2.2 -14.35 2.2 -14.15 2.15 -14.0 2.15 -13.85 2.0 -13.05 2.0 -12.05 Q2.05 -11.5 2.25 -11.15 2.7 -10.25 4.5 -9.25 L4.55 -9.2 4.05 -9.15 3.8 -9.2 3.75 -9.2 3.75 -9.25 3.0 -9.65 2.15 -10.2 1.9 -10.15 1.95 -10.15 1.95 -9.95 1.85 -9.8 1.75 -9.65 0.9 -8.15 0.1 -6.85 Q-0.55 -6.75 -0.85 -5.9 L-0.95 -5.65 -0.95 -5.55 Q-1.1 -5.1 -1.1 -4.55 L-1.15 -4.45 -1.25 -4.35 -1.35 -4.4 -1.35 -5.5 -1.2 -5.85 Q-1.0 -6.4 -1.0 -7.2 L-0.95 -7.3 M5.7 -21.15 Q5.55 -21.15 5.4 -21.05 5.75 -20.5 5.8 -19.65 L5.9 -18.4 5.95 -17.5 5.9 -16.85 5.95 -16.9 6.1 -17.85 6.3 -19.3 Q6.3 -19.55 6.05 -20.2 5.8 -20.8 5.85 -21.15 L5.7 -21.15 M-6.15 -1.65 Q-6.05 -1.85 -5.9 -1.95 -5.95 -1.8 -5.9 -1.65 L-5.8 -1.35 Q-5.0 -1.55 -4.45 -2.45 L-4.5 -2.45 -4.5 -2.7 Q-4.5 -2.85 -4.1 -3.95 L-4.1 -4.0 Q-3.95 -4.6 -3.7 -5.4 -3.2 -6.75 -3.2 -7.8 -3.2 -7.9 -3.25 -8.1 -3.35 -8.35 -3.35 -8.45 -3.35 -8.6 -3.25 -8.65 L-3.1 -8.65 Q-2.6 -8.65 -2.3 -7.95 L-2.1 -6.95 -2.05 -6.8 -2.05 -6.7 -2.0 -6.15 Q-2.15 -6.2 -2.25 -6.25 L-2.3 -6.3 -2.3 -3.9 -2.25 -3.75 -2.2 -3.45 -2.2 -3.1 -2.15 -2.95 -2.3 -2.5 -2.5 -1.95 Q-2.8 -1.25 -3.15 -0.85 -3.35 -0.6 -3.6 -0.45 L-3.8 -0.25 Q-4.35 0.05 -4.95 0.05 L-5.0 0.05 Q-5.3 -0.1 -5.55 -0.45 L-5.8 -0.75 -5.9 -1.0 -5.95 -1.1 Q-5.95 -1.55 -6.1 -1.6 L-6.15 -1.65 M-3.7 -5.75 Q-3.9 -5.5 -4.35 -5.5 -4.55 -5.5 -4.6 -5.7 L-4.65 -5.9 Q-4.65 -6.8 -4.1 -6.85 -3.9 -6.85 -3.75 -6.65 -3.55 -6.45 -3.55 -6.15 -3.55 -5.9 -3.7 -5.75 M-4.7 -4.75 L-4.75 -4.9 Q-4.75 -5.4 -4.4 -5.3 -4.1 -5.25 -4.1 -4.95 -4.1 -4.85 -4.2 -4.75 L-4.3 -4.65 Q-4.4 -4.6 -4.45 -4.6 -4.6 -4.6 -4.65 -4.65 L-4.7 -4.75" fill="#4d0f0f" fill-rule="evenodd" stroke="none"/>
    <path d="M-6.45 -1.35 L-6.5 -1.45 -6.8 -2.15 Q-6.85 -2.25 -7.35 -2.6 L-7.2 -2.6 -7.1 -2.7 Q-7.45 -2.8 -7.95 -3.45 -8.5 -4.1 -8.5 -4.4 -8.5 -5.25 -7.75 -5.95 -7.2 -6.45 -6.05 -7.0 L-5.2 -7.4 -5.0 -7.55 -4.85 -7.6 -4.85 -7.35 -4.4 -7.85 -4.35 -7.85 -4.05 -8.05 -3.9 -8.2 -3.9 -8.25 -3.8 -8.3 Q-3.4 -8.7 -3.4 -8.8 -3.4 -9.05 -2.85 -9.45 -2.25 -9.9 -2.2 -9.95 -2.2 -8.75 -2.05 -8.2 -1.85 -7.5 -1.5 -7.25 L-1.5 -7.15 -1.45 -7.1 -1.15 -7.1 -1.1 -7.15 -1.05 -7.15 -1.05 -7.2 -0.95 -7.3 -1.0 -7.2 Q-1.0 -6.4 -1.2 -5.85 L-1.35 -5.5 -1.35 -5.75 Q-1.5 -6.75 -2.0 -6.95 L-2.05 -6.9 -2.05 -6.8 -2.1 -6.95 -2.3 -7.95 Q-2.6 -8.65 -3.1 -8.65 L-3.25 -8.65 Q-3.35 -8.6 -3.35 -8.45 -3.35 -8.35 -3.25 -8.1 -3.2 -7.9 -3.2 -7.8 -3.2 -6.75 -3.7 -5.4 -3.95 -4.6 -4.1 -4.0 L-4.1 -3.95 Q-4.5 -2.85 -4.5 -2.7 L-4.5 -2.45 -4.45 -2.45 Q-5.0 -1.55 -5.8 -1.35 L-5.9 -1.65 Q-5.95 -1.8 -5.9 -1.95 -6.05 -1.85 -6.15 -1.65 L-6.25 -1.6 -6.45 -1.35 M0.05 -8.6 Q0.45 -9.25 0.75 -9.95 1.1 -10.75 1.35 -11.8 1.4 -11.6 1.45 -11.3 L1.6 -10.8 Q1.6 -10.6 1.25 -9.65 1.1 -9.5 0.75 -8.7 0.4 -7.95 0.15 -7.65 0.05 -7.8 0.1 -8.35 L0.05 -8.6 M2.15 -14.0 Q2.15 -13.3 2.2 -12.7 2.35 -11.1 2.95 -11.1 3.7 -11.1 4.25 -12.2 L4.15 -12.0 3.75 -10.75 Q3.75 -10.5 4.0 -10.35 4.65 -10.7 5.35 -13.65 L5.4 -13.9 5.1 -12.25 Q5.1 -11.75 4.85 -10.6 4.55 -9.45 4.55 -9.25 L4.55 -9.2 4.5 -9.25 Q2.7 -10.25 2.25 -11.15 2.05 -11.5 2.0 -12.05 L2.0 -13.05 2.15 -13.85 2.15 -14.0 M5.7 -21.15 L5.85 -21.15 Q5.8 -20.8 6.05 -20.2 6.3 -19.55 6.3 -19.3 L6.1 -17.85 5.95 -16.9 5.9 -16.85 5.95 -17.5 5.9 -18.4 5.8 -19.65 Q5.75 -20.5 5.4 -21.05 5.55 -21.15 5.7 -21.15 M1.85 -9.8 L1.75 -9.65 1.85 -9.8 M0.9 -8.15 L0.2 -6.85 0.1 -6.85 0.9 -8.15 M-1.1 -4.55 L-1.1 -4.2 Q-1.25 -3.85 -1.4 -3.55 L-1.35 -3.85 -1.35 -4.4 -1.25 -4.35 -1.15 -4.45 -1.1 -4.55 M-4.7 -4.75 L-4.65 -4.65 Q-4.6 -4.6 -4.45 -4.6 -4.4 -4.6 -4.3 -4.65 L-4.2 -4.75 Q-4.1 -4.85 -4.1 -4.95 -4.1 -5.25 -4.4 -5.3 -4.75 -5.4 -4.75 -4.9 L-4.7 -4.75 M-3.7 -5.75 Q-3.55 -5.9 -3.55 -6.15 -3.55 -6.45 -3.75 -6.65 -3.9 -6.85 -4.1 -6.85 -4.65 -6.8 -4.65 -5.9 L-4.6 -5.7 Q-4.55 -5.5 -4.35 -5.5 -3.9 -5.5 -3.7 -5.75" fill="#8c1c1c" fill-rule="evenodd" stroke="none"/>
    <path d="M4.45 -19.75 L4.45 -19.7 4.45 -19.75 M4.65 -15.6 L4.65 -15.55 4.5 -15.4 4.65 -15.6 M2.65 -14.1 L2.65 -14.6 Q2.65 -14.7 2.75 -15.15 L3.2 -16.0 Q4.05 -17.45 4.1 -17.6 3.7 -17.3 3.25 -16.65 L2.85 -16.0 2.95 -16.5 3.0 -17.0 3.05 -17.1 Q3.75 -18.2 3.75 -18.35 3.75 -18.45 4.15 -19.2 4.25 -18.9 4.35 -18.6 4.65 -18.0 4.65 -17.5 4.65 -16.6 4.0 -15.85 3.1 -14.8 2.65 -14.2 L2.65 -14.1 M1.0 -14.0 Q0.95 -13.7 0.95 -13.55 0.95 -13.0 0.7 -12.15 L0.25 -11.3 Q-0.6 -9.9 -1.05 -9.35 L-0.25 -11.0 Q0.3 -12.2 0.3 -12.3 0.3 -12.5 0.25 -12.4 -0.15 -11.95 -1.0 -10.25 L-1.4 -9.45 Q-1.45 -9.85 -1.45 -10.1 -1.45 -10.25 -1.3 -10.6 -0.65 -11.25 0.3 -12.8 L1.0 -14.0" fill="#d9ba8d" fill-rule="evenodd" stroke="none"/>
    <path d="M4.45 -19.75 L4.45 -19.7 4.5 -19.55 4.6 -19.0 Q4.9 -17.75 4.9 -17.45 L4.9 -17.15 4.7 -15.85 4.65 -15.6 4.5 -15.4 4.4 -15.3 3.7 -14.5 3.6 -14.4 Q3.05 -13.7 2.75 -13.2 L2.75 -13.4 2.65 -14.1 2.65 -14.2 Q3.1 -14.8 4.0 -15.85 4.65 -16.6 4.65 -17.5 4.65 -18.0 4.35 -18.6 4.25 -18.9 4.15 -19.2 L4.2 -19.25 4.3 -19.4 4.3 -19.45 4.45 -19.75 M2.75 -15.15 L2.8 -15.5 2.8 -15.55 2.85 -16.0 3.25 -16.65 Q3.7 -17.3 4.1 -17.6 4.05 -17.45 3.2 -16.0 L2.75 -15.15 M1.0 -14.0 L1.0 -14.05 1.1 -14.2 1.25 -14.5 1.25 -14.4 Q1.25 -13.5 1.1 -13.05 L0.9 -12.35 -0.45 -9.35 -1.1 -8.1 -1.25 -8.7 -1.4 -9.45 -1.0 -10.25 Q-0.15 -11.95 0.25 -12.4 0.3 -12.5 0.3 -12.3 0.3 -12.2 -0.25 -11.0 L-1.05 -9.35 Q-0.6 -9.9 0.25 -11.3 L0.7 -12.15 Q0.95 -13.0 0.95 -13.55 0.95 -13.7 1.0 -14.0" fill="#806d53" fill-rule="evenodd" stroke="none"/>
  </g>
</svg>
