<?xml version="1.0" encoding="UTF-8" standalone="no"?>
<svg xmlns:ffdec="https://www.free-decompiler.com/flash" xmlns:xlink="http://www.w3.org/1999/xlink" ffdec:objectType="shape" height="54.8px" width="68.95px" xmlns="http://www.w3.org/2000/svg">
  <g transform="matrix(1.0, 0.0, 0.0, 1.0, 34.15, 43.15)">
    <path d="M33.95 -7.5 L33.55 -8.0 29.7 -12.65 Q27.65 -15.2 26.1 -16.8 22.85 -20.3 15.9 -24.65 14.3 -25.7 9.1 -28.8 4.4 -31.65 1.4 -33.6 -0.15 -34.35 -1.55 -34.8 -2.3 -35.1 -2.8 -35.3 -4.7 -36.2 -6.4 -36.65 -8.65 -37.4 -9.05 -36.95 L-11.5 -37.45 -12.55 -37.65 -12.85 -37.7 -13.1 -37.85 Q-13.2 -37.95 -13.2 -37.9 -13.55 -38.15 -14.0 -38.35 -14.25 -38.45 -14.3 -38.45 L-14.45 -38.7 -14.35 -38.85 -14.3 -39.05 Q-14.65 -39.25 -14.6 -38.8 -14.65 -38.6 -14.75 -38.4 -15.4 -38.75 -16.5 -38.85 -17.2 -39.0 -18.65 -39.05 L-20.4 -39.2 Q-21.35 -39.4 -23.4 -39.65 L-23.35 -39.85 -23.65 -40.25 Q-24.45 -40.8 -24.7 -40.8 -24.95 -40.85 -24.85 -40.5 -24.95 -40.5 -24.85 -40.35 L-24.5 -39.95 -24.05 -39.75 -25.05 -39.9 Q-27.65 -40.3 -28.0 -40.4 L-27.95 -40.0 Q-28.2 -40.3 -28.2 -40.6 -28.25 -41.0 -28.25 -41.1 L-28.4 -41.15 Q-28.45 -41.0 -28.4 -40.6 -28.4 -40.3 -28.05 -39.5 -28.05 -39.35 -27.9 -39.15 -28.1 -39.25 -28.2 -39.2 -29.15 -39.5 -29.6 -39.5 L-29.7 -39.8 -29.75 -40.2 -29.9 -40.6 -30.05 -40.65 Q-29.95 -40.85 -29.75 -40.9 -29.5 -41.25 -29.4 -41.3 -29.9 -41.8 -30.05 -41.45 -30.2 -41.25 -30.15 -40.8 -30.15 -40.6 -30.05 -40.6 -30.1 -40.5 -30.05 -40.15 -30.1 -40.0 -30.0 -39.8 -30.45 -40.6 -30.95 -41.2 -31.45 -41.85 -31.75 -42.1 -31.45 -42.3 -31.1 -42.2 L-29.95 -41.95 -29.5 -41.9 Q-29.4 -41.95 -29.05 -41.8 L-28.7 -41.6 Q-27.75 -41.25 -26.1 -41.25 L-24.15 -41.3 Q-22.7 -41.05 -19.7 -40.25 -17.2 -39.65 -16.5 -39.5 -15.1 -39.4 -12.65 -38.95 L-11.8 -39.0 Q-11.2 -38.95 -8.15 -38.2 -7.55 -38.1 -6.9 -37.9 L-6.9 -37.95 -6.8 -37.9 Q-4.35 -37.4 -3.25 -36.85 L-2.9 -36.6 Q-2.45 -36.4 -1.7 -36.0 -0.35 -35.4 1.65 -34.1 L3.8 -33.1 Q6.1 -31.65 10.5 -28.9 12.4 -27.95 14.1 -27.0 17.25 -25.3 18.65 -24.2 21.4 -22.2 24.0 -19.6 26.2 -17.4 28.5 -14.4 L29.2 -13.45 29.25 -13.5 30.55 -11.9 Q31.65 -10.7 32.35 -9.8 33.3 -8.65 33.85 -7.75 L33.95 -7.5 M-27.25 -39.35 Q-27.35 -39.4 -27.35 -39.3 L-27.65 -39.65 -27.85 -39.85 -27.4 -39.45 -27.25 -39.35 M-29.65 -37.4 L-29.6 -37.3 Q-29.75 -37.3 -29.7 -37.2 -29.75 -37.25 -29.7 -37.05 -29.8 -37.15 -29.85 -37.1 -30.1 -37.3 -30.25 -37.3 L-29.8 -37.35 Q-29.75 -37.4 -29.65 -37.4 M-30.3 -37.35 Q-30.7 -37.5 -30.85 -37.3 -31.0 -37.2 -31.0 -36.95 -31.1 -36.95 -31.05 -36.75 -31.1 -36.8 -31.05 -36.75 L-31.05 -36.7 Q-31.05 -36.5 -30.95 -36.2 L-30.9 -36.1 Q-30.9 -36.05 -30.85 -35.9 -30.9 -35.75 -30.7 -35.25 L-31.15 -35.8 -31.7 -36.7 -32.5 -37.8 Q-32.95 -38.3 -32.9 -38.35 -32.95 -38.6 -32.75 -38.75 -32.5 -39.05 -32.0 -38.75 L-31.0 -38.0 Q-30.85 -37.6 -30.3 -37.35 M-30.5 -36.4 Q-30.45 -36.95 -29.95 -36.7 L-29.5 -36.55 -28.6 -35.15 Q-28.7 -35.1 -28.65 -34.85 -28.65 -34.7 -28.45 -34.3 -28.35 -34.0 -28.3 -33.8 -28.35 -33.75 -28.3 -33.6 -29.05 -34.45 -29.6 -35.0 L-30.3 -36.2 -30.5 -36.4 M-28.3 -31.9 L-28.3 -30.15 Q-28.35 -30.05 -28.05 -29.3 -28.05 -29.0 -27.95 -28.75 -27.75 -27.35 -27.25 -25.45 L-27.2 -25.25 Q-26.65 -22.9 -26.4 -20.9 L-26.2 -19.6 Q-26.2 -19.35 -26.15 -18.7 L-25.8 -12.45 Q-25.8 -11.9 -25.7 -11.5 -25.85 -11.3 -25.9 -11.1 L-26.4 -11.8 Q-26.75 -13.45 -26.95 -15.0 -27.0 -15.75 -26.95 -16.15 -27.1 -16.6 -27.1 -16.7 -27.15 -17.0 -27.05 -17.35 L-27.8 -22.5 Q-28.45 -26.55 -28.6 -28.35 L-29.4 -32.05 Q-29.5 -32.35 -29.35 -32.5 -29.3 -32.8 -29.05 -32.75 -28.95 -32.6 -28.7 -32.25 L-28.3 -31.9 M-30.55 -34.8 Q-30.65 -34.95 -30.65 -35.0 L-30.6 -35.0 Q-30.6 -34.95 -30.55 -34.8 M1.25 -6.75 L0.8 -7.4 0.15 -8.25 -0.25 -8.75 -0.35 -8.85 -0.5 -9.05 -0.7 -9.25 -1.8 -10.75 Q-5.15 -15.4 -8.5 -18.8 -10.1 -20.45 -11.0 -21.0 -11.1 -21.1 -11.05 -21.05 -11.3 -21.35 -11.4 -21.5 -12.95 -23.35 -14.95 -24.7 -19.0 -27.6 -23.05 -31.85 -25.2 -34.1 -26.5 -35.75 -27.75 -36.3 -29.4 -38.1 -29.4 -38.25 -29.2 -38.3 -29.2 -38.4 -29.05 -38.35 -28.9 -38.3 -28.55 -38.15 -28.1 -38.0 -27.75 -37.95 L-27.4 -37.75 -27.25 -37.7 Q-27.2 -37.55 -27.0 -37.3 L-26.6 -36.9 Q-26.5 -36.6 -26.2 -36.2 -25.45 -35.05 -24.95 -34.65 L-24.9 -34.7 -25.25 -35.5 Q-24.9 -35.0 -24.3 -34.25 -23.5 -33.35 -22.3 -32.1 L-21.4 -31.2 -19.15 -29.15 Q-19.25 -29.1 -19.2 -28.9 -19.2 -28.7 -19.1 -28.6 L-18.9 -28.45 Q-18.8 -28.45 -18.65 -28.55 L-18.75 -28.8 -13.8 -24.65 Q-12.45 -23.6 -11.45 -22.65 -11.45 -22.6 -11.35 -22.35 L-10.65 -21.7 -10.65 -21.75 Q-10.7 -21.95 -10.7 -22.05 -9.95 -21.45 -9.45 -21.0 -8.15 -19.9 -7.55 -19.3 L-7.3 -19.05 Q-6.9 -17.95 -4.3 -14.85 L-3.9 -14.4 -3.75 -14.15 Q-2.1 -12.3 -1.25 -11.05 L-1.25 -11.0 -1.3 -11.0 -1.1 -10.8 1.1 -8.0 1.55 -7.45 Q1.9 -7.15 2.5 -6.35 3.0 -5.7 3.45 -4.9 3.5 -4.9 3.55 -4.85 L4.05 -4.05 3.95 -4.05 4.15 -3.7 Q4.65 -2.9 4.85 -2.3 L4.9 -2.15 5.1 -1.85 5.35 -1.15 Q5.35 -1.05 5.45 -0.85 5.45 -0.9 5.5 -0.8 L5.65 -0.4 5.7 -0.3 Q5.75 -0.1 5.85 0.2 6.55 2.3 7.35 4.5 8.0 6.35 8.35 8.15 L8.55 9.9 8.45 10.15 Q8.4 10.2 8.45 10.4 8.35 10.4 8.4 10.45 L8.35 10.65 Q8.1 8.8 7.25 6.2 L7.15 6.0 7.15 5.85 7.1 5.8 7.1 5.65 7.0 5.45 6.4 3.75 6.25 3.45 5.9 2.5 Q5.0 0.1 4.65 -1.15 4.15 -2.8 2.25 -5.4 L1.25 -6.75" fill="#8c1c1c" fill-rule="evenodd" stroke="none"/>
    <path d="M33.95 -7.5 L34.0 -7.5 34.0 -7.45 34.05 -7.4 34.25 -7.1 34.25 -7.0 Q34.2 -7.1 34.2 -7.0 L34.3 -6.75 Q34.25 -6.8 34.25 -6.7 L34.3 -6.6 34.2 -6.65 34.15 -6.65 34.15 -6.7 32.1 -9.45 31.4 -10.4 31.4 -10.45 29.8 -12.0 29.7 -12.1 Q28.75 -13.1 28.45 -13.6 28.1 -14.15 26.55 -15.5 L26.55 -15.55 Q23.65 -18.5 21.8 -20.1 L21.15 -20.6 21.0 -20.75 19.6 -21.55 Q18.55 -22.3 16.25 -24.0 14.9 -25.0 8.2 -28.7 5.2 -30.45 2.15 -32.1 L0.45 -32.9 Q0.35 -33.0 0.3 -32.95 0.25 -33.1 0.3 -33.05 L-1.3 -33.8 Q-1.4 -33.9 -1.4 -33.85 -1.55 -33.9 -1.55 -33.8 -1.6 -33.85 -1.6 -33.8 L-2.85 -34.4 -3.05 -34.75 -4.6 -35.4 Q-4.85 -35.5 -5.1 -35.5 L-6.05 -35.55 Q-11.95 -37.5 -13.85 -37.6 L-13.95 -37.7 -14.15 -38.2 -14.3 -38.45 Q-14.25 -38.45 -14.0 -38.35 -13.55 -38.15 -13.2 -37.9 -13.2 -37.95 -13.1 -37.85 L-12.85 -37.7 -12.55 -37.65 -11.5 -37.45 -9.05 -36.95 Q-8.65 -37.4 -6.4 -36.65 -4.7 -36.2 -2.8 -35.3 -2.3 -35.1 -1.55 -34.8 -0.15 -34.35 1.4 -33.6 4.4 -31.65 9.1 -28.8 14.3 -25.7 15.9 -24.65 22.85 -20.3 26.1 -16.8 27.65 -15.2 29.7 -12.65 L33.55 -8.0 33.95 -7.5 M-14.75 -38.4 Q-15.1 -38.05 -15.95 -37.65 -17.4 -37.15 -18.55 -37.6 L-18.9 -37.85 -18.95 -37.9 Q-19.2 -38.2 -19.3 -38.2 -19.4 -38.3 -19.35 -38.25 -19.4 -38.3 -19.4 -38.25 L-21.0 -38.5 -21.2 -38.5 -21.45 -38.55 -21.6 -38.55 -21.7 -38.55 -21.75 -38.55 -21.8 -38.6 -21.85 -38.6 -21.85 -38.55 Q-21.85 -38.6 -21.9 -38.6 L-22.4 -38.6 -23.9 -38.75 Q-25.1 -39.1 -25.7 -39.2 L-26.5 -39.35 -27.25 -39.35 -27.4 -39.45 -27.85 -39.85 -27.95 -40.0 -28.0 -40.4 Q-27.65 -40.3 -25.05 -39.9 L-24.05 -39.75 -24.5 -39.95 -24.85 -40.35 Q-24.95 -40.5 -24.85 -40.5 -24.95 -40.85 -24.7 -40.8 -24.45 -40.8 -23.65 -40.25 L-23.35 -39.85 -23.4 -39.65 Q-21.35 -39.4 -20.4 -39.2 L-18.65 -39.05 Q-17.2 -39.0 -16.5 -38.85 -15.4 -38.75 -14.75 -38.4 M-27.9 -39.15 L-27.8 -38.9 Q-27.9 -38.85 -27.8 -38.65 L-27.8 -38.25 -28.3 -38.35 -28.7 -38.5 Q-28.85 -38.55 -28.95 -38.55 L-28.95 -38.75 -29.15 -38.95 Q-29.4 -39.15 -29.5 -39.35 L-29.6 -39.5 Q-29.15 -39.5 -28.2 -39.2 -28.1 -39.25 -27.9 -39.15 M-30.0 -39.8 Q-30.0 -39.65 -29.9 -39.45 -29.8 -39.1 -29.65 -38.85 L-29.55 -38.65 Q-29.65 -38.7 -29.65 -38.55 -29.8 -38.5 -29.75 -38.3 -29.8 -38.2 -29.75 -37.8 L-29.7 -37.75 Q-29.75 -37.7 -29.7 -37.5 L-29.65 -37.4 Q-29.75 -37.4 -29.8 -37.35 L-30.25 -37.3 -30.3 -37.35 Q-30.85 -37.6 -31.0 -38.0 L-32.0 -38.75 Q-32.5 -39.05 -32.75 -38.75 -32.95 -38.6 -32.9 -38.35 -32.95 -38.3 -32.5 -37.8 L-31.7 -36.7 -31.15 -35.8 -32.25 -36.9 -33.15 -37.75 Q-33.45 -38.05 -33.55 -38.3 L-33.6 -38.75 -33.7 -39.35 Q-33.8 -40.25 -33.55 -40.7 -33.4 -41.2 -32.7 -41.6 -32.7 -41.7 -32.55 -41.7 -32.25 -42.0 -32.05 -42.05 -32.05 -42.1 -31.95 -42.05 L-31.85 -42.1 -31.75 -42.1 Q-31.45 -41.85 -30.95 -41.2 -30.45 -40.6 -30.0 -39.8 M-30.9 -36.1 Q-30.8 -35.85 -30.65 -35.65 L-30.5 -35.65 Q-30.5 -35.7 -30.45 -35.65 -30.5 -35.75 -30.5 -36.35 -30.55 -36.4 -30.5 -36.35 -30.55 -36.45 -30.5 -36.4 L-30.3 -36.2 -29.6 -35.0 Q-29.05 -34.45 -28.3 -33.6 -28.35 -33.3 -28.3 -32.35 -28.35 -32.2 -28.3 -31.9 -28.35 -31.95 -28.3 -31.9 L-28.7 -32.25 Q-28.95 -32.6 -29.05 -32.75 -29.3 -32.8 -29.35 -32.5 -29.5 -32.35 -29.4 -32.05 L-28.6 -28.35 Q-28.45 -26.55 -27.8 -22.5 L-27.05 -17.35 Q-27.15 -17.0 -27.1 -16.7 -27.1 -16.6 -26.95 -16.15 -27.0 -15.75 -26.95 -15.0 -26.75 -13.45 -26.4 -11.8 L-25.9 -11.1 Q-25.85 -11.3 -25.7 -11.5 -25.75 -11.4 -25.65 -11.25 -25.65 -10.9 -25.5 -10.6 -25.55 -10.55 -25.5 -10.45 -25.55 -10.3 -25.55 -10.2 L-25.7 -10.45 Q-25.9 -9.15 -26.25 -8.5 -26.35 -8.3 -26.3 -8.2 -26.3 -7.95 -26.45 -7.45 -26.5 -7.45 -26.5 -7.4 -26.75 -7.3 -26.7 -7.05 -26.75 -7.0 -26.65 -6.95 -26.8 -6.8 -26.85 -6.6 -27.1 -6.2 -27.1 -6.05 L-27.15 -6.05 -27.15 -6.3 Q-27.25 -6.8 -27.0 -8.5 -26.8 -10.3 -27.0 -12.6 L-27.1 -13.0 -26.9 -12.8 -26.9 -13.25 -27.0 -13.4 -27.15 -13.6 -27.6 -14.05 -27.75 -14.25 -27.75 -14.3 -27.45 -14.7 -27.45 -15.05 Q-27.5 -15.1 -27.45 -15.1 L-27.5 -15.6 Q-27.55 -15.85 -27.55 -16.0 L-27.8 -15.95 -27.9 -16.05 Q-27.95 -16.1 -27.95 -16.3 -28.0 -16.45 -27.75 -16.8 -27.7 -16.95 -27.55 -17.05 -27.65 -17.4 -27.6 -17.65 L-27.7 -20.05 Q-27.8 -20.15 -28.05 -22.1 L-28.35 -23.75 Q-29.0 -27.7 -29.05 -28.6 -29.15 -28.7 -29.1 -28.7 -29.25 -29.9 -29.65 -31.1 -29.75 -31.3 -29.7 -31.4 -30.0 -32.55 -29.95 -33.05 -30.0 -33.2 -30.0 -33.25 -30.05 -33.4 -30.0 -33.45 L-30.05 -33.45 Q-30.1 -33.55 -30.05 -33.5 L-30.05 -33.55 Q-30.2 -34.15 -30.45 -34.65 L-30.5 -34.8 -30.55 -34.8 Q-30.6 -34.95 -30.6 -35.0 -30.6 -35.05 -30.55 -35.05 L-30.5 -35.1 -30.6 -35.15 -30.7 -35.25 Q-30.9 -35.75 -30.85 -35.9 -30.9 -36.05 -30.9 -36.1 M-0.7 -9.25 L-0.95 -9.6 Q-2.1 -10.95 -2.85 -11.8 L-3.7 -12.8 Q-3.75 -12.85 -3.7 -12.8 L-4.05 -13.2 -4.5 -13.75 Q-5.35 -14.55 -5.9 -15.2 L-6.65 -16.0 -6.95 -16.3 Q-7.45 -16.85 -7.7 -17.1 -7.75 -17.15 -7.7 -17.1 L-8.2 -17.6 Q-8.25 -17.65 -8.2 -17.6 L-9.3 -18.6 -9.55 -18.8 Q-10.25 -19.45 -11.1 -20.15 L-11.65 -20.6 -11.65 -20.65 -12.4 -21.4 Q-13.2 -22.2 -15.0 -23.85 -16.7 -25.35 -17.3 -26.0 -17.85 -26.6 -19.75 -28.25 L-22.45 -30.55 Q-22.9 -30.95 -23.5 -31.7 L-24.7 -33.05 Q-25.75 -34.3 -26.45 -34.7 -26.7 -35.05 -27.05 -35.3 -27.5 -35.55 -27.65 -35.5 -27.85 -35.65 -27.95 -35.65 L-28.8 -36.35 -28.95 -36.5 -28.95 -36.6 Q-29.0 -36.75 -29.2 -37.25 -29.5 -37.85 -29.5 -37.95 -29.55 -38.1 -29.4 -38.1 -27.75 -36.3 -26.5 -35.75 -25.2 -34.1 -23.05 -31.85 -19.0 -27.6 -14.95 -24.7 -12.95 -23.35 -11.4 -21.5 -11.3 -21.35 -11.05 -21.05 -11.1 -21.1 -11.0 -21.0 -10.1 -20.45 -8.5 -18.8 -5.15 -15.4 -1.8 -10.75 L-0.7 -9.25 M-19.15 -29.15 L-18.85 -28.9 -18.75 -28.8 -18.65 -28.55 Q-18.8 -28.45 -18.9 -28.45 L-19.1 -28.6 Q-19.2 -28.7 -19.2 -28.9 -19.25 -29.1 -19.15 -29.15 M-11.45 -22.65 L-10.7 -22.05 Q-10.7 -21.95 -10.65 -21.75 L-10.65 -21.7 -11.35 -22.35 Q-11.45 -22.6 -11.45 -22.65 M8.35 10.65 L8.3 10.8 Q8.15 9.0 7.15 6.0 L7.25 6.2 Q8.1 8.8 8.35 10.65 M6.25 3.45 Q5.6 2.1 4.8 0.2 L4.75 0.1 Q4.5 -0.75 4.0 -1.7 L3.95 -1.8 Q3.45 -2.9 3.15 -3.6 L2.7 -4.35 Q2.65 -4.4 2.7 -4.35 L2.65 -4.55 1.75 -6.1 1.7 -6.1 1.25 -6.75 2.25 -5.4 Q4.15 -2.8 4.65 -1.15 5.0 0.1 5.9 2.5 L6.25 3.45" fill="#4d0f0f" fill-rule="evenodd" stroke="none"/>
    <path d="M-14.3 -38.45 L-14.15 -38.2 -13.95 -37.7 -13.85 -37.6 Q-11.95 -37.5 -6.05 -35.55 L-5.1 -35.5 Q-4.85 -35.5 -4.6 -35.4 L-3.05 -34.75 -2.85 -34.4 -1.6 -33.8 Q-1.6 -33.85 -1.55 -33.8 -1.55 -33.9 -1.4 -33.85 -1.4 -33.9 -1.3 -33.8 L0.3 -33.05 Q0.25 -33.1 0.3 -32.95 0.35 -33.0 0.45 -32.9 L2.15 -32.1 Q5.2 -30.45 8.2 -28.7 14.9 -25.0 16.25 -24.0 18.55 -22.3 19.6 -21.55 L21.0 -20.75 21.15 -20.6 21.8 -20.1 Q23.65 -18.5 26.55 -15.55 L26.55 -15.5 Q28.1 -14.15 28.45 -13.6 28.75 -13.1 29.7 -12.1 L29.8 -12.0 31.4 -10.45 31.4 -10.4 32.1 -9.45 34.15 -6.7 34.15 -6.65 34.2 -6.65 34.3 -6.6 34.25 -6.7 Q34.25 -6.8 34.3 -6.75 L34.2 -7.0 Q34.2 -7.1 34.25 -7.0 L34.25 -7.1 34.05 -7.4 34.0 -7.45 34.0 -7.5 33.95 -7.5 33.85 -7.75 Q33.3 -8.65 32.35 -9.8 31.65 -10.7 30.55 -11.9 L29.25 -13.5 29.2 -13.45 28.5 -14.4 Q26.2 -17.4 24.0 -19.6 21.4 -22.2 18.65 -24.2 17.25 -25.3 14.1 -27.0 12.4 -27.95 10.5 -28.9 6.1 -31.65 3.8 -33.1 L1.65 -34.1 Q-0.35 -35.4 -1.7 -36.0 -2.45 -36.4 -2.9 -36.6 L-3.25 -36.85 Q-4.35 -37.4 -6.8 -37.9 L-6.9 -37.95 -6.9 -37.9 Q-7.55 -38.1 -8.15 -38.2 -11.2 -38.95 -11.8 -39.0 L-12.65 -38.95 Q-15.1 -39.4 -16.5 -39.5 -17.2 -39.65 -19.7 -40.25 -22.7 -41.05 -24.15 -41.3 L-26.1 -41.25 Q-27.75 -41.25 -28.7 -41.6 L-29.05 -41.8 Q-29.4 -41.95 -29.5 -41.9 L-29.95 -41.95 -31.1 -42.2 Q-31.45 -42.3 -31.75 -42.1 L-31.85 -42.1 -31.95 -42.05 Q-32.05 -42.1 -32.05 -42.05 -32.25 -42.0 -32.55 -41.7 -32.7 -41.7 -32.7 -41.6 -33.4 -41.2 -33.55 -40.7 -33.8 -40.25 -33.7 -39.35 L-33.6 -38.75 -33.55 -38.3 Q-33.45 -38.05 -33.15 -37.75 L-32.25 -36.9 -31.15 -35.8 -30.7 -35.25 -30.6 -35.15 -30.5 -35.1 -30.55 -35.05 Q-30.6 -35.05 -30.6 -35.0 L-30.65 -35.0 Q-30.65 -34.95 -30.55 -34.8 L-30.5 -34.8 -30.45 -34.65 Q-30.2 -34.15 -30.05 -33.55 L-30.05 -33.5 Q-30.1 -33.55 -30.05 -33.45 L-30.0 -33.45 Q-30.05 -33.4 -30.0 -33.25 -30.0 -33.2 -29.95 -33.05 -30.0 -32.55 -29.7 -31.4 -29.75 -31.3 -29.65 -31.1 -29.25 -29.9 -29.1 -28.7 -29.15 -28.7 -29.05 -28.6 -29.0 -27.7 -28.35 -23.75 L-28.05 -22.1 Q-27.8 -20.15 -27.7 -20.05 L-27.6 -17.65 Q-27.65 -17.4 -27.55 -17.05 -27.7 -16.95 -27.75 -16.8 -28.0 -16.45 -27.95 -16.3 -27.95 -16.1 -27.9 -16.05 L-27.8 -15.95 -27.55 -16.0 Q-27.55 -15.85 -27.5 -15.6 L-27.45 -15.1 Q-27.5 -15.1 -27.45 -15.05 L-27.45 -14.7 -27.75 -14.3 -27.75 -14.25 -27.6 -14.05 -27.15 -13.6 -27.0 -13.4 -26.9 -13.25 -26.9 -12.8 -27.1 -13.0 -27.0 -12.6 Q-26.8 -10.3 -27.0 -8.5 -27.25 -6.8 -27.15 -6.3 L-27.15 -6.05 -27.1 -6.05 Q-27.1 -6.2 -26.85 -6.6 -26.8 -6.8 -26.65 -6.95 -26.75 -7.0 -26.7 -7.05 -26.75 -7.3 -26.5 -7.4 -26.5 -7.45 -26.45 -7.45 -26.3 -7.95 -26.3 -8.2 -26.35 -8.3 -26.25 -8.5 -25.9 -9.15 -25.7 -10.45 L-25.55 -10.2 Q-25.55 -10.3 -25.5 -10.45 -25.55 -10.55 -25.5 -10.6 -25.65 -10.9 -25.65 -11.25 -25.75 -11.4 -25.7 -11.5 -25.8 -11.9 -25.8 -12.45 L-26.15 -18.7 Q-26.2 -19.35 -26.2 -19.6 L-26.4 -20.9 Q-26.65 -22.9 -27.2 -25.25 L-27.25 -25.45 Q-27.75 -27.35 -27.95 -28.75 -28.05 -29.0 -28.05 -29.3 -28.35 -30.05 -28.3 -30.15 L-28.3 -31.9 Q-28.35 -31.95 -28.3 -31.9 -28.35 -32.2 -28.3 -32.35 -28.35 -33.3 -28.3 -33.6 -28.35 -33.75 -28.3 -33.8 -28.35 -34.0 -28.45 -34.3 -28.65 -34.7 -28.65 -34.85 -28.7 -35.1 -28.6 -35.15 L-29.5 -36.55 -29.95 -36.7 Q-30.45 -36.95 -30.5 -36.4 -30.55 -36.45 -30.5 -36.35 -30.55 -36.4 -30.5 -36.35 -30.5 -35.75 -30.45 -35.65 -30.5 -35.7 -30.5 -35.65 L-30.65 -35.65 Q-30.8 -35.85 -30.9 -36.1 L-30.95 -36.2 Q-31.05 -36.5 -31.05 -36.7 L-31.05 -36.75 Q-31.1 -36.8 -31.05 -36.75 -31.1 -36.95 -31.0 -36.95 -31.0 -37.2 -30.85 -37.3 -30.7 -37.5 -30.3 -37.35 L-30.25 -37.3 Q-30.1 -37.3 -29.85 -37.1 -29.8 -37.15 -29.7 -37.05 -29.75 -37.25 -29.7 -37.2 -29.75 -37.3 -29.6 -37.3 L-29.65 -37.4 -29.7 -37.5 Q-29.75 -37.7 -29.7 -37.75 L-29.75 -37.8 Q-29.8 -38.2 -29.75 -38.3 -29.8 -38.5 -29.65 -38.55 -29.65 -38.7 -29.55 -38.65 L-29.65 -38.85 Q-29.8 -39.1 -29.9 -39.45 -30.0 -39.65 -30.0 -39.8 -30.1 -40.0 -30.05 -40.15 -30.1 -40.5 -30.05 -40.6 -30.15 -40.6 -30.15 -40.8 -30.2 -41.25 -30.05 -41.45 -29.9 -41.8 -29.4 -41.3 -29.5 -41.25 -29.75 -40.9 -29.95 -40.85 -30.05 -40.65 L-29.9 -40.6 -29.75 -40.2 -29.7 -39.8 -29.6 -39.5 -29.5 -39.35 Q-29.4 -39.15 -29.15 -38.95 L-28.95 -38.75 -28.95 -38.55 Q-28.85 -38.55 -28.7 -38.5 L-28.3 -38.35 -27.8 -38.25 -27.8 -38.65 Q-27.9 -38.85 -27.8 -38.9 L-27.9 -39.15 Q-28.05 -39.35 -28.05 -39.5 -28.4 -40.3 -28.4 -40.6 -28.45 -41.0 -28.4 -41.15 L-28.25 -41.1 Q-28.25 -41.0 -28.2 -40.6 -28.2 -40.3 -27.95 -40.0 L-27.85 -39.85 -27.65 -39.65 -27.35 -39.3 Q-27.35 -39.4 -27.25 -39.35 L-26.5 -39.35 -25.7 -39.2 Q-25.1 -39.1 -23.9 -38.75 L-22.4 -38.6 -21.9 -38.6 Q-21.85 -38.6 -21.85 -38.55 L-21.85 -38.6 -21.8 -38.6 -21.75 -38.55 -21.7 -38.55 -21.6 -38.55 -21.45 -38.55 -21.2 -38.5 -21.0 -38.5 -19.4 -38.25 Q-19.4 -38.3 -19.35 -38.25 -19.4 -38.3 -19.3 -38.2 -19.2 -38.2 -18.95 -37.9 L-18.9 -37.85 -18.55 -37.6 Q-17.4 -37.15 -15.95 -37.65 -15.1 -38.05 -14.75 -38.4 -14.65 -38.6 -14.6 -38.8 -14.65 -39.25 -14.3 -39.05 L-14.35 -38.85 -14.45 -38.7 -14.3 -38.45 M8.7 8.25 Q8.7 8.35 8.75 8.45 8.75 8.5 8.8 8.6 L8.8 8.55 8.85 8.65 8.9 8.85 8.9 8.95 Q8.9 9.0 8.9 9.1 8.95 9.2 9.0 9.4 8.95 9.4 8.9 9.5 8.9 9.55 8.9 9.65 L8.95 9.75 Q8.85 10.1 8.85 10.3 L8.65 10.9 Q8.5 11.05 8.3 11.45 8.2 11.55 8.1 11.65 7.85 11.35 7.8 10.45 7.75 10.2 7.75 9.9 L7.75 9.8 Q7.7 9.5 7.7 9.2 7.7 9.05 7.7 8.9 L7.35 7.6 Q7.3 7.45 7.3 7.35 7.05 6.75 6.7 5.75 L5.55 3.0 5.15 1.9 Q4.9 1.2 4.75 0.9 4.45 0.1 4.35 -0.35 L3.7 -1.55 2.85 -3.1 Q2.45 -3.4 2.3 -3.8 L2.25 -4.05 Q2.0 -4.65 1.5 -5.5 L0.75 -6.65 0.4 -7.2 Q-0.1 -7.9 -0.45 -8.3 -1.05 -8.9 -2.35 -10.3 L-2.4 -10.45 -2.4 -10.55 -2.95 -11.1 -3.65 -11.9 -3.7 -11.9 -4.0 -12.2 Q-4.05 -12.2 -4.0 -12.1 -4.45 -12.8 -5.25 -13.8 -5.6 -14.25 -6.35 -15.1 L-8.4 -17.05 -9.6 -18.2 -10.6 -19.0 -10.75 -19.0 -10.8 -19.1 -10.9 -19.2 Q-10.9 -19.25 -10.8 -19.2 L-11.0 -19.4 -11.15 -19.65 -11.55 -20.1 -13.05 -21.6 -13.7 -22.2 Q-14.7 -23.05 -16.3 -24.25 L-17.8 -25.5 -17.8 -25.55 -17.95 -25.65 -18.0 -25.7 -18.0 -25.75 -18.1 -25.8 -18.25 -25.95 -22.1 -29.55 -22.2 -29.65 -22.25 -29.65 -23.1 -30.5 Q-25.95 -33.15 -26.7 -34.15 L-27.4 -34.65 Q-27.6 -34.25 -27.75 -33.4 -27.95 -32.7 -28.0 -32.2 -28.05 -32.1 -28.0 -31.9 -27.95 -31.15 -27.7 -30.3 -27.5 -29.5 -27.45 -29.0 L-27.1 -27.5 Q-27.1 -27.2 -27.0 -26.9 L-26.6 -24.85 Q-26.65 -24.6 -26.5 -24.1 -26.55 -24.15 -26.5 -24.05 -26.55 -24.1 -26.5 -24.05 -26.55 -23.95 -26.45 -23.75 -26.5 -23.7 -26.45 -23.6 -26.45 -23.5 -26.4 -23.25 -26.4 -23.3 -26.4 -23.25 L-26.3 -22.75 Q-26.25 -22.45 -26.1 -22.15 L-26.2 -22.2 Q-26.25 -22.2 -26.15 -22.1 L-25.95 -20.8 -25.85 -20.0 Q-25.9 -19.85 -25.85 -19.55 -25.8 -18.55 -25.7 -17.55 -25.75 -17.45 -25.7 -17.2 L-25.65 -17.2 Q-25.7 -17.1 -25.65 -16.9 -25.75 -16.8 -25.7 -16.55 -25.7 -16.45 -25.65 -16.25 L-25.65 -16.1 Q-25.55 -15.35 -25.35 -14.25 L-25.35 -14.05 Q-25.4 -14.05 -25.35 -13.95 L-25.3 -13.9 Q-25.35 -13.85 -25.35 -13.65 -25.35 -12.85 -25.3 -12.15 -25.3 -11.1 -25.15 -10.3 L-25.0 -9.65 Q-25.0 -9.5 -25.1 -9.35 -25.25 -9.25 -25.35 -9.25 -25.4 -9.25 -25.4 -9.2 L-25.55 -9.25 -25.65 -8.8 -25.9 -7.7 Q-26.25 -7.15 -26.45 -6.3 -26.5 -6.25 -26.45 -6.15 L-26.55 -5.85 Q-27.0 -5.05 -27.4 -5.15 -27.65 -5.25 -27.65 -5.3 L-27.7 -5.35 Q-27.75 -5.45 -27.75 -5.55 L-27.55 -8.3 Q-27.4 -11.1 -27.55 -12.8 L-27.6 -13.25 Q-27.65 -13.45 -27.55 -13.55 L-27.8 -13.8 Q-28.1 -14.05 -28.0 -14.15 -28.1 -14.3 -27.95 -14.5 L-27.85 -14.9 Q-27.95 -15.25 -28.2 -15.5 -28.6 -15.85 -28.6 -16.0 -28.65 -16.05 -28.3 -16.85 -28.0 -17.75 -28.0 -17.9 -28.05 -18.0 -28.2 -19.15 -28.45 -20.35 -28.45 -20.9 -28.55 -21.45 -28.5 -22.6 -28.6 -23.75 -28.55 -23.85 L-29.2 -27.1 Q-29.55 -28.65 -29.7 -29.55 L-29.8 -29.6 Q-30.0 -30.3 -30.1 -31.2 L-30.35 -32.8 -30.45 -33.25 Q-30.85 -35.15 -31.65 -35.75 -31.9 -35.95 -32.25 -36.1 -32.55 -36.3 -32.55 -36.5 -33.9 -37.65 -34.15 -39.65 -34.15 -39.75 -34.1 -39.75 -34.15 -39.85 -34.1 -39.85 -34.15 -39.95 -34.15 -40.0 L-34.15 -40.1 -34.1 -40.1 -34.1 -40.45 -34.05 -40.55 Q-34.0 -40.85 -33.85 -41.1 -33.55 -42.0 -32.9 -42.55 -32.1 -43.3 -31.0 -43.1 -30.35 -43.05 -29.55 -42.6 -28.9 -42.65 -27.95 -42.15 -26.7 -42.1 -24.8 -41.75 -22.2 -41.4 -20.95 -41.05 -19.0 -40.55 -16.4 -40.05 -13.4 -39.6 -11.45 -39.25 L-6.9 -38.6 Q-5.65 -38.45 -4.6 -38.1 -3.4 -37.6 -1.95 -36.85 L-0.65 -36.1 Q1.65 -34.9 4.3 -33.35 L5.95 -32.4 Q6.85 -31.8 7.65 -31.25 8.2 -31.0 9.25 -30.45 11.75 -28.95 13.95 -27.5 18.0 -24.9 19.45 -23.9 22.2 -22.1 23.2 -21.25 23.95 -20.55 24.75 -19.65 25.7 -18.65 27.0 -17.05 L28.95 -14.7 Q31.3 -12.1 32.35 -10.85 L32.4 -10.8 33.15 -9.7 34.1 -7.9 34.75 -6.85 34.75 -6.8 34.8 -6.1 34.65 -5.85 Q34.55 -5.75 34.4 -5.8 L34.35 -5.8 33.75 -6.6 33.65 -6.85 33.55 -6.9 33.15 -7.45 32.8 -7.85 Q31.85 -9.05 31.5 -9.35 L31.35 -9.5 31.25 -9.5 Q30.95 -9.85 30.6 -10.0 L30.55 -10.05 30.75 -10.1 Q30.2 -10.65 29.7 -11.2 28.85 -12.25 28.4 -12.95 28.15 -13.3 26.4 -14.9 L24.15 -17.1 23.25 -18.0 22.6 -18.5 Q20.2 -20.4 17.95 -22.0 L17.75 -22.15 17.45 -22.35 17.2 -22.35 Q16.65 -22.6 16.6 -22.9 L16.55 -23.0 14.95 -24.15 Q13.9 -24.85 12.95 -25.45 L9.65 -27.05 9.6 -27.05 9.0 -27.35 Q8.75 -27.6 6.85 -28.6 4.35 -29.95 3.3 -30.55 L-0.65 -32.3 Q-1.45 -32.95 -2.3 -33.35 -3.5 -33.95 -4.25 -33.9 -4.85 -34.2 -5.35 -34.3 -6.25 -34.65 -7.05 -34.9 L-8.45 -35.1 -10.05 -35.8 -9.95 -35.8 Q-12.25 -36.5 -13.8 -36.7 -14.7 -36.95 -15.7 -37.0 L-16.05 -37.0 Q-18.4 -37.0 -20.3 -37.8 -22.25 -38.65 -24.4 -38.65 -26.0 -38.7 -26.7 -38.25 -26.15 -37.45 -25.75 -36.6 -25.8 -36.6 -25.7 -36.5 -24.65 -34.9 -22.8 -33.15 -22.7 -33.0 -20.85 -31.3 -20.85 -31.35 -20.75 -31.25 L-20.2 -30.75 -17.95 -28.75 -14.4 -25.55 Q-14.1 -25.2 -13.65 -25.0 -13.7 -25.05 -13.6 -25.0 -13.65 -25.0 -13.65 -24.9 -13.35 -24.65 -13.1 -24.4 -10.55 -22.15 -9.55 -21.5 -9.1 -21.25 -8.6 -20.9 L-8.6 -20.95 Q-8.45 -20.95 -8.2 -20.8 -8.0 -20.6 -7.6 -20.3 L-7.5 -20.25 -7.5 -20.2 Q-7.4 -20.0 -7.15 -19.7 L-7.25 -19.75 Q-6.5 -19.05 -6.0 -18.2 L-5.35 -16.95 Q-5.2 -16.7 -4.85 -16.15 -4.9 -16.2 -4.85 -16.15 L-4.85 -16.1 -4.55 -15.6 -2.9 -13.7 -1.65 -12.0 -1.2 -11.55 -0.35 -10.5 Q-0.2 -10.15 0.0 -9.85 0.3 -9.5 0.65 -9.25 0.9 -8.95 1.15 -8.6 L3.05 -6.45 Q3.05 -6.35 3.15 -6.15 L3.5 -5.7 Q3.6 -5.65 3.8 -5.5 L3.85 -5.45 Q3.8 -5.45 3.9 -5.35 L4.1 -5.2 Q4.4 -4.25 5.5 -1.8 L5.85 -1.15 Q5.8 -1.2 5.85 -1.15 5.8 -1.15 5.8 -1.05 L6.0 -0.5 6.05 -0.4 6.65 1.05 Q7.15 2.8 7.55 3.8 L7.9 4.65 8.1 5.45 8.55 7.4 Q8.55 7.5 8.6 7.7 L8.7 8.25 M-0.7 -9.25 L-0.5 -9.05 -0.35 -8.85 -0.25 -8.75 0.15 -8.25 0.8 -7.4 1.25 -6.75 1.7 -6.1 1.75 -6.1 2.65 -4.55 2.7 -4.35 Q2.65 -4.4 2.7 -4.35 L3.15 -3.6 Q3.45 -2.9 3.95 -1.8 L4.0 -1.7 Q4.5 -0.75 4.75 0.1 L4.8 0.2 Q5.6 2.1 6.25 3.45 L6.4 3.75 7.0 5.45 7.1 5.65 7.1 5.8 7.15 5.85 7.15 6.0 Q8.15 9.0 8.3 10.8 L8.35 10.65 8.4 10.45 Q8.35 10.4 8.45 10.4 8.4 10.2 8.45 10.15 L8.55 9.9 8.35 8.15 Q8.0 6.35 7.35 4.5 6.55 2.3 5.85 0.2 5.75 -0.1 5.7 -0.3 L5.65 -0.4 5.5 -0.8 Q5.45 -0.9 5.45 -0.85 5.35 -1.05 5.35 -1.15 L5.1 -1.85 4.9 -2.15 4.85 -2.3 Q4.65 -2.9 4.15 -3.7 L3.95 -4.05 4.05 -4.05 3.55 -4.85 Q3.5 -4.9 3.45 -4.9 3.0 -5.7 2.5 -6.35 1.9 -7.15 1.55 -7.45 L1.1 -8.0 -1.1 -10.8 -1.3 -11.0 -1.25 -11.0 -1.25 -11.05 Q-2.1 -12.3 -3.75 -14.15 L-3.9 -14.4 -4.3 -14.85 Q-6.9 -17.95 -7.3 -19.05 L-7.55 -19.3 Q-8.15 -19.9 -9.45 -21.0 -9.95 -21.45 -10.7 -22.05 L-11.45 -22.65 Q-12.45 -23.6 -13.8 -24.65 L-18.75 -28.8 -18.85 -28.9 -19.15 -29.15 -21.4 -31.2 -22.3 -32.1 Q-23.5 -33.35 -24.3 -34.25 -24.9 -35.0 -25.25 -35.5 L-24.9 -34.7 -24.95 -34.65 Q-25.45 -35.05 -26.2 -36.2 -26.5 -36.6 -26.6 -36.9 L-27.0 -37.3 Q-27.2 -37.55 -27.25 -37.7 L-27.4 -37.75 -27.75 -37.95 Q-28.1 -38.0 -28.55 -38.15 -28.9 -38.3 -29.05 -38.35 -29.2 -38.4 -29.2 -38.3 -29.4 -38.25 -29.4 -38.1 -29.55 -38.1 -29.5 -37.95 -29.5 -37.85 -29.2 -37.25 -29.0 -36.75 -28.95 -36.6 L-28.95 -36.5 -28.8 -36.35 -27.95 -35.65 Q-27.85 -35.65 -27.65 -35.5 -27.5 -35.55 -27.05 -35.3 -26.7 -35.05 -26.45 -34.7 -25.75 -34.3 -24.7 -33.05 L-23.5 -31.7 Q-22.9 -30.95 -22.45 -30.55 L-19.75 -28.25 Q-17.85 -26.6 -17.3 -26.0 -16.7 -25.35 -15.0 -23.85 -13.2 -22.2 -12.4 -21.4 L-11.65 -20.65 -11.65 -20.6 -11.1 -20.15 Q-10.25 -19.45 -9.55 -18.8 L-9.3 -18.6 -8.2 -17.6 Q-8.25 -17.65 -8.2 -17.6 L-7.7 -17.1 Q-7.75 -17.15 -7.7 -17.1 -7.45 -16.85 -6.95 -16.3 L-6.65 -16.0 -5.9 -15.2 Q-5.35 -14.55 -4.5 -13.75 L-4.05 -13.2 -3.7 -12.8 Q-3.75 -12.85 -3.7 -12.8 L-2.85 -11.8 Q-2.1 -10.95 -0.95 -9.6 L-0.7 -9.25" fill="#111111" fill-rule="evenodd" stroke="none"/>
    <path d="M8.7 8.25 Q9.6 6.5 11.95 3.85 13.2 2.45 14.55 1.15 15.75 0.0 16.15 -0.2 16.25 -0.35 16.8 -0.55 17.0 -1.6 17.4 -2.1 17.9 -3.0 18.7 -2.65 18.7 -4.15 18.95 -4.65 19.4 -6.1 21.1 -5.4 21.45 -5.3 21.8 -5.0 L22.05 -4.75 Q22.55 -4.6 23.6 -4.35 23.95 -4.25 24.1 -3.9 24.75 -4.25 25.4 -4.45 30.6 -6.7 32.75 -7.1 L32.6 -7.1 32.4 -7.5 32.35 -7.65 32.55 -7.6 32.5 -7.75 Q32.0 -8.4 31.8 -8.65 L31.3 -9.05 31.15 -9.2 Q30.0 -10.3 28.15 -12.2 L25.1 -15.65 24.3 -16.4 23.25 -17.35 Q21.85 -18.5 19.85 -19.9 15.9 -22.75 14.1 -23.5 13.3 -23.95 11.7 -25.05 10.05 -26.3 8.15 -27.15 8.0 -27.25 6.3 -27.85 4.75 -28.5 3.75 -28.85 3.05 -29.15 1.75 -29.55 0.65 -29.95 0.55 -29.95 -0.1 -30.3 -0.8 -30.95 -1.6 -31.65 -3.05 -32.3 -3.9 -32.7 -5.2 -33.05 L-6.45 -33.4 -6.65 -33.5 -7.15 -33.6 Q-7.3 -33.75 -7.4 -33.9 -7.55 -34.15 -7.65 -34.15 -8.2 -34.45 -8.75 -34.5 L-8.75 -34.6 -8.7 -34.2 Q-8.75 -34.0 -8.85 -33.85 L-9.4 -33.85 Q-9.9 -34.05 -10.0 -34.5 L-10.05 -34.6 Q-10.1 -34.7 -10.1 -34.65 L-10.75 -34.65 Q-10.9 -34.35 -11.3 -34.05 -11.9 -33.85 -12.25 -34.0 -12.85 -34.3 -12.95 -34.75 -13.05 -34.95 -13.0 -35.05 L-14.7 -34.8 -14.7 -34.85 Q-14.75 -35.45 -15.2 -35.65 -15.7 -35.9 -15.65 -35.3 -15.75 -35.15 -15.65 -35.0 -15.6 -34.8 -15.25 -34.6 L-14.9 -34.6 Q-14.85 -34.65 -14.75 -34.65 -14.65 -34.35 -14.6 -33.85 -14.65 -33.55 -14.85 -33.35 -15.1 -33.25 -15.4 -33.35 -16.4 -33.85 -16.55 -34.6 L-16.95 -34.55 -16.95 -34.7 Q-16.95 -35.35 -17.6 -35.55 -18.35 -35.85 -18.3 -35.2 -18.3 -34.7 -17.8 -34.4 -18.1 -34.35 -18.25 -34.25 -18.3 -34.25 -18.25 -34.2 -17.95 -33.75 -17.9 -33.15 -17.9 -32.8 -18.0 -32.6 -18.25 -32.4 -18.95 -32.65 -19.25 -32.85 -19.45 -33.0 L-19.5 -33.0 Q-19.6 -33.1 -19.7 -33.05 -19.9 -33.4 -20.1 -33.45 -20.45 -33.55 -20.4 -33.1 L-20.2 -32.8 Q-20.4 -32.65 -20.35 -32.45 -20.6 -32.6 -20.8 -32.5 -21.15 -32.55 -21.1 -32.2 -21.15 -32.2 -21.0 -32.0 L-20.7 -31.65 Q-20.4 -31.65 -20.25 -31.75 -20.25 -31.85 -20.2 -31.85 -20.1 -31.6 -19.85 -31.45 -19.9 -31.35 -19.95 -31.2 -20.1 -31.0 -20.2 -30.75 L-20.75 -31.25 Q-20.85 -31.35 -20.85 -31.3 -22.7 -33.0 -22.8 -33.15 -24.65 -34.9 -25.7 -36.5 -25.8 -36.6 -25.75 -36.6 -26.15 -37.45 -26.7 -38.25 -26.0 -38.7 -24.4 -38.65 -22.25 -38.65 -20.3 -37.8 -18.4 -37.0 -16.05 -37.0 L-15.7 -37.0 Q-14.7 -36.95 -13.8 -36.7 -12.25 -36.5 -9.95 -35.8 L-10.05 -35.8 -8.45 -35.1 -7.05 -34.9 Q-6.25 -34.65 -5.35 -34.3 -4.85 -34.2 -4.25 -33.9 -3.5 -33.95 -2.3 -33.35 -1.45 -32.95 -0.65 -32.3 L3.3 -30.55 Q4.35 -29.95 6.85 -28.6 8.75 -27.6 9.0 -27.35 L9.6 -27.05 Q9.6 -26.8 9.8 -26.35 9.7 -26.75 9.65 -27.05 L12.95 -25.45 Q13.9 -24.85 14.95 -24.15 L16.55 -23.0 16.6 -22.9 Q16.65 -22.6 17.2 -22.35 L17.45 -22.35 17.75 -22.15 17.95 -22.0 Q20.2 -20.4 22.6 -18.5 L23.25 -18.0 24.15 -17.1 26.4 -14.9 Q28.15 -13.3 28.4 -12.95 28.85 -12.25 29.7 -11.2 30.2 -10.65 30.75 -10.1 L30.55 -10.05 30.6 -10.0 Q30.95 -9.85 31.25 -9.5 L31.35 -9.5 31.5 -9.35 Q31.85 -9.05 32.8 -7.85 L33.15 -7.45 33.55 -6.9 33.65 -6.85 33.75 -6.6 Q32.2 -6.2 30.4 -5.65 26.4 -4.6 24.2 -3.7 24.15 -3.75 24.15 -3.7 23.85 -3.65 23.65 -3.55 23.45 -3.55 23.35 -3.45 L23.35 -3.6 23.25 -4.05 22.65 -4.3 Q22.55 -4.35 22.3 -4.2 L22.0 -4.1 21.65 -4.45 Q21.3 -4.9 21.05 -5.0 19.95 -5.45 19.5 -4.55 19.25 -4.35 19.2 -3.95 L19.15 -3.65 Q19.1 -3.55 19.1 -2.95 19.1 -2.45 19.1 -2.4 19.05 -2.25 18.85 -2.15 L18.35 -2.1 Q17.6 -2.1 17.5 -1.5 17.45 -1.15 17.4 -0.85 17.25 -0.7 17.2 -0.4 17.2 -0.45 17.2 -0.4 17.15 -0.3 17.2 -0.15 16.65 0.05 16.2 0.4 13.4 2.0 11.4 5.05 10.75 5.9 9.8 7.6 9.3 8.4 8.9 9.1 8.9 9.0 8.9 8.95 L8.9 8.85 8.85 8.65 8.8 8.55 8.8 8.6 Q8.75 8.5 8.75 8.45 8.7 8.35 8.7 8.25 M-7.6 -20.3 Q-7.55 -20.55 -7.25 -20.6 -6.95 -20.75 -6.4 -20.5 -5.95 -20.25 -5.65 -19.7 -5.3 -19.15 -5.3 -18.4 L-4.95 -17.45 Q-4.6 -16.6 -4.6 -16.5 L-4.6 -16.45 -3.4 -15.95 Q-3.25 -15.65 -3.2 -15.45 -3.3 -15.35 -3.25 -15.25 -3.3 -15.0 -1.9 -13.6 L-0.3 -12.05 Q0.1 -11.5 0.25 -10.75 0.4 -9.7 0.45 -9.55 0.4 -9.55 0.45 -9.5 L0.65 -9.25 Q0.3 -9.5 0.0 -9.85 -0.2 -10.15 -0.35 -10.5 L-0.15 -10.25 -0.25 -10.65 Q-0.55 -12.0 -0.75 -12.25 -1.2 -12.75 -2.5 -13.85 -3.65 -15.0 -3.6 -15.65 -4.3 -16.0 -4.8 -16.15 L-4.85 -16.15 -4.85 -16.1 -4.85 -16.15 Q-4.9 -16.2 -4.85 -16.15 -5.2 -16.7 -5.35 -16.95 L-6.0 -18.2 Q-6.5 -19.05 -7.25 -19.75 L-7.15 -19.7 Q-7.4 -20.0 -7.5 -20.2 L-7.5 -20.25 -7.6 -20.3 M14.6 -18.15 Q14.5 -18.25 14.45 -18.2 14.4 -18.25 14.45 -18.35 14.45 -18.7 14.5 -18.55 L14.65 -18.55 14.8 -18.4 14.8 -18.2 Q14.75 -18.2 14.7 -18.15 L14.6 -18.15 M8.55 -23.9 L8.75 -23.85 Q8.95 -23.8 9.3 -23.55 L9.3 -23.25 9.2 -23.0 9.1 -23.0 8.8 -23.15 8.45 -23.35 8.45 -23.4 Q8.4 -23.5 8.45 -23.6 8.45 -23.8 8.5 -23.8 8.5 -23.9 8.55 -23.9 M5.35 -22.55 Q5.35 -22.45 5.35 -22.25 5.3 -22.1 5.3 -22.0 L5.3 -21.95 Q5.25 -22.0 5.2 -21.95 L5.1 -21.95 4.95 -22.25 Q4.85 -22.4 4.9 -22.45 4.9 -22.7 4.95 -22.7 4.9 -22.75 4.95 -22.8 L5.2 -22.75 5.35 -22.55 M5.25 -18.65 Q5.1 -18.75 5.15 -18.9 5.2 -19.4 5.5 -19.6 5.7 -19.85 6.05 -19.8 6.3 -19.75 6.55 -19.5 6.7 -19.3 6.65 -18.9 6.6 -18.45 6.15 -18.55 5.35 -18.75 5.35 -18.65 L5.25 -18.65 M5.6 -15.45 L5.75 -15.4 Q5.9 -15.4 6.1 -15.25 6.1 -15.2 6.15 -14.95 6.05 -14.95 6.0 -14.85 L5.75 -14.8 Q5.5 -14.95 5.55 -14.95 5.45 -15.15 5.5 -15.25 L5.6 -15.45 M11.0 -20.0 Q11.2 -20.0 11.35 -19.4 L11.25 -19.15 10.9 -19.2 10.7 -19.55 Q10.65 -19.7 10.7 -19.75 10.7 -20.15 11.0 -20.0 M8.9 -19.05 L8.55 -19.05 Q8.2 -19.2 8.2 -19.45 8.1 -19.65 8.15 -19.75 8.2 -20.3 8.7 -20.05 9.1 -19.8 9.1 -19.35 9.05 -19.15 8.9 -19.05 M8.5 -16.3 Q8.65 -16.05 9.1 -15.85 L10.1 -14.5 Q11.05 -13.2 11.5 -12.8 12.25 -12.2 12.6 -11.7 L12.9 -11.1 Q13.05 -10.9 13.5 -10.6 14.0 -10.35 15.4 -9.75 15.65 -9.65 15.6 -9.1 15.55 -9.05 15.6 -8.95 L15.8 -8.8 16.2 -8.7 Q16.0 -10.35 14.3 -11.4 L13.1 -12.1 Q12.45 -12.55 12.4 -12.9 12.1 -13.95 10.35 -15.5 8.95 -16.8 8.2 -17.2 L8.5 -16.3 M7.85 -17.05 L7.5 -18.1 8.8 -17.15 Q9.9 -16.3 10.6 -15.7 12.9 -13.8 12.8 -12.75 15.2 -11.55 15.95 -10.1 L16.35 -9.05 Q16.55 -8.45 16.85 -8.05 16.8 -8.05 16.8 -8.0 L16.7 -7.95 Q15.6 -8.35 15.3 -8.75 15.15 -9.0 15.2 -9.3 13.6 -10.1 12.35 -11.25 11.15 -12.4 10.65 -13.45 10.3 -14.1 9.75 -14.6 8.85 -15.45 8.5 -15.9 8.1 -16.4 7.85 -17.05 M11.3 -8.35 Q11.25 -8.4 11.3 -8.5 11.3 -8.8 11.6 -8.7 11.95 -8.7 12.45 -8.1 L12.35 -7.9 Q12.15 -7.9 11.85 -8.0 L11.3 -8.25 Q11.3 -8.3 11.3 -8.35 M3.3 -11.6 Q3.4 -11.45 3.45 -11.2 3.35 -11.05 3.2 -10.85 3.0 -10.75 2.85 -10.8 L2.55 -11.0 2.35 -10.7 Q2.0 -10.25 1.65 -10.3 1.3 -10.5 1.25 -10.8 1.15 -11.0 1.15 -11.1 1.15 -11.35 1.45 -11.5 1.65 -11.75 2.0 -11.85 2.45 -12.1 2.65 -11.9 2.75 -12.0 3.0 -11.85 3.15 -11.8 3.3 -11.6 M1.85 -13.55 Q1.9 -14.05 2.25 -13.85 2.55 -13.7 2.55 -13.35 L2.45 -13.15 Q2.3 -13.0 2.15 -13.05 1.9 -13.2 1.85 -13.35 1.8 -13.45 1.85 -13.55 M-25.85 -19.55 Q-25.9 -19.85 -25.85 -20.0 L-25.95 -20.8 -26.15 -22.1 Q-26.25 -22.2 -26.2 -22.2 L-26.1 -22.15 Q-26.25 -22.45 -26.3 -22.75 L-26.4 -23.25 Q-26.4 -23.3 -26.4 -23.25 -26.45 -23.5 -26.45 -23.6 -26.5 -23.7 -26.45 -23.75 -26.55 -23.95 -26.5 -24.05 -26.55 -24.1 -26.5 -24.05 -26.55 -24.15 -26.5 -24.1 -26.65 -24.6 -26.6 -24.85 L-27.0 -26.9 Q-27.1 -27.2 -27.1 -27.5 L-27.45 -29.0 Q-27.5 -29.5 -27.7 -30.3 -27.95 -31.15 -28.0 -31.9 -28.05 -32.1 -28.0 -32.2 -27.95 -32.7 -27.75 -33.4 -27.6 -34.25 -27.4 -34.65 L-26.7 -34.15 Q-25.95 -33.15 -23.1 -30.5 L-22.25 -29.65 -22.2 -29.65 -22.1 -29.55 -18.25 -25.95 -18.1 -25.8 -18.0 -25.75 -18.0 -25.7 -17.95 -25.65 -17.8 -25.55 -17.8 -25.5 -16.3 -24.25 Q-14.7 -23.05 -13.7 -22.2 L-13.05 -21.6 -11.55 -20.1 -11.15 -19.65 -11.0 -19.4 -10.8 -19.2 Q-10.9 -19.25 -10.9 -19.2 L-10.8 -19.1 -10.75 -19.0 -10.6 -19.0 -9.6 -18.2 -8.4 -17.05 -6.35 -15.1 Q-5.6 -14.25 -5.25 -13.8 -4.45 -12.8 -4.0 -12.1 -4.05 -12.2 -4.0 -12.2 L-3.7 -11.9 -3.65 -11.9 -2.95 -11.1 -2.4 -10.55 -2.4 -10.45 -2.35 -10.3 Q-1.05 -8.9 -0.45 -8.3 -0.1 -7.9 0.4 -7.2 L0.75 -6.65 1.5 -5.5 Q2.0 -4.65 2.25 -4.05 L2.3 -3.8 Q2.45 -3.4 2.85 -3.1 L3.7 -1.55 4.35 -0.35 Q4.45 0.1 4.75 0.9 4.9 1.2 5.15 1.9 L5.55 3.0 5.5 2.95 5.15 2.55 4.75 1.8 4.0 0.6 Q3.85 0.2 3.7 -0.25 L2.9 -2.2 Q2.65 -2.75 1.3 -4.45 -0.05 -6.25 -0.3 -6.9 -0.45 -7.2 -1.0 -7.8 L-2.1 -9.1 -2.55 -9.65 -2.6 -9.95 -2.75 -10.6 -3.1 -10.9 Q-6.1 -13.7 -6.55 -14.35 -7.55 -15.95 -8.7 -16.9 -9.15 -17.35 -9.75 -17.65 -9.75 -17.55 -10.25 -17.3 L-11.15 -17.25 Q-11.6 -17.5 -11.8 -17.85 -11.95 -18.1 -11.9 -18.3 -11.9 -18.7 -11.75 -18.9 L-11.95 -19.05 -12.05 -19.1 -12.05 -19.15 Q-12.45 -19.55 -12.45 -20.2 -13.4 -21.05 -14.35 -21.7 L-14.5 -21.7 -15.6 -21.8 Q-16.0 -22.0 -16.15 -22.55 -16.3 -22.9 -16.25 -23.1 -16.3 -23.25 -16.25 -23.3 L-16.65 -23.7 Q-16.85 -23.8 -17.2 -23.8 -17.55 -23.95 -17.8 -23.95 -17.65 -24.1 -17.65 -24.25 -17.65 -24.5 -17.85 -24.7 -18.05 -25.0 -18.25 -25.1 -18.9 -25.55 -18.85 -24.8 -18.9 -24.8 -18.8 -24.6 -18.75 -24.35 -18.5 -24.15 L-19.1 -24.35 -19.3 -24.0 Q-19.6 -23.75 -19.8 -23.8 -20.25 -24.0 -20.45 -24.45 -20.6 -24.8 -20.55 -24.95 L-21.1 -25.15 -21.05 -25.45 Q-21.5 -26.25 -21.75 -26.25 -22.0 -26.3 -21.95 -25.85 -21.95 -25.7 -21.95 -25.6 L-21.9 -25.45 -21.8 -25.35 Q-22.55 -25.45 -23.55 -25.15 -23.6 -25.2 -23.55 -25.15 -23.6 -25.8 -24.1 -26.0 -24.65 -26.25 -24.55 -25.75 -24.6 -25.7 -24.5 -25.4 -24.45 -25.2 -24.2 -24.95 -24.25 -25.0 -24.25 -24.95 -24.0 -24.8 -23.75 -24.5 -23.6 -24.25 -23.55 -23.9 -23.55 -23.7 -23.7 -23.55 -23.95 -23.5 -24.15 -23.55 -24.7 -23.75 -24.85 -24.25 -25.0 -24.55 -24.9 -24.6 -24.95 -24.7 -24.9 -24.7 -25.2 -24.65 -25.55 -24.5 L-25.55 -24.0 -25.35 -23.75 Q-25.0 -23.2 -24.9 -22.65 L-25.05 -22.05 Q-25.25 -21.65 -25.5 -21.25 -25.65 -21.15 -25.75 -21.0 L-25.65 -20.95 Q-25.4 -20.85 -25.15 -20.55 -24.95 -20.3 -24.9 -19.9 -24.9 -19.75 -25.05 -19.5 -25.25 -19.3 -25.5 -19.35 L-25.85 -19.55 M7.7 9.2 Q7.7 9.5 7.75 9.8 L7.75 9.9 7.05 9.05 Q6.0 7.8 5.75 7.55 L4.3 6.4 Q3.25 5.5 2.3 4.9 L0.4 3.5 0.4 3.55 0.3 3.45 Q0.1 3.2 0.05 2.95 0.05 2.9 0.05 2.95 0.0 2.55 -0.35 2.35 L-1.0 2.1 Q-1.15 2.05 -1.25 2.15 -1.4 2.15 -1.45 2.25 -1.5 2.2 -1.5 2.25 L-1.55 2.2 -1.6 2.0 Q-1.7 1.95 -1.65 1.9 L-1.9 1.45 Q-2.5 0.6 -3.2 0.4 -3.75 0.2 -3.95 0.3 -4.0 0.25 -4.0 0.3 L-4.25 0.45 Q-4.3 0.4 -4.25 0.45 L-4.75 0.45 -4.9 0.35 -5.0 0.25 Q-6.95 -0.8 -9.75 -2.1 L-9.7 -2.0 Q-9.95 -2.15 -10.2 -2.2 L-10.65 -2.65 -10.8 -2.85 -10.95 -3.0 Q-11.2 -3.2 -11.4 -3.3 -11.2 -4.05 -11.6 -5.0 L-12.05 -5.8 -12.35 -6.15 -12.8 -6.7 Q-13.2 -7.05 -13.35 -7.5 L-13.6 -8.1 Q-13.8 -8.45 -13.95 -8.75 L-14.1 -8.95 -13.9 -8.25 Q-13.65 -7.25 -13.15 -6.25 -12.9 -5.75 -12.8 -5.5 -12.65 -5.1 -12.65 -4.55 L-12.4 -3.65 -12.35 -3.45 -12.35 -3.2 Q-12.4 -3.25 -12.4 -3.2 L-12.6 -3.2 Q-12.85 -3.3 -12.95 -3.45 L-15.55 -4.45 -17.9 -5.3 -21.15 -5.65 -23.5 -5.9 -25.3 -5.85 -26.55 -5.85 -26.45 -6.15 Q-26.45 -6.2 -26.4 -6.2 L-26.25 -6.55 Q-26.3 -6.6 -26.25 -6.6 -26.2 -6.65 -26.1 -6.6 -26.15 -6.65 -26.1 -6.6 -26.1 -6.65 -26.05 -6.6 L-25.05 -6.6 -22.8 -6.4 Q-18.0 -5.9 -15.5 -4.8 L-13.05 -3.9 Q-13.05 -4.1 -12.95 -4.25 -13.25 -5.0 -13.55 -5.95 -13.8 -6.7 -14.15 -8.0 -14.35 -8.35 -14.4 -8.75 -14.65 -9.6 -14.85 -9.95 -14.6 -10.0 -14.2 -9.6 -14.0 -9.55 -13.7 -9.05 L-13.65 -8.85 -13.4 -8.5 -12.95 -7.5 -12.55 -7.05 Q-12.05 -6.4 -11.6 -5.8 -11.35 -5.45 -11.15 -4.85 L-11.1 -4.65 -11.05 -4.6 Q-11.15 -4.6 -11.1 -4.5 L-11.0 -3.9 Q-11.0 -3.7 -10.75 -3.35 -10.4 -3.05 -10.2 -2.75 L-10.0 -2.55 Q-7.2 -1.15 -4.7 0.2 L-4.5 0.2 Q-4.45 -0.1 -3.85 -0.05 -3.15 -0.15 -2.35 0.5 -2.1 0.9 -1.85 1.25 L-1.7 1.55 Q-1.5 1.45 -0.7 1.75 0.15 2.05 0.45 2.75 0.55 3.0 0.6 3.3 1.85 4.05 2.95 4.85 5.4 6.65 7.15 8.55 L7.7 9.2 M9.55 -3.55 Q9.5 -3.65 9.6 -3.75 9.6 -3.95 9.75 -3.95 9.95 -4.05 10.15 -3.55 L10.1 -3.35 10.0 -3.3 9.8 -3.35 9.65 -3.4 9.55 -3.55 M21.5 -13.45 Q22.0 -13.15 22.35 -12.65 22.65 -12.2 22.55 -11.6 22.5 -11.45 22.35 -11.3 22.15 -11.2 21.95 -11.25 21.1 -11.6 20.5 -12.3 19.9 -13.0 20.0 -13.3 20.05 -13.75 20.55 -13.7 20.95 -13.75 21.5 -13.45 M22.9 -7.25 Q23.05 -7.3 23.3 -7.15 23.9 -6.9 23.8 -6.4 L23.7 -6.25 Q23.55 -6.15 23.45 -6.2 22.5 -6.6 22.65 -7.1 22.65 -7.25 22.9 -7.25 M13.9 -5.65 Q14.2 -5.6 14.45 -5.3 14.6 -4.95 14.55 -4.45 14.5 -4.4 14.4 -4.2 14.3 -4.15 14.3 -4.1 14.6 -3.95 14.8 -3.55 14.95 -3.2 14.9 -2.65 L14.65 -2.25 Q14.45 -2.15 14.2 -2.2 13.55 -2.5 13.4 -2.9 13.25 -3.25 13.35 -3.55 13.3 -3.6 13.35 -3.6 13.05 -3.75 12.9 -4.0 12.85 -4.2 12.85 -4.35 12.75 -4.65 12.8 -4.9 12.85 -5.4 13.2 -5.55 13.5 -5.8 13.9 -5.65 M14.05 -2.0 Q14.4 -1.85 14.35 -1.45 L14.25 -1.25 Q14.05 -1.15 13.9 -1.15 13.65 -1.3 13.55 -1.55 13.5 -1.7 13.55 -1.8 13.6 -2.2 14.05 -2.0 M12.45 -2.9 Q12.9 -2.75 12.85 -2.3 L12.65 -2.05 12.25 -2.1 Q11.95 -2.2 11.9 -2.4 11.85 -2.55 11.9 -2.65 12.0 -3.15 12.45 -2.9 M29.0 -10.4 L28.7 -10.4 Q28.4 -10.55 28.4 -10.75 28.4 -10.9 28.45 -10.9 28.55 -11.45 28.9 -11.15 29.2 -10.95 29.15 -10.6 L29.0 -10.4 M26.95 -12.9 Q27.1 -12.95 27.35 -12.75 27.5 -12.6 27.65 -12.3 27.75 -12.0 27.7 -11.7 27.65 -11.5 27.5 -11.4 L27.2 -11.4 Q26.8 -11.6 26.7 -12.05 26.6 -12.35 26.65 -12.5 26.7 -12.9 26.95 -12.9 M24.9 -9.8 Q24.8 -9.45 24.35 -9.65 24.0 -9.8 23.95 -9.95 23.9 -10.05 23.95 -10.15 24.05 -10.6 24.55 -10.35 25.0 -10.15 24.9 -9.8 M25.25 -9.15 Q25.3 -9.6 25.85 -9.3 26.35 -9.15 26.3 -8.65 L26.15 -8.45 Q25.95 -8.35 25.8 -8.4 25.4 -8.55 25.3 -8.75 25.15 -9.0 25.25 -9.15 M-12.55 -35.9 L-12.85 -35.9 Q-12.9 -35.9 -12.85 -35.7 L-12.55 -35.1 -12.2 -35.35 -12.3 -35.55 Q-12.45 -35.8 -12.55 -35.9 M-19.1 -34.3 L-18.9 -34.35 Q-18.9 -34.4 -18.8 -34.55 -18.9 -34.85 -19.15 -35.1 -19.15 -34.9 -19.25 -34.8 -19.4 -34.85 -19.45 -34.75 -19.5 -34.6 -19.35 -34.5 -19.25 -34.4 -19.1 -34.3 M-17.95 -32.2 Q-17.4 -31.95 -17.35 -31.4 -17.4 -31.15 -17.65 -31.05 L-17.95 -31.15 Q-18.4 -31.35 -18.5 -31.6 -18.55 -31.7 -18.55 -31.85 -18.6 -32.55 -17.95 -32.2 M-18.7 -30.35 Q-18.85 -30.2 -19.1 -30.25 -19.55 -30.5 -19.65 -30.85 -19.75 -31.05 -19.7 -31.2 -19.75 -32.0 -19.1 -31.75 -18.6 -31.55 -18.55 -30.75 -18.55 -30.55 -18.7 -30.35 M-14.15 -32.4 L-14.4 -32.3 -14.7 -32.75 Q-14.8 -32.9 -14.75 -32.95 -14.8 -33.25 -14.7 -33.35 -14.6 -33.65 -14.05 -33.15 -14.1 -33.15 -14.0 -33.0 L-13.95 -32.75 Q-14.0 -32.6 -14.15 -32.4 M-17.25 -32.7 Q-17.7 -33.2 -17.7 -33.5 -17.7 -33.9 -17.3 -33.7 -16.9 -33.65 -16.85 -33.15 -16.9 -33.05 -17.05 -32.85 -17.15 -32.75 -17.25 -32.7 M-16.15 -30.5 Q-16.4 -30.4 -16.5 -30.4 -16.85 -30.6 -16.95 -30.85 -17.0 -31.0 -16.95 -31.15 -17.0 -31.8 -16.45 -31.5 -16.0 -31.3 -15.95 -30.8 -16.0 -30.7 -16.15 -30.5 M-16.55 -29.65 Q-16.1 -29.45 -16.05 -28.95 L-16.25 -28.65 Q-16.45 -28.5 -16.6 -28.55 -17.0 -28.7 -17.05 -29.0 -17.1 -29.2 -17.05 -29.3 -17.1 -29.9 -16.55 -29.65 M-13.85 -29.35 L-14.2 -29.55 -14.25 -29.65 Q-14.3 -29.75 -14.25 -29.9 -14.3 -30.3 -14.2 -30.3 -14.0 -30.45 -13.4 -30.0 L-13.35 -29.95 -13.35 -29.7 Q-13.4 -29.45 -13.55 -29.35 L-13.85 -29.35 M-11.8 -29.45 Q-10.0 -29.9 -8.45 -27.35 -7.95 -26.5 -7.55 -25.45 -7.25 -24.65 -7.25 -24.2 -7.3 -24.0 -7.35 -23.85 L-7.85 -23.85 Q-8.35 -24.1 -8.85 -24.6 -9.25 -25.0 -9.5 -25.35 -9.7 -25.65 -9.75 -25.65 L-9.95 -25.65 Q-10.25 -25.8 -11.0 -26.8 -11.7 -27.75 -11.8 -28.25 -11.9 -28.5 -11.85 -29.25 -11.9 -29.65 -11.8 -29.45 M-11.45 -32.95 Q-11.5 -33.05 -11.45 -33.2 -11.5 -33.45 -11.35 -33.4 L-11.15 -33.4 Q-11.0 -33.25 -10.85 -32.95 L-11.15 -32.65 -11.25 -32.75 Q-11.4 -32.9 -11.4 -32.95 L-11.45 -32.95 M-11.5 -28.75 Q-11.35 -27.8 -10.05 -26.55 L-7.65 -24.3 -7.55 -24.65 Q-8.1 -25.55 -8.1 -25.7 -8.15 -25.9 -8.05 -26.15 -8.1 -26.7 -8.65 -27.4 -9.45 -28.4 -10.7 -28.9 L-10.9 -28.6 Q-11.1 -28.55 -11.5 -28.75 M-6.8 -30.1 Q-6.8 -29.95 -6.8 -29.85 -6.85 -29.9 -6.9 -29.8 L-7.15 -29.85 Q-7.4 -30.0 -7.4 -30.2 -7.5 -30.25 -7.4 -30.45 -7.45 -30.75 -7.35 -30.75 -7.3 -30.95 -6.8 -30.55 -6.85 -30.6 -6.8 -30.45 L-6.8 -30.1 M-25.85 -24.9 L-26.0 -24.9 Q-26.1 -24.9 -26.2 -24.8 L-26.0 -24.55 -25.9 -24.5 Q-25.8 -24.55 -25.7 -24.65 L-25.85 -24.9 M-25.35 -27.05 L-25.25 -26.9 -25.05 -26.9 -24.9 -27.05 Q-25.15 -27.2 -25.2 -27.1 -25.35 -27.2 -25.35 -27.05 M-23.2 -27.1 Q-23.65 -27.25 -23.6 -26.75 -23.65 -26.7 -23.25 -26.2 L-22.9 -26.25 Q-22.75 -26.35 -22.7 -26.5 -22.8 -26.95 -23.2 -27.1 M-25.7 -17.55 Q-25.65 -17.7 -25.4 -17.6 -25.0 -17.55 -24.95 -17.1 -24.95 -16.95 -25.1 -16.75 -25.3 -16.7 -25.35 -16.7 -25.6 -16.8 -25.65 -16.9 -25.7 -17.1 -25.65 -17.2 L-25.7 -17.2 Q-25.75 -17.45 -25.7 -17.55 M-25.35 -14.05 Q-24.9 -14.1 -24.4 -13.8 L-24.3 -13.35 Q-24.35 -13.05 -24.75 -12.5 -25.05 -12.25 -25.3 -12.15 -25.35 -12.85 -25.35 -13.65 -25.35 -13.85 -25.3 -13.9 L-25.35 -13.95 Q-25.4 -14.05 -25.35 -14.05 M-0.2 -21.3 L-0.15 -21.35 0.15 -21.1 Q0.0 -21.1 -0.1 -21.0 -0.2 -21.05 -0.25 -21.0 -0.3 -21.15 -0.25 -21.1 -0.25 -21.35 -0.2 -21.3 M-8.85 -14.95 Q-8.9 -15.45 -8.4 -15.25 -8.0 -15.1 -8.0 -14.6 -8.0 -14.45 -8.2 -14.35 L-8.45 -14.35 Q-8.8 -14.5 -8.85 -14.8 -8.9 -14.95 -8.85 -14.95 M-0.1 -15.85 Q-0.15 -15.4 -0.5 -15.5 -0.85 -15.65 -0.9 -15.95 -0.95 -16.15 -0.9 -16.2 -0.9 -16.75 -0.45 -16.5 -0.1 -16.35 -0.1 -15.85 M-22.55 -27.1 Q-22.6 -26.95 -22.5 -26.8 -22.45 -26.6 -22.1 -26.45 -21.95 -26.4 -21.8 -26.5 -21.7 -26.75 -21.65 -26.95 -21.7 -27.5 -22.15 -27.55 -22.65 -27.75 -22.55 -27.1 M-15.0 -22.55 Q-15.05 -22.8 -15.1 -22.85 L-15.25 -23.05 Q-15.45 -23.05 -15.5 -22.9 -15.6 -22.85 -15.55 -22.75 L-15.5 -22.65 -15.25 -22.3 -15.15 -22.3 Q-15.1 -22.4 -15.05 -22.3 L-15.0 -22.55 M-21.55 -24.0 L-21.8 -24.05 Q-22.1 -24.2 -22.15 -24.45 -22.25 -24.65 -22.15 -24.6 -22.25 -24.95 -21.9 -24.85 -21.6 -24.85 -21.4 -24.35 L-21.45 -24.0 Q-21.5 -24.05 -21.55 -24.0 M-22.7 -23.25 Q-22.75 -23.75 -22.25 -23.6 -21.9 -23.5 -21.8 -22.95 -21.85 -22.85 -21.95 -22.7 L-22.25 -22.6 Q-22.55 -22.75 -22.65 -23.0 -22.7 -23.15 -22.7 -23.25 M-17.9 -22.1 L-18.25 -22.15 Q-18.65 -22.35 -18.75 -22.7 -18.85 -22.9 -18.75 -22.9 -18.8 -23.6 -18.3 -23.3 -17.8 -23.1 -17.75 -22.45 -17.75 -22.25 -17.9 -22.1 M-19.85 -20.95 Q-19.9 -21.2 -19.7 -21.15 -19.6 -21.15 -19.3 -20.95 -19.35 -20.9 -19.25 -20.75 L-19.3 -20.5 Q-19.35 -20.55 -19.45 -20.55 -19.65 -20.6 -19.75 -20.65 L-19.8 -20.7 Q-19.9 -20.85 -19.85 -20.95 M-19.6 -18.3 Q-19.7 -18.45 -19.65 -18.55 -19.7 -18.75 -19.55 -18.75 -19.35 -18.85 -18.9 -18.5 L-18.85 -18.4 -18.8 -18.15 Q-18.8 -17.9 -19.3 -17.95 L-19.6 -18.3 M-20.55 -14.4 Q-20.6 -14.4 -20.55 -14.3 L-20.5 -14.1 Q-20.5 -13.95 -20.65 -13.75 -20.85 -13.7 -21.0 -13.7 -21.25 -13.85 -21.35 -14.05 -21.4 -14.15 -21.35 -14.3 -21.45 -14.6 -21.25 -14.65 -21.1 -14.75 -20.55 -14.4 M-19.35 -15.35 Q-19.35 -15.55 -19.25 -15.6 -19.2 -15.7 -18.75 -15.45 L-18.7 -15.35 -18.65 -15.1 -18.7 -14.9 Q-18.75 -14.9 -18.7 -14.9 L-18.8 -14.9 Q-18.95 -14.95 -19.0 -14.9 -19.35 -15.3 -19.35 -15.35 M-13.0 -19.75 L-13.4 -19.75 Q-13.7 -19.9 -13.8 -20.2 -13.85 -20.35 -13.85 -20.5 -13.9 -21.05 -13.35 -20.75 -12.85 -20.55 -12.8 -20.1 -12.85 -19.85 -13.0 -19.75 M-15.4 -19.85 L-15.45 -19.7 Q-15.6 -19.6 -15.8 -19.6 L-16.1 -19.95 Q-16.2 -20.1 -16.15 -20.15 -16.2 -20.55 -15.75 -20.45 -15.45 -20.45 -15.4 -19.85 M-16.25 -20.05 Q-16.3 -20.1 -16.35 -20.0 L-16.6 -20.05 Q-16.9 -20.25 -16.95 -20.4 -17.0 -20.55 -17.0 -20.65 -17.05 -21.1 -16.65 -21.0 -16.4 -20.95 -16.2 -20.35 L-16.25 -20.05 M-16.1 -16.9 Q-16.25 -16.75 -16.4 -16.8 -16.7 -16.95 -16.75 -17.1 -16.85 -17.3 -16.85 -17.4 -16.9 -18.0 -16.4 -17.8 -16.0 -17.8 -15.95 -17.2 -15.95 -17.05 -16.1 -16.9 M-16.05 -8.1 L-16.05 -7.85 Q-16.05 -7.75 -16.25 -7.65 L-16.55 -7.65 Q-16.85 -7.75 -16.85 -7.8 L-16.9 -7.9 Q-16.95 -8.05 -16.9 -8.15 -16.95 -8.4 -16.9 -8.4 -16.75 -8.55 -16.1 -8.15 -16.15 -8.15 -16.05 -8.1 M-12.85 -10.3 L-12.85 -10.25 Q-12.95 -10.3 -12.95 -10.25 L-13.2 -10.5 -12.85 -10.3 M-22.5 -12.7 Q-22.15 -12.6 -22.1 -12.25 -22.15 -12.0 -22.45 -12.05 L-22.75 -12.2 -22.8 -12.3 Q-22.85 -12.4 -22.8 -12.5 -22.85 -12.85 -22.5 -12.7 M-21.4 -12.1 Q-20.95 -12.2 -20.1 -11.0 -19.4 -10.0 -19.35 -9.5 -19.4 -9.4 -19.35 -9.15 -19.4 -8.95 -19.4 -8.75 -19.45 -8.8 -19.4 -8.7 L-19.55 -8.75 Q-20.2 -9.0 -20.8 -9.9 -21.4 -10.75 -21.35 -10.9 -21.4 -11.0 -21.35 -11.4 L-21.4 -12.1 M-19.95 -10.4 Q-20.35 -11.25 -21.1 -11.6 -20.9 -10.7 -20.8 -10.45 -20.55 -9.85 -19.6 -9.1 L-19.55 -9.25 Q-19.8 -9.65 -19.95 -10.4 M-2.55 -7.95 Q-2.55 -8.2 -2.35 -8.2 -2.25 -8.2 -1.9 -8.0 L-1.85 -7.9 -1.85 -7.7 Q-1.9 -7.45 -2.2 -7.55 L-2.45 -7.7 -2.5 -7.8 -2.55 -7.95 M-7.05 -12.7 Q-7.25 -12.95 -7.2 -13.0 -7.2 -13.55 -6.65 -13.15 -6.2 -12.85 -6.2 -12.45 -6.2 -12.35 -6.35 -12.25 L-6.6 -12.2 Q-6.95 -12.4 -7.05 -12.7 M-6.15 -5.0 Q-5.95 -5.2 -5.55 -5.05 -5.25 -5.0 -4.95 -4.65 -4.7 -4.4 -4.7 -3.95 -4.75 -3.75 -5.05 -3.5 -5.45 -3.35 -5.85 -3.45 -6.35 -3.65 -6.45 -4.05 -6.55 -4.3 -6.5 -4.45 -6.5 -4.9 -6.15 -5.0 M-3.85 -2.5 Q-3.9 -2.3 -4.05 -2.15 -4.3 -2.15 -4.65 -2.25 -5.0 -2.4 -5.1 -2.65 -5.2 -2.85 -5.1 -2.95 -5.15 -3.25 -4.9 -3.3 L-4.45 -3.35 Q-4.2 -3.3 -4.0 -3.05 -3.85 -2.85 -3.85 -2.5 M-3.3 -1.1 Q-3.3 -1.5 -2.9 -1.3 -2.55 -1.2 -2.55 -0.85 L-2.65 -0.65 Q-2.8 -0.55 -2.95 -0.55 -3.2 -0.7 -3.25 -0.9 -3.35 -1.05 -3.3 -1.1 M0.75 2.35 L0.45 2.4 0.3 2.3 0.2 2.15 0.2 1.95 Q0.4 1.6 0.65 1.8 0.85 1.9 0.85 2.2 L0.75 2.35" fill="#bfa681" fill-rule="evenodd" stroke="none"/>
    <path d="M-20.2 -30.75 Q-20.1 -31.0 -19.95 -31.2 -19.9 -31.35 -19.85 -31.45 -20.1 -31.6 -20.2 -31.85 -20.25 -31.85 -20.25 -31.75 -20.4 -31.65 -20.7 -31.65 L-21.0 -32.0 Q-21.15 -32.2 -21.1 -32.2 -21.15 -32.55 -20.8 -32.5 -20.6 -32.6 -20.35 -32.45 -20.4 -32.65 -20.2 -32.8 L-20.4 -33.1 Q-20.45 -33.55 -20.1 -33.45 -19.9 -33.4 -19.7 -33.05 -19.6 -33.1 -19.5 -33.0 L-19.45 -33.0 Q-19.25 -32.85 -18.95 -32.65 -18.25 -32.4 -18.0 -32.6 -17.9 -32.8 -17.9 -33.15 -17.95 -33.75 -18.25 -34.2 -18.3 -34.25 -18.25 -34.25 -18.1 -34.35 -17.8 -34.4 -18.3 -34.7 -18.3 -35.2 -18.35 -35.85 -17.6 -35.55 -16.95 -35.35 -16.95 -34.7 L-16.95 -34.55 -16.55 -34.6 Q-16.4 -33.85 -15.4 -33.35 -15.1 -33.25 -14.85 -33.35 -14.65 -33.55 -14.6 -33.85 -14.65 -34.35 -14.75 -34.65 -14.85 -34.65 -14.9 -34.6 L-15.25 -34.6 Q-15.6 -34.8 -15.65 -35.0 -15.75 -35.15 -15.65 -35.3 -15.7 -35.9 -15.2 -35.65 -14.75 -35.45 -14.7 -34.85 L-14.7 -34.8 -13.0 -35.05 Q-13.05 -34.95 -12.95 -34.75 -12.85 -34.3 -12.25 -34.0 -11.9 -33.85 -11.3 -34.05 -10.9 -34.35 -10.75 -34.65 L-10.1 -34.65 Q-10.1 -34.7 -10.05 -34.6 L-10.0 -34.5 Q-9.9 -34.05 -9.4 -33.85 L-8.85 -33.85 Q-8.75 -34.0 -8.7 -34.2 L-8.75 -34.6 -8.75 -34.5 Q-8.2 -34.45 -7.65 -34.15 -7.55 -34.15 -7.4 -33.9 -7.3 -33.75 -7.15 -33.6 L-6.65 -33.5 -6.45 -33.4 -5.2 -33.05 Q-3.9 -32.7 -3.05 -32.3 -1.6 -31.65 -0.8 -30.95 -0.1 -30.3 0.55 -29.95 0.65 -29.95 1.75 -29.55 3.05 -29.15 3.75 -28.85 4.75 -28.5 6.3 -27.85 8.0 -27.25 8.15 -27.15 10.05 -26.3 11.7 -25.05 13.3 -23.95 14.1 -23.5 15.9 -22.75 19.85 -19.9 21.85 -18.5 23.25 -17.35 L24.3 -16.4 25.1 -15.65 28.15 -12.2 Q30.0 -10.3 31.15 -9.2 L31.3 -9.05 31.8 -8.65 Q32.0 -8.4 32.5 -7.75 L32.55 -7.6 32.35 -7.65 32.4 -7.5 32.6 -7.1 32.75 -7.1 Q30.6 -6.7 25.4 -4.45 24.75 -4.25 24.1 -3.9 23.95 -4.25 23.6 -4.35 22.55 -4.6 22.05 -4.75 L21.8 -5.0 Q21.45 -5.3 21.1 -5.4 19.4 -6.1 18.95 -4.65 18.7 -4.15 18.7 -2.65 17.9 -3.0 17.4 -2.1 17.0 -1.6 16.8 -0.55 16.25 -0.35 16.15 -0.2 15.75 0.0 14.55 1.15 13.2 2.45 11.95 3.85 9.6 6.5 8.7 8.25 L8.6 7.7 Q8.55 7.5 8.55 7.4 L8.1 5.45 7.9 4.65 7.55 3.8 Q7.15 2.8 6.65 1.05 L6.05 -0.4 6.0 -0.5 5.8 -1.05 Q5.8 -1.15 5.85 -1.15 5.8 -1.2 5.85 -1.15 L5.5 -1.8 Q4.4 -4.25 4.1 -5.2 L3.9 -5.35 Q3.8 -5.45 3.85 -5.45 L3.8 -5.5 Q3.6 -5.65 3.5 -5.7 L3.15 -6.15 Q3.05 -6.35 3.05 -6.45 L1.15 -8.6 Q0.9 -8.95 0.65 -9.25 L0.45 -9.5 Q0.4 -9.55 0.45 -9.55 0.4 -9.7 0.25 -10.75 0.1 -11.5 -0.3 -12.05 L-1.9 -13.6 Q-3.3 -15.0 -3.25 -15.25 -3.3 -15.35 -3.2 -15.45 -3.25 -15.65 -3.4 -15.95 L-4.6 -16.45 -4.6 -16.5 Q-4.6 -16.6 -4.95 -17.45 L-5.3 -18.4 Q-5.3 -19.15 -5.65 -19.7 -5.95 -20.25 -6.4 -20.5 -6.95 -20.75 -7.25 -20.6 -7.55 -20.55 -7.6 -20.3 -8.0 -20.6 -8.2 -20.8 -8.45 -20.95 -8.6 -20.95 L-8.6 -20.9 Q-9.1 -21.25 -9.55 -21.5 -10.55 -22.15 -13.1 -24.4 -13.35 -24.65 -13.65 -24.9 -13.65 -25.0 -13.6 -25.0 -13.7 -25.05 -13.65 -25.0 -14.1 -25.2 -14.4 -25.55 L-17.95 -28.75 -20.2 -30.75 M14.6 -18.15 L14.7 -18.15 Q14.75 -18.2 14.8 -18.2 L14.8 -18.4 14.65 -18.55 14.5 -18.55 Q14.45 -18.7 14.45 -18.35 14.4 -18.25 14.45 -18.2 14.5 -18.25 14.6 -18.15 M8.9 -19.05 Q9.05 -19.15 9.1 -19.35 9.1 -19.8 8.7 -20.05 8.2 -20.3 8.15 -19.75 8.1 -19.65 8.2 -19.45 8.2 -19.2 8.55 -19.05 L8.9 -19.05 M11.0 -20.0 Q10.7 -20.15 10.7 -19.75 10.65 -19.7 10.7 -19.55 L10.9 -19.2 11.25 -19.15 11.35 -19.4 Q11.2 -20.0 11.0 -20.0 M5.6 -15.45 L5.5 -15.25 Q5.45 -15.15 5.55 -14.95 5.5 -14.95 5.75 -14.8 L6.0 -14.85 Q6.05 -14.95 6.15 -14.95 6.1 -15.2 6.1 -15.25 5.9 -15.4 5.75 -15.4 L5.6 -15.45 M5.25 -18.65 L5.35 -18.65 Q5.35 -18.75 6.15 -18.55 6.6 -18.45 6.65 -18.9 6.7 -19.3 6.55 -19.5 6.3 -19.75 6.05 -19.8 5.7 -19.85 5.5 -19.6 5.2 -19.4 5.15 -18.9 5.1 -18.75 5.25 -18.65 M5.35 -22.55 L5.2 -22.75 4.95 -22.8 Q4.9 -22.75 4.95 -22.7 4.9 -22.7 4.9 -22.45 4.85 -22.4 4.95 -22.25 L5.1 -21.95 5.2 -21.95 Q5.25 -22.0 5.3 -21.95 L5.3 -22.0 Q5.3 -22.1 5.35 -22.25 5.35 -22.45 5.35 -22.55 M8.55 -23.9 Q8.5 -23.9 8.5 -23.8 8.45 -23.8 8.45 -23.6 8.4 -23.5 8.45 -23.4 L8.45 -23.35 8.8 -23.15 9.1 -23.0 9.2 -23.0 9.3 -23.25 9.3 -23.55 Q8.95 -23.8 8.75 -23.85 L8.55 -23.9 M1.85 -13.55 Q1.8 -13.45 1.85 -13.35 1.9 -13.2 2.15 -13.05 2.3 -13.0 2.45 -13.15 L2.55 -13.35 Q2.55 -13.7 2.25 -13.85 1.9 -14.05 1.85 -13.55 M3.3 -11.6 Q3.15 -11.8 3.0 -11.85 2.75 -12.0 2.65 -11.9 2.45 -12.1 2.0 -11.85 1.65 -11.75 1.45 -11.5 1.15 -11.35 1.15 -11.1 1.15 -11.0 1.25 -10.8 1.3 -10.5 1.65 -10.3 2.0 -10.25 2.35 -10.7 L2.55 -11.0 2.85 -10.8 Q3.0 -10.75 3.2 -10.85 3.35 -11.05 3.45 -11.2 3.4 -11.45 3.3 -11.6 M11.3 -8.35 Q11.3 -8.3 11.3 -8.25 L11.85 -8.0 Q12.15 -7.9 12.35 -7.9 L12.45 -8.1 Q11.95 -8.7 11.6 -8.7 11.3 -8.8 11.3 -8.5 11.25 -8.4 11.3 -8.35 M7.85 -17.05 Q8.1 -16.4 8.5 -15.9 8.85 -15.45 9.75 -14.6 10.3 -14.1 10.65 -13.45 11.15 -12.4 12.35 -11.25 13.6 -10.1 15.2 -9.3 15.15 -9.0 15.3 -8.75 15.6 -8.35 16.7 -7.95 L16.8 -8.0 Q16.8 -8.05 16.85 -8.05 16.55 -8.45 16.35 -9.05 L15.95 -10.1 Q15.2 -11.55 12.8 -12.75 12.9 -13.8 10.6 -15.7 9.9 -16.3 8.8 -17.15 L7.5 -18.1 7.85 -17.05 M-25.85 -19.55 L-25.5 -19.35 Q-25.25 -19.3 -25.05 -19.5 -24.9 -19.75 -24.9 -19.9 -24.95 -20.3 -25.15 -20.55 -25.4 -20.85 -25.65 -20.95 L-25.75 -21.0 Q-25.65 -21.15 -25.5 -21.25 -25.25 -21.65 -25.05 -22.05 L-24.9 -22.65 Q-25.0 -23.2 -25.35 -23.75 L-25.55 -24.0 -25.55 -24.5 Q-25.2 -24.65 -24.9 -24.7 -24.95 -24.7 -24.9 -24.6 -25.0 -24.55 -24.85 -24.25 -24.7 -23.75 -24.15 -23.55 -23.95 -23.5 -23.7 -23.55 -23.55 -23.7 -23.55 -23.9 -23.6 -24.25 -23.75 -24.5 -24.0 -24.8 -24.25 -24.95 -24.25 -25.0 -24.2 -24.95 -24.45 -25.2 -24.5 -25.4 -24.6 -25.7 -24.55 -25.75 -24.65 -26.25 -24.1 -26.0 -23.6 -25.8 -23.55 -25.15 -23.6 -25.2 -23.55 -25.15 -22.55 -25.45 -21.8 -25.35 L-21.9 -25.45 -21.95 -25.6 Q-21.95 -25.7 -21.95 -25.85 -22.0 -26.3 -21.75 -26.25 -21.5 -26.25 -21.05 -25.45 L-21.1 -25.15 -20.55 -24.95 Q-20.6 -24.8 -20.45 -24.45 -20.25 -24.0 -19.8 -23.8 -19.6 -23.75 -19.3 -24.0 L-19.1 -24.35 -18.5 -24.15 Q-18.75 -24.35 -18.8 -24.6 -18.9 -24.8 -18.85 -24.8 -18.9 -25.55 -18.25 -25.1 -18.05 -25.0 -17.85 -24.7 -17.65 -24.5 -17.65 -24.25 -17.65 -24.1 -17.8 -23.95 -17.55 -23.95 -17.2 -23.8 -16.85 -23.8 -16.65 -23.7 L-16.25 -23.3 Q-16.3 -23.25 -16.25 -23.1 -16.3 -22.9 -16.15 -22.55 -16.0 -22.0 -15.6 -21.8 L-14.5 -21.7 -14.35 -21.7 Q-13.4 -21.05 -12.45 -20.2 -12.45 -19.55 -12.05 -19.15 L-12.05 -19.1 -11.95 -19.05 -11.75 -18.9 Q-11.9 -18.7 -11.9 -18.3 -11.95 -18.1 -11.8 -17.85 -11.6 -17.5 -11.15 -17.25 L-10.25 -17.3 Q-9.75 -17.55 -9.75 -17.65 -9.15 -17.35 -8.7 -16.9 -7.55 -15.95 -6.55 -14.35 -6.1 -13.7 -3.1 -10.9 L-2.75 -10.6 -2.6 -9.95 -2.55 -9.65 -2.1 -9.1 -1.0 -7.8 Q-0.45 -7.2 -0.3 -6.9 -0.05 -6.25 1.3 -4.45 2.65 -2.75 2.9 -2.2 L3.7 -0.25 Q3.85 0.2 4.0 0.6 L4.75 1.8 5.15 2.55 5.5 2.95 5.55 3.0 6.7 5.75 Q7.05 6.75 7.3 7.35 7.3 7.45 7.35 7.6 L7.7 8.9 Q7.7 9.05 7.7 9.2 L7.15 8.55 Q5.4 6.65 2.95 4.85 1.85 4.05 0.6 3.3 0.55 3.0 0.45 2.75 0.15 2.05 -0.7 1.75 -1.5 1.45 -1.7 1.55 L-1.85 1.25 Q-2.1 0.9 -2.35 0.5 -3.15 -0.15 -3.85 -0.05 -4.45 -0.1 -4.5 0.2 L-4.7 0.2 Q-7.2 -1.15 -10.0 -2.55 L-10.2 -2.75 Q-10.4 -3.05 -10.75 -3.35 -11.0 -3.7 -11.0 -3.9 L-11.1 -4.5 Q-11.15 -4.6 -11.05 -4.6 L-11.1 -4.65 -11.15 -4.85 Q-11.35 -5.45 -11.6 -5.8 -12.05 -6.4 -12.55 -7.05 L-12.95 -7.5 -13.4 -8.5 -13.65 -8.85 -13.7 -9.05 Q-14.0 -9.55 -14.2 -9.6 -14.6 -10.0 -14.85 -9.95 -14.65 -9.6 -14.4 -8.75 -14.35 -8.35 -14.15 -8.0 -13.8 -6.7 -13.55 -5.95 -13.25 -5.0 -12.95 -4.25 -13.05 -4.1 -13.05 -3.9 L-15.5 -4.8 Q-18.0 -5.9 -22.8 -6.4 L-25.05 -6.6 -26.05 -6.6 Q-26.1 -6.65 -26.1 -6.6 -26.15 -6.65 -26.1 -6.6 -26.2 -6.65 -26.25 -6.6 -26.3 -6.6 -26.25 -6.55 L-26.4 -6.2 Q-26.45 -6.2 -26.45 -6.15 -26.5 -6.25 -26.45 -6.3 -26.25 -7.15 -25.9 -7.7 L-25.65 -8.8 -25.55 -9.25 -25.4 -9.2 Q-25.4 -9.25 -25.35 -9.25 -25.25 -9.25 -25.1 -9.35 -25.0 -9.5 -25.0 -9.65 L-25.15 -10.3 Q-25.3 -11.1 -25.3 -12.15 -25.05 -12.25 -24.75 -12.5 -24.35 -13.05 -24.3 -13.35 L-24.4 -13.8 Q-24.9 -14.1 -25.35 -14.05 L-25.35 -14.25 Q-25.55 -15.35 -25.65 -16.1 L-25.65 -16.25 Q-25.7 -16.45 -25.7 -16.55 -25.75 -16.8 -25.65 -16.9 -25.6 -16.8 -25.35 -16.7 -25.3 -16.7 -25.1 -16.75 -24.95 -16.95 -24.95 -17.1 -25.0 -17.55 -25.4 -17.6 -25.65 -17.7 -25.7 -17.55 -25.8 -18.55 -25.85 -19.55 M25.25 -9.15 Q25.15 -9.0 25.3 -8.75 25.4 -8.55 25.8 -8.4 25.95 -8.35 26.15 -8.45 L26.3 -8.65 Q26.35 -9.15 25.85 -9.3 25.3 -9.6 25.25 -9.15 M24.9 -9.8 Q25.0 -10.15 24.55 -10.35 24.05 -10.6 23.95 -10.15 23.9 -10.05 23.95 -9.95 24.0 -9.8 24.35 -9.65 24.8 -9.45 24.9 -9.8 M26.95 -12.9 Q26.7 -12.9 26.65 -12.5 26.6 -12.35 26.7 -12.05 26.8 -11.6 27.2 -11.4 L27.5 -11.4 Q27.65 -11.5 27.7 -11.7 27.75 -12.0 27.65 -12.3 27.5 -12.6 27.35 -12.75 27.1 -12.95 26.95 -12.9 M29.0 -10.4 L29.15 -10.6 Q29.2 -10.95 28.9 -11.15 28.55 -11.45 28.45 -10.9 28.4 -10.9 28.4 -10.75 28.4 -10.55 28.7 -10.4 L29.0 -10.4 M12.45 -2.9 Q12.0 -3.15 11.9 -2.65 11.85 -2.55 11.9 -2.4 11.95 -2.2 12.25 -2.1 L12.65 -2.05 12.85 -2.3 Q12.9 -2.75 12.45 -2.9 M14.05 -2.0 Q13.6 -2.2 13.55 -1.8 13.5 -1.7 13.55 -1.55 13.65 -1.3 13.9 -1.15 14.05 -1.15 14.25 -1.25 L14.35 -1.45 Q14.4 -1.85 14.05 -2.0 M13.9 -5.65 Q13.5 -5.8 13.2 -5.55 12.85 -5.4 12.8 -4.9 12.75 -4.65 12.85 -4.35 12.85 -4.2 12.9 -4.0 13.05 -3.75 13.35 -3.6 13.3 -3.6 13.35 -3.55 13.25 -3.25 13.4 -2.9 13.55 -2.5 14.2 -2.2 14.45 -2.15 14.65 -2.25 L14.9 -2.65 Q14.95 -3.2 14.8 -3.55 14.6 -3.95 14.3 -4.1 14.3 -4.15 14.4 -4.2 14.5 -4.4 14.55 -4.45 14.6 -4.95 14.45 -5.3 14.2 -5.6 13.9 -5.65 M22.9 -7.25 Q22.65 -7.25 22.65 -7.1 22.5 -6.6 23.45 -6.2 23.55 -6.15 23.7 -6.25 L23.8 -6.4 Q23.9 -6.9 23.3 -7.15 23.05 -7.3 22.9 -7.25 M21.5 -13.45 Q20.95 -13.75 20.55 -13.7 20.05 -13.75 20.0 -13.3 19.9 -13.0 20.5 -12.3 21.1 -11.6 21.95 -11.25 22.15 -11.2 22.35 -11.3 22.5 -11.45 22.55 -11.6 22.65 -12.2 22.35 -12.65 22.0 -13.15 21.5 -13.45 M9.55 -3.55 L9.65 -3.4 9.8 -3.35 10.0 -3.3 10.1 -3.35 10.15 -3.55 Q9.95 -4.05 9.75 -3.95 9.6 -3.95 9.6 -3.75 9.5 -3.65 9.55 -3.55 M-12.55 -35.9 Q-12.45 -35.8 -12.3 -35.55 L-12.2 -35.35 -12.55 -35.1 -12.85 -35.7 Q-12.9 -35.9 -12.85 -35.9 L-12.55 -35.9 M-19.1 -34.3 Q-19.25 -34.4 -19.35 -34.5 -19.5 -34.6 -19.45 -34.75 -19.4 -34.85 -19.25 -34.8 -19.15 -34.9 -19.15 -35.1 -18.9 -34.85 -18.8 -34.55 -18.9 -34.4 -18.9 -34.35 L-19.1 -34.3 M-18.7 -30.35 Q-18.55 -30.55 -18.55 -30.75 -18.6 -31.55 -19.1 -31.75 -19.75 -32.0 -19.7 -31.2 -19.75 -31.05 -19.65 -30.85 -19.55 -30.5 -19.1 -30.25 -18.85 -30.2 -18.7 -30.35 M-17.95 -32.2 Q-18.6 -32.55 -18.55 -31.85 -18.55 -31.7 -18.5 -31.6 -18.4 -31.35 -17.95 -31.15 L-17.65 -31.05 Q-17.4 -31.15 -17.35 -31.4 -17.4 -31.95 -17.95 -32.2 M-11.45 -32.95 L-11.4 -32.95 Q-11.4 -32.9 -11.25 -32.75 L-11.15 -32.65 -10.85 -32.95 Q-11.0 -33.25 -11.15 -33.4 L-11.35 -33.4 Q-11.5 -33.45 -11.45 -33.2 -11.5 -33.05 -11.45 -32.95 M-11.8 -29.45 Q-11.9 -29.65 -11.85 -29.25 -11.9 -28.5 -11.8 -28.25 -11.7 -27.75 -11.0 -26.8 -10.25 -25.8 -9.95 -25.65 L-9.75 -25.65 Q-9.7 -25.65 -9.5 -25.35 -9.25 -25.0 -8.85 -24.6 -8.35 -24.1 -7.85 -23.85 L-7.35 -23.85 Q-7.3 -24.0 -7.25 -24.2 -7.25 -24.65 -7.55 -25.45 -7.95 -26.5 -8.45 -27.35 -10.0 -29.9 -11.8 -29.45 M-13.85 -29.35 L-13.55 -29.35 Q-13.4 -29.45 -13.35 -29.7 L-13.35 -29.95 -13.4 -30.0 Q-14.0 -30.45 -14.2 -30.3 -14.3 -30.3 -14.25 -29.9 -14.3 -29.75 -14.25 -29.65 L-14.2 -29.55 -13.85 -29.35 M-16.55 -29.65 Q-17.1 -29.9 -17.05 -29.3 -17.1 -29.2 -17.05 -29.0 -17.0 -28.7 -16.6 -28.55 -16.45 -28.5 -16.25 -28.65 L-16.05 -28.95 Q-16.1 -29.45 -16.55 -29.65 M-16.15 -30.5 Q-16.0 -30.7 -15.95 -30.8 -16.0 -31.3 -16.45 -31.5 -17.0 -31.8 -16.95 -31.15 -17.0 -31.0 -16.95 -30.85 -16.85 -30.6 -16.5 -30.4 -16.4 -30.4 -16.15 -30.5 M-17.25 -32.7 Q-17.15 -32.75 -17.05 -32.85 -16.9 -33.05 -16.85 -33.15 -16.9 -33.65 -17.3 -33.7 -17.7 -33.9 -17.7 -33.5 -17.7 -33.2 -17.25 -32.7 M-14.15 -32.4 Q-14.0 -32.6 -13.95 -32.75 L-14.0 -33.0 Q-14.1 -33.15 -14.05 -33.15 -14.6 -33.65 -14.7 -33.35 -14.8 -33.25 -14.75 -32.95 -14.8 -32.9 -14.7 -32.75 L-14.4 -32.3 -14.15 -32.4 M-6.8 -30.1 L-6.8 -30.45 Q-6.85 -30.6 -6.8 -30.55 -7.3 -30.95 -7.35 -30.75 -7.45 -30.75 -7.4 -30.45 -7.5 -30.25 -7.4 -30.2 -7.4 -30.0 -7.15 -29.85 L-6.9 -29.8 Q-6.85 -29.9 -6.8 -29.85 -6.8 -29.95 -6.8 -30.1 M-23.2 -27.1 Q-22.8 -26.95 -22.7 -26.5 -22.75 -26.35 -22.9 -26.25 L-23.25 -26.2 Q-23.65 -26.7 -23.6 -26.75 -23.65 -27.25 -23.2 -27.1 M-25.35 -27.05 Q-25.35 -27.2 -25.2 -27.1 -25.15 -27.2 -24.9 -27.05 L-25.05 -26.9 -25.25 -26.9 -25.35 -27.05 M-25.85 -24.9 L-25.7 -24.65 Q-25.8 -24.55 -25.9 -24.5 L-26.0 -24.55 -26.2 -24.8 Q-26.1 -24.9 -26.0 -24.9 L-25.85 -24.9 M-0.2 -21.3 Q-0.25 -21.35 -0.25 -21.1 -0.3 -21.15 -0.25 -21.0 -0.2 -21.05 -0.1 -21.0 0.0 -21.1 0.15 -21.1 L-0.15 -21.35 -0.2 -21.3 M-8.85 -14.95 Q-8.9 -14.95 -8.85 -14.8 -8.8 -14.5 -8.45 -14.35 L-8.2 -14.35 Q-8.0 -14.45 -8.0 -14.6 -8.0 -15.1 -8.4 -15.25 -8.9 -15.45 -8.85 -14.95 M-0.1 -15.85 Q-0.1 -16.35 -0.45 -16.5 -0.9 -16.75 -0.9 -16.2 -0.95 -16.15 -0.9 -15.95 -0.85 -15.65 -0.5 -15.5 -0.15 -15.4 -0.1 -15.85 M-15.0 -22.55 L-15.05 -22.3 Q-15.1 -22.4 -15.15 -22.3 L-15.25 -22.3 -15.5 -22.65 -15.55 -22.75 Q-15.6 -22.85 -15.5 -22.9 -15.45 -23.05 -15.25 -23.05 L-15.1 -22.85 Q-15.05 -22.8 -15.0 -22.55 M-22.55 -27.1 Q-22.65 -27.75 -22.15 -27.55 -21.7 -27.5 -21.65 -26.95 -21.7 -26.75 -21.8 -26.5 -21.95 -26.4 -22.1 -26.45 -22.45 -26.6 -22.5 -26.8 -22.6 -26.95 -22.55 -27.1 M-16.05 -8.1 Q-16.15 -8.15 -16.1 -8.15 -16.75 -8.55 -16.9 -8.4 -16.95 -8.4 -16.9 -8.15 -16.95 -8.05 -16.9 -7.9 L-16.85 -7.8 Q-16.85 -7.75 -16.55 -7.65 L-16.25 -7.65 Q-16.05 -7.75 -16.05 -7.85 L-16.05 -8.1 M-16.1 -16.9 Q-15.95 -17.05 -15.95 -17.2 -16.0 -17.8 -16.4 -17.8 -16.9 -18.0 -16.85 -17.4 -16.85 -17.3 -16.75 -17.1 -16.7 -16.95 -16.4 -16.8 -16.25 -16.75 -16.1 -16.9 M-16.25 -20.05 L-16.2 -20.35 Q-16.4 -20.95 -16.65 -21.0 -17.05 -21.1 -17.0 -20.65 -17.0 -20.55 -16.95 -20.4 -16.9 -20.25 -16.6 -20.05 L-16.35 -20.0 Q-16.3 -20.1 -16.25 -20.05 M-15.4 -19.85 Q-15.45 -20.45 -15.75 -20.45 -16.2 -20.55 -16.15 -20.15 -16.2 -20.1 -16.1 -19.95 L-15.8 -19.6 Q-15.6 -19.6 -15.45 -19.7 L-15.4 -19.85 M-13.0 -19.75 Q-12.85 -19.85 -12.8 -20.1 -12.85 -20.55 -13.35 -20.75 -13.9 -21.05 -13.85 -20.5 -13.85 -20.35 -13.8 -20.2 -13.7 -19.9 -13.4 -19.75 L-13.0 -19.75 M-19.35 -15.35 Q-19.35 -15.3 -19.0 -14.9 -18.95 -14.95 -18.8 -14.9 L-18.7 -14.9 Q-18.75 -14.9 -18.7 -14.9 L-18.65 -15.1 -18.7 -15.35 -18.75 -15.45 Q-19.2 -15.7 -19.25 -15.6 -19.35 -15.55 -19.35 -15.35 M-20.55 -14.4 Q-21.1 -14.75 -21.25 -14.65 -21.45 -14.6 -21.35 -14.3 -21.4 -14.15 -21.35 -14.05 -21.25 -13.85 -21.0 -13.7 -20.85 -13.7 -20.65 -13.75 -20.5 -13.95 -20.5 -14.1 L-20.55 -14.3 Q-20.6 -14.4 -20.55 -14.4 M-19.6 -18.3 L-19.3 -17.95 Q-18.8 -17.9 -18.8 -18.15 L-18.85 -18.4 -18.9 -18.5 Q-19.35 -18.85 -19.55 -18.75 -19.7 -18.75 -19.65 -18.55 -19.7 -18.45 -19.6 -18.3 M-19.85 -20.95 Q-19.9 -20.85 -19.8 -20.7 L-19.75 -20.65 Q-19.65 -20.6 -19.45 -20.55 -19.35 -20.55 -19.3 -20.5 L-19.25 -20.75 Q-19.35 -20.9 -19.3 -20.95 -19.6 -21.15 -19.7 -21.15 -19.9 -21.2 -19.85 -20.95 M-17.9 -22.1 Q-17.75 -22.25 -17.75 -22.45 -17.8 -23.1 -18.3 -23.3 -18.8 -23.6 -18.75 -22.9 -18.85 -22.9 -18.75 -22.7 -18.65 -22.35 -18.25 -22.15 L-17.9 -22.1 M-22.7 -23.25 Q-22.7 -23.15 -22.65 -23.0 -22.55 -22.75 -22.25 -22.6 L-21.95 -22.7 Q-21.85 -22.85 -21.8 -22.95 -21.9 -23.5 -22.25 -23.6 -22.75 -23.75 -22.7 -23.25 M-21.55 -24.0 Q-21.5 -24.05 -21.45 -24.0 L-21.4 -24.35 Q-21.6 -24.85 -21.9 -24.85 -22.25 -24.95 -22.15 -24.6 -22.25 -24.65 -22.15 -24.45 -22.1 -24.2 -21.8 -24.05 L-21.55 -24.0 M-12.85 -10.3 L-13.2 -10.5 -12.95 -10.25 Q-12.95 -10.3 -12.85 -10.25 L-12.85 -10.3 M-21.4 -12.1 L-21.35 -11.4 Q-21.4 -11.0 -21.35 -10.9 -21.4 -10.75 -20.8 -9.9 -20.2 -9.0 -19.55 -8.75 L-19.4 -8.7 Q-19.45 -8.8 -19.4 -8.75 -19.4 -8.95 -19.35 -9.15 -19.4 -9.4 -19.35 -9.5 -19.4 -10.0 -20.1 -11.0 -20.95 -12.2 -21.4 -12.1 M-22.5 -12.7 Q-22.85 -12.85 -22.8 -12.5 -22.85 -12.4 -22.8 -12.3 L-22.75 -12.2 -22.45 -12.05 Q-22.15 -12.0 -22.1 -12.25 -22.15 -12.6 -22.5 -12.7 M-3.3 -1.1 Q-3.35 -1.05 -3.25 -0.9 -3.2 -0.7 -2.95 -0.55 -2.8 -0.55 -2.65 -0.65 L-2.55 -0.85 Q-2.55 -1.2 -2.9 -1.3 -3.3 -1.5 -3.3 -1.1 M-3.85 -2.5 Q-3.85 -2.85 -4.0 -3.05 -4.2 -3.3 -4.45 -3.35 L-4.9 -3.3 Q-5.15 -3.25 -5.1 -2.95 -5.2 -2.85 -5.1 -2.65 -5.0 -2.4 -4.65 -2.25 -4.3 -2.15 -4.05 -2.15 -3.9 -2.3 -3.85 -2.5 M-6.15 -5.0 Q-6.5 -4.9 -6.5 -4.45 -6.55 -4.3 -6.45 -4.05 -6.35 -3.65 -5.85 -3.45 -5.45 -3.35 -5.05 -3.5 -4.75 -3.75 -4.7 -3.95 -4.7 -4.4 -4.95 -4.65 -5.25 -5.0 -5.55 -5.05 -5.95 -5.2 -6.15 -5.0 M-7.05 -12.7 Q-6.95 -12.4 -6.6 -12.2 L-6.35 -12.25 Q-6.2 -12.35 -6.2 -12.45 -6.2 -12.85 -6.65 -13.15 -7.2 -13.55 -7.2 -13.0 -7.25 -12.95 -7.05 -12.7 M-2.55 -7.95 L-2.5 -7.8 -2.45 -7.7 -2.2 -7.55 Q-1.9 -7.45 -1.85 -7.7 L-1.85 -7.9 -1.9 -8.0 Q-2.25 -8.2 -2.35 -8.2 -2.55 -8.2 -2.55 -7.95 M0.75 2.35 L0.85 2.2 Q0.85 1.9 0.65 1.8 0.4 1.6 0.2 1.95 L0.2 2.15 0.3 2.3 0.45 2.4 0.75 2.35" fill="#e6c89c" fill-rule="evenodd" stroke="none"/>
  </g>
</svg>
