<?xml version="1.0" encoding="UTF-8" standalone="no"?>
<svg xmlns:ffdec="https://www.free-decompiler.com/flash" xmlns:xlink="http://www.w3.org/1999/xlink" ffdec:objectType="shape" height="54.3px" width="68.8px" xmlns="http://www.w3.org/2000/svg">
  <g transform="matrix(1.0, 0.0, 0.0, 1.0, 34.15, 42.9)">
    <path d="M-26.55 -5.9 Q-27.1 -4.75 -27.55 -4.9 -27.8 -5.0 -27.8 -5.05 L-27.85 -5.1 -27.9 -5.3 -27.7 -8.05 Q-27.5 -10.85 -27.6 -12.6 L-27.7 -13.05 Q-27.7 -13.25 -27.65 -13.35 L-27.9 -13.6 Q-28.15 -13.85 -28.15 -13.9 -28.15 -14.05 -28.05 -14.3 -27.95 -14.6 -27.95 -14.7 -28.0 -15.05 -28.35 -15.3 -28.7 -15.6 -28.7 -15.75 L-28.35 -16.6 Q-28.05 -17.5 -28.05 -17.75 L-28.3 -18.9 Q-28.5 -20.15 -28.5 -20.7 -28.55 -21.2 -28.55 -22.4 L-28.6 -23.65 Q-28.65 -23.95 -29.25 -26.9 L-29.75 -29.35 -29.85 -29.4 Q-30.0 -30.1 -30.15 -31.0 L-30.4 -32.6 -30.45 -33.05 Q-30.85 -34.95 -31.65 -35.55 -31.9 -35.7 -32.3 -35.9 -32.55 -36.05 -32.6 -36.35 -33.95 -37.4 -34.15 -39.45 L-34.15 -39.7 Q-34.2 -39.9 -34.15 -40.1 L-34.1 -40.2 Q-34.05 -40.55 -33.9 -40.9 -33.6 -41.8 -32.9 -42.3 -31.5 -43.45 -29.5 -42.4 -28.8 -42.4 -27.85 -41.95 -26.55 -41.85 -24.65 -41.55 -21.95 -41.15 -20.75 -40.8 -18.7 -40.25 -16.15 -39.85 L-11.15 -39.0 -6.6 -38.35 Q-4.85 -38.1 -3.65 -37.75 L-3.5 -37.7 Q-3.15 -37.6 -2.85 -37.45 -2.15 -36.75 -0.35 -35.55 -0.1 -35.5 0.3 -35.35 L1.85 -34.85 Q3.55 -34.35 3.5 -33.5 L3.4 -33.25 6.2 -31.7 Q13.5 -27.9 14.7 -27.15 L17.5 -25.85 Q17.65 -26.25 18.1 -25.7 18.45 -25.3 18.55 -24.95 L19.2 -24.9 19.25 -24.75 Q22.25 -22.5 24.75 -19.75 25.7 -18.75 27.0 -17.2 L28.9 -14.9 Q31.2 -12.4 32.25 -11.15 L32.95 -10.3 Q33.5 -9.2 34.0 -8.3 34.3 -7.7 34.6 -7.25 34.65 -6.75 34.65 -6.55 L34.55 -6.4 34.5 -6.3 Q34.4 -6.2 34.25 -6.25 L33.65 -7.0 33.5 -7.25 33.4 -7.3 33.05 -7.85 Q32.85 -8.1 32.65 -8.25 31.75 -9.4 31.45 -9.7 L31.3 -9.85 31.2 -9.8 Q30.9 -10.15 30.55 -10.35 L30.5 -10.35 30.7 -10.4 29.65 -11.5 Q28.8 -12.45 28.35 -13.2 28.15 -13.5 26.45 -15.1 L24.2 -17.25 21.85 -19.55 Q19.4 -21.85 19.0 -22.05 18.95 -22.1 18.55 -22.05 L18.1 -22.05 Q17.85 -22.15 17.7 -22.5 L17.65 -22.4 17.4 -22.35 Q16.85 -22.6 16.75 -22.95 L16.65 -23.3 16.55 -23.7 Q16.4 -24.0 16.05 -24.25 15.85 -24.6 15.35 -24.8 L15.1 -24.9 15.1 -24.95 Q13.8 -25.75 11.6 -26.65 11.5 -26.6 10.25 -27.05 10.2 -27.15 10.1 -27.15 9.5 -27.8 9.25 -27.45 L8.85 -27.65 Q7.15 -28.4 5.25 -29.7 L3.25 -31.1 Q2.65 -31.4 2.1 -31.45 L1.5 -31.55 1.2 -31.75 Q0.95 -32.05 0.65 -32.15 0.35 -32.3 0.15 -32.35 L-0.15 -32.6 Q-0.45 -32.7 -0.85 -32.95 -1.45 -33.25 -1.9 -32.65 -2.35 -32.1 -2.6 -32.05 L-2.6 -32.2 -2.8 -32.2 Q-2.85 -32.3 -2.9 -33.15 -3.0 -33.95 -3.15 -34.0 -3.45 -34.15 -4.3 -34.3 -4.65 -34.55 -5.15 -34.5 L-5.3 -34.45 -5.8 -34.55 -8.15 -34.85 -9.75 -35.6 -8.95 -35.45 -9.45 -35.7 -10.5 -35.95 -10.35 -35.85 -13.25 -36.55 Q-14.25 -36.8 -14.8 -36.85 L-15.8 -36.75 Q-18.15 -36.75 -20.1 -37.55 -22.0 -38.4 -24.3 -38.45 -25.85 -38.5 -26.6 -38.05 -26.05 -37.2 -25.65 -36.4 L-25.6 -36.3 Q-24.5 -34.65 -22.65 -32.9 L-20.65 -31.1 -20.6 -31.05 Q-20.35 -30.85 -20.0 -30.55 L-17.75 -28.6 -14.2 -25.45 Q-13.9 -25.05 -13.45 -24.85 L-13.4 -24.85 Q-13.45 -24.85 -13.4 -24.75 L-13.45 -24.75 -12.9 -24.25 Q-10.3 -22.0 -9.3 -21.4 -8.85 -21.15 -8.35 -20.8 L-8.35 -20.85 -8.0 -20.7 Q-7.65 -20.4 -7.25 -20.15 L-7.25 -20.1 Q-7.15 -19.85 -6.9 -19.65 L-7.0 -19.7 Q-6.25 -18.95 -5.75 -18.15 L-4.9 -16.55 Q-4.35 -15.6 -3.75 -14.85 -2.7 -13.55 -1.0 -11.55 L1.4 -8.65 3.25 -6.55 Q3.45 -5.9 4.05 -5.6 L4.05 -5.55 4.1 -5.45 Q4.3 -5.35 4.5 -5.15 L4.6 -5.05 Q4.75 -5.0 4.9 -4.8 L4.95 -4.8 4.95 -4.65 5.05 -4.35 5.05 -4.1 5.15 -3.95 Q5.25 -3.8 5.35 -3.6 5.35 -2.9 5.9 -1.45 L6.85 0.9 Q7.35 2.6 7.7 3.6 7.9 4.05 8.1 4.4 L8.3 5.25 8.75 7.15 8.8 7.45 8.95 8.2 8.95 8.35 9.0 8.3 Q9.05 8.7 9.15 9.15 9.1 9.15 9.1 9.25 L9.1 9.5 9.05 10.05 8.8 10.65 8.45 11.2 8.3 11.4 Q8.05 11.1 7.95 10.2 7.9 9.55 7.9 8.65 7.8 8.15 7.45 7.15 L6.9 5.55 5.75 2.8 5.35 1.75 4.9 0.7 Q4.55 -0.4 4.5 -0.95 L4.05 -1.75 3.7 -2.45 Q3.55 -2.6 3.5 -2.7 3.35 -2.9 3.35 -3.05 2.75 -3.35 2.55 -3.9 L2.45 -4.15 Q2.2 -4.95 1.3 -6.3 0.4 -7.7 -0.25 -8.35 L-2.1 -10.3 -2.15 -10.45 Q-2.6 -11.55 -3.35 -11.85 L-3.5 -11.9 -3.75 -12.2 -3.8 -12.0 -4.0 -12.05 Q-4.1 -12.1 -4.2 -12.25 -4.35 -12.45 -4.5 -12.5 -5.0 -12.45 -5.1 -12.2 L-5.45 -12.3 Q-5.5 -12.4 -5.4 -12.5 L-5.35 -12.8 Q-5.35 -13.05 -5.7 -13.45 L-6.25 -14.05 Q-6.15 -14.3 -5.75 -14.45 L-5.7 -14.45 -5.8 -14.6 Q-6.05 -15.0 -6.3 -15.35 -7.05 -16.35 -7.85 -16.65 L-7.9 -16.55 -7.95 -16.4 Q-7.85 -16.25 -7.85 -16.15 L-8.05 -15.85 Q-8.3 -15.65 -8.65 -15.7 L-8.95 -16.3 Q-9.25 -16.85 -9.45 -16.9 -9.7 -17.0 -9.8 -16.85 -9.95 -16.7 -10.05 -16.75 L-10.2 -16.85 Q-10.05 -17.2 -10.05 -17.35 -10.05 -17.55 -10.1 -17.8 L-10.1 -17.85 -10.15 -17.9 -10.3 -18.2 -10.25 -18.3 Q-10.25 -18.6 -10.6 -19.0 L-10.7 -19.15 -10.6 -19.1 Q-11.4 -20.3 -13.5 -22.05 -14.5 -22.9 -16.1 -24.15 L-17.65 -25.35 Q-17.7 -25.45 -17.8 -25.5 -17.8 -25.55 -17.85 -25.55 L-18.1 -25.8 -22.0 -29.4 -22.1 -29.45 -22.95 -30.3 Q-25.85 -32.95 -26.65 -33.95 L-27.35 -34.4 Q-27.5 -34.0 -27.7 -33.2 -27.9 -32.45 -27.95 -32.0 -28.0 -31.85 -27.95 -31.75 -27.9 -30.9 -27.65 -30.1 -27.45 -29.3 -27.4 -28.85 L-27.4 -28.8 -27.1 -27.3 -27.0 -26.7 -26.6 -24.65 Q-26.6 -24.4 -26.5 -23.9 L-26.5 -23.8 -26.45 -23.5 -26.4 -23.05 -26.35 -23.05 -26.3 -22.5 -26.25 -22.55 Q-26.25 -22.25 -26.15 -21.95 L-26.2 -22.0 Q-25.95 -20.5 -25.85 -19.8 -25.8 -18.3 -25.7 -17.0 -25.75 -16.65 -25.7 -16.3 -25.7 -16.2 -25.65 -16.0 -25.65 -15.35 -25.6 -14.75 L-25.5 -14.5 -25.4 -13.85 -25.4 -13.7 Q-25.4 -13.55 -25.5 -12.9 -25.65 -12.4 -25.6 -11.9 L-25.6 -11.75 Q-25.6 -11.55 -25.3 -10.55 L-25.1 -9.45 Q-25.05 -9.3 -25.15 -9.15 -25.3 -9.05 -25.45 -9.05 L-25.6 -9.15 -25.75 -8.6 -26.0 -7.5 Q-26.3 -6.9 -26.6 -6.1 -26.6 -6.0 -26.55 -5.9 M-0.05 -34.2 Q0.15 -34.3 0.55 -34.2 1.05 -34.1 2.25 -33.55 2.45 -33.45 2.7 -33.55 L2.7 -33.65 Q2.75 -33.9 1.9 -34.15 1.1 -34.5 0.05 -34.7 L-0.4 -34.8 -1.25 -35.35 -2.95 -36.65 Q-4.6 -37.4 -10.0 -38.35 -14.1 -39.05 -16.2 -39.3 -16.95 -39.35 -19.45 -40.0 -22.5 -40.8 -23.95 -41.05 -24.05 -41.1 -26.0 -41.0 -27.65 -41.0 -28.6 -41.35 L-28.95 -41.55 -29.4 -41.7 -29.85 -41.75 -31.05 -41.95 -31.75 -41.9 Q-31.8 -41.95 -31.8 -41.9 L-31.95 -41.85 -32.0 -41.8 -32.55 -41.5 Q-32.65 -41.45 -32.7 -41.35 -33.4 -41.0 -33.6 -40.5 -33.85 -40.0 -33.75 -39.15 L-33.65 -38.55 Q-33.65 -38.25 -33.55 -38.1 -33.5 -37.8 -33.2 -37.5 L-32.25 -36.7 Q-31.75 -36.2 -31.15 -35.55 L-30.7 -35.05 Q-30.65 -35.05 -30.6 -34.95 L-30.55 -34.9 -30.55 -34.85 -30.6 -34.8 -30.55 -34.6 -30.45 -34.5 -30.45 -34.45 Q-30.15 -33.9 -30.05 -33.35 L-30.05 -33.3 -30.0 -33.25 -30.0 -33.05 -29.95 -32.85 Q-29.95 -32.35 -29.75 -31.2 L-29.65 -30.9 Q-29.2 -29.7 -29.1 -28.5 L-29.1 -28.45 Q-29.05 -27.5 -28.4 -23.6 L-28.1 -21.9 -27.75 -19.85 Q-27.7 -18.8 -27.65 -17.45 L-27.65 -16.85 Q-27.75 -16.75 -27.85 -16.55 -28.05 -16.25 -28.05 -16.1 -28.05 -15.9 -28.0 -15.85 L-27.9 -15.75 -27.6 -15.8 -27.55 -15.4 -27.55 -14.45 -27.85 -14.05 -27.8 -14.0 -27.7 -13.85 -27.35 -13.5 -27.25 -13.35 -27.1 -13.15 -26.15 -12.1 -25.9 -11.7 Q-25.9 -11.65 -26.0 -11.35 L-26.0 -11.25 Q-26.1 -11.0 -26.05 -10.6 -26.05 -10.55 -25.9 -10.35 L-25.85 -10.25 -25.6 -10.0 -25.6 -10.5 Q-25.65 -10.85 -25.85 -11.7 -26.1 -12.6 -26.15 -13.05 -26.15 -13.3 -26.1 -14.05 -26.3 -14.85 -26.3 -16.35 L-26.35 -18.2 -26.35 -18.45 Q-26.4 -18.85 -26.5 -19.1 L-26.45 -19.5 Q-26.45 -19.85 -26.6 -20.15 -26.8 -20.55 -27.1 -21.0 L-27.2 -21.15 -27.25 -21.2 -27.25 -21.25 Q-27.7 -21.9 -27.75 -22.2 L-27.8 -22.25 Q-27.8 -22.45 -27.75 -22.65 L-27.65 -22.95 -27.6 -22.95 -27.55 -22.9 Q-27.5 -22.75 -27.5 -22.55 L-27.5 -22.5 -27.55 -22.2 Q-27.55 -22.0 -27.3 -21.65 L-27.25 -21.55 Q-27.0 -21.2 -26.65 -21.15 -26.55 -21.0 -26.4 -20.7 -26.65 -22.7 -27.2 -25.05 L-27.25 -25.25 Q-27.75 -27.15 -27.95 -28.55 L-28.1 -29.1 Q-28.25 -29.8 -28.3 -30.0 -28.3 -30.15 -28.25 -31.7 -28.3 -32.0 -28.25 -32.15 L-28.25 -33.4 -28.25 -33.55 Q-28.3 -33.75 -28.45 -34.15 -28.6 -34.5 -28.6 -34.65 -28.6 -34.85 -28.55 -35.0 L-29.0 -35.65 -29.45 -36.35 Q-29.65 -36.4 -29.95 -36.55 -30.4 -36.75 -30.45 -36.2 L-30.45 -36.1 Q-30.45 -35.5 -30.4 -35.45 L-30.5 -35.4 -30.65 -35.4 Q-30.8 -35.6 -30.85 -35.85 L-30.9 -35.95 Q-31.05 -36.25 -31.0 -36.5 L-31.0 -36.55 Q-31.05 -36.7 -31.0 -36.8 -31.0 -37.0 -30.85 -37.1 -30.7 -37.25 -30.3 -37.15 -30.25 -37.15 -30.2 -37.1 -30.05 -37.0 -29.8 -36.85 L-29.8 -36.9 -29.7 -36.85 -29.7 -37.0 Q-29.7 -37.1 -29.6 -37.1 L-29.65 -37.2 -29.65 -37.3 -29.7 -37.55 -29.7 -38.1 Q-29.7 -38.3 -29.65 -38.35 -29.6 -38.45 -29.45 -38.45 L-29.5 -38.45 -29.55 -38.6 Q-29.75 -38.85 -29.85 -39.25 L-29.95 -39.55 -30.0 -39.9 Q-30.05 -40.3 -30.0 -40.4 L-30.0 -40.35 Q-30.1 -40.4 -30.1 -40.6 -30.15 -41.0 -30.0 -41.2 -29.8 -41.55 -29.3 -41.05 L-29.7 -40.7 -30.0 -40.45 -29.85 -40.35 Q-29.8 -40.25 -29.7 -40.0 L-29.6 -39.55 Q-29.6 -39.4 -29.5 -39.25 L-29.5 -39.2 -29.45 -39.15 Q-29.35 -38.95 -29.1 -38.75 L-28.9 -38.55 -28.9 -38.35 Q-28.8 -38.3 -28.65 -38.25 L-28.25 -38.15 -27.7 -38.05 -27.75 -38.4 Q-27.75 -38.55 -27.7 -38.65 L-27.8 -38.9 -27.95 -39.25 Q-28.3 -40.05 -28.3 -40.4 L-28.3 -40.9 -28.1 -40.85 Q-28.15 -40.75 -28.1 -40.35 -28.1 -40.1 -27.85 -39.8 L-27.75 -39.65 -27.55 -39.4 -27.25 -39.1 -27.2 -39.1 -26.35 -39.15 -25.6 -38.95 -23.75 -38.55 -22.2 -38.4 -21.8 -38.35 -21.7 -38.35 -21.5 -38.3 -21.0 -38.3 -20.8 -38.25 -19.15 -38.0 -19.1 -38.0 Q-18.95 -37.95 -18.7 -37.7 L-18.65 -37.65 Q-18.5 -37.45 -18.35 -37.4 -17.2 -36.9 -15.7 -37.4 -14.8 -37.8 -14.45 -38.15 -14.35 -38.4 -14.35 -38.55 -14.35 -39.0 -14.05 -38.85 -14.0 -38.75 -14.05 -38.6 L-14.2 -38.45 Q-14.15 -38.45 -14.05 -38.25 L-13.9 -37.95 Q-13.7 -37.65 -13.65 -37.45 -13.3 -37.25 -12.7 -36.95 L-12.3 -36.9 Q-12.0 -36.9 -11.85 -36.85 L-11.8 -36.8 Q-11.05 -36.8 -9.55 -36.3 -9.2 -36.3 -8.65 -36.1 L-7.6 -35.7 Q-7.2 -35.55 -7.05 -35.35 L-4.8 -35.25 Q-3.55 -35.2 -2.95 -34.7 -2.25 -34.15 -2.35 -32.95 L-2.35 -32.9 -2.3 -32.9 -2.3 -32.95 Q-1.85 -33.4 -1.25 -33.6 L-1.0 -33.7 Q-0.2 -33.9 -0.15 -33.95 L-0.15 -34.0 -0.1 -34.15 -0.05 -34.2 M1.5 -33.5 Q1.05 -33.65 0.4 -33.8 L0.55 -33.45 Q0.65 -33.25 0.65 -33.1 L0.6 -32.8 Q1.6 -32.3 4.35 -30.55 7.25 -28.75 7.45 -28.7 L10.0 -27.65 10.0 -27.7 10.2 -27.6 10.15 -27.6 10.45 -27.5 13.35 -26.35 Q14.5 -25.85 15.45 -25.1 15.55 -25.1 15.65 -25.0 16.25 -24.55 16.85 -23.95 17.25 -23.55 17.6 -23.05 L17.65 -23.0 17.6 -23.1 Q17.6 -23.55 17.7 -23.9 L17.75 -24.05 17.75 -24.15 17.9 -24.55 Q17.8 -24.7 17.8 -24.8 L14.6 -26.35 Q12.5 -27.45 9.25 -29.25 4.75 -31.8 2.85 -32.8 2.75 -32.7 2.65 -32.55 L2.5 -32.55 1.85 -33.35 1.5 -33.5 M34.05 -7.05 L34.15 -7.0 34.05 -7.45 34.1 -7.4 34.1 -7.45 Q33.55 -8.45 32.8 -9.4 L32.5 -9.75 31.15 -11.4 29.2 -13.7 28.5 -14.65 Q26.25 -17.55 24.1 -19.7 21.55 -22.25 18.8 -24.2 18.6 -24.1 18.45 -24.0 18.3 -23.95 18.25 -23.9 18.2 -23.9 18.2 -23.85 L18.05 -23.7 18.0 -23.5 Q18.0 -23.05 18.45 -22.8 19.15 -22.65 19.4 -22.5 19.5 -22.5 21.35 -20.6 23.45 -18.4 23.9 -17.95 L26.35 -15.9 Q28.1 -14.4 28.4 -13.85 28.7 -13.35 29.65 -12.35 L29.75 -12.3 29.75 -12.25 31.3 -10.75 31.45 -10.6 31.45 -10.55 32.2 -9.85 33.6 -8.05 33.8 -7.7 33.9 -7.6 Q33.95 -7.6 33.95 -7.45 L34.05 -7.1 34.05 -7.05 M-3.25 -12.8 Q-3.55 -12.85 -3.65 -12.75 L-3.65 -12.7 Q-3.4 -12.55 -2.9 -12.05 -1.9 -11.05 -0.4 -9.25 0.95 -7.6 1.95 -6.15 2.95 -4.75 2.9 -4.45 L2.85 -4.35 2.95 -3.8 3.25 -3.75 3.5 -3.7 3.7 -3.9 Q3.7 -3.95 3.75 -3.95 L3.8 -4.0 Q3.85 -4.1 4.0 -4.1 4.35 -4.15 4.5 -4.35 L4.45 -4.55 Q3.95 -4.95 3.55 -5.05 L1.35 -8.05 Q0.65 -9.0 -0.85 -10.8 L-2.05 -12.25 Q-2.2 -12.2 -2.35 -12.3 L-2.55 -12.6 Q-3.0 -12.75 -3.25 -12.8 M8.55 10.1 L8.65 9.9 Q8.65 9.7 8.7 9.6 L8.5 7.95 Q8.2 6.1 7.55 4.3 6.75 2.1 6.05 0.0 L5.9 -0.5 Q5.35 -1.7 5.1 -2.45 4.85 -3.05 4.35 -3.9 L4.2 -3.9 Q4.05 -3.9 3.95 -3.75 3.85 -3.6 3.85 -3.45 L3.9 -3.35 4.55 -1.65 Q5.45 0.5 6.1 2.25 8.25 7.9 8.45 10.6 L8.45 10.55 8.55 10.15 8.55 10.1 M31.0 -11.4 L31.2 -11.1 31.15 -11.2 31.0 -11.4 M-18.6 -28.65 L-18.6 -28.7 -18.65 -28.7 -18.7 -28.75 -19.0 -29.0 Q-20.25 -30.1 -21.25 -31.0 L-22.15 -31.9 Q-23.35 -33.1 -24.2 -34.05 L-25.15 -35.3 -24.8 -34.5 -24.85 -34.45 Q-25.35 -34.8 -26.1 -36.0 L-26.5 -36.7 Q-26.6 -36.75 -26.65 -36.8 L-26.9 -37.1 -27.15 -37.5 -27.3 -37.55 Q-27.65 -37.7 -27.65 -37.75 L-27.65 -37.8 Q-28.0 -37.75 -28.45 -37.9 L-29.0 -38.15 -29.2 -38.05 -29.4 -37.9 -29.25 -37.75 Q-29.35 -37.7 -29.35 -37.5 -29.35 -37.0 -26.25 -34.05 -24.35 -32.2 -19.5 -27.85 -14.45 -23.3 -12.7 -21.7 -9.6 -18.75 -9.6 -18.3 L-9.65 -17.9 -9.65 -17.45 Q-9.6 -17.4 -9.3 -17.4 -9.0 -17.4 -8.8 -17.05 -8.6 -16.65 -8.3 -16.65 -7.95 -16.65 -7.95 -17.05 -7.95 -17.25 -8.0 -17.4 L-8.1 -17.6 -7.9 -17.75 -7.3 -17.5 Q-7.0 -17.3 -6.55 -17.3 L-6.45 -17.3 -6.15 -16.8 Q-5.6 -16.65 -5.25 -15.9 -4.95 -15.2 -4.95 -14.8 L-5.1 -14.45 -5.1 -14.35 Q-5.25 -14.05 -5.25 -13.9 -5.25 -13.7 -5.1 -13.35 -4.9 -13.0 -4.65 -12.85 L-4.6 -12.85 -4.5 -12.85 -4.25 -12.9 Q-4.05 -13.05 -3.95 -13.15 -3.9 -13.2 -3.8 -13.2 L-2.8 -13.25 -3.5 -14.05 -4.95 -15.9 Q-5.9 -17.05 -6.05 -17.55 -6.0 -17.7 -6.0 -17.85 -6.0 -18.05 -6.2 -18.15 -6.25 -18.2 -6.45 -18.3 -6.8 -18.75 -7.3 -19.25 -7.9 -19.8 -9.25 -20.9 L-10.5 -21.95 -11.2 -22.55 -13.55 -24.5 Q-16.85 -27.15 -18.6 -28.65 M-26.6 -10.6 L-26.55 -11.0 -26.55 -11.05 -26.5 -11.5 Q-26.55 -12.1 -27.15 -12.8 L-27.05 -12.4 Q-26.9 -10.1 -27.1 -8.25 -27.35 -6.55 -27.3 -6.05 L-27.25 -5.85 -27.25 -5.8 Q-27.2 -5.95 -26.95 -6.35 L-26.8 -6.7 -26.8 -6.8 Q-26.85 -7.05 -26.6 -7.2 L-26.55 -7.2 Q-26.4 -7.7 -26.4 -8.0 -26.4 -8.1 -26.3 -8.45 -26.25 -8.75 -26.25 -8.9 L-26.35 -9.4 -26.4 -9.85 -26.4 -10.1 Q-26.55 -10.3 -26.6 -10.45 L-26.6 -10.6 M-6.5 -16.85 L-6.85 -16.95 -7.0 -17.05 -7.5 -17.05 Q-7.2 -16.8 -6.7 -16.25 -6.25 -15.7 -5.75 -15.1 L-5.4 -14.65 -5.35 -14.9 Q-5.35 -15.1 -5.7 -15.75 -6.1 -16.5 -6.5 -16.75 L-6.5 -16.85" fill="#111111" fill-rule="evenodd" stroke="none"/>
    <path d="M-31.75 -41.9 L-31.05 -41.95 -29.85 -41.75 -29.4 -41.7 -28.95 -41.55 -28.6 -41.35 Q-27.65 -41.0 -26.0 -41.0 -24.05 -41.1 -23.95 -41.05 -22.5 -40.8 -19.45 -40.0 -16.95 -39.35 -16.2 -39.3 -14.1 -39.05 -10.0 -38.35 -4.6 -37.4 -2.95 -36.65 L-1.25 -35.35 -0.4 -34.8 0.05 -34.7 Q1.1 -34.5 1.9 -34.15 2.75 -33.9 2.7 -33.65 L2.7 -33.55 Q2.45 -33.45 2.25 -33.55 1.05 -34.1 0.55 -34.2 0.15 -34.3 -0.05 -34.2 -1.65 -35.45 -2.65 -35.95 -2.9 -36.05 -3.85 -36.25 -5.0 -36.55 -6.65 -37.2 -5.6 -36.65 -4.45 -35.85 -5.75 -36.2 -8.4 -36.65 -12.15 -37.35 -12.3 -37.4 L-13.7 -38.1 Q-13.9 -38.25 -14.05 -38.25 -14.15 -38.45 -14.2 -38.45 L-14.05 -38.6 Q-14.0 -38.75 -14.05 -38.85 -14.35 -39.0 -14.35 -38.55 -14.35 -38.4 -14.45 -38.15 -15.1 -38.5 -16.25 -38.65 L-18.4 -38.8 -20.2 -39.0 -23.2 -39.45 -23.15 -39.6 Q-23.3 -39.85 -23.5 -40.0 -24.3 -40.55 -24.55 -40.55 -24.75 -40.6 -24.75 -40.3 -24.75 -40.2 -24.65 -40.1 L-24.3 -39.7 -23.9 -39.5 -24.9 -39.65 Q-27.5 -40.05 -27.9 -40.2 L-27.85 -39.8 Q-28.1 -40.1 -28.1 -40.35 -28.15 -40.75 -28.1 -40.85 L-28.3 -40.9 -28.3 -40.4 Q-28.3 -40.05 -27.95 -39.25 L-27.8 -38.9 -28.15 -39.0 Q-29.1 -39.25 -29.5 -39.3 L-29.5 -39.25 Q-29.6 -39.4 -29.6 -39.55 L-29.7 -40.0 Q-29.8 -40.25 -29.85 -40.35 L-30.0 -40.45 -29.7 -40.7 -29.3 -41.05 Q-29.8 -41.55 -30.0 -41.2 -30.15 -41.0 -30.1 -40.6 -30.1 -40.4 -30.0 -40.35 L-30.0 -40.4 Q-30.05 -40.3 -30.0 -39.9 L-29.95 -39.55 Q-30.4 -40.35 -30.9 -41.0 -31.35 -41.6 -31.75 -41.9 M-27.2 -39.1 L-27.25 -39.1 -27.55 -39.4 -27.75 -39.65 -27.2 -39.1 M-29.65 -37.2 L-29.6 -37.1 Q-29.7 -37.1 -29.7 -37.0 L-29.7 -36.85 -29.8 -36.9 -29.8 -36.85 Q-30.05 -37.0 -30.2 -37.1 L-29.75 -37.1 -29.65 -37.2 M-30.3 -37.15 Q-30.7 -37.25 -30.85 -37.1 -31.0 -37.0 -31.0 -36.8 -31.05 -36.7 -31.0 -36.55 L-31.0 -36.5 Q-31.05 -36.25 -30.9 -35.95 L-30.85 -35.85 Q-30.9 -35.8 -30.85 -35.65 -30.85 -35.5 -30.7 -35.05 L-31.15 -35.55 Q-31.4 -36.0 -31.75 -36.45 L-32.55 -37.55 Q-32.95 -38.1 -32.95 -38.15 -32.95 -38.35 -32.75 -38.55 -32.5 -38.8 -32.0 -38.55 L-31.0 -37.8 Q-30.85 -37.4 -30.3 -37.15 M-30.45 -36.2 Q-30.4 -36.75 -29.95 -36.55 -29.65 -36.4 -29.45 -36.35 L-29.0 -35.65 -28.55 -35.0 Q-28.6 -34.85 -28.6 -34.65 -28.6 -34.5 -28.45 -34.15 -28.3 -33.75 -28.25 -33.55 L-28.25 -33.4 Q-28.95 -34.2 -29.6 -34.8 L-30.3 -36.0 -30.45 -36.2 M-28.25 -31.7 Q-28.3 -30.15 -28.3 -30.0 -28.25 -29.8 -28.1 -29.1 L-27.95 -28.55 Q-27.75 -27.15 -27.25 -25.25 L-27.2 -25.05 Q-26.65 -22.7 -26.4 -20.7 -26.55 -21.0 -26.65 -21.15 -27.0 -21.2 -27.25 -21.55 L-27.35 -22.0 -27.5 -22.5 -27.5 -22.55 Q-27.5 -22.75 -27.55 -22.9 L-27.6 -22.95 Q-27.75 -23.95 -28.5 -27.6 L-29.4 -31.9 Q-29.45 -32.15 -29.35 -32.3 -29.3 -32.55 -29.05 -32.55 L-28.65 -32.05 -28.25 -31.7 M-27.2 -21.15 L-27.1 -21.0 Q-26.8 -20.55 -26.6 -20.15 -26.45 -19.85 -26.45 -19.5 L-26.5 -19.1 Q-26.4 -18.85 -26.35 -18.45 L-26.35 -18.2 -26.3 -16.35 Q-26.3 -14.85 -26.1 -14.05 -26.15 -13.3 -26.15 -13.05 -26.1 -12.6 -25.85 -11.7 -25.65 -10.85 -25.6 -10.5 L-25.6 -10.0 -25.85 -10.25 -25.9 -10.35 Q-26.05 -10.55 -26.05 -10.6 -26.1 -11.0 -26.0 -11.25 L-26.0 -11.35 Q-25.9 -11.65 -25.9 -11.7 L-26.15 -12.1 -27.1 -13.15 -27.05 -13.4 Q-26.9 -14.3 -26.85 -15.3 -26.9 -15.4 -27.0 -15.9 -27.2 -16.35 -27.15 -16.5 -27.2 -16.9 -27.05 -17.4 -26.95 -18.0 -26.95 -18.2 L-27.1 -19.55 -27.2 -20.85 -27.2 -20.95 -27.25 -21.1 -27.2 -21.15 M-30.55 -34.6 L-30.6 -34.8 -30.55 -34.6 M-19.0 -29.0 Q-19.05 -28.9 -19.0 -28.7 -19.0 -28.55 -18.95 -28.4 L-18.75 -28.25 Q-18.6 -28.25 -18.45 -28.35 L-18.55 -28.6 -18.6 -28.65 Q-16.85 -27.15 -13.55 -24.5 L-11.2 -22.55 -11.1 -22.05 Q-10.95 -21.5 -10.7 -21.4 L-10.5 -21.35 -10.45 -21.4 -10.4 -21.65 -10.5 -21.95 -9.25 -20.9 Q-7.9 -19.8 -7.3 -19.25 -6.8 -18.75 -6.45 -18.3 -6.2 -17.9 -6.05 -17.6 L-6.05 -17.55 Q-5.9 -17.05 -4.95 -15.9 L-3.5 -14.05 -2.8 -13.25 -3.8 -13.2 -4.25 -14.5 -4.3 -14.5 Q-4.4 -14.35 -4.4 -14.05 -4.5 -13.8 -4.5 -13.55 L-4.5 -12.85 -4.6 -12.85 Q-4.8 -13.7 -5.1 -14.45 L-4.95 -14.8 Q-4.95 -15.2 -5.25 -15.9 -5.6 -16.65 -6.15 -16.8 L-6.45 -17.3 Q-7.05 -18.15 -7.7 -18.4 -8.15 -18.6 -8.55 -19.3 -9.0 -19.95 -9.55 -20.05 -9.2 -19.3 -9.1 -18.45 L-9.05 -18.2 Q-9.4 -18.85 -9.85 -19.6 -11.7 -22.45 -14.75 -24.55 -18.85 -27.4 -22.95 -31.65 -25.05 -33.9 -26.4 -35.55 -27.55 -36.05 -29.25 -37.75 L-29.4 -37.9 -29.2 -38.05 -29.0 -38.15 -28.45 -37.9 Q-28.0 -37.75 -27.65 -37.8 L-27.65 -37.75 Q-27.65 -37.7 -27.3 -37.55 L-27.15 -37.5 -26.9 -37.1 -26.65 -36.8 Q-26.6 -36.75 -26.5 -36.7 L-26.1 -36.0 Q-25.35 -34.8 -24.85 -34.45 L-24.8 -34.5 -25.15 -35.3 -24.2 -34.05 Q-23.35 -33.1 -22.15 -31.9 L-21.25 -31.0 Q-20.25 -30.1 -19.0 -29.0 M-10.6 -38.0 L-10.95 -38.15 -10.95 -37.65 Q-10.4 -37.45 -10.3 -37.45 -10.3 -37.6 -10.15 -37.65 -10.5 -37.95 -10.6 -38.0" fill="#8c1c1c" fill-rule="evenodd" stroke="none"/>
    <path d="M-0.05 -34.2 L-0.1 -34.15 -0.15 -34.0 -0.15 -33.95 Q-0.2 -33.9 -1.0 -33.7 L-1.25 -33.6 Q-1.85 -33.4 -2.3 -32.95 L-2.3 -32.9 -2.35 -32.9 -2.35 -32.95 Q-2.25 -34.15 -2.95 -34.7 -3.55 -35.2 -4.8 -35.25 L-7.05 -35.35 Q-7.2 -35.55 -7.6 -35.7 L-8.65 -36.1 Q-9.2 -36.3 -9.55 -36.3 -11.05 -36.8 -11.8 -36.8 L-11.85 -36.85 Q-12.0 -36.9 -12.3 -36.9 L-12.7 -36.95 Q-13.3 -37.25 -13.65 -37.45 -13.7 -37.65 -13.9 -37.95 L-14.05 -38.25 Q-13.9 -38.25 -13.7 -38.1 L-12.3 -37.4 Q-12.15 -37.35 -8.4 -36.65 -5.75 -36.2 -4.45 -35.85 -5.6 -36.65 -6.65 -37.2 -5.0 -36.55 -3.85 -36.25 -2.9 -36.05 -2.65 -35.95 -1.65 -35.45 -0.05 -34.2 M-14.45 -38.15 Q-14.8 -37.8 -15.7 -37.4 -17.2 -36.9 -18.35 -37.4 -18.5 -37.45 -18.65 -37.65 L-18.7 -37.7 Q-18.95 -37.95 -19.1 -38.0 L-19.15 -38.0 -20.8 -38.25 -21.0 -38.3 -21.7 -38.35 -21.8 -38.35 -22.2 -38.4 -23.75 -38.55 -25.6 -38.95 -26.35 -39.15 -27.2 -39.1 -27.75 -39.65 -27.85 -39.8 -27.9 -40.2 Q-27.5 -40.05 -24.9 -39.65 L-23.9 -39.5 -24.3 -39.7 -24.65 -40.1 Q-24.75 -40.2 -24.75 -40.3 -24.75 -40.6 -24.55 -40.55 -24.3 -40.55 -23.5 -40.0 -23.3 -39.85 -23.15 -39.6 L-23.2 -39.45 -20.2 -39.0 -18.4 -38.8 -16.25 -38.65 Q-15.1 -38.5 -14.45 -38.15 M-27.8 -38.9 L-27.7 -38.65 Q-27.75 -38.55 -27.75 -38.4 L-27.7 -38.05 -28.25 -38.15 -28.65 -38.25 Q-28.8 -38.3 -28.9 -38.35 L-28.9 -38.55 -29.1 -38.75 Q-29.35 -38.95 -29.45 -39.15 L-29.5 -39.2 -29.5 -39.25 -29.5 -39.3 Q-29.1 -39.25 -28.15 -39.0 L-27.8 -38.9 M-29.95 -39.55 L-29.85 -39.25 Q-29.75 -38.85 -29.55 -38.6 L-29.5 -38.45 -29.45 -38.45 Q-29.6 -38.45 -29.65 -38.35 -29.7 -38.3 -29.7 -38.1 L-29.7 -37.55 -29.65 -37.3 -29.65 -37.2 -29.75 -37.1 -30.2 -37.1 Q-30.25 -37.15 -30.3 -37.15 -30.85 -37.4 -31.0 -37.8 L-32.0 -38.55 Q-32.5 -38.8 -32.75 -38.55 -32.95 -38.35 -32.95 -38.15 -32.95 -38.1 -32.55 -37.55 L-31.75 -36.45 Q-31.4 -36.0 -31.15 -35.55 -31.75 -36.2 -32.25 -36.7 L-33.2 -37.5 Q-33.5 -37.8 -33.55 -38.1 -33.65 -38.25 -33.65 -38.55 L-33.75 -39.15 Q-33.85 -40.0 -33.6 -40.5 -33.4 -41.0 -32.7 -41.35 -32.65 -41.45 -32.55 -41.5 L-32.0 -41.8 -31.95 -41.85 -31.8 -41.9 Q-31.8 -41.95 -31.75 -41.9 -31.35 -41.6 -30.9 -41.0 -30.4 -40.35 -29.95 -39.55 M-30.85 -35.85 Q-30.8 -35.6 -30.65 -35.4 L-30.5 -35.4 -30.4 -35.45 Q-30.45 -35.5 -30.45 -36.1 L-30.45 -36.2 -30.3 -36.0 -29.6 -34.8 Q-28.95 -34.2 -28.25 -33.4 L-28.25 -32.15 Q-28.3 -32.0 -28.25 -31.7 L-28.65 -32.05 -29.05 -32.55 Q-29.3 -32.55 -29.35 -32.3 -29.45 -32.15 -29.4 -31.9 L-28.5 -27.6 Q-27.75 -23.95 -27.6 -22.95 L-27.65 -22.95 -27.75 -22.65 Q-27.8 -22.45 -27.8 -22.25 L-27.75 -22.2 Q-27.7 -21.9 -27.25 -21.25 L-27.25 -21.2 -27.2 -21.15 -27.25 -21.1 -27.2 -20.95 -27.2 -20.85 -27.1 -19.55 -26.95 -18.2 Q-26.95 -18.0 -27.05 -17.4 -27.2 -16.9 -27.15 -16.5 -27.2 -16.35 -27.0 -15.9 -26.9 -15.4 -26.85 -15.3 -26.9 -14.3 -27.05 -13.4 L-27.1 -13.15 -27.25 -13.35 -27.35 -13.5 -27.7 -13.85 -27.8 -14.0 -27.85 -14.05 -27.55 -14.45 -27.55 -15.4 -27.6 -15.8 -27.9 -15.75 -28.0 -15.85 Q-28.05 -15.9 -28.05 -16.1 -28.05 -16.25 -27.85 -16.55 -27.75 -16.75 -27.65 -16.85 L-27.65 -17.45 Q-27.7 -18.8 -27.75 -19.85 L-28.1 -21.9 -28.4 -23.6 Q-29.05 -27.5 -29.1 -28.45 L-29.1 -28.5 Q-29.2 -29.7 -29.65 -30.9 L-29.75 -31.2 Q-29.95 -32.35 -29.95 -32.85 L-30.0 -33.05 -30.0 -33.25 -30.05 -33.3 -30.05 -33.35 Q-30.15 -33.9 -30.45 -34.45 L-30.45 -34.5 -30.55 -34.6 -30.6 -34.8 -30.55 -34.85 -30.55 -34.9 -30.6 -34.95 Q-30.65 -35.05 -30.7 -35.05 -30.85 -35.5 -30.85 -35.65 -30.9 -35.8 -30.85 -35.85 M-27.25 -21.55 L-27.3 -21.65 Q-27.55 -22.0 -27.55 -22.2 L-27.5 -22.5 -27.35 -22.0 -27.25 -21.55 M-18.6 -28.65 L-18.55 -28.6 -18.45 -28.35 Q-18.6 -28.25 -18.75 -28.25 L-18.95 -28.4 Q-19.0 -28.55 -19.0 -28.7 -19.05 -28.9 -19.0 -29.0 L-18.7 -28.75 -18.65 -28.7 -18.6 -28.7 -18.6 -28.65 M-29.25 -37.75 Q-27.55 -36.05 -26.4 -35.55 -25.05 -33.9 -22.95 -31.65 -18.85 -27.4 -14.75 -24.55 -11.7 -22.45 -9.85 -19.6 -9.4 -18.85 -9.05 -18.2 L-9.1 -18.45 Q-9.2 -19.3 -9.55 -20.05 -9.0 -19.95 -8.55 -19.3 -8.15 -18.6 -7.7 -18.4 -7.05 -18.15 -6.45 -17.3 L-6.55 -17.3 Q-7.0 -17.3 -7.3 -17.5 L-7.9 -17.75 -8.1 -17.6 -8.0 -17.4 Q-7.95 -17.25 -7.95 -17.05 -7.95 -16.65 -8.3 -16.65 -8.6 -16.65 -8.8 -17.05 -9.0 -17.4 -9.3 -17.4 -9.6 -17.4 -9.65 -17.45 L-9.65 -17.9 -9.6 -18.3 Q-9.6 -18.75 -12.7 -21.7 -14.45 -23.3 -19.5 -27.85 -24.35 -32.2 -26.25 -34.05 -29.35 -37.0 -29.35 -37.5 -29.35 -37.7 -29.25 -37.75 M-5.1 -14.45 Q-4.8 -13.7 -4.6 -12.85 L-4.65 -12.85 Q-4.9 -13.0 -5.1 -13.35 -5.25 -13.7 -5.25 -13.9 -5.25 -14.05 -5.1 -14.35 L-5.1 -14.45 M-4.5 -12.85 L-4.5 -13.55 Q-4.5 -13.8 -4.4 -14.05 -4.4 -14.35 -4.3 -14.5 L-4.25 -14.5 -3.8 -13.2 Q-3.9 -13.2 -3.95 -13.15 -4.05 -13.05 -4.25 -12.9 L-4.5 -12.85 M-6.05 -17.55 L-6.05 -17.6 Q-6.2 -17.9 -6.45 -18.3 -6.25 -18.2 -6.2 -18.15 -6.0 -18.05 -6.0 -17.85 -6.0 -17.7 -6.05 -17.55 M-10.5 -21.95 L-10.4 -21.65 -10.45 -21.4 -10.5 -21.35 -10.7 -21.4 Q-10.95 -21.5 -11.1 -22.05 L-11.2 -22.55 -10.5 -21.95 M-10.6 -38.0 Q-10.5 -37.95 -10.15 -37.65 -10.3 -37.6 -10.3 -37.45 -10.4 -37.45 -10.95 -37.65 L-10.95 -38.15 -10.6 -38.0" fill="#4d0f0f" fill-rule="evenodd" stroke="none"/>
    <path d="M17.75 -24.15 Q17.25 -24.5 16.3 -25.0 L7.1 -29.8 4.35 -31.1 2.9 -32.1 Q1.45 -33.0 1.3 -33.15 L1.5 -33.5 1.85 -33.35 2.5 -32.55 2.65 -32.55 Q2.75 -32.7 2.85 -32.8 4.75 -31.8 9.25 -29.25 12.5 -27.45 14.6 -26.35 L17.8 -24.8 Q17.8 -24.7 17.9 -24.55 L17.75 -24.15 M18.25 -23.9 Q18.3 -23.95 18.45 -24.0 18.6 -24.1 18.8 -24.2 21.55 -22.25 24.1 -19.7 26.25 -17.55 28.5 -14.65 L29.2 -13.7 31.15 -11.4 32.5 -9.75 32.8 -9.4 Q33.55 -8.45 34.1 -7.45 L34.1 -7.4 34.05 -7.45 34.15 -7.0 34.05 -7.05 34.05 -7.1 33.95 -7.45 Q33.95 -7.6 33.9 -7.6 L33.8 -7.7 33.6 -8.05 32.2 -9.85 31.45 -10.55 31.45 -10.6 28.2 -14.85 Q26.05 -17.0 22.7 -19.9 21.05 -21.35 19.9 -22.25 20.3 -22.25 20.65 -22.2 L20.65 -22.3 20.4 -22.45 Q20.2 -22.6 19.6 -23.05 L18.65 -23.7 18.25 -23.9 M-3.25 -12.8 Q-3.0 -12.75 -2.55 -12.6 L-2.35 -12.3 Q-2.2 -12.2 -2.05 -12.25 L-0.85 -10.8 Q0.65 -9.0 1.35 -8.05 L3.55 -5.05 Q3.95 -4.95 4.45 -4.55 L4.5 -4.35 Q4.35 -4.15 4.0 -4.1 3.85 -4.1 3.8 -4.0 L3.75 -3.95 Q3.1 -5.35 0.85 -8.15 -0.5 -9.9 -1.9 -11.35 L-3.25 -12.8 M4.2 -3.9 L4.35 -3.9 Q4.85 -3.05 5.1 -2.45 5.35 -1.7 5.9 -0.5 L6.05 0.0 Q6.75 2.1 7.55 4.3 8.2 6.1 8.5 7.95 L8.7 9.6 Q8.65 9.7 8.65 9.9 L8.55 10.1 Q8.3 7.7 6.75 3.25 5.6 -0.1 4.3 -3.1 4.3 -3.45 4.2 -3.85 L4.2 -3.9 M31.0 -11.4 L31.15 -11.2 31.2 -11.1 31.0 -11.4 M-26.95 -6.35 L-26.7 -10.7 -26.6 -10.6 -26.6 -10.45 Q-26.55 -10.3 -26.4 -10.1 L-26.4 -9.85 -26.35 -9.4 -26.25 -8.9 Q-26.25 -8.75 -26.3 -8.45 -26.4 -8.1 -26.4 -8.0 -26.4 -7.7 -26.55 -7.2 L-26.6 -7.2 Q-26.85 -7.05 -26.8 -6.8 L-26.8 -6.7 -26.95 -6.35" fill="#d9ba8d" fill-rule="evenodd" stroke="none"/>
    <path d="M17.75 -24.15 L17.75 -24.05 17.7 -23.9 Q17.6 -23.55 17.6 -23.1 L17.65 -23.0 17.6 -23.05 Q17.25 -23.55 16.85 -23.95 16.25 -24.55 15.65 -25.0 15.55 -25.1 15.45 -25.1 14.5 -25.85 13.35 -26.35 L10.45 -27.5 10.15 -27.6 10.2 -27.6 10.0 -27.7 10.0 -27.65 7.45 -28.7 Q7.25 -28.75 4.35 -30.55 1.6 -32.3 0.6 -32.8 L0.65 -33.1 Q0.65 -33.25 0.55 -33.45 L0.4 -33.8 Q1.05 -33.65 1.5 -33.5 L1.3 -33.15 Q1.45 -33.0 2.9 -32.1 L4.35 -31.1 7.1 -29.8 16.3 -25.0 Q17.25 -24.5 17.75 -24.15 M18.25 -23.9 L18.65 -23.7 19.6 -23.05 Q20.2 -22.6 20.4 -22.45 L20.65 -22.3 20.65 -22.2 Q20.3 -22.25 19.9 -22.25 21.05 -21.35 22.7 -19.9 26.05 -17.0 28.2 -14.85 L31.45 -10.6 31.3 -10.75 29.75 -12.25 29.75 -12.3 29.65 -12.35 Q28.7 -13.35 28.4 -13.85 28.1 -14.4 26.35 -15.9 L23.9 -17.95 Q23.45 -18.4 21.35 -20.6 19.5 -22.5 19.4 -22.5 19.15 -22.65 18.45 -22.8 18.0 -23.05 18.0 -23.5 L18.05 -23.7 18.2 -23.85 Q18.2 -23.9 18.25 -23.9 M34.05 -7.1 L34.05 -7.05 34.05 -7.1 M3.75 -3.95 Q3.7 -3.95 3.7 -3.9 L3.5 -3.7 3.25 -3.75 2.95 -3.8 2.85 -4.35 2.9 -4.45 Q2.95 -4.75 1.95 -6.15 0.95 -7.6 -0.4 -9.25 -1.9 -11.05 -2.9 -12.05 -3.4 -12.55 -3.65 -12.7 L-3.65 -12.75 Q-3.55 -12.85 -3.25 -12.8 L-1.9 -11.35 Q-0.5 -9.9 0.85 -8.15 3.1 -5.35 3.75 -3.95 M4.2 -3.9 L4.2 -3.85 Q4.3 -3.45 4.3 -3.1 5.6 -0.1 6.75 3.25 8.3 7.7 8.55 10.1 L8.55 10.15 8.45 10.55 8.45 10.6 Q8.25 7.9 6.1 2.25 5.45 0.5 4.55 -1.65 L3.9 -3.35 3.85 -3.45 Q3.85 -3.6 3.95 -3.75 4.05 -3.9 4.2 -3.9 M-26.95 -6.35 Q-27.2 -5.95 -27.25 -5.8 L-27.25 -5.85 -27.3 -6.05 Q-27.35 -6.55 -27.1 -8.25 -26.9 -10.1 -27.05 -12.4 L-27.15 -12.8 Q-26.55 -12.1 -26.5 -11.5 L-26.55 -11.05 -26.55 -11.0 -26.6 -10.6 -26.7 -10.7 -26.95 -6.35 M-6.5 -16.85 L-6.5 -16.75 Q-6.1 -16.5 -5.7 -15.75 -5.35 -15.1 -5.35 -14.9 L-5.4 -14.65 -5.75 -15.1 Q-6.25 -15.7 -6.7 -16.25 -7.2 -16.8 -7.5 -17.05 L-7.0 -17.05 -6.85 -16.95 -6.5 -16.85" fill="#806d53" fill-rule="evenodd" stroke="none"/>
    <path d="M33.4 -7.3 L33.25 -7.35 Q32.6 -7.6 32.0 -7.45 31.9 -7.45 31.8 -7.4 31.55 -7.3 31.0 -6.9 30.55 -6.5 30.35 -6.45 30.35 -6.55 30.4 -7.0 30.45 -7.45 30.4 -7.8 30.25 -8.95 28.95 -9.45 28.6 -9.65 28.3 -9.2 28.1 -9.0 28.05 -8.7 L27.85 -8.8 27.55 -9.0 26.9 -9.25 Q26.45 -9.2 26.3 -8.95 26.1 -8.75 26.05 -8.35 26.0 -8.35 26.0 -8.25 L25.8 -8.3 Q25.75 -8.3 25.7 -8.4 25.65 -8.55 25.4 -8.6 L24.95 -8.85 24.0 -9.05 Q23.85 -9.1 23.7 -9.05 23.7 -9.1 23.75 -9.05 L24.45 -9.6 Q25.15 -10.2 25.35 -10.85 L25.4 -11.35 Q25.4 -11.8 25.45 -11.9 25.55 -12.35 24.85 -13.4 24.05 -14.65 23.1 -15.0 22.0 -15.5 21.6 -14.65 L21.3 -13.95 Q21.15 -13.55 20.95 -13.45 L20.8 -13.8 20.75 -14.0 Q19.4 -14.25 18.8 -14.0 18.25 -13.8 18.15 -13.3 18.1 -13.15 18.15 -12.9 18.2 -12.65 18.15 -12.5 L18.1 -12.35 18.05 -12.25 17.95 -12.25 17.7 -12.3 Q17.6 -12.4 17.55 -12.5 17.45 -12.65 17.35 -12.7 15.35 -13.5 14.4 -9.75 L13.85 -7.2 Q13.6 -6.1 13.4 -6.15 L13.1 -6.3 12.75 -6.2 Q12.15 -6.1 12.1 -5.65 11.9 -4.55 12.55 -3.7 L12.95 -3.1 Q13.15 -2.8 13.05 -2.45 13.0 -2.1 12.7 -2.2 12.45 -2.3 12.3 -2.5 L12.1 -2.7 Q11.45 -2.95 11.1 -2.6 10.95 -2.5 10.9 -2.25 L10.75 -2.25 Q10.4 -2.65 10.1 -4.6 10.1 -4.7 10.55 -5.35 11.0 -6.1 11.15 -6.75 11.15 -6.95 10.95 -7.35 10.75 -7.8 10.45 -8.25 9.65 -9.45 8.95 -9.35 8.95 -9.5 9.1 -9.7 L9.25 -10.1 Q9.25 -10.35 8.85 -11.3 8.35 -12.5 7.8 -12.75 6.65 -13.2 6.1 -12.35 5.8 -12.0 5.75 -11.4 5.65 -10.7 5.8 -9.65 L5.8 -9.5 Q5.9 -8.6 5.85 -8.05 L4.95 -7.65 Q4.05 -7.15 3.95 -6.5 3.9 -6.25 3.95 -6.0 L4.05 -5.6 Q3.45 -5.9 3.25 -6.55 L3.4 -6.35 Q3.4 -6.55 3.45 -6.7 3.5 -7.4 3.9 -8.0 4.5 -9.0 5.55 -8.6 L5.5 -8.75 5.5 -9.4 5.4 -10.7 Q5.4 -11.1 5.5 -12.1 5.6 -12.85 6.15 -13.2 6.65 -13.6 7.35 -13.35 8.05 -13.15 8.6 -12.3 9.25 -11.3 9.55 -9.6 10.9 -8.45 11.25 -7.45 11.45 -6.8 11.3 -5.7 L10.95 -4.95 Q10.6 -4.35 10.6 -4.3 10.6 -4.25 10.7 -3.7 10.8 -3.2 10.9 -2.95 L11.15 -3.0 11.45 -3.1 Q11.85 -3.25 12.4 -3.0 12.05 -3.3 11.9 -4.45 11.7 -5.45 11.8 -5.7 11.85 -6.25 12.15 -6.4 12.3 -6.55 12.9 -6.7 12.95 -6.8 13.15 -6.9 13.45 -7.2 13.7 -8.25 L14.05 -10.3 Q14.0 -11.35 15.0 -12.1 16.05 -13.05 17.75 -13.0 17.8 -13.65 18.1 -14.0 18.65 -14.6 19.85 -14.55 21.05 -14.5 21.4 -15.05 L21.7 -15.45 Q21.85 -15.65 22.25 -15.65 23.2 -15.7 24.35 -14.4 25.3 -13.4 25.55 -12.65 25.6 -12.35 25.65 -11.35 25.65 -10.35 25.6 -10.1 25.6 -10.0 25.2 -9.65 L24.7 -9.25 24.65 -9.25 25.35 -9.2 Q25.8 -9.15 26.1 -9.35 26.3 -9.65 26.5 -9.7 26.9 -9.85 27.85 -9.3 28.2 -9.95 28.75 -9.95 29.25 -10.05 29.75 -9.65 30.2 -9.3 30.5 -8.7 30.8 -8.05 30.8 -7.4 31.25 -7.8 31.7 -7.95 L31.8 -7.95 32.45 -8.0 Q31.65 -9.15 31.5 -9.25 30.85 -9.6 29.9 -11.05 28.85 -12.65 28.25 -13.05 28.1 -13.15 24.35 -16.55 20.25 -20.2 19.0 -20.75 18.3 -21.05 18.25 -21.3 L18.2 -21.55 Q18.1 -21.75 17.95 -21.95 16.2 -22.65 15.5 -23.7 L15.45 -23.65 Q15.1 -23.4 14.65 -23.2 13.45 -22.8 12.3 -23.2 L12.15 -23.25 12.1 -23.3 12.05 -23.3 Q10.95 -23.8 10.15 -25.6 9.85 -26.2 9.65 -26.8 8.95 -27.3 8.9 -27.3 8.5 -27.5 8.15 -27.4 7.8 -27.3 7.2 -27.55 6.4 -27.95 6.05 -28.25 5.95 -28.4 5.7 -28.75 4.9 -29.2 3.55 -29.9 L2.55 -30.4 Q1.9 -30.7 1.5 -31.0 L1.6 -30.75 Q1.9 -30.1 1.85 -28.65 1.8 -27.85 2.05 -27.3 2.2 -26.95 2.6 -26.55 3.0 -26.2 3.1 -25.95 3.3 -25.55 3.25 -24.9 3.2 -24.45 3.35 -23.6 3.45 -22.8 3.4 -22.1 3.3 -21.15 2.75 -20.55 2.0 -19.8 0.8 -20.5 L0.8 -20.45 0.75 -19.65 Q0.7 -19.0 0.55 -18.65 0.3 -18.25 -0.1 -18.25 -0.45 -18.15 -0.85 -18.3 -1.3 -18.5 -1.45 -19.15 L-1.55 -19.2 Q-1.9 -19.35 -2.75 -20.65 -3.15 -21.15 -3.7 -22.05 -4.3 -23.05 -5.0 -24.3 -5.25 -24.7 -5.55 -25.85 L-5.65 -26.0 -5.85 -26.8 Q-6.35 -28.5 -6.3 -28.85 -6.3 -29.15 -6.3 -29.25 -6.3 -29.35 -6.25 -29.4 -6.2 -29.5 -5.95 -29.7 L-5.9 -30.0 -5.8 -29.95 Q-6.0 -30.25 -6.1 -30.75 -6.25 -31.35 -6.25 -31.65 -6.25 -31.95 -6.05 -32.6 L-5.8 -33.3 -6.85 -33.45 Q-7.0 -33.5 -7.1 -33.7 -7.25 -33.95 -7.35 -34.0 -7.9 -34.25 -8.4 -34.35 L-8.45 -34.4 -8.4 -34.05 Q-8.45 -33.8 -8.55 -33.65 -8.75 -33.45 -9.1 -33.65 -9.6 -33.85 -9.7 -34.3 L-9.75 -34.45 -10.45 -34.45 Q-10.6 -34.15 -11.0 -33.9 -11.6 -33.65 -12.0 -33.8 -12.6 -34.05 -12.7 -34.55 L-12.75 -34.85 -12.7 -34.85 -14.4 -34.6 -14.45 -34.65 Q-14.45 -35.2 -14.9 -35.4 -15.45 -35.65 -15.45 -35.05 L-15.4 -34.8 Q-15.35 -34.55 -15.0 -34.4 L-14.65 -34.35 -14.5 -34.45 Q-14.4 -34.1 -14.35 -33.65 -14.4 -33.35 -14.6 -33.15 -14.85 -33.05 -15.15 -33.2 -16.15 -33.65 -16.35 -34.4 L-16.7 -34.35 -16.7 -34.5 Q-16.7 -35.1 -17.4 -35.35 -18.05 -35.6 -18.05 -35.0 -18.05 -34.45 -17.55 -34.2 -17.85 -34.15 -18.05 -34.05 L-18.05 -34.0 Q-17.7 -33.55 -17.7 -32.95 -17.7 -32.55 -17.8 -32.4 -18.05 -32.2 -18.75 -32.45 -19.05 -32.6 -19.25 -32.85 L-19.3 -32.8 Q-19.4 -32.85 -19.55 -32.85 -19.7 -33.2 -19.9 -33.25 -20.25 -33.35 -20.2 -32.9 L-20.05 -32.6 Q-20.2 -32.45 -20.2 -32.25 -20.4 -32.35 -20.65 -32.35 -20.95 -32.3 -20.95 -32.0 -20.95 -31.95 -20.85 -31.85 L-20.55 -31.5 Q-20.2 -31.45 -20.05 -31.55 L-20.0 -31.65 Q-19.9 -31.4 -19.65 -31.25 L-19.8 -31.0 -20.0 -30.55 Q-20.35 -30.85 -20.6 -31.05 L-20.65 -31.1 -22.65 -32.9 Q-24.5 -34.65 -25.6 -36.3 L-25.65 -36.4 Q-26.05 -37.2 -26.6 -38.05 -25.85 -38.5 -24.3 -38.45 -22.0 -38.4 -20.1 -37.55 -18.15 -36.75 -15.8 -36.75 L-14.8 -36.85 Q-14.25 -36.8 -13.25 -36.55 L-10.35 -35.85 -10.5 -35.95 -9.45 -35.7 -8.95 -35.45 -9.75 -35.6 -8.15 -34.85 -5.8 -34.55 -5.3 -34.45 -5.15 -34.5 Q-4.65 -34.55 -4.3 -34.3 L-4.75 -34.35 Q-5.05 -34.15 -5.25 -33.7 -5.65 -32.9 -5.7 -31.35 -5.75 -31.0 -5.5 -30.4 -5.4 -30.0 -5.35 -29.65 L-5.35 -29.45 Q-5.35 -29.4 -5.7 -29.1 L-5.8 -29.0 -5.85 -28.85 -5.85 -28.4 -5.8 -28.35 Q-5.8 -28.3 -5.8 -28.15 -5.7 -26.75 -4.7 -24.65 -3.5 -22.1 -1.7 -20.0 L-1.4 -19.65 -1.3 -19.75 -1.3 -19.7 -1.2 -19.5 Q-1.0 -18.9 -0.75 -18.8 -0.2 -18.6 0.1 -18.75 L0.15 -18.9 Q0.3 -19.2 0.25 -19.6 0.25 -19.75 0.15 -20.35 0.0 -21.0 0.0 -21.05 0.0 -21.25 0.05 -21.25 L0.1 -21.3 Q1.85 -19.95 2.65 -21.45 3.0 -22.1 3.15 -23.5 3.2 -24.25 2.8 -25.4 2.35 -26.5 1.7 -27.0 1.55 -27.15 1.4 -27.25 L1.3 -27.25 Q1.3 -27.55 1.4 -27.9 L1.55 -28.45 Q1.6 -29.3 1.15 -30.65 0.7 -31.75 0.15 -32.35 0.35 -32.3 0.65 -32.15 0.95 -32.05 1.2 -31.75 L1.5 -31.55 2.1 -31.45 Q2.65 -31.4 3.25 -31.1 L5.25 -29.7 Q7.15 -28.4 8.85 -27.65 L9.25 -27.45 Q9.5 -27.8 10.1 -27.15 L10.05 -27.15 10.05 -27.05 Q9.95 -26.4 10.8 -25.05 11.5 -23.9 12.1 -23.55 13.4 -23.1 14.35 -23.45 15.15 -23.85 15.25 -24.45 15.25 -24.65 15.2 -24.75 L15.1 -24.9 15.35 -24.8 Q15.85 -24.6 16.05 -24.25 16.4 -24.0 16.55 -23.7 L16.65 -23.3 16.75 -22.95 Q16.85 -22.6 17.4 -22.35 L17.65 -22.4 17.7 -22.5 Q17.85 -22.15 18.1 -22.05 L18.55 -22.05 Q18.95 -22.1 19.0 -22.05 19.4 -21.85 21.85 -19.55 L24.2 -17.25 26.45 -15.1 Q28.15 -13.5 28.35 -13.2 28.8 -12.45 29.65 -11.5 L30.7 -10.4 30.5 -10.35 30.55 -10.35 Q30.9 -10.15 31.2 -9.8 L31.3 -9.85 31.45 -9.7 Q31.75 -9.4 32.65 -8.25 32.85 -8.1 33.05 -7.85 L33.4 -7.3 M5.75 2.8 L5.35 2.4 Q5.05 2.1 4.75 1.9 4.4 1.65 4.0 1.55 L3.65 1.5 3.15 1.45 Q3.1 1.3 3.15 1.0 L3.15 0.55 Q3.0 0.1 2.8 -0.05 2.7 -0.15 2.4 -0.15 2.1 -0.2 1.95 -0.3 1.65 -0.45 1.45 -0.85 1.05 -1.55 1.0 -2.8 1.0 -2.95 1.1 -3.0 1.2 -3.15 1.25 -3.25 1.3 -3.75 0.9 -4.55 0.4 -5.55 -0.3 -5.8 L-1.3 -6.15 Q-2.2 -5.95 -2.55 -5.0 -2.8 -4.45 -2.85 -3.4 -2.85 -3.25 -2.8 -2.9 L-2.7 -2.25 -2.75 -2.05 Q-3.7 -2.5 -4.2 -2.05 -4.6 -1.7 -4.65 -1.2 -4.65 -0.7 -4.4 -0.1 -4.2 0.4 -4.2 0.7 -4.25 0.95 -4.65 1.05 L-5.55 1.2 Q-5.75 0.85 -5.95 -0.1 -6.1 -1.0 -6.55 -1.6 L-7.5 -1.95 -7.65 -2.0 Q-7.7 -2.05 -7.7 -2.2 L-7.35 -3.1 Q-6.95 -4.1 -6.9 -4.7 -6.95 -4.9 -7.1 -5.3 -7.3 -5.75 -7.7 -6.25 -8.75 -7.6 -10.45 -8.2 L-10.5 -8.2 Q-11.35 -8.3 -11.75 -7.95 -12.0 -7.75 -12.15 -7.3 L-12.3 -6.75 -12.25 -6.4 -12.45 -6.4 Q-12.6 -6.5 -12.8 -6.85 -13.0 -7.25 -13.15 -7.25 -13.6 -7.45 -13.9 -7.35 L-14.25 -6.9 Q-14.65 -6.4 -14.65 -5.95 L-14.7 -5.9 -14.85 -5.9 Q-15.05 -5.95 -15.1 -6.05 L-15.2 -6.2 Q-15.45 -6.3 -15.6 -6.3 -15.9 -6.35 -16.2 -6.5 L-16.8 -6.5 -16.8 -6.4 -17.0 -6.4 Q-17.15 -6.45 -17.15 -6.5 L-17.2 -6.5 -17.2 -6.55 -17.25 -6.55 Q-17.35 -6.75 -17.45 -7.05 -17.5 -7.45 -17.65 -7.65 -18.15 -8.45 -20.35 -9.2 -21.9 -9.8 -23.2 -8.95 -24.15 -8.45 -24.35 -7.9 -24.55 -7.4 -24.95 -7.1 L-25.15 -6.95 Q-26.05 -6.55 -26.35 -6.4 L-26.35 -6.3 -26.5 -5.95 -26.55 -5.9 Q-26.6 -6.0 -26.6 -6.1 -26.3 -6.9 -26.0 -7.5 -25.35 -7.8 -24.9 -8.2 -24.7 -8.4 -24.6 -8.65 -24.3 -9.15 -23.35 -9.5 -21.8 -10.1 -19.8 -9.4 -18.4 -8.9 -17.6 -7.9 L-17.2 -7.3 Q-17.1 -7.05 -17.0 -7.05 L-16.8 -6.95 -16.65 -6.95 Q-16.25 -6.95 -15.7 -6.7 L-15.3 -6.75 Q-15.0 -6.85 -14.8 -7.05 L-14.6 -7.35 -14.5 -7.45 Q-14.3 -7.8 -14.2 -7.85 -13.85 -8.05 -13.1 -7.8 L-12.8 -7.6 -12.6 -7.4 Q-12.5 -7.95 -12.05 -8.25 -12.0 -8.35 -11.85 -8.35 L-11.75 -8.45 Q-10.65 -9.25 -9.3 -8.05 L-9.25 -8.0 Q-7.55 -7.25 -6.95 -5.75 -6.6 -4.9 -6.65 -3.9 L-6.8 -3.1 Q-7.0 -2.4 -7.1 -2.2 L-6.35 -1.9 Q-5.9 -1.4 -5.7 -0.6 -5.55 0.25 -5.4 0.6 L-5.15 0.45 Q-5.0 0.3 -4.6 0.45 L-4.85 -0.45 Q-5.05 -1.15 -5.0 -1.4 -4.95 -2.1 -4.65 -2.3 -4.25 -2.65 -3.15 -2.6 -3.3 -4.9 -2.6 -5.9 -1.95 -6.8 -0.85 -6.45 0.15 -6.15 0.85 -5.05 1.6 -3.95 1.45 -2.7 1.45 -2.55 1.6 -1.85 1.75 -1.1 1.85 -0.95 3.4 -0.25 3.5 0.45 3.55 0.6 3.5 0.9 3.4 1.15 3.45 1.3 L4.1 1.35 4.55 1.45 3.9 -0.35 Q3.4 -1.75 3.1 -2.35 2.9 -2.8 1.55 -4.55 0.2 -6.25 -0.1 -7.0 -0.25 -7.25 -0.75 -7.85 L-1.9 -9.1 -2.5 -9.85 Q-2.65 -9.7 -2.95 -9.45 -3.55 -9.05 -4.05 -9.2 -5.05 -9.6 -5.2 -9.75 L-5.25 -9.85 -5.4 -9.95 Q-5.5 -10.0 -5.7 -9.65 L-5.8 -9.55 Q-6.1 -9.2 -6.25 -9.05 -7.2 -8.2 -8.5 -8.6 L-8.95 -8.75 Q-9.45 -8.95 -9.85 -9.3 L-10.15 -9.65 Q-10.25 -9.75 -10.3 -9.75 L-10.7 -9.75 -10.75 -9.7 -10.65 -9.7 Q-11.05 -9.4 -12.15 -9.75 -13.05 -10.1 -13.5 -11.1 -13.7 -11.65 -13.75 -12.15 -13.75 -13.15 -13.25 -13.8 L-12.8 -14.3 Q-12.8 -14.55 -12.95 -15.25 -13.15 -15.95 -13.15 -16.1 -13.15 -17.15 -12.6 -18.1 L-12.55 -18.25 -12.5 -18.3 Q-12.35 -18.6 -12.15 -18.7 -11.8 -19.15 -11.35 -19.15 -12.65 -20.55 -14.15 -21.55 L-14.3 -21.55 -15.45 -21.7 Q-15.8 -21.85 -16.0 -22.45 -16.1 -22.75 -16.1 -22.95 -16.1 -23.05 -16.05 -23.15 L-16.45 -23.5 -17.0 -23.65 Q-17.35 -23.8 -17.6 -23.8 -17.5 -23.9 -17.45 -24.1 -17.5 -24.3 -17.65 -24.55 -17.85 -24.8 -18.1 -24.95 -18.7 -25.35 -18.7 -24.65 -18.75 -24.65 -18.65 -24.45 -18.6 -24.15 -18.35 -24.0 L-18.95 -24.2 Q-19.0 -24.05 -19.15 -23.85 -19.45 -23.55 -19.7 -23.65 -20.1 -23.85 -20.3 -24.3 -20.45 -24.6 -20.45 -24.8 L-21.0 -25.0 -20.95 -25.3 Q-21.35 -26.05 -21.6 -26.05 -21.9 -26.1 -21.85 -25.65 L-21.8 -25.4 -21.8 -25.25 -21.7 -25.2 Q-22.45 -25.3 -23.5 -25.0 -23.55 -25.6 -24.0 -25.8 -24.55 -26.0 -24.5 -25.55 L-24.45 -25.25 Q-24.35 -24.95 -24.1 -24.8 L-24.2 -24.75 Q-23.95 -24.65 -23.7 -24.3 -23.5 -24.0 -23.45 -23.7 -23.45 -23.5 -23.65 -23.35 L-24.1 -23.35 Q-24.6 -23.6 -24.8 -24.05 -24.9 -24.3 -24.85 -24.4 L-24.85 -24.55 Q-25.15 -24.45 -25.5 -24.3 L-25.5 -24.25 Q-25.5 -23.85 -25.6 -23.45 L-25.6 -23.4 Q-25.4 -23.5 -25.15 -23.45 -24.2 -23.45 -23.95 -21.8 -22.7 -21.4 -21.95 -19.55 -21.4 -18.25 -21.35 -17.25 -21.35 -16.35 -21.8 -15.7 -22.35 -15.05 -23.5 -14.8 L-24.3 -15.1 Q-24.75 -15.45 -25.4 -15.9 L-25.65 -16.15 -25.65 -16.0 Q-25.7 -16.2 -25.7 -16.3 -25.75 -16.65 -25.7 -17.0 L-25.65 -17.0 -25.1 -16.3 Q-24.5 -15.65 -23.95 -15.4 -22.7 -15.0 -22.1 -16.1 -21.9 -16.45 -21.75 -16.9 L-21.7 -17.35 Q-21.75 -18.2 -22.3 -19.5 -23.05 -21.35 -24.1 -21.25 -24.3 -21.65 -24.35 -22.0 L-24.5 -22.85 -24.5 -22.9 Q-24.5 -22.95 -24.7 -23.0 -25.6 -23.4 -25.85 -22.75 -26.05 -22.5 -26.05 -21.9 L-26.15 -21.95 Q-26.25 -22.25 -26.25 -22.55 -26.25 -22.8 -26.1 -22.95 L-26.25 -23.0 -26.35 -23.05 -26.4 -23.05 -26.45 -23.5 -26.5 -23.8 -26.5 -23.9 Q-26.6 -24.4 -26.6 -24.65 L-27.0 -26.7 -27.1 -27.3 -27.4 -28.8 -27.4 -28.85 Q-27.45 -29.3 -27.65 -30.1 -27.9 -30.9 -27.95 -31.75 -28.0 -31.85 -27.95 -32.0 -27.9 -32.45 -27.7 -33.2 -27.5 -34.0 -27.35 -34.4 L-26.65 -33.95 Q-25.85 -32.95 -22.95 -30.3 L-22.1 -29.45 -22.0 -29.4 -18.1 -25.8 -17.85 -25.55 Q-17.8 -25.55 -17.8 -25.5 -17.7 -25.45 -17.65 -25.35 L-16.1 -24.15 Q-14.5 -22.9 -13.5 -22.05 -11.4 -20.3 -10.6 -19.1 L-10.7 -19.15 -10.6 -19.0 Q-10.25 -18.6 -10.25 -18.3 L-10.3 -18.2 -10.5 -18.5 Q-10.7 -18.75 -10.85 -18.75 -10.9 -18.75 -10.95 -18.7 -11.95 -18.8 -12.4 -17.55 L-12.4 -17.45 -12.45 -17.35 -12.45 -17.2 Q-12.5 -17.1 -12.5 -17.0 L-12.55 -16.75 Q-12.6 -16.6 -12.6 -16.45 L-12.6 -15.85 Q-12.65 -15.4 -12.45 -14.8 L-12.3 -14.15 -12.35 -14.15 -12.2 -13.85 -12.8 -13.55 Q-13.45 -13.25 -13.4 -12.75 -13.45 -11.9 -13.3 -11.45 -12.9 -10.25 -11.4 -9.7 L-11.1 -9.75 Q-10.5 -10.25 -10.15 -10.4 L-10.05 -10.05 Q-9.35 -9.25 -9.2 -9.15 -8.0 -8.75 -7.25 -8.9 -7.1 -9.0 -6.95 -9.05 -6.7 -9.2 -6.5 -9.4 L-6.0 -10.15 Q-5.75 -10.55 -5.5 -10.4 -5.4 -10.4 -5.2 -10.15 L-4.9 -9.85 Q-4.15 -9.35 -3.4 -9.75 -3.15 -9.85 -2.9 -10.05 L-2.75 -10.3 Q-2.75 -10.55 -2.95 -11.0 -3.2 -11.45 -3.15 -11.45 -3.2 -11.5 -3.15 -11.5 L-3.2 -11.55 -3.45 -11.85 -3.5 -11.9 -3.35 -11.85 Q-2.6 -11.55 -2.15 -10.45 L-2.1 -10.3 -0.25 -8.35 Q0.4 -7.7 1.3 -6.3 2.2 -4.95 2.45 -4.15 L2.55 -3.9 Q2.75 -3.35 3.35 -3.05 3.35 -2.9 3.5 -2.7 3.55 -2.6 3.7 -2.45 L4.05 -1.75 4.5 -0.95 Q4.55 -0.4 4.9 0.7 L5.35 1.75 5.75 2.8 M-25.6 -11.9 Q-25.65 -12.4 -25.5 -12.9 -25.4 -13.55 -25.4 -13.7 L-25.4 -13.85 Q-24.9 -13.9 -24.4 -13.6 L-24.35 -13.15 Q-24.35 -12.85 -24.75 -12.35 -25.15 -11.9 -25.6 -11.9 M14.7 -18.65 Q14.75 -18.65 14.8 -18.6 L14.95 -18.5 15.0 -18.3 14.9 -18.2 14.8 -18.2 Q14.7 -18.3 14.65 -18.25 14.6 -18.3 14.65 -18.45 14.7 -18.75 14.7 -18.65 M12.6 -17.1 L12.95 -17.05 Q14.15 -16.55 14.2 -14.15 14.2 -13.4 14.1 -12.5 L13.95 -11.8 Q13.6 -10.0 12.2 -10.55 11.45 -10.85 11.2 -11.85 11.15 -12.05 11.15 -13.2 11.1 -13.8 10.7 -14.5 10.3 -15.15 10.4 -15.65 10.55 -16.7 10.9 -17.0 11.3 -17.55 12.25 -17.1 L12.6 -17.1 M12.8 -16.65 Q12.65 -16.75 12.35 -16.6 L11.95 -16.45 Q11.85 -16.6 11.85 -16.75 L11.85 -17.0 Q11.45 -17.3 11.15 -16.8 10.85 -16.4 10.75 -15.95 10.7 -15.55 10.85 -15.1 11.1 -14.5 11.7 -14.2 11.75 -14.05 11.65 -13.8 11.55 -13.55 11.55 -13.45 11.45 -12.95 11.55 -12.25 11.65 -11.2 12.25 -11.0 13.05 -10.7 13.55 -12.05 13.8 -12.8 13.9 -13.6 14.05 -14.4 13.95 -15.05 13.75 -16.3 12.8 -16.65 M16.9 -17.25 Q17.0 -17.95 17.35 -18.15 17.65 -18.4 18.05 -18.2 18.4 -18.1 18.55 -17.6 18.75 -17.1 18.65 -16.45 L18.5 -15.9 Q18.25 -15.5 17.75 -15.7 17.15 -16.0 17.0 -16.6 16.85 -17.0 16.9 -17.25 M18.05 -17.6 Q17.95 -17.75 17.85 -17.7 L17.6 -17.5 Q17.4 -17.35 17.15 -17.4 17.15 -16.5 17.8 -16.2 17.95 -16.15 18.05 -16.1 L18.15 -16.15 18.3 -16.85 Q18.15 -17.45 18.05 -17.6 M9.85 -27.1 Q9.8 -26.85 10.05 -26.25 9.9 -26.75 9.85 -27.2 L9.85 -27.1 M9.1 -23.05 Q8.8 -23.2 8.7 -23.3 L8.7 -23.8 8.8 -23.85 9.0 -23.8 Q9.2 -23.75 9.55 -23.55 9.55 -23.35 9.55 -23.2 L9.45 -22.95 9.35 -23.0 9.1 -23.05 M5.15 -22.45 L5.2 -22.65 5.25 -22.75 5.45 -22.7 5.6 -22.5 Q5.65 -22.45 5.6 -22.2 L5.6 -21.95 5.55 -21.9 5.35 -21.9 5.2 -22.2 Q5.15 -22.35 5.15 -22.45 M5.4 -18.9 Q5.45 -19.35 5.75 -19.6 5.95 -19.85 6.3 -19.75 6.6 -19.75 6.8 -19.55 7.0 -19.3 6.95 -18.9 6.85 -18.45 6.4 -18.55 L5.6 -18.7 5.5 -18.65 Q5.4 -18.75 5.4 -18.9 M0.25 -14.3 Q0.2 -13.6 0.05 -12.95 -0.3 -11.75 -0.75 -11.95 -1.6 -12.3 -2.25 -13.7 -2.45 -14.25 -2.6 -14.75 -2.75 -15.2 -2.7 -15.3 -2.6 -17.1 -2.05 -17.85 -1.65 -18.5 -1.0 -18.25 -0.5 -18.15 -0.1 -17.45 0.3 -16.85 0.25 -16.25 L0.15 -16.05 -0.1 -15.85 Q0.0 -15.75 0.15 -15.05 L0.25 -14.3 M9.1 -19.05 L8.75 -19.05 Q8.5 -19.2 8.4 -19.45 8.4 -19.6 8.4 -19.75 8.45 -20.3 8.95 -20.05 9.4 -19.8 9.35 -19.35 9.3 -19.15 9.1 -19.05 M10.9 -19.75 Q10.95 -20.15 11.2 -20.05 11.45 -20.0 11.6 -19.4 L11.45 -19.2 11.15 -19.2 Q10.95 -19.55 10.95 -19.6 10.9 -19.7 10.9 -19.75 M6.35 -15.0 L6.25 -14.85 Q6.15 -14.8 6.0 -14.85 5.75 -14.95 5.8 -15.0 5.7 -15.15 5.75 -15.25 L5.8 -15.5 5.95 -15.45 Q6.15 -15.4 6.35 -15.3 L6.35 -15.0 M3.25 -11.9 Q3.4 -11.85 3.55 -11.65 3.7 -11.45 3.7 -11.3 3.65 -11.1 3.45 -10.9 3.25 -10.8 3.1 -10.85 2.9 -10.95 2.8 -11.05 L2.6 -10.75 Q2.25 -10.25 1.9 -10.4 1.55 -10.5 1.45 -10.8 1.4 -11.0 1.45 -11.15 1.4 -11.35 1.7 -11.55 1.95 -11.8 2.25 -11.9 2.7 -12.15 2.9 -11.95 3.0 -12.0 3.25 -11.9 M2.4 -13.1 Q2.15 -13.2 2.1 -13.35 2.05 -13.45 2.1 -13.6 2.15 -14.05 2.5 -13.85 2.85 -13.7 2.8 -13.4 L2.7 -13.15 Q2.55 -13.05 2.4 -13.1 M28.95 -10.7 L28.65 -10.7 Q28.4 -10.8 28.4 -11.0 L28.4 -11.2 Q28.55 -11.7 28.85 -11.45 29.2 -11.25 29.1 -10.9 L28.95 -10.7 M26.95 -13.1 Q27.1 -13.15 27.35 -12.95 27.55 -12.8 27.65 -12.5 27.75 -12.25 27.7 -11.95 27.65 -11.75 27.5 -11.65 L27.2 -11.7 Q26.8 -11.85 26.7 -12.35 26.65 -12.6 26.65 -12.75 26.7 -13.1 26.95 -13.1 M-12.25 -35.7 L-12.55 -35.7 -12.6 -35.45 Q-12.55 -35.35 -12.3 -34.9 -12.1 -35.0 -11.95 -35.15 L-12.05 -35.35 -12.25 -35.7 M-18.7 -34.15 L-18.6 -34.35 Q-18.7 -34.6 -18.95 -34.9 -18.9 -34.65 -19.05 -34.6 L-19.25 -34.55 Q-19.25 -34.35 -19.15 -34.25 L-18.9 -34.1 Q-18.8 -34.1 -18.7 -34.15 M-18.5 -30.15 Q-18.65 -30.0 -18.9 -30.1 -19.35 -30.3 -19.5 -30.65 -19.55 -30.85 -19.5 -31.0 -19.55 -31.8 -18.95 -31.55 -18.4 -31.35 -18.35 -30.6 -18.35 -30.35 -18.5 -30.15 M-18.3 -31.4 L-18.35 -31.65 Q-18.35 -32.3 -17.75 -32.0 -17.2 -31.75 -17.15 -31.2 -17.2 -30.95 -17.45 -30.9 -17.6 -30.9 -17.75 -30.95 -18.2 -31.15 -18.3 -31.4 M-13.7 -32.55 Q-13.7 -32.4 -13.9 -32.25 -14.05 -32.15 -14.15 -32.15 L-14.45 -32.6 Q-14.5 -32.7 -14.5 -32.8 -14.55 -33.05 -14.45 -33.15 -14.35 -33.4 -13.8 -32.95 L-13.75 -32.85 Q-13.75 -32.75 -13.7 -32.55 M-17.05 -32.55 Q-17.5 -33.0 -17.45 -33.35 -17.5 -33.7 -17.05 -33.55 -16.65 -33.45 -16.65 -32.95 -16.65 -32.8 -16.8 -32.65 -16.9 -32.55 -17.05 -32.55 M-16.25 -31.3 Q-15.8 -31.1 -15.75 -30.65 -15.75 -30.5 -15.95 -30.3 -16.15 -30.2 -16.3 -30.25 -16.65 -30.4 -16.7 -30.65 -16.75 -30.8 -16.75 -31.0 -16.75 -31.6 -16.25 -31.3 M-16.85 -29.15 Q-16.9 -29.7 -16.35 -29.45 -15.9 -29.25 -15.9 -28.8 -15.9 -28.65 -16.05 -28.45 -16.25 -28.3 -16.4 -28.35 -16.75 -28.55 -16.85 -28.8 -16.9 -29.0 -16.85 -29.15 M-7.25 -20.15 L-7.15 -20.05 Q-6.65 -20.15 -6.0 -20.1 L-4.9 -19.95 -4.1 -19.95 -4.0 -20.0 Q-3.75 -20.15 -3.75 -20.5 -3.7 -21.35 -4.4 -22.45 -5.25 -23.8 -6.5 -24.4 -6.65 -24.75 -6.75 -25.5 -6.85 -26.0 -7.15 -26.35 -7.2 -26.4 -7.25 -26.35 L-8.0 -26.7 Q-8.7 -27.0 -8.85 -26.9 -9.25 -26.8 -9.4 -26.75 L-9.55 -26.9 Q-9.6 -27.0 -9.6 -27.15 -9.6 -27.35 -9.15 -27.95 -8.8 -28.6 -8.7 -29.4 -8.75 -29.8 -9.0 -30.2 -9.4 -30.7 -9.9 -30.85 -11.45 -31.55 -11.8 -30.8 -11.95 -30.6 -12.0 -30.2 L-11.95 -29.8 Q-11.95 -29.35 -11.85 -28.6 L-11.85 -28.25 -11.65 -26.8 -11.7 -26.6 -11.9 -26.65 Q-12.05 -26.7 -12.35 -27.2 -13.4 -27.6 -13.75 -26.95 -13.95 -26.7 -13.95 -26.15 -13.95 -26.0 -13.75 -25.65 L-13.4 -24.9 -13.4 -24.85 -13.45 -24.85 Q-13.9 -25.05 -14.2 -25.45 L-14.15 -25.35 -14.05 -25.3 -14.15 -25.55 Q-14.35 -26.05 -14.35 -26.2 -14.35 -26.9 -13.9 -27.5 -13.25 -28.45 -12.15 -27.65 L-12.1 -27.7 -12.25 -28.8 -12.25 -28.95 Q-12.35 -29.65 -12.3 -29.9 -12.3 -30.8 -12.1 -31.15 -11.65 -32.1 -10.05 -31.4 -9.0 -30.95 -8.6 -29.75 -8.5 -29.35 -8.45 -28.95 L-8.45 -28.6 Q-8.45 -28.25 -8.7 -27.5 L-8.7 -27.45 Q-7.9 -27.1 -7.35 -26.8 -6.8 -26.95 -6.5 -26.05 -6.3 -25.45 -6.3 -24.95 -4.55 -23.4 -3.9 -22.3 -3.4 -21.45 -3.45 -20.4 -3.5 -20.1 -3.6 -19.85 -3.75 -19.65 -3.95 -19.5 -4.6 -19.2 -6.05 -19.5 -6.2 -19.4 -6.3 -19.45 L-6.9 -19.65 Q-7.15 -19.85 -7.25 -20.1 L-7.25 -20.15 M-13.1 -29.5 Q-13.1 -29.3 -13.3 -29.2 L-13.6 -29.2 Q-13.9 -29.3 -14.0 -29.4 L-14.0 -29.5 Q-14.05 -29.55 -14.05 -29.7 -14.05 -30.1 -13.95 -30.1 -13.8 -30.25 -13.2 -29.85 L-13.15 -29.75 -13.1 -29.5 M-10.85 -33.2 Q-10.7 -33.0 -10.6 -32.75 L-10.65 -32.65 Q-10.75 -32.55 -10.9 -32.5 L-11.15 -32.75 -11.15 -33.0 Q-11.15 -33.25 -11.05 -33.25 L-10.85 -33.2 M-6.5 -30.3 Q-6.5 -30.15 -6.5 -29.95 L-6.5 -29.7 -6.55 -29.7 -6.6 -29.65 -6.85 -29.7 Q-7.1 -29.8 -7.15 -30.05 L-7.15 -30.3 Q-7.15 -30.55 -7.1 -30.6 -6.95 -30.75 -6.55 -30.4 L-6.5 -30.3 M-23.55 -26.6 Q-23.55 -26.55 -23.2 -26.05 L-22.8 -26.05 Q-22.65 -26.15 -22.65 -26.35 -22.65 -26.75 -23.1 -26.9 -23.55 -27.1 -23.55 -26.6 M-24.95 -26.7 L-24.85 -26.85 Q-25.05 -26.95 -25.15 -26.95 -25.25 -26.95 -25.3 -26.85 L-25.2 -26.7 -24.95 -26.7 M-26.0 -24.4 L-25.9 -24.3 Q-25.75 -24.35 -25.7 -24.45 L-25.8 -24.7 -25.95 -24.7 Q-26.1 -24.75 -26.15 -24.6 L-26.0 -24.4 M-2.05 -14.35 Q-1.55 -12.6 -0.8 -12.35 -0.55 -12.25 -0.25 -12.6 -0.1 -12.9 -0.05 -13.05 0.0 -13.7 -0.1 -14.4 -0.35 -15.65 -0.95 -16.15 L-0.4 -16.35 Q-0.1 -16.45 -0.05 -16.75 0.0 -17.0 -0.35 -17.35 -0.7 -17.7 -1.1 -17.8 -2.3 -18.15 -2.4 -16.4 -2.45 -15.8 -2.05 -14.35 M-22.45 -26.95 L-22.4 -26.65 Q-22.35 -26.4 -22.0 -26.25 -21.8 -26.15 -21.65 -26.35 -21.55 -26.5 -21.55 -26.8 -21.6 -27.25 -22.05 -27.4 -22.5 -27.55 -22.45 -26.95 M-14.85 -22.2 L-14.8 -22.4 Q-14.85 -22.6 -14.9 -22.75 L-15.1 -22.9 Q-15.25 -22.9 -15.3 -22.8 -15.4 -22.7 -15.4 -22.6 L-15.35 -22.5 -15.1 -22.15 -14.95 -22.15 -14.85 -22.2 M-21.35 -23.85 L-21.45 -23.8 -21.7 -23.85 Q-22.0 -24.0 -22.05 -24.25 L-22.1 -24.45 Q-22.15 -24.8 -21.8 -24.7 -21.5 -24.6 -21.3 -24.15 L-21.35 -23.85 M-22.2 -23.45 Q-21.75 -23.3 -21.75 -22.8 -21.75 -22.65 -21.9 -22.55 -22.1 -22.4 -22.2 -22.45 -22.5 -22.6 -22.55 -22.85 -22.6 -22.95 -22.6 -23.1 -22.65 -23.6 -22.2 -23.45 M-18.6 -22.55 Q-18.7 -22.75 -18.65 -22.75 -18.65 -23.4 -18.15 -23.15 -17.65 -22.9 -17.6 -22.3 -17.6 -22.05 -17.8 -22.0 -17.95 -21.95 -18.1 -22.0 -18.5 -22.15 -18.6 -22.55 M-19.35 -20.4 L-19.65 -20.5 Q-19.65 -20.55 -19.7 -20.55 -19.75 -20.65 -19.75 -20.8 -19.8 -21.05 -19.6 -21.0 -19.45 -21.0 -19.2 -20.8 -19.2 -20.7 -19.1 -20.6 L-19.15 -20.35 -19.35 -20.4 M-19.5 -18.15 Q-19.6 -18.3 -19.55 -18.4 -19.6 -18.55 -19.45 -18.6 -19.25 -18.65 -18.8 -18.35 L-18.75 -18.25 Q-18.7 -18.15 -18.7 -18.0 -18.7 -17.7 -19.2 -17.85 L-19.5 -18.15 M-20.5 -14.25 Q-20.55 -14.25 -20.45 -14.2 -20.45 -14.15 -20.45 -13.95 -20.45 -13.75 -20.6 -13.65 -20.8 -13.5 -20.95 -13.55 -21.2 -13.65 -21.3 -13.9 -21.35 -14.0 -21.35 -14.15 -21.35 -14.45 -21.2 -14.5 -21.05 -14.55 -20.5 -14.25 M-19.15 -15.45 Q-19.05 -15.6 -18.7 -15.3 L-18.6 -15.2 -18.55 -14.95 -18.6 -14.75 -18.6 -14.8 -18.7 -14.75 -18.9 -14.75 -19.25 -15.2 Q-19.25 -15.4 -19.15 -15.45 M-12.85 -19.65 L-13.2 -19.65 Q-13.5 -19.8 -13.6 -20.1 -13.65 -20.25 -13.65 -20.35 -13.65 -20.9 -13.15 -20.65 -12.65 -20.45 -12.6 -19.95 -12.65 -19.7 -12.85 -19.65 M-15.2 -19.75 Q-15.25 -19.65 -15.3 -19.55 -15.45 -19.5 -15.65 -19.45 L-15.95 -19.85 Q-16.0 -19.95 -16.0 -20.0 -16.0 -20.35 -15.6 -20.3 -15.25 -20.3 -15.2 -19.75 M-16.05 -20.2 L-16.1 -19.95 -16.2 -19.9 -16.45 -19.95 Q-16.75 -20.1 -16.8 -20.3 -16.85 -20.35 -16.85 -20.5 -16.85 -20.95 -16.55 -20.85 -16.25 -20.8 -16.05 -20.2 M-15.95 -16.75 Q-16.1 -16.6 -16.3 -16.7 -16.6 -16.8 -16.65 -17.0 -16.7 -17.1 -16.7 -17.25 -16.7 -17.8 -16.25 -17.7 -15.8 -17.6 -15.8 -17.05 -15.8 -16.9 -15.95 -16.75 M-14.25 -12.0 Q-14.9 -13.65 -16.65 -13.85 -17.4 -13.75 -17.55 -12.95 L-17.7 -12.35 Q-17.8 -12.0 -17.9 -11.8 -17.0 -11.0 -16.6 -10.1 -16.4 -9.8 -16.3 -9.65 -16.1 -9.5 -15.7 -9.35 -15.05 -9.1 -14.4 -9.65 L-14.1 -10.15 -14.0 -10.35 -14.0 -10.9 Q-14.1 -11.5 -14.25 -12.0 M-15.55 -13.7 Q-14.65 -13.8 -14.0 -11.9 -13.8 -11.3 -13.65 -10.6 L-13.5 -10.0 Q-13.55 -9.8 -14.35 -9.3 -15.2 -8.8 -15.5 -8.9 -16.25 -9.2 -17.3 -10.45 -18.25 -11.65 -18.2 -11.85 -18.25 -12.15 -17.75 -13.05 -17.15 -14.1 -16.8 -14.25 L-15.7 -13.85 -15.55 -13.7 M-16.0 -7.95 L-15.95 -7.75 Q-15.95 -7.6 -16.2 -7.55 L-16.5 -7.5 -16.8 -7.7 -16.8 -7.8 Q-16.85 -7.9 -16.85 -8.05 -16.85 -8.25 -16.8 -8.25 -16.65 -8.4 -16.05 -8.05 L-16.0 -7.95 M-22.8 -12.1 L-22.8 -12.3 Q-22.85 -12.65 -22.45 -12.55 -22.15 -12.4 -22.1 -12.1 -22.1 -11.75 -22.45 -11.9 -22.7 -12.0 -22.75 -12.05 L-22.8 -12.1 M-4.8 -7.5 Q-4.85 -7.25 -4.75 -6.9 -4.6 -6.4 -4.25 -6.25 -3.85 -6.1 -3.5 -6.55 L-3.3 -7.05 Q-3.3 -7.4 -3.45 -7.7 -3.8 -8.25 -3.95 -8.6 -4.45 -8.55 -4.65 -8.2 -4.8 -7.95 -4.8 -7.5 M-4.75 -8.6 Q-4.45 -8.95 -3.95 -8.7 -3.5 -8.55 -3.2 -8.0 -2.9 -7.5 -2.9 -7.0 -2.95 -6.6 -3.2 -6.2 -3.65 -5.8 -4.15 -5.95 -4.75 -6.15 -5.0 -6.7 -5.2 -6.95 -5.2 -7.15 -5.15 -8.2 -4.75 -8.6 M-1.65 -8.05 L-1.65 -7.75 Q-1.65 -7.45 -2.0 -7.6 L-2.3 -7.7 -2.3 -8.0 Q-2.3 -8.25 -2.1 -8.2 -2.0 -8.25 -1.65 -8.05 M-5.9 -5.65 Q-5.65 -5.55 -5.35 -5.15 L-5.5 -4.95 Q-5.65 -4.85 -5.8 -4.9 -6.1 -5.0 -6.2 -5.45 -6.2 -5.8 -5.9 -5.65 M-5.05 -4.95 Q-4.85 -4.95 -4.6 -4.75 -4.0 -4.2 -4.0 -3.65 L-4.05 -3.5 -4.1 -3.4 -4.15 -3.4 -4.35 -3.45 Q-4.8 -3.6 -5.05 -4.1 -5.3 -4.5 -5.25 -4.7 -5.25 -5.0 -5.05 -4.95" fill="#bfa681" fill-rule="evenodd" stroke="none"/>
    <path d="M-26.0 -7.5 L-25.75 -8.6 -25.6 -9.15 -25.45 -9.05 Q-25.3 -9.05 -25.15 -9.15 -25.05 -9.3 -25.1 -9.45 L-25.3 -10.55 Q-25.6 -11.55 -25.6 -11.75 L-25.6 -11.9 Q-25.15 -11.9 -24.75 -12.35 -24.35 -12.85 -24.35 -13.15 L-24.4 -13.6 Q-24.9 -13.9 -25.4 -13.85 L-25.5 -14.5 -25.6 -14.75 Q-25.65 -15.35 -25.65 -16.0 L-25.65 -16.15 -25.4 -15.9 Q-24.75 -15.45 -24.3 -15.1 L-23.5 -14.8 Q-22.35 -15.05 -21.8 -15.7 -21.35 -16.35 -21.35 -17.25 -21.4 -18.25 -21.95 -19.55 -22.7 -21.4 -23.95 -21.8 -24.2 -23.45 -25.15 -23.45 -25.4 -23.5 -25.6 -23.4 L-25.6 -23.45 Q-25.5 -23.85 -25.5 -24.25 L-25.5 -24.3 Q-25.15 -24.45 -24.85 -24.55 L-24.85 -24.4 Q-24.9 -24.3 -24.8 -24.05 -24.6 -23.6 -24.1 -23.35 L-23.65 -23.35 Q-23.45 -23.5 -23.45 -23.7 -23.5 -24.0 -23.7 -24.3 -23.95 -24.65 -24.2 -24.75 L-24.1 -24.8 Q-24.35 -24.95 -24.45 -25.25 L-24.5 -25.55 Q-24.55 -26.0 -24.0 -25.8 -23.55 -25.6 -23.5 -25.0 -22.45 -25.3 -21.7 -25.2 L-21.8 -25.25 -21.8 -25.4 -21.85 -25.65 Q-21.9 -26.1 -21.6 -26.05 -21.35 -26.05 -20.95 -25.3 L-21.0 -25.0 -20.45 -24.8 Q-20.45 -24.6 -20.3 -24.3 -20.1 -23.85 -19.7 -23.65 -19.45 -23.55 -19.15 -23.85 -19.0 -24.05 -18.95 -24.2 L-18.35 -24.0 Q-18.6 -24.15 -18.65 -24.45 -18.75 -24.65 -18.7 -24.65 -18.7 -25.35 -18.1 -24.95 -17.85 -24.8 -17.65 -24.55 -17.5 -24.3 -17.45 -24.1 -17.5 -23.9 -17.6 -23.8 -17.35 -23.8 -17.0 -23.65 L-16.45 -23.5 -16.05 -23.15 Q-16.1 -23.05 -16.1 -22.95 -16.1 -22.75 -16.0 -22.45 -15.8 -21.85 -15.45 -21.7 L-14.3 -21.55 -14.15 -21.55 Q-12.65 -20.55 -11.35 -19.15 -11.8 -19.15 -12.15 -18.7 -12.35 -18.6 -12.5 -18.3 L-12.55 -18.25 -12.6 -18.1 Q-13.15 -17.15 -13.15 -16.1 -13.15 -15.95 -12.95 -15.25 -12.8 -14.55 -12.8 -14.3 L-13.25 -13.8 Q-13.75 -13.15 -13.75 -12.15 -13.7 -11.65 -13.5 -11.1 -13.05 -10.1 -12.15 -9.75 -11.05 -9.4 -10.65 -9.7 L-10.75 -9.7 -10.7 -9.75 -10.3 -9.75 Q-10.25 -9.75 -10.15 -9.65 L-9.85 -9.3 Q-9.45 -8.95 -8.95 -8.75 L-8.5 -8.6 Q-7.2 -8.2 -6.25 -9.05 -6.1 -9.2 -5.8 -9.55 L-5.7 -9.65 Q-5.5 -10.0 -5.4 -9.95 L-5.25 -9.85 -5.2 -9.75 Q-5.05 -9.6 -4.05 -9.2 -3.55 -9.05 -2.95 -9.45 -2.65 -9.7 -2.5 -9.85 L-1.9 -9.1 -0.75 -7.85 Q-0.25 -7.25 -0.1 -7.0 0.2 -6.25 1.55 -4.55 2.9 -2.8 3.1 -2.35 3.4 -1.75 3.9 -0.35 L4.55 1.45 4.1 1.35 3.45 1.3 Q3.4 1.15 3.5 0.9 3.55 0.6 3.5 0.45 3.4 -0.25 1.85 -0.95 1.75 -1.1 1.6 -1.85 1.45 -2.55 1.45 -2.7 1.6 -3.95 0.85 -5.05 0.15 -6.15 -0.85 -6.45 -1.95 -6.8 -2.6 -5.9 -3.3 -4.9 -3.15 -2.6 -4.25 -2.65 -4.65 -2.3 -4.95 -2.1 -5.0 -1.4 -5.05 -1.15 -4.85 -0.45 L-4.6 0.45 Q-5.0 0.3 -5.15 0.45 L-5.4 0.6 Q-5.55 0.25 -5.7 -0.6 -5.9 -1.4 -6.35 -1.9 L-7.1 -2.2 Q-7.0 -2.4 -6.8 -3.1 L-6.65 -3.9 Q-6.6 -4.9 -6.95 -5.75 -7.55 -7.25 -9.25 -8.0 L-9.3 -8.05 Q-10.65 -9.25 -11.75 -8.45 L-11.85 -8.35 Q-12.0 -8.35 -12.05 -8.25 -12.5 -7.95 -12.6 -7.4 L-12.8 -7.6 -13.1 -7.8 Q-13.85 -8.05 -14.2 -7.85 -14.3 -7.8 -14.5 -7.45 L-14.6 -7.35 -14.8 -7.05 Q-15.0 -6.85 -15.3 -6.75 L-15.7 -6.7 Q-16.25 -6.95 -16.65 -6.95 L-16.8 -6.95 -17.0 -7.05 Q-17.1 -7.05 -17.2 -7.3 L-17.6 -7.9 Q-18.4 -8.9 -19.8 -9.4 -21.8 -10.1 -23.35 -9.5 -24.3 -9.15 -24.6 -8.65 -24.7 -8.4 -24.9 -8.2 -25.35 -7.8 -26.0 -7.5 M-26.25 -22.55 L-26.3 -22.5 -26.35 -23.05 -26.25 -23.0 -26.1 -22.95 Q-26.25 -22.8 -26.25 -22.55 M-20.0 -30.55 L-19.8 -31.0 -19.65 -31.25 Q-19.9 -31.4 -20.0 -31.65 L-20.05 -31.55 Q-20.2 -31.45 -20.55 -31.5 L-20.85 -31.85 Q-20.95 -31.95 -20.95 -32.0 -20.95 -32.3 -20.65 -32.35 -20.4 -32.35 -20.2 -32.25 -20.2 -32.45 -20.05 -32.6 L-20.2 -32.9 Q-20.25 -33.35 -19.9 -33.25 -19.7 -33.2 -19.55 -32.85 -19.4 -32.85 -19.3 -32.8 L-19.25 -32.85 Q-19.05 -32.6 -18.75 -32.45 -18.05 -32.2 -17.8 -32.4 -17.7 -32.55 -17.7 -32.95 -17.7 -33.55 -18.05 -34.0 L-18.05 -34.05 Q-17.85 -34.15 -17.55 -34.2 -18.05 -34.45 -18.05 -35.0 -18.05 -35.6 -17.4 -35.35 -16.7 -35.1 -16.7 -34.5 L-16.7 -34.35 -16.35 -34.4 Q-16.15 -33.65 -15.15 -33.2 -14.85 -33.05 -14.6 -33.15 -14.4 -33.35 -14.35 -33.65 -14.4 -34.1 -14.5 -34.45 L-14.65 -34.35 -15.0 -34.4 Q-15.35 -34.55 -15.4 -34.8 L-15.45 -35.05 Q-15.45 -35.65 -14.9 -35.4 -14.45 -35.2 -14.45 -34.65 L-14.4 -34.6 -12.7 -34.85 -12.75 -34.85 -12.7 -34.55 Q-12.6 -34.05 -12.0 -33.8 -11.6 -33.65 -11.0 -33.9 -10.6 -34.15 -10.45 -34.45 L-9.75 -34.45 -9.7 -34.3 Q-9.6 -33.85 -9.1 -33.65 -8.75 -33.45 -8.55 -33.65 -8.45 -33.8 -8.4 -34.05 L-8.45 -34.4 -8.4 -34.35 Q-7.9 -34.25 -7.35 -34.0 -7.25 -33.95 -7.1 -33.7 -7.0 -33.5 -6.85 -33.45 L-5.8 -33.3 -6.05 -32.6 Q-6.25 -31.95 -6.25 -31.65 -6.25 -31.35 -6.1 -30.75 -6.0 -30.25 -5.8 -29.95 L-5.9 -30.0 -5.95 -29.7 Q-6.2 -29.5 -6.25 -29.4 -6.3 -29.35 -6.3 -29.25 -6.3 -29.15 -6.3 -28.85 -6.35 -28.5 -5.85 -26.8 L-5.65 -26.0 -5.55 -25.85 Q-5.25 -24.7 -5.0 -24.3 -4.3 -23.05 -3.7 -22.05 -3.15 -21.15 -2.75 -20.65 -1.9 -19.35 -1.55 -19.2 L-1.45 -19.15 Q-1.3 -18.5 -0.85 -18.3 -0.45 -18.15 -0.1 -18.25 0.3 -18.25 0.55 -18.65 0.7 -19.0 0.75 -19.65 L0.8 -20.45 0.8 -20.5 Q2.0 -19.8 2.75 -20.55 3.3 -21.15 3.4 -22.1 3.45 -22.8 3.35 -23.6 3.2 -24.45 3.25 -24.9 3.3 -25.55 3.1 -25.95 3.0 -26.2 2.6 -26.55 2.2 -26.95 2.05 -27.3 1.8 -27.85 1.85 -28.65 1.9 -30.1 1.6 -30.75 L1.5 -31.0 Q1.9 -30.7 2.55 -30.4 L3.55 -29.9 Q4.9 -29.2 5.7 -28.75 5.95 -28.4 6.05 -28.25 6.4 -27.95 7.2 -27.55 7.8 -27.3 8.15 -27.4 8.5 -27.5 8.9 -27.3 8.95 -27.3 9.65 -26.8 9.85 -26.2 10.15 -25.6 10.95 -23.8 12.05 -23.3 L12.1 -23.3 12.15 -23.25 12.3 -23.2 Q13.45 -22.8 14.65 -23.2 15.1 -23.4 15.45 -23.65 L15.5 -23.7 Q16.2 -22.65 17.95 -21.95 18.1 -21.75 18.2 -21.55 L18.25 -21.3 Q18.3 -21.05 19.0 -20.75 20.25 -20.2 24.35 -16.55 28.1 -13.15 28.25 -13.05 28.85 -12.65 29.9 -11.05 30.85 -9.6 31.5 -9.25 31.65 -9.15 32.45 -8.0 L31.8 -7.95 31.7 -7.95 Q31.25 -7.8 30.8 -7.4 30.8 -8.05 30.5 -8.7 30.2 -9.3 29.75 -9.65 29.25 -10.05 28.75 -9.95 28.2 -9.95 27.85 -9.3 26.9 -9.85 26.5 -9.7 26.3 -9.65 26.1 -9.35 25.8 -9.15 25.35 -9.2 L24.65 -9.25 24.7 -9.25 25.2 -9.65 Q25.6 -10.0 25.6 -10.1 25.65 -10.35 25.65 -11.35 25.6 -12.35 25.55 -12.65 25.3 -13.4 24.35 -14.4 23.2 -15.7 22.25 -15.65 21.85 -15.65 21.7 -15.45 L21.4 -15.05 Q21.05 -14.5 19.85 -14.55 18.65 -14.6 18.1 -14.0 17.8 -13.65 17.75 -13.0 16.05 -13.05 15.0 -12.1 14.0 -11.35 14.05 -10.3 L13.7 -8.25 Q13.45 -7.2 13.15 -6.9 12.95 -6.8 12.9 -6.7 12.3 -6.55 12.15 -6.4 11.85 -6.25 11.8 -5.7 11.7 -5.45 11.9 -4.45 12.05 -3.3 12.4 -3.0 11.85 -3.25 11.45 -3.1 L11.15 -3.0 10.9 -2.95 Q10.8 -3.2 10.7 -3.7 10.6 -4.25 10.6 -4.3 10.6 -4.35 10.95 -4.95 L11.3 -5.7 Q11.45 -6.8 11.25 -7.45 10.9 -8.45 9.55 -9.6 9.25 -11.3 8.6 -12.3 8.05 -13.15 7.35 -13.35 6.65 -13.6 6.15 -13.2 5.6 -12.85 5.5 -12.1 5.4 -11.1 5.4 -10.7 L5.5 -9.4 5.5 -8.75 5.55 -8.6 Q4.5 -9.0 3.9 -8.0 3.5 -7.4 3.45 -6.7 3.4 -6.55 3.4 -6.35 L3.25 -6.55 1.4 -8.65 -1.0 -11.55 Q-2.7 -13.55 -3.75 -14.85 -4.35 -15.6 -4.9 -16.55 L-5.75 -18.15 Q-6.25 -18.95 -7.0 -19.7 L-6.9 -19.65 -6.3 -19.45 Q-6.2 -19.4 -6.05 -19.5 -4.6 -19.2 -3.95 -19.5 -3.75 -19.65 -3.6 -19.85 -3.5 -20.1 -3.45 -20.4 -3.4 -21.45 -3.9 -22.3 -4.55 -23.4 -6.3 -24.95 -6.3 -25.45 -6.5 -26.05 -6.8 -26.95 -7.35 -26.8 -7.9 -27.1 -8.7 -27.45 L-8.7 -27.5 Q-8.45 -28.25 -8.45 -28.6 L-8.45 -28.95 Q-8.5 -29.35 -8.6 -29.75 -9.0 -30.95 -10.05 -31.4 -11.65 -32.1 -12.1 -31.15 -12.3 -30.8 -12.3 -29.9 -12.35 -29.65 -12.25 -28.95 L-12.25 -28.8 -12.1 -27.7 -12.15 -27.65 Q-13.25 -28.45 -13.9 -27.5 -14.35 -26.9 -14.35 -26.2 -14.35 -26.05 -14.15 -25.55 L-14.05 -25.3 -14.15 -25.35 -14.2 -25.45 -17.75 -28.6 -20.0 -30.55 M12.6 -17.1 L12.25 -17.1 Q11.3 -17.55 10.9 -17.0 10.55 -16.7 10.4 -15.65 10.3 -15.15 10.7 -14.5 11.1 -13.8 11.15 -13.2 11.15 -12.05 11.2 -11.85 11.45 -10.85 12.2 -10.55 13.6 -10.0 13.95 -11.8 L14.1 -12.5 Q14.2 -13.4 14.2 -14.15 14.15 -16.55 12.95 -17.05 L12.6 -17.1 M14.7 -18.65 Q14.7 -18.75 14.65 -18.45 14.6 -18.3 14.65 -18.25 14.7 -18.3 14.8 -18.2 L14.9 -18.2 15.0 -18.3 14.95 -18.5 14.8 -18.6 Q14.75 -18.65 14.7 -18.65 M16.9 -17.25 Q16.85 -17.0 17.0 -16.6 17.15 -16.0 17.75 -15.7 18.25 -15.5 18.5 -15.9 L18.65 -16.45 Q18.75 -17.1 18.55 -17.6 18.4 -18.1 18.05 -18.2 17.65 -18.4 17.35 -18.15 17.0 -17.95 16.9 -17.25 M2.4 -13.1 Q2.55 -13.05 2.7 -13.15 L2.8 -13.4 Q2.85 -13.7 2.5 -13.85 2.15 -14.05 2.1 -13.6 2.05 -13.45 2.1 -13.35 2.15 -13.2 2.4 -13.1 M3.25 -11.9 Q3.0 -12.0 2.9 -11.95 2.7 -12.15 2.25 -11.9 1.95 -11.8 1.7 -11.55 1.4 -11.35 1.45 -11.15 1.4 -11.0 1.45 -10.8 1.55 -10.5 1.9 -10.4 2.25 -10.25 2.6 -10.75 L2.8 -11.05 Q2.9 -10.95 3.1 -10.85 3.25 -10.8 3.45 -10.9 3.65 -11.1 3.7 -11.3 3.7 -11.45 3.55 -11.65 3.4 -11.85 3.25 -11.9 M6.35 -15.0 L6.35 -15.3 Q6.15 -15.4 5.95 -15.45 L5.8 -15.5 5.75 -15.25 Q5.7 -15.15 5.8 -15.0 5.75 -14.95 6.0 -14.85 6.15 -14.8 6.25 -14.85 L6.35 -15.0 M10.9 -19.75 Q10.9 -19.7 10.95 -19.6 10.95 -19.55 11.15 -19.2 L11.45 -19.2 11.6 -19.4 Q11.45 -20.0 11.2 -20.05 10.95 -20.15 10.9 -19.75 M9.1 -19.05 Q9.3 -19.15 9.35 -19.35 9.4 -19.8 8.95 -20.05 8.45 -20.3 8.4 -19.75 8.4 -19.6 8.4 -19.45 8.5 -19.2 8.75 -19.05 L9.1 -19.05 M0.25 -14.3 L0.15 -15.05 Q0.0 -15.75 -0.1 -15.85 L0.15 -16.05 0.25 -16.25 Q0.3 -16.85 -0.1 -17.45 -0.5 -18.15 -1.0 -18.25 -1.65 -18.5 -2.05 -17.85 -2.6 -17.1 -2.7 -15.3 -2.75 -15.2 -2.6 -14.75 -2.45 -14.25 -2.25 -13.7 -1.6 -12.3 -0.75 -11.95 -0.3 -11.75 0.05 -12.95 0.2 -13.6 0.25 -14.3 M5.4 -18.9 Q5.4 -18.75 5.5 -18.65 L5.6 -18.7 6.4 -18.55 Q6.85 -18.45 6.95 -18.9 7.0 -19.3 6.8 -19.55 6.6 -19.75 6.3 -19.75 5.95 -19.85 5.75 -19.6 5.45 -19.35 5.4 -18.9 M5.15 -22.45 Q5.15 -22.35 5.2 -22.2 L5.35 -21.9 5.55 -21.9 5.6 -21.95 5.6 -22.2 Q5.65 -22.45 5.6 -22.5 L5.45 -22.7 5.25 -22.75 5.2 -22.65 5.15 -22.45 M9.1 -23.05 L9.35 -23.0 9.45 -22.95 9.55 -23.2 Q9.55 -23.35 9.55 -23.55 9.2 -23.75 9.0 -23.8 L8.8 -23.85 8.7 -23.8 8.7 -23.3 Q8.8 -23.2 9.1 -23.05 M28.95 -10.7 L29.1 -10.9 Q29.2 -11.25 28.85 -11.45 28.55 -11.7 28.4 -11.2 L28.4 -11.0 Q28.4 -10.8 28.65 -10.7 L28.95 -10.7 M26.95 -13.1 Q26.7 -13.1 26.65 -12.75 26.65 -12.6 26.7 -12.35 26.8 -11.85 27.2 -11.7 L27.5 -11.65 Q27.65 -11.75 27.7 -11.95 27.75 -12.25 27.65 -12.5 27.55 -12.8 27.35 -12.95 27.1 -13.15 26.95 -13.1 M-12.25 -35.7 L-12.05 -35.35 -11.95 -35.15 Q-12.1 -35.0 -12.3 -34.9 -12.55 -35.35 -12.6 -35.45 L-12.55 -35.7 -12.25 -35.7 M-18.7 -34.15 Q-18.8 -34.1 -18.9 -34.1 L-19.15 -34.25 Q-19.25 -34.35 -19.25 -34.55 L-19.05 -34.6 Q-18.9 -34.65 -18.95 -34.9 -18.7 -34.6 -18.6 -34.35 L-18.7 -34.15 M-18.3 -31.4 Q-18.2 -31.15 -17.75 -30.95 -17.6 -30.9 -17.45 -30.9 -17.2 -30.95 -17.15 -31.2 -17.2 -31.75 -17.75 -32.0 -18.35 -32.3 -18.35 -31.65 L-18.3 -31.4 M-18.5 -30.15 Q-18.35 -30.35 -18.35 -30.6 -18.4 -31.35 -18.95 -31.55 -19.55 -31.8 -19.5 -31.0 -19.55 -30.85 -19.5 -30.65 -19.35 -30.3 -18.9 -30.1 -18.65 -30.0 -18.5 -30.15 M-16.85 -29.15 Q-16.9 -29.0 -16.85 -28.8 -16.75 -28.55 -16.4 -28.35 -16.25 -28.3 -16.05 -28.45 -15.9 -28.65 -15.9 -28.8 -15.9 -29.25 -16.35 -29.45 -16.9 -29.7 -16.85 -29.15 M-16.25 -31.3 Q-16.75 -31.6 -16.75 -31.0 -16.75 -30.8 -16.7 -30.65 -16.65 -30.4 -16.3 -30.25 -16.15 -30.2 -15.95 -30.3 -15.75 -30.5 -15.75 -30.65 -15.8 -31.1 -16.25 -31.3 M-17.05 -32.55 Q-16.9 -32.55 -16.8 -32.65 -16.65 -32.8 -16.65 -32.95 -16.65 -33.45 -17.05 -33.55 -17.5 -33.7 -17.45 -33.35 -17.5 -33.0 -17.05 -32.55 M-13.7 -32.55 Q-13.75 -32.75 -13.75 -32.85 L-13.8 -32.95 Q-14.35 -33.4 -14.45 -33.15 -14.55 -33.05 -14.5 -32.8 -14.5 -32.7 -14.45 -32.6 L-14.15 -32.15 Q-14.05 -32.15 -13.9 -32.25 -13.7 -32.4 -13.7 -32.55 M-13.1 -29.5 L-13.15 -29.75 -13.2 -29.85 Q-13.8 -30.25 -13.95 -30.1 -14.05 -30.1 -14.05 -29.7 -14.05 -29.55 -14.0 -29.5 L-14.0 -29.4 Q-13.9 -29.3 -13.6 -29.2 L-13.3 -29.2 Q-13.1 -29.3 -13.1 -29.5 M-6.5 -30.3 L-6.55 -30.4 Q-6.95 -30.75 -7.1 -30.6 -7.15 -30.55 -7.15 -30.3 L-7.15 -30.05 Q-7.1 -29.8 -6.85 -29.7 L-6.6 -29.65 -6.55 -29.7 -6.5 -29.7 -6.5 -29.95 Q-6.5 -30.15 -6.5 -30.3 M-10.85 -33.2 L-11.05 -33.25 Q-11.15 -33.25 -11.15 -33.0 L-11.15 -32.75 -10.9 -32.5 Q-10.75 -32.55 -10.65 -32.65 L-10.6 -32.75 Q-10.7 -33.0 -10.85 -33.2 M-24.95 -26.7 L-25.2 -26.7 -25.3 -26.85 Q-25.25 -26.95 -25.15 -26.95 -25.05 -26.95 -24.85 -26.85 L-24.95 -26.7 M-23.55 -26.6 Q-23.55 -27.1 -23.1 -26.9 -22.65 -26.75 -22.65 -26.35 -22.65 -26.15 -22.8 -26.05 L-23.2 -26.05 Q-23.55 -26.55 -23.55 -26.6 M-26.0 -24.4 L-26.15 -24.6 Q-26.1 -24.75 -25.95 -24.7 L-25.8 -24.7 -25.7 -24.45 Q-25.75 -24.35 -25.9 -24.3 L-26.0 -24.4 M-14.85 -22.2 L-14.95 -22.15 -15.1 -22.15 -15.35 -22.5 -15.4 -22.6 Q-15.4 -22.7 -15.3 -22.8 -15.25 -22.9 -15.1 -22.9 L-14.9 -22.75 Q-14.85 -22.6 -14.8 -22.4 L-14.85 -22.2 M-22.45 -26.95 Q-22.5 -27.55 -22.05 -27.4 -21.6 -27.25 -21.55 -26.8 -21.55 -26.5 -21.65 -26.35 -21.8 -26.15 -22.0 -26.25 -22.35 -26.4 -22.4 -26.65 L-22.45 -26.95 M-15.95 -16.75 Q-15.8 -16.9 -15.8 -17.05 -15.8 -17.6 -16.25 -17.7 -16.7 -17.8 -16.7 -17.25 -16.7 -17.1 -16.65 -17.0 -16.6 -16.8 -16.3 -16.7 -16.1 -16.6 -15.95 -16.75 M-16.05 -20.2 Q-16.25 -20.8 -16.55 -20.85 -16.85 -20.95 -16.85 -20.5 -16.85 -20.35 -16.8 -20.3 -16.75 -20.1 -16.45 -19.95 L-16.2 -19.9 -16.1 -19.95 -16.05 -20.2 M-15.2 -19.75 Q-15.25 -20.3 -15.6 -20.3 -16.0 -20.35 -16.0 -20.0 -16.0 -19.95 -15.95 -19.85 L-15.65 -19.45 Q-15.45 -19.5 -15.3 -19.55 -15.25 -19.65 -15.2 -19.75 M-12.85 -19.65 Q-12.65 -19.7 -12.6 -19.95 -12.65 -20.45 -13.15 -20.65 -13.65 -20.9 -13.65 -20.35 -13.65 -20.25 -13.6 -20.1 -13.5 -19.8 -13.2 -19.65 L-12.85 -19.65 M-19.15 -15.45 Q-19.25 -15.4 -19.25 -15.2 L-18.9 -14.75 -18.7 -14.75 -18.6 -14.8 -18.6 -14.75 -18.55 -14.95 -18.6 -15.2 -18.7 -15.3 Q-19.05 -15.6 -19.15 -15.45 M-20.5 -14.25 Q-21.05 -14.55 -21.2 -14.5 -21.35 -14.45 -21.35 -14.15 -21.35 -14.0 -21.3 -13.9 -21.2 -13.65 -20.95 -13.55 -20.8 -13.5 -20.6 -13.65 -20.45 -13.75 -20.45 -13.95 -20.45 -14.15 -20.45 -14.2 -20.55 -14.25 -20.5 -14.25 M-19.5 -18.15 L-19.2 -17.85 Q-18.7 -17.7 -18.7 -18.0 -18.7 -18.15 -18.75 -18.25 L-18.8 -18.35 Q-19.25 -18.65 -19.45 -18.6 -19.6 -18.55 -19.55 -18.4 -19.6 -18.3 -19.5 -18.15 M-19.35 -20.4 L-19.15 -20.35 -19.1 -20.6 Q-19.2 -20.7 -19.2 -20.8 -19.45 -21.0 -19.6 -21.0 -19.8 -21.05 -19.75 -20.8 -19.75 -20.65 -19.7 -20.55 -19.65 -20.55 -19.65 -20.5 L-19.35 -20.4 M-18.6 -22.55 Q-18.5 -22.15 -18.1 -22.0 -17.95 -21.95 -17.8 -22.0 -17.6 -22.05 -17.6 -22.3 -17.65 -22.9 -18.15 -23.15 -18.65 -23.4 -18.65 -22.75 -18.7 -22.75 -18.6 -22.55 M-22.2 -23.45 Q-22.65 -23.6 -22.6 -23.1 -22.6 -22.95 -22.55 -22.85 -22.5 -22.6 -22.2 -22.45 -22.1 -22.4 -21.9 -22.55 -21.75 -22.65 -21.75 -22.8 -21.75 -23.3 -22.2 -23.45 M-21.35 -23.85 L-21.3 -24.15 Q-21.5 -24.6 -21.8 -24.7 -22.15 -24.8 -22.1 -24.45 L-22.05 -24.25 Q-22.0 -24.0 -21.7 -23.85 L-21.45 -23.8 -21.35 -23.85 M-22.8 -12.1 L-22.75 -12.05 Q-22.7 -12.0 -22.45 -11.9 -22.1 -11.75 -22.1 -12.1 -22.15 -12.4 -22.45 -12.55 -22.85 -12.65 -22.8 -12.3 L-22.8 -12.1 M-16.0 -7.95 L-16.05 -8.05 Q-16.65 -8.4 -16.8 -8.25 -16.85 -8.25 -16.85 -8.05 -16.85 -7.9 -16.8 -7.8 L-16.8 -7.7 -16.5 -7.5 -16.2 -7.55 Q-15.95 -7.6 -15.95 -7.75 L-16.0 -7.95 M-15.55 -13.7 L-15.7 -13.85 -16.8 -14.25 Q-17.15 -14.1 -17.75 -13.05 -18.25 -12.15 -18.2 -11.85 -18.25 -11.65 -17.3 -10.45 -16.25 -9.2 -15.5 -8.9 -15.2 -8.8 -14.35 -9.3 -13.55 -9.8 -13.5 -10.0 L-13.65 -10.6 Q-13.8 -11.3 -14.0 -11.9 -14.65 -13.8 -15.55 -13.7 M-5.05 -4.95 Q-5.25 -5.0 -5.25 -4.7 -5.3 -4.5 -5.05 -4.1 -4.8 -3.6 -4.35 -3.45 L-4.15 -3.4 -4.1 -3.4 -4.05 -3.5 -4.0 -3.65 Q-4.0 -4.2 -4.6 -4.75 -4.85 -4.95 -5.05 -4.95 M-5.9 -5.65 Q-6.2 -5.8 -6.2 -5.45 -6.1 -5.0 -5.8 -4.9 -5.65 -4.85 -5.5 -4.95 L-5.35 -5.15 Q-5.65 -5.55 -5.9 -5.65 M-1.65 -8.05 Q-2.0 -8.25 -2.1 -8.2 -2.3 -8.25 -2.3 -8.0 L-2.3 -7.7 -2.0 -7.6 Q-1.65 -7.45 -1.65 -7.75 L-1.65 -8.05 M-4.75 -8.6 Q-5.15 -8.2 -5.2 -7.15 -5.2 -6.95 -5.0 -6.7 -4.75 -6.15 -4.15 -5.95 -3.65 -5.8 -3.2 -6.2 -2.95 -6.6 -2.9 -7.0 -2.9 -7.5 -3.2 -8.0 -3.5 -8.55 -3.95 -8.7 -4.45 -8.95 -4.75 -8.6" fill="#e6c89c" fill-rule="evenodd" stroke="none"/>
  </g>
</svg>
