<?xml version="1.0" encoding="UTF-8" standalone="no"?>
<svg xmlns:ffdec="https://www.free-decompiler.com/flash" xmlns:xlink="http://www.w3.org/1999/xlink" ffdec:objectType="shape" height="33.55px" width="61.3px" xmlns="http://www.w3.org/2000/svg">
  <g transform="matrix(1.0, 0.0, 0.0, 1.0, 29.1, 31.8)">
    <path d="M16.95 -14.15 L17.05 -10.25 Q16.0 -8.9 12.85 -8.9 12.8 -8.9 12.0 -9.3 L10.85 -9.55 Q10.55 -9.25 10.45 -9.15 9.65 -8.5 7.35 -8.5 L6.8 -8.6 6.25 -8.75 Q5.8 -8.75 5.6 -8.4 L5.2 -7.6 Q4.45 -6.5 1.55 -6.5 L0.7 -5.85 Q-0.35 -4.9 -0.7 -4.6 -2.85 -2.9 -4.65 -3.75 L5.9 -18.65 16.95 -14.15 M2.05 -16.15 L-4.55 -4.35 Q-1.85 -4.35 -0.1 -5.7 L1.45 -7.2 3.05 -7.6 Q4.3 -7.9 4.5 -8.15 L5.15 -8.9 Q5.85 -9.55 6.2 -9.55 6.7 -9.55 7.1 -9.4 L7.55 -9.25 Q9.85 -9.25 10.4 -9.95 L10.7 -10.4 Q10.85 -10.65 11.2 -10.65 L12.05 -10.4 Q12.95 -9.9 13.2 -9.8 15.0 -9.4 15.9 -10.7 L14.3 -15.6 2.05 -16.15" fill="#121212" fill-rule="evenodd" stroke="none"/>
    <path d="M2.05 -16.15 L14.3 -15.6 15.9 -10.7 Q15.0 -9.4 13.2 -9.8 12.95 -9.9 12.05 -10.4 L11.2 -10.65 Q10.85 -10.65 10.7 -10.4 L10.4 -9.95 Q9.85 -9.25 7.55 -9.25 L7.1 -9.4 Q6.7 -9.55 6.2 -9.55 5.85 -9.55 5.15 -8.9 L4.5 -8.15 Q4.3 -7.9 3.05 -7.6 L1.45 -7.2 -0.1 -5.7 Q-1.85 -4.35 -4.55 -4.35 L2.05 -16.15" fill="#333333" fill-rule="evenodd" stroke="none"/>
    <path d="M5.3 -12.3 L5.3 -12.25 5.25 -11.25 Q5.25 -10.9 5.05 -9.95 L5.0 -9.9 Q4.75 -10.85 4.2 -13.4 L3.95 -14.7 Q4.35 -14.75 4.7 -14.9 L4.75 -14.9 4.8 -14.95 5.1 -13.25 5.15 -13.1 5.3 -12.35 5.3 -12.3 M9.05 -12.6 L8.9 -11.55 Q8.65 -10.0 8.55 -9.65 8.0 -10.25 7.95 -11.35 L7.95 -12.3 Q8.0 -12.9 7.95 -13.3 7.85 -13.8 7.6 -14.9 L8.3 -15.15 8.05 -14.9 Q8.25 -14.7 8.45 -14.5 8.6 -14.4 8.8 -14.35 L8.85 -13.95 Q9.0 -13.25 9.05 -12.6 M12.7 -13.0 Q12.4 -11.75 12.2 -11.5 12.05 -11.95 11.8 -13.15 L12.7 -13.0 M2.1 -9.65 L1.9 -8.85 Q1.5 -7.5 1.35 -7.4 1.3 -7.5 1.35 -7.65 L1.4 -8.0 Q1.4 -8.95 1.05 -10.75 L1.1 -10.75 1.1 -10.8 1.85 -11.35 1.9 -11.4 2.0 -10.6 2.1 -9.75 2.1 -9.65 M14.4 -11.5 L14.4 -12.2 14.85 -11.8 15.0 -11.65 Q14.8 -10.85 14.65 -10.7 14.5 -11.0 14.4 -11.5 M-1.45 -7.95 L-1.55 -7.75 -1.8 -6.65 -1.85 -6.6 -1.9 -6.5 -2.4 -8.3 -2.55 -8.9 Q-2.1 -9.0 -1.65 -9.4 L-1.65 -9.35 -1.55 -8.5 -1.5 -8.1 -1.45 -8.0 -1.45 -7.95" fill="#d9ba8d" fill-rule="evenodd" stroke="none"/>
    <path d="M2.65 -28.05 L2.55 -28.1 Q1.8 -28.6 1.75 -29.0 L1.8 -29.05 1.8 -29.25 1.85 -29.3 1.85 -29.35 Q2.75 -29.6 3.65 -30.15 L4.9 -30.9 Q5.45 -31.2 5.6 -31.2 7.15 -30.95 7.65 -30.7 L6.65 -30.3 Q4.85 -30.15 4.3 -29.7 4.5 -29.65 5.05 -29.55 4.4 -29.2 3.8 -28.85 3.05 -28.4 2.65 -28.05 M18.9 -22.7 L18.75 -22.5 Q18.2 -21.85 17.8 -21.55 17.7 -21.6 17.7 -21.65 L17.65 -21.75 17.7 -21.9 Q17.75 -22.0 17.7 -22.05 L17.65 -22.0 17.3 -21.55 17.25 -21.5 17.2 -21.5 16.1 -22.4 Q16.6 -22.5 17.05 -22.7 17.7 -23.05 18.25 -23.05 L18.9 -22.7 M12.1 -23.65 L11.4 -24.45 11.2 -24.65 11.7 -24.9 Q12.65 -25.45 12.95 -26.1 13.35 -25.95 14.35 -25.9 14.0 -24.85 13.2 -24.4 L13.2 -24.45 Q13.35 -24.7 13.3 -24.75 L12.6 -24.3 Q12.1 -23.95 12.1 -23.75 L12.1 -23.65 M12.7 -23.5 L12.45 -23.45 Q12.35 -23.45 12.25 -23.5 L12.7 -23.5 M23.15 -19.55 L23.45 -19.75 23.4 -19.4 23.15 -19.55 M23.35 -21.05 L23.3 -21.05 22.8 -20.5 Q22.4 -20.05 22.3 -19.8 21.4 -20.05 20.55 -20.3 L21.3 -20.7 22.6 -21.35 Q22.75 -21.35 23.2 -21.1 L23.35 -21.05 M26.05 -18.35 Q25.85 -18.25 25.8 -18.0 25.6 -18.15 25.45 -18.2 L24.9 -18.55 25.75 -18.55 26.05 -18.35 M-28.5 -11.7 L-28.55 -12.1 -28.6 -12.75 Q-28.6 -14.05 -28.2 -15.0 -27.9 -15.55 -27.15 -16.45 -26.55 -17.15 -26.15 -17.7 -25.8 -17.85 -25.6 -18.1 L-25.45 -18.4 Q-25.3 -18.5 -25.1 -18.5 L-24.75 -18.5 -24.4 -17.9 -24.55 -18.1 -24.55 -18.05 -24.6 -18.05 Q-24.45 -17.85 -24.05 -16.95 L-24.05 -16.85 -24.25 -15.75 Q-24.35 -15.1 -24.6 -14.65 -25.0 -13.8 -26.05 -13.15 L-26.1 -13.2 Q-26.25 -13.65 -26.25 -13.9 L-26.1 -14.35 Q-25.95 -14.75 -25.95 -14.9 L-25.4 -15.95 -25.5 -16.1 Q-26.3 -15.2 -27.6 -13.2 L-28.5 -11.7 M-22.4 -7.5 L-22.7 -7.45 -22.8 -7.5 Q-23.15 -7.75 -23.75 -7.75 L-24.15 -7.75 Q-24.4 -7.7 -24.4 -7.45 -24.4 -7.2 -24.05 -7.05 L-23.9 -7.0 Q-24.7 -6.65 -25.5 -6.25 L-26.0 -6.0 Q-25.95 -7.3 -24.65 -8.15 L-23.7 -8.75 -23.65 -8.75 Q-22.65 -7.8 -22.4 -7.5 M-22.5 -15.25 L-22.35 -15.85 Q-22.1 -16.65 -22.1 -17.0 -22.1 -17.45 -21.75 -18.1 -21.45 -18.45 -20.65 -18.0 -19.95 -17.6 -19.95 -17.45 L-19.8 -16.85 -20.0 -16.25 Q-20.25 -15.75 -20.5 -15.45 -20.6 -16.0 -20.85 -16.6 -21.3 -17.6 -21.3 -16.0 -21.35 -15.65 -21.3 -15.25 L-21.2 -14.9 -21.45 -14.85 Q-21.75 -14.85 -22.2 -15.1 -22.35 -15.2 -22.5 -15.25" fill="#cc8a28" fill-rule="evenodd" stroke="none"/>
    <path d="M-19.7 -24.35 Q-18.15 -25.1 -17.7 -25.35 -16.65 -25.95 -15.45 -26.75 L-15.0 -27.05 -15.0 -27.1 -14.75 -27.25 -14.65 -27.3 -14.6 -27.35 -14.5 -27.4 -14.15 -27.55 -14.1 -27.6 -13.15 -27.9 -11.65 -28.3 -10.9 -28.4 -10.15 -28.6 -8.35 -28.9 -7.5 -28.9 -3.75 -29.1 -2.8 -29.05 -1.9 -29.15 -1.0 -29.3 Q-0.85 -29.3 -0.5 -29.15 L-0.05 -29.05 0.95 -29.1 1.75 -28.5 Q3.35 -27.4 4.65 -27.4 5.1 -27.4 5.7 -27.55 L6.0 -27.65 6.15 -27.6 Q6.65 -27.4 6.9 -27.05 L7.15 -26.5 Q7.35 -26.1 7.55 -26.0 7.75 -25.9 8.65 -25.1 9.6 -24.4 10.2 -24.4 L10.3 -24.4 Q10.8 -23.95 10.85 -23.95 11.25 -23.95 11.5 -23.8 L11.9 -23.5 Q12.55 -23.05 14.2 -23.05 L14.3 -23.05 14.35 -22.9 Q14.6 -22.5 15.1 -22.4 L15.85 -21.9 Q16.55 -21.4 17.0 -21.25 L17.65 -20.8 Q19.05 -19.95 20.05 -19.6 L20.4 -19.4 22.25 -18.9 22.4 -18.8 Q22.8 -18.65 23.2 -18.4 L23.6 -18.15 24.9 -17.3 Q26.95 -15.75 28.35 -14.0 L28.9 -13.25 Q30.95 -10.85 30.95 -9.05 L31.05 -8.0 31.1 -7.95 31.1 -7.25 Q29.8 -6.6 27.95 -6.6 26.5 -6.6 24.45 -8.2 23.85 -8.7 23.1 -9.4 L22.25 -10.15 Q21.9 -10.45 21.4 -10.95 19.8 -14.5 17.25 -17.3 13.05 -21.95 8.6 -20.8 L8.1 -20.8 Q8.9 -21.6 9.7 -22.25 7.8 -21.75 6.25 -20.45 3.9 -19.8 1.55 -18.15 L1.55 -18.1 1.95 -18.85 Q2.8 -20.15 4.25 -20.7 L4.2 -20.75 Q1.5 -19.75 -0.7 -17.45 -1.35 -16.8 -2.45 -15.45 L-3.3 -14.45 -3.4 -15.7 -3.35 -16.35 -3.2 -17.25 -3.25 -17.4 Q-4.35 -16.25 -4.5 -14.25 L-4.5 -14.1 -5.15 -13.5 Q-6.15 -12.45 -6.7 -11.95 -7.65 -11.05 -8.25 -10.8 L-7.45 -10.6 -7.05 -10.55 -7.3 -10.3 -8.8 -8.95 Q-9.75 -8.8 -10.55 -8.8 L-11.3 -8.8 -11.3 -8.7 Q-11.1 -8.55 -10.3 -8.25 -9.6 -8.0 -9.15 -7.85 -9.7 -7.55 -10.5 -7.25 L-10.7 -7.2 Q-11.2 -7.4 -12.05 -7.8 -14.0 -8.75 -14.7 -8.9 L-14.75 -8.75 -14.75 -8.6 Q-14.75 -8.3 -14.45 -7.9 -14.15 -7.55 -13.8 -7.3 L-13.9 -7.3 Q-14.2 -7.4 -14.95 -7.9 L-15.55 -8.3 -15.9 -9.1 -16.75 -11.3 Q-16.95 -11.2 -17.05 -10.65 L-17.1 -10.05 Q-17.1 -9.7 -16.75 -8.35 L-16.5 -7.2 -16.55 -7.1 -17.35 -9.05 Q-18.1 -10.85 -18.1 -11.7 -18.1 -12.0 -17.85 -12.9 -17.65 -13.7 -17.7 -14.05 -18.55 -13.35 -19.1 -10.75 L-19.45 -11.9 Q-19.45 -12.45 -19.45 -12.8 -19.5 -13.35 -19.65 -13.8 -19.35 -14.75 -19.35 -15.0 L-19.3 -15.3 Q-19.0 -15.9 -19.0 -16.25 -19.0 -16.35 -19.25 -16.8 -19.5 -17.35 -19.85 -17.8 -20.5 -18.65 -21.2 -18.7 L-21.15 -21.05 Q-20.95 -22.25 -20.55 -23.1 -20.25 -23.75 -19.7 -24.35" fill="#8c1c1c" fill-rule="evenodd" stroke="none"/>
    <path d="M2.65 -28.05 Q3.05 -28.4 3.8 -28.85 4.4 -29.2 5.05 -29.55 4.5 -29.65 4.3 -29.7 4.85 -30.15 6.65 -30.3 L7.65 -30.7 Q7.8 -30.6 7.9 -30.55 7.6 -30.3 6.7 -29.2 6.15 -28.5 5.95 -28.15 5.8 -28.15 5.5 -27.95 L5.0 -27.65 4.0 -27.6 Q3.4 -27.6 2.65 -28.05 M17.25 -21.5 L17.3 -21.55 17.65 -22.0 17.7 -22.05 Q17.75 -22.0 17.7 -21.9 L17.65 -21.75 17.7 -21.65 Q17.7 -21.6 17.8 -21.55 18.2 -21.85 18.75 -22.5 L18.9 -22.7 19.0 -22.6 Q19.25 -22.4 19.3 -22.3 L19.3 -22.25 Q19.3 -22.05 19.0 -21.65 18.7 -21.35 18.65 -20.95 L17.55 -21.4 17.25 -21.5 M12.1 -23.65 L12.1 -23.75 Q12.1 -23.95 12.6 -24.3 L13.3 -24.75 Q13.35 -24.7 13.2 -24.45 L13.2 -24.4 Q14.0 -24.85 14.35 -25.9 L14.9 -25.85 14.9 -24.65 Q14.65 -24.4 14.45 -24.05 L14.25 -23.65 12.95 -23.55 12.7 -23.5 12.25 -23.5 12.15 -23.65 12.1 -23.65 M23.15 -19.55 L22.9 -19.7 22.3 -19.8 Q22.4 -20.05 22.8 -20.5 L23.3 -21.05 23.35 -21.05 23.4 -21.0 23.8 -20.75 23.8 -20.7 23.85 -20.7 Q23.55 -20.2 23.45 -19.85 L23.45 -19.75 23.15 -19.55 M26.05 -18.35 L26.15 -18.3 Q26.4 -18.25 26.65 -17.95 L26.6 -17.95 26.45 -17.65 26.4 -17.6 25.8 -18.0 Q25.85 -18.25 26.05 -18.35 M-28.5 -11.7 L-27.6 -13.2 Q-26.3 -15.2 -25.5 -16.1 L-25.4 -15.95 -25.95 -14.9 Q-25.95 -14.75 -26.1 -14.35 L-26.25 -13.9 Q-26.25 -13.65 -26.1 -13.2 L-26.05 -13.15 Q-25.0 -13.8 -24.6 -14.65 -24.35 -15.1 -24.25 -15.75 L-24.05 -16.85 -24.05 -16.95 -23.9 -16.6 Q-23.4 -15.35 -23.4 -15.05 -23.4 -14.95 -23.55 -14.65 -23.75 -14.35 -23.75 -14.25 -23.75 -13.8 -24.0 -13.2 L-24.05 -13.15 Q-24.3 -13.0 -24.9 -12.55 -25.85 -11.85 -25.95 -11.8 L-27.3 -11.45 -28.4 -11.15 -28.45 -11.2 -28.45 -11.3 -28.5 -11.6 -28.5 -11.7 M-26.0 -6.0 L-25.5 -6.25 Q-24.7 -6.65 -23.9 -7.0 L-24.05 -7.05 Q-24.4 -7.2 -24.4 -7.45 -24.4 -7.7 -24.15 -7.75 L-23.75 -7.75 Q-23.15 -7.75 -22.8 -7.5 L-22.7 -7.45 -22.4 -7.5 Q-21.95 -6.85 -21.95 -5.9 -21.95 -5.7 -22.25 -5.4 L-22.45 -5.2 Q-22.75 -5.3 -23.15 -5.3 L-24.05 -5.15 Q-24.6 -5.0 -24.8 -5.0 -25.3 -5.0 -25.65 -5.25 -26.0 -5.5 -26.0 -5.95 L-26.0 -6.0 M-22.5 -15.25 Q-22.35 -15.2 -22.2 -15.1 -21.75 -14.85 -21.45 -14.85 L-21.2 -14.9 -21.3 -15.25 Q-21.35 -15.65 -21.3 -16.0 -21.3 -17.6 -20.85 -16.6 -20.6 -16.0 -20.5 -15.45 -20.25 -15.75 -20.0 -16.25 L-19.8 -16.85 -19.8 -16.8 -19.75 -16.7 Q-19.55 -16.1 -19.55 -16.0 -19.55 -15.6 -20.2 -14.2 -20.95 -12.55 -21.65 -12.55 -22.05 -12.55 -22.35 -13.6 -22.6 -14.4 -22.6 -14.75 L-22.5 -15.25 M-21.65 -4.15 Q-21.55 -4.35 -21.5 -4.6 -21.5 -4.8 -21.5 -5.25 L-21.35 -5.0 -21.15 -4.7 -21.2 -4.5 -20.4 -3.15 -20.55 -3.0 Q-20.95 -2.6 -21.0 -2.6 L-21.25 -2.65 -21.55 -2.7 -21.6 -2.8 -21.6 -2.95 Q-21.6 -3.85 -21.65 -4.15 M-20.15 -11.25 Q-20.1 -11.1 -20.1 -11.0 -20.1 -10.9 -20.4 -10.5 -20.7 -10.05 -20.85 -9.95 L-20.95 -10.55 -21.0 -11.0 Q-21.0 -11.15 -20.7 -11.35 -20.4 -11.5 -20.2 -11.5 L-20.15 -11.25" fill="#805619" fill-rule="evenodd" stroke="none"/>
    <path d="M5.3 -12.3 Q5.5 -10.85 5.5 -9.6 5.5 -9.4 5.3 -8.55 L4.65 -7.0 Q4.15 -5.95 3.65 -5.3 4.2 -7.55 4.2 -11.35 4.2 -11.8 4.0 -12.9 3.85 -13.95 3.85 -14.2 L3.9 -14.7 3.95 -14.7 4.2 -13.4 Q4.75 -10.85 5.0 -9.9 L5.05 -9.95 Q5.25 -10.9 5.25 -11.25 L5.3 -12.25 5.3 -12.3 M9.05 -12.6 Q9.1 -11.9 9.1 -11.2 9.1 -9.55 8.4 -7.75 7.55 -5.5 6.05 -4.85 7.2 -7.15 7.55 -9.35 7.75 -10.65 7.75 -13.6 L7.6 -14.45 7.5 -14.9 7.6 -14.9 Q7.85 -13.8 7.95 -13.3 8.0 -12.9 7.95 -12.3 L7.95 -11.35 Q8.0 -10.25 8.55 -9.65 8.65 -10.0 8.9 -11.55 L9.05 -12.6 M12.7 -13.0 L12.9 -12.9 Q12.9 -12.1 12.8 -11.55 12.5 -10.15 11.0 -8.45 11.25 -8.95 11.4 -11.0 L11.5 -13.1 11.75 -13.15 11.8 -13.15 Q12.05 -11.95 12.2 -11.5 12.4 -11.75 12.7 -13.0 M2.1 -9.65 L2.15 -9.35 Q2.15 -8.4 1.5 -6.55 0.7 -4.4 -0.1 -4.05 L-0.1 -4.1 Q0.3 -4.6 0.6 -6.25 0.8 -7.65 0.8 -8.65 L0.8 -9.3 Q0.8 -10.05 0.7 -10.65 L0.75 -10.45 0.85 -10.5 0.9 -10.75 1.1 -10.75 1.05 -10.75 Q1.4 -8.95 1.4 -8.0 L1.35 -7.65 Q1.3 -7.5 1.35 -7.4 1.5 -7.5 1.9 -8.85 L2.1 -9.65 M14.4 -11.5 Q14.5 -11.0 14.65 -10.7 14.8 -10.85 15.0 -11.65 L15.25 -11.35 14.95 -9.95 Q14.45 -7.8 13.55 -7.8 13.4 -7.8 13.35 -7.85 L13.3 -8.0 Q14.25 -9.55 14.4 -11.5 M-1.45 -7.95 L-1.45 -7.6 Q-1.45 -7.05 -1.7 -5.85 L-1.95 -4.6 -1.95 -4.45 Q-2.4 -3.15 -2.75 -2.7 L-2.8 -2.7 -2.8 -2.8 Q-2.8 -3.5 -2.65 -4.45 -2.45 -5.4 -2.45 -5.9 L-2.55 -7.15 Q-2.7 -8.15 -2.9 -8.3 L-2.8 -8.85 -2.55 -8.9 -2.4 -8.3 -1.9 -6.5 -1.85 -6.6 -1.8 -6.65 -1.55 -7.75 -1.45 -7.95" fill="#806d53" fill-rule="evenodd" stroke="none"/>
    <path d="M-19.7 -24.35 Q-20.25 -23.75 -20.55 -23.1 -20.95 -22.25 -21.15 -21.05 L-21.2 -18.7 Q-21.6 -18.75 -22.05 -18.5 L-22.3 -18.25 -22.4 -17.9 -22.45 -17.2 Q-22.45 -16.85 -22.7 -16.4 L-22.7 -16.35 Q-22.95 -15.9 -22.95 -15.75 -22.95 -15.45 -22.55 -14.0 -22.1 -12.15 -21.65 -11.7 -20.9 -12.6 -20.15 -13.8 -19.6 -14.7 -19.3 -15.3 L-19.35 -15.0 Q-19.35 -14.75 -19.65 -13.8 -19.5 -13.35 -19.45 -12.8 -19.45 -12.45 -19.45 -11.9 L-19.1 -10.75 Q-18.55 -13.35 -17.7 -14.05 -17.65 -13.7 -17.85 -12.9 -18.1 -12.0 -18.1 -11.7 -18.1 -10.85 -17.35 -9.05 L-16.55 -7.1 -16.5 -7.2 -16.75 -8.35 Q-17.1 -9.7 -17.1 -10.05 L-17.05 -10.65 Q-16.95 -11.2 -16.75 -11.3 L-15.9 -9.1 -15.55 -8.3 -14.95 -7.9 Q-14.2 -7.4 -13.9 -7.3 L-13.8 -7.3 Q-14.15 -7.55 -14.45 -7.9 -14.75 -8.3 -14.75 -8.6 L-14.75 -8.75 -14.7 -8.9 Q-14.0 -8.75 -12.05 -7.8 -11.2 -7.4 -10.7 -7.2 L-10.5 -7.25 Q-9.7 -7.55 -9.15 -7.85 -9.6 -8.0 -10.3 -8.25 -11.1 -8.55 -11.3 -8.7 L-11.3 -8.8 -10.55 -8.8 Q-9.75 -8.8 -8.8 -8.95 L-7.3 -10.3 -7.05 -10.55 -7.45 -10.6 -8.25 -10.8 Q-7.65 -11.05 -6.7 -11.95 -6.15 -12.45 -5.15 -13.5 L-4.5 -14.1 -4.5 -14.25 Q-4.35 -16.25 -3.25 -17.4 L-3.2 -17.25 -3.35 -16.35 -3.4 -15.7 -3.3 -14.45 -2.45 -15.45 Q-1.35 -16.8 -0.7 -17.45 1.5 -19.75 4.2 -20.75 L4.25 -20.7 Q2.8 -20.15 1.95 -18.85 L1.55 -18.1 1.55 -18.15 Q3.9 -19.8 6.25 -20.45 7.8 -21.75 9.7 -22.25 8.9 -21.6 8.1 -20.8 L8.6 -20.8 Q13.05 -21.95 17.25 -17.3 19.8 -14.5 21.4 -10.95 21.9 -10.45 22.25 -10.15 L23.1 -9.4 Q23.85 -8.7 24.45 -8.2 26.5 -6.6 27.95 -6.6 29.8 -6.6 31.1 -7.25 31.1 -6.55 30.85 -5.95 L30.85 -5.9 Q30.3 -4.35 28.35 -3.3 27.9 -3.05 27.4 -2.85 L27.4 -2.8 27.3 -2.8 27.25 -2.75 27.15 -2.75 26.75 -2.7 26.65 -2.7 Q26.05 -2.7 25.5 -2.9 L25.35 -2.95 Q23.55 -3.6 21.8 -5.9 L20.2 -8.05 Q19.45 -9.05 19.05 -9.05 L18.85 -9.05 18.9 -9.0 Q18.75 -8.75 18.45 -7.7 17.8 -8.2 17.65 -9.3 L17.55 -10.1 Q17.45 -10.6 17.25 -10.85 16.8 -10.6 16.6 -10.0 16.5 -9.65 16.4 -9.05 L16.4 -9.1 16.35 -9.15 Q16.2 -9.3 16.1 -9.75 16.0 -10.1 16.0 -10.25 16.0 -10.55 16.1 -11.35 15.8 -12.45 15.7 -12.6 L15.6 -12.6 15.55 -11.85 15.1 -12.35 Q13.8 -13.7 12.2 -13.7 L11.55 -13.65 10.9 -13.55 10.9 -13.65 Q11.25 -14.05 11.8 -14.5 L12.0 -14.65 12.1 -14.7 Q12.7 -15.35 13.2 -15.8 12.75 -15.55 12.15 -15.25 10.9 -14.75 9.6 -14.75 9.25 -14.75 8.6 -15.0 L8.9 -15.4 9.35 -15.65 9.4 -15.65 Q10.6 -16.45 10.6 -17.65 L10.6 -17.8 Q10.55 -17.8 10.55 -17.85 L9.95 -17.2 Q9.5 -16.7 9.2 -16.45 8.2 -15.5 6.75 -15.3 L6.75 -15.35 Q6.85 -15.5 7.1 -16.7 L7.3 -17.6 7.3 -17.85 Q7.3 -18.5 7.55 -19.35 L7.6 -19.65 Q7.4 -19.5 7.25 -19.35 6.75 -18.7 6.65 -17.8 L6.65 -17.35 Q6.6 -17.0 6.4 -16.75 L5.65 -16.05 5.55 -16.0 Q5.3 -15.95 5.15 -15.8 L5.05 -15.75 4.95 -15.65 Q4.8 -15.75 4.75 -15.6 L4.5 -15.5 Q4.25 -15.4 4.05 -15.3 L4.45 -16.1 Q4.85 -16.9 4.85 -17.1 5.25 -17.95 5.25 -18.3 L5.25 -18.65 5.1 -19.25 4.95 -18.85 4.85 -18.45 4.6 -17.5 Q3.9 -15.2 2.7 -14.75 L2.6 -14.8 2.55 -14.95 2.45 -14.9 2.45 -15.8 Q2.4 -16.3 2.2 -16.9 L2.0 -17.45 1.95 -17.45 1.95 -16.95 1.9 -16.65 1.9 -16.45 2.0 -15.4 2.1 -14.4 Q2.1 -13.35 1.85 -12.55 L1.8 -12.35 1.75 -12.3 1.55 -11.95 1.4 -11.6 Q1.2 -11.3 0.95 -11.0 L0.8 -10.95 Q0.6 -10.95 -0.05 -12.1 L-0.15 -12.2 -0.1 -12.35 Q0.2 -13.65 0.2 -14.9 L0.2 -15.0 0.1 -15.95 0.05 -15.95 -0.05 -14.75 -0.05 -14.7 -0.25 -13.0 -0.4 -12.25 Q-1.1 -10.1 -2.4 -9.65 L-2.5 -9.7 -2.65 -9.6 -2.65 -10.05 Q-2.65 -10.75 -2.5 -11.2 -2.5 -11.5 -3.0 -12.4 L-3.4 -13.05 -3.15 -12.25 Q-3.0 -11.6 -3.0 -11.25 -3.0 -10.25 -3.25 -9.0 -3.5 -7.65 -3.55 -6.4 -3.75 -6.65 -3.85 -7.45 L-3.85 -7.2 -3.8 -6.6 Q-4.6 -7.2 -5.15 -8.15 -5.35 -8.55 -5.6 -9.25 L-5.75 -9.75 -5.85 -9.75 Q-5.85 -9.7 -5.9 -9.55 -6.0 -9.4 -6.0 -9.25 L-5.9 -8.85 Q-5.75 -8.1 -5.4 -7.4 L-5.3 -7.15 -5.95 -7.2 Q-6.55 -7.2 -7.0 -7.6 -7.25 -7.8 -7.45 -8.1 L-7.6 -8.1 -7.6 -7.85 -7.55 -7.8 -7.55 -7.75 -7.5 -7.7 -7.25 -7.4 -7.0 -7.15 Q-6.55 -6.8 -6.0 -6.65 -5.55 -6.5 -5.05 -6.5 L-4.95 -6.5 Q-4.35 -5.6 -3.6 -5.6 L-3.55 -5.6 -3.9 -4.65 Q-4.5 -2.9 -4.7 -2.4 L-4.7 -3.25 Q-4.5 -3.7 -4.45 -3.85 -4.35 -4.15 -4.35 -4.45 L-4.35 -4.6 -4.4 -4.65 Q-4.4 -4.7 -4.65 -4.7 -4.75 -4.7 -5.2 -3.9 L-5.4 -3.55 -6.2 -2.8 Q-7.2 -1.85 -7.65 -1.5 -8.65 -0.7 -9.6 -0.3 -10.55 0.1 -11.55 0.1 L-11.55 -1.5 -11.35 -2.3 Q-11.15 -3.0 -11.15 -3.15 L-11.15 -3.2 -11.2 -3.3 -11.2 -3.45 Q-11.3 -3.7 -11.65 -3.7 -12.0 -3.65 -12.35 -2.9 L-12.35 -2.85 Q-12.95 -2.3 -13.3 -1.45 -13.5 -0.95 -13.75 0.25 L-13.8 0.25 Q-14.15 -0.15 -14.55 -1.5 L-14.8 -2.65 -14.85 -2.8 -14.9 -2.85 Q-15.1 -3.4 -15.3 -4.15 L-15.3 -4.2 -15.45 -4.9 -15.6 -6.1 Q-15.8 -6.0 -16.0 -5.8 -16.45 -5.3 -16.55 -4.15 -16.7 -3.1 -16.6 -1.35 L-16.6 -1.05 -18.25 -2.05 -18.9 -3.05 Q-19.95 -4.8 -19.95 -6.45 L-19.8 -8.05 -19.75 -8.7 Q-20.2 -7.7 -20.55 -6.7 L-20.65 -4.95 Q-21.05 -5.55 -21.15 -6.35 -21.2 -6.95 -21.25 -8.1 L-21.3 -8.1 Q-21.3 -7.7 -21.4 -7.2 L-21.5 -6.7 -21.6 -6.0 -21.7 -6.35 Q-21.9 -7.05 -21.9 -7.2 -21.9 -7.45 -22.15 -7.95 -22.4 -8.45 -22.75 -8.85 -23.05 -9.2 -23.3 -9.35 -23.3 -9.75 -23.7 -12.2 -23.3 -12.4 -23.15 -13.1 -23.0 -13.7 -23.0 -14.3 -23.0 -14.65 -23.5 -16.05 L-23.55 -16.15 Q-23.85 -16.95 -24.1 -17.45 -24.1 -17.8 -24.4 -18.45 L-24.6 -18.75 -24.6 -18.85 -24.65 -18.95 -25.25 -19.0 -25.45 -19.0 -25.35 -19.25 Q-23.95 -21.2 -22.75 -22.35 -22.5 -22.6 -21.75 -23.05 -21.35 -23.25 -21.0 -23.45 L-20.75 -23.55 -20.3 -24.05 -19.7 -24.35 M6.65 -16.65 Q6.55 -16.15 6.4 -15.65 6.2 -15.75 5.9 -15.75 6.25 -16.15 6.65 -16.65 M16.35 -9.95 L16.4 -10.1 16.35 -10.25 16.35 -9.95 M-19.6 -10.75 Q-19.6 -11.65 -19.9 -11.95 -20.05 -12.1 -20.3 -12.1 L-20.4 -12.05 -20.6 -12.0 Q-20.95 -11.8 -21.25 -11.35 -21.55 -10.95 -21.55 -10.6 -21.5 -10.25 -21.35 -9.9 L-21.35 -9.85 -21.3 -9.75 Q-21.05 -9.25 -20.75 -9.25 -20.6 -9.25 -20.1 -9.95 -19.6 -10.6 -19.6 -10.75 M-0.2 -10.85 Q-0.65 -9.9 -0.9 -9.25 L-0.9 -9.45 -0.6 -10.95 -0.45 -11.3 -0.2 -10.85 M-3.2 -6.9 L-3.1 -6.6 -3.35 -6.2 -3.2 -6.95 -3.2 -6.9" fill="#4d0f0f" fill-rule="evenodd" stroke="none"/>
    <path d="M31.1 -7.25 L31.1 -7.95 31.05 -8.0 30.95 -9.05 Q30.95 -10.85 28.9 -13.25 L28.35 -14.0 Q26.95 -15.75 24.9 -17.3 L23.6 -18.15 23.2 -18.4 Q22.8 -18.65 22.4 -18.8 L22.25 -18.9 20.4 -19.4 20.05 -19.6 Q19.05 -19.95 17.65 -20.8 L17.0 -21.25 Q16.55 -21.4 15.85 -21.9 L15.1 -22.4 Q14.6 -22.5 14.35 -22.9 L14.3 -23.05 14.2 -23.05 Q12.55 -23.05 11.9 -23.5 L11.5 -23.8 Q11.25 -23.95 10.85 -23.95 10.8 -23.95 10.3 -24.4 L10.2 -24.4 Q9.6 -24.4 8.65 -25.1 7.75 -25.9 7.55 -26.0 7.35 -26.1 7.15 -26.5 L6.9 -27.05 Q6.65 -27.4 6.15 -27.6 L6.0 -27.65 5.7 -27.55 Q5.1 -27.4 4.65 -27.4 3.35 -27.4 1.75 -28.5 L0.95 -29.1 -0.05 -29.05 -0.5 -29.15 Q-0.85 -29.3 -1.0 -29.3 L-1.9 -29.15 -2.8 -29.05 -3.75 -29.1 -7.5 -28.9 -8.35 -28.9 -10.15 -28.6 -10.9 -28.4 -11.65 -28.3 -13.15 -27.9 -14.1 -27.6 -14.15 -27.55 -14.5 -27.4 -14.6 -27.35 -14.65 -27.3 -14.75 -27.25 -15.0 -27.1 -15.0 -27.05 -15.45 -26.75 Q-16.65 -25.95 -17.7 -25.35 -18.15 -25.1 -19.7 -24.35 L-20.3 -24.05 -20.75 -23.55 -21.0 -23.45 Q-21.35 -23.25 -21.75 -23.05 -22.5 -22.6 -22.75 -22.35 -23.95 -21.2 -25.35 -19.25 L-25.45 -19.0 -25.25 -19.0 -24.65 -18.95 -24.6 -18.85 -24.6 -18.75 -24.4 -18.45 Q-24.1 -17.8 -24.1 -17.45 -23.85 -16.95 -23.55 -16.15 L-23.5 -16.05 Q-23.0 -14.65 -23.0 -14.3 -23.0 -13.7 -23.15 -13.1 -23.3 -12.4 -23.7 -12.2 -23.3 -9.75 -23.3 -9.35 -23.05 -9.2 -22.75 -8.85 -22.4 -8.45 -22.15 -7.95 -21.9 -7.45 -21.9 -7.2 -21.9 -7.05 -21.7 -6.35 L-21.6 -6.0 -21.5 -6.7 -21.4 -7.2 Q-21.3 -7.7 -21.3 -8.1 L-21.25 -8.1 Q-21.2 -6.95 -21.15 -6.35 -21.05 -5.55 -20.65 -4.95 L-20.55 -6.7 Q-20.2 -7.7 -19.75 -8.7 L-19.8 -8.05 -19.95 -6.45 Q-19.95 -4.8 -18.9 -3.05 L-18.25 -2.05 -16.6 -1.05 -16.6 -1.35 Q-16.7 -3.1 -16.55 -4.15 -16.45 -5.3 -16.0 -5.8 -15.8 -6.0 -15.6 -6.1 L-15.45 -4.9 -15.3 -4.2 -15.3 -4.15 Q-15.1 -3.4 -14.9 -2.85 L-14.85 -2.8 -14.8 -2.65 -14.55 -1.5 Q-14.15 -0.15 -13.8 0.25 L-13.75 0.25 Q-13.5 -0.95 -13.3 -1.45 -12.95 -2.3 -12.35 -2.85 L-12.35 -2.9 Q-12.0 -3.65 -11.65 -3.7 -11.3 -3.7 -11.2 -3.45 L-11.2 -3.3 -11.15 -3.2 -11.15 -3.15 Q-11.15 -3.0 -11.35 -2.3 L-11.55 -1.5 -11.55 0.1 Q-10.55 0.1 -9.6 -0.3 -8.65 -0.7 -7.65 -1.5 -7.2 -1.85 -6.2 -2.8 L-5.4 -3.55 -5.2 -3.9 Q-4.75 -4.7 -4.65 -4.7 -4.4 -4.7 -4.4 -4.65 L-4.35 -4.6 -4.35 -4.45 Q-4.35 -4.15 -4.45 -3.85 -4.5 -3.7 -4.7 -3.25 L-4.7 -2.4 Q-4.5 -2.9 -3.9 -4.65 L-3.55 -5.6 -3.6 -5.6 Q-4.35 -5.6 -4.95 -6.5 L-5.05 -6.5 Q-5.55 -6.5 -6.0 -6.65 -6.55 -6.8 -7.0 -7.15 L-7.25 -7.4 -7.5 -7.7 -7.55 -7.75 -7.55 -7.8 -7.6 -7.85 -7.6 -8.1 -7.45 -8.1 Q-7.25 -7.8 -7.0 -7.6 -6.55 -7.2 -5.95 -7.2 L-5.3 -7.15 -5.4 -7.4 Q-5.75 -8.1 -5.9 -8.85 L-6.0 -9.25 Q-6.0 -9.4 -5.9 -9.55 -5.85 -9.7 -5.85 -9.75 L-5.75 -9.75 -5.6 -9.25 Q-5.35 -8.55 -5.15 -8.15 -4.6 -7.2 -3.8 -6.6 L-3.85 -7.2 -3.85 -7.45 Q-3.75 -6.65 -3.55 -6.4 -3.5 -7.65 -3.25 -9.0 -3.0 -10.25 -3.0 -11.25 -3.0 -11.6 -3.15 -12.25 L-3.4 -13.05 -3.0 -12.4 Q-2.5 -11.5 -2.5 -11.2 -2.65 -10.75 -2.65 -10.05 L-2.65 -9.6 -2.5 -9.7 -2.4 -9.65 Q-1.1 -10.1 -0.4 -12.25 L-0.25 -13.0 -0.05 -14.7 -0.05 -14.75 0.05 -15.95 0.1 -15.95 0.2 -15.0 0.2 -14.9 Q0.2 -13.65 -0.1 -12.35 L-0.15 -12.2 -0.05 -12.1 Q0.6 -10.95 0.8 -10.95 L0.95 -11.0 Q1.2 -11.3 1.4 -11.6 L1.55 -11.95 1.75 -12.3 1.8 -12.35 1.85 -12.55 Q2.1 -13.35 2.1 -14.4 L2.0 -15.4 1.9 -16.45 1.9 -16.65 1.95 -16.95 1.95 -17.45 2.0 -17.45 2.2 -16.9 Q2.4 -16.3 2.45 -15.8 L2.45 -14.9 2.55 -14.95 2.6 -14.8 2.7 -14.75 Q3.9 -15.2 4.6 -17.5 L4.85 -18.45 4.95 -18.85 5.1 -19.25 5.25 -18.65 5.25 -18.3 Q5.25 -17.95 4.85 -17.1 4.85 -16.9 4.45 -16.1 L4.05 -15.3 Q4.25 -15.4 4.5 -15.5 L4.75 -15.6 Q4.8 -15.75 4.95 -15.65 L5.05 -15.75 5.15 -15.8 Q5.3 -15.95 5.55 -16.0 L5.65 -16.05 6.4 -16.75 Q6.6 -17.0 6.65 -17.35 L6.65 -17.8 Q6.75 -18.7 7.25 -19.35 7.4 -19.5 7.6 -19.65 L7.55 -19.35 Q7.3 -18.5 7.3 -17.85 L7.3 -17.6 7.1 -16.7 Q6.85 -15.5 6.75 -15.35 L6.75 -15.3 Q8.2 -15.5 9.2 -16.45 9.5 -16.7 9.95 -17.2 L10.55 -17.85 Q10.55 -17.8 10.6 -17.8 L10.6 -17.65 Q10.6 -16.45 9.4 -15.65 L9.35 -15.65 8.9 -15.4 8.6 -15.0 Q9.25 -14.75 9.6 -14.75 10.9 -14.75 12.15 -15.25 12.75 -15.55 13.2 -15.8 12.7 -15.35 12.1 -14.7 L12.0 -14.65 11.8 -14.5 Q11.25 -14.05 10.9 -13.65 L10.9 -13.55 11.55 -13.65 12.2 -13.7 Q13.8 -13.7 15.1 -12.35 L15.55 -11.85 15.6 -12.6 15.7 -12.6 Q15.8 -12.45 16.1 -11.35 16.0 -10.55 16.0 -10.25 16.0 -10.1 16.1 -9.75 16.2 -9.3 16.35 -9.15 L16.4 -9.1 16.4 -9.05 Q16.5 -9.65 16.6 -10.0 16.8 -10.6 17.25 -10.85 17.45 -10.6 17.55 -10.1 L17.65 -9.3 Q17.8 -8.2 18.45 -7.7 18.75 -8.75 18.9 -9.0 L18.85 -9.05 19.05 -9.05 Q19.45 -9.05 20.2 -8.05 L21.8 -5.9 Q23.55 -3.6 25.35 -2.95 L25.5 -2.9 Q26.05 -2.7 26.65 -2.7 L26.75 -2.7 27.15 -2.75 27.25 -2.75 27.3 -2.8 27.4 -2.8 27.4 -2.85 Q27.9 -3.05 28.35 -3.3 30.3 -4.35 30.85 -5.9 L30.85 -5.95 Q31.1 -6.55 31.1 -7.25 M-21.2 -18.7 Q-20.5 -18.65 -19.85 -17.8 -19.5 -17.35 -19.25 -16.8 -19.0 -16.35 -19.0 -16.25 -19.0 -15.9 -19.3 -15.3 -19.6 -14.7 -20.15 -13.8 -20.9 -12.6 -21.65 -11.7 -22.1 -12.15 -22.55 -14.0 -22.95 -15.45 -22.95 -15.75 -22.95 -15.9 -22.7 -16.35 L-22.7 -16.4 Q-22.45 -16.85 -22.45 -17.2 L-22.4 -17.9 -22.3 -18.25 -22.05 -18.5 Q-21.6 -18.75 -21.2 -18.7 M7.65 -30.7 Q7.15 -30.95 5.6 -31.2 5.45 -31.2 4.9 -30.9 L3.65 -30.15 Q2.75 -29.6 1.85 -29.35 L1.85 -29.3 1.8 -29.25 1.8 -29.05 1.75 -29.0 Q1.8 -28.6 2.55 -28.1 L2.65 -28.05 Q3.4 -27.6 4.0 -27.6 L5.0 -27.65 5.5 -27.95 Q5.8 -28.15 5.95 -28.15 6.15 -28.5 6.7 -29.2 7.6 -30.3 7.9 -30.55 7.8 -30.6 7.65 -30.7 M4.3 -31.4 Q5.2 -32.15 7.1 -31.55 7.8 -31.35 8.35 -31.0 8.9 -30.7 8.9 -30.5 8.9 -30.35 7.75 -29.5 6.65 -28.6 6.65 -28.05 6.65 -27.35 7.8 -26.35 9.0 -25.25 9.95 -25.25 11.35 -25.25 12.15 -26.05 L12.65 -26.65 Q12.9 -26.9 13.1 -26.9 14.4 -26.9 15.15 -26.45 15.6 -26.2 15.6 -26.0 L15.5 -25.4 Q15.45 -24.95 15.45 -24.7 15.45 -24.3 15.1 -24.0 14.75 -23.7 14.75 -23.5 14.75 -23.35 15.0 -23.25 15.35 -23.05 15.7 -23.05 16.3 -23.05 16.9 -23.4 17.45 -23.75 17.8 -23.75 18.45 -23.75 20.1 -22.15 20.1 -22.1 19.8 -21.65 L19.45 -21.15 Q20.45 -20.7 20.5 -20.7 21.3 -20.7 21.95 -21.35 L22.35 -21.8 Q22.6 -22.0 22.75 -22.0 23.15 -22.0 24.0 -21.45 24.85 -20.95 24.85 -20.85 24.85 -20.55 24.45 -20.1 24.05 -19.65 24.05 -19.45 24.05 -19.1 24.5 -19.05 L26.0 -19.1 Q26.8 -19.1 27.6 -17.8 27.6 -17.75 27.3 -17.5 27.0 -17.25 27.0 -17.15 L27.0 -17.1 27.15 -17.0 29.2 -15.15 29.95 -14.5 Q30.3 -14.0 30.6 -13.5 31.65 -12.2 32.0 -10.25 32.2 -9.1 32.2 -6.1 32.2 -5.05 31.75 -4.3 31.35 -3.55 30.35 -2.95 29.65 -2.5 28.3 -2.0 L27.75 -1.8 27.55 -1.7 27.5 -1.75 26.85 -1.7 Q25.2 -1.7 23.5 -3.15 22.95 -3.6 22.45 -4.2 L21.95 -4.75 Q21.45 -5.3 20.6 -6.4 L19.15 -8.1 19.15 -7.95 Q19.15 -7.65 19.05 -7.25 18.9 -6.65 18.65 -6.65 17.9 -6.65 17.5 -7.95 17.15 -8.95 17.15 -9.9 L17.1 -9.95 Q16.9 -8.8 16.9 -8.0 L16.85 -7.95 Q16.75 -7.9 16.6 -7.9 16.15 -7.9 15.95 -8.6 15.85 -8.95 15.65 -10.25 L15.65 -10.3 15.2 -9.25 Q14.15 -7.1 13.05 -7.1 12.85 -7.1 12.65 -7.35 12.45 -7.6 12.45 -7.65 L13.0 -8.45 Q13.6 -9.2 13.65 -9.75 L13.7 -10.1 Q14.1 -11.05 14.1 -11.8 L14.05 -12.45 13.55 -12.7 13.3 -11.75 Q13.0 -10.5 12.65 -9.85 11.95 -8.55 10.7 -7.4 L10.2 -7.3 10.45 -8.05 Q10.75 -9.2 10.85 -10.1 11.1 -11.1 11.1 -12.15 L11.1 -13.0 11.0 -12.95 Q10.65 -12.65 10.35 -12.6 10.25 -12.65 10.2 -12.7 10.1 -12.8 10.1 -12.95 10.1 -13.55 10.65 -14.15 L10.6 -14.3 9.65 -14.2 9.8 -13.3 9.85 -12.45 Q9.85 -10.35 9.3 -8.05 9.05 -7.05 7.85 -5.6 6.6 -4.0 5.85 -4.0 5.4 -4.0 5.2 -4.1 L5.15 -4.2 5.1 -4.25 5.1 -4.35 6.2 -6.65 Q7.3 -9.1 7.3 -9.8 7.3 -11.25 7.05 -13.0 L6.85 -14.7 6.3 -14.55 6.1 -14.6 Q6.05 -14.6 6.05 -14.75 L6.2 -15.1 5.6 -15.2 Q5.5 -15.0 5.55 -14.7 6.0 -13.7 6.0 -12.7 L6.0 -12.4 Q6.15 -11.7 6.15 -10.95 6.15 -9.45 5.9 -8.35 5.6 -7.2 5.1 -6.6 L4.85 -5.95 4.35 -5.2 Q3.8 -4.5 3.05 -4.05 2.8 -4.1 2.65 -4.55 L2.65 -4.65 2.7 -4.9 2.85 -5.2 3.05 -5.5 3.15 -5.7 Q3.55 -6.5 3.65 -7.2 L3.8 -8.55 3.85 -9.6 Q3.85 -10.7 3.4 -12.6 L3.15 -13.9 3.1 -13.75 Q2.8 -13.05 2.7 -12.85 L2.65 -12.9 2.4 -12.3 Q2.45 -11.8 2.5 -10.95 2.6 -9.9 2.6 -9.35 2.6 -7.95 2.05 -6.1 1.15 -3.25 -0.45 -3.25 -0.75 -3.25 -0.8 -3.45 L-0.85 -3.65 Q-0.85 -3.85 -0.25 -5.35 0.35 -7.05 0.35 -8.65 0.35 -9.35 0.05 -10.2 -0.15 -9.65 -0.5 -8.85 L-1.0 -7.75 -1.0 -7.6 Q-1.0 -7.15 -1.05 -6.65 -1.15 -5.5 -1.4 -4.4 -1.9 -2.05 -2.8 -2.05 -3.35 -2.05 -3.5 -2.3 L-3.5 -2.55 -3.25 -4.3 Q-3.65 -3.15 -4.6 -1.1 -4.75 -1.1 -4.95 -1.9 -5.05 -2.5 -5.25 -2.75 L-5.9 -2.1 Q-6.5 -1.5 -7.2 -0.95 -7.7 -0.7 -8.35 -0.3 -9.4 0.45 -9.85 0.7 L-11.85 1.75 Q-12.15 1.75 -12.25 1.45 L-12.3 1.25 -12.25 0.8 -12.15 0.3 Q-12.0 -0.5 -12.0 -0.6 L-12.0 -1.55 -11.85 -2.8 Q-12.55 -1.7 -13.1 0.05 -13.4 0.85 -13.55 1.6 -13.9 1.35 -14.5 0.55 -15.35 -0.55 -15.45 -1.35 L-15.7 -2.85 Q-15.85 -3.8 -15.9 -4.35 L-15.95 -3.9 -15.95 -4.7 -16.0 -4.7 Q-16.15 -4.25 -16.2 -3.45 L-16.25 -2.55 Q-16.25 -1.4 -16.15 -0.1 L-16.05 0.65 -16.1 0.65 Q-18.5 -0.65 -19.85 -2.4 -20.2 -2.1 -20.85 -1.7 -21.7 -1.7 -22.05 -2.0 -22.35 -2.2 -22.4 -2.65 L-22.4 -3.6 Q-22.4 -4.2 -22.6 -4.55 -22.9 -4.55 -23.25 -4.75 -23.6 -4.95 -23.65 -4.95 -24.3 -4.95 -24.45 -4.6 L-24.6 -4.3 Q-24.75 -4.2 -25.0 -4.2 -25.7 -4.2 -26.25 -4.8 -26.65 -5.25 -26.65 -5.45 L-26.5 -6.0 Q-26.35 -6.55 -26.35 -6.9 -26.35 -7.4 -25.95 -7.9 -25.7 -8.2 -25.05 -8.7 -24.4 -9.2 -24.2 -9.5 -23.8 -9.95 -23.8 -10.4 -23.8 -11.1 -23.9 -11.3 -24.2 -11.85 -25.2 -11.85 -25.6 -11.85 -27.15 -10.95 L-28.65 -10.0 Q-29.0 -10.0 -29.1 -10.25 -29.1 -10.35 -29.1 -10.5 L-28.9 -12.55 Q-28.75 -14.7 -28.75 -15.35 -28.75 -15.8 -27.7 -16.95 L-26.45 -18.25 Q-26.2 -18.75 -25.8 -19.75 -25.55 -20.25 -25.25 -20.6 -24.85 -21.35 -24.35 -22.05 -24.1 -22.4 -23.45 -23.0 -22.75 -23.65 -22.05 -24.05 L-21.7 -24.25 Q-21.15 -25.15 -18.25 -26.3 -17.45 -26.65 -15.8 -27.2 L-15.15 -27.55 Q-14.85 -27.7 -14.6 -27.8 -12.65 -28.6 -10.7 -29.05 L-10.65 -29.0 Q-8.05 -29.75 -5.25 -29.95 -5.1 -29.85 -4.9 -29.75 L-3.65 -29.85 -1.75 -29.75 Q0.25 -29.75 1.95 -30.25 3.45 -30.7 4.3 -31.4 M17.25 -21.5 L17.55 -21.4 18.65 -20.95 Q18.7 -21.35 19.0 -21.65 19.3 -22.05 19.3 -22.25 L19.3 -22.3 Q19.25 -22.4 19.0 -22.6 L18.9 -22.7 18.25 -23.05 Q17.7 -23.05 17.05 -22.7 16.6 -22.5 16.1 -22.4 L17.2 -21.5 17.25 -21.5 M14.35 -25.9 Q13.35 -25.95 12.95 -26.1 12.65 -25.45 11.7 -24.9 L11.2 -24.65 11.4 -24.45 12.1 -23.65 12.15 -23.65 12.25 -23.5 Q12.35 -23.45 12.45 -23.45 L12.7 -23.5 12.95 -23.55 14.25 -23.65 14.45 -24.05 Q14.65 -24.4 14.9 -24.65 L14.9 -25.85 14.35 -25.9 M22.3 -19.8 L22.9 -19.7 23.15 -19.55 23.4 -19.4 23.45 -19.75 23.45 -19.85 Q23.55 -20.2 23.85 -20.7 L23.8 -20.7 23.8 -20.75 23.4 -21.0 23.35 -21.05 23.2 -21.1 Q22.75 -21.35 22.6 -21.35 L21.3 -20.7 20.55 -20.3 Q21.4 -20.05 22.3 -19.8 M3.95 -14.7 L3.9 -14.7 3.85 -14.2 Q3.85 -13.95 4.0 -12.9 4.2 -11.8 4.2 -11.35 4.2 -7.55 3.65 -5.3 4.15 -5.95 4.65 -7.0 L5.3 -8.55 Q5.5 -9.4 5.5 -9.6 5.5 -10.85 5.3 -12.3 L5.3 -12.35 5.15 -13.1 5.1 -13.25 4.8 -14.95 4.75 -14.9 4.7 -14.9 Q4.35 -14.75 3.95 -14.7 M6.65 -16.65 Q6.25 -16.15 5.9 -15.75 6.2 -15.75 6.4 -15.65 6.55 -16.15 6.65 -16.65 M7.6 -14.9 L7.5 -14.9 7.6 -14.45 7.75 -13.6 Q7.75 -10.65 7.55 -9.35 7.2 -7.15 6.05 -4.85 7.55 -5.5 8.4 -7.75 9.1 -9.55 9.1 -11.2 9.1 -11.9 9.05 -12.6 9.0 -13.25 8.85 -13.95 L8.8 -14.35 Q8.6 -14.4 8.45 -14.5 8.25 -14.7 8.05 -14.9 L8.3 -15.15 7.6 -14.9 M11.8 -13.15 L11.75 -13.15 11.5 -13.1 11.4 -11.0 Q11.25 -8.95 11.0 -8.45 12.5 -10.15 12.8 -11.55 12.9 -12.1 12.9 -12.9 L12.7 -13.0 11.8 -13.15 M1.1 -10.75 L0.9 -10.75 0.85 -10.5 0.75 -10.45 0.7 -10.65 Q0.8 -10.05 0.8 -9.3 L0.8 -8.65 Q0.8 -7.65 0.6 -6.25 0.3 -4.6 -0.1 -4.1 L-0.1 -4.05 Q0.7 -4.4 1.5 -6.55 2.15 -8.4 2.15 -9.35 L2.1 -9.65 2.1 -9.75 2.0 -10.6 1.9 -11.4 1.85 -11.35 1.1 -10.8 1.1 -10.75 M5.7 -9.8 L5.6 -8.95 Q5.75 -9.65 5.75 -10.2 L5.7 -9.8 M8.2 -5.05 L8.25 -5.15 8.25 -5.1 8.2 -5.05 M4.3 -1.45 L4.3 -1.4 4.25 -1.35 4.3 -1.45 M15.0 -11.65 L14.85 -11.8 14.4 -12.2 14.4 -11.5 Q14.25 -9.55 13.3 -8.0 L13.35 -7.85 Q13.4 -7.8 13.55 -7.8 14.45 -7.8 14.95 -9.95 L15.25 -11.35 15.0 -11.65 M16.35 -9.95 L16.35 -10.25 16.4 -10.1 16.35 -9.95 M22.15 -0.5 L22.15 -0.5 M26.4 -17.6 L26.45 -17.65 26.6 -17.95 26.65 -17.95 Q26.4 -18.25 26.15 -18.3 L26.05 -18.35 25.75 -18.55 24.9 -18.55 25.45 -18.2 Q25.6 -18.15 25.8 -18.0 L26.4 -17.6 M-24.05 -16.95 Q-24.45 -17.85 -24.6 -18.05 L-24.55 -18.05 -24.55 -18.1 -24.4 -17.9 -24.75 -18.5 -25.1 -18.5 Q-25.3 -18.5 -25.45 -18.4 L-25.6 -18.1 Q-25.8 -17.85 -26.15 -17.7 -26.55 -17.15 -27.15 -16.45 -27.9 -15.55 -28.2 -15.0 -28.6 -14.05 -28.6 -12.75 L-28.55 -12.1 -28.5 -11.7 -28.5 -11.6 -28.45 -11.3 -28.45 -11.2 -28.4 -11.15 -27.3 -11.45 -25.95 -11.8 Q-25.85 -11.85 -24.9 -12.55 -24.3 -13.0 -24.05 -13.15 L-24.0 -13.2 Q-23.75 -13.8 -23.75 -14.25 -23.75 -14.35 -23.55 -14.65 -23.4 -14.95 -23.4 -15.05 -23.4 -15.35 -23.9 -16.6 L-24.05 -16.95 M-22.4 -7.5 Q-22.65 -7.8 -23.65 -8.75 L-23.7 -8.75 -24.65 -8.15 Q-25.95 -7.3 -26.0 -6.0 L-26.0 -5.95 Q-26.0 -5.5 -25.65 -5.25 -25.3 -5.0 -24.8 -5.0 -24.6 -5.0 -24.05 -5.15 L-23.15 -5.3 Q-22.75 -5.3 -22.45 -5.2 L-22.25 -5.4 Q-21.95 -5.7 -21.95 -5.9 -21.95 -6.85 -22.4 -7.5 M-19.8 -16.85 L-19.95 -17.45 Q-19.95 -17.6 -20.65 -18.0 -21.45 -18.45 -21.75 -18.1 -22.1 -17.45 -22.1 -17.0 -22.1 -16.65 -22.35 -15.85 L-22.5 -15.25 -22.6 -14.75 Q-22.6 -14.4 -22.35 -13.6 -22.05 -12.55 -21.65 -12.55 -20.95 -12.55 -20.2 -14.2 -19.55 -15.6 -19.55 -16.0 -19.55 -16.1 -19.75 -16.7 L-19.8 -16.8 -19.8 -16.85 M-19.6 -10.75 Q-19.6 -10.6 -20.1 -9.95 -20.6 -9.25 -20.75 -9.25 -21.05 -9.25 -21.3 -9.75 L-21.35 -9.85 -21.35 -9.9 Q-21.5 -10.25 -21.55 -10.6 -21.55 -10.95 -21.25 -11.35 -20.95 -11.8 -20.6 -12.0 L-20.4 -12.05 -20.3 -12.1 Q-20.05 -12.1 -19.9 -11.95 -19.6 -11.65 -19.6 -10.75 M-20.15 -11.25 L-20.2 -11.5 Q-20.4 -11.5 -20.7 -11.35 -21.0 -11.15 -21.0 -11.0 L-20.95 -10.55 -20.85 -9.95 Q-20.7 -10.05 -20.4 -10.5 -20.1 -10.9 -20.1 -11.0 -20.1 -11.1 -20.15 -11.25 M-21.65 -4.15 Q-21.6 -3.85 -21.6 -2.95 L-21.6 -2.8 -21.55 -2.7 -21.25 -2.65 -21.0 -2.6 Q-20.95 -2.6 -20.55 -3.0 L-20.4 -3.15 -21.2 -4.5 -21.15 -4.7 -21.35 -5.0 -21.5 -5.25 Q-21.5 -4.8 -21.5 -4.6 -21.55 -4.35 -21.65 -4.15 M-0.2 -10.85 L-0.45 -11.3 -0.6 -10.95 -0.9 -9.45 -0.9 -9.25 Q-0.65 -9.9 -0.2 -10.85 M-2.55 -8.9 L-2.8 -8.85 -2.9 -8.3 Q-2.7 -8.15 -2.55 -7.15 L-2.45 -5.9 Q-2.45 -5.4 -2.65 -4.45 -2.8 -3.5 -2.8 -2.8 L-2.8 -2.7 -2.75 -2.7 Q-2.4 -3.15 -1.95 -4.45 L-1.95 -4.6 -1.7 -5.85 Q-1.45 -7.05 -1.45 -7.6 L-1.45 -7.95 -1.45 -8.0 -1.5 -8.1 -1.55 -8.5 -1.65 -9.35 -1.65 -9.4 Q-2.1 -9.0 -2.55 -8.9 M-3.2 -6.9 L-3.2 -6.95 -3.35 -6.2 -3.1 -6.6 -3.2 -6.9" fill="#121212" fill-rule="evenodd" stroke="none"/>
  </g>
</svg>
