<?xml version="1.0" encoding="UTF-8" standalone="no"?>
<svg xmlns:ffdec="https://www.free-decompiler.com/flash" xmlns:xlink="http://www.w3.org/1999/xlink" ffdec:objectType="shape" height="26.9px" width="23.55px" xmlns="http://www.w3.org/2000/svg">
  <g transform="matrix(1.0, 0.0, 0.0, 1.0, 13.75, 27.35)">
    <path d="M-11.0 -26.75 L-11.95 -26.85 -13.75 -27.05 -13.75 -27.1 -13.55 -27.1 Q-13.35 -27.3 -12.6 -27.35 L-11.45 -27.35 -8.95 -27.25 -8.55 -27.25 Q-7.95 -27.05 -7.3 -26.85 L-3.1 -25.75 -0.8 -25.15 0.3 -24.3 Q-0.6 -24.8 -1.1 -24.65 L-1.3 -24.7 -1.35 -24.6 -1.4 -24.45 Q-1.4 -24.35 0.35 -23.1 L-0.1 -23.25 Q-0.5 -23.5 -1.05 -23.8 -2.95 -24.8 -6.1 -25.65 -7.65 -26.1 -9.15 -26.4 L-9.2 -26.4 -9.35 -26.45 -10.7 -26.65 -10.75 -26.7 -11.0 -26.75 M-7.6 -13.05 L-7.6 -13.05" fill="#121212" fill-rule="evenodd" stroke="none"/>
    <path d="M-8.75 -16.95 Q-8.85 -17.85 -8.8 -19.1 -8.65 -21.4 -8.65 -21.8 -8.7 -23.3 -9.15 -24.35 -9.8 -25.65 -11.2 -26.65 L-11.0 -26.75 -10.75 -26.7 -10.7 -26.65 -9.35 -26.45 -9.2 -26.4 -9.15 -26.4 Q-7.65 -26.1 -6.1 -25.65 -2.95 -24.8 -1.05 -23.8 -0.5 -23.5 -0.1 -23.25 L0.35 -23.1 0.45 -23.0 1.6 -22.2 Q2.0 -21.75 2.25 -21.4 L3.2 -19.95 3.4 -19.5 Q3.9 -18.3 4.3 -17.65 4.7 -17.0 5.3 -15.75 5.9 -14.4 6.15 -13.95 6.9 -12.7 7.8 -11.7 L7.9 -11.55 Q8.0 -11.25 8.2 -10.9 L8.1 -11.0 Q8.25 -10.15 8.2 -9.4 7.95 -7.5 7.75 -6.9 L7.3 -6.9 7.3 -6.9 Q7.3 -8.2 6.25 -9.8 L5.55 -10.85 Q5.25 -11.35 5.25 -11.65 5.3 -12.75 4.7 -13.8 4.55 -14.75 4.05 -15.05 L4.05 -14.9 3.55 -15.8 Q3.55 -16.75 3.35 -17.15 3.15 -17.5 2.0 -18.95 L1.9 -18.75 Q1.8 -18.65 1.8 -18.45 1.8 -17.9 2.45 -15.95 3.1 -14.0 3.1 -13.6 L3.2 -13.6 Q3.25 -14.0 3.4 -14.65 3.65 -13.45 3.65 -13.2 3.65 -12.55 3.85 -11.6 L3.8 -11.4 3.9 -11.3 Q4.1 -10.5 4.4 -9.6 4.8 -8.35 5.2 -7.35 5.2 -7.0 4.5 -6.5 4.3 -6.35 3.0 -5.55 L2.9 -5.5 2.15 -5.5 Q1.6 -5.55 1.1 -5.7 0.55 -6.25 0.1 -6.95 -0.55 -7.85 -1.25 -9.3 L1.05 -8.6 Q-0.1 -10.2 -3.7 -12.6 -5.05 -13.85 -6.25 -14.8 -6.9 -15.45 -7.45 -15.9 -7.8 -16.15 -8.05 -16.35 L-8.4 -16.75 -8.75 -16.95 M3.6 -1.85 L4.1 -1.75 3.9 -1.75 Q3.85 -1.75 3.6 -1.85" fill="#8c1c1c" fill-rule="evenodd" stroke="none"/>
    <path d="M9.25 -8.75 Q9.35 -8.0 9.5 -7.25 L9.45 -7.05 Q9.35 -6.55 9.1 -5.9 L8.9 -6.15 8.7 -6.45 Q8.3 -6.85 7.75 -6.9 7.95 -7.5 8.2 -9.4 8.25 -10.15 8.1 -11.0 L8.2 -10.9 Q8.35 -10.55 8.55 -10.15 L8.65 -10.0 8.65 -9.95 Q9.05 -9.3 9.25 -8.75 M-10.2 -14.6 Q-11.1 -15.55 -12.1 -17.05 L-11.8 -16.95 -11.7 -17.1 Q-10.55 -17.35 -9.45 -17.05 L-8.75 -16.85 -8.75 -16.95 -8.4 -16.75 -8.05 -16.35 Q-7.8 -16.15 -7.45 -15.9 -6.9 -15.45 -6.25 -14.8 -5.05 -13.85 -3.7 -12.6 -0.1 -10.2 1.05 -8.6 L-1.25 -9.3 Q-0.55 -7.85 0.1 -6.95 0.55 -6.25 1.1 -5.7 1.6 -5.55 2.15 -5.5 L2.9 -5.5 3.0 -5.55 Q4.3 -6.35 4.5 -6.5 5.2 -7.0 5.2 -7.35 4.8 -8.35 4.4 -9.6 4.1 -10.5 3.9 -11.3 4.1 -11.1 4.15 -11.05 4.55 -11.25 4.7 -11.5 4.85 -11.7 4.85 -12.0 4.85 -13.0 4.75 -13.7 L4.7 -13.75 4.7 -13.8 Q5.3 -12.75 5.25 -11.65 5.25 -11.35 5.55 -10.85 L6.25 -9.8 Q7.3 -8.2 7.3 -6.9 L7.3 -6.9 7.15 -6.9 Q6.6 -6.95 6.3 -7.3 L6.25 -7.35 6.2 -7.45 6.15 -7.5 6.15 -7.55 6.1 -7.6 6.1 -7.65 6.05 -7.8 Q6.0 -7.95 5.8 -8.8 5.7 -9.4 5.5 -9.75 L5.4 -9.75 5.4 -9.6 Q5.35 -9.5 5.35 -9.3 5.3 -8.25 6.9 -6.25 L7.65 -5.25 8.0 -4.8 Q8.3 -4.35 8.4 -4.0 8.1 -3.4 7.7 -3.2 L7.75 -2.9 Q6.55 -2.0 4.15 -1.75 L4.1 -1.75 3.6 -1.85 1.65 -2.6 0.85 -2.9 -3.0 -4.45 Q-3.3 -4.8 -3.5 -5.1 L-3.55 -5.25 Q-5.25 -8.0 -6.2 -9.6 -6.5 -10.65 -6.6 -11.7 L-6.8 -12.05 -7.4 -12.85 -7.6 -13.05 -8.05 -13.4 -8.2 -13.5 -8.25 -13.55 -9.45 -14.5 Q-9.9 -14.7 -10.3 -14.75 L-10.2 -14.6 M3.55 -15.8 L4.05 -14.9 Q4.15 -13.3 4.05 -12.8 3.9 -12.2 3.85 -11.6 3.65 -12.55 3.65 -13.2 3.65 -13.45 3.4 -14.65 L3.4 -14.7 3.55 -15.55 3.55 -15.8 M-7.6 -13.05 L-7.6 -13.05 M-2.15 -9.0 L-2.1 -9.05 -2.15 -9.05 -2.15 -9.0" fill="#4d0f0f" fill-rule="evenodd" stroke="none"/>
    <path d="M0.3 -24.3 Q0.65 -24.1 1.05 -23.8 L3.25 -22.05 3.3 -22.0 Q3.95 -21.2 4.5 -19.65 5.25 -17.6 5.45 -17.2 6.25 -15.55 7.95 -13.1 8.45 -11.35 9.2 -9.45 L9.25 -8.75 Q9.05 -9.3 8.65 -9.95 L8.65 -10.0 8.55 -10.15 Q8.35 -10.55 8.2 -10.9 8.0 -11.25 7.9 -11.55 L7.8 -11.7 Q6.9 -12.7 6.15 -13.95 5.9 -14.4 5.3 -15.75 4.7 -17.0 4.3 -17.65 3.9 -18.3 3.4 -19.5 L3.2 -19.95 2.25 -21.4 Q2.0 -21.75 1.6 -22.2 L0.45 -23.0 0.35 -23.1 Q-1.4 -24.35 -1.4 -24.45 L-1.35 -24.6 -1.3 -24.7 -1.1 -24.65 Q-0.6 -24.8 0.3 -24.3 M9.5 -7.25 Q9.6 -6.55 9.75 -5.8 L9.8 -5.55 Q9.6 -5.2 9.55 -4.85 9.4 -3.85 8.65 -2.85 7.15 -0.75 3.9 -0.45 L3.65 -0.5 Q3.05 -0.75 2.35 -1.2 L1.95 -1.35 Q0.8 -2.05 0.5 -2.15 L-0.65 -2.4 Q-1.8 -2.4 -2.5 -2.75 L-3.05 -2.9 -3.2 -3.1 Q-5.5 -5.95 -5.8 -6.65 -6.2 -7.1 -6.55 -8.2 -7.0 -9.55 -7.2 -9.9 -7.4 -10.25 -7.6 -10.55 -7.85 -11.45 -8.05 -11.95 -8.4 -12.75 -9.0 -13.4 L-9.15 -13.45 -9.3 -13.55 -9.9 -14.2 -10.15 -14.55 -10.2 -14.6 -10.3 -14.75 Q-9.9 -14.7 -9.45 -14.5 L-8.25 -13.55 -8.2 -13.5 -8.05 -13.4 -7.6 -13.05 -7.4 -12.85 -6.8 -12.05 -6.6 -11.7 Q-6.5 -10.65 -6.2 -9.6 -5.25 -8.0 -3.55 -5.25 L-3.5 -5.1 Q-3.3 -4.8 -3.0 -4.45 L0.85 -2.9 1.65 -2.6 3.6 -1.85 Q3.85 -1.75 3.9 -1.75 L4.1 -1.75 4.15 -1.75 Q6.55 -2.0 7.75 -2.9 L7.7 -3.2 Q8.1 -3.4 8.4 -4.0 8.3 -4.35 8.0 -4.8 L7.65 -5.25 6.9 -6.25 Q5.3 -8.25 5.35 -9.3 5.35 -9.5 5.4 -9.6 L5.4 -9.75 5.5 -9.75 Q5.7 -9.4 5.8 -8.8 6.0 -7.95 6.05 -7.8 L6.1 -7.65 6.1 -7.6 6.15 -7.55 6.15 -7.5 6.2 -7.45 6.25 -7.35 6.3 -7.3 Q6.6 -6.95 7.15 -6.9 L7.3 -6.9 7.75 -6.9 Q8.3 -6.85 8.7 -6.45 L8.9 -6.15 9.1 -5.9 Q9.35 -6.55 9.45 -7.05 L9.5 -7.25 M3.4 -14.65 Q3.25 -14.0 3.2 -13.6 L3.1 -13.6 Q3.1 -14.0 2.45 -15.95 1.8 -17.9 1.8 -18.45 1.8 -18.65 1.9 -18.75 L2.0 -18.95 Q3.15 -17.5 3.35 -17.15 3.55 -16.75 3.55 -15.8 L3.55 -15.55 3.4 -14.7 3.4 -14.65 M4.05 -14.9 L4.05 -15.05 Q4.55 -14.75 4.7 -13.8 L4.7 -13.75 4.75 -13.7 Q4.85 -13.0 4.85 -12.0 4.85 -11.7 4.7 -11.5 4.55 -11.25 4.15 -11.05 4.1 -11.1 3.9 -11.3 L3.8 -11.4 3.85 -11.6 Q3.9 -12.2 4.05 -12.8 4.15 -13.3 4.05 -14.9" fill="#111111" fill-rule="evenodd" stroke="none"/>
    <path d="M-2.15 -9.0 L-2.15 -9.05 -2.1 -9.05 -2.15 -9.0" fill="#805619" fill-rule="evenodd" stroke="none"/>
  </g>
</svg>
