<?xml version="1.0" encoding="UTF-8" standalone="no"?>
<svg xmlns:ffdec="https://www.free-decompiler.com/flash" xmlns:xlink="http://www.w3.org/1999/xlink" ffdec:objectType="shape" height="32.8px" width="73.9px" xmlns="http://www.w3.org/2000/svg">
  <g transform="matrix(1.0, 0.0, 0.0, 1.0, 32.25, 32.8)">
    <path d="M39.6 -6.3 Q38.45 -7.05 36.5 -7.05 35.4 -7.05 33.5 -5.95 32.1 -5.2 31.6 -4.7 L31.5 -4.7 Q32.55 -6.0 33.45 -6.6 34.65 -7.45 36.2 -7.75 L35.85 -7.75 Q34.15 -7.75 32.65 -6.85 31.75 -6.3 30.3 -4.95 28.75 -3.5 28.0 -3.05 26.9 -2.35 25.75 -2.2 23.05 -1.5 19.0 -1.35 17.3 -1.45 15.6 -1.85 11.75 -2.35 6.9 -5.45 4.85 -6.75 3.0 -8.35 1.55 -9.5 0.85 -10.35 L0.8 -10.35 Q0.1 -11.3 -0.75 -12.3 -2.65 -14.5 -6.6 -18.2 -8.15 -19.65 -10.05 -21.2 L-13.85 -24.2 -16.45 -25.75 Q-17.95 -26.65 -18.95 -27.35 L-19.85 -27.7 Q-23.95 -29.95 -29.05 -31.65 L-30.2 -32.05 -30.3 -32.05 -32.1 -32.6 -31.8 -32.7 -31.35 -32.8 Q-25.05 -32.05 -16.65 -26.8 -13.1 -24.6 -10.05 -22.15 L-9.5 -21.7 -8.95 -21.2 -8.05 -20.25 Q-5.75 -18.4 -3.45 -16.0 L-0.9 -13.2 Q0.65 -11.5 1.6 -10.55 4.6 -7.5 7.75 -5.65 8.7 -5.1 9.75 -4.55 14.85 -2.2 20.2 -2.2 22.35 -2.2 24.3 -2.5 L24.25 -2.6 Q26.5 -2.9 28.1 -4.1 29.0 -4.75 30.6 -6.25 32.2 -7.55 33.65 -8.1 36.0 -9.0 37.7 -7.9 39.3 -7.9 40.55 -6.7 41.1 -6.2 41.45 -5.55 L41.55 -5.4 Q41.65 -4.95 41.65 -4.6 41.65 -3.9 41.4 -3.25 41.2 -3.1 40.85 -3.0 40.9 -3.5 40.65 -4.15 L40.5 -4.4 40.1 -4.65 39.75 -4.95 Q39.1 -5.4 38.15 -5.25 L37.9 -5.2 37.35 -5.1 Q37.05 -4.9 36.8 -4.65 36.45 -4.35 35.5 -3.0 34.75 -1.9 33.85 -1.45 32.55 -0.75 30.3 -0.75 L29.05 -0.9 27.75 -1.05 27.25 -1.0 Q24.95 -0.25 22.7 -0.15 L22.2 0.0 18.55 0.0 Q17.5 0.0 17.05 -0.25 L16.95 -0.25 Q12.35 -0.7 7.7 -3.25 5.0 -4.55 2.6 -6.5 1.65 -7.35 0.15 -8.8 L-0.8 -9.65 Q-4.45 -12.95 -4.95 -13.35 -7.8 -15.7 -9.5 -16.85 -11.95 -18.55 -14.65 -19.75 -20.75 -22.6 -32.2 -24.65 L-32.2 -24.75 -32.25 -25.05 Q-32.25 -25.3 -32.0 -25.45 L-31.9 -25.5 -31.65 -25.6 Q-31.2 -25.7 -30.35 -25.6 L-29.9 -25.5 Q-28.65 -25.35 -26.8 -24.8 -21.7 -23.4 -15.6 -20.65 L-14.3 -20.05 Q-11.55 -18.7 -10.5 -18.15 L-10.2 -18.0 -10.15 -17.95 Q-7.35 -16.45 -5.25 -14.65 -3.85 -13.5 -1.85 -11.45 L-0.95 -10.6 Q2.05 -7.8 3.2 -6.9 5.6 -4.9 8.25 -3.6 9.5 -2.95 10.9 -2.4 13.1 -1.65 15.75 -1.05 L15.8 -1.05 15.95 -1.1 16.1 -1.05 17.1 -0.85 18.0 -0.9 Q19.15 -0.8 21.1 -0.8 L23.65 -0.95 24.25 -1.05 25.05 -1.1 25.4 -1.2 Q25.45 -1.3 25.6 -1.35 L27.6 -1.65 27.75 -1.7 Q28.25 -1.65 29.25 -1.65 L29.95 -1.6 30.0 -1.6 30.85 -1.5 Q33.7 -1.5 34.65 -2.45 34.95 -2.75 35.15 -3.3 L35.45 -4.1 Q35.95 -4.95 36.55 -5.45 36.85 -5.7 37.15 -5.85 37.65 -6.0 38.35 -5.85 39.75 -6.05 40.65 -5.0 L40.75 -4.95 40.5 -5.35 Q40.15 -5.9 39.6 -6.3" fill="#121212" fill-rule="evenodd" stroke="none"/>
    <path d="M-32.15 -29.75 Q-30.75 -29.5 -28.85 -28.95 -26.35 -28.25 -23.65 -27.25 -21.1 -26.3 -19.85 -25.6 -16.2 -23.8 -12.4 -21.2 -10.75 -20.05 -6.35 -16.75 -5.2 -15.9 -2.25 -12.85 1.05 -9.4 3.2 -7.6 10.3 -1.6 17.5 -1.1 L17.75 -1.1 18.75 -1.05 18.8 -1.05 Q22.2 -1.05 24.85 -1.4 26.85 -1.75 28.3 -2.45 29.25 -2.9 30.05 -3.5 30.8 -4.15 30.9 -4.2 L30.95 -4.0 Q30.65 -3.8 30.0 -2.9 L29.65 -2.5 Q31.1 -3.0 32.3 -3.7 32.9 -4.05 33.85 -4.7 34.75 -5.3 35.25 -5.55 36.75 -6.35 38.55 -6.35 L39.6 -6.3 Q40.15 -5.9 40.5 -5.35 L40.75 -4.95 40.65 -5.0 Q39.75 -6.05 38.35 -5.85 37.65 -6.0 37.15 -5.85 36.85 -5.7 36.55 -5.45 35.95 -4.95 35.45 -4.1 L35.15 -3.3 Q34.95 -2.75 34.65 -2.45 33.7 -1.5 30.85 -1.5 L30.0 -1.6 29.95 -1.6 29.25 -1.65 Q28.25 -1.65 27.75 -1.7 L27.6 -1.65 25.6 -1.35 Q25.45 -1.3 25.4 -1.2 L25.05 -1.1 24.25 -1.05 23.65 -0.95 21.1 -0.8 Q19.15 -0.8 18.0 -0.9 L17.1 -0.85 16.1 -1.05 15.95 -1.1 15.8 -1.05 15.75 -1.05 Q13.1 -1.65 10.9 -2.4 9.5 -2.95 8.25 -3.6 5.6 -4.9 3.2 -6.9 2.05 -7.8 -0.95 -10.6 L-1.85 -11.45 Q-3.85 -13.5 -5.25 -14.65 -7.35 -16.45 -10.15 -17.95 L-10.2 -18.0 -10.5 -18.15 Q-11.55 -18.7 -14.3 -20.05 L-15.6 -20.65 Q-21.7 -23.4 -26.8 -24.8 -28.65 -25.35 -29.9 -25.5 L-30.35 -25.6 Q-31.2 -25.7 -31.65 -25.6 L-32.05 -25.7 -32.1 -25.9 Q-32.2 -26.45 -32.2 -27.1 L-32.2 -27.65 -32.15 -28.6 -32.15 -29.75" fill="#4d0f0f" fill-rule="evenodd" stroke="none"/>
    <path d="M-30.3 -32.05 L-30.2 -32.05 -29.05 -31.65 Q-23.95 -29.95 -19.85 -27.7 L-18.95 -27.35 Q-17.95 -26.65 -16.45 -25.75 L-13.85 -24.2 -10.05 -21.2 Q-8.15 -19.65 -6.6 -18.2 -2.65 -14.5 -0.75 -12.3 0.1 -11.3 0.8 -10.35 L0.85 -10.35 Q1.55 -9.5 3.0 -8.35 4.85 -6.75 6.9 -5.45 11.75 -2.35 15.6 -1.85 17.3 -1.45 19.0 -1.35 23.05 -1.5 25.75 -2.2 26.9 -2.35 28.0 -3.05 28.75 -3.5 30.3 -4.95 31.75 -6.3 32.65 -6.85 34.15 -7.75 35.85 -7.75 L36.2 -7.75 Q34.65 -7.45 33.45 -6.6 32.55 -6.0 31.5 -4.7 L31.6 -4.7 Q32.1 -5.2 33.5 -5.95 35.4 -7.05 36.5 -7.05 38.45 -7.05 39.6 -6.3 L38.55 -6.35 Q36.75 -6.35 35.25 -5.55 34.75 -5.3 33.85 -4.7 32.9 -4.05 32.3 -3.7 31.1 -3.0 29.65 -2.5 L30.0 -2.9 Q30.65 -3.8 30.95 -4.0 L30.9 -4.2 Q30.8 -4.15 30.05 -3.5 29.25 -2.9 28.3 -2.45 26.85 -1.75 24.85 -1.4 22.2 -1.05 18.8 -1.05 L18.75 -1.05 17.75 -1.1 17.5 -1.1 Q10.3 -1.6 3.2 -7.6 1.05 -9.4 -2.25 -12.85 -5.2 -15.9 -6.35 -16.75 -10.75 -20.05 -12.4 -21.2 -16.2 -23.8 -19.85 -25.6 -21.1 -26.3 -23.65 -27.25 -26.35 -28.25 -28.85 -28.95 -30.75 -29.5 -32.15 -29.75 L-32.1 -30.7 Q-32.1 -30.85 -32.15 -31.2 -32.15 -31.5 -32.15 -31.65 -32.05 -32.15 -31.35 -32.4 L-30.6 -32.15 -30.55 -32.15 -30.35 -32.1 -30.3 -32.05 M-31.65 -25.6 L-31.9 -25.5 -32.0 -25.45 -32.05 -25.7 -31.65 -25.6" fill="#8c1c1c" fill-rule="evenodd" stroke="none"/>
  </g>
</svg>
