<?xml version="1.0" encoding="UTF-8" standalone="no"?>
<svg xmlns:ffdec="https://www.free-decompiler.com/flash" xmlns:xlink="http://www.w3.org/1999/xlink" ffdec:objectType="shape" height="34.85px" width="56.65px" xmlns="http://www.w3.org/2000/svg">
  <g transform="matrix(1.0, 0.0, 0.0, 1.0, 31.05, 32.1)">
    <path d="M2.3 -11.2 L2.2 -11.05 2.1 -11.05 1.95 -11.15 1.55 -11.1 Q1.4 -11.15 1.3 -11.25 0.95 -11.45 -0.2 -12.55 -1.45 -13.8 -1.45 -13.85 L-1.45 -14.0 -1.5 -14.0 -1.6 -13.8 Q-1.7 -13.9 -1.8 -14.0 L-1.8 -14.2 Q-2.05 -14.1 -2.2 -14.1 -2.7 -14.1 -3.2 -14.8 L-7.95 -18.3 Q-8.8 -18.65 -9.1 -18.85 -9.35 -19.0 -9.45 -19.2 L-9.6 -19.15 Q-9.9 -19.2 -10.05 -19.4 L-10.3 -19.35 Q-11.15 -19.4 -11.3 -19.75 L-11.35 -19.9 -11.8 -20.2 Q-13.25 -21.05 -13.5 -21.15 -14.3 -21.5 -14.6 -21.7 L-25.95 -28.75 -24.45 -30.55 Q-24.0 -30.4 -23.65 -30.2 L-22.8 -30.6 Q-21.9 -30.95 -21.35 -31.35 -20.25 -32.15 -19.4 -32.1 -18.7 -32.1 -18.7 -31.6 L-19.6 -29.25 -19.35 -28.95 -19.2 -28.75 Q-18.85 -28.65 -18.6 -28.3 -18.45 -28.05 -18.4 -27.85 L-17.1 -27.9 -16.65 -28.35 Q-16.0 -28.85 -14.3 -28.25 -14.25 -28.15 -14.25 -27.85 -14.25 -27.7 -14.4 -27.15 L-14.5 -26.8 Q-14.0 -26.75 -13.75 -26.15 L-13.7 -25.95 Q-13.45 -25.65 -13.4 -25.55 -13.25 -25.6 -13.0 -25.75 L-12.65 -25.8 Q-12.25 -25.8 -11.8 -25.4 -11.35 -25.6 -10.85 -25.7 L-9.5 -25.75 Q-9.4 -25.3 -9.1 -24.9 -8.85 -24.6 -8.85 -24.3 -8.85 -24.1 -9.05 -23.75 L-9.15 -23.55 -8.8 -23.45 Q-8.5 -23.35 -8.4 -23.2 -8.3 -23.1 -8.3 -22.85 L-8.15 -22.75 Q-7.9 -22.6 -7.8 -22.45 L-6.9 -21.9 Q-6.55 -22.1 -6.0 -22.2 -5.1 -22.2 -4.65 -21.55 -4.45 -21.2 -4.4 -20.85 L-4.45 -20.65 Q-4.3 -20.5 -4.25 -20.2 L-3.5 -19.45 Q-3.15 -19.6 -2.9 -19.55 -2.65 -19.5 -2.55 -19.25 -1.8 -19.15 -1.35 -18.95 -0.45 -18.5 -0.4 -17.4 L-0.45 -17.1 -0.5 -17.1 Q-0.2 -16.8 -0.25 -16.5 L-0.25 -16.35 Q0.0 -16.35 0.1 -16.2 0.15 -16.15 0.2 -15.9 L0.15 -15.9 -0.05 -15.7 0.25 -15.95 0.3 -15.95 Q0.8 -16.2 1.3 -15.6 L1.3 -15.65 Q2.1 -15.85 2.45 -15.4 2.65 -15.1 2.65 -14.7 2.65 -14.55 2.75 -14.4 L2.9 -14.2 2.85 -14.1 2.95 -14.1 Q3.3 -13.95 3.4 -13.85 3.5 -13.7 3.5 -13.4 L3.7 -13.25 3.9 -13.05 4.0 -12.8 4.2 -12.85 Q5.0 -12.7 6.95 -10.55 L6.9 -10.45 7.1 -10.25 7.15 -10.1 7.35 -10.1 Q7.65 -10.1 8.0 -9.75 8.5 -9.6 9.1 -8.25 9.35 -8.05 9.8 -7.85 10.2 -7.6 10.15 -7.2 L12.15 -5.3 Q13.05 -4.85 12.95 -4.25 L12.9 -4.0 Q13.05 -4.1 13.25 -4.15 L13.0 -4.05 12.8 -3.75 12.95 -3.95 13.25 -4.0 13.25 -4.05 Q13.5 -4.05 13.8 -3.9 L13.7 -3.8 Q13.9 -3.75 14.05 -3.6 L14.6 -3.05 Q14.95 -2.7 15.2 -2.6 16.25 -2.1 16.6 -1.5 L16.7 -1.35 16.75 -1.35 16.35 -0.8 16.9 -1.35 16.95 -1.35 17.45 -0.95 Q17.95 -0.65 18.45 -0.4 L20.25 0.1 20.35 0.15 20.3 0.2 20.4 0.25 20.4 0.3 Q20.35 0.5 20.45 0.55 L20.65 0.6 20.85 0.4 Q21.35 0.4 21.8 0.65 22.1 0.8 22.3 1.0 L22.85 0.9 Q23.55 1.4 25.0 0.8 25.95 1.0 25.3 1.9 24.9 2.35 23.85 2.65 22.65 2.95 22.0 2.4 21.95 2.4 21.95 2.35 21.65 2.45 21.25 2.5 20.35 2.6 19.95 2.3 L19.75 2.15 19.75 2.3 19.6 2.15 19.6 2.1 Q18.95 2.55 17.9 2.1 16.2 1.35 16.0 0.8 15.95 0.7 15.95 0.55 L15.75 0.35 15.7 0.5 15.55 0.5 15.25 0.35 15.2 0.3 15.2 0.25 Q14.6 0.0 13.4 -0.85 11.85 -2.0 11.95 -2.4 L12.0 -2.55 Q11.75 -2.4 11.5 -2.45 L11.25 -2.5 11.2 -2.55 11.1 -2.6 11.1 -2.75 9.65 -3.95 Q8.85 -4.85 8.7 -5.1 8.65 -5.15 8.7 -5.3 L8.75 -5.35 8.6 -5.5 8.5 -5.65 8.5 -5.7 8.2 -5.6 Q7.85 -5.65 6.75 -6.95 L2.45 -10.65 2.5 -10.8 2.6 -11.05 2.4 -11.05 2.85 -11.8 2.9 -11.75 2.8 -11.6 2.85 -11.5 3.2 -12.0 3.45 -12.3 3.45 -12.4 3.4 -12.35 3.4 -12.45 3.35 -12.6 3.3 -12.7 Q3.15 -12.4 2.9 -12.05 L2.7 -11.75 2.3 -11.2 M2.6 -12.5 L2.65 -12.55 Q2.85 -12.95 2.95 -13.4 L2.4 -13.95 2.3 -14.0 2.25 -14.05 1.9 -14.45 Q0.8 -15.45 0.7 -15.5 L0.6 -15.5 Q0.2 -15.3 -0.25 -14.95 L-0.45 -14.75 Q-0.95 -14.35 -0.95 -14.05 -1.0 -13.85 0.05 -12.95 1.15 -12.05 1.45 -12.0 1.65 -12.0 1.7 -11.85 L2.0 -11.85 Q2.1 -12.0 2.3 -12.0 L2.35 -12.05 2.35 -12.1 2.6 -12.5 M2.1 -15.15 L1.95 -15.1 Q1.85 -15.1 1.85 -14.9 1.85 -14.7 1.9 -14.65 1.95 -14.6 2.1 -14.6 L2.3 -14.65 2.4 -14.9 Q2.3 -15.05 2.1 -15.15 M8.95 -6.4 L9.05 -6.5 9.1 -6.65 9.2 -6.9 Q9.25 -7.5 7.55 -9.45 L7.6 -9.55 7.5 -9.6 7.05 -9.45 7.0 -9.35 6.7 -8.95 6.35 -8.25 Q6.35 -8.0 7.3 -7.1 8.2 -6.2 8.5 -6.2 8.75 -6.15 8.95 -6.35 L8.95 -6.4 M5.7 -9.1 L4.5 -11.95 4.05 -12.25 4.0 -12.2 3.9 -12.15 3.65 -12.15 Q3.6 -12.15 3.5 -12.25 3.3 -12.1 3.1 -11.7 3.0 -11.45 2.9 -11.05 3.05 -10.9 3.3 -10.5 L5.7 -9.1 M3.55 -12.6 L3.65 -12.7 3.65 -12.75 3.55 -12.7 3.55 -12.6 M12.05 -3.45 L12.35 -3.7 Q12.5 -3.9 12.55 -4.05 L12.3 -4.45 9.6 -5.85 9.4 -5.65 9.35 -5.5 9.3 -5.5 Q9.25 -5.05 10.3 -4.15 L11.55 -3.1 11.8 -3.25 12.0 -3.4 12.05 -3.45 M9.55 -6.5 Q9.4 -6.3 9.05 -6.05 L9.15 -6.0 9.2 -5.9 9.2 -5.95 9.45 -6.2 9.5 -6.3 9.55 -6.5 M16.2 -0.8 L16.25 -0.85 Q16.35 -1.25 16.05 -1.55 15.85 -1.8 15.25 -2.1 L14.1 -2.65 Q13.6 -2.95 13.2 -3.25 L13.0 -3.05 12.8 -2.95 Q12.55 -2.7 12.35 -2.4 12.95 -1.95 13.65 -1.1 14.25 -0.5 15.35 -0.1 L15.7 -0.3 Q16.1 -0.55 16.2 -0.8 M16.55 -0.4 L16.4 -0.15 Q16.35 -0.05 16.3 0.1 L16.35 0.15 16.35 0.35 Q16.35 0.55 16.55 0.7 16.85 1.0 17.85 1.45 19.2 2.05 19.4 1.7 L19.6 1.3 19.6 1.25 Q19.7 1.05 19.8 0.9 L19.85 0.7 19.85 0.5 19.45 0.45 18.45 0.2 18.4 0.2 Q18.3 0.25 18.15 0.15 17.9 0.05 17.6 -0.25 L17.2 -0.7 Q17.1 -0.85 17.0 -0.85 L16.95 -0.8 16.85 -0.8 16.8 -0.75 16.55 -0.4 M22.85 2.1 L23.6 2.1 23.65 2.05 23.8 2.05 23.95 2.0 Q24.5 1.85 24.65 1.65 24.1 1.8 23.75 1.85 23.2 1.95 22.8 1.5 L22.8 1.45 Q22.7 1.4 22.6 1.55 L22.6 1.6 Q22.6 1.75 22.5 1.9 L22.55 2.0 22.85 2.1 M21.85 1.75 Q21.95 1.6 21.95 1.45 21.95 1.3 21.85 1.15 21.55 0.95 20.85 1.15 20.5 1.3 20.25 1.3 L20.2 1.35 Q20.2 1.45 20.15 1.6 L20.0 1.65 20.95 1.9 Q21.6 2.1 21.8 1.8 L21.85 1.75 M19.8 1.6 L19.8 1.7 19.75 1.75 19.8 1.75 19.8 1.6 M-19.6 -30.9 L-19.6 -31.1 Q-19.55 -31.3 -19.6 -31.35 L-19.6 -31.5 -20.4 -31.6 -21.75 -30.6 Q-22.6 -30.0 -23.0 -29.75 L-22.9 -29.65 Q-22.65 -29.35 -21.95 -29.15 L-21.3 -29.0 -21.15 -29.0 -20.1 -28.85 -19.9 -29.7 Q-19.65 -30.55 -19.6 -30.9 M-19.6 -25.1 L-19.4 -25.6 Q-19.15 -26.4 -19.0 -27.2 -19.0 -27.8 -19.55 -28.05 L-19.65 -28.05 Q-19.9 -28.05 -20.05 -28.2 -20.35 -28.25 -20.75 -28.2 L-21.2 -28.15 Q-21.75 -28.15 -22.3 -28.5 -22.6 -28.65 -23.2 -29.15 -23.7 -29.55 -24.0 -29.7 -24.5 -29.85 -24.9 -29.65 L-25.6 -28.3 -19.6 -25.1 M-4.95 -21.25 Q-4.95 -21.45 -5.0 -21.6 L-5.15 -21.8 -5.7 -21.8 -5.85 -21.6 Q-5.95 -21.5 -6.45 -21.5 L-6.5 -21.5 -6.3 -21.3 Q-6.0 -21.1 -5.65 -21.0 L-5.6 -20.95 -5.5 -20.95 -5.2 -20.85 -5.15 -20.95 -4.95 -21.25 M-9.75 -24.55 L-9.8 -24.55 Q-10.05 -24.65 -10.05 -25.15 -11.0 -24.8 -11.25 -24.8 L-10.7 -24.15 -10.5 -24.05 Q-10.1 -23.85 -9.7 -23.7 L-9.7 -23.75 -9.5 -24.4 -9.55 -24.4 -9.65 -24.5 -9.75 -24.55 M-9.2 -21.75 Q-8.9 -22.4 -8.9 -22.55 -8.9 -22.75 -8.95 -22.9 L-9.05 -23.1 Q-10.35 -22.95 -11.35 -24.05 L-12.05 -24.8 Q-12.4 -25.2 -12.7 -25.2 -12.85 -25.2 -13.0 -25.1 L-13.15 -24.9 -13.0 -24.95 -13.6 -23.75 -13.7 -23.55 Q-14.05 -22.95 -14.4 -22.45 -13.9 -21.9 -13.15 -21.4 -12.0 -20.65 -11.05 -20.65 -10.8 -20.65 -10.7 -20.3 L-10.6 -20.15 -10.25 -20.0 -10.05 -20.15 -9.95 -20.25 Q-9.7 -20.55 -9.4 -21.25 L-9.2 -21.75 M-8.3 -22.2 L-8.35 -22.25 Q-8.55 -21.85 -9.1 -20.9 L-9.65 -20.1 -9.55 -20.05 -9.4 -19.85 -9.2 -20.05 -8.85 -20.95 Q-8.5 -21.65 -8.05 -21.95 -8.1 -22.05 -8.3 -22.2 M-5.15 -18.75 L-4.85 -20.2 -5.2 -20.15 Q-5.25 -20.15 -6.2 -20.9 L-7.0 -21.55 -7.8 -21.45 Q-7.9 -21.2 -8.15 -20.85 L-8.5 -20.4 -8.35 -20.5 -8.4 -20.35 -8.95 -19.3 -8.95 -19.1 Q-7.8 -18.9 -7.2 -18.5 L-5.15 -18.75 M-1.3 -18.35 L-2.1 -18.3 -1.35 -17.8 -1.1 -17.65 -1.1 -17.75 Q-1.05 -18.35 -1.3 -18.35 M-1.5 -15.2 Q-1.15 -15.65 -0.75 -16.5 -0.75 -16.55 -1.75 -17.65 L-2.45 -18.35 Q-2.55 -18.7 -2.8 -18.75 L-3.0 -18.75 -3.0 -18.95 Q-3.25 -19.1 -3.5 -19.0 L-4.4 -18.25 -3.55 -15.95 -2.1 -14.6 Q-1.9 -14.6 -1.5 -15.2 M-0.55 -15.6 Q-0.7 -15.35 -0.9 -15.1 -1.15 -14.8 -1.35 -14.55 L-1.3 -14.55 -1.25 -14.6 -1.15 -14.5 -0.8 -15.05 -0.45 -15.4 -0.4 -15.4 -0.55 -15.6 M-13.4 -24.9 Q-13.55 -24.9 -13.7 -25.05 -13.9 -24.45 -14.45 -23.45 L-14.55 -23.3 -14.6 -23.25 -14.55 -23.25 -14.5 -23.2 -14.4 -23.45 Q-13.95 -24.25 -13.4 -24.7 L-13.35 -24.9 -13.4 -24.9 M-16.1 -26.95 L-15.3 -26.85 Q-15.3 -27.45 -15.05 -27.8 L-15.05 -27.85 -15.25 -27.9 -15.5 -28.0 Q-15.7 -28.15 -15.85 -28.15 -15.95 -28.15 -16.45 -27.7 L-16.7 -27.45 -16.55 -27.3 Q-16.45 -27.05 -16.2 -27.0 L-16.1 -26.95 M-14.7 -23.8 L-14.65 -23.85 -14.65 -23.95 Q-14.4 -24.75 -14.25 -25.6 -14.25 -25.7 -15.35 -26.05 L-16.85 -26.55 Q-17.0 -26.55 -17.15 -26.9 L-18.35 -25.45 -17.6 -23.25 -17.3 -23.1 -14.95 -23.25 -14.7 -23.8" fill="#111111" fill-rule="evenodd" stroke="none"/>
    <path d="M2.1 -15.15 Q2.3 -15.05 2.4 -14.9 L2.3 -14.65 2.1 -14.6 Q1.95 -14.6 1.9 -14.65 1.85 -14.7 1.85 -14.9 1.85 -15.1 1.95 -15.1 L2.1 -15.15 M-19.6 -30.9 L-19.75 -30.65 Q-20.25 -29.95 -21.1 -29.55 L-20.85 -29.95 Q-20.65 -30.2 -20.6 -30.35 -20.7 -30.45 -20.9 -30.5 -21.15 -30.25 -21.5 -29.8 -21.8 -29.4 -21.95 -29.15 -22.65 -29.35 -22.9 -29.65 L-23.0 -29.75 Q-22.6 -30.0 -21.75 -30.6 L-20.4 -31.6 -19.6 -31.5 -19.6 -31.35 Q-19.55 -31.3 -19.6 -31.1 L-19.6 -30.9 M-4.95 -21.25 L-5.05 -21.3 Q-5.7 -21.65 -5.7 -21.1 L-5.7 -21.0 -5.65 -21.0 Q-6.0 -21.1 -6.3 -21.3 L-6.5 -21.5 -6.45 -21.5 Q-5.95 -21.5 -5.85 -21.6 L-5.7 -21.8 -5.15 -21.8 -5.0 -21.6 Q-4.95 -21.45 -4.95 -21.25 M-10.5 -24.05 L-10.7 -24.15 -11.25 -24.8 Q-11.0 -24.8 -10.05 -25.15 -10.05 -24.65 -9.8 -24.55 L-9.75 -24.55 -10.15 -24.4 Q-10.5 -24.2 -10.5 -24.15 L-10.5 -24.05 M-1.3 -18.35 Q-1.05 -18.35 -1.1 -17.75 L-1.1 -17.65 -1.35 -17.8 -2.1 -18.3 -1.3 -18.35 M-15.25 -27.9 Q-15.5 -27.75 -15.75 -27.6 -16.1 -27.25 -16.1 -27.1 L-16.1 -26.95 -16.2 -27.0 Q-16.45 -27.05 -16.55 -27.3 L-16.7 -27.45 -16.45 -27.7 Q-15.95 -28.15 -15.85 -28.15 -15.7 -28.15 -15.5 -28.0 L-15.25 -27.9" fill="#cc8a28" fill-rule="evenodd" stroke="none"/>
    <path d="M-0.45 -14.75 L-0.25 -14.95 Q0.2 -15.3 0.6 -15.5 L0.7 -15.5 Q0.8 -15.45 1.9 -14.45 L2.25 -14.05 2.3 -14.0 2.4 -13.95 2.95 -13.4 Q2.85 -12.95 2.65 -12.55 L2.6 -12.5 Q1.85 -13.2 1.05 -13.8 0.15 -14.5 -0.45 -14.75 M1.9 -14.2 L1.55 -14.25 1.35 -14.25 Q1.3 -14.3 1.3 -14.0 1.3 -13.95 1.4 -13.85 L1.7 -13.6 Q1.8 -13.65 1.9 -13.7 L2.0 -13.85 1.95 -14.05 Q1.9 -14.15 1.9 -14.2 M6.7 -8.95 L7.0 -9.35 7.05 -9.45 7.5 -9.6 7.6 -9.55 7.55 -9.45 Q9.25 -7.5 9.2 -6.9 L9.1 -6.65 9.05 -6.5 8.95 -6.4 Q8.55 -6.9 8.3 -7.45 7.85 -8.3 7.0 -8.8 L6.7 -8.95 M3.1 -11.7 Q3.3 -12.1 3.5 -12.25 3.6 -12.15 3.65 -12.15 L3.9 -12.15 4.0 -12.2 4.05 -12.25 4.5 -11.95 5.7 -9.1 5.15 -10.15 Q4.6 -11.1 3.4 -11.6 L3.1 -11.7 M9.4 -5.65 L9.6 -5.85 12.3 -4.45 12.55 -4.05 Q12.5 -3.9 12.35 -3.7 L12.05 -3.45 11.95 -3.65 9.55 -5.6 9.4 -5.65 M12.8 -2.95 L13.0 -3.05 13.2 -3.25 Q13.6 -2.95 14.1 -2.65 L15.25 -2.1 Q15.85 -1.8 16.05 -1.55 16.35 -1.25 16.25 -0.85 L16.2 -0.8 16.05 -0.9 Q15.1 -1.5 14.05 -1.9 13.9 -1.95 13.45 -2.35 L12.8 -2.95 M19.6 1.3 L19.05 1.25 Q18.9 1.2 18.85 1.05 18.6 0.6 17.65 0.15 L16.55 -0.4 16.8 -0.75 16.85 -0.8 16.95 -0.8 17.0 -0.85 Q17.1 -0.85 17.2 -0.7 L17.6 -0.25 Q17.9 0.05 18.15 0.15 18.3 0.25 18.4 0.2 L18.45 0.2 19.45 0.45 19.85 0.5 19.85 0.7 19.8 0.9 Q19.7 1.05 19.6 1.25 L19.6 1.3 M23.95 2.0 L23.3 1.85 Q22.95 1.7 22.85 1.75 22.75 1.8 22.75 2.05 L22.85 2.1 22.55 2.0 22.5 1.9 Q22.6 1.75 22.6 1.6 L22.6 1.55 Q22.7 1.4 22.8 1.45 L22.8 1.5 Q23.2 1.95 23.75 1.85 24.1 1.8 24.65 1.65 24.5 1.85 23.95 2.0 M21.85 1.75 L21.9 1.7 Q21.55 1.5 21.35 1.5 L20.35 1.35 20.2 1.35 20.25 1.3 Q20.5 1.3 20.85 1.15 21.55 0.95 21.85 1.15 21.95 1.3 21.95 1.45 21.95 1.6 21.85 1.75 M-25.6 -28.3 L-24.9 -29.65 Q-24.5 -29.85 -24.0 -29.7 -23.7 -29.55 -23.2 -29.15 -22.6 -28.65 -22.3 -28.5 -21.75 -28.15 -21.2 -28.15 L-20.75 -28.2 Q-20.35 -28.25 -20.05 -28.2 -19.9 -28.05 -19.65 -28.05 L-19.55 -28.05 Q-19.0 -27.8 -19.0 -27.2 -19.15 -26.4 -19.4 -25.6 L-19.6 -25.1 -20.6 -25.55 Q-20.35 -26.2 -21.05 -26.75 -21.45 -27.05 -22.0 -27.15 L-22.05 -27.2 Q-22.5 -27.7 -22.8 -27.7 L-22.8 -27.25 -25.6 -28.3 M-23.6 -28.65 L-23.95 -28.85 -24.05 -28.75 Q-24.1 -28.7 -24.15 -28.5 L-24.05 -28.1 -23.75 -28.1 Q-23.65 -28.1 -23.55 -28.2 L-23.35 -28.45 -23.6 -28.65 M-9.2 -21.75 Q-9.4 -21.65 -9.6 -21.5 -9.9 -21.2 -10.3 -21.15 L-10.3 -21.2 -10.25 -21.2 Q-10.05 -21.2 -9.95 -21.25 L-9.85 -21.35 -9.8 -21.6 Q-9.85 -21.8 -9.8 -22.3 -9.85 -22.65 -10.2 -22.8 -10.5 -22.65 -10.65 -22.3 L-10.75 -22.1 -10.7 -22.05 -10.8 -22.2 Q-11.5 -22.9 -12.85 -23.0 -13.05 -23.65 -13.6 -23.75 L-13.0 -24.95 -13.15 -24.9 -13.0 -25.1 Q-12.85 -25.2 -12.7 -25.2 -12.4 -25.2 -12.05 -24.8 L-11.35 -24.05 Q-10.35 -22.95 -9.05 -23.1 L-8.95 -22.9 Q-8.9 -22.75 -8.9 -22.55 -8.9 -22.4 -9.2 -21.75 M-8.4 -20.35 L-8.35 -20.5 -8.5 -20.4 -8.15 -20.85 Q-7.9 -21.2 -7.8 -21.45 L-7.0 -21.55 -6.2 -20.9 Q-5.25 -20.15 -5.2 -20.15 L-4.85 -20.2 -5.15 -18.75 -7.2 -20.1 Q-7.85 -20.0 -8.4 -20.35 M-4.4 -18.25 L-3.5 -19.0 Q-3.25 -19.1 -3.0 -18.95 L-3.0 -18.75 -2.8 -18.75 Q-2.55 -18.7 -2.45 -18.35 L-1.75 -17.65 Q-0.75 -16.55 -0.75 -16.5 -1.15 -15.65 -1.5 -15.2 -2.05 -15.6 -2.4 -16.3 L-2.15 -16.45 Q-1.95 -16.65 -1.8 -16.9 -2.4 -17.5 -2.85 -17.25 L-2.85 -17.2 -3.2 -17.5 -4.4 -18.25 M-18.35 -25.45 L-17.15 -26.9 Q-17.0 -26.55 -16.85 -26.55 L-15.35 -26.05 Q-14.25 -25.7 -14.25 -25.6 -14.4 -24.75 -14.65 -23.95 L-14.65 -23.85 -14.7 -23.8 -15.05 -23.85 -18.35 -25.45 M-17.3 -23.1 L-17.6 -23.25 -17.3 -23.1 M-12.3 -23.5 L-12.15 -23.3 Q-12.0 -23.1 -11.8 -23.0 L-11.65 -23.1 -11.6 -23.25 Q-11.75 -23.55 -11.9 -23.7 -12.1 -23.8 -12.3 -23.8 L-12.3 -23.5" fill="#d9ba8d" fill-rule="evenodd" stroke="none"/>
    <path d="M2.5 -10.8 Q2.4 -10.9 2.35 -10.95 L2.3 -11.2 2.7 -11.75 2.9 -12.05 Q3.15 -12.4 3.3 -12.7 L3.35 -12.6 3.4 -12.45 3.4 -12.35 3.45 -12.4 3.45 -12.3 3.2 -12.0 2.85 -11.5 2.8 -11.6 2.9 -11.75 2.85 -11.8 2.4 -11.05 2.6 -11.05 2.5 -10.8 M-0.45 -14.75 Q0.15 -14.5 1.05 -13.8 1.85 -13.2 2.6 -12.5 L2.35 -12.1 2.35 -12.05 2.3 -12.0 Q2.1 -12.0 2.0 -11.85 L1.7 -11.85 Q1.65 -12.0 1.45 -12.0 1.15 -12.05 0.05 -12.95 -1.0 -13.85 -0.95 -14.05 -0.95 -14.35 -0.45 -14.75 M1.9 -14.2 Q1.9 -14.15 1.95 -14.05 L2.0 -13.85 1.9 -13.7 Q1.8 -13.65 1.7 -13.6 L1.4 -13.85 Q1.3 -13.95 1.3 -14.0 1.3 -14.3 1.35 -14.25 L1.55 -14.25 1.9 -14.2 M6.7 -8.95 L7.0 -8.8 Q7.85 -8.3 8.3 -7.45 8.55 -6.9 8.95 -6.4 L8.95 -6.35 Q8.75 -6.15 8.5 -6.2 8.2 -6.2 7.3 -7.1 6.35 -8.0 6.35 -8.25 L6.7 -8.95 M3.1 -11.7 L3.4 -11.6 Q4.6 -11.1 5.15 -10.15 L5.7 -9.1 3.3 -10.5 Q3.05 -10.9 2.9 -11.05 3.0 -11.45 3.1 -11.7 M9.4 -5.65 L9.55 -5.6 11.95 -3.65 12.05 -3.45 12.0 -3.4 11.8 -3.25 11.55 -3.1 10.3 -4.15 Q9.25 -5.05 9.3 -5.5 L9.35 -5.5 9.4 -5.65 M9.55 -6.5 L9.5 -6.3 9.45 -6.2 9.2 -5.95 9.2 -5.9 9.15 -6.0 9.05 -6.05 Q9.4 -6.3 9.55 -6.5 M12.8 -2.95 L13.45 -2.35 Q13.9 -1.95 14.05 -1.9 15.1 -1.5 16.05 -0.9 L16.2 -0.8 Q16.1 -0.55 15.7 -0.3 L15.35 -0.1 Q14.25 -0.5 13.65 -1.1 12.95 -1.95 12.35 -2.4 12.55 -2.7 12.8 -2.95 M19.6 1.3 L19.4 1.7 Q19.2 2.05 17.85 1.45 16.85 1.0 16.55 0.7 16.35 0.55 16.35 0.35 L16.35 0.15 16.3 0.1 Q16.35 -0.05 16.4 -0.15 L16.55 -0.4 17.65 0.15 Q18.6 0.6 18.85 1.05 18.9 1.2 19.05 1.25 L19.6 1.3 M23.95 2.0 L23.8 2.05 23.65 2.05 23.6 2.1 22.85 2.1 22.75 2.05 Q22.75 1.8 22.85 1.75 22.95 1.7 23.3 1.85 L23.95 2.0 M20.2 1.35 L20.35 1.35 21.35 1.5 Q21.55 1.5 21.9 1.7 L21.85 1.75 21.8 1.8 Q21.6 2.1 20.95 1.9 L20.0 1.65 20.15 1.6 Q20.2 1.45 20.2 1.35 M-25.6 -28.3 L-22.8 -27.25 -22.8 -27.7 Q-22.5 -27.7 -22.05 -27.2 L-22.0 -27.15 Q-21.45 -27.05 -21.05 -26.75 -20.35 -26.2 -20.6 -25.55 L-19.6 -25.1 -25.6 -28.3 M-23.6 -28.65 L-23.35 -28.45 -23.55 -28.2 Q-23.65 -28.1 -23.75 -28.1 L-24.05 -28.1 -24.15 -28.5 Q-24.1 -28.7 -24.05 -28.75 L-23.95 -28.85 -23.6 -28.65 M-13.6 -23.75 Q-13.05 -23.65 -12.85 -23.0 -11.5 -22.9 -10.8 -22.2 L-10.7 -22.05 -10.75 -22.1 -10.65 -22.3 Q-10.5 -22.65 -10.2 -22.8 -9.85 -22.65 -9.8 -22.3 -9.85 -21.8 -9.8 -21.6 L-9.85 -21.35 -9.95 -21.25 Q-10.05 -21.2 -10.25 -21.2 L-10.3 -21.2 -10.3 -21.15 Q-9.9 -21.2 -9.6 -21.5 -9.4 -21.65 -9.2 -21.75 L-9.4 -21.25 Q-9.7 -20.55 -9.95 -20.25 L-10.05 -20.15 -10.25 -20.0 -10.6 -20.15 -10.7 -20.3 Q-10.8 -20.65 -11.05 -20.65 -12.0 -20.65 -13.15 -21.4 -13.9 -21.9 -14.4 -22.45 -14.05 -22.95 -13.7 -23.55 L-13.6 -23.75 M-8.3 -22.2 Q-8.1 -22.05 -8.05 -21.95 -8.5 -21.65 -8.85 -20.95 L-9.2 -20.05 -9.4 -19.85 -9.55 -20.05 -9.65 -20.1 -9.1 -20.9 Q-8.55 -21.85 -8.35 -22.25 L-8.3 -22.2 M-8.4 -20.35 Q-7.85 -20.0 -7.2 -20.1 L-5.15 -18.75 -7.2 -18.5 Q-7.8 -18.9 -8.95 -19.1 L-8.95 -19.3 -8.4 -20.35 M-4.4 -18.25 L-3.2 -17.5 -2.85 -17.2 -2.85 -17.25 Q-2.4 -17.5 -1.8 -16.9 -1.95 -16.65 -2.15 -16.45 L-2.4 -16.3 Q-2.05 -15.6 -1.5 -15.2 -1.9 -14.6 -2.1 -14.6 L-3.55 -15.95 -4.4 -18.25 M-13.4 -24.9 L-13.35 -24.9 -13.4 -24.7 Q-13.95 -24.25 -14.4 -23.45 L-14.5 -23.2 -14.55 -23.25 -14.6 -23.25 -14.55 -23.3 -14.45 -23.45 Q-13.9 -24.45 -13.7 -25.05 -13.55 -24.9 -13.4 -24.9 M-0.55 -15.6 L-0.4 -15.4 -0.45 -15.4 -0.8 -15.05 -1.15 -14.5 -1.25 -14.6 -1.3 -14.55 -1.35 -14.55 Q-1.15 -14.8 -0.9 -15.1 -0.7 -15.35 -0.55 -15.6 M-18.35 -25.45 L-15.05 -23.85 -14.7 -23.8 -14.95 -23.25 -17.3 -23.1 -17.6 -23.25 -18.35 -25.45 M-12.3 -23.5 L-12.3 -23.8 Q-12.1 -23.8 -11.9 -23.7 -11.75 -23.55 -11.6 -23.25 L-11.65 -23.1 -11.8 -23.0 Q-12.0 -23.1 -12.15 -23.3 L-12.3 -23.5" fill="#806d53" fill-rule="evenodd" stroke="none"/>
    <path d="M-21.95 -29.15 Q-21.8 -29.4 -21.5 -29.8 -21.15 -30.25 -20.9 -30.5 -20.7 -30.45 -20.6 -30.35 -20.65 -30.2 -20.85 -29.95 L-21.1 -29.55 Q-20.25 -29.95 -19.75 -30.65 L-19.6 -30.9 Q-19.65 -30.55 -19.9 -29.7 L-20.1 -28.85 -21.15 -29.0 -21.3 -29.0 -21.95 -29.15 M-5.65 -21.0 L-5.7 -21.0 -5.7 -21.1 Q-5.7 -21.65 -5.05 -21.3 L-4.95 -21.25 -5.15 -20.95 -5.2 -20.85 -5.5 -20.95 -5.6 -20.95 -5.65 -21.0 M-10.5 -24.05 L-10.5 -24.15 Q-10.5 -24.2 -10.15 -24.4 L-9.75 -24.55 -9.65 -24.5 -9.55 -24.4 -9.5 -24.4 -9.7 -23.75 -9.7 -23.7 Q-10.1 -23.85 -10.5 -24.05 M-15.25 -27.9 L-15.05 -27.85 -15.05 -27.8 Q-15.3 -27.45 -15.3 -26.85 L-16.1 -26.95 -16.1 -27.1 Q-16.1 -27.25 -15.75 -27.6 -15.5 -27.75 -15.25 -27.9" fill="#805619" fill-rule="evenodd" stroke="none"/>
    <path d="M6.5 -11.45 Q6.9 -10.85 6.9 -10.45 L6.9 -10.25 6.85 -10.1 6.8 -10.05 Q7.1 -9.25 7.05 -9.1 7.05 -8.95 6.95 -8.65 6.85 -8.35 6.85 -8.2 6.8 -7.75 7.45 -5.65 7.95 -3.85 8.1 -3.55 L8.0 -3.35 Q7.9 -3.25 7.7 -3.25 6.6 -3.3 5.55 -5.3 5.2 -5.9 4.8 -6.85 L4.7 -7.15 4.3 -7.55 Q3.95 -8.0 3.65 -8.0 2.85 -8.0 2.8 -7.2 L2.75 -6.75 Q2.65 -6.45 2.65 -6.25 L2.65 -6.2 Q2.6 -6.1 2.4 -6.1 2.15 -6.15 1.6 -6.75 L0.9 -7.65 0.6 -7.95 0.45 -7.9 Q0.4 -7.9 0.1 -8.3 L-0.05 -8.4 Q-0.1 -8.4 -0.05 -8.55 L-0.6 -9.45 -1.25 -10.55 -1.65 -10.85 -1.75 -11.0 Q-2.45 -10.95 -2.65 -10.4 -2.75 -10.2 -2.8 -9.7 -2.8 -9.4 -3.0 -9.2 -3.2 -9.0 -3.45 -9.05 -4.55 -9.05 -5.4 -11.65 -5.55 -12.25 -5.95 -13.8 L-6.25 -14.75 -6.7 -15.3 Q-7.05 -15.95 -7.5 -15.95 L-7.65 -15.95 Q-8.55 -15.9 -8.75 -14.95 -8.8 -14.65 -8.8 -14.25 L-8.75 -13.95 Q-8.75 -13.75 -9.05 -13.55 -9.35 -13.35 -9.55 -13.35 -10.15 -13.35 -10.55 -13.75 -10.95 -14.2 -11.7 -14.2 -12.35 -14.2 -12.4 -13.85 -12.4 -13.65 -12.45 -13.6 -12.5 -13.45 -12.8 -13.45 L-13.3 -13.55 -13.3 -13.6 -13.35 -13.65 -13.6 -13.7 Q-13.75 -14.25 -13.9 -14.6 -14.2 -15.2 -15.0 -15.2 -15.15 -15.2 -15.35 -14.8 -15.5 -14.5 -15.7 -14.45 L-15.8 -14.4 Q-15.9 -14.35 -15.95 -14.35 L-16.05 -14.4 -16.25 -14.35 Q-16.75 -14.65 -17.65 -15.1 -19.55 -15.95 -22.05 -16.45 -22.4 -16.55 -23.25 -17.2 -24.1 -17.85 -24.3 -17.9 L-25.65 -17.95 -25.75 -18.0 -25.8 -18.0 Q-28.65 -18.05 -30.1 -20.7 -30.6 -21.65 -30.85 -22.75 -31.05 -23.6 -31.05 -24.2 -31.0 -26.95 -30.05 -28.9 -29.25 -30.7 -27.85 -31.1 -27.45 -31.25 -27.0 -31.2 L-26.95 -31.2 Q-26.2 -31.2 -25.35 -30.9 -24.9 -30.9 -24.6 -30.8 -24.15 -30.6 -24.2 -29.95 L-24.0 -28.25 Q-24.0 -27.75 -23.55 -27.6 L-22.55 -27.5 Q-21.8 -27.45 -21.5 -27.2 -21.15 -27.0 -21.1 -26.5 L-20.95 -26.35 Q-20.75 -26.05 -20.45 -26.05 -20.1 -26.05 -19.45 -26.6 -18.75 -27.2 -18.65 -27.65 -18.5 -28.5 -17.65 -28.3 -17.3 -28.25 -17.05 -28.05 -16.8 -27.8 -16.8 -27.6 L-16.9 -26.35 -16.8 -26.35 Q-16.5 -25.25 -15.6 -24.45 -15.15 -24.05 -14.8 -23.8 -14.8 -23.65 -14.4 -22.95 L-14.05 -22.25 Q-14.05 -22.0 -14.1 -21.5 L-14.2 -20.85 Q-14.2 -20.45 -13.45 -19.4 -12.85 -18.45 -12.5 -18.2 L-11.45 -18.1 Q-11.35 -18.1 -11.1 -17.7 -10.9 -17.35 -10.45 -17.35 L-9.8 -17.4 -9.15 -17.5 Q-8.15 -17.5 -8.0 -19.8 -7.9 -21.0 -8.05 -22.15 -8.0 -22.65 -7.2 -22.6 -6.9 -22.6 -6.7 -22.25 L-6.7 -22.2 -6.6 -22.25 Q-6.35 -22.05 -6.4 -21.7 L-6.45 -21.15 Q-6.45 -20.85 -6.2 -20.5 -5.9 -20.1 -5.45 -20.1 -5.0 -20.05 -4.75 -20.35 -4.5 -20.65 -4.4 -20.65 -3.95 -20.65 -3.65 -20.25 -3.35 -19.9 -3.4 -19.7 L-3.4 -19.65 -3.35 -19.65 Q-2.95 -18.8 -2.9 -17.35 -2.9 -15.5 -2.8 -15.05 -2.6 -14.05 -1.2 -12.85 L0.0 -11.9 Q0.65 -11.3 1.0 -10.9 L1.8 -10.75 2.1 -10.7 Q3.05 -10.7 4.1 -11.6 L4.15 -11.7 Q4.25 -12.5 4.6 -12.65 4.95 -12.8 5.4 -12.55 5.95 -12.45 6.15 -12.05 L6.2 -11.85 6.5 -11.45 M6.5 -9.55 L6.5 -9.6 6.3 -10.7 Q5.95 -12.0 5.3 -12.05 5.05 -12.05 4.9 -11.9 4.65 -11.75 4.55 -11.45 L4.5 -11.1 4.4 -11.0 Q3.4 -10.25 2.5 -10.25 L1.95 -10.35 0.9 -10.5 Q0.7 -10.65 -0.35 -11.55 -1.2 -12.25 -1.8 -12.55 -2.65 -13.05 -2.75 -13.55 L-2.8 -14.1 -2.85 -14.2 Q-2.85 -14.5 -2.95 -14.8 L-2.95 -14.85 -3.1 -15.5 -3.25 -16.4 -3.3 -16.5 -3.35 -17.15 Q-3.6 -18.9 -3.6 -19.3 -3.7 -19.2 -3.8 -19.2 -3.85 -19.3 -4.0 -19.75 -4.05 -19.95 -4.6 -20.0 -4.75 -20.0 -5.05 -19.85 -5.3 -19.75 -5.5 -19.75 -6.6 -19.75 -6.8 -20.75 -6.9 -21.15 -6.85 -21.6 -7.05 -21.6 -7.15 -21.75 L-7.25 -21.85 Q-7.3 -21.7 -7.3 -21.5 L-7.3 -21.1 Q-7.35 -20.25 -7.85 -18.75 -8.55 -16.85 -9.4 -16.85 -9.9 -16.9 -10.4 -17.05 -11.4 -17.3 -11.65 -17.65 L-12.55 -17.7 Q-13.3 -18.25 -13.6 -18.55 -14.15 -19.05 -14.3 -19.75 -14.4 -20.15 -14.5 -20.8 L-14.55 -21.9 Q-14.65 -22.75 -15.1 -23.35 L-15.25 -23.5 Q-15.5 -23.8 -15.95 -24.1 -16.6 -24.55 -16.85 -24.85 L-16.95 -25.0 -17.0 -25.1 -17.1 -25.4 -17.15 -25.4 Q-17.4 -26.05 -17.45 -26.35 -17.55 -26.9 -17.45 -27.45 L-17.5 -27.45 -17.5 -27.55 -18.0 -27.55 Q-18.4 -27.0 -18.85 -26.45 -19.85 -25.45 -20.45 -25.45 -21.05 -25.45 -21.3 -25.8 -21.45 -26.05 -21.4 -26.3 L-21.4 -26.4 -21.45 -26.45 Q-21.65 -26.7 -21.65 -26.8 -23.2 -26.8 -23.85 -27.3 -24.25 -27.65 -24.35 -28.45 -24.5 -29.45 -24.65 -29.75 -25.05 -30.45 -26.2 -30.75 L-25.95 -30.8 -26.45 -30.95 -26.65 -31.0 -27.35 -30.85 -28.35 -30.7 Q-28.75 -30.35 -29.2 -29.8 L-29.25 -29.7 -29.3 -29.7 -30.25 -28.1 -30.3 -28.05 -30.4 -27.7 -30.45 -27.45 -30.45 -27.4 Q-30.55 -26.75 -30.65 -25.65 L-30.75 -24.2 -30.75 -23.95 Q-30.75 -23.25 -30.55 -22.55 L-30.45 -22.25 Q-30.2 -21.35 -29.7 -20.75 -28.95 -19.8 -27.4 -19.2 L-26.95 -19.05 Q-24.35 -18.8 -23.45 -18.4 -22.9 -18.15 -22.75 -17.7 -22.65 -17.25 -22.2 -17.1 -21.45 -16.85 -19.0 -16.8 -18.7 -16.8 -18.1 -16.25 L-17.45 -15.6 -16.65 -15.2 Q-16.4 -15.1 -16.25 -15.0 L-16.15 -15.0 Q-16.0 -15.25 -15.75 -15.4 -15.35 -15.7 -14.8 -15.6 L-14.5 -15.55 Q-14.1 -15.45 -13.8 -15.15 -13.4 -14.8 -13.35 -14.25 L-13.35 -14.05 -13.25 -14.05 -13.1 -14.0 -12.85 -14.4 Q-12.55 -14.85 -12.25 -14.85 -10.95 -14.85 -10.4 -14.45 L-10.05 -14.15 Q-9.9 -14.0 -9.7 -14.0 L-9.3 -14.65 -9.05 -15.1 Q-8.5 -15.95 -8.2 -16.25 L-8.0 -16.4 -7.65 -16.5 Q-6.85 -16.65 -6.45 -15.85 L-6.35 -15.85 Q-5.8 -15.25 -5.45 -14.4 -5.25 -13.85 -5.0 -12.85 -4.8 -11.8 -4.6 -11.3 -4.3 -10.45 -3.75 -9.85 -3.45 -9.9 -3.2 -10.15 -3.1 -10.3 -2.9 -10.7 L-2.8 -10.8 -2.8 -10.85 -2.75 -10.85 -2.75 -10.9 -2.3 -11.25 -2.15 -11.3 Q-0.9 -10.7 -0.15 -9.55 L0.45 -8.6 Q0.7 -8.2 0.85 -8.2 L1.2 -8.25 1.3 -8.3 2.2 -7.25 Q2.25 -7.3 2.5 -7.9 L2.55 -7.95 2.55 -8.0 Q2.85 -8.45 3.2 -8.45 3.9 -8.45 4.55 -7.95 5.2 -7.95 5.45 -7.4 5.6 -7.1 5.65 -6.8 5.65 -6.1 6.05 -5.4 6.5 -4.6 7.35 -4.0 L7.45 -4.25 7.4 -4.45 7.4 -4.5 7.05 -5.75 7.0 -6.0 6.35 -8.3 6.45 -8.55 Q6.5 -8.8 6.5 -9.35 L6.5 -9.55 M9.45 -6.3 Q9.35 -6.9 9.35 -7.05 9.35 -8.25 11.1 -6.8 11.7 -6.25 12.25 -5.6 12.75 -5.0 12.75 -4.75 12.75 -4.35 11.85 -3.4 10.8 -2.3 10.0 -2.3 9.7 -2.3 9.35 -2.85 9.1 -3.3 9.1 -3.45 L9.3 -4.3 Q9.55 -5.15 9.55 -5.55 L9.45 -6.3 M11.75 -5.2 Q11.55 -5.55 11.2 -5.9 10.5 -6.6 9.9 -6.7 L9.9 -6.4 Q9.9 -6.25 10.0 -6.0 10.1 -5.75 10.1 -5.6 L9.9 -4.55 9.75 -4.0 Q9.65 -3.55 9.65 -3.4 L10.0 -2.95 Q10.75 -3.0 11.35 -3.7 L11.55 -3.95 Q11.85 -4.35 11.9 -4.65 L11.9 -4.7 Q11.9 -4.95 11.75 -5.2" fill="#111111" fill-rule="evenodd" stroke="none"/>
    <path d="M6.5 -9.55 L6.5 -9.35 Q6.5 -8.8 6.45 -8.55 L6.35 -8.3 7.0 -6.0 6.65 -6.65 6.65 -6.7 6.35 -7.2 6.05 -7.75 Q5.9 -8.4 5.7 -8.8 5.4 -9.5 4.55 -9.75 3.5 -10.25 2.65 -9.9 1.95 -9.6 1.9 -9.05 L1.8 -9.0 1.6 -9.3 0.4 -10.6 Q-0.65 -11.3 -1.75 -11.75 -3.0 -12.2 -3.4 -11.9 -3.8 -12.7 -4.0 -13.45 -4.15 -13.55 -4.35 -13.8 -4.75 -14.2 -4.75 -14.3 -4.75 -14.5 -4.5 -14.65 -4.4 -14.75 -4.2 -14.75 L-4.2 -14.6 Q-4.3 -15.2 -4.55 -15.95 -4.8 -16.85 -5.15 -17.7 -6.4 -18.85 -7.35 -17.85 -7.75 -17.45 -7.95 -16.9 L-8.15 -16.35 -8.2 -16.25 Q-8.5 -15.95 -9.05 -15.1 L-9.3 -14.65 Q-9.55 -15.0 -9.95 -15.3 -10.3 -15.6 -10.75 -15.85 -10.85 -15.65 -11.25 -15.55 L-12.1 -15.5 Q-12.6 -15.5 -12.75 -15.8 -12.85 -15.9 -12.8 -16.1 -12.8 -16.25 -12.5 -16.5 -13.7 -16.75 -14.65 -16.55 -15.1 -16.45 -15.35 -16.3 -16.4 -17.05 -17.35 -17.45 -18.55 -18.0 -20.5 -18.75 L-23.5 -19.9 Q-26.85 -21.2 -27.95 -22.4 L-23.65 -21.75 -23.0 -21.65 Q-22.9 -22.0 -22.65 -22.15 -22.35 -22.35 -21.9 -22.2 -21.45 -22.1 -21.15 -21.7 -20.9 -21.35 -20.8 -21.0 L-20.1 -20.7 Q-19.2 -20.25 -17.05 -18.9 L-15.05 -17.65 -14.85 -17.65 -14.85 -17.7 Q-15.75 -19.05 -16.35 -19.75 -17.4 -21.0 -18.65 -21.85 -19.25 -22.25 -19.95 -22.6 L-20.65 -23.15 Q-21.35 -23.65 -23.8 -24.6 -26.05 -25.45 -26.8 -26.15 -27.7 -27.0 -28.4 -28.05 -29.05 -29.0 -29.25 -29.7 L-29.2 -29.8 Q-28.75 -30.35 -28.35 -30.7 L-27.35 -30.85 -26.65 -31.0 -26.45 -30.95 -25.95 -30.8 -26.2 -30.75 Q-25.05 -30.45 -24.65 -29.75 -24.5 -29.45 -24.35 -28.45 -24.25 -27.65 -23.85 -27.3 -23.2 -26.8 -21.65 -26.8 -21.65 -26.7 -21.45 -26.45 L-21.4 -26.4 -21.4 -26.3 Q-21.45 -26.05 -21.3 -25.8 -21.05 -25.45 -20.45 -25.45 -19.85 -25.45 -18.85 -26.45 -18.4 -27.0 -18.0 -27.55 L-17.5 -27.55 -17.5 -27.45 -17.45 -27.45 Q-17.55 -26.9 -17.45 -26.35 -17.4 -26.05 -17.15 -25.4 L-17.1 -25.4 -17.0 -25.1 -17.2 -25.05 Q-17.75 -24.8 -17.75 -24.45 -17.75 -24.25 -17.15 -23.85 -16.5 -23.45 -15.95 -23.4 -15.55 -23.4 -15.25 -23.5 L-15.1 -23.35 Q-14.65 -22.75 -14.55 -21.9 L-14.5 -20.8 Q-14.4 -20.15 -14.3 -19.75 -14.15 -19.05 -13.6 -18.55 -13.3 -18.25 -12.55 -17.7 L-11.65 -17.65 Q-11.4 -17.3 -10.4 -17.05 -9.9 -16.9 -9.4 -16.85 -8.55 -16.85 -7.85 -18.75 -7.35 -20.25 -7.3 -21.1 L-7.3 -21.5 Q-7.3 -21.7 -7.25 -21.85 L-7.15 -21.75 Q-7.05 -21.6 -6.85 -21.6 -6.9 -21.15 -6.8 -20.75 -6.6 -19.75 -5.5 -19.75 -5.3 -19.75 -5.05 -19.85 -4.75 -20.0 -4.6 -20.0 -4.05 -19.95 -4.0 -19.75 -3.85 -19.3 -3.8 -19.2 -3.7 -19.2 -3.6 -19.3 -3.6 -18.9 -3.35 -17.15 L-3.3 -16.5 Q-4.25 -17.45 -4.3 -16.25 L-3.4 -14.95 -2.85 -14.2 -2.8 -14.1 -2.75 -13.55 Q-2.65 -13.05 -1.8 -12.55 -1.2 -12.25 -0.35 -11.55 0.7 -10.65 0.9 -10.5 L1.95 -10.35 2.5 -10.25 Q3.4 -10.25 4.4 -11.0 L4.5 -11.1 Q4.75 -10.55 4.95 -10.4 5.05 -10.4 5.1 -10.5 4.9 -11.0 4.9 -11.9 5.05 -12.05 5.3 -12.05 5.95 -12.0 6.3 -10.7 L6.5 -9.6 Q6.3 -9.95 5.95 -10.0 5.55 -10.0 5.55 -9.7 L5.6 -9.5 Q5.75 -9.25 6.05 -9.25 6.25 -9.25 6.35 -9.3 L6.5 -9.5 6.5 -9.55 M2.55 -8.0 L2.55 -7.95 2.5 -7.95 2.5 -8.0 2.55 -8.0 M-2.75 -10.85 L-2.8 -10.85 -2.9 -10.95 -2.75 -10.85 M-30.45 -22.25 L-30.55 -22.55 -30.5 -22.45 -30.35 -22.25 -30.45 -22.25 M-30.45 -27.4 L-30.45 -27.45 -30.4 -27.4 -30.45 -27.4 M5.25 -8.85 L5.1 -8.6 4.85 -8.3 4.65 -8.35 Q4.55 -8.45 4.55 -8.65 4.55 -8.7 4.65 -8.8 4.75 -8.95 4.95 -9.1 5.05 -9.05 5.2 -9.05 5.25 -9.05 5.25 -8.85 M9.75 -4.0 L9.9 -4.55 10.1 -5.6 Q10.1 -5.75 10.0 -6.0 9.9 -6.25 9.9 -6.4 L9.9 -6.7 Q10.5 -6.6 11.2 -5.9 11.55 -5.55 11.75 -5.2 L10.65 -5.3 10.6 -5.2 10.55 -4.95 Q10.55 -4.8 10.6 -4.75 L10.6 -4.65 10.85 -4.65 11.3 -4.6 11.9 -4.65 Q11.85 -4.35 11.55 -3.95 L10.85 -4.1 Q10.1 -4.2 9.75 -4.0 M-6.25 -19.55 Q-6.65 -19.7 -6.8 -19.55 -6.9 -19.45 -6.9 -19.2 -6.9 -19.15 -6.55 -18.8 L-6.35 -18.9 -6.25 -18.9 -6.15 -19.2 -6.25 -19.55 M-6.0 -17.45 L-5.5 -17.4 Q-5.3 -17.3 -5.3 -17.1 L-5.3 -16.85 -5.35 -16.85 -5.45 -16.8 -5.6 -16.75 -5.9 -17.0 Q-6.05 -17.1 -6.05 -17.2 L-6.05 -17.35 -6.0 -17.45 M-18.35 -23.1 L-18.25 -23.3 Q-18.6 -23.85 -19.0 -23.85 L-19.25 -23.85 -19.35 -23.7 Q-19.0 -22.95 -18.7 -22.95 -18.5 -22.95 -18.35 -23.1 M-21.8 -25.6 Q-22.2 -25.7 -22.2 -25.25 -22.2 -24.85 -21.5 -24.85 -21.3 -24.85 -21.3 -24.9 L-21.25 -25.05 Q-21.4 -25.5 -21.8 -25.6 M-16.4 -21.8 L-16.4 -21.7 -16.25 -21.7 -15.95 -21.65 -15.6 -21.65 -15.4 -21.7 -15.3 -22.0 -15.35 -22.1 -15.4 -22.25 -16.1 -22.35 -16.35 -22.25 -16.4 -22.2 -16.45 -22.0 Q-16.45 -21.85 -16.4 -21.8 M-4.65 -18.9 Q-4.75 -18.85 -4.75 -18.65 L-4.7 -18.55 -4.45 -18.25 Q-4.35 -18.3 -4.3 -18.4 L-4.2 -18.55 -4.55 -18.95 -4.65 -18.9 M-19.6 -21.25 Q-19.8 -21.1 -19.85 -21.1 -20.05 -21.1 -20.1 -21.15 L-20.2 -21.25 -20.25 -21.35 Q-20.3 -21.4 -20.3 -21.55 L-20.25 -21.85 -19.8 -21.8 Q-19.55 -21.7 -19.4 -21.45 L-19.6 -21.25 M-18.65 -20.7 L-18.6 -21.0 -18.3 -21.0 Q-18.05 -21.0 -17.95 -20.7 L-18.05 -20.45 Q-18.1 -20.4 -18.3 -20.4 L-18.55 -20.45 Q-18.65 -20.6 -18.65 -20.7 M-15.55 -20.7 L-15.6 -20.6 -15.65 -20.4 Q-15.65 -20.2 -15.55 -20.15 -15.5 -20.15 -15.4 -20.1 -15.25 -20.15 -15.2 -20.2 L-15.15 -20.45 -15.2 -20.55 Q-15.25 -20.7 -15.35 -20.7 L-15.55 -20.7" fill="#8c1c1c" fill-rule="evenodd" stroke="none"/>
    <path d="M6.5 -9.6 L6.5 -9.55 6.5 -9.5 6.35 -9.3 Q6.25 -9.25 6.05 -9.25 5.75 -9.25 5.6 -9.5 L5.55 -9.7 Q5.55 -10.0 5.95 -10.0 6.3 -9.95 6.5 -9.6 M7.0 -6.0 L7.05 -5.75 7.4 -4.5 7.4 -4.45 7.45 -4.25 7.35 -4.0 Q6.5 -4.6 6.05 -5.4 5.65 -6.1 5.65 -6.8 5.6 -7.1 5.45 -7.4 5.2 -7.95 4.55 -7.95 3.9 -8.45 3.2 -8.45 2.85 -8.45 2.55 -8.0 L2.5 -8.0 2.5 -7.95 2.55 -7.95 2.5 -7.9 Q2.25 -7.3 2.2 -7.25 L1.3 -8.3 1.2 -8.25 0.85 -8.2 Q0.7 -8.2 0.45 -8.6 L-0.15 -9.55 Q-0.9 -10.7 -2.15 -11.3 L-2.3 -11.25 -2.75 -10.9 -2.75 -10.85 -2.9 -10.95 -2.8 -10.85 -2.8 -10.8 -2.9 -10.7 Q-3.1 -10.3 -3.2 -10.15 -3.45 -9.9 -3.75 -9.85 -4.3 -10.45 -4.6 -11.3 -4.8 -11.8 -5.0 -12.85 -5.25 -13.85 -5.45 -14.4 -5.8 -15.25 -6.35 -15.85 L-6.45 -15.85 Q-6.85 -16.65 -7.65 -16.5 L-8.0 -16.4 -8.2 -16.25 -8.15 -16.35 -7.95 -16.9 Q-7.75 -17.45 -7.35 -17.85 -6.4 -18.85 -5.15 -17.7 -4.8 -16.85 -4.55 -15.95 -4.3 -15.2 -4.2 -14.6 L-4.2 -14.75 Q-4.4 -14.75 -4.5 -14.65 -4.75 -14.5 -4.75 -14.3 -4.75 -14.2 -4.35 -13.8 -4.15 -13.55 -4.0 -13.45 -3.8 -12.7 -3.4 -11.9 -3.0 -12.2 -1.75 -11.75 -0.65 -11.3 0.4 -10.6 L1.6 -9.3 1.8 -9.0 1.9 -9.05 Q1.95 -9.6 2.65 -9.9 3.5 -10.25 4.55 -9.75 5.4 -9.5 5.7 -8.8 5.9 -8.4 6.05 -7.75 L6.35 -7.2 6.65 -6.7 6.65 -6.65 7.0 -6.0 M-9.3 -14.65 L-9.7 -14.0 Q-9.9 -14.0 -10.05 -14.15 L-10.4 -14.45 Q-10.95 -14.85 -12.25 -14.85 -12.55 -14.85 -12.85 -14.4 L-13.1 -14.0 -13.25 -14.05 -13.35 -14.05 -13.35 -14.25 Q-13.4 -14.8 -13.8 -15.15 -14.1 -15.45 -14.5 -15.55 L-14.8 -15.6 Q-15.35 -15.7 -15.75 -15.4 -16.0 -15.25 -16.15 -15.0 L-16.25 -15.0 Q-16.4 -15.1 -16.65 -15.2 L-17.45 -15.6 -18.1 -16.25 Q-18.7 -16.8 -19.0 -16.8 -21.45 -16.85 -22.2 -17.1 -22.65 -17.25 -22.75 -17.7 -22.9 -18.15 -23.45 -18.4 -24.35 -18.8 -26.95 -19.05 L-27.4 -19.2 Q-28.95 -19.8 -29.7 -20.75 -30.2 -21.35 -30.45 -22.25 L-30.35 -22.25 -30.5 -22.45 -30.55 -22.55 Q-30.75 -23.25 -30.75 -23.95 L-30.75 -24.2 -30.65 -25.65 Q-30.55 -26.75 -30.45 -27.4 L-30.4 -27.4 -30.45 -27.45 -30.4 -27.7 -30.3 -28.05 -30.25 -28.1 -29.3 -29.7 -29.25 -29.7 Q-29.05 -29.0 -28.4 -28.05 -27.7 -27.0 -26.8 -26.15 -26.05 -25.45 -23.8 -24.6 -21.35 -23.65 -20.65 -23.15 L-19.95 -22.6 Q-19.25 -22.25 -18.65 -21.85 -17.4 -21.0 -16.35 -19.75 -15.75 -19.05 -14.85 -17.7 L-14.85 -17.65 -15.05 -17.65 -17.05 -18.9 Q-19.2 -20.25 -20.1 -20.7 L-20.8 -21.0 Q-20.9 -21.35 -21.15 -21.7 -21.45 -22.1 -21.9 -22.2 -22.35 -22.35 -22.65 -22.15 -22.9 -22.0 -23.0 -21.65 L-23.65 -21.75 -27.95 -22.4 Q-26.85 -21.2 -23.5 -19.9 L-20.5 -18.75 Q-18.55 -18.0 -17.35 -17.45 -16.4 -17.05 -15.35 -16.3 -15.1 -16.45 -14.65 -16.55 -13.7 -16.75 -12.5 -16.5 -12.8 -16.25 -12.8 -16.1 -12.85 -15.9 -12.75 -15.8 -12.6 -15.5 -12.1 -15.5 L-11.25 -15.55 Q-10.85 -15.65 -10.75 -15.85 -10.3 -15.6 -9.95 -15.3 -9.55 -15.0 -9.3 -14.65 M-17.0 -25.1 L-16.95 -25.0 -16.85 -24.85 Q-16.6 -24.55 -15.95 -24.1 -15.5 -23.8 -15.25 -23.5 -15.55 -23.4 -15.95 -23.4 -16.5 -23.45 -17.15 -23.85 -17.75 -24.25 -17.75 -24.45 -17.75 -24.8 -17.2 -25.05 L-17.0 -25.1 M-3.3 -16.5 L-3.25 -16.4 -3.1 -15.5 -2.95 -14.85 -2.95 -14.8 Q-2.85 -14.5 -2.85 -14.2 L-3.4 -14.95 -4.3 -16.25 Q-4.25 -17.45 -3.3 -16.5 M4.5 -11.1 L4.55 -11.45 Q4.65 -11.75 4.9 -11.9 4.9 -11.0 5.1 -10.5 5.05 -10.4 4.95 -10.4 4.75 -10.55 4.5 -11.1 M5.25 -8.85 Q5.25 -9.05 5.2 -9.05 5.05 -9.05 4.95 -9.1 4.75 -8.95 4.65 -8.8 4.55 -8.7 4.55 -8.65 4.55 -8.45 4.65 -8.35 L4.85 -8.3 5.1 -8.6 5.25 -8.85 M9.75 -4.0 Q10.1 -4.2 10.85 -4.1 L11.55 -3.95 11.35 -3.7 Q10.75 -3.0 10.0 -2.95 L9.65 -3.4 Q9.65 -3.55 9.75 -4.0 M11.9 -4.65 L11.3 -4.6 10.85 -4.65 10.6 -4.65 10.6 -4.75 Q10.55 -4.8 10.55 -4.95 L10.6 -5.2 10.65 -5.3 11.75 -5.2 Q11.9 -4.95 11.9 -4.7 L11.9 -4.65 M-6.25 -19.55 L-6.15 -19.2 -6.25 -18.9 -6.35 -18.9 -6.55 -18.8 Q-6.9 -19.15 -6.9 -19.2 -6.9 -19.45 -6.8 -19.55 -6.65 -19.7 -6.25 -19.55 M-6.0 -17.45 L-6.05 -17.35 -6.05 -17.2 Q-6.05 -17.1 -5.9 -17.0 L-5.6 -16.75 -5.45 -16.8 -5.35 -16.85 -5.3 -16.85 -5.3 -17.1 Q-5.3 -17.3 -5.5 -17.4 L-6.0 -17.45 M-4.65 -18.9 L-4.55 -18.95 -4.2 -18.55 -4.3 -18.4 Q-4.35 -18.3 -4.45 -18.25 L-4.7 -18.55 -4.75 -18.65 Q-4.75 -18.85 -4.65 -18.9 M-16.4 -21.8 Q-16.45 -21.85 -16.45 -22.0 L-16.4 -22.2 -16.35 -22.25 -16.1 -22.35 -15.4 -22.25 -15.35 -22.1 -15.3 -22.0 -15.4 -21.7 -15.6 -21.65 -15.95 -21.65 -16.25 -21.7 -16.4 -21.7 -16.4 -21.8 M-21.8 -25.6 Q-21.4 -25.5 -21.25 -25.05 L-21.3 -24.9 Q-21.3 -24.85 -21.5 -24.85 -22.2 -24.85 -22.2 -25.25 -22.2 -25.7 -21.8 -25.6 M-18.35 -23.1 Q-18.5 -22.95 -18.7 -22.95 -19.0 -22.95 -19.35 -23.7 L-19.25 -23.85 -19.0 -23.85 Q-18.6 -23.85 -18.25 -23.3 L-18.35 -23.1 M-18.65 -20.7 Q-18.65 -20.6 -18.55 -20.45 L-18.3 -20.4 Q-18.1 -20.4 -18.05 -20.45 L-17.95 -20.7 Q-18.05 -21.0 -18.3 -21.0 L-18.6 -21.0 -18.65 -20.7 M-19.6 -21.25 L-19.4 -21.45 Q-19.55 -21.7 -19.8 -21.8 L-20.25 -21.85 -20.3 -21.55 Q-20.3 -21.4 -20.25 -21.35 L-20.2 -21.25 -20.1 -21.15 Q-20.05 -21.1 -19.85 -21.1 -19.8 -21.1 -19.6 -21.25 M-15.55 -20.7 L-15.35 -20.7 Q-15.25 -20.7 -15.2 -20.55 L-15.15 -20.45 -15.2 -20.2 Q-15.25 -20.15 -15.4 -20.1 -15.5 -20.15 -15.55 -20.15 -15.65 -20.2 -15.65 -20.4 L-15.6 -20.6 -15.55 -20.7" fill="#4d0f0f" fill-rule="evenodd" stroke="none"/>
  </g>
</svg>
