<?xml version="1.0" encoding="UTF-8" standalone="no"?>
<svg xmlns:ffdec="https://www.free-decompiler.com/flash" xmlns:xlink="http://www.w3.org/1999/xlink" ffdec:objectType="shape" height="19.6px" width="29.05px" xmlns="http://www.w3.org/2000/svg">
  <g transform="matrix(1.0, 0.0, 0.0, 1.0, 13.75, 19.6)">
    <path d="M6.25 -18.05 Q5.85 -17.6 5.45 -16.4 5.0 -15.15 4.5 -14.55 L4.05 -14.0 4.15 -14.3 Q4.75 -15.6 4.75 -16.5 4.75 -16.6 4.6 -16.9 4.5 -17.25 4.5 -17.35 4.2 -17.15 4.1 -16.3 L4.05 -15.95 Q3.65 -15.25 3.2 -14.1 L2.9 -13.35 Q2.9 -13.7 2.75 -13.95 L2.7 -14.2 Q2.6 -14.55 1.9 -14.8 L1.95 -14.65 1.75 -14.9 1.6 -15.65 Q1.4 -16.6 1.25 -15.1 L1.0 -13.5 Q0.9 -12.6 0.9 -12.0 0.9 -11.7 0.75 -11.25 0.65 -10.75 0.65 -10.5 0.65 -10.2 0.75 -9.15 L0.85 -8.2 Q0.85 -7.8 1.4 -6.55 1.7 -5.65 2.05 -5.15 2.25 -4.85 2.4 -4.7 L2.35 -4.9 2.25 -4.95 Q2.65 -4.6 3.15 -4.6 L3.35 -4.6 3.4 -4.65 3.4 -4.8 3.45 -4.8 Q3.6 -4.8 3.55 -4.85 L3.6 -4.85 3.6 -5.0 3.55 -5.4 Q3.45 -5.75 3.45 -5.85 L3.6 -8.25 Q3.6 -9.1 3.55 -9.3 L3.45 -9.55 3.6 -9.45 Q4.0 -8.8 4.0 -7.8 L4.0 -7.85 4.05 -7.8 4.0 -7.65 Q3.95 -7.1 4.0 -6.85 L4.0 -6.55 3.95 -6.15 Q4.0 -5.6 4.25 -5.0 4.55 -4.4 4.9 -4.15 L4.9 -4.05 5.05 -4.0 5.15 -4.0 5.5 -3.9 5.55 -3.9 6.25 -3.75 6.3 -3.75 6.8 -3.7 Q7.0 -3.7 7.15 -3.75 L7.2 -3.65 Q7.65 -3.0 8.2 -2.8 L8.25 -2.9 8.2 -2.75 Q7.8 -2.95 7.45 -2.85 6.0 -3.05 5.3 -3.35 4.5 -3.65 4.25 -4.15 4.0 -4.05 4.0 -3.85 4.0 -3.65 4.8 -2.7 5.5 -1.9 6.05 -1.65 5.95 -1.6 5.85 -1.6 5.55 -1.5 4.7 -0.65 L4.2 -0.15 Q2.6 -0.05 1.05 -0.2 1.15 -0.25 1.15 -0.3 1.15 -0.4 -0.1 -2.6 -1.3 -4.75 -1.35 -4.75 -2.45 -4.75 -3.0 -5.05 -3.4 -5.25 -5.3 -6.35 -8.65 -7.7 -10.45 -7.95 -12.05 -8.2 -12.3 -7.65 L-12.4 -7.6 -12.65 -7.65 -12.95 -7.6 -13.4 -7.6 Q-13.35 -7.75 -13.2 -7.9 -12.05 -11.45 -8.35 -13.75 -5.6 -15.5 -2.65 -16.95 1.1 -18.8 5.15 -19.6 L5.8 -19.6 6.4 -19.55 6.65 -19.6 6.7 -19.6 7.15 -19.25 Q7.05 -19.15 7.0 -18.95 L7.05 -19.3 6.9 -19.15 6.9 -19.1 6.8 -18.95 6.75 -19.0 6.7 -19.0 6.75 -18.9 Q6.45 -18.5 6.25 -18.05 M2.05 -13.3 L2.05 -13.2 2.05 -13.3 M2.25 -10.8 Q2.45 -10.95 2.55 -11.35 L2.85 -11.7 Q2.4 -11.05 2.3 -10.7 L2.25 -10.8 M6.8 -17.65 Q6.75 -17.0 6.75 -16.2 L6.7 -16.15 6.7 -16.75 6.8 -17.65 M7.2 -5.5 L7.2 -5.7 Q7.2 -5.9 7.35 -7.0 L7.45 -7.95 7.5 -8.05 Q7.45 -7.0 7.65 -6.05 7.85 -4.95 8.35 -4.55 L8.95 -4.6 9.25 -4.6 9.3 -4.4 9.3 -4.35 9.2 -4.25 9.15 -4.25 9.1 -4.15 8.7 -3.55 Q8.1 -3.9 7.6 -4.5 7.5 -4.8 7.35 -5.35 L7.2 -5.6 7.2 -5.5 M2.85 -13.15 L2.75 -12.95 2.75 -13.1 2.85 -13.15 M1.4 -13.95 L1.4 -14.45 Q1.45 -14.25 1.4 -13.95 M0.0 -12.45 L0.0 -13.35 Q0.0 -13.5 0.1 -13.65 L-0.3 -13.6 Q-0.65 -13.55 -0.7 -13.3 -0.95 -13.55 -1.1 -13.5 L-1.25 -13.7 -1.25 -13.55 -1.5 -13.65 Q-2.1 -13.35 -1.6 -12.75 -1.35 -12.4 -1.05 -12.25 L-1.05 -12.2 -0.95 -12.25 Q-1.0 -11.75 -1.1 -11.25 -1.3 -10.9 -1.3 -10.1 -1.3 -8.6 -1.0 -7.75 -0.6 -6.75 0.3 -5.9 L0.5 -5.75 0.55 -5.75 0.8 -5.65 0.75 -5.85 0.85 -5.55 1.05 -5.2 Q1.2 -4.85 1.55 -4.35 2.15 -3.4 2.75 -3.1 3.0 -2.95 3.15 -2.95 3.35 -2.95 3.65 -2.85 L4.4 -2.4 4.45 -2.5 Q4.05 -3.05 2.85 -4.1 1.7 -5.1 1.3 -5.65 0.9 -6.2 0.6 -7.25 0.35 -8.05 0.15 -8.5 L0.15 -10.65 0.1 -11.2 0.15 -11.75 Q0.15 -11.95 0.05 -12.25 L0.0 -12.45 M3.7 -2.0 Q3.8 -2.1 3.8 -2.25 3.8 -2.55 3.4 -2.6 3.05 -2.65 3.05 -2.35 3.05 -2.25 3.1 -2.1 3.25 -1.9 3.45 -1.9 3.6 -1.9 3.7 -2.0 M-12.7 -7.2 Q-12.2 -6.8 -11.2 -6.4 -10.7 -6.2 -10.3 -6.05 -10.65 -5.85 -10.65 -5.65 L-10.65 -5.6 -10.95 -5.45 -10.8 -5.4 Q-12.05 -5.4 -13.05 -6.55 -13.35 -6.95 -13.4 -7.3 L-12.7 -7.2 M-8.7 -5.95 L-8.65 -5.95 -8.7 -5.95 M-2.0 -12.95 Q-2.4 -13.75 -2.7 -13.65 L-2.7 -13.5 Q-2.55 -13.25 -2.4 -12.55 -2.3 -11.95 -2.3 -11.5 -2.3 -11.05 -2.45 -10.4 -2.6 -9.75 -2.6 -9.05 -2.6 -8.7 -2.15 -7.9 -1.7 -6.95 -1.25 -6.95 L-1.25 -7.0 -1.35 -7.15 -1.45 -7.35 -1.35 -7.35 Q-1.3 -7.35 -1.3 -7.45 L-1.4 -7.65 -1.55 -7.8 Q-1.55 -8.4 -1.7 -9.1 -1.8 -9.8 -1.8 -10.25 L-1.75 -11.05 -1.65 -11.85 Q-1.65 -12.2 -2.0 -12.95 M-4.1 -7.1 Q-4.4 -7.55 -4.75 -7.75 -5.6 -8.4 -7.55 -8.55 -7.6 -8.15 -6.65 -7.85 -5.55 -7.6 -5.3 -7.45 -5.0 -7.3 -4.3 -6.7 L-3.7 -6.2 Q-3.6 -6.2 -3.55 -6.25 L-3.55 -6.3 -4.1 -7.1 M-2.95 -7.15 Q-2.95 -7.55 -3.35 -7.75 -3.75 -7.9 -3.75 -7.4 -3.75 -7.25 -3.7 -7.05 -3.55 -6.7 -3.25 -6.7 -2.95 -6.7 -2.95 -7.15 M-5.25 -8.8 Q-5.25 -8.7 -5.2 -8.6 -5.0 -8.4 -4.7 -8.4 L-4.55 -8.4 -4.5 -8.55 Q-4.65 -8.95 -4.95 -9.0 -5.25 -9.05 -5.25 -8.8 M-0.2 -4.25 Q-0.1 -4.45 -0.1 -4.7 -0.1 -4.95 -0.25 -5.2 -0.4 -5.4 -0.6 -5.45 -1.15 -5.55 -1.15 -4.7 L-1.0 -4.35 Q-0.8 -3.95 -0.55 -3.95 -0.3 -3.95 -0.2 -4.25" fill="#8c1c1c" fill-rule="evenodd" stroke="none"/>
    <path d="M6.25 -18.05 Q6.45 -18.5 6.75 -18.9 L6.7 -19.0 6.75 -19.0 6.8 -18.95 6.9 -19.1 6.9 -19.15 7.05 -19.3 7.0 -18.95 Q6.9 -18.75 6.85 -18.45 6.8 -18.1 6.8 -17.65 L6.7 -16.75 6.7 -16.15 Q6.65 -15.4 5.8 -14.1 4.9 -12.75 4.1 -12.5 L3.95 -12.3 Q2.9 -11.15 2.7 -10.35 3.45 -10.75 4.05 -9.85 4.35 -9.45 4.55 -8.95 4.7 -8.55 4.7 -8.35 L4.7 -8.15 4.8 -8.05 5.2 -7.75 5.35 -8.05 Q5.75 -8.8 6.65 -8.8 L7.35 -8.7 Q7.65 -9.15 8.05 -9.0 L8.05 -8.85 8.15 -8.9 8.4 -9.15 Q8.8 -9.45 9.3 -9.6 9.8 -9.8 10.15 -9.7 10.5 -9.6 10.5 -9.1 L10.5 -9.05 Q10.55 -9.0 10.55 -8.85 L11.75 -8.9 Q13.7 -8.9 14.45 -7.15 14.8 -6.35 15.1 -4.95 L15.3 -3.95 15.25 -3.8 15.25 -3.75 15.2 -3.65 15.1 -3.5 15.1 -3.45 Q14.85 -3.0 14.65 -3.0 14.55 -3.4 14.3 -3.8 L14.2 -3.85 14.0 -4.0 Q13.4 -4.3 12.95 -4.45 L12.8 -4.45 Q12.55 -4.45 12.1 -4.0 11.65 -3.5 11.05 -3.5 L11.0 -3.5 10.85 -3.35 Q10.6 -1.6 8.2 -0.9 6.2 -0.3 4.75 -0.2 L4.8 -0.2 Q5.6 -0.8 6.5 -1.35 L6.9 -1.55 6.95 -1.6 7.5 -1.95 8.0 -2.25 Q8.6 -2.65 9.3 -3.0 9.5 -3.05 9.65 -3.15 9.9 -3.35 10.15 -3.55 L10.05 -3.6 9.9 -3.7 Q9.6 -3.95 9.4 -4.25 L9.35 -4.3 9.3 -4.4 9.25 -4.6 8.95 -4.6 8.35 -4.55 Q7.85 -4.95 7.65 -6.05 7.45 -7.0 7.5 -8.05 L7.45 -7.95 7.35 -7.0 Q7.2 -5.9 7.2 -5.7 L7.2 -5.5 7.25 -5.1 7.3 -4.95 7.35 -4.25 7.45 -4.0 7.25 -3.85 7.15 -3.75 Q7.0 -3.7 6.8 -3.7 L6.3 -3.75 6.25 -3.75 5.55 -3.9 5.5 -3.9 5.15 -4.0 5.05 -4.0 4.9 -4.05 4.9 -4.15 Q4.55 -4.4 4.25 -5.0 4.0 -5.6 3.95 -6.15 L4.0 -6.55 4.0 -6.85 Q3.95 -7.1 4.0 -7.65 L4.05 -7.8 4.0 -7.85 4.0 -7.8 Q4.0 -8.8 3.6 -9.45 L3.45 -9.55 Q3.2 -9.7 2.85 -9.75 L2.85 -9.65 Q3.4 -8.85 3.4 -7.6 3.3 -6.9 3.3 -6.3 L3.45 -5.25 3.4 -4.8 3.4 -4.65 3.35 -4.6 3.15 -4.6 Q2.65 -4.6 2.25 -4.95 L2.05 -5.15 Q1.7 -5.65 1.4 -6.55 L1.25 -7.0 Q1.1 -7.7 1.0 -8.4 L0.95 -8.75 Q0.9 -8.95 0.8 -9.2 0.7 -9.6 0.7 -9.95 0.7 -10.25 0.8 -10.65 0.8 -10.95 0.9 -11.25 L1.05 -11.45 1.4 -12.35 Q1.6 -12.9 1.65 -13.3 1.85 -14.2 1.6 -14.65 L1.7 -14.65 1.65 -14.95 1.75 -14.95 1.75 -14.9 1.95 -14.65 2.1 -14.25 2.1 -14.15 Q2.1 -13.9 2.05 -13.5 L2.05 -13.3 2.05 -13.2 2.0 -12.95 1.8 -12.35 1.75 -12.15 1.65 -11.7 2.25 -10.8 2.3 -10.7 Q2.4 -11.05 2.85 -11.7 L3.2 -12.2 3.55 -12.65 Q4.95 -14.4 5.05 -14.8 5.45 -15.9 5.85 -16.9 6.0 -17.5 6.25 -18.05 M-13.4 -7.6 L-12.95 -7.6 -12.65 -7.65 -12.4 -7.6 -12.3 -7.65 -12.0 -7.65 Q-10.45 -7.45 -8.95 -7.0 -8.6 -6.9 -8.25 -6.75 L-6.7 -6.25 Q-5.35 -5.8 -4.45 -5.1 -3.1 -4.35 -2.0 -3.1 -1.0 -1.95 -0.6 -0.55 L-0.55 -0.4 -0.4 0.0 -3.8 -3.1 Q-4.35 -3.6 -4.85 -4.15 -5.6 -4.45 -6.4 -4.85 L-6.5 -4.85 Q-7.0 -4.8 -7.6 -4.9 L-7.85 -4.9 Q-9.45 -5.05 -10.8 -5.4 L-10.95 -5.45 -10.65 -5.6 -10.35 -5.6 -10.3 -5.65 -10.2 -5.65 -10.15 -5.7 -10.0 -5.75 -9.9 -5.75 Q-9.35 -5.8 -8.9 -5.95 L-8.7 -5.95 -8.65 -5.95 -8.75 -6.0 -9.3 -6.2 -9.75 -6.35 Q-11.05 -6.8 -12.35 -7.15 L-12.65 -7.2 -12.7 -7.2 -13.4 -7.3 -13.75 -7.3 -13.45 -7.45 -13.7 -7.5 -13.65 -7.5 -13.7 -7.55 -13.6 -7.5 -13.4 -7.6 M6.25 -15.65 L6.2 -15.6 6.15 -15.5 Q5.9 -14.95 5.75 -14.55 L5.9 -14.85 Q6.1 -15.2 6.25 -15.65 M5.95 -8.0 Q5.8 -7.85 5.7 -7.6 L5.65 -7.55 5.45 -7.0 5.45 -6.95 5.3 -6.75 Q5.15 -6.9 5.15 -7.05 L5.1 -6.9 4.75 -7.2 4.55 -7.3 4.55 -7.25 4.45 -6.9 Q4.55 -6.45 4.65 -6.05 4.95 -5.2 5.55 -4.45 L5.6 -4.5 6.65 -3.95 Q6.75 -3.95 6.85 -4.0 L6.95 -4.05 Q6.9 -4.3 6.9 -4.6 L6.85 -4.85 Q6.8 -5.1 6.8 -5.7 6.8 -6.75 7.0 -7.7 7.05 -8.0 7.15 -8.25 L7.0 -8.3 6.7 -8.3 Q6.25 -8.3 5.95 -8.0 M9.6 -8.9 L9.45 -8.95 Q8.8 -8.95 8.4 -8.5 8.15 -8.25 7.95 -8.15 L7.85 -7.9 7.85 -7.55 Q7.9 -7.15 7.95 -6.75 8.0 -6.35 8.15 -5.95 L8.2 -5.85 8.35 -5.5 8.55 -5.15 8.65 -5.05 8.8 -4.95 8.85 -4.9 8.85 -4.95 8.8 -5.0 Q8.65 -5.65 8.7 -6.35 8.7 -7.5 9.65 -8.6 L9.85 -8.85 Q9.75 -8.9 9.6 -8.9 M14.0 -4.5 Q14.7 -4.2 14.85 -4.05 L14.85 -4.15 14.8 -4.55 14.65 -5.1 14.35 -6.0 14.25 -6.25 14.0 -6.9 13.8 -7.3 Q13.5 -7.9 13.0 -8.2 12.5 -8.45 11.7 -8.45 L11.0 -8.35 10.95 -8.35 10.25 -8.3 10.1 -8.05 Q9.9 -7.7 9.8 -7.4 9.65 -6.95 9.65 -6.45 9.65 -5.6 10.15 -4.75 L10.4 -4.3 10.25 -4.35 Q10.4 -4.15 10.55 -4.0 L10.6 -4.15 10.65 -4.15 10.95 -3.9 11.3 -4.05 Q11.85 -4.3 12.0 -4.5 12.35 -5.05 12.8 -4.9 13.2 -4.9 13.95 -4.55 L14.0 -4.5 M-0.7 -13.3 L-0.5 -13.05 Q-0.25 -12.75 -0.1 -12.45 L0.0 -12.45 0.05 -12.25 Q0.15 -11.95 0.15 -11.75 L0.1 -11.2 0.15 -10.65 0.15 -8.5 0.15 -7.75 0.5 -6.65 0.75 -5.85 0.8 -5.65 0.55 -5.75 0.5 -5.75 0.3 -5.9 Q-0.6 -6.75 -1.0 -7.75 -1.3 -8.6 -1.3 -10.1 -1.3 -10.9 -1.1 -11.25 -1.0 -11.75 -0.95 -12.25 L-1.05 -12.2 -1.05 -12.25 Q-1.35 -12.4 -1.6 -12.75 -2.1 -13.35 -1.5 -13.65 L-1.25 -13.55 -1.25 -13.7 -1.1 -13.5 Q-0.95 -13.55 -0.7 -13.3 M1.45 -11.1 L1.45 -11.15 1.4 -11.2 Q1.3 -10.8 1.25 -10.4 1.25 -10.2 1.25 -9.5 1.25 -8.95 1.3 -8.4 1.4 -7.85 1.6 -7.25 2.25 -5.2 3.05 -4.95 L3.05 -5.15 Q3.0 -5.3 2.95 -5.7 L2.95 -5.95 2.9 -6.25 Q2.9 -6.35 2.95 -6.55 L2.95 -7.1 2.95 -8.25 Q2.9 -8.8 2.45 -9.7 1.9 -10.4 1.45 -11.1 M4.05 -8.75 L4.05 -8.75 M1.85 -6.0 Q2.1 -5.45 2.4 -5.15 L2.05 -5.65 1.85 -6.0 M-0.4 -12.1 L-0.6 -11.75 -0.7 -11.1 Q-0.75 -10.75 -0.8 -10.55 L-0.85 -10.45 Q-0.95 -10.25 -1.0 -9.95 L-1.0 -9.8 Q-0.95 -9.2 -0.8 -8.55 L-0.65 -8.05 Q-0.55 -7.7 -0.35 -7.45 L-0.25 -7.35 Q-0.3 -7.45 -0.35 -8.0 L-0.35 -8.9 -0.1 -10.7 -0.1 -11.0 Q-0.1 -11.1 -0.15 -11.35 L-0.25 -11.7 -0.35 -12.15 -0.4 -12.1" fill="#111111" fill-rule="evenodd" stroke="none"/>
    <path d="M1.95 -14.65 L1.9 -14.8 Q2.6 -14.55 2.7 -14.2 L2.75 -13.95 Q2.9 -13.7 2.9 -13.35 L3.2 -14.1 Q3.65 -15.25 4.05 -15.95 L4.1 -16.3 Q4.2 -17.15 4.5 -17.35 4.5 -17.25 4.6 -16.9 4.75 -16.6 4.75 -16.5 4.75 -15.6 4.15 -14.3 L4.05 -14.0 4.5 -14.55 Q5.0 -15.15 5.45 -16.4 5.85 -17.6 6.25 -18.05 6.0 -17.5 5.85 -16.9 5.45 -15.9 5.05 -14.8 4.95 -14.4 3.55 -12.65 L3.2 -12.2 2.85 -11.7 2.55 -11.35 Q2.45 -10.95 2.25 -10.8 L1.65 -11.7 1.75 -12.15 1.8 -12.35 2.0 -12.95 2.05 -13.2 2.05 -13.3 2.05 -13.5 Q2.1 -13.9 2.1 -14.15 L2.1 -14.25 1.95 -14.65 M-12.3 -7.65 Q-12.05 -8.2 -10.45 -7.95 -8.65 -7.7 -5.3 -6.35 -3.4 -5.25 -3.0 -5.05 -2.45 -4.75 -1.35 -4.75 -1.3 -4.75 -0.1 -2.6 1.15 -0.4 1.15 -0.3 1.15 -0.25 1.05 -0.2 L-0.4 -0.4 -0.55 -0.4 -0.6 -0.55 Q-1.0 -1.95 -2.0 -3.1 -3.1 -4.35 -4.45 -5.1 -5.35 -5.8 -6.7 -6.25 L-8.25 -6.75 Q-8.6 -6.9 -8.95 -7.0 -10.45 -7.45 -12.0 -7.65 L-12.3 -7.65 M4.2 -0.15 L4.7 -0.65 Q5.55 -1.5 5.85 -1.6 5.95 -1.6 6.05 -1.65 5.5 -1.9 4.8 -2.7 4.0 -3.65 4.0 -3.85 4.0 -4.05 4.25 -4.15 4.5 -3.65 5.3 -3.35 6.0 -3.05 7.45 -2.85 7.8 -2.95 8.2 -2.75 L8.25 -2.9 8.2 -2.8 Q7.65 -3.0 7.2 -3.65 L7.15 -3.75 7.25 -3.85 7.45 -4.0 7.35 -4.25 7.3 -4.95 7.25 -5.1 7.2 -5.5 7.2 -5.6 7.35 -5.35 Q7.5 -4.8 7.6 -4.5 8.1 -3.9 8.7 -3.55 L9.1 -4.15 9.15 -4.25 9.2 -4.25 9.3 -4.35 9.3 -4.4 9.35 -4.3 9.4 -4.25 Q9.6 -3.95 9.9 -3.7 L10.05 -3.6 10.15 -3.55 Q9.9 -3.35 9.65 -3.15 9.5 -3.05 9.3 -3.0 8.6 -2.65 8.0 -2.25 L7.5 -1.95 6.95 -1.6 6.9 -1.55 6.5 -1.35 Q5.6 -0.8 4.8 -0.2 L4.2 -0.15 M3.45 -9.55 L3.55 -9.3 Q3.6 -9.1 3.6 -8.25 L3.45 -5.85 Q3.45 -5.75 3.55 -5.4 L3.6 -5.0 3.6 -4.85 3.55 -4.85 Q3.6 -4.8 3.45 -4.8 L3.4 -4.8 3.45 -5.25 3.3 -6.3 Q3.3 -6.9 3.4 -7.6 3.4 -8.85 2.85 -9.65 L2.85 -9.75 Q3.2 -9.7 3.45 -9.55 M2.25 -4.95 L2.35 -4.9 2.4 -4.7 Q2.25 -4.85 2.05 -5.15 L2.25 -4.95 M1.4 -6.55 Q0.85 -7.8 0.85 -8.2 L0.75 -9.15 Q0.65 -10.2 0.65 -10.5 0.65 -10.75 0.75 -11.25 0.9 -11.7 0.9 -12.0 0.9 -12.6 1.0 -13.5 L1.25 -15.1 Q1.4 -16.6 1.6 -15.65 L1.75 -14.9 1.75 -14.95 1.65 -14.95 1.7 -14.65 1.6 -14.65 Q1.85 -14.2 1.65 -13.3 1.6 -12.9 1.4 -12.35 L1.05 -11.45 0.9 -11.25 Q0.8 -10.95 0.8 -10.65 0.7 -10.25 0.7 -9.95 0.7 -9.6 0.8 -9.2 0.9 -8.95 0.95 -8.75 L1.0 -8.4 Q1.1 -7.7 1.25 -7.0 L1.4 -6.55 M2.85 -13.15 L2.75 -13.1 2.75 -12.95 2.85 -13.15 M1.4 -13.95 Q1.45 -14.25 1.4 -14.45 L1.4 -13.95 M-0.7 -13.3 Q-0.65 -13.55 -0.3 -13.6 L0.1 -13.65 Q0.0 -13.5 0.0 -13.35 L0.0 -12.45 -0.1 -12.45 Q-0.25 -12.75 -0.5 -13.05 L-0.7 -13.3 M0.15 -8.5 Q0.35 -8.05 0.6 -7.25 0.9 -6.2 1.3 -5.65 1.7 -5.1 2.85 -4.1 4.05 -3.05 4.45 -2.5 L4.4 -2.4 3.65 -2.85 Q3.35 -2.95 3.15 -2.95 3.0 -2.95 2.75 -3.1 2.15 -3.4 1.55 -4.35 1.2 -4.85 1.05 -5.2 L0.85 -5.55 0.75 -5.85 0.5 -6.65 0.15 -7.75 0.15 -8.5 M3.7 -2.0 Q3.6 -1.9 3.45 -1.9 3.25 -1.9 3.1 -2.1 3.05 -2.25 3.05 -2.35 3.05 -2.65 3.4 -2.6 3.8 -2.55 3.8 -2.25 3.8 -2.1 3.7 -2.0 M-12.7 -7.2 L-12.65 -7.2 -12.35 -7.15 Q-11.05 -6.8 -9.75 -6.35 L-9.3 -6.2 -8.75 -6.0 -8.65 -5.95 -8.7 -5.95 -8.9 -5.95 Q-9.35 -5.8 -9.9 -5.75 L-10.0 -5.75 -10.15 -5.7 -10.2 -5.65 -10.3 -5.65 -10.35 -5.6 -10.65 -5.6 -10.65 -5.65 Q-10.65 -5.85 -10.3 -6.05 -10.7 -6.2 -11.2 -6.4 -12.2 -6.8 -12.7 -7.2 M-2.0 -12.95 Q-1.65 -12.2 -1.65 -11.85 L-1.75 -11.05 -1.8 -10.25 Q-1.8 -9.8 -1.7 -9.1 -1.55 -8.4 -1.55 -7.8 L-1.4 -7.65 -1.3 -7.45 Q-1.3 -7.35 -1.35 -7.35 L-1.45 -7.35 -1.35 -7.15 -1.25 -7.0 -1.25 -6.95 Q-1.7 -6.95 -2.15 -7.9 -2.6 -8.7 -2.6 -9.05 -2.6 -9.75 -2.45 -10.4 -2.3 -11.05 -2.3 -11.5 -2.3 -11.95 -2.4 -12.55 -2.55 -13.25 -2.7 -13.5 L-2.7 -13.65 Q-2.4 -13.75 -2.0 -12.95 M-5.25 -8.8 Q-5.25 -9.05 -4.95 -9.0 -4.65 -8.95 -4.5 -8.55 L-4.55 -8.4 -4.7 -8.4 Q-5.0 -8.4 -5.2 -8.6 -5.25 -8.7 -5.25 -8.8 M-2.95 -7.15 Q-2.95 -6.7 -3.25 -6.7 -3.55 -6.7 -3.7 -7.05 -3.75 -7.25 -3.75 -7.4 -3.75 -7.9 -3.35 -7.75 -2.95 -7.55 -2.95 -7.15 M-4.1 -7.1 L-3.55 -6.3 -3.55 -6.25 Q-3.6 -6.2 -3.7 -6.2 L-4.3 -6.7 Q-5.0 -7.3 -5.3 -7.45 -5.55 -7.6 -6.65 -7.85 -7.6 -8.15 -7.55 -8.55 -5.6 -8.4 -4.75 -7.75 -4.4 -7.55 -4.1 -7.1 M-0.2 -4.25 Q-0.3 -3.95 -0.55 -3.95 -0.8 -3.95 -1.0 -4.35 L-1.15 -4.7 Q-1.15 -5.55 -0.6 -5.45 -0.4 -5.4 -0.25 -5.2 -0.1 -4.95 -0.1 -4.7 -0.1 -4.45 -0.2 -4.25" fill="#4d0f0f" fill-rule="evenodd" stroke="none"/>
    <path d="M10.4 -4.3 L10.65 -4.15 10.6 -4.15 10.55 -4.0 Q10.4 -4.15 10.25 -4.35 L10.4 -4.3" fill="#1a1a1a" fill-rule="evenodd" stroke="none"/>
    <path d="M9.8 -7.4 L9.8 -7.25 9.85 -6.45 9.85 -6.2 Q9.9 -6.0 10.05 -6.0 10.2 -6.0 10.15 -6.0 L10.3 -6.3 Q10.4 -6.55 10.5 -6.7 L11.55 -6.8 Q11.7 -6.7 11.75 -6.35 11.8 -6.0 11.9 -5.9 12.05 -5.7 12.7 -5.5 13.35 -5.3 13.45 -5.2 13.6 -5.05 14.0 -4.5 L13.95 -4.55 Q13.2 -4.9 12.8 -4.9 12.35 -5.05 12.0 -4.5 11.85 -4.3 11.3 -4.05 L10.95 -3.9 10.65 -4.15 10.4 -4.3 10.15 -4.75 Q9.65 -5.6 9.65 -6.45 9.65 -6.95 9.8 -7.4" fill="#805619" fill-rule="evenodd" stroke="none"/>
    <path d="M14.0 -4.5 Q13.6 -5.05 13.45 -5.2 13.35 -5.3 12.7 -5.5 12.05 -5.7 11.9 -5.9 11.8 -6.0 11.75 -6.35 11.7 -6.7 11.55 -6.8 L10.5 -6.7 Q10.4 -6.55 10.3 -6.3 L10.15 -6.0 Q10.2 -6.0 10.05 -6.0 9.9 -6.0 9.85 -6.2 L9.85 -6.45 9.8 -7.25 9.8 -7.4 Q9.9 -7.7 10.1 -8.05 L10.25 -8.3 10.95 -8.35 11.0 -8.35 11.7 -8.45 Q12.5 -8.45 13.0 -8.2 13.5 -7.9 13.8 -7.3 L14.0 -6.9 14.25 -6.25 14.35 -6.0 14.65 -5.1 14.8 -4.55 14.85 -4.15 14.85 -4.05 Q14.7 -4.2 14.0 -4.5" fill="#cc8a28" fill-rule="evenodd" stroke="none"/>
    <path d="M5.45 -6.95 L5.45 -6.85 Q5.45 -6.75 5.45 -6.55 L5.55 -6.25 Q5.9 -6.5 5.95 -7.1 L5.95 -8.0 Q6.25 -8.3 6.7 -8.3 L7.0 -8.3 Q6.75 -7.95 6.65 -6.9 6.6 -6.3 6.55 -5.6 L6.05 -5.85 Q5.55 -6.15 5.55 -5.85 L5.6 -5.0 Q5.15 -5.45 4.95 -6.0 4.9 -6.3 4.8 -6.85 L4.75 -7.2 5.1 -6.9 5.15 -7.05 Q5.15 -6.9 5.3 -6.75 L5.45 -6.95 M9.6 -8.9 Q9.4 -8.8 9.2 -8.55 8.7 -7.95 8.45 -7.2 L8.3 -8.05 Q8.0 -7.85 7.95 -6.75 7.9 -7.15 7.85 -7.55 L7.85 -7.9 7.95 -8.15 Q8.15 -8.25 8.4 -8.5 8.8 -8.95 9.45 -8.95 L9.6 -8.9 M8.2 -5.85 L8.3 -5.8 8.3 -5.9 Q8.3 -5.7 8.35 -5.5 L8.2 -5.85 M8.8 -4.95 L8.8 -5.0 8.85 -4.95 8.85 -4.9 8.8 -4.95 M1.45 -11.1 Q1.9 -10.4 2.45 -9.7 2.9 -8.8 2.95 -8.25 L2.95 -7.1 2.95 -7.25 Q2.75 -8.25 2.25 -9.35 L2.2 -9.35 Q2.2 -9.45 2.2 -9.25 2.2 -8.7 2.4 -7.9 L2.65 -7.15 Q2.65 -6.85 2.75 -6.2 L2.8 -5.85 2.65 -5.75 Q2.2 -6.95 1.85 -8.9 L1.45 -11.1 M6.05 -4.7 L6.05 -4.75 6.1 -4.65 Q6.05 -4.65 6.05 -4.7 M-0.7 -11.1 L-0.6 -11.75 -0.4 -12.1 -0.65 -11.15 -0.7 -11.1 M-0.15 -11.35 Q-0.1 -11.1 -0.1 -11.0 L-0.1 -10.7 -0.35 -8.9 -0.35 -8.0 -0.35 -8.15 Q-0.6 -9.0 -0.6 -9.45 -0.6 -10.0 -0.25 -10.95 L-0.15 -11.35 M-1.0 -9.8 L-1.0 -9.95 Q-0.95 -10.25 -0.85 -10.45 L-0.8 -10.55 -1.0 -9.8" fill="#d9ba8d" fill-rule="evenodd" stroke="none"/>
    <path d="M5.95 -8.0 L5.95 -7.1 Q5.9 -6.5 5.55 -6.25 L5.45 -6.55 Q5.45 -6.75 5.45 -6.85 L5.45 -6.95 5.45 -7.0 5.65 -7.55 5.7 -7.6 Q5.8 -7.85 5.95 -8.0 M4.75 -7.2 L4.8 -6.85 Q4.9 -6.3 4.95 -6.0 5.15 -5.45 5.6 -5.0 L5.55 -5.85 Q5.55 -6.15 6.05 -5.85 L6.55 -5.6 Q6.6 -6.3 6.65 -6.9 6.75 -7.95 7.0 -8.3 L7.15 -8.25 Q7.05 -8.0 7.0 -7.7 6.8 -6.75 6.8 -5.7 6.8 -5.1 6.85 -4.85 L6.9 -4.6 Q6.9 -4.3 6.95 -4.05 L6.85 -4.0 Q6.75 -3.95 6.65 -3.95 L5.6 -4.5 5.55 -4.45 Q4.95 -5.2 4.65 -6.05 4.55 -6.45 4.45 -6.9 L4.55 -7.25 4.55 -7.3 4.75 -7.2 M7.95 -6.75 Q8.0 -7.85 8.3 -8.05 L8.45 -7.2 Q8.7 -7.95 9.2 -8.55 9.4 -8.8 9.6 -8.9 9.75 -8.9 9.85 -8.85 L9.65 -8.6 Q8.7 -7.5 8.7 -6.35 8.65 -5.65 8.8 -5.0 L8.8 -4.95 8.65 -5.05 8.55 -5.15 8.35 -5.5 Q8.3 -5.7 8.3 -5.9 L8.3 -5.8 8.2 -5.85 8.15 -5.95 Q8.0 -6.35 7.95 -6.75 M2.95 -7.1 L2.95 -6.55 Q2.9 -6.35 2.9 -6.25 L2.95 -5.95 2.95 -5.7 Q3.0 -5.3 3.05 -5.15 L3.05 -4.95 Q2.25 -5.2 1.6 -7.25 1.4 -7.85 1.3 -8.4 1.25 -8.95 1.25 -9.5 1.25 -10.2 1.25 -10.4 1.3 -10.8 1.4 -11.2 L1.45 -11.15 1.45 -11.1 1.85 -8.9 Q2.2 -6.95 2.65 -5.75 L2.8 -5.85 2.75 -6.2 Q2.65 -6.85 2.65 -7.15 L2.4 -7.9 Q2.2 -8.7 2.2 -9.25 2.2 -9.45 2.2 -9.35 L2.25 -9.35 Q2.75 -8.25 2.95 -7.25 L2.95 -7.1 M6.05 -4.7 Q6.05 -4.65 6.1 -4.65 L6.05 -4.75 6.05 -4.7 M-0.4 -12.1 L-0.35 -12.15 -0.25 -11.7 -0.15 -11.35 -0.25 -10.95 Q-0.6 -10.0 -0.6 -9.45 -0.6 -9.0 -0.35 -8.15 L-0.35 -8.0 Q-0.3 -7.45 -0.25 -7.35 L-0.35 -7.45 Q-0.55 -7.7 -0.65 -8.05 L-0.8 -8.55 Q-0.95 -9.2 -1.0 -9.8 L-0.8 -10.55 Q-0.75 -10.75 -0.7 -11.1 L-0.65 -11.15 -0.4 -12.1" fill="#806d53" fill-rule="evenodd" stroke="none"/>
  </g>
</svg>
