<?xml version="1.0" encoding="UTF-8" standalone="no"?>
<svg xmlns:ffdec="https://www.free-decompiler.com/flash" xmlns:xlink="http://www.w3.org/1999/xlink" ffdec:objectType="shape" height="12.6px" width="15.2px" xmlns="http://www.w3.org/2000/svg">
  <g transform="matrix(1.0, 0.0, 0.0, 1.0, 6.3, 10.65)">
    <path d="M7.1 -10.1 L7.25 -9.95 7.15 -10.0 Q7.8 -9.8 8.25 -9.4 8.9 -8.75 8.9 -7.95 8.9 -7.7 8.8 -7.4 L8.8 -7.5 8.8 -7.65 8.85 -7.8 8.85 -7.85 8.75 -8.35 8.75 -8.15 Q8.75 -7.5 8.55 -7.1 L8.55 -7.05 Q8.35 -6.7 7.95 -6.45 L7.9 -6.35 7.9 -6.3 7.85 -6.25 7.6 -5.7 7.45 -5.45 7.1 -4.75 6.15 -3.65 Q5.65 -3.05 5.35 -2.45 4.75 -1.35 4.7 -0.5 L4.6 -0.7 Q4.55 -0.85 4.55 -1.0 L4.6 -1.45 Q4.7 -2.2 5.05 -3.2 5.55 -4.55 6.05 -5.05 L6.0 -5.1 6.25 -5.35 Q5.45 -4.95 4.8 -4.15 L3.65 -2.65 Q3.05 -1.85 2.35 -1.25 L2.15 -1.1 1.5 -0.6 Q0.85 -0.15 0.15 0.15 L0.1 0.2 0.0 0.25 -0.05 0.25 0.4 -0.4 0.75 -0.95 1.45 -2.15 Q1.2 -2.1 0.95 -1.95 1.5 -2.8 1.9 -3.4 L1.85 -3.45 1.55 -3.2 1.95 -3.8 Q2.25 -4.2 2.4 -4.6 2.55 -5.0 2.6 -5.35 2.05 -4.15 0.65 -2.8 L0.4 -2.55 -0.45 -1.75 -0.75 -1.5 -1.0 -1.3 Q-2.05 -0.5 -3.2 0.05 L-4.25 0.55 -4.4 0.55 -4.75 0.75 -4.65 -0.2 -4.6 -0.75 Q-4.5 -1.65 -4.35 -2.25 L-4.25 -2.65 Q-3.85 -4.05 -2.95 -5.15 L-2.85 -5.2 Q-2.5 -5.5 -2.4 -5.75 L-2.4 -6.1 -2.55 -6.15 -2.65 -6.1 Q-2.9 -6.0 -3.45 -5.75 -3.95 -5.55 -4.6 -5.5 L-5.25 -5.4 -5.2 -5.45 Q-4.7 -5.7 -4.2 -6.1 -3.8 -6.4 -3.45 -6.75 L-2.0 -8.25 Q-1.1 -9.05 -0.25 -9.45 L-0.1 -9.55 Q0.95 -9.95 2.25 -9.95 L2.95 -10.15 3.6 -10.25 3.65 -10.25 5.35 -10.35 5.45 -10.35 6.35 -10.25 6.35 -10.2 6.55 -10.2 7.05 -10.1 7.1 -10.1" fill="#999999" fill-rule="evenodd" stroke="none"/>
    <path d="M1.55 -3.2 Q0.75 -1.8 -1.15 -0.5 L-1.75 -0.1 -3.4 0.85 -4.3 1.35 -5.05 1.95 Q-5.35 1.55 -5.35 0.35 L-5.35 0.25 -5.3 -0.1 -5.3 -0.2 Q-5.3 -1.0 -5.1 -1.9 L-4.9 -2.8 Q-4.5 -4.05 -4.0 -4.75 -3.75 -5.1 -3.45 -5.35 L-3.75 -5.15 -4.25 -4.95 -6.1 -4.95 -6.25 -5.05 Q-6.3 -5.05 -6.3 -5.25 -5.3 -6.3 -4.15 -7.25 -3.25 -8.0 -2.25 -8.65 L-1.5 -9.15 Q0.1 -10.1 1.3 -10.4 L2.25 -10.55 2.3 -10.55 Q3.15 -10.75 5.15 -10.55 L6.75 -10.35 6.85 -10.45 7.1 -10.3 7.7 -9.9 Q7.5 -10.0 7.3 -10.05 L7.1 -10.1 7.05 -10.1 6.55 -10.2 6.35 -10.2 6.35 -10.25 5.45 -10.35 5.35 -10.35 3.65 -10.25 3.6 -10.25 2.95 -10.15 2.25 -9.95 Q0.95 -9.95 -0.1 -9.55 L-0.25 -9.45 Q-1.1 -9.05 -2.0 -8.25 L-3.45 -6.75 Q-3.8 -6.4 -4.2 -6.1 -4.7 -5.7 -5.2 -5.45 L-5.25 -5.4 -4.6 -5.5 Q-3.95 -5.55 -3.45 -5.75 -2.9 -6.0 -2.65 -6.1 L-2.55 -6.15 -2.4 -6.1 -2.4 -5.75 Q-2.5 -5.5 -2.85 -5.2 L-2.95 -5.15 Q-3.85 -4.05 -4.25 -2.65 L-4.35 -2.25 Q-4.5 -1.65 -4.6 -0.75 L-4.65 -0.2 -4.75 0.75 -4.4 0.55 -4.25 0.55 -3.2 0.05 Q-2.05 -0.5 -1.0 -1.3 L-0.75 -1.5 -0.45 -1.75 0.4 -2.55 0.65 -2.8 Q2.05 -4.15 2.6 -5.35 2.55 -5.0 2.4 -4.6 2.25 -4.2 1.95 -3.8 L1.55 -3.2 M8.8 -7.5 Q8.75 -6.65 8.45 -6.05 L8.3 -5.8 Q8.0 -5.3 7.3 -4.5 L6.2 -2.95 Q5.75 -2.3 5.5 -1.7 4.75 -0.25 4.85 0.7 L4.9 0.75 4.7 0.75 Q4.55 0.75 4.4 0.4 L4.3 -0.1 Q4.2 -0.4 4.2 -0.75 L4.15 -1.0 Q4.15 -1.55 4.7 -3.05 L5.0 -3.75 4.9 -3.6 3.75 -1.95 3.4 -1.55 2.65 -0.85 Q1.35 0.2 -0.7 0.9 L-0.85 0.85 Q-0.9 0.8 -0.9 0.6 -0.75 0.2 -0.45 -0.3 L-0.25 -0.6 Q0.3 -1.55 0.95 -1.95 1.2 -2.1 1.45 -2.15 L0.75 -0.95 0.4 -0.4 -0.05 0.25 0.0 0.25 0.1 0.2 0.15 0.15 Q0.85 -0.15 1.5 -0.6 L2.15 -1.1 2.35 -1.25 Q3.05 -1.85 3.65 -2.65 L4.8 -4.15 Q5.45 -4.95 6.25 -5.35 L6.0 -5.1 6.05 -5.05 Q5.55 -4.55 5.05 -3.2 4.7 -2.2 4.6 -1.45 L4.55 -1.0 Q4.55 -0.85 4.6 -0.7 L4.7 -0.5 Q4.75 -1.35 5.35 -2.45 5.65 -3.05 6.15 -3.65 L7.1 -4.75 7.45 -5.45 7.6 -5.7 7.85 -6.25 7.9 -6.3 7.9 -6.35 7.95 -6.45 Q8.35 -6.7 8.55 -7.05 L8.55 -7.1 Q8.75 -7.5 8.75 -8.15 L8.75 -8.35 8.85 -7.85 8.85 -7.8 8.8 -7.65 8.8 -7.5" fill="#111111" fill-rule="evenodd" stroke="none"/>
  </g>
</svg>
