<?xml version="1.0" encoding="UTF-8" standalone="no"?>
<svg xmlns:ffdec="https://www.free-decompiler.com/flash" xmlns:xlink="http://www.w3.org/1999/xlink" ffdec:objectType="shape" height="10.25px" width="16.4px" xmlns="http://www.w3.org/2000/svg">
  <g transform="matrix(1.0, 0.0, 0.0, 1.0, 6.7, 11.15)">
    <path d="M1.9 -2.7 L1.1 -3.25 Q0.3 -3.85 -0.7 -4.45 -1.4 -4.55 -1.9 -4.75 -2.4 -4.95 -2.7 -5.15 -3.0 -5.15 -3.65 -4.85 -4.2 -4.6 -4.55 -4.7 L-3.7 -5.85 Q-3.0 -6.65 -2.0 -6.7 L-0.8 -6.6 Q-0.55 -6.85 -0.05 -7.0 0.75 -7.2 2.0 -7.0 L2.1 -7.0 Q2.15 -6.95 2.15 -6.75 2.15 -6.55 1.35 -5.9 2.0 -5.6 2.15 -5.3 L6.2 -5.3 Q5.45 -5.1 4.25 -4.45 3.25 -3.9 2.45 -3.2 2.1 -2.9 1.9 -2.7 M4.5 -6.4 L4.45 -6.05 4.3 -6.0 3.95 -5.95 Q3.65 -5.95 3.55 -6.15 L3.55 -6.35 Q3.55 -6.55 3.65 -6.7 L4.4 -6.7 Q4.4 -6.65 4.45 -6.55 L4.5 -6.4 M0.95 -5.35 Q0.95 -5.55 0.9 -5.6 L0.9 -5.65 Q0.5 -5.75 0.1 -5.6 -0.25 -5.4 -0.35 -5.25 L-0.3 -5.1 Q0.0 -4.9 0.35 -4.9 0.6 -4.9 0.8 -5.1 0.95 -5.25 0.95 -5.35 M-1.6 -7.35 Q-1.85 -7.1 -2.0 -7.1 -2.25 -7.1 -2.35 -7.35 L-2.4 -7.65 Q-2.4 -8.0 -1.85 -8.1 -1.35 -8.15 -1.35 -7.75 -1.35 -7.55 -1.6 -7.35" fill="#cc8a28" fill-rule="evenodd" stroke="none"/>
    <path d="M1.9 -2.7 L1.85 -2.65 1.55 -2.7 1.35 -2.7 Q-0.5 -2.95 -0.8 -3.05 L-1.1 -3.25 -1.45 -3.45 -1.5 -3.5 -1.8 -3.7 -1.9 -3.7 -2.0 -3.75 Q-2.2 -3.95 -2.35 -3.95 L-2.8 -3.9 -3.15 -3.75 Q-3.45 -3.6 -3.75 -3.35 -4.05 -3.3 -4.4 -3.1 L-4.8 -2.95 -5.7 -2.35 Q-5.75 -2.55 -5.8 -2.75 -6.0 -3.4 -5.9 -3.95 -5.75 -4.6 -4.75 -5.6 -4.05 -6.3 -3.75 -6.7 -3.6 -7.0 -3.55 -7.15 -3.05 -8.5 -2.3 -9.2 -1.55 -9.85 -0.35 -10.3 L0.65 -10.35 Q1.2 -10.35 1.95 -10.1 L2.15 -10.05 Q2.8 -9.9 3.2 -9.9 L3.35 -9.95 3.75 -9.85 Q4.8 -9.55 5.85 -9.4 L6.8 -8.95 Q7.7 -8.45 8.6 -8.1 L8.85 -8.0 Q8.65 -7.8 8.5 -7.5 L8.35 -7.2 7.9 -6.55 7.55 -6.15 6.95 -5.3 6.2 -5.3 2.15 -5.3 Q2.0 -5.6 1.35 -5.9 2.15 -6.55 2.15 -6.75 2.15 -6.95 2.1 -7.0 L2.0 -7.0 Q0.75 -7.2 -0.05 -7.0 -0.55 -6.85 -0.8 -6.6 L-2.0 -6.7 Q-3.0 -6.65 -3.7 -5.85 L-4.55 -4.7 Q-4.2 -4.6 -3.65 -4.85 -3.0 -5.15 -2.7 -5.15 -2.4 -4.95 -1.9 -4.75 -1.4 -4.55 -0.7 -4.45 0.3 -3.85 1.1 -3.25 L1.9 -2.7 M4.5 -6.4 L4.45 -6.55 Q4.4 -6.65 4.4 -6.7 L3.65 -6.7 Q3.55 -6.55 3.55 -6.35 L3.55 -6.15 Q3.65 -5.95 3.95 -5.95 L4.3 -6.0 4.45 -6.05 4.5 -6.4 M0.95 -5.35 Q0.95 -5.25 0.8 -5.1 0.6 -4.9 0.35 -4.9 0.0 -4.9 -0.3 -5.1 L-0.35 -5.25 Q-0.25 -5.4 0.1 -5.6 0.5 -5.75 0.9 -5.65 L0.9 -5.6 Q0.95 -5.55 0.95 -5.35 M-1.6 -7.35 Q-1.35 -7.55 -1.35 -7.75 -1.35 -8.15 -1.85 -8.1 -2.4 -8.0 -2.4 -7.65 L-2.35 -7.35 Q-2.25 -7.1 -2.0 -7.1 -1.85 -7.1 -1.6 -7.35" fill="#805619" fill-rule="evenodd" stroke="none"/>
    <path d="M6.2 -5.3 L6.95 -5.3 7.55 -6.15 7.9 -6.55 8.35 -7.2 8.5 -7.5 Q8.65 -7.8 8.85 -8.0 L8.6 -8.1 Q7.7 -8.45 6.8 -8.95 L5.85 -9.4 Q4.8 -9.55 3.75 -9.85 L3.35 -9.95 3.2 -9.9 Q2.8 -9.9 2.15 -10.05 L1.95 -10.1 Q1.2 -10.35 0.65 -10.35 L-0.35 -10.3 Q-1.55 -9.85 -2.3 -9.2 -3.05 -8.5 -3.55 -7.15 -3.6 -7.0 -3.75 -6.7 -4.05 -6.3 -4.75 -5.6 -5.75 -4.6 -5.9 -3.95 -6.0 -3.4 -5.8 -2.75 -5.75 -2.55 -5.7 -2.35 L-4.8 -2.95 -4.4 -3.1 Q-4.05 -3.3 -3.75 -3.35 -3.45 -3.6 -3.15 -3.75 L-2.8 -3.9 -2.35 -3.95 Q-2.2 -3.95 -2.0 -3.75 L-1.9 -3.7 -1.8 -3.7 -1.5 -3.5 -1.45 -3.45 -1.1 -3.25 -0.8 -3.05 Q-0.5 -2.95 1.35 -2.7 L1.55 -2.7 1.85 -2.65 1.9 -2.7 Q2.1 -2.9 2.45 -3.2 3.25 -3.9 4.25 -4.45 5.45 -5.1 6.2 -5.3 M9.5 -8.35 L9.6 -8.55 9.6 -8.2 Q9.9 -7.65 9.4 -6.85 L8.95 -6.3 8.95 -6.25 Q8.5 -5.9 8.0 -5.35 5.75 -4.85 4.2 -3.85 3.05 -3.1 2.45 -2.15 L1.9 -1.75 1.8 -1.7 1.65 -1.8 Q0.85 -2.3 0.15 -2.3 L-0.25 -2.3 Q-0.6 -2.55 -1.0 -2.75 -1.75 -3.1 -2.35 -3.0 L-2.55 -2.95 -2.65 -3.0 Q-3.2 -2.8 -3.75 -2.3 -4.2 -2.2 -4.7 -1.9 L-5.45 -1.3 Q-5.85 -0.95 -6.25 -0.9 L-6.3 -0.95 -6.4 -0.95 -6.7 -3.55 Q-6.6 -4.4 -6.45 -5.3 L-5.8 -5.95 Q-5.1 -6.4 -4.4 -7.4 L-3.95 -8.05 -3.8 -8.1 -3.6 -8.3 -3.75 -8.2 -3.85 -8.2 -3.75 -8.4 -3.3 -9.5 -3.2 -9.6 -3.25 -9.65 -2.9 -10.6 -2.8 -10.7 Q-2.3 -11.05 -1.75 -11.05 L-1.35 -11.05 Q-0.7 -11.2 0.7 -11.05 L0.85 -11.1 Q2.7 -11.25 4.35 -10.8 L4.8 -10.6 4.9 -10.6 Q6.3 -10.05 7.65 -9.45 8.55 -9.0 9.45 -8.45 L9.45 -8.4 9.5 -8.35" fill="#111111" fill-rule="evenodd" stroke="none"/>
  </g>
</svg>
