<?xml version="1.0" encoding="UTF-8" standalone="no"?>
<svg xmlns:ffdec="https://www.free-decompiler.com/flash" xmlns:xlink="http://www.w3.org/1999/xlink" ffdec:objectType="shape" height="15.65px" width="19.9px" xmlns="http://www.w3.org/2000/svg">
  <g transform="matrix(1.0, 0.0, 0.0, 1.0, 9.45, 13.75)">
    <path d="M-3.9 -0.8 L-4.1 -1.25 Q-4.25 -1.6 -4.25 -2.8 L-4.25 -3.4 -4.4 -3.4 -4.45 -3.05 -4.45 -2.35 Q-4.45 -1.3 -4.1 -0.45 L-4.1 -0.4 Q-3.95 -0.05 -3.7 0.3 -3.5 0.65 -3.2 0.95 L-3.8 0.7 Q-4.25 0.5 -4.6 0.25 -5.55 -0.35 -6.05 -1.25 -6.6 -2.35 -6.6 -4.1 L-6.4 -6.0 Q-6.4 -6.15 -6.45 -6.3 -6.55 -5.7 -6.8 -5.1 -7.45 -3.25 -8.55 -2.85 L-8.6 -2.85 -8.65 -2.8 -8.65 -2.85 Q-8.5 -3.65 -8.35 -5.45 L-8.25 -6.45 -8.05 -7.65 Q-7.8 -8.65 -7.4 -9.5 -6.45 -11.15 -4.4 -12.3 L-4.15 -12.45 Q-2.35 -13.15 -1.25 -13.15 L-0.55 -13.15 Q0.25 -13.1 0.8 -12.9 1.6 -12.65 2.35 -12.0 3.05 -11.45 4.1 -10.2 L5.65 -8.3 6.05 -7.5 Q6.5 -6.75 6.9 -6.25 8.0 -4.65 9.5 -4.05 L8.9 -4.0 Q7.95 -4.05 6.9 -4.4 5.9 -4.7 5.55 -4.7 5.15 -4.7 5.1 -4.6 5.05 -4.55 5.05 -4.45 5.45 -4.05 7.45 -2.8 9.1 -1.55 9.25 -0.6 8.5 -1.0 7.05 -1.5 4.7 -2.35 4.3 -2.3 4.5 -1.7 5.55 -0.9 L6.35 -0.35 Q3.55 -0.55 2.6 -1.3 2.35 -1.55 2.0 -2.05 L1.75 -2.35 1.4 -2.65 Q1.3 -2.65 1.3 -2.5 L1.55 -1.9 1.65 -1.8 Q1.5 -1.25 1.5 -0.9 1.5 -0.6 1.8 0.35 L1.95 0.95 1.95 0.8 2.25 1.2 2.7 1.85 Q2.45 1.85 2.15 1.5 L2.15 1.6 2.0 1.5 1.3 0.95 0.8 0.4 0.65 0.3 Q-0.05 -0.2 -0.5 -0.8 L-0.55 -0.9 -0.7 -1.1 -0.75 -1.2 Q-1.25 -2.0 -1.4 -3.2 L-1.45 -3.4 -1.6 -3.4 -1.65 -3.0 -1.65 -2.65 -1.6 -2.45 -1.4 -1.9 Q-1.1 -1.05 -0.65 -0.35 L-0.2 0.2 Q0.05 0.85 0.3 1.3 L0.25 1.4 0.2 1.45 -0.3 1.2 Q-1.8 0.35 -2.55 -0.85 -2.85 -1.45 -3.3 -2.85 L-3.4 -3.35 -3.5 -3.35 Q-3.65 -2.8 -3.65 -2.5 L-3.6 -2.2 Q-3.9 -1.5 -3.9 -0.85 L-3.9 -0.8 M2.05 1.8 L1.95 1.8 Q1.8 1.8 1.65 1.65 L2.05 1.8" fill="#999999" fill-rule="evenodd" stroke="none"/>
    <path d="M1.65 -1.8 L1.55 -1.9 1.3 -2.5 Q1.3 -2.65 1.4 -2.65 L1.75 -2.35 2.0 -2.05 Q2.35 -1.55 2.6 -1.3 3.55 -0.55 6.35 -0.35 L5.55 -0.9 Q4.5 -1.7 4.3 -2.3 4.7 -2.35 7.05 -1.5 8.5 -1.0 9.25 -0.6 9.1 -1.55 7.45 -2.8 5.45 -4.05 5.05 -4.45 5.05 -4.55 5.1 -4.6 5.15 -4.7 5.55 -4.7 5.9 -4.7 6.9 -4.4 7.95 -4.05 8.9 -4.0 L9.5 -4.05 Q8.0 -4.65 6.9 -6.25 6.5 -6.75 6.05 -7.5 L5.65 -8.3 4.1 -10.2 Q3.05 -11.45 2.35 -12.0 1.6 -12.65 0.8 -12.9 0.25 -13.1 -0.55 -13.15 L-1.25 -13.15 Q-2.35 -13.15 -4.15 -12.45 L-4.4 -12.3 Q-6.45 -11.15 -7.4 -9.5 -7.8 -8.65 -8.05 -7.65 L-8.25 -6.45 -8.35 -5.45 Q-8.5 -3.65 -8.65 -2.85 L-8.65 -2.8 -8.6 -2.85 -8.55 -2.85 Q-7.45 -3.25 -6.8 -5.1 -6.55 -5.7 -6.45 -6.3 -6.4 -6.15 -6.4 -6.0 L-6.6 -4.1 Q-6.6 -2.35 -6.05 -1.25 -5.55 -0.35 -4.6 0.25 -4.25 0.5 -3.8 0.7 L-3.2 0.95 Q-3.5 0.65 -3.7 0.3 -3.95 -0.05 -4.1 -0.4 L-4.1 -0.45 Q-4.45 -1.3 -4.45 -2.35 L-4.45 -3.05 -4.4 -3.4 -4.25 -3.4 -4.25 -2.8 Q-4.25 -1.6 -4.1 -1.25 L-3.9 -0.8 -2.85 1.3 -3.1 1.35 Q-5.4 0.85 -6.45 -0.85 -7.25 -2.15 -7.15 -3.65 L-8.0 -2.5 Q-8.7 -1.6 -9.2 -1.6 L-9.4 -1.65 -9.45 -1.7 -9.3 -2.3 -9.3 -2.7 Q-9.3 -5.9 -8.4 -8.55 -7.5 -11.25 -5.85 -12.25 -5.6 -12.5 -4.95 -12.8 -3.8 -13.35 -2.4 -13.6 -0.7 -13.9 0.65 -13.6 L1.15 -13.5 Q2.2 -13.3 2.7 -12.7 3.7 -12.15 4.3 -11.3 4.65 -10.8 5.25 -9.75 L6.3 -8.25 7.35 -6.7 Q7.95 -5.85 9.25 -4.8 9.9 -4.3 10.45 -3.95 10.45 -3.7 10.2 -3.65 L8.45 -3.55 Q8.15 -3.55 6.7 -3.85 L6.65 -3.85 Q8.1 -3.15 9.0 -1.95 9.6 -1.2 9.85 -0.25 L9.9 -0.2 9.85 -0.2 9.45 -0.15 Q9.3 -0.15 7.6 -0.9 L5.25 -1.9 5.05 -2.0 Q5.15 -1.65 6.1 -1.05 L7.3 -0.35 7.3 -0.3 7.35 -0.3 Q7.35 -0.25 7.5 -0.2 L7.6 -0.1 7.3 0.0 6.8 0.1 Q3.65 0.1 2.2 -1.15 1.85 -1.45 1.65 -1.8 M-3.6 -2.2 L-3.65 -2.5 Q-3.65 -2.8 -3.5 -3.35 L-3.4 -3.35 -3.3 -2.85 Q-2.85 -1.45 -2.55 -0.85 -1.8 0.35 -0.3 1.2 L0.2 1.45 0.5 1.6 Q-1.1 1.35 -2.4 -0.15 -3.45 -1.25 -3.6 -2.2 M-0.2 0.2 L-0.65 -0.35 Q-1.1 -1.05 -1.4 -1.9 L-1.6 -2.45 -1.65 -2.65 -1.65 -3.0 -1.6 -3.4 -1.45 -3.4 -1.4 -3.2 Q-1.25 -2.0 -0.75 -1.2 L-0.7 -1.1 -0.55 -0.9 -0.5 -0.8 Q-0.05 -0.2 0.65 0.3 L0.8 0.4 1.3 0.95 2.0 1.5 2.15 1.6 2.65 1.9 Q1.0 1.7 -0.2 0.2 M7.7 -0.75 L7.6 -0.75 7.9 -0.7 7.7 -0.75" fill="#111111" fill-rule="evenodd" stroke="none"/>
  </g>
</svg>
