<?xml version="1.0" encoding="UTF-8" standalone="no"?>
<svg xmlns:ffdec="https://www.free-decompiler.com/flash" xmlns:xlink="http://www.w3.org/1999/xlink" ffdec:objectType="shape" height="21.0px" width="22.95px" xmlns="http://www.w3.org/2000/svg">
  <g transform="matrix(1.0, 0.0, 0.0, 1.0, 14.1, 25.75)">
    <path d="M5.35 -22.65 Q5.65 -22.8 6.0 -22.8 6.9 -22.8 7.5 -22.35 L7.3 -21.35 Q7.0 -19.95 6.45 -19.35 5.4 -18.1 4.2 -17.1 2.95 -16.05 1.45 -15.15 0.5 -14.6 -0.15 -14.1 -0.95 -13.45 -1.05 -13.05 -1.3 -12.4 -1.8 -11.85 L-1.8 -11.8 Q-2.2 -11.4 -2.25 -11.25 L-2.45 -11.2 -2.5 -11.2 -2.4 -11.3 -2.3 -11.35 -2.7 -11.25 -2.95 -11.2 -3.15 -11.15 -3.1 -11.35 -3.0 -11.6 Q-2.6 -12.55 -2.15 -12.75 L-1.7 -12.8 -1.45 -13.4 Q-1.25 -13.95 -1.25 -14.2 L-1.25 -14.45 Q-0.9 -15.0 -0.9 -15.35 -0.9 -15.55 -0.9 -15.5 L-0.95 -15.45 Q-1.85 -14.5 -2.95 -13.65 L-4.2 -12.6 -4.35 -13.3 -4.5 -13.3 -4.5 -13.25 Q-4.6 -13.85 -5.5 -13.9 -5.9 -13.9 -6.2 -13.75 -6.0 -14.0 -6.0 -14.1 -6.0 -14.6 -5.65 -15.05 L-4.6 -16.15 Q-5.45 -16.25 -6.3 -15.15 L-6.35 -15.1 Q-6.65 -15.0 -6.85 -14.55 L-6.9 -14.45 -7.1 -14.4 Q-7.45 -14.25 -7.65 -14.05 L-7.7 -14.2 -7.85 -14.45 -7.9 -14.45 Q-7.75 -14.5 -7.6 -14.6 -7.9 -14.7 -8.2 -14.85 L-8.05 -14.85 -7.75 -15.4 -7.5 -15.95 -7.45 -16.05 Q-7.1 -16.85 -6.95 -16.9 L-6.6 -17.15 -6.45 -17.25 -6.15 -17.55 Q-5.7 -18.0 -4.95 -18.3 L-4.65 -18.45 Q-4.45 -18.9 -4.15 -19.4 -3.5 -20.65 -2.5 -21.5 -2.2 -21.75 -1.9 -21.95 -2.4 -22.05 -3.5 -20.7 L-3.65 -20.5 -3.65 -20.55 Q-3.95 -20.2 -4.25 -19.85 L-4.15 -20.35 Q-3.95 -21.8 -3.85 -22.05 -3.55 -22.9 -2.95 -23.45 L-2.8 -23.55 Q-1.25 -24.55 1.75 -24.65 L2.15 -24.3 Q2.9 -23.65 2.9 -23.15 2.9 -22.55 2.35 -20.8 1.8 -19.05 1.8 -18.8 1.8 -18.65 1.85 -18.6 L0.95 -17.7 Q0.15 -16.75 -0.1 -16.3 0.75 -16.7 2.2 -17.95 4.0 -19.5 4.35 -20.6 4.6 -21.55 5.35 -22.65 M-1.35 -7.25 Q-1.2 -8.2 -1.75 -8.4 L-1.8 -8.45 -2.3 -8.45 Q-2.8 -8.45 -3.4 -8.1 -4.25 -7.7 -4.95 -7.0 L-4.9 -7.1 -4.9 -7.15 -4.85 -7.2 -4.8 -7.35 Q-4.55 -8.05 -3.85 -8.65 -3.25 -9.15 -2.55 -9.5 -2.4 -9.5 -2.2 -9.6 L-1.85 -9.7 -1.2 -9.8 -0.95 -9.8 -0.7 -9.85 -0.25 -9.45 0.0 -9.2 0.0 -9.15 Q0.15 -8.95 0.2 -8.75 L0.3 -8.55 0.0 -8.15 -0.1 -7.95 Q-0.65 -7.75 -1.35 -7.25 M-8.15 -18.0 Q-7.95 -17.95 -7.85 -17.85 L-7.75 -17.85 Q-8.05 -17.6 -8.1 -17.3 -8.15 -17.15 -8.1 -16.85 -8.05 -16.5 -8.05 -16.35 -8.15 -15.95 -8.4 -15.55 L-8.45 -15.45 -8.5 -15.55 Q-8.65 -15.7 -9.15 -15.8 L-9.95 -15.9 -10.45 -15.9 Q-10.65 -15.9 -10.7 -16.15 L-10.7 -16.25 Q-10.65 -16.35 -10.7 -16.45 L-10.7 -16.6 -10.15 -17.55 Q-9.45 -18.45 -8.8 -18.3 -8.65 -18.3 -8.15 -18.0 M-9.85 -12.15 L-9.9 -12.25 Q-10.0 -12.45 -10.3 -12.45 -10.8 -12.55 -11.65 -12.25 L-11.75 -12.2 Q-11.8 -12.3 -11.75 -12.5 L-11.65 -12.8 -12.0 -12.6 -11.95 -12.65 -11.15 -13.5 Q-10.25 -14.4 -9.7 -14.55 L-9.55 -14.55 Q-9.15 -14.7 -8.7 -14.65 -8.25 -14.55 -8.0 -14.3 L-7.9 -14.15 Q-7.75 -14.05 -7.7 -13.85 -7.65 -13.7 -7.65 -13.55 -8.3 -13.2 -9.15 -12.65 L-9.85 -12.15 M-5.6 -10.45 Q-5.75 -10.65 -5.95 -10.75 -6.25 -10.9 -6.55 -10.8 L-6.65 -10.8 Q-7.0 -10.65 -7.35 -10.25 L-7.4 -10.25 -7.4 -10.15 -7.45 -10.15 -7.45 -10.1 -7.55 -10.05 -7.55 -10.0 -7.65 -9.9 -8.0 -9.4 -8.05 -9.4 Q-8.1 -9.8 -8.05 -10.2 L-8.05 -10.3 -8.3 -9.95 Q-8.25 -10.3 -8.1 -10.65 L-8.1 -10.7 -8.0 -11.05 Q-7.65 -11.85 -7.0 -12.5 L-6.9 -12.6 -6.65 -12.8 -6.55 -12.8 Q-6.4 -12.95 -6.15 -13.1 L-5.4 -13.05 -4.95 -13.1 Q-4.3 -12.95 -4.25 -12.2 L-4.55 -11.85 Q-5.15 -11.2 -5.6 -10.45" fill="#8c1c1c" fill-rule="evenodd" stroke="none"/>
    <path d="M4.3 -24.15 Q4.75 -23.6 5.0 -22.8 4.85 -22.6 4.75 -22.35 L4.6 -21.9 4.55 -21.85 4.65 -21.85 4.8 -22.1 5.0 -22.4 5.05 -22.45 5.1 -22.45 5.3 -22.65 5.35 -22.65 Q4.6 -21.55 4.35 -20.6 4.0 -19.5 2.2 -17.95 0.75 -16.7 -0.1 -16.3 0.15 -16.75 0.95 -17.7 L1.85 -18.6 Q1.8 -18.65 1.8 -18.8 1.8 -19.05 2.35 -20.8 2.9 -22.55 2.9 -23.15 2.9 -23.65 2.15 -24.3 L1.75 -24.65 2.5 -24.65 Q2.7 -24.6 3.0 -24.5 L3.5 -24.2 3.5 -24.15 3.55 -24.15 3.7 -24.05 4.05 -23.7 4.3 -23.5 Q4.5 -23.55 4.5 -23.6 L4.45 -23.65 4.35 -24.0 4.3 -24.15 M7.5 -22.35 L7.65 -22.25 Q8.1 -21.85 8.1 -21.6 8.1 -21.45 7.65 -20.0 7.2 -18.5 7.15 -18.1 7.1 -17.85 6.9 -17.5 6.6 -17.05 6.25 -16.75 L6.1 -16.4 Q6.0 -16.0 5.15 -15.4 L3.35 -14.35 Q2.9 -14.05 2.55 -13.8 L2.5 -13.7 2.45 -13.65 2.3 -13.55 2.25 -13.55 2.2 -13.5 1.95 -13.4 1.15 -12.8 0.9 -12.6 0.7 -12.35 0.6 -12.25 0.25 -11.85 0.15 -10.75 0.3 -10.55 Q0.3 -10.05 0.35 -9.7 L0.35 -9.05 0.3 -9.1 0.3 -9.2 0.1 -9.4 0.05 -9.5 0.0 -9.55 -0.1 -9.75 Q-0.3 -10.05 -0.55 -10.25 -0.75 -10.7 -1.4 -10.65 L-1.45 -10.65 -1.2 -10.8 Q-1.25 -10.8 -1.25 -10.85 L-2.1 -10.4 -2.45 -10.4 Q-3.6 -9.95 -4.65 -9.2 -4.25 -9.95 -3.8 -10.6 L-4.0 -10.6 -3.95 -10.9 Q-3.95 -11.3 -4.1 -12.15 L-4.2 -12.6 -2.95 -13.65 Q-1.85 -14.5 -0.95 -15.45 L-0.9 -15.5 Q-0.9 -15.55 -0.9 -15.35 -0.9 -15.0 -1.25 -14.45 L-1.4 -14.65 Q-2.35 -13.3 -2.85 -12.45 -3.4 -11.5 -3.7 -10.7 L-3.75 -10.65 -3.5 -10.75 -3.05 -11.6 -3.0 -11.6 -3.1 -11.35 -3.15 -11.15 -2.95 -11.2 -2.7 -11.25 -2.3 -11.35 -2.4 -11.3 -2.5 -11.2 -2.45 -11.2 -2.25 -11.25 Q-2.2 -11.4 -1.8 -11.8 L-1.8 -11.85 Q-1.3 -12.4 -1.05 -13.05 -0.95 -13.45 -0.15 -14.1 0.5 -14.6 1.45 -15.15 2.95 -16.05 4.2 -17.1 5.4 -18.1 6.45 -19.35 7.0 -19.95 7.3 -21.35 L7.5 -22.35 M-6.9 -14.45 L-6.8 -14.3 -7.15 -13.65 -7.3 -13.25 -7.45 -13.2 -7.45 -13.25 -7.5 -13.45 -7.45 -13.5 Q-7.5 -13.65 -7.7 -13.95 L-7.55 -13.95 -7.65 -14.05 Q-7.45 -14.25 -7.1 -14.4 L-6.9 -14.45 M3.85 -20.8 L3.85 -20.85 Q4.45 -21.45 4.55 -21.7 4.15 -21.5 3.7 -21.0 L3.5 -20.75 3.2 -20.35 3.05 -20.1 3.0 -20.05 3.15 -20.05 Q3.2 -20.15 3.45 -20.4 L3.85 -20.8 M-1.35 -7.25 Q-0.65 -7.75 -0.1 -7.95 L-1.1 -6.5 -1.3 -6.4 -1.8 -6.05 Q-2.1 -5.9 -2.45 -5.8 L-2.85 -5.6 -3.35 -5.6 Q-3.1 -5.7 -2.75 -5.85 -1.65 -6.4 -1.55 -6.8 L-1.5 -6.95 Q-1.45 -7.05 -1.4 -7.1 L-1.35 -7.25 M-9.85 -12.15 L-9.15 -12.65 Q-8.3 -13.2 -7.65 -13.55 L-7.7 -13.2 -7.95 -12.9 -8.0 -12.75 Q-8.05 -12.45 -8.2 -12.3 L-8.2 -12.25 -8.35 -11.95 -8.45 -11.6 Q-8.65 -11.5 -8.8 -11.25 -9.2 -10.6 -9.5 -10.5 L-11.1 -9.95 -11.25 -9.85 -10.85 -10.3 -10.55 -10.65 -10.6 -10.75 -10.35 -11.1 -10.15 -11.3 -9.85 -11.75 Q-9.8 -12.0 -9.85 -12.15 M-4.25 -12.2 L-4.25 -11.8 -4.3 -11.25 -4.35 -11.4 -4.55 -10.5 -4.55 -10.45 -4.6 -10.15 -4.7 -9.75 -5.0 -9.0 -5.3 -8.75 -5.15 -8.75 -5.25 -8.7 Q-5.45 -8.55 -5.8 -8.45 L-5.85 -8.4 -5.7 -8.65 Q-5.3 -9.35 -5.25 -9.6 L-5.25 -9.7 Q-5.35 -10.15 -5.6 -10.45 -5.15 -11.2 -4.55 -11.85 L-4.25 -12.2 M-8.8 -11.45 L-8.8 -11.45" fill="#4d0f0f" fill-rule="evenodd" stroke="none"/>
    <path d="M-11.15 -17.25 Q-11.1 -17.2 -11.1 -17.05 L-11.15 -16.8 -11.15 -16.75 -11.3 -16.3 -11.3 -16.15 Q-11.75 -16.0 -12.25 -15.6 L-12.85 -15.0 -12.95 -15.05 -12.9 -15.55 -12.9 -15.75 Q-12.9 -15.85 -12.85 -16.1 -12.75 -16.5 -12.4 -16.85 -11.95 -17.25 -11.2 -17.25 L-11.15 -17.25 M-13.25 -9.0 L-13.25 -9.1 Q-13.1 -9.95 -12.75 -10.55 -12.1 -11.65 -11.05 -11.55 L-10.85 -11.55 -10.85 -11.5 Q-10.85 -11.45 -10.8 -11.35 L-10.8 -11.1 -11.0 -10.9 Q-11.15 -10.6 -11.5 -10.35 -11.7 -10.1 -12.15 -9.8 L-13.2 -9.05 -13.25 -9.05 -13.25 -9.0 M-2.5 -7.6 L-1.85 -7.85 -1.85 -7.5 Q-2.4 -6.85 -3.1 -6.4 L-3.4 -6.3 -5.1 -5.7 -5.05 -5.8 -4.9 -5.8 Q-4.8 -6.15 -4.55 -6.5 -4.15 -7.05 -3.45 -7.3 L-2.5 -7.6 M-6.2 -9.8 L-6.15 -9.75 -6.2 -9.7 Q-6.15 -9.6 -6.1 -9.45 L-6.1 -9.4 Q-6.05 -9.15 -6.4 -8.7 L-6.7 -8.35 -6.8 -8.2 -6.95 -8.0 -7.3 -7.65 -7.5 -7.55 Q-8.0 -7.3 -8.2 -7.25 L-8.25 -7.35 -8.2 -7.95 -8.15 -8.25 -7.9 -8.55 -7.45 -9.15 -7.45 -9.2 Q-7.25 -9.4 -6.55 -9.85 -6.45 -9.9 -6.35 -9.95 L-6.3 -9.95 -6.2 -9.8" fill="#666666" fill-rule="evenodd" stroke="none"/>
    <path d="M5.0 -22.8 L5.3 -23.15 Q6.15 -23.95 7.75 -23.4 8.1 -23.3 8.4 -22.7 L8.4 -22.9 8.7 -22.15 8.65 -21.95 Q8.85 -21.3 8.85 -20.8 8.85 -20.25 8.5 -19.25 8.15 -18.2 7.6 -17.2 6.6 -15.3 5.55 -14.75 5.15 -14.3 3.05 -12.75 L2.85 -12.6 2.65 -12.65 2.85 -12.55 Q1.85 -11.95 1.3 -11.55 L1.3 -11.5 1.2 -11.0 Q1.15 -10.0 1.0 -9.1 L0.95 -8.75 0.85 -8.35 Q0.45 -6.55 -0.4 -6.05 -0.5 -5.9 -0.7 -5.65 -1.2 -5.15 -1.7 -5.15 L-1.75 -5.15 -2.55 -4.8 -3.25 -4.8 Q-4.0 -4.75 -4.75 -4.95 L-4.85 -5.0 -4.9 -5.05 -5.05 -5.0 -5.25 -5.05 -5.95 -5.15 Q-5.85 -5.35 -5.85 -5.55 -5.7 -5.75 -5.65 -5.95 -5.6 -6.15 -5.65 -6.25 L-5.65 -6.3 -5.6 -6.45 -5.65 -6.7 -5.65 -6.75 -5.6 -7.0 -5.65 -7.15 -5.6 -7.35 -5.5 -7.65 Q-5.75 -7.55 -6.0 -7.5 L-6.6 -7.4 Q-6.8 -7.25 -7.1 -6.95 -7.7 -6.5 -8.1 -6.4 -8.6 -6.3 -8.65 -6.55 -8.7 -6.7 -8.65 -6.9 -8.65 -7.0 -8.85 -7.3 L-8.95 -7.5 Q-9.05 -7.9 -9.1 -8.6 L-9.15 -9.35 -8.85 -10.05 -9.05 -9.85 Q-10.2 -8.9 -11.2 -8.85 L-11.25 -8.8 -11.7 -8.75 Q-12.0 -8.6 -12.35 -8.4 -13.55 -7.85 -13.75 -7.8 -14.1 -8.05 -14.1 -8.6 L-13.95 -9.4 -13.85 -9.7 Q-13.95 -10.05 -13.9 -10.3 -13.85 -10.55 -13.65 -10.8 -13.65 -11.15 -13.55 -11.45 L-13.35 -11.95 Q-13.1 -12.5 -12.85 -12.95 -12.6 -13.3 -12.4 -13.55 -12.0 -14.15 -11.5 -14.65 L-11.0 -15.0 Q-11.15 -15.05 -11.25 -15.25 L-11.3 -15.3 Q-11.5 -15.15 -11.9 -15.05 L-11.95 -15.05 -12.4 -14.8 -12.5 -14.55 Q-12.55 -14.4 -12.7 -14.25 -12.9 -14.1 -13.05 -14.15 -13.6 -14.25 -13.6 -15.2 -13.55 -15.65 -13.45 -16.1 -13.3 -16.85 -12.65 -17.45 -11.9 -18.15 -10.7 -17.95 L-10.3 -18.3 Q-9.35 -19.05 -7.8 -18.7 -7.1 -18.55 -6.25 -18.6 L-6.15 -18.6 -5.85 -19.0 Q-5.4 -19.6 -5.15 -20.1 -5.1 -20.7 -5.05 -21.1 -4.95 -21.55 -4.8 -21.9 L-4.75 -22.45 Q-4.6 -23.25 -3.6 -23.65 L-1.35 -24.6 Q-0.2 -25.1 0.8 -25.45 2.9 -26.15 3.75 -25.25 4.05 -24.95 4.25 -24.4 L4.3 -24.15 4.35 -24.0 4.45 -23.65 4.5 -23.6 Q4.5 -23.55 4.3 -23.5 L4.05 -23.7 3.7 -24.05 3.55 -24.15 3.5 -24.15 3.5 -24.2 3.0 -24.5 Q2.7 -24.6 2.5 -24.65 L1.75 -24.65 Q-1.25 -24.55 -2.8 -23.55 L-2.95 -23.45 Q-3.55 -22.9 -3.85 -22.05 -3.95 -21.8 -4.15 -20.35 L-4.25 -19.85 Q-3.95 -20.2 -3.65 -20.55 L-3.65 -20.5 -3.5 -20.7 Q-2.4 -22.05 -1.9 -21.95 -2.2 -21.75 -2.5 -21.5 -3.5 -20.65 -4.15 -19.4 -4.45 -18.9 -4.65 -18.45 L-4.95 -18.3 Q-5.7 -18.0 -6.15 -17.55 L-6.45 -17.25 -6.6 -17.15 -6.95 -16.9 Q-7.1 -16.85 -7.45 -16.05 L-7.5 -15.95 -7.75 -15.4 -8.05 -14.85 -8.2 -14.85 Q-7.9 -14.7 -7.6 -14.6 -7.75 -14.5 -7.9 -14.45 L-7.85 -14.45 -7.7 -14.2 -7.65 -14.05 -7.55 -13.95 -7.7 -13.95 Q-7.5 -13.65 -7.45 -13.5 L-7.5 -13.45 -7.45 -13.25 -7.45 -13.2 -7.3 -13.25 -7.15 -13.65 -6.8 -14.3 -6.9 -14.45 -6.85 -14.55 Q-6.65 -15.0 -6.35 -15.1 L-6.3 -15.15 Q-5.45 -16.25 -4.6 -16.15 L-5.65 -15.05 Q-6.0 -14.6 -6.0 -14.1 -6.0 -14.0 -6.2 -13.75 -5.9 -13.9 -5.5 -13.9 -4.6 -13.85 -4.5 -13.25 L-4.5 -13.3 -4.35 -13.3 -4.2 -12.6 -4.1 -12.15 Q-3.95 -11.3 -3.95 -10.9 L-4.0 -10.6 -3.8 -10.6 Q-4.25 -9.95 -4.65 -9.2 -3.6 -9.95 -2.45 -10.4 L-2.1 -10.4 -1.25 -10.85 Q-1.25 -10.8 -1.2 -10.8 L-1.45 -10.65 -1.4 -10.65 Q-0.75 -10.7 -0.55 -10.25 -0.3 -10.05 -0.1 -9.75 L0.0 -9.55 0.05 -9.5 0.1 -9.4 0.3 -9.2 0.3 -9.1 0.35 -9.05 0.35 -9.7 Q0.3 -10.05 0.3 -10.55 L0.15 -10.75 0.25 -11.85 0.6 -12.25 0.7 -12.35 0.9 -12.6 1.15 -12.8 1.95 -13.4 2.2 -13.5 2.25 -13.55 2.3 -13.55 2.45 -13.65 2.5 -13.7 2.55 -13.8 Q2.9 -14.05 3.35 -14.35 L5.15 -15.4 Q6.0 -16.0 6.1 -16.4 L6.25 -16.75 Q6.6 -17.05 6.9 -17.5 7.1 -17.85 7.15 -18.1 7.2 -18.5 7.65 -20.0 8.1 -21.45 8.1 -21.6 8.1 -21.85 7.65 -22.25 L7.5 -22.35 Q6.9 -22.8 6.0 -22.8 5.65 -22.8 5.35 -22.65 L5.3 -22.65 5.1 -22.45 5.05 -22.45 5.0 -22.4 4.8 -22.1 4.65 -21.85 4.55 -21.85 4.6 -21.9 4.75 -22.35 Q4.85 -22.6 5.0 -22.8 M-3.0 -11.6 L-3.05 -11.6 -3.5 -10.75 -3.75 -10.65 -3.7 -10.7 Q-3.4 -11.5 -2.85 -12.45 -2.35 -13.3 -1.4 -14.65 L-1.25 -14.45 -1.25 -14.2 Q-1.25 -13.95 -1.45 -13.4 L-1.7 -12.8 -2.15 -12.75 Q-2.6 -12.55 -3.0 -11.6 M3.85 -20.8 L3.45 -20.4 Q3.2 -20.15 3.15 -20.05 L3.0 -20.05 3.05 -20.1 3.2 -20.35 3.5 -20.75 3.7 -21.0 Q4.15 -21.5 4.55 -21.7 4.45 -21.45 3.85 -20.85 L3.85 -20.8 M-0.1 -7.95 L0.0 -8.15 0.3 -8.55 0.2 -8.75 Q0.15 -8.95 0.0 -9.15 L0.0 -9.2 -0.25 -9.45 -0.7 -9.85 -0.95 -9.8 -1.2 -9.8 -1.85 -9.7 -2.2 -9.6 Q-2.4 -9.5 -2.55 -9.5 -3.25 -9.15 -3.85 -8.65 -4.55 -8.05 -4.8 -7.35 L-4.85 -7.2 -4.9 -7.15 -4.9 -7.1 -4.95 -7.0 Q-4.25 -7.7 -3.4 -8.1 -2.8 -8.45 -2.3 -8.45 L-1.8 -8.45 -1.75 -8.4 Q-1.2 -8.2 -1.35 -7.25 L-1.4 -7.1 Q-1.45 -7.05 -1.5 -6.95 L-1.55 -6.8 Q-1.65 -6.4 -2.75 -5.85 -3.1 -5.7 -3.35 -5.6 L-2.85 -5.6 -2.45 -5.8 Q-2.1 -5.9 -1.8 -6.05 L-1.3 -6.4 -1.1 -6.5 -0.1 -7.95 M-8.15 -18.0 Q-8.65 -18.3 -8.8 -18.3 -9.45 -18.45 -10.15 -17.55 L-10.7 -16.6 -10.7 -16.45 Q-10.65 -16.35 -10.7 -16.25 L-10.7 -16.15 Q-10.65 -15.9 -10.45 -15.9 L-9.95 -15.9 -9.15 -15.8 Q-8.65 -15.7 -8.5 -15.55 L-8.45 -15.45 -8.4 -15.55 Q-8.15 -15.95 -8.05 -16.35 -8.05 -16.5 -8.1 -16.85 -8.15 -17.15 -8.1 -17.3 -8.05 -17.6 -7.75 -17.85 L-7.85 -17.85 Q-7.95 -17.95 -8.15 -18.0 M-11.15 -17.25 L-11.2 -17.25 Q-11.95 -17.25 -12.4 -16.85 -12.75 -16.5 -12.85 -16.1 -12.9 -15.85 -12.9 -15.75 L-12.9 -15.55 -12.95 -15.05 -12.85 -15.0 -12.25 -15.6 Q-11.75 -16.0 -11.3 -16.15 L-11.3 -16.3 -11.15 -16.75 -11.15 -16.8 -11.1 -17.05 Q-11.1 -17.2 -11.15 -17.25 M-7.65 -13.55 Q-7.65 -13.7 -7.7 -13.85 -7.75 -14.05 -7.9 -14.15 L-8.0 -14.3 Q-8.25 -14.55 -8.7 -14.65 -9.15 -14.7 -9.55 -14.55 L-9.7 -14.55 Q-10.25 -14.4 -11.15 -13.5 L-11.95 -12.65 -12.0 -12.6 -11.65 -12.8 -11.75 -12.5 Q-11.8 -12.3 -11.75 -12.2 L-11.65 -12.25 Q-10.8 -12.55 -10.3 -12.45 -10.0 -12.45 -9.9 -12.25 L-9.85 -12.15 Q-9.8 -12.0 -9.85 -11.75 L-10.15 -11.3 -10.35 -11.1 -10.6 -10.75 -10.55 -10.65 -10.85 -10.3 -11.25 -9.85 -11.1 -9.95 -9.5 -10.5 Q-9.2 -10.6 -8.8 -11.25 -8.65 -11.5 -8.45 -11.6 L-8.35 -11.95 -8.2 -12.25 -8.2 -12.3 Q-8.05 -12.45 -8.0 -12.75 L-7.95 -12.9 -7.7 -13.2 -7.65 -13.55 M-8.65 -15.25 L-8.7 -15.2 -8.65 -15.2 -8.65 -15.25 M-13.25 -9.0 L-13.25 -9.05 -13.2 -9.05 -12.15 -9.8 Q-11.7 -10.1 -11.5 -10.35 -11.15 -10.6 -11.0 -10.9 L-10.8 -11.1 -10.8 -11.35 Q-10.85 -11.45 -10.85 -11.5 L-10.85 -11.55 -11.05 -11.55 Q-12.1 -11.65 -12.75 -10.55 -13.1 -9.95 -13.25 -9.1 L-13.25 -9.0 M-4.25 -12.2 Q-4.3 -12.95 -4.95 -13.1 L-5.4 -13.05 -6.15 -13.1 Q-6.4 -12.95 -6.55 -12.8 L-6.65 -12.8 -6.9 -12.6 -7.0 -12.5 Q-7.65 -11.85 -8.0 -11.05 L-8.1 -10.7 -8.1 -10.65 Q-8.25 -10.3 -8.3 -9.95 L-8.05 -10.3 -8.05 -10.2 Q-8.1 -9.8 -8.05 -9.4 L-8.0 -9.4 -7.65 -9.9 -7.55 -10.0 -7.55 -10.05 -7.45 -10.1 -7.45 -10.15 -7.4 -10.15 -7.4 -10.25 -7.35 -10.25 Q-7.0 -10.65 -6.65 -10.8 L-6.55 -10.8 Q-6.25 -10.9 -5.95 -10.75 -5.75 -10.65 -5.6 -10.45 -5.35 -10.15 -5.25 -9.7 L-5.25 -9.6 Q-5.3 -9.35 -5.7 -8.65 L-5.85 -8.4 -5.8 -8.45 Q-5.45 -8.55 -5.25 -8.7 L-5.15 -8.75 -5.3 -8.75 -5.0 -9.0 -4.7 -9.75 -4.6 -10.15 -4.55 -10.45 -4.55 -10.5 -4.35 -11.4 -4.3 -11.25 -4.25 -11.8 -4.25 -12.2 M-2.5 -7.6 L-3.45 -7.3 Q-4.15 -7.05 -4.55 -6.5 -4.8 -6.15 -4.9 -5.8 L-5.05 -5.8 -5.1 -5.7 -3.4 -6.3 -3.1 -6.4 Q-2.4 -6.85 -1.85 -7.5 L-1.85 -7.85 -2.5 -7.6 M-8.8 -11.45 L-8.8 -11.45 M-6.2 -9.8 L-6.3 -9.95 -6.35 -9.95 Q-6.45 -9.9 -6.55 -9.85 -7.25 -9.4 -7.45 -9.2 L-7.45 -9.15 -7.9 -8.55 -8.15 -8.25 -8.2 -7.95 -8.25 -7.35 -8.2 -7.25 Q-8.0 -7.3 -7.5 -7.55 L-7.3 -7.65 -6.95 -8.0 -6.8 -8.2 -6.7 -8.35 -6.4 -8.7 Q-6.05 -9.15 -6.1 -9.4 L-6.1 -9.45 Q-6.15 -9.6 -6.2 -9.7 L-6.15 -9.75 -6.2 -9.8" fill="#111111" fill-rule="evenodd" stroke="none"/>
  </g>
</svg>
