<?xml version="1.0" encoding="UTF-8" standalone="no"?>
<svg xmlns:ffdec="https://www.free-decompiler.com/flash" xmlns:xlink="http://www.w3.org/1999/xlink" ffdec:objectType="shape" height="19.6px" width="11.5px" xmlns="http://www.w3.org/2000/svg">
  <g transform="matrix(1.0, 0.0, 0.0, 1.0, 5.25, 19.6)">
    <path d="M3.25 -19.5 Q3.25 -18.6 3.0 -17.45 2.85 -16.85 2.8 -16.3 3.05 -15.55 3.55 -14.8 L3.8 -14.55 4.55 -13.7 Q6.05 -12.75 6.25 -10.65 L6.25 -10.25 Q6.25 -9.0 5.7 -8.05 5.25 -6.2 3.7 -4.75 2.95 -4.1 2.25 -3.55 1.65 -2.8 0.8 -2.0 L-0.2 -1.1 -0.45 -0.7 -0.4 -0.7 -0.6 -0.5 Q-0.65 -0.4 -0.75 -0.3 L-0.6 -0.3 Q-1.35 0.0 -1.95 0.0 -3.5 0.0 -4.4 -1.9 -4.55 -2.2 -4.55 -2.55 -5.65 -5.35 -5.0 -8.95 -4.9 -9.65 -4.7 -10.25 L-4.8 -10.15 -4.6 -10.45 Q-4.1 -11.8 -3.0 -12.9 L-2.35 -13.8 Q-1.55 -15.15 -0.55 -16.5 0.85 -18.4 3.05 -19.55 L3.05 -19.5 3.25 -19.6 3.25 -19.5 M2.65 -18.6 L2.7 -18.7 2.15 -18.3 Q1.25 -17.75 0.6 -16.95 L-0.95 -15.05 -1.2 -14.7 -2.85 -12.55 Q-3.8 -11.1 -4.45 -9.5 L-4.55 -9.2 Q-4.65 -8.6 -4.7 -8.0 -4.75 -6.8 -4.65 -5.6 L-4.6 -5.25 Q-4.5 -4.3 -4.2 -3.4 -3.7 -1.75 -2.6 -1.1 -2.2 -0.95 -1.7 -0.9 L-1.0 -0.9 Q-0.55 -1.9 0.25 -2.75 1.4 -4.3 3.15 -5.55 4.1 -6.25 4.65 -7.3 5.05 -8.05 5.4 -8.7 5.55 -10.0 5.2 -11.25 4.9 -12.3 4.5 -13.1 L4.45 -13.2 4.4 -13.25 4.3 -13.25 3.0 -14.2 2.7 -14.7 2.5 -15.05 Q2.25 -15.65 2.3 -16.2 L2.3 -16.25 2.35 -17.75 2.6 -18.55 2.65 -18.6" fill="#121212" fill-rule="evenodd" stroke="none"/>
    <path d="M2.65 -18.6 Q2.45 -18.4 2.3 -18.0 1.35 -16.25 1.25 -14.7 L1.25 -14.15 1.3 -13.8 1.55 -13.75 1.65 -13.9 Q1.7 -14.0 1.85 -14.0 2.1 -14.05 2.4 -13.95 1.95 -13.9 1.9 -13.4 L1.9 -13.1 1.95 -13.05 2.15 -13.1 Q2.5 -13.15 2.65 -13.25 2.8 -13.35 2.85 -13.65 3.25 -13.3 3.65 -12.55 4.0 -11.95 4.25 -11.25 L4.3 -11.05 Q3.8 -11.25 3.8 -10.5 L3.8 -10.45 Q3.75 -10.35 3.75 -10.3 3.75 -10.25 3.9 -10.1 4.05 -9.4 4.2 -9.3 L4.25 -9.3 4.15 -8.8 4.1 -8.8 Q3.9 -8.9 3.55 -8.75 3.25 -8.6 3.0 -8.3 2.75 -8.05 2.75 -7.75 2.7 -7.5 2.75 -7.3 2.8 -7.0 3.0 -6.95 L2.4 -6.35 2.5 -6.5 2.55 -6.55 Q2.6 -7.65 1.95 -7.45 1.7 -7.4 1.5 -7.15 1.3 -6.9 1.3 -6.6 1.3 -6.35 1.4 -6.15 1.45 -5.95 1.6 -5.8 0.8 -5.45 0.45 -5.25 -1.4 -4.3 -1.45 -3.45 -1.5 -3.15 -1.45 -2.9 L-1.45 -2.75 -1.9 -2.4 Q-2.6 -2.35 -3.6 -4.05 L-4.25 -5.15 Q-4.5 -5.65 -4.6 -5.6 L-4.65 -5.6 Q-4.75 -6.8 -4.7 -8.0 -4.65 -8.6 -4.55 -9.2 L-4.45 -9.5 Q-3.8 -11.1 -2.85 -12.55 L-1.2 -14.7 Q-1.25 -14.55 -1.2 -14.45 L-1.15 -14.35 -0.7 -14.5 -0.6 -14.7 Q-0.6 -15.2 -0.9 -15.05 L-0.95 -15.05 0.6 -16.95 Q1.25 -17.75 2.15 -18.3 L2.7 -18.7 2.65 -18.6 M4.5 -13.1 L4.4 -13.25 4.45 -13.2 4.5 -13.1 M0.1 -14.8 Q0.2 -14.9 0.25 -15.0 L0.15 -15.1 -0.1 -15.1 Q-0.2 -15.1 -0.2 -14.95 L-0.2 -14.75 -0.1 -14.7 0.1 -14.8 M3.15 -9.25 Q3.3 -9.0 3.45 -9.0 3.55 -9.05 3.65 -9.1 3.9 -9.2 3.9 -9.45 3.9 -10.05 3.5 -9.9 3.1 -9.75 3.1 -9.5 L3.15 -9.25 M-1.55 -12.55 L-2.05 -12.45 Q-2.15 -12.15 -2.15 -11.95 L-2.15 -11.8 -2.1 -11.75 -1.75 -11.85 -1.5 -12.25 Q-1.5 -12.4 -1.5 -12.5 L-1.55 -12.55 M-0.95 -13.85 L-0.95 -14.0 -1.0 -14.05 Q-1.2 -14.0 -1.3 -13.9 L-1.4 -14.1 Q-1.75 -13.95 -2.05 -13.5 -2.3 -13.1 -2.3 -12.85 -2.35 -12.75 -2.3 -12.7 L-2.3 -12.65 -2.1 -12.7 Q-1.9 -12.8 -1.65 -13.2 L-1.45 -13.55 -1.4 -13.5 -1.3 -13.45 Q-1.15 -13.5 -1.05 -13.6 -0.95 -13.75 -0.95 -13.85" fill="#8c1c1c" fill-rule="evenodd" stroke="none"/>
    <path d="M-4.65 -5.6 L-4.6 -5.6 Q-4.5 -5.65 -4.25 -5.15 L-3.6 -4.05 Q-2.6 -2.35 -1.9 -2.4 L-1.45 -2.75 -1.45 -2.9 Q-1.5 -3.15 -1.45 -3.45 -1.4 -4.3 0.45 -5.25 0.8 -5.45 1.6 -5.8 1.45 -5.95 1.4 -6.15 1.3 -6.35 1.3 -6.6 1.3 -6.9 1.5 -7.15 1.7 -7.4 1.95 -7.45 2.6 -7.65 2.55 -6.55 L2.5 -6.5 2.4 -6.35 3.0 -6.95 Q2.8 -7.0 2.75 -7.3 2.7 -7.5 2.75 -7.75 2.75 -8.05 3.0 -8.3 3.25 -8.6 3.55 -8.75 3.9 -8.9 4.1 -8.8 L4.15 -8.8 4.25 -9.3 4.2 -9.3 Q4.05 -9.4 3.9 -10.1 3.75 -10.25 3.75 -10.3 3.75 -10.35 3.8 -10.45 L3.8 -10.5 Q3.8 -11.25 4.3 -11.05 L4.25 -11.25 Q4.0 -11.95 3.65 -12.55 3.25 -13.3 2.85 -13.65 2.8 -13.35 2.65 -13.25 2.5 -13.15 2.15 -13.1 L1.95 -13.05 1.9 -13.1 1.9 -13.4 Q1.95 -13.9 2.4 -13.95 2.1 -14.05 1.85 -14.0 1.7 -14.0 1.65 -13.9 L1.55 -13.75 1.3 -13.8 1.25 -14.15 1.25 -14.7 Q1.35 -16.25 2.3 -18.0 2.45 -18.4 2.65 -18.6 L2.6 -18.55 2.35 -17.75 2.3 -16.25 2.3 -16.2 Q2.25 -15.65 2.5 -15.05 L2.7 -14.7 3.0 -14.2 4.3 -13.25 4.4 -13.25 4.5 -13.1 Q4.9 -12.3 5.2 -11.25 5.55 -10.0 5.4 -8.7 5.05 -8.05 4.65 -7.3 4.1 -6.25 3.15 -5.55 1.4 -4.3 0.25 -2.75 -0.55 -1.9 -1.0 -0.9 L-1.7 -0.9 Q-2.2 -0.95 -2.6 -1.1 -3.7 -1.75 -4.2 -3.4 -4.5 -4.3 -4.6 -5.25 L-4.65 -5.6 M3.15 -9.25 L3.1 -9.5 Q3.1 -9.75 3.5 -9.9 3.9 -10.05 3.9 -9.45 3.9 -9.2 3.65 -9.1 3.55 -9.05 3.45 -9.0 3.3 -9.0 3.15 -9.25" fill="#4d0f0f" fill-rule="evenodd" stroke="none"/>
    <path d="M-0.95 -15.05 L-0.9 -15.05 Q-0.6 -15.2 -0.6 -14.7 L-0.7 -14.5 -1.15 -14.35 -1.2 -14.45 Q-1.25 -14.55 -1.2 -14.7 L-0.95 -15.05 M0.1 -14.8 L-0.1 -14.7 -0.2 -14.75 -0.2 -14.95 Q-0.2 -15.1 -0.1 -15.1 L0.15 -15.1 0.25 -15.0 Q0.2 -14.9 0.1 -14.8 M-0.95 -13.85 Q-0.95 -13.75 -1.05 -13.6 -1.15 -13.5 -1.3 -13.45 L-1.4 -13.5 -1.45 -13.55 -1.65 -13.2 Q-1.9 -12.8 -2.1 -12.7 L-2.3 -12.65 -2.3 -12.7 Q-2.35 -12.75 -2.3 -12.85 -2.3 -13.1 -2.05 -13.5 -1.75 -13.95 -1.4 -14.1 L-1.3 -13.9 Q-1.2 -14.0 -1.0 -14.05 L-0.95 -14.0 -0.95 -13.85 M-1.55 -12.55 L-1.5 -12.5 Q-1.5 -12.4 -1.5 -12.25 L-1.75 -11.85 -2.1 -11.75 -2.15 -11.8 -2.15 -11.95 Q-2.15 -12.15 -2.05 -12.45 L-1.55 -12.55" fill="#cc8a28" fill-rule="evenodd" stroke="none"/>
  </g>
</svg>
