<?xml version="1.0" encoding="UTF-8" standalone="no"?>
<svg xmlns:ffdec="https://www.free-decompiler.com/flash" xmlns:xlink="http://www.w3.org/1999/xlink" ffdec:objectType="shape" height="21.1px" width="11.9px" xmlns="http://www.w3.org/2000/svg">
  <g transform="matrix(1.0, 0.0, 0.0, 1.0, 7.3, 21.45)">
    <path d="M1.7 -20.15 L1.9 -19.75 Q2.65 -18.15 2.65 -17.1 2.7 -16.45 2.05 -14.1 L1.65 -12.75 1.1 -14.55 1.05 -14.55 1.0 -14.3 Q0.95 -14.1 1.0 -14.0 L0.85 -13.35 Q0.75 -12.75 0.75 -12.65 L0.75 -11.85 0.75 -11.25 Q0.8 -9.3 0.55 -8.45 0.35 -7.7 -0.85 -5.1 L-1.5 -3.55 Q-1.9 -2.6 -2.45 -2.0 L-3.4 -1.25 -3.3 -1.2 -3.55 -1.25 Q-3.15 -1.85 -2.45 -3.7 -1.7 -5.4 -1.55 -6.1 -1.3 -7.05 -0.2 -9.35 L0.3 -10.35 0.25 -10.55 Q0.25 -10.8 0.4 -11.15 L0.75 -11.85 0.25 -13.15 Q0.05 -13.95 -0.35 -14.95 L-0.45 -15.3 -0.45 -15.35 Q-0.5 -17.75 0.65 -20.1 L0.85 -20.5 Q1.3 -20.35 1.7 -20.15" fill="#cc8a28" fill-rule="evenodd" stroke="none"/>
    <path d="M1.7 -20.15 L1.75 -20.1 Q2.1 -19.95 2.45 -19.65 L2.45 -19.6 Q3.9 -18.25 3.95 -15.6 4.0 -14.7 2.75 -12.65 2.25 -11.8 1.95 -11.2 1.6 -10.55 1.55 -10.15 L1.3 -13.25 1.2 -13.25 1.15 -12.8 1.15 -12.35 Q1.3 -9.6 1.25 -8.7 L1.1 -7.85 0.95 -7.2 0.95 -7.15 0.65 -6.2 0.35 -5.15 Q-0.45 -3.3 -1.2 -2.35 -1.45 -2.1 -1.65 -1.85 L-2.05 -1.55 -2.15 -1.5 -3.3 -1.2 -3.4 -1.25 -2.45 -2.0 Q-1.9 -2.6 -1.5 -3.55 L-0.85 -5.1 Q0.35 -7.7 0.55 -8.45 0.8 -9.3 0.75 -11.25 L0.75 -11.85 0.75 -12.65 Q0.75 -12.75 0.85 -13.35 L1.0 -14.0 Q0.95 -14.1 1.0 -14.3 L1.05 -14.55 1.1 -14.55 1.65 -12.75 2.05 -14.1 Q2.7 -16.45 2.65 -17.1 2.65 -18.15 1.9 -19.75 L1.7 -20.15 M0.85 -20.5 L0.65 -20.1 Q-0.5 -17.75 -0.45 -15.35 L-0.45 -15.3 -0.5 -15.35 Q-0.9 -16.55 -1.4 -17.7 L-1.5 -17.8 Q-1.5 -18.4 -1.35 -18.95 -0.95 -20.5 0.35 -20.55 0.45 -20.55 0.7 -20.4 L0.6 -20.55 0.85 -20.5" fill="#805619" fill-rule="evenodd" stroke="none"/>
    <path d="M-3.3 -1.2 L-2.15 -1.5 -2.05 -1.55 -1.65 -1.85 Q-1.45 -2.1 -1.2 -2.35 -0.45 -3.3 0.35 -5.15 L0.65 -6.2 0.95 -7.15 0.95 -7.2 1.1 -7.85 1.25 -8.7 Q1.3 -9.6 1.15 -12.35 L1.15 -12.8 1.2 -13.25 1.3 -13.25 1.55 -10.15 Q1.6 -10.55 1.95 -11.2 2.25 -11.8 2.75 -12.65 4.0 -14.7 3.95 -15.6 3.9 -18.25 2.45 -19.6 L2.45 -19.65 Q2.1 -19.95 1.75 -20.1 L1.7 -20.15 Q1.3 -20.35 0.85 -20.5 L0.6 -20.55 0.7 -20.4 Q0.45 -20.55 0.35 -20.55 -0.95 -20.5 -1.35 -18.95 -1.5 -18.4 -1.5 -17.8 L-1.4 -17.7 Q-0.9 -16.55 -0.5 -15.35 L-0.45 -15.3 -0.35 -14.95 Q0.05 -13.95 0.25 -13.15 L0.75 -11.85 0.4 -11.15 Q0.25 -10.8 0.25 -10.55 L0.3 -10.35 -0.2 -9.35 Q-1.3 -7.05 -1.55 -6.1 -1.7 -5.4 -2.45 -3.7 -3.15 -1.85 -3.55 -1.25 L-3.3 -1.2 M-1.45 -20.0 L-1.35 -20.1 -1.05 -20.55 -0.7 -21.0 Q-0.7 -21.15 -0.4 -21.3 -0.2 -21.45 -0.05 -21.45 1.35 -21.5 2.6 -20.35 4.1 -19.0 4.15 -16.7 4.2 -16.3 4.4 -15.6 4.6 -14.85 4.6 -14.6 3.9 -13.75 3.2 -12.65 1.8 -10.45 1.85 -9.15 L1.8 -8.9 1.7 -8.55 1.65 -8.55 Q1.7 -7.7 1.25 -6.55 L0.85 -5.5 0.8 -4.95 Q0.45 -4.05 0.45 -3.25 0.45 -3.15 -0.25 -2.45 -1.0 -1.65 -1.45 -1.25 -1.6 -1.15 -2.35 -0.8 -3.25 -0.35 -3.5 -0.35 -4.5 -0.35 -4.5 -0.8 L-4.4 -1.05 Q-4.65 -1.1 -5.05 -1.25 -5.75 -1.5 -5.75 -1.75 -5.75 -1.85 -5.65 -1.95 -5.55 -2.1 -5.35 -2.15 L-4.7 -2.1 -5.15 -2.45 Q-5.85 -3.1 -5.85 -3.4 -5.85 -3.75 -5.55 -3.8 L-5.15 -3.8 Q-4.95 -3.8 -4.8 -3.95 L-5.05 -4.15 Q-5.75 -4.6 -5.95 -4.85 L-5.9 -5.1 Q-5.5 -5.15 -4.75 -5.35 L-5.95 -6.2 Q-6.5 -6.7 -5.6 -6.7 L-5.35 -6.8 -5.5 -7.0 Q-5.95 -7.85 -6.0 -8.4 L-5.9 -9.9 -5.85 -10.25 -6.0 -10.35 Q-5.8 -10.55 -5.8 -10.95 L-5.75 -10.9 -5.65 -11.65 Q-5.4 -13.05 -4.95 -13.6 L-5.2 -13.6 Q-5.4 -13.6 -6.1 -13.3 L-7.05 -12.95 -7.25 -12.95 -7.3 -13.1 -7.25 -13.25 -6.6 -13.6 -6.3 -13.7 Q-5.4 -14.05 -5.15 -14.1 L-3.6 -14.0 -2.1 -13.85 Q-1.9 -13.8 -1.25 -13.45 L-0.85 -13.2 -0.25 -12.6 -0.05 -12.6 -0.1 -12.75 -0.1 -12.85 -0.25 -13.3 -0.25 -13.35 -0.55 -14.9 Q-0.7 -15.15 -1.35 -15.85 L-1.4 -15.85 -1.65 -16.25 -1.7 -16.4 Q-1.9 -16.8 -1.95 -17.15 L-2.05 -17.25 -2.1 -18.15 Q-2.15 -18.65 -1.9 -19.15 -1.75 -19.55 -1.45 -20.0 M0.1 -11.8 L-0.4 -12.25 Q-0.5 -11.95 -1.25 -11.95 -1.05 -11.8 -0.5 -11.65 L0.05 -11.55 0.1 -11.75 0.1 -11.8 M-4.7 -6.75 L-4.65 -6.75 Q-4.6 -6.85 -4.45 -7.85 L-4.4 -8.25 -4.4 -8.3 -4.35 -8.3 Q-4.3 -8.8 -4.3 -8.95 -4.3 -9.35 -3.55 -10.15 -2.85 -10.85 -2.7 -10.9 -2.5 -10.9 -1.95 -10.3 -1.35 -9.7 -1.35 -9.45 L-1.35 -9.4 -0.7 -9.6 -0.6 -9.9 Q-1.15 -9.9 -1.7 -10.35 -2.35 -10.85 -1.3 -10.9 -0.95 -10.9 -0.15 -11.05 L-0.05 -11.25 -0.2 -11.25 Q-0.6 -11.25 -1.15 -11.45 -1.85 -11.7 -1.85 -12.0 -1.85 -12.4 -1.25 -12.45 L-0.65 -12.45 -0.85 -12.6 Q-1.85 -13.35 -2.2 -13.35 L-2.65 -13.4 -3.1 -13.5 -4.65 -13.55 Q-4.6 -12.9 -4.9 -12.1 -5.2 -11.25 -5.2 -10.9 L-5.25 -10.35 -5.35 -9.85 Q-5.5 -9.0 -5.5 -8.35 -5.45 -7.8 -5.2 -7.35 -5.05 -7.1 -4.7 -6.75 M-0.85 -10.6 Q-1.1 -10.6 -1.3 -10.5 L-1.0 -10.4 Q-0.75 -10.3 -0.65 -10.3 L-0.45 -10.3 -0.4 -10.25 -0.25 -10.75 -0.5 -10.7 Q-0.75 -10.6 -0.85 -10.6 M-3.7 -9.4 L-3.8 -9.25 -3.9 -8.95 -3.85 -9.0 Q-3.8 -9.0 -3.55 -9.2 L-3.7 -9.4 M-3.2 -9.4 Q-3.15 -8.85 -3.55 -8.7 -3.75 -8.6 -4.0 -8.6 L-4.05 -8.3 -3.45 -7.7 Q-3.45 -7.3 -3.8 -7.15 -3.95 -7.05 -4.1 -7.05 L-4.15 -6.8 -3.8 -6.65 Q-3.4 -6.4 -3.4 -6.2 L-3.4 -6.05 -2.9 -6.15 Q-2.45 -6.2 -2.1 -6.35 L-2.0 -6.6 -2.7 -6.75 Q-3.45 -7.0 -3.45 -7.3 -3.45 -7.6 -2.6 -7.7 L-1.4 -7.85 -1.35 -8.1 -1.4 -8.1 Q-1.7 -8.05 -2.35 -8.3 -3.15 -8.6 -3.15 -8.9 -3.15 -9.3 -2.75 -9.3 L-2.15 -9.25 -1.7 -9.3 -2.0 -9.75 Q-2.35 -10.3 -2.75 -10.3 -3.2 -10.3 -3.5 -9.8 L-3.35 -9.65 Q-3.2 -9.45 -3.2 -9.4 M-4.1 -7.3 L-4.1 -7.25 -4.0 -7.35 -3.75 -7.5 -3.75 -7.65 -4.1 -7.9 -4.1 -7.3 M-3.0 -7.3 Q-2.85 -7.15 -2.3 -7.0 -2.05 -6.95 -1.9 -6.75 L-1.6 -7.4 Q-1.8 -7.25 -2.05 -7.25 L-2.95 -7.3 -3.0 -7.3 M-1.35 -8.95 Q-1.85 -8.9 -2.4 -8.95 L-2.65 -8.95 Q-2.4 -8.75 -1.85 -8.6 L-1.15 -8.45 -0.95 -9.0 -1.35 -8.95 M-2.35 -5.85 L-3.15 -5.75 -3.75 -5.65 Q-3.35 -5.35 -2.6 -5.15 L-2.55 -5.1 -2.3 -5.85 -2.35 -5.85 M-2.75 -4.9 Q-3.15 -4.9 -3.8 -5.25 -4.15 -5.45 -4.2 -5.65 L-4.35 -5.65 -4.1 -5.45 -3.8 -5.2 Q-3.35 -4.85 -3.35 -4.8 -3.3 -4.55 -3.65 -4.25 L-4.05 -4.0 -4.05 -3.95 Q-4.05 -3.9 -4.1 -3.85 L-4.05 -3.8 Q-3.75 -3.6 -3.75 -3.5 L-3.05 -3.45 -3.0 -3.55 Q-3.45 -3.5 -3.6 -3.7 -3.75 -3.85 -3.6 -4.1 -3.5 -4.3 -3.25 -4.45 -2.95 -4.6 -2.7 -4.6 L-2.6 -4.9 -2.75 -4.9 M-4.15 -6.5 L-4.25 -6.35 Q-4.35 -6.15 -4.65 -6.15 -4.85 -6.15 -5.1 -6.4 L-5.2 -6.4 -5.55 -6.35 -4.8 -5.95 -4.5 -5.75 Q-4.45 -5.85 -4.1 -5.95 L-4.0 -6.0 -3.65 -6.05 Q-3.7 -6.3 -4.0 -6.45 L-4.15 -6.5 M-4.8 -4.45 Q-4.5 -4.35 -4.35 -4.2 -4.25 -4.35 -4.1 -4.45 -3.75 -4.6 -3.7 -4.75 -3.9 -4.75 -4.2 -4.95 L-4.4 -5.1 Q-4.55 -4.95 -4.8 -4.95 L-5.6 -4.8 Q-5.5 -4.75 -4.8 -4.45 M-4.45 -3.65 L-4.7 -3.6 -5.55 -3.45 Q-5.45 -3.15 -5.15 -2.9 L-5.15 -2.95 Q-5.3 -3.3 -4.8 -3.45 L-4.25 -3.5 Q-4.3 -3.55 -4.35 -3.6 L-4.45 -3.65 M-3.05 -3.85 L-2.9 -3.8 -2.85 -4.1 -3.4 -4.0 Q-3.35 -3.9 -3.05 -3.85 M-3.7 -2.2 L-4.25 -2.3 -4.15 -2.1 -3.75 -2.1 -3.7 -2.2 M-3.75 -2.95 L-4.8 -3.0 -4.85 -2.95 Q-4.65 -2.75 -4.15 -2.6 L-3.55 -2.45 -3.15 -3.05 Q-3.4 -2.95 -3.75 -2.95 M-5.35 -1.8 Q-5.1 -1.55 -4.75 -1.45 L-4.15 -1.45 -4.0 -1.75 -4.35 -1.75 -5.3 -1.85 -5.35 -1.8" fill="#121212" fill-rule="evenodd" stroke="none"/>
    <path d="M-7.25 -13.25 L-7.25 -13.4 Q-7.3 -15.65 -5.25 -18.0 -4.4 -18.95 -3.5 -19.55 -2.55 -20.15 -1.95 -20.2 -1.7 -20.2 -1.5 -20.05 L-1.45 -20.0 Q-1.75 -19.55 -1.9 -19.15 -2.15 -18.65 -2.1 -18.15 L-2.05 -17.25 -1.95 -17.15 Q-1.9 -16.8 -1.7 -16.4 L-1.65 -16.25 -1.4 -15.85 -1.35 -15.85 Q-0.7 -15.15 -0.55 -14.9 L-0.25 -13.35 -0.25 -13.3 -0.1 -12.85 -0.1 -12.75 Q-0.15 -12.65 -0.25 -12.6 L-0.85 -13.2 -1.25 -13.45 Q-1.9 -13.8 -2.1 -13.85 L-3.6 -14.0 -5.15 -14.1 Q-5.4 -14.05 -6.3 -13.7 L-6.6 -13.6 -7.25 -13.25" fill="#e1ac93" fill-rule="evenodd" stroke="none"/>
    <path d="M-5.25 -10.35 L-5.2 -10.9 Q-5.2 -11.25 -4.9 -12.1 -4.6 -12.9 -4.65 -13.55 L-3.1 -13.5 -2.65 -13.4 -2.2 -13.35 Q-1.85 -13.35 -0.85 -12.6 L-0.65 -12.45 -1.25 -12.45 Q-1.85 -12.4 -1.85 -12.0 -1.85 -11.7 -1.15 -11.45 -0.6 -11.25 -0.2 -11.25 L-0.05 -11.25 -0.15 -11.05 Q-0.95 -10.9 -1.3 -10.9 -2.35 -10.85 -1.7 -10.35 -1.15 -9.9 -0.6 -9.9 L-0.7 -9.6 -1.35 -9.4 -1.35 -9.45 Q-1.35 -9.7 -1.95 -10.3 -2.5 -10.9 -2.7 -10.9 -2.85 -10.85 -3.55 -10.15 -4.3 -9.35 -4.3 -8.95 -4.3 -8.8 -4.35 -8.3 L-4.4 -8.3 -4.4 -8.25 -4.45 -7.85 Q-4.6 -6.85 -4.65 -6.75 L-4.7 -6.75 -4.7 -6.95 Q-4.7 -7.8 -4.4 -9.45 L-4.0 -11.35 -4.05 -11.4 Q-4.8 -11.25 -5.15 -10.6 L-5.25 -10.35" fill="#aa2d40" fill-rule="evenodd" stroke="none"/>
    <path d="M0.1 -11.8 L0.1 -11.75 0.05 -11.55 -0.5 -11.65 Q-1.05 -11.8 -1.25 -11.95 -0.5 -11.95 -0.4 -12.25 L0.1 -11.8 M-3.7 -9.4 L-3.55 -9.2 Q-3.8 -9.0 -3.85 -9.0 L-3.9 -8.95 -3.8 -9.25 -3.7 -9.4 M-0.85 -10.6 Q-0.75 -10.6 -0.5 -10.7 L-0.25 -10.75 -0.4 -10.25 -0.45 -10.3 -0.65 -10.3 Q-0.75 -10.3 -1.0 -10.4 L-1.3 -10.5 Q-1.1 -10.6 -0.85 -10.6 M-2.35 -5.85 L-2.3 -5.85 -2.55 -5.1 -2.6 -5.15 Q-3.35 -5.35 -3.75 -5.65 L-3.15 -5.75 -2.35 -5.85 M-1.35 -8.95 L-0.95 -9.0 -1.15 -8.45 -1.85 -8.6 Q-2.4 -8.75 -2.65 -8.95 L-2.4 -8.95 Q-1.85 -8.9 -1.35 -8.95 M-3.0 -7.3 L-2.95 -7.3 -2.05 -7.25 Q-1.8 -7.25 -1.6 -7.4 L-1.9 -6.75 Q-2.05 -6.95 -2.3 -7.0 -2.85 -7.15 -3.0 -7.3 M-4.1 -7.3 L-4.1 -7.9 -3.75 -7.65 -3.75 -7.5 -4.0 -7.35 -4.1 -7.25 -4.1 -7.3 M-3.05 -3.85 Q-3.35 -3.9 -3.4 -4.0 L-2.85 -4.1 -2.9 -3.8 -3.05 -3.85 M-4.45 -3.65 L-4.35 -3.6 Q-4.3 -3.55 -4.25 -3.5 L-4.8 -3.45 Q-5.3 -3.3 -5.15 -2.95 L-5.15 -2.9 Q-5.45 -3.15 -5.55 -3.45 L-4.7 -3.6 -4.45 -3.65 M-4.8 -4.45 Q-5.5 -4.75 -5.6 -4.8 L-4.8 -4.95 Q-4.55 -4.95 -4.4 -5.1 L-4.2 -4.95 Q-3.9 -4.75 -3.7 -4.75 -3.75 -4.6 -4.1 -4.45 -4.25 -4.35 -4.35 -4.2 -4.5 -4.35 -4.8 -4.45 M-4.15 -6.5 L-4.0 -6.45 Q-3.7 -6.3 -3.65 -6.05 L-4.0 -6.0 -4.1 -5.95 Q-4.45 -5.85 -4.5 -5.75 L-4.8 -5.95 -5.55 -6.35 -5.2 -6.4 -5.1 -6.4 Q-4.85 -6.15 -4.65 -6.15 -4.35 -6.15 -4.25 -6.35 L-4.15 -6.5 M-5.35 -1.8 L-5.3 -1.85 -4.35 -1.75 -4.0 -1.75 -4.15 -1.45 -4.75 -1.45 Q-5.1 -1.55 -5.35 -1.8 M-3.75 -2.95 Q-3.4 -2.95 -3.15 -3.05 L-3.55 -2.45 -4.15 -2.6 Q-4.65 -2.75 -4.85 -2.95 L-4.8 -3.0 -3.75 -2.95" fill="#ffffcc" fill-rule="evenodd" stroke="none"/>
    <path d="M-5.25 -10.35 L-5.15 -10.6 Q-4.8 -11.25 -4.05 -11.4 L-4.0 -11.35 -4.4 -9.45 Q-4.7 -7.8 -4.7 -6.95 L-4.7 -6.75 Q-5.05 -7.1 -5.2 -7.35 -5.45 -7.8 -5.5 -8.35 -5.5 -9.0 -5.35 -9.85 L-5.25 -10.35" fill="#cc5b5b" fill-rule="evenodd" stroke="none"/>
    <path d="M-3.2 -9.4 Q-3.2 -9.45 -3.35 -9.65 L-3.5 -9.8 Q-3.2 -10.3 -2.75 -10.3 -2.35 -10.3 -2.0 -9.75 L-1.7 -9.3 -2.15 -9.25 -2.75 -9.3 Q-3.15 -9.3 -3.15 -8.9 -3.15 -8.6 -2.35 -8.3 -1.7 -8.05 -1.4 -8.1 L-1.35 -8.1 -1.4 -7.85 -2.6 -7.7 Q-3.45 -7.6 -3.45 -7.3 -3.45 -7.0 -2.7 -6.75 L-2.0 -6.6 -2.1 -6.35 Q-2.45 -6.2 -2.9 -6.15 L-3.4 -6.05 -3.4 -6.2 Q-3.4 -6.4 -3.8 -6.65 L-4.15 -6.8 -4.1 -7.05 Q-3.95 -7.05 -3.8 -7.15 -3.45 -7.3 -3.45 -7.7 L-4.05 -8.3 -4.0 -8.6 Q-3.75 -8.6 -3.55 -8.7 -3.15 -8.85 -3.2 -9.4 M-2.75 -4.9 L-2.6 -4.9 -2.7 -4.6 Q-2.95 -4.6 -3.25 -4.45 -3.5 -4.3 -3.6 -4.1 -3.75 -3.85 -3.6 -3.7 -3.45 -3.5 -3.0 -3.55 L-3.05 -3.45 -3.75 -3.5 Q-3.75 -3.6 -4.05 -3.8 L-4.1 -3.85 Q-4.05 -3.9 -4.05 -3.95 L-4.05 -4.0 -3.65 -4.25 Q-3.3 -4.55 -3.35 -4.8 -3.35 -4.85 -3.8 -5.2 L-4.1 -5.45 -4.35 -5.65 -4.2 -5.65 Q-4.15 -5.45 -3.8 -5.25 -3.15 -4.9 -2.75 -4.9 M-3.7 -2.2 L-3.75 -2.1 -4.15 -2.1 -4.25 -2.3 -3.7 -2.2" fill="#894361" fill-rule="evenodd" stroke="none"/>
  </g>
</svg>
