<?xml version="1.0" encoding="UTF-8" standalone="no"?>
<svg xmlns:ffdec="https://www.free-decompiler.com/flash" xmlns:xlink="http://www.w3.org/1999/xlink" ffdec:objectType="shape" height="19.5px" width="10.8px" xmlns="http://www.w3.org/2000/svg">
  <g transform="matrix(1.0, 0.0, 0.0, 1.0, 6.9, 21.2)">
    <path d="M-2.8 -17.4 Q-3.05 -18.15 -3.05 -18.45 -3.05 -19.1 -2.5 -19.9 -1.6 -21.2 0.05 -21.2 L0.4 -21.15 0.8 -21.0 Q1.55 -20.7 1.95 -20.25 L2.55 -19.4 Q2.95 -18.9 3.1 -18.6 3.25 -18.1 3.55 -16.8 3.9 -15.4 3.9 -14.7 3.9 -12.3 2.35 -10.4 L2.1 -10.1 2.1 -9.9 Q1.45 -8.95 0.8 -7.85 L0.4 -7.1 0.2 -6.7 0.2 -6.65 Q0.2 -6.35 0.25 -6.25 0.4 -5.85 0.6 -5.75 L0.8 -5.75 0.8 -5.45 Q0.8 -4.95 0.3 -4.35 L-0.25 -3.7 Q-0.25 -3.65 -1.1 -3.05 L-2.05 -2.4 Q-2.95 -1.95 -3.55 -1.8 L-4.6 -1.7 Q-4.85 -1.7 -5.2 -1.85 -5.5 -2.0 -5.6 -2.05 -5.95 -2.2 -6.25 -2.45 -6.9 -2.9 -6.9 -3.3 L-6.9 -3.45 -6.7 -3.45 -6.45 -3.4 -6.15 -3.35 Q-5.6 -3.35 -4.95 -3.9 -4.6 -4.15 -3.75 -5.05 L-3.35 -5.45 -2.6 -6.95 Q-1.7 -8.7 -1.7 -8.8 L-1.7 -8.85 Q-1.35 -9.65 -1.35 -10.05 L-1.4 -9.85 Q-2.05 -10.7 -3.1 -10.95 -4.5 -11.3 -5.55 -11.75 L-5.5 -11.8 -5.35 -11.8 -4.9 -11.85 Q-3.55 -11.8 -2.3 -11.2 -1.6 -10.85 -1.3 -10.35 L-1.3 -10.55 -1.25 -10.7 -1.25 -10.8 -1.2 -11.0 -1.15 -11.35 -1.15 -11.4 -1.1 -11.4 -1.1 -11.7 Q-1.15 -12.35 -1.3 -13.05 L-1.3 -13.1 -1.4 -13.4 -1.5 -13.85 -1.5 -13.9 -1.5 -13.95 -1.9 -14.9 -2.25 -15.85 -2.3 -16.0 -2.7 -17.05 -2.8 -17.4 M1.9 -19.4 Q1.15 -20.15 0.05 -20.6 0.0 -20.55 -0.05 -20.55 -0.1 -20.55 -0.1 -20.65 L-0.25 -20.6 Q-0.45 -20.45 -0.6 -20.45 -1.45 -20.45 -2.0 -19.55 -2.35 -18.9 -2.35 -18.25 -2.35 -18.1 -2.15 -17.3 L-1.95 -16.4 Q-1.95 -16.2 -1.7 -15.65 L-1.2 -14.5 Q-0.45 -12.75 -0.45 -11.35 -0.45 -10.3 -0.9 -9.1 -1.1 -8.65 -1.45 -7.9 L-1.45 -7.85 Q-1.5 -7.7 -1.6 -7.65 L-1.95 -7.0 -2.35 -6.3 Q-2.0 -6.5 -1.7 -6.6 -1.3 -6.75 -0.95 -6.75 L-0.9 -6.75 -0.75 -6.9 -0.65 -7.2 Q-0.3 -7.85 0.2 -8.6 L0.25 -8.7 Q1.0 -9.8 1.7 -10.65 2.4 -11.6 2.65 -12.1 3.4 -13.5 3.4 -14.8 3.4 -16.9 2.8 -18.15 L2.75 -18.2 2.7 -18.35 2.65 -18.4 1.9 -19.4 M-1.2 -6.15 Q-1.5 -6.1 -1.8 -6.05 -2.0 -5.95 -2.4 -5.7 L-2.65 -5.5 -3.3 -4.95 Q-3.45 -4.8 -3.75 -4.45 -4.05 -4.0 -4.25 -3.8 -5.0 -3.05 -6.2 -3.05 -5.8 -2.7 -5.7 -2.65 L-4.55 -2.35 Q-3.1 -2.45 -1.55 -3.45 -0.55 -4.15 -0.05 -4.8 -0.35 -5.0 -0.6 -5.5 -0.8 -5.9 -0.9 -6.2 L-1.2 -6.15" fill="#000000" fill-rule="evenodd" stroke="none"/>
    <path d="M1.9 -19.4 L1.8 -19.5 Q1.4 -19.45 1.2 -19.2 1.0 -18.95 1.0 -18.75 L0.9 -17.5 0.8 -16.5 Q0.8 -16.2 0.85 -15.85 1.0 -15.25 1.3 -15.25 L1.6 -15.25 1.95 -15.35 Q2.0 -15.25 2.25 -14.95 2.4 -14.7 2.4 -14.5 2.4 -13.2 0.45 -10.45 L-0.9 -8.55 Q-1.5 -7.65 -1.5 -7.25 -1.5 -7.1 -1.6 -6.9 L-1.7 -6.6 Q-2.0 -6.5 -2.35 -6.3 L-1.95 -7.0 -1.6 -7.65 Q-1.5 -7.7 -1.45 -7.85 L-1.45 -7.9 Q-1.1 -8.65 -0.9 -9.1 -0.45 -10.3 -0.45 -11.35 -0.45 -12.75 -1.2 -14.5 L-1.7 -15.65 Q-1.95 -16.2 -1.95 -16.4 L-2.15 -17.3 Q-2.35 -18.1 -2.35 -18.25 -2.35 -18.9 -2.0 -19.55 -1.45 -20.45 -0.6 -20.45 -0.45 -20.45 -0.25 -20.6 L-0.1 -20.65 Q-0.1 -20.55 -0.05 -20.55 0.0 -20.55 0.05 -20.6 1.15 -20.15 1.9 -19.4 M-0.65 -7.2 Q-0.5 -7.85 0.05 -8.5 L0.25 -8.7 0.2 -8.6 Q-0.3 -7.85 -0.65 -7.2 M1.45 -12.65 Q1.55 -12.7 1.55 -12.85 L1.25 -13.05 1.0 -13.0 Q0.8 -12.9 0.8 -12.75 0.8 -12.6 0.85 -12.55 L1.0 -12.5 Q1.35 -12.45 1.45 -12.65 M2.3 -14.45 Q2.3 -14.95 1.8 -14.8 1.3 -14.65 1.3 -14.15 1.3 -13.7 1.45 -13.2 L1.7 -13.1 Q2.0 -13.25 2.15 -13.7 2.3 -14.05 2.3 -14.45" fill="#8c1c1c" fill-rule="evenodd" stroke="none"/>
    <path d="M-1.7 -6.6 L-1.6 -6.9 Q-1.5 -7.1 -1.5 -7.25 -1.5 -7.65 -0.9 -8.55 L0.45 -10.45 Q2.4 -13.2 2.4 -14.5 2.4 -14.7 2.25 -14.95 2.0 -15.25 1.95 -15.35 L1.6 -15.25 1.3 -15.25 Q1.0 -15.25 0.85 -15.85 0.8 -16.2 0.8 -16.5 L0.9 -17.5 1.0 -18.75 Q1.0 -18.95 1.2 -19.2 1.4 -19.45 1.8 -19.5 L1.9 -19.4 2.65 -18.4 2.7 -18.35 2.75 -18.2 2.8 -18.15 Q3.4 -16.9 3.4 -14.8 3.4 -13.5 2.65 -12.1 2.4 -11.6 1.7 -10.65 1.0 -9.8 0.25 -8.7 L0.05 -8.5 Q-0.5 -7.85 -0.65 -7.2 L-0.75 -6.9 -0.9 -6.75 -0.95 -6.75 Q-1.3 -6.75 -1.7 -6.6 M2.3 -14.45 Q2.3 -14.05 2.15 -13.7 2.0 -13.25 1.7 -13.1 L1.45 -13.2 Q1.3 -13.7 1.3 -14.15 1.3 -14.65 1.8 -14.8 2.3 -14.95 2.3 -14.45 M1.45 -12.65 Q1.35 -12.45 1.0 -12.5 L0.85 -12.55 Q0.8 -12.6 0.8 -12.75 0.8 -12.9 1.0 -13.0 L1.25 -13.05 1.55 -12.85 Q1.55 -12.7 1.45 -12.65" fill="#4d0f0f" fill-rule="evenodd" stroke="none"/>
    <path d="M-1.2 -6.15 L-0.9 -6.2 Q-0.8 -5.9 -0.6 -5.5 -0.35 -5.0 -0.05 -4.8 -0.55 -4.15 -1.55 -3.45 -3.1 -2.45 -4.55 -2.35 L-5.7 -2.65 Q-5.8 -2.7 -6.2 -3.05 -5.0 -3.05 -4.25 -3.8 -4.05 -4.0 -3.75 -4.45 -3.45 -4.8 -3.3 -4.95 L-2.65 -5.5 -2.4 -5.7 Q-2.0 -5.95 -1.8 -6.05 -1.5 -6.1 -1.2 -6.15 M-0.7 -4.45 Q-0.55 -4.6 -0.55 -4.75 -0.55 -5.0 -0.75 -5.1 -0.95 -5.2 -0.95 -4.95 -0.95 -4.85 -1.05 -4.6 L-1.2 -4.25 -1.15 -4.15 -1.1 -4.15 Q-0.9 -4.25 -0.7 -4.45 M-1.5 -3.8 Q-1.5 -3.95 -1.55 -4.0 L-1.7 -3.95 Q-1.75 -3.95 -1.75 -3.85 L-1.7 -3.75 -1.65 -3.75 -1.5 -3.8" fill="#333333" fill-rule="evenodd" stroke="none"/>
    <path d="M-1.5 -3.8 L-1.65 -3.75 -1.7 -3.75 -1.75 -3.85 Q-1.75 -3.95 -1.7 -3.95 L-1.55 -4.0 Q-1.5 -3.95 -1.5 -3.8 M-0.7 -4.45 Q-0.9 -4.25 -1.1 -4.15 L-1.15 -4.15 -1.2 -4.25 -1.05 -4.6 Q-0.95 -4.85 -0.95 -4.95 -0.95 -5.2 -0.75 -5.1 -0.55 -5.0 -0.55 -4.75 -0.55 -4.6 -0.7 -4.45" fill="#999999" fill-rule="evenodd" stroke="none"/>
    <path d="M-5.35 -11.8 Q-5.25 -12.8 -4.85 -13.75 -4.65 -14.35 -4.3 -14.95 L-3.4 -16.7 Q-3.25 -16.8 -3.15 -17.0 -3.1 -17.05 -3.05 -17.1 L-3.05 -17.25 -2.95 -17.5 Q-2.85 -17.5 -2.8 -17.4 L-2.7 -17.05 -2.3 -16.0 -2.25 -15.85 -1.9 -14.9 -1.95 -15.05 Q-2.55 -15.4 -3.2 -15.4 -3.1 -14.6 -2.45 -13.95 -1.9 -13.45 -1.35 -13.1 L-1.3 -13.05 Q-1.15 -12.35 -1.1 -11.7 L-1.15 -11.75 -1.45 -12.15 Q-2.3 -13.1 -3.35 -13.2 -3.3 -12.4 -2.45 -11.95 -2.0 -11.7 -1.6 -11.35 L-1.2 -11.0 -1.25 -10.8 -1.25 -10.7 -1.3 -10.55 -1.3 -10.35 Q-1.6 -10.85 -2.3 -11.2 -3.55 -11.8 -4.9 -11.85 L-5.35 -11.8" fill="#e6c89c" fill-rule="evenodd" stroke="none"/>
    <path d="M-1.9 -14.9 L-1.5 -13.95 -1.5 -13.9 -1.5 -13.85 -1.4 -13.4 -1.3 -13.1 -1.35 -13.1 Q-1.9 -13.45 -2.45 -13.95 -3.1 -14.6 -3.2 -15.4 -2.55 -15.4 -1.95 -15.05 L-1.9 -14.9 M-1.1 -11.7 L-1.1 -11.4 -1.15 -11.4 -1.15 -11.35 -1.2 -11.0 -1.6 -11.35 Q-2.0 -11.7 -2.45 -11.95 -3.3 -12.4 -3.35 -13.2 -2.3 -13.1 -1.45 -12.15 L-1.15 -11.75 -1.1 -11.7" fill="#bfa681" fill-rule="evenodd" stroke="none"/>
  </g>
</svg>
