<?xml version="1.0" encoding="UTF-8" standalone="no"?>
<svg xmlns:ffdec="https://www.free-decompiler.com/flash" xmlns:xlink="http://www.w3.org/1999/xlink" ffdec:objectType="shape" height="25.0px" width="10.8px" xmlns="http://www.w3.org/2000/svg">
  <g transform="matrix(1.0, 0.0, 0.0, 1.0, 5.05, 22.3)">
    <path d="M5.2 -14.45 Q5.2 -14.25 4.9 -13.6 L4.3 -12.15 Q3.4 -9.9 3.4 -8.1 L3.85 -6.95 4.5 -5.8 5.75 -3.35 Q5.75 -2.95 5.6 -2.8 5.5 -2.7 5.35 -2.7 L4.5 -2.75 3.65 -2.85 Q3.2 -2.85 2.95 -2.45 2.7 -2.1 2.7 -1.45 L2.7 -1.35 2.9 -1.05 Q3.55 -0.25 3.85 0.0 L4.75 0.65 Q5.4 1.1 5.4 1.25 5.4 1.85 4.1 2.2 3.45 2.35 2.75 2.4 2.0 2.4 1.05 1.95 L0.1 1.55 Q-0.3 1.55 -0.8 1.85 L-1.25 2.1 -1.4 2.2 Q-2.1 2.7 -2.15 2.7 -2.6 2.7 -2.95 1.7 -3.25 0.7 -3.25 -0.45 -3.25 -1.45 -2.95 -2.85 -3.3 -3.25 -3.95 -3.75 -4.9 -4.4 -5.05 -5.1 -5.2 -5.8 -4.1 -5.8 L-2.7 -5.7 Q-2.6 -5.7 -2.4 -5.75 L-2.1 -5.9 -1.9 -6.55 -1.8 -6.75 Q-2.9 -7.6 -2.6 -8.05 -2.4 -8.4 -1.35 -8.4 L-1.25 -8.4 -1.15 -8.7 Q-1.35 -8.8 -1.65 -9.0 -2.3 -9.4 -2.55 -9.8 -3.3 -11.0 -0.5 -11.0 L-0.5 -11.3 Q-0.5 -12.15 -0.95 -13.15 L-1.85 -14.95 Q-3.1 -17.4 -2.6 -19.75 L-2.55 -19.8 -2.55 -19.75 Q-2.35 -20.95 -1.4 -21.6 -0.4 -22.3 1.05 -22.3 1.75 -22.3 3.5 -19.0 5.2 -15.75 5.2 -14.45 M-1.85 1.8 L-1.8 1.8 -1.8 1.75 -1.7 1.7 -1.5 1.5 -0.7 1.05 -0.45 0.95 0.0 0.9 0.3 0.95 0.5 1.0 1.1 1.4 Q1.45 1.6 1.8 1.7 L1.85 1.75 Q2.25 1.9 2.65 1.9 2.9 1.9 3.6 1.65 4.4 1.4 4.55 1.25 L4.05 0.8 3.1 -0.1 Q2.25 -0.85 2.05 -1.15 1.95 -1.25 1.95 -1.35 L2.0 -1.5 Q1.95 -1.85 2.15 -2.3 2.35 -2.8 2.65 -3.15 2.85 -3.45 3.1 -3.5 L3.25 -3.55 4.0 -3.45 4.3 -3.4 5.05 -3.35 4.4 -4.4 3.65 -5.75 3.15 -6.6 Q2.7 -7.55 2.7 -7.8 2.7 -7.95 2.75 -8.05 L2.75 -8.15 Q2.75 -9.55 3.0 -10.2 L3.3 -10.85 Q3.5 -11.3 3.65 -11.85 L4.05 -13.1 Q4.45 -14.3 4.45 -14.55 4.45 -15.9 2.85 -18.95 1.3 -22.0 0.6 -22.0 -0.15 -22.0 -0.85 -21.6 L-1.1 -21.4 Q-1.95 -21.15 -2.25 -20.3 -2.65 -19.25 -2.15 -17.55 -2.0 -17.0 -1.8 -16.5 -1.6 -15.5 -1.5 -15.15 -1.5 -15.05 -0.75 -13.85 0.0 -12.55 0.0 -11.95 0.0 -10.55 -0.4 -9.0 -0.65 -8.05 -1.35 -6.25 -2.05 -4.4 -2.3 -3.5 -2.75 -1.9 -2.75 -0.5 -2.75 1.0 -2.05 1.9 L-1.85 1.8 M-0.95 -9.3 Q-0.7 -9.95 -0.6 -10.45 -0.75 -10.45 -0.9 -10.55 L-1.6 -10.45 -2.25 -10.35 Q-2.4 -10.35 -2.45 -10.3 L-2.45 -10.1 Q-2.25 -9.85 -1.55 -9.45 -1.2 -9.3 -1.0 -9.1 L-0.95 -9.3 M-2.25 -7.85 Q-2.25 -7.55 -1.8 -7.15 L-1.7 -7.05 -1.4 -7.95 -1.55 -7.95 Q-2.1 -7.95 -2.25 -7.85 M-2.25 -5.4 L-3.55 -5.45 -4.0 -5.4 -4.55 -5.25 -3.4 -4.25 -2.75 -3.65 -2.25 -5.4" fill="#121212" fill-rule="evenodd" stroke="none"/>
    <path d="M0.25 -14.15 Q0.45 -14.0 0.45 -13.9 L0.35 -13.9 Q0.2 -13.9 0.1 -14.1 0.0 -14.25 0.0 -14.35 L0.25 -14.15 M-1.85 1.8 L-1.9 1.8 -1.9 1.4 Q-1.9 0.4 -1.45 -1.0 L-1.45 -1.4 -1.4 -1.4 Q-1.3 -4.3 -0.05 -6.45 0.7 -7.7 0.8 -7.95 1.15 -8.8 1.15 -9.75 1.15 -10.95 0.9 -12.25 0.75 -13.05 0.6 -13.45 1.0 -13.25 1.25 -12.5 1.6 -11.5 1.6 -9.9 1.6 -8.6 0.95 -6.4 1.75 -7.95 2.15 -8.9 2.1 -10.2 1.2 -13.5 L0.15 -17.05 Q0.7 -16.85 1.35 -15.8 L2.45 -14.7 1.75 -16.4 Q0.35 -19.7 -0.15 -20.6 -0.45 -21.05 -0.85 -21.6 -0.15 -22.0 0.6 -22.0 1.3 -22.0 2.85 -18.95 4.45 -15.9 4.45 -14.55 4.45 -14.3 4.05 -13.1 L3.65 -11.85 Q3.5 -11.3 3.3 -10.85 L3.0 -10.2 Q2.75 -9.55 2.75 -8.15 L2.75 -8.05 Q2.7 -7.95 2.7 -7.8 2.7 -7.55 3.15 -6.6 L3.65 -5.75 Q3.25 -5.7 3.15 -5.25 3.05 -4.95 3.05 -3.9 3.05 -3.7 3.1 -3.5 2.85 -3.45 2.65 -3.15 2.35 -2.8 2.15 -2.3 1.95 -1.85 2.0 -1.5 L1.95 -1.35 Q1.95 -1.25 2.05 -1.15 L1.85 -1.2 Q1.3 -1.2 0.9 -0.7 0.5 -0.3 0.35 0.35 0.3 0.65 0.3 0.95 L0.0 0.9 -0.45 0.95 -0.7 1.05 -1.5 1.5 -1.7 1.7 -1.8 1.75 -1.8 1.8 -1.85 1.8" fill="#4d0f0f" fill-rule="evenodd" stroke="none"/>
    <path d="M0.25 -14.15 L0.0 -14.35 Q0.0 -14.25 0.1 -14.1 0.2 -13.9 0.35 -13.9 L0.45 -13.9 Q0.45 -14.0 0.25 -14.15 M-0.85 -21.6 Q-0.45 -21.05 -0.15 -20.6 0.35 -19.7 1.75 -16.4 L2.45 -14.7 1.35 -15.8 Q0.7 -16.85 0.15 -17.05 L1.2 -13.5 Q2.1 -10.2 2.15 -8.9 1.75 -7.95 0.95 -6.4 1.6 -8.6 1.6 -9.9 1.6 -11.5 1.25 -12.5 1.0 -13.25 0.6 -13.45 0.75 -13.05 0.9 -12.25 1.15 -10.95 1.15 -9.75 1.15 -8.8 0.8 -7.95 0.7 -7.7 -0.05 -6.45 -1.3 -4.3 -1.4 -1.4 L-1.45 -1.4 -1.45 -1.0 Q-1.9 0.4 -1.9 1.4 L-1.9 1.8 -1.85 1.8 -2.05 1.9 Q-2.75 1.0 -2.75 -0.5 -2.75 -1.9 -2.3 -3.5 -2.05 -4.4 -1.35 -6.25 -0.65 -8.05 -0.4 -9.0 0.0 -10.55 0.0 -11.95 0.0 -12.55 -0.75 -13.85 -1.5 -15.05 -1.5 -15.15 -1.6 -15.5 -1.8 -16.5 -2.0 -17.0 -2.15 -17.55 -2.65 -19.25 -2.25 -20.3 -1.95 -21.15 -1.1 -21.4 L-0.85 -21.6" fill="#8c1c1c" fill-rule="evenodd" stroke="none"/>
    <path d="M0.3 0.95 Q0.3 0.65 0.35 0.35 0.5 -0.3 0.9 -0.7 1.3 -1.2 1.85 -1.2 L2.05 -1.15 Q2.25 -0.85 3.1 -0.1 L4.05 0.8 4.55 1.25 Q4.4 1.4 3.6 1.65 2.9 1.9 2.65 1.9 2.25 1.9 1.85 1.75 L1.8 1.7 Q1.45 1.6 1.1 1.4 L0.5 1.0 0.3 0.95 M3.1 -3.5 Q3.05 -3.7 3.05 -3.9 3.05 -4.95 3.15 -5.25 3.25 -5.7 3.65 -5.75 L4.4 -4.4 5.05 -3.35 4.3 -3.4 4.0 -3.45 3.25 -3.55 3.1 -3.5" fill="#805619" fill-rule="evenodd" stroke="none"/>
    <path d="M-2.25 -5.4 L-2.75 -3.65 -3.4 -4.25 -4.55 -5.25 -4.0 -5.4 -3.55 -5.45 -2.25 -5.4 M-2.25 -7.85 Q-2.1 -7.95 -1.55 -7.95 L-1.4 -7.95 -1.7 -7.05 -1.8 -7.15 Q-2.25 -7.55 -2.25 -7.85 M-0.95 -9.3 L-1.0 -9.1 Q-1.2 -9.3 -1.55 -9.45 -2.25 -9.85 -2.45 -10.1 L-2.45 -10.3 Q-2.4 -10.35 -2.25 -10.35 L-1.6 -10.45 -0.9 -10.55 Q-0.75 -10.45 -0.6 -10.45 -0.7 -9.95 -0.95 -9.3" fill="#e8e3c1" fill-rule="evenodd" stroke="none"/>
  </g>
</svg>
