<?xml version="1.0" encoding="UTF-8" standalone="no"?>
<svg xmlns:ffdec="https://www.free-decompiler.com/flash" xmlns:xlink="http://www.w3.org/1999/xlink" ffdec:objectType="shape" height="23.3px" width="9.15px" xmlns="http://www.w3.org/2000/svg">
  <g transform="matrix(1.0, 0.0, 0.0, 1.0, 4.85, 21.25)">
    <path d="M2.75 -19.85 Q3.55 -19.05 3.8 -18.35 3.95 -18.15 4.0 -17.55 L4.05 -17.1 4.1 -16.75 4.1 -15.45 4.2 -14.5 4.2 -14.4 Q4.3 -13.8 4.3 -13.55 4.3 -12.15 4.05 -11.25 3.9 -10.6 3.4 -9.7 2.7 -8.45 2.45 -7.85 1.95 -6.85 1.6 -5.6 L1.55 -5.35 Q1.25 -3.8 1.25 -3.4 1.25 -3.15 1.35 -2.75 L1.45 -2.55 1.55 -2.3 1.85 -2.75 Q2.0 -3.05 2.25 -3.05 2.5 -3.05 2.5 -2.75 L2.45 -2.45 2.5 -2.25 2.45 -2.05 2.45 -2.0 Q2.45 -1.6 2.2 -1.05 L2.05 -0.8 2.95 -0.9 3.2 -0.9 3.25 -0.85 3.25 -0.75 Q3.25 -0.3 2.35 0.65 1.4 1.7 0.65 1.85 L0.6 1.75 -0.2 1.7 -1.0 1.6 Q-1.35 1.6 -2.45 1.8 L-3.65 2.05 Q-3.85 2.05 -3.8 2.0 L-3.85 2.0 -3.85 1.85 -4.3 1.4 Q-4.85 0.85 -4.85 0.75 L-4.75 0.35 -4.7 -0.05 -4.55 -0.45 -4.5 -0.55 -4.45 -0.95 -4.4 -1.4 -4.3 -1.8 Q-4.3 -2.9 -4.15 -3.55 L-4.05 -3.9 Q-4.2 -4.05 -4.35 -4.35 -4.55 -4.7 -4.7 -5.1 -4.55 -5.25 -4.3 -5.2 L-4.05 -5.1 -3.75 -5.15 -3.35 -5.3 -3.2 -5.5 -3.15 -5.5 Q-2.9 -6.1 -2.55 -6.75 L-2.8 -7.2 Q-3.1 -7.65 -3.1 -7.75 -3.1 -8.05 -3.0 -8.1 -2.85 -8.15 -2.35 -8.0 L-1.85 -8.15 -1.8 -8.35 -2.0 -8.65 Q-2.25 -9.0 -2.25 -9.15 -2.25 -9.25 -2.05 -9.3 L-1.45 -9.4 Q-1.15 -10.15 -1.05 -10.65 -0.95 -11.1 -0.85 -12.15 L-0.8 -12.9 -0.85 -13.05 -1.45 -13.8 Q-2.1 -14.35 -2.45 -15.25 L-2.6 -15.7 -2.65 -15.75 -2.75 -16.05 -2.8 -16.25 -2.8 -16.45 -2.85 -16.5 -2.85 -17.85 Q-2.8 -18.85 -2.55 -19.5 -2.2 -20.35 -1.6 -20.7 -1.45 -20.9 -0.45 -21.1 L-0.05 -21.15 Q0.6 -21.3 0.95 -21.2 1.1 -21.25 1.5 -20.95 2.05 -20.55 2.05 -20.5 L2.25 -20.3 2.75 -19.85 M2.9 -17.65 Q2.55 -18.75 1.9 -19.75 1.45 -20.35 0.65 -20.35 0.1 -20.3 -0.2 -20.45 -2.25 -19.7 -1.85 -16.95 L-1.65 -15.95 Q-0.8 -14.6 -0.55 -13.1 L-0.55 -13.2 Q0.2 -9.75 -1.8 -6.6 -2.55 -5.4 -3.05 -4.1 -3.3 -3.2 -3.4 -2.2 L-3.4 -2.05 Q-3.4 -1.9 -3.45 -1.65 L-3.5 -1.25 -3.5 -1.2 -3.6 -1.15 -3.6 -1.1 -3.8 -0.55 Q-4.2 0.55 -4.3 0.8 L-3.85 1.2 -3.75 1.3 -3.5 1.5 -3.45 1.55 -3.35 1.5 Q-2.8 1.25 -2.3 1.25 L-1.75 1.2 Q-1.05 1.05 -0.85 1.05 L0.1 1.15 1.05 1.2 Q1.45 1.2 2.15 0.25 L2.65 -0.4 Q2.35 -0.25 1.85 -0.25 L1.7 -0.25 1.6 -0.3 1.5 -0.3 1.2 -0.35 1.15 -0.55 1.2 -0.55 1.75 -1.2 1.95 -1.5 1.95 -1.55 2.0 -1.95 Q1.8 -1.8 1.55 -1.75 L1.45 -1.75 Q1.25 -1.75 1.1 -2.2 L1.05 -2.3 1.0 -2.3 Q0.95 -2.5 0.9 -2.8 0.8 -3.5 0.8 -4.0 0.8 -4.7 0.95 -5.5 L0.95 -5.55 Q0.95 -6.4 1.45 -7.5 L2.5 -9.65 Q2.85 -10.4 3.15 -11.8 L3.2 -12.1 3.1 -12.05 Q3.15 -12.3 3.15 -12.65 L3.15 -12.75 3.25 -12.9 Q3.2 -13.35 3.2 -13.95 L3.25 -14.7 Q3.3 -16.05 3.0 -17.3 L2.9 -17.65 M-1.85 -8.95 L-1.7 -8.65 -1.55 -9.0 -1.85 -8.95 M-2.55 -7.25 L-2.4 -7.0 -2.1 -7.55 -2.05 -7.65 -2.0 -7.8 -2.3 -7.65 -2.7 -7.75 -2.8 -7.65 -2.55 -7.25 M-4.15 -4.85 L-4.25 -4.8 -3.95 -4.4 -3.9 -4.35 -3.55 -4.95 -3.85 -4.85 -4.15 -4.85" fill="#121212" fill-rule="evenodd" stroke="none"/>
    <path d="M-3.85 1.2 Q-3.75 1.0 -3.5 0.75 -3.0 0.1 -3.0 -0.2 -3.0 -0.4 -2.55 -0.65 -2.45 -0.65 -2.3 -0.6 L-2.2 -0.35 Q-2.0 0.2 -1.6 0.2 -1.25 0.2 -0.4 -1.25 0.05 -1.95 0.4 -2.65 0.4 -2.85 0.15 -3.2 L-0.05 -3.5 -0.25 -4.2 -0.15 -4.75 Q-0.1 -5.2 -0.1 -5.3 -0.1 -5.45 0.3 -6.75 L0.7 -8.1 Q0.7 -8.35 0.75 -8.9 L0.8 -9.6 Q0.8 -10.35 1.0 -10.55 1.45 -11.05 1.8 -11.8 2.0 -12.25 2.15 -13.0 2.25 -13.75 2.4 -14.05 L2.45 -14.05 2.2 -15.0 2.3 -15.25 2.35 -15.5 Q2.35 -15.65 2.15 -15.8 1.95 -15.95 1.95 -16.25 1.95 -16.6 2.5 -17.25 L2.6 -17.35 2.55 -17.35 Q2.2 -17.35 2.1 -17.6 2.1 -17.75 2.1 -18.05 2.1 -18.35 2.45 -18.15 2.85 -17.9 2.85 -17.75 L2.85 -17.65 2.8 -17.55 2.9 -17.65 3.0 -17.3 Q3.3 -16.05 3.25 -14.7 L3.2 -13.95 Q3.2 -13.35 3.25 -12.9 L3.15 -12.75 3.15 -12.65 Q3.15 -12.3 3.1 -12.05 L3.2 -12.1 3.15 -11.8 Q2.85 -10.4 2.5 -9.65 L1.45 -7.5 Q0.95 -6.4 0.95 -5.55 L0.95 -5.5 Q0.8 -4.7 0.8 -4.0 0.8 -3.5 0.9 -2.8 0.95 -2.5 1.0 -2.3 L1.05 -2.3 1.1 -2.2 Q1.25 -1.75 1.45 -1.75 L1.55 -1.75 Q1.8 -1.8 2.0 -1.95 L1.95 -1.55 1.95 -1.5 1.75 -1.2 1.2 -0.55 1.15 -0.55 1.2 -0.35 1.5 -0.3 1.6 -0.3 1.7 -0.25 1.85 -0.25 Q2.35 -0.25 2.65 -0.4 L2.15 0.25 Q1.45 1.2 1.05 1.2 L0.1 1.15 -0.85 1.05 Q-1.05 1.05 -1.75 1.2 L-2.3 1.25 Q-2.8 1.25 -3.35 1.5 L-3.45 1.55 -3.5 1.5 -3.75 1.3 -3.85 1.2 M-3.5 -1.25 L-3.45 -1.3 -3.35 -1.3 -3.5 -1.2 -3.5 -1.25 M1.05 -15.35 Q1.05 -15.85 1.4 -16.0 1.75 -16.15 1.75 -15.55 1.75 -15.4 1.65 -15.2 1.55 -14.95 1.25 -14.95 1.15 -14.95 1.1 -15.15 L1.05 -15.35 M1.65 -13.55 Q1.65 -14.1 1.95 -14.15 2.2 -14.2 2.2 -13.8 2.2 -13.75 2.1 -13.5 1.9 -13.3 1.8 -13.3 1.7 -13.3 1.65 -13.4 L1.65 -13.55 M0.9 -1.05 L0.85 -1.2 Q0.8 -1.35 0.7 -1.35 0.5 -1.35 0.15 -0.9 -0.15 -0.5 -0.15 -0.35 L-0.15 -0.2 -0.1 -0.2 Q-0.15 -0.2 0.0 -0.2 L0.25 -0.2 Q0.35 -0.25 0.35 -0.4 L0.65 -0.75 0.9 -1.05" fill="#4d0f0f" fill-rule="evenodd" stroke="none"/>
    <path d="M0.4 -19.7 L0.85 -19.7 0.85 -19.6 Q0.85 -19.4 0.25 -19.35 L0.2 -19.4 Q0.2 -19.45 0.2 -19.55 0.2 -19.7 0.4 -19.7 M0.05 -18.85 Q0.0 -18.75 -0.2 -18.75 L-0.3 -18.8 -0.3 -18.85 -0.35 -18.95 Q-0.35 -19.15 -0.15 -19.15 0.05 -19.2 0.05 -18.95 L0.05 -18.85 M-0.15 -19.65 Q-0.15 -19.6 -0.35 -19.35 -0.55 -19.1 -0.7 -19.05 L-0.85 -19.1 -0.9 -19.2 -0.9 -19.4 Q-0.9 -19.6 -0.8 -19.7 -0.65 -19.85 -0.3 -19.85 -0.15 -19.85 -0.15 -19.65 M-0.9 -18.65 Q-0.9 -18.5 -0.95 -18.4 -1.0 -18.25 -1.15 -18.2 -1.3 -18.3 -1.3 -18.55 -1.3 -18.8 -1.1 -18.85 -0.9 -18.85 -0.9 -18.65 M-1.05 -17.7 Q-1.05 -17.65 -1.1 -17.55 -1.15 -17.4 -1.3 -17.35 L-1.4 -17.45 -1.45 -17.55 Q-1.45 -17.8 -1.25 -17.85 -1.05 -17.85 -1.05 -17.7 M-0.55 -18.3 Q-0.45 -18.3 -0.45 -18.2 L-0.45 -18.1 -0.6 -18.1 -0.65 -18.15 -0.65 -18.2 Q-0.65 -18.35 -0.55 -18.3 M-1.85 -5.75 L-1.85 -5.65 -1.9 -5.55 -2.1 -5.55 -2.1 -5.6 -2.15 -5.75 Q-2.15 -5.8 -2.1 -5.85 L-1.9 -5.85 Q-1.85 -5.85 -1.85 -5.75 M-1.95 -5.35 L-2.0 -5.2 -2.05 -5.15 -2.15 -5.25 Q-2.2 -5.1 -2.25 -4.9 -2.35 -4.75 -2.4 -4.65 L-2.55 -4.75 -2.6 -4.85 Q-2.45 -5.35 -2.2 -5.35 L-1.95 -5.4 -1.95 -5.35 M-1.8 -5.1 Q-1.55 -5.0 -1.55 -4.8 L-1.6 -4.65 -1.6 -4.7 -1.65 -4.6 Q-1.7 -4.6 -1.8 -4.55 L-2.0 -4.75 -2.05 -4.9 Q-2.05 -5.15 -1.8 -5.1 M-2.2 -4.25 Q-2.35 -4.05 -2.5 -3.95 L-2.6 -4.0 Q-2.7 -4.05 -2.7 -4.2 -2.7 -4.3 -2.6 -4.35 L-2.35 -4.35 -2.2 -4.25" fill="#cc8a28" fill-rule="evenodd" stroke="none"/>
    <path d="M0.05 -18.85 L0.05 -18.95 Q0.05 -19.2 -0.15 -19.15 -0.35 -19.15 -0.35 -18.95 L-0.3 -18.85 -0.3 -18.8 -0.2 -18.75 Q0.0 -18.75 0.05 -18.85 M0.4 -19.7 Q0.2 -19.7 0.2 -19.55 0.2 -19.45 0.2 -19.4 L0.25 -19.35 Q0.85 -19.4 0.85 -19.6 L0.85 -19.7 0.4 -19.7 M2.9 -17.65 L2.8 -17.55 2.85 -17.65 2.85 -17.75 Q2.85 -17.9 2.45 -18.15 2.1 -18.35 2.1 -18.05 2.1 -17.75 2.1 -17.6 2.2 -17.35 2.55 -17.35 L2.6 -17.35 2.5 -17.25 Q1.95 -16.6 1.95 -16.25 1.95 -15.95 2.15 -15.8 2.35 -15.65 2.35 -15.5 L2.3 -15.25 2.2 -15.0 2.45 -14.05 2.4 -14.05 Q2.25 -13.75 2.15 -13.0 2.0 -12.25 1.8 -11.8 1.45 -11.05 1.0 -10.55 0.8 -10.35 0.8 -9.6 L0.75 -8.9 Q0.7 -8.35 0.7 -8.1 L0.3 -6.75 Q-0.1 -5.45 -0.1 -5.3 -0.1 -5.2 -0.15 -4.75 L-0.25 -4.2 -0.05 -3.5 0.15 -3.2 Q0.4 -2.85 0.4 -2.65 0.05 -1.95 -0.4 -1.25 -1.25 0.2 -1.6 0.2 -2.0 0.2 -2.2 -0.35 L-2.3 -0.6 Q-2.45 -0.65 -2.55 -0.65 -3.0 -0.4 -3.0 -0.2 -3.0 0.1 -3.5 0.75 -3.75 1.0 -3.85 1.2 L-4.3 0.8 Q-4.2 0.55 -3.8 -0.55 L-3.6 -1.1 -3.6 -1.15 -3.5 -1.2 -3.35 -1.3 -3.45 -1.3 -3.5 -1.25 -3.45 -1.65 Q-3.4 -1.9 -3.4 -2.05 L-3.4 -2.2 Q-3.3 -3.2 -3.05 -4.1 -2.55 -5.4 -1.8 -6.6 0.2 -9.75 -0.55 -13.2 L-0.55 -13.1 Q-0.8 -14.6 -1.65 -15.95 L-1.85 -16.95 Q-2.25 -19.7 -0.2 -20.45 0.1 -20.3 0.65 -20.35 1.45 -20.35 1.9 -19.75 2.55 -18.75 2.9 -17.65 M1.65 -13.55 L1.65 -13.4 Q1.7 -13.3 1.8 -13.3 1.9 -13.3 2.1 -13.5 2.2 -13.75 2.2 -13.8 2.2 -14.2 1.95 -14.15 1.65 -14.1 1.65 -13.55 M1.05 -15.35 L1.1 -15.15 Q1.15 -14.95 1.25 -14.95 1.55 -14.95 1.65 -15.2 1.75 -15.4 1.75 -15.55 1.75 -16.15 1.4 -16.0 1.05 -15.85 1.05 -15.35 M0.9 -1.05 L0.65 -0.75 0.35 -0.4 Q0.35 -0.25 0.25 -0.2 L0.0 -0.2 Q-0.15 -0.2 -0.1 -0.2 L-0.15 -0.2 -0.15 -0.35 Q-0.15 -0.5 0.15 -0.9 0.5 -1.35 0.7 -1.35 0.8 -1.35 0.85 -1.2 L0.9 -1.05 M-0.55 -18.3 Q-0.65 -18.35 -0.65 -18.2 L-0.65 -18.15 -0.6 -18.1 -0.45 -18.1 -0.45 -18.2 Q-0.45 -18.3 -0.55 -18.3 M-1.05 -17.7 Q-1.05 -17.85 -1.25 -17.85 -1.45 -17.8 -1.45 -17.55 L-1.4 -17.45 -1.3 -17.35 Q-1.15 -17.4 -1.1 -17.55 -1.05 -17.65 -1.05 -17.7 M-0.9 -18.65 Q-0.9 -18.85 -1.1 -18.85 -1.3 -18.8 -1.3 -18.55 -1.3 -18.3 -1.15 -18.2 -1.0 -18.25 -0.95 -18.4 -0.9 -18.5 -0.9 -18.65 M-0.15 -19.65 Q-0.15 -19.85 -0.3 -19.85 -0.65 -19.85 -0.8 -19.7 -0.9 -19.6 -0.9 -19.4 L-0.9 -19.2 -0.85 -19.1 -0.7 -19.05 Q-0.55 -19.1 -0.35 -19.35 -0.15 -19.6 -0.15 -19.65 M-1.85 -5.75 Q-1.85 -5.85 -1.9 -5.85 L-2.1 -5.85 Q-2.15 -5.8 -2.15 -5.75 L-2.1 -5.6 -2.1 -5.55 -1.9 -5.55 -1.85 -5.65 -1.85 -5.75 M-1.95 -5.35 L-1.95 -5.4 -2.2 -5.35 Q-2.45 -5.35 -2.6 -4.85 L-2.55 -4.75 -2.4 -4.65 Q-2.35 -4.75 -2.25 -4.9 -2.2 -5.1 -2.15 -5.25 L-2.05 -5.15 -2.0 -5.2 -1.95 -5.35 M-2.2 -4.25 L-2.35 -4.35 -2.6 -4.35 Q-2.7 -4.3 -2.7 -4.2 -2.7 -4.05 -2.6 -4.0 L-2.5 -3.95 Q-2.35 -4.05 -2.2 -4.25 M-1.8 -5.1 Q-2.05 -5.15 -2.05 -4.9 L-2.0 -4.75 -1.8 -4.55 Q-1.7 -4.6 -1.65 -4.6 L-1.6 -4.7 -1.6 -4.65 -1.55 -4.8 Q-1.55 -5.0 -1.8 -5.1" fill="#8c1c1c" fill-rule="evenodd" stroke="none"/>
    <path d="M-2.55 -7.25 L-2.8 -7.65 -2.7 -7.75 -2.3 -7.65 -2.0 -7.8 -2.05 -7.65 -2.1 -7.55 -2.4 -7.0 -2.55 -7.25 M-1.85 -8.95 L-1.55 -9.0 -1.7 -8.65 -1.85 -8.95 M-4.15 -4.85 L-3.85 -4.85 -3.55 -4.95 -3.9 -4.35 -3.95 -4.4 -4.25 -4.8 -4.15 -4.85" fill="#e6d7c3" fill-rule="evenodd" stroke="none"/>
  </g>
</svg>
