<?xml version="1.0" encoding="UTF-8" standalone="no"?>
<svg xmlns:ffdec="https://www.free-decompiler.com/flash" xmlns:xlink="http://www.w3.org/1999/xlink" ffdec:objectType="shape" height="26.1px" width="19.2px" xmlns="http://www.w3.org/2000/svg">
  <g transform="matrix(1.0, 0.0, 0.0, 1.0, -1.7, -8.5)">
    <path d="M12.4 10.95 L12.4 10.6 12.35 10.6 Q12.1 10.6 11.95 10.75 11.85 10.85 11.85 11.0 11.85 11.05 11.9 11.1 12.0 11.15 12.1 11.15 12.3 11.15 12.4 10.95 M12.6 10.45 Q12.65 10.5 12.75 10.55 L12.85 10.5 12.85 10.4 Q12.75 10.25 12.55 10.25 L12.5 10.35 12.6 10.45 M12.1 10.2 Q12.1 9.9 11.8 9.85 11.55 9.75 11.55 10.15 11.65 10.4 11.8 10.4 12.1 10.4 12.1 10.2 M13.6 19.4 Q14.1 18.1 14.1 17.55 14.1 17.1 14.45 16.7 L15.2 15.9 Q16.25 14.85 16.25 13.45 L16.2 13.25 16.1 13.0 Q16.1 12.5 15.75 11.8 15.2 10.9 14.5 10.9 14.35 10.9 14.25 10.95 14.15 11.05 14.15 11.15 L14.35 11.65 Q14.55 12.1 14.55 12.55 14.55 13.55 14.3 14.3 14.0 15.25 13.15 16.4 12.8 17.5 12.35 18.4 11.45 20.2 10.15 20.2 9.85 20.2 9.25 19.95 9.0 19.95 8.85 19.75 8.75 19.6 8.6 19.6 8.55 19.6 8.5 19.6 8.15 17.55 8.15 15.6 8.15 15.05 8.5 14.05 8.85 12.9 9.45 11.9 11.05 9.25 13.15 9.25 15.1 9.25 17.3 12.4 17.75 13.1 18.25 13.95 17.65 14.1 17.35 14.95 17.25 15.25 17.2 15.65 L17.15 16.0 Q17.15 16.3 17.25 16.6 17.45 17.1 17.75 17.1 17.95 17.1 18.25 16.85 18.65 16.5 18.7 16.5 19.1 17.15 19.25 17.6 19.4 18.15 19.4 18.9 19.4 19.4 19.35 19.7 L19.3 19.5 Q19.2 19.15 19.0 19.15 18.65 19.15 18.55 19.5 L18.55 19.9 18.7 20.2 18.8 20.3 18.65 20.3 18.4 20.4 Q16.8 20.65 15.2 22.85 14.6 23.7 14.2 24.55 13.8 25.3 13.8 25.6 13.8 25.7 13.85 25.7 L13.9 25.7 14.0 25.65 14.75 24.6 Q15.2 23.95 15.6 23.5 16.0 23.0 16.5 22.55 16.25 23.0 16.0 23.55 L15.05 25.65 Q14.3 27.35 14.3 27.85 L14.2 28.15 Q14.05 28.45 14.05 28.6 L14.05 29.55 14.0 30.0 13.95 30.4 13.9 30.85 Q13.75 30.2 13.75 29.3 L13.65 28.55 Q13.65 27.85 13.55 27.85 13.45 27.85 13.3 28.35 12.95 29.55 12.95 30.8 12.95 31.05 13.2 32.05 12.8 32.45 12.15 32.8 12.05 32.4 11.85 32.4 11.7 32.4 11.55 32.5 11.4 32.6 11.4 32.7 11.4 32.8 11.5 32.9 11.55 33.0 11.7 33.05 L11.5 33.15 Q10.8 32.85 9.6 32.45 6.4 31.3 5.35 30.75 4.65 30.35 4.05 29.85 3.4 29.25 3.2 28.75 3.0 28.5 2.65 27.55 L2.6 27.4 2.55 26.75 Q2.55 26.4 2.6 25.8 3.85 25.7 5.6 24.8 7.5 23.85 7.5 23.15 L7.5 23.1 Q7.8 22.65 8.2 21.8 8.35 22.05 8.55 22.05 8.75 22.05 8.8 21.95 L8.85 21.9 Q9.1 22.1 9.65 22.1 L10.15 22.05 Q10.5 21.95 10.8 21.95 L11.05 21.85 11.3 21.8 Q11.45 21.8 11.7 21.6 11.9 21.45 12.2 21.4 L12.3 21.45 Q13.6 20.95 13.6 19.45 L13.6 19.4 M10.0 19.6 Q9.7 19.45 9.7 19.75 9.7 19.85 9.8 20.0 9.85 20.15 10.0 20.15 10.2 20.15 10.3 20.05 L10.35 19.95 Q10.35 19.75 10.0 19.6 M10.8 19.35 Q10.55 19.0 10.4 19.2 10.3 19.4 10.3 19.65 10.35 19.9 10.55 19.9 10.7 19.9 10.75 19.8 10.8 19.7 11.1 19.75 L11.15 19.65 11.2 19.5 11.2 19.4 11.15 19.35 10.8 19.35 M11.4 18.85 Q11.15 18.9 11.15 19.05 11.15 19.15 11.15 19.2 11.25 19.3 11.4 19.3 11.6 19.3 11.6 19.05 L11.6 18.95 Q11.55 18.85 11.4 18.85 M3.5 26.05 L3.55 26.25 3.5 26.25 Q3.25 26.25 3.25 26.4 3.25 26.5 3.3 26.55 L3.4 26.65 Q3.55 26.6 3.65 26.5 L3.7 26.35 3.95 26.35 Q4.1 26.3 4.1 26.15 4.1 26.0 3.8 25.9 3.5 25.8 3.5 26.05 M4.55 26.2 Q4.35 26.25 4.35 26.45 L4.35 26.55 4.4 26.6 4.5 26.65 4.7 26.6 4.7 26.45 4.65 26.3 4.55 26.2 M4.2 28.7 L4.15 28.65 3.7 27.95 Q3.85 27.95 3.9 27.85 L3.95 27.55 3.9 27.45 3.7 27.4 Q3.55 27.4 3.45 27.5 3.4 27.6 3.4 27.7 L3.45 27.85 3.45 28.0 Q4.2 29.65 4.6 29.65 4.7 29.65 4.75 29.55 5.0 29.7 5.25 29.7 L5.4 29.7 5.45 29.75 5.5 29.7 5.65 29.85 5.8 29.75 5.85 29.55 Q5.1 27.6 5.05 27.6 4.95 27.6 4.85 27.65 L4.8 27.65 Q4.6 27.65 4.45 27.75 4.3 27.85 4.3 28.0 L4.55 28.6 4.45 28.55 Q4.4 28.55 4.3 28.6 L4.2 28.7 M10.05 21.6 L10.05 21.6 M12.7 24.8 Q12.7 24.3 12.5 24.0 12.2 23.5 11.4 23.5 10.75 23.5 10.45 23.85 10.15 24.2 10.15 24.9 10.15 25.4 10.4 25.75 10.65 26.15 11.1 26.25 L11.1 26.3 Q11.05 26.7 11.5 26.8 11.85 27.05 12.05 27.05 L12.5 26.9 Q12.9 26.75 12.9 26.55 L12.85 26.4 Q12.75 26.35 12.7 26.35 L12.5 26.4 Q13.05 25.9 13.4 25.4 13.9 24.75 13.9 24.3 13.9 24.1 13.85 24.0 L13.95 23.75 14.1 23.3 14.05 22.9 Q14.0 22.55 13.8 22.55 13.25 23.95 12.7 24.8 M18.15 14.75 L18.15 14.85 Q18.1 14.95 17.95 14.95 L17.9 14.9 17.85 14.9 17.8 14.75 17.85 14.65 18.1 14.65 18.15 14.75 M18.0 15.35 L17.9 15.7 Q17.75 16.0 17.5 16.0 17.35 16.0 17.25 15.85 L17.2 15.65 Q17.2 15.5 17.3 15.3 17.45 14.95 17.7 14.95 17.8 14.95 17.9 15.1 18.0 15.25 18.0 15.35 M18.0 16.05 L18.05 16.1 18.05 16.2 Q18.05 16.45 17.85 16.45 L17.75 16.45 17.7 16.4 17.7 16.35 17.65 16.25 Q17.65 16.15 17.75 16.1 L18.0 16.05 M19.25 20.9 L19.4 20.75 19.4 20.8 19.3 20.9 19.25 20.9 M18.2 19.65 L18.2 19.6 Q18.0 19.45 17.9 19.55 17.75 19.6 17.75 19.7 17.75 19.8 17.8 19.8 L17.8 19.85 18.05 19.9 Q18.15 19.85 18.2 19.85 18.2 19.75 18.2 19.65 M19.25 18.55 L19.2 18.35 Q19.15 18.25 19.0 18.25 18.85 18.25 18.8 18.3 18.7 18.4 18.7 18.5 18.7 18.85 19.05 18.85 19.25 18.85 19.25 18.55 M18.15 17.35 Q18.15 17.5 18.4 17.65 L18.7 17.55 18.75 17.3 Q18.75 16.95 18.45 17.0 18.15 17.05 18.15 17.35 M13.0 18.1 Q13.05 18.15 13.05 18.2 L12.95 18.35 12.75 18.5 12.65 18.4 Q12.55 18.35 12.55 18.3 12.55 18.25 12.65 18.15 12.8 18.05 12.9 18.0 L13.0 18.1 M16.45 20.45 L16.3 20.5 Q16.2 20.55 16.2 20.65 16.2 20.7 16.25 20.75 L16.4 20.75 16.5 20.7 16.5 20.55 16.45 20.45 M15.8 21.15 L15.8 20.85 15.65 20.8 Q15.55 20.85 15.45 21.0 15.3 21.15 15.3 21.25 15.3 21.3 15.35 21.35 L15.45 21.4 Q15.7 21.35 15.8 21.15 M15.55 20.0 L15.45 20.0 Q15.45 20.05 15.45 20.1 L15.5 20.25 15.75 20.2 15.85 20.1 Q15.8 20.05 15.8 20.0 L15.55 20.0 M13.15 33.65 L12.95 33.7 13.15 33.65 M10.15 33.75 Q8.95 33.35 7.05 32.6 L7.0 32.55 6.65 32.4 7.6 32.8 Q9.1 33.4 10.2 33.7 L10.15 33.75 M3.8 30.85 L3.75 30.85 3.8 30.85 M12.75 31.25 L12.75 31.15 Q12.75 31.0 12.55 30.95 12.35 30.95 12.35 31.15 12.35 31.2 12.4 31.25 12.5 31.35 12.55 31.35 12.7 31.35 12.75 31.25 M12.65 31.7 Q12.5 31.55 12.45 31.55 12.25 31.55 12.1 31.75 11.95 31.9 11.95 32.1 11.95 32.25 12.05 32.3 L12.45 32.35 Q12.7 32.35 12.75 32.1 L12.8 31.85 12.65 31.7" fill="#8c1c1c" fill-rule="evenodd" stroke="none"/>
    <path d="M12.1 10.2 Q12.1 10.4 11.8 10.4 11.65 10.4 11.55 10.15 11.55 9.75 11.8 9.85 12.1 9.9 12.1 10.2 M12.6 10.45 L12.5 10.35 12.55 10.25 Q12.75 10.25 12.85 10.4 L12.85 10.5 12.75 10.55 Q12.65 10.5 12.6 10.45 M12.4 10.95 Q12.3 11.15 12.1 11.15 12.0 11.15 11.9 11.1 11.85 11.05 11.85 11.0 11.85 10.85 11.95 10.75 12.1 10.6 12.35 10.6 L12.4 10.6 12.4 10.95 M4.55 26.2 L4.65 26.3 4.7 26.45 4.7 26.6 4.5 26.65 4.4 26.6 4.35 26.55 4.35 26.45 Q4.35 26.25 4.55 26.2 M3.5 26.05 Q3.5 25.8 3.8 25.9 4.1 26.0 4.1 26.15 4.1 26.3 3.95 26.35 L3.7 26.35 3.65 26.5 Q3.55 26.6 3.4 26.65 L3.3 26.55 Q3.25 26.5 3.25 26.4 3.25 26.25 3.5 26.25 L3.55 26.25 3.5 26.05 M10.85 24.6 Q10.85 24.55 10.85 24.5 10.9 24.4 11.0 24.25 11.2 24.05 11.45 24.0 11.75 24.0 11.95 24.15 12.15 24.3 12.15 24.65 12.15 24.85 12.05 25.0 L11.9 24.95 11.95 24.8 Q11.95 24.55 11.9 24.5 11.85 24.25 11.6 24.25 L11.55 24.3 11.5 24.25 Q11.25 24.3 11.1 24.55 L11.0 24.65 10.95 24.65 10.9 24.6 10.85 24.6 M11.4 25.15 L12.0 25.15 Q11.7 25.45 11.25 25.45 L11.15 25.4 11.15 25.35 11.4 25.15 M15.55 20.0 L15.8 20.0 Q15.8 20.05 15.85 20.1 L15.75 20.2 15.5 20.25 15.45 20.1 Q15.45 20.05 15.45 20.0 L15.55 20.0 M15.8 21.15 Q15.7 21.35 15.45 21.4 L15.35 21.35 Q15.3 21.3 15.3 21.25 15.3 21.15 15.45 21.0 15.55 20.85 15.65 20.8 L15.8 20.85 15.8 21.15 M16.45 20.45 L16.5 20.55 16.5 20.7 16.4 20.75 16.25 20.75 Q16.2 20.7 16.2 20.65 16.2 20.55 16.3 20.5 L16.45 20.45" fill="#cc8a28" fill-rule="evenodd" stroke="none"/>
    <path d="M8.5 19.6 Q8.55 19.6 8.6 19.6 8.75 19.6 8.85 19.75 9.0 19.95 9.25 19.95 9.85 20.2 10.15 20.2 11.45 20.2 12.35 18.4 12.8 17.5 13.15 16.4 14.0 15.25 14.3 14.3 14.55 13.55 14.55 12.55 14.55 12.1 14.35 11.65 L14.15 11.15 Q14.15 11.05 14.25 10.95 14.35 10.9 14.5 10.9 15.2 10.9 15.75 11.8 16.1 12.5 16.1 13.0 L16.2 13.25 16.25 13.45 Q16.25 14.85 15.2 15.9 L14.45 16.7 Q14.1 17.1 14.1 17.55 14.1 18.1 13.6 19.4 L13.7 18.8 13.85 18.15 Q13.85 17.9 13.7 17.85 L13.65 17.9 13.6 18.0 Q13.4 18.25 13.35 18.65 L13.3 19.1 13.25 19.5 Q13.1 20.55 12.0 21.25 L12.0 21.3 12.1 21.35 12.15 21.4 12.2 21.4 Q11.9 21.45 11.7 21.6 11.45 21.8 11.3 21.8 L11.05 21.85 10.8 21.95 Q10.5 21.95 10.15 22.05 L9.65 22.1 Q9.1 22.1 8.85 21.9 L8.9 21.8 8.85 21.5 Q8.65 20.55 8.5 19.6 M2.6 27.4 L2.65 27.55 Q3.0 28.5 3.2 28.75 3.4 29.25 4.05 29.85 4.65 30.35 5.35 30.75 6.4 31.3 9.6 32.45 10.8 32.85 11.5 33.15 L11.7 33.05 Q11.55 33.0 11.5 32.9 11.4 32.8 11.4 32.7 11.4 32.6 11.55 32.5 11.7 32.4 11.85 32.4 12.05 32.4 12.15 32.8 12.8 32.45 13.2 32.05 12.95 31.05 12.95 30.8 12.95 29.55 13.3 28.35 13.45 27.85 13.55 27.85 13.65 27.85 13.65 28.55 L13.75 29.3 Q13.75 30.2 13.9 30.85 L13.95 30.4 14.0 30.0 14.05 29.55 14.05 28.6 Q14.05 28.45 14.2 28.15 L14.3 27.85 Q14.3 27.35 15.05 25.65 L16.0 23.55 Q16.25 23.0 16.5 22.55 16.0 23.0 15.6 23.5 15.2 23.95 14.75 24.6 L14.0 25.65 13.9 25.7 13.85 25.7 Q13.8 25.7 13.8 25.6 13.8 25.3 14.2 24.55 14.6 23.7 15.2 22.85 16.8 20.65 18.4 20.4 L18.65 20.3 18.8 20.3 18.7 20.2 18.55 19.9 18.55 19.5 Q18.65 19.15 19.0 19.15 19.2 19.15 19.3 19.5 L19.35 19.7 Q19.4 19.4 19.4 18.9 19.4 18.15 19.25 17.6 19.1 17.15 18.7 16.5 18.65 16.5 18.25 16.85 17.95 17.1 17.75 17.1 17.45 17.1 17.25 16.6 17.15 16.3 17.15 16.0 L17.2 15.65 Q17.25 15.25 17.35 14.95 17.65 14.1 18.25 13.95 L18.6 14.6 19.4 16.2 Q20.1 17.65 20.1 19.15 20.1 19.95 19.4 20.8 L19.4 20.75 19.25 20.9 Q17.5 21.4 15.8 25.4 15.15 26.9 14.65 28.65 14.25 30.05 14.25 30.3 14.25 30.9 14.35 31.6 14.45 32.15 14.55 32.55 L14.35 33.1 Q14.0 33.2 13.7 33.4 L13.15 33.65 12.95 33.7 12.9 33.7 12.85 33.75 12.75 33.75 Q12.6 33.75 12.2 33.9 11.85 34.05 11.65 34.05 11.2 34.05 10.15 33.75 L10.2 33.7 Q9.1 33.4 7.6 32.8 L6.65 32.4 6.3 32.2 5.4 31.7 5.05 31.5 3.85 30.9 3.8 30.85 3.75 30.85 3.7 30.7 3.6 30.5 3.15 29.65 Q2.7 28.65 2.6 27.4 M11.4 18.85 Q11.55 18.85 11.6 18.95 L11.6 19.05 Q11.6 19.3 11.4 19.3 11.25 19.3 11.15 19.2 11.15 19.15 11.15 19.05 11.15 18.9 11.4 18.85 M10.8 19.35 L11.15 19.35 11.2 19.4 11.2 19.5 11.15 19.65 11.1 19.75 Q10.8 19.7 10.75 19.8 10.7 19.9 10.55 19.9 10.35 19.9 10.3 19.65 10.3 19.4 10.4 19.2 10.55 19.0 10.8 19.35 M10.0 19.6 Q10.35 19.75 10.35 19.95 L10.3 20.05 Q10.2 20.15 10.0 20.15 9.85 20.15 9.8 20.0 9.7 19.85 9.7 19.75 9.7 19.45 10.0 19.6 M4.2 28.7 L4.3 28.6 Q4.4 28.55 4.45 28.55 L4.55 28.6 4.55 28.65 4.9 29.2 Q5.1 29.5 5.3 29.6 L5.35 29.6 5.35 29.65 5.4 29.7 5.25 29.7 Q5.0 29.7 4.75 29.55 L4.8 29.5 Q4.55 29.25 4.2 28.7 M4.85 27.65 Q4.95 27.6 5.05 27.6 5.1 27.6 5.85 29.55 L5.8 29.75 5.65 29.85 5.5 29.7 5.55 29.7 5.55 29.6 Q5.55 29.55 5.2 28.95 L5.05 28.65 Q4.85 28.25 4.85 28.15 L4.85 28.1 5.0 28.05 Q5.1 28.0 5.1 27.9 5.1 27.8 5.05 27.75 5.0 27.7 4.85 27.65 M10.05 21.6 L10.05 21.6 M12.7 24.8 Q13.25 23.95 13.8 22.55 14.0 22.55 14.05 22.9 L14.1 23.3 13.95 23.75 13.85 24.0 Q13.9 24.1 13.9 24.3 13.9 24.75 13.4 25.4 13.05 25.9 12.5 26.4 L12.7 26.35 Q12.75 26.35 12.85 26.4 L12.9 26.55 Q12.9 26.75 12.5 26.9 L12.05 27.05 Q11.85 27.05 11.5 26.8 11.05 26.7 11.1 26.3 L11.1 26.25 11.3 26.25 11.7 26.2 11.75 26.2 12.3 25.95 Q12.3 25.85 12.5 25.4 12.7 24.95 12.7 24.85 L12.7 24.8 M18.0 16.05 L17.75 16.1 Q17.65 16.15 17.65 16.25 L17.7 16.35 17.7 16.4 17.75 16.45 17.85 16.45 Q18.05 16.45 18.05 16.2 L18.05 16.1 18.0 16.05 M18.0 15.35 Q18.0 15.25 17.9 15.1 17.8 14.95 17.7 14.95 17.45 14.95 17.3 15.3 17.2 15.5 17.2 15.65 L17.25 15.85 Q17.35 16.0 17.5 16.0 17.75 16.0 17.9 15.7 L18.0 15.35 M18.15 14.75 L18.1 14.65 17.85 14.65 17.8 14.75 17.85 14.9 17.9 14.9 17.95 14.95 Q18.1 14.95 18.15 14.85 L18.15 14.75 M18.15 17.35 Q18.15 17.05 18.45 17.0 18.75 16.95 18.75 17.3 L18.7 17.55 18.4 17.65 Q18.15 17.5 18.15 17.35 M19.25 18.55 Q19.25 18.85 19.05 18.85 18.7 18.85 18.7 18.5 18.7 18.4 18.8 18.3 18.85 18.25 19.0 18.25 19.15 18.25 19.2 18.35 L19.25 18.55 M18.2 19.65 Q18.2 19.75 18.2 19.85 18.15 19.85 18.05 19.9 L17.8 19.85 17.8 19.8 Q17.75 19.8 17.75 19.7 17.75 19.6 17.9 19.55 18.0 19.45 18.2 19.6 L18.2 19.65 M13.0 18.1 L12.9 18.0 Q12.8 18.05 12.65 18.15 12.55 18.25 12.55 18.3 12.55 18.35 12.65 18.4 L12.75 18.5 12.95 18.35 13.05 18.2 Q13.05 18.15 13.0 18.1 M12.65 31.7 L12.8 31.85 12.75 32.1 Q12.7 32.35 12.45 32.35 L12.05 32.3 Q11.95 32.25 11.95 32.1 11.95 31.9 12.1 31.75 12.25 31.55 12.45 31.55 12.5 31.55 12.65 31.7 M12.75 31.25 Q12.7 31.35 12.55 31.35 12.5 31.35 12.4 31.25 12.35 31.2 12.35 31.15 12.35 30.95 12.55 30.95 12.75 31.0 12.75 31.15 L12.75 31.25" fill="#4d0f0f" fill-rule="evenodd" stroke="none"/>
    <path d="M13.6 19.4 L13.6 19.45 Q13.6 20.95 12.3 21.45 L12.2 21.4 12.15 21.4 12.1 21.35 12.0 21.3 12.0 21.25 Q13.1 20.55 13.25 19.5 L13.3 19.1 13.35 18.65 Q13.4 18.25 13.6 18.0 L13.65 17.9 13.7 17.85 Q13.85 17.9 13.85 18.15 L13.7 18.8 13.6 19.4 M8.85 21.9 L8.8 21.95 Q8.75 22.05 8.55 22.05 8.35 22.05 8.2 21.8 7.8 22.65 7.5 23.1 L7.5 23.15 Q7.5 23.85 5.6 24.8 3.85 25.7 2.6 25.8 2.55 26.4 2.55 26.75 L2.6 27.4 Q2.7 28.65 3.15 29.65 L3.6 30.5 3.7 30.7 3.75 30.85 3.8 30.85 3.85 30.9 5.05 31.5 5.4 31.7 6.3 32.2 6.65 32.4 7.0 32.55 7.05 32.6 Q8.95 33.35 10.15 33.75 11.2 34.05 11.65 34.05 11.85 34.05 12.2 33.9 12.6 33.75 12.75 33.75 L12.85 33.75 12.9 33.7 12.95 33.7 13.15 33.65 13.7 33.4 Q14.0 33.2 14.35 33.1 L14.55 32.55 Q14.45 32.15 14.35 31.6 14.25 30.9 14.25 30.3 14.25 30.05 14.65 28.65 15.15 26.9 15.8 25.4 17.5 21.4 19.25 20.9 L19.3 20.9 19.4 20.8 Q20.1 19.95 20.1 19.15 20.1 17.65 19.4 16.2 L18.6 14.6 18.25 13.95 Q17.75 13.1 17.3 12.4 15.1 9.25 13.15 9.25 11.05 9.25 9.45 11.9 8.85 12.9 8.5 14.05 8.15 15.05 8.15 15.6 8.15 17.55 8.5 19.6 8.65 20.55 8.85 21.5 L8.9 21.8 8.85 21.9 M19.15 13.85 Q19.45 14.55 19.5 14.95 L19.8 15.45 Q20.9 17.45 20.9 19.4 20.9 20.15 20.55 20.75 20.15 21.4 19.25 21.95 18.5 22.75 17.75 23.65 17.1 24.5 16.6 25.25 L16.6 25.3 Q16.6 25.4 16.75 25.65 L16.95 26.0 16.95 26.15 16.9 26.15 16.9 26.2 16.8 26.3 Q16.65 26.45 16.45 26.45 16.15 26.45 15.95 26.35 L15.8 26.75 16.05 27.05 16.45 27.45 16.45 27.55 16.4 27.6 16.35 27.6 Q16.25 27.7 16.05 27.8 L15.8 27.85 15.55 27.8 15.5 27.8 15.5 28.45 15.6 28.45 15.85 28.55 Q16.0 28.55 16.1 28.45 16.2 28.35 16.35 28.35 L16.45 28.35 Q16.55 28.35 16.55 28.45 L16.55 28.6 Q16.5 28.9 16.4 29.1 L16.4 29.15 16.35 29.25 Q16.05 29.7 15.45 30.0 L15.25 30.1 15.25 30.2 Q15.1 31.05 15.1 32.1 L15.2 32.3 Q15.55 32.85 15.55 33.05 L15.5 33.3 Q15.5 33.35 15.5 33.4 L15.05 33.4 15.0 33.45 14.95 33.45 Q14.15 33.9 13.55 34.15 12.55 34.6 11.55 34.6 10.6 34.6 8.5 33.75 L8.3 33.65 Q7.45 33.35 6.4 32.9 4.3 31.95 3.45 31.35 2.85 31.35 2.2 29.35 1.7 27.75 1.7 27.2 1.7 26.25 1.75 26.0 1.95 25.0 2.7 25.0 3.9 25.0 5.25 24.1 L6.25 23.4 Q6.6 23.15 6.9 23.0 7.05 22.6 7.6 21.4 L7.85 20.75 Q7.8 20.45 7.8 20.25 7.8 19.6 7.6 17.65 7.4 15.7 7.4 14.95 L7.7 13.9 Q8.15 12.7 8.75 11.7 10.6 8.5 13.25 8.5 15.35 8.5 17.7 11.55 18.6 12.7 19.15 13.85 M4.75 29.55 Q4.7 29.65 4.6 29.65 4.2 29.65 3.45 28.0 L3.45 27.85 3.4 27.7 Q3.4 27.6 3.45 27.5 3.55 27.4 3.7 27.4 L3.9 27.45 3.95 27.55 3.9 27.85 Q3.85 27.95 3.7 27.95 L4.15 28.65 4.2 28.7 Q4.55 29.25 4.8 29.5 L4.75 29.55 M4.55 28.6 L4.3 28.0 Q4.3 27.85 4.45 27.75 4.6 27.65 4.8 27.65 L4.85 27.65 Q5.0 27.7 5.05 27.75 5.1 27.8 5.1 27.9 5.1 28.0 5.0 28.05 L4.85 28.1 4.85 28.15 Q4.85 28.25 5.05 28.65 L5.2 28.95 Q5.55 29.55 5.55 29.6 L5.55 29.7 5.5 29.7 5.45 29.75 5.4 29.7 5.35 29.65 5.35 29.6 5.3 29.6 Q5.1 29.5 4.9 29.2 L4.55 28.65 4.55 28.6 M10.85 24.5 L10.8 24.6 10.85 24.6 10.9 24.6 10.95 24.65 11.0 24.65 11.15 24.7 Q11.2 24.85 11.3 24.85 L11.45 24.8 11.9 24.95 12.05 25.0 Q12.15 24.85 12.15 24.65 12.15 24.3 11.95 24.15 11.75 24.0 11.45 24.0 11.2 24.05 11.0 24.25 10.9 24.4 10.85 24.5 M11.1 26.25 Q10.65 26.15 10.4 25.75 10.15 25.4 10.15 24.9 10.15 24.2 10.45 23.85 10.75 23.5 11.4 23.5 12.2 23.5 12.5 24.0 12.7 24.3 12.7 24.8 L12.7 24.85 Q12.7 24.95 12.5 25.4 12.3 25.85 12.3 25.95 L11.75 26.2 11.7 26.2 11.3 26.25 11.1 26.25 M11.15 25.4 L11.25 25.45 Q11.7 25.45 12.0 25.15 L11.4 25.15 Q11.2 25.05 11.0 24.95 L10.8 24.75 10.75 24.9 Q10.75 25.05 11.0 25.25 L11.15 25.4 M16.45 25.8 L16.4 25.55 16.15 26.05 16.6 26.05 16.45 25.8 M15.65 27.1 Q15.55 27.35 15.55 27.55 L15.7 27.5 15.95 27.5 15.75 27.25 15.65 27.1 M16.15 28.85 L15.75 28.95 Q15.65 28.95 15.45 28.8 L15.35 29.7 15.6 29.5 16.0 29.1 16.15 28.85" fill="#000000" fill-rule="evenodd" stroke="none"/>
    <path d="M10.85 24.6 L10.8 24.6 10.85 24.5 Q10.85 24.55 10.85 24.6 M11.9 24.95 L11.45 24.8 11.5 24.7 Q11.6 24.6 11.6 24.5 L11.55 24.35 11.55 24.3 11.6 24.25 Q11.85 24.25 11.9 24.5 11.95 24.55 11.95 24.8 L11.9 24.95 M11.15 24.7 L11.0 24.65 11.1 24.55 11.15 24.7 M11.4 25.15 L11.15 25.35 11.15 25.4 11.0 25.25 Q10.75 25.05 10.75 24.9 L10.8 24.75 11.0 24.95 Q11.2 25.05 11.4 25.15" fill="#f0b154" fill-rule="evenodd" stroke="none"/>
    <path d="M11.45 24.8 L11.3 24.85 Q11.2 24.85 11.15 24.7 L11.1 24.55 Q11.25 24.3 11.5 24.25 L11.55 24.3 11.55 24.35 11.6 24.5 Q11.6 24.6 11.5 24.7 L11.45 24.8" fill="#ffffff" fill-rule="evenodd" stroke="none"/>
    <path d="M15.65 27.1 L15.75 27.25 15.95 27.5 15.7 27.5 15.55 27.55 Q15.55 27.35 15.65 27.1 M16.45 25.8 L16.6 26.05 16.15 26.05 16.4 25.55 16.45 25.8 M16.15 28.85 L16.0 29.1 15.6 29.5 15.35 29.7 15.45 28.8 Q15.65 28.95 15.75 28.95 L16.15 28.85" fill="#cccccc" fill-rule="evenodd" stroke="none"/>
  </g>
</svg>
