<?xml version="1.0" encoding="UTF-8" standalone="no"?>
<svg xmlns:ffdec="https://www.free-decompiler.com/flash" xmlns:xlink="http://www.w3.org/1999/xlink" ffdec:objectType="shape" height="24.5px" width="13.6px" xmlns="http://www.w3.org/2000/svg">
  <g transform="matrix(1.0, 0.0, 0.0, 1.0, 7.15, 23.85)">
    <path d="M0.3 -23.75 Q0.3 -23.9 0.35 -23.85 1.9 -23.75 2.55 -22.6 2.8 -22.2 3.0 -21.5 L3.3 -20.6 3.9 -20.1 4.15 -19.85 4.3 -19.85 Q4.85 -19.85 5.45 -18.5 6.0 -17.4 6.0 -17.0 L6.15 -16.55 Q6.3 -16.2 6.3 -15.85 L6.35 -15.25 Q6.45 -14.8 6.45 -14.5 L6.35 -13.6 6.3 -13.2 6.25 -12.95 6.25 -12.75 Q6.2 -12.45 6.05 -12.0 L5.9 -11.55 Q5.95 -11.55 5.95 -11.45 5.95 -11.3 5.85 -11.2 5.75 -11.05 5.55 -11.05 L5.5 -11.1 5.3 -11.0 Q4.75 -11.0 4.0 -10.05 3.3 -9.2 3.3 -8.85 3.3 -8.65 3.05 -8.3 L2.95 -8.2 2.35 -6.9 Q1.9 -5.95 1.55 -5.05 L1.35 -4.5 1.3 -4.3 1.0 -3.45 0.45 -2.0 Q0.35 -1.8 0.3 -1.3 0.2 -0.8 0.15 -0.55 -0.05 0.05 -0.8 0.1 L-1.0 0.35 -1.15 0.55 -1.2 0.65 -1.25 0.65 Q-2.2 0.5 -2.8 -0.1 -3.55 -0.85 -3.55 -1.75 L-3.65 -1.9 Q-3.9 -2.35 -4.1 -2.5 -4.25 -2.6 -4.95 -2.95 -5.3 -2.9 -5.6 -3.05 -6.05 -3.05 -6.45 -3.95 -6.7 -4.4 -6.8 -4.7 L-6.95 -5.25 Q-7.05 -5.8 -7.1 -6.5 L-7.15 -6.75 -7.1 -6.8 -7.1 -6.95 Q-7.1 -7.2 -6.75 -8.55 -6.4 -9.95 -6.4 -10.1 -6.4 -10.4 -6.35 -10.75 L-6.25 -11.0 -6.25 -11.2 -6.3 -11.65 -6.5 -12.45 -6.55 -12.6 -6.6 -12.7 Q-6.8 -13.25 -6.8 -13.5 L-6.8 -13.55 -6.85 -13.9 -6.85 -13.95 -6.95 -14.4 -6.9 -14.85 -6.85 -15.5 -6.75 -16.05 -6.65 -16.55 Q-6.65 -17.5 -5.5 -19.05 -4.5 -20.4 -3.55 -21.0 -3.4 -21.15 -3.1 -21.3 L-2.85 -21.45 -0.4 -23.25 Q-0.35 -23.55 0.0 -23.65 L0.35 -23.7 0.3 -23.75 M-2.7 -1.2 L-2.35 -0.7 Q-1.95 -0.2 -1.45 0.0 L-1.25 0.1 -1.15 0.1 -1.15 0.05 -1.25 0.0 -1.3 -0.05 -1.5 -0.05 -1.5 -0.1 -1.55 -0.2 Q-1.55 -0.3 -1.3 -0.35 L-0.8 -0.45 -0.65 -0.9 Q-0.55 -1.3 -0.55 -1.35 L-0.3 -1.95 -0.25 -2.0 -0.2 -2.25 Q0.1 -3.05 0.4 -3.55 0.7 -4.35 1.5 -5.95 L2.55 -8.6 2.6 -8.5 Q2.85 -9.2 3.65 -10.2 4.8 -11.65 5.25 -11.65 L5.35 -11.65 5.4 -11.8 Q5.5 -12.05 5.5 -12.15 5.5 -12.2 5.65 -12.55 5.75 -12.85 5.75 -13.0 L5.85 -14.8 5.75 -16.05 Q5.75 -16.95 4.75 -18.2 L4.3 -18.7 3.7 -19.4 3.7 -19.45 Q3.05 -20.2 2.9 -20.4 2.75 -20.6 2.65 -20.8 L2.65 -20.85 2.55 -20.85 Q2.45 -20.85 2.35 -21.2 L2.25 -21.6 Q2.25 -21.9 1.7 -22.45 1.1 -23.0 0.65 -23.0 L0.5 -22.95 -0.2 -22.75 Q-0.8 -22.45 -1.6 -21.8 -2.35 -21.2 -2.6 -20.95 -3.1 -20.6 -3.25 -20.6 L-3.95 -20.0 Q-4.9 -18.6 -5.5 -17.15 -6.2 -15.4 -6.2 -13.9 L-6.1 -13.25 -6.05 -12.6 -6.0 -12.45 -5.9 -12.2 Q-5.75 -11.75 -5.75 -11.5 L-5.75 -11.45 Q-5.8 -11.1 -5.95 -9.9 L-6.15 -8.5 -6.2 -8.3 -6.15 -8.3 Q-5.9 -8.15 -5.6 -7.55 L-5.55 -7.5 -5.4 -7.15 -5.1 -6.55 -5.1 -6.5 -5.0 -6.45 -5.0 -6.4 Q-4.75 -6.2 -4.45 -6.05 L-3.95 -6.15 -3.9 -6.15 -3.85 -6.05 -3.85 -5.95 Q-3.9 -5.85 -4.05 -5.75 -4.05 -5.65 -4.2 -5.6 L-4.5 -5.6 Q-5.0 -5.6 -5.4 -6.15 -5.65 -6.5 -5.7 -6.8 L-5.95 -7.3 Q-6.2 -7.8 -6.2 -8.1 L-6.3 -7.75 -6.4 -7.1 -6.45 -6.6 -6.55 -5.95 Q-6.5 -5.35 -6.35 -4.85 -6.1 -4.2 -5.6 -3.85 -5.4 -3.7 -5.0 -3.5 -4.35 -3.4 -3.85 -2.9 L-3.8 -2.85 Q-2.8 -2.2 -2.7 -1.25 L-2.7 -1.2 M-5.1 -15.75 Q-5.1 -16.0 -4.8 -16.0 L-4.7 -16.0 -4.65 -15.95 -4.6 -15.95 Q-4.55 -15.65 -4.35 -15.5 L-4.2 -15.4 -4.0 -15.25 -4.0 -15.1 -4.05 -15.1 Q-4.05 -15.0 -4.15 -15.0 L-4.2 -15.0 Q-4.65 -15.0 -4.9 -15.25 -5.1 -15.5 -5.1 -15.75 M-5.3 -11.3 L-4.9 -11.95 Q-4.4 -12.6 -3.85 -12.6 L-3.7 -12.55 -3.55 -12.55 -3.25 -12.5 -3.2 -12.5 -3.2 -12.35 Q-3.2 -12.15 -3.4 -12.1 L-3.65 -12.15 -3.95 -12.1 Q-4.3 -12.0 -4.6 -11.65 -5.0 -11.15 -5.1 -11.1 L-5.25 -11.2 -5.3 -11.2 -5.3 -11.3 M-3.25 -6.65 L-3.3 -6.75 -3.35 -6.7 -3.65 -7.9 -3.75 -8.6 Q-4.0 -9.35 -4.0 -9.5 L-3.85 -10.45 Q-3.5 -11.4 -2.75 -11.4 -2.55 -11.4 -2.45 -11.3 L-2.4 -11.3 -2.55 -11.1 -2.55 -10.95 -2.65 -10.7 -2.5 -10.75 Q-2.25 -10.75 -2.15 -10.6 -2.1 -10.4 -2.0 -10.25 L-2.15 -10.2 -2.85 -10.35 -2.9 -10.25 -2.9 -10.2 -2.95 -10.1 -2.75 -10.1 -2.35 -9.85 -2.3 -9.8 -2.15 -9.55 Q-2.05 -9.25 -2.0 -9.05 L-2.0 -8.8 Q-2.0 -8.6 -2.0 -8.4 L-2.1 -8.2 -2.1 -8.1 -2.15 -8.1 -2.85 -7.65 -3.15 -7.65 -3.1 -7.5 -3.05 -7.5 Q-2.9 -7.35 -2.75 -7.35 -2.7 -7.35 -2.45 -7.55 L-1.75 -8.0 -1.6 -8.0 -1.5 -8.05 -1.5 -8.1 -1.3 -8.25 Q-1.3 -8.1 -1.5 -7.9 L-1.5 -7.85 Q-1.5 -7.75 -1.7 -7.55 L-2.0 -7.05 Q-2.2 -6.75 -2.6 -6.7 L-2.8 -6.65 -3.05 -6.6 Q-3.15 -6.6 -3.25 -6.65 M-1.55 -14.25 Q-1.85 -14.1 -2.2 -14.1 L-2.25 -14.1 -2.3 -14.1 Q-2.55 -14.1 -3.0 -14.3 L-3.05 -14.35 Q-3.4 -14.5 -3.6 -14.7 -3.75 -14.85 -3.75 -15.0 L-3.75 -15.15 -3.6 -15.2 -3.05 -14.9 Q-2.6 -14.65 -2.25 -14.65 -1.8 -14.65 -0.25 -16.75 0.75 -18.1 1.35 -18.85 L1.4 -18.85 1.9 -19.6 Q1.9 -19.7 2.0 -19.8 2.15 -19.85 2.2 -19.85 L2.25 -19.8 2.25 -19.65 Q2.25 -19.6 2.15 -19.45 L2.15 -19.4 2.1 -19.25 1.9 -18.95 1.7 -18.7 1.2 -18.05 0.15 -16.8 0.1 -16.8 0.1 -16.75 -0.1 -16.5 -0.35 -16.0 Q-0.5 -15.55 -0.6 -15.4 -0.8 -14.9 -1.05 -14.65 -1.25 -14.4 -1.55 -14.25 M3.25 -12.55 L3.5 -12.55 3.75 -12.5 3.9 -12.4 3.75 -12.05 3.6 -12.05 3.25 -12.1 Q3.05 -12.1 2.75 -11.9 L2.65 -11.9 2.55 -11.85 Q2.3 -11.7 2.15 -11.65 L2.05 -11.65 2.05 -11.8 Q2.05 -12.05 2.35 -12.25 2.7 -12.55 3.25 -12.55 M1.15 -9.9 L1.1 -9.85 1.05 -9.75 1.05 -9.7 Q0.65 -9.15 0.65 -9.0 0.65 -8.95 0.9 -8.6 L0.95 -8.5 1.05 -8.35 Q1.4 -8.1 1.4 -7.95 L1.35 -7.85 1.35 -7.75 1.2 -7.7 Q0.9 -8.0 0.4 -8.3 0.1 -8.55 0.1 -9.05 0.1 -9.15 0.55 -9.85 1.05 -10.55 1.05 -10.9 1.05 -11.05 0.7 -11.3 L0.55 -11.25 0.25 -11.5 0.15 -11.6 Q0.0 -11.65 -0.1 -11.7 -0.5 -11.9 -0.5 -12.3 L-0.35 -12.75 -0.3 -12.8 Q-0.3 -13.25 -0.1 -13.45 L-0.05 -13.5 Q0.05 -13.3 0.1 -12.7 0.15 -12.35 0.2 -12.1 L0.25 -12.0 0.25 -11.95 0.3 -11.9 0.6 -11.85 0.65 -11.8 Q1.05 -11.7 1.25 -11.45 1.4 -11.25 1.4 -10.95 L1.45 -10.9 Q1.45 -10.4 1.15 -9.9 M4.5 -13.8 L4.55 -13.8 4.5 -13.7 4.5 -13.8 M-2.9 -9.7 L-3.15 -9.7 -3.2 -9.6 -3.3 -9.25 -3.3 -9.15 -3.25 -8.55 -3.15 -8.0 -3.1 -8.1 -2.6 -8.5 Q-2.35 -8.75 -2.35 -9.05 -2.35 -9.35 -2.45 -9.5 -2.6 -9.65 -2.9 -9.7 M-2.5 -7.1 L-2.65 -7.0 Q-2.5 -7.05 -2.4 -7.15 L-2.5 -7.1 M-2.0 -2.9 Q-2.05 -2.85 -2.2 -2.85 -2.4 -2.85 -2.55 -3.3 -2.55 -3.45 -2.45 -3.55 -2.35 -3.6 -2.2 -3.6 -2.1 -3.6 -2.0 -3.4 -1.9 -3.25 -1.9 -3.2 L-1.9 -3.05 -1.95 -2.95 -2.0 -2.9" fill="#000000" fill-rule="evenodd" stroke="none"/>
    <path d="M-0.2 -22.75 L-0.2 -22.7 -0.05 -22.7 Q0.35 -22.8 0.6 -22.3 0.8 -21.9 0.8 -21.5 0.8 -21.25 0.25 -20.45 -0.3 -19.65 -0.3 -19.4 -0.55 -19.2 -0.7 -18.95 L-1.05 -18.15 Q-1.55 -17.0 -2.75 -16.1 L-3.45 -16.25 -4.05 -16.3 Q-4.25 -16.35 -4.45 -16.7 -4.6 -17.05 -4.7 -17.05 -5.0 -17.05 -5.15 -16.7 -5.25 -16.45 -5.25 -16.25 -5.25 -15.95 -5.15 -15.8 L-5.1 -15.7 -5.1 -15.75 Q-5.1 -15.5 -4.9 -15.25 -4.65 -15.0 -4.2 -15.0 L-4.25 -15.0 Q-4.25 -14.65 -4.05 -14.4 -3.85 -14.15 -3.85 -13.8 -3.85 -13.55 -4.6 -12.85 L-5.45 -12.05 -5.7 -12.3 Q-5.85 -12.45 -6.0 -12.45 L-6.05 -12.6 -6.1 -13.25 -6.2 -13.9 Q-6.2 -15.4 -5.5 -17.15 -4.9 -18.6 -3.95 -20.0 L-3.25 -20.6 Q-3.1 -20.6 -2.6 -20.95 -2.35 -21.2 -1.6 -21.8 -0.8 -22.45 -0.2 -22.75 M-5.75 -11.45 L-5.75 -11.3 Q-5.65 -11.25 -5.55 -11.25 L-5.3 -11.3 -5.3 -11.2 -5.25 -11.2 -5.1 -11.1 Q-5.0 -11.15 -4.6 -11.65 -4.3 -12.0 -3.95 -12.1 L-4.0 -12.05 -3.85 -11.7 -4.45 -10.85 Q-4.9 -10.15 -4.9 -9.95 -4.9 -9.45 -4.4 -8.5 -3.9 -7.55 -3.9 -7.5 -3.9 -7.45 -4.1 -7.3 L-4.3 -7.15 Q-4.25 -7.2 -4.15 -7.35 -4.05 -7.5 -4.05 -7.6 -4.05 -7.7 -4.1 -7.8 L-4.1 -7.85 -4.25 -7.9 Q-4.55 -7.9 -4.7 -7.8 -4.85 -7.65 -4.85 -7.5 L-4.8 -7.3 Q-4.7 -7.1 -4.45 -7.1 L-4.65 -7.1 Q-5.0 -7.1 -5.1 -7.35 -5.2 -7.55 -5.45 -7.55 L-5.6 -7.55 Q-5.9 -8.15 -6.15 -8.3 L-6.2 -8.3 -6.15 -8.5 -5.95 -9.9 Q-5.8 -11.1 -5.75 -11.45 M-5.1 -6.5 L-5.0 -6.45 -5.1 -6.5 M-3.85 -6.05 Q-3.5 -6.3 -3.3 -6.55 L-3.25 -6.65 Q-3.15 -6.6 -3.05 -6.6 L-2.8 -6.65 -2.6 -6.7 Q-2.2 -6.75 -2.0 -7.05 L-1.7 -7.55 Q-1.5 -7.75 -1.5 -7.85 L-1.5 -7.9 Q-1.3 -8.1 -1.3 -8.25 L-1.5 -8.1 -1.25 -8.6 Q-0.9 -9.4 -0.9 -9.55 L-1.25 -10.2 Q-1.6 -10.7 -1.6 -9.8 -1.6 -9.2 -1.85 -8.65 L-1.85 -8.55 -2.0 -8.55 -2.0 -8.4 Q-2.0 -8.6 -2.0 -8.8 L-2.0 -9.05 Q-1.65 -9.25 -1.65 -9.35 -1.65 -10.05 -2.25 -11.15 L-2.4 -11.35 Q-2.4 -11.65 -2.65 -12.05 L-2.85 -12.3 Q-2.7 -12.5 -2.55 -13.0 -2.45 -12.9 -2.35 -12.9 -1.85 -12.9 -1.6 -13.45 -1.5 -13.75 -1.45 -14.05 L-1.5 -14.2 -1.55 -14.25 Q-1.25 -14.4 -1.05 -14.65 -0.8 -14.9 -0.6 -15.4 -0.5 -15.55 -0.35 -16.0 L-0.1 -16.5 0.1 -16.75 0.1 -16.8 0.15 -16.8 1.2 -18.05 1.7 -18.7 2.55 -18.85 Q3.05 -18.85 3.4 -18.2 3.7 -17.7 3.7 -17.35 3.7 -17.05 3.7 -16.8 L3.9 -16.85 Q4.05 -16.85 4.15 -16.55 4.15 -16.4 4.05 -16.3 L3.8 -16.25 Q3.85 -16.1 3.95 -15.95 4.1 -15.7 4.15 -15.4 3.85 -15.3 3.65 -15.1 3.5 -14.9 3.5 -14.65 3.5 -14.6 3.55 -14.45 3.7 -14.3 3.85 -14.3 L4.0 -14.3 3.65 -13.35 3.3 -12.6 3.25 -12.55 Q2.7 -12.55 2.35 -12.25 2.05 -12.05 2.05 -11.8 L2.05 -11.65 2.15 -11.65 Q2.3 -11.7 2.55 -11.85 L2.55 -11.65 Q2.55 -11.35 2.4 -11.2 2.3 -11.05 2.3 -10.85 2.3 -10.8 2.4 -10.55 2.5 -10.4 2.6 -10.3 L2.25 -9.6 Q2.4 -9.75 2.6 -9.75 2.85 -9.75 2.8 -9.6 L2.8 -9.45 2.75 -9.4 Q2.5 -9.3 2.35 -9.1 2.25 -9.0 2.1 -9.0 L2.0 -9.0 Q2.0 -9.05 2.0 -9.1 L1.95 -8.95 Q1.9 -9.25 1.75 -9.3 1.9 -9.35 1.95 -9.45 L2.0 -9.6 2.0 -9.75 1.55 -9.75 Q1.45 -9.65 1.45 -9.55 L1.5 -9.4 1.5 -9.35 1.65 -9.3 1.6 -9.3 Q1.3 -9.25 1.3 -8.8 L1.4 -8.7 Q1.45 -8.55 1.55 -8.55 L1.65 -8.55 Q1.55 -8.4 1.5 -8.4 L1.3 -8.45 1.35 -8.45 1.35 -8.5 1.3 -8.85 Q1.25 -9.1 1.25 -9.2 1.25 -9.75 1.15 -9.9 1.45 -10.4 1.45 -10.9 L1.4 -10.95 Q1.4 -11.25 1.25 -11.45 1.2 -11.8 1.05 -12.05 0.8 -12.45 0.8 -13.3 0.8 -13.85 0.95 -14.5 L1.05 -15.2 1.05 -15.4 0.85 -15.45 Q0.55 -15.4 0.35 -15.15 0.1 -14.9 0.1 -14.75 L-0.1 -13.45 Q-0.3 -13.25 -0.3 -12.8 L-0.35 -12.75 -0.5 -12.3 Q-0.5 -11.9 -0.1 -11.7 L0.1 -11.5 Q0.5 -11.1 0.5 -10.6 0.5 -10.3 -0.25 -9.9 -0.95 -9.45 -0.95 -9.1 -0.95 -8.85 -0.4 -8.2 0.15 -7.5 0.65 -7.5 L0.7 -7.5 Q0.95 -6.95 0.95 -6.8 0.95 -6.4 0.5 -6.1 L0.3 -5.9 0.05 -6.0 Q-0.55 -6.3 -0.55 -5.85 -0.55 -5.65 -0.2 -5.45 0.0 -5.35 0.2 -5.3 L0.2 -5.25 Q0.35 -5.1 0.35 -5.0 0.35 -4.55 -0.3 -3.45 -0.95 -2.3 -0.95 -1.75 -0.95 -1.65 -0.85 -1.3 -0.75 -0.95 -0.75 -0.7 L-1.35 -0.65 -1.95 -0.95 Q-2.5 -1.2 -2.7 -1.2 L-2.7 -1.25 Q-2.8 -2.2 -3.8 -2.85 L-3.85 -2.9 Q-3.75 -3.0 -3.45 -3.4 -3.1 -3.95 -3.1 -4.2 -3.1 -4.35 -3.15 -4.5 -3.25 -4.75 -3.45 -4.75 -3.6 -4.75 -3.85 -4.45 -4.1 -4.15 -4.45 -4.15 -4.7 -4.15 -5.45 -4.55 L-6.1 -4.95 Q-6.25 -4.95 -6.35 -4.85 -6.5 -5.35 -6.55 -5.95 L-6.45 -6.6 -6.4 -7.1 -6.3 -7.75 -6.2 -8.1 Q-6.2 -7.8 -5.95 -7.3 L-5.7 -6.8 Q-5.65 -6.5 -5.4 -6.15 -5.0 -5.6 -4.5 -5.6 L-4.2 -5.6 Q-4.05 -5.65 -4.05 -5.75 -3.9 -5.85 -3.85 -5.95 L-3.85 -6.05 M-2.9 -10.25 L-2.8 -10.1 -2.75 -10.1 -2.95 -10.1 -2.9 -10.2 -2.9 -10.25 M-2.2 -14.1 L-2.25 -14.05 -2.25 -14.1 -2.2 -14.1 M2.75 -16.35 L2.6 -16.5 Q2.3 -16.3 2.3 -16.15 2.3 -16.05 2.3 -16.0 L2.35 -16.0 2.4 -15.95 2.5 -15.95 Q2.7 -15.95 2.75 -16.0 L2.8 -16.25 2.75 -16.35 M1.7 -16.05 L1.45 -16.0 Q1.3 -15.95 1.3 -15.8 1.3 -15.7 1.35 -15.6 1.4 -15.45 1.55 -15.45 2.15 -15.45 2.15 -15.8 2.15 -15.9 2.05 -15.95 2.0 -16.05 1.7 -16.05 M2.15 -16.45 L2.05 -16.5 1.8 -16.45 Q1.7 -16.45 1.7 -16.35 1.7 -16.2 1.75 -16.2 L1.85 -16.15 2.15 -16.2 2.15 -16.45 M2.55 -17.05 Q2.55 -17.2 2.5 -17.1 2.15 -17.05 2.15 -16.95 2.15 -16.8 2.2 -16.8 L2.35 -16.8 2.5 -16.85 2.55 -16.9 2.55 -17.05 M4.2 -13.65 Q4.3 -13.65 4.35 -13.4 4.35 -13.35 4.3 -13.3 4.25 -13.2 4.25 -13.15 L4.2 -13.05 4.05 -13.1 3.9 -13.1 3.85 -13.25 3.85 -13.4 Q3.85 -13.5 3.95 -13.6 4.05 -13.65 4.2 -13.65 M3.65 -13.95 L3.6 -14.05 3.5 -14.1 Q3.15 -14.1 3.15 -13.9 3.15 -13.85 3.25 -13.75 3.3 -13.65 3.4 -13.65 3.5 -13.65 3.55 -13.75 3.65 -13.85 3.65 -13.95 M0.1 -4.5 L0.1 -4.75 -0.2 -4.8 Q-0.4 -4.8 -0.45 -4.7 -0.55 -4.6 -0.55 -4.5 -0.45 -4.1 -0.25 -4.1 -0.1 -4.1 0.0 -4.3 L0.1 -4.5 M2.2 -10.1 L2.2 -10.25 Q2.2 -10.45 2.0 -10.4 1.8 -10.4 1.8 -10.25 1.8 -10.15 1.85 -10.1 L1.85 -10.05 2.0 -10.0 2.2 -10.05 2.2 -10.1 M-0.5 -21.55 Q-0.6 -21.7 -0.7 -21.7 -0.95 -21.7 -1.15 -21.45 -1.35 -21.25 -1.35 -21.05 L-1.3 -20.9 Q-1.3 -20.85 -1.2 -20.85 -1.0 -20.8 -0.75 -21.05 -0.45 -21.25 -0.45 -21.45 -0.45 -21.5 -0.5 -21.55 M-0.65 -22.15 L-0.7 -22.15 Q-0.75 -22.15 -0.75 -22.0 -0.75 -21.9 -0.7 -21.85 -0.65 -21.8 -0.6 -21.8 L-0.45 -21.85 -0.45 -22.05 Q-0.5 -22.1 -0.65 -22.15 M-1.75 -21.45 Q-1.95 -21.45 -1.95 -21.25 L-1.85 -21.15 Q-1.8 -20.95 -1.7 -20.95 L-1.55 -21.0 -1.5 -21.05 -1.45 -21.25 Q-1.55 -21.5 -1.75 -21.45 M-3.2 -17.15 L-3.5 -17.2 -3.55 -17.15 -3.55 -17.05 Q-3.55 -17.0 -3.4 -16.85 L-3.25 -16.75 -3.2 -16.8 Q-3.2 -16.7 -3.1 -16.55 -2.95 -16.35 -2.75 -16.35 -2.45 -16.35 -2.3 -16.7 -2.25 -16.9 -2.2 -17.1 -2.2 -17.2 -2.25 -17.25 -2.35 -17.3 -2.6 -17.3 -2.7 -17.3 -2.95 -17.15 L-3.1 -17.0 -3.2 -17.15 M-5.45 -14.7 L-5.4 -14.75 Q-5.45 -14.9 -5.55 -14.9 L-5.65 -14.8 Q-5.6 -14.7 -5.55 -14.65 -5.45 -14.65 -5.45 -14.7 M-4.4 -14.4 Q-4.55 -14.4 -4.7 -14.25 -4.85 -14.05 -4.85 -13.8 L-4.8 -13.55 Q-4.75 -13.3 -4.6 -13.3 -4.35 -13.3 -4.2 -13.6 -4.05 -13.85 -4.05 -13.95 -4.05 -14.1 -4.1 -14.2 -4.2 -14.4 -4.4 -14.4 M-5.2 -13.7 L-5.1 -13.75 -5.05 -13.95 Q-5.05 -14.0 -5.15 -14.0 L-5.3 -14.0 Q-5.35 -14.0 -5.35 -13.85 L-5.3 -13.75 -5.2 -13.7 M-2.35 -12.8 Q-2.65 -12.7 -2.65 -12.45 L-2.6 -12.3 -2.6 -12.25 -2.4 -12.2 Q-2.05 -12.3 -2.05 -12.55 -2.05 -12.85 -2.35 -12.8 M-5.15 -10.9 Q-5.3 -10.9 -5.45 -10.8 -5.55 -10.7 -5.55 -10.55 -5.5 -10.25 -5.3 -10.25 -5.15 -10.25 -5.05 -10.35 -4.95 -10.45 -4.95 -10.5 -4.95 -10.55 -5.0 -10.7 -5.05 -10.9 -5.15 -10.9 M-5.55 -9.8 L-5.65 -9.8 Q-5.7 -9.7 -5.7 -9.6 L-5.7 -9.5 -5.6 -9.5 Q-5.45 -9.5 -5.4 -9.55 L-5.3 -9.7 Q-5.35 -9.75 -5.55 -9.8 M-5.25 -7.95 Q-5.25 -7.85 -5.2 -7.8 L-5.1 -7.75 -4.9 -7.75 -4.85 -7.8 -4.8 -7.8 Q-4.8 -7.85 -4.8 -7.95 -4.8 -8.2 -5.05 -8.2 -5.25 -8.15 -5.25 -7.95 M-5.95 -6.4 L-5.95 -6.45 Q-6.15 -6.4 -6.25 -6.3 -6.4 -6.15 -6.4 -6.05 -6.4 -5.9 -6.35 -5.85 L-6.2 -5.8 Q-6.1 -5.9 -6.0 -6.0 -5.9 -6.1 -5.9 -6.2 L-5.95 -6.4 M-3.25 -2.7 Q-3.25 -2.55 -3.15 -2.4 -3.05 -2.2 -2.85 -2.2 -2.5 -2.2 -2.4 -2.35 -2.4 -2.4 -2.4 -2.55 -2.4 -2.8 -2.85 -2.95 -3.25 -3.15 -3.25 -2.7 M-2.0 -2.9 L-1.95 -2.95 -1.9 -3.05 -1.9 -3.2 Q-1.9 -3.25 -2.0 -3.4 -2.1 -3.6 -2.2 -3.6 -2.35 -3.6 -2.45 -3.55 -2.55 -3.45 -2.55 -3.3 -2.4 -2.85 -2.2 -2.85 -2.05 -2.85 -2.0 -2.9" fill="#8c1c1c" fill-rule="evenodd" stroke="none"/>
    <path d="M-0.2 -22.75 L0.5 -22.95 0.65 -23.0 Q1.1 -23.0 1.7 -22.45 2.25 -21.9 2.25 -21.6 L2.35 -21.2 Q2.45 -20.85 2.55 -20.85 L2.65 -20.85 2.65 -20.8 Q2.75 -20.6 2.9 -20.4 3.05 -20.2 3.7 -19.45 L3.7 -19.4 4.3 -18.7 4.75 -18.2 Q5.75 -16.95 5.75 -16.05 L5.85 -14.8 5.75 -13.0 Q5.75 -12.85 5.65 -12.55 5.5 -12.2 5.5 -12.15 5.5 -12.05 5.4 -11.8 L5.35 -11.65 5.25 -11.65 Q4.8 -11.65 3.65 -10.2 2.85 -9.2 2.6 -8.5 L2.55 -8.6 1.5 -5.95 Q0.7 -4.35 0.4 -3.55 0.1 -3.05 -0.2 -2.25 L-0.25 -2.0 -0.3 -1.95 -0.55 -1.35 Q-0.55 -1.3 -0.65 -0.9 L-0.8 -0.45 -1.3 -0.35 Q-1.55 -0.3 -1.55 -0.2 L-1.5 -0.1 -1.5 -0.05 -1.3 -0.05 -1.25 0.0 -1.15 0.05 -1.15 0.1 -1.25 0.1 -1.45 0.0 Q-1.95 -0.2 -2.35 -0.7 L-2.7 -1.2 Q-2.5 -1.2 -1.95 -0.95 L-1.35 -0.65 -0.75 -0.7 Q-0.75 -0.95 -0.85 -1.3 -0.95 -1.65 -0.95 -1.75 -0.95 -2.3 -0.3 -3.45 0.35 -4.55 0.35 -5.0 0.35 -5.1 0.2 -5.25 L0.2 -5.3 Q0.0 -5.35 -0.2 -5.45 -0.55 -5.65 -0.55 -5.85 -0.55 -6.3 0.05 -6.0 L0.3 -5.9 0.5 -6.1 Q0.95 -6.4 0.95 -6.8 0.95 -6.95 0.7 -7.5 L0.65 -7.5 Q0.15 -7.5 -0.4 -8.2 -0.95 -8.85 -0.95 -9.1 -0.95 -9.45 -0.25 -9.9 0.5 -10.3 0.5 -10.6 0.5 -11.1 0.1 -11.5 L-0.1 -11.7 Q0.0 -11.65 0.15 -11.6 L0.25 -11.5 0.55 -11.25 0.7 -11.3 Q1.05 -11.05 1.05 -10.9 1.05 -10.55 0.55 -9.85 0.1 -9.15 0.1 -9.05 0.1 -8.55 0.4 -8.3 0.9 -8.0 1.2 -7.7 L1.35 -7.75 1.35 -7.85 1.4 -7.95 Q1.4 -8.1 1.05 -8.35 L0.95 -8.5 0.9 -8.6 Q0.65 -8.95 0.65 -9.0 0.65 -9.15 1.05 -9.7 L1.05 -9.75 1.1 -9.85 1.15 -9.9 Q1.25 -9.75 1.25 -9.2 1.25 -9.1 1.3 -8.85 L1.35 -8.5 1.35 -8.45 1.3 -8.45 1.5 -8.4 Q1.55 -8.4 1.65 -8.55 L1.55 -8.55 Q1.45 -8.55 1.4 -8.7 L1.3 -8.8 Q1.3 -9.25 1.6 -9.3 L1.65 -9.3 1.5 -9.35 1.5 -9.4 1.45 -9.55 Q1.45 -9.65 1.55 -9.75 L2.0 -9.75 2.0 -9.6 1.95 -9.45 Q1.9 -9.35 1.75 -9.3 1.9 -9.25 1.95 -8.95 L2.0 -9.1 Q2.0 -9.05 2.0 -9.0 L2.1 -9.0 Q2.25 -9.0 2.35 -9.1 2.5 -9.3 2.75 -9.4 L2.8 -9.45 2.8 -9.6 Q2.85 -9.75 2.6 -9.75 2.4 -9.75 2.25 -9.6 L2.6 -10.3 Q2.5 -10.4 2.4 -10.55 2.3 -10.8 2.3 -10.85 2.3 -11.05 2.4 -11.2 2.55 -11.35 2.55 -11.65 L2.55 -11.85 2.65 -11.9 2.75 -11.9 Q3.05 -12.1 3.25 -12.1 L3.6 -12.05 3.75 -12.05 3.9 -12.4 3.75 -12.5 3.5 -12.55 3.25 -12.55 3.3 -12.6 3.65 -13.35 4.0 -14.3 3.85 -14.3 Q3.7 -14.3 3.55 -14.45 3.5 -14.6 3.5 -14.65 3.5 -14.9 3.65 -15.1 3.85 -15.3 4.15 -15.4 4.1 -15.7 3.95 -15.95 3.85 -16.1 3.8 -16.25 L4.05 -16.3 Q4.15 -16.4 4.15 -16.55 4.05 -16.85 3.9 -16.85 L3.7 -16.8 Q3.7 -17.05 3.7 -17.35 3.7 -17.7 3.4 -18.2 3.05 -18.85 2.55 -18.85 L1.7 -18.7 1.9 -18.95 2.1 -19.25 2.15 -19.4 2.15 -19.45 Q2.25 -19.6 2.25 -19.65 L2.25 -19.8 2.2 -19.85 Q2.15 -19.85 2.0 -19.8 1.9 -19.7 1.9 -19.6 L1.4 -18.85 1.35 -18.85 Q0.75 -18.1 -0.25 -16.75 -1.8 -14.65 -2.25 -14.65 -2.6 -14.65 -3.05 -14.9 L-3.6 -15.2 -3.75 -15.15 -3.75 -15.0 Q-3.75 -14.85 -3.6 -14.7 -3.4 -14.5 -3.05 -14.35 L-3.0 -14.3 Q-2.55 -14.1 -2.3 -14.1 L-2.25 -14.1 -2.25 -14.05 -2.2 -14.1 Q-1.85 -14.1 -1.55 -14.25 L-1.5 -14.2 -1.45 -14.05 Q-1.5 -13.75 -1.6 -13.45 -1.85 -12.9 -2.35 -12.9 -2.45 -12.9 -2.55 -13.0 -2.7 -12.5 -2.85 -12.3 L-2.65 -12.05 Q-2.4 -11.65 -2.4 -11.35 L-2.25 -11.15 Q-1.65 -10.05 -1.65 -9.35 -1.65 -9.25 -2.0 -9.05 -2.05 -9.25 -2.15 -9.55 L-2.3 -9.8 -2.35 -9.85 -2.75 -10.1 -2.8 -10.1 -2.9 -10.25 -2.85 -10.35 -2.15 -10.2 -2.0 -10.25 Q-2.1 -10.4 -2.15 -10.6 -2.25 -10.75 -2.5 -10.75 L-2.65 -10.7 -2.55 -10.95 -2.55 -11.1 -2.4 -11.3 -2.45 -11.3 Q-2.55 -11.4 -2.75 -11.4 -3.5 -11.4 -3.85 -10.45 L-4.0 -9.5 Q-4.0 -9.35 -3.75 -8.6 L-3.65 -7.9 -3.35 -6.7 -3.3 -6.75 -3.25 -6.65 -3.3 -6.55 Q-3.5 -6.3 -3.85 -6.05 L-3.9 -6.15 -3.95 -6.15 -4.45 -6.05 Q-4.75 -6.2 -5.0 -6.4 L-5.0 -6.45 -5.1 -6.5 -5.1 -6.55 -5.4 -7.15 -5.55 -7.5 -5.6 -7.55 -5.45 -7.55 Q-5.2 -7.55 -5.1 -7.35 -5.0 -7.1 -4.65 -7.1 L-4.45 -7.1 Q-4.7 -7.1 -4.8 -7.3 L-4.85 -7.5 Q-4.85 -7.65 -4.7 -7.8 -4.55 -7.9 -4.25 -7.9 L-4.1 -7.85 -4.1 -7.8 Q-4.05 -7.7 -4.05 -7.6 -4.05 -7.5 -4.15 -7.35 -4.25 -7.2 -4.3 -7.15 L-4.1 -7.3 Q-3.9 -7.45 -3.9 -7.5 -3.9 -7.55 -4.4 -8.5 -4.9 -9.45 -4.9 -9.95 -4.9 -10.15 -4.45 -10.85 L-3.85 -11.7 -4.0 -12.05 -3.95 -12.1 -3.65 -12.15 -3.4 -12.1 Q-3.2 -12.15 -3.2 -12.35 L-3.2 -12.5 -3.25 -12.5 -3.55 -12.55 -3.7 -12.55 -3.85 -12.6 Q-4.4 -12.6 -4.9 -11.95 L-5.3 -11.3 -5.55 -11.25 Q-5.65 -11.25 -5.75 -11.3 L-5.75 -11.45 -5.75 -11.5 Q-5.75 -11.75 -5.9 -12.2 L-6.0 -12.45 Q-5.85 -12.45 -5.7 -12.3 L-5.45 -12.05 -4.6 -12.85 Q-3.85 -13.55 -3.85 -13.8 -3.85 -14.15 -4.05 -14.4 -4.25 -14.65 -4.25 -15.0 L-4.2 -15.0 -4.15 -15.0 Q-4.05 -15.0 -4.05 -15.1 L-4.0 -15.1 -4.0 -15.25 -4.2 -15.4 -4.35 -15.5 Q-4.55 -15.65 -4.6 -15.95 L-4.65 -15.95 -4.7 -16.0 -4.8 -16.0 Q-5.1 -16.0 -5.1 -15.75 L-5.1 -15.7 -5.15 -15.8 Q-5.25 -15.95 -5.25 -16.25 -5.25 -16.45 -5.15 -16.7 -5.0 -17.05 -4.7 -17.05 -4.6 -17.05 -4.45 -16.7 -4.25 -16.35 -4.05 -16.3 L-3.45 -16.25 -2.75 -16.1 Q-1.55 -17.0 -1.05 -18.15 L-0.7 -18.95 Q-0.55 -19.2 -0.3 -19.4 -0.3 -19.65 0.25 -20.45 0.8 -21.25 0.8 -21.5 0.8 -21.9 0.6 -22.3 0.35 -22.8 -0.05 -22.7 L-0.2 -22.7 -0.2 -22.75 M-3.85 -2.9 Q-4.35 -3.4 -5.0 -3.5 -5.4 -3.7 -5.6 -3.85 -6.1 -4.2 -6.35 -4.85 -6.25 -4.95 -6.1 -4.95 L-5.45 -4.55 Q-4.7 -4.15 -4.45 -4.15 -4.1 -4.15 -3.85 -4.45 -3.6 -4.75 -3.45 -4.75 -3.25 -4.75 -3.15 -4.5 -3.1 -4.35 -3.1 -4.2 -3.1 -3.95 -3.45 -3.4 -3.75 -3.0 -3.85 -2.9 M-0.1 -13.45 L0.1 -14.75 Q0.1 -14.9 0.35 -15.15 0.55 -15.4 0.85 -15.45 L1.05 -15.4 1.05 -15.2 0.95 -14.5 Q0.8 -13.85 0.8 -13.3 0.8 -12.45 1.05 -12.05 1.2 -11.8 1.25 -11.45 1.05 -11.7 0.65 -11.8 L0.6 -11.85 0.3 -11.9 0.25 -11.95 0.25 -12.0 0.2 -12.1 Q0.15 -12.35 0.1 -12.7 0.05 -13.3 -0.05 -13.5 L-0.1 -13.45 M4.5 -13.8 L4.5 -13.7 4.55 -13.8 4.5 -13.8 M4.2 -13.65 Q4.05 -13.65 3.95 -13.6 3.85 -13.5 3.85 -13.4 L3.85 -13.25 3.9 -13.1 4.05 -13.1 4.2 -13.05 4.25 -13.15 Q4.25 -13.2 4.3 -13.3 4.35 -13.35 4.35 -13.4 4.3 -13.65 4.2 -13.65 M3.65 -13.95 Q3.65 -13.85 3.55 -13.75 3.5 -13.65 3.4 -13.65 3.3 -13.65 3.25 -13.75 3.15 -13.85 3.15 -13.9 3.15 -14.1 3.5 -14.1 L3.6 -14.05 3.65 -13.95 M2.2 -10.1 L2.2 -10.05 2.0 -10.0 1.85 -10.05 1.85 -10.1 Q1.8 -10.15 1.8 -10.25 1.8 -10.4 2.0 -10.4 2.2 -10.45 2.2 -10.25 L2.2 -10.1 M0.1 -4.5 L0.0 -4.3 Q-0.1 -4.1 -0.25 -4.1 -0.45 -4.1 -0.55 -4.5 -0.55 -4.6 -0.45 -4.7 -0.4 -4.8 -0.2 -4.8 L0.1 -4.75 0.1 -4.5 M-3.2 -17.15 L-3.1 -17.0 -2.95 -17.15 Q-2.7 -17.3 -2.6 -17.3 -2.35 -17.3 -2.25 -17.25 -2.2 -17.2 -2.2 -17.1 -2.25 -16.9 -2.3 -16.7 -2.45 -16.35 -2.75 -16.35 -2.95 -16.35 -3.1 -16.55 -3.2 -16.7 -3.2 -16.8 L-3.25 -16.75 -3.4 -16.85 Q-3.55 -17.0 -3.55 -17.05 L-3.55 -17.15 -3.5 -17.2 -3.2 -17.15 M-4.4 -14.4 Q-4.2 -14.4 -4.1 -14.2 -4.05 -14.1 -4.05 -13.95 -4.05 -13.85 -4.2 -13.6 -4.35 -13.3 -4.6 -13.3 -4.75 -13.3 -4.8 -13.55 L-4.85 -13.8 Q-4.85 -14.05 -4.7 -14.25 -4.55 -14.4 -4.4 -14.4 M-2.35 -12.8 Q-2.05 -12.85 -2.05 -12.55 -2.05 -12.3 -2.4 -12.2 L-2.6 -12.25 -2.6 -12.3 -2.65 -12.45 Q-2.65 -12.7 -2.35 -12.8 M-5.2 -13.7 L-5.3 -13.75 -5.35 -13.85 Q-5.35 -14.0 -5.3 -14.0 L-5.15 -14.0 Q-5.05 -14.0 -5.05 -13.95 L-5.1 -13.75 -5.2 -13.7 M-5.25 -7.95 Q-5.25 -8.15 -5.05 -8.2 -4.8 -8.2 -4.8 -7.95 -4.8 -7.85 -4.8 -7.8 L-4.85 -7.8 -4.9 -7.75 -5.1 -7.75 -5.2 -7.8 Q-5.25 -7.85 -5.25 -7.95 M-1.5 -8.1 L-1.5 -8.05 -1.6 -8.0 -1.75 -8.0 -2.45 -7.55 Q-2.7 -7.35 -2.75 -7.35 -2.9 -7.35 -3.05 -7.5 L-3.1 -7.5 -3.15 -7.65 -2.85 -7.65 -2.15 -8.1 -2.1 -8.1 -2.1 -8.2 -2.0 -8.4 -2.0 -8.55 -1.85 -8.55 -1.85 -8.65 Q-1.6 -9.2 -1.6 -9.8 -1.6 -10.7 -1.25 -10.2 L-0.9 -9.55 Q-0.9 -9.4 -1.25 -8.6 L-1.5 -8.1 M-3.25 -2.7 Q-3.25 -3.15 -2.85 -2.95 -2.4 -2.8 -2.4 -2.55 -2.4 -2.4 -2.4 -2.35 -2.5 -2.2 -2.85 -2.2 -3.05 -2.2 -3.15 -2.4 -3.25 -2.55 -3.25 -2.7" fill="#4d0f0f" fill-rule="evenodd" stroke="none"/>
    <path d="M-2.6 -9.15 L-2.5 -9.25 Q-2.55 -9.35 -2.95 -9.5 -2.9 -9.6 -2.9 -9.7 -2.6 -9.65 -2.45 -9.5 -2.35 -9.35 -2.35 -9.05 -2.35 -8.75 -2.6 -8.5 L-3.1 -8.1 -3.05 -8.45 -2.95 -8.4 Q-2.85 -8.4 -2.8 -8.45 L-2.7 -8.45 -2.7 -8.7 -3.05 -8.7 -3.0 -9.1 -3.0 -9.0 -2.85 -8.9 -2.65 -9.0 -2.6 -9.05 -2.6 -9.15 M-3.15 -9.7 L-3.2 -9.65 -3.2 -9.6 -3.15 -9.7" fill="#ffbc59" fill-rule="evenodd" stroke="none"/>
    <path d="M2.55 -17.05 L2.55 -16.9 2.5 -16.85 2.35 -16.8 2.2 -16.8 Q2.15 -16.8 2.15 -16.95 2.15 -17.05 2.5 -17.1 2.55 -17.2 2.55 -17.05 M2.15 -16.45 L2.15 -16.2 1.85 -16.15 1.75 -16.2 Q1.7 -16.2 1.7 -16.35 1.7 -16.45 1.8 -16.45 L2.05 -16.5 2.15 -16.45 M1.7 -16.05 Q2.0 -16.05 2.05 -15.95 2.15 -15.9 2.15 -15.8 2.15 -15.45 1.55 -15.45 1.4 -15.45 1.35 -15.6 1.3 -15.7 1.3 -15.8 1.3 -15.95 1.45 -16.0 L1.7 -16.05 M2.75 -16.35 L2.8 -16.25 2.75 -16.0 Q2.7 -15.95 2.5 -15.95 L2.4 -15.95 2.35 -16.0 2.3 -16.0 Q2.3 -16.05 2.3 -16.15 2.3 -16.3 2.6 -16.5 L2.75 -16.35 M-1.75 -21.45 Q-1.55 -21.5 -1.45 -21.25 L-1.5 -21.05 -1.55 -21.0 -1.7 -20.95 Q-1.8 -20.95 -1.85 -21.15 L-1.95 -21.25 Q-1.95 -21.45 -1.75 -21.45 M-0.65 -22.15 Q-0.5 -22.1 -0.45 -22.05 L-0.45 -21.85 -0.6 -21.8 Q-0.65 -21.8 -0.7 -21.85 -0.75 -21.9 -0.75 -22.0 -0.75 -22.15 -0.7 -22.15 L-0.65 -22.15 M-0.5 -21.55 Q-0.45 -21.5 -0.45 -21.45 -0.45 -21.25 -0.75 -21.05 -1.0 -20.8 -1.2 -20.85 -1.3 -20.85 -1.3 -20.9 L-1.35 -21.05 Q-1.35 -21.25 -1.15 -21.45 -0.95 -21.7 -0.7 -21.7 -0.6 -21.7 -0.5 -21.55 M-5.45 -14.7 Q-5.45 -14.65 -5.55 -14.65 -5.6 -14.7 -5.65 -14.8 L-5.55 -14.9 Q-5.45 -14.9 -5.4 -14.75 L-5.45 -14.7 M-5.15 -10.9 Q-5.05 -10.9 -5.0 -10.7 -4.95 -10.55 -4.95 -10.5 -4.95 -10.45 -5.05 -10.35 -5.15 -10.25 -5.3 -10.25 -5.5 -10.25 -5.55 -10.55 -5.55 -10.7 -5.45 -10.8 -5.3 -10.9 -5.15 -10.9 M-2.9 -9.7 Q-2.9 -9.6 -2.95 -9.5 -2.55 -9.35 -2.5 -9.25 L-2.6 -9.15 Q-2.6 -9.4 -2.8 -9.35 -3.0 -9.3 -3.0 -9.15 L-3.0 -9.1 -3.05 -8.7 -2.7 -8.7 -2.7 -8.45 -2.8 -8.45 Q-2.85 -8.4 -2.95 -8.4 L-3.05 -8.45 -3.1 -8.1 -3.15 -8.0 -3.25 -8.55 -3.3 -9.15 -3.3 -9.25 -3.2 -9.6 -3.2 -9.65 -3.15 -9.7 -2.9 -9.7 M-5.55 -9.8 Q-5.35 -9.75 -5.3 -9.7 L-5.4 -9.55 Q-5.45 -9.5 -5.6 -9.5 L-5.7 -9.5 -5.7 -9.6 Q-5.7 -9.7 -5.65 -9.8 L-5.55 -9.8 M-5.95 -6.4 L-5.9 -6.2 Q-5.9 -6.1 -6.0 -6.0 -6.1 -5.9 -6.2 -5.8 L-6.35 -5.85 Q-6.4 -5.9 -6.4 -6.05 -6.4 -6.15 -6.25 -6.3 -6.15 -6.4 -5.95 -6.45 L-5.95 -6.4" fill="#cc8a28" fill-rule="evenodd" stroke="none"/>
    <path d="M-3.0 -9.1 L-3.0 -9.15 Q-3.0 -9.3 -2.8 -9.35 -2.6 -9.4 -2.6 -9.15 L-2.6 -9.05 -2.65 -9.0 -2.85 -8.9 -3.0 -9.0 -3.0 -9.1" fill="#ffffff" fill-rule="evenodd" stroke="none"/>
  </g>
</svg>
