<?xml version="1.0" encoding="UTF-8" standalone="no"?>
<svg xmlns:ffdec="https://www.free-decompiler.com/flash" xmlns:xlink="http://www.w3.org/1999/xlink" ffdec:objectType="shape" height="21.1px" width="11.85px" xmlns="http://www.w3.org/2000/svg">
  <g transform="matrix(1.0, 0.0, 0.0, 1.0, 8.7, 21.45)">
    <path d="M-4.7 -1.2 L-3.6 -1.5 -3.5 -1.55 Q-3.4 -1.6 -3.3 -1.7 L-3.1 -1.85 Q-2.85 -2.1 -2.65 -2.35 -1.9 -3.3 -1.1 -5.15 L-0.75 -6.2 Q-0.6 -6.7 -0.5 -7.15 L-0.5 -7.2 -0.3 -7.85 Q-0.2 -8.3 -0.2 -8.7 -0.1 -9.6 -0.3 -12.35 L-0.2 -13.25 -0.15 -13.25 0.1 -10.15 Q0.2 -10.55 0.5 -11.2 0.8 -11.8 1.3 -12.65 2.55 -14.7 2.5 -15.6 2.45 -18.25 1.05 -19.6 L1.0 -19.6 1.0 -19.65 Q0.65 -19.95 0.3 -20.1 L0.25 -20.15 Q-0.15 -20.35 -0.6 -20.5 L-0.85 -20.55 -0.75 -20.4 Q-1.0 -20.55 -1.1 -20.55 -2.35 -20.5 -2.8 -18.95 -2.95 -18.4 -2.9 -17.8 L-2.85 -17.7 Q-2.35 -16.55 -1.9 -15.35 L-1.9 -15.3 -1.8 -14.95 Q-1.4 -13.95 -1.15 -13.15 L-0.7 -11.85 -1.0 -11.15 Q-1.2 -10.8 -1.15 -10.55 L-1.15 -10.35 -1.65 -9.35 Q-2.75 -7.05 -2.95 -6.1 -3.15 -5.4 -3.85 -3.7 -4.6 -1.85 -5.0 -1.25 L-4.7 -1.2 M-2.85 -20.0 L-2.8 -20.1 -2.5 -20.55 -2.15 -21.0 Q-2.1 -21.15 -1.85 -21.3 -1.65 -21.45 -1.5 -21.45 -0.05 -21.5 1.2 -20.35 2.7 -19.0 2.75 -16.7 2.75 -16.3 2.95 -15.6 3.15 -14.85 3.15 -14.6 2.45 -13.75 1.75 -12.65 0.35 -10.45 0.4 -9.15 L0.35 -8.9 0.25 -8.55 Q0.25 -7.7 -0.15 -6.55 L-0.55 -5.5 -0.65 -4.95 Q-1.0 -4.05 -1.0 -3.25 -1.0 -3.15 -1.7 -2.45 -2.4 -1.65 -2.9 -1.25 -3.0 -1.15 -3.8 -0.8 -4.7 -0.35 -4.95 -0.35 -5.95 -0.35 -5.95 -0.8 L-5.85 -1.05 Q-6.1 -1.1 -6.5 -1.25 -7.15 -1.5 -7.2 -1.75 -7.2 -1.85 -7.1 -1.95 -7.0 -2.1 -6.75 -2.15 L-6.15 -2.1 -6.55 -2.45 Q-7.3 -3.1 -7.3 -3.4 -7.3 -3.75 -7.0 -3.8 L-6.55 -3.8 Q-6.4 -3.8 -6.2 -3.95 L-6.5 -4.15 Q-7.15 -4.6 -7.4 -4.85 L-7.35 -5.1 Q-6.9 -5.15 -6.2 -5.35 L-7.35 -6.2 Q-7.95 -6.7 -7.05 -6.7 L-6.8 -6.8 -6.95 -7.0 Q-7.4 -7.85 -7.4 -8.4 L-7.3 -9.9 -7.3 -10.25 -7.4 -10.35 Q-7.25 -10.55 -7.25 -10.95 L-7.2 -10.9 -7.1 -11.65 Q-6.8 -13.05 -6.4 -13.6 L-6.6 -13.6 Q-6.85 -13.6 -7.55 -13.3 L-8.45 -12.95 -8.7 -12.95 -8.7 -13.1 -8.65 -13.25 -8.0 -13.6 -7.75 -13.7 Q-6.85 -14.05 -6.55 -14.1 L-5.05 -14.0 -3.55 -13.85 Q-3.3 -13.8 -2.7 -13.45 L-2.3 -13.2 -2.25 -13.15 Q-1.85 -12.75 -1.7 -12.6 L-1.45 -12.6 -1.5 -12.75 -1.55 -12.85 -1.65 -13.3 -1.65 -13.35 -2.0 -14.9 Q-2.1 -15.15 -2.8 -15.85 L-3.05 -16.25 -3.15 -16.4 Q-3.3 -16.8 -3.4 -17.15 L-3.5 -17.25 -3.55 -18.15 Q-3.55 -18.65 -3.35 -19.15 -3.2 -19.55 -2.85 -20.0 M-6.1 -6.75 Q-6.05 -6.85 -5.9 -7.85 L-5.8 -8.25 -5.8 -8.3 Q-5.75 -8.8 -5.75 -8.95 -5.75 -9.35 -5.0 -10.15 -4.3 -10.85 -4.15 -10.9 -3.95 -10.9 -3.35 -10.3 -2.8 -9.7 -2.8 -9.45 L-2.8 -9.4 -2.75 -9.4 -2.15 -9.6 -2.0 -9.9 Q-2.6 -9.9 -3.15 -10.35 -3.75 -10.85 -2.7 -10.9 L-1.55 -11.05 -1.5 -11.25 -1.65 -11.25 Q-2.0 -11.25 -2.6 -11.45 -3.25 -11.7 -3.3 -12.0 -3.3 -12.4 -2.7 -12.45 L-2.1 -12.45 -2.25 -12.6 Q-3.25 -13.35 -3.65 -13.35 L-4.1 -13.4 -4.5 -13.5 -6.05 -13.55 Q-6.05 -12.9 -6.35 -12.1 -6.65 -11.25 -6.65 -10.9 L-6.7 -10.35 -6.8 -9.85 Q-6.95 -9.0 -6.95 -8.35 -6.9 -7.8 -6.65 -7.35 -6.5 -7.1 -6.1 -6.75 M-2.7 -11.95 Q-2.5 -11.8 -1.95 -11.65 L-1.4 -11.55 Q-1.35 -11.7 -1.35 -11.75 L-1.35 -11.8 -1.85 -12.25 Q-1.9 -11.95 -2.7 -11.95 M-2.3 -10.6 Q-2.55 -10.6 -2.75 -10.5 L-2.45 -10.4 Q-2.2 -10.3 -2.1 -10.3 L-1.9 -10.3 -1.85 -10.25 -1.7 -10.75 -1.95 -10.7 -2.3 -10.6 M-4.1 -8.95 Q-3.8 -8.75 -3.3 -8.6 L-2.6 -8.45 -2.35 -9.0 -2.75 -8.95 Q-3.3 -8.9 -3.85 -8.95 L-4.1 -8.95 M-3.15 -9.3 L-3.4 -9.75 Q-3.8 -10.3 -4.15 -10.3 -4.6 -10.3 -4.95 -9.8 L-4.8 -9.65 -4.6 -9.4 Q-4.6 -8.85 -5.0 -8.7 -5.15 -8.6 -5.4 -8.6 L-5.5 -8.3 -4.9 -7.7 Q-4.9 -7.3 -5.2 -7.15 -5.35 -7.05 -5.55 -7.05 L-5.55 -6.8 Q-5.4 -6.75 -5.25 -6.65 -4.85 -6.4 -4.85 -6.2 L-4.85 -6.05 -4.35 -6.15 Q-3.9 -6.2 -3.5 -6.35 L-3.4 -6.6 -4.1 -6.75 Q-4.9 -7.0 -4.9 -7.3 -4.9 -7.6 -4.0 -7.7 L-2.85 -7.85 -2.75 -8.1 -2.8 -8.1 Q-3.1 -8.05 -3.8 -8.3 -4.55 -8.6 -4.6 -8.9 -4.6 -9.3 -4.2 -9.3 L-3.6 -9.25 -3.15 -9.3 M-5.15 -9.4 L-5.3 -8.95 -5.3 -9.0 Q-5.25 -9.0 -5.0 -9.2 L-5.15 -9.4 M-5.55 -7.3 L-5.55 -7.25 Q-5.5 -7.3 -5.45 -7.35 L-5.2 -7.5 -5.2 -7.65 -5.55 -7.9 -5.55 -7.3 M-4.4 -7.3 Q-4.25 -7.15 -3.75 -7.0 -3.5 -6.95 -3.35 -6.75 L-3.05 -7.4 Q-3.25 -7.25 -3.5 -7.25 L-4.35 -7.3 -4.4 -7.3 M-6.6 -6.4 Q-6.8 -6.35 -7.0 -6.35 L-6.25 -5.95 -5.95 -5.75 Q-5.85 -5.85 -5.5 -5.95 L-5.45 -6.0 -5.05 -6.05 Q-5.15 -6.3 -5.45 -6.45 L-5.6 -6.5 -5.65 -6.35 Q-5.75 -6.15 -6.05 -6.15 -6.25 -6.15 -6.5 -6.4 L-6.6 -6.4 M-6.2 -4.95 L-7.05 -4.8 Q-6.95 -4.75 -6.2 -4.45 -5.95 -4.35 -5.75 -4.2 -5.7 -4.35 -5.55 -4.45 -5.2 -4.6 -5.15 -4.75 -5.35 -4.75 -5.65 -4.95 L-5.8 -5.1 Q-6.0 -4.95 -6.2 -4.95 M-6.15 -3.6 L-6.95 -3.45 Q-6.9 -3.15 -6.55 -2.9 L-6.6 -2.95 Q-6.7 -3.3 -6.25 -3.45 L-5.7 -3.5 -5.8 -3.6 -5.9 -3.65 -6.15 -3.6 M-6.25 -2.95 Q-6.05 -2.75 -5.6 -2.6 L-5.0 -2.45 -4.6 -3.05 Q-4.85 -2.95 -5.15 -2.95 L-6.2 -3.0 -6.25 -2.95 M-6.75 -1.8 Q-6.55 -1.55 -6.2 -1.45 L-5.6 -1.45 -5.4 -1.75 -5.75 -1.75 -6.7 -1.85 -6.75 -1.8 M-3.8 -5.85 Q-4.15 -5.75 -4.6 -5.75 L-5.2 -5.65 Q-4.8 -5.35 -4.0 -5.15 L-4.0 -5.1 -3.75 -5.85 -3.8 -5.85 M-5.55 -5.45 L-5.2 -5.2 Q-4.75 -4.85 -4.75 -4.8 -4.75 -4.55 -5.1 -4.25 L-5.5 -4.0 -5.5 -3.95 Q-5.5 -3.9 -5.55 -3.85 L-5.45 -3.8 Q-5.2 -3.6 -5.2 -3.5 L-4.45 -3.45 -4.45 -3.55 Q-4.9 -3.5 -5.05 -3.7 -5.15 -3.85 -5.05 -4.1 -4.95 -4.3 -4.65 -4.45 -4.4 -4.6 -4.15 -4.6 L-4.05 -4.9 -4.2 -4.9 Q-4.6 -4.9 -5.2 -5.25 -5.55 -5.45 -5.6 -5.65 L-5.75 -5.65 -5.55 -5.45 M-4.85 -4.0 Q-4.75 -3.9 -4.5 -3.85 L-4.35 -3.8 -4.25 -4.1 -4.85 -4.0 M-5.15 -2.2 L-5.65 -2.3 -5.6 -2.1 -5.2 -2.1 -5.15 -2.2" fill="#121212" fill-rule="evenodd" stroke="none"/>
    <path d="M0.25 -20.15 L0.3 -20.1 Q0.65 -19.95 1.0 -19.65 L1.0 -19.6 1.05 -19.6 Q2.45 -18.25 2.5 -15.6 2.55 -14.7 1.3 -12.65 0.8 -11.8 0.5 -11.2 0.2 -10.55 0.1 -10.15 L-0.15 -13.25 -0.2 -13.25 -0.3 -12.35 Q-0.1 -9.6 -0.2 -8.7 -0.2 -8.3 -0.3 -7.85 L-0.5 -7.2 -0.5 -7.15 Q-0.6 -6.7 -0.75 -6.2 L-1.1 -5.15 Q-1.9 -3.3 -2.65 -2.35 -2.85 -2.1 -3.1 -1.85 L-3.3 -1.7 Q-3.4 -1.6 -3.5 -1.55 L-3.6 -1.5 -4.7 -1.2 -4.85 -1.25 -3.9 -2.0 Q-3.35 -2.6 -2.9 -3.55 L-2.3 -5.1 Q-1.05 -7.7 -0.85 -8.45 -0.65 -9.3 -0.7 -11.25 L-0.7 -11.85 -0.65 -12.65 -0.55 -13.35 -0.45 -14.0 -0.45 -14.3 -0.4 -14.55 -0.35 -14.55 0.2 -12.75 0.6 -14.1 Q1.25 -16.45 1.25 -17.1 1.2 -18.15 0.45 -19.75 L0.25 -20.15 M-1.9 -15.3 L-1.9 -15.35 Q-2.35 -16.55 -2.85 -17.7 L-2.9 -17.8 Q-2.95 -18.4 -2.8 -18.95 -2.35 -20.5 -1.1 -20.55 -1.0 -20.55 -0.75 -20.4 L-0.85 -20.55 -0.6 -20.5 -0.8 -20.1 Q-1.95 -17.75 -1.9 -15.35 L-1.9 -15.3" fill="#805619" fill-rule="evenodd" stroke="none"/>
    <path d="M-4.1 -8.95 L-3.85 -8.95 Q-3.3 -8.9 -2.75 -8.95 L-2.35 -9.0 -2.6 -8.45 -3.3 -8.6 Q-3.8 -8.75 -4.1 -8.95 M-2.3 -10.6 L-1.95 -10.7 -1.7 -10.75 -1.85 -10.25 -1.9 -10.3 -2.1 -10.3 Q-2.2 -10.3 -2.45 -10.4 L-2.75 -10.5 Q-2.55 -10.6 -2.3 -10.6 M-2.7 -11.95 Q-1.9 -11.95 -1.85 -12.25 L-1.35 -11.8 -1.35 -11.75 Q-1.35 -11.7 -1.4 -11.55 L-1.95 -11.65 Q-2.5 -11.8 -2.7 -11.95 M-3.8 -5.85 L-3.75 -5.85 -4.0 -5.1 -4.0 -5.15 Q-4.8 -5.35 -5.2 -5.65 L-4.6 -5.75 Q-4.15 -5.75 -3.8 -5.85 M-6.75 -1.8 L-6.7 -1.85 -5.75 -1.75 -5.4 -1.75 -5.6 -1.45 -6.2 -1.45 Q-6.55 -1.55 -6.75 -1.8 M-6.25 -2.95 L-6.2 -3.0 -5.15 -2.95 Q-4.85 -2.95 -4.6 -3.05 L-5.0 -2.45 -5.6 -2.6 Q-6.05 -2.75 -6.25 -2.95 M-6.15 -3.6 L-5.9 -3.65 -5.8 -3.6 -5.7 -3.5 -6.25 -3.45 Q-6.7 -3.3 -6.6 -2.95 L-6.55 -2.9 Q-6.9 -3.15 -6.95 -3.45 L-6.15 -3.6 M-6.2 -4.95 Q-6.0 -4.95 -5.8 -5.1 L-5.65 -4.95 Q-5.35 -4.75 -5.15 -4.75 -5.2 -4.6 -5.55 -4.45 -5.7 -4.35 -5.75 -4.2 -5.95 -4.35 -6.2 -4.45 -6.95 -4.75 -7.05 -4.8 L-6.2 -4.95 M-6.6 -6.4 L-6.5 -6.4 Q-6.25 -6.15 -6.05 -6.15 -5.75 -6.15 -5.65 -6.35 L-5.6 -6.5 -5.45 -6.45 Q-5.15 -6.3 -5.05 -6.05 L-5.45 -6.0 -5.5 -5.95 Q-5.85 -5.85 -5.95 -5.75 L-6.25 -5.95 -7.0 -6.35 Q-6.8 -6.35 -6.6 -6.4 M-4.4 -7.3 L-4.35 -7.3 -3.5 -7.25 Q-3.25 -7.25 -3.05 -7.4 L-3.35 -6.75 Q-3.5 -6.95 -3.75 -7.0 -4.25 -7.15 -4.4 -7.3 M-5.55 -7.3 L-5.55 -7.9 -5.2 -7.65 -5.2 -7.5 -5.45 -7.35 Q-5.5 -7.3 -5.55 -7.25 L-5.55 -7.3 M-5.15 -9.4 L-5.0 -9.2 Q-5.25 -9.0 -5.3 -9.0 L-5.3 -8.95 -5.15 -9.4 M-4.85 -4.0 L-4.25 -4.1 -4.35 -3.8 -4.5 -3.85 Q-4.75 -3.9 -4.85 -4.0" fill="#ffffcc" fill-rule="evenodd" stroke="none"/>
    <path d="M-3.15 -9.3 L-3.6 -9.25 -4.2 -9.3 Q-4.6 -9.3 -4.6 -8.9 -4.55 -8.6 -3.8 -8.3 -3.1 -8.05 -2.8 -8.1 L-2.75 -8.1 -2.85 -7.85 -4.0 -7.7 Q-4.9 -7.6 -4.9 -7.3 -4.9 -7.0 -4.1 -6.75 L-3.4 -6.6 -3.5 -6.35 Q-3.9 -6.2 -4.35 -6.15 L-4.85 -6.05 -4.85 -6.2 Q-4.85 -6.4 -5.25 -6.65 -5.4 -6.75 -5.55 -6.8 L-5.55 -7.05 Q-5.35 -7.05 -5.2 -7.15 -4.9 -7.3 -4.9 -7.7 L-5.5 -8.3 -5.4 -8.6 Q-5.15 -8.6 -5.0 -8.7 -4.6 -8.85 -4.6 -9.4 L-4.8 -9.65 -4.95 -9.8 Q-4.6 -10.3 -4.15 -10.3 -3.8 -10.3 -3.4 -9.75 L-3.15 -9.3 M-5.55 -5.45 L-5.75 -5.65 -5.6 -5.65 Q-5.55 -5.45 -5.2 -5.25 -4.6 -4.9 -4.2 -4.9 L-4.05 -4.9 -4.15 -4.6 Q-4.4 -4.6 -4.65 -4.45 -4.95 -4.3 -5.05 -4.1 -5.15 -3.85 -5.05 -3.7 -4.9 -3.5 -4.45 -3.55 L-4.45 -3.45 -5.2 -3.5 Q-5.2 -3.6 -5.45 -3.8 L-5.55 -3.85 Q-5.5 -3.9 -5.5 -3.95 L-5.5 -4.0 -5.1 -4.25 Q-4.75 -4.55 -4.75 -4.8 -4.75 -4.85 -5.2 -5.2 L-5.55 -5.45 M-5.15 -2.2 L-5.2 -2.1 -5.6 -2.1 -5.65 -2.3 -5.15 -2.2" fill="#894361" fill-rule="evenodd" stroke="none"/>
    <path d="M-6.7 -10.35 L-6.6 -10.6 Q-6.2 -11.25 -5.45 -11.4 L-5.45 -11.35 -5.85 -9.45 Q-6.15 -7.8 -6.15 -6.95 L-6.1 -6.75 Q-6.5 -7.1 -6.65 -7.35 -6.9 -7.8 -6.95 -8.35 -6.95 -9.0 -6.8 -9.85 L-6.7 -10.35" fill="#cc5b5b" fill-rule="evenodd" stroke="none"/>
    <path d="M-6.7 -10.35 L-6.65 -10.9 Q-6.65 -11.25 -6.35 -12.1 -6.05 -12.9 -6.05 -13.55 L-4.5 -13.5 -4.1 -13.4 -3.65 -13.35 Q-3.25 -13.35 -2.25 -12.6 L-2.1 -12.45 -2.7 -12.45 Q-3.3 -12.4 -3.3 -12.0 -3.25 -11.7 -2.6 -11.45 -2.0 -11.25 -1.65 -11.25 L-1.5 -11.25 -1.55 -11.05 -2.7 -10.9 Q-3.75 -10.85 -3.15 -10.35 -2.6 -9.9 -2.0 -9.9 L-2.15 -9.6 -2.75 -9.4 -2.8 -9.4 -2.8 -9.45 Q-2.8 -9.7 -3.35 -10.3 -3.95 -10.9 -4.15 -10.9 -4.3 -10.85 -5.0 -10.15 -5.75 -9.35 -5.75 -8.95 -5.75 -8.8 -5.8 -8.3 L-5.8 -8.25 -5.9 -7.85 Q-6.05 -6.85 -6.1 -6.75 L-6.15 -6.95 Q-6.15 -7.8 -5.85 -9.45 L-5.45 -11.35 -5.45 -11.4 Q-6.2 -11.25 -6.6 -10.6 L-6.7 -10.35" fill="#aa2d40" fill-rule="evenodd" stroke="none"/>
    <path d="M0.25 -20.15 L0.45 -19.75 Q1.2 -18.15 1.25 -17.1 1.25 -16.45 0.6 -14.1 L0.2 -12.75 -0.35 -14.55 -0.4 -14.55 -0.45 -14.3 -0.45 -14.0 -0.55 -13.35 -0.65 -12.65 -0.7 -11.85 -0.7 -11.25 Q-0.65 -9.3 -0.85 -8.45 -1.05 -7.7 -2.3 -5.1 L-2.9 -3.55 Q-3.35 -2.6 -3.9 -2.0 L-4.85 -1.25 -4.7 -1.2 -5.0 -1.25 Q-4.6 -1.85 -3.85 -3.7 -3.15 -5.4 -2.95 -6.1 -2.75 -7.05 -1.65 -9.35 L-1.15 -10.35 -1.15 -10.55 Q-1.2 -10.8 -1.0 -11.15 L-0.7 -11.85 -1.15 -13.15 Q-1.4 -13.95 -1.8 -14.95 L-1.9 -15.3 -1.9 -15.35 Q-1.95 -17.75 -0.8 -20.1 L-0.6 -20.5 Q-0.15 -20.35 0.25 -20.15" fill="#cc8a28" fill-rule="evenodd" stroke="none"/>
    <path d="M-8.65 -13.25 L-8.7 -13.4 Q-8.75 -15.65 -6.7 -18.0 -5.85 -18.95 -4.9 -19.55 -4.0 -20.15 -3.4 -20.2 -3.15 -20.2 -2.95 -20.05 L-2.85 -20.0 Q-3.2 -19.55 -3.35 -19.15 -3.55 -18.65 -3.55 -18.15 L-3.5 -17.25 -3.4 -17.15 Q-3.3 -16.8 -3.15 -16.4 L-3.05 -16.25 -2.8 -15.85 Q-2.1 -15.15 -2.0 -14.9 L-1.65 -13.35 -1.65 -13.3 -1.55 -12.85 -1.5 -12.75 -1.7 -12.6 Q-1.85 -12.75 -2.25 -13.15 L-2.3 -13.2 -2.7 -13.45 Q-3.3 -13.8 -3.55 -13.85 L-5.05 -14.0 -6.55 -14.1 Q-6.85 -14.05 -7.75 -13.7 L-8.0 -13.6 -8.65 -13.25" fill="#e1ac93" fill-rule="evenodd" stroke="none"/>
  </g>
</svg>
