<?xml version="1.0" encoding="UTF-8" standalone="no"?>
<svg xmlns:ffdec="https://www.free-decompiler.com/flash" xmlns:xlink="http://www.w3.org/1999/xlink" ffdec:objectType="shape" height="45.7px" width="79.65px" xmlns="http://www.w3.org/2000/svg">
  <g transform="matrix(1.0, 0.0, 0.0, 1.0, 33.5, 49.7)">
    <path d="M28.15 -42.3 Q28.35 -43.35 28.85 -43.7 25.85 -44.85 25.25 -45.0 19.6 -46.5 10.5 -47.75 2.05 -48.95 -1.6 -48.95 L-2.95 -48.9 -3.45 -48.95 Q-4.0 -48.95 -4.2 -48.7 L-4.25 -48.75 Q-5.5 -48.75 -6.0 -47.25 L-6.1 -46.85 Q-6.25 -46.3 -6.3 -45.55 L-6.35 -45.25 -6.2 -45.3 Q-5.85 -45.4 -5.05 -45.2 L-3.2 -44.85 Q-1.8 -44.6 -0.35 -44.6 L4.75 -44.3 5.65 -44.35 Q5.75 -44.45 5.9 -44.45 L6.1 -44.35 7.4 -44.45 10.1 -44.6 11.65 -44.3 9.0 -44.4 Q8.15 -44.4 6.6 -44.05 L6.2 -44.0 6.2 -43.5 6.15 -43.45 6.3 -43.25 Q6.65 -42.9 7.1 -42.05 L7.45 -41.4 Q6.5 -42.85 6.0 -43.4 L5.8 -43.4 5.75 -43.35 Q5.7 -43.25 5.5 -43.25 5.25 -43.25 5.1 -43.4 5.05 -43.55 5.05 -43.65 L5.05 -43.7 Q4.55 -43.75 3.0 -44.05 L2.7 -44.1 2.6 -44.15 2.55 -44.15 0.95 -44.4 0.4 -44.4 -1.2 -44.3 -1.7 -44.25 -1.7 -44.2 -1.9 -44.3 -2.0 -44.3 -2.45 -44.45 -2.7 -44.55 -2.75 -44.55 Q-4.5 -45.1 -5.55 -44.95 -6.05 -44.9 -6.35 -44.7 -6.65 -44.5 -6.8 -44.2 -7.05 -44.0 -7.35 -44.0 L-9.05 -44.4 Q-14.2 -44.4 -17.65 -43.3 -19.6 -42.7 -20.65 -41.85 L-21.55 -41.05 -21.2 -41.1 -20.7 -41.15 Q-20.3 -41.2 -19.7 -40.65 -18.2 -40.25 -15.7 -39.0 -12.7 -37.45 -11.05 -36.75 -10.8 -36.75 -10.45 -36.55 L-10.4 -36.5 -10.25 -36.45 Q-9.2 -35.75 -7.5 -35.15 -6.2 -34.75 -4.9 -34.5 L-4.95 -34.5 Q-6.85 -34.8 -7.9 -35.1 -8.4 -35.2 -8.7 -35.35 -8.9 -35.4 -9.7 -35.8 L-10.45 -36.1 -10.55 -36.15 Q-10.95 -35.75 -11.45 -34.95 L-11.5 -34.95 -11.5 -34.85 -11.65 -34.5 -11.9 -34.2 Q-12.15 -33.85 -12.15 -33.55 -12.1 -32.85 -11.8 -32.1 L-11.6 -31.65 Q-11.3 -30.85 -11.05 -30.35 L-10.75 -29.95 -10.7 -29.9 -10.5 -29.9 -9.65 -29.8 -9.55 -29.75 -9.2 -29.65 Q-8.85 -29.5 -6.9 -29.4 -6.3 -29.25 -5.35 -29.1 L-4.75 -28.95 -2.0 -28.75 Q-2.05 -28.7 -2.95 -28.65 L-4.05 -28.6 Q-4.35 -28.6 -4.85 -28.75 L-5.4 -28.85 -5.45 -28.85 -7.0 -29.0 -9.0 -29.1 -9.15 -29.2 Q-9.2 -29.3 -9.45 -29.35 L-9.95 -29.4 -10.55 -29.35 -10.85 -29.4 -11.0 -29.35 -11.85 -28.0 -11.9 -27.95 -12.55 -26.65 -12.6 -26.5 Q-12.85 -25.85 -12.85 -25.5 -12.85 -25.4 -13.3 -23.25 -13.75 -21.05 -13.8 -20.25 L-13.8 -20.2 -13.85 -20.1 Q-13.95 -20.35 -13.95 -20.8 L-13.85 -21.7 Q-13.75 -22.45 -13.75 -22.6 -13.75 -24.15 -13.0 -26.05 L-12.95 -26.15 -12.8 -26.55 Q-12.3 -27.8 -11.6 -28.95 -11.45 -29.05 -11.35 -29.3 L-11.35 -29.35 -11.25 -29.5 -11.3 -29.5 Q-11.25 -29.7 -11.25 -30.0 L-11.25 -30.15 -11.3 -30.35 Q-11.35 -30.8 -11.65 -31.4 L-11.95 -31.9 -12.05 -32.25 -12.4 -32.85 -12.6 -33.3 -12.7 -33.6 -13.05 -33.6 -13.1 -33.75 -13.3 -33.85 -12.75 -34.3 -12.65 -34.35 -12.45 -34.6 Q-12.3 -34.75 -11.9 -34.9 L-11.55 -35.45 -11.2 -36.0 -11.15 -36.1 -11.45 -36.3 -11.5 -36.4 -11.45 -36.5 Q-12.45 -36.9 -13.75 -37.6 -15.45 -38.5 -16.35 -38.95 L-16.4 -38.95 -16.8 -39.1 -16.95 -39.15 -18.6 -39.7 Q-19.5 -40.05 -19.95 -40.35 L-20.1 -40.35 -20.7 -40.4 -21.15 -40.5 -22.05 -40.6 -23.2 -40.5 -23.7 -40.4 Q-25.15 -40.15 -26.2 -39.6 L-26.8 -39.25 -26.8 -39.4 Q-26.8 -39.8 -24.55 -40.65 -21.85 -41.65 -21.7 -41.75 -21.3 -41.95 -19.45 -43.15 L-17.75 -44.25 Q-17.6 -44.25 -17.45 -44.1 -17.35 -44.0 -17.2 -44.0 -14.0 -44.35 -13.5 -44.5 L-12.55 -44.8 -11.05 -44.85 Q-9.1 -44.85 -8.9 -44.7 L-8.8 -44.6 -8.35 -44.55 Q-8.25 -44.55 -7.65 -44.9 -7.2 -45.2 -6.65 -45.2 -6.5 -45.6 -6.4 -46.3 L-6.35 -46.35 -6.35 -46.55 Q-6.2 -47.3 -6.0 -47.7 -5.7 -48.3 -5.3 -48.75 L-11.8 -48.2 -19.3 -47.4 Q-20.25 -46.7 -22.8 -45.5 -26.3 -43.8 -28.25 -43.8 -29.95 -42.9 -31.3 -40.4 L-31.95 -39.25 -32.0 -39.1 -32.25 -38.7 -32.25 -38.65 -32.4 -38.45 Q-32.35 -38.15 -32.35 -37.75 -32.4 -37.3 -32.3 -36.7 -32.2 -36.15 -32.05 -35.7 -32.0 -35.5 -31.8 -33.75 -31.6 -32.05 -31.6 -31.7 -31.6 -31.5 -31.45 -30.85 L-31.35 -30.5 -31.25 -30.5 Q-31.05 -30.5 -30.9 -30.3 L-30.75 -30.0 Q-29.4 -31.0 -28.5 -31.95 -28.15 -32.3 -27.25 -33.4 L-27.3 -33.5 -27.3 -33.55 -27.1 -33.6 -27.0 -33.75 -27.35 -36.2 Q-27.65 -37.9 -27.7 -38.7 L-27.75 -39.1 Q-27.75 -39.3 -27.6 -39.35 L-27.35 -39.35 Q-27.2 -39.1 -27.25 -38.9 L-27.25 -38.85 -27.3 -38.75 Q-27.35 -38.65 -27.35 -38.5 -27.35 -38.25 -27.3 -38.05 L-27.2 -37.9 -26.95 -36.1 -26.55 -33.8 -26.6 -33.6 -26.6 -33.55 -24.15 -33.05 -23.0 -32.8 -22.75 -32.85 -22.55 -32.8 -22.5 -32.75 Q-21.15 -32.5 -20.25 -32.5 L-18.05 -32.75 -16.6 -32.95 -15.3 -33.1 -15.3 -33.2 -15.25 -33.25 -15.25 -33.35 -15.2 -33.35 Q-14.4 -33.35 -13.9 -33.7 L-13.65 -33.85 Q-13.5 -33.65 -13.45 -33.4 L-13.75 -33.4 -14.0 -33.35 -14.2 -33.35 Q-14.5 -33.25 -14.8 -33.15 -15.1 -33.05 -15.35 -32.85 L-16.25 -32.85 -16.4 -32.85 -16.45 -32.8 Q-16.75 -32.7 -18.15 -32.45 L-19.7 -32.25 -19.9 -32.25 -21.0 -32.2 -22.55 -32.2 -22.8 -31.7 -22.85 -31.65 -22.85 -31.6 Q-23.15 -30.95 -23.2 -29.55 -23.2 -29.15 -23.35 -28.1 -23.45 -27.1 -23.4 -26.55 -23.35 -25.75 -23.55 -23.55 -23.65 -21.55 -23.5 -20.55 L-23.5 -15.8 -23.55 -15.4 -21.35 -13.35 -19.95 -12.05 -19.5 -11.65 -17.25 -9.45 Q-17.0 -9.85 -16.75 -10.4 L-16.25 -11.8 Q-15.7 -12.95 -14.5 -13.55 L-14.45 -13.6 Q-14.5 -13.7 -14.5 -13.85 -14.5 -14.35 -14.35 -15.0 -14.15 -15.85 -14.05 -16.7 -13.95 -17.6 -13.95 -19.45 L-13.85 -19.45 -13.7 -17.25 -13.65 -15.75 Q-13.65 -15.25 -13.1 -14.6 L-12.95 -14.4 -12.65 -14.25 -11.2 -14.05 -6.15 -13.45 Q-5.2 -13.45 -4.35 -13.65 -3.7 -14.1 -2.95 -14.6 -1.9 -15.35 -0.9 -16.05 L-0.8 -16.2 -0.05 -17.1 Q1.1 -18.25 1.8 -19.05 2.25 -19.4 2.8 -20.05 3.05 -20.15 3.25 -20.5 3.5 -20.9 3.5 -21.3 3.5 -21.85 3.1 -22.15 2.8 -22.55 1.7 -23.75 L1.45 -24.25 Q0.65 -25.8 -0.45 -27.0 L-0.9 -27.55 -1.1 -28.0 Q-1.2 -28.05 -1.3 -28.2 -1.5 -28.6 -1.9 -28.7 -1.55 -29.2 -1.1 -29.4 L-0.75 -30.2 Q-0.25 -31.65 -0.25 -32.45 -0.25 -33.1 -1.45 -33.65 L-1.85 -33.8 -1.95 -33.85 -2.15 -33.9 -2.2 -33.9 Q-2.9 -34.15 -3.85 -34.35 L-3.9 -34.35 -4.5 -34.45 -4.15 -34.4 -4.05 -34.4 -3.85 -34.35 Q-2.4 -34.15 -1.45 -33.75 L-1.3 -33.7 -1.05 -33.6 -0.55 -33.25 -0.6 -33.35 -0.5 -33.45 Q-0.25 -33.2 0.15 -33.2 L0.3 -33.2 0.95 -33.1 1.35 -33.15 Q2.05 -32.95 3.45 -32.85 L5.1 -32.8 6.85 -35.95 7.0 -36.2 7.0 -36.25 7.85 -37.8 Q8.55 -39.2 8.55 -39.5 8.55 -39.7 7.8 -40.9 L7.85 -40.8 Q8.3 -40.25 8.85 -39.9 L8.85 -40.0 11.4 -40.5 11.5 -40.55 12.25 -40.7 13.95 -41.0 15.35 -41.3 15.4 -41.3 16.0 -41.45 Q17.35 -41.85 18.35 -42.75 L17.6 -42.9 Q16.35 -43.2 14.75 -43.7 L18.5 -42.9 18.55 -42.95 Q18.85 -42.8 19.35 -42.8 L19.45 -42.7 20.0 -42.6 20.65 -42.5 20.4 -42.5 19.5 -42.6 18.1 -41.85 Q17.6 -41.55 17.1 -41.3 17.05 -41.2 16.9 -41.05 16.7 -40.85 16.7 -40.8 16.7 -40.7 16.85 -40.25 17.0 -39.8 17.1 -39.75 L17.0 -39.65 16.8 -39.75 16.8 -39.8 Q16.65 -39.9 16.45 -40.0 L16.35 -40.2 16.35 -40.25 Q16.15 -40.45 15.65 -40.6 L15.55 -40.65 15.2 -40.65 15.15 -40.65 13.7 -40.7 13.65 -40.7 12.95 -40.6 Q11.55 -40.4 10.55 -39.95 10.1 -39.8 9.85 -39.6 L9.35 -39.6 9.05 -39.6 8.7 -38.95 8.05 -37.85 7.15 -36.25 6.95 -35.85 Q5.55 -33.2 5.55 -33.0 5.55 -32.85 5.75 -32.6 5.9 -32.4 5.9 -32.2 5.1 -32.7 4.6 -32.8 4.1 -32.9 3.9 -32.65 L0.65 -32.65 Q0.55 -32.6 0.4 -32.6 0.3 -32.3 0.2 -31.85 -0.45 -30.95 -0.6 -29.55 -0.85 -29.15 -0.85 -28.85 -0.75 -28.5 -0.6 -28.2 -0.6 -28.0 -0.65 -27.95 L1.7 -24.7 3.9 -21.65 Q4.75 -22.55 6.3 -23.7 L7.5 -24.55 Q9.95 -26.85 11.4 -27.9 L11.95 -28.45 12.05 -28.5 Q11.95 -28.6 11.9 -28.75 11.6 -29.4 11.05 -29.6 L9.4 -30.05 Q8.75 -30.2 8.25 -30.4 L8.05 -30.55 7.4 -31.15 Q8.4 -30.7 10.85 -29.95 L12.85 -29.3 Q14.3 -30.65 15.5 -31.5 16.35 -32.2 18.0 -33.15 L18.35 -33.35 18.3 -33.5 Q18.3 -33.65 18.55 -34.05 18.75 -34.4 18.75 -34.5 18.75 -34.8 18.05 -36.65 L18.05 -36.75 18.0 -36.85 17.95 -36.9 17.95 -36.95 17.45 -38.3 17.45 -38.35 17.4 -38.4 17.15 -39.2 17.1 -39.25 17.1 -39.35 17.1 -39.4 17.15 -39.4 Q17.45 -38.95 17.65 -38.3 L17.8 -37.9 17.8 -37.85 17.95 -37.35 18.1 -36.65 18.2 -36.3 Q18.7 -34.85 19.8 -34.2 20.1 -34.35 20.25 -34.4 21.5 -34.8 25.35 -35.5 L28.45 -36.0 Q30.25 -36.25 31.25 -36.25 L36.4 -36.05 37.5 -36.0 40.75 -35.9 39.25 -36.5 38.85 -36.7 38.9 -36.75 38.55 -36.95 38.5 -37.0 Q38.2 -37.15 37.8 -37.45 L37.65 -37.55 Q37.15 -37.95 36.6 -38.1 35.65 -38.45 32.95 -38.8 33.45 -38.95 34.9 -38.6 37.1 -38.1 38.7 -37.25 39.35 -36.9 40.25 -36.75 L41.85 -36.5 Q43.25 -36.3 44.25 -35.8 L44.35 -35.85 44.8 -35.9 Q44.5 -36.45 43.35 -37.25 L43.3 -37.25 Q43.0 -37.45 42.8 -37.6 41.8 -38.3 41.65 -38.45 L40.4 -39.65 Q39.5 -40.3 38.15 -40.65 35.0 -41.4 30.55 -43.1 L29.15 -43.6 28.8 -43.35 Q28.35 -42.85 28.35 -42.65 L28.35 -42.2 28.35 -42.05 28.55 -41.65 28.7 -41.15 28.7 -40.85 29.6 -40.0 29.85 -39.8 Q30.65 -39.3 31.6 -39.0 L31.85 -38.9 30.1 -39.1 29.75 -39.35 28.6 -40.3 28.55 -40.25 28.2 -40.6 28.05 -40.7 28.05 -40.75 Q27.35 -41.15 26.4 -41.35 25.6 -41.5 24.95 -41.35 24.9 -41.6 24.65 -41.75 26.85 -41.35 27.9 -41.0 L27.9 -41.35 28.1 -41.85 28.1 -41.9 28.15 -42.3 M33.35 -42.85 L38.75 -41.1 Q41.3 -40.25 41.85 -39.65 42.2 -39.3 42.95 -38.75 L44.4 -37.85 Q46.1 -36.6 46.1 -35.75 L46.1 -35.65 Q46.15 -35.35 46.15 -34.7 46.15 -34.4 45.95 -34.15 45.7 -33.8 45.25 -33.8 L43.15 -34.8 41.95 -35.35 41.2 -35.45 38.15 -35.65 Q34.85 -35.65 28.85 -34.85 L22.4 -33.95 Q21.05 -33.75 19.85 -33.3 19.25 -32.95 19.05 -32.9 L18.7 -32.75 16.2 -31.1 Q14.85 -30.25 13.4 -28.95 L13.3 -28.9 Q13.05 -28.85 12.8 -28.7 12.55 -28.55 12.55 -28.35 L12.6 -28.2 12.4 -28.05 9.05 -24.75 8.25 -23.95 Q6.75 -23.0 6.0 -22.35 5.0 -21.55 4.5 -20.75 4.4 -20.75 4.35 -20.7 4.2 -20.6 4.2 -20.2 L4.2 -20.1 4.1 -20.0 4.1 -19.95 3.45 -19.2 2.95 -18.55 1.85 -17.5 Q-3.35 -12.4 -4.8 -12.35 -5.0 -12.25 -5.05 -12.25 L-5.3 -12.25 Q-6.8 -12.25 -8.25 -12.55 -9.0 -12.7 -10.25 -13.1 L-11.75 -13.45 -11.9 -13.45 -12.8 -13.25 -12.85 -13.4 Q-13.2 -13.45 -13.45 -13.5 -13.6 -13.55 -13.7 -13.65 -13.95 -13.2 -14.0 -12.75 L-14.1 -12.7 -14.85 -11.65 -16.95 -8.8 Q-17.15 -8.85 -17.2 -8.45 L-18.05 -7.2 -18.35 -6.75 -18.95 -6.15 -19.7 -5.45 Q-20.75 -4.6 -22.4 -4.5 -22.65 -4.5 -23.95 -4.15 L-24.6 -4.0 Q-24.95 -4.4 -25.35 -5.25 -25.8 -6.2 -26.4 -7.85 -26.75 -8.5 -27.15 -9.2 L-27.5 -9.9 -28.1 -11.4 Q-28.25 -11.5 -28.3 -11.6 -28.3 -11.65 -28.3 -11.95 L-28.55 -12.45 Q-28.85 -12.8 -29.1 -13.75 L-29.55 -14.8 -29.5 -15.2 Q-29.5 -15.7 -29.65 -18.5 L-30.25 -23.85 Q-30.35 -24.25 -30.4 -24.8 L-30.5 -25.6 Q-30.65 -25.9 -30.7 -26.55 L-30.85 -27.8 Q-31.3 -28.85 -31.6 -30.35 L-31.85 -31.85 -32.05 -32.5 -31.95 -32.5 -32.05 -33.05 Q-32.2 -33.5 -32.95 -35.9 -33.35 -37.25 -33.5 -37.85 -33.3 -38.6 -32.95 -39.25 L-32.85 -39.35 Q-31.85 -40.45 -31.25 -41.7 -31.2 -41.9 -31.1 -42.25 -31.3 -42.0 -31.4 -41.75 L-31.55 -41.7 Q-31.3 -41.9 -31.1 -42.35 L-31.05 -42.65 Q-30.95 -43.25 -30.8 -43.55 -30.7 -43.75 -30.45 -43.9 -29.85 -44.65 -28.55 -44.5 L-25.75 -45.3 Q-22.6 -46.25 -21.85 -46.65 -21.4 -46.85 -21.0 -47.15 L-20.4 -47.55 Q-19.65 -48.0 -18.2 -48.15 L-14.0 -48.45 Q-11.75 -48.55 -9.7 -49.0 -7.45 -49.45 -4.45 -49.55 L-4.4 -49.6 -4.25 -49.7 -3.75 -49.65 -3.35 -49.65 -3.3 -49.55 Q0.3 -49.6 4.95 -49.05 7.8 -48.75 12.05 -48.1 L17.65 -47.3 Q21.7 -46.7 24.75 -45.75 25.95 -45.4 33.35 -42.85 M-31.0 -29.05 L-30.65 -27.75 -30.7 -27.75 Q-30.6 -27.35 -30.55 -26.8 L-30.45 -26.25 -30.4 -25.95 -30.3 -25.4 -30.35 -25.45 -30.25 -24.8 -29.9 -23.35 -30.0 -23.35 Q-29.2 -18.75 -29.0 -15.1 L-28.9 -14.75 Q-28.55 -13.65 -27.9 -12.85 L-27.8 -12.9 -27.75 -12.8 -26.95 -13.3 -25.55 -14.3 Q-24.8 -14.8 -24.45 -15.05 -23.85 -15.55 -23.7 -15.95 L-23.7 -20.55 Q-23.85 -20.95 -23.85 -21.65 -23.85 -22.85 -23.65 -25.2 -23.45 -27.55 -23.45 -28.65 L-23.5 -29.6 -23.5 -30.75 Q-23.5 -31.25 -23.95 -31.8 L-24.4 -32.35 -25.0 -32.45 Q-26.5 -32.7 -27.05 -33.2 -27.45 -32.7 -28.5 -31.6 L-31.0 -29.0 -31.0 -29.05 M-23.65 -4.75 L-23.45 -4.85 -22.2 -5.3 Q-20.25 -5.95 -19.85 -6.6 -19.6 -7.0 -18.7 -7.85 L-17.9 -8.7 -18.4 -9.6 Q-19.25 -10.9 -20.25 -11.8 L-21.5 -12.9 -22.4 -13.75 Q-23.35 -14.65 -23.65 -15.0 L-23.65 -14.95 Q-23.7 -14.75 -24.0 -14.75 L-24.15 -14.7 Q-24.7 -14.45 -26.5 -13.35 L-27.65 -12.6 -27.65 -12.1 Q-27.65 -11.9 -27.55 -11.65 L-27.3 -11.2 -27.35 -11.2 -27.1 -10.7 Q-26.8 -10.15 -26.5 -9.3 L-26.1 -8.3 Q-25.4 -6.9 -24.75 -5.95 -24.35 -5.4 -23.95 -5.0 L-23.7 -4.7 -23.65 -4.75" fill="#121212" fill-rule="evenodd" stroke="none"/>
    <path d="M-6.0 -47.25 L-5.8 -47.15 Q-3.7 -46.7 -1.3 -46.3 3.45 -45.55 6.85 -45.55 L9.2 -45.65 11.5 -45.8 Q14.2 -45.8 17.4 -45.35 20.85 -44.85 22.15 -44.2 22.8 -43.85 26.15 -42.95 27.5 -42.6 28.15 -42.3 L28.1 -41.9 28.1 -41.85 27.9 -41.35 27.9 -41.0 Q26.85 -41.35 24.65 -41.75 24.9 -41.6 24.95 -41.35 25.6 -41.5 26.4 -41.35 27.35 -41.15 28.05 -40.75 L28.05 -40.7 28.2 -40.6 28.55 -40.25 28.6 -40.3 29.75 -39.35 30.1 -39.1 31.85 -38.9 31.6 -39.0 Q30.65 -39.3 29.85 -39.8 L29.6 -40.0 28.7 -40.85 28.7 -41.15 28.55 -41.65 28.35 -42.05 28.35 -42.2 28.65 -42.0 30.2 -41.5 Q32.55 -40.6 33.85 -40.15 36.15 -39.35 37.65 -39.1 38.4 -38.75 40.35 -38.25 L42.8 -37.6 Q43.0 -37.45 43.3 -37.25 L43.35 -37.25 Q44.5 -36.45 44.8 -35.9 L44.35 -35.85 44.25 -35.8 Q43.25 -36.3 41.85 -36.5 L40.25 -36.75 Q39.35 -36.9 38.7 -37.25 37.1 -38.1 34.9 -38.6 33.45 -38.95 32.95 -38.8 35.65 -38.45 36.6 -38.1 37.15 -37.95 37.65 -37.55 L37.8 -37.45 Q38.2 -37.15 38.5 -37.0 L38.55 -36.95 38.9 -36.75 38.85 -36.7 39.25 -36.5 40.75 -35.9 37.5 -36.0 36.4 -36.05 31.25 -36.25 Q30.25 -36.25 28.45 -36.0 L27.45 -36.2 Q25.25 -36.65 22.65 -36.9 22.5 -36.75 22.1 -36.7 21.8 -36.65 20.35 -36.65 L18.1 -36.65 17.95 -37.35 17.8 -37.85 17.8 -37.9 17.65 -38.3 Q17.45 -38.95 17.15 -39.4 L17.1 -39.4 17.1 -39.35 16.8 -39.75 17.0 -39.65 17.1 -39.75 Q17.0 -39.8 16.85 -40.25 16.7 -40.7 16.7 -40.8 16.7 -40.85 16.9 -41.05 17.05 -41.2 17.1 -41.3 17.6 -41.55 18.1 -41.85 L19.5 -42.6 20.4 -42.5 20.65 -42.5 20.0 -42.6 19.45 -42.7 19.35 -42.8 Q18.85 -42.8 18.55 -42.95 L18.5 -42.9 14.75 -43.7 Q16.35 -43.2 17.6 -42.9 L18.35 -42.75 Q17.35 -41.85 16.0 -41.45 L15.4 -41.3 15.35 -41.3 13.95 -41.0 Q12.65 -40.9 11.45 -40.55 L11.4 -40.5 8.85 -40.0 8.85 -39.9 Q8.3 -40.25 7.85 -40.8 L7.8 -40.9 Q8.55 -39.7 8.55 -39.5 8.55 -39.2 7.85 -37.8 L7.0 -36.25 7.0 -36.2 6.55 -36.1 4.6 -35.5 Q3.2 -35.1 1.85 -34.75 0.75 -34.5 -1.3 -33.7 L-1.45 -33.75 Q-2.4 -34.15 -3.85 -34.35 L-4.05 -34.4 -4.15 -34.4 -4.5 -34.45 -3.9 -34.35 Q-6.2 -34.4 -7.9 -35.1 -6.85 -34.8 -4.95 -34.5 L-4.9 -34.5 Q-6.2 -34.75 -7.5 -35.15 -9.2 -35.75 -10.25 -36.45 L-10.4 -36.5 -10.45 -36.55 Q-10.8 -36.75 -11.05 -36.75 -12.7 -37.45 -15.7 -39.0 -18.2 -40.25 -19.7 -40.65 -20.3 -41.2 -20.7 -41.15 L-21.2 -41.1 -21.55 -41.05 -20.65 -41.85 Q-19.6 -42.7 -17.65 -43.3 -14.2 -44.4 -9.05 -44.4 L-7.35 -44.0 Q-7.05 -44.0 -6.8 -44.2 -6.65 -44.5 -6.35 -44.7 -6.05 -44.9 -5.55 -44.95 -4.5 -45.1 -2.75 -44.55 L-2.7 -44.55 -2.45 -44.45 -2.0 -44.3 -1.9 -44.3 -1.7 -44.2 -1.7 -44.25 -1.2 -44.3 0.4 -44.4 0.95 -44.4 2.55 -44.15 2.6 -44.15 2.7 -44.1 3.0 -44.05 Q4.55 -43.75 5.05 -43.7 L5.05 -43.65 Q5.05 -43.55 5.1 -43.4 5.25 -43.25 5.5 -43.25 5.7 -43.25 5.75 -43.35 L5.8 -43.4 6.0 -43.4 Q6.5 -42.85 7.45 -41.4 L7.1 -42.05 Q6.65 -42.9 6.3 -43.25 L6.15 -43.45 6.2 -43.5 6.2 -44.0 6.6 -44.05 Q8.15 -44.4 9.0 -44.4 L11.65 -44.3 10.1 -44.6 7.4 -44.45 6.1 -44.35 5.9 -44.45 Q5.75 -44.45 5.65 -44.35 L4.75 -44.3 -0.35 -44.6 Q-1.8 -44.6 -3.2 -44.85 L-5.05 -45.2 Q-5.85 -45.4 -6.2 -45.3 L-6.35 -45.25 -6.3 -45.55 Q-6.25 -46.3 -6.1 -46.85 L-6.0 -47.25 M18.05 -36.75 L18.05 -36.65 18.05 -36.75 M8.7 -38.95 L9.05 -39.6 9.35 -39.6 Q8.95 -39.3 8.7 -38.95 M15.2 -40.65 L15.55 -40.65 15.65 -40.6 Q16.15 -40.45 16.35 -40.25 L16.3 -40.25 17.1 -38.35 Q17.5 -37.3 17.65 -36.65 L12.4 -36.65 Q9.4 -36.6 7.55 -36.3 L8.4 -37.6 Q9.15 -38.85 9.8 -39.6 11.45 -39.75 13.05 -40.25 14.05 -40.55 15.2 -40.65 M-19.95 -12.05 L-21.35 -13.35 -23.55 -15.4 -23.5 -15.8 -23.5 -20.55 Q-23.65 -21.55 -23.55 -23.55 -23.35 -25.75 -23.4 -26.55 -23.45 -27.1 -23.35 -28.1 -23.2 -29.15 -23.2 -29.55 -23.15 -30.95 -22.85 -31.6 L-22.85 -31.5 -22.6 -31.5 Q-22.5 -31.85 -21.5 -32.0 L-19.6 -32.2 Q-19.1 -32.2 -18.35 -32.2 -17.3 -32.2 -15.1 -32.65 -13.95 -32.9 -13.4 -33.05 -12.85 -32.65 -12.35 -32.05 L-12.25 -31.8 Q-11.65 -30.5 -11.65 -30.05 -11.65 -29.95 -13.05 -26.15 L-13.15 -25.95 Q-14.9 -24.0 -15.7 -22.75 -16.35 -21.7 -17.2 -19.35 -17.0 -19.3 -16.8 -19.2 -16.4 -18.95 -16.4 -18.6 -16.4 -18.3 -16.85 -17.9 -17.3 -17.5 -17.65 -17.5 L-17.85 -17.5 -18.75 -15.0 Q-19.4 -13.15 -19.95 -12.05 M-16.45 -32.8 L-16.4 -32.85 -16.25 -32.85 -16.45 -32.8 M-14.8 -33.15 Q-14.5 -33.25 -14.2 -33.35 L-14.0 -33.35 -13.75 -33.4 -13.95 -33.35 -14.8 -33.15 M-13.45 -33.4 Q-13.5 -33.65 -13.65 -33.85 L-13.9 -33.7 Q-14.4 -33.35 -15.2 -33.35 L-15.25 -33.35 -15.25 -33.25 -15.3 -33.2 -15.3 -33.1 -16.6 -32.95 -18.05 -32.75 -20.25 -32.5 Q-21.15 -32.5 -22.5 -32.75 L-22.55 -32.8 -22.75 -32.85 -23.0 -32.8 -24.15 -33.05 -26.6 -33.55 -26.6 -33.6 -26.55 -33.8 -26.95 -36.1 -27.2 -37.9 -27.3 -38.05 Q-27.35 -38.25 -27.35 -38.5 -27.35 -38.65 -27.3 -38.75 L-27.25 -38.85 -27.25 -38.9 Q-27.2 -39.1 -27.35 -39.35 L-27.6 -39.35 Q-27.75 -39.3 -27.75 -39.1 L-27.7 -38.7 Q-27.65 -37.9 -27.35 -36.2 L-27.0 -33.75 -27.1 -33.6 -27.3 -33.55 -27.3 -33.5 -27.25 -33.4 Q-28.15 -32.3 -28.5 -31.95 -29.4 -31.0 -30.75 -30.0 L-30.9 -30.3 Q-31.05 -30.5 -31.25 -30.5 L-31.35 -30.5 -31.45 -30.85 Q-31.6 -31.5 -31.6 -31.7 -31.6 -32.05 -31.8 -33.75 -32.0 -35.5 -32.05 -35.7 -32.2 -36.15 -32.3 -36.7 -32.4 -37.3 -32.35 -37.75 -32.35 -38.15 -32.4 -38.45 L-32.25 -38.65 -32.25 -38.7 -32.0 -39.1 -31.95 -39.25 -31.5 -39.2 Q-31.5 -39.65 -31.15 -40.0 -30.7 -40.45 -29.85 -40.75 -29.7 -40.8 -28.6 -41.45 -27.6 -42.0 -27.5 -42.0 -27.35 -42.0 -27.2 -41.9 -27.1 -41.75 -26.95 -41.75 -26.9 -41.75 -23.8 -42.9 -23.55 -43.05 -22.5 -43.2 -21.4 -43.4 -21.0 -43.4 -20.2 -44.3 -18.0 -45.1 -16.25 -45.7 -14.85 -46.0 -11.85 -46.55 -7.4 -46.55 L-6.35 -46.55 -6.35 -46.35 -6.4 -46.3 Q-6.5 -45.6 -6.65 -45.2 -7.2 -45.2 -7.65 -44.9 -8.25 -44.55 -8.35 -44.55 L-8.8 -44.6 -8.9 -44.7 Q-9.1 -44.85 -11.05 -44.85 L-12.55 -44.8 -13.5 -44.5 Q-14.0 -44.35 -17.2 -44.0 -17.35 -44.0 -17.45 -44.1 -17.6 -44.25 -17.75 -44.25 L-19.45 -43.15 Q-21.3 -41.95 -21.7 -41.75 -21.85 -41.65 -24.55 -40.65 -26.8 -39.8 -26.8 -39.4 L-26.8 -39.25 -26.2 -39.6 Q-25.15 -40.15 -23.7 -40.4 L-23.2 -40.5 -22.05 -40.6 -21.15 -40.5 -20.7 -40.4 -20.1 -40.35 -19.95 -40.35 Q-19.5 -40.05 -18.6 -39.7 L-16.95 -39.15 -15.2 -38.25 Q-11.45 -36.4 -11.45 -35.75 L-11.55 -35.5 -11.55 -35.45 -11.9 -34.9 Q-12.3 -34.75 -12.45 -34.6 L-12.65 -34.35 -12.75 -34.3 -13.3 -33.85 -13.1 -33.75 -13.05 -33.6 -12.7 -33.6 -12.6 -33.3 Q-12.95 -33.5 -13.45 -33.4 M-12.6 -26.5 L-12.55 -26.65 -11.9 -27.95 -11.85 -28.0 -11.0 -29.35 -10.85 -29.4 -10.55 -29.35 -9.95 -29.4 -10.0 -29.3 Q-10.9 -28.3 -12.6 -26.5 M-9.55 -29.75 L-9.65 -29.8 -10.5 -29.9 -10.7 -29.9 -10.75 -29.95 -11.05 -30.35 Q-11.3 -30.85 -11.6 -31.65 L-11.8 -32.1 Q-12.1 -32.85 -12.15 -33.55 -12.15 -33.85 -11.9 -34.2 L-11.65 -34.5 -11.5 -34.85 -11.5 -34.95 -11.45 -34.95 Q-10.95 -35.75 -10.55 -36.15 L-10.45 -36.1 -10.8 -35.8 Q-10.55 -35.55 -10.05 -35.3 -9.5 -35.0 -9.15 -35.0 L-8.4 -34.95 -8.1 -34.8 Q-7.1 -34.25 -6.85 -34.25 L-5.45 -34.1 -4.75 -34.0 -4.25 -33.8 -2.55 -33.1 -4.95 -32.15 Q-6.85 -31.4 -7.85 -30.85 -8.85 -30.35 -9.55 -29.75 M3.9 -29.65 L3.85 -30.0 Q3.8 -30.25 3.7 -30.35 4.85 -31.2 6.25 -29.75 6.1 -29.6 5.55 -29.4 5.0 -29.15 4.75 -29.15 4.05 -29.15 3.9 -29.65 M7.7 -28.85 Q7.6 -29.0 7.65 -29.2 L7.65 -29.4 7.7 -29.55 Q8.1 -29.55 8.35 -29.45 8.65 -29.3 8.9 -29.0 L8.65 -28.7 Q8.5 -28.55 8.35 -28.55 7.85 -28.55 7.7 -28.85 M14.6 -33.35 Q14.4 -33.15 14.3 -33.1 14.15 -33.0 13.9 -33.0 L13.45 -33.05 13.4 -33.1 Q13.4 -33.15 13.4 -33.35 13.4 -33.6 13.65 -33.7 13.95 -33.8 14.55 -33.55 L14.6 -33.35 M-31.0 -29.05 L-31.0 -29.0 -28.5 -31.6 Q-27.45 -32.7 -27.05 -33.2 -26.5 -32.7 -25.0 -32.45 L-24.4 -32.35 -23.95 -31.8 Q-23.5 -31.25 -23.5 -30.75 L-23.5 -29.6 -23.45 -28.65 Q-23.45 -27.55 -23.65 -25.2 -23.85 -22.85 -23.85 -21.65 -23.85 -20.95 -23.7 -20.55 L-23.7 -15.95 Q-23.85 -15.55 -24.45 -15.05 -24.8 -14.8 -25.55 -14.3 L-26.95 -13.3 -27.75 -12.8 -27.8 -12.9 -27.9 -12.85 Q-28.55 -13.65 -28.9 -14.75 L-29.0 -15.1 Q-29.2 -18.75 -30.0 -23.35 L-29.9 -23.35 -30.25 -24.8 -30.35 -25.45 -30.3 -25.4 -30.4 -25.95 -30.45 -26.25 -30.55 -26.8 Q-30.6 -27.35 -30.7 -27.75 L-30.65 -27.75 -31.0 -29.05 M-24.15 -14.7 L-24.15 -14.65 Q-23.45 -14.15 -21.1 -12.05 L-20.4 -11.45 -21.7 -8.7 Q-22.9 -6.2 -23.65 -4.75 L-23.7 -4.7 -23.95 -5.0 Q-24.35 -5.4 -24.75 -5.95 -25.4 -6.9 -26.1 -8.3 L-26.5 -9.3 Q-26.8 -10.15 -27.1 -10.7 L-27.35 -11.2 -27.3 -11.2 -27.55 -11.65 Q-27.65 -11.9 -27.65 -12.1 L-27.65 -12.6 -26.5 -13.35 Q-24.7 -14.45 -24.15 -14.7 M-8.3 -24.2 L-8.1 -24.35 Q-8.05 -24.3 -7.85 -24.05 L-7.6 -23.7 -7.7 -23.55 Q-7.8 -23.45 -8.0 -23.45 L-8.2 -23.45 -8.35 -23.5 -8.35 -23.65 -8.4 -23.9 Q-8.4 -24.1 -8.3 -24.2 M-6.9 -22.35 Q-7.0 -22.5 -7.0 -22.75 -7.0 -23.05 -6.95 -23.0 -6.7 -23.0 -6.4 -22.75 -6.1 -22.55 -6.0 -22.35 L-6.1 -22.15 Q-6.2 -22.0 -6.4 -22.0 -6.8 -22.0 -6.9 -22.35 M-2.05 -20.9 Q-1.85 -20.7 -1.85 -20.6 -1.85 -20.35 -2.05 -20.15 -2.25 -20.0 -2.6 -20.0 -3.05 -20.0 -3.15 -20.25 -3.25 -20.4 -3.25 -20.5 -3.25 -21.35 -2.55 -21.15 -2.3 -21.05 -2.05 -20.9" fill="#4d0f0f" fill-rule="evenodd" stroke="none"/>
    <path d="M-6.0 -47.25 Q-5.5 -48.75 -4.25 -48.75 L-4.2 -48.7 Q-4.0 -48.95 -3.45 -48.95 L-2.95 -48.9 -1.6 -48.95 Q2.05 -48.95 10.5 -47.75 19.6 -46.5 25.25 -45.0 25.85 -44.85 28.85 -43.7 28.35 -43.35 28.15 -42.3 27.5 -42.6 26.15 -42.95 22.8 -43.85 22.15 -44.2 20.85 -44.85 17.4 -45.35 14.2 -45.8 11.5 -45.8 L9.2 -45.65 6.85 -45.55 Q3.45 -45.55 -1.3 -46.3 -3.7 -46.7 -5.8 -47.15 L-6.0 -47.25 M28.35 -42.2 L28.35 -42.65 Q28.35 -42.85 28.8 -43.35 L29.15 -43.6 30.55 -43.1 Q35.0 -41.4 38.15 -40.65 39.5 -40.3 40.4 -39.65 L41.65 -38.45 Q41.8 -38.3 42.8 -37.6 L40.35 -38.25 Q38.4 -38.75 37.65 -39.1 36.15 -39.35 33.85 -40.15 32.55 -40.6 30.2 -41.5 L28.65 -42.0 28.35 -42.2 M28.45 -36.0 L25.35 -35.5 Q21.5 -34.8 20.25 -34.4 20.1 -34.35 19.8 -34.2 18.7 -34.85 18.2 -36.3 L18.1 -36.65 20.35 -36.65 Q21.8 -36.65 22.1 -36.7 22.5 -36.75 22.65 -36.9 25.25 -36.65 27.45 -36.2 L28.45 -36.0 M17.1 -39.35 L17.1 -39.25 17.15 -39.2 17.4 -38.4 17.45 -38.35 17.45 -38.3 17.95 -36.95 17.95 -36.9 18.0 -36.85 18.05 -36.75 18.05 -36.65 Q18.75 -34.8 18.75 -34.5 18.75 -34.4 18.55 -34.05 18.3 -33.65 18.3 -33.5 L18.35 -33.35 18.0 -33.15 Q16.35 -32.2 15.5 -31.5 14.3 -30.65 12.85 -29.3 L10.85 -29.95 Q8.4 -30.7 7.4 -31.15 L8.05 -30.55 8.25 -30.4 Q8.75 -30.2 9.4 -30.05 L11.05 -29.6 Q11.6 -29.4 11.9 -28.75 11.95 -28.6 12.05 -28.5 L11.95 -28.45 11.4 -27.9 Q9.95 -26.85 7.5 -24.55 L6.3 -23.7 Q4.75 -22.55 3.9 -21.65 L1.7 -24.7 -0.65 -27.95 Q-0.6 -28.0 -0.6 -28.2 -0.75 -28.5 -0.85 -28.85 -0.85 -29.15 -0.6 -29.55 -0.45 -30.95 0.2 -31.85 0.3 -32.3 0.4 -32.6 0.55 -32.6 0.65 -32.65 L3.9 -32.65 Q4.1 -32.9 4.6 -32.8 5.1 -32.7 5.9 -32.2 5.9 -32.4 5.75 -32.6 5.55 -32.85 5.55 -33.0 5.55 -33.2 6.95 -35.85 L7.15 -36.25 8.05 -37.85 8.7 -38.95 Q8.95 -39.3 9.35 -39.6 L9.85 -39.6 Q10.1 -39.8 10.55 -39.95 11.55 -40.4 12.95 -40.6 L13.65 -40.7 13.7 -40.7 15.15 -40.65 15.2 -40.65 Q14.05 -40.55 13.05 -40.25 11.45 -39.75 9.8 -39.6 9.15 -38.85 8.4 -37.6 L7.55 -36.3 Q9.4 -36.6 12.4 -36.65 L17.65 -36.65 Q17.5 -37.3 17.1 -38.35 L16.3 -40.25 16.35 -40.25 16.35 -40.2 16.45 -40.0 Q16.65 -39.9 16.8 -39.8 L16.8 -39.75 17.1 -39.35 M13.95 -41.0 L12.25 -40.7 11.5 -40.55 11.4 -40.5 11.45 -40.55 Q12.65 -40.9 13.95 -41.0 M7.0 -36.2 L6.85 -35.95 5.1 -32.8 3.45 -32.85 Q2.05 -32.95 1.35 -33.15 L0.95 -33.1 0.3 -33.2 0.15 -33.2 Q-0.25 -33.2 -0.5 -33.45 L-0.6 -33.35 -0.55 -33.25 -1.05 -33.6 -1.3 -33.7 Q0.75 -34.5 1.85 -34.75 3.2 -35.1 4.6 -35.5 L6.55 -36.1 7.0 -36.2 M-3.9 -34.35 L-3.85 -34.35 Q-2.9 -34.15 -2.2 -33.9 L-2.15 -33.9 -1.95 -33.85 -1.85 -33.8 -1.45 -33.65 Q-0.25 -33.1 -0.25 -32.45 -0.25 -31.65 -0.75 -30.2 L-1.1 -29.4 Q-1.55 -29.2 -1.9 -28.7 -1.5 -28.6 -1.3 -28.2 -1.2 -28.05 -1.1 -28.0 L-0.9 -27.55 -0.45 -27.0 Q0.65 -25.8 1.45 -24.25 L1.7 -23.75 Q2.8 -22.55 3.1 -22.15 3.5 -21.85 3.5 -21.3 3.5 -20.9 3.25 -20.5 3.05 -20.15 2.8 -20.05 2.25 -19.4 1.8 -19.05 1.1 -18.25 -0.05 -17.1 L-0.8 -16.2 -0.9 -16.05 Q-1.9 -15.35 -2.95 -14.6 -3.7 -14.1 -4.35 -13.65 -5.2 -13.45 -6.15 -13.45 L-11.2 -14.05 -12.65 -14.25 -12.95 -14.4 -13.1 -14.6 Q-13.65 -15.25 -13.65 -15.75 L-13.7 -17.25 -13.85 -19.45 -13.95 -19.45 Q-13.95 -17.6 -14.05 -16.7 -14.15 -15.85 -14.35 -15.0 -14.5 -14.35 -14.5 -13.85 -14.5 -13.7 -14.45 -13.6 L-14.5 -13.55 Q-15.7 -12.95 -16.25 -11.8 L-16.75 -10.4 Q-17.0 -9.85 -17.25 -9.45 L-19.5 -11.65 -19.95 -12.05 Q-19.4 -13.15 -18.75 -15.0 L-17.85 -17.5 -17.65 -17.5 Q-17.3 -17.5 -16.85 -17.9 -16.4 -18.3 -16.4 -18.6 -16.4 -18.95 -16.8 -19.2 -17.0 -19.3 -17.2 -19.35 -16.35 -21.7 -15.7 -22.75 -14.9 -24.0 -13.15 -25.95 L-13.05 -26.15 Q-11.65 -29.95 -11.65 -30.05 -11.65 -30.5 -12.25 -31.8 L-12.35 -32.05 Q-12.85 -32.65 -13.4 -33.05 -13.95 -32.9 -15.1 -32.65 -17.3 -32.2 -18.35 -32.2 -19.1 -32.2 -19.6 -32.2 L-21.5 -32.0 Q-22.5 -31.85 -22.6 -31.5 L-22.85 -31.5 -22.85 -31.6 -22.85 -31.65 -22.8 -31.7 -22.55 -32.2 -21.0 -32.2 -19.9 -32.25 -19.7 -32.25 -18.15 -32.45 Q-16.75 -32.7 -16.45 -32.8 L-16.25 -32.85 -15.35 -32.85 Q-15.1 -33.05 -14.8 -33.15 L-13.95 -33.35 -13.75 -33.4 -13.45 -33.4 Q-12.95 -33.5 -12.6 -33.3 L-12.4 -32.85 -12.05 -32.25 -11.95 -31.9 -11.65 -31.4 Q-11.35 -30.8 -11.3 -30.35 L-11.25 -30.15 -11.25 -30.0 Q-11.25 -29.7 -11.3 -29.5 L-11.25 -29.5 -11.35 -29.35 -11.35 -29.3 Q-11.45 -29.05 -11.6 -28.95 -12.3 -27.8 -12.8 -26.55 L-12.95 -26.15 -13.0 -26.05 Q-13.75 -24.15 -13.75 -22.6 -13.75 -22.45 -13.85 -21.7 L-13.95 -20.8 Q-13.95 -20.35 -13.85 -20.1 L-13.8 -20.2 -13.8 -20.25 Q-13.75 -21.05 -13.3 -23.25 -12.85 -25.4 -12.85 -25.5 -12.85 -25.85 -12.6 -26.5 -10.9 -28.3 -10.0 -29.3 L-9.95 -29.4 -9.45 -29.35 Q-9.2 -29.3 -9.15 -29.2 L-9.0 -29.1 -7.0 -29.0 -5.45 -28.85 -5.4 -28.85 -4.85 -28.75 Q-4.35 -28.6 -4.05 -28.6 L-2.95 -28.65 Q-2.05 -28.7 -2.0 -28.75 L-4.75 -28.95 -5.35 -29.1 Q-6.3 -29.25 -6.9 -29.4 -8.85 -29.5 -9.2 -29.65 L-9.55 -29.75 Q-8.85 -30.35 -7.85 -30.85 -6.85 -31.4 -4.95 -32.15 L-2.55 -33.1 -4.25 -33.8 -4.75 -34.0 -5.45 -34.1 -6.85 -34.25 Q-7.1 -34.25 -8.1 -34.8 L-8.4 -34.95 -9.15 -35.0 Q-9.5 -35.0 -10.05 -35.3 -10.55 -35.55 -10.8 -35.8 L-10.45 -36.1 -9.7 -35.8 Q-8.9 -35.4 -8.7 -35.35 -8.4 -35.2 -7.9 -35.1 -6.2 -34.4 -3.9 -34.35 M-31.95 -39.25 L-31.3 -40.4 Q-29.95 -42.9 -28.25 -43.8 -26.3 -43.8 -22.8 -45.5 -20.25 -46.7 -19.3 -47.4 L-11.8 -48.2 -5.3 -48.75 Q-5.7 -48.3 -6.0 -47.7 -6.2 -47.3 -6.35 -46.55 L-7.4 -46.55 Q-11.85 -46.55 -14.85 -46.0 -16.25 -45.7 -18.0 -45.1 -20.2 -44.3 -21.0 -43.4 -21.4 -43.4 -22.5 -43.2 -23.55 -43.05 -23.8 -42.9 -26.9 -41.75 -26.95 -41.75 -27.1 -41.75 -27.2 -41.9 -27.35 -42.0 -27.5 -42.0 -27.6 -42.0 -28.6 -41.45 -29.7 -40.8 -29.85 -40.75 -30.7 -40.45 -31.15 -40.0 -31.5 -39.65 -31.5 -39.2 L-31.95 -39.25 M-16.95 -39.15 L-16.8 -39.1 -16.4 -38.95 -16.35 -38.95 Q-15.45 -38.5 -13.75 -37.6 -12.45 -36.9 -11.45 -36.5 L-11.5 -36.4 -11.45 -36.3 -11.15 -36.1 -11.2 -36.0 -11.55 -35.45 -11.55 -35.5 -11.45 -35.75 Q-11.45 -36.4 -15.2 -38.25 L-16.95 -39.15 M7.7 -28.85 Q7.85 -28.55 8.35 -28.55 8.5 -28.55 8.65 -28.7 L8.9 -29.0 Q8.65 -29.3 8.35 -29.45 8.1 -29.55 7.7 -29.55 L7.65 -29.4 7.65 -29.2 Q7.6 -29.0 7.7 -28.85 M3.9 -29.65 Q4.05 -29.15 4.75 -29.15 5.0 -29.15 5.55 -29.4 6.1 -29.6 6.25 -29.75 4.85 -31.2 3.7 -30.35 3.8 -30.25 3.85 -30.0 L3.9 -29.65 M14.6 -33.35 L14.55 -33.55 Q13.95 -33.8 13.65 -33.7 13.4 -33.6 13.4 -33.35 13.4 -33.15 13.4 -33.1 L13.45 -33.05 13.9 -33.0 Q14.15 -33.0 14.3 -33.1 14.4 -33.15 14.6 -33.35 M-23.65 -4.75 Q-22.9 -6.2 -21.7 -8.7 L-20.4 -11.45 -21.1 -12.05 Q-23.45 -14.15 -24.15 -14.65 L-24.15 -14.7 -24.0 -14.75 Q-23.7 -14.75 -23.65 -14.95 L-23.65 -15.0 Q-23.35 -14.65 -22.4 -13.75 L-21.5 -12.9 -20.25 -11.8 Q-19.25 -10.9 -18.4 -9.6 L-17.9 -8.7 -18.7 -7.85 Q-19.6 -7.0 -19.85 -6.6 -20.25 -5.95 -22.2 -5.3 L-23.45 -4.85 -23.65 -4.75 M-2.05 -20.9 Q-2.3 -21.05 -2.55 -21.15 -3.25 -21.35 -3.25 -20.5 -3.25 -20.4 -3.15 -20.25 -3.05 -20.0 -2.6 -20.0 -2.25 -20.0 -2.05 -20.15 -1.85 -20.35 -1.85 -20.6 -1.85 -20.7 -2.05 -20.9 M-6.9 -22.35 Q-6.8 -22.0 -6.4 -22.0 -6.2 -22.0 -6.1 -22.15 L-6.0 -22.35 Q-6.1 -22.55 -6.4 -22.75 -6.7 -23.0 -6.95 -23.0 -7.0 -23.05 -7.0 -22.75 -7.0 -22.5 -6.9 -22.35 M-8.3 -24.2 Q-8.4 -24.1 -8.4 -23.9 L-8.35 -23.65 -8.35 -23.5 -8.2 -23.45 -8.0 -23.45 Q-7.8 -23.45 -7.7 -23.55 L-7.6 -23.7 -7.85 -24.05 Q-8.05 -24.3 -8.1 -24.35 L-8.3 -24.2" fill="#8c1c1c" fill-rule="evenodd" stroke="none"/>
  </g>
</svg>
