<?xml version="1.0" encoding="UTF-8" standalone="no"?>
<svg xmlns:ffdec="https://www.free-decompiler.com/flash" xmlns:xlink="http://www.w3.org/1999/xlink" ffdec:objectType="shape" height="34.85px" width="30.65px" xmlns="http://www.w3.org/2000/svg">
  <g transform="matrix(1.0, 0.0, 0.0, 1.0, 0.0, -4.55)">
    <path d="M28.6 22.1 Q29.05 22.75 29.3 23.55 L29.3 23.65 29.25 23.7 29.2 23.8 29.0 23.95 Q28.95 25.1 28.7 26.25 28.05 28.75 26.4 30.8 L25.9 31.4 25.6 31.35 Q27.45 29.55 28.25 26.85 29.25 23.35 27.15 22.0 L27.05 21.9 27.0 21.9 Q26.1 21.35 24.6 21.2 L24.15 21.35 Q23.15 21.65 22.4 22.3 22.4 22.25 22.45 22.2 22.45 22.1 22.6 21.95 22.85 21.5 23.3 21.15 23.9 20.65 24.7 20.55 26.7 20.25 28.05 21.5 L28.1 21.55 Q27.9 21.45 27.65 21.45 27.2 21.8 27.65 22.3 28.1 22.75 28.6 22.6 28.65 22.35 28.6 22.1 M25.55 16.35 Q25.2 15.75 25.7 15.5 25.8 15.8 26.05 16.0 26.05 16.1 26.1 16.2 L26.4 16.25 Q26.9 16.5 27.4 16.45 26.5 17.85 25.55 16.35 M17.75 5.35 L17.95 5.45 18.0 5.5 17.75 5.85 Q17.4 6.05 17.25 6.4 16.95 6.65 16.65 6.6 16.45 6.2 16.8 5.85 17.15 5.5 17.55 5.3 L17.75 5.35 M18.85 6.8 L18.95 6.8 Q19.6 6.8 19.7 7.4 19.75 7.65 19.65 7.85 19.4 7.2 18.6 6.95 18.7 6.85 18.85 6.8 M15.4 5.15 L15.35 5.15 Q15.15 5.0 14.85 4.85 L14.7 4.95 Q14.65 4.8 14.8 4.65 L14.85 4.55 15.5 4.65 Q15.7 4.65 15.85 4.85 15.75 5.15 15.4 5.15 M14.65 8.75 L14.2 8.7 Q13.35 8.9 13.05 9.7 L13.0 9.9 Q12.85 9.65 12.9 9.3 13.0 8.85 13.35 8.5 13.55 8.3 13.75 8.25 14.2 8.25 14.55 8.45 14.8 8.55 14.8 8.8 L14.65 8.75 M11.3 15.85 Q10.5 16.75 11.3 17.5 L11.25 17.55 Q8.65 16.2 11.6 14.5 12.25 14.15 12.1 13.3 12.1 13.1 12.15 12.95 12.4 13.2 12.55 13.5 L12.7 13.9 Q12.9 14.6 12.55 15.35 L12.3 15.35 Q12.85 14.85 12.35 14.2 11.95 14.5 11.5 14.65 10.5 15.0 10.55 15.85 10.9 15.95 11.3 15.85 M15.05 14.1 Q14.6 14.45 14.6 15.1 14.55 15.35 14.65 15.55 L14.9 15.65 Q14.15 16.25 14.0 17.4 14.0 17.8 14.05 18.15 13.05 17.7 13.5 16.05 13.85 14.65 15.05 14.1 M17.5 15.35 L18.1 15.0 Q17.9 14.45 17.5 14.05 18.2 14.35 18.6 15.2 19.0 16.1 18.75 16.55 18.85 18.1 17.8 18.45 18.2 17.9 18.25 17.1 18.35 15.8 17.5 15.35 M19.5 11.55 Q19.15 11.7 19.0 12.05 18.85 12.4 19.1 12.7 19.55 12.85 19.8 12.45 20.2 11.8 19.5 11.55 M19.2 13.65 Q19.1 13.85 19.1 14.05 18.7 13.85 18.55 13.25 18.4 12.65 18.7 12.1 19.1 11.3 20.05 11.2 20.95 11.0 21.7 11.35 22.2 11.55 22.4 11.9 L22.35 11.85 Q21.7 11.6 21.05 11.75 20.15 11.85 19.7 12.7 L19.2 13.65 M10.9 9.25 Q10.95 8.85 10.55 8.65 10.25 8.7 10.2 9.05 10.0 9.7 10.65 9.8 10.9 9.6 10.9 9.25 M11.55 8.5 Q11.1 8.8 11.0 9.35 10.8 10.0 10.95 10.65 L10.95 10.7 Q10.15 10.6 9.95 9.65 9.7 8.6 10.65 8.1 10.95 8.0 11.2 8.15 11.45 8.3 11.55 8.5 M4.65 22.05 L4.15 21.75 4.15 21.05 Q4.15 20.55 3.65 20.5 3.2 20.7 3.3 21.3 L3.5 22.2 3.85 22.5 Q4.45 22.85 4.9 22.5 L4.95 22.35 Q5.45 22.9 6.1 23.35 L6.15 23.45 Q5.5 24.65 4.25 24.0 3.95 23.85 3.95 23.5 4.2 23.25 4.5 23.35 L4.95 23.4 Q2.75 22.4 3.2 20.05 3.5 18.6 4.8 18.2 4.35 18.75 4.25 19.55 4.15 20.15 4.25 20.7 4.1 21.4 4.65 22.05 M10.85 22.8 L10.85 22.6 Q10.75 21.45 11.95 21.05 L12.2 21.2 Q11.85 21.55 12.05 22.15 L12.05 22.2 12.0 22.4 Q11.8 22.0 11.5 21.7 11.0 21.95 10.9 22.6 L10.85 22.8 M12.45 23.4 L13.25 23.5 13.5 23.6 Q14.9 24.15 14.0 25.8 13.25 27.3 11.85 26.2 L12.0 26.0 Q12.4 26.25 13.2 26.15 L13.25 26.05 Q13.75 25.45 13.55 24.75 13.45 24.35 13.2 24.05 L13.0 24.0 12.45 24.0 Q12.15 24.1 12.0 24.35 11.7 24.2 11.5 24.0 L11.6 24.1 Q12.3 24.3 12.6 23.55 L12.45 23.4 M23.1 15.5 Q23.55 16.55 22.65 17.45 22.25 17.85 21.85 17.9 L22.2 17.5 Q23.05 16.5 23.1 15.5 M18.85 21.15 Q18.8 20.75 18.9 20.4 L19.0 20.6 Q20.1 22.85 21.9 22.0 L21.9 22.1 Q21.25 22.9 20.15 22.55 20.35 22.7 20.6 22.85 L20.7 22.95 Q18.9 23.1 18.85 21.15 M14.2 15.7 Q14.25 15.65 14.3 15.6 L14.2 15.7 M5.65 38.55 L5.0 38.45 Q3.3 38.85 1.55 38.8 0.6 38.75 0.05 38.05 0.05 37.75 0.3 37.5 L0.4 37.4 Q-0.2 36.65 0.1 35.55 0.55 33.65 2.5 33.25 L3.4 33.3 3.55 33.3 Q3.65 32.5 4.75 32.4 L5.15 32.45 Q8.9 32.85 9.25 29.8 L9.4 29.35 Q9.6 28.7 10.0 28.35 10.8 29.85 10.1 31.8 L9.95 32.3 9.9 32.35 Q9.35 32.95 9.35 34.2 9.35 34.8 9.75 35.1 12.0 36.45 13.75 34.35 L14.05 34.0 14.05 34.05 14.0 34.1 Q14.3 34.6 13.9 35.05 L13.3 35.75 Q14.65 35.9 14.9 37.3 L15.05 37.95 Q15.65 37.75 16.25 37.4 16.3 37.25 16.3 37.1 L16.25 36.75 16.25 36.7 16.4 36.5 Q16.45 36.4 16.6 36.4 16.85 36.95 17.35 37.4 17.7 37.75 17.9 38.1 16.3 38.55 14.55 38.5 14.5 38.4 14.6 38.3 L14.85 38.1 14.9 38.05 14.95 37.75 Q14.9 37.5 14.6 37.5 L14.0 37.4 Q13.5 37.55 13.25 38.0 13.15 38.2 13.2 38.4 L11.4 38.6 Q11.0 37.7 9.95 37.2 8.4 36.45 8.4 34.65 L8.3 34.7 8.15 34.75 8.1 34.85 Q8.0 35.4 7.8 35.9 7.5 36.85 6.95 37.6 6.75 37.45 6.75 37.2 6.75 36.85 6.4 36.9 6.15 37.25 5.95 37.7 5.75 38.1 5.65 38.55 M13.25 36.15 Q12.45 36.25 12.25 37.05 12.0 38.0 12.9 37.75 15.15 37.0 13.25 36.15 M22.6 39.25 L21.1 39.2 Q20.9 39.15 20.7 39.1 L21.7 37.85 21.75 37.85 21.75 37.8 22.15 37.2 22.4 36.85 22.55 36.95 Q22.55 37.1 22.45 37.2 L22.3 37.45 22.25 37.5 22.5 37.5 22.5 37.85 22.35 37.95 22.5 37.95 22.55 38.1 Q23.0 38.25 23.3 37.85 23.55 37.75 23.8 37.65 L23.7 37.75 Q23.2 38.6 22.6 39.25 M24.3 37.25 L24.8 36.6 Q25.95 34.85 25.3 33.2 L25.35 33.05 Q26.1 33.6 26.2 34.6 L26.2 34.65 Q26.6 35.5 26.85 36.55 27.05 36.25 27.05 35.6 27.1 34.1 28.6 33.7 32.05 34.6 29.7 37.5 29.2 38.15 28.55 38.55 28.35 38.9 27.8 39.2 26.95 39.6 26.7 39.2 L26.75 39.2 26.15 39.25 24.7 39.3 24.8 39.05 Q25.2 37.9 24.75 37.05 24.55 37.05 24.4 37.15 L24.3 37.25 M20.35 38.8 L20.25 38.7 Q20.3 38.65 20.3 38.6 L20.25 38.6 Q20.3 38.15 20.75 38.05 L20.35 38.8 M9.7 30.45 Q9.4 30.7 9.25 31.25 9.0 32.0 8.45 32.6 9.05 33.0 9.6 32.25 10.25 31.25 9.7 30.45 M4.3 35.25 Q4.35 33.65 2.85 33.45 1.55 34.15 1.3 35.5 0.95 36.95 2.25 37.85 2.95 37.85 3.5 37.35 L3.95 36.85 4.2 36.9 4.3 36.95 Q4.35 36.95 4.4 36.95 L4.4 36.85 Q4.25 36.35 4.3 35.25 M6.6 34.95 Q6.75 34.35 6.65 33.7 6.55 33.6 6.4 33.55 L6.2 33.55 Q5.8 33.9 5.5 34.5 5.1 35.45 5.85 36.05 6.45 35.7 6.6 34.95 M0.1 35.8 Q-0.15 37.05 0.9 37.2 1.1 36.75 1.2 36.25 1.3 35.45 0.75 34.95 0.25 35.15 0.1 35.8 M27.45 35.5 Q27.1 36.8 28.3 37.4 29.1 36.9 29.5 36.1 30.2 34.75 28.6 34.5 27.65 34.6 27.45 35.5 M27.05 37.9 L26.9 38.05 26.85 38.2 Q26.8 38.35 26.85 38.5 L26.9 38.7 26.95 38.75 27.4 38.75 27.45 38.7 27.55 38.55 Q27.65 38.4 27.7 38.25 L27.7 38.1 27.65 38.05 Q27.55 37.95 27.4 37.9 L27.2 37.85 27.05 37.9 M26.6 36.6 L26.45 36.55 Q25.75 36.7 25.4 37.4 24.95 38.2 25.05 39.0 25.85 39.35 26.35 38.55 26.85 37.7 26.8 36.75 L26.7 36.7 26.6 36.6" fill="#ff6e00" fill-rule="evenodd" stroke="none"/>
    <path d="M28.1 21.55 L28.1 21.6 28.35 21.8 28.55 22.05 28.6 22.1 Q28.65 22.35 28.6 22.6 28.1 22.75 27.65 22.3 27.2 21.8 27.65 21.45 27.9 21.45 28.1 21.55 M12.3 15.35 Q11.75 15.4 11.3 15.85 10.9 15.95 10.55 15.85 10.5 15.0 11.5 14.65 11.95 14.5 12.35 14.2 12.85 14.85 12.3 15.35 M15.05 14.1 L15.95 13.8 16.5 13.8 17.4 14.0 17.5 14.05 Q17.9 14.45 18.1 15.0 L17.5 15.35 Q16.95 15.05 16.05 15.1 15.35 15.3 14.9 15.65 L14.65 15.55 Q14.55 15.35 14.6 15.1 14.6 14.45 15.05 14.1 M19.5 11.55 Q20.2 11.8 19.8 12.45 19.55 12.85 19.1 12.7 18.85 12.4 19.0 12.05 19.15 11.7 19.5 11.55 M10.9 9.25 Q10.9 9.6 10.65 9.8 10.0 9.7 10.2 9.05 10.25 8.7 10.55 8.65 10.95 8.85 10.9 9.25 M4.95 22.35 L4.9 22.5 Q4.45 22.85 3.85 22.5 L3.5 22.2 3.3 21.3 Q3.2 20.7 3.65 20.5 4.15 20.55 4.15 21.05 L4.15 21.75 4.65 22.05 4.75 22.2 4.8 22.2 4.85 22.3 4.95 22.35 M12.0 22.4 Q11.75 22.95 12.2 23.4 L12.45 23.4 12.6 23.55 Q12.3 24.3 11.6 24.1 L11.5 24.0 11.35 23.9 11.3 23.85 Q10.85 23.55 10.9 23.0 L10.85 22.8 10.9 22.6 Q11.0 21.95 11.5 21.7 11.8 22.0 12.0 22.4 M14.55 38.5 L13.2 38.4 Q13.15 38.2 13.25 38.0 13.5 37.55 14.0 37.4 L14.6 37.5 Q14.9 37.5 14.95 37.75 L14.9 38.05 14.85 38.1 14.6 38.3 Q14.5 38.4 14.55 38.5 M11.4 38.6 L11.05 38.6 10.7 38.65 10.05 38.65 5.65 38.55 Q5.75 38.1 5.95 37.7 6.15 37.25 6.4 36.9 6.75 36.85 6.75 37.2 6.75 37.45 6.95 37.6 7.5 36.85 7.8 35.9 8.0 35.4 8.1 34.85 L8.15 34.75 8.3 34.7 8.4 34.65 Q8.4 36.45 9.95 37.2 11.0 37.7 11.4 38.6 M23.8 37.65 L24.3 37.25 24.4 37.15 Q24.55 37.05 24.75 37.05 25.2 37.9 24.8 39.05 L24.7 39.3 24.35 39.3 22.6 39.25 Q23.2 38.6 23.7 37.75 L23.8 37.65 M9.7 30.45 Q10.25 31.25 9.6 32.25 9.05 33.0 8.45 32.6 9.0 32.0 9.25 31.25 9.4 30.7 9.7 30.45 M0.1 35.8 Q0.25 35.15 0.75 34.95 1.3 35.45 1.2 36.25 1.1 36.75 0.9 37.2 -0.15 37.05 0.1 35.8" fill="#ffcc00" fill-rule="evenodd" stroke="none"/>
  </g>
</svg>
