<?xml version="1.0" encoding="UTF-8" standalone="no"?>
<svg xmlns:ffdec="https://www.free-decompiler.com/flash" xmlns:xlink="http://www.w3.org/1999/xlink" ffdec:objectType="shape" height="43.35px" width="42.75px" xmlns="http://www.w3.org/2000/svg">
  <g transform="matrix(1.0, 0.0, 0.0, 1.0, -3.55, 0.0)">
    <path d="M35.25 4.75 Q35.5 5.05 35.2 4.9 35.0 4.75 35.25 4.75 M38.5 7.6 Q38.2 7.35 38.4 7.25 38.75 7.75 38.5 7.6 M4.15 42.55 L3.55 42.45 3.55 39.85 3.75 39.7 Q3.8 39.55 3.8 39.3 3.8 39.05 3.55 38.95 L3.55 38.3 Q3.7 38.2 3.7 38.0 3.7 37.85 3.55 37.7 L3.55 36.9 4.45 36.95 Q5.15 37.1 5.65 36.75 3.65 36.7 3.7 34.2 3.75 30.1 7.75 29.1 9.6 28.6 11.05 27.85 L11.2 27.95 11.15 27.8 11.65 27.55 Q11.1 27.3 10.4 27.05 L10.15 26.9 Q9.35 26.4 8.4 26.25 L8.6 26.05 Q10.3 26.0 11.7 26.85 L12.15 27.2 12.2 27.2 12.4 27.05 Q11.75 26.55 11.7 25.25 11.45 20.6 15.8 19.6 18.35 19.0 19.6 17.25 15.9 16.15 16.55 12.0 17.05 8.65 20.7 8.8 L21.0 8.85 Q20.15 8.9 19.35 9.3 16.35 10.8 17.3 13.75 17.95 15.75 19.45 14.25 20.0 13.7 20.6 13.25 22.4 11.85 23.55 10.2 23.55 9.9 22.95 9.35 22.55 9.0 22.1 8.85 L23.9 8.8 Q23.65 7.95 24.25 7.05 24.85 6.2 25.8 5.75 26.5 6.05 26.95 5.75 27.0 5.3 27.4 5.05 27.75 4.45 28.4 4.2 L29.2 4.25 Q29.55 4.3 29.8 4.55 L29.8 4.85 Q30.35 5.5 31.0 5.45 L31.1 5.45 31.25 5.4 31.5 5.3 Q33.35 4.55 31.95 3.45 L32.0 3.4 32.1 3.35 Q33.35 3.95 33.1 5.0 32.9 5.1 32.75 5.2 29.75 6.9 31.95 9.2 32.7 10.0 33.55 9.35 35.7 7.8 35.15 6.15 36.2 7.3 35.75 9.4 35.45 10.75 34.6 11.25 34.6 11.5 34.6 11.75 L34.65 11.85 Q36.2 13.1 38.25 13.45 L38.45 13.5 38.65 13.45 Q39.4 13.4 39.8 14.15 40.5 15.4 40.4 16.5 40.45 17.0 40.35 17.6 40.3 16.95 39.95 16.45 39.85 16.45 39.85 16.5 L39.75 16.6 Q40.25 13.95 37.7 13.6 37.4 13.65 37.15 13.9 35.7 15.5 36.9 17.3 38.05 19.05 38.8 18.65 38.65 19.3 38.7 20.0 39.05 20.05 39.35 19.95 38.75 20.65 37.9 20.65 37.75 20.4 37.5 20.15 37.3 20.3 37.35 20.55 L37.2 20.5 Q37.45 20.9 37.6 21.3 38.75 24.45 35.3 25.75 31.2 27.3 33.3 30.9 33.75 31.7 34.6 32.0 36.45 32.7 37.45 32.15 37.75 32.25 38.1 32.05 40.0 30.85 40.55 32.85 40.7 33.45 40.9 34.05 41.3 34.15 41.65 34.3 41.7 34.2 41.85 34.2 L42.05 34.2 42.25 34.15 Q42.8 34.25 43.3 34.45 L43.3 35.3 Q43.25 35.2 43.15 35.1 42.8 34.75 42.35 34.75 42.25 34.75 42.15 34.85 L41.95 35.1 Q41.9 35.15 41.85 35.25 41.85 35.65 42.25 35.85 42.8 36.2 43.3 35.75 L43.3 40.4 Q41.55 40.4 40.05 42.15 40.0 40.95 39.3 40.05 38.75 39.35 38.2 39.35 37.2 38.65 35.05 39.0 35.15 38.2 34.7 37.5 31.65 32.25 26.05 35.85 26.0 35.3 26.25 34.9 26.7 33.9 27.45 33.4 L25.3 33.55 Q25.0 33.25 25.0 32.75 25.1 31.3 26.5 30.9 L27.05 30.7 Q28.5 30.7 29.65 31.6 30.15 32.0 30.25 32.45 30.35 32.2 30.35 32.0 L30.3 31.6 Q29.8 29.45 27.9 29.15 L28.35 28.05 Q28.5 27.6 28.45 27.25 31.55 29.7 33.55 25.9 34.2 24.6 33.85 23.2 33.85 24.0 32.9 25.15 31.05 27.35 29.85 25.1 29.4 24.25 29.7 23.3 30.15 21.85 31.7 21.5 33.05 21.8 33.55 22.45 32.5 20.15 29.5 21.05 26.95 21.85 27.85 19.0 28.0 18.55 28.35 18.55 30.8 18.5 31.5 16.3 32.5 16.1 33.3 15.4 34.8 14.05 34.3 12.1 33.5 9.0 30.55 10.85 30.1 11.1 29.85 10.8 28.35 9.0 30.65 7.55 L30.6 7.45 30.3 7.15 30.3 7.1 30.35 7.1 Q30.95 6.6 30.6 5.9 30.1 4.9 28.95 4.95 28.0 5.2 27.7 6.05 L27.65 6.1 27.65 6.2 27.55 6.5 Q27.5 6.85 27.5 7.25 L27.5 7.65 27.45 7.6 27.45 7.65 Q25.35 7.6 25.0 9.5 24.65 11.3 25.5 11.95 25.3 11.45 25.7 10.65 26.1 9.8 26.95 9.5 28.4 9.95 27.8 11.4 27.4 12.25 26.7 12.8 L26.5 12.75 Q26.15 14.15 24.8 15.15 L24.05 15.65 Q21.7 17.05 23.15 18.5 23.45 17.3 24.55 16.75 26.85 17.25 25.7 19.45 25.05 20.75 23.45 20.0 L23.4 20.0 23.35 20.1 Q23.0 20.5 22.5 20.3 20.9 18.95 19.25 20.9 16.75 23.85 19.9 25.1 19.45 25.5 18.85 25.65 15.8 26.2 13.2 27.6 11.95 28.3 11.65 29.65 11.0 32.6 13.95 32.1 14.4 32.0 14.65 32.25 17.15 34.55 14.35 36.05 13.95 35.5 13.35 35.55 L12.8 35.6 12.7 35.45 Q12.4 35.55 12.25 35.8 11.5 36.25 11.7 37.35 11.5 37.65 11.2 37.85 11.0 37.8 10.75 37.65 8.15 36.35 6.5 38.0 5.75 38.3 5.1 38.9 3.55 40.25 4.05 42.35 L4.15 42.55 M32.85 43.05 Q31.7 42.9 30.55 42.55 29.9 42.35 29.55 42.45 L29.85 42.3 Q27.25 42.3 24.6 42.35 L24.7 42.1 Q25.05 41.55 25.5 41.05 L26.05 40.45 26.2 40.45 26.95 40.5 27.25 40.55 Q27.6 40.05 28.15 39.65 29.35 38.8 30.85 38.55 33.5 38.45 33.45 40.8 33.45 42.05 32.85 43.05 M31.15 10.15 Q31.2 9.6 31.05 9.1 30.8 8.35 30.0 8.25 29.55 8.5 29.75 9.25 30.1 10.45 31.15 10.15 M23.9 12.55 Q25.0 11.35 24.3 10.55 23.5 10.75 22.9 11.3 21.9 12.25 22.45 13.25 23.3 13.2 23.9 12.55 M29.8 13.15 Q30.1 12.35 30.85 12.0 L31.35 12.05 Q31.5 12.1 31.6 12.15 31.95 13.0 31.4 13.7 30.7 14.6 29.75 14.15 29.6 13.65 29.8 13.15 M33.7 12.85 Q34.2 13.85 33.5 14.8 32.8 15.75 31.7 16.05 30.9 15.35 31.35 14.15 31.75 13.0 32.9 12.7 L33.35 12.75 Q33.55 12.75 33.7 12.85 M34.55 16.2 Q33.9 16.55 33.6 17.05 34.6 17.5 34.9 18.75 35.15 19.7 35.3 20.65 L35.45 20.8 35.75 20.95 Q36.8 20.05 37.0 18.7 37.3 16.3 34.55 16.15 L34.55 16.2 M32.5 19.9 Q34.0 19.05 32.3 18.3 32.2 18.35 32.1 18.45 L31.9 18.6 Q31.9 19.1 32.05 19.6 32.2 20.1 32.5 19.9 M27.45 16.3 Q27.45 16.7 27.15 16.95 26.85 17.25 26.3 17.05 L26.2 17.0 Q26.1 16.55 26.2 16.1 26.35 15.5 26.95 15.4 27.45 15.65 27.45 16.3 M28.5 22.7 Q29.9 23.45 29.15 25.0 28.65 26.0 27.6 25.65 27.25 24.85 27.45 23.95 27.6 23.0 28.5 22.7 M23.7 21.9 L23.35 22.45 Q22.95 22.5 22.8 22.1 22.75 21.9 22.75 21.65 22.85 21.55 22.95 21.5 23.25 21.4 23.45 21.3 24.0 21.45 23.7 21.9 M23.8 27.2 Q23.85 26.9 24.15 26.75 L24.3 26.7 Q24.5 26.8 24.7 26.9 24.9 27.0 24.9 27.25 24.85 27.55 24.55 27.7 24.0 27.9 23.85 27.45 L23.8 27.2 M36.85 27.7 L36.85 27.75 36.8 27.7 36.85 27.7 M22.1 13.9 L21.3 13.75 Q20.1 14.25 20.0 15.55 L19.9 16.6 Q21.55 17.7 22.4 16.2 L22.55 15.85 22.2 15.85 Q21.95 15.8 21.75 15.65 21.65 15.45 21.65 15.2 21.65 14.7 22.1 14.4 22.2 14.3 22.25 14.3 L22.75 14.3 22.7 14.2 Q22.45 13.95 22.1 13.9 M6.4 27.9 L6.4 28.0 6.35 28.0 6.4 27.9 M18.8 16.45 L19.3 16.55 Q19.55 16.55 19.65 16.3 19.7 16.05 19.55 15.8 19.35 15.55 19.05 15.55 18.6 15.55 18.6 16.0 18.6 16.25 18.8 16.45 M12.7 23.9 Q12.5 25.65 13.9 27.2 L13.95 27.15 Q13.15 24.35 15.55 22.35 17.4 20.85 19.05 19.35 L19.05 19.25 19.25 19.1 Q19.4 18.95 19.35 18.8 18.1 19.45 16.75 19.6 14.8 19.8 13.75 21.3 L13.55 21.6 Q13.55 21.25 13.3 21.0 12.5 21.6 12.1 22.6 11.65 23.9 12.5 24.5 12.6 24.45 12.6 24.35 12.65 24.1 12.7 23.9 M17.3 21.95 Q17.15 21.85 17.05 21.85 16.25 22.35 15.75 23.3 15.3 24.25 15.8 25.15 15.85 25.2 15.9 25.25 L16.4 25.3 Q16.9 24.7 17.25 24.0 17.65 23.1 17.5 22.15 17.4 22.0 17.3 21.95 M17.15 28.05 Q17.95 28.2 17.8 29.1 17.75 29.65 17.3 30.1 16.35 30.2 16.55 29.25 16.6 28.8 16.55 28.35 16.6 28.25 16.7 28.2 16.9 28.1 17.15 28.05 M12.7 30.75 L12.7 30.6 Q12.45 28.85 14.25 28.25 L14.75 28.1 Q17.05 29.3 14.8 31.1 13.25 32.4 12.8 31.1 L12.8 31.05 12.75 30.8 12.7 30.75 M21.75 21.3 Q22.5 22.7 21.5 23.95 20.45 25.3 19.05 24.5 18.95 23.5 19.25 22.55 19.65 21.3 20.95 21.15 L21.45 21.2 Q21.6 21.25 21.75 21.3 M16.85 30.5 Q17.0 30.55 17.1 30.7 17.2 31.1 16.85 31.5 16.45 31.9 15.9 31.6 15.75 31.35 15.85 31.05 15.95 30.65 16.3 30.45 L16.4 30.4 16.85 30.5 M23.1 38.4 Q23.55 38.45 23.55 38.85 23.5 39.15 23.35 39.4 22.95 39.7 22.65 39.3 L22.55 39.15 Q22.5 38.9 22.6 38.75 22.85 38.5 23.1 38.4 M20.95 37.0 L21.1 36.95 Q21.95 36.95 22.2 37.75 22.4 38.4 21.85 38.8 21.3 38.85 20.9 38.6 20.65 38.45 20.5 38.2 20.45 37.95 20.45 37.7 20.5 37.2 20.95 37.0 M19.05 41.7 Q18.05 39.75 19.75 38.55 23.8 39.8 19.9 42.0 19.35 42.3 19.05 41.7 M10.0 29.7 L9.9 30.05 9.85 30.15 Q9.8 30.65 9.9 30.95 10.05 31.45 10.65 31.6 10.7 30.95 11.0 30.35 11.5 29.3 10.55 28.95 10.15 29.2 10.0 29.7 M8.15 33.25 Q7.9 34.0 8.25 34.65 8.75 35.05 9.2 34.6 9.75 34.1 9.95 33.35 10.1 32.75 10.5 32.25 10.25 32.1 10.0 32.05 L9.35 32.0 Q8.5 32.35 8.15 33.25 M9.6 28.95 L9.55 28.95 Q5.15 29.05 4.55 33.05 4.15 35.8 6.7 35.7 7.0 34.95 7.2 34.15 7.35 33.35 7.9 32.85 9.8 31.05 9.6 28.95 M4.7 31.1 Q4.3 31.3 4.7 31.4 5.25 31.6 4.7 31.1 M37.8 33.15 L37.45 32.9 Q36.7 32.85 36.15 33.4 34.4 35.1 37.1 34.8 39.65 34.5 38.05 33.3 37.95 33.2 37.8 33.15 M37.55 35.65 L37.55 35.6 Q37.45 35.4 37.2 35.4 L36.85 35.4 Q36.6 35.4 36.4 35.6 35.75 36.1 36.4 36.45 37.05 36.8 37.35 36.45 37.55 36.2 37.55 35.65 M35.35 40.55 L35.4 40.75 Q35.4 40.95 35.35 41.1 L35.3 41.3 Q34.8 41.75 34.35 41.25 L34.35 41.2 Q34.2 40.95 34.4 40.75 34.65 40.45 34.95 40.4 L35.1 40.45 35.2 40.5 35.35 40.55 M29.8 36.65 L30.4 36.65 Q30.6 36.65 30.7 36.85 30.8 37.25 30.6 37.55 30.15 38.25 29.3 38.35 28.7 38.15 28.75 37.5 28.8 36.6 29.8 36.65 M23.0 30.65 Q23.1 29.65 23.85 28.85 24.8 27.75 26.1 27.25 28.55 28.9 25.5 31.15 22.7 33.2 23.0 30.65" fill="#ff6e00" fill-rule="evenodd" stroke="none"/>
    <path d="M35.1 0.2 Q34.85 0.45 34.7 0.85 34.65 1.1 34.6 1.35 34.4 1.4 34.3 1.25 34.2 1.15 34.15 0.95 34.15 0.7 34.2 0.45 34.35 0.1 34.7 0.0 35.05 0.05 35.1 0.2 M37.2 3.2 L37.4 3.35 37.45 3.5 37.4 3.9 37.4 3.95 Q37.2 3.6 36.8 3.35 36.85 3.25 36.95 3.15 L37.2 3.2 M39.1 10.35 Q39.25 10.5 39.25 10.7 38.9 11.1 38.55 10.5 38.35 10.25 38.7 10.15 38.95 10.15 39.1 10.35 M40.35 17.6 L40.1 18.5 40.0 18.75 39.95 18.9 Q40.1 18.45 39.6 18.2 39.25 18.3 39.05 18.65 38.85 19.05 39.05 19.4 39.5 19.5 39.8 19.15 L39.85 19.05 39.45 19.8 39.35 19.95 Q39.05 20.05 38.7 20.0 38.65 19.3 38.8 18.65 39.35 18.35 39.65 17.0 L39.7 16.75 39.75 16.6 39.85 16.5 Q39.85 16.45 39.95 16.45 40.3 16.95 40.35 17.6 M43.3 40.4 L43.3 42.75 42.25 42.95 41.6 43.05 41.5 43.05 38.65 43.3 37.3 43.35 33.75 43.15 33.25 43.1 32.85 43.05 Q33.45 42.05 33.45 40.8 33.5 38.45 30.85 38.55 29.35 38.8 28.15 39.65 27.6 40.05 27.25 40.55 L26.95 40.5 26.2 40.45 26.05 40.45 25.5 41.05 Q25.05 41.55 24.7 42.1 L24.6 42.35 Q22.8 42.4 21.0 42.45 L11.75 42.9 Q7.85 43.1 4.15 42.55 L4.05 42.35 Q3.55 40.25 5.1 38.9 5.75 38.3 6.5 38.0 8.15 36.35 10.75 37.65 11.0 37.8 11.2 37.85 11.5 37.65 11.7 37.35 11.5 36.25 12.25 35.8 12.4 35.55 12.7 35.45 L12.8 35.6 13.35 35.55 Q13.95 35.5 14.35 36.05 17.15 34.55 14.65 32.25 14.4 32.0 13.95 32.1 11.0 32.6 11.65 29.65 11.95 28.3 13.2 27.6 15.8 26.2 18.85 25.65 19.45 25.5 19.9 25.1 16.75 23.85 19.25 20.9 20.9 18.95 22.5 20.3 23.0 20.5 23.35 20.1 L23.4 20.0 23.45 20.0 Q25.05 20.75 25.7 19.45 26.85 17.25 24.55 16.75 23.45 17.3 23.15 18.5 21.7 17.05 24.05 15.65 L24.8 15.15 Q26.15 14.15 26.5 12.75 L26.7 12.8 Q27.4 12.25 27.8 11.4 28.4 9.95 26.95 9.5 26.1 9.8 25.7 10.65 25.3 11.45 25.5 11.95 24.65 11.3 25.0 9.5 25.35 7.6 27.45 7.65 L27.45 7.7 27.55 7.65 27.5 7.65 27.5 7.25 Q27.85 7.75 28.6 7.6 L30.3 7.15 30.6 7.45 30.65 7.55 Q28.35 9.0 29.85 10.8 30.1 11.1 30.55 10.85 33.5 9.0 34.3 12.1 34.8 14.05 33.3 15.4 32.5 16.1 31.5 16.3 30.8 18.5 28.35 18.55 28.0 18.55 27.85 19.0 26.95 21.85 29.5 21.05 32.5 20.15 33.55 22.45 33.05 21.8 31.7 21.5 30.15 21.85 29.7 23.3 29.4 24.25 29.85 25.1 31.05 27.35 32.9 25.15 33.85 24.0 33.85 23.2 34.2 24.6 33.55 25.9 31.55 29.7 28.45 27.25 28.5 27.6 28.35 28.05 L27.9 29.15 Q29.8 29.45 30.3 31.6 L30.35 32.0 Q30.35 32.2 30.25 32.45 30.15 32.0 29.65 31.6 28.5 30.7 27.05 30.7 L26.5 30.9 Q25.1 31.3 25.0 32.75 25.0 33.25 25.3 33.55 L27.45 33.4 Q26.7 33.9 26.25 34.9 26.0 35.3 26.05 35.85 31.65 32.25 34.7 37.5 35.15 38.2 35.05 39.0 37.2 38.65 38.2 39.35 38.75 39.35 39.3 40.05 40.0 40.95 40.05 42.15 41.55 40.4 43.3 40.4 M27.7 6.05 Q28.0 5.2 28.95 4.95 30.1 4.9 30.6 5.9 30.95 6.6 30.35 7.1 L30.4 6.9 30.45 6.75 30.45 6.45 Q30.55 6.2 30.35 6.1 30.1 5.95 29.85 6.15 29.4 6.5 28.7 6.2 L28.7 6.05 28.7 6.1 Q28.9 6.3 29.15 6.15 L29.3 6.05 29.4 5.85 29.45 5.4 Q29.45 5.25 29.35 5.15 L29.15 5.05 28.95 5.0 28.65 5.2 28.55 5.25 28.55 5.9 28.55 5.85 28.35 5.8 28.15 5.8 Q27.9 5.85 27.7 6.05 M26.8 8.65 Q26.7 8.4 26.45 8.4 L26.1 8.4 Q26.05 8.4 25.9 8.5 25.5 8.7 25.45 9.15 25.45 9.45 25.65 9.7 26.25 9.85 26.7 9.3 26.95 9.0 26.8 8.65 M29.8 13.15 Q29.6 13.65 29.75 14.15 30.7 14.6 31.4 13.7 31.95 13.0 31.6 12.15 31.5 12.1 31.35 12.05 L30.85 12.0 Q30.1 12.35 29.8 13.15 M33.35 11.65 Q33.4 11.25 33.25 10.85 33.0 10.3 32.4 10.35 31.9 10.5 32.0 11.05 32.1 12.4 33.35 11.65 M33.7 12.85 Q33.55 12.75 33.35 12.75 L32.9 12.7 Q31.75 13.0 31.35 14.15 30.9 15.35 31.7 16.05 32.8 15.75 33.5 14.8 34.2 13.85 33.7 12.85 M34.55 16.2 L34.55 16.15 Q37.3 16.3 37.0 18.7 36.8 20.05 35.75 20.95 L35.45 20.8 35.3 20.65 Q35.15 19.7 34.9 18.75 34.6 17.5 33.6 17.05 33.9 16.55 34.55 16.2 M29.9 15.9 L29.9 15.95 Q29.15 16.1 28.95 16.85 28.85 17.25 29.1 17.55 29.95 18.1 30.55 17.2 30.95 16.65 30.7 16.05 30.55 16.0 30.4 15.95 L29.9 15.9 M32.5 19.9 Q32.2 20.1 32.05 19.6 31.9 19.1 31.9 18.6 L32.1 18.45 Q32.2 18.35 32.3 18.3 34.0 19.05 32.5 19.9 M23.7 21.9 Q24.0 21.45 23.45 21.3 23.25 21.4 22.95 21.5 22.85 21.55 22.75 21.65 22.75 21.9 22.8 22.1 22.95 22.5 23.35 22.45 L23.7 21.9 M28.5 22.7 Q27.6 23.0 27.45 23.95 27.25 24.85 27.6 25.65 28.65 26.0 29.15 25.0 29.9 23.45 28.5 22.7 M27.45 16.3 Q27.45 15.65 26.95 15.4 26.35 15.5 26.2 16.1 26.1 16.55 26.2 17.0 L26.3 17.05 Q26.85 17.25 27.15 16.95 27.45 16.7 27.45 16.3 M24.45 25.4 Q24.4 25.15 24.5 25.05 24.15 24.75 23.5 24.55 22.0 25.3 21.1 26.6 L21.05 26.6 Q19.85 26.65 19.55 27.6 19.15 28.75 19.8 29.65 L19.95 29.7 20.2 29.8 Q20.25 30.35 20.55 30.9 21.45 30.85 21.7 29.95 L21.75 29.65 Q21.65 28.95 22.25 27.95 23.05 26.65 24.35 25.9 24.45 25.65 24.45 25.4 M23.8 27.2 L23.85 27.45 Q24.0 27.9 24.55 27.7 24.85 27.55 24.9 27.25 24.9 27.0 24.7 26.9 24.5 26.8 24.3 26.7 L24.15 26.75 Q23.85 26.9 23.8 27.2 M31.45 26.9 Q31.25 26.85 31.0 26.75 30.7 26.85 30.3 27.0 30.05 27.1 30.15 27.4 30.1 27.65 30.35 27.75 31.6 28.3 31.75 27.15 31.7 26.95 31.45 26.9 M36.0 17.25 Q35.95 17.3 35.9 17.35 L35.8 17.4 35.75 17.5 35.75 17.6 Q35.65 18.05 35.75 18.5 35.75 18.85 36.05 19.0 36.75 19.2 36.95 18.45 37.2 17.45 36.15 17.25 L36.0 17.25 M43.2 23.9 L43.0 23.95 41.15 24.15 Q40.2 24.3 39.5 24.65 39.3 24.55 39.35 24.25 L39.4 24.15 Q39.6 23.85 39.85 24.1 L40.05 24.3 Q40.85 24.2 41.6 23.75 42.3 23.3 43.1 23.05 44.15 22.9 44.75 23.7 45.1 24.15 45.2 24.65 45.0 24.45 44.75 24.35 44.35 24.1 43.95 24.0 L44.05 23.75 Q44.05 23.5 43.8 23.4 L43.55 23.3 Q43.25 23.3 43.1 23.55 L43.0 23.75 43.15 23.9 43.2 23.9 M36.85 27.7 L36.9 27.65 36.95 27.65 Q38.0 28.3 37.55 29.4 37.45 29.7 37.35 29.95 L37.3 29.95 37.15 30.0 Q36.55 30.25 36.5 30.85 36.3 30.75 36.15 30.65 36.1 30.5 36.1 30.3 L36.15 29.9 36.15 29.75 36.3 29.6 Q36.55 29.7 37.0 29.55 37.15 29.05 37.2 28.55 37.25 28.0 36.85 27.75 L36.85 27.7 M39.55 26.0 Q40.55 26.4 40.7 27.4 40.6 27.1 40.2 27.0 39.8 27.1 39.7 27.4 39.6 26.8 39.4 26.25 L39.55 26.0 M22.1 13.9 Q22.45 13.95 22.7 14.2 L22.75 14.3 22.25 14.3 Q22.2 14.3 22.1 14.4 21.65 14.7 21.65 15.2 21.65 15.45 21.75 15.65 21.95 15.8 22.2 15.85 L22.55 15.85 22.4 16.2 Q21.55 17.7 19.9 16.6 L20.0 15.55 Q20.1 14.25 21.3 13.75 L22.1 13.9 M6.35 28.0 Q6.15 28.05 6.0 27.95 5.9 27.5 6.2 27.1 6.5 26.8 6.85 26.7 7.0 26.8 7.05 26.95 6.7 27.15 6.5 27.6 6.4 27.75 6.4 27.9 L6.35 28.0 M21.25 15.45 Q21.3 14.9 20.7 14.85 20.25 15.05 20.25 15.7 20.2 16.3 20.55 16.75 20.85 16.9 21.0 16.65 L21.4 16.1 Q21.25 15.8 21.25 15.45 M18.8 16.45 Q18.6 16.25 18.6 16.0 18.6 15.55 19.05 15.55 19.35 15.55 19.55 15.8 19.7 16.05 19.65 16.3 19.55 16.55 19.3 16.55 L18.8 16.45 M12.7 23.9 Q12.65 24.1 12.6 24.35 12.6 24.45 12.5 24.5 11.65 23.9 12.1 22.6 12.5 21.6 13.3 21.0 13.55 21.25 13.55 21.6 12.85 22.8 12.7 23.9 M15.4 27.55 Q15.45 27.7 15.55 27.8 16.25 28.05 16.75 27.45 16.9 27.25 16.85 26.95 16.75 26.7 16.45 26.7 L15.95 26.7 Q15.8 26.7 15.65 26.85 15.35 27.1 15.4 27.55 M12.8 31.1 Q13.25 32.4 14.8 31.1 17.05 29.3 14.75 28.1 L14.25 28.25 Q12.45 28.85 12.7 30.6 L12.7 30.75 Q12.5 30.55 12.25 30.4 L12.15 30.45 Q11.95 30.55 11.85 30.75 11.8 30.85 11.75 31.0 11.75 31.2 11.95 31.35 12.45 31.7 12.75 31.2 L12.8 31.1 M17.15 28.05 Q16.9 28.1 16.7 28.2 16.6 28.25 16.55 28.35 16.6 28.8 16.55 29.25 16.35 30.2 17.3 30.1 17.75 29.65 17.8 29.1 17.95 28.2 17.15 28.05 M21.75 21.3 Q21.6 21.25 21.45 21.2 L20.95 21.15 Q19.65 21.3 19.25 22.55 18.95 23.5 19.05 24.5 20.45 25.3 21.5 23.95 22.5 22.7 21.75 21.3 M17.5 33.6 Q17.45 33.65 17.35 33.7 17.0 34.0 16.95 34.5 16.9 34.8 17.1 35.05 17.85 35.35 18.25 34.6 18.4 34.25 18.25 33.9 18.1 33.7 17.85 33.65 L17.5 33.6 M19.05 41.7 Q19.35 42.3 19.9 42.0 23.8 39.8 19.75 38.55 18.05 39.75 19.05 41.7 M20.95 37.0 Q20.5 37.2 20.45 37.7 20.45 37.95 20.5 38.2 20.65 38.45 20.9 38.6 21.3 38.85 21.85 38.8 22.4 38.4 22.2 37.75 21.95 36.95 21.1 36.95 L20.95 37.0 M23.1 38.4 Q22.85 38.5 22.6 38.75 22.5 38.9 22.55 39.15 L22.65 39.3 Q22.95 39.7 23.35 39.4 23.5 39.15 23.55 38.85 23.55 38.45 23.1 38.4 M16.85 30.5 L16.4 30.4 16.3 30.45 Q15.95 30.65 15.85 31.05 15.75 31.35 15.9 31.6 16.45 31.9 16.85 31.5 17.2 31.1 17.1 30.7 17.0 30.55 16.85 30.5 M9.9 30.95 Q10.45 31.2 10.6 30.7 10.9 29.9 10.2 29.6 L10.2 29.65 10.0 29.7 Q10.15 29.2 10.55 28.95 11.5 29.3 11.0 30.35 10.7 30.95 10.65 31.6 10.05 31.45 9.9 30.95 M4.7 31.1 Q5.25 31.6 4.7 31.4 4.3 31.3 4.7 31.1 M38.05 33.3 Q39.65 34.5 37.1 34.8 34.4 35.1 36.15 33.4 36.7 32.85 37.45 32.9 L37.8 33.15 37.55 33.1 Q37.1 33.15 37.0 33.6 36.95 33.9 37.05 34.2 L37.3 34.3 Q37.75 34.5 38.1 34.2 38.25 33.95 38.2 33.6 38.15 33.4 38.05 33.3 M37.35 36.45 Q37.05 36.8 36.4 36.45 35.75 36.1 36.4 35.6 36.6 35.4 36.85 35.4 L37.2 35.4 Q37.45 35.4 37.55 35.6 L37.55 35.65 Q37.5 35.6 37.4 35.55 L36.95 35.45 36.8 35.5 Q36.45 35.65 36.4 36.05 36.4 36.15 36.45 36.3 36.8 36.7 37.3 36.45 L37.35 36.45 M36.7 38.95 Q36.55 38.95 36.35 39.1 36.1 39.25 36.15 39.45 L36.15 39.65 Q36.65 40.05 37.3 40.0 37.65 40.0 37.8 39.7 37.85 39.25 37.5 39.1 37.15 38.9 36.7 38.95 M35.35 40.55 L35.2 40.5 35.1 40.45 34.95 40.4 Q34.65 40.45 34.4 40.75 34.2 40.95 34.35 41.2 L34.35 41.25 Q34.8 41.75 35.3 41.3 L35.35 41.1 Q35.4 40.95 35.4 40.75 L35.35 40.55 M30.65 34.75 Q30.2 34.9 30.4 35.2 31.1 36.5 32.35 37.5 32.8 37.9 33.0 37.5 34.15 35.25 30.85 34.65 L30.65 34.75 M23.0 30.65 Q22.7 33.2 25.5 31.15 28.55 28.9 26.1 27.25 24.8 27.75 23.85 28.85 23.1 29.65 23.0 30.65 M29.8 36.65 Q28.8 36.6 28.75 37.5 28.7 38.15 29.3 38.35 30.15 38.25 30.6 37.55 30.8 37.25 30.7 36.85 30.6 36.65 30.4 36.65 L29.8 36.65" fill="#ffcc00" fill-rule="evenodd" stroke="none"/>
    <path d="M39.95 18.9 L39.85 19.05 39.8 19.15 Q39.5 19.5 39.05 19.4 38.85 19.05 39.05 18.65 39.25 18.3 39.6 18.2 40.1 18.45 39.95 18.9 M27.5 7.25 Q27.5 6.85 27.55 6.5 L27.65 6.2 27.65 6.1 27.7 6.05 Q27.9 5.85 28.15 5.8 L28.35 5.8 28.55 5.85 28.55 5.9 28.6 6.0 28.7 6.05 28.7 6.2 Q29.4 6.5 29.85 6.15 30.1 5.95 30.35 6.1 30.55 6.2 30.45 6.45 L30.45 6.75 30.4 6.9 30.35 7.1 30.3 7.1 30.3 7.15 28.6 7.6 Q27.85 7.75 27.5 7.25 M26.8 8.65 Q26.95 9.0 26.7 9.3 26.25 9.85 25.65 9.7 25.45 9.45 25.45 9.15 25.5 8.7 25.9 8.5 26.05 8.4 26.1 8.4 L26.45 8.4 Q26.7 8.4 26.8 8.65 M33.35 11.65 Q32.1 12.4 32.0 11.05 31.9 10.5 32.4 10.35 33.0 10.3 33.25 10.85 33.4 11.25 33.35 11.65 M29.9 15.9 L30.4 15.95 Q30.55 16.0 30.7 16.05 30.95 16.65 30.55 17.2 29.95 18.1 29.1 17.55 28.85 17.25 28.95 16.85 29.15 16.1 29.9 15.95 L29.9 15.9 M31.45 26.9 Q31.7 26.95 31.75 27.15 31.6 28.3 30.35 27.75 30.1 27.65 30.15 27.4 30.05 27.1 30.3 27.0 30.7 26.85 31.0 26.75 31.25 26.85 31.45 26.9 M36.0 17.25 L36.15 17.25 Q37.2 17.45 36.95 18.45 36.75 19.2 36.05 19.0 35.75 18.85 35.75 18.5 35.65 18.05 35.75 17.6 L35.75 17.5 35.8 17.4 35.9 17.35 Q35.95 17.3 36.0 17.25 M43.2 23.9 L43.15 23.9 43.0 23.75 43.1 23.55 Q43.25 23.3 43.55 23.3 L43.8 23.4 Q44.05 23.5 44.05 23.75 L43.95 24.0 43.2 23.9 M21.25 15.45 Q21.25 15.8 21.4 16.1 L21.0 16.65 Q20.85 16.9 20.55 16.75 20.2 16.3 20.25 15.7 20.25 15.05 20.7 14.85 21.3 14.9 21.25 15.45 M15.4 27.55 Q15.35 27.1 15.65 26.85 15.8 26.7 15.95 26.7 L16.45 26.7 Q16.75 26.7 16.85 26.95 16.9 27.25 16.75 27.45 16.25 28.05 15.55 27.8 15.45 27.7 15.4 27.55 M12.8 31.1 L12.75 31.2 Q12.45 31.7 11.95 31.35 11.75 31.2 11.75 31.0 11.8 30.85 11.85 30.75 11.95 30.55 12.15 30.45 L12.25 30.4 Q12.5 30.55 12.7 30.75 L12.75 30.8 12.8 31.05 12.8 31.1 M17.5 33.6 L17.85 33.65 Q18.1 33.7 18.25 33.9 18.4 34.25 18.25 34.6 17.85 35.35 17.1 35.05 16.9 34.8 16.95 34.5 17.0 34.0 17.35 33.7 17.45 33.65 17.5 33.6 M10.0 29.7 L10.2 29.65 10.2 29.6 Q10.9 29.9 10.6 30.7 10.45 31.2 9.9 30.95 9.8 30.65 9.85 30.15 L9.9 30.05 10.0 29.7 M38.05 33.3 Q38.15 33.4 38.2 33.6 38.25 33.95 38.1 34.2 37.75 34.5 37.3 34.3 L37.05 34.2 Q36.95 33.9 37.0 33.6 37.1 33.15 37.55 33.1 L37.8 33.15 Q37.95 33.2 38.05 33.3 M37.35 36.45 L37.3 36.45 Q36.8 36.7 36.45 36.3 36.4 36.15 36.4 36.05 36.45 35.65 36.8 35.5 L36.95 35.45 37.4 35.55 Q37.5 35.6 37.55 35.65 37.55 36.2 37.35 36.45 M36.7 38.95 Q37.15 38.9 37.5 39.1 37.85 39.25 37.8 39.7 37.65 40.0 37.3 40.0 36.65 40.05 36.15 39.65 L36.15 39.45 Q36.1 39.25 36.35 39.1 36.55 38.95 36.7 38.95 M30.65 34.75 L30.85 34.65 Q34.15 35.25 33.0 37.5 32.8 37.9 32.35 37.5 31.1 36.5 30.4 35.2 30.2 34.9 30.65 34.75" fill="#ffefb2" fill-rule="evenodd" stroke="none"/>
    <path d="M45.0 38.45 Q45.25 37.95 45.25 37.25 45.2 36.25 44.7 36.15 L44.6 36.25 44.5 36.4 44.45 36.45 Q44.4 37.15 44.55 37.7 44.7 38.4 45.0 38.45 M43.3 40.4 L43.3 35.75 Q43.3 35.5 43.3 35.3 L43.3 34.45 43.55 34.7 Q43.85 35.0 43.85 35.6 45.0 34.95 45.55 36.9 45.9 38.25 45.8 39.7 46.05 39.85 46.2 40.45 46.35 41.05 46.3 41.75 L46.25 42.05 Q45.45 42.6 44.8 42.35 44.9 41.55 44.45 41.1 43.85 40.4 43.3 40.4 M46.05 41.25 Q46.05 40.75 45.85 40.6 45.65 40.75 45.5 41.1 45.35 41.45 45.45 41.9 45.75 42.2 45.9 41.8 46.05 41.55 46.05 41.25 M44.45 38.65 Q44.6 38.6 44.6 38.25 L44.6 38.15 Q44.55 37.95 44.45 37.9 L44.35 37.85 44.25 37.9 Q44.15 38.0 44.15 38.15 L44.15 38.3 Q44.2 38.7 44.45 38.65" fill="#ff6e00" fill-rule="evenodd" stroke="none"/>
    <path d="M44.8 42.35 L44.55 42.2 43.7 42.25 Q43.6 42.55 43.3 42.75 L43.3 40.4 Q43.85 40.4 44.45 41.1 44.9 41.55 44.8 42.35 M44.6 32.1 Q44.9 31.4 44.9 30.75 45.15 31.3 44.85 32.15 44.6 32.85 44.35 32.5 44.45 32.35 44.6 32.1" fill="#ffcc00" fill-rule="evenodd" stroke="none"/>
  </g>
</svg>
