<?xml version="1.0" encoding="UTF-8" standalone="no"?>
<svg xmlns:ffdec="https://www.free-decompiler.com/flash" xmlns:xlink="http://www.w3.org/1999/xlink" ffdec:objectType="shape" height="42.5px" width="44.45px" xmlns="http://www.w3.org/2000/svg">
  <g transform="matrix(1.0, 0.0, 0.0, 1.0, 0.0, 0.0)">
    <path d="M35.15 1.35 Q35.55 1.65 35.75 2.15 L34.9 1.65 Q34.25 1.8 33.9 2.35 L33.8 2.5 33.55 2.45 Q33.9 1.4 34.9 1.3 35.05 1.3 35.15 1.35 M30.2 2.65 L29.95 2.7 Q28.85 2.85 28.0 2.15 L27.85 1.85 Q27.85 1.1 28.4 0.55 L28.55 0.7 28.65 0.5 Q28.95 -0.1 29.55 0.0 L29.65 0.15 29.45 0.3 29.9 1.55 30.8 1.8 30.45 2.5 Q30.35 2.6 30.2 2.65 M32.3 22.6 L32.35 23.15 32.1 23.3 Q31.6 23.3 31.3 22.9 31.05 22.6 31.05 22.15 L31.55 21.95 32.05 22.3 32.3 22.6 M38.3 19.85 L38.05 20.9 37.8 21.15 Q37.45 21.0 37.35 20.8 37.2 20.55 37.3 20.3 37.4 20.05 37.7 19.9 38.05 19.8 38.3 19.85 M29.2 3.65 L29.05 3.8 29.05 4.15 28.8 4.2 Q28.35 4.3 28.2 3.9 28.05 3.5 28.3 3.15 L28.95 3.2 29.2 3.65 M4.75 28.2 L5.45 27.7 5.6 27.6 5.8 28.3 5.75 28.35 Q5.2 28.75 4.75 28.2 M3.05 32.7 L2.9 31.5 3.5 31.0 Q3.85 31.2 4.0 31.55 4.25 32.2 3.75 32.75 L3.05 32.7 M23.3 9.55 Q23.6 9.55 23.85 9.7 24.05 9.9 24.05 10.15 24.05 10.4 23.85 10.55 23.6 10.75 23.3 10.75 23.0 10.75 22.8 10.55 22.55 10.4 22.55 10.15 22.55 9.9 22.8 9.7 23.0 9.55 23.3 9.55 M25.35 4.85 L25.5 4.45 Q26.2 3.1 27.7 3.65 L27.95 3.95 26.7 4.55 Q26.6 4.85 26.35 4.95 25.8 5.3 25.35 4.85 M33.8 11.7 Q33.95 11.9 33.95 12.2 33.95 12.45 33.8 12.65 33.6 12.85 33.3 12.85 33.0 12.85 32.85 12.65 32.65 12.45 32.65 12.2 32.65 11.9 32.85 11.7 33.0 11.55 33.3 11.55 33.6 11.55 33.8 11.7 M29.35 27.35 L29.4 27.45 Q29.7 28.4 28.8 28.65 L28.3 28.3 28.7 27.5 29.35 27.35 M39.65 22.55 Q39.65 22.65 39.6 22.75 39.5 22.85 39.4 22.85 L38.75 22.4 Q38.75 22.2 38.85 22.05 38.95 21.9 39.05 21.9 L39.65 22.55 M35.65 21.35 Q35.85 21.6 35.85 21.95 35.85 22.35 35.65 22.6 35.45 22.9 35.2 22.9 34.95 22.9 34.75 22.6 34.6 22.35 34.6 21.95 34.6 21.6 34.75 21.35 34.95 21.05 35.2 21.05 35.45 21.05 35.65 21.35 M19.8 9.05 L19.8 8.0 20.2 7.75 20.7 8.0 Q20.8 8.25 20.8 8.45 20.75 9.0 20.3 9.25 L19.8 9.05 M18.7 15.7 L19.35 15.95 19.1 16.45 18.55 16.05 18.7 15.7 M18.75 18.7 Q19.15 19.0 19.0 19.45 L18.85 19.7 17.5 20.75 17.2 20.4 Q17.3 19.0 18.65 18.6 L18.75 18.7 M17.45 15.75 L17.85 16.3 17.15 17.6 16.55 17.25 16.55 17.0 Q16.5 16.05 17.45 15.75 M12.3 27.7 L13.15 27.05 13.6 27.2 Q13.95 28.1 13.55 29.0 13.4 29.4 13.05 29.65 L12.15 29.65 12.05 28.5 12.3 27.7 M10.4 29.15 L10.5 28.45 11.1 28.5 11.1 29.35 10.4 29.15 M33.8 32.2 Q33.8 32.4 33.7 32.55 33.55 32.7 33.35 32.7 33.15 32.7 33.0 32.55 32.85 32.4 32.85 32.2 32.85 32.0 33.0 31.85 33.15 31.7 33.35 31.7 33.55 31.7 33.7 31.85 33.8 32.0 33.8 32.2" fill="#ffefb2" fill-rule="evenodd" stroke="none"/>
    <path d="M30.2 2.65 L32.95 2.9 32.4 3.0 Q32.2 3.05 32.0 3.2 30.55 4.25 31.3 5.95 31.1 6.35 30.8 6.65 30.35 7.0 29.8 7.0 L30.05 7.7 Q30.85 10.0 29.35 11.95 29.4 11.6 29.25 11.3 29.0 10.7 28.45 10.45 L28.25 10.55 Q27.5 10.8 27.15 11.5 26.85 12.1 27.0 12.75 27.4 12.8 27.8 12.75 28.25 12.7 28.65 12.5 L26.5 13.75 Q27.65 13.75 28.7 14.15 30.25 14.75 30.45 16.45 30.65 18.85 29.3 20.85 L29.75 20.95 Q31.05 21.35 32.05 22.3 L31.55 21.95 31.05 22.15 Q31.05 22.6 31.3 22.9 31.6 23.3 32.1 23.3 L32.35 23.15 32.3 22.6 Q32.55 22.95 32.7 23.35 33.4 25.55 32.3 27.7 32.6 26.6 32.45 25.5 32.05 23.25 29.75 22.45 29.05 22.95 28.5 23.7 27.8 24.65 28.55 25.5 L29.05 26.0 Q29.9 26.85 30.85 26.3 30.3 27.05 29.9 27.9 28.7 30.4 30.2 32.65 30.5 32.7 30.75 32.55 32.7 31.15 34.75 30.0 33.65 30.95 33.95 32.45 34.1 33.0 34.4 33.45 35.45 33.6 36.2 32.6 36.6 32.1 36.4 31.5 36.15 30.6 35.35 30.05 L35.05 29.85 35.45 29.65 Q35.5 29.6 35.6 29.6 36.05 29.75 36.3 30.2 37.2 32.25 35.75 34.0 36.95 34.65 37.75 35.8 39.5 38.25 38.5 41.1 L38.2 41.1 37.85 41.05 Q37.35 41.1 36.9 41.25 36.35 41.4 35.95 41.85 34.15 42.1 32.3 42.2 29.15 42.4 26.0 42.15 24.15 42.05 22.35 41.7 19.9 41.2 17.4 41.8 L15.8 42.15 Q12.15 43.0 8.6 41.8 L8.35 41.75 7.3 41.7 6.8 41.55 0.8 41.35 0.0 40.3 0.05 38.2 Q0.05 38.85 0.35 39.35 0.55 39.8 1.0 39.85 2.35 40.05 3.55 39.4 4.25 39.05 4.65 38.4 5.75 36.75 4.75 35.0 L4.4 35.1 3.9 34.85 Q3.05 34.45 2.1 34.45 L2.2 34.3 Q5.2 34.15 7.05 36.55 L7.6 37.25 Q8.9 35.2 11.2 35.55 11.85 35.65 12.4 35.95 12.8 36.2 13.25 36.45 12.7 34.5 13.75 32.8 13.95 32.45 14.3 32.4 16.05 32.1 17.85 32.1 L20.6 31.95 Q21.45 32.75 22.4 32.0 L23.15 31.45 Q25.4 29.95 26.35 27.4 24.2 26.5 22.35 27.9 22.1 28.1 21.85 28.3 L21.85 27.6 Q22.6 26.95 22.1 26.15 L22.0 26.0 21.4 26.2 21.15 25.7 19.75 25.9 Q19.65 27.45 18.15 27.35 17.25 27.35 16.55 26.85 16.0 26.45 16.15 25.75 16.25 25.15 16.5 24.6 16.95 25.0 17.5 25.15 18.2 25.25 18.75 24.85 L18.75 21.7 Q17.45 21.5 16.55 22.45 16.15 22.85 15.85 23.35 15.7 20.6 17.6 18.7 18.0 18.35 18.45 18.15 19.8 17.5 21.35 17.5 L22.05 16.25 Q19.95 14.5 20.8 11.95 L21.1 11.25 21.2 11.4 21.75 11.2 21.85 10.55 21.6 10.4 Q23.3 8.7 25.65 9.35 L26.0 9.45 Q26.55 9.15 26.65 8.55 26.75 8.0 26.5 7.5 27.35 7.65 27.7 6.9 27.85 6.45 27.8 6.0 L27.7 5.25 Q26.85 4.9 26.15 5.4 25.55 5.85 25.4 6.55 24.7 4.5 26.3 3.1 27.05 2.45 28.0 2.15 28.85 2.85 29.95 2.7 L30.2 2.65 M38.3 19.65 L38.3 19.85 Q38.05 19.8 37.7 19.9 37.4 20.05 37.3 20.3 37.2 20.55 37.35 20.8 37.45 21.0 37.8 21.15 L37.5 21.35 Q36.85 20.4 37.65 19.7 L37.85 19.55 38.3 19.65 M29.65 0.15 L29.55 0.0 29.95 0.05 29.65 0.15 M29.2 3.65 L28.95 3.2 28.3 3.15 Q28.05 3.5 28.2 3.9 28.35 4.3 28.8 4.2 L29.05 4.15 29.2 4.6 Q29.85 4.7 30.05 4.1 30.15 3.9 30.1 3.7 L29.65 3.45 29.2 3.65 M19.3 8.7 Q19.3 8.1 19.7 7.65 L19.85 7.5 20.75 7.55 21.25 9.1 Q20.6 9.7 19.85 9.25 L19.65 9.1 19.8 9.05 20.3 9.25 Q20.75 9.0 20.8 8.45 20.8 8.25 20.7 8.0 L20.2 7.75 19.8 8.0 19.8 9.05 19.3 8.7 M5.9 27.4 L6.25 27.7 5.8 28.5 5.6 28.65 4.75 28.7 4.75 28.2 Q5.2 28.75 5.75 28.35 L5.8 28.3 5.6 27.6 5.9 27.4 M3.05 30.75 L3.6 30.1 Q4.85 31.4 4.05 33.0 L3.95 33.2 3.1 33.2 3.05 32.7 3.75 32.75 Q4.25 32.2 4.0 31.55 3.85 31.2 3.5 31.0 L2.9 31.5 2.95 31.05 3.05 30.75 M25.35 4.85 Q25.8 5.3 26.35 4.95 26.6 4.85 26.7 4.55 L27.95 3.95 27.7 3.65 Q26.2 3.1 25.5 4.45 L25.35 4.85 M23.3 9.55 Q23.0 9.55 22.8 9.7 22.55 9.9 22.55 10.15 22.55 10.4 22.8 10.55 23.0 10.75 23.3 10.75 23.6 10.75 23.85 10.55 24.05 10.4 24.05 10.15 24.05 9.9 23.85 9.7 23.6 9.55 23.3 9.55 M23.8 13.1 Q23.5 11.95 22.5 11.3 20.55 12.2 21.0 14.3 21.1 14.85 21.65 14.75 23.15 14.6 23.8 13.4 23.85 13.25 23.8 13.1 M33.8 11.7 Q33.6 11.55 33.3 11.55 33.0 11.55 32.85 11.7 32.65 11.9 32.65 12.2 32.65 12.45 32.85 12.65 33.0 12.85 33.3 12.85 33.6 12.85 33.8 12.65 33.95 12.45 33.95 12.2 33.95 11.9 33.8 11.7 M32.85 13.25 L33.9 13.45 Q33.5 14.25 32.6 14.15 32.15 14.15 31.85 13.85 31.35 13.4 31.1 12.7 32.5 10.9 34.65 11.35 34.4 12.8 32.85 13.25 M30.25 17.2 Q29.7 16.2 28.7 15.6 27.0 16.4 27.2 18.25 27.3 19.2 27.95 19.9 29.35 19.55 30.15 18.35 30.55 17.8 30.25 17.2 M23.85 18.6 Q23.6 18.6 23.4 18.9 23.25 19.15 23.25 19.55 23.25 19.95 23.4 20.25 23.6 20.55 23.85 20.55 24.1 20.55 24.25 20.25 24.45 19.95 24.45 19.55 24.45 19.15 24.25 18.9 24.1 18.6 23.85 18.6 M25.4 20.85 L24.65 20.8 Q23.45 21.75 23.85 23.1 23.9 23.2 24.0 23.35 24.35 23.65 24.75 23.7 L24.95 23.55 Q26.25 22.5 25.5 21.0 L25.4 20.85 M24.95 25.45 L24.65 25.45 Q24.15 25.65 23.75 26.1 24.9 26.85 26.15 26.5 25.9 25.5 24.95 25.45 M34.45 22.85 Q34.2 22.5 34.2 21.95 34.2 21.4 34.45 21.05 34.7 20.65 35.05 20.65 35.4 20.65 35.65 21.05 35.9 21.4 35.9 21.95 35.9 22.5 35.65 22.85 35.4 23.25 35.05 23.25 34.7 23.25 34.45 22.85 M29.35 27.35 L28.7 27.5 28.3 28.3 28.8 28.65 Q29.7 28.4 29.4 27.45 L29.35 27.35 M36.4 20.8 Q36.55 20.8 36.65 20.95 36.75 21.05 36.75 21.25 36.75 21.4 36.65 21.55 36.55 21.65 36.4 21.65 36.25 21.65 36.15 21.55 36.05 21.4 36.05 21.25 36.05 21.05 36.15 20.95 36.25 20.8 36.4 20.8 M39.4 22.85 Q39.5 22.85 39.6 22.75 39.65 22.65 39.65 22.55 L39.7 23.05 39.5 23.05 39.4 22.85 M39.05 21.9 Q38.95 21.9 38.85 22.05 38.75 22.2 38.75 22.4 L37.4 22.7 Q37.55 22.4 37.8 22.2 38.35 21.75 39.05 21.9 M35.65 21.35 Q35.45 21.05 35.2 21.05 34.95 21.05 34.75 21.35 34.6 21.6 34.6 21.95 34.6 22.35 34.75 22.6 34.95 22.9 35.2 22.9 35.45 22.9 35.65 22.6 35.85 22.35 35.85 21.95 35.85 21.6 35.65 21.35 M16.0 10.4 Q15.7 9.75 16.35 9.4 L16.5 9.5 16.05 10.5 16.0 10.4 M5.65 25.5 L5.95 25.3 6.25 25.45 5.65 26.05 5.65 25.5 M18.7 15.7 L19.15 15.4 19.4 15.55 Q19.6 15.85 19.5 16.2 19.35 16.5 19.05 16.6 L18.55 16.35 18.55 16.05 19.1 16.45 19.35 15.95 18.7 15.7 M17.45 15.5 L18.1 15.65 18.25 16.05 Q18.4 16.7 17.95 17.2 17.3 17.9 16.5 17.5 16.45 17.25 16.5 16.95 16.55 15.95 17.45 15.5 M17.45 15.75 Q16.5 16.05 16.55 17.0 L16.55 17.25 17.15 17.6 17.85 16.3 17.45 15.75 M18.75 18.7 L18.65 18.6 Q17.3 19.0 17.2 20.4 L17.5 20.75 18.85 19.7 19.0 19.45 Q19.15 19.0 18.75 18.7 M22.25 19.0 L21.4 18.35 Q19.45 20.15 20.3 22.65 20.45 23.1 20.85 23.35 21.1 23.5 21.3 23.4 22.8 22.85 23.0 21.35 23.1 20.7 22.85 20.1 22.6 19.5 22.25 19.0 M12.25 27.2 Q12.15 27.3 11.95 27.3 11.8 27.3 11.65 27.2 11.55 27.05 11.55 26.9 11.55 26.7 11.65 26.6 11.8 26.45 11.95 26.45 12.15 26.45 12.25 26.6 12.4 26.7 12.4 26.9 12.4 27.05 12.25 27.2 M12.05 28.5 L12.15 29.65 13.05 29.65 Q13.4 29.4 13.55 29.0 13.95 28.1 13.6 27.2 L13.15 27.05 12.3 27.7 13.75 26.1 Q15.4 26.65 15.25 28.4 15.15 29.15 14.7 29.7 14.0 30.55 12.95 30.85 12.45 31.0 12.3 30.55 11.95 29.55 12.05 28.5 M18.3 34.95 Q18.2 35.1 18.2 35.3 18.15 35.95 18.35 36.55 19.85 36.8 20.3 35.4 20.55 34.85 20.45 34.25 19.1 33.8 18.3 34.95 M13.3 34.7 Q13.45 36.2 14.8 36.6 L15.15 36.55 15.35 36.45 Q16.85 35.7 17.15 34.15 17.25 33.85 17.05 33.6 16.4 32.7 15.3 32.35 13.85 32.8 13.4 34.2 13.3 34.45 13.3 34.7 M20.05 38.3 Q20.15 38.15 20.15 38.0 20.15 37.8 20.05 37.65 19.9 37.5 19.7 37.5 19.5 37.5 19.35 37.65 19.2 37.8 19.2 38.0 19.2 38.15 19.35 38.3 19.5 38.45 19.7 38.45 19.9 38.45 20.05 38.3 M10.4 29.15 L11.1 29.35 11.1 28.5 10.5 28.45 11.0 27.95 11.6 28.3 Q11.65 28.8 11.5 29.3 11.4 29.55 11.15 29.75 L10.5 29.7 10.4 29.15 M4.6 33.1 Q4.8 33.1 4.95 33.25 5.1 33.4 5.1 33.65 5.1 33.85 4.95 34.0 4.8 34.15 4.6 34.15 4.4 34.15 4.25 34.0 4.05 33.85 4.05 33.65 4.05 33.4 4.25 33.25 4.4 33.1 4.6 33.1 M35.3 35.05 Q34.95 35.05 34.7 35.35 34.45 35.65 34.45 36.05 34.45 36.45 34.7 36.75 34.95 37.0 35.3 37.0 35.65 37.0 35.9 36.75 36.15 36.45 36.15 36.05 36.15 35.65 35.9 35.35 35.65 35.05 35.3 35.05 M32.0 33.75 Q31.65 33.65 31.3 33.65 29.4 34.7 29.45 37.0 29.5 37.8 29.95 38.45 30.5 39.3 31.55 39.55 32.85 39.85 34.1 39.55 L34.35 39.45 Q34.55 39.15 34.45 38.85 33.7 36.7 33.2 34.45 32.7 33.95 32.0 33.75 M33.8 32.2 Q33.8 32.0 33.7 31.85 33.55 31.7 33.35 31.7 33.15 31.7 33.0 31.85 32.85 32.0 32.85 32.2 32.85 32.4 33.0 32.55 33.15 32.7 33.35 32.7 33.55 32.7 33.7 32.55 33.8 32.4 33.8 32.2 M25.45 34.4 Q25.3 34.6 25.3 34.85 25.3 35.15 25.45 35.35 25.6 35.55 25.85 35.55 26.1 35.55 26.25 35.35 26.4 35.15 26.4 34.85 26.4 34.6 26.25 34.4 26.1 34.15 25.85 34.15 25.6 34.15 25.45 34.4 M28.55 36.45 Q28.5 36.0 28.25 35.7 28.0 35.25 27.6 34.9 25.9 36.7 27.1 38.85 28.7 38.1 28.55 36.45" fill="#ffcc00" fill-rule="evenodd" stroke="none"/>
    <path d="M28.0 2.15 Q27.05 2.45 26.3 3.1 24.7 4.5 25.4 6.55 25.55 5.85 26.15 5.4 26.85 4.9 27.7 5.25 L27.8 6.0 Q27.85 6.45 27.7 6.9 27.35 7.65 26.5 7.5 26.75 8.0 26.65 8.55 26.55 9.15 26.0 9.45 L25.65 9.35 Q23.3 8.7 21.6 10.4 21.4 10.4 21.25 10.65 21.1 10.9 21.1 11.25 L20.8 11.95 Q19.95 14.5 22.05 16.25 L21.35 17.5 Q19.8 17.5 18.45 18.15 18.0 18.35 17.6 18.7 15.7 20.6 15.85 23.35 16.15 22.85 16.55 22.45 17.45 21.5 18.75 21.7 L18.75 24.85 Q18.2 25.25 17.5 25.15 16.95 25.0 16.5 24.6 16.25 25.15 16.15 25.75 16.0 26.45 16.55 26.85 17.25 27.35 18.15 27.35 19.65 27.45 19.75 25.9 L21.15 25.7 21.4 26.2 Q19.9 27.05 20.0 28.75 L20.25 28.85 Q21.55 28.9 21.85 27.6 L21.85 28.3 21.6 28.5 Q19.9 29.9 20.6 31.95 L17.85 32.1 Q16.05 32.1 14.3 32.4 13.95 32.45 13.75 32.8 12.7 34.5 13.25 36.45 12.8 36.2 12.4 35.95 11.85 35.65 11.2 35.55 8.9 35.2 7.6 37.25 L7.05 36.55 Q5.2 34.15 2.2 34.3 2.2 34.2 2.15 34.1 L2.05 34.05 Q2.0 34.0 1.95 34.0 L1.6 34.0 1.6 32.95 1.45 32.8 1.6 32.9 1.75 32.7 2.7 33.8 2.95 31.05 2.9 31.5 3.05 32.7 3.1 33.2 3.95 33.2 4.05 33.0 Q4.85 31.4 3.6 30.1 L3.05 30.75 3.25 30.3 Q3.95 28.7 5.45 27.7 L4.75 28.2 4.75 28.7 5.6 28.65 Q4.55 29.5 4.5 30.8 L4.5 31.0 4.8 31.1 Q7.05 29.6 8.7 27.55 L7.9 27.15 5.8 28.5 6.25 27.7 5.9 27.4 Q7.65 26.3 9.75 26.35 L9.25 24.8 Q8.5 22.4 9.45 20.1 10.1 18.45 11.45 17.3 14.2 14.85 17.85 15.35 17.65 14.3 18.35 13.55 17.9 13.05 17.8 12.4 17.55 10.1 19.65 9.1 L19.85 9.25 Q20.6 9.7 21.25 9.1 L20.75 7.55 19.85 7.5 19.7 7.65 Q19.3 8.1 19.3 8.7 L19.15 8.5 Q18.85 8.25 18.65 7.95 18.35 7.35 18.35 6.65 L19.4 7.6 Q19.1 6.65 19.1 5.65 19.1 4.55 19.75 3.65 20.6 2.4 22.05 1.8 21.05 2.45 20.4 3.45 19.8 4.35 20.15 5.35 20.55 6.45 21.5 7.05 21.65 7.05 21.75 6.95 23.55 5.0 25.2 2.9 25.35 2.7 25.4 2.5 L22.15 1.8 27.85 1.85 28.0 2.15 M2.1 34.45 Q3.05 34.45 3.9 34.85 L4.4 35.1 4.75 35.0 Q5.75 36.75 4.65 38.4 4.25 39.05 3.55 39.4 2.35 40.05 1.0 39.85 0.55 39.8 0.35 39.35 0.05 38.85 0.05 38.2 L0.35 37.95 0.05 37.2 2.1 34.45 M38.5 41.1 Q39.5 38.25 37.75 35.8 36.95 34.65 35.75 34.0 37.2 32.25 36.3 30.2 36.05 29.75 35.6 29.6 35.5 29.6 35.45 29.65 L35.05 29.85 35.35 30.05 Q36.15 30.6 36.4 31.5 36.6 32.1 36.2 32.6 35.45 33.6 34.4 33.45 34.1 33.0 33.95 32.45 33.65 30.95 34.75 30.0 32.7 31.15 30.75 32.55 30.5 32.7 30.2 32.65 28.7 30.4 29.9 27.9 30.3 27.05 30.85 26.3 29.9 26.85 29.05 26.0 L28.55 25.5 Q27.8 24.65 28.5 23.7 29.05 22.95 29.75 22.45 32.05 23.25 32.45 25.5 32.6 26.6 32.3 27.7 33.4 25.55 32.7 23.35 32.55 22.95 32.3 22.6 L32.05 22.3 Q31.05 21.35 29.75 20.95 L29.3 20.85 Q30.65 18.85 30.45 16.45 30.25 14.75 28.7 14.15 27.65 13.75 26.5 13.75 L28.65 12.5 Q28.25 12.7 27.8 12.75 27.4 12.8 27.0 12.75 26.85 12.1 27.15 11.5 27.5 10.8 28.25 10.55 L28.45 10.45 Q29.0 10.7 29.25 11.3 29.4 11.6 29.35 11.95 30.85 10.0 30.05 7.7 L29.8 7.0 Q30.35 7.0 30.8 6.65 31.1 6.35 31.3 5.95 L31.65 6.85 31.3 7.1 Q31.05 7.25 30.95 7.5 30.15 9.0 31.55 10.05 32.5 9.0 32.25 7.65 33.1 9.45 34.6 10.75 36.35 9.35 36.55 7.05 36.55 10.85 33.9 13.55 L34.6 13.45 34.2 13.9 Q33.0 14.85 31.5 14.7 L31.35 15.45 Q31.2 16.4 31.8 17.1 32.1 17.45 32.55 17.35 34.05 17.05 35.5 17.1 L34.95 17.2 Q34.05 17.45 33.8 18.4 L36.8 20.45 Q37.15 20.15 37.35 19.75 37.7 18.9 37.4 18.05 L37.55 18.15 Q38.15 18.8 38.3 19.65 L37.85 19.55 37.65 19.7 Q36.85 20.4 37.5 21.35 L37.8 21.15 38.05 20.9 36.25 24.1 37.15 24.7 Q38.7 25.9 39.25 27.8 39.05 27.45 38.85 27.2 38.05 26.3 36.95 26.15 36.85 28.5 37.5 30.7 L37.85 30.65 Q38.35 30.45 38.75 30.05 39.2 29.65 39.4 29.1 39.35 30.3 38.85 31.4 38.25 32.65 36.9 32.95 L39.05 34.4 37.9 34.25 37.6 35.3 Q39.15 36.5 40.0 38.25 40.7 39.75 40.15 41.2 L38.5 41.1 M29.05 4.15 L29.05 3.8 29.2 3.65 29.65 3.45 30.1 3.7 Q30.15 3.9 30.05 4.1 29.85 4.7 29.2 4.6 L29.05 4.15 M31.65 6.2 Q31.6 6.0 31.65 6.25 L31.65 6.2 M23.8 13.1 Q23.85 13.25 23.8 13.4 23.15 14.6 21.65 14.75 21.1 14.85 21.0 14.3 20.55 12.2 22.5 11.3 23.5 11.95 23.8 13.1 M32.0 10.45 Q32.0 10.7 32.15 10.9 32.25 11.05 32.45 11.05 32.6 11.05 32.75 10.9 32.85 10.7 32.85 10.45 32.85 10.25 32.75 10.05 32.6 9.9 32.45 9.9 32.25 9.9 32.15 10.05 32.0 10.25 32.0 10.45 M32.85 13.25 Q34.4 12.8 34.65 11.35 32.5 10.9 31.1 12.7 31.35 13.4 31.85 13.85 32.15 14.15 32.6 14.15 33.5 14.25 33.9 13.45 L32.85 13.25 M25.4 20.85 L25.5 21.0 Q26.25 22.5 24.95 23.55 L24.75 23.7 Q24.35 23.65 24.0 23.35 23.9 23.2 23.85 23.1 23.45 21.75 24.65 20.8 L25.4 20.85 M23.85 18.6 Q24.1 18.6 24.25 18.9 24.45 19.15 24.45 19.55 24.45 19.95 24.25 20.25 24.1 20.55 23.85 20.55 23.6 20.55 23.4 20.25 23.25 19.95 23.25 19.55 23.25 19.15 23.4 18.9 23.6 18.6 23.85 18.6 M30.25 17.2 Q30.55 17.8 30.15 18.35 29.35 19.55 27.95 19.9 27.3 19.2 27.2 18.25 27.0 16.4 28.7 15.6 29.7 16.2 30.25 17.2 M34.45 22.85 Q34.7 23.25 35.05 23.25 35.4 23.25 35.65 22.85 35.9 22.5 35.9 21.95 35.9 21.4 35.65 21.05 35.4 20.65 35.05 20.65 34.7 20.65 34.45 21.05 34.2 21.4 34.2 21.95 34.2 22.5 34.45 22.85 M36.4 20.8 Q36.25 20.8 36.15 20.95 36.05 21.05 36.05 21.25 36.05 21.4 36.15 21.55 36.25 21.65 36.4 21.65 36.55 21.65 36.65 21.55 36.75 21.4 36.75 21.25 36.75 21.05 36.65 20.95 36.55 20.8 36.4 20.8 M39.5 23.05 L39.7 23.05 39.55 23.4 39.5 23.05 M20.4 9.8 L20.05 9.75 Q19.2 10.15 19.15 11.05 19.1 11.35 19.15 11.65 19.85 11.85 20.3 11.35 20.7 10.9 20.55 10.3 L20.4 9.8 M10.45 25.8 L11.05 25.85 Q11.7 23.25 13.15 21.0 14.6 19.1 15.55 16.95 15.65 16.7 15.5 16.55 15.05 15.95 14.25 16.05 12.8 16.2 11.6 17.25 9.3 19.25 9.55 22.25 9.65 24.1 10.45 25.8 M18.55 16.05 L18.55 16.35 19.05 16.6 Q19.35 16.5 19.5 16.2 19.6 15.85 19.4 15.55 L19.15 15.4 18.7 15.7 18.55 16.05 M17.45 15.5 Q16.55 15.95 16.5 16.95 16.45 17.25 16.5 17.5 17.3 17.9 17.95 17.2 18.4 16.7 18.25 16.05 L18.1 15.65 17.45 15.5 M22.25 19.0 Q22.6 19.5 22.85 20.1 23.1 20.7 23.0 21.35 22.8 22.85 21.3 23.4 21.1 23.5 20.85 23.35 20.45 23.1 20.3 22.65 19.45 20.15 21.4 18.35 L22.25 19.0 M12.75 23.85 Q14.5 23.4 15.45 21.8 16.3 20.35 15.9 18.75 13.1 20.05 12.8 23.1 12.75 23.45 12.75 23.85 M12.25 27.2 Q12.4 27.05 12.4 26.9 12.4 26.7 12.25 26.6 12.15 26.45 11.95 26.45 11.8 26.45 11.65 26.6 11.55 26.7 11.55 26.9 11.55 27.05 11.65 27.2 11.8 27.3 11.95 27.3 12.15 27.3 12.25 27.2 M12.3 27.7 L12.05 28.5 Q11.95 29.55 12.3 30.55 12.45 31.0 12.95 30.85 14.0 30.55 14.7 29.7 15.15 29.15 15.25 28.4 15.4 26.65 13.75 26.1 L12.3 27.7 M18.3 34.95 Q19.1 33.8 20.45 34.25 20.55 34.85 20.3 35.4 19.85 36.8 18.35 36.55 18.15 35.95 18.2 35.3 18.2 35.1 18.3 34.95 M20.05 38.3 Q19.9 38.45 19.7 38.45 19.5 38.45 19.35 38.3 19.2 38.15 19.2 38.0 19.2 37.8 19.35 37.65 19.5 37.5 19.7 37.5 19.9 37.5 20.05 37.65 20.15 37.8 20.15 38.0 20.15 38.15 20.05 38.3 M13.3 34.7 Q13.3 34.45 13.4 34.2 13.85 32.8 15.3 32.35 16.4 32.7 17.05 33.6 17.25 33.85 17.15 34.15 16.85 35.7 15.35 36.45 L15.15 36.55 14.8 36.6 Q13.45 36.2 13.3 34.7 M10.5 28.45 L10.4 29.15 10.5 29.7 11.15 29.75 Q11.4 29.55 11.5 29.3 11.65 28.8 11.6 28.3 L11.0 27.95 10.5 28.45 M7.7 30.55 Q5.8 31.0 5.45 32.9 5.35 33.5 5.8 33.95 5.95 34.15 6.2 34.3 7.45 33.2 8.55 31.95 8.9 31.6 8.6 31.25 8.3 30.75 7.7 30.55 M1.05 34.3 L0.65 33.5 1.55 34.05 1.3 34.1 1.05 34.3 M4.6 33.1 Q4.4 33.1 4.25 33.25 4.05 33.4 4.05 33.65 4.05 33.85 4.25 34.0 4.4 34.15 4.6 34.15 4.8 34.15 4.95 34.0 5.1 33.85 5.1 33.65 5.1 33.4 4.95 33.25 4.8 33.1 4.6 33.1 M35.3 35.05 Q35.65 35.05 35.9 35.35 36.15 35.65 36.15 36.05 36.15 36.45 35.9 36.75 35.65 37.0 35.3 37.0 34.95 37.0 34.7 36.75 34.45 36.45 34.45 36.05 34.45 35.65 34.7 35.35 34.95 35.05 35.3 35.05 M43.05 41.1 L42.85 41.2 42.7 41.25 42.65 40.8 42.9 40.75 43.8 39.25 44.0 39.9 Q43.8 40.7 43.05 41.1 M41.7 36.75 Q41.0 36.3 41.25 35.55 L41.35 35.35 Q42.3 35.9 41.85 36.9 L41.7 36.75 M44.05 38.15 L44.45 38.85 43.75 38.35 44.05 38.15 M39.85 33.9 L40.15 33.95 Q39.2 35.1 40.0 36.35 L40.4 36.35 39.85 36.45 Q39.65 36.4 39.55 36.25 38.5 34.9 39.85 33.9 M32.0 33.75 Q32.7 33.95 33.2 34.45 33.7 36.7 34.45 38.85 34.55 39.15 34.35 39.45 L34.1 39.55 Q32.85 39.85 31.55 39.55 30.5 39.3 29.95 38.45 29.5 37.8 29.45 37.0 29.4 34.7 31.3 33.65 31.65 33.65 32.0 33.75 M28.55 36.45 Q28.7 38.1 27.1 38.85 25.9 36.7 27.6 34.9 28.0 35.25 28.25 35.7 28.5 36.0 28.55 36.45 M25.45 34.4 Q25.6 34.15 25.85 34.15 26.1 34.15 26.25 34.4 26.4 34.6 26.4 34.85 26.4 35.15 26.25 35.35 26.1 35.55 25.85 35.55 25.6 35.55 25.45 35.35 25.3 35.15 25.3 34.85 25.3 34.6 25.45 34.4" fill="#ff6e00" fill-rule="evenodd" stroke="none"/>
  </g>
</svg>
