<?xml version="1.0" encoding="UTF-8" standalone="no"?>
<svg xmlns:ffdec="https://www.free-decompiler.com/flash" xmlns:xlink="http://www.w3.org/1999/xlink" ffdec:objectType="shape" height="43.45px" width="48.15px" xmlns="http://www.w3.org/2000/svg">
  <g transform="matrix(1.0, 0.0, 0.0, 1.0, 0.0, 0.0)">
    <path d="M41.85 18.0 Q42.0 18.6 42.0 19.2 41.95 20.2 41.15 20.8 L41.2 19.2 41.05 19.45 Q40.15 21.0 38.45 21.35 38.2 21.7 38.25 22.15 38.35 23.25 39.1 24.1 40.15 25.3 41.3 24.25 41.35 24.55 41.35 24.8 41.4 25.85 40.6 26.65 41.5 27.9 42.75 26.95 43.35 26.45 44.2 26.5 45.3 26.65 45.1 27.75 45.25 28.05 45.15 28.35 44.9 29.9 44.2 31.3 L43.5 32.0 Q43.9 32.2 44.15 32.6 45.1 33.8 44.6 35.35 45.2 34.9 45.9 34.75 L46.35 34.75 Q48.15 35.25 48.15 37.0 47.7 36.0 46.7 35.65 45.3 35.15 44.6 36.4 L44.15 36.65 44.35 36.6 Q45.4 36.9 46.25 37.65 46.95 38.35 47.2 39.4 47.35 39.95 47.5 40.25 L47.95 39.7 Q47.95 40.05 47.85 40.4 47.55 41.2 47.05 41.9 L44.35 43.1 Q44.5 42.25 44.4 41.45 43.95 38.25 41.05 36.8 L40.1 36.75 39.25 34.65 Q38.75 36.2 37.15 36.85 L36.9 36.85 Q35.7 36.5 35.6 35.1 35.55 34.9 35.6 34.65 35.95 33.35 37.3 33.05 L38.6 33.6 Q37.8 32.4 37.85 31.05 L38.15 30.8 39.75 31.0 40.3 31.3 41.55 32.65 41.1 30.85 40.35 30.15 38.2 29.75 38.35 27.9 Q38.1 28.25 37.75 28.55 37.5 28.7 37.2 28.85 36.2 28.75 35.75 27.8 35.6 27.55 35.7 27.25 35.95 26.25 37.1 26.05 L38.0 26.6 Q37.9 26.3 37.7 26.1 37.55 25.9 37.35 25.85 34.95 25.4 32.75 26.6 32.7 26.5 32.7 26.35 32.65 24.5 33.55 22.8 33.7 22.55 33.95 22.35 35.25 21.3 35.7 19.75 35.95 19.1 35.75 18.4 35.4 16.95 33.8 16.9 34.05 16.75 34.3 16.7 35.1 16.7 35.85 17.05 36.5 17.35 36.8 16.8 37.1 16.3 36.85 16.3 L36.65 16.4 Q36.25 16.5 36.05 16.15 35.5 14.85 36.7 14.2 37.25 14.3 37.7 14.55 38.0 14.7 38.1 15.0 L37.75 15.65 Q38.35 15.55 38.75 15.1 38.8 15.0 38.8 14.95 38.2 12.9 37.0 11.05 36.85 10.8 36.8 10.55 36.6 9.45 37.65 8.95 L38.4 9.15 Q39.15 9.25 39.4 9.9 39.75 9.55 39.85 9.1 40.1 8.05 39.15 7.45 L40.25 6.25 40.25 6.45 Q40.6 6.45 40.85 6.2 41.4 5.6 41.4 4.75 L42.75 5.05 41.85 8.2 42.35 8.6 42.4 8.45 Q43.55 9.45 43.35 10.95 L44.45 9.95 Q44.1 11.7 42.6 13.1 42.4 13.3 42.15 13.4 42.75 14.65 42.05 15.9 41.75 16.4 41.3 16.7 L41.65 17.3 41.4 17.15 Q40.7 17.25 40.7 17.85 40.65 17.25 40.3 16.8 39.9 16.35 39.3 16.2 L38.7 16.05 Q39.8 17.9 38.85 19.8 L38.75 19.9 Q38.75 20.1 39.3 19.95 40.5 19.65 40.7 18.3 L40.75 17.95 Q40.75 18.1 40.8 18.3 40.9 18.55 41.1 18.8 41.85 18.8 41.85 18.0 M28.75 42.35 L25.35 42.15 Q23.75 41.2 23.45 39.35 23.0 36.9 24.95 35.4 25.5 34.9 26.2 34.8 27.25 34.85 28.2 35.25 30.3 36.25 30.3 38.55 30.3 40.85 28.75 42.35 M22.0 41.8 L19.55 42.05 Q19.3 41.75 19.35 41.3 19.55 39.6 21.2 39.0 L21.4 39.15 Q22.85 40.2 22.0 41.8 M8.8 42.35 Q6.65 42.25 4.6 41.7 L4.05 41.55 3.55 41.9 Q3.4 41.95 3.3 42.0 L3.0 42.05 Q2.75 42.0 2.55 41.85 L2.5 41.8 Q2.4 41.7 2.4 41.55 2.4 41.45 2.45 41.35 L2.55 41.15 2.85 40.85 Q3.1 40.7 3.4 40.65 3.45 39.75 3.6 38.8 3.95 36.25 6.45 35.75 6.1 35.55 5.7 35.1 5.05 34.35 4.85 33.45 L4.7 32.95 5.3 33.45 5.6 32.45 Q6.4 34.0 7.95 34.35 8.3 34.4 8.55 34.2 9.5 33.6 9.95 32.55 11.1 30.05 13.2 28.2 L13.6 26.5 Q13.65 26.35 13.6 26.2 13.0 25.1 11.8 24.65 10.75 24.25 9.6 24.35 8.95 24.45 8.35 24.65 10.15 23.7 12.1 23.95 12.1 24.15 12.2 24.45 12.25 24.7 12.45 24.8 12.6 24.85 12.8 24.7 12.95 24.55 13.0 24.2 14.75 25.2 15.35 27.15 L15.45 27.5 16.05 26.9 16.35 26.7 Q16.35 26.5 16.95 26.2 17.95 25.6 19.05 25.15 19.2 25.1 19.3 24.95 L19.45 24.5 Q17.9 23.65 17.9 21.85 L17.95 21.1 Q18.05 19.15 19.4 17.75 21.35 15.75 24.05 16.35 24.7 16.5 25.35 16.7 L26.35 16.9 Q27.1 17.05 27.75 16.9 28.25 16.8 28.45 16.3 28.6 15.85 28.6 15.35 27.65 14.6 28.0 13.3 28.4 11.7 29.75 10.7 30.25 10.35 30.85 10.25 31.5 10.1 32.2 10.2 32.1 9.15 31.1 8.4 30.95 8.25 30.8 8.05 30.05 6.95 30.4 5.6 30.8 4.35 31.5 3.2 32.5 1.55 34.35 1.6 34.45 1.75 33.8 2.0 32.6 2.55 32.25 3.75 L32.25 3.95 32.35 3.85 Q33.55 3.6 34.75 3.6 L36.2 3.8 37.3 3.85 37.4 4.6 38.15 4.35 Q38.5 4.4 38.8 4.6 39.05 4.65 39.2 4.85 L39.3 5.05 39.2 5.25 Q38.85 5.9 38.25 6.2 38.0 6.3 37.8 6.3 L38.05 7.95 Q36.95 7.7 35.95 8.2 35.15 8.55 34.9 9.3 34.85 9.5 34.95 9.65 35.9 11.1 35.85 12.85 35.8 13.9 34.85 14.15 34.25 14.35 33.65 14.25 30.8 14.1 29.45 16.6 30.1 16.15 30.9 16.3 31.0 16.3 31.05 16.4 L28.85 20.2 29.25 21.25 Q29.25 20.85 29.45 20.45 29.9 19.4 31.0 19.2 31.45 19.4 31.85 19.65 32.55 20.2 32.35 21.1 32.05 22.15 31.25 22.9 30.3 23.8 29.6 22.8 29.1 22.8 28.7 23.1 28.45 23.35 28.2 23.6 28.05 23.2 27.65 23.0 26.7 22.5 25.55 22.75 23.3 23.2 22.35 25.3 20.75 28.95 23.0 32.2 22.6 32.0 22.1 31.9 21.35 31.75 20.55 31.9 21.1 32.1 21.6 32.5 22.05 32.85 22.0 33.5 22.0 34.35 21.45 35.05 20.2 36.7 18.15 36.2 18.05 36.15 17.95 36.05 16.85 34.95 17.7 33.55 L17.5 33.85 Q16.85 34.9 16.8 36.15 15.55 34.95 13.95 34.6 L13.2 34.45 13.25 34.4 13.35 33.7 12.95 33.45 Q12.8 33.55 12.7 33.75 12.65 33.95 12.65 34.15 L12.65 34.25 12.75 34.4 12.85 34.45 12.15 34.5 Q10.35 34.65 9.3 36.15 L10.55 35.3 Q11.65 35.4 12.6 35.9 13.0 36.15 13.25 36.55 14.35 38.4 13.25 40.4 12.8 41.25 11.9 41.5 9.6 42.25 8.25 40.25 L8.8 42.35 M4.6 29.8 Q4.9 28.3 5.8 27.0 L5.85 26.95 Q5.25 27.85 5.0 28.9 4.9 29.45 4.9 30.0 4.8 29.85 4.7 29.8 4.65 29.75 4.6 29.8 M41.35 2.6 L41.7 2.85 41.2 3.45 41.0 3.45 Q41.0 3.5 41.0 3.6 41.0 3.75 40.85 3.8 40.2 4.2 39.5 3.95 L39.5 3.9 Q39.4 3.05 40.2 2.7 L40.8 3.15 Q40.8 2.9 40.95 2.75 41.1 2.6 41.35 2.6 M35.0 4.25 L35.25 4.25 34.6 3.65 33.8 3.95 Q33.15 4.15 32.75 4.7 32.2 5.35 32.3 6.2 32.35 6.75 32.5 7.3 32.8 8.3 33.7 8.15 33.5 7.9 33.45 7.65 33.2 5.5 35.0 4.25 M42.0 10.0 L41.5 9.35 Q40.65 10.05 40.7 11.15 40.7 11.3 40.75 11.4 41.6 12.35 42.8 11.95 L42.8 11.85 Q42.95 11.2 42.55 10.9 L41.15 11.2 41.05 11.05 Q40.8 10.2 41.6 9.8 L42.0 10.0 M41.3 13.7 Q40.05 14.35 40.55 15.65 L40.75 15.95 Q41.85 16.1 42.0 14.95 42.1 14.4 41.9 13.9 L41.3 13.7 M31.5 5.1 L31.9 4.55 31.45 4.4 30.8 4.8 30.75 5.2 30.75 5.3 30.65 6.05 Q30.5 6.8 31.1 7.2 L31.3 5.45 31.5 5.1 M26.0 6.6 L26.05 6.6 26.0 6.6 M28.45 13.65 Q28.3 13.8 28.3 14.05 28.3 14.25 28.45 14.45 28.55 14.6 28.75 14.6 28.95 14.6 29.05 14.45 29.2 14.25 29.2 14.05 29.2 13.8 29.05 13.65 28.95 13.45 28.75 13.45 28.55 13.45 28.45 13.65 M31.4 12.3 Q31.55 12.05 31.45 11.75 31.25 11.05 30.8 10.5 29.05 11.0 29.05 12.8 29.05 13.3 29.35 13.75 30.85 13.7 31.4 12.3 M23.55 19.75 Q22.3 20.0 22.0 21.25 21.9 21.7 22.0 22.15 21.65 22.3 21.15 22.0 L21.05 21.9 20.95 21.75 Q21.4 19.9 23.2 19.25 23.5 19.15 23.7 18.9 24.1 18.3 23.9 17.6 L22.15 17.15 Q19.35 17.95 19.15 20.8 19.0 22.3 20.4 22.7 20.9 22.85 21.4 22.85 L21.6 22.55 23.25 22.45 22.75 22.35 Q23.85 22.0 24.35 21.05 24.55 20.65 24.3 20.3 23.95 19.95 23.55 19.75 M25.65 20.45 L25.7 20.4 Q25.75 20.25 25.7 20.15 25.3 19.15 26.2 18.65 L26.7 18.7 26.85 18.7 27.15 19.1 Q27.15 18.15 26.2 17.8 25.2 18.2 25.1 19.3 25.05 20.15 25.65 20.45 M28.2 18.15 Q28.1 17.95 27.9 17.95 27.7 17.95 27.55 18.15 27.45 18.3 27.45 18.5 27.45 18.75 27.55 18.9 27.7 19.05 27.9 19.05 28.1 19.05 28.2 18.9 28.35 18.75 28.35 18.5 28.35 18.3 28.2 18.15 M27.5 25.95 Q27.85 26.9 27.5 27.8 26.85 29.35 25.4 29.0 25.05 26.85 27.05 25.7 L27.35 25.8 Q27.45 25.85 27.5 25.95 M25.0 23.05 Q25.35 23.1 25.6 23.25 26.1 23.45 26.35 23.85 26.75 24.6 26.3 25.3 25.2 27.0 24.3 28.85 24.2 29.05 24.05 29.2 23.9 29.3 23.8 29.25 22.6 28.95 22.15 27.6 21.95 27.05 22.05 26.45 22.55 23.9 25.0 23.05 M28.3 24.6 Q28.4 24.4 28.65 24.4 28.85 24.4 29.0 24.6 29.15 24.75 29.15 25.05 29.15 25.3 29.0 25.5 28.85 25.7 28.65 25.7 28.4 25.7 28.3 25.5 28.15 25.3 28.15 25.05 28.15 24.75 28.3 24.6 M38.4 16.4 L38.05 16.35 Q36.75 17.15 37.05 18.7 L37.15 18.95 Q37.15 18.5 37.45 18.1 37.7 17.8 38.0 17.65 38.55 17.6 38.75 18.15 38.85 18.4 38.8 18.65 39.25 17.45 38.55 16.4 L38.4 16.4 M44.1 27.95 L44.05 27.9 Q43.6 27.3 42.95 27.0 41.65 27.45 41.45 28.7 41.45 28.9 41.5 29.1 41.85 30.15 42.85 30.4 43.0 30.4 43.15 30.3 44.15 29.7 44.2 28.7 L44.25 29.05 44.9 28.75 Q45.25 28.1 44.95 27.35 L44.95 27.3 44.5 26.8 43.95 27.15 44.1 27.95 M34.7 27.35 L35.0 27.5 Q35.7 27.8 35.9 28.45 L35.9 28.6 Q35.45 29.2 34.65 29.35 L34.45 29.35 34.35 29.3 Q33.65 28.2 34.7 27.35 M14.3 18.5 Q14.45 17.65 15.05 17.05 L15.2 16.9 14.9 18.65 Q14.9 18.5 14.8 18.4 14.7 18.3 14.55 18.3 14.4 18.3 14.3 18.45 L14.3 18.5 M15.3 20.6 L15.85 21.9 Q14.8 21.65 14.35 20.65 L14.2 20.25 Q14.3 20.4 14.5 20.45 14.8 20.6 15.3 20.6 M19.45 22.85 L18.6 20.55 Q18.1 20.8 18.05 21.4 L18.0 21.55 Q17.95 22.55 18.75 22.9 18.95 23.0 19.15 22.95 L19.45 22.85 M18.45 28.6 Q18.35 27.65 17.6 27.15 14.3 28.05 13.5 31.35 13.4 31.8 13.6 32.2 14.15 33.35 15.4 33.5 15.55 33.4 15.65 33.25 16.05 32.35 16.1 31.4 16.15 31.0 16.4 30.75 17.0 30.15 17.75 29.7 L17.95 30.9 Q18.35 31.1 18.7 30.8 L19.35 30.15 19.25 28.4 18.8 28.3 18.45 28.6 M12.3 30.85 L11.9 30.8 Q10.3 31.85 10.5 33.75 10.5 34.0 10.7 34.15 11.25 34.5 11.9 34.45 12.75 33.2 12.7 31.7 L12.3 32.8 11.5 32.85 Q11.3 32.1 11.7 31.55 11.85 31.3 12.15 31.2 L12.6 31.35 12.3 30.85 M15.1 33.05 Q15.1 33.0 15.2 32.9 L15.1 33.05 M18.6 37.8 Q18.6 37.65 18.75 37.55 18.85 37.4 19.05 37.4 19.2 37.4 19.35 37.55 19.45 37.65 19.45 37.8 19.45 38.0 19.35 38.1 19.2 38.2 19.05 38.2 18.85 38.2 18.75 38.1 18.6 38.0 18.6 37.8 M16.8 39.35 Q16.6 39.25 16.55 39.1 15.9 37.55 17.5 36.9 17.8 36.95 18.05 37.1 18.25 37.15 18.35 37.35 18.8 38.3 18.0 39.15 17.5 39.7 16.8 39.35 M4.9 39.35 L4.95 39.05 Q5.25 37.8 6.35 37.05 L5.8 36.65 Q5.4 36.8 5.1 37.05 4.05 37.9 4.35 39.2 L4.9 39.35 M0.45 37.15 Q0.55 37.3 0.55 37.5 0.55 37.65 0.45 37.8 0.35 37.9 0.25 37.9 0.15 37.9 0.1 37.8 0.0 37.65 0.0 37.5 0.0 37.3 0.1 37.15 0.15 37.05 0.25 37.05 0.35 37.05 0.45 37.15 M6.85 37.9 L6.45 37.8 Q5.65 38.2 5.9 39.1 L5.95 39.25 Q6.75 39.15 6.85 38.35 L6.85 37.9 M7.75 36.1 L7.85 35.9 7.4 35.95 7.75 36.1 M42.35 32.8 Q43.4 34.15 42.55 35.7 L42.35 36.05 43.25 35.4 Q44.3 34.35 43.9 33.05 43.8 32.8 43.55 32.6 43.35 32.4 43.15 32.3 L42.35 32.8 M35.3 32.4 Q35.45 32.4 35.55 32.5 36.15 33.0 35.6 33.7 L34.95 34.3 34.75 34.2 Q34.6 34.15 34.55 34.0 34.1 32.9 35.3 32.4 M44.9 38.1 Q44.8 38.25 45.25 38.4 45.45 38.5 45.6 38.65 46.1 39.25 46.1 40.05 46.6 39.0 45.9 38.25 45.65 37.95 45.3 37.9 L44.9 38.1 M29.45 34.2 L29.3 34.5 Q28.9 35.25 28.35 34.75 27.35 33.95 28.25 33.2 L29.1 33.55 29.45 34.2 M32.5 40.75 Q32.0 41.95 30.8 41.7 L30.85 40.2 31.8 39.05 Q33.0 39.55 32.5 40.75 M24.05 33.1 Q24.35 33.1 24.6 33.35 24.8 33.6 24.8 33.95 24.8 34.3 24.6 34.55 24.35 34.75 24.05 34.75 23.75 34.75 23.55 34.55 23.3 34.3 23.3 33.95 23.3 33.6 23.55 33.35 23.75 33.1 24.05 33.1 M25.2 33.3 Q25.0 33.3 24.85 33.15 24.7 33.0 24.7 32.8 24.7 32.6 24.85 32.45 25.0 32.3 25.2 32.3 25.4 32.3 25.55 32.45 25.7 32.6 25.7 32.8 25.7 33.0 25.55 33.15 25.4 33.3 25.2 33.3" fill="#ff6e00" fill-rule="evenodd" stroke="none"/>
    <path d="M44.35 43.1 Q41.9 43.7 39.45 43.3 37.7 43.0 36.05 42.6 35.45 42.45 34.85 42.45 32.55 42.45 30.25 42.4 L28.75 42.35 Q30.3 40.85 30.3 38.55 30.3 36.25 28.2 35.25 27.25 34.85 26.2 34.8 25.5 34.9 24.95 35.4 23.0 36.9 23.45 39.35 23.75 41.2 25.35 42.15 L22.0 41.8 Q22.85 40.2 21.4 39.15 L21.2 39.0 Q19.55 39.6 19.35 41.3 19.3 41.75 19.55 42.05 L14.9 42.3 Q12.25 42.45 9.55 42.35 L8.8 42.35 8.25 40.25 Q9.6 42.25 11.9 41.5 12.8 41.25 13.25 40.4 14.35 38.4 13.25 36.55 13.0 36.15 12.6 35.9 11.65 35.4 10.55 35.3 L9.3 36.15 Q10.35 34.65 12.15 34.5 L12.85 34.45 12.75 34.4 12.65 34.25 12.65 34.15 Q12.65 33.95 12.7 33.75 12.8 33.55 12.95 33.45 L13.35 33.7 13.25 34.4 13.2 34.45 13.95 34.6 Q15.55 34.95 16.8 36.15 16.85 34.9 17.5 33.85 L17.7 33.55 Q16.85 34.95 17.95 36.05 18.05 36.15 18.15 36.2 20.2 36.7 21.45 35.05 22.0 34.35 22.0 33.5 22.05 32.85 21.6 32.5 21.1 32.1 20.55 31.9 21.35 31.75 22.1 31.9 22.6 32.0 23.0 32.2 20.75 28.95 22.35 25.3 23.3 23.2 25.55 22.75 26.7 22.5 27.65 23.0 28.05 23.2 28.2 23.6 28.45 23.35 28.7 23.1 29.1 22.8 29.6 22.8 30.3 23.8 31.25 22.9 32.05 22.15 32.35 21.1 32.55 20.2 31.85 19.65 31.45 19.4 31.0 19.2 29.9 19.4 29.45 20.45 29.25 20.85 29.25 21.25 L28.85 20.2 31.05 16.4 Q31.0 16.3 30.9 16.3 30.1 16.15 29.45 16.6 30.8 14.1 33.65 14.25 34.25 14.35 34.85 14.15 35.8 13.9 35.85 12.85 35.9 11.1 34.95 9.65 34.85 9.5 34.9 9.3 35.15 8.55 35.95 8.2 36.95 7.7 38.05 7.95 L37.8 6.3 Q38.0 6.3 38.25 6.2 38.85 5.9 39.2 5.25 L39.3 5.05 39.2 4.85 Q39.05 4.65 38.8 4.6 38.5 4.4 38.15 4.35 L37.4 4.6 37.3 3.85 38.0 3.7 Q37.7 1.75 39.1 0.5 L39.4 0.3 Q39.0 1.35 39.2 2.45 39.75 1.2 41.05 0.6 L40.35 0.05 Q41.3 -0.15 42.15 0.5 42.65 0.9 42.65 1.5 L43.0 1.25 Q44.15 1.2 44.45 2.25 44.55 2.5 44.5 2.8 44.3 4.25 42.7 4.25 L42.5 4.1 42.75 5.05 41.4 4.75 Q41.4 5.6 40.85 6.2 40.6 6.45 40.25 6.45 L40.25 6.25 39.15 7.45 Q40.1 8.05 39.85 9.1 39.75 9.55 39.4 9.9 39.15 9.25 38.4 9.15 L37.65 8.95 Q36.6 9.45 36.8 10.55 36.85 10.8 37.0 11.05 38.2 12.9 38.8 14.95 38.8 15.0 38.75 15.1 38.35 15.55 37.75 15.65 L38.1 15.0 Q38.0 14.7 37.7 14.55 37.25 14.3 36.7 14.2 35.5 14.85 36.05 16.15 36.25 16.5 36.65 16.4 L36.85 16.3 Q37.1 16.3 36.8 16.8 36.5 17.35 35.85 17.05 35.1 16.7 34.3 16.7 34.05 16.75 33.8 16.9 35.4 16.95 35.75 18.4 35.95 19.1 35.7 19.75 35.25 21.3 33.95 22.35 33.7 22.55 33.55 22.8 32.65 24.5 32.7 26.35 32.7 26.5 32.75 26.6 34.95 25.4 37.35 25.85 37.55 25.9 37.7 26.1 37.9 26.3 38.0 26.6 L37.1 26.05 Q35.95 26.25 35.7 27.25 35.6 27.55 35.75 27.8 36.2 28.75 37.2 28.85 37.5 28.7 37.75 28.55 38.1 28.25 38.35 27.9 L38.2 29.75 40.35 30.15 40.05 30.15 Q39.5 30.4 39.75 31.0 L38.15 30.8 37.85 31.05 Q37.8 32.4 38.6 33.6 L37.3 33.05 Q35.95 33.35 35.6 34.65 35.55 34.9 35.6 35.1 35.7 36.5 36.9 36.85 L37.15 36.85 Q38.75 36.2 39.25 34.65 L40.1 36.75 41.05 36.8 Q43.95 38.25 44.4 41.45 44.5 42.25 44.35 43.1 M4.7 32.95 L4.55 32.1 5.1 32.3 5.3 32.15 5.15 31.4 4.95 31.35 4.55 31.65 4.6 29.8 Q4.65 29.75 4.7 29.8 4.8 29.85 4.9 30.0 4.95 31.15 5.45 32.15 L5.6 32.45 5.3 33.45 4.7 32.95 M12.1 23.95 L13.0 24.2 Q12.95 24.55 12.8 24.7 12.6 24.85 12.45 24.8 12.25 24.7 12.2 24.45 12.1 24.15 12.1 23.95 M41.65 17.3 L41.85 18.0 Q41.85 18.8 41.1 18.8 40.9 18.55 40.8 18.3 40.75 18.1 40.75 17.95 L40.7 17.85 Q40.7 17.25 41.4 17.15 L41.65 17.3 M43.45 1.3 Q42.25 1.75 42.75 3.0 42.9 3.2 43.15 3.15 43.9 3.1 44.4 2.55 L44.45 2.45 Q44.25 1.7 43.45 1.3 M40.2 2.7 Q39.4 3.05 39.5 3.9 L39.5 3.95 Q40.2 4.2 40.85 3.8 41.0 3.75 41.0 3.6 41.0 3.5 41.0 3.45 L41.2 3.45 41.7 2.85 41.35 2.6 41.0 2.4 Q41.05 2.35 41.45 2.2 41.75 2.1 41.95 1.85 42.6 0.85 41.5 0.7 40.65 0.55 40.25 1.3 39.95 2.0 40.2 2.7 M41.1 30.85 L41.55 32.65 40.3 31.3 41.05 31.2 41.1 30.85 M38.2 3.35 Q38.2 3.65 38.35 3.85 38.5 4.05 38.7 4.05 38.95 4.05 39.1 3.85 39.25 3.65 39.25 3.35 39.25 3.05 39.1 2.85 38.95 2.65 38.7 2.65 38.5 2.65 38.35 2.85 38.2 3.05 38.2 3.35 M36.35 9.75 Q36.55 9.55 36.65 9.3 L36.4 8.95 35.9 8.75 Q35.1 9.1 35.4 9.95 35.9 10.25 36.35 9.75 M42.0 10.0 L41.6 9.8 Q40.8 10.2 41.05 11.05 L41.15 11.2 42.55 10.9 Q42.95 11.2 42.8 11.85 L42.8 11.95 Q41.6 12.35 40.75 11.4 40.7 11.3 40.7 11.15 40.65 10.05 41.5 9.35 L42.0 10.0 M42.15 11.3 Q42.05 11.4 42.05 11.55 42.05 11.7 42.15 11.8 42.25 11.9 42.4 11.9 42.55 11.9 42.65 11.8 42.75 11.7 42.75 11.55 42.75 11.4 42.65 11.3 42.55 11.2 42.4 11.2 42.25 11.2 42.15 11.3 M30.75 5.2 L30.8 4.8 31.45 4.4 31.9 4.55 31.5 5.1 31.25 4.85 30.75 5.2 M31.3 5.45 L31.1 7.2 Q30.5 6.8 30.65 6.05 L30.75 5.3 31.0 5.6 31.3 5.45 M26.0 6.6 L25.7 6.5 Q25.6 6.35 25.6 6.2 25.5 5.4 26.2 5.3 L26.05 6.6 26.0 6.6 M26.3 10.5 L26.75 10.45 Q27.0 10.35 27.0 10.25 27.05 10.15 26.85 10.05 26.65 9.95 26.35 9.95 26.45 9.1 27.15 8.65 L27.35 8.55 Q26.65 9.95 27.4 11.4 26.6 11.5 26.35 10.7 L26.3 10.5 M23.85 13.15 L24.4 13.35 23.7 14.4 23.4 14.5 Q23.2 14.05 23.4 13.55 23.55 13.3 23.85 13.15 M28.45 13.65 Q28.55 13.45 28.75 13.45 28.95 13.45 29.05 13.65 29.2 13.8 29.2 14.05 29.2 14.25 29.05 14.45 28.95 14.6 28.75 14.6 28.55 14.6 28.45 14.45 28.3 14.25 28.3 14.05 28.3 13.8 28.45 13.65 M32.2 14.55 Q31.25 14.75 30.85 15.55 31.05 16.35 31.9 16.0 32.75 15.65 32.7 14.7 L32.4 14.55 32.2 14.55 M34.35 18.5 Q34.1 18.1 33.7 17.9 33.4 17.8 33.15 18.2 32.75 18.95 33.2 19.6 34.15 19.55 34.4 18.7 34.4 18.6 34.35 18.5 M32.55 19.5 Q32.45 19.5 32.4 19.55 32.3 19.65 32.3 19.75 32.3 19.85 32.4 19.95 32.45 20.0 32.55 20.0 32.7 20.0 32.75 19.95 32.85 19.85 32.85 19.75 32.85 19.65 32.75 19.55 32.7 19.5 32.55 19.5 M25.65 20.45 Q25.05 20.15 25.1 19.3 25.2 18.2 26.2 17.8 27.15 18.15 27.15 19.1 L26.85 18.7 26.7 18.7 26.2 18.65 Q25.3 19.15 25.7 20.15 25.75 20.25 25.7 20.4 L25.65 20.45 M28.2 18.15 Q28.35 18.3 28.35 18.5 28.35 18.75 28.2 18.9 28.1 19.05 27.9 19.05 27.7 19.05 27.55 18.9 27.45 18.75 27.45 18.5 27.45 18.3 27.55 18.15 27.7 17.95 27.9 17.95 28.1 17.95 28.2 18.15 M28.3 24.6 Q28.15 24.75 28.15 25.05 28.15 25.3 28.3 25.5 28.4 25.7 28.65 25.7 28.85 25.7 29.0 25.5 29.15 25.3 29.15 25.05 29.15 24.75 29.0 24.6 28.85 24.4 28.65 24.4 28.4 24.4 28.3 24.6 M25.0 23.05 Q22.55 23.9 22.05 26.45 21.95 27.05 22.15 27.6 22.6 28.95 23.8 29.25 23.9 29.3 24.05 29.2 24.2 29.05 24.3 28.85 25.2 27.0 26.3 25.3 26.75 24.6 26.35 23.85 26.1 23.45 25.6 23.25 25.35 23.1 25.0 23.05 M27.5 25.95 Q27.45 25.85 27.35 25.8 L27.05 25.7 Q25.05 26.85 25.4 29.0 26.85 29.35 27.5 27.8 27.85 26.9 27.5 25.95 M29.15 27.0 L29.0 27.55 Q30.0 28.65 30.25 30.15 30.3 30.5 30.5 30.75 30.8 31.15 31.2 31.3 31.8 31.15 32.0 30.55 L32.25 29.75 Q32.9 27.6 30.95 26.5 L30.15 26.1 29.15 27.0 M41.75 18.0 Q41.75 17.85 41.65 17.75 41.55 17.65 41.4 17.65 41.3 17.65 41.2 17.75 41.1 17.85 41.1 18.0 41.1 18.15 41.2 18.25 41.3 18.35 41.4 18.35 41.55 18.35 41.65 18.25 41.75 18.15 41.75 18.0 M38.4 16.4 L38.55 16.4 Q39.25 17.45 38.8 18.65 38.85 18.4 38.75 18.15 38.55 17.6 38.0 17.65 37.7 17.8 37.45 18.1 37.15 18.5 37.15 18.95 L37.05 18.7 Q36.75 17.15 38.05 16.35 L38.4 16.4 M35.15 18.55 Q34.0 19.4 34.55 20.75 35.0 20.7 35.3 20.3 L35.45 20.05 Q35.95 19.3 35.35 18.7 L35.15 18.55 M44.1 27.95 L43.95 27.15 44.5 26.8 44.95 27.3 Q44.7 27.25 44.6 27.5 44.1 28.35 44.9 28.75 L44.25 29.05 44.2 28.7 44.2 28.3 Q44.2 28.1 44.1 27.95 M34.7 27.35 Q33.65 28.2 34.35 29.3 L34.45 29.35 34.65 29.35 Q35.45 29.2 35.9 28.6 L35.9 28.45 Q35.7 27.8 35.0 27.5 L34.7 27.35 M14.9 18.65 L15.1 19.85 15.3 20.6 Q14.8 20.6 14.5 20.45 14.3 20.4 14.2 20.25 14.15 20.2 14.15 20.1 14.4 20.1 14.65 20.0 14.85 19.9 14.85 19.75 14.85 19.6 14.65 19.5 14.5 19.4 14.2 19.4 L14.25 18.7 14.3 18.5 14.3 18.45 Q14.4 18.3 14.55 18.3 14.7 18.3 14.8 18.4 14.9 18.5 14.9 18.65 M19.0 21.9 Q19.0 21.75 18.85 21.6 18.75 21.5 18.55 21.5 18.4 21.5 18.25 21.6 18.15 21.75 18.15 21.9 18.15 22.1 18.25 22.2 18.4 22.35 18.55 22.35 18.75 22.35 18.85 22.2 19.0 22.1 19.0 21.9 M19.45 22.85 L19.15 22.95 Q18.95 23.0 18.75 22.9 17.95 22.55 18.0 21.55 L18.05 21.4 Q18.1 20.8 18.6 20.55 L19.45 22.85 M22.5 30.25 Q22.5 30.6 22.7 30.85 22.9 31.15 23.2 31.15 23.5 31.15 23.7 30.85 23.9 30.6 23.9 30.25 23.9 29.85 23.7 29.6 23.5 29.35 23.2 29.35 22.9 29.35 22.7 29.6 22.5 29.85 22.5 30.25 M12.3 30.85 L12.6 31.35 12.15 31.2 Q11.85 31.3 11.7 31.55 11.3 32.1 11.5 32.85 L12.3 32.8 12.7 31.7 Q12.75 33.2 11.9 34.45 11.25 34.5 10.7 34.15 10.5 34.0 10.5 33.75 10.3 31.85 11.9 30.8 L12.3 30.85 M13.3 35.35 L13.25 35.5 Q13.6 36.5 14.75 36.5 15.15 36.5 15.55 36.3 15.9 35.4 14.8 35.1 13.95 34.8 13.3 35.35 M16.8 39.35 Q17.5 39.7 18.0 39.15 18.8 38.3 18.35 37.35 18.25 37.15 18.05 37.1 17.8 36.95 17.5 36.9 15.9 37.55 16.55 39.1 16.6 39.25 16.8 39.35 M18.6 37.8 Q18.6 38.0 18.75 38.1 18.85 38.2 19.05 38.2 19.2 38.2 19.35 38.1 19.45 38.0 19.45 37.8 19.45 37.65 19.35 37.55 19.2 37.4 19.05 37.4 18.85 37.4 18.75 37.55 18.6 37.65 18.6 37.8 M10.7 33.85 Q10.85 34.0 11.05 34.0 11.25 34.0 11.45 33.85 11.6 33.7 11.6 33.5 11.6 33.25 11.45 33.1 11.25 32.95 11.05 32.95 10.85 32.95 10.7 33.1 10.55 33.25 10.55 33.5 10.55 33.7 10.7 33.85 M35.3 32.4 Q34.1 32.9 34.55 34.0 34.6 34.15 34.75 34.2 L34.95 34.3 35.6 33.7 Q36.15 33.0 35.55 32.5 35.45 32.4 35.3 32.4 M29.4 29.35 Q29.4 28.95 29.2 28.6 29.0 28.3 28.7 28.3 28.4 28.3 28.2 28.6 28.0 28.95 28.0 29.35 28.0 29.8 28.2 30.1 28.4 30.4 28.7 30.4 29.0 30.4 29.2 30.1 29.4 29.8 29.4 29.35 M29.45 34.2 L29.1 33.55 28.25 33.2 Q27.35 33.95 28.35 34.75 28.9 35.25 29.3 34.5 L29.45 34.2 M31.8 34.35 Q31.8 34.15 31.7 34.0 31.55 33.85 31.4 33.85 31.25 33.85 31.15 34.0 31.0 34.15 31.0 34.35 31.0 34.55 31.15 34.7 31.25 34.85 31.4 34.85 31.55 34.85 31.7 34.7 31.8 34.55 31.8 34.35 M32.4 35.35 Q31.0 36.0 31.85 37.3 31.95 37.45 32.1 37.4 33.35 37.05 34.0 35.9 34.55 34.85 33.55 34.15 L33.0 33.8 Q32.25 34.2 32.4 35.1 L32.4 35.35 M25.2 33.3 Q25.4 33.3 25.55 33.15 25.7 33.0 25.7 32.8 25.7 32.6 25.55 32.45 25.4 32.3 25.2 32.3 25.0 32.3 24.85 32.45 24.7 32.6 24.7 32.8 24.7 33.0 24.85 33.15 25.0 33.3 25.2 33.3 M24.05 33.1 Q23.75 33.1 23.55 33.35 23.3 33.6 23.3 33.95 23.3 34.3 23.55 34.55 23.75 34.75 24.05 34.75 24.35 34.75 24.6 34.55 24.8 34.3 24.8 33.95 24.8 33.6 24.6 33.35 24.35 33.1 24.05 33.1 M32.5 40.75 Q33.0 39.55 31.8 39.05 L30.85 40.2 30.8 41.7 Q32.0 41.95 32.5 40.75" fill="#ffcc00" fill-rule="evenodd" stroke="none"/>
    <path d="M4.55 32.1 L4.55 31.65 4.95 31.35 5.15 31.4 5.3 32.15 5.1 32.3 4.55 32.1 M41.35 2.6 Q41.1 2.6 40.95 2.75 40.8 2.9 40.8 3.15 L40.2 2.7 Q39.95 2.0 40.25 1.3 40.65 0.55 41.5 0.7 42.6 0.85 41.95 1.85 41.75 2.1 41.45 2.2 41.05 2.35 41.0 2.4 L41.35 2.6 M40.35 30.15 L41.1 30.85 41.05 31.2 40.3 31.3 39.75 31.0 Q39.5 30.4 40.05 30.15 L40.35 30.15 M38.2 3.35 Q38.2 3.05 38.35 2.85 38.5 2.65 38.7 2.65 38.95 2.65 39.1 2.85 39.25 3.05 39.25 3.35 39.25 3.65 39.1 3.85 38.95 4.05 38.7 4.05 38.5 4.05 38.35 3.85 38.2 3.65 38.2 3.35 M36.35 9.75 Q35.9 10.25 35.4 9.95 35.1 9.1 35.9 8.75 L36.4 8.95 36.65 9.3 Q36.55 9.55 36.35 9.75 M42.15 11.3 Q42.25 11.2 42.4 11.2 42.55 11.2 42.65 11.3 42.75 11.4 42.75 11.55 42.75 11.7 42.65 11.8 42.55 11.9 42.4 11.9 42.25 11.9 42.15 11.8 42.05 11.7 42.05 11.55 42.05 11.4 42.15 11.3 M31.5 5.1 L31.3 5.45 31.0 5.6 30.75 5.3 30.75 5.2 31.25 4.85 31.5 5.1 M26.3 10.5 L26.35 9.95 Q26.65 9.95 26.85 10.05 27.05 10.15 27.0 10.25 27.0 10.35 26.75 10.45 L26.3 10.5 M32.2 14.55 L32.4 14.55 32.7 14.7 Q32.75 15.65 31.9 16.0 31.05 16.35 30.85 15.55 31.25 14.75 32.2 14.55 M41.75 18.0 Q41.75 18.15 41.65 18.25 41.55 18.35 41.4 18.35 41.3 18.35 41.2 18.25 41.1 18.15 41.1 18.0 41.1 17.85 41.2 17.75 41.3 17.65 41.4 17.65 41.55 17.65 41.65 17.75 41.75 17.85 41.75 18.0 M35.15 18.55 L35.35 18.7 Q35.95 19.3 35.45 20.05 L35.3 20.3 Q35.0 20.7 34.55 20.75 34.0 19.4 35.15 18.55 M44.95 27.3 L44.95 27.35 Q45.25 28.1 44.9 28.75 44.1 28.35 44.6 27.5 44.7 27.25 44.95 27.3 M14.15 20.1 L14.15 20.0 14.2 19.4 Q14.5 19.4 14.65 19.5 14.85 19.6 14.85 19.75 14.85 19.9 14.65 20.0 14.4 20.1 14.15 20.1 M19.0 21.9 Q19.0 22.1 18.85 22.2 18.75 22.35 18.55 22.35 18.4 22.35 18.25 22.2 18.15 22.1 18.15 21.9 18.15 21.75 18.25 21.6 18.4 21.5 18.55 21.5 18.75 21.5 18.85 21.6 19.0 21.75 19.0 21.9 M22.5 30.25 Q22.5 29.85 22.7 29.6 22.9 29.35 23.2 29.35 23.5 29.35 23.7 29.6 23.9 29.85 23.9 30.25 23.9 30.6 23.7 30.85 23.5 31.15 23.2 31.15 22.9 31.15 22.7 30.85 22.5 30.6 22.5 30.25 M13.3 35.35 Q13.95 34.8 14.8 35.1 15.9 35.4 15.55 36.3 15.15 36.5 14.75 36.5 13.6 36.5 13.25 35.5 L13.3 35.35 M10.7 33.85 Q10.55 33.7 10.55 33.5 10.55 33.25 10.7 33.1 10.85 32.95 11.05 32.95 11.25 32.95 11.45 33.1 11.6 33.25 11.6 33.5 11.6 33.7 11.45 33.85 11.25 34.0 11.05 34.0 10.85 34.0 10.7 33.85 M32.4 35.35 L32.4 35.1 Q32.25 34.2 33.0 33.8 L33.55 34.15 Q34.55 34.85 34.0 35.9 33.35 37.05 32.1 37.4 31.95 37.45 31.85 37.3 31.0 36.0 32.4 35.35 M31.8 34.35 Q31.8 34.55 31.7 34.7 31.55 34.85 31.4 34.85 31.25 34.85 31.15 34.7 31.0 34.55 31.0 34.35 31.0 34.15 31.15 34.0 31.25 33.85 31.4 33.85 31.55 33.85 31.7 34.0 31.8 34.15 31.8 34.35" fill="#ffefb2" fill-rule="evenodd" stroke="none"/>
  </g>
</svg>
