<?xml version="1.0" encoding="UTF-8" standalone="no"?>
<svg xmlns:ffdec="https://www.free-decompiler.com/flash" xmlns:xlink="http://www.w3.org/1999/xlink" ffdec:objectType="shape" height="42.8px" width="38.25px" xmlns="http://www.w3.org/2000/svg">
  <g transform="matrix(1.0, 0.0, 0.0, 1.0, 0.0, 0.0)">
    <path d="M35.1 0.9 L35.1 0.95 Q34.9 1.25 34.45 1.35 34.05 1.4 34.0 1.85 33.95 2.05 33.95 2.25 34.3 2.4 34.5 2.25 L34.65 2.1 Q34.85 2.0 35.0 2.1 L35.0 2.15 Q34.65 2.7 34.25 2.6 L34.2 2.75 34.1 2.95 Q34.05 3.1 33.9 3.3 33.8 3.45 33.75 3.6 32.75 4.45 32.5 5.8 L32.45 6.15 32.5 6.8 32.55 6.85 32.3 7.05 Q30.8 8.2 29.0 8.3 29.0 8.6 28.8 8.95 28.55 9.45 28.45 9.95 30.55 12.7 27.65 14.8 26.25 15.85 24.55 15.35 24.25 15.6 24.15 16.05 23.7 17.85 24.2 19.7 24.3 20.05 23.9 20.0 L22.75 19.95 Q23.9 18.55 22.05 16.95 18.95 18.2 20.15 19.95 19.95 20.1 19.9 20.5 19.55 24.1 22.7 22.85 23.35 22.6 23.95 22.15 26.15 20.4 27.1 23.0 27.65 24.35 27.05 25.7 25.9 28.25 22.85 27.5 22.1 27.35 22.2 28.1 22.6 31.3 25.5 29.15 L25.65 29.0 Q25.95 29.15 26.15 29.35 L27.2 30.35 Q28.0 30.05 27.95 29.15 L27.95 28.9 Q28.2 29.4 28.2 30.4 28.2 32.8 26.1 33.9 L25.75 34.05 25.8 34.0 Q27.85 31.8 25.55 30.85 21.95 31.65 24.1 33.9 L24.15 34.0 24.05 33.95 Q22.5 33.2 21.5 33.35 21.65 33.05 21.75 32.75 22.25 30.8 19.55 30.85 17.75 31.3 17.9 33.05 18.15 35.25 20.0 34.6 19.8 35.1 19.7 35.8 19.2 40.0 23.4 39.1 24.95 38.75 25.3 37.3 26.3 33.55 29.7 32.4 30.65 32.1 31.55 32.65 31.7 32.8 31.85 32.9 L31.5 32.9 Q31.0 32.9 31.1 33.35 31.2 33.55 31.45 33.65 L31.4 33.75 Q31.35 33.9 31.45 34.1 L31.5 34.25 31.6 34.35 31.8 34.3 Q32.25 34.05 32.35 33.6 L32.35 33.55 32.55 33.95 32.55 34.35 32.5 34.45 32.5 34.6 31.9 36.3 31.6 36.8 Q31.4 37.15 31.15 37.45 31.4 37.55 31.7 37.35 31.95 37.25 32.2 36.95 L32.25 36.9 32.55 36.5 32.65 36.4 Q32.35 39.35 31.55 42.2 L30.85 42.15 Q21.45 41.7 12.25 42.1 12.75 41.85 13.3 41.6 L11.1 41.65 Q7.0 42.1 2.8 42.0 L0.65 41.95 0.65 39.65 0.75 39.65 Q1.05 39.6 1.1 39.15 1.3 34.85 5.45 36.15 4.45 31.5 9.05 31.8 9.95 31.9 10.6 32.55 13.0 35.0 12.85 31.4 12.75 29.3 10.2 29.2 9.85 29.2 9.65 28.8 7.5 24.7 11.2 22.2 10.9 22.6 10.75 23.0 10.8 23.3 11.15 23.4 11.3 23.45 11.5 23.35 11.85 22.9 12.25 22.55 12.8 21.95 12.2 21.7 12.75 21.55 13.35 21.7 14.6 21.95 15.6 22.5 16.25 22.1 16.55 21.55 16.9 20.95 16.9 20.35 L16.0 20.65 Q15.45 20.85 15.2 20.6 L14.95 20.55 Q14.0 19.4 14.7 18.1 15.15 17.35 15.9 16.7 13.65 15.1 13.3 13.15 13.65 14.15 14.85 14.8 15.5 15.15 15.6 14.4 16.15 11.65 17.1 8.85 16.95 8.55 16.75 8.4 16.4 8.15 16.0 8.25 14.95 8.65 14.3 9.35 14.6 8.9 14.9 8.45 16.3 6.7 18.5 6.15 20.85 5.55 22.35 7.4 22.85 7.95 22.8 8.7 L22.8 8.9 Q22.35 8.7 21.6 8.6 20.0 9.3 20.35 10.95 20.7 12.8 21.9 12.05 L22.0 11.55 Q22.1 10.9 22.75 11.0 23.05 11.4 22.75 11.9 22.45 12.3 22.65 12.8 L23.05 12.95 23.2 13.0 Q24.0 12.6 23.7 11.75 23.5 10.95 24.1 10.7 24.45 10.65 24.7 10.9 L24.9 11.1 24.95 11.1 Q25.4 11.25 25.35 11.75 25.35 12.05 25.4 12.35 26.8 12.5 27.6 11.4 27.95 10.1 28.05 8.7 28.15 7.6 27.85 6.95 L28.0 6.5 27.9 6.05 Q27.8 5.3 27.95 4.75 L28.5 4.9 Q28.6 4.65 28.7 4.45 L28.7 4.4 29.85 3.15 29.95 3.05 30.15 3.0 30.15 2.95 30.2 2.9 30.25 2.9 30.15 3.25 Q29.95 4.3 30.75 4.8 31.1 4.65 31.4 4.35 31.7 4.4 32.0 4.25 L31.65 4.25 Q31.3 4.25 31.35 3.8 31.5 2.75 32.25 2.2 32.1 2.15 31.9 2.1 31.15 2.3 31.0 3.05 30.9 3.55 30.85 4.05 L31.05 4.15 30.95 4.15 Q30.9 4.15 30.85 4.1 30.45 3.05 30.75 1.95 31.1 0.7 32.3 0.4 31.75 0.75 31.7 1.35 31.7 1.55 31.8 1.7 L32.1 1.8 32.45 1.85 Q32.55 1.75 32.65 1.7 33.35 1.45 33.65 0.85 33.8 0.6 33.7 0.35 L33.4 0.25 32.7 0.2 32.55 0.25 32.75 0.1 Q33.15 0.0 33.55 0.0 33.9 0.0 34.2 0.2 34.25 0.4 34.3 0.6 34.35 0.6 34.4 0.55 34.55 0.55 34.65 0.45 34.7 0.45 34.75 0.4 35.0 0.65 35.1 0.9 M32.3 2.65 Q32.35 3.0 32.35 3.4 32.3 3.65 32.35 3.9 32.95 3.9 33.35 3.25 33.95 2.3 33.05 1.95 32.85 2.0 32.6 2.2 32.45 2.4 32.3 2.55 L32.3 2.65 M30.0 5.85 Q29.95 6.05 29.95 6.2 L29.95 6.5 Q29.95 6.65 30.05 6.75 30.45 7.05 30.85 6.95 31.15 6.9 31.35 6.55 31.4 6.45 31.4 6.25 31.4 6.1 31.35 6.0 31.3 5.85 31.55 5.85 31.4 5.75 31.15 5.65 30.95 5.55 30.65 5.5 L30.45 5.55 Q30.35 5.6 30.2 5.7 L30.0 5.85 M25.7 6.3 L25.75 6.0 Q25.75 5.8 25.6 5.7 25.4 5.55 25.2 5.6 24.8 5.7 24.65 6.15 24.5 6.55 24.9 6.75 L25.15 6.8 25.1 6.85 Q25.0 7.2 25.15 7.45 L25.4 7.65 25.3 7.8 Q23.85 7.9 24.15 6.6 24.35 5.7 25.2 5.45 27.9 6.55 26.95 8.75 26.65 9.5 25.8 9.6 24.7 9.75 24.35 8.85 24.35 8.75 24.4 8.65 24.95 9.65 25.9 8.7 27.15 7.4 25.7 6.3 M26.45 5.35 Q26.55 5.25 26.6 5.25 27.3 5.4 26.7 5.65 26.05 5.95 26.45 5.35 M25.65 13.0 L25.7 13.1 26.15 13.15 25.65 13.0 M27.7 12.65 L27.7 12.65 M27.8 13.2 Q27.45 13.3 27.1 13.55 26.65 13.85 26.75 14.4 27.25 14.85 27.8 14.35 28.65 13.55 27.8 13.2 M33.4 14.1 Q32.95 14.4 32.65 13.95 32.65 13.65 32.95 13.45 33.15 13.25 33.4 13.25 34.15 13.55 33.4 14.1 M29.25 20.25 L29.25 20.45 Q28.95 20.8 28.55 21.05 28.0 21.4 27.4 21.05 27.05 20.7 27.3 20.25 27.7 19.6 28.4 19.4 L28.85 19.45 Q29.05 19.5 29.2 19.55 L29.2 19.65 Q29.25 19.8 29.25 19.95 L29.2 19.7 29.05 19.6 28.9 19.55 28.75 19.55 Q28.35 19.65 28.2 20.15 28.05 20.6 28.35 20.95 28.8 20.95 29.1 20.5 L29.25 20.25 M26.25 22.9 L26.65 22.95 Q26.85 22.5 26.55 22.1 26.2 21.65 25.65 21.5 25.35 21.6 25.0 21.85 24.75 22.05 24.8 22.3 24.8 22.5 25.0 22.55 25.45 22.75 25.9 22.55 L26.25 22.9 M24.05 27.05 Q24.45 27.8 25.15 27.3 28.15 25.05 25.65 22.95 22.45 24.25 24.05 27.05 M31.2 22.7 L31.15 22.95 Q30.85 23.9 30.0 24.0 29.85 23.05 30.2 21.9 30.4 21.1 30.9 20.7 31.2 21.1 31.25 21.55 31.1 21.3 30.8 21.2 30.5 21.25 30.35 21.55 30.25 21.8 30.2 22.05 30.3 22.25 30.3 22.5 30.35 22.9 30.8 23.0 31.05 22.9 31.2 22.7 M33.0 25.4 L32.95 25.3 Q32.85 25.2 32.6 25.15 32.3 25.15 32.1 25.4 L32.05 25.5 32.1 25.55 32.1 25.3 Q32.15 24.95 32.45 24.95 32.95 24.95 33.0 25.4 M32.25 25.85 Q32.45 26.0 32.75 25.75 L32.95 25.55 Q32.95 25.8 32.7 25.95 32.4 26.0 32.25 25.85 M16.85 2.75 Q16.9 2.7 16.95 2.65 L17.1 2.55 Q17.3 2.55 17.45 2.65 17.6 2.8 17.55 3.0 17.45 3.25 17.2 3.25 L17.0 3.25 Q16.9 3.05 16.85 2.8 L16.85 2.75 M20.45 3.7 L20.4 3.7 Q20.25 3.5 20.05 3.45 19.75 3.5 19.65 3.8 19.6 3.9 19.6 4.05 19.6 4.2 19.75 4.3 20.05 4.5 20.3 4.35 L20.35 4.2 20.05 4.8 Q19.85 4.95 19.65 4.8 19.45 4.7 19.35 4.5 19.4 4.1 19.5 3.75 19.7 3.35 20.05 3.3 20.4 3.4 20.45 3.7 M18.5 6.4 Q17.95 6.4 17.65 6.9 17.5 7.2 17.6 7.5 L17.65 7.6 Q17.85 7.8 18.15 7.65 19.1 7.15 20.1 7.15 20.3 7.15 20.4 6.95 20.3 6.45 19.7 6.4 L18.5 6.4 M11.15 3.75 Q11.7 3.65 12.05 4.1 12.15 4.25 12.2 4.4 L11.95 4.8 Q11.45 5.35 10.8 4.95 10.6 4.4 10.9 3.95 L11.15 3.75 M23.05 13.95 L22.8 13.8 22.55 13.75 Q22.2 13.85 22.05 14.3 21.95 14.65 22.15 14.9 L22.25 14.95 Q22.8 15.25 23.15 14.85 L23.15 14.35 Q23.1 14.15 23.05 13.95 M17.05 10.55 Q16.45 11.6 16.85 12.65 17.15 13.0 17.65 12.8 18.1 12.6 18.45 12.6 L18.5 12.8 18.65 13.2 18.6 13.2 Q17.45 13.95 17.6 15.4 17.65 16.35 18.35 16.55 L18.55 16.7 18.5 16.55 18.6 16.55 Q18.65 16.45 18.6 16.35 L18.5 16.05 Q18.45 15.6 18.45 15.1 18.55 14.95 18.7 14.8 18.75 15.35 19.3 16.1 19.5 16.35 19.65 16.3 22.6 15.45 20.3 13.25 L20.1 13.3 19.95 13.35 Q19.9 13.2 19.7 13.2 L18.75 13.15 Q18.65 12.8 18.5 12.45 L18.75 12.2 18.3 12.1 Q18.0 11.45 18.1 10.75 18.3 9.5 19.45 9.1 19.2 8.95 18.8 8.85 17.75 9.4 17.05 10.55 M11.45 3.85 Q11.2 3.85 11.1 4.1 11.05 4.25 11.05 4.35 11.25 4.8 11.6 4.5 12.15 4.1 11.45 3.85 M9.3 8.1 Q9.5 8.2 9.6 8.35 9.7 8.55 9.65 8.7 9.15 9.1 9.05 8.4 9.0 8.1 9.3 8.1 M6.7 7.65 Q6.95 7.55 7.25 7.55 7.75 7.5 8.15 7.7 8.6 7.9 8.55 8.35 8.05 8.8 7.15 8.65 6.65 8.6 6.25 8.15 6.2 7.95 6.4 7.8 6.5 7.75 6.6 7.7 6.5 7.8 6.5 7.95 6.75 9.0 7.65 8.3 7.75 7.95 7.4 7.8 7.1 7.65 6.8 7.65 L6.7 7.65 M8.4 13.15 L8.4 13.35 Q8.5 13.85 8.95 13.8 9.0 13.8 9.05 13.8 9.45 13.65 9.3 13.3 9.2 13.1 9.35 12.95 L9.05 12.85 8.8 12.8 8.75 12.8 Q9.05 12.55 9.4 12.4 9.75 12.45 9.75 12.8 L9.7 13.35 Q9.15 13.7 8.8 14.3 8.6 14.55 8.3 14.4 7.95 13.75 8.4 13.15 M10.05 13.3 Q10.3 12.95 10.75 12.9 L10.75 12.85 Q11.6 13.2 10.9 13.95 10.45 14.45 9.9 14.1 9.8 13.7 10.05 13.3 M10.4 13.7 Q10.7 14.05 11.0 13.65 11.35 13.15 10.75 13.0 L10.6 13.05 Q10.3 13.15 10.3 13.4 10.3 13.55 10.4 13.7 M3.25 19.85 L3.25 19.4 Q3.35 18.6 4.0 18.25 4.45 19.1 4.45 20.15 4.45 20.8 4.75 21.4 3.7 21.6 3.4 20.75 3.55 20.85 3.8 20.9 4.15 20.6 4.25 20.2 4.45 19.45 3.7 19.3 3.35 19.45 3.25 19.85 M5.95 26.1 L5.85 26.0 Q5.65 25.9 5.65 25.7 L5.25 25.9 Q5.0 26.0 5.05 26.25 5.1 26.35 5.15 26.4 L5.3 26.55 5.05 26.5 Q5.0 26.5 4.95 26.45 4.8 26.2 4.9 25.9 5.1 25.45 5.5 25.35 L5.7 25.4 Q5.85 25.45 5.95 25.55 L6.05 25.6 Q6.1 25.75 6.05 25.9 L5.95 26.1 M9.9 26.55 Q9.75 26.6 9.6 26.7 L9.45 26.9 Q9.4 27.4 9.45 27.9 9.6 29.05 10.45 28.7 L10.4 27.7 Q10.4 26.95 9.9 26.55 M17.45 20.6 L17.45 20.9 Q17.8 21.3 18.2 20.9 18.75 20.35 18.15 20.05 17.95 20.05 17.7 20.25 17.5 20.35 17.45 20.6 M16.8 23.15 Q15.3 23.65 15.0 25.25 14.65 27.1 16.25 25.9 18.35 24.3 16.8 23.15 M15.4 17.8 Q14.65 18.15 14.65 19.1 14.7 19.55 14.95 19.95 15.05 20.1 15.25 20.2 16.0 20.5 16.5 20.05 L16.5 18.8 Q16.45 17.8 15.4 17.8 M19.9 24.3 Q19.65 24.4 19.4 24.65 19.1 24.95 19.0 25.3 L17.65 26.65 Q15.9 28.35 16.75 30.35 19.65 30.65 20.8 27.9 21.4 26.5 21.0 25.6 21.3 24.6 19.9 24.3 M13.3 26.45 Q14.85 24.45 12.65 23.7 11.4 24.4 10.7 25.7 9.75 27.4 11.35 28.3 L11.35 28.35 11.4 28.55 11.5 28.7 11.55 28.8 11.8 28.8 11.95 28.85 11.95 28.8 Q12.45 27.55 13.3 26.45 M6.95 34.35 Q7.0 34.3 7.05 34.4 L7.1 34.65 Q6.85 34.8 6.95 34.35 M7.85 32.25 L7.1 32.5 Q5.05 33.2 5.75 35.25 6.5 37.55 8.25 35.9 10.9 33.35 7.85 32.25 M18.8 39.15 Q19.2 37.55 17.65 37.4 16.8 37.85 16.65 38.9 16.45 40.55 17.9 40.8 18.6 40.1 18.8 39.15 M16.6 37.8 Q16.85 37.7 16.9 37.45 16.95 37.15 16.75 37.0 16.6 36.85 16.35 36.85 L16.35 36.9 Q15.95 36.9 15.95 37.3 15.95 37.5 16.05 37.65 16.35 37.95 16.6 37.8 M15.2 35.35 Q16.85 32.65 14.65 31.3 12.75 32.5 13.6 34.95 14.25 36.85 15.2 35.35 M17.1 32.6 Q17.2 32.1 16.7 32.1 L16.55 32.15 16.45 32.2 16.35 32.3 16.35 32.4 16.25 32.85 Q16.25 33.05 16.35 33.2 L16.8 33.25 Q16.85 33.25 16.9 33.2 17.05 32.9 17.1 32.6 M17.95 23.5 Q17.9 24.0 18.15 24.4 18.7 24.5 18.95 23.95 19.2 23.5 19.05 23.0 L18.75 22.9 18.5 22.85 Q18.0 22.95 17.95 23.5 M30.4 33.85 Q30.2 33.55 29.65 33.4 29.05 33.75 28.85 34.4 30.15 34.65 29.75 36.0 L29.65 36.25 29.85 36.2 30.0 35.65 Q30.3 34.75 30.4 33.85 M27.75 30.6 L27.55 30.5 Q27.1 30.75 26.95 31.35 26.85 31.95 27.15 32.45 27.7 32.45 27.85 31.8 28.0 31.3 28.0 30.85 L27.95 30.75 27.75 30.6 M27.15 37.85 Q27.25 37.7 27.2 37.5 27.15 37.25 26.9 37.15 L26.5 37.05 26.35 37.15 Q25.95 37.4 26.1 37.85 26.2 38.05 26.45 38.25 26.9 38.3 27.15 37.85 M27.15 36.7 Q27.25 37.15 27.5 37.1 30.45 36.1 27.9 34.8 26.95 35.4 27.15 36.7" fill="#ffcc00" fill-rule="evenodd" stroke="none"/>
    <path d="M35.0 2.1 Q34.85 2.0 34.65 2.1 L34.5 2.25 Q34.3 2.4 33.95 2.25 33.95 2.05 34.0 1.85 34.05 1.4 34.45 1.35 34.9 1.25 35.1 0.95 L35.1 0.9 Q35.35 1.45 35.0 2.1 M30.15 2.95 L30.15 3.0 29.95 3.05 30.15 2.95 M27.95 4.75 Q27.8 5.3 27.9 6.05 L28.0 6.5 27.85 6.95 Q28.15 7.6 28.05 8.7 27.95 10.1 27.6 11.4 26.8 12.5 25.4 12.35 25.35 12.05 25.35 11.75 25.4 11.25 24.95 11.1 L24.9 11.1 24.7 10.9 Q24.45 10.65 24.1 10.7 23.5 10.95 23.7 11.75 24.0 12.6 23.2 13.0 L23.05 12.95 22.65 12.8 Q22.45 12.3 22.75 11.9 23.05 11.4 22.75 11.0 22.1 10.9 22.0 11.55 L21.9 12.05 Q20.7 12.8 20.35 10.95 20.0 9.3 21.6 8.6 22.35 8.7 22.8 8.9 L22.8 8.7 Q22.85 7.95 22.35 7.4 20.85 5.55 18.5 6.15 16.3 6.7 14.9 8.45 14.6 8.9 14.3 9.35 14.95 8.65 16.0 8.25 16.4 8.15 16.75 8.4 16.95 8.55 17.1 8.85 16.15 11.65 15.6 14.4 15.5 15.15 14.85 14.8 13.65 14.15 13.3 13.15 13.65 15.1 15.9 16.7 15.15 17.35 14.7 18.1 14.0 19.4 14.95 20.55 L15.2 20.6 Q15.45 20.85 16.0 20.65 L16.9 20.35 Q16.9 20.95 16.55 21.55 16.25 22.1 15.6 22.5 14.6 21.95 13.35 21.7 12.75 21.55 12.2 21.7 11.85 21.8 11.5 22.0 L11.5 22.05 11.2 22.2 Q7.5 24.7 9.65 28.8 9.85 29.2 10.2 29.2 12.75 29.3 12.85 31.4 13.0 35.0 10.6 32.55 9.95 31.9 9.05 31.8 4.45 31.5 5.45 36.15 1.3 34.85 1.1 39.15 1.05 39.6 0.75 39.65 L0.65 39.65 0.65 35.75 Q1.15 35.5 1.65 35.3 1.3 35.0 0.65 34.8 L0.65 34.5 1.25 34.55 Q1.6 34.65 1.9 34.75 L2.15 34.7 Q3.0 34.65 3.85 34.25 3.6 34.35 2.5 33.9 L2.45 33.85 Q4.1 33.55 5.0 32.6 3.5 31.4 3.55 28.75 3.6 27.05 4.7 25.75 3.65 24.5 2.4 24.1 1.35 23.5 0.1 24.4 -0.05 24.3 0.05 24.05 0.25 23.3 0.75 22.9 1.2 22.55 1.65 22.45 2.0 22.4 2.4 22.5 3.05 22.6 3.65 22.85 3.25 22.35 3.15 21.5 2.8 20.4 3.15 19.0 3.6 17.1 5.3 16.35 5.1 16.75 4.95 17.2 4.45 18.5 4.8 19.25 4.8 18.8 5.05 18.35 5.4 17.7 5.95 17.3 L5.95 17.2 6.05 17.2 6.5 16.9 6.8 17.1 7.5 16.9 Q7.3 16.3 7.45 15.45 7.8 13.4 9.25 12.05 L9.1 11.65 Q9.7 11.25 9.4 10.55 8.45 8.55 6.15 8.65 5.75 8.7 5.3 8.8 4.3 9.05 3.8 9.5 6.35 5.75 10.55 8.65 11.05 9.0 11.65 9.05 12.55 6.95 15.4 6.7 16.4 6.6 17.4 6.35 18.3 6.1 19.0 5.55 18.9 4.9 19.25 4.0 19.9 2.2 21.75 1.35 L21.9 1.4 22.05 1.3 22.05 1.45 22.1 1.45 Q21.75 1.65 21.45 1.95 20.4 3.15 21.05 4.6 21.7 6.1 22.65 5.4 L24.35 5.35 Q24.8 4.6 25.4 4.4 25.9 4.2 26.65 4.4 L27.95 4.75 M31.55 42.2 Q32.35 39.35 32.65 36.4 33.9 34.7 32.6 33.65 L32.55 33.95 32.35 33.55 32.35 33.5 32.3 33.45 31.85 32.9 Q31.7 32.8 31.55 32.65 30.65 32.1 29.7 32.4 26.3 33.55 25.3 37.3 24.95 38.75 23.4 39.1 19.2 40.0 19.7 35.8 19.8 35.1 20.0 34.6 18.15 35.25 17.9 33.05 17.75 31.3 19.55 30.85 22.25 30.8 21.75 32.75 21.65 33.05 21.5 33.35 22.5 33.2 24.05 33.95 L24.15 34.0 24.1 33.9 Q21.95 31.65 25.55 30.85 27.85 31.8 25.8 34.0 L25.75 34.05 26.1 33.9 Q28.2 32.8 28.2 30.4 28.2 29.4 27.95 28.9 L27.95 29.15 Q28.0 30.05 27.2 30.35 L26.15 29.35 Q25.95 29.15 25.65 29.0 L25.5 29.15 Q22.6 31.3 22.2 28.1 22.1 27.35 22.85 27.5 25.9 28.25 27.05 25.7 27.65 24.35 27.1 23.0 26.15 20.4 23.95 22.15 23.35 22.6 22.7 22.85 19.55 24.1 19.9 20.5 19.95 20.1 20.15 19.95 18.95 18.2 22.05 16.95 23.9 18.55 22.75 19.95 L23.9 20.0 Q24.3 20.05 24.2 19.7 23.7 17.85 24.15 16.05 24.25 15.6 24.55 15.35 26.25 15.85 27.65 14.8 30.55 12.7 28.45 9.95 28.55 9.45 28.8 8.95 29.0 8.6 29.0 8.3 30.8 8.2 32.3 7.05 L32.55 6.85 Q32.8 7.15 33.6 6.85 35.4 6.15 35.7 4.9 36.25 5.75 34.9 7.45 34.35 8.15 33.4 8.25 33.0 8.45 32.6 8.55 32.15 8.65 31.85 8.9 L31.65 9.1 Q31.5 9.25 31.4 9.4 30.9 9.95 30.6 10.7 30.5 11.0 30.45 11.3 30.15 11.95 30.4 12.75 31.25 15.55 33.45 12.75 34.1 11.9 34.3 11.3 L34.4 11.15 34.4 11.35 34.45 11.35 Q34.65 13.3 33.3 14.5 33.1 14.85 32.55 15.05 L31.85 15.4 Q31.15 15.7 30.7 15.75 L30.4 16.4 Q30.25 16.7 30.3 17.1 30.35 17.5 30.45 17.95 32.45 20.4 31.45 23.4 L31.5 23.5 31.55 23.65 Q31.55 23.75 31.5 23.85 33.75 24.75 32.85 27.1 32.2 28.65 30.9 28.9 34.05 26.8 30.6 24.85 27.75 25.35 27.95 28.1 28.0 28.65 28.3 28.95 L28.6 29.6 Q29.2 30.95 30.35 31.65 31.45 31.65 32.25 32.05 L32.4 32.0 Q33.0 31.9 33.35 32.45 34.1 32.6 34.2 33.5 34.3 34.35 34.25 35.1 34.25 36.15 33.7 37.1 33.35 37.75 32.8 38.4 33.75 38.45 34.6 38.9 35.6 39.5 35.3 40.5 L35.65 40.45 Q36.85 39.9 37.55 40.85 37.65 41.0 37.7 41.25 L38.0 41.25 38.2 41.35 38.25 41.45 Q37.4 42.5 36.05 42.55 34.95 43.05 33.15 42.5 32.45 42.3 31.75 42.2 L31.55 42.2 M35.85 4.35 L35.8 4.4 35.8 4.3 35.85 4.35 M25.15 6.8 Q25.3 6.4 25.65 6.3 L25.7 6.3 Q27.15 7.4 25.9 8.7 24.95 9.65 24.4 8.65 24.35 8.75 24.35 8.85 24.7 9.75 25.8 9.6 26.65 9.5 26.95 8.75 27.9 6.55 25.2 5.45 24.35 5.7 24.15 6.6 23.85 7.9 25.3 7.8 L25.4 7.65 25.15 7.45 Q25.0 7.2 25.1 6.85 L25.15 6.8 M26.45 5.35 Q26.05 5.95 26.7 5.65 27.3 5.4 26.6 5.25 26.55 5.25 26.45 5.35 M25.65 13.0 L26.15 13.15 25.7 13.1 25.65 13.0 M29.25 14.05 L29.5 14.05 Q29.45 13.9 29.45 13.7 L29.25 14.05 M29.25 19.95 Q29.25 19.8 29.2 19.65 L29.2 19.55 Q29.05 19.5 28.85 19.45 L28.4 19.4 Q27.7 19.6 27.3 20.25 27.05 20.7 27.4 21.05 28.0 21.4 28.55 21.05 28.95 20.8 29.25 20.45 L29.25 20.25 29.25 19.95 M33.4 14.1 Q34.15 13.55 33.4 13.25 33.15 13.25 32.95 13.45 32.65 13.65 32.65 13.95 32.95 14.4 33.4 14.1 M29.05 21.15 Q28.2 22.05 27.1 22.2 L27.2 22.45 Q28.4 24.5 29.9 22.15 31.05 20.35 30.2 19.2 30.05 20.15 29.05 21.15 M28.7 16.0 Q26.8 16.5 27.35 18.45 27.75 19.95 28.95 18.6 30.7 16.65 28.7 16.0 M24.05 27.05 Q22.45 24.25 25.65 22.95 28.15 25.05 25.15 27.3 24.45 27.8 24.05 27.05 M31.25 21.55 Q31.2 21.1 30.9 20.7 30.4 21.1 30.2 21.9 29.85 23.05 30.0 24.0 30.85 23.9 31.15 22.95 L31.2 22.7 31.25 22.55 31.3 21.6 31.25 21.55 M32.1 25.55 L32.1 25.6 Q32.1 25.75 32.25 25.85 32.4 26.0 32.7 25.95 32.95 25.8 32.95 25.55 L33.0 25.45 33.0 25.4 Q32.95 24.95 32.45 24.95 32.15 24.95 32.1 25.3 L32.1 25.55 M16.85 2.75 L16.85 2.8 Q16.9 3.05 17.0 3.25 16.8 3.15 16.75 3.0 16.75 2.9 16.75 2.85 L16.85 2.75 M20.35 4.2 L20.4 4.1 20.4 4.05 20.45 3.75 20.45 3.7 Q20.4 3.4 20.05 3.3 19.7 3.35 19.5 3.75 19.4 4.1 19.35 4.5 19.45 4.7 19.65 4.8 19.85 4.95 20.05 4.8 L20.35 4.2 M19.85 4.95 L19.9 4.95 19.9 4.9 19.85 4.95 M12.2 4.4 Q12.3 4.7 12.2 5.05 11.9 5.3 11.5 5.2 10.75 5.0 10.1 5.05 L10.15 4.9 10.5 4.1 Q10.65 3.85 10.9 3.8 L11.15 3.75 10.9 3.95 Q10.6 4.4 10.8 4.95 11.45 5.35 11.95 4.8 L12.2 4.4 M9.3 8.1 Q9.0 8.1 9.05 8.4 9.15 9.1 9.65 8.7 9.7 8.55 9.6 8.35 9.5 8.2 9.3 8.1 M6.6 7.7 Q6.5 7.75 6.4 7.8 6.2 7.95 6.25 8.15 6.65 8.6 7.15 8.65 8.05 8.8 8.55 8.35 8.6 7.9 8.15 7.7 7.75 7.5 7.25 7.55 6.95 7.55 6.7 7.65 L6.6 7.7 M8.75 12.8 Q8.6 12.95 8.45 13.15 L8.4 13.15 Q7.95 13.75 8.3 14.4 8.6 14.55 8.8 14.3 9.15 13.7 9.7 13.35 L9.75 12.8 Q9.75 12.45 9.4 12.4 9.05 12.55 8.75 12.8 M10.05 13.3 Q9.8 13.7 9.9 14.1 10.45 14.45 10.9 13.95 11.6 13.2 10.75 12.85 L10.75 12.9 Q10.3 12.95 10.05 13.3 M9.0 14.5 Q8.25 15.4 8.45 16.1 8.75 15.75 8.9 15.25 9.1 14.75 9.25 14.25 L9.0 14.5 M7.8 16.95 Q7.45 17.05 7.1 17.2 4.65 18.1 5.2 20.65 5.9 23.75 8.1 21.35 L8.15 21.3 Q8.35 21.5 8.5 21.3 L8.35 21.25 Q8.55 20.35 8.8 19.3 9.2 17.65 7.8 16.95 M3.4 20.75 Q3.7 21.6 4.75 21.4 4.45 20.8 4.45 20.15 4.45 19.1 4.0 18.25 3.35 18.6 3.25 19.4 L3.25 19.85 Q3.25 20.4 3.4 20.75 M5.95 26.1 L6.05 25.9 Q6.1 25.75 6.05 25.6 L5.95 25.55 Q5.85 25.45 5.7 25.4 L5.5 25.35 Q5.1 25.45 4.9 25.9 4.8 26.2 4.95 26.45 5.0 26.5 5.05 26.5 L5.3 26.55 5.6 26.55 5.75 26.4 5.95 26.1 M8.2 21.55 Q7.65 21.7 7.45 22.25 7.3 22.75 7.4 23.25 8.15 23.8 8.65 23.15 9.45 22.0 8.2 21.55 M15.4 17.8 Q16.45 17.8 16.5 18.8 L16.5 20.05 Q16.0 20.5 15.25 20.2 15.05 20.1 14.95 19.95 14.7 19.55 14.65 19.1 14.65 18.15 15.4 17.8 M16.8 23.15 Q18.35 24.3 16.25 25.9 14.65 27.1 15.0 25.25 15.3 23.65 16.8 23.15 M17.95 23.5 Q18.0 22.95 18.5 22.85 L18.75 22.9 19.05 23.0 Q19.2 23.5 18.95 23.95 18.7 24.5 18.15 24.4 17.9 24.0 17.95 23.5 M17.1 32.6 Q17.05 32.9 16.9 33.2 16.85 33.25 16.8 33.25 L16.35 33.2 Q16.25 33.05 16.25 32.85 L16.35 32.4 16.35 32.3 16.45 32.2 16.55 32.15 16.7 32.1 Q17.2 32.1 17.1 32.6 M15.2 35.35 Q14.25 36.85 13.6 34.95 12.75 32.5 14.65 31.3 16.85 32.65 15.2 35.35 M16.6 37.8 Q16.35 37.95 16.05 37.65 15.95 37.5 15.95 37.3 15.95 36.9 16.35 36.9 L16.35 36.85 Q16.6 36.85 16.75 37.0 16.95 37.15 16.9 37.45 16.85 37.7 16.6 37.8 M18.8 39.15 Q18.6 40.1 17.9 40.8 16.45 40.55 16.65 38.9 16.8 37.85 17.65 37.4 19.2 37.55 18.8 39.15 M7.85 32.25 Q10.9 33.35 8.25 35.9 6.5 37.55 5.75 35.25 5.05 33.2 7.1 32.5 L7.85 32.25 M6.95 34.35 Q6.85 34.8 7.1 34.65 L7.05 34.4 Q7.0 34.3 6.95 34.35 M4.65 29.85 Q4.9 31.0 5.45 30.8 4.8 29.25 5.2 27.2 4.3 28.2 4.65 29.85 M27.15 36.7 Q26.95 35.4 27.9 34.8 30.45 36.1 27.5 37.1 27.25 37.15 27.15 36.7 M27.15 37.85 Q26.9 38.3 26.45 38.25 26.2 38.05 26.1 37.85 25.95 37.4 26.35 37.15 L26.5 37.05 26.9 37.15 Q27.15 37.25 27.2 37.5 27.25 37.7 27.15 37.85" fill="#ff6e00" fill-rule="evenodd" stroke="none"/>
    <path d="M32.55 0.25 L32.7 0.2 33.4 0.25 33.7 0.35 Q33.8 0.6 33.65 0.85 33.35 1.45 32.65 1.7 32.55 1.75 32.45 1.85 L32.1 1.8 31.8 1.7 Q31.7 1.55 31.7 1.35 31.75 0.75 32.3 0.4 L32.45 0.35 32.55 0.25 M12.2 21.7 Q12.8 21.95 12.25 22.55 11.85 22.9 11.5 23.35 11.3 23.45 11.15 23.4 10.8 23.3 10.75 23.0 10.9 22.6 11.2 22.2 L11.5 22.05 11.5 22.0 Q11.85 21.8 12.2 21.7 M32.35 33.55 L32.35 33.6 Q32.25 34.05 31.8 34.3 L31.6 34.35 31.5 34.25 31.45 34.1 Q31.35 33.9 31.4 33.75 L31.45 33.65 Q31.2 33.55 31.1 33.35 31.0 32.9 31.5 32.9 L31.85 32.9 32.3 33.45 32.35 33.5 32.35 33.55 M32.3 2.65 L32.3 2.55 Q32.45 2.4 32.6 2.2 32.85 2.0 33.05 1.95 33.95 2.3 33.35 3.25 32.95 3.9 32.35 3.9 32.3 3.65 32.35 3.4 32.35 3.0 32.3 2.65 M30.0 5.85 L30.2 5.7 Q30.35 5.6 30.45 5.55 L30.65 5.5 Q30.95 5.55 31.15 5.65 31.4 5.75 31.55 5.85 31.3 5.85 31.35 6.0 31.4 6.1 31.4 6.25 31.4 6.45 31.35 6.55 31.15 6.9 30.85 6.95 30.45 7.05 30.05 6.75 29.95 6.65 29.95 6.5 L29.95 6.2 Q29.95 6.05 30.0 5.85 M25.15 6.8 L24.9 6.75 Q24.5 6.55 24.65 6.15 24.8 5.7 25.2 5.6 25.4 5.55 25.6 5.7 25.75 5.8 25.75 6.0 L25.7 6.3 25.65 6.3 Q25.3 6.4 25.15 6.8 M27.8 13.2 Q28.65 13.55 27.8 14.35 27.25 14.85 26.75 14.4 26.65 13.85 27.1 13.55 27.45 13.3 27.8 13.2 M29.25 19.95 L29.25 20.25 29.1 20.5 Q28.8 20.95 28.35 20.95 28.05 20.6 28.2 20.15 28.35 19.65 28.75 19.55 L28.9 19.55 29.05 19.6 29.2 19.7 29.25 19.95 M26.25 22.9 L25.9 22.55 Q25.45 22.75 25.0 22.55 24.8 22.5 24.8 22.3 24.75 22.05 25.0 21.85 25.35 21.6 25.65 21.5 26.2 21.65 26.55 22.1 26.85 22.5 26.65 22.95 L26.25 22.9 M31.25 21.55 L31.3 21.6 31.25 22.55 31.2 22.7 Q31.05 22.9 30.8 23.0 30.35 22.9 30.3 22.5 30.3 22.25 30.2 22.05 30.25 21.8 30.35 21.55 30.5 21.25 30.8 21.2 31.1 21.3 31.25 21.55 M32.1 25.55 L32.05 25.5 32.1 25.4 Q32.3 25.15 32.6 25.15 32.85 25.2 32.95 25.3 L33.0 25.4 33.0 25.45 32.95 25.55 32.75 25.75 Q32.45 26.0 32.25 25.85 32.1 25.75 32.1 25.6 L32.1 25.55 M20.35 4.2 L20.3 4.35 Q20.05 4.5 19.75 4.3 19.6 4.2 19.6 4.05 19.6 3.9 19.65 3.8 19.75 3.5 20.05 3.45 20.25 3.5 20.4 3.7 L20.45 3.7 20.45 3.75 20.4 4.05 20.4 4.1 20.35 4.2 M18.5 6.4 L19.7 6.4 Q20.3 6.45 20.4 6.95 20.3 7.15 20.1 7.15 19.1 7.15 18.15 7.65 17.85 7.8 17.65 7.6 L17.6 7.5 Q17.5 7.2 17.65 6.9 17.95 6.4 18.5 6.4 M19.55 6.5 L19.55 6.5 M11.45 3.85 Q12.15 4.1 11.6 4.5 11.25 4.8 11.05 4.35 11.05 4.25 11.1 4.1 11.2 3.85 11.45 3.85 M6.7 7.65 L6.8 7.65 Q7.1 7.65 7.4 7.8 7.75 7.95 7.65 8.3 6.75 9.0 6.5 7.95 6.5 7.8 6.6 7.7 L6.7 7.65 M8.4 13.15 L8.45 13.15 Q8.6 12.95 8.75 12.8 L8.8 12.8 9.05 12.85 9.35 12.95 Q9.2 13.1 9.3 13.3 9.45 13.65 9.05 13.8 9.0 13.8 8.95 13.8 8.5 13.85 8.4 13.35 L8.4 13.15 M10.4 13.7 Q10.3 13.55 10.3 13.4 10.3 13.15 10.6 13.05 L10.75 13.0 Q11.35 13.15 11.0 13.65 10.7 14.05 10.4 13.7 M3.25 19.85 Q3.35 19.45 3.7 19.3 4.45 19.45 4.25 20.2 4.15 20.6 3.8 20.9 3.55 20.85 3.4 20.75 3.25 20.4 3.25 19.85 M5.3 26.55 L5.15 26.4 Q5.1 26.35 5.05 26.25 5.0 26.0 5.25 25.9 L5.65 25.7 Q5.65 25.9 5.85 26.0 L5.95 26.1 5.75 26.4 5.6 26.55 5.3 26.55 M9.9 26.55 Q10.4 26.95 10.4 27.7 L10.45 28.7 Q9.6 29.05 9.45 27.9 9.4 27.4 9.45 26.9 L9.6 26.7 Q9.75 26.6 9.9 26.55 M27.75 30.6 L27.95 30.75 28.0 30.85 Q28.0 31.3 27.85 31.8 27.7 32.45 27.15 32.45 26.85 31.95 26.95 31.35 27.1 30.75 27.55 30.5 L27.75 30.6" fill="#ffefb2" fill-rule="evenodd" stroke="none"/>
  </g>
</svg>
