<?xml version="1.0" encoding="UTF-8" standalone="no"?>
<svg xmlns:ffdec="https://www.free-decompiler.com/flash" xmlns:xlink="http://www.w3.org/1999/xlink" ffdec:objectType="shape" height="43.3px" width="34.4px" xmlns="http://www.w3.org/2000/svg">
  <g transform="matrix(1.0, 0.0, 0.0, 1.0, 0.0, 0.0)">
    <path d="M23.15 2.6 Q25.5 1.8 27.8 3.3 28.35 3.65 28.95 3.4 30.25 2.75 30.95 1.7 31.2 0.85 32.0 0.55 L32.05 0.55 32.85 0.6 Q33.1 0.65 33.35 0.8 33.5 0.65 33.4 0.4 33.15 0.1 33.5 0.0 35.05 0.75 34.0 2.55 33.4 3.6 32.6 3.5 32.3 3.95 31.4 4.2 30.95 4.3 30.7 4.55 L30.55 4.7 30.55 4.75 30.5 4.75 30.5 4.8 30.45 4.8 Q30.35 5.05 30.3 5.35 L30.25 5.5 Q30.7 5.9 31.0 6.4 31.15 6.65 31.15 6.9 L30.95 6.8 Q30.35 6.55 29.4 7.0 28.55 7.4 27.9 8.2 L27.4 9.2 27.35 9.25 27.35 9.35 Q26.75 9.7 26.2 9.7 26.05 9.9 26.0 10.2 26.65 11.35 26.75 12.3 L26.9 12.15 Q26.85 12.25 26.85 12.35 L26.9 12.4 Q27.2 13.0 27.8 12.9 28.35 12.8 28.55 12.35 L28.65 12.35 Q28.85 12.3 28.95 12.5 28.55 13.55 27.2 13.2 26.95 13.15 26.8 13.0 26.75 13.55 26.5 14.05 26.45 13.75 26.35 13.45 L26.25 13.4 Q26.2 13.35 26.1 13.3 L26.0 13.3 Q25.6 13.6 25.35 14.1 24.8 15.15 23.95 15.8 L23.8 15.85 Q24.15 15.45 24.45 14.8 26.1 11.5 22.65 11.1 19.65 12.35 21.2 14.95 21.55 15.6 21.95 15.95 20.2 16.15 20.3 18.05 21.8 17.25 23.6 17.4 24.25 17.45 24.2 18.25 24.0 20.0 22.4 19.95 22.25 19.75 22.15 19.55 21.85 18.9 21.1 19.0 20.9 19.05 20.65 19.25 20.1 19.75 20.5 20.35 21.45 21.55 22.05 21.25 21.8 22.9 20.95 24.4 20.15 25.8 18.6 26.3 15.9 27.25 17.65 29.7 18.55 31.0 19.7 29.65 21.5 27.6 23.85 27.35 23.35 27.7 24.0 28.05 24.6 28.4 25.05 28.2 L25.05 28.1 Q26.1 30.0 25.4 32.25 25.0 33.5 23.5 33.9 22.85 34.05 22.65 34.75 23.1 34.9 23.55 35.1 22.8 35.4 22.35 36.1 21.6 37.3 22.6 38.15 25.9 41.1 26.45 37.2 26.0 36.9 25.5 36.8 24.15 36.65 23.3 37.4 23.35 36.7 23.95 36.5 24.6 36.3 25.3 35.95 25.85 36.3 26.35 36.65 27.0 37.15 27.45 37.75 27.15 38.15 27.15 38.75 28.55 38.9 29.15 39.4 29.85 40.0 29.4 41.15 L30.0 41.15 30.65 40.85 30.7 40.8 30.75 40.8 30.75 40.75 30.8 40.75 30.8 40.7 30.85 40.65 Q30.95 41.2 31.0 41.85 L30.95 42.35 30.9 42.35 30.7 42.3 30.65 42.3 30.55 42.25 30.6 42.2 29.75 42.45 Q28.2 42.95 26.6 43.15 L26.65 43.05 26.8 42.9 27.2 42.85 27.3 42.75 Q27.4 42.35 27.05 42.1 26.75 41.85 26.5 41.75 L26.45 41.0 Q26.45 40.5 25.9 40.3 24.95 40.55 24.15 41.2 23.0 42.1 22.85 43.25 21.4 43.15 19.95 42.85 17.0 42.25 14.05 42.55 15.65 40.65 12.85 40.25 12.35 40.35 11.9 40.7 10.9 41.4 11.3 42.55 L11.45 42.95 Q9.6 43.15 7.8 43.05 7.5 42.35 6.75 41.9 5.65 41.25 4.4 41.1 3.95 41.2 3.55 41.55 3.25 41.9 3.1 42.3 2.2 42.25 1.35 42.3 L1.05 41.75 1.3 41.75 Q2.2 41.9 2.6 41.4 3.2 41.1 3.7 40.65 4.45 40.0 5.2 39.75 L5.25 39.75 5.25 39.7 5.5 39.65 Q5.65 39.85 5.9 40.05 8.35 41.9 9.0 38.6 9.65 34.95 6.55 36.15 6.8 35.2 7.6 34.65 9.1 33.65 8.6 32.65 6.9 33.1 6.15 34.5 5.9 34.9 5.75 35.35 L5.6 35.05 Q5.1 34.05 5.95 33.3 7.6 31.75 9.95 31.55 9.55 32.25 9.7 33.2 9.8 33.7 10.2 33.55 12.6 32.85 11.6 31.2 L11.8 31.05 Q14.35 28.05 13.15 24.75 13.0 24.9 12.8 24.85 12.65 24.8 12.55 24.6 L12.5 24.55 Q11.6 25.95 9.3 24.45 7.05 23.0 7.95 20.55 8.85 18.0 11.35 16.6 12.05 16.2 12.75 15.85 12.85 15.6 12.95 15.3 13.35 14.45 14.25 14.1 14.6 13.95 14.9 13.9 15.8 13.95 16.6 14.3 17.05 14.5 17.3 14.85 L18.6 14.85 Q19.1 13.8 18.4 12.85 L18.35 12.8 Q16.35 13.45 16.6 10.6 16.65 9.95 17.0 9.5 L17.05 9.5 17.15 9.35 17.15 9.4 Q17.65 8.8 17.95 8.1 19.2 6.75 21.85 6.8 21.65 5.7 22.25 4.8 22.55 4.35 23.0 4.05 22.45 3.55 23.15 2.6 M31.3 14.4 L31.15 14.3 Q30.85 14.2 30.55 14.2 L30.35 13.95 Q30.1 13.65 30.4 13.55 31.0 13.55 31.4 13.95 31.5 14.1 31.4 14.3 L31.3 14.4 M28.9 25.25 Q29.5 25.3 30.05 25.6 L29.95 25.6 Q29.65 25.6 29.6 25.9 29.55 26.0 29.55 26.1 L28.95 26.05 28.9 26.05 28.6 26.0 Q28.45 26.0 28.45 25.85 28.45 25.6 28.6 25.45 L28.9 25.25 M30.35 25.85 Q30.8 26.2 30.85 26.75 30.5 26.45 30.15 26.3 L30.2 26.25 Q30.4 26.05 30.4 25.9 L30.35 25.85 M25.3 43.25 L24.0 43.3 Q24.8 42.85 25.3 43.25 M0.65 38.75 L0.6 38.25 Q0.6 37.8 0.8 37.4 L0.95 37.2 Q1.9 37.15 3.25 37.75 2.75 37.7 2.25 37.8 1.2 38.0 0.65 38.75 M17.55 4.7 Q18.05 4.8 18.45 5.05 18.5 5.15 18.5 5.3 L18.5 5.45 Q18.2 5.15 17.65 5.2 L16.7 5.25 Q16.25 5.35 15.85 5.6 L15.9 5.4 Q16.15 4.9 16.7 4.8 L17.05 4.7 Q17.3 4.65 17.55 4.7 M33.05 1.1 L32.1 1.0 Q31.7 1.1 31.55 1.55 31.5 1.65 31.5 1.8 31.45 2.05 31.6 2.25 L31.7 2.35 31.8 2.35 Q32.2 2.35 32.3 2.65 L32.35 2.85 Q33.35 3.2 33.95 2.0 34.1 1.6 33.85 1.3 33.5 1.0 33.05 1.1 M31.4 2.55 L31.15 2.55 Q30.65 2.6 30.45 3.1 30.3 3.5 30.55 3.8 L30.75 3.95 31.15 4.05 31.2 4.0 Q31.65 3.7 31.75 3.2 31.8 2.95 31.7 2.7 L31.4 2.55 M29.4 5.1 Q29.5 4.9 29.4 4.7 29.25 4.5 29.0 4.45 L28.5 4.4 Q28.45 4.45 28.4 4.45 28.05 4.9 27.85 5.5 27.75 5.85 27.9 6.1 L28.65 6.2 28.85 6.1 29.0 5.95 Q29.25 5.55 29.4 5.1 M26.0 3.0 Q25.3 3.1 24.85 3.45 24.35 3.8 24.4 4.3 L24.35 4.45 24.4 4.7 Q24.5 5.0 25.0 5.0 L25.65 5.0 Q26.55 4.9 27.1 4.5 27.7 4.05 27.7 3.55 27.65 3.15 27.15 3.0 26.65 2.9 26.0 3.0 M23.9 2.6 Q23.55 2.8 23.55 3.15 23.75 3.45 24.1 3.4 24.8 3.35 25.1 2.95 25.2 2.75 25.05 2.55 24.9 2.3 24.6 2.35 24.25 2.4 23.9 2.6 M25.5 7.0 L25.3 6.95 25.05 6.85 Q24.65 7.0 24.3 7.45 24.05 7.8 24.2 8.35 24.8 8.7 25.3 8.2 25.8 7.65 25.5 7.0 M24.45 27.35 L24.55 27.35 24.45 27.35 M23.35 9.3 Q23.3 9.45 23.35 9.65 23.75 9.95 24.0 9.6 24.4 9.05 23.75 8.95 23.5 9.0 23.35 9.3 M24.7 10.7 L24.7 10.75 Q24.4 10.75 24.2 10.95 23.95 11.1 24.0 11.4 L24.2 11.55 Q24.8 11.75 25.15 11.35 25.3 12.3 26.05 12.35 26.45 12.05 26.35 11.55 26.25 10.85 25.65 10.5 25.15 10.7 25.15 11.2 L25.05 11.0 Q24.9 10.8 24.7 10.7 M23.05 18.05 Q22.9 17.95 22.65 18.0 22.2 18.15 22.25 18.7 22.3 18.95 22.4 19.15 22.75 19.2 23.15 19.15 23.3 19.1 23.4 18.95 23.45 18.7 23.35 18.45 L23.4 18.55 Q23.85 18.75 24.15 18.4 24.25 18.15 24.1 17.9 23.85 17.6 23.5 17.6 23.3 17.65 23.1 17.85 23.05 17.95 23.05 18.05 M23.5 24.45 Q23.45 24.5 23.4 24.5 L22.85 24.4 Q22.65 24.15 22.7 23.8 22.75 23.3 23.15 23.2 23.7 23.25 23.7 23.8 23.7 24.15 23.5 24.45 M25.9 23.65 Q25.7 23.45 25.2 23.2 24.7 23.35 24.75 23.9 24.75 24.5 25.2 24.4 26.0 24.2 26.0 23.9 26.3 24.65 24.45 25.05 24.2 25.1 24.1 24.7 23.6 23.35 24.7 22.6 25.6 23.2 25.9 23.65 M20.8 7.4 L20.65 7.35 20.15 7.35 Q19.55 7.4 19.0 7.75 17.5 8.7 17.7 10.35 17.95 13.25 19.7 11.15 L20.2 10.5 Q21.4 8.95 20.8 7.4 M22.7 8.45 L22.55 8.35 22.3 8.25 22.05 8.2 Q21.35 8.4 21.3 9.2 21.3 9.85 21.4 10.4 L21.7 10.5 Q22.1 10.6 22.25 10.35 22.35 9.75 22.65 9.25 22.85 8.85 22.7 8.45 M8.5 8.4 L8.3 8.3 8.3 8.1 Q8.35 7.75 8.8 7.55 L9.4 7.3 Q10.2 7.15 10.9 7.55 11.45 7.8 11.5 8.35 L11.3 8.4 Q11.4 8.3 11.4 8.2 L11.4 8.1 Q11.25 7.85 10.95 7.8 L10.5 7.75 Q10.35 7.8 10.2 7.9 10.05 8.0 10.05 8.2 L10.05 8.25 10.15 8.4 10.3 8.55 10.25 8.55 Q9.4 8.6 8.7 8.45 8.85 8.45 9.1 8.3 9.8 7.9 9.2 7.5 8.95 7.55 8.7 7.65 8.35 7.8 8.35 8.1 8.4 8.3 8.5 8.4 M7.35 13.05 Q7.55 12.9 7.75 12.8 8.15 13.35 7.85 14.15 7.65 14.6 7.6 15.1 7.25 15.45 7.0 15.1 L6.75 14.7 Q6.7 14.4 6.8 14.15 6.85 14.3 7.0 14.4 7.65 14.5 7.9 13.9 8.0 13.6 7.95 13.3 7.9 13.1 7.65 13.1 L7.35 13.05 M10.4 19.3 Q10.05 19.75 9.7 19.75 9.8 19.55 9.9 19.4 L10.35 18.8 Q10.45 18.65 10.4 18.5 9.45 18.7 9.0 19.65 8.25 21.35 9.2 21.9 10.1 21.85 10.95 21.6 L11.1 21.55 Q11.7 22.25 10.5 23.15 10.05 23.5 9.65 23.45 9.65 23.6 9.75 23.7 L9.85 23.8 Q11.55 23.95 12.45 22.25 13.95 19.45 11.7 18.45 10.95 18.65 10.4 19.3 M2.75 24.9 L2.85 25.1 Q3.05 25.65 3.5 25.2 3.65 25.05 3.55 24.85 L3.5 24.8 Q4.0 25.2 3.6 25.85 L3.45 25.75 Q3.3 25.6 3.1 25.7 2.9 25.75 2.75 25.65 L2.7 25.65 Q2.5 25.7 2.3 25.8 2.1 25.95 2.15 26.2 2.25 26.45 2.5 26.5 L2.8 26.6 Q2.45 26.75 2.0 26.65 1.7 26.0 2.2 25.45 2.45 25.1 2.75 24.9 M8.6 21.65 Q8.0 21.8 7.95 22.45 7.95 23.05 8.45 23.05 10.5 22.95 8.6 21.65 M19.2 18.5 L19.15 18.15 19.1 18.0 19.0 17.9 18.7 17.75 18.35 17.75 Q18.3 17.75 18.25 17.8 17.75 18.25 17.8 18.9 17.8 19.5 18.1 20.0 L18.25 20.1 Q18.85 20.35 19.2 19.9 L19.4 19.55 Q19.55 19.3 19.55 19.0 L19.55 18.85 19.35 18.65 19.2 18.6 19.2 18.5 M10.75 27.9 Q10.85 26.0 9.05 25.95 7.7 26.35 7.75 27.8 7.8 30.1 9.9 29.9 10.25 30.1 10.1 30.45 9.85 30.95 9.3 30.75 8.9 30.6 8.55 30.4 7.1 30.65 6.95 28.5 6.85 25.95 9.15 25.2 11.3 25.15 11.2 27.1 11.1 28.3 10.55 29.3 L10.4 29.3 Q10.7 28.65 10.75 27.9 M19.7 20.7 L19.5 21.1 Q16.95 21.35 16.9 18.6 16.9 17.8 17.3 17.35 17.05 17.25 16.75 17.5 16.35 17.8 16.0 18.6 15.65 19.35 15.7 19.8 15.75 20.65 16.4 21.45 L16.55 21.65 16.5 21.8 Q16.25 22.3 16.25 22.7 16.3 22.85 16.35 23.05 16.4 23.45 16.6 23.75 17.2 24.65 18.4 24.65 18.95 24.65 19.25 23.7 19.45 23.2 19.6 22.85 L19.95 22.4 Q20.45 21.75 20.45 21.4 20.4 20.9 19.7 20.7 M19.9 33.75 Q20.2 33.3 20.0 32.75 L19.65 32.65 19.2 32.6 19.2 32.65 Q18.6 32.85 18.6 33.5 18.6 33.9 18.8 34.25 19.5 34.5 19.9 33.75 M14.2 26.05 L14.4 27.3 Q16.0 27.8 16.4 26.05 16.95 23.7 15.15 22.6 14.4 22.75 14.45 23.55 14.45 24.15 14.8 24.6 14.1 25.15 14.2 26.05 M13.05 23.8 Q13.35 24.2 13.65 23.75 14.05 23.15 13.35 23.0 13.0 23.05 13.0 23.45 13.0 23.6 13.05 23.8 M13.95 16.45 Q13.15 16.55 13.0 17.35 12.95 17.65 13.2 17.8 13.35 17.8 13.4 17.75 13.8 17.25 14.15 17.5 14.2 17.55 14.2 17.7 14.15 17.95 13.95 18.05 L13.6 18.1 13.5 18.15 Q13.3 18.4 13.3 18.7 13.3 20.2 14.3 19.15 16.25 17.2 13.95 16.45 M16.05 15.8 Q16.05 15.65 16.0 15.5 15.85 15.45 15.75 15.35 L15.5 15.3 Q15.15 15.35 15.0 15.75 14.85 16.15 15.15 16.4 15.35 16.6 15.6 16.5 15.85 16.4 16.0 16.25 L16.0 16.15 16.05 15.8 M21.95 34.85 L21.7 34.8 Q21.2 34.95 21.05 35.5 20.85 36.0 21.2 36.4 21.85 36.65 22.15 36.0 22.45 35.5 22.2 34.95 22.1 34.9 21.95 34.85 M16.35 30.5 Q16.9 29.75 16.4 28.95 16.25 28.9 16.1 28.85 L15.6 28.8 Q14.7 29.2 14.3 30.25 13.9 31.4 14.9 31.8 15.75 31.3 16.35 30.5 M22.2 29.25 Q20.4 31.4 22.35 32.95 23.8 34.2 24.65 32.7 26.35 29.65 23.75 28.1 22.85 28.45 22.2 29.25 M13.55 35.15 L13.7 34.65 13.8 34.0 Q13.75 33.75 13.6 33.5 13.4 33.25 13.15 33.2 12.6 32.95 12.6 33.9 12.65 34.35 12.8 34.5 L13.55 35.15 M17.15 30.7 Q15.3 31.8 16.0 34.0 16.35 35.25 17.35 34.25 19.7 31.9 17.15 30.7 M15.25 35.8 Q15.35 36.1 15.4 36.45 15.5 37.2 14.75 37.65 12.2 39.1 11.4 36.75 11.1 36.0 11.35 35.5 L11.05 35.55 Q10.45 35.75 10.05 36.25 L9.9 36.5 Q10.0 37.25 10.2 38.0 L10.25 38.2 10.65 38.25 11.45 38.2 Q12.3 38.55 13.45 38.55 13.75 38.55 14.05 38.4 14.3 38.2 14.45 38.2 15.45 38.2 16.0 38.05 16.65 37.35 17.0 36.35 16.85 36.1 16.55 35.95 16.15 35.7 15.5 35.8 L15.25 35.8 M10.6 30.55 Q10.45 30.2 10.7 29.95 10.95 29.75 11.2 29.7 11.5 29.8 11.6 30.1 11.65 30.4 11.55 30.65 11.1 31.15 10.6 30.65 L10.6 30.55 M9.25 34.65 L9.15 34.6 8.95 34.45 8.7 34.35 Q8.3 34.4 8.0 34.65 7.65 35.0 7.65 35.4 L8.1 35.5 Q8.25 35.3 8.55 35.2 9.0 35.05 9.25 34.65 M0.0 40.15 L0.0 38.7 0.05 39.35 0.1 39.9 0.0 40.15 M28.9 34.5 L28.75 34.25 28.65 34.15 28.7 34.15 29.0 34.1 29.45 34.1 Q29.7 34.1 29.8 34.3 L29.75 34.6 29.7 34.5 Q29.6 34.2 29.35 34.1 29.25 34.15 29.1 34.25 28.95 34.35 28.9 34.5 M29.4 35.05 L29.15 35.2 Q28.35 35.65 28.0 35.0 L28.1 35.05 28.65 35.1 Q28.85 35.0 28.95 34.8 29.1 35.1 29.4 35.05" fill="#ffcc00" fill-rule="evenodd" stroke="none"/>
    <path d="M30.05 25.6 L30.2 25.7 30.2 25.75 30.25 25.75 30.35 25.85 30.4 25.9 Q30.4 26.05 30.2 26.25 L30.15 26.3 Q29.85 26.15 29.55 26.1 29.55 26.0 29.6 25.9 29.65 25.6 29.95 25.6 L30.05 25.6 M33.05 1.1 Q33.5 1.0 33.85 1.3 34.1 1.6 33.95 2.0 33.35 3.2 32.35 2.85 L32.3 2.65 Q32.2 2.35 31.8 2.35 L31.7 2.35 31.6 2.25 Q31.45 2.05 31.5 1.8 31.5 1.65 31.55 1.55 31.7 1.1 32.1 1.0 L33.05 1.1 M33.25 2.3 L33.15 2.35 33.15 2.5 33.25 2.3 M31.4 2.55 L31.7 2.7 Q31.8 2.95 31.75 3.2 31.65 3.7 31.2 4.0 L31.15 4.05 30.75 3.95 30.55 3.8 Q30.3 3.5 30.45 3.1 30.65 2.6 31.15 2.55 L31.4 2.55 M30.65 3.2 L30.6 3.25 30.65 3.25 30.65 3.2 M23.9 2.6 Q24.25 2.4 24.6 2.35 24.9 2.3 25.05 2.55 25.2 2.75 25.1 2.95 24.8 3.35 24.1 3.4 23.75 3.45 23.55 3.15 23.55 2.8 23.9 2.6 M23.85 27.35 L24.45 27.35 24.55 27.35 Q24.8 27.7 25.05 28.1 L25.05 28.2 Q24.6 28.4 24.0 28.05 23.35 27.7 23.85 27.35 M24.7 10.7 Q24.9 10.8 25.05 11.0 L25.15 11.2 Q25.15 10.7 25.65 10.5 26.25 10.85 26.35 11.55 26.45 12.05 26.05 12.35 25.3 12.3 25.15 11.35 24.8 11.75 24.2 11.55 L24.0 11.4 Q23.95 11.1 24.2 10.95 24.4 10.75 24.7 10.75 L24.7 10.7 M23.05 18.05 Q23.05 17.95 23.1 17.85 23.3 17.65 23.5 17.6 23.85 17.6 24.1 17.9 24.25 18.15 24.15 18.4 23.85 18.75 23.4 18.55 L23.35 18.45 23.3 18.35 23.25 18.2 Q23.15 18.1 23.05 18.05 M25.9 23.65 L26.0 23.9 Q26.0 24.2 25.2 24.4 24.75 24.5 24.75 23.9 24.7 23.35 25.2 23.2 25.7 23.45 25.9 23.65 M8.7 8.45 L8.5 8.4 Q8.4 8.3 8.35 8.1 8.35 7.8 8.7 7.65 8.95 7.55 9.2 7.5 9.8 7.9 9.1 8.3 8.85 8.45 8.7 8.45 M6.8 14.15 Q6.85 13.8 7.05 13.45 7.2 13.25 7.35 13.05 L7.65 13.1 Q7.9 13.1 7.95 13.3 8.0 13.6 7.9 13.9 7.65 14.5 7.0 14.4 6.85 14.3 6.8 14.15 M3.5 24.8 L3.55 24.85 Q3.65 25.05 3.5 25.2 3.05 25.65 2.85 25.1 L2.75 24.9 3.2 24.6 Q3.4 24.7 3.5 24.8 M3.25 25.0 Q2.75 25.4 3.15 25.2 3.6 25.0 3.25 25.0 M8.6 21.65 Q10.5 22.95 8.45 23.05 7.95 23.05 7.95 22.45 8.0 21.8 8.6 21.65 M21.95 34.85 Q22.1 34.9 22.2 34.95 22.45 35.5 22.15 36.0 21.85 36.65 21.2 36.4 20.85 36.0 21.05 35.5 21.2 34.95 21.7 34.8 L21.95 34.85 M9.25 34.65 Q9.0 35.05 8.55 35.2 8.25 35.3 8.1 35.5 L7.65 35.4 Q7.65 35.0 8.0 34.65 8.3 34.4 8.7 34.35 L8.95 34.45 9.15 34.6 9.25 34.65 M29.75 34.6 Q29.6 34.85 29.4 35.05 29.1 35.1 28.95 34.8 L28.95 34.7 28.9 34.5 Q28.95 34.35 29.1 34.25 29.25 34.15 29.35 34.1 29.6 34.2 29.7 34.5 L29.75 34.6" fill="#ffefb2" fill-rule="evenodd" stroke="none"/>
    <path d="M27.35 9.35 Q27.3 9.65 27.3 9.9 27.3 10.5 27.8 11.25 L28.15 11.75 28.3 11.8 Q28.55 11.85 28.6 12.1 L28.6 12.15 Q29.05 12.4 29.6 12.4 30.3 12.4 30.8 11.8 31.0 11.85 31.15 12.1 30.6 13.3 29.65 13.7 L29.9 13.6 Q31.15 13.3 31.7 14.35 32.1 15.1 31.7 15.4 L31.75 15.2 Q31.7 14.65 31.3 14.4 L31.4 14.3 Q31.5 14.1 31.4 13.95 31.0 13.55 30.4 13.55 30.1 13.65 30.35 13.95 L30.55 14.2 Q30.25 14.2 29.95 14.3 29.2 14.5 28.75 15.05 L28.6 15.3 Q28.15 15.55 27.5 15.65 26.6 15.85 26.1 16.65 26.4 17.35 26.35 18.15 26.35 19.1 25.65 19.9 25.05 20.55 24.3 20.7 L24.05 20.95 Q23.5 21.55 24.35 21.8 28.55 23.05 27.2 25.8 27.75 25.5 28.3 25.25 L28.9 25.25 28.6 25.45 Q28.45 25.6 28.45 25.85 28.45 26.0 28.6 26.0 L28.9 26.05 Q28.15 26.05 27.55 26.45 29.45 27.35 27.55 29.5 26.35 30.8 25.75 29.85 L25.75 29.95 Q25.7 30.25 25.8 30.55 L25.9 30.85 Q26.15 31.5 26.45 32.0 27.5 33.65 29.15 33.65 30.25 33.65 31.05 33.35 30.95 35.05 29.0 35.95 28.5 36.2 28.05 36.3 L28.1 36.3 Q29.45 36.35 30.35 37.25 29.85 36.9 29.15 36.85 28.3 36.85 27.75 37.35 27.55 37.55 27.45 37.75 27.0 37.15 26.35 36.65 25.85 36.3 25.3 35.95 24.6 36.3 23.95 36.5 23.35 36.7 23.3 37.4 24.15 36.65 25.5 36.8 26.0 36.9 26.45 37.2 25.9 41.1 22.6 38.15 21.6 37.3 22.35 36.1 22.8 35.4 23.55 35.1 23.1 34.9 22.65 34.75 22.85 34.05 23.5 33.9 25.0 33.5 25.4 32.25 26.1 30.0 25.05 28.1 24.8 27.7 24.55 27.35 L24.45 27.35 23.85 27.35 Q21.5 27.6 19.7 29.65 18.55 31.0 17.65 29.7 15.9 27.25 18.6 26.3 20.15 25.8 20.95 24.4 21.8 22.9 22.05 21.25 21.45 21.55 20.5 20.35 20.1 19.75 20.65 19.25 20.9 19.05 21.1 19.0 21.85 18.9 22.15 19.55 22.25 19.75 22.4 19.95 24.0 20.0 24.2 18.25 24.25 17.45 23.6 17.4 21.8 17.25 20.3 18.05 20.2 16.15 21.95 15.95 21.55 15.6 21.2 14.95 19.65 12.35 22.65 11.1 26.1 11.5 24.45 14.8 24.15 15.45 23.8 15.85 L23.95 15.8 Q24.8 15.15 25.35 14.1 25.6 13.6 26.0 13.3 L26.1 13.3 Q26.2 13.35 26.25 13.4 L26.35 13.45 Q26.45 13.75 26.5 14.05 26.75 13.55 26.8 13.0 26.95 13.15 27.2 13.2 28.55 13.55 28.95 12.5 28.85 12.3 28.65 12.35 L28.55 12.35 Q28.35 12.8 27.8 12.9 27.2 13.0 26.9 12.4 L26.85 12.35 Q26.85 12.25 26.9 12.15 L26.75 12.3 Q26.65 11.35 26.0 10.2 26.05 9.9 26.2 9.7 26.75 9.7 27.35 9.35 M30.85 40.65 L31.1 40.35 Q31.4 39.75 31.4 39.15 L31.35 38.85 Q31.95 40.35 31.45 41.8 L31.5 41.8 31.4 41.85 31.25 42.25 Q31.15 42.25 31.1 42.3 L31.05 42.35 30.95 42.35 31.0 41.85 Q30.95 41.2 30.85 40.65 M26.6 43.15 L25.8 43.2 25.35 43.25 25.3 43.25 Q24.8 42.85 24.0 43.3 L22.95 43.25 22.85 43.25 Q23.0 42.1 24.15 41.2 24.95 40.55 25.9 40.3 26.45 40.5 26.45 41.0 L26.5 41.75 Q26.75 41.85 27.05 42.1 27.4 42.35 27.3 42.75 L27.2 42.85 26.8 42.9 26.65 43.05 26.6 43.15 M14.05 42.55 L14.0 42.55 12.65 42.75 11.45 42.95 11.3 42.55 Q10.9 41.4 11.9 40.7 12.35 40.35 12.85 40.25 15.65 40.65 14.05 42.55 M7.8 43.05 L7.5 43.05 4.8 42.6 4.75 42.6 Q3.9 42.4 3.1 42.3 3.25 41.9 3.55 41.55 3.95 41.2 4.4 41.1 5.65 41.25 6.75 41.9 7.5 42.35 7.8 43.05 M1.05 41.75 L0.65 41.15 0.8 41.1 0.85 41.05 Q0.9 41.05 0.9 40.7 0.9 40.5 0.75 39.5 L0.65 38.75 Q1.2 38.0 2.25 37.8 2.75 37.7 3.25 37.75 1.9 37.15 0.95 37.2 1.05 37.05 1.25 36.85 1.5 36.55 1.65 36.3 2.2 36.1 2.75 35.8 5.3 34.2 4.2 31.9 1.65 32.75 0.5 30.0 -0.25 28.25 0.8 26.65 2.45 24.2 5.2 22.8 4.85 23.1 4.55 23.55 4.05 24.35 4.1 25.25 4.15 25.9 4.6 26.25 L5.55 26.1 Q5.35 25.65 5.4 25.05 5.5 23.6 6.8 23.1 L7.45 23.2 7.45 22.95 Q6.85 22.55 6.5 22.2 L6.35 22.2 6.45 22.15 Q4.7 20.4 7.45 18.9 9.05 18.05 8.85 16.55 6.95 16.65 6.25 14.05 5.95 13.1 6.35 12.5 6.5 13.2 6.85 13.85 6.9 12.25 8.8 11.7 11.3 10.95 10.95 9.15 8.7 8.1 6.4 9.55 6.1 9.15 6.35 8.75 6.8 8.15 7.45 7.8 L7.7 7.7 Q7.75 7.65 7.85 7.6 8.7 7.15 9.65 7.15 11.65 7.2 13.05 8.45 13.7 9.1 13.9 9.8 14.35 10.1 14.8 10.4 15.1 10.6 15.45 10.6 16.4 10.15 17.0 9.5 16.65 9.95 16.6 10.6 16.35 13.45 18.35 12.8 L18.4 12.85 Q19.1 13.8 18.6 14.85 L17.3 14.85 Q17.05 14.5 16.6 14.3 15.8 13.95 14.9 13.9 14.6 13.95 14.25 14.1 13.35 14.45 12.95 15.3 12.85 15.6 12.75 15.85 12.05 16.2 11.35 16.6 8.85 18.0 7.95 20.55 7.05 23.0 9.3 24.45 11.6 25.95 12.5 24.55 L12.55 24.6 Q12.65 24.8 12.8 24.85 13.0 24.9 13.15 24.75 14.35 28.05 11.8 31.05 L11.6 31.2 Q12.6 32.85 10.2 33.55 9.8 33.7 9.7 33.2 9.55 32.25 9.95 31.55 7.6 31.75 5.95 33.3 5.1 34.05 5.6 35.05 L5.75 35.35 Q5.9 34.9 6.15 34.5 6.9 33.1 8.6 32.65 9.1 33.65 7.6 34.65 6.8 35.2 6.55 36.15 9.65 34.95 9.0 38.6 8.35 41.9 5.9 40.05 5.65 39.85 5.5 39.65 L5.25 39.7 5.25 39.75 5.2 39.75 Q4.45 40.0 3.7 40.65 3.2 41.1 2.6 41.4 2.2 41.9 1.3 41.75 L1.05 41.75 M17.15 9.35 Q17.7 8.75 17.95 8.0 L18.0 7.9 Q18.35 7.35 18.3 6.95 18.3 6.4 17.8 6.15 L17.55 6.0 16.55 6.15 Q16.2 6.2 15.85 6.3 L15.75 6.45 Q15.35 6.85 15.3 7.45 L15.2 7.4 Q15.1 7.2 15.15 6.95 L15.05 6.95 Q14.9 6.8 14.95 6.5 15.05 6.0 15.35 5.6 L15.4 5.55 Q15.4 5.35 15.5 5.2 15.8 4.85 16.25 4.7 L16.45 4.6 17.55 4.7 Q17.3 4.65 17.05 4.7 L16.7 4.8 Q16.15 4.9 15.9 5.4 L15.85 5.6 Q16.25 5.35 16.7 5.25 L17.65 5.2 Q18.2 5.15 18.5 5.45 L18.5 5.3 Q18.5 5.15 18.45 5.05 18.95 5.35 19.4 5.85 L19.5 6.05 19.6 6.1 Q20.25 6.4 21.0 6.45 20.8 5.95 20.85 5.15 21.0 3.5 22.55 2.8 22.85 2.7 23.15 2.6 22.45 3.55 23.0 4.05 22.55 4.35 22.25 4.8 21.65 5.7 21.85 6.8 19.2 6.75 17.95 8.1 17.65 8.8 17.15 9.4 L17.15 9.35 M29.4 5.1 Q29.25 5.55 29.0 5.95 L28.85 6.1 28.65 6.2 27.9 6.1 Q27.75 5.85 27.85 5.5 28.05 4.9 28.4 4.45 28.45 4.45 28.5 4.4 L29.0 4.45 Q29.25 4.5 29.4 4.7 29.5 4.9 29.4 5.1 M25.5 7.0 Q25.8 7.65 25.3 8.2 24.8 8.7 24.2 8.35 24.05 7.8 24.3 7.45 24.65 7.0 25.05 6.85 L25.3 6.95 25.5 7.0 M23.35 9.3 Q23.5 9.0 23.75 8.95 24.4 9.05 24.0 9.6 23.75 9.95 23.35 9.65 23.3 9.45 23.35 9.3 M28.55 14.05 L28.8 14.05 Q29.1 13.9 29.4 13.8 L28.5 13.85 28.55 14.05 M23.35 18.45 Q23.45 18.7 23.4 18.95 23.3 19.1 23.15 19.15 22.75 19.2 22.4 19.15 22.3 18.95 22.25 18.7 22.2 18.15 22.65 18.0 22.9 17.95 23.05 18.05 23.15 18.1 23.25 18.2 L23.3 18.35 23.35 18.45 M23.5 24.45 Q23.7 24.15 23.7 23.8 23.7 23.25 23.15 23.2 22.75 23.3 22.7 23.8 22.65 24.15 22.85 24.4 L23.4 24.5 Q23.45 24.5 23.5 24.45 M26.0 23.9 L25.9 23.65 Q25.6 23.2 24.7 22.6 23.6 23.35 24.1 24.7 24.2 25.1 24.45 25.05 26.3 24.65 26.0 23.9 M12.2 13.55 Q12.35 13.25 12.35 12.8 12.3 12.4 12.1 12.25 L11.55 12.25 Q11.25 12.4 11.05 12.7 10.8 13.0 10.85 13.3 10.85 13.5 10.95 13.65 11.15 14.0 11.55 14.0 12.0 14.0 12.2 13.55 M22.7 8.45 Q22.85 8.85 22.65 9.25 22.35 9.75 22.25 10.35 22.1 10.6 21.7 10.5 L21.4 10.4 Q21.3 9.85 21.3 9.2 21.35 8.4 22.05 8.2 L22.3 8.25 22.55 8.35 22.7 8.45 M20.8 7.4 Q21.4 8.95 20.2 10.5 L19.7 11.15 Q17.95 13.25 17.7 10.35 17.5 8.7 19.0 7.75 19.55 7.4 20.15 7.35 L20.65 7.35 20.8 7.4 M8.7 8.45 Q9.4 8.6 10.25 8.55 L10.3 8.55 10.15 8.4 10.05 8.25 10.05 8.2 Q10.05 8.0 10.2 7.9 10.35 7.8 10.5 7.75 L10.95 7.8 Q11.25 7.85 11.4 8.1 L11.4 8.2 Q11.4 8.3 11.3 8.4 L11.5 8.35 Q11.45 7.8 10.9 7.55 10.2 7.15 9.4 7.3 L8.8 7.55 Q8.35 7.75 8.3 8.1 L8.3 8.3 8.5 8.4 8.7 8.45 M7.35 13.05 Q7.2 13.25 7.05 13.45 6.85 13.8 6.8 14.15 6.7 14.4 6.75 14.7 L7.0 15.1 Q7.25 15.45 7.6 15.1 7.65 14.6 7.85 14.15 8.15 13.35 7.75 12.8 7.55 12.9 7.35 13.05 M11.25 15.1 L11.3 15.55 Q11.45 16.0 11.7 16.0 12.0 16.0 12.2 15.7 12.4 15.35 12.4 15.05 12.4 14.7 11.8 14.7 11.25 14.65 11.25 15.1 M10.05 13.5 Q9.65 13.25 9.1 13.35 8.6 13.5 8.25 14.05 7.85 14.6 7.9 15.45 7.9 15.65 8.05 15.9 8.25 16.2 8.8 16.3 L9.1 16.3 Q9.75 16.3 10.2 15.55 10.5 14.95 10.5 14.55 10.45 13.85 10.05 13.5 M10.4 19.3 Q10.95 18.65 11.7 18.45 13.95 19.45 12.45 22.25 11.55 23.95 9.85 23.8 L9.75 23.7 Q9.65 23.6 9.65 23.45 10.05 23.5 10.5 23.15 11.7 22.25 11.1 21.55 L10.95 21.6 Q10.1 21.85 9.2 21.9 8.25 21.35 9.0 19.65 9.45 18.7 10.4 18.5 10.45 18.65 10.35 18.8 L9.9 19.4 Q9.8 19.55 9.7 19.75 10.05 19.75 10.4 19.3 M2.75 24.9 Q2.45 25.1 2.2 25.45 1.7 26.0 2.0 26.65 2.45 26.75 2.8 26.6 L2.5 26.5 Q2.25 26.45 2.15 26.2 2.1 25.95 2.3 25.8 2.5 25.7 2.7 25.65 L2.75 25.65 Q2.9 25.75 3.1 25.7 3.3 25.6 3.45 25.75 L3.6 25.85 Q4.0 25.2 3.5 24.8 3.4 24.7 3.2 24.6 L2.75 24.9 M4.35 28.2 Q3.75 27.45 3.0 27.25 2.25 27.0 1.75 27.55 1.2 28.2 1.3 29.75 L1.35 30.1 Q1.45 30.55 1.6 30.9 2.1 32.05 3.25 32.05 4.05 32.05 4.6 30.95 5.0 30.15 5.0 29.8 4.95 28.95 4.35 28.2 M10.75 27.9 Q10.7 28.65 10.4 29.3 L10.55 29.3 Q11.1 28.3 11.2 27.1 11.3 25.15 9.15 25.2 6.85 25.95 6.95 28.5 7.1 30.65 8.55 30.4 8.9 30.6 9.3 30.75 9.85 30.95 10.1 30.45 10.25 30.1 9.9 29.9 7.8 30.1 7.75 27.8 7.7 26.35 9.05 25.95 10.85 26.0 10.75 27.9 M19.2 18.5 L19.2 18.6 19.35 18.65 19.55 18.85 19.55 19.0 Q19.55 19.3 19.4 19.55 L19.2 19.9 Q18.85 20.35 18.25 20.1 L18.1 20.0 Q17.8 19.5 17.8 18.9 17.75 18.25 18.25 17.8 18.3 17.75 18.35 17.75 L18.7 17.75 19.0 17.9 19.1 18.0 19.15 18.15 19.2 18.5 M16.05 15.8 L16.0 16.15 16.0 16.25 Q15.85 16.4 15.6 16.5 15.35 16.6 15.15 16.4 14.85 16.15 15.0 15.75 15.15 15.35 15.5 15.3 L15.75 15.35 Q15.85 15.45 16.0 15.5 16.05 15.65 16.05 15.8 M13.95 16.45 Q16.25 17.2 14.3 19.15 13.3 20.2 13.3 18.7 13.3 18.4 13.5 18.15 L13.6 18.1 13.95 18.05 Q14.15 17.95 14.2 17.7 14.2 17.55 14.15 17.5 13.8 17.25 13.4 17.75 13.35 17.8 13.2 17.8 12.95 17.65 13.0 17.35 13.15 16.55 13.95 16.45 M13.05 23.8 Q13.0 23.6 13.0 23.45 13.0 23.05 13.35 23.0 14.05 23.15 13.65 23.75 13.35 24.2 13.05 23.8 M14.2 26.05 Q14.1 25.15 14.8 24.6 14.45 24.15 14.45 23.55 14.4 22.75 15.15 22.6 16.95 23.7 16.4 26.05 16.0 27.8 14.4 27.3 L14.2 26.05 M19.9 33.75 Q19.5 34.5 18.8 34.25 18.6 33.9 18.6 33.5 18.6 32.85 19.2 32.65 L19.2 32.6 19.65 32.65 20.0 32.75 Q20.2 33.3 19.9 33.75 M22.2 29.25 Q22.85 28.45 23.75 28.1 26.35 29.65 24.65 32.7 23.8 34.2 22.35 32.95 20.4 31.4 22.2 29.25 M16.35 30.5 Q15.75 31.3 14.9 31.8 13.9 31.4 14.3 30.25 14.7 29.2 15.6 28.8 L16.1 28.85 Q16.25 28.9 16.4 28.95 16.9 29.75 16.35 30.5 M17.15 30.7 Q19.7 31.9 17.35 34.25 16.35 35.25 16.0 34.0 15.3 31.8 17.15 30.7 M10.6 30.55 L10.6 30.65 Q11.1 31.15 11.55 30.65 11.65 30.4 11.6 30.1 11.5 29.8 11.2 29.7 10.95 29.75 10.7 29.95 10.45 30.2 10.6 30.55 M0.1 39.9 L0.2 40.45 0.0 40.15 0.1 39.9 M29.75 34.6 L29.8 34.3 Q29.7 34.1 29.45 34.1 L29.0 34.1 28.7 34.15 28.65 34.15 28.75 34.25 28.9 34.5 28.95 34.7 28.95 34.8 Q28.85 35.0 28.65 35.1 L28.1 35.05 28.0 35.0 Q28.35 35.65 29.15 35.2 L29.4 35.05 Q29.6 34.85 29.75 34.6" fill="#ff6e00" fill-rule="evenodd" stroke="none"/>
  </g>
</svg>
