<?xml version="1.0" encoding="UTF-8" standalone="no"?>
<svg xmlns:ffdec="https://www.free-decompiler.com/flash" xmlns:xlink="http://www.w3.org/1999/xlink" ffdec:objectType="shape" height="42.55px" width="33.15px" xmlns="http://www.w3.org/2000/svg">
  <g transform="matrix(1.0, 0.0, 0.0, 1.0, 0.0, 0.0)">
    <path d="M31.0 2.35 L30.9 2.35 Q30.8 2.3 30.75 2.2 L30.8 2.1 Q31.15 1.7 31.65 1.4 32.0 1.15 31.85 0.75 L31.85 0.7 31.75 0.65 Q32.15 0.75 32.5 1.3 L32.6 1.5 Q32.85 1.65 32.7 1.95 32.7 2.2 32.55 2.45 L32.45 2.8 32.3 3.05 Q32.1 3.0 31.8 3.05 31.45 3.15 31.15 3.5 L31.15 3.55 31.05 3.65 Q30.85 4.0 30.9 4.4 L30.9 4.85 Q31.0 5.25 31.45 5.25 32.2 5.25 32.6 4.75 32.9 4.4 32.85 4.0 L32.85 3.9 Q33.45 5.35 32.7 6.1 L32.75 6.05 Q33.1 5.55 32.55 5.35 32.3 5.4 32.1 5.6 31.8 5.9 31.8 6.25 32.0 6.45 32.25 6.4 L32.05 6.5 Q31.95 6.35 31.65 6.35 30.8 6.45 30.1 6.1 29.2 6.5 28.4 7.05 27.75 7.5 27.6 8.35 L27.9 9.1 27.85 9.15 27.9 9.15 Q28.65 11.95 25.15 12.75 24.7 12.85 24.2 12.6 23.7 12.35 23.4 12.0 22.55 12.7 21.55 13.4 20.25 14.3 20.45 16.1 16.25 17.45 17.65 21.85 18.4 24.35 20.35 22.65 22.9 20.4 23.4 24.15 23.8 26.95 21.2 27.8 19.7 28.3 18.35 27.25 17.65 26.7 16.9 27.2 15.45 28.25 15.5 29.15 L15.6 29.05 Q15.65 29.55 15.85 29.95 16.2 30.35 16.85 30.7 17.55 30.9 18.65 30.7 18.9 30.65 19.2 30.9 21.4 32.8 21.05 34.9 L21.55 34.75 Q24.2 35.0 24.65 37.0 24.5 37.1 24.35 37.2 L24.35 37.65 24.65 37.65 24.7 37.65 Q24.7 38.1 24.65 38.65 24.45 39.9 23.9 40.5 25.55 41.2 25.35 42.35 L22.9 42.5 22.9 42.2 Q22.8 40.95 21.55 40.75 L21.4 40.8 Q21.3 40.85 21.2 40.9 L21.0 40.7 Q21.15 39.35 20.3 38.25 19.1 36.75 16.9 37.35 16.75 37.35 16.6 37.45 14.5 38.75 15.05 41.2 15.2 41.85 15.45 42.3 L13.7 42.15 10.0 42.0 Q6.75 42.1 3.5 42.05 L3.65 41.9 Q5.8 38.6 1.7 38.65 1.4 38.75 1.15 38.85 L1.15 37.2 1.9 37.05 Q1.65 34.8 3.1 33.3 L3.15 33.3 3.35 33.05 3.4 33.05 3.7 32.75 Q5.7 31.15 7.9 30.8 5.5 27.0 9.15 24.4 11.05 23.0 13.45 22.9 14.55 22.85 14.85 21.8 13.9 21.8 12.6 21.2 9.75 19.8 10.15 16.5 10.55 13.45 13.55 12.6 15.2 12.6 16.6 13.4 17.55 13.9 18.5 13.65 L18.3 13.7 19.1 12.55 Q19.25 12.35 19.4 12.2 17.8 9.9 20.6 8.25 21.45 7.7 22.4 7.4 22.4 7.25 22.4 7.05 22.6 5.6 23.85 4.7 24.5 4.2 25.35 4.1 L25.3 3.9 Q25.25 3.65 25.3 3.45 25.4 3.25 25.55 3.15 L25.7 3.15 Q25.4 2.6 25.3 1.6 25.3 1.1 25.45 0.7 25.65 0.5 26.05 0.4 26.25 0.15 26.55 0.0 27.15 0.3 26.65 0.75 L26.5 0.9 Q26.3 1.05 26.15 1.25 25.8 1.65 25.85 2.1 25.85 2.4 26.0 2.6 L26.4 3.05 26.45 3.05 26.55 3.15 26.65 3.05 27.3 3.1 Q27.75 2.8 28.05 2.2 L28.4 2.2 Q28.9 2.05 29.4 1.7 L29.85 1.35 30.05 1.15 Q29.75 1.55 29.6 2.05 29.4 2.8 29.75 3.45 30.0 3.55 30.25 3.55 31.1 3.45 31.45 2.8 L31.4 2.7 Q31.55 2.7 31.7 2.6 32.0 2.45 32.15 2.15 L32.05 1.7 Q32.05 1.45 31.85 1.35 31.8 1.35 31.75 1.35 31.65 1.75 31.3 2.05 31.1 2.2 31.0 2.35 M30.1 4.45 Q30.05 4.1 29.65 4.05 29.35 4.15 29.1 4.45 28.95 4.6 29.0 4.85 29.3 5.55 30.05 5.0 30.15 4.75 30.1 4.45 M26.55 3.45 Q26.6 2.95 26.1 2.95 25.95 3.0 25.85 3.05 L25.65 3.2 25.65 3.65 25.7 3.85 26.2 3.95 Q26.5 3.75 26.55 3.45 M28.25 2.9 Q28.15 2.95 28.05 3.0 L27.85 3.15 27.8 3.25 Q27.7 3.6 27.85 3.85 28.05 4.15 28.35 4.1 28.75 4.0 28.9 3.6 28.95 3.5 28.95 3.35 28.85 3.1 28.65 3.0 28.45 2.95 28.25 2.9 M24.15 0.3 L24.25 0.25 Q24.8 0.4 24.55 0.9 24.3 1.25 24.0 1.0 23.9 0.8 23.9 0.65 23.95 0.4 24.15 0.3 M26.9 3.95 L26.7 3.95 Q26.05 4.1 25.9 4.75 25.7 5.9 26.8 5.95 27.25 5.6 27.4 5.0 27.5 4.5 27.2 4.1 L26.9 3.95 M28.0 4.1 Q27.2 4.55 28.05 4.35 28.65 4.25 28.0 4.1 M24.4 5.1 Q23.3 5.55 23.45 6.75 23.8 9.2 25.65 7.15 25.95 6.85 25.65 6.65 24.15 5.45 24.45 7.4 23.7 7.2 24.15 6.45 24.5 5.85 24.95 5.35 L24.9 5.3 24.65 5.15 24.4 5.1 M30.6 14.8 Q31.0 15.2 31.25 15.85 L31.4 16.3 Q31.3 17.25 30.6 17.35 L30.4 17.0 30.3 16.55 Q30.5 16.85 30.85 16.95 31.15 16.7 31.1 16.25 31.05 15.65 30.6 15.35 30.2 15.45 30.2 16.0 L30.25 16.35 30.05 16.0 30.0 15.9 Q29.7 15.05 30.4 14.75 L30.6 14.8 M31.4 17.7 L31.4 17.85 31.35 18.15 31.25 18.25 Q30.9 18.7 30.45 18.3 30.4 18.05 30.5 17.85 30.7 17.55 30.95 17.5 31.3 17.55 31.4 17.7 M26.95 26.8 L27.05 26.8 27.1 26.85 27.2 26.9 27.3 27.1 27.15 27.1 26.85 27.05 26.05 27.1 25.95 27.1 28.0 27.35 Q27.8 27.5 27.6 27.65 27.4 27.9 27.4 28.15 27.45 28.35 27.6 28.45 27.25 28.45 26.95 28.65 L26.35 28.8 26.45 28.5 Q26.65 27.7 25.95 27.55 25.45 27.65 25.25 28.2 L25.2 28.25 Q25.15 27.95 25.2 27.65 25.4 26.7 26.55 26.8 L26.7 26.75 26.9 26.8 26.95 26.8 M27.85 27.05 L28.3 27.2 Q28.15 27.25 28.0 27.3 L28.05 27.35 27.8 27.2 27.55 27.15 27.5 27.15 Q27.65 27.05 27.85 27.05 M28.95 27.45 L29.2 27.55 29.4 27.65 29.45 27.65 Q29.45 27.85 29.4 28.05 L28.85 28.15 29.05 28.0 Q29.15 27.7 28.95 27.45 M23.65 10.45 Q23.65 10.05 23.2 10.1 L23.2 10.15 Q22.85 10.15 22.9 10.5 22.9 11.0 23.45 10.85 23.7 10.7 23.65 10.45 M26.2 13.8 L26.25 13.7 Q26.6 13.05 27.15 12.8 L27.4 12.85 27.7 12.95 Q27.9 13.4 27.65 13.8 27.4 14.35 27.1 14.85 L26.55 14.9 Q26.7 14.7 26.75 14.45 26.8 14.2 26.7 14.0 L26.45 13.85 26.2 13.8 M24.8 11.7 Q25.45 12.95 26.45 12.0 28.7 9.75 26.1 8.95 25.15 9.35 24.75 10.25 24.45 11.0 24.8 11.7 M20.1 6.75 Q20.25 6.95 20.3 7.2 20.15 7.5 19.85 7.55 19.5 7.6 19.25 7.35 L19.2 7.1 Q19.15 6.85 19.35 6.65 19.45 6.6 19.5 6.55 19.9 6.5 20.1 6.75 M14.75 4.25 Q14.35 4.15 14.45 3.5 14.5 3.1 14.85 2.95 15.05 3.1 15.2 3.25 14.85 3.75 14.75 4.25 M14.5 8.35 Q15.05 8.3 15.1 8.85 15.15 9.25 15.0 9.55 L14.85 9.65 Q14.55 9.7 14.25 9.65 14.15 9.4 14.15 9.15 14.05 8.55 14.5 8.35 M15.35 7.65 Q15.9 8.05 15.25 7.9 14.85 7.8 15.35 7.65 M12.95 11.1 L13.0 11.35 13.0 11.45 12.95 11.5 12.95 11.6 12.75 11.9 12.7 11.9 12.6 12.0 Q12.3 12.2 12.0 11.9 11.9 11.7 11.85 11.55 11.8 11.3 11.9 11.1 12.0 11.0 12.1 10.95 12.3 10.8 12.45 10.75 12.75 10.75 12.9 11.0 L12.95 11.1 M22.4 9.05 Q21.8 9.3 21.45 9.85 21.05 10.5 21.15 11.25 21.95 11.5 22.5 10.75 23.3 9.65 22.4 9.05 M21.1 10.05 Q21.65 9.45 21.75 8.75 21.65 8.6 21.4 8.6 L20.95 8.6 Q19.8 8.9 19.35 10.05 18.75 11.65 20.25 11.55 20.55 10.7 21.1 10.05 M16.85 14.0 L16.5 13.9 16.15 13.85 16.15 13.9 Q15.6 14.1 15.55 14.75 15.5 15.1 15.65 15.35 16.45 15.7 16.8 14.95 17.0 14.45 16.85 14.0 M7.7 9.85 Q7.7 9.8 7.75 9.7 7.85 9.5 8.05 9.45 8.75 9.55 8.25 9.95 7.85 10.3 7.7 9.85 M8.1 15.2 L8.1 15.25 8.15 15.5 8.25 16.1 Q8.05 16.55 7.55 16.3 L7.45 16.25 Q7.2 15.85 7.2 15.4 7.2 14.9 7.55 14.7 7.95 14.8 8.1 15.2 M11.5 18.85 Q11.1 18.95 11.25 19.4 11.45 20.25 12.2 20.1 12.35 19.75 12.25 19.4 12.05 18.85 11.5 18.85 M7.6 15.2 Q7.25 15.25 7.35 15.6 7.6 16.3 8.1 15.8 8.2 15.55 8.0 15.4 7.85 15.25 7.6 15.2 M10.7 17.3 Q10.85 18.0 11.55 18.0 13.6 18.05 14.55 16.0 15.8 13.25 12.95 12.9 10.15 14.2 10.7 17.3 M4.65 22.0 L4.6 21.85 4.6 21.65 4.8 21.5 Q4.95 21.35 5.05 21.35 5.75 21.5 5.35 22.1 5.1 22.5 4.7 22.2 L4.65 22.0 M2.2 24.95 Q2.05 24.4 2.25 23.8 2.55 22.9 3.3 22.45 3.4 22.5 3.55 22.55 L3.65 22.45 3.8 22.5 3.8 22.55 3.9 22.5 Q4.15 22.45 4.25 22.65 L4.1 22.6 4.0 22.6 Q3.55 22.75 3.25 23.2 2.9 23.8 3.3 24.3 3.45 24.4 3.65 24.4 L3.55 24.55 Q3.3 25.1 2.8 25.5 L2.3 25.4 2.35 25.35 Q2.75 25.55 3.0 25.05 3.35 24.35 2.7 24.15 L2.55 24.2 2.45 24.25 2.35 24.35 2.3 24.45 2.2 24.95 M11.25 24.4 L10.55 24.35 Q9.5 24.55 8.65 25.3 7.2 26.55 8.1 28.2 8.25 28.5 8.55 28.5 9.7 28.4 10.4 28.0 L10.45 28.25 Q11.4 28.6 11.95 27.65 12.45 26.8 12.3 25.95 L12.0 25.85 11.75 25.8 Q11.75 25.2 11.6 24.5 L11.25 24.4 M9.15 23.95 Q8.5 24.05 8.6 23.45 8.65 23.15 8.9 23.1 9.35 23.15 9.35 23.55 9.35 23.8 9.15 23.95 M7.85 22.9 Q7.95 22.95 8.05 23.05 L8.1 23.4 Q7.95 23.3 7.7 23.35 7.25 23.5 7.25 24.1 7.2 24.55 7.6 24.7 7.2 25.1 6.7 24.7 6.3 24.1 6.75 23.5 7.1 23.0 7.55 22.8 L7.85 22.9 M21.35 19.15 Q20.95 19.35 20.45 19.05 20.2 18.65 20.4 18.15 20.6 17.55 21.2 17.35 L21.4 17.4 21.7 17.4 Q22.15 17.95 21.9 18.45 21.95 18.25 21.8 18.1 L21.55 18.0 21.2 17.9 20.85 18.05 20.75 18.25 Q20.65 18.5 20.8 18.75 21.0 19.1 21.35 19.15 M19.25 24.55 Q19.15 24.35 18.95 24.3 L18.7 24.2 18.65 24.2 18.45 24.3 18.4 24.3 18.3 24.4 Q18.15 24.75 18.15 25.1 18.15 25.75 18.8 25.8 L18.85 25.75 Q19.05 25.45 19.2 25.1 19.35 24.8 19.25 24.55 M16.1 16.15 Q15.95 16.05 15.8 16.05 L15.45 16.0 Q14.7 16.25 14.1 16.9 13.5 17.6 13.5 18.5 14.6 19.3 15.55 18.35 16.45 17.4 16.1 16.15 M18.95 27.05 Q19.05 27.5 19.5 27.65 19.85 27.65 20.05 27.35 20.1 27.25 20.1 27.1 20.15 26.85 19.9 26.75 L19.3 26.45 Q18.85 26.55 18.95 27.05 M20.0 25.95 Q21.2 28.3 22.8 25.6 24.4 22.95 21.4 22.9 20.25 23.25 19.85 24.4 19.6 25.2 20.0 25.95 M13.75 32.4 Q13.8 32.65 14.0 32.85 14.3 33.2 14.9 33.05 15.7 32.3 15.6 31.3 15.45 29.7 13.55 30.0 12.95 30.05 12.65 30.5 12.35 30.95 12.4 31.45 L12.45 31.6 12.55 31.4 Q12.6 31.15 12.85 31.1 13.2 31.1 13.55 31.25 13.8 31.3 13.8 31.6 L13.75 31.7 13.75 31.8 13.7 31.9 13.7 32.25 13.45 32.25 Q12.75 32.3 12.35 32.85 11.85 33.5 11.95 34.6 11.95 34.85 12.05 35.0 L12.75 35.65 14.1 35.65 Q14.3 35.65 14.4 35.5 L14.5 35.3 15.25 35.25 15.1 35.25 Q14.8 35.3 14.8 35.1 L14.8 34.95 14.85 35.05 14.95 34.95 15.55 35.0 Q16.3 35.0 16.95 34.45 17.45 33.95 17.45 33.55 17.4 32.95 16.9 32.7 16.65 32.55 16.35 32.5 16.0 32.85 15.35 33.2 13.85 34.0 13.75 32.45 L13.75 32.4 M10.35 30.0 Q10.3 29.85 10.2 29.75 10.0 29.55 9.7 29.5 9.75 29.2 9.5 29.1 9.2 29.0 8.9 29.0 L8.55 29.1 Q7.95 29.3 7.85 29.85 7.75 30.3 7.95 30.65 8.55 31.15 9.2 30.75 L10.35 30.0 M23.1 35.75 Q22.65 35.85 22.9 36.3 23.4 37.25 24.2 36.7 24.3 36.55 24.15 36.5 23.85 36.35 23.85 36.0 L23.75 35.85 23.45 35.75 23.1 35.75 M5.3 32.6 Q3.7 33.15 3.45 34.8 3.25 36.2 4.55 35.45 7.35 33.9 5.3 32.6 M7.6 32.15 L7.35 32.05 Q6.9 32.1 6.9 32.55 6.85 33.1 7.35 33.25 7.8 33.25 7.9 32.85 8.0 32.6 7.9 32.4 7.8 32.2 7.6 32.15 M8.4 40.9 Q8.4 41.25 8.6 41.45 9.0 41.85 9.65 41.6 L9.7 41.55 10.0 41.2 Q10.2 40.8 10.35 40.4 10.4 40.3 10.4 40.15 10.3 39.85 10.0 39.75 9.65 39.65 9.25 39.65 9.1 39.65 8.95 39.75 8.35 40.15 8.4 40.9 M10.8 38.6 Q10.65 38.6 10.5 38.75 L10.35 38.95 10.35 39.3 10.4 39.5 Q10.8 39.85 11.05 39.45 11.55 38.8 10.8 38.6 M25.45 30.45 L25.35 30.4 Q24.95 30.5 24.7 30.9 24.5 31.3 24.65 31.6 L24.6 31.6 Q24.25 31.2 24.4 30.7 24.55 30.25 25.0 30.1 25.3 30.2 25.45 30.45 M27.25 33.15 L27.0 33.1 27.5 33.1 Q28.0 33.2 28.25 33.6 L28.55 34.25 Q28.05 34.95 27.3 35.3 26.75 35.55 26.15 35.2 25.7 34.5 26.1 33.8 26.25 33.5 26.5 33.3 26.4 33.6 26.35 34.05 26.35 34.35 26.55 34.6 L26.65 34.65 Q27.25 34.95 27.6 34.6 27.65 34.5 27.65 34.35 L27.7 33.7 Q27.7 33.55 27.65 33.35 27.5 33.2 27.25 33.15 M27.2 42.15 Q27.2 41.55 27.5 40.95 27.8 40.35 28.35 40.15 29.1 40.9 28.4 41.95 L28.25 42.15 28.15 42.05 27.2 42.15" fill="#ffcc00" fill-rule="evenodd" stroke="none"/>
    <path d="M31.75 0.65 L31.85 0.7 31.85 0.75 Q32.0 1.15 31.65 1.4 31.15 1.7 30.8 2.1 L30.75 2.2 Q30.8 2.3 30.9 2.35 L31.0 2.35 30.9 2.55 Q31.1 2.75 31.4 2.7 L31.45 2.8 Q31.1 3.45 30.25 3.55 30.0 3.55 29.75 3.45 29.4 2.8 29.6 2.05 29.75 1.55 30.05 1.15 30.45 0.85 30.95 0.75 L31.05 0.7 31.6 0.6 31.75 0.65 M32.25 6.4 Q32.0 6.45 31.8 6.25 31.8 5.9 32.1 5.6 32.3 5.4 32.55 5.35 33.1 5.55 32.75 6.05 L32.7 6.1 32.3 6.4 32.25 6.4 M30.1 4.45 Q30.15 4.75 30.05 5.0 29.3 5.55 29.0 4.85 28.95 4.6 29.1 4.45 29.35 4.15 29.65 4.05 30.05 4.1 30.1 4.45 M26.55 3.45 Q26.5 3.75 26.2 3.95 L25.7 3.85 25.65 3.65 25.65 3.2 25.85 3.05 Q25.95 3.0 26.1 2.95 26.6 2.95 26.55 3.45 M28.25 2.9 Q28.45 2.95 28.65 3.0 28.85 3.1 28.95 3.35 28.95 3.5 28.9 3.6 28.75 4.0 28.35 4.1 28.05 4.15 27.85 3.85 27.7 3.6 27.8 3.25 L27.85 3.15 28.05 3.0 Q28.15 2.95 28.25 2.9 M30.3 16.55 L30.25 16.35 30.2 16.0 Q30.2 15.45 30.6 15.35 31.05 15.65 31.1 16.25 31.15 16.7 30.85 16.95 30.5 16.85 30.3 16.55 M28.3 27.2 L28.4 27.2 28.8 27.4 28.9 27.4 28.95 27.45 Q29.15 27.7 29.05 28.0 L28.85 28.15 27.75 28.45 27.7 28.45 27.6 28.45 Q27.45 28.35 27.4 28.15 27.4 27.9 27.6 27.65 27.8 27.5 28.0 27.35 L28.05 27.35 28.0 27.3 Q28.15 27.25 28.3 27.2 M7.6 15.2 Q7.85 15.25 8.0 15.4 8.2 15.55 8.1 15.8 7.6 16.3 7.35 15.6 7.25 15.25 7.6 15.2 M11.5 18.85 Q12.05 18.85 12.25 19.4 12.35 19.75 12.2 20.1 11.45 20.25 11.25 19.4 11.1 18.95 11.5 18.85 M2.2 24.95 L2.3 24.45 2.35 24.35 2.45 24.25 2.55 24.2 2.7 24.15 Q3.35 24.35 3.0 25.05 2.75 25.55 2.35 25.35 L2.35 25.3 2.2 24.95 M21.9 18.45 L21.75 18.8 21.7 18.85 21.4 19.1 21.35 19.15 Q21.0 19.1 20.8 18.75 20.65 18.5 20.75 18.25 L20.85 18.05 21.2 17.9 21.55 18.0 21.8 18.1 Q21.95 18.25 21.9 18.45 M18.95 27.05 Q18.85 26.55 19.3 26.45 L19.9 26.75 Q20.15 26.85 20.1 27.1 20.1 27.25 20.05 27.35 19.85 27.65 19.5 27.65 19.05 27.5 18.95 27.05 M23.1 35.75 L23.45 35.75 23.75 35.85 23.85 36.0 Q23.85 36.35 24.15 36.5 24.3 36.55 24.2 36.7 23.4 37.25 22.9 36.3 22.65 35.85 23.1 35.75 M10.35 30.0 L9.2 30.75 Q8.55 31.15 7.95 30.65 7.75 30.3 7.85 29.85 7.95 29.3 8.55 29.1 L8.9 29.0 Q9.2 29.0 9.5 29.1 9.75 29.2 9.7 29.5 10.0 29.55 10.2 29.75 10.3 29.85 10.35 30.0 M25.45 30.45 Q25.55 30.6 25.55 30.9 25.5 31.3 25.25 31.6 L24.7 31.65 24.65 31.65 24.65 31.6 Q24.5 31.3 24.7 30.9 24.95 30.5 25.35 30.4 L25.45 30.45" fill="#ffefb2" fill-rule="evenodd" stroke="none"/>
    <path d="M31.0 2.35 Q31.1 2.2 31.3 2.05 31.65 1.75 31.75 1.35 31.8 1.35 31.85 1.35 32.05 1.45 32.05 1.7 L32.15 2.15 Q32.0 2.45 31.7 2.6 31.55 2.7 31.4 2.7 31.1 2.75 30.9 2.55 L31.0 2.35 M26.65 3.05 L26.55 3.15 26.45 3.05 26.65 3.05 M25.45 0.7 Q25.3 1.1 25.3 1.6 25.4 2.6 25.7 3.15 L25.55 3.15 Q25.4 3.25 25.3 3.45 25.25 3.65 25.3 3.9 L25.35 4.1 Q24.5 4.2 23.85 4.7 22.6 5.6 22.4 7.05 22.4 7.25 22.4 7.4 21.45 7.7 20.6 8.25 17.8 9.9 19.4 12.2 19.25 12.35 19.1 12.55 L18.3 13.7 18.5 13.65 Q17.55 13.9 16.6 13.4 15.2 12.6 13.55 12.6 10.55 13.45 10.15 16.5 9.75 19.8 12.6 21.2 13.9 21.8 14.85 21.8 14.55 22.85 13.45 22.9 11.05 23.0 9.15 24.4 5.5 27.0 7.9 30.8 5.7 31.15 3.7 32.75 L3.4 33.05 Q4.2 32.1 4.15 30.55 4.15 29.55 3.4 28.75 -0.1 25.0 3.8 21.55 5.9 19.7 8.5 18.5 9.3 18.1 9.6 17.4 8.85 17.25 8.0 16.75 6.55 15.9 7.3 14.5 7.5 14.15 7.85 14.3 8.15 14.5 8.1 14.9 L8.1 15.2 Q7.95 14.8 7.55 14.7 7.2 14.9 7.2 15.4 7.2 15.85 7.45 16.25 L7.55 16.3 Q8.05 16.55 8.25 16.1 L8.15 15.5 Q8.3 15.95 8.75 16.2 9.15 16.4 9.15 16.15 8.55 13.55 10.5 11.45 11.4 10.5 10.15 10.35 L9.35 10.5 Q9.2 10.25 8.85 10.15 7.75 10.1 7.35 10.75 7.05 11.15 7.1 11.75 L7.25 12.5 Q7.3 12.75 7.45 12.9 L7.1 12.6 Q6.8 12.3 6.45 12.05 L6.45 11.55 Q6.4 11.1 6.5 10.75 6.7 10.05 7.35 9.6 7.55 9.45 7.8 9.35 L8.6 9.1 Q10.25 9.05 11.9 9.2 12.95 9.3 13.6 9.85 L13.75 9.85 Q13.05 8.6 15.15 7.4 17.85 5.85 21.25 6.45 21.95 6.55 22.1 5.8 L22.15 5.6 Q21.95 4.7 22.95 3.95 23.9 3.3 25.15 3.25 25.45 2.45 25.3 1.65 25.15 1.05 25.45 0.7 M3.15 33.3 L3.1 33.3 Q1.65 34.8 1.9 37.05 L1.15 37.2 0.0 36.35 Q2.4 33.95 3.15 33.3 M1.15 38.85 Q1.4 38.75 1.7 38.65 5.8 38.6 3.65 41.9 L3.5 42.05 1.15 42.0 1.15 38.85 M15.45 42.3 Q15.2 41.85 15.05 41.2 14.5 38.75 16.6 37.45 16.75 37.35 16.9 37.35 19.1 36.75 20.3 38.25 21.15 39.35 21.0 40.7 L21.2 40.9 Q21.3 40.85 21.4 40.8 L21.55 40.75 Q22.8 40.95 22.9 42.2 L22.9 42.5 22.25 42.55 19.7 42.55 15.45 42.3 M25.35 42.35 Q25.55 41.2 23.9 40.5 24.45 39.9 24.65 38.65 24.7 38.1 24.7 37.65 L24.65 37.65 Q26.75 37.8 28.15 39.4 29.2 40.55 28.75 42.1 L28.65 42.15 28.25 42.15 28.4 41.95 Q29.1 40.9 28.35 40.15 27.8 40.35 27.5 40.95 27.2 41.55 27.2 42.15 L25.35 42.35 M24.65 37.0 Q24.2 35.0 21.55 34.75 L21.05 34.9 Q21.4 32.8 19.2 30.9 18.9 30.65 18.65 30.7 17.55 30.9 16.85 30.7 16.2 30.35 15.85 29.95 15.65 29.55 15.6 29.05 L15.5 29.15 Q15.45 28.25 16.9 27.2 17.65 26.7 18.35 27.25 19.7 28.3 21.2 27.8 23.8 26.95 23.4 24.15 22.9 20.4 20.35 22.65 18.4 24.35 17.65 21.85 16.25 17.45 20.45 16.1 20.25 14.3 21.55 13.4 22.55 12.7 23.4 12.0 23.7 12.35 24.2 12.6 24.7 12.85 25.15 12.75 28.65 11.95 27.9 9.15 L28.15 9.3 Q28.2 9.5 28.3 9.7 28.65 10.45 29.65 10.45 30.1 10.45 30.55 9.95 30.75 9.95 30.8 10.15 30.4 10.7 29.75 11.2 29.5 11.75 28.7 12.0 27.9 12.3 27.4 12.35 28.6 12.9 28.3 14.1 L28.25 14.4 28.35 14.4 28.55 14.35 Q29.85 14.15 30.6 14.8 L30.4 14.75 Q29.7 15.05 30.0 15.9 L30.05 16.0 29.8 15.75 Q29.2 15.25 28.45 15.5 28.15 15.6 27.9 15.8 L27.4 15.8 Q26.55 15.8 25.9 16.25 21.6 19.1 24.35 23.75 25.25 25.25 24.4 26.4 25.7 26.5 26.95 26.8 L26.9 26.8 26.7 26.75 26.55 26.8 Q25.4 26.7 25.2 27.65 25.15 27.95 25.2 28.25 L25.25 28.2 Q25.45 27.65 25.95 27.55 26.65 27.7 26.45 28.5 L26.35 28.8 26.95 28.65 Q26.75 28.75 26.6 28.95 26.05 29.6 26.1 30.9 L26.2 31.25 Q26.3 31.65 26.5 32.0 27.1 33.05 28.3 33.05 29.15 33.05 29.6 31.75 29.9 30.9 29.9 30.35 29.85 29.6 29.25 29.05 28.65 28.5 27.9 28.45 L27.7 28.45 27.75 28.45 28.85 28.15 29.4 28.05 Q29.45 27.85 29.45 27.65 30.0 27.95 30.05 28.65 30.55 34.5 25.0 36.8 24.8 36.9 24.65 37.0 M27.9 9.1 L27.6 8.35 Q27.75 7.5 28.4 7.05 29.2 6.5 30.1 6.1 30.8 6.45 31.65 6.35 31.95 6.35 32.05 6.5 31.4 6.8 30.4 6.9 28.2 7.15 27.9 9.1 M32.3 3.05 L32.45 2.8 32.4 3.0 32.5 3.15 32.3 3.05 M24.4 5.1 L24.65 5.15 24.9 5.3 24.95 5.35 Q24.5 5.85 24.15 6.45 23.7 7.2 24.45 7.4 24.15 5.45 25.65 6.65 25.95 6.85 25.65 7.15 23.8 9.2 23.45 6.75 23.3 5.55 24.4 5.1 M28.0 4.1 Q28.65 4.25 28.05 4.35 27.2 4.55 28.0 4.1 M26.9 3.95 L27.2 4.1 Q27.5 4.5 27.4 5.0 27.25 5.6 26.8 5.95 25.7 5.9 25.9 4.75 26.05 4.1 26.7 3.95 L26.9 3.95 M31.4 16.3 Q31.5 16.9 31.35 17.45 L31.4 17.7 Q31.3 17.55 30.95 17.5 30.7 17.55 30.5 17.85 30.4 18.05 30.45 18.3 30.9 18.7 31.25 18.25 L31.35 18.15 Q31.2 18.6 30.75 19.0 30.45 19.35 30.1 19.35 30.5 18.1 30.45 17.4 L30.4 17.0 30.6 17.35 Q31.3 17.25 31.4 16.3 M27.05 26.8 L27.85 27.05 Q27.65 27.05 27.5 27.15 L27.3 27.1 27.2 26.9 27.1 26.85 27.05 26.8 M23.65 10.45 Q23.7 10.7 23.45 10.85 22.9 11.0 22.9 10.5 22.85 10.15 23.2 10.15 L23.2 10.1 Q23.65 10.05 23.65 10.45 M26.2 13.8 L26.45 13.85 26.7 14.0 Q26.8 14.2 26.75 14.45 26.7 14.7 26.55 14.9 L27.1 14.85 Q27.4 14.35 27.65 13.8 27.9 13.4 27.7 12.95 L27.4 12.85 27.15 12.8 Q26.6 13.05 26.25 13.7 L26.2 13.8 M24.8 11.7 Q24.45 11.0 24.75 10.25 25.15 9.35 26.1 8.95 28.7 9.75 26.45 12.0 25.45 12.95 24.8 11.7 M20.1 6.75 Q19.9 6.5 19.5 6.55 19.45 6.6 19.35 6.65 19.15 6.85 19.2 7.1 L19.25 7.35 Q19.5 7.6 19.85 7.55 20.15 7.5 20.3 7.2 20.25 6.95 20.1 6.75 M15.35 7.65 Q14.85 7.8 15.25 7.9 15.9 8.05 15.35 7.65 M14.5 8.35 Q14.05 8.55 14.15 9.15 14.15 9.4 14.25 9.65 14.55 9.7 14.85 9.65 L15.0 9.55 Q15.15 9.25 15.1 8.85 15.05 8.3 14.5 8.35 M15.7 9.5 L16.2 10.15 Q15.75 10.6 15.6 10.9 15.5 11.2 15.5 11.55 15.5 11.85 15.6 11.95 L16.05 12.4 17.2 12.4 Q17.75 12.4 18.05 11.95 17.3 12.15 17.3 11.3 17.3 9.35 19.05 8.65 L19.35 8.9 19.45 8.7 Q19.4 7.95 18.8 7.55 18.2 7.2 17.4 7.3 16.65 7.35 16.1 7.8 15.5 8.3 15.55 9.0 15.55 9.3 15.7 9.5 M12.95 11.1 L12.9 11.0 Q12.75 10.75 12.45 10.75 12.3 10.8 12.1 10.95 12.0 11.0 11.9 11.1 11.8 11.3 11.85 11.55 11.9 11.7 12.0 11.9 12.3 12.2 12.6 12.0 L12.7 11.9 12.75 11.9 12.95 11.6 12.95 11.5 13.0 11.45 13.0 11.35 12.95 11.1 M16.85 14.0 Q17.0 14.45 16.8 14.95 16.45 15.7 15.65 15.35 15.5 15.1 15.55 14.75 15.6 14.1 16.15 13.9 L16.15 13.85 16.5 13.9 16.85 14.0 M21.1 10.05 Q20.55 10.7 20.25 11.55 18.75 11.65 19.35 10.05 19.8 8.9 20.95 8.6 L21.4 8.6 Q21.65 8.6 21.75 8.75 21.65 9.45 21.1 10.05 M22.4 9.05 Q23.3 9.65 22.5 10.75 21.95 11.5 21.15 11.25 21.05 10.5 21.45 9.85 21.8 9.3 22.4 9.05 M7.7 9.85 Q7.85 10.3 8.25 9.95 8.75 9.55 8.05 9.45 7.85 9.5 7.75 9.7 7.7 9.8 7.7 9.85 M10.7 17.3 Q10.15 14.2 12.95 12.9 15.8 13.25 14.55 16.0 13.6 18.05 11.55 18.0 10.85 18.0 10.7 17.3 M9.5 20.55 Q8.6 20.35 7.35 20.9 6.15 21.5 5.35 22.55 4.45 23.7 4.5 25.0 4.5 25.2 4.55 25.25 L4.45 25.25 Q3.85 25.45 3.45 26.0 3.0 26.55 3.0 27.25 L3.05 27.55 Q3.1 27.9 3.2 28.15 3.5 29.0 4.4 29.0 5.25 29.0 5.7 28.05 6.1 27.3 6.1 26.65 6.05 25.75 5.55 25.4 L5.35 25.25 5.65 25.05 Q5.6 24.7 5.7 24.25 5.95 22.45 7.75 22.2 9.95 22.4 9.65 23.6 9.9 23.4 10.15 22.9 10.5 22.2 10.5 21.95 10.45 20.8 9.5 20.55 M4.65 22.0 L4.7 22.2 Q5.1 22.5 5.35 22.1 5.75 21.5 5.05 21.35 4.95 21.35 4.8 21.5 L4.6 21.65 4.6 21.85 4.65 22.0 M2.35 25.35 L2.3 25.4 2.8 25.5 Q3.3 25.1 3.55 24.55 L3.65 24.4 Q3.45 24.4 3.3 24.3 2.9 23.8 3.25 23.2 3.55 22.75 4.0 22.6 L4.1 22.6 4.25 22.65 Q4.15 22.45 3.9 22.5 L3.8 22.55 3.8 22.5 3.65 22.45 3.55 22.55 Q3.4 22.5 3.3 22.45 2.55 22.9 2.25 23.8 2.05 24.4 2.2 24.95 L2.35 25.3 2.35 25.35 M11.25 24.4 L11.6 24.5 Q11.75 25.2 11.75 25.8 L12.0 25.85 12.3 25.95 Q12.45 26.8 11.95 27.65 11.4 28.6 10.45 28.25 L10.4 28.0 Q9.7 28.4 8.55 28.5 8.25 28.5 8.1 28.2 7.2 26.55 8.65 25.3 9.5 24.55 10.55 24.35 L11.25 24.4 M7.85 22.9 L7.55 22.8 Q7.1 23.0 6.75 23.5 6.3 24.1 6.7 24.7 7.2 25.1 7.6 24.7 7.2 24.55 7.25 24.1 7.25 23.5 7.7 23.35 7.95 23.3 8.1 23.4 L8.05 23.05 Q7.95 22.95 7.85 22.9 M9.15 23.95 Q9.35 23.8 9.35 23.55 9.35 23.15 8.9 23.1 8.65 23.15 8.6 23.45 8.5 24.05 9.15 23.95 M21.65 17.2 L21.85 17.25 Q22.25 17.85 22.4 18.3 22.45 18.2 22.45 18.05 22.4 17.3 21.8 16.95 21.3 16.6 20.55 16.75 19.85 16.85 19.35 17.35 18.8 17.9 18.85 18.65 18.85 19.1 19.2 19.4 L20.05 20.3 20.05 20.25 Q20.05 20.0 19.8 19.7 20.3 19.65 20.55 19.25 20.4 19.15 20.35 18.9 20.0 17.45 21.45 17.2 L21.65 17.2 M21.9 18.45 Q22.15 17.95 21.7 17.4 L21.4 17.4 21.2 17.35 Q20.6 17.55 20.4 18.15 20.2 18.65 20.45 19.05 20.95 19.35 21.35 19.15 L21.4 19.1 21.7 18.85 21.75 18.8 21.9 18.45 M16.1 16.15 Q16.45 17.4 15.55 18.35 14.6 19.3 13.5 18.5 13.5 17.6 14.1 16.9 14.7 16.25 15.45 16.0 L15.8 16.05 Q15.95 16.05 16.1 16.15 M19.25 24.55 Q19.35 24.8 19.2 25.1 19.05 25.45 18.85 25.75 L18.8 25.8 Q18.15 25.75 18.15 25.1 18.15 24.75 18.3 24.4 L18.4 24.3 18.45 24.3 18.65 24.2 18.7 24.2 18.95 24.3 Q19.15 24.35 19.25 24.55 M20.0 25.95 Q19.6 25.2 19.85 24.4 20.25 23.25 21.4 22.9 24.4 22.95 22.8 25.6 21.2 28.3 20.0 25.95 M22.3 32.4 Q22.45 33.25 23.2 33.25 23.55 33.25 24.1 32.8 L24.5 32.4 24.0 32.35 Q23.7 31.6 23.7 30.75 23.65 29.75 24.45 29.35 L24.85 29.5 Q24.75 29.2 24.5 29.0 24.1 28.6 23.55 28.8 22.95 29.0 22.6 29.7 22.2 30.45 22.25 31.55 L22.3 32.4 M13.7 32.25 L13.7 31.9 13.75 31.8 13.75 31.7 13.8 31.6 Q13.8 31.3 13.55 31.25 13.2 31.1 12.85 31.1 12.6 31.15 12.55 31.4 L12.45 31.6 12.4 31.45 Q12.35 30.95 12.65 30.5 12.95 30.05 13.55 30.0 15.45 29.7 15.6 31.3 15.7 32.3 14.9 33.05 14.3 33.2 14.0 32.85 13.8 32.65 13.75 32.4 L13.7 32.25 M7.6 32.15 Q7.8 32.2 7.9 32.4 8.0 32.6 7.9 32.85 7.8 33.25 7.35 33.25 6.85 33.1 6.9 32.55 6.9 32.1 7.35 32.05 L7.6 32.15 M5.3 32.6 Q7.35 33.9 4.55 35.45 3.25 36.2 3.45 34.8 3.7 33.15 5.3 32.6 M10.8 38.6 Q11.55 38.8 11.05 39.45 10.8 39.85 10.4 39.5 L10.35 39.3 10.35 38.95 10.5 38.75 Q10.65 38.6 10.8 38.6 M8.4 40.9 Q8.35 40.15 8.95 39.75 9.1 39.65 9.25 39.65 9.65 39.65 10.0 39.75 10.3 39.85 10.4 40.15 10.4 40.3 10.35 40.4 10.2 40.8 10.0 41.2 L9.7 41.55 9.65 41.6 Q9.0 41.85 8.6 41.45 8.4 41.25 8.4 40.9 M24.65 31.6 L24.65 31.65 24.7 31.65 25.25 31.6 Q25.5 31.3 25.55 30.9 25.55 30.6 25.45 30.45 25.3 30.2 25.0 30.1 24.55 30.25 24.4 30.7 24.25 31.2 24.6 31.6 L24.65 31.6 M27.25 33.15 Q27.5 33.2 27.65 33.35 27.7 33.55 27.7 33.7 L27.65 34.35 Q27.65 34.5 27.6 34.6 27.25 34.95 26.65 34.65 L26.55 34.6 Q26.35 34.35 26.35 34.05 26.4 33.6 26.5 33.3 26.25 33.5 26.1 33.8 25.7 34.5 26.15 35.2 26.75 35.55 27.3 35.3 28.05 34.95 28.55 34.25 L28.25 33.6 Q28.0 33.2 27.5 33.1 L27.0 33.1 27.25 33.15 M26.9 38.65 Q26.45 38.6 26.2 38.75 25.85 38.9 25.9 39.35 L26.0 39.9 Q26.3 40.55 27.05 40.55 27.4 40.55 27.75 40.15 28.05 39.8 28.0 39.6 28.0 39.3 27.65 39.0 27.35 38.75 26.9 38.65" fill="#ff6e00" fill-rule="evenodd" stroke="none"/>
  </g>
</svg>
