<?xml version="1.0" encoding="UTF-8" standalone="no"?>
<svg xmlns:ffdec="https://www.free-decompiler.com/flash" xmlns:xlink="http://www.w3.org/1999/xlink" ffdec:objectType="shape" height="5.65px" width="13.95px" xmlns="http://www.w3.org/2000/svg">
  <g transform="matrix(1.0, 0.0, 0.0, 1.0, 7.0, 5.65)">
    <path d="M5.4 -4.05 Q5.55 -3.45 5.35 -2.9 L5.7 -3.05 Q7.65 -2.65 6.6 -1.6 L6.7 -1.5 6.85 -1.25 Q3.5 -0.5 -0.3 -0.3 -1.55 -0.1 -2.85 0.0 -3.5 0.05 -4.0 -0.1 L-5.95 -0.3 -6.05 -0.3 -6.75 -0.4 -6.75 -0.45 -6.1 -0.6 -6.35 -0.6 -7.0 -0.5 -6.95 -0.55 Q-6.55 -0.75 -6.1 -0.8 L-5.65 -0.85 -5.3 -0.85 -5.3 -0.9 -5.05 -0.9 -4.8 -0.95 -4.7 -1.0 -4.1 -1.0 -3.35 -1.15 -3.0 -1.15 Q-3.15 -2.0 -2.6 -2.65 -2.05 -3.35 -1.1 -3.7 L-0.65 -3.85 Q0.15 -3.8 0.75 -3.35 L0.8 -3.3 0.85 -3.5 Q0.9 -4.0 1.3 -4.45 2.15 -5.5 3.45 -5.65 5.05 -5.55 5.4 -4.05 M5.7 -1.15 L4.35 -1.05 4.75 -1.0 Q5.35 -1.0 5.7 -1.15" fill="#ffcc00" fill-rule="evenodd" stroke="none"/>
  </g>
</svg>
