<?xml version="1.0" encoding="UTF-8" standalone="no"?>
<svg xmlns:ffdec="https://www.free-decompiler.com/flash" xmlns:xlink="http://www.w3.org/1999/xlink" ffdec:objectType="shape" height="8.75px" width="16.6px" xmlns="http://www.w3.org/2000/svg">
  <g transform="matrix(1.0, 0.0, 0.0, 1.0, 4.55, 8.8)">
    <path d="M2.55 -6.95 Q4.0 -8.3 5.9 -8.8 8.85 -8.8 8.1 -6.15 8.0 -5.75 7.85 -5.45 8.25 -5.6 8.7 -5.6 10.0 -5.8 10.2 -4.7 L10.2 -4.35 10.3 -4.35 10.65 -4.45 Q11.15 -4.6 11.5 -4.35 11.8 -4.15 12.05 -3.9 12.05 -3.35 11.45 -3.1 L9.8 -2.4 9.7 -2.35 9.75 -2.15 Q9.75 -1.7 9.35 -1.45 9.3 -1.05 8.15 -1.0 L6.85 -0.9 Q9.2 -1.6 7.25 -2.6 6.4 -2.4 6.1 -1.6 5.95 -1.0 6.25 -0.9 L3.3 -0.7 Q3.4 -0.9 3.4 -1.15 3.4 -1.35 3.3 -1.5 L3.05 -1.6 2.75 -1.6 2.6 -1.55 Q2.1 -1.4 2.05 -0.9 L2.05 -0.6 -0.35 -0.4 -1.95 -0.3 -2.2 -0.2 Q-2.9 0.1 -3.7 -0.25 L-4.55 -0.3 -3.65 -0.35 Q-2.55 -0.7 -1.6 -1.4 L-1.45 -1.5 Q-2.55 -1.5 -3.25 -3.0 -3.85 -4.5 -2.75 -5.7 -2.05 -6.4 -1.1 -6.65 0.15 -6.95 1.0 -6.3 L1.15 -6.15 1.2 -6.2 Q1.5 -6.05 1.7 -5.75 1.95 -6.4 2.55 -6.95 M-2.75 -2.95 Q-1.85 -1.65 -0.95 -2.1 -0.75 -2.9 -0.2 -3.65 0.1 -4.2 0.55 -4.55 0.5 -5.45 -0.95 -5.75 -2.95 -5.5 -2.95 -3.6 -2.95 -3.2 -2.75 -2.95 M6.25 -4.9 Q7.35 -5.15 7.75 -6.15 8.7 -8.65 5.55 -8.5 4.6 -8.05 4.35 -7.0 3.7 -4.4 6.25 -4.9 M11.15 -4.15 L10.75 -4.2 10.75 -4.15 Q10.05 -4.05 9.6 -3.55 9.3 -3.2 9.5 -2.8 10.25 -2.45 11.05 -2.95 11.75 -3.45 11.4 -4.05 L11.15 -4.15 M8.95 -4.15 Q10.8 -4.9 8.7 -5.2 8.35 -5.1 8.3 -4.75 8.15 -3.85 8.95 -4.15 M0.4 -2.0 Q1.0 -2.3 1.6 -2.55 1.45 -2.6 1.25 -2.5 0.85 -2.3 0.9 -2.45 1.3 -2.7 1.45 -3.15 1.65 -3.85 0.95 -3.95 0.35 -3.7 -0.05 -3.2 -0.45 -2.65 -0.2 -2.05 0.05 -1.85 0.4 -2.0" fill="#ffcc00" fill-rule="evenodd" stroke="none"/>
  </g>
</svg>
