<?xml version="1.0" encoding="UTF-8" standalone="no"?>
<svg xmlns:ffdec="https://www.free-decompiler.com/flash" xmlns:xlink="http://www.w3.org/1999/xlink" ffdec:objectType="shape" height="9.1px" width="14.75px" xmlns="http://www.w3.org/2000/svg">
  <g transform="matrix(1.0, 0.0, 0.0, 1.0, 1.95, 9.5)">
    <path d="M4.1 -4.55 Q3.85 -4.45 3.6 -4.55 3.45 -4.65 3.45 -4.85 3.4 -5.1 3.55 -5.25 L3.65 -5.35 Q3.9 -5.35 4.05 -5.25 4.0 -5.15 4.0 -5.05 4.0 -4.75 4.1 -4.55 M5.05 -9.4 Q3.85 -8.9 3.15 -7.7 2.5 -6.7 2.55 -5.45 2.1 -5.7 1.95 -6.05 L1.95 -5.9 Q1.75 -6.25 1.3 -6.5 0.1 -7.2 -1.35 -6.95 L-1.7 -6.8 Q-1.35 -7.3 -0.75 -7.6 L-0.25 -7.85 Q1.6 -7.75 1.95 -6.75 2.1 -7.4 2.9 -8.15 3.85 -9.0 5.05 -9.5 L5.1 -9.45 5.05 -9.4 M4.95 -3.7 Q4.95 -3.6 5.0 -3.5 L5.1 -3.5 5.25 -3.3 5.3 -3.4 Q5.8 -3.3 6.1 -3.95 6.2 -4.15 6.25 -4.35 6.45 -4.2 6.55 -3.95 L6.8 -4.1 6.6 -3.8 6.6 -3.5 Q7.05 -3.85 7.6 -4.0 8.85 -4.2 9.45 -3.2 9.8 -2.5 9.3 -1.85 L9.3 -1.8 Q9.55 -1.75 9.8 -1.6 L9.9 -1.55 Q9.8 -1.35 9.65 -1.3 L8.6 -1.25 Q8.3 -1.05 7.9 -1.1 L8.2 -1.3 8.2 -1.35 Q8.6 -1.6 9.0 -2.25 9.4 -2.9 9.15 -3.25 8.95 -3.6 7.85 -3.7 7.3 -3.65 6.95 -3.35 L6.9 -3.35 Q6.2 -3.05 5.85 -2.35 5.6 -1.85 5.85 -1.4 L5.65 -1.0 4.25 -0.55 Q3.85 -0.45 3.5 -0.65 4.15 -1.05 4.6 -1.75 4.95 -2.25 5.0 -2.6 L4.85 -2.65 4.85 -2.7 5.0 -2.9 Q4.85 -3.45 3.85 -3.6 2.75 -3.2 2.15 -2.15 1.6 -1.2 2.1 -0.8 L2.1 -0.75 Q0.15 -0.25 -1.95 -0.45 -1.1 -0.7 -0.15 -0.8 -0.6 -1.15 -0.7 -1.65 -0.75 -2.05 -0.6 -2.25 L-0.55 -2.0 Q-0.4 -1.45 -0.05 -1.3 0.15 -1.15 0.4 -1.15 L0.45 -0.95 0.35 -0.9 1.3 -0.95 Q1.3 -1.2 1.35 -1.4 L1.3 -1.4 1.2 -1.45 Q1.45 -2.35 2.15 -3.0 2.9 -3.75 3.9 -4.05 4.6 -4.0 4.95 -3.7 M0.9 -4.5 Q0.45 -4.35 0.1 -4.05 L0.0 -4.0 Q0.05 -4.3 0.4 -4.6 0.85 -5.0 1.35 -5.2 1.7 -5.3 1.95 -5.15 L2.35 -4.85 2.35 -4.55 2.4 -4.55 Q2.6 -4.5 2.65 -4.3 L2.5 -4.35 2.45 -4.4 Q2.15 -4.6 1.8 -4.6 1.35 -4.65 0.9 -4.5 M2.85 -5.15 L2.85 -5.15 M11.15 -4.5 L11.0 -4.45 11.0 -4.5 11.2 -4.6 Q11.4 -4.75 11.6 -4.7 13.0 -5.0 12.75 -3.95 12.6 -3.2 11.95 -3.3 L12.1 -3.55 12.15 -3.8 12.35 -4.05 12.3 -4.1 12.2 -4.1 Q12.1 -4.6 11.15 -4.5 M9.55 -6.2 L9.7 -6.25 Q10.85 -6.5 10.9 -5.55 10.95 -4.9 10.5 -4.75 10.55 -4.95 10.55 -5.15 10.55 -6.0 9.65 -6.05 L9.15 -5.95 9.2 -6.0 Q9.3 -6.2 9.55 -6.2 M7.35 -4.85 L7.3 -4.85 7.4 -4.9 7.7 -4.8 Q7.85 -4.75 7.8 -4.55 7.7 -4.35 7.6 -4.3 L7.6 -4.4 Q7.55 -4.6 7.5 -4.75 L7.35 -4.85" fill="#ffcc00" fill-rule="evenodd" stroke="none"/>
  </g>
</svg>
