<?xml version="1.0" encoding="UTF-8" standalone="no"?>
<svg xmlns:ffdec="https://www.free-decompiler.com/flash" xmlns:xlink="http://www.w3.org/1999/xlink" ffdec:objectType="shape" height="7.65px" width="13.8px" xmlns="http://www.w3.org/2000/svg">
  <g transform="matrix(1.0, 0.0, 0.0, 1.0, 0.75, 8.35)">
    <path d="M1.05 -7.55 L0.75 -7.6 -0.5 -7.7 -0.7 -7.6 -0.75 -7.65 Q-0.75 -7.75 -0.7 -7.85 -0.55 -8.05 -0.35 -8.1 L-0.25 -8.15 0.6 -8.05 Q0.95 -7.95 1.05 -7.65 L1.05 -7.55 M2.2 -7.8 Q2.15 -7.6 2.1 -7.4 L2.05 -7.4 Q2.0 -7.75 2.25 -8.1 2.35 -8.25 2.5 -8.35 2.35 -8.1 2.2 -7.8 M2.15 -5.1 L2.05 -5.1 1.35 -5.2 Q1.25 -5.2 1.15 -5.15 1.15 -5.3 1.3 -5.4 1.35 -5.5 1.45 -5.5 1.75 -5.6 2.0 -5.4 2.15 -5.3 2.15 -5.1 M2.2 -1.75 Q2.25 -1.3 2.4 -0.85 0.8 -0.85 1.65 -2.3 1.9 -2.8 2.4 -3.1 2.2 -2.45 2.2 -1.75 M5.45 -2.35 L5.55 -2.05 Q5.6 -1.9 5.5 -1.7 L5.85 -1.45 Q5.9 -1.25 5.9 -1.05 L6.0 -1.0 Q5.3 -0.55 4.7 -0.8 L4.85 -1.0 Q5.45 -1.7 5.45 -2.35 M5.75 -3.4 Q5.95 -3.55 6.15 -3.6 6.55 -3.35 6.2 -2.95 5.85 -2.6 5.6 -2.9 5.55 -3.2 5.75 -3.4 M10.65 -6.3 L10.75 -6.3 10.95 -6.2 Q11.0 -6.05 11.0 -5.9 11.05 -5.7 10.9 -5.55 10.8 -5.6 10.7 -5.65 10.7 -5.95 10.5 -6.2 10.55 -6.25 10.65 -6.3 M8.85 -1.45 L8.95 -1.55 Q9.25 -1.85 9.4 -2.1 L9.75 -1.75 Q9.85 -1.7 9.8 -1.6 9.35 -1.3 8.85 -1.45 M13.0 -4.6 Q13.1 -4.4 12.95 -4.3 L12.85 -4.2 Q12.8 -4.55 12.55 -4.8 L12.6 -4.85 Q12.85 -4.8 13.0 -4.6" fill="#ffcc00" fill-rule="evenodd" stroke="none"/>
  </g>
</svg>
