<?xml version="1.0" encoding="UTF-8" standalone="no"?>
<svg xmlns:ffdec="https://www.free-decompiler.com/flash" xmlns:xlink="http://www.w3.org/1999/xlink" ffdec:objectType="shape" height="7.6px" width="10.2px" xmlns="http://www.w3.org/2000/svg">
  <g transform="matrix(1.0, 0.0, 0.0, 1.0, 0.35, 8.4)">
    <path d="M0.0 -7.95 Q-0.25 -7.85 -0.35 -8.05 -0.35 -8.25 -0.15 -8.3 L-0.1 -8.3 Q-0.05 -8.4 0.1 -8.4 L0.25 -8.3 Q0.4 -8.2 0.35 -8.05 0.15 -7.8 0.0 -7.95 M1.55 -2.15 L1.55 -2.1 1.9 -1.15 1.6 -1.15 Q1.3 -1.25 1.2 -1.5 1.2 -1.7 1.25 -1.9 1.3 -2.05 1.45 -2.15 L1.55 -2.15 M5.6 -1.1 Q5.6 -0.9 5.45 -0.8 5.2 -0.8 5.0 -0.95 4.9 -1.0 4.9 -1.15 4.9 -1.25 5.0 -1.3 5.15 -1.4 5.3 -1.4 L5.5 -1.35 Q5.6 -1.35 5.55 -1.3 L5.6 -1.1 M9.75 -1.65 Q9.85 -1.55 9.85 -1.4 9.55 -1.0 9.05 -1.35 L9.0 -1.45 Q8.95 -1.7 9.2 -1.7 L9.55 -1.75 9.75 -1.65" fill="#ffcc00" fill-rule="evenodd" stroke="none"/>
  </g>
</svg>
