<?xml version="1.0" encoding="UTF-8" standalone="no"?>
<svg xmlns:ffdec="https://www.free-decompiler.com/flash" xmlns:xlink="http://www.w3.org/1999/xlink" ffdec:objectType="shape" height="8.2px" width="18.6px" xmlns="http://www.w3.org/2000/svg">
  <g transform="matrix(1.0, 0.0, 0.0, 1.0, 12.5, 8.25)">
    <path d="M2.35 -4.8 Q2.75 -4.05 2.75 -3.15 L2.65 -3.5 Q2.65 -2.8 2.75 -2.0 2.85 -1.2 3.7 -1.15 L3.7 -1.2 Q3.75 -1.3 3.85 -1.35 L3.95 -1.45 Q4.05 -1.6 4.2 -1.6 4.7 -1.3 5.3 -1.0 L5.65 -1.0 Q6.05 -1.0 6.1 -0.7 L5.75 -0.65 5.8 -0.6 5.1 -0.55 Q3.45 -0.4 1.6 -0.55 L1.55 -0.6 1.55 -0.65 Q1.7 -1.3 1.15 -2.05 0.1 -3.35 -1.55 -3.4 -1.95 -3.3 -2.35 -3.05 -2.95 -2.65 -2.85 -2.0 -2.65 -0.4 -1.1 -0.5 -0.95 -0.45 -0.9 -0.3 -1.6 -0.1 -2.2 -0.4 -5.05 0.55 -7.15 -1.15 -7.45 -2.55 -9.65 -2.65 -10.0 -2.6 -10.3 -2.3 -10.6 -2.05 -10.5 -1.75 L-10.4 -1.3 -10.45 -1.2 -10.45 -1.15 Q-10.35 -1.0 -10.2 -0.9 L-9.95 -0.6 -10.0 -0.45 -11.5 -0.45 Q-12.8 -0.55 -12.4 -2.05 -11.8 -4.4 -9.2 -4.75 -7.8 -4.85 -6.7 -4.2 -6.7 -4.55 -6.65 -4.95 -6.2 -7.95 -3.0 -8.2 -0.35 -8.4 1.3 -6.55 2.0 -5.75 2.35 -4.8 M4.35 -1.0 L4.35 -1.0 M-4.85 -1.3 L-4.9 -1.2 Q-4.8 -0.85 -4.4 -0.95 -4.0 -1.05 -3.95 -1.45 -3.95 -1.6 -4.2 -1.65 L-4.45 -1.65 -4.55 -1.6 Q-4.75 -1.5 -4.85 -1.3 M-2.15 -4.2 Q-0.2 -5.3 -2.3 -5.6 -3.1 -5.45 -3.25 -4.65 -3.55 -3.4 -2.15 -4.2 M-6.1 -2.3 Q-6.25 -1.8 -5.8 -1.7 -4.2 -1.4 -4.4 -2.9 L-4.6 -2.95 -5.3 -3.0 Q-5.9 -2.95 -6.1 -2.3 M-9.9 -4.5 L-10.3 -4.4 Q-11.75 -4.0 -11.9 -2.65 -12.05 -0.65 -10.45 -2.3 -9.35 -3.4 -7.75 -2.85 -7.65 -2.85 -7.65 -2.95 -7.2 -4.9 -9.9 -4.5 M-3.5 -8.0 Q-4.1 -7.8 -4.65 -7.5 -6.15 -6.75 -6.2 -5.15 -6.2 -4.8 -6.0 -4.65 -4.85 -3.85 -3.3 -3.9 -3.6 -3.9 -3.9 -4.05 L-4.0 -4.1 -4.3 -4.2 -4.5 -4.25 Q-3.85 -5.3 -2.6 -5.65 -1.6 -5.95 -0.7 -6.1 -0.45 -6.15 -0.5 -6.35 -0.8 -8.5 -3.5 -8.0" fill="#ffcc00" fill-rule="evenodd" stroke="none"/>
  </g>
</svg>
