<?xml version="1.0" encoding="UTF-8" standalone="no"?>
<svg xmlns:ffdec="https://www.free-decompiler.com/flash" xmlns:xlink="http://www.w3.org/1999/xlink" ffdec:objectType="shape" height="6.25px" width="15.05px" xmlns="http://www.w3.org/2000/svg">
  <g transform="matrix(1.0, 0.0, 0.0, 1.0, 12.35, 6.6)">
    <path d="M2.1 -6.15 Q2.5 -5.8 2.45 -5.2 2.45 -4.8 2.35 -4.4 L2.2 -4.7 Q2.25 -5.45 2.05 -6.1 L2.1 -6.15 M0.7 -5.6 Q0.5 -6.15 0.05 -6.5 0.2 -6.6 0.35 -6.6 0.7 -6.45 0.85 -6.1 1.0 -5.85 0.85 -5.6 L0.7 -5.6 M1.45 -1.4 L1.65 -1.6 1.8 -1.65 1.85 -1.55 Q1.6 -0.9 2.7 -0.75 2.15 -0.4 1.35 -0.8 L1.25 -0.9 Q1.25 -1.2 1.45 -1.4 M-12.2 -0.75 Q-12.35 -0.85 -12.35 -1.05 -12.35 -1.35 -12.1 -1.35 -12.15 -1.0 -12.05 -0.65 L-12.1 -0.7 -12.2 -0.75 M-7.0 -5.35 Q-6.9 -5.3 -6.8 -5.25 L-6.85 -5.15 -6.85 -4.9 Q-7.0 -5.0 -7.15 -5.0 L-7.15 -5.05 Q-7.25 -5.3 -7.0 -5.35 M-7.6 -0.6 Q-7.5 -0.9 -7.25 -1.1 -7.2 -1.15 -7.15 -1.25 L-7.05 -1.4 -6.9 -1.45 -6.9 -1.25 Q-6.55 -0.8 -6.05 -0.7 L-5.6 -0.6 Q-5.2 -0.5 -4.75 -0.4 L-7.35 -0.35 Q-7.6 -0.35 -7.6 -0.6 M-4.5 -5.2 Q-4.75 -4.9 -4.95 -4.5 -5.1 -4.2 -5.15 -3.85 -5.35 -4.05 -5.2 -4.5 -5.1 -5.05 -4.6 -5.25 L-4.5 -5.2" fill="#ffcc00" fill-rule="evenodd" stroke="none"/>
  </g>
</svg>
