<?xml version="1.0" encoding="UTF-8" standalone="no"?>
<svg xmlns:ffdec="https://www.free-decompiler.com/flash" xmlns:xlink="http://www.w3.org/1999/xlink" ffdec:objectType="shape" height="6.2px" width="9.3px" xmlns="http://www.w3.org/2000/svg">
  <g transform="matrix(1.0, 0.0, 0.0, 1.0, 7.55, 6.65)">
    <path d="M0.5 -6.65 Q1.0 -6.3 0.5 -6.45 0.2 -6.55 0.5 -6.65 M1.75 -0.9 Q1.75 -0.7 1.55 -0.65 1.2 -0.55 1.1 -0.8 L1.05 -0.85 Q1.05 -0.95 1.15 -1.0 1.3 -1.1 1.45 -1.15 1.7 -1.15 1.75 -0.9 M-7.15 -0.6 Q-7.45 -0.3 -7.55 -0.65 L-7.55 -0.8 Q-7.55 -0.9 -7.4 -0.95 L-7.35 -1.0 Q-6.8 -0.9 -7.15 -0.6" fill="#ffcc00" fill-rule="evenodd" stroke="none"/>
  </g>
</svg>
