<?xml version="1.0" encoding="UTF-8" standalone="no"?>
<svg xmlns:ffdec="https://www.free-decompiler.com/flash" xmlns:xlink="http://www.w3.org/1999/xlink" ffdec:objectType="shape" height="10.55px" width="13.45px" xmlns="http://www.w3.org/2000/svg">
  <g transform="matrix(1.0, 0.0, 0.0, 1.0, 2.95, 10.55)">
    <path d="M8.7 -8.9 Q9.05 -7.6 8.35 -6.8 L8.3 -6.85 Q8.7 -7.4 8.25 -8.4 7.5 -10.1 5.75 -10.4 5.9 -10.5 6.15 -10.5 8.25 -10.75 8.7 -8.9 M0.65 -7.45 Q0.4 -7.1 0.25 -6.75 -0.05 -6.2 0.0 -5.7 -0.5 -6.1 0.0 -6.85 0.25 -7.3 0.6 -7.5 L0.65 -7.45 M1.3 -3.4 L1.25 -3.35 Q-0.2 -2.75 -0.6 -1.25 L-0.65 -1.25 -0.65 -1.15 Q-0.9 -0.55 -0.8 -0.05 L-1.0 -0.15 Q-1.05 -0.15 -1.05 -0.2 -2.0 0.1 -2.95 -0.1 -2.5 -0.15 -2.05 -0.4 L-2.0 -0.35 Q-1.4 -0.35 -1.0 -0.9 -0.7 -1.35 -0.85 -1.6 -0.7 -2.3 0.0 -2.9 0.85 -3.65 1.95 -3.85 3.4 -3.85 3.45 -2.45 3.45 -1.9 3.25 -1.45 L3.3 -1.45 3.8 -1.05 Q4.05 -0.8 3.95 -0.55 3.4 -0.3 2.85 -0.4 2.4 -0.1 1.95 -0.2 L1.3 -0.15 1.3 -0.2 Q1.5 -0.25 1.75 -0.5 2.15 -0.8 2.5 -1.4 3.6 -3.3 1.3 -3.4 M5.1 -3.3 Q6.7 -3.45 6.6 -2.0 6.55 -1.65 6.4 -1.3 6.75 -1.55 6.95 -1.95 7.0 -2.1 7.1 -2.2 7.45 -1.25 8.65 -1.6 8.75 -1.55 8.8 -1.45 9.2 -1.65 9.5 -1.95 9.75 -2.15 9.9 -2.35 10.05 -2.5 10.1 -2.7 L10.15 -2.75 Q10.45 -3.25 10.5 -3.6 10.5 -3.1 10.25 -2.45 9.6 -0.8 7.95 -1.1 6.8 -0.7 5.6 -0.4 5.4 -0.35 5.35 -0.5 L5.35 -0.55 Q5.6 -0.75 5.75 -1.1 6.05 -1.7 6.2 -2.3 6.05 -2.65 5.7 -2.85 5.4 -3.0 5.05 -3.05 4.75 -3.05 4.5 -2.9 L4.6 -3.05 Q4.8 -3.25 5.1 -3.25 L5.1 -3.3 M3.0 -0.9 L3.0 -0.85 3.05 -0.85 Q3.15 -0.95 3.15 -1.15 L3.0 -0.9 M-1.9 -4.5 L-1.95 -4.15 Q-1.95 -2.95 -1.0 -2.6 L-0.95 -2.7 -0.95 -2.6 Q-2.25 -2.45 -2.2 -3.85 -2.15 -4.3 -1.9 -4.5 M8.45 -1.25 L8.55 -1.25 8.55 -1.3 8.45 -1.25 M7.2 -2.3 L7.2 -2.2 7.1 -2.2 7.2 -2.3 M10.3 -4.5 Q9.95 -4.9 8.95 -5.0 7.95 -4.75 7.5 -4.0 L7.4 -4.3 Q7.3 -4.25 7.2 -4.4 L7.2 -4.45 Q7.15 -4.7 7.3 -4.85 7.75 -5.3 8.35 -5.35 9.85 -5.25 10.3 -4.5" fill="#ffcc00" fill-rule="evenodd" stroke="none"/>
  </g>
</svg>
