<?xml version="1.0" encoding="UTF-8" standalone="no"?>
<svg xmlns:ffdec="https://www.free-decompiler.com/flash" xmlns:xlink="http://www.w3.org/1999/xlink" ffdec:objectType="shape" height="10.35px" width="9.4px" xmlns="http://www.w3.org/2000/svg">
  <g transform="matrix(1.0, 0.0, 0.0, 1.0, 0.4, 10.4)">
    <path d="M8.3 -9.6 L8.2 -9.8 Q8.0 -10.15 7.65 -10.35 L7.75 -10.4 Q8.1 -10.35 8.3 -10.05 8.45 -9.85 8.35 -9.6 L8.3 -9.6 M2.8 -4.0 Q3.75 -3.45 3.65 -2.4 3.65 -2.15 3.55 -1.95 L3.55 -1.7 Q3.35 -1.6 3.2 -1.3 3.05 -1.05 3.2 -0.85 3.6 -0.55 3.85 -0.8 3.95 -0.75 4.0 -0.6 3.3 -0.05 2.55 -0.1 L2.1 -0.05 1.95 -0.1 1.85 -0.1 1.9 -0.15 1.9 -0.2 1.85 -0.25 Q2.3 -0.55 2.65 -1.05 3.2 -1.85 3.2 -2.55 3.2 -2.75 3.1 -2.95 3.1 -3.55 2.8 -3.95 L2.8 -4.0 M2.2 -3.5 L2.25 -3.4 2.1 -3.4 Q2.05 -3.4 2.05 -3.55 L2.1 -3.6 2.2 -3.5 M7.5 -5.25 Q7.6 -5.5 7.9 -5.55 8.25 -5.5 8.25 -5.3 7.95 -5.3 7.7 -5.1 L7.5 -4.9 Q7.45 -5.1 7.5 -5.25 M6.45 -0.65 L6.55 -0.75 Q6.95 -1.2 7.1 -1.6 7.5 -1.4 8.0 -1.4 8.5 -1.2 9.0 -1.45 8.45 -1.0 7.45 -0.8 6.9 -0.65 6.45 -0.65 M-0.2 -6.75 Q-0.55 -6.7 -0.25 -6.9 0.1 -6.75 -0.2 -6.75" fill="#ffcc00" fill-rule="evenodd" stroke="none"/>
  </g>
</svg>
