<?xml version="1.0" encoding="UTF-8" standalone="no"?>
<svg xmlns:ffdec="https://www.free-decompiler.com/flash" xmlns:xlink="http://www.w3.org/1999/xlink" ffdec:objectType="shape" height="5.45px" width="5.5px" xmlns="http://www.w3.org/2000/svg">
  <g transform="matrix(1.0, 0.0, 0.0, 1.0, -2.45, 5.7)">
    <path d="M3.4 -0.9 Q3.5 -0.75 3.4 -0.55 3.15 -0.1 2.55 -0.3 2.5 -0.3 2.45 -0.4 2.55 -0.7 2.75 -0.95 2.85 -1.15 3.05 -1.2 3.3 -1.1 3.4 -0.9 M7.6 -5.7 Q7.95 -5.55 7.65 -5.55 7.25 -5.5 7.6 -5.7 M6.9 -1.0 L6.9 -1.05 Q6.95 -1.2 7.05 -1.25 L7.35 -1.4 7.75 -1.3 Q7.9 -1.25 7.95 -1.1 8.0 -0.85 7.75 -0.75 7.25 -0.6 6.9 -0.95 L6.9 -1.0" fill="#ffcc00" fill-rule="evenodd" stroke="none"/>
  </g>
</svg>
