<?xml version="1.0" encoding="UTF-8" standalone="no"?>
<svg xmlns:ffdec="https://www.free-decompiler.com/flash" xmlns:xlink="http://www.w3.org/1999/xlink" ffdec:objectType="shape" height="4.65px" width="10.5px" xmlns="http://www.w3.org/2000/svg">
  <g transform="matrix(1.0, 0.0, 0.0, 1.0, 5.25, 4.65)">
    <path d="M2.15 -2.9 Q3.45 -2.35 3.9 -1.0 L3.95 -0.9 3.95 -0.85 Q4.45 -1.0 4.9 -0.85 5.35 -0.65 5.25 -0.35 L5.0 -0.35 Q3.7 0.15 2.05 -0.1 -0.7 -0.5 -3.45 -0.45 -4.45 -0.45 -4.6 -0.8 -4.8 -0.9 -4.85 -1.2 -4.9 -1.55 -4.6 -1.75 -5.0 -2.0 -5.15 -2.5 -5.55 -3.8 -4.2 -4.3 L-3.4 -4.65 Q-2.0 -4.75 -0.8 -4.15 0.15 -3.7 0.4 -2.7 1.2 -3.3 2.15 -2.9" fill="#ffcc00" fill-rule="evenodd" stroke="none"/>
  </g>
</svg>
