<?xml version="1.0" encoding="UTF-8" standalone="no"?>
<svg xmlns:ffdec="https://www.free-decompiler.com/flash" xmlns:xlink="http://www.w3.org/1999/xlink" ffdec:objectType="shape" height="8.8px" width="14.7px" xmlns="http://www.w3.org/2000/svg">
  <g transform="matrix(1.0, 0.0, 0.0, 1.0, 9.7, 9.05)">
    <path d="M1.2 -4.7 Q0.95 -4.7 0.8 -4.55 L0.6 -4.35 Q0.55 -3.9 0.75 -3.5 1.35 -2.55 2.15 -2.7 2.25 -2.8 2.3 -2.95 L2.35 -3.2 Q2.35 -3.3 2.45 -3.3 L2.0 -4.05 Q1.7 -4.55 1.2 -4.7 M4.1 -1.25 L4.2 -1.0 4.2 -0.8 5.0 -0.65 4.1 -0.55 Q4.5 -0.25 3.9 -0.4 L3.6 -0.5 Q-1.5 0.0 -6.7 -0.5 -6.4 -0.65 -6.0 -1.0 -5.95 -1.45 -6.15 -2.0 -6.45 -2.8 -7.35 -2.75 -8.4 -2.35 -8.0 -1.35 -7.8 -0.8 -7.5 -0.55 L-8.15 -0.65 -8.65 -0.75 -9.2 -0.75 Q-9.75 -0.8 -9.7 -1.35 -9.65 -1.85 -9.15 -2.05 -10.0 -3.35 -9.5 -4.85 -8.7 -7.4 -6.35 -8.7 -5.95 -8.95 -5.45 -9.05 -2.8 -9.2 -1.0 -7.4 -0.2 -6.65 0.25 -5.7 2.05 -5.5 2.95 -3.8 L3.45 -3.0 Q3.85 -2.3 4.35 -1.75 L4.35 -1.7 Q4.4 -1.55 4.25 -1.5 4.05 -1.45 4.1 -1.25 M-6.35 -4.7 Q-6.5 -4.55 -6.35 -4.45 -4.75 -3.6 -3.05 -4.8 -3.45 -4.65 -3.35 -5.05 -3.35 -5.2 -3.35 -5.35 L-3.35 -5.5 Q-3.5 -5.7 -3.75 -5.8 L-4.5 -5.85 Q-5.65 -5.65 -6.35 -4.7 M-4.45 -8.5 L-5.25 -8.3 Q-6.65 -7.95 -7.25 -6.7 -7.45 -6.25 -7.2 -5.9 -6.65 -5.75 -6.15 -5.95 -4.1 -6.7 -2.0 -6.25 L-1.85 -6.25 -1.85 -6.2 -1.9 -6.15 -1.9 -6.05 -1.7 -6.05 Q-1.3 -6.25 -1.05 -6.75 L-0.95 -7.0 Q-0.95 -7.05 -0.95 -7.1 -1.4 -7.85 -2.2 -8.15 -3.3 -8.55 -4.45 -8.5" fill="#ffcc00" fill-rule="evenodd" stroke="none"/>
  </g>
</svg>
