<?xml version="1.0" encoding="UTF-8" standalone="no"?>
<svg xmlns:ffdec="https://www.free-decompiler.com/flash" xmlns:xlink="http://www.w3.org/1999/xlink" ffdec:objectType="shape" height="42.45px" width="39.35px" xmlns="http://www.w3.org/2000/svg">
  <g transform="matrix(1.0, 0.0, 0.0, 1.0, 0.0, 0.0)">
    <path d="M34.75 0.85 L34.75 0.95 Q34.75 1.1 34.9 1.3 L34.9 1.35 Q35.2 1.65 35.7 1.55 L35.85 1.65 36.05 1.75 Q36.0 1.65 35.9 1.6 L35.75 1.55 Q36.3 1.3 36.45 1.05 L36.55 0.85 36.7 0.85 36.8 0.9 Q37.05 0.95 37.2 1.25 37.6 2.1 37.15 2.6 37.05 2.5 36.85 2.4 36.15 2.15 35.45 2.85 35.1 3.25 35.35 3.65 L35.4 3.75 Q35.65 3.75 35.85 3.6 36.4 3.15 36.65 3.7 37.25 3.2 37.4 3.95 37.5 4.15 37.4 4.35 37.35 3.85 36.75 4.05 36.5 4.1 36.35 4.2 35.75 4.35 35.75 5.3 L35.8 5.6 Q35.9 5.9 36.3 5.9 36.8 5.9 37.1 5.35 L37.15 5.2 37.5 5.2 37.6 5.25 37.65 5.2 Q39.3 5.0 39.35 6.45 39.35 7.0 39.15 7.3 L38.85 7.25 38.9 6.9 Q38.9 6.1 38.3 5.9 L36.95 5.95 Q36.2 6.15 35.6 6.5 L35.4 6.6 35.35 6.7 35.3 6.7 35.15 6.85 35.1 6.75 Q34.7 6.55 34.3 6.4 33.9 6.2 33.5 6.25 L33.3 6.35 Q32.25 6.85 32.25 8.0 32.25 8.6 32.6 9.0 33.0 9.1 33.4 9.1 L33.05 9.65 Q32.95 9.85 32.95 10.05 L32.55 10.5 32.4 10.15 31.95 10.35 Q31.2 10.7 31.2 11.5 33.55 13.5 32.15 16.15 30.8 18.7 28.25 17.45 28.0 18.7 26.85 19.0 L26.35 19.1 Q26.65 19.95 26.8 20.85 L26.75 20.85 26.8 21.0 26.85 21.5 Q26.95 22.55 26.3 23.45 26.0 23.9 25.45 23.85 27.05 26.6 25.0 28.8 23.75 30.15 22.3 29.0 22.15 28.85 22.05 28.7 L21.95 28.15 Q21.9 27.8 21.7 27.5 21.35 27.9 21.1 28.25 21.0 27.8 20.75 27.3 19.9 25.5 17.95 25.35 16.35 25.4 15.65 26.85 14.1 30.05 17.45 30.15 L19.15 30.25 Q19.7 30.3 20.2 30.45 20.05 31.85 21.05 33.35 21.25 33.65 21.7 33.4 24.85 31.75 25.45 35.15 L25.45 35.3 Q25.3 34.55 23.8 34.05 23.35 34.25 23.1 34.55 23.8 35.35 23.65 36.9 23.6 37.35 23.5 37.65 23.75 37.6 24.1 37.35 25.55 36.25 25.5 35.45 25.75 37.4 24.3 38.7 L24.95 38.6 Q25.0 38.95 25.1 39.35 25.35 40.05 25.35 40.85 25.8 41.1 26.25 40.75 L26.45 40.25 26.35 41.0 26.05 42.4 25.9 42.45 25.6 42.45 24.8 42.4 24.15 42.4 Q26.55 41.85 24.3 40.5 23.45 40.85 23.2 41.75 23.05 42.15 23.2 42.3 L20.75 42.0 Q20.85 41.75 20.95 41.35 21.35 39.05 19.15 38.7 17.8 38.8 17.25 39.9 16.85 40.75 17.25 41.55 17.45 41.9 17.7 42.2 15.55 42.3 13.35 41.85 L13.2 41.8 Q14.95 38.3 10.45 37.65 L10.3 37.65 Q9.1 38.15 8.25 39.15 L7.75 39.7 Q4.4 38.8 4.2 42.0 3.1 41.9 2.1 41.6 2.5 40.6 3.25 39.65 L3.35 39.85 Q4.4 40.2 4.95 39.15 5.2 38.6 5.05 38.05 5.75 37.75 6.65 37.85 6.75 36.7 7.5 35.9 L7.7 36.15 Q9.5 37.45 9.75 35.0 9.6 34.85 9.45 34.75 10.45 34.45 11.5 34.7 9.75 32.4 9.95 29.35 10.1 26.45 12.8 25.2 L12.4 24.8 Q12.6 24.9 12.95 24.65 15.5 22.9 12.95 21.9 11.55 22.55 11.8 23.8 11.6 23.05 11.85 22.15 12.35 20.25 14.5 20.55 L14.6 20.3 14.75 20.35 Q13.2 19.85 13.35 17.4 13.5 14.6 16.4 14.35 18.35 14.25 20.15 13.7 21.55 13.3 22.35 12.35 22.25 12.55 22.2 12.7 22.2 13.0 22.4 13.15 23.75 13.65 24.95 12.8 25.9 12.1 26.3 11.1 25.55 10.9 24.6 11.2 23.75 11.45 23.1 10.95 L23.1 10.85 Q22.85 10.2 23.5 9.05 L23.75 8.7 25.3 7.3 Q25.35 7.25 25.4 7.2 26.4 6.75 27.65 6.7 28.05 6.7 28.15 6.25 28.25 5.85 28.55 5.7 L28.5 5.65 Q26.2 2.6 30.2 1.15 L30.35 1.1 31.15 1.35 32.35 1.35 32.75 1.3 32.8 1.25 32.85 1.1 Q32.85 1.0 33.05 0.4 L33.1 0.25 33.15 0.2 33.15 0.15 33.25 0.15 33.3 0.1 33.6 0.0 34.4 0.1 Q34.75 0.15 35.05 0.3 34.85 0.45 34.8 0.65 34.8 0.5 34.7 0.4 L34.45 0.25 34.2 0.25 34.05 0.3 Q33.7 0.45 33.65 0.8 33.6 1.05 33.7 1.25 L33.8 1.3 34.3 1.35 34.35 1.35 Q34.65 1.15 34.75 0.85 M5.65 27.9 Q5.8 27.25 6.0 26.75 6.1 26.7 6.25 26.65 6.7 26.8 6.75 27.15 L6.7 27.2 Q6.3 27.75 6.25 28.15 L5.9 28.3 Q5.75 28.1 5.65 27.9 M16.7 8.55 L16.6 8.6 16.25 8.8 16.3 8.75 Q16.5 8.45 16.5 8.1 L16.45 8.05 Q16.3 7.95 16.15 7.9 L15.95 7.9 Q15.55 8.0 15.4 8.4 15.3 8.7 15.55 8.95 15.75 9.05 15.95 9.0 L15.9 9.05 Q15.5 9.15 15.15 9.0 15.1 8.3 15.8 7.85 16.4 7.5 17.0 7.5 17.25 8.05 16.7 8.55 M21.15 1.65 L21.0 1.75 Q20.5 2.0 20.05 1.85 20.0 1.45 20.25 1.1 20.5 0.75 20.95 0.7 L21.05 0.65 Q22.2 1.0 21.15 1.65 M34.95 2.75 L34.85 2.7 34.3 2.6 34.2 2.45 34.05 2.2 33.95 2.0 Q34.0 1.8 33.95 1.55 33.9 1.3 33.6 1.3 L33.5 1.35 Q32.95 1.75 32.9 2.4 32.8 2.95 32.8 3.55 33.4 4.15 34.1 4.0 35.15 3.75 34.95 2.75 M36.8 1.1 L36.6 1.05 36.4 1.15 Q36.3 1.2 36.25 1.3 L36.15 1.35 Q36.15 1.55 36.15 1.75 L36.2 1.9 36.25 2.0 Q36.45 2.3 36.8 2.2 L36.9 2.1 37.0 2.05 Q37.15 1.8 37.15 1.5 37.15 1.35 37.1 1.2 L36.8 1.1 M32.4 2.7 Q32.15 2.8 32.0 3.0 31.75 3.35 31.75 3.8 31.75 3.95 31.8 4.1 31.8 4.35 31.85 4.45 32.0 4.65 32.4 4.75 32.75 4.95 33.3 4.95 L33.5 4.85 33.8 4.85 33.95 4.75 33.85 4.7 34.0 4.65 33.95 4.65 Q33.6 4.9 32.8 4.6 32.25 4.35 32.6 3.85 32.4 3.45 32.4 2.95 32.4 2.85 32.4 2.7 M30.05 3.9 Q30.05 4.4 30.5 4.4 30.8 4.25 30.75 4.0 30.75 3.65 30.4 3.5 30.1 3.55 30.05 3.9 M29.15 5.9 Q29.6 6.15 29.9 5.8 31.4 4.2 28.85 4.05 28.75 4.1 28.65 4.15 L28.4 4.4 Q28.2 5.4 29.15 5.9 M29.05 3.9 Q29.4 3.7 29.35 3.35 29.35 2.85 28.85 2.85 28.5 2.85 28.45 3.2 28.35 3.95 29.05 3.9 M28.8 9.55 L28.9 9.85 Q29.0 10.15 29.2 10.15 29.35 10.15 29.6 9.9 29.9 9.6 29.9 9.4 29.9 8.8 29.35 8.9 28.8 9.05 28.8 9.55 M24.1 10.3 Q24.25 10.45 24.5 10.45 25.25 10.5 25.8 9.95 27.25 8.6 26.35 7.5 25.5 7.7 24.85 8.3 24.05 9.0 24.05 10.05 L23.8 9.85 Q23.6 9.9 23.45 10.1 23.4 10.2 23.4 10.35 23.45 10.75 23.9 10.5 24.05 10.4 24.1 10.3 M25.95 13.7 Q25.6 13.45 25.1 13.45 24.55 13.45 24.2 13.75 23.8 14.05 23.8 14.6 L23.85 15.05 Q24.0 15.5 24.7 15.5 24.9 15.5 25.65 15.05 26.35 14.6 26.35 14.55 26.35 14.0 25.95 13.7 M31.75 12.4 L31.65 12.2 31.2 12.15 30.75 12.15 Q31.85 13.35 30.95 15.4 30.45 16.6 29.55 16.85 L29.5 17.15 Q31.25 17.75 32.05 16.05 32.7 14.8 32.45 13.4 L32.35 13.3 32.05 13.2 Q32.1 12.9 31.95 12.65 L31.75 12.4 M28.95 13.4 Q28.55 13.5 28.75 13.9 29.1 14.6 29.5 13.85 29.5 13.65 29.3 13.55 29.15 13.45 28.95 13.4 M30.75 13.35 Q30.55 13.15 30.25 13.15 29.65 13.55 29.25 14.3 28.8 15.25 29.4 16.0 30.1 15.85 30.55 15.2 31.05 14.55 31.05 13.75 30.85 13.55 30.75 13.35 M24.65 21.15 L24.2 21.1 24.05 21.15 Q23.8 21.25 23.8 21.6 23.8 21.8 23.9 22.0 L23.3 23.1 Q22.95 23.75 23.2 24.35 24.25 24.5 24.9 23.45 25.6 22.35 24.95 21.25 24.8 21.15 24.65 21.15 M25.5 26.15 Q25.25 26.7 24.55 27.2 23.75 27.75 23.1 27.6 23.15 27.9 23.3 28.25 23.7 29.15 24.5 28.5 26.2 27.1 25.5 26.15 M24.05 25.2 Q23.9 25.2 23.75 25.3 23.05 25.7 23.1 26.5 23.1 26.8 23.2 27.05 24.3 27.3 25.0 26.3 25.4 25.8 25.05 25.35 24.9 25.25 24.75 25.25 L24.05 25.2 M31.15 24.4 Q31.4 25.3 30.65 25.9 30.1 26.4 29.7 26.05 30.2 25.7 30.75 24.9 L31.15 24.35 31.15 24.4 M20.45 1.25 Q20.4 1.8 20.95 1.65 21.1 1.5 21.05 1.3 21.0 1.05 20.7 1.0 20.45 1.0 20.45 1.25 M18.45 7.35 Q18.7 7.4 18.95 7.5 19.15 7.65 19.1 7.85 18.4 8.4 18.25 7.65 18.2 7.35 18.45 7.35 M10.7 16.0 Q11.15 15.9 10.55 15.8 9.95 16.25 10.7 16.0 M10.55 15.45 Q10.95 15.65 10.9 16.15 10.9 16.5 10.7 16.75 10.2 16.7 10.25 16.0 10.25 15.55 10.55 15.45 M9.3 24.5 Q9.1 24.35 8.9 24.4 L8.2 24.5 Q7.9 24.6 7.9 24.9 8.0 25.05 8.15 25.1 8.9 25.3 9.4 24.75 9.45 24.6 9.3 24.5 M9.85 24.4 Q10.2 24.55 10.1 24.9 9.35 25.3 8.35 25.6 7.8 25.8 7.3 25.55 7.25 25.05 7.7 24.75 8.35 24.35 9.0 24.25 9.5 24.2 9.85 24.4 M14.65 18.5 L15.0 18.45 15.7 18.05 15.4 17.7 Q14.45 16.35 15.9 15.55 16.15 15.4 16.4 15.3 16.75 15.35 17.1 15.3 16.75 15.0 16.05 14.75 15.35 14.8 14.7 15.15 13.4 15.8 13.55 17.15 13.65 18.45 14.45 18.5 14.05 18.65 14.1 19.2 14.15 20.35 15.3 20.3 L15.25 20.5 15.3 20.65 Q15.35 20.95 15.65 21.3 L16.1 21.65 15.9 22.25 Q15.75 22.85 15.75 23.1 15.75 23.9 16.0 24.35 16.35 24.95 17.3 24.95 17.7 24.95 18.15 24.6 18.15 24.0 18.75 23.8 L19.1 23.85 19.15 23.85 Q19.25 23.7 19.25 23.6 L19.25 23.5 Q19.2 23.4 19.05 23.4 18.9 23.55 18.55 23.65 L18.25 23.75 Q16.7 24.05 16.65 22.6 16.6 22.2 16.7 21.9 L16.7 21.7 Q16.65 21.35 16.5 21.1 16.0 20.9 15.75 20.5 L15.6 20.25 15.65 20.15 Q15.8 19.95 15.6 19.85 15.45 19.75 15.25 19.75 15.1 19.6 15.2 19.45 15.35 19.3 15.3 19.1 L15.3 18.9 Q15.15 18.7 14.9 18.6 L14.65 18.5 M19.2 20.55 Q19.75 19.85 20.3 19.0 21.3 17.4 19.75 16.9 18.65 17.3 18.3 18.5 17.85 20.1 19.2 20.55 M22.25 18.6 Q22.2 17.9 21.55 17.75 21.1 17.9 21.05 18.4 20.85 19.4 21.8 19.4 22.25 19.15 22.25 18.6 M12.9 20.85 Q12.5 21.1 12.85 21.15 13.85 21.2 13.1 20.75 L12.9 20.85 M16.7 17.4 L16.6 17.3 Q17.1 17.1 17.05 16.5 17.0 15.7 16.2 15.65 15.55 15.95 15.45 16.75 15.35 18.05 16.6 17.75 L16.65 17.65 16.7 17.5 16.7 17.4 M21.35 23.4 Q21.65 24.4 22.45 23.8 24.75 21.95 22.5 20.8 20.85 21.55 21.35 23.4 M13.2 27.35 Q12.85 26.95 12.35 26.6 L12.2 26.7 12.1 26.65 11.9 26.6 Q10.35 27.4 10.05 29.15 9.7 31.4 11.0 32.15 11.85 33.95 12.9 32.55 11.6 31.85 11.9 29.55 12.05 28.1 13.2 27.35 M18.6 30.8 Q18.35 30.65 17.95 30.75 16.95 30.95 16.95 32.05 L17.0 32.45 Q17.15 32.85 17.7 32.85 18.1 32.85 18.55 32.15 18.9 31.55 18.9 31.35 18.9 31.0 18.6 30.8 M12.6 31.3 Q12.95 31.6 13.3 31.35 13.65 30.8 13.75 30.2 13.9 29.15 13.1 28.75 12.45 29.0 12.3 29.7 12.2 30.45 12.45 31.15 L12.6 31.3 M17.25 34.05 Q17.05 34.0 16.9 34.15 16.6 34.4 16.55 34.75 16.6 35.0 16.85 35.1 17.2 35.25 17.5 35.45 17.6 36.05 17.2 36.5 16.8 36.95 16.7 37.5 16.7 37.65 16.85 37.65 17.65 37.7 18.35 37.95 L18.6 37.8 19.25 37.3 Q19.3 36.35 19.05 35.45 18.6 34.05 17.25 34.0 L17.25 34.05 M13.8 34.05 Q13.55 34.7 14.1 34.95 L14.5 35.15 Q13.8 35.85 14.35 37.1 14.95 38.35 15.85 37.5 17.7 35.75 16.05 34.95 16.4 34.45 16.35 33.25 16.05 32.95 15.65 32.95 L15.1 32.9 Q14.15 33.15 13.8 34.05 M22.85 39.4 Q23.45 39.15 24.1 38.9 24.3 38.8 24.1 38.8 L23.6 38.85 Q23.05 38.85 22.85 39.2 L22.75 39.35 Q22.65 39.5 22.85 39.4 M6.85 30.55 L8.2 30.7 Q8.7 30.75 9.1 31.0 8.65 32.35 7.1 31.5 6.2 31.0 6.85 30.55 M2.35 33.5 Q2.2 33.4 2.1 33.2 2.1 33.1 2.15 32.95 2.25 32.65 2.55 32.6 3.15 32.8 2.9 33.15 2.55 33.3 2.35 33.5 M1.65 35.0 L1.6 35.1 Q1.45 35.6 1.6 36.2 0.4 36.05 0.65 34.7 0.8 34.0 1.4 33.7 1.7 33.95 1.75 34.35 1.65 34.7 1.65 35.0 M5.1 32.85 Q5.8 33.0 5.75 33.65 5.15 34.15 4.3 33.65 3.35 33.05 4.0 32.45 4.55 32.75 5.1 32.85 M6.85 39.45 L6.85 39.45" fill="#ffcc00" fill-rule="evenodd" stroke="none"/>
    <path d="M16.25 8.8 L15.95 9.0 Q15.75 9.05 15.55 8.95 15.3 8.7 15.4 8.4 15.55 8.0 15.95 7.9 L16.15 7.9 Q16.3 7.95 16.45 8.05 L16.5 8.1 Q16.5 8.45 16.3 8.75 L16.25 8.8 M34.8 0.65 Q34.75 0.75 34.75 0.85 34.65 1.15 34.35 1.35 L34.3 1.35 33.8 1.3 33.7 1.25 Q33.6 1.05 33.65 0.8 33.7 0.45 34.05 0.3 L34.2 0.25 34.45 0.25 34.7 0.4 Q34.8 0.5 34.8 0.65 M36.8 1.1 L37.1 1.2 Q37.15 1.35 37.15 1.5 37.15 1.8 37.0 2.05 L36.9 2.1 36.8 2.2 Q36.45 2.3 36.25 2.0 L36.2 1.9 36.15 1.75 Q36.15 1.55 36.15 1.35 L36.25 1.3 Q36.3 1.2 36.4 1.15 L36.6 1.05 36.8 1.1 M34.95 2.75 Q35.15 3.75 34.1 4.0 33.4 4.15 32.8 3.55 32.8 2.95 32.9 2.4 32.95 1.75 33.5 1.35 L33.6 1.3 Q33.9 1.3 33.95 1.55 34.0 1.8 33.95 2.0 L34.05 2.2 34.2 2.45 34.3 2.6 34.85 2.7 34.95 2.75 M29.15 5.9 Q28.2 5.4 28.4 4.4 L28.65 4.15 Q28.75 4.1 28.85 4.05 31.4 4.2 29.9 5.8 29.6 6.15 29.15 5.9 M30.05 3.9 Q30.1 3.55 30.4 3.5 30.75 3.65 30.75 4.0 30.8 4.25 30.5 4.4 30.05 4.4 30.05 3.9 M24.05 10.05 L24.05 10.25 24.1 10.3 Q24.05 10.4 23.9 10.5 23.45 10.75 23.4 10.35 23.4 10.2 23.45 10.1 23.6 9.9 23.8 9.85 L24.05 10.05 M30.75 13.35 Q30.85 13.55 31.05 13.75 31.05 14.55 30.55 15.2 30.1 15.85 29.4 16.0 28.8 15.25 29.25 14.3 29.65 13.55 30.25 13.15 30.55 13.15 30.75 13.35 M28.95 13.4 Q29.15 13.45 29.3 13.55 29.5 13.65 29.5 13.85 29.1 14.6 28.75 13.9 28.55 13.5 28.95 13.4 M24.05 25.2 L24.75 25.25 Q24.9 25.25 25.05 25.35 25.4 25.8 25.0 26.3 24.3 27.3 23.2 27.05 23.1 26.8 23.1 26.5 23.05 25.7 23.75 25.3 23.9 25.2 24.05 25.2 M20.45 1.25 Q20.45 1.0 20.7 1.0 21.0 1.05 21.05 1.3 21.1 1.5 20.95 1.65 20.4 1.8 20.45 1.25 M10.7 16.0 Q9.95 16.25 10.55 15.8 11.15 15.9 10.7 16.0 M9.3 24.5 Q9.45 24.6 9.4 24.75 8.9 25.3 8.15 25.1 8.0 25.05 7.9 24.9 7.9 24.6 8.2 24.5 L8.9 24.4 Q9.1 24.35 9.3 24.5 M14.65 18.5 L14.9 18.6 Q15.15 18.7 15.3 18.9 L15.3 19.1 Q15.35 19.3 15.2 19.45 15.1 19.6 15.25 19.75 15.45 19.75 15.6 19.85 15.8 19.95 15.65 20.15 L15.6 20.25 15.55 20.1 15.55 20.05 15.5 20.0 15.5 19.9 15.45 19.85 15.4 19.9 Q15.3 20.1 15.3 20.3 14.15 20.35 14.1 19.2 14.05 18.65 14.45 18.5 L14.65 18.5 M16.7 17.4 L16.7 17.5 16.65 17.65 16.6 17.75 Q15.35 18.05 15.45 16.75 15.55 15.95 16.2 15.65 17.0 15.7 17.05 16.5 17.1 17.1 16.6 17.3 L16.7 17.4 M12.9 20.85 L13.1 20.75 Q13.85 21.2 12.85 21.15 12.5 21.1 12.9 20.85 M12.6 31.3 L12.45 31.15 Q12.2 30.45 12.3 29.7 12.45 29.0 13.1 28.75 13.9 29.15 13.75 30.2 13.65 30.8 13.3 31.35 12.95 31.6 12.6 31.3" fill="#ffefb2" fill-rule="evenodd" stroke="none"/>
    <path d="M39.15 7.3 Q39.0 7.45 38.8 7.55 L38.85 7.25 39.15 7.3 M35.15 6.85 Q34.95 7.0 34.95 7.1 L35.0 7.2 34.65 7.5 34.65 7.55 34.6 7.6 33.55 8.9 33.4 9.1 Q33.0 9.1 32.6 9.0 32.25 8.6 32.25 8.0 32.25 6.85 33.3 6.35 L33.5 6.25 Q33.9 6.2 34.3 6.4 34.7 6.55 35.1 6.75 L35.15 6.85 M32.95 10.05 Q32.95 10.4 33.3 10.7 34.2 11.4 33.95 12.65 35.15 13.5 34.8 15.0 L34.7 15.35 Q34.6 15.95 34.35 16.35 35.75 17.1 35.1 18.7 34.5 20.15 33.3 19.55 L33.35 19.5 33.4 19.5 Q34.1 19.5 34.5 18.65 34.8 18.05 34.8 17.7 34.8 17.55 34.55 17.3 34.35 17.1 34.2 17.0 33.75 16.95 33.45 17.2 33.05 17.5 32.8 17.5 30.9 17.7 30.6 18.0 30.5 18.15 30.5 18.35 30.55 18.6 30.5 18.7 30.3 19.45 29.85 20.45 L29.8 20.55 Q28.7 21.85 26.8 20.85 26.65 19.95 26.35 19.1 L26.85 19.0 Q28.0 18.7 28.25 17.45 30.8 18.7 32.15 16.15 33.55 13.5 31.2 11.5 31.2 10.7 31.95 10.35 L32.4 10.15 32.55 10.5 32.95 10.05 M26.8 21.0 Q27.15 21.65 27.75 22.25 28.15 22.65 27.85 23.15 27.55 23.7 27.1 23.85 L27.25 24.9 Q27.35 25.5 27.7 26.0 29.1 27.9 28.3 29.35 28.15 29.85 27.8 30.1 L27.65 30.3 26.8 31.15 26.55 31.3 Q24.95 31.5 23.35 31.0 23.3 31.55 23.7 31.9 L23.8 31.9 Q28.6 32.45 27.4 36.9 L27.25 37.3 Q29.55 37.95 28.65 40.4 28.35 41.2 27.65 41.6 27.15 42.35 25.9 42.45 L26.05 42.4 26.35 41.0 26.45 40.25 26.25 40.75 Q25.8 41.1 25.35 40.85 25.35 40.05 25.1 39.35 25.0 38.95 24.95 38.6 L24.3 38.7 Q25.75 37.4 25.5 35.45 25.55 36.25 24.1 37.35 23.75 37.6 23.5 37.65 23.6 37.35 23.65 36.9 23.8 35.35 23.1 34.55 23.35 34.25 23.8 34.05 25.3 34.55 25.45 35.3 L25.45 35.15 Q24.85 31.75 21.7 33.4 21.25 33.65 21.05 33.35 20.05 31.85 20.2 30.45 19.7 30.3 19.15 30.25 L17.45 30.15 Q14.1 30.05 15.65 26.85 16.35 25.4 17.95 25.35 19.9 25.5 20.75 27.3 21.0 27.8 21.1 28.25 21.35 27.9 21.7 27.5 21.9 27.8 21.95 28.15 L22.05 28.7 Q22.15 28.85 22.3 29.0 23.75 30.15 25.0 28.8 27.05 26.6 25.45 23.85 26.0 23.9 26.3 23.45 26.95 22.55 26.85 21.5 L26.8 21.0 M24.15 42.4 L23.2 42.3 Q23.05 42.15 23.2 41.75 23.45 40.85 24.3 40.5 26.55 41.85 24.15 42.4 M20.75 42.0 L20.45 41.95 20.0 41.9 19.65 41.95 17.75 42.15 17.7 42.2 Q17.45 41.9 17.25 41.55 16.85 40.75 17.25 39.9 17.8 38.8 19.15 38.7 21.35 39.05 20.95 41.35 20.85 41.75 20.75 42.0 M13.2 41.8 L12.2 41.75 12.05 41.75 Q9.15 42.05 6.25 41.9 L5.0 42.0 4.2 42.0 Q4.4 38.8 7.75 39.7 L8.25 39.15 Q9.1 38.15 10.3 37.65 L10.45 37.65 Q14.95 38.3 13.2 41.8 M2.1 41.6 L1.65 41.45 1.15 41.35 0.85 41.3 Q0.2 41.4 0.1 40.7 -0.05 40.6 0.05 40.25 L0.1 40.25 Q0.15 38.85 1.7 38.7 L1.85 38.7 Q0.75 37.8 0.45 36.15 0.1 34.4 1.5 33.25 2.2 32.7 3.0 32.3 5.0 32.15 6.3 33.65 6.6 34.0 6.75 34.35 7.8 33.55 9.45 33.6 9.55 33.4 9.7 33.1 9.85 32.7 9.65 32.35 5.15 32.75 5.6 28.4 5.6 28.15 5.65 27.9 5.75 28.1 5.9 28.3 L6.25 28.15 Q6.2 28.3 6.2 28.4 6.2 28.95 6.5 29.5 7.0 30.5 8.1 30.5 L8.7 30.2 9.25 29.95 Q8.65 29.95 7.7 28.8 7.15 28.2 7.35 27.4 7.6 26.35 8.4 25.8 8.1 25.9 7.7 26.2 7.15 26.6 6.75 27.15 6.7 26.8 6.25 26.65 6.1 26.7 6.0 26.75 6.75 25.0 8.7 24.25 9.85 24.0 10.85 24.1 L11.25 24.2 Q10.3 23.0 10.1 21.5 9.85 19.6 11.4 18.5 10.0 17.65 10.05 15.95 10.1 14.6 11.3 14.05 L11.65 14.15 Q11.85 14.2 11.8 14.35 10.6 15.25 11.2 16.4 11.3 16.6 11.45 16.8 11.9 15.45 12.95 14.45 14.05 13.45 15.55 13.55 L16.2 13.6 Q16.0 13.35 15.95 13.0 16.85 13.25 17.7 12.65 16.7 11.9 18.6 11.1 19.5 10.65 20.4 10.15 21.35 9.6 22.0 8.8 21.65 8.6 21.5 8.25 L20.9 8.25 20.85 8.2 20.8 8.2 Q18.2 7.9 16.7 8.55 17.25 8.05 17.0 7.5 16.4 7.5 15.8 7.85 15.1 8.3 15.15 9.0 15.5 9.15 15.9 9.05 15.0 9.75 15.0 10.7 L15.1 11.45 15.1 11.55 15.05 11.5 Q15.0 11.5 14.95 11.45 L14.9 11.4 14.9 11.25 Q14.55 10.85 14.35 10.4 14.25 10.2 14.25 10.0 L14.25 9.85 Q14.2 9.3 14.2 8.7 L14.4 8.55 14.9 8.05 Q15.65 7.4 16.65 7.25 18.15 7.2 19.6 7.45 L21.35 7.6 Q21.3 7.3 21.35 6.9 21.35 6.5 21.5 6.25 L21.5 6.15 Q21.8 5.25 22.8 4.95 24.3 4.75 25.55 5.45 L26.05 5.75 26.45 5.8 Q26.9 5.9 27.15 5.55 27.15 4.35 26.05 3.85 25.35 3.5 24.65 3.1 L24.65 2.95 Q24.65 2.4 23.95 1.95 23.3 1.55 22.4 1.45 21.7 1.4 21.15 1.65 22.2 1.0 21.05 0.65 L20.95 0.7 Q20.5 0.75 20.25 1.1 20.0 1.45 20.05 1.85 20.5 2.0 21.0 1.75 L20.9 1.85 Q20.2 2.35 20.2 3.4 20.2 3.8 20.4 4.2 19.2 4.05 19.1 2.5 19.05 1.5 19.85 0.85 20.65 0.25 21.6 0.15 23.15 0.5 24.6 1.3 25.1 1.6 25.6 1.8 25.9 1.5 26.3 1.3 L26.3 1.4 26.4 1.35 26.35 1.25 Q27.05 0.9 28.0 0.8 L28.2 0.75 29.0 0.75 Q29.35 0.85 29.75 0.95 L30.35 1.1 30.2 1.15 Q26.2 2.6 28.5 5.65 L28.55 5.7 Q28.25 5.85 28.15 6.25 28.05 6.7 27.65 6.7 26.4 6.75 25.4 7.2 25.35 7.25 25.3 7.3 L23.75 8.7 23.5 9.05 Q22.85 10.2 23.1 10.85 L23.1 10.95 Q23.75 11.45 24.6 11.2 25.55 10.9 26.3 11.1 25.9 12.1 24.95 12.8 23.75 13.65 22.4 13.15 22.2 13.0 22.2 12.7 22.25 12.55 22.35 12.35 21.55 13.3 20.15 13.7 18.35 14.25 16.4 14.35 13.5 14.6 13.35 17.4 13.2 19.85 14.75 20.35 L14.6 20.3 14.5 20.55 Q12.35 20.25 11.85 22.15 11.6 23.05 11.8 23.8 11.55 22.55 12.95 21.9 15.5 22.9 12.95 24.65 12.6 24.9 12.4 24.8 L12.8 25.2 Q10.1 26.45 9.95 29.35 9.75 32.4 11.5 34.7 10.45 34.45 9.45 34.75 9.6 34.85 9.75 35.0 9.5 37.45 7.7 36.15 L7.5 35.9 Q6.75 36.7 6.65 37.85 5.75 37.75 5.05 38.05 5.2 38.6 4.95 39.15 4.4 40.2 3.35 39.85 L3.25 39.65 Q2.5 40.6 2.1 41.6 M33.1 0.25 L33.15 0.2 33.1 0.25 M29.05 3.9 Q28.35 3.95 28.45 3.2 28.5 2.85 28.85 2.85 29.35 2.85 29.35 3.35 29.4 3.7 29.05 3.9 M24.05 10.05 Q24.05 9.0 24.85 8.3 25.5 7.7 26.35 7.5 27.25 8.6 25.8 9.95 25.25 10.5 24.5 10.45 24.25 10.45 24.1 10.3 L24.05 10.25 24.05 10.05 M31.75 12.4 L31.95 12.65 Q32.1 12.9 32.05 13.2 L32.35 13.3 32.45 13.4 Q32.7 14.8 32.05 16.05 31.25 17.75 29.5 17.15 L29.55 16.85 Q30.45 16.6 30.95 15.4 31.85 13.35 30.75 12.15 L31.2 12.15 31.65 12.2 31.75 12.4 M24.65 21.15 Q24.8 21.15 24.95 21.25 25.6 22.35 24.9 23.45 24.25 24.5 23.2 24.35 22.95 23.75 23.3 23.1 L23.9 22.0 Q23.8 21.8 23.8 21.6 23.8 21.25 24.05 21.15 L24.2 21.1 24.65 21.15 M25.5 26.15 Q26.2 27.1 24.5 28.5 23.7 29.15 23.3 28.25 23.15 27.9 23.1 27.6 23.75 27.75 24.55 27.2 25.25 26.7 25.5 26.15 M18.45 7.35 Q18.2 7.35 18.25 7.65 18.4 8.4 19.1 7.85 19.15 7.65 18.95 7.5 18.7 7.4 18.45 7.35 M10.55 15.45 Q10.25 15.55 10.25 16.0 10.2 16.7 10.7 16.75 10.9 16.5 10.9 16.15 10.95 15.65 10.55 15.45 M9.85 24.4 Q9.5 24.2 9.0 24.25 8.35 24.35 7.7 24.75 7.25 25.05 7.3 25.55 7.8 25.8 8.35 25.6 9.35 25.3 10.1 24.9 10.2 24.55 9.85 24.4 M22.25 18.6 Q22.25 19.15 21.8 19.4 20.85 19.4 21.05 18.4 21.1 17.9 21.55 17.75 22.2 17.9 22.25 18.6 M19.2 20.55 Q17.85 20.1 18.3 18.5 18.65 17.3 19.75 16.9 21.3 17.4 20.3 19.0 19.75 19.85 19.2 20.55 M14.45 18.5 Q13.65 18.45 13.55 17.15 13.4 15.8 14.7 15.15 15.35 14.8 16.05 14.75 16.75 15.0 17.1 15.3 16.75 15.35 16.4 15.3 16.15 15.4 15.9 15.55 14.45 16.35 15.4 17.7 L15.7 18.05 15.0 18.45 14.65 18.5 14.45 18.5 M13.4 20.0 L13.55 20.05 13.55 20.0 13.5 19.95 13.45 20.0 13.4 20.0 M13.2 27.35 Q12.05 28.1 11.9 29.55 11.6 31.85 12.9 32.55 11.85 33.95 11.0 32.15 9.7 31.4 10.05 29.15 10.35 27.4 11.9 26.6 L12.1 26.65 12.2 26.7 12.35 26.6 Q12.85 26.95 13.2 27.35 M21.35 23.4 Q20.85 21.55 22.5 20.8 24.75 21.95 22.45 23.8 21.65 24.4 21.35 23.4 M23.1 32.15 L23.2 32.1 23.1 31.95 23.1 32.15 M13.8 34.05 Q14.15 33.15 15.1 32.9 L15.65 32.95 Q16.05 32.95 16.35 33.25 16.4 34.45 16.05 34.95 17.7 35.75 15.85 37.5 14.95 38.35 14.35 37.1 13.8 35.85 14.5 35.15 L14.1 34.95 Q13.55 34.7 13.8 34.05 M17.25 34.05 L17.25 34.0 Q18.6 34.05 19.05 35.45 19.3 36.35 19.25 37.3 L18.6 37.8 18.35 37.95 Q17.65 37.7 16.85 37.65 16.7 37.65 16.7 37.5 16.8 36.95 17.2 36.5 17.6 36.05 17.5 35.45 17.2 35.25 16.85 35.1 16.6 35.0 16.55 34.75 16.6 34.4 16.9 34.15 17.05 34.0 17.25 34.05 M18.6 39.7 L18.5 39.7 18.5 39.75 18.6 39.7 M2.9 33.15 Q3.15 32.8 2.55 32.6 2.25 32.65 2.15 32.95 2.1 33.1 2.1 33.2 2.2 33.4 2.35 33.5 1.95 33.8 1.75 34.3 L1.75 34.35 Q1.7 33.95 1.4 33.7 0.8 34.0 0.65 34.7 0.4 36.05 1.6 36.2 1.45 35.6 1.6 35.1 L1.65 35.0 Q1.7 35.45 1.95 35.8 3.05 36.15 3.75 35.25 5.0 33.6 3.1 33.1 L2.9 33.15 M6.85 30.55 Q6.2 31.0 7.1 31.5 8.65 32.35 9.1 31.0 8.7 30.75 8.2 30.7 L6.85 30.55 M22.85 39.4 Q22.65 39.5 22.75 39.35 L22.85 39.2 Q23.05 38.85 23.6 38.85 L24.1 38.8 Q24.3 38.8 24.1 38.9 23.45 39.15 22.85 39.4 M5.1 32.85 Q4.55 32.75 4.0 32.45 3.35 33.05 4.3 33.65 5.15 34.15 5.75 33.65 5.8 33.0 5.1 32.85 M1.9 40.75 L1.7 40.65 1.7 40.7 1.9 40.75 M6.05 41.25 L6.0 41.2 5.85 41.25 6.05 41.25" fill="#ff6e00" fill-rule="evenodd" stroke="none"/>
  </g>
</svg>
