<?xml version="1.0" encoding="UTF-8" standalone="no"?>
<svg xmlns:ffdec="https://www.free-decompiler.com/flash" xmlns:xlink="http://www.w3.org/1999/xlink" ffdec:objectType="shape" height="3.8px" width="3.6px" xmlns="http://www.w3.org/2000/svg">
  <g transform="matrix(1.0, 0.0, 0.0, 1.0, 1.8, 3.8)">
    <path d="M0.7 -3.8 L0.8 -3.8 Q1.35 -3.85 1.65 -3.5 L1.7 -3.5 1.8 -3.4 1.8 -3.3 Q1.85 -3.15 1.75 -3.05 L1.75 -2.85 Q1.7 -2.5 1.45 -2.35 1.35 -2.2 1.15 -2.05 1.0 -1.95 0.95 -1.95 L0.85 -2.05 Q0.75 -2.1 0.4 -2.1 L0.35 -2.1 Q-0.15 -2.2 -0.4 -1.95 -0.7 -1.6 -0.7 -0.95 L-0.7 -0.65 -0.65 -0.55 Q-0.65 -0.45 -0.6 -0.3 -0.55 -0.15 -0.25 -0.1 -0.45 0.0 -0.7 0.0 L-0.85 -0.15 Q-1.05 -0.35 -1.35 -0.35 -1.6 -0.35 -1.8 -0.2 -1.85 -0.3 -1.8 -0.45 L-1.7 -0.75 Q-1.65 -0.9 -1.45 -0.95 L-1.3 -1.05 -1.25 -1.0 Q-1.2 -1.3 -1.25 -1.6 -1.35 -1.85 -1.3 -2.1 -1.3 -2.35 -1.2 -2.55 -1.0 -2.95 -0.65 -3.1 L-0.55 -3.1 -0.4 -3.15 -0.15 -3.1 0.0 -3.1 0.0 -3.2 Q0.1 -3.65 0.65 -3.75 L0.7 -3.8 M0.9 -2.35 Q1.1 -2.35 1.35 -2.6 1.6 -2.85 1.6 -3.0 1.6 -3.35 1.15 -3.25 0.7 -3.1 0.7 -2.7 L0.7 -2.5 Q0.75 -2.35 0.9 -2.35" fill="#ffffff" fill-opacity="0.7529412" fill-rule="evenodd" stroke="none"/>
  </g>
</svg>
