<?xml version="1.0" encoding="UTF-8" standalone="no"?>
<svg xmlns:ffdec="https://www.free-decompiler.com/flash" xmlns:xlink="http://www.w3.org/1999/xlink" ffdec:objectType="shape" height="4.1px" width="7.25px" xmlns="http://www.w3.org/2000/svg">
  <g transform="matrix(1.0, 0.0, 0.0, 1.0, -2.25, 7.6)">
    <path d="M8.85 -7.25 Q8.6 -7.25 8.45 -7.1 8.45 -7.2 8.5 -7.25 8.65 -7.55 9.0 -7.6 L9.2 -7.6 9.25 -7.55 9.45 -7.3 Q9.5 -7.1 9.45 -6.9 9.4 -7.0 9.25 -7.1 9.1 -7.25 8.85 -7.25 M5.7 -5.0 Q5.85 -4.85 5.7 -4.7 L5.5 -4.7 Q5.45 -4.8 5.55 -4.9 5.6 -5.0 5.7 -5.0 M2.45 -5.05 Q2.35 -4.95 2.25 -5.15 L2.25 -5.2 Q2.25 -5.25 2.3 -5.3 L2.4 -5.35 Q2.7 -5.3 2.45 -5.05 M9.15 -3.7 L9.35 -3.75 9.35 -3.7 Q8.4 -3.15 8.25 -4.1 8.15 -4.5 8.5 -4.65 8.45 -4.55 8.45 -4.4 8.45 -4.25 8.6 -4.05 8.8 -3.7 9.15 -3.7" fill="#ffffff" fill-opacity="0.7529412" fill-rule="evenodd" stroke="none"/>
  </g>
</svg>
