<?xml version="1.0" encoding="UTF-8" standalone="no"?>
<svg xmlns:ffdec="https://www.free-decompiler.com/flash" xmlns:xlink="http://www.w3.org/1999/xlink" ffdec:objectType="shape" height="31.95px" width="48.6px" xmlns="http://www.w3.org/2000/svg">
  <g transform="matrix(1.0, 0.0, 0.0, 1.0, 24.3, 31.95)">
    <path d="M23.75 -29.2 Q23.75 -29.15 22.55 -29.05 L22.2 -29.05 20.05 -28.8 19.85 -28.75 19.85 -28.7 17.2 -28.4 Q13.05 -27.75 10.4 -26.9 L9.6 -26.6 12.3 -26.9 17.85 -26.95 Q19.6 -26.8 20.25 -26.65 20.4 -26.6 20.55 -26.5 L21.6 -26.4 Q22.75 -26.2 23.35 -25.8 L23.4 -25.7 23.4 -25.65 22.9 -25.65 22.9 -25.6 23.65 -25.5 23.65 -25.45 Q23.45 -25.4 22.8 -25.45 L22.0 -25.5 Q17.7 -25.5 12.15 -23.5 10.25 -22.8 8.5 -22.0 L8.2 -21.85 10.8 -22.4 Q12.65 -22.75 14.8 -23.0 L14.8 -23.05 19.75 -23.05 Q20.5 -23.1 21.2 -23.05 22.5 -23.05 22.95 -22.5 L23.55 -22.35 23.95 -22.45 24.05 -22.25 24.3 -22.2 24.3 -22.0 Q24.2 -21.9 24.05 -21.9 L23.55 -21.9 Q23.1 -21.75 22.3 -21.5 L21.15 -21.2 19.85 -20.7 19.35 -20.45 Q18.5 -19.95 17.6 -19.6 L17.5 -19.55 16.4 -18.95 Q14.15 -17.6 12.85 -16.35 L13.3 -16.5 13.95 -16.85 Q15.25 -17.45 19.2 -18.0 L19.2 -18.05 22.1 -18.05 23.3 -17.95 22.25 -17.7 Q21.4 -17.45 20.8 -17.1 19.8 -16.8 18.9 -16.4 18.3 -16.1 17.65 -15.8 L15.05 -14.5 13.75 -13.7 Q12.5 -12.75 11.15 -11.45 L9.0 -9.3 Q7.85 -8.15 6.95 -6.8 8.5 -7.8 10.1 -7.8 L9.55 -7.55 9.8 -7.6 9.85 -7.65 Q9.9 -7.6 9.9 -7.45 9.9 -7.35 8.35 -5.95 L6.6 -4.4 5.75 -3.45 5.8 -3.45 Q6.8 -4.2 7.85 -4.55 L7.9 -4.6 7.95 -4.5 8.0 -4.35 Q8.0 -4.1 7.45 -3.3 L6.95 -2.55 7.0 -2.55 7.1 -2.6 Q7.95 -3.15 9.25 -4.75 L9.2 -4.85 9.35 -4.85 9.75 -5.35 Q9.8 -5.05 9.75 -4.7 9.85 -4.55 9.95 -4.35 10.2 -3.95 10.2 -3.5 10.2 -3.05 10.1 -2.9 L10.0 -2.75 10.15 -2.75 Q10.45 -2.7 10.45 -2.2 10.45 -1.9 10.4 -1.95 L10.35 -1.9 Q10.25 -1.85 10.05 -1.85 9.95 -1.85 9.65 -2.05 L9.5 -2.1 9.45 -2.05 9.25 -2.1 8.95 -2.05 Q6.3 -2.0 4.65 -1.95 4.05 -1.4 3.8 -1.3 L3.35 -1.25 Q3.2 -1.35 2.9 -1.6 L2.55 -1.75 Q0.25 -1.35 0.4 -0.15 L0.3 -0.05 Q0.25 0.0 0.05 0.0 -0.5 0.0 -1.05 -0.6 -1.3 -0.95 -1.8 -1.65 L-3.7 -1.65 -4.3 -1.75 -4.55 -1.75 -4.6 -1.65 Q-4.7 -1.45 -4.5 -1.25 L-4.55 -1.1 -4.55 -1.05 Q-4.6 -1.0 -4.8 -1.0 -5.6 -1.0 -6.15 -1.75 L-9.8 -1.75 -10.65 -1.7 -12.8 -1.6 -13.8 -1.65 -13.95 -1.8 -16.6 -1.95 -18.1 -2.1 -19.55 -2.2 -22.25 -2.3 -24.0 -2.35 Q-24.3 -2.55 -24.3 -2.65 L-24.3 -2.85 -24.15 -2.9 -24.2 -3.05 Q-24.2 -3.75 -23.55 -3.75 -23.5 -4.0 -23.35 -4.1 L-23.35 -4.25 Q-23.35 -4.6 -23.1 -5.3 -22.95 -5.7 -22.8 -5.9 -22.75 -6.15 -22.6 -6.2 -22.4 -6.3 -22.35 -6.05 L-22.3 -5.95 -22.25 -5.65 Q-22.2 -5.35 -21.85 -5.0 L-21.1 -4.45 Q-21.3 -4.8 -21.4 -5.4 -21.4 -5.75 -21.4 -6.95 L-21.4 -8.5 Q-21.3 -9.15 -21.0 -9.35 L-20.8 -9.55 -20.75 -9.4 -20.75 -9.35 Q-20.4 -7.85 -20.2 -7.05 -19.8 -5.8 -19.1 -4.95 -19.3 -5.25 -19.35 -5.85 L-19.45 -6.2 Q-19.55 -6.6 -19.55 -7.25 -19.55 -7.95 -19.35 -8.6 -19.25 -10.1 -18.9 -11.75 -18.4 -14.05 -17.55 -15.75 L-17.55 -15.7 -17.5 -15.7 -17.4 -15.6 Q-17.35 -15.55 -17.35 -15.35 L-17.65 -13.45 Q-18.0 -11.5 -18.0 -10.15 -18.0 -8.85 -17.6 -6.8 L-17.65 -7.5 Q-17.65 -9.35 -17.15 -12.05 -16.6 -14.95 -15.6 -17.6 -14.1 -21.9 -12.1 -24.15 L-11.6 -24.95 Q-10.0 -27.45 -8.5 -28.25 -8.0 -28.85 -7.75 -29.0 L-7.6 -29.0 Q-7.55 -28.95 -7.55 -28.8 -7.55 -28.65 -8.2 -27.75 L-8.55 -27.2 Q-9.7 -25.45 -10.95 -22.65 -12.3 -19.65 -13.05 -16.6 L-12.95 -16.75 Q-11.9 -19.45 -10.1 -22.4 -8.3 -25.35 -6.4 -27.5 -4.35 -29.85 -2.8 -30.5 L-2.75 -30.4 Q-4.15 -28.95 -5.05 -27.2 L-5.8 -25.0 Q-6.05 -24.3 -6.3 -23.7 L-6.45 -23.1 -4.85 -24.95 Q-3.6 -26.35 -2.3 -27.3 -0.85 -28.4 1.15 -29.35 4.2 -31.1 7.6 -31.8 L8.15 -31.95 8.1 -31.9 8.5 -31.95 8.5 -31.85 7.65 -31.55 7.45 -31.4 Q6.45 -30.6 4.25 -28.85 L4.0 -28.65 3.6 -28.15 3.85 -28.2 Q4.85 -28.7 6.65 -29.2 9.6 -30.0 13.8 -30.5 L13.9 -30.45 14.2 -30.5 Q14.3 -30.45 14.35 -30.25 13.5 -30.05 11.9 -29.35 L11.55 -29.25 16.25 -29.65 20.65 -29.7 Q20.8 -29.75 21.45 -29.7 L22.8 -29.6 22.75 -29.5 22.55 -29.5 23.65 -29.4 23.75 -29.2 M21.6 -26.7 L21.45 -26.7 21.5 -26.75 21.5 -26.8 21.6 -26.7 M20.35 -25.85 L20.05 -25.8 20.45 -25.8 20.35 -25.85 M20.85 -17.55 L20.85 -17.55 M7.6 -26.4 L7.85 -26.5 7.7 -26.45 7.6 -26.4 M8.0 -26.4 L8.0 -26.4 M7.95 -26.5 L8.05 -26.55 8.0 -26.5 7.95 -26.5 M9.55 -7.55 L9.55 -7.55 M-13.9 -17.3 L-13.95 -17.3 -14.0 -17.15 -13.95 -17.25 -13.9 -17.3 M-15.45 -2.25 L-15.55 -2.25 -15.45 -2.2 -15.45 -2.25 M-5.2 -1.7 L-5.15 -1.75 -5.2 -1.75 -5.2 -1.7 M-0.9 -1.45 L-0.85 -1.35 -0.85 -1.5 -0.9 -1.45" fill="#ffffff" fill-rule="evenodd" stroke="none"/>
  </g>
</svg>
