<?xml version="1.0" encoding="UTF-8" standalone="no"?>
<svg xmlns:ffdec="https://www.free-decompiler.com/flash" xmlns:xlink="http://www.w3.org/1999/xlink" ffdec:objectType="shape" height="8.6px" width="58.5px" xmlns="http://www.w3.org/2000/svg">
  <g transform="matrix(1.0, 0.0, 0.0, 1.0, 32.7, 10.25)">
    <path d="M5.6 -4.15 Q5.8 -4.15 5.85 -4.05 L5.9 -3.8 Q7.4 -6.25 7.5 -5.85 7.55 -5.7 7.45 -5.05 7.35 -4.3 7.35 -3.95 7.35 -3.8 7.6 -3.3 7.85 -2.8 8.0 -2.7 L7.9 -2.6 12.5 -2.6 14.5 -2.45 Q14.65 -2.45 15.35 -2.7 L16.05 -2.7 17.35 -2.65 19.0 -2.55 19.05 -2.4 Q18.8 -2.2 18.5 -2.15 L17.75 -2.05 14.25 -2.05 11.85 -2.1 8.95 -1.9 7.65 -1.95 7.6 -1.9 6.7 -2.05 6.65 -2.05 6.2 -2.1 5.6 -2.2 4.8 -2.35 4.85 -2.35 4.3 -2.4 4.2 -2.45 4.2 -2.7 Q4.2 -2.95 5.6 -4.15 M18.5 -7.25 Q18.7 -7.15 18.7 -6.65 18.7 -6.3 18.65 -6.15 18.55 -6.0 18.4 -5.9 L18.4 -5.75 Q18.25 -5.75 18.2 -5.6 18.05 -5.65 17.95 -5.75 L17.9 -5.75 Q17.85 -5.8 17.85 -5.85 L17.55 -6.2 17.05 -6.95 Q17.55 -7.45 17.95 -7.2 L18.5 -7.25 M20.85 -8.65 Q21.05 -8.7 21.25 -8.85 L20.95 -8.6 20.85 -8.65 M21.3 -8.9 L21.4 -9.0 21.3 -8.9 M21.9 -5.65 Q21.75 -5.5 21.5 -5.5 L21.45 -5.5 21.35 -5.4 Q21.0 -5.45 20.95 -5.7 L20.9 -6.1 Q21.0 -6.15 21.15 -6.2 L21.15 -6.35 Q21.75 -6.75 21.95 -6.4 22.05 -6.25 22.05 -5.95 22.05 -5.75 21.9 -5.65 M23.3 -3.25 L22.4 -3.6 Q22.8 -3.85 24.2 -3.6 25.5 -3.35 25.8 -3.05 25.5 -2.6 24.55 -2.4 L23.6 -2.3 Q22.95 -2.3 22.85 -2.4 23.0 -2.55 23.25 -2.7 L23.6 -2.85 23.85 -2.95 Q23.8 -3.05 23.3 -3.25 M-30.55 -5.35 L-29.95 -5.4 -29.9 -5.2 Q-30.0 -5.0 -30.3 -4.55 -30.65 -4.6 -30.7 -4.75 L-30.7 -4.95 Q-30.7 -5.25 -30.55 -5.35 M-32.7 -2.45 Q-32.7 -2.8 -31.7 -3.05 -30.9 -3.2 -30.2 -3.2 L-29.9 -3.15 -29.75 -3.05 -29.7 -3.1 -29.7 -2.95 Q-29.7 -2.75 -29.95 -2.7 -30.3 -2.6 -30.35 -2.55 L-30.45 -2.5 Q-29.9 -2.35 -29.3 -2.35 L-29.2 -2.05 -29.3 -1.8 -29.65 -1.75 -30.2 -1.7 Q-31.4 -1.7 -32.1 -1.95 -32.7 -2.2 -32.7 -2.45 M-27.75 -6.95 Q-27.45 -7.2 -26.65 -7.05 L-26.6 -7.1 -26.6 -6.95 Q-26.6 -6.75 -26.9 -6.3 -27.25 -5.85 -27.3 -5.45 L-27.25 -5.4 Q-27.2 -5.35 -27.4 -5.35 -27.8 -5.35 -28.0 -5.75 -28.1 -5.95 -28.1 -6.15 -28.1 -6.75 -27.75 -6.95 M-24.0 -1.85 Q-24.4 -1.85 -24.5 -1.95 -23.9 -2.3 -23.3 -2.5 L-23.05 -2.6 -22.65 -2.75 -22.7 -2.95 Q-22.7 -3.35 -22.1 -4.6 -21.4 -6.0 -20.9 -6.05 -20.95 -4.9 -20.85 -3.75 L-20.55 -3.15 Q-20.2 -3.6 -19.35 -4.9 -17.9 -7.05 -17.1 -7.65 L-16.95 -7.55 Q-16.9 -7.45 -16.9 -7.25 L-17.3 -5.8 Q-17.7 -4.25 -17.7 -4.0 -17.7 -3.7 -17.45 -3.25 -17.3 -3.0 -17.25 -2.75 L-17.25 -3.05 Q-17.25 -4.4 -15.7 -6.45 -14.6 -7.85 -12.85 -9.45 L-12.65 -9.4 Q-12.6 -9.3 -12.6 -9.1 L-13.15 -7.4 Q-13.75 -5.6 -13.75 -5.15 -13.75 -4.35 -13.65 -3.85 -13.55 -3.15 -13.25 -2.85 -12.5 -4.75 -10.55 -7.25 -8.7 -9.65 -7.75 -10.25 L-7.7 -10.2 Q-7.7 -10.15 -7.7 -10.0 -7.7 -9.5 -8.3 -7.65 L-9.0 -5.5 -9.0 -4.55 -7.6 -6.35 Q-6.55 -7.7 -6.25 -7.7 L-6.05 -7.7 -6.05 -7.6 Q-6.0 -7.6 -6.0 -7.4 -6.5 -5.05 -6.5 -4.6 -6.5 -4.35 -6.3 -3.55 L-6.15 -3.05 Q-6.0 -3.9 -4.35 -6.0 -2.65 -8.15 -1.85 -8.75 L-1.7 -8.7 -1.7 -8.5 Q-1.7 -8.2 -2.1 -7.65 L-3.0 -6.45 Q-4.3 -4.6 -4.3 -2.7 L-4.35 -2.4 -4.35 -2.25 -4.75 -2.25 Q-5.05 -2.15 -5.65 -2.1 L-5.7 -2.0 -8.45 -2.0 -8.45 -1.95 -8.55 -1.9 Q-11.7 -1.8 -15.2 -1.8 L-18.5 -1.65 Q-18.8 -1.7 -18.8 -1.75 L-22.1 -1.65 Q-23.1 -1.6 -23.6 -1.85 L-24.0 -1.85 M-21.45 -4.45 L-21.45 -4.5 -21.5 -4.4 -21.45 -4.35 -21.45 -4.45 M-18.7 -2.5 L-18.95 -2.45 -18.45 -2.45 -18.7 -2.5 M-13.9 -2.45 L-13.9 -2.4 -13.4 -2.4 -13.35 -2.55 -13.45 -2.45 -13.65 -2.5 -13.85 -2.45 -13.9 -2.45 M-6.65 -2.55 L-6.35 -2.55 -6.5 -2.7 -6.65 -2.55 M-6.1 -2.55 L-6.05 -2.55 -6.1 -2.6 -6.1 -2.55" fill="#ffffff" fill-rule="evenodd" stroke="none"/>
  </g>
</svg>
