<?xml version="1.0" encoding="UTF-8" standalone="no"?>
<svg xmlns:ffdec="https://www.free-decompiler.com/flash" xmlns:xlink="http://www.w3.org/1999/xlink" ffdec:objectType="shape" height="5.65px" width="59.2px" xmlns="http://www.w3.org/2000/svg">
  <g transform="matrix(1.0, 0.0, 0.0, 1.0, 33.1, 7.25)">
    <path d="M8.5 -2.35 L16.15 -2.6 17.65 -2.55 Q17.75 -2.4 17.85 -2.35 L18.2 -2.2 Q18.15 -2.1 17.8 -2.0 17.3 -1.9 16.7 -1.9 L13.85 -1.8 11.3 -1.85 8.7 -2.0 8.5 -2.0 Q8.35 -2.05 8.25 -2.1 L8.25 -2.2 Q7.95 -2.05 7.45 -1.85 L7.0 -1.9 6.5 -2.0 6.5 -2.05 Q6.45 -2.1 6.45 -2.3 6.45 -2.35 6.65 -2.6 6.85 -2.8 6.9 -2.95 L6.95 -3.3 Q7.0 -3.45 7.1 -3.55 7.4 -3.45 7.7 -2.9 8.0 -2.45 8.6 -2.45 L8.5 -2.35 M19.2 -7.15 L19.25 -6.95 Q19.25 -6.85 19.15 -6.75 19.05 -6.55 18.75 -6.55 18.55 -6.6 18.55 -6.65 18.45 -6.7 18.45 -6.9 18.45 -7.15 18.75 -7.25 L19.2 -7.25 19.2 -7.15 M25.95 -2.4 Q25.8 -2.2 25.5 -2.2 25.25 -2.2 25.1 -2.45 25.0 -2.65 25.0 -2.75 25.0 -3.1 25.55 -3.2 26.1 -3.25 26.1 -2.8 26.1 -2.6 25.95 -2.4 M-32.0 -2.75 L-31.95 -2.75 Q-31.9 -2.75 -31.9 -2.55 -31.9 -2.2 -31.9 -2.1 -31.95 -1.85 -32.15 -1.85 -32.9 -1.85 -33.05 -2.05 -33.1 -2.05 -33.1 -2.3 -33.1 -2.55 -32.6 -2.75 L-32.0 -2.75 M-27.85 -6.35 L-28.2 -6.35 -28.2 -6.4 -28.25 -6.65 Q-28.25 -6.95 -28.0 -6.9 -27.85 -6.9 -27.55 -6.75 -27.85 -6.4 -27.85 -6.35 M-19.05 -4.15 L-19.05 -4.1 -19.0 -4.1 -19.05 -4.0 Q-19.15 -3.65 -19.4 -3.15 L-19.45 -2.85 -19.1 -2.5 -18.5 -2.5 Q-18.05 -2.85 -17.05 -4.15 -16.5 -4.85 -16.3 -5.0 -15.95 -5.25 -15.95 -4.75 -15.95 -4.65 -16.15 -3.95 -16.35 -3.25 -16.35 -3.1 -16.35 -2.9 -16.2 -2.75 -16.05 -2.7 -15.95 -2.5 L-13.5 -2.5 -13.1 -2.9 Q-12.6 -3.45 -12.25 -3.5 L-12.25 -3.6 -12.15 -3.6 -12.2 -3.1 Q-12.2 -2.95 -12.05 -2.8 -11.9 -2.7 -11.9 -2.55 L-11.9 -2.5 -10.6 -2.5 Q-10.45 -2.45 -10.4 -2.4 -10.3 -2.3 -10.3 -2.1 -10.3 -1.95 -10.45 -1.9 L-10.6 -1.85 Q-12.2 -1.85 -15.1 -1.75 L-17.85 -1.6 -23.05 -1.8 -23.1 -1.9 Q-23.1 -1.95 -23.1 -2.1 -23.1 -2.2 -22.85 -2.35 L-22.65 -2.5 Q-22.75 -2.65 -22.75 -3.1 -22.5 -3.85 -22.2 -4.0 -21.95 -3.9 -21.95 -3.5 L-21.95 -3.4 -21.65 -3.0 -21.3 -2.5 -21.25 -2.5 -21.25 -2.55 -20.7 -3.2 Q-20.65 -3.4 -20.5 -3.4 L-20.3 -3.65 Q-19.65 -4.25 -19.1 -4.1 L-19.05 -4.15 M-19.75 -3.35 L-19.9 -3.2 -19.8 -3.15 -19.75 -3.35 M-13.0 -2.5 L-12.8 -2.5 Q-12.75 -2.7 -12.55 -2.95 L-12.35 -3.2 -12.65 -2.85 Q-12.85 -2.65 -13.0 -2.5" fill="#ffffff" fill-rule="evenodd" stroke="none"/>
  </g>
</svg>
