<?xml version="1.0" encoding="UTF-8" standalone="no"?>
<svg xmlns:ffdec="https://www.free-decompiler.com/flash" xmlns:xlink="http://www.w3.org/1999/xlink" ffdec:objectType="shape" height="16.55px" width="10.1px" xmlns="http://www.w3.org/2000/svg">
  <g transform="matrix(1.0, 0.0, 0.0, 1.0, 6.0, 16.55)">
    <path d="M1.7 -15.25 L2.1 -15.25 Q2.35 -15.3 2.6 -15.55 L2.75 -15.65 2.7 -15.35 2.6 -15.1 2.55 -15.0 2.5 -15.0 2.1 -14.8 Q1.85 -14.65 1.6 -14.65 L1.5 -14.65 1.35 -14.7 1.25 -14.75 Q1.3 -14.8 1.55 -15.05 L1.7 -15.25 M1.6 -12.95 L1.55 -13.05 1.65 -13.25 1.7 -13.4 1.8 -14.0 1.8 -14.15 1.9 -14.15 2.15 -14.25 Q2.25 -14.3 2.4 -14.4 2.3 -13.95 2.3 -13.55 L2.4 -12.85 2.3 -12.85 1.75 -12.95 1.6 -12.95 M1.85 -12.25 L2.05 -12.3 2.2 -12.3 2.3 -12.35 2.4 -12.45 2.45 -12.45 2.45 -12.2 2.6 -11.2 Q2.6 -11.05 2.7 -10.75 L2.8 -10.4 Q1.95 -10.5 1.25 -10.95 L1.05 -11.1 Q1.25 -11.05 1.45 -11.05 1.65 -11.05 1.75 -11.15 1.85 -11.25 1.85 -11.35 L1.9 -11.6 1.95 -11.9 1.9 -12.2 1.85 -12.25 M0.5 -11.7 L0.45 -11.9 0.5 -11.7 M0.45 -12.85 L0.45 -12.9 0.65 -12.9 0.7 -12.8 0.45 -12.85 M1.6 -9.0 L1.65 -9.0 Q1.95 -9.0 2.3 -9.35 L2.35 -9.35 2.35 -9.45 Q2.35 -9.7 2.1 -9.9 2.4 -9.8 2.7 -9.8 2.8 -9.8 2.85 -9.85 L3.1 -8.85 3.1 -8.7 Q2.5 -8.7 2.05 -8.85 1.8 -8.9 1.6 -9.0 M1.35 -10.4 L1.25 -10.45 1.05 -10.65 1.35 -10.4 M1.35 -7.15 Q1.35 -7.25 1.45 -7.25 L1.65 -7.2 Q2.1 -7.2 2.1 -7.8 2.1 -8.0 2.35 -8.15 L2.45 -8.15 2.65 -8.1 2.8 -8.1 Q2.9 -8.1 3.15 -8.2 L3.2 -8.25 Q3.35 -7.3 3.35 -7.0 L3.3 -6.2 Q2.35 -6.4 1.7 -6.85 L1.65 -6.9 1.55 -6.95 1.35 -7.15 M0.8 -5.9 Q0.85 -5.95 1.0 -5.95 L1.2 -5.95 Q1.45 -5.95 1.65 -6.2 L1.8 -6.3 2.05 -6.1 Q2.65 -5.7 3.2 -5.7 L3.15 -5.35 3.0 -4.9 Q2.35 -5.05 1.55 -5.45 L1.2 -5.6 Q1.0 -5.75 0.8 -5.9 M-0.55 -4.5 Q-0.45 -4.5 -0.25 -4.4 L0.25 -4.05 Q0.6 -4.05 0.9 -4.45 1.1 -4.75 1.3 -4.9 L1.3 -4.85 1.4 -4.8 1.45 -4.75 Q2.05 -4.3 2.6 -4.3 L2.85 -4.35 Q2.6 -3.7 2.3 -3.2 2.05 -2.7 1.75 -2.3 0.8 -2.55 0.1 -3.4 L-0.2 -3.8 Q-0.45 -4.15 -0.55 -4.5 M-0.2 -2.95 L0.0 -2.65 Q0.55 -1.9 1.2 -1.7 0.65 -1.2 0.0 -0.9 -0.75 -1.2 -1.5 -1.75 -1.9 -2.05 -2.15 -2.3 -2.55 -2.7 -2.55 -3.0 L-2.5 -3.4 -2.45 -3.35 Q-2.4 -3.3 -2.15 -2.9 L-1.85 -2.65 Q-1.7 -2.55 -1.4 -2.55 -1.15 -2.55 -0.7 -2.75 -0.4 -2.9 -0.2 -2.95 M-3.95 -2.8 L-3.7 -2.4 -3.4 -2.0 Q-3.2 -1.7 -2.95 -1.7 L-2.35 -1.8 -2.35 -1.75 -1.5 -0.65 -1.45 -0.6 -1.3 -0.55 -1.8 -0.5 Q-2.35 -0.5 -2.8 -0.75 L-3.15 -1.1 -3.5 -1.5 -3.5 -1.55 -3.7 -1.85 -3.95 -2.8" fill="#805619" fill-rule="evenodd" stroke="none"/>
    <path d="M2.75 -16.2 L2.6 -16.2 1.75 -16.1 Q1.15 -16.0 0.85 -15.85 L0.95 -15.8 1.35 -15.75 1.7 -15.7 Q2.15 -15.7 2.4 -15.95 2.65 -16.2 2.75 -16.2 M0.55 -15.95 L1.0 -16.2 Q1.5 -16.4 1.95 -16.5 3.25 -16.75 3.25 -15.75 3.25 -15.5 3.2 -15.15 3.1 -14.75 2.9 -14.65 L2.85 -14.6 2.85 -14.2 Q2.85 -14.1 2.9 -13.9 L2.95 -13.55 3.05 -13.2 3.1 -13.0 2.85 -12.65 2.85 -12.55 Q3.0 -12.3 3.15 -11.85 3.35 -11.2 3.35 -11.0 3.35 -10.9 3.4 -10.8 L3.45 -10.6 3.25 -10.2 3.3 -9.85 3.4 -9.65 Q3.65 -9.15 3.65 -8.75 L3.6 -8.55 3.6 -8.4 Q4.1 -7.7 4.1 -7.0 4.1 -6.8 3.95 -6.4 3.9 -6.1 3.8 -5.95 L3.85 -5.7 Q3.95 -5.45 3.95 -5.1 3.95 -4.75 3.7 -4.3 L3.3 -3.35 3.0 -3.25 Q3.0 -2.95 2.75 -2.45 2.35 -1.7 1.9 -1.65 L1.8 -1.65 Q1.8 -1.4 1.4 -0.9 0.85 -0.3 0.1 -0.3 L-0.05 -0.3 -0.1 -0.35 -0.1 -0.4 -0.2 -0.4 Q-1.05 0.0 -1.9 0.0 L-2.5 -0.05 Q-2.55 0.0 -2.65 0.0 -2.95 0.0 -3.2 -0.15 -3.25 -0.05 -3.35 -0.05 -3.4 -0.05 -3.55 -0.15 -4.5 -0.3 -5.25 -1.35 -6.0 -2.4 -6.0 -3.3 L-5.6 -3.95 Q-5.15 -4.7 -4.65 -5.3 -3.05 -7.3 -1.75 -7.3 -1.25 -7.3 -0.85 -6.95 L-0.55 -7.25 -0.65 -7.45 Q-0.65 -7.6 -0.4 -7.9 L-0.05 -8.3 0.0 -8.3 0.0 -8.35 -0.05 -8.55 -0.25 -9.0 Q-0.25 -9.2 0.0 -9.6 L0.25 -9.9 0.25 -10.05 0.2 -10.1 Q0.0 -10.4 0.0 -10.75 0.0 -11.2 0.05 -11.45 L0.05 -11.55 Q-0.1 -11.8 -0.1 -11.95 L0.0 -13.3 Q-0.2 -13.5 -0.2 -13.6 -0.2 -13.95 0.0 -14.5 0.15 -14.85 0.3 -15.0 L0.3 -15.1 Q0.2 -15.35 0.2 -15.55 0.2 -15.7 0.45 -16.0 L0.55 -15.95 M1.7 -15.25 L1.1 -15.3 0.8 -15.4 0.7 -15.1 0.75 -15.1 Q1.05 -14.8 1.35 -14.7 L1.5 -14.65 1.6 -14.65 Q1.85 -14.65 2.1 -14.8 L2.5 -15.0 2.55 -15.0 2.6 -15.1 2.7 -15.35 2.75 -15.65 2.6 -15.55 Q2.35 -15.3 2.1 -15.25 L1.7 -15.25 M1.8 -14.15 Q1.25 -14.15 0.95 -14.35 0.75 -14.45 0.65 -14.65 L0.65 -14.6 0.5 -13.4 Q0.75 -13.4 1.0 -13.25 1.3 -13.05 1.6 -12.95 L1.75 -12.95 2.3 -12.85 2.4 -12.85 2.3 -13.55 Q2.3 -13.95 2.4 -14.4 2.25 -14.3 2.15 -14.25 L1.9 -14.15 1.8 -14.15 M1.05 -11.1 L1.25 -10.95 Q1.95 -10.5 2.8 -10.4 L2.7 -10.75 Q2.6 -11.05 2.6 -11.2 L2.45 -12.2 2.45 -12.45 2.4 -12.45 2.3 -12.35 2.2 -12.3 2.05 -12.3 1.85 -12.25 1.8 -12.25 Q1.6 -12.25 1.05 -12.6 L0.7 -12.8 0.65 -12.9 0.45 -12.9 0.45 -12.85 0.45 -12.8 0.4 -12.45 0.45 -11.9 0.5 -11.7 0.55 -11.65 0.95 -11.2 1.05 -11.1 M1.05 -10.65 Q0.75 -10.95 0.55 -11.2 L0.5 -11.25 0.5 -11.15 0.55 -10.15 0.6 -10.1 0.65 -10.0 Q0.85 -9.75 1.2 -9.35 L1.6 -9.0 Q1.8 -8.9 2.05 -8.85 2.5 -8.7 3.1 -8.7 L3.1 -8.85 2.85 -9.85 Q2.8 -9.8 2.7 -9.8 2.4 -9.8 2.1 -9.9 1.75 -10.1 1.35 -10.4 L1.05 -10.65 M2.35 -8.15 Q2.05 -8.25 1.75 -8.5 1.55 -8.55 1.2 -8.95 0.8 -9.3 0.65 -9.5 L0.6 -9.55 0.55 -9.5 Q0.55 -9.0 0.45 -8.55 0.85 -7.7 1.25 -7.25 L1.35 -7.15 1.55 -6.95 1.65 -6.9 1.7 -6.85 Q2.35 -6.4 3.3 -6.2 L3.35 -7.0 Q3.35 -7.3 3.2 -8.25 L3.15 -8.2 Q2.9 -8.1 2.8 -8.1 L2.65 -8.1 2.45 -8.15 2.35 -8.15 M1.8 -6.3 Q1.5 -6.6 1.15 -7.0 0.6 -7.65 0.35 -8.15 L0.2 -7.7 0.1 -7.2 0.1 -7.1 Q0.1 -6.85 0.2 -6.6 L0.35 -6.35 0.8 -5.9 Q1.0 -5.75 1.2 -5.6 L1.55 -5.45 Q2.35 -5.05 3.0 -4.9 L3.15 -5.35 3.2 -5.7 Q2.65 -5.7 2.05 -6.1 L1.8 -6.3 M1.3 -4.9 Q1.0 -5.15 0.65 -5.5 L0.2 -6.1 0.15 -6.05 -0.2 -6.65 -0.25 -6.75 -0.25 -6.7 -0.3 -6.75 Q-0.35 -6.65 -0.4 -6.4 L-0.4 -6.0 -0.45 -6.0 -0.5 -5.9 Q-0.65 -5.35 -0.65 -5.2 -0.65 -4.85 -0.55 -4.5 -0.45 -4.15 -0.2 -3.8 L0.1 -3.4 Q0.8 -2.55 1.75 -2.3 2.05 -2.7 2.3 -3.2 2.6 -3.7 2.85 -4.35 L2.6 -4.3 Q2.05 -4.3 1.45 -4.75 L1.4 -4.8 1.3 -4.85 1.3 -4.9 M-2.5 -3.4 L-2.55 -3.0 Q-2.55 -2.7 -2.15 -2.3 -1.9 -2.05 -1.5 -1.75 -0.75 -1.2 0.0 -0.9 0.65 -1.2 1.2 -1.7 0.55 -1.9 0.0 -2.65 L-0.2 -2.95 -0.35 -3.2 Q-1.0 -4.45 -1.0 -5.45 L-0.9 -6.0 -0.9 -6.05 -1.0 -6.05 -1.0 -6.0 Q-1.0 -5.85 -1.1 -5.9 -1.2 -5.9 -1.2 -5.8 L-1.75 -5.25 Q-2.3 -4.65 -2.4 -4.3 -2.5 -3.95 -2.5 -3.4 M-2.45 -6.15 L-1.95 -6.4 -1.95 -6.45 Q-1.5 -6.5 -1.15 -6.7 -1.3 -6.8 -1.45 -6.8 -2.25 -6.8 -3.15 -6.1 L-3.2 -6.1 -3.3 -6.0 Q-3.75 -5.6 -4.2 -5.1 L-4.6 -4.6 -4.75 -4.4 -5.0 -3.95 -5.05 -3.9 Q-5.4 -3.35 -5.4 -3.25 -5.4 -2.8 -5.25 -2.4 -5.1 -2.05 -4.85 -1.7 -4.5 -1.2 -4.05 -0.95 L-4.0 -0.95 -4.0 -1.0 -4.2 -1.45 -4.25 -1.6 -4.25 -1.65 -4.35 -1.85 Q-4.5 -2.45 -4.55 -3.0 L-4.55 -3.25 -4.45 -3.65 -4.45 -3.7 Q-4.4 -4.0 -4.4 -4.1 -4.4 -4.25 -4.15 -4.6 L-4.05 -4.7 -4.05 -4.75 Q-3.75 -5.15 -3.4 -5.45 -3.0 -5.85 -2.55 -6.1 L-2.45 -6.15 M-2.35 -1.8 L-2.45 -2.0 Q-2.85 -3.1 -2.85 -4.25 -2.85 -4.8 -2.35 -5.3 -1.95 -5.8 -1.3 -6.05 L-1.55 -6.05 Q-2.9 -6.05 -3.55 -4.6 -3.8 -4.15 -3.9 -3.6 L-4.0 -3.1 -3.95 -2.8 -3.7 -1.85 -3.5 -1.55 -3.5 -1.5 -3.2 -1.15 -3.15 -1.1 -2.8 -0.75 Q-2.35 -0.5 -1.8 -0.5 L-1.3 -0.55 -1.45 -0.6 -1.5 -0.65 -2.35 -1.75 -2.35 -1.8" fill="#111111" fill-rule="evenodd" stroke="none"/>
    <path d="M2.75 -16.2 Q2.65 -16.2 2.4 -15.95 2.15 -15.7 1.7 -15.7 L1.35 -15.75 0.95 -15.8 0.85 -15.85 Q1.15 -16.0 1.75 -16.1 L2.6 -16.2 2.75 -16.2 M1.35 -14.7 Q1.05 -14.8 0.75 -15.1 L0.7 -15.1 0.8 -15.4 1.1 -15.3 1.7 -15.25 1.55 -15.05 Q1.3 -14.8 1.25 -14.75 L1.35 -14.7 M1.6 -12.95 Q1.3 -13.05 1.0 -13.25 0.75 -13.4 0.5 -13.4 L0.65 -14.6 0.65 -14.65 Q0.75 -14.45 0.95 -14.35 1.25 -14.15 1.8 -14.15 L1.8 -14.0 1.7 -13.4 1.65 -13.25 1.55 -13.05 1.6 -12.95 M1.85 -12.25 L1.9 -12.2 1.95 -11.9 1.9 -11.6 1.85 -11.35 Q1.85 -11.25 1.75 -11.15 1.65 -11.05 1.45 -11.05 1.25 -11.05 1.05 -11.1 L0.95 -11.2 0.55 -11.65 0.5 -11.7 0.45 -11.9 0.4 -12.45 0.45 -12.8 0.45 -12.85 0.7 -12.8 1.05 -12.6 Q1.6 -12.25 1.8 -12.25 L1.85 -12.25 M1.6 -9.0 L1.2 -9.35 Q0.85 -9.75 0.65 -10.0 L0.6 -10.1 0.55 -10.15 0.5 -11.15 0.5 -11.25 0.55 -11.2 Q0.75 -10.95 1.05 -10.65 L1.25 -10.45 1.35 -10.4 Q1.75 -10.1 2.1 -9.9 2.35 -9.7 2.35 -9.45 L2.35 -9.35 2.3 -9.35 Q1.95 -9.0 1.65 -9.0 L1.6 -9.0 M1.35 -7.15 L1.25 -7.25 Q0.85 -7.7 0.45 -8.55 0.55 -9.0 0.55 -9.5 L0.6 -9.55 0.65 -9.5 Q0.8 -9.3 1.2 -8.95 1.55 -8.55 1.75 -8.5 2.05 -8.25 2.35 -8.15 2.1 -8.0 2.1 -7.8 2.1 -7.2 1.65 -7.2 L1.45 -7.25 Q1.35 -7.25 1.35 -7.15 M0.8 -5.9 L0.35 -6.35 0.2 -6.6 Q0.1 -6.85 0.1 -7.1 L0.1 -7.2 0.2 -7.7 0.35 -8.15 Q0.6 -7.65 1.15 -7.0 1.5 -6.6 1.8 -6.3 L1.65 -6.2 Q1.45 -5.95 1.2 -5.95 L1.0 -5.95 Q0.85 -5.95 0.8 -5.9 M-0.55 -4.5 Q-0.65 -4.85 -0.65 -5.2 -0.65 -5.35 -0.5 -5.9 L-0.45 -6.0 -0.4 -6.0 -0.4 -6.4 Q-0.35 -6.65 -0.3 -6.75 L-0.25 -6.7 -0.25 -6.75 -0.2 -6.65 0.15 -6.05 0.2 -6.1 0.65 -5.5 Q1.0 -5.15 1.3 -4.9 1.1 -4.75 0.9 -4.45 0.6 -4.05 0.25 -4.05 L-0.25 -4.4 Q-0.45 -4.5 -0.55 -4.5 M-0.2 -2.95 Q-0.4 -2.9 -0.7 -2.75 -1.15 -2.55 -1.4 -2.55 -1.7 -2.55 -1.85 -2.65 L-2.15 -2.9 Q-2.4 -3.3 -2.45 -3.35 L-2.5 -3.4 Q-2.5 -3.95 -2.4 -4.3 -2.3 -4.65 -1.75 -5.25 L-1.2 -5.8 Q-1.2 -5.9 -1.1 -5.9 -1.0 -5.85 -1.0 -6.0 L-1.0 -6.05 -0.9 -6.05 -0.9 -6.0 -1.0 -5.45 Q-1.0 -4.45 -0.35 -3.2 L-0.2 -2.95 M-3.15 -6.1 L-3.1 -6.1 -3.05 -6.0 -3.05 -5.85 -3.1 -5.8 -3.2 -5.8 Q-3.25 -5.8 -3.3 -5.85 L-3.3 -6.0 -3.2 -6.1 -3.15 -6.1 M-2.55 -6.1 Q-2.7 -6.1 -2.7 -6.3 -2.7 -6.45 -2.55 -6.45 -2.35 -6.45 -2.35 -6.3 L-2.35 -6.2 -2.45 -6.15 -2.55 -6.1 M-3.95 -2.8 L-4.0 -3.1 -3.9 -3.6 Q-3.8 -4.15 -3.55 -4.6 -2.9 -6.05 -1.55 -6.05 L-1.3 -6.05 Q-1.95 -5.8 -2.35 -5.3 -2.85 -4.8 -2.85 -4.25 -2.85 -3.1 -2.45 -2.0 L-2.35 -1.8 -2.95 -1.7 Q-3.2 -1.7 -3.4 -2.0 L-3.7 -2.4 -3.95 -2.8 M-3.15 -1.1 L-3.2 -1.15 -3.5 -1.5 -3.15 -1.1" fill="#cc8a28" fill-rule="evenodd" stroke="none"/>
    <path d="M-3.15 -6.1 Q-2.25 -6.8 -1.45 -6.8 -1.3 -6.8 -1.15 -6.7 -1.5 -6.5 -1.95 -6.45 L-1.95 -6.4 -2.45 -6.15 -2.35 -6.2 -2.35 -6.3 Q-2.35 -6.45 -2.55 -6.45 -2.7 -6.45 -2.7 -6.3 -2.7 -6.1 -2.55 -6.1 -3.0 -5.85 -3.4 -5.45 -3.75 -5.15 -4.05 -4.75 -4.0 -4.9 -4.15 -4.95 L-4.2 -4.85 -4.2 -4.8 -4.05 -4.7 -4.15 -4.6 Q-4.4 -4.25 -4.4 -4.1 -4.4 -4.0 -4.45 -3.7 -4.6 -4.0 -4.85 -4.1 L-5.0 -3.95 -4.75 -4.4 Q-4.7 -4.2 -4.5 -4.2 -4.45 -4.2 -4.4 -4.3 -4.35 -4.4 -4.35 -4.45 -4.35 -4.5 -4.4 -4.55 L-4.55 -4.6 -4.6 -4.6 -4.2 -5.1 Q-3.75 -5.6 -3.3 -6.0 L-3.3 -5.85 Q-3.25 -5.8 -3.2 -5.8 L-3.1 -5.8 -3.05 -5.85 -3.05 -6.0 -3.1 -6.1 -3.15 -6.1 M-4.05 -0.95 L-4.0 -1.0 -4.0 -0.95 -4.05 -0.95 M-4.25 -1.65 L-4.4 -1.9 -4.35 -1.8 -4.35 -1.85 -4.25 -1.65" fill="#8c1c1c" fill-rule="evenodd" stroke="none"/>
    <path d="M-4.6 -4.6 L-4.55 -4.6 -4.4 -4.55 Q-4.35 -4.5 -4.35 -4.45 -4.35 -4.4 -4.4 -4.3 -4.45 -4.2 -4.5 -4.2 -4.7 -4.2 -4.75 -4.4 L-4.6 -4.6 M-5.0 -3.95 L-4.85 -4.1 Q-4.6 -4.0 -4.45 -3.7 L-4.45 -3.65 -4.55 -3.25 -4.55 -3.0 Q-4.5 -2.45 -4.35 -1.85 L-4.35 -1.8 -4.4 -1.9 -4.25 -1.65 -4.25 -1.6 -4.2 -1.45 -4.0 -1.0 -4.05 -0.95 Q-4.5 -1.2 -4.85 -1.7 -5.1 -2.05 -5.25 -2.4 -5.4 -2.8 -5.4 -3.25 -5.4 -3.35 -5.05 -3.9 L-5.0 -3.95 M-4.05 -4.7 L-4.2 -4.8 -4.2 -4.85 -4.15 -4.95 Q-4.0 -4.9 -4.05 -4.75 L-4.05 -4.7" fill="#4d0f0f" fill-rule="evenodd" stroke="none"/>
  </g>
</svg>
