<?xml version="1.0" encoding="UTF-8" standalone="no"?>
<svg xmlns:ffdec="https://www.free-decompiler.com/flash" xmlns:xlink="http://www.w3.org/1999/xlink" ffdec:objectType="shape" height="40.2px" width="24.45px" xmlns="http://www.w3.org/2000/svg">
  <g transform="matrix(1.0, 0.0, 0.0, 1.0, 14.75, 38.05)">
    <path d="M5.1 -32.8 Q5.5 -32.2 5.6 -32.1 5.75 -31.8 5.8 -30.7 L5.8 -30.3 5.85 -29.6 Q5.9 -28.75 5.5 -27.0 L5.35 -26.35 5.35 -26.3 Q5.35 -26.2 5.25 -25.95 L5.15 -25.65 Q5.6 -25.9 6.3 -26.1 6.95 -26.3 7.7 -26.45 L8.35 -26.6 8.45 -26.6 8.9 -26.75 9.7 -26.85 Q9.55 -26.45 9.4 -25.95 9.05 -25.4 8.35 -24.85 7.9 -24.25 7.1 -23.55 6.3 -22.8 5.5 -22.2 4.95 -21.8 4.65 -21.65 4.45 -21.25 4.15 -20.9 3.1 -19.45 1.45 -18.8 L1.7 -18.0 Q2.05 -16.7 2.35 -16.45 2.6 -16.25 2.9 -15.25 3.2 -14.3 3.2 -13.5 3.25 -12.95 3.2 -12.65 L3.2 -12.6 3.15 -12.4 2.6 -11.1 Q2.4 -10.6 1.75 -9.6 L1.7 -9.5 2.0 -9.25 Q2.4 -8.85 2.4 -8.7 2.4 -8.25 2.0 -7.95 1.6 -7.75 1.0 -7.7 L0.95 -7.3 Q0.65 -6.05 0.65 -4.25 0.8 -4.15 1.05 -3.95 1.45 -3.6 1.45 -3.4 1.45 -3.0 1.0 -2.75 L0.45 -2.6 0.4 -2.45 0.1 -1.5 0.0 -0.65 Q0.0 -0.55 0.05 -0.4 0.0 -0.15 0.0 0.0 0.0 0.15 0.15 0.65 0.25 1.1 0.25 1.25 L0.25 1.35 0.3 1.5 Q0.15 1.95 0.0 2.15 L-0.2 2.1 -0.3 2.1 Q-0.45 2.1 -0.75 1.95 -1.4 1.8 -1.7 1.65 L-3.55 0.6 Q-3.65 0.55 -3.75 0.5 L-4.35 -0.15 -4.85 -0.7 Q-6.85 -2.8 -7.0 -5.25 L-7.05 -6.0 -7.05 -6.1 -7.1 -6.35 Q-7.25 -6.4 -7.35 -6.5 L-7.45 -6.55 Q-7.85 -6.9 -8.25 -7.65 L-8.4 -7.9 -8.6 -8.1 Q-9.45 -8.85 -10.15 -9.65 -12.35 -12.05 -12.35 -13.8 -12.35 -14.35 -12.25 -14.4 -12.2 -14.45 -11.9 -14.45 -11.85 -14.45 -10.2 -13.15 L-9.5 -12.6 -9.65 -12.95 -9.75 -13.45 -9.9 -14.05 -9.9 -14.2 Q-9.9 -14.35 -10.05 -15.1 L-10.15 -15.6 -10.1 -15.9 -10.1 -15.95 -10.05 -16.15 Q-10.35 -17.4 -10.9 -18.65 -12.35 -21.2 -13.0 -22.6 -14.15 -25.25 -14.5 -27.75 -14.75 -28.75 -14.75 -29.25 -14.75 -29.5 -14.7 -29.55 L-14.4 -29.6 Q-14.25 -29.6 -12.3 -27.1 -11.0 -25.4 -10.15 -24.25 L-10.2 -24.45 Q-10.2 -25.0 -10.05 -25.75 -9.85 -26.5 -9.9 -26.95 -9.9 -27.2 -9.6 -28.2 L-9.45 -28.6 Q-9.45 -28.75 -9.35 -28.9 L-9.3 -28.95 Q-9.2 -29.2 -9.15 -29.2 -8.9 -29.2 -8.05 -27.2 L-7.8 -26.6 -7.8 -26.8 -7.75 -26.9 -7.75 -27.0 -7.7 -27.05 -7.7 -27.2 Q-7.7 -27.35 -8.05 -29.65 L-8.1 -29.75 -8.1 -30.4 -8.15 -30.6 -8.4 -32.15 Q-8.45 -32.7 -8.7 -33.75 L-8.7 -34.1 -8.9 -34.9 -9.2 -35.9 -9.2 -35.95 Q-9.7 -37.45 -9.7 -37.55 L-9.7 -37.65 -9.75 -37.85 -9.75 -37.9 -9.7 -38.0 -9.7 -38.05 -9.55 -38.05 -9.1 -38.0 Q-7.35 -36.95 -7.2 -36.8 -5.9 -35.7 -4.15 -33.55 L-3.4 -34.45 Q-2.4 -35.5 -1.95 -35.5 -1.55 -35.5 -1.55 -35.15 L-1.95 -33.65 Q-2.35 -32.05 -2.35 -31.3 L-2.35 -31.1 -2.1 -30.55 -2.0 -30.7 Q-1.35 -31.9 -0.7 -32.4 L0.55 -33.55 Q1.5 -34.45 1.65 -34.5 1.75 -34.5 1.9 -34.4 2.0 -34.3 2.0 -34.25 2.0 -34.0 1.75 -32.25 1.45 -30.45 1.5 -29.5 1.55 -29.15 1.35 -28.3 L2.25 -29.65 2.6 -30.1 2.95 -30.6 2.95 -30.65 3.4 -31.25 3.85 -31.75 4.85 -32.6 5.1 -32.8 M-0.6 -26.4 Q-0.05 -26.8 0.55 -26.95 L0.6 -27.05 Q0.65 -27.85 0.8 -29.55 L1.15 -33.35 0.95 -33.35 0.75 -33.25 0.1 -32.75 Q-0.5 -32.1 -1.2 -30.85 L-1.75 -29.8 Q-1.35 -28.9 -1.15 -28.1 L-1.0 -27.35 -0.6 -26.4 -0.6 -26.4 M1.4 -23.0 Q1.65 -23.2 1.9 -23.35 L2.0 -23.4 Q2.8 -23.85 3.45 -23.9 L4.15 -24.0 4.75 -24.1 5.0 -24.15 5.15 -24.15 Q5.2 -24.15 5.2 -24.0 L5.2 -23.5 Q5.15 -22.85 4.95 -22.25 L4.95 -22.2 4.85 -22.05 5.1 -22.25 Q5.8 -22.75 6.1 -23.0 7.5 -24.15 8.6 -26.05 L8.05 -25.85 Q7.55 -25.7 7.4 -25.7 L7.3 -25.7 6.75 -25.5 6.35 -25.3 Q5.3 -24.8 4.5 -24.1 4.35 -24.15 4.35 -24.2 4.25 -24.25 4.25 -24.4 4.35 -24.6 4.5 -25.15 L4.75 -26.35 4.85 -26.85 5.15 -27.6 Q5.3 -28.3 5.35 -28.9 L5.3 -30.25 Q5.25 -30.65 5.1 -30.95 L4.75 -31.7 4.45 -31.4 4.1 -31.1 3.4 -30.35 2.4 -28.9 1.9 -28.25 1.05 -27.0 1.2 -27.05 1.25 -27.0 Q1.3 -27.0 1.35 -26.85 1.35 -26.55 1.15 -25.4 L1.05 -24.6 0.9 -23.95 0.9 -23.8 0.5 -22.3 0.45 -22.2 0.45 -22.25 0.4 -22.3 0.4 -22.55 0.65 -23.85 0.65 -23.9 0.8 -24.55 Q0.9 -25.4 0.85 -26.05 L0.8 -26.35 0.8 -26.5 0.65 -26.3 Q0.6 -26.15 0.6 -26.3 L0.65 -26.4 0.65 -26.45 -0.55 -25.45 Q-1.35 -24.7 -1.8 -24.1 L-1.85 -24.05 Q-2.25 -23.2 -2.25 -23.0 -2.25 -22.85 -2.4 -22.5 -2.55 -22.1 -2.6 -21.95 L-2.65 -21.9 Q-2.75 -21.95 -2.8 -22.25 -2.8 -22.6 -2.6 -23.3 L-2.55 -23.45 -2.45 -23.7 -2.4 -23.8 -2.4 -23.85 -2.25 -24.15 -1.9 -24.85 -1.85 -24.9 -1.75 -25.1 -1.15 -25.85 -1.15 -25.9 -1.1 -25.95 -1.1 -26.0 -1.2 -26.25 -1.2 -26.3 Q-1.9 -28.55 -2.55 -30.05 L-3.05 -31.1 Q-3.55 -31.9 -4.1 -32.7 L-4.85 -33.7 -4.85 -33.75 -5.4 -34.4 -5.7 -34.7 -5.7 -34.75 -5.8 -34.8 -5.8 -34.85 -6.4 -35.35 -7.1 -35.95 -7.3 -36.05 -8.0 -36.55 -8.3 -36.75 -8.4 -36.75 -8.85 -36.95 Q-8.8 -36.85 -8.75 -36.45 L-8.7 -36.35 Q-8.25 -35.1 -7.9 -32.95 -7.35 -29.95 -7.35 -28.15 L-7.2 -27.1 -7.2 -26.9 -6.95 -25.35 -7.05 -23.0 Q-6.85 -23.8 -6.45 -24.7 -5.75 -26.15 -4.95 -26.5 L-4.9 -26.5 -4.75 -26.55 -4.25 -26.55 Q-4.2 -26.55 -4.2 -26.4 L-4.2 -25.3 -4.2 -22.75 Q-4.2 -22.55 -4.35 -22.25 -4.45 -21.85 -4.65 -21.65 L-4.7 -21.8 -4.7 -21.95 -4.7 -22.0 -4.6 -23.0 Q-4.5 -24.0 -4.55 -24.5 L-4.6 -25.05 -4.65 -26.0 -4.7 -26.1 -4.8 -26.0 -5.1 -25.85 Q-6.0 -25.15 -6.45 -23.5 -6.75 -22.45 -6.9 -20.95 L-7.0 -20.95 -7.05 -21.2 -7.1 -20.9 Q-7.15 -21.65 -7.35 -22.3 L-7.4 -23.8 -7.4 -23.85 Q-7.55 -24.75 -8.1 -25.95 -8.55 -27.0 -9.05 -27.85 L-9.1 -27.8 -9.05 -27.5 -9.1 -27.65 -9.25 -26.7 -9.45 -25.85 Q-9.6 -25.05 -9.55 -24.2 L-9.5 -23.95 -9.5 -23.25 -9.35 -23.0 -9.45 -22.9 Q-9.35 -22.1 -9.15 -21.25 -8.95 -20.55 -8.7 -20.1 L-8.7 -20.0 Q-8.7 -19.7 -8.85 -19.2 L-8.9 -19.1 -8.9 -19.05 -8.95 -18.95 -9.0 -18.9 -8.95 -18.8 -9.0 -18.6 Q-9.05 -19.15 -9.3 -19.5 -9.5 -19.8 -9.85 -19.85 -10.2 -20.15 -10.25 -20.25 -10.3 -20.1 -10.3 -19.8 -10.25 -19.25 -9.75 -18.3 L-9.65 -18.15 -9.65 -18.25 Q-9.5 -18.1 -9.35 -18.1 L-9.2 -18.15 -9.05 -18.15 -9.15 -17.15 -9.2 -16.85 -9.2 -16.55 Q-9.35 -15.2 -9.3 -14.6 L-9.2 -13.7 -9.15 -13.7 -9.1 -13.25 -9.05 -12.85 -8.8 -12.15 -8.65 -11.9 -8.55 -11.8 -8.55 -11.7 Q-8.6 -11.6 -8.65 -11.55 L-8.8 -11.5 -9.2 -11.7 Q-9.7 -11.95 -10.25 -12.4 L-11.65 -13.35 -11.75 -13.35 Q-11.55 -12.2 -10.9 -11.25 -10.45 -10.7 -9.65 -10.05 -9.45 -9.7 -9.15 -9.3 -8.8 -9.15 -8.5 -9.0 L-8.35 -8.9 -8.7 -9.3 -8.25 -8.9 -8.05 -8.65 Q-7.65 -8.3 -7.65 -7.85 L-7.65 -7.65 -7.55 -7.55 Q-6.9 -6.8 -6.5 -6.65 L-6.45 -6.35 -6.3 -5.55 -6.3 -5.5 -6.25 -5.3 Q-6.2 -5.05 -6.2 -4.75 -6.15 -4.45 -6.0 -4.05 L-5.9 -3.8 -5.9 -3.7 -5.8 -3.45 Q-5.5 -2.85 -5.0 -2.05 -4.4 -1.05 -4.0 -0.55 L-3.45 0.05 Q-2.85 0.5 -1.9 0.95 L-0.95 1.35 -0.6 1.4 -0.35 1.35 -0.35 0.9 -0.4 0.7 Q-0.6 0.1 -0.65 -0.35 L-0.65 -0.55 Q-0.65 -0.75 -0.5 -1.25 L-0.25 -1.8 -0.15 -2.25 0.15 -3.4 0.2 -3.55 0.25 -3.75 0.25 -3.8 0.3 -4.3 0.3 -4.65 0.35 -4.8 0.4 -5.15 Q-0.6 -5.6 -1.1 -6.4 -1.7 -7.35 -1.55 -8.6 -1.55 -7.45 -0.75 -6.35 -0.15 -5.5 0.4 -5.2 0.55 -6.2 0.55 -6.85 L0.5 -7.25 0.8 -8.55 0.95 -8.8 Q1.15 -9.1 1.15 -9.35 1.15 -9.6 1.6 -10.15 L2.05 -10.65 1.95 -10.35 2.4 -11.4 2.4 -11.45 2.5 -11.7 Q2.55 -11.85 2.55 -11.95 L2.65 -12.85 2.65 -12.9 2.7 -13.0 2.8 -13.0 Q2.7 -13.35 2.7 -13.6 2.75 -14.2 2.7 -14.7 2.7 -15.3 2.4 -15.8 L1.85 -16.6 Q1.0 -17.6 0.9 -18.95 0.9 -19.15 0.95 -19.35 0.85 -19.7 0.9 -19.9 1.1 -19.55 1.1 -19.3 L1.25 -19.15 1.35 -19.2 1.4 -19.15 Q2.05 -19.6 2.6 -20.05 L2.75 -20.2 3.05 -20.45 Q4.7 -22.0 4.7 -23.85 L4.5 -23.9 4.45 -23.9 4.25 -23.9 Q3.65 -23.85 2.5 -23.15 L0.5 -21.95 0.45 -22.05 0.6 -22.2 0.75 -22.4 1.25 -22.85 1.4 -23.0 M-4.75 -21.75 L-4.1 -21.05 -3.6 -20.4 -3.4 -20.15 Q-2.7 -19.3 -2.5 -18.85 L-2.5 -19.1 Q-2.35 -19.55 -1.4 -19.9 L-1.1 -20.0 -0.25 -20.25 0.4 -20.25 0.55 -20.25 0.55 -20.2 0.3 -20.15 -0.3 -20.1 Q-0.4 -20.1 -0.65 -20.0 L-1.05 -19.9 -1.1 -19.9 Q-1.25 -19.85 -1.75 -19.45 L-2.45 -18.85 -2.5 -18.8 -2.5 -18.75 Q-2.45 -18.6 -2.45 -18.5 L-2.45 -18.4 -2.55 -18.5 -2.8 -18.7 -3.0 -18.9 -3.45 -19.5 -3.7 -19.7 -4.1 -20.15 Q-4.5 -20.75 -4.9 -21.15 -5.25 -21.5 -5.6 -21.75 L-5.7 -21.85 -5.8 -21.85 -5.9 -20.85 Q-5.9 -20.35 -5.65 -19.0 L-5.6 -18.9 Q-5.6 -18.4 -5.45 -17.8 L-5.4 -17.1 -5.4 -16.2 Q-5.55 -15.95 -5.55 -15.8 L-5.55 -15.65 -5.5 -15.65 Q-5.6 -15.3 -5.8 -14.9 L-5.85 -14.55 Q-5.85 -14.35 -6.05 -13.95 -6.25 -13.5 -6.25 -13.0 -6.25 -12.65 -5.95 -11.25 -5.7 -9.85 -5.7 -9.55 -5.7 -9.45 -5.7 -9.4 L-5.8 -9.4 -5.85 -9.45 -5.85 -9.55 -6.45 -11.4 Q-6.65 -12.1 -6.65 -13.15 L-6.5 -13.85 -6.5 -13.9 Q-6.5 -14.35 -6.35 -14.95 -6.2 -15.55 -6.2 -16.4 -6.2 -17.6 -6.4 -19.75 -6.65 -21.9 -6.65 -22.35 -6.65 -22.55 -6.55 -22.65 -6.45 -22.9 -6.2 -22.9 -6.0 -22.9 -5.65 -22.6 -5.3 -22.3 -4.75 -21.75 M5.75 -23.15 L5.6 -22.95 5.6 -23.0 5.55 -23.05 Q5.7 -23.2 5.75 -23.2 L5.75 -23.15 M0.1 -14.25 L-0.15 -14.65 Q-0.3 -15.1 -0.6 -15.5 -1.05 -16.45 -1.25 -17.1 L-1.25 -17.25 Q-1.0 -16.65 -0.6 -16.05 L0.1 -15.05 Q0.4 -14.6 0.6 -14.15 0.8 -13.75 0.9 -13.35 L1.0 -12.75 1.0 -12.45 1.1 -12.1 Q1.1 -11.75 0.8 -11.2 0.6 -10.85 0.4 -10.6 L0.5 -10.7 0.55 -10.65 Q0.0 -10.1 -1.05 -9.75 L-1.15 -9.7 Q-1.7 -9.55 -2.55 -9.4 L-2.55 -9.35 -2.75 -9.35 Q-2.85 -9.2 -2.85 -9.3 L-2.9 -9.4 -2.9 -9.55 -2.85 -9.55 -2.85 -9.5 -2.8 -9.55 -2.6 -9.6 -2.5 -9.6 -2.15 -9.7 -1.8 -9.8 -1.75 -9.8 Q-1.45 -9.9 -1.2 -10.0 L-0.4 -10.2 -0.4 -10.25 -0.05 -10.4 -0.1 -10.45 Q0.25 -10.8 0.55 -11.85 L0.75 -12.6 Q0.45 -13.45 0.1 -14.25 M-2.0 -5.9 L-3.0 -7.1 -4.0 -8.35 -4.0 -8.4 -4.25 -8.55 -4.2 -8.65 -4.15 -8.75 -4.2 -8.75 -3.9 -9.3 -3.8 -9.45 -3.6 -9.55 -3.5 -9.4 -3.5 -9.25 -3.55 -9.2 Q-3.6 -9.05 -3.8 -8.95 L-3.7 -8.95 Q-3.4 -8.95 -2.95 -8.1 L-2.4 -6.95 -2.45 -6.9 Q-2.15 -6.45 -1.85 -5.85 L-1.9 -5.75 -1.9 -5.8 -2.0 -5.9 M1.55 -9.15 Q1.4 -8.9 1.3 -8.6 L1.15 -8.15 1.4 -8.25 Q2.05 -8.4 2.05 -8.6 2.05 -8.7 1.65 -9.05 1.6 -9.1 1.55 -9.15 M0.65 -3.5 L0.55 -3.1 Q0.85 -3.2 0.95 -3.35 L0.65 -3.7 0.65 -3.5 M-3.8 -33.1 L-2.85 -31.8 -2.2 -34.8 Q-3.05 -34.7 -3.6 -33.85 L-3.9 -33.25 -3.8 -33.1 M-9.5 -20.4 L-9.55 -20.5 -9.65 -20.75 -9.65 -20.85 -9.75 -21.1 -9.75 -21.6 Q-10.0 -22.65 -10.05 -22.95 L-10.0 -23.4 -10.6 -24.2 -11.15 -24.9 -11.25 -25.05 -11.35 -25.1 -11.35 -25.2 -11.4 -25.25 Q-12.7 -26.85 -13.6 -27.85 L-14.2 -28.5 Q-13.95 -26.75 -13.3 -24.95 -13.05 -24.2 -12.1 -21.9 -11.85 -21.35 -11.4 -20.65 L-11.2 -20.4 -11.15 -20.3 -11.15 -20.25 -10.75 -19.65 -10.75 -19.85 Q-10.75 -20.1 -10.7 -20.35 L-10.7 -20.45 -10.45 -20.8 -10.4 -20.85 -10.35 -20.85 -10.25 -20.9 -9.5 -20.3 -9.45 -20.3 -9.5 -20.35 -9.5 -20.4 M-0.8 -15.1 L-0.7 -14.95 -0.7 -14.85 -0.7 -14.8 -0.75 -14.8 -0.65 -14.7 -0.65 -14.65 -0.5 -14.5 -0.3 -14.15 Q-0.15 -13.9 -0.15 -13.65 L-0.15 -13.25 Q-0.3 -13.15 -0.45 -12.9 L-0.45 -13.3 Q-0.4 -13.5 -0.4 -13.7 -0.45 -14.4 -0.95 -14.9 L-1.3 -15.1 -1.35 -14.9 Q-1.4 -14.45 -1.55 -13.8 L-1.55 -13.7 -1.6 -13.55 -1.65 -13.15 -1.6 -13.1 -1.6 -13.0 -1.65 -12.9 Q-1.85 -12.25 -1.9 -12.0 L-1.9 -11.95 -1.85 -11.85 -1.85 -11.75 Q-1.85 -11.6 -1.9 -11.5 L-1.55 -11.6 Q-1.45 -11.65 -1.35 -11.7 L-1.3 -11.75 -1.15 -11.75 Q-1.05 -11.85 -0.9 -12.0 L-0.8 -12.15 -0.75 -12.25 -0.75 -12.2 -0.8 -12.0 -1.7 -11.1 -2.0 -11.0 Q-2.2 -11.0 -2.3 -10.8 L-2.6 -10.5 -2.55 -10.5 -2.55 -10.4 -2.6 -10.4 -2.55 -10.3 -2.65 -10.05 Q-2.8 -9.75 -3.0 -9.55 L-3.1 -9.55 -3.15 -9.6 -3.15 -9.75 -3.2 -9.9 -3.05 -9.85 -2.95 -9.85 -3.0 -10.0 Q-3.0 -10.2 -3.1 -10.45 L-3.05 -10.45 -3.2 -10.75 Q-3.15 -10.75 -3.15 -10.9 -3.15 -11.2 -3.5 -11.8 L-3.75 -12.15 -3.85 -12.55 -3.85 -12.7 -4.0 -13.35 Q-4.0 -13.5 -3.65 -14.85 L-3.6 -14.9 -3.2 -15.2 -3.2 -15.3 -2.9 -15.55 Q-2.75 -15.65 -2.4 -16.25 L-2.35 -16.3 -2.35 -16.65 -2.3 -16.7 -2.2 -16.75 -2.15 -16.75 -1.95 -16.85 Q-1.85 -16.7 -1.75 -16.5 L-1.65 -16.45 -1.6 -16.15 -1.5 -16.15 Q-1.35 -16.15 -1.3 -15.85 L-1.3 -15.7 -0.8 -15.1 M-3.9 -19.0 L-3.85 -19.05 -3.75 -19.0 -3.9 -19.0 M-2.9 -14.85 L-2.9 -14.9 Q-3.15 -14.8 -3.45 -14.55 L-3.75 -14.1 Q-3.9 -13.8 -3.9 -13.4 -3.9 -12.35 -3.35 -11.7 L-3.3 -11.65 -2.9 -11.55 -2.8 -11.5 -2.8 -11.55 -2.7 -11.75 -2.8 -12.1 -2.85 -12.5 -2.9 -13.1 -2.9 -13.7 -2.8 -14.3 -2.95 -14.55 -2.95 -14.65 -2.9 -14.85 M-1.95 -15.25 L-2.0 -15.25 -2.05 -15.2 -2.2 -14.9 -2.25 -14.85 -2.3 -14.8 Q-2.55 -14.25 -2.55 -14.05 L-2.75 -13.05 Q-2.7 -13.0 -2.6 -13.0 -2.55 -13.0 -2.45 -13.1 -2.35 -13.15 -2.3 -13.2 L-2.2 -13.35 -2.15 -13.4 -2.05 -14.05 -2.05 -14.1 -1.95 -15.2 -1.95 -15.25 M-2.5 -12.05 L-2.5 -11.95 -2.4 -11.65 -2.4 -11.8 -2.35 -11.95 -2.35 -12.0 -2.5 -12.05 M-1.35 -9.05 L-1.45 -8.9 -1.5 -8.75 -1.45 -9.1 -1.35 -9.05 M-8.3 -11.25 L-7.7 -10.0 Q-7.45 -9.35 -7.2 -8.95 L-7.2 -8.85 Q-7.55 -9.2 -7.9 -9.65 -8.2 -10.15 -8.35 -10.55 -8.45 -10.8 -8.45 -11.05 -8.45 -11.2 -8.4 -11.2 L-8.3 -11.2 -8.3 -11.25 M-7.7 -7.4 L-7.7 -7.4 M-8.4 -7.9 L-7.8 -7.4 -8.5 -8.2 -8.4 -7.9 M-2.35 -4.15 Q-2.35 -4.1 -2.6 -3.8 -2.75 -3.9 -3.05 -4.15 L-3.2 -4.35 Q-3.3 -4.5 -3.3 -4.55 -3.35 -4.7 -3.25 -4.8 -3.1 -4.95 -2.95 -4.95 -2.8 -4.95 -2.6 -4.7 -2.35 -4.4 -2.35 -4.15" fill="#111111" fill-rule="evenodd" stroke="none"/>
    <path d="M-0.6 -26.4 L-0.6 -26.4 M4.1 -31.1 L3.9 -29.95 3.0 -26.65 Q2.6 -25.2 2.5 -24.65 L2.45 -24.65 2.0 -24.45 Q2.4 -25.4 2.4 -26.4 L2.4 -26.6 2.3 -26.65 Q1.65 -26.3 1.15 -25.4 1.35 -26.55 1.35 -26.85 1.3 -27.0 1.25 -27.0 L1.2 -27.05 1.05 -27.0 1.9 -28.25 2.4 -28.9 3.4 -30.35 4.1 -31.1 M0.8 -26.5 Q0.3 -25.65 -0.35 -24.05 L-0.9 -22.6 Q-0.95 -22.85 -1.15 -22.9 -1.3 -22.8 -1.6 -22.5 -1.9 -22.15 -1.9 -22.0 L-1.85 -21.8 -1.85 -21.7 -1.65 -21.7 Q-1.25 -21.85 -1.05 -22.15 -1.2 -21.75 -1.2 -21.6 -1.2 -21.25 -1.05 -20.75 -0.6 -21.0 0.05 -21.65 L0.55 -22.2 0.6 -22.2 0.45 -22.05 0.5 -21.95 2.5 -23.15 Q3.65 -23.85 4.25 -23.9 L4.45 -23.9 4.05 -23.35 Q2.85 -21.65 2.6 -21.45 2.45 -21.3 1.9 -21.05 L1.0 -20.6 0.4 -20.25 -0.25 -20.25 -1.1 -20.0 -1.4 -19.9 Q-2.35 -19.55 -2.5 -19.1 L-2.5 -18.85 Q-2.7 -19.3 -3.4 -20.15 -3.15 -20.3 -3.15 -20.55 L-3.15 -20.7 -3.25 -20.75 Q-3.5 -20.6 -3.6 -20.4 L-4.1 -21.05 -4.75 -21.75 -4.7 -21.95 -4.7 -21.8 -4.65 -21.65 Q-4.45 -21.85 -4.35 -22.25 -4.2 -22.55 -4.2 -22.75 L-4.2 -22.8 -4.05 -22.9 -3.95 -22.9 -3.7 -23.0 Q-3.65 -23.05 -3.5 -23.1 -3.0 -23.35 -2.55 -23.7 L-2.4 -23.8 -2.45 -23.7 -2.55 -23.45 -2.6 -23.3 Q-2.8 -22.6 -2.8 -22.25 -2.75 -21.95 -2.65 -21.9 L-2.6 -21.95 Q-2.55 -22.1 -2.4 -22.5 -2.25 -22.85 -2.25 -23.0 -2.25 -23.2 -1.85 -24.05 L-1.8 -24.1 Q-1.35 -24.7 -0.55 -25.45 L0.65 -26.45 0.65 -26.4 0.6 -26.3 Q0.6 -26.15 0.65 -26.3 L0.8 -26.5 M1.25 -22.85 L1.3 -23.05 1.4 -23.0 1.25 -22.85 M-1.1 -19.9 Q0.65 -16.65 1.55 -15.35 1.95 -14.75 2.65 -12.85 L2.55 -11.95 Q2.55 -11.85 2.5 -11.7 L2.4 -11.45 2.4 -11.4 1.95 -10.35 2.05 -10.65 1.6 -10.15 Q1.15 -9.6 1.15 -9.35 1.15 -9.1 0.95 -8.8 L0.8 -8.55 0.5 -7.25 0.55 -6.85 Q0.55 -6.2 0.4 -5.2 -0.15 -5.5 -0.75 -6.35 -1.55 -7.45 -1.55 -8.6 -1.7 -7.35 -1.1 -6.4 -0.6 -5.6 0.4 -5.15 L0.35 -4.8 0.3 -4.65 0.3 -4.7 0.0 -4.75 -0.7 -4.6 -0.9 -4.55 -1.8 -5.1 -2.15 -5.35 -2.6 -5.6 -3.3 -6.4 -3.65 -6.75 Q-4.75 -7.8 -5.65 -7.8 -6.0 -7.8 -6.2 -7.5 -6.4 -7.2 -6.4 -6.65 -6.4 -6.2 -6.25 -5.55 L-6.3 -5.5 -6.3 -5.55 -6.45 -6.35 -6.5 -6.65 Q-6.9 -6.8 -7.55 -7.55 L-7.65 -7.65 -7.65 -7.85 Q-7.65 -8.3 -8.05 -8.65 L-8.25 -8.9 -8.7 -9.3 -8.35 -8.9 -8.5 -9.0 Q-8.8 -9.15 -9.15 -9.3 -9.45 -9.7 -9.65 -10.05 L-9.8 -10.45 Q-9.95 -10.7 -9.95 -10.8 -9.95 -11.15 -9.8 -11.35 -9.65 -11.65 -9.2 -11.6 L-9.2 -11.7 -8.8 -11.5 -8.65 -11.55 Q-8.6 -11.6 -8.55 -11.7 L-8.55 -11.8 -8.65 -11.9 -8.8 -12.15 -9.05 -12.85 -9.1 -13.25 -9.15 -13.7 -9.2 -13.7 -9.3 -14.6 Q-9.35 -15.2 -9.2 -16.55 L-9.2 -16.85 -9.15 -17.15 -9.05 -18.15 -9.2 -18.15 -9.35 -18.1 Q-9.5 -18.1 -9.65 -18.25 L-9.65 -18.15 -9.75 -18.3 Q-10.25 -19.25 -10.3 -19.8 -10.3 -20.1 -10.25 -20.25 -10.2 -20.15 -9.85 -19.85 -9.5 -19.8 -9.3 -19.5 -9.05 -19.15 -9.0 -18.6 L-8.95 -18.8 -9.0 -18.9 -8.95 -18.95 -8.9 -19.05 -8.9 -19.1 -8.85 -19.2 Q-8.7 -19.7 -8.7 -20.0 L-8.7 -20.1 Q-8.95 -20.55 -9.15 -21.25 -9.35 -22.1 -9.45 -22.9 L-9.35 -23.0 -9.5 -23.25 -9.5 -23.95 -9.55 -24.2 Q-9.6 -25.05 -9.45 -25.85 L-9.25 -26.7 Q-9.05 -26.0 -8.8 -25.3 L-7.8 -23.5 Q-7.55 -22.95 -7.35 -22.35 L-7.35 -22.3 Q-7.15 -21.65 -7.1 -20.9 L-7.05 -21.2 -7.0 -20.95 -6.9 -20.95 Q-6.75 -22.45 -6.45 -23.5 -6.0 -25.15 -5.1 -25.85 -5.65 -23.45 -5.65 -22.6 -6.0 -22.9 -6.2 -22.9 -6.45 -22.9 -6.55 -22.65 -6.65 -22.55 -6.65 -22.35 -6.65 -21.9 -6.4 -19.75 -6.2 -17.6 -6.2 -16.4 -6.2 -15.55 -6.35 -14.95 -6.5 -14.35 -6.5 -13.9 L-6.5 -13.85 -6.65 -13.15 Q-6.65 -12.1 -6.45 -11.4 L-5.85 -9.55 -5.85 -9.45 -5.8 -9.4 -5.7 -9.4 Q-5.7 -9.45 -5.7 -9.55 -5.7 -9.85 -5.95 -11.25 -6.25 -12.65 -6.25 -13.0 -6.25 -13.5 -6.05 -13.95 -5.85 -14.35 -5.85 -14.55 L-5.8 -14.9 Q-5.6 -15.3 -5.5 -15.65 L-5.55 -15.65 -5.55 -15.8 Q-5.55 -15.95 -5.4 -16.2 L-5.4 -17.1 -5.4 -17.2 -5.2 -17.55 Q-4.9 -18.0 -4.6 -18.0 L-4.3 -17.95 -3.8 -17.85 -3.65 -17.35 -3.7 -17.3 -3.8 -16.65 -3.8 -16.55 Q-4.1 -16.2 -4.45 -15.7 -5.25 -14.45 -5.25 -13.45 -5.25 -13.25 -5.1 -12.35 L-4.95 -11.45 Q-4.95 -11.2 -4.8 -10.8 L-4.6 -10.4 -4.65 -9.65 -4.7 -9.6 -4.8 -9.55 -4.75 -9.5 -4.75 -9.45 Q-4.75 -9.05 -5.0 -9.05 L-5.2 -9.05 Q-4.4 -8.65 -4.25 -8.65 L-4.2 -8.65 -4.25 -8.55 -4.0 -8.4 -4.0 -8.35 -3.0 -7.1 -2.0 -5.9 -2.05 -5.95 -1.7 -5.35 -1.6 -5.55 -1.9 -6.95 Q-2.1 -8.0 -2.25 -8.55 -2.4 -9.0 -2.55 -9.35 L-2.55 -9.4 Q-1.7 -9.55 -1.15 -9.7 L-1.05 -9.75 Q0.0 -10.1 0.55 -10.65 L0.5 -10.7 0.4 -10.6 Q0.6 -10.85 0.8 -11.2 1.1 -11.75 1.1 -12.1 1.15 -12.4 1.15 -12.75 1.15 -13.15 0.65 -14.05 L0.6 -14.15 Q0.4 -14.6 0.1 -15.05 L-0.6 -16.05 Q-1.0 -16.65 -1.25 -17.25 L-1.25 -17.1 Q-1.05 -16.45 -0.6 -15.5 -0.3 -15.1 -0.15 -14.65 L0.1 -14.25 0.15 -13.95 0.25 -13.15 Q0.25 -11.9 -0.75 -11.0 L-1.45 -10.4 Q-1.75 -10.15 -1.75 -9.9 L-2.15 -9.7 -2.5 -9.6 -2.5 -9.65 -2.55 -9.6 Q-2.15 -9.8 -2.15 -10.0 L-2.05 -10.65 -2.0 -10.9 -2.0 -11.0 -1.7 -11.1 -0.8 -12.0 -0.75 -12.2 -0.7 -12.25 Q-0.25 -12.8 -0.15 -13.25 L-0.15 -13.65 Q-0.15 -13.9 -0.3 -14.15 -0.4 -14.5 -0.65 -14.8 L-0.7 -14.9 -0.7 -14.85 -0.7 -14.95 -0.8 -15.1 -0.75 -15.3 Q-0.75 -15.5 -1.1 -16.05 L-1.25 -16.2 -1.85 -17.15 -1.9 -17.2 Q-2.05 -17.6 -2.4 -18.3 L-2.5 -18.45 -2.55 -18.5 -2.45 -18.4 -2.45 -18.5 Q-2.45 -18.6 -2.5 -18.75 L-2.5 -18.8 -2.45 -18.85 -1.75 -19.45 Q-1.25 -19.85 -1.1 -19.9 M-0.1 -10.45 L-0.05 -10.4 -0.4 -10.25 -0.2 -10.35 -0.1 -10.45 M-2.8 -9.55 L-2.85 -9.5 -2.85 -9.55 -2.8 -9.55 M-6.65 -19.1 L-6.8 -19.1 Q-7.1 -19.0 -7.1 -18.7 -7.1 -18.45 -6.9 -18.45 -6.75 -18.6 -6.65 -18.75 L-6.6 -18.9 Q-6.6 -19.05 -6.65 -19.1 M-7.35 -18.4 L-7.5 -18.45 Q-7.8 -18.45 -7.8 -18.1 L-7.75 -17.9 -7.7 -17.9 Q-7.6 -17.75 -7.55 -17.75 L-7.35 -17.75 -7.25 -17.8 -7.2 -18.25 -7.2 -18.3 -7.25 -18.4 -7.35 -18.4 M-7.95 -17.9 L-8.0 -17.9 Q-8.25 -17.9 -8.4 -17.65 L-8.5 -17.35 -8.5 -17.15 Q-8.5 -16.95 -8.4 -16.8 -8.25 -16.7 -8.15 -16.7 -8.0 -16.7 -7.95 -16.75 L-7.85 -16.8 -7.75 -17.3 -7.7 -17.65 Q-7.7 -17.75 -7.8 -17.8 L-7.8 -17.85 -7.85 -17.85 -7.95 -17.9 M-1.35 -14.9 L-1.2 -14.55 Q-0.95 -13.8 -0.95 -13.4 -0.95 -13.15 -1.1 -12.75 L-1.25 -12.4 -1.45 -11.95 -1.55 -11.6 -1.9 -11.5 Q-1.85 -11.6 -1.85 -11.75 L-1.85 -11.85 -1.9 -11.95 -1.9 -12.0 Q-1.85 -12.25 -1.65 -12.9 L-1.6 -13.0 -1.6 -13.1 -1.65 -13.15 -1.6 -13.55 -1.55 -13.7 -1.55 -13.8 Q-1.4 -14.45 -1.35 -14.9 M-1.15 -11.75 L-0.8 -12.15 -0.9 -12.0 Q-1.05 -11.85 -1.15 -11.75 M-3.9 -9.3 L-3.85 -9.4 -3.85 -9.45 -3.8 -9.45 -3.9 -9.3 M-1.35 -9.05 L-1.45 -9.1 -1.5 -8.75 -1.45 -8.9 -1.35 -9.05 M-8.3 -11.25 L-8.3 -11.2 -8.4 -11.2 Q-8.45 -11.2 -8.45 -11.05 -8.45 -10.8 -8.35 -10.55 -8.2 -10.15 -7.9 -9.65 -7.55 -9.2 -7.2 -8.85 L-7.2 -8.95 Q-7.45 -9.35 -7.7 -10.0 L-8.3 -11.25 M-8.4 -7.9 L-8.5 -8.2 -7.8 -7.4 -8.4 -7.9 M-7.7 -7.4 L-7.7 -7.4" fill="#8c1c1c" fill-rule="evenodd" stroke="none"/>
    <path d="M-2.4 -23.8 L-2.55 -23.7 Q-3.0 -23.35 -3.5 -23.1 -3.65 -23.05 -3.7 -23.0 L-3.65 -23.05 Q-3.5 -23.8 -3.4 -24.35 L-3.25 -24.35 -3.1 -24.5 Q-3.05 -24.6 -3.05 -24.65 -3.05 -24.75 -3.1 -24.8 L-3.15 -24.85 -3.25 -24.85 Q-3.35 -24.8 -3.4 -24.75 L-3.35 -25.4 Q-3.35 -25.7 -3.45 -25.9 -3.55 -26.2 -3.75 -26.2 -3.9 -26.2 -4.2 -25.3 L-4.2 -26.4 Q-4.2 -26.55 -4.25 -26.55 L-4.75 -26.55 -4.9 -26.5 -4.95 -26.5 Q-5.75 -26.15 -6.45 -24.7 -6.85 -23.8 -7.05 -23.0 L-6.95 -25.35 -7.2 -26.9 -7.2 -27.1 -7.35 -28.15 Q-7.35 -29.95 -7.9 -32.95 -8.25 -35.1 -8.7 -36.35 L-8.75 -36.45 Q-8.8 -36.85 -8.85 -36.95 L-8.4 -36.75 -8.3 -36.75 -8.0 -36.55 -7.3 -36.05 -5.4 -33.1 -5.5 -32.9 -5.6 -32.8 -6.3 -33.55 Q-6.85 -34.1 -7.3 -34.4 -7.35 -34.45 -7.35 -34.25 -7.35 -34.2 -6.15 -32.2 L-5.05 -30.3 -5.05 -30.4 Q-5.4 -29.8 -5.4 -29.15 -5.4 -29.05 -5.3 -28.95 -5.25 -28.85 -5.15 -28.85 -5.0 -28.85 -4.5 -29.35 L-4.4 -29.2 Q-3.8 -27.9 -3.15 -26.7 L-3.1 -26.55 -2.7 -25.25 Q-2.45 -24.6 -2.25 -24.15 L-2.4 -23.85 -2.4 -23.8 M0.3 -4.65 L0.3 -4.3 0.25 -3.8 0.25 -3.75 0.2 -3.55 0.15 -3.4 -0.15 -2.25 -0.25 -1.8 -0.5 -1.25 Q-0.65 -0.75 -0.65 -0.55 L-0.65 -0.35 Q-0.6 0.1 -0.4 0.7 L-0.35 0.9 -0.35 1.35 -0.6 1.4 -0.95 1.35 -1.9 0.95 Q-2.85 0.5 -3.45 0.05 L-4.0 -0.55 Q-4.4 -1.05 -5.0 -2.05 -5.5 -2.85 -5.8 -3.45 L-5.9 -3.7 -5.9 -3.8 -6.0 -4.05 Q-6.15 -4.45 -6.2 -4.75 -6.2 -5.05 -6.25 -5.3 L-6.3 -5.5 -6.25 -5.55 Q-6.4 -6.2 -6.4 -6.65 -6.4 -7.2 -6.2 -7.5 -6.0 -7.8 -5.65 -7.8 -4.75 -7.8 -3.65 -6.75 -3.45 -5.95 -3.5 -5.2 -3.55 -4.4 -2.9 -3.75 L-2.35 -3.25 Q-2.0 -2.95 -1.85 -2.7 L-1.75 -2.65 Q-1.7 -2.6 -1.7 -2.75 -1.7 -2.95 -1.9 -3.35 -2.1 -3.75 -2.1 -3.95 -2.1 -4.7 -2.15 -5.35 L-1.8 -5.1 -0.9 -4.55 -0.7 -4.6 0.0 -4.75 0.3 -4.7 0.3 -4.65 M-9.65 -10.05 Q-10.45 -10.7 -10.9 -11.25 -11.55 -12.2 -11.75 -13.35 L-11.65 -13.35 -10.25 -12.4 Q-9.7 -11.95 -9.2 -11.7 L-9.2 -11.6 Q-9.65 -11.65 -9.8 -11.35 -9.95 -11.15 -9.95 -10.8 -9.95 -10.7 -9.8 -10.45 L-9.65 -10.05 M-3.8 -17.85 L-4.3 -17.95 -4.6 -18.0 Q-4.9 -18.0 -5.2 -17.55 L-5.4 -17.2 -5.4 -17.1 -5.45 -17.8 Q-5.6 -18.4 -5.6 -18.9 L-5.65 -19.0 Q-5.9 -20.35 -5.9 -20.85 L-5.8 -21.85 -5.25 -20.95 Q-5.0 -20.55 -3.95 -18.4 L-3.65 -17.85 -3.6 -17.85 -3.8 -17.85 M-4.05 -27.4 Q-4.05 -27.5 -4.15 -27.6 -4.2 -27.65 -4.3 -27.65 -4.5 -27.65 -4.6 -27.45 -4.65 -27.35 -4.65 -27.2 -4.65 -26.95 -4.4 -26.95 -4.3 -26.95 -4.2 -27.05 -4.05 -27.2 -4.05 -27.4 M-13.6 -27.85 L-13.7 -27.95 -12.65 -26.2 -12.7 -26.3 Q-12.85 -26.1 -13.0 -25.8 -13.0 -25.7 -12.95 -25.6 -12.85 -25.45 -12.75 -25.45 -12.5 -25.5 -12.25 -25.6 L-11.3 -24.1 Q-10.6 -22.45 -9.8 -20.95 L-9.5 -20.4 -9.5 -20.35 -9.5 -20.3 -10.25 -20.9 -10.35 -20.85 -10.35 -20.9 -10.4 -20.85 -10.45 -20.8 -10.7 -20.45 -10.7 -20.35 Q-10.75 -20.1 -10.75 -19.85 L-10.75 -19.65 -11.15 -20.25 -11.15 -20.3 -11.2 -20.4 -11.4 -20.65 Q-11.85 -21.35 -12.1 -21.9 -13.05 -24.2 -13.3 -24.95 -13.95 -26.75 -14.2 -28.5 L-13.6 -27.85 M-11.1 -21.7 Q-11.05 -21.7 -10.95 -21.75 L-10.85 -21.95 Q-10.9 -22.05 -10.95 -22.05 L-11.2 -21.95 -11.25 -21.85 -11.25 -21.7 -11.15 -21.7 Q-11.3 -21.7 -11.1 -21.7 M-2.25 -14.85 L-2.2 -14.9 -2.05 -15.2 -2.0 -15.25 -1.95 -15.25 -2.05 -15.0 -2.15 -14.85 -2.15 -14.8 -2.25 -14.85 M-2.05 -14.1 L-2.05 -14.05 -2.15 -13.4 Q-2.15 -13.5 -2.15 -13.6 L-2.05 -14.05 -2.05 -14.1 M-11.65 -23.9 L-11.8 -23.9 -11.95 -23.8 -12.05 -23.65 -12.05 -23.5 -11.85 -23.4 -11.7 -23.6 -11.6 -23.7 -11.6 -23.85 -11.65 -23.9 M-2.5 -12.05 L-2.35 -12.0 -2.35 -11.95 -2.4 -11.8 -2.4 -11.65 -2.5 -11.95 -2.5 -12.05" fill="#cc8a28" fill-rule="evenodd" stroke="none"/>
    <path d="M-0.6 -26.4 L-1.0 -27.35 -1.15 -28.1 Q-1.35 -28.9 -1.75 -29.8 L-1.2 -30.85 Q-0.5 -32.1 0.1 -32.75 L0.75 -33.25 0.95 -33.35 1.15 -33.35 0.8 -29.55 Q0.65 -27.85 0.6 -27.05 L0.55 -26.95 Q-0.05 -26.8 -0.6 -26.4 M4.1 -31.1 L4.45 -31.4 4.75 -31.7 5.1 -30.95 Q5.25 -30.65 5.3 -30.25 L5.35 -28.9 Q5.3 -28.3 5.15 -27.6 L4.85 -26.85 4.75 -26.35 4.5 -25.15 Q4.35 -24.6 4.25 -24.4 4.25 -24.25 4.35 -24.2 4.35 -24.15 4.5 -24.1 5.3 -24.8 6.35 -25.3 L6.75 -25.5 7.3 -25.7 7.4 -25.7 Q7.55 -25.7 8.05 -25.85 L8.6 -26.05 Q7.5 -24.15 6.1 -23.0 5.8 -22.75 5.1 -22.25 L4.85 -22.05 4.95 -22.2 4.95 -22.25 Q5.15 -22.85 5.2 -23.5 L5.2 -24.0 Q5.2 -24.15 5.15 -24.15 L5.0 -24.15 4.75 -24.1 4.15 -24.0 3.45 -23.9 Q2.8 -23.85 2.0 -23.4 L1.9 -23.35 Q1.65 -23.2 1.4 -23.0 L1.3 -23.05 1.25 -22.85 0.75 -22.4 0.6 -22.2 0.55 -22.2 0.05 -21.65 Q-0.6 -21.0 -1.05 -20.75 -1.2 -21.25 -1.2 -21.6 -1.2 -21.75 -1.05 -22.15 -1.25 -21.85 -1.65 -21.7 L-1.85 -21.7 -1.85 -21.8 -1.9 -22.0 Q-1.9 -22.15 -1.6 -22.5 -1.3 -22.8 -1.15 -22.9 -0.95 -22.85 -0.9 -22.6 L-0.35 -24.05 Q0.3 -25.65 0.8 -26.5 L0.8 -26.35 0.85 -26.05 Q0.9 -25.4 0.8 -24.55 L0.65 -23.9 0.65 -23.85 0.4 -22.55 0.4 -22.3 0.45 -22.25 0.45 -22.2 0.5 -22.3 0.9 -23.8 0.9 -23.95 1.05 -24.6 1.15 -25.4 Q1.65 -26.3 2.3 -26.65 L2.4 -26.6 2.4 -26.4 Q2.4 -25.4 2.0 -24.45 L2.45 -24.65 2.5 -24.65 Q2.6 -25.2 3.0 -26.65 L3.9 -29.95 4.1 -31.1 M-4.7 -21.95 L-4.75 -21.75 Q-5.3 -22.3 -5.65 -22.6 -5.65 -23.45 -5.1 -25.85 L-4.8 -26.0 -4.7 -26.1 -4.65 -26.0 -4.6 -25.05 -4.55 -24.5 Q-4.5 -24.0 -4.6 -23.0 L-4.7 -22.0 -4.7 -21.95 M-3.6 -20.4 Q-3.5 -20.6 -3.25 -20.75 L-3.15 -20.7 -3.15 -20.55 Q-3.15 -20.3 -3.4 -20.15 L-3.6 -20.4 M0.4 -20.25 L1.0 -20.6 1.9 -21.05 Q2.45 -21.3 2.6 -21.45 2.85 -21.65 4.05 -23.35 L4.45 -23.9 4.5 -23.9 4.7 -23.85 Q4.7 -22.0 3.05 -20.45 L2.75 -20.2 2.6 -20.05 Q2.05 -19.6 1.4 -19.15 L1.35 -19.2 1.25 -19.15 1.1 -19.3 Q1.1 -19.55 0.9 -19.9 0.85 -19.7 0.95 -19.35 0.9 -19.15 0.9 -18.95 1.0 -17.6 1.85 -16.6 L2.4 -15.8 Q2.7 -15.3 2.7 -14.7 2.75 -14.2 2.7 -13.6 2.7 -13.35 2.8 -13.0 L2.7 -13.0 2.65 -12.9 2.65 -12.85 Q1.95 -14.75 1.55 -15.35 0.65 -16.65 -1.1 -19.9 L-1.05 -19.9 -0.65 -20.0 Q-0.4 -20.1 -0.3 -20.1 L0.3 -20.15 0.55 -20.2 0.55 -20.25 0.4 -20.25 M5.75 -23.15 L5.75 -23.2 Q5.7 -23.2 5.55 -23.05 L5.6 -23.0 5.6 -22.95 5.75 -23.15 M-9.25 -26.7 L-9.1 -27.65 -9.05 -27.5 -9.1 -27.8 -9.05 -27.85 Q-8.55 -27.0 -8.1 -25.95 -7.55 -24.75 -7.4 -23.85 L-7.4 -23.8 -7.35 -22.3 -7.35 -22.35 Q-7.55 -22.95 -7.8 -23.5 L-8.8 -25.3 Q-9.05 -26.0 -9.25 -26.7 M0.6 -14.15 L0.65 -14.05 Q1.15 -13.15 1.15 -12.75 1.15 -12.4 1.1 -12.1 L1.0 -12.45 1.0 -12.75 0.9 -13.35 Q0.8 -13.75 0.6 -14.15 M-2.55 -9.35 Q-2.4 -9.0 -2.25 -8.55 -2.1 -8.0 -1.9 -6.95 L-1.6 -5.55 -1.7 -5.35 -2.05 -5.95 -2.0 -5.9 -1.9 -5.8 -1.9 -5.75 -1.85 -5.85 Q-2.15 -6.45 -2.45 -6.9 L-2.4 -6.95 -2.95 -8.1 Q-3.4 -8.95 -3.7 -8.95 L-3.8 -8.95 Q-3.6 -9.05 -3.55 -9.2 L-3.5 -9.25 -3.5 -9.4 -3.6 -9.55 -3.8 -9.45 -3.85 -9.45 -3.85 -9.4 -3.9 -9.3 -4.2 -8.75 -4.15 -8.75 -4.2 -8.65 -4.25 -8.65 Q-4.4 -8.65 -5.2 -9.05 L-5.0 -9.05 Q-4.75 -9.05 -4.75 -9.45 L-4.75 -9.5 -4.8 -9.55 -4.7 -9.6 -4.65 -9.65 -4.6 -10.4 -4.8 -10.8 Q-4.95 -11.2 -4.95 -11.45 L-5.1 -12.35 Q-5.25 -13.25 -5.25 -13.45 -5.25 -14.45 -4.45 -15.7 -4.1 -16.2 -3.8 -16.55 L-3.8 -16.65 -3.7 -17.3 -3.65 -17.35 -3.8 -17.85 -3.6 -17.85 -3.5 -18.0 Q-3.4 -18.1 -3.25 -18.1 -3.1 -18.1 -3.05 -18.0 -3.05 -18.25 -3.0 -18.9 L-2.8 -18.7 -2.55 -18.5 -2.5 -18.45 -2.4 -18.3 Q-2.05 -17.6 -1.9 -17.2 L-1.85 -17.15 -1.25 -16.2 -1.1 -16.05 Q-0.75 -15.5 -0.75 -15.3 L-0.8 -15.1 -1.3 -15.7 -1.3 -15.85 Q-1.35 -16.15 -1.5 -16.15 L-1.6 -16.15 -1.65 -16.45 -1.75 -16.5 Q-1.85 -16.7 -1.95 -16.85 L-2.15 -16.75 -2.2 -16.75 -2.3 -16.7 -2.35 -16.65 -2.35 -16.3 -2.4 -16.25 Q-2.75 -15.65 -2.9 -15.55 L-3.2 -15.3 -3.2 -15.2 -3.6 -14.9 -3.65 -14.85 Q-4.0 -13.5 -4.0 -13.35 L-3.85 -12.7 -3.85 -12.55 -3.75 -12.15 -3.5 -11.8 Q-3.15 -11.2 -3.15 -10.9 -3.15 -10.75 -3.2 -10.75 L-3.05 -10.45 -3.1 -10.45 Q-3.0 -10.2 -3.0 -10.0 L-2.95 -9.85 -3.05 -9.85 -3.2 -9.9 -3.15 -9.75 -3.15 -9.6 -3.1 -9.55 -3.0 -9.55 Q-2.8 -9.75 -2.65 -10.05 L-2.55 -10.3 -2.6 -10.4 -2.55 -10.4 -2.55 -10.5 -2.6 -10.5 -2.3 -10.8 Q-2.2 -11.0 -2.0 -11.0 L-2.0 -10.9 -2.05 -10.65 -2.15 -10.0 Q-2.15 -9.8 -2.55 -9.6 L-2.5 -9.65 -2.5 -9.6 -2.6 -9.6 -2.8 -9.55 -2.85 -9.55 -2.9 -9.55 -2.9 -9.4 -2.85 -9.3 Q-2.85 -9.2 -2.75 -9.35 L-2.55 -9.35 M-2.15 -9.7 L-1.75 -9.9 Q-1.75 -10.15 -1.45 -10.4 L-0.75 -11.0 Q0.25 -11.9 0.25 -13.15 L0.15 -13.95 0.1 -14.25 Q0.45 -13.45 0.75 -12.6 L0.55 -11.85 Q0.25 -10.8 -0.1 -10.45 L-0.2 -10.35 -0.4 -10.25 -0.4 -10.2 -1.2 -10.0 Q-1.45 -9.9 -1.75 -9.8 L-1.8 -9.8 -2.15 -9.7 M-1.85 -24.9 L-1.9 -24.95 -1.8 -25.0 -1.75 -25.1 -1.85 -24.9 M-3.8 -33.1 L-3.9 -33.25 -3.6 -33.85 Q-3.05 -34.7 -2.2 -34.8 L-2.85 -31.8 -3.8 -33.1 M-7.95 -17.9 L-7.85 -17.85 -7.8 -17.85 -7.8 -17.8 Q-7.7 -17.75 -7.7 -17.65 L-7.75 -17.3 -7.85 -16.8 -7.95 -16.75 Q-8.0 -16.7 -8.15 -16.7 -8.25 -16.7 -8.4 -16.8 -8.5 -16.95 -8.5 -17.15 L-8.5 -17.35 -8.4 -17.65 Q-8.25 -17.9 -8.0 -17.9 L-7.95 -17.9 M-7.35 -18.4 L-7.25 -18.4 -7.2 -18.3 -7.2 -18.25 -7.25 -17.8 -7.35 -17.75 -7.55 -17.75 Q-7.6 -17.75 -7.7 -17.9 L-7.75 -17.9 -7.8 -18.1 Q-7.8 -18.45 -7.5 -18.45 L-7.35 -18.4 M-6.65 -19.1 Q-6.6 -19.05 -6.6 -18.9 L-6.65 -18.75 Q-6.75 -18.6 -6.9 -18.45 -7.1 -18.45 -7.1 -18.7 -7.1 -19.0 -6.8 -19.1 L-6.65 -19.1 M-0.7 -14.85 L-0.7 -14.9 -0.65 -14.8 Q-0.4 -14.5 -0.3 -14.15 L-0.5 -14.5 -0.65 -14.65 -0.65 -14.7 -0.75 -14.8 -0.7 -14.8 -0.7 -14.85 M-0.15 -13.25 Q-0.25 -12.8 -0.7 -12.25 L-0.75 -12.2 -0.75 -12.25 -0.8 -12.15 -1.15 -11.75 -1.3 -11.75 -1.35 -11.7 Q-1.45 -11.65 -1.55 -11.6 L-1.45 -11.95 -1.25 -12.4 -1.1 -12.75 Q-0.95 -13.15 -0.95 -13.4 -0.95 -13.8 -1.2 -14.55 L-1.35 -14.9 -1.3 -15.1 -0.95 -14.9 Q-0.45 -14.4 -0.4 -13.7 -0.4 -13.5 -0.45 -13.3 L-0.45 -12.9 Q-0.3 -13.15 -0.15 -13.25 M-2.9 -14.85 L-2.95 -14.65 -2.95 -14.55 -2.8 -14.3 -2.9 -13.7 -2.9 -13.1 -2.85 -12.5 -2.8 -12.1 -2.7 -11.75 -2.8 -11.55 -2.8 -11.5 -2.9 -11.55 -3.3 -11.65 -3.35 -11.7 Q-3.9 -12.35 -3.9 -13.4 -3.9 -13.8 -3.75 -14.1 L-3.45 -14.55 Q-3.15 -14.8 -2.9 -14.9 L-2.9 -14.85" fill="#4d0f0f" fill-rule="evenodd" stroke="none"/>
    <path d="M-3.7 -23.0 L-3.95 -22.9 -4.05 -22.9 -4.2 -22.8 -4.2 -22.75 -4.2 -25.3 Q-3.9 -26.2 -3.75 -26.2 -3.55 -26.2 -3.45 -25.9 -3.35 -25.7 -3.35 -25.4 L-3.4 -24.75 Q-3.35 -24.8 -3.25 -24.85 L-3.15 -24.85 -3.1 -24.8 Q-3.05 -24.75 -3.05 -24.65 -3.05 -24.6 -3.1 -24.5 L-3.25 -24.35 -3.4 -24.35 Q-3.5 -23.8 -3.65 -23.05 L-3.7 -23.0 M-7.3 -36.05 L-7.1 -35.95 -6.4 -35.35 -5.8 -34.85 -5.8 -34.8 -5.7 -34.75 -5.7 -34.7 -5.4 -34.4 -4.85 -33.75 -4.85 -33.7 -4.1 -32.7 Q-3.55 -31.9 -3.05 -31.1 L-2.55 -30.05 Q-1.9 -28.55 -1.2 -26.3 L-1.2 -26.25 -1.1 -26.0 -1.1 -25.95 -1.15 -25.9 -1.15 -25.85 -1.75 -25.1 -1.8 -25.0 -1.9 -24.95 -1.85 -24.9 -1.9 -24.85 -2.25 -24.15 Q-2.45 -24.6 -2.7 -25.25 L-3.1 -26.55 -3.15 -26.7 Q-3.8 -27.9 -4.4 -29.2 L-4.5 -29.35 Q-5.0 -28.85 -5.15 -28.85 -5.25 -28.85 -5.3 -28.95 -5.4 -29.05 -5.4 -29.15 -5.4 -29.8 -5.05 -30.4 L-5.05 -30.3 -6.15 -32.2 Q-7.35 -34.2 -7.35 -34.25 -7.35 -34.45 -7.3 -34.4 -6.85 -34.1 -6.3 -33.55 L-5.6 -32.8 -5.5 -32.9 -5.4 -33.1 -7.3 -36.05 M-4.05 -27.4 Q-4.05 -27.2 -4.2 -27.05 -4.3 -26.95 -4.4 -26.95 -4.65 -26.95 -4.65 -27.2 -4.65 -27.35 -4.6 -27.45 -4.5 -27.65 -4.3 -27.65 -4.2 -27.65 -4.15 -27.6 -4.05 -27.5 -4.05 -27.4 M-5.8 -21.85 L-5.7 -21.85 -5.6 -21.75 Q-5.25 -21.5 -4.9 -21.15 -4.5 -20.75 -4.1 -20.15 L-3.7 -19.7 -3.45 -19.5 -3.0 -18.9 Q-3.05 -18.25 -3.05 -18.0 -3.1 -18.1 -3.25 -18.1 -3.4 -18.1 -3.5 -18.0 L-3.6 -17.85 -3.65 -17.85 -3.95 -18.4 Q-5.0 -20.55 -5.25 -20.95 L-5.8 -21.85 M-13.6 -27.85 Q-12.7 -26.85 -11.4 -25.25 L-11.35 -25.2 -11.35 -25.1 -11.25 -25.05 -11.15 -24.9 -10.6 -24.2 -10.0 -23.4 -10.05 -22.95 Q-10.0 -22.65 -9.75 -21.6 L-9.75 -21.1 -9.65 -20.85 -9.65 -20.75 -9.55 -20.5 -9.5 -20.4 -9.8 -20.95 Q-10.6 -22.45 -11.3 -24.1 L-12.25 -25.6 Q-12.5 -25.5 -12.75 -25.45 -12.85 -25.45 -12.95 -25.6 -13.0 -25.7 -13.0 -25.8 -12.85 -26.1 -12.7 -26.3 L-12.65 -26.2 -13.7 -27.95 -13.6 -27.85 M-11.1 -21.7 Q-11.3 -21.7 -11.15 -21.7 L-11.25 -21.7 -11.25 -21.85 -11.2 -21.95 -10.95 -22.05 Q-10.9 -22.05 -10.85 -21.95 L-10.95 -21.75 Q-11.05 -21.7 -11.1 -21.7 M-3.9 -19.0 L-3.75 -19.0 -3.85 -19.05 -3.9 -19.0 M-11.65 -23.9 L-11.6 -23.85 -11.6 -23.7 -11.7 -23.6 -11.85 -23.4 -12.05 -23.5 -12.05 -23.65 -11.95 -23.8 -11.8 -23.9 -11.65 -23.9 M-3.65 -6.75 L-3.3 -6.4 -2.6 -5.6 -2.15 -5.35 Q-2.1 -4.7 -2.1 -3.95 -2.1 -3.75 -1.9 -3.35 -1.7 -2.95 -1.7 -2.75 -1.7 -2.6 -1.75 -2.65 L-1.85 -2.7 Q-2.0 -2.95 -2.35 -3.25 L-2.9 -3.75 Q-3.55 -4.4 -3.5 -5.2 -3.45 -5.95 -3.65 -6.75 M-2.35 -4.15 Q-2.35 -4.4 -2.6 -4.7 -2.8 -4.95 -2.95 -4.95 -3.1 -4.95 -3.25 -4.8 -3.35 -4.7 -3.3 -4.55 -3.3 -4.5 -3.2 -4.35 L-3.05 -4.15 Q-2.75 -3.9 -2.6 -3.8 -2.35 -4.1 -2.35 -4.15" fill="#805619" fill-rule="evenodd" stroke="none"/>
    <path d="M-1.95 -15.25 L-1.95 -15.2 -2.05 -14.1 -2.05 -14.05 -2.15 -13.6 Q-2.15 -13.5 -2.15 -13.4 L-2.2 -13.35 -2.3 -13.2 Q-2.35 -13.15 -2.45 -13.1 -2.55 -13.0 -2.6 -13.0 -2.7 -13.0 -2.75 -13.05 L-2.55 -14.05 Q-2.55 -14.25 -2.3 -14.8 L-2.25 -14.85 -2.15 -14.8 -2.15 -14.85 -2.05 -15.0 -1.95 -15.25" fill="#ffcc7f" fill-rule="evenodd" stroke="none"/>
    <path d="M1.55 -9.15 Q1.6 -9.1 1.65 -9.05 2.05 -8.7 2.05 -8.6 2.05 -8.4 1.4 -8.25 L1.15 -8.15 1.3 -8.6 Q1.4 -8.9 1.55 -9.15 M0.65 -3.5 L0.65 -3.7 0.95 -3.35 Q0.85 -3.2 0.55 -3.1 L0.65 -3.5" fill="#e4e0c5" fill-rule="evenodd" stroke="none"/>
  </g>
</svg>
