<?xml version="1.0" encoding="UTF-8" standalone="no"?>
<svg xmlns:ffdec="https://www.free-decompiler.com/flash" xmlns:xlink="http://www.w3.org/1999/xlink" ffdec:objectType="shape" height="24.1px" width="17.2px" xmlns="http://www.w3.org/2000/svg">
  <g transform="matrix(1.0, 0.0, 0.0, 1.0, 10.85, 24.35)">
    <path d="M2.4 -22.9 Q3.05 -22.65 3.55 -22.1 4.3 -21.5 4.65 -20.4 5.05 -19.35 5.0 -18.35 4.95 -17.85 4.8 -17.3 L4.75 -17.05 4.75 -16.9 4.7 -16.8 4.7 -16.65 4.65 -16.65 4.65 -16.6 3.75 -15.75 3.55 -15.6 Q2.95 -15.05 2.65 -14.9 L2.55 -14.8 2.25 -14.8 2.25 -14.85 2.2 -14.85 2.1 -14.9 2.15 -14.75 Q2.1 -14.65 2.0 -14.65 L3.0 -14.65 3.6 -14.7 Q4.55 -15.8 5.1 -16.65 L5.25 -16.9 5.25 -16.95 5.45 -17.6 5.6 -18.05 5.65 -18.5 5.65 -18.55 5.7 -18.6 5.7 -18.65 5.65 -18.9 5.6 -19.15 5.55 -19.3 5.5 -19.55 5.5 -19.6 5.3 -20.1 Q5.1 -20.5 4.95 -21.0 L4.8 -21.5 4.7 -21.65 4.55 -22.0 4.5 -22.0 3.75 -22.7 Q2.8 -23.4 1.95 -23.4 1.65 -23.4 1.35 -23.15 L1.25 -23.05 2.15 -22.95 2.4 -22.9 M0.7 -23.05 Q0.7 -23.15 0.75 -23.2 0.8 -23.6 1.2 -23.85 1.7 -24.2 2.3 -24.35 4.65 -23.9 5.55 -21.55 6.05 -20.25 6.3 -18.95 6.35 -18.8 6.3 -18.7 6.45 -17.95 6.05 -17.05 5.5 -15.7 4.45 -14.85 L4.35 -14.75 Q4.3 -14.55 3.9 -14.3 L3.6 -14.1 Q3.45 -14.0 3.3 -14.0 L3.15 -13.95 Q2.05 -13.55 1.2 -14.35 L0.95 -14.55 0.8 -14.7 0.45 -15.1 0.45 -15.3 0.25 -15.3 -0.05 -15.25 -0.05 -15.3 Q-2.35 -15.0 -3.75 -14.4 -4.4 -14.15 -4.8 -13.85 L-5.05 -13.35 Q-5.35 -12.7 -5.5 -11.95 L-5.55 -11.35 -5.2 -9.6 Q-4.8 -7.95 -4.8 -6.3 L-4.95 -5.4 -5.05 -4.55 Q-5.05 -4.45 -5.2 -4.1 -5.4 -3.6 -5.75 -3.2 -6.8 -1.95 -8.7 -1.95 -9.6 -1.95 -9.6 -2.45 -9.1 -2.75 -8.6 -3.15 -8.2 -3.55 -7.95 -3.95 -7.75 -4.6 -7.75 -5.25 -7.75 -6.25 -8.2 -7.25 -8.4 -7.55 -9.3 -9.05 -10.0 -10.2 -10.35 -11.2 -10.85 -12.6 -10.85 -14.25 -10.85 -14.55 -10.75 -14.9 L-10.75 -15.05 -10.65 -16.25 Q-10.65 -16.4 -10.55 -16.8 -10.4 -17.2 -10.4 -17.35 -10.4 -17.65 -10.25 -18.05 L-9.95 -18.7 Q-9.55 -19.4 -9.1 -20.05 L-8.9 -20.35 Q-8.8 -20.5 -8.6 -20.65 -7.7 -21.7 -6.75 -21.9 -4.2 -23.55 -1.35 -23.55 L-1.25 -23.55 -0.65 -23.5 -0.45 -23.45 Q0.05 -23.3 0.7 -23.05 M4.15 -18.3 Q4.15 -19.0 3.9 -19.65 L3.9 -19.7 3.85 -19.75 3.5 -20.65 3.15 -21.15 Q2.9 -21.55 2.45 -21.85 2.4 -22.0 2.2 -22.15 L2.0 -22.1 Q1.7 -22.1 1.0 -22.35 1.55 -21.85 2.0 -21.25 L2.0 -21.3 2.15 -21.0 2.3 -20.8 2.35 -20.7 2.6 -20.3 3.0 -19.65 3.0 -19.55 3.05 -19.45 3.15 -18.95 3.2 -18.75 3.2 -18.5 3.2 -18.45 3.25 -18.45 Q3.7 -18.2 4.0 -17.85 L3.9 -17.9 Q4.05 -17.75 4.1 -17.55 L4.1 -17.65 4.15 -18.3 M3.85 -20.85 L3.85 -20.85 M2.5 -19.2 L2.5 -19.25 2.4 -19.65 2.3 -19.9 Q1.9 -20.65 1.55 -21.15 0.9 -22.1 -0.2 -22.75 -0.85 -22.9 -1.55 -22.9 L-2.4 -22.9 Q-1.75 -22.6 -1.0 -22.15 -0.05 -21.55 0.65 -20.95 L1.05 -20.5 1.1 -20.5 Q1.95 -19.55 2.05 -18.8 L2.65 -18.65 2.55 -19.0 2.5 -19.2 M1.25 -19.15 L1.25 -19.2 1.1 -19.4 Q0.35 -20.55 -0.55 -21.45 L-0.45 -21.45 Q-1.7 -22.4 -3.7 -22.65 -5.25 -22.3 -6.55 -21.35 L-6.5 -21.4 Q-6.0 -21.6 -5.6 -21.6 -3.65 -21.6 -1.95 -20.6 L-1.65 -20.4 Q-0.3 -19.55 -0.3 -18.65 L-0.25 -18.65 0.35 -18.75 0.5 -18.7 0.6 -18.7 0.7 -18.8 0.65 -18.7 1.1 -18.8 1.4 -18.85 1.3 -19.1 1.25 -19.15 M2.6 -17.65 Q2.15 -17.8 1.8 -17.85 L0.8 -16.7 0.3 -16.15 0.5 -16.15 0.85 -16.2 Q0.9 -16.6 1.5 -17.05 1.95 -17.4 2.6 -17.65 M2.85 -16.55 Q3.25 -16.85 3.65 -17.1 L3.15 -17.4 2.9 -17.5 2.45 -17.2 Q1.8 -16.7 1.25 -16.15 L1.85 -16.1 1.95 -16.05 Q2.15 -16.05 2.3 -15.95 2.5 -16.3 2.85 -16.55 M0.5 -17.25 L0.75 -17.6 Q0.65 -17.8 0.3 -17.85 L-0.4 -17.75 -0.7 -17.35 -1.25 -16.65 -1.55 -15.95 -1.3 -16.0 -0.75 -16.05 -0.45 -16.05 -0.15 -16.1 -0.15 -16.15 Q-0.15 -16.35 0.25 -16.95 L0.5 -17.25 M0.15 -15.2 L-0.1 -15.05 -0.1 -15.1 -0.05 -15.25 0.1 -15.3 0.15 -15.2 M1.5 -14.8 L1.3 -14.95 1.4 -14.8 1.5 -14.7 1.55 -14.7 1.55 -14.65 1.6 -14.65 1.6 -14.6 1.65 -14.6 1.75 -14.65 1.8 -14.65 1.5 -14.8 M2.15 -15.6 L2.15 -15.6 M5.6 -17.6 L5.6 -17.6 M-1.45 -18.95 L-2.0 -19.5 Q-3.55 -20.9 -5.65 -20.9 -6.2 -20.9 -7.1 -20.7 L-7.3 -20.65 -7.45 -20.55 -7.65 -20.35 Q-8.05 -19.95 -8.45 -19.35 L-8.2 -19.45 Q-7.15 -19.65 -6.3 -19.65 L-6.1 -19.65 -4.1 -19.2 Q-3.4 -18.85 -3.05 -18.45 L-2.6 -18.5 -2.3 -18.55 -2.05 -18.55 -1.45 -18.6 -1.2 -18.65 -1.45 -18.95 M-4.1 -18.25 L-4.45 -18.45 Q-5.55 -18.9 -7.4 -18.9 -7.8 -18.9 -8.6 -18.65 L-9.05 -18.55 -9.15 -18.35 -9.55 -17.75 -9.65 -17.35 Q-9.65 -17.25 -9.7 -17.15 L-9.8 -16.95 -9.85 -16.25 Q-9.45 -16.5 -9.0 -16.75 L-8.8 -16.85 Q-7.15 -17.65 -5.65 -17.65 L-5.2 -17.6 Q-4.75 -17.85 -4.2 -18.05 L-3.95 -18.15 -4.1 -18.25 M-7.65 -15.3 Q-8.45 -15.0 -8.7 -14.85 -9.05 -14.6 -9.4 -14.25 L-9.85 -13.8 -9.85 -13.7 Q-9.85 -13.45 -9.7 -12.9 L-9.65 -12.6 -9.15 -13.05 -8.9 -13.25 Q-8.8 -13.7 -7.9 -14.95 L-7.7 -15.2 -7.6 -15.35 -7.65 -15.35 -7.65 -15.3 M-6.15 -17.15 Q-6.95 -17.1 -7.9 -16.8 -8.75 -16.5 -9.05 -16.3 L-9.85 -15.7 -9.9 -15.65 -9.95 -15.1 -9.9 -14.45 Q-9.65 -14.75 -9.1 -15.1 L-8.65 -15.45 Q-7.4 -16.3 -6.8 -16.35 L-5.85 -17.2 -5.9 -17.2 -6.1 -17.15 -6.15 -17.15 M-6.0 -16.1 L-6.4 -15.85 -6.45 -15.75 -6.45 -15.7 -6.55 -15.45 -6.6 -15.15 Q-6.6 -14.5 -6.1 -13.85 L-5.9 -13.6 -5.75 -13.9 -5.8 -13.95 -5.65 -14.05 -5.55 -14.2 -5.35 -14.45 Q-5.45 -14.7 -5.5 -15.1 -5.6 -15.6 -5.6 -16.15 -5.6 -16.4 -5.5 -16.65 -5.8 -16.4 -6.0 -16.05 L-6.0 -16.1 M-7.1 -16.0 L-7.25 -15.95 -7.15 -15.95 -7.1 -16.0 M-7.0 -15.2 Q-7.6 -14.4 -8.0 -13.55 L-8.05 -13.4 -8.0 -13.25 Q-7.7 -13.15 -7.2 -12.95 -6.6 -12.65 -6.3 -12.45 L-6.15 -12.85 -6.15 -12.95 Q-6.5 -13.35 -6.7 -13.8 -7.0 -14.4 -7.0 -15.05 L-7.0 -15.2 M-3.55 -17.45 Q-4.35 -17.35 -4.95 -17.05 L-4.95 -16.95 -5.05 -16.55 Q-5.2 -16.2 -5.2 -15.95 -5.2 -15.75 -5.0 -15.1 L-4.95 -14.8 Q-4.65 -15.05 -4.3 -15.25 -4.2 -15.85 -3.85 -16.8 L-3.55 -17.45 M-2.9 -17.5 L-3.0 -17.5 Q-3.3 -16.9 -3.55 -16.05 L-3.65 -15.55 Q-3.05 -15.8 -2.3 -15.9 -2.1 -16.6 -1.3 -17.55 L-1.2 -17.65 -2.1 -17.6 -2.7 -17.55 -2.9 -17.5 M-5.75 -7.5 Q-6.35 -7.05 -6.7 -6.55 L-7.1 -6.0 Q-7.0 -5.65 -7.0 -5.3 L-6.75 -5.6 Q-6.15 -6.3 -5.55 -6.5 L-5.55 -6.7 Q-5.55 -6.95 -5.65 -7.55 L-5.75 -7.5 M-8.2 -13.0 Q-8.3 -12.65 -8.3 -12.4 -8.3 -12.35 -8.35 -12.2 L-8.4 -12.0 -8.55 -10.9 -7.7 -11.15 Q-6.75 -11.35 -6.3 -11.4 L-6.35 -11.95 Q-7.0 -11.95 -7.7 -12.5 -8.05 -12.8 -8.2 -13.0 M-6.7 -10.8 Q-7.5 -10.45 -8.5 -10.45 L-8.6 -10.35 -8.55 -9.65 Q-8.25 -9.3 -7.95 -8.4 L-7.9 -8.3 Q-7.75 -8.65 -7.35 -9.1 -6.75 -9.75 -6.15 -10.05 L-6.3 -11.0 -6.7 -10.8 M-9.45 -12.0 L-9.25 -11.4 Q-9.25 -11.8 -9.1 -12.35 L-9.1 -12.4 -9.45 -12.05 -9.45 -12.0 M-6.4 -9.3 L-7.2 -8.65 -7.55 -8.05 -7.75 -7.8 -7.5 -7.3 Q-7.3 -6.9 -7.2 -6.5 L-6.9 -6.95 Q-6.3 -7.65 -5.7 -7.9 L-5.95 -9.0 -6.05 -9.55 -6.4 -9.3 M-6.95 -4.55 Q-7.0 -4.05 -7.1 -3.55 L-7.15 -3.35 Q-6.15 -4.15 -5.9 -4.6 -5.75 -4.85 -5.6 -6.05 L-5.75 -5.95 Q-6.4 -5.4 -6.65 -5.15 -6.8 -4.95 -6.95 -4.55 M-5.0 -0.3 L-5.0 -0.3" fill="#121212" fill-rule="evenodd" stroke="none"/>
    <path d="M3.85 -20.85 L3.85 -20.85 M5.6 -17.6 L5.6 -17.6 M2.15 -15.6 L2.15 -15.6" fill="#c4ccaf" fill-rule="evenodd" stroke="none"/>
    <path d="M2.4 -22.9 L2.6 -22.9 2.7 -23.1 Q2.7 -23.3 2.4 -23.35 2.1 -23.4 2.1 -23.2 2.1 -23.1 2.15 -23.0 L2.15 -22.95 1.25 -23.05 1.35 -23.15 Q1.65 -23.4 1.95 -23.4 2.8 -23.4 3.75 -22.7 L4.5 -22.0 4.55 -22.0 4.7 -21.65 4.8 -21.5 4.95 -21.0 Q5.1 -20.5 5.3 -20.1 L5.5 -19.6 5.5 -19.55 5.55 -19.3 5.2 -19.3 Q5.2 -19.15 5.25 -19.0 5.25 -18.75 5.4 -18.75 5.55 -18.75 5.65 -18.85 L5.65 -18.9 5.7 -18.65 5.7 -18.6 Q5.6 -18.65 5.45 -18.65 5.2 -18.65 5.0 -18.4 L5.0 -18.35 Q5.05 -19.35 4.65 -20.4 4.3 -21.5 3.55 -22.1 3.05 -22.65 2.4 -22.9 M2.85 -23.1 L2.8 -23.05 2.8 -22.95 2.9 -22.9 3.1 -23.05 Q3.05 -23.15 2.9 -23.2 L2.85 -23.1 M3.45 -22.55 L3.45 -22.6 Q3.4 -22.85 3.2 -23.0 3.0 -23.1 3.0 -22.75 3.0 -22.65 3.05 -22.6 3.15 -22.5 3.35 -22.5 L3.45 -22.55 M4.9 -19.75 L4.95 -19.55 5.15 -19.5 5.3 -19.55 Q5.35 -19.6 5.35 -19.7 5.35 -19.85 5.3 -19.95 5.2 -20.1 4.95 -19.95 4.9 -19.9 4.9 -19.75 M1.65 -14.6 L1.6 -14.6 1.6 -14.65 1.55 -14.65 1.55 -14.7 1.5 -14.7 1.4 -14.8 1.3 -14.95 1.5 -14.8 Q1.5 -14.7 1.65 -14.6" fill="#8c1c1c" fill-rule="evenodd" stroke="none"/>
    <path d="M5.0 -18.35 L5.0 -18.4 Q5.2 -18.65 5.45 -18.65 5.6 -18.65 5.7 -18.6 L5.65 -18.55 5.65 -18.5 5.6 -18.05 5.45 -17.6 5.25 -16.95 5.25 -16.9 5.1 -16.65 Q4.55 -15.8 3.6 -14.7 L3.0 -14.65 2.0 -14.65 Q2.1 -14.65 2.15 -14.75 L2.1 -14.9 2.2 -14.85 2.25 -14.85 2.25 -14.8 2.55 -14.8 2.65 -14.9 Q2.95 -15.05 3.55 -15.6 L3.75 -15.75 4.65 -16.6 4.65 -16.65 4.7 -16.65 4.7 -16.8 4.75 -16.9 4.75 -17.05 4.8 -17.3 Q4.95 -17.85 5.0 -18.35 M5.65 -18.9 L5.65 -18.85 Q5.55 -18.75 5.4 -18.75 5.25 -18.75 5.25 -19.0 5.2 -19.15 5.2 -19.3 L5.55 -19.3 5.6 -19.15 5.65 -18.9 M4.9 -19.75 Q4.9 -19.9 4.95 -19.95 5.2 -20.1 5.3 -19.95 5.35 -19.85 5.35 -19.7 5.35 -19.6 5.3 -19.55 L5.15 -19.5 4.95 -19.55 4.9 -19.75 M1.65 -14.6 Q1.5 -14.7 1.5 -14.8 L1.8 -14.65 1.75 -14.65 1.65 -14.6" fill="#4d0f0f" fill-rule="evenodd" stroke="none"/>
    <path d="M2.15 -22.95 L2.15 -23.0 Q2.1 -23.1 2.1 -23.2 2.1 -23.4 2.4 -23.35 2.7 -23.3 2.7 -23.1 L2.6 -22.9 2.4 -22.9 2.15 -22.95 M2.85 -23.1 L2.9 -23.2 Q3.05 -23.15 3.1 -23.05 L2.9 -22.9 2.8 -22.95 2.8 -23.05 2.85 -23.1 M2.35 -20.7 L2.3 -20.8 2.15 -21.0 2.0 -21.3 2.0 -21.25 Q1.55 -21.85 1.0 -22.35 1.7 -22.1 2.0 -22.1 L2.2 -22.15 Q2.4 -22.0 2.45 -21.85 2.9 -21.55 3.15 -21.15 L3.5 -20.65 3.85 -19.75 3.9 -19.7 3.9 -19.65 Q4.15 -19.0 4.15 -18.3 L4.15 -18.5 3.65 -18.8 Q3.55 -18.9 3.55 -19.15 3.5 -19.4 3.4 -19.5 2.9 -20.25 2.6 -20.55 2.45 -20.65 2.35 -20.7 M3.25 -18.45 L3.2 -18.45 3.2 -18.5 3.25 -18.45 M3.45 -22.55 L3.35 -22.5 Q3.15 -22.5 3.05 -22.6 3.0 -22.65 3.0 -22.75 3.0 -23.1 3.2 -23.0 3.4 -22.85 3.45 -22.6 L3.45 -22.55 M0.65 -20.95 Q-0.05 -21.55 -1.0 -22.15 -1.75 -22.6 -2.4 -22.9 L-1.55 -22.9 Q-0.85 -22.9 -0.2 -22.75 0.9 -22.1 1.55 -21.15 1.9 -20.65 2.3 -19.9 L2.4 -19.65 2.5 -19.25 2.5 -19.2 1.75 -20.15 Q0.6 -21.45 0.55 -21.05 L0.65 -20.95 M1.25 -19.15 Q0.6 -19.65 0.5 -19.65 0.35 -19.65 0.2 -19.55 L0.05 -19.4 -1.0 -20.1 Q-1.4 -20.3 -1.65 -20.4 L-1.95 -20.6 Q-3.65 -21.6 -5.6 -21.6 -6.0 -21.6 -6.5 -21.4 L-6.55 -21.35 Q-5.25 -22.3 -3.7 -22.65 -1.7 -22.4 -0.45 -21.45 L-0.55 -21.45 Q0.35 -20.55 1.1 -19.4 L1.25 -19.2 1.25 -19.15 M-6.1 -19.65 L-6.3 -19.65 Q-7.15 -19.65 -8.2 -19.45 L-8.45 -19.35 Q-8.05 -19.95 -7.65 -20.35 L-7.45 -20.55 -7.3 -20.65 -7.1 -20.7 Q-6.2 -20.9 -5.65 -20.9 -3.55 -20.9 -2.0 -19.5 L-1.45 -18.95 -1.6 -18.95 -1.7 -19.05 Q-1.95 -19.3 -2.25 -19.35 -2.9 -19.55 -3.0 -18.95 L-3.05 -18.95 -4.0 -19.5 Q-4.65 -19.7 -5.35 -19.8 -6.15 -19.9 -6.15 -19.75 L-6.2 -19.65 -6.1 -19.65 M-8.8 -16.85 L-9.0 -16.75 Q-9.45 -16.5 -9.85 -16.25 L-9.8 -16.95 -9.7 -17.15 Q-9.65 -17.25 -9.65 -17.35 L-9.55 -17.75 -9.15 -18.35 -9.05 -18.55 -8.6 -18.65 Q-7.8 -18.9 -7.4 -18.9 -5.55 -18.9 -4.45 -18.45 L-4.1 -18.25 -4.35 -18.25 Q-6.35 -18.25 -7.7 -17.65 -8.65 -17.25 -8.8 -16.85 M-9.7 -12.9 Q-9.85 -13.45 -9.85 -13.7 L-9.85 -13.8 -9.4 -14.25 Q-9.05 -14.6 -8.7 -14.85 -8.45 -15.0 -7.65 -15.3 -7.85 -15.1 -8.2 -14.7 L-9.7 -12.9 M-9.1 -15.1 Q-9.65 -14.75 -9.9 -14.45 L-9.95 -15.1 -9.9 -15.65 -9.85 -15.7 -9.05 -16.3 Q-8.75 -16.5 -7.9 -16.8 -6.95 -17.1 -6.15 -17.15 L-6.3 -17.1 Q-7.05 -16.55 -7.1 -16.5 -7.75 -16.3 -8.45 -15.8 -9.15 -15.4 -9.15 -15.25 L-9.1 -15.1" fill="#cc8a28" fill-rule="evenodd" stroke="none"/>
    <path d="M2.35 -20.7 Q2.45 -20.65 2.6 -20.55 2.9 -20.25 3.4 -19.5 3.5 -19.4 3.55 -19.15 3.55 -18.9 3.65 -18.8 L4.15 -18.5 4.15 -18.3 4.1 -17.65 4.1 -17.55 Q4.05 -17.75 3.9 -17.9 L4.0 -17.85 Q3.7 -18.2 3.25 -18.45 L3.2 -18.5 3.2 -18.75 3.15 -18.95 3.05 -19.45 3.0 -19.55 3.0 -19.65 2.6 -20.3 2.35 -20.7 M0.65 -20.95 L0.55 -21.05 Q0.6 -21.45 1.75 -20.15 L2.5 -19.2 2.55 -19.0 2.65 -18.65 2.05 -18.8 Q1.95 -19.55 1.1 -20.5 L1.05 -20.5 0.65 -20.95 M-1.65 -20.4 Q-1.4 -20.3 -1.0 -20.1 L0.05 -19.4 0.2 -19.55 Q0.35 -19.65 0.5 -19.65 0.6 -19.65 1.25 -19.15 L1.3 -19.1 1.4 -18.85 1.1 -18.8 0.65 -18.7 0.7 -18.8 0.6 -18.7 0.5 -18.7 0.35 -18.75 -0.25 -18.65 -0.3 -18.65 Q-0.3 -19.55 -1.65 -20.4 M0.5 -17.25 L0.25 -16.95 Q-0.15 -16.35 -0.15 -16.15 L-0.15 -16.1 -0.45 -16.05 -0.75 -16.05 -1.3 -16.0 -1.55 -15.95 -1.25 -16.65 -0.7 -17.35 -0.4 -17.75 0.3 -17.85 Q0.65 -17.8 0.75 -17.6 L0.5 -17.25 M2.85 -16.55 Q2.5 -16.3 2.3 -15.95 2.15 -16.05 1.95 -16.05 L1.85 -16.1 1.25 -16.15 Q1.8 -16.7 2.45 -17.2 L2.9 -17.5 3.15 -17.4 3.65 -17.1 Q3.25 -16.85 2.85 -16.55 M2.6 -17.65 Q1.95 -17.4 1.5 -17.05 0.9 -16.6 0.85 -16.2 L0.5 -16.15 0.3 -16.15 0.8 -16.7 1.8 -17.85 Q2.15 -17.8 2.6 -17.65 M-6.1 -19.65 L-6.2 -19.65 -6.15 -19.75 Q-6.15 -19.9 -5.35 -19.8 -4.65 -19.7 -4.0 -19.5 L-3.05 -18.95 -3.0 -18.95 Q-2.9 -19.55 -2.25 -19.35 -1.95 -19.3 -1.7 -19.05 L-1.6 -18.95 -1.45 -18.95 -1.2 -18.65 -1.45 -18.6 -2.05 -18.55 -2.3 -18.55 -2.6 -18.5 -3.05 -18.45 Q-3.4 -18.85 -4.1 -19.2 L-6.1 -19.65 M-8.8 -16.85 Q-8.65 -17.25 -7.7 -17.65 -6.35 -18.25 -4.35 -18.25 L-4.1 -18.25 -3.95 -18.15 -4.2 -18.05 Q-4.75 -17.85 -5.2 -17.6 L-5.65 -17.65 Q-7.15 -17.65 -8.8 -16.85 M-9.7 -12.9 L-8.2 -14.7 Q-7.85 -15.1 -7.65 -15.3 L-7.65 -15.35 -7.6 -15.35 -7.7 -15.2 -7.9 -14.95 Q-8.8 -13.7 -8.9 -13.25 L-9.15 -13.05 -9.65 -12.6 -9.7 -12.9 M-9.1 -15.1 L-9.15 -15.25 Q-9.15 -15.4 -8.45 -15.8 -7.75 -16.3 -7.1 -16.5 -7.05 -16.55 -6.3 -17.1 L-6.15 -17.15 -6.1 -17.15 -5.9 -17.2 -5.85 -17.2 -6.8 -16.35 Q-7.4 -16.3 -8.65 -15.45 L-9.1 -15.1 M-6.0 -16.1 L-6.0 -16.05 Q-5.8 -16.4 -5.5 -16.65 -5.6 -16.4 -5.6 -16.15 -5.6 -15.6 -5.5 -15.1 -5.45 -14.7 -5.35 -14.45 L-5.55 -14.2 -5.65 -14.05 -5.8 -13.95 -5.75 -13.9 -5.9 -13.6 -6.1 -13.85 Q-6.6 -14.5 -6.6 -15.15 L-6.55 -15.45 -6.45 -15.7 -6.45 -15.75 -6.4 -15.85 -6.0 -16.1 M-3.55 -17.45 L-3.85 -16.8 Q-4.2 -15.85 -4.3 -15.25 -4.65 -15.05 -4.95 -14.8 L-5.0 -15.1 Q-5.2 -15.75 -5.2 -15.95 -5.2 -16.2 -5.05 -16.55 L-4.95 -16.95 -4.95 -17.05 Q-4.35 -17.35 -3.55 -17.45 M-7.0 -15.2 L-7.0 -15.05 Q-7.0 -14.4 -6.7 -13.8 -6.5 -13.35 -6.15 -12.95 L-6.15 -12.85 -6.3 -12.45 Q-6.6 -12.65 -7.2 -12.95 -7.7 -13.15 -8.0 -13.25 L-8.05 -13.4 -8.0 -13.55 Q-7.6 -14.4 -7.0 -15.2 M-2.9 -17.5 L-2.7 -17.55 -2.1 -17.6 -1.2 -17.65 -1.3 -17.55 Q-2.1 -16.6 -2.3 -15.9 -3.05 -15.8 -3.65 -15.55 L-3.55 -16.05 Q-3.3 -16.9 -3.0 -17.5 L-2.9 -17.5 M-6.95 -4.55 Q-6.8 -4.95 -6.65 -5.15 -6.4 -5.4 -5.75 -5.95 L-5.6 -6.05 Q-5.75 -4.85 -5.9 -4.6 -6.15 -4.15 -7.15 -3.35 L-7.1 -3.55 Q-7.0 -4.05 -6.95 -4.55 M-6.4 -9.3 L-6.05 -9.55 -5.95 -9.0 -5.7 -7.9 Q-6.3 -7.65 -6.9 -6.95 L-7.2 -6.5 Q-7.3 -6.9 -7.5 -7.3 L-7.75 -7.8 -7.55 -8.05 -7.2 -8.65 -6.4 -9.3 M-9.45 -12.0 L-9.45 -12.05 -9.1 -12.4 -9.1 -12.35 Q-9.25 -11.8 -9.25 -11.4 L-9.45 -12.0 M-6.7 -10.8 L-6.3 -11.0 -6.15 -10.05 Q-6.75 -9.75 -7.35 -9.1 -7.75 -8.65 -7.9 -8.3 L-7.95 -8.4 Q-8.25 -9.3 -8.55 -9.65 L-8.6 -10.35 -8.5 -10.45 Q-7.5 -10.45 -6.7 -10.8 M-8.2 -13.0 Q-8.05 -12.8 -7.7 -12.5 -7.0 -11.95 -6.35 -11.95 L-6.3 -11.4 Q-6.75 -11.35 -7.7 -11.15 L-8.55 -10.9 -8.4 -12.0 -8.35 -12.2 Q-8.3 -12.35 -8.3 -12.4 -8.3 -12.65 -8.2 -13.0 M-5.75 -7.5 L-5.65 -7.55 Q-5.55 -6.95 -5.55 -6.7 L-5.55 -6.5 Q-6.15 -6.3 -6.75 -5.6 L-7.0 -5.3 Q-7.0 -5.65 -7.1 -6.0 L-6.7 -6.55 Q-6.35 -7.05 -5.75 -7.5" fill="#805619" fill-rule="evenodd" stroke="none"/>
  </g>
</svg>
