<?xml version="1.0" encoding="UTF-8" standalone="no"?>
<svg xmlns:ffdec="https://www.free-decompiler.com/flash" xmlns:xlink="http://www.w3.org/1999/xlink" ffdec:objectType="shape" height="26.3px" width="17.95px" xmlns="http://www.w3.org/2000/svg">
  <g transform="matrix(1.0, 0.0, 0.0, 1.0, 0.65, 0.8)">
    <path d="M4.4 -0.65 Q5.3 -1.1 6.6 -0.35 8.45 0.3 10.65 1.9 L11.45 2.5 11.9 2.8 14.15 4.2 14.2 3.9 14.05 3.3 Q13.85 2.7 13.85 2.5 14.25 2.55 14.65 2.8 L14.7 2.8 Q15.1 2.55 15.75 3.4 16.35 4.15 16.8 5.3 L16.95 5.65 Q17.3 6.35 17.3 6.75 L17.3 7.3 Q17.3 8.75 17.0 9.4 16.8 9.95 15.5 11.9 L15.4 11.9 Q15.15 12.45 15.15 13.2 L15.2 14.1 Q15.2 14.55 15.1 14.9 15.4 15.35 15.55 15.7 L15.55 16.1 15.6 17.15 Q15.95 18.3 15.95 18.65 L15.85 19.35 Q15.8 19.9 15.8 20.65 15.8 20.85 15.9 21.6 L16.15 21.55 16.15 21.75 Q16.15 21.95 16.0 22.1 L15.95 22.15 Q15.55 22.65 14.25 23.3 13.9 23.55 13.25 23.8 L12.45 24.05 Q12.3 24.15 12.15 24.2 L11.45 24.3 10.05 24.45 Q9.8 24.45 9.65 24.3 L9.6 24.3 Q9.65 24.5 9.9 24.8 10.15 25.1 10.15 25.15 L10.1 25.35 10.1 25.4 9.95 25.5 8.0 24.9 Q6.05 24.95 3.95 22.95 2.9 22.0 2.2 20.9 1.95 20.55 1.8 20.25 1.45 19.55 1.2 18.8 0.9 17.8 0.8 16.5 0.75 16.05 0.65 14.25 0.45 14.4 0.25 14.9 0.05 15.35 -0.35 15.45 -0.55 15.3 -0.6 15.1 L-0.6 14.8 Q-0.6 12.75 0.0 10.85 L0.2 10.15 Q-0.05 9.4 -0.3 7.75 -0.55 6.2 -0.65 4.65 -0.65 3.6 1.25 1.85 L1.3 1.75 1.2 1.75 Q0.9 1.65 0.85 1.5 L1.75 0.65 Q2.4 0.05 2.95 -0.2 3.65 -0.6 4.4 -0.65 M6.0 -0.2 L6.65 -0.05 Q6.5 -0.2 6.25 -0.25 L5.8 -0.3 6.0 -0.2 M14.6 5.5 L14.25 5.2 13.6 4.75 Q9.35 1.8 4.7 -0.05 4.1 0.2 3.5 0.6 L3.25 0.8 3.25 0.7 2.8 1.05 3.1 1.05 3.55 1.0 3.95 1.05 4.0 1.15 Q4.05 1.2 4.05 1.35 4.05 1.5 3.3 2.7 2.65 3.8 2.15 4.3 L2.35 4.2 2.05 4.4 2.05 4.35 2.0 4.45 1.95 4.45 1.9 4.2 Q2.05 3.65 2.45 2.95 2.65 2.6 3.15 1.7 L2.1 1.8 1.95 1.8 1.4 2.3 Q0.2 3.5 0.0 4.5 L-0.05 4.85 -0.05 4.9 0.05 5.4 0.1 5.85 Q0.1 6.2 0.45 7.55 L0.45 7.6 0.6 8.4 0.7 9.0 0.8 8.9 Q1.25 8.0 1.9 7.2 L1.95 7.2 1.95 7.35 Q1.95 7.6 1.05 10.1 L0.5 11.75 0.5 11.8 0.3 12.35 0.15 12.85 Q0.0 13.4 -0.05 13.7 L-0.05 14.15 Q0.45 13.4 0.8 13.3 L1.2 13.35 1.2 13.65 1.3 14.45 Q1.1 14.9 1.1 15.45 1.1 15.9 1.25 16.95 1.45 18.3 1.65 18.6 1.7 18.6 1.8 18.55 L1.9 18.7 Q2.3 19.65 3.3 21.3 L3.9 21.9 Q6.3 24.25 8.95 24.7 L8.95 24.8 8.9 24.8 9.45 24.85 9.15 24.4 Q8.9 24.05 8.95 23.8 L9.65 23.8 10.8 23.75 13.25 22.65 Q14.55 22.05 15.35 21.75 15.25 21.4 15.25 20.65 L15.35 19.05 Q15.35 18.75 15.15 17.45 L15.05 16.7 14.45 15.5 Q13.7 14.05 13.7 13.55 L13.75 13.25 Q13.8 13.05 13.9 12.95 L13.95 12.9 Q14.2 13.1 14.35 13.45 L14.6 13.75 14.75 14.05 Q14.5 13.3 14.5 13.15 L14.55 12.7 14.6 12.55 14.6 12.5 Q14.65 12.0 14.85 11.6 15.0 11.25 15.4 10.65 L15.5 10.5 Q16.0 9.85 16.15 9.35 16.3 9.0 16.4 8.6 L16.5 8.8 Q16.65 8.45 16.7 8.1 16.75 7.65 16.75 7.2 16.75 6.85 16.65 6.45 L16.45 6.0 16.45 5.7 Q16.5 5.4 16.45 5.2 16.4 4.75 15.95 4.75 L15.9 5.05 14.95 3.8 Q14.85 3.9 14.75 4.4 L14.65 4.8 15.15 6.0 14.95 5.8 14.6 5.5 M16.75 8.75 L16.6 9.0 16.7 9.1 16.8 8.5 16.75 8.75 M1.1 14.2 L1.05 14.6 1.1 14.8 1.1 14.2 M15.0 14.7 L15.0 14.7" fill="#111111" fill-rule="evenodd" stroke="none"/>
    <path d="M2.0 4.45 L2.05 4.35 2.05 4.4 2.35 4.2 2.15 4.3 Q2.65 3.8 3.3 2.7 4.05 1.5 4.05 1.35 4.05 1.2 4.0 1.15 L3.95 1.05 3.55 1.0 3.1 1.05 2.8 1.05 3.25 0.7 3.25 0.8 3.5 0.6 Q4.1 0.2 4.7 -0.05 9.35 1.8 13.6 4.75 L14.25 5.2 14.6 5.5 15.15 6.65 Q15.4 6.65 15.45 6.9 L15.45 7.25 15.4 7.55 Q14.8 11.0 14.35 11.0 L14.05 10.95 Q13.25 8.65 12.8 6.75 12.45 7.45 12.25 8.0 12.1 8.15 12.0 8.5 11.9 8.9 11.9 9.25 L11.7 8.85 Q11.1 7.7 11.1 7.6 11.1 7.4 10.75 6.7 10.4 6.05 10.25 5.95 10.15 5.95 10.1 6.05 10.05 6.15 10.05 6.3 10.05 6.7 10.35 7.7 10.6 8.7 10.6 8.95 10.6 9.05 10.7 9.65 L10.6 9.65 10.7 9.95 10.7 9.7 11.1 12.4 11.2 13.2 11.15 14.75 10.1 13.45 Q9.95 15.15 9.5 16.7 9.1 17.9 8.55 18.9 7.45 21.35 6.1 21.35 L5.7 20.35 5.05 18.75 Q4.4 17.35 4.1 18.1 3.95 18.55 3.95 19.4 L3.85 19.3 3.25 18.65 3.1 18.4 Q2.35 17.35 2.35 16.25 2.35 15.25 2.7 14.0 3.1 12.45 3.75 11.85 L3.7 11.7 Q3.3 11.65 2.45 12.85 2.1 13.35 1.9 13.7 1.65 13.8 1.5 14.05 L1.5 13.6 1.7 12.85 2.55 11.15 Q3.2 9.8 3.2 9.6 3.2 9.45 3.15 9.4 L3.0 9.35 1.3 11.0 Q1.05 11.2 0.9 11.45 L0.8 11.5 0.5 11.75 1.05 10.1 Q1.95 7.6 1.95 7.35 L1.95 7.2 2.05 6.85 Q2.05 6.7 2.0 6.7 L1.85 6.65 Q1.75 6.75 1.6 6.9 L1.5 7.1 1.5 6.4 Q1.5 6.0 1.25 5.85 1.05 5.9 0.95 6.25 L0.85 6.75 0.35 5.1 Q0.2 4.65 0.05 4.4 L0.0 4.5 Q0.2 3.5 1.4 2.3 L1.95 1.8 2.1 1.8 Q1.95 2.0 1.8 2.35 1.5 3.15 1.5 4.55 1.5 4.8 1.6 5.25 L1.7 5.25 Q1.8 4.9 2.0 4.45 M6.0 -0.2 L5.8 -0.3 6.25 -0.25 Q6.5 -0.2 6.65 -0.05 L6.0 -0.2 M0.6 8.4 L0.65 8.45 0.8 8.9 0.7 9.0 0.6 8.4 M8.1 11.15 L8.05 11.15 Q8.05 11.25 8.05 11.4 L8.1 11.6 8.1 11.15" fill="#591616" fill-rule="evenodd" stroke="none"/>
    <path d="M2.0 4.45 Q1.8 4.9 1.7 5.25 L1.6 5.25 Q1.5 4.8 1.5 4.55 1.5 3.15 1.8 2.35 1.95 2.0 2.1 1.8 L3.15 1.7 Q2.65 2.6 2.45 2.95 2.05 3.65 1.9 4.2 L1.95 4.45 2.0 4.45 M0.0 4.5 L0.05 4.4 Q0.2 4.65 0.35 5.1 L0.85 6.75 0.95 6.25 Q1.05 5.9 1.25 5.85 1.5 6.0 1.5 6.4 L1.5 7.1 1.6 6.9 Q1.75 6.75 1.85 6.65 L2.0 6.7 Q2.05 6.7 2.05 6.85 L1.95 7.2 1.9 7.2 Q1.25 8.0 0.8 8.9 L0.65 8.45 0.6 8.4 0.45 7.6 0.45 7.55 Q0.1 6.2 0.1 5.85 L0.05 5.4 -0.05 4.9 -0.05 4.85 0.0 4.5 M0.5 11.75 L0.8 11.5 0.9 11.45 Q1.05 11.2 1.3 11.0 L3.0 9.35 3.15 9.4 Q3.2 9.45 3.2 9.6 3.2 9.8 2.55 11.15 L1.7 12.85 1.5 13.6 1.5 14.05 Q1.65 13.8 1.9 13.7 2.1 13.35 2.45 12.85 3.3 11.65 3.7 11.7 L3.75 11.85 Q3.1 12.45 2.7 14.0 2.35 15.25 2.35 16.25 2.35 17.35 3.1 18.4 L3.25 18.65 3.85 19.3 3.95 19.4 Q3.95 18.55 4.1 18.1 4.4 17.35 5.05 18.75 L5.7 20.35 6.1 21.35 Q7.45 21.35 8.55 18.9 9.1 17.9 9.5 16.7 9.95 15.15 10.1 13.45 L11.15 14.75 11.2 13.2 11.1 12.4 10.7 9.7 10.7 9.95 10.6 9.65 10.7 9.65 Q10.6 9.05 10.6 8.95 10.6 8.7 10.35 7.7 10.05 6.7 10.05 6.3 10.05 6.15 10.1 6.05 10.15 5.95 10.25 5.95 10.4 6.05 10.75 6.7 11.1 7.4 11.1 7.6 11.1 7.7 11.7 8.85 L11.9 9.25 Q11.9 8.9 12.0 8.5 12.1 8.15 12.25 8.0 12.45 7.45 12.8 6.75 13.25 8.65 14.05 10.95 L14.35 11.0 Q14.8 11.0 15.4 7.55 L15.45 7.25 15.45 6.9 Q15.4 6.65 15.15 6.65 L14.6 5.5 14.95 5.8 15.15 6.0 14.65 4.8 14.75 4.4 Q14.85 3.9 14.95 3.8 L15.9 5.05 15.95 4.75 Q16.4 4.75 16.45 5.2 16.5 5.4 16.45 5.7 L16.45 6.0 16.65 6.45 Q16.75 6.85 16.75 7.2 16.75 7.65 16.7 8.1 16.65 8.45 16.5 8.8 L16.4 8.6 Q16.3 9.0 16.15 9.35 16.0 9.85 15.5 10.5 L15.4 10.65 Q15.0 11.25 14.85 11.6 14.65 12.0 14.6 12.5 L14.6 12.55 14.55 12.7 14.5 13.15 Q14.5 13.3 14.75 14.05 L14.6 13.75 14.35 13.45 Q14.2 13.1 13.95 12.9 L13.9 12.95 Q13.8 13.05 13.75 13.25 L13.7 13.55 Q13.7 14.05 14.45 15.5 L15.05 16.7 15.15 17.45 Q15.35 18.75 15.35 19.05 L15.25 20.65 Q15.25 21.4 15.35 21.75 14.55 22.05 13.25 22.65 L10.8 23.75 9.65 23.8 8.95 23.8 Q8.9 24.05 9.15 24.4 L9.45 24.85 8.9 24.8 8.95 24.8 8.95 24.7 Q6.3 24.25 3.9 21.9 L3.3 21.3 Q2.3 19.65 1.9 18.7 L1.8 18.55 Q1.7 18.6 1.65 18.6 1.45 18.3 1.25 16.95 1.1 15.9 1.1 15.45 1.1 14.9 1.3 14.45 L1.2 13.65 1.2 13.35 0.8 13.3 Q0.45 13.4 -0.05 14.15 L-0.05 13.7 Q0.0 13.4 0.15 12.85 L0.3 12.35 0.5 11.8 0.5 11.75 M16.75 8.75 L16.8 8.5 16.7 9.1 16.6 9.0 16.75 8.75 M8.1 11.15 L8.1 11.6 8.05 11.4 Q8.05 11.25 8.05 11.15 L8.1 11.15" fill="#330c0c" fill-rule="evenodd" stroke="none"/>
  </g>
</svg>
