<?xml version="1.0" encoding="UTF-8" standalone="no"?>
<svg xmlns:ffdec="https://www.free-decompiler.com/flash" xmlns:xlink="http://www.w3.org/1999/xlink" ffdec:objectType="shape" height="21.35px" width="21.7px" xmlns="http://www.w3.org/2000/svg">
  <g transform="matrix(1.0, 0.0, 0.0, 1.0, 4.9, -2.65)">
    <path d="M10.2 7.6 L10.2 7.75 Q8.75 8.3 7.35 8.95 7.35 9.15 7.4 9.15 L7.45 9.1 Q7.55 9.2 8.0 9.3 L8.6 9.45 8.75 9.45 8.6 9.6 8.25 10.0 5.3 9.55 Q2.75 8.4 1.75 8.0 L1.05 7.75 1.1 7.7 0.9 7.65 Q2.85 7.9 5.15 7.9 L5.95 7.85 7.65 7.6 10.2 7.6 M6.75 12.2 L6.7 12.45 5.3 12.95 Q2.75 13.95 1.8 14.2 L1.85 14.25 Q2.5 14.6 3.4 14.6 4.2 14.6 6.3 14.1 6.15 14.7 6.1 15.05 4.2 15.35 3.55 15.35 2.35 15.35 -0.4 14.15 L-1.1 13.8 Q-1.1 13.2 -1.25 13.0 -1.3 12.95 -1.35 12.95 L-1.5 12.55 Q-1.7 12.0 -1.9 11.65 L-1.45 11.5 0.85 12.0 Q2.6 12.35 3.05 12.35 L6.75 12.2 M1.65 8.45 L1.1 8.35 1.65 8.5 1.65 8.45 M-2.85 10.05 Q-0.4 10.85 1.85 10.85 2.1 10.85 2.2 10.8 L2.2 10.75 Q0.55 10.3 -2.15 8.7 L-3.9 7.6 -3.9 7.65 Q-3.9 7.35 -3.65 6.95 L-3.4 6.65 -2.7 6.9 -0.85 7.65 -1.55 7.2 -1.3 7.25 Q0.1 7.9 0.65 7.9 2.5 8.65 5.85 9.8 6.7 10.1 7.4 10.35 5.0 11.65 0.9 11.6 L0.1 11.65 Q-0.65 11.4 -1.4 11.15 L-2.5 10.75 -2.85 10.05" fill="#990000" fill-rule="evenodd" stroke="none"/>
    <path d="M16.8 8.3 Q16.8 8.85 15.65 10.2 14.9 11.15 14.6 11.6 L14.55 11.7 Q14.4 11.9 14.4 12.0 14.3 12.4 14.15 14.1 14.05 15.05 13.75 15.4 13.85 15.7 13.8 16.15 L13.65 18.1 13.4 20.0 Q13.4 20.85 11.1 21.95 L10.35 22.3 10.05 22.45 Q7.7 23.75 6.9 23.8 6.55 24.0 6.45 24.0 4.35 23.95 1.7 22.2 0.05 21.15 -0.85 20.15 -2.5 18.35 -2.55 17.8 L-2.45 17.35 -2.6 16.7 -2.75 15.2 Q-2.75 15.05 -2.7 14.85 -2.8 14.6 -2.8 14.15 L-2.6 13.15 Q-2.6 12.9 -2.65 12.65 L-2.85 12.15 -3.15 11.75 Q-3.75 11.0 -3.75 10.1 -3.75 10.05 -4.3 8.25 -4.9 6.4 -4.9 5.95 -4.85 5.25 -4.1 5.6 L-3.7 5.8 -3.4 5.65 Q-3.1 5.5 -2.75 5.25 L-2.55 4.9 -1.3 3.35 Q-1.0 2.95 -0.65 2.65 0.85 3.05 3.7 3.2 L4.5 3.25 5.7 3.35 5.95 3.3 8.4 3.35 9.65 3.4 9.7 3.65 9.65 3.7 11.25 5.3 13.25 7.35 13.65 7.35 Q14.5 7.4 15.45 7.55 16.85 7.8 16.8 8.3 M8.25 10.0 L9.7 10.25 Q11.85 10.6 12.9 10.85 L14.0 10.85 Q14.95 9.9 15.4 8.6 L13.9 8.2 12.75 7.9 12.6 7.9 Q12.4 7.9 12.15 7.75 L11.55 7.6 10.2 7.6 7.65 7.6 5.95 7.85 5.15 7.9 Q2.85 7.9 0.9 7.65 L1.1 7.7 1.05 7.75 1.75 8.0 Q2.75 8.4 5.3 9.55 L8.25 10.0 M6.1 15.05 L8.3 14.65 Q12.1 13.9 12.55 13.9 L12.9 13.95 12.9 13.9 Q13.0 13.05 13.05 12.1 L12.65 12.1 9.9 11.9 Q8.75 11.9 7.0 12.15 L6.75 12.2 3.05 12.35 Q2.6 12.35 0.85 12.0 L-1.45 11.5 -1.9 11.65 Q-1.7 12.0 -1.5 12.55 L-1.35 12.95 Q-1.3 12.95 -1.25 13.0 -1.1 13.2 -1.1 13.8 L-0.4 14.15 Q2.35 15.35 3.55 15.35 4.2 15.35 6.1 15.05 M5.15 7.05 L5.25 7.05 7.2 7.15 6.75 6.8 Q6.1 6.25 5.55 6.1 6.7 5.7 7.35 6.2 7.6 6.35 7.85 6.65 L8.2 7.1 8.15 7.15 8.2 7.15 11.3 7.25 11.5 7.25 10.95 6.65 9.6 5.0 9.2 4.55 Q9.05 4.45 8.8 4.45 8.4 4.4 5.55 4.35 3.9 4.3 2.2 3.95 L0.4 3.6 Q-0.15 3.6 -0.65 3.9 -0.95 4.2 -1.25 4.75 -1.9 5.9 -2.3 6.4 -1.25 6.75 -0.2 6.95 -0.05 6.25 1.05 6.0 L1.6 5.9 Q2.8 5.75 4.55 6.15 L4.6 6.2 4.55 6.2 4.2 6.2 3.6 6.15 2.3 6.15 0.9 6.1 0.65 6.75 0.45 7.05 0.5 7.05 2.1 7.25 3.25 7.3 4.1 7.3 4.7 7.2 Q5.0 7.1 5.15 7.05 M1.65 8.45 L1.65 8.5 1.1 8.35 1.65 8.45 M-2.85 10.05 L-2.5 10.75 -1.4 11.15 Q-0.65 11.4 0.1 11.65 L0.2 11.65 Q1.85 12.1 3.45 12.15 L3.8 12.15 Q5.8 12.2 6.85 12.1 8.65 11.95 9.9 11.5 L10.4 11.3 10.25 11.3 7.5 10.35 7.4 10.35 Q6.7 10.1 5.85 9.8 2.5 8.65 0.65 7.9 0.1 7.9 -1.3 7.25 L-1.55 7.2 -0.85 7.65 -2.7 6.9 -3.4 6.65 -3.65 6.95 Q-3.9 7.35 -3.9 7.65 L-3.9 7.7 Q-3.95 7.9 -3.5 8.75 L-2.85 10.05 M4.6 22.55 L5.65 22.65 Q6.9 22.65 8.3 22.0 L9.35 21.4 9.45 21.35 9.9 21.05 11.1 20.15 Q12.2 19.15 12.2 18.15 L12.1 17.05 12.05 16.6 11.8 16.5 11.55 16.35 Q11.1 16.15 10.9 16.1 L10.85 16.1 Q9.0 16.1 7.85 17.1 7.05 17.85 6.4 19.4 L6.0 20.3 6.1 20.35 Q6.05 20.45 5.9 20.5 L5.4 21.65 5.35 21.75 Q5.05 22.3 4.65 22.5 L4.55 22.55 4.6 22.55 M-1.1 17.15 L-1.1 17.2 Q-0.8 18.25 -0.35 19.1 0.25 20.3 1.15 21.05 L1.7 21.25 Q2.75 21.6 3.65 21.65 L5.3 20.0 Q6.3 19.0 6.85 18.0 7.2 17.35 8.25 16.65 9.25 16.05 10.4 15.7 11.35 15.4 12.0 15.45 L12.1 15.15 8.95 15.1 Q8.65 15.1 6.35 15.5 L6.0 15.55 Q4.0 15.9 3.35 15.9 2.2 15.9 0.65 15.4 L-1.2 14.85 Q-1.2 15.4 -1.15 16.2 L-1.1 17.15" fill="#111111" fill-rule="evenodd" stroke="none"/>
    <path d="M10.2 7.6 L11.55 7.6 12.15 7.75 Q12.4 7.9 12.6 7.9 L12.75 7.9 13.9 8.2 15.4 8.6 Q14.95 9.9 14.0 10.85 L12.9 10.85 Q11.85 10.6 9.7 10.25 L8.25 10.0 8.6 9.6 8.75 9.45 8.6 9.45 8.0 9.3 Q7.55 9.2 7.45 9.1 L7.4 9.15 Q7.35 9.15 7.35 8.95 8.75 8.3 10.2 7.75 L10.2 7.6 M6.75 12.2 L7.0 12.15 Q8.75 11.9 9.9 11.9 L12.65 12.1 13.05 12.1 Q13.0 13.05 12.9 13.9 L12.9 13.95 12.55 13.9 Q12.1 13.9 8.3 14.65 L6.1 15.05 Q6.15 14.7 6.3 14.1 4.2 14.6 3.4 14.6 2.5 14.6 1.85 14.25 L1.8 14.2 Q2.75 13.95 5.3 12.95 L6.7 12.45 6.75 12.2 M-3.9 7.65 L-3.9 7.6 -2.15 8.7 Q0.55 10.3 2.2 10.75 L2.2 10.8 Q2.1 10.85 1.85 10.85 -0.4 10.85 -2.85 10.05 L-3.5 8.75 Q-3.95 7.9 -3.9 7.7 L-3.9 7.65 M0.1 11.65 L0.9 11.6 Q5.0 11.65 7.4 10.35 L7.5 10.35 10.25 11.3 10.4 11.3 9.9 11.5 Q8.65 11.95 6.85 12.1 5.8 12.2 3.8 12.15 L3.45 12.15 Q1.85 12.1 0.2 11.65 L0.1 11.65" fill="#660000" fill-rule="evenodd" stroke="none"/>
    <path d="M8.15 7.15 L8.2 7.1 7.85 6.65 Q7.6 6.35 7.35 6.2 6.7 5.7 5.55 6.1 6.1 6.25 6.75 6.8 L7.2 7.15 5.25 7.05 5.15 7.05 5.25 6.95 5.55 6.5 Q5.3 6.35 4.55 6.2 L4.6 6.2 4.55 6.15 Q2.8 5.75 1.6 5.9 L1.5 5.9 1.45 5.8 Q1.4 5.75 1.4 5.6 1.45 5.1 5.1 5.15 8.8 5.15 9.2 5.6 9.35 5.85 10.95 7.0 L11.3 7.25 8.2 7.15 8.15 7.15 M3.25 7.3 L2.1 7.25 Q2.05 7.1 2.0 7.0 2.05 6.0 2.9 6.85 L3.25 7.3 M1.45 5.25 L0.8 5.2 0.8 5.1 Q0.75 5.0 0.75 4.8 0.75 4.55 1.0 4.45 L2.35 4.5 2.4 4.55 Q2.45 4.6 2.45 4.8 2.45 4.95 2.0 5.1 1.65 5.25 1.45 5.25 M4.65 22.5 Q5.05 22.3 5.35 21.75 L5.4 21.65 5.9 20.5 Q6.05 20.45 6.1 20.35 L6.0 20.3 6.4 19.4 Q7.05 17.85 7.85 17.1 9.0 16.1 10.85 16.1 L10.9 16.1 Q11.1 16.15 11.55 16.35 L11.8 16.5 12.05 16.6 12.1 17.05 12.2 18.15 Q12.2 19.15 11.1 20.15 L9.9 21.05 9.45 21.35 9.35 21.4 8.3 22.0 Q6.9 22.65 5.65 22.65 L4.6 22.55 4.65 22.5 M8.05 16.2 L8.45 15.85 Q7.55 15.4 7.1 15.55 6.75 15.65 6.75 16.05 6.85 16.1 7.05 16.2 7.35 16.3 7.6 16.3 7.9 16.35 8.05 16.2 M6.0 15.55 L6.35 15.5 Q8.65 15.1 8.95 15.1 L12.1 15.15 12.0 15.45 Q11.35 15.4 10.4 15.7 9.25 16.05 8.25 16.65 7.2 17.35 6.85 18.0 6.3 19.0 5.3 20.0 L3.65 21.65 Q2.75 21.6 1.7 21.25 L1.15 21.05 Q0.25 20.3 -0.35 19.1 -0.8 18.25 -1.1 17.2 L-1.1 17.15 -0.8 17.45 Q0.65 19.15 2.1 19.2 2.8 19.2 3.55 18.65 L4.8 18.9 Q5.05 18.9 5.1 18.8 L5.15 18.6 Q4.8 18.0 4.05 17.95 L3.85 17.95 Q3.25 17.7 2.65 17.45 2.8 17.25 3.55 17.2 4.2 17.15 4.95 17.15 L5.55 16.3 6.0 15.55 M2.75 20.2 L2.8 20.25 Q2.85 20.3 3.25 20.3 3.55 20.35 3.75 20.2 3.95 20.1 3.95 19.85 3.95 19.65 3.9 19.6 L3.2 19.6 Q3.0 19.65 2.85 19.75 2.7 19.85 2.7 19.95 2.7 20.15 2.75 20.2 M-0.15 5.6 Q-0.1 5.65 -0.1 5.75 L-0.2 6.0 Q-0.25 6.0 -0.35 6.05 L-0.6 6.15 -0.9 5.95 Q-1.0 5.8 -1.0 5.7 L-1.0 5.55 -0.9 5.45 Q-0.55 5.4 -0.15 5.45 L-0.15 5.6" fill="#1f401f" fill-rule="evenodd" stroke="none"/>
    <path d="M8.15 7.15 L8.2 7.15 8.15 7.15 M11.3 7.25 L10.95 7.0 Q9.35 5.85 9.2 5.6 8.8 5.15 5.1 5.15 1.45 5.1 1.4 5.6 1.4 5.75 1.45 5.8 L1.5 5.9 1.6 5.9 1.05 6.0 Q-0.05 6.25 -0.2 6.95 -1.25 6.75 -2.3 6.4 -1.9 5.9 -1.25 4.75 -0.95 4.2 -0.65 3.9 -0.15 3.6 0.4 3.6 L2.2 3.95 Q3.9 4.3 5.55 4.35 8.4 4.4 8.8 4.45 9.05 4.45 9.2 4.55 L9.6 5.0 10.95 6.65 11.5 7.25 11.3 7.25 M4.55 6.2 Q5.3 6.35 5.55 6.5 L5.25 6.95 5.15 7.05 Q5.0 7.1 4.7 7.2 L4.1 7.3 3.25 7.3 2.9 6.85 Q2.05 6.0 2.0 7.0 2.05 7.1 2.1 7.25 L0.5 7.05 0.45 7.05 0.65 6.75 0.9 6.1 2.3 6.15 3.6 6.15 4.2 6.2 4.55 6.2 M1.45 5.25 Q1.65 5.25 2.0 5.1 2.45 4.95 2.45 4.8 2.45 4.6 2.4 4.55 L2.35 4.5 1.0 4.45 Q0.75 4.55 0.75 4.8 0.75 5.0 0.8 5.1 L0.8 5.2 1.45 5.25 M4.65 22.5 L4.6 22.55 4.55 22.55 4.65 22.5 M8.05 16.2 Q7.9 16.35 7.6 16.3 7.35 16.3 7.05 16.2 6.85 16.1 6.75 16.05 6.75 15.65 7.1 15.55 7.55 15.4 8.45 15.85 L8.05 16.2 M6.0 15.55 L5.55 16.3 4.95 17.15 Q4.2 17.15 3.55 17.2 2.8 17.25 2.65 17.45 3.25 17.7 3.85 17.95 L4.05 17.95 Q4.8 18.0 5.15 18.6 L5.1 18.8 Q5.05 18.9 4.8 18.9 L3.55 18.65 Q2.8 19.2 2.1 19.2 0.65 19.15 -0.8 17.45 L-1.1 17.15 -1.15 16.2 Q-1.2 15.4 -1.2 14.85 L0.65 15.4 Q2.2 15.9 3.35 15.9 4.0 15.9 6.0 15.55 M2.75 20.2 Q2.7 20.15 2.7 19.95 2.7 19.85 2.85 19.75 3.0 19.65 3.2 19.6 L3.9 19.6 Q3.95 19.65 3.95 19.85 3.95 20.1 3.75 20.2 3.55 20.35 3.25 20.3 2.85 20.3 2.8 20.25 L2.75 20.2 M-0.15 5.6 L-0.15 5.45 Q-0.55 5.4 -0.9 5.45 L-1.0 5.55 -1.0 5.7 Q-1.0 5.8 -0.9 5.95 L-0.6 6.15 -0.35 6.05 Q-0.25 6.0 -0.2 6.0 L-0.1 5.75 Q-0.1 5.65 -0.15 5.6" fill="#285228" fill-rule="evenodd" stroke="none"/>
  </g>
</svg>
