<?xml version="1.0" encoding="UTF-8" standalone="no"?>
<svg xmlns:ffdec="https://www.free-decompiler.com/flash" xmlns:xlink="http://www.w3.org/1999/xlink" ffdec:objectType="shape" height="27.65px" width="23.7px" xmlns="http://www.w3.org/2000/svg">
  <g transform="matrix(1.0, 0.0, 0.0, 1.0, 5.05, 3.0)">
    <path d="M-3.2 7.7 L-2.05 7.55 Q-1.4 7.4 -0.15 7.65 L0.5 7.7 Q0.2 9.05 0.3 9.5 0.4 10.1 0.7 10.8 L7.6 5.3 Q10.5 3.7 10.95 3.5 L11.05 3.5 Q12.05 4.4 12.7 5.25 12.45 5.8 11.9 6.6 10.85 8.25 10.95 8.95 9.55 10.45 8.65 11.15 L8.6 11.2 8.55 11.3 8.6 11.25 4.6 13.45 4.7 13.7 4.95 13.65 Q6.6 13.65 9.7 13.25 L11.3 13.05 10.65 14.15 8.7 16.6 Q8.4 16.8 8.2 16.85 7.4 17.0 4.6 16.3 L1.9 15.6 -0.45 16.9 -1.0 17.6 Q-1.25 17.9 -1.55 17.95 -1.9 18.05 -2.2 17.95 L-2.5 17.55 Q-2.95 16.5 -3.0 16.25 -3.1 15.95 -3.1 15.35 L-3.05 15.05 -2.95 14.55 -1.15 14.25 -0.25 14.15 -1.45 13.15 -3.4 11.35 -3.65 11.05 -3.7 10.3 Q-3.7 9.3 -3.55 8.8 L-3.2 7.7" fill="#4c9999" fill-rule="evenodd" stroke="none"/>
    <path d="M-3.2 7.7 L-3.1 7.45 -2.6 6.75 Q-1.75 5.4 -1.1 4.65 L-0.75 4.25 Q1.15 2.25 4.0 1.1 5.6 0.5 7.45 0.15 L12.9 0.95 Q14.15 1.75 15.15 3.2 L15.25 3.3 15.25 3.35 15.3 3.4 15.6 3.85 15.6 3.9 15.65 4.0 16.15 4.9 Q16.95 6.7 17.2 8.75 17.25 10.35 16.55 11.9 L15.9 13.1 15.75 13.3 14.9 14.5 14.75 14.65 14.6 14.9 Q14.0 15.5 13.7 16.15 L12.9 17.5 Q12.35 18.3 12.2 18.8 11.6 20.9 10.65 22.45 L10.4 22.8 10.35 22.85 10.05 23.05 Q9.5 23.35 7.65 23.65 L7.5 23.7 Q6.15 23.85 4.75 23.45 4.3 23.3 3.8 23.1 L3.45 22.95 1.75 21.25 -0.35 19.35 Q-0.8 19.0 -1.25 18.8 -1.5 18.7 -1.65 18.65 L-1.85 18.4 -1.95 18.3 -2.0 18.2 -2.05 18.15 -2.05 18.1 -2.2 17.95 Q-1.9 18.05 -1.55 17.95 -1.25 17.9 -1.0 17.6 L-0.45 16.9 1.9 15.6 4.6 16.3 Q7.4 17.0 8.2 16.85 8.4 16.8 8.7 16.6 L10.65 14.15 11.3 13.05 9.7 13.25 Q6.6 13.65 4.95 13.65 L4.7 13.7 4.6 13.45 8.6 11.25 8.55 11.3 8.6 11.2 8.65 11.15 Q9.55 10.45 10.95 8.95 10.85 8.25 11.9 6.6 12.45 5.8 12.7 5.25 12.05 4.4 11.05 3.5 L10.95 3.5 Q10.5 3.7 7.6 5.3 L0.7 10.8 Q0.4 10.1 0.3 9.5 0.2 9.05 0.5 7.7 L-0.15 7.65 Q-1.4 7.4 -2.05 7.55 L-3.2 7.7 M-2.95 14.55 L-2.9 14.4 Q-2.8 14.3 -2.75 14.15 L-2.75 14.05 -2.8 13.75 Q-2.8 13.6 -3.5 12.8 L-3.55 12.75 -3.6 12.15 -3.65 11.05 -3.4 11.35 -1.45 13.15 -0.25 14.15 -1.15 14.25 -2.95 14.55" fill="#397373" fill-rule="evenodd" stroke="none"/>
    <path d="M11.1 -1.7 L13.1 -0.75 Q15.3 0.15 16.7 2.15 18.5 4.65 18.65 8.45 L18.55 9.1 18.45 9.7 Q18.25 11.05 17.85 12.2 17.0 14.75 15.7 15.6 L14.9 16.9 Q13.65 18.95 13.5 19.6 13.15 21.35 12.45 22.5 11.65 23.75 10.75 23.85 L10.45 23.9 Q9.7 24.3 8.7 24.45 L6.6 24.65 Q3.7 24.65 1.65 23.1 0.7 22.35 0.05 21.45 L-0.35 20.8 -1.2 20.05 Q-2.0 19.45 -3.0 19.1 -3.25 19.0 -3.3 18.85 -3.4 18.7 -3.55 18.25 L-3.8 17.0 -4.0 16.4 Q-4.15 16.0 -4.1 14.75 L-4.1 14.45 -4.25 13.85 Q-4.5 13.6 -4.75 13.1 L-5.0 12.5 -5.0 12.35 Q-5.0 11.55 -5.05 9.4 L-4.5 7.45 -4.05 6.35 -3.8 5.8 -1.9 3.65 Q-0.7 2.35 0.45 1.15 2.5 -0.15 3.2 -0.4 8.4 -2.0 11.1 -1.7 M-2.2 17.95 L-2.05 18.1 -2.05 18.15 -2.0 18.2 -1.95 18.3 -1.85 18.4 -1.65 18.65 Q-1.5 18.7 -1.25 18.8 -0.8 19.0 -0.35 19.35 L1.75 21.25 3.45 22.95 3.8 23.1 Q4.3 23.3 4.75 23.45 6.15 23.85 7.5 23.7 L7.65 23.65 Q9.5 23.35 10.05 23.05 L10.35 22.85 10.4 22.8 10.65 22.45 Q11.6 20.9 12.2 18.8 12.35 18.3 12.9 17.5 L13.7 16.15 Q14.0 15.5 14.6 14.9 L14.75 14.65 14.9 14.5 15.75 13.3 15.9 13.1 16.55 11.9 Q17.25 10.35 17.2 8.75 16.95 6.7 16.15 4.9 L15.65 4.0 15.6 3.9 15.6 3.85 15.3 3.4 15.25 3.35 15.25 3.3 15.15 3.2 Q14.15 1.75 12.9 0.95 L7.45 0.15 Q5.6 0.5 4.0 1.1 1.15 2.25 -0.75 4.25 L-1.1 4.65 Q-1.75 5.4 -2.6 6.75 L-3.1 7.45 -3.2 7.7 -3.55 8.8 Q-3.7 9.3 -3.7 10.3 L-3.65 11.05 -3.6 12.15 -3.55 12.75 -3.5 12.8 Q-2.8 13.6 -2.8 13.75 L-2.75 14.05 -2.75 14.15 Q-2.8 14.3 -2.9 14.4 L-2.95 14.55 -3.05 15.05 -3.1 15.35 Q-3.1 15.95 -3.0 16.25 -2.95 16.5 -2.5 17.55 L-2.2 17.95" fill="#111111" fill-rule="evenodd" stroke="none"/>
    <path d="M10.4 -2.95 L10.95 -3.0 11.3 -2.95 Q13.45 -2.75 14.7 0.6 14.15 0.95 13.85 0.9 13.55 0.8 13.4 0.8 11.65 1.15 8.5 6.35 6.05 10.4 5.0 13.25 3.05 18.4 3.0 23.4 L2.85 23.55 Q2.75 23.7 2.5 23.75 2.45 23.75 0.75 22.0 L-1.05 20.05 Q-1.4 18.6 -0.05 13.15 0.6 10.55 1.6 7.0 2.05 5.55 3.5 3.3 5.2 0.6 7.1 -1.05 8.85 -2.65 10.4 -2.95 M7.5 7.0 Q9.6 3.45 12.6 -0.85 10.15 -2.5 7.4 -0.05 5.15 1.9 3.05 6.3 2.75 6.85 2.5 7.45 1.25 10.3 0.4 13.45 -0.5 16.6 -0.3 17.5 -0.3 17.7 -0.35 18.45 -0.4 19.2 -0.35 19.4 L0.05 19.9 0.65 20.5 1.95 21.95 Q1.95 19.85 2.7 17.25 3.4 14.7 4.85 11.75 5.9 9.55 7.5 7.0" fill="#000000" fill-rule="evenodd" stroke="none"/>
    <path d="M2.5 7.45 Q2.75 6.85 3.05 6.3 5.15 1.9 7.4 -0.05 10.15 -2.5 12.6 -0.85 9.6 3.45 7.5 7.0 4.25 7.55 2.5 7.45 M2.7 17.25 Q1.95 19.85 1.95 21.95 L0.65 20.5 0.05 19.9 Q0.15 19.15 0.4 18.65 1.05 17.5 2.4 17.3 L2.7 17.25" fill="#666666" fill-rule="evenodd" stroke="none"/>
    <path d="M2.5 7.45 Q4.25 7.55 7.5 7.0 5.9 9.55 4.85 11.75 3.4 14.7 2.7 17.25 L2.4 17.3 Q1.05 17.5 0.4 18.65 0.15 19.15 0.05 19.9 L-0.35 19.4 Q-0.4 19.2 -0.35 18.45 -0.3 17.7 -0.3 17.5 -0.5 16.6 0.4 13.45 1.25 10.3 2.5 7.45" fill="#82876d" fill-rule="evenodd" stroke="none"/>
  </g>
</svg>
