<?xml version="1.0" encoding="UTF-8" standalone="no"?>
<svg xmlns:ffdec="https://www.free-decompiler.com/flash" xmlns:xlink="http://www.w3.org/1999/xlink" ffdec:objectType="shape" height="22.25px" width="20.1px" xmlns="http://www.w3.org/2000/svg">
  <g transform="matrix(1.0, 0.0, 0.0, 1.0, 3.75, 0.15)">
    <path d="M12.05 1.65 Q13.15 2.2 14.05 3.1 15.75 4.8 16.35 7.55 16.35 7.75 16.35 8.55 16.35 9.6 16.15 10.5 15.75 12.65 14.65 13.4 L14.1 14.55 Q13.15 16.4 13.1 17.0 13.0 18.7 12.4 19.85 11.8 21.1 10.9 21.25 L10.65 21.25 Q9.95 21.7 8.95 21.9 5.45 22.55 3.0 21.2 L3.25 21.05 3.35 20.9 3.35 20.0 3.75 20.45 4.1 20.6 Q4.6 20.8 5.1 20.95 6.4 21.3 7.7 21.1 L7.9 21.05 Q9.65 20.7 10.15 20.4 L10.4 20.2 10.5 20.15 10.65 19.8 Q11.45 18.3 11.85 16.3 11.95 15.85 12.3 15.1 12.85 14.1 12.9 13.9 13.15 13.35 13.6 12.8 L13.7 12.6 13.8 12.45 14.45 11.45 14.55 11.3 15.0 10.3 Q15.4 9.05 15.15 7.8 14.7 6.3 13.85 5.0 L13.4 4.4 13.3 4.3 13.3 4.25 12.95 3.9 12.95 3.85 12.9 3.85 Q12.0 2.9 10.95 2.35 11.15 2.3 11.3 2.25 11.45 2.25 11.65 2.3 11.9 2.35 12.3 2.1 L12.05 1.65 M2.5 20.95 L2.05 20.6 Q1.15 19.9 0.5 19.0 L0.2 18.5 1.15 19.55 2.5 20.95 M0.0 18.25 L-0.6 17.7 Q-1.35 17.2 -2.25 16.85 -2.45 16.75 -2.55 16.65 -2.6 16.5 -2.7 16.05 -2.8 15.6 -2.9 14.95 L-3.05 14.4 Q-3.15 14.05 -3.1 13.0 L-3.05 12.7 -3.15 12.25 Q-3.35 12.05 -3.55 11.65 L-3.75 11.1 -3.75 11.0 Q-3.65 10.4 -3.6 8.65 L-3.05 7.2 -2.65 6.4 -2.4 5.95 -0.75 4.4 Q0.2 3.5 1.15 2.65 2.7 1.75 3.3 1.6 5.2 1.1 6.65 0.85 L6.3 1.1 Q5.65 1.6 5.05 2.25 L3.95 2.6 Q1.65 3.4 0.15 4.8 L-0.15 5.1 Q-0.7 5.65 -1.45 6.65 L-1.9 7.2 -2.0 7.35 -2.35 8.2 Q-2.45 8.6 -2.5 9.35 L-2.5 9.95 -2.5 11.3 -2.45 11.35 Q-1.85 12.0 -1.85 12.15 L-1.8 12.35 -1.85 12.5 Q-1.9 12.6 -2.0 12.7 L-2.05 12.8 -2.15 13.25 -2.2 13.5 Q-2.2 14.0 -2.15 14.25 -2.1 14.5 -1.7 15.45 L-1.45 15.8 -1.35 15.95 -1.35 16.0 -1.3 16.0 -1.25 16.1 -1.15 16.2 -1.0 16.4 Q-0.85 16.45 -0.65 16.5 L-0.5 16.6 Q-0.55 17.3 -0.5 17.7 L0.0 18.25" fill="#111111" fill-rule="evenodd" stroke="none"/>
    <path d="M5.05 2.25 Q4.3 3.05 3.55 4.1 2.4 5.7 2.05 6.75 L1.15 9.55 Q1.0 9.05 0.9 8.65 0.85 8.35 1.1 7.3 L0.55 7.25 -1.0 7.2 -2.0 7.35 -1.9 7.2 -1.45 6.65 Q-0.7 5.65 -0.15 5.1 L0.15 4.8 Q1.65 3.4 3.95 2.6 L5.05 2.25 M0.35 12.4 L0.35 12.45 -0.4 12.55 -2.05 12.8 -2.0 12.7 Q-1.9 12.6 -1.85 12.5 L-1.8 12.35 -1.85 12.15 Q-1.85 12.0 -2.45 11.35 L-2.5 11.3 -2.5 9.95 -2.3 10.15 -0.65 11.65 0.35 12.4 M-0.35 15.45 L-0.5 16.6 -0.65 16.5 Q-0.85 16.45 -1.0 16.4 L-1.15 16.2 -1.25 16.1 -1.3 16.0 -1.35 16.0 -1.35 15.95 -1.45 15.8 Q-1.2 15.85 -0.9 15.8 -0.6 15.75 -0.35 15.45 M10.95 2.35 Q12.0 2.9 12.9 3.85 L12.95 3.85 12.95 3.9 13.3 4.25 13.3 4.3 13.4 4.4 13.85 5.0 Q14.7 6.3 15.15 7.8 15.4 9.05 15.0 10.3 L14.55 11.3 14.45 11.45 13.8 12.45 13.7 12.6 13.6 12.8 Q13.15 13.35 12.9 13.9 12.85 14.1 12.3 15.1 11.95 15.85 11.85 16.3 11.45 18.3 10.65 19.8 L10.5 20.15 10.4 20.2 10.15 20.4 Q9.65 20.7 7.9 21.05 L7.7 21.1 Q6.4 21.3 5.1 20.95 4.6 20.8 4.1 20.6 L3.75 20.45 3.35 20.0 Q3.45 17.0 4.2 14.1 L4.7 14.2 Q7.3 14.75 8.05 14.6 8.2 14.55 8.45 14.4 L10.0 12.25 10.5 11.3 9.1 11.5 Q6.45 11.9 5.0 11.9 L4.85 11.95 5.0 11.6 5.0 11.55 8.05 9.9 8.05 9.95 8.1 9.85 Q8.8 9.25 9.9 8.1 9.8 7.55 10.55 6.3 10.9 5.75 11.1 5.3 10.5 4.75 9.6 4.1 L9.55 4.1 8.9 4.45 Q10.1 2.75 10.95 2.35" fill="#397373" fill-rule="evenodd" stroke="none"/>
    <path d="M1.15 9.55 L0.55 11.6 0.35 12.4 -0.65 11.65 -2.3 10.15 -2.5 9.95 -2.5 9.35 Q-2.45 8.6 -2.35 8.2 L-2.0 7.35 -1.0 7.2 0.55 7.25 1.1 7.3 Q0.85 8.35 0.9 8.65 1.0 9.05 1.15 9.55 M0.35 12.45 Q-0.15 14.2 -0.35 15.45 -0.6 15.75 -0.9 15.8 -1.2 15.85 -1.45 15.8 L-1.7 15.45 Q-2.1 14.5 -2.15 14.25 -2.2 14.0 -2.2 13.5 L-2.15 13.25 -2.05 12.8 -0.4 12.55 0.35 12.45 M8.9 4.45 L9.55 4.1 9.6 4.1 Q10.5 4.75 11.1 5.3 10.9 5.75 10.55 6.3 9.8 7.55 9.9 8.1 8.8 9.25 8.1 9.85 L8.05 9.95 8.05 9.9 5.0 11.55 Q5.85 9.3 7.75 6.2 8.35 5.2 8.9 4.45 M4.85 11.95 L5.0 11.9 Q6.45 11.9 9.1 11.5 L10.5 11.3 10.0 12.25 8.45 14.4 Q8.2 14.55 8.05 14.6 7.3 14.75 4.7 14.2 L4.2 14.1 Q4.5 13.0 4.85 11.95" fill="#4c9999" fill-rule="evenodd" stroke="none"/>
    <path d="M6.65 0.85 Q7.75 0.05 8.7 -0.1 L9.4 -0.15 Q10.9 -0.05 12.05 1.65 L12.3 2.1 Q11.9 2.35 11.65 2.3 11.45 2.25 11.3 2.25 11.15 2.3 10.95 2.35 10.1 2.75 8.9 4.45 8.35 5.2 7.75 6.2 5.85 9.3 5.0 11.55 L5.0 11.6 4.85 11.95 Q4.5 13.0 4.2 14.1 3.45 17.0 3.35 20.0 L3.35 20.9 3.25 21.05 3.0 21.2 2.85 21.25 2.5 20.95 1.15 19.55 0.2 18.5 0.0 18.25 -0.5 17.7 Q-0.55 17.3 -0.5 16.6 L-0.35 15.45 Q-0.15 14.2 0.35 12.45 L0.35 12.4 0.55 11.6 1.15 9.55 2.05 6.75 Q2.4 5.7 3.55 4.1 4.3 3.05 5.05 2.25 5.65 1.6 6.3 1.1 L6.65 0.85 M6.9 6.65 Q7.4 5.8 8.0 4.9 8.9 3.5 9.95 2.0 L10.55 1.15 Q8.6 0.15 6.55 1.75 L6.35 1.95 Q4.75 3.3 3.2 6.2 L2.8 7.05 Q2.05 8.6 1.45 10.25 L0.95 11.8 Q0.35 13.7 0.25 14.7 0.2 15.1 0.25 15.35 0.3 15.55 0.2 16.2 0.15 16.75 0.15 17.0 L0.2 17.05 0.55 17.55 1.1 18.1 2.35 19.45 2.35 19.5 Q2.35 19.25 2.35 19.0 2.4 17.15 3.0 15.05 L3.35 13.9 Q3.7 12.9 4.15 11.9 L4.85 10.35 Q5.7 8.6 6.9 6.65" fill="#000000" fill-rule="evenodd" stroke="none"/>
    <path d="M2.8 7.05 L3.2 6.2 Q4.75 3.3 6.35 1.95 L6.55 1.75 Q8.6 0.15 10.55 1.15 L9.95 2.0 Q8.9 3.5 8.0 4.9 7.4 5.8 6.9 6.65 4.7 7.05 3.35 7.1 L2.8 7.05 M3.0 15.05 Q2.4 17.15 2.35 19.0 2.35 19.25 2.35 19.5 L2.35 19.45 1.1 18.1 0.55 17.55 0.6 17.3 Q0.7 16.75 0.9 16.35 1.5 15.3 2.75 15.1 L3.0 15.05" fill="#666666" fill-rule="evenodd" stroke="none"/>
    <path d="M2.8 7.05 L3.35 7.1 Q4.7 7.05 6.9 6.65 5.7 8.6 4.85 10.35 L4.15 11.9 Q3.7 12.9 3.35 13.9 L3.0 15.05 2.75 15.1 Q1.5 15.3 0.9 16.35 0.7 16.75 0.6 17.3 L0.55 17.55 0.2 17.05 0.15 17.0 Q0.15 16.75 0.2 16.2 0.3 15.55 0.25 15.35 0.2 15.1 0.25 14.7 0.35 13.7 0.95 11.8 L1.45 10.25 Q2.05 8.6 2.8 7.05" fill="#82876d" fill-rule="evenodd" stroke="none"/>
  </g>
</svg>
