<?xml version="1.0" encoding="UTF-8" standalone="no"?>
<svg xmlns:ffdec="https://www.free-decompiler.com/flash" xmlns:xlink="http://www.w3.org/1999/xlink" ffdec:objectType="shape" height="30.05px" width="34.6px" xmlns="http://www.w3.org/2000/svg">
  <g transform="matrix(1.0, 0.0, 0.0, 1.0, 0.45, 8.8)">
    <path d="M11.2 -0.45 Q11.7 -0.7 12.1 -1.1 L12.75 -1.7 Q13.3 -2.15 14.4 -2.25 14.55 -2.45 14.6 -2.45 L15.8 -2.3 16.65 -2.3 Q16.9 -2.3 17.65 -1.9 L17.9 -1.85 Q18.7 -1.65 19.05 -1.65 20.0 -1.65 20.85 -2.0 21.55 -2.4 21.9 -2.7 22.3 -3.0 22.4 -3.2 L22.35 -3.25 Q22.15 -3.65 22.15 -3.75 22.15 -3.9 22.2 -4.05 22.25 -4.5 22.95 -4.75 23.75 -5.05 25.2 -5.05 L25.6 -5.0 25.95 -4.95 26.35 -4.65 26.4 -4.6 26.75 -4.4 Q27.8 -4.5 28.25 -4.9 L28.4 -5.05 Q28.55 -5.25 28.6 -5.5 28.6 -5.75 28.6 -6.25 28.65 -6.7 28.85 -6.95 29.1 -7.15 30.0 -7.4 L31.05 -7.65 31.15 -7.7 31.6 -7.85 32.55 -8.25 Q33.9 -8.8 34.05 -8.8 L34.15 -8.6 Q33.85 -8.35 32.8 -7.7 L32.85 -7.65 32.55 -7.55 Q32.3 -7.45 32.05 -7.2 L31.7 -6.95 Q31.1 -6.4 30.85 -6.05 30.6 -5.6 30.55 -5.1 L30.55 -4.25 Q30.55 -3.9 30.25 -3.6 29.85 -3.15 29.65 -2.7 29.45 -2.15 29.25 -1.95 28.7 -1.45 27.5 -1.4 L27.2 -1.4 27.1 -1.45 26.65 -1.5 26.45 -1.65 Q26.3 -1.75 26.25 -1.85 L25.7 -1.8 Q25.65 -1.7 25.6 -1.5 L25.6 -1.3 Q25.65 -1.15 25.65 -0.95 25.65 -0.65 25.5 -0.2 L25.1 0.5 24.9 0.95 Q24.8 1.2 24.25 1.7 23.8 2.15 23.4 2.4 22.65 2.95 21.7 3.25 L20.8 3.45 20.7 3.5 20.2 3.6 19.85 3.75 19.4 4.3 Q19.2 4.55 18.8 5.3 L18.8 5.35 19.05 5.35 Q18.9 5.45 18.75 5.65 L18.65 5.9 18.55 5.9 18.45 6.15 18.4 6.3 18.4 6.35 Q18.4 6.55 18.45 6.65 L18.6 6.85 18.8 6.85 19.25 6.9 Q20.1 6.9 20.55 6.6 L20.6 6.45 Q20.65 6.2 21.0 6.05 21.1 5.8 21.1 5.5 21.1 4.95 23.6 4.45 24.05 4.25 24.55 4.25 L24.65 4.55 Q23.85 4.9 23.25 5.4 L23.3 5.4 23.15 5.5 Q22.75 5.8 22.45 6.2 21.9 6.85 21.4 7.95 20.95 9.1 20.7 9.4 20.25 9.95 19.4 9.95 19.05 9.95 18.7 9.7 18.2 9.4 17.95 9.3 L16.95 9.25 16.85 9.25 Q16.65 9.35 16.4 9.55 16.15 9.7 16.0 9.8 L15.75 10.3 Q15.45 10.85 14.9 11.55 L13.8 12.7 13.4 13.2 12.95 13.75 12.85 13.95 Q12.5 14.55 12.25 15.15 L12.2 15.3 12.1 15.45 Q11.95 15.85 11.95 15.9 L11.9 16.15 Q11.85 16.3 11.85 16.4 11.85 16.8 11.7 17.7 11.6 18.5 11.6 19.05 11.6 20.1 11.2 20.35 L11.0 20.5 10.95 20.65 10.9 20.55 Q10.7 20.7 10.55 20.7 L10.1 20.75 9.8 20.9 Q9.75 21.1 9.6 21.15 L9.35 21.05 Q8.85 21.2 8.25 21.2 L7.3 21.25 Q5.2 21.0 4.7 20.65 4.45 20.45 4.3 20.25 L4.15 20.2 Q3.2 19.35 2.65 18.15 2.55 17.95 2.15 16.65 1.9 16.2 1.8 15.9 1.65 15.3 1.6 14.5 L1.5 13.15 1.55 12.45 1.55 11.75 1.5 11.0 1.4 10.45 1.4 10.15 1.15 10.0 Q1.05 9.95 0.9 9.9 L0.8 9.9 0.35 9.45 Q0.15 9.2 0.05 9.05 L0.0 8.95 -0.25 8.4 -0.35 8.05 -0.4 7.8 -0.45 7.2 -0.35 6.85 -0.25 6.35 Q-0.1 5.65 0.15 5.5 0.25 5.5 0.3 5.45 L0.4 5.4 0.5 5.4 0.55 5.35 Q2.05 4.7 3.1 3.8 3.35 3.6 3.9 2.9 4.25 2.4 4.55 2.15 L4.55 2.1 Q4.85 1.75 5.6 1.3 6.05 1.0 7.05 0.5 7.85 0.1 9.3 0.05 L9.45 0.05 9.95 -0.05 Q10.75 -0.25 11.2 -0.45 M17.2 1.4 Q16.95 2.0 16.65 2.5 15.8 3.85 14.8 3.85 13.15 3.85 12.6 2.4 12.45 1.95 12.4 1.4 L12.4 0.85 Q12.4 0.15 13.2 -0.75 L12.35 -0.1 Q11.75 0.35 11.1 0.65 11.05 0.9 10.9 1.25 10.5 1.8 10.35 2.15 10.15 2.6 9.4 2.9 8.55 3.25 8.2 3.45 L8.15 3.5 Q8.35 3.55 8.5 3.6 9.8 4.15 10.35 4.75 10.9 5.35 10.9 6.3 L10.9 6.35 Q10.9 6.75 10.8 7.35 L10.55 7.7 Q10.4 7.95 10.45 8.25 10.5 8.65 10.4 8.95 L10.6 8.7 11.15 7.85 11.2 7.85 11.25 7.9 11.3 8.05 11.2 8.25 Q11.15 8.4 11.15 8.5 11.15 8.65 10.6 9.35 L9.9 10.25 Q9.5 10.75 9.1 10.95 9.05 11.3 8.7 11.6 8.2 12.1 8.0 12.5 7.8 13.0 7.65 14.25 7.75 14.15 7.9 14.05 8.05 13.95 8.1 13.95 L8.25 13.95 Q8.5 14.0 8.55 14.3 L8.55 14.7 Q8.55 14.9 8.25 15.95 8.0 16.7 7.95 17.35 L7.95 17.8 Q7.95 18.0 8.1 19.35 L8.2 19.7 8.25 20.05 8.3 20.1 Q8.3 20.6 8.45 20.7 L8.65 20.7 9.0 20.6 Q8.8 20.3 8.8 19.9 L8.75 19.25 8.6 18.75 Q8.3 17.9 8.3 17.5 8.3 16.75 8.85 15.15 9.4 13.55 9.8 13.2 11.55 11.75 11.95 11.35 13.25 10.1 13.25 9.35 13.25 9.0 13.55 8.15 L13.8 7.4 13.75 7.3 13.55 7.15 13.4 7.3 Q13.0 7.7 12.85 8.25 12.7 8.8 12.75 9.65 L12.65 9.7 12.6 9.75 12.45 9.7 Q12.4 9.65 12.4 9.45 L12.35 9.45 Q12.0 9.2 11.9 8.15 L11.85 7.75 11.85 7.45 11.85 7.05 Q11.85 6.45 12.3 5.85 12.85 4.95 13.9 4.95 14.7 4.95 15.1 5.45 L15.4 5.95 15.55 6.4 Q15.7 7.1 15.6 7.85 15.6 9.1 14.6 10.3 13.15 11.85 12.15 12.95 11.55 13.65 10.8 15.35 10.05 17.15 10.05 17.95 10.05 19.35 10.35 19.95 L10.4 19.95 10.55 19.85 10.65 19.75 Q10.55 19.5 10.55 19.05 10.55 17.8 11.4 15.65 12.25 13.5 13.1 12.55 14.25 11.25 14.95 10.35 15.0 10.15 15.3 9.9 L15.65 9.35 15.65 9.3 15.75 9.15 15.75 9.1 15.8 8.85 Q15.85 8.6 16.0 8.2 L16.0 8.15 16.05 8.9 16.05 8.95 Q16.15 8.9 16.25 8.85 L16.8 8.75 Q16.9 8.7 16.95 8.7 L17.5 8.75 18.0 8.7 Q18.4 8.7 18.75 9.0 L19.1 9.0 Q19.65 8.75 20.35 8.0 L20.9 7.45 21.0 7.2 Q20.7 7.5 20.05 7.65 L18.9 7.85 18.85 7.85 Q18.65 8.0 18.45 8.0 17.95 8.0 17.75 7.5 L17.7 7.4 17.6 6.75 Q17.6 6.5 17.75 6.3 17.8 5.95 18.05 5.25 18.35 4.35 18.45 4.2 L19.3 2.9 19.55 2.65 19.8 2.5 20.2 2.2 20.75 2.05 20.85 2.05 Q23.3 1.65 24.45 0.35 L24.65 0.05 Q24.8 -0.25 24.85 -0.6 24.8 -1.1 24.55 -1.6 L24.45 -1.65 24.3 -1.8 24.35 -1.9 Q24.0 -2.5 24.0 -2.9 24.0 -3.15 24.45 -3.45 25.05 -3.85 25.85 -3.85 L26.95 -3.7 28.0 -3.6 Q28.95 -3.6 29.1 -4.55 L29.1 -4.85 29.1 -5.25 29.0 -5.05 28.8 -4.75 Q28.55 -4.35 28.15 -4.1 L27.75 -4.0 Q27.65 -3.9 27.5 -3.85 L26.7 -3.9 26.55 -3.9 26.3 -3.95 Q26.1 -4.15 25.6 -4.3 25.15 -4.45 24.55 -4.5 23.85 -4.4 23.35 -4.25 22.9 -4.1 22.75 -3.9 L22.75 -3.8 22.8 -3.6 22.85 -3.35 23.05 -3.05 23.1 -2.95 23.1 -2.9 23.15 -2.9 23.25 -2.7 23.15 -2.65 22.15 -2.15 22.1 -2.1 22.2 -2.05 Q21.95 -1.85 21.5 -1.65 21.1 -1.35 20.75 -1.2 20.45 -1.1 20.0 -1.0 18.95 -0.65 18.7 -0.65 18.2 -0.65 17.8 -0.85 L17.75 -0.95 17.85 -0.95 18.05 -0.9 18.35 -0.9 Q18.15 -0.95 17.8 -1.15 17.6 -1.25 17.5 -1.3 L17.4 -1.4 Q16.8 -1.75 16.45 -1.75 L16.1 -1.75 16.05 -1.65 Q14.8 -1.75 13.75 -0.65 12.9 0.3 12.9 1.05 12.9 1.55 13.25 2.15 L13.25 2.2 Q13.7 3.0 14.5 3.15 L15.1 3.05 15.8 2.9 16.05 2.7 Q15.5 2.95 14.55 2.95 14.05 2.95 13.85 2.65 13.75 2.5 13.75 2.3 13.75 1.75 14.05 1.1 14.15 0.8 14.35 0.55 L14.4 0.4 14.45 0.35 Q15.05 -0.6 15.8 -0.75 16.4 -0.95 16.9 -0.65 17.35 -0.35 17.5 0.2 17.4 0.05 17.05 -0.2 16.7 -0.5 16.5 -0.5 15.1 -0.5 14.55 0.7 14.35 1.1 14.25 1.55 L14.2 1.95 Q14.2 2.3 14.25 2.35 15.15 2.45 15.5 2.2 L15.9 1.9 15.7 1.8 Q15.55 1.7 15.5 1.65 L15.45 1.45 Q15.45 1.4 15.75 1.2 L15.75 1.1 Q15.75 0.85 16.25 0.65 L16.3 0.65 17.4 0.45 17.6 0.45 Q18.5 0.45 18.75 1.4 L18.75 1.45 18.8 1.95 18.8 2.05 18.8 2.4 18.75 2.5 Q18.75 3.05 18.1 3.7 L17.5 4.2 16.5 4.9 Q15.95 5.25 15.8 5.5 L15.8 5.25 Q15.9 4.9 16.2 4.6 16.4 4.3 17.05 3.9 L17.5 3.55 17.8 3.25 Q18.1 2.95 18.25 2.7 18.3 2.5 18.3 2.3 L18.3 1.75 Q18.15 1.45 17.85 1.05 17.7 1.0 17.45 1.0 L17.4 1.0 17.0 1.05 16.85 1.1 16.85 1.45 16.9 1.45 Q17.1 1.15 17.3 1.05 L17.2 1.4 M20.4 1.45 Q20.25 1.3 20.2 1.1 20.1 0.9 20.1 0.8 20.1 0.55 20.45 0.1 L20.6 0.0 Q20.9 -0.3 21.2 -0.35 L21.55 -0.3 21.85 0.0 22.05 0.3 Q22.0 0.4 21.75 0.45 21.35 0.05 21.3 0.05 21.0 0.05 20.75 0.35 L20.4 0.85 20.4 1.15 20.55 1.15 20.65 1.15 Q21.55 1.15 22.7 -0.3 23.3 -1.0 23.85 -1.9 L23.85 -1.9 23.9 -1.7 Q23.9 -1.0 23.0 0.05 22.2 1.0 21.35 1.4 L21.15 1.5 20.6 1.5 20.4 1.5 20.4 1.45 M25.5 -3.35 L25.35 -3.3 25.0 -3.3 Q24.65 -2.95 24.65 -2.7 24.65 -2.65 25.0 -2.25 L25.05 -2.2 25.05 -2.25 25.15 -2.4 Q25.4 -2.55 26.2 -2.55 L26.8 -2.3 27.4 -2.0 Q27.9 -2.0 28.25 -2.15 28.75 -2.5 29.05 -3.1 L29.5 -3.95 29.6 -4.05 29.65 -4.6 29.15 -3.95 29.0 -3.8 Q28.5 -3.2 28.3 -3.1 L27.05 -3.1 27.0 -3.15 26.35 -3.25 25.85 -3.35 25.5 -3.35 M29.7 -5.05 Q29.8 -5.75 30.65 -6.5 L31.0 -6.75 Q31.15 -7.05 31.25 -7.15 L30.6 -6.85 Q30.2 -6.65 29.55 -6.5 L29.45 -6.3 29.55 -5.75 29.55 -5.65 29.65 -5.15 29.7 -4.9 29.7 -5.05 M22.5 5.2 Q21.4 5.4 21.4 5.85 L22.15 5.6 22.5 5.2 M15.65 3.1 L15.2 3.25 14.4 3.4 15.05 3.35 Q15.4 3.25 15.65 3.1 M9.25 19.3 L9.65 20.3 9.8 20.25 10.05 20.15 9.9 19.9 Q9.8 19.6 9.8 19.3 9.7 18.65 9.7 18.0 9.7 17.5 9.95 16.7 L10.2 15.85 Q10.2 14.95 11.0 13.85 11.4 13.2 12.7 11.85 13.95 10.5 14.45 9.8 15.25 8.6 15.25 7.6 15.25 6.75 15.15 6.35 14.95 5.4 14.25 5.3 L14.0 5.25 13.95 5.25 Q13.4 5.3 12.8 6.0 12.2 6.75 12.2 7.05 L12.2 8.25 Q12.2 8.35 12.35 8.75 L12.35 8.7 Q12.45 8.3 12.65 7.85 12.9 7.2 13.3 6.9 13.65 6.6 13.9 6.8 L13.95 6.75 14.1 6.75 Q14.25 7.1 14.25 7.6 L14.2 7.75 14.25 8.15 Q14.25 8.35 13.8 9.3 L13.75 9.4 13.6 9.85 Q13.4 10.25 13.0 10.9 12.5 11.6 12.1 11.95 L11.15 12.75 10.5 13.3 Q9.5 14.4 9.2 15.85 L9.15 16.05 9.1 16.4 Q9.05 17.2 9.05 18.55 9.05 18.7 9.25 19.3 M16.1 9.2 L16.1 9.25 16.15 9.2 16.1 9.2 M19.2 7.6 L19.15 7.6 19.15 7.65 19.3 7.6 19.2 7.6 M11.1 0.15 L11.15 0.35 11.65 -0.15 11.35 0.0 11.05 0.1 11.1 0.15 M10.5 0.85 L10.7 0.7 10.95 0.15 9.8 0.35 Q10.3 0.45 10.6 0.6 10.45 0.75 10.3 0.85 10.0 0.95 9.45 0.95 L8.95 0.9 8.6 0.8 Q7.75 0.95 7.25 1.15 6.85 1.35 6.35 1.7 L5.35 2.45 Q5.05 2.6 4.65 3.1 L6.55 3.05 6.95 3.15 7.35 3.2 7.7 3.2 9.0 2.5 Q9.75 2.1 9.9 1.95 10.25 1.6 10.55 0.95 L10.65 0.8 10.5 0.85 M9.9 8.7 L9.75 8.35 Q9.55 7.95 9.4 7.9 9.5 7.75 9.8 7.45 10.1 7.15 10.15 6.95 10.4 6.4 10.4 5.95 10.4 5.8 10.0 5.2 L9.65 4.7 Q9.3 4.5 8.3 4.05 7.2 3.6 6.8 3.55 L6.75 3.55 4.15 3.75 Q3.45 4.65 2.8 4.95 2.75 4.95 2.8 4.85 L2.85 4.75 2.85 4.7 Q2.6 4.9 2.1 5.1 L1.4 5.55 Q0.9 5.75 0.65 6.0 L0.5 6.2 0.35 6.45 0.15 6.9 Q0.05 7.1 0.05 7.25 0.2 8.05 0.65 8.65 1.3 9.4 2.5 9.95 L2.65 10.05 3.0 10.05 3.1 10.15 3.0 10.2 3.05 10.2 2.95 10.3 2.8 10.3 Q2.5 10.45 2.25 10.45 L1.9 10.4 Q2.15 10.9 2.25 11.5 L2.3 11.9 Q2.35 12.4 2.35 14.0 2.35 14.55 2.45 15.2 2.55 15.65 2.7 16.15 L2.7 16.2 Q2.85 16.7 3.05 17.25 L3.1 17.35 Q3.35 17.95 3.6 18.45 L4.05 19.1 4.15 19.25 4.2 19.3 4.2 19.25 4.4 19.4 5.1 19.85 5.4 20.0 5.95 20.25 6.35 20.4 6.5 20.5 6.65 20.55 6.85 20.6 7.45 20.7 Q7.35 20.5 7.3 20.3 7.3 19.75 7.2 19.45 L7.1 19.05 Q7.3 19.0 7.35 18.6 L7.35 18.0 7.45 18.3 Q7.4 17.8 7.4 17.5 7.4 16.9 7.55 16.4 L7.95 15.15 7.95 14.7 Q7.75 14.9 7.7 15.1 7.65 15.3 7.65 15.55 L7.6 15.6 7.4 15.65 Q7.15 15.65 7.1 15.35 L7.1 15.0 Q7.1 14.75 7.2 14.25 L7.3 13.85 7.4 13.35 7.45 12.7 Q7.4 12.5 7.65 12.2 7.85 11.9 8.15 11.6 L8.4 11.25 Q7.95 11.4 7.3 11.5 6.75 11.35 5.55 10.35 L5.3 10.1 5.25 10.1 4.5 9.4 4.4 9.3 4.1 8.95 4.05 8.9 3.95 8.7 3.9 8.65 3.8 8.45 Q3.65 8.15 3.65 7.75 3.75 7.6 3.85 7.6 3.9 7.6 3.95 7.7 L4.05 7.8 4.1 7.9 Q4.25 8.0 4.45 8.25 L5.15 9.15 Q5.7 9.75 6.0 10.0 6.8 10.6 7.6 10.6 8.7 10.6 9.55 9.9 L9.8 9.3 9.9 9.1 9.95 8.9 9.95 8.75 9.9 8.7 M4.3 11.4 L4.25 11.2 Q4.25 10.1 4.9 10.95 5.25 11.35 5.7 12.15 L6.45 13.25 Q6.8 13.8 6.95 14.1 L7.1 14.45 Q6.4 14.55 5.3 13.25 4.4 12.15 4.3 11.4 M8.05 20.7 L8.0 20.6 8.0 20.7 8.05 20.7 M11.4 17.75 L11.4 17.85 Q11.35 18.05 11.35 18.15 L11.25 18.5 Q11.2 18.75 11.2 18.85 11.2 19.3 11.15 19.8 L11.1 19.85 Q11.25 19.7 11.3 19.35 L11.35 18.7 Q11.35 18.2 11.4 17.75 M8.8 17.7 L8.85 17.3 Q8.8 17.55 8.8 17.7" fill="#111111" fill-rule="evenodd" stroke="none"/>
    <path d="M16.9 1.45 L16.85 1.45 16.9 1.45 M18.8 2.05 L18.8 1.95 18.8 2.05 M14.4 0.4 L14.35 0.55 Q14.15 0.8 14.05 1.1 14.1 0.7 14.4 0.4 M20.2 2.2 L19.8 2.5 Q19.95 2.3 20.05 2.3 L20.15 2.25 20.2 2.2 M11.85 7.45 L11.85 7.75 11.85 7.45 M8.45 20.7 Q8.3 20.6 8.3 20.1 8.35 20.45 8.4 20.7 L8.45 20.7 M8.25 20.05 L8.2 19.7 8.1 19.35 Q7.95 18.0 7.95 17.8 L7.95 17.35 8.05 18.05 8.1 18.75 8.25 20.05 M20.6 1.5 L20.35 1.5 20.4 1.45 20.4 1.5 20.6 1.5 M25.0 -2.25 L25.05 -2.25 25.05 -2.2 25.0 -2.25 M29.65 -5.15 L29.7 -5.05 29.7 -4.9 29.65 -5.15 M15.65 3.1 Q15.4 3.25 15.05 3.35 L14.4 3.4 15.2 3.25 15.65 3.1 M11.1 0.15 L11.05 0.1 11.35 0.0 11.65 -0.15 11.15 0.35 11.1 0.15 M8.05 20.7 L8.0 20.7 8.0 20.6 8.05 20.7 M8.8 17.7 Q8.8 17.55 8.85 17.3 L8.8 17.7" fill="#666666" fill-rule="evenodd" stroke="none"/>
    <path d="M4.5 9.4 Q4.5 9.55 4.6 9.6 L4.55 9.6 4.4 9.3 4.5 9.4" fill="#999999" fill-rule="evenodd" stroke="none"/>
    <path d="M10.9 6.3 Q10.9 5.35 10.35 4.75 9.8 4.15 8.5 3.6 8.35 3.55 8.15 3.5 L8.2 3.45 Q8.55 3.25 9.4 2.9 10.15 2.6 10.35 2.15 10.5 1.8 10.9 1.25 11.05 0.9 11.1 0.65 11.75 0.35 12.35 -0.1 L13.2 -0.75 Q12.4 0.15 12.4 0.85 L12.4 1.4 Q12.45 1.95 12.6 2.4 13.15 3.85 14.8 3.85 15.8 3.85 16.65 2.5 16.95 2.0 17.2 1.4 L17.45 1.4 17.7 1.75 Q17.8 1.85 17.8 2.0 17.8 2.6 17.4 3.05 17.15 3.35 16.1 4.1 L15.95 4.25 15.75 4.25 15.3 4.15 14.7 4.1 Q13.35 4.1 12.1 5.05 11.2 5.7 11.0 6.2 L10.9 6.3 M13.25 2.15 Q12.9 1.55 12.9 1.05 12.9 0.3 13.75 -0.65 14.8 -1.75 16.05 -1.65 L16.1 -1.75 16.45 -1.75 Q16.8 -1.75 17.4 -1.4 L17.5 -1.3 Q17.6 -1.25 17.8 -1.15 18.15 -0.95 18.35 -0.9 L18.05 -0.9 17.85 -0.95 17.75 -0.95 17.8 -0.85 Q18.2 -0.65 18.7 -0.65 18.95 -0.65 20.0 -1.0 20.45 -1.1 20.75 -1.2 21.1 -1.35 21.5 -1.65 21.95 -1.85 22.2 -2.05 L22.1 -2.1 22.15 -2.15 23.15 -2.65 23.35 -2.35 23.3 -2.2 23.2 -1.95 Q22.95 -1.35 22.55 -1.15 L22.15 -0.75 Q21.8 -0.55 20.85 -0.5 20.35 -0.45 19.8 -0.15 L19.05 0.2 18.7 0.15 Q18.35 -0.25 17.85 -0.6 16.85 -1.3 15.95 -1.3 14.35 -1.3 13.6 0.15 13.2 0.95 13.2 1.75 L13.25 2.15 M23.05 -3.05 L22.85 -3.35 22.8 -3.6 22.75 -3.8 22.75 -3.9 Q22.9 -4.1 23.35 -4.25 23.85 -4.4 24.55 -4.5 25.15 -4.45 25.6 -4.3 26.1 -4.15 26.3 -3.95 L26.55 -3.9 26.7 -3.9 27.5 -3.85 Q27.65 -3.9 27.75 -4.0 L28.15 -4.1 Q28.55 -4.35 28.8 -4.75 L29.0 -5.05 29.1 -5.25 29.1 -4.85 Q28.85 -4.75 28.55 -4.35 28.1 -3.75 27.6 -3.75 26.65 -3.75 26.0 -4.0 25.3 -4.2 24.8 -4.2 24.25 -4.2 23.65 -3.75 23.05 -3.35 23.05 -3.05 M17.75 7.5 Q17.95 8.0 18.45 8.0 18.65 8.0 18.85 7.85 L18.9 7.85 20.05 7.65 19.75 8.05 Q19.55 8.35 19.1 8.3 18.7 8.1 17.95 7.9 L17.25 7.75 Q16.8 7.75 16.35 7.9 L16.3 7.65 Q16.15 7.3 16.15 7.05 16.15 6.55 16.3 6.25 16.4 6.05 17.0 5.35 17.25 5.05 17.65 4.8 17.35 5.7 17.35 6.2 17.35 6.5 17.4 6.9 17.55 7.4 17.75 7.5 M12.65 9.7 L12.75 9.65 Q12.7 8.8 12.85 8.25 13.0 7.7 13.4 7.3 L13.4 7.35 13.25 8.1 Q13.1 8.6 13.1 8.85 13.05 9.25 12.75 9.8 L12.7 9.7 12.65 9.7 M8.25 13.95 L8.1 13.95 Q8.05 13.95 7.9 14.05 7.75 14.15 7.65 14.25 7.8 13.0 8.0 12.5 8.2 12.1 8.7 11.6 9.05 11.3 9.1 10.95 9.5 10.75 9.9 10.25 L10.6 9.35 Q11.15 8.65 11.15 8.5 L11.3 8.25 11.5 8.75 11.75 9.25 12.0 9.8 12.2 10.1 Q11.75 10.45 11.5 10.65 L10.45 11.25 Q10.25 11.45 10.05 11.65 L9.75 12.0 Q9.2 12.6 8.75 13.2 8.45 13.6 8.25 13.95 M16.8 -0.1 L16.5 -0.05 Q15.6 0.2 15.2 0.85 14.85 1.35 14.9 1.85 L14.8 1.75 Q14.75 1.65 14.75 1.5 14.75 1.1 15.05 0.6 15.45 0.0 15.9 -0.3 16.5 -0.25 16.8 -0.1 M23.85 -1.9 L23.9 -1.85 24.25 -1.55 24.3 -1.55 24.3 -1.5 Q24.3 -0.95 24.0 -0.3 23.7 0.45 23.2 0.8 22.65 1.15 21.85 1.35 L21.35 1.4 Q22.2 1.0 23.0 0.05 23.9 -1.0 23.9 -1.7 L23.85 -1.9 M21.45 -1.0 L21.45 -0.95 21.8 -0.9 Q22.1 -0.95 22.25 -1.15 22.45 -1.35 22.45 -1.55 L22.45 -1.7 22.4 -1.75 Q22.1 -1.8 21.75 -1.55 21.4 -1.35 21.4 -1.15 21.4 -1.0 21.45 -1.0 M29.0 -3.8 L28.95 -3.55 Q28.75 -2.5 28.25 -2.5 L25.5 -3.35 25.85 -3.35 26.35 -3.25 27.0 -3.15 27.05 -3.1 28.3 -3.1 Q28.5 -3.2 29.0 -3.8 M23.4 0.35 L23.6 0.0 Q23.35 0.0 23.25 0.25 L23.15 0.65 Q23.3 0.6 23.4 0.35 M22.5 5.2 L22.15 5.6 21.4 5.85 Q21.4 5.4 22.5 5.2 M13.95 5.25 L14.3 5.65 Q14.85 6.3 14.85 7.2 14.85 8.65 13.9 10.05 13.0 11.4 11.25 12.7 10.55 13.25 10.15 14.1 10.0 14.5 9.7 15.55 9.35 16.6 9.3 17.0 9.15 17.65 9.15 18.4 L9.25 19.3 Q9.05 18.7 9.05 18.55 9.05 17.2 9.1 16.4 L9.15 16.05 9.2 15.85 Q9.5 14.4 10.5 13.3 L11.15 12.75 12.1 11.95 Q12.5 11.6 13.0 10.9 13.4 10.25 13.6 9.85 L13.75 9.4 13.8 9.3 Q14.25 8.35 14.25 8.15 L14.2 7.75 14.25 7.6 Q14.25 7.1 14.1 6.75 L13.95 6.75 13.9 6.8 Q13.65 6.6 13.3 6.9 12.9 7.2 12.65 7.85 12.45 8.3 12.35 8.7 L12.35 8.75 Q12.2 8.35 12.2 8.25 L12.2 7.05 Q12.2 6.75 12.8 6.0 13.4 5.3 13.95 5.25 M10.5 0.85 L10.65 0.8 10.55 0.95 Q10.25 1.6 9.9 1.95 9.75 2.1 9.0 2.5 L7.7 3.2 7.35 3.2 6.95 3.15 6.55 3.05 4.65 3.1 Q5.05 2.6 5.35 2.45 L6.35 1.7 Q6.85 1.35 7.25 1.15 7.75 0.95 8.6 0.8 L8.95 0.9 9.45 0.95 Q10.0 0.95 10.3 0.85 10.45 0.75 10.6 0.6 10.3 0.45 9.8 0.35 L10.95 0.15 10.7 0.7 10.5 0.85 M0.5 6.2 Q0.65 6.45 0.75 7.1 1.0 7.75 1.5 8.3 2.2 9.0 3.05 9.0 3.6 9.0 3.9 8.65 L3.95 8.7 4.05 8.9 4.1 8.95 4.4 9.3 4.55 9.6 4.6 9.6 Q4.5 9.55 4.5 9.4 L5.25 10.1 5.3 10.1 5.55 10.35 5.8 10.85 6.1 11.4 Q6.3 11.6 6.5 12.0 L6.9 12.65 Q6.9 12.75 6.9 12.55 L6.8 12.4 6.65 12.05 Q6.65 11.95 6.75 11.9 6.9 12.0 7.15 12.4 L7.15 12.9 7.0 12.95 Q7.15 13.2 7.4 13.35 L7.3 13.85 7.2 14.25 6.95 14.1 Q6.8 13.8 6.45 13.25 L5.7 12.15 Q5.25 11.35 4.9 10.95 4.25 10.1 4.25 11.2 L4.3 11.4 4.0 10.75 3.9 10.5 3.8 10.7 Q3.3 10.65 3.05 10.75 2.95 10.8 2.7 11.05 L2.65 11.1 2.6 11.1 Q2.8 10.95 3.1 10.95 L3.2 11.0 3.3 11.1 2.95 11.25 2.85 11.55 2.65 11.9 2.5 11.65 Q2.4 11.55 2.4 11.4 2.4 11.3 2.5 11.25 L2.25 11.5 Q2.15 10.9 1.9 10.4 L2.25 10.45 Q2.5 10.45 2.8 10.3 L2.95 10.3 3.05 10.2 3.0 10.2 3.1 10.15 3.0 10.05 2.65 10.05 2.5 9.95 Q1.3 9.4 0.65 8.65 0.2 8.05 0.05 7.25 0.05 7.1 0.15 6.9 L0.35 6.45 0.5 6.2 M3.85 7.6 Q3.85 7.25 4.05 6.95 4.2 6.55 4.45 6.35 4.75 6.15 4.9 6.3 5.1 6.45 5.1 7.0 5.1 7.15 5.2 7.45 5.3 7.85 5.6 8.2 6.45 9.2 8.25 9.2 9.45 9.2 9.9 8.7 L9.95 8.75 9.95 8.9 9.9 9.1 9.8 9.3 9.55 9.9 Q8.7 10.6 7.6 10.6 6.8 10.6 6.0 10.0 5.7 9.75 5.15 9.15 L4.45 8.25 Q4.25 8.0 4.1 7.9 L4.05 7.8 3.95 7.7 Q3.9 7.6 3.85 7.6 M2.45 15.2 Q2.45 14.75 2.55 13.05 2.6 12.85 2.75 12.5 2.95 12.15 3.2 11.9 3.9 11.25 4.35 12.15 5.05 13.05 5.6 14.35 L5.8 14.85 6.25 15.6 6.3 15.65 6.45 15.95 Q7.0 17.0 7.35 18.0 L7.35 18.6 Q7.3 19.0 7.1 19.05 6.9 18.5 6.5 17.7 5.85 16.55 5.5 16.0 4.9 15.0 4.25 14.3 4.2 14.35 4.05 14.85 3.85 15.4 3.85 15.65 3.85 16.35 4.2 17.05 4.55 17.8 5.05 18.0 L5.2 17.95 Q5.3 17.85 5.3 17.65 5.3 17.5 5.1 17.05 L4.9 16.5 Q4.8 16.55 4.7 16.6 L4.55 16.7 Q4.45 16.6 4.4 16.45 4.35 16.35 4.35 16.05 L5.0 16.05 Q5.45 16.6 5.55 17.0 5.7 17.35 5.7 17.95 5.7 18.15 5.6 18.3 5.5 18.6 5.25 18.65 L4.75 18.65 Q4.1 18.3 3.65 17.25 3.3 16.4 3.3 15.7 3.3 14.0 4.0 13.65 4.35 13.45 4.75 13.75 L4.45 13.05 Q4.2 12.55 4.0 12.3 L3.8 12.15 3.9 12.2 Q3.75 12.1 3.65 12.1 3.35 12.1 3.15 12.45 3.05 12.65 3.05 12.9 L3.0 13.7 2.9 14.55 Q2.9 15.1 3.1 16.0 3.3 16.8 3.45 17.15 3.75 17.7 4.25 18.4 5.0 19.4 5.5 19.4 5.65 19.4 5.9 19.2 L6.2 19.0 Q6.55 19.0 6.65 19.7 6.7 20.0 6.75 20.6 L6.65 20.55 6.5 20.5 6.35 20.4 6.35 20.1 6.3 19.8 6.2 19.55 6.15 19.5 6.0 19.7 Q5.8 19.9 5.5 19.9 L5.1 19.85 4.4 19.4 Q4.15 19.15 3.9 18.75 L3.05 17.25 Q2.85 16.7 2.7 16.2 L2.7 16.15 Q2.55 15.65 2.45 15.2 M11.15 9.9 L11.15 9.75 11.1 9.75 Q10.9 10.0 10.45 10.3 9.95 10.55 9.7 10.7 9.45 10.85 9.1 11.3 8.7 11.75 8.7 11.95 8.7 12.05 8.65 12.2 8.55 12.35 8.55 12.45 8.55 12.55 8.6 12.55 L8.7 12.6 Q8.95 12.35 9.3 11.9 9.7 11.35 9.85 11.25 L10.55 10.6 Q11.15 10.1 11.15 9.9" fill="#666342" fill-rule="evenodd" stroke="none"/>
    <path d="M10.9 6.3 L11.0 6.2 Q11.2 5.7 12.1 5.05 13.35 4.1 14.7 4.1 L15.3 4.15 15.75 4.25 15.95 4.25 16.1 4.1 Q17.15 3.35 17.4 3.05 17.8 2.6 17.8 2.0 17.8 1.85 17.7 1.75 L17.45 1.4 17.2 1.4 17.3 1.05 Q17.1 1.15 16.9 1.45 L16.85 1.45 16.85 1.1 17.0 1.05 17.4 1.0 17.45 1.0 Q17.7 1.0 17.85 1.05 18.15 1.45 18.3 1.75 L18.3 2.3 Q18.3 2.5 18.25 2.7 18.1 2.95 17.8 3.25 L17.5 3.55 17.05 3.9 Q16.4 4.3 16.2 4.6 15.9 4.9 15.8 5.25 L15.8 5.5 Q15.95 5.25 16.5 4.9 L17.5 4.2 18.1 3.7 Q18.75 3.05 18.75 2.5 L18.8 2.4 18.8 2.05 18.8 1.95 18.75 1.45 18.75 1.4 Q18.5 0.45 17.6 0.45 L17.4 0.45 16.3 0.65 16.25 0.65 Q15.75 0.85 15.75 1.1 L15.75 1.2 Q15.45 1.4 15.45 1.45 L15.5 1.65 Q15.55 1.7 15.7 1.8 L15.9 1.9 15.5 2.2 Q15.15 2.45 14.25 2.35 14.2 2.3 14.2 1.95 L14.25 1.55 Q14.35 1.1 14.55 0.7 15.1 -0.5 16.5 -0.5 16.7 -0.5 17.05 -0.2 17.4 0.05 17.5 0.2 17.35 -0.35 16.9 -0.65 16.4 -0.95 15.8 -0.75 15.05 -0.6 14.45 0.35 L14.4 0.4 Q14.1 0.7 14.05 1.1 13.75 1.75 13.75 2.3 13.75 2.5 13.85 2.65 14.05 2.95 14.55 2.95 15.5 2.95 16.05 2.7 L15.8 2.9 15.1 3.05 14.5 3.15 Q13.7 3.0 13.25 2.2 L13.25 2.15 13.2 1.75 Q13.2 0.95 13.6 0.15 14.35 -1.3 15.95 -1.3 16.85 -1.3 17.85 -0.6 18.35 -0.25 18.7 0.15 L19.05 0.2 19.8 -0.15 Q20.35 -0.45 20.85 -0.5 21.8 -0.55 22.15 -0.75 L22.55 -1.15 Q22.95 -1.35 23.2 -1.95 L23.3 -2.2 23.35 -2.35 23.15 -2.65 23.25 -2.7 23.15 -2.9 23.1 -2.9 23.1 -2.95 23.05 -3.05 Q23.05 -3.35 23.65 -3.75 24.25 -4.2 24.8 -4.2 25.3 -4.2 26.0 -4.0 26.65 -3.75 27.6 -3.75 28.1 -3.75 28.55 -4.35 28.85 -4.75 29.1 -4.85 L29.1 -4.55 Q28.95 -3.6 28.0 -3.6 L26.95 -3.7 25.85 -3.85 Q25.05 -3.85 24.45 -3.45 24.0 -3.15 24.0 -2.9 24.0 -2.5 24.35 -1.9 L24.3 -1.8 24.45 -1.65 24.55 -1.6 Q24.8 -1.1 24.85 -0.6 24.8 -0.25 24.65 0.05 L24.45 0.35 Q23.3 1.65 20.85 2.05 L20.75 2.05 20.2 2.2 20.15 2.25 20.05 2.3 Q19.95 2.3 19.8 2.5 L19.55 2.65 19.3 2.9 18.45 4.2 Q18.35 4.35 18.05 5.25 17.8 5.95 17.75 6.3 17.6 6.5 17.6 6.75 L17.7 7.4 17.75 7.5 Q17.55 7.4 17.4 6.9 17.35 6.5 17.35 6.2 17.35 5.7 17.65 4.8 17.25 5.05 17.0 5.35 16.4 6.05 16.3 6.25 16.15 6.55 16.15 7.05 16.15 7.3 16.3 7.65 L16.35 7.9 Q16.8 7.75 17.25 7.75 L17.95 7.9 Q18.7 8.1 19.1 8.3 19.55 8.35 19.75 8.05 L20.05 7.65 Q20.7 7.5 21.0 7.2 L20.9 7.45 20.35 8.0 Q19.65 8.75 19.1 9.0 L18.75 9.0 Q18.4 8.7 18.0 8.7 L17.5 8.75 16.95 8.7 Q16.9 8.7 16.8 8.75 L16.25 8.85 Q16.15 8.9 16.05 8.95 L16.05 8.9 16.0 8.15 16.0 8.2 Q15.85 8.6 15.8 8.85 L15.75 9.1 15.75 9.15 15.65 9.3 15.65 9.35 15.3 9.9 Q15.0 10.15 14.95 10.35 14.25 11.25 13.1 12.55 12.25 13.5 11.4 15.65 10.55 17.8 10.55 19.05 10.55 19.5 10.65 19.75 L10.55 19.85 10.4 19.95 10.35 19.95 Q10.05 19.35 10.05 17.95 10.05 17.15 10.8 15.35 11.55 13.65 12.15 12.95 13.15 11.85 14.6 10.3 15.6 9.1 15.6 7.85 15.7 7.1 15.55 6.4 L15.4 5.95 15.1 5.45 Q14.7 4.95 13.9 4.95 12.85 4.95 12.3 5.85 11.85 6.45 11.85 7.05 L11.85 7.45 11.85 7.75 11.9 8.15 Q12.0 9.2 12.35 9.45 L12.4 9.45 Q12.4 9.65 12.45 9.7 L12.6 9.75 12.65 9.7 12.7 9.7 12.75 9.8 Q13.05 9.25 13.1 8.85 13.1 8.6 13.25 8.1 L13.4 7.35 13.4 7.3 13.55 7.15 13.75 7.3 13.8 7.4 13.55 8.15 Q13.25 9.0 13.25 9.35 13.25 10.1 11.95 11.35 11.55 11.75 9.8 13.2 9.4 13.55 8.85 15.15 8.3 16.75 8.3 17.5 8.3 17.9 8.6 18.75 L8.75 19.25 8.8 19.9 Q8.8 20.3 9.0 20.6 L8.65 20.7 8.45 20.7 8.4 20.7 Q8.35 20.45 8.3 20.1 L8.25 20.05 8.1 18.75 8.05 18.05 7.95 17.35 Q8.0 16.7 8.25 15.95 8.55 14.9 8.55 14.7 L8.55 14.3 Q8.5 14.0 8.25 13.95 8.45 13.6 8.75 13.2 9.2 12.6 9.75 12.0 L10.05 11.65 Q10.25 11.45 10.45 11.25 L11.5 10.65 Q11.75 10.45 12.2 10.1 L12.0 9.8 11.75 9.25 11.5 8.75 11.3 8.25 11.15 8.5 Q11.15 8.4 11.2 8.25 L11.3 8.05 11.25 7.9 11.2 7.85 11.15 7.85 10.6 8.7 10.4 8.95 Q10.5 8.65 10.45 8.25 10.4 7.95 10.55 7.7 L10.8 7.35 Q10.9 6.75 10.9 6.35 L10.9 6.3 M16.8 -0.1 Q16.5 -0.25 15.9 -0.3 15.45 0.0 15.05 0.6 14.75 1.1 14.75 1.5 14.75 1.65 14.8 1.75 L14.9 1.85 Q14.85 1.35 15.2 0.85 15.6 0.2 16.5 -0.05 L16.8 -0.1 M20.55 1.15 L20.4 1.15 20.4 0.85 20.75 0.35 Q21.0 0.05 21.3 0.05 21.35 0.05 21.75 0.45 22.0 0.4 22.05 0.3 L21.85 0.0 21.55 -0.3 21.2 -0.35 Q20.9 -0.3 20.6 0.0 L20.45 0.1 Q20.1 0.55 20.1 0.8 20.1 0.9 20.2 1.1 20.25 1.3 20.4 1.45 L20.35 1.5 20.6 1.5 21.15 1.5 21.35 1.4 21.85 1.35 Q22.65 1.15 23.2 0.8 23.7 0.45 24.0 -0.3 24.3 -0.95 24.3 -1.5 L24.3 -1.55 24.25 -1.55 23.9 -1.85 23.85 -1.9 23.85 -1.9 Q23.3 -1.0 22.7 -0.3 21.55 1.15 20.65 1.15 L20.55 1.15 M25.0 -2.25 Q24.65 -2.65 24.65 -2.7 24.65 -2.95 25.0 -3.3 L25.35 -3.3 25.5 -3.35 28.25 -2.5 Q28.75 -2.5 28.95 -3.55 L29.0 -3.8 29.15 -3.95 29.65 -4.6 29.6 -4.05 29.5 -3.95 29.05 -3.1 Q28.75 -2.5 28.25 -2.15 27.9 -2.0 27.4 -2.0 L26.8 -2.3 26.2 -2.55 Q25.4 -2.55 25.15 -2.4 L25.05 -2.25 25.0 -2.25 M29.65 -5.15 L29.55 -5.65 29.55 -5.75 29.45 -6.3 29.55 -6.5 Q30.2 -6.65 30.6 -6.85 L31.25 -7.15 Q31.15 -7.05 31.0 -6.75 L30.65 -6.5 Q29.8 -5.75 29.7 -5.05 L29.65 -5.15 M13.95 5.25 L14.0 5.25 14.25 5.3 Q14.95 5.4 15.15 6.35 15.25 6.75 15.25 7.6 15.25 8.6 14.45 9.8 13.95 10.5 12.7 11.85 11.4 13.2 11.0 13.85 10.2 14.95 10.2 15.85 L9.95 16.7 Q9.7 17.5 9.7 18.0 9.7 18.65 9.8 19.3 9.8 19.6 9.9 19.9 L10.05 20.15 9.8 20.25 9.65 20.3 9.25 19.3 9.15 18.4 Q9.15 17.65 9.3 17.0 9.35 16.6 9.7 15.55 10.0 14.5 10.15 14.1 10.55 13.25 11.25 12.7 13.0 11.4 13.9 10.05 14.85 8.65 14.85 7.2 14.85 6.3 14.3 5.65 L13.95 5.25" fill="#333121" fill-rule="evenodd" stroke="none"/>
    <path d="M0.5 6.2 L0.65 6.0 Q0.9 5.75 1.4 5.55 L2.1 5.1 Q2.6 4.9 2.85 4.7 L2.85 4.75 2.8 4.85 Q2.75 4.95 2.8 4.95 3.45 4.65 4.15 3.75 L6.75 3.55 6.8 3.55 Q7.2 3.6 8.3 4.05 9.3 4.5 9.65 4.7 L10.0 5.2 Q10.4 5.8 10.4 5.95 10.4 6.4 10.15 6.95 10.1 7.15 9.8 7.45 9.5 7.75 9.4 7.9 9.55 7.95 9.75 8.35 L9.9 8.7 Q9.45 9.2 8.25 9.2 6.45 9.2 5.6 8.2 5.3 7.85 5.2 7.45 5.1 7.15 5.1 7.0 5.1 6.45 4.9 6.3 4.75 6.15 4.45 6.35 4.2 6.55 4.05 6.95 3.85 7.25 3.85 7.6 3.75 7.6 3.65 7.75 3.65 8.15 3.8 8.45 L3.9 8.65 Q3.6 9.0 3.05 9.0 2.2 9.0 1.5 8.3 1.0 7.75 0.75 7.1 0.65 6.45 0.5 6.2 M2.25 11.5 L2.5 11.25 Q2.4 11.3 2.4 11.4 2.4 11.55 2.5 11.65 L2.65 11.9 2.85 11.55 2.95 11.25 3.3 11.1 3.2 11.0 3.1 10.95 Q2.8 10.95 2.6 11.1 L2.65 11.1 2.7 11.05 Q2.95 10.8 3.05 10.75 3.3 10.65 3.8 10.7 L3.9 10.5 4.0 10.75 4.3 11.4 Q4.4 12.15 5.3 13.25 6.4 14.55 7.1 14.45 L6.95 14.1 7.2 14.25 Q7.1 14.75 7.1 15.0 L7.1 15.35 Q7.15 15.65 7.4 15.65 L7.6 15.6 7.65 15.55 Q7.65 15.3 7.7 15.1 7.75 14.9 7.95 14.7 L7.95 15.15 7.55 16.4 Q7.4 16.9 7.4 17.5 7.4 17.8 7.45 18.3 L7.35 18.0 Q7.0 17.0 6.45 15.95 L6.3 15.65 6.25 15.6 5.8 14.85 5.6 14.35 Q5.05 13.05 4.35 12.15 3.9 11.25 3.2 11.9 2.95 12.15 2.75 12.5 2.6 12.85 2.55 13.05 2.45 14.75 2.45 15.2 2.35 14.55 2.35 14.0 2.35 12.4 2.3 11.9 L2.25 11.5 M7.4 13.35 Q7.15 13.2 7.0 12.95 L7.15 12.9 7.15 12.4 Q6.9 12.0 6.75 11.9 6.65 11.95 6.65 12.05 L6.8 12.4 6.9 12.55 Q6.9 12.75 6.9 12.65 L6.5 12.0 Q6.3 11.6 6.1 11.4 L5.8 10.85 5.55 10.35 Q6.75 11.35 7.3 11.5 7.95 11.4 8.4 11.25 L8.15 11.6 Q7.85 11.9 7.65 12.2 7.4 12.5 7.45 12.7 L7.4 13.35 M6.65 20.55 L6.75 20.6 Q6.7 20.0 6.65 19.7 6.55 19.0 6.2 19.0 L5.9 19.2 Q5.65 19.4 5.5 19.4 5.0 19.4 4.25 18.4 3.75 17.7 3.45 17.15 3.3 16.8 3.1 16.0 2.9 15.1 2.9 14.55 L3.0 13.7 3.05 12.9 Q3.05 12.65 3.15 12.45 3.35 12.1 3.65 12.1 3.75 12.1 3.9 12.2 L3.8 12.15 4.0 12.3 Q4.2 12.55 4.45 13.05 L4.75 13.75 Q4.35 13.45 4.0 13.65 3.3 14.0 3.3 15.7 3.3 16.4 3.65 17.25 4.1 18.3 4.75 18.65 L5.25 18.65 Q5.5 18.6 5.6 18.3 5.7 18.15 5.7 17.95 5.7 17.35 5.55 17.0 5.45 16.6 5.0 16.05 L4.35 16.05 Q4.35 16.35 4.4 16.45 4.45 16.6 4.55 16.7 L4.7 16.6 Q4.8 16.55 4.9 16.5 L5.1 17.05 Q5.3 17.5 5.3 17.65 5.3 17.85 5.2 17.95 L5.05 18.0 Q4.55 17.8 4.2 17.05 3.85 16.35 3.85 15.65 3.85 15.4 4.05 14.85 4.2 14.35 4.25 14.3 4.9 15.0 5.5 16.0 5.85 16.55 6.5 17.7 6.9 18.5 7.1 19.05 L7.2 19.45 Q7.3 19.75 7.3 20.3 7.35 20.5 7.45 20.7 L6.85 20.6 6.65 20.55 M6.35 20.4 L5.95 20.25 5.4 20.0 5.1 19.85 5.5 19.9 Q5.8 19.9 6.0 19.7 L6.15 19.5 6.2 19.55 6.3 19.8 6.35 20.1 6.35 20.4 M4.4 19.4 L4.2 19.25 4.2 19.3 4.15 19.25 4.05 19.1 3.6 18.45 Q3.35 17.95 3.1 17.35 L3.05 17.25 3.9 18.75 Q4.15 19.15 4.4 19.4" fill="#a6a26c" fill-rule="evenodd" stroke="none"/>
    <path d="M21.45 -1.0 Q21.4 -1.0 21.4 -1.15 21.4 -1.35 21.75 -1.55 22.1 -1.8 22.4 -1.75 L22.45 -1.7 22.45 -1.55 Q22.45 -1.35 22.25 -1.15 22.1 -0.95 21.8 -0.9 L21.45 -0.95 21.45 -1.0 M23.4 0.35 Q23.3 0.6 23.15 0.65 L23.25 0.25 Q23.35 0.0 23.6 0.0 L23.4 0.35 M11.15 9.9 Q11.15 10.1 10.55 10.6 L9.85 11.25 Q9.7 11.35 9.3 11.9 8.95 12.35 8.7 12.6 L8.6 12.55 Q8.55 12.55 8.55 12.45 8.55 12.35 8.65 12.2 8.7 12.05 8.7 11.95 8.7 11.75 9.1 11.3 9.45 10.85 9.7 10.7 9.95 10.55 10.45 10.3 10.9 10.0 11.1 9.75 L11.15 9.75 11.15 9.9" fill="#a7a36e" fill-rule="evenodd" stroke="none"/>
  </g>
</svg>
