<?xml version="1.0" encoding="UTF-8" standalone="no"?>
<svg xmlns:ffdec="https://www.free-decompiler.com/flash" xmlns:xlink="http://www.w3.org/1999/xlink" ffdec:objectType="shape" height="23.25px" width="18.75px" xmlns="http://www.w3.org/2000/svg">
  <g transform="matrix(1.0, 0.0, 0.0, 1.0, 0.8, 0.8)">
    <path d="M11.15 -0.55 L10.95 -0.8 Q13.75 0.6 15.9 4.35 16.8 6.0 17.35 7.65 17.6 8.45 17.7 9.2 L17.9 8.95 17.95 9.45 17.8 9.7 17.8 9.85 Q17.5 10.2 17.2 10.65 L17.2 10.5 Q15.95 12.25 15.15 13.5 11.75 18.6 11.75 20.7 11.75 21.0 11.5 21.85 L11.45 21.95 11.4 21.95 10.95 22.25 Q10.7 22.45 10.35 22.45 7.65 22.45 5.9 20.55 3.55 20.4 2.05 18.35 1.45 17.55 1.1 16.6 0.85 15.9 0.8 15.45 0.2 14.95 -0.1 14.35 -0.35 13.75 -0.35 12.9 -0.35 11.75 -0.25 11.4 -0.1 11.05 0.35 10.5 -0.45 10.3 -0.7 9.3 -0.8 8.9 -0.8 8.45 L-0.8 8.05 Q-0.8 6.9 -0.5 6.2 -0.25 5.6 0.3 5.1 0.2 4.95 0.2 4.9 0.2 4.35 0.85 4.7 L1.1 4.55 1.15 4.55 Q1.7 3.55 2.85 2.55 4.2 1.3 6.15 0.45 7.9 -0.4 9.4 -0.6 10.55 -0.8 11.15 -0.55 M11.7 0.1 L11.65 0.05 11.5 0.05 11.45 0.05 11.2 0.05 Q11.35 0.1 11.45 0.25 11.6 0.5 11.7 1.0 11.75 1.5 11.75 2.45 L11.75 2.7 11.75 2.9 Q11.65 3.55 11.3 4.4 L11.3 4.45 10.9 5.25 10.85 5.3 10.75 5.4 10.85 5.4 Q11.15 5.45 11.35 5.55 L11.35 5.45 Q11.35 4.15 11.9 3.05 12.45 1.95 13.25 2.15 L13.0 1.8 12.9 1.6 11.85 0.3 11.7 0.1 M12.3 3.2 L12.25 3.2 Q12.1 3.55 12.0 4.05 11.85 4.7 11.7 5.7 L11.75 5.7 Q12.1 5.9 12.3 6.4 12.4 6.75 12.4 7.75 12.4 8.05 12.15 8.75 11.9 9.4 11.55 10.0 L11.35 10.3 11.35 10.35 11.3 10.4 Q12.35 11.4 12.65 12.15 13.0 12.85 13.0 14.45 L12.95 15.5 13.2 15.0 Q14.8 12.3 17.05 9.9 16.85 9.1 16.55 8.35 L16.4 7.95 16.35 7.85 16.2 7.4 Q15.9 6.7 15.55 6.0 14.7 4.25 13.5 2.5 L13.45 2.45 13.35 2.3 13.2 2.3 13.05 2.35 Q12.6 2.55 12.3 3.2 M15.25 9.0 Q15.65 9.15 15.65 9.75 15.65 10.05 15.6 10.2 L15.3 10.85 Q15.2 10.75 15.0 10.2 14.8 9.6 14.8 9.45 L14.8 9.35 Q14.8 9.15 14.9 9.05 L15.0 9.0 15.05 8.95 15.25 9.0 M14.25 9.95 L14.3 10.05 14.3 10.1 Q14.55 10.55 14.55 11.15 14.55 11.45 14.4 11.85 14.2 12.45 13.85 12.45 L13.65 12.4 13.65 12.35 13.6 12.3 Q13.55 12.3 13.55 12.15 13.55 12.05 13.7 11.75 13.85 11.4 13.85 11.25 L13.55 10.1 Q13.45 9.75 13.4 9.7 13.65 9.6 13.85 9.65 14.1 9.7 14.25 9.95 M11.75 7.55 L11.75 7.15 11.55 6.55 11.5 6.4 11.25 5.95 10.85 5.9 10.5 5.9 Q10.25 5.9 9.15 6.2 L8.65 6.3 8.55 6.35 8.4 6.4 7.35 6.7 Q10.35 6.3 10.35 7.6 10.35 7.85 10.2 8.45 L10.15 8.65 10.1 9.0 10.05 9.1 10.05 9.2 10.0 9.25 9.8 9.9 9.75 10.0 Q9.45 10.75 9.05 11.2 10.05 10.7 10.7 9.9 L11.65 8.1 11.65 8.0 11.75 7.55 M12.25 12.9 L12.1 12.4 12.05 12.35 12.05 12.3 11.35 11.0 11.15 10.65 10.7 11.15 10.9 11.45 Q11.4 12.2 11.6 12.9 L11.65 13.0 11.75 13.3 11.8 13.45 11.8 13.6 11.95 14.6 11.95 15.25 Q11.95 16.3 11.75 17.1 12.35 15.75 12.35 14.4 L12.35 13.45 12.3 13.3 12.25 12.9 M11.05 0.1 Q7.3 0.4 4.9 2.0 4.0 2.6 2.85 3.65 L1.3 5.1 1.7 5.4 Q2.45 6.05 3.8 7.45 4.0 7.25 4.9 6.8 6.15 6.25 7.5 5.85 9.05 5.45 10.1 5.4 L10.6 4.45 Q11.35 3.05 11.35 1.8 11.35 1.5 11.2 0.9 11.1 0.35 11.05 0.1 M8.4 7.0 L7.5 6.95 7.5 7.0 Q6.2 7.1 5.75 7.25 5.25 7.4 4.75 7.4 L4.85 7.5 4.5 7.55 3.95 7.75 3.9 9.35 3.9 9.45 Q3.9 9.65 3.95 9.8 4.55 9.95 5.15 10.25 5.7 10.55 6.75 11.35 L6.85 11.45 Q7.15 11.6 7.4 11.8 L7.8 11.7 Q8.4 11.25 9.05 10.25 10.05 8.75 10.05 7.9 10.05 7.65 9.85 7.4 L9.75 7.25 9.65 7.15 9.45 7.05 Q9.3 7.0 9.05 7.0 L8.4 7.0 M0.95 5.8 L0.75 5.6 0.65 5.5 0.55 5.7 0.5 5.8 0.45 5.8 0.35 6.0 Q0.25 6.25 0.15 6.45 L-0.1 7.15 Q0.3 6.6 1.1 6.5 L1.45 6.45 1.65 6.45 1.55 6.35 0.95 5.8 M3.25 7.55 Q2.85 7.4 2.35 7.05 L2.2 6.95 Q1.9 6.8 1.5 6.8 0.3 6.8 -0.15 7.75 L-0.2 7.9 -0.2 8.0 Q-0.2 8.6 0.0 8.9 0.35 9.35 0.65 9.85 L0.7 9.8 Q1.2 9.35 1.85 9.35 2.85 9.35 3.2 9.6 L3.35 9.7 3.55 9.75 3.6 9.75 3.6 9.6 3.55 9.5 Q3.45 8.65 3.45 8.3 3.45 7.9 3.65 7.7 L3.25 7.55 M11.45 15.1 L11.5 14.9 11.5 14.8 Q11.4 14.15 11.0 12.9 L10.75 12.1 10.45 11.45 Q9.45 12.45 8.25 12.5 L8.0 12.55 7.8 12.5 Q7.65 12.45 7.5 12.4 L7.05 12.15 6.25 11.65 Q5.2 11.35 4.85 11.2 4.15 10.95 3.9 10.65 3.8 10.5 3.7 10.3 3.3 10.15 2.95 10.05 L2.95 10.0 2.4 9.95 Q1.45 9.95 1.0 10.25 L0.9 10.3 0.85 10.45 Q0.8 10.5 0.65 10.5 L0.6 10.55 0.55 10.7 0.5 10.75 0.4 11.0 0.4 11.05 Q0.1 11.65 0.1 12.1 0.1 13.3 0.4 13.95 L0.6 14.35 0.65 14.45 0.7 14.2 1.25 13.05 1.35 12.9 Q1.65 12.6 2.05 12.35 2.0 12.35 2.0 12.15 2.0 11.75 2.55 11.7 L3.0 11.7 2.95 11.45 Q2.95 11.3 3.0 11.25 L3.05 11.25 Q5.35 13.7 10.45 18.45 L10.95 17.0 Q11.3 16.0 11.4 15.45 L11.45 15.25 11.5 15.1 11.45 15.1 M1.6 13.55 Q1.4 13.8 1.3 14.05 1.45 15.95 2.25 17.35 3.3 19.05 5.3 19.85 4.9 19.25 4.55 18.55 3.85 17.2 3.45 15.45 3.2 14.15 3.2 13.1 3.2 12.75 3.25 12.45 L3.2 12.45 2.7 12.4 Q2.0 12.95 1.6 13.55 M3.6 12.85 Q3.85 16.25 5.95 18.85 6.95 20.15 8.2 20.9 9.35 21.65 10.45 21.65 10.65 21.65 10.95 20.4 10.95 20.0 10.7 19.65 L10.5 19.35 Q10.0 18.95 8.8 17.7 6.8 15.65 6.4 15.4 5.25 14.6 4.2 13.55 L3.6 12.85 M11.2 19.35 L11.25 19.5 11.35 19.3 11.2 19.35" fill="#111111" fill-rule="evenodd" stroke="none"/>
    <path d="M16.55 8.35 L16.4 8.3 16.4 7.95 16.55 8.35 M16.2 7.4 Q16.05 7.55 15.85 8.1 15.6 8.55 15.25 9.0 L15.05 8.95 Q14.65 8.35 14.1 8.35 L14.1 8.6 Q14.1 8.8 14.35 9.75 L14.15 9.85 14.25 9.95 Q14.1 9.7 13.85 9.65 13.6 9.15 13.1 9.0 L13.0 9.35 Q12.95 9.55 12.95 9.65 12.95 9.75 13.05 10.15 L13.0 10.15 12.85 10.05 Q12.7 9.95 12.45 9.95 L12.25 9.95 12.45 9.25 Q12.55 8.75 12.6 8.1 L12.65 7.6 Q12.65 7.3 12.05 5.45 12.05 5.25 12.2 4.7 12.35 4.15 12.45 3.95 12.85 3.05 13.3 2.65 L13.5 2.5 Q14.7 4.25 15.55 6.0 15.9 6.7 16.2 7.4 M13.05 2.35 Q12.65 2.6 12.3 3.2 12.6 2.55 13.05 2.35 M13.7 6.7 Q13.65 7.0 13.6 7.25 L13.65 7.2 Q13.8 7.0 13.8 6.7 L13.8 6.2 Q13.8 5.55 13.7 5.3 L13.65 5.3 13.65 5.4 Q13.55 6.2 13.5 7.1 L13.6 7.05 13.7 6.7 M13.35 2.9 L13.3 3.0 Q13.3 3.2 14.25 4.95 15.3 6.95 15.5 7.4 L15.55 7.35 15.6 7.15 15.5 6.75 Q15.4 6.35 15.4 6.25 15.4 5.5 14.75 4.55 L13.45 2.9 13.35 2.9 M11.05 0.1 Q11.1 0.35 11.2 0.9 11.35 1.5 11.35 1.8 11.35 3.05 10.6 4.45 L10.1 5.4 Q9.05 5.45 7.5 5.85 6.15 6.25 4.9 6.8 4.0 7.25 3.8 7.45 2.45 6.05 1.7 5.4 L1.3 5.1 2.85 3.65 Q4.0 2.6 4.9 2.0 7.3 0.4 11.05 0.1 M8.4 7.0 L9.05 7.0 Q9.3 7.0 9.45 7.05 L8.4 7.0 M9.65 7.15 L9.75 7.25 9.65 7.5 9.65 7.4 Q9.6 7.35 9.65 7.2 L9.65 7.15 M3.9 9.35 L3.95 7.75 4.5 7.55 4.85 7.5 5.5 7.5 Q5.8 7.4 5.95 7.4 6.05 7.4 6.1 7.45 6.15 7.5 6.25 7.5 L6.65 7.45 7.5 7.35 8.85 7.25 Q9.05 7.25 9.25 7.4 9.45 7.6 9.55 7.6 L9.6 7.6 Q9.35 8.15 9.0 8.6 7.85 10.2 5.9 10.2 4.3 10.2 3.9 9.35 M1.45 7.0 Q1.4 7.0 1.3 7.05 1.2 7.1 1.1 7.25 1.95 7.6 2.0 7.6 L2.0 7.55 Q2.0 7.35 1.85 7.2 1.65 7.0 1.45 7.0 M-0.2 7.9 L-0.15 7.75 Q0.3 6.8 1.5 6.8 1.9 6.8 2.2 6.95 L2.35 7.05 Q2.85 7.4 3.25 7.55 L3.05 7.75 Q2.25 8.6 1.5 8.9 1.4 8.6 0.95 8.2 0.5 7.7 0.45 7.5 L0.4 7.55 Q0.35 7.6 0.35 7.7 0.35 7.8 0.45 7.95 L0.4 7.95 Q0.5 8.05 0.6 8.3 0.7 8.6 0.95 8.65 L0.95 8.55 Q0.85 8.5 0.7 8.3 L1.35 8.95 0.75 9.0 Q0.4 9.0 -0.05 8.2 L-0.2 7.9 M3.6 9.6 L3.6 9.75 3.55 9.75 3.6 9.6 M5.55 8.85 L5.6 8.7 5.6 8.65 Q5.55 8.7 5.5 8.7 5.5 8.75 5.5 8.85 5.5 9.55 6.05 9.55 L6.2 9.5 6.2 9.45 Q6.05 9.4 5.95 9.35 6.05 9.3 6.15 9.2 6.25 9.1 6.25 8.95 6.25 8.6 5.9 8.65 5.6 8.65 5.55 8.85 M2.9 8.35 L2.85 8.55 Q2.8 8.75 2.7 8.85 2.5 9.1 1.85 9.1 L2.35 8.8 2.9 8.35 M1.7 9.15 L1.4 9.15 1.45 9.1 Q1.7 9.0 2.3 8.65 L2.75 8.4 2.3 8.65 1.7 9.15 M0.55 10.7 L0.6 10.55 0.65 10.5 Q0.8 10.5 0.85 10.45 L0.9 10.3 1.0 10.25 Q1.45 9.95 2.4 9.95 L2.95 10.0 2.95 10.05 Q3.3 10.15 3.7 10.3 3.8 10.5 3.9 10.65 4.15 10.95 4.85 11.2 5.2 11.35 6.25 11.65 L7.05 12.15 7.5 12.4 Q7.65 12.45 7.8 12.5 L8.0 12.55 8.25 12.5 Q9.45 12.45 10.45 11.45 L10.75 12.1 11.0 12.9 Q11.4 14.15 11.5 14.8 L11.5 14.9 11.45 15.1 11.2 15.2 Q10.3 15.55 9.6 15.55 8.7 15.55 7.5 14.9 L6.5 13.85 Q5.15 12.4 4.6 11.9 3.75 11.1 3.3 11.0 L3.35 11.0 3.35 10.95 3.25 10.95 3.3 11.0 3.15 11.0 Q2.35 11.0 1.8 11.7 L1.4 12.15 Q1.2 12.4 0.95 12.4 0.75 12.4 0.4 11.35 0.4 11.25 0.5 11.1 L0.55 10.9 0.55 10.7 M0.7 14.2 L0.65 14.45 0.6 14.35 0.7 14.3 0.7 14.2 M2.0 10.3 Q2.0 10.5 2.05 10.4 L2.25 10.5 2.45 10.55 Q2.65 10.55 2.7 10.35 L2.55 10.2 Q2.45 10.1 2.3 10.1 2.0 10.1 2.0 10.3 M2.1 13.95 Q2.4 13.35 2.7 13.1 L3.2 14.9 Q3.7 16.75 3.7 17.2 3.7 17.45 3.1 17.85 L2.35 16.5 Q1.8 15.45 1.8 15.0 1.8 14.6 2.1 13.95 M5.35 11.45 L5.35 11.5 6.45 12.4 Q7.65 13.3 8.45 13.3 L8.9 13.15 9.35 12.95 Q9.3 13.15 9.55 13.25 9.75 13.35 9.95 13.35 10.05 13.35 10.15 13.3 10.15 13.4 10.25 13.45 10.35 13.45 10.4 13.3 10.3 13.25 10.2 13.25 L10.2 13.2 Q10.3 13.05 10.3 12.95 10.3 12.8 10.2 12.7 10.05 12.5 9.65 12.5 9.45 12.5 8.9 12.8 8.4 13.05 8.25 13.05 7.65 13.05 6.5 12.3 L5.35 11.45 M9.2 9.0 L9.1 9.45 Q9.0 9.8 8.85 10.05 8.35 10.85 7.15 10.85 L6.7 10.8 6.25 10.7 6.3 10.65 Q7.4 10.4 8.2 9.9 8.75 9.55 9.2 9.0 M7.25 8.75 Q6.9 8.9 6.65 8.95 L6.85 8.95 Q7.35 8.95 8.0 8.4 7.9 8.35 7.7 8.45 L7.85 8.25 Q7.65 8.25 7.25 8.4 6.9 8.6 6.7 8.75 6.75 8.8 6.85 8.85 L7.25 8.75 M8.6 14.7 L8.55 14.7 8.5 14.65 8.5 14.8 Q8.5 14.9 8.75 14.95 L8.85 14.85 Q9.0 14.75 9.15 14.45 9.3 14.1 9.25 13.95 9.15 13.95 8.9 14.25 8.6 14.55 8.6 14.7 M10.55 16.25 L10.1 16.35 9.55 16.4 9.45 16.4 Q10.0 16.4 10.65 16.15 L10.55 16.25 M9.3 16.4 L9.25 16.4 9.3 16.45 9.2 16.35 9.3 16.4 M9.5 16.55 L10.25 16.55 Q10.05 16.7 9.95 16.7 9.75 16.7 9.5 16.55 M6.95 16.35 L8.0 17.2 Q8.5 17.6 8.9 18.0 L9.15 18.65 Q9.35 19.2 9.35 19.55 9.35 19.85 8.65 20.15 8.4 20.3 8.2 20.4 7.85 20.1 7.4 19.5 7.5 19.25 7.7 18.75 L7.95 18.05 8.0 17.75 8.05 17.6 8.0 17.55 8.05 17.45 8.0 17.5 8.0 17.45 Q7.7 17.8 7.4 18.45 7.25 18.85 7.2 19.2 6.9 18.75 6.55 18.25 5.3 16.3 4.45 14.5 L5.65 15.4 5.35 15.2 5.3 15.3 6.4 16.3 Q7.15 17.0 7.75 17.25 7.5 16.85 6.95 16.35 M9.6 18.75 Q9.9 19.15 10.05 19.45 L9.7 18.85 9.6 18.75 M9.85 20.4 Q10.1 19.9 10.1 19.6 10.25 19.9 10.25 20.2 10.25 20.4 10.0 20.55 L9.75 20.65 9.85 20.4 M2.9 16.4 L3.05 16.35 Q3.1 16.4 3.1 16.2 L3.05 16.05 3.05 16.0 Q2.8 15.95 2.7 16.05 L2.65 16.15 2.6 15.95 2.5 15.95 2.5 16.15 Q2.5 16.2 2.55 16.25 L2.8 16.5 2.9 16.4 M2.65 14.45 L2.65 14.25 Q2.6 14.0 2.4 14.0 2.2 14.0 2.2 14.25 L2.2 14.35 Q2.25 14.5 2.45 14.5 L2.6 14.5 2.65 14.45 M3.45 18.4 L3.6 18.25 3.8 17.95 3.8 17.9 3.8 17.85 3.85 17.85 3.85 18.4 Q3.9 18.7 3.95 18.95 L3.9 18.95 3.65 18.65 3.45 18.4 M3.4 18.3 L3.35 18.3 3.4 18.3" fill="#4c9999" fill-rule="evenodd" stroke="none"/>
    <path d="M11.5 0.05 L11.65 0.05 11.7 0.1 11.5 0.05 M10.85 5.4 L10.75 5.4 10.85 5.3 10.85 5.4 M11.75 2.7 L11.75 2.45 Q11.85 2.2 11.9 1.85 L11.95 1.0 11.9 0.9 Q12.55 1.4 12.85 1.65 12.55 1.75 12.2 2.1 L11.75 2.55 11.75 2.7 M11.45 0.25 Q11.35 0.1 11.2 0.05 L11.45 0.05 11.45 0.25 M9.15 6.2 Q9.2 6.25 9.45 6.25 L9.8 6.2 10.1 6.15 10.5 6.05 Q10.95 6.05 11.3 6.7 11.6 7.2 11.6 7.5 L11.6 7.7 11.65 7.7 11.75 7.55 11.65 8.0 Q11.3 8.1 10.65 8.45 L10.8 7.85 Q10.8 7.35 10.4 6.9 9.8 6.25 8.65 6.3 L9.15 6.2 M11.55 6.55 L11.5 6.4 11.15 6.1 10.85 5.9 11.25 5.95 11.5 6.4 11.55 6.55 M12.05 12.3 L11.95 12.4 11.6 12.9 Q11.4 12.2 10.9 11.45 L11.15 11.3 Q11.1 11.4 11.1 11.5 L11.1 11.65 11.2 11.7 Q11.35 11.6 11.45 11.8 11.55 12.05 11.6 12.1 11.65 12.1 11.65 12.05 11.65 12.1 11.65 11.95 11.65 11.75 11.55 11.55 11.4 11.3 11.25 11.2 L11.35 11.0 12.05 12.3 M11.75 13.3 L11.8 13.45 11.75 13.3 M12.15 13.05 L12.25 12.9 12.15 13.05 M12.3 13.3 L12.35 13.45 11.95 14.6 11.8 13.6 11.95 13.65 12.3 13.3 M10.1 9.0 L10.1 9.05 10.35 8.9 10.45 8.85 10.35 8.9 Q10.15 9.0 10.05 9.1 L10.1 9.0 M11.3 8.55 Q10.8 9.25 9.8 9.85 L9.8 9.9 10.0 9.25 10.1 9.25 Q10.3 9.2 10.9 8.8 L11.3 8.55 M0.75 5.6 L0.7 5.55 0.55 5.7 0.65 5.5 0.75 5.6 M0.35 6.0 L0.95 5.8 1.55 6.35 1.65 6.45 1.45 6.45 Q0.7 6.05 0.15 6.45 0.25 6.25 0.35 6.0" fill="#9a9560" fill-rule="evenodd" stroke="none"/>
    <path d="M12.9 1.6 L13.0 1.8 13.25 2.15 Q12.45 1.95 11.9 3.05 11.35 4.15 11.35 5.45 L11.35 5.55 Q11.15 5.45 10.85 5.4 L10.85 5.3 10.9 5.25 11.3 4.45 11.3 4.4 Q11.65 3.55 11.75 2.9 L11.75 2.7 11.75 2.55 12.2 2.1 Q12.55 1.75 12.85 1.65 L12.9 1.6 M8.65 6.3 Q9.8 6.25 10.4 6.9 10.8 7.35 10.8 7.85 L10.65 8.45 Q11.3 8.1 11.65 8.0 L11.65 8.1 10.7 9.9 Q10.05 10.7 9.05 11.2 9.45 10.75 9.75 10.0 L9.8 9.9 9.8 9.85 Q10.8 9.25 11.3 8.55 L11.45 8.4 11.35 8.45 10.45 8.85 10.35 8.9 10.1 9.05 10.1 9.0 10.15 8.65 10.2 8.45 Q10.35 7.85 10.35 7.6 10.35 6.3 7.35 6.7 L8.4 6.4 8.55 6.35 8.65 6.3 M12.05 12.3 L12.05 12.35 12.1 12.4 12.25 12.9 12.15 13.05 11.85 13.4 11.8 13.45 11.75 13.3 11.65 13.0 11.6 12.9 11.95 12.4 12.05 12.3 M12.35 13.45 L12.35 14.4 Q12.35 15.75 11.75 17.1 11.95 16.3 11.95 15.25 L11.95 14.6 12.35 13.45 M11.15 11.3 L10.9 11.45 10.7 11.15 11.15 10.65 11.35 11.0 11.25 11.2 11.15 11.3 M1.45 6.45 L1.1 6.5 Q0.3 6.6 -0.1 7.15 L0.15 6.45 Q0.7 6.05 1.45 6.45" fill="#59542f" fill-rule="evenodd" stroke="none"/>
    <path d="M11.5 0.05 L11.7 0.1 11.85 0.3 12.9 1.6 12.85 1.65 Q12.55 1.4 11.9 0.9 L11.95 1.0 11.9 1.85 Q11.85 2.2 11.75 2.45 11.75 1.5 11.7 1.0 11.6 0.5 11.45 0.25 L11.45 0.05 11.5 0.05 M11.75 7.55 L11.65 7.7 11.6 7.7 11.6 7.5 Q11.6 7.2 11.3 6.7 10.95 6.05 10.5 6.05 L10.1 6.15 9.8 6.2 9.45 6.25 Q9.2 6.25 9.15 6.2 10.25 5.9 10.5 5.9 L10.85 5.9 11.15 6.1 11.5 6.4 11.55 6.55 11.75 7.15 11.75 7.55 M11.8 13.45 L11.85 13.4 12.15 13.05 12.25 12.9 12.3 13.3 11.95 13.65 11.8 13.6 11.8 13.45 M11.25 11.2 Q11.4 11.3 11.55 11.55 11.65 11.75 11.65 11.95 11.65 12.1 11.65 12.05 11.65 12.1 11.6 12.1 11.55 12.05 11.45 11.8 11.35 11.6 11.2 11.7 L11.1 11.65 11.1 11.5 Q11.1 11.4 11.15 11.3 L11.25 11.2 M10.45 8.85 L11.35 8.45 11.45 8.4 11.3 8.55 10.9 8.8 Q10.3 9.2 10.1 9.25 L10.0 9.25 10.05 9.2 10.05 9.1 Q10.15 9.0 10.35 8.9 L10.45 8.85 M0.75 5.6 L0.95 5.8 0.35 6.0 0.45 5.8 0.5 5.8 0.55 5.7 0.7 5.55 0.75 5.6" fill="#d5d3b1" fill-rule="evenodd" stroke="none"/>
    <path d="M16.55 8.35 Q16.85 9.1 17.05 9.9 14.8 12.3 13.2 15.0 L12.95 15.5 13.0 14.45 Q13.0 12.85 12.65 12.15 12.35 11.4 11.3 10.4 L11.35 10.35 11.35 10.3 11.55 10.0 Q11.9 9.4 12.15 8.75 12.4 8.05 12.4 7.75 12.4 6.75 12.3 6.4 12.1 5.9 11.75 5.7 L11.7 5.7 Q11.85 4.7 12.0 4.05 12.1 3.55 12.25 3.2 L12.3 3.2 Q12.65 2.6 13.05 2.35 L13.2 2.3 13.35 2.3 13.45 2.45 13.5 2.5 13.3 2.65 Q12.85 3.05 12.45 3.95 12.35 4.15 12.2 4.7 12.05 5.25 12.05 5.45 12.65 7.3 12.65 7.6 L12.6 8.1 Q12.55 8.75 12.45 9.25 L12.25 9.95 12.45 9.95 Q12.7 9.95 12.85 10.05 L13.0 10.15 13.05 10.15 Q12.95 9.75 12.95 9.65 12.95 9.55 13.0 9.35 L13.1 9.0 Q13.6 9.15 13.85 9.65 13.65 9.6 13.4 9.7 13.45 9.75 13.55 10.1 L13.85 11.25 Q13.85 11.4 13.7 11.75 13.55 12.05 13.55 12.15 13.55 12.3 13.6 12.3 L13.65 12.35 13.65 12.4 13.85 12.45 Q14.2 12.45 14.4 11.85 14.55 11.45 14.55 11.15 14.55 10.55 14.3 10.1 L14.3 10.05 14.25 9.95 14.15 9.85 14.35 9.75 Q14.1 8.8 14.1 8.6 L14.1 8.35 Q14.65 8.35 15.05 8.95 L15.0 9.0 14.9 9.05 Q14.8 9.15 14.8 9.35 L14.8 9.45 Q14.8 9.6 15.0 10.2 15.2 10.75 15.3 10.85 L15.6 10.2 Q15.65 10.05 15.65 9.75 15.65 9.15 15.25 9.0 15.6 8.55 15.85 8.1 16.05 7.55 16.2 7.4 L16.35 7.85 16.4 7.95 16.4 8.3 16.55 8.35 M13.7 6.7 L13.6 7.05 13.5 7.1 Q13.55 6.2 13.65 5.4 L13.7 6.3 13.7 6.7 M9.75 7.25 L9.85 7.4 Q10.05 7.65 10.05 7.9 10.05 8.75 9.05 10.25 8.4 11.25 7.8 11.7 L7.4 11.8 Q7.15 11.6 6.85 11.45 L6.75 11.35 Q5.7 10.55 5.15 10.25 4.55 9.95 3.95 9.8 3.9 9.65 3.9 9.45 L3.9 9.35 Q4.3 10.2 5.9 10.2 7.85 10.2 9.0 8.6 9.35 8.15 9.6 7.6 9.7 7.55 9.65 7.5 L9.75 7.25 M-0.2 7.9 L-0.05 8.2 Q0.4 9.0 0.75 9.0 L1.35 8.95 0.7 8.3 0.7 8.25 0.45 7.95 Q0.35 7.8 0.35 7.7 0.35 7.6 0.4 7.55 L0.45 7.5 Q0.5 7.7 0.95 8.2 1.4 8.6 1.5 8.9 2.25 8.6 3.05 7.75 L3.25 7.55 3.65 7.7 Q3.45 7.9 3.45 8.3 3.45 8.65 3.55 9.5 L3.6 9.6 3.55 9.75 3.35 9.7 3.2 9.6 Q2.85 9.35 1.85 9.35 1.2 9.35 0.7 9.8 L0.65 9.85 Q0.35 9.35 0.0 8.9 -0.2 8.6 -0.2 8.0 L-0.2 7.9 M5.55 8.85 Q5.6 8.65 5.9 8.65 6.25 8.6 6.25 8.95 6.25 9.1 6.15 9.2 6.05 9.3 5.95 9.35 5.85 9.25 5.75 9.15 5.55 9.0 5.55 8.85 M2.9 8.35 L3.05 8.2 2.75 8.4 2.3 8.65 Q1.7 9.0 1.45 9.1 L1.4 9.15 1.7 9.15 1.6 9.2 1.7 9.25 1.85 9.1 Q2.5 9.1 2.7 8.85 2.8 8.75 2.85 8.55 L2.9 8.35 M0.55 10.7 L0.55 10.9 0.5 11.1 Q0.4 11.25 0.4 11.35 0.75 12.4 0.95 12.4 1.2 12.4 1.4 12.15 L1.8 11.7 Q2.35 11.0 3.15 11.0 L3.3 11.0 3.25 10.95 3.35 10.95 3.35 11.0 3.3 11.0 Q3.75 11.1 4.6 11.9 5.15 12.4 6.5 13.85 L7.5 14.9 Q8.7 15.55 9.6 15.55 10.3 15.55 11.2 15.2 L11.45 15.1 11.5 15.1 11.45 15.25 11.4 15.45 Q11.3 16.0 10.95 17.0 L10.45 18.45 Q5.35 13.7 3.05 11.25 L3.0 11.25 Q2.95 11.3 2.95 11.45 L3.0 11.7 2.55 11.7 Q2.0 11.75 2.0 12.15 2.0 12.35 2.05 12.35 1.65 12.6 1.35 12.9 L1.25 13.05 0.7 14.2 0.7 14.3 0.6 14.35 0.4 13.95 Q0.1 13.3 0.1 12.1 0.1 11.65 0.4 11.05 L0.4 11.0 0.5 10.75 0.55 10.7 M1.6 13.55 Q2.0 12.95 2.7 12.4 L3.2 12.45 3.25 12.45 Q3.2 12.75 3.2 13.1 3.2 14.15 3.45 15.45 3.85 17.2 4.55 18.55 4.9 19.25 5.3 19.85 3.3 19.05 2.25 17.35 1.45 15.95 1.3 14.05 1.4 13.8 1.6 13.55 M2.1 13.95 Q1.8 14.6 1.8 15.0 1.8 15.45 2.35 16.5 L3.1 17.85 Q3.7 17.45 3.7 17.2 3.7 16.75 3.2 14.9 L2.7 13.1 Q2.4 13.35 2.1 13.95 M3.6 12.85 L4.2 13.55 Q5.25 14.6 6.4 15.4 6.8 15.65 8.8 17.7 10.0 18.95 10.5 19.35 L10.7 19.65 Q10.95 20.0 10.95 20.4 10.65 21.65 10.45 21.65 9.35 21.65 8.2 20.9 6.95 20.15 5.95 18.85 3.85 16.25 3.6 12.85 M9.2 9.0 Q8.75 9.55 8.2 9.9 7.4 10.4 6.3 10.65 L6.25 10.7 6.7 10.8 7.15 10.85 Q8.35 10.85 8.85 10.05 9.0 9.8 9.1 9.45 L9.2 9.0 M7.25 8.75 L6.85 8.85 Q6.75 8.8 6.7 8.75 6.9 8.6 7.25 8.4 7.65 8.25 7.85 8.25 L7.7 8.45 7.45 8.6 7.25 8.75 M8.6 14.7 Q8.6 14.55 8.9 14.25 9.15 13.95 9.25 13.95 9.3 14.1 9.15 14.45 9.0 14.75 8.85 14.85 L8.95 14.75 9.05 14.5 8.65 14.8 8.6 14.7 M10.55 16.25 L10.65 16.15 Q10.0 16.4 9.45 16.4 L9.4 16.35 9.3 16.3 9.3 16.4 9.2 16.35 9.3 16.45 9.45 16.55 9.5 16.55 Q9.75 16.7 9.95 16.7 10.05 16.7 10.25 16.55 L10.35 16.55 10.7 16.35 Q10.65 16.3 10.6 16.3 L10.55 16.25 M6.95 16.35 L6.65 16.15 Q6.2 15.75 5.65 15.4 L4.45 14.5 Q5.3 16.3 6.55 18.25 6.9 18.75 7.2 19.2 7.25 18.85 7.4 18.45 7.7 17.8 8.0 17.45 L8.0 17.5 Q7.85 17.8 7.65 18.4 L7.25 19.55 7.35 19.55 7.4 19.5 Q7.85 20.1 8.2 20.4 8.4 20.3 8.65 20.15 9.35 19.85 9.35 19.55 9.35 19.2 9.15 18.65 L8.9 18.0 Q8.5 17.6 8.0 17.2 L6.95 16.35 M8.0 17.55 L8.05 17.6 8.0 17.75 8.0 17.55 M9.6 18.75 L9.7 18.85 10.05 19.45 Q9.9 19.15 9.6 18.75 M9.85 20.4 L9.9 20.25 9.95 19.8 Q9.85 19.75 9.75 20.15 L9.6 20.7 9.6 20.8 9.65 20.8 9.75 20.65 10.0 20.55 Q10.25 20.4 10.25 20.2 10.25 19.9 10.1 19.6 10.1 19.9 9.85 20.4 M2.65 16.15 L2.7 16.05 Q2.8 15.95 3.05 16.0 L3.05 16.05 3.1 16.2 Q3.1 16.4 3.05 16.35 L2.9 16.4 Q2.75 16.3 2.65 16.15 M3.45 18.4 L3.65 18.65 3.9 18.95 3.95 18.95 Q3.9 18.7 3.85 18.4 L3.85 17.85 3.8 17.85 3.8 17.9 3.8 17.85 3.75 17.85 3.5 18.15 3.4 18.3 3.35 18.3 Q3.25 18.45 3.2 18.45 3.2 18.5 3.3 18.55 L3.45 18.4" fill="#397373" fill-rule="evenodd" stroke="none"/>
    <path d="M13.35 2.9 L13.45 2.9 14.75 4.55 Q15.4 5.5 15.4 6.25 15.4 6.35 15.5 6.75 L15.6 7.15 15.55 7.35 15.5 7.4 Q15.3 6.95 14.25 4.95 13.3 3.2 13.3 3.0 L13.35 2.9 M13.65 5.4 L13.65 5.3 13.7 5.3 Q13.8 5.55 13.8 6.2 L13.8 6.7 Q13.8 7.0 13.65 7.2 L13.6 7.25 Q13.65 7.0 13.7 6.7 L13.7 6.3 13.65 5.4 M4.85 7.5 L4.75 7.4 Q5.25 7.4 5.75 7.25 6.2 7.1 7.5 7.0 L7.5 6.95 8.4 7.0 9.45 7.05 9.65 7.15 9.65 7.2 Q9.6 7.35 9.65 7.4 L9.65 7.5 Q9.7 7.55 9.6 7.6 L9.55 7.6 Q9.45 7.6 9.25 7.4 9.05 7.25 8.85 7.25 L7.5 7.35 6.65 7.45 6.25 7.5 Q6.15 7.5 6.1 7.45 6.05 7.4 5.95 7.4 5.8 7.4 5.5 7.5 L4.85 7.5 M1.45 7.0 Q1.65 7.0 1.85 7.2 2.0 7.35 2.0 7.55 L2.0 7.6 Q1.95 7.6 1.1 7.25 1.2 7.1 1.3 7.05 1.4 7.0 1.45 7.0 M0.7 8.3 Q0.85 8.5 0.95 8.55 L0.95 8.65 Q0.7 8.6 0.6 8.3 0.5 8.05 0.4 7.95 L0.45 7.95 0.7 8.25 0.7 8.3 M5.95 9.35 Q6.05 9.4 6.2 9.45 L6.2 9.5 6.05 9.55 Q5.5 9.55 5.5 8.85 5.5 8.75 5.5 8.7 5.55 8.7 5.6 8.65 L5.6 8.7 5.55 8.85 Q5.55 9.0 5.75 9.15 5.85 9.25 5.95 9.35 M2.75 8.4 L3.05 8.2 2.9 8.35 2.35 8.8 1.85 9.1 1.7 9.25 1.6 9.2 1.7 9.15 2.3 8.65 2.75 8.4 M2.0 10.3 Q2.0 10.1 2.3 10.1 2.45 10.1 2.55 10.2 L2.7 10.35 Q2.65 10.55 2.45 10.55 L2.25 10.5 2.05 10.4 Q2.0 10.5 2.0 10.3 M5.35 11.45 L6.5 12.3 Q7.65 13.05 8.25 13.05 8.4 13.05 8.9 12.8 9.45 12.5 9.65 12.5 10.05 12.5 10.2 12.7 10.3 12.8 10.3 12.95 10.3 13.05 10.2 13.2 L10.2 13.25 Q10.3 13.25 10.4 13.3 10.35 13.45 10.25 13.45 10.15 13.4 10.15 13.3 10.05 13.35 9.95 13.35 9.75 13.35 9.55 13.25 9.3 13.15 9.35 12.95 L8.9 13.15 8.45 13.3 Q7.65 13.3 6.45 12.4 L5.35 11.5 5.35 11.45 M7.7 8.45 Q7.9 8.35 8.0 8.4 7.35 8.95 6.85 8.95 L6.65 8.95 Q6.9 8.9 7.25 8.75 L7.45 8.6 7.7 8.45 M8.85 14.85 L8.75 14.95 Q8.5 14.9 8.5 14.8 L8.5 14.65 8.55 14.7 8.6 14.7 8.65 14.8 9.05 14.5 8.95 14.75 8.85 14.85 M9.45 16.4 L9.55 16.4 10.1 16.35 10.55 16.25 10.6 16.3 Q10.65 16.3 10.7 16.35 L10.35 16.55 10.25 16.55 9.5 16.55 9.45 16.55 9.3 16.45 9.25 16.4 9.3 16.4 9.3 16.3 9.4 16.35 9.45 16.4 M5.65 15.4 Q6.2 15.75 6.65 16.15 L6.95 16.35 Q7.5 16.85 7.75 17.25 7.15 17.0 6.4 16.3 L5.3 15.3 5.35 15.2 5.65 15.4 M7.4 19.5 L7.35 19.55 7.25 19.55 7.65 18.4 Q7.85 17.8 8.0 17.5 L8.05 17.45 8.0 17.55 8.0 17.75 7.95 18.05 7.7 18.75 Q7.5 19.25 7.4 19.5 M9.75 20.65 L9.65 20.8 9.6 20.8 9.6 20.7 9.75 20.15 Q9.85 19.75 9.95 19.8 L9.9 20.25 9.85 20.4 9.75 20.65 M2.9 16.4 L2.8 16.5 2.55 16.25 Q2.5 16.2 2.5 16.15 L2.5 15.95 2.6 15.95 2.65 16.15 Q2.75 16.3 2.9 16.4 M2.65 14.45 L2.6 14.5 2.45 14.5 Q2.25 14.5 2.2 14.35 L2.2 14.25 Q2.2 14.0 2.4 14.0 2.6 14.0 2.65 14.25 L2.65 14.45 M3.8 17.9 L3.8 17.95 3.6 18.25 3.45 18.4 3.3 18.55 Q3.2 18.5 3.2 18.45 3.25 18.45 3.35 18.3 L3.4 18.3 3.5 18.15 3.75 17.85 3.8 17.85 3.8 17.9" fill="#65cccc" fill-rule="evenodd" stroke="none"/>
  </g>
</svg>
