<?xml version="1.0" encoding="UTF-8" standalone="no"?>
<svg xmlns:ffdec="https://www.free-decompiler.com/flash" xmlns:xlink="http://www.w3.org/1999/xlink" ffdec:objectType="shape" height="10.35px" width="28.25px" xmlns="http://www.w3.org/2000/svg">
  <g transform="matrix(1.0, 0.0, 0.0, 1.0, 15.25, 4.5)">
    <path d="M3.45 -3.55 L4.6 -3.9 Q5.35 -4.1 6.7 -4.3 L8.85 -4.5 10.75 -4.4 11.65 -4.45 Q12.55 -4.45 12.55 -4.15 12.85 -4.05 13.0 -3.9 12.9 -3.8 12.55 -3.85 12.35 -3.7 11.85 -3.45 11.0 -3.05 10.55 -2.5 L10.15 -2.0 9.7 -1.45 9.2 -0.5 Q8.95 0.05 8.6 0.35 8.15 0.65 7.5 0.9 6.95 1.1 6.5 1.1 L6.0 1.25 5.55 1.3 Q5.25 1.35 4.95 1.5 4.6 1.65 4.45 1.65 4.4 1.65 4.3 1.6 L4.2 1.5 4.2 1.35 Q4.15 1.1 3.95 0.9 L3.8 0.85 3.45 0.7 3.15 0.7 2.55 0.6 1.05 0.85 0.5 1.0 -0.3 1.2 Q-0.6 1.2 -1.6 1.45 L-2.65 1.75 -2.7 1.75 -3.95 2.25 -5.0 2.75 -4.95 2.85 Q-4.85 2.95 -4.7 2.95 L-3.85 2.85 Q-3.75 2.85 -3.3 2.7 -2.85 2.55 -2.8 2.55 L-2.65 2.6 -2.6 2.65 -2.65 2.85 Q-3.0 3.45 -3.55 3.8 -3.85 4.0 -4.15 4.1 L-3.85 4.25 Q-3.0 4.6 -2.4 4.6 -1.85 4.6 -1.3 4.4 -0.8 4.2 -0.55 4.2 -0.45 4.2 -0.4 4.3 -0.4 4.35 -0.4 4.45 L-0.9 4.7 Q-1.05 4.85 -1.25 5.05 L-2.25 5.8 -2.35 5.85 Q-3.2 5.45 -3.9 5.35 L-4.8 5.25 -5.5 5.25 -5.8 5.2 -6.3 5.05 Q-6.65 4.9 -6.85 4.65 -6.95 4.6 -7.0 4.25 -7.1 3.9 -7.1 3.7 L-7.15 3.55 -7.25 3.05 -7.3 2.95 -7.4 2.85 -7.65 2.7 Q-7.95 2.55 -7.95 2.3 L-7.85 1.7 Q-7.8 1.35 -7.65 1.2 L-7.7 1.05 Q-7.8 0.8 -8.0 0.5 L-8.4 0.15 Q-8.75 -0.1 -8.75 -0.25 -8.75 -0.75 -8.15 -1.3 L-7.55 -1.7 Q-7.45 -1.7 -6.85 -2.1 -6.25 -2.45 -5.8 -2.45 L-5.6 -2.4 -5.3 -2.5 -5.1 -2.45 -5.0 -2.3 -5.8 -1.65 Q-6.4 -1.15 -6.45 -0.75 -6.4 -0.55 -6.2 -0.5 L-6.0 -0.45 -5.3 -0.9 Q-4.65 -1.3 -4.25 -1.5 -4.1 -1.55 -3.1 -2.15 -2.3 -2.65 -2.1 -2.65 L-1.95 -2.65 -1.95 -2.5 Q-2.2 -2.15 -2.65 -1.8 L-3.35 -1.3 -4.2 -0.4 -4.1 -0.45 -2.85 -1.05 Q-2.05 -1.4 -1.5 -1.65 L-0.75 -2.1 Q-0.25 -2.35 -0.05 -2.35 0.45 -2.65 0.55 -2.65 L2.4 -3.2 3.45 -3.55 M-5.55 1.8 L-5.55 1.85 -5.45 2.1 -5.2 2.45 -5.15 2.45 -5.0 2.4 -4.6 2.15 Q-3.7 1.65 -3.6 1.65 L-3.1 1.45 -2.45 1.25 -2.3 1.2 -1.95 1.05 1.6 0.2 2.05 0.15 2.35 0.1 2.4 0.05 2.65 0.0 Q3.15 0.0 3.55 0.2 L3.8 0.25 Q4.7 0.45 4.8 0.85 L4.75 1.0 5.45 0.85 6.8 0.65 7.3 0.5 7.75 0.35 Q8.35 0.35 8.9 -0.7 9.75 -2.3 10.15 -2.75 10.5 -3.2 11.3 -3.65 L11.8 -3.95 10.45 -4.0 9.9 -4.05 8.4 -3.9 7.2 -3.85 6.05 -3.7 4.85 -3.5 4.25 -3.35 3.25 -3.05 2.15 -2.65 1.9 -2.55 Q1.75 -2.5 1.65 -2.45 1.45 -2.35 1.25 -2.3 L1.0 -2.2 Q0.75 -2.2 0.1 -1.95 L-0.8 -1.45 Q-1.8 -0.85 -2.15 -0.7 -3.1 -0.25 -3.5 -0.1 -3.95 0.0 -4.5 0.3 L-4.95 0.5 -5.4 1.1 -5.45 1.15 Q-5.65 1.35 -5.65 1.65 L-5.6 1.75 -5.55 1.8 M-7.9 -0.5 Q-7.45 -1.6 -6.8 -1.85 -6.3 -1.9 -5.95 -2.0 L-5.9 -2.1 -5.95 -2.15 -6.3 -2.0 -7.0 -1.8 Q-8.3 -1.15 -8.3 -0.3 L-8.2 -0.2 -7.8 0.15 Q-7.7 0.25 -7.5 0.6 L-7.45 0.85 Q-7.35 0.65 -7.35 0.6 -7.35 0.45 -7.6 0.0 L-7.9 -0.5 M-6.7 -1.2 L-6.5 -1.55 -6.45 -1.6 -6.5 -1.6 Q-6.75 -1.6 -7.1 -1.3 -7.55 -0.95 -7.6 -0.45 L-7.35 -0.05 Q-7.15 0.25 -7.15 0.6 -7.15 0.75 -7.25 0.8 -7.4 0.85 -7.4 1.0 L-7.4 1.1 -7.35 1.1 -7.25 1.2 -7.25 1.25 -7.2 1.3 -7.2 1.35 -7.25 1.6 -6.75 1.2 Q-6.3 0.9 -5.9 0.35 L-5.2 -0.5 -5.85 -0.15 -5.95 -0.05 -6.25 -0.05 Q-6.4 -0.05 -6.65 -0.25 -6.95 -0.45 -6.95 -0.7 L-6.8 -1.05 -6.7 -1.2 M-5.85 1.05 L-5.6 0.7 Q-5.15 0.0 -4.8 -0.35 -4.15 -0.85 -3.65 -1.4 L-3.75 -1.35 -3.8 -1.3 Q-4.1 -1.05 -4.7 -0.75 -5.0 -0.6 -5.3 -0.05 L-5.65 0.6 Q-6.05 1.05 -6.6 1.4 -7.1 1.75 -7.35 2.1 L-7.25 2.1 Q-7.1 2.1 -6.95 2.15 -6.85 2.2 -6.75 2.3 -6.45 2.45 -6.35 2.65 L-6.35 2.75 -6.3 2.9 -6.25 2.95 -6.2 3.2 -6.2 3.25 Q-6.05 3.6 -5.85 3.8 -5.65 4.1 -5.05 4.2 L-5.3 3.9 Q-5.75 3.7 -5.75 3.5 L-5.7 3.3 -5.65 3.25 -5.5 3.2 -5.4 3.25 -5.25 3.35 Q-5.05 3.5 -4.75 3.7 -4.65 3.8 -4.55 3.85 -4.3 3.85 -3.75 3.5 L-3.15 3.1 -3.1 3.05 -3.05 2.95 -3.1 2.9 -3.75 3.1 -4.45 3.3 -4.95 3.2 -5.3 3.05 -5.4 2.95 -5.6 2.95 -5.65 2.85 -5.5 2.75 -5.65 2.35 Q-5.85 2.25 -5.9 2.1 L-6.05 1.75 -6.1 1.5 -5.85 1.05 M-2.25 5.2 L-2.05 5.05 -1.9 4.95 -2.35 4.95 -2.7 5.05 -3.45 4.95 Q-4.15 4.8 -4.3 4.7 L-4.4 4.65 -5.2 4.5 Q-6.0 4.3 -6.1 4.15 -6.55 3.7 -6.8 3.15 L-6.9 3.0 -6.75 3.5 -6.7 3.55 Q-6.55 4.1 -6.45 4.25 -6.3 4.55 -5.95 4.65 L-5.25 4.85 -4.65 4.95 -3.45 5.1 -3.3 5.15 -2.35 5.25 -2.25 5.2 M-11.15 2.75 L-11.1 2.75 Q-10.95 2.75 -10.8 3.0 -10.6 3.3 -10.6 3.45 -10.6 3.6 -10.6 3.7 L-10.75 4.05 -10.75 4.1 Q-11.0 4.1 -11.8 4.4 -12.65 4.7 -13.0 4.7 L-13.25 4.7 Q-13.55 4.7 -13.95 4.45 L-14.05 4.4 Q-14.55 4.15 -14.55 3.9 L-14.45 3.55 Q-14.35 3.35 -14.35 3.25 -14.35 3.15 -14.4 3.15 L-14.8 3.15 -14.85 3.2 -15.1 3.6 Q-15.25 3.55 -15.25 3.45 L-15.25 3.25 Q-15.1 2.55 -14.35 2.35 L-13.9 2.25 -13.5 2.2 Q-13.25 2.2 -12.65 2.35 -12.55 2.4 -12.3 2.6 -12.0 2.85 -11.85 2.85 L-11.45 2.8 -11.15 2.75 M-11.0 3.35 L-11.0 3.25 Q-11.05 3.15 -11.1 3.15 L-11.2 3.15 -11.55 3.3 Q-11.75 3.35 -11.85 3.35 L-12.0 3.35 -12.15 3.3 -12.25 3.35 -12.5 3.6 -12.5 3.65 -12.55 3.7 Q-12.8 4.1 -13.0 4.1 -13.1 4.1 -13.35 3.9 L-13.65 3.7 -13.65 3.5 -13.75 3.3 -13.65 3.1 -13.45 2.9 -13.2 2.8 Q-13.1 2.85 -13.0 2.9 L-12.95 2.9 Q-12.85 2.9 -12.8 2.95 -12.75 3.0 -12.75 3.05 L-12.8 3.25 -13.0 3.25 -13.1 3.35 -13.25 3.35 Q-13.3 3.4 -13.3 3.55 L-13.3 3.65 -13.2 3.65 -13.05 3.7 Q-12.95 3.65 -12.8 3.55 -12.7 3.25 -12.4 3.1 L-12.65 2.9 Q-13.05 2.6 -13.55 2.6 -13.95 2.6 -14.3 2.85 -14.15 2.9 -14.05 3.0 -13.85 3.25 -13.9 3.85 L-13.95 3.9 -14.0 3.9 Q-13.9 4.0 -13.05 4.15 L-12.25 3.85 Q-11.85 3.7 -11.6 3.7 L-11.2 3.75 -11.0 3.8 -11.0 3.35" fill="#111111" fill-rule="evenodd" stroke="none"/>
    <path d="M-6.2 3.25 L-6.2 3.2 -6.25 2.95 -6.2 3.05 -6.2 3.25 M-6.3 2.9 L-6.35 2.75 -6.3 2.8 -6.3 2.9 M-12.0 3.35 L-12.25 3.35 -12.15 3.3 -12.0 3.35" fill="#666666" fill-rule="evenodd" stroke="none"/>
    <path d="M-8.2 -0.2 L-8.3 -0.3 Q-8.3 -1.15 -7.0 -1.8 L-6.3 -2.0 -5.95 -2.15 -5.9 -2.1 -5.95 -2.0 Q-6.3 -1.9 -6.8 -1.85 -7.45 -1.6 -7.9 -0.5 L-7.85 -0.4 Q-8.0 -0.3 -8.2 -0.2 M-7.25 1.25 L-7.25 1.2 -7.35 1.1 -7.4 1.1 -7.4 1.0 Q-7.4 0.85 -7.25 0.8 -7.15 0.75 -7.15 0.6 -7.15 0.25 -7.35 -0.05 L-7.6 -0.45 Q-7.55 -0.95 -7.1 -1.3 -6.75 -1.6 -6.5 -1.6 L-6.45 -1.6 -6.5 -1.55 -6.7 -1.2 -6.8 -1.1 Q-7.15 -0.75 -7.15 -0.55 L-6.85 0.6 Q-6.85 0.65 -7.1 1.05 L-7.2 1.2 -7.25 1.25 M-5.95 -0.05 L-5.85 -0.15 -5.2 -0.5 -5.9 0.35 Q-6.3 0.9 -6.75 1.2 L-7.25 1.6 -7.2 1.35 -7.2 1.3 -6.2 0.3 -5.95 -0.05 M-7.25 2.1 L-7.35 2.1 Q-7.1 1.75 -6.6 1.4 -6.05 1.05 -5.65 0.6 L-5.3 -0.05 Q-5.0 -0.6 -4.7 -0.75 -4.1 -1.05 -3.8 -1.3 L-3.75 -1.35 -3.65 -1.4 Q-4.15 -0.85 -4.8 -0.35 -5.15 0.0 -5.6 0.7 L-5.85 1.05 -6.0 1.2 Q-6.3 1.55 -6.55 1.7 L-7.25 2.1 M-6.05 1.75 L-5.9 2.1 Q-5.85 2.25 -5.65 2.35 L-5.5 2.75 -5.65 2.85 -5.6 2.95 -5.4 2.95 -5.3 3.05 -4.95 3.2 -4.45 3.3 -3.75 3.1 -3.1 2.9 -3.05 2.95 -3.1 3.05 -3.3 3.2 Q-3.75 3.45 -4.2 3.45 L-4.3 3.45 -4.6 3.55 -4.9 3.4 Q-5.2 3.3 -5.4 3.25 L-5.5 3.2 -5.65 3.25 -5.7 3.3 -5.75 3.5 Q-5.75 3.7 -5.3 3.9 L-5.05 4.2 Q-5.65 4.1 -5.85 3.8 -6.05 3.6 -6.2 3.25 L-6.2 3.05 -6.25 2.95 -6.3 2.9 -6.3 2.8 -6.35 2.75 -6.35 2.65 Q-6.45 2.45 -6.75 2.3 -6.85 2.2 -6.95 2.15 -6.9 2.1 -6.7 1.95 -6.35 1.75 -6.05 1.75 M-6.7 3.55 L-6.75 3.5 -6.9 3.0 -6.8 3.15 Q-6.55 3.7 -6.1 4.15 -6.0 4.3 -5.2 4.5 L-4.4 4.65 -4.3 4.7 Q-4.15 4.8 -3.45 4.95 L-2.7 5.05 -2.35 4.95 -1.9 4.95 -2.05 5.05 -2.25 5.2 -2.3 5.2 Q-2.65 5.2 -3.2 5.1 L-3.95 4.9 -4.85 4.75 -5.65 4.5 Q-6.4 4.2 -6.65 3.7 L-6.7 3.7 -6.7 3.55 M-12.0 3.35 L-11.85 3.35 Q-11.75 3.35 -11.55 3.3 L-11.2 3.15 -11.1 3.15 Q-11.05 3.15 -11.0 3.25 L-11.0 3.35 -11.5 3.5 -12.25 3.7 Q-12.45 3.7 -12.5 3.6 L-12.25 3.35 -12.0 3.35 M-13.95 3.9 L-13.9 3.85 Q-13.85 3.25 -14.05 3.0 -14.15 2.9 -14.3 2.85 -13.95 2.6 -13.55 2.6 -13.05 2.6 -12.65 2.9 L-12.4 3.1 Q-12.7 3.25 -12.8 3.55 -12.95 3.65 -13.05 3.7 L-13.2 3.65 -13.3 3.65 -13.3 3.55 Q-13.3 3.4 -13.25 3.35 L-13.1 3.35 -13.0 3.25 -12.8 3.25 -12.75 3.05 Q-12.75 3.0 -12.8 2.95 -12.85 2.9 -12.95 2.9 L-13.0 2.9 Q-13.1 2.85 -13.2 2.8 L-13.45 2.9 -13.65 3.1 -13.75 3.3 -13.65 3.5 -13.65 3.7 -13.8 3.85 -13.95 3.9" fill="#333121" fill-rule="evenodd" stroke="none"/>
    <path d="M-5.4 1.1 L-5.5 1.25 Q-4.1 0.45 -1.8 -0.3 L-0.55 -0.85 Q-0.1 -1.05 1.75 -1.55 3.5 -2.05 3.75 -2.05 L4.75 -2.3 4.4 -2.3 2.75 -1.9 0.4 -1.3 -1.35 -0.85 -1.4 -0.9 Q-1.15 -1.15 0.5 -1.65 L0.6 -1.7 1.55 -2.0 2.3 -2.15 2.75 -2.3 4.35 -2.65 4.4 -2.65 4.9 -2.8 5.7 -2.95 6.6 -3.05 6.8 -3.1 8.2 -3.4 9.2 -3.3 Q9.6 -3.2 9.6 -2.75 9.6 -2.65 9.5 -2.5 9.4 -2.4 9.35 -2.4 L9.3 -2.4 9.05 -1.75 8.6 -0.8 Q8.55 -0.65 8.3 -0.45 8.1 -0.2 7.9 -0.15 7.6 0.0 6.85 0.2 5.95 0.35 5.45 0.35 4.9 0.35 4.0 0.05 2.95 -0.3 2.95 -0.6 2.95 -0.7 3.0 -0.75 L3.1 -0.8 3.25 -0.9 Q1.65 -0.75 -1.05 0.25 -2.45 0.8 -3.9 1.4 -4.0 1.5 -4.0 1.35 -4.0 1.05 -2.95 0.65 -2.0 0.3 -0.55 -0.1 L1.05 -0.6 Q2.3 -1.0 3.55 -1.2 L3.6 -1.2 3.65 -1.05 Q3.5 -0.7 3.25 -0.65 L4.1 -0.1 Q4.55 0.15 5.45 0.15 6.35 0.15 7.3 -0.15 8.4 -0.55 8.6 -1.15 L8.9 -1.85 Q9.2 -2.6 9.2 -2.75 L9.2 -2.8 Q9.05 -2.9 8.7 -2.95 L8.4 -3.0 7.95 -3.05 7.8 -3.0 6.85 -2.75 7.15 -2.75 Q7.6 -2.75 7.95 -2.65 8.5 -2.45 8.5 -1.95 L8.5 -1.8 8.2 -1.15 8.1 -1.05 Q7.85 -0.65 7.25 -0.4 6.75 -0.2 6.35 -0.2 L5.2 -0.3 Q4.45 -0.4 4.35 -0.65 4.25 -1.15 5.25 -1.55 6.0 -1.85 6.3 -1.85 6.6 -1.85 6.7 -1.55 L6.65 -1.35 6.55 -1.2 Q6.45 -1.05 6.2 -1.05 6.05 -1.05 6.0 -1.1 L5.95 -1.2 6.05 -1.4 5.65 -1.15 Q5.35 -1.0 5.2 -1.0 L5.0 -0.95 4.85 -0.9 4.75 -0.75 Q5.15 -0.55 5.3 -0.55 6.05 -0.55 6.7 -0.75 7.95 -1.1 8.0 -1.95 7.9 -2.1 7.45 -2.25 L6.9 -2.3 5.25 -2.15 4.0 -1.8 2.05 -1.3 1.1 -1.0 0.1 -0.75 -0.95 -0.3 Q-1.85 0.05 -1.95 0.05 -2.05 0.05 -3.95 0.95 L-5.6 1.7 -5.55 1.8 -5.6 1.75 -5.65 1.65 Q-5.65 1.35 -5.45 1.15 L-5.4 1.1 M-7.9 -0.5 L-7.6 0.0 Q-7.35 0.45 -7.35 0.6 -7.35 0.65 -7.45 0.85 L-7.5 0.6 Q-7.7 0.25 -7.8 0.15 L-8.2 -0.2 Q-8.0 -0.3 -7.85 -0.4 L-7.9 -0.5 M-6.7 -1.2 L-6.8 -1.05 -6.95 -0.7 Q-6.95 -0.45 -6.65 -0.25 -6.4 -0.05 -6.25 -0.05 L-5.95 -0.05 -6.2 0.3 -7.2 1.3 -7.25 1.25 -7.2 1.2 -7.1 1.05 Q-6.85 0.65 -6.85 0.6 L-7.15 -0.55 Q-7.15 -0.75 -6.8 -1.1 L-6.7 -1.2 M-5.85 1.05 L-6.1 1.5 -6.05 1.75 Q-6.35 1.75 -6.7 1.95 -6.9 2.1 -6.95 2.15 -7.1 2.1 -7.25 2.1 L-6.55 1.7 Q-6.3 1.55 -6.0 1.2 L-5.85 1.05 M-3.1 3.05 L-3.15 3.1 -3.75 3.5 Q-4.3 3.85 -4.55 3.85 -4.65 3.8 -4.75 3.7 -5.05 3.5 -5.25 3.35 L-5.4 3.25 Q-5.2 3.3 -4.9 3.4 L-4.6 3.55 -4.3 3.45 -4.2 3.45 Q-3.75 3.45 -3.3 3.2 L-3.1 3.05 M-2.25 5.2 L-2.35 5.25 -3.3 5.15 -3.45 5.1 -4.65 4.95 -5.25 4.85 -5.95 4.65 Q-6.3 4.55 -6.45 4.25 -6.55 4.1 -6.7 3.55 L-6.7 3.7 -6.65 3.7 Q-6.4 4.2 -5.65 4.5 L-4.85 4.75 -3.95 4.9 -3.2 5.1 Q-2.65 5.2 -2.3 5.2 L-2.25 5.2 M-12.5 3.6 Q-12.45 3.7 -12.25 3.7 L-11.5 3.5 -11.0 3.35 -11.0 3.8 -11.2 3.75 -11.6 3.7 Q-11.85 3.7 -12.25 3.85 L-13.05 4.15 Q-13.9 4.0 -14.0 3.9 L-13.95 3.9 -13.8 3.85 -13.65 3.7 -13.35 3.9 Q-13.1 4.1 -13.0 4.1 -12.8 4.1 -12.55 3.7 L-12.5 3.65 -12.5 3.6" fill="#666342" fill-rule="evenodd" stroke="none"/>
    <path d="M-5.4 1.1 L-4.95 0.5 -4.5 0.3 Q-3.95 0.0 -3.5 -0.1 -3.1 -0.25 -2.15 -0.7 -1.8 -0.85 -0.8 -1.45 L0.1 -1.95 Q0.75 -2.2 1.0 -2.2 L1.25 -2.3 Q1.45 -2.35 1.65 -2.45 1.75 -2.5 1.9 -2.55 L2.15 -2.65 3.25 -3.05 4.25 -3.35 4.85 -3.5 6.05 -3.7 7.2 -3.85 8.4 -3.9 9.9 -4.05 10.45 -4.0 11.8 -3.95 11.3 -3.65 Q10.5 -3.2 10.15 -2.75 9.75 -2.3 8.9 -0.7 8.35 0.35 7.75 0.35 L7.3 0.5 6.8 0.65 5.45 0.85 4.75 1.0 4.8 0.85 Q4.7 0.45 3.8 0.25 L3.55 0.2 Q3.15 0.0 2.65 0.0 L2.4 0.05 2.35 0.1 2.05 0.15 1.6 0.2 -1.95 1.05 -2.3 1.2 -2.45 1.25 -3.1 1.45 -3.6 1.65 Q-3.7 1.65 -4.6 2.15 L-5.0 2.4 -5.15 2.45 -5.2 2.45 -5.45 2.1 -5.55 1.85 -5.55 1.8 -5.6 1.7 -3.95 0.95 Q-2.05 0.05 -1.95 0.05 -1.85 0.05 -0.95 -0.3 L0.1 -0.75 1.1 -1.0 2.05 -1.3 4.0 -1.8 5.25 -2.15 6.9 -2.3 7.45 -2.25 Q7.9 -2.1 8.0 -1.95 7.95 -1.1 6.7 -0.75 6.05 -0.55 5.3 -0.55 5.15 -0.55 4.75 -0.75 L4.85 -0.9 5.0 -0.95 5.2 -1.0 Q5.35 -1.0 5.65 -1.15 L6.05 -1.4 5.95 -1.2 6.0 -1.1 Q6.05 -1.05 6.2 -1.05 6.45 -1.05 6.55 -1.2 L6.65 -1.35 6.7 -1.55 Q6.6 -1.85 6.3 -1.85 6.0 -1.85 5.25 -1.55 4.25 -1.15 4.35 -0.65 4.45 -0.4 5.2 -0.3 L6.35 -0.2 Q6.75 -0.2 7.25 -0.4 7.85 -0.65 8.1 -1.05 L8.2 -1.15 8.5 -1.8 8.5 -1.95 Q8.5 -2.45 7.95 -2.65 7.6 -2.75 7.15 -2.75 L6.85 -2.75 7.8 -3.0 7.95 -3.05 8.4 -3.0 8.7 -2.95 Q9.05 -2.9 9.2 -2.8 L9.2 -2.75 Q9.2 -2.6 8.9 -1.85 L8.6 -1.15 Q8.4 -0.55 7.3 -0.15 6.35 0.15 5.45 0.15 4.55 0.15 4.1 -0.1 L3.25 -0.65 Q3.5 -0.7 3.65 -1.05 L3.6 -1.2 3.55 -1.2 Q2.3 -1.0 1.05 -0.6 L-0.55 -0.1 Q-2.0 0.3 -2.95 0.65 -4.0 1.05 -4.0 1.35 -4.0 1.5 -3.9 1.4 -2.45 0.8 -1.05 0.25 1.65 -0.75 3.25 -0.9 L3.1 -0.8 3.0 -0.75 Q2.95 -0.7 2.95 -0.6 2.95 -0.3 4.0 0.05 4.9 0.35 5.45 0.35 5.95 0.35 6.85 0.2 7.6 0.0 7.9 -0.15 8.1 -0.2 8.3 -0.45 8.55 -0.65 8.6 -0.8 L9.05 -1.75 9.3 -2.4 9.35 -2.4 Q9.4 -2.4 9.5 -2.5 9.6 -2.65 9.6 -2.75 9.6 -3.2 9.2 -3.3 L8.2 -3.4 6.8 -3.1 6.6 -3.05 5.7 -2.95 4.9 -2.8 4.4 -2.65 4.35 -2.65 2.75 -2.3 2.3 -2.15 1.55 -2.0 0.6 -1.7 0.5 -1.65 Q-1.15 -1.15 -1.4 -0.9 L-1.35 -0.85 0.4 -1.3 2.75 -1.9 4.4 -2.3 4.75 -2.3 3.75 -2.05 Q3.5 -2.05 1.75 -1.55 -0.1 -1.05 -0.55 -0.85 L-1.8 -0.3 Q-4.1 0.45 -5.5 1.25 L-5.4 1.1" fill="#cfd9b8" fill-rule="evenodd" stroke="none"/>
  </g>
</svg>
