<?xml version="1.0" encoding="UTF-8" standalone="no"?>
<svg xmlns:ffdec="https://www.free-decompiler.com/flash" xmlns:xlink="http://www.w3.org/1999/xlink" ffdec:objectType="shape" height="10.35px" width="7.55px" xmlns="http://www.w3.org/2000/svg">
  <g transform="matrix(1.0, 0.0, 0.0, 1.0, -0.35, 0.5)">
    <path d="M7.6 4.65 L6.0 7.75 5.9 9.6 2.25 6.55 1.9 7.35 Q-0.25 3.45 1.15 0.15 5.15 -1.05 7.55 1.55 L7.2 2.4 7.6 4.65" fill="#5b6b6b" fill-rule="evenodd" stroke="none"/>
    <path d="M2.55 4.95 Q3.25 4.15 4.3 3.3 6.2 1.8 6.75 1.8 L6.9 1.7 6.85 1.65 Q6.8 1.6 6.7 1.5 6.6 1.4 6.5 1.4 6.35 1.4 5.55 1.85 4.65 2.35 3.8 3.0 2.85 3.7 2.3 4.3 L2.15 3.6 Q1.95 2.45 1.95 2.0 1.95 0.15 2.25 0.15 L5.1 0.45 7.25 1.45 Q7.25 1.55 5.9 2.5 L6.85 2.05 Q7.0 2.1 7.1 2.4 L7.2 2.85 Q7.05 2.65 6.9 2.6 L6.5 2.75 Q6.4 2.95 6.4 3.4 6.4 4.65 6.0 5.8 L5.7 6.2 Q5.5 6.55 5.5 6.85 5.5 7.05 5.3 7.5 5.1 7.95 5.1 8.0 L5.1 8.05 Q4.7 7.75 4.1 7.0 3.2 5.8 3.2 5.15 L2.55 4.95 M7.25 4.35 L7.3 4.95 6.2 6.8 6.55 6.1 Q7.05 5.05 7.25 4.35 M5.95 7.8 L5.85 8.1 5.95 7.8" fill="#4a5757" fill-rule="evenodd" stroke="none"/>
    <path d="M2.3 4.3 Q2.85 3.7 3.8 3.0 4.65 2.35 5.55 1.85 6.35 1.4 6.5 1.4 6.6 1.4 6.7 1.5 6.8 1.6 6.85 1.65 L6.9 1.7 6.75 1.8 Q6.2 1.8 4.3 3.3 3.25 4.15 2.55 4.95 1.9 5.65 1.55 6.25 L1.4 6.1 Q1.4 5.3 2.3 4.3 M5.1 8.05 L5.1 8.0 Q5.1 7.95 5.3 7.5 5.5 7.05 5.5 6.85 5.5 6.55 5.7 6.2 L6.0 5.8 Q6.4 4.65 6.4 3.4 6.4 2.95 6.5 2.75 L6.9 2.6 Q7.05 2.65 7.2 2.85 L7.25 4.35 Q7.05 5.05 6.55 6.1 L6.2 6.8 5.95 7.8 5.85 8.1 5.9 9.35 5.75 9.4 Q5.1 9.4 5.1 8.05" fill="#ffffff" fill-rule="evenodd" stroke="none"/>
    <path d="M2.45 -0.4 Q3.2 -0.55 4.0 -0.45 L4.6 -0.3 5.2 -0.1 5.6 0.0 Q5.95 0.05 6.15 0.15 6.5 0.3 6.8 0.6 L7.05 0.85 7.1 0.85 7.2 0.95 Q7.75 1.3 7.7 1.9 L7.6 1.7 7.55 1.75 7.55 1.9 Q7.5 2.05 7.4 2.3 7.55 2.5 7.75 3.05 8.0 3.85 7.9 4.5 7.75 5.25 7.0 6.55 6.2 7.8 6.15 8.15 L6.2 8.8 6.25 9.5 6.2 9.6 6.35 9.75 6.35 9.85 6.3 9.85 6.15 9.8 6.0 9.8 Q5.1 9.65 3.65 8.4 3.1 7.95 2.8 7.55 L2.55 7.25 2.2 6.9 Q2.15 7.2 2.15 7.3 L2.2 7.8 2.15 7.95 2.15 8.0 1.9 7.7 1.9 7.7 Q1.75 7.5 1.7 7.25 L1.4 6.75 1.3 6.8 1.2 6.55 1.15 6.55 Q1.05 6.35 0.95 5.95 0.7 5.65 0.5 4.7 0.25 3.55 0.4 2.45 0.45 2.15 0.6 1.75 0.65 1.25 0.8 0.8 L0.85 0.6 0.9 0.45 0.95 0.4 Q0.8 0.4 0.9 0.35 L1.0 0.25 Q1.15 0.0 1.3 0.0 L1.35 0.0 Q1.8 -0.3 2.45 -0.4 M7.1 1.7 Q7.15 1.75 7.15 1.85 L7.25 1.7 Q6.95 1.5 6.55 1.3 5.65 0.8 4.9 0.7 L2.8 0.6 1.45 0.6 1.1 1.8 1.05 2.05 Q0.95 2.8 1.1 4.5 L1.15 4.95 1.25 5.3 Q1.2 5.7 1.55 6.1 L1.65 6.4 Q1.85 5.2 4.15 3.5 5.4 2.55 6.95 1.6 7.05 1.65 7.1 1.7 M7.1 3.35 L7.15 3.3 7.15 3.15 Q7.2 2.7 7.1 2.3 6.95 2.65 6.5 3.05 6.2 3.35 5.05 4.05 3.9 4.75 3.35 5.25 2.8 5.75 2.45 6.3 L2.75 6.7 2.85 6.9 2.95 6.9 Q3.65 7.55 4.8 8.5 L5.55 9.1 5.85 9.3 Q5.75 9.1 5.7 8.8 5.55 8.25 5.6 7.9 5.75 6.85 6.5 6.15 L6.6 6.1 6.95 5.3 7.15 4.9 7.1 3.35" fill="#111111" fill-rule="evenodd" stroke="none"/>
  </g>
</svg>
