<?xml version="1.0" encoding="UTF-8" standalone="no"?>
<svg xmlns:ffdec="https://www.free-decompiler.com/flash" xmlns:xlink="http://www.w3.org/1999/xlink" ffdec:objectType="shape" height="9.65px" width="12.75px" xmlns="http://www.w3.org/2000/svg">
  <g transform="matrix(1.0, 0.0, 0.0, 1.0, 1.3, 1.8)">
    <path d="M4.5 -0.75 L4.1 -1.05 3.75 -1.25 Q0.95 -1.25 0.0 -0.35 -0.6 0.25 -0.6 1.5 -0.6 1.7 -0.65 1.8 L-0.7 1.85 -0.7 1.9 Q-0.75 2.4 -0.7 2.65 L-0.7 2.95 -0.55 3.4 -0.3 4.2 Q0.05 4.8 0.8 5.55 2.4 7.1 3.55 7.1 L5.25 7.05 Q5.6 7.0 6.05 6.8 7.65 6.1 10.55 5.4 L10.5 5.25 10.15 4.95 Q9.6 4.55 8.65 4.55 L7.6 4.6 Q6.7 4.75 5.7 5.15 L5.55 5.25 4.4 5.8 Q4.2 5.8 3.9 5.7 3.45 5.5 2.8 5.05 L2.75 5.0 2.5 4.85 2.4 4.8 2.45 4.8 Q1.55 4.2 1.35 3.8 1.05 3.25 0.95 2.6 L0.95 2.4 0.95 2.3 0.9 2.0 0.9 1.55 0.9 1.25 Q0.9 1.0 1.0 0.85 L1.1 0.6 1.1 0.5 Q1.1 0.35 1.6 0.1 2.2 -0.15 2.9 -0.1 2.55 0.0 1.85 0.35 L1.5 0.55 1.35 0.95 1.2 1.25 1.15 1.55 Q1.15 2.45 1.85 3.65 2.8 5.3 4.2 5.3 L4.45 5.25 4.55 5.2 6.2 4.75 6.55 4.65 7.55 4.35 8.85 4.1 8.45 3.65 8.25 3.4 Q7.9 2.95 7.65 2.6 L7.55 2.9 Q7.2 3.75 6.7 3.9 L6.6 3.85 Q6.2 4.05 5.75 4.05 5.25 4.05 4.85 3.95 L4.8 3.9 Q4.4 3.75 4.1 3.5 L3.85 2.9 Q3.65 2.35 3.4 1.9 L3.6 0.95 3.65 0.9 3.65 0.85 3.9 0.7 3.9 0.65 4.05 0.65 4.7 0.4 4.8 0.35 4.85 0.35 4.85 0.4 5.2 0.2 4.9 -0.1 4.55 -0.1 4.1 -0.2 3.8 -0.2 3.35 -0.3 Q3.55 -0.3 3.75 -0.4 4.1 -0.5 4.55 -0.7 L4.5 -0.75 M5.3 -0.45 L5.7 -0.1 Q6.0 -0.3 6.2 -0.55 6.5 -0.9 7.0 -1.6 7.35 -1.5 7.7 -0.45 8.0 0.45 8.0 0.8 8.0 1.3 7.85 1.95 8.3 2.2 8.8 2.8 L9.8 3.95 Q10.55 4.0 11.45 5.65 L11.45 5.8 Q11.4 5.85 11.4 5.9 L11.35 5.95 Q11.25 6.15 11.0 6.2 10.9 6.25 9.65 6.25 8.6 6.25 6.9 7.05 5.25 7.85 4.6 7.85 2.6 7.85 0.55 6.0 -0.25 5.25 -0.8 4.45 -1.3 3.65 -1.3 3.2 L-1.25 2.3 -1.25 2.15 -1.3 1.8 Q-1.3 1.4 -1.1 0.65 L-1.0 0.2 Q-0.9 -0.1 -0.8 -0.35 0.0 -1.8 2.4 -1.8 3.7 -1.8 4.5 -1.4 5.25 -1.0 5.3 -0.45 M7.2 -0.3 Q7.05 -0.75 6.95 -0.85 L6.35 -0.1 Q5.85 0.5 5.5 0.5 L5.0 0.7 Q4.35 0.75 3.95 1.15 3.55 1.5 3.55 1.85 3.55 2.2 3.95 2.8 L4.2 3.15 Q4.65 3.65 5.25 3.65 5.95 3.65 6.35 3.35 L6.4 3.35 6.45 3.3 Q6.6 3.1 6.7 2.9 L6.9 2.6 Q7.5 1.65 7.5 0.95 L7.5 0.9 7.45 0.8 7.4 0.5 7.3 0.0 7.2 -0.3" fill="#111111" fill-rule="evenodd" stroke="none"/>
    <path d="M4.5 -0.75 Q4.1 -0.95 3.15 -1.05 L2.05 -0.95 Q1.6 -0.85 1.05 -0.55 L1.25 -0.45 Q3.05 -0.8 3.45 -0.6 L3.75 -0.4 Q3.55 -0.3 3.35 -0.3 L3.8 -0.2 4.1 -0.2 4.55 -0.1 4.9 -0.1 5.2 0.2 4.85 0.4 4.9 0.4 4.85 0.35 4.8 0.35 3.85 0.15 Q2.5 -0.05 2.5 0.65 2.5 0.8 2.55 0.85 L2.6 0.85 3.6 0.95 3.65 0.9 3.6 0.95 3.4 1.9 Q3.65 2.35 3.85 2.9 L4.1 3.5 Q4.4 3.75 4.8 3.9 L5.15 4.2 4.95 4.2 4.2 4.15 3.55 3.5 2.4 2.6 Q1.8 1.4 1.35 1.25 L1.2 1.25 1.35 0.95 1.5 0.55 1.85 0.35 Q2.55 0.0 2.9 -0.1 2.2 -0.15 1.6 0.1 1.1 0.35 1.1 0.5 L1.1 0.6 1.0 0.85 Q0.9 1.0 0.9 1.25 L0.9 1.55 Q0.85 1.75 0.85 2.1 0.85 2.2 0.95 2.4 L0.95 2.6 Q1.05 3.25 1.35 3.8 1.55 4.2 2.45 4.8 3.2 5.7 3.8 5.7 L3.9 5.7 Q4.2 5.8 4.4 5.8 L5.55 5.25 Q6.65 5.1 7.6 4.6 L8.65 4.55 Q9.6 4.55 10.15 4.95 8.95 5.1 7.4 5.7 5.4 6.45 3.8 6.45 L3.45 6.45 Q2.45 5.85 1.55 5.15 0.55 4.4 0.05 3.7 -0.3 3.15 -0.65 2.05 L-0.7 1.85 -0.65 1.8 Q-0.6 1.7 -0.6 1.5 -0.6 0.25 0.0 -0.35 0.95 -1.25 3.75 -1.25 L4.1 -1.05 4.5 -0.75 M7.55 2.9 L7.65 2.6 Q7.9 2.95 8.25 3.4 L7.65 3.8 7.65 3.75 Q7.65 3.35 7.55 2.9" fill="#346b34" fill-rule="evenodd" stroke="none"/>
    <path d="M-0.7 1.85 L-0.65 2.05 Q-0.3 3.15 0.05 3.7 0.55 4.4 1.55 5.15 2.45 5.85 3.45 6.45 L3.8 6.45 Q5.4 6.45 7.4 5.7 8.95 5.1 10.15 4.95 L10.5 5.25 10.55 5.4 Q7.65 6.1 6.05 6.8 5.6 7.0 5.25 7.05 L3.55 7.1 Q2.4 7.1 0.8 5.55 0.05 4.8 -0.3 4.2 L-0.55 3.4 -0.7 2.95 -0.7 2.65 Q-0.75 2.4 -0.7 1.9 L-0.7 1.85 M7.6 4.6 Q6.65 5.1 5.55 5.25 L5.7 5.15 Q6.7 4.75 7.6 4.6 M3.9 5.7 L3.8 5.7 Q3.2 5.7 2.45 4.8 L2.4 4.8 2.5 4.85 2.75 5.0 2.8 5.05 Q3.45 5.5 3.9 5.7 M0.95 2.4 Q0.85 2.2 0.85 2.1 0.85 1.75 0.9 1.55 L0.9 2.0 0.95 2.3 0.95 2.4 M1.2 1.25 L1.35 1.25 Q1.8 1.4 2.4 2.6 L3.55 3.5 4.2 4.15 4.95 4.2 5.15 4.2 4.8 3.9 4.85 3.95 Q5.25 4.05 5.75 4.05 6.2 4.05 6.6 3.85 L6.7 3.9 Q7.2 3.75 7.55 2.9 7.65 3.35 7.65 3.75 L7.65 3.8 8.25 3.4 8.45 3.65 8.85 4.1 7.55 4.35 6.55 4.65 6.2 4.75 4.55 5.2 4.45 5.25 4.2 5.3 Q2.8 5.3 1.85 3.65 1.15 2.45 1.15 1.55 L1.2 1.25" fill="#285228" fill-rule="evenodd" stroke="none"/>
    <path d="M3.75 -0.4 L3.45 -0.6 Q3.05 -0.8 1.25 -0.45 L1.05 -0.55 Q1.6 -0.85 2.05 -0.95 L3.15 -1.05 Q4.1 -0.95 4.5 -0.75 L4.55 -0.7 Q4.1 -0.5 3.75 -0.4 M3.65 0.9 L3.6 0.95 2.6 0.85 2.55 0.85 Q2.5 0.8 2.5 0.65 2.5 -0.05 3.85 0.15 L4.8 0.35 4.7 0.4 4.05 0.65 3.9 0.65 3.9 0.7 3.65 0.85 3.65 0.9 M4.85 0.35 L4.9 0.4 4.85 0.4 4.85 0.35" fill="#d4d4d4" fill-rule="evenodd" stroke="none"/>
    <path d="M4.2 3.15 L3.95 2.8 Q3.55 2.2 3.55 1.85 3.55 1.5 3.95 1.15 4.35 0.75 5.0 0.7 L5.5 0.5 Q5.85 0.5 6.35 -0.1 L6.95 -0.85 Q7.05 -0.75 7.2 -0.3 L6.4 1.1 Q6.1 1.55 5.95 1.85 L5.05 2.5 Q4.55 2.85 4.2 3.15" fill="#ffffcc" fill-rule="evenodd" stroke="none"/>
    <path d="M7.2 -0.3 L7.3 0.0 7.4 0.5 7.45 0.8 7.5 0.9 7.5 0.95 Q7.5 1.65 6.9 2.6 L6.7 2.9 Q6.6 3.1 6.45 3.3 L6.4 3.35 6.35 3.35 Q5.95 3.65 5.25 3.65 4.65 3.65 4.2 3.15 4.55 2.85 5.05 2.5 L5.95 1.85 Q6.1 1.55 6.4 1.1 L7.2 -0.3" fill="#9e944b" fill-rule="evenodd" stroke="none"/>
  </g>
</svg>
