<?xml version="1.0" encoding="UTF-8" standalone="no"?>
<svg xmlns:ffdec="https://www.free-decompiler.com/flash" xmlns:xlink="http://www.w3.org/1999/xlink" ffdec:objectType="shape" height="10.75px" width="14.0px" xmlns="http://www.w3.org/2000/svg">
  <g transform="matrix(1.0, 0.0, 0.0, 1.0, 1.9, 2.9)">
    <path d="M-0.05 -0.45 L0.1 -0.75 Q0.6 -1.5 2.35 -1.9 L2.55 -1.9 2.8 -1.95 Q3.4 -1.95 4.15 -1.6 4.65 -1.35 4.9 -1.05 L4.75 -1.1 Q4.4 -1.2 4.4 -1.0 L4.45 -0.75 Q4.5 -0.55 4.65 -0.55 4.7 -0.4 4.9 -0.15 L5.15 0.1 Q5.2 0.2 5.25 0.35 5.2 0.3 5.15 0.3 4.75 0.3 4.5 0.7 L4.55 0.75 4.3 0.6 Q4.15 0.55 4.0 0.5 L4.0 0.4 3.65 0.25 Q3.45 0.2 3.35 0.2 3.3 0.6 3.85 0.6 L3.6 0.95 Q3.3 1.4 3.2 1.4 3.1 1.4 2.35 1.05 1.6 0.7 1.45 0.7 0.95 0.65 0.55 1.25 L0.2 1.85 Q0.05 1.85 -0.1 1.75 -0.2 1.65 -0.3 1.65 L-0.3 1.6 -0.15 1.2 -0.1 0.95 -0.05 0.85 Q0.05 0.95 0.2 0.95 0.35 0.95 0.7 0.8 L0.75 0.75 0.8 0.6 Q0.8 0.55 0.5 0.3 0.2 0.05 0.15 -0.2 L-0.05 -0.45 M5.1 -0.85 L5.15 -0.75 Q5.05 -0.65 5.05 -0.5 L4.95 -0.6 5.0 -0.65 Q5.1 -0.75 5.1 -0.8 L5.1 -0.85 M5.6 0.25 L5.55 0.2 5.55 0.15 5.3 -0.2 5.4 -0.3 5.4 -0.45 5.45 -0.45 5.45 -0.5 Q5.6 -0.6 5.75 -0.8 L5.8 -0.85 5.95 -0.85 Q6.3 -0.85 6.5 -0.7 6.6 -0.6 6.65 -0.45 6.5 -0.45 6.2 -0.25 5.8 0.0 5.6 0.25 M5.85 0.8 L5.75 0.9 5.75 0.85 5.85 0.8 M8.55 1.35 L8.45 1.45 8.2 1.3 Q7.75 1.0 7.75 1.4 7.75 1.65 8.0 1.9 8.15 2.0 8.3 2.1 L8.35 2.2 8.45 2.5 8.4 2.5 Q8.15 2.4 7.95 2.6 7.85 2.8 7.85 2.95 L7.75 3.2 7.65 3.55 7.45 3.45 Q7.25 3.35 7.05 3.35 6.9 3.35 6.8 3.7 6.65 4.0 6.4 4.0 5.7 4.0 5.6 4.3 L5.55 4.55 Q5.5 4.65 5.25 4.65 L4.5 4.1 Q3.75 3.55 3.65 3.55 3.55 3.55 2.95 4.2 2.4 4.85 1.9 4.85 1.85 4.85 1.65 4.6 1.45 4.3 1.45 4.15 1.45 4.05 1.6 3.75 L1.75 3.4 1.85 3.4 Q2.45 3.4 2.6 3.2 L2.6 3.0 Q2.6 2.95 2.7 2.75 L2.75 2.7 2.85 2.5 2.95 2.4 Q2.9 2.55 2.9 2.65 L2.85 2.8 Q2.8 2.85 2.8 2.95 2.8 3.0 2.85 3.1 2.9 3.2 2.95 3.2 3.15 3.1 3.25 2.85 L3.4 2.45 Q3.45 2.4 4.05 2.15 4.4 2.0 4.5 1.7 L4.6 1.7 Q4.85 1.7 5.45 1.5 L5.55 1.35 5.6 1.35 5.65 1.3 5.7 1.3 Q5.8 1.4 6.15 1.45 L6.7 1.6 Q7.05 1.6 7.05 1.15 L7.05 1.05 7.2 0.6 Q8.15 0.75 8.5 1.3 L8.55 1.35 M8.65 2.05 L8.65 2.0 8.7 1.8 8.75 2.05 8.65 2.05 M6.9 2.35 L6.9 2.3 Q6.9 2.1 6.65 1.8 6.3 1.5 6.1 1.55 L6.1 1.7 6.5 2.6 6.55 2.6 Q6.6 2.7 6.7 2.7 6.85 2.7 6.9 2.6 L7.0 2.45 7.0 2.35 6.9 2.35 M5.4 1.95 Q5.35 2.0 5.35 2.15 L5.3 2.45 Q5.25 2.65 5.25 2.7 5.25 2.85 5.45 3.0 5.7 3.2 5.95 3.2 L6.1 3.15 6.2 3.05 6.3 3.05 6.3 2.95 Q6.25 2.55 6.05 2.25 5.8 1.85 5.4 1.85 L5.4 1.95 M3.95 1.7 L4.0 1.65 3.95 1.7 M5.0 1.95 Q4.75 1.8 4.55 1.95 L4.4 2.15 Q4.4 2.25 4.5 2.4 4.6 2.65 4.75 2.65 5.05 2.65 5.05 2.2 5.05 2.05 5.0 1.95 M1.45 1.15 L1.3 1.15 1.45 1.15 M0.3 2.5 L0.3 2.8 0.15 2.7 0.3 2.5" fill="#ffffcc" fill-rule="evenodd" stroke="none"/>
    <path d="M4.9 -1.05 Q4.65 -1.35 4.15 -1.6 3.4 -1.95 2.8 -1.95 L2.55 -1.9 2.35 -1.9 Q0.6 -1.5 0.1 -0.75 L-0.05 -0.45 Q-0.2 -0.15 -0.25 0.3 L-0.2 0.35 Q-0.15 0.4 -0.1 0.5 -0.05 0.65 -0.05 0.7 L-0.05 0.85 -0.1 0.95 -0.15 1.2 -0.3 1.6 -0.3 1.65 Q-0.45 2.05 -0.45 2.1 -0.45 2.25 0.15 2.7 L0.3 2.8 0.3 2.5 Q0.35 2.15 0.5 1.8 0.8 1.3 1.3 1.15 L1.45 1.15 1.7 1.1 1.75 1.1 Q2.1 1.1 2.75 1.5 L2.95 1.65 Q3.1 1.55 3.25 1.6 L3.25 1.75 3.2 1.85 3.3 1.9 3.45 1.85 3.95 1.7 4.0 1.65 4.0 1.6 4.1 1.35 4.25 0.95 Q4.25 0.85 4.05 0.75 L3.85 0.6 Q3.3 0.6 3.35 0.2 3.45 0.2 3.65 0.25 L4.0 0.4 4.0 0.5 Q4.15 0.55 4.3 0.6 L4.55 0.75 4.55 0.8 4.6 0.85 4.6 0.9 Q4.6 0.95 4.55 1.05 4.5 1.1 4.5 1.2 L4.5 1.25 Q4.45 1.45 4.35 1.65 L4.3 1.75 Q4.0 2.15 3.35 2.15 L3.2 2.15 2.95 2.4 2.85 2.5 2.75 2.7 2.7 2.75 Q2.6 2.95 2.6 3.0 L2.6 3.2 Q2.45 3.4 1.85 3.4 L1.75 3.4 1.35 3.4 1.35 3.45 1.25 3.65 Q1.2 3.75 1.2 3.8 L1.1 4.1 Q1.0 4.35 1.0 4.5 1.0 4.7 1.35 5.15 1.6 5.5 1.85 5.65 1.95 5.7 2.05 5.7 2.2 5.7 2.95 5.0 3.7 4.35 3.75 4.35 3.95 4.35 4.1 4.4 4.4 4.5 4.8 4.8 L4.8 4.85 4.95 4.95 5.2 5.25 Q5.75 5.65 6.25 5.8 L6.0 4.9 Q6.0 4.85 6.05 4.75 L6.15 4.7 6.1 4.65 6.6 4.6 7.15 4.9 7.15 4.65 Q7.15 4.6 7.25 4.5 L7.35 4.35 7.35 4.3 Q7.5 4.25 7.6 4.25 L8.0 4.3 Q8.0 3.95 8.1 3.75 8.25 3.4 8.7 3.65 L8.7 3.6 8.55 3.15 8.55 3.1 8.6 3.1 Q8.6 3.0 8.65 3.0 L8.7 3.0 8.8 3.05 8.85 3.05 Q8.9 3.05 9.15 3.2 L9.3 3.25 8.9 2.65 8.6 2.15 8.55 2.05 8.65 2.05 8.75 2.05 8.7 1.8 8.55 1.35 8.5 1.3 Q8.15 0.75 7.2 0.6 L7.05 1.05 7.0 1.1 6.9 1.15 Q6.85 1.35 6.75 1.4 L6.6 1.4 6.6 1.25 6.25 1.3 5.75 1.2 5.7 1.3 5.65 1.3 5.6 1.35 5.55 1.35 5.4 1.35 5.4 0.9 5.45 0.5 5.3 0.4 5.25 0.35 Q5.2 0.2 5.15 0.1 L4.9 -0.15 Q4.7 -0.4 4.65 -0.55 L4.6 -0.6 4.6 -0.7 4.7 -0.7 Q4.8 -0.7 4.95 -0.6 L5.05 -0.5 Q5.05 -0.65 5.15 -0.75 L5.1 -0.85 4.9 -1.05 M8.7 5.55 Q7.95 5.75 7.25 6.1 L6.1 6.65 Q5.45 6.9 4.8 6.9 L4.05 6.8 4.0 6.8 Q2.05 6.8 0.4 5.15 -0.25 4.5 -0.65 3.8 -1.05 3.1 -1.05 2.7 L-1.1 2.35 -1.15 1.95 -1.05 1.25 Q-0.95 0.65 -0.95 0.6 -0.95 0.45 -0.5 -0.2 L-0.5 -0.4 Q-0.5 -0.8 0.3 -1.45 1.35 -2.25 2.75 -2.25 L3.2 -2.2 Q2.7 -2.45 2.1 -2.45 1.35 -2.45 0.8 -2.3 0.25 -1.95 -0.25 -1.45 -0.45 -1.3 -0.55 -1.05 L-1.05 0.2 Q-1.55 1.5 -1.55 2.15 L-1.5 2.65 Q-1.4 2.95 -1.4 3.2 -1.05 4.25 -0.2 5.2 1.6 7.25 4.35 7.25 5.35 7.25 6.4 6.9 L7.15 6.6 7.2 6.55 7.3 6.5 Q7.95 6.2 8.6 6.0 8.95 5.85 9.3 5.8 L9.45 5.75 Q9.95 5.6 10.3 5.6 L10.85 5.7 Q11.05 5.75 11.15 5.8 L11.2 5.75 Q11.65 5.5 11.65 5.15 11.65 5.1 11.3 4.65 L11.35 4.95 11.5 4.95 11.55 5.1 Q11.35 5.25 11.0 5.25 L9.3 5.4 8.7 5.55 M5.7 -1.1 L5.85 -1.1 6.05 -1.15 Q6.7 -1.15 7.0 -0.5 7.2 -0.15 7.25 0.25 8.0 0.25 8.5 0.7 8.95 1.1 8.95 1.55 L9.0 1.8 9.1 1.8 Q9.4 2.0 9.85 2.4 10.45 3.0 10.85 3.75 11.25 3.9 11.6 4.35 12.1 4.9 12.1 5.45 12.1 5.8 11.8 6.0 11.5 6.35 10.85 6.25 L10.75 6.15 10.65 6.2 10.2 6.2 Q9.9 6.2 7.6 7.0 5.85 7.6 4.55 7.75 L3.5 7.85 2.9 7.75 Q2.5 7.75 2.05 7.55 L2.0 7.55 Q0.5 7.15 -0.7 5.3 L-0.75 5.2 Q-1.65 4.2 -1.85 2.8 -1.9 2.45 -1.9 2.2 -1.9 1.75 -1.85 1.3 L-1.85 0.75 -1.8 0.65 Q-1.75 0.15 -1.4 -0.65 -1.25 -1.1 -1.05 -1.4 -0.95 -1.75 -0.4 -2.2 0.35 -2.9 1.45 -2.9 3.35 -2.9 4.25 -1.85 L4.45 -1.75 Q5.4 -1.35 5.55 -1.1 L5.7 -1.1 M6.65 -0.45 Q6.6 -0.6 6.5 -0.7 6.3 -0.85 5.95 -0.85 L5.8 -0.85 5.75 -0.8 Q5.6 -0.6 5.45 -0.5 L5.45 -0.45 5.4 -0.45 5.4 -0.3 5.3 -0.2 5.55 0.15 5.55 0.2 5.6 0.25 5.65 0.25 Q5.8 0.4 5.8 0.6 L5.75 0.85 5.75 0.9 5.85 0.8 5.85 0.75 6.25 0.25 6.35 0.1 Q6.55 -0.1 6.7 -0.1 L6.7 -0.3 6.65 -0.45 M10.05 5.05 L11.15 4.9 Q10.65 4.15 9.7 3.0 L9.4 2.65 9.6 2.95 Q9.75 3.25 9.95 3.9 L9.95 4.0 9.85 4.05 Q9.8 4.05 9.55 3.9 L9.2 3.7 9.1 3.6 9.15 3.9 9.15 4.0 Q9.1 4.05 9.1 4.0 L9.05 4.05 8.85 4.05 8.45 3.9 Q8.35 3.9 8.3 4.0 8.25 4.05 8.25 4.25 8.25 4.4 8.2 4.5 L8.05 4.4 Q7.9 4.3 7.8 4.3 7.65 4.3 7.45 4.4 7.3 4.5 7.3 4.55 7.3 4.8 7.5 4.85 7.45 5.3 7.2 5.3 L7.05 5.25 7.15 5.3 Q7.05 5.15 6.8 4.95 6.4 4.6 6.15 4.7 L6.15 4.8 Q6.15 4.85 6.45 5.25 L6.5 5.35 6.5 5.4 6.75 6.05 8.55 5.25 8.65 5.25 9.1 5.2 9.25 5.15 9.8 5.1 10.05 5.05 M6.7 0.4 L6.6 0.25 6.25 0.65 6.1 0.85 6.35 0.8 6.65 0.7 6.7 0.7 6.7 0.4 M6.55 2.6 L6.5 2.6 6.1 1.7 6.1 1.55 Q6.3 1.5 6.65 1.8 6.9 2.1 6.9 2.3 L6.9 2.35 6.9 2.4 Q6.95 2.45 6.8 2.45 L6.75 2.45 6.75 2.5 6.7 2.6 6.6 2.55 6.55 2.6 M6.1 3.15 Q6.0 3.05 5.85 2.85 L5.85 2.8 Q5.65 2.9 5.5 2.9 L5.4 2.85 5.35 2.75 5.35 2.5 Q5.35 2.15 5.4 2.0 L5.4 1.95 5.4 1.85 Q5.8 1.85 6.05 2.25 6.25 2.55 6.3 2.95 L6.3 3.05 6.2 3.05 6.1 3.15 M6.0 6.25 L6.2 6.25 6.1 6.2 Q5.75 6.05 5.3 5.75 L5.25 5.8 4.6 5.3 3.85 4.75 3.0 5.7 Q2.7 6.0 2.45 6.1 L2.5 6.15 Q3.05 6.35 3.6 6.4 L4.9 6.4 5.8 6.3 5.95 6.3 6.0 6.25 M1.25 2.55 Q1.75 2.95 1.9 2.95 L2.1 2.9 Q2.25 2.65 2.5 2.45 L2.6 2.15 2.7 1.95 Q1.9 1.4 1.4 1.6 1.1 1.75 0.9 2.25 L1.25 2.55 M0.35 4.7 L0.65 5.0 0.7 5.0 Q0.55 4.75 0.55 4.55 L0.55 4.4 0.65 3.4 0.65 3.35 0.6 3.35 0.5 3.3 0.4 3.3 Q-0.1 3.3 -0.5 2.8 -0.8 2.45 -0.85 2.2 L-0.85 2.25 -0.8 2.65 -0.75 2.85 Q-0.75 3.65 0.35 4.7 M-0.2 -1.8 L-0.35 -1.7 -0.35 -1.6 0.0 -1.95 -0.2 -1.8 M-1.15 -0.05 L-1.3 0.35 -0.95 -0.5 -1.0 -0.45 -1.15 -0.05 M-0.85 2.0 Q-0.7 1.15 -0.45 0.7 L-0.55 0.45 -0.65 0.75 Q-0.85 1.45 -0.85 1.9 L-0.85 2.0 -0.85 2.0" fill="#111111" fill-rule="evenodd" stroke="none"/>
    <path d="M1.4 -2.35 L1.25 -2.4 0.9 -2.3 Q0.85 -2.25 0.8 -2.15 L0.85 -2.0 1.05 -1.95 Q1.3 -2.05 1.4 -2.1 L1.45 -2.25 Q1.45 -2.35 1.4 -2.35 M9.3 5.8 Q8.95 5.85 8.6 6.0 7.95 6.2 7.3 6.5 L7.2 6.55 7.15 6.6 6.4 6.9 Q5.35 7.25 4.35 7.25 1.6 7.25 -0.2 5.2 -1.05 4.25 -1.4 3.2 -1.4 2.95 -1.5 2.65 L-1.55 2.15 Q-1.55 1.5 -1.05 0.2 L-0.55 -1.05 Q-0.45 -1.3 -0.25 -1.45 0.25 -1.95 0.8 -2.3 1.35 -2.45 2.1 -2.45 2.7 -2.45 3.2 -2.2 L2.75 -2.25 Q1.35 -2.25 0.3 -1.45 -0.5 -0.8 -0.5 -0.4 L-0.5 -0.2 Q-0.95 0.45 -0.95 0.6 -0.95 0.65 -1.05 1.25 L-1.15 1.95 -1.1 2.35 -1.05 2.7 Q-1.05 3.1 -0.65 3.8 -0.25 4.5 0.4 5.15 2.05 6.8 4.0 6.8 L4.05 6.8 4.8 6.9 Q5.45 6.9 6.1 6.65 L7.25 6.1 Q7.95 5.75 8.7 5.55 L8.65 5.6 Q8.65 5.75 8.7 5.75 L8.8 5.8 9.3 5.8 M9.3 5.4 L11.0 5.25 Q11.35 5.25 11.55 5.1 L11.5 4.95 11.35 4.95 11.3 4.65 Q11.65 5.1 11.65 5.15 11.65 5.5 11.2 5.75 L11.15 5.8 Q11.05 5.75 10.85 5.7 L10.3 5.6 Q9.95 5.6 9.45 5.75 L9.5 5.7 Q9.55 5.65 9.5 5.55 L9.3 5.4 M9.55 3.9 Q9.5 4.0 9.4 4.0 L9.65 4.3 9.5 4.25 9.3 4.25 Q8.75 4.2 8.75 4.6 8.75 4.85 9.15 4.85 9.45 4.85 9.45 4.8 9.45 4.65 9.75 4.65 9.8 4.65 9.8 4.55 L10.05 5.05 9.8 5.1 9.25 5.15 9.15 5.15 9.1 5.2 8.65 5.25 Q8.65 5.2 8.6 5.2 8.3 5.4 8.1 5.4 8.0 5.4 7.75 4.95 L7.5 4.55 7.5 4.5 7.45 4.45 7.55 4.6 7.5 4.85 Q7.3 4.8 7.3 4.55 7.3 4.5 7.45 4.4 7.65 4.3 7.8 4.3 7.9 4.3 8.05 4.4 L8.2 4.5 Q8.25 4.4 8.25 4.25 8.25 4.05 8.3 4.0 8.35 3.9 8.45 3.9 L8.85 4.05 9.05 4.05 9.1 4.0 Q9.1 4.05 9.15 4.0 L9.15 3.9 9.1 3.6 9.2 3.7 9.55 3.9 M6.5 5.35 L6.45 5.25 Q6.15 4.85 6.15 4.8 L6.15 4.7 Q6.4 4.6 6.8 4.95 7.05 5.15 7.15 5.3 L7.05 5.25 6.6 5.0 6.55 5.0 6.25 4.8 6.5 5.35 M6.1 6.2 L6.0 6.25 5.95 6.3 5.8 6.3 Q5.5 6.2 4.15 5.35 4.1 5.35 3.5 5.75 3.0 6.1 2.55 6.15 L2.5 6.15 2.45 6.1 Q2.7 6.0 3.0 5.7 L3.85 4.75 4.6 5.3 5.25 5.8 5.3 5.75 Q5.75 6.05 6.1 6.2 M-0.75 2.85 L-0.8 2.65 -0.85 2.25 -0.85 2.2 Q-0.8 2.45 -0.5 2.8 -0.1 3.3 0.4 3.3 L0.5 3.3 0.6 3.35 0.65 3.35 0.65 3.4 0.55 4.4 0.55 4.55 Q0.55 4.75 0.7 5.0 L0.65 5.0 0.35 4.7 0.3 4.45 Q0.25 3.95 0.35 3.65 -0.4 3.35 -0.75 2.9 L-0.75 2.85" fill="#285228" fill-rule="evenodd" stroke="none"/>
    <path d="M1.4 -2.35 Q1.45 -2.35 1.45 -2.25 L1.4 -2.1 Q1.3 -2.05 1.05 -1.95 L0.85 -2.0 0.8 -2.15 Q0.85 -2.25 0.9 -2.3 L1.25 -2.4 1.4 -2.35 M9.3 5.8 L8.8 5.8 8.7 5.75 Q8.65 5.75 8.65 5.6 L8.7 5.55 9.3 5.4 9.5 5.55 Q9.55 5.65 9.5 5.7 L9.45 5.75 9.3 5.8 M9.65 4.3 Q9.8 4.35 9.8 4.45 L9.8 4.55 Q9.8 4.65 9.75 4.65 9.45 4.65 9.45 4.8 9.45 4.85 9.15 4.85 8.75 4.85 8.75 4.6 8.75 4.2 9.3 4.25 L9.5 4.25 9.65 4.3" fill="#d4d4d4" fill-rule="evenodd" stroke="none"/>
    <path d="M-0.05 -0.45 L0.15 -0.2 Q0.2 0.05 0.5 0.3 0.8 0.55 0.8 0.6 L0.75 0.75 0.7 0.8 Q0.35 0.95 0.2 0.95 0.05 0.95 -0.05 0.85 L-0.05 0.7 Q-0.05 0.65 -0.1 0.5 -0.15 0.4 -0.2 0.35 L-0.25 0.3 Q-0.2 -0.15 -0.05 -0.45 M-0.3 1.65 Q-0.2 1.65 -0.1 1.75 0.05 1.85 0.2 1.85 L0.55 1.25 Q0.95 0.65 1.45 0.7 1.6 0.7 2.35 1.05 3.1 1.4 3.2 1.4 3.3 1.4 3.6 0.95 L3.85 0.6 4.05 0.75 Q4.25 0.85 4.25 0.95 L4.1 1.35 4.0 1.6 4.0 1.65 3.95 1.7 3.45 1.85 3.3 1.9 3.2 1.85 3.25 1.75 3.25 1.6 Q3.1 1.55 2.95 1.65 L2.75 1.5 Q2.1 1.1 1.75 1.1 L1.7 1.1 1.45 1.15 1.3 1.15 Q0.8 1.3 0.5 1.8 0.35 2.15 0.3 2.5 L0.15 2.7 Q-0.45 2.25 -0.45 2.1 -0.45 2.05 -0.3 1.65 M4.55 0.75 L4.5 0.7 Q4.75 0.3 5.15 0.3 5.2 0.3 5.25 0.35 L5.3 0.4 5.45 0.5 5.4 0.9 5.4 1.35 5.55 1.35 5.45 1.5 Q4.85 1.7 4.6 1.7 L4.5 1.7 Q4.4 2.0 4.05 2.15 3.45 2.4 3.4 2.45 L3.25 2.85 Q3.15 3.1 2.95 3.2 2.9 3.2 2.85 3.1 2.8 3.0 2.8 2.95 2.8 2.85 2.85 2.8 L2.9 2.65 Q2.9 2.55 2.95 2.4 L3.2 2.15 3.35 2.15 Q4.0 2.15 4.3 1.75 L4.35 1.65 Q4.45 1.45 4.5 1.25 L4.5 1.2 Q4.5 1.1 4.55 1.05 4.6 0.95 4.6 0.9 L4.6 0.85 4.55 0.8 4.55 0.75 M4.65 -0.55 Q4.5 -0.55 4.45 -0.75 L4.4 -1.0 Q4.4 -1.2 4.75 -1.1 L4.9 -1.05 5.1 -0.85 5.1 -0.8 Q5.1 -0.75 5.0 -0.65 L4.95 -0.6 Q4.8 -0.7 4.7 -0.7 L4.6 -0.7 4.6 -0.6 4.65 -0.55 M5.6 0.25 Q5.8 0.0 6.2 -0.25 6.5 -0.45 6.65 -0.45 L6.7 -0.3 6.7 -0.1 Q6.55 -0.1 6.35 0.1 L6.25 0.25 5.85 0.75 5.85 0.8 5.75 0.85 5.8 0.6 Q5.8 0.4 5.65 0.25 L5.6 0.25 M8.55 1.35 L8.7 1.8 8.65 2.0 8.65 2.05 8.55 2.05 8.6 2.15 8.9 2.65 9.3 3.25 9.15 3.2 Q8.9 3.05 8.85 3.05 L8.8 3.05 8.7 3.0 8.65 3.0 Q8.6 3.0 8.6 3.1 L8.55 3.1 8.55 3.15 8.7 3.6 8.7 3.65 Q8.25 3.4 8.1 3.75 8.0 3.95 8.0 4.3 L7.6 4.25 Q7.5 4.25 7.35 4.3 L7.35 4.35 7.25 4.5 Q7.15 4.6 7.15 4.65 L7.15 4.9 6.6 4.6 6.1 4.65 6.15 4.7 6.05 4.75 Q6.0 4.85 6.0 4.9 L6.25 5.8 Q5.75 5.65 5.2 5.25 L4.95 4.95 4.8 4.85 4.8 4.8 Q4.4 4.5 4.1 4.4 3.95 4.35 3.75 4.35 3.7 4.35 2.95 5.0 2.2 5.7 2.05 5.7 1.95 5.7 1.85 5.65 1.6 5.5 1.35 5.15 1.0 4.7 1.0 4.5 1.0 4.35 1.1 4.1 L1.2 3.8 Q1.2 3.75 1.25 3.65 L1.35 3.45 1.35 3.4 1.75 3.4 1.6 3.75 Q1.45 4.05 1.45 4.15 1.45 4.3 1.65 4.6 1.85 4.85 1.9 4.85 2.4 4.85 2.95 4.2 3.55 3.55 3.65 3.55 3.75 3.55 4.5 4.1 L5.25 4.65 Q5.5 4.65 5.55 4.55 L5.6 4.3 Q5.7 4.0 6.4 4.0 6.65 4.0 6.8 3.7 6.9 3.35 7.05 3.35 7.25 3.35 7.45 3.45 L7.65 3.55 7.75 3.2 7.85 2.95 Q7.85 2.8 7.95 2.6 8.15 2.4 8.4 2.5 L8.45 2.5 8.35 2.2 8.3 2.1 Q8.15 2.0 8.0 1.9 7.75 1.65 7.75 1.4 7.75 1.0 8.2 1.3 L8.45 1.45 8.55 1.35 M7.05 1.05 L7.05 1.15 Q7.05 1.6 6.7 1.6 L6.15 1.45 Q5.8 1.4 5.7 1.3 L5.75 1.2 6.25 1.3 6.6 1.25 6.6 1.4 6.75 1.4 Q6.85 1.35 6.9 1.15 L7.0 1.1 7.05 1.05 M6.9 2.35 L7.0 2.35 7.0 2.45 6.9 2.6 Q6.85 2.7 6.7 2.7 6.6 2.7 6.55 2.6 L6.6 2.55 6.7 2.6 6.75 2.5 6.75 2.45 6.8 2.45 Q6.95 2.45 6.9 2.4 L6.9 2.35 M5.4 1.95 L5.4 2.0 Q5.35 2.15 5.35 2.5 L5.35 2.75 5.4 2.85 5.5 2.9 Q5.65 2.9 5.85 2.8 L5.85 2.85 Q6.0 3.05 6.1 3.15 L5.95 3.2 Q5.7 3.2 5.45 3.0 5.25 2.85 5.25 2.7 5.25 2.65 5.3 2.45 L5.35 2.15 Q5.35 2.0 5.4 1.95 M5.0 1.95 Q5.05 2.05 5.05 2.2 5.05 2.65 4.75 2.65 4.6 2.65 4.5 2.4 4.4 2.25 4.4 2.15 L4.55 1.95 Q4.75 1.8 5.0 1.95" fill="#9e944b" fill-rule="evenodd" stroke="none"/>
    <path d="M9.55 3.9 Q9.8 4.05 9.85 4.05 L9.95 4.0 9.95 3.9 Q9.75 3.25 9.6 2.95 L9.4 2.65 9.7 3.0 Q10.65 4.15 11.15 4.9 L10.05 5.05 9.8 4.55 9.8 4.45 Q9.8 4.35 9.65 4.3 L9.4 4.0 Q9.5 4.0 9.55 3.9 M9.25 5.15 L9.1 5.2 9.15 5.15 9.25 5.15 M8.65 5.25 L8.55 5.25 6.75 6.05 6.5 5.4 6.5 5.35 6.25 4.8 6.55 5.0 6.6 5.0 7.05 5.25 7.2 5.3 Q7.45 5.3 7.5 4.85 L7.55 4.6 7.45 4.45 7.5 4.5 7.5 4.55 7.75 4.95 Q8.0 5.4 8.1 5.4 8.3 5.4 8.6 5.2 8.65 5.2 8.65 5.25 M6.1 6.2 L6.2 6.25 6.0 6.25 6.1 6.2 M5.8 6.3 L4.9 6.4 3.6 6.4 Q3.05 6.35 2.5 6.15 L2.55 6.15 Q3.0 6.1 3.5 5.75 4.1 5.35 4.15 5.35 5.5 6.2 5.8 6.3 M-0.75 2.85 L-0.75 2.9 Q-0.4 3.35 0.35 3.65 0.25 3.95 0.3 4.45 L0.35 4.7 Q-0.75 3.65 -0.75 2.85 M-0.85 2.0 L-0.85 1.9 Q-0.85 1.45 -0.65 0.75 L-0.55 0.45 -0.45 0.7 Q-0.7 1.15 -0.85 2.0" fill="#346b34" fill-rule="evenodd" stroke="none"/>
    <path d="M6.7 0.4 L6.7 0.7 6.65 0.7 6.35 0.8 6.1 0.85 6.25 0.65 6.6 0.25 6.7 0.4 M1.25 2.55 L0.9 2.25 Q1.1 1.75 1.4 1.6 1.9 1.4 2.7 1.95 L2.6 2.15 2.5 2.45 Q2.25 2.65 2.1 2.9 L1.9 2.95 Q1.75 2.95 1.25 2.55" fill="#736a37" fill-rule="evenodd" stroke="none"/>
  </g>
</svg>
