<?xml version="1.0" encoding="UTF-8" standalone="no"?>
<svg xmlns:ffdec="https://www.free-decompiler.com/flash" xmlns:xlink="http://www.w3.org/1999/xlink" ffdec:objectType="shape" height="7.7px" width="9.9px" xmlns="http://www.w3.org/2000/svg">
  <g transform="matrix(1.0, 0.0, 0.0, 1.0, -0.2, -0.1)">
    <path d="M7.25 1.4 L7.75 1.7 8.15 2.1 Q8.15 2.3 7.85 2.45 L7.9 2.55 7.8 2.5 7.7 2.55 7.6 2.55 Q8.1 2.9 8.55 3.5 L9.05 4.15 Q10.1 5.8 10.1 6.7 L10.1 6.8 9.95 6.85 Q9.8 6.95 9.6 6.95 9.5 6.95 9.25 6.8 L9.05 6.75 8.4 6.6 Q8.05 6.6 6.7 7.2 5.35 7.8 4.55 7.8 3.9 7.8 3.15 7.4 2.65 7.2 2.45 7.0 L2.0 7.05 1.85 7.05 1.85 7.1 1.55 7.05 Q1.3 6.9 1.1 6.6 L1.1 6.45 1.05 6.45 0.85 6.1 Q0.6 5.8 0.5 5.4 0.45 5.2 0.45 4.85 0.4 4.65 0.4 4.45 L0.3 3.85 0.2 3.2 Q0.2 2.4 0.5 1.65 0.7 1.05 1.1 0.6 1.1 0.45 1.35 0.35 L1.5 0.25 Q1.5 0.1 1.5 0.3 L1.6 0.3 1.75 0.2 1.75 0.25 1.95 0.2 2.9 0.15 3.65 0.1 4.7 0.15 Q4.95 0.35 5.55 0.55 6.3 0.9 6.95 1.2 7.1 1.2 7.2 1.3 L7.25 1.4 M1.6 0.85 Q1.3 1.0 1.15 2.25 1.05 2.95 1.0 3.65 L1.1 4.2 Q1.1 4.45 1.35 5.45 L1.35 5.5 1.85 5.7 Q2.45 5.7 3.15 5.15 3.25 5.05 3.35 5.0 L3.8 4.6 4.45 3.95 4.3 4.15 4.55 3.95 Q4.55 3.25 4.9 2.6 5.35 1.8 6.35 1.35 L6.0 1.2 5.8 1.15 5.55 1.05 Q3.9 0.65 3.15 0.65 L2.9 0.65 2.45 0.7 1.65 0.85 1.6 0.85 M7.0 1.75 L6.9 1.65 6.7 1.7 Q6.2 1.95 5.65 2.45 5.3 2.75 5.05 3.25 L5.0 3.4 Q4.9 4.1 4.75 4.15 L4.25 4.6 3.8 4.95 3.05 5.5 2.85 5.6 Q2.35 6.0 2.1 6.0 L1.9 6.0 Q1.65 6.0 1.45 5.8 1.65 6.5 1.85 6.6 L1.9 6.7 1.9 6.75 2.0 6.7 Q2.5 6.35 3.0 6.05 3.25 5.9 3.55 5.75 L3.65 5.7 3.75 5.6 3.85 5.55 5.15 4.5 5.2 4.35 5.3 4.0 5.4 3.75 5.45 3.7 5.45 3.65 5.5 3.55 5.8 3.15 Q6.2 2.7 6.65 2.45 L6.85 2.35 6.9 2.35 6.9 2.3 7.05 2.2 7.3 2.0 7.25 2.0 7.0 1.75 M7.4 2.9 L7.3 2.7 7.05 2.8 6.65 3.05 Q6.35 3.3 6.1 3.6 L5.95 3.85 5.55 5.0 5.5 5.1 5.5 5.15 5.45 5.15 Q5.25 5.35 4.7 5.7 L4.3 5.95 Q4.65 6.1 4.95 6.1 L5.35 6.05 Q5.8 5.95 6.65 5.6 7.85 5.1 8.1 5.1 8.45 5.1 8.7 5.2 L8.75 5.25 8.95 5.3 9.0 5.35 8.65 4.8 7.9 3.55 7.75 3.4 7.6 3.15 7.4 2.9 M7.4 1.8 L7.4 1.8 M7.35 1.95 L7.35 1.95 M9.25 5.8 L8.8 5.6 8.65 5.5 Q8.25 5.35 8.05 5.35 L7.8 5.4 Q7.5 5.45 7.15 5.65 L6.85 5.8 6.7 5.9 Q5.95 6.4 5.1 6.4 L4.9 6.4 4.5 6.35 4.3 6.3 Q4.1 6.25 4.0 6.15 L3.85 6.25 3.45 6.5 3.05 6.7 2.95 6.8 3.2 6.8 3.5 6.85 3.7 6.9 5.05 7.1 5.1 7.1 5.5 7.0 6.3 6.75 6.4 6.65 Q7.2 6.05 8.3 6.05 L8.45 6.05 Q8.75 6.1 9.15 6.25 9.45 6.35 9.6 6.5 L9.45 6.15 9.25 5.8 M5.05 5.05 Q5.1 5.05 5.1 5.1 L5.1 5.0 5.05 5.05" fill="#111111" fill-rule="evenodd" stroke="none"/>
    <path d="M5.8 1.15 L6.0 1.2 6.35 1.35 Q5.35 1.8 4.9 2.6 4.55 3.25 4.55 3.95 L4.3 4.15 4.45 3.95 3.8 4.6 3.35 5.0 Q3.25 5.05 3.15 5.15 2.45 5.7 1.85 5.7 L1.35 5.5 1.35 5.45 Q1.1 4.45 1.1 4.2 L1.0 3.65 Q1.05 2.95 1.15 2.25 1.3 1.0 1.6 0.85 L1.55 1.1 Q1.35 1.55 1.35 2.1 1.35 2.45 1.95 3.25 2.65 4.2 3.3 4.2 3.8 4.2 4.15 3.7 4.3 3.45 4.6 2.65 4.85 1.9 5.1 1.6 5.4 1.25 5.8 1.15 M8.65 4.8 L9.0 5.35 8.95 5.3 8.75 5.25 8.7 5.2 Q8.45 5.1 8.1 5.1 7.85 5.1 6.65 5.6 5.8 5.95 5.35 6.05 L4.95 6.1 Q4.65 6.1 4.3 5.95 L4.7 5.7 Q5.25 5.35 5.45 5.15 L5.5 5.15 5.5 5.1 5.55 5.0 5.95 3.85 6.1 3.6 Q6.35 3.3 6.65 3.05 L7.05 2.8 7.3 2.7 7.4 2.9 7.15 3.05 Q6.2 3.7 6.2 4.3 6.2 4.35 6.5 4.65 6.85 4.95 7.0 4.95 L7.65 4.85 8.5 4.75 8.65 4.8 M7.75 3.4 L7.9 3.55 7.75 3.75 Q7.7 3.85 7.5 4.1 L7.3 4.4 7.2 4.4 7.2 4.3 Q7.2 4.15 7.65 3.5 L7.75 3.4 M6.05 4.9 L5.6 5.45 5.55 5.5 5.6 5.5 Q6.0 5.5 6.15 5.4 L6.35 5.2 6.45 5.25 6.55 5.25 Q6.4 5.0 6.3 4.9 6.15 4.75 6.0 4.8 L6.05 4.9 M2.85 1.7 Q2.85 1.55 3.0 1.5 L3.3 1.5 3.35 1.45 3.45 1.4 3.4 1.6 3.4 1.75 3.15 1.95 Q3.05 1.95 2.95 1.85 L2.85 1.7 M2.2 1.55 L2.1 1.55 2.1 1.5 Q2.1 1.45 2.3 1.25 2.55 1.1 2.65 1.15 L2.55 1.25 2.45 1.35 2.2 1.55 M1.3 3.05 L1.25 2.95 1.2 3.0 1.35 3.3 1.35 3.65 Q1.35 3.85 1.65 4.35 1.95 4.9 2.25 4.9 2.9 4.8 3.1 4.7 L3.15 4.65 Q2.35 4.4 1.9 3.85 1.75 3.7 1.3 2.95 L1.3 3.05" fill="#397373" fill-rule="evenodd" stroke="none"/>
    <path d="M5.05 3.25 Q5.3 2.75 5.65 2.45 6.2 1.95 6.7 1.7 L6.9 1.65 7.0 1.75 7.1 1.85 6.8 2.0 6.0 2.45 5.1 3.3 5.05 3.25 M4.3 6.3 L4.5 6.35 4.9 6.4 5.1 6.4 Q5.95 6.4 6.7 5.9 L6.85 5.8 7.15 5.65 Q7.5 5.45 7.8 5.4 L8.05 5.35 Q8.25 5.35 8.65 5.5 L8.8 5.6 9.25 5.8 9.2 5.9 8.85 5.7 Q8.5 5.45 8.0 5.45 L6.75 6.0 Q5.45 6.55 4.9 6.55 L4.45 6.5 4.2 6.4 4.25 6.35 4.25 6.3 4.3 6.3" fill="#d5d3b1" fill-rule="evenodd" stroke="none"/>
    <path d="M5.1 3.3 L6.0 2.45 6.8 2.0 7.1 1.85 7.0 1.75 7.25 2.0 Q7.0 2.1 6.6 2.3 5.55 2.8 5.15 3.55 L5.1 3.35 5.1 3.3 M4.25 6.35 L4.2 6.4 4.45 6.5 4.9 6.55 Q5.45 6.55 6.75 6.0 L8.0 5.45 Q8.5 5.45 8.85 5.7 L9.2 5.9 9.15 5.95 Q8.5 5.7 8.25 5.7 7.95 5.7 7.5 5.9 7.05 6.05 6.7 6.25 6.45 6.4 5.65 6.7 5.35 6.75 5.2 6.85 L5.0 6.85 4.35 6.8 3.85 6.7 4.25 6.35 M4.25 6.65 L4.25 6.65" fill="#9a9560" fill-rule="evenodd" stroke="none"/>
    <path d="M5.05 3.25 L5.1 3.3 5.1 3.35 5.15 3.55 Q5.55 2.8 6.6 2.3 7.0 2.1 7.25 2.0 L7.3 2.0 7.05 2.2 6.9 2.3 6.9 2.35 6.85 2.35 6.65 2.45 Q6.2 2.7 5.8 3.15 L5.5 3.55 5.45 3.65 5.45 3.7 5.4 3.75 5.3 4.0 5.2 4.35 5.15 4.5 3.85 5.55 3.75 5.6 3.65 5.7 3.55 5.75 Q3.25 5.9 3.0 6.05 2.5 6.35 2.0 6.7 L1.9 6.75 1.9 6.7 1.85 6.6 Q1.65 6.5 1.45 5.8 1.65 6.0 1.9 6.0 L2.1 6.0 Q2.35 6.0 2.85 5.6 L3.05 5.5 3.8 4.95 4.25 4.6 4.75 4.15 Q4.9 4.1 5.0 3.4 L5.05 3.25 M4.3 6.3 L4.25 6.3 4.25 6.35 3.85 6.7 4.35 6.8 5.0 6.85 5.2 6.85 Q5.35 6.75 5.65 6.7 6.45 6.4 6.7 6.25 7.05 6.05 7.5 5.9 7.95 5.7 8.25 5.7 8.5 5.7 9.15 5.95 L9.2 5.9 9.25 5.8 9.45 6.15 9.6 6.5 Q9.45 6.35 9.15 6.25 8.75 6.1 8.45 6.05 L8.3 6.05 Q7.2 6.05 6.4 6.65 L6.3 6.75 5.5 7.0 5.1 7.1 5.05 7.1 3.7 6.9 3.5 6.85 3.2 6.8 3.05 6.7 3.45 6.5 3.85 6.25 4.0 6.15 Q4.1 6.25 4.3 6.3" fill="#59542f" fill-rule="evenodd" stroke="none"/>
    <path d="M5.8 1.15 Q5.4 1.25 5.1 1.6 4.85 1.9 4.6 2.65 4.3 3.45 4.15 3.7 3.8 4.2 3.3 4.2 2.65 4.2 1.95 3.25 1.35 2.45 1.35 2.1 1.35 1.55 1.55 1.1 L1.6 0.85 1.65 0.85 2.45 0.7 2.9 0.65 3.15 0.65 Q3.9 0.65 5.55 1.05 L5.8 1.15 M8.65 4.8 L8.5 4.75 7.65 4.85 7.0 4.95 Q6.85 4.95 6.5 4.65 6.2 4.35 6.2 4.3 6.2 3.7 7.15 3.05 L7.4 2.9 7.6 3.15 7.75 3.4 7.65 3.5 Q7.2 4.15 7.2 4.3 L7.2 4.4 7.3 4.4 7.25 4.45 7.35 4.45 7.65 4.05 Q7.8 3.85 7.8 3.75 L7.75 3.75 7.9 3.55 8.65 4.8 M6.05 4.9 L6.35 5.2 6.15 5.4 Q6.0 5.5 5.6 5.5 L5.55 5.5 5.6 5.45 6.05 4.9 M2.85 1.7 L2.9 1.9 Q2.95 2.1 3.1 2.1 3.25 2.1 3.4 1.95 3.55 1.8 3.55 1.75 L3.55 1.7 3.5 1.65 3.4 1.75 3.4 1.6 3.45 1.4 3.35 1.45 3.3 1.5 3.0 1.5 Q2.85 1.55 2.85 1.7 M4.4 1.15 L4.55 1.1 4.05 0.9 Q3.5 0.7 3.2 0.7 L2.0 1.0 1.85 0.95 Q1.7 0.95 1.7 1.05 1.7 1.2 1.8 1.3 L2.0 1.1 2.85 1.0 4.0 1.1 4.2 1.05 Q4.25 1.05 4.4 1.15 M2.55 1.25 L2.65 1.15 Q2.55 1.1 2.3 1.25 2.1 1.45 2.1 1.5 L2.1 1.55 2.2 1.55 2.15 1.65 2.2 1.65 2.5 1.45 Q2.7 1.25 2.7 1.15 L2.55 1.25 M1.3 3.05 L1.3 2.95 Q1.75 3.7 1.9 3.85 2.35 4.4 3.15 4.65 L3.1 4.7 Q2.9 4.8 2.25 4.9 1.95 4.9 1.65 4.35 1.35 3.85 1.35 3.65 L1.35 3.3 1.6 3.8 Q2.05 4.5 2.6 4.5 L2.7 4.45 2.65 4.45 Q2.05 4.2 1.7 3.75 L1.3 3.05" fill="#4c9999" fill-rule="evenodd" stroke="none"/>
    <path d="M7.3 4.4 L7.5 4.1 Q7.7 3.85 7.75 3.75 L7.8 3.75 Q7.8 3.85 7.65 4.05 L7.35 4.45 7.25 4.45 7.3 4.4 M6.35 5.2 L6.05 4.9 6.0 4.8 Q6.15 4.75 6.3 4.9 6.4 5.0 6.55 5.25 L6.45 5.25 6.35 5.2 M4.4 1.15 Q4.25 1.05 4.2 1.05 L4.0 1.1 2.85 1.0 2.0 1.1 1.8 1.3 Q1.7 1.2 1.7 1.05 1.7 0.95 1.85 0.95 L2.0 1.0 3.2 0.7 Q3.5 0.7 4.05 0.9 L4.55 1.1 4.4 1.15 M3.4 1.75 L3.5 1.65 3.55 1.7 3.55 1.75 Q3.55 1.8 3.4 1.95 3.25 2.1 3.1 2.1 2.95 2.1 2.9 1.9 L2.85 1.7 2.95 1.85 Q3.05 1.95 3.15 1.95 L3.4 1.75 M2.55 1.25 L2.7 1.15 Q2.7 1.25 2.5 1.45 L2.2 1.65 2.15 1.65 2.2 1.55 2.45 1.35 2.55 1.25 M1.35 3.3 L1.2 3.0 1.25 2.95 1.3 3.05 1.7 3.75 Q2.05 4.2 2.65 4.45 L2.7 4.45 2.6 4.5 Q2.05 4.5 1.6 3.8 L1.35 3.3" fill="#65cccc" fill-rule="evenodd" stroke="none"/>
    <path d="M1.9 6.75 L1.9 6.7 1.9 6.75 M4.25 6.65 L4.25 6.65" fill="#5b6b6b" fill-rule="evenodd" stroke="none"/>
    <path d="M3.2 6.8 L2.95 6.8 3.05 6.7 3.2 6.8 M5.05 5.05 L5.1 5.0 5.1 5.1 Q5.1 5.05 5.05 5.05" fill="#4a5757" fill-rule="evenodd" stroke="none"/>
  </g>
</svg>
