<?xml version="1.0" encoding="UTF-8" standalone="no"?>
<svg xmlns:ffdec="https://www.free-decompiler.com/flash" xmlns:xlink="http://www.w3.org/1999/xlink" ffdec:objectType="shape" height="13.6px" width="20.55px" xmlns="http://www.w3.org/2000/svg">
  <g transform="matrix(1.0, 0.0, 0.0, 1.0, -2.3, -1.0)">
    <path d="M21.5 1.45 Q22.0 1.9 22.45 2.45 22.85 2.95 22.85 3.1 L22.85 3.25 Q22.85 3.65 22.2 6.7 21.6 9.4 21.25 10.6 L21.25 10.7 21.1 11.0 21.05 11.05 Q20.95 11.2 20.05 11.2 19.4 11.2 18.9 11.0 18.4 10.85 17.15 10.85 15.55 10.85 13.95 11.15 L11.9 11.7 Q10.8 12.1 9.65 12.6 9.05 12.9 7.1 13.85 6.4 14.2 6.0 14.35 L5.5 14.6 5.4 14.55 Q5.35 14.55 5.35 14.45 4.9 14.4 4.2 13.3 3.6 12.4 3.25 11.6 2.85 10.65 2.65 10.15 2.3 9.3 2.3 8.7 2.3 8.6 2.35 8.45 2.4 8.25 2.5 8.2 L2.55 8.3 Q2.8 8.0 3.95 7.05 4.85 6.35 5.4 6.0 L5.35 5.85 5.15 5.7 Q4.95 5.4 4.95 5.2 4.95 4.8 5.95 4.1 6.9 3.45 8.3 2.85 9.75 2.2 10.95 1.95 L11.8 1.8 12.6 1.8 12.65 1.85 12.7 1.85 12.85 1.9 12.75 1.9 12.85 1.95 12.85 2.0 12.9 2.0 Q13.05 2.2 13.45 2.7 14.35 2.45 16.25 2.0 18.85 1.45 20.2 1.2 L20.2 1.15 21.0 1.0 21.5 1.45 M22.15 3.35 L22.1 3.25 21.85 2.9 Q21.35 2.1 20.9 1.5 L20.8 1.4 Q20.4 1.9 18.1 2.35 L17.75 2.45 16.85 2.75 Q15.55 3.05 14.9 3.05 L13.95 3.25 13.8 3.25 13.75 3.2 13.75 3.25 13.95 3.55 14.6 3.45 14.6 3.5 14.8 3.45 16.0 3.3 16.05 3.25 17.85 2.9 18.75 2.6 19.15 2.45 19.2 2.45 Q20.45 2.1 20.7 2.45 L20.7 2.5 20.65 2.55 20.65 2.6 20.55 2.6 Q20.5 2.6 20.45 2.55 20.4 2.5 20.3 2.5 19.8 2.5 17.9 3.1 16.0 3.7 14.5 3.7 L14.1 3.65 14.0 3.6 14.05 3.65 14.45 4.4 15.25 5.8 15.3 5.85 15.5 6.35 15.55 6.45 15.55 6.4 15.7 6.35 Q16.85 5.8 17.85 5.25 L17.95 5.2 18.0 5.15 18.05 5.15 18.1 5.1 20.0 3.9 20.1 3.8 20.8 3.2 Q20.3 3.85 19.45 4.5 L18.2 5.4 18.15 5.45 Q16.55 6.45 14.35 7.5 11.35 8.85 6.35 10.65 L6.15 10.7 5.95 11.2 Q5.8 11.55 5.7 11.95 L5.8 12.2 Q5.85 12.25 5.7 12.25 L5.65 12.25 Q5.55 12.65 5.55 13.0 5.55 13.15 5.7 13.95 L5.7 14.05 5.8 14.05 6.25 13.85 6.3 13.8 6.35 13.8 6.4 13.75 Q6.3 13.5 6.3 13.4 L6.3 13.25 6.3 13.0 Q6.35 12.35 6.65 11.9 L6.8 11.65 6.9 11.6 7.0 11.45 7.7 11.0 Q8.2 10.7 9.6 10.2 11.45 9.5 12.45 9.05 L16.4 7.35 Q19.9 5.9 20.65 5.9 21.05 5.9 21.25 6.15 21.3 6.25 21.35 6.35 L21.35 6.45 Q21.4 6.65 21.4 7.15 L21.4 7.2 Q21.5 6.75 21.75 5.6 L21.8 5.45 21.85 5.05 22.2 3.45 22.15 3.35 M21.4 7.2 L21.4 7.2 M20.85 9.15 L20.9 8.95 21.0 7.85 Q21.0 7.65 21.05 7.4 L21.05 7.35 21.1 6.95 21.1 6.6 21.0 6.4 Q20.8 6.15 20.6 6.15 20.0 6.15 16.4 7.65 L14.0 8.65 12.25 9.4 Q8.8 10.75 7.95 11.25 7.3 11.65 6.9 12.15 8.05 11.2 10.25 10.25 10.95 10.0 15.4 8.4 L16.25 8.0 Q17.1 7.65 17.75 7.45 18.45 7.25 19.0 7.25 20.0 7.2 20.3 7.9 20.5 8.4 20.75 9.55 L20.8 9.75 20.85 9.15 M12.4 2.3 L11.85 2.45 10.45 2.75 10.2 2.85 Q8.1 3.65 5.85 5.25 L6.35 5.4 6.45 5.4 8.45 4.85 Q9.6 4.55 10.0 4.35 L11.25 3.6 Q12.3 2.85 12.3 2.55 12.3 2.45 12.25 2.45 L12.2 2.45 12.4 2.35 12.4 2.3 M11.65 6.3 Q12.95 5.45 13.75 4.7 13.3 3.9 13.0 3.15 L12.85 2.9 12.65 2.4 Q12.65 2.75 12.25 3.25 11.75 3.85 11.0 4.35 L10.2 4.85 9.9 5.0 Q9.5 5.2 9.05 5.35 8.2 5.6 7.3 5.7 L6.7 5.8 6.0 5.8 5.85 5.65 5.65 5.55 5.65 5.5 5.6 5.45 5.9 5.9 5.95 5.95 6.05 5.95 6.05 6.05 6.0 6.1 6.1 6.3 6.45 6.7 6.5 6.7 6.55 6.75 6.55 6.85 6.85 7.3 7.25 7.95 7.65 8.0 8.55 7.75 Q9.6 7.4 10.5 7.0 L11.0 6.7 11.05 6.7 11.65 6.3 M9.1 7.9 Q8.25 8.2 7.65 8.2 L7.4 8.2 7.7 8.7 Q8.95 8.5 9.9 8.2 10.6 8.0 11.25 7.7 L12.5 7.05 Q12.6 7.0 12.75 6.95 L12.95 6.75 13.05 6.7 Q13.55 6.35 13.85 6.0 L14.1 5.75 14.1 5.65 14.05 5.65 14.25 5.55 13.95 5.1 Q13.35 5.75 11.45 6.75 L10.65 7.1 10.6 7.15 10.55 7.2 10.5 7.2 Q9.7 7.65 9.1 7.9 M12.75 7.6 L13.75 7.2 15.2 6.55 15.15 6.55 Q14.95 6.55 14.5 5.95 L14.0 6.45 Q13.55 6.85 12.95 7.2 L12.4 7.5 12.3 7.55 Q11.25 8.1 10.3 8.45 9.45 8.75 8.3 8.9 L7.85 8.9 8.0 9.2 Q8.6 9.0 9.3 8.9 L11.5 8.1 11.6 8.05 12.7 7.65 12.75 7.6 M17.3 10.2 L19.25 10.2 19.75 10.25 20.15 10.25 20.3 10.3 20.3 10.15 20.35 9.8 Q20.35 9.5 20.1 8.65 19.9 8.0 19.75 7.7 L19.6 7.5 19.2 7.5 Q14.5 8.9 11.9 9.85 8.15 11.25 6.7 12.45 6.35 13.05 6.5 13.7 L6.75 13.6 7.6 13.05 Q9.4 11.95 9.6 11.9 L10.8 11.35 Q11.4 11.05 11.95 10.9 12.45 10.8 13.3 10.65 14.8 10.4 17.3 10.2 M20.15 10.8 L20.25 10.85 20.25 10.8 20.15 10.8 M3.9 8.9 L3.9 8.85 Q3.9 8.35 5.05 7.5 5.65 7.05 6.0 6.85 L5.95 6.75 5.75 6.3 2.9 8.65 2.85 8.65 3.2 9.8 3.55 10.8 3.65 11.0 3.8 11.35 Q4.15 11.95 4.9 13.0 L5.2 13.45 5.2 13.15 Q5.2 12.7 5.3 12.25 5.0 11.75 4.55 10.6 L4.45 10.45 Q3.95 9.1 3.9 8.9 M6.75 9.7 L6.9 9.65 7.5 9.4 7.6 9.35 7.65 9.3 Q7.15 8.85 6.35 7.5 L6.2 7.2 5.4 7.7 5.4 7.75 5.25 7.8 5.15 7.9 5.05 7.95 4.95 8.05 4.9 8.05 4.8 8.15 4.75 8.15 4.75 8.2 4.7 8.2 4.65 8.3 4.6 8.3 4.6 8.35 Q4.3 8.6 4.25 8.8 L4.4 9.15 4.45 9.2 4.5 9.3 5.35 11.15 5.5 11.55 5.55 11.45 5.55 11.4 5.9 10.7 5.9 10.65 5.95 10.6 5.95 10.55 6.05 10.35 6.1 10.3 6.15 10.25 6.2 10.15 6.25 10.15 Q6.45 9.9 6.75 9.7" fill="#111111" fill-rule="evenodd" stroke="none"/>
    <path d="M18.75 2.6 L17.85 2.9 16.05 3.25 16.0 3.3 14.8 3.45 14.6 3.5 14.6 3.45 13.95 3.55 13.75 3.25 13.75 3.2 13.8 3.25 13.95 3.25 14.9 3.05 Q15.55 3.05 16.85 2.75 L17.75 2.45 18.1 2.35 Q20.4 1.9 20.8 1.4 L20.9 1.5 Q21.35 2.1 21.85 2.9 L22.1 3.25 22.15 3.35 22.1 3.3 Q21.95 3.45 21.75 3.7 L20.5 5.3 Q19.95 5.8 18.4 6.45 16.65 7.15 15.9 7.5 L10.8 9.45 Q7.35 10.75 6.65 11.2 L6.55 11.0 Q6.45 10.75 6.35 10.65 11.35 8.85 14.35 7.5 16.55 6.45 18.15 5.45 16.45 6.6 15.1 7.25 14.6 7.55 13.05 8.15 11.35 8.75 10.85 9.0 9.55 9.45 8.75 9.75 7.25 10.35 6.6 10.75 13.0 8.5 15.1 7.5 18.75 5.75 21.15 3.25 L19.45 4.5 Q20.3 3.85 20.8 3.2 L20.1 3.8 Q20.75 3.2 20.75 2.95 L20.75 2.65 20.7 2.5 20.7 2.45 Q20.45 2.1 19.2 2.45 L18.7 2.5 18.75 2.6 M21.4 7.2 L21.4 7.2 M6.9 11.6 L6.8 11.65 6.8 11.6 6.9 11.6 M6.3 13.0 L6.3 13.25 6.25 13.15 6.3 13.0 M5.8 14.05 L5.7 14.05 5.8 14.05 M14.1 3.65 L14.05 3.65 14.0 3.6 14.1 3.65 M15.5 6.35 L15.55 6.4 15.55 6.45 15.5 6.35 M21.6 3.05 L21.6 2.95 Q21.6 2.7 21.15 2.15 20.65 1.55 20.4 1.75 20.55 2.15 20.85 2.45 L21.5 3.05 21.6 3.05 M10.2 4.85 L11.0 4.35 Q11.75 3.85 12.25 3.25 12.65 2.75 12.65 2.4 L12.85 2.9 13.0 3.15 Q13.3 3.9 13.75 4.7 12.95 5.45 11.65 6.3 L11.75 6.25 11.6 6.15 Q10.85 5.85 10.5 5.4 10.35 5.15 10.2 4.85 M9.05 5.35 Q9.5 5.2 9.9 5.0 L10.1 5.35 Q10.25 5.6 10.4 5.8 L10.3 5.7 Q10.05 5.4 9.9 5.05 L9.8 5.05 Q9.75 5.45 10.15 5.85 10.45 6.2 10.85 6.3 L10.7 6.3 Q10.4 6.3 9.7 5.8 L9.05 5.35 M12.7 3.0 L12.6 3.25 12.6 3.5 12.75 3.95 Q13.0 4.4 13.05 4.4 13.15 4.4 13.15 4.35 L13.15 4.25 Q13.15 4.1 12.95 3.6 L12.7 3.0 M12.95 7.2 Q13.55 6.85 14.0 6.45 L14.5 5.95 Q14.95 6.55 15.15 6.55 L15.2 6.55 13.75 7.2 12.75 7.6 Q13.45 7.2 13.7 6.95 L13.05 7.15 12.95 7.2 M19.25 9.45 L19.45 9.75 Q16.8 9.55 14.45 10.0 13.25 10.2 11.15 10.9 L8.4 11.85 7.4 12.3 7.7 12.1 Q9.55 11.0 11.45 10.25 13.15 9.5 16.85 8.5 L17.1 8.45 17.55 8.4 Q17.85 8.4 18.1 8.5 L17.85 8.45 18.75 9.1 19.25 9.45 M20.0 9.2 L19.95 9.6 19.9 9.6 Q19.6 9.05 18.3 8.35 18.6 8.4 19.3 8.7 20.0 9.0 20.0 9.2 M19.25 8.3 Q19.4 8.3 19.45 8.35 L19.25 8.3 M5.95 6.75 L5.65 6.85 Q4.8 7.3 4.45 7.6 3.85 8.05 3.85 8.5 L3.85 8.7 3.9 8.9 Q3.95 9.1 4.45 10.45 4.35 10.5 4.25 10.55 3.95 10.7 3.65 11.0 L3.55 10.8 3.2 9.8 2.85 8.65 2.9 8.65 5.75 6.3 5.95 6.75 M4.25 8.8 L4.4 9.15 4.25 8.8 M5.35 11.15 Q5.45 11.4 5.55 11.45 L5.5 11.55 5.35 11.15 M6.1 10.3 Q6.4 9.8 6.75 9.7 6.45 9.9 6.25 10.15 L6.2 10.15 6.15 10.25 6.1 10.3 M3.6 8.45 Q3.55 8.45 3.5 8.45 3.7 9.55 4.1 10.25 L4.15 10.2 3.9 9.3 3.6 8.45 M6.8 13.2 Q6.8 13.05 6.9 12.9 L7.2 12.75 Q8.05 12.3 8.7 12.1 L8.65 12.15 Q8.2 12.35 7.4 12.85 L6.75 13.25 6.8 13.2" fill="#4c9999" fill-rule="evenodd" stroke="none"/>
    <path d="M19.2 6.75 L19.35 6.8 20.95 6.5 Q20.8 6.15 20.05 6.4 19.75 6.5 19.2 6.75 M20.7 7.05 L20.65 7.0 Q20.35 6.9 20.25 7.05 20.15 7.1 20.15 7.2 L20.2 7.4 20.15 7.4 Q20.25 7.45 20.5 7.45 20.6 7.4 20.75 7.3 L20.85 7.15 20.8 7.05 20.75 7.1 20.75 7.05 20.7 7.05 M14.0 8.65 L16.4 7.65 Q20.0 6.15 20.6 6.15 20.8 6.15 21.0 6.4 L21.1 6.6 21.1 6.95 21.05 7.35 21.05 7.4 Q21.0 7.65 21.0 7.85 L20.9 8.95 20.85 9.15 20.8 8.8 Q20.75 8.3 20.5 7.9 L20.55 7.9 Q20.75 8.0 20.8 7.95 20.75 7.75 20.4 7.6 L19.95 7.35 Q19.6 7.1 19.45 7.05 L18.5 7.1 Q17.8 7.2 16.95 7.55 16.8 7.65 16.7 7.7 16.1 7.9 15.45 8.15 L14.0 8.65 M14.05 5.65 L12.7 6.6 Q11.45 7.4 11.2 7.4 11.1 7.4 10.7 7.15 L10.65 7.1 10.6 7.15 10.65 7.1 11.45 6.75 Q13.35 5.75 13.95 5.1 L14.25 5.55 14.05 5.65 M10.8 7.45 L10.95 7.55 10.9 7.55 10.8 7.45 M10.75 7.6 L10.3 7.8 Q9.75 7.95 9.45 7.95 L9.15 7.95 9.1 7.9 Q9.7 7.65 10.5 7.2 L10.5 7.25 Q10.5 7.35 10.6 7.5 L10.75 7.6 M11.75 6.75 L12.85 6.1 Q13.8 5.55 13.85 5.55 L14.0 5.55 14.0 5.45 13.9 5.4 Q11.65 6.65 11.65 6.7 11.65 6.8 11.75 6.75" fill="#9a9560" fill-rule="evenodd" stroke="none"/>
    <path d="M18.75 2.6 L18.7 2.5 19.2 2.45 19.15 2.45 18.75 2.6 M20.7 2.5 L20.75 2.65 20.75 2.95 Q20.75 3.2 20.1 3.8 L20.0 3.9 18.1 5.1 18.05 5.15 18.0 5.15 17.95 5.2 17.85 5.25 Q16.85 5.8 15.7 6.35 L15.55 6.4 15.5 6.35 15.3 5.85 15.25 5.8 14.45 4.4 14.05 3.65 14.1 3.65 14.5 3.7 Q16.0 3.7 17.9 3.1 19.8 2.5 20.3 2.5 20.4 2.5 20.45 2.55 20.5 2.6 20.55 2.6 L20.65 2.6 20.65 2.55 20.7 2.5 M6.35 10.65 Q6.45 10.75 6.55 11.0 L6.65 11.2 Q7.35 10.75 10.8 9.45 L15.9 7.5 Q16.65 7.15 18.4 6.45 19.95 5.8 20.5 5.3 L21.75 3.7 Q21.95 3.45 22.1 3.3 L22.15 3.35 22.2 3.45 21.85 5.05 21.8 5.45 21.75 5.6 Q21.5 6.75 21.4 7.2 L21.4 7.15 Q21.4 6.65 21.35 6.45 L21.35 6.35 Q21.3 6.25 21.25 6.15 21.05 5.9 20.65 5.9 19.9 5.9 16.4 7.35 L12.45 9.05 Q11.45 9.5 9.6 10.2 8.2 10.7 7.7 11.0 L7.0 11.45 6.9 11.6 6.8 11.6 6.8 11.65 6.65 11.9 Q6.35 12.35 6.3 13.0 L6.25 13.15 6.3 13.25 6.3 13.4 Q6.3 13.5 6.4 13.75 L6.35 13.8 6.3 13.8 6.25 13.85 5.8 14.05 5.7 14.05 5.7 13.95 Q5.55 13.15 5.55 13.0 5.55 12.65 5.65 12.25 L5.7 12.25 Q5.85 12.25 5.8 12.2 L5.7 11.95 Q5.8 11.55 5.95 11.2 L6.15 10.7 6.35 10.65 M12.4 2.3 L12.4 2.35 12.2 2.45 12.25 2.45 Q12.3 2.45 12.3 2.55 12.3 2.85 11.25 3.6 L10.0 4.35 Q9.6 4.55 8.45 4.85 L6.45 5.4 6.35 5.4 5.85 5.25 Q8.1 3.65 10.2 2.85 L10.45 2.75 11.85 2.45 12.4 2.3 M10.2 4.85 Q10.35 5.15 10.5 5.4 10.85 5.85 11.6 6.15 L11.75 6.25 11.65 6.3 11.05 6.7 11.0 6.7 10.5 7.0 Q9.6 7.4 8.55 7.75 L7.65 8.0 7.25 7.95 6.85 7.3 6.55 6.85 6.55 6.75 6.5 6.7 6.45 6.7 6.1 6.3 6.0 6.1 6.05 6.05 6.05 5.95 5.95 5.95 5.9 5.9 5.6 5.45 5.65 5.5 5.65 5.55 5.85 5.65 6.0 5.8 6.7 5.8 7.3 5.7 Q8.2 5.6 9.05 5.35 L9.7 5.8 Q10.4 6.3 10.7 6.3 L10.85 6.3 11.15 6.35 Q10.7 6.1 10.4 5.8 10.25 5.6 10.1 5.35 L9.9 5.0 10.2 4.85 M12.95 7.2 L13.05 7.15 13.7 6.95 Q13.45 7.2 12.75 7.6 L12.7 7.65 11.6 8.05 11.5 8.1 9.3 8.9 Q8.6 9.0 8.0 9.2 L7.85 8.9 8.3 8.9 Q9.45 8.75 10.3 8.45 11.25 8.1 12.3 7.55 L12.4 7.5 12.95 7.2 M18.1 8.5 Q17.85 8.4 17.55 8.4 L17.1 8.45 16.85 8.5 Q13.15 9.5 11.45 10.25 9.55 11.0 7.7 12.1 L7.4 12.3 8.4 11.85 11.15 10.9 Q13.25 10.2 14.45 10.0 16.8 9.55 19.45 9.75 L19.25 9.45 19.35 9.5 Q19.3 9.2 18.95 8.9 18.6 8.6 18.1 8.5 M17.3 10.2 Q14.8 10.4 13.3 10.65 12.45 10.8 11.95 10.9 11.4 11.05 10.8 11.35 L9.6 11.9 Q9.4 11.95 7.6 13.05 L6.75 13.6 6.5 13.7 Q6.35 13.05 6.7 12.45 8.15 11.25 11.9 9.85 14.5 8.9 19.2 7.5 L19.6 7.5 19.75 7.7 Q19.9 8.0 20.1 8.65 20.35 9.5 20.35 9.8 L20.3 10.15 20.3 10.3 20.15 10.25 19.75 10.25 19.25 10.2 17.3 10.2 M19.25 8.3 L19.45 8.35 Q19.4 8.3 19.25 8.3 M20.0 9.2 Q20.0 9.0 19.3 8.7 18.6 8.4 18.3 8.35 19.6 9.05 19.9 9.6 L19.95 9.6 20.0 9.2 M5.95 6.75 L6.0 6.85 Q5.65 7.05 5.05 7.5 3.9 8.35 3.9 8.85 L3.9 8.9 3.85 8.7 3.85 8.5 Q3.85 8.05 4.45 7.6 4.8 7.3 5.65 6.85 L5.95 6.75 M4.45 10.45 L4.55 10.6 Q5.0 11.75 5.3 12.25 5.2 12.7 5.2 13.15 L5.2 13.45 4.9 13.0 Q4.15 11.95 3.8 11.35 L3.65 11.0 Q3.95 10.7 4.25 10.55 4.35 10.5 4.45 10.45 M4.25 8.8 Q4.3 8.6 4.6 8.35 L4.6 8.3 4.65 8.3 4.7 8.2 4.75 8.2 4.75 8.15 4.8 8.15 4.9 8.05 4.95 8.05 5.05 7.95 5.15 7.9 5.25 7.8 5.4 7.75 5.4 7.7 6.2 7.2 6.35 7.5 Q7.15 8.85 7.65 9.3 L7.6 9.35 7.5 9.4 6.9 9.65 6.75 9.7 Q6.4 9.8 6.1 10.3 L6.05 10.35 5.95 10.55 5.95 10.6 5.9 10.65 5.9 10.7 5.55 11.4 5.55 11.45 Q5.45 11.4 5.35 11.15 L4.5 9.3 4.45 9.2 4.4 9.15 4.25 8.8 M6.8 13.2 L6.75 13.25 7.4 12.85 Q8.2 12.35 8.65 12.15 L8.7 12.1 Q8.05 12.3 7.2 12.75 L6.9 12.9 Q6.8 13.05 6.8 13.2" fill="#397373" fill-rule="evenodd" stroke="none"/>
    <path d="M19.45 4.5 L21.15 3.25 Q18.75 5.75 15.1 7.5 13.0 8.5 6.6 10.75 7.25 10.35 8.75 9.75 9.55 9.45 10.85 9.0 11.35 8.75 13.05 8.15 14.6 7.55 15.1 7.25 16.45 6.6 18.15 5.45 L18.2 5.4 19.45 4.5 M21.6 3.05 L21.5 3.05 20.85 2.45 Q20.55 2.15 20.4 1.75 20.65 1.55 21.15 2.15 21.6 2.7 21.6 2.95 L21.6 3.05 M12.7 3.0 L12.95 3.6 Q13.15 4.1 13.15 4.25 L13.15 4.35 Q13.15 4.4 13.05 4.4 13.0 4.4 12.75 3.95 L12.6 3.5 12.6 3.25 12.7 3.0 M19.25 9.45 L18.75 9.1 17.85 8.45 18.1 8.5 Q18.6 8.6 18.95 8.9 19.3 9.2 19.35 9.5 L19.25 9.45 M10.85 6.3 Q10.45 6.2 10.15 5.85 9.75 5.45 9.8 5.05 L9.9 5.05 Q10.05 5.4 10.3 5.7 L10.4 5.8 Q10.7 6.1 11.15 6.35 L10.85 6.3 M3.6 8.45 L3.9 9.3 4.15 10.2 4.1 10.25 Q3.7 9.55 3.5 8.45 3.55 8.45 3.6 8.45" fill="#65cccc" fill-rule="evenodd" stroke="none"/>
    <path d="M20.2 7.4 L20.15 7.2 Q20.15 7.1 20.25 7.05 20.35 6.9 20.65 7.0 L20.7 7.05 20.6 7.15 Q20.5 7.3 20.25 7.3 L20.2 7.3 20.2 7.35 20.45 7.4 20.2 7.4 M14.0 8.65 L15.45 8.15 Q16.1 7.9 16.7 7.7 16.8 7.65 16.95 7.55 17.8 7.2 18.5 7.1 L19.45 7.05 Q19.6 7.1 19.95 7.35 L20.4 7.6 Q20.75 7.75 20.8 7.95 20.75 8.0 20.55 7.9 L20.5 7.9 Q20.75 8.3 20.8 8.8 L20.85 9.15 20.8 9.75 20.75 9.55 Q20.5 8.4 20.3 7.9 20.0 7.2 19.0 7.25 18.45 7.25 17.75 7.45 17.1 7.65 16.25 8.0 L15.4 8.4 Q10.95 10.0 10.25 10.25 8.05 11.2 6.9 12.15 7.3 11.65 7.95 11.25 8.8 10.75 12.25 9.4 L14.0 8.65 M14.05 5.65 L14.1 5.65 14.1 5.75 13.85 6.0 Q13.55 6.35 13.05 6.7 L12.95 6.75 12.75 6.95 Q12.6 7.0 12.5 7.05 L11.25 7.7 Q10.6 8.0 9.9 8.2 8.95 8.5 7.7 8.7 L7.4 8.2 7.65 8.2 Q8.25 8.2 9.1 7.9 L9.15 7.95 9.45 7.95 Q9.75 7.95 10.3 7.8 L10.75 7.6 10.85 7.65 10.95 7.6 11.0 7.6 10.9 7.55 10.95 7.55 10.8 7.45 10.55 7.2 10.6 7.15 10.65 7.1 10.7 7.15 Q11.1 7.4 11.2 7.4 11.45 7.4 12.7 6.6 L14.05 5.65" fill="#59542f" fill-rule="evenodd" stroke="none"/>
    <path d="M19.2 6.75 Q19.75 6.5 20.05 6.4 20.8 6.15 20.95 6.5 L19.35 6.8 19.2 6.75 M20.7 7.05 L20.75 7.05 20.75 7.1 20.8 7.05 20.85 7.15 20.75 7.3 Q20.6 7.4 20.5 7.45 20.25 7.45 20.15 7.4 L20.2 7.4 20.45 7.4 20.2 7.35 20.2 7.3 20.25 7.3 Q20.5 7.3 20.6 7.15 L20.7 7.05 M10.55 7.2 L10.8 7.45 10.9 7.55 11.0 7.6 10.95 7.6 10.85 7.65 10.75 7.6 10.6 7.5 Q10.5 7.35 10.5 7.25 L10.5 7.2 10.55 7.2 M11.75 6.75 Q11.65 6.8 11.65 6.7 11.65 6.65 13.9 5.4 L14.0 5.45 14.0 5.55 13.85 5.55 Q13.8 5.55 12.85 6.1 L11.75 6.75" fill="#d5d3b1" fill-rule="evenodd" stroke="none"/>
  </g>
</svg>
