<?xml version="1.0" encoding="UTF-8" standalone="no"?>
<svg xmlns:ffdec="https://www.free-decompiler.com/flash" xmlns:xlink="http://www.w3.org/1999/xlink" ffdec:objectType="shape" height="20.3px" width="12.55px" xmlns="http://www.w3.org/2000/svg">
  <g transform="matrix(1.0, 0.0, 0.0, 1.0, 1.9, -0.75)">
    <path d="M0.85 3.35 Q1.15 2.4 1.1 1.6 L1.15 1.6 1.15 1.55 1.5 1.65 Q2.05 1.75 2.6 2.0 4.55 2.8 6.4 3.85 7.2 4.3 8.1 4.3 L8.15 4.55 8.2 4.45 Q8.2 5.65 8.7 7.2 8.95 8.1 9.3 8.9 L9.45 9.2 9.3 9.05 Q8.9 8.6 8.4 8.3 8.05 8.05 7.7 7.9 7.0 7.6 6.25 7.55 6.15 7.7 6.15 7.85 6.05 8.35 6.15 8.85 6.2 9.2 6.25 9.55 5.8 8.85 5.45 8.05 5.15 7.4 4.7 7.0 4.35 6.7 3.85 6.55 3.65 6.65 3.6 6.9 L3.55 7.2 3.55 7.4 2.9 5.9 2.7 5.35 Q2.35 4.6 1.9 3.95 1.6 3.6 1.3 3.3 L0.9 3.3 0.85 3.35 M8.05 4.65 L8.05 4.6 8.0 4.7 8.05 4.7 8.05 4.65 M0.25 4.7 L0.2 4.8 0.25 4.65 0.25 4.7 M-0.6 6.4 L-0.5 6.45 -0.7 6.55 -0.6 6.4 M0.2 6.05 L0.35 5.85 0.4 6.2 0.2 6.05 M3.35 10.15 L3.45 10.2 3.5 10.25 3.35 10.15 M5.2 11.5 L5.35 11.85 5.2 11.7 5.2 11.5 M6.95 11.65 L6.9 11.65 6.8 11.55 6.95 11.65 M0.75 8.35 L0.85 8.4 0.95 8.3 1.05 8.5 Q0.9 8.4 0.75 8.35 M7.55 10.5 L7.55 10.2 7.6 9.7 7.6 9.8 7.65 9.85 7.95 10.4 8.05 10.6 7.8 10.8 7.75 10.85 Q7.6 10.95 7.45 11.15 L7.55 10.5 M7.65 9.3 L7.65 9.3" fill="#346b34" fill-rule="evenodd" stroke="none"/>
    <path d="M8.05 4.05 L8.3 4.25 8.3 4.3 Q8.5 4.6 8.65 4.9 8.85 5.35 9.0 5.8 9.55 7.0 10.0 8.35 10.5 9.9 10.65 11.35 L10.6 11.25 Q9.9 11.2 9.3 10.7 L9.2 10.55 9.2 10.6 9.15 10.45 8.6 9.9 8.4 9.8 8.4 9.8 Q8.15 9.7 7.9 9.5 8.05 9.75 8.2 10.05 8.3 10.3 8.35 10.6 8.5 11.1 7.95 11.45 8.15 11.9 8.05 12.35 L7.95 12.75 8.15 12.7 Q8.95 13.1 8.7 14.05 L8.65 14.25 8.7 14.2 8.6 14.55 8.4 15.3 Q8.2 16.0 7.75 16.55 L7.75 16.45 Q7.4 17.1 6.7 17.2 L6.3 17.25 6.2 17.4 5.8 17.9 5.3 18.45 5.35 18.4 Q3.65 20.1 1.35 20.85 0.5 21.15 -0.35 21.05 L-0.3 21.0 Q-0.65 20.8 -0.9 20.45 -2.25 18.75 -1.75 16.5 -1.35 14.4 -0.25 12.55 L-1.3 11.6 -1.3 11.5 -1.45 11.45 -1.3 11.35 -0.55 7.7 -0.95 7.7 -1.15 7.55 -1.4 7.65 -1.7 7.6 -0.3 3.6 Q-0.05 2.85 0.3 2.2 0.4 1.35 0.95 0.8 L1.1 0.85 1.05 0.75 1.7 0.9 Q3.55 1.5 5.3 2.35 6.1 2.75 6.85 3.2 7.45 3.5 7.95 3.95 L8.05 4.05 M9.45 9.2 L9.3 8.9 Q8.95 8.1 8.7 7.2 8.2 5.65 8.2 4.45 L8.15 4.55 8.1 4.3 Q7.2 4.3 6.4 3.85 4.55 2.8 2.6 2.0 2.05 1.75 1.5 1.65 L1.15 1.55 1.15 1.6 1.1 1.6 Q1.15 2.4 0.85 3.35 L0.8 3.45 0.75 3.7 0.7 3.75 0.95 5.25 1.2 6.7 1.35 7.55 Q1.4 7.25 1.45 6.95 1.55 6.5 1.8 6.15 L1.6 5.3 1.5 4.75 Q1.45 4.3 1.6 3.95 L1.75 4.5 Q2.05 5.75 2.5 6.95 2.75 7.65 3.1 8.3 L3.7 9.45 Q4.15 10.25 4.65 11.0 4.55 10.1 4.45 9.15 4.4 8.25 4.7 7.6 L4.95 8.25 Q4.9 8.0 4.95 7.8 5.65 9.0 6.45 10.2 L6.8 10.85 Q6.75 10.4 6.85 9.85 6.95 8.95 7.3 8.35 L7.45 8.65 Q7.45 8.55 7.55 8.45 L7.7 8.55 8.1 8.8 8.4 8.95 Q8.9 9.2 9.3 9.55 L9.8 10.05 10.05 10.35 10.0 10.3 Q9.7 9.75 9.45 9.2 M8.05 4.65 L8.05 4.7 8.0 4.7 8.05 4.6 8.05 4.65 M0.25 4.7 L0.25 4.65 0.2 4.8 -0.6 6.4 -0.7 6.55 -0.5 6.45 -0.25 6.15 -0.2 6.05 -0.2 6.1 -0.15 6.1 Q-0.05 6.0 0.1 6.0 L0.2 6.05 0.4 6.2 0.35 5.85 0.3 5.35 0.25 4.7 M3.45 10.2 L3.35 10.05 3.3 9.95 Q2.65 8.75 2.2 7.4 L2.05 7.05 2.05 7.55 2.0 8.2 1.85 9.0 2.4 9.3 Q2.8 9.55 3.0 9.9 L3.35 10.15 3.5 10.25 3.45 10.2 M6.8 11.55 Q5.95 10.75 5.35 9.6 5.2 9.25 5.1 8.95 5.2 9.55 5.2 10.2 L5.2 11.5 5.2 11.7 5.35 11.85 Q6.05 12.5 6.9 12.7 L7.3 12.75 Q7.25 12.55 7.35 12.2 7.45 11.75 7.45 11.15 L7.35 12.05 7.25 11.95 7.25 11.9 6.95 11.65 6.8 11.55 M0.95 8.3 Q0.8 7.9 0.65 7.4 L0.5 8.3 0.75 8.35 Q0.9 8.4 1.05 8.5 L0.95 8.3 M7.7 13.9 L7.8 13.6 7.8 13.5 Q7.2 13.4 6.7 13.25 4.65 12.55 3.05 10.9 L2.95 10.75 2.6 10.35 Q1.95 10.0 1.3 9.45 1.05 9.4 0.8 9.25 L0.3 9.0 0.25 9.25 0.2 9.3 0.15 9.5 0.0 10.0 -0.1 10.4 -0.2 10.7 -0.4 11.2 -0.45 11.4 0.55 11.9 4.55 16.4 4.55 16.45 4.6 16.45 4.65 16.4 4.85 16.6 5.0 16.65 5.1 16.65 5.35 16.7 5.5 16.7 5.65 16.65 5.75 16.55 Q6.2 16.45 6.6 16.2 7.15 15.85 7.45 15.3 L7.55 15.2 7.5 15.05 7.5 15.0 7.5 14.7 Q7.6 14.25 7.7 13.9 M0.45 13.9 Q-0.5 14.5 0.05 15.55 L0.1 15.7 Q0.6 15.1 0.75 14.35 L0.75 14.15 0.65 14.0 0.45 13.9 M7.65 9.3 L7.55 9.15 7.55 9.4 7.65 9.3 7.65 9.3 M7.55 10.5 L7.45 11.15 Q7.6 10.95 7.75 10.85 L7.8 10.8 8.05 10.6 7.95 10.4 7.65 9.85 7.6 9.8 7.6 9.7 7.55 10.2 7.55 10.5 M3.2 16.05 L3.1 16.0 Q2.4 16.4 2.6 17.15 3.1 17.2 3.4 16.85 L3.55 16.65 Q3.5 16.25 3.2 16.05 M5.65 17.3 L5.65 17.3 M2.3 15.6 Q2.2 15.5 2.1 15.5 2.0 15.5 1.9 15.6 1.85 15.65 1.85 15.75 1.85 15.85 1.9 15.95 2.0 16.0 2.1 16.0 2.2 16.0 2.3 15.95 2.35 15.85 2.35 15.75 2.35 15.65 2.3 15.6 M0.6 17.25 L0.45 17.05 0.2 17.25 0.2 17.4 0.45 17.55 0.6 17.25 M2.6 17.55 Q2.45 17.55 2.4 17.65 2.3 17.7 2.3 17.85 2.3 17.95 2.4 18.05 2.45 18.15 2.6 18.15 2.7 18.15 2.8 18.05 2.9 17.95 2.9 17.85 2.9 17.7 2.8 17.65 2.7 17.55 2.6 17.55" fill="#111111" fill-rule="evenodd" stroke="none"/>
    <path d="M0.45 13.9 L0.65 14.0 0.75 14.15 0.75 14.35 Q0.6 15.1 0.1 15.7 L0.05 15.55 Q-0.5 14.5 0.45 13.9 M3.2 16.05 Q3.5 16.25 3.55 16.65 L3.4 16.85 Q3.1 17.2 2.6 17.15 2.4 16.4 3.1 16.0 L3.2 16.05 M2.6 17.55 Q2.7 17.55 2.8 17.65 2.9 17.7 2.9 17.85 2.9 17.95 2.8 18.05 2.7 18.15 2.6 18.15 2.45 18.15 2.4 18.05 2.3 17.95 2.3 17.85 2.3 17.7 2.4 17.65 2.45 17.55 2.6 17.55 M0.6 17.25 L0.45 17.55 0.2 17.4 0.2 17.25 0.45 17.05 0.6 17.25 M2.3 15.6 Q2.35 15.65 2.35 15.75 2.35 15.85 2.3 15.95 2.2 16.0 2.1 16.0 2.0 16.0 1.9 15.95 1.85 15.85 1.85 15.75 1.85 15.65 1.9 15.6 2.0 15.5 2.1 15.5 2.2 15.5 2.3 15.6" fill="#666666" fill-rule="evenodd" stroke="none"/>
    <path d="M9.45 9.2 Q9.7 9.75 10.0 10.3 L10.05 10.35 9.8 10.05 9.3 9.55 Q8.9 9.2 8.4 8.95 L8.1 8.8 7.7 8.55 7.55 8.45 Q7.45 8.55 7.45 8.65 L7.3 8.35 Q6.95 8.95 6.85 9.85 6.75 10.4 6.8 10.85 L6.45 10.2 Q5.65 9.0 4.95 7.8 4.9 8.0 4.95 8.25 L4.7 7.6 Q4.4 8.25 4.45 9.15 4.55 10.1 4.65 11.0 4.15 10.25 3.7 9.45 L3.1 8.3 Q2.75 7.65 2.5 6.95 2.05 5.75 1.75 4.5 L1.6 3.95 Q1.45 4.3 1.5 4.75 L1.6 5.3 1.8 6.15 Q1.55 6.5 1.45 6.95 1.4 7.25 1.35 7.55 L1.2 6.7 0.95 5.25 0.7 3.75 0.75 3.7 0.8 3.45 0.85 3.35 0.9 3.3 1.3 3.3 Q1.6 3.6 1.9 3.95 2.35 4.6 2.7 5.35 L2.9 5.9 3.55 7.4 3.55 7.2 3.6 6.9 Q3.65 6.65 3.85 6.55 4.35 6.7 4.7 7.0 5.15 7.4 5.45 8.05 5.8 8.85 6.25 9.55 6.2 9.2 6.15 8.85 6.05 8.35 6.15 7.85 6.15 7.7 6.25 7.55 7.0 7.6 7.7 7.9 8.05 8.05 8.4 8.3 8.9 8.6 9.3 9.05 L9.45 9.2 M0.2 4.8 L0.25 4.7 0.3 5.35 0.35 5.85 0.2 6.05 0.1 6.0 Q-0.05 6.0 -0.15 6.1 L-0.2 6.1 -0.2 6.05 -0.25 6.15 -0.5 6.45 -0.6 6.4 0.2 4.8 M3.45 10.2 L3.35 10.15 3.0 9.9 Q2.8 9.55 2.4 9.3 L1.85 9.0 2.0 8.2 2.05 7.55 2.05 7.05 2.2 7.4 Q2.65 8.75 3.3 9.95 L3.35 10.05 3.45 10.2 M5.2 11.5 L5.2 10.2 Q5.2 9.55 5.1 8.95 5.2 9.25 5.35 9.6 5.95 10.75 6.8 11.55 L6.9 11.65 6.95 11.65 7.25 11.9 7.25 11.95 7.35 12.05 7.45 11.15 Q7.45 11.75 7.35 12.2 7.25 12.55 7.3 12.75 L6.9 12.7 Q6.05 12.5 5.35 11.85 L5.2 11.5 M0.75 8.35 L0.5 8.3 0.65 7.4 Q0.8 7.9 0.95 8.3 L0.85 8.4 0.75 8.35 M0.2 9.3 L0.25 9.25 0.3 9.0 0.8 9.25 Q1.05 9.4 1.3 9.45 1.95 10.0 2.6 10.35 L2.95 10.75 3.05 10.9 Q4.65 12.55 6.7 13.25 7.2 13.4 7.8 13.5 L7.8 13.6 7.7 13.9 6.5 13.6 5.95 13.4 Q4.5 12.95 3.35 11.95 L3.35 12.0 Q3.25 12.85 4.25 13.75 5.0 14.4 5.8 14.7 6.6 15.0 7.5 15.0 L7.5 15.05 7.55 15.2 7.45 15.3 7.4 15.35 Q6.3 15.55 5.45 15.1 4.9 14.85 4.45 14.35 3.45 13.25 2.35 12.35 1.15 11.4 -0.2 10.65 L-0.2 10.7 -0.1 10.4 0.15 10.65 Q0.9 11.1 1.5 10.9 1.6 10.45 1.2 10.2 0.7 9.95 0.6 9.4 L0.5 9.35 0.35 9.3 0.2 9.3 M7.65 9.3 L7.55 9.4 7.55 9.15 7.65 9.3" fill="#285228" fill-rule="evenodd" stroke="none"/>
    <path d="M4.6 16.45 L4.55 16.45 4.55 16.4 4.6 16.45" fill="#fffdff" fill-rule="evenodd" stroke="none"/>
    <path d="M0.2 9.3 L0.35 9.3 0.5 9.35 0.6 9.4 Q0.7 9.95 1.2 10.2 1.6 10.45 1.5 10.9 0.9 11.1 0.15 10.65 L-0.1 10.4 0.0 10.0 0.15 9.5 0.2 9.3 M-0.2 10.7 L-0.2 10.65 Q1.15 11.4 2.35 12.35 3.45 13.25 4.45 14.35 4.9 14.85 5.45 15.1 6.3 15.55 7.4 15.35 L7.45 15.3 Q7.15 15.85 6.6 16.2 6.2 16.45 5.75 16.55 L5.65 16.65 5.5 16.7 5.35 16.7 5.1 16.65 5.0 16.65 4.85 16.6 4.65 16.4 4.6 16.45 4.55 16.4 0.55 11.9 -0.45 11.4 -0.4 11.2 -0.2 10.7 M7.5 15.0 Q6.6 15.0 5.8 14.7 5.0 14.4 4.25 13.75 3.25 12.85 3.35 12.0 L3.35 11.95 Q4.5 12.95 5.95 13.4 L6.5 13.6 7.7 13.9 Q7.6 14.25 7.5 14.7 L7.5 15.0" fill="#1f401f" fill-rule="evenodd" stroke="none"/>
  </g>
</svg>
