<?xml version="1.0" encoding="UTF-8" standalone="no"?>
<svg xmlns:ffdec="https://www.free-decompiler.com/flash" xmlns:xlink="http://www.w3.org/1999/xlink" ffdec:objectType="shape" height="21.9px" width="13.75px" xmlns="http://www.w3.org/2000/svg">
  <g transform="matrix(1.0, 0.0, 0.0, 1.0, 3.8, 0.05)">
    <path d="M7.95 3.3 Q8.95 4.3 9.2 5.85 L9.4 7.1 9.45 7.4 Q9.5 7.85 9.65 8.2 L9.7 8.35 9.65 8.45 9.8 8.7 Q9.95 9.05 9.95 9.2 L9.95 9.45 9.85 9.5 9.75 9.35 9.7 9.35 Q9.6 9.35 9.45 9.2 9.35 9.05 9.3 8.9 L9.25 8.9 Q9.4 10.85 9.15 12.65 9.0 13.35 8.85 14.0 L8.85 15.05 Q8.75 15.95 8.4 16.5 7.9 17.35 6.05 17.85 5.1 18.15 4.15 18.25 L3.85 18.35 3.75 18.5 Q3.5 19.0 2.2 20.2 1.8 20.6 1.4 20.55 1.1 20.5 0.95 20.35 0.8 20.15 0.5 19.7 L0.6 20.15 Q0.75 20.3 0.7 20.45 0.65 20.55 0.4 20.75 -0.15 21.25 -1.05 21.45 L-0.9 21.45 -0.85 21.55 -0.8 21.55 -0.95 21.7 Q-1.25 22.0 -1.7 21.75 L-2.05 21.45 Q-2.65 20.85 -2.85 19.4 -3.05 18.35 -3.0 17.0 -3.0 16.3 -2.85 16.0 L-2.95 15.85 -3.1 16.1 Q-3.2 16.3 -3.4 16.3 -3.75 16.3 -3.8 15.95 L-3.8 15.6 Q-3.8 14.4 -2.15 11.5 L-1.3 10.0 Q-1.4 10.1 -1.45 10.1 -1.7 10.1 -1.65 10.05 L-1.75 10.0 -1.75 9.85 Q-1.75 8.5 -1.3 7.0 -1.0 5.85 -0.2 3.95 L-0.2 3.9 -0.55 4.1 Q-0.8 4.25 -0.85 4.25 -1.1 4.25 -1.1 4.2 L-1.15 4.15 -1.15 3.95 Q-0.5 2.5 0.15 1.4 0.5 0.8 0.75 0.45 0.7 0.35 0.7 0.3 0.7 0.1 0.8 0.0 L1.3 -0.05 Q4.55 -0.05 6.75 2.2 7.4 2.7 7.95 3.3 M8.3 6.95 Q8.3 6.75 8.5 6.7 L8.65 6.95 Q7.9 5.05 7.55 4.35 6.9 3.0 3.65 1.75 2.15 1.2 1.6 0.95 L1.4 0.9 Q1.3 1.3 0.7 2.1 L-0.15 3.3 0.05 3.3 Q0.25 3.25 0.35 3.3 L0.4 3.35 0.4 3.55 Q0.4 3.8 -0.3 5.95 L-0.85 7.5 Q-1.15 8.45 -1.2 8.7 L-1.2 8.75 Q-1.1 8.6 -0.75 8.15 -0.35 7.7 -0.1 7.55 L0.1 7.55 0.15 7.6 0.2 7.8 0.15 8.1 0.15 8.3 Q0.15 8.5 -0.05 9.1 -0.15 9.7 -0.55 10.5 L-0.95 11.25 -1.1 11.55 Q-2.35 14.25 -2.4 15.0 L-2.3 14.95 Q-2.25 15.35 -2.25 15.75 L-2.2 15.8 Q-1.95 15.9 -1.65 16.2 L-1.6 16.25 -1.1 16.8 Q-0.9 17.05 -0.65 17.4 -1.35 15.5 -0.4 15.15 L-0.35 15.15 -0.35 15.1 -0.2 15.2 Q-0.15 15.25 -0.15 15.3 L-0.2 15.35 -0.3 15.4 Q-0.2 15.45 0.1 15.55 L0.15 15.6 0.6 15.85 0.95 16.05 1.35 16.3 1.45 16.35 1.5 16.35 1.7 16.5 1.95 16.65 2.1 16.75 3.2 17.45 3.6 17.75 3.8 17.6 4.1 17.35 4.2 17.25 4.3 17.3 Q5.7 17.05 6.65 16.5 7.55 16.0 7.85 15.3 L8.15 13.9 Q8.6 11.8 8.6 10.35 8.6 9.55 8.5 8.8 L8.45 8.25 Q8.3 7.25 8.3 7.05 L8.3 6.95 M1.4 19.4 Q1.3 19.0 0.85 18.1 0.35 17.2 0.15 16.95 L-0.35 16.15 Q-0.35 16.95 0.25 17.95 0.7 18.8 1.35 19.5 L1.4 19.4 M-0.5 8.7 L-0.55 8.65 -0.95 9.5 -1.0 9.5 -0.55 8.85 -0.5 8.7 M-2.1 17.15 L-2.25 17.0 -2.35 16.95 Q-2.85 17.55 -2.25 19.25 L-2.1 19.4 -2.05 19.35 -1.9 19.25 Q-1.6 19.0 -1.75 18.15 -1.85 17.4 -2.1 17.15" fill="#111111" fill-rule="evenodd" stroke="none"/>
    <path d="M8.3 6.95 L7.7 5.6 Q6.85 3.75 6.85 4.65 6.85 4.9 7.15 6.35 7.45 8.0 7.45 9.6 L7.3 12.95 Q7.15 12.0 7.0 11.55 6.6 10.55 5.95 10.55 5.75 10.55 5.05 12.45 L4.0 15.35 3.95 15.35 3.55 13.35 Q3.15 12.0 2.55 12.0 2.1 12.0 1.65 13.15 L1.3 14.1 0.95 13.5 0.8 11.9 Q0.6 10.1 0.25 10.1 0.1 10.1 -0.05 10.3 L-0.2 10.5 Q-0.15 10.05 0.35 8.5 0.8 7.1 0.8 6.95 L0.75 6.7 0.75 6.6 0.4 6.55 Q-0.2 6.55 -0.85 7.5 L-0.3 5.95 Q0.4 3.8 0.4 3.55 L0.4 3.35 0.35 3.3 Q0.25 3.25 0.05 3.3 L-0.15 3.3 0.7 2.1 Q1.3 1.3 1.4 0.9 L1.6 0.95 Q2.15 1.2 3.65 1.75 6.9 3.0 7.55 4.35 7.9 5.05 8.65 6.95 L8.5 6.7 Q8.3 6.75 8.3 6.95 M-0.15 15.3 L-0.2 15.35 0.05 15.55 0.1 15.55 Q-0.2 15.45 -0.3 15.4 L-0.2 15.35 -0.15 15.3 M1.45 15.85 L0.6 15.1 1.25 15.3 1.5 15.8 1.45 15.85" fill="#591616" fill-rule="evenodd" stroke="none"/>
    <path d="M-0.85 7.5 Q-0.2 6.55 0.4 6.55 L0.75 6.6 0.75 6.7 0.8 6.95 Q0.8 7.1 0.35 8.5 -0.15 10.05 -0.2 10.5 L-0.05 10.3 Q0.1 10.1 0.25 10.1 0.6 10.1 0.8 11.9 L0.95 13.5 1.3 14.1 1.65 13.15 Q2.1 12.0 2.55 12.0 3.15 12.0 3.55 13.35 L3.95 15.35 4.0 15.35 5.05 12.45 Q5.75 10.55 5.95 10.55 6.6 10.55 7.0 11.55 7.15 12.0 7.3 12.95 L7.45 9.6 Q7.45 8.0 7.15 6.35 6.85 4.9 6.85 4.65 6.85 3.75 7.7 5.6 L8.3 6.95 8.3 7.05 Q8.3 7.25 8.45 8.25 L8.5 8.8 Q8.6 9.55 8.6 10.35 8.6 11.8 8.15 13.9 L7.85 15.3 Q7.55 16.0 6.65 16.5 5.7 17.05 4.3 17.3 L4.2 17.25 4.1 17.35 3.8 17.6 3.6 17.75 3.2 17.45 2.1 16.75 1.95 16.65 1.7 16.5 1.5 16.35 1.45 16.35 1.35 16.3 0.95 16.05 0.6 15.85 0.15 15.6 0.1 15.55 0.05 15.55 -0.2 15.35 -0.15 15.3 Q-0.15 15.25 -0.2 15.2 L-0.35 15.1 -0.35 15.15 -0.4 15.15 Q-1.35 15.5 -0.65 17.4 -0.9 17.05 -1.1 16.8 L-1.6 16.25 -1.65 16.2 Q-1.95 15.9 -2.2 15.8 L-2.25 15.75 Q-2.25 15.35 -2.3 14.95 L-2.4 15.0 Q-2.35 14.25 -1.1 11.55 L-0.95 11.25 -0.55 10.5 Q-0.15 9.7 -0.05 9.1 0.15 8.5 0.15 8.3 L0.15 8.1 0.2 7.8 0.15 7.6 0.1 7.55 -0.1 7.55 Q-0.35 7.7 -0.75 8.15 -1.1 8.6 -1.2 8.75 L-1.2 8.7 Q-1.15 8.45 -0.85 7.5 M1.45 15.85 L1.5 15.8 1.25 15.3 0.6 15.1 1.45 15.85" fill="#330c0c" fill-rule="evenodd" stroke="none"/>
    <path d="M1.4 19.4 L1.35 19.5 Q0.7 18.8 0.25 17.95 -0.35 16.95 -0.35 16.15 L0.15 16.95 Q0.35 17.2 0.85 18.1 1.3 19.0 1.4 19.4 M-2.1 17.15 Q-1.85 17.4 -1.75 18.15 -1.6 19.0 -1.9 19.25 L-2.05 19.35 -2.1 19.4 -2.25 19.25 Q-2.85 17.55 -2.35 16.95 L-2.25 17.0 -2.1 17.15" fill="#666666" fill-rule="evenodd" stroke="none"/>
  </g>
</svg>
