<?xml version="1.0" encoding="UTF-8" standalone="no"?>
<svg xmlns:ffdec="https://www.free-decompiler.com/flash" xmlns:xlink="http://www.w3.org/1999/xlink" ffdec:objectType="shape" height="20.4px" width="18.7px" xmlns="http://www.w3.org/2000/svg">
  <g transform="matrix(1.0, 0.0, 0.0, 1.0, 7.9, 0.5)">
    <path d="M1.25 -0.45 Q1.55 -0.5 1.85 -0.35 L2.4 -0.05 2.55 -0.1 Q2.65 -0.05 2.7 0.0 L2.75 0.3 2.85 0.4 Q2.9 0.25 3.0 0.2 L3.0 0.5 2.95 0.5 3.35 1.05 3.15 1.0 3.25 1.05 4.35 1.85 Q5.05 2.4 6.2 2.5 L8.2 2.75 Q8.45 2.8 8.75 3.05 9.25 3.05 9.6 3.55 10.05 4.1 10.05 4.85 10.05 5.05 9.75 6.35 L9.4 7.95 9.2 8.65 9.15 9.25 8.95 10.35 Q8.75 11.4 8.75 11.7 8.75 11.85 8.85 12.4 L8.95 12.9 Q9.25 13.4 9.65 13.9 L10.45 14.8 Q10.8 15.3 10.8 15.75 10.8 16.35 10.75 16.55 10.65 16.7 10.5 16.95 L10.45 16.95 Q10.35 17.25 10.2 17.4 L10.1 17.55 Q9.95 17.85 9.6 17.85 9.55 17.8 9.6 17.75 L9.65 17.5 9.65 17.3 9.45 17.35 Q9.25 17.35 9.05 16.75 8.85 16.15 8.5 16.15 8.25 16.15 8.0 16.3 7.9 16.5 7.7 16.95 L7.75 17.15 Q7.85 17.4 7.85 17.55 7.85 17.75 7.8 17.95 L7.85 18.1 Q7.85 18.25 7.4 18.7 L6.85 19.2 6.05 19.2 5.8 19.1 5.3 19.0 5.15 18.85 Q4.45 18.65 3.65 18.65 L2.75 18.7 2.3 18.8 Q2.25 19.05 2.1 19.2 1.9 19.45 1.5 19.55 L1.35 19.75 1.05 19.85 0.8 19.9 -0.35 19.8 Q-0.55 19.75 -0.9 19.55 L-1.0 19.5 Q-1.3 19.35 -1.75 19.3 L-2.8 19.2 -3.2 19.2 Q-3.1 19.2 -2.95 19.3 L-3.8 19.3 Q-4.9 19.25 -4.95 19.3 L-5.0 19.3 -5.15 19.35 -5.85 19.45 Q-6.9 19.45 -7.3 19.2 L-7.7 18.85 -7.9 18.55 Q-7.85 18.35 -7.6 18.05 L-7.1 17.5 -7.0 17.4 Q-7.0 17.05 -5.95 15.8 -5.9 14.95 -5.45 14.35 -5.15 13.95 -4.25 13.2 -3.4 12.5 -3.0 11.95 -2.3 11.05 -2.1 9.8 -1.95 9.0 -1.0 6.7 -0.3 5.05 -0.25 4.05 L-0.3 4.0 -0.65 3.5 Q-0.85 3.15 -0.85 2.9 -0.85 1.85 -0.45 1.0 -0.1 0.1 0.5 -0.25 0.85 -0.45 1.25 -0.45 M8.6 3.55 Q8.35 3.35 7.95 3.35 L7.95 3.25 6.85 3.15 Q4.3 3.15 2.7 0.8 L2.2 0.45 Q1.75 0.05 1.3 0.05 L1.0 0.05 0.6 0.25 Q0.45 0.5 0.15 1.45 L-0.05 2.0 Q-0.2 2.55 -0.2 2.8 -0.2 3.1 0.0 3.35 0.15 3.55 0.4 3.65 L0.5 3.65 Q0.65 3.6 0.8 3.55 L1.15 3.25 1.25 3.1 Q1.4 2.65 1.5 2.5 L1.55 2.5 1.55 2.45 Q1.6 2.25 1.65 2.25 L1.85 2.15 2.05 2.35 2.1 2.45 2.15 2.5 2.15 2.6 1.75 3.35 1.65 3.45 1.65 3.5 1.6 3.55 Q1.2 4.05 0.85 4.15 L0.4 4.25 0.4 4.35 -0.8 8.25 -1.35 10.05 Q-1.35 10.45 -2.15 11.75 -2.85 12.95 -3.05 13.15 -4.05 14.05 -4.7 14.85 L-5.1 15.7 -5.35 16.1 -5.25 16.1 -5.4 16.4 -5.45 16.55 -5.4 16.6 Q-5.35 16.65 -5.35 16.75 -5.5 16.8 -5.7 16.95 L-5.95 17.15 Q-6.25 17.4 -6.45 17.7 L-6.65 18.1 Q-6.2 18.35 -5.65 18.35 L-4.55 18.25 Q-2.75 18.25 -1.5 18.6 L-0.9 18.8 -0.85 18.8 -0.7 18.85 0.3 19.0 0.35 19.0 0.7 18.95 1.35 18.95 1.45 18.9 1.55 18.7 1.5 18.45 Q1.0 18.35 0.85 17.5 0.75 17.15 0.75 16.25 0.75 15.3 1.35 14.0 1.75 12.8 2.45 11.55 3.2 10.3 3.75 9.25 4.35 8.15 4.6 7.4 4.7 7.0 4.7 6.6 L4.65 5.8 4.6 5.75 Q4.35 5.25 4.35 5.1 L4.3 4.95 Q4.15 4.8 3.8 4.65 L3.55 4.55 Q3.55 4.5 3.6 4.5 L3.65 4.45 4.0 4.5 3.95 4.45 Q4.1 4.35 4.3 4.35 4.5 4.3 4.7 4.5 4.9 4.7 5.1 5.1 L5.35 5.75 Q5.45 6.0 5.45 6.4 5.45 6.65 5.3 7.05 5.05 7.8 4.35 9.25 L4.05 9.75 Q3.65 10.8 3.25 11.75 2.85 12.65 2.4 13.45 L1.75 14.55 1.7 14.6 Q1.55 15.15 1.5 15.8 L1.6 15.85 1.5 15.95 1.5 16.3 Q1.5 16.5 1.95 17.4 L2.2 18.0 Q2.65 17.85 3.55 17.85 4.85 17.85 5.4 18.3 L5.55 18.4 5.65 18.45 6.55 18.55 6.75 18.4 7.0 18.2 7.05 18.2 7.05 18.15 6.8 17.75 6.75 17.65 6.55 17.6 Q6.35 17.55 6.3 17.5 L6.65 16.95 Q6.7 16.8 6.85 16.6 L6.85 16.55 6.95 16.4 Q7.25 15.9 7.55 15.85 L7.6 15.85 Q7.95 15.55 8.55 15.35 9.05 15.15 9.55 15.45 9.8 15.6 9.95 15.75 L9.75 15.35 9.75 15.3 9.65 15.05 9.55 14.85 Q9.35 14.75 9.1 14.65 8.6 14.35 8.55 13.95 L8.45 13.15 8.4 12.9 8.3 12.65 Q7.95 11.7 7.95 11.3 7.95 11.25 8.3 9.95 L8.4 9.45 Q8.5 8.7 8.75 7.25 L9.15 5.1 9.1 4.8 9.1 4.65 9.05 4.4 Q9.0 4.05 8.85 3.8 L8.6 3.55 M0.9 1.4 L1.0 1.35 1.25 1.4 1.4 1.45 Q1.45 1.5 1.45 1.65 1.45 2.0 1.25 2.4 1.05 2.8 0.75 2.85 0.75 2.7 0.95 2.3 1.1 1.9 1.15 1.75 1.1 1.75 0.9 1.85 L0.7 1.95 0.65 1.95 0.65 1.7 0.9 1.4 M2.0 3.0 Q2.5 3.05 2.6 3.65 L2.8 4.65 2.75 4.85 2.65 4.95 Q2.4 3.75 2.4 3.45 2.4 3.3 2.3 3.25 L2.05 3.15 2.0 3.0 M0.5 11.55 L-0.05 12.25 Q-1.45 14.45 -1.45 15.65 L-1.5 16.35 -1.5 16.45 -1.55 17.45 -1.7 17.5 -1.65 17.3 Q-1.85 16.95 -1.95 16.45 -2.05 15.95 -2.05 15.6 -2.05 14.2 -0.7 12.3 L0.55 10.65 Q1.35 9.65 1.75 8.9 L1.8 9.05 1.5 9.6 Q1.4 9.8 1.4 10.1 1.4 10.25 0.5 11.55 M10.25 15.9 L10.05 16.0 10.15 16.2 Q10.15 16.3 10.1 16.5 L10.1 16.65 10.25 16.65 Q10.3 16.3 10.25 15.65 10.2 15.8 10.25 15.9 M-0.1 4.1 L-0.2 4.5 -0.15 4.5 -0.05 4.15 -0.1 4.1 M-1.05 8.5 L-1.05 8.55 -1.2 8.9 Q-1.1 8.8 -1.05 8.5" fill="#111111" fill-rule="evenodd" stroke="none"/>
    <path d="M7.05 18.15 L7.05 18.2 7.05 18.15 M-0.85 18.8 L-0.9 18.8 -0.9 18.75 -0.85 18.8 M10.25 15.9 Q10.2 15.8 10.25 15.65 10.3 16.3 10.25 16.65 L10.1 16.65 10.1 16.5 Q10.15 16.3 10.15 16.2 L10.05 16.0 10.25 15.9" fill="#666666" fill-rule="evenodd" stroke="none"/>
    <path d="M-0.05 2.0 L0.15 1.45 Q0.45 0.5 0.6 0.25 L1.0 0.05 1.3 0.05 Q1.75 0.05 2.2 0.45 L2.7 0.8 Q4.3 3.15 6.85 3.15 L7.95 3.25 7.95 3.35 Q8.35 3.35 8.6 3.55 L8.55 3.6 Q8.25 3.85 8.3 4.65 8.35 5.35 8.2 6.4 L7.9 8.2 Q7.85 8.6 7.7 9.1 7.55 9.6 7.4 9.9 7.3 10.05 6.8 10.75 6.4 11.25 6.3 11.7 6.05 12.55 5.95 13.5 L5.95 15.8 6.0 16.5 5.9 17.2 5.8 17.6 5.55 17.35 Q5.35 17.15 5.15 16.9 L5.15 16.8 Q4.95 16.3 4.9 15.55 L4.9 14.3 Q4.9 12.65 5.5 10.9 6.05 9.15 6.05 8.05 6.05 6.75 5.8 6.0 5.4 4.8 4.3 4.15 3.55 3.7 3.15 3.15 L2.7 2.25 2.5 1.75 Q2.4 1.45 2.1 1.25 1.65 1.0 1.4 1.15 1.25 1.2 1.25 1.4 L1.0 1.35 0.9 1.4 0.95 1.35 0.9 1.35 Q0.35 1.4 0.05 1.85 L-0.05 2.0 M-6.45 17.7 Q-6.25 17.4 -5.95 17.15 L-5.7 16.95 Q-5.5 16.8 -5.35 16.75 -5.35 16.65 -5.4 16.6 L-5.45 16.55 -5.4 16.4 -5.25 16.1 -5.35 16.1 -5.1 15.7 -4.7 14.85 Q-4.05 14.05 -3.05 13.15 -2.85 12.95 -2.15 11.75 -1.35 10.45 -1.35 10.05 L-0.8 8.25 -0.85 8.4 0.0 7.3 0.45 6.55 0.9 5.7 Q1.25 5.1 2.0 4.95 L2.2 4.9 2.2 5.05 Q2.2 5.6 2.05 6.2 L1.9 6.7 Q1.8 6.9 1.65 7.35 1.6 7.55 1.35 8.1 1.1 8.65 1.05 8.85 0.9 9.2 0.25 10.15 L-0.85 11.75 Q-1.2 12.25 -1.65 13.25 -2.15 14.3 -2.35 14.65 -2.6 15.05 -2.65 16.1 L-2.65 16.5 Q-2.6 16.75 -2.65 16.9 -2.8 17.4 -3.65 17.55 L-3.75 17.5 Q-3.75 17.15 -3.8 17.05 -3.9 16.85 -4.5 16.85 L-5.15 17.15 -6.05 17.55 -6.4 17.7 -6.45 17.7 M0.5 11.55 L1.05 10.8 Q1.4 10.35 2.05 8.75 L2.05 8.7 Q2.25 8.5 2.4 8.25 2.5 8.0 2.7 7.1 L2.95 6.0 Q3.15 5.1 3.15 4.75 3.15 4.5 3.05 4.25 L3.85 4.8 3.9 5.25 Q3.9 5.6 3.6 6.8 L3.3 8.05 Q3.15 8.6 2.8 9.4 L2.1 10.8 0.75 13.7 Q0.2 15.05 0.2 16.45 L0.2 17.1 Q0.2 17.5 0.25 17.75 L0.0 17.75 -0.4 17.8 Q-0.5 17.8 -1.15 17.45 -1.2 17.45 -1.3 17.55 L-1.4 17.05 -1.5 16.35 -1.45 15.65 Q-1.45 14.45 -0.05 12.25 L0.5 11.55 M7.65 12.0 L7.7 12.05 Q7.7 12.35 7.7 13.0 7.7 13.6 7.85 13.95 8.0 14.15 8.2 14.4 8.4 14.65 8.6 14.85 L8.4 14.85 Q8.25 14.85 7.65 15.05 L7.1 15.25 7.05 14.75 7.0 14.2 Q7.0 13.8 7.65 12.0 M4.15 10.6 Q4.0 11.35 4.0 11.55 L3.65 14.65 Q3.65 15.0 3.85 15.9 3.9 16.65 3.15 17.05 L2.55 15.85 Q2.15 15.0 2.15 14.85 2.15 14.35 3.1 12.55 3.7 11.35 4.15 10.6" fill="#666342" fill-rule="evenodd" stroke="none"/>
    <path d="M-0.05 2.0 L0.05 1.85 Q0.35 1.4 0.9 1.35 L0.95 1.35 0.9 1.4 0.65 1.7 0.65 1.95 0.7 1.95 0.9 1.85 Q1.1 1.75 1.15 1.75 1.1 1.9 0.95 2.3 0.75 2.7 0.75 2.85 1.05 2.8 1.25 2.4 1.45 2.0 1.45 1.65 1.45 1.5 1.4 1.45 L1.25 1.4 Q1.25 1.2 1.4 1.15 1.65 1.0 2.1 1.25 2.4 1.45 2.5 1.75 L2.7 2.25 3.15 3.15 Q3.55 3.7 4.3 4.15 5.4 4.8 5.8 6.0 6.05 6.75 6.05 8.05 6.05 9.15 5.5 10.9 4.9 12.65 4.9 14.3 L4.9 15.55 Q4.95 16.3 5.15 16.8 L5.15 16.9 Q5.35 17.15 5.55 17.35 L5.8 17.6 5.9 17.2 6.0 16.5 5.95 15.8 5.95 13.5 Q6.05 12.55 6.3 11.7 6.4 11.25 6.8 10.75 7.3 10.05 7.4 9.9 7.55 9.6 7.7 9.1 7.85 8.6 7.9 8.2 L8.2 6.4 Q8.35 5.35 8.3 4.65 8.25 3.85 8.55 3.6 L8.6 3.55 8.85 3.8 Q9.0 4.05 9.05 4.4 L9.1 4.65 9.1 4.8 9.15 5.1 8.75 7.25 Q8.5 8.7 8.4 9.45 L8.3 9.95 Q7.95 11.25 7.95 11.3 7.95 11.7 8.3 12.65 L8.4 12.9 8.45 13.15 8.55 13.95 Q8.6 14.35 9.1 14.65 9.35 14.75 9.55 14.85 L9.65 15.05 9.75 15.3 9.75 15.35 9.95 15.75 Q9.8 15.6 9.55 15.45 9.05 15.15 8.55 15.35 7.95 15.55 7.6 15.85 L7.55 15.85 Q7.25 15.9 6.95 16.4 L6.85 16.55 6.85 16.6 Q6.7 16.8 6.65 16.95 L6.3 17.5 Q6.35 17.55 6.55 17.6 L6.75 17.65 6.8 17.75 7.05 18.15 7.05 18.2 7.0 18.2 6.75 18.4 6.55 18.55 5.65 18.45 5.55 18.4 5.4 18.3 Q4.85 17.85 3.55 17.85 2.65 17.85 2.2 18.0 L1.95 17.4 Q1.5 16.5 1.5 16.3 L1.5 15.95 1.6 15.85 1.5 15.8 Q1.55 15.15 1.7 14.6 L1.75 14.55 2.4 13.45 Q2.85 12.65 3.25 11.75 3.65 10.8 4.05 9.75 L4.35 9.25 Q5.05 7.8 5.3 7.05 5.45 6.65 5.45 6.4 5.45 6.0 5.35 5.75 L5.1 5.1 Q4.9 4.7 4.7 4.5 4.5 4.3 4.3 4.35 4.1 4.35 3.95 4.45 L4.0 4.5 3.65 4.45 3.6 4.5 Q3.55 4.5 3.55 4.55 L3.8 4.65 Q4.15 4.8 4.3 4.95 L4.35 5.1 Q4.35 5.25 4.6 5.75 L4.65 5.8 4.7 6.6 Q4.7 7.0 4.6 7.4 4.35 8.15 3.75 9.25 3.2 10.3 2.45 11.55 1.75 12.8 1.35 14.0 0.75 15.3 0.75 16.25 0.75 17.15 0.85 17.5 1.0 18.35 1.5 18.45 L1.55 18.7 1.45 18.9 1.35 18.95 0.7 18.95 0.35 19.0 0.3 19.0 -0.7 18.85 -0.85 18.8 -0.9 18.75 -0.9 18.8 -1.5 18.6 Q-2.75 18.25 -4.55 18.25 L-5.65 18.35 Q-6.2 18.35 -6.65 18.1 L-6.45 17.7 -6.4 17.7 -6.05 17.55 -5.15 17.15 -4.5 16.85 Q-3.9 16.85 -3.8 17.05 -3.75 17.15 -3.75 17.5 L-3.65 17.55 Q-2.8 17.4 -2.65 16.9 -2.6 16.75 -2.65 16.5 L-2.65 16.1 Q-2.6 15.05 -2.35 14.65 -2.15 14.3 -1.65 13.25 -1.2 12.25 -0.85 11.75 L0.25 10.15 Q0.9 9.2 1.05 8.85 1.1 8.65 1.35 8.1 1.6 7.55 1.65 7.35 1.8 6.9 1.9 6.7 L2.05 6.2 Q2.2 5.6 2.2 5.05 L2.2 4.9 2.0 4.95 Q1.25 5.1 0.9 5.7 L0.45 6.55 0.0 7.3 -0.85 8.4 -0.8 8.25 0.4 4.35 0.4 4.25 0.85 4.15 Q1.2 4.05 1.6 3.55 L1.65 3.5 1.65 3.45 1.75 3.35 2.15 2.6 2.15 2.5 2.1 2.45 2.05 2.35 1.85 2.15 1.65 2.25 Q1.6 2.25 1.55 2.45 L1.55 2.5 1.5 2.5 Q1.4 2.65 1.25 3.1 L1.15 3.25 0.8 3.55 Q0.65 3.6 0.5 3.65 L0.4 3.65 Q0.15 3.55 0.0 3.35 -0.2 3.1 -0.2 2.8 -0.2 2.55 -0.05 2.0 M2.0 3.0 L2.05 3.15 2.3 3.25 Q2.4 3.3 2.4 3.45 2.4 3.75 2.65 4.95 L2.75 4.85 2.8 4.65 2.6 3.65 Q2.5 3.05 2.0 3.0 M-1.5 16.35 L-1.4 17.05 -1.3 17.55 Q-1.2 17.45 -1.15 17.45 -0.5 17.8 -0.4 17.8 L0.0 17.75 0.25 17.75 Q0.2 17.5 0.2 17.1 L0.2 16.45 Q0.2 15.05 0.75 13.7 L2.1 10.8 2.8 9.4 Q3.15 8.6 3.3 8.05 L3.6 6.8 Q3.9 5.6 3.9 5.25 L3.85 4.8 3.05 4.25 Q3.15 4.5 3.15 4.75 3.15 5.1 2.95 6.0 L2.7 7.1 Q2.5 8.0 2.4 8.25 2.25 8.5 2.05 8.7 L2.05 8.75 Q1.4 10.35 1.05 10.8 L0.5 11.55 Q1.4 10.25 1.4 10.1 1.4 9.8 1.5 9.6 L1.8 9.05 1.75 8.9 Q1.35 9.65 0.55 10.65 L-0.7 12.3 Q-2.05 14.2 -2.05 15.6 -2.05 15.95 -1.95 16.45 -1.85 16.95 -1.65 17.3 L-1.7 17.5 -1.55 17.45 -1.5 16.45 -1.5 16.35 M4.15 10.6 Q3.7 11.35 3.1 12.55 2.15 14.35 2.15 14.85 2.15 15.0 2.55 15.85 L3.15 17.05 Q3.9 16.65 3.85 15.9 3.65 15.0 3.65 14.65 L4.0 11.55 Q4.0 11.35 4.15 10.6 M7.65 12.0 Q7.0 13.8 7.0 14.2 L7.05 14.75 7.1 15.25 7.65 15.05 Q8.25 14.85 8.4 14.85 L8.6 14.85 Q8.4 14.65 8.2 14.4 8.0 14.15 7.85 13.95 7.7 13.6 7.7 13.0 7.7 12.35 7.7 12.05 L7.65 12.0" fill="#333121" fill-rule="evenodd" stroke="none"/>
  </g>
</svg>
