<?xml version="1.0" encoding="UTF-8" standalone="no"?>
<svg xmlns:ffdec="https://www.free-decompiler.com/flash" xmlns:xlink="http://www.w3.org/1999/xlink" ffdec:objectType="shape" height="17.4px" width="14.65px" xmlns="http://www.w3.org/2000/svg">
  <g transform="matrix(1.0, 0.0, 0.0, 1.0, 5.25, -0.75)">
    <path d="M1.1 1.2 L8.35 4.25 Q10.05 10.4 7.2 15.75 L5.95 16.9 Q1.2 18.95 -4.65 16.7 -3.8 13.5 -0.65 11.55 -1.15 10.75 -0.85 6.5 L0.1 7.45 1.1 1.2" fill="#5b6b6b" fill-rule="evenodd" stroke="none"/>
    <path d="M4.5 16.35 L4.65 16.5 3.6 17.0 2.95 17.1 -1.8 17.35 -3.75 17.05 Q-4.9 16.75 -4.45 15.95 L-1.4 12.3 Q-1.0 11.9 -0.45 11.65 L0.35 11.9 Q0.3 11.7 0.3 11.5 L2.25 13.75 2.85 14.5 Q3.65 15.5 4.5 16.35 M-0.65 12.7 L-0.7 12.65 Q-0.8 12.7 -0.85 12.7 L-0.95 12.8 -1.0 12.9 -0.95 12.95 -1.0 12.95 Q-1.05 13.3 -0.8 13.6 -0.45 14.05 0.1 14.1 L0.2 14.0 0.3 13.85 Q0.3 13.8 0.3 13.7 L0.2 13.55 0.15 13.45 Q0.1 13.25 -0.05 13.1 L-0.1 12.95 Q-0.25 12.8 -0.45 12.75 L-0.5 12.7 -0.55 12.65 -0.6 12.7 -0.65 12.7 M1.95 15.15 Q1.8 15.15 1.65 15.25 1.55 15.35 1.55 15.5 1.75 15.75 1.95 15.55 2.25 15.3 1.95 15.15 M0.7 14.5 Q0.8 14.75 0.95 14.7 2.25 14.6 1.05 13.85 0.55 13.95 0.7 14.5 M0.5 15.3 Q0.45 15.1 0.25 15.0 0.05 14.95 -0.15 14.95 L-0.35 15.05 -0.5 15.2 -0.5 15.25 Q-0.5 15.6 -0.05 15.7 0.45 15.8 0.5 15.3 M-1.55 13.55 Q-1.6 13.55 -1.65 13.5 L-1.75 13.55 -1.8 13.6 -1.9 13.65 Q-1.95 13.9 -1.9 14.2 -1.9 14.45 -1.75 14.65 -1.5 14.7 -1.4 14.45 L-1.3 14.3 -1.35 13.9 -1.4 13.65 Q-1.45 13.6 -1.55 13.55 M-2.75 15.15 Q-2.3 15.55 -2.0 15.15 -2.1 14.95 -2.35 14.9 L-2.7 14.8 Q-3.05 14.95 -2.75 15.15" fill="#333333" fill-rule="evenodd" stroke="none"/>
    <path d="M-0.65 12.7 Q-1.0 12.85 -0.8 13.25 -0.45 14.0 0.15 13.8 L0.2 13.55 0.3 13.7 Q0.3 13.8 0.3 13.85 L0.2 14.0 0.1 14.1 Q-0.45 14.05 -0.8 13.6 -1.05 13.3 -1.0 12.95 L-0.95 12.95 -1.0 12.9 -0.95 12.8 -0.85 12.7 Q-0.8 12.7 -0.7 12.65 L-0.65 12.7 -0.6 12.7 -0.65 12.7 M0.15 13.45 L0.05 13.25 -0.05 13.15 -0.05 13.1 Q0.1 13.25 0.15 13.45 M-0.5 12.75 L-0.5 12.7 -0.45 12.75 -0.5 12.75 M0.5 15.3 Q0.45 15.8 -0.05 15.7 -0.5 15.6 -0.5 15.25 L-0.5 15.2 -0.35 15.05 -0.15 14.95 Q0.05 14.95 0.25 15.0 0.45 15.1 0.5 15.3 M0.7 14.5 Q0.55 13.95 1.05 13.85 2.25 14.6 0.95 14.7 0.8 14.75 0.7 14.5 M1.95 15.15 Q2.25 15.3 1.95 15.55 1.75 15.75 1.55 15.5 1.55 15.35 1.65 15.25 1.8 15.15 1.95 15.15 M-1.55 13.55 Q-1.45 13.6 -1.4 13.65 L-1.35 13.9 -1.3 14.3 -1.4 14.45 Q-1.5 14.7 -1.75 14.65 -1.9 14.45 -1.9 14.2 -1.95 13.9 -1.9 13.65 L-1.8 13.6 -1.75 13.55 -1.65 13.5 Q-1.6 13.55 -1.55 13.55 M-2.75 15.15 Q-3.05 14.95 -2.7 14.8 L-2.35 14.9 Q-2.1 14.95 -2.0 15.15 -2.3 15.55 -2.75 15.15" fill="#666666" fill-rule="evenodd" stroke="none"/>
    <path d="M0.2 13.55 L0.15 13.8 Q-0.45 14.0 -0.8 13.25 -1.0 12.85 -0.65 12.7 L-0.6 12.7 -0.55 12.65 -0.5 12.7 -0.5 12.75 -0.2 12.95 -0.05 13.15 0.05 13.25 0.15 13.45 0.2 13.55" fill="#a5c2c2" fill-rule="evenodd" stroke="none"/>
    <path d="M3.6 17.0 L2.95 17.1 3.6 17.0" fill="#285228" fill-rule="evenodd" stroke="none"/>
    <path d="M3.35 11.45 Q5.4 7.75 7.4 4.5 9.95 9.3 6.5 14.1 L3.35 11.45 M6.15 14.55 L5.45 15.4 Q4.95 16.0 4.5 16.35 3.65 15.5 2.85 14.5 L2.25 13.75 Q2.4 13.2 2.7 12.6 L3.0 12.1 3.2 12.25 Q4.85 13.95 6.15 14.55" fill="#4a5757" fill-rule="evenodd" stroke="none"/>
    <path d="M2.75 6.4 Q2.4 8.1 1.2 8.55 1.0 6.95 1.5 5.15 L2.15 2.75 2.2 2.7 2.45 2.55 2.45 2.5 Q3.15 4.25 2.75 6.4" fill="#cccccc" fill-rule="evenodd" stroke="none"/>
    <path d="M3.0 12.1 L2.8 11.95 Q1.35 10.7 0.3 9.6 -0.75 8.45 -0.75 8.0 -0.75 7.65 -0.45 7.75 -0.6 7.5 -0.6 7.4 L3.35 11.45 6.5 14.1 7.8 14.9 7.65 15.05 Q7.3 15.05 6.8 14.8 L6.15 14.55 Q4.85 13.95 3.2 12.25 L3.0 12.1" fill="#ffffff" fill-rule="evenodd" stroke="none"/>
    <path d="M7.0 3.35 Q7.6 3.6 8.15 3.85 L8.15 3.6 8.25 3.85 8.35 3.9 8.3 3.9 8.3 3.95 8.45 4.0 8.35 4.0 8.4 4.2 8.65 4.3 8.5 4.3 Q8.75 4.95 8.95 5.65 9.35 6.85 9.25 8.25 L9.25 9.2 9.3 9.7 9.3 9.65 9.4 9.7 9.4 9.95 Q9.4 10.35 9.25 11.0 L9.25 11.1 9.2 11.1 8.9 12.2 Q8.4 13.65 8.05 14.2 L7.95 14.2 8.2 14.25 8.7 14.2 Q8.6 14.7 8.4 15.3 8.2 15.95 7.85 16.4 L7.75 16.55 7.75 16.45 7.65 16.6 Q7.55 17.05 6.5 17.1 L6.15 17.15 Q4.25 17.7 2.2 17.85 L1.0 18.05 Q-0.35 18.2 -1.6 18.05 L-1.35 18.0 Q-2.3 17.95 -3.2 17.75 -3.8 17.6 -4.15 17.35 L-4.6 17.15 -4.65 17.3 -4.7 17.1 -4.75 17.1 -5.25 16.75 -4.85 16.85 -4.8 16.7 -4.9 16.65 -4.8 16.65 -4.8 16.55 Q-4.85 15.55 -4.15 14.55 -3.85 13.65 -3.1 12.85 -2.3 11.95 -1.3 11.35 -1.3 11.1 -1.2 10.85 L-1.3 10.5 -1.35 10.2 Q-1.4 9.7 -1.4 8.95 L-1.45 8.75 -1.4 8.55 -1.45 8.45 Q-1.45 8.0 -1.1 7.0 L-1.25 6.85 Q-1.15 6.85 -1.15 6.8 L-1.05 6.85 -1.05 6.8 -1.1 6.7 Q-1.1 6.05 -0.8 6.2 -0.55 5.7 -0.5 6.45 L-0.5 6.5 -0.3 6.7 -0.1 5.65 Q0.2 4.15 0.45 2.85 L0.5 2.55 0.5 2.45 Q0.45 2.1 0.55 1.7 0.6 1.45 0.7 1.25 L0.7 1.15 Q0.7 0.9 0.95 0.8 L1.1 0.85 1.05 0.75 Q1.8 0.95 2.55 1.25 L2.85 1.35 Q4.25 1.7 5.5 2.45 L6.15 2.9 6.4 3.05 7.0 3.35 M8.0 4.3 Q7.05 4.35 6.25 3.85 L6.25 3.9 4.45 2.85 Q2.9 1.9 1.15 1.55 1.1 4.55 0.6 7.65 L0.6 8.05 1.35 8.75 1.8 9.3 3.1 10.75 Q4.3 12.05 5.2 12.8 L6.2 13.5 6.75 13.7 Q7.2 13.8 7.5 14.0 L7.65 13.45 7.9 12.4 Q8.05 11.75 8.25 11.25 8.4 9.75 8.4 8.2 8.35 6.4 8.15 4.8 L8.0 4.7 8.05 4.6 8.15 4.75 8.1 4.35 8.1 4.3 8.0 4.3 M0.15 12.3 Q-0.25 12.0 -0.6 11.75 L-0.75 12.05 -0.75 11.85 -0.8 11.85 Q-0.95 12.15 -1.4 12.55 L-1.65 12.85 Q-2.25 13.4 -2.75 14.05 L-2.95 14.4 Q-3.35 15.0 -3.8 15.5 L-3.65 15.25 -4.25 16.1 -4.45 16.5 Q-3.35 16.85 -2.2 16.95 -1.4 17.0 -0.65 17.15 1.95 17.1 4.6 16.45 L4.65 16.4 4.75 16.5 Q5.05 16.7 5.4 16.7 L5.65 16.65 5.75 16.55 5.9 16.5 Q6.95 16.3 7.1 15.55 L7.2 15.4 7.55 14.75 7.25 14.75 6.6 14.45 Q4.95 13.8 2.6 11.3 1.8 10.4 0.45 8.75 L-0.3 7.85 -0.6 7.55 -0.65 7.7 -0.75 8.75 -0.75 9.85 Q-0.7 10.55 -0.45 11.05 L-0.45 11.1 -0.35 11.15 -0.45 11.4 Q0.2 11.65 0.75 12.15 1.2 12.6 1.45 13.1 0.8 12.75 0.15 12.3 M7.85 14.2 L7.9 14.2 8.0 13.9 7.85 14.2 M-4.75 16.85 L-4.75 16.85" fill="#111111" fill-rule="evenodd" stroke="none"/>
  </g>
</svg>
