<?xml version="1.0" encoding="UTF-8" standalone="no"?>
<svg xmlns:ffdec="https://www.free-decompiler.com/flash" xmlns:xlink="http://www.w3.org/1999/xlink" ffdec:objectType="shape" height="20.85px" width="12.05px" xmlns="http://www.w3.org/2000/svg">
  <g transform="matrix(1.0, 0.0, 0.0, 1.0, 0.95, 0.0)">
    <path d="M1.8 12.55 L2.3 12.55 1.8 15.45 1.05 16.05 1.0 14.3 1.8 12.55 M5.4 12.55 L9.55 12.55 5.45 12.75 5.4 12.55" fill="#346b34" fill-rule="evenodd" stroke="none"/>
    <path d="M9.55 12.55 L11.0 16.15 Q10.85 16.45 10.6 16.9 L10.4 17.2 Q10.15 17.4 9.95 17.9 9.65 18.7 8.6 19.75 8.2 20.1 6.6 20.85 L6.0 20.6 Q4.9 20.35 3.45 19.0 L3.4 19.0 3.4 18.95 3.15 18.75 2.7 18.25 2.35 17.9 2.05 17.7 2.0 17.6 Q1.8 17.25 1.6 17.0 L1.35 16.6 1.05 16.05 1.8 15.45 5.45 12.75 9.55 12.55 M1.0 14.3 L1.8 12.55 1.0 14.3 M5.65 13.5 L2.0 16.1 2.25 16.15 Q2.25 16.25 2.3 16.45 L3.2 17.35 4.05 17.9 4.65 18.35 7.15 20.2 7.4 20.2 Q7.6 19.9 8.0 19.5 L8.55 18.9 9.0 17.9 9.35 16.85 Q9.35 16.65 9.3 16.6 L9.5 16.3 9.6 16.15 9.65 16.1 9.75 15.95 Q9.6 15.85 9.5 15.65 L8.95 14.7 6.25 13.35 5.65 13.5" fill="#111111" fill-rule="evenodd" stroke="none"/>
    <path d="M2.3 12.55 L5.4 12.55 5.45 12.75 1.8 15.45 2.3 12.55" fill="#285228" fill-rule="evenodd" stroke="none"/>
    <path d="M9.5 16.3 L9.0 16.25 9.05 16.15 9.1 16.1 Q9.25 15.85 9.25 15.55 9.25 15.15 8.75 15.2 8.25 15.25 8.25 15.75 L8.25 15.95 7.95 15.8 7.85 15.8 Q8.1 15.5 8.05 15.3 8.05 15.0 7.85 14.85 7.6 14.7 7.3 14.75 6.7 14.9 6.55 15.4 5.7 15.0 5.35 14.7 L5.3 14.6 5.55 14.5 5.65 14.65 Q5.8 15.0 6.25 15.0 6.4 15.0 6.75 14.85 7.15 14.6 7.15 14.45 7.15 14.1 6.9 13.9 6.65 13.7 6.35 13.65 6.0 13.65 5.8 13.8 L5.65 13.5 6.25 13.35 8.95 14.7 9.5 15.65 Q9.6 15.85 9.75 15.95 L9.65 16.1 9.6 16.15 9.5 16.3 M8.5 14.1 L7.7 14.15 Q7.6 14.25 7.6 14.45 7.6 14.6 7.65 14.7 7.75 14.9 8.05 14.9 L8.4 14.85 8.55 14.75 8.65 14.45 8.5 14.1 M6.9 16.6 L6.9 16.35 Q7.2 16.35 7.6 16.55 8.0 16.75 8.15 16.95 L7.95 17.15 7.6 17.2 Q7.2 17.2 7.0 16.9 6.9 16.7 6.9 16.6" fill="#666666" fill-rule="evenodd" stroke="none"/>
    <path d="M9.5 16.3 L9.3 16.6 Q9.35 16.65 9.35 16.85 L9.0 17.9 8.55 18.9 8.0 19.5 Q7.6 19.9 7.4 20.2 L7.15 20.2 4.65 18.35 4.05 17.9 3.2 17.35 2.3 16.45 Q2.25 16.25 2.25 16.15 L2.0 16.1 5.65 13.5 5.8 13.8 Q6.0 13.65 6.35 13.65 6.65 13.7 6.9 13.9 7.15 14.1 7.15 14.45 7.15 14.6 6.75 14.85 6.4 15.0 6.25 15.0 5.8 15.0 5.65 14.65 L5.55 14.5 5.3 14.6 5.35 14.7 Q5.7 15.0 6.55 15.4 6.7 14.9 7.3 14.75 7.6 14.7 7.85 14.85 8.05 15.0 8.05 15.3 8.1 15.5 7.85 15.8 L7.95 15.8 8.25 15.95 8.25 15.75 Q8.25 15.25 8.75 15.2 9.25 15.15 9.25 15.55 9.25 15.85 9.1 16.1 L9.05 16.15 9.0 16.25 9.5 16.3 M8.5 14.1 L8.65 14.45 8.55 14.75 8.4 14.85 8.05 14.9 Q7.75 14.9 7.65 14.7 7.6 14.6 7.6 14.45 7.6 14.25 7.7 14.15 L8.5 14.1 M6.9 16.6 Q6.9 16.7 7.0 16.9 7.2 17.2 7.6 17.2 L7.95 17.15 8.15 16.95 Q8.0 16.75 7.6 16.55 7.2 16.35 6.9 16.35 L6.9 16.6" fill="#1a1a1a" fill-rule="evenodd" stroke="none"/>
    <path d="M6.3 2.55 L6.1 2.15 Q6.0 1.9 5.8 1.75 5.6 1.8 5.6 2.1 5.6 2.2 5.7 2.4 5.85 2.65 6.1 2.65 L6.25 2.65 6.3 2.55 M3.35 0.85 L4.0 0.7 Q5.8 0.9 6.8 1.95 7.05 2.2 7.35 2.6 L7.7 3.4 Q8.0 4.0 8.15 4.15 8.85 4.85 9.2 6.15 9.55 7.65 9.8 8.0 L9.75 8.0 9.1 7.4 8.8 7.05 Q8.75 5.6 8.15 4.85 L8.05 4.85 Q7.95 4.85 7.95 5.0 7.95 5.3 8.3 6.95 8.55 8.25 8.8 9.3 L8.75 9.3 Q8.0 8.65 7.6 7.5 7.3 6.55 7.1 6.05 L7.2 5.75 Q7.3 5.1 7.25 4.5 7.2 3.9 7.05 3.6 L6.75 5.25 Q6.55 6.15 6.2 6.6 L6.1 7.0 5.95 7.45 Q5.85 6.6 5.6 5.65 L6.35 4.4 Q6.35 4.25 6.3 4.2 L6.15 4.15 Q5.95 4.2 5.4 4.75 4.9 2.9 4.25 1.4 L4.15 1.4 4.15 1.5 4.1 1.75 4.0 4.05 Q4.0 4.45 4.05 4.9 L3.95 5.15 3.9 5.15 3.7 5.5 3.4 6.25 Q3.05 7.0 2.95 7.4 L2.5 8.0 2.2 8.35 2.2 8.4 2.0 8.8 2.35 7.25 2.85 5.15 Q3.35 3.0 3.35 0.85" fill="#346b34" fill-rule="evenodd" stroke="none"/>
    <path d="M6.3 2.55 L6.25 2.65 6.1 2.65 Q5.85 2.65 5.7 2.4 5.6 2.2 5.6 2.1 5.6 1.8 5.8 1.75 6.0 1.9 6.1 2.15 L6.3 2.55 M3.35 0.85 Q3.35 3.0 2.85 5.15 L2.35 7.25 2.0 8.8 1.95 8.95 1.8 9.3 1.75 9.3 1.6 8.9 Q1.35 8.05 1.35 7.15 1.45 6.7 1.45 6.5 L1.4 6.15 Q1.35 6.0 1.2 6.0 1.1 6.0 0.3 7.65 L-0.3 9.0 -0.4 9.0 Q-0.2 7.8 -0.2 7.55 0.0 4.5 0.15 3.95 0.3 3.3 0.9 2.5 L1.3 2.1 2.4 1.2 2.6 1.15 2.7 1.05 Q3.05 0.9 3.35 0.85 M4.05 4.9 Q4.0 4.45 4.0 4.05 L4.1 1.75 4.15 1.5 4.15 1.4 4.25 1.4 Q4.9 2.9 5.4 4.75 5.95 4.2 6.15 4.15 L6.3 4.2 Q6.35 4.25 6.35 4.4 L5.6 5.65 Q5.85 6.6 5.95 7.45 L5.85 7.85 Q5.7 8.05 5.55 8.3 L5.45 8.65 5.4 8.6 5.25 8.35 Q5.05 7.85 4.9 7.15 4.65 6.2 4.6 5.65 L4.6 5.55 4.55 5.25 4.35 4.25 4.05 4.9 M4.1 6.0 L4.2 6.05 Q4.25 6.45 4.35 6.9 4.55 7.7 4.65 8.2 5.05 9.6 5.4 9.7 4.7 9.7 4.05 9.9 3.55 10.05 1.85 11.2 L1.35 11.55 1.4 10.95 Q1.4 10.65 1.1 9.45 L0.8 8.15 0.8 7.9 0.85 7.75 0.7 7.7 Q0.75 7.55 0.85 7.45 L0.95 8.3 1.0 8.95 1.0 9.1 Q1.2 9.5 1.35 10.1 L1.4 10.1 Q1.5 10.35 1.65 10.45 L2.55 8.95 3.4 7.5 4.1 6.05 4.1 6.0 M2.15 15.5 Q2.1 15.15 2.1 15.05 2.1 14.65 2.75 13.85 3.45 13.1 3.45 12.55 3.5 12.35 3.45 12.2 3.35 11.85 3.0 11.85 2.45 11.85 2.2 11.55 L3.2 10.8 Q4.75 9.85 5.75 9.85 8.45 9.85 9.45 11.0 L9.85 11.65 Q10.2 12.25 10.25 12.65 8.85 11.45 7.3 11.85 9.1 12.85 10.2 14.55 10.2 15.05 10.3 15.4 9.9 15.1 8.9 14.4 7.8 13.6 7.45 13.55 5.95 12.9 3.65 14.4 2.85 14.85 2.15 15.5 M8.8 9.85 L8.8 10.0 Q8.8 10.05 8.85 10.2 L8.3 10.0 Q6.75 9.6 5.45 9.7 L6.35 7.8 6.85 6.65 7.05 7.15 7.45 8.2 Q7.65 8.75 8.0 9.2 8.35 9.6 8.8 9.85" fill="#285228" fill-rule="evenodd" stroke="none"/>
    <path d="M7.15 1.6 L7.75 2.35 Q8.0 2.7 8.15 2.95 L8.85 3.85 Q10.05 5.5 10.15 6.6 L10.3 7.1 Q10.6 8.25 10.6 8.6 L10.6 8.7 Q10.55 8.75 10.55 8.8 L10.5 8.8 10.35 8.85 Q9.85 8.85 9.35 8.25 L9.55 9.95 10.05 10.7 10.25 10.85 10.8 11.7 10.95 11.9 10.85 12.9 Q10.8 13.7 10.75 14.25 10.9 14.45 10.95 14.7 L11.0 15.5 10.95 15.8 11.1 16.3 Q11.1 16.65 10.75 16.65 L10.1 15.95 Q9.4 15.15 9.15 15.0 L8.1 14.4 Q7.7 14.2 7.45 14.0 L7.25 13.9 Q6.4 13.65 6.3 13.65 5.2 13.65 3.1 15.5 2.2 16.3 1.35 17.1 L1.3 17.2 Q1.2 17.4 1.0 17.4 0.55 17.4 0.15 15.7 L-0.15 14.0 -0.1 13.75 -0.2 13.25 Q-0.2 12.95 0.2 12.5 L0.3 12.3 Q0.7 11.3 0.7 9.85 L0.45 9.15 0.35 8.8 Q0.2 9.2 0.0 9.45 0.0 9.75 -0.05 9.85 -0.15 10.1 -0.4 10.1 -0.65 10.1 -0.85 9.35 L-0.95 8.6 Q-0.95 7.65 -0.7 5.8 -0.5 4.5 -0.3 3.65 L-0.3 3.6 Q-0.3 3.45 -0.15 3.2 0.05 2.55 0.3 2.25 1.65 0.7 2.1 0.4 2.95 -0.2 4.15 0.1 L4.55 0.05 Q5.15 0.05 6.0 0.55 L6.35 0.75 Q6.8 1.05 7.15 1.6 M5.95 7.45 L6.1 7.0 6.2 6.6 Q6.55 6.15 6.75 5.25 L7.05 3.6 Q7.2 3.9 7.25 4.5 7.3 5.1 7.2 5.75 L7.1 6.05 Q7.3 6.55 7.6 7.5 8.0 8.65 8.75 9.3 L8.8 9.3 Q8.55 8.25 8.3 6.95 7.95 5.3 7.95 5.0 7.95 4.85 8.05 4.85 L8.15 4.85 Q8.75 5.6 8.8 7.05 L9.1 7.4 9.75 8.0 9.8 8.0 Q9.55 7.65 9.2 6.15 8.85 4.85 8.15 4.15 8.0 4.0 7.7 3.4 L7.35 2.6 Q7.05 2.2 6.8 1.95 5.8 0.9 4.0 0.7 L3.35 0.85 Q3.05 0.9 2.7 1.05 L2.6 1.15 2.4 1.2 1.3 2.1 0.9 2.5 Q0.3 3.3 0.15 3.95 0.0 4.5 -0.2 7.55 -0.2 7.8 -0.4 9.0 L-0.3 9.0 0.3 7.65 Q1.1 6.0 1.2 6.0 1.35 6.0 1.4 6.15 L1.45 6.5 Q1.45 6.7 1.35 7.15 1.35 8.05 1.6 8.9 L1.75 9.3 1.8 9.3 1.95 8.95 2.0 8.8 2.2 8.4 2.2 8.35 2.5 8.0 2.95 7.4 Q3.05 7.0 3.4 6.25 L3.7 5.5 3.9 5.15 3.95 5.15 4.05 4.9 4.35 4.25 4.55 5.25 4.6 5.55 4.6 5.65 Q4.65 6.2 4.9 7.15 5.05 7.85 5.25 8.35 L5.4 8.6 5.45 8.65 5.55 8.3 Q5.7 8.05 5.85 7.85 L5.95 7.45 M4.1 6.0 L4.1 6.05 3.4 7.5 2.55 8.95 1.65 10.45 Q1.5 10.35 1.4 10.1 L1.35 10.1 Q1.2 9.5 1.0 9.1 L1.0 8.95 0.95 8.3 0.85 7.45 Q0.75 7.55 0.7 7.7 L0.85 7.75 0.8 7.9 0.8 8.15 1.1 9.45 Q1.4 10.65 1.4 10.95 L1.35 11.55 1.85 11.2 Q3.55 10.05 4.05 9.9 4.7 9.7 5.4 9.7 5.05 9.6 4.65 8.2 4.55 7.7 4.35 6.9 4.25 6.45 4.2 6.05 L4.1 6.0 M2.2 11.55 L1.75 11.9 1.45 12.1 Q0.55 12.8 0.4 13.65 0.35 13.9 0.5 15.15 0.6 15.55 0.85 16.0 L1.1 16.5 1.7 15.9 2.05 15.6 2.15 15.5 Q2.85 14.85 3.65 14.4 5.95 12.9 7.45 13.55 7.8 13.6 8.9 14.4 9.9 15.1 10.3 15.4 10.2 15.05 10.2 14.55 L10.2 14.5 10.0 13.9 Q10.0 13.8 10.15 13.35 L10.25 12.75 10.25 12.65 Q10.2 12.25 9.85 11.65 L9.45 11.0 Q8.45 9.85 5.75 9.85 4.75 9.85 3.2 10.8 L2.2 11.55 M8.9 8.25 L8.9 8.4 8.95 8.3 8.9 8.25 M8.8 9.85 Q8.35 9.6 8.0 9.2 7.65 8.75 7.45 8.2 L7.05 7.15 6.85 6.65 6.35 7.8 5.45 9.7 Q6.75 9.6 8.3 10.0 L8.85 10.2 Q8.8 10.05 8.8 10.0 L8.8 9.85" fill="#111111" fill-rule="evenodd" stroke="none"/>
    <path d="M2.15 15.5 L2.05 15.6 1.7 15.9 1.1 16.5 0.85 16.0 Q0.6 15.55 0.5 15.15 0.35 13.9 0.4 13.65 0.55 12.8 1.45 12.1 L1.75 11.9 2.2 11.55 Q2.45 11.85 3.0 11.85 3.35 11.85 3.45 12.2 3.5 12.35 3.45 12.55 3.45 13.1 2.75 13.85 2.1 14.65 2.1 15.05 2.1 15.15 2.15 15.5 M10.25 12.65 L10.25 12.75 10.15 13.35 Q10.0 13.8 10.0 13.9 L10.2 14.5 10.2 14.55 Q9.1 12.85 7.3 11.85 8.85 11.45 10.25 12.65" fill="#1f401f" fill-rule="evenodd" stroke="none"/>
  </g>
</svg>
