<?xml version="1.0" encoding="UTF-8" standalone="no"?>
<svg xmlns:ffdec="https://www.free-decompiler.com/flash" xmlns:xlink="http://www.w3.org/1999/xlink" ffdec:objectType="shape" height="20.95px" width="12.5px" xmlns="http://www.w3.org/2000/svg">
  <g transform="matrix(1.0, 0.0, 0.0, 1.0, 0.95, -0.05)">
    <path d="M0.3 5.85 Q0.5 4.45 0.35 3.1 0.6 2.8 0.95 2.55 L1.1 2.3 2.75 1.05 3.45 0.6 3.7 0.45 3.75 0.55 Q3.8 0.5 3.9 0.5 L3.9 0.5 4.05 0.45 Q4.25 0.55 4.45 0.7 5.1 0.95 5.7 1.25 L5.75 1.25 6.15 1.45 Q6.65 1.7 7.1 2.0 7.35 2.55 7.75 3.2 L8.05 3.75 8.95 5.1 8.1 4.5 7.6 4.2 7.55 4.2 7.35 4.35 Q7.25 4.5 7.15 4.75 7.15 5.1 7.35 5.45 7.5 5.7 7.4 5.95 7.05 5.35 6.75 4.75 6.4 3.9 5.85 3.3 L5.75 3.2 5.6 3.25 5.55 3.3 5.45 3.45 Q5.45 4.0 5.35 4.55 5.25 5.1 5.05 5.6 4.85 5.15 4.8 4.65 4.7 3.95 4.25 3.6 3.9 3.75 3.65 4.05 3.4 4.3 3.25 4.7 2.85 5.7 2.2 6.5 L2.15 5.35 Q2.1 4.35 1.35 4.0 L1.05 4.55 0.7 5.15 0.3 5.85 M4.15 4.95 L4.0 4.85 4.1 4.7 4.15 4.95 M1.75 7.8 L1.75 7.8 M5.9 6.3 L6.0 6.6 5.8 6.7 5.75 6.8 5.9 6.3 M5.7 6.95 L5.75 7.05 Q6.4 7.85 7.2 7.75 L7.65 7.65 8.15 7.95 7.05 7.95 Q6.2 7.9 5.95 8.65 L6.6 8.9 6.55 8.9 Q5.75 9.0 5.0 9.25 4.45 9.45 3.9 9.7 L4.0 9.65 3.9 9.55 Q3.9 9.4 4.15 9.3 4.4 9.2 4.35 9.0 L4.35 8.9 Q4.05 8.6 3.65 8.75 L3.5 8.8 Q3.35 8.65 3.15 8.65 L2.75 8.65 1.7 8.9 1.8 8.85 Q2.85 8.05 3.7 7.15 3.85 7.4 3.9 7.65 4.0 8.15 4.4 8.15 L4.4 8.1 4.4 8.8 4.85 8.4 5.15 8.05 5.4 7.65 5.7 6.95 M8.75 8.15 Q8.9 7.95 8.8 7.75 L8.75 7.65 Q8.65 7.5 8.6 7.25 8.55 7.1 8.55 7.0 L8.7 7.25 8.75 7.45 8.9 7.95 8.95 7.95 8.95 8.0 9.2 8.55 9.2 8.6 8.75 8.15 M1.25 11.7 L1.15 11.75 1.15 11.65 1.15 11.7 1.25 11.7 M0.65 7.8 L0.6 7.75 0.7 7.55 0.65 7.75 0.65 7.8 M1.35 6.55 L1.4 6.45 1.4 6.55 1.4 6.5 1.35 6.55 M1.3 8.95 L1.35 8.95 1.3 8.95 M3.9 5.25 L3.9 5.15 4.0 5.35 3.95 5.2 3.9 5.25 M4.25 2.3 L4.3 2.35 4.3 2.3 4.25 2.3 M4.8 13.7 L4.8 13.65 4.85 13.6 4.8 13.7" fill="#346b34" fill-rule="evenodd" stroke="none"/>
    <path d="M8.95 5.1 L9.55 6.05 10.1 6.85 10.1 6.95 9.95 6.7 9.65 6.35 Q9.05 5.75 8.3 5.35 L8.05 5.2 7.95 5.25 Q7.85 5.3 7.9 5.4 8.05 6.2 8.05 7.0 8.05 7.3 8.15 7.5 L7.35 6.5 Q6.75 5.7 6.3 4.9 L6.1 4.5 6.05 4.15 6.0 3.65 5.95 3.7 5.8 3.9 5.8 3.85 5.7 4.1 Q5.55 4.35 5.5 4.65 5.15 5.25 5.1 6.1 5.05 6.65 4.95 7.15 L4.9 7.4 4.85 7.45 4.85 7.55 4.7 6.3 Q4.6 5.4 4.15 4.95 L4.1 4.7 4.0 4.85 4.1 4.4 3.9 4.65 3.8 4.7 3.75 4.7 3.75 4.75 Q3.3 5.25 2.95 5.9 L1.75 7.8 1.85 7.35 Q2.15 6.1 1.4 5.15 1.15 5.45 0.95 5.85 L0.85 6.0 0.75 6.3 Q0.6 6.45 0.5 6.8 0.3 7.5 -0.05 8.05 L-0.15 8.15 -0.05 7.9 Q0.15 6.95 0.3 6.0 L0.3 5.85 0.7 5.15 1.05 4.55 1.35 4.0 Q2.1 4.35 2.15 5.35 L2.2 6.5 Q2.85 5.7 3.25 4.7 3.4 4.3 3.65 4.05 3.9 3.75 4.25 3.6 4.7 3.95 4.8 4.65 4.85 5.15 5.05 5.6 5.25 5.1 5.35 4.55 5.45 4.0 5.45 3.45 L5.55 3.3 5.6 3.25 5.75 3.2 5.85 3.3 Q6.4 3.9 6.75 4.75 7.05 5.35 7.4 5.95 7.5 5.7 7.35 5.45 7.15 5.1 7.15 4.75 7.25 4.5 7.35 4.35 L7.55 4.2 7.6 4.2 8.1 4.5 8.95 5.1 M5.9 6.3 L6.0 5.7 6.1 5.8 6.2 6.0 6.35 6.2 6.45 6.4 6.5 6.4 6.5 6.45 6.6 6.6 7.65 7.6 7.65 7.65 7.2 7.75 Q6.4 7.85 5.75 7.05 L5.7 6.95 5.75 6.9 5.75 6.8 5.8 6.7 6.0 6.6 5.9 6.3 M8.15 7.95 L8.2 7.95 8.45 8.05 8.45 8.1 8.7 8.2 8.75 8.15 9.2 8.6 8.9 8.5 Q8.55 8.5 8.35 8.7 L8.25 8.75 8.3 8.85 8.45 9.2 8.25 9.15 8.15 9.1 Q7.4 8.9 6.6 8.9 L5.95 8.65 Q6.2 7.9 7.05 7.95 L8.15 7.95 M3.9 9.7 L2.6 10.55 2.55 10.6 2.45 10.65 1.4 11.55 1.25 11.7 1.15 11.7 1.15 11.65 1.1 11.6 Q0.9 11.25 0.9 10.9 1.05 10.7 1.25 10.55 1.55 10.3 1.65 10.05 L1.7 9.9 1.65 9.85 Q1.25 9.55 0.75 9.6 L0.8 9.55 0.85 9.25 0.85 9.2 0.9 8.8 Q0.9 8.2 0.65 7.8 L0.65 7.75 0.7 7.55 Q0.85 7.3 1.05 7.1 L1.15 7.0 1.35 6.55 1.4 6.5 1.4 6.55 1.4 6.75 Q1.85 7.25 1.5 8.0 L1.25 8.5 1.05 8.95 1.3 8.95 1.35 8.95 1.4 8.95 1.45 8.9 1.55 8.5 Q2.25 8.2 2.85 7.3 3.55 6.25 3.9 5.25 L3.95 5.2 4.0 5.35 4.25 6.35 4.25 6.65 4.3 6.85 4.4 8.1 4.4 8.15 Q4.0 8.15 3.9 7.65 3.85 7.4 3.7 7.15 2.85 8.05 1.8 8.85 L1.7 8.9 2.75 8.65 3.15 8.65 Q3.35 8.65 3.5 8.8 L3.65 8.75 Q4.05 8.6 4.35 8.9 L4.35 9.0 Q4.4 9.2 4.15 9.3 3.9 9.4 3.9 9.55 L4.0 9.65 3.9 9.7 M9.8 13.4 Q9.5 13.1 9.1 12.85 7.1 11.65 5.05 12.3 4.25 12.55 3.35 13.15 3.7 12.8 4.05 12.5 4.45 12.15 4.7 11.85 4.65 11.6 4.4 11.55 L4.05 11.5 Q3.45 11.6 2.8 11.75 2.3 11.9 1.9 12.15 2.7 11.4 3.65 10.7 4.35 10.2 5.1 10.0 6.25 9.65 7.45 10.15 8.65 10.65 9.6 11.2 L9.65 11.5 9.5 11.45 Q8.5 11.0 7.5 10.7 L7.35 10.75 7.2 10.9 Q8.0 11.85 9.15 12.8 L9.8 13.3 9.8 13.4 M1.45 13.3 L1.5 13.3 1.55 13.35 Q1.5 13.55 1.55 13.75 1.65 14.0 1.6 14.3 1.7 14.95 1.65 15.6 L1.9 15.45 1.95 15.45 1.65 15.8 Q1.7 14.9 1.55 14.0 L1.45 13.35 1.45 13.3 M9.6 14.2 L9.85 14.2 9.85 14.4 9.7 14.25 9.6 14.2 M4.8 13.65 L4.8 13.7 4.4 13.9 4.8 13.65" fill="#285228" fill-rule="evenodd" stroke="none"/>
    <path d="M7.25 1.5 L7.2 1.3 Q7.7 2.0 8.1 2.7 9.0 3.9 9.8 5.25 L11.55 8.3 Q10.95 8.35 10.45 8.1 L10.2 7.75 Q9.85 7.3 9.45 6.95 L9.4 7.05 Q9.4 7.25 9.4 7.45 L9.55 7.8 Q9.7 8.3 9.6 8.85 9.55 9.0 9.35 9.05 9.05 9.1 9.25 9.2 9.3 9.35 9.45 9.5 9.55 9.6 9.5 9.75 L9.75 9.95 Q10.5 10.55 10.7 11.2 L10.7 11.3 10.75 11.45 10.85 12.5 Q11.0 13.9 10.95 15.3 L10.95 15.55 10.75 15.2 Q10.7 15.7 10.55 16.15 10.25 17.3 9.75 18.3 9.35 19.15 8.75 19.9 8.1 20.65 7.15 20.9 L6.7 20.95 6.55 20.95 Q4.7 21.2 3.2 20.05 1.95 19.05 1.4 17.65 0.5 17.1 0.25 16.15 0.1 15.6 0.15 14.95 L0.15 12.85 0.2 12.9 0.2 12.75 0.8 12.15 Q0.35 11.8 0.35 11.1 0.35 10.55 0.8 10.25 L0.35 10.1 0.25 10.05 Q0.45 9.35 0.4 8.7 0.35 8.45 0.4 8.2 0.2 8.7 0.0 9.25 -0.45 9.8 -0.95 10.1 L-0.3 5.7 Q-0.25 5.05 -0.1 4.45 L-0.05 3.8 0.05 2.55 0.1 2.7 Q0.3 2.2 0.65 1.8 L0.85 1.6 Q1.6 0.75 2.7 0.35 3.8 -0.1 4.9 0.05 5.5 0.2 6.0 0.45 6.75 0.8 7.25 1.5 M8.95 5.1 L8.05 3.75 7.75 3.2 Q7.35 2.55 7.1 2.0 6.65 1.7 6.15 1.45 L5.75 1.25 5.7 1.25 Q5.1 0.95 4.45 0.7 4.25 0.55 4.05 0.45 L3.9 0.5 3.9 0.5 Q3.8 0.5 3.75 0.55 L3.7 0.45 3.45 0.6 2.75 1.05 1.1 2.3 0.95 2.55 Q0.6 2.8 0.35 3.1 0.5 4.45 0.3 5.85 L0.3 6.0 Q0.15 6.95 -0.05 7.9 L-0.15 8.15 -0.05 8.05 Q0.3 7.5 0.5 6.8 0.6 6.45 0.75 6.3 L0.85 6.0 0.95 5.85 Q1.15 5.45 1.4 5.15 2.15 6.1 1.85 7.35 L1.75 7.8 2.95 5.9 Q3.3 5.25 3.75 4.75 L3.75 4.7 3.8 4.7 3.9 4.65 4.1 4.4 4.0 4.85 4.15 4.95 Q4.6 5.4 4.7 6.3 L4.85 7.55 4.85 7.45 4.9 7.4 4.95 7.15 Q5.05 6.65 5.1 6.1 5.15 5.25 5.5 4.65 5.55 4.35 5.7 4.1 L5.8 3.85 5.8 3.9 5.95 3.7 6.0 3.65 6.05 4.15 6.1 4.5 6.3 4.9 Q6.75 5.7 7.35 6.5 L8.15 7.5 Q8.05 7.3 8.05 7.0 8.05 6.2 7.9 5.4 7.85 5.3 7.95 5.25 L8.05 5.2 8.3 5.35 Q9.05 5.75 9.65 6.35 L9.95 6.7 10.1 6.95 10.1 6.85 9.55 6.05 8.95 5.1 M1.75 7.8 L1.75 7.8 M7.65 7.65 L7.65 7.6 6.6 6.6 6.5 6.45 6.5 6.4 6.45 6.4 6.35 6.2 6.2 6.0 6.1 5.8 6.0 5.7 5.9 6.3 5.75 6.8 5.75 6.9 5.7 6.95 5.4 7.65 5.15 8.05 4.85 8.4 4.4 8.8 4.4 8.1 4.3 6.85 4.25 6.65 4.25 6.35 4.0 5.35 3.9 5.15 3.9 5.25 Q3.55 6.25 2.85 7.3 2.25 8.2 1.55 8.5 L1.45 8.9 1.4 8.95 1.35 8.95 1.3 8.95 1.05 8.95 1.25 8.5 1.5 8.0 Q1.85 7.25 1.4 6.75 L1.4 6.55 1.4 6.45 1.35 6.55 1.15 7.0 1.05 7.1 Q0.85 7.3 0.7 7.55 L0.6 7.75 0.65 7.8 Q0.9 8.2 0.9 8.8 L0.85 9.2 0.85 9.25 0.8 9.55 0.75 9.6 Q1.25 9.55 1.65 9.85 L1.7 9.9 1.65 10.05 Q1.55 10.3 1.25 10.55 1.05 10.7 0.9 10.9 0.9 11.25 1.1 11.6 L1.15 11.65 1.15 11.75 1.25 11.7 1.4 11.55 2.45 10.65 2.55 10.6 2.6 10.55 3.9 9.7 Q4.45 9.45 5.0 9.25 5.75 9.0 6.55 8.9 L6.6 8.9 Q7.4 8.9 8.15 9.1 L8.25 9.15 8.45 9.2 8.3 8.85 8.25 8.75 8.35 8.7 Q8.55 8.5 8.9 8.5 L9.2 8.6 9.2 8.55 8.95 8.0 8.95 7.95 8.9 7.95 8.75 7.45 8.7 7.25 8.55 7.0 Q8.55 7.1 8.6 7.25 8.65 7.5 8.75 7.65 L8.8 7.75 Q8.9 7.95 8.75 8.15 L8.7 8.2 8.45 8.1 8.45 8.05 8.2 7.95 8.15 7.95 7.65 7.65 M4.25 2.3 L4.3 2.3 4.3 2.35 4.25 2.3 M1.9 12.15 L1.75 12.25 1.4 12.6 1.45 13.3 1.45 13.35 1.55 14.0 Q1.7 14.9 1.65 15.8 L1.95 15.45 2.55 14.65 2.85 14.4 3.05 14.2 3.3 14.05 3.3 14.0 Q4.3 13.3 5.5 13.0 L6.1 12.9 6.25 12.9 Q7.0 12.85 7.75 13.05 L7.85 13.1 9.5 14.1 9.6 14.2 9.7 14.25 9.85 14.4 9.85 14.2 9.8 13.45 9.8 13.4 9.8 13.3 Q9.75 12.4 9.65 11.5 L9.6 11.2 Q8.65 10.65 7.45 10.15 6.25 9.65 5.1 10.0 4.35 10.2 3.65 10.7 2.7 11.4 1.9 12.15 M4.8 13.7 L4.85 13.6 4.8 13.65 4.4 13.9 4.8 13.7 M7.55 14.1 Q7.45 14.05 7.35 14.05 7.25 14.05 7.15 14.1 7.05 14.2 7.05 14.3 7.05 14.45 7.15 14.5 7.25 14.6 7.35 14.6 7.45 14.6 7.55 14.5 7.65 14.45 7.65 14.3 7.65 14.2 7.55 14.1 M7.45 15.25 L7.75 15.6 Q7.6 16.0 7.75 16.35 7.85 16.65 8.1 16.8 L8.15 16.8 Q8.9 16.3 8.7 15.35 8.65 15.2 8.5 15.1 8.15 14.8 7.75 14.75 7.65 14.8 7.6 14.85 7.45 15.0 7.45 15.25 M6.35 15.95 Q6.3 15.65 6.2 15.35 5.95 16.85 6.15 18.35 6.25 19.4 6.5 20.45 L6.55 20.45 Q6.5 18.8 6.45 17.1 6.45 16.5 6.35 15.95 M3.95 16.8 L3.85 16.85 Q3.55 17.0 3.6 17.35 L3.7 17.5 3.9 17.5 Q4.25 17.45 4.5 17.25 L4.45 17.1 3.95 16.8 M3.25 16.4 Q3.15 16.5 3.15 16.6 3.15 16.75 3.25 16.8 3.3 16.9 3.4 16.9 3.5 16.9 3.6 16.8 3.65 16.75 3.65 16.6 3.65 16.5 3.6 16.4 3.5 16.35 3.4 16.35 3.3 16.35 3.25 16.4" fill="#111111" fill-rule="evenodd" stroke="none"/>
    <path d="M7.55 14.1 Q7.65 14.2 7.65 14.3 7.65 14.45 7.55 14.5 7.45 14.6 7.35 14.6 7.25 14.6 7.15 14.5 7.05 14.45 7.05 14.3 7.05 14.2 7.15 14.1 7.25 14.05 7.35 14.05 7.45 14.05 7.55 14.1 M7.45 15.25 Q7.45 15.0 7.6 14.85 7.65 14.8 7.75 14.75 8.15 14.8 8.5 15.1 8.65 15.2 8.7 15.35 8.9 16.3 8.15 16.8 L8.1 16.8 Q7.85 16.65 7.75 16.35 7.6 16.0 7.75 15.6 L7.45 15.25 M6.35 15.95 Q6.45 16.5 6.45 17.1 6.5 18.8 6.55 20.45 L6.5 20.45 Q6.25 19.4 6.15 18.35 5.95 16.85 6.2 15.35 6.3 15.65 6.35 15.95 M3.25 16.4 Q3.3 16.35 3.4 16.35 3.5 16.35 3.6 16.4 3.65 16.5 3.65 16.6 3.65 16.75 3.6 16.8 3.5 16.9 3.4 16.9 3.3 16.9 3.25 16.8 3.15 16.75 3.15 16.6 3.15 16.5 3.25 16.4 M3.95 16.8 L4.45 17.1 4.5 17.25 Q4.25 17.45 3.9 17.5 L3.7 17.5 3.6 17.35 Q3.55 17.0 3.85 16.85 L3.95 16.8" fill="#666666" fill-rule="evenodd" stroke="none"/>
    <path d="M1.9 12.15 Q2.3 11.9 2.8 11.75 3.45 11.6 4.05 11.5 L4.4 11.55 Q4.65 11.6 4.7 11.85 4.45 12.15 4.05 12.5 3.7 12.8 3.35 13.15 4.25 12.55 5.05 12.3 7.1 11.65 9.1 12.85 9.5 13.1 9.8 13.4 L9.8 13.45 9.85 14.2 9.6 14.2 9.5 14.1 7.85 13.1 7.75 13.05 Q7.0 12.85 6.25 12.9 L6.1 12.9 5.5 13.0 Q4.3 13.3 3.3 14.0 L3.3 14.05 3.05 14.2 2.85 14.4 2.55 14.65 1.95 15.45 1.9 15.45 1.65 15.6 Q1.7 14.95 1.6 14.3 1.65 14.0 1.55 13.75 1.5 13.55 1.55 13.35 L1.5 13.3 1.45 13.3 1.4 12.6 1.75 12.25 1.9 12.15 M9.8 13.3 L9.15 12.8 Q8.0 11.85 7.2 10.9 L7.35 10.75 7.5 10.7 Q8.5 11.0 9.5 11.45 L9.65 11.5 Q9.75 12.4 9.8 13.3" fill="#1f401f" fill-rule="evenodd" stroke="none"/>
  </g>
</svg>
