<?xml version="1.0" encoding="UTF-8" standalone="no"?>
<svg xmlns:ffdec="https://www.free-decompiler.com/flash" xmlns:xlink="http://www.w3.org/1999/xlink" ffdec:objectType="shape" height="20.1px" width="12.85px" xmlns="http://www.w3.org/2000/svg">
  <g transform="matrix(1.0, 0.0, 0.0, 1.0, 0.5, 0.5)">
    <path d="M3.4 -0.1 Q4.25 -0.55 5.2 -0.45 L6.2 -0.45 6.25 -0.25 6.25 -0.2 6.3 -0.05 6.05 0.4 6.0 0.5 5.9 0.6 Q7.05 1.0 7.9 1.8 9.0 2.85 9.05 3.95 L9.15 4.4 Q9.75 5.5 10.2 6.65 10.65 7.95 10.65 8.55 10.65 8.85 10.6 9.05 L10.45 9.6 10.6 10.0 Q11.5 12.25 11.5 14.15 11.7 15.0 11.8 15.55 L11.95 15.9 Q12.35 16.65 12.35 16.95 12.35 17.25 12.0 17.65 11.6 18.05 11.2 18.05 10.9 18.05 10.65 17.75 L10.4 18.0 10.15 18.15 10.15 18.35 Q10.15 18.8 9.75 19.15 9.25 19.6 8.35 19.6 7.35 19.6 6.9 18.95 6.75 19.0 6.55 19.0 6.4 19.0 5.8 18.8 L5.5 18.7 5.5 18.75 Q5.4 19.45 4.9 19.45 2.8 19.45 2.0 18.55 1.65 18.1 1.6 17.35 1.55 17.45 1.45 17.55 1.3 17.6 1.0 17.7 0.75 17.45 0.6 16.45 L0.6 16.25 Q0.3 15.85 0.1 15.3 -0.1 14.6 -0.1 13.75 L0.0 12.75 Q0.0 11.95 0.25 10.65 0.35 9.6 0.35 8.55 0.05 9.3 -0.15 9.3 -0.4 9.3 -0.45 8.65 L-0.5 8.0 Q-0.5 7.45 -0.4 5.6 -0.25 3.7 -0.2 3.6 1.15 1.0 2.55 0.2 3.0 -0.1 3.35 -0.05 L3.4 -0.1 M9.4 6.55 Q8.95 5.5 8.7 4.65 8.5 3.8 7.7 2.85 L7.55 2.75 Q6.75 1.95 5.8 1.4 L5.6 1.45 5.45 1.4 Q5.45 1.35 5.45 1.2 L5.25 1.1 5.4 1.1 5.3 1.05 5.3 0.85 Q5.3 0.65 5.3 0.55 L5.2 0.4 5.35 0.45 Q5.4 0.35 5.55 0.25 L5.55 0.2 Q5.1 0.2 4.15 0.55 L3.8 0.7 3.6 0.85 2.6 1.35 Q1.3 2.15 0.55 3.65 L0.55 3.7 Q0.4 3.9 0.25 4.3 L0.2 4.45 0.2 4.5 0.2 7.35 0.35 7.1 Q0.4 7.0 0.5 6.95 0.6 6.7 0.7 6.65 0.95 5.85 1.1 5.7 1.2 5.8 1.25 5.95 L1.3 6.4 Q1.3 7.5 0.95 9.3 L0.75 12.95 Q0.75 14.2 0.95 15.15 L1.05 15.65 1.2 16.2 1.25 16.35 1.55 17.15 1.55 17.1 Q1.55 15.2 2.2 14.2 2.75 13.35 3.55 13.5 4.35 13.7 4.9 14.8 5.5 16.0 5.5 17.8 L5.5 17.95 Q5.85 17.8 6.5 17.85 L6.5 17.55 Q6.5 16.5 6.75 15.2 7.05 13.3 7.65 13.3 8.5 13.3 9.4 15.8 9.7 16.55 9.9 17.3 L10.15 17.15 10.3 17.05 10.15 16.7 Q9.85 15.7 9.85 15.2 9.85 14.15 10.25 14.05 10.45 14.0 10.75 14.25 L10.7 14.0 10.55 12.1 10.45 11.55 10.3 11.05 Q9.85 9.9 9.45 8.75 L9.3 8.35 Q8.85 7.45 8.2 6.7 L8.8 7.1 8.85 7.2 9.15 7.45 9.2 7.45 Q9.45 7.75 9.65 8.1 L10.05 8.75 10.05 8.65 9.8 7.45 9.65 7.05 9.6 7.0 9.4 6.6 9.4 6.55 M3.7 0.1 L4.0 0.0 3.7 0.05 3.7 0.1 M3.5 14.35 L3.35 14.35 3.3 14.5 Q3.6 16.15 4.0 18.05 L4.1 18.0 Q4.2 17.55 4.2 17.3 4.2 17.05 3.95 15.85 3.65 14.6 3.5 14.35 M8.9 16.95 Q8.9 16.55 8.7 15.8 8.4 14.9 8.1 14.8 8.3 15.4 8.45 16.4 L8.7 17.9 8.75 17.9 Q8.9 17.55 8.9 16.95 M10.65 15.25 Q10.65 15.45 10.8 15.9 11.0 16.45 11.3 16.65 L11.4 16.55 11.4 16.45 Q11.4 16.3 11.2 15.8 10.95 15.3 10.75 15.15 L10.75 15.2 10.7 15.15 Q10.65 15.1 10.65 15.25" fill="#111111" fill-rule="evenodd" stroke="none"/>
    <path d="M0.55 3.65 Q1.3 2.15 2.6 1.35 L3.6 0.85 3.8 0.7 4.15 0.55 Q5.1 0.2 5.55 0.2 L5.55 0.25 Q5.4 0.35 5.35 0.45 L5.2 0.4 5.3 0.55 Q5.3 0.65 5.3 0.85 L5.3 1.05 5.4 1.1 5.25 1.1 5.45 1.2 Q5.45 1.35 5.45 1.4 L5.6 1.45 5.8 1.4 Q6.75 1.95 7.55 2.75 L7.7 2.85 Q8.5 3.8 8.7 4.65 8.95 5.5 9.4 6.55 L9.15 6.05 Q8.05 3.9 7.4 3.65 L7.35 3.7 Q7.3 3.75 7.3 3.9 7.3 4.2 8.4 6.3 L8.5 6.45 Q8.35 6.45 8.25 6.5 L8.2 6.55 8.2 7.1 Q8.35 7.55 8.8 9.65 9.2 11.75 9.2 12.15 9.2 12.85 9.05 13.1 8.65 12.25 7.9 11.35 7.05 10.25 6.65 10.25 6.15 10.25 5.75 11.7 5.55 12.45 5.3 13.5 L4.05 11.45 3.15 10.0 Q2.8 10.0 2.45 10.65 2.2 11.2 2.15 11.55 L2.1 11.5 2.0 10.65 Q1.9 10.1 1.9 9.95 L1.8 4.5 Q1.8 4.35 1.75 4.25 L1.6 4.15 Q1.05 4.35 0.95 4.75 L0.9 5.1 Q0.85 5.25 0.75 5.4 L0.75 4.8 Q0.95 4.0 0.95 3.7 L0.95 3.5 0.9 3.45 Q0.7 3.4 0.55 3.65 M9.6 7.0 L9.65 7.05 9.8 7.45 9.8 7.4 9.6 7.0 M0.2 4.5 L0.2 4.45 0.25 4.3 0.2 4.5" fill="#591616" fill-rule="evenodd" stroke="none"/>
    <path d="M0.55 3.65 Q0.7 3.4 0.9 3.45 L0.95 3.5 0.95 3.7 Q0.95 4.0 0.75 4.8 L0.75 5.4 Q0.85 5.25 0.9 5.1 L0.95 4.75 Q1.05 4.35 1.6 4.15 L1.75 4.25 Q1.8 4.35 1.8 4.5 L1.9 9.95 Q1.9 10.1 2.0 10.65 L2.1 11.5 2.15 11.55 Q2.2 11.2 2.45 10.65 2.8 10.0 3.15 10.0 L4.05 11.45 5.3 13.5 Q5.55 12.45 5.75 11.7 6.15 10.25 6.65 10.25 7.05 10.25 7.9 11.35 8.65 12.25 9.05 13.1 9.2 12.85 9.2 12.15 9.2 11.75 8.8 9.65 8.35 7.55 8.2 7.1 L8.2 6.55 8.25 6.5 Q8.35 6.45 8.5 6.45 L8.4 6.3 Q7.3 4.2 7.3 3.9 7.3 3.75 7.35 3.7 L7.4 3.65 Q8.05 3.9 9.15 6.05 L9.4 6.55 9.4 6.6 9.6 7.0 9.8 7.4 9.8 7.45 10.05 8.65 10.05 8.75 9.65 8.1 Q9.45 7.75 9.2 7.45 L9.15 7.45 8.85 7.2 8.8 7.1 8.2 6.7 Q8.85 7.45 9.3 8.35 L9.45 8.75 Q9.85 9.9 10.3 11.05 L10.45 11.55 10.55 12.1 10.7 14.0 10.75 14.25 Q10.45 14.0 10.25 14.05 9.85 14.15 9.85 15.2 9.85 15.7 10.15 16.7 L10.3 17.05 10.15 17.15 9.9 17.3 Q9.7 16.55 9.4 15.8 8.5 13.3 7.65 13.3 7.05 13.3 6.75 15.2 6.5 16.5 6.5 17.55 L6.5 17.85 Q5.85 17.8 5.5 17.95 L5.5 17.8 Q5.5 16.0 4.9 14.8 4.35 13.7 3.55 13.5 2.75 13.35 2.2 14.2 1.55 15.2 1.55 17.1 L1.55 17.15 1.25 16.35 1.2 16.2 1.05 15.65 0.95 15.15 Q0.75 14.2 0.75 12.95 L0.95 9.3 Q1.3 7.5 1.3 6.4 L1.25 5.95 Q1.2 5.8 1.1 5.7 0.95 5.85 0.7 6.65 0.6 6.7 0.5 6.95 0.4 7.0 0.35 7.1 L0.2 7.35 0.2 4.5 0.25 4.3 Q0.4 3.9 0.55 3.7 L0.55 3.65" fill="#330c0c" fill-rule="evenodd" stroke="none"/>
    <path d="M10.65 15.25 Q10.65 15.1 10.7 15.15 L10.75 15.2 10.75 15.15 Q10.95 15.3 11.2 15.8 11.4 16.3 11.4 16.45 L11.4 16.55 11.3 16.65 Q11.0 16.45 10.8 15.9 10.65 15.45 10.65 15.25 M8.9 16.95 Q8.9 17.55 8.75 17.9 L8.7 17.9 8.45 16.4 Q8.3 15.4 8.1 14.8 8.4 14.9 8.7 15.8 8.9 16.55 8.9 16.95 M3.5 14.35 Q3.65 14.6 3.95 15.85 4.2 17.05 4.2 17.3 4.2 17.55 4.1 18.0 L4.0 18.05 Q3.6 16.15 3.3 14.5 L3.35 14.35 3.5 14.35" fill="#666666" fill-rule="evenodd" stroke="none"/>
  </g>
</svg>
