<?xml version="1.0" encoding="UTF-8" standalone="no"?>
<svg xmlns:ffdec="https://www.free-decompiler.com/flash" xmlns:xlink="http://www.w3.org/1999/xlink" ffdec:objectType="shape" height="25.1px" width="17.7px" xmlns="http://www.w3.org/2000/svg">
  <g transform="matrix(1.0, 0.0, 0.0, 1.0, 3.25, 3.45)">
    <path d="M2.3 -2.25 Q3.0 -3.0 4.35 -3.25 5.05 -3.45 6.1 -3.45 9.5 -3.45 11.3 -0.15 L11.65 0.6 Q12.15 1.65 12.45 2.95 12.7 4.25 12.7 5.4 12.65 7.25 11.8 9.15 11.55 9.7 11.3 10.2 10.25 12.6 8.9 12.6 L8.85 12.6 8.65 12.7 Q8.5 13.05 8.25 13.45 8.0 13.75 8.0 14.2 7.95 15.65 10.8 18.15 L12.9 19.85 Q13.7 20.5 14.0 20.85 L14.15 20.9 14.1 21.0 14.4 21.15 14.45 21.2 14.45 21.3 Q14.4 21.35 14.25 21.35 L14.1 21.3 Q14.05 21.4 13.9 21.4 L13.55 21.35 Q13.05 21.6 11.9 21.65 9.6 21.65 6.8 20.3 4.3 19.05 1.85 17.05 -0.4 15.1 -1.85 13.15 -3.3 11.15 -3.25 9.9 -3.25 9.7 -3.2 9.7 L-3.15 9.7 -3.05 9.95 Q-2.75 8.65 -0.6 5.4 L-0.95 4.5 Q-1.0 4.3 -1.0 3.6 -0.95 3.05 -0.65 2.2 -0.3 1.2 0.25 0.3 0.95 -0.85 1.8 -1.5 1.95 -1.9 2.3 -2.25 M5.4 -2.75 L5.2 -2.75 5.15 -2.75 4.65 -2.6 4.85 -2.6 4.9 -2.5 4.95 -2.5 4.95 -2.45 4.9 -2.4 4.85 -2.45 4.75 -2.45 Q4.35 -2.45 3.95 -2.25 L3.95 -2.15 Q3.6 -2.0 3.15 -1.65 2.55 -1.05 2.05 0.05 1.5 1.3 1.25 2.55 L1.25 2.85 Q1.25 5.85 3.1 8.2 L3.15 8.25 3.5 8.7 3.6 8.75 3.55 8.7 3.45 8.5 3.45 8.45 3.25 8.0 3.15 7.8 Q2.3 6.45 2.3 4.7 2.35 4.5 2.35 4.3 L2.35 3.95 2.45 3.35 Q2.55 2.9 2.55 2.75 2.55 2.5 2.95 1.85 3.15 1.5 3.45 1.1 5.0 -1.45 8.15 -1.45 8.35 -1.45 8.9 -1.25 9.55 -1.15 10.0 -0.85 L10.1 -0.8 9.6 -1.35 9.35 -1.55 Q8.15 -2.4 6.5 -2.65 L6.45 -2.65 5.4 -2.75 M8.8 -0.9 L9.0 -0.85 8.85 -0.9 8.8 -0.9 M9.1 11.95 Q10.55 10.6 11.35 8.8 L11.5 8.4 Q11.65 7.85 11.65 7.4 L11.85 6.5 Q12.0 5.55 12.05 5.1 12.05 4.05 11.75 2.75 L11.6 2.25 11.4 2.1 10.9 1.65 Q10.35 1.1 9.8 0.85 8.9 1.0 8.1 1.3 7.15 1.7 6.45 2.3 5.85 2.8 5.35 3.55 4.55 4.8 4.35 6.2 4.35 6.7 4.6 7.6 L4.65 7.65 4.65 7.75 4.75 8.0 5.1 9.25 Q4.6 8.3 4.35 7.75 4.55 8.55 5.2 9.4 L5.25 9.45 5.25 9.5 5.5 9.6 5.35 9.6 5.45 9.7 Q6.2 10.6 7.35 11.45 L7.45 11.45 7.55 11.55 Q8.2 11.85 8.9 12.15 L9.1 11.95 M4.1 8.25 Q3.85 7.45 3.85 6.85 3.9 6.3 4.0 5.8 4.05 4.35 4.8 3.3 5.5 2.2 7.4 0.75 L9.55 0.15 Q10.05 0.15 10.45 0.3 L10.4 0.25 10.2 0.15 10.15 0.1 Q9.25 -0.4 7.85 -0.4 4.9 -0.4 3.6 2.3 3.25 3.05 3.05 3.8 L3.05 3.95 Q2.95 4.4 2.9 4.85 L2.9 5.1 Q3.05 6.0 3.45 7.05 3.7 7.7 4.05 8.2 L4.1 8.3 4.1 8.25 M0.5 3.75 L0.7 3.4 0.7 3.15 Q0.75 2.05 1.1 0.9 0.75 1.55 0.75 1.75 L0.65 2.2 Q0.5 2.55 0.5 2.7 L0.45 3.4 0.45 3.55 0.4 3.85 0.5 3.75 M0.2 1.85 Q0.2 1.7 0.25 1.55 L0.05 1.95 Q-0.35 2.65 -0.45 3.7 -0.5 4.45 -0.4 5.1 L0.15 4.2 Q0.1 4.05 0.05 3.75 0.0 3.35 0.0 3.25 0.0 3.1 0.1 2.55 L0.2 1.85 M0.85 4.4 L0.8 4.0 0.7 4.15 0.45 4.65 -0.35 6.0 -2.1 9.0 Q-2.5 9.95 -2.6 10.75 L-2.6 10.85 Q-0.4 14.8 4.4 17.9 6.65 19.3 8.85 20.1 10.6 20.8 11.75 20.9 L11.9 20.85 Q9.95 20.2 7.85 18.05 L7.3 17.4 7.1 17.2 Q6.5 16.55 6.0 15.8 5.2 14.45 5.2 13.3 5.25 12.7 5.45 12.4 L5.5 12.3 Q5.65 12.05 6.0 11.85 4.25 10.9 2.8 8.75 1.8 7.3 1.25 5.65 1.0 4.95 0.85 4.4 M0.75 3.85 L0.65 4.1 0.8 3.95 0.75 3.85 M7.4 14.55 Q7.35 14.25 7.35 14.0 7.35 13.4 7.55 13.1 L7.6 13.1 7.6 13.05 7.65 13.05 Q7.65 12.85 7.95 12.55 L8.0 12.55 Q7.25 12.4 6.55 12.1 5.95 12.6 5.85 12.65 L5.85 12.7 5.8 12.75 Q5.7 12.9 5.65 13.2 5.65 13.7 5.8 14.25 6.1 15.5 7.15 16.65 7.6 17.1 8.1 17.55 9.1 18.35 10.9 19.35 10.2 18.7 9.55 18.05 8.65 17.15 8.1 16.2 L8.0 16.1 7.4 14.55 M8.55 12.6 L8.5 12.6 8.5 12.65 8.55 12.6" fill="#111111" fill-rule="evenodd" stroke="none"/>
    <path d="M5.2 -2.75 L5.4 -2.75 5.1 -2.45 5.2 -2.6 3.9 -0.95 Q3.2 -0.05 3.2 0.1 L3.2 0.15 3.0 0.4 Q3.4 -0.55 4.05 -1.45 4.45 -2.0 4.85 -2.45 L4.9 -2.4 4.95 -2.45 4.95 -2.5 5.2 -2.75 M9.35 -1.55 L9.6 -1.35 10.1 -0.8 10.0 -0.85 Q9.55 -1.15 8.9 -1.25 8.35 -1.45 8.15 -1.45 5.0 -1.45 3.45 1.1 3.15 1.5 2.95 1.85 2.55 2.5 2.55 2.75 2.55 2.9 2.45 3.35 L2.35 3.95 2.35 4.3 Q2.35 4.5 2.3 4.7 2.3 6.45 3.15 7.8 L3.25 8.0 3.45 8.45 3.45 8.5 3.55 8.7 3.5 8.7 3.15 8.25 3.1 8.2 Q1.25 5.85 1.25 2.85 1.35 3.05 1.65 3.05 1.95 3.05 2.8 1.75 L3.65 0.35 Q4.1 -0.4 4.75 -1.0 5.75 -1.9 6.95 -1.9 L7.95 -1.8 8.6 -1.7 Q8.95 -1.7 9.35 -1.55 M11.4 2.1 L11.6 2.25 11.75 2.75 Q12.05 4.05 12.05 5.1 12.0 5.55 11.85 6.5 L11.65 7.4 Q11.65 7.85 11.5 8.4 L11.35 8.8 Q10.55 10.6 9.1 11.95 L9.05 11.9 8.9 12.15 Q8.2 11.85 7.55 11.55 L7.45 11.45 7.35 11.45 Q6.2 10.6 5.45 9.7 L5.35 9.6 5.5 9.6 5.25 9.5 5.25 9.45 5.25 9.4 5.2 9.4 Q4.55 8.55 4.35 7.75 4.6 8.3 5.1 9.25 L4.75 8.0 4.65 7.75 4.65 7.65 4.6 7.6 5.6 8.0 Q6.9 8.0 8.45 6.75 9.65 5.75 10.15 4.85 L11.0 3.25 11.4 2.55 11.4 2.1 M9.4 2.65 L9.2 2.75 Q9.05 2.85 8.8 2.85 L8.75 2.85 8.6 2.75 Q8.5 2.55 8.5 2.4 8.5 2.05 8.95 2.15 9.45 2.2 9.4 2.55 L9.4 2.65 M7.05 5.2 L7.0 5.3 Q6.9 5.25 6.85 4.95 L6.8 4.7 Q6.8 4.3 7.25 3.6 7.65 2.95 7.9 2.75 L7.75 3.1 Q7.55 3.3 7.3 3.95 6.95 4.75 6.95 5.15 6.95 5.3 7.0 5.2 L7.05 5.2 M5.7 8.5 L5.35 8.45 Q5.8 8.65 6.25 8.65 6.75 8.65 7.95 7.9 8.8 7.35 9.5 6.85 10.1 6.4 10.4 5.9 10.6 5.55 10.8 5.0 L10.95 4.6 Q10.6 5.1 10.2 5.6 9.8 6.05 9.25 6.5 7.8 7.55 5.6 8.45 L5.7 8.5 M0.45 3.55 L0.45 3.4 0.5 2.7 Q0.5 2.55 0.65 2.2 L0.75 1.75 Q0.75 1.55 1.1 0.9 0.75 2.05 0.7 3.15 L0.7 3.4 0.5 3.75 Q0.45 3.65 0.45 3.55 M0.2 1.85 L0.1 2.55 Q0.0 3.1 0.0 3.25 0.0 3.35 0.05 3.75 0.1 4.05 0.15 4.2 L-0.4 5.1 Q-0.5 4.45 -0.45 3.7 -0.35 2.65 0.05 1.95 L0.25 1.55 Q0.2 1.7 0.2 1.85" fill="#397373" fill-rule="evenodd" stroke="none"/>
    <path d="M5.2 -2.75 L4.95 -2.5 4.9 -2.5 4.85 -2.6 4.65 -2.6 5.15 -2.75 5.2 -2.75 M4.85 -2.45 Q4.45 -2.0 4.05 -1.45 3.4 -0.55 3.0 0.4 L3.2 0.15 Q3.2 0.2 3.2 0.15 3.9 -0.5 4.45 -1.3 4.85 -1.9 5.1 -2.45 L5.4 -2.75 6.45 -2.65 6.35 -2.65 Q6.15 -2.65 5.75 -2.4 L5.75 -2.3 5.8 -2.3 6.3 -2.4 7.0 -2.3 Q7.15 -2.3 7.25 -2.4 7.1 -2.5 6.8 -2.55 L6.5 -2.65 Q8.15 -2.4 9.35 -1.55 8.95 -1.7 8.6 -1.7 L7.95 -1.8 6.95 -1.9 Q5.75 -1.9 4.75 -1.0 4.1 -0.4 3.65 0.35 L2.8 1.75 Q1.95 3.05 1.65 3.05 1.35 3.05 1.25 2.85 L1.25 2.55 Q1.5 1.3 2.05 0.05 2.55 -1.05 3.15 -1.65 3.6 -2.0 3.95 -2.15 L3.95 -2.25 Q4.35 -2.45 4.75 -2.45 L4.85 -2.45 M3.55 8.7 L3.6 8.75 3.5 8.7 3.55 8.7 M3.9 -1.8 L3.7 -1.85 Q3.5 -1.85 3.35 -1.7 3.15 -1.55 3.15 -1.35 3.15 -1.25 3.2 -1.2 L3.25 -1.15 Q3.45 -1.2 3.65 -1.45 L3.9 -1.8 M11.4 2.1 L11.4 2.55 11.0 3.25 10.15 4.85 Q9.65 5.75 8.45 6.75 6.9 8.0 5.6 8.0 L4.6 7.6 Q4.35 6.7 4.35 6.2 4.55 4.8 5.35 3.55 5.85 2.8 6.45 2.3 7.15 1.7 8.1 1.3 8.9 1.0 9.8 0.85 10.35 1.1 10.9 1.65 L11.4 2.1 M5.2 9.4 L5.25 9.4 5.25 9.45 5.2 9.4 M8.9 12.15 L9.05 11.9 9.1 11.95 8.9 12.15 M9.45 1.7 L9.65 1.6 Q9.75 1.6 10.05 1.8 10.35 1.95 10.4 1.95 L10.5 1.95 10.55 1.9 10.55 1.8 10.3 1.6 Q10.0 1.45 9.7 1.3 8.9 1.0 8.9 1.6 L9.0 1.7 9.15 1.8 Q9.3 1.8 9.45 1.7 M9.4 2.65 L9.4 2.55 Q9.45 2.2 8.95 2.15 8.5 2.05 8.5 2.4 8.5 2.55 8.6 2.75 L8.75 2.85 Q8.55 2.85 8.5 2.65 L8.35 2.35 8.3 2.3 8.3 2.4 Q8.25 3.1 8.95 3.1 9.3 3.1 9.45 2.95 9.5 2.9 9.6 2.6 L9.4 2.65 M7.05 5.2 L7.15 5.05 7.25 4.85 Q7.25 4.8 7.55 4.0 7.9 3.25 7.9 3.1 L7.9 3.05 7.85 3.05 7.75 3.1 7.9 2.75 Q7.65 2.95 7.25 3.6 6.8 4.3 6.8 4.7 L6.85 4.95 Q6.9 5.25 7.0 5.3 L7.05 5.2 M6.15 3.55 Q6.5 3.0 6.85 2.65 6.85 2.6 7.15 2.4 7.55 2.15 7.7 2.0 L7.6 2.0 Q6.4 2.55 5.7 3.8 5.1 4.8 5.05 5.65 5.05 5.8 5.1 5.9 L5.15 5.9 Q5.35 4.55 6.15 3.55 M5.7 8.5 Q6.55 8.65 8.3 7.4 10.0 6.2 10.75 4.9 10.55 5.25 10.2 5.6 10.6 5.1 10.95 4.6 L10.8 5.0 Q10.6 5.55 10.4 5.9 10.1 6.4 9.5 6.85 8.8 7.35 7.95 7.9 6.75 8.65 6.25 8.65 5.8 8.65 5.35 8.45 L5.7 8.5 M2.3 0.1 Q2.1 0.5 2.05 0.8 L2.35 0.15 2.65 -0.6 Q2.5 -0.4 2.3 0.1 M0.45 3.55 Q0.45 3.65 0.5 3.75 L0.4 3.85 0.45 3.55" fill="#4c9999" fill-rule="evenodd" stroke="none"/>
    <path d="M3.2 0.15 L3.2 0.1 Q3.2 -0.05 3.9 -0.95 L5.2 -2.6 5.1 -2.45 Q4.85 -1.9 4.45 -1.3 3.9 -0.5 3.2 0.15 3.2 0.2 3.2 0.15 M6.45 -2.65 L6.5 -2.65 6.8 -2.55 Q7.1 -2.5 7.25 -2.4 7.15 -2.3 7.0 -2.3 L6.3 -2.4 5.8 -2.3 5.75 -2.3 5.75 -2.4 Q6.15 -2.65 6.35 -2.65 L6.45 -2.65 M3.9 -1.8 L3.65 -1.45 Q3.45 -1.2 3.25 -1.15 L3.2 -1.2 Q3.15 -1.25 3.15 -1.35 3.15 -1.55 3.35 -1.7 3.5 -1.85 3.7 -1.85 L3.9 -1.8 M9.45 1.7 Q9.3 1.8 9.15 1.8 L9.0 1.7 8.9 1.6 Q8.9 1.0 9.7 1.3 10.0 1.45 10.3 1.6 L10.55 1.8 10.55 1.9 10.5 1.95 10.4 1.95 Q10.35 1.95 10.05 1.8 9.75 1.6 9.65 1.6 L9.45 1.7 M8.75 2.85 L8.8 2.85 Q9.05 2.85 9.2 2.75 L9.4 2.65 9.6 2.6 Q9.5 2.9 9.45 2.95 9.3 3.1 8.95 3.1 8.25 3.1 8.3 2.4 L8.3 2.3 8.35 2.35 8.5 2.65 Q8.55 2.85 8.75 2.85 M6.15 3.55 Q5.35 4.55 5.15 5.9 L5.1 5.9 Q5.05 5.8 5.05 5.65 5.1 4.8 5.7 3.8 6.4 2.55 7.6 2.0 L7.7 2.0 Q7.55 2.15 7.15 2.4 6.85 2.6 6.85 2.65 6.5 3.0 6.15 3.55 M7.75 3.1 L7.85 3.05 7.9 3.05 7.9 3.1 Q7.9 3.25 7.55 4.0 7.25 4.8 7.25 4.85 L7.15 5.05 7.05 5.2 7.0 5.2 Q6.95 5.3 6.95 5.15 6.95 4.75 7.3 3.95 7.55 3.3 7.75 3.1 M10.2 5.6 Q10.55 5.25 10.75 4.9 10.0 6.2 8.3 7.4 6.55 8.65 5.7 8.5 L5.6 8.45 Q7.8 7.55 9.25 6.5 9.8 6.05 10.2 5.6 M2.3 0.1 Q2.5 -0.4 2.65 -0.6 L2.35 0.15 2.05 0.8 Q2.1 0.5 2.3 0.1" fill="#65cccc" fill-rule="evenodd" stroke="none"/>
    <path d="M7.8 -0.3 L8.05 -0.35 8.1 -0.35 7.8 -0.3 M8.4 -0.35 Q9.1 -0.3 9.7 0.05 L9.8 0.05 9.25 0.0 Q8.3 0.0 7.65 0.25 7.1 0.45 6.4 1.05 4.8 2.45 3.15 3.75 L3.35 3.1 Q3.35 3.0 3.75 2.4 L4.25 1.6 Q5.0 0.65 6.25 0.15 L6.75 0.0 Q5.65 0.45 5.2 0.7 4.8 1.0 4.5 1.45 L4.6 1.5 Q4.9 1.1 5.5 0.8 L7.05 0.05 7.7 -0.15 7.75 -0.1 Q8.25 -0.25 8.35 -0.3 L8.4 -0.35 M4.1 8.25 L4.1 8.3 4.05 8.2 4.1 8.25 M2.9 4.85 Q2.95 4.4 3.05 3.95 L3.35 3.75 3.15 3.95 3.2 3.95 Q3.35 3.9 4.1 3.45 L4.3 3.3 4.35 3.25 3.4 4.3 2.9 4.85" fill="#9a9560" fill-rule="evenodd" stroke="none"/>
    <path d="M8.1 -0.35 L8.05 -0.35 7.8 -0.3 7.55 -0.25 6.75 0.0 6.25 0.15 Q5.0 0.65 4.25 1.6 L3.75 2.4 Q3.35 3.0 3.35 3.1 L3.15 3.75 Q4.8 2.45 6.4 1.05 7.1 0.45 7.65 0.25 8.3 0.0 9.25 0.0 L9.8 0.05 9.7 0.05 Q9.1 -0.3 8.4 -0.35 L8.1 -0.35 M3.05 3.95 L3.05 3.8 Q3.25 3.05 3.6 2.3 4.9 -0.4 7.85 -0.4 9.25 -0.4 10.15 0.1 L10.2 0.15 10.4 0.25 10.45 0.3 Q10.05 0.15 9.55 0.15 L7.4 0.75 Q5.5 2.2 4.8 3.3 4.05 4.35 4.0 5.8 3.9 6.3 3.85 6.85 3.85 7.45 4.1 8.25 L4.05 8.2 Q3.7 7.7 3.45 7.05 3.05 6.0 2.9 5.1 L2.9 4.85 3.4 4.3 4.35 3.25 4.5 3.05 3.35 3.75 3.05 3.95" fill="#59542f" fill-rule="evenodd" stroke="none"/>
    <path d="M7.8 -0.3 L8.1 -0.35 8.4 -0.35 8.35 -0.3 Q8.25 -0.25 7.75 -0.1 L7.7 -0.15 7.05 0.05 5.5 0.8 Q4.9 1.1 4.6 1.5 L4.5 1.45 Q4.8 1.0 5.2 0.7 5.65 0.45 6.75 0.0 L7.55 -0.25 7.8 -0.3 M3.35 3.75 L4.5 3.05 4.35 3.25 4.3 3.3 4.1 3.45 Q3.35 3.9 3.2 3.95 L3.15 3.95 3.35 3.75" fill="#d5d3b1" fill-rule="evenodd" stroke="none"/>
    <path d="M0.7 4.15 L0.8 4.0 0.85 4.4 0.7 4.15 M7.3 17.4 L7.85 18.05 Q9.95 20.2 11.9 20.85 L11.75 20.9 Q10.6 20.8 8.85 20.1 6.65 19.3 4.4 17.9 -0.4 14.8 -2.6 10.85 L-2.6 10.75 Q-2.5 9.95 -2.1 9.0 L-0.35 6.0 0.45 4.65 0.5 4.9 0.45 4.95 Q0.1 5.25 -0.3 6.15 -0.75 7.05 -0.8 7.65 L-0.7 7.65 -0.2 6.7 Q-0.15 7.3 0.6 9.5 1.3 11.55 1.8 12.2 L1.95 12.35 2.0 12.25 2.0 12.05 2.05 11.85 Q2.05 10.65 1.35 8.65 0.7 6.75 0.1 6.45 L0.0 6.3 Q0.5 5.4 0.5 5.05 L0.5 5.0 Q0.6 5.4 0.75 5.85 1.25 7.4 2.0 8.75 3.4 11.35 5.2 12.2 4.8 13.2 4.75 13.75 4.5 13.6 4.15 13.4 3.95 13.3 3.7 13.2 L3.15 12.85 3.1 12.85 3.2 13.0 3.1 12.95 3.1 13.1 3.45 13.2 Q3.85 13.6 4.75 14.1 4.85 14.8 5.85 16.1 6.7 17.1 7.6 17.9 L7.3 17.4 M4.75 14.0 L4.5 13.8 4.75 13.95 4.75 14.0 M6.65 17.6 L6.6 17.5 6.45 17.25 Q6.3 17.6 6.25 17.95 6.25 18.0 6.4 18.1 L6.55 18.25 6.65 18.2 6.7 18.15 Q6.7 18.05 6.7 18.0 L6.8 17.95 6.8 17.7 6.65 17.6 M3.0 15.5 L2.95 15.55 Q3.0 15.65 3.1 15.8 L3.3 15.9 Q3.55 16.1 3.7 16.1 4.05 16.1 4.3 15.9 4.45 15.75 4.45 15.7 L4.45 15.45 4.3 15.45 Q4.2 15.5 4.2 15.7 4.15 15.8 4.0 15.85 L4.05 15.8 Q4.25 15.6 4.25 15.25 4.25 14.65 3.6 14.65 2.95 14.6 2.95 15.25 L3.0 15.5 M2.2 14.9 Q1.7 14.0 0.7 12.95 -0.2 11.95 -1.05 11.3 L-1.05 11.4 0.55 13.2 Q1.55 14.3 2.2 14.9 M-1.4 12.0 L-1.75 11.35 Q-1.9 10.9 -2.15 10.75 -2.25 10.8 -2.3 10.85 -2.2 10.95 -1.9 11.55 -1.7 11.95 -1.4 12.0 M-2.15 10.5 L-1.15 8.4 Q-1.5 8.5 -1.85 9.3 -2.2 10.0 -2.2 10.35 -2.2 10.5 -2.15 10.5" fill="#999999" fill-rule="evenodd" stroke="none"/>
    <path d="M0.5 5.0 L0.5 5.05 Q0.5 5.4 0.0 6.3 L0.0 6.35 0.1 6.45 Q0.7 6.75 1.35 8.65 2.05 10.65 2.05 11.85 L2.0 12.05 2.0 12.25 1.95 12.35 1.8 12.2 Q1.8 11.25 1.0 9.0 L0.25 7.1 -0.05 6.45 -0.2 6.7 -0.7 7.65 -0.8 7.65 Q-0.75 7.05 -0.3 6.15 0.1 5.25 0.45 4.95 L0.5 4.9 0.5 5.0 M3.45 13.2 L3.2 13.0 3.1 12.85 3.15 12.85 3.7 13.2 4.5 13.8 4.75 14.0 4.75 14.1 Q3.85 13.6 3.45 13.2 M7.4 14.55 L7.4 14.5 Q6.8 13.95 6.4 13.95 6.15 13.95 5.95 14.1 5.85 14.15 5.8 14.25 5.65 13.7 5.65 13.2 5.7 12.9 5.8 12.75 6.85 13.1 7.55 13.1 7.35 13.4 7.35 14.0 7.35 14.25 7.4 14.55 M7.15 16.65 Q7.8 16.65 8.1 16.2 8.65 17.15 9.55 18.05 10.2 18.7 10.9 19.35 9.1 18.35 8.1 17.55 7.6 17.1 7.15 16.65 M6.7 18.0 L6.5 18.15 6.35 18.0 6.45 17.9 Q6.55 17.85 6.55 17.7 6.55 17.5 6.6 17.55 L6.65 17.6 6.8 17.7 6.8 17.95 6.7 18.0 M4.0 15.85 Q4.15 15.8 4.2 15.7 4.2 15.5 4.3 15.45 L4.45 15.45 4.45 15.7 Q4.45 15.75 4.3 15.9 4.05 16.1 3.7 16.1 3.55 16.1 3.3 15.9 L3.1 15.8 Q3.0 15.65 2.95 15.55 L3.0 15.5 Q3.55 15.85 3.75 15.85 L4.0 15.85 M-2.15 10.5 Q-2.2 10.5 -2.2 10.35 -2.2 10.0 -1.85 9.3 -1.5 8.5 -1.15 8.4 L-2.15 10.5 M-1.4 12.0 Q-1.7 11.95 -1.9 11.55 -2.2 10.95 -2.3 10.85 -2.25 10.8 -2.15 10.75 -1.9 10.9 -1.75 11.35 L-1.4 12.0" fill="#dfdfdf" fill-rule="evenodd" stroke="none"/>
    <path d="M0.7 4.15 L0.85 4.4 Q1.0 4.95 1.25 5.65 1.8 7.3 2.8 8.75 4.25 10.9 6.0 11.85 5.65 12.05 5.5 12.3 L5.45 12.4 Q5.25 12.7 5.2 13.3 5.2 14.45 6.0 15.8 6.5 16.55 7.1 17.2 L7.3 17.4 7.6 17.9 Q6.7 17.1 5.85 16.1 4.85 14.8 4.75 14.1 L4.75 14.0 4.75 13.95 4.5 13.8 3.7 13.2 Q3.95 13.3 4.15 13.4 4.5 13.6 4.75 13.75 4.8 13.2 5.2 12.2 3.4 11.35 2.0 8.75 1.25 7.4 0.75 5.85 0.6 5.4 0.5 5.0 L0.5 4.9 0.45 4.65 0.7 4.15 M-0.2 6.7 L-0.05 6.45 0.25 7.1 1.0 9.0 Q1.8 11.25 1.8 12.2 1.3 11.55 0.6 9.5 -0.15 7.3 -0.2 6.7 M0.1 6.45 L0.0 6.35 0.0 6.3 0.1 6.45 M3.2 13.0 L3.45 13.2 3.1 13.1 3.1 12.95 3.2 13.0 M6.7 18.0 Q6.7 18.05 6.7 18.15 L6.65 18.2 6.55 18.25 6.4 18.1 Q6.25 18.0 6.25 17.95 6.3 17.6 6.45 17.25 L6.6 17.5 6.65 17.6 6.6 17.55 Q6.55 17.5 6.55 17.7 6.55 17.85 6.45 17.9 L6.35 18.0 6.5 18.15 6.7 18.0 M3.0 15.5 L2.95 15.25 Q2.95 14.6 3.6 14.65 4.25 14.65 4.25 15.25 4.25 15.6 4.05 15.8 L4.0 15.85 3.75 15.85 Q3.55 15.85 3.0 15.5 M2.2 14.9 Q1.55 14.3 0.55 13.2 L-1.05 11.4 -1.05 11.3 Q-0.2 11.95 0.7 12.95 1.7 14.0 2.2 14.9" fill="#666666" fill-rule="evenodd" stroke="none"/>
    <path d="M5.8 14.25 Q5.85 14.15 5.95 14.1 6.15 13.95 6.4 13.95 6.8 13.95 7.4 14.5 L7.4 14.55 8.0 16.1 8.1 16.2 Q7.8 16.65 7.15 16.65 6.1 15.5 5.8 14.25 M7.55 13.1 Q6.85 13.1 5.8 12.75 L5.85 12.7 5.85 12.65 Q5.95 12.6 6.55 12.1 7.25 12.4 8.0 12.55 L7.95 12.55 Q7.65 12.85 7.65 13.05 L7.6 13.05 7.6 13.1 7.55 13.1" fill="#bfbfbf" fill-rule="evenodd" stroke="none"/>
  </g>
</svg>
