<?xml version="1.0" encoding="UTF-8" standalone="no"?>
<svg xmlns:ffdec="https://www.free-decompiler.com/flash" xmlns:xlink="http://www.w3.org/1999/xlink" ffdec:objectType="shape" height="21.05px" width="15.7px" xmlns="http://www.w3.org/2000/svg">
  <g transform="matrix(1.0, 0.0, 0.0, 1.0, 2.85, 1.25)">
    <path d="M11.1 4.6 L11.3 4.5 11.5 4.2 12.0 3.5 Q12.0 3.3 11.45 2.55 10.85 1.75 10.75 1.45 L10.2 1.85 Q9.65 2.25 9.45 2.25 8.35 2.25 7.3 1.15 6.55 0.4 6.2 -0.3 6.15 -0.3 5.55 0.0 4.95 0.25 4.6 0.25 4.25 0.25 3.75 0.1 L3.15 -0.15 3.15 -0.05 Q3.2 0.45 3.3 0.9 L3.3 0.95 3.4 1.15 Q3.6 1.85 3.6 2.15 3.6 2.3 3.5 2.45 L3.5 2.5 Q3.95 2.8 4.55 3.4 5.9 4.65 6.25 4.65 L6.45 4.65 Q7.2 4.75 8.85 5.4 L10.0 5.85 10.2 5.6 Q10.35 5.4 10.5 5.35 L10.6 5.25 10.6 5.2 11.05 4.65 11.1 4.6 M4.65 -0.4 Q5.05 -0.4 5.7 -0.8 L6.35 -1.2 Q6.75 -1.3 6.9 -0.9 7.0 -0.4 7.1 -0.3 7.7 0.8 7.95 1.0 8.3 1.25 10.0 1.25 10.25 1.25 10.55 1.0 10.85 0.8 10.9 0.8 L11.9 2.2 12.85 3.65 12.35 4.15 Q11.7 4.7 11.35 5.35 11.25 5.55 11.0 6.2 10.75 6.8 10.5 7.05 L10.4 7.0 10.1 7.35 Q9.35 8.3 9.35 9.3 9.35 9.65 9.7 10.65 L10.05 11.6 Q10.05 11.8 9.85 12.15 L9.85 12.25 Q9.85 12.35 9.3 13.05 8.7 13.75 8.7 14.25 8.7 14.75 8.95 15.35 9.2 15.95 9.2 16.05 9.2 16.35 7.35 18.1 5.5 19.8 5.45 19.8 2.7 19.8 1.45 19.2 0.55 18.75 0.55 18.15 1.85 17.7 3.15 17.0 5.25 15.8 5.65 14.55 L3.1 16.95 Q0.85 16.95 -0.6 16.0 -1.65 15.3 -1.65 14.7 L-1.65 14.4 -1.55 14.35 -1.3 14.35 -0.35 14.45 0.6 14.6 Q1.35 14.3 2.25 13.8 3.15 13.25 3.75 12.75 L3.75 12.65 3.85 12.55 4.05 12.25 Q3.95 12.25 3.3 12.3 L2.4 12.35 Q1.25 12.35 0.55 11.75 0.05 11.35 0.05 11.05 0.05 10.55 1.1 10.25 2.5 9.8 2.95 9.35 L4.1 8.2 Q3.55 7.6 2.9 7.6 0.8 7.6 -0.2 10.0 -0.4 10.5 -0.7 11.6 -0.9 12.35 -1.05 12.35 -2.2 12.35 -2.65 9.9 -2.8 9.15 -2.85 8.25 L-2.85 7.45 Q-2.85 6.5 -2.65 6.15 -2.5 5.9 -2.05 5.85 L-1.05 5.65 Q-0.4 5.4 0.2 4.75 0.35 4.6 0.4 3.8 0.45 3.15 0.85 3.0 1.15 2.85 2.0 2.35 L2.2 2.2 Q2.25 1.85 2.45 1.0 2.65 0.15 2.65 -0.85 L2.75 -1.0 Q2.8 -1.05 2.95 -1.05 L3.7 -0.7 Q4.4 -0.4 4.65 -0.4 M7.95 5.55 Q7.0 5.3 5.7 5.3 4.1 3.85 3.35 2.9 3.1 3.1 2.5 3.25 1.45 3.5 1.35 3.95 L1.05 4.75 Q0.75 5.35 0.2 5.6 -1.7 6.6 -1.95 6.8 L-1.95 6.85 Q-2.35 7.25 -2.35 8.25 -2.35 8.45 -2.0 9.5 -1.65 10.6 -1.4 11.0 L-1.05 10.2 -0.9 9.95 Q-0.5 9.2 -0.05 8.6 0.45 7.85 1.0 7.4 L1.0 7.35 2.7 6.55 2.95 6.55 Q4.15 6.55 4.95 7.65 5.3 7.65 5.35 8.3 5.8 9.15 6.1 10.5 6.55 12.5 6.6 14.75 L6.6 14.8 6.55 14.85 6.55 15.0 5.4 16.45 5.3 16.5 4.65 16.95 Q2.85 18.25 1.65 18.45 1.9 18.7 3.45 18.85 L3.5 18.85 5.3 18.75 Q7.25 17.2 7.6 16.85 7.85 16.55 7.9 16.25 7.95 16.0 7.95 15.3 L8.0 14.9 Q8.0 14.2 8.2 13.35 8.5 12.05 9.0 11.75 8.95 11.45 8.9 11.3 8.8 11.15 8.8 11.1 8.8 10.6 8.9 9.45 9.0 8.25 9.05 7.95 9.3 7.1 9.6 6.5 L9.55 6.45 9.1 6.15 9.05 6.1 8.95 6.05 8.95 6.0 Q8.5 5.75 7.95 5.55 M4.6 9.05 L3.5 9.75 Q1.6 11.0 1.0 11.2 L0.9 11.25 Q1.7 11.65 1.9 11.85 3.6 11.85 3.95 11.55 L4.1 11.35 Q4.2 11.25 4.55 11.25 L4.7 11.3 4.8 11.0 Q4.95 10.45 4.95 10.15 4.95 10.0 5.0 9.9 4.8 9.4 4.6 9.05 M4.95 11.85 Q4.9 12.1 4.8 12.4 4.6 12.95 4.2 12.95 L3.75 13.45 Q3.1 14.0 2.25 14.45 0.0 15.75 -0.8 15.15 -0.65 15.35 0.0 15.65 0.9 16.15 1.8 16.15 2.95 16.15 4.5 14.75 5.35 13.9 5.7 13.6 5.65 12.6 5.35 11.35 L5.1 11.7 4.95 11.85" fill="#111111" fill-rule="evenodd" stroke="none"/>
    <path d="M7.95 5.55 Q7.4 6.4 7.4 6.45 7.4 6.7 7.6 7.0 7.8 7.25 7.8 7.6 L7.8 7.9 7.85 8.0 Q8.85 7.3 9.55 6.45 L9.6 6.5 Q9.3 7.1 9.05 7.95 9.0 8.25 8.9 9.45 8.8 10.6 8.8 11.1 8.8 11.15 8.9 11.3 8.95 11.45 9.0 11.75 8.5 12.05 8.2 13.35 8.0 14.2 8.0 14.9 7.75 14.8 7.6 14.6 7.2 14.2 7.1 13.35 7.05 12.75 6.8 11.7 L6.45 10.05 Q6.35 9.45 5.95 8.45 L5.2 6.8 Q4.95 6.35 4.25 6.2 3.6 6.0 2.8 6.1 2.05 6.2 1.55 6.5 1.0 6.85 1.0 7.35 L1.0 7.4 Q0.45 7.85 -0.05 8.6 -0.5 9.2 -0.9 9.95 L-0.85 9.45 Q-0.75 8.55 -0.75 8.4 -0.75 8.35 -1.15 7.8 -1.6 7.2 -1.95 6.85 L-1.95 6.8 Q-1.7 6.6 0.2 5.6 0.75 5.35 1.05 4.75 L1.35 3.95 Q1.45 3.5 2.5 3.25 3.1 3.1 3.35 2.9 4.1 3.85 5.7 5.3 7.0 5.3 7.95 5.55 M5.3 16.5 Q5.65 16.7 6.15 16.85 L6.1 16.95 Q5.7 17.3 3.5 18.85 L3.45 18.85 Q1.9 18.7 1.65 18.45 2.85 18.25 4.65 16.95 L5.3 16.5" fill="#4c9999" fill-rule="evenodd" stroke="none"/>
    <path d="M3.15 -0.05 L3.15 -0.15 3.75 0.1 Q4.25 0.25 4.6 0.25 4.95 0.25 5.55 0.0 6.15 -0.3 6.2 -0.3 6.55 0.4 7.3 1.15 8.35 2.25 9.45 2.25 9.65 2.25 10.2 1.85 L10.75 1.45 Q10.85 1.75 11.45 2.55 12.0 3.3 12.0 3.5 L11.5 4.2 11.3 4.5 11.1 4.6 10.55 4.7 Q9.5 4.7 8.8 4.15 8.35 3.8 7.9 3.0 7.4 2.2 7.15 2.0 6.7 1.55 6.0 1.75 6.75 2.2 6.75 3.45 6.75 3.9 6.5 4.15 L6.3 4.3 6.15 3.95 Q5.4 2.35 4.2 1.0 3.65 0.4 3.15 -0.05 M11.25 2.95 Q10.6 2.9 10.15 3.1 9.75 3.3 9.75 3.6 9.75 3.8 9.75 3.85 9.85 4.05 10.25 4.05 10.6 4.05 11.0 3.75 11.3 3.5 11.3 3.25 11.3 3.1 11.3 3.05 L11.25 2.95" fill="#346b34" fill-rule="evenodd" stroke="none"/>
    <path d="M3.15 -0.05 Q3.65 0.4 4.2 1.0 5.4 2.35 6.15 3.95 L6.3 4.3 6.5 4.15 Q6.75 3.9 6.75 3.45 6.75 2.2 6.0 1.75 6.7 1.55 7.15 2.0 7.4 2.2 7.9 3.0 8.35 3.8 8.8 4.15 9.5 4.7 10.55 4.7 L11.1 4.6 11.05 4.65 10.6 5.2 10.6 5.25 10.5 5.35 Q10.35 5.4 10.2 5.6 L10.0 5.85 8.85 5.4 Q7.2 4.75 6.45 4.65 L6.25 4.65 Q5.9 4.65 4.55 3.4 3.95 2.8 3.5 2.5 L3.5 2.45 Q3.6 2.3 3.6 2.15 3.6 1.85 3.4 1.15 L3.3 0.95 3.3 0.9 Q3.2 0.45 3.15 -0.05 M11.25 2.95 L11.3 3.05 Q11.3 3.1 11.3 3.25 11.3 3.5 11.0 3.75 10.6 4.05 10.25 4.05 9.85 4.05 9.75 3.85 9.75 3.8 9.75 3.6 9.75 3.3 10.15 3.1 10.6 2.9 11.25 2.95" fill="#285228" fill-rule="evenodd" stroke="none"/>
    <path d="M9.55 6.45 Q8.85 7.3 7.85 8.0 L7.8 7.9 7.8 7.6 Q7.8 7.25 7.6 7.0 7.4 6.7 7.4 6.45 7.4 6.4 7.95 5.55 8.5 5.75 8.95 6.0 L8.95 6.05 9.05 6.1 9.1 6.15 9.55 6.45 M-1.95 6.85 Q-1.6 7.2 -1.15 7.8 -0.75 8.35 -0.75 8.4 -0.75 8.55 -0.85 9.45 L-0.9 9.95 -1.05 10.2 -1.4 11.0 Q-1.65 10.6 -2.0 9.5 -2.35 8.45 -2.35 8.25 -2.35 7.25 -1.95 6.85 M1.0 7.4 L1.0 7.35 Q1.0 6.85 1.55 6.5 2.05 6.2 2.8 6.1 3.6 6.0 4.25 6.2 4.95 6.35 5.2 6.8 L5.95 8.45 Q6.35 9.45 6.45 10.05 L6.8 11.7 Q7.05 12.75 7.1 13.35 7.2 14.2 7.6 14.6 7.75 14.8 8.0 14.9 L7.95 15.3 Q7.95 16.0 7.9 16.25 7.85 16.55 7.6 16.85 7.25 17.2 5.3 18.75 L3.5 18.85 Q5.7 17.3 6.1 16.95 L6.15 16.85 Q5.65 16.7 5.3 16.5 L5.4 16.45 6.55 15.0 6.55 14.85 6.6 14.8 6.6 14.75 Q6.55 12.5 6.1 10.5 5.8 9.15 5.35 8.3 5.3 7.65 4.95 7.65 4.15 6.55 2.95 6.55 L2.7 6.55 1.0 7.35 1.0 7.4 M4.95 11.85 L5.1 11.7 5.35 11.35 Q5.65 12.6 5.7 13.6 5.35 13.9 4.5 14.75 2.95 16.15 1.8 16.15 0.9 16.15 0.0 15.65 -0.65 15.35 -0.8 15.15 0.0 15.75 2.25 14.45 3.1 14.0 3.75 13.45 L4.2 12.95 Q4.6 12.95 4.8 12.4 4.9 12.1 4.95 11.85 M4.6 9.05 Q4.8 9.4 5.0 9.9 4.95 10.0 4.95 10.15 4.95 10.45 4.8 11.0 L4.7 11.3 4.55 11.25 Q4.2 11.25 4.1 11.35 L3.95 11.55 Q3.6 11.85 1.9 11.85 1.7 11.65 0.9 11.25 L1.0 11.2 Q1.6 11.0 3.5 9.75 L4.6 9.05" fill="#397373" fill-rule="evenodd" stroke="none"/>
  </g>
</svg>
