<?xml version="1.0" encoding="UTF-8" standalone="no"?>
<svg xmlns:ffdec="https://www.free-decompiler.com/flash" xmlns:xlink="http://www.w3.org/1999/xlink" ffdec:objectType="shape" height="26.25px" width="15.1px" xmlns="http://www.w3.org/2000/svg">
  <g transform="matrix(1.0, 0.0, 0.0, 1.0, 0.7, 11.95)">
    <path d="M7.3 -10.5 L7.75 -9.9 7.7 -9.85 7.75 -9.7 Q7.75 -9.45 7.7 -9.35 L7.6 -9.25 Q7.3 -9.3 7.1 -9.25 6.85 -9.2 6.55 -9.0 L6.45 -8.85 6.2 -8.45 Q6.35 -7.95 6.75 -7.75 L6.8 -7.75 Q7.8 -7.7 8.15 -7.55 L8.35 -7.35 Q8.65 -7.2 8.65 -6.75 L8.65 -6.65 8.7 -6.45 Q8.9 -5.65 9.35 -5.65 11.4 -5.65 11.4 -7.5 11.4 -7.6 11.15 -7.95 10.85 -8.3 10.85 -8.5 L11.1 -8.8 Q11.25 -8.95 11.4 -9.0 11.95 -8.9 12.65 -8.45 13.65 -7.8 13.65 -7.05 L13.6 -6.45 13.55 -5.95 Q13.2 -5.6 12.8 -5.1 L12.85 -5.3 12.95 -5.6 Q13.05 -5.8 13.05 -6.0 L12.55 -4.7 12.55 -4.55 Q12.55 -4.0 11.85 -2.45 L11.35 -1.45 Q11.7 -1.45 12.0 -1.15 12.35 -0.85 12.35 -0.6 12.45 -0.6 12.7 -0.9 12.95 -1.2 13.2 -2.25 13.4 -3.1 13.4 -3.35 13.4 -3.6 13.7 -4.0 L13.6 -5.3 13.7 -5.3 Q13.95 -4.85 14.0 -4.45 14.05 -4.6 14.05 -4.75 14.05 -5.0 14.1 -5.05 L14.2 -5.1 14.3 -5.0 14.35 -4.9 Q14.4 -4.75 14.4 -4.5 14.4 -4.2 14.25 -3.65 L14.35 -2.9 14.4 -2.0 Q14.4 -1.05 14.1 -0.25 13.65 1.0 12.45 1.7 L11.3 1.6 10.75 2.05 10.65 2.15 10.85 2.85 Q11.0 3.45 11.0 3.65 L11.0 3.75 11.05 4.05 11.2 5.95 11.3 7.9 Q11.3 9.4 10.25 11.05 8.95 13.1 6.9 13.1 L6.1 13.0 5.0 13.0 Q4.7 13.05 3.35 13.65 L2.05 14.3 Q1.35 14.3 0.75 13.5 0.15 12.75 0.15 12.0 0.15 11.7 0.4 10.75 0.5 10.3 0.05 9.55 -0.05 9.3 -0.6 7.5 -0.6 6.25 0.0 4.85 0.6 3.4 0.6 1.9 0.6 1.45 0.75 1.1 1.0 0.5 1.15 0.0 L1.25 -0.25 Q1.2 -0.45 1.1 -0.65 0.85 -0.3 0.5 0.15 -0.2 -0.1 -0.5 -0.85 -0.7 -1.45 -0.7 -2.4 -0.7 -3.5 -0.5 -5.1 L-0.3 -6.8 Q-0.3 -8.0 0.15 -8.7 0.6 -9.45 0.6 -10.4 0.6 -10.85 0.5 -11.75 0.55 -12.25 1.25 -11.45 1.5 -11.15 1.9 -9.55 2.05 -9.0 2.35 -7.5 2.6 -5.85 2.6 -5.0 2.6 -4.8 2.75 -3.9 L2.85 -3.1 Q3.7 -3.35 4.0 -2.65 4.25 -1.65 4.5 -1.35 4.75 -1.35 5.0 -1.8 5.3 -2.25 5.3 -2.5 5.3 -3.05 4.95 -4.1 4.55 -4.85 4.35 -5.35 3.8 -6.7 3.8 -7.7 3.8 -8.55 4.3 -9.35 4.75 -10.1 5.45 -10.55 6.15 -11.0 6.75 -10.85 7.0 -10.75 7.15 -10.6 L7.3 -10.5 M5.85 -8.1 L5.8 -8.35 5.8 -8.4 5.75 -8.55 5.85 -8.65 Q5.85 -8.95 5.9 -9.15 6.0 -9.35 6.1 -9.5 L5.9 -9.45 Q5.55 -9.35 5.35 -9.2 L5.3 -9.05 Q5.5 -9.1 5.8 -8.85 5.6 -8.5 5.5 -8.2 L5.4 -7.85 Q5.35 -7.65 5.35 -7.25 5.65 -5.6 6.8 -3.55 L7.85 -1.7 8.1 -1.3 8.25 -1.05 Q8.25 -1.4 8.45 -2.05 8.7 -3.05 9.1 -3.35 L9.05 -3.4 9.3 -3.4 9.75 -3.5 10.15 -3.55 Q10.4 -3.7 10.45 -3.85 L10.3 -4.5 10.25 -4.8 10.1 -4.8 9.95 -4.8 9.75 -4.9 9.65 -4.9 9.6 -4.95 9.55 -4.95 Q8.9 -4.95 8.7 -5.45 L8.45 -5.65 Q8.2 -5.9 8.15 -6.55 8.1 -7.05 7.7 -7.05 6.7 -7.05 6.45 -7.25 6.25 -7.3 6.1 -7.45 L6.1 -7.5 6.05 -7.5 Q5.85 -7.75 5.85 -8.1 M1.15 -9.1 L1.1 -8.9 Q1.0 -8.45 0.45 -7.8 0.45 -7.45 0.35 -6.6 0.25 -5.7 0.25 -5.55 0.25 -5.35 0.1 -4.15 L0.1 -4.0 -0.05 -2.75 Q-0.05 -2.35 0.05 -1.8 0.15 -1.15 0.3 -0.9 L0.85 -1.4 0.9 -1.45 Q0.85 -1.45 0.9 -1.45 L1.15 -1.5 1.5 -1.15 Q1.85 -0.75 1.85 -0.65 L1.8 -0.35 1.9 -0.3 1.4 2.15 Q1.6 1.85 2.15 1.55 2.85 1.15 3.3 1.15 4.45 1.15 5.4 1.55 6.5 2.1 6.6 3.15 L6.6 3.3 Q6.6 3.55 6.55 3.6 L6.5 3.75 6.4 3.7 Q6.05 2.9 5.3 2.4 4.5 1.9 3.35 1.9 L3.3 1.9 2.95 1.95 Q2.65 2.05 2.25 2.25 L1.55 2.7 Q1.4 2.7 1.3 2.6 L1.3 2.55 1.2 2.95 1.1 3.5 0.65 6.0 0.65 6.1 0.6 6.25 0.6 6.55 0.55 6.65 0.55 6.9 Q0.55 7.65 1.05 9.8 1.5 11.7 1.3 12.85 L1.65 12.95 Q1.85 13.05 1.9 13.05 L3.6 12.35 Q3.35 12.25 3.1 12.05 2.55 11.6 1.9 10.6 L1.85 10.5 1.75 10.35 0.8 7.95 0.8 7.55 Q0.8 7.1 0.85 6.75 L0.85 6.7 Q0.9 6.45 1.0 6.25 1.2 5.95 1.5 5.95 L1.65 5.95 1.7 5.9 Q1.95 5.7 2.35 5.7 2.65 5.7 3.8 6.3 4.95 6.85 5.0 6.85 5.6 6.85 5.8 6.65 L5.8 6.6 5.85 6.6 5.9 6.45 5.95 6.2 5.95 5.95 Q5.8 5.7 5.25 5.45 L4.2 5.1 3.3 4.45 2.9 4.2 Q2.2 4.05 1.8 4.05 L1.8 3.95 1.7 4.05 1.7 3.95 Q1.75 3.85 1.8 3.75 L1.85 3.75 1.9 3.65 2.8 3.55 Q3.55 3.6 4.5 4.1 4.85 4.25 5.2 4.45 L5.3 4.5 5.35 4.55 5.65 4.75 Q5.8 4.8 5.95 4.9 6.5 5.2 6.6 5.6 6.85 5.95 6.85 6.2 L6.85 6.4 Q6.8 6.95 6.65 7.45 L6.4 7.65 5.9 7.8 Q5.55 7.95 4.95 7.95 4.4 7.95 3.4 7.35 L2.4 6.65 2.25 6.65 2.15 6.7 2.05 6.8 Q2.05 7.6 2.85 8.6 3.4 9.25 3.95 9.5 L4.0 9.5 4.65 9.45 5.4 9.4 Q6.55 8.75 7.1 8.05 L7.2 7.95 7.35 7.8 7.5 7.6 7.55 7.5 Q7.75 6.7 7.75 5.7 L7.7 3.25 Q7.7 2.75 7.8 1.85 L7.8 0.4 7.85 -0.35 Q7.7 -0.7 7.5 -1.15 L6.3 -2.85 6.15 -3.1 Q6.1 -2.6 6.0 -2.2 L5.95 -2.15 Q5.75 -1.45 5.2 -0.8 L5.0 -0.7 Q4.95 -0.65 4.7 -0.65 4.25 -0.65 4.1 -0.8 3.8 -0.95 3.8 -1.5 3.8 -2.2 3.55 -2.4 3.45 -2.55 3.0 -2.6 L2.9 -2.6 2.8 -2.4 2.5 -2.4 Q1.5 -3.2 1.4 -5.75 L1.4 -7.9 1.45 -8.3 Q1.45 -9.2 1.35 -9.7 L1.25 -9.7 Q1.2 -9.35 1.15 -9.1 M0.9 -4.95 L0.85 -4.45 Q0.75 -4.0 0.75 -3.8 0.75 -3.4 1.35 -1.4 0.9 -1.55 0.6 -2.75 0.4 -3.55 0.4 -4.0 0.4 -4.45 0.5 -5.55 0.55 -6.85 0.65 -7.6 0.65 -7.55 0.7 -7.55 L0.75 -7.55 Q0.75 -7.25 0.8 -6.7 L0.85 -6.55 0.9 -5.95 0.9 -4.95 M4.65 -7.5 Q4.7 -8.0 4.8 -8.4 L4.8 -8.7 Q4.7 -8.45 4.65 -8.05 L4.65 -7.5 M4.95 -8.9 L4.95 -8.85 5.0 -8.85 5.15 -9.0 5.15 -9.1 4.95 -8.9 M11.45 -5.6 L10.65 -4.95 10.8 -4.8 Q10.95 -4.55 10.95 -4.05 L10.95 -4.0 Q10.95 -2.75 10.55 -2.5 L10.35 -2.55 10.15 -2.6 9.8 -2.7 9.1 -2.15 Q9.05 -2.0 9.05 -1.6 L9.1 -1.25 9.2 -0.05 9.45 2.2 9.7 4.15 Q9.95 5.8 9.95 6.05 L9.9 6.75 Q9.8 7.4 9.6 8.05 9.05 9.75 7.65 10.75 L7.55 10.85 7.5 10.85 7.45 10.9 7.0 11.2 6.95 11.2 6.75 11.35 7.3 11.4 7.45 11.4 7.5 11.4 9.65 10.45 Q10.25 9.2 10.25 5.6 L9.95 2.85 9.95 2.75 Q9.75 2.05 9.75 1.6 9.75 1.15 10.1 -0.15 L10.2 -0.45 10.15 -0.6 10.4 -1.15 10.45 -1.15 10.55 -1.45 Q11.0 -2.25 11.25 -3.4 11.4 -4.0 11.55 -5.05 L11.65 -5.1 11.7 -4.45 11.7 -4.5 11.65 -4.95 Q11.65 -5.25 11.7 -5.45 L11.75 -5.55 11.8 -5.9 11.45 -5.6 M11.35 -0.8 L10.9 -0.55 Q10.8 0.1 10.75 0.9 L10.7 1.4 11.25 1.0 12.45 1.1 13.4 0.2 13.55 -0.25 13.6 -0.7 Q13.2 0.15 12.45 0.15 12.15 0.15 11.9 -0.2 11.6 -0.65 11.35 -0.8 M12.15 -6.2 L12.3 -6.4 Q12.3 -6.55 12.2 -6.5 L12.1 -6.3 12.15 -6.2 M12.25 -7.95 L12.05 -8.05 Q12.05 -7.65 12.0 -7.3 L12.05 -7.6 Q12.1 -7.75 12.25 -7.95 M8.55 1.3 L8.5 1.0 8.45 1.3 Q8.3 2.3 8.3 2.5 8.65 4.55 8.4 6.5 7.9 10.4 4.8 10.4 3.4 10.4 2.45 9.15 2.2 8.85 2.05 8.5 1.85 8.15 1.75 7.8 1.55 7.35 1.45 6.95 1.3 7.3 1.3 7.5 1.3 8.8 2.15 10.2 3.1 11.7 4.3 11.7 5.0 11.7 6.7 10.4 8.25 9.2 8.9 8.25 L9.05 7.95 9.1 7.8 9.2 6.35 9.2 6.0 Q9.2 5.6 8.7 2.5 L8.55 1.3" fill="#111111" fill-rule="evenodd" stroke="none"/>
    <path d="M1.0 6.25 Q0.9 6.45 0.85 6.7 L0.85 6.75 0.85 6.15 0.9 6.15 1.0 6.25 M6.95 11.2 L6.95 11.25 Q7.2 11.35 7.45 11.4 L7.3 11.4 6.75 11.35 6.95 11.2 M9.05 7.95 L8.9 8.25 9.05 7.95" fill="#666666" fill-rule="evenodd" stroke="none"/>
    <path d="M2.25 6.65 L2.4 6.65 2.25 6.65 M2.95 1.95 L3.3 1.9 3.35 1.9 2.95 1.95" fill="#333333" fill-rule="evenodd" stroke="none"/>
    <path d="M5.5 -8.2 Q5.6 -8.5 5.8 -8.85 5.5 -9.1 5.3 -9.05 L5.35 -9.2 Q5.55 -9.35 5.9 -9.45 L6.1 -9.5 Q6.0 -9.35 5.9 -9.15 5.85 -8.95 5.85 -8.65 L5.75 -8.55 5.8 -8.4 5.8 -8.35 5.85 -8.1 5.5 -8.2 M6.1 -7.45 Q6.25 -7.3 6.45 -7.25 6.7 -7.05 7.7 -7.05 8.1 -7.05 8.15 -6.55 8.2 -5.9 8.45 -5.65 L8.7 -5.45 Q8.9 -4.95 9.55 -4.95 L9.6 -4.95 9.65 -4.9 9.75 -4.9 9.95 -4.8 10.1 -4.8 10.05 -4.55 10.05 -4.4 9.9 -4.15 8.55 -4.0 Q8.2 -4.0 7.35 -4.95 6.55 -5.85 6.35 -6.45 L6.1 -7.45 M1.15 -9.1 Q1.2 -9.35 1.25 -9.7 L1.35 -9.7 Q1.45 -9.2 1.45 -8.3 L1.4 -7.9 1.4 -5.75 Q1.5 -3.2 2.5 -2.4 L2.8 -2.4 2.9 -2.6 3.0 -2.6 Q3.45 -2.55 3.55 -2.4 3.8 -2.2 3.8 -1.5 3.8 -0.95 4.1 -0.8 4.25 -0.65 4.7 -0.65 4.95 -0.65 5.0 -0.7 L5.2 -0.8 Q5.75 -1.45 5.95 -2.15 L6.0 -2.2 6.35 -1.9 Q7.3 -0.8 7.3 0.9 L7.45 3.45 Q7.45 3.7 7.65 6.1 7.65 6.9 7.35 7.6 L7.2 7.95 7.1 8.05 Q6.55 8.75 5.4 9.4 L4.65 9.45 4.0 9.5 3.95 9.5 Q3.4 9.25 2.85 8.6 2.05 7.6 2.05 6.8 L2.15 6.7 2.25 6.65 2.4 6.65 3.4 7.35 Q4.4 7.95 4.95 7.95 5.55 7.95 5.9 7.8 L6.4 7.65 6.65 7.45 Q6.8 6.95 6.85 6.4 L6.85 6.65 6.95 6.45 Q7.05 6.25 7.05 6.1 7.05 5.45 6.5 4.85 6.1 4.35 5.35 3.75 4.55 3.0 3.75 2.75 2.6 2.4 1.2 2.95 L1.3 2.55 1.3 2.6 Q1.4 2.7 1.55 2.7 L2.25 2.25 Q2.65 2.05 2.95 1.95 L3.35 1.9 Q4.5 1.9 5.3 2.4 6.05 2.9 6.4 3.7 L6.5 3.75 6.55 3.6 Q6.6 3.55 6.6 3.3 L6.6 3.15 Q6.65 3.2 6.7 3.2 6.8 3.2 6.9 3.1 7.0 2.95 7.0 2.8 7.0 2.3 6.05 1.55 5.0 0.7 3.95 0.7 L2.7 0.85 Q2.6 0.85 2.3 0.45 L2.5 0.0 2.7 -0.1 2.8 -0.1 3.05 -0.15 3.8 0.1 Q4.55 0.35 4.9 0.35 5.15 0.35 5.2 0.25 L5.35 0.5 Q5.55 0.5 5.55 0.35 L5.4 0.1 Q5.3 -0.1 5.2 -0.1 4.45 -0.1 3.3 -0.85 2.95 -1.05 2.15 -1.7 1.3 -2.35 1.2 -2.8 L1.05 -3.5 Q0.95 -3.95 0.95 -4.15 L0.9 -4.95 0.9 -5.95 0.85 -6.55 Q0.95 -7.3 1.25 -8.65 1.25 -8.95 1.15 -9.1 M1.8 3.75 Q1.75 3.85 1.7 3.95 L1.7 4.05 1.8 3.95 1.8 4.05 Q2.2 4.05 2.9 4.2 L3.3 4.45 4.2 5.1 5.25 5.45 Q5.8 5.7 5.95 5.95 L5.95 6.2 Q4.65 6.2 3.7 5.8 2.35 5.2 1.15 5.05 1.25 4.65 1.5 4.2 L1.75 3.75 1.8 3.75 M1.85 10.5 L1.9 10.6 Q2.55 11.6 3.1 12.05 L2.6 12.35 Q2.2 12.45 1.9 11.95 1.7 11.6 1.7 11.3 1.7 11.2 1.75 10.95 1.85 10.65 1.85 10.55 L1.85 10.5 M0.85 -1.4 L0.3 -0.9 Q0.15 -1.15 0.05 -1.8 -0.05 -2.35 -0.05 -2.75 L0.1 -4.0 0.5 -2.4 Q0.55 -1.9 0.85 -1.4 M11.45 -5.6 Q11.4 -5.45 11.4 -5.3 11.35 -5.0 11.15 -4.45 L10.95 -4.05 Q10.95 -4.55 10.8 -4.8 L10.65 -4.95 11.45 -5.6 M10.35 -2.55 L10.15 -2.1 9.45 -0.7 9.35 -1.0 Q9.3 -1.15 9.2 -1.25 L9.1 -1.25 9.05 -1.6 Q9.05 -2.0 9.1 -2.15 L9.8 -2.7 10.15 -2.6 10.35 -2.55 M9.9 6.75 L10.05 7.85 10.05 8.3 Q10.0 8.85 9.85 9.3 9.3 10.7 7.8 10.7 L7.75 10.7 7.65 10.75 Q9.05 9.75 9.6 8.05 9.8 7.4 9.9 6.75 M11.35 -0.8 Q11.6 -0.65 11.9 -0.2 12.15 0.15 12.45 0.15 13.2 0.15 13.6 -0.7 L13.55 -0.25 13.4 0.2 12.45 1.1 11.25 1.0 10.7 1.4 10.75 0.9 Q10.8 0.1 10.9 -0.55 L11.35 -0.8 M2.05 8.5 Q2.2 8.85 2.45 9.15 3.4 10.4 4.8 10.4 7.9 10.4 8.4 6.5 8.65 4.55 8.3 2.5 8.3 2.3 8.45 1.3 L8.5 1.0 8.55 1.3 8.6 2.1 8.7 3.35 8.75 4.3 8.8 5.15 Q8.8 5.5 8.55 6.65 8.3 7.85 8.2 8.05 L7.8 8.6 Q7.3 9.6 6.45 10.05 5.2 11.15 4.6 11.15 3.5 11.15 2.8 10.3 2.5 9.9 2.25 9.2 L2.05 8.5" fill="#666342" fill-rule="evenodd" stroke="none"/>
    <path d="M5.85 -8.1 Q5.85 -7.75 6.05 -7.5 L6.1 -7.5 6.1 -7.45 6.35 -6.45 Q6.55 -5.85 7.35 -4.95 8.2 -4.0 8.55 -4.0 L9.9 -4.15 10.05 -4.4 10.05 -4.55 10.1 -4.8 10.25 -4.8 10.3 -4.5 10.45 -3.85 Q10.4 -3.7 10.15 -3.55 L9.75 -3.5 9.3 -3.4 9.05 -3.4 9.1 -3.35 Q8.7 -3.05 8.45 -2.05 8.25 -1.4 8.25 -1.05 L8.1 -1.3 7.85 -1.7 6.8 -3.55 Q5.65 -5.6 5.35 -7.25 5.35 -7.65 5.4 -7.85 L5.5 -8.2 5.85 -8.1 M0.1 -4.0 L0.1 -4.15 Q0.25 -5.35 0.25 -5.55 0.25 -5.7 0.35 -6.6 0.45 -7.45 0.45 -7.8 1.0 -8.45 1.1 -8.9 L1.15 -9.1 Q1.25 -8.95 1.25 -8.65 0.95 -7.3 0.85 -6.55 L0.8 -6.7 Q0.75 -7.25 0.75 -7.55 L0.7 -7.55 Q0.65 -7.55 0.65 -7.6 0.55 -6.85 0.5 -5.55 0.4 -4.45 0.4 -4.0 0.4 -3.55 0.6 -2.75 0.9 -1.55 1.35 -1.4 0.75 -3.4 0.75 -3.8 0.75 -4.0 0.85 -4.45 L0.9 -4.95 0.95 -4.15 Q0.95 -3.95 1.05 -3.5 L1.2 -2.8 Q1.3 -2.35 2.15 -1.7 2.95 -1.05 3.3 -0.85 4.45 -0.1 5.2 -0.1 5.3 -0.1 5.4 0.1 L5.55 0.35 Q5.55 0.5 5.35 0.5 L5.2 0.25 Q5.15 0.35 4.9 0.35 4.55 0.35 3.8 0.1 L3.05 -0.15 2.8 -0.1 2.7 -0.1 2.5 0.0 2.3 0.45 Q2.6 0.85 2.7 0.85 L3.95 0.7 Q5.0 0.7 6.05 1.55 7.0 2.3 7.0 2.8 7.0 2.95 6.9 3.1 6.8 3.2 6.7 3.2 6.65 3.2 6.6 3.15 6.5 2.1 5.4 1.55 4.45 1.15 3.3 1.15 2.85 1.15 2.15 1.55 1.6 1.85 1.4 2.15 L1.9 -0.3 1.8 -0.35 1.85 -0.65 Q1.85 -0.75 1.5 -1.15 L1.15 -1.5 0.9 -1.45 Q0.85 -1.45 0.9 -1.45 L0.85 -1.4 Q0.55 -1.9 0.5 -2.4 L0.1 -4.0 M6.0 -2.2 Q6.1 -2.6 6.15 -3.1 L6.3 -2.85 7.5 -1.15 Q7.7 -0.7 7.85 -0.35 L7.8 0.4 7.8 1.85 Q7.7 2.75 7.7 3.25 L7.75 5.7 Q7.75 6.7 7.55 7.5 L7.5 7.6 7.35 7.8 7.2 7.95 7.35 7.6 Q7.65 6.9 7.65 6.1 7.45 3.7 7.45 3.45 L7.3 0.9 Q7.3 -0.8 6.35 -1.9 L6.0 -2.2 M6.85 6.4 L6.85 6.2 Q6.85 5.95 6.6 5.6 6.5 5.2 5.95 4.9 5.8 4.8 5.65 4.75 L5.35 4.55 5.3 4.5 5.2 4.45 Q4.85 4.25 4.5 4.1 3.55 3.6 2.8 3.55 L1.9 3.65 1.85 3.75 1.8 3.75 1.75 3.75 1.5 4.2 Q1.25 4.65 1.15 5.05 2.35 5.2 3.7 5.8 4.65 6.2 5.95 6.2 L5.9 6.45 5.85 6.6 5.8 6.6 5.8 6.65 Q5.6 6.85 5.0 6.85 4.95 6.85 3.8 6.3 2.65 5.7 2.35 5.7 1.95 5.7 1.7 5.9 L1.65 5.95 1.5 5.95 Q1.2 5.95 1.0 6.25 L0.9 6.15 0.85 6.15 0.85 6.75 Q0.8 7.1 0.8 7.55 L0.8 7.95 1.75 10.35 1.85 10.5 1.85 10.55 Q1.85 10.65 1.75 10.95 1.7 11.2 1.7 11.3 1.7 11.6 1.9 11.95 2.2 12.45 2.6 12.35 L3.1 12.05 Q3.35 12.25 3.6 12.35 L1.9 13.05 Q1.85 13.05 1.65 12.95 L1.3 12.85 Q1.5 11.7 1.05 9.8 0.55 7.65 0.55 6.9 L0.55 6.65 0.6 6.55 0.6 6.25 0.65 6.1 0.65 6.0 1.1 3.5 1.2 2.95 Q2.6 2.4 3.75 2.75 4.55 3.0 5.35 3.75 6.1 4.35 6.5 4.85 7.05 5.45 7.05 6.1 7.05 6.25 6.95 6.45 L6.85 6.65 6.85 6.4 M10.95 -4.05 L11.15 -4.45 Q11.35 -5.0 11.4 -5.3 11.4 -5.45 11.45 -5.6 L11.8 -5.9 11.75 -5.55 11.7 -5.45 Q11.65 -5.25 11.65 -4.95 L11.7 -4.5 11.7 -4.45 11.65 -5.1 11.55 -5.05 Q11.4 -4.0 11.25 -3.4 11.0 -2.25 10.55 -1.45 L10.45 -1.15 10.4 -1.15 10.15 -0.6 10.2 -0.45 10.1 -0.15 Q9.75 1.15 9.75 1.6 9.75 2.05 9.95 2.75 L9.95 2.85 10.25 5.6 Q10.25 9.2 9.65 10.45 L7.5 11.4 7.45 11.4 Q7.2 11.35 6.95 11.25 L6.95 11.2 7.0 11.2 7.45 10.9 7.5 10.85 7.55 10.85 7.65 10.75 7.75 10.7 7.8 10.7 Q9.3 10.7 9.85 9.3 10.0 8.85 10.05 8.3 L10.05 7.85 9.9 6.75 9.95 6.05 Q9.95 5.8 9.7 4.15 L9.45 2.2 9.2 -0.05 9.1 -1.25 9.2 -1.25 Q9.3 -1.15 9.35 -1.0 L9.45 -0.7 10.15 -2.1 10.35 -2.55 10.55 -2.5 Q10.95 -2.75 10.95 -4.0 L10.95 -4.05 M8.55 1.3 L8.7 2.5 Q9.2 5.6 9.2 6.0 L9.2 6.35 9.1 7.8 9.05 7.95 8.9 8.25 Q8.25 9.2 6.7 10.4 5.0 11.7 4.3 11.7 3.1 11.7 2.15 10.2 1.3 8.8 1.3 7.5 1.3 7.3 1.45 6.95 1.55 7.35 1.75 7.8 1.85 8.15 2.05 8.5 L2.25 9.2 Q2.5 9.9 2.8 10.3 3.5 11.15 4.6 11.15 5.2 11.15 6.45 10.05 7.3 9.6 7.8 8.6 L8.2 8.05 Q8.3 7.85 8.55 6.65 8.8 5.5 8.8 5.15 L8.75 4.3 8.7 3.35 8.6 2.1 8.55 1.3" fill="#333121" fill-rule="evenodd" stroke="none"/>
  </g>
</svg>
