<?xml version="1.0" encoding="UTF-8" standalone="no"?>
<svg xmlns:ffdec="https://www.free-decompiler.com/flash" xmlns:xlink="http://www.w3.org/1999/xlink" ffdec:objectType="shape" height="23.65px" width="14.4px" xmlns="http://www.w3.org/2000/svg">
  <g transform="matrix(1.0, 0.0, 0.0, 1.0, 0.4, 11.95)">
    <path d="M7.05 -10.7 Q7.15 -10.7 7.25 -10.65 L7.65 -10.1 7.6 -10.05 7.65 -9.95 Q7.65 -9.7 7.6 -9.6 L7.5 -9.55 Q7.2 -9.55 7.05 -9.55 6.75 -9.5 6.5 -9.3 L6.4 -9.15 6.15 -8.8 Q6.3 -8.35 6.7 -8.15 L6.75 -8.15 Q7.7 -8.15 8.0 -8.0 L8.2 -7.8 Q8.5 -7.65 8.5 -7.25 L8.5 -7.15 8.55 -7.0 Q8.7 -6.3 9.15 -6.3 11.1 -6.3 11.1 -7.95 11.1 -8.05 10.85 -8.35 10.6 -8.65 10.6 -8.85 L10.8 -9.1 11.1 -9.3 Q11.6 -9.2 12.3 -8.8 13.25 -8.2 13.25 -7.5 L13.2 -7.0 13.15 -6.55 Q12.8 -6.25 12.45 -5.8 L12.45 -5.95 12.6 -6.2 Q12.7 -6.4 12.7 -6.6 L12.2 -5.4 12.2 -5.3 Q12.2 -4.8 11.55 -3.4 L11.1 -2.5 Q11.4 -2.45 11.7 -2.2 12.05 -1.95 12.05 -1.7 12.15 -1.75 12.4 -2.0 12.55 -2.25 12.8 -3.2 13.0 -4.0 13.0 -4.2 13.0 -4.45 13.3 -4.8 L13.2 -5.95 13.3 -5.95 Q13.55 -5.55 13.6 -5.2 L13.65 -5.45 13.65 -5.7 13.75 -5.75 13.85 -5.7 13.95 -5.55 Q14.0 -5.45 14.0 -5.25 14.0 -5.0 13.85 -4.45 L13.95 -3.8 14.0 -3.0 Q14.0 -2.15 13.7 -1.4 13.25 -0.3 12.15 0.4 L11.0 0.25 10.5 0.65 10.4 0.8 10.55 1.4 Q10.75 1.95 10.75 2.1 L10.7 2.25 10.8 2.45 10.9 4.2 11.05 5.95 Q11.05 7.3 10.05 8.8 8.75 10.65 6.85 10.65 L6.05 10.55 5.0 10.55 Q4.7 10.6 3.45 11.15 L2.2 11.7 Q1.5 11.7 0.95 11.0 0.4 10.35 0.4 9.65 0.4 9.4 0.6 8.55 0.7 8.15 0.3 7.45 0.2 7.2 -0.35 5.6 -0.35 4.45 0.25 3.2 0.85 1.9 0.85 0.55 0.85 0.15 1.0 -0.2 1.2 -0.7 1.35 -1.15 L1.45 -1.4 Q1.4 -1.6 1.3 -1.75 1.1 -1.45 0.7 -1.05 0.05 -1.25 -0.2 -1.95 -0.4 -2.45 -0.4 -3.35 -0.4 -4.35 -0.2 -5.75 -0.05 -7.15 -0.05 -7.3 -0.05 -8.4 0.4 -9.05 0.8 -9.7 0.8 -10.55 L0.75 -11.75 Q0.8 -12.2 1.45 -11.5 1.65 -11.2 2.05 -9.75 2.25 -9.3 2.45 -7.95 2.75 -6.45 2.75 -5.7 2.75 -5.5 2.9 -4.7 L3.0 -4.0 Q3.75 -4.2 4.05 -3.55 4.3 -2.65 4.55 -2.4 4.75 -2.4 5.0 -2.8 5.3 -3.2 5.3 -3.45 5.3 -3.95 5.0 -4.9 4.6 -5.55 4.4 -6.0 3.85 -7.2 3.85 -8.1 3.85 -8.85 4.35 -9.6 4.8 -10.3 5.45 -10.65 6.1 -11.1 6.65 -10.95 6.9 -10.9 7.05 -10.7 M5.8 -8.45 L5.8 -8.75 5.7 -8.9 5.8 -9.0 Q5.85 -9.25 5.9 -9.4 5.95 -9.6 6.05 -9.75 L5.85 -9.7 Q5.55 -9.6 5.35 -9.45 L5.3 -9.35 Q5.5 -9.35 5.8 -9.15 5.6 -8.85 5.5 -8.6 5.4 -8.4 5.4 -8.25 L5.35 -7.75 Q5.6 -6.25 6.7 -4.35 L7.75 -2.7 7.95 -2.35 8.1 -2.1 Q8.1 -2.45 8.3 -3.0 8.55 -3.9 8.95 -4.2 L8.9 -4.25 9.1 -4.25 9.55 -4.3 9.9 -4.35 Q10.15 -4.5 10.2 -4.65 L10.05 -5.2 10.0 -5.5 9.85 -5.5 9.7 -5.5 9.55 -5.6 9.35 -5.6 Q8.75 -5.6 8.5 -6.1 L8.3 -6.3 Q8.05 -6.5 8.0 -7.1 8.0 -7.5 7.6 -7.5 6.65 -7.5 6.4 -7.7 6.2 -7.75 6.05 -7.9 L6.05 -7.95 6.0 -7.95 Q5.85 -8.15 5.8 -8.45 M1.35 -9.4 L1.3 -9.2 Q1.2 -8.75 0.7 -8.2 0.7 -7.85 0.6 -7.1 0.5 -6.35 0.5 -6.2 L0.35 -4.9 0.35 -4.8 0.2 -3.65 Q0.2 -3.3 0.3 -2.8 0.4 -2.2 0.55 -2.0 L1.05 -2.4 1.1 -2.45 1.1 -2.5 1.35 -2.55 1.65 -2.2 Q2.0 -1.85 2.0 -1.75 L2.0 -1.5 2.05 -1.45 1.55 0.75 Q1.8 0.5 2.3 0.25 2.95 -0.15 3.4 -0.15 4.5 -0.15 5.4 0.25 6.45 0.75 6.55 1.65 L6.55 1.8 Q6.55 2.0 6.5 2.1 L6.45 2.2 6.35 2.2 Q6.0 1.45 5.3 1.0 4.5 0.55 3.45 0.55 L3.4 0.55 3.05 0.6 Q2.75 0.65 2.4 0.85 L1.7 1.25 1.5 1.2 1.5 1.15 1.4 1.45 1.3 2.0 0.85 4.2 0.85 4.5 0.8 4.7 0.8 5.05 Q0.8 5.75 1.25 7.7 1.65 9.35 1.45 10.4 L1.8 10.5 2.05 10.6 3.65 9.95 3.2 9.7 Q2.65 9.3 2.05 8.4 L2.0 8.3 1.9 8.15 1.05 6.0 1.0 5.8 1.0 5.65 Q1.0 5.2 1.05 4.95 L1.05 4.85 Q1.15 4.65 1.2 4.5 1.4 4.2 1.7 4.2 L1.85 4.2 1.9 4.15 Q2.1 4.0 2.5 4.0 2.8 4.0 3.9 4.5 4.95 5.0 5.05 5.0 5.6 5.0 5.75 4.85 L5.8 4.85 5.8 4.8 5.85 4.65 5.9 4.45 5.9 4.2 Q5.75 3.95 5.25 3.75 L4.25 3.4 3.4 2.85 3.05 2.6 Q2.35 2.45 1.95 2.5 L1.95 2.4 1.9 2.45 1.85 2.4 1.95 2.25 2.05 2.15 2.1 2.15 2.9 2.0 Q3.6 2.1 4.55 2.5 4.9 2.7 5.2 2.85 5.25 2.85 5.3 2.9 L5.35 2.95 5.65 3.15 Q5.8 3.15 5.95 3.25 6.45 3.5 6.55 3.9 6.8 4.2 6.8 4.4 L6.75 4.6 Q6.75 5.1 6.6 5.55 L6.35 5.75 5.9 5.85 Q5.55 6.0 4.95 6.0 4.45 6.0 3.5 5.45 L2.55 4.85 2.5 4.8 2.4 4.85 Q2.35 4.85 2.3 4.9 L2.2 4.95 Q2.2 5.7 2.95 6.6 3.45 7.2 4.0 7.4 L4.05 7.4 4.7 7.35 5.4 7.3 Q6.5 6.7 7.05 6.1 L7.1 6.0 7.25 5.85 7.4 5.65 7.45 5.6 Q7.65 4.9 7.65 3.95 L7.6 1.75 Q7.6 1.3 7.7 0.5 L7.7 -1.5 Q7.6 -1.8 7.4 -2.2 L6.3 -3.75 6.1 -4.0 Q6.05 -3.55 5.95 -3.15 L5.95 -3.1 Q5.75 -2.45 5.2 -1.9 L5.05 -1.8 Q4.95 -1.75 4.75 -1.75 4.3 -1.75 4.15 -1.9 3.9 -2.05 3.9 -2.55 3.9 -3.15 3.65 -3.35 3.5 -3.45 3.1 -3.5 L3.0 -3.5 2.95 -3.4 2.95 -3.3 2.6 -3.35 Q1.65 -4.05 1.6 -6.4 L1.6 -8.7 Q1.6 -9.5 1.55 -9.95 L1.45 -9.95 1.35 -9.4 M1.1 -5.65 L1.05 -5.2 Q0.95 -4.75 0.95 -4.6 0.95 -4.25 1.55 -2.45 1.1 -2.6 0.85 -3.65 0.65 -4.4 0.65 -4.8 L0.7 -6.15 Q0.75 -7.35 0.85 -8.0 L0.95 -8.0 Q0.95 -7.7 1.05 -7.2 L1.05 -7.1 1.1 -6.55 1.1 -5.65 M4.7 -7.95 Q4.7 -8.4 4.85 -8.75 L4.85 -9.05 Q4.75 -8.8 4.7 -8.4 L4.65 -8.3 4.7 -7.95 M4.85 -9.1 L4.95 -9.2 4.95 -9.15 5.0 -9.15 5.15 -9.3 5.2 -9.4 Q5.0 -9.25 4.85 -9.1 M11.2 -6.2 L10.4 -5.65 10.55 -5.5 Q10.7 -5.25 10.7 -4.8 L10.7 -4.75 Q10.7 -3.65 10.3 -3.45 L10.15 -3.45 9.55 -3.6 8.95 -3.1 Q8.9 -3.0 8.9 -2.6 L8.9 -2.3 9.0 -1.2 9.25 0.8 9.5 2.55 Q9.7 4.05 9.7 4.25 L9.7 4.9 Q9.6 5.5 9.4 6.1 8.9 7.55 7.65 8.45 L7.55 8.55 7.4 8.6 7.35 8.65 6.95 8.9 6.9 8.95 6.65 9.1 7.25 9.15 7.35 9.15 7.4 9.15 9.45 8.25 Q10.0 7.1 10.0 3.9 L9.75 1.4 9.75 1.3 Q9.55 0.65 9.55 0.25 9.55 -0.15 9.9 -1.3 L10.0 -1.55 9.9 -1.7 10.15 -2.2 10.2 -2.2 10.3 -2.45 Q10.75 -3.2 11.0 -4.25 11.1 -4.8 11.25 -5.7 L11.35 -5.75 11.4 -5.2 11.4 -5.25 11.35 -5.65 Q11.35 -5.9 11.4 -6.1 L11.45 -6.2 11.5 -6.5 11.2 -6.2 M10.65 -1.65 Q10.55 -1.1 10.5 -0.4 L10.45 0.1 10.95 -0.3 12.1 -0.2 13.05 -1.0 13.2 -1.4 13.2 -1.8 Q12.85 -1.05 12.15 -1.05 11.8 -1.05 11.6 -1.35 11.3 -1.75 11.05 -1.9 10.9 -1.85 10.65 -1.65 M11.85 -6.75 L12.0 -6.95 Q12.0 -7.1 11.9 -7.05 L11.8 -6.85 11.85 -6.75 M11.75 -8.45 L11.7 -7.75 11.75 -8.05 Q11.8 -8.15 11.95 -8.35 L11.75 -8.45 M8.4 0.0 L8.35 -0.3 8.3 0.0 Q8.15 0.9 8.15 1.1 8.5 2.95 8.25 4.7 7.8 8.2 4.85 8.2 3.5 8.2 2.6 7.1 2.35 6.8 2.2 6.45 2.0 6.15 1.95 5.85 1.7 5.45 1.65 5.1 1.5 5.4 1.5 5.6 1.5 6.8 2.3 8.0 3.2 9.35 4.35 9.35 5.0 9.35 6.65 8.2 8.1 7.15 8.75 6.3 L8.85 6.1 8.85 6.0 8.9 5.85 9.05 4.55 9.05 4.25 Q9.05 3.9 8.55 1.1 L8.4 0.0" fill="#111111" fill-rule="evenodd" stroke="none"/>
    <path d="M1.2 4.5 Q1.15 4.65 1.05 4.85 L1.05 4.95 1.05 4.4 1.1 4.4 Q1.15 4.45 1.2 4.5 M6.9 8.95 Q7.1 9.05 7.35 9.15 L7.25 9.15 6.65 9.1 6.9 8.95 M8.75 6.3 L8.85 6.0 8.85 6.1 8.75 6.3" fill="#666666" fill-rule="evenodd" stroke="none"/>
    <path d="M2.4 4.85 L2.5 4.8 2.55 4.85 2.4 4.85 M3.05 0.6 L3.4 0.55 3.45 0.55 3.05 0.6" fill="#333333" fill-rule="evenodd" stroke="none"/>
    <path d="M5.8 -8.45 Q5.85 -8.15 6.0 -7.95 L6.05 -7.95 6.05 -7.9 6.3 -7.0 Q6.45 -6.45 7.25 -5.6 8.05 -4.8 8.4 -4.8 L9.7 -4.9 9.85 -5.15 9.85 -5.5 10.0 -5.5 10.05 -5.2 10.2 -4.65 Q10.15 -4.5 9.9 -4.35 L9.55 -4.3 9.1 -4.25 8.9 -4.25 8.95 -4.2 Q8.55 -3.9 8.3 -3.0 8.1 -2.45 8.1 -2.1 L7.95 -2.35 7.75 -2.7 6.7 -4.35 Q5.6 -6.25 5.35 -7.75 L5.4 -8.25 Q5.4 -8.4 5.5 -8.6 5.65 -8.5 5.8 -8.45 M0.35 -4.8 L0.35 -4.9 0.5 -6.2 Q0.5 -6.35 0.6 -7.1 0.7 -7.85 0.7 -8.2 1.2 -8.75 1.3 -9.2 L1.35 -9.4 Q1.45 -9.25 1.45 -9.0 1.15 -7.75 1.05 -7.1 L1.05 -7.2 Q0.95 -7.7 0.95 -8.0 L0.85 -8.0 Q0.75 -7.35 0.7 -6.15 L0.65 -4.8 Q0.65 -4.4 0.85 -3.65 1.1 -2.6 1.55 -2.45 0.95 -4.25 0.95 -4.6 0.95 -4.75 1.05 -5.2 L1.1 -5.65 1.15 -4.9 Q1.15 -4.7 1.25 -4.35 L1.4 -3.7 Q1.45 -3.3 2.3 -2.7 3.05 -2.15 3.4 -1.9 4.5 -1.25 5.2 -1.25 5.3 -1.25 5.4 -1.1 L5.55 -0.85 Q5.55 -0.75 5.35 -0.7 L5.2 -0.95 Q5.15 -0.85 4.9 -0.85 4.6 -0.85 3.9 -1.05 L3.15 -1.3 2.9 -1.3 2.85 -1.25 2.6 -1.15 Q2.55 -0.95 2.45 -0.75 2.7 -0.4 2.8 -0.4 L4.0 -0.55 Q5.05 -0.55 6.0 0.2 6.9 0.9 6.9 1.35 6.9 1.5 6.8 1.6 6.7 1.7 6.65 1.7 6.6 1.7 6.55 1.65 6.45 0.75 5.4 0.25 4.5 -0.15 3.4 -0.15 2.95 -0.15 2.3 0.25 1.8 0.5 1.55 0.75 L2.05 -1.45 2.0 -1.5 2.0 -1.75 Q2.0 -1.85 1.65 -2.2 L1.35 -2.55 1.1 -2.5 1.1 -2.45 1.05 -2.4 Q0.8 -2.9 0.7 -3.3 L0.45 -4.45 0.35 -4.8 M5.95 -3.15 Q6.05 -3.55 6.1 -4.0 L6.3 -3.75 7.4 -2.2 Q7.6 -1.8 7.7 -1.5 L7.7 0.5 Q7.6 1.3 7.6 1.75 L7.65 3.95 Q7.65 4.9 7.45 5.6 L7.4 5.65 7.25 5.85 7.1 6.0 7.25 5.7 Q7.5 5.05 7.5 4.35 7.35 2.2 7.35 1.95 L7.25 -0.4 Q7.25 -1.9 6.3 -2.9 L5.95 -3.15 M6.75 4.6 L6.8 4.4 Q6.8 4.2 6.55 3.9 6.45 3.5 5.95 3.25 5.8 3.15 5.65 3.15 L5.35 2.95 5.3 2.9 Q5.25 2.85 5.2 2.85 4.9 2.7 4.55 2.5 3.6 2.1 2.9 2.0 L2.1 2.15 2.05 2.15 1.95 2.25 1.9 2.25 1.7 2.6 Q1.45 3.05 1.35 3.4 2.5 3.55 3.75 4.05 4.7 4.4 5.9 4.45 L5.85 4.65 5.8 4.8 5.8 4.85 5.75 4.85 Q5.6 5.0 5.05 5.0 4.95 5.0 3.9 4.5 2.8 4.0 2.5 4.0 2.1 4.0 1.9 4.15 L1.85 4.2 1.7 4.2 Q1.4 4.2 1.2 4.5 1.15 4.45 1.1 4.4 L1.05 4.4 1.05 4.95 Q1.0 5.2 1.0 5.65 L1.0 5.8 1.05 6.0 1.9 8.15 2.0 8.3 2.0 8.35 Q2.0 8.45 1.95 8.7 1.85 8.9 1.85 9.05 1.85 9.25 2.1 9.6 2.35 10.1 2.7 9.95 L3.2 9.7 3.65 9.95 2.05 10.6 1.8 10.5 1.45 10.4 Q1.65 9.35 1.25 7.7 0.8 5.75 0.8 5.05 L0.8 4.7 0.85 4.5 0.85 4.2 1.3 2.0 1.4 1.45 Q2.75 0.95 3.85 1.3 4.6 1.5 5.35 2.2 6.1 2.75 6.45 3.2 6.95 3.75 6.95 4.3 L6.9 4.65 6.75 4.8 6.75 4.6 M10.7 -4.8 L10.85 -5.2 Q11.1 -5.65 11.1 -5.95 11.15 -6.1 11.2 -6.2 L11.5 -6.5 11.45 -6.2 11.4 -6.1 Q11.35 -5.9 11.35 -5.65 L11.4 -5.25 11.4 -5.2 11.35 -5.75 11.25 -5.7 Q11.1 -4.8 11.0 -4.25 10.75 -3.2 10.3 -2.45 L10.2 -2.2 10.15 -2.2 9.9 -1.7 10.0 -1.55 9.9 -1.3 Q9.55 -0.15 9.55 0.25 9.55 0.65 9.75 1.3 L9.75 1.4 10.0 3.9 Q10.0 7.1 9.45 8.25 L7.4 9.15 7.35 9.15 Q7.1 9.05 6.9 8.95 L6.95 8.9 7.35 8.65 7.4 8.6 7.55 8.55 7.65 8.45 7.7 8.45 Q9.1 8.45 9.6 7.2 9.75 6.8 9.8 6.35 L9.85 5.9 9.7 4.9 9.7 4.25 Q9.7 4.05 9.5 2.55 L9.25 0.8 9.0 -1.2 8.9 -2.3 9.05 -2.3 Q9.1 -2.25 9.15 -2.1 L9.25 -1.8 9.95 -3.1 10.15 -3.45 10.3 -3.45 Q10.7 -3.65 10.7 -4.75 L10.7 -4.8 M2.2 6.45 L2.35 7.15 Q2.6 7.75 2.9 8.1 3.55 8.9 4.6 8.9 5.2 8.9 6.4 7.9 7.2 7.5 7.7 6.6 L8.1 6.1 Q8.2 5.9 8.4 4.85 8.65 3.8 8.65 3.5 L8.6 2.7 8.5 1.85 8.45 0.75 8.4 0.0 8.55 1.1 Q9.05 3.9 9.05 4.25 L9.05 4.55 8.9 5.85 8.85 6.0 8.75 6.3 Q8.1 7.15 6.65 8.2 5.0 9.35 4.35 9.35 3.2 9.35 2.3 8.0 1.5 6.8 1.5 5.6 1.5 5.4 1.65 5.1 1.7 5.45 1.95 5.85 2.0 6.15 2.2 6.45" fill="#333121" fill-rule="evenodd" stroke="none"/>
    <path d="M5.5 -8.6 Q5.6 -8.85 5.8 -9.15 5.5 -9.35 5.3 -9.35 L5.35 -9.45 Q5.55 -9.6 5.85 -9.7 L6.05 -9.75 Q5.95 -9.6 5.9 -9.4 5.85 -9.25 5.8 -9.0 L5.7 -8.9 5.8 -8.75 5.8 -8.45 Q5.65 -8.5 5.5 -8.6 M6.05 -7.9 Q6.2 -7.75 6.4 -7.7 6.65 -7.5 7.6 -7.5 8.0 -7.5 8.0 -7.1 8.05 -6.5 8.3 -6.3 L8.5 -6.1 Q8.75 -5.6 9.35 -5.6 L9.55 -5.6 9.7 -5.5 9.85 -5.5 9.85 -5.15 9.7 -4.9 8.4 -4.8 Q8.05 -4.8 7.25 -5.6 6.45 -6.45 6.3 -7.0 L6.05 -7.9 M1.35 -9.4 L1.45 -9.95 1.55 -9.95 Q1.6 -9.5 1.6 -8.7 L1.6 -6.4 Q1.65 -4.05 2.6 -3.35 L2.95 -3.3 2.95 -3.4 3.0 -3.5 3.1 -3.5 Q3.5 -3.45 3.65 -3.35 3.9 -3.15 3.9 -2.55 3.9 -2.05 4.15 -1.9 4.3 -1.75 4.75 -1.75 4.95 -1.75 5.05 -1.8 L5.2 -1.9 Q5.75 -2.45 5.95 -3.1 L5.95 -3.15 6.3 -2.9 Q7.25 -1.9 7.25 -0.4 L7.35 1.95 Q7.35 2.2 7.5 4.35 7.5 5.05 7.25 5.7 L7.1 6.0 7.05 6.1 Q6.5 6.7 5.4 7.3 L4.7 7.35 4.05 7.4 4.0 7.4 Q3.45 7.2 2.95 6.6 2.2 5.7 2.2 4.95 L2.3 4.9 Q2.35 4.85 2.4 4.85 L2.55 4.85 3.5 5.45 Q4.45 6.0 4.95 6.0 5.55 6.0 5.9 5.85 L6.35 5.75 6.6 5.55 Q6.75 5.1 6.75 4.6 L6.75 4.8 6.9 4.65 6.95 4.3 Q6.95 3.75 6.45 3.2 6.1 2.75 5.35 2.2 4.6 1.5 3.85 1.3 2.75 0.95 1.4 1.45 L1.5 1.15 1.5 1.2 1.7 1.25 2.4 0.85 Q2.75 0.65 3.05 0.6 L3.45 0.55 Q4.5 0.55 5.3 1.0 6.0 1.45 6.35 2.2 L6.45 2.2 6.5 2.1 Q6.55 2.0 6.55 1.8 L6.55 1.65 Q6.6 1.7 6.65 1.7 6.7 1.7 6.8 1.6 6.9 1.5 6.9 1.35 6.9 0.9 6.0 0.2 5.05 -0.55 4.0 -0.55 L2.8 -0.4 Q2.7 -0.4 2.45 -0.75 2.55 -0.95 2.6 -1.15 L2.85 -1.25 2.9 -1.3 3.15 -1.3 3.9 -1.05 Q4.6 -0.85 4.9 -0.85 5.15 -0.85 5.2 -0.95 L5.35 -0.7 Q5.55 -0.75 5.55 -0.85 L5.4 -1.1 Q5.3 -1.25 5.2 -1.25 4.5 -1.25 3.4 -1.9 3.05 -2.15 2.3 -2.7 1.45 -3.3 1.4 -3.7 L1.25 -4.35 Q1.15 -4.7 1.15 -4.9 L1.1 -5.65 1.1 -6.55 1.05 -7.1 Q1.15 -7.75 1.45 -9.0 1.45 -9.25 1.35 -9.4 M1.95 2.25 L1.85 2.4 1.9 2.45 1.95 2.4 1.95 2.5 Q2.35 2.45 3.05 2.6 L3.4 2.85 4.25 3.4 5.25 3.75 Q5.75 3.95 5.9 4.2 L5.9 4.45 Q4.7 4.4 3.75 4.05 2.5 3.55 1.35 3.4 1.45 3.05 1.7 2.6 L1.9 2.25 1.95 2.25 M2.0 8.3 L2.05 8.4 Q2.65 9.3 3.2 9.7 L2.7 9.95 Q2.35 10.1 2.1 9.6 1.85 9.25 1.85 9.05 1.85 8.9 1.95 8.7 2.0 8.45 2.0 8.35 L2.0 8.3 M1.05 -2.4 L0.55 -2.0 Q0.4 -2.2 0.3 -2.8 0.2 -3.3 0.2 -3.65 L0.35 -4.8 0.45 -4.45 0.7 -3.3 Q0.8 -2.9 1.05 -2.4 M11.2 -6.2 Q11.15 -6.1 11.1 -5.95 11.1 -5.65 10.85 -5.2 L10.7 -4.8 Q10.7 -5.25 10.55 -5.5 L10.4 -5.65 11.2 -6.2 M10.15 -3.45 L9.95 -3.1 9.25 -1.8 9.15 -2.1 Q9.1 -2.25 9.05 -2.3 L8.9 -2.3 8.9 -2.6 Q8.9 -3.0 8.95 -3.1 L9.55 -3.6 10.15 -3.45 M9.7 4.9 L9.85 5.9 9.8 6.35 Q9.75 6.8 9.6 7.2 9.1 8.45 7.7 8.45 L7.65 8.45 Q8.9 7.55 9.4 6.1 9.6 5.5 9.7 4.9 M10.65 -1.65 Q10.9 -1.85 11.05 -1.9 11.3 -1.75 11.6 -1.35 11.8 -1.05 12.15 -1.05 12.85 -1.05 13.2 -1.8 L13.2 -1.4 13.05 -1.0 12.1 -0.2 10.95 -0.3 10.45 0.1 10.5 -0.4 Q10.55 -1.1 10.65 -1.65 M8.4 0.0 L8.45 0.75 8.5 1.85 8.6 2.7 8.65 3.5 Q8.65 3.8 8.4 4.85 8.2 5.9 8.1 6.1 L7.7 6.6 Q7.2 7.5 6.4 7.9 5.2 8.9 4.6 8.9 3.55 8.9 2.9 8.1 2.6 7.75 2.35 7.15 L2.2 6.45 Q2.35 6.8 2.6 7.1 3.5 8.2 4.85 8.2 7.8 8.2 8.25 4.7 8.5 2.95 8.15 1.1 8.15 0.9 8.3 0.0 L8.35 -0.3 8.4 0.0" fill="#666342" fill-rule="evenodd" stroke="none"/>
  </g>
</svg>
