<?xml version="1.0" encoding="UTF-8" standalone="no"?>
<svg xmlns:ffdec="https://www.free-decompiler.com/flash" xmlns:xlink="http://www.w3.org/1999/xlink" ffdec:objectType="shape" height="23.75px" width="18.05px" xmlns="http://www.w3.org/2000/svg">
  <g transform="matrix(1.0, 0.0, 0.0, 1.0, 2.35, 3.9)">
    <path d="M8.4 7.2 Q8.7 6.45 8.7 5.85 8.65 5.35 8.55 4.85 8.55 3.5 7.85 2.5 7.2 1.5 5.35 0.05 3.2 -0.5 3.2 -0.55 2.75 -0.55 2.3 -0.4 L2.35 -0.45 2.55 -0.55 2.6 -0.6 Q3.55 -1.05 4.95 -1.05 7.9 -1.0 9.1 1.55 9.45 2.3 9.6 3.0 L9.6 3.15 9.3 2.95 8.15 2.25 8.15 2.3 8.35 2.5 9.7 4.0 9.7 4.2 Q9.55 5.1 9.1 6.05 8.8 6.7 8.5 7.15 L8.4 7.2 M4.4 -1.0 Q3.65 -0.95 3.05 -0.65 L3.55 -0.65 Q4.45 -0.65 5.1 -0.4 5.65 -0.2 6.35 0.35 7.9 1.7 9.5 2.95 L9.3 2.35 Q9.3 2.25 8.95 1.65 L8.45 0.9 Q7.75 -0.05 6.55 -0.5 L6.0 -0.65 5.2 -0.9 5.0 -0.95 4.7 -1.0 4.4 -1.0" fill="#59542f" fill-rule="evenodd" stroke="none"/>
    <path d="M8.4 7.2 L8.5 7.15 8.4 7.3 8.4 7.2 M9.7 4.0 L8.35 2.5 8.55 2.65 Q9.25 3.1 9.45 3.15 L9.5 3.1 9.3 2.95 9.6 3.15 Q9.7 3.55 9.7 4.0 M6.0 -0.65 L6.55 -0.5 Q7.75 -0.05 8.45 0.9 L8.95 1.65 Q9.3 2.25 9.3 2.35 L9.5 2.95 Q7.9 1.7 6.35 0.35 5.65 -0.2 5.1 -0.4 4.45 -0.65 3.55 -0.65 L3.05 -0.65 Q3.65 -0.95 4.4 -1.0 L4.45 -0.9 Q4.55 -0.85 5.0 -0.75 L5.05 -0.8 5.75 -0.6 7.25 0.15 Q7.8 0.45 8.15 0.8 L8.25 0.75 Q7.95 0.3 7.55 0.05 7.15 -0.2 6.0 -0.65 M4.7 -1.0 L5.0 -0.95 4.7 -1.0" fill="#9a9560" fill-rule="evenodd" stroke="none"/>
    <path d="M1.15 -0.15 L1.5 -0.8 Q3.35 -3.9 6.75 -3.9 7.85 -3.9 8.55 -3.7 9.9 -3.5 10.55 -2.75 10.9 -2.4 11.0 -2.05 11.85 -1.4 12.55 -0.3 13.05 0.55 13.35 1.5 13.65 2.35 13.65 2.85 13.65 3.5 13.55 3.7 L13.2 4.5 Q15.25 7.65 15.5 8.9 L15.6 8.65 15.65 8.65 Q15.7 8.65 15.7 8.8 15.7 10.0 14.2 11.9 12.7 13.75 10.35 15.55 7.85 17.45 5.3 18.6 2.45 19.85 0.15 19.85 -1.0 19.8 -1.45 19.55 L-1.5 19.55 -1.8 19.6 Q-1.95 19.6 -2.0 19.55 L-2.15 19.55 Q-2.35 19.55 -2.35 19.5 L-2.35 19.35 -2.0 19.2 -2.05 19.15 -1.9 19.1 Q-1.6 18.75 -0.8 18.15 L1.35 16.55 Q4.3 14.2 4.35 12.85 4.35 12.4 4.1 12.1 3.8 11.75 3.7 11.4 L3.5 11.3 3.45 11.3 Q2.15 11.3 1.15 9.0 0.9 8.55 0.65 8.0 -0.1 6.2 -0.1 4.4 -0.05 3.35 0.25 2.1 0.55 0.9 1.15 -0.15 M9.6 3.15 L9.6 3.0 Q9.45 2.3 9.1 1.55 7.9 -1.0 4.95 -1.05 3.55 -1.05 2.6 -0.6 L2.55 -0.55 2.35 -0.45 2.3 -0.4 Q2.75 -0.55 3.2 -0.55 3.2 -0.5 5.35 0.05 7.2 1.5 7.85 2.5 8.55 3.5 8.55 4.85 8.65 5.35 8.7 5.85 8.7 6.45 8.4 7.2 L8.4 7.3 8.5 7.15 Q8.8 6.7 9.1 6.05 9.55 5.1 9.7 4.2 L9.7 4.0 Q9.7 3.55 9.6 3.15 M3.5 -2.15 L3.2 -1.95 2.7 -1.4 2.8 -1.45 Q3.3 -1.75 3.95 -1.85 4.45 -2.0 4.65 -2.0 7.8 -2.0 9.3 0.45 L9.75 1.15 Q10.1 1.75 10.1 2.0 10.1 2.15 10.2 2.6 L10.3 3.15 10.3 3.85 Q10.3 5.5 9.4 6.8 L9.25 6.95 9.05 7.4 9.05 7.45 8.95 7.65 9.35 7.2 9.4 7.15 Q11.3 4.95 11.45 2.1 L11.45 1.85 Q11.2 0.65 10.7 -0.55 10.25 -1.6 9.7 -2.2 9.25 -2.5 8.9 -2.65 L8.9 -2.75 Q8.55 -2.95 8.1 -2.95 L8.0 -2.95 7.95 -2.9 7.9 -2.95 7.95 -3.0 8.0 -3.05 8.15 -3.1 8.2 -3.1 7.75 -3.25 7.65 -3.25 7.5 -3.25 6.45 -3.15 6.35 -3.15 Q4.7 -2.9 3.5 -2.15 M8.95 7.65 L8.95 7.65 M4.0 -1.5 L3.95 -1.5 3.8 -1.45 4.0 -1.5 M12.2 2.8 L12.2 2.6 Q12.15 2.05 12.15 1.95 L12.05 1.5 Q12.0 1.2 12.0 1.1 12.0 0.9 11.65 0.25 11.95 1.35 11.95 2.4 L11.95 2.65 12.15 2.95 12.25 3.1 12.2 2.8 M12.7 1.25 L12.45 0.85 12.5 1.15 Q12.5 1.3 12.6 1.85 L12.7 2.5 12.6 3.0 12.45 3.4 13.05 4.25 Q13.15 3.65 13.1 2.95 13.05 1.9 12.7 1.25 M11.9 3.1 L11.85 3.15 12.0 3.3 11.9 3.1 M11.9 3.35 L11.85 3.2 11.75 3.6 Q11.6 4.1 11.35 4.75 10.7 6.3 9.65 7.7 8.15 9.7 6.4 10.6 6.75 10.8 6.9 11.05 L6.95 11.1 Q7.15 11.4 7.1 11.95 7.1 13.1 6.25 14.35 5.75 15.1 5.1 15.65 L4.95 15.85 4.3 16.45 Q2.2 18.5 0.15 19.1 L0.35 19.15 Q1.5 19.05 3.3 18.45 5.5 17.65 7.75 16.35 12.7 13.45 15.0 9.75 L15.0 9.65 Q14.95 8.9 14.55 7.95 L12.95 5.1 12.2 3.85 11.9 3.35 M7.9 6.6 Q8.2 5.75 8.2 5.25 8.05 3.95 7.3 2.75 6.85 2.05 6.25 1.55 5.55 1.0 4.6 0.55 3.85 0.25 2.95 0.15 2.4 0.35 1.85 0.9 L1.3 1.3 1.1 1.45 0.95 1.95 Q0.6 3.15 0.6 4.15 0.55 4.6 0.7 5.45 L0.85 6.35 Q0.85 6.75 1.0 7.3 L1.15 7.65 Q1.85 9.4 3.3 10.7 L3.45 10.85 3.5 10.85 Q4.2 10.6 4.85 10.3 L4.95 10.25 5.0 10.2 5.05 10.2 Q6.25 9.4 7.0 8.6 L7.1 8.5 6.95 8.5 7.2 8.4 7.25 8.35 7.3 8.25 Q7.95 7.5 8.15 6.7 7.9 7.25 7.35 8.15 L7.75 6.95 7.85 6.75 7.85 6.7 7.9 6.65 7.9 6.6 M6.55 11.45 L6.5 11.4 5.8 10.85 Q5.1 11.15 4.35 11.25 L4.4 11.3 Q4.7 11.55 4.7 11.7 L4.75 11.75 4.75 11.8 4.8 11.8 Q4.95 12.1 4.95 12.65 L4.9 13.1 4.9 13.15 4.25 14.6 4.15 14.75 Q3.6 15.6 2.65 16.45 L1.25 17.7 Q3.1 16.75 4.1 16.0 4.65 15.6 5.05 15.15 6.15 14.1 6.5 12.85 6.65 12.4 6.7 11.9 6.65 11.6 6.55 11.45 M3.85 11.3 L3.8 11.3 3.9 11.35 3.85 11.3" fill="#111111" fill-rule="evenodd" stroke="none"/>
    <path d="M8.95 7.65 L9.05 7.45 9.05 7.4 9.25 6.95 9.4 6.8 Q10.3 5.5 10.3 3.85 L10.3 3.15 10.2 2.6 Q10.1 2.15 10.1 2.0 10.1 1.75 9.75 1.15 L9.3 0.45 Q7.8 -2.0 4.65 -2.0 4.45 -2.0 3.95 -1.85 3.3 -1.75 2.8 -1.45 L2.7 -1.4 3.2 -1.95 3.5 -2.15 Q3.9 -2.25 4.2 -2.25 L4.9 -2.35 5.9 -2.45 Q7.05 -2.45 8.05 -1.55 8.7 -1.0 9.15 -0.3 9.5 0.4 9.95 1.05 10.75 2.3 11.05 2.3 11.3 2.3 11.45 2.1 11.3 4.95 9.4 7.15 L9.35 7.2 8.95 7.65 M7.5 -3.25 L7.65 -3.25 7.95 -3.0 7.9 -2.95 7.95 -2.9 8.0 -2.95 Q8.4 -2.55 8.75 -2.0 9.4 -1.15 9.75 -0.25 L9.6 -0.5 9.6 -0.55 Q9.6 -0.65 8.9 -1.55 L7.7 -3.1 7.75 -2.95 7.5 -3.25 M12.15 2.95 L11.95 2.65 11.95 2.4 Q11.95 1.35 11.65 0.25 12.0 0.9 12.0 1.1 12.0 1.2 12.05 1.5 L12.15 1.95 Q12.15 2.05 12.2 2.6 L12.2 2.8 12.15 2.95 M12.7 1.25 Q13.05 1.9 13.1 2.95 13.15 3.65 13.05 4.25 L12.45 3.4 12.6 3.0 12.7 2.5 12.6 1.85 Q12.5 1.3 12.5 1.15 L12.45 0.85 12.7 1.25 M7.9 6.6 L7.9 6.65 7.85 6.7 7.85 6.75 7.75 6.95 7.35 8.15 Q7.9 7.25 8.15 6.7 7.95 7.5 7.3 8.25 L7.25 8.3 7.25 8.35 7.2 8.4 6.95 8.5 7.1 8.5 7.0 8.6 Q6.25 9.4 5.05 10.2 L5.0 10.2 4.95 10.25 4.85 10.3 Q4.2 10.6 3.5 10.85 L3.35 10.65 Q3.3 10.65 3.3 10.7 1.85 9.4 1.15 7.65 L1.0 7.3 Q0.85 6.75 0.85 6.35 L0.7 5.45 Q0.55 4.6 0.6 4.15 0.6 3.15 0.95 1.95 L1.1 1.45 1.3 1.3 1.3 1.7 1.65 2.4 2.45 3.9 Q2.9 4.8 4.1 5.75 5.6 6.95 6.9 6.95 L7.9 6.6 M3.95 2.05 L3.9 2.05 Q3.6 2.05 3.45 1.95 L3.3 1.85 3.25 1.75 Q3.25 1.45 3.75 1.35 4.2 1.25 4.2 1.65 4.2 1.75 4.05 1.95 L3.95 2.05 M5.55 4.25 L5.6 4.3 Q5.65 4.35 5.65 4.25 5.65 3.9 5.35 3.1 5.1 2.5 4.9 2.3 L4.8 2.0 Q5.05 2.15 5.4 2.75 5.8 3.45 5.8 3.85 L5.75 4.05 Q5.7 4.3 5.6 4.4 L5.55 4.25 M2.4 4.65 Q2.0 4.2 1.7 3.7 L1.8 4.05 Q2.0 4.6 2.2 4.9 2.5 5.4 3.05 5.8 3.7 6.3 4.55 6.85 5.75 7.55 6.25 7.55 6.65 7.55 7.15 7.35 L6.8 7.4 6.9 7.4 Q4.7 6.5 3.35 5.5 2.8 5.05 2.4 4.65" fill="#397373" fill-rule="evenodd" stroke="none"/>
    <path d="M6.35 -3.15 L6.45 -3.15 6.55 -3.15 Q6.7 -3.15 7.15 -2.9 L7.05 -2.8 6.55 -2.9 5.85 -2.8 Q5.7 -2.8 5.6 -2.95 L6.05 -3.1 6.35 -3.15 M7.75 -2.95 L7.7 -3.1 8.9 -1.55 Q9.6 -0.65 9.6 -0.55 L9.6 -0.5 9.55 -0.45 Q8.9 -1.05 8.35 -1.85 8.0 -2.4 7.75 -2.95 M10.4 -0.45 L10.1 -1.15 Q10.3 -1.0 10.5 -0.55 L10.7 0.15 Q10.6 -0.05 10.4 -0.45 M8.9 -2.35 Q8.95 -2.35 9.15 -2.35 9.3 -2.35 9.5 -2.2 9.65 -2.05 9.65 -1.9 L9.65 -1.75 9.55 -1.7 Q9.4 -1.75 9.2 -2.0 L8.9 -2.35 M6.55 2.7 Q6.15 2.2 5.85 1.9 L5.55 1.65 Q5.15 1.4 5.0 1.2 L5.1 1.2 Q6.3 1.75 6.95 2.95 7.55 3.95 7.55 4.75 L7.5 5.0 7.45 4.95 Q7.25 3.7 6.55 2.7 M3.95 2.05 Q4.1 2.05 4.2 1.85 4.3 1.6 4.35 1.55 L4.4 1.55 4.4 1.6 Q4.4 2.25 3.7 2.25 3.35 2.25 3.25 2.15 3.15 2.05 3.1 1.8 L3.3 1.85 3.45 1.95 Q3.6 2.05 3.9 2.05 L3.95 2.05 M5.55 4.25 L5.45 4.15 5.4 3.95 Q5.4 3.9 5.1 3.15 4.8 2.45 4.8 2.3 L4.8 2.2 4.9 2.3 Q5.1 2.5 5.35 3.1 5.65 3.9 5.65 4.25 5.65 4.35 5.6 4.3 L5.55 4.25 M3.75 0.95 L3.55 1.05 Q3.4 1.05 3.25 0.95 L3.05 0.85 Q2.95 0.85 2.65 1.0 2.4 1.15 2.3 1.15 L2.2 1.15 2.2 1.05 2.45 0.85 Q2.75 0.7 3.0 0.6 3.85 0.25 3.85 0.85 L3.75 0.95 M2.4 4.65 Q2.8 5.05 3.35 5.5 4.7 6.5 6.9 7.4 L6.8 7.4 Q5.95 7.55 4.25 6.35 2.6 5.2 1.85 3.95 2.05 4.3 2.4 4.65" fill="#65cccc" fill-rule="evenodd" stroke="none"/>
    <path d="M3.5 -2.15 Q4.7 -2.9 6.35 -3.15 L6.05 -3.1 5.6 -2.95 Q5.7 -2.8 5.85 -2.8 L6.55 -2.9 7.05 -2.8 7.15 -2.9 Q6.7 -3.15 6.55 -3.15 L6.45 -3.15 7.5 -3.25 7.75 -2.95 Q8.0 -2.4 8.35 -1.85 8.9 -1.05 9.55 -0.45 L9.6 -0.5 9.75 -0.25 Q9.4 -1.15 8.75 -2.0 8.4 -2.55 8.0 -2.95 L8.1 -2.95 Q8.55 -2.95 8.9 -2.75 L8.9 -2.65 Q9.25 -2.5 9.7 -2.2 10.25 -1.6 10.7 -0.55 11.2 0.65 11.45 1.85 L11.45 2.1 Q11.3 2.3 11.05 2.3 10.75 2.3 9.95 1.05 9.5 0.4 9.15 -0.3 8.7 -1.0 8.05 -1.55 7.05 -2.45 5.9 -2.45 L4.9 -2.35 4.2 -2.25 Q3.9 -2.25 3.5 -2.15 M7.65 -3.25 L7.75 -3.25 8.2 -3.1 8.15 -3.1 8.0 -3.05 7.95 -3.0 7.65 -3.25 M8.95 7.65 L8.95 7.65 M8.9 -2.35 L9.2 -2.0 Q9.4 -1.75 9.55 -1.7 L9.65 -1.75 9.65 -1.9 Q9.65 -2.05 9.5 -2.2 9.3 -2.35 9.15 -2.35 8.95 -2.35 8.9 -2.35 M10.4 -0.45 Q10.6 -0.05 10.7 0.15 L10.5 -0.55 Q10.3 -1.0 10.1 -1.15 L10.4 -0.45 M12.2 2.8 L12.25 3.1 12.15 2.95 12.2 2.8 M6.55 2.7 Q7.25 3.7 7.45 4.95 L7.5 5.0 7.55 4.75 Q7.55 3.95 6.95 2.95 6.3 1.75 5.1 1.2 L5.0 1.2 Q5.15 1.4 5.55 1.65 L5.85 1.9 Q6.15 2.2 6.55 2.7 M1.3 1.3 L1.85 0.9 Q2.4 0.35 2.95 0.15 3.85 0.25 4.6 0.55 5.55 1.0 6.25 1.55 6.85 2.05 7.3 2.75 8.05 3.95 8.2 5.25 8.2 5.75 7.9 6.6 L6.9 6.95 Q5.6 6.95 4.1 5.75 2.9 4.8 2.45 3.9 L1.65 2.4 1.3 1.7 1.3 1.3 M7.3 8.25 L7.25 8.35 7.25 8.3 7.3 8.25 M3.5 10.85 L3.45 10.85 3.3 10.7 Q3.3 10.65 3.35 10.65 L3.5 10.85 M3.3 1.85 L3.1 1.8 Q3.15 2.05 3.25 2.15 3.35 2.25 3.7 2.25 4.4 2.25 4.4 1.6 L4.4 1.55 4.35 1.55 Q4.3 1.6 4.2 1.85 4.1 2.05 3.95 2.05 L4.05 1.95 Q4.2 1.75 4.2 1.65 4.2 1.25 3.75 1.35 3.25 1.45 3.25 1.75 L3.3 1.85 M3.75 0.95 L3.85 0.85 Q3.85 0.25 3.0 0.6 2.75 0.7 2.45 0.85 L2.2 1.05 2.2 1.15 2.3 1.15 Q2.4 1.15 2.65 1.0 2.95 0.85 3.05 0.85 L3.25 0.95 Q3.4 1.05 3.55 1.05 L3.75 0.95 M4.9 2.3 L4.8 2.2 4.8 2.3 Q4.8 2.45 5.1 3.15 5.4 3.9 5.4 3.95 L5.45 4.15 5.55 4.25 5.6 4.4 Q5.7 4.3 5.75 4.05 L5.8 3.85 Q5.8 3.45 5.4 2.75 5.05 2.15 4.8 2.0 L4.9 2.3 M6.8 7.4 L7.15 7.35 Q6.65 7.55 6.25 7.55 5.75 7.55 4.55 6.85 3.7 6.3 3.05 5.8 2.5 5.4 2.2 4.9 2.0 4.6 1.8 4.05 L1.7 3.7 Q2.0 4.2 2.4 4.65 2.05 4.3 1.85 3.95 2.6 5.2 4.25 6.35 5.95 7.55 6.8 7.4" fill="#4c9999" fill-rule="evenodd" stroke="none"/>
    <path d="M8.35 2.5 L8.15 2.3 8.15 2.25 9.3 2.95 9.5 3.1 9.45 3.15 Q9.25 3.1 8.55 2.65 L8.35 2.5 M4.4 -1.0 L4.7 -1.0 5.0 -0.95 5.2 -0.9 6.0 -0.65 Q7.15 -0.2 7.55 0.05 7.95 0.3 8.25 0.75 L8.15 0.8 Q7.8 0.45 7.25 0.15 L5.75 -0.6 5.05 -0.8 5.0 -0.75 Q4.55 -0.85 4.45 -0.9 L4.4 -1.0" fill="#d5d3b1" fill-rule="evenodd" stroke="none"/>
    <path d="M12.55 5.4 Q12.1 4.5 12.1 4.2 L12.1 4.15 12.15 4.05 12.15 4.1 Q12.5 4.4 12.9 5.25 13.3 6.15 13.35 6.7 L13.25 6.7 12.75 5.75 12.6 5.55 12.3 6.15 Q11.9 6.95 11.5 7.95 10.6 10.1 10.55 10.95 L10.4 11.1 10.4 10.8 Q10.35 10.8 10.35 10.65 10.35 9.5 11.1 7.6 11.85 5.8 12.45 5.55 L12.55 5.45 12.55 5.4 M8.65 11.9 L9.2 11.55 9.25 11.55 9.15 11.7 8.9 11.9 Q8.45 12.3 7.6 12.75 L7.55 12.75 7.55 12.7 7.6 12.65 7.85 12.5 8.65 11.9 M14.55 9.65 Q14.7 9.7 14.7 9.75 14.6 9.85 14.3 10.4 14.1 10.75 13.8 10.8 L14.15 10.2 Q14.35 9.8 14.55 9.65 M14.65 9.25 Q14.65 9.4 14.6 9.4 L14.55 9.4 13.65 7.4 Q14.0 7.5 14.35 8.25 14.65 8.9 14.65 9.25 M6.55 11.45 Q6.65 11.6 6.7 11.9 6.65 12.4 6.5 12.85 L6.35 12.75 Q6.15 12.6 5.95 12.6 5.5 12.6 4.9 13.1 L4.95 12.65 Q4.95 12.1 4.8 11.8 5.5 11.8 6.55 11.45 M5.05 15.15 Q4.65 15.6 4.1 16.0 3.1 16.75 1.25 17.7 L2.65 16.45 Q3.6 15.6 4.15 14.75 4.4 15.15 5.05 15.15 M9.25 14.1 L9.3 14.15 Q9.3 14.25 9.15 14.35 L9.0 14.5 8.95 14.5 Q8.7 14.65 8.55 14.65 8.2 14.65 7.95 14.5 7.8 14.35 7.8 14.25 L7.8 14.1 7.85 14.0 8.0 14.0 Q8.05 14.05 8.05 14.25 8.1 14.4 8.25 14.4 L8.5 14.45 Q8.75 14.45 9.25 14.1 M5.45 16.4 L5.4 16.4 5.4 16.15 5.55 16.05 5.6 16.0 Q5.65 16.0 5.65 16.15 5.65 16.3 5.75 16.35 L5.85 16.45 5.7 16.55 5.45 16.4" fill="#dfdfdf" fill-rule="evenodd" stroke="none"/>
    <path d="M11.9 3.35 L12.2 3.85 12.15 4.05 12.1 4.15 11.85 4.95 Q11.3 6.45 10.5 7.7 9.0 10.15 7.15 10.95 7.55 11.9 7.6 12.4 7.8 12.3 8.2 12.1 L8.65 11.9 7.85 12.5 7.6 12.6 7.6 12.65 7.55 12.7 7.55 12.75 Q7.45 13.45 6.4 14.65 5.55 15.6 4.6 16.35 L4.95 15.85 5.1 15.65 Q5.75 15.1 6.25 14.35 7.1 13.1 7.1 11.95 7.15 11.4 6.95 11.1 L6.9 11.05 Q6.75 10.8 6.4 10.6 8.15 9.7 9.65 7.7 10.7 6.3 11.35 4.75 11.6 4.1 11.75 3.6 L11.9 3.35 M12.55 5.4 L12.55 5.45 12.45 5.55 12.55 5.4 M10.55 10.95 Q10.6 10.1 11.5 7.95 11.9 6.95 12.3 6.15 L12.6 5.55 12.75 5.75 Q12.7 6.35 11.85 8.4 11.1 10.35 10.55 10.95 M9.15 11.7 L9.25 11.7 9.2 11.8 8.9 11.9 9.15 11.7 M13.45 10.15 L13.45 10.25 11.8 11.95 Q10.8 12.95 10.1 13.5 10.6 12.7 11.65 11.7 12.6 10.75 13.45 10.15 M9.25 14.1 Q8.75 14.45 8.5 14.45 L8.25 14.4 8.2 14.35 Q8.05 14.15 8.05 13.85 8.05 13.25 8.7 13.25 9.35 13.25 9.35 13.85 L9.25 14.1 M5.55 16.05 L5.6 15.95 5.75 15.75 Q5.9 16.05 5.9 16.4 L5.8 16.55 5.6 16.7 5.55 16.6 5.5 16.55 5.5 16.45 5.45 16.4 5.7 16.55 5.85 16.45 5.75 16.35 Q5.65 16.3 5.65 16.15 5.65 16.0 5.6 16.0 L5.55 16.05" fill="#666666" fill-rule="evenodd" stroke="none"/>
    <path d="M11.75 3.6 L11.85 3.2 11.9 3.35 11.75 3.6 M12.2 3.85 L12.95 5.1 14.55 7.95 Q14.95 8.9 15.0 9.65 L15.0 9.75 Q12.7 13.45 7.75 16.35 5.5 17.65 3.3 18.45 1.5 19.05 0.35 19.15 L0.15 19.1 Q2.2 18.5 4.3 16.45 L4.95 15.85 4.6 16.35 Q5.55 15.6 6.4 14.65 7.45 13.45 7.55 12.75 L7.6 12.75 Q8.45 12.3 8.9 11.9 L9.2 11.8 9.25 11.7 9.15 11.7 9.25 11.55 9.2 11.55 8.65 11.9 8.2 12.1 Q7.8 12.3 7.6 12.4 7.55 11.9 7.15 10.95 9.0 10.15 10.5 7.7 11.3 6.45 11.85 4.95 L12.1 4.15 12.1 4.2 Q12.1 4.5 12.55 5.4 L12.45 5.55 Q11.85 5.8 11.1 7.6 10.35 9.5 10.35 10.65 10.35 10.8 10.4 10.8 L10.4 11.1 10.55 10.95 Q11.1 10.35 11.85 8.4 12.7 6.35 12.75 5.75 L13.25 6.7 13.35 6.7 Q13.3 6.15 12.9 5.25 12.5 4.4 12.15 4.1 L12.15 4.05 12.2 3.85 M14.65 9.25 Q14.65 8.9 14.35 8.25 14.0 7.5 13.65 7.4 L14.55 9.4 14.6 9.4 Q14.65 9.4 14.65 9.25 M14.55 9.65 Q14.35 9.8 14.15 10.2 L13.8 10.8 Q14.1 10.75 14.3 10.4 14.6 9.85 14.7 9.75 14.7 9.7 14.55 9.65 M13.45 10.15 Q12.6 10.75 11.65 11.7 10.6 12.7 10.1 13.5 10.8 12.95 11.8 11.95 L13.45 10.25 13.45 10.15 M8.25 14.4 Q8.1 14.4 8.05 14.25 8.05 14.05 8.0 14.0 L7.85 14.0 7.8 14.1 7.8 14.25 Q7.8 14.35 7.95 14.5 8.2 14.65 8.55 14.65 8.7 14.65 8.95 14.5 L9.0 14.5 9.15 14.35 Q9.3 14.25 9.3 14.15 L9.25 14.1 9.35 13.85 Q9.35 13.25 8.7 13.25 8.05 13.25 8.05 13.85 8.05 14.15 8.2 14.35 L8.25 14.4 M7.85 12.5 L7.6 12.65 7.6 12.6 7.85 12.5 M5.45 16.4 L5.5 16.45 5.5 16.55 5.55 16.6 5.6 16.7 5.8 16.55 5.9 16.4 Q5.9 16.05 5.75 15.75 L5.6 15.95 5.55 16.05 5.4 16.15 5.4 16.4 5.45 16.4" fill="#999999" fill-rule="evenodd" stroke="none"/>
    <path d="M4.8 11.8 L4.75 11.8 4.75 11.75 4.7 11.7 Q4.7 11.55 4.4 11.3 L4.35 11.25 Q5.1 11.15 5.8 10.85 L6.5 11.4 6.55 11.45 Q5.5 11.8 4.8 11.8 M6.5 12.85 Q6.15 14.1 5.05 15.15 4.4 15.15 4.15 14.75 L4.25 14.6 4.9 13.15 4.9 13.1 Q5.5 12.6 5.95 12.6 6.15 12.6 6.35 12.75 L6.5 12.85" fill="#bfbfbf" fill-rule="evenodd" stroke="none"/>
  </g>
</svg>
