<?xml version="1.0" encoding="UTF-8" standalone="no"?>
<svg xmlns:ffdec="https://www.free-decompiler.com/flash" xmlns:xlink="http://www.w3.org/1999/xlink" ffdec:objectType="shape" height="21.55px" width="13.55px" xmlns="http://www.w3.org/2000/svg">
  <g transform="matrix(1.0, 0.0, 0.0, 1.0, -0.45, 11.95)">
    <path d="M7.5 -10.85 L7.65 -10.75 8.0 -10.25 7.95 -10.25 8.0 -10.1 Q8.0 -9.9 7.95 -9.85 L7.9 -9.75 Q7.6 -9.8 7.45 -9.75 7.2 -9.7 6.95 -9.55 L6.65 -9.1 Q6.75 -8.65 7.1 -8.5 L7.15 -8.5 Q8.05 -8.5 8.35 -8.35 L8.55 -8.2 Q8.85 -8.05 8.85 -7.65 L8.85 -7.6 8.9 -7.45 Q9.05 -6.8 9.45 -6.8 11.3 -6.8 11.3 -8.3 11.3 -8.4 11.05 -8.65 10.8 -8.95 10.8 -9.1 L11.0 -9.35 Q11.15 -9.45 11.3 -9.5 11.75 -9.45 12.4 -9.1 13.3 -8.55 13.3 -7.9 13.3 -7.75 13.25 -7.45 L13.2 -7.0 Q12.9 -6.75 12.55 -6.35 L12.55 -6.5 12.65 -6.75 Q12.75 -6.9 12.8 -7.05 L12.3 -6.0 12.3 -5.9 Q12.3 -5.45 11.7 -4.15 L11.25 -3.35 Q11.55 -3.3 11.85 -3.1 12.15 -2.85 12.15 -2.65 12.25 -2.65 12.45 -2.9 12.65 -3.15 12.9 -4.0 13.05 -4.7 13.05 -4.9 13.05 -5.1 13.35 -5.45 L13.25 -6.45 13.35 -6.5 Q13.55 -6.1 13.6 -5.8 L13.65 -6.05 Q13.65 -6.25 13.7 -6.25 L13.8 -6.3 13.95 -6.15 Q14.0 -6.05 14.0 -5.85 14.0 -5.6 13.85 -5.15 L13.95 -4.5 14.0 -3.8 Q14.0 -3.0 13.7 -2.35 13.3 -1.35 12.25 -0.75 L11.2 -0.85 10.7 -0.5 10.65 -0.35 Q10.65 -0.2 10.75 0.2 10.9 0.7 10.9 0.85 L10.9 0.95 11.0 1.15 11.1 2.75 11.2 4.3 Q11.2 5.55 10.25 6.9 9.1 8.6 7.25 8.6 L6.5 8.55 5.55 8.5 Q5.25 8.55 4.05 9.05 L2.9 9.6 Q2.25 9.6 1.75 8.95 1.2 8.35 1.2 7.7 1.2 7.45 1.4 6.7 1.5 6.3 1.15 5.7 1.0 5.5 0.5 4.0 0.5 3.0 1.05 1.8 1.6 0.65 1.6 -0.6 1.6 -0.95 1.75 -1.25 2.0 -1.75 2.1 -2.15 L2.2 -2.35 2.05 -2.7 Q1.85 -2.4 1.5 -2.05 0.9 -2.2 0.6 -2.85 0.45 -3.3 0.45 -4.1 0.45 -5.0 0.6 -6.3 L0.8 -7.75 Q0.8 -8.7 1.2 -9.3 1.6 -9.9 1.6 -10.7 L1.55 -11.75 Q1.55 -12.2 2.2 -11.5 2.4 -11.25 2.8 -9.95 2.95 -9.5 3.15 -8.3 3.4 -6.95 3.4 -6.25 3.4 -6.1 3.55 -5.35 L3.65 -4.7 Q4.35 -4.9 4.65 -4.35 4.85 -3.5 5.1 -3.25 5.3 -3.25 5.55 -3.65 5.8 -3.95 5.8 -4.2 5.8 -4.65 5.5 -5.5 5.15 -6.1 4.95 -6.55 4.45 -7.65 4.45 -8.45 4.45 -9.15 4.9 -9.8 5.35 -10.45 5.95 -10.8 6.6 -11.15 7.1 -11.05 7.35 -10.95 7.5 -10.85 M6.3 -8.75 L6.3 -9.0 6.2 -9.15 6.3 -9.25 Q6.3 -9.5 6.4 -9.65 L6.55 -9.95 6.35 -9.9 Q6.05 -9.8 5.85 -9.7 L5.85 -9.55 Q6.0 -9.6 6.25 -9.4 6.1 -9.1 6.0 -8.9 5.9 -8.7 5.9 -8.55 L5.85 -8.1 Q6.1 -6.75 7.15 -5.05 L8.1 -3.5 8.3 -3.25 8.45 -3.0 Q8.45 -3.3 8.65 -3.8 8.9 -4.65 9.25 -4.9 L9.2 -4.9 9.4 -4.95 9.8 -5.0 10.15 -5.05 Q10.4 -5.2 10.45 -5.3 L10.3 -5.85 10.25 -6.05 10.2 -6.05 9.95 -6.05 9.8 -6.15 9.7 -6.15 9.65 -6.2 Q9.05 -6.2 8.85 -6.65 8.75 -6.7 8.65 -6.8 8.4 -7.0 8.35 -7.55 8.35 -7.9 7.95 -7.9 7.05 -7.9 6.85 -8.1 6.65 -8.15 6.55 -8.25 L6.5 -8.3 Q6.35 -8.5 6.3 -8.75 M1.85 -7.55 L1.9 -7.05 1.85 -6.2 1.8 -5.8 1.75 -5.25 Q1.7 -4.95 2.3 -3.3 1.9 -3.45 1.6 -4.4 1.45 -5.05 1.45 -5.45 L1.5 -6.7 Q1.55 -7.75 1.65 -8.35 L1.75 -8.35 Q1.75 -8.1 1.8 -7.65 L1.85 -7.55 M6.95 0.45 L6.95 0.85 6.9 0.9 6.8 0.9 Q6.5 0.2 5.8 -0.15 5.1 -0.6 4.05 -0.6 L3.7 -0.55 Q3.45 -0.45 3.1 -0.3 L2.45 0.1 Q2.35 0.05 2.25 0.0 L2.2 -0.05 2.15 0.25 1.65 2.75 1.65 2.85 1.6 3.0 1.6 3.3 1.55 3.5 Q1.55 4.15 2.0 5.9 2.4 7.45 2.2 8.4 L2.55 8.5 2.8 8.55 4.3 8.0 Q4.1 7.9 3.85 7.75 3.35 7.35 2.8 6.55 L2.75 6.5 2.65 6.35 1.8 4.35 1.8 4.05 Q1.8 3.65 1.85 3.4 L1.85 3.35 Q1.9 3.15 2.0 3.0 2.15 2.75 2.4 2.75 L2.55 2.75 2.6 2.7 Q2.85 2.55 3.2 2.55 3.45 2.55 4.5 3.0 5.5 3.45 5.55 3.45 6.1 3.45 6.25 3.35 L6.25 3.3 6.3 3.3 6.35 3.15 6.4 2.95 6.4 2.75 Q6.25 2.5 5.75 2.35 L4.85 2.0 Q4.65 1.85 4.05 1.5 L3.7 1.3 2.7 1.2 2.7 1.1 2.6 1.15 2.6 1.1 Q2.65 0.95 2.8 0.85 L3.55 0.75 Q4.25 0.8 5.1 1.2 5.45 1.35 5.7 1.5 L5.8 1.55 5.85 1.6 6.15 1.75 6.4 1.9 Q6.9 2.1 7.0 2.45 7.2 2.75 7.2 2.95 L7.2 3.1 Q7.15 3.55 7.0 3.95 L6.8 4.15 6.35 4.25 Q6.05 4.4 5.5 4.4 5.05 4.4 4.15 3.9 L3.2 3.35 3.2 3.3 3.1 3.3 3.0 3.35 2.9 3.45 Q2.9 4.1 3.6 4.9 4.1 5.45 4.6 5.65 L4.65 5.65 5.25 5.6 5.95 5.6 Q6.95 5.0 7.45 4.5 L7.55 4.4 7.65 4.25 7.8 4.1 7.85 4.0 Q8.05 3.35 8.05 2.55 L7.95 0.5 Q7.95 0.1 8.05 -0.65 L8.05 -0.95 8.1 -1.8 8.1 -2.45 Q8.0 -2.75 7.75 -3.05 L6.75 -4.5 6.55 -4.7 Q6.55 -4.3 6.45 -3.95 L6.4 -3.9 Q6.25 -3.3 5.7 -2.8 L5.55 -2.7 5.3 -2.65 Q4.9 -2.65 4.7 -2.8 4.5 -2.95 4.5 -3.4 4.5 -3.95 4.25 -4.1 4.15 -4.2 3.75 -4.25 L3.65 -4.25 3.65 -4.2 3.6 -4.1 3.3 -4.1 Q2.4 -4.75 2.35 -6.9 L2.35 -8.3 2.3 -8.65 2.35 -8.95 Q2.35 -9.7 2.3 -10.1 L2.2 -10.1 2.1 -9.6 2.05 -9.45 Q1.95 -9.05 1.45 -8.55 1.5 -8.25 1.4 -7.55 1.3 -6.85 1.3 -6.7 L1.15 -5.55 1.15 -5.45 1.05 -4.4 Q1.05 -4.1 1.1 -3.65 1.2 -3.1 1.35 -2.9 L1.8 -3.3 1.85 -3.3 1.85 -3.35 2.1 -3.4 2.4 -3.05 Q2.7 -2.75 2.7 -2.65 L2.7 -2.45 2.8 -2.4 2.3 -0.4 Q2.5 -0.6 3.0 -0.85 3.65 -1.2 4.0 -1.2 5.1 -1.2 5.9 -0.85 6.9 -0.4 6.95 0.45 M5.35 -9.0 L5.35 -9.05 5.4 -9.3 Q5.3 -9.05 5.25 -8.75 L5.2 -8.6 Q5.2 -8.45 5.25 -8.3 5.25 -8.7 5.35 -9.0 M5.7 -9.55 L5.7 -9.6 5.4 -9.35 5.5 -9.45 5.5 -9.4 5.55 -9.4 5.7 -9.55 M7.8 7.2 L9.7 6.4 Q10.25 5.4 10.25 2.45 L10.0 0.2 10.0 0.1 Q9.8 -0.45 9.8 -0.85 9.8 -1.2 10.15 -2.25 L10.2 -2.5 10.15 -2.65 10.4 -3.05 10.4 -3.1 10.5 -3.3 Q10.95 -4.0 11.15 -4.9 11.3 -5.45 11.4 -6.25 L11.5 -6.3 11.55 -5.8 11.55 -5.85 11.5 -6.2 Q11.5 -6.45 11.55 -6.6 L11.6 -6.7 11.65 -6.95 11.35 -6.7 Q11.05 -6.5 10.65 -6.2 L10.75 -6.05 Q10.9 -5.85 10.9 -5.45 L10.9 -5.4 Q10.9 -4.4 10.5 -4.2 L10.35 -4.25 10.2 -4.25 9.85 -4.35 9.25 -3.9 Q9.2 -3.8 9.2 -3.45 L9.2 -3.15 9.3 -2.2 9.5 -0.35 9.75 1.25 9.95 2.8 9.95 3.4 Q9.85 3.95 9.7 4.45 9.2 5.85 7.9 6.7 L7.8 6.75 7.75 6.8 7.35 7.05 7.1 7.2 7.8 7.2 M8.7 -1.1 L8.65 -1.35 8.65 -1.1 Q8.5 -0.25 8.5 -0.1 8.8 1.6 8.6 3.2 8.15 6.4 5.4 6.4 4.15 6.4 3.3 5.4 3.05 5.1 2.9 4.8 2.75 4.55 2.65 4.25 2.45 3.9 2.4 3.55 2.25 3.85 2.25 4.0 2.25 5.1 3.0 6.2 3.85 7.45 4.9 7.45 5.55 7.45 7.05 6.35 8.45 5.4 9.05 4.65 L9.15 4.5 9.2 4.4 9.2 4.25 9.35 3.05 9.35 2.75 Q9.35 2.45 8.9 -0.1 L8.7 -1.1 M11.25 -2.8 Q11.1 -2.75 10.85 -2.6 L10.65 -1.0 Q10.85 -1.2 11.15 -1.35 L12.25 -1.25 13.1 -1.95 13.25 -2.35 13.25 -2.7 Q12.9 -2.0 12.25 -2.0 11.95 -2.0 11.75 -2.3 11.45 -2.65 11.25 -2.8 M12.05 -8.65 L11.85 -8.75 11.85 -8.1 11.9 -8.4 Q11.9 -8.5 12.05 -8.65 M12.0 -7.2 L12.1 -7.4 Q12.1 -7.5 12.0 -7.5 L11.9 -7.3 12.0 -7.2" fill="#111111" fill-rule="evenodd" stroke="none"/>
    <path d="M7.35 7.05 L7.3 7.05 Q7.5 7.15 7.75 7.2 L7.8 7.2 7.1 7.2 7.35 7.05 M9.2 4.4 L9.15 4.5 9.05 4.65 9.2 4.4 M2.0 3.0 Q1.9 3.15 1.85 3.35 L1.85 3.4 1.8 3.25 1.85 2.9 2.0 3.0" fill="#666666" fill-rule="evenodd" stroke="none"/>
    <path d="M4.05 -0.6 L3.7 -0.55 4.05 -0.6 M3.2 3.35 L3.1 3.3 3.2 3.3 3.2 3.35" fill="#333333" fill-rule="evenodd" stroke="none"/>
    <path d="M6.0 -8.9 Q6.1 -9.1 6.25 -9.4 6.0 -9.6 5.85 -9.55 L5.85 -9.7 Q6.05 -9.8 6.35 -9.9 L6.55 -9.95 6.4 -9.65 Q6.3 -9.5 6.3 -9.25 L6.2 -9.15 6.3 -9.0 6.3 -8.75 Q6.15 -8.8 6.0 -8.9 M6.55 -8.25 Q6.65 -8.15 6.85 -8.1 7.05 -7.9 7.95 -7.9 8.35 -7.9 8.35 -7.55 8.4 -7.0 8.65 -6.8 8.75 -6.7 8.85 -6.65 9.05 -6.2 9.65 -6.2 L9.7 -6.15 9.8 -6.15 9.95 -6.05 10.2 -6.05 10.1 -6.05 10.1 -5.75 9.95 -5.55 8.75 -5.4 Q8.4 -5.4 7.65 -6.2 6.9 -6.95 6.75 -7.45 L6.55 -8.25 M1.85 -7.55 Q1.9 -8.1 2.2 -9.25 2.2 -9.45 2.1 -9.6 L2.2 -10.1 2.3 -10.1 Q2.35 -9.7 2.35 -8.95 L2.3 -8.65 2.35 -8.3 2.35 -6.9 Q2.4 -4.75 3.3 -4.1 L3.6 -4.1 3.65 -4.2 3.65 -4.25 3.75 -4.25 Q4.15 -4.2 4.25 -4.1 4.5 -3.95 4.5 -3.4 4.5 -2.95 4.7 -2.8 4.9 -2.65 5.3 -2.65 L5.55 -2.7 5.7 -2.8 Q6.25 -3.3 6.4 -3.9 L6.45 -3.95 6.75 -3.7 Q7.65 -2.8 7.65 -1.4 L7.75 0.7 7.9 2.85 Q7.9 3.5 7.65 4.1 L7.55 4.4 7.45 4.5 Q6.95 5.0 5.95 5.6 L5.25 5.6 4.65 5.65 4.6 5.65 Q4.1 5.45 3.6 4.9 2.9 4.1 2.9 3.45 L3.0 3.35 3.1 3.3 3.2 3.35 4.15 3.9 Q5.05 4.4 5.5 4.4 6.05 4.4 6.35 4.25 L6.8 4.15 7.0 3.95 Q7.15 3.55 7.2 3.1 L7.2 3.3 7.3 3.15 7.4 2.85 Q7.4 2.35 6.9 1.8 6.55 1.4 5.85 0.9 5.15 0.3 4.45 0.1 3.4 -0.2 2.15 0.25 L2.2 -0.05 2.25 0.0 Q2.35 0.05 2.45 0.1 L3.1 -0.3 Q3.45 -0.45 3.7 -0.55 L4.05 -0.6 Q5.1 -0.6 5.8 -0.15 6.5 0.2 6.8 0.9 L6.9 0.9 6.95 0.85 6.95 0.45 7.05 0.5 Q7.15 0.5 7.25 0.4 7.35 0.3 7.35 0.15 7.35 -0.25 6.5 -0.9 5.55 -1.55 4.6 -1.55 L3.45 -1.45 Q3.4 -1.45 3.15 -1.8 L3.3 -2.15 3.5 -2.25 3.8 -2.25 4.5 -2.05 Q5.15 -1.85 5.45 -1.85 5.7 -1.85 5.7 -1.95 L5.85 -1.75 Q6.05 -1.75 6.05 -1.85 L5.9 -2.05 Q5.8 -2.2 5.7 -2.2 5.05 -2.2 4.05 -2.8 3.7 -3.0 3.0 -3.5 2.2 -4.05 2.15 -4.45 L2.0 -5.0 Q1.9 -5.35 1.9 -5.55 L1.85 -6.2 1.9 -7.05 1.85 -7.55 M1.15 -5.45 L1.25 -5.1 1.5 -4.1 Q1.6 -3.7 1.8 -3.3 L1.35 -2.9 Q1.2 -3.1 1.1 -3.65 1.05 -4.1 1.05 -4.4 L1.15 -5.45 M11.35 -6.7 L11.3 -6.45 Q11.25 -6.25 11.05 -5.8 L10.9 -5.45 Q10.9 -5.85 10.75 -6.05 L10.65 -6.2 Q11.05 -6.5 11.35 -6.7 M10.35 -4.25 L10.2 -3.9 9.55 -2.7 9.45 -2.95 9.3 -3.2 9.2 -3.15 9.2 -3.45 Q9.2 -3.8 9.25 -3.9 L9.85 -4.35 10.2 -4.25 10.35 -4.25 M9.95 3.4 L10.1 4.3 10.05 4.7 Q10.0 5.1 9.9 5.5 9.4 6.6 8.1 6.6 L8.05 6.6 7.9 6.7 Q9.2 5.85 9.7 4.45 9.85 3.95 9.95 3.4 M2.9 4.8 Q3.05 5.1 3.3 5.4 4.15 6.4 5.4 6.4 8.15 6.4 8.6 3.2 8.8 1.6 8.5 -0.1 8.5 -0.25 8.65 -1.1 L8.65 -1.35 8.7 -1.1 8.75 -0.4 8.85 0.6 8.95 2.1 Q8.95 2.35 8.75 3.3 8.55 4.3 8.45 4.45 L8.1 4.9 Q7.6 5.75 6.85 6.1 5.75 7.0 5.15 7.0 4.2 7.0 3.6 6.3 3.3 6.0 3.05 5.4 L2.9 4.8 M11.25 -2.8 Q11.45 -2.65 11.75 -2.3 11.95 -2.0 12.25 -2.0 12.9 -2.0 13.25 -2.7 L13.25 -2.35 13.1 -1.95 12.25 -1.25 11.15 -1.35 Q10.85 -1.2 10.65 -1.0 L10.85 -2.6 Q11.1 -2.75 11.25 -2.8 M2.8 0.85 Q2.65 0.95 2.6 1.1 L2.6 1.15 2.7 1.1 2.7 1.2 3.7 1.3 4.05 1.5 Q4.65 1.85 4.85 2.0 L5.75 2.35 Q6.25 2.5 6.4 2.75 L6.4 2.95 Q5.25 2.95 4.35 2.6 3.2 2.15 2.1 2.0 2.2 1.7 2.45 1.3 L2.6 0.95 2.7 0.95 Q2.75 0.9 2.8 0.85 M2.75 6.5 L2.8 6.55 Q3.35 7.35 3.85 7.75 L3.4 7.95 Q3.05 8.1 2.8 7.65 2.55 7.35 2.55 7.15 2.55 7.05 2.65 6.8 L2.75 6.5" fill="#666342" fill-rule="evenodd" stroke="none"/>
    <path d="M6.3 -8.75 Q6.35 -8.5 6.5 -8.3 L6.55 -8.25 6.75 -7.45 Q6.9 -6.95 7.65 -6.2 8.4 -5.4 8.75 -5.4 L9.95 -5.55 10.1 -5.75 10.1 -6.05 10.2 -6.05 10.25 -6.05 10.3 -5.85 10.45 -5.3 Q10.4 -5.2 10.15 -5.05 L9.8 -5.0 9.4 -4.95 9.2 -4.9 9.25 -4.9 Q8.9 -4.65 8.65 -3.8 8.45 -3.3 8.45 -3.0 L8.3 -3.25 8.1 -3.5 7.15 -5.05 Q6.1 -6.75 5.85 -8.1 L5.9 -8.55 Q5.9 -8.7 6.0 -8.9 6.15 -8.8 6.3 -8.75 M2.1 -9.6 Q2.2 -9.45 2.2 -9.25 1.9 -8.1 1.85 -7.55 L1.8 -7.65 Q1.75 -8.1 1.75 -8.35 L1.65 -8.35 Q1.55 -7.75 1.5 -6.7 L1.45 -5.45 Q1.45 -5.05 1.6 -4.4 1.9 -3.45 2.3 -3.3 1.7 -4.95 1.75 -5.25 L1.8 -5.8 1.85 -6.2 1.9 -5.55 Q1.9 -5.35 2.0 -5.0 L2.15 -4.45 Q2.2 -4.05 3.0 -3.5 3.7 -3.0 4.05 -2.8 5.05 -2.2 5.7 -2.2 5.8 -2.2 5.9 -2.05 L6.05 -1.85 Q6.05 -1.75 5.85 -1.75 L5.7 -1.95 Q5.7 -1.85 5.45 -1.85 5.15 -1.85 4.5 -2.05 L3.8 -2.25 3.5 -2.25 3.3 -2.15 3.15 -1.8 Q3.4 -1.45 3.45 -1.45 L4.6 -1.55 Q5.55 -1.55 6.5 -0.9 7.35 -0.25 7.35 0.15 7.35 0.3 7.25 0.4 7.15 0.5 7.05 0.5 L6.95 0.45 Q6.9 -0.4 5.9 -0.85 5.1 -1.2 4.0 -1.2 3.65 -1.2 3.0 -0.85 2.5 -0.6 2.3 -0.4 L2.8 -2.4 2.7 -2.45 2.7 -2.65 Q2.7 -2.75 2.4 -3.05 L2.1 -3.4 1.85 -3.35 1.85 -3.3 1.8 -3.3 Q1.6 -3.7 1.5 -4.1 L1.25 -5.1 1.15 -5.45 1.15 -5.55 1.3 -6.7 Q1.3 -6.85 1.4 -7.55 1.5 -8.25 1.45 -8.55 1.95 -9.05 2.05 -9.45 L2.1 -9.6 M2.15 0.25 Q3.4 -0.2 4.45 0.1 5.15 0.3 5.85 0.9 6.55 1.4 6.9 1.8 7.4 2.35 7.4 2.85 L7.3 3.15 7.2 3.3 7.2 3.1 7.2 2.95 Q7.2 2.75 7.0 2.45 6.9 2.1 6.4 1.9 L6.15 1.75 5.85 1.6 5.8 1.55 5.7 1.5 Q5.45 1.35 5.1 1.2 4.25 0.8 3.55 0.75 L2.8 0.85 Q2.75 0.9 2.7 0.95 L2.6 0.95 2.45 1.3 Q2.2 1.7 2.1 2.0 3.2 2.15 4.35 2.6 5.25 2.95 6.4 2.95 L6.35 3.15 6.3 3.3 6.25 3.3 6.25 3.35 Q6.1 3.45 5.55 3.45 5.5 3.45 4.5 3.0 3.45 2.55 3.2 2.55 2.85 2.55 2.6 2.7 L2.55 2.75 2.4 2.75 Q2.15 2.75 2.0 3.0 L1.85 2.9 1.8 3.25 1.85 3.4 Q1.8 3.65 1.8 4.05 L1.8 4.35 2.65 6.35 2.75 6.5 2.65 6.8 Q2.55 7.05 2.55 7.15 2.55 7.35 2.8 7.65 3.05 8.1 3.4 7.95 L3.85 7.75 Q4.1 7.9 4.3 8.0 L2.8 8.55 2.55 8.5 2.2 8.4 Q2.4 7.45 2.0 5.9 1.55 4.15 1.55 3.5 L1.6 3.3 1.6 3.0 1.65 2.85 1.65 2.75 2.15 0.25 M7.55 4.4 L7.65 4.1 Q7.9 3.5 7.9 2.85 L7.75 0.7 7.65 -1.4 Q7.65 -2.8 6.75 -3.7 L6.45 -3.95 Q6.55 -4.3 6.55 -4.7 L6.75 -4.5 7.75 -3.05 Q8.0 -2.75 8.1 -2.45 L8.1 -1.8 8.05 -0.95 8.05 -0.65 Q7.95 0.1 7.95 0.5 L8.05 2.55 Q8.05 3.35 7.85 4.0 L7.8 4.1 7.65 4.25 7.55 4.4 M11.35 -6.7 L11.65 -6.95 11.6 -6.7 11.55 -6.6 Q11.5 -6.45 11.5 -6.2 L11.55 -5.85 11.55 -5.8 11.5 -6.3 11.4 -6.25 Q11.3 -5.45 11.15 -4.9 10.95 -4.0 10.5 -3.3 L10.4 -3.1 10.4 -3.05 10.15 -2.65 10.2 -2.5 10.15 -2.25 Q9.8 -1.2 9.8 -0.85 9.8 -0.45 10.0 0.1 L10.0 0.2 10.25 2.45 Q10.25 5.4 9.7 6.4 L7.8 7.2 7.75 7.2 Q7.5 7.15 7.3 7.05 L7.35 7.05 7.75 6.8 7.8 6.75 7.9 6.7 8.05 6.6 8.1 6.6 Q9.4 6.6 9.9 5.5 10.0 5.1 10.05 4.7 L10.1 4.3 9.95 3.4 9.95 2.8 9.75 1.25 9.5 -0.35 9.3 -2.2 9.2 -3.15 9.3 -3.2 9.45 -2.95 9.55 -2.7 10.2 -3.9 10.35 -4.25 10.5 -4.2 Q10.9 -4.4 10.9 -5.4 L10.9 -5.45 11.05 -5.8 Q11.25 -6.25 11.3 -6.45 L11.35 -6.7 M8.7 -1.1 L8.9 -0.1 Q9.35 2.45 9.35 2.75 L9.35 3.05 9.2 4.25 9.2 4.4 9.05 4.65 Q8.45 5.4 7.05 6.35 5.55 7.45 4.9 7.45 3.85 7.45 3.0 6.2 2.25 5.1 2.25 4.0 2.25 3.85 2.4 3.55 2.45 3.9 2.65 4.25 2.75 4.55 2.9 4.8 L3.05 5.4 Q3.3 6.0 3.6 6.3 4.2 7.0 5.15 7.0 5.75 7.0 6.85 6.1 7.6 5.75 8.1 4.9 L8.45 4.45 Q8.55 4.3 8.75 3.3 8.95 2.35 8.95 2.1 L8.85 0.6 8.75 -0.4 8.7 -1.1" fill="#333121" fill-rule="evenodd" stroke="none"/>
  </g>
</svg>
