<?xml version="1.0" encoding="UTF-8" standalone="no"?>
<svg xmlns:ffdec="https://www.free-decompiler.com/flash" xmlns:xlink="http://www.w3.org/1999/xlink" ffdec:objectType="shape" height="23.8px" width="18.0px" xmlns="http://www.w3.org/2000/svg">
  <g transform="matrix(1.0, 0.0, 0.0, 1.0, 2.95, 3.45)">
    <path d="M2.45 -0.05 L2.75 -0.75 Q2.55 -0.55 2.35 -0.1 2.2 0.3 2.15 0.6 L2.45 -0.05 M5.2 -2.8 L4.95 -2.55 5.0 -2.5 4.9 -2.6 4.7 -2.65 4.65 -2.65 5.15 -2.8 5.2 -2.8 M4.9 -2.5 Q4.5 -2.1 4.1 -1.55 3.45 -0.7 3.1 0.2 L3.3 -0.05 3.3 0.0 Q3.95 -0.65 4.5 -1.4 4.9 -1.95 5.15 -2.5 L5.4 -2.8 6.45 -2.7 6.35 -2.7 Q6.2 -2.7 5.75 -2.45 L5.8 -2.4 5.8 -2.35 6.1 -2.4 6.3 -2.45 7.0 -2.35 Q7.2 -2.35 7.25 -2.45 L6.85 -2.6 6.55 -2.7 Q8.15 -2.45 9.35 -1.65 8.95 -1.75 8.65 -1.75 L7.95 -1.85 6.95 -1.95 Q5.8 -1.95 4.8 -1.1 4.15 -0.6 3.7 0.15 L2.9 1.45 Q2.1 2.7 1.8 2.7 1.5 2.7 1.4 2.55 L1.4 2.25 Q1.6 1.05 2.15 -0.15 2.65 -1.15 3.2 -1.75 3.65 -2.05 3.95 -2.2 L3.95 -2.3 Q4.35 -2.5 4.75 -2.5 L4.9 -2.5 M3.85 8.05 L3.85 8.15 3.8 8.05 3.85 8.05 M3.75 -1.95 Q3.55 -1.95 3.4 -1.8 3.2 -1.65 3.2 -1.45 3.2 -1.35 3.25 -1.3 L3.3 -1.3 Q3.5 -1.3 3.7 -1.55 3.9 -1.85 3.95 -1.9 L3.75 -1.95 M11.55 1.85 L11.55 2.25 11.15 2.9 10.35 4.4 Q9.9 5.25 8.7 6.25 7.15 7.4 5.9 7.4 L4.9 7.05 4.9 7.1 Q4.6 6.2 4.6 5.7 4.75 4.4 5.55 3.2 6.0 2.5 6.6 2.0 7.3 1.45 8.25 1.05 9.0 0.75 9.9 0.65 10.45 0.85 11.0 1.4 11.3 1.65 11.55 1.85 M5.5 8.75 L5.55 8.75 5.55 8.8 5.5 8.75 M9.25 11.35 L9.45 11.15 9.5 11.15 9.3 11.35 9.25 11.35 M10.65 1.55 Q10.65 1.5 10.4 1.35 10.1 1.2 9.85 1.1 9.0 0.75 9.0 1.3 L9.25 1.55 Q9.45 1.55 9.6 1.45 L9.8 1.35 Q9.9 1.35 10.15 1.5 10.45 1.65 10.55 1.65 L10.65 1.65 10.65 1.55 M9.55 2.35 L9.55 2.25 Q9.55 1.95 9.1 1.85 8.65 1.75 8.65 2.1 8.65 2.25 8.75 2.4 L8.9 2.55 Q8.7 2.5 8.6 2.35 L8.45 2.05 Q8.45 2.0 8.45 2.1 8.45 2.75 9.15 2.75 9.45 2.75 9.6 2.65 9.65 2.55 9.75 2.3 L9.55 2.35 M7.25 4.75 L7.45 4.45 Q7.45 4.35 7.75 3.65 8.05 2.9 8.05 2.8 L8.05 2.7 8.0 2.7 7.9 2.8 8.05 2.45 Q7.8 2.65 7.4 3.25 7.0 3.9 7.0 4.3 L7.05 4.55 Q7.1 4.8 7.2 4.85 L7.25 4.75 M7.85 1.7 L7.7 1.7 Q6.55 2.25 5.85 3.4 5.3 4.4 5.3 5.2 5.3 5.3 5.35 5.45 L5.35 5.4 Q5.55 4.15 6.3 3.15 6.65 2.7 7.0 2.35 7.0 2.3 7.3 2.1 7.65 1.9 7.85 1.7 M6.0 7.85 Q6.85 8.0 8.55 6.85 10.2 5.7 10.95 4.45 10.75 4.8 10.4 5.15 10.8 4.7 11.1 4.2 L11.0 4.55 Q10.8 5.1 10.6 5.4 10.3 5.9 9.75 6.3 9.05 6.8 8.25 7.3 7.0 8.05 6.55 8.05 6.1 8.05 5.65 7.8 L6.0 7.85 M0.6 3.2 L0.7 3.35 0.6 3.5 0.6 3.2" fill="#4c9999" fill-rule="evenodd" stroke="none"/>
    <path d="M2.45 -0.05 L2.15 0.6 Q2.2 0.3 2.35 -0.1 2.55 -0.55 2.75 -0.75 L2.45 -0.05 M3.3 -0.05 L3.25 -0.1 Q3.25 -0.2 3.95 -1.1 4.6 -1.95 5.2 -2.65 L5.15 -2.5 Q4.9 -1.95 4.5 -1.4 3.95 -0.65 3.3 0.0 L3.3 -0.05 M6.45 -2.7 L6.55 -2.7 6.85 -2.6 7.25 -2.45 Q7.2 -2.35 7.0 -2.35 L6.3 -2.45 6.1 -2.4 5.8 -2.35 5.8 -2.4 5.75 -2.45 Q6.2 -2.7 6.35 -2.7 L6.45 -2.7 M3.75 -1.95 L3.95 -1.9 Q3.9 -1.85 3.7 -1.55 3.5 -1.3 3.3 -1.3 L3.25 -1.3 Q3.2 -1.35 3.2 -1.45 3.2 -1.65 3.4 -1.8 3.55 -1.95 3.75 -1.95 M10.65 1.55 L10.65 1.65 10.55 1.65 Q10.45 1.65 10.15 1.5 9.9 1.35 9.8 1.35 L9.6 1.45 Q9.45 1.55 9.25 1.55 L9.0 1.3 Q9.0 0.75 9.85 1.1 10.1 1.2 10.4 1.35 10.65 1.5 10.65 1.55 M9.55 2.35 L9.75 2.3 Q9.65 2.55 9.6 2.65 9.45 2.75 9.15 2.75 8.45 2.75 8.45 2.1 8.45 2.0 8.45 2.05 L8.6 2.35 Q8.7 2.5 8.9 2.55 L8.95 2.55 Q9.2 2.55 9.35 2.45 L9.55 2.35 M7.85 1.7 Q7.65 1.9 7.3 2.1 7.0 2.3 7.0 2.35 6.65 2.7 6.3 3.15 5.55 4.15 5.35 5.4 L5.35 5.45 Q5.3 5.3 5.3 5.2 5.3 4.4 5.85 3.4 6.55 2.25 7.7 1.7 L7.85 1.7 M7.9 2.8 L8.0 2.7 8.05 2.7 8.05 2.8 Q8.05 2.9 7.75 3.65 7.45 4.35 7.45 4.45 L7.25 4.75 7.2 4.75 Q7.15 4.85 7.15 4.7 7.15 4.35 7.5 3.6 7.75 2.95 7.9 2.8 M10.4 5.15 Q10.75 4.8 10.95 4.45 10.2 5.7 8.55 6.85 6.85 8.0 6.0 7.85 L5.9 7.85 Q8.05 7.0 9.45 5.95 10.05 5.55 10.4 5.15" fill="#65cccc" fill-rule="evenodd" stroke="none"/>
    <path d="M2.3 -2.3 Q3.0 -3.05 4.35 -3.25 5.05 -3.45 6.1 -3.45 9.5 -3.45 11.35 -0.3 L11.7 0.4 Q12.25 1.4 12.6 2.6 12.9 3.85 12.9 4.95 12.9 6.7 12.1 8.5 11.9 9.05 11.6 9.5 10.6 11.8 9.3 11.8 L9.25 11.8 9.05 11.9 Q8.9 12.2 8.65 12.6 8.4 12.9 8.4 13.3 8.4 14.7 11.35 17.05 L13.5 18.7 Q14.25 19.3 14.6 19.6 L14.75 19.7 14.7 19.75 15.0 19.9 15.05 19.95 15.05 20.0 Q15.0 20.05 14.85 20.05 L14.7 20.05 Q14.65 20.15 14.5 20.15 L14.15 20.1 Q13.65 20.3 12.5 20.35 10.2 20.35 7.35 19.05 4.85 17.9 2.35 16.0 0.05 14.15 -1.45 12.3 -2.95 10.4 -2.95 9.2 -2.95 9.05 -2.9 9.05 L-2.8 9.05 -2.7 9.25 Q-2.45 8.0 -0.4 4.95 L-0.75 4.1 Q-0.8 3.9 -0.8 3.25 -0.8 2.75 -0.55 1.9 -0.2 0.95 0.3 0.1 1.0 -1.0 1.85 -1.6 2.0 -2.0 2.3 -2.3 M5.4 -2.8 L5.2 -2.8 5.15 -2.8 4.65 -2.65 4.7 -2.65 4.9 -2.6 5.0 -2.5 4.9 -2.45 4.9 -2.5 4.75 -2.5 Q4.35 -2.5 3.95 -2.3 L3.95 -2.2 Q3.65 -2.05 3.2 -1.75 2.65 -1.15 2.15 -0.15 1.6 1.05 1.4 2.25 L1.4 2.55 Q1.5 5.35 3.4 7.6 L3.4 7.65 3.8 8.05 3.85 8.15 3.85 8.05 3.75 7.85 3.7 7.85 3.5 7.4 3.4 7.25 Q2.5 5.95 2.5 4.25 L2.55 3.9 2.55 3.55 Q2.55 3.45 2.6 3.0 L2.7 2.45 Q2.7 2.2 3.05 1.6 3.3 1.25 3.55 0.9 5.05 -1.55 8.2 -1.55 8.4 -1.55 8.95 -1.35 9.6 -1.25 10.05 -0.95 10.1 -0.95 10.15 -0.9 L9.65 -1.45 9.35 -1.65 Q8.15 -2.45 6.55 -2.7 L6.45 -2.7 5.4 -2.8 M9.05 -1.0 L9.05 -1.0 M4.35 7.65 Q4.1 6.9 4.1 6.3 4.15 5.8 4.25 5.3 4.25 3.95 4.95 2.95 5.65 1.95 7.5 0.55 L9.65 -0.05 Q10.15 -0.05 10.55 0.1 L10.5 0.05 10.3 -0.05 10.25 -0.1 Q9.35 -0.55 7.9 -0.55 4.95 -0.55 3.75 2.0 3.4 2.7 3.25 3.45 L3.2 3.55 Q3.1 4.0 3.1 4.45 L3.1 4.65 Q3.25 5.55 3.7 6.5 4.0 7.1 4.3 7.6 L4.35 7.65 M9.5 11.15 Q10.9 9.9 11.65 8.15 L11.75 7.8 Q11.95 7.3 11.95 6.85 L12.1 5.95 Q12.25 5.1 12.25 4.7 12.25 3.65 11.9 2.45 L11.75 1.95 11.55 1.85 Q11.3 1.65 11.0 1.4 10.45 0.85 9.9 0.65 9.0 0.75 8.25 1.05 7.3 1.45 6.6 2.0 6.0 2.5 5.55 3.2 4.75 4.4 4.6 5.7 4.6 6.2 4.9 7.1 L4.9 7.15 4.95 7.2 5.0 7.4 5.4 8.6 Q4.85 7.7 4.65 7.15 4.85 7.95 5.5 8.75 L5.55 8.8 5.6 8.85 5.8 8.95 5.7 8.95 5.75 9.05 Q6.5 9.85 7.7 10.65 L7.75 10.7 7.8 10.7 7.9 10.8 Q8.55 11.1 9.25 11.35 L9.3 11.35 9.5 11.15 M0.15 1.65 Q-0.2 2.3 -0.3 3.35 -0.3 4.05 -0.2 4.65 L0.35 3.8 Q0.3 3.65 0.25 3.4 L0.15 2.9 Q0.15 2.75 0.25 2.25 L0.35 1.6 Q0.35 1.45 0.4 1.3 L0.15 1.65 M0.7 3.35 L0.9 3.05 0.9 2.85 Q0.9 1.8 1.2 0.65 0.85 1.3 0.85 1.5 L0.75 1.95 Q0.65 2.25 0.65 2.35 L0.6 3.05 0.6 3.2 0.6 3.5 0.7 3.35 M0.95 3.6 L0.95 3.5 0.85 3.7 0.95 3.6 0.9 3.75 0.6 4.25 -0.15 5.55 -1.8 8.35 Q-2.2 9.3 -2.25 10.05 L-2.25 10.15 Q0.0 13.85 4.95 16.8 7.2 18.15 9.4 18.9 11.15 19.55 12.35 19.65 L12.5 19.6 Q10.5 19.0 8.4 16.95 L7.8 16.3 7.6 16.15 Q6.95 15.55 6.45 14.8 5.6 13.55 5.6 12.45 5.6 11.9 5.8 11.55 L5.85 11.5 Q6.05 11.25 6.4 11.05 4.6 10.15 3.1 8.15 2.1 6.75 1.45 5.15 1.2 4.55 1.05 4.0 L0.95 3.6 M8.0 12.25 L8.0 12.2 8.05 12.2 Q8.05 12.05 8.35 11.75 L8.4 11.7 Q7.65 11.6 6.95 11.3 L6.25 11.85 6.2 11.9 Q6.05 12.1 6.05 12.35 6.05 12.85 6.2 13.35 6.55 14.55 7.65 15.65 8.1 16.05 8.6 16.45 9.6 17.25 11.45 18.2 L10.05 16.95 Q9.15 16.1 8.55 15.2 L8.5 15.1 7.85 13.65 Q7.8 13.35 7.8 13.1 7.8 12.55 8.0 12.25 M8.9 11.8 L8.9 11.75 8.85 11.85 8.95 11.8 8.9 11.8" fill="#111111" fill-rule="evenodd" stroke="none"/>
    <path d="M5.2 -2.8 L5.4 -2.8 5.15 -2.5 5.2 -2.65 Q4.6 -1.95 3.95 -1.1 3.25 -0.2 3.25 -0.1 L3.3 -0.05 3.1 0.2 Q3.45 -0.7 4.1 -1.55 4.5 -2.1 4.9 -2.5 L4.9 -2.45 5.0 -2.5 4.95 -2.55 5.2 -2.8 M9.35 -1.65 L9.65 -1.45 10.15 -0.9 Q10.1 -0.95 10.05 -0.95 9.6 -1.25 8.95 -1.35 8.4 -1.55 8.2 -1.55 5.05 -1.55 3.55 0.9 3.3 1.25 3.05 1.6 2.7 2.2 2.7 2.45 L2.6 3.0 Q2.55 3.45 2.55 3.55 L2.55 3.9 2.5 4.25 Q2.5 5.95 3.4 7.25 L3.5 7.4 3.7 7.85 3.75 7.85 3.85 8.05 3.8 8.05 3.4 7.65 3.4 7.6 Q1.5 5.35 1.4 2.55 1.5 2.7 1.8 2.7 2.1 2.7 2.9 1.45 L3.7 0.15 Q4.15 -0.6 4.8 -1.1 5.8 -1.95 6.95 -1.95 L7.95 -1.85 8.65 -1.75 Q8.95 -1.75 9.35 -1.65 M11.55 1.85 L11.75 1.95 11.9 2.45 Q12.25 3.65 12.25 4.7 12.25 5.1 12.1 5.95 L11.95 6.85 Q11.95 7.3 11.75 7.8 L11.65 8.15 Q10.9 9.9 9.5 11.15 L9.45 11.15 9.25 11.35 Q8.55 11.1 7.9 10.8 L7.8 10.7 7.75 10.7 7.7 10.65 Q6.5 9.85 5.75 9.05 L5.7 8.95 5.8 8.95 5.6 8.85 5.55 8.8 5.55 8.75 5.5 8.75 Q4.85 7.95 4.65 7.15 4.85 7.7 5.4 8.6 L5.0 7.4 4.95 7.2 4.9 7.15 4.9 7.1 4.9 7.05 5.9 7.4 Q7.15 7.4 8.7 6.25 9.9 5.25 10.35 4.4 L11.15 2.9 11.55 2.25 11.55 1.85 M8.9 2.55 L8.75 2.4 Q8.65 2.25 8.65 2.1 8.65 1.75 9.1 1.85 9.55 1.95 9.55 2.25 L9.55 2.35 9.35 2.45 Q9.2 2.55 8.95 2.55 L8.9 2.55 M7.25 4.75 L7.2 4.85 Q7.1 4.8 7.05 4.55 L7.0 4.3 Q7.0 3.9 7.4 3.25 7.8 2.65 8.05 2.45 L7.9 2.8 Q7.75 2.95 7.5 3.6 7.15 4.35 7.15 4.7 7.15 4.85 7.2 4.75 L7.25 4.75 M6.0 7.85 L5.65 7.8 Q6.1 8.05 6.55 8.05 7.0 8.05 8.25 7.3 9.05 6.8 9.75 6.3 10.3 5.9 10.6 5.4 10.8 5.1 11.0 4.55 L11.1 4.2 Q10.8 4.7 10.4 5.15 10.05 5.55 9.45 5.95 8.05 7.0 5.9 7.85 L6.0 7.85 M0.6 3.2 L0.6 3.05 0.65 2.35 Q0.65 2.25 0.75 1.95 L0.85 1.5 Q0.85 1.3 1.2 0.65 0.9 1.8 0.9 2.85 L0.9 3.05 0.7 3.35 0.6 3.2 M0.15 1.65 L0.4 1.3 Q0.35 1.45 0.35 1.6 L0.25 2.25 Q0.15 2.75 0.15 2.9 L0.25 3.4 Q0.3 3.65 0.35 3.8 L-0.2 4.65 Q-0.3 4.05 -0.3 3.35 -0.2 2.3 0.15 1.65" fill="#397373" fill-rule="evenodd" stroke="none"/>
    <path d="M8.45 -0.5 Q9.2 -0.45 9.8 -0.15 L9.3 -0.15 Q8.4 -0.15 7.75 0.05 7.2 0.25 6.5 0.8 4.95 2.15 3.35 3.35 L3.5 2.8 Q3.5 2.65 3.85 2.1 L4.35 1.35 Q5.1 0.4 6.3 -0.05 L6.85 -0.2 Q5.7 0.25 5.3 0.5 4.9 0.75 4.6 1.2 L4.7 1.25 Q5.0 0.9 5.6 0.6 L7.15 -0.1 7.8 -0.3 7.85 -0.25 Q8.35 -0.4 8.4 -0.45 L8.45 -0.5 M7.85 -0.45 L7.9 -0.45 8.15 -0.5 7.85 -0.45 M4.35 7.65 L4.3 7.6 4.35 7.65 M3.1 4.45 Q3.1 4.0 3.2 3.55 L3.5 3.4 3.35 3.55 3.35 3.6 Q3.55 3.5 4.25 3.1 L4.45 2.95 4.5 2.95 3.6 3.9 3.1 4.45" fill="#9a9560" fill-rule="evenodd" stroke="none"/>
    <path d="M6.85 -0.2 L6.3 -0.05 Q5.1 0.4 4.35 1.35 L3.85 2.1 Q3.5 2.65 3.5 2.8 L3.35 3.35 Q4.95 2.15 6.5 0.8 7.2 0.25 7.75 0.05 8.4 -0.15 9.3 -0.15 L9.8 -0.15 Q9.2 -0.45 8.45 -0.5 L8.15 -0.5 7.9 -0.45 7.85 -0.45 6.85 -0.2 M3.2 3.55 L3.25 3.45 Q3.4 2.7 3.75 2.0 4.95 -0.55 7.9 -0.55 9.35 -0.55 10.25 -0.1 L10.3 -0.05 10.5 0.05 10.55 0.1 Q10.15 -0.05 9.65 -0.05 L7.5 0.55 Q5.65 1.95 4.95 2.95 4.25 3.95 4.25 5.3 4.15 5.8 4.1 6.3 4.1 6.9 4.35 7.65 L4.3 7.6 Q4.0 7.1 3.7 6.5 3.25 5.55 3.1 4.65 L3.1 4.45 3.6 3.9 4.5 2.95 4.65 2.75 4.65 2.7 3.5 3.4 3.2 3.55" fill="#59542f" fill-rule="evenodd" stroke="none"/>
    <path d="M8.45 -0.5 L8.4 -0.45 Q8.35 -0.4 7.85 -0.25 L7.8 -0.3 7.15 -0.1 5.6 0.6 Q5.0 0.9 4.7 1.25 L4.6 1.2 Q4.9 0.75 5.3 0.5 5.7 0.25 6.85 -0.2 L7.85 -0.45 8.15 -0.5 8.45 -0.5 M3.5 3.4 L4.65 2.7 4.65 2.75 4.5 2.95 4.45 2.95 4.25 3.1 Q3.55 3.5 3.35 3.6 L3.35 3.55 3.5 3.4" fill="#d5d3b1" fill-rule="evenodd" stroke="none"/>
    <path d="M0.9 3.75 L0.95 3.6 1.05 4.0 0.9 3.75 M7.8 16.3 L8.4 16.95 Q10.5 19.0 12.5 19.6 L12.35 19.65 Q11.15 19.55 9.4 18.9 7.2 18.15 4.95 16.8 0.0 13.85 -2.25 10.15 L-2.25 10.05 Q-2.2 9.3 -1.8 8.35 L-0.15 5.55 0.6 4.25 0.7 4.5 0.65 4.5 Q0.3 4.8 -0.1 5.65 -0.5 6.55 -0.55 7.1 L-0.45 7.1 0.05 6.15 Q0.1 6.75 0.9 8.85 1.7 10.75 2.2 11.4 L2.35 11.55 2.35 11.25 2.4 11.25 Q2.4 11.2 2.4 11.05 2.4 9.95 1.65 8.0 0.95 6.25 0.35 5.95 L0.25 5.8 Q0.7 4.95 0.7 4.65 L0.7 4.55 0.95 5.4 Q1.5 6.85 2.3 8.15 3.75 10.6 5.6 11.4 5.2 12.35 5.15 12.85 4.95 12.75 4.55 12.55 L4.1 12.35 3.55 12.0 3.5 12.0 3.6 12.15 3.5 12.1 3.5 12.25 3.85 12.35 Q4.3 12.75 5.15 13.2 5.25 13.9 6.35 15.1 7.2 16.1 8.1 16.85 L7.8 16.3 M0.95 12.35 Q1.95 13.4 2.65 13.95 2.15 13.15 1.1 12.1 0.15 11.15 -0.7 10.55 L-0.7 10.65 0.95 12.35 M5.15 13.1 L4.9 12.95 5.15 13.05 5.15 13.1 M7.15 16.5 L7.15 16.45 6.95 16.2 Q6.8 16.5 6.8 16.85 6.8 16.9 6.9 17.0 L7.1 17.15 7.2 17.05 7.25 16.9 7.3 16.85 7.3 16.6 7.15 16.5 M4.45 14.85 L4.5 14.8 Q4.7 14.6 4.7 14.3 4.7 13.7 4.05 13.7 3.4 13.7 3.4 14.3 L3.45 14.55 3.4 14.55 Q3.45 14.65 3.6 14.8 L3.75 14.95 Q4.05 15.1 4.2 15.1 4.5 15.1 4.75 14.95 4.95 14.8 4.95 14.7 L4.9 14.55 4.9 14.45 4.75 14.45 Q4.65 14.5 4.65 14.7 4.6 14.85 4.45 14.85 M-1.8 10.05 Q-1.95 10.1 -1.95 10.15 -1.85 10.25 -1.55 10.75 -1.35 11.15 -1.05 11.2 L-1.35 10.6 Q-1.55 10.2 -1.8 10.05 M-1.35 8.8 L-0.9 7.8 Q-1.2 7.9 -1.55 8.65 -1.9 9.3 -1.9 9.65 -1.9 9.8 -1.85 9.8 L-1.8 9.75 -1.35 8.8" fill="#999999" fill-rule="evenodd" stroke="none"/>
    <path d="M0.9 3.75 L1.05 4.0 Q1.2 4.55 1.45 5.15 2.1 6.75 3.1 8.15 4.6 10.15 6.4 11.05 6.05 11.25 5.85 11.5 L5.8 11.55 Q5.6 11.9 5.6 12.45 5.6 13.55 6.45 14.8 6.95 15.55 7.6 16.15 L7.8 16.3 8.1 16.85 Q7.2 16.1 6.35 15.1 5.25 13.9 5.15 13.2 L5.2 13.15 5.15 13.1 5.15 13.05 4.9 12.95 4.1 12.35 4.55 12.55 Q4.95 12.75 5.15 12.85 5.2 12.35 5.6 11.4 3.75 10.6 2.3 8.15 1.5 6.85 0.95 5.4 L0.7 4.55 0.7 4.5 0.6 4.25 0.9 3.75 M0.25 5.8 L0.35 5.95 0.25 5.85 0.25 5.8 M2.2 11.4 Q1.7 10.75 0.9 8.85 0.1 6.75 0.05 6.15 L0.2 5.95 0.5 6.55 1.3 8.4 Q2.15 10.5 2.2 11.4 M0.95 12.35 L-0.7 10.65 -0.7 10.55 Q0.15 11.15 1.1 12.1 2.15 13.15 2.65 13.95 1.95 13.4 0.95 12.35 M3.6 12.15 L3.85 12.35 3.5 12.25 3.5 12.1 3.6 12.15 M7.15 16.5 L7.1 16.5 Q7.05 16.45 7.05 16.6 7.05 16.8 6.95 16.85 6.85 16.9 6.85 16.95 L7.0 17.05 Q7.15 16.95 7.25 16.9 L7.2 17.05 7.1 17.15 6.9 17.0 Q6.8 16.9 6.8 16.85 6.8 16.5 6.95 16.2 L7.15 16.45 7.15 16.5 M3.45 14.55 L3.4 14.3 Q3.4 13.7 4.05 13.7 4.7 13.7 4.7 14.3 4.7 14.6 4.5 14.8 L4.45 14.85 4.25 14.9 Q4.0 14.9 3.5 14.5 L3.45 14.55" fill="#666666" fill-rule="evenodd" stroke="none"/>
    <path d="M0.05 6.15 L-0.45 7.1 -0.55 7.1 Q-0.5 6.55 -0.1 5.65 0.3 4.8 0.65 4.5 L0.7 4.5 0.7 4.55 0.7 4.65 Q0.7 4.95 0.25 5.8 L0.25 5.85 0.35 5.95 Q0.95 6.25 1.65 8.0 2.4 9.95 2.4 11.05 2.4 11.2 2.4 11.25 L2.35 11.25 2.35 11.55 2.2 11.4 Q2.15 10.5 1.3 8.4 L0.5 6.55 0.2 5.95 0.05 6.15 M3.85 12.35 L3.6 12.15 3.5 12.0 3.55 12.0 4.1 12.35 4.9 12.95 5.15 13.1 5.2 13.15 5.15 13.2 Q4.3 12.75 3.85 12.35 M6.2 11.9 Q7.25 12.25 7.95 12.3 L8.0 12.25 Q7.8 12.55 7.8 13.1 7.8 13.35 7.85 13.65 L7.85 13.6 Q7.2 13.05 6.8 13.05 6.6 13.05 6.35 13.2 6.25 13.25 6.2 13.35 6.05 12.85 6.05 12.35 6.05 12.1 6.2 11.9 M8.55 15.2 Q9.15 16.1 10.05 16.95 L11.45 18.2 Q9.6 17.25 8.6 16.45 8.1 16.05 7.65 15.65 8.3 15.65 8.55 15.2 M7.25 16.9 Q7.15 16.95 7.0 17.05 L6.85 16.95 Q6.85 16.9 6.95 16.85 7.05 16.8 7.05 16.6 7.05 16.45 7.1 16.5 L7.15 16.5 7.3 16.6 7.3 16.85 7.25 16.9 M4.45 14.85 Q4.6 14.85 4.65 14.7 4.65 14.5 4.75 14.45 L4.9 14.45 4.9 14.55 4.95 14.7 Q4.95 14.8 4.75 14.95 4.5 15.1 4.2 15.1 4.05 15.1 3.75 14.95 L3.6 14.8 Q3.45 14.65 3.4 14.55 L3.45 14.55 3.5 14.5 Q4.0 14.9 4.25 14.9 L4.45 14.85 M-1.35 8.8 L-1.8 9.75 -1.85 9.8 Q-1.9 9.8 -1.9 9.65 -1.9 9.3 -1.55 8.65 -1.2 7.9 -0.9 7.8 L-1.35 8.8 M-1.8 10.05 Q-1.55 10.2 -1.35 10.6 L-1.05 11.2 Q-1.35 11.15 -1.55 10.75 -1.85 10.25 -1.95 10.15 -1.95 10.1 -1.8 10.05" fill="#dfdfdf" fill-rule="evenodd" stroke="none"/>
    <path d="M6.2 11.9 L6.25 11.85 6.95 11.3 Q7.65 11.6 8.4 11.7 L8.35 11.75 Q8.05 12.05 8.05 12.2 L8.0 12.2 8.0 12.25 7.95 12.3 Q7.25 12.25 6.2 11.9 M7.85 13.65 L8.5 15.1 8.55 15.2 Q8.3 15.65 7.65 15.65 6.55 14.55 6.2 13.35 6.25 13.25 6.35 13.2 6.6 13.05 6.8 13.05 7.2 13.05 7.85 13.6 L7.85 13.65" fill="#bfbfbf" fill-rule="evenodd" stroke="none"/>
  </g>
</svg>
