<?xml version="1.0" encoding="UTF-8" standalone="no"?>
<svg xmlns:ffdec="https://www.free-decompiler.com/flash" xmlns:xlink="http://www.w3.org/1999/xlink" ffdec:objectType="shape" height="37.45px" width="47.85px" xmlns="http://www.w3.org/2000/svg">
  <g transform="matrix(1.0, 0.0, 0.0, 1.0, -6.2, 11.6)">
    <path d="M8.4 -1.45 L8.6 -1.2 8.8 -0.85 10.55 2.0 Q10.95 2.75 11.75 4.45 12.25 5.45 12.8 6.1 13.1 6.6 13.5 7.0 14.2 7.75 15.7 8.95 L16.5 9.6 Q15.6 10.95 14.2 12.1 L13.1 11.45 Q10.85 9.95 9.85 7.9 9.5 7.1 8.65 4.95 7.7 2.55 7.7 2.25 7.7 1.85 8.05 0.55 8.35 -0.45 8.4 -1.45 M9.85 -0.5 Q9.9 -0.55 10.0 -0.65 L10.4 -0.4 Q11.3 0.05 11.85 0.3 L12.2 0.45 Q14.2 1.35 15.5 1.35 L16.0 1.3 16.3 1.45 Q17.5 2.05 17.5 2.2 17.5 2.5 17.25 2.7 17.1 2.8 16.9 2.85 L18.5 2.8 18.75 2.8 20.85 4.45 20.8 4.45 Q20.6 4.45 20.4 4.3 20.25 4.1 20.05 4.1 19.1 4.1 17.15 5.35 16.45 5.75 15.9 6.2 15.35 6.6 15.35 6.7 15.35 6.9 15.5 7.15 L15.65 7.4 15.65 7.45 15.3 7.2 14.35 6.45 Q13.55 5.75 12.75 4.65 L12.5 4.3 Q12.6 4.0 12.8 3.8 13.2 3.35 13.7 3.35 L14.2 3.25 14.85 3.05 Q15.45 2.95 16.5 2.85 14.85 2.8 12.35 1.5 11.3 0.9 10.55 0.4 L10.2 0.1 9.85 -0.5 M37.3 -6.85 L37.4 -6.75 Q38.55 -5.45 39.45 -4.25 L40.65 -3.05 Q41.65 -2.0 42.3 -1.2 41.75 -0.8 41.1 -0.3 L40.0 0.6 40.0 0.5 Q40.0 -0.4 39.15 -0.1 38.85 0.05 38.55 0.25 38.3 0.5 38.3 0.6 38.3 0.75 38.4 0.85 L38.75 1.1 39.35 1.15 39.25 1.25 Q37.8 2.35 36.1 3.95 35.25 4.75 34.65 5.4 L34.55 5.3 Q34.2 4.9 33.6 4.75 33.35 4.65 32.95 4.65 L32.3 4.65 Q31.55 4.7 31.25 4.85 30.85 5.0 30.85 5.6 L30.95 6.35 30.9 6.95 Q30.8 8.4 30.8 8.6 30.8 8.9 30.1 9.7 29.45 10.45 29.45 10.65 29.45 11.45 29.85 13.45 L30.2 15.0 Q29.6 14.65 28.7 14.25 28.15 14.15 27.35 13.9 26.0 13.65 24.2 12.95 L24.0 12.85 Q21.75 12.3 18.1 9.5 L18.0 9.45 18.0 8.95 Q18.0 8.25 20.0 8.2 20.3 8.2 20.65 8.2 L20.7 8.2 22.0 8.25 23.1 8.3 25.35 8.4 Q24.95 8.05 22.85 6.95 21.4 6.15 21.4 5.6 21.4 5.35 21.75 5.2 L23.85 6.9 Q26.8 9.2 28.8 10.55 L28.85 10.15 Q26.15 7.8 24.2 6.25 L22.45 4.95 22.55 4.9 22.7 4.8 22.75 4.8 22.8 4.75 24.45 5.85 Q27.95 8.2 28.55 8.2 28.85 8.2 29.0 7.95 L29.15 7.6 Q28.45 7.2 26.85 6.15 24.85 4.8 24.15 4.4 L23.75 4.15 25.75 4.8 Q27.8 5.5 28.8 5.5 28.9 5.5 30.8 3.6 32.9 1.55 33.55 0.55 L33.65 0.4 Q33.7 0.75 33.75 0.9 34.1 1.6 35.3 1.6 36.45 1.6 37.35 0.15 37.8 -0.55 38.05 -1.25 38.05 -2.05 38.0 -2.2 37.8 -2.8 36.95 -2.8 36.25 -2.8 35.45 -2.1 36.5 -3.75 36.55 -4.65 36.6 -5.5 36.9 -6.15 37.05 -6.6 37.3 -6.85 M22.8 -3.85 Q24.25 -5.6 25.65 -6.85 27.15 -8.15 27.95 -8.35 24.85 -5.35 22.85 -2.8 20.45 0.25 19.7 2.55 19.25 2.4 19.25 2.0 19.25 1.15 20.3 -0.5 21.25 -2.05 22.8 -3.85 M32.6 -5.2 Q32.4 -4.7 31.9 -4.7 31.3 -4.7 31.15 -5.15 31.1 -5.4 31.15 -5.65 31.15 -5.9 31.4 -6.1 31.65 -6.3 31.95 -6.35 32.3 -6.4 32.5 -6.25 32.8 -6.05 32.8 -5.65 32.75 -5.45 32.6 -5.2 M31.1 -0.65 Q31.0 -0.7 31.0 -0.8 31.0 -1.1 31.3 -1.15 31.5 -1.2 31.85 -1.15 L31.95 -0.85 Q31.95 -0.65 31.85 -0.55 L31.55 -0.35 Q31.15 -0.6 31.1 -0.65 M37.9 -3.7 L38.2 -3.75 38.3 -4.15 Q38.05 -4.7 37.7 -4.6 37.4 -4.5 37.4 -4.1 37.4 -4.05 37.5 -3.95 37.6 -3.9 37.9 -3.7 M52.6 3.75 L52.75 3.6 Q52.5 4.05 52.45 4.9 L52.3 5.7 Q52.05 6.1 51.8 6.75 L51.35 7.9 Q51.1 8.55 50.9 8.9 50.25 9.9 48.85 11.6 L48.1 12.6 48.05 12.6 48.05 12.65 47.05 13.2 47.0 13.25 Q46.2 13.5 45.35 13.75 L44.85 13.85 44.85 14.1 Q43.5 14.45 42.1 14.65 L40.4 14.7 40.65 14.25 Q41.7 14.05 42.75 13.35 43.8 12.9 44.65 12.0 L44.65 12.05 45.15 11.55 45.7 10.9 Q46.4 10.0 46.8 8.95 L47.0 8.4 47.05 8.4 Q47.25 7.8 47.65 6.3 L47.7 6.15 47.95 5.1 Q48.2 4.75 48.4 4.35 L49.8 4.3 Q50.6 4.25 51.2 4.0 L51.65 4.05 Q52.15 4.05 52.6 3.75 M25.35 10.15 L25.65 10.4 25.85 10.3 25.95 9.95 25.8 9.75 Q25.65 9.65 25.55 9.6 L25.35 9.65 Q25.25 9.7 25.25 9.95 25.25 10.0 25.35 10.15 M23.3 10.4 Q23.7 10.05 23.7 9.75 23.7 8.55 22.5 9.0 22.05 9.15 21.65 9.45 21.3 9.7 21.3 9.85 21.3 10.25 21.45 10.45 21.75 10.7 22.45 10.7 22.9 10.7 23.3 10.4 M19.45 2.95 L19.3 2.9 19.2 2.8 19.35 2.85 19.45 2.95" fill="#285228" fill-rule="evenodd" stroke="none"/>
    <path d="M7.65 -3.25 Q7.65 -3.4 7.7 -3.45 L7.85 -3.55 8.05 -3.35 8.4 -2.8 9.45 -1.85 Q9.65 -1.7 9.8 -1.55 10.75 -1.15 12.1 -0.7 L14.4 0.05 Q15.65 0.45 16.3 0.75 L16.5 0.65 Q16.75 -0.5 19.15 -2.85 L22.75 -6.15 Q23.15 -6.5 24.6 -8.0 26.0 -9.35 26.75 -9.55 27.8 -9.85 30.85 -10.8 33.35 -11.6 33.45 -11.6 L33.5 -11.5 33.65 -11.45 33.7 -11.4 34.0 -10.95 Q38.1 -7.65 42.55 -1.4 43.4 -2.0 44.0 -2.3 44.6 -2.7 44.95 -2.85 L44.9 -2.75 Q45.85 -3.35 47.75 -4.3 51.5 -6.1 52.2 -6.2 L52.25 -6.15 Q52.3 -6.15 52.3 -5.9 L51.95 -5.7 Q51.95 -5.65 49.65 -4.5 L49.65 -4.45 Q50.05 -4.5 50.35 -4.35 50.55 -4.25 50.75 -4.05 L51.1 -3.75 Q51.1 -3.65 50.9 -3.55 L50.75 -3.6 50.8 -3.55 Q50.8 -3.4 50.55 -3.35 L49.95 -3.45 Q49.95 -2.65 49.6 -1.05 L49.6 -0.9 Q49.6 -0.65 49.45 -0.1 L49.35 0.3 49.3 0.45 49.4 0.65 Q49.25 1.15 49.1 1.9 L48.85 3.0 Q49.4 3.3 50.0 3.35 L50.7 3.3 Q51.1 3.2 51.4 2.95 L52.45 2.8 Q53.4 2.6 54.05 2.35 L53.4 5.35 53.4 5.4 Q53.4 5.95 53.05 6.8 L53.05 6.95 52.95 7.05 52.85 7.3 Q52.35 8.5 51.55 9.75 50.7 11.05 49.9 11.95 L49.0 13.4 47.85 13.85 46.95 14.3 45.45 14.95 44.4 15.4 44.25 15.3 Q43.6 15.6 42.55 15.9 40.5 16.55 39.2 16.55 38.45 17.25 37.25 18.2 L33.35 21.05 Q33.45 21.4 33.45 21.75 33.45 22.6 33.05 22.9 32.8 23.1 31.9 23.3 30.8 23.5 30.05 23.8 29.5 24.05 28.9 24.4 28.4 24.95 27.7 25.25 L27.55 25.35 27.5 25.35 Q26.35 25.85 24.75 25.85 23.15 25.85 22.2 23.65 L22.1 23.45 Q21.8 23.1 21.55 22.6 22.65 22.1 23.85 21.4 24.45 21.0 24.85 20.7 25.1 20.75 25.35 20.9 25.7 20.95 26.35 21.3 L26.55 21.4 Q27.3 21.7 27.75 22.0 28.2 22.15 28.3 22.15 28.5 22.15 28.75 21.25 28.95 20.5 28.95 20.15 28.55 18.8 28.05 18.8 27.85 18.8 27.7 19.0 27.5 19.2 27.5 19.45 27.35 20.45 27.1 20.45 L26.8 20.45 26.6 19.9 26.25 18.95 Q25.85 18.0 25.25 18.0 L24.75 18.05 24.7 18.05 Q24.55 18.05 24.4 18.1 L24.5 18.3 Q24.2 18.05 24.2 18.55 L24.1 19.4 Q23.85 20.45 23.25 20.45 23.15 20.45 22.9 20.2 22.65 19.95 22.3 19.95 L22.15 19.95 22.05 19.8 Q21.45 20.3 20.9 20.85 L20.4 21.4 20.1 21.7 20.05 21.7 20.0 21.65 Q19.8 21.5 19.55 21.25 L19.4 21.3 19.15 20.8 Q18.6 20.1 17.95 18.9 L17.4 17.9 17.1 17.55 Q15.45 18.6 14.25 18.6 L14.0 18.6 13.9 18.55 Q13.35 18.8 12.85 18.9 L12.45 19.0 12.35 19.05 12.0 19.1 11.9 19.1 Q9.5 19.9 8.15 20.35 L6.5 21.3 Q6.35 21.25 6.3 21.2 6.2 21.1 6.2 20.85 6.2 18.85 7.3 17.3 7.5 16.9 7.8 16.55 8.6 15.6 10.6 14.45 12.15 13.5 13.1 12.9 12.3 12.5 11.4 11.75 10.0 10.9 9.55 10.1 9.3 9.65 8.95 8.75 L8.4 7.35 Q7.85 6.2 7.5 5.4 L7.15 4.6 Q6.85 3.8 6.7 3.0 6.6 2.4 6.6 1.9 L6.65 1.4 6.7 0.85 7.1 -0.8 7.15 -1.05 Q7.15 -1.75 7.5 -2.55 L7.5 -2.65 Q7.5 -3.0 7.65 -3.25 M8.4 -1.45 Q8.35 -0.45 8.05 0.55 7.7 1.85 7.7 2.25 7.7 2.55 8.65 4.95 9.5 7.1 9.85 7.9 10.85 9.95 13.1 11.45 L14.2 12.1 Q15.6 10.95 16.5 9.6 L15.7 8.95 Q14.2 7.75 13.5 7.0 13.1 6.6 12.8 6.1 12.25 5.45 11.75 4.45 10.95 2.75 10.55 2.0 L8.8 -0.85 8.6 -1.2 8.4 -1.45 M10.0 -0.65 L9.65 -0.8 9.85 -0.5 10.2 0.1 10.9 1.25 Q11.15 1.65 12.15 3.6 L12.5 4.3 12.75 4.65 Q13.55 5.75 14.35 6.45 L15.3 7.2 15.65 7.45 15.7 7.5 Q16.75 8.45 18.0 9.45 L18.1 9.5 Q21.75 12.3 24.0 12.85 L24.2 12.95 Q26.0 13.65 27.35 13.9 28.15 14.15 28.7 14.25 29.6 14.65 30.2 15.0 L29.85 13.45 Q29.45 11.45 29.45 10.65 29.45 10.45 30.1 9.7 30.8 8.9 30.8 8.6 30.8 8.4 30.9 6.95 L30.95 6.35 30.85 5.6 Q30.85 5.0 31.25 4.85 31.55 4.7 32.3 4.65 L32.95 4.65 Q33.35 4.65 33.6 4.75 34.2 4.9 34.55 5.3 L34.65 5.4 Q35.25 4.75 36.1 3.95 37.8 2.35 39.25 1.25 L39.35 1.15 40.0 0.6 41.1 -0.3 Q41.75 -0.8 42.3 -1.2 41.65 -2.0 40.65 -3.05 L39.45 -4.25 Q38.55 -5.45 37.4 -6.75 L37.3 -6.85 Q35.85 -8.4 34.9 -9.1 34.45 -9.45 34.2 -9.5 L33.2 -10.7 32.95 -10.7 32.4 -10.45 Q31.5 -10.5 29.65 -9.65 L28.9 -9.3 28.7 -9.2 Q27.3 -8.5 26.1 -7.75 L25.65 -7.3 23.05 -4.55 Q20.0 -1.3 18.9 0.8 L18.75 0.7 Q18.7 0.65 18.7 0.4 18.7 -0.5 23.2 -5.1 L25.05 -7.0 24.5 -6.5 21.25 -3.65 Q20.5 -3.0 19.0 -1.4 L18.15 -0.25 17.05 0.75 16.6 1.2 16.0 1.3 15.5 1.35 Q14.2 1.35 12.2 0.45 L11.85 0.3 Q11.3 0.05 10.4 -0.4 L10.0 -0.65 M48.95 -4.05 L48.95 -4.1 48.6 -3.8 48.5 -3.75 48.35 -3.6 48.2 -3.6 48.1 -3.55 Q47.55 -3.3 46.85 -2.9 L46.75 -2.85 Q45.75 -2.5 44.45 -1.7 L43.5 -1.05 43.45 -1.05 43.1 -0.8 Q41.75 0.1 40.4 1.3 L39.9 1.65 39.25 2.1 38.25 2.8 36.4 4.55 Q34.4 6.55 33.3 8.05 L33.05 8.75 Q32.8 9.45 32.85 9.95 L32.5 9.9 32.5 9.8 32.45 9.55 32.3 9.8 Q32.35 9.65 32.45 9.45 L32.45 9.3 Q32.45 9.2 32.65 8.75 L32.65 8.65 Q32.65 8.2 32.95 7.6 L33.0 7.55 Q33.4 6.75 34.35 5.7 34.2 5.35 33.5 5.2 L33.15 5.1 32.8 5.1 Q32.65 5.15 32.55 5.25 31.95 5.25 31.75 5.95 31.65 6.2 31.65 6.6 L31.6 6.75 31.65 7.5 Q31.7 7.95 31.8 8.45 L31.2 9.7 30.8 10.6 Q30.55 10.85 30.5 11.05 30.5 11.75 30.7 12.75 31.05 14.25 31.15 14.85 L31.05 14.9 30.95 15.05 31.0 15.45 Q30.9 15.6 30.75 15.65 L30.65 15.8 30.3 15.85 Q28.9 15.85 27.15 15.25 L28.8 16.85 28.3 16.65 28.15 16.6 Q27.65 16.35 27.15 15.95 L27.0 15.8 26.95 15.8 26.95 15.75 26.75 15.55 26.15 14.9 26.1 14.9 24.95 14.4 24.9 14.35 24.45 14.15 24.4 14.25 24.0 14.7 23.85 14.8 23.85 14.85 24.0 14.95 Q23.85 15.05 23.4 15.15 L22.7 15.25 Q21.85 15.25 21.25 14.9 L21.05 15.0 21.0 14.85 Q20.5 14.5 20.15 14.2 L19.65 13.7 19.7 13.6 Q19.3 13.55 18.7 13.7 18.55 13.8 18.3 14.1 18.15 14.35 18.1 14.5 18.05 14.75 18.05 15.1 18.05 15.6 18.1 16.0 L18.15 16.05 17.9 15.9 Q17.75 15.75 17.7 15.6 L17.65 15.55 Q17.4 15.15 17.4 14.6 17.4 12.4 19.1 13.2 L19.5 13.4 19.7 13.55 19.75 13.55 20.0 13.75 20.05 13.85 Q20.7 14.35 21.2 14.6 21.25 14.55 21.3 14.55 L21.6 14.55 Q22.25 14.75 23.25 14.75 L23.45 14.6 24.2 14.0 Q23.15 13.5 22.05 12.85 L21.4 12.5 20.4 12.35 Q19.6 12.2 19.45 12.1 19.8 11.85 20.45 11.85 L20.05 11.6 19.8 11.5 Q19.3 11.25 18.9 11.05 18.65 11.2 18.25 11.55 L17.8 11.95 Q17.55 11.95 17.5 11.85 L18.15 11.4 Q18.55 11.1 18.8 11.0 18.35 10.85 18.05 10.75 L17.9 10.65 Q17.9 10.5 17.85 10.5 L17.8 10.45 17.7 10.45 17.6 10.4 17.3 10.15 17.25 10.15 17.05 10.0 Q16.9 10.65 16.4 11.3 15.8 11.75 15.1 12.5 L13.75 13.4 13.2 13.8 12.9 13.95 Q12.05 14.55 11.3 14.85 9.75 15.5 8.7 16.8 8.55 17.0 8.4 17.25 L8.25 17.45 Q7.95 17.95 7.7 18.55 L7.7 18.75 7.45 19.2 Q7.35 19.55 7.25 19.9 7.9 19.6 8.9 19.25 L9.65 19.0 9.7 18.95 9.75 18.95 Q11.05 18.55 11.85 18.4 L12.15 18.3 12.2 18.35 Q14.5 18.0 15.6 17.4 L16.05 17.05 16.4 16.9 Q17.55 16.45 18.2 16.25 L18.2 16.3 18.35 16.7 18.2 16.8 17.75 17.15 17.95 17.4 Q18.4 17.8 18.85 18.65 L19.6 20.05 20.05 20.8 20.15 20.75 Q20.35 20.55 20.75 20.3 L20.95 20.15 Q21.3 19.8 21.8 19.35 23.4 17.8 23.8 17.55 24.8 17.0 27.15 17.55 28.4 17.9 29.35 18.3 29.45 18.6 29.55 18.9 29.75 19.45 29.75 20.3 29.75 21.2 28.55 22.25 L27.95 22.75 27.75 22.6 27.45 22.65 Q27.3 22.65 26.3 22.15 25.6 21.8 25.25 21.45 L24.75 21.3 Q24.4 21.7 23.65 22.25 22.9 22.8 22.55 22.9 L22.65 23.2 Q23.7 25.15 24.8 25.15 L25.55 25.1 Q26.4 25.0 27.1 24.7 27.35 24.25 28.85 23.45 30.3 22.65 31.5 22.4 32.05 22.15 32.35 22.05 L32.45 21.9 32.6 21.55 32.6 21.3 Q32.5 20.7 31.85 19.4 31.1 17.95 31.1 17.7 31.1 17.45 31.25 17.4 L31.4 17.35 31.85 17.95 Q32.3 18.6 32.6 19.2 L32.75 19.45 32.8 19.5 32.85 19.7 32.9 19.7 34.05 18.8 36.5 17.05 37.5 16.3 Q37.6 16.1 37.9 15.7 39.6 14.35 39.6 13.95 L39.6 13.8 Q40.05 13.65 40.75 13.3 L41.85 12.7 Q42.75 12.15 43.3 11.7 L43.4 11.65 Q43.95 11.3 44.25 11.0 L44.45 10.85 44.55 10.7 44.55 10.85 45.0 10.2 45.2 9.9 Q45.75 9.0 46.05 7.95 L46.05 7.8 46.25 7.5 Q46.9 6.1 47.4 4.5 L47.45 4.45 47.8 3.3 47.85 2.95 Q47.8 2.85 47.8 2.75 47.8 2.5 48.0 2.4 48.25 1.45 48.25 0.95 L48.3 0.8 48.45 0.4 48.5 0.2 Q48.6 -0.1 48.7 -0.3 L48.75 -0.9 48.8 -1.55 Q48.8 -2.0 48.95 -2.4 48.95 -3.0 48.8 -3.35 L48.9 -3.85 48.95 -4.05 M45.75 -0.75 L45.65 -0.85 Q44.6 -0.05 43.65 0.75 L43.65 0.9 42.8 1.55 42.8 1.6 42.3 2.0 42.2 2.05 41.7 2.45 41.6 2.6 Q40.45 3.5 39.65 4.3 L39.55 4.35 38.95 4.95 Q35.55 8.45 36.85 10.65 36.8 10.8 36.7 10.9 L36.35 10.95 Q36.25 10.7 36.2 10.4 36.2 10.2 36.2 9.8 L36.3 8.7 36.3 8.55 36.3 8.4 36.4 7.0 Q36.4 6.55 40.15 3.25 42.15 1.45 43.6 0.3 L43.6 0.35 Q44.7 -0.55 45.5 -1.05 L45.95 -1.35 46.1 -1.05 45.75 -0.75 M52.6 3.75 Q52.15 4.05 51.65 4.05 L51.2 4.0 Q50.6 4.25 49.8 4.3 L48.4 4.35 Q48.2 4.75 47.95 5.1 L47.7 6.15 47.65 6.3 Q47.25 7.8 47.05 8.4 L47.0 8.4 46.8 8.95 Q46.4 10.0 45.7 10.9 L45.15 11.55 44.65 12.05 44.65 12.0 Q43.8 12.9 42.75 13.35 41.7 14.05 40.65 14.25 L40.4 14.7 42.1 14.65 Q43.5 14.45 44.85 14.1 L44.85 13.85 45.35 13.75 Q46.2 13.5 47.0 13.25 L47.05 13.2 48.05 12.65 48.05 12.6 48.1 12.6 48.85 11.6 Q50.25 9.9 50.9 8.9 51.1 8.55 51.35 7.9 L51.8 6.75 Q52.05 6.1 52.3 5.7 L52.45 4.9 Q52.5 4.05 52.75 3.6 L52.6 3.75 M40.7 6.25 L40.65 6.2 Q40.85 6.1 40.9 6.05 L40.7 6.25 M22.45 4.95 L24.2 6.25 Q26.15 7.8 28.85 10.15 L28.8 10.55 Q26.8 9.2 23.85 6.9 L21.75 5.2 20.85 4.45 18.75 2.8 17.85 2.1 Q18.5 2.4 19.2 2.8 L19.3 2.9 19.45 2.95 20.05 3.35 20.75 3.75 21.25 4.1 21.35 4.15 22.3 4.85 22.45 4.95 M29.15 17.3 L29.2 17.6 Q28.7 17.1 28.65 16.8 L29.15 17.3 M23.7 18.45 L23.75 18.4 Q23.25 18.75 22.6 19.35 L22.8 19.5 23.1 19.8 Q23.5 19.6 23.6 19.15 23.65 18.65 23.7 18.45 M26.1 18.05 L26.35 18.65 Q26.6 19.45 26.8 19.9 L27.05 19.4 Q27.4 18.75 27.65 18.45 L26.8 18.25 26.1 18.05 M19.3 21.1 L19.4 21.1 19.3 21.0 19.3 21.1 M17.2 17.5 L17.1 17.55 17.35 17.8 17.2 17.5" fill="#111111" fill-rule="evenodd" stroke="none"/>
    <path d="M9.85 -0.5 L9.65 -0.8 10.0 -0.65 Q9.9 -0.55 9.85 -0.5 M16.0 1.3 L16.6 1.2 17.05 0.75 18.15 -0.25 19.0 -1.4 Q20.5 -3.0 21.25 -3.65 L24.5 -6.5 25.05 -7.0 23.2 -5.1 Q18.7 -0.5 18.7 0.4 18.7 0.65 18.75 0.7 L18.9 0.8 Q20.0 -1.3 23.05 -4.55 L25.65 -7.3 26.1 -7.75 Q27.3 -8.5 28.7 -9.2 L28.9 -9.3 29.65 -9.65 Q31.5 -10.5 32.4 -10.45 L32.95 -10.7 33.2 -10.7 34.2 -9.5 Q34.45 -9.45 34.9 -9.1 35.85 -8.4 37.3 -6.85 37.05 -6.6 36.9 -6.15 36.6 -5.5 36.55 -4.65 36.5 -3.75 35.45 -2.1 36.25 -2.8 36.95 -2.8 37.8 -2.8 38.0 -2.2 38.05 -2.05 38.05 -1.25 37.8 -0.55 37.35 0.15 36.45 1.6 35.3 1.6 34.1 1.6 33.75 0.9 33.7 0.75 33.65 0.4 L33.55 0.55 Q32.9 1.55 30.8 3.6 28.9 5.5 28.8 5.5 27.8 5.5 25.75 4.8 L23.75 4.15 24.15 4.4 Q24.85 4.8 26.85 6.15 28.45 7.2 29.15 7.6 L29.0 7.95 Q28.85 8.2 28.55 8.2 27.95 8.2 24.45 5.85 L22.8 4.75 22.75 4.8 22.7 4.8 22.55 4.9 22.45 4.95 22.3 4.85 21.35 4.15 21.25 4.1 20.75 3.75 20.05 3.35 19.45 2.95 19.35 2.85 19.2 2.8 Q18.5 2.4 17.85 2.1 L18.75 2.8 18.5 2.8 16.9 2.85 Q17.1 2.8 17.25 2.7 17.5 2.5 17.5 2.2 17.5 2.05 16.3 1.45 L16.0 1.3 M40.0 0.6 L39.35 1.15 38.75 1.1 38.4 0.85 Q38.3 0.75 38.3 0.6 38.3 0.5 38.55 0.25 38.85 0.05 39.15 -0.1 40.0 -0.4 40.0 0.5 L40.0 0.6 M18.0 9.45 Q16.75 8.45 15.7 7.5 L15.65 7.45 15.65 7.4 15.5 7.15 Q15.35 6.9 15.35 6.7 15.35 6.6 15.9 6.2 16.45 5.75 17.15 5.35 19.1 4.1 20.05 4.1 20.25 4.1 20.4 4.3 20.6 4.45 20.8 4.45 L20.85 4.45 21.75 5.2 Q21.4 5.35 21.4 5.6 21.4 6.15 22.85 6.95 24.95 8.05 25.35 8.4 L23.1 8.3 22.0 8.25 20.7 8.2 20.65 8.2 Q20.3 8.2 20.0 8.2 18.0 8.25 18.0 8.95 L18.0 9.45 M12.5 4.3 L12.15 3.6 Q11.15 1.65 10.9 1.25 L10.2 0.1 10.55 0.4 Q11.3 0.9 12.35 1.5 14.85 2.8 16.5 2.85 15.45 2.95 14.85 3.05 L14.2 3.25 13.7 3.35 Q13.2 3.35 12.8 3.8 12.6 4.0 12.5 4.3 M31.1 -0.65 Q31.15 -0.6 31.55 -0.35 L31.85 -0.55 Q31.95 -0.65 31.95 -0.85 L31.85 -1.15 Q31.5 -1.2 31.3 -1.15 31.0 -1.1 31.0 -0.8 31.0 -0.7 31.1 -0.65 M32.6 -5.2 Q32.75 -5.45 32.8 -5.65 32.8 -6.05 32.5 -6.25 32.3 -6.4 31.95 -6.35 31.65 -6.3 31.4 -6.1 31.15 -5.9 31.15 -5.65 31.1 -5.4 31.15 -5.15 31.3 -4.7 31.9 -4.7 32.4 -4.7 32.6 -5.2 M22.8 -3.85 Q21.25 -2.05 20.3 -0.5 19.25 1.15 19.25 2.0 19.25 2.4 19.7 2.55 20.45 0.25 22.85 -2.8 24.85 -5.35 27.95 -8.35 27.15 -8.15 25.65 -6.85 24.25 -5.6 22.8 -3.85 M37.9 -3.7 Q37.6 -3.9 37.5 -3.95 37.4 -4.05 37.4 -4.1 37.4 -4.5 37.7 -4.6 38.05 -4.7 38.3 -4.15 L38.2 -3.75 37.9 -3.7 M23.3 10.4 Q22.9 10.7 22.45 10.7 21.75 10.7 21.45 10.45 21.3 10.25 21.3 9.85 21.3 9.7 21.65 9.45 22.05 9.15 22.5 9.0 23.7 8.55 23.7 9.75 23.7 10.05 23.3 10.4 M25.35 10.15 Q25.25 10.0 25.25 9.95 25.25 9.7 25.35 9.65 L25.55 9.6 Q25.65 9.65 25.8 9.75 L25.95 9.95 25.85 10.3 25.65 10.4 25.35 10.15" fill="#346b34" fill-rule="evenodd" stroke="none"/>
    <path d="M32.95 7.6 Q32.65 8.2 32.65 8.65 L32.65 8.75 Q32.45 9.2 32.45 9.3 L32.45 9.45 Q32.35 9.65 32.3 9.8 L32.45 9.55 32.5 9.8 32.5 9.9 32.85 9.95 Q32.8 9.45 33.05 8.75 L33.3 8.05 Q34.4 6.55 36.4 4.55 L38.25 2.8 39.25 2.1 39.9 1.65 40.4 1.3 Q41.75 0.1 43.1 -0.8 L43.45 -1.05 43.5 -1.05 44.45 -1.7 Q45.75 -2.5 46.75 -2.85 L46.85 -2.9 Q47.55 -3.3 48.1 -3.55 L48.2 -3.6 48.35 -3.6 48.5 -3.75 48.6 -3.8 48.95 -4.1 48.95 -4.05 48.6 -3.8 48.5 -3.75 48.4 -3.65 48.55 -3.6 Q48.7 -3.55 48.8 -3.35 48.95 -3.0 48.95 -2.4 48.8 -2.0 48.8 -1.55 L48.75 -0.9 48.6 -0.5 48.4 0.4 48.25 0.85 48.25 0.95 Q48.25 1.45 48.0 2.4 47.8 2.5 47.8 2.75 47.8 2.85 47.85 2.95 L47.8 3.3 47.45 4.45 47.4 4.5 Q46.9 6.1 46.25 7.5 L46.05 7.8 Q45.7 8.55 45.3 9.2 L44.95 9.7 44.5 10.3 44.55 10.7 44.45 10.85 44.25 11.0 Q43.95 11.3 43.4 11.65 L43.3 11.7 Q42.75 12.15 41.85 12.7 L40.75 13.3 40.7 13.3 Q38.4 14.15 36.2 15.2 32.55 16.85 31.85 17.9 31.45 17.2 31.15 17.3 30.8 17.45 30.8 18.65 30.8 19.2 31.0 20.1 31.15 20.75 31.4 21.5 30.8 21.75 28.3 23.1 25.55 24.6 25.55 24.8 25.55 25.0 25.55 25.1 L24.8 25.15 Q23.7 25.15 22.65 23.2 L22.55 22.9 Q22.9 22.8 23.65 22.25 24.4 21.7 24.75 21.3 L25.25 21.45 Q25.6 21.8 26.3 22.15 27.3 22.65 27.45 22.65 L27.75 22.6 27.95 22.75 28.55 22.25 Q29.75 21.2 29.75 20.3 29.75 19.45 29.55 18.9 29.45 18.6 29.35 18.3 28.4 17.9 27.15 17.55 24.8 17.0 23.8 17.55 23.4 17.8 21.8 19.35 21.3 19.8 20.95 20.15 L20.75 20.3 Q20.35 20.55 20.15 20.75 L20.05 20.8 19.6 20.05 18.85 18.65 Q18.4 17.8 17.95 17.4 L17.75 17.15 18.2 16.8 18.35 16.7 18.2 16.3 18.2 16.25 Q17.55 16.45 16.4 16.9 L16.05 17.05 15.6 17.4 Q14.5 18.0 12.2 18.35 L12.15 18.3 11.85 18.4 Q11.05 18.55 9.75 18.95 L9.7 18.95 9.65 19.0 8.9 19.25 Q7.9 19.6 7.25 19.9 7.35 19.55 7.45 19.2 L7.7 18.75 7.7 18.55 Q7.95 17.95 8.25 17.45 L8.4 17.25 Q8.55 17.0 8.7 16.8 9.75 15.5 11.3 14.85 12.05 14.55 12.9 13.95 L13.2 13.8 13.75 13.4 15.1 12.5 Q15.8 11.75 16.4 11.3 16.9 10.65 17.05 10.0 L17.25 10.15 Q17.0 10.25 17.0 10.6 17.0 10.9 15.6 12.35 L14.2 13.75 Q14.2 13.85 14.65 14.2 14.9 14.1 15.9 13.2 16.8 12.3 17.25 12.3 L17.75 12.5 Q18.3 12.75 18.5 12.75 19.85 12.75 20.25 12.45 L20.4 12.35 21.4 12.5 22.05 12.85 Q23.15 13.5 24.2 14.0 L23.45 14.6 23.25 14.75 Q22.25 14.75 21.6 14.55 L21.3 14.55 Q21.25 14.55 21.2 14.6 20.7 14.35 20.05 13.85 L19.95 13.6 Q19.7 13.3 19.35 13.3 L19.5 13.4 19.1 13.2 Q17.4 12.4 17.4 14.6 17.4 15.15 17.65 15.55 17.75 15.8 17.95 15.9 L17.9 15.9 18.15 16.05 18.1 16.0 18.35 16.0 Q19.15 16.0 19.7 15.4 20.15 14.9 20.15 14.35 L20.15 14.2 Q20.5 14.5 21.0 14.85 L21.05 15.0 21.25 14.9 Q21.85 15.25 22.7 15.25 L23.4 15.15 Q23.85 15.05 24.0 14.95 L23.85 14.85 23.85 14.8 24.0 14.7 Q24.05 14.8 24.3 15.1 24.7 15.6 25.15 16.0 26.55 17.25 27.85 17.25 28.05 17.25 28.2 17.2 L28.3 17.15 Q28.3 17.1 28.35 17.05 28.4 17.05 28.4 16.85 L28.3 16.65 28.8 16.85 27.15 15.25 Q28.9 15.85 30.3 15.85 L30.65 15.8 30.75 15.65 Q30.9 15.6 31.0 15.45 L30.95 15.05 31.05 14.9 31.15 14.85 Q31.05 14.25 30.7 12.75 30.5 11.75 30.5 11.05 30.55 10.85 30.8 10.6 L31.2 9.7 31.8 8.45 Q31.7 7.95 31.65 7.5 L31.65 7.55 Q31.95 7.9 32.55 7.9 L32.95 7.6 M32.75 19.45 L32.6 19.2 Q32.8 19.3 32.9 19.3 32.8 19.35 32.75 19.45 M24.4 14.25 L24.45 14.15 24.9 14.35 24.4 14.25 M31.75 5.95 Q31.95 5.25 32.55 5.25 32.65 5.15 32.8 5.1 L33.15 5.1 33.05 5.15 Q32.4 5.35 31.9 5.75 L31.75 5.95 M45.75 -0.75 L46.1 -1.05 45.95 -1.35 45.5 -1.05 Q44.7 -0.55 43.6 0.35 L43.6 0.3 Q42.15 1.45 40.15 3.25 36.4 6.55 36.4 7.0 L36.3 8.4 36.3 8.55 36.25 8.85 Q36.25 9.05 36.1 9.3 36.0 9.55 36.0 9.75 36.0 10.1 36.35 11.05 L36.7 12.1 36.8 12.2 37.1 12.25 Q38.75 12.25 39.75 9.85 L40.45 7.9 Q40.8 6.85 41.1 6.45 41.7 5.55 43.45 3.1 L43.8 2.65 43.85 3.3 44.3 2.65 45.1 1.5 45.65 0.65 46.2 -0.25 Q46.2 -0.4 46.05 -0.5 L45.75 -0.75 M39.65 4.3 Q40.45 3.5 41.6 2.6 L40.45 3.8 40.25 4.0 40.0 4.15 Q39.85 4.15 39.65 4.3 M29.15 17.3 L28.65 16.8 Q28.7 17.1 29.2 17.6 L29.15 17.3 M14.55 15.55 L14.5 15.35 Q14.4 15.25 14.2 15.2 L13.8 15.2 Q13.7 15.25 13.7 15.55 13.7 15.9 13.75 16.0 L13.9 16.15 14.25 16.05 Q14.4 15.95 14.5 15.95 L14.55 15.55 M16.5 15.5 L16.4 14.95 16.5 14.6 16.45 14.4 Q16.4 14.2 16.35 14.15 L16.2 14.05 Q15.7 13.9 15.35 14.3 L15.2 14.3 Q14.8 14.5 14.8 14.95 14.8 15.2 14.85 15.35 14.95 15.65 15.3 15.7 L15.3 15.8 15.35 16.0 16.35 15.85 16.45 15.75 16.5 15.5" fill="#4c9999" fill-rule="evenodd" stroke="none"/>
    <path d="M26.1 18.05 L26.8 18.25 27.65 18.45 Q27.4 18.75 27.05 19.4 L26.8 19.9 Q26.6 19.45 26.35 18.65 L26.1 18.05 M23.7 18.45 Q23.65 18.65 23.6 19.15 23.5 19.6 23.1 19.8 L22.8 19.5 22.6 19.35 Q23.25 18.75 23.75 18.4 L23.7 18.45" fill="#faf9d8" fill-rule="evenodd" stroke="none"/>
    <path d="M48.95 -4.05 L48.9 -3.85 48.8 -3.35 Q48.7 -3.55 48.55 -3.6 L48.4 -3.65 48.5 -3.75 48.6 -3.8 48.95 -4.05 M48.75 -0.9 L48.7 -0.3 Q48.6 -0.1 48.5 0.2 L48.45 0.4 48.3 0.8 48.25 0.95 48.25 0.85 48.4 0.4 48.6 -0.5 48.75 -0.9 M46.05 7.8 L46.05 7.95 Q45.75 9.0 45.2 9.9 L45.0 10.2 44.55 10.85 44.55 10.7 44.5 10.3 44.95 9.7 45.3 9.2 Q45.7 8.55 46.05 7.8 M40.75 13.3 Q40.05 13.65 39.6 13.8 L39.6 13.95 Q39.6 14.35 37.9 15.7 37.6 16.1 37.5 16.3 L36.5 17.05 34.05 18.8 32.9 19.7 32.85 19.7 32.8 19.5 32.75 19.45 Q32.8 19.35 32.9 19.3 32.8 19.3 32.6 19.2 32.3 18.6 31.85 17.95 L31.4 17.35 31.25 17.4 Q31.1 17.45 31.1 17.7 31.1 17.95 31.85 19.4 32.5 20.7 32.6 21.3 L32.6 21.55 32.45 21.9 32.35 22.05 Q32.05 22.15 31.5 22.4 30.3 22.65 28.85 23.45 27.35 24.25 27.1 24.7 26.4 25.0 25.55 25.1 25.55 25.0 25.55 24.8 25.55 24.6 28.3 23.1 30.8 21.75 31.4 21.5 31.15 20.75 31.0 20.1 30.8 19.2 30.8 18.65 30.8 17.45 31.15 17.3 31.45 17.2 31.85 17.9 32.55 16.85 36.2 15.2 38.4 14.15 40.7 13.3 L40.75 13.3 M17.25 10.15 L17.3 10.15 17.6 10.4 17.7 10.45 17.8 10.45 17.85 10.5 Q17.9 10.5 17.9 10.65 L18.05 10.75 Q18.35 10.85 18.8 11.0 18.55 11.1 18.15 11.4 L17.5 11.85 Q17.55 11.95 17.8 11.95 L18.25 11.55 Q18.65 11.2 18.9 11.05 19.3 11.25 19.8 11.5 L20.05 11.6 20.45 11.85 Q19.8 11.85 19.45 12.1 19.6 12.2 20.4 12.35 L20.25 12.45 Q19.85 12.75 18.5 12.75 18.3 12.75 17.75 12.5 L17.25 12.3 Q16.8 12.3 15.9 13.2 14.9 14.1 14.65 14.2 14.2 13.85 14.2 13.75 L15.6 12.35 Q17.0 10.9 17.0 10.6 17.0 10.25 17.25 10.15 M20.05 13.85 L20.0 13.75 19.75 13.55 19.7 13.55 19.5 13.4 19.35 13.3 Q19.7 13.3 19.95 13.6 L20.05 13.85 M17.65 15.55 L17.7 15.6 Q17.75 15.75 17.9 15.9 L17.95 15.9 Q17.75 15.8 17.65 15.55 M18.1 16.0 Q18.05 15.6 18.05 15.1 18.05 14.75 18.1 14.5 18.15 14.35 18.3 14.1 18.55 13.8 18.7 13.7 19.3 13.55 19.7 13.6 L19.65 13.7 20.15 14.2 20.15 14.35 Q20.15 14.9 19.7 15.4 19.15 16.0 18.35 16.0 L18.1 16.0 M24.0 14.7 L24.4 14.25 24.9 14.35 24.95 14.4 26.1 14.9 26.15 14.9 26.75 15.55 26.95 15.75 26.95 15.8 27.0 15.8 27.15 15.95 Q27.65 16.35 28.15 16.6 L28.3 16.65 28.4 16.85 Q28.4 17.05 28.35 17.05 28.3 17.1 28.3 17.15 L28.2 17.2 Q28.05 17.25 27.85 17.25 26.55 17.25 25.15 16.0 24.7 15.6 24.3 15.1 24.05 14.8 24.0 14.7 M31.65 7.5 L31.6 6.75 31.65 6.6 Q31.65 6.2 31.75 5.95 L31.9 5.75 Q32.4 5.35 33.05 5.15 L33.15 5.1 33.5 5.2 Q34.2 5.35 34.35 5.7 33.4 6.75 33.0 7.55 L32.95 7.6 32.55 7.9 Q31.95 7.9 31.65 7.55 L31.65 7.5 M41.6 2.6 L41.7 2.45 42.2 2.05 42.3 2.0 42.8 1.6 42.8 1.55 43.65 0.9 43.65 0.75 Q44.6 -0.05 45.65 -0.85 L45.75 -0.75 46.05 -0.5 Q46.2 -0.4 46.2 -0.25 L45.65 0.65 45.1 1.5 44.3 2.65 43.85 3.3 43.8 2.65 43.45 3.1 Q41.7 5.55 41.1 6.45 40.8 6.85 40.45 7.9 L39.75 9.85 Q38.75 12.25 37.1 12.25 L36.8 12.2 36.7 12.1 36.35 11.05 Q36.0 10.1 36.0 9.75 36.0 9.55 36.1 9.3 36.25 9.05 36.25 8.85 L36.3 8.55 36.3 8.7 36.2 9.8 Q36.2 10.2 36.2 10.4 36.25 10.7 36.35 10.95 L36.7 10.9 Q36.8 10.8 36.85 10.65 35.55 8.45 38.95 4.95 L39.55 4.35 39.65 4.3 Q39.85 4.15 40.0 4.15 L40.25 4.0 40.45 3.8 41.6 2.6 M40.7 6.25 L40.9 6.05 Q40.85 6.1 40.65 6.2 L40.7 6.25 M16.5 15.5 L16.45 15.75 16.35 15.85 15.35 16.0 15.3 15.8 15.3 15.7 Q14.95 15.65 14.85 15.35 14.8 15.2 14.8 14.95 14.8 14.5 15.2 14.3 L15.35 14.3 Q15.7 13.9 16.2 14.05 L16.35 14.15 Q16.4 14.2 16.45 14.4 L16.5 14.6 16.4 14.95 16.5 15.5 M14.55 15.55 L14.5 15.95 Q14.4 15.95 14.25 16.05 L13.9 16.15 13.75 16.0 Q13.7 15.9 13.7 15.55 13.7 15.25 13.8 15.2 L14.2 15.2 Q14.4 15.25 14.5 15.35 L14.55 15.55" fill="#397373" fill-rule="evenodd" stroke="none"/>
  </g>
</svg>
