<?xml version="1.0" encoding="UTF-8" standalone="no"?>
<svg xmlns:ffdec="https://www.free-decompiler.com/flash" xmlns:xlink="http://www.w3.org/1999/xlink" ffdec:objectType="shape" height="25.8px" width="24.55px" xmlns="http://www.w3.org/2000/svg">
  <g transform="matrix(1.0, 0.0, 0.0, 1.0, -21.9, 4.65)">
    <path d="M23.85 1.95 L23.55 1.9 23.9 0.9 26.4 -2.15 Q27.7 -4.0 30.15 -3.85 32.45 -4.6 35.3 -2.6 L38.45 0.25 40.35 4.1 36.95 6.9 35.15 5.75 36.45 4.95 34.0 2.75 35.25 2.6 34.5 1.95 35.3 1.75 32.7 1.15 33.9 1.05 32.45 0.45 32.9 0.1 31.7 -0.1 33.0 -1.7 Q28.55 -0.85 26.55 1.8 L26.2 0.25 25.65 1.55 24.95 0.3 24.55 2.1 23.85 1.95 M42.0 11.25 Q42.45 12.3 43.3 13.05 L41.6 12.4 Q41.8 13.7 42.55 14.65 L40.25 13.2 Q40.75 14.9 40.0 15.85 39.95 14.3 39.2 13.15 38.85 13.9 39.15 14.65 L38.25 13.0 38.65 12.9 Q40.55 12.75 41.8 11.4 L42.0 11.2 42.0 11.25" fill="#ffff66" fill-rule="evenodd" stroke="none"/>
    <path d="M40.35 4.1 L40.5 4.2 46.05 3.7 Q45.65 8.7 42.0 11.25 L42.0 11.2 41.8 11.4 Q40.45 12.3 38.65 12.9 L38.25 13.0 36.2 16.7 Q31.85 21.75 27.9 20.7 L23.95 15.75 22.7 9.5 Q21.9 5.05 23.7 2.3 L23.85 1.95 24.55 2.1 24.95 0.3 25.65 1.55 26.2 0.25 26.55 1.8 Q28.55 -0.85 33.0 -1.7 L31.7 -0.1 32.9 0.1 32.45 0.45 33.9 1.05 32.7 1.15 35.3 1.75 34.5 1.95 35.25 2.6 34.0 2.75 36.45 4.95 35.15 5.75 36.95 6.9 40.35 4.1" fill="#ead9c8" fill-rule="evenodd" stroke="none"/>
    <path d="M27.5 6.45 Q27.7 6.25 27.95 6.05 29.15 5.2 30.6 4.9 L31.95 4.8 32.5 4.9 Q32.4 4.15 32.6 3.35 32.85 2.15 33.55 1.25 L34.65 1.6 Q34.85 1.6 34.95 1.8 L34.9 1.85 35.1 2.6 34.3 2.85 Q34.25 2.9 34.25 3.0 L36.35 5.0 Q36.2 5.1 35.95 5.15 L35.5 5.8 36.95 6.9 37.6 6.45 37.8 6.6 37.9 6.65 Q37.9 7.05 37.7 7.4 37.55 7.65 37.45 7.95 L37.55 8.1 38.65 7.55 Q39.7 5.9 42.0 4.95 43.75 4.25 45.55 3.75 46.45 6.0 44.6 8.5 L42.65 10.7 Q41.0 12.2 39.0 12.3 L38.95 12.4 37.5 13.45 35.6 17.35 34.7 18.1 Q34.1 18.5 34.0 18.2 L33.65 18.6 Q34.65 16.4 34.5 14.05 34.4 12.8 34.2 11.75 L34.15 11.7 Q33.65 10.7 32.85 9.9 L32.8 9.9 32.85 10.0 32.7 9.9 32.7 9.85 32.65 9.85 Q32.2 9.55 31.5 9.65 L31.5 9.55 Q31.6 9.45 31.7 9.35 L32.1 9.15 32.15 9.2 32.2 9.2 32.0 9.1 Q31.65 9.25 31.3 9.4 30.95 9.6 30.45 9.65 L30.35 9.7 Q30.7 9.8 30.95 10.0 30.05 10.45 28.9 10.0 28.3 9.8 28.1 9.45 29.15 10.05 30.3 10.1 L29.25 9.55 Q29.7 9.6 30.1 9.45 29.85 9.3 29.6 9.2 30.25 9.25 30.85 9.1 L29.45 8.8 30.15 8.7 Q31.3 8.85 32.35 8.5 L31.45 8.35 31.75 8.2 Q32.4 7.8 32.8 7.25 33.1 6.95 33.2 6.7 L33.2 6.6 33.25 6.35 33.05 6.4 Q33.05 6.2 32.8 6.1 32.45 5.9 32.05 5.85 L31.6 5.95 31.4 6.05 Q30.6 6.3 29.85 6.65 L29.8 6.9 28.1 7.2 28.35 6.95 Q28.35 6.7 28.15 6.6 L28.1 6.6 27.85 6.55 27.75 6.55 27.5 6.45 M28.0 9.35 L27.9 9.3 28.05 9.4 28.0 9.35 M39.6 8.85 L39.25 10.2 Q39.25 10.55 39.35 10.9 41.1 10.8 42.45 9.3 44.2 7.4 45.05 5.1 L45.3 4.9 Q45.25 4.55 44.85 4.6 L41.4 6.45 Q40.0 7.4 39.45 8.7 L39.65 8.6 39.6 8.85 M31.45 6.95 L31.1 7.0 32.6 6.65 31.45 6.95 M30.1 7.6 L30.35 7.55 29.75 7.7 30.1 7.6 M32.1 7.0 L32.65 6.7 32.1 7.0 M32.6 5.55 L32.55 5.45 32.55 5.5 32.6 5.5 32.6 5.55 M28.8 7.85 L29.7 7.5 29.3 7.8 28.8 7.9 28.8 7.85 M27.85 8.15 L28.45 8.2 28.55 8.4 27.8 8.25 27.85 8.15 M28.7 8.2 L28.9 8.3 28.8 8.5 28.75 8.45 28.7 8.2 M24.55 9.05 L24.55 9.15 24.5 9.45 24.55 9.05 M24.85 9.95 L24.85 10.1 24.85 9.95 M24.95 11.25 L25.0 11.55 25.0 11.4 24.95 11.25 M25.9 14.55 L25.7 14.5 25.9 14.55 M28.85 11.4 Q29.1 11.5 29.2 11.75 29.4 11.85 29.6 12.05 29.8 12.3 29.9 12.55 29.65 12.6 29.35 12.45 L29.35 12.5 Q29.25 12.65 29.05 12.7 28.9 12.85 28.8 13.1 28.6 13.55 28.25 13.45 L28.2 13.5 Q27.6 13.35 27.65 12.4 27.65 12.0 27.85 11.75 L27.9 11.55 Q28.0 11.35 28.2 11.35 28.5 11.3 28.85 11.4 M28.6 13.6 L28.6 13.85 28.55 14.15 28.5 14.2 28.5 14.15 Q28.5 13.8 28.6 13.6 M32.9 9.6 L32.8 9.4 32.65 9.45 32.9 9.6 M32.4 9.0 L32.4 9.1 32.6 9.1 32.4 9.0 M31.3 12.85 L31.35 12.75 Q32.1 13.25 32.7 13.95 L32.8 14.15 Q33.4 14.8 33.4 15.65 L31.65 14.15 Q30.7 13.35 30.95 12.65 L31.3 12.85 M34.05 16.15 L34.05 16.2 33.95 16.25 33.95 16.15 34.05 16.15 M25.7 15.55 L25.75 15.6 25.7 15.6 25.7 15.55" fill="#ccbcad" fill-rule="evenodd" stroke="none"/>
    <path d="M28.1 9.45 L28.0 9.35 28.05 9.4 27.9 9.3 27.7 9.2 Q27.75 9.7 27.3 10.05 26.65 9.55 26.55 8.6 26.4 8.3 26.4 7.85 26.35 6.75 27.4 6.45 L27.5 6.45 27.75 6.55 27.85 6.55 28.1 6.6 28.15 6.6 Q28.35 6.7 28.35 6.95 L28.1 7.2 29.4 7.1 Q29.6 7.05 29.75 6.95 L29.8 6.9 29.85 6.65 Q30.6 6.3 31.4 6.05 L31.6 5.95 32.05 5.85 Q32.45 5.9 32.8 6.1 33.05 6.2 33.05 6.4 L33.25 6.35 33.2 6.6 33.2 6.7 Q33.1 6.95 32.8 7.25 32.4 7.8 31.75 8.2 L31.45 8.35 32.35 8.5 Q31.3 8.85 30.15 8.7 L29.6 8.55 28.9 8.3 28.7 8.2 28.45 8.2 27.85 8.15 27.8 8.25 28.55 8.4 28.65 8.45 28.7 8.45 28.75 8.45 28.8 8.5 29.15 8.55 29.45 8.8 30.85 9.1 Q30.25 9.25 29.6 9.2 29.85 9.3 30.1 9.45 29.7 9.6 29.25 9.55 L30.3 10.1 Q29.15 10.05 28.1 9.45 M39.65 8.6 L39.45 8.7 Q40.0 7.4 41.4 6.45 L44.85 4.6 Q45.25 4.55 45.3 4.9 L45.05 5.1 Q44.2 7.4 42.45 9.3 41.1 10.8 39.35 10.9 39.25 10.55 39.25 10.2 L39.6 8.85 Q39.65 8.7 39.75 8.55 L39.65 8.6 M31.1 7.0 L29.95 7.4 29.7 7.5 28.8 7.85 28.65 7.85 28.6 7.95 28.65 7.9 28.8 7.9 29.3 7.8 29.75 7.7 30.35 7.55 31.6 7.2 32.1 7.0 32.65 6.7 32.6 6.65 31.1 7.0 M23.95 2.85 L24.15 2.6 Q24.05 3.1 23.95 3.55 L23.85 5.05 23.7 6.6 Q23.8 6.6 23.85 6.7 23.75 7.0 23.5 7.05 L23.45 7.2 23.4 7.05 23.25 7.1 23.2 7.05 23.2 7.45 Q23.45 7.25 23.8 7.2 L23.95 7.25 24.1 7.35 24.45 7.35 Q24.55 7.45 24.55 7.6 24.5 7.7 24.6 7.75 24.65 7.85 24.65 7.95 L23.1 8.4 23.05 7.65 23.2 7.45 Q22.55 7.1 22.7 6.05 22.95 4.3 23.65 2.65 23.7 2.5 23.85 2.45 L23.95 2.2 23.95 2.85 M28.75 8.0 L28.6 7.95 28.75 8.0 M23.9 8.6 L24.15 8.6 24.55 9.05 24.5 9.45 25.05 9.45 24.85 9.95 24.85 10.1 24.95 10.4 Q24.95 10.85 24.95 11.25 L25.0 11.4 25.0 11.55 Q25.15 12.0 25.3 12.4 L25.9 14.55 25.7 14.5 Q25.15 14.3 24.9 13.35 24.75 12.9 24.7 12.4 24.55 11.95 24.5 11.5 24.45 10.95 24.5 10.5 24.25 10.5 23.9 10.4 L23.85 10.35 23.6 10.3 Q23.5 11.75 23.85 13.2 24.2 14.05 24.6 14.95 L25.35 16.4 24.75 16.45 23.05 12.0 23.05 8.5 23.9 8.6 M30.95 19.15 L31.2 19.15 Q31.7 19.15 31.9 19.5 31.45 19.95 30.8 19.85 L30.5 19.8 29.8 19.85 Q29.2 19.8 28.95 19.4 28.9 19.2 29.05 19.1 29.2 19.05 29.4 19.0 L30.55 19.05 Q30.8 19.05 30.95 19.15 M27.15 17.25 L27.2 17.4 27.15 17.3 27.15 17.25" fill="#a89b8e" fill-rule="evenodd" stroke="none"/>
    <path d="M31.45 6.95 L31.6 7.2 30.35 7.55 30.1 7.6 29.95 7.4 31.1 7.0 31.45 6.95 M28.6 7.95 L28.75 8.0 28.6 7.95 M28.65 7.85 L28.8 7.85 28.8 7.9 28.65 7.9 28.65 7.85 M28.45 8.2 L28.7 8.2 28.75 8.45 28.7 8.45 28.65 8.45 28.55 8.4 28.45 8.2 M28.9 8.3 L29.6 8.55 29.15 8.55 28.8 8.5 28.9 8.3 M23.9 8.6 L24.5 8.55 24.55 9.15 24.55 9.05 24.15 8.6 23.9 8.6 M28.85 17.25 Q28.8 17.1 28.85 16.9 L29.0 16.65 Q29.25 16.75 29.2 17.05 L31.05 17.6 Q31.0 17.3 31.25 17.0 L32.05 15.75 32.4 16.5 31.9 17.6 Q31.7 17.95 31.25 17.9 L31.05 18.1 Q30.9 18.3 30.65 18.4 L30.55 18.35 30.15 18.3 30.15 18.2 29.85 17.9 29.35 18.0 28.95 17.35 28.9 17.3 28.85 17.3 28.85 17.25" fill="#ffffff" fill-rule="evenodd" stroke="none"/>
    <path d="M29.95 7.4 L30.1 7.6 29.75 7.7 29.3 7.8 29.7 7.5 29.95 7.4" fill="#00ff00" fill-rule="evenodd" stroke="none"/>
    <path d="M30.65 18.4 L30.7 18.45 29.85 18.75 28.45 18.4 28.25 17.35 Q28.15 16.8 28.4 16.45 28.55 16.6 28.65 16.85 L28.85 17.25 28.85 17.3 28.9 17.3 29.1 17.65 29.35 18.0 29.85 17.9 30.15 18.2 30.15 18.3 30.55 18.35 30.65 18.4" fill="#c57676" fill-rule="evenodd" stroke="none"/>
    <path d="M31.85 15.55 L31.65 16.25 30.7 17.35 29.75 17.15 28.95 16.35 31.4 14.65 32.65 15.35 32.25 15.8 31.85 15.55" fill="#a04545" fill-rule="evenodd" stroke="none"/>
    <path d="M25.45 -0.3 L25.45 -0.1 Q25.45 0.45 25.5 1.0 25.55 0.75 25.65 0.5 25.8 0.15 26.05 -0.05 26.05 -0.55 26.15 -1.1 L26.2 -1.2 Q26.15 -1.45 26.2 -1.7 L26.15 -1.65 25.65 -0.7 Q25.55 -0.5 25.45 -0.3 M23.4 2.1 L23.4 1.8 Q23.35 1.75 23.4 1.65 L23.4 1.5 Q23.45 1.25 23.6 1.1 23.65 0.95 23.8 0.85 L23.8 0.75 Q23.75 0.5 23.9 0.25 24.25 -0.25 24.7 -0.5 L24.75 -0.8 Q25.0 -2.0 26.35 -2.25 26.55 -2.7 27.0 -3.05 27.75 -3.65 28.7 -3.95 29.2 -4.1 29.55 -4.4 29.9 -4.45 30.1 -4.25 30.2 -4.15 30.25 -4.0 L31.0 -4.55 31.15 -4.65 Q32.3 -4.55 33.35 -4.0 34.2 -3.55 35.05 -3.55 L35.3 -3.25 35.55 -2.8 35.6 -2.6 36.05 -2.7 36.5 -2.05 Q36.9 -1.8 37.15 -1.3 37.55 -0.85 38.0 -0.5 38.6 0.0 38.9 0.7 L39.2 1.05 Q39.4 1.35 39.35 1.8 39.75 2.05 39.8 2.45 40.4 2.6 40.55 3.2 40.6 3.6 40.6 4.0 L40.6 4.05 40.35 4.25 Q40.2 4.35 40.05 4.3 L40.0 4.3 40.0 4.25 Q39.0 3.55 37.8 2.9 36.4 2.2 35.0 2.0 35.35 2.15 35.65 2.4 L36.3 2.95 36.65 3.15 35.05 2.9 33.8 2.85 Q34.15 2.6 34.65 2.5 L34.85 2.45 Q34.45 2.2 34.3 1.9 L34.3 1.85 34.5 1.9 34.6 1.85 34.85 1.8 35.05 1.8 Q36.95 1.9 38.6 2.85 39.3 3.3 39.9 3.9 39.85 3.75 39.85 3.55 L39.8 3.35 39.6 3.2 39.55 3.25 39.5 3.15 39.35 3.05 Q39.1 2.95 39.0 2.7 37.9 2.1 36.7 1.65 35.5 1.25 34.3 1.25 34.85 1.35 35.15 1.75 L33.8 1.45 Q33.15 1.3 32.55 1.25 L32.55 1.2 Q32.65 1.15 32.75 1.1 L32.95 1.1 33.5 1.15 Q33.7 1.05 33.95 1.05 L34.6 0.95 Q36.15 0.95 37.55 1.45 38.2 1.7 38.65 2.15 L39.1 2.3 39.05 2.2 39.0 1.9 38.85 1.7 Q38.55 1.35 38.55 0.9 38.35 0.8 38.25 0.65 L38.0 0.55 Q37.7 0.45 37.75 0.35 36.2 0.05 34.5 0.15 33.65 0.2 32.8 0.45 L33.25 0.6 Q33.55 0.7 33.75 0.9 33.5 1.0 33.05 0.8 L32.3 0.5 32.35 0.5 32.25 0.4 Q32.65 0.05 33.25 -0.1 L34.95 -0.45 37.15 -0.2 Q37.45 -0.15 37.7 -0.05 L37.6 -0.15 Q37.35 -0.25 37.15 -0.45 36.85 -0.75 36.65 -1.1 L36.6 -1.15 Q36.2 -1.5 35.95 -1.95 35.25 -1.75 34.45 -1.95 34.4 -1.95 34.4 -2.05 33.7 -1.85 33.1 -1.35 L31.8 -0.15 32.0 -0.2 32.35 -0.15 Q32.5 -0.15 32.55 0.0 32.2 0.25 31.75 0.2 31.5 0.15 31.45 0.05 31.5 -0.05 31.55 -0.1 L31.75 -0.15 Q31.85 -0.65 32.3 -1.05 L32.9 -1.6 Q30.85 -1.0 28.95 0.0 27.85 0.6 26.9 1.4 L26.6 1.85 26.45 1.85 26.45 1.75 26.35 1.6 26.25 1.7 26.35 1.55 Q26.15 1.2 26.2 0.8 L26.15 0.55 26.0 1.0 Q25.85 1.45 25.6 1.65 L25.5 1.7 25.5 1.55 Q25.2 1.15 25.05 0.65 L25.0 0.55 Q24.85 1.0 24.95 1.55 25.05 2.05 25.0 2.5 L24.9 2.4 24.55 2.4 24.55 2.5 Q24.2 2.55 23.9 2.25 L23.85 2.3 Q23.6 2.2 23.4 2.1 M42.3 11.5 L42.25 11.55 Q42.5 11.95 42.8 12.35 L43.25 12.95 Q42.6 12.85 42.25 12.2 42.05 11.85 42.2 11.6 L42.1 11.65 Q42.2 11.55 42.3 11.5 M41.6 12.05 Q41.7 12.1 41.65 12.15 41.95 12.5 42.4 12.7 L42.55 12.75 Q43.05 12.95 43.5 13.05 L43.45 13.1 42.8 13.2 42.6 13.15 Q42.25 13.05 41.85 12.75 L41.65 12.6 42.55 14.5 42.35 14.45 42.65 14.7 Q41.45 14.6 40.5 13.5 L40.35 13.25 40.3 13.25 40.6 14.5 40.6 14.65 Q40.6 15.45 40.05 15.95 L40.1 15.5 Q40.05 15.75 39.95 15.95 L39.95 15.8 39.9 15.7 39.9 15.6 39.8 15.05 Q39.65 14.55 39.45 14.1 39.3 13.65 39.2 13.3 39.25 13.7 39.25 14.15 L39.3 14.6 39.6 14.95 39.35 14.9 39.35 15.0 39.2 14.85 Q38.7 14.6 38.35 13.9 38.3 14.3 38.05 14.35 L38.0 14.4 38.0 14.45 37.95 14.4 37.9 13.85 38.05 13.6 38.75 12.95 38.5 13.2 Q38.7 13.6 38.9 14.0 L38.9 13.85 Q38.9 13.35 39.15 13.05 L39.15 13.0 39.15 12.95 39.1 12.95 39.15 12.9 39.35 12.9 Q39.5 12.85 39.6 12.9 L39.45 12.9 39.3 12.95 Q39.65 13.35 39.85 13.8 40.0 14.15 40.1 14.55 L40.15 14.75 40.05 14.0 40.0 13.55 Q39.95 13.5 39.95 13.45 39.95 13.4 40.0 13.35 L39.95 13.05 Q39.9 13.0 39.95 12.95 L39.95 12.85 Q39.95 12.8 40.05 12.8 L40.15 12.75 Q40.25 12.7 40.4 12.65 L40.5 12.6 40.55 12.65 40.4 12.7 40.6 12.95 40.65 12.95 40.65 13.0 41.6 13.85 41.9 14.1 Q41.6 13.75 41.45 13.15 L41.45 13.1 41.4 13.0 41.4 12.3 41.45 12.25 41.4 12.25 41.4 12.15 41.45 12.1 Q41.5 12.05 41.55 12.0 L41.6 12.05 M27.05 -2.55 Q26.9 -1.6 26.55 -0.45 26.45 -0.1 26.4 0.25 26.5 0.1 26.6 -0.1 L27.55 -1.4 Q28.35 -2.5 29.35 -3.35 L29.55 -3.55 29.3 -3.5 Q28.65 -2.9 27.7 -2.85 27.4 -2.8 27.1 -2.7 L27.0 -2.55 27.05 -2.55 M29.85 -3.45 L29.8 -3.45 29.35 -3.2 Q28.35 -2.0 27.4 -0.65 26.85 0.2 26.65 1.05 27.2 0.3 28.1 -0.15 30.0 -1.1 32.0 -1.6 L32.15 -1.6 32.35 -1.7 33.05 -1.7 33.9 -2.3 Q34.05 -2.4 34.25 -2.45 L34.8 -2.4 34.95 -2.45 Q33.75 -2.85 32.55 -3.5 L32.15 -3.6 Q31.05 -3.9 29.85 -3.35 L29.85 -3.45 M36.9 7.0 Q36.5 6.95 36.0 6.75 L35.9 6.7 35.75 6.6 Q35.4 6.4 35.3 6.15 L35.3 6.1 35.1 6.0 35.0 6.0 35.0 5.9 34.85 5.75 34.95 5.8 35.0 5.8 35.0 5.75 Q35.05 5.65 35.1 5.55 L35.0 5.5 34.95 5.5 35.15 5.45 35.4 5.2 Q35.55 5.05 35.7 5.05 L36.4 5.05 Q35.8 4.6 35.1 4.0 34.4 3.4 34.0 2.85 L34.05 2.85 Q35.0 3.25 35.7 3.95 36.2 4.45 36.5 5.05 L37.2 5.05 Q37.8 5.1 38.15 5.5 38.45 5.3 38.75 5.1 L39.0 4.95 Q38.45 5.3 38.0 5.7 37.65 6.0 37.4 6.3 L37.75 5.9 37.4 5.85 Q37.1 5.9 36.7 5.85 L35.6 5.85 35.85 6.0 36.7 6.4 Q36.95 6.5 37.1 6.65 L36.95 6.85 36.9 7.0 M37.9 5.7 L37.95 5.7 38.0 5.65 37.9 5.7 M40.2 12.9 L40.2 12.9 M27.8 0.25 L27.85 0.25 27.85 0.3 28.2 0.05 Q28.0 0.15 27.8 0.25 M26.6 1.3 L26.55 1.5 Q26.65 1.25 26.8 1.05 L26.6 1.3 M24.7 0.1 L24.25 0.5 24.45 1.15 24.5 1.45 24.5 1.1 Q24.5 0.6 24.85 0.3 L24.75 0.05 24.7 0.1 M23.85 1.55 L23.9 1.5 23.85 1.45 23.85 1.55 M24.5 1.6 L24.5 1.6 M24.15 2.0 L24.2 2.0 24.1 1.85 24.05 1.9 24.15 2.0" fill="#e6e600" fill-rule="evenodd" stroke="none"/>
    <path d="M40.6 4.05 L40.6 4.1 40.8 4.0 Q41.75 3.55 42.95 3.35 L43.8 3.15 Q44.05 3.1 44.3 3.1 L44.4 3.05 44.65 3.1 45.25 3.1 Q45.6 3.05 45.9 3.25 L45.95 3.3 45.95 3.45 46.0 3.6 Q46.95 4.45 45.95 6.5 45.0 8.45 43.65 10.1 43.05 10.9 42.3 11.5 42.2 11.55 42.1 11.65 L41.8 11.85 41.6 12.05 41.55 12.0 Q41.5 12.05 41.45 12.1 L41.4 12.15 Q40.95 12.45 40.55 12.65 L40.5 12.6 40.4 12.65 Q40.25 12.7 40.15 12.75 L40.05 12.8 Q39.95 12.8 39.95 12.85 L39.45 12.9 39.6 12.9 Q39.5 12.85 39.35 12.9 L39.15 12.9 39.1 12.95 38.8 12.9 38.75 12.95 38.05 13.6 37.9 13.85 37.85 14.0 Q37.5 15.2 36.85 16.35 36.35 17.2 35.7 17.75 35.35 18.15 34.95 18.4 34.35 19.0 33.65 19.4 33.15 19.9 32.25 20.4 31.75 20.7 31.3 20.8 31.0 21.0 30.55 21.05 L29.2 21.1 Q28.5 21.15 28.2 20.9 26.9 20.35 25.95 18.7 L25.6 18.1 25.4 17.8 Q24.55 16.95 23.8 15.75 23.65 15.4 23.5 15.1 L23.45 15.15 23.35 14.95 Q23.05 14.15 22.9 13.5 L22.85 13.45 Q22.8 13.3 22.8 13.1 22.7 12.65 22.7 12.25 L22.6 11.65 Q22.45 10.8 22.4 9.95 L22.5 9.5 22.3 9.45 21.95 9.5 21.9 9.45 Q21.9 9.2 22.05 9.0 22.25 8.85 22.5 8.75 L22.35 7.8 Q22.25 7.15 22.3 6.55 L22.2 6.3 Q22.1 5.25 22.5 4.05 22.8 3.1 23.3 2.35 L23.4 2.15 23.4 2.1 Q23.6 2.2 23.85 2.3 23.6 2.85 23.6 2.9 L23.35 3.55 23.3 3.75 Q23.15 4.25 23.1 4.55 L23.1 4.6 23.05 5.35 22.9 6.45 22.95 6.8 23.0 6.75 Q22.95 7.15 23.0 7.65 L23.05 7.6 Q23.55 7.65 24.05 7.8 L24.3 7.9 24.65 7.9 Q24.6 7.65 24.6 7.35 24.6 7.1 24.65 6.95 L24.55 6.7 Q24.65 6.7 24.75 6.8 L24.8 6.75 24.85 6.8 24.85 6.75 Q25.15 7.05 25.2 7.55 25.2 7.9 25.3 8.2 L25.2 8.15 Q25.75 9.5 25.6 11.2 25.5 12.2 25.95 13.15 26.25 13.95 26.65 14.6 L27.0 14.4 Q27.3 14.05 27.7 13.8 L27.75 13.75 28.0 13.55 Q27.95 13.4 27.95 13.25 28.0 13.0 28.1 12.9 28.15 12.75 28.25 12.7 28.25 12.65 28.3 12.65 L28.45 12.75 28.65 12.9 28.7 12.95 Q28.65 13.3 28.5 13.6 28.9 14.2 27.75 14.8 27.35 15.0 27.0 15.05 26.75 15.25 26.65 15.3 L26.65 15.4 Q26.65 15.45 26.55 15.45 26.4 15.45 26.25 15.25 L26.2 15.2 Q25.8 15.05 25.6 14.9 25.3 14.65 25.3 14.35 25.3 14.2 25.45 14.1 L25.8 14.5 25.75 14.35 Q25.4 13.8 25.25 12.9 L24.9 10.55 Q24.75 10.0 24.7 9.35 L24.5 9.75 Q24.15 10.25 23.65 10.0 L23.9 9.7 Q24.0 9.35 24.25 9.0 L24.35 8.9 Q23.75 9.0 23.25 9.25 L23.25 9.35 23.2 9.3 23.15 9.3 23.1 10.0 23.05 9.95 23.05 11.1 Q23.4 12.8 24.05 14.4 24.3 14.85 24.65 15.25 25.1 15.75 25.5 16.35 25.55 16.5 25.6 16.6 L25.85 16.75 26.0 17.0 26.05 17.1 Q26.55 17.7 26.95 18.35 27.3 18.95 27.55 19.55 27.95 20.0 28.45 20.3 L28.95 20.55 Q30.55 20.25 32.1 19.65 32.45 19.5 32.8 19.3 L32.8 19.35 Q34.7 17.75 36.3 15.8 L36.35 15.65 Q36.6 14.8 37.05 14.1 L37.35 13.65 Q37.55 13.3 37.75 13.05 L37.7 12.85 37.8 12.8 Q37.9 12.75 38.0 12.7 L37.7 12.6 Q38.8 12.45 39.85 12.1 40.75 11.7 41.7 11.2 L42.5 10.65 43.05 10.1 43.55 9.55 44.0 9.0 Q44.3 8.55 44.5 8.05 45.1 6.8 45.55 5.55 L45.65 5.1 45.7 4.2 45.6 3.9 Q42.1 3.75 39.0 5.65 38.15 6.15 37.4 6.7 L37.5 6.55 37.3 6.75 37.5 7.0 37.0 7.0 36.85 7.2 36.9 7.05 36.85 7.05 36.9 7.0 36.95 6.85 37.1 6.65 37.4 6.3 Q37.65 6.0 38.0 5.7 38.45 5.3 39.0 4.95 L39.2 4.8 39.2 4.85 Q39.6 4.55 40.05 4.3 L40.0 4.3 40.05 4.3 Q40.2 4.35 40.35 4.25 L40.6 4.05 M42.95 6.1 Q43.2 6.05 43.4 6.2 L43.75 6.4 Q42.7 6.5 41.65 6.85 L41.05 7.05 Q40.25 7.6 39.6 8.3 39.75 8.7 39.75 9.25 L39.75 9.3 Q39.8 9.45 39.8 9.7 39.75 10.35 39.25 10.75 L39.0 10.75 39.1 9.5 Q39.15 9.05 38.95 8.7 L38.8 8.75 38.85 8.55 38.75 8.4 38.85 8.3 38.85 8.2 Q39.8 7.0 41.1 6.0 42.75 4.85 44.5 4.1 L44.85 4.2 Q45.05 4.25 45.15 4.45 L44.7 4.7 Q44.85 4.75 44.95 4.9 43.85 5.35 42.8 5.9 L42.45 6.15 42.95 6.1 M39.15 13.0 L39.1 12.95 39.15 12.95 39.15 13.0 M41.4 12.3 L41.45 12.25 41.4 12.3 M29.5 5.4 Q30.0 4.8 30.65 4.55 30.45 5.1 30.0 5.65 30.25 5.55 30.5 5.5 L30.55 5.5 31.1 5.4 Q31.65 5.35 32.15 5.6 32.55 5.75 32.55 6.15 31.95 6.0 31.35 6.05 30.5 6.3 29.65 7.05 L29.3 7.35 30.2 7.05 31.65 6.6 31.7 6.6 31.95 6.65 32.4 6.5 32.9 6.5 Q33.15 6.5 33.3 6.65 L32.55 6.95 Q31.8 7.5 30.45 7.75 L29.75 7.9 28.75 8.15 Q29.45 8.3 30.15 8.35 30.9 8.35 31.55 8.7 30.7 8.95 29.8 8.9 28.85 8.9 27.95 8.5 27.75 8.4 27.7 8.3 27.5 8.45 27.35 8.45 27.35 8.55 27.4 8.7 27.4 8.85 27.3 8.9 L27.1 8.9 Q26.7 8.95 26.75 8.45 L26.75 8.25 26.8 7.9 26.85 7.8 27.1 7.65 27.2 7.6 27.25 7.6 Q27.7 7.2 28.3 6.8 L29.05 5.95 29.5 5.4 M26.2 8.45 L26.2 8.5 Q26.05 8.45 25.95 8.4 L25.85 8.35 Q25.5 8.15 25.4 7.5 25.35 7.05 25.7 6.85 26.0 7.25 26.15 7.7 26.3 8.1 26.25 8.45 L26.2 8.45 M24.7 8.55 L24.65 8.55 24.65 8.5 24.6 8.5 24.7 8.55 M24.5 8.75 L24.35 8.8 24.4 8.8 24.5 8.75 M30.7 14.1 Q30.7 14.05 30.75 14.05 L30.85 14.0 31.05 13.95 Q31.55 13.9 31.9 14.2 L32.55 14.85 32.8 15.2 32.75 15.15 32.95 15.55 32.9 15.55 32.95 15.8 32.85 15.75 32.85 15.85 32.8 16.0 32.8 16.1 Q32.85 17.15 32.05 18.15 31.35 19.1 30.55 19.05 29.35 19.4 28.7 18.9 L28.65 18.85 28.35 18.8 28.15 18.8 28.15 18.7 28.0 18.55 28.0 18.4 Q27.9 18.15 27.95 17.7 L27.95 17.4 28.05 16.8 27.6 16.8 Q27.2 16.8 26.8 16.6 L27.1 16.55 27.0 16.45 27.0 16.4 27.55 16.4 Q29.05 15.8 30.25 14.65 30.3 14.55 30.4 14.5 L30.65 14.15 30.7 14.1 M32.35 15.65 L32.4 15.4 32.05 15.05 Q31.75 14.85 31.35 14.9 31.05 15.0 30.75 15.2 30.4 15.95 29.3 16.45 29.45 16.55 29.55 16.7 29.55 16.8 29.55 16.85 29.65 16.85 29.7 16.9 29.85 17.0 29.95 17.15 L30.5 17.15 30.7 17.2 30.85 17.15 30.9 17.05 Q31.05 16.65 31.35 16.4 31.3 16.25 31.35 16.0 31.4 15.65 31.7 15.5 L31.85 15.35 Q32.1 15.4 32.25 15.55 L32.35 15.65 M31.85 16.05 L31.8 16.25 31.8 16.45 31.95 16.6 32.05 16.65 32.15 16.3 32.15 16.15 31.95 16.1 Q31.9 16.05 31.85 16.05 M29.15 16.8 Q29.05 16.8 28.95 16.85 L28.9 17.0 28.8 17.35 Q28.5 17.25 28.55 16.9 28.55 16.8 28.6 16.7 L28.4 16.75 28.4 16.85 28.5 16.8 Q28.45 16.95 28.4 17.15 L28.4 17.2 Q28.45 17.45 28.4 17.75 L28.45 18.0 Q28.45 18.3 28.65 18.45 L30.35 18.5 30.5 18.5 30.8 18.35 Q30.75 18.1 30.8 17.8 L30.85 17.75 30.7 17.65 30.35 17.65 30.2 17.7 30.15 17.85 30.15 18.0 Q30.3 18.1 30.3 18.2 L30.35 18.2 30.3 18.25 30.2 18.4 Q30.05 18.45 29.95 18.35 29.8 18.3 29.75 18.1 L29.7 18.2 29.65 18.2 29.0 18.1 Q28.8 18.05 28.75 17.85 28.75 17.65 28.85 17.45 L28.85 17.4 Q28.95 17.15 29.15 17.0 L29.15 16.8 M29.75 17.45 Q29.6 17.45 29.6 17.55 29.55 17.7 29.7 17.8 L29.7 17.5 29.75 17.5 29.75 17.45 M31.25 17.65 L31.25 17.7 31.4 17.85 31.4 17.8 Q31.7 17.4 31.9 16.95 31.8 16.9 31.65 16.85 L31.5 16.8 Q31.35 17.0 31.15 17.15 L31.1 17.2 31.2 17.4 Q31.25 17.5 31.25 17.6 L31.25 17.65 M26.55 14.95 L26.5 14.95 26.5 15.0 26.55 14.95 M26.4 16.7 L26.4 16.7 M28.35 16.75 L28.35 16.85 28.4 16.75 28.35 16.75 M24.15 15.45 L24.15 15.45 M23.1 8.5 L23.1 8.55 23.25 8.5 23.1 8.5" fill="#333333" fill-rule="evenodd" stroke="none"/>
    <path d="M27.75 -2.15 Q28.05 -2.5 28.4 -2.75 28.35 -2.15 28.0 -1.6 27.75 -1.15 27.4 -0.95 27.3 -1.55 27.75 -2.15 M30.1 -1.6 Q29.05 -0.95 28.15 -0.45 28.7 -1.5 29.8 -2.25 31.05 -3.0 32.45 -3.45 31.5 -2.45 30.1 -1.6 M32.9 -0.15 Q33.05 -0.75 33.65 -1.0 34.55 -1.45 35.55 -1.55 L35.6 -1.55 35.9 -1.5 Q35.05 -1.2 34.2 -0.85 33.5 -0.55 32.9 -0.15 M40.65 5.65 Q40.35 5.9 39.9 5.75 39.95 5.4 40.3 5.15 40.5 5.0 40.75 4.95 41.1 5.25 40.65 5.65 M38.2 1.4 Q36.15 0.85 34.75 0.65 L34.8 0.65 Q36.15 0.35 37.45 0.7 38.45 1.0 39.15 1.7 38.7 1.5 38.2 1.4 M37.5 4.6 Q38.05 4.9 38.6 5.1 37.55 5.2 36.5 4.7 35.65 4.3 36.1 3.95 36.85 4.25 37.5 4.6 M36.8 6.2 Q36.25 6.2 36.65 6.0 37.45 6.15 36.8 6.2 M39.5 4.45 Q38.35 4.1 37.3 3.55 36.15 3.0 36.25 2.35 37.35 2.75 38.35 3.3 39.15 3.75 39.5 4.45" fill="#ffffff" fill-rule="evenodd" stroke="none"/>
  </g>
</svg>
