<?xml version="1.0" encoding="UTF-8" standalone="no"?>
<svg xmlns:ffdec="https://www.free-decompiler.com/flash" xmlns:xlink="http://www.w3.org/1999/xlink" ffdec:objectType="shape" height="23.55px" width="22.8px" xmlns="http://www.w3.org/2000/svg">
  <g transform="matrix(1.0, 0.0, 0.0, 1.0, 1.15, 0.55)">
    <path d="M0.4 18.5 Q0.15 18.15 0.05 17.45 -1.7 17.45 0.55 14.45 L5.2 8.6 Q5.8 6.45 8.1 2.5 L9.5 1.95 11.5 0.25 15.8 2.0 15.45 4.55 Q15.95 9.15 21.0 12.7 L21.05 12.8 21.05 13.0 Q21.1 13.2 21.2 13.35 L21.05 13.35 Q20.8 13.4 20.85 13.7 L21.25 14.15 21.1 14.35 21.05 14.35 Q21.0 14.35 20.9 14.5 L20.85 14.35 Q20.75 14.05 20.5 14.0 20.2 14.0 20.2 14.35 L20.25 14.55 20.2 14.55 Q20.05 14.4 19.8 14.4 L19.65 14.45 Q19.4 14.6 19.55 14.9 L19.6 15.0 19.55 15.15 Q19.35 15.15 19.3 15.4 19.25 15.6 19.3 15.75 L19.2 15.9 19.1 15.85 Q18.65 15.9 18.9 16.3 L18.95 16.35 18.8 16.6 Q18.65 16.65 18.5 16.8 L18.45 16.9 18.4 16.85 18.1 16.75 Q17.8 16.75 17.65 17.05 17.55 17.2 17.6 17.35 17.7 17.65 17.95 17.8 L18.0 17.8 17.8 18.05 17.6 18.3 16.85 19.0 16.65 18.95 Q16.65 18.8 16.6 18.75 L16.45 18.65 16.25 18.55 16.25 18.6 Q16.0 18.6 15.8 18.8 L15.6 19.0 15.65 19.4 15.65 19.6 15.6 19.65 15.55 19.85 15.45 19.9 15.3 19.75 Q15.15 19.55 14.9 19.6 L14.7 19.7 14.65 19.7 14.65 19.6 Q14.75 19.1 14.3 18.95 13.9 19.05 13.9 19.5 13.95 19.75 14.0 19.9 L13.95 19.9 Q13.6 20.0 13.6 20.25 L13.25 20.2 Q13.2 20.15 13.05 20.15 12.95 20.15 12.9 20.2 L12.0 20.0 12.05 19.95 Q12.25 20.05 12.4 19.7 12.7 19.1 12.15 18.85 11.85 18.9 11.8 19.15 11.55 19.2 11.45 19.45 L11.45 19.35 11.25 19.2 11.1 19.1 Q10.8 19.2 10.55 19.4 L10.45 20.1 9.2 21.0 8.5 21.2 8.55 21.25 Q7.8 21.55 7.05 21.45 L7.1 21.4 6.25 21.3 4.6 20.2 4.0 19.25 3.85 19.3 3.55 18.85 3.65 18.45 Q3.6 18.15 3.35 18.05 L2.85 17.9 2.65 18.0 2.5 17.95 Q2.15 18.0 2.15 18.45 L2.15 18.5 2.05 18.45 Q1.95 18.5 1.9 18.55 L1.6 18.7 1.65 18.45 Q1.5 18.1 1.25 18.15 1.0 18.2 0.8 18.05 L0.65 18.1 Q0.4 18.2 0.4 18.5 M2.9 19.05 Q2.6 19.25 2.35 19.15 L2.4 19.15 2.45 19.05 2.5 19.1 2.75 18.95 2.9 19.05 M0.35 16.25 L0.3 16.2 -0.25 15.95 Q-0.35 15.95 -0.45 16.1 L-0.45 16.5 Q-0.3 17.05 0.0 16.65 L0.35 16.25 M0.55 17.65 Q1.0 17.65 0.4 17.4 -0.15 17.7 0.55 17.65" fill="url(#gradient0)" fill-rule="evenodd" stroke="none"/>
    <path d="M21.05 12.8 Q21.1 12.6 21.3 12.55 21.8 12.6 21.6 13.1 L21.45 13.5 21.5 13.6 Q21.65 13.8 21.55 14.0 21.35 14.15 21.25 14.15 L20.85 13.7 Q20.8 13.4 21.05 13.35 L21.2 13.35 Q21.1 13.2 21.05 13.0 L21.05 12.8 M21.1 14.35 Q21.75 14.65 21.0 14.85 20.75 14.95 20.8 14.75 20.35 14.95 20.25 14.55 L20.2 14.35 Q20.2 14.0 20.5 14.0 20.75 14.05 20.85 14.35 L20.9 14.5 Q21.0 14.35 21.05 14.35 L21.1 14.35 M20.2 14.55 L20.2 14.6 Q20.35 14.8 20.35 14.95 20.05 15.25 19.85 15.2 19.95 15.3 19.95 15.5 20.0 15.8 19.9 16.1 L19.6 16.1 Q19.65 16.15 19.65 16.35 19.4 17.05 18.95 16.35 L18.9 16.3 Q18.65 15.9 19.1 15.85 L19.2 15.9 19.35 15.95 Q19.3 15.85 19.3 15.75 19.25 15.6 19.3 15.4 19.35 15.15 19.55 15.15 L19.75 15.15 19.6 15.0 19.55 14.9 Q19.4 14.6 19.65 14.45 L19.8 14.4 Q20.05 14.4 20.2 14.55 M18.8 16.6 L18.9 16.6 Q19.2 16.6 19.35 16.85 19.5 17.05 19.45 17.25 19.25 17.65 18.9 17.6 L18.65 17.55 Q18.65 17.65 18.55 17.75 18.3 17.95 18.0 17.8 L17.95 17.8 Q17.7 17.65 17.6 17.35 17.55 17.2 17.65 17.05 17.8 16.75 18.1 16.75 L18.4 16.85 18.45 16.9 18.5 16.8 Q18.65 16.65 18.8 16.6 M17.8 18.05 L18.15 18.05 Q18.4 18.0 18.4 18.3 18.15 18.95 17.7 18.5 17.6 18.4 17.6 18.3 L17.8 18.05 M16.85 19.0 L16.95 19.1 Q16.95 19.85 16.3 20.0 L16.05 20.05 Q15.65 20.35 15.55 19.85 L15.6 19.65 15.65 19.6 15.65 19.4 15.6 19.0 15.8 18.8 Q16.0 18.6 16.25 18.6 L16.25 18.55 16.45 18.65 16.6 18.75 Q16.65 18.8 16.65 18.95 L16.85 19.0 M15.45 19.9 L15.6 20.05 Q15.55 20.35 15.2 20.6 14.95 20.75 14.75 20.65 L14.6 20.8 14.6 20.85 Q14.55 21.25 14.2 21.35 13.8 21.3 13.8 20.8 L13.85 20.65 13.75 20.5 Q13.65 20.35 13.6 20.25 13.6 20.0 13.95 19.9 L14.0 19.9 Q13.95 19.75 13.9 19.5 13.9 19.05 14.3 18.95 14.75 19.1 14.65 19.6 L14.65 19.7 14.7 19.7 14.9 19.6 Q15.15 19.55 15.3 19.75 L15.45 19.9 M13.25 20.2 Q13.35 20.3 13.4 20.5 13.5 20.8 13.3 20.95 12.85 21.1 12.75 20.55 12.7 20.9 12.4 21.05 11.95 21.35 11.8 20.85 11.75 20.6 11.85 20.45 12.0 20.1 12.25 20.05 L12.5 20.15 Q12.7 20.15 12.75 20.35 12.8 20.25 12.9 20.2 12.95 20.15 13.05 20.15 13.2 20.15 13.25 20.2 M12.0 20.0 L11.95 20.1 Q11.85 20.5 11.65 20.3 L11.55 20.25 11.45 20.05 Q11.15 20.35 10.75 20.3 10.55 20.25 10.45 20.1 L10.55 19.4 Q10.8 19.2 11.1 19.1 L11.25 19.2 11.45 19.35 11.45 19.45 Q11.55 19.2 11.8 19.15 11.85 18.9 12.15 18.85 12.7 19.1 12.4 19.7 12.25 20.05 12.05 19.95 L12.0 20.0 M9.2 21.0 L9.2 21.25 Q8.95 21.65 8.55 21.25 L8.5 21.2 9.2 21.0 M7.05 21.45 Q6.85 21.85 6.45 21.7 L6.25 21.3 7.1 21.4 7.05 21.45 M4.6 20.2 L4.25 20.25 4.0 20.25 3.65 19.55 Q3.7 19.4 3.85 19.3 L4.0 19.25 4.6 20.2 M3.55 18.85 L3.45 18.95 Q3.3 19.05 3.1 19.15 L2.9 19.05 2.75 18.95 2.5 19.1 2.45 19.05 2.4 19.15 2.35 19.15 Q2.0 19.65 1.85 18.9 1.8 18.7 1.9 18.55 1.95 18.5 2.05 18.45 L2.15 18.5 2.15 18.45 Q2.15 18.0 2.5 17.95 L2.65 18.0 2.85 17.9 3.35 18.05 Q3.6 18.15 3.65 18.45 L3.55 18.85 M1.6 18.7 Q1.55 18.95 1.35 19.1 1.0 19.45 0.55 18.95 0.4 18.8 0.4 18.55 L0.4 18.5 Q0.4 18.2 0.65 18.1 L0.8 18.05 Q1.0 18.2 1.25 18.15 1.5 18.1 1.65 18.45 L1.6 18.7 M0.35 16.25 L0.0 16.65 Q-0.3 17.05 -0.45 16.5 L-0.45 16.1 Q-0.35 15.95 -0.25 15.95 L0.3 16.2 0.35 16.25 M11.35 21.05 L11.65 21.05 Q11.85 21.05 11.9 21.3 11.85 21.8 11.25 21.45 11.0 21.3 11.25 21.1 11.3 21.05 11.35 21.05 M0.55 17.65 Q-0.15 17.7 0.4 17.4 1.0 17.65 0.55 17.65 M1.45 19.65 Q1.6 19.55 1.75 19.5 L1.95 19.4 Q2.5 19.65 2.1 20.25 1.8 20.65 1.45 20.35 1.35 20.2 1.4 20.05 L1.45 19.65 M5.3 20.95 Q5.1 21.75 4.45 21.3 4.0 21.0 4.45 20.65 4.5 20.6 4.6 20.6 L5.3 20.95 M-0.1 18.25 Q-0.35 18.45 -0.7 18.55 -1.05 18.75 -1.15 18.35 L-1.15 18.05 -1.05 17.85 Q-0.95 17.7 -0.8 17.65 -0.5 17.7 -0.35 18.0 L-0.1 18.25 M-0.1 19.65 Q-0.5 20.15 -0.75 19.5 -0.8 19.2 -0.55 19.15 -0.35 19.15 -0.2 19.3 -0.1 19.45 -0.1 19.65" fill="#c57676" fill-rule="evenodd" stroke="none"/>
    <path d="M11.8 1.5 Q11.0 1.3 11.45 0.85 11.95 0.9 12.4 1.05 12.75 1.15 12.85 1.55 L11.8 1.5 M19.25 11.4 L19.65 11.7 19.85 11.95 19.75 12.0 Q19.65 12.1 19.55 12.05 19.35 12.0 19.2 11.85 L19.2 11.8 Q18.95 11.55 19.25 11.4 M17.85 12.3 L17.85 12.35 Q17.35 12.1 17.0 11.5 16.75 11.15 16.95 10.95 L17.8 12.0 17.85 12.25 17.85 12.3 M12.45 14.6 L12.5 14.55 Q12.7 14.65 12.8 14.95 12.85 15.15 12.85 15.35 12.55 15.55 12.35 15.05 12.2 14.7 12.45 14.6 M11.4 3.15 Q11.05 3.3 10.6 3.1 9.95 2.85 10.45 2.6 L11.1 2.8 Q11.35 2.9 11.4 3.15 M6.05 6.95 Q6.05 6.85 6.2 6.85 6.3 6.95 6.35 7.1 L6.4 7.2 6.4 7.55 Q6.15 7.45 6.05 7.15 6.05 7.05 6.05 6.95 M4.7 12.7 L4.7 12.8 4.65 12.85 Q4.55 13.05 4.35 12.8 4.25 12.6 4.45 12.5 4.55 12.5 4.65 12.6 L4.7 12.7 M5.5 14.15 L6.0 12.7 6.1 12.85 6.45 12.7 6.85 12.45 6.55 11.8 6.45 11.15 6.7 10.85 6.8 10.9 Q6.75 10.9 6.7 10.95 L6.65 10.95 6.55 11.1 6.5 11.3 6.6 11.7 Q6.75 12.3 7.1 12.65 L6.85 12.0 Q6.75 11.7 6.7 11.35 L6.75 11.35 Q6.95 11.35 7.05 11.2 L6.95 11.0 7.1 11.2 Q7.2 10.9 7.45 10.75 L7.65 10.8 Q8.1 11.2 8.1 11.85 L8.3 11.95 Q8.0 12.4 8.2 12.8 L8.25 12.8 8.35 12.6 Q8.55 11.95 9.0 11.55 L9.05 11.5 9.3 11.45 9.45 11.5 9.5 12.05 9.25 12.65 Q9.15 12.75 9.1 12.9 9.0 12.95 9.05 13.05 9.1 13.25 9.25 13.2 9.3 13.15 9.25 13.05 L9.3 12.95 9.6 12.5 9.8 12.15 9.95 12.2 10.05 12.15 Q10.15 12.2 10.2 12.2 L10.3 12.4 10.15 12.6 Q10.15 12.7 10.2 12.75 10.15 12.85 10.1 13.0 10.05 13.25 10.15 13.4 L9.65 13.5 9.35 13.3 9.2 13.25 9.25 13.85 9.5 13.65 9.75 13.6 10.05 14.1 Q10.1 13.85 10.25 13.8 L10.35 13.85 10.4 14.35 10.3 14.85 10.2 15.25 9.9 15.4 9.9 15.15 9.4 15.55 9.4 15.35 Q9.35 15.2 9.25 15.1 L9.3 14.95 Q9.5 14.5 9.55 14.05 L9.7 14.0 Q9.75 14.05 9.8 14.0 9.75 13.9 9.7 13.85 L9.5 13.85 Q9.25 14.25 9.1 14.75 9.0 15.15 9.0 15.55 8.8 15.1 8.95 14.8 L7.95 15.8 Q7.8 16.1 7.6 15.65 L7.3 15.35 7.1 15.5 7.05 15.6 6.95 15.65 Q6.55 15.55 6.4 15.1 6.35 14.95 6.35 14.9 6.1 14.3 6.25 13.75 6.2 14.2 6.3 14.55 6.4 15.15 6.9 15.4 6.7 15.1 6.6 14.75 L6.5 14.15 Q6.45 13.5 6.55 12.95 6.65 13.05 6.75 13.0 6.9 13.0 7.0 12.85 6.95 12.8 6.9 12.75 L6.75 12.7 6.65 12.75 6.6 12.8 6.6 12.65 Q6.3 13.05 6.25 13.6 L5.95 14.4 5.8 14.55 5.85 14.5 Q6.05 14.25 5.85 14.2 5.8 14.2 5.75 14.25 L5.65 14.0 Q5.55 14.0 5.5 14.15 M7.45 10.75 Q7.2 10.95 7.25 11.4 L7.2 11.7 Q7.15 12.55 7.7 12.85 7.55 12.4 7.45 11.9 7.4 11.6 7.5 11.3 L7.55 11.15 Q7.75 11.3 7.9 11.4 7.95 11.25 7.8 11.1 L7.6 10.85 7.45 10.75 M5.55 14.5 Q5.6 14.6 5.7 14.65 L5.8 14.55 5.7 14.65 Q5.65 14.65 5.55 14.6 L5.55 14.5 M10.35 12.4 L10.45 12.75 10.35 12.4 M10.45 12.8 L10.35 13.15 10.2 13.35 10.45 12.8 M10.05 9.95 L10.2 10.05 Q10.3 10.1 10.3 10.2 L10.3 10.35 Q10.05 10.5 9.9 10.2 9.8 10.1 9.85 10.05 L9.95 9.95 10.05 9.95 M11.25 9.35 Q11.3 9.3 11.35 9.3 L11.5 9.55 Q11.5 9.7 11.45 9.8 11.1 9.8 11.2 9.45 11.2 9.35 11.25 9.35 M9.3 11.1 L9.3 11.15 9.25 11.15 9.3 11.1 M9.15 11.15 Q9.0 11.25 8.85 11.4 L8.8 11.4 9.15 11.15 M10.05 11.9 Q9.9 11.85 9.75 11.9 L9.65 11.9 9.8 11.8 10.05 11.9 M8.5 11.05 L8.5 11.0 Q8.5 10.95 8.55 10.95 L8.6 11.05 Q8.65 11.05 8.65 11.1 L8.55 11.15 Q8.45 11.15 8.5 11.05 M8.55 13.25 Q8.45 13.0 8.2 12.95 L8.2 13.0 Q8.15 12.95 8.1 13.0 L8.05 13.05 8.05 13.1 Q7.65 13.5 7.55 14.15 7.45 14.95 7.85 15.6 7.85 15.5 7.85 15.35 7.7 14.5 7.9 13.75 8.0 13.3 8.2 13.2 L8.35 13.4 Q8.5 13.6 8.65 13.55 8.65 13.4 8.55 13.25 M6.1 12.95 L6.05 12.9 Q5.95 12.9 5.95 13.05 6.0 13.2 6.1 13.2 L6.15 13.05 6.15 13.0 6.1 12.95 M6.3 15.6 L6.35 15.65 Q6.2 15.65 6.1 15.5 6.05 15.4 6.1 15.3 L6.15 15.35 6.25 15.45 6.3 15.6 M7.0 15.9 L6.95 15.9 6.95 15.85 7.0 15.85 Q7.05 15.95 7.0 15.9 M6.75 16.6 L6.75 16.55 Q6.75 16.4 6.85 16.4 L6.9 16.4 6.95 16.45 6.95 16.6 Q6.95 16.7 6.85 16.75 L6.8 16.75 Q6.75 16.7 6.75 16.6 M7.9 16.05 L7.9 16.1 Q7.8 16.3 7.7 16.1 7.6 16.0 7.7 15.95 L7.85 16.0 7.9 16.05 M8.45 16.45 Q8.55 16.6 8.45 16.55 8.35 16.45 8.45 16.45 M10.05 14.45 Q9.95 14.85 10.05 15.2 L10.15 15.1 10.2 15.1 Q10.35 15.0 10.2 14.95 L10.25 14.75 Q10.3 14.3 10.2 14.0 10.1 14.15 10.05 14.45 M9.05 15.75 L9.05 15.85 9.1 15.9 9.05 15.95 Q8.95 15.95 8.9 15.85 8.85 15.7 8.95 15.7 L9.05 15.75 M9.1 15.65 L9.15 15.4 9.3 15.6 Q9.25 15.7 9.1 15.65 M9.95 15.55 Q10.0 15.7 9.95 15.65 L9.9 15.6 Q9.85 15.55 9.95 15.55 M9.6 16.55 Q9.7 16.65 9.6 16.6 9.5 16.55 9.6 16.55" fill="#ffffff" fill-rule="evenodd" stroke="none"/>
    <path d="M12.8 3.05 Q12.7 2.95 13.05 2.85 L13.1 2.9 Q13.35 2.95 13.45 3.2 13.55 3.5 13.35 3.75 12.85 4.1 12.75 3.4 12.7 3.2 12.8 3.05 M14.2 2.65 Q14.6 2.85 14.35 3.3 14.1 3.8 13.85 3.35 13.8 3.15 13.85 2.95 13.95 2.65 14.2 2.65 M13.15 4.95 Q12.95 5.3 12.6 5.4 12.1 5.25 12.25 4.65 12.35 4.15 12.7 4.1 L13.0 4.2 13.2 4.35 Q13.35 4.65 13.15 4.95 M14.2 6.3 Q14.55 6.25 14.6 6.65 14.65 6.95 14.55 7.2 14.35 7.25 14.2 7.4 14.0 7.6 13.9 7.3 13.8 7.2 13.8 7.05 L13.85 6.65 13.95 6.45 14.05 6.4 14.2 6.3 M17.5 10.5 Q17.65 10.3 17.85 10.3 18.3 10.3 18.5 10.75 18.65 11.05 18.55 11.35 L17.5 10.5 M18.85 11.6 L18.95 11.55 19.2 11.8 19.2 11.85 Q19.35 12.0 19.55 12.05 L19.6 12.25 18.85 11.6 M18.6 12.85 L18.5 12.65 Q18.45 12.5 18.4 12.35 L18.6 12.55 Q18.55 12.7 18.6 12.85 M15.3 9.6 L15.5 9.8 Q15.45 10.1 15.2 10.3 14.9 10.55 14.7 10.15 14.6 10.0 14.6 9.85 14.6 9.55 14.85 9.45 L15.0 9.4 Q15.15 9.5 15.3 9.6 M17.85 12.25 L17.8 12.0 17.85 12.25 M12.6 8.95 Q12.25 8.8 12.75 8.7 13.15 9.15 12.6 8.95 M12.1 11.75 Q11.85 12.15 11.55 11.75 L11.45 11.55 11.4 11.35 11.45 11.15 11.6 11.0 11.8 10.95 11.8 10.9 Q12.5 11.05 12.1 11.75 M13.95 12.7 Q14.1 12.5 14.3 12.55 L14.3 12.5 Q14.75 12.6 14.9 13.05 14.95 13.4 14.75 13.7 14.25 14.05 13.95 13.4 13.85 13.15 13.85 12.9 L13.95 12.7 M13.3 13.25 Q13.25 13.6 12.95 13.8 12.65 14.0 12.5 13.65 L12.5 13.45 Q12.45 13.3 12.5 13.15 L12.55 13.05 12.65 12.95 12.95 12.8 Q13.05 12.85 13.15 12.95 13.3 13.1 13.3 13.25 M12.35 14.45 L12.45 14.4 Q12.6 14.2 12.8 14.2 13.3 14.3 13.25 14.85 13.15 15.2 13.0 15.45 L12.85 15.5 12.85 15.35 Q12.85 15.15 12.8 14.95 12.7 14.65 12.5 14.55 L12.45 14.6 12.35 14.45 M12.95 15.85 Q13.1 15.9 13.25 16.0 13.25 15.85 13.3 15.7 13.4 15.3 13.75 15.25 13.95 15.2 14.15 15.35 14.35 15.5 14.35 15.75 L14.4 15.7 Q14.55 15.6 14.65 15.55 15.05 15.55 15.3 15.85 15.55 16.1 15.55 16.45 15.35 16.9 14.8 16.85 14.4 16.8 14.2 16.35 L14.2 16.15 13.95 16.35 Q13.65 16.55 13.45 16.4 L13.55 16.65 Q13.4 16.9 13.2 17.1 L12.75 17.15 12.7 17.1 12.5 16.4 12.5 16.25 12.6 16.1 Q12.8 16.45 13.05 16.7 13.05 16.3 12.95 15.85 M11.65 15.75 L11.5 16.35 11.45 16.45 Q10.85 16.45 10.85 15.8 10.8 15.25 11.2 15.15 L11.4 15.25 Q11.5 15.35 11.6 15.45 11.7 15.6 11.65 15.75 M11.95 14.65 Q11.4 15.4 11.15 14.45 11.0 13.95 11.45 13.9 11.7 13.95 11.85 14.2 12.0 14.4 11.95 14.65 M16.85 13.25 Q16.45 13.25 16.35 12.85 L16.35 12.65 Q16.4 12.45 16.55 12.4 L16.7 12.35 17.05 12.45 Q17.25 12.5 17.3 12.75 L17.3 12.85 Q17.15 13.2 16.85 13.25 M16.6 14.05 L16.8 13.95 16.85 13.95 Q17.0 14.0 17.2 14.1 17.2 14.05 17.4 13.9 18.0 13.9 17.6 14.05 L17.25 14.15 17.3 14.15 Q17.55 14.3 17.6 14.6 17.6 14.85 17.4 15.0 17.05 15.2 16.65 15.15 L16.4 14.85 Q16.3 14.7 16.35 14.45 L16.35 14.3 16.6 14.05 M15.3 12.8 Q15.35 12.65 15.45 12.65 L15.7 12.55 Q16.35 12.7 15.85 13.15 15.4 13.55 15.3 13.0 15.3 12.9 15.3 12.8 M14.9 14.5 Q15.6 14.95 14.9 14.85 14.4 14.8 14.9 14.5 M6.75 8.25 L6.65 8.2 6.6 7.7 Q6.6 7.35 6.85 7.35 L6.85 7.3 Q7.25 7.55 7.05 8.1 L6.9 8.15 Q6.8 8.2 6.75 8.25 M5.9 8.45 Q5.8 8.2 5.65 8.0 5.6 8.05 5.55 8.1 5.45 7.75 5.7 7.7 5.9 7.75 6.0 8.0 6.1 8.2 6.0 8.4 L5.9 8.45 M5.65 9.25 L5.7 9.3 Q5.85 9.15 5.9 8.9 L6.0 8.9 Q6.25 9.2 5.95 9.5 5.65 9.85 5.55 9.4 L5.65 9.25 M5.55 9.95 Q5.65 9.75 5.85 9.75 L5.85 9.7 Q6.25 9.95 5.9 10.35 5.6 10.7 5.5 10.25 5.5 10.1 5.55 9.95 M4.5 12.35 Q4.5 12.0 4.8 11.95 L4.7 11.85 Q4.7 11.6 4.85 11.45 L5.25 11.2 Q5.7 11.2 5.65 11.7 5.65 12.0 5.4 12.2 L5.1 12.2 Q5.15 12.3 5.1 12.45 L5.1 12.3 Q4.85 12.55 4.7 12.8 L4.7 12.7 Q4.65 12.5 4.5 12.35 M4.75 13.95 Q4.75 14.15 4.6 14.35 L4.75 13.95 M4.0 14.4 L4.0 14.35 Q3.95 14.15 4.05 14.0 L3.85 13.95 Q3.3 13.85 3.9 13.6 4.15 13.85 4.15 13.95 L4.15 13.9 4.0 14.4 M2.55 12.65 Q2.55 12.4 2.75 12.25 2.95 12.05 3.1 12.0 3.9 12.2 3.3 12.8 2.9 13.2 2.65 13.05 2.5 12.85 2.55 12.65 M10.4 8.2 Q10.65 8.3 10.7 8.6 10.75 8.8 10.6 8.95 10.2 9.1 10.15 8.6 10.15 8.25 10.4 8.2 M10.3 10.2 Q10.4 10.35 10.4 10.45 L10.3 10.35 10.3 10.2 M10.25 10.95 Q10.1 11.1 9.95 11.1 L9.5 10.8 Q9.35 10.55 9.35 10.25 L9.4 10.15 Q9.45 10.4 9.8 10.65 L10.25 10.95 M9.55 9.9 L9.6 9.85 9.75 9.8 Q9.9 9.85 10.05 9.95 L9.95 9.95 9.85 10.05 9.55 9.9 M8.55 11.15 L8.55 11.2 8.4 11.2 Q8.3 11.25 8.25 11.1 8.25 11.0 8.3 11.0 L8.4 11.05 Q8.45 11.05 8.5 11.05 8.45 11.15 8.55 11.15 M6.3 15.6 L6.4 15.85 Q6.2 15.75 6.0 15.45 5.9 15.25 6.0 15.15 L6.15 15.35 6.1 15.3 Q6.05 15.4 6.1 15.5 6.2 15.65 6.35 15.65 L6.3 15.6 M7.0 15.9 L6.95 15.95 Q6.85 16.05 6.8 15.95 6.8 15.85 6.9 15.85 L6.95 15.85 6.95 15.9 7.0 15.9 M6.8 16.75 L6.7 16.9 Q6.7 16.8 6.7 16.65 L6.75 16.6 Q6.75 16.7 6.8 16.75 M7.7 15.95 Q7.6 16.0 7.7 16.1 7.8 16.3 7.9 16.1 L7.9 16.05 8.0 16.05 Q7.85 16.45 7.55 16.15 7.3 15.95 7.5 15.8 L7.7 15.95 M8.45 16.55 Q8.45 16.65 8.4 16.8 8.35 17.0 8.2 17.05 8.2 16.8 8.25 16.6 8.3 16.4 8.45 16.35 L8.45 16.45 Q8.35 16.45 8.45 16.55 M9.05 15.95 L9.1 16.0 Q8.85 16.0 8.75 15.75 8.7 15.6 8.8 15.5 L8.95 15.7 Q8.85 15.7 8.9 15.85 8.95 15.95 9.05 15.95 M9.95 15.65 Q9.95 15.8 9.85 15.85 L9.75 15.6 9.95 15.55 Q9.85 15.55 9.9 15.6 L9.95 15.65 M9.6 16.55 Q9.5 16.55 9.6 16.6 9.7 16.65 9.6 16.55 M9.65 16.75 Q9.6 16.75 9.55 16.65 9.5 16.5 9.6 16.5 9.7 16.5 9.7 16.6 9.7 16.7 9.65 16.75" fill="#c57676" fill-rule="evenodd" stroke="none"/>
    <path d="M11.95 8.7 L11.4 8.5 Q10.6 6.55 11.5 4.8 11.8 4.55 12.05 5.0 12.85 7.3 11.95 8.7 M9.3 4.75 L9.05 4.55 9.0 4.8 Q9.05 5.05 9.25 5.1 9.3 4.95 9.3 4.75 M9.05 7.15 Q8.5 7.5 7.9 7.15 7.5 6.2 9.05 4.25 L9.8 4.5 9.05 7.15" fill="#edd6d6" fill-rule="evenodd" stroke="none"/>
    <path d="M9.3 4.75 Q9.3 4.95 9.25 5.1 9.05 5.05 9.0 4.8 L9.05 4.55 9.3 4.75" fill="#ff0000" fill-rule="evenodd" stroke="none"/>
    <path d="M18.4 12.35 Q17.3 11.3 16.9 10.05 L16.95 10.05 17.5 10.5 18.55 11.35 18.85 11.6 19.6 12.25 19.8 12.45 Q20.8 13.4 21.55 14.45 20.65 14.1 19.75 13.5 19.95 13.75 20.05 14.05 19.45 13.95 18.9 13.35 L18.6 12.85 Q18.55 12.7 18.6 12.55 L18.4 12.35 M13.7 11.65 Q13.0 11.4 12.4 10.8 L12.2 9.95 13.15 10.85 Q13.55 11.2 13.7 11.65 M12.7 17.1 Q12.85 17.7 12.95 18.35 13.05 19.3 13.1 20.25 12.5 19.0 12.15 17.55 11.85 16.4 12.2 15.65 L12.5 16.4 12.7 17.1 M6.75 8.25 Q6.8 8.2 6.9 8.15 L7.05 8.1 7.6 8.05 Q7.55 8.4 7.05 8.65 6.7 8.85 6.5 8.6 6.55 8.4 6.75 8.25 M5.55 8.1 Q5.6 8.05 5.65 8.0 5.8 8.2 5.9 8.45 L5.9 8.9 Q5.85 9.15 5.7 9.3 L5.65 9.25 Q5.5 8.95 5.45 8.55 5.45 8.25 5.55 8.1 M5.1 12.45 Q5.0 13.15 4.75 13.95 L4.6 14.35 4.5 14.55 Q4.15 15.45 3.65 15.9 3.8 15.15 4.0 14.4 L4.15 13.9 4.25 13.7 4.25 13.65 4.55 13.2 4.65 12.85 4.7 12.8 Q4.85 12.55 5.1 12.3 L5.1 12.45 M0.55 16.0 L0.15 16.4 -0.45 16.4 Q-0.5 16.05 -0.2 15.8 0.2 15.45 0.65 15.4 L0.75 15.5 0.9 15.4 1.05 15.45 1.2 15.6 Q1.0 16.0 0.55 16.0 M1.85 16.3 L1.95 16.4 Q1.95 16.85 1.85 17.3 1.75 17.8 1.4 17.8 L1.35 17.65 1.25 17.85 Q1.0 18.35 0.65 18.35 0.7 17.85 0.9 17.35 1.0 17.0 1.2 16.7 1.4 16.35 1.7 16.25 L1.85 16.3 M2.8 17.8 Q3.0 18.1 2.85 18.55 2.75 18.9 2.55 19.05 2.5 18.7 2.55 18.35 2.55 17.95 2.8 17.8 M18.0 17.95 Q18.15 18.3 18.2 18.65 17.85 18.5 17.55 18.3 17.6 18.55 17.5 18.8 16.95 18.65 16.65 18.0 16.55 17.75 16.6 17.45 16.55 17.35 16.55 17.2 16.2 16.65 16.35 16.2 16.65 16.45 16.95 16.75 17.45 16.9 17.75 17.35 17.9 17.65 18.0 17.95 M12.2 19.7 Q12.35 19.85 12.4 20.1 L12.5 20.45 Q12.2 20.35 12.1 20.0 12.0 19.75 12.2 19.7" fill="#a04545" fill-rule="evenodd" stroke="none"/>
    <path d="M18.95 11.55 Q18.85 11.35 18.9 11.25 19.1 11.3 19.25 11.4 18.95 11.55 19.2 11.8 L18.95 11.55 M19.75 12.0 L19.9 12.2 19.55 12.05 Q19.65 12.1 19.75 12.0 M16.95 10.95 Q16.75 11.15 17.0 11.5 17.35 12.1 17.85 12.35 L17.85 12.3 17.95 12.45 Q18.3 13.15 18.45 13.9 17.65 13.2 17.05 12.15 16.6 11.35 16.75 10.75 L16.95 10.95 M12.85 15.5 L12.9 15.7 12.95 15.85 Q13.05 16.3 13.05 16.7 12.8 16.45 12.6 16.1 12.45 15.8 12.3 15.4 12.15 14.8 12.35 14.45 L12.45 14.6 Q12.2 14.7 12.35 15.05 12.55 15.55 12.85 15.35 L12.85 15.5 M16.55 15.6 L17.0 15.95 Q17.25 16.15 17.35 16.4 16.9 16.4 16.6 16.05 16.3 15.7 16.55 15.6 M6.05 6.95 Q6.05 7.05 6.05 7.15 6.15 7.45 6.4 7.55 L6.4 7.2 6.35 7.1 Q6.45 7.25 6.5 7.5 6.55 7.8 6.45 8.05 6.05 7.85 6.0 7.3 5.95 7.1 6.05 6.95 M3.35 11.5 L3.75 11.0 Q3.8 11.2 3.65 11.4 3.5 11.6 3.35 11.5 M4.25 13.65 L4.2 13.75 Q3.9 13.45 4.05 12.9 4.2 12.5 4.5 12.35 4.65 12.5 4.7 12.7 L4.65 12.6 Q4.55 12.5 4.45 12.5 4.25 12.6 4.35 12.8 4.55 13.05 4.65 12.85 L4.55 13.2 4.25 13.65 M10.4 10.45 L10.5 10.5 Q10.9 10.85 10.9 11.4 L10.25 10.95 9.8 10.65 Q9.45 10.4 9.4 10.15 9.35 10.0 9.45 9.85 L9.55 9.9 9.85 10.05 Q9.8 10.1 9.9 10.2 10.05 10.5 10.3 10.35 L10.4 10.45 M11.25 9.35 Q11.2 9.35 11.2 9.45 11.1 9.8 11.45 9.8 11.5 10.1 11.45 10.35 11.1 10.1 10.95 9.6 10.9 9.25 11.15 9.1 L11.25 9.35" fill="#e6c4c4" fill-rule="evenodd" stroke="none"/>
    <path d="M5.5 14.15 Q5.55 14.0 5.65 14.0 L5.75 14.25 Q5.8 14.2 5.85 14.2 6.05 14.25 5.85 14.5 L5.8 14.55 5.7 14.65 Q5.6 14.6 5.55 14.5 5.45 14.4 5.5 14.25 L5.5 14.15 M6.25 13.6 Q6.3 13.05 6.6 12.65 L6.6 12.8 6.65 12.75 6.75 12.7 6.9 12.75 Q6.95 12.8 7.0 12.85 6.9 13.0 6.75 13.0 6.65 13.05 6.55 12.95 6.45 13.5 6.5 14.15 L6.6 14.75 Q6.7 15.1 6.9 15.4 6.4 15.15 6.3 14.55 6.2 14.2 6.25 13.75 L6.25 13.6 M9.0 15.55 Q9.0 15.15 9.1 14.75 9.25 14.25 9.5 13.85 L9.7 13.85 Q9.75 13.9 9.8 14.0 9.75 14.05 9.7 14.0 L9.55 14.05 Q9.5 14.5 9.3 14.95 L9.25 15.1 Q9.35 15.2 9.4 15.35 L9.4 15.55 9.3 15.6 9.15 15.4 9.1 15.65 9.05 15.85 9.05 15.75 9.0 15.55 M10.15 13.4 Q10.05 13.25 10.1 13.0 10.15 12.85 10.2 12.75 10.15 12.7 10.15 12.6 L10.3 12.4 10.35 12.4 10.45 12.75 10.45 12.8 10.2 13.35 10.15 13.4 M10.2 12.2 Q10.15 12.2 10.05 12.15 L9.95 12.2 9.8 12.15 9.6 12.5 9.3 12.95 9.25 13.05 Q9.3 13.15 9.25 13.2 9.1 13.25 9.05 13.05 9.0 12.95 9.1 12.9 9.15 12.75 9.25 12.65 L9.5 12.05 9.65 11.9 9.75 11.9 Q9.9 11.85 10.05 11.9 L10.1 11.9 Q10.25 12.0 10.3 12.1 L10.2 12.2 M9.45 11.5 L9.3 11.45 9.05 11.5 9.0 11.55 Q8.55 11.95 8.35 12.6 L8.25 12.8 8.2 12.8 Q8.0 12.4 8.3 11.95 L8.8 11.4 8.85 11.4 Q9.0 11.25 9.15 11.15 L9.2 11.1 9.25 11.15 9.3 11.15 9.3 11.1 9.45 11.5 M7.45 10.75 L7.6 10.85 7.8 11.1 Q7.95 11.25 7.9 11.4 7.75 11.3 7.55 11.15 L7.5 11.3 Q7.4 11.6 7.45 11.9 7.55 12.4 7.7 12.85 7.15 12.55 7.2 11.7 L7.25 11.4 Q7.2 10.95 7.45 10.75 M6.95 11.0 L7.05 11.2 Q6.95 11.35 6.75 11.35 L6.7 11.35 Q6.75 11.7 6.85 12.0 L7.1 12.65 Q6.75 12.3 6.6 11.7 L6.5 11.3 6.55 11.1 6.65 10.95 6.7 10.95 Q6.75 10.9 6.8 10.9 L6.85 10.9 6.95 11.0 M8.55 13.25 Q8.65 13.4 8.65 13.55 8.5 13.6 8.35 13.4 L8.2 13.2 Q8.0 13.3 7.9 13.75 7.7 14.5 7.85 15.35 7.85 15.5 7.85 15.6 7.45 14.95 7.55 14.15 7.65 13.5 8.05 13.1 L8.05 13.05 8.1 13.0 Q8.15 12.95 8.2 13.0 L8.2 12.95 Q8.45 13.0 8.55 13.25 M6.1 12.95 L6.15 13.0 6.15 13.05 6.1 13.2 Q6.0 13.2 5.95 13.05 5.95 12.9 6.05 12.9 L6.1 12.95 M10.05 14.45 Q10.1 14.15 10.2 14.0 10.3 14.3 10.25 14.75 L10.2 14.95 Q10.35 15.0 10.2 15.1 L10.15 15.1 10.05 15.2 Q9.95 14.85 10.05 14.45" fill="#afadbf" fill-rule="evenodd" stroke="none"/>
    <path d="M6.8 10.9 L6.7 10.85 6.45 11.15 6.55 11.8 6.85 12.45 6.45 12.7 6.1 12.85 6.0 12.7 5.5 14.15 5.5 14.25 Q5.45 14.4 5.55 14.5 L5.55 14.6 Q5.65 14.65 5.7 14.65 L5.8 14.55 5.95 14.4 6.25 13.6 6.25 13.75 Q6.1 14.3 6.35 14.9 6.35 14.95 6.4 15.1 6.55 15.55 6.95 15.65 L7.05 15.6 7.1 15.5 7.3 15.35 7.6 15.65 Q7.8 16.1 7.95 15.8 L8.95 14.8 Q8.8 15.1 9.0 15.55 L9.05 15.75 8.95 15.7 8.8 15.5 Q8.7 15.6 8.75 15.75 8.85 16.0 9.1 16.0 L9.05 15.95 9.1 15.9 9.05 15.85 9.1 15.65 Q9.25 15.7 9.3 15.6 L9.4 15.55 9.9 15.15 9.9 15.4 10.2 15.25 10.3 14.85 10.4 14.35 Q10.45 17.15 10.95 19.5 L10.55 19.95 Q10.6 20.35 10.35 20.65 10.15 20.9 9.95 20.9 L9.95 21.1 Q9.95 21.45 9.75 21.65 9.4 21.65 9.25 21.3 L9.0 21.3 Q8.85 21.35 8.7 21.2 L8.4 21.3 Q8.5 21.45 8.5 21.65 L8.4 21.85 Q8.6 21.65 8.8 21.65 L8.8 21.6 9.05 21.8 Q9.25 21.95 9.2 22.2 9.1 22.45 8.85 22.55 8.45 22.65 8.3 22.2 8.3 22.1 8.3 22.0 8.1 22.2 7.75 22.05 7.5 21.95 7.4 21.7 L7.45 21.45 7.05 21.45 Q7.0 21.65 6.8 21.85 6.55 22.1 6.25 21.9 L6.15 21.6 Q6.05 21.4 6.05 21.2 L5.85 21.1 Q5.9 21.3 5.8 21.6 5.6 22.05 5.25 21.9 5.1 21.75 5.1 21.5 5.1 21.4 5.1 21.25 L5.0 21.1 4.8 21.1 Q4.45 20.85 4.5 20.4 4.5 20.25 4.55 20.15 L3.95 19.4 Q3.8 19.4 3.7 19.3 L3.6 19.4 Q3.95 19.4 4.05 19.75 4.15 20.05 4.0 20.25 3.9 20.35 3.85 20.4 3.5 20.6 3.25 20.35 L3.2 20.15 3.2 19.75 3.3 19.55 3.4 19.45 3.25 19.3 3.2 19.1 Q3.2 18.9 3.3 18.8 L3.4 18.7 3.3 18.6 Q5.2 15.1 6.35 11.25 6.5 10.4 7.75 10.45 L9.5 10.8 9.95 11.1 10.45 11.7 Q10.6 12.25 10.35 12.4 L10.3 12.4 10.2 12.2 10.3 12.1 Q10.25 12.0 10.1 11.9 L10.05 11.9 9.8 11.8 9.65 11.9 9.5 12.05 9.45 11.5 9.3 11.1 9.25 11.15 9.2 11.1 9.15 11.15 8.8 11.4 8.3 11.95 8.1 11.85 Q8.1 11.2 7.65 10.8 L7.45 10.75 Q7.2 10.9 7.1 11.2 L6.95 11.0 6.85 10.9 6.8 10.9 M10.35 13.85 L10.25 13.8 Q10.1 13.85 10.05 14.1 L9.75 13.6 9.5 13.65 9.25 13.85 9.2 13.25 9.35 13.3 9.65 13.5 10.15 13.4 10.2 13.35 10.35 13.15 10.35 13.85 M8.5 11.05 Q8.45 11.05 8.4 11.05 L8.3 11.0 Q8.25 11.0 8.25 11.1 8.3 11.25 8.4 11.2 L8.55 11.2 8.55 11.15 8.65 11.1 Q8.65 11.05 8.6 11.05 L8.55 10.95 Q8.5 10.95 8.5 11.0 L8.5 11.05 M6.15 15.35 L6.0 15.15 Q5.9 15.25 6.0 15.45 6.2 15.75 6.4 15.85 L6.3 15.6 6.25 15.45 6.15 15.35 M6.95 15.85 L6.9 15.85 Q6.8 15.85 6.8 15.95 6.85 16.05 6.95 15.95 L7.0 15.9 Q7.05 15.95 7.0 15.85 L6.95 15.85 M6.8 16.75 L6.85 16.75 Q6.95 16.7 6.95 16.6 L6.95 16.45 6.9 16.4 6.85 16.4 Q6.75 16.4 6.75 16.55 L6.75 16.6 6.7 16.65 Q6.7 16.8 6.7 16.9 L6.8 16.75 M7.7 15.95 L7.5 15.8 Q7.3 15.95 7.55 16.15 7.85 16.45 8.0 16.05 L7.9 16.05 7.85 16.0 7.7 15.95 M8.45 16.55 Q8.55 16.6 8.45 16.45 L8.45 16.35 Q8.3 16.4 8.25 16.6 8.2 16.8 8.2 17.05 8.35 17.0 8.4 16.8 8.45 16.65 8.45 16.55 M9.95 15.65 Q10.0 15.7 9.95 15.55 L9.75 15.6 9.85 15.85 Q9.95 15.8 9.95 15.65 M9.65 16.75 Q9.7 16.7 9.7 16.6 9.7 16.5 9.6 16.5 9.5 16.5 9.55 16.65 9.6 16.75 9.65 16.75 M6.75 21.95 Q7.35 22.25 6.95 22.85 6.65 23.25 6.35 22.8 6.25 22.55 6.35 22.3 6.5 22.0 6.75 21.95 M4.9 22.1 Q5.55 22.15 5.2 22.7 4.9 23.15 4.6 22.7 4.55 22.55 4.6 22.4 4.65 22.1 4.9 22.1 M3.7 21.25 Q3.1 21.45 3.15 20.8 3.15 20.6 3.3 20.55 3.6 20.6 3.75 20.85 3.85 21.1 3.7 21.25" fill="#111111" fill-rule="evenodd" stroke="none"/>
    <path d="M11.3 -0.4 Q11.6 -0.55 11.9 -0.55 12.95 -0.45 13.95 0.05 14.15 0.2 14.35 0.35 L14.5 0.4 Q15.45 0.85 16.0 1.7 L15.9 1.65 Q16.45 2.5 16.25 3.8 L16.1 4.35 16.3 5.4 16.3 5.65 Q16.7 6.85 17.3 8.0 17.9 9.1 18.55 10.1 L18.95 10.7 19.55 11.25 Q20.35 12.0 21.05 12.75 19.75 11.9 18.5 10.8 L18.2 10.45 Q17.6 10.0 17.05 9.35 16.65 8.9 16.4 8.35 L16.15 7.95 16.25 8.4 Q16.5 9.0 16.8 9.6 L17.65 11.35 18.3 12.25 Q19.1 13.4 19.9 14.6 18.2 13.2 16.95 11.15 L16.6 10.45 Q15.9 9.25 15.5 7.8 15.25 7.05 15.25 6.3 15.15 5.7 15.15 5.0 15.1 4.3 15.25 3.65 L15.35 2.9 Q15.45 2.4 15.45 2.0 14.3 1.35 12.85 0.9 L11.85 0.55 Q11.2 0.55 10.65 1.1 L10.5 1.25 Q10.4 1.5 10.1 1.75 L10.4 1.8 Q11.0 1.85 11.25 2.3 11.15 2.55 10.85 2.5 L9.55 2.4 8.8 2.5 Q8.45 2.5 8.15 2.75 8.0 3.2 7.75 3.8 7.15 5.1 6.3 6.3 L5.65 7.6 Q5.3 8.2 5.45 8.95 L5.45 9.05 5.5 9.1 5.5 9.15 Q5.5 9.5 5.3 9.75 L5.25 9.6 Q4.6 10.9 3.95 12.3 L3.9 12.4 Q3.45 13.55 3.1 14.8 2.6 16.75 1.85 18.6 2.1 15.95 3.05 13.25 L3.3 12.55 Q2.8 13.65 2.1 14.75 1.7 15.4 1.25 15.95 0.65 16.8 0.0 17.5 0.65 16.0 1.55 14.6 L2.25 13.35 Q3.0 12.1 3.9 11.1 L4.0 10.85 Q3.4 11.6 2.75 12.25 2.4 12.8 1.95 13.35 1.25 14.1 0.45 14.5 L2.2 12.4 Q2.95 11.25 3.8 10.05 L4.4 9.3 Q4.45 8.95 4.65 8.65 4.55 8.25 4.65 7.7 L4.75 7.45 Q4.9 6.3 5.8 5.25 L5.85 5.2 Q6.1 4.55 6.45 3.9 7.0 2.8 7.7 2.0 7.85 1.75 8.05 1.55 L8.25 1.6 Q8.3 1.6 8.3 1.65 L8.3 1.6 8.35 1.55 8.45 1.6 8.55 1.6 8.7 1.55 Q9.05 1.5 9.4 1.65 9.6 1.35 9.85 1.1 9.85 1.0 9.95 0.85 10.1 0.5 10.3 0.25 10.6 -0.1 11.05 -0.2 11.15 -0.3 11.3 -0.4 M12.05 4.6 Q12.15 4.7 12.2 4.85 12.45 5.3 12.5 5.95 L12.5 6.35 Q12.7 7.2 12.4 8.1 12.25 8.65 12.0 8.8 L13.35 10.3 14.9 11.95 Q13.4 11.05 12.1 9.5 L11.9 9.25 12.1 9.75 Q12.6 10.8 13.3 11.55 12.1 11.2 11.4 9.55 11.1 8.85 11.0 8.15 10.6 7.35 10.75 6.15 10.8 5.6 11.05 5.2 L11.2 4.9 Q11.35 4.5 11.75 4.4 11.95 4.4 12.05 4.6 M11.7 4.9 L11.55 5.35 Q11.95 5.3 12.05 5.7 L12.2 6.25 Q12.0 6.65 11.65 6.35 11.55 6.3 11.45 6.15 11.55 6.1 11.7 6.2 11.9 6.35 12.0 6.2 L12.0 5.85 Q11.9 5.5 11.6 5.55 L11.55 5.65 11.75 5.65 11.8 5.75 11.85 5.8 11.9 5.95 Q11.65 6.1 11.55 5.95 L11.4 5.75 11.35 5.8 11.3 6.35 Q11.25 6.75 11.3 7.15 11.35 7.65 11.45 8.15 L11.75 8.45 Q12.35 8.0 12.25 6.75 L12.25 6.3 12.0 5.6 Q11.85 5.15 11.9 4.85 11.75 4.85 11.7 4.9 M9.55 3.85 Q9.85 3.85 9.95 4.1 L9.95 4.15 9.8 4.2 Q9.95 4.45 9.95 4.75 10.0 5.5 9.65 6.35 9.3 7.15 8.75 7.7 L8.75 7.65 Q8.55 8.0 8.2 8.3 7.85 8.55 7.5 8.65 6.95 9.0 6.3 9.15 L6.25 9.15 7.85 7.95 8.15 7.7 7.95 7.65 7.75 7.75 Q7.25 8.05 6.75 8.15 6.9 7.85 7.45 7.6 L7.8 7.45 7.75 7.45 Q7.65 7.25 7.7 6.75 7.55 6.15 7.9 5.35 8.2 4.65 8.7 4.3 8.9 3.95 9.2 3.9 L9.55 3.85 M8.2 6.05 L8.15 6.15 8.1 6.35 Q8.1 6.5 8.1 6.65 L8.2 7.0 8.3 7.25 8.65 7.1 8.75 7.1 8.9 7.0 Q9.05 6.25 9.35 5.45 L9.55 4.9 9.55 4.65 9.5 4.55 Q9.45 4.4 9.35 4.35 9.2 4.45 9.1 4.55 9.3 4.55 9.4 4.8 9.5 5.05 9.4 5.25 9.05 5.35 8.85 4.95 L8.85 4.9 8.7 5.1 8.55 5.35 8.55 5.4 Q8.35 5.7 8.2 6.05 M9.2 4.7 Q9.05 4.7 9.05 4.9 9.1 5.05 9.2 5.05 9.3 5.0 9.3 4.85 9.25 4.75 9.2 4.7 M5.15 8.8 L5.05 9.3 5.2 9.1 5.15 8.8 M5.65 12.75 L5.7 12.6 6.1 11.7 6.1 11.65 Q5.9 11.8 5.7 11.85 5.8 11.5 6.0 11.2 L6.05 11.15 Q6.1 10.95 6.25 10.75 6.65 10.35 7.1 10.2 L7.3 10.2 7.3 10.25 7.9 10.15 7.95 10.15 Q8.65 10.15 9.3 10.5 9.65 10.65 9.9 11.0 10.05 11.15 10.2 11.35 L10.15 11.3 10.2 11.3 Q10.4 11.4 10.5 11.6 L10.55 11.65 Q10.85 11.95 10.9 12.45 10.95 12.85 10.85 13.2 L10.6 12.5 10.6 12.6 Q10.55 14.55 10.65 16.5 L10.8 18.3 Q10.9 19.0 11.05 19.7 L10.85 19.15 10.85 19.55 Q10.65 18.8 10.5 17.95 10.25 16.7 10.25 15.4 L10.15 15.5 9.9 15.6 Q9.85 15.7 9.8 15.7 9.7 15.55 9.7 15.4 9.5 15.65 9.25 15.8 L9.4 15.8 9.25 15.95 9.05 15.85 9.05 15.9 Q8.85 15.8 8.8 15.55 8.8 15.35 8.9 15.25 L8.95 15.2 9.0 15.35 9.1 15.55 9.15 15.7 Q9.6 15.2 9.85 14.45 L10.0 14.05 9.85 13.85 Q9.65 13.45 9.4 13.8 L9.35 13.75 Q9.4 14.35 9.0 15.0 L8.75 15.3 8.5 15.65 Q8.0 16.3 7.5 15.85 L7.65 15.85 Q7.2 15.55 7.25 14.75 7.15 14.35 7.25 13.85 7.4 13.35 7.65 13.0 L7.5 12.9 7.4 12.8 7.25 12.7 Q7.1 12.6 6.9 12.6 6.6 12.6 6.4 12.75 6.4 13.05 6.35 13.5 6.15 14.3 6.4 15.1 L6.7 15.45 7.0 15.7 Q7.0 15.6 7.05 15.5 7.15 15.35 7.25 15.35 7.4 15.5 7.2 15.75 7.1 15.9 6.95 15.8 L6.95 15.75 Q6.6 15.75 6.35 15.35 L6.25 15.2 Q6.0 14.95 5.95 14.5 5.95 14.6 5.85 14.8 L5.75 14.9 5.8 15.0 Q5.5 15.1 5.4 14.7 L5.35 14.65 4.8 16.05 Q4.4 16.95 3.95 17.75 L4.0 17.65 3.95 17.7 3.35 18.65 Q3.5 17.9 3.9 17.1 L3.95 17.05 5.35 13.5 5.65 12.75 M5.65 14.6 Q5.75 14.4 5.9 14.35 L5.95 14.35 5.9 14.15 Q5.9 13.5 6.15 13.0 6.1 12.95 6.05 12.8 L5.5 14.4 5.6 14.65 5.65 14.6 M9.05 10.95 Q8.25 10.6 7.5 10.5 L7.55 10.55 Q6.95 10.6 6.55 11.1 L6.5 11.3 6.7 12.0 Q6.8 12.25 6.95 12.4 L7.25 12.5 7.15 12.35 7.1 12.2 Q6.9 11.9 7.0 11.35 L7.0 11.25 6.85 11.1 Q6.75 10.9 6.9 10.85 L7.05 11.05 7.05 11.1 Q7.15 10.85 7.35 10.75 L7.4 10.7 7.45 10.6 7.5 10.6 Q8.1 10.75 8.2 11.4 L8.2 11.65 Q8.6 11.1 9.15 11.0 L9.2 11.05 9.25 11.05 9.05 10.95 M9.7 11.85 Q9.65 11.85 9.65 11.8 L9.8 11.7 9.95 11.65 Q10.1 11.6 10.2 11.75 L10.3 11.9 Q10.35 12.1 10.35 12.3 L10.4 12.3 10.4 12.1 10.25 11.6 Q9.85 11.35 9.35 11.1 9.85 11.6 9.5 12.35 9.3 12.8 9.0 12.95 L9.15 13.1 9.25 13.3 Q9.25 13.2 9.35 13.1 L9.5 13.05 Q9.8 12.75 10.1 12.25 L10.2 12.0 10.05 12.0 9.7 11.85 M9.3 11.1 Q8.85 11.3 8.5 11.75 L8.25 12.1 8.15 12.3 Q8.1 12.5 8.1 12.65 L8.1 12.7 8.15 12.7 8.35 12.65 Q8.7 12.6 8.95 12.85 9.25 12.35 9.35 11.8 9.4 11.4 9.3 11.1 M7.3 12.05 L7.45 12.4 7.55 12.7 7.55 12.75 7.8 12.8 7.85 12.8 7.75 12.75 Q7.7 12.7 7.8 12.55 L7.9 12.4 7.95 12.4 Q7.9 12.3 7.95 12.2 L8.0 12.15 Q8.0 12.05 8.05 11.9 L7.95 11.4 Q7.85 10.9 7.4 10.75 7.25 11.1 7.25 11.65 L7.3 12.05 M7.55 13.95 Q7.35 14.75 7.65 15.5 L7.55 15.35 Q7.6 15.6 7.75 15.8 L7.95 15.7 Q8.7 15.05 9.05 14.0 9.15 13.7 9.15 13.4 L8.8 13.15 Q8.45 12.85 8.05 12.85 L7.9 13.05 Q7.6 13.4 7.55 13.95 M6.25 12.75 Q6.35 12.5 6.6 12.4 6.45 12.25 6.35 11.9 L6.15 12.55 6.25 12.75 M10.3 13.1 L10.35 12.75 10.35 12.5 10.3 12.5 Q10.2 12.7 10.0 12.95 9.85 13.15 9.6 13.2 L9.6 13.25 9.65 13.4 9.65 13.35 9.9 13.45 9.95 13.4 10.0 13.4 10.25 13.1 10.3 13.1 M10.2 13.55 L10.05 13.6 10.1 13.75 10.15 13.7 10.2 13.6 10.2 13.55 M10.15 13.9 Q10.2 14.1 10.15 14.3 L10.1 14.25 Q10.1 14.65 9.9 15.1 9.95 15.15 9.95 15.3 L10.1 15.15 Q10.15 15.1 10.25 15.05 10.15 14.5 10.2 13.9 L10.15 13.9 M9.35 13.6 L9.45 13.45 9.45 13.35 9.25 13.35 9.35 13.65 9.35 13.6" fill="#111111" fill-rule="evenodd" stroke="none"/>
    <path d="M12.1 7.35 Q12.05 7.6 11.85 7.85 11.6 7.85 11.45 7.6 L11.45 7.55 Q11.9 7.55 11.9 6.95 11.9 6.7 11.95 6.55 12.2 6.9 12.1 7.35 M8.25 6.5 Q8.65 6.45 8.8 6.0 8.8 5.85 8.9 5.8 9.0 6.25 8.65 6.6 8.35 6.85 8.25 6.5 M8.15 6.1 Q8.45 6.2 8.25 6.2 8.05 6.25 8.15 6.1 M9.05 4.95 Q9.15 4.95 9.2 5.1 9.25 5.2 9.2 5.3 9.1 5.35 9.0 5.2 L8.95 5.05 9.0 5.0 9.0 4.95 9.05 4.95 M11.15 7.3 Q11.1 7.25 11.15 7.2 L11.3 7.3 11.3 7.4 Q11.2 7.45 11.15 7.3" fill="#ffffff" fill-rule="evenodd" stroke="none"/>
  </g>
  <defs>
    <radialGradient cx="0" cy="0" fx="428.8" fy="0" gradientTransform="matrix(0.0029, -0.0096, 0.0167, 0.0049, 10.9, 7.7)" gradientUnits="userSpaceOnUse" id="gradient0" r="819.2" spreadMethod="pad">
      <stop offset="0.0" stop-color="#edd6d6"/>
      <stop offset="1.0" stop-color="#c57676"/>
    </radialGradient>
  </defs>
</svg>
