<?xml version="1.0" encoding="UTF-8" standalone="no"?>
<svg xmlns:ffdec="https://www.free-decompiler.com/flash" xmlns:xlink="http://www.w3.org/1999/xlink" ffdec:objectType="shape" height="26.4px" width="22.95px" xmlns="http://www.w3.org/2000/svg">
  <g transform="matrix(1.0, 0.0, 0.0, 1.0, 5.65, 0.75)">
    <path d="M15.0 14.65 L14.0 15.1 Q11.45 19.15 10.3 23.6 L8.0 24.55 8.1 24.1 Q8.05 23.95 7.9 23.85 7.7 23.75 7.45 23.8 7.15 23.8 7.0 24.1 L6.95 24.2 6.9 24.1 6.7 24.2 5.9 24.0 Q6.3 24.05 6.5 23.55 6.45 23.25 6.15 23.1 L5.75 22.95 Q5.55 23.0 5.3 23.15 5.2 23.2 5.15 23.25 5.0 23.15 4.85 23.15 4.6 23.15 4.45 23.4 4.45 23.45 4.4 23.55 L4.4 23.6 3.75 23.4 3.65 23.3 3.85 23.1 3.95 22.9 4.0 22.75 Q3.95 22.5 3.7 22.3 3.55 22.15 3.25 22.15 L3.1 22.2 3.05 22.25 Q3.0 22.05 2.85 21.95 2.65 21.8 2.4 21.75 L2.2 21.8 2.2 21.75 Q2.05 21.55 1.8 21.5 L1.8 21.55 Q1.55 21.5 1.4 21.75 L1.35 21.85 1.35 22.0 Q1.2 22.0 1.1 22.1 L1.0 22.2 Q0.4 21.85 -0.15 21.45 0.0 21.3 0.05 21.1 0.1 20.7 -0.3 20.6 L-0.75 20.75 -0.9 20.65 -1.1 20.7 -1.4 20.45 -1.2 20.4 Q-0.75 20.3 -0.7 19.85 -0.75 19.65 -0.95 19.65 L-1.4 19.6 Q-1.55 19.6 -1.7 19.75 L-1.85 19.9 -1.85 20.0 -2.4 19.3 Q-2.4 19.2 -2.4 19.15 -2.25 19.2 -2.05 19.05 -1.85 18.85 -1.75 18.6 -1.8 18.45 -2.0 18.4 L-2.25 18.3 Q-2.65 18.3 -2.7 18.7 -2.7 18.8 -2.65 18.9 L-2.75 18.85 -3.15 18.1 Q-3.05 18.1 -2.9 17.95 -2.85 17.7 -3.0 17.5 L-3.15 17.4 Q-2.85 16.95 -3.35 16.8 -3.55 16.8 -3.65 16.95 -3.85 16.5 -3.95 16.05 -3.9 15.85 -3.95 15.65 L-4.05 15.5 -4.05 15.45 -3.85 15.3 Q-3.75 15.1 -3.8 14.9 -3.95 14.65 -4.15 14.55 L-4.2 14.1 Q-3.6 14.05 -4.2 13.85 L-4.2 13.75 Q-4.1 13.9 -3.9 13.85 L-3.85 13.9 Q-3.3 14.7 -2.9 13.75 -3.0 13.55 -3.25 13.6 L-3.65 13.6 Q-3.55 13.35 -3.9 13.2 L-4.1 13.25 Q-4.1 13.1 -4.15 13.0 L-4.15 12.8 -3.95 12.75 Q-3.8 12.75 -3.65 12.65 -3.15 12.2 -3.85 12.0 L-4.0 12.05 -4.1 12.1 -4.05 11.8 -3.85 11.85 Q-3.5 11.85 -3.35 11.55 -3.4 11.35 -3.55 11.25 -3.7 11.1 -3.95 11.1 L-3.85 10.65 Q-3.35 10.75 -3.8 10.4 L-3.8 10.35 Q-3.2 10.55 -3.7 10.05 L-3.55 9.45 Q-3.45 9.5 -3.3 9.4 -2.85 9.15 -3.1 8.85 L-3.4 8.85 -3.3 8.55 -3.2 8.45 Q-2.95 8.1 -3.1 7.9 L-2.95 7.5 Q-4.65 6.5 -1.45 6.15 0.95 6.55 2.85 6.1 L5.65 4.8 7.4 2.75 7.5 2.65 8.5 1.45 9.1 1.2 14.85 1.45 15.2 1.85 16.35 7.0 14.65 12.65 15.0 14.65 M12.55 2.2 L12.45 2.35 Q12.45 3.0 13.0 3.3 13.8 3.75 14.55 3.8 14.8 3.25 14.35 2.8 13.75 2.2 12.95 2.05 12.85 2.05 12.75 2.1 L12.55 2.2 M13.2 10.4 Q13.75 10.2 13.4 9.95 L13.15 10.05 Q12.8 10.2 12.6 10.45 L13.2 10.4 M11.65 13.25 Q11.6 13.4 11.6 13.6 11.7 13.9 12.0 13.85 12.55 13.85 12.6 13.35 12.55 13.2 12.45 13.1 12.3 13.0 12.15 12.95 11.8 12.95 11.65 13.25 M13.9 13.15 L13.85 13.15 Q13.9 13.4 13.8 13.55 13.65 13.8 13.55 14.05 13.8 14.35 14.1 13.95 14.5 13.45 14.1 13.05 L14.0 13.05 13.9 13.15 M2.1 6.75 L1.75 6.85 Q1.4 7.0 1.2 7.3 L1.7 7.15 Q2.25 7.0 2.1 6.75 M5.5 6.0 Q5.35 6.05 5.2 6.1 5.1 6.2 5.05 6.25 L4.75 6.5 Q4.2 6.95 3.85 7.55 L3.65 7.5 Q3.1 7.9 3.7 7.8 4.05 7.7 4.0 7.65 L4.45 7.4 Q4.35 7.55 4.4 7.75 4.0 7.95 4.5 8.05 L4.75 8.05 Q5.15 8.1 5.45 7.75 6.15 7.1 5.4 6.7 6.1 6.1 6.25 5.7 5.85 5.8 5.5 6.0 M3.6 8.8 L3.3 8.7 Q3.15 8.75 3.0 8.9 L2.9 9.05 Q2.9 9.35 3.05 9.55 3.15 9.75 3.3 9.9 3.45 9.9 3.6 9.85 3.65 10.0 3.85 10.1 4.4 10.35 4.65 9.8 4.65 9.55 4.45 9.4 4.25 9.25 4.0 9.3 L3.85 9.35 Q3.9 9.15 3.8 8.95 3.7 8.85 3.6 8.8 M6.7 8.45 L7.0 8.35 7.2 8.2 7.25 8.05 Q7.25 7.8 7.05 7.6 6.9 7.45 6.65 7.45 6.1 7.6 6.05 8.15 6.0 8.8 6.5 8.9 L6.6 8.8 6.65 8.6 6.7 8.5 6.7 8.45 M3.45 10.65 Q3.0 10.65 2.95 11.0 L2.95 11.2 Q3.05 11.7 3.55 11.55 4.0 11.45 4.05 11.0 3.95 10.85 3.8 10.8 3.65 10.7 3.45 10.6 L3.45 10.65 M2.5 8.55 Q2.4 8.5 2.3 8.5 L1.9 8.7 1.85 8.8 Q1.85 9.0 1.9 9.2 2.0 9.7 2.55 9.6 L2.65 9.5 Q2.75 9.25 2.75 9.0 2.75 8.85 2.7 8.7 L2.5 8.55 M4.6 10.5 Q4.3 10.5 4.2 10.8 4.2 10.95 4.25 11.15 4.55 11.5 4.8 11.15 5.1 10.65 4.6 10.5 M8.15 9.85 L7.55 9.9 Q7.55 10.15 7.9 10.05 8.1 10.0 8.15 9.85 M7.1 8.8 Q6.55 9.1 7.15 9.05 7.65 8.95 7.1 8.8 M6.45 14.0 L6.35 14.0 5.75 14.15 Q5.5 14.2 5.4 14.4 L6.0 14.3 Q6.3 14.2 6.45 14.0 M7.85 11.4 L8.4 11.35 Q8.95 11.15 9.0 10.85 8.7 10.85 8.35 10.95 7.95 11.1 7.85 11.4 M7.45 13.95 L7.45 14.1 Q7.55 14.5 7.85 14.25 8.35 13.9 7.8 13.65 L7.65 13.7 Q7.45 13.75 7.45 13.95 M7.1 13.55 Q6.8 13.6 6.75 13.85 6.7 14.05 6.75 14.2 7.05 14.45 7.3 14.15 7.7 13.7 7.1 13.55 M10.8 11.4 L10.75 11.5 10.7 11.45 10.7 11.5 Q10.5 11.5 10.45 11.7 L10.45 11.75 10.15 12.05 10.45 11.95 10.45 12.0 Q10.65 12.05 10.8 11.9 L10.85 11.7 Q11.25 11.45 11.25 11.15 11.0 11.2 10.8 11.4 M7.3 16.35 Q7.6 17.0 8.05 16.5 8.15 16.25 7.95 16.05 7.8 15.9 7.55 15.9 7.15 15.95 7.3 16.35 M7.6 15.2 Q8.0 14.75 7.45 14.55 7.2 14.65 7.05 14.9 7.0 15.0 7.05 15.15 7.25 15.55 7.6 15.2 M9.45 16.6 L9.5 16.8 Q9.8 17.0 10.1 16.85 10.3 16.75 10.4 16.55 10.4 16.3 10.25 16.15 10.1 15.95 9.85 15.95 L9.6 16.05 9.5 16.1 9.45 16.2 9.4 16.35 Q9.4 16.5 9.45 16.6 M9.25 15.0 Q8.8 15.0 8.7 15.5 8.65 15.7 8.8 15.9 9.15 16.3 9.55 16.0 9.9 15.75 9.85 15.35 9.8 15.15 9.6 15.05 L9.25 14.95 9.25 15.0 M11.0 14.1 Q10.65 14.15 10.55 14.45 10.5 14.55 10.5 14.7 10.55 14.95 10.8 15.0 11.45 15.15 11.6 14.6 L11.4 14.3 Q11.25 14.1 11.0 14.1 M9.85 12.15 Q9.6 12.1 9.45 12.3 L9.45 12.4 9.4 12.65 9.4 12.8 Q9.7 13.15 10.0 12.9 10.45 12.45 10.05 12.15 L9.85 12.15 M2.85 18.5 Q2.75 18.45 2.65 18.4 L2.5 18.4 Q2.2 18.5 2.0 18.7 1.85 18.85 1.85 19.0 2.05 18.95 2.35 18.75 2.55 18.6 2.85 18.5 M8.25 16.8 Q7.9 16.95 7.65 17.25 7.35 17.55 7.2 17.85 7.5 17.85 7.85 17.55 8.35 17.1 8.25 16.8 M0.7 20.8 Q0.35 20.8 0.25 21.1 0.25 21.25 0.3 21.35 0.35 21.65 0.7 21.7 1.1 21.75 1.2 21.35 1.25 21.1 1.1 20.95 0.95 20.8 0.7 20.75 L0.7 20.8 M-0.2 10.4 L-0.45 10.35 -0.5 10.4 Q-0.6 10.45 -0.5 10.5 -0.3 10.6 -0.1 10.5 0.0 10.4 -0.2 10.4 M-0.3 12.95 L-0.85 12.9 -0.85 12.95 -1.1 12.95 -1.2 13.05 Q-1.0 13.2 -0.7 13.3 -0.2 13.4 0.05 13.15 -0.05 13.0 -0.3 12.95 M-0.1 6.6 Q-0.2 6.75 0.1 6.6 0.15 6.55 -0.1 6.6" fill="url(#gradient0)" fill-rule="evenodd" stroke="none"/>
    <path d="M12.55 2.2 L12.75 2.1 Q12.85 2.05 12.95 2.05 13.75 2.2 14.35 2.8 14.8 3.25 14.55 3.8 13.8 3.75 13.0 3.3 12.45 3.0 12.45 2.35 L12.55 2.2 M13.95 13.35 Q13.95 13.2 14.1 13.15 14.25 13.25 14.3 13.45 14.3 13.55 14.15 13.65 13.9 13.55 13.95 13.35 M5.05 6.25 Q5.1 6.2 5.2 6.1 5.35 6.05 5.5 6.0 L5.6 6.0 5.7 6.1 5.7 6.15 5.4 6.4 5.05 6.4 Q5.0 6.35 5.05 6.25 M8.6 11.0 L8.6 10.95 Q9.05 11.0 8.75 11.2 8.5 11.35 8.3 11.25 8.3 11.2 8.35 11.15 8.45 11.0 8.6 11.0" fill="#fffdff" fill-rule="evenodd" stroke="none"/>
    <path d="M13.2 10.4 L12.6 10.45 Q12.8 10.2 13.15 10.05 L13.4 9.95 Q13.75 10.2 13.2 10.4 M13.9 13.15 L14.0 13.05 14.1 13.05 Q14.5 13.45 14.1 13.95 13.8 14.35 13.55 14.05 13.65 13.8 13.8 13.55 13.9 13.4 13.85 13.15 L13.9 13.15 M13.95 13.35 Q13.9 13.55 14.15 13.65 14.3 13.55 14.3 13.45 14.25 13.25 14.1 13.15 13.95 13.2 13.95 13.35 M2.1 6.75 Q2.25 7.0 1.7 7.15 L1.2 7.3 Q1.4 7.0 1.75 6.85 L2.1 6.75 M5.05 6.25 Q5.0 6.35 5.05 6.4 L5.4 6.4 5.7 6.15 5.7 6.1 5.6 6.0 5.5 6.0 Q5.85 5.8 6.25 5.7 6.1 6.1 5.4 6.7 L5.35 6.75 4.45 7.4 4.0 7.65 3.75 7.75 3.85 7.55 Q4.2 6.95 4.75 6.5 L5.05 6.25 M8.15 9.85 Q8.1 10.0 7.9 10.05 7.55 10.15 7.55 9.9 L8.15 9.85 M8.6 11.0 Q8.45 11.0 8.35 11.15 8.3 11.2 8.3 11.25 8.5 11.35 8.75 11.2 9.05 11.0 8.6 10.95 L8.6 11.0 M7.85 11.4 Q7.95 11.1 8.35 10.95 8.7 10.85 9.0 10.85 8.95 11.15 8.4 11.35 L7.85 11.4 M6.45 14.0 Q6.3 14.2 6.0 14.3 L5.4 14.4 Q5.5 14.2 5.75 14.15 L6.35 14.0 6.45 14.0 M10.8 11.4 Q11.0 11.2 11.25 11.15 11.25 11.45 10.85 11.7 L10.8 11.9 Q10.65 12.05 10.45 12.0 L10.45 11.95 10.15 12.05 10.45 11.75 10.45 11.7 Q10.5 11.5 10.7 11.5 L10.7 11.45 10.75 11.5 10.8 11.4 M8.25 16.8 Q8.35 17.1 7.85 17.55 7.5 17.85 7.2 17.85 7.35 17.55 7.65 17.25 7.9 16.95 8.25 16.8 M2.85 18.5 Q2.55 18.6 2.35 18.75 2.05 18.95 1.85 19.0 1.85 18.85 2.0 18.7 2.2 18.5 2.5 18.4 L2.65 18.4 Q2.75 18.45 2.85 18.5 M-0.2 10.4 Q0.0 10.4 -0.1 10.5 -0.3 10.6 -0.5 10.5 -0.6 10.45 -0.5 10.4 L-0.45 10.35 -0.2 10.4 M-0.3 12.95 Q-0.05 13.0 0.05 13.15 -0.2 13.4 -0.7 13.3 -1.0 13.2 -1.2 13.05 L-1.1 12.95 -0.85 12.95 -0.85 12.9 -0.3 12.95 M-0.1 6.6 Q0.15 6.55 0.1 6.6 -0.2 6.75 -0.1 6.6" fill="#e6c4c4" fill-rule="evenodd" stroke="none"/>
    <path d="M8.0 24.55 L7.8 24.65 Q7.4 24.8 7.2 24.65 7.2 24.95 6.9 25.35 6.5 25.9 5.95 25.45 5.6 24.9 6.1 24.55 6.4 24.35 6.7 24.2 L6.9 24.1 6.95 24.2 7.0 24.1 Q7.15 23.8 7.45 23.8 7.7 23.75 7.9 23.85 8.05 23.95 8.1 24.1 L8.0 24.55 M5.9 24.0 L5.85 24.0 5.8 24.15 5.65 24.25 Q5.6 24.6 5.25 24.65 L5.2 24.65 Q5.5 25.0 4.95 25.35 4.4 25.65 4.15 25.2 4.1 24.8 4.45 24.65 L4.65 24.55 Q4.55 24.45 4.5 24.25 L4.55 24.2 4.65 24.0 4.45 23.8 Q4.4 23.7 4.4 23.6 L4.4 23.55 Q4.45 23.45 4.45 23.4 4.6 23.15 4.85 23.15 5.0 23.15 5.15 23.25 5.2 23.2 5.3 23.15 5.55 23.0 5.75 22.95 L6.15 23.1 Q6.45 23.25 6.5 23.55 6.3 24.05 5.9 24.0 M3.75 23.4 L3.75 23.45 Q4.0 23.45 4.15 23.65 4.25 23.85 4.2 24.1 4.15 24.3 3.95 24.4 3.65 24.55 3.45 24.3 3.3 24.2 3.3 24.0 L3.15 24.25 Q2.85 24.6 2.45 24.3 L2.35 24.25 Q2.25 23.9 2.45 23.6 L2.55 23.45 Q2.1 23.6 1.85 23.15 1.85 23.0 1.9 22.85 L1.95 22.75 Q1.9 22.7 1.85 22.65 L1.65 22.55 Q1.6 22.7 1.45 22.85 1.1 23.0 0.9 22.7 L0.85 22.65 Q0.8 22.45 0.9 22.35 L1.0 22.2 1.1 22.1 Q1.2 22.0 1.35 22.0 L1.35 21.85 1.4 21.75 Q1.55 21.5 1.8 21.55 L1.8 21.5 Q2.05 21.55 2.2 21.75 L2.2 21.8 2.4 21.75 Q2.65 21.8 2.85 21.95 3.0 22.05 3.05 22.25 L3.1 22.2 3.25 22.15 Q3.55 22.15 3.7 22.3 3.95 22.5 4.0 22.75 L3.95 22.9 3.85 23.1 3.65 23.3 3.75 23.4 M-0.15 21.45 L-0.25 21.5 Q-0.85 21.9 -1.25 21.35 -1.35 21.25 -1.4 21.1 -1.4 20.9 -1.2 20.8 L-1.1 20.7 -0.9 20.65 -0.75 20.75 -0.3 20.6 Q0.1 20.7 0.05 21.1 0.0 21.3 -0.15 21.45 M-1.4 20.45 Q-1.75 20.5 -1.85 20.1 L-1.85 20.0 -1.85 19.9 -1.7 19.75 Q-1.55 19.6 -1.4 19.6 L-0.95 19.65 Q-0.75 19.65 -0.7 19.85 -0.75 20.3 -1.2 20.4 L-1.4 20.45 M-2.4 19.3 Q-2.5 19.4 -2.65 19.55 L-2.85 19.7 Q-2.5 19.8 -2.6 20.2 -2.7 20.5 -3.05 20.55 -3.55 20.45 -3.4 19.95 -3.35 19.75 -3.2 19.7 -3.3 19.65 -3.4 19.45 L-3.4 19.35 -3.35 19.2 -3.25 19.05 -2.95 18.9 -2.75 18.85 -2.65 18.9 Q-2.7 18.8 -2.7 18.7 -2.65 18.3 -2.25 18.3 L-2.0 18.4 Q-1.8 18.45 -1.75 18.6 -1.85 18.85 -2.05 19.05 -2.25 19.2 -2.4 19.15 -2.4 19.2 -2.4 19.3 M-3.15 18.1 L-3.25 18.1 Q-3.15 18.3 -3.15 18.55 -3.15 18.9 -3.5 19.1 -3.75 19.25 -4.05 19.0 L-4.2 18.85 Q-4.3 18.4 -3.95 18.2 L-3.5 17.95 -3.6 17.8 Q-3.75 17.55 -3.65 17.45 L-3.7 17.35 Q-3.85 17.55 -4.05 17.65 -4.45 17.85 -4.5 17.4 L-4.5 17.25 Q-4.5 17.15 -4.45 17.05 L-4.45 16.8 Q-4.45 16.45 -4.15 16.4 -3.75 16.55 -3.75 16.95 L-3.75 17.15 -3.65 16.95 Q-3.55 16.8 -3.35 16.8 -2.85 16.95 -3.15 17.4 L-3.0 17.5 Q-2.85 17.7 -2.9 17.95 -3.05 18.1 -3.15 18.1 M-3.95 16.05 L-4.0 16.2 Q-4.25 16.55 -4.65 16.35 -4.85 16.25 -5.0 16.1 -5.05 15.8 -4.9 15.6 -4.8 15.45 -4.65 15.35 L-4.75 15.3 Q-4.85 15.2 -4.85 15.0 -4.85 14.65 -4.45 14.6 L-4.2 14.55 -4.15 14.55 Q-3.95 14.65 -3.8 14.9 -3.75 15.1 -3.85 15.3 L-4.05 15.45 -4.1 15.45 -4.05 15.5 -3.95 15.65 Q-3.9 15.85 -3.95 16.05 M-4.2 14.1 L-4.35 14.1 Q-4.95 14.15 -4.4 13.8 L-4.2 13.85 Q-3.6 14.05 -4.2 14.1 M-4.2 13.75 L-4.25 13.6 -4.25 13.55 Q-4.6 13.95 -4.95 13.55 L-4.95 13.45 Q-5.1 13.45 -5.25 13.4 -5.4 13.3 -5.45 13.15 L-5.4 12.9 Q-5.35 12.55 -5.05 12.55 L-4.9 12.5 -4.5 12.55 -4.55 12.35 Q-4.6 12.1 -4.3 12.05 L-4.15 12.15 -4.1 12.1 -4.0 12.05 -3.85 12.0 Q-3.15 12.2 -3.65 12.65 -3.8 12.75 -3.95 12.75 L-4.15 12.8 Q-4.3 12.85 -4.4 12.7 L-4.45 12.8 Q-4.25 12.9 -4.15 13.0 -4.1 13.1 -4.1 13.25 L-3.9 13.2 Q-3.55 13.35 -3.65 13.6 L-3.25 13.6 Q-3.0 13.55 -2.9 13.75 -3.3 14.7 -3.85 13.9 L-3.9 13.85 Q-4.1 13.9 -4.2 13.75 M-4.05 11.8 Q-4.25 11.75 -4.35 11.55 L-4.3 11.35 Q-4.3 11.2 -4.15 11.15 L-3.95 11.05 -3.95 11.1 Q-3.7 11.1 -3.55 11.25 -3.4 11.35 -3.35 11.55 -3.5 11.85 -3.85 11.85 L-4.05 11.8 M-3.85 10.65 L-4.0 10.6 Q-4.45 10.5 -3.9 10.35 L-3.8 10.4 Q-3.35 10.75 -3.85 10.65 M-3.8 10.35 L-3.85 10.3 Q-4.25 10.15 -3.75 10.0 L-3.7 10.05 Q-3.2 10.55 -3.8 10.35 M-3.55 9.45 L-3.65 9.45 -3.65 9.5 Q-3.7 9.7 -3.8 9.85 -4.05 9.85 -4.1 9.55 -4.45 9.65 -4.45 9.2 -4.5 8.85 -4.15 8.85 -3.95 8.85 -3.85 9.05 L-3.85 9.15 -3.8 9.15 Q-3.8 9.0 -3.6 8.9 L-3.4 8.85 -3.1 8.85 Q-2.85 9.15 -3.3 9.4 -3.45 9.5 -3.55 9.45 M-3.3 8.55 Q-3.55 8.75 -3.8 8.4 L-3.85 8.3 -3.85 8.15 Q-3.9 8.0 -3.8 7.9 L-3.7 7.8 -3.6 7.75 -3.55 7.75 Q-3.5 7.7 -3.35 7.7 L-3.35 7.65 Q-3.25 7.75 -3.2 7.85 L-3.1 7.9 Q-2.95 8.1 -3.2 8.45 L-3.3 8.55 M11.65 13.25 Q11.8 12.95 12.15 12.95 12.3 13.0 12.45 13.1 12.55 13.2 12.6 13.35 12.55 13.85 12.0 13.85 11.7 13.9 11.6 13.6 11.6 13.4 11.65 13.25 M5.4 6.7 Q6.15 7.1 5.45 7.75 5.15 8.1 4.75 8.05 L4.5 8.05 Q4.0 7.95 4.4 7.75 4.35 7.55 4.45 7.4 L5.35 6.75 5.4 6.7 M4.0 7.65 Q4.05 7.7 3.7 7.8 3.1 7.9 3.65 7.5 L3.85 7.55 3.75 7.75 4.0 7.65 M3.6 8.8 Q3.7 8.85 3.8 8.95 3.9 9.15 3.85 9.35 L4.0 9.3 Q4.25 9.25 4.45 9.4 4.65 9.55 4.65 9.8 4.4 10.35 3.85 10.1 3.65 10.0 3.6 9.85 3.45 9.9 3.3 9.9 3.15 9.75 3.05 9.55 2.9 9.35 2.9 9.05 L3.0 8.9 Q3.15 8.75 3.3 8.7 L3.6 8.8 M4.6 10.5 Q5.1 10.65 4.8 11.15 4.55 11.5 4.25 11.15 4.2 10.95 4.2 10.8 4.3 10.5 4.6 10.5 M2.5 8.55 L2.7 8.7 Q2.75 8.85 2.75 9.0 2.75 9.25 2.65 9.5 L2.55 9.6 Q2.0 9.7 1.9 9.2 1.85 9.0 1.85 8.8 L1.9 8.7 2.3 8.5 Q2.4 8.5 2.5 8.55 M3.45 10.65 L3.45 10.6 Q3.65 10.7 3.8 10.8 3.95 10.85 4.05 11.0 4.0 11.45 3.55 11.55 3.05 11.7 2.95 11.2 L2.95 11.0 Q3.0 10.65 3.45 10.65 M6.7 8.45 L6.7 8.5 6.65 8.6 6.6 8.8 6.5 8.9 Q6.0 8.8 6.05 8.15 6.1 7.6 6.65 7.45 6.9 7.45 7.05 7.6 7.25 7.8 7.25 8.05 L7.2 8.2 7.0 8.35 6.7 8.45 M7.1 8.8 Q7.65 8.95 7.15 9.05 6.55 9.1 7.1 8.8 M7.1 13.55 Q7.7 13.7 7.3 14.15 7.05 14.45 6.75 14.2 6.7 14.05 6.75 13.85 6.8 13.6 7.1 13.55 M7.45 13.95 Q7.45 13.75 7.65 13.7 L7.8 13.65 Q8.35 13.9 7.85 14.25 7.55 14.5 7.45 14.1 L7.45 13.95 M9.85 12.15 L10.05 12.15 Q10.45 12.45 10.0 12.9 9.7 13.15 9.4 12.8 L9.4 12.65 9.45 12.4 9.45 12.3 Q9.6 12.1 9.85 12.15 M11.0 14.1 Q11.25 14.1 11.4 14.3 L11.6 14.6 Q11.45 15.15 10.8 15.0 10.55 14.95 10.5 14.7 10.5 14.55 10.55 14.45 10.65 14.15 11.0 14.1 M9.25 15.0 L9.25 14.95 9.6 15.05 Q9.8 15.15 9.85 15.35 9.9 15.75 9.55 16.0 9.15 16.3 8.8 15.9 8.65 15.7 8.7 15.5 8.8 15.0 9.25 15.0 M9.45 16.6 Q9.4 16.5 9.4 16.35 L9.45 16.2 9.5 16.1 9.6 16.05 9.85 15.95 Q10.1 15.95 10.25 16.15 10.4 16.3 10.4 16.55 10.3 16.75 10.1 16.85 9.8 17.0 9.5 16.8 L9.45 16.6 M7.6 15.2 Q7.25 15.55 7.05 15.15 7.0 15.0 7.05 14.9 7.2 14.65 7.45 14.55 8.0 14.75 7.6 15.2 M7.3 16.35 Q7.15 15.95 7.55 15.9 7.8 15.9 7.95 16.05 8.15 16.25 8.05 16.5 7.6 17.0 7.3 16.35 M0.7 20.8 L0.7 20.75 Q0.95 20.8 1.1 20.95 1.25 21.1 1.2 21.35 1.1 21.75 0.7 21.7 0.35 21.65 0.3 21.35 0.25 21.25 0.25 21.1 0.35 20.8 0.7 20.8 M0.65 22.55 Q0.7 22.9 0.35 23.1 -0.05 23.3 -0.35 22.95 -0.4 22.8 -0.3 22.65 -0.15 22.3 0.15 22.25 0.35 22.3 0.45 22.4 L0.65 22.55 M1.35 23.45 Q1.6 23.3 1.85 23.3 L2.0 23.35 2.15 23.5 Q2.2 23.75 2.1 23.95 1.95 24.2 1.7 24.4 1.3 24.45 1.1 24.15 L1.05 24.05 Q0.95 23.7 1.35 23.45 M-5.15 11.9 Q-5.35 11.85 -5.55 11.6 -5.75 11.35 -5.4 11.3 L-5.3 11.35 Q-5.05 11.1 -4.65 11.1 L-4.5 11.1 Q-4.1 11.4 -4.65 11.85 -4.9 12.05 -5.15 11.9 M-4.85 14.1 Q-5.0 14.15 -4.85 13.9 -4.65 13.95 -4.85 14.1 M-2.0 20.25 Q-1.65 20.5 -2.0 20.85 -2.35 21.15 -2.45 20.7 -2.4 20.6 -2.35 20.5 -2.55 20.55 -2.65 20.25 L-2.55 20.1 -2.45 20.0 -2.35 19.95 Q-1.85 20.05 -2.0 20.25 M-1.55 22.5 Q-1.2 22.45 -1.1 22.75 -1.05 23.0 -1.25 23.15 -1.7 23.45 -1.95 23.0 -2.0 22.95 -2.0 22.85 L-1.9 22.7 Q-1.75 22.55 -1.55 22.5 M-2.75 22.55 Q-3.15 22.9 -3.45 22.5 -3.55 22.25 -3.4 22.05 -3.15 21.85 -2.85 21.8 -2.2 22.05 -2.75 22.55" fill="#c57676" fill-rule="evenodd" stroke="none"/>
    <path d="M2.85 6.1 Q3.2 5.6 3.6 5.2 4.4 4.05 5.35 3.0 5.9 2.4 6.5 1.95 L6.65 1.45 Q7.25 0.15 8.6 -0.1 L8.75 -0.1 8.8 -0.2 Q8.9 -0.35 9.05 -0.35 L9.5 -0.5 9.95 -0.5 Q10.6 -0.65 11.3 -0.65 L11.4 -0.65 11.8 -0.75 Q13.2 -0.7 14.4 -0.05 L14.55 0.05 14.95 0.25 Q15.85 0.7 15.9 1.4 16.6 2.4 16.45 3.8 16.4 4.4 16.55 5.0 17.05 5.6 17.25 6.4 17.35 6.85 17.2 7.1 17.45 8.25 16.9 9.7 16.4 10.9 15.6 11.4 15.8 12.3 15.65 13.25 15.55 13.85 15.3 14.3 L15.2 14.5 15.2 14.45 15.05 14.7 15.0 14.65 14.65 12.65 16.35 7.0 15.2 1.85 14.85 1.45 9.1 1.2 8.5 1.45 7.5 2.65 7.4 2.75 5.65 4.8 2.85 6.1" fill="#111111" fill-rule="evenodd" stroke="none"/>
    <path d="M13.7 7.1 L13.65 7.2 13.45 7.25 12.75 7.45 11.4 8.15 12.9 7.65 Q13.05 7.6 13.2 7.65 L13.15 7.85 13.15 7.95 13.05 8.1 Q11.9 8.55 10.6 9.1 10.35 9.2 10.2 9.1 L10.05 9.2 9.95 9.2 9.95 9.15 Q10.05 8.9 10.5 8.65 L10.4 8.55 Q10.4 8.4 10.5 8.3 L10.55 8.25 Q10.8 7.85 11.25 7.5 11.9 7.05 12.55 6.65 L12.95 6.65 12.2 7.35 13.15 7.1 Q13.45 7.05 13.7 7.1 M10.0 9.25 L9.95 9.3 10.0 9.25 M9.7 9.35 L9.55 9.15 Q9.0 9.85 8.3 10.1 8.35 9.0 9.2 8.1 9.55 7.7 9.95 7.35 9.3 7.8 8.7 8.35 7.85 9.15 6.95 9.8 7.75 8.55 8.95 7.5 10.3 6.35 11.9 5.85 12.3 6.2 11.25 6.65 L11.2 6.8 11.25 6.9 9.75 8.85 9.55 9.15 9.7 9.35 M9.85 8.8 L9.9 8.8 9.85 8.8 M14.1 9.7 Q14.1 9.4 14.4 9.35 14.95 9.45 14.65 9.9 14.45 10.15 14.15 10.1 14.05 9.9 14.1 9.7 M12.95 10.9 L13.45 11.25 13.45 11.3 12.95 11.65 Q12.75 11.95 12.25 12.3 11.35 12.85 10.6 13.6 10.15 14.1 9.6 14.4 L10.45 13.1 Q10.75 12.45 11.45 11.95 12.1 11.45 12.85 11.2 L12.95 10.9 M0.5 13.65 L0.1 13.75 Q0.0 14.25 -0.95 14.45 -1.6 14.55 -2.15 14.45 -1.9 14.25 -1.6 14.1 L-1.85 14.15 -3.6 14.4 Q-2.8 13.75 -1.75 13.6 L-0.05 13.35 Q0.15 13.35 0.3 13.4 0.45 13.5 0.5 13.65 M5.45 10.95 Q5.8 10.55 6.35 10.4 L6.9 10.35 7.05 10.55 Q6.55 10.95 5.75 11.0 L5.45 10.95 M5.3 12.6 Q5.8 12.25 6.35 12.0 L6.85 11.95 Q6.95 12.2 6.65 12.45 6.6 12.65 6.25 12.9 5.85 13.15 5.5 13.1 L5.6 12.95 5.4 12.9 5.1 12.9 5.25 12.8 Q5.1 12.7 5.3 12.6 M10.25 9.8 Q10.5 10.15 9.5 10.4 L7.25 10.9 Q8.0 10.35 9.1 10.05 L10.25 9.8 M6.45 13.2 Q7.65 12.2 9.25 11.25 10.05 10.8 10.85 10.4 9.95 11.55 8.45 12.35 L6.45 13.2 M9.35 13.65 L8.9 14.5 Q8.5 14.75 8.15 14.55 8.05 14.15 8.4 13.8 8.7 13.5 9.05 13.45 L9.25 13.5 Q9.3 13.55 9.35 13.65 M9.45 16.95 L9.35 17.0 Q9.45 17.35 9.05 17.85 8.5 18.6 8.15 19.45 7.65 20.75 7.0 21.85 L6.25 23.35 Q6.35 21.65 7.05 19.95 L6.25 20.95 Q6.35 19.7 7.15 18.45 7.95 17.25 9.2 16.75 L9.35 16.8 Q9.45 16.85 9.45 16.95 M10.75 18.2 L10.75 18.15 Q11.0 18.2 11.25 17.9 L11.2 17.75 11.35 17.65 Q11.25 18.05 11.1 18.6 L11.05 18.7 10.95 18.95 10.65 18.9 10.2 18.65 Q10.25 18.4 10.5 18.4 L10.55 18.4 10.75 18.2 M6.55 14.3 Q7.45 14.7 6.35 15.4 5.8 15.75 5.3 15.8 5.3 15.55 5.45 15.4 L5.6 15.2 5.05 15.5 Q4.6 15.8 4.15 15.95 4.45 15.45 5.0 15.05 5.5 14.7 6.05 14.45 L6.1 14.45 Q6.3 14.35 6.55 14.3 M9.7 22.25 L9.5 22.4 Q9.15 22.5 9.0 22.15 9.0 22.0 9.05 21.85 9.1 21.55 9.4 21.55 9.65 21.6 9.75 21.85 L9.75 22.05 9.75 22.2 9.7 22.25 M10.1 21.15 L9.9 21.8 Q9.7 21.35 9.65 20.9 L9.75 20.95 10.1 21.1 10.1 21.15 M2.05 19.45 Q2.55 19.05 3.15 18.85 L3.45 18.95 Q3.55 19.5 3.1 19.9 2.75 20.25 2.3 20.35 L2.35 20.2 Q2.35 20.1 2.35 20.0 L2.4 19.9 Q1.75 20.4 1.15 20.9 0.95 21.15 0.7 20.9 1.25 20.15 2.05 19.45 M-2.9 6.9 L-2.8 6.8 Q-2.75 6.75 -2.7 6.75 L-2.55 6.75 -2.45 6.7 -1.55 6.75 -0.9 7.05 -1.6 7.3 Q-2.3 7.3 -2.9 6.95 L-2.9 6.9 M-0.15 7.9 L-0.1 8.1 Q-0.75 8.45 -1.65 8.7 -2.25 8.85 -2.7 8.65 -2.15 8.2 -1.3 8.05 L-0.35 7.85 -0.15 7.9 M-2.45 11.0 L-2.25 10.95 -1.75 10.95 Q-1.1 11.0 -0.5 10.95 0.3 10.85 0.85 11.2 0.35 11.6 -0.5 11.5 -1.8 11.35 -2.95 11.05 L-2.55 11.0 -2.45 11.0" fill="#a04545" fill-rule="evenodd" stroke="none"/>
    <path d="M10.9 7.75 L11.7 7.05 10.9 7.75 M13.1 5.95 L13.35 6.3 13.1 5.95 M13.65 7.2 L12.95 8.75 12.15 8.95 12.55 8.8 Q12.95 8.75 12.9 8.45 L13.05 8.1 13.15 7.95 13.15 7.85 13.2 7.65 13.25 7.55 13.0 7.5 13.45 7.25 13.65 7.2 M11.3 9.15 L10.7 9.2 11.3 9.15" fill="#edd6d6" fill-rule="evenodd" stroke="none"/>
    <path d="M9.95 9.2 L10.0 9.25 9.95 9.3 9.7 9.35 9.55 9.15 9.75 8.85 9.85 8.8 9.9 8.8 9.9 9.1 9.95 9.15 9.95 9.2 M13.45 11.25 L12.95 10.9 Q12.95 10.75 13.15 10.65 13.25 10.6 13.35 10.6 13.5 10.6 13.6 10.7 L13.75 10.9 13.45 11.25" fill="#69221e" fill-rule="evenodd" stroke="none"/>
    <path d="M12.0 16.95 L13.1 17.1 11.9 19.2 11.85 19.2 11.6 19.15 11.55 19.15 10.95 18.95 11.05 18.7 Q11.15 18.65 11.1 18.6 11.25 18.05 11.35 17.65 L11.2 17.75 Q11.15 17.65 11.0 17.65 11.3 17.5 10.75 17.45 L10.4 17.95 Q10.5 18.1 10.6 18.15 L10.75 18.2 10.55 18.4 10.5 18.4 10.4 18.3 10.2 18.4 Q10.15 18.35 9.95 18.25 L9.55 18.75 11.25 16.85 11.15 17.15 Q11.15 17.4 11.3 17.45 L11.5 17.5 11.55 17.45 11.65 17.4 Q11.9 17.25 11.8 17.05 L11.7 16.9 12.0 16.95 M10.9 21.4 L10.3 23.6 Q9.4 26.1 7.7 24.6 7.9 22.1 8.6 20.3 L8.7 20.5 8.65 20.65 8.75 20.8 8.7 20.85 8.7 21.1 8.8 21.25 8.75 21.35 8.7 21.5 8.7 21.7 Q8.7 21.9 8.75 22.0 8.6 22.1 8.55 22.3 8.55 22.55 8.65 22.8 8.55 22.65 8.35 22.65 8.0 22.7 8.15 23.05 8.45 23.7 8.85 23.2 8.8 23.0 8.7 22.85 8.9 22.9 9.1 22.7 L9.1 23.3 9.05 23.3 8.9 23.35 Q8.75 23.4 8.7 23.55 8.65 23.7 8.65 23.8 8.75 24.15 9.15 24.05 L9.2 24.45 9.35 23.95 Q9.6 23.8 9.65 23.5 L9.6 23.4 9.95 23.4 Q10.4 23.25 10.4 22.8 10.3 22.65 10.2 22.55 10.4 22.3 9.85 22.2 L9.7 22.25 9.75 22.2 9.75 22.05 10.0 22.0 Q10.15 22.0 10.2 21.85 10.3 21.7 10.3 21.55 10.7 21.6 10.2 21.25 L10.1 21.15 10.1 21.1 10.9 21.4 M11.3 16.8 L11.4 16.75 11.3 16.8" fill="url(#gradient1)" fill-rule="evenodd" stroke="none"/>
    <path d="M11.5 16.75 L12.8 15.85 11.6 16.8 11.5 16.75 M12.95 15.75 L13.55 15.5 12.95 15.75 M13.6 15.65 L13.65 15.7 13.75 16.05 13.8 16.05 Q13.95 15.95 14.1 15.8 L14.1 15.75 14.15 15.75 Q14.3 15.65 14.35 15.5 L13.75 16.9 Q13.35 16.75 13.55 16.4 L12.0 16.95 11.7 16.9 Q12.1 16.55 12.55 16.35 13.4 16.05 13.6 15.65 M13.75 15.45 L14.25 15.2 14.3 15.2 14.35 15.35 14.25 15.2 13.75 15.45" fill="#ffffff" fill-rule="evenodd" stroke="none"/>
    <path d="M12.8 15.85 L12.95 15.75 13.55 15.5 13.7 15.45 13.6 15.65 Q13.4 16.05 12.55 16.35 12.1 16.55 11.7 16.9 L11.6 16.8 12.8 15.85 M13.65 15.7 L13.75 15.45 14.25 15.2 14.35 15.35 14.35 15.5 Q14.3 15.65 14.15 15.75 L14.1 15.75 14.1 15.8 Q13.95 15.95 13.8 16.05 L13.75 16.05 13.65 15.7" fill="#afadbf" fill-rule="evenodd" stroke="none"/>
    <path d="M11.7 7.05 L12.95 5.85 13.1 5.95 13.35 6.3 Q13.45 6.6 13.25 6.7 L13.6 6.7 Q14.0 6.55 14.25 6.95 L13.7 7.1 Q13.45 7.05 13.15 7.1 L12.2 7.35 12.95 6.65 12.55 6.65 Q11.9 7.05 11.25 7.5 10.8 7.85 10.55 8.25 L10.5 8.3 Q10.4 8.4 10.4 8.55 L10.5 8.65 Q10.05 8.9 9.95 9.15 L9.9 9.1 10.15 8.7 10.6 7.95 10.9 7.75 11.7 7.05 M12.15 8.95 L11.3 9.15 10.7 9.2 10.05 9.2 10.2 9.1 Q10.35 9.2 10.6 9.1 11.9 8.55 13.05 8.1 L12.9 8.45 Q12.95 8.75 12.55 8.8 L12.15 8.95 M13.15 7.95 L13.15 7.85 13.15 7.95 M13.2 7.65 Q13.05 7.6 12.9 7.65 L11.4 8.15 12.75 7.45 13.0 7.5 13.25 7.55 13.2 7.65 M11.9 19.2 L12.7 19.65 12.0 19.25 11.85 19.2 11.9 19.2 M11.55 19.15 L11.6 19.15 11.6 19.2 11.4 19.15 11.55 19.15" fill="#c57676" fill-rule="evenodd" stroke="none"/>
    <path d="M12.85 19.7 Q13.35 20.0 13.85 20.35 14.45 20.75 15.0 21.3 L15.35 21.7 15.0 21.4 13.8 20.35 Q13.5 20.1 13.1 19.9 L12.85 19.75 12.85 19.7 M16.2 23.9 L16.2 24.0 11.35 21.55 14.85 23.3 Q15.5 23.6 16.2 23.9 M9.55 18.8 L9.6 18.75 9.7 18.7 9.55 18.8 M10.95 18.95 L11.55 19.15 11.4 19.15 10.7 18.95 10.65 18.9 10.95 18.95 M8.7 20.5 L8.6 20.3 8.7 20.45 8.7 20.5" fill="#ecacac" fill-rule="evenodd" stroke="none"/>
    <path d="M9.5 18.85 L9.55 18.8 9.7 18.7 9.75 18.55 10.0 18.6 10.1 18.6 10.2 18.65 10.65 18.9 10.7 18.95 10.55 19.0 10.6 19.0 10.85 19.1 10.9 19.1 Q11.05 19.2 11.05 19.35 11.2 19.3 11.35 19.35 11.45 19.45 11.45 19.6 L11.4 19.65 11.4 19.75 Q11.3 19.9 11.15 19.8 L11.15 19.85 11.1 19.95 11.05 20.0 10.9 20.15 Q10.95 20.15 10.9 20.2 L11.1 20.3 Q11.2 20.4 11.15 20.55 L11.05 20.6 Q11.15 20.75 11.2 20.9 L11.25 20.9 Q11.15 20.75 11.3 20.65 11.5 20.6 11.65 20.75 11.75 20.9 11.75 21.05 11.55 21.15 11.45 21.1 L11.45 21.2 10.7 21.0 10.55 20.9 10.5 20.95 9.3 20.7 9.2 20.75 9.15 20.8 9.05 20.9 8.85 20.85 8.75 20.8 8.65 20.65 8.7 20.5 8.7 20.45 8.8 20.25 8.8 20.2 9.0 19.95 9.35 19.35 9.55 19.3 9.45 19.25 9.35 19.15 9.5 18.85 M10.1 19.55 Q10.05 19.45 10.15 19.4 10.35 19.35 10.45 19.45 10.65 19.4 10.75 19.5 L10.85 19.6 11.0 19.65 Q10.95 19.55 11.0 19.45 10.75 19.6 10.5 19.3 L10.45 19.25 Q10.3 19.3 10.15 19.15 L10.05 19.15 10.05 19.2 10.0 19.25 10.05 19.4 10.0 19.4 9.85 19.45 9.7 19.35 Q9.8 19.45 9.85 19.6 10.15 19.7 10.4 19.85 L10.1 19.6 10.1 19.55 M11.65 19.4 L11.65 19.3 11.7 19.25 11.85 19.2 12.0 19.25 12.05 19.3 Q12.2 19.4 12.15 19.5 12.0 19.75 11.75 19.55 L11.65 19.4 M9.85 18.75 L9.7 18.7 9.6 18.9 9.75 18.95 9.8 18.95 Q9.7 18.85 9.85 18.75 M10.7 20.2 L10.75 20.25 10.75 20.2 10.7 20.2 M12.2 21.2 Q12.3 21.3 12.3 21.45 12.05 21.7 11.8 21.35 11.7 21.2 11.85 21.1 12.05 21.05 12.2 21.2" fill="#663366" fill-rule="evenodd" stroke="none"/>
    <path d="M15.35 21.7 L16.2 23.9 Q15.5 23.6 14.85 23.3 L13.8 21.9 13.55 21.55 Q13.45 21.6 13.3 21.45 L13.3 21.4 Q13.15 21.55 12.95 21.4 12.8 21.25 12.85 21.15 L13.2 21.15 13.3 21.3 13.3 21.25 13.45 21.25 Q13.4 21.2 13.45 21.15 L13.55 21.3 Q13.8 21.45 13.8 21.25 L13.85 21.3 14.1 21.35 Q14.2 21.4 14.3 21.3 L14.5 21.4 Q14.5 21.3 14.6 21.25 L14.95 21.6 Q15.0 21.65 15.0 21.75 L15.15 21.9 15.35 22.0 Q15.25 21.8 15.1 21.6 L15.0 21.4 15.35 21.7 M8.6 20.3 L9.5 18.85 9.35 19.15 8.8 20.2 8.8 20.25 8.7 20.45 8.6 20.3 M9.2 20.75 L9.3 20.7 9.45 20.8 9.25 20.75 9.2 20.75 M11.05 20.0 L11.1 19.95 11.05 20.0 M10.85 19.1 L10.6 19.0 10.55 19.0 10.7 18.95 11.4 19.15 11.6 19.2 11.65 19.3 11.65 19.4 10.85 19.1 M10.1 19.6 L10.0 19.6 10.1 19.6 M12.8 20.2 Q12.75 20.25 12.75 20.3 L12.7 20.25 Q12.55 20.1 12.7 20.05 12.85 20.0 12.95 20.1 13.05 20.2 13.05 20.25 L12.8 20.2 M12.85 19.75 L13.1 19.9 Q13.5 20.1 13.8 20.35 13.55 20.25 13.3 20.15 13.1 19.95 12.85 19.75 M13.6 20.6 L13.6 20.6 Q13.4 20.45 13.55 20.35 L13.85 20.4 14.05 20.6 13.9 20.75 13.85 20.65 Q13.75 20.6 13.6 20.6 M12.8 20.35 L12.9 20.35 13.05 20.3 12.8 20.35 M12.8 20.75 L12.75 20.75 Q12.6 20.85 12.75 21.0 L12.75 21.05 Q12.55 21.1 12.4 20.9 12.25 20.7 12.45 20.55 12.7 20.55 12.8 20.75 M13.35 20.75 Q13.4 20.85 13.4 20.95 L13.3 21.1 13.3 21.15 13.2 21.15 13.25 21.1 Q13.25 20.95 13.1 20.85 L12.95 20.75 13.05 20.7 13.1 20.6 Q13.3 20.6 13.35 20.75 M13.55 20.9 Q13.65 20.9 13.75 20.95 13.85 21.05 13.8 21.15 13.8 21.1 13.75 21.05 13.65 21.0 13.5 21.0 L13.55 20.95 13.55 20.9 M13.8 21.2 L13.8 21.15 Q13.95 21.2 13.8 21.25 L13.8 21.2 M13.95 21.0 Q13.9 20.85 14.1 20.8 14.2 20.8 14.3 20.85 L14.4 21.05 14.35 21.15 14.2 21.05 Q14.1 20.95 13.95 21.0" fill="#cc6699" fill-rule="evenodd" stroke="none"/>
    <path d="M10.0 19.4 L10.1 19.55 10.1 19.6 10.0 19.6 9.85 19.45 10.0 19.4" fill="#993399" fill-rule="evenodd" stroke="none"/>
    <path d="M12.7 19.65 L12.85 19.7 12.85 19.75 Q13.1 19.95 13.3 20.15 13.55 20.25 13.8 20.35 L15.0 21.4 15.1 21.6 Q15.25 21.8 15.35 22.0 L15.15 21.9 15.0 21.75 Q15.0 21.65 14.95 21.6 L14.6 21.25 Q14.5 21.3 14.5 21.4 L14.3 21.3 Q14.2 21.4 14.1 21.35 L13.85 21.3 13.8 21.25 Q13.8 21.45 13.55 21.3 L13.45 21.15 Q13.4 21.2 13.45 21.25 L13.3 21.25 13.3 21.3 13.2 21.15 12.85 21.15 Q12.8 21.25 12.95 21.4 13.15 21.55 13.3 21.4 L13.3 21.45 Q13.45 21.6 13.55 21.55 L13.8 21.9 14.85 23.3 11.35 21.55 10.9 21.4 10.1 21.1 9.75 20.95 9.55 20.85 9.45 20.8 9.3 20.7 10.5 20.95 10.55 20.9 10.7 21.0 11.45 21.2 11.45 21.1 Q11.55 21.15 11.75 21.05 11.75 20.9 11.65 20.75 11.5 20.6 11.3 20.65 11.15 20.75 11.25 20.9 L11.2 20.9 Q11.15 20.75 11.05 20.6 L11.15 20.55 Q11.2 20.4 11.1 20.3 L10.9 20.2 Q10.95 20.15 10.9 20.15 L11.05 20.0 11.1 19.95 11.15 19.85 11.15 19.8 Q11.3 19.9 11.4 19.75 L11.4 19.65 11.45 19.6 Q11.45 19.45 11.35 19.35 11.2 19.3 11.05 19.35 11.05 19.2 10.9 19.1 L10.85 19.1 11.65 19.4 11.75 19.55 Q12.0 19.75 12.15 19.5 12.2 19.4 12.05 19.3 L12.0 19.25 12.7 19.65 M11.6 19.15 L11.85 19.2 11.7 19.25 11.65 19.3 11.6 19.2 11.6 19.15 M8.65 20.65 L8.75 20.8 8.85 20.85 8.75 20.8 8.65 20.65 M9.05 20.9 L9.15 20.8 9.15 20.85 9.05 20.9 M10.6 19.0 L10.55 19.0 10.6 19.0 M10.0 19.4 L10.05 19.4 10.0 19.25 10.05 19.2 10.05 19.15 10.15 19.15 Q10.3 19.3 10.45 19.25 L10.5 19.3 Q10.75 19.6 11.0 19.45 10.95 19.55 11.0 19.65 L10.85 19.6 10.75 19.5 Q10.65 19.4 10.45 19.45 10.35 19.35 10.15 19.4 10.05 19.45 10.1 19.55 L10.0 19.4 M10.1 19.6 L10.4 19.85 Q10.15 19.7 9.85 19.6 9.8 19.45 9.7 19.35 L9.85 19.45 10.0 19.6 10.1 19.6 M9.85 18.75 Q9.7 18.85 9.8 18.95 L9.75 18.95 9.6 18.9 9.7 18.7 9.85 18.75 M9.35 19.15 L9.45 19.25 9.55 19.3 9.35 19.35 9.0 19.95 8.8 20.2 9.35 19.15 M8.8 20.25 L8.7 20.45 8.8 20.25 M10.7 20.2 L10.75 20.2 10.75 20.25 10.7 20.2 M12.8 20.2 L13.05 20.25 Q13.05 20.2 12.95 20.1 12.85 20.0 12.7 20.05 12.55 20.1 12.7 20.25 L12.75 20.3 Q12.75 20.25 12.8 20.2 M12.2 21.2 Q12.05 21.05 11.85 21.1 11.7 21.2 11.8 21.35 12.05 21.7 12.3 21.45 12.3 21.3 12.2 21.2 M12.8 20.75 Q12.7 20.55 12.45 20.55 12.25 20.7 12.4 20.9 12.55 21.1 12.75 21.05 L12.75 21.0 Q12.6 20.85 12.75 20.75 L12.8 20.75 M12.8 20.35 L13.05 20.3 12.9 20.35 12.8 20.35 M13.6 20.6 Q13.75 20.6 13.85 20.65 L13.9 20.75 14.05 20.6 13.85 20.4 13.55 20.35 Q13.4 20.45 13.6 20.6 L13.6 20.6 M13.35 20.75 Q13.3 20.6 13.1 20.6 L13.05 20.7 12.95 20.75 13.1 20.85 Q13.25 20.95 13.25 21.1 L13.2 21.15 13.3 21.15 13.3 21.1 13.4 20.95 Q13.4 20.85 13.35 20.75 M13.55 20.9 L13.55 20.95 13.5 21.0 Q13.65 21.0 13.75 21.05 13.8 21.1 13.8 21.15 13.85 21.05 13.75 20.95 13.65 20.9 13.55 20.9 M13.95 21.0 Q14.1 20.95 14.2 21.05 L14.35 21.15 14.4 21.05 14.3 20.85 Q14.2 20.8 14.1 20.8 13.9 20.85 13.95 21.0 M13.8 21.2 L13.8 21.25 Q13.95 21.2 13.8 21.15 L13.8 21.2" fill="#990099" fill-rule="evenodd" stroke="none"/>
    <path d="M11.4 16.75 L11.5 16.75 11.6 16.8 11.7 16.9 11.8 17.05 Q11.9 17.25 11.65 17.4 L11.55 17.45 11.5 17.5 11.3 17.45 Q11.15 17.4 11.15 17.15 L11.25 16.85 11.3 16.8 11.4 16.75 M9.6 18.75 L9.55 18.75 9.95 18.25 Q10.15 18.35 10.2 18.4 L10.4 18.3 10.5 18.4 Q10.25 18.4 10.2 18.65 L10.1 18.6 10.0 18.6 9.75 18.55 9.7 18.7 9.6 18.75 M10.75 18.2 L10.6 18.15 Q10.5 18.1 10.4 17.95 L10.75 17.45 Q11.3 17.5 11.0 17.65 11.15 17.65 11.2 17.75 L11.25 17.9 Q11.0 18.2 10.75 18.15 L10.75 18.2 M11.1 18.6 Q11.15 18.65 11.05 18.7 L11.1 18.6 M8.85 20.85 L9.05 20.9 9.15 20.85 9.15 20.8 9.2 20.75 9.25 20.75 9.55 20.85 9.75 20.95 9.65 20.9 Q9.7 21.35 9.9 21.8 L10.1 21.15 10.2 21.25 Q10.7 21.6 10.3 21.55 10.3 21.7 10.2 21.85 10.15 22.0 10.0 22.0 L9.75 22.05 9.75 21.85 Q9.65 21.6 9.4 21.55 9.1 21.55 9.05 21.85 9.0 22.0 9.0 22.15 9.15 22.5 9.5 22.4 L9.7 22.25 9.85 22.2 Q10.4 22.3 10.2 22.55 10.3 22.65 10.4 22.8 10.4 23.25 9.95 23.4 L9.6 23.4 9.65 23.5 Q9.6 23.8 9.35 23.95 L9.2 24.45 9.15 24.05 Q8.75 24.15 8.65 23.8 8.65 23.7 8.7 23.55 8.75 23.4 8.9 23.35 L9.05 23.3 9.1 23.3 9.1 22.7 Q8.9 22.9 8.7 22.85 8.8 23.0 8.85 23.2 8.45 23.7 8.15 23.05 8.0 22.7 8.35 22.65 8.55 22.65 8.65 22.8 8.55 22.55 8.55 22.3 8.6 22.1 8.75 22.0 8.7 21.9 8.7 21.7 L8.7 21.5 8.75 21.35 8.8 21.25 8.7 21.1 8.7 20.85 8.75 20.8 8.85 20.85" fill="#111111" fill-rule="evenodd" stroke="none"/>
    <path d="M14.8 2.65 Q14.65 2.3 14.45 2.0 12.9 1.35 11.25 1.35 L10.55 1.5 10.35 1.55 Q9.25 2.0 8.35 2.15 8.0 3.5 6.55 4.85 L5.5 5.8 4.4 6.8 Q2.3 8.55 0.0 8.65 1.55 7.65 2.95 6.45 1.05 7.3 -1.0 7.65 L-1.9 7.6 -2.05 7.6 Q-2.7 7.65 -3.2 7.4 L-2.0 7.35 -2.5 7.25 -1.2 7.05 Q-1.8 7.0 -1.95 6.65 L-1.9 6.65 -0.85 6.7 Q-0.45 6.7 -0.2 6.9 L1.0 6.65 1.4 6.5 -0.35 6.45 Q-1.05 6.35 -1.7 6.15 L-0.9 6.2 -0.95 6.15 -0.8 6.2 2.4 5.95 3.25 5.75 4.25 5.25 4.3 5.2 Q5.15 4.4 5.95 3.5 6.4 3.0 6.85 2.6 L7.4 2.05 7.35 2.0 Q7.55 0.9 9.0 0.55 9.55 0.3 10.15 0.15 L10.85 0.0 Q11.7 -0.05 12.45 0.15 13.0 0.2 13.5 0.35 13.6 0.4 13.7 0.45 L13.9 0.4 14.05 0.35 Q15.6 0.95 16.1 2.45 16.3 3.15 16.1 3.75 16.15 4.5 16.3 5.3 16.5 6.3 16.85 7.1 L16.55 6.95 Q16.75 8.5 16.0 10.15 15.7 10.85 15.25 11.45 15.45 12.2 15.4 13.15 15.3 14.15 14.95 15.05 L14.9 15.1 14.85 15.0 14.8 15.1 14.8 15.0 14.65 15.05 14.7 15.1 14.7 15.5 Q14.75 16.2 14.25 16.8 L13.95 17.15 Q13.8 17.25 13.65 17.25 L13.3 17.25 13.4 17.15 13.3 17.05 12.45 18.7 12.4 18.85 12.4 18.9 Q13.55 19.3 14.4 20.25 L14.95 20.9 15.15 21.15 Q15.55 21.6 15.9 22.15 16.25 22.7 16.4 23.25 16.55 23.65 16.55 24.1 L16.75 24.2 16.55 24.3 16.5 24.45 16.4 24.45 Q16.35 24.45 16.3 24.35 L16.25 24.3 Q15.45 24.45 14.6 23.75 L14.1 23.3 13.7 22.95 12.1 22.15 Q11.55 21.9 11.05 21.65 L10.95 21.8 Q10.6 22.85 10.25 23.9 L10.3 23.35 10.2 23.55 Q10.25 22.45 10.5 21.4 L10.05 21.2 Q9.6 21.1 9.3 20.95 9.0 20.8 8.8 20.7 L8.35 22.55 7.75 25.25 7.75 24.25 7.7 24.4 7.5 25.1 Q7.5 23.7 7.85 22.2 L7.85 22.1 8.05 21.0 Q8.15 20.6 8.25 20.2 8.6 18.9 9.55 17.65 11.45 15.2 14.4 14.35 L14.5 14.25 Q14.55 14.2 14.65 14.15 14.55 13.5 14.55 12.7 L14.55 11.5 Q14.6 11.1 14.75 10.8 L14.85 10.5 14.95 10.6 15.35 9.4 Q15.5 9.2 15.6 8.95 15.8 8.4 15.75 7.9 15.9 7.4 16.15 7.05 15.45 6.65 15.2 5.6 14.9 4.9 14.9 3.95 14.9 3.5 15.0 3.1 L14.8 2.65 M12.8 6.7 L13.0 6.6 13.0 6.55 13.3 6.55 Q13.25 6.25 13.05 6.0 L12.9 6.1 Q12.75 6.3 12.3 6.6 11.65 7.15 11.05 7.75 10.6 8.05 10.3 8.55 L10.3 8.5 10.25 8.6 Q10.4 8.5 10.6 8.4 10.65 8.3 10.75 8.25 11.2 7.95 11.75 7.75 L12.0 7.65 13.1 7.25 Q13.4 7.15 13.65 7.1 13.95 7.0 14.3 6.95 14.15 6.95 14.0 6.85 13.85 6.8 13.8 6.7 L13.5 6.8 13.25 6.85 Q12.55 7.0 12.65 6.8 L12.7 6.75 12.8 6.7 M12.95 5.65 Q13.0 5.6 13.1 5.6 L13.15 5.6 13.35 5.7 13.4 5.7 13.35 5.75 Q13.75 6.1 13.85 6.5 14.05 6.5 14.2 6.6 14.35 6.75 14.45 6.9 L14.3 6.95 Q14.4 6.95 14.45 7.05 14.2 7.2 13.95 7.3 13.9 7.55 13.8 7.85 L13.65 7.8 13.55 7.9 13.55 8.2 13.65 8.15 Q13.4 8.6 13.1 8.8 L13.05 8.8 Q12.9 8.9 12.7 8.95 L12.45 9.05 Q12.3 9.3 11.75 9.6 9.3 10.9 6.5 11.55 5.2 11.85 3.9 12.05 L5.1 11.6 3.8 11.75 6.15 11.2 Q7.4 10.75 8.75 10.35 L10.05 9.95 11.45 9.35 11.4 9.4 Q10.25 9.65 9.05 9.8 L8.8 10.05 8.95 9.85 6.85 10.05 5.6 9.95 6.75 9.8 6.3 9.75 6.0 9.7 6.1 9.7 5.55 9.6 7.65 9.55 9.1 9.3 Q9.75 8.15 10.85 7.2 L11.3 6.9 Q9.9 7.7 8.7 8.8 8.45 9.05 8.15 9.25 9.1 8.05 10.35 7.1 11.55 6.15 12.9 5.65 L12.95 5.65 M13.15 7.65 L13.2 7.65 13.25 7.55 12.65 7.75 11.25 8.45 10.7 8.75 Q10.2 9.05 9.75 9.2 L10.45 9.1 10.95 9.05 Q11.1 9.0 11.15 8.95 L12.45 8.75 12.7 8.65 12.95 8.25 Q12.9 8.15 12.9 8.1 L12.05 8.15 12.1 8.1 12.15 8.1 12.25 8.0 12.35 7.95 12.4 7.9 Q12.8 7.75 13.15 7.7 L13.15 7.65 M12.85 9.1 Q11.05 11.4 8.4 12.85 6.6 13.8 4.65 14.2 L6.0 13.7 Q5.1 14.0 4.15 14.2 4.95 13.85 5.75 13.45 L5.45 13.45 5.8 13.2 5.6 13.2 6.45 12.65 6.85 12.3 6.65 12.35 6.0 12.45 Q5.45 12.55 4.95 12.4 L5.2 12.35 5.05 12.3 Q5.9 12.0 6.95 11.8 L7.7 11.7 7.55 11.9 7.55 11.95 7.65 11.95 7.5 12.0 Q7.35 12.35 7.0 12.7 L6.7 13.0 Q8.7 11.95 10.65 10.65 L12.75 9.1 12.5 9.4 12.85 9.1 M13.8 10.55 L13.85 10.55 Q13.95 10.85 13.85 11.05 13.7 11.45 13.3 11.45 L13.3 11.35 Q13.25 11.35 13.25 11.25 L12.85 11.3 12.35 11.75 11.7 12.2 10.5 13.45 8.9 15.15 Q9.65 13.95 10.8 12.7 11.3 12.15 11.9 11.7 L12.3 11.35 12.55 11.2 Q12.75 10.95 13.1 10.75 L13.55 10.55 13.8 10.55 M13.65 10.8 Q13.4 10.85 13.15 10.95 L13.1 11.0 13.35 11.05 Q13.45 11.1 13.45 11.2 13.6 11.0 13.65 10.85 L13.65 10.8 M1.15 7.5 L0.6 7.8 Q0.45 7.95 0.15 8.05 L-0.3 8.3 Q-0.8 8.65 -1.35 8.7 -0.95 8.4 -0.5 8.15 L-0.95 8.05 Q-0.6 7.75 -0.05 7.65 L0.45 7.6 0.85 7.4 1.05 7.45 Q1.1 7.45 1.15 7.5 M9.35 9.25 L9.4 9.15 9.25 9.3 9.35 9.3 9.35 9.25 M6.2 10.4 L6.2 10.35 Q6.2 10.25 6.3 10.2 L6.45 10.2 6.45 10.15 7.2 10.2 Q7.35 10.2 7.45 10.3 L7.35 10.35 7.2 10.4 Q7.35 10.6 6.85 10.9 6.55 11.05 6.25 11.0 6.5 10.75 6.8 10.5 L6.95 10.45 6.2 10.4 M8.65 8.95 Q9.05 9.05 8.65 9.1 8.35 9.1 8.65 8.95 M9.35 13.55 Q9.55 13.95 8.95 14.6 L7.25 16.4 7.1 16.55 Q7.5 15.75 8.25 14.85 L9.35 13.55 Q8.6 13.9 7.95 14.6 7.65 14.95 7.35 15.1 7.75 14.45 8.4 13.9 8.85 13.55 9.25 13.35 L9.35 13.55 M11.1 17.3 Q10.55 17.9 9.95 18.55 9.7 18.85 9.45 19.2 11.05 19.7 12.4 20.75 L13.55 21.6 Q14.6 22.45 15.5 23.5 L16.05 23.85 16.1 23.8 Q15.95 23.45 15.8 23.0 L15.7 22.75 15.55 22.4 Q14.95 21.55 14.1 20.8 13.15 19.95 12.2 19.4 L12.05 19.35 Q11.75 19.15 11.65 19.2 L11.7 19.25 11.85 19.35 Q12.45 19.8 12.85 20.3 L11.25 19.4 10.75 19.1 10.4 19.0 Q9.95 18.85 9.95 18.6 L10.1 18.65 10.05 18.55 Q10.7 18.7 11.3 19.05 11.25 18.95 11.3 18.85 11.35 18.55 11.5 18.3 L11.7 18.0 11.75 18.0 12.0 17.55 12.1 17.45 12.3 17.3 Q11.8 17.35 11.5 16.95 L11.1 17.3 M9.7 19.4 L9.45 19.25 9.4 19.3 9.6 19.35 9.7 19.4 M8.8 20.6 Q10.8 20.75 12.55 21.65 13.5 22.15 14.35 22.85 L14.45 22.9 14.4 22.8 12.6 21.4 Q11.35 20.4 10.15 19.7 L9.8 19.6 Q9.45 19.5 9.35 19.35 9.0 19.9 8.85 20.45 L8.8 20.6 M8.8 20.65 L8.8 20.65 M14.25 15.3 L13.85 15.4 Q13.9 15.7 13.85 15.9 13.85 16.35 13.55 16.7 L13.65 16.8 Q13.95 16.4 14.15 15.95 L14.2 15.7 Q14.2 15.4 14.35 15.2 L14.3 15.2 14.25 15.3 M13.1 15.75 L12.75 15.95 12.2 16.45 11.65 16.8 11.7 16.85 11.75 16.8 11.8 16.85 Q12.35 16.85 12.9 16.6 13.25 16.4 13.4 16.0 L13.6 15.55 13.6 15.5 13.1 15.75" fill="#111111" fill-rule="evenodd" stroke="none"/>
    <path d="M11.75 20.2 Q12.45 20.55 13.05 21.15 L13.9 21.9 Q13.25 21.55 12.6 21.05 12.05 20.6 11.75 20.2 M12.8 20.55 Q12.95 20.55 13.0 20.65 13.05 20.75 13.05 20.85 12.9 20.95 12.8 20.8 12.7 20.65 12.8 20.55 M13.15 19.95 Q14.0 20.35 14.65 21.0 15.1 21.45 15.35 22.0 L14.65 21.4 14.7 21.55 Q14.5 21.55 14.25 21.4 14.05 21.2 14.15 21.05 L14.3 21.1 14.15 20.95 Q13.55 20.4 13.15 19.95 M14.85 22.25 Q14.95 22.3 14.9 22.45 14.75 22.5 14.6 22.4 14.45 22.25 14.6 22.1 14.7 22.15 14.85 22.25" fill="#ff99ff" fill-rule="evenodd" stroke="none"/>
  </g>
  <defs>
    <radialGradient cx="0" cy="0" fx="169.60000000000002" fy="0" gradientTransform="matrix(0.0098, -0.0067, 0.0099, 0.0143, 11.05, 6.8)" gradientUnits="userSpaceOnUse" id="gradient0" r="819.2" spreadMethod="pad">
      <stop offset="0.0" stop-color="#edd6d6"/>
      <stop offset="1.0" stop-color="#c57676"/>
    </radialGradient>
    <radialGradient cx="0" cy="0" gradientTransform="matrix(0.0024, 0.001, -0.0024, 0.0054, 11.25, 20.35)" gradientUnits="userSpaceOnUse" id="gradient1" r="819.2" spreadMethod="pad">
      <stop offset="0.0" stop-color="#a04545"/>
      <stop offset="1.0" stop-color="#333333"/>
    </radialGradient>
  </defs>
</svg>
