<?xml version="1.0" encoding="UTF-8" standalone="no"?>
<svg xmlns:ffdec="https://www.free-decompiler.com/flash" xmlns:xlink="http://www.w3.org/1999/xlink" ffdec:objectType="shape" height="28.8px" width="26.15px" xmlns="http://www.w3.org/2000/svg">
  <g transform="matrix(1.0, 0.0, 0.0, 1.0, 3.25, 0.35)">
    <path d="M22.15 19.85 L22.3 19.8 Q22.65 19.75 22.8 20.0 22.95 20.2 22.9 20.4 22.8 20.6 22.6 20.65 22.8 20.8 22.75 21.1 22.75 21.5 22.35 21.5 L22.3 21.5 Q21.9 21.35 21.9 20.9 21.95 20.6 22.15 20.55 22.0 20.45 21.95 20.25 L21.95 20.05 Q22.0 19.95 22.15 19.85 M22.25 21.9 L22.25 21.95 Q22.35 22.0 22.4 22.15 L22.55 22.1 Q23.1 22.3 22.75 22.85 22.5 23.2 22.2 22.8 L22.2 22.65 Q22.05 22.8 21.85 22.8 L21.55 22.75 Q21.3 22.65 21.25 22.4 21.2 22.2 21.35 22.05 21.55 21.8 21.85 21.75 22.1 21.75 22.25 21.9 M21.3 23.4 Q21.3 23.5 21.2 23.65 L21.45 23.75 Q21.75 23.9 21.6 24.15 21.4 24.5 21.05 24.45 20.75 24.4 20.75 24.15 L20.55 24.15 20.6 24.2 Q20.7 24.35 20.7 24.55 L21.1 24.55 Q21.35 24.6 21.4 24.8 21.35 25.2 20.95 25.4 20.35 25.7 20.2 25.15 20.2 25.0 20.25 24.9 L20.25 24.85 20.15 24.85 Q20.05 25.25 19.7 25.3 19.55 25.3 19.45 25.2 L19.4 25.35 Q20.05 25.5 19.5 25.9 19.1 26.2 19.0 25.75 L19.0 25.65 18.75 25.65 18.5 25.6 Q18.35 25.7 18.2 25.7 L18.35 25.85 Q18.45 26.1 18.3 26.3 17.9 26.65 17.7 26.35 L17.65 26.5 Q17.8 26.6 17.95 26.7 18.15 26.95 18.0 27.15 17.45 27.65 17.15 26.95 17.1 26.75 17.15 26.65 17.0 26.6 16.85 26.5 16.75 26.35 16.75 26.2 L16.75 26.05 Q16.75 25.95 16.8 25.9 16.95 25.7 17.2 25.7 L17.55 25.8 Q17.6 25.6 17.8 25.55 L17.65 25.45 Q17.6 25.4 17.55 25.3 17.5 25.1 17.6 24.9 17.8 24.6 18.15 24.6 L18.25 24.6 18.45 24.7 18.6 24.75 18.65 24.8 18.85 24.8 18.85 24.75 Q18.75 24.6 18.75 24.4 18.85 24.05 19.2 24.05 L19.7 24.0 19.9 24.05 Q19.95 24.0 20.05 24.0 L20.15 23.95 Q20.35 24.0 20.45 24.05 20.45 24.0 20.55 23.9 20.35 23.85 20.25 23.7 20.1 23.5 20.15 23.25 L20.25 23.1 Q20.4 22.9 20.65 22.9 21.05 22.85 21.25 23.2 L21.3 23.4 M7.1 26.1 Q7.5 26.45 6.85 26.3 6.5 26.2 6.8 26.05 L6.9 26.0 7.1 26.1 M6.3 25.85 Q6.5 26.05 6.45 26.4 6.4 26.75 6.1 26.95 5.5 26.95 5.5 26.35 5.5 26.1 5.6 25.9 5.7 25.85 5.85 25.8 L6.1 25.7 6.3 25.85 M5.6 25.25 L4.95 25.25 Q4.75 25.15 4.7 25.0 4.7 24.85 4.75 24.75 4.85 24.35 5.25 24.3 5.55 24.3 5.65 24.55 5.8 24.75 5.8 25.0 L5.6 25.25 M3.9 24.6 Q3.7 24.6 3.4 24.5 3.15 24.4 3.15 24.2 3.1 24.05 3.2 23.9 3.3 23.7 3.55 23.7 L3.6 23.7 Q3.95 23.7 4.2 23.95 4.4 24.15 4.4 24.4 4.2 24.6 3.9 24.6 M2.95 23.65 Q2.65 24.15 2.15 23.65 L2.15 23.6 2.0 23.45 Q1.85 23.3 1.9 23.1 L1.9 23.0 2.05 22.85 2.25 22.8 Q2.65 22.8 2.75 23.0 2.85 23.1 2.9 23.25 L3.0 23.6 2.95 23.65 M1.3 23.05 L1.15 23.15 Q0.85 23.4 0.65 23.0 L0.65 22.85 Q0.65 22.8 0.7 22.75 0.75 22.6 0.95 22.6 1.55 22.7 1.3 23.05 M0.1 22.0 Q0.0 22.05 -0.05 22.0 L-0.3 21.95 -0.4 21.85 Q-0.65 21.85 -0.75 21.35 -0.75 21.15 -0.65 21.1 -0.6 21.05 -0.5 21.0 L-0.25 21.15 Q-0.2 21.1 -0.1 21.1 0.1 21.1 0.25 21.3 L0.3 21.35 Q0.6 21.55 0.25 21.9 L0.1 22.0 M-0.7 21.0 L-0.85 21.1 Q-1.15 21.1 -1.3 20.9 -1.45 21.2 -1.8 21.15 -2.25 21.1 -2.35 20.7 L-2.35 20.55 Q-2.35 20.3 -2.15 20.2 -2.0 20.1 -1.9 20.1 L-1.75 20.15 -1.85 19.95 Q-1.95 19.75 -1.9 19.55 L-1.65 19.3 -1.45 19.25 -1.35 19.25 Q-1.3 19.25 -1.25 19.3 L-1.05 19.45 -1.0 19.55 Q-0.9 19.75 -0.95 19.9 -1.05 20.25 -1.45 20.3 L-1.45 20.35 -1.35 20.4 Q-1.25 20.25 -1.0 20.2 L-0.8 20.15 -0.7 20.1 Q-0.35 20.25 -0.5 20.65 -0.55 20.85 -0.7 21.0 M-1.45 18.95 L-1.6 18.9 -1.7 18.7 -1.7 18.55 -1.65 18.35 -1.55 18.25 -1.5 18.25 -1.3 18.15 Q-0.7 18.2 -1.0 18.75 -1.15 19.15 -1.45 18.95 M-1.55 18.2 Q-2.05 18.35 -2.1 17.9 L-2.1 17.65 Q-2.35 18.0 -2.7 17.7 L-2.8 17.5 Q-2.8 17.35 -2.75 17.15 L-2.75 17.05 -2.65 17.0 Q-2.6 16.95 -2.55 16.95 L-2.4 16.9 -2.4 16.85 Q-1.85 17.0 -2.05 17.5 L-1.95 17.35 Q-1.8 17.25 -1.65 17.25 -1.5 17.3 -1.45 17.4 -1.3 17.55 -1.3 17.75 -1.3 18.05 -1.55 18.2 M-1.7 16.5 L-1.85 16.45 Q-2.1 16.4 -2.1 16.15 L-2.05 16.0 Q-1.95 15.7 -1.65 15.7 -1.5 15.8 -1.35 15.9 -1.2 15.95 -1.2 16.1 -1.3 16.55 -1.7 16.5 M-1.0 14.9 Q-1.2 15.05 -1.45 15.0 L-1.6 14.8 -1.65 14.55 -1.65 14.45 -1.6 14.3 Q-1.4 14.1 -1.2 14.05 L-1.1 14.05 Q-0.7 14.25 -0.85 14.65 -0.9 14.8 -1.0 14.9 M-0.35 13.2 L-0.5 13.0 Q-0.6 12.75 -0.55 12.55 L-0.55 12.45 Q-0.4 12.25 -0.1 12.2 L0.05 12.3 Q0.2 12.35 0.25 12.45 L0.3 12.55 0.35 12.7 0.3 12.9 Q0.2 13.25 -0.1 13.3 L-0.35 13.2 M0.7 12.05 Q0.5 12.2 0.3 11.9 L0.25 11.55 Q0.25 11.15 0.6 11.15 0.75 11.2 0.8 11.25 L0.8 11.15 Q0.85 10.9 1.1 10.8 L1.2 10.8 Q1.85 10.85 1.5 11.35 L1.45 11.4 Q1.35 11.55 1.2 11.55 1.05 11.55 0.95 11.45 0.95 11.65 0.85 11.85 L0.7 12.05 M4.35 25.25 Q4.65 25.25 4.8 25.4 4.45 26.3 3.8 25.75 3.35 25.4 3.95 25.25 L4.35 25.25 M1.2 25.2 Q1.15 24.9 1.4 24.8 L1.9 24.6 Q2.2 24.75 2.25 25.1 2.35 25.4 2.1 25.6 1.7 25.75 1.3 25.45 1.15 25.35 1.2 25.2 M0.1 24.35 L0.15 24.1 Q0.15 23.8 0.5 23.75 1.05 24.0 0.65 24.45 0.3 24.9 0.1 24.35 M21.7 23.25 Q21.75 23.15 21.85 23.15 22.55 23.65 21.7 23.6 21.35 23.55 21.7 23.25 M19.25 26.15 Q19.4 26.3 19.4 26.55 19.35 26.75 19.25 26.85 19.05 27.0 18.8 26.9 18.5 26.75 18.5 26.4 18.3 26.4 18.6 26.0 18.65 25.95 18.75 25.9 L19.0 26.0 Q19.15 26.0 19.25 26.15 M-2.25 14.8 Q-1.7 15.4 -2.6 15.15 -3.0 15.05 -2.5 14.9 L-2.25 14.8 M-3.2 19.55 Q-3.0 19.3 -2.75 19.25 -2.1 19.55 -2.7 19.95 -3.1 20.2 -3.25 19.8 -3.25 19.65 -3.2 19.55 M-2.35 22.0 Q-2.1 22.1 -2.1 22.35 -2.15 22.7 -2.5 22.8 -2.9 22.95 -3.05 22.55 L-3.05 22.3 Q-3.05 22.05 -2.75 21.95 L-2.6 21.9 -2.35 22.0 M-0.4 22.8 Q-0.25 22.85 -0.2 23.05 -0.5 23.6 -1.15 23.3 -1.3 23.25 -1.3 23.05 -1.3 22.9 -1.2 22.8 -1.1 22.6 -0.9 22.55 L-0.75 22.5 Q-0.65 22.7 -0.4 22.8 M-0.55 22.25 Q-1.0 22.15 -0.5 21.9 0.2 22.45 -0.55 22.25" fill="#c57676" fill-rule="evenodd" stroke="none"/>
    <path d="M17.05 7.25 L16.95 8.35 16.45 9.65 16.45 9.8 Q16.45 10.65 16.75 11.3 16.9 11.75 17.2 12.15 L17.25 12.4 Q17.1 12.85 17.1 13.4 L17.7 15.55 Q17.65 16.1 18.0 16.7 18.9 18.1 20.15 18.35 20.9 18.75 21.65 18.95 21.95 19.4 22.15 19.85 22.0 19.95 21.95 20.05 L21.95 20.25 Q22.0 20.45 22.15 20.55 21.95 20.6 21.9 20.9 21.9 21.35 22.3 21.5 L22.35 21.5 22.25 21.9 Q22.1 21.75 21.85 21.75 21.55 21.8 21.35 22.05 21.2 22.2 21.25 22.4 21.3 22.65 21.55 22.75 L21.85 22.8 Q21.6 23.15 21.3 23.4 L21.25 23.2 Q21.05 22.85 20.65 22.9 20.4 22.9 20.25 23.1 L20.15 23.25 Q20.1 23.5 20.25 23.7 L20.05 24.0 Q19.95 24.0 19.9 24.05 L19.7 24.0 19.2 24.05 Q18.85 24.05 18.75 24.4 18.75 24.6 18.85 24.75 L18.85 24.8 18.65 24.8 18.6 24.75 18.45 24.7 18.25 24.6 18.15 24.6 Q17.8 24.6 17.6 24.9 17.5 25.1 17.55 25.3 17.6 25.4 17.65 25.45 L17.8 25.55 Q17.6 25.6 17.55 25.8 L17.2 25.7 Q16.95 25.7 16.8 25.9 16.75 25.95 16.75 26.05 L16.6 26.1 16.15 26.3 Q16.1 26.15 15.85 25.95 L14.75 26.65 14.7 26.8 14.65 26.8 Q14.7 26.6 14.6 26.45 L12.5 26.9 12.45 27.1 12.35 27.1 12.35 27.05 Q12.55 26.65 12.05 26.5 L11.35 26.65 Q11.05 26.65 11.0 26.9 L11.0 27.0 10.95 27.0 Q10.85 26.95 10.75 26.9 L10.55 26.95 10.35 26.9 Q10.45 26.8 10.4 26.6 L9.6 26.6 9.6 26.75 9.4 26.65 9.25 26.55 8.6 26.25 Q8.45 26.25 8.35 26.3 L7.9 26.15 Q7.5 26.2 7.1 26.1 L6.9 26.0 6.8 26.05 Q6.55 25.95 6.3 25.85 L6.1 25.7 Q5.85 25.5 5.6 25.25 L5.8 25.0 Q5.8 24.75 5.65 24.55 5.55 24.3 5.25 24.3 4.85 24.35 4.75 24.75 4.7 24.85 4.7 25.0 4.2 25.0 3.9 24.6 4.2 24.6 4.4 24.4 4.4 24.15 4.2 23.95 3.95 23.7 3.6 23.7 L3.55 23.7 3.55 23.5 2.95 23.65 3.0 23.6 2.9 23.25 Q2.85 23.1 2.75 23.0 2.65 22.8 2.25 22.8 L2.05 22.85 1.9 23.0 1.9 23.1 Q1.85 23.3 2.0 23.45 L2.15 23.6 2.15 23.65 Q1.6 23.55 1.3 23.05 1.55 22.7 0.95 22.6 0.75 22.6 0.7 22.75 0.2 22.55 0.1 22.0 L0.25 21.9 Q0.6 21.55 0.3 21.35 L0.25 21.3 Q0.1 21.1 -0.1 21.1 -0.2 21.1 -0.25 21.15 L-0.5 21.0 Q-0.6 21.05 -0.65 21.1 L-0.7 21.0 Q-0.55 20.85 -0.5 20.65 -0.35 20.25 -0.7 20.1 L-0.8 20.15 -0.75 20.1 -0.95 19.9 Q-0.9 19.75 -1.0 19.55 L-1.05 19.45 -1.25 19.3 Q-1.3 19.25 -1.35 19.25 L-1.45 18.95 Q-1.15 19.15 -1.0 18.75 -0.7 18.2 -1.3 18.15 L-1.5 18.25 -1.55 18.25 -1.55 18.2 Q-1.3 18.05 -1.3 17.75 -1.3 17.55 -1.45 17.4 L-1.3 17.0 Q-1.6 16.8 -1.7 16.5 -1.3 16.55 -1.2 16.1 -1.2 15.95 -1.35 15.9 -1.5 15.8 -1.65 15.7 -1.45 15.35 -1.0 14.9 -0.9 14.8 -0.85 14.65 -0.7 14.25 -1.1 14.05 -0.9 13.7 -0.35 13.2 L-0.1 13.3 Q0.2 13.25 0.3 12.9 L0.35 12.7 0.7 12.45 Q0.55 12.25 0.7 12.05 L0.85 11.85 Q0.95 11.7 1.2 11.55 1.35 11.55 1.45 11.4 L1.5 11.35 2.4 10.9 4.25 10.15 4.5 10.2 4.4 10.55 4.75 10.1 8.45 1.3 10.3 0.4 10.2 0.55 Q12.25 0.65 14.35 1.85 L15.15 2.4 16.3 4.45 16.35 4.65 17.05 7.25 M15.85 26.4 L15.8 26.45 15.8 26.4 15.85 26.4 M13.8 27.0 L13.4 27.05 13.45 27.0 13.35 26.9 13.55 26.9 Q13.65 26.95 13.8 27.0" fill="url(#gradient0)" fill-rule="evenodd" stroke="none"/>
    <path d="M10.3 0.4 Q9.65 0.35 9.0 0.4 9.0 0.35 9.05 0.3 9.25 0.15 9.45 0.05 10.25 -0.35 11.1 -0.35 12.05 -0.4 12.95 -0.1 13.4 -0.1 13.75 0.1 13.9 0.0 14.1 0.0 15.7 0.75 16.4 2.45 16.55 2.75 16.6 3.05 L16.65 2.95 Q17.1 4.2 17.2 5.7 17.3 6.7 17.25 7.7 L17.05 7.25 16.35 4.65 16.3 4.45 15.15 2.4 14.35 1.85 Q12.25 0.65 10.2 0.55 L10.3 0.4 M16.95 8.35 Q17.15 8.2 17.35 8.1 17.25 8.55 17.2 9.0 17.25 9.85 17.65 10.8 17.9 11.45 17.95 12.2 17.95 12.35 17.85 12.5 18.0 13.35 18.2 14.3 18.3 14.75 18.35 15.2 18.8 16.3 19.6 17.2 L20.8 18.5 20.25 18.25 20.15 18.35 Q18.9 18.1 18.0 16.7 17.65 16.1 17.7 15.55 L17.1 13.4 Q17.1 12.85 17.25 12.4 L17.3 12.25 17.2 12.15 Q16.9 11.75 16.75 11.3 16.45 10.65 16.45 9.8 L16.45 9.65 16.95 8.35 M16.15 26.3 Q16.25 26.5 15.85 26.4 L15.8 26.4 15.8 26.45 15.7 26.55 15.65 26.55 Q15.7 26.7 15.7 26.85 15.6 27.1 15.3 27.15 14.9 27.25 14.7 26.9 L14.7 26.8 14.75 26.65 15.85 25.95 Q16.1 26.15 16.15 26.3 M14.65 26.8 L14.6 26.95 Q14.7 27.1 14.5 27.4 14.35 27.6 14.15 27.55 14.15 27.7 14.05 27.75 13.95 27.85 13.85 27.85 13.45 27.95 13.35 27.5 13.35 27.45 13.35 27.35 13.45 27.1 13.75 27.1 L13.85 27.1 Q13.85 27.0 13.85 26.95 L13.8 27.0 Q13.65 26.95 13.55 26.9 L13.35 26.9 13.45 27.0 13.4 27.05 Q13.3 27.25 13.05 27.4 12.65 27.6 12.45 27.15 L12.45 27.1 12.5 26.9 14.6 26.45 Q14.7 26.6 14.65 26.8 M12.35 27.1 L12.35 27.45 Q11.65 27.8 11.65 27.1 L11.55 27.2 Q11.25 27.45 11.05 27.15 11.15 27.35 10.95 27.65 10.75 27.95 10.5 27.7 L10.35 27.9 10.25 27.95 Q9.9 27.85 9.9 27.45 9.9 27.1 10.25 27.0 10.35 27.05 10.4 27.1 10.45 27.0 10.55 26.95 L10.75 26.9 Q10.85 26.95 10.95 27.0 L11.0 27.1 11.0 27.0 11.0 26.9 Q11.05 26.65 11.35 26.65 L12.05 26.5 Q12.55 26.65 12.35 27.05 L12.35 27.1 M10.35 26.9 Q10.3 27.0 10.15 27.0 9.65 27.05 9.6 26.75 L9.6 26.6 10.4 26.6 Q10.45 26.8 10.35 26.9 M9.4 26.65 Q9.5 26.8 9.45 26.95 9.2 27.2 8.95 27.15 L8.9 27.15 Q8.2 27.3 8.25 26.65 8.25 26.4 8.35 26.3 8.45 26.25 8.6 26.25 L9.25 26.55 9.4 26.65 M4.25 10.15 L4.2 10.15 Q4.45 9.4 4.95 8.65 5.5 6.9 6.25 5.15 6.6 4.4 7.0 3.7 7.1 3.1 7.3 2.45 7.65 1.5 8.4 0.9 L8.45 1.3 4.75 10.1 4.4 10.55 4.5 10.2 4.25 10.15 M12.4 28.45 Q11.7 28.5 12.3 28.15 12.9 28.35 12.4 28.45" fill="#111111" fill-rule="evenodd" stroke="none"/>
    <path d="M14.15 9.15 L14.05 8.9 Q13.95 8.8 14.0 8.7 13.95 8.5 14.1 8.4 L15.2 8.85 Q15.55 9.1 15.05 9.5 L14.45 9.45 14.5 9.35 14.4 9.3 14.5 9.25 Q14.6 9.15 14.65 9.05 14.65 8.8 14.45 8.8 14.3 8.8 14.2 8.95 14.15 9.0 14.15 9.1 L14.15 9.15 M12.65 10.6 Q12.8 10.95 12.4 11.3 L11.8 11.55 12.2 10.85 12.65 10.6" fill="#69221e" fill-rule="evenodd" stroke="none"/>
    <path d="M10.2 14.0 L9.95 14.6 Q9.65 16.45 8.5 18.35 7.45 20.05 6.65 21.8 6.75 19.3 8.05 16.6 8.8 15.05 9.7 13.7 L10.0 13.2 10.0 13.95 10.0 14.05 10.05 14.0 10.3 13.8 10.2 14.0 M6.65 14.0 L6.55 14.05 6.5 13.75 Q6.5 13.35 6.7 13.0 6.8 12.7 7.1 12.4 L7.2 12.25 8.05 11.6 Q8.3 11.45 8.6 11.3 L8.75 11.5 8.8 11.65 7.9 12.45 Q7.15 13.15 6.65 14.0 M2.7 12.05 Q2.95 12.15 3.0 12.4 L2.1 13.1 Q1.55 13.2 1.3 12.7 1.3 12.65 1.35 12.55 1.45 12.25 1.7 12.05 L2.7 12.05 M8.0 14.5 Q8.1 14.6 8.15 14.7 8.2 15.05 8.1 15.25 8.0 15.4 7.85 15.55 L7.0 16.2 Q6.85 16.0 6.7 16.05 6.3 16.2 6.0 15.8 6.15 15.25 6.65 14.9 7.1 14.6 7.5 14.4 L7.95 14.5 8.0 14.5 M9.8 20.45 L9.85 20.5 Q9.55 20.7 9.2 20.4 9.0 20.2 9.25 20.15 L9.25 20.1 9.45 20.2 Q9.2 20.25 9.4 20.4 9.65 20.6 9.8 20.45 M10.65 20.4 L10.9 20.55 Q11.15 20.7 11.3 20.9 10.95 21.3 10.4 20.9 10.1 20.65 10.2 20.25 L10.3 20.15 10.4 20.1 10.45 20.2 Q10.2 20.3 10.35 20.6 10.65 21.05 11.0 20.8 L10.8 20.5 10.65 20.4 M9.5 22.05 L9.35 22.0 9.3 21.95 9.3 21.9 9.35 21.85 9.45 21.85 9.45 21.9 9.5 22.05 M9.8 22.4 Q9.8 22.55 9.8 22.7 9.5 22.7 9.6 22.35 L9.6 22.25 Q9.7 22.4 9.8 22.4 M1.45 14.95 L2.75 13.65 Q3.05 14.7 2.1 16.0 1.5 16.8 0.65 17.1 0.7 16.0 1.45 14.95 M2.65 19.0 L3.7 18.15 Q4.3 18.75 3.55 19.8 3.05 20.45 2.4 20.3 2.25 19.6 2.65 19.0 M11.05 22.6 L11.0 22.55 11.0 22.5 10.95 22.45 11.0 22.4 11.05 22.6 M10.85 23.0 Q10.9 23.05 11.0 23.1 L11.05 22.8 11.05 22.65 11.05 23.1 Q11.05 23.35 11.0 23.6 10.85 23.35 10.85 23.0 M5.7 21.3 Q5.25 22.0 4.7 22.5 4.9 21.55 5.3 20.6 L6.1 19.3 Q6.4 20.15 5.7 21.3 M20.65 19.9 L21.0 19.7 Q21.45 19.85 21.75 20.2 21.95 20.5 21.8 20.85 21.25 21.15 20.8 20.65 20.55 20.35 20.65 20.0 L20.65 19.9 M17.7 20.55 L17.6 20.65 Q17.35 19.9 17.25 19.1 17.15 18.35 17.55 18.05 L17.95 20.0 17.9 19.95 Q17.65 20.2 17.7 20.55 M20.75 21.75 Q20.9 22.0 20.75 22.3 20.05 22.7 19.85 21.85 L20.15 21.35 Q20.55 21.45 20.75 21.75 M18.9 19.95 Q18.15 19.05 17.75 17.6 17.45 16.45 18.0 15.8 L18.8 18.2 Q18.95 19.1 18.9 19.95 M15.4 19.45 L15.35 19.6 Q15.2 19.95 15.0 19.85 14.95 19.55 15.0 19.3 L15.0 19.2 Q15.15 19.45 15.4 19.5 L15.4 19.45 M14.3 20.25 L14.1 20.25 Q13.8 20.25 13.95 20.4 14.25 20.65 14.5 20.45 14.5 20.3 14.3 20.25 M14.45 20.6 L14.05 20.55 Q13.65 20.4 13.95 20.2 L14.4 20.25 Q14.6 20.3 14.65 20.5 L14.6 20.55 14.55 20.55 14.45 20.6 M14.75 21.0 Q14.7 21.15 14.55 21.3 14.45 21.1 14.45 20.85 14.4 20.75 14.45 20.65 L14.5 20.75 14.75 21.0 M12.9 21.35 L12.85 21.7 Q12.75 21.95 12.55 22.1 12.5 21.8 12.55 21.5 12.6 21.25 12.75 21.1 L12.6 21.1 Q12.35 21.0 12.2 20.85 L12.2 20.75 12.25 20.65 12.3 20.75 Q12.4 21.05 12.7 20.9 12.75 20.8 12.65 20.7 L12.45 20.6 Q12.65 20.6 12.8 20.7 12.95 20.8 12.95 20.95 L12.8 21.1 12.85 21.15 Q12.7 21.15 12.7 21.25 12.65 21.4 12.75 21.5 12.8 21.65 12.85 21.45 L12.9 21.35 M17.55 24.6 Q17.6 24.85 17.45 24.95 16.95 25.0 16.95 24.5 16.9 24.15 17.25 24.2 L17.55 24.6 M19.2 23.15 Q19.3 23.5 19.15 23.75 L18.6 22.7 Q19.05 22.8 19.2 23.15" fill="#a04545" fill-rule="evenodd" stroke="none"/>
    <path d="M14.95 12.2 L15.55 12.85 Q14.85 13.6 15.65 16.2 L15.25 15.9 15.05 15.75 14.9 15.8 14.85 15.85 14.8 15.9 14.7 16.0 14.55 16.3 14.45 16.75 14.35 16.95 Q14.35 17.1 14.25 17.1 14.15 17.15 14.05 17.25 L13.95 17.3 13.9 17.25 13.9 17.3 13.9 17.25 13.85 17.2 13.65 17.4 13.3 17.75 12.1 18.25 12.05 18.25 11.95 18.25 Q11.3 17.55 10.7 17.95 L9.95 17.3 Q10.65 15.0 12.1 13.15 L12.75 12.9 13.6 12.55 14.6 12.2 14.95 12.2 M14.25 13.3 Q14.05 13.2 13.85 13.25 13.55 13.25 13.65 13.55 13.8 14.1 14.35 13.6 14.45 13.4 14.25 13.3 M13.25 13.3 Q12.95 13.3 12.9 13.6 L12.75 13.55 Q12.65 13.6 12.6 13.7 L12.5 13.6 12.35 13.55 Q12.1 13.7 12.3 13.7 L12.3 13.8 12.4 13.95 12.3 13.95 Q12.0 14.0 12.0 14.25 12.0 14.55 12.15 14.7 L12.05 14.7 Q11.85 14.7 11.95 14.85 12.2 15.15 12.4 14.8 12.75 14.75 12.75 14.45 12.8 14.1 12.5 13.95 L12.55 13.9 12.6 13.95 12.9 13.95 Q13.05 14.3 13.5 14.25 13.75 14.1 13.7 13.8 13.6 13.4 13.25 13.3 M11.1 16.1 Q10.85 16.15 10.8 16.45 10.35 16.65 10.85 16.7 L10.85 16.85 Q10.8 16.9 10.8 17.0 10.45 17.0 10.6 17.3 10.95 17.9 11.35 17.45 11.3 17.2 11.1 17.1 L10.95 17.05 10.9 16.9 Q11.05 17.1 11.4 17.1 11.5 16.85 11.5 16.6 11.4 16.25 11.1 16.1 M11.5 15.5 Q11.35 15.55 11.6 15.65 L12.05 15.7 Q11.8 15.8 12.05 15.95 L12.25 16.0 Q12.95 16.2 12.3 15.75 L12.15 15.6 12.05 15.65 Q12.1 15.6 11.9 15.4 L11.7 15.15 11.5 15.2 Q11.25 15.15 11.35 15.35 L11.5 15.5 M11.6 15.4 L11.65 15.4 11.6 15.45 11.6 15.4 M11.55 14.95 Q11.3 15.05 11.55 15.1 11.95 15.15 11.55 14.95 M11.7 17.1 Q11.7 17.3 11.85 17.4 12.2 17.55 12.3 17.2 12.4 16.9 12.25 16.7 L12.1 16.7 11.8 16.85 Q11.65 16.95 11.7 17.1 M12.2 17.65 Q12.8 17.85 12.3 17.45 11.9 17.55 12.2 17.65 M13.05 15.45 Q13.1 15.05 12.65 14.95 12.35 15.0 12.3 15.35 12.25 15.85 12.75 15.95 13.05 15.8 13.05 15.45 M13.0 16.6 Q13.5 16.55 12.9 16.35 12.4 16.65 13.0 16.6" fill="url(#gradient1)" fill-rule="evenodd" stroke="none"/>
    <path d="M15.25 15.9 L15.2 18.0 15.15 18.05 14.75 19.35 14.65 19.6 14.55 19.75 14.0 19.6 Q14.05 19.2 14.05 18.7 14.0 18.2 13.95 17.75 L14.3 17.5 14.35 17.5 14.4 17.45 Q14.5 17.35 14.4 17.25 14.5 17.2 14.6 17.1 L14.8 17.45 Q14.9 17.15 14.95 16.8 L14.95 15.85 14.7 16.0 14.8 15.9 14.85 15.85 14.9 15.8 15.05 15.75 15.25 15.9 M10.8 20.25 L10.85 20.15 10.85 20.1 10.75 20.0 10.75 19.75 Q10.85 20.0 11.05 20.2 10.9 19.9 10.85 19.5 L10.85 18.85 Q10.85 18.75 10.95 18.65 L10.95 18.6 11.15 18.5 11.4 18.4 11.45 18.4 Q11.65 18.5 11.7 18.3 11.6 18.1 11.4 18.0 L11.15 17.95 11.15 17.9 Q11.55 18.0 11.85 18.3 L11.85 18.35 11.95 18.25 12.05 18.25 12.1 18.25 13.3 17.75 13.65 17.4 13.9 17.3 13.9 17.25 13.95 17.3 14.05 17.35 13.95 17.35 Q13.75 17.35 13.6 17.6 L13.55 17.65 Q13.3 18.1 13.3 18.6 13.3 19.0 13.45 19.25 L13.45 19.4 13.1 20.3 12.35 20.1 12.25 20.1 12.2 20.0 12.2 19.95 12.45 20.05 12.45 19.9 12.3 19.55 12.15 19.3 12.15 18.95 Q12.25 18.7 12.5 18.55 13.0 18.3 13.0 18.1 L13.1 17.95 12.95 18.0 12.95 17.95 Q12.8 18.0 12.65 18.05 11.9 18.1 11.9 18.65 L11.9 18.85 Q11.6 19.55 12.05 19.85 L12.1 19.95 11.95 19.85 Q11.75 19.6 11.7 19.2 L11.45 19.9 Q11.35 20.0 11.25 20.1 L11.05 20.45 10.8 20.25 M10.7 19.9 L10.6 19.75 10.6 19.65 10.7 19.9 M10.3 18.8 Q10.25 19.1 10.1 19.4 9.9 19.85 9.55 19.6 L9.25 18.95 Q9.55 18.95 9.8 18.7 L10.05 18.45 10.3 18.8 M9.65 18.0 L9.85 17.8 9.65 18.0 M9.95 17.65 Q10.0 17.55 10.15 17.5 L10.35 17.8 10.25 17.55 Q10.1 17.55 10.1 17.7 L10.1 17.65 10.0 17.7 9.95 17.65 M10.5 18.0 L10.65 18.05 10.5 18.0 M11.75 6.8 Q11.9 8.3 10.8 9.15 9.4 10.7 9.15 8.5 9.05 5.95 11.0 5.7 12.05 5.7 11.75 6.8 M10.05 7.8 L9.9 7.75 9.45 8.05 9.45 8.6 Q9.75 8.75 10.0 8.5 10.25 8.25 10.15 7.85 L10.05 7.8 M9.95 18.2 L9.85 18.25 9.9 18.15 9.95 18.2 M14.45 16.75 L14.55 16.5 Q14.5 16.75 14.55 17.0 14.5 16.95 14.4 16.95 L14.35 16.95 14.45 16.75 M13.85 19.6 L13.85 19.55 13.85 19.6" fill="#edd6d6" fill-rule="evenodd" stroke="none"/>
    <path d="M10.75 20.0 L10.7 19.9 10.6 19.65 10.6 19.75 10.3 18.8 10.05 18.45 9.8 18.7 Q9.55 18.95 9.25 18.95 L9.65 18.0 9.85 17.8 9.95 17.65 10.0 17.7 10.1 17.65 10.1 17.7 Q10.1 17.55 10.25 17.55 L10.35 17.8 10.5 18.0 10.65 18.05 11.15 17.95 11.4 18.0 Q11.6 18.1 11.7 18.3 11.65 18.5 11.45 18.4 L11.4 18.4 11.15 18.5 10.95 18.6 10.95 18.65 Q10.85 18.75 10.85 18.85 L10.85 19.5 Q10.9 19.9 11.05 20.2 10.85 20.0 10.75 19.75 L10.75 20.0 M9.95 18.2 L9.9 18.15 9.85 18.25 9.95 18.2 M12.1 19.95 L12.05 19.85 Q11.6 19.55 11.9 18.85 L11.9 18.65 Q11.9 18.1 12.65 18.05 12.8 18.0 12.95 17.95 L12.95 18.0 13.1 17.95 13.0 18.1 Q13.0 18.3 12.5 18.55 12.25 18.7 12.15 18.95 L12.15 19.3 12.3 19.55 12.45 19.9 12.45 20.05 12.2 19.95 12.2 20.0 12.1 19.95 M13.45 19.25 Q13.3 19.0 13.3 18.6 13.3 18.1 13.55 17.65 L13.6 17.6 Q13.75 17.35 13.95 17.35 L14.05 17.35 13.95 17.3 14.05 17.25 Q14.15 17.15 14.25 17.1 14.35 17.1 14.35 16.95 L14.4 16.95 Q14.5 16.95 14.55 17.0 14.5 16.75 14.55 16.5 L14.55 16.3 14.7 16.0 14.95 15.85 14.95 16.8 Q14.9 17.15 14.8 17.45 L14.6 17.1 Q14.5 17.2 14.4 17.25 14.5 17.35 14.4 17.45 L14.35 17.5 14.3 17.5 13.95 17.75 Q14.0 18.2 14.05 18.7 14.05 19.2 14.0 19.6 L13.85 19.6 13.85 19.55 13.7 19.6 13.65 19.6 13.45 19.25 M13.85 17.2 L13.9 17.25 13.85 17.2" fill="#afadbf" fill-rule="evenodd" stroke="none"/>
    <path d="M9.45 20.2 L9.55 20.25 9.75 20.25 Q9.85 20.25 9.9 20.4 L9.8 20.45 Q9.65 20.6 9.4 20.4 9.2 20.25 9.45 20.2 M10.45 20.2 L10.65 20.4 10.8 20.5 11.0 20.8 Q10.65 21.05 10.35 20.6 10.2 20.3 10.45 20.2 M9.45 21.85 L9.6 21.7 Q9.85 21.8 9.95 22.05 10.0 22.25 9.85 22.4 L9.8 22.4 Q9.7 22.4 9.6 22.25 L9.5 22.05 9.45 21.9 9.45 21.85 M10.95 22.45 L11.0 22.5 11.0 22.55 11.05 22.6 11.05 22.65 11.05 22.8 11.0 23.1 Q10.9 23.05 10.85 23.0 10.8 22.9 10.8 22.85 10.8 22.7 10.85 22.6 10.8 22.5 10.95 22.45 M15.0 19.2 L15.0 19.1 Q14.9 18.9 15.15 18.9 L15.25 18.9 Q15.4 19.0 15.5 19.15 L15.4 19.45 15.4 19.5 Q15.15 19.45 15.0 19.2 M14.3 20.25 Q14.5 20.3 14.5 20.45 14.25 20.65 13.95 20.4 13.8 20.25 14.1 20.25 L14.3 20.25 M14.6 20.55 L14.75 20.6 14.85 20.65 Q14.9 20.75 14.85 20.8 L14.8 21.0 14.75 21.05 14.75 21.0 14.5 20.75 14.45 20.65 14.45 20.6 14.55 20.55 14.6 20.55 M12.85 21.15 L12.9 21.35 12.85 21.45 Q12.8 21.65 12.75 21.5 12.65 21.4 12.7 21.25 12.7 21.15 12.85 21.15 M12.25 20.65 Q12.3 20.55 12.4 20.55 L12.45 20.6 12.65 20.7 Q12.75 20.8 12.7 20.9 12.4 21.05 12.3 20.75 L12.25 20.65" fill="#e6c4c4" fill-rule="evenodd" stroke="none"/>
    <path d="M14.4 9.3 L14.15 9.15 14.15 9.1 Q14.15 9.0 14.2 8.95 14.3 8.8 14.45 8.8 14.65 8.8 14.65 9.05 14.6 9.15 14.5 9.25 L14.4 9.3 M10.05 7.8 L10.15 7.85 Q10.25 8.25 10.0 8.5 9.75 8.75 9.45 8.6 L9.45 8.05 9.9 7.75 10.05 7.8" fill="#ff0000" fill-rule="evenodd" stroke="none"/>
    <path d="M12.7 2.8 L12.9 2.7 Q13.05 2.8 13.2 2.9 13.4 3.0 13.45 3.2 13.2 3.55 12.75 3.65 12.5 3.7 12.4 3.5 L12.4 3.15 Q12.45 2.9 12.7 2.8 M13.45 2.85 Q13.45 2.6 13.7 2.5 L14.1 2.6 Q14.2 2.65 14.3 2.75 14.35 3.05 14.1 3.25 13.8 3.5 13.5 3.2 13.4 3.05 13.45 2.85 M14.5 3.8 Q14.75 3.9 14.85 4.1 14.75 4.65 14.25 4.65 13.6 4.7 13.6 4.1 L13.6 4.05 13.75 3.85 Q13.9 3.7 14.1 3.7 14.3 3.75 14.5 3.8 M16.75 8.4 L16.5 8.55 Q16.15 8.65 15.95 8.4 L15.9 8.2 Q15.9 8.05 15.9 7.95 L15.95 7.75 16.05 7.7 Q16.1 7.6 16.2 7.6 L16.35 7.55 Q16.75 7.6 16.8 7.95 16.9 8.2 16.75 8.4 M16.25 9.75 Q16.45 9.8 16.6 9.9 L16.85 10.35 Q16.7 10.9 16.05 10.7 15.8 10.65 15.7 10.4 15.7 10.3 15.75 10.15 15.85 9.8 16.15 9.75 16.05 9.75 16.25 9.55 16.5 9.65 16.25 9.7 L16.2 9.75 16.25 9.75 M14.6 12.2 L14.35 12.1 Q14.2 12.0 14.15 11.85 L14.15 11.6 Q14.25 11.2 14.7 11.15 L14.7 11.05 Q14.65 10.85 14.7 10.7 L14.75 10.5 14.85 10.45 Q14.95 10.35 15.0 10.35 15.1 10.3 15.15 10.3 15.6 10.35 15.7 10.8 15.8 11.15 15.5 11.35 15.4 11.45 15.3 11.5 15.35 11.6 15.35 11.75 15.2 12.15 14.95 12.2 L14.6 12.2 M12.75 12.9 Q12.55 12.8 12.25 12.6 L12.25 12.55 12.05 12.95 Q11.7 13.2 11.35 13.05 L11.4 13.15 Q11.4 13.55 11.1 13.8 10.8 14.05 10.55 13.9 L10.5 13.95 10.25 14.0 10.2 14.0 10.3 13.8 10.05 14.0 10.0 13.95 10.0 13.2 9.7 13.7 9.65 13.6 Q9.65 13.5 9.65 13.35 9.6 13.25 9.65 13.2 L9.55 13.1 9.15 13.5 Q8.75 13.45 8.65 13.05 9.6 12.05 9.2 11.3 L8.8 11.65 8.75 11.5 8.75 11.45 Q8.85 11.35 8.95 11.35 9.25 11.2 9.45 11.2 9.7 11.3 9.8 11.45 9.8 11.15 9.95 10.8 10.35 10.15 11.0 9.95 11.15 10.05 11.25 10.2 11.05 10.4 11.15 10.7 11.35 10.85 11.55 10.85 11.55 11.2 11.3 11.6 L10.8 12.1 Q11.1 12.35 10.65 12.85 L10.85 12.8 11.15 12.9 Q10.9 12.55 11.15 12.2 11.45 11.9 11.8 11.9 L12.0 12.0 12.1 12.1 Q12.15 11.95 12.3 11.85 12.45 11.7 12.65 11.65 12.7 11.55 12.85 11.5 L13.05 11.4 Q13.15 11.25 13.35 11.25 L13.75 11.15 Q14.1 11.2 14.1 11.55 14.1 11.8 14.0 12.0 13.9 12.2 13.7 12.3 L13.6 12.55 12.75 12.9 M6.5 13.75 L6.25 13.8 Q5.75 13.8 5.65 13.35 L5.7 13.15 Q5.7 13.05 5.8 13.0 5.95 12.85 6.1 12.85 6.4 12.8 6.65 13.0 L6.7 13.0 Q6.5 13.35 6.5 13.75 M7.2 12.25 L7.15 12.15 Q6.7 12.45 6.05 12.15 5.9 12.1 5.8 12.0 5.25 11.5 5.5 10.8 5.8 9.9 6.7 9.85 L7.1 10.0 7.25 10.05 Q7.25 9.85 7.4 9.75 7.2 9.35 7.65 9.3 L7.95 9.35 Q8.1 9.4 8.25 9.5 8.35 9.65 8.25 9.8 L8.25 9.9 8.15 10.05 Q8.2 10.2 8.2 10.35 L8.15 10.4 8.2 10.45 Q8.35 10.65 8.4 10.85 8.3 11.2 8.0 11.35 7.95 11.4 7.9 11.4 8.0 11.5 8.05 11.6 L7.2 12.25 M12.0 9.8 Q12.05 9.6 12.25 9.55 L12.35 9.5 Q12.4 9.45 12.45 9.45 12.55 9.4 12.65 9.35 L12.85 9.45 12.9 9.45 Q13.05 9.3 13.25 9.25 L13.4 9.35 13.6 9.5 13.65 9.6 Q13.65 9.85 13.45 10.1 13.25 10.45 12.95 10.25 L12.55 10.45 Q13.1 9.95 12.4 9.65 L12.0 9.8 M17.05 12.3 Q16.9 11.9 16.6 11.65 17.0 11.7 17.05 12.1 L17.05 12.3 M16.1 11.9 Q16.0 12.25 16.15 12.75 L16.35 13.4 16.05 13.4 Q15.55 13.35 15.7 12.8 15.8 12.5 16.0 12.35 L16.0 12.25 Q15.95 12.05 16.1 11.9 M16.6 13.9 L16.65 14.0 16.7 13.95 16.8 14.15 Q16.9 14.7 16.35 14.85 15.8 15.0 15.45 14.55 15.4 14.35 15.5 14.15 15.7 13.75 16.1 13.75 L16.45 13.8 Q16.55 13.85 16.6 13.9 M17.05 13.3 L17.1 12.95 17.1 12.75 Q17.4 13.1 17.05 13.3 M8.7 4.2 Q9.0 4.25 9.05 4.55 8.65 5.25 8.2 4.55 8.0 4.25 8.35 4.2 L8.7 4.2 M7.4 7.2 Q7.5 7.05 7.65 6.95 L7.75 6.9 Q8.35 7.05 7.9 7.55 L7.8 7.65 Q8.15 8.0 7.55 8.4 L7.45 8.45 7.4 8.45 Q7.0 8.65 6.8 8.2 6.75 8.1 6.8 8.0 6.75 7.7 6.85 7.45 L6.95 7.35 Q7.05 7.25 7.15 7.2 L7.3 7.15 7.4 7.2 M6.55 8.85 Q6.8 8.9 6.95 9.05 7.15 9.2 7.1 9.4 6.95 9.75 6.55 9.8 6.25 9.8 6.15 9.5 L6.4 8.9 6.55 8.85 M8.1 15.25 Q8.2 15.05 8.15 14.7 8.1 14.6 8.0 14.5 8.2 14.6 8.4 14.75 8.55 14.95 8.4 15.1 8.2 15.25 8.1 15.25 M9.6 12.25 L9.65 12.25 9.45 12.35 9.5 12.35 9.6 12.25" fill="#c57676" fill-rule="evenodd" stroke="none"/>
    <path d="M8.65 13.05 L8.25 13.4 Q7.4 14.15 6.5 14.25 L6.65 14.0 Q7.15 13.15 7.9 12.45 L8.8 11.65 9.2 11.3 Q9.6 12.05 8.65 13.05 M11.25 10.2 Q11.35 10.05 11.55 10.0 11.75 9.9 12.0 9.8 L12.4 9.65 Q13.1 9.95 12.55 10.45 L12.2 10.7 Q11.85 10.9 11.55 10.85 11.35 10.85 11.15 10.7 11.05 10.4 11.25 10.2 M16.6 11.65 Q16.9 11.9 17.05 12.3 17.1 12.5 17.1 12.75 L17.1 12.95 17.05 13.3 Q16.95 13.65 16.7 13.95 L16.65 14.0 16.6 13.9 16.35 13.4 16.15 12.75 Q16.0 12.25 16.1 11.9 16.15 11.7 16.35 11.5 L16.6 11.65 M3.7 10.25 L4.2 10.1 Q4.8 10.45 4.05 10.85 3.55 11.15 3.45 10.7 3.4 10.4 3.7 10.25 M3.25 16.55 Q3.2 16.9 2.95 17.15 2.5 17.65 2.0 17.35 1.9 17.1 2.0 16.9 2.3 16.5 2.75 16.4 L2.95 16.4 3.15 16.45 3.25 16.55 M5.3 19.95 Q4.85 20.4 4.35 19.95 4.45 19.4 4.95 19.05 5.3 18.85 5.65 18.8 5.85 19.35 5.3 19.95 M19.85 18.15 Q20.1 18.3 20.1 18.6 19.55 18.95 19.15 18.4 18.85 17.95 19.35 17.8 L19.85 18.15 M19.25 19.3 L19.95 20.35 Q19.5 20.5 19.1 19.8 18.85 19.35 19.25 19.3 M17.95 20.0 L18.45 20.9 Q18.55 21.3 18.55 21.75 18.05 21.6 17.75 20.85 17.7 20.7 17.7 20.55 17.65 20.2 17.9 19.95 L17.95 20.0" fill="#ecacac" fill-rule="evenodd" stroke="none"/>
    <path d="M15.2 18.0 L15.8 17.5 Q16.65 19.7 15.95 22.1 15.65 24.6 16.55 26.1 12.75 27.85 7.95 26.15 6.75 22.75 9.2 19.2 L9.55 20.0 10.2 19.6 10.8 20.25 11.05 20.45 11.75 19.85 12.25 20.1 12.35 20.1 13.1 20.45 13.65 19.6 13.7 19.6 14.45 20.0 14.65 19.6 14.75 19.35 15.15 18.05 15.2 18.0 M13.25 13.3 Q13.6 13.4 13.7 13.8 13.75 14.1 13.5 14.25 13.05 14.3 12.9 13.95 L12.6 13.95 12.55 13.9 12.5 13.95 Q12.8 14.1 12.75 14.45 12.75 14.75 12.4 14.8 12.2 15.15 11.95 14.85 11.85 14.7 12.05 14.7 L12.15 14.7 Q12.0 14.55 12.0 14.25 12.0 14.0 12.3 13.95 L12.4 13.95 12.3 13.8 12.3 13.7 Q12.1 13.7 12.35 13.55 L12.5 13.6 12.6 13.7 Q12.65 13.6 12.75 13.55 L12.9 13.6 Q12.95 13.3 13.25 13.3 M14.25 13.3 Q14.45 13.4 14.35 13.6 13.8 14.1 13.65 13.55 13.55 13.25 13.85 13.25 14.05 13.2 14.25 13.3 M11.55 14.95 Q11.95 15.15 11.55 15.1 11.3 15.05 11.55 14.95 M11.6 15.4 L11.6 15.45 11.65 15.4 11.6 15.4 M11.5 15.5 L11.35 15.35 Q11.25 15.15 11.5 15.2 L11.7 15.15 11.9 15.4 Q12.1 15.6 12.05 15.65 L12.15 15.6 12.3 15.75 Q12.95 16.2 12.25 16.0 L12.05 15.95 Q11.8 15.8 12.05 15.7 L11.6 15.65 Q11.35 15.55 11.5 15.5 M11.1 16.1 Q11.4 16.25 11.5 16.6 11.5 16.85 11.4 17.1 11.05 17.1 10.9 16.9 L10.95 17.05 11.1 17.1 Q11.3 17.2 11.35 17.45 10.95 17.9 10.6 17.3 10.45 17.0 10.8 17.0 10.8 16.9 10.85 16.85 L10.85 16.7 Q10.35 16.65 10.8 16.45 10.85 16.15 11.1 16.1 M11.7 17.1 Q11.65 16.95 11.8 16.85 L12.1 16.7 12.25 16.7 Q12.4 16.9 12.3 17.2 12.2 17.55 11.85 17.4 11.7 17.3 11.7 17.1 M9.8 20.45 L9.9 20.4 Q9.85 20.25 9.75 20.25 L9.55 20.25 9.45 20.2 9.25 20.1 9.25 20.15 Q9.0 20.2 9.2 20.4 9.55 20.7 9.85 20.5 L9.8 20.45 M10.45 20.2 L10.4 20.1 10.3 20.15 10.2 20.25 Q10.1 20.65 10.4 20.9 10.95 21.3 11.3 20.9 11.15 20.7 10.9 20.55 L10.65 20.4 10.45 20.2 M9.45 21.85 L9.35 21.85 9.3 21.9 9.3 21.95 9.35 22.0 9.5 22.05 9.6 22.25 9.6 22.35 Q9.5 22.7 9.8 22.7 9.8 22.55 9.8 22.4 L9.85 22.4 Q10.0 22.25 9.95 22.05 9.85 21.8 9.6 21.7 L9.45 21.85 M11.05 22.6 L11.0 22.4 10.95 22.45 Q10.8 22.5 10.85 22.6 10.8 22.7 10.8 22.85 10.8 22.9 10.85 23.0 10.85 23.35 11.0 23.6 11.05 23.35 11.05 23.1 L11.05 22.65 11.05 22.6 M13.05 15.45 Q13.05 15.8 12.75 15.95 12.25 15.85 12.3 15.35 12.35 15.0 12.65 14.95 13.1 15.05 13.05 15.45 M12.2 17.65 Q11.9 17.55 12.3 17.45 12.8 17.85 12.2 17.65 M13.0 16.6 Q12.4 16.65 12.9 16.35 13.5 16.55 13.0 16.6 M15.25 18.9 L15.15 18.9 Q14.9 18.9 15.0 19.1 L15.0 19.2 15.0 19.3 Q14.95 19.55 15.0 19.85 15.2 19.95 15.35 19.6 L15.4 19.45 15.5 19.15 Q15.4 19.0 15.25 18.9 M14.6 20.55 L14.65 20.5 Q14.6 20.3 14.4 20.25 L13.95 20.2 Q13.65 20.4 14.05 20.55 L14.45 20.6 14.45 20.65 Q14.4 20.75 14.45 20.85 14.45 21.1 14.55 21.3 14.7 21.15 14.75 21.0 L14.75 21.05 14.8 21.0 14.85 20.8 Q14.9 20.75 14.85 20.65 L14.75 20.6 14.6 20.55 M12.9 21.35 L12.85 21.15 12.8 21.1 12.95 20.95 Q12.95 20.8 12.8 20.7 12.65 20.6 12.45 20.6 L12.4 20.55 Q12.3 20.55 12.25 20.65 L12.2 20.75 12.2 20.85 Q12.35 21.0 12.6 21.1 L12.75 21.1 Q12.6 21.25 12.55 21.5 12.5 21.8 12.55 22.1 12.75 21.95 12.85 21.7 L12.9 21.35" fill="#111111" fill-rule="evenodd" stroke="none"/>
    <path d="M15.75 2.5 Q16.3 3.1 16.5 3.9 16.65 4.35 16.8 4.9 16.85 5.3 16.9 5.7 L17.15 6.75 Q17.25 7.05 17.25 7.4 L17.25 7.9 17.35 8.1 17.25 8.05 17.2 8.25 17.25 8.35 17.15 8.3 17.05 8.6 16.95 8.75 16.8 9.2 Q16.75 9.4 16.7 9.6 L16.7 9.75 Q16.9 10.3 17.05 11.0 L17.05 11.1 17.25 11.0 Q17.4 11.5 17.45 12.0 17.55 12.5 17.5 12.95 L17.6 13.95 Q17.8 15.1 18.2 16.2 18.6 16.9 19.35 17.45 L20.5 18.35 21.4 18.95 Q19.9 18.75 18.85 17.7 L19.4 18.8 Q20.15 20.1 21.05 21.25 L20.3 20.7 20.5 21.0 19.95 20.4 Q18.75 19.2 18.05 17.45 17.7 16.55 17.65 15.75 L17.55 15.45 17.55 15.3 17.5 15.45 17.6 16.25 17.85 17.5 Q18.25 18.9 18.85 20.3 19.55 21.75 19.95 23.25 19.55 22.75 19.15 22.15 L19.35 22.75 19.15 22.4 19.3 23.15 Q18.0 20.85 17.4 18.2 L17.3 17.75 17.35 19.5 17.45 20.95 17.5 21.4 18.15 24.8 Q17.85 24.2 17.6 23.55 L17.65 24.0 17.45 23.15 Q16.9 21.55 16.7 19.75 16.6 18.75 16.7 17.9 16.65 16.25 16.95 14.5 17.1 13.6 17.05 12.7 L16.8 11.8 Q16.1 11.15 16.25 9.85 16.25 9.35 16.45 9.0 16.55 8.65 16.75 8.45 L16.75 7.75 16.2 6.95 Q15.9 6.5 15.6 6.0 15.25 5.3 15.35 4.7 15.15 4.05 15.3 3.45 L15.5 4.05 15.55 3.95 15.6 4.3 Q15.9 5.1 16.35 5.9 L16.45 6.15 16.4 5.65 Q16.15 4.7 15.7 3.9 15.45 3.25 15.2 2.7 14.55 2.2 13.8 1.8 12.65 1.2 11.45 0.95 10.0 0.8 8.6 1.25 L8.55 1.5 Q8.4 2.4 8.15 3.35 7.5 5.95 6.6 8.55 5.95 10.45 4.9 11.9 4.3 13.5 3.5 15.1 2.75 16.65 1.5 17.7 0.35 19.25 -1.0 20.25 -0.05 18.85 0.95 17.35 1.8 15.75 2.8 14.05 L2.45 14.25 2.6 14.05 2.15 14.45 Q1.6 15.1 0.9 15.65 -0.3 16.65 -1.65 17.1 L-1.05 16.6 Q-0.15 15.4 1.3 14.25 L1.7 13.9 Q1.55 14.0 1.35 14.1 -0.1 14.9 -1.45 15.1 L-0.75 14.7 -0.9 14.75 Q1.1 13.55 3.0 12.2 L2.25 12.4 Q1.25 12.65 0.45 12.4 1.75 12.05 3.05 11.65 3.65 11.45 4.15 11.2 L4.65 10.2 Q4.3 10.45 3.8 10.55 L3.7 10.55 3.45 10.6 3.15 10.7 2.85 10.85 2.4 11.1 2.25 11.15 1.95 11.3 1.95 11.25 Q1.4 11.45 0.8 11.5 1.35 11.0 2.35 10.7 L2.4 10.65 2.25 10.65 Q1.85 10.7 1.5 10.65 L1.2 10.65 1.05 10.6 1.2 10.55 1.0 10.5 2.25 10.25 3.1 10.05 3.65 9.95 4.3 9.8 4.8 9.75 4.85 9.75 Q5.55 8.1 6.15 6.45 7.0 4.05 8.0 1.8 L8.25 1.15 8.2 1.05 8.2 1.0 8.45 0.75 8.55 0.6 8.7 0.45 8.65 0.6 Q9.1 0.35 9.65 0.25 L10.75 0.05 Q12.15 -0.15 13.4 0.35 14.2 0.6 14.6 1.2 15.05 1.5 15.4 1.9 15.6 2.2 15.75 2.5 M15.4 9.0 Q14.9 9.1 14.3 8.8 L14.0 8.65 14.0 8.7 14.2 9.1 14.4 9.3 14.55 9.4 14.6 9.4 Q14.95 9.35 15.35 9.05 L15.4 9.0 M15.6 8.95 Q15.55 9.1 15.5 9.25 15.4 9.7 14.8 9.85 14.4 10.0 14.25 9.75 14.0 9.6 13.8 9.15 13.7 8.9 13.75 8.65 13.7 8.5 13.8 8.4 13.7 8.25 13.8 8.05 L13.95 8.15 13.95 8.1 Q14.3 8.35 14.7 8.45 L14.95 8.55 Q15.4 8.65 15.75 8.9 L15.6 8.95 M12.75 10.95 Q12.65 11.2 12.0 11.55 11.1 12.05 10.4 12.75 10.5 12.55 10.6 12.35 L10.5 12.4 Q11.0 11.6 11.75 10.85 12.45 10.2 13.3 9.95 L13.0 10.25 Q13.05 10.45 13.05 10.65 13.0 10.9 12.75 11.0 L12.75 10.95 M12.65 10.6 L12.1 11.15 Q12.4 11.0 12.7 10.85 12.65 10.75 12.65 10.6 M14.2 12.05 Q14.6 11.85 15.0 11.7 L14.95 11.85 Q15.3 12.1 15.5 12.4 15.75 12.7 15.7 13.0 15.4 12.75 15.1 12.4 14.9 12.2 14.85 12.05 14.7 12.3 14.35 12.5 14.0 12.8 13.45 12.9 L13.25 12.95 12.7 13.0 Q12.05 13.2 11.7 13.7 L11.7 13.65 Q11.25 15.35 10.35 17.1 L10.45 17.2 Q10.8 17.35 10.75 17.7 L10.75 17.75 10.9 17.6 10.95 17.75 Q11.0 17.7 11.1 17.7 L11.2 17.65 Q11.75 17.75 11.9 18.15 12.0 18.0 12.15 17.9 12.55 17.7 12.9 17.5 13.15 17.55 13.35 17.7 13.5 17.25 14.0 17.05 L14.4 16.95 Q14.2 16.65 14.4 16.2 14.6 15.7 15.0 15.4 L15.2 15.45 Q15.3 15.5 15.3 15.65 L15.2 15.7 15.45 15.95 15.4 15.7 Q15.1 14.25 15.2 12.95 L15.25 13.15 Q15.25 13.0 15.3 12.85 L15.4 13.85 Q15.75 15.35 16.0 16.85 L16.1 17.65 Q16.8 19.25 16.5 21.1 L16.3 21.9 16.3 24.75 16.35 25.1 16.45 25.55 16.5 25.95 16.6 26.25 16.55 26.2 16.55 26.4 16.4 26.0 Q15.55 24.85 15.6 22.95 15.6 22.0 15.85 21.15 L15.85 20.85 15.9 19.7 15.85 18.3 15.75 17.5 Q15.6 18.1 15.2 18.3 15.2 18.55 15.1 18.75 L15.05 19.0 Q15.0 19.5 14.65 19.75 L14.7 19.85 Q14.45 20.25 13.9 19.9 13.7 19.75 13.65 19.65 L13.6 19.75 Q13.5 20.4 12.95 20.6 L13.0 20.5 Q12.7 20.7 12.25 20.35 11.95 20.15 11.85 19.8 11.8 19.75 11.9 19.75 12.25 20.0 12.6 20.15 L13.1 20.2 Q13.3 19.7 13.3 19.15 13.35 18.85 13.4 18.6 13.35 18.2 13.1 17.9 12.8 17.9 12.5 18.1 12.2 18.3 11.9 18.2 12.0 18.5 11.95 18.8 L11.9 18.8 Q11.95 19.25 11.85 19.7 11.65 20.25 11.25 20.35 11.55 19.75 11.6 19.05 L11.7 18.6 11.65 18.4 Q11.7 18.25 11.6 18.15 11.5 18.1 11.35 18.05 L11.3 18.0 11.2 17.95 10.95 18.0 10.9 18.0 10.7 18.45 Q10.25 19.4 10.95 20.25 L11.15 20.5 Q10.4 20.25 10.2 19.65 L10.0 19.85 Q9.95 19.95 9.85 19.95 L9.9 20.05 Q9.25 20.25 9.15 19.45 L9.1 19.35 8.85 19.75 8.6 20.5 Q8.15 21.8 7.85 23.1 L7.85 25.6 8.0 26.4 7.85 26.15 7.85 26.3 7.75 26.05 Q7.15 24.95 7.25 23.5 7.3 22.85 7.5 22.3 L7.55 22.15 7.45 22.35 7.65 21.75 Q7.95 20.45 8.55 19.15 8.85 18.5 9.2 17.95 L9.75 16.7 Q10.55 15.1 11.55 13.65 L11.75 13.3 Q11.9 12.55 12.85 12.55 L13.9 12.2 14.2 12.05 M8.25 1.25 L8.25 1.25 M9.85 7.8 Q9.7 7.85 9.65 7.95 L9.5 8.15 9.9 8.05 Q9.65 8.1 9.55 8.25 L9.45 8.35 9.55 8.55 Q9.6 8.65 9.75 8.6 L9.95 8.3 10.1 8.05 10.1 7.95 Q10.05 7.85 10.0 7.8 L9.85 7.8 M9.4 8.8 L9.5 9.15 Q9.6 9.5 9.95 9.25 12.3 7.9 11.3 5.85 9.6 6.4 9.35 7.75 9.55 7.55 9.9 7.45 11.2 8.05 9.75 8.8 9.55 8.9 9.4 8.8 M9.1 9.7 L8.95 9.6 Q8.4 9.45 8.3 8.85 8.25 8.55 8.4 8.35 8.5 8.7 8.7 9.05 L8.75 9.2 8.8 9.1 8.85 9.3 8.9 9.45 Q8.95 9.6 9.1 9.7 L9.0 9.35 Q8.2 6.5 10.85 5.25 12.65 5.6 12.15 7.55 11.95 8.25 11.55 8.85 10.95 9.75 9.85 10.3 8.95 10.7 8.1 10.8 L8.75 10.5 7.8 10.65 Q8.6 10.35 9.35 10.0 9.25 9.9 9.1 9.7 M8.95 11.35 L9.15 11.35 8.8 11.55 Q8.55 11.95 8.05 12.15 7.55 12.4 7.2 12.3 L6.85 12.25 Q7.2 11.95 7.7 11.7 L8.1 11.5 Q8.55 11.3 9.0 11.25 L8.95 11.35 M7.65 13.55 Q6.9 14.25 6.0 14.7 6.85 13.7 8.0 12.5 8.6 11.8 9.3 11.25 8.8 12.45 7.65 13.55 M10.15 17.6 L10.15 17.5 9.35 18.9 Q9.55 19.2 9.65 19.5 L9.75 19.75 9.9 19.55 Q10.0 19.4 10.15 19.4 10.1 19.1 10.2 18.7 10.25 18.35 10.45 18.1 10.25 17.9 10.15 17.6 M6.6 18.75 L5.8 21.85 5.3 24.15 5.25 24.05 Q5.2 24.55 5.2 25.05 4.8 23.55 5.25 21.85 5.4 21.1 5.7 20.5 5.85 20.0 6.1 19.55 L5.0 21.1 4.05 22.3 Q3.65 22.9 3.45 23.55 3.55 22.75 4.0 21.95 4.35 21.05 5.05 20.25 5.75 19.35 6.6 18.65 L6.7 18.6 6.6 18.75 M4.2 18.0 L4.25 18.1 Q3.95 19.3 3.15 20.25 L2.6 20.9 2.15 21.6 Q1.65 22.35 1.1 23.05 1.5 22.2 2.0 21.35 2.5 20.3 3.2 19.25 L3.75 18.4 Q3.1 19.05 2.25 19.6 L1.15 20.25 0.75 20.65 -0.1 21.4 Q0.1 21.0 0.5 20.6 1.05 19.5 2.25 18.8 3.25 18.2 4.35 17.75 L4.15 17.95 4.2 18.0 M20.25 19.0 Q20.6 19.2 20.85 19.5 21.05 19.75 21.25 19.95 21.05 20.05 20.9 20.05 L21.05 20.2 21.7 21.2 Q20.9 20.85 20.3 19.95 19.9 19.35 20.05 18.85 L20.2 19.05 20.25 19.0 M20.25 22.1 L20.7 23.05 Q20.0 22.8 19.6 21.75 19.45 21.35 19.55 21.0 19.4 20.75 19.7 20.6 20.0 20.9 20.25 21.25 20.4 21.55 20.4 21.8 20.2 21.75 20.05 21.6 L20.25 22.1 M15.15 16.75 L15.05 15.8 Q14.85 16.0 14.7 16.25 14.5 16.6 14.45 16.95 L14.55 16.95 Q14.95 17.25 15.1 17.65 15.2 17.2 15.15 16.75 M13.4 17.75 Q13.75 18.05 13.65 18.65 13.7 19.0 13.65 19.4 L13.7 19.35 13.75 19.35 Q13.95 19.55 14.25 19.6 L14.45 19.65 Q14.7 19.05 14.7 18.35 L14.7 17.6 14.55 17.2 Q13.95 17.05 13.55 17.65 13.5 17.75 13.4 17.75 M15.35 18.9 Q16.05 19.25 15.8 20.15 15.65 20.85 15.1 20.85 15.3 20.3 15.35 19.75 15.4 19.2 15.35 18.9 M18.0 22.2 Q18.0 21.9 18.1 21.65 18.55 22.35 18.95 23.15 19.2 23.7 19.4 24.2 18.95 23.95 18.6 23.5 18.75 23.85 18.7 24.2 18.4 23.9 18.2 23.4 18.1 23.1 18.0 22.8 17.95 22.45 18.0 22.2 M17.65 25.1 Q17.3 24.95 17.25 24.55 17.2 24.3 17.05 24.05 17.05 24.5 17.15 25.0 17.25 25.5 17.2 25.95 16.75 25.4 16.65 24.6 16.6 23.95 17.05 23.6 17.4 23.9 17.55 24.4 17.65 24.75 17.65 25.1" fill="#111111" fill-rule="evenodd" stroke="none"/>
    <path d="M13.0 1.75 L13.15 1.7 Q13.6 1.7 14.0 1.95 14.4 2.15 14.45 2.6 14.0 3.1 13.05 2.75 12.6 2.55 12.55 2.1 L12.65 1.9 12.75 1.85 Q12.85 1.75 13.0 1.75 M14.45 6.7 Q14.4 6.5 14.55 6.4 14.6 6.35 14.7 6.35 L14.8 6.3 Q15.1 6.4 15.3 6.6 15.45 6.8 15.4 7.05 15.1 7.45 14.65 7.05 14.45 6.9 14.45 6.7 M12.4 10.0 Q11.75 10.15 12.3 9.8 12.7 9.85 12.6 9.9 12.9 10.3 12.55 10.1 L12.4 10.0 M17.15 12.05 Q17.35 12.2 17.3 12.5 17.3 12.75 17.0 12.7 16.65 12.6 16.7 12.3 16.8 12.05 17.05 12.05 L17.15 12.05 M11.05 6.25 L11.15 6.25 Q11.3 6.55 11.3 6.85 11.35 7.25 11.05 7.35 10.9 7.2 10.95 7.05 10.95 6.8 10.75 6.7 L10.75 6.5 Q10.7 6.25 10.9 6.2 L11.05 6.25 M10.65 7.5 L10.75 7.6 Q10.75 7.9 10.5 8.1 L10.05 8.1 Q10.0 7.9 10.1 7.7 10.2 7.4 10.5 7.4 L10.65 7.5 M5.5 19.65 Q5.1 19.9 5.0 19.5 5.0 19.35 5.1 19.25 5.25 19.1 5.5 19.1 L5.5 19.05 Q5.95 19.35 5.5 19.65" fill="#fffdff" fill-rule="evenodd" stroke="none"/>
  </g>
  <defs>
    <radialGradient cx="0" cy="0" fx="240.0" fy="0" gradientTransform="matrix(0.0065, -0.0113, 0.0155, 0.009, 13.05, 4.25)" gradientUnits="userSpaceOnUse" id="gradient0" r="819.2" spreadMethod="pad">
      <stop offset="0.0" stop-color="#edd6d6"/>
      <stop offset="1.0" stop-color="#c57676"/>
    </radialGradient>
    <linearGradient gradientTransform="matrix(0.0022, 0.0036, -0.0032, 0.0019, 13.25, 16.4)" gradientUnits="userSpaceOnUse" id="gradient1" spreadMethod="pad" x1="-819.2" x2="819.2">
      <stop offset="0.0" stop-color="#333333"/>
      <stop offset="1.0" stop-color="#a04545"/>
    </linearGradient>
  </defs>
</svg>
