<?xml version="1.0" encoding="UTF-8" standalone="no"?>
<svg xmlns:ffdec="https://www.free-decompiler.com/flash" xmlns:xlink="http://www.w3.org/1999/xlink" ffdec:objectType="shape" height="25.45px" width="47.0px" xmlns="http://www.w3.org/2000/svg">
  <g transform="matrix(1.0, 0.0, 0.0, 1.0, 35.15, 32.55)">
    <path d="M0.65 -32.3 L0.65 -32.25 0.7 -32.2 0.8 -32.2 0.85 -32.25 1.0 -32.25 1.05 -32.3 1.3 -32.25 1.35 -32.25 1.4 -32.2 1.4 -32.15 1.5 -32.05 1.5 -32.0 1.55 -31.95 1.55 -31.9 1.6 -31.9 1.6 -31.85 1.65 -31.8 1.75 -31.65 1.7 -31.6 1.35 -31.95 1.25 -32.0 1.25 -32.1 1.05 -32.1 0.85 -32.05 0.6 -32.05 0.5 -32.15 0.5 -32.3 0.4 -32.35 0.35 -32.4 -0.35 -32.4 -0.4 -32.35 -0.4 -32.25 -0.45 -32.2 -0.45 -31.9 -0.4 -31.85 -0.4 -31.4 -0.45 -31.35 -0.45 -31.3 -0.5 -31.25 -0.55 -31.25 -0.55 -31.2 -0.6 -31.15 -0.6 -31.05 -0.65 -31.0 -0.65 -30.9 -0.6 -30.9 -0.4 -30.7 -0.4 -30.6 -0.45 -30.55 -0.45 -30.5 -0.35 -30.5 Q-0.2 -30.55 -0.05 -30.6 L0.2 -30.6 0.1 -30.5 0.1 -30.45 -0.05 -30.45 -0.05 -30.4 -0.15 -30.3 -0.35 -30.3 -0.35 -30.25 -0.65 -30.3 -0.65 -30.55 -0.6 -30.6 -0.65 -30.6 -0.75 -30.65 -0.85 -30.6 -0.85 -30.55 -0.95 -30.55 -1.0 -30.5 -1.15 -30.5 -1.2 -30.55 -1.3 -30.55 -1.3 -30.7 -1.35 -30.75 -1.35 -30.85 -1.4 -30.9 -1.4 -31.0 -1.5 -31.1 -1.55 -31.1 -1.65 -31.15 -1.7 -31.2 -1.8 -31.2 Q-1.8 -31.15 -1.85 -31.15 L-1.9 -31.1 -2.0 -31.05 -2.05 -31.0 -2.05 -30.9 -2.0 -30.85 -1.9 -30.7 -1.85 -30.65 -1.85 -30.6 -1.8 -30.55 -1.8 -30.4 -1.85 -30.4 -1.85 -30.35 -1.95 -30.35 -1.95 -30.25 -2.05 -30.15 -2.05 -30.05 -2.0 -30.05 -2.05 -30.0 -2.05 -29.95 -2.1 -29.9 -2.15 -29.8 -2.15 -29.75 -2.25 -29.75 -2.2 -29.7 -2.05 -29.6 -2.0 -29.55 -1.95 -29.45 -1.85 -29.3 -1.7 -29.25 -1.5 -29.05 -1.3 -29.0 -1.0 -28.9 -0.8 -28.8 -0.7 -28.7 -0.6 -28.65 -0.5 -28.55 -0.5 -28.35 -0.4 -28.3 -0.35 -28.2 -0.35 -28.0 -0.25 -27.95 -0.25 -27.85 -0.1 -27.7 0.0 -27.75 0.05 -27.75 0.15 -27.65 0.15 -27.55 0.45 -27.4 0.6 -27.45 0.65 -27.5 0.7 -27.6 0.8 -27.65 0.8 -27.7 1.5 -27.75 1.65 -27.7 1.7 -27.6 1.85 -27.45 1.95 -27.25 1.95 -27.1 2.0 -27.0 2.2 -26.8 2.45 -26.7 2.55 -26.65 2.7 -26.6 2.85 -26.45 3.1 -26.4 3.2 -26.3 3.25 -26.2 3.4 -26.15 3.6 -26.15 3.6 -26.2 Q3.6 -26.25 3.6 -26.3 L3.7 -26.5 3.7 -26.65 3.75 -26.75 3.85 -26.8 3.95 -26.9 4.0 -27.0 4.2 -27.05 4.3 -27.05 4.45 -27.0 4.7 -26.75 4.75 -26.75 5.15 -26.7 5.25 -26.65 5.4 -26.5 5.4 -26.3 5.45 -26.2 5.6 -26.1 5.7 -26.05 5.85 -25.95 6.0 -25.8 6.05 -25.7 6.05 -25.35 6.15 -25.15 6.15 -25.1 6.3 -25.0 6.4 -24.95 6.6 -25.0 6.65 -25.1 6.75 -25.15 7.0 -25.15 7.15 -25.1 7.35 -25.0 7.45 -24.9 7.45 -24.55 Q7.5 -24.5 7.55 -24.45 L7.6 -24.35 7.65 -24.3 7.7 -24.2 7.7 -24.1 7.65 -24.05 7.6 -23.95 7.6 -23.9 7.65 -23.95 7.7 -23.9 7.7 -23.7 7.8 -23.6 7.9 -23.6 8.1 -23.7 8.15 -23.7 8.25 -23.75 8.25 -23.8 8.3 -23.85 8.3 -23.9 8.35 -23.95 8.35 -24.05 8.5 -24.2 8.75 -24.2 8.85 -24.1 8.95 -23.95 9.05 -23.85 9.05 -23.7 9.15 -23.6 9.25 -23.6 9.25 -23.55 9.3 -23.5 9.4 -23.5 9.6 -23.7 9.7 -23.75 9.95 -23.75 10.0 -23.7 10.0 -23.65 10.1 -23.55 10.15 -23.45 10.2 -23.4 10.2 -22.9 10.15 -22.85 10.15 -22.7 10.2 -22.7 10.3 -22.6 10.5 -22.6 10.65 -22.65 11.0 -22.65 11.05 -22.6 11.15 -22.55 11.2 -22.5 11.25 -22.5 11.2 -22.45 11.25 -22.4 11.25 -22.35 11.3 -22.3 11.3 -22.25 11.35 -22.2 11.35 -22.0 Q11.4 -22.0 11.45 -21.95 L11.5 -21.95 11.8 -21.65 11.8 -21.6 11.85 -21.55 11.85 -21.1 11.8 -21.05 11.8 -21.0 11.75 -20.95 11.75 -20.85 11.7 -20.8 11.7 -20.65 11.6 -20.55 11.55 -20.55 11.55 -20.6 11.6 -20.65 11.6 -20.9 11.65 -20.95 11.65 -21.05 11.7 -21.1 11.7 -21.35 11.65 -21.4 11.65 -21.45 11.6 -21.5 11.6 -21.6 11.55 -21.65 11.5 -21.65 11.4 -21.7 11.4 -21.75 11.35 -21.8 11.15 -21.85 11.1 -21.9 11.1 -22.0 11.15 -22.05 11.25 -22.1 11.25 -22.2 11.2 -22.25 11.15 -22.25 11.05 -22.35 10.9 -22.4 10.8 -22.5 10.75 -22.5 10.75 -22.45 10.5 -22.45 10.45 -22.4 10.2 -22.45 10.2 -22.4 10.1 -22.3 9.95 -22.3 9.95 -22.05 9.9 -21.95 9.9 -21.75 9.85 -21.75 9.8 -21.7 9.8 -21.6 9.75 -21.6 9.75 -21.75 9.8 -21.8 9.75 -21.85 9.75 -22.05 9.7 -22.1 9.65 -22.1 9.6 -22.15 9.6 -22.45 9.65 -22.45 9.65 -22.5 9.7 -22.5 9.75 -22.55 9.85 -22.5 9.95 -22.5 10.0 -22.6 10.0 -22.75 10.1 -22.85 10.1 -22.95 10.15 -23.0 10.15 -23.3 10.1 -23.35 10.1 -23.4 10.0 -23.45 9.9 -23.45 9.85 -23.5 9.8 -23.5 9.7 -23.45 9.6 -23.35 9.55 -23.35 9.5 -23.3 9.5 -23.25 9.1 -23.25 9.1 -23.35 9.05 -23.4 8.95 -23.45 8.95 -23.7 8.85 -23.75 8.85 -23.8 8.8 -23.85 8.75 -23.85 8.65 -23.9 8.6 -23.95 8.55 -23.9 8.55 -23.8 8.5 -23.75 8.5 -23.7 8.35 -23.55 8.25 -23.5 8.2 -23.45 8.15 -23.45 8.15 -23.4 8.0 -23.4 8.0 -23.35 7.8 -23.35 7.75 -23.4 7.75 -23.05 7.85 -22.85 7.85 -22.8 7.95 -22.6 7.95 -22.5 8.0 -22.45 8.0 -22.15 7.95 -22.1 7.9 -22.0 7.8 -21.9 7.75 -21.8 7.65 -21.75 7.55 -21.55 7.45 -21.45 7.1 -21.45 6.95 -21.5 6.8 -21.6 6.5 -21.65 6.35 -21.75 6.25 -21.85 6.1 -21.9 6.05 -21.95 5.9 -22.0 5.85 -22.1 5.75 -22.15 5.65 -22.25 5.45 -22.35 5.4 -22.4 5.2 -22.45 5.15 -22.55 5.05 -22.65 4.95 -22.7 4.55 -22.8 4.2 -22.85 Q4.2 -22.8 4.15 -22.8 L3.85 -22.7 3.9 -22.65 3.95 -22.55 3.95 -22.1 3.9 -22.05 3.85 -21.95 3.85 -21.85 3.8 -21.75 3.65 -21.6 3.6 -21.6 3.5 -21.55 2.4 -21.55 2.15 -21.6 1.85 -21.6 1.75 -21.55 1.6 -21.5 1.35 -21.45 0.9 -21.45 0.8 -21.65 0.8 -21.7 Q0.75 -21.75 0.65 -21.8 L0.6 -21.9 0.55 -21.95 0.55 -22.0 0.3 -22.05 0.25 -22.15 0.2 -22.2 0.15 -22.3 -0.15 -22.35 -0.2 -22.3 -0.2 -22.2 -0.15 -22.1 -0.15 -21.95 -0.3 -21.65 -0.45 -21.6 -0.75 -21.55 -0.9 -21.4 -0.95 -21.3 -0.95 -21.25 Q-1.25 -21.25 -1.5 -21.25 L-1.6 -21.3 -1.85 -21.4 -1.95 -21.4 -2.1 -21.5 -2.2 -21.6 -2.2 -21.65 -2.25 -21.75 -2.45 -21.85 -2.55 -21.95 -2.6 -21.95 Q-2.7 -21.9 -2.75 -21.85 L-2.85 -21.8 -2.95 -21.7 -3.0 -21.6 -2.95 -21.5 -2.9 -21.45 -3.0 -21.25 -3.05 -21.2 Q-3.1 -21.2 -3.15 -21.15 L-3.15 -21.05 -3.2 -20.95 -3.25 -20.9 -3.3 -20.8 -3.45 -20.7 -3.5 -20.65 -3.7 -20.6 -4.05 -20.4 -4.35 -20.25 -4.6 -20.0 -4.85 -19.8 -5.0 -19.7 -5.15 -19.65 -5.25 -19.55 -5.25 -19.45 -5.3 -19.35 -5.15 -19.2 -4.8 -19.2 -4.6 -19.15 -4.25 -18.95 -3.95 -18.8 -3.75 -18.6 -3.65 -18.55 -3.35 -18.45 -3.25 -18.4 -3.1 -18.35 -1.85 -18.3 -1.7 -18.25 -1.6 -18.2 -1.5 -18.25 -0.95 -18.25 -0.8 -18.2 -0.7 -18.1 -0.6 -18.05 -0.45 -17.85 -0.3 -17.7 -0.25 -17.6 -0.15 -17.7 0.05 -17.7 0.05 -17.8 0.15 -17.9 0.15 -18.1 0.2 -18.15 0.2 -18.25 0.3 -18.25 0.3 -18.3 0.65 -18.3 0.75 -18.25 0.8 -18.2 0.8 -18.05 0.85 -18.05 0.85 -17.95 0.9 -17.9 0.9 -17.75 0.85 -17.7 1.05 -17.5 1.05 -17.45 1.5 -17.45 1.6 -17.5 1.65 -17.5 1.8 -17.65 1.8 -17.7 2.0 -17.7 2.1 -17.65 2.1 -17.6 2.15 -17.55 2.25 -17.5 2.3 -17.45 2.3 -17.4 2.6 -17.1 2.6 -17.0 2.65 -17.0 2.7 -16.95 2.7 -16.65 2.65 -16.65 2.55 -16.75 2.55 -16.85 2.5 -16.9 2.45 -17.0 2.35 -17.05 2.3 -17.1 2.2 -17.15 2.15 -17.2 2.15 -17.25 2.1 -17.25 2.0 -17.35 1.95 -17.35 1.95 -17.45 1.9 -17.45 1.9 -17.4 1.85 -17.4 1.75 -17.3 1.75 -17.25 1.6 -17.2 1.55 -17.2 1.55 -17.05 1.6 -17.0 1.6 -16.95 1.65 -16.9 1.6 -16.85 1.6 -16.75 1.55 -16.65 1.5 -16.65 1.55 -16.55 1.65 -16.45 1.65 -16.4 1.7 -16.35 1.7 -16.0 1.65 -15.95 1.65 -15.9 1.6 -15.9 1.6 -16.0 1.55 -16.0 1.55 -16.15 1.5 -16.3 1.4 -16.4 Q1.35 -16.45 1.3 -16.5 L1.3 -16.65 1.35 -16.7 1.35 -16.75 1.4 -16.8 1.45 -16.8 1.5 -16.85 1.5 -17.0 1.45 -17.05 1.45 -17.2 0.9 -17.2 0.85 -17.25 0.85 -17.35 0.8 -17.4 0.75 -17.5 0.75 -17.55 0.7 -17.6 0.7 -17.85 0.65 -17.9 0.65 -17.95 0.6 -18.0 0.6 -18.05 0.4 -18.05 0.35 -18.0 0.35 -17.8 0.3 -17.75 0.3 -17.65 0.15 -17.5 -0.15 -17.45 -0.25 -17.45 -0.25 -17.4 -0.3 -17.35 -0.45 -17.05 -0.45 -17.0 -0.4 -16.9 -0.4 -16.8 Q-0.4 -16.75 -0.4 -16.7 L-0.45 -16.65 -0.55 -16.45 -0.55 -16.35 -0.6 -16.3 -0.65 -16.2 -0.65 -16.1 -0.7 -16.0 -0.7 -15.95 -0.65 -15.95 -0.55 -15.85 -0.45 -15.8 -0.2 -15.55 -0.05 -15.25 -0.1 -15.15 -0.1 -15.0 -0.05 -14.9 -0.05 -14.8 0.0 -14.75 0.0 -14.3 Q0.0 -14.25 -0.05 -14.2 L-0.1 -14.15 -0.15 -14.05 -0.15 -13.7 -0.2 -13.6 -0.3 -13.5 -0.4 -13.45 -0.5 -13.35 -0.8 -13.3 -0.95 -13.25 -1.2 -13.15 -1.05 -13.0 -0.6 -13.0 -0.45 -12.95 -0.3 -12.85 -0.3 -12.6 Q-0.3 -12.55 -0.3 -12.5 L-0.35 -12.4 -0.3 -12.35 -0.2 -12.15 -0.2 -11.7 -0.15 -11.6 -0.15 -11.55 -0.1 -11.45 -0.1 -11.0 0.1 -11.0 0.25 -11.05 0.4 -11.15 0.85 -11.6 1.0 -11.65 1.1 -11.65 1.15 -11.7 1.35 -11.7 1.8 -11.25 1.8 -11.05 1.85 -11.0 1.95 -10.8 2.1 -10.65 2.1 -10.55 2.2 -10.45 2.35 -10.35 2.4 -10.3 2.55 -10.0 2.55 -9.75 2.4 -9.6 Q1.75 -9.45 0.95 -9.45 L0.95 -9.3 1.0 -9.2 1.15 -9.05 1.2 -8.95 1.2 -8.85 1.25 -8.75 1.25 -8.6 1.2 -8.5 1.2 -8.4 1.1 -8.35 1.0 -8.15 0.9 -8.0 Q0.75 -7.85 0.65 -7.7 L0.35 -7.55 0.3 -7.5 0.15 -7.4 0.0 -7.25 -0.05 -7.15 -0.25 -7.1 -0.4 -7.1 -0.25 -7.25 -0.15 -7.45 -0.15 -7.5 -0.1 -7.6 0.25 -7.95 0.45 -8.05 0.5 -8.15 0.5 -8.2 0.6 -8.3 0.75 -8.4 0.75 -8.6 0.7 -8.65 0.55 -8.7 0.45 -8.8 0.4 -8.9 0.35 -8.95 0.3 -9.05 0.3 -9.3 0.45 -9.6 0.55 -9.65 0.7 -9.75 0.85 -9.8 Q1.5 -9.75 2.0 -9.95 L1.95 -10.0 1.85 -10.05 1.75 -10.15 1.65 -10.2 1.65 -10.3 1.6 -10.4 1.5 -10.5 1.5 -10.65 1.55 -10.75 1.5 -10.85 1.45 -10.9 1.45 -11.0 1.25 -11.2 1.15 -11.25 1.05 -11.15 1.0 -11.05 0.8 -10.9 0.65 -10.75 Q0.55 -10.7 0.45 -10.65 L0.1 -10.5 -0.25 -10.5 -0.35 -10.55 -0.4 -10.5 -0.55 -10.5 -0.6 -10.55 -0.65 -10.65 -0.65 -11.0 -0.6 -11.1 -0.6 -11.2 -0.65 -11.25 -0.65 -11.35 -0.75 -11.45 -0.75 -11.9 -0.9 -12.05 -0.95 -12.15 -0.95 -12.2 -1.15 -12.25 -1.25 -12.3 -1.4 -12.15 -1.5 -12.1 -1.55 -12.05 -1.85 -12.05 -2.1 -12.1 -2.2 -12.2 Q-2.3 -12.3 -2.4 -12.35 -2.6 -12.45 -2.75 -12.65 L-2.85 -12.75 -2.85 -12.8 -2.9 -12.9 -2.95 -12.95 -3.15 -12.95 -3.3 -12.85 -3.4 -12.65 -3.45 -12.6 -3.45 -12.4 -3.5 -12.3 -3.55 -12.25 -3.5 -12.15 -3.35 -11.95 -3.05 -11.7 -2.95 -11.6 -2.95 -11.2 -3.05 -11.0 -3.05 -10.95 -3.5 -10.85 -3.6 -10.8 -3.75 -10.8 -4.2 -10.7 -4.1 -10.65 -3.95 -10.55 -3.85 -10.5 -3.8 -10.4 -3.6 -10.3 -3.25 -10.15 -2.95 -9.95 -2.9 -9.85 -2.85 -9.8 -2.85 -9.5 -2.8 -9.45 -2.8 -9.0 Q-2.8 -8.95 -2.8 -8.9 L-2.85 -8.85 -2.9 -8.75 -2.9 -8.45 -2.95 -8.4 -3.0 -8.3 -3.0 -8.2 -3.05 -8.15 -3.05 -7.95 -3.1 -7.85 -3.2 -7.8 -3.3 -7.7 -3.4 -7.65 -3.45 -7.7 -3.45 -7.85 -3.5 -7.95 -3.5 -8.45 -3.4 -8.65 -3.4 -9.0 -3.35 -9.1 -3.3 -9.15 -3.3 -9.25 -3.35 -9.35 -3.35 -9.6 -3.3 -9.65 -3.3 -9.7 -3.5 -9.75 -3.55 -9.8 -4.0 -9.95 -4.05 -10.0 -4.1 -10.0 -4.55 -10.15 -4.8 -10.2 -4.85 -10.3 -4.85 -10.55 -4.7 -10.85 -4.65 -10.9 -4.6 -11.0 -4.6 -11.1 -4.45 -11.15 -3.8 -11.15 -3.7 -11.2 -3.6 -11.2 -3.35 -11.25 -3.45 -11.45 -3.8 -11.8 -3.95 -11.85 -4.0 -11.95 -4.0 -12.2 -3.9 -12.4 -3.9 -12.55 -3.8 -12.65 -3.8 -12.75 -3.75 -12.8 -3.65 -13.0 -3.5 -13.15 -3.35 -13.25 -3.15 -13.35 -2.85 -13.3 -2.7 -13.2 -2.6 -13.15 -2.45 -12.85 -2.3 -12.8 -2.2 -12.7 -2.15 -12.6 -2.05 -12.5 -1.85 -12.45 -1.8 -12.35 -1.75 -12.3 -1.75 -12.45 -1.65 -12.5 -1.65 -12.6 -1.7 -12.7 -1.8 -12.75 -1.85 -12.85 -1.85 -13.55 -1.8 -13.65 -1.8 -13.7 -1.7 -13.8 -1.65 -13.8 -1.5 -13.85 -1.4 -13.9 -1.3 -14.0 Q-1.25 -14.0 -1.2 -14.05 L-1.05 -14.05 -0.85 -14.0 -0.75 -13.9 Q-0.7 -13.9 -0.65 -13.9 L-0.55 -13.9 -0.55 -14.05 -0.6 -14.15 -0.6 -14.25 -0.55 -14.35 -0.5 -14.4 Q-0.5 -14.45 -0.5 -14.5 L-0.6 -14.7 -0.6 -14.95 -0.75 -15.1 -0.8 -15.2 -0.9 -15.3 -1.05 -15.4 -1.4 -15.55 -1.65 -15.75 -1.7 -15.8 -1.75 -15.9 -1.75 -16.25 -1.65 -16.45 -1.55 -16.5 -1.4 -16.55 -1.2 -16.6 -1.1 -16.8 -1.05 -16.85 -1.0 -16.95 Q-0.95 -17.0 -0.95 -17.05 L-0.95 -17.3 -0.9 -17.4 -0.8 -17.5 -1.15 -17.85 -1.2 -17.75 -1.25 -17.7 Q-1.25 -17.65 -1.3 -17.65 L-1.5 -17.6 -1.65 -17.65 Q-1.8 -17.7 -1.9 -17.75 L-1.9 -17.8 -3.2 -17.85 -3.25 -17.9 -3.55 -18.0 -3.75 -18.05 -3.9 -18.1 -3.95 -18.2 -4.05 -18.3 -4.1 -18.4 -4.5 -18.6 -4.65 -18.65 -4.8 -18.75 -4.85 -18.75 -5.15 -18.8 -5.3 -18.85 -5.5 -18.95 -5.75 -19.2 -5.8 -19.3 -5.8 -19.35 -5.65 -19.65 -5.4 -19.9 -5.25 -20.0 -5.0 -20.15 -4.7 -20.35 -4.6 -20.4 -4.5 -20.5 -4.35 -20.6 -4.15 -20.7 -4.1 -20.7 -4.1 -20.8 -4.05 -20.9 -3.95 -21.0 -3.75 -21.1 -3.6 -21.4 -3.6 -21.8 -3.55 -21.9 Q-3.5 -21.95 -3.4 -22.0 L-3.05 -22.15 -2.95 -22.25 -2.9 -22.35 -2.75 -22.45 -2.5 -22.45 -2.35 -22.35 -2.25 -22.25 -2.1 -22.15 -1.9 -22.0 -1.75 -21.8 -1.35 -21.75 -1.15 -21.75 -1.0 -21.9 -0.8 -22.0 -0.6 -22.0 -0.55 -22.1 -0.6 -22.2 -0.6 -22.35 Q-0.55 -22.45 -0.5 -22.55 L-0.25 -22.7 -0.15 -22.8 0.0 -22.8 0.0 -22.85 0.35 -22.85 0.5 -22.8 0.6 -22.6 0.65 -22.55 0.95 -22.45 1.0 -22.35 1.05 -22.3 1.1 -22.2 1.2 -22.1 1.25 -22.0 1.35 -21.95 1.35 -22.0 2.55 -22.05 2.6 -22.1 2.9 -22.1 3.0 -22.05 3.3 -22.1 3.35 -22.15 3.45 -22.35 3.45 -22.4 3.3 -22.7 Q3.3 -22.75 3.3 -22.8 3.25 -22.8 3.25 -22.85 L3.25 -22.95 3.35 -23.15 3.5 -23.2 3.6 -23.15 4.05 -23.2 4.15 -23.25 4.2 -23.35 4.4 -23.45 4.55 -23.4 4.8 -23.35 5.0 -23.35 5.15 -23.3 5.25 -23.2 5.35 -23.15 5.5 -23.05 5.6 -23.0 5.7 -22.9 5.85 -22.85 6.15 -22.55 6.25 -22.5 6.55 -22.3 6.85 -22.15 7.0 -22.1 7.1 -22.05 7.25 -22.0 7.35 -22.0 7.6 -22.25 7.65 -22.35 7.6 -22.4 7.5 -22.6 7.5 -22.7 7.45 -22.75 7.4 -22.85 7.4 -23.3 7.35 -23.4 7.3 -23.45 7.25 -23.55 7.25 -23.65 7.15 -23.85 7.1 -23.9 7.1 -24.1 7.05 -24.15 7.15 -24.15 7.0 -24.3 7.0 -24.45 6.95 -24.5 Q6.9 -24.55 6.8 -24.55 L6.75 -24.5 Q6.7 -24.5 6.65 -24.45 6.55 -24.45 6.45 -24.4 L6.4 -24.35 6.05 -24.4 5.95 -24.45 5.8 -24.75 5.7 -24.8 5.6 -24.9 5.6 -25.35 5.35 -25.4 5.2 -25.55 5.2 -25.65 4.9 -25.95 4.9 -26.0 4.85 -26.1 4.65 -26.2 4.5 -26.25 4.25 -26.35 4.2 -26.3 4.2 -26.2 4.15 -26.15 4.05 -25.95 4.05 -25.85 4.0 -25.8 3.95 -25.7 3.25 -25.7 3.2 -25.75 2.9 -25.8 2.85 -25.9 2.8 -25.95 2.7 -26.0 2.55 -26.05 2.4 -26.2 2.2 -26.3 2.0 -26.35 1.85 -26.4 1.8 -26.5 Q1.8 -26.55 1.8 -26.6 L1.7 -26.7 1.6 -26.75 1.55 -26.85 1.55 -26.95 1.5 -27.05 1.35 -27.2 1.0 -27.2 0.95 -27.1 0.9 -27.1 0.55 -27.0 0.45 -27.0 0.25 -27.05 0.15 -27.1 0.05 -27.2 0.0 -27.3 -0.05 -27.35 -0.25 -27.25 -0.3 -27.25 -0.3 -27.35 Q-0.3 -27.4 -0.35 -27.45 L-0.4 -27.5 -0.5 -27.7 -0.5 -27.8 -0.55 -27.9 -0.6 -27.95 -0.6 -28.15 -0.65 -28.2 -0.7 -28.3 -0.7 -28.4 -0.8 -28.5 -0.95 -28.55 -1.4 -28.65 -1.45 -28.7 -1.65 -28.8 -1.8 -28.95 -1.95 -28.95 -2.0 -28.9 -2.4 -28.9 -2.45 -28.85 -2.7 -28.8 -2.75 -28.85 -2.9 -28.8 -4.45 -28.65 -4.6 -28.55 -4.8 -28.55 -5.0 -28.45 -5.0 -28.35 -5.1 -28.15 -5.1 -28.1 Q-5.1 -28.05 -5.15 -28.0 L-5.15 -27.9 -5.2 -27.8 -5.35 -27.65 -5.9 -27.5 -5.95 -27.45 -6.05 -27.25 -6.35 -27.1 -6.4 -27.05 -6.4 -27.0 -6.6 -26.9 -7.0 -26.9 -7.25 -27.15 -7.8 -27.1 -7.95 -27.05 -8.15 -27.0 -8.2 -26.95 -8.5 -26.9 -8.5 -26.85 Q-8.6 -26.8 -8.7 -26.75 L-8.75 -26.7 Q-8.85 -26.7 -8.9 -26.65 L-9.05 -26.55 -9.1 -26.5 -9.6 -26.4 -9.7 -26.35 -9.9 -26.35 -10.05 -26.4 -10.15 -26.5 -10.15 -26.8 Q-10.9 -26.95 -11.6 -26.95 L-11.75 -26.9 -11.95 -26.8 -12.2 -26.75 -12.25 -26.65 -12.25 -26.2 -12.3 -26.15 -12.3 -26.05 -12.25 -25.95 -12.25 -25.8 -12.1 -25.5 -12.05 -25.45 -11.9 -25.15 -11.9 -24.55 -11.95 -24.45 -12.0 -24.4 -12.0 -23.95 -12.1 -23.75 -12.1 -23.6 -12.2 -23.5 -12.2 -23.4 -12.25 -23.35 -12.25 -23.25 -12.3 -23.15 -12.3 -23.05 -12.35 -23.0 -12.35 -22.8 -12.4 -22.7 -12.45 -22.65 -12.5 -22.55 -12.5 -22.45 -12.65 -22.3 -12.8 -22.0 -12.85 -21.95 -12.85 -21.85 -12.9 -21.75 -12.9 -21.65 -12.95 -21.6 -12.95 -21.5 -12.9 -21.45 -12.9 -21.3 -12.95 -21.05 -12.95 -20.7 -13.05 -20.5 -13.05 -20.35 -13.15 -20.15 -13.15 -20.05 -13.2 -20.0 Q-13.25 -19.95 -13.3 -19.9 L-13.35 -19.8 -13.4 -19.8 -13.35 -19.7 -13.35 -19.35 -13.4 -19.3 -13.45 -19.2 -13.55 -19.2 Q-13.6 -19.15 -13.65 -19.15 -13.7 -19.1 -13.75 -19.1 L-14.0 -19.15 -14.1 -19.2 -14.25 -19.25 -14.35 -19.45 -14.4 -19.35 -14.4 -19.2 -14.45 -19.0 -14.45 -18.85 -14.5 -18.75 -14.5 -18.65 -14.55 -18.6 -14.55 -18.4 Q-14.55 -18.35 -14.6 -18.35 L-14.6 -17.9 -14.45 -17.6 -14.35 -17.5 -14.2 -17.45 -13.9 -17.4 -13.55 -17.2 -13.5 -17.15 -13.3 -17.35 -12.95 -17.35 -12.9 -17.3 -12.75 -17.25 -12.7 -17.2 -12.6 -17.15 -12.6 -17.1 -12.5 -17.05 -12.3 -17.05 -12.2 -17.0 -12.15 -17.0 -11.95 -17.2 -11.9 -17.2 -11.8 -17.25 -11.75 -17.25 -11.7 -17.35 -11.65 -17.35 -11.65 -17.4 -11.75 -17.5 -11.75 -17.75 -11.7 -17.8 -11.7 -17.9 -11.45 -18.15 -11.45 -18.25 -11.4 -18.3 -11.4 -18.4 -11.3 -18.5 -11.3 -18.6 -11.25 -18.65 -11.25 -18.7 -11.2 -18.75 -11.2 -18.85 -11.15 -18.9 -11.05 -19.1 -11.0 -19.1 -11.0 -19.2 -10.95 -19.3 -10.9 -19.35 -10.9 -19.4 -10.8 -19.5 -10.8 -19.6 -10.75 -19.6 -10.75 -19.75 -10.8 -19.8 -10.85 -19.9 -10.95 -19.9 -11.1 -19.95 -11.1 -20.0 -11.15 -20.0 -11.15 -20.05 -11.1 -20.1 -11.1 -20.2 -11.05 -20.25 -11.05 -20.4 -11.0 -20.45 -10.9 -20.45 -10.85 -20.5 -10.85 -20.55 -10.7 -20.65 -10.6 -20.75 -10.55 -20.75 -10.5 -20.7 -10.5 -20.65 -10.6 -20.6 -10.65 -20.55 -10.65 -20.45 -10.7 -20.4 -10.85 -20.4 -10.85 -20.2 -10.75 -20.15 -10.7 -20.1 -10.7 -20.05 -10.75 -20.05 -10.65 -19.95 -10.65 -19.9 -10.6 -19.9 -10.55 -19.85 -10.55 -19.5 -10.5 -19.45 -10.55 -19.4 -10.7 -19.4 -10.7 -19.45 -10.75 -19.4 -10.75 -19.25 -10.9 -19.1 -10.9 -19.0 -10.95 -18.9 -11.0 -18.85 -11.0 -18.8 -11.05 -18.75 -11.05 -18.65 -11.1 -18.6 -11.1 -18.55 -10.85 -18.5 -10.8 -18.5 -10.7 -18.45 -10.7 -18.35 -10.65 -18.3 -10.65 -18.25 -10.55 -18.2 -10.55 -18.15 -10.4 -18.0 -10.45 -17.95 -10.4 -17.95 -10.3 -18.05 -10.2 -18.1 -10.1 -18.2 -9.9 -18.3 -9.85 -18.3 -9.75 -18.35 -9.7 -18.4 -9.5 -18.45 -9.4 -18.45 -9.4 -18.35 -9.5 -18.3 -9.65 -18.3 -9.9 -18.05 -10.0 -18.0 -10.05 -17.95 -10.15 -17.9 -10.15 -17.85 -10.2 -17.85 -10.2 -17.8 -10.3 -17.75 -10.35 -17.7 -10.55 -17.7 -10.7 -17.85 -10.7 -17.9 -10.65 -17.95 -10.65 -18.0 -10.8 -18.15 -10.8 -18.25 -10.9 -18.35 -11.1 -18.35 -11.15 -18.3 -11.2 -18.3 -11.25 -18.25 -11.25 -18.1 Q-11.3 -18.0 -11.35 -17.95 L-11.35 -17.9 -11.4 -17.85 -11.4 -17.8 -11.5 -17.7 -11.5 -17.6 -11.55 -17.55 -11.5 -17.5 -11.5 -17.45 -11.55 -17.4 -11.55 -17.35 -11.4 -17.2 -11.4 -17.05 -11.5 -16.95 -11.6 -16.95 -11.7 -16.9 -11.7 -16.85 -11.8 -16.8 -11.85 -16.8 -11.9 -16.75 -12.0 -16.7 -12.2 -16.7 -12.3 -16.8 -12.3 -16.85 -12.4 -16.9 -12.5 -16.9 -12.65 -17.05 -12.7 -17.05 -12.8 -17.1 -13.05 -17.1 -13.05 -17.2 -13.2 -17.2 -13.3 -17.15 -13.35 -17.1 -13.35 -16.8 -13.45 -16.6 -13.45 -16.5 -13.4 -16.45 -13.4 -16.25 Q-13.4 -16.2 -13.4 -16.15 L-13.45 -16.1 -13.5 -16.0 -13.5 -15.8 -13.65 -15.65 Q-13.65 -15.45 -13.75 -15.25 -13.9 -15.05 -14.15 -14.85 L-14.25 -14.7 -14.35 -14.7 -14.45 -14.65 -14.7 -14.65 -14.9 -14.75 -15.3 -14.9 -15.4 -14.9 -15.8 -15.0 -16.35 -14.95 -16.5 -14.9 -16.55 -14.85 Q-16.7 -14.8 -16.9 -14.7 -17.15 -14.6 -17.35 -14.55 L-17.55 -14.5 -17.6 -14.5 -17.55 -14.4 -17.5 -14.35 -17.55 -14.25 -17.65 -14.15 -17.85 -14.0 -18.0 -13.9 -18.1 -13.8 -18.2 -13.75 -19.3 -13.75 -19.35 -13.7 -19.7 -13.75 -19.85 -13.9 -19.85 -14.0 -19.8 -14.1 -19.8 -14.2 -20.65 -14.25 -20.7 -14.2 Q-20.7 -14.15 -20.75 -14.1 L-20.85 -14.0 -21.05 -13.95 -21.1 -13.9 -21.55 -13.75 -21.6 -13.7 -21.6 -13.85 -21.65 -13.85 -21.95 -13.9 -22.0 -13.95 -22.3 -13.95 -22.35 -13.85 -22.35 -13.7 Q-22.35 -13.6 -22.4 -13.55 -22.5 -13.4 -22.6 -13.25 L-22.75 -13.05 -22.8 -13.0 -23.0 -12.95 -23.0 -12.9 -23.1 -12.95 -23.1 -12.9 -23.15 -12.8 -23.3 -12.75 -23.95 -12.75 -23.95 -12.7 -23.75 -12.7 -23.65 -12.6 -23.6 -12.6 -23.5 -12.55 -23.45 -12.5 -23.45 -12.2 -23.5 -12.15 -23.45 -12.15 -23.3 -12.1 -23.25 -12.1 -23.15 -12.05 -23.15 -11.95 -23.05 -11.9 -23.0 -11.85 -23.0 -11.5 -22.95 -11.45 -22.95 -11.35 -22.9 -11.3 -22.9 -11.25 -22.8 -11.15 -22.75 -11.15 -22.7 -11.2 -22.6 -11.25 -22.45 -11.4 -22.2 -11.4 -21.9 -11.5 -21.85 -11.55 -21.5 -11.5 -21.45 -11.5 -21.15 -11.45 -21.15 -11.5 -21.1 -11.55 -21.1 -11.65 -21.0 -11.65 -20.9 -11.55 -20.8 -11.5 -20.75 -11.5 -20.7 -11.45 -20.7 -11.15 -20.65 -11.1 -20.65 -11.05 -20.6 -11.0 -20.6 -10.9 -20.55 -10.85 -20.55 -10.7 -20.5 -10.65 -20.5 -10.55 -20.45 -10.55 -20.45 -10.3 -20.5 -10.25 -20.4 -10.2 -20.05 -10.25 -19.9 -10.25 -19.8 -10.3 -19.75 -10.3 -19.65 -10.4 -19.65 -10.45 -19.7 -10.5 -19.7 -10.65 -19.55 -10.8 -19.25 -10.8 -19.2 -10.75 -19.05 -10.7 -19.0 -10.7 -18.8 -10.5 -18.7 -10.45 -18.65 -10.4 -19.0 -10.4 -19.05 -10.45 -19.1 -10.45 -19.35 -10.5 -19.4 -10.55 -19.45 -10.55 -19.5 -10.5 -19.5 -10.35 -19.55 -10.3 -19.55 -10.2 -19.6 -10.15 -19.7 -10.15 -19.7 -10.1 -20.3 -10.05 -20.3 -10.0 -20.25 -9.95 -20.25 -9.9 -20.35 -9.8 -20.35 -9.7 -20.65 -9.7 -20.7 -9.65 -20.7 -9.6 Q-20.75 -9.6 -20.8 -9.6 L-20.8 -9.35 -20.75 -9.35 -20.75 -9.3 -20.65 -9.25 -20.55 -9.15 -20.25 -9.15 -20.2 -9.1 -20.15 -9.1 -20.05 -9.0 -20.05 -8.7 -20.0 -8.65 -20.0 -8.6 -19.9 -8.5 -19.9 -8.25 -19.95 -8.25 -20.0 -8.3 -20.0 -8.35 -20.05 -8.4 -20.05 -8.45 -20.1 -8.5 -20.1 -8.55 -20.15 -8.6 -20.15 -8.65 -20.2 -8.7 -20.2 -8.8 -20.15 -8.85 -20.15 -8.95 -20.25 -9.0 -20.45 -9.0 -20.45 -8.95 -20.6 -9.0 -20.6 -9.05 -20.65 -9.05 -20.75 -9.1 -20.75 -9.15 -20.85 -9.15 -20.85 -9.2 -20.9 -9.25 -20.9 -9.7 -20.85 -9.75 -20.8 -9.75 -20.7 -9.85 -20.55 -9.85 -20.5 -9.8 Q-20.45 -9.8 -20.45 -9.85 L-20.45 -9.9 -20.55 -9.95 -20.55 -10.0 -20.45 -10.0 -20.45 -10.05 -20.5 -10.05 -20.6 -10.1 -20.6 -10.55 -20.65 -10.55 -20.65 -10.65 -20.75 -10.75 -20.75 -10.9 -20.8 -10.95 -20.8 -11.15 -20.95 -11.3 -21.15 -11.3 -21.15 -11.35 -21.2 -11.35 -21.5 -11.4 -21.8 -11.4 -21.85 -11.35 -21.95 -11.35 -22.05 -11.3 -22.1 -11.25 -22.25 -11.2 -22.35 -11.2 -22.35 -11.15 -22.4 -11.1 -22.45 -11.1 -22.55 -11.05 -22.6 -11.05 -22.7 -10.95 -22.95 -10.95 -23.05 -11.05 -23.05 -11.2 -23.1 -11.25 -23.1 -11.35 -23.05 -11.4 -23.1 -11.4 -23.15 -11.45 -23.1 -11.55 -23.1 -11.8 -23.15 -11.8 -23.25 -11.85 -23.25 -11.9 -23.35 -11.95 -23.35 -12.0 -23.45 -12.0 -23.6 -12.05 -23.65 -12.1 -23.55 -12.2 -23.55 -12.25 -23.5 -12.3 -23.5 -12.35 -23.55 -12.35 -23.55 -12.45 -23.6 -12.45 -23.8 -12.55 -23.95 -12.6 -24.0 -12.6 -24.05 -12.65 -24.25 -12.65 Q-24.3 -12.65 -24.3 -12.7 L-24.3 -12.75 -24.25 -12.75 -24.35 -12.8 -24.45 -12.9 -24.75 -12.95 -24.8 -13.05 -24.9 -13.15 -24.9 -13.2 -24.95 -13.3 -24.95 -13.45 -25.15 -13.5 -25.3 -13.55 -26.0 -13.55 -26.15 -13.65 -26.2 -13.75 -26.2 -13.85 -26.25 -13.9 -26.3 -14.0 -26.3 -14.25 Q-26.25 -14.55 -26.25 -14.9 L-26.2 -15.6 -26.15 -16.1 Q-26.15 -16.25 -26.1 -16.35 L-26.2 -16.55 -26.2 -16.7 -26.15 -16.8 -26.15 -17.25 -26.1 -17.35 -26.1 -17.4 -26.05 -17.5 Q-26.05 -17.55 -26.05 -17.6 L-26.05 -17.7 -26.1 -17.75 -26.15 -17.85 -26.25 -17.95 -26.55 -18.1 -26.65 -18.2 -26.65 -18.75 -26.6 -18.8 -26.55 -18.9 -26.35 -19.0 Q-26.25 -19.05 -26.15 -19.05 L-26.05 -19.1 -26.0 -19.15 -25.05 -19.2 -24.95 -19.25 -24.6 -19.3 -24.55 -19.4 Q-24.5 -19.45 -24.5 -19.5 L-24.5 -19.6 -24.55 -19.65 -24.55 -19.75 -24.5 -19.85 -24.5 -19.9 -24.45 -20.0 -24.35 -20.05 Q-24.3 -20.1 -24.2 -20.15 L-24.1 -20.2 -24.1 -20.25 -24.05 -20.35 -23.95 -20.4 -23.9 -20.5 -23.8 -20.55 -23.75 -20.6 -23.6 -20.65 -23.65 -20.75 -23.9 -21.0 -23.9 -21.05 -24.3 -21.1 -24.35 -21.2 -24.35 -21.25 -24.4 -21.25 -24.7 -21.3 Q-24.75 -21.3 -24.75 -21.35 L-25.15 -21.3 -25.2 -21.25 -25.5 -21.1 -25.65 -21.1 -26.2 -21.2 -26.25 -21.25 -26.3 -21.25 -26.55 -21.3 -26.65 -21.4 -26.75 -21.45 -27.05 -21.55 -27.15 -21.65 -27.2 -21.75 -27.25 -21.8 -27.3 -21.9 -27.35 -21.95 -27.35 -22.0 -27.65 -22.05 -27.85 -22.25 -27.95 -22.3 -28.0 -22.4 -28.15 -22.55 -28.3 -22.6 -28.85 -22.55 -28.9 -22.55 -29.1 -22.45 -29.2 -22.35 -29.3 -22.3 -29.35 -22.25 -29.5 -22.2 -29.6 -22.2 -29.7 -22.25 -29.85 -22.25 -30.25 -22.3 -30.35 -22.35 -30.75 -22.35 -30.9 -22.2 -31.2 -22.1 -31.25 -22.05 -31.8 -22.0 Q-31.8 -21.95 -31.85 -21.95 L-31.95 -21.85 -31.95 -21.7 -31.85 -21.6 -31.85 -21.1 -31.9 -20.9 -31.9 -20.8 -32.2 -20.5 -32.3 -20.45 -32.85 -20.4 -32.95 -20.3 -33.35 -20.35 -33.45 -20.4 -33.55 -20.5 -33.6 -20.4 -33.6 -20.3 -33.65 -20.2 -33.75 -20.1 -33.9 -20.0 -33.9 -19.95 -34.1 -19.9 -34.5 -19.5 -34.5 -19.45 -34.85 -19.45 -35.05 -19.5 -35.15 -19.6 -35.15 -19.8 -35.1 -19.85 -35.05 -19.95 -34.85 -19.95 -34.7 -20.0 -34.35 -20.35 -34.2 -20.4 -34.1 -20.5 -34.0 -20.55 -34.0 -20.65 -33.95 -20.75 -33.7 -21.0 -33.55 -21.05 -33.45 -21.05 -33.3 -21.0 -33.1 -20.8 -32.95 -20.8 -32.35 -20.85 -32.3 -20.95 -32.2 -21.05 -32.2 -21.3 -32.35 -21.45 -32.35 -22.05 -32.3 -22.15 -32.0 -22.45 -31.35 -22.5 -31.2 -22.6 -31.0 -22.7 -30.85 -22.8 -30.1 -22.8 -30.0 -22.7 -29.75 -22.75 -29.7 -22.85 -29.6 -22.9 -29.4 -23.1 -29.1 -23.2 -28.9 -23.25 -28.45 -23.25 -28.1 -23.2 -28.0 -23.2 -28.0 -23.25 -27.95 -23.3 -27.95 -23.5 -27.9 -23.55 -27.9 -23.65 -27.8 -23.7 -27.75 -23.75 -27.15 -23.75 -26.6 -23.8 -26.55 -23.75 -26.5 -23.75 -26.2 -23.45 -26.2 -23.4 -26.1 -23.3 -26.1 -23.2 -26.05 -23.15 -26.05 -22.95 -26.0 -22.9 -26.0 -22.85 -25.9 -22.8 -25.85 -22.8 -25.8 -22.75 -25.75 -22.75 -25.7 -22.7 -25.4 -22.7 -25.35 -22.65 -25.25 -22.65 -25.15 -22.55 -25.05 -22.55 -25.0 -22.5 -24.75 -22.45 -24.7 -22.4 -24.0 -22.4 -23.85 -22.25 -23.7 -22.3 -23.65 -22.3 -23.55 -22.35 -23.5 -22.35 -23.45 -22.4 -23.35 -22.35 -23.25 -22.35 -23.2 -22.3 -23.15 -22.2 -22.85 -21.9 -22.85 -21.75 -22.8 -21.7 -22.85 -21.65 -22.8 -21.65 -22.75 -21.6 -22.75 -21.4 Q-22.75 -21.35 -22.8 -21.4 L-22.8 -21.5 -22.85 -21.55 Q-22.9 -21.55 -22.95 -21.6 L-22.95 -21.65 -23.0 -21.7 -23.0 -21.8 -23.1 -21.9 -23.1 -21.95 -23.4 -22.25 -23.45 -22.2 -23.65 -22.15 -23.95 -22.15 -23.95 -22.2 -24.05 -22.3 -25.0 -22.4 -25.1 -22.45 -25.15 -22.5 -25.25 -22.5 -25.3 -22.55 -25.35 -22.55 -25.65 -22.6 -25.8 -22.6 -25.9 -22.7 -26.05 -22.75 -26.1 -22.8 -26.1 -22.85 -26.15 -22.9 -26.15 -23.1 -26.1 -23.15 -26.15 -23.15 -26.15 -23.2 -26.25 -23.25 -26.4 -23.4 -26.45 -23.4 -26.5 -23.45 -26.5 -23.5 -26.65 -23.65 -27.7 -23.55 -27.8 -23.45 -27.8 -23.4 -27.85 -23.35 -27.85 -23.1 -27.9 -23.1 -27.85 -23.05 -27.75 -23.0 -27.65 -22.9 -27.6 -22.8 -27.5 -22.7 -27.4 -22.65 -27.35 -22.55 -27.25 -22.45 -27.1 -22.35 -26.95 -22.2 -26.95 -22.1 -26.9 -22.0 -26.75 -21.85 -26.6 -21.65 -26.5 -21.6 -26.05 -21.6 -25.9 -21.55 -25.6 -21.55 -25.5 -21.65 -25.35 -21.75 -25.3 -21.75 -24.55 -21.7 -24.4 -21.6 -24.15 -21.55 -24.15 -21.45 -24.1 -21.4 -24.1 -21.35 -23.85 -21.3 -23.6 -21.2 -23.5 -21.1 -23.5 -21.05 -23.3 -20.85 -23.3 -20.95 -23.25 -21.0 -23.2 -21.0 -23.1 -21.05 -23.05 -21.05 -22.95 -21.1 -22.95 -21.15 -22.9 -21.2 -22.9 -21.25 -22.8 -21.35 -22.7 -21.35 -22.6 -21.3 -22.55 -21.3 -22.55 -21.25 -22.5 -21.2 -22.5 -21.1 -22.55 -21.05 -22.55 -21.0 -22.6 -20.95 -22.65 -20.95 -22.75 -20.9 -22.75 -20.85 -22.8 -20.8 -22.9 -20.75 -22.95 -20.75 -23.05 -20.8 -23.2 -20.65 -23.2 -20.4 -23.3 -20.35 -23.45 -20.15 -23.6 -20.0 -23.65 -20.0 -23.75 -19.95 -24.0 -19.95 -24.15 -19.8 -24.05 -19.6 -24.05 -19.45 -24.2 -19.15 -24.35 -19.0 -24.45 -18.95 -24.6 -18.95 -24.95 -18.9 Q-25.0 -18.9 -25.05 -18.85 L-25.95 -18.8 -26.0 -18.75 Q-26.1 -18.7 -26.15 -18.65 L-26.15 -18.3 -26.0 -18.25 -25.9 -18.15 -25.75 -18.05 -25.7 -17.95 -25.7 -17.25 -25.75 -17.2 -26.0 -17.2 -26.05 -17.1 -26.05 -16.75 -26.0 -16.65 -26.0 -16.6 -25.9 -16.5 -25.85 -16.2 -25.8 -15.7 -25.75 -15.1 -25.7 -14.55 -25.7 -14.4 -25.65 -14.35 -25.5 -14.3 -25.4 -14.25 -25.25 -14.2 -25.15 -14.15 -25.0 -14.05 -24.55 -13.9 -24.5 -13.85 -24.5 -13.75 -24.45 -13.65 -24.45 -13.5 -24.4 -13.45 -24.1 -13.35 -24.0 -13.25 -23.9 -13.2 -23.75 -13.15 -23.4 -13.15 -23.25 -13.1 -23.25 -13.2 -23.2 -13.3 -23.2 -13.35 -23.1 -13.45 -23.0 -13.65 -22.95 -13.7 -22.95 -13.8 -22.85 -13.9 -22.85 -14.25 -22.9 -14.35 -22.95 -14.4 -23.0 -14.5 -23.0 -14.7 -22.95 -14.75 -22.95 -14.85 -22.85 -14.9 -22.7 -14.95 -22.6 -14.95 -22.45 -14.9 -22.35 -14.8 -22.25 -14.6 -22.25 -14.55 -22.15 -14.5 -21.9 -14.45 -21.8 -14.4 -21.65 -14.4 -21.65 -14.35 -21.35 -14.4 -21.2 -14.5 -21.1 -14.55 -21.1 -14.65 -21.05 -14.75 -20.85 -14.8 -19.7 -14.8 -19.55 -14.75 -19.45 -14.65 -19.35 -14.45 -19.35 -14.4 -18.75 -14.35 -18.6 -14.3 -18.35 -14.3 -18.2 -14.4 -17.9 -14.5 -17.95 -14.5 -18.05 -14.7 Q-18.0 -14.9 -17.75 -14.95 -17.55 -15.0 -17.35 -15.1 -17.05 -15.2 -16.7 -15.35 -16.55 -15.4 -16.45 -15.45 L-16.3 -15.5 -15.5 -15.5 -15.4 -15.55 -15.25 -15.55 -14.9 -15.4 -14.7 -15.3 -14.55 -15.25 -14.4 -15.4 -14.3 -15.55 -14.15 -15.75 -14.1 -15.8 -14.0 -16.0 -14.0 -16.15 -13.9 -16.25 Q-13.9 -16.3 -13.85 -16.35 L-13.85 -16.6 -13.8 -16.8 -13.85 -16.85 -13.95 -16.9 -14.1 -17.0 -14.55 -17.0 -14.65 -17.05 -14.75 -17.15 -14.75 -17.35 -14.9 -17.5 -14.95 -17.6 Q-15.0 -17.75 -15.0 -17.95 L-15.0 -18.4 -14.95 -18.75 -14.95 -18.8 -14.9 -18.9 -14.95 -19.0 Q-14.95 -19.1 -14.95 -19.25 L-14.95 -19.85 -14.85 -20.05 -14.8 -20.1 -14.75 -20.2 -14.7 -20.25 -14.55 -20.3 -14.4 -20.25 -14.2 -20.2 -14.05 -20.1 -14.0 -20.05 -13.9 -19.85 -13.85 -19.8 -13.85 -19.9 -13.8 -20.0 -13.8 -20.05 -13.75 -20.15 Q-13.7 -20.2 -13.7 -20.25 L-13.65 -20.35 -13.6 -20.4 -13.45 -20.7 -13.2 -20.95 -13.15 -20.95 -13.2 -21.1 -13.25 -21.3 -13.2 -21.4 -13.2 -21.45 -13.15 -21.5 -13.2 -21.6 -13.2 -21.75 -13.25 -22.0 -13.25 -22.1 -13.15 -22.2 -13.15 -22.3 -13.1 -22.35 -12.95 -22.65 -12.95 -22.8 -12.85 -22.9 -12.8 -23.0 -12.8 -23.15 -12.75 -23.25 -12.75 -23.35 -12.7 -23.4 -12.7 -23.5 -12.6 -23.7 -12.6 -23.85 -12.5 -24.05 -12.45 -24.1 -12.45 -24.65 -12.4 -24.75 -12.35 -24.8 -12.35 -24.9 -12.45 -25.1 -12.5 -25.15 -12.6 -25.35 -12.6 -25.45 -12.7 -25.5 -12.7 -25.7 -12.75 -25.75 -12.8 -25.85 -12.8 -26.3 -12.7 -26.5 -12.7 -27.0 -12.6 -27.2 -12.5 -27.25 -12.45 -27.25 -12.35 -27.3 -12.15 -27.35 -12.15 -27.45 -12.1 -27.5 -12.05 -27.5 -12.05 -27.6 -12.0 -27.65 -12.0 -27.9 -12.15 -28.05 -12.25 -28.1 -12.3 -28.1 -12.35 -28.05 -12.5 -28.1 -12.55 -28.1 -12.55 -28.15 -12.65 -28.25 -12.65 -28.6 Q-12.6 -28.7 -12.55 -28.75 L-12.35 -28.95 -12.15 -28.95 -12.05 -29.0 -11.95 -29.1 -11.95 -29.35 -11.9 -29.35 -11.9 -29.7 -11.95 -29.75 -11.95 -30.0 -12.0 -30.05 -12.05 -30.15 -12.1 -30.2 -12.1 -30.45 -11.9 -30.65 -11.8 -30.7 -11.7 -30.85 -11.65 -30.9 -11.65 -30.95 -11.6 -31.0 -11.6 -31.05 -11.55 -31.1 -11.35 -31.2 -11.25 -31.15 -11.25 -31.1 -11.2 -31.05 -11.2 -30.85 -11.15 -30.85 -11.15 -30.65 -11.1 -30.6 -11.0 -30.55 -10.9 -30.55 Q-10.75 -30.65 -10.65 -30.75 L-10.45 -30.95 -10.4 -30.95 -10.35 -31.0 -10.3 -31.0 -10.05 -30.9 -9.8 -30.85 -9.75 -30.8 -9.65 -30.75 -9.65 -30.65 -9.6 -30.65 -9.6 -30.55 -9.65 -30.55 -9.75 -30.6 -10.2 -30.65 -10.25 -30.7 -10.4 -30.75 -10.4 -30.7 -10.5 -30.7 -10.55 -30.65 -10.55 -30.6 -10.65 -30.55 -10.65 -30.5 -10.7 -30.45 -10.8 -30.4 -11.1 -30.4 -11.15 -30.45 -11.25 -30.45 -11.3 -30.5 -11.3 -30.7 -11.35 -30.75 -11.35 -30.8 -11.4 -30.85 -11.45 -30.85 -11.45 -30.8 -11.5 -30.75 -11.5 -30.7 -11.6 -30.7 -11.6 -30.6 -11.7 -30.5 -11.85 -30.4 -11.9 -30.35 -11.85 -30.3 -11.85 -30.2 -11.8 -30.15 -11.8 -29.9 -11.75 -29.85 Q-11.75 -29.8 -11.75 -29.75 L-11.75 -29.25 -11.8 -29.2 -11.8 -29.0 -11.85 -28.95 -11.85 -28.85 -11.9 -28.8 -12.3 -28.8 -12.35 -28.7 Q-12.45 -28.65 -12.45 -28.6 L-12.5 -28.5 -12.5 -28.4 -12.45 -28.35 -12.45 -28.3 -12.15 -28.3 -12.1 -28.25 -12.1 -28.2 -12.0 -28.2 -11.9 -28.1 -11.9 -28.05 -11.85 -27.95 -11.85 -27.6 -11.9 -27.55 -11.9 -27.5 -11.95 -27.45 -11.85 -27.45 -11.65 -27.5 -11.05 -27.5 -10.9 -27.45 -10.0 -27.4 -9.85 -27.35 -9.8 -27.25 -9.75 -27.2 -9.65 -27.0 -9.65 -26.95 Q-9.6 -26.95 -9.55 -26.9 L-9.35 -26.95 -9.2 -27.05 Q-9.1 -27.05 -9.05 -27.1 L-9.0 -27.2 -8.95 -27.2 Q-8.7 -27.25 -8.45 -27.4 L-8.35 -27.45 -8.25 -27.45 -7.95 -27.6 -7.45 -27.6 -7.45 -27.7 -7.35 -27.8 -7.25 -27.85 -7.1 -27.8 -7.0 -27.7 Q-6.6 -27.8 -6.3 -28.0 L-6.25 -28.0 -6.2 -28.1 -6.15 -28.1 Q-6.0 -28.2 -5.9 -28.3 L-5.5 -28.7 Q-5.5 -28.75 -5.5 -28.8 L-5.4 -28.85 -5.3 -28.95 -5.15 -29.0 -4.55 -29.05 -4.45 -29.1 -4.0 -29.15 -3.85 -29.2 -3.8 -29.2 -3.75 -29.25 -3.6 -29.25 -3.5 -29.2 -2.95 -29.2 -2.95 -29.4 -2.9 -29.5 -2.85 -29.55 -2.75 -29.7 -2.7 -29.75 -2.5 -29.75 -2.5 -29.85 -2.35 -29.85 -2.25 -29.9 -2.2 -29.95 -2.2 -30.05 -2.15 -30.1 -2.15 -30.25 -2.0 -30.4 -2.0 -30.45 -1.95 -30.45 -1.95 -30.5 -2.05 -30.6 -2.05 -30.7 -2.1 -30.75 -2.15 -30.75 -2.2 -30.8 -2.3 -30.95 -2.3 -31.05 -2.15 -31.2 -2.05 -31.25 -2.0 -31.3 -1.9 -31.35 -1.9 -31.4 -1.65 -31.4 -1.55 -31.35 -1.5 -31.35 -1.35 -31.3 -1.3 -31.25 -1.3 -31.2 -1.25 -31.15 -1.25 -31.1 -1.2 -31.05 -1.2 -30.9 -1.15 -30.85 -1.15 -30.75 -1.1 -30.7 -1.05 -30.7 -1.0 -30.75 -0.9 -30.75 -0.9 -30.8 -0.8 -30.9 -0.75 -30.9 -0.75 -31.15 -0.7 -31.2 -0.7 -31.25 -0.65 -31.3 -0.65 -31.4 -0.6 -31.5 -0.55 -31.55 -0.55 -31.6 -0.5 -31.65 -0.55 -31.7 -0.55 -31.75 -0.6 -31.8 -0.6 -32.2 -0.55 -32.2 -0.55 -32.3 -0.5 -32.35 -0.5 -32.55 0.4 -32.55 0.45 -32.5 0.55 -32.5 Q0.6 -32.45 0.65 -32.45 L0.65 -32.3 M4.3 -25.65 L4.3 -25.65 M-18.6 -10.55 L-18.25 -10.55 -18.25 -10.45 Q-18.4 -10.4 -18.55 -10.35 L-18.6 -10.4 -18.6 -10.55" fill="#ffffff" fill-rule="evenodd" stroke="none"/>
  </g>
</svg>
