<?xml version="1.0" encoding="UTF-8" standalone="no"?>
<svg xmlns:ffdec="https://www.free-decompiler.com/flash" xmlns:xlink="http://www.w3.org/1999/xlink" ffdec:objectType="shape" height="1.1px" width="0.0px" xmlns="http://www.w3.org/2000/svg">
  <g transform="matrix(1.0, 0.0, 0.0, 1.0, 0.0, 0.7)">
    <path d="M0.0 -0.55 Q0.0 -0.5 0.0 -0.45 L0.0 -0.55 Q0.0 -0.6 0.0 -0.65 L0.0 -0.25 Q0.0 -0.2 0.0 -0.1 0.0 -0.05 0.0 0.0 L0.0 0.35 Q0.0 0.25 0.0 0.15 0.0 0.2 0.0 0.25 0.0 0.3 0.0 0.35 0.0 0.4 0.0 0.35 L0.0 0.3 Q0.0 0.25 0.0 0.2 L0.0 -0.05 Q0.0 -0.1 0.0 -0.2 L0.0 -0.35 Q0.0 -0.45 0.0 -0.5 L0.0 -0.55 M0.0 -0.1 Q0.0 -0.05 0.0 0.0 L0.0 0.1 Q0.0 0.0 0.0 -0.05 L0.0 -0.25 Q0.0 -0.2 0.0 -0.15 L0.0 -0.1 M0.0 -0.35 L0.0 -0.4 Q0.0 -0.35 0.0 -0.25 0.0 -0.1 0.0 0.0 L0.0 0.0 Q0.0 -0.1 0.0 -0.15 L0.0 -0.25 Q0.0 -0.3 0.0 -0.35 0.0 -0.3 0.0 -0.35" fill="#ffffff" fill-rule="evenodd" stroke="none"/>
    <path d="M0.0 -0.55 Q0.0 -0.5 0.0 -0.45 L0.0 -0.55 0.0 -0.5 Q0.0 -0.45 0.0 -0.35 L0.0 -0.2 Q0.0 -0.1 0.0 -0.05 L0.0 0.2 Q0.0 0.25 0.0 0.3 L0.0 0.35 Q0.0 0.4 0.0 0.35 0.0 0.3 0.0 0.25 0.0 0.2 0.0 0.15 0.0 0.25 0.0 0.35 L0.0 0.0 Q0.0 -0.05 0.0 -0.1 0.0 -0.2 0.0 -0.25 L0.0 -0.65 Q0.0 -0.6 0.0 -0.55 M0.0 -0.1 L0.0 -0.15 Q0.0 -0.2 0.0 -0.25 L0.0 -0.05 Q0.0 0.0 0.0 0.1 L0.0 0.0 Q0.0 -0.05 0.0 -0.1 M0.0 -0.35 L0.0 -0.4 Q0.0 -0.35 0.0 -0.25 0.0 -0.1 0.0 0.0 L0.0 0.0 Q0.0 -0.1 0.0 -0.15 L0.0 -0.25 Q0.0 -0.3 0.0 -0.35 0.0 -0.3 0.0 -0.35 Z" fill="none" stroke="#ccffff" stroke-linecap="round" stroke-linejoin="round" stroke-opacity="0.3019608" stroke-width="0.0"/>
  </g>
</svg>
