<?xml version="1.0" encoding="UTF-8" standalone="no"?>
<svg xmlns:ffdec="https://www.free-decompiler.com/flash" xmlns:xlink="http://www.w3.org/1999/xlink" ffdec:objectType="shape" height="1.6px" width="0.0px" xmlns="http://www.w3.org/2000/svg">
  <g transform="matrix(1.0, 0.0, 0.0, 1.0, 0.0, 0.95)">
    <path d="M0.0 -0.6 Q0.0 -0.4 0.0 -0.15 0.0 0.05 0.0 0.25 L0.0 0.25 Q0.0 0.05 0.0 -0.15 0.0 -0.4 0.0 -0.6 L0.0 -0.6 Z" fill="none" stroke="#ffffff" stroke-linecap="round" stroke-linejoin="round" stroke-opacity="0.2" stroke-width="0.0"/>
    <path d="M0.0 -0.95 Q0.0 -0.7 0.0 -0.35 0.0 -0.05 0.0 0.25 0.0 0.35 0.0 0.45 L0.0 0.5 Q0.0 0.2 0.0 -0.1 0.0 -0.6 0.0 -0.95 0.0 -0.85 0.0 -0.65 0.0 -0.4 0.0 -0.05 0.0 0.1 0.0 0.2 0.0 -0.05 0.0 -0.35 0.0 -0.7 0.0 -0.95 0.0 -0.65 0.0 -0.3 0.0 0.15 0.0 0.55 L0.0 0.6 Q0.0 0.25 0.0 -0.1 0.0 -0.55 0.0 -0.95 0.0 -0.35 0.0 0.25 0.0 0.45 0.0 0.6 0.0 0.65 0.0 0.6 0.0 0.4 0.0 0.2 0.0 -0.3 0.0 -0.8 0.0 -0.75 0.0 -0.7 0.0 -0.2 0.0 0.25 0.0 0.45 0.0 0.6 L0.0 0.55 Q0.0 0.3 0.0 0.05 0.0 -0.35 0.0 -0.7 0.0 -0.75 0.0 -0.8 L0.0 -0.9 Q0.0 -0.8 0.0 -0.7 0.0 -0.35 0.0 -0.05 0.0 -0.25 0.0 -0.5 0.0 -0.7 0.0 -0.95 M0.0 -0.6 Q0.0 -0.4 0.0 -0.15 0.0 0.25 0.0 0.55 0.0 0.35 0.0 0.1 0.0 -0.25 0.0 -0.6 0.0 -0.55 0.0 -0.45 0.0 0.1 0.0 0.55 0.0 0.45 0.0 0.35 0.0 0.05 0.0 -0.25 0.0 -0.45 0.0 -0.6" fill="#ffffff" fill-opacity="0.101960786" fill-rule="evenodd" stroke="none"/>
    <path d="M0.0 -0.15 Q0.0 0.0 0.0 0.15 L0.0 0.15 Q0.0 0.0 0.0 -0.15 0.0 -0.3 0.0 -0.4 L0.0 -0.4 Q0.0 -0.3 0.0 -0.15" fill="#ffffff" fill-opacity="0.2" fill-rule="evenodd" stroke="none"/>
  </g>
</svg>
