<?xml version="1.0" encoding="UTF-8" standalone="no"?>
<svg xmlns:ffdec="https://www.free-decompiler.com/flash" xmlns:xlink="http://www.w3.org/1999/xlink" ffdec:objectType="shape" height="2.0px" width="0.0px" xmlns="http://www.w3.org/2000/svg">
  <g transform="matrix(1.0, 0.0, 0.0, 1.0, 0.0, 1.15)">
    <path d="M0.0 -0.8 L0.0 -0.75 Q0.0 -0.7 0.0 -0.6 0.0 -0.55 0.0 -0.5 L0.0 -0.55 M0.0 -0.45 Q0.0 -0.35 0.0 -0.2 M0.0 -0.75 L0.0 -0.8 M0.0 0.35 Q0.0 0.3 0.0 0.25 0.0 0.1 0.0 -0.15 0.0 -0.2 0.0 -0.25 M0.0 -0.65 Q0.0 -0.7 0.0 -0.75 M0.0 -0.3 Q0.0 -0.4 0.0 -0.45 M0.0 0.4 L0.0 0.35 Q0.0 0.3 0.0 0.25 0.0 0.1 0.0 -0.15" fill="none" stroke="#ffffff" stroke-linecap="round" stroke-linejoin="round" stroke-opacity="0.15294118" stroke-width="0.0"/>
    <path d="M0.0 -1.15 Q0.0 -0.85 0.0 -0.4 0.0 0.0 0.0 0.35 0.0 0.5 0.0 0.6 0.0 0.65 0.0 0.7 0.0 0.3 0.0 -0.05 0.0 -0.7 0.0 -1.15 0.0 -0.75 0.0 -0.3 0.0 0.2 0.0 0.7 L0.0 0.8 Q0.0 0.4 0.0 -0.05 0.0 -0.65 0.0 -1.15 0.0 -0.45 0.0 0.35 0.0 0.6 0.0 0.85 L0.0 0.8 Q0.0 0.55 0.0 0.25 0.0 -0.35 0.0 -1.0 0.0 -0.9 0.0 -0.85 0.0 -0.25 0.0 0.35 0.0 0.6 0.0 0.8 0.0 0.75 0.0 0.7 0.0 0.45 0.0 0.1 0.0 -0.4 0.0 -0.8 0.0 -0.9 0.0 -0.95 0.0 -1.05 0.0 -1.1 0.0 -1.0 0.0 -0.85 0.0 -0.4 0.0 0.0 0.0 -0.3 0.0 -0.55 0.0 -0.85 0.0 -1.15 M0.0 -1.1 Q0.0 -1.05 0.0 -0.8 0.0 -0.45 0.0 -0.05 0.0 0.15 0.0 0.3 0.0 -0.05 0.0 -0.4 0.0 -0.8 0.0 -1.1 M0.0 -0.7 Q0.0 -0.45 0.0 -0.15 0.0 0.35 0.0 0.75 0.0 0.5 0.0 0.2 0.0 -0.25 0.0 -0.7 M0.0 -0.3 Q0.0 -0.55 0.0 -0.75 0.0 -0.6 0.0 -0.5 0.0 0.15 0.0 0.7 0.0 0.6 0.0 0.45 0.0 0.15 0.0 -0.3" fill="#ffffff" fill-opacity="0.023529412" fill-rule="evenodd" stroke="none"/>
    <path d="M0.0 -0.45 Q0.0 -0.35 0.0 -0.15 0.0 0.05 0.0 0.2 L0.0 0.2 Q0.0 0.05 0.0 -0.15 0.0 -0.35 0.0 -0.45 L0.0 -0.45" fill="#ffffff" fill-opacity="0.7529412" fill-rule="evenodd" stroke="none"/>
  </g>
</svg>
