<?xml version="1.0" encoding="UTF-8" standalone="no"?>
<svg xmlns:ffdec="https://www.free-decompiler.com/flash" xmlns:xlink="http://www.w3.org/1999/xlink" ffdec:objectType="shape" height="29.25px" width="1.6px" xmlns="http://www.w3.org/2000/svg">
  <g transform="matrix(1.0, 0.0, 0.0, 1.0, 0.0, 9.85)">
    <path d="M0.1 -3.75 L0.15 -3.7 Q0.15 -3.2 0.15 -3.7 L0.15 -3.85 0.2 -3.95 0.2 -3.85 0.25 -3.85 0.25 -4.05 0.3 -4.05 0.3 -4.7 0.35 -4.7 0.35 -5.75 0.4 -5.75 0.4 -5.05 0.45 -5.45 0.45 -6.65 0.5 -6.6 0.5 -6.4 0.55 -6.35 0.55 -5.85 0.6 -6.2 0.6 -6.4 0.65 -6.15 0.65 -5.9 Q0.6 -6.45 0.55 -4.95 L0.55 -4.7 0.5 -4.7 0.5 -5.35 0.45 -5.4 0.45 -4.8 0.4 -4.45 0.4 -4.65 0.35 -4.85 0.35 -4.0 0.3 -4.0 0.3 -3.25 0.25 -3.2 0.25 -2.0 Q0.3 -1.15 0.3 -1.1 L0.3 -1.05 Q0.3 -0.95 0.3 -0.85 L0.3 -0.75 0.35 -0.6 0.35 0.15 Q0.35 0.1 0.35 0.25 L0.35 0.1 Q0.35 0.0 0.4 0.05 0.4 0.2 0.4 -0.45 0.4 -0.65 0.4 -0.7 L0.4 -0.75 0.45 -0.75 0.45 -1.1 0.5 -1.15 0.5 -1.3 0.55 -1.35 0.55 -1.7 0.6 -1.8 0.6 -2.35 0.65 -2.35 0.65 -0.35 0.7 -0.4 0.7 -0.35 0.75 -0.3 0.75 -0.15 Q0.75 -0.1 0.75 -0.05 L0.75 0.85 0.8 -1.1 Q0.8 -1.3 0.8 -1.45 L0.8 -2.05 Q0.8 -2.1 0.8 -2.15 L0.8 -4.4 0.85 -4.5 0.85 -9.05 0.9 -9.4 0.9 -8.5 0.85 -8.3 0.85 -6.8 0.9 -5.95 0.9 -4.45 0.85 -3.75 0.85 -1.4 Q0.85 -1.3 0.85 -1.15 L0.85 -0.25 0.9 1.75 0.9 2.1 0.95 2.65 Q0.95 2.7 0.95 2.8 L0.95 3.75 Q0.95 3.85 0.95 3.95 0.95 4.05 0.95 4.15 0.95 4.55 1.0 4.15 L1.0 2.5 Q1.0 2.4 1.0 2.35 L1.05 2.3 1.05 1.9 1.1 0.25 1.1 -0.05 1.15 0.0 1.15 -0.2 Q1.15 -0.35 1.15 -0.45 L1.15 -0.95 1.2 -0.95 1.2 -0.8 Q1.2 -0.7 1.2 -0.55 1.2 -0.35 1.2 -0.2 1.2 -0.4 1.2 -0.7 1.2 -0.85 1.2 -0.9 L1.25 -0.9 1.25 -0.75 Q1.25 -0.85 1.25 -0.95 L1.25 -1.05 1.3 -1.05 1.3 -0.95 Q1.3 -0.85 1.3 -0.8 L1.3 -0.85 Q1.3 -0.95 1.3 -1.05 1.3 -1.2 1.3 -1.25 L1.35 -1.5 1.35 -5.95 Q1.35 -6.15 1.35 -6.7 L1.35 -6.8 1.4 -6.95 1.4 -7.9 1.45 -7.9 1.45 -9.6 1.5 -9.7 1.5 -9.85 1.55 -9.2 1.55 -8.95 1.5 -8.75 1.5 -7.65 1.45 -7.55 1.45 -7.35 Q1.45 -7.4 1.4 -7.15 L1.4 -5.55 1.35 -4.5 1.35 -2.4 Q1.35 -2.35 1.35 -2.2 L1.35 -2.55 Q1.35 -2.7 1.4 -2.7 1.4 -2.55 1.45 -3.7 1.45 -3.85 1.45 -3.9 L1.45 -3.9 1.5 -3.9 1.5 -5.1 1.55 -5.1 1.55 -4.4 1.5 -4.4 1.5 -3.45 Q1.5 -3.35 1.5 -3.2 1.5 -3.0 1.5 -2.8 1.5 -2.65 1.5 -2.5 L1.5 -2.4 Q1.5 -2.3 1.5 -2.2 L1.5 -1.5 1.55 -1.1 1.55 -0.85 Q1.55 -0.75 1.55 -0.6 L1.55 0.6 Q1.55 0.75 1.55 0.85 1.55 1.0 1.55 1.1 L1.55 1.3 Q1.55 1.45 1.55 1.5 L1.55 3.0 1.5 2.9 1.5 1.05 Q1.5 0.95 1.5 0.8 1.5 0.65 1.5 0.5 L1.5 -0.15 Q1.5 -0.25 1.5 -0.35 1.5 -0.9 1.45 -0.85 1.45 -0.8 1.45 -0.85 1.45 -0.95 1.45 -1.05 L1.45 -0.9 1.4 -0.9 1.4 -0.7 Q1.4 -0.75 1.35 -0.2 L1.4 -0.2 1.35 -0.15 1.35 -0.2 Q1.35 0.15 1.35 0.65 1.35 0.8 1.35 0.9 L1.35 2.85 1.4 2.9 1.4 3.65 1.35 3.65 1.35 1.15 1.3 1.4 1.3 1.3 Q1.3 0.9 1.25 1.35 1.25 1.45 1.25 1.5 L1.25 2.2 Q1.25 2.25 1.25 2.1 1.2 1.4 1.2 2.25 L1.2 2.4 1.15 2.35 Q1.15 2.5 1.15 2.6 L1.15 2.75 Q1.15 2.7 1.15 2.65 L1.15 2.6 1.1 2.75 Q1.1 3.4 1.1 4.2 1.1 4.4 1.1 4.5 L1.1 4.75 1.05 4.7 1.05 4.9 Q1.05 5.1 1.05 5.3 1.05 5.5 1.05 5.65 L1.05 5.9 Q1.05 5.95 1.05 6.0 L1.05 6.05 Q1.05 6.25 1.05 6.4 L1.05 8.95 1.1 8.95 1.1 10.15 1.15 10.05 1.15 9.4 1.2 9.35 1.2 9.8 1.25 10.45 1.25 10.25 1.3 10.2 1.3 9.8 1.35 9.3 1.35 8.8 1.4 8.8 1.4 8.6 1.45 8.55 1.5 9.05 1.5 9.35 1.45 9.4 1.45 9.45 1.4 9.55 1.4 9.5 1.35 9.5 1.35 10.35 1.3 10.4 1.3 10.85 Q1.3 10.6 1.25 11.4 L1.25 11.6 1.2 11.5 1.2 10.6 Q1.2 9.55 1.2 10.1 L1.15 10.1 1.15 13.3 Q1.1 13.55 1.15 14.15 1.15 14.4 1.15 14.5 L1.15 15.2 1.2 15.2 1.2 17.85 1.25 18.75 1.25 19.4 1.2 18.4 1.2 16.05 1.15 15.95 1.15 15.0 1.1 14.8 1.1 13.35 Q1.1 12.65 1.1 11.5 L1.1 10.25 Q1.05 9.05 1.05 9.3 L1.05 8.2 1.0 7.15 1.0 6.85 0.95 6.6 0.95 6.15 0.9 6.05 0.9 4.55 0.85 2.0 0.85 2.15 Q0.85 2.3 0.8 2.45 L0.8 2.5 Q0.8 2.6 0.8 2.7 L0.8 2.75 0.75 3.35 0.75 2.9 0.7 2.85 Q0.7 2.8 0.7 2.75 L0.7 2.15 Q0.65 1.9 0.65 2.45 L0.65 2.5 Q0.65 2.4 0.65 2.25 L0.6 0.75 0.6 0.45 Q0.6 0.35 0.6 0.25 L0.6 0.0 Q0.55 0.15 0.55 0.85 L0.55 0.95 0.45 1.05 0.45 1.3 Q0.45 1.45 0.45 1.55 L0.45 1.9 0.4 1.9 Q0.4 2.0 0.4 2.15 0.4 2.25 0.4 2.35 L0.4 3.05 Q0.4 3.15 0.4 3.2 L0.35 3.25 0.35 3.3 0.4 4.2 0.4 11.8 0.45 12.1 0.45 14.65 0.5 14.7 0.5 15.65 0.45 14.75 0.45 13.05 0.4 12.75 0.4 11.7 0.35 11.5 0.35 10.8 0.4 10.7 0.4 10.55 0.35 10.0 0.35 7.85 0.4 7.7 0.4 6.3 0.35 6.25 0.35 3.55 Q0.35 3.6 0.35 3.5 L0.35 3.4 0.3 3.25 0.3 2.65 Q0.3 2.55 0.3 2.4 L0.3 2.1 Q0.3 1.55 0.3 0.95 0.25 0.8 0.25 0.7 L0.25 0.3 Q0.25 0.25 0.25 0.2 L0.2 -1.25 0.2 -1.3 0.15 -1.3 0.15 -0.95 0.1 -1.05 Q0.1 -0.8 0.1 1.15 0.1 1.35 0.1 1.5 0.1 1.65 0.1 1.7 L0.05 1.75 0.05 1.5 0.0 1.5 0.0 1.35 Q0.0 1.2 0.0 1.0 L0.0 -0.45 Q0.0 -0.6 0.0 -0.75 0.0 -0.9 0.0 -0.95 L0.0 -1.05 0.05 -1.1 0.05 -3.05 Q0.05 -3.2 0.05 -3.3 L0.1 -3.4 0.1 -3.75 M0.5 -1.05 L0.5 -1.05 M0.35 0.85 L0.35 0.85 M0.35 0.6 L0.35 0.6 M1.6 2.5 L1.6 2.5 M1.2 -0.15 Q1.2 0.0 1.2 0.1 L1.2 0.15 Q1.2 0.0 1.2 -0.15" fill="#ffffff" fill-rule="evenodd" stroke="none"/>
  </g>
</svg>
