<?xml version="1.0" encoding="UTF-8" standalone="no"?>
<svg xmlns:ffdec="https://www.free-decompiler.com/flash" xmlns:xlink="http://www.w3.org/1999/xlink" ffdec:objectType="shape" height="23.6px" width="43.35px" xmlns="http://www.w3.org/2000/svg">
  <g transform="matrix(1.0, 0.0, 0.0, 1.0, 35.05, 30.15)">
    <path d="M0.55 -27.85 L0.6 -27.85 0.7 -27.9 0.85 -28.05 1.25 -28.05 1.65 -28.1 1.75 -28.1 2.1 -27.75 2.1 -27.65 2.15 -27.6 2.2 -27.5 2.3 -27.4 2.45 -27.35 2.6 -27.2 3.1 -26.9 3.3 -26.85 3.45 -26.8 3.45 -26.85 3.5 -26.9 3.5 -26.95 3.55 -27.0 3.55 -27.05 3.6 -27.1 3.6 -27.2 3.7 -27.3 3.8 -27.3 3.95 -27.45 4.4 -27.45 4.65 -27.4 4.7 -27.35 4.8 -27.3 4.85 -27.25 4.95 -27.25 5.05 -27.2 5.2 -27.05 5.3 -27.0 5.3 -26.95 5.35 -26.95 5.55 -26.85 5.6 -26.8 5.65 -26.8 5.75 -26.75 5.8 -26.7 5.9 -26.5 6.05 -26.3 6.2 -26.15 6.2 -25.8 6.25 -25.8 6.25 -25.7 6.3 -25.65 6.3 -25.6 6.35 -25.55 6.5 -25.55 6.6 -25.6 6.85 -25.6 7.45 -25.5 7.55 -25.45 7.75 -25.25 7.75 -25.2 7.8 -25.05 7.75 -24.9 7.75 -24.65 7.8 -24.6 7.8 -24.55 7.9 -24.5 7.9 -24.45 7.95 -24.4 7.95 -24.3 8.0 -24.3 8.0 -23.9 8.05 -23.85 8.05 -23.4 8.1 -23.35 8.1 -23.25 8.15 -23.25 8.15 -23.15 8.2 -23.1 8.2 -22.7 8.25 -22.65 8.25 -22.35 8.3 -22.3 8.3 -21.95 8.25 -21.9 8.25 -21.75 8.2 -21.7 8.2 -21.65 8.15 -21.6 8.05 -21.55 7.85 -21.5 7.75 -21.4 7.55 -21.35 7.4 -21.25 7.3 -21.25 7.25 -21.2 7.25 -21.15 7.15 -21.15 7.1 -21.1 6.85 -21.1 6.8 -21.15 6.7 -21.15 6.6 -21.25 6.5 -21.3 6.35 -21.45 6.25 -21.5 6.2 -21.55 6.1 -21.6 6.05 -21.65 6.05 -21.7 5.95 -21.7 5.95 -21.75 5.8 -21.75 5.75 -21.8 5.65 -21.8 5.55 -21.85 5.45 -21.95 5.35 -21.95 5.25 -22.05 5.05 -22.15 5.0 -22.2 5.0 -22.35 4.95 -22.35 4.9 -22.4 4.9 -22.5 4.4 -22.5 4.3 -22.4 4.3 -22.25 4.35 -22.25 4.35 -22.2 4.4 -22.15 4.4 -21.95 4.2 -21.75 4.2 -21.6 4.15 -21.55 4.05 -21.5 3.95 -21.4 3.95 -21.3 3.9 -21.25 3.85 -21.25 3.8 -21.2 3.6 -21.1 3.45 -21.1 3.35 -21.15 3.15 -21.2 3.0 -21.3 2.95 -21.25 2.85 -21.2 2.8 -21.15 2.7 -21.1 2.5 -21.1 2.4 -21.15 2.2 -21.2 1.95 -21.25 1.7 -21.25 1.2 -21.2 1.1 -21.15 0.95 -21.15 0.65 -21.3 0.6 -21.35 0.6 -21.4 0.55 -21.4 0.45 -21.5 0.45 -21.7 0.4 -21.75 0.4 -21.9 0.25 -22.05 0.2 -22.05 0.2 -21.5 0.15 -21.45 0.15 -21.4 0.0 -21.3 -0.05 -21.25 -0.4 -21.25 -0.4 -21.2 -0.45 -21.15 -0.45 -21.1 -0.55 -21.0 -0.65 -21.0 -0.75 -20.95 -1.6 -20.95 -1.7 -21.05 -1.8 -21.05 -2.0 -21.1 -2.1 -21.15 -2.15 -21.2 -2.15 -21.25 -2.2 -21.25 -2.2 -21.3 -2.35 -21.45 -2.35 -21.55 -2.55 -21.55 -2.55 -21.1 -2.5 -21.05 -2.5 -20.85 -2.65 -20.7 -2.75 -20.65 -2.8 -20.65 -2.95 -20.6 -3.05 -20.6 -3.1 -20.55 -3.2 -20.5 -3.25 -20.5 -3.35 -20.45 -3.35 -20.4 -3.45 -20.4 -3.55 -20.3 -3.55 -20.25 -3.6 -20.2 -3.6 -20.15 -3.7 -20.05 -3.9 -19.95 -3.9 -19.9 -4.1 -19.8 -4.2 -19.8 -4.3 -19.75 -4.35 -19.75 -4.35 -19.7 -4.5 -19.7 -4.6 -19.6 -4.6 -19.55 -4.55 -19.55 -4.45 -19.5 -4.4 -19.45 -4.3 -19.4 -4.15 -19.25 -4.15 -19.2 -4.1 -19.15 -4.0 -19.1 -3.8 -19.05 -3.5 -19.0 -3.35 -18.85 -3.25 -18.8 -3.2 -18.75 -2.1 -18.75 -2.0 -18.7 -1.85 -18.55 -1.85 -18.45 -1.75 -18.45 -1.7 -18.5 -1.45 -18.5 -1.35 -18.55 -1.35 -18.65 -1.15 -18.75 -1.1 -18.75 -1.0 -18.85 -0.75 -18.85 -0.65 -18.8 -0.5 -18.65 -0.45 -18.55 -0.35 -18.45 -0.35 -18.4 -0.3 -18.4 -0.3 -18.3 -0.25 -18.25 -0.2 -18.15 0.1 -17.85 0.15 -17.75 0.15 -17.7 0.2 -17.65 0.2 -17.6 0.25 -17.55 0.25 -17.1 0.2 -17.05 0.2 -17.0 0.15 -16.95 0.1 -16.85 0.0 -16.7 -0.1 -16.6 -0.1 -16.5 -0.15 -16.45 -0.15 -16.4 -0.2 -16.35 -0.2 -16.3 -0.25 -16.25 -0.25 -16.15 -0.3 -16.1 -0.3 -16.05 -0.15 -15.95 -0.1 -15.9 -0.1 -15.85 -0.05 -15.8 0.1 -15.75 0.2 -15.7 0.25 -15.65 0.25 -15.55 0.3 -15.5 0.3 -14.85 0.25 -14.8 0.25 -14.3 0.2 -14.25 0.2 -14.1 0.15 -14.05 0.15 -14.0 0.1 -13.95 0.1 -13.55 Q0.1 -13.5 0.05 -13.45 L-0.25 -13.15 -0.2 -13.15 -0.15 -13.1 -0.15 -13.05 -0.1 -13.0 -0.1 -12.85 -0.05 -12.8 -0.05 -12.5 0.0 -12.45 0.0 -12.4 0.1 -12.3 0.15 -12.3 0.15 -12.25 0.2 -12.2 0.2 -12.15 0.25 -12.1 0.25 -11.65 0.2 -11.6 0.2 -11.35 0.25 -11.35 0.25 -11.4 0.45 -11.5 0.65 -11.7 0.65 -11.9 0.7 -11.9 0.75 -11.95 0.75 -12.0 0.85 -12.0 1.15 -12.05 1.35 -11.95 1.4 -11.95 1.5 -11.9 1.55 -11.85 1.65 -11.8 1.7 -11.8 1.8 -11.75 2.05 -11.5 2.05 -11.45 2.1 -11.4 2.1 -10.95 Q2.15 -10.85 2.2 -10.8 L2.3 -10.75 2.4 -10.65 2.5 -10.5 2.6 -10.4 Q2.65 -10.35 2.7 -10.35 L2.75 -10.3 2.75 -10.25 2.8 -10.2 2.8 -9.6 2.6 -9.4 2.55 -9.4 2.45 -9.3 2.4 -9.3 2.2 -9.25 1.7 -9.25 1.5 -9.15 1.55 -9.1 1.55 -8.9 1.6 -8.85 1.6 -8.65 1.55 -8.6 1.55 -8.4 1.5 -8.35 1.5 -8.3 1.45 -8.25 1.45 -8.2 1.4 -8.15 1.4 -8.1 1.25 -7.95 1.15 -7.9 1.1 -7.9 1.0 -7.85 0.95 -7.8 0.9 -7.8 0.8 -7.75 0.75 -7.7 0.75 -7.65 0.7 -7.65 0.6 -7.55 0.45 -7.5 0.45 -7.45 0.4 -7.45 0.35 -7.4 0.15 -7.3 0.1 -7.25 0.05 -7.25 -0.05 -7.2 -0.2 -7.1 -0.35 -6.95 -0.4 -6.95 -0.4 -6.9 -0.45 -6.85 -0.45 -6.75 -0.55 -6.65 -0.6 -6.65 -0.65 -6.6 -0.65 -6.55 -0.7 -6.55 -0.8 -6.6 -0.75 -6.7 -0.75 -7.0 -0.7 -7.05 -0.7 -7.15 -0.6 -7.25 -0.55 -7.35 -0.4 -7.5 -0.3 -7.55 -0.25 -7.6 -0.15 -7.8 -0.05 -7.85 0.0 -7.9 0.05 -7.9 0.05 -7.95 0.15 -8.05 0.2 -8.15 0.3 -8.25 0.35 -8.4 0.4 -8.45 0.4 -8.5 0.35 -8.55 0.35 -8.6 0.3 -8.6 0.3 -8.7 0.25 -8.75 0.25 -8.95 0.2 -9.0 0.2 -9.05 0.15 -9.1 0.1 -9.2 0.1 -9.3 0.05 -9.3 -0.05 -9.4 -0.05 -9.45 -0.1 -9.5 -0.1 -9.7 -0.05 -9.75 -0.05 -9.8 0.0 -9.85 0.1 -9.9 0.2 -10.0 0.25 -10.0 0.45 -10.1 0.5 -10.1 0.75 -10.15 0.95 -10.15 1.05 -10.1 1.25 -10.1 1.55 -10.15 1.4 -10.45 1.35 -10.5 1.35 -10.6 1.3 -10.65 1.3 -10.75 1.25 -10.8 1.2 -10.7 1.1 -10.6 0.85 -10.45 0.75 -10.4 0.6 -10.35 0.4 -10.3 -0.3 -10.3 -0.35 -10.25 -0.8 -10.25 -0.85 -10.3 -0.9 -10.3 -0.9 -10.4 -1.0 -10.5 -1.0 -11.2 -0.95 -11.25 -0.95 -11.35 -0.9 -11.4 -0.9 -11.8 -0.95 -11.85 -1.05 -11.8 -1.15 -11.8 -1.2 -11.75 -1.5 -11.75 -1.75 -11.8 -1.8 -11.85 -2.0 -11.9 Q-2.1 -11.95 -2.25 -12.0 L-2.35 -12.05 -2.4 -12.1 -2.45 -12.1 -2.45 -12.15 -2.55 -12.15 -2.9 -12.5 -3.0 -12.7 -3.0 -12.8 -3.1 -12.75 -3.1 -12.35 -3.2 -12.25 -3.2 -12.15 Q-3.15 -12.05 -3.05 -11.95 -2.95 -11.85 -2.8 -11.7 L-2.7 -11.55 -2.7 -11.15 -2.75 -11.05 Q-2.8 -11.0 -2.9 -10.95 L-3.05 -10.75 -3.15 -10.7 -3.8 -10.65 -3.5 -10.65 -3.4 -10.6 -3.25 -10.45 -3.15 -10.4 -3.15 -10.35 -3.1 -10.3 -3.1 -10.2 -3.0 -10.1 -2.95 -10.1 -2.85 -10.05 -2.85 -10.0 -2.8 -10.0 -2.7 -9.95 -2.6 -9.85 -2.6 -9.8 -2.55 -9.75 -2.55 -9.55 -2.5 -9.5 -2.5 -9.2 -2.55 -9.15 -2.55 -8.85 -2.6 -8.8 -2.6 -8.7 -2.65 -8.65 -2.65 -8.45 -2.7 -8.4 -2.7 -8.3 -2.75 -8.25 -2.75 -8.2 -2.8 -8.15 -2.8 -8.0 -2.85 -7.95 -2.85 -7.85 -2.95 -7.75 -2.95 -7.7 -3.0 -7.65 -3.0 -7.6 -3.05 -7.55 -3.05 -7.5 -3.1 -7.45 -3.05 -7.4 -3.1 -7.35 -3.1 -7.3 -3.15 -7.25 -3.3 -7.25 -3.3 -7.3 -3.4 -7.4 -3.4 -7.55 -3.45 -7.55 -3.5 -7.6 -3.5 -7.7 -3.55 -7.75 -3.55 -7.9 -3.6 -7.9 -3.6 -8.0 -3.65 -8.05 -3.65 -8.1 -3.7 -8.2 -3.75 -8.25 -3.75 -8.85 -3.7 -8.9 -3.7 -9.05 -3.65 -9.1 -3.65 -9.2 -3.6 -9.25 -3.6 -9.3 -3.65 -9.35 -3.65 -9.4 -3.7 -9.45 -3.7 -9.5 -3.8 -9.6 -3.85 -9.6 -3.95 -9.65 -4.0 -9.7 -4.0 -9.75 -4.1 -9.75 -4.15 -9.8 -4.55 -9.9 -4.85 -9.9 -4.9 -9.95 -5.0 -10.0 -5.1 -10.1 -5.1 -10.5 -5.0 -10.7 -5.0 -10.75 -4.95 -10.8 -4.95 -10.9 -4.9 -11.0 -4.9 -11.1 -4.85 -11.2 -4.75 -11.35 -4.55 -11.45 -4.15 -11.45 -4.05 -11.4 -3.9 -11.4 Q-3.95 -11.55 -4.05 -11.65 -4.2 -11.75 -4.3 -11.9 L-4.35 -12.0 -4.35 -12.3 -4.05 -12.6 -4.05 -12.7 -4.0 -12.75 -4.0 -12.9 -3.95 -12.95 -3.95 -13.1 Q-3.9 -13.2 -3.8 -13.3 -3.65 -13.45 -3.5 -13.55 L-3.4 -13.65 -3.1 -13.65 -3.0 -13.55 -2.75 -13.55 -2.65 -13.5 Q-2.5 -13.4 -2.4 -13.25 -2.25 -13.0 -2.0 -12.9 L-1.95 -12.85 -1.95 -12.9 -2.0 -12.95 -2.0 -13.3 -1.95 -13.35 -2.0 -13.4 -2.0 -13.85 -1.9 -13.95 -1.9 -14.05 -1.85 -14.05 -1.65 -14.25 -1.25 -14.25 -1.1 -14.2 -0.95 -14.2 Q-0.95 -14.3 -0.95 -14.4 L-0.95 -14.85 -1.0 -14.9 -1.0 -14.95 -1.05 -15.0 -1.05 -15.1 -1.1 -15.15 -1.1 -15.25 -1.15 -15.25 -1.15 -15.3 -1.65 -15.35 -1.75 -15.45 -1.85 -15.6 -1.95 -15.7 -1.95 -15.95 -2.0 -16.0 -2.0 -16.35 Q-1.95 -16.5 -1.9 -16.6 -1.7 -16.75 -1.5 -16.85 L-1.35 -16.9 -1.35 -17.2 -1.55 -17.15 -1.8 -17.15 -1.9 -17.25 -1.9 -17.55 -1.85 -17.6 -2.3 -17.6 -2.4 -17.55 -2.5 -17.55 -2.6 -17.5 -2.75 -17.5 -2.85 -17.55 -2.9 -17.6 -2.95 -17.6 -2.95 -17.7 -3.0 -17.75 Q-3.0 -17.8 -3.15 -17.8 L-3.55 -17.75 -3.9 -17.75 -4.2 -17.95 -4.2 -18.1 -4.25 -18.15 -4.25 -18.2 -4.45 -18.3 -4.5 -18.3 -4.8 -18.35 -4.85 -18.4 -4.9 -18.4 -5.0 -18.5 -5.0 -18.65 -5.05 -18.7 -5.45 -18.75 -5.5 -18.75 -5.85 -18.8 -6.05 -19.0 -6.05 -19.1 -6.1 -19.15 -6.1 -19.45 -6.05 -19.55 Q-6.05 -19.65 -5.95 -19.7 L-5.85 -19.75 -5.8 -19.8 -5.8 -20.05 -5.75 -20.1 -5.75 -20.15 -5.7 -20.25 -5.65 -20.25 -5.15 -20.4 -4.95 -20.45 -4.9 -20.5 -4.85 -20.5 -4.7 -20.65 Q-4.65 -20.65 -4.6 -20.7 L-4.55 -20.8 -4.45 -20.85 -4.35 -20.95 -4.2 -21.05 -4.1 -21.15 -4.05 -21.15 -4.05 -21.2 -3.9 -21.35 -3.9 -21.4 -3.8 -21.5 -3.85 -21.5 -3.85 -21.75 -3.9 -21.8 -3.85 -21.85 -3.85 -22.05 -3.8 -22.1 -3.8 -22.2 -3.75 -22.2 -3.65 -22.3 -3.55 -22.35 -3.45 -22.45 -3.4 -22.45 -3.35 -22.5 -3.25 -22.55 -3.2 -22.6 -3.15 -22.6 -3.15 -22.65 -3.1 -22.65 -3.0 -22.7 -2.9 -22.7 -2.9 -22.75 -2.7 -22.8 -2.15 -22.8 -2.05 -22.7 -2.05 -22.65 -1.95 -22.45 -1.95 -22.4 -1.9 -22.35 -1.9 -22.25 -1.85 -22.2 -1.85 -22.15 -1.8 -22.1 -1.7 -22.1 -1.4 -22.05 -1.25 -22.05 Q-1.2 -22.1 -1.15 -22.1 L-1.1 -22.15 -1.1 -22.2 -1.15 -22.25 -1.15 -22.35 -1.1 -22.4 -1.1 -22.55 -1.05 -22.65 -0.75 -22.95 -0.7 -22.95 -0.65 -23.0 -0.55 -23.0 -0.45 -22.95 -0.4 -23.0 -0.35 -23.0 -0.3 -23.05 -0.2 -23.1 0.65 -23.1 0.75 -23.05 0.8 -23.05 0.9 -23.0 Q0.95 -23.0 1.0 -22.95 L1.1 -22.9 1.25 -22.75 1.25 -22.65 1.3 -22.6 1.3 -22.55 1.35 -22.55 1.35 -22.35 1.4 -22.3 1.4 -22.2 1.75 -22.2 2.5 -22.35 2.85 -22.35 Q3.1 -22.3 3.3 -22.4 L3.25 -22.45 3.25 -22.5 3.15 -22.55 3.0 -22.7 3.0 -23.05 Q3.0 -23.15 3.0 -23.2 L3.05 -23.25 3.05 -23.3 3.15 -23.35 3.25 -23.35 3.3 -23.4 3.7 -23.4 3.8 -23.35 4.15 -23.35 4.15 -23.45 4.2 -23.5 4.2 -23.55 4.25 -23.6 4.25 -23.65 4.3 -23.7 4.3 -23.75 4.4 -23.85 4.55 -23.95 5.0 -23.95 5.05 -23.9 5.15 -23.85 5.2 -23.8 5.25 -23.7 5.3 -23.65 5.4 -23.5 5.55 -23.35 5.6 -23.35 6.15 -22.8 6.15 -22.75 6.3 -22.75 6.4 -22.7 6.45 -22.65 6.5 -22.65 6.8 -22.5 Q6.85 -22.5 6.9 -22.45 L6.95 -22.45 7.0 -22.4 7.0 -22.35 7.05 -22.3 7.05 -22.25 7.15 -22.25 7.15 -22.45 7.1 -22.5 7.1 -22.55 7.05 -22.6 7.05 -22.65 7.0 -22.7 7.0 -22.75 6.85 -22.9 6.8 -22.9 6.8 -23.1 Q6.8 -23.2 6.8 -23.3 L6.8 -23.6 6.75 -23.65 6.75 -23.95 6.7 -24.0 6.6 -24.0 6.5 -23.95 5.95 -23.95 5.85 -24.05 5.7 -24.15 Q5.6 -24.25 5.55 -24.35 L5.5 -24.45 5.5 -24.8 5.35 -24.95 5.35 -25.0 5.2 -25.15 5.15 -25.15 4.95 -25.35 4.95 -25.4 4.85 -25.5 4.85 -25.55 4.7 -25.7 4.6 -25.7 4.55 -25.65 4.4 -25.65 4.35 -25.7 4.3 -25.6 4.25 -25.55 4.2 -25.55 3.7 -25.5 3.6 -25.5 3.3 -25.45 3.05 -25.45 3.0 -25.5 2.95 -25.5 2.85 -25.6 2.7 -25.6 2.65 -25.65 2.55 -25.7 2.5 -25.7 2.4 -25.75 2.35 -25.8 2.3 -25.8 2.2 -25.9 2.15 -25.9 2.15 -25.95 2.05 -25.95 2.0 -26.0 1.9 -26.05 1.8 -26.15 1.65 -26.25 1.5 -26.4 1.45 -26.5 1.4 -26.5 1.4 -26.6 1.3 -26.8 1.25 -26.85 1.25 -26.95 1.2 -27.0 1.1 -26.95 1.05 -26.95 0.9 -26.8 0.65 -26.75 0.6 -26.7 0.4 -26.7 0.35 -26.75 0.2 -26.8 0.15 -26.8 0.05 -26.85 0.0 -26.85 -0.1 -26.9 -0.15 -26.95 -0.2 -26.95 -0.2 -27.0 -0.3 -27.0 -0.4 -27.05 -0.45 -27.1 -0.45 -27.15 -0.55 -27.25 -0.65 -27.4 -0.85 -27.6 -0.85 -28.0 -0.8 -28.0 -0.8 -28.15 -1.15 -28.15 -1.4 -28.4 -1.45 -28.5 -1.7 -28.5 -1.9 -28.6 -1.95 -28.65 -2.45 -28.65 -2.7 -28.6 -2.75 -28.55 -2.8 -28.55 -2.85 -28.5 -3.5 -28.5 -3.7 -28.45 -3.7 -28.4 -3.8 -28.4 -3.9 -28.35 -4.3 -28.25 -4.45 -28.2 -4.6 -28.2 -4.65 -28.15 -4.65 -28.1 -4.8 -27.95 -4.8 -27.85 -4.85 -27.8 -4.9 -27.7 -5.05 -27.55 -5.1 -27.45 -5.2 -27.45 -5.4 -27.25 -5.5 -27.2 -5.5 -27.15 -5.6 -27.05 -5.65 -27.05 -5.75 -26.95 -5.85 -26.9 -6.1 -26.85 -6.1 -26.8 -6.4 -26.65 -6.55 -26.6 -6.6 -26.6 -6.65 -26.55 -6.75 -26.55 -6.8 -26.5 -6.85 -26.5 -6.9 -26.55 -6.9 -26.6 Q-6.95 -26.6 -7.05 -26.65 L-7.15 -26.75 -7.15 -26.85 -7.25 -26.9 -7.3 -26.95 -7.45 -26.95 -7.5 -26.9 -7.8 -26.8 -7.85 -26.75 -7.9 -26.75 -8.0 -26.7 -8.05 -26.7 -8.1 -26.65 -8.2 -26.6 -8.25 -26.55 -8.4 -26.45 -8.45 -26.45 -8.55 -26.4 -8.7 -26.3 -8.85 -26.25 -8.95 -26.15 -9.0 -26.15 -9.4 -26.1 -9.5 -26.1 -9.6 -26.05 -9.6 -26.0 -9.75 -26.0 -9.75 -25.95 -10.35 -25.95 -10.55 -26.05 -10.55 -26.45 -10.5 -26.5 -10.7 -26.55 -10.75 -26.6 -11.1 -26.6 -11.15 -26.65 -11.25 -26.65 -11.3 -26.6 Q-11.4 -26.6 -11.45 -26.55 L-12.0 -26.5 -12.05 -26.45 -12.05 -26.05 -12.0 -26.0 -12.0 -25.8 -11.9 -25.7 -11.9 -25.6 -11.85 -25.55 -11.85 -25.5 -11.75 -25.4 -11.7 -25.25 -11.7 -25.15 -11.65 -25.1 -11.65 -24.85 -11.7 -24.8 -11.7 -24.4 -11.75 -24.35 -11.75 -24.25 -11.85 -24.15 -11.85 -23.85 -11.9 -23.8 -11.9 -23.65 -11.95 -23.6 -11.95 -23.4 -12.0 -23.35 -12.0 -23.1 -12.05 -23.05 -12.05 -22.8 -12.1 -22.75 -12.1 -22.65 -12.15 -22.6 -12.15 -22.55 -12.2 -22.5 -12.2 -22.35 -12.25 -22.35 -12.25 -22.3 -12.3 -22.25 -12.3 -22.15 -12.35 -22.1 -12.35 -22.05 -12.4 -22.0 -12.4 -21.95 -12.45 -21.95 -12.5 -21.9 -12.5 -21.8 -12.55 -21.75 -12.55 -21.55 -12.6 -21.5 -12.6 -21.45 -12.7 -21.35 -12.7 -20.65 -12.8 -20.55 -12.8 -20.45 -12.9 -20.35 -12.9 -20.3 -12.95 -20.25 -13.0 -20.1 -12.95 -19.9 -12.95 -19.65 -13.0 -19.6 -13.0 -19.4 -13.05 -19.25 -13.05 -19.2 -13.1 -19.15 -13.1 -19.1 -13.2 -19.05 -13.2 -18.9 -13.35 -18.75 -13.55 -18.7 -13.6 -18.65 -13.7 -18.65 -13.75 -18.6 -13.85 -18.65 -13.9 -18.7 -14.1 -18.7 -14.25 -18.65 -14.25 -18.25 -14.2 -18.2 -14.2 -18.15 -14.15 -18.1 -14.15 -17.9 -14.05 -17.8 -14.0 -17.7 -13.95 -17.65 -13.95 -17.6 -13.85 -17.5 -13.65 -17.45 -13.35 -17.45 -13.15 -17.35 -13.1 -17.35 -13.05 -17.3 -13.05 -17.25 -13.0 -17.2 -13.0 -17.05 -12.95 -17.0 -12.95 -16.8 -13.0 -16.75 -13.0 -16.7 -13.1 -16.6 -13.1 -16.3 -13.15 -16.25 -13.15 -15.6 -13.2 -15.55 -13.2 -15.45 -13.35 -15.3 -13.35 -15.25 -13.4 -15.25 -13.4 -15.2 -13.45 -15.1 Q-13.5 -14.95 -13.6 -14.9 L-13.75 -14.7 -13.8 -14.65 -13.8 -14.55 -13.9 -14.45 -13.9 -14.4 -14.05 -14.25 -14.15 -14.25 -14.3 -14.2 -14.4 -14.15 -14.45 -14.15 -14.5 -14.1 -14.85 -14.1 -14.9 -14.15 -14.9 -14.2 -14.95 -14.25 -14.95 -14.3 -15.0 -14.35 -15.05 -14.35 -15.3 -14.6 -15.4 -14.6 Q-15.5 -14.65 -15.65 -14.7 L-15.8 -14.7 -15.85 -14.65 -15.95 -14.65 -15.95 -14.6 -16.0 -14.6 -16.1 -14.55 -16.15 -14.5 -16.3 -14.45 -16.5 -14.4 -16.65 -14.25 -16.75 -14.2 -16.95 -14.15 Q-17.0 -14.15 -17.05 -14.1 L-17.3 -14.05 -17.4 -14.05 -17.4 -14.1 -17.45 -14.15 -17.5 -14.1 -17.5 -14.05 -17.55 -14.05 -17.55 -14.0 -17.6 -13.85 Q-17.65 -13.8 -17.65 -13.7 L-17.75 -13.65 -17.8 -13.6 -17.8 -13.55 -17.95 -13.5 -18.0 -13.5 -18.45 -13.45 -18.55 -13.45 -18.85 -13.4 -18.95 -13.4 -19.5 -13.35 -20.05 -13.35 -20.15 -13.4 -20.15 -13.8 -20.25 -13.85 -20.3 -13.9 -20.3 -13.95 -20.35 -13.95 -20.4 -14.0 -20.5 -14.0 -20.6 -13.9 -20.65 -13.8 -20.8 -13.7 -21.0 -13.5 -21.2 -13.4 -21.35 -13.4 -21.45 -13.5 -21.65 -13.55 -22.15 -13.55 -22.2 -13.5 -22.2 -13.15 -22.25 -13.1 -22.25 -13.05 Q-22.25 -12.95 -22.3 -12.85 -22.35 -12.8 -22.4 -12.7 L-22.6 -12.6 -22.6 -12.55 -22.75 -12.55 -22.75 -12.5 -23.35 -12.4 -23.4 -12.4 -23.4 -12.35 -23.45 -12.3 -24.55 -12.35 -24.7 -12.5 -24.8 -12.55 -24.85 -12.6 -24.9 -12.6 -24.95 -12.65 -24.95 -12.85 -25.0 -12.9 -25.0 -13.0 -25.05 -13.05 -25.05 -13.15 -25.15 -13.15 Q-25.45 -13.05 -25.85 -13.0 L-26.05 -13.0 Q-26.1 -13.0 -26.15 -13.05 L-26.25 -13.1 -26.3 -13.1 -26.4 -13.2 -26.45 -13.3 -26.45 -13.4 -26.5 -13.45 -26.5 -13.5 -26.55 -13.55 -26.55 -13.75 -26.6 -13.8 -26.6 -14.4 -26.5 -14.5 Q-26.5 -14.6 -26.5 -14.65 L-26.5 -15.05 -26.45 -15.1 -26.45 -15.15 -26.5 -15.2 -26.5 -15.85 -26.4 -16.05 -26.3 -16.1 -26.3 -16.2 -26.35 -16.25 -26.35 -16.3 -26.4 -16.35 -26.4 -16.4 -26.45 -16.45 -26.5 -16.45 -26.65 -16.5 -26.8 -16.65 -26.8 -17.0 -26.55 -17.25 -26.55 -17.3 -26.5 -17.35 -26.5 -17.75 -26.55 -17.8 -26.7 -17.85 -26.75 -17.85 -26.85 -17.9 -27.0 -18.05 -27.05 -18.05 -27.1 -18.1 -27.1 -18.25 -27.05 -18.3 -27.05 -18.35 -27.0 -18.4 -26.95 -18.4 -26.85 -18.45 -26.85 -18.95 -26.8 -19.0 -26.8 -19.05 -26.75 -19.1 -26.75 -19.2 -26.5 -19.45 -26.45 -19.45 -26.4 -19.5 -26.3 -19.55 -25.5 -19.55 -25.3 -19.5 -25.1 -19.5 -25.0 -19.55 -25.0 -19.6 -24.95 -19.65 -24.85 -19.65 -24.8 -19.7 -24.8 -19.8 -24.85 -19.8 -24.85 -20.0 -24.65 -20.2 -24.55 -20.25 -24.45 -20.25 -24.45 -20.35 -24.4 -20.4 -24.4 -20.5 -24.3 -20.6 -24.3 -20.65 -24.25 -20.7 -24.2 -20.7 -24.1 -20.75 -24.05 -20.8 -24.0 -20.8 -23.9 -20.85 Q-24.25 -20.95 -24.65 -20.95 L-24.75 -20.95 -24.85 -21.05 -24.85 -21.1 -24.95 -21.1 -25.05 -21.05 -25.2 -21.05 -25.35 -20.9 -25.75 -20.9 -25.85 -20.8 -25.9 -20.8 -26.0 -20.75 -26.1 -20.75 -26.15 -20.7 -26.35 -20.7 -26.45 -20.75 -26.5 -20.75 -26.6 -20.8 -26.75 -20.95 -26.8 -20.95 -26.8 -21.0 -26.85 -21.05 -26.85 -21.1 -27.05 -21.3 Q-27.2 -21.35 -27.3 -21.45 L-27.4 -21.6 Q-27.5 -21.65 -27.6 -21.7 L-27.65 -21.75 -27.65 -21.8 -27.7 -21.85 -27.7 -22.0 -27.85 -22.15 -27.85 -22.2 -27.95 -22.3 -28.35 -22.35 -28.45 -22.45 -28.6 -22.3 -28.7 -22.25 -28.7 -22.2 -29.0 -21.9 -29.05 -21.9 -29.1 -21.85 -29.6 -21.85 -29.7 -21.95 -30.2 -21.95 -30.3 -22.0 -30.3 -22.1 -30.4 -22.1 -30.45 -22.05 -30.6 -22.05 -30.75 -22.0 Q-30.85 -21.9 -31.0 -21.85 L-31.15 -21.75 -31.25 -21.65 -31.45 -21.55 -31.5 -21.5 -31.65 -21.5 -31.7 -21.45 -31.7 -21.4 -31.65 -21.4 -31.65 -21.35 -31.6 -21.3 -31.6 -21.05 -31.65 -21.05 -31.65 -20.7 -31.7 -20.65 -31.7 -20.6 -31.75 -20.45 Q-31.8 -20.35 -31.9 -20.3 L-31.95 -20.2 -32.1 -20.05 -32.2 -20.0 -32.55 -20.0 -32.7 -20.05 -32.75 -20.05 -33.0 -20.1 -33.2 -20.15 -33.3 -20.25 -33.3 -20.2 -33.4 -20.1 -33.4 -20.05 -33.65 -19.8 -33.65 -19.75 -33.75 -19.65 -33.75 -19.6 -33.8 -19.55 -34.0 -19.45 -34.15 -19.3 -34.35 -19.2 -34.4 -19.2 -34.4 -19.15 -34.7 -19.15 -34.9 -19.1 -35.0 -19.2 -35.0 -19.3 -35.05 -19.35 -35.05 -19.7 -35.0 -19.75 -35.0 -19.8 -34.95 -19.8 -34.95 -19.85 -34.9 -19.9 -34.9 -20.05 -34.85 -20.1 -34.75 -20.15 -34.7 -20.2 -34.6 -20.35 -34.5 -20.45 -34.4 -20.45 -34.4 -20.5 -34.35 -20.5 -34.3 -20.6 -34.2 -20.7 -34.1 -20.9 -34.1 -20.95 -34.05 -21.05 -34.05 -21.1 -34.0 -21.15 -33.9 -21.2 -33.8 -21.3 -33.5 -21.3 -33.45 -21.35 -33.4 -21.35 -33.3 -21.3 -33.25 -21.3 -33.2 -21.25 -33.05 -21.2 -33.0 -21.15 -32.95 -21.15 -32.9 -21.1 -32.6 -21.1 -32.5 -21.15 -32.45 -21.15 -32.45 -21.4 -32.5 -21.4 -32.5 -21.45 -32.55 -21.5 -32.55 -21.55 -32.6 -21.6 -32.6 -21.65 -32.7 -21.75 -32.7 -22.15 -32.65 -22.2 -32.65 -22.35 -32.6 -22.4 -32.6 -22.45 -32.55 -22.45 -32.45 -22.55 -32.25 -22.55 -32.2 -22.5 -32.2 -22.55 -32.15 -22.6 -32.05 -22.65 -32.05 -22.7 -31.9 -22.85 -31.9 -22.9 -31.85 -22.95 -31.55 -22.95 -31.5 -22.9 -31.5 -22.85 -31.25 -22.9 -30.8 -22.9 -30.75 -22.95 -30.7 -22.95 -30.65 -23.0 -30.2 -23.0 -30.15 -22.95 -29.7 -22.95 -29.6 -23.0 -29.6 -23.1 -29.55 -23.15 -29.55 -23.35 -29.5 -23.4 -29.5 -23.5 -29.45 -23.55 -29.45 -23.6 -29.35 -23.7 -29.05 -23.7 -28.6 -23.65 -28.5 -23.6 -28.1 -23.6 -28.1 -23.65 -28.05 -23.7 -27.8 -23.7 -27.7 -23.6 -27.7 -23.55 -27.6 -23.45 -27.6 -23.4 -27.55 -23.35 -27.55 -23.25 -27.5 -23.2 -27.45 -23.1 -27.35 -23.0 -27.25 -22.95 -27.15 -22.85 -27.0 -22.75 -26.9 -22.65 -26.9 -22.6 Q-26.75 -22.5 -26.7 -22.35 L-26.6 -22.15 -26.6 -22.05 -26.55 -22.0 -26.55 -21.95 -26.35 -21.95 -26.25 -21.9 -26.05 -21.9 -26.0 -21.85 -25.9 -21.85 -25.8 -21.75 -25.75 -21.75 -25.65 -21.8 -25.45 -22.0 -25.45 -22.05 -25.4 -22.05 -25.35 -22.1 -25.25 -22.15 -25.1 -22.15 -24.95 -22.1 Q-24.8 -22.05 -24.65 -22.0 L-24.45 -21.85 -24.4 -21.85 -24.2 -21.8 -24.1 -21.75 -24.05 -21.75 -23.95 -21.7 -23.8 -21.65 -23.65 -21.55 -23.6 -21.5 -23.5 -21.5 -23.4 -21.4 -23.4 -21.35 -23.3 -21.25 -23.2 -21.2 -23.15 -21.15 -23.05 -21.1 -23.0 -21.05 -22.95 -21.05 -22.85 -20.95 -22.85 -20.9 -22.8 -20.85 -22.8 -20.7 -22.85 -20.7 -22.85 -20.5 -22.9 -20.45 -22.9 -20.4 -22.95 -20.35 -22.95 -20.3 -23.0 -20.25 -23.0 -20.1 -23.1 -20.0 -23.15 -20.0 -23.25 -19.9 -23.3 -19.9 -23.75 -19.85 -23.75 -19.6 -23.8 -19.55 -23.8 -19.4 -23.85 -19.35 -23.85 -19.1 -23.9 -19.1 -23.9 -19.05 -24.1 -18.85 -24.1 -18.75 -24.15 -18.75 -24.2 -18.7 -24.3 -18.65 -25.6 -18.6 -25.55 -18.55 -25.55 -18.2 -25.5 -18.15 -25.5 -18.0 -25.45 -17.95 -25.45 -17.3 -25.5 -17.25 -25.55 -17.25 -25.65 -17.2 -25.65 -17.05 -25.6 -17.0 -25.6 -16.9 -25.55 -16.85 -25.55 -16.6 -25.6 -16.55 -25.6 -16.25 -25.55 -16.2 -25.55 -16.1 -25.5 -16.05 -25.5 -15.6 -25.45 -15.55 -25.45 -15.2 -25.4 -15.2 -25.4 -15.15 -25.35 -15.1 -25.35 -14.45 -24.85 -14.45 -24.75 -14.4 -24.75 -14.35 -24.6 -14.25 -24.5 -14.2 -24.4 -14.1 -24.35 -14.0 -24.3 -13.95 -24.3 -13.85 -24.25 -13.8 -24.25 -13.75 -24.2 -13.7 -24.2 -13.65 -24.15 -13.6 -24.05 -13.55 -23.35 -13.55 -23.35 -13.6 -23.3 -13.65 -23.25 -13.65 -23.15 -13.75 -23.15 -13.95 -23.25 -14.05 -23.25 -14.1 -23.3 -14.15 -23.3 -14.2 -23.4 -14.3 -23.4 -14.85 -23.35 -14.9 -23.35 -15.0 -23.25 -15.1 -23.25 -15.15 -23.15 -15.25 -23.1 -15.25 -23.0 -15.3 -22.7 -15.3 -22.6 -15.25 -22.55 -15.2 -22.45 -15.15 -22.35 -15.15 -22.25 -15.1 -22.2 -15.0 -22.05 -14.85 -22.0 -14.75 -21.95 -14.7 -21.95 -14.65 -21.9 -14.65 -21.8 -14.6 -21.5 -14.6 -21.45 -14.65 -21.45 -14.8 -21.4 -14.85 -21.4 -14.95 -21.2 -15.15 -21.0 -15.15 -20.95 -15.2 -20.85 -15.25 -20.8 -15.3 -19.9 -15.3 -19.45 -15.25 -19.35 -15.25 -19.3 -15.2 -19.1 -15.15 -19.0 -15.1 -18.95 -15.05 -18.95 -14.65 -19.0 -14.6 -18.7 -14.6 -18.6 -14.55 -18.45 -14.5 -18.35 -14.45 -18.3 -14.45 -18.3 -14.5 -18.2 -14.6 -18.25 -14.65 -18.25 -15.15 -18.2 -15.15 -17.95 -15.4 -17.9 -15.4 -17.65 -15.45 -17.45 -15.5 -17.4 -15.5 -17.3 -15.6 -17.25 -15.6 -17.2 -15.65 -17.0 -15.7 -16.85 -15.75 -16.75 -15.75 -16.6 -15.9 -16.5 -15.9 -16.1 -16.0 Q-15.9 -16.05 -15.8 -16.1 L-15.4 -16.1 -15.3 -16.05 -15.25 -16.05 -15.2 -16.0 -15.1 -15.95 -15.1 -15.9 -15.05 -15.85 -14.95 -15.85 -14.8 -15.8 -14.7 -15.75 -14.65 -15.75 -14.6 -15.7 -14.55 -15.7 -14.5 -15.65 -14.5 -15.7 -14.4 -15.8 -14.4 -15.85 -14.35 -15.9 -14.25 -16.1 Q-14.2 -16.15 -14.15 -16.2 L-14.15 -16.25 -14.1 -16.3 -14.1 -16.5 -14.05 -16.55 -14.05 -16.65 -14.25 -16.65 Q-14.55 -16.6 -14.9 -16.7 L-14.95 -16.75 -14.95 -16.8 -15.0 -16.85 -15.0 -17.1 -15.05 -17.15 -15.05 -17.25 -15.1 -17.25 -15.2 -17.35 -15.2 -18.1 -15.25 -18.15 -15.25 -19.65 -15.2 -19.7 -15.2 -20.0 -15.15 -20.05 -15.15 -20.1 -15.1 -20.15 -15.1 -20.5 -15.05 -20.55 -15.05 -20.6 -14.95 -20.7 -14.7 -20.7 -14.6 -20.6 -14.5 -20.6 -14.4 -20.55 -14.25 -20.5 -14.1 -20.35 -13.95 -20.35 -13.95 -20.55 -13.9 -20.6 -13.9 -20.65 -13.85 -20.7 -13.8 -20.7 -13.8 -20.75 -13.45 -21.1 -13.45 -21.2 -13.5 -21.25 -13.5 -21.35 -13.6 -21.45 -13.6 -22.05 -13.55 -22.05 -13.55 -22.2 -13.5 -22.25 -13.5 -22.3 -13.45 -22.35 -13.45 -22.4 -13.4 -22.45 -13.4 -22.55 -13.35 -22.6 -13.35 -22.75 -13.3 -22.75 -13.3 -22.8 -13.2 -22.9 -13.2 -22.95 -13.15 -23.0 -13.15 -23.1 -13.1 -23.15 -13.1 -23.2 -13.05 -23.25 -13.05 -23.3 -13.0 -23.35 -13.0 -23.4 -12.95 -23.45 -12.85 -23.6 -12.85 -23.75 -12.8 -23.8 -12.8 -23.95 -12.75 -24.0 -12.75 -24.1 -12.7 -24.15 -12.7 -24.2 -12.65 -24.25 -12.65 -24.45 -12.6 -24.5 -12.6 -24.55 -12.65 -24.6 -12.65 -24.7 -12.7 -24.75 -12.7 -24.8 -12.75 -24.85 -12.75 -24.95 -12.8 -25.0 -12.8 -25.05 -12.85 -25.1 -12.85 -25.15 -12.9 -25.2 -12.9 -25.75 -13.05 -25.9 -13.1 -25.9 -13.15 -25.95 -13.15 -26.05 -13.2 -26.1 -13.2 -26.35 -13.15 -26.4 -13.15 -26.45 -13.1 -26.5 -13.1 -26.65 -13.05 -26.7 -13.05 -26.75 -13.0 -26.8 -13.0 -27.05 -12.95 -27.2 -12.85 -27.35 -12.8 -27.45 -12.7 -27.6 -12.55 -27.75 -12.45 -27.75 -11.85 -27.8 -11.75 -27.8 -11.25 -27.9 -11.15 -27.95 -10.55 -27.95 -10.35 -27.85 -10.25 -27.75 -10.2 -27.75 -10.2 -27.7 -10.15 -27.65 -9.95 -27.65 -9.9 -27.6 -9.7 -27.55 Q-9.6 -27.5 -9.5 -27.45 L-9.35 -27.3 -9.3 -27.3 -9.3 -27.2 -9.1 -27.3 -9.05 -27.35 -9.05 -27.4 -9.0 -27.4 -8.9 -27.45 -8.85 -27.5 -8.8 -27.5 -8.55 -27.75 -8.5 -27.75 -8.25 -28.0 -8.2 -28.0 -8.15 -28.05 -8.05 -28.1 -7.95 -28.1 -7.85 -28.05 -7.8 -28.0 -7.65 -28.0 -7.55 -28.05 -7.5 -28.1 -7.45 -28.1 -7.35 -28.2 -7.15 -28.2 -7.0 -28.05 -7.0 -28.0 -6.95 -28.0 -6.85 -27.95 -6.8 -27.95 -6.8 -28.0 -6.65 -28.15 -6.65 -28.2 -6.45 -28.3 -6.4 -28.3 Q-6.3 -28.4 -6.2 -28.55 L-5.95 -28.95 -5.75 -29.25 -5.55 -29.45 -5.25 -29.45 -5.05 -29.35 -4.7 -29.35 -4.6 -29.4 -4.55 -29.45 -3.85 -29.45 -3.15 -29.6 -3.1 -29.7 -3.05 -29.75 -2.95 -29.9 -2.8 -30.05 -2.75 -30.05 -2.7 -30.1 -2.6 -30.1 -2.5 -30.15 -2.4 -30.15 -2.2 -30.05 -2.1 -30.05 -2.05 -30.1 -1.95 -30.1 -1.95 -30.15 -1.85 -30.1 -1.7 -29.95 -1.65 -29.85 -1.6 -29.8 -1.55 -29.7 -1.4 -29.55 -1.4 -29.5 -1.35 -29.45 -1.35 -29.4 -1.25 -29.35 -1.15 -29.35 -1.05 -29.25 Q-0.95 -29.2 -0.9 -29.15 L-0.75 -29.15 -0.65 -29.1 -0.2 -28.65 -0.1 -28.5 -0.1 -28.3 -0.05 -28.25 -0.05 -28.1 0.0 -28.05 0.0 -28.0 0.05 -28.0 0.05 -27.9 0.15 -27.8 0.25 -27.75 0.45 -27.75 0.55 -27.85 M0.1 -27.35 Q0.15 -27.3 0.25 -27.25 L0.45 -27.2 0.75 -27.2 0.75 -27.25 0.9 -27.4 1.4 -27.4 1.5 -27.3 1.55 -27.2 1.65 -27.1 1.65 -27.05 1.7 -27.0 1.75 -26.85 1.85 -26.7 Q1.95 -26.6 2.05 -26.5 L2.1 -26.4 Q2.15 -26.4 2.2 -26.4 L2.5 -26.25 2.5 -26.2 2.6 -26.15 3.05 -26.0 3.15 -25.95 3.15 -25.9 3.2 -25.9 4.0 -26.0 4.05 -26.0 4.05 -26.2 4.2 -26.35 4.7 -26.35 4.9 -26.25 4.95 -26.25 4.95 -26.2 5.15 -25.95 5.15 -25.9 5.25 -25.8 5.25 -25.75 5.5 -25.5 5.6 -25.45 5.7 -25.35 5.7 -25.3 5.75 -25.25 5.8 -25.25 5.8 -25.2 5.95 -25.05 6.0 -24.95 6.0 -24.9 6.05 -24.85 6.05 -24.75 6.1 -24.7 6.1 -24.65 6.15 -24.6 6.45 -24.6 6.6 -24.65 6.9 -24.65 7.0 -24.6 7.1 -24.6 7.2 -24.5 7.2 -24.25 7.25 -24.2 7.25 -24.15 7.3 -24.1 7.35 -24.0 7.35 -23.95 7.4 -23.9 7.4 -23.85 7.45 -23.8 7.45 -23.75 7.5 -23.7 7.55 -23.6 7.55 -23.4 7.6 -23.35 7.6 -22.75 7.65 -22.7 7.65 -22.0 7.55 -21.9 7.5 -21.9 7.45 -21.85 7.45 -21.8 7.3 -21.65 7.45 -21.75 7.6 -21.9 7.65 -21.9 7.75 -21.95 7.8 -21.95 7.85 -22.0 7.85 -22.5 7.8 -22.55 7.8 -22.6 7.75 -22.7 7.75 -23.0 7.7 -23.05 7.7 -23.2 7.65 -23.25 7.65 -23.6 7.6 -23.65 7.6 -24.1 7.45 -24.25 7.45 -24.3 7.4 -24.35 Q7.35 -24.45 7.35 -24.5 L7.35 -25.0 7.3 -25.05 7.25 -25.05 7.05 -24.85 7.0 -24.85 6.9 -24.75 6.6 -24.75 6.45 -24.8 Q6.3 -24.9 6.25 -25.05 6.15 -25.15 6.0 -25.3 L5.85 -25.4 5.85 -25.65 5.8 -25.7 5.75 -25.7 5.75 -25.8 5.7 -25.85 5.6 -26.0 5.4 -26.15 5.35 -26.25 5.2 -26.4 5.15 -26.4 5.0 -26.55 4.9 -26.6 4.85 -26.65 4.75 -26.65 4.65 -26.75 4.6 -26.85 4.5 -26.95 4.4 -26.85 4.3 -26.85 4.1 -26.75 4.1 -26.65 4.05 -26.6 4.05 -26.5 4.0 -26.45 4.0 -26.35 3.95 -26.3 3.95 -26.25 3.9 -26.25 3.8 -26.2 3.75 -26.15 3.6 -26.1 3.55 -26.1 3.5 -26.05 3.35 -26.1 3.3 -26.1 3.15 -26.15 3.05 -26.2 3.0 -26.25 2.9 -26.25 2.8 -26.3 2.8 -26.35 2.65 -26.4 2.6 -26.4 2.5 -26.5 2.4 -26.55 2.25 -26.7 2.15 -26.75 2.05 -26.85 1.95 -26.9 1.85 -27.0 1.85 -27.05 1.8 -27.05 1.8 -27.1 1.7 -27.2 1.7 -27.25 1.65 -27.3 1.65 -27.6 1.6 -27.6 1.55 -27.65 1.45 -27.7 1.4 -27.65 1.25 -27.6 1.0 -27.6 0.9 -27.55 0.85 -27.5 0.85 -27.45 0.8 -27.4 0.75 -27.4 0.7 -27.35 0.55 -27.3 0.2 -27.3 0.15 -27.35 0.1 -27.35 M3.85 -22.95 L3.4 -22.95 3.55 -22.8 3.6 -22.8 3.65 -22.75 3.65 -22.7 3.75 -22.8 Q3.75 -22.9 3.85 -22.95 M4.6 -22.95 L4.95 -22.9 5.05 -22.9 5.35 -22.6 5.35 -22.5 5.4 -22.45 5.5 -22.45 5.65 -22.3 5.75 -22.25 5.95 -22.2 6.1 -22.15 6.15 -22.1 6.35 -22.0 6.5 -21.85 6.6 -21.85 6.9 -21.55 6.95 -21.55 6.95 -21.6 7.05 -21.65 6.85 -21.65 6.7 -21.8 6.7 -22.1 6.65 -22.1 6.45 -22.2 6.4 -22.2 6.35 -22.25 6.25 -22.25 6.2 -22.3 6.15 -22.3 5.95 -22.35 5.9 -22.4 5.85 -22.5 5.65 -22.7 5.55 -22.75 5.45 -22.85 5.45 -22.9 5.35 -22.95 5.2 -23.1 5.15 -23.2 5.1 -23.25 5.0 -23.25 4.95 -23.2 4.9 -23.2 4.8 -23.1 4.45 -23.05 4.55 -23.0 4.6 -22.95 M3.7 -22.4 L3.7 -22.1 3.65 -22.1 3.6 -22.05 3.6 -22.0 3.5 -21.95 3.35 -21.9 3.35 -21.85 3.2 -21.85 3.1 -21.9 3.0 -21.9 2.9 -21.85 2.8 -21.85 2.7 -21.9 2.6 -21.9 2.1 -21.85 Q1.8 -21.8 1.55 -21.7 L1.2 -21.7 1.0 -21.9 1.0 -22.05 0.95 -22.1 0.95 -22.35 0.9 -22.4 0.8 -22.3 0.65 -22.3 0.7 -22.25 0.75 -22.15 0.8 -22.1 0.8 -21.95 0.85 -21.9 0.85 -21.75 0.9 -21.75 0.95 -21.7 0.95 -21.65 1.6 -21.65 1.7 -21.7 2.1 -21.75 2.35 -21.75 2.45 -21.7 2.45 -21.65 2.5 -21.6 2.6 -21.55 2.7 -21.6 2.75 -21.65 2.8 -21.65 2.9 -21.7 3.1 -21.7 3.2 -21.65 3.25 -21.65 3.35 -21.6 3.4 -21.6 3.45 -21.55 3.5 -21.6 3.6 -21.65 3.7 -21.75 3.7 -21.9 3.75 -21.95 3.75 -22.3 3.7 -22.35 3.7 -22.4 M0.95 -11.45 L0.9 -11.35 0.8 -11.2 0.6 -11.05 0.5 -11.0 0.4 -11.0 0.35 -10.95 0.25 -10.9 -0.15 -10.9 -0.2 -10.95 -0.2 -11.75 -0.15 -11.8 -0.15 -11.9 -0.2 -11.95 -0.2 -12.05 -0.45 -12.3 -0.45 -12.65 -0.5 -12.7 -0.5 -12.8 -0.55 -12.75 -0.75 -12.75 -1.1 -12.8 -1.2 -12.9 -1.25 -13.0 -1.25 -13.2 -1.2 -13.25 -1.25 -13.3 -1.25 -13.4 -1.2 -13.45 -1.2 -13.55 -1.15 -13.6 -1.15 -13.65 -1.1 -13.7 -1.1 -13.75 -1.35 -13.8 -1.5 -13.8 -1.5 -13.75 -1.55 -13.7 -1.55 -13.55 -1.5 -13.5 -1.5 -13.2 -1.55 -13.15 -1.55 -12.35 -1.6 -12.3 -1.55 -12.25 -1.5 -12.25 -1.4 -12.2 -1.4 -12.3 -1.35 -12.35 -0.95 -12.35 -0.85 -12.4 -0.7 -12.25 -0.7 -12.2 -0.6 -12.1 -0.6 -12.05 -0.55 -12.0 -0.55 -11.95 -0.5 -11.9 -0.5 -11.25 -0.55 -11.2 -0.55 -11.0 -0.6 -10.95 -0.6 -10.8 -0.55 -10.75 -0.55 -10.7 -0.5 -10.7 Q-0.45 -10.7 -0.45 -10.75 L-0.2 -10.75 -0.05 -10.7 0.25 -10.7 0.35 -10.75 0.55 -10.8 0.6 -10.8 0.65 -10.85 0.75 -10.9 0.95 -11.1 1.05 -11.15 1.1 -11.25 1.45 -11.25 1.65 -11.05 1.65 -11.0 1.7 -11.0 1.7 -11.2 1.6 -11.25 1.55 -11.3 1.55 -11.35 1.5 -11.4 1.45 -11.4 1.45 -11.45 1.35 -11.45 1.3 -11.5 1.3 -11.55 1.25 -11.55 1.15 -11.6 1.05 -11.6 0.95 -11.45 M1.85 -10.55 L1.9 -10.45 1.9 -10.4 2.05 -10.25 2.05 -9.75 1.95 -9.65 2.05 -9.65 2.25 -9.75 2.3 -9.75 2.4 -9.85 2.4 -9.95 2.35 -10.0 Q2.25 -10.05 2.2 -10.15 L2.1 -10.3 1.85 -10.55 M0.5 -9.65 L0.45 -9.6 0.45 -9.5 0.5 -9.45 0.5 -9.35 0.6 -9.25 0.6 -9.15 0.65 -9.1 0.65 -9.0 0.7 -8.95 0.7 -8.9 0.75 -8.85 0.75 -8.7 0.8 -8.6 0.8 -8.25 0.85 -8.25 Q0.9 -8.3 1.0 -8.35 L1.1 -8.45 1.1 -8.55 1.15 -8.6 1.15 -8.85 1.0 -8.9 0.9 -9.0 0.9 -9.35 0.95 -9.4 1.05 -9.45 1.1 -9.5 1.2 -9.55 1.5 -9.65 1.55 -9.65 1.55 -9.7 1.4 -9.65 0.9 -9.65 0.85 -9.7 0.7 -9.7 0.55 -9.65 0.5 -9.65 M-33.7 -20.95 L-33.75 -20.9 -33.75 -20.85 -33.8 -20.8 -33.85 -20.7 -33.9 -20.65 -33.95 -20.55 -33.95 -20.5 -34.05 -20.4 -34.1 -20.4 -34.15 -20.35 -34.25 -20.3 -34.25 -20.25 -34.3 -20.2 -34.3 -20.1 -34.35 -20.05 -34.35 -20.0 -34.4 -20.0 -34.6 -19.8 -34.6 -19.75 -34.65 -19.7 -34.7 -19.6 -34.7 -19.55 -34.6 -19.55 -34.4 -19.75 Q-34.35 -19.8 -34.3 -19.85 L-34.2 -20.0 -34.0 -20.2 -33.9 -20.25 Q-33.85 -20.4 -33.65 -20.5 L-33.5 -20.55 -33.35 -20.65 -33.3 -20.7 -33.15 -20.7 -33.05 -20.65 -32.9 -20.5 -32.55 -20.5 -32.5 -20.55 -32.4 -20.6 -32.35 -20.6 -32.25 -20.65 -32.25 -20.7 -32.35 -20.65 -32.95 -20.65 -33.05 -20.7 -33.1 -20.7 -33.15 -20.75 -33.35 -20.75 -33.45 -20.85 -33.5 -20.85 -33.6 -20.9 -33.65 -20.95 -33.7 -20.95 M-30.0 -22.35 L-29.65 -22.35 -29.55 -22.3 -29.5 -22.25 -29.3 -22.25 -29.25 -22.3 -29.15 -22.35 -29.1 -22.35 -29.1 -22.5 -28.95 -22.65 -28.8 -22.7 -28.45 -22.9 -28.2 -22.9 -28.15 -22.85 -28.15 -22.8 -28.1 -22.75 -27.95 -22.75 -27.9 -22.7 -27.8 -22.65 -27.7 -22.65 -27.55 -22.5 -27.55 -22.45 -27.5 -22.4 -27.4 -22.35 -27.4 -22.3 -27.3 -22.2 -27.3 -22.0 -27.25 -22.0 -27.2 -21.95 -27.2 -22.0 -27.25 -22.1 -27.3 -22.15 -27.3 -22.2 -27.35 -22.3 -27.35 -22.35 -27.45 -22.4 -27.5 -22.45 -27.6 -22.6 -27.8 -22.8 -27.85 -22.8 -27.9 -22.85 -27.95 -22.95 -28.0 -23.0 -28.05 -23.1 -28.1 -23.1 -28.2 -23.15 -28.25 -23.2 -28.65 -23.2 -28.75 -23.25 -29.15 -23.25 -29.15 -23.05 -29.2 -23.0 -29.2 -22.95 -29.25 -22.9 -29.25 -22.8 -29.3 -22.75 -29.3 -22.7 -29.4 -22.6 -29.5 -22.55 -30.35 -22.55 -30.4 -22.6 -30.4 -22.65 -30.5 -22.65 -30.6 -22.6 -30.65 -22.55 -30.75 -22.55 -30.85 -22.5 -31.15 -22.45 -31.6 -22.45 -31.65 -22.5 -31.75 -22.45 -31.75 -22.35 -31.8 -22.3 -31.8 -22.2 Q-31.45 -22.3 -31.05 -22.4 -30.85 -22.4 -30.65 -22.55 L-30.45 -22.55 -30.2 -22.5 -30.1 -22.45 -30.05 -22.45 -30.0 -22.4 -30.0 -22.35 M-32.0 -22.1 L-32.25 -22.05 -32.3 -22.0 -32.3 -21.9 -32.25 -21.85 -32.25 -21.8 -32.2 -21.75 -32.2 -21.7 -32.15 -21.65 -32.15 -21.6 -32.1 -21.55 -32.1 -21.65 -32.05 -21.7 -32.05 -21.95 -32.0 -22.0 -32.0 -22.1 M-7.0 -27.55 L-7.15 -27.6 -7.2 -27.6 -7.2 -27.55 -7.25 -27.5 -7.6 -27.45 -7.7 -27.4 -7.9 -27.4 -7.95 -27.35 -8.05 -27.35 -8.1 -27.3 -8.2 -27.3 -8.3 -27.25 -8.35 -27.2 -8.4 -27.2 -8.5 -27.15 -8.55 -27.15 -8.75 -27.1 -8.8 -27.1 -8.9 -27.05 -8.95 -27.05 -9.05 -26.95 -9.15 -26.9 -9.35 -26.9 -9.45 -26.85 -9.65 -26.85 -9.75 -26.95 -9.75 -27.0 -9.9 -27.15 -10.15 -27.2 -10.45 -27.25 -10.5 -27.3 -10.85 -27.3 -10.9 -27.25 -11.1 -27.25 -11.2 -27.2 -11.3 -27.25 -11.35 -27.3 -11.35 -27.45 -11.4 -27.4 -11.7 -27.35 -11.75 -27.35 -12.35 -27.3 -12.45 -27.2 -12.45 -27.1 -12.5 -27.05 -12.5 -27.0 -12.55 -26.95 -12.55 -26.9 -12.6 -26.9 -12.6 -26.65 -12.65 -26.6 -12.65 -26.5 -12.7 -26.45 -12.7 -26.35 -12.75 -26.3 -12.75 -26.2 -12.7 -26.15 -12.6 -26.1 -12.55 -26.05 -12.55 -26.0 -12.5 -25.95 -12.5 -25.35 -12.4 -25.25 -12.4 -25.2 -12.35 -25.15 -12.35 -25.05 -12.3 -25.0 -12.3 -24.9 -12.25 -24.85 -12.2 -24.85 -12.2 -24.2 -12.25 -24.15 -12.25 -24.1 -12.3 -24.05 -12.3 -23.95 -12.35 -23.9 -12.35 -23.85 -12.4 -23.8 -12.4 -23.6 -12.45 -23.55 -12.45 -23.45 -12.5 -23.4 -12.5 -23.35 -12.55 -23.3 -12.6 -23.2 -12.6 -23.15 -12.65 -23.15 -12.65 -23.05 -12.7 -23.0 -12.7 -22.95 -12.75 -22.9 -12.75 -22.85 -12.8 -22.8 -12.8 -22.75 -12.9 -22.65 -12.9 -22.6 -12.95 -22.55 -12.95 -22.45 -13.0 -22.4 -13.0 -22.25 -13.05 -22.2 -13.05 -22.15 -13.1 -22.1 -13.1 -22.05 -13.15 -22.05 -13.15 -21.95 -13.2 -21.9 -13.2 -21.65 -13.1 -21.55 -13.1 -21.5 -13.05 -21.45 -13.05 -21.55 -13.0 -21.6 -13.0 -21.65 -12.95 -21.65 -12.95 -21.95 -12.85 -22.05 -12.75 -22.2 -12.7 -22.25 -12.7 -22.35 -12.65 -22.35 -12.65 -22.4 -12.6 -22.5 -12.5 -22.6 -12.5 -22.7 -12.45 -22.75 -12.45 -22.85 -12.4 -22.9 -12.4 -23.3 -12.35 -23.35 -12.35 -23.55 -12.3 -23.6 -12.3 -23.7 -12.25 -23.75 -12.25 -23.95 -12.2 -24.0 -12.2 -24.25 -12.15 -24.3 -12.15 -24.35 -12.1 -24.4 -12.1 -24.5 -12.05 -24.55 -12.05 -25.1 -12.1 -25.1 -12.1 -25.15 -12.2 -25.25 -12.25 -25.35 -12.25 -25.45 -12.3 -25.45 -12.3 -25.5 -12.35 -25.55 -12.35 -25.8 -12.4 -25.85 -12.4 -26.65 -12.3 -26.75 -12.3 -26.8 -12.2 -26.9 -12.2 -27.0 -12.15 -27.05 -12.15 -27.1 -12.1 -27.15 -11.85 -27.15 -11.55 -27.05 -11.0 -27.05 -10.9 -27.1 -10.45 -27.1 -10.35 -27.05 -10.3 -27.05 -10.25 -27.0 -10.25 -26.9 -10.15 -26.85 -10.05 -26.75 -10.0 -26.65 -9.95 -26.6 -9.95 -26.45 -10.0 -26.4 -10.0 -26.35 -9.8 -26.4 Q-9.7 -26.45 -9.55 -26.5 L-9.5 -26.5 -9.15 -26.55 -9.1 -26.6 -9.05 -26.6 -8.95 -26.65 -8.8 -26.7 Q-8.7 -26.75 -8.55 -26.85 L-8.45 -26.95 -8.3 -27.0 -8.05 -27.1 -7.95 -27.2 -7.8 -27.25 -7.45 -27.35 -7.25 -27.35 -7.15 -27.3 -6.95 -27.25 -6.8 -27.15 -6.7 -27.05 -6.65 -27.05 -6.55 -27.1 -6.55 -27.15 -6.5 -27.2 -6.4 -27.2 -6.25 -27.35 Q-6.15 -27.45 -6.0 -27.5 L-5.95 -27.55 Q-5.8 -27.55 -5.7 -27.65 L-5.5 -27.75 Q-5.45 -27.9 -5.4 -27.95 -5.25 -28.1 -5.15 -28.25 L-5.1 -28.3 -5.1 -28.4 -5.05 -28.45 -4.95 -28.5 -4.9 -28.5 -4.8 -28.6 -4.7 -28.6 -4.7 -28.65 -4.55 -28.65 -4.5 -28.6 -4.3 -28.7 -4.2 -28.7 -4.15 -28.75 -3.95 -28.75 -3.85 -28.85 -3.8 -28.85 -3.2 -28.95 -3.05 -28.95 -2.95 -29.0 -2.85 -29.0 -2.5 -29.1 -1.95 -29.1 -1.75 -29.0 -1.7 -29.0 -1.65 -28.95 -1.55 -28.95 -1.8 -29.2 -1.85 -29.2 -2.0 -29.35 -2.0 -29.5 -2.15 -29.5 -2.25 -29.55 -2.3 -29.6 -2.4 -29.6 -2.45 -29.55 -2.45 -29.5 -2.55 -29.4 -2.7 -29.3 -2.75 -29.25 -2.8 -29.25 -2.85 -29.2 -2.95 -29.2 -2.95 -29.15 -3.05 -29.1 -3.1 -29.1 -3.25 -29.05 -3.95 -29.0 -4.05 -28.95 -4.1 -28.9 -4.2 -28.9 -4.25 -28.85 -4.45 -28.75 -4.5 -28.75 -4.6 -28.7 -4.7 -28.7 -4.75 -28.65 -4.9 -28.65 -4.95 -28.6 -5.05 -28.6 -5.1 -28.55 -5.2 -28.5 -5.25 -28.45 -5.3 -28.45 -5.4 -28.4 -5.5 -28.3 -5.6 -28.25 -5.65 -28.2 -5.75 -28.15 -5.85 -28.05 -5.85 -28.0 -6.1 -28.0 -6.2 -27.9 -6.2 -27.6 -6.25 -27.6 -6.25 -27.55 -6.3 -27.5 -6.3 -27.45 -6.4 -27.35 -6.85 -27.35 -7.0 -27.5 -7.0 -27.55 M-0.75 -28.55 L-0.7 -28.55 -0.75 -28.6 -0.8 -28.6 -0.75 -28.55 M-0.35 -27.85 L-0.4 -27.8 -0.4 -27.75 -0.25 -27.6 -0.25 -27.65 -0.3 -27.7 -0.3 -27.75 -0.35 -27.8 -0.35 -27.85 M-0.1 -27.4 L-0.1 -27.4 M-13.45 -20.45 L-13.55 -20.35 -13.55 -20.1 -13.6 -20.05 -13.6 -20.0 -13.65 -20.0 -13.7 -19.95 -13.8 -19.9 -13.8 -19.85 -14.15 -19.85 -14.2 -19.9 -14.2 -19.95 -14.25 -19.95 -14.3 -20.0 -14.35 -20.0 -14.45 -20.1 -14.5 -20.1 -14.6 -20.15 -14.7 -20.15 -14.7 -20.0 -14.75 -19.95 -14.75 -19.65 -14.8 -19.6 -14.8 -19.55 -14.85 -19.5 -14.85 -18.3 -14.8 -18.25 -14.8 -18.15 -14.75 -18.05 -14.75 -17.55 -14.7 -17.5 -14.7 -17.45 -14.65 -17.4 -14.6 -17.3 -14.6 -17.2 -14.45 -17.05 -14.4 -17.05 -14.25 -17.1 -14.05 -17.1 -14.15 -17.15 -14.15 -17.2 -14.35 -17.4 -14.35 -17.45 -14.4 -17.5 -14.4 -17.55 -14.5 -17.65 -14.5 -17.7 -14.55 -17.7 -14.55 -17.9 -14.6 -17.95 -14.6 -18.05 -14.65 -18.1 -14.65 -18.8 -14.6 -18.85 -14.6 -19.1 -14.55 -19.1 -14.55 -19.15 -14.5 -19.25 -14.5 -19.4 -14.45 -19.4 -14.45 -19.5 -14.35 -19.6 -14.25 -19.6 -14.2 -19.55 -14.1 -19.55 -13.95 -19.4 -13.95 -19.3 -13.8 -19.3 -13.7 -19.35 -13.6 -19.35 -13.45 -19.45 -13.45 -19.7 -13.4 -19.75 -13.4 -19.9 -13.35 -20.0 -13.35 -20.5 -13.3 -20.55 -13.2 -20.6 Q-13.15 -20.65 -13.1 -20.75 L-13.1 -20.8 -13.2 -20.7 -13.3 -20.65 -13.45 -20.5 -13.45 -20.45 M-13.05 -20.95 L-13.1 -20.95 -13.1 -20.9 -13.05 -20.95 M-3.8 -20.7 L-3.85 -20.65 -3.9 -20.65 -3.9 -20.6 -3.85 -20.65 -3.8 -20.65 -3.8 -20.7 M-3.75 -20.8 L-3.6 -20.8 -3.5 -20.85 -3.45 -20.9 -3.45 -20.95 -3.4 -21.05 -3.3 -21.1 -3.25 -21.15 -3.25 -21.2 -3.2 -21.25 -3.2 -21.35 -3.15 -21.4 -3.1 -21.5 -3.05 -21.55 -3.05 -21.75 -2.95 -21.8 -2.75 -22.0 -2.65 -22.0 -2.65 -22.05 -2.45 -22.05 -2.35 -22.0 -2.25 -22.0 -2.3 -22.05 -2.35 -22.15 -2.35 -22.35 -2.6 -22.35 -2.75 -22.3 -2.8 -22.25 -2.85 -22.25 -2.95 -22.2 -2.95 -22.15 -3.0 -22.1 -3.05 -22.1 -3.05 -22.0 -3.1 -21.95 -3.1 -21.85 -3.15 -21.8 Q-3.2 -21.75 -3.25 -21.75 L-3.3 -21.75 -3.3 -21.9 -3.35 -21.95 -3.35 -22.0 -3.5 -21.85 -3.4 -21.75 -3.4 -21.4 Q-3.4 -21.3 -3.45 -21.25 L-3.45 -21.2 -3.5 -21.15 -3.6 -21.1 -3.65 -21.0 -3.65 -20.9 -3.7 -20.85 -3.7 -20.8 -3.75 -20.8 M-5.6 -19.4 L-5.6 -19.35 -5.65 -19.3 -5.65 -19.25 -5.6 -19.2 -5.45 -19.2 -5.45 -19.3 -5.4 -19.4 -5.3 -19.55 -5.25 -19.6 -5.1 -19.9 -5.15 -19.9 -5.4 -19.85 -5.4 -19.6 -5.6 -19.4 M-4.65 -18.95 L-4.6 -18.9 -4.6 -18.8 -4.35 -18.75 -4.25 -18.7 -4.05 -18.55 Q-3.9 -18.5 -3.85 -18.4 L-3.8 -18.35 -3.8 -18.2 Q-3.5 -18.15 -3.2 -18.25 L-3.15 -18.25 -2.85 -18.2 -2.75 -18.2 -2.65 -18.1 -2.65 -18.0 -2.6 -17.95 -2.55 -17.95 -2.35 -18.05 -2.05 -18.05 -2.15 -18.1 -2.2 -18.15 -2.2 -18.2 -2.25 -18.25 -3.3 -18.3 -3.5 -18.4 -3.55 -18.45 -3.55 -18.5 -3.65 -18.55 -3.7 -18.6 -4.0 -18.6 -4.1 -18.7 -4.15 -18.7 -4.2 -18.75 -4.3 -18.75 -4.4 -18.8 -4.5 -18.9 -4.5 -18.95 -4.6 -19.05 -4.85 -19.05 -4.75 -19.0 -4.7 -19.0 -4.65 -18.95 M-0.55 -21.8 L-0.25 -21.8 -0.25 -22.0 -0.3 -22.05 -0.35 -22.05 -0.45 -22.0 -0.45 -21.95 -0.6 -21.8 -0.55 -21.8 M-0.8 -21.6 L-0.75 -21.65 -0.75 -21.7 -0.7 -21.75 -0.9 -21.7 Q-1.1 -21.65 -1.25 -21.6 L-1.5 -21.6 -1.55 -21.65 -1.85 -21.65 -1.9 -21.7 -2.0 -21.75 -1.9 -21.65 -1.9 -21.6 -1.8 -21.55 -1.75 -21.5 -1.55 -21.45 -1.45 -21.45 -1.4 -21.4 -0.85 -21.4 -0.8 -21.45 -0.8 -21.6 M-1.0 -18.15 L-1.4 -18.1 -1.6 -18.05 -1.35 -18.05 -1.15 -17.95 -1.1 -17.9 -1.0 -17.85 -0.95 -17.8 -0.8 -17.8 -0.7 -17.75 -0.6 -17.65 -0.6 -17.4 -0.75 -17.25 -0.75 -17.15 -0.8 -17.1 -0.85 -17.0 -0.9 -17.0 -0.9 -16.65 -1.05 -16.5 -1.25 -16.45 Q-1.4 -16.4 -1.5 -16.3 L-1.55 -16.25 -1.55 -16.05 -1.5 -16.0 -1.5 -15.85 -1.45 -15.8 -1.0 -15.75 -0.95 -15.7 -0.85 -15.65 -0.8 -15.6 -0.8 -15.55 -0.75 -15.5 -0.75 -15.45 -0.7 -15.4 -0.65 -15.4 -0.65 -15.3 -0.6 -15.25 -0.6 -15.05 -0.55 -15.05 -0.55 -14.7 -0.5 -14.65 -0.5 -14.45 -0.45 -14.4 -0.45 -14.35 -0.4 -14.3 -0.4 -14.0 -0.45 -13.95 -0.45 -13.85 -0.5 -13.75 -0.6 -13.65 Q-0.6 -13.6 -0.7 -13.55 L-0.5 -13.55 -0.3 -13.75 -0.3 -14.2 -0.2 -14.3 -0.2 -14.45 -0.15 -14.5 -0.15 -14.95 -0.1 -15.0 -0.1 -15.3 -0.15 -15.35 -0.15 -15.4 -0.2 -15.45 -0.3 -15.5 -0.35 -15.55 -0.4 -15.55 -0.55 -15.7 -0.65 -15.7 -0.7 -15.75 -0.8 -15.75 -0.9 -15.85 -0.9 -16.15 -0.85 -16.2 -0.85 -16.4 -0.75 -16.5 -0.7 -16.6 -0.65 -16.65 -0.6 -16.8 -0.5 -16.85 -0.5 -17.05 -0.45 -17.1 -0.45 -17.15 -0.4 -17.2 -0.4 -17.4 -0.45 -17.45 -0.45 -17.5 -0.5 -17.55 -0.5 -17.6 -0.55 -17.65 -0.65 -17.7 -0.65 -17.75 -0.7 -17.8 -0.8 -17.95 -0.8 -18.0 -0.85 -18.1 -0.95 -18.2 -1.0 -18.15 M-26.45 -21.55 L-26.5 -21.5 -26.55 -21.5 -26.55 -21.45 -26.45 -21.35 -25.95 -21.4 -26.05 -21.4 -26.1 -21.45 -26.1 -21.5 -26.2 -21.5 -26.25 -21.55 -26.45 -21.55 M-26.2 -18.8 L-26.15 -18.85 -26.35 -18.85 -26.4 -18.8 -26.4 -18.5 -26.25 -18.35 -26.25 -18.3 -26.2 -18.25 -26.2 -18.2 -26.15 -18.15 -26.05 -18.1 -26.0 -18.1 -26.0 -18.2 -26.15 -18.3 -26.2 -18.3 -26.2 -18.35 -26.25 -18.4 -26.25 -18.7 -26.2 -18.75 -26.2 -18.8 M-24.05 -21.3 L-24.1 -21.35 -24.25 -21.4 -24.3 -21.4 -24.55 -21.45 -24.6 -21.5 -24.65 -21.5 -24.75 -21.55 -24.75 -21.6 -24.85 -21.6 -24.95 -21.7 -25.15 -21.7 -25.2 -21.65 -25.25 -21.65 -25.25 -21.6 -25.35 -21.55 -25.4 -21.5 -25.5 -21.45 -25.55 -21.4 -25.6 -21.4 -25.7 -21.35 -25.55 -21.35 -25.45 -21.4 -25.35 -21.4 -25.3 -21.45 -25.25 -21.45 -25.05 -21.55 -24.75 -21.55 -24.65 -21.5 -24.55 -21.4 -24.55 -21.35 -24.45 -21.4 -24.25 -21.4 -24.2 -21.35 -24.1 -21.3 -24.05 -21.3 M-23.35 -20.7 L-23.35 -20.6 -23.45 -20.5 -23.55 -20.45 -23.6 -20.4 -23.7 -20.35 -23.95 -20.35 -23.95 -20.3 -23.85 -20.25 -23.4 -20.35 -23.4 -20.45 -23.35 -20.5 -23.35 -20.55 -23.3 -20.6 -23.3 -20.65 -23.25 -20.7 -23.3 -20.7 -23.3 -20.75 -23.35 -20.75 -23.35 -20.7 M-24.2 -19.6 L-24.2 -19.7 -24.25 -19.7 -24.25 -19.55 -24.2 -19.6 M-24.25 -19.35 L-24.25 -19.4 -24.35 -19.2 -24.3 -19.25 -24.3 -19.3 -24.25 -19.35 M-24.4 -19.2 L-24.45 -19.1 -24.5 -19.1 -24.55 -19.05 -24.5 -19.05 -24.45 -19.1 -24.45 -19.15 -24.4 -19.2 M-17.25 -15.1 L-17.35 -15.05 -17.4 -15.0 -17.5 -14.95 -17.55 -14.85 -17.65 -14.75 -17.65 -14.5 -17.5 -14.65 -17.3 -14.75 -17.15 -14.8 -16.8 -14.8 -16.5 -15.1 -16.3 -15.15 -15.65 -15.15 -15.55 -15.2 -14.9 -15.2 -14.8 -15.15 -14.75 -15.05 -14.6 -14.95 -14.55 -14.95 -14.4 -14.8 -14.4 -14.65 -14.25 -14.7 -14.25 -14.75 -14.2 -14.75 -14.2 -14.85 -14.15 -14.9 -14.15 -14.95 -14.05 -15.05 Q-13.9 -15.2 -13.85 -15.35 L-13.7 -15.5 -13.6 -15.65 -13.6 -15.75 -13.55 -15.8 -13.55 -16.4 -13.5 -16.45 -13.5 -16.8 -13.45 -16.8 -13.45 -16.85 -13.4 -16.9 -13.4 -17.0 -13.65 -17.0 -13.65 -16.95 -13.6 -16.9 -13.6 -16.5 -13.7 -16.4 -13.7 -16.25 -13.75 -16.2 -13.75 -16.1 -13.8 -16.1 -13.8 -16.0 -13.9 -15.85 -13.9 -15.8 -13.95 -15.75 -14.0 -15.75 -14.0 -15.7 -14.05 -15.6 -14.05 -15.55 -14.15 -15.5 -14.1 -15.45 -14.1 -15.25 -14.2 -15.15 -14.4 -15.15 -14.55 -15.2 -14.55 -15.25 -15.0 -15.25 -15.1 -15.3 -15.25 -15.45 -15.3 -15.45 -15.6 -15.55 Q-15.9 -15.45 -16.15 -15.4 L-16.45 -15.35 -16.55 -15.3 -16.7 -15.25 -17.05 -15.2 Q-17.1 -15.15 -17.15 -15.15 L-17.25 -15.1 M-18.2 -14.05 L-18.45 -14.05 -18.65 -14.15 -18.8 -14.2 -19.2 -14.2 -19.3 -14.3 -19.3 -14.35 -19.35 -14.35 -19.35 -14.4 -19.4 -14.45 -19.5 -14.6 -19.6 -14.6 -19.65 -14.65 -20.45 -14.6 -20.55 -14.6 -20.65 -14.55 -20.95 -14.55 -20.95 -14.3 -21.05 -14.2 -21.3 -14.2 -21.55 -14.15 -21.6 -14.15 -21.5 -14.05 -21.5 -14.0 -21.3 -14.0 -21.2 -13.9 -21.1 -13.95 -20.95 -14.1 -20.9 -14.2 -20.9 -14.25 -20.85 -14.25 -20.8 -14.3 -20.7 -14.35 -20.5 -14.4 -20.4 -14.4 -20.3 -14.35 -20.25 -14.35 -20.15 -14.25 -19.75 -14.25 -19.65 -14.2 -19.6 -14.15 -19.6 -14.1 -19.55 -14.05 -19.55 -13.95 -19.6 -13.9 -19.6 -13.85 -19.3 -13.9 -18.1 -13.9 -18.0 -14.0 -18.0 -14.05 -17.95 -14.1 -18.15 -14.05 -18.2 -14.05 M-22.2 -14.25 L-22.25 -14.3 -22.3 -14.3 -22.75 -14.25 -22.8 -14.25 -22.8 -14.2 -22.75 -14.15 -22.75 -14.1 -22.7 -14.05 -22.7 -13.75 -22.65 -13.8 -22.55 -13.85 -22.5 -13.9 -22.5 -13.95 -22.35 -14.1 -22.25 -14.15 -22.2 -14.15 -21.95 -14.2 -22.0 -14.2 -22.1 -14.25 -22.2 -14.25 M-25.9 -17.9 L-25.9 -17.85 -25.85 -17.8 -25.85 -17.85 -25.9 -17.9 M-25.8 -14.85 L-25.8 -14.9 -25.85 -14.95 -25.85 -14.6 -25.95 -14.5 -25.95 -14.45 -26.0 -14.4 -26.0 -14.25 -26.05 -14.2 -26.05 -14.15 -26.15 -14.05 -26.1 -13.95 -26.0 -13.85 -26.0 -13.8 -25.95 -13.75 -25.95 -13.7 -25.55 -13.7 -25.55 -13.75 -25.45 -13.75 -25.4 -13.8 -25.25 -13.8 -25.15 -13.85 -25.05 -13.85 -24.85 -13.75 -24.75 -13.65 -24.7 -13.65 -24.7 -13.6 -24.65 -13.55 -24.65 -13.4 -24.6 -13.35 -24.55 -13.35 -24.55 -13.3 -24.5 -13.25 -24.5 -13.15 -24.45 -13.1 -24.45 -13.05 -24.4 -13.0 -24.35 -13.0 -24.35 -12.85 -24.4 -12.8 -23.7 -12.8 -23.3 -12.85 -23.2 -13.05 -23.1 -13.1 -23.05 -13.15 -22.95 -13.2 -22.85 -13.3 -22.85 -13.4 -22.8 -13.45 -22.8 -13.5 -22.9 -13.4 -23.0 -13.25 -23.0 -13.2 -23.05 -13.2 -23.1 -13.15 -23.2 -13.1 -23.6 -13.1 -24.25 -13.15 -24.3 -13.2 -24.4 -13.2 -24.5 -13.3 -24.55 -13.4 -24.6 -13.45 -24.7 -13.65 -24.75 -13.7 -24.75 -13.75 -24.8 -13.8 -24.8 -13.85 -24.95 -14.0 -25.5 -14.0 -25.7 -14.1 -25.7 -14.15 -25.75 -14.15 -25.8 -14.25 -25.8 -14.85 M-26.05 -16.85 L-26.05 -16.75 -26.0 -16.75 -26.0 -16.85 -26.05 -16.85 M-3.9 -12.15 L-3.9 -12.1 -3.85 -12.1 -3.75 -12.15 -3.65 -12.1 -3.65 -12.3 -3.6 -12.35 -3.6 -12.5 -3.55 -12.5 -3.55 -12.75 -3.6 -12.7 -3.6 -12.55 Q-3.6 -12.5 -3.6 -12.45 L-3.75 -12.25 -3.9 -12.15 M-4.0 -10.25 L-3.9 -10.2 -3.85 -10.15 -3.75 -10.1 -3.7 -10.05 -3.55 -10.0 -3.5 -10.0 -3.45 -9.95 -3.45 -10.0 -3.5 -10.05 -3.5 -10.1 -3.6 -10.2 -3.85 -10.2 -4.05 -10.3 -4.05 -10.25 -4.0 -10.25 M-2.45 -12.6 L-2.35 -12.6 -2.25 -12.5 -2.4 -12.6 -2.45 -12.65 -2.45 -12.6 M-3.3 -11.6 L-3.3 -11.55 -3.2 -11.45 -3.2 -11.25 -3.15 -11.3 -3.15 -11.4 -3.2 -11.45 -3.2 -11.5 -3.25 -11.5 -3.25 -11.55 -3.3 -11.6 M-3.2 -9.7 L-3.3 -9.75 -3.25 -9.7 -3.25 -9.55 -3.2 -9.5 -3.2 -9.0 -3.25 -8.95 -3.25 -8.9 -3.3 -8.85 -3.3 -8.65 -3.35 -8.6 -3.35 -8.55 -3.3 -8.5 -3.3 -8.35 -3.25 -8.3 -3.25 -8.25 -3.2 -8.25 -3.2 -8.15 -3.15 -8.1 -3.15 -8.3 -3.1 -8.35 -3.1 -8.55 -3.05 -8.6 -3.05 -8.85 -3.0 -8.9 -3.0 -9.0 -2.95 -9.05 -2.95 -9.6 -3.1 -9.6 -3.2 -9.7" fill="#8ce6e6" fill-opacity="0.7529412" fill-rule="evenodd" stroke="none"/>
  </g>
</svg>
