<?xml version="1.0" encoding="UTF-8" standalone="no"?>
<svg xmlns:ffdec="https://www.free-decompiler.com/flash" xmlns:xlink="http://www.w3.org/1999/xlink" ffdec:objectType="shape" height="1.45px" width="0.0px" xmlns="http://www.w3.org/2000/svg">
  <g transform="matrix(1.0, 0.0, 0.0, 1.0, 0.0, 0.9)">
    <path d="M0.0 -0.85 L0.0 -0.7 M0.0 -0.55 L0.0 -0.5 M0.0 -0.25 L0.0 -0.2 M0.0 -0.3 L0.0 -0.25 M0.0 -0.75 L0.0 -0.8 M0.0 -0.35 L0.0 -0.4 M0.0 -0.6 L0.0 -0.65 M0.0 0.35 L0.0 0.3 Q0.0 0.25 0.0 0.15 0.0 0.2 0.0 0.3 M0.0 0.5 L0.0 0.45 M0.0 0.35 Q0.0 0.45 0.0 0.5 M0.0 0.1 Q0.0 0.0 0.0 -0.15 M0.0 0.0 L0.0 0.05" fill="none" stroke="#ffffff" stroke-linecap="round" stroke-linejoin="round" stroke-opacity="0.101960786" stroke-width="0.0"/>
    <path d="M0.0 0.0 L0.0 0.0 M0.0 -0.4 L0.0 -0.25 Q0.0 -0.2 0.0 -0.25 L0.0 -0.3 Q0.0 -0.35 0.0 -0.4 0.0 -0.35 0.0 -0.3 0.0 -0.1 0.0 -0.15 0.0 0.0 0.0 0.05 L0.0 0.1 Q0.0 0.25 0.0 0.1 L0.0 0.15 Q0.0 0.0 0.0 -0.15 0.0 -0.3 0.0 -0.4 L0.0 -0.35 0.0 -0.4 M0.0 -0.25 L0.0 -0.3 Q0.0 -0.2 0.0 -0.15 0.0 -0.2 0.0 -0.25 M0.0 -0.2 L0.0 -0.2" fill="#ffffff" fill-opacity="0.4" fill-rule="evenodd" stroke="none"/>
  </g>
</svg>
