<?xml version="1.0" encoding="UTF-8" standalone="no"?>
<svg xmlns:ffdec="https://www.free-decompiler.com/flash" xmlns:xlink="http://www.w3.org/1999/xlink" ffdec:objectType="shape" height="23.6px" width="67.7px" xmlns="http://www.w3.org/2000/svg">
  <g transform="matrix(1.0, 0.0, 0.0, 1.0, 54.75, 30.15)">
    <path d="M0.9 -27.85 L0.95 -27.85 1.05 -27.9 1.2 -27.95 1.25 -28.0 1.35 -28.05 1.95 -28.05 2.55 -28.1 2.7 -28.1 2.8 -28.05 2.85 -28.0 3.1 -27.9 3.3 -27.7 3.3 -27.65 3.55 -27.4 3.85 -27.35 4.1 -27.2 4.45 -27.05 4.85 -26.9 5.2 -26.85 5.4 -26.8 5.4 -26.85 5.5 -26.95 5.5 -27.0 5.6 -27.1 5.6 -27.2 5.8 -27.3 5.9 -27.3 6.2 -27.45 6.9 -27.45 7.25 -27.4 7.35 -27.35 7.5 -27.3 7.55 -27.25 7.7 -27.25 7.9 -27.2 7.95 -27.15 8.1 -27.05 8.25 -27.0 8.3 -26.95 8.35 -26.95 8.65 -26.85 8.75 -26.8 8.85 -26.8 9.05 -26.7 9.2 -26.5 9.45 -26.3 9.65 -26.15 9.7 -26.1 9.7 -25.8 9.75 -25.8 9.75 -25.75 9.8 -25.7 9.8 -25.65 9.85 -25.6 9.95 -25.55 10.1 -25.55 10.25 -25.6 10.75 -25.6 11.65 -25.5 11.8 -25.45 11.9 -25.4 12.1 -25.2 12.15 -25.05 12.15 -24.6 12.2 -24.55 12.3 -24.5 12.4 -24.4 12.4 -24.3 12.45 -24.3 12.5 -24.25 12.5 -23.9 12.55 -23.85 12.55 -23.8 12.6 -23.7 12.6 -23.35 12.7 -23.25 12.7 -23.2 12.75 -23.15 12.75 -22.8 12.8 -22.75 12.8 -22.7 12.85 -22.65 12.85 -22.4 12.95 -22.3 12.95 -21.95 12.85 -21.85 12.85 -21.7 12.8 -21.65 12.7 -21.6 12.55 -21.55 12.25 -21.5 12.2 -21.45 12.1 -21.4 11.8 -21.35 11.55 -21.25 11.4 -21.25 11.3 -21.15 11.2 -21.15 11.1 -21.1 10.7 -21.1 10.6 -21.15 10.5 -21.15 10.3 -21.25 10.15 -21.3 10.05 -21.35 10.0 -21.4 9.9 -21.45 9.75 -21.5 9.7 -21.55 9.55 -21.6 9.45 -21.7 9.3 -21.7 9.25 -21.75 9.05 -21.75 9.0 -21.8 8.8 -21.8 8.65 -21.85 8.45 -21.95 8.35 -21.95 8.15 -22.05 8.0 -22.1 7.8 -22.2 7.75 -22.25 7.75 -22.35 7.65 -22.45 7.65 -22.5 6.9 -22.5 6.7 -22.4 6.7 -22.3 6.75 -22.25 6.8 -22.25 6.8 -22.2 6.85 -22.15 6.85 -21.95 6.8 -21.9 6.75 -21.9 6.6 -21.75 6.6 -21.7 6.45 -21.55 6.35 -21.5 6.2 -21.4 6.2 -21.35 6.15 -21.3 6.05 -21.25 6.0 -21.25 5.8 -21.15 5.75 -21.15 5.65 -21.1 5.35 -21.1 5.2 -21.15 4.95 -21.2 4.65 -21.3 4.6 -21.25 4.45 -21.2 4.35 -21.15 4.2 -21.1 3.9 -21.1 3.75 -21.15 3.45 -21.2 3.0 -21.25 2.65 -21.25 1.9 -21.2 1.7 -21.15 1.45 -21.15 1.15 -21.25 0.95 -21.35 0.9 -21.4 0.85 -21.4 0.75 -21.45 0.7 -21.5 0.7 -21.65 0.65 -21.7 0.65 -21.75 0.6 -21.75 0.6 -21.9 0.45 -22.05 0.3 -22.05 0.3 -21.5 0.2 -21.4 -0.1 -21.25 -0.6 -21.25 -0.8 -21.05 -0.9 -21.0 -1.05 -21.0 -1.15 -20.95 -2.55 -20.95 -2.65 -21.05 -2.8 -21.05 -3.1 -21.1 -3.25 -21.15 -3.35 -21.2 -3.45 -21.3 -3.65 -21.45 -3.7 -21.5 -3.7 -21.55 -4.0 -21.55 -4.0 -21.5 -3.95 -21.45 -3.95 -21.1 -3.85 -21.0 -3.85 -20.95 -4.05 -20.75 -4.15 -20.7 -4.3 -20.65 -4.35 -20.65 -4.65 -20.6 -4.75 -20.6 -4.8 -20.55 -5.05 -20.5 -5.1 -20.5 -5.2 -20.45 -5.25 -20.4 -5.4 -20.4 -5.5 -20.3 -5.6 -20.25 -5.6 -20.15 -5.65 -20.1 -5.75 -20.05 -6.05 -19.95 -6.1 -19.9 -6.2 -19.85 -6.45 -19.8 -6.55 -19.8 -6.7 -19.75 -6.8 -19.75 -6.8 -19.7 -7.0 -19.7 -7.05 -19.65 -7.15 -19.6 -7.2 -19.55 -7.1 -19.55 -6.95 -19.5 -6.85 -19.45 -6.7 -19.4 -6.5 -19.25 -6.4 -19.15 -6.25 -19.1 -5.95 -19.05 -5.5 -19.0 -5.1 -18.8 -5.05 -18.75 -3.3 -18.75 -3.1 -18.7 -3.05 -18.65 -2.95 -18.6 -2.85 -18.5 -2.85 -18.45 -2.75 -18.45 -2.65 -18.5 -2.25 -18.5 -2.15 -18.55 -2.0 -18.7 -1.8 -18.75 -1.75 -18.75 -1.55 -18.85 -1.2 -18.85 -1.05 -18.8 -0.75 -18.65 -0.7 -18.55 -0.6 -18.5 -0.55 -18.45 -0.55 -18.4 -0.5 -18.4 -0.5 -18.35 -0.3 -18.15 -0.15 -18.05 -0.05 -18.0 0.0 -17.95 0.15 -17.85 0.2 -17.75 0.2 -17.7 0.3 -17.65 0.4 -17.55 0.4 -17.1 -0.05 -16.65 -0.15 -16.6 -0.15 -16.5 -0.4 -16.25 -0.4 -16.15 -0.45 -16.1 -0.45 -16.05 -0.25 -15.95 -0.1 -15.8 0.2 -15.75 0.3 -15.7 0.4 -15.6 0.4 -15.55 0.45 -15.5 0.5 -15.3 0.5 -14.85 0.45 -14.85 0.45 -14.8 0.4 -14.7 0.4 -14.3 0.3 -14.2 0.3 -14.1 0.15 -13.95 0.15 -13.55 Q0.15 -13.5 0.05 -13.45 L-0.25 -13.25 -0.35 -13.15 -0.3 -13.15 -0.2 -13.05 -0.2 -13.0 -0.15 -12.95 -0.15 -12.9 -0.1 -12.85 -0.1 -12.75 -0.05 -12.7 -0.05 -12.45 0.0 -12.4 0.1 -12.35 0.15 -12.3 0.2 -12.3 0.2 -12.25 0.3 -12.2 0.4 -12.1 0.4 -11.7 0.35 -11.65 0.35 -11.6 0.3 -11.6 0.3 -11.35 0.35 -11.35 0.55 -11.45 0.7 -11.5 0.8 -11.55 0.85 -11.6 0.9 -11.6 1.0 -11.7 1.0 -11.75 1.05 -11.8 1.05 -11.9 1.1 -11.9 1.2 -12.0 1.35 -12.0 1.8 -12.05 2.1 -11.95 2.2 -11.95 2.35 -11.9 2.4 -11.85 2.45 -11.85 2.6 -11.8 2.7 -11.8 2.75 -11.75 2.9 -11.7 2.95 -11.65 3.05 -11.6 3.1 -11.55 3.2 -11.5 3.2 -11.45 3.3 -11.35 3.3 -10.95 Q3.35 -10.85 3.45 -10.8 L3.6 -10.75 3.75 -10.65 3.9 -10.5 4.1 -10.4 Q4.15 -10.35 4.25 -10.35 L4.25 -10.3 4.4 -10.15 4.4 -9.65 4.35 -9.6 4.05 -9.4 3.95 -9.4 3.85 -9.3 3.7 -9.3 3.4 -9.25 2.65 -9.25 2.45 -9.2 2.35 -9.15 2.4 -9.1 2.4 -8.95 2.45 -8.9 2.45 -8.85 2.5 -8.8 2.5 -8.7 2.45 -8.65 2.45 -8.6 2.4 -8.55 2.4 -8.4 2.3 -8.3 2.3 -8.25 2.1 -8.05 2.0 -8.0 1.95 -7.95 1.8 -7.9 1.75 -7.9 1.55 -7.85 1.45 -7.8 1.4 -7.8 1.25 -7.75 1.15 -7.65 1.05 -7.65 0.95 -7.55 0.7 -7.5 0.7 -7.45 0.65 -7.45 0.55 -7.4 0.25 -7.3 0.15 -7.25 0.05 -7.25 -0.05 -7.2 -0.3 -7.1 -0.4 -7.05 -0.45 -7.0 -0.55 -6.95 -0.6 -6.95 -0.7 -6.85 -0.7 -6.75 -0.75 -6.7 -0.8 -6.7 -0.8 -6.65 -0.95 -6.65 -1.05 -6.55 -1.1 -6.55 -1.2 -6.6 -1.25 -6.6 -1.2 -6.7 -1.2 -6.8 -1.15 -6.85 -1.15 -7.0 -1.1 -7.05 -1.1 -7.1 -0.85 -7.35 -0.7 -7.45 -0.6 -7.5 -0.45 -7.55 -0.4 -7.6 -0.35 -7.7 -0.2 -7.8 -0.05 -7.85 0.0 -7.9 0.05 -7.9 0.05 -7.95 0.35 -8.15 0.45 -8.25 0.55 -8.4 0.6 -8.45 0.6 -8.5 0.5 -8.6 0.5 -8.65 0.45 -8.7 0.45 -8.75 0.4 -8.8 0.4 -8.9 0.3 -9.0 0.3 -9.05 0.15 -9.2 0.15 -9.3 0.1 -9.3 0.0 -9.35 -0.15 -9.5 -0.15 -9.7 0.0 -9.85 0.15 -9.9 0.2 -9.95 0.3 -10.0 0.4 -10.0 0.7 -10.1 0.8 -10.1 1.2 -10.15 1.5 -10.15 1.6 -10.1 1.95 -10.1 2.45 -10.15 2.35 -10.25 2.3 -10.25 2.25 -10.35 2.15 -10.45 2.15 -10.55 2.1 -10.55 2.05 -10.6 2.05 -10.7 1.95 -10.8 1.85 -10.7 1.7 -10.6 1.35 -10.45 1.2 -10.4 0.6 -10.3 -0.45 -10.3 -0.55 -10.25 -1.25 -10.25 -1.3 -10.3 -1.4 -10.3 -1.4 -10.35 -1.55 -10.5 -1.6 -10.6 -1.6 -11.1 -1.55 -11.15 -1.55 -11.2 -1.5 -11.25 -1.5 -11.35 -1.4 -11.45 -1.4 -11.8 -1.5 -11.9 -1.5 -11.85 -1.6 -11.8 -1.8 -11.8 -1.9 -11.75 -2.35 -11.75 -2.7 -11.8 -2.8 -11.85 -3.1 -11.9 Q-3.3 -11.95 -3.5 -12.0 L-3.7 -12.05 -3.8 -12.1 -3.85 -12.15 -3.95 -12.15 -4.2 -12.3 -4.5 -12.5 -4.7 -12.7 -4.7 -12.8 -4.85 -12.75 -4.85 -12.35 -4.9 -12.3 -4.95 -12.3 -4.95 -12.25 -5.0 -12.2 -5.0 -12.15 Q-4.9 -12.05 -4.8 -11.95 -4.55 -11.85 -4.4 -11.7 L-4.25 -11.55 -4.25 -11.15 -4.3 -11.05 Q-4.4 -11.0 -4.5 -10.95 L-4.8 -10.75 -4.9 -10.7 -5.9 -10.65 -5.45 -10.65 -5.3 -10.6 -5.2 -10.55 -5.05 -10.45 -4.95 -10.4 -4.85 -10.3 -4.85 -10.25 -4.8 -10.2 -4.8 -10.15 -4.7 -10.1 -4.6 -10.1 -4.5 -10.05 -4.45 -10.0 -4.35 -10.0 -4.2 -9.95 -4.1 -9.9 -4.05 -9.85 -4.05 -9.8 -3.95 -9.7 -3.95 -9.55 -3.85 -9.45 -3.85 -9.3 -3.9 -9.25 -3.9 -9.2 -3.95 -9.15 -3.95 -8.85 -4.0 -8.85 -4.0 -8.8 -4.15 -8.65 -4.15 -8.45 -4.2 -8.4 -4.2 -8.35 -4.25 -8.3 -4.25 -8.25 -4.35 -8.15 -4.35 -8.05 -4.4 -8.0 -4.4 -7.95 -4.5 -7.85 -4.5 -7.8 -4.55 -7.75 -4.6 -7.75 -4.65 -7.7 -4.65 -7.65 -4.75 -7.55 -4.75 -7.5 -4.8 -7.45 -4.8 -7.35 -4.9 -7.25 -5.1 -7.25 -5.2 -7.3 -5.3 -7.4 -5.3 -7.5 -5.35 -7.55 -5.4 -7.55 -5.5 -7.65 -5.5 -7.8 -5.55 -7.85 -5.55 -7.9 -5.6 -7.9 -5.6 -7.95 -5.7 -8.05 -5.7 -8.1 -5.75 -8.2 -5.85 -8.25 -5.85 -8.85 -5.8 -8.9 -5.8 -9.0 -5.7 -9.1 -5.7 -9.2 -5.6 -9.3 -5.65 -9.3 -5.7 -9.35 -5.7 -9.4 -5.85 -9.55 -5.95 -9.6 -6.05 -9.6 -6.25 -9.7 -6.3 -9.75 -6.4 -9.75 -6.5 -9.8 -6.8 -9.85 -7.05 -9.9 -7.6 -9.9 -7.8 -10.0 -7.95 -10.1 -7.95 -10.5 -7.85 -10.6 -7.8 -10.7 -7.75 -10.75 -7.75 -10.8 -7.7 -10.85 -7.7 -11.1 -7.6 -11.2 -7.4 -11.35 -7.1 -11.45 -6.45 -11.45 -6.3 -11.4 -6.1 -11.4 Q-6.15 -11.55 -6.35 -11.65 -6.55 -11.75 -6.7 -11.9 L-6.8 -12.0 -6.8 -12.3 -6.7 -12.35 -6.5 -12.5 -6.35 -12.6 -6.3 -12.65 -6.3 -12.7 -6.25 -12.75 -6.25 -12.85 -6.15 -12.95 -6.15 -13.1 Q-6.1 -13.2 -5.9 -13.3 -5.7 -13.45 -5.5 -13.55 L-5.35 -13.65 -4.85 -13.65 -4.75 -13.6 -4.7 -13.55 -4.3 -13.55 -4.1 -13.5 Q-3.9 -13.4 -3.75 -13.25 -3.5 -13.0 -3.15 -12.9 L-3.05 -12.85 -3.05 -12.9 -3.15 -13.0 -3.15 -13.25 -3.05 -13.35 -3.1 -13.35 -3.1 -13.4 -3.15 -13.5 -3.15 -13.8 -2.95 -14.0 -2.95 -14.05 -2.85 -14.05 -2.75 -14.15 -2.55 -14.25 -1.9 -14.25 -1.75 -14.2 -1.5 -14.2 Q-1.45 -14.3 -1.45 -14.4 L-1.45 -14.45 -1.5 -14.5 -1.5 -14.85 -1.55 -14.9 -1.55 -14.95 -1.6 -14.95 -1.6 -15.05 -1.7 -15.15 -1.7 -15.2 -1.75 -15.25 -1.8 -15.25 -1.8 -15.3 -2.6 -15.35 -2.75 -15.45 -2.9 -15.6 -3.05 -15.7 -3.05 -15.95 -3.15 -16.05 -3.15 -16.35 Q-3.1 -16.5 -2.95 -16.6 -2.7 -16.75 -2.35 -16.85 L-2.15 -16.9 -2.05 -16.9 -2.15 -17.0 -2.15 -17.2 -2.1 -17.2 -2.4 -17.15 -2.8 -17.15 -2.85 -17.2 -2.95 -17.25 -2.95 -17.55 -2.9 -17.6 -3.55 -17.6 -3.75 -17.55 -3.95 -17.55 -4.1 -17.5 -4.3 -17.5 -4.45 -17.55 -4.55 -17.6 -4.7 -17.75 Q-4.7 -17.8 -4.9 -17.8 L-5.55 -17.75 -6.05 -17.75 -6.55 -17.95 -6.6 -18.0 -6.6 -18.15 -6.65 -18.2 -6.95 -18.3 -7.05 -18.3 -7.5 -18.35 -7.6 -18.4 -7.65 -18.4 -7.75 -18.45 -7.8 -18.5 -7.8 -18.6 -7.9 -18.7 -8.5 -18.75 -8.55 -18.75 -9.15 -18.8 -9.25 -18.85 -9.4 -19.0 -9.4 -19.05 -9.5 -19.15 -9.5 -19.45 -9.45 -19.55 Q-9.4 -19.65 -9.3 -19.7 L-9.15 -19.75 -9.05 -19.8 -9.05 -20.0 -9.0 -20.05 -9.0 -20.1 -8.85 -20.25 -8.8 -20.25 -8.0 -20.4 -7.75 -20.45 -7.7 -20.5 -7.55 -20.5 -7.45 -20.55 -7.4 -20.6 -7.3 -20.65 Q-7.25 -20.65 -7.2 -20.7 L-7.1 -20.8 -6.95 -20.85 -6.75 -20.95 -6.45 -21.15 -6.3 -21.15 -6.3 -21.2 -6.25 -21.25 -6.15 -21.3 -5.95 -21.5 -6.0 -21.55 -6.0 -21.6 -6.05 -21.65 -6.05 -22.0 -5.95 -22.1 -5.95 -22.15 -5.9 -22.2 -5.85 -22.2 -5.75 -22.25 -5.7 -22.3 -5.65 -22.3 -5.45 -22.4 -5.4 -22.45 -5.3 -22.45 -5.1 -22.55 -5.05 -22.6 -4.95 -22.6 -4.9 -22.65 -4.8 -22.65 -4.7 -22.7 -4.55 -22.7 -4.55 -22.75 -4.2 -22.8 -3.4 -22.8 -3.3 -22.75 -3.1 -22.55 -3.05 -22.45 -3.0 -22.4 -3.0 -22.35 -2.95 -22.3 -2.95 -22.25 -2.8 -22.1 -2.65 -22.1 -2.2 -22.05 -1.95 -22.05 Q-1.9 -22.1 -1.8 -22.1 L-1.7 -22.15 -1.8 -22.25 -1.8 -22.35 -1.7 -22.45 -1.7 -22.55 -1.65 -22.65 -1.2 -22.95 -1.1 -22.95 -1.0 -23.0 -0.8 -23.0 -0.7 -22.95 -0.6 -23.0 -0.5 -23.0 -0.45 -23.05 -0.3 -23.1 1.0 -23.1 1.15 -23.05 1.25 -23.05 1.45 -23.0 Q1.5 -23.0 1.55 -22.95 L1.7 -22.9 1.75 -22.9 1.8 -22.85 1.9 -22.8 1.95 -22.75 1.95 -22.65 2.05 -22.55 2.1 -22.55 2.15 -22.5 2.15 -22.3 2.2 -22.25 2.2 -22.2 2.75 -22.2 3.9 -22.35 4.45 -22.35 Q4.85 -22.3 5.15 -22.4 L5.05 -22.5 4.95 -22.55 Q4.9 -22.55 4.85 -22.6 L4.75 -22.65 4.7 -22.7 4.7 -22.95 4.65 -23.05 Q4.65 -23.15 4.7 -23.2 L4.8 -23.3 4.95 -23.35 5.05 -23.35 5.2 -23.4 5.8 -23.4 5.95 -23.35 6.45 -23.35 6.5 -23.4 6.5 -23.5 6.6 -23.6 6.65 -23.6 6.65 -23.65 6.75 -23.75 6.75 -23.8 7.05 -23.95 7.75 -23.95 7.9 -23.9 8.1 -23.8 8.2 -23.7 8.3 -23.65 8.5 -23.45 8.7 -23.35 8.75 -23.35 8.8 -23.3 9.05 -23.15 9.35 -22.95 9.6 -22.8 9.65 -22.75 9.8 -22.75 9.95 -22.7 10.05 -22.65 10.2 -22.65 10.3 -22.6 10.6 -22.5 Q10.7 -22.5 10.75 -22.45 L10.85 -22.45 10.95 -22.35 10.95 -22.3 11.0 -22.25 11.0 -22.2 11.05 -22.25 11.15 -22.25 11.15 -22.45 11.05 -22.55 11.05 -22.6 10.8 -22.85 10.7 -22.9 10.65 -22.9 10.6 -22.95 10.6 -23.1 Q10.6 -23.2 10.65 -23.3 L10.65 -23.5 10.6 -23.55 10.6 -23.6 10.5 -23.7 10.5 -23.95 10.45 -24.0 10.25 -24.0 10.15 -23.95 9.3 -23.95 9.15 -24.05 8.9 -24.15 Q8.75 -24.25 8.7 -24.35 L8.6 -24.45 8.6 -24.8 8.4 -24.9 8.3 -25.0 8.3 -25.05 8.25 -25.1 8.15 -25.15 8.05 -25.15 7.95 -25.2 7.9 -25.25 7.8 -25.3 7.7 -25.4 7.7 -25.45 7.6 -25.45 7.6 -25.5 7.45 -25.65 7.35 -25.7 7.15 -25.7 7.1 -25.65 6.85 -25.65 6.8 -25.7 6.7 -25.6 6.6 -25.55 6.55 -25.55 5.8 -25.5 5.65 -25.5 5.1 -25.45 4.8 -25.45 4.7 -25.5 4.6 -25.5 4.5 -25.55 4.45 -25.6 4.25 -25.6 4.15 -25.65 3.95 -25.7 3.9 -25.7 3.75 -25.75 3.7 -25.8 3.6 -25.8 3.4 -25.9 3.35 -25.9 3.35 -25.95 3.25 -25.95 3.15 -26.0 2.95 -26.05 2.55 -26.25 2.35 -26.4 2.25 -26.5 2.2 -26.5 2.2 -26.6 2.15 -26.7 2.0 -26.8 2.0 -26.85 1.95 -26.85 1.95 -26.9 1.9 -26.95 1.9 -27.0 1.7 -26.95 1.65 -26.95 1.6 -26.9 1.5 -26.85 1.45 -26.8 1.4 -26.8 1.0 -26.75 0.95 -26.7 0.6 -26.7 0.5 -26.75 0.3 -26.8 0.25 -26.8 0.05 -26.85 0.0 -26.85 -0.15 -26.9 -0.25 -26.95 -0.3 -26.95 -0.3 -27.0 -0.5 -27.0 -0.6 -27.05 -0.65 -27.1 -0.75 -27.15 -0.75 -27.2 -0.85 -27.25 -1.05 -27.4 -1.2 -27.5 -1.3 -27.6 -1.3 -28.0 -1.25 -28.0 -1.25 -28.1 -1.3 -28.15 -1.75 -28.15 -1.9 -28.2 -2.0 -28.25 -2.0 -28.3 -2.05 -28.3 -2.25 -28.5 -2.65 -28.5 -2.95 -28.6 -3.05 -28.65 -3.8 -28.65 -4.2 -28.6 -4.3 -28.55 -4.35 -28.55 -4.45 -28.5 -5.45 -28.5 -5.8 -28.45 -5.8 -28.4 -5.95 -28.4 -6.05 -28.35 -6.45 -28.3 -6.95 -28.2 -7.15 -28.2 -7.25 -28.15 -7.4 -28.0 -7.5 -27.95 -7.5 -27.9 -7.55 -27.85 -7.55 -27.8 -7.65 -27.7 -7.85 -27.55 -8.0 -27.45 -8.15 -27.45 -8.25 -27.35 -8.4 -27.25 -8.55 -27.2 -8.6 -27.15 -8.7 -27.1 -8.7 -27.05 -8.85 -27.05 -8.9 -27.0 -9.0 -26.95 -9.15 -26.9 -9.5 -26.85 -9.55 -26.8 -9.7 -26.75 -9.8 -26.7 -10.0 -26.65 -10.25 -26.6 -10.35 -26.55 -10.5 -26.55 -10.6 -26.5 -10.7 -26.5 -10.8 -26.6 Q-10.9 -26.6 -11.0 -26.65 L-11.05 -26.7 -11.1 -26.7 -11.15 -26.75 -11.15 -26.85 -11.3 -26.9 -11.35 -26.95 -11.6 -26.95 -11.75 -26.9 -11.95 -26.85 -12.2 -26.8 -12.3 -26.75 -12.35 -26.75 -12.45 -26.7 -12.55 -26.7 -12.65 -26.65 -12.8 -26.6 -13.1 -26.45 -13.15 -26.45 -13.6 -26.3 -13.85 -26.25 -13.9 -26.2 -14.0 -26.15 -14.1 -26.15 -14.7 -26.1 -14.8 -26.1 -14.95 -26.05 -15.0 -26.0 -15.25 -26.0 -15.25 -25.95 -16.2 -25.95 -16.35 -26.0 -16.45 -26.05 -16.5 -26.1 -16.5 -26.4 -16.4 -26.5 -16.7 -26.55 -16.8 -26.6 -17.35 -26.6 -17.45 -26.65 -17.6 -26.65 -17.65 -26.6 Q-17.75 -26.6 -17.9 -26.55 L-18.75 -26.5 -18.8 -26.45 -18.8 -26.05 -18.7 -25.95 -18.7 -25.8 -18.55 -25.65 -18.55 -25.55 -18.45 -25.45 -18.35 -25.4 -18.25 -25.25 -18.25 -25.15 -18.2 -25.1 -18.15 -25.1 -18.15 -25.05 -18.2 -25.0 -18.2 -24.85 -18.25 -24.8 -18.25 -24.75 -18.3 -24.7 -18.3 -24.35 -18.4 -24.25 -18.45 -24.15 -18.45 -23.9 -18.55 -23.8 -18.55 -23.7 -18.6 -23.65 -18.6 -23.6 -18.65 -23.55 -18.65 -23.4 -18.7 -23.35 -18.75 -23.35 -18.75 -23.1 -18.8 -23.05 -18.8 -23.0 -18.85 -23.0 -18.85 -22.75 -18.9 -22.7 -18.9 -22.65 -19.0 -22.55 -19.0 -22.45 -19.05 -22.4 -19.05 -22.35 -19.1 -22.35 -19.15 -22.3 -19.15 -22.25 -19.25 -22.15 -19.25 -22.1 -19.4 -21.95 -19.45 -21.95 -19.55 -21.9 -19.55 -21.8 -19.6 -21.75 -19.6 -21.55 -19.8 -21.35 -19.8 -20.7 -19.85 -20.65 -19.85 -20.6 -19.95 -20.55 -20.0 -20.45 -20.15 -20.3 -20.25 -20.25 -20.25 -19.6 -20.35 -19.5 -20.35 -19.2 -20.4 -19.2 -20.4 -19.15 -20.6 -19.05 -20.6 -18.9 -20.65 -18.9 -20.8 -18.75 -21.1 -18.7 -21.2 -18.65 -21.35 -18.65 -21.45 -18.6 -21.6 -18.65 -21.7 -18.7 -22.0 -18.7 -22.25 -18.65 -22.25 -18.25 -22.2 -18.2 -22.15 -18.2 -22.15 -18.15 -22.1 -18.1 -22.1 -18.05 -22.05 -18.0 -22.05 -17.9 -21.95 -17.8 -21.9 -17.8 -21.85 -17.7 -21.8 -17.65 -21.8 -17.6 -21.7 -17.55 -21.65 -17.5 -21.6 -17.5 -21.3 -17.45 -20.85 -17.45 -20.55 -17.35 -20.45 -17.35 -20.35 -17.3 -20.35 -17.15 -20.25 -17.05 -20.25 -16.75 -20.4 -16.6 -20.4 -16.35 -20.45 -16.35 -20.45 -16.3 -20.5 -16.25 -20.5 -15.7 -20.55 -15.65 -20.55 -15.6 -20.6 -15.55 -20.6 -15.5 -20.85 -15.25 -20.9 -15.25 -20.9 -15.2 -21.0 -15.1 Q-21.1 -14.95 -21.25 -14.9 L-21.5 -14.7 -21.5 -14.6 -21.55 -14.6 -21.55 -14.55 -21.65 -14.45 -21.75 -14.4 -21.85 -14.3 -21.95 -14.25 -22.1 -14.25 -22.35 -14.2 -22.45 -14.15 -22.55 -14.15 -22.6 -14.1 -23.15 -14.1 -23.25 -14.15 -23.3 -14.2 -23.3 -14.25 -23.4 -14.35 -23.5 -14.35 -23.6 -14.4 -23.65 -14.45 -23.8 -14.55 -23.85 -14.6 -24.0 -14.6 Q-24.2 -14.65 -24.4 -14.7 L-24.7 -14.7 -24.7 -14.65 -24.85 -14.65 -24.9 -14.6 -25.0 -14.6 -25.1 -14.55 -25.15 -14.5 -25.4 -14.45 -25.75 -14.4 -25.8 -14.35 -26.0 -14.25 -26.15 -14.2 -26.4 -14.15 Q-26.5 -14.15 -26.65 -14.1 L-27.0 -14.05 -27.15 -14.05 -27.25 -14.15 -27.35 -14.05 -27.35 -14.0 -27.45 -13.85 Q-27.5 -13.8 -27.6 -13.7 L-27.8 -13.6 -27.8 -13.55 -28.05 -13.5 -28.1 -13.5 -28.8 -13.45 -28.9 -13.45 -29.4 -13.4 -29.55 -13.4 -30.4 -13.35 -31.35 -13.35 -31.45 -13.45 -31.5 -13.45 -31.5 -13.75 -31.45 -13.75 -31.4 -13.8 -31.6 -13.85 -31.7 -13.9 -31.7 -13.95 -31.75 -13.95 -31.85 -14.0 -32.0 -14.0 -32.1 -13.95 -32.25 -13.8 -32.45 -13.7 -32.6 -13.65 -32.8 -13.5 -32.9 -13.45 -33.05 -13.4 -33.35 -13.4 -33.45 -13.5 -33.5 -13.5 -33.8 -13.55 -34.55 -13.55 -34.65 -13.5 -34.65 -13.2 -34.7 -13.15 -34.7 -13.05 Q-34.7 -12.95 -34.75 -12.85 -34.85 -12.8 -35.0 -12.7 L-35.25 -12.6 -35.25 -12.55 -35.5 -12.55 -35.55 -12.5 -36.45 -12.4 -36.5 -12.4 -36.55 -12.35 -36.65 -12.3 -38.35 -12.35 -38.45 -12.45 -38.55 -12.5 -38.6 -12.5 -38.8 -12.6 -38.85 -12.6 -38.95 -12.7 -38.95 -12.85 -39.05 -12.95 -39.05 -13.0 -39.15 -13.1 -39.15 -13.15 -39.25 -13.15 Q-39.75 -13.05 -40.35 -13.0 L-40.65 -13.0 Q-40.75 -13.0 -40.8 -13.05 L-40.85 -13.05 -41.0 -13.1 -41.05 -13.1 -41.2 -13.2 -41.3 -13.3 -41.3 -13.4 -41.35 -13.45 -41.4 -13.45 -41.4 -13.55 -41.45 -13.6 -41.45 -13.75 -41.5 -13.75 -41.5 -13.8 -41.55 -13.85 -41.55 -14.35 -41.4 -14.5 Q-41.35 -14.6 -41.35 -14.65 L-41.4 -14.8 -41.4 -15.0 -41.3 -15.1 -41.3 -15.15 -41.4 -15.25 -41.4 -15.85 -41.3 -15.95 -41.15 -16.05 -41.05 -16.1 -41.05 -16.2 -41.1 -16.2 -41.1 -16.25 -41.2 -16.35 -41.2 -16.4 -41.3 -16.45 -41.4 -16.45 -41.6 -16.5 -41.65 -16.55 -41.75 -16.6 -41.85 -16.7 -41.85 -17.0 -41.75 -17.05 -41.45 -17.25 -41.4 -17.3 -41.4 -17.35 -41.35 -17.35 -41.35 -17.45 -41.4 -17.5 -41.4 -17.75 -41.45 -17.8 -41.65 -17.85 -41.8 -17.85 -42.1 -18.0 -42.15 -18.05 -42.2 -18.05 -42.25 -18.1 -42.25 -18.3 -42.15 -18.4 -42.1 -18.4 -41.9 -18.45 -41.9 -18.95 -41.8 -19.05 -41.8 -19.15 -41.65 -19.3 -41.55 -19.35 -41.4 -19.4 -41.4 -19.45 -41.3 -19.45 -41.2 -19.5 -41.05 -19.55 -39.8 -19.55 -39.45 -19.5 -39.2 -19.5 -39.05 -19.55 -39.0 -19.6 -38.9 -19.65 -38.8 -19.65 -38.75 -19.7 -38.7 -19.7 -38.7 -19.8 -38.75 -19.8 -38.8 -19.85 -38.8 -20.0 -38.75 -20.05 -38.6 -20.1 -38.45 -20.2 -38.3 -20.25 -38.15 -20.25 -38.15 -20.35 -38.1 -20.4 -38.1 -20.45 -38.05 -20.5 -38.05 -20.55 -37.95 -20.6 -37.85 -20.7 -37.75 -20.7 -37.55 -20.8 -37.5 -20.8 -37.35 -20.85 Q-37.85 -20.95 -38.45 -20.95 L-38.65 -20.95 -38.7 -21.0 -38.8 -21.05 -38.8 -21.1 -38.95 -21.1 -39.1 -21.05 -39.3 -21.05 -39.6 -20.9 -40.2 -20.9 -40.4 -20.8 -40.45 -20.8 -40.55 -20.75 -40.75 -20.75 -40.8 -20.7 -41.1 -20.7 -41.25 -20.75 -41.4 -20.75 -41.55 -20.8 -41.6 -20.85 -41.7 -20.9 -41.75 -20.95 -41.85 -20.95 -41.85 -21.0 -42.05 -21.2 -42.15 -21.25 -42.2 -21.3 Q-42.45 -21.35 -42.6 -21.45 L-42.8 -21.6 Q-42.9 -21.65 -43.05 -21.7 L-43.15 -21.75 -43.2 -21.8 -43.2 -21.95 -43.25 -21.95 -43.25 -22.0 -43.3 -22.05 -43.4 -22.1 -43.5 -22.2 -43.5 -22.25 -43.55 -22.25 -43.65 -22.3 -44.25 -22.35 -44.35 -22.4 -44.4 -22.45 -44.45 -22.4 -44.75 -22.25 -44.8 -22.2 -44.85 -22.2 -44.9 -22.15 -44.9 -22.1 -45.3 -21.9 -45.4 -21.9 -45.45 -21.85 -46.15 -21.85 -46.3 -21.9 -46.4 -21.95 -47.15 -21.95 -47.25 -22.0 -47.3 -22.05 -47.3 -22.1 -47.45 -22.1 -47.55 -22.05 -47.75 -22.05 -48.0 -22.0 Q-48.15 -21.9 -48.35 -21.85 L-48.65 -21.75 -48.7 -21.7 -48.8 -21.65 -48.95 -21.6 -49.15 -21.5 -49.4 -21.5 -49.5 -21.45 -49.5 -21.4 -49.45 -21.4 -49.35 -21.3 -49.35 -21.05 -49.4 -21.05 -49.4 -20.85 -49.45 -20.75 -49.45 -20.6 -49.55 -20.45 Q-49.65 -20.35 -49.75 -20.3 L-49.9 -20.2 -50.1 -20.05 -50.25 -20.0 -50.85 -20.0 -51.05 -20.05 -51.1 -20.05 -51.55 -20.1 -51.8 -20.15 -51.9 -20.2 -51.95 -20.25 -52.25 -19.95 -52.5 -19.8 -52.7 -19.6 -52.9 -19.5 -53.05 -19.45 -53.1 -19.45 -53.2 -19.4 -53.35 -19.3 -53.45 -19.25 -53.65 -19.2 -53.7 -19.2 -53.7 -19.15 -54.2 -19.15 -54.5 -19.1 -54.6 -19.15 -54.65 -19.2 -54.65 -19.3 -54.7 -19.35 -54.7 -19.7 -54.6 -19.8 -54.5 -19.85 -54.5 -19.9 -54.45 -19.95 -54.45 -20.05 -54.4 -20.1 -54.25 -20.15 -54.2 -20.2 -54.15 -20.2 -53.9 -20.45 -53.75 -20.45 -53.7 -20.5 -53.65 -20.5 -53.5 -20.6 -53.4 -20.7 -53.35 -20.8 -53.3 -20.8 -53.25 -20.9 -53.25 -20.95 -53.15 -21.05 -53.15 -21.1 -53.1 -21.15 -52.9 -21.2 -52.8 -21.25 -52.75 -21.3 -52.3 -21.3 -52.2 -21.35 -52.1 -21.35 -52.0 -21.3 -51.9 -21.3 -51.8 -21.25 -51.65 -21.2 -51.55 -21.15 -51.45 -21.15 -51.35 -21.1 -50.9 -21.1 -50.75 -21.15 -50.65 -21.15 -50.65 -21.35 -50.7 -21.4 -50.75 -21.4 -50.75 -21.45 -50.85 -21.55 -50.85 -21.6 -50.9 -21.65 -51.0 -21.7 -51.05 -21.75 -51.05 -22.1 -50.95 -22.2 -50.95 -22.35 -50.85 -22.45 -50.8 -22.45 -50.75 -22.5 -50.65 -22.55 -50.35 -22.55 -50.3 -22.5 -50.25 -22.55 -50.05 -22.65 -50.05 -22.7 -50.0 -22.7 -49.9 -22.8 -49.8 -22.85 -49.7 -22.95 -49.25 -22.95 -49.15 -22.9 -49.15 -22.85 -48.75 -22.9 -48.1 -22.9 -48.05 -22.95 -47.95 -22.95 -47.8 -23.0 -47.15 -23.0 -47.05 -22.95 -46.35 -22.95 -46.25 -23.0 -46.15 -23.1 -46.15 -23.35 -46.1 -23.35 -46.05 -23.4 -46.05 -23.5 -45.85 -23.7 -45.35 -23.7 -44.65 -23.65 -44.5 -23.6 -43.9 -23.6 -43.85 -23.65 -43.75 -23.7 -43.4 -23.7 -43.35 -23.65 -43.25 -23.6 -43.1 -23.45 -43.1 -23.4 -43.0 -23.35 -43.0 -23.25 -42.8 -23.05 -42.65 -23.0 -42.45 -22.9 -42.4 -22.85 -42.15 -22.75 -42.1 -22.7 -42.0 -22.65 -41.95 -22.6 Q-41.8 -22.5 -41.7 -22.35 L-41.55 -22.15 -41.55 -22.1 -41.45 -22.0 -41.45 -21.95 -41.15 -21.95 -41.0 -21.9 -40.7 -21.9 -40.55 -21.85 -40.4 -21.85 -40.3 -21.75 -40.15 -21.75 -39.95 -21.85 -39.85 -21.95 -39.75 -22.0 -39.7 -22.05 -39.6 -22.05 -39.55 -22.1 -39.4 -22.15 -39.2 -22.15 -38.9 -22.1 Q-38.7 -22.05 -38.5 -22.0 L-38.15 -21.85 -38.1 -21.85 -37.75 -21.8 -37.6 -21.75 -37.55 -21.75 -37.15 -21.65 -36.95 -21.55 -36.9 -21.55 -36.85 -21.5 -36.7 -21.5 -36.6 -21.45 -36.55 -21.4 -36.55 -21.35 -36.5 -21.3 -36.4 -21.3 -36.4 -21.25 -36.35 -21.25 -36.25 -21.2 -35.95 -21.1 -35.9 -21.05 -35.85 -21.05 -35.75 -21.0 -35.6 -20.85 -35.6 -20.75 -35.7 -20.65 -35.7 -20.45 -35.9 -20.25 -35.9 -20.15 -36.05 -20.0 -36.15 -20.0 -36.25 -19.9 -36.4 -19.9 -37.05 -19.85 -37.05 -19.7 -37.1 -19.65 -37.1 -19.6 -37.15 -19.55 -37.15 -19.45 -37.2 -19.4 -37.2 -19.35 -37.25 -19.3 -37.25 -19.1 -37.3 -19.1 -37.45 -18.95 -37.55 -18.9 -37.65 -18.8 -37.65 -18.75 -37.7 -18.75 -37.8 -18.7 -37.95 -18.65 -39.95 -18.6 -39.9 -18.55 -39.9 -18.25 -39.85 -18.2 -39.85 -18.15 -39.8 -18.1 -39.8 -18.0 -39.75 -17.95 -39.7 -17.95 -39.7 -17.35 -39.8 -17.25 -39.9 -17.25 -40.0 -17.2 -40.05 -17.15 -40.05 -17.1 -40.0 -17.05 -40.0 -17.0 -39.95 -16.95 -39.95 -16.9 -39.9 -16.85 -39.9 -16.6 -39.95 -16.55 -39.95 -16.25 -39.9 -16.2 -39.9 -16.1 -39.8 -16.0 -39.8 -15.6 -39.75 -15.55 -39.7 -15.55 -39.7 -15.2 -39.6 -15.1 -39.6 -14.45 -38.75 -14.45 -38.65 -14.4 -38.6 -14.35 -38.4 -14.25 -38.25 -14.2 -38.1 -14.1 -37.95 -13.95 -37.95 -13.9 -37.9 -13.85 -37.9 -13.8 -37.8 -13.7 -37.8 -13.65 -37.6 -13.55 -36.45 -13.55 -36.35 -13.65 -36.3 -13.65 -36.25 -13.7 -36.15 -13.75 -36.1 -13.8 -36.1 -13.9 -36.25 -14.05 -36.3 -14.05 -36.35 -14.1 -36.35 -14.2 -36.4 -14.25 -36.5 -14.3 -36.5 -14.9 -36.4 -15.0 -36.4 -15.05 -36.35 -15.05 -36.15 -15.25 -36.05 -15.25 -35.9 -15.3 -35.45 -15.3 -35.3 -15.25 -35.2 -15.2 -35.0 -15.15 -34.85 -15.15 -34.75 -15.1 -34.7 -15.0 -34.6 -14.95 -34.45 -14.85 -34.3 -14.7 -34.3 -14.65 -34.2 -14.65 -34.05 -14.6 -33.55 -14.6 -33.5 -14.65 -33.5 -14.75 -33.4 -14.85 -33.4 -14.95 -33.35 -14.95 -33.25 -15.05 -33.15 -15.1 -33.1 -15.15 -32.8 -15.15 -32.75 -15.2 -32.55 -15.25 -32.45 -15.3 -31.05 -15.3 -30.35 -15.25 -30.25 -15.25 -30.15 -15.2 -29.85 -15.15 -29.7 -15.1 -29.6 -15.05 -29.55 -15.0 -29.55 -14.75 -29.6 -14.7 -29.6 -14.6 -29.2 -14.6 -29.05 -14.55 -28.8 -14.5 -28.65 -14.45 -28.6 -14.45 -28.5 -14.55 -28.4 -14.6 -28.5 -14.7 -28.5 -15.1 -28.45 -15.15 -28.4 -15.15 -28.1 -15.35 -28.05 -15.4 -27.9 -15.4 -27.55 -15.45 -27.25 -15.5 -27.2 -15.5 -27.0 -15.6 -26.95 -15.6 -26.85 -15.65 -26.55 -15.7 -26.3 -15.75 -26.15 -15.75 -26.05 -15.85 -25.9 -15.9 -25.75 -15.9 -25.1 -16.0 Q-24.85 -16.05 -24.65 -16.1 L-24.0 -16.1 -23.85 -16.05 -23.8 -16.05 -23.6 -15.95 -23.5 -15.85 -23.3 -15.85 -23.1 -15.8 -22.95 -15.75 -22.85 -15.75 -22.85 -15.7 -22.75 -15.7 -22.65 -15.65 -22.5 -15.8 -22.5 -15.85 -22.45 -15.85 -22.2 -16.1 Q-22.15 -16.15 -22.1 -16.2 L-22.05 -16.25 -22.05 -16.4 -22.0 -16.45 -22.0 -16.5 -21.95 -16.55 -21.95 -16.6 -21.9 -16.65 -22.25 -16.65 Q-22.7 -16.6 -23.25 -16.7 L-23.35 -16.75 -23.35 -16.8 -23.4 -16.85 -23.4 -17.05 -23.45 -17.1 -23.45 -17.15 -23.55 -17.25 -23.6 -17.25 -23.7 -17.35 -23.7 -18.0 -23.75 -18.05 -23.75 -18.15 -23.8 -18.45 -23.8 -19.6 -23.75 -19.65 -23.75 -19.7 -23.7 -19.7 -23.7 -20.0 -23.6 -20.1 -23.6 -20.45 -23.5 -20.55 -23.5 -20.6 -23.45 -20.65 -23.35 -20.7 -22.95 -20.7 -22.85 -20.65 -22.8 -20.6 -22.65 -20.6 -22.5 -20.55 -22.25 -20.5 -22.15 -20.45 -22.1 -20.4 -22.0 -20.35 -21.8 -20.35 -21.8 -20.45 -21.75 -20.5 -21.75 -20.55 -21.65 -20.65 -21.65 -20.7 -21.6 -20.7 -21.5 -20.75 -21.45 -20.8 -21.15 -21.0 -21.1 -21.05 -21.05 -21.05 -21.05 -21.1 -21.0 -21.15 -21.0 -21.2 -21.05 -21.25 -21.05 -21.3 -21.25 -21.5 -21.25 -21.95 -21.2 -22.05 -21.15 -22.1 -21.15 -22.15 -21.1 -22.2 -21.1 -22.25 -21.05 -22.3 -21.05 -22.35 -21.0 -22.4 -20.9 -22.45 -20.9 -22.55 -20.85 -22.6 -20.85 -22.7 -20.75 -22.8 -20.6 -22.9 -20.6 -22.95 -20.55 -23.0 -20.55 -23.05 -20.45 -23.15 -20.4 -23.15 -20.4 -23.25 -20.2 -23.45 -20.1 -23.6 -20.05 -23.65 -20.05 -23.75 -19.95 -23.85 -19.95 -23.95 -19.85 -24.05 -19.85 -24.15 -19.8 -24.15 -19.8 -24.3 -19.75 -24.35 -19.75 -24.4 -19.7 -24.45 -19.7 -24.6 -19.8 -24.7 -19.8 -24.75 -19.85 -24.8 -19.85 -24.9 -20.05 -25.1 -20.05 -25.15 -20.1 -25.2 -20.15 -25.2 -20.15 -25.75 -20.25 -25.8 -20.3 -25.85 -20.4 -25.9 -20.45 -25.9 -20.55 -26.0 -20.55 -26.05 -20.6 -26.1 -20.6 -26.3 -20.55 -26.35 -20.55 -26.4 -20.45 -26.5 -20.45 -26.55 -20.4 -26.6 -20.4 -26.7 -20.35 -26.75 -20.35 -27.0 -20.3 -27.05 -20.2 -27.2 -19.8 -27.6 -19.65 -27.7 -19.6 -27.75 -19.45 -27.75 -18.55 -27.8 -18.35 -27.8 -17.55 -27.9 -17.35 -27.95 -16.45 -27.95 -16.35 -27.9 -16.2 -27.85 -16.0 -27.75 -15.95 -27.75 -15.85 -27.65 -15.55 -27.65 -15.4 -27.6 -15.15 -27.55 Q-15.0 -27.5 -14.85 -27.45 L-14.7 -27.4 -14.6 -27.3 -14.55 -27.3 -14.5 -27.25 -14.5 -27.2 -14.2 -27.3 -14.1 -27.4 -14.05 -27.4 -13.85 -27.45 -13.8 -27.5 -13.7 -27.5 -13.65 -27.55 -13.55 -27.6 -13.45 -27.7 -13.35 -27.75 -13.3 -27.75 -13.1 -27.85 -13.0 -27.95 -12.85 -28.0 -12.8 -28.0 -12.7 -28.05 -12.55 -28.1 -12.35 -28.1 -12.15 -28.0 -11.95 -28.0 -11.8 -28.05 -11.7 -28.1 -11.65 -28.1 -11.55 -28.15 -11.5 -28.2 -11.15 -28.2 -11.05 -28.15 -10.9 -28.0 -10.8 -28.0 -10.7 -27.95 Q-10.65 -27.95 -10.6 -27.95 L-10.6 -28.0 -10.5 -28.1 -10.4 -28.15 -10.35 -28.2 -10.25 -28.25 -10.1 -28.3 -10.0 -28.3 Q-9.85 -28.4 -9.7 -28.55 L-9.25 -28.95 -9.0 -29.25 -8.75 -29.4 -8.65 -29.45 -8.2 -29.45 -7.9 -29.35 -7.35 -29.35 -7.2 -29.4 -7.1 -29.45 -6.0 -29.45 -4.9 -29.6 -4.85 -29.7 -4.8 -29.75 -4.6 -29.9 -4.35 -30.05 -4.3 -30.05 -4.2 -30.1 -4.05 -30.1 -3.9 -30.15 -3.75 -30.15 -3.45 -30.05 -3.3 -30.05 -3.2 -30.1 -3.0 -30.1 -3.0 -30.15 -2.8 -30.05 -2.75 -30.0 -2.65 -29.95 -2.6 -29.85 -2.55 -29.8 -2.4 -29.7 -2.3 -29.6 -2.25 -29.6 -2.1 -29.45 -2.1 -29.4 -1.9 -29.35 -1.8 -29.35 -1.6 -29.25 Q-1.5 -29.2 -1.4 -29.15 L-1.2 -29.15 -1.05 -29.1 -0.65 -28.9 -0.3 -28.65 -0.2 -28.5 -0.15 -28.45 -0.15 -28.3 -0.1 -28.25 -0.1 -28.2 -0.05 -28.15 -0.05 -28.1 0.05 -28.0 0.1 -28.0 0.1 -27.9 0.2 -27.8 0.25 -27.8 0.35 -27.75 0.7 -27.75 0.9 -27.85 M0.15 -27.35 Q0.25 -27.3 0.35 -27.25 L0.7 -27.2 1.15 -27.2 1.15 -27.25 1.2 -27.3 1.4 -27.4 2.15 -27.4 2.25 -27.35 2.3 -27.3 2.45 -27.2 2.65 -27.0 2.75 -26.85 2.9 -26.7 Q3.0 -26.6 3.15 -26.5 L3.3 -26.4 Q3.4 -26.4 3.45 -26.4 L3.6 -26.35 3.85 -26.25 4.05 -26.15 4.8 -26.0 4.9 -25.95 4.95 -25.9 5.0 -25.9 6.25 -26.0 6.3 -26.0 6.3 -26.15 6.4 -26.25 6.5 -26.3 6.55 -26.35 7.35 -26.35 7.45 -26.3 7.6 -26.25 7.7 -26.25 8.05 -25.9 8.2 -25.8 8.2 -25.75 8.25 -25.7 8.55 -25.5 8.6 -25.5 8.75 -25.45 8.85 -25.35 8.95 -25.3 9.0 -25.25 9.05 -25.25 9.05 -25.2 9.15 -25.15 9.4 -24.9 9.4 -24.8 9.55 -24.65 9.55 -24.6 10.05 -24.6 10.25 -24.65 10.8 -24.65 10.9 -24.6 11.05 -24.6 11.15 -24.55 11.2 -24.5 11.2 -24.45 11.25 -24.4 11.25 -24.25 11.3 -24.2 11.3 -24.15 11.5 -23.95 11.5 -23.9 11.7 -23.7 11.75 -23.6 11.75 -23.5 11.8 -23.45 11.8 -23.4 11.85 -23.35 11.85 -22.75 11.95 -22.65 11.95 -22.35 11.9 -22.3 11.95 -22.25 11.95 -22.0 11.9 -21.95 11.8 -21.9 11.65 -21.9 11.65 -21.85 11.55 -21.75 11.45 -21.7 11.4 -21.65 11.65 -21.75 11.8 -21.85 11.9 -21.9 12.0 -21.9 12.1 -21.95 Q12.15 -21.95 12.2 -21.95 L12.25 -22.0 12.25 -22.15 12.3 -22.2 12.25 -22.25 12.25 -22.5 12.2 -22.55 12.15 -22.55 12.15 -22.95 12.05 -23.05 12.05 -23.15 11.95 -23.25 11.95 -23.6 11.9 -23.65 11.85 -23.75 11.85 -24.1 11.8 -24.15 11.7 -24.2 11.6 -24.3 11.5 -24.35 Q11.5 -24.45 11.5 -24.5 L11.5 -25.0 11.45 -25.0 11.4 -25.05 11.35 -25.05 11.25 -25.0 11.2 -24.95 11.0 -24.85 10.95 -24.85 10.75 -24.75 10.3 -24.75 10.05 -24.8 Q9.85 -24.9 9.7 -25.05 9.6 -25.15 9.35 -25.3 L9.15 -25.4 9.15 -25.6 9.05 -25.7 9.0 -25.7 9.0 -25.75 8.95 -25.8 8.95 -25.85 8.75 -26.0 8.45 -26.15 8.35 -26.25 8.25 -26.3 8.2 -26.35 8.1 -26.4 8.05 -26.4 8.0 -26.45 7.7 -26.6 7.65 -26.6 7.6 -26.65 7.4 -26.65 7.3 -26.7 7.05 -26.95 7.0 -26.9 6.9 -26.85 6.75 -26.85 6.5 -26.8 6.4 -26.75 6.4 -26.65 6.35 -26.6 6.3 -26.6 6.3 -26.5 6.25 -26.45 6.25 -26.4 6.2 -26.35 6.2 -26.3 6.15 -26.25 6.1 -26.25 5.95 -26.2 5.9 -26.15 5.85 -26.15 5.65 -26.1 5.55 -26.1 5.5 -26.05 5.25 -26.1 5.15 -26.1 4.95 -26.15 4.9 -26.15 4.75 -26.2 4.7 -26.25 4.5 -26.25 4.4 -26.3 4.35 -26.35 4.15 -26.4 4.05 -26.4 3.95 -26.45 3.9 -26.5 3.75 -26.55 3.7 -26.6 3.5 -26.7 3.3 -26.75 3.2 -26.85 3.05 -26.9 2.95 -26.95 2.85 -27.05 2.75 -27.1 2.7 -27.15 2.7 -27.2 2.6 -27.3 2.6 -27.55 2.55 -27.6 2.5 -27.6 2.3 -27.7 2.2 -27.65 2.0 -27.6 1.55 -27.6 1.35 -27.5 1.25 -27.4 1.15 -27.4 1.1 -27.35 0.9 -27.3 0.3 -27.3 0.25 -27.35 0.15 -27.35 M6.0 -22.95 L5.35 -22.95 5.35 -22.9 5.5 -22.85 5.55 -22.8 5.65 -22.8 5.75 -22.7 5.85 -22.8 Q5.85 -22.9 6.0 -22.95 M7.2 -22.95 L7.75 -22.9 7.9 -22.9 7.95 -22.85 8.05 -22.8 8.2 -22.7 8.3 -22.65 8.3 -22.6 8.4 -22.5 8.4 -22.45 8.6 -22.45 8.7 -22.4 8.75 -22.35 8.85 -22.3 9.0 -22.25 9.5 -22.15 9.65 -22.1 9.9 -22.0 10.15 -21.85 10.25 -21.85 10.5 -21.7 10.7 -21.6 10.75 -21.55 10.8 -21.55 11.0 -21.65 10.7 -21.65 10.5 -21.75 10.45 -21.8 10.45 -22.05 10.4 -22.1 10.35 -22.1 10.05 -22.2 10.0 -22.2 9.9 -22.25 9.75 -22.25 9.65 -22.3 9.3 -22.35 9.25 -22.4 8.8 -22.7 8.6 -22.8 8.55 -22.85 8.5 -22.85 8.5 -22.9 8.35 -22.95 8.25 -23.0 8.15 -23.1 8.0 -23.2 7.95 -23.25 7.75 -23.25 7.75 -23.2 7.6 -23.2 7.5 -23.1 7.45 -23.1 7.0 -23.05 7.05 -23.0 7.15 -23.0 7.2 -22.95 M5.75 -22.4 L5.75 -22.1 5.7 -22.1 5.6 -22.0 5.5 -21.95 5.25 -21.9 5.2 -21.85 5.0 -21.85 4.85 -21.9 4.7 -21.9 4.55 -21.85 4.35 -21.85 4.2 -21.9 4.05 -21.9 3.25 -21.85 Q2.8 -21.8 2.4 -21.7 L1.85 -21.7 1.75 -21.75 1.6 -21.9 1.6 -22.0 1.5 -22.1 1.5 -22.3 1.4 -22.4 1.35 -22.35 1.25 -22.3 1.05 -22.3 1.2 -22.15 1.2 -22.05 1.25 -22.0 1.25 -21.95 1.3 -21.9 1.3 -21.8 1.35 -21.75 1.45 -21.75 1.45 -21.7 1.5 -21.65 2.45 -21.65 2.65 -21.7 3.25 -21.75 3.7 -21.75 3.8 -21.7 3.85 -21.65 3.85 -21.6 4.05 -21.55 4.2 -21.6 4.3 -21.65 4.4 -21.65 4.55 -21.7 4.8 -21.7 5.0 -21.65 5.1 -21.65 5.2 -21.6 5.25 -21.6 5.4 -21.55 5.6 -21.65 5.65 -21.65 5.75 -21.75 5.75 -21.85 5.85 -21.95 5.85 -22.3 5.75 -22.4 M1.5 -11.45 L1.25 -11.2 0.95 -11.05 0.75 -11.0 0.65 -11.0 0.55 -10.95 0.4 -10.9 -0.25 -10.9 -0.3 -10.95 -0.3 -11.75 -0.25 -11.8 -0.25 -11.85 -0.2 -11.9 -0.3 -11.95 -0.35 -12.05 -0.4 -12.1 -0.5 -12.15 -0.65 -12.3 -0.65 -12.6 -0.7 -12.6 -0.75 -12.65 -0.75 -12.8 -0.8 -12.8 -0.8 -12.75 -1.15 -12.75 -1.7 -12.8 -1.75 -12.85 -1.85 -12.9 -1.95 -13.0 -1.95 -13.2 -1.9 -13.25 -1.95 -13.3 -1.95 -13.4 -1.85 -13.5 -1.85 -13.55 -1.7 -13.7 -1.7 -13.75 -1.75 -13.75 -2.05 -13.8 -2.3 -13.8 -2.45 -13.65 -2.45 -13.6 -2.3 -13.45 -2.3 -13.25 -2.4 -13.15 -2.4 -12.4 -2.5 -12.3 -2.4 -12.25 -2.35 -12.25 -2.2 -12.2 -2.2 -12.25 -2.1 -12.35 -1.45 -12.35 -1.35 -12.4 -1.15 -12.3 -1.1 -12.25 -1.1 -12.2 -1.0 -12.15 -0.85 -12.0 -0.85 -11.95 -0.8 -11.9 -0.8 -11.25 -0.85 -11.2 -0.85 -11.05 -0.9 -11.0 -0.9 -10.95 -0.95 -10.9 -0.95 -10.8 -0.85 -10.75 -0.8 -10.7 -0.75 -10.7 Q-0.7 -10.7 -0.65 -10.75 L-0.3 -10.75 -0.1 -10.7 0.4 -10.7 0.55 -10.75 0.85 -10.8 0.95 -10.8 1.25 -10.95 1.4 -11.05 1.45 -11.1 1.6 -11.15 1.75 -11.25 2.25 -11.25 2.4 -11.15 2.45 -11.1 2.55 -11.05 2.6 -11.0 2.65 -11.0 2.65 -10.95 2.7 -10.9 2.7 -11.1 2.65 -11.15 2.65 -11.2 2.5 -11.25 2.4 -11.35 2.3 -11.4 2.25 -11.45 2.15 -11.45 2.05 -11.5 2.0 -11.55 1.95 -11.55 1.75 -11.6 1.65 -11.6 1.5 -11.45 M2.9 -10.55 L2.95 -10.45 3.1 -10.3 3.2 -10.25 3.2 -9.75 3.15 -9.7 3.05 -9.65 3.2 -9.65 3.35 -9.7 3.55 -9.75 3.6 -9.75 3.7 -9.8 3.75 -9.85 3.75 -9.95 3.7 -10.0 Q3.55 -10.05 3.45 -10.15 L3.3 -10.3 2.95 -10.5 2.9 -10.55 M0.75 -9.65 L0.7 -9.6 0.7 -9.5 0.75 -9.45 0.75 -9.35 0.8 -9.3 0.9 -9.3 0.95 -9.25 0.95 -9.15 1.05 -9.05 1.05 -8.95 1.1 -8.95 1.15 -8.9 1.15 -8.75 1.2 -8.7 1.2 -8.25 1.3 -8.25 Q1.45 -8.3 1.55 -8.35 L1.7 -8.45 1.7 -8.5 1.75 -8.55 1.75 -8.85 1.6 -8.9 1.5 -8.95 1.4 -9.05 1.4 -9.35 1.45 -9.4 1.5 -9.4 1.65 -9.45 1.85 -9.55 2.3 -9.65 2.45 -9.65 2.45 -9.7 2.15 -9.65 1.4 -9.65 1.3 -9.7 1.1 -9.7 0.9 -9.65 0.75 -9.65 M-52.65 -20.95 L-52.65 -20.9 -52.7 -20.9 -52.7 -20.85 -52.75 -20.8 -52.8 -20.8 -52.85 -20.7 -52.9 -20.65 -52.95 -20.55 -53.0 -20.5 -53.1 -20.45 -53.15 -20.4 -53.2 -20.4 -53.3 -20.35 -53.45 -20.3 -53.55 -20.2 -53.55 -20.1 -53.65 -20.0 -53.7 -20.0 -53.75 -19.95 -53.95 -19.85 -54.05 -19.75 -54.05 -19.7 -54.2 -19.6 -54.15 -19.55 -54.0 -19.55 -53.7 -19.75 Q-53.6 -19.8 -53.55 -19.85 L-53.4 -20.0 -53.2 -20.1 -53.15 -20.15 -52.95 -20.25 Q-52.8 -20.4 -52.55 -20.5 L-52.3 -20.55 -52.0 -20.65 -51.95 -20.7 -51.75 -20.7 -51.6 -20.65 -51.5 -20.6 -51.45 -20.55 -51.35 -20.5 -50.8 -20.5 -50.7 -20.55 -50.55 -20.6 -50.5 -20.6 -50.3 -20.7 -50.35 -20.7 -50.45 -20.65 -51.45 -20.65 -51.55 -20.7 -51.65 -20.7 -51.75 -20.75 -52.05 -20.75 -52.1 -20.8 -52.2 -20.85 -52.35 -20.85 -52.45 -20.9 -52.5 -20.95 -52.65 -20.95 M-46.8 -22.35 L-46.3 -22.35 -46.0 -22.25 -45.75 -22.25 -45.55 -22.35 -45.4 -22.35 -45.4 -22.5 -45.3 -22.6 -45.2 -22.65 -44.95 -22.7 -44.45 -22.9 -44.05 -22.9 -43.95 -22.85 -43.9 -22.8 -43.9 -22.75 -43.65 -22.75 -43.5 -22.7 -43.4 -22.65 -43.25 -22.65 -43.05 -22.55 -43.05 -22.5 -43.0 -22.45 -42.95 -22.45 -42.9 -22.4 -42.8 -22.35 -42.65 -22.2 -42.65 -22.1 -42.6 -22.1 -42.6 -22.0 -42.55 -22.0 -42.4 -21.95 -42.5 -22.0 -42.55 -22.1 -42.6 -22.15 -42.6 -22.2 -42.7 -22.3 -42.7 -22.35 -42.85 -22.4 -42.9 -22.45 -43.1 -22.6 -43.2 -22.65 -43.2 -22.7 -43.4 -22.8 -43.45 -22.8 -43.55 -22.85 -43.8 -23.1 -43.85 -23.1 -44.05 -23.15 -44.1 -23.2 -44.75 -23.2 -44.9 -23.25 -45.55 -23.25 -45.55 -23.0 -45.65 -22.9 -45.65 -22.85 -45.7 -22.8 -45.7 -22.75 -45.85 -22.6 -45.9 -22.6 -46.05 -22.55 -47.35 -22.55 -47.45 -22.65 -47.6 -22.65 -47.8 -22.6 Q-47.8 -22.55 -47.85 -22.55 L-48.0 -22.55 -48.15 -22.5 -48.2 -22.5 -48.65 -22.45 -49.3 -22.45 -49.4 -22.5 -49.55 -22.45 -49.55 -22.35 -49.6 -22.35 -49.6 -22.3 -49.65 -22.25 -49.65 -22.2 Q-49.05 -22.3 -48.45 -22.4 -48.15 -22.4 -47.85 -22.55 L-47.5 -22.55 -47.1 -22.5 -46.95 -22.45 -46.9 -22.45 -46.8 -22.35 M-49.95 -22.1 L-50.35 -22.05 -50.4 -22.0 -50.4 -21.95 -50.45 -21.9 -50.4 -21.9 -50.3 -21.8 -50.3 -21.75 -50.15 -21.6 -50.05 -21.7 -50.05 -21.9 -49.95 -22.0 -49.95 -22.1 M-10.95 -27.55 L-11.15 -27.6 -11.2 -27.6 -11.25 -27.55 -11.35 -27.5 -11.9 -27.45 -12.0 -27.4 -12.3 -27.4 -12.45 -27.35 -12.55 -27.35 -12.6 -27.3 -12.8 -27.3 -12.95 -27.25 -13.05 -27.2 -13.1 -27.2 -13.25 -27.15 -13.35 -27.15 -13.65 -27.1 -13.75 -27.1 -13.85 -27.05 -13.95 -27.05 -14.15 -26.95 -14.3 -26.9 -14.6 -26.9 -14.7 -26.85 -15.05 -26.85 -15.15 -26.9 -15.2 -26.95 -15.25 -26.95 -15.25 -27.0 -15.35 -27.1 -15.45 -27.15 -15.85 -27.2 -16.35 -27.25 -16.4 -27.3 -16.9 -27.3 -17.05 -27.25 -17.35 -27.25 -17.45 -27.2 -17.6 -27.25 -17.7 -27.3 -17.75 -27.35 -17.75 -27.45 -17.8 -27.4 -18.25 -27.35 -18.35 -27.35 -19.25 -27.3 -19.3 -27.3 -19.45 -27.15 -19.45 -27.1 -19.6 -26.95 -19.6 -26.9 -19.65 -26.9 -19.7 -26.85 -19.7 -26.6 -19.75 -26.6 -19.8 -26.55 -19.8 -26.4 -19.85 -26.35 -19.85 -26.25 -19.9 -26.25 -19.85 -26.2 -19.85 -26.15 -19.7 -26.1 -19.6 -26.05 -19.55 -26.0 -19.55 -25.95 -19.5 -25.9 -19.5 -25.35 -19.45 -25.3 -19.35 -25.25 -19.35 -25.2 -19.25 -25.1 -19.25 -25.0 -19.05 -24.8 -19.05 -24.25 -19.1 -24.2 -19.1 -24.15 -19.15 -24.15 -19.15 -24.05 -19.25 -23.95 -19.25 -23.85 -19.3 -23.85 -19.3 -23.8 -19.35 -23.75 -19.35 -23.65 -19.4 -23.6 -19.4 -23.5 -19.55 -23.35 -19.55 -23.3 -19.8 -23.05 -19.8 -23.0 -19.9 -22.9 -19.9 -22.85 -19.95 -22.8 -20.0 -22.8 -20.0 -22.75 -20.25 -22.5 -20.25 -22.4 -20.35 -22.3 -20.35 -22.2 -20.4 -22.15 -20.4 -22.1 -20.5 -22.05 -20.5 -22.0 -20.6 -21.9 -20.6 -21.65 -20.4 -21.45 -20.4 -21.5 -20.3 -21.6 -20.3 -21.65 -20.25 -21.65 -20.2 -21.7 -20.2 -21.95 -20.15 -22.0 -20.05 -22.05 -19.85 -22.2 -19.85 -22.3 -19.8 -22.35 -19.75 -22.35 -19.7 -22.4 -19.65 -22.5 -19.55 -22.6 -19.55 -22.65 -19.45 -22.75 -19.45 -22.85 -19.4 -22.9 -19.4 -22.95 -19.35 -23.0 -19.35 -23.3 -19.3 -23.35 -19.3 -23.5 -19.2 -23.6 -19.2 -23.7 -19.1 -23.75 -19.1 -23.95 -19.0 -24.05 -19.0 -24.3 -18.9 -24.4 -18.9 -24.45 -18.85 -24.5 -18.85 -24.8 -18.8 -24.95 -18.8 -25.0 -18.85 -25.05 -18.85 -25.1 -19.1 -25.35 -19.1 -25.45 -19.15 -25.45 -19.25 -25.5 -19.3 -25.55 -19.3 -25.8 -19.35 -25.85 -19.35 -25.9 -19.4 -26.0 -19.4 -26.6 -19.2 -26.8 -19.1 -26.85 -19.05 -26.9 -19.05 -27.0 -18.9 -27.15 -18.5 -27.15 -18.0 -27.05 -17.15 -27.05 -17.0 -27.1 -16.3 -27.1 -16.15 -27.05 -16.05 -27.05 -16.05 -27.0 -16.0 -26.95 -16.0 -26.9 -15.95 -26.9 -15.85 -26.85 -15.8 -26.8 -15.7 -26.75 -15.55 -26.6 -15.55 -26.45 -15.65 -26.35 -15.3 -26.4 Q-15.1 -26.45 -14.95 -26.5 L-14.8 -26.5 -14.3 -26.55 -14.2 -26.6 Q-14.15 -26.6 -14.1 -26.6 L-14.0 -26.65 -13.75 -26.7 Q-13.55 -26.75 -13.35 -26.85 L-13.3 -26.9 -13.0 -27.0 -12.6 -27.1 -12.5 -27.15 -12.45 -27.2 -12.4 -27.2 -11.65 -27.35 -11.3 -27.35 -11.15 -27.3 -10.85 -27.25 -10.6 -27.15 -10.5 -27.05 -10.35 -27.05 -10.25 -27.1 -10.2 -27.15 -10.1 -27.2 -10.0 -27.2 -9.8 -27.35 Q-9.6 -27.45 -9.4 -27.5 L-9.3 -27.55 Q-9.1 -27.55 -8.9 -27.65 L-8.6 -27.75 Q-8.55 -27.9 -8.4 -27.95 -8.15 -28.1 -8.0 -28.25 L-7.95 -28.3 -7.95 -28.4 -7.75 -28.5 -7.7 -28.5 -7.55 -28.6 -7.35 -28.6 -7.35 -28.65 -7.1 -28.65 -7.0 -28.6 -6.9 -28.65 -6.75 -28.7 -6.55 -28.7 -6.45 -28.75 -6.2 -28.75 -6.1 -28.8 -6.05 -28.85 -5.9 -28.85 -5.0 -28.95 -4.75 -28.95 -4.6 -29.0 -4.5 -29.0 -3.9 -29.1 -3.0 -29.1 -2.85 -29.05 -2.75 -29.0 -2.7 -29.0 -2.55 -28.95 -2.4 -28.95 -2.55 -29.05 -2.8 -29.2 -2.85 -29.2 -3.05 -29.3 -3.1 -29.35 -3.1 -29.5 -3.35 -29.5 -3.55 -29.55 -3.6 -29.6 -3.75 -29.6 -3.95 -29.4 -4.2 -29.3 -4.25 -29.25 -4.35 -29.25 -4.45 -29.2 -4.6 -29.2 -4.6 -29.15 -4.75 -29.1 -4.8 -29.1 -5.05 -29.05 -6.15 -29.0 -6.35 -28.95 -6.45 -28.9 -6.55 -28.9 -6.6 -28.85 -6.8 -28.8 -6.9 -28.75 -7.0 -28.75 -7.15 -28.7 -7.3 -28.7 -7.45 -28.65 -7.65 -28.65 -7.75 -28.6 -7.85 -28.6 -7.95 -28.55 -8.1 -28.5 -8.2 -28.45 -8.3 -28.45 -8.45 -28.4 -8.55 -28.35 -8.6 -28.3 -8.8 -28.2 -9.0 -28.15 -9.15 -28.0 -9.55 -28.0 -9.6 -27.95 -9.7 -27.9 -9.7 -27.6 -9.75 -27.6 -9.8 -27.55 -9.8 -27.45 -10.0 -27.35 -10.7 -27.35 -10.8 -27.4 -10.95 -27.55 M-1.2 -28.55 L-1.1 -28.55 -1.15 -28.6 -1.3 -28.6 -1.2 -28.55 M-0.55 -27.85 L-0.65 -27.8 -0.5 -27.65 -0.4 -27.6 -0.4 -27.65 -0.55 -27.8 -0.55 -27.85 M0.0 -27.4 L0.0 -27.4 M-21.0 -20.45 L-21.05 -20.4 -21.1 -20.4 -21.1 -20.35 -21.15 -20.3 -21.15 -20.1 -21.25 -20.0 -21.3 -20.0 -21.35 -19.95 -21.5 -19.9 -21.6 -19.85 -22.1 -19.85 -22.2 -19.95 -22.35 -20.0 -22.45 -20.0 -22.55 -20.1 -22.65 -20.1 -22.8 -20.15 -22.95 -20.15 -22.95 -20.0 -23.0 -19.95 -23.0 -19.9 -23.05 -19.85 -23.05 -19.65 -23.1 -19.6 -23.1 -19.55 -23.15 -19.5 -23.15 -18.3 -23.1 -18.25 -23.1 -18.2 -23.05 -18.15 -23.05 -17.6 -22.9 -17.45 -22.9 -17.4 -22.8 -17.3 -22.8 -17.25 -22.6 -17.05 -22.45 -17.05 -22.3 -17.1 -21.9 -17.1 -22.05 -17.15 -22.1 -17.2 -22.2 -17.25 -22.3 -17.35 -22.4 -17.4 -22.4 -17.45 -22.65 -17.7 -22.7 -17.7 -22.7 -17.85 -22.8 -17.95 -22.8 -18.05 -22.85 -18.05 -22.85 -18.85 -22.8 -18.9 -22.8 -19.05 -22.75 -19.1 -22.7 -19.1 -22.7 -19.15 -22.6 -19.25 -22.6 -19.45 -22.5 -19.55 -22.4 -19.6 -22.3 -19.6 -22.15 -19.55 -22.0 -19.55 -21.9 -19.5 -21.8 -19.4 -21.8 -19.3 -21.55 -19.3 -21.35 -19.35 -21.2 -19.35 -20.95 -19.45 -20.95 -19.75 -20.9 -19.8 -20.9 -19.9 -20.85 -20.0 -20.85 -20.45 -20.75 -20.55 -20.6 -20.6 Q-20.5 -20.65 -20.5 -20.75 L-20.5 -20.8 -20.45 -20.8 -20.55 -20.75 -20.6 -20.7 -20.65 -20.7 -20.75 -20.65 -20.8 -20.6 -21.0 -20.5 -21.0 -20.45 M-20.4 -20.9 L-20.4 -20.9 M-5.8 -20.8 L-5.65 -20.8 -5.45 -20.85 -5.4 -20.9 -5.4 -20.95 -5.25 -21.05 -5.05 -21.15 -5.05 -21.25 -4.8 -21.5 -4.8 -21.65 -4.75 -21.7 -4.75 -21.75 -4.6 -21.8 -4.45 -21.9 -4.4 -21.95 -4.25 -22.0 -4.15 -22.0 -4.1 -22.05 -3.8 -22.05 -3.65 -22.0 -3.5 -22.0 -3.7 -22.2 -3.7 -22.35 -4.1 -22.35 -4.3 -22.3 -4.35 -22.25 -4.45 -22.25 -4.6 -22.2 -4.7 -22.1 -4.75 -22.1 -4.75 -22.05 -4.8 -22.0 -4.8 -21.9 -4.9 -21.8 Q-5.0 -21.75 -5.05 -21.75 L-5.15 -21.75 -5.15 -21.85 -5.2 -21.9 -5.2 -21.95 -5.25 -21.95 -5.25 -22.0 -5.3 -21.95 -5.4 -21.9 -5.45 -21.85 -5.35 -21.75 -5.35 -21.4 Q-5.35 -21.3 -5.35 -21.25 L-5.45 -21.15 -5.6 -21.1 -5.7 -21.0 -5.7 -20.95 -5.75 -20.9 -5.75 -20.85 -5.8 -20.8 M-5.95 -20.7 L-6.0 -20.65 -6.1 -20.65 -6.05 -20.6 -6.0 -20.65 -5.95 -20.65 -5.95 -20.7 M-8.75 -19.4 L-8.8 -19.35 -8.8 -19.2 -8.5 -19.2 -8.5 -19.3 -8.45 -19.4 -8.25 -19.55 -8.2 -19.6 -8.05 -19.8 -7.95 -19.9 -8.0 -19.9 -8.4 -19.85 -8.4 -19.7 -8.45 -19.65 -8.45 -19.6 -8.55 -19.5 -8.65 -19.45 -8.7 -19.45 -8.75 -19.4 M-7.3 -18.95 L-7.2 -18.9 -7.15 -18.8 -6.8 -18.75 -6.65 -18.7 -6.3 -18.55 Q-6.1 -18.5 -6.0 -18.4 L-5.95 -18.35 -5.95 -18.25 -5.9 -18.2 Q-5.45 -18.15 -5.0 -18.25 L-4.9 -18.25 -4.45 -18.2 -4.3 -18.2 -4.2 -18.15 -4.15 -18.1 -4.15 -18.05 -4.05 -17.95 -4.0 -17.95 -3.8 -18.0 -3.65 -18.05 -3.2 -18.05 -3.4 -18.15 -3.5 -18.25 -5.2 -18.3 -5.35 -18.35 -5.45 -18.4 -5.55 -18.5 -5.7 -18.55 -5.75 -18.6 -6.25 -18.6 -6.3 -18.65 -6.4 -18.7 -6.5 -18.7 -6.55 -18.75 -6.7 -18.75 -6.85 -18.8 -7.05 -18.9 -7.05 -19.0 -7.1 -19.0 -7.15 -19.05 -7.55 -19.05 -7.4 -19.0 -7.35 -19.0 -7.3 -18.95 M-0.8 -21.85 L-0.9 -21.8 -0.4 -21.8 -0.4 -21.9 -0.35 -21.95 -0.45 -22.05 -0.55 -22.05 -0.65 -22.0 -0.8 -21.85 M-1.25 -21.6 L-1.1 -21.75 -1.05 -21.75 -1.45 -21.7 Q-1.75 -21.65 -2.0 -21.6 L-2.3 -21.6 -2.4 -21.65 -2.85 -21.65 -3.0 -21.7 -3.1 -21.75 -2.95 -21.6 -2.75 -21.5 -2.7 -21.5 -2.45 -21.45 -2.3 -21.45 -2.2 -21.4 -1.3 -21.4 -1.25 -21.45 -1.25 -21.6 M-1.55 -18.15 L-2.2 -18.1 -2.5 -18.05 -2.1 -18.05 -1.8 -17.95 -1.7 -17.9 -1.55 -17.85 -1.5 -17.8 -1.3 -17.8 -1.1 -17.75 -1.05 -17.7 -1.0 -17.7 -0.95 -17.65 -0.95 -17.4 -1.0 -17.35 -1.05 -17.35 -1.15 -17.25 -1.15 -17.15 -1.2 -17.1 -1.35 -17.0 -1.4 -17.0 -1.4 -16.65 -1.45 -16.65 -1.6 -16.5 -2.0 -16.45 Q-2.2 -16.4 -2.35 -16.3 L-2.45 -16.2 -2.4 -16.15 -2.4 -16.05 -2.35 -16.0 -2.35 -15.95 -2.3 -15.9 -2.3 -15.8 -1.55 -15.75 -1.45 -15.7 -1.3 -15.65 -1.3 -15.6 -1.1 -15.4 -1.05 -15.4 -1.0 -15.3 -0.95 -15.25 -0.95 -15.1 -0.9 -15.05 -0.85 -15.05 -0.85 -14.7 -0.8 -14.65 -0.8 -14.5 -0.7 -14.4 -0.7 -14.35 -0.6 -14.25 -0.6 -14.05 -0.7 -13.95 -0.7 -13.85 -0.8 -13.75 -0.95 -13.65 Q-0.95 -13.6 -1.05 -13.55 L-0.8 -13.55 -0.65 -13.6 -0.5 -13.75 -0.5 -14.15 -0.35 -14.3 -0.35 -14.35 -0.3 -14.4 -0.3 -14.45 -0.25 -14.5 -0.25 -14.9 -0.15 -15.0 -0.15 -15.3 -0.25 -15.4 -0.55 -15.55 -0.65 -15.55 -0.7 -15.6 -0.8 -15.65 -0.8 -15.7 -1.05 -15.7 -1.1 -15.75 -1.25 -15.75 -1.3 -15.8 -1.4 -15.85 -1.4 -16.15 -1.35 -16.2 -1.35 -16.25 -1.3 -16.3 -1.3 -16.4 -0.9 -16.8 -0.8 -16.85 -0.8 -17.0 -0.7 -17.1 -0.7 -17.15 -0.6 -17.25 -0.6 -17.35 -0.7 -17.45 -0.7 -17.5 -0.8 -17.6 -1.0 -17.7 -1.0 -17.75 -1.1 -17.8 -1.2 -17.95 -1.45 -18.2 -1.55 -18.15 M-41.25 -21.55 L-41.35 -21.5 -41.45 -21.5 -41.35 -21.4 -41.25 -21.35 -40.55 -21.4 -40.65 -21.4 -40.7 -21.45 -40.75 -21.45 -40.75 -21.5 -40.9 -21.5 -41.0 -21.55 -41.25 -21.55 M-40.9 -18.8 L-40.85 -18.85 -41.15 -18.85 -41.2 -18.8 -41.2 -18.75 -41.25 -18.7 -41.25 -18.65 -41.2 -18.6 -41.2 -18.5 -41.1 -18.4 -41.0 -18.35 -40.9 -18.25 -40.9 -18.2 -40.85 -18.15 -40.65 -18.1 -40.6 -18.1 -40.6 -18.2 -40.8 -18.3 -40.9 -18.3 -40.9 -18.35 -40.95 -18.4 -40.95 -18.7 -40.9 -18.75 -40.9 -18.8 M-37.55 -21.3 L-37.6 -21.35 -37.65 -21.35 -37.85 -21.4 -37.9 -21.4 -38.35 -21.45 -38.4 -21.5 -38.45 -21.5 -38.6 -21.55 -38.65 -21.6 -38.8 -21.6 -38.85 -21.65 -38.95 -21.7 -39.25 -21.7 -39.35 -21.65 -39.4 -21.65 -39.45 -21.6 -39.65 -21.5 -39.8 -21.45 -39.9 -21.4 -40.0 -21.4 -40.1 -21.35 -39.85 -21.35 -39.7 -21.4 -39.6 -21.4 -39.5 -21.45 -39.4 -21.45 -39.1 -21.55 -38.65 -21.55 -38.5 -21.5 -38.4 -21.45 -38.35 -21.4 -38.3 -21.4 -38.3 -21.35 -38.15 -21.4 -37.9 -21.4 -37.6 -21.3 -37.55 -21.3 M-36.4 -20.7 L-36.45 -20.65 -36.45 -20.6 -36.5 -20.55 -36.6 -20.5 -36.75 -20.45 -36.85 -20.4 -37.0 -20.35 -37.4 -20.35 -37.35 -20.3 -37.25 -20.25 -36.55 -20.35 -36.5 -20.35 -36.5 -20.45 -36.45 -20.5 -36.45 -20.55 -36.35 -20.65 -36.35 -20.7 -36.4 -20.75 -36.45 -20.75 -36.4 -20.7 M-37.8 -19.6 L-37.8 -19.7 -37.9 -19.7 -37.9 -19.45 -37.85 -19.5 -37.85 -19.55 -37.8 -19.6 M-37.9 -19.35 L-37.9 -19.4 -37.95 -19.3 -38.05 -19.2 -38.0 -19.2 -37.9 -19.3 -37.9 -19.35 M-38.05 -19.2 L-38.15 -19.1 -38.25 -19.1 -38.3 -19.05 -38.25 -19.05 -38.1 -19.2 -38.05 -19.2 M-26.95 -15.1 L-27.1 -15.05 -27.15 -15.0 -27.3 -14.95 -27.4 -14.85 -27.55 -14.75 -27.55 -14.5 -27.45 -14.55 -27.3 -14.65 -27.05 -14.75 -26.75 -14.8 -26.2 -14.8 -26.1 -14.85 -26.0 -14.95 -25.85 -15.05 -25.75 -15.1 -25.45 -15.15 -24.4 -15.15 -24.3 -15.2 -23.25 -15.2 -23.1 -15.15 -23.0 -15.05 -22.8 -14.95 -22.7 -14.95 -22.6 -14.85 -22.5 -14.8 -22.45 -14.75 -22.45 -14.65 -22.3 -14.7 -22.2 -14.75 -22.15 -14.75 -22.15 -14.85 -22.0 -15.0 -21.9 -15.05 Q-21.75 -15.2 -21.6 -15.35 L-21.4 -15.5 -21.25 -15.65 -21.25 -15.75 -21.2 -15.75 -21.15 -15.8 -21.15 -16.3 -21.1 -16.4 -21.1 -16.45 -21.05 -16.45 -21.05 -16.8 -21.0 -16.8 -21.0 -16.85 -20.9 -16.95 -20.95 -17.0 -21.3 -17.0 -21.3 -16.95 -21.25 -16.9 -21.25 -16.5 -21.35 -16.4 -21.35 -16.35 -21.4 -16.3 -21.4 -16.25 -21.45 -16.2 -21.45 -16.1 -21.5 -16.1 -21.6 -16.0 -21.65 -15.85 -21.75 -15.8 -21.95 -15.6 -21.95 -15.55 -22.05 -15.5 -22.0 -15.45 -22.0 -15.3 -22.15 -15.15 -22.45 -15.15 -22.7 -15.2 -22.75 -15.25 -23.4 -15.25 -23.55 -15.3 -23.75 -15.4 -23.8 -15.45 -23.85 -15.45 -24.35 -15.55 Q-24.8 -15.45 -25.25 -15.4 L-25.7 -15.35 -25.8 -15.3 -26.05 -15.25 -26.1 -15.25 -26.6 -15.2 -26.65 -15.2 Q-26.7 -15.15 -26.8 -15.15 L-26.95 -15.1 M-28.45 -14.05 L-28.85 -14.05 -29.1 -14.15 -29.35 -14.2 -29.95 -14.2 -30.05 -14.25 -30.15 -14.35 -30.2 -14.35 -30.2 -14.4 -30.25 -14.45 -30.45 -14.6 -30.6 -14.6 -30.65 -14.65 -31.95 -14.6 -32.1 -14.6 -32.2 -14.55 -32.7 -14.55 -32.7 -14.35 -32.85 -14.2 -33.3 -14.2 -33.65 -14.15 -33.7 -14.15 -33.6 -14.1 -33.6 -14.05 -33.55 -14.0 -33.3 -14.0 -33.15 -13.95 -33.05 -13.9 -32.95 -13.95 -32.75 -14.1 -32.6 -14.25 -32.5 -14.25 -32.45 -14.3 -32.3 -14.35 -32.0 -14.4 -31.85 -14.4 -31.7 -14.35 -31.6 -14.35 -31.4 -14.25 -30.85 -14.25 -30.7 -14.2 -30.6 -14.15 -30.55 -14.1 -30.55 -13.95 -30.6 -13.9 -30.6 -13.85 -30.55 -13.85 -30.1 -13.9 -28.25 -13.9 -28.15 -13.95 -28.1 -14.0 -28.1 -14.05 -28.05 -14.1 -28.35 -14.05 -28.45 -14.05 M-34.65 -14.25 L-34.7 -14.3 -34.8 -14.3 -35.5 -14.25 -35.6 -14.25 -35.6 -14.2 -35.45 -14.05 -35.45 -14.0 -35.4 -13.95 -35.4 -13.75 -35.35 -13.8 -35.2 -13.85 -35.05 -14.0 -34.95 -14.05 -34.9 -14.1 -34.75 -14.15 -34.65 -14.15 -34.3 -14.2 -34.2 -14.15 -34.25 -14.2 -34.3 -14.2 -34.5 -14.25 -34.65 -14.25 M-40.4 -17.85 L-40.4 -17.8 -40.35 -17.8 -40.4 -17.85 M-40.25 -14.85 L-40.35 -14.95 -40.35 -14.6 -40.4 -14.6 -40.5 -14.5 -40.5 -14.45 -40.6 -14.35 -40.6 -14.25 -40.8 -14.05 -40.5 -13.75 -40.5 -13.7 -39.9 -13.7 -39.85 -13.75 -39.75 -13.75 -39.65 -13.8 -39.45 -13.8 -39.3 -13.85 -39.1 -13.85 -38.95 -13.8 -38.85 -13.75 -38.7 -13.7 -38.65 -13.65 -38.6 -13.65 -38.5 -13.55 -38.5 -13.45 -38.4 -13.35 -38.35 -13.35 -38.25 -13.25 -38.25 -13.15 -38.15 -13.05 -38.05 -13.0 -38.0 -12.95 -38.0 -12.85 -38.05 -12.8 -37.0 -12.8 -36.4 -12.85 -36.2 -13.05 -36.05 -13.1 -35.75 -13.25 -35.65 -13.35 -35.65 -13.4 -35.6 -13.45 -35.6 -13.5 -35.75 -13.4 -35.85 -13.25 -35.9 -13.2 -36.0 -13.2 -36.2 -13.1 -36.85 -13.1 -37.9 -13.15 -37.95 -13.2 -38.05 -13.2 -38.2 -13.3 -38.3 -13.4 -38.4 -13.45 -38.6 -13.65 -38.6 -13.75 -38.65 -13.75 -38.8 -13.9 -38.9 -13.95 -38.95 -14.0 -39.85 -14.0 -40.0 -14.05 -40.1 -14.1 -40.15 -14.15 -40.2 -14.15 -40.25 -14.25 -40.25 -14.85 M-40.65 -16.85 L-40.7 -16.8 -40.65 -16.75 -40.6 -16.75 -40.6 -16.85 -40.65 -16.85 M-6.05 -12.15 L-6.05 -12.1 -6.0 -12.1 -5.8 -12.15 -5.7 -12.1 -5.7 -12.3 -5.6 -12.4 -5.6 -12.5 -5.55 -12.5 -5.5 -12.55 -5.5 -12.85 -5.55 -12.8 -5.55 -12.75 -5.6 -12.7 -5.6 -12.55 Q-5.6 -12.5 -5.65 -12.45 L-5.85 -12.25 -6.05 -12.15 M-6.25 -10.25 L-6.1 -10.2 -6.0 -10.15 -5.85 -10.1 -5.8 -10.05 -5.55 -10.0 -5.45 -10.0 -5.4 -9.95 -5.4 -10.0 -5.6 -10.2 -6.05 -10.2 -6.15 -10.25 -6.35 -10.3 -6.3 -10.25 -6.25 -10.25 M-3.8 -12.6 L-3.65 -12.6 -3.6 -12.55 -3.45 -12.45 -3.4 -12.45 -3.7 -12.6 -3.85 -12.65 -3.8 -12.6 M-5.15 -11.6 L-4.95 -11.4 -4.95 -11.25 -4.9 -11.3 -4.9 -11.35 -4.95 -11.4 -4.95 -11.45 -5.0 -11.5 -5.05 -11.5 -5.15 -11.6 M-5.0 -9.7 L-5.2 -9.8 -5.05 -9.65 -5.05 -9.55 -5.0 -9.5 -5.0 -9.45 -4.95 -9.35 -4.95 -9.1 -5.0 -9.05 -5.0 -9.0 -5.1 -8.9 -5.1 -8.85 -5.15 -8.8 -5.15 -8.65 -5.2 -8.6 -5.25 -8.6 -5.2 -8.55 -5.2 -8.5 -5.15 -8.45 -5.15 -8.35 -5.05 -8.25 -5.0 -8.25 -5.0 -8.2 -4.95 -8.15 -4.95 -8.25 -4.85 -8.35 -4.85 -8.45 -4.8 -8.5 -4.8 -8.8 -4.7 -8.9 -4.7 -8.95 -4.6 -9.05 -4.6 -9.55 -4.65 -9.6 -4.8 -9.6 -5.0 -9.7" fill="#8ce6e6" fill-opacity="0.7529412" fill-rule="evenodd" stroke="none"/>
  </g>
</svg>
