<?xml version="1.0" encoding="UTF-8" standalone="no"?>
<svg xmlns:ffdec="https://www.free-decompiler.com/flash" xmlns:xlink="http://www.w3.org/1999/xlink" ffdec:objectType="shape" height="25.45px" width="73.4px" xmlns="http://www.w3.org/2000/svg">
  <g transform="matrix(1.0, 0.0, 0.0, 1.0, 54.9, 32.55)">
    <path d="M1.05 -32.3 L1.05 -32.2 1.3 -32.2 1.35 -32.25 1.55 -32.25 1.65 -32.3 2.05 -32.25 2.1 -32.25 2.2 -32.2 2.2 -32.15 2.4 -31.95 2.4 -31.9 2.45 -31.9 2.55 -31.85 2.75 -31.65 2.65 -31.6 2.6 -31.65 2.4 -31.75 2.35 -31.8 2.25 -31.85 2.2 -31.9 2.15 -31.9 2.1 -31.95 2.0 -32.0 1.95 -32.05 1.95 -32.1 1.65 -32.1 1.35 -32.05 0.9 -32.05 0.8 -32.15 0.8 -32.25 0.75 -32.3 0.55 -32.4 -0.55 -32.4 -0.65 -32.35 -0.65 -32.2 -0.7 -32.15 -0.7 -31.9 -0.65 -31.85 -0.65 -31.7 -0.6 -31.55 -0.6 -31.45 -0.7 -31.35 -0.7 -31.3 -0.8 -31.25 -0.85 -31.25 -0.9 -31.2 -0.9 -31.1 -1.0 -31.0 -1.0 -30.9 -0.95 -30.9 -0.75 -30.8 -0.65 -30.7 -0.65 -30.55 -0.7 -30.5 -0.55 -30.5 Q-0.3 -30.55 -0.1 -30.6 L0.3 -30.6 0.2 -30.5 0.15 -30.5 0.15 -30.45 -0.05 -30.45 -0.1 -30.4 -0.2 -30.35 -0.25 -30.3 -0.55 -30.3 -0.55 -30.25 -1.0 -30.3 -1.05 -30.3 -1.05 -30.5 -0.95 -30.6 -1.0 -30.6 -1.15 -30.65 -1.2 -30.65 -1.3 -30.6 -1.35 -30.55 -1.5 -30.55 -1.55 -30.5 -1.8 -30.5 -1.85 -30.55 -2.0 -30.55 -2.05 -30.6 -2.05 -30.7 -2.15 -30.8 -2.15 -30.85 -2.2 -30.9 -2.2 -31.0 -2.3 -31.05 -2.3 -31.1 -2.45 -31.1 -2.65 -31.2 -2.75 -31.2 Q-2.8 -31.15 -2.85 -31.15 L-3.15 -31.05 -3.2 -31.0 -3.2 -30.9 -3.15 -30.85 -2.95 -30.7 -2.9 -30.65 -2.9 -30.6 -2.8 -30.5 -2.8 -30.45 -2.85 -30.4 -2.85 -30.35 -3.05 -30.35 -3.05 -30.25 -3.1 -30.2 -3.2 -30.15 -3.15 -30.1 -3.15 -30.0 -3.25 -29.9 -3.3 -29.8 -3.4 -29.75 -3.5 -29.75 -3.4 -29.7 -3.25 -29.6 -3.1 -29.55 -3.0 -29.45 -2.9 -29.3 -2.65 -29.25 -2.45 -29.15 -2.3 -29.05 -2.0 -29.0 -1.55 -28.9 -1.25 -28.8 -1.1 -28.7 -0.95 -28.65 -0.75 -28.55 -0.75 -28.35 -0.65 -28.3 -0.55 -28.2 -0.55 -28.0 -0.4 -27.95 -0.35 -27.85 -0.2 -27.7 -0.15 -27.7 0.0 -27.75 0.1 -27.75 0.2 -27.65 0.25 -27.55 0.7 -27.4 0.9 -27.45 1.0 -27.5 1.1 -27.6 1.2 -27.65 1.25 -27.7 2.35 -27.75 2.6 -27.7 2.8 -27.5 2.9 -27.45 3.0 -27.35 3.05 -27.25 3.05 -27.1 3.1 -27.0 3.3 -26.9 3.4 -26.8 3.85 -26.7 4.0 -26.65 4.25 -26.6 4.35 -26.5 4.45 -26.45 4.8 -26.4 5.0 -26.3 5.05 -26.2 5.25 -26.15 5.6 -26.15 5.65 -26.2 Q5.65 -26.25 5.65 -26.3 L5.75 -26.4 5.75 -26.65 5.85 -26.75 6.0 -26.8 6.15 -26.9 6.25 -27.0 6.55 -27.05 6.75 -27.05 6.95 -27.0 7.15 -26.9 7.25 -26.8 7.35 -26.75 7.4 -26.75 8.0 -26.7 8.25 -26.65 8.4 -26.5 8.4 -26.4 8.45 -26.3 8.55 -26.2 8.7 -26.1 9.15 -25.95 9.3 -25.85 9.4 -25.8 9.5 -25.6 9.45 -25.5 9.45 -25.35 9.5 -25.25 9.65 -25.1 9.95 -24.95 10.0 -24.95 10.25 -25.0 10.4 -25.1 10.55 -25.15 10.9 -25.15 11.15 -25.1 11.3 -25.05 11.5 -25.0 11.6 -24.9 11.65 -24.8 11.65 -24.55 Q11.7 -24.5 11.75 -24.45 L11.9 -24.35 11.95 -24.3 12.0 -24.2 12.0 -24.1 11.95 -24.05 11.9 -23.95 11.9 -23.9 11.95 -23.95 12.0 -23.9 12.0 -23.85 12.05 -23.8 12.05 -23.7 12.1 -23.65 12.2 -23.6 12.35 -23.6 12.45 -23.65 12.6 -23.7 12.75 -23.7 12.85 -23.75 13.05 -23.95 13.05 -24.05 13.15 -24.1 13.25 -24.2 13.65 -24.2 13.8 -24.1 13.95 -23.95 14.1 -23.85 14.15 -23.8 14.15 -23.7 14.2 -23.65 14.3 -23.6 14.4 -23.6 14.5 -23.5 14.65 -23.5 14.75 -23.55 14.8 -23.6 14.9 -23.65 14.95 -23.7 15.1 -23.75 15.5 -23.75 15.6 -23.7 15.75 -23.55 15.8 -23.45 15.95 -23.4 15.95 -22.95 15.85 -22.85 15.85 -22.75 15.8 -22.7 15.95 -22.7 16.05 -22.65 16.05 -22.6 16.35 -22.6 16.65 -22.65 17.15 -22.65 17.25 -22.6 17.4 -22.55 17.5 -22.5 17.55 -22.5 17.5 -22.45 17.6 -22.35 17.6 -22.3 17.7 -22.2 17.7 -22.05 17.75 -22.0 Q17.8 -22.0 17.85 -21.95 L17.95 -21.95 18.1 -21.85 18.3 -21.7 18.4 -21.65 18.4 -21.6 18.5 -21.55 18.5 -21.1 18.35 -20.95 18.35 -20.9 18.3 -20.85 18.3 -20.8 18.25 -20.75 18.25 -20.65 18.15 -20.55 18.05 -20.55 18.05 -20.6 18.1 -20.65 18.1 -20.85 18.2 -20.95 18.15 -21.0 18.25 -21.1 18.25 -21.35 18.15 -21.45 18.15 -21.55 18.05 -21.65 18.0 -21.65 17.8 -21.7 17.8 -21.75 17.75 -21.8 17.4 -21.85 17.35 -21.9 17.3 -21.9 17.35 -21.95 17.35 -22.0 17.4 -22.05 17.55 -22.1 17.6 -22.1 17.6 -22.15 17.5 -22.25 17.4 -22.25 17.3 -22.35 17.0 -22.4 16.9 -22.5 16.8 -22.5 16.8 -22.45 16.35 -22.45 16.3 -22.4 15.95 -22.45 15.9 -22.4 15.75 -22.3 15.55 -22.3 15.55 -22.1 15.5 -22.05 15.5 -21.95 15.45 -21.85 15.45 -21.75 15.4 -21.75 15.3 -21.7 15.3 -21.6 15.25 -21.6 15.25 -21.75 15.3 -21.8 15.25 -21.85 15.25 -22.0 15.15 -22.1 15.05 -22.1 14.95 -22.2 14.95 -22.4 15.0 -22.45 15.05 -22.45 15.05 -22.5 15.2 -22.5 15.2 -22.55 15.35 -22.5 15.5 -22.5 15.65 -22.6 15.6 -22.6 15.6 -22.7 15.75 -22.85 15.8 -22.85 15.8 -22.95 15.85 -23.0 15.85 -23.3 15.75 -23.4 15.55 -23.45 15.45 -23.45 15.35 -23.5 15.25 -23.5 15.15 -23.45 15.1 -23.4 15.0 -23.35 14.95 -23.35 14.85 -23.3 Q14.85 -23.25 14.8 -23.25 L14.25 -23.25 14.2 -23.3 14.2 -23.35 14.15 -23.4 14.0 -23.45 13.95 -23.5 13.95 -23.6 14.0 -23.65 14.0 -23.7 13.85 -23.75 13.75 -23.85 13.65 -23.85 13.45 -23.95 13.4 -23.95 13.35 -23.9 13.35 -23.8 13.15 -23.6 13.05 -23.55 13.0 -23.55 12.85 -23.5 12.8 -23.45 12.75 -23.45 12.75 -23.4 12.5 -23.4 12.45 -23.35 12.2 -23.35 12.1 -23.4 12.1 -23.05 12.2 -22.95 12.25 -22.85 12.25 -22.8 12.3 -22.7 12.4 -22.6 12.45 -22.5 12.45 -22.1 12.35 -22.0 12.2 -21.9 12.1 -21.8 11.95 -21.75 11.65 -21.45 11.1 -21.45 10.8 -21.5 10.65 -21.6 10.15 -21.65 9.75 -21.85 9.55 -21.9 9.45 -21.95 9.25 -22.0 9.1 -22.1 8.95 -22.15 8.8 -22.25 8.5 -22.35 8.4 -22.4 8.15 -22.45 7.85 -22.65 7.75 -22.7 7.45 -22.75 7.1 -22.8 6.6 -22.85 Q6.55 -22.8 6.5 -22.8 L6.0 -22.7 6.1 -22.65 6.15 -22.55 6.15 -22.45 6.2 -22.35 6.2 -22.1 6.1 -22.05 6.0 -21.95 6.0 -21.85 5.9 -21.75 5.75 -21.65 5.7 -21.6 5.65 -21.6 5.45 -21.55 3.75 -21.55 3.3 -21.6 2.9 -21.6 2.75 -21.55 2.5 -21.5 2.15 -21.45 1.4 -21.45 1.35 -21.55 1.25 -21.65 1.25 -21.7 Q1.15 -21.75 1.0 -21.8 L0.85 -21.95 0.85 -22.0 0.5 -22.05 0.35 -22.15 0.35 -22.2 0.25 -22.3 -0.25 -22.35 -0.3 -22.3 -0.3 -22.2 -0.25 -22.1 -0.25 -21.95 -0.35 -21.75 -0.5 -21.65 -0.75 -21.6 -1.2 -21.55 -1.5 -21.25 Q-1.95 -21.25 -2.35 -21.25 L-2.45 -21.3 -2.9 -21.4 -3.0 -21.4 -3.3 -21.5 -3.45 -21.65 -3.5 -21.75 -3.8 -21.85 -3.95 -21.95 -4.05 -21.95 Q-4.2 -21.9 -4.3 -21.85 L-4.45 -21.8 -4.65 -21.7 -4.65 -21.6 -4.6 -21.5 -4.55 -21.45 -4.6 -21.35 -4.75 -21.2 Q-4.8 -21.2 -4.9 -21.15 L-4.9 -21.05 -4.95 -20.95 -5.1 -20.9 -5.2 -20.8 -5.35 -20.7 -5.45 -20.65 -5.8 -20.6 -6.35 -20.4 -6.8 -20.25 -6.95 -20.15 -7.2 -20.0 -7.55 -19.8 -7.8 -19.7 -8.05 -19.65 -8.25 -19.45 -8.25 -19.35 -8.2 -19.3 -8.0 -19.2 -7.45 -19.2 -7.2 -19.15 -6.65 -18.95 -6.15 -18.8 -5.85 -18.6 -5.75 -18.55 -5.45 -18.5 -5.25 -18.45 -5.1 -18.4 -4.8 -18.35 -2.9 -18.3 -2.5 -18.2 -2.35 -18.25 -1.45 -18.25 -1.25 -18.2 -1.1 -18.1 -0.95 -18.05 -0.7 -17.85 -0.55 -17.75 -0.45 -17.7 -0.4 -17.6 -0.35 -17.65 -0.25 -17.7 0.05 -17.7 0.1 -17.75 0.1 -17.8 0.2 -17.85 0.2 -18.05 0.3 -18.15 0.3 -18.2 0.35 -18.25 0.45 -18.25 0.45 -18.3 1.0 -18.3 1.15 -18.25 1.25 -18.15 1.25 -18.05 1.3 -18.05 1.3 -18.0 1.4 -17.9 1.4 -17.75 1.35 -17.7 1.4 -17.65 1.6 -17.55 1.65 -17.5 1.65 -17.45 2.35 -17.45 2.5 -17.5 2.55 -17.5 2.8 -17.65 2.85 -17.7 3.15 -17.7 3.25 -17.65 3.35 -17.55 3.5 -17.5 3.6 -17.45 3.6 -17.4 3.65 -17.35 3.7 -17.35 3.8 -17.25 4.0 -17.15 4.05 -17.1 4.05 -17.0 4.1 -17.0 4.2 -16.95 4.2 -16.7 4.25 -16.65 4.2 -16.65 Q4.15 -16.65 4.1 -16.65 L4.0 -16.75 4.0 -16.8 3.8 -17.0 3.7 -17.05 3.55 -17.1 3.45 -17.15 3.4 -17.2 3.1 -17.35 3.05 -17.35 3.05 -17.45 3.0 -17.45 2.95 -17.4 2.9 -17.4 2.8 -17.35 2.7 -17.25 2.45 -17.2 2.45 -17.0 2.55 -16.9 2.55 -16.85 2.45 -16.75 2.4 -16.65 2.3 -16.65 2.6 -16.45 2.6 -16.4 2.65 -16.35 2.7 -16.35 2.7 -16.05 2.55 -15.9 2.5 -15.9 2.5 -15.95 2.4 -16.05 2.4 -16.15 2.35 -16.3 2.2 -16.4 Q2.1 -16.45 2.05 -16.5 L2.05 -16.7 2.1 -16.75 2.2 -16.8 2.3 -16.8 2.35 -16.85 2.35 -16.95 2.3 -17.0 2.3 -17.1 2.25 -17.15 2.25 -17.2 1.45 -17.2 1.35 -17.25 1.35 -17.3 1.15 -17.5 1.15 -17.55 1.1 -17.6 1.1 -17.65 1.05 -17.7 1.1 -17.8 1.05 -17.85 1.05 -17.9 0.95 -18.0 0.95 -18.05 0.6 -18.05 0.5 -17.95 0.5 -17.75 0.45 -17.7 0.45 -17.65 0.35 -17.55 0.25 -17.5 -0.2 -17.45 -0.4 -17.45 -0.5 -17.35 -0.6 -17.15 -0.7 -17.05 -0.65 -17.0 -0.65 -16.8 Q-0.65 -16.75 -0.65 -16.7 L-0.75 -16.65 -0.75 -16.55 -0.85 -16.35 -0.95 -16.3 -1.05 -16.1 -1.15 -16.0 -1.1 -15.95 -1.05 -15.95 -0.8 -15.85 -0.7 -15.8 -0.55 -15.7 -0.3 -15.55 -0.2 -15.45 -0.1 -15.25 -0.15 -15.15 -0.15 -15.0 -0.05 -14.8 0.0 -14.75 0.05 -14.65 0.05 -14.55 0.0 -14.45 0.0 -14.3 Q0.0 -14.25 -0.05 -14.2 L-0.2 -14.15 -0.2 -14.05 -0.25 -13.95 -0.25 -13.7 -0.45 -13.5 -0.65 -13.45 -0.75 -13.35 -1.3 -13.3 -1.45 -13.25 -1.85 -13.15 -1.75 -13.1 -1.6 -13.0 -0.9 -13.0 -0.7 -12.95 -0.5 -12.85 -0.45 -12.75 -0.45 -12.6 Q-0.45 -12.55 -0.5 -12.5 L-0.55 -12.4 -0.5 -12.35 -0.35 -12.25 -0.35 -12.15 -0.3 -12.05 -0.3 -11.7 -0.25 -11.6 -0.2 -11.55 -0.15 -11.45 -0.15 -11.1 -0.2 -11.0 0.15 -11.0 0.4 -11.05 0.6 -11.15 0.95 -11.35 1.0 -11.4 1.3 -11.6 1.6 -11.65 1.7 -11.65 1.8 -11.7 2.1 -11.7 2.55 -11.4 2.8 -11.25 2.8 -11.15 2.85 -11.05 2.85 -11.0 3.05 -10.8 3.25 -10.7 3.25 -10.65 3.3 -10.55 3.45 -10.45 3.75 -10.3 3.85 -10.1 4.0 -9.95 4.0 -9.85 3.95 -9.75 3.85 -9.65 3.75 -9.6 Q2.7 -9.45 1.5 -9.45 L1.5 -9.3 1.55 -9.2 1.7 -9.1 1.8 -9.05 1.95 -8.75 1.95 -8.7 1.9 -8.6 1.9 -8.5 1.85 -8.4 1.75 -8.35 1.55 -8.15 1.35 -8.0 Q1.2 -7.85 1.0 -7.7 L0.55 -7.55 0.25 -7.4 0.1 -7.3 0.0 -7.25 -0.1 -7.15 -0.35 -7.1 -0.65 -7.1 -0.35 -7.25 -0.25 -7.45 -0.2 -7.5 -0.15 -7.6 0.15 -7.8 0.25 -7.85 0.4 -7.95 0.7 -8.05 0.75 -8.15 0.8 -8.2 0.95 -8.3 1.2 -8.4 1.15 -8.45 1.15 -8.6 1.1 -8.65 0.85 -8.7 0.5 -9.05 0.45 -9.15 0.45 -9.3 0.55 -9.4 0.6 -9.5 0.7 -9.6 0.85 -9.65 1.1 -9.75 1.3 -9.8 Q2.4 -9.75 3.1 -9.95 L3.1 -10.0 2.85 -10.05 2.75 -10.15 2.6 -10.2 2.5 -10.4 2.35 -10.5 2.35 -10.65 2.4 -10.75 2.25 -10.9 2.25 -11.0 1.95 -11.2 1.75 -11.25 1.55 -11.05 1.25 -10.9 1.1 -10.8 1.05 -10.75 Q0.85 -10.7 0.7 -10.65 L0.2 -10.5 -0.35 -10.5 -0.55 -10.55 -0.65 -10.5 -0.85 -10.5 -0.95 -10.55 -1.05 -10.75 -1.05 -10.9 -0.95 -11.1 -0.95 -11.2 -1.0 -11.25 -1.05 -11.35 -1.15 -11.45 -1.15 -11.8 -1.2 -11.9 -1.3 -11.95 -1.5 -12.15 -1.5 -12.2 -1.8 -12.25 -1.95 -12.3 -2.05 -12.25 -2.15 -12.15 -2.2 -12.15 -2.3 -12.1 -2.45 -12.05 -2.85 -12.05 -3.3 -12.1 -3.4 -12.2 Q-3.55 -12.3 -3.75 -12.35 -4.1 -12.45 -4.3 -12.65 L-4.45 -12.75 -4.5 -12.8 -4.55 -12.9 -4.65 -12.95 -4.9 -12.95 -5.2 -12.85 -5.2 -12.75 -5.35 -12.6 -5.35 -12.4 -5.5 -12.3 -5.55 -12.25 -5.5 -12.15 -5.2 -11.95 -4.8 -11.7 -4.65 -11.6 -4.6 -11.55 -4.6 -11.25 -4.65 -11.2 -4.75 -11.0 -4.8 -10.95 -5.45 -10.85 -5.65 -10.8 -5.85 -10.8 -6.6 -10.7 -6.55 -10.7 -6.35 -10.65 -6.05 -10.5 -5.9 -10.4 -5.65 -10.3 -5.1 -10.15 -4.6 -9.95 -4.45 -9.8 -4.45 -9.6 -4.4 -9.5 -4.35 -9.45 -4.35 -9.0 Q-4.35 -8.95 -4.4 -8.9 L-4.55 -8.75 -4.55 -8.45 -4.7 -8.3 -4.7 -8.2 -4.75 -8.15 -4.75 -8.05 -4.85 -7.85 -5.15 -7.7 -5.3 -7.65 -5.4 -7.7 -5.4 -7.8 -5.35 -7.85 -5.45 -7.95 -5.45 -8.45 -5.35 -8.55 -5.3 -8.65 -5.3 -9.0 -5.25 -9.1 -5.15 -9.15 -5.15 -9.25 -5.25 -9.35 -5.25 -9.5 -5.2 -9.6 -5.2 -9.65 -5.15 -9.7 -5.45 -9.75 -5.55 -9.8 -5.75 -9.85 -5.8 -9.85 -6.25 -9.95 -6.35 -10.0 -6.65 -10.05 -7.1 -10.15 -7.5 -10.2 -7.6 -10.4 -7.6 -10.5 -7.45 -10.65 -7.35 -10.85 -7.25 -10.9 -7.15 -11.1 -6.9 -11.15 -5.9 -11.15 -5.8 -11.2 -5.65 -11.2 -5.25 -11.25 -5.3 -11.35 -5.4 -11.45 -5.85 -11.75 -5.9 -11.8 -6.2 -11.85 -6.3 -12.05 -6.3 -12.1 -6.25 -12.2 -6.15 -12.3 -6.1 -12.4 -6.1 -12.45 -6.05 -12.55 -5.95 -12.65 -5.9 -12.75 -5.85 -12.8 -5.8 -12.9 -5.65 -13.05 -5.5 -13.15 -5.25 -13.25 -5.05 -13.3 -4.9 -13.35 -4.45 -13.3 -4.25 -13.2 -4.1 -13.15 -3.95 -13.05 -3.9 -12.95 -3.8 -12.85 -3.6 -12.8 -3.3 -12.6 -3.2 -12.5 -2.9 -12.45 -2.8 -12.35 -2.7 -12.3 -2.75 -12.35 -2.7 -12.45 -2.6 -12.5 -2.55 -12.6 -2.7 -12.7 -2.8 -12.75 -2.85 -12.85 -2.85 -13.65 -2.8 -13.7 -2.65 -13.8 -2.6 -13.8 -2.35 -13.85 -2.2 -13.9 -2.0 -14.0 Q-1.95 -14.0 -1.85 -14.05 L-1.65 -14.05 -1.35 -14.0 -1.15 -13.9 Q-1.1 -13.9 -1.05 -13.9 L-0.85 -13.9 -0.85 -14.0 -0.9 -14.05 -0.9 -14.25 -0.85 -14.35 -0.8 -14.4 Q-0.75 -14.45 -0.75 -14.5 L-0.95 -14.7 -0.95 -14.95 -1.0 -15.0 -1.15 -15.1 -1.25 -15.2 -1.4 -15.3 -1.65 -15.4 -2.2 -15.55 -2.7 -15.8 -2.7 -15.9 -2.75 -16.0 -2.75 -16.25 -2.7 -16.35 -2.6 -16.45 -2.45 -16.5 -2.4 -16.5 -2.2 -16.55 -1.85 -16.6 -1.75 -16.8 -1.6 -16.85 -1.55 -16.95 Q-1.5 -17.0 -1.5 -17.05 L-1.5 -17.2 -1.4 -17.4 -1.25 -17.5 -1.35 -17.55 -1.45 -17.65 -1.75 -17.85 -1.85 -17.75 -1.95 -17.7 -2.0 -17.65 -2.35 -17.6 -2.55 -17.65 -2.6 -17.65 Q-2.8 -17.7 -2.95 -17.75 L-3.0 -17.8 -4.95 -17.85 -5.25 -17.95 -5.5 -18.0 -5.8 -18.05 -6.05 -18.1 -6.2 -18.2 -6.4 -18.4 -6.6 -18.45 -6.75 -18.5 -7.0 -18.6 -7.3 -18.65 -7.45 -18.75 -7.55 -18.75 -8.0 -18.8 -8.25 -18.85 -8.7 -19.0 -8.8 -19.1 -8.95 -19.2 -9.05 -19.3 -9.05 -19.35 -9.0 -19.45 -8.9 -19.55 -8.85 -19.65 -8.8 -19.7 -8.6 -19.8 -8.45 -19.9 -8.25 -20.0 -7.8 -20.15 -7.35 -20.35 -7.2 -20.4 -7.05 -20.5 -6.8 -20.6 -6.5 -20.7 Q-6.45 -20.7 -6.4 -20.7 L-6.4 -20.8 -6.35 -20.9 -6.3 -20.95 -6.2 -21.0 -5.8 -21.1 -5.8 -21.2 -5.7 -21.3 -5.65 -21.4 Q-5.6 -21.4 -5.6 -21.45 L-5.6 -21.8 -5.55 -21.9 Q-5.45 -21.95 -5.3 -22.0 L-4.8 -22.15 -4.5 -22.35 -4.3 -22.45 -3.9 -22.45 -3.7 -22.35 -3.55 -22.25 -3.3 -22.15 -2.95 -22.0 -2.75 -21.8 -2.1 -21.75 -1.8 -21.75 -1.7 -21.8 -1.55 -21.9 -1.25 -22.0 -0.95 -22.0 -0.85 -22.1 -0.95 -22.2 -0.95 -22.35 Q-0.85 -22.45 -0.75 -22.55 L-0.4 -22.7 -0.25 -22.8 0.0 -22.8 0.0 -22.85 0.55 -22.85 0.75 -22.8 0.85 -22.7 0.9 -22.6 1.0 -22.55 1.5 -22.45 1.65 -22.3 1.7 -22.2 1.85 -22.1 1.95 -22.0 2.1 -21.95 2.15 -22.0 4.0 -22.05 4.1 -22.1 4.55 -22.1 4.7 -22.05 5.2 -22.1 5.25 -22.15 5.25 -22.25 5.4 -22.35 5.4 -22.4 5.25 -22.5 5.25 -22.6 5.2 -22.7 Q5.15 -22.75 5.1 -22.8 L5.1 -23.05 5.25 -23.15 5.45 -23.2 5.65 -23.15 6.3 -23.2 6.5 -23.25 6.6 -23.35 6.9 -23.45 7.15 -23.4 7.45 -23.35 7.8 -23.35 8.05 -23.3 8.2 -23.2 8.3 -23.15 8.35 -23.15 8.6 -23.05 8.75 -23.0 8.85 -22.9 8.9 -22.9 9.15 -22.85 9.6 -22.55 9.75 -22.5 10.0 -22.4 10.2 -22.3 10.4 -22.25 10.75 -22.15 10.95 -22.1 11.1 -22.05 11.3 -22.0 11.5 -22.0 11.55 -22.05 11.7 -22.15 11.9 -22.25 11.9 -22.35 11.75 -22.5 11.75 -22.6 11.7 -22.7 11.55 -22.85 11.55 -23.3 11.3 -23.55 11.3 -23.65 11.2 -23.85 11.1 -23.9 11.1 -24.0 11.05 -24.1 11.05 -24.15 11.15 -24.15 10.95 -24.3 10.9 -24.4 10.9 -24.5 Q10.75 -24.55 10.65 -24.55 L10.55 -24.5 Q10.45 -24.5 10.35 -24.45 10.2 -24.45 10.05 -24.4 L10.0 -24.35 9.4 -24.4 9.25 -24.45 9.15 -24.65 9.05 -24.75 8.9 -24.8 8.75 -24.9 8.75 -25.3 8.7 -25.35 8.3 -25.4 8.15 -25.55 8.15 -25.65 7.8 -25.85 7.7 -25.95 7.6 -26.0 7.6 -26.1 7.25 -26.2 7.0 -26.25 6.65 -26.35 6.55 -26.3 6.55 -26.2 6.4 -26.05 6.3 -25.85 6.15 -25.7 5.1 -25.7 5.0 -25.75 4.55 -25.8 4.4 -25.95 4.2 -26.0 3.95 -26.05 3.8 -26.15 3.75 -26.2 3.4 -26.3 3.1 -26.35 2.85 -26.4 2.8 -26.5 Q2.75 -26.55 2.75 -26.6 L2.65 -26.7 2.5 -26.75 2.4 -26.85 2.4 -26.95 2.35 -27.05 2.25 -27.1 2.1 -27.2 1.6 -27.2 1.5 -27.1 1.45 -27.1 0.85 -27.0 0.75 -27.0 0.4 -27.05 0.25 -27.1 0.1 -27.2 0.0 -27.3 -0.1 -27.35 -0.4 -27.25 -0.45 -27.25 -0.5 -27.35 Q-0.5 -27.4 -0.5 -27.45 L-0.6 -27.5 -0.7 -27.6 -0.85 -27.9 -0.9 -27.95 -0.9 -28.05 -0.95 -28.15 -1.05 -28.2 -1.1 -28.3 -1.1 -28.4 -1.3 -28.5 -1.5 -28.55 -2.2 -28.65 -2.3 -28.7 -2.55 -28.8 -2.65 -28.85 -2.8 -28.95 -3.05 -28.95 -3.1 -28.9 -3.7 -28.9 -3.8 -28.85 -3.85 -28.85 -4.2 -28.8 -4.25 -28.85 -4.55 -28.8 -6.95 -28.65 -7.15 -28.55 -7.5 -28.55 -7.7 -28.5 -7.8 -28.45 -7.8 -28.35 -7.85 -28.25 -7.95 -28.15 -7.95 -28.1 Q-8.0 -28.05 -8.0 -28.0 L-8.05 -27.9 -8.3 -27.65 -9.2 -27.5 -9.3 -27.45 -9.35 -27.35 -9.45 -27.25 -9.9 -27.1 -10.0 -27.05 -10.0 -27.0 -10.3 -26.9 -10.95 -26.9 -11.25 -27.1 -11.35 -27.15 -12.2 -27.1 -12.35 -27.05 -12.7 -27.0 -12.8 -26.95 -13.25 -26.9 Q-13.25 -26.85 -13.3 -26.85 -13.45 -26.8 -13.6 -26.75 L-13.65 -26.7 Q-13.8 -26.7 -13.9 -26.65 L-14.2 -26.5 -15.0 -26.4 -15.1 -26.35 -15.45 -26.35 -15.7 -26.4 -15.8 -26.5 -15.8 -26.75 Q-15.8 -26.8 -15.85 -26.8 -17.0 -26.95 -18.15 -26.95 L-18.35 -26.9 -18.7 -26.8 -19.0 -26.75 -19.1 -26.65 -19.1 -26.3 -19.15 -26.2 -19.25 -26.15 -19.1 -25.85 -19.1 -25.8 -19.0 -25.7 -18.9 -25.5 -18.8 -25.45 -18.7 -25.25 -18.55 -25.1 -18.55 -24.65 -18.6 -24.55 -18.7 -24.45 -18.7 -24.4 -18.75 -24.3 -18.75 -23.95 -18.85 -23.75 -18.9 -23.7 -18.9 -23.6 -19.0 -23.5 -19.05 -23.4 -19.1 -23.35 -19.1 -23.25 -19.2 -23.15 -19.25 -23.05 -19.25 -23.0 -19.3 -22.9 -19.3 -22.8 -19.35 -22.7 -19.45 -22.65 -19.55 -22.45 -19.7 -22.35 -19.75 -22.3 -19.8 -22.2 -19.9 -22.1 -19.95 -22.0 -20.05 -21.95 -20.1 -21.85 -20.1 -21.75 -20.15 -21.65 -20.2 -21.6 -20.2 -21.5 -20.15 -21.45 -20.15 -21.3 -20.2 -21.05 -20.2 -20.75 -20.25 -20.7 -20.35 -20.5 -20.35 -20.35 -20.4 -20.25 -20.5 -20.15 -20.55 -20.05 Q-20.55 -20.0 -20.6 -20.0 -20.7 -19.95 -20.8 -19.9 L-20.85 -19.8 -20.9 -19.8 -20.8 -19.7 -20.8 -19.35 -20.9 -19.3 -21.0 -19.2 -21.2 -19.2 Q-21.25 -19.15 -21.3 -19.15 -21.35 -19.1 -21.45 -19.1 L-21.85 -19.15 -21.95 -19.2 -22.25 -19.25 -22.35 -19.35 -22.4 -19.45 -22.5 -19.35 -22.5 -19.2 -22.55 -19.0 -22.55 -18.85 -22.65 -18.65 -22.7 -18.6 -22.7 -18.4 Q-22.7 -18.35 -22.75 -18.35 L-22.8 -18.35 -22.8 -17.9 -22.75 -17.8 -22.65 -17.7 -22.5 -17.6 -22.4 -17.5 -22.2 -17.45 -21.75 -17.4 -21.2 -17.2 -21.05 -17.15 -20.95 -17.25 -20.8 -17.35 -20.25 -17.35 -20.15 -17.3 -19.85 -17.25 -19.85 -17.2 -19.8 -17.2 -19.7 -17.15 -19.65 -17.1 -19.55 -17.05 -19.2 -17.05 -19.05 -17.0 -19.0 -17.0 -18.8 -17.1 -18.75 -17.15 -18.6 -17.2 -18.55 -17.2 -18.45 -17.25 -18.3 -17.25 -18.25 -17.35 -18.2 -17.35 -18.2 -17.4 -18.35 -17.55 -18.35 -17.7 -18.3 -17.75 -18.3 -17.8 -18.25 -17.85 -18.25 -17.9 -18.2 -17.95 -18.1 -18.0 -18.05 -18.0 -18.05 -18.05 -17.9 -18.1 -17.85 -18.15 -17.85 -18.25 -17.75 -18.35 -17.75 -18.4 -17.65 -18.5 -17.65 -18.55 -17.55 -18.65 -17.55 -18.7 -17.5 -18.75 -17.5 -18.8 -17.4 -18.9 -17.35 -19.0 -17.25 -19.1 -17.2 -19.1 -17.15 -19.2 -17.05 -19.3 -17.05 -19.4 -17.0 -19.4 -16.8 -19.6 -16.8 -19.75 -16.95 -19.9 -17.1 -19.9 -17.3 -19.95 -17.35 -20.0 -17.35 -20.15 -17.3 -20.2 -17.3 -20.25 -17.25 -20.3 -17.25 -20.4 -17.2 -20.45 -17.0 -20.45 -16.95 -20.5 -16.95 -20.55 -16.55 -20.75 -16.45 -20.75 -16.4 -20.7 -16.4 -20.65 -16.55 -20.6 -16.6 -20.55 -16.6 -20.5 -16.65 -20.45 -16.75 -20.4 -16.95 -20.4 -16.95 -20.35 -16.9 -20.25 -16.9 -20.2 -16.7 -20.1 -16.75 -20.05 -16.7 -20.0 -16.6 -19.95 -16.6 -19.9 -16.55 -19.9 -16.5 -19.85 -16.5 -19.55 -16.45 -19.5 -16.45 -19.4 -16.7 -19.4 -16.7 -19.45 -16.8 -19.35 -16.8 -19.25 -16.85 -19.2 -16.9 -19.2 -17.0 -19.1 -17.05 -19.0 -17.15 -18.9 -17.15 -18.85 -17.25 -18.75 -17.25 -18.7 -17.35 -18.6 -17.35 -18.55 -16.95 -18.5 -16.8 -18.5 -16.65 -18.35 -16.65 -18.3 -16.6 -18.25 -16.5 -18.2 -16.45 -18.15 -16.35 -18.1 -16.25 -18.0 -16.3 -17.95 -16.25 -17.95 -15.85 -18.15 -15.8 -18.2 -15.75 -18.2 -15.55 -18.25 -15.5 -18.3 -15.4 -18.3 -15.25 -18.35 -15.15 -18.4 -14.8 -18.45 -14.7 -18.45 -14.65 -18.4 -14.7 -18.35 -14.85 -18.3 -15.05 -18.3 -15.25 -18.2 -15.35 -18.1 -15.45 -18.05 -15.5 -18.05 -15.65 -18.0 -15.7 -17.95 -15.8 -17.9 -15.85 -17.85 -15.9 -17.85 -15.95 -17.8 -16.05 -17.75 -16.2 -17.7 -16.45 -17.7 -16.65 -17.8 -16.65 -17.85 -16.7 -17.9 -16.6 -18.0 -16.7 -18.05 -16.75 -18.05 -16.85 -18.15 -16.85 -18.25 -16.9 -18.3 -17.0 -18.35 -17.35 -18.35 -17.4 -18.3 -17.5 -18.3 -17.55 -18.25 -17.55 -18.2 -17.6 -18.2 -17.6 -18.1 Q-17.6 -18.0 -17.7 -17.95 L-17.7 -17.9 -17.8 -17.8 -17.9 -17.75 -17.9 -17.7 -18.0 -17.6 -18.0 -17.35 -17.95 -17.3 -17.85 -17.25 -17.8 -17.2 -17.8 -17.05 -17.85 -17.0 -17.95 -16.95 -18.15 -16.95 -18.25 -16.9 -18.3 -16.85 -18.45 -16.8 -18.55 -16.8 -18.6 -16.75 -18.75 -16.7 -19.05 -16.7 -19.2 -16.85 -19.35 -16.9 -19.55 -16.9 -19.65 -17.0 -19.75 -17.05 -19.8 -17.05 -19.95 -17.1 -20.35 -17.1 -20.4 -17.15 -20.4 -17.2 -20.65 -17.2 -20.8 -17.15 -20.8 -17.1 -20.85 -17.05 -20.8 -17.05 -20.8 -16.8 -20.9 -16.7 -20.95 -16.6 -20.95 -16.35 -20.9 -16.25 Q-20.9 -16.2 -20.95 -16.15 L-21.1 -16.0 -21.1 -15.8 -21.2 -15.75 -21.3 -15.65 Q-21.3 -15.45 -21.5 -15.25 -21.7 -15.05 -22.05 -14.85 L-22.3 -14.7 -22.35 -14.7 -22.55 -14.65 -22.9 -14.65 -23.3 -14.75 -23.85 -14.9 -24.0 -14.9 -24.7 -15.0 -25.55 -14.95 -25.75 -14.9 -25.85 -14.85 Q-26.1 -14.8 -26.4 -14.7 -26.75 -14.6 -27.1 -14.55 L-27.4 -14.5 -27.5 -14.5 -27.35 -14.35 -27.4 -14.25 -27.5 -14.15 -27.9 -14.0 -28.1 -13.9 -28.25 -13.8 -28.35 -13.75 -30.15 -13.75 -30.2 -13.7 -30.8 -13.75 -30.95 -13.9 -30.95 -14.1 -30.9 -14.2 -32.25 -14.25 -32.3 -14.2 Q-32.35 -14.15 -32.4 -14.1 L-32.5 -14.05 -32.55 -14.0 -32.8 -13.95 -32.9 -13.9 -33.2 -13.85 -33.35 -13.8 -33.6 -13.75 -33.75 -13.7 -33.75 -13.8 -33.7 -13.85 -33.85 -13.85 -34.25 -13.9 -34.35 -13.95 -34.85 -13.95 -34.85 -13.7 Q-34.9 -13.6 -35.0 -13.55 -35.1 -13.4 -35.3 -13.25 L-35.5 -13.05 -35.6 -13.0 -35.85 -12.95 -35.85 -12.9 -36.05 -12.95 -36.05 -12.9 -36.15 -12.8 -36.35 -12.75 -37.4 -12.75 -37.35 -12.7 -37.05 -12.7 -37.0 -12.65 -36.9 -12.6 -36.8 -12.6 -36.7 -12.55 -36.65 -12.5 -36.55 -12.5 -36.55 -12.25 -36.6 -12.2 -36.65 -12.2 -36.65 -12.15 -36.35 -12.1 -36.3 -12.1 -36.15 -12.05 -36.1 -12.0 -36.1 -11.95 -36.0 -11.9 -35.95 -11.85 -35.95 -11.5 -35.9 -11.5 -35.8 -11.45 -35.8 -11.3 -35.7 -11.25 -35.7 -11.2 -35.6 -11.15 -35.55 -11.15 -35.45 -11.2 -35.15 -11.3 -35.15 -11.35 -35.05 -11.4 -34.65 -11.4 -34.45 -11.45 -34.15 -11.5 -34.1 -11.55 -33.55 -11.5 -33.45 -11.5 -33.05 -11.45 -33.05 -11.5 -33.0 -11.5 -32.95 -11.55 -32.95 -11.6 -32.9 -11.65 -32.8 -11.65 -32.6 -11.55 -32.45 -11.5 -32.4 -11.5 -32.3 -11.4 -32.3 -11.15 -32.25 -11.1 -32.25 -11.05 -32.2 -11.0 -32.2 -10.9 -32.15 -10.9 -32.1 -10.85 -32.1 -10.75 -32.0 -10.65 -32.0 -10.55 -31.95 -10.55 -31.9 -10.5 -31.9 -10.35 -32.0 -10.25 -31.85 -10.2 -31.3 -10.25 -31.05 -10.25 -30.9 -10.3 -30.8 -10.3 -30.7 -10.4 -30.7 -10.45 -30.75 -10.5 -30.75 -10.55 -30.8 -10.55 -30.75 -10.6 -30.75 -10.65 -30.7 -10.7 -30.5 -10.8 -30.05 -10.8 -30.0 -10.75 -29.95 -10.75 -29.75 -10.7 -29.6 -10.7 -29.5 -10.6 -29.4 -10.55 -29.35 -10.5 -29.3 -10.5 -29.15 -10.45 -29.15 -10.4 -29.65 -10.4 -29.75 -10.45 -29.8 -10.45 -30.2 -10.5 -30.25 -10.55 -30.35 -10.55 -30.45 -10.5 -30.45 -10.35 -30.55 -10.25 -30.55 -10.2 -30.6 -10.15 -30.75 -10.15 -30.7 -10.1 -31.7 -10.05 -31.7 -10.0 -31.65 -9.95 -31.65 -9.85 -31.75 -9.8 -31.75 -9.75 -31.8 -9.7 -32.25 -9.7 -32.35 -9.6 Q-32.4 -9.6 -32.45 -9.6 L-32.45 -9.35 -32.05 -9.15 -31.65 -9.15 -31.55 -9.1 -31.45 -9.1 -31.35 -9.05 -31.35 -9.0 -31.3 -8.95 -31.3 -8.7 -31.2 -8.65 -31.2 -8.6 -31.1 -8.5 -31.1 -8.35 -31.05 -8.3 -31.05 -8.25 -31.15 -8.25 -31.3 -8.4 -31.3 -8.45 -31.45 -8.6 -31.45 -8.65 -31.55 -8.75 -31.55 -8.8 -31.5 -8.8 -31.45 -8.85 -31.45 -8.95 -31.6 -9.0 -31.95 -9.0 -31.95 -8.95 -32.15 -9.0 -32.2 -9.05 -32.35 -9.1 -32.35 -9.15 -32.55 -9.15 -32.65 -9.25 -32.65 -9.65 -32.55 -9.75 -32.45 -9.75 -32.35 -9.8 -32.3 -9.85 -32.05 -9.85 -32.0 -9.8 Q-31.95 -9.8 -31.95 -9.85 L-31.9 -9.85 -31.95 -9.9 -32.05 -9.95 -32.05 -10.0 -31.95 -10.0 -31.95 -10.05 -32.0 -10.05 -32.2 -10.1 -32.2 -10.3 -32.1 -10.4 -32.2 -10.5 -32.2 -10.55 -32.25 -10.6 -32.25 -10.65 -32.35 -10.75 -32.35 -10.9 -32.4 -10.9 -32.45 -10.95 -32.45 -11.15 -32.55 -11.2 -32.65 -11.3 -33.0 -11.3 -33.05 -11.35 -33.55 -11.4 -34.05 -11.4 -34.1 -11.35 -34.3 -11.35 -34.5 -11.25 -34.75 -11.2 -34.85 -11.2 -34.95 -11.1 -35.0 -11.1 -35.2 -11.05 -35.25 -11.05 -35.35 -11.0 -35.4 -10.95 -35.8 -10.95 -35.9 -11.0 -35.95 -11.05 -35.95 -11.15 -36.05 -11.25 -36.05 -11.3 -36.0 -11.35 -36.0 -11.4 -36.05 -11.4 -36.1 -11.45 -36.1 -11.55 -36.05 -11.6 -36.05 -11.8 -36.15 -11.8 -36.25 -11.85 -36.25 -11.9 -36.3 -11.9 -36.45 -11.95 -36.45 -12.0 -36.65 -12.0 -36.85 -12.05 -36.9 -12.1 -36.7 -12.3 -36.7 -12.35 -36.75 -12.35 -36.8 -12.45 -37.0 -12.5 -37.15 -12.55 -37.2 -12.55 -37.4 -12.6 -37.45 -12.6 -37.55 -12.65 -37.8 -12.65 Q-37.9 -12.65 -37.95 -12.7 L-37.9 -12.75 -38.0 -12.8 -38.05 -12.85 -38.15 -12.9 -38.6 -12.95 -38.75 -13.05 -38.9 -13.2 -38.9 -13.45 -38.95 -13.45 -39.3 -13.5 -39.45 -13.55 -40.6 -13.55 -40.8 -13.65 -40.9 -13.75 -40.9 -13.85 -41.05 -14.0 -41.05 -14.25 Q-41.0 -14.55 -40.95 -14.9 L-40.9 -15.6 -40.8 -16.1 Q-40.8 -16.25 -40.75 -16.35 L-40.8 -16.45 -40.9 -16.55 -40.9 -16.65 -40.85 -16.7 -40.85 -17.15 -40.75 -17.35 -40.7 -17.4 -40.65 -17.5 Q-40.65 -17.55 -40.65 -17.6 L-40.65 -17.7 -40.7 -17.75 -40.85 -17.85 -40.95 -17.95 -41.3 -18.05 -41.45 -18.1 -41.6 -18.2 -41.6 -18.75 -41.55 -18.8 -41.4 -18.9 -41.1 -19.0 Q-40.95 -19.05 -40.85 -19.05 L-40.55 -19.15 -39.1 -19.2 -38.9 -19.25 -38.4 -19.3 -38.3 -19.4 Q-38.25 -19.45 -38.25 -19.5 L-38.25 -19.6 -38.3 -19.65 -38.3 -19.75 -38.25 -19.85 -38.25 -19.9 -38.15 -20.0 -38.0 -20.05 Q-37.9 -20.1 -37.8 -20.15 L-37.65 -20.2 -37.5 -20.35 -37.4 -20.4 -37.3 -20.5 -37.15 -20.55 -37.1 -20.6 -36.85 -20.65 -36.9 -20.75 -37.0 -20.8 -37.3 -21.0 -37.35 -21.05 -37.95 -21.1 -38.0 -21.2 -38.0 -21.25 -38.05 -21.25 -38.55 -21.3 Q-38.6 -21.3 -38.65 -21.35 L-39.25 -21.3 -39.3 -21.25 -39.35 -21.25 -39.65 -21.15 -39.85 -21.1 -40.0 -21.1 -40.9 -21.2 -41.0 -21.25 -41.05 -21.25 -41.45 -21.3 -41.6 -21.4 -41.75 -21.45 -42.2 -21.55 -42.4 -21.65 -42.45 -21.75 -42.6 -21.9 -42.7 -21.95 -42.7 -22.0 -43.15 -22.05 -43.35 -22.15 -43.45 -22.25 -43.6 -22.3 -43.9 -22.5 -44.0 -22.55 -44.2 -22.6 -45.0 -22.55 Q-45.05 -22.55 -45.1 -22.55 L-45.4 -22.45 -45.55 -22.35 -46.0 -22.2 -46.2 -22.2 -46.4 -22.25 -46.55 -22.25 -47.25 -22.3 -47.4 -22.35 -48.0 -22.35 -48.15 -22.25 -48.25 -22.2 -48.75 -22.1 -48.8 -22.05 -49.65 -22.0 Q-49.65 -21.95 -49.7 -21.95 L-49.85 -21.85 -49.9 -21.8 -49.85 -21.7 -49.75 -21.6 -49.75 -21.1 -49.8 -20.9 -49.8 -20.8 -49.9 -20.75 -50.0 -20.65 -50.15 -20.55 -50.25 -20.5 -50.4 -20.45 -51.25 -20.4 -51.35 -20.35 Q-51.4 -20.3 -51.45 -20.3 L-52.05 -20.35 -52.2 -20.4 -52.35 -20.5 -52.4 -20.4 -52.5 -20.3 -52.55 -20.2 -52.7 -20.1 -52.9 -20.0 -52.95 -19.95 -53.25 -19.9 -53.4 -19.8 -53.5 -19.7 -53.6 -19.65 -53.75 -19.55 -53.85 -19.5 -53.85 -19.45 -54.4 -19.45 -54.75 -19.5 -54.85 -19.6 -54.9 -19.7 -54.85 -19.8 -54.7 -19.95 -54.4 -19.95 -54.15 -20.0 -54.05 -20.05 -53.9 -20.15 -53.8 -20.25 -53.7 -20.3 -53.65 -20.35 -53.4 -20.4 -53.25 -20.5 -53.1 -20.55 -53.0 -20.75 -52.9 -20.8 -52.6 -21.0 -52.4 -21.05 -52.2 -21.05 -51.95 -21.0 -51.85 -20.9 -51.7 -20.8 -51.45 -20.8 -50.5 -20.85 -50.3 -21.05 -50.3 -21.3 -50.45 -21.45 -50.5 -21.55 -50.5 -22.05 -50.3 -22.25 -50.15 -22.35 -49.95 -22.45 -48.95 -22.5 -48.7 -22.6 -48.4 -22.7 -48.15 -22.8 -47.0 -22.8 -46.85 -22.7 -46.45 -22.75 -46.35 -22.85 -46.2 -22.9 -45.9 -23.1 -45.4 -23.2 -45.1 -23.25 -44.4 -23.25 -43.85 -23.2 -43.7 -23.2 -43.65 -23.25 -43.65 -23.5 -43.55 -23.6 -43.55 -23.65 -43.35 -23.7 -43.3 -23.75 -42.35 -23.75 -41.55 -23.8 -41.4 -23.75 -41.35 -23.75 -41.3 -23.7 -41.2 -23.65 -41.1 -23.55 -40.9 -23.45 -40.9 -23.4 -40.85 -23.35 -40.8 -23.35 -40.8 -23.3 -40.7 -23.2 -40.7 -23.05 -40.65 -23.0 -40.65 -22.95 -40.55 -22.85 -40.45 -22.8 -40.35 -22.8 -40.25 -22.75 -40.2 -22.75 -40.1 -22.7 -39.6 -22.7 -39.55 -22.65 -39.45 -22.65 -39.25 -22.55 -39.1 -22.55 -39.05 -22.5 -38.6 -22.45 -38.55 -22.4 -37.45 -22.4 -37.35 -22.35 -37.25 -22.25 -37.2 -22.25 -37.0 -22.3 -36.9 -22.3 -36.75 -22.35 -36.7 -22.35 -36.65 -22.4 -36.4 -22.35 -36.3 -22.35 -36.2 -22.3 -36.1 -22.2 -35.9 -22.05 -35.75 -21.95 -35.7 -21.9 -35.7 -21.8 -35.65 -21.75 -35.65 -21.65 -35.55 -21.65 -35.5 -21.6 -35.5 -21.4 Q-35.55 -21.35 -35.6 -21.4 L-35.6 -21.5 -35.65 -21.55 -35.7 -21.55 Q-35.75 -21.55 -35.8 -21.6 L-35.85 -21.65 -35.85 -21.7 -35.95 -21.8 -35.95 -21.85 -36.05 -21.9 -36.1 -21.95 -36.3 -22.1 -36.4 -22.2 -36.5 -22.25 -36.6 -22.2 -36.9 -22.15 -37.35 -22.15 -37.5 -22.3 -39.05 -22.4 -39.2 -22.45 -39.3 -22.5 -39.45 -22.5 -39.45 -22.55 -39.6 -22.55 -40.05 -22.6 -40.25 -22.6 -40.45 -22.7 -40.7 -22.75 -40.8 -22.85 -40.8 -23.15 -40.85 -23.2 -41.05 -23.3 -41.1 -23.35 -41.2 -23.4 -41.25 -23.4 -41.35 -23.45 -41.45 -23.55 -41.55 -23.6 -41.6 -23.65 -43.25 -23.55 -43.35 -23.5 -43.35 -23.45 -43.45 -23.35 -43.45 -23.15 -43.5 -23.1 -43.45 -23.05 -43.15 -22.9 -43.05 -22.8 -42.9 -22.7 -42.8 -22.65 -42.7 -22.55 -42.55 -22.45 -42.25 -22.3 -42.1 -22.2 -42.1 -22.1 -41.95 -22.0 -41.8 -21.85 -41.55 -21.65 -41.35 -21.6 -40.65 -21.6 -40.45 -21.55 -39.95 -21.55 -39.8 -21.65 -39.6 -21.75 -39.45 -21.75 -38.3 -21.7 -38.1 -21.6 -37.75 -21.55 -37.65 -21.45 -37.65 -21.35 -37.2 -21.3 -36.85 -21.2 -36.7 -21.1 -36.55 -20.95 -36.4 -20.85 -36.35 -20.9 -36.35 -20.95 -36.3 -21.0 -36.25 -21.0 -36.05 -21.05 -36.0 -21.05 -35.8 -21.1 -35.8 -21.2 -35.75 -21.25 -35.55 -21.35 -35.45 -21.35 -35.3 -21.3 -35.2 -21.3 -35.15 -21.25 -35.15 -21.05 -35.2 -21.0 -35.3 -20.95 -35.35 -20.95 -35.5 -20.9 -35.55 -20.85 -35.55 -20.8 -35.6 -20.8 -35.75 -20.75 -35.8 -20.75 -35.95 -20.8 -36.0 -20.75 -36.1 -20.75 -36.25 -20.6 -36.2 -20.5 -36.25 -20.4 -36.35 -20.35 -36.55 -20.15 -36.85 -20.0 -36.9 -20.0 -37.1 -19.95 -37.45 -19.95 -37.6 -19.85 -37.75 -19.8 -37.65 -19.7 -37.55 -19.5 Q-37.55 -19.45 -37.6 -19.45 L-37.65 -19.35 -37.75 -19.25 -37.8 -19.15 -37.9 -19.1 -38.0 -19.0 -38.2 -18.95 -38.35 -18.95 -38.9 -18.9 Q-39.0 -18.9 -39.1 -18.85 L-40.5 -18.8 Q-40.55 -18.75 -40.6 -18.75 -40.75 -18.7 -40.85 -18.65 L-40.85 -18.6 -40.8 -18.5 -40.8 -18.3 -40.6 -18.25 -40.45 -18.15 -40.2 -18.05 -40.1 -17.95 -40.1 -17.45 -40.15 -17.25 -40.25 -17.2 -40.6 -17.2 -40.65 -17.1 -40.65 -16.75 -40.6 -16.65 -40.55 -16.6 -40.4 -16.5 -40.35 -16.2 -40.25 -15.7 -40.15 -15.1 -40.1 -14.55 -40.1 -14.4 -40.05 -14.35 -39.65 -14.25 -39.4 -14.2 -39.25 -14.15 -39.0 -14.05 -38.55 -13.95 -38.35 -13.9 -38.25 -13.85 -38.2 -13.75 -38.2 -13.55 -38.15 -13.5 -38.05 -13.45 -37.85 -13.4 -37.6 -13.35 -37.45 -13.25 -37.35 -13.2 -37.1 -13.15 -36.55 -13.15 -36.25 -13.1 -36.25 -13.3 -36.2 -13.35 -36.05 -13.45 -35.85 -13.65 -35.85 -13.7 -35.8 -13.8 -35.7 -13.9 -35.7 -14.25 -35.75 -14.35 -35.85 -14.4 -35.85 -14.75 -35.8 -14.85 -35.65 -14.9 -35.45 -14.95 -35.3 -14.95 -35.05 -14.9 -34.9 -14.8 -34.8 -14.7 -34.75 -14.6 -34.7 -14.55 -34.55 -14.5 -34.2 -14.45 -34.0 -14.4 -33.85 -14.4 -33.8 -14.35 -33.35 -14.4 -32.9 -14.55 -32.9 -14.65 -32.85 -14.75 -32.55 -14.8 -30.75 -14.8 -30.5 -14.75 -30.2 -14.45 -30.2 -14.4 -29.3 -14.35 -29.05 -14.3 -28.65 -14.3 -28.2 -14.45 -27.95 -14.5 -28.0 -14.5 -28.1 -14.6 -28.15 -14.7 Q-28.1 -14.9 -27.7 -14.95 -27.35 -15.0 -27.1 -15.1 -26.6 -15.2 -26.1 -15.35 -25.85 -15.4 -25.65 -15.45 L-25.45 -15.5 -24.2 -15.5 -24.0 -15.55 -23.85 -15.55 -23.3 -15.4 -22.7 -15.25 -22.3 -15.55 -22.05 -15.75 -21.9 -15.9 -21.85 -16.0 -21.85 -16.15 -21.7 -16.25 Q-21.65 -16.3 -21.65 -16.35 L-21.6 -16.45 -21.6 -16.6 -21.55 -16.8 -21.75 -16.9 -22.0 -17.0 -22.75 -17.0 -22.85 -17.05 -23.0 -17.15 -23.0 -17.25 -23.05 -17.35 -23.1 -17.4 -23.25 -17.5 -23.35 -17.6 Q-23.45 -17.75 -23.45 -17.95 L-23.4 -18.4 -23.35 -18.75 -23.35 -18.8 -23.3 -18.9 -23.3 -19.0 Q-23.35 -19.1 -23.35 -19.25 L-23.35 -19.85 -23.1 -20.1 -23.05 -20.2 -22.75 -20.3 -22.5 -20.25 -22.2 -20.2 -21.95 -20.1 -21.85 -20.05 -21.75 -19.85 -21.65 -19.8 -21.6 -19.75 -21.6 -20.0 -21.5 -20.05 -21.45 -20.15 Q-21.4 -20.2 -21.4 -20.25 L-21.25 -20.4 -21.2 -20.5 -21.0 -20.7 -20.8 -20.85 -20.65 -20.95 -20.55 -20.95 -20.6 -21.1 -20.7 -21.3 -20.65 -21.4 -20.55 -21.5 -20.6 -21.6 -20.65 -21.75 -20.7 -22.0 -20.65 -22.1 -20.55 -22.2 -20.5 -22.3 -20.45 -22.35 -20.4 -22.45 -20.3 -22.55 -20.25 -22.65 -20.2 -22.7 -20.2 -22.8 -20.05 -22.9 -20.0 -23.0 -20.0 -23.15 -19.9 -23.25 -19.85 -23.35 -19.85 -23.4 -19.7 -23.7 -19.65 -23.75 -19.65 -23.85 -19.55 -23.95 -19.5 -24.05 -19.45 -24.1 -19.45 -24.55 -19.35 -24.75 -19.3 -24.8 -19.3 -24.9 -19.35 -25.0 -19.6 -25.25 -19.7 -25.45 -19.8 -25.5 -19.8 -25.6 -19.85 -25.7 -20.0 -25.85 -20.0 -26.3 -19.8 -26.5 -19.8 -27.0 -19.75 -27.1 -19.65 -27.2 -19.5 -27.25 -19.45 -27.25 -19.3 -27.3 -19.0 -27.35 -18.95 -27.4 -18.95 -27.45 -18.9 -27.5 -18.85 -27.5 -18.85 -27.55 -18.75 -27.65 -18.75 -27.9 -18.8 -27.95 -18.9 -28.0 -18.95 -28.05 -19.1 -28.1 -19.2 -28.1 -19.3 -28.05 -19.55 -28.1 -19.65 -28.2 -19.75 -28.25 -19.75 -28.6 Q-19.7 -28.7 -19.6 -28.75 L-19.3 -28.9 -19.25 -28.95 -18.95 -28.95 -18.8 -29.0 -18.75 -29.0 -18.75 -29.05 -18.7 -29.1 -18.7 -29.3 -18.65 -29.35 -18.6 -29.35 -18.6 -29.7 -18.7 -29.8 -18.7 -30.05 -18.75 -30.05 -18.8 -30.15 -18.85 -30.2 -18.85 -30.3 -18.9 -30.35 -18.9 -30.45 -18.85 -30.45 -18.8 -30.5 -18.65 -30.6 -18.45 -30.7 -18.25 -30.85 -18.15 -30.95 -18.15 -31.0 -18.05 -31.05 -18.0 -31.1 -17.85 -31.15 -17.75 -31.2 -17.7 -31.2 -17.6 -31.15 -17.5 -31.05 -17.5 -30.9 -17.45 -30.85 -17.4 -30.85 -17.4 -30.75 -17.45 -30.7 -17.35 -30.6 -17.2 -30.55 -17.0 -30.55 Q-16.8 -30.65 -16.65 -30.75 L-16.3 -30.95 -16.25 -30.95 -16.2 -31.0 -16.1 -31.0 -15.7 -30.9 -15.3 -30.85 -15.1 -30.75 -15.05 -30.7 -15.05 -30.65 -15.0 -30.65 -14.95 -30.6 -14.95 -30.55 -15.05 -30.55 -15.2 -30.6 -15.95 -30.65 -15.95 -30.7 -16.2 -30.75 -16.2 -30.7 -16.35 -30.7 -16.45 -30.65 -16.5 -30.6 -16.6 -30.55 -16.65 -30.5 -16.85 -30.4 -17.35 -30.4 -17.4 -30.45 -17.55 -30.45 -17.65 -30.55 -17.65 -30.7 -17.8 -30.85 -17.85 -30.85 -17.85 -30.8 -17.95 -30.7 -18.05 -30.7 -18.25 -30.5 -18.5 -30.4 -18.55 -30.35 -18.55 -30.3 -18.5 -30.25 -18.5 -30.2 -18.4 -30.1 -18.4 -29.9 -18.35 -29.85 Q-18.3 -29.8 -18.3 -29.75 L-18.3 -29.35 -18.35 -29.3 -18.35 -29.25 -18.4 -29.2 -18.4 -29.0 -18.45 -29.0 -18.5 -28.95 -18.5 -28.9 -18.55 -28.85 -18.55 -28.8 -19.2 -28.8 -19.3 -28.7 Q-19.4 -28.65 -19.45 -28.6 L-19.55 -28.5 -19.55 -28.45 -19.4 -28.3 -18.95 -28.3 -18.85 -28.2 -18.75 -28.2 -18.7 -28.15 -18.6 -28.1 -18.55 -28.05 -18.55 -27.55 -18.6 -27.5 -18.6 -27.45 -18.45 -27.45 -18.2 -27.5 -17.3 -27.5 -17.05 -27.45 -15.65 -27.4 -15.4 -27.35 -15.3 -27.25 -15.2 -27.2 -15.1 -27.1 -15.1 -27.0 -15.05 -26.95 Q-15.0 -26.95 -14.9 -26.9 L-14.6 -26.95 -14.35 -27.05 Q-14.25 -27.05 -14.15 -27.1 L-14.05 -27.2 -14.0 -27.2 Q-13.6 -27.25 -13.25 -27.4 L-13.05 -27.45 -12.9 -27.45 -12.35 -27.6 -11.65 -27.6 -11.65 -27.7 -11.5 -27.8 -11.3 -27.85 -11.05 -27.8 -10.95 -27.7 -10.9 -27.7 Q-10.35 -27.8 -9.8 -28.0 L-9.65 -28.1 -9.55 -28.1 Q-9.35 -28.2 -9.2 -28.3 L-8.65 -28.65 -8.6 -28.7 Q-8.6 -28.75 -8.6 -28.8 L-8.45 -28.85 -8.3 -28.95 -8.0 -29.0 -7.1 -29.05 -6.9 -29.1 -6.25 -29.15 -6.0 -29.2 -5.9 -29.2 Q-5.85 -29.25 -5.8 -29.25 L-5.65 -29.25 -5.45 -29.2 -4.65 -29.2 -4.65 -29.3 -4.6 -29.4 -4.3 -29.7 -4.2 -29.75 -3.9 -29.75 -3.9 -29.85 -3.7 -29.85 -3.55 -29.9 -3.45 -29.95 -3.45 -30.05 -3.4 -30.05 -3.35 -30.1 -3.35 -30.25 -3.3 -30.3 -3.2 -30.35 -3.1 -30.45 -3.05 -30.45 -3.1 -30.5 -3.1 -30.55 -3.2 -30.6 -3.2 -30.7 -3.3 -30.75 -3.4 -30.75 -3.45 -30.8 -3.55 -30.95 -3.6 -31.0 -3.6 -31.05 -3.55 -31.05 -3.45 -31.15 -3.3 -31.2 -3.25 -31.25 -3.15 -31.3 -3.0 -31.35 -2.95 -31.4 -2.6 -31.4 -2.45 -31.35 -2.35 -31.35 -2.15 -31.3 -2.05 -31.25 -2.0 -31.25 -2.0 -31.2 -1.95 -31.15 -1.95 -31.1 -1.85 -31.0 -1.85 -30.9 -1.8 -30.85 -1.75 -30.85 -1.75 -30.75 -1.7 -30.7 -1.65 -30.7 -1.55 -30.75 -1.4 -30.75 -1.25 -30.9 -1.2 -30.9 -1.2 -31.1 -1.1 -31.2 -1.1 -31.25 -1.0 -31.35 -1.0 -31.4 -0.95 -31.5 -0.85 -31.55 -0.85 -31.6 -0.8 -31.65 -0.85 -31.7 -0.85 -31.75 -0.9 -31.8 -0.9 -32.2 -0.8 -32.3 -0.8 -32.55 0.6 -32.55 0.75 -32.5 0.85 -32.5 Q0.9 -32.45 1.0 -32.45 L1.0 -32.4 1.05 -32.35 1.05 -32.3 M6.7 -25.65 L6.7 -25.65 M-29.0 -10.55 L-28.5 -10.55 -28.45 -10.5 -28.45 -10.45 -28.5 -10.45 Q-28.75 -10.4 -29.0 -10.35 L-29.0 -10.4 -29.05 -10.45 -29.0 -10.5 -29.0 -10.55" fill="#ffffff" fill-rule="evenodd" stroke="none"/>
  </g>
</svg>
