<?xml version="1.0" encoding="UTF-8" standalone="no"?>
<svg xmlns:ffdec="https://www.free-decompiler.com/flash" xmlns:xlink="http://www.w3.org/1999/xlink" ffdec:objectType="shape" height="25.8px" width="52.15px" xmlns="http://www.w3.org/2000/svg">
  <g transform="matrix(1.0, 0.0, 0.0, 1.0, 25.75, 30.15)">
    <path d="M12.3 -25.7 L12.4 -25.6 12.4 -25.55 12.45 -25.5 Q12.5 -25.35 12.5 -25.25 L12.5 -25.2 Q12.5 -25.15 12.5 -25.1 L12.55 -25.05 12.6 -24.95 12.6 -24.75 12.55 -24.65 12.55 -24.55 Q12.55 -24.5 12.6 -24.5 L12.75 -24.55 12.9 -24.7 13.75 -24.7 13.9 -24.65 14.0 -24.6 14.15 -24.5 14.2 -24.45 14.25 -24.35 14.4 -24.35 14.5 -24.45 14.5 -24.5 14.55 -24.6 14.6 -24.65 14.6 -24.75 14.65 -24.8 14.7 -24.9 14.7 -25.05 14.75 -25.1 14.75 -25.25 14.8 -25.35 14.95 -25.5 15.2 -25.65 15.3 -25.7 15.7 -25.7 16.0 -25.6 16.2 -25.5 16.25 -25.4 16.5 -25.4 16.85 -25.5 17.0 -25.5 17.15 -25.45 17.25 -25.35 Q17.45 -25.35 17.65 -25.35 L17.7 -25.45 17.7 -25.5 17.85 -25.65 17.9 -25.75 17.9 -25.95 17.85 -26.0 17.85 -26.45 17.95 -26.55 18.1 -26.6 18.15 -26.65 18.25 -26.65 18.7 -26.7 18.8 -26.65 18.95 -26.55 19.0 -26.5 19.05 -26.4 19.15 -26.35 Q19.5 -26.2 19.85 -26.15 20.25 -26.05 20.65 -25.85 L20.75 -25.8 20.8 -25.8 21.15 -25.7 21.3 -25.65 21.4 -25.55 21.5 -25.5 21.65 -25.45 21.75 -25.4 21.8 -25.3 21.8 -25.25 21.85 -25.15 21.9 -25.1 21.9 -25.0 22.0 -24.95 22.05 -24.85 22.1 -24.8 22.1 -24.25 22.15 -24.2 22.2 -24.1 22.3 -24.0 22.3 -23.85 22.35 -23.75 22.35 -23.7 22.4 -23.6 22.4 -23.3 22.35 -23.25 22.35 -23.15 22.25 -23.0 21.95 -22.7 21.85 -22.7 21.5 -22.6 20.8 -22.55 20.75 -22.5 Q20.7 -22.45 20.65 -22.45 L20.75 -22.35 20.85 -22.3 20.9 -22.2 20.95 -22.15 21.0 -22.05 21.05 -22.0 21.1 -21.9 21.1 -21.85 21.15 -21.8 21.15 -21.5 Q21.2 -21.3 21.2 -21.1 L21.2 -20.5 21.15 -20.45 21.1 -20.35 21.1 -20.25 21.15 -20.15 21.1 -20.1 21.1 -20.0 21.05 -19.95 21.05 -19.85 21.0 -19.8 21.0 -19.6 21.05 -19.5 21.05 -19.45 21.1 -19.3 21.05 -19.15 21.05 -18.9 20.95 -18.85 20.9 -18.75 20.9 -17.9 20.95 -17.8 21.05 -17.65 21.1 -17.5 21.15 -17.45 21.3 -17.35 21.35 -17.3 21.4 -17.2 21.4 -17.0 21.45 -16.9 21.5 -16.85 21.5 -16.55 21.4 -16.4 21.25 -16.25 21.05 -16.2 20.95 -16.15 20.6 -16.1 20.55 -16.0 20.5 -15.95 20.55 -15.85 20.6 -15.8 20.8 -15.75 20.95 -15.7 21.05 -15.65 21.1 -15.55 21.15 -15.5 21.65 -15.45 21.8 -15.4 21.9 -15.35 21.95 -15.25 22.0 -15.2 22.3 -15.05 22.45 -14.9 22.5 -14.75 Q22.55 -14.65 22.55 -14.55 L22.55 -14.0 22.6 -14.0 22.7 -14.05 22.85 -14.1 23.2 -14.1 23.35 -14.05 23.4 -14.0 23.5 -13.95 23.6 -13.85 23.6 -13.8 23.65 -13.7 23.65 -13.6 23.75 -13.5 23.85 -13.45 23.9 -13.4 23.95 -13.3 24.05 -13.0 24.1 -12.95 24.15 -12.85 24.15 -12.7 24.35 -12.5 24.35 -12.4 24.45 -12.3 24.45 -12.2 24.5 -12.05 24.5 -11.45 24.45 -11.3 24.35 -11.15 24.3 -11.1 24.3 -10.65 24.35 -10.6 24.35 -10.5 24.45 -10.45 Q24.45 -10.4 24.45 -10.35 L24.5 -10.3 25.35 -10.25 25.45 -10.2 25.5 -10.15 Q25.55 -10.15 25.6 -10.1 L25.7 -10.05 25.75 -9.95 25.8 -9.9 25.85 -9.8 25.85 -9.75 25.9 -9.65 25.9 -9.15 25.95 -9.1 26.0 -9.0 26.0 -8.95 26.2 -8.7 Q26.25 -8.55 26.35 -8.4 L26.4 -8.25 26.4 -7.75 26.35 -7.65 26.3 -7.6 26.3 -7.5 26.25 -7.45 26.25 -7.3 26.2 -7.25 26.15 -7.15 26.15 -7.0 26.1 -6.95 26.1 -6.85 26.05 -6.8 26.05 -6.55 26.0 -6.5 25.95 -6.4 25.95 -6.1 26.0 -6.05 26.05 -5.95 26.05 -5.75 26.1 -5.7 26.15 -5.6 26.3 -5.45 26.3 -5.1 Q26.3 -4.95 26.2 -4.85 L25.95 -4.6 25.8 -4.4 25.75 -4.4 25.6 -4.35 25.5 -4.35 25.35 -4.4 25.2 -4.4 25.1 -4.45 25.1 -4.5 Q25.1 -4.6 25.15 -4.65 L25.35 -4.9 25.35 -4.95 25.25 -5.1 25.0 -5.4 25.0 -5.6 24.95 -5.7 24.9 -5.75 24.9 -6.5 24.95 -6.55 25.0 -6.65 25.0 -6.95 25.15 -7.1 25.15 -7.15 25.2 -7.25 25.25 -7.3 25.3 -7.4 25.3 -7.45 25.25 -7.5 25.25 -8.55 25.2 -8.65 25.2 -8.7 25.15 -8.8 25.15 -8.95 25.05 -9.05 24.95 -9.1 24.8 -9.1 24.15 -9.05 24.1 -8.95 24.05 -8.9 23.95 -8.7 23.95 -8.65 23.9 -8.6 23.9 -8.5 23.75 -8.35 23.75 -8.2 23.7 -8.15 23.65 -8.05 23.6 -8.0 23.55 -7.9 23.45 -7.8 23.25 -7.7 23.2 -7.6 22.9 -7.6 22.9 -7.0 22.85 -6.9 22.8 -6.85 22.8 -6.6 22.75 -6.55 22.7 -6.45 22.65 -6.4 22.65 -6.25 22.6 -6.15 22.55 -6.1 22.55 -5.95 22.5 -5.9 22.45 -5.8 22.35 -5.75 22.35 -5.7 22.3 -5.65 22.3 -5.55 22.2 -5.5 22.15 -5.4 22.0 -5.4 21.95 -5.5 21.9 -5.55 21.85 -5.65 21.8 -5.7 21.75 -5.8 21.75 -6.6 21.7 -6.65 21.65 -6.75 21.65 -7.35 21.7 -7.4 21.75 -7.5 21.75 -7.55 21.8 -7.6 21.8 -8.5 Q21.8 -8.55 21.85 -8.6 L21.85 -8.65 22.0 -8.8 22.1 -8.95 22.25 -8.95 22.5 -9.0 22.65 -8.95 22.75 -8.9 22.75 -9.25 22.8 -9.3 22.8 -9.4 22.85 -9.45 22.85 -9.6 22.9 -9.7 Q22.95 -9.8 22.95 -9.9 L22.9 -10.2 22.95 -10.6 22.9 -10.8 22.95 -10.85 23.0 -10.95 23.0 -11.3 23.05 -11.4 23.1 -11.45 23.1 -11.75 23.15 -11.85 23.15 -11.9 23.1 -12.0 23.1 -12.05 23.05 -12.15 22.9 -12.2 22.8 -12.3 22.2 -12.45 21.45 -12.6 21.4 -12.65 21.3 -12.7 20.95 -13.05 Q20.85 -13.15 20.8 -13.3 L20.8 -13.95 20.85 -14.0 20.9 -14.1 20.95 -14.15 21.1 -14.2 21.15 -14.3 21.2 -14.35 21.2 -14.4 20.75 -14.5 20.65 -14.55 20.55 -14.55 20.4 -14.6 20.25 -14.7 Q20.15 -14.75 20.1 -14.8 L19.8 -15.1 19.65 -15.3 19.4 -15.35 19.35 -15.45 Q19.3 -15.5 19.3 -15.55 L19.3 -15.65 19.25 -15.75 19.2 -15.8 19.2 -15.9 19.15 -15.95 19.1 -16.05 19.1 -16.25 19.15 -16.35 19.15 -16.4 19.2 -16.5 19.2 -16.55 19.25 -16.6 19.3 -16.7 19.45 -16.8 19.55 -16.8 19.75 -16.9 20.1 -17.25 19.9 -17.45 19.9 -17.55 19.85 -17.6 19.8 -17.7 19.8 -19.4 19.85 -19.45 19.9 -19.55 19.9 -19.95 19.85 -20.05 19.85 -20.4 19.8 -20.5 19.75 -20.55 19.75 -20.95 19.65 -21.05 18.9 -21.2 18.85 -21.3 18.75 -21.35 18.7 -21.45 18.5 -21.65 18.5 -22.25 18.55 -22.35 18.55 -22.4 18.5 -22.5 18.5 -23.15 18.55 -23.2 18.55 -23.3 18.6 -23.35 18.65 -23.45 18.7 -23.5 18.85 -23.6 18.95 -23.65 19.45 -23.65 19.6 -23.6 19.75 -23.6 19.8 -23.7 19.95 -23.85 20.05 -23.85 20.15 -23.9 20.25 -24.0 20.25 -24.05 20.1 -24.2 20.0 -24.25 19.45 -24.25 19.3 -24.3 19.25 -24.4 19.2 -24.45 19.0 -24.55 18.95 -24.65 18.85 -24.7 18.7 -24.7 18.45 -24.45 18.35 -24.4 Q18.3 -24.35 18.25 -24.35 L18.1 -24.25 17.65 -24.2 16.2 -24.2 16.15 -24.25 15.85 -24.3 15.8 -24.35 15.7 -24.3 15.65 -24.25 15.65 -24.2 15.6 -24.1 15.55 -24.05 15.5 -23.95 15.5 -23.9 15.45 -23.8 15.45 -23.75 15.4 -23.65 15.35 -23.6 15.3 -23.5 15.3 -23.45 15.05 -23.2 14.95 -23.15 14.8 -23.0 14.75 -22.9 14.65 -22.85 14.65 -22.8 14.5 -22.75 13.65 -22.7 13.5 -22.85 13.5 -23.15 Q13.45 -23.45 13.15 -23.3 12.85 -23.2 12.55 -23.2 L12.5 -23.25 12.3 -23.3 12.2 -23.4 12.2 -23.45 12.05 -23.45 12.0 -23.35 11.95 -23.3 11.9 -23.2 11.9 -23.15 11.75 -23.0 11.7 -22.9 11.65 -22.85 11.6 -22.75 11.5 -22.65 11.5 -22.55 11.45 -22.5 11.4 -22.4 11.35 -22.35 11.3 -22.35 11.25 -22.3 11.0 -22.25 11.0 -21.8 11.05 -21.75 11.05 -21.1 11.0 -21.0 11.0 -20.95 10.95 -20.85 10.9 -20.8 10.9 -20.65 10.85 -20.55 10.8 -20.5 10.75 -20.4 10.75 -20.35 10.7 -20.25 10.65 -20.2 10.65 -19.55 10.6 -19.45 10.6 -19.4 10.45 -19.25 10.4 -19.15 10.35 -19.1 10.35 -19.0 10.2 -18.85 10.2 -18.55 10.15 -18.5 10.1 -18.4 10.05 -18.35 9.95 -18.3 7.2 -18.3 7.15 -18.35 7.0 -18.4 6.95 -18.5 6.9 -18.5 Q6.65 -18.5 6.45 -18.6 6.25 -18.65 6.1 -18.7 L6.05 -18.7 5.8 -18.8 5.75 -18.85 5.55 -18.95 5.5 -19.05 5.5 -19.35 5.45 -19.4 5.4 -19.5 5.4 -19.75 5.45 -19.85 5.5 -19.9 5.5 -20.05 5.55 -20.15 5.55 -20.2 5.6 -20.3 5.6 -20.45 Q5.65 -20.6 5.75 -20.75 5.8 -20.85 5.9 -20.95 L5.9 -21.05 5.95 -21.1 Q6.0 -21.2 6.1 -21.35 L6.2 -21.4 Q6.3 -21.5 6.35 -21.6 L6.35 -21.7 6.3 -21.75 6.25 -21.85 6.25 -22.3 6.3 -22.35 6.3 -22.45 6.35 -22.5 6.35 -22.65 6.4 -22.7 6.45 -22.8 6.45 -22.85 6.5 -22.95 6.5 -23.0 6.55 -23.1 6.6 -23.15 6.75 -23.25 6.8 -23.3 6.85 -23.3 6.95 -23.35 7.3 -23.4 7.15 -23.45 7.1 -23.55 7.0 -23.65 6.0 -23.75 5.95 -23.75 5.8 -23.85 5.75 -23.9 5.7 -24.0 5.55 -24.05 5.45 -24.1 5.3 -24.15 5.25 -24.2 Q5.1 -24.25 5.0 -24.3 L4.95 -24.35 2.85 -24.6 2.8 -24.65 2.6 -24.7 2.5 -24.75 2.45 -24.85 2.25 -25.05 2.2 -25.15 2.2 -25.95 2.25 -26.0 2.3 -26.1 2.3 -26.15 2.35 -26.25 2.35 -26.45 2.4 -26.55 2.45 -26.6 2.5 -26.7 2.55 -26.75 2.55 -26.85 2.6 -26.9 2.6 -27.0 2.75 -27.15 3.0 -27.2 Q3.15 -27.3 3.3 -27.35 L3.3 -27.45 3.35 -27.55 2.4 -27.65 2.3 -27.75 Q2.1 -27.75 1.95 -27.8 1.7 -27.9 1.4 -27.95 L1.35 -28.0 1.25 -28.05 Q1.2 -28.05 1.2 -28.1 L0.55 -28.15 0.45 -28.2 0.45 -28.25 -0.05 -28.25 -0.25 -28.15 -0.35 -28.15 -0.55 -28.25 -0.75 -28.2 -0.85 -28.15 -1.45 -28.1 -1.45 -28.05 Q-1.5 -27.9 -1.6 -27.8 L-1.95 -27.45 Q-2.15 -27.25 -2.3 -26.95 L-2.3 -26.5 -2.35 -26.4 -2.4 -26.35 -2.4 -26.1 -2.45 -26.05 -2.45 -25.9 -2.5 -25.8 -2.6 -25.7 -2.65 -25.6 -2.7 -25.55 -2.7 -25.45 -2.8 -25.4 -2.8 -25.3 -2.85 -25.25 -2.9 -25.15 -2.95 -25.1 Q-3.0 -25.1 -3.05 -25.05 L-3.15 -24.95 Q-3.2 -24.95 -3.2 -24.9 L-3.85 -24.85 -3.9 -24.75 -3.95 -24.7 -4.0 -24.7 -4.2 -24.65 -4.35 -24.55 -4.4 -24.5 -4.5 -24.5 -4.75 -24.4 -4.9 -24.3 -5.2 -24.25 -5.25 -24.2 Q-5.3 -24.2 -5.4 -24.15 L-5.55 -24.05 -5.65 -24.0 -6.3 -24.0 -6.45 -24.05 -6.55 -24.1 -6.7 -24.15 -6.8 -24.25 -7.05 -24.3 -7.2 -24.35 -7.4 -24.55 -7.5 -24.45 -7.65 -24.35 -7.7 -24.3 -7.8 -24.25 -7.85 -24.15 -8.0 -24.1 -8.05 -24.0 -8.15 -23.95 -8.55 -23.85 -8.6 -23.8 -9.5 -23.8 -9.65 -23.85 -9.8 -23.85 -9.85 -23.8 -9.9 -23.7 -10.0 -23.65 -10.15 -23.55 -10.2 -23.5 -10.25 -23.4 -10.35 -23.35 -10.5 -23.25 -10.5 -23.2 -10.75 -23.15 -10.9 -23.05 Q-11.05 -22.95 -11.25 -22.85 -11.45 -22.75 -11.65 -22.65 L-11.75 -22.55 -11.8 -22.55 -11.95 -22.45 -12.0 -22.45 -12.2 -22.4 -12.25 -22.3 -12.4 -22.25 -12.45 -22.15 -12.75 -22.05 -12.85 -22.0 -13.1 -21.7 Q-13.35 -21.45 -13.5 -21.15 -13.65 -20.9 -13.85 -20.75 L-13.9 -20.7 -14.0 -20.65 -14.25 -20.6 -14.25 -20.55 -14.55 -20.5 -14.55 -20.45 Q-14.55 -20.4 -14.55 -20.35 L-14.55 -20.3 -14.5 -20.2 -14.5 -20.15 -14.45 -20.05 -14.45 -19.9 -14.4 -19.85 -14.35 -19.75 -14.3 -19.7 -14.3 -18.95 -14.35 -18.9 -14.35 -18.65 -14.4 -18.6 -14.4 -18.5 -14.6 -18.3 -14.75 -18.25 -14.9 -18.15 -15.2 -18.0 -15.65 -18.0 -15.8 -18.05 -15.8 -18.0 -15.75 -17.95 -15.7 -17.85 -15.7 -17.7 -15.75 -17.65 -15.75 -17.5 -15.8 -17.4 -15.85 -17.35 -15.9 -17.25 -15.95 -17.2 -16.0 -17.1 -16.05 -17.05 -16.1 -16.95 -16.2 -16.9 -16.25 -16.8 -16.4 -16.65 -17.35 -16.65 -17.4 -16.7 -17.6 -16.75 -17.7 -16.85 -17.85 -16.9 -17.9 -17.0 -18.1 -17.0 -18.4 -17.05 -18.5 -17.15 -18.5 -17.2 -18.75 -17.3 Q-18.85 -17.35 -18.95 -17.4 L-19.1 -17.55 Q-19.1 -17.6 -19.15 -17.6 L-19.2 -17.55 -19.2 -17.4 -19.25 -17.3 -19.25 -17.25 -19.3 -17.15 -19.35 -17.1 -19.35 -17.0 -19.45 -16.95 -19.55 -16.8 -19.7 -16.65 -19.8 -16.5 -19.95 -16.45 -20.05 -16.35 -20.15 -16.35 -20.5 -16.25 -21.1 -16.25 -21.2 -16.35 -21.35 -16.4 -21.4 -16.5 -21.7 -16.65 -21.75 -16.7 -21.9 -16.7 -21.9 -16.35 -21.95 -16.2 Q-22.0 -16.05 -22.1 -15.9 -22.2 -15.7 -22.3 -15.5 -22.4 -15.35 -22.5 -15.25 L-23.35 -15.25 -23.45 -15.35 -23.45 -15.4 -23.55 -15.4 -23.7 -15.45 -23.75 -15.55 -23.8 -15.6 -24.0 -15.7 -24.05 -15.7 -25.25 -15.8 -25.45 -15.85 -25.5 -15.95 -25.5 -16.15 -25.45 -16.2 Q-25.5 -16.15 -25.6 -16.1 L-25.6 -16.05 -25.7 -16.05 -25.75 -16.1 -25.7 -16.15 -25.7 -16.2 -25.65 -16.2 -25.65 -16.25 -25.6 -16.3 -25.6 -16.35 -25.55 -16.35 -25.55 -16.5 -25.5 -16.5 -25.5 -16.55 -25.45 -16.65 -25.35 -16.65 -25.35 -16.7 -25.3 -16.7 -25.25 -16.75 -25.2 -16.75 -25.1 -16.7 -25.0 -16.75 -24.85 -16.75 -24.8 -16.85 -24.75 -16.9 -24.75 -17.05 -24.6 -17.2 -24.45 -17.25 Q-24.2 -17.3 -23.9 -17.15 L-23.75 -17.0 -23.6 -16.8 Q-23.5 -16.7 -23.45 -16.6 L-23.3 -16.55 -23.1 -16.55 -23.0 -16.6 -23.05 -16.65 -23.05 -17.2 -23.1 -17.25 -23.1 -17.35 -23.15 -17.4 -23.15 -17.85 -23.1 -17.9 -23.1 -18.0 -22.9 -18.15 Q-22.75 -18.3 -22.5 -18.35 L-22.25 -18.35 -22.15 -18.3 -22.0 -18.15 -22.0 -18.1 -21.95 -18.0 -21.8 -17.85 -21.6 -17.85 -21.45 -17.75 -21.25 -17.65 -20.7 -17.7 -20.65 -17.75 -20.6 -17.85 -20.6 -17.9 -20.55 -18.0 -20.5 -18.05 -20.5 -18.25 -20.4 -18.4 Q-20.35 -18.5 -20.3 -18.65 -20.25 -18.75 -20.15 -18.85 L-20.1 -18.95 -19.95 -19.0 -19.85 -19.05 -19.8 -19.1 -19.25 -19.2 -19.2 -19.25 -19.2 -19.4 -19.1 -19.45 -19.05 -19.55 -18.95 -19.55 -18.85 -19.6 -18.7 -19.6 -18.55 -19.55 -18.5 -19.5 -18.45 -19.4 -18.4 -19.35 -18.4 -19.25 -18.35 -19.2 -18.35 -18.65 -18.2 -18.5 -18.05 -18.45 -17.8 -18.3 -17.75 -18.25 -17.7 -18.15 -17.65 -18.1 -16.95 -18.1 -16.95 -18.6 -16.9 -18.65 -16.85 -18.75 -16.8 -18.8 -16.75 -18.9 -16.75 -18.95 -16.7 -19.05 -16.65 -19.1 -16.65 -19.25 -16.6 -19.35 -16.5 -19.4 -15.9 -19.4 -15.75 -19.35 -15.55 -19.25 -15.45 -19.25 -15.45 -19.35 -15.4 -19.4 -15.4 -19.5 -15.45 -19.55 -15.45 -19.65 -15.65 -19.75 -15.7 -19.85 -15.75 -19.9 -15.8 -20.05 -15.85 -20.15 -15.85 -20.2 -15.9 -20.3 -15.95 -20.35 -16.0 -20.45 -16.0 -20.6 -16.05 -20.65 -16.1 -20.75 -16.1 -21.1 -16.05 -21.2 -16.0 -21.25 -15.95 -21.4 -15.85 -21.45 -15.85 -21.55 -15.8 -21.6 -15.75 -21.7 -15.7 -21.75 -15.55 -21.8 -15.2 -21.95 -15.05 -22.0 -14.95 -22.0 -14.85 -21.95 -14.6 -21.9 -14.45 -21.9 Q-14.45 -21.95 -14.4 -21.95 L-14.3 -22.0 -14.15 -22.05 -14.1 -22.1 -14.05 -22.2 -13.95 -22.25 -13.85 -22.35 -13.7 -22.4 -13.7 -22.5 -13.65 -22.55 -13.6 -22.65 -13.55 -22.7 -13.4 -22.8 -13.3 -22.85 -13.2 -23.0 -13.15 -23.05 Q-13.05 -23.1 -13.0 -23.15 L-12.9 -23.2 -12.9 -23.3 -12.85 -23.35 -12.8 -23.45 -12.7 -23.5 -12.45 -23.75 -12.3 -23.8 -12.15 -23.9 -12.15 -23.95 -12.1 -24.05 -12.05 -24.1 -12.0 -24.2 -11.9 -24.2 -11.8 -24.25 -11.55 -24.25 -11.45 -24.2 -11.2 -24.2 -11.15 -24.3 -11.05 -24.4 -11.05 -24.5 -11.0 -24.55 -10.95 -24.65 -10.9 -24.7 -10.9 -24.8 -10.85 -24.95 -10.7 -25.1 Q-10.6 -25.2 -10.5 -25.3 L-10.45 -25.3 -10.25 -25.4 -10.1 -25.45 -9.8 -25.35 -9.6 -25.15 -9.05 -25.15 -8.65 -25.3 -8.15 -25.35 -8.0 -25.5 -7.95 -25.6 -7.9 -25.65 Q-7.9 -25.7 -7.9 -25.75 L-7.85 -25.8 -7.85 -26.1 -7.8 -26.15 -7.75 -26.25 -7.6 -26.4 -7.5 -26.4 -7.2 -26.5 -6.9 -26.5 -6.75 -26.45 -6.65 -26.4 -6.65 -26.3 -6.6 -26.25 -6.55 -26.15 -6.45 -26.0 -6.45 -25.95 -6.4 -25.85 -6.4 -25.8 -6.35 -25.7 -6.35 -25.65 -6.3 -25.6 -5.95 -25.5 -5.25 -25.5 -5.1 -25.55 -5.0 -25.6 -4.95 -25.65 -4.85 -25.7 Q-4.65 -25.75 -4.4 -25.85 -4.2 -25.95 -3.9 -25.95 L-3.85 -26.05 -3.7 -26.2 -3.7 -26.25 -3.65 -26.35 -3.45 -26.65 -3.45 -26.7 -3.5 -26.8 -3.5 -27.35 Q-3.45 -27.5 -3.35 -27.6 L-3.3 -27.7 -3.25 -27.75 -3.25 -27.85 -3.2 -27.9 -3.15 -28.0 -3.15 -28.15 -3.1 -28.2 -2.9 -28.5 -2.75 -28.7 -2.75 -29.1 -2.7 -29.15 -2.75 -29.25 -2.75 -29.35 Q-2.55 -29.4 -2.35 -29.55 -1.85 -29.85 -1.45 -30.15 L-1.4 -30.1 -1.35 -30.0 -1.3 -29.95 -1.25 -29.85 -1.25 -29.65 -1.0 -29.7 -0.85 -29.75 -0.75 -29.75 -0.7 -29.7 -0.7 -29.75 -0.35 -29.75 -0.25 -29.8 -0.1 -29.8 -0.1 -29.85 0.0 -29.85 0.15 -29.8 0.15 -29.75 0.45 -29.6 0.65 -29.55 0.7 -29.45 0.75 -29.4 0.75 -29.3 0.85 -29.25 1.25 -29.25 1.4 -29.2 1.6 -29.0 1.85 -28.95 2.0 -28.9 2.2 -28.85 2.35 -28.85 2.4 -28.95 2.5 -29.1 2.55 -29.15 2.55 -29.25 2.65 -29.4 2.8 -29.45 2.85 -29.55 2.9 -29.6 2.95 -29.6 3.05 -29.65 3.3 -29.65 3.45 -29.6 3.5 -29.55 3.7 -29.45 3.8 -29.5 3.85 -29.6 4.0 -29.65 4.15 -29.65 4.3 -29.6 4.45 -29.45 4.5 -29.35 4.65 -29.3 4.7 -29.2 4.75 -29.15 4.8 -29.05 4.8 -28.7 4.85 -28.65 4.95 -28.6 5.15 -28.4 5.2 -28.3 5.2 -28.25 Q5.1 -28.05 5.1 -27.7 5.1 -27.2 5.25 -26.85 L5.25 -26.75 5.15 -26.7 5.1 -26.6 4.9 -26.4 4.0 -26.3 3.85 -26.15 3.85 -26.1 3.95 -26.0 4.0 -25.9 4.0 -25.75 4.1 -25.75 4.15 -25.8 4.2 -25.9 4.3 -25.95 4.4 -26.05 4.5 -26.1 4.75 -26.1 4.9 -26.05 4.95 -26.0 5.0 -25.9 5.05 -25.9 Q5.15 -25.8 5.25 -25.8 L5.4 -25.75 5.5 -25.7 5.5 -25.6 5.55 -25.55 Q5.6 -25.5 5.65 -25.5 L5.75 -25.45 5.8 -25.35 5.85 -25.3 5.9 -25.3 6.05 -25.2 6.35 -25.05 6.9 -25.05 7.05 -25.1 7.3 -25.15 7.5 -25.35 7.65 -25.4 7.8 -25.4 7.95 -25.35 8.05 -25.3 8.05 -25.2 8.1 -25.15 8.1 -25.05 8.2 -25.0 8.2 -24.9 8.25 -24.85 8.25 -24.7 Q8.25 -24.65 8.25 -24.6 L8.3 -24.55 8.3 -24.45 8.35 -24.4 8.4 -24.3 8.5 -24.25 8.55 -24.15 8.55 -24.1 8.6 -24.05 8.6 -23.75 8.55 -23.6 8.55 -23.5 8.6 -23.45 8.6 -23.3 8.55 -23.2 8.6 -23.15 8.6 -22.9 8.55 -22.85 8.55 -22.8 8.45 -22.65 8.3 -22.5 8.15 -22.3 8.1 -22.25 7.95 -22.2 7.95 -21.85 7.9 -21.75 7.85 -21.7 7.8 -21.6 7.7 -21.55 7.65 -21.45 7.5 -21.4 7.45 -21.3 7.4 -21.25 7.4 -21.2 7.35 -21.1 7.15 -20.9 7.05 -20.75 7.0 -20.65 6.95 -20.5 6.85 -20.3 6.85 -20.2 6.8 -20.15 6.8 -20.05 6.75 -20.0 6.75 -19.75 6.8 -19.7 6.9 -19.65 7.0 -19.55 7.4 -19.5 7.5 -19.45 7.9 -19.4 8.05 -19.35 8.25 -19.35 8.4 -19.4 Q8.45 -19.45 8.5 -19.45 L8.6 -19.5 8.65 -19.6 8.85 -19.7 9.2 -19.75 9.45 -19.8 9.5 -19.9 9.6 -19.95 9.65 -20.05 9.65 -20.35 9.7 -20.4 9.75 -20.5 9.75 -20.65 9.85 -20.8 9.9 -20.85 9.95 -20.95 10.0 -21.1 10.0 -21.8 9.95 -21.9 9.95 -21.95 9.9 -22.05 9.9 -22.4 9.95 -22.5 10.0 -22.55 10.0 -22.6 10.05 -22.7 10.1 -22.75 10.1 -22.85 10.2 -23.0 10.4 -23.2 10.45 -23.2 10.55 -23.25 10.7 -23.3 10.75 -23.35 10.8 -23.45 10.8 -23.5 10.85 -23.6 10.9 -23.65 10.95 -23.75 10.95 -23.95 Q10.95 -24.0 10.95 -24.05 L11.0 -24.1 11.05 -24.2 11.05 -24.55 11.1 -24.6 11.1 -24.75 11.15 -24.85 11.15 -24.9 11.2 -25.0 11.2 -25.2 11.25 -25.3 11.3 -25.35 11.35 -25.45 11.35 -25.5 11.4 -25.6 11.5 -25.65 11.75 -25.8 11.85 -25.85 11.9 -25.85 12.0 -25.9 12.05 -25.9 12.2 -25.85 12.2 -25.65 12.25 -25.6 12.25 -25.4 12.3 -25.35 12.3 -25.25 12.25 -25.2 12.25 -25.15 12.2 -25.15 12.2 -25.05 12.0 -24.85 12.1 -24.75 12.3 -24.95 12.3 -25.05 12.35 -25.1 12.35 -25.15 12.4 -25.2 12.4 -25.4 12.35 -25.45 12.35 -25.65 12.3 -25.7 M18.7 -25.9 L18.6 -26.0 18.45 -26.0 18.45 -25.35 18.5 -25.4 19.05 -25.4 19.25 -25.3 19.45 -25.3 19.6 -25.25 19.65 -25.2 19.75 -25.15 19.9 -25.1 20.0 -25.0 20.1 -24.95 20.15 -24.95 20.55 -24.9 20.7 -24.85 20.8 -24.8 20.85 -24.7 21.0 -24.65 21.05 -24.55 21.1 -24.5 21.1 -24.25 20.95 -24.1 20.95 -23.6 20.9 -23.55 20.85 -23.45 20.7 -23.3 20.65 -23.3 20.4 -23.2 20.3 -23.1 20.75 -23.2 Q21.05 -23.3 21.35 -23.3 L21.65 -23.4 21.7 -23.5 21.7 -23.65 21.65 -23.8 21.6 -23.85 21.55 -23.95 21.5 -24.1 21.5 -24.35 21.45 -24.45 21.4 -24.5 21.4 -24.65 21.35 -24.75 21.35 -24.8 21.3 -24.85 21.2 -24.9 Q21.1 -24.95 21.05 -25.0 L21.0 -25.05 20.8 -25.05 Q20.7 -25.1 20.55 -25.15 20.45 -25.2 20.3 -25.3 L20.25 -25.35 19.7 -25.45 Q19.3 -25.55 18.9 -25.7 L18.85 -25.75 18.75 -25.8 18.7 -25.9 M11.75 -24.9 L11.75 -24.6 11.7 -24.5 11.65 -24.45 11.65 -24.3 11.6 -24.25 11.6 -24.0 11.55 -23.95 11.55 -23.85 11.6 -23.9 11.6 -23.95 11.65 -24.05 11.7 -24.1 11.75 -24.2 11.95 -24.2 11.95 -25.05 11.85 -25.05 11.8 -24.95 11.75 -24.9 M13.3 -24.0 L13.45 -24.05 13.15 -24.05 13.0 -23.95 12.95 -23.9 13.0 -23.9 13.3 -24.0 M15.5 -25.0 L15.5 -25.05 15.4 -25.0 15.4 -24.95 Q15.35 -24.95 15.3 -24.9 L15.3 -24.85 15.35 -24.95 15.5 -25.0 M14.15 -23.45 L14.15 -23.4 14.2 -23.4 14.35 -23.45 14.4 -23.55 14.55 -23.7 14.15 -23.7 14.15 -23.45 M20.45 -21.65 L20.2 -21.7 20.25 -21.6 20.4 -21.45 20.5 -21.3 20.5 -21.6 20.45 -21.65 M19.3 -22.95 L19.15 -22.9 19.15 -22.85 Q19.15 -22.8 19.15 -22.75 L19.15 -22.05 19.2 -21.95 Q19.3 -21.9 19.45 -21.85 L19.45 -21.9 19.4 -21.95 19.4 -22.1 19.35 -22.2 19.35 -22.25 19.3 -22.35 19.3 -22.4 19.25 -22.5 19.25 -22.7 19.3 -22.75 19.35 -22.85 19.4 -22.9 19.35 -22.9 Q19.3 -22.9 19.3 -22.95 M19.95 -15.95 L19.95 -16.2 20.0 -16.25 19.9 -16.25 19.7 -16.15 Q19.7 -16.1 19.75 -16.1 L19.75 -16.0 Q19.8 -16.0 19.8 -15.95 19.85 -15.95 19.95 -15.9 L19.95 -15.95 M20.8 -17.0 L20.75 -16.9 20.6 -16.75 20.75 -16.75 Q20.85 -16.8 20.9 -16.85 L20.9 -16.9 20.8 -17.0 M6.75 -24.4 L6.15 -24.4 6.1 -24.45 5.95 -24.55 5.95 -24.5 6.1 -24.45 6.15 -24.35 6.95 -24.3 6.95 -24.35 6.75 -24.4 M5.6 -24.8 L5.55 -24.85 5.5 -24.85 5.3 -24.9 5.25 -24.95 5.25 -25.0 5.1 -25.05 5.05 -25.1 4.85 -25.15 4.7 -25.2 Q4.65 -25.25 4.6 -25.25 L4.55 -25.2 4.5 -25.1 4.4 -25.05 5.0 -25.0 5.15 -24.95 5.2 -24.9 5.35 -24.9 5.5 -24.85 5.55 -24.75 5.6 -24.7 5.65 -24.7 5.6 -24.8 M4.1 -28.8 L4.05 -28.85 4.0 -28.8 3.95 -28.7 3.45 -28.7 3.4 -28.8 3.35 -28.85 3.2 -28.9 3.15 -28.9 3.1 -28.8 2.95 -28.75 2.95 -28.7 2.85 -28.55 2.8 -28.45 2.8 -28.4 2.75 -28.3 3.55 -28.25 3.7 -28.2 3.8 -28.15 3.85 -28.05 3.9 -28.0 3.95 -27.9 4.0 -27.85 4.0 -27.05 3.95 -27.0 4.55 -27.05 4.5 -27.1 4.5 -27.85 4.45 -27.9 4.4 -28.0 4.4 -28.15 4.3 -28.2 4.25 -28.3 4.25 -28.35 4.2 -28.45 4.15 -28.5 4.15 -28.7 4.1 -28.8 M3.2 -26.4 Q3.3 -26.5 3.4 -26.6 L3.4 -26.65 3.25 -26.6 3.1 -26.5 3.1 -26.45 3.0 -26.35 3.0 -26.3 2.95 -26.2 2.95 -26.15 2.9 -26.05 2.9 -25.85 2.85 -25.75 2.8 -25.7 2.8 -25.65 2.75 -25.55 2.8 -25.5 Q2.8 -25.45 2.85 -25.4 L2.85 -25.35 2.9 -25.35 2.95 -25.3 3.1 -25.25 3.5 -25.2 3.5 -25.3 3.45 -25.35 3.45 -25.45 3.25 -25.65 3.25 -25.75 3.2 -25.8 Q3.2 -25.85 3.2 -25.95 L3.2 -26.4 M6.1 -19.75 L6.05 -19.7 6.05 -19.55 6.1 -19.5 6.1 -19.75 M9.0 -18.95 L9.0 -19.05 8.95 -18.95 9.0 -18.95 M21.4 -13.5 L21.6 -13.3 Q21.65 -13.3 21.7 -13.25 L22.35 -13.2 22.6 -13.1 23.05 -12.95 23.15 -12.9 23.2 -12.8 23.3 -12.75 23.4 -12.65 23.5 -12.6 23.55 -12.5 23.6 -12.45 23.6 -12.35 23.65 -12.3 23.65 -12.2 23.7 -12.15 23.7 -12.05 23.75 -12.0 23.75 -11.65 23.7 -11.55 23.7 -11.5 23.65 -11.4 23.65 -11.2 23.6 -11.1 23.6 -11.05 23.55 -10.95 23.55 -10.75 23.5 -10.7 23.5 -9.65 23.55 -9.7 23.6 -9.7 23.8 -9.75 23.95 -9.9 23.85 -10.0 23.8 -10.1 23.8 -10.15 23.75 -10.25 23.75 -10.45 23.7 -10.55 23.7 -11.05 23.75 -11.1 23.75 -11.2 23.8 -11.25 23.8 -11.35 23.85 -11.4 23.85 -11.5 23.9 -11.55 23.9 -11.65 23.95 -11.7 23.95 -11.95 23.85 -12.05 Q23.75 -12.15 23.7 -12.3 L23.6 -12.45 23.6 -12.6 Q23.5 -12.75 23.4 -12.9 23.25 -13.05 23.1 -13.25 23.1 -13.3 23.1 -13.35 L23.1 -13.4 23.0 -13.4 22.95 -13.35 22.75 -13.3 22.7 -13.25 22.4 -13.3 22.35 -13.3 22.25 -13.35 22.1 -13.4 22.05 -13.5 22.0 -13.55 21.9 -13.6 21.9 -14.05 21.95 -14.15 22.0 -14.2 22.0 -14.35 21.95 -14.45 21.95 -14.5 21.9 -14.5 21.8 -14.55 21.75 -14.6 21.8 -14.5 21.8 -14.15 21.75 -14.05 21.7 -14.0 21.65 -13.9 21.55 -13.8 21.5 -13.8 21.35 -13.65 21.4 -13.6 21.4 -13.5 M22.5 -8.25 L22.4 -8.3 22.35 -8.2 22.35 -7.25 22.3 -7.2 22.3 -7.1 Q22.25 -7.0 22.25 -6.9 L22.3 -6.7 22.3 -6.75 22.35 -6.85 22.4 -6.9 22.4 -7.05 22.45 -7.15 22.5 -7.2 22.5 -8.1 22.55 -8.15 22.5 -8.25 M25.85 -8.2 L25.75 -8.35 25.75 -7.85 25.8 -7.75 25.8 -7.7 Q25.85 -7.8 25.9 -7.9 L25.9 -8.0 25.85 -8.05 25.85 -8.2 M-22.5 -17.3 L-22.5 -17.05 -22.45 -17.0 -22.45 -17.3 -22.4 -17.4 -22.35 -17.45 -22.4 -17.45 -22.5 -17.5 -22.5 -17.3 M-24.3 -16.4 L-24.35 -16.35 -24.0 -16.35 -24.1 -16.45 -24.15 -16.55 -24.2 -16.55 -24.25 -16.45 -24.3 -16.4 M-22.85 -15.85 L-22.75 -15.9 -22.9 -15.85 -22.85 -15.85 M-0.7 -28.8 L-0.4 -28.85 -0.3 -28.9 -0.15 -28.95 -0.2 -29.0 -0.25 -29.0 -0.95 -28.95 -0.9 -28.95 -0.8 -28.85 -0.75 -28.85 -0.7 -28.8 M-1.9 -29.65 L-1.9 -29.65 M-1.85 -28.95 L-1.95 -28.9 -2.0 -28.8 -2.0 -28.7 -2.05 -28.6 -2.0 -28.65 -1.95 -28.65 -1.85 -28.7 -1.65 -28.9 -1.7 -28.9 -1.85 -28.95 M-2.75 -27.3 L-2.8 -27.2 -2.8 -27.15 -2.75 -27.25 -2.7 -27.3 -2.75 -27.3 M-10.0 -24.6 L-10.05 -24.65 -10.2 -24.6 -10.3 -24.55 -10.3 -24.45 -10.35 -24.4 -10.35 -24.35 -10.3 -24.35 -10.25 -24.45 -10.1 -24.5 -9.9 -24.5 -10.0 -24.6 M-9.5 -24.45 L-8.75 -24.45 -8.6 -24.5 -8.4 -24.55 -8.3 -24.6 -8.3 -24.65 -8.55 -24.6 -8.8 -24.5 -8.9 -24.45 -9.5 -24.45 M-10.35 -24.2 L-10.35 -24.25 -10.4 -24.2 -10.35 -24.2 M-6.7 -24.95 L-6.75 -25.05 -6.9 -25.2 -6.9 -25.35 -6.95 -25.4 -6.95 -25.5 -7.0 -25.55 -7.05 -25.65 -7.05 -25.7 -7.25 -25.7 -7.25 -25.5 -7.2 -25.5 -7.1 -25.45 -7.0 -25.35 -7.0 -25.3 -6.95 -25.2 -6.95 -25.05 -6.9 -25.0 -6.9 -24.95 -6.7 -24.9 -6.3 -24.7 -6.15 -24.65 -5.85 -24.65 -5.7 -24.7 -5.65 -24.75 -5.95 -24.75 -6.45 -24.85 -6.6 -24.9 -6.7 -24.95 M-11.65 -23.45 L-11.75 -23.35 -11.75 -23.3 -11.65 -23.4 -11.55 -23.45 -11.65 -23.45 M-12.15 -23.05 L-12.15 -23.05 M-19.3 -18.25 L-19.2 -18.3 -18.95 -18.3 -18.85 -18.25 -18.9 -18.35 -18.9 -18.4 -19.25 -18.45 -19.3 -18.35 -19.35 -18.3 -19.5 -18.25 -19.7 -18.25 -19.75 -18.3 -19.85 -18.2 -19.9 -18.1 -19.9 -18.05 -19.95 -18.0 -19.95 -17.75 -20.0 -17.65 -20.05 -17.6 -20.05 -17.5 -20.1 -17.45 -20.05 -17.45 -20.05 -17.2 -20.1 -17.15 -20.1 -17.1 -20.15 -17.05 -20.0 -17.15 -19.95 -17.2 -19.9 -17.3 -19.85 -17.35 -19.8 -17.45 -19.75 -17.5 -19.7 -17.6 -19.7 -17.8 -19.65 -17.9 -19.65 -17.95 -19.6 -18.05 -19.5 -18.15 -19.5 -18.2 -19.4 -18.25 -19.3 -18.25 M-20.6 -16.85 L-20.55 -16.85 -20.5 -16.9 -20.6 -16.85 M-16.3 -18.4 L-16.3 -18.4 M-17.5 -17.4 L-17.4 -17.35 -17.25 -17.3 -17.15 -17.25 -17.1 -17.25 -17.0 -17.3 -16.85 -17.3 -16.7 -17.25 -16.6 -17.25 -16.55 -17.35 -16.35 -17.55 -16.3 -17.65 -16.45 -17.6 -16.55 -17.5 -16.8 -17.4 -17.5 -17.4 M-18.3 -17.75 L-18.25 -17.7 -18.2 -17.7 -18.25 -17.8 -18.25 -17.85 -18.55 -17.9 -18.6 -17.95 -18.6 -17.9 -18.3 -17.75 M-15.35 -21.1 L-15.4 -21.0 -15.4 -20.8 -15.35 -20.7 -15.3 -20.65 -15.25 -20.55 -15.25 -20.5 -15.2 -20.4 -15.2 -20.35 -15.15 -20.3 -15.15 -20.4 -15.2 -20.45 -15.2 -21.15 -15.35 -21.1 M-14.8 -19.35 L-14.85 -19.4 -14.85 -19.25 -14.8 -19.3 -14.8 -19.35" fill="#8ce6e6" fill-opacity="0.7529412" fill-rule="evenodd" stroke="none"/>
    <path d="M12.2 -25.85 L12.2 -25.9 12.1 -26.0 12.1 -26.05 11.95 -26.05 11.95 -26.35 11.9 -26.4 11.9 -26.45 11.95 -26.5 12.0 -26.5 12.1 -26.55 12.1 -26.65 12.15 -26.65 12.2 -26.7 12.25 -26.7 12.4 -26.85 12.45 -26.85 12.45 -27.05 12.4 -27.1 12.4 -27.25 12.35 -27.3 12.35 -27.35 12.4 -27.4 12.4 -27.45 12.45 -27.45 12.45 -27.5 12.55 -27.5 12.6 -27.45 12.65 -27.45 12.65 -27.4 12.7 -27.4 12.75 -27.35 12.8 -27.35 12.85 -27.3 12.9 -27.3 12.95 -27.35 13.0 -27.35 13.0 -27.4 13.2 -27.5 13.25 -27.55 13.35 -27.6 13.35 -27.75 13.3 -27.8 13.3 -27.85 13.15 -28.0 13.15 -28.2 13.05 -28.25 12.95 -28.25 12.9 -28.35 12.85 -28.4 12.85 -28.6 12.95 -28.65 12.95 -28.7 13.0 -28.75 13.25 -28.75 13.35 -28.85 13.35 -28.9 13.4 -28.9 13.4 -29.0 13.45 -29.05 13.45 -29.1 13.5 -29.15 13.5 -29.2 13.55 -29.25 13.55 -29.3 13.65 -29.35 13.7 -29.4 13.75 -29.4 13.75 -29.25 13.7 -29.25 13.6 -29.15 13.6 -29.1 13.55 -29.0 13.5 -28.95 13.5 -28.85 13.45 -28.8 13.45 -28.7 13.4 -28.7 13.35 -28.65 13.15 -28.6 13.1 -28.6 13.05 -28.55 13.05 -28.5 13.0 -28.45 13.2 -28.4 13.25 -28.3 13.3 -28.25 13.3 -28.15 13.35 -28.05 13.4 -28.0 13.4 -27.9 13.45 -27.9 13.45 -27.8 13.5 -27.75 13.5 -27.55 13.45 -27.5 13.5 -27.5 13.55 -27.55 13.65 -27.55 13.7 -27.6 13.85 -27.65 13.9 -27.7 14.0 -27.7 14.1 -27.8 14.15 -27.8 14.15 -27.85 14.2 -27.9 14.2 -27.95 14.25 -28.0 14.25 -28.05 14.35 -28.15 14.45 -28.15 14.55 -28.1 14.7 -27.95 14.7 -27.9 14.85 -27.75 14.9 -27.65 Q14.95 -27.6 15.05 -27.6 L15.3 -27.45 15.4 -27.45 15.4 -27.4 Q15.45 -27.45 15.5 -27.5 L15.55 -27.6 15.7 -27.6 15.75 -27.55 15.75 -27.4 15.8 -27.45 15.85 -27.45 15.95 -27.35 16.0 -27.35 16.1 -27.25 16.2 -27.25 16.2 -27.2 16.25 -27.2 16.3 -27.15 16.3 -27.05 16.25 -27.05 16.25 -27.0 16.2 -27.0 16.1 -27.05 16.0 -27.05 15.85 -27.1 15.75 -27.2 15.75 -27.3 15.65 -27.4 15.65 -27.45 15.6 -27.45 15.55 -27.4 15.55 -27.35 15.5 -27.35 15.45 -27.3 15.4 -27.35 15.2 -27.35 15.15 -27.4 15.1 -27.4 15.0 -27.45 14.95 -27.45 14.85 -27.5 14.8 -27.55 14.75 -27.65 Q14.7 -27.7 14.6 -27.75 L14.6 -27.85 14.5 -27.95 14.4 -28.0 14.3 -27.9 14.3 -27.8 14.2 -27.7 14.2 -27.65 14.15 -27.65 14.1 -27.6 14.1 -27.55 14.0 -27.55 14.0 -27.5 13.9 -27.5 13.7 -27.45 13.6 -27.4 13.55 -27.35 13.45 -27.3 13.25 -27.25 13.15 -27.2 13.1 -27.2 13.1 -27.15 13.0 -27.15 13.0 -27.1 12.7 -27.1 12.65 -27.15 12.65 -27.2 12.55 -27.2 12.55 -27.25 12.5 -27.3 12.5 -27.1 12.55 -27.05 12.55 -27.0 12.5 -27.0 12.5 -26.8 12.4 -26.7 12.4 -26.65 12.35 -26.6 12.3 -26.6 12.3 -26.55 12.25 -26.55 12.2 -26.5 12.2 -26.45 12.15 -26.4 12.1 -26.4 12.1 -26.25 12.05 -26.25 12.05 -26.2 12.15 -26.2 12.25 -26.1 12.25 -26.05 12.3 -26.0 12.3 -25.9 12.35 -25.9 12.35 -25.8 12.3 -25.75 12.3 -25.7 12.35 -25.65 12.35 -25.45 12.4 -25.4 12.4 -25.2 12.35 -25.15 12.35 -25.1 12.3 -25.05 12.3 -24.95 12.1 -24.75 12.0 -24.85 12.2 -25.05 12.2 -25.15 12.25 -25.15 12.25 -25.2 12.3 -25.25 12.3 -25.35 12.25 -25.4 12.25 -25.6 12.2 -25.65 12.2 -25.85 M14.95 -29.5 L14.6 -29.5 14.55 -29.55 14.4 -29.55 14.35 -29.6 14.3 -29.6 14.3 -29.65 14.2 -29.75 13.9 -29.75 13.9 -29.85 13.95 -29.9 14.0 -29.9 14.0 -29.95 14.25 -29.95 14.4 -29.8 14.4 -29.75 14.45 -29.75 14.5 -29.7 14.6 -29.65 14.65 -29.65 14.75 -29.6 14.8 -29.6 14.9 -29.5 14.95 -29.5 M-10.35 -17.6 L-10.3 -17.5 -10.3 -17.3 -10.35 -17.3 -10.35 -17.1 -10.4 -17.05 -10.4 -17.0 -10.45 -16.95 -10.5 -16.95 -10.55 -16.9 -10.6 -16.9 -10.65 -16.85 -10.75 -16.85 -10.7 -16.9 -10.55 -17.0 -10.5 -17.05 -10.5 -17.1 -10.45 -17.15 -10.45 -17.35 -10.4 -17.4 -10.4 -17.6 Q-10.4 -17.65 -10.35 -17.65 L-10.35 -17.6 M-10.75 -16.85 L-10.8 -16.85 -10.9 -16.75 -11.05 -16.7 -11.15 -16.7 -11.1 -16.65 -11.1 -16.55 -11.05 -16.5 -11.1 -16.45 -11.1 -16.3 -11.15 -16.25 -11.15 -16.2 -11.2 -16.2 -11.3 -16.1 -11.35 -16.1 -11.45 -16.0 -11.75 -16.0 -11.85 -16.1 -11.85 -16.2 -11.9 -16.25 -11.9 -16.3 -11.95 -16.3 -11.95 -16.35 -12.05 -16.35 -12.05 -16.3 -12.1 -16.25 -12.15 -16.25 -12.25 -16.15 -12.3 -16.15 -12.3 -16.1 -12.2 -16.0 -12.2 -15.75 -12.25 -15.75 -12.25 -15.6 -12.3 -15.55 -12.3 -15.45 -12.35 -15.45 -12.4 -15.4 -12.4 -15.35 -12.55 -15.2 -12.6 -15.2 -12.6 -15.15 -12.65 -15.15 -12.75 -15.1 -12.9 -15.1 -13.0 -15.2 -13.05 -15.2 -13.1 -15.25 -13.1 -15.2 -13.15 -15.2 -13.15 -15.1 -13.3 -15.05 -13.65 -15.05 -13.7 -15.1 -13.8 -15.15 -13.85 -15.25 -13.9 -15.3 -13.9 -15.35 -13.85 -15.45 -13.85 -15.5 -13.8 -15.5 -13.8 -15.55 -13.85 -15.6 -13.85 -16.0 -13.9 -16.1 -13.95 -16.15 -14.0 -16.15 -14.15 -16.2 -14.2 -16.2 -14.15 -16.25 -14.15 -16.3 -13.9 -16.3 -13.8 -16.2 -13.8 -16.15 -13.7 -16.05 -13.7 -15.9 -13.75 -15.85 -13.75 -15.75 -13.65 -15.65 -13.65 -15.6 -13.6 -15.55 -13.6 -15.5 -13.65 -15.45 -13.7 -15.35 -13.7 -15.3 -13.65 -15.25 -13.6 -15.25 -13.5 -15.2 -13.45 -15.2 -13.45 -15.15 -13.2 -15.15 -13.2 -15.25 -13.15 -15.35 -13.05 -15.45 -13.0 -15.45 -12.95 -15.4 -12.9 -15.4 -12.8 -15.3 -12.7 -15.3 -12.6 -15.35 -12.4 -15.55 -12.35 -15.65 -12.3 -15.7 -12.3 -15.9 -12.35 -15.95 -12.4 -15.95 -12.45 -16.0 -12.45 -16.05 Q-12.55 -16.1 -12.5 -16.15 L-12.5 -16.2 -12.4 -16.3 -12.2 -16.35 Q-12.1 -16.4 -12.05 -16.45 L-12.0 -16.45 -11.95 -16.5 -11.9 -16.5 -11.8 -16.4 -11.8 -16.35 -11.75 -16.3 -11.75 -16.25 -11.7 -16.2 -11.5 -16.15 -11.4 -16.25 -11.25 -16.25 -11.2 -16.3 -11.2 -16.4 Q-11.2 -16.45 -11.2 -16.5 L-11.3 -16.6 -11.3 -16.65 -11.35 -16.7 -11.35 -16.8 -11.3 -16.8 -11.25 -16.85 -11.15 -16.85 -11.1 -16.9 -10.9 -16.9 -10.9 -16.95 -10.85 -16.9 -10.8 -16.9 -10.75 -16.85" fill="#ffffff" fill-rule="evenodd" stroke="none"/>
  </g>
</svg>
