<?xml version="1.0" encoding="UTF-8" standalone="no"?>
<svg xmlns:ffdec="https://www.free-decompiler.com/flash" xmlns:xlink="http://www.w3.org/1999/xlink" ffdec:objectType="shape" height="26.75px" width="52.05px" xmlns="http://www.w3.org/2000/svg">
  <g transform="matrix(1.0, 0.0, 0.0, 1.0, 25.6, 31.45)">
    <path d="M4.7 -31.4 L4.8 -31.4 4.85 -31.45 4.95 -31.45 5.0 -31.35 5.1 -31.3 5.1 -31.2 5.15 -31.15 5.15 -31.0 Q5.15 -30.95 5.2 -30.9 L5.25 -30.85 5.25 -30.7 5.3 -30.6 5.35 -30.55 5.35 -30.5 5.65 -30.5 5.7 -30.55 5.8 -30.6 5.9 -30.7 5.85 -30.75 5.85 -31.05 5.95 -31.15 5.95 -31.2 6.5 -31.2 6.55 -31.15 6.6 -31.05 6.65 -31.0 6.65 -30.9 6.7 -30.85 6.75 -30.75 6.75 -30.55 6.8 -30.45 6.75 -30.4 6.75 -30.35 6.65 -30.35 Q6.6 -30.4 6.55 -30.45 L6.55 -30.5 6.5 -30.55 6.5 -30.65 6.35 -30.8 6.35 -30.95 6.1 -30.9 6.1 -30.7 6.05 -30.6 6.0 -30.55 5.9 -30.5 5.85 -30.45 5.7 -30.4 5.65 -30.35 5.25 -30.35 5.15 -30.55 5.1 -30.6 5.1 -30.65 5.05 -30.75 5.05 -30.8 5.0 -30.9 5.0 -31.05 4.95 -31.1 4.95 -31.2 4.85 -31.25 4.75 -31.2 4.7 -31.1 4.65 -31.05 4.65 -31.0 4.55 -30.95 4.5 -30.85 4.55 -30.8 4.6 -30.7 4.6 -30.65 4.65 -30.55 4.7 -30.5 4.75 -30.4 4.75 -29.9 4.7 -29.85 4.65 -29.75 4.65 -29.4 4.6 -29.25 Q4.6 -29.15 4.5 -29.05 L4.35 -28.85 4.35 -28.7 4.4 -28.65 4.45 -28.55 4.5 -28.5 4.5 -28.25 4.45 -28.2 4.4 -28.1 4.45 -28.05 4.45 -27.9 4.5 -27.8 4.55 -27.75 4.6 -27.65 4.65 -27.6 4.65 -27.25 4.6 -27.1 4.6 -26.95 4.65 -26.85 4.65 -26.8 4.6 -26.7 4.55 -26.65 4.4 -26.65 4.4 -26.7 4.15 -26.6 4.0 -26.55 3.95 -26.45 3.95 -26.4 3.9 -26.35 3.85 -26.25 3.75 -26.2 3.65 -26.2 3.45 -26.15 3.3 -26.0 3.2 -25.95 3.15 -25.85 3.15 -25.75 3.35 -25.65 3.5 -25.5 3.55 -25.4 3.7 -25.25 3.85 -25.15 4.05 -25.15 4.15 -25.2 4.2 -25.3 4.25 -25.35 4.65 -25.45 4.75 -25.5 5.05 -25.35 5.1 -25.25 5.25 -25.1 5.35 -25.1 5.45 -25.05 5.5 -24.95 5.6 -24.9 5.65 -24.8 5.95 -24.7 6.05 -24.7 6.15 -24.65 6.2 -24.6 6.35 -24.6 6.5 -24.55 6.55 -24.45 6.75 -24.25 6.8 -24.3 7.65 -24.3 7.7 -24.35 7.7 -24.4 7.85 -24.5 7.9 -24.55 7.9 -24.6 7.95 -24.7 8.0 -24.75 8.0 -24.9 8.05 -25.0 8.1 -25.05 8.25 -25.1 8.25 -25.15 8.5 -25.15 8.7 -25.05 8.75 -25.0 8.75 -24.85 Q8.75 -24.8 8.8 -24.8 L8.9 -24.7 8.95 -24.6 9.0 -24.55 Q9.05 -24.5 9.1 -24.5 L9.2 -24.5 9.3 -24.55 9.35 -24.55 9.55 -24.5 9.55 -24.45 9.45 -24.4 9.4 -24.3 9.2 -24.25 9.15 -24.2 8.95 -24.2 8.75 -24.25 8.7 -24.35 8.7 -24.4 8.6 -24.45 8.55 -24.55 8.55 -24.75 8.6 -24.8 8.6 -24.85 8.5 -24.85 8.35 -24.8 8.3 -24.7 8.3 -24.65 8.25 -24.5 Q8.15 -24.3 8.05 -24.2 L7.95 -24.05 7.95 -23.95 8.1 -23.8 8.1 -23.25 8.05 -23.2 8.05 -22.75 8.0 -22.7 7.95 -22.6 7.9 -22.55 Q7.85 -22.5 7.8 -22.5 L7.8 -22.45 7.75 -22.35 7.75 -22.3 7.65 -22.2 7.55 -22.2 7.5 -22.15 7.3 -22.15 7.2 -22.1 7.2 -22.05 7.15 -21.95 7.1 -21.9 7.15 -21.8 7.1 -21.65 7.1 -21.5 7.05 -21.45 Q6.95 -21.3 6.85 -21.15 L6.65 -20.9 Q6.5 -20.7 6.4 -20.5 L6.35 -20.35 6.35 -20.25 6.3 -20.2 6.3 -20.1 6.25 -20.05 6.2 -19.95 6.2 -19.9 6.25 -19.8 6.25 -19.75 6.3 -19.7 6.35 -19.6 6.55 -19.4 6.8 -19.35 6.9 -19.35 6.95 -19.3 7.1 -19.25 7.15 -19.2 7.2 -19.1 7.4 -19.1 7.75 -19.15 7.85 -19.05 8.0 -19.05 8.05 -19.1 8.15 -19.1 8.25 -19.05 8.4 -18.9 8.9 -18.9 9.0 -18.95 9.3 -18.95 9.35 -19.05 9.45 -19.2 9.6 -19.35 9.65 -19.5 9.7 -19.55 9.75 -19.65 9.75 -19.7 9.8 -19.8 9.85 -19.85 9.85 -19.9 9.9 -20.0 9.9 -20.05 9.95 -20.15 9.95 -20.35 10.0 -20.45 10.05 -20.5 10.05 -20.65 10.1 -20.75 10.1 -20.9 10.15 -20.95 10.2 -21.05 10.2 -21.55 10.25 -21.6 10.3 -21.7 10.3 -22.45 10.45 -22.6 10.55 -22.65 10.6 -22.7 10.7 -22.7 10.95 -22.75 10.95 -23.05 11.0 -23.15 11.05 -23.2 11.05 -23.3 11.1 -23.35 11.15 -23.45 11.15 -23.5 11.2 -23.6 11.2 -23.8 11.25 -23.9 11.25 -23.95 11.3 -24.05 11.3 -24.1 11.35 -24.2 11.4 -24.2 11.4 -24.35 11.45 -24.45 11.5 -24.5 11.5 -24.65 11.6 -24.8 11.75 -24.95 11.9 -25.05 12.05 -25.05 12.25 -24.95 12.3 -24.85 12.3 -24.65 12.25 -24.55 12.2 -24.5 12.2 -24.4 12.25 -24.3 12.3 -24.25 12.3 -24.2 12.55 -24.15 12.6 -24.15 12.65 -24.2 12.75 -24.15 12.85 -24.15 13.1 -24.25 13.6 -24.25 13.7 -24.2 13.75 -24.1 13.9 -23.95 14.0 -23.9 14.0 -23.8 14.05 -23.75 14.05 -23.7 14.1 -23.65 14.4 -23.7 14.55 -23.75 14.6 -23.85 14.6 -24.2 14.7 -24.35 14.75 -24.4 14.75 -24.55 14.8 -24.65 14.85 -24.7 15.0 -24.75 15.15 -24.9 15.3 -25.0 15.4 -25.05 15.45 -25.1 16.05 -25.1 16.15 -25.05 16.5 -25.0 16.6 -24.95 16.65 -24.9 16.85 -24.85 16.95 -24.8 17.0 -24.75 Q17.0 -24.7 17.05 -24.7 17.35 -24.7 17.65 -24.7 L17.7 -24.8 17.9 -25.0 17.95 -25.1 17.95 -25.15 18.0 -25.25 18.1 -25.3 18.1 -25.9 18.15 -26.0 18.25 -26.1 18.35 -26.15 18.3 -26.15 18.25 -26.2 18.25 -26.25 18.05 -26.3 18.0 -26.35 17.95 -26.45 17.95 -26.8 18.0 -26.85 18.5 -26.85 18.55 -26.75 Q18.5 -26.7 18.45 -26.65 L18.1 -26.6 18.2 -26.5 18.4 -26.45 18.45 -26.35 18.5 -26.3 18.6 -26.15 18.6 -26.1 18.55 -26.1 18.65 -26.0 18.7 -26.0 Q18.75 -25.95 18.8 -25.95 L18.9 -25.9 18.95 -25.8 19.0 -25.75 19.0 -25.7 19.1 -25.65 19.7 -25.6 19.8 -25.55 19.85 -25.45 19.9 -25.4 Q19.95 -25.4 20.0 -25.35 L20.05 -25.3 20.15 -25.25 20.2 -25.3 20.25 -25.3 20.3 -25.35 20.5 -25.35 20.6 -25.3 20.65 -25.2 20.8 -25.15 21.05 -25.05 21.2 -25.0 21.25 -24.9 21.3 -24.85 21.3 -24.75 21.5 -24.55 21.5 -24.45 21.55 -24.45 21.55 -24.55 21.7 -24.7 21.75 -24.8 21.9 -24.85 21.9 -24.9 Q22.0 -25.0 22.1 -25.1 L22.25 -25.15 22.4 -25.3 22.4 -25.4 22.45 -25.45 22.5 -25.55 22.55 -25.6 22.6 -25.7 22.6 -25.75 22.65 -25.8 22.7 -25.9 22.7 -25.95 22.65 -26.0 22.65 -26.3 22.7 -26.35 22.75 -26.45 22.85 -26.5 22.95 -26.5 23.1 -26.45 23.2 -26.4 23.2 -26.3 23.25 -26.25 23.25 -26.1 23.2 -26.0 23.2 -25.95 23.1 -25.85 22.95 -25.85 22.9 -25.7 22.7 -25.4 22.65 -25.35 Q22.65 -25.2 22.55 -25.1 L22.35 -24.9 22.15 -24.75 22.1 -24.65 21.8 -24.35 21.8 -24.3 21.75 -24.25 21.7 -24.15 21.7 -23.9 21.75 -23.8 21.75 -23.6 21.8 -23.5 21.8 -23.35 21.75 -23.3 21.7 -23.2 21.65 -23.2 21.35 -23.05 21.15 -23.1 21.15 -23.05 21.05 -23.0 21.0 -22.9 20.8 -22.85 20.75 -22.8 20.45 -22.7 20.4 -22.65 19.55 -22.65 19.55 -22.6 19.3 -22.55 19.35 -22.45 19.35 -22.4 19.4 -22.3 19.4 -22.0 Q19.4 -21.95 19.45 -21.95 L19.5 -21.95 19.65 -22.0 19.8 -22.0 19.9 -21.95 20.0 -21.85 20.2 -21.8 20.35 -21.75 20.4 -21.7 20.55 -21.6 20.6 -21.55 20.65 -21.45 20.7 -21.4 20.7 -21.35 20.8 -21.15 20.85 -21.1 20.85 -20.65 20.8 -20.6 20.8 -20.45 Q20.8 -20.4 20.8 -20.35 L20.8 -20.3 20.85 -20.2 20.85 -20.05 20.8 -20.0 20.8 -19.95 20.85 -19.9 20.8 -19.8 20.8 -19.45 20.75 -19.4 20.7 -19.3 20.75 -19.25 20.75 -19.15 20.8 -19.1 20.8 -18.7 20.75 -18.65 20.75 -18.55 20.7 -18.5 20.65 -18.4 20.6 -18.35 20.6 -18.0 20.65 -17.9 20.65 -17.7 20.7 -17.6 20.7 -17.45 20.9 -17.15 20.95 -17.1 20.95 -17.0 21.0 -16.95 21.05 -16.85 21.05 -16.65 21.0 -16.6 20.95 -16.5 20.75 -16.45 20.5 -16.35 20.35 -16.35 20.3 -16.3 20.25 -16.2 20.25 -16.15 20.2 -16.05 20.15 -16.0 20.1 -15.9 20.1 -15.8 20.05 -15.8 Q20.1 -15.75 20.15 -15.7 L20.25 -15.65 20.4 -15.6 20.5 -15.55 20.55 -15.45 20.6 -15.4 20.9 -15.3 21.0 -15.25 21.05 -15.2 21.2 -15.15 21.25 -15.0 21.35 -14.85 21.45 -14.8 21.6 -14.75 21.85 -14.7 21.95 -14.65 22.0 -14.55 22.05 -14.5 22.05 -14.2 22.0 -14.05 21.9 -13.9 21.95 -13.8 22.0 -13.75 22.05 -13.65 22.05 -13.45 Q22.05 -13.4 22.1 -13.4 L22.15 -13.3 22.2 -13.25 22.75 -13.15 22.75 -13.25 Q22.75 -13.3 22.8 -13.35 L22.85 -13.4 23.05 -13.5 23.1 -13.55 23.3 -13.55 23.4 -13.5 Q23.4 -13.55 23.4 -13.6 L23.45 -13.65 23.45 -13.9 23.5 -13.95 23.55 -14.05 23.6 -14.1 23.7 -14.1 23.8 -14.15 23.9 -14.15 24.0 -14.1 24.55 -14.1 24.8 -14.05 25.25 -14.0 25.3 -14.0 25.3 -13.95 25.5 -13.95 25.75 -14.0 25.9 -13.95 25.95 -13.9 26.0 -13.8 26.0 -13.55 25.95 -13.45 25.9 -13.4 25.85 -13.3 25.85 -13.25 25.8 -13.15 25.75 -13.1 25.75 -13.0 25.9 -12.85 26.05 -12.8 26.2 -12.65 26.2 -12.4 26.25 -12.35 26.25 -12.25 26.3 -12.2 26.25 -12.15 26.25 -12.1 26.35 -12.0 26.4 -11.9 26.4 -11.85 26.45 -11.8 26.45 -11.45 26.4 -11.45 26.3 -11.55 26.3 -11.65 26.25 -11.65 26.25 -11.8 26.2 -11.8 26.2 -11.9 26.1 -11.9 26.1 -12.05 26.05 -12.05 26.05 -12.1 26.0 -12.15 Q25.95 -12.15 25.95 -12.2 L25.95 -12.4 25.9 -12.5 25.85 -12.55 25.75 -12.6 25.75 -12.65 25.6 -12.7 25.5 -12.75 25.45 -12.85 25.45 -13.05 25.5 -13.15 25.55 -13.2 25.55 -13.3 25.6 -13.35 25.65 -13.45 25.65 -13.5 25.7 -13.55 25.75 -13.65 25.7 -13.7 25.6 -13.7 25.55 -13.65 25.3 -13.7 25.3 -13.75 25.2 -13.85 23.8 -13.85 23.65 -13.8 23.65 -13.6 23.6 -13.55 23.6 -13.45 23.55 -13.4 23.55 -13.35 23.65 -13.2 23.7 -13.05 23.75 -13.0 23.75 -12.45 23.8 -12.4 23.85 -12.3 23.85 -12.25 23.9 -12.2 Q23.95 -12.05 23.95 -11.9 L23.9 -11.65 23.95 -11.6 24.0 -11.5 24.0 -11.15 24.05 -10.9 24.05 -10.7 24.1 -10.6 24.15 -10.55 24.15 -10.5 24.2 -10.4 24.2 -9.95 24.15 -9.9 24.1 -9.8 24.05 -9.75 23.95 -9.75 23.95 -9.55 24.0 -9.55 24.05 -9.6 24.15 -9.65 24.2 -9.7 24.3 -9.75 24.7 -9.75 24.85 -9.85 24.9 -9.9 25.3 -9.9 25.35 -9.8 25.4 -9.75 25.45 -9.65 25.6 -9.6 25.65 -9.5 25.75 -9.45 25.75 -8.95 Q25.75 -8.9 25.8 -8.85 L25.95 -8.7 25.95 -8.65 26.0 -8.5 26.0 -8.1 26.05 -8.05 26.1 -7.95 Q26.1 -7.85 26.1 -7.75 L26.1 -7.25 26.05 -7.15 26.05 -7.1 26.0 -7.0 25.95 -6.95 25.9 -6.95 25.85 -6.9 25.8 -6.8 25.75 -6.75 25.75 -6.3 25.7 -6.25 25.65 -6.15 25.6 -6.1 25.6 -6.0 25.5 -5.95 25.7 -5.85 25.75 -5.75 25.85 -5.7 25.9 -5.6 25.95 -5.55 26.0 -5.45 26.05 -5.4 26.05 -5.1 26.0 -5.0 26.0 -4.95 Q25.9 -4.9 25.85 -4.85 L25.85 -4.8 25.7 -4.75 25.6 -4.7 25.45 -4.7 25.35 -4.75 Q25.35 -4.8 25.4 -4.85 L25.4 -4.9 25.45 -5.0 25.5 -5.05 25.45 -5.15 25.45 -5.2 25.4 -5.35 25.25 -5.5 25.15 -5.65 25.15 -6.15 25.2 -6.25 25.3 -6.35 25.35 -6.35 25.4 -6.45 Q25.4 -6.55 25.4 -6.65 25.4 -6.8 25.45 -6.95 25.45 -7.05 25.45 -7.2 L25.45 -7.55 25.5 -7.6 25.5 -7.75 25.45 -7.85 25.45 -8.0 25.4 -8.05 25.4 -8.35 25.45 -8.45 25.45 -8.6 25.4 -8.65 25.4 -9.15 25.35 -9.25 25.25 -9.35 25.15 -9.4 25.05 -9.5 24.85 -9.4 24.8 -9.35 24.45 -9.35 24.35 -9.3 24.3 -9.2 24.2 -9.15 24.15 -9.1 24.05 -9.05 23.75 -9.1 23.75 -9.05 23.7 -9.05 Q23.6 -9.0 23.5 -9.05 L23.5 -8.95 23.55 -8.85 23.55 -8.8 23.6 -8.7 23.6 -8.65 23.65 -8.55 23.7 -8.5 23.7 -8.35 23.65 -8.25 23.6 -8.2 23.6 -8.1 23.45 -7.95 23.35 -7.9 22.7 -7.9 22.6 -7.85 22.55 -7.8 22.5 -7.7 22.5 -7.65 Q22.55 -7.6 22.55 -7.55 L22.65 -7.45 22.65 -7.35 22.7 -7.3 22.7 -7.0 22.65 -6.9 22.65 -6.7 22.6 -6.6 22.6 -6.55 22.55 -6.45 22.5 -6.4 22.5 -6.15 22.45 -6.1 22.45 -6.0 22.35 -5.9 22.35 -5.85 22.15 -5.85 22.1 -5.95 22.05 -6.0 22.05 -6.2 22.0 -6.35 22.0 -6.6 22.05 -6.65 22.05 -7.4 21.95 -7.5 21.95 -7.75 Q21.95 -7.9 22.05 -8.0 22.2 -8.15 22.35 -8.25 L22.5 -8.35 22.6 -8.4 23.05 -8.25 23.25 -8.25 23.3 -8.35 23.3 -8.55 23.25 -8.65 23.2 -8.7 23.2 -9.1 23.15 -9.15 23.15 -9.55 23.2 -9.6 23.15 -9.7 23.15 -10.15 23.2 -10.2 23.25 -10.3 23.3 -10.35 23.45 -10.4 23.55 -10.5 23.55 -11.25 23.5 -11.35 23.5 -11.7 23.45 -11.8 23.45 -12.15 23.35 -12.2 23.3 -12.3 23.3 -12.35 23.25 -12.4 23.2 -12.5 23.1 -12.55 Q22.65 -12.65 22.2 -12.55 L22.1 -12.55 Q21.95 -12.6 21.8 -12.65 L21.5 -12.95 21.5 -13.05 21.45 -13.1 21.45 -13.25 21.3 -13.4 21.25 -13.5 21.15 -13.6 21.1 -13.7 21.1 -13.9 Q21.15 -14.0 21.2 -14.05 L21.35 -14.3 21.4 -14.35 21.3 -14.45 21.1 -14.6 21.1 -14.65 21.05 -14.75 21.0 -14.8 20.95 -14.9 20.85 -14.95 20.8 -14.95 20.5 -14.9 20.35 -14.95 20.3 -15.05 20.25 -15.05 20.15 -15.1 20.0 -15.15 19.95 -15.25 19.9 -15.3 19.75 -15.35 19.7 -15.45 19.7 -16.05 19.75 -16.1 19.8 -16.2 19.8 -16.55 19.85 -16.65 19.65 -16.65 19.45 -16.85 19.4 -16.95 19.4 -17.15 19.35 -17.2 19.2 -17.25 19.05 -17.1 19.05 -16.6 19.0 -16.55 19.0 -16.5 18.9 -16.45 18.8 -16.35 18.1 -16.25 18.1 -16.15 18.15 -16.1 Q18.2 -16.05 18.25 -16.0 L18.3 -15.95 18.4 -15.9 18.65 -15.85 18.7 -15.75 18.7 -15.55 18.75 -15.45 18.8 -15.4 18.8 -15.25 18.75 -15.2 18.7 -15.1 18.6 -15.0 18.45 -14.95 18.45 -14.9 18.35 -14.8 18.35 -14.75 18.3 -14.65 18.3 -14.6 18.25 -14.55 18.25 -14.35 18.2 -14.3 18.2 -13.8 18.15 -13.75 18.15 -13.5 18.1 -13.5 18.05 -13.55 18.05 -13.7 Q18.05 -13.75 18.05 -13.85 L18.05 -14.25 18.1 -14.35 18.1 -14.75 18.15 -14.8 Q18.15 -14.95 18.25 -15.0 L18.3 -15.05 18.3 -15.1 18.4 -15.15 18.4 -15.25 18.45 -15.25 18.5 -15.2 18.5 -15.15 18.55 -15.15 18.55 -15.3 18.4 -15.45 18.4 -15.5 18.1 -15.8 17.85 -15.85 17.85 -15.9 17.8 -16.0 17.8 -16.15 17.85 -16.2 17.9 -16.3 17.95 -16.35 17.95 -16.5 18.0 -16.5 18.75 -16.65 18.85 -16.75 18.85 -17.3 18.95 -17.35 19.1 -17.5 19.1 -17.55 19.4 -17.5 19.5 -17.45 19.55 -17.35 19.55 -17.15 19.6 -17.05 19.65 -17.0 19.65 -16.95 19.75 -16.9 19.8 -16.8 19.9 -16.85 20.0 -16.85 20.1 -16.95 20.25 -17.0 20.5 -17.05 20.45 -17.15 20.35 -17.2 20.35 -17.3 20.3 -17.35 20.3 -17.65 20.25 -17.75 20.2 -17.8 20.2 -17.85 20.1 -18.05 20.1 -18.3 20.15 -18.4 20.2 -18.45 20.2 -18.6 20.25 -18.75 20.35 -18.9 20.35 -19.2 20.4 -19.3 20.4 -19.45 20.45 -19.5 20.5 -19.6 20.5 -19.9 20.45 -20.0 20.45 -20.05 20.35 -20.15 20.35 -20.9 20.3 -20.95 20.25 -21.05 20.25 -21.15 20.15 -21.25 19.9 -21.25 19.75 -21.35 19.7 -21.4 19.1 -21.4 19.05 -21.5 19.0 -21.55 19.0 -22.1 18.95 -22.15 18.9 -22.25 18.85 -22.3 18.85 -22.4 18.8 -22.55 18.8 -22.75 18.85 -22.8 18.95 -22.95 19.05 -23.05 19.4 -23.15 19.55 -23.15 20.1 -23.2 20.2 -23.25 20.2 -23.3 20.4 -23.4 20.45 -23.45 20.45 -23.75 20.5 -23.8 20.55 -23.9 20.6 -23.95 20.75 -24.0 20.8 -24.0 20.95 -23.95 21.0 -23.95 20.95 -24.05 20.95 -24.1 20.85 -24.25 20.8 -24.3 20.8 -24.45 20.7 -24.55 20.7 -24.6 20.65 -24.6 20.55 -24.65 20.5 -24.75 20.4 -24.8 20.35 -24.8 20.3 -24.75 20.15 -24.75 19.95 -24.8 19.9 -24.85 19.75 -24.9 19.7 -24.95 19.6 -25.0 19.55 -25.1 18.6 -25.15 18.45 -25.15 18.45 -25.1 Q18.4 -25.1 18.3 -25.05 L18.25 -25.0 18.2 -24.9 18.1 -24.75 18.1 -24.7 18.05 -24.6 18.0 -24.55 17.95 -24.45 17.8 -24.4 17.7 -24.3 16.9 -24.3 16.8 -24.35 16.75 -24.45 16.7 -24.45 Q16.35 -24.5 16.05 -24.6 16.0 -24.6 16.0 -24.65 L15.55 -24.6 15.45 -24.55 15.4 -24.5 15.4 -24.45 15.25 -24.4 15.2 -24.35 15.1 -24.2 15.1 -24.15 15.05 -24.05 15.0 -24.0 15.0 -23.7 14.95 -23.6 14.95 -23.45 14.85 -23.4 14.85 -23.35 14.8 -23.3 14.6 -23.2 13.95 -23.2 13.8 -23.25 13.75 -23.3 13.7 -23.45 13.65 -23.55 13.5 -23.7 13.5 -23.75 13.45 -23.75 13.15 -23.7 12.75 -23.7 Q12.5 -23.7 12.3 -23.8 L12.1 -23.8 12.05 -23.85 12.05 -23.95 12.0 -23.95 12.0 -23.9 11.65 -23.55 11.55 -23.55 11.55 -23.35 11.45 -23.2 11.45 -23.1 11.4 -23.05 11.35 -22.95 11.35 -22.9 11.3 -22.8 11.3 -22.7 11.25 -22.6 11.15 -22.45 11.05 -22.4 11.05 -22.35 10.75 -22.3 10.6 -22.2 10.6 -21.55 10.55 -21.45 10.55 -20.95 10.5 -20.9 10.5 -20.8 10.45 -20.75 10.45 -20.6 10.4 -20.5 10.35 -20.45 10.35 -20.3 10.3 -20.2 10.3 -20.05 10.25 -20.0 10.25 -19.9 10.2 -19.85 10.2 -19.7 10.15 -19.65 10.05 -19.5 10.05 -19.4 10.0 -19.35 10.0 -19.25 9.9 -19.2 9.8 -19.05 9.65 -18.9 9.65 -18.8 9.45 -18.6 9.3 -18.6 9.2 -18.65 9.05 -18.6 9.0 -18.55 8.75 -18.5 8.25 -18.5 8.1 -18.55 8.05 -18.6 8.0 -18.7 7.75 -18.75 7.7 -18.85 7.35 -18.9 7.15 -18.95 7.05 -19.05 6.95 -19.05 6.8 -19.0 6.7 -19.0 6.7 -18.95 6.75 -18.9 6.8 -18.75 6.8 -18.45 6.75 -18.3 6.65 -18.15 6.6 -18.1 6.7 -17.9 6.7 -17.8 Q6.75 -17.8 6.8 -17.8 L6.9 -17.75 6.95 -17.65 7.0 -17.6 7.05 -17.5 7.05 -17.45 7.1 -17.35 7.1 -17.15 7.05 -17.0 7.0 -16.9 6.95 -16.75 Q7.05 -16.75 7.1 -16.75 L7.4 -16.9 7.55 -17.05 7.65 -17.2 7.65 -17.3 7.8 -17.45 7.9 -17.35 8.1 -17.3 8.15 -17.2 8.2 -17.15 8.3 -17.1 8.3 -17.05 Q8.45 -17.0 8.6 -16.95 L8.6 -16.85 8.65 -16.8 8.65 -16.65 8.6 -16.6 8.75 -16.5 8.75 -16.45 Q8.85 -16.4 8.9 -16.35 L9.15 -16.3 9.35 -16.25 9.35 -16.3 9.45 -16.45 9.5 -16.5 9.6 -16.55 9.75 -16.7 Q9.8 -16.75 9.9 -16.8 L9.95 -16.8 10.1 -16.85 10.2 -16.9 10.35 -17.0 10.55 -17.1 10.7 -17.05 10.75 -17.0 10.55 -16.9 10.5 -16.85 10.35 -16.75 10.3 -16.7 10.1 -16.7 10.05 -16.65 9.9 -16.6 9.85 -16.5 9.8 -16.45 9.6 -16.35 9.55 -16.3 9.55 -16.25 9.6 -16.15 9.6 -16.0 9.55 -15.95 9.55 -15.9 9.5 -15.85 9.05 -15.85 8.95 -15.9 8.75 -15.9 8.6 -16.0 8.2 -16.2 8.2 -16.8 8.15 -16.85 8.1 -16.95 8.0 -17.05 7.85 -17.05 7.8 -16.95 7.75 -16.9 7.7 -16.8 7.6 -16.75 7.6 -16.7 7.5 -16.6 7.35 -16.55 7.3 -16.45 7.2 -16.4 6.8 -16.35 6.7 -16.4 6.65 -16.5 6.6 -16.55 6.55 -16.65 6.55 -16.7 6.6 -16.75 6.6 -16.85 6.65 -16.9 6.65 -17.05 6.7 -17.15 6.75 -17.2 6.75 -17.3 6.65 -17.4 6.45 -17.5 6.4 -17.55 6.4 -17.7 6.35 -17.8 6.3 -17.85 6.3 -18.0 6.35 -18.1 6.35 -18.25 6.45 -18.3 6.5 -18.35 6.55 -18.45 6.6 -18.5 6.6 -18.6 6.65 -18.65 6.65 -18.75 6.6 -18.8 6.6 -18.9 6.4 -18.95 6.35 -19.0 6.3 -19.1 6.1 -19.3 6.05 -19.4 5.95 -19.45 5.95 -19.6 5.85 -19.7 5.85 -20.2 5.9 -20.25 5.95 -20.35 5.95 -20.5 6.05 -20.55 6.05 -20.6 6.3 -20.95 6.55 -21.15 6.75 -21.35 6.8 -21.45 6.8 -21.5 6.85 -21.6 6.75 -21.65 6.7 -21.75 6.7 -21.8 6.65 -21.9 6.65 -22.2 6.7 -22.25 6.75 -22.4 6.8 -22.5 6.85 -22.55 7.0 -22.65 7.05 -22.7 7.15 -22.7 7.2 -22.75 7.2 -22.8 7.25 -22.9 7.3 -23.05 7.45 -23.2 7.75 -23.25 7.85 -23.35 7.85 -23.6 7.8 -23.65 7.75 -23.75 7.75 -23.8 7.7 -23.9 7.55 -24.05 7.25 -24.1 7.2 -24.1 6.95 -24.0 6.65 -24.0 6.25 -24.15 6.25 -24.2 6.1 -24.2 Q6.05 -24.2 6.0 -24.25 L5.95 -24.25 5.8 -24.3 5.5 -24.45 5.35 -24.6 5.35 -24.65 5.3 -24.65 5.1 -24.7 5.0 -24.75 4.95 -24.8 4.95 -24.85 4.8 -24.9 4.8 -24.95 4.45 -24.95 4.4 -24.85 4.35 -24.8 4.2 -24.75 4.1 -24.7 3.8 -24.7 3.7 -24.75 3.45 -24.85 3.4 -24.9 3.15 -24.9 3.0 -24.95 2.9 -25.05 2.7 -25.1 2.55 -25.15 2.5 -25.2 2.45 -25.3 2.45 -25.6 2.5 -25.65 2.65 -25.95 2.65 -26.1 2.7 -26.2 Q2.8 -26.4 3.0 -26.5 L3.25 -26.65 3.4 -26.8 3.55 -26.85 3.6 -26.85 3.75 -27.0 Q3.8 -27.1 3.9 -27.2 L4.0 -27.25 4.05 -27.35 4.0 -27.45 3.95 -27.5 3.95 -27.6 3.9 -27.65 3.9 -27.8 3.85 -27.9 3.8 -27.95 3.75 -28.05 3.7 -28.1 3.3 -28.1 3.25 -28.05 3.25 -28.0 2.95 -28.0 2.9 -27.9 2.8 -27.8 2.55 -27.8 2.45 -27.85 2.4 -27.95 2.35 -28.0 2.3 -28.0 2.2 -27.95 2.0 -28.0 1.95 -28.05 1.6 -28.05 1.6 -28.1 1.5 -28.15 1.45 -28.2 1.25 -28.25 1.25 -28.3 1.0 -28.35 0.9 -28.4 0.7 -28.45 0.65 -28.55 0.6 -28.6 0.35 -28.65 0.2 -28.8 -0.25 -28.75 -0.7 -28.75 -0.7 -28.7 -0.85 -28.65 -0.85 -28.6 -1.0 -28.55 -1.3 -28.6 -1.35 -28.65 -1.5 -28.6 -1.6 -28.6 -1.7 -28.5 -1.7 -28.45 -2.0 -28.45 -2.05 -28.35 -2.15 -28.25 -2.15 -28.1 -2.1 -28.05 -2.1 -27.95 -2.15 -27.9 -2.15 -27.75 -2.2 -27.65 -2.25 -27.6 -2.25 -27.5 -2.55 -27.1 -2.7 -26.95 -2.7 -26.65 -2.75 -26.55 -2.75 -26.25 -2.8 -26.1 -2.85 -26.05 -2.85 -25.9 Q-2.9 -25.85 -2.9 -25.8 L-3.0 -25.6 Q-3.05 -25.5 -3.15 -25.4 L-3.3 -25.25 -3.55 -25.15 -3.65 -25.1 -4.1 -25.1 -4.2 -25.15 -4.4 -24.95 Q-4.45 -24.9 -4.45 -24.85 L-4.65 -24.65 Q-4.8 -24.65 -4.95 -24.55 -5.05 -24.45 -5.2 -24.4 L-5.25 -24.35 -6.1 -24.3 -6.25 -24.35 -6.35 -24.35 -6.35 -24.3 -6.75 -24.35 -6.8 -24.4 -6.85 -24.5 -6.85 -24.65 -7.1 -24.7 -7.15 -24.75 -7.15 -25.0 -7.1 -25.05 -7.1 -25.15 -7.15 -25.2 -7.2 -25.3 -7.2 -25.35 -7.25 -25.35 -7.3 -25.3 Q-7.3 -25.25 -7.35 -25.25 L-7.3 -25.35 -7.35 -25.35 -7.4 -25.25 -7.4 -25.2 Q-7.5 -25.1 -7.55 -24.95 L-7.7 -24.65 -7.75 -24.65 Q-7.8 -24.6 -7.85 -24.55 L-8.0 -24.4 -8.2 -24.4 -8.2 -24.35 -8.25 -24.3 -8.9 -24.25 -9.05 -24.3 -9.1 -24.25 -9.2 -24.25 -9.35 -24.15 -9.45 -24.15 -9.75 -24.1 -10.05 -24.1 -10.1 -24.2 -10.2 -24.25 -10.35 -24.2 -10.4 -24.15 -10.4 -23.85 Q-10.45 -23.75 -10.5 -23.7 L-10.75 -23.4 -10.8 -23.4 -11.0 -23.3 -11.15 -23.15 -11.15 -23.1 -11.25 -23.1 -11.4 -22.95 -11.5 -22.9 -11.65 -22.75 -11.75 -22.7 Q-11.8 -22.7 -11.8 -22.65 -11.95 -22.65 -12.1 -22.7 L-12.1 -22.65 -12.35 -22.6 -12.45 -22.5 -12.6 -22.45 -12.65 -22.35 -12.85 -22.3 -12.9 -22.2 -12.95 -22.15 -13.0 -22.05 -13.15 -22.0 -13.2 -21.9 -13.35 -21.75 -13.45 -21.7 -13.45 -21.65 -13.5 -21.6 Q-13.6 -21.4 -13.7 -21.25 -13.8 -21.15 -13.95 -21.05 L-14.05 -21.0 -14.05 -20.95 -14.1 -20.9 -14.3 -20.85 -14.4 -20.9 -14.45 -20.95 -14.7 -20.95 -14.9 -20.9 -14.95 -20.9 -14.95 -20.85 -15.05 -20.8 -15.1 -20.75 -15.1 -20.65 -15.05 -20.6 -14.95 -20.55 -14.9 -20.5 -14.85 -20.4 -14.8 -20.35 -14.75 -20.25 -14.75 -19.85 -14.8 -19.75 -14.8 -19.55 -14.75 -19.45 -14.7 -19.3 -14.6 -19.25 -14.5 -19.15 -14.5 -19.1 Q-14.5 -19.05 -14.5 -19.0 -14.5 -18.95 -14.55 -18.9 -14.7 -18.7 -14.85 -18.55 L-14.9 -18.5 -14.95 -18.4 -15.05 -18.35 -15.25 -18.4 -15.55 -18.45 -15.65 -18.55 -15.95 -18.6 -15.95 -18.5 -16.1 -18.35 -16.1 -18.25 -16.15 -18.15 -16.15 -18.1 -16.0 -17.8 -16.05 -17.7 -16.1 -17.55 Q-16.2 -17.4 -16.3 -17.3 L-16.3 -17.3 -16.25 -17.2 -16.2 -17.15 -16.15 -17.05 -16.15 -16.9 -16.1 -16.85 -16.1 -16.8 -15.9 -16.7 -15.85 -16.7 -15.85 -16.55 -15.8 -16.45 -15.75 -16.4 -15.75 -16.3 -15.6 -16.25 -15.5 -16.15 Q-15.5 -16.1 -15.45 -16.1 L-15.1 -16.15 -15.05 -16.2 -15.05 -16.35 -15.0 -16.4 -14.95 -16.4 -14.3 -16.5 -14.3 -16.55 -14.25 -16.65 -14.25 -17.0 -14.15 -17.05 -14.05 -17.15 -13.9 -17.2 -13.85 -17.25 -13.7 -17.2 -13.25 -17.15 -13.15 -17.1 -13.05 -17.0 -13.25 -16.9 -13.7 -16.9 -13.85 -16.85 -13.95 -16.8 -13.95 -16.6 -14.0 -16.5 -14.0 -16.45 -14.05 -16.35 -14.1 -16.3 -14.15 -16.2 -14.9 -16.2 -15.0 -16.1 -15.0 -16.05 Q-15.0 -16.0 -15.05 -16.0 -15.3 -16.0 -15.5 -16.0 L-15.65 -16.15 -15.7 -16.15 Q-15.75 -16.2 -15.85 -16.25 L-15.85 -16.3 -15.9 -16.35 -15.9 -16.45 -15.95 -16.5 -15.95 -16.65 -16.2 -16.7 -16.4 -16.75 -16.4 -16.85 -16.35 -16.9 -16.35 -17.0 -16.4 -17.05 -16.8 -17.1 -16.85 -17.1 -16.95 -17.05 -17.0 -17.05 -17.1 -17.0 -17.7 -17.0 -17.75 -17.1 -17.95 -17.4 -17.95 -17.5 -18.0 -17.55 -18.1 -17.55 -18.2 -17.5 -18.5 -17.5 Q-18.6 -17.5 -18.65 -17.55 L-18.65 -17.6 -18.9 -17.65 -18.95 -17.7 -19.0 -17.8 -19.05 -17.85 -19.05 -17.95 -19.1 -18.0 -19.55 -17.9 -19.6 -17.8 -19.6 -17.75 -19.65 -17.65 -19.65 -17.0 -19.7 -16.9 -19.8 -16.85 -19.95 -16.7 -20.6 -16.7 -20.75 -16.65 -20.95 -16.65 -20.95 -16.6 -21.0 -16.55 -21.6 -16.55 -21.65 -16.65 -21.65 -16.75 -21.7 -16.85 -21.85 -17.0 -21.9 -16.95 -22.1 -16.95 -22.15 -17.05 -22.2 -17.1 -22.2 -17.15 -22.3 -17.15 -22.35 -17.05 -22.4 -17.0 -22.4 -16.65 -22.35 -16.55 -22.35 -16.5 -22.4 -16.4 -22.4 -16.35 -22.45 -16.25 -22.45 -16.1 -22.5 -16.05 -22.55 -15.95 -22.55 -15.9 -22.6 -15.8 -22.75 -15.75 -22.8 -15.7 -23.2 -15.7 -23.3 -15.75 Q-23.35 -15.8 -23.4 -15.85 L-23.45 -15.9 -23.45 -15.95 -23.6 -16.0 -23.75 -16.15 -24.1 -16.2 -24.2 -16.15 -24.25 -16.1 -24.25 -16.05 -24.4 -16.0 -25.0 -16.0 -25.15 -16.15 -25.2 -16.25 -25.25 -16.2 -25.3 -16.1 -25.3 -16.05 -25.35 -16.0 Q-25.45 -16.0 -25.6 -16.0 L-25.6 -16.15 -25.55 -16.3 -25.45 -16.45 -25.3 -16.6 -25.25 -16.6 -25.1 -16.55 -25.05 -16.5 -25.0 -16.4 -24.95 -16.35 -24.95 -16.3 -24.9 -16.3 -24.65 -16.35 -24.55 -16.4 -24.5 -16.5 -24.4 -16.5 -24.25 -16.6 -24.2 -16.65 -24.2 -16.7 -24.15 -16.75 -24.15 -16.8 -23.95 -16.8 -23.85 -16.75 -23.8 -16.7 -23.8 -16.65 -23.75 -16.55 -23.6 -16.4 -23.45 -16.35 -23.35 -16.3 -23.25 -16.3 -23.15 -16.2 -23.15 -16.15 -23.0 -16.1 -22.9 -16.1 -22.85 -16.2 -22.8 -16.25 -22.75 -16.35 -22.75 -16.5 -22.8 -16.7 -22.8 -17.05 -22.75 -17.2 -22.7 -17.25 -22.75 -17.25 -22.75 -17.75 -22.7 -17.85 Q-22.65 -17.85 -22.6 -17.9 L-22.2 -17.9 -22.2 -17.95 -22.1 -18.05 -22.1 -18.3 -22.15 -18.3 -22.15 -18.55 -22.1 -18.6 -22.1 -18.65 -22.05 -18.7 -22.05 -18.75 -21.9 -18.75 Q-21.85 -18.8 -21.8 -18.85 L-21.65 -18.95 -21.55 -19.05 -21.4 -19.1 -21.3 -19.2 -21.25 -19.2 -21.15 -19.3 -21.1 -19.3 -21.05 -19.35 -21.05 -19.4 -21.0 -19.4 -20.8 -19.6 -20.8 -19.65 -20.6 -19.65 -20.6 -19.7 -20.45 -19.65 -20.35 -19.55 -20.35 -19.5 -20.3 -19.45 -20.3 -19.2 -20.25 -19.15 -20.25 -19.1 -20.0 -19.1 -19.9 -19.15 -19.85 -19.2 -19.55 -19.2 -19.55 -19.15 -19.3 -19.15 -19.3 -19.1 -19.2 -19.0 -19.2 -18.85 -19.15 -18.75 -19.05 -18.8 -18.85 -18.7 -18.8 -18.6 -18.75 -18.55 -18.7 -18.45 -18.7 -18.4 -18.65 -18.3 -18.65 -18.05 -18.5 -18.05 -18.4 -18.0 -18.35 -17.95 -18.1 -17.9 -17.8 -17.85 -17.6 -17.65 -17.5 -17.5 -17.4 -17.5 -17.25 -17.55 -17.2 -17.55 -17.15 -17.65 -17.0 -17.7 -16.7 -17.7 Q-16.7 -17.75 -16.7 -17.8 L-16.7 -18.2 -16.65 -18.3 -16.55 -18.35 -16.4 -18.45 -16.35 -18.5 -16.35 -18.6 -16.3 -18.65 -16.2 -18.8 -16.05 -18.95 -15.4 -18.95 -15.35 -18.85 -15.3 -18.8 -15.3 -18.75 -15.15 -18.7 -14.95 -18.8 -14.8 -18.95 -14.85 -19.05 -14.85 -19.1 -14.95 -19.2 -15.05 -19.25 -15.1 -19.35 -15.1 -19.65 -15.15 -19.7 -15.15 -19.9 -15.2 -19.95 -15.2 -20.0 -15.4 -20.05 -15.45 -20.1 -15.5 -20.2 -15.5 -20.55 -15.55 -20.65 -15.55 -21.1 -15.5 -21.1 -15.4 -21.15 Q-15.2 -21.2 -15.1 -21.3 L-15.1 -21.45 -15.05 -21.5 -15.05 -21.6 -15.0 -21.65 -14.95 -21.65 -14.85 -21.7 -14.7 -21.7 -14.6 -21.65 -14.55 -21.55 -14.5 -21.5 -14.4 -21.45 -14.3 -21.35 -14.15 -21.4 -14.0 -21.4 -13.9 -21.45 -13.85 -21.55 -13.7 -21.7 -13.7 -21.75 -13.65 -21.85 -13.55 -21.85 -13.45 -21.9 -13.4 -21.95 -13.35 -22.05 -13.2 -22.2 -13.1 -22.25 -12.95 -22.4 -12.9 -22.5 -12.8 -22.55 -12.75 -22.65 -12.65 -22.75 -12.35 -23.0 -12.2 -23.05 -12.2 -23.1 -12.15 -23.2 -12.1 -23.25 -12.1 -23.4 -12.05 -23.5 -12.0 -23.55 -11.9 -23.55 -11.7 -23.45 -11.6 -23.55 -11.55 -23.65 -11.5 -23.7 -11.4 -23.75 -11.3 -23.75 -11.2 -23.85 -11.15 -23.85 -11.0 -23.9 Q-10.95 -23.95 -10.85 -24.0 L-10.85 -24.35 -10.8 -24.4 -10.75 -24.5 -10.7 -24.55 -10.6 -24.7 -10.55 -24.7 Q-10.5 -24.75 -10.45 -24.75 L-10.35 -24.8 -10.3 -24.85 -10.05 -24.85 -9.9 -24.8 -9.85 -24.7 -9.8 -24.65 -9.8 -24.5 -9.55 -24.5 -9.4 -24.65 -9.35 -24.75 -9.25 -24.8 -9.2 -24.8 -9.1 -24.85 -8.9 -24.85 -8.8 -24.8 -8.75 -24.7 -8.4 -24.7 Q-8.35 -24.75 -8.25 -24.8 L-8.1 -24.85 -8.05 -24.9 -8.0 -25.0 -7.9 -25.05 -7.9 -25.2 -7.75 -25.4 Q-7.7 -25.55 -7.6 -25.65 L-7.6 -25.75 -7.5 -25.85 -7.4 -25.9 -7.1 -25.9 -7.05 -25.95 -7.05 -26.05 -6.95 -26.1 -6.95 -26.2 -6.9 -26.25 -6.9 -26.3 -6.7 -26.5 -6.7 -26.85 -6.75 -27.0 -6.7 -27.05 -6.55 -27.05 -6.45 -27.0 -6.2 -26.75 -5.75 -26.8 -5.75 -26.65 -5.7 -26.55 -5.7 -26.5 -5.65 -26.45 -5.6 -26.45 -5.45 -26.6 -5.4 -26.7 -5.3 -26.85 -5.3 -27.0 -5.35 -27.05 -5.35 -27.35 -5.3 -27.4 -5.25 -27.4 -5.2 -27.35 -5.15 -27.35 -5.15 -27.5 -5.1 -27.55 -5.1 -27.65 -5.05 -27.7 -5.0 -27.7 -4.95 -27.75 -4.6 -27.75 -4.3 -27.6 -4.35 -27.55 -4.4 -27.45 -4.4 -27.4 Q-4.5 -27.35 -4.6 -27.35 L-5.05 -27.25 -5.05 -27.2 -5.15 -27.15 -5.1 -27.1 -5.1 -26.65 -5.15 -26.55 -5.2 -26.5 -5.25 -26.4 -5.3 -26.35 -5.35 -26.25 -5.45 -26.2 -5.45 -26.15 Q-5.65 -26.15 -5.85 -26.15 L-5.9 -26.25 -5.9 -26.3 -5.85 -26.4 -5.85 -26.55 -6.25 -26.65 -6.35 -26.7 -6.35 -26.75 -6.4 -26.8 -6.5 -26.85 -6.55 -26.85 -6.55 -26.3 -6.65 -26.25 -6.7 -26.15 -6.8 -26.0 -6.8 -25.95 -6.85 -25.9 -6.9 -25.9 -6.9 -25.75 -6.85 -25.7 -6.85 -25.55 -6.8 -25.4 -6.7 -25.25 -6.7 -25.15 -6.65 -25.1 -6.5 -25.05 -6.45 -25.0 -6.35 -24.95 -6.2 -24.95 -6.1 -24.9 -5.4 -24.9 Q-5.3 -24.95 -5.25 -25.0 -5.2 -25.0 -5.2 -25.05 L-4.95 -25.15 -4.8 -25.2 -4.55 -25.4 -4.35 -25.65 -4.25 -25.7 -4.15 -25.7 -4.05 -25.65 -4.0 -25.55 -3.65 -25.55 -3.55 -25.6 Q-3.5 -25.6 -3.45 -25.65 L-3.4 -25.7 -3.4 -25.75 -3.3 -25.95 -3.25 -26.0 -3.25 -26.15 -3.2 -26.2 -3.2 -26.65 -3.15 -26.75 -3.1 -26.8 -3.1 -27.1 -3.05 -27.25 -2.85 -27.55 -2.7 -27.6 Q-2.55 -27.75 -2.45 -27.9 -2.35 -28.05 -2.3 -28.2 L-2.15 -28.35 -2.15 -28.45 -2.1 -28.5 -2.1 -28.55 -2.15 -28.6 -2.15 -29.05 -2.1 -29.1 -1.95 -29.15 -1.75 -29.25 -1.6 -29.3 -1.55 -29.35 -1.45 -29.4 -1.2 -29.4 -1.1 -29.35 -1.0 -29.25 -1.0 -29.2 -0.95 -29.1 -0.95 -29.05 -0.25 -29.05 0.2 -29.0 0.4 -28.9 0.65 -28.8 0.7 -28.7 0.75 -28.7 0.75 -28.65 0.9 -28.6 1.0 -28.55 1.3 -28.55 1.4 -28.5 1.45 -28.5 1.5 -28.55 1.55 -28.55 1.6 -28.6 2.05 -28.6 2.25 -28.5 2.35 -28.5 2.4 -28.6 2.4 -28.65 2.45 -28.65 2.55 -28.7 2.65 -28.7 2.7 -28.65 3.05 -28.65 3.15 -28.75 3.25 -28.9 3.4 -29.05 3.55 -29.05 3.75 -28.95 3.75 -28.9 3.8 -28.9 3.9 -29.0 4.0 -29.05 4.15 -29.05 4.25 -29.0 4.3 -29.1 4.35 -29.15 4.4 -29.25 Q4.4 -29.3 4.45 -29.3 L4.45 -29.4 4.5 -29.45 4.5 -29.9 4.55 -30.0 4.6 -30.05 4.6 -30.2 4.55 -30.25 4.5 -30.35 4.5 -30.4 4.4 -30.55 4.25 -30.75 4.25 -30.8 Q4.25 -30.85 4.3 -30.9 4.35 -31.05 4.45 -31.15 L4.7 -31.4 M20.15 -27.85 L20.2 -27.9 20.25 -27.9 20.4 -27.95 20.5 -27.9 20.55 -27.85 Q20.6 -27.85 20.65 -27.8 L20.7 -27.75 20.75 -27.65 20.7 -27.6 20.75 -27.5 20.75 -27.4 20.8 -27.3 20.8 -27.1 20.85 -27.0 21.0 -26.85 21.9 -26.75 21.95 -26.7 22.0 -26.6 22.05 -26.55 22.1 -26.55 22.2 -26.5 22.25 -26.45 22.55 -26.4 22.6 -26.3 Q22.55 -26.25 22.5 -26.25 L22.45 -26.25 22.2 -26.35 22.15 -26.4 22.05 -26.35 21.95 -26.4 21.9 -26.45 21.75 -26.5 20.85 -26.55 20.75 -26.6 20.7 -26.7 20.65 -26.75 20.6 -26.85 20.55 -26.9 20.55 -27.2 20.6 -27.3 20.55 -27.35 20.55 -27.6 20.4 -27.7 20.35 -27.75 20.25 -27.7 20.2 -27.65 20.05 -27.65 19.85 -27.75 19.9 -27.8 20.05 -27.8 20.15 -27.85 M19.45 -27.45 L19.65 -27.6 Q19.7 -27.65 19.8 -27.7 L19.85 -27.6 19.8 -27.55 19.8 -27.45 19.6 -27.25 19.35 -27.05 19.2 -26.95 19.1 -27.0 19.05 -27.05 19.1 -27.15 19.1 -27.2 19.4 -27.35 19.45 -27.45 M6.8 -30.05 L6.7 -30.15 6.7 -30.2 6.75 -30.25 6.8 -30.15 6.9 -30.1 6.95 -30.0 6.85 -30.0 6.8 -30.05 M10.3 -24.4 L10.3 -24.2 10.15 -24.2 10.2 -24.25 10.25 -24.35 10.25 -24.4 10.15 -24.4 10.05 -24.45 10.05 -24.5 10.0 -24.6 10.0 -24.7 10.05 -24.7 10.15 -24.6 10.3 -24.55 10.3 -24.4 M23.05 -7.8 L23.15 -7.2 23.1 -7.1 23.05 -7.2 23.0 -7.25 23.0 -7.7 23.05 -7.75 23.05 -7.8 M22.0 -5.8 L21.95 -5.8 22.0 -5.85 22.0 -5.8 M-21.7 -18.8 L-21.75 -18.75 -21.75 -18.7 -21.85 -18.65 -22.0 -18.6 -22.05 -18.55 -22.05 -18.4 -22.0 -18.35 -22.0 -18.05 -22.05 -18.05 -22.1 -17.95 -22.15 -17.9 -22.2 -17.8 -22.25 -17.8 -22.2 -17.75 -22.1 -17.75 -22.0 -17.7 -21.85 -17.55 -21.65 -17.45 -21.5 -17.45 -21.4 -17.4 -21.35 -17.3 -21.3 -17.15 -21.25 -17.1 -21.2 -17.0 -21.15 -17.0 -21.1 -17.05 -21.05 -17.05 -21.0 -17.1 -20.8 -17.1 -20.75 -17.05 -20.45 -17.05 -20.4 -17.1 -20.25 -17.15 -20.25 -17.45 -20.2 -17.55 -20.15 -17.6 -20.1 -17.7 -20.1 -18.05 -20.05 -18.2 -19.95 -18.35 -19.85 -18.4 -19.7 -18.45 -19.6 -18.45 -19.55 -18.4 -19.35 -18.4 -19.35 -18.65 -19.3 -18.65 -19.3 -18.85 -19.4 -18.85 -19.4 -18.95 -19.45 -18.95 -19.5 -19.0 -19.6 -19.05 -19.65 -19.05 -19.7 -19.1 -20.05 -19.05 -20.2 -19.0 -20.3 -19.0 -20.3 -19.05 -20.35 -19.1 -20.35 -19.4 -20.4 -19.4 -20.4 -19.45 -20.45 -19.5 -20.45 -19.55 -20.6 -19.55 -20.75 -19.5 -20.75 -19.45 -20.8 -19.45 -20.95 -19.3 -21.0 -19.3 -21.05 -19.25 -21.1 -19.15 -21.15 -19.15 -21.25 -19.05 -21.3 -19.05 -21.5 -18.95 -21.65 -18.8 -21.7 -18.8" fill="#ffffff" fill-rule="evenodd" stroke="none"/>
  </g>
</svg>
