<?xml version="1.0" encoding="UTF-8" standalone="no"?>
<svg xmlns:ffdec="https://www.free-decompiler.com/flash" xmlns:xlink="http://www.w3.org/1999/xlink" ffdec:objectType="shape" height="23.65px" width="41.2px" xmlns="http://www.w3.org/2000/svg">
  <g transform="matrix(1.0, 0.0, 0.0, 1.0, 34.5, 31.7)">
    <path d="M1.35 -27.2 L1.65 -27.2 1.65 -27.25 1.7 -27.25 1.8 -27.35 1.8 -27.45 1.85 -27.5 2.1 -27.5 2.3 -27.3 2.3 -27.25 2.35 -27.2 2.4 -27.2 2.45 -27.15 2.45 -27.05 2.5 -27.0 2.5 -26.8 2.45 -26.75 2.45 -26.7 2.55 -26.6 2.6 -26.5 2.65 -26.45 2.65 -26.4 2.8 -26.1 2.85 -26.05 2.85 -25.95 2.95 -25.85 3.05 -25.8 3.05 -25.75 3.15 -25.65 3.15 -25.6 3.25 -25.4 3.3 -25.4 3.4 -25.3 3.4 -25.25 3.45 -25.2 3.5 -25.2 3.65 -25.05 3.65 -25.0 3.7 -25.0 3.7 -24.8 3.75 -24.75 3.7 -24.65 3.7 -24.45 Q3.7 -24.35 3.7 -24.25 L3.7 -23.95 3.55 -23.95 3.2 -23.9 2.9 -23.6 2.9 -23.5 2.85 -23.45 2.75 -23.4 2.7 -23.35 2.7 -23.25 2.65 -23.25 2.6 -23.2 2.6 -23.1 2.5 -23.0 2.5 -22.9 2.45 -22.85 2.4 -22.85 2.4 -22.8 2.35 -22.75 2.35 -22.65 2.25 -22.55 2.25 -22.5 2.2 -22.45 2.2 -22.3 2.15 -22.25 2.15 -22.15 2.05 -22.05 2.05 -22.0 2.0 -21.95 2.0 -21.85 1.95 -21.85 1.95 -21.75 1.8 -21.6 1.8 -21.55 1.7 -21.5 1.6 -21.5 1.55 -21.45 1.55 -21.4 1.5 -21.35 1.3 -21.35 1.1 -21.4 1.0 -21.5 1.0 -21.55 0.95 -21.6 0.95 -22.0 0.9 -22.05 0.8 -22.05 0.7 -22.15 0.45 -22.15 0.45 -22.1 0.4 -22.05 0.3 -22.0 0.25 -21.95 0.25 -21.9 0.15 -21.9 0.1 -21.85 -0.1 -21.85 -0.1 -21.75 -0.15 -21.75 Q-0.15 -21.65 -0.25 -21.6 L-0.35 -21.45 -0.4 -21.4 -0.5 -21.35 -0.55 -21.3 -0.65 -21.25 -0.75 -21.15 -0.85 -21.1 -1.0 -21.05 -1.05 -21.05 -1.1 -21.0 -1.2 -20.95 -1.25 -20.95 Q-1.25 -20.9 -1.3 -20.9 L-1.4 -20.8 -1.45 -20.8 -1.45 -20.75 -1.7 -20.75 -1.9 -20.95 -2.05 -20.95 -2.4 -21.05 -2.65 -20.8 -2.65 -20.75 -2.7 -20.7 -2.7 -20.2 -2.6 -20.1 -2.6 -19.8 -2.55 -19.75 -2.55 -19.3 -2.5 -19.25 -2.5 -19.1 -2.4 -19.05 -2.25 -19.05 -2.15 -19.1 -2.1 -19.15 -2.05 -19.15 Q-1.9 -19.2 -1.8 -19.25 L-1.75 -19.25 -1.45 -19.4 Q-1.35 -19.5 -1.25 -19.55 L-1.2 -19.6 -1.15 -19.6 -1.0 -19.75 -0.9 -19.8 -0.85 -19.8 -0.85 -19.85 -0.8 -19.85 -0.75 -19.9 -0.65 -19.9 -0.6 -19.95 -0.45 -19.95 -0.35 -19.85 -0.35 -19.8 -0.3 -19.75 -0.3 -19.7 -0.2 -19.65 -0.15 -19.65 -0.1 -19.6 -0.05 -19.5 0.0 -19.5 0.05 -19.45 0.15 -19.4 0.15 -19.35 0.2 -19.3 0.35 -19.3 0.4 -19.25 0.65 -19.25 0.75 -19.2 0.95 -19.2 1.05 -19.25 1.3 -19.25 1.4 -19.3 1.65 -19.3 1.75 -19.35 1.9 -19.4 1.95 -19.4 2.0 -19.45 2.05 -19.45 2.25 -19.55 2.35 -19.55 2.4 -19.5 2.8 -19.5 2.9 -19.55 3.25 -19.55 3.35 -19.5 3.55 -19.45 3.7 -19.3 3.95 -19.3 4.0 -19.25 4.0 -19.0 3.95 -18.95 4.0 -18.85 4.1 -18.75 4.15 -18.75 4.15 -18.7 4.25 -18.6 4.25 -18.45 4.3 -18.4 4.3 -18.2 4.25 -18.15 4.25 -18.05 4.2 -18.0 4.2 -17.95 4.45 -17.95 4.55 -18.0 4.7 -18.15 4.8 -18.2 4.85 -18.2 4.85 -18.25 4.9 -18.3 4.9 -18.5 5.0 -18.6 5.05 -18.6 5.45 -18.65 5.45 -18.7 5.5 -18.75 5.55 -18.75 5.6 -18.8 5.9 -18.75 6.0 -18.75 6.05 -18.65 Q6.05 -18.55 6.15 -18.5 L6.25 -18.4 6.25 -18.2 6.3 -18.15 6.25 -18.1 6.25 -18.05 6.2 -18.05 6.2 -18.0 6.35 -17.85 6.35 -17.7 6.4 -17.7 6.45 -17.65 6.45 -17.55 6.35 -17.45 5.7 -17.45 5.75 -17.4 5.85 -17.35 5.9 -17.25 6.0 -17.25 6.1 -17.15 6.2 -17.15 6.2 -17.05 6.3 -16.95 6.5 -16.85 6.5 -16.8 6.6 -16.7 Q6.7 -16.65 6.7 -16.6 L6.65 -16.55 6.65 -16.5 6.6 -16.4 6.5 -16.3 6.45 -16.15 6.35 -16.05 Q6.3 -16.0 6.25 -15.95 L6.2 -15.8 6.15 -15.75 6.1 -15.65 6.05 -15.6 6.05 -15.55 5.95 -15.5 5.95 -15.6 6.0 -15.65 6.0 -15.85 6.05 -15.9 6.05 -15.95 6.1 -16.0 6.1 -16.05 6.15 -16.1 6.15 -16.15 6.25 -16.25 Q6.3 -16.35 6.35 -16.4 L6.35 -16.45 6.4 -16.5 6.4 -16.55 6.25 -16.7 6.15 -16.75 6.1 -16.8 6.05 -16.9 6.0 -16.95 6.0 -17.0 5.9 -17.0 5.8 -17.05 5.75 -17.1 5.7 -17.1 5.65 -17.15 5.6 -17.1 5.6 -17.0 5.55 -17.0 5.55 -16.7 5.5 -16.65 5.6 -16.55 5.6 -16.4 5.5 -16.3 5.4 -16.3 5.3 -16.25 5.25 -16.2 5.1 -16.1 5.05 -16.05 5.0 -16.05 5.0 -16.1 5.15 -16.2 5.25 -16.3 5.35 -16.35 5.45 -16.45 5.45 -16.5 5.35 -16.6 5.35 -16.7 5.4 -16.75 5.4 -17.0 5.45 -17.0 5.45 -17.1 5.5 -17.15 5.5 -17.35 5.45 -17.4 5.45 -17.6 5.55 -17.7 5.85 -17.7 5.9 -17.65 6.15 -17.65 6.1 -17.7 6.1 -17.75 5.9 -17.95 5.9 -18.05 5.95 -18.15 6.05 -18.3 5.95 -18.4 5.9 -18.4 5.9 -18.5 5.85 -18.55 5.85 -18.6 5.65 -18.6 5.65 -18.55 5.6 -18.5 5.6 -18.45 5.5 -18.4 5.15 -18.4 5.1 -18.35 5.1 -18.2 4.9 -18.0 4.9 -17.95 4.8 -17.95 4.8 -17.9 4.75 -17.85 4.65 -17.8 4.6 -17.75 4.5 -17.75 4.1 -17.7 4.0 -17.75 3.95 -17.75 3.95 -17.65 3.9 -17.6 3.9 -17.5 3.85 -17.5 3.85 -17.35 3.75 -17.25 3.75 -17.0 3.7 -16.95 3.7 -16.8 3.75 -16.7 3.75 -16.4 3.7 -16.35 3.7 -16.3 3.55 -16.15 3.5 -16.15 3.4 -16.2 3.1 -16.2 2.8 -16.15 2.8 -16.1 2.7 -16.05 2.6 -15.95 2.6 -15.9 2.55 -15.8 2.55 -15.7 2.6 -15.65 2.6 -15.35 2.65 -15.3 2.65 -15.0 2.7 -14.95 2.7 -14.8 Q2.65 -14.7 2.6 -14.6 L2.55 -14.5 2.5 -14.45 2.4 -14.4 2.35 -14.35 2.3 -14.25 2.25 -14.2 2.25 -14.15 2.2 -14.15 2.15 -14.05 2.1 -14.0 2.0 -13.95 1.95 -13.9 1.85 -13.85 1.4 -13.8 1.3 -13.85 1.25 -13.9 1.25 -13.95 1.2 -14.0 1.2 -14.05 1.05 -14.05 0.85 -14.15 0.7 -14.3 0.65 -14.4 0.5 -14.55 0.45 -14.55 0.35 -14.6 Q0.25 -14.7 0.2 -14.85 L0.1 -15.05 0.0 -15.2 -0.05 -15.35 -0.2 -15.5 -0.2 -15.55 -0.35 -15.7 -0.35 -15.75 -0.45 -15.75 -0.45 -15.7 -0.6 -15.65 -0.65 -15.6 -0.8 -15.55 -0.8 -15.5 -0.9 -15.5 -1.0 -15.45 -1.05 -15.4 -1.1 -15.4 -1.1 -15.35 -1.2 -15.35 -1.2 -15.0 -1.3 -14.9 -1.35 -14.9 -1.45 -14.85 -1.55 -14.75 -1.65 -14.7 -1.75 -14.6 -1.8 -14.6 -1.85 -14.5 -1.85 -14.45 -1.8 -14.4 -1.7 -14.35 -1.65 -14.35 -1.65 -14.3 -1.45 -14.3 -1.4 -14.35 -1.35 -14.3 -1.25 -14.3 -1.25 -14.15 -1.15 -14.05 -1.05 -14.0 -1.0 -13.95 -1.0 -13.8 -0.95 -13.75 -0.95 -13.55 -0.9 -13.55 -0.85 -13.45 -0.85 -13.4 -0.9 -13.35 -0.9 -13.05 -0.95 -13.0 -0.95 -12.9 -1.0 -12.85 -1.0 -12.8 -0.95 -12.8 -0.9 -12.85 -0.75 -12.9 -0.7 -12.95 -0.4 -12.95 -0.3 -12.85 -0.25 -12.85 -0.25 -12.5 -0.2 -12.5 -0.2 -12.45 -0.1 -12.35 -0.1 -12.15 -0.05 -12.15 0.05 -12.05 0.05 -11.85 Q0.05 -11.8 0.05 -11.75 L0.05 -11.6 Q0.0 -11.5 -0.05 -11.4 L-0.3 -11.1 Q-0.4 -11.0 -0.45 -10.85 L-0.45 -10.8 -0.5 -10.75 -0.5 -10.45 -0.1 -10.35 -0.05 -10.35 0.1 -10.3 0.25 -10.3 0.45 -10.5 0.55 -10.55 0.6 -10.55 0.65 -10.6 Q0.65 -10.7 0.7 -10.75 L0.85 -10.85 0.95 -11.0 1.05 -11.05 1.2 -11.2 1.2 -11.3 1.35 -11.45 1.55 -11.7 1.65 -11.8 1.95 -11.8 2.15 -11.6 2.2 -11.6 2.5 -11.3 2.6 -11.3 2.7 -11.25 2.75 -11.2 2.85 -11.15 2.9 -11.15 2.95 -11.1 2.95 -11.05 3.05 -11.0 3.05 -10.7 3.1 -10.7 3.1 -10.65 3.15 -10.6 3.15 -10.35 3.2 -10.3 3.25 -10.3 3.25 -10.0 3.3 -9.95 3.25 -9.9 3.25 -9.85 3.2 -9.8 3.15 -9.8 2.95 -9.75 2.9 -9.7 2.4 -9.65 2.3 -9.6 2.2 -9.5 2.3 -9.4 2.3 -9.35 2.35 -9.3 2.35 -9.25 2.4 -9.2 2.4 -9.0 2.35 -8.95 2.35 -8.8 2.3 -8.8 2.25 -8.75 2.25 -8.65 2.2 -8.6 2.2 -8.55 2.15 -8.5 2.15 -8.4 2.05 -8.3 2.0 -8.2 1.95 -8.15 1.9 -8.15 1.85 -8.1 1.85 -8.05 1.75 -8.05 1.75 -8.2 1.8 -8.25 1.8 -8.3 1.85 -8.35 1.85 -8.45 1.9 -8.5 1.9 -8.6 1.95 -8.6 1.95 -8.65 2.0 -8.7 2.0 -8.85 2.05 -8.9 2.05 -8.95 2.1 -8.95 2.1 -9.15 2.05 -9.25 2.0 -9.3 1.95 -9.4 1.9 -9.45 1.9 -9.6 2.05 -9.75 2.05 -9.85 2.1 -9.9 2.15 -9.9 2.2 -9.95 2.3 -9.95 2.4 -10.0 2.8 -10.0 2.9 -10.05 3.05 -10.05 3.05 -10.2 2.9 -10.35 2.9 -10.5 2.85 -10.55 2.85 -10.75 2.8 -10.8 2.8 -10.85 2.75 -10.9 2.75 -10.95 2.65 -11.0 2.6 -11.0 2.4 -11.2 2.35 -11.2 2.2 -11.25 2.1 -11.25 2.0 -11.35 1.9 -11.4 1.85 -11.4 1.8 -11.45 1.45 -11.1 1.4 -11.1 1.4 -11.05 1.35 -11.0 1.35 -10.95 1.3 -10.9 Q1.25 -10.85 1.15 -10.8 L0.95 -10.65 0.85 -10.55 0.85 -10.45 0.8 -10.45 0.65 -10.3 0.6 -10.3 0.5 -10.25 0.45 -10.2 0.45 -10.15 0.5 -10.2 Q0.75 -10.15 0.95 -10.25 L1.1 -10.25 1.2 -10.2 1.2 -9.9 1.15 -9.85 1.15 -9.8 1.1 -9.75 1.1 -9.7 1.05 -9.65 1.05 -9.55 1.1 -9.5 1.05 -9.5 1.05 -9.4 1.0 -9.35 1.05 -9.3 1.05 -9.25 1.0 -9.2 1.0 -9.15 0.95 -9.15 0.95 -9.1 0.85 -9.1 0.85 -9.05 0.6 -9.05 0.5 -9.1 0.45 -9.15 0.4 -9.15 0.25 -9.2 0.15 -9.15 0.15 -9.1 0.1 -9.05 0.1 -9.0 0.05 -8.95 0.05 -8.8 0.1 -8.75 0.1 -8.6 0.05 -8.55 0.05 -8.5 0.0 -8.45 0.0 -8.35 -0.05 -8.35 -0.05 -8.25 -0.1 -8.2 -0.2 -8.2 -0.2 -8.35 -0.15 -8.4 -0.15 -8.6 -0.1 -8.65 -0.15 -8.7 -0.15 -9.0 -0.1 -9.05 0.0 -9.05 0.0 -9.15 -0.05 -9.15 -0.05 -9.2 0.0 -9.25 0.0 -9.35 0.05 -9.4 0.05 -9.45 0.1 -9.5 0.4 -9.5 0.5 -9.45 0.6 -9.45 0.7 -9.35 0.8 -9.35 0.85 -9.4 0.85 -9.5 0.9 -9.55 0.9 -9.85 0.95 -9.9 0.95 -9.95 0.45 -9.95 0.35 -10.0 0.3 -10.05 0.25 -10.0 0.15 -10.0 0.1 -10.05 -0.15 -10.1 -0.6 -10.15 -0.65 -10.2 -0.75 -10.25 -0.85 -10.35 -0.85 -10.6 -0.8 -10.65 -0.8 -10.8 -0.75 -10.85 -0.75 -10.9 -0.7 -10.95 -0.7 -11.05 -0.65 -11.15 -0.4 -11.4 -0.4 -11.45 -0.25 -11.6 -0.2 -11.6 -0.2 -11.7 -0.15 -11.75 -0.15 -11.85 -0.35 -12.05 -0.35 -12.2 -0.25 -12.3 -0.35 -12.4 -0.4 -12.4 -0.4 -12.45 -0.45 -12.5 -0.45 -12.6 -0.5 -12.65 -0.55 -12.65 -0.85 -12.45 -0.85 -12.4 -0.95 -12.4 -1.1 -12.35 -1.2 -12.4 -1.25 -12.45 -1.25 -11.95 -1.35 -11.85 Q-1.35 -11.75 -1.4 -11.7 L-1.55 -11.6 -1.55 -11.55 -1.9 -11.55 -1.9 -11.5 -1.95 -11.45 -1.95 -11.4 -1.9 -11.35 -1.9 -11.25 -1.8 -11.05 -1.75 -11.0 -1.65 -10.95 -1.55 -10.85 -1.45 -10.8 -1.25 -10.75 -1.25 -10.6 -1.2 -10.55 -1.2 -10.45 -1.25 -10.4 -1.25 -10.3 -1.35 -10.3 -1.45 -10.25 -1.8 -10.25 -1.9 -10.3 -2.5 -10.4 -2.6 -10.45 -2.6 -10.4 -2.7 -10.3 -2.75 -10.3 -2.75 -10.25 -2.9 -10.25 -2.95 -10.2 -3.9 -10.2 -3.95 -10.15 -3.95 -9.9 Q-3.95 -9.85 -3.95 -9.8 -3.95 -9.6 -3.95 -9.45 L-3.95 -9.1 -4.0 -8.8 -4.0 -8.75 -4.1 -8.65 -4.1 -8.6 -4.15 -8.6 -4.2 -8.65 -4.2 -9.6 -4.25 -9.65 -4.25 -10.05 -4.2 -10.1 -4.2 -10.3 -4.15 -10.4 -4.1 -10.45 -4.0 -10.5 -3.9 -10.5 -3.85 -10.45 -2.95 -10.45 -3.05 -10.55 -3.1 -10.55 -3.2 -10.6 -3.3 -10.7 -3.4 -10.75 -3.5 -10.85 -3.6 -10.9 -3.65 -10.9 -3.65 -10.95 -3.7 -11.0 -3.7 -11.1 -3.75 -11.15 -3.75 -11.2 -3.8 -11.25 -3.8 -11.45 -3.85 -11.5 -4.1 -11.5 -4.2 -11.4 -4.2 -11.35 -4.3 -11.35 -4.35 -11.3 -4.35 -11.2 -4.3 -11.15 -4.3 -10.8 -4.35 -10.75 -4.35 -10.7 -4.4 -10.7 -4.45 -10.65 -4.6 -10.6 -4.6 -10.55 -4.7 -10.5 -5.15 -10.5 -5.15 -10.45 -5.35 -10.35 -5.4 -10.3 -5.35 -10.3 -5.15 -10.1 -5.0 -10.0 -5.0 -9.9 -4.95 -9.85 -4.95 -9.75 -4.9 -9.7 -4.9 -9.5 -5.0 -9.4 -5.1 -9.5 -5.1 -9.6 -5.15 -9.6 -5.2 -9.65 -5.2 -9.7 -5.25 -9.75 -5.3 -9.85 -5.35 -9.9 -5.35 -9.95 -5.45 -9.95 -5.5 -10.0 -5.5 -10.05 -5.6 -10.1 -5.65 -10.1 -5.65 -10.15 -5.7 -10.2 -5.7 -10.3 -5.65 -10.4 Q-5.6 -10.45 -5.5 -10.5 L-5.4 -10.55 -5.4 -10.6 -5.3 -10.65 -5.2 -10.65 -5.15 -10.7 -4.8 -10.7 -4.75 -10.75 -4.55 -10.85 -4.45 -10.95 -4.45 -11.05 -4.5 -11.1 -4.5 -11.35 -4.35 -11.5 -4.25 -11.65 -4.15 -11.75 -3.7 -11.75 -3.65 -11.7 -3.65 -11.65 -3.6 -11.6 -3.55 -11.5 -3.55 -11.25 -3.5 -11.2 -3.5 -11.1 -3.45 -11.05 -3.45 -11.0 -3.35 -10.9 -3.35 -10.8 Q-3.3 -10.75 -3.25 -10.75 L-3.2 -10.7 -3.15 -10.7 -3.05 -10.6 -2.95 -10.55 -2.9 -10.5 -2.9 -10.55 -2.85 -10.55 -2.85 -10.6 -2.7 -10.75 -2.6 -10.75 -2.5 -10.7 -2.35 -10.65 -2.25 -10.6 -2.0 -10.7 -1.85 -10.6 -1.65 -10.55 -1.55 -10.55 -1.6 -10.6 -1.7 -10.75 -1.75 -10.8 -1.85 -10.8 -2.05 -11.0 -2.05 -11.05 -2.1 -11.1 -2.1 -11.15 -2.2 -11.25 -2.25 -11.25 -2.25 -11.65 -2.2 -11.7 -2.2 -11.85 -2.15 -11.9 -1.85 -11.9 -1.75 -11.8 -1.7 -11.8 -1.45 -12.05 -1.4 -12.3 -1.45 -12.55 Q-1.45 -12.7 -1.3 -12.7 L-1.3 -12.9 -1.25 -12.95 -1.25 -13.15 -1.2 -13.2 -1.2 -13.45 -1.15 -13.45 -1.15 -13.6 -1.2 -13.65 -1.25 -13.75 -1.25 -13.8 -1.45 -14.0 -1.8 -14.0 -1.9 -14.05 -2.0 -14.05 -2.15 -14.2 -2.15 -14.25 -2.2 -14.3 -2.2 -14.6 -2.1 -14.75 -2.05 -14.85 -1.95 -14.95 -1.85 -15.0 -1.75 -15.1 -1.6 -15.15 -1.55 -15.2 -1.55 -15.35 -1.5 -15.35 -1.4 -15.5 -1.3 -15.6 -1.2 -15.65 -1.2 -15.7 -1.15 -15.75 Q-1.0 -15.8 -0.85 -15.85 L-0.55 -16.05 -0.45 -16.1 -0.2 -16.1 0.1 -15.8 0.1 -15.75 Q0.15 -15.6 0.25 -15.5 L0.3 -15.35 0.35 -15.25 0.45 -15.15 0.5 -14.95 0.55 -14.85 0.65 -14.85 0.8 -14.7 0.95 -14.5 1.0 -14.45 1.2 -14.35 1.3 -14.35 1.35 -14.3 1.4 -14.3 1.5 -14.2 1.5 -14.15 1.7 -14.15 1.85 -14.3 1.95 -14.35 2.15 -14.5 2.2 -14.6 2.35 -14.75 2.4 -14.85 2.4 -14.9 2.35 -14.95 2.35 -15.2 2.3 -15.25 2.3 -15.45 2.25 -15.5 2.25 -16.0 2.3 -16.05 2.3 -16.2 2.35 -16.25 2.35 -16.3 2.45 -16.35 2.55 -16.45 2.6 -16.45 2.65 -16.5 2.75 -16.55 3.0 -16.6 3.2 -16.6 3.35 -16.55 3.45 -16.55 3.45 -16.6 3.4 -16.65 3.4 -16.7 3.45 -16.75 3.45 -16.8 3.5 -16.85 3.5 -17.05 3.55 -17.1 3.55 -17.3 3.6 -17.35 3.6 -17.45 3.65 -17.5 3.65 -17.6 3.7 -17.6 3.7 -18.45 3.65 -18.5 3.65 -18.7 3.6 -18.75 3.6 -18.85 3.55 -18.9 Q3.5 -18.95 3.45 -19.0 L3.4 -19.1 3.4 -19.15 3.35 -19.15 3.35 -19.2 3.4 -19.2 3.2 -19.25 2.25 -19.2 2.05 -19.2 2.0 -19.15 1.9 -19.1 1.75 -19.05 1.7 -19.05 1.4 -19.0 1.35 -19.0 1.05 -18.95 1.0 -18.9 0.65 -18.95 0.6 -18.95 0.4 -19.0 0.3 -19.0 0.1 -19.05 -0.05 -19.2 -0.15 -19.25 -0.2 -19.3 -0.25 -19.3 -0.3 -19.4 -0.45 -19.45 -0.55 -19.45 -0.6 -19.5 -0.6 -19.6 -0.7 -19.6 -0.8 -19.55 -0.8 -19.5 -0.9 -19.5 -1.1 -19.3 -1.25 -19.2 -1.3 -19.2 -1.4 -19.1 Q-1.55 -19.0 -1.7 -18.9 L-1.75 -18.9 -1.8 -18.85 -2.0 -18.8 -2.05 -18.8 -2.25 -18.7 -2.25 -18.65 -2.45 -18.65 -2.55 -18.7 -2.85 -19.0 -2.85 -19.6 -2.9 -19.65 -2.9 -19.95 -3.0 -20.05 -3.0 -20.15 -3.05 -20.2 -3.05 -20.3 -3.1 -20.35 -3.05 -20.4 -3.05 -20.5 -3.1 -20.5 -3.1 -20.75 -3.0 -20.85 -3.0 -20.9 -2.95 -20.95 -3.45 -20.95 -3.6 -21.1 -3.65 -21.2 -3.65 -21.35 -3.7 -21.35 -3.7 -21.25 -3.75 -21.2 -3.7 -21.15 -3.7 -21.0 -3.75 -20.95 -3.75 -20.85 -3.85 -20.75 -3.85 -20.65 -3.95 -20.65 -4.0 -20.6 -4.0 -20.55 -4.05 -20.5 Q-4.1 -20.5 -4.15 -20.5 L-4.2 -20.45 -4.2 -20.4 -4.25 -20.35 -4.35 -20.3 -4.35 -20.25 -4.4 -20.2 -4.4 -20.1 -4.35 -20.1 -4.35 -20.05 -4.3 -20.0 -4.3 -19.95 -4.25 -19.9 -4.25 -19.75 -4.2 -19.7 Q-4.2 -19.65 -4.25 -19.6 -4.25 -19.55 -4.35 -19.5 L-4.4 -19.45 -4.45 -19.45 -4.45 -19.65 -4.5 -19.7 -4.5 -19.8 -4.55 -19.85 -4.55 -19.9 -4.6 -19.95 -4.6 -20.0 -4.7 -20.05 -4.7 -20.35 -4.6 -20.4 -4.5 -20.4 -4.4 -20.5 -4.35 -20.5 -4.3 -20.55 -4.25 -20.55 -4.0 -20.8 -4.0 -20.85 -3.95 -20.9 -4.0 -20.9 -4.0 -20.85 -4.1 -20.8 -4.65 -20.8 -4.75 -20.9 -4.75 -21.0 -4.8 -21.05 -5.05 -21.0 -5.05 -20.85 -5.1 -20.75 -5.15 -20.7 -5.2 -20.7 -5.25 -20.65 -5.25 -20.55 -5.35 -20.45 -5.35 -20.4 -5.45 -20.3 -5.45 -20.2 -5.6 -20.05 -5.65 -20.05 -5.65 -20.1 -5.6 -20.15 -5.6 -20.3 -5.55 -20.35 -5.55 -20.45 -5.5 -20.5 -5.5 -20.55 -5.45 -20.6 -5.45 -20.7 -5.4 -20.7 -5.4 -20.75 -5.25 -20.9 -5.25 -21.0 -5.2 -21.05 -5.2 -21.15 -5.15 -21.2 -5.05 -21.2 -5.05 -21.25 -4.75 -21.2 -4.7 -21.2 -4.6 -21.15 -4.6 -21.0 -4.1 -20.95 -4.05 -21.0 -4.0 -21.0 -3.95 -21.05 -3.95 -21.3 -3.9 -21.35 -3.9 -21.55 -3.85 -21.6 -3.5 -21.6 -3.45 -21.55 -3.45 -21.35 -3.4 -21.3 -3.4 -21.25 -3.3 -21.15 -2.8 -21.15 -2.8 -21.2 -2.75 -21.25 -2.75 -21.3 -2.65 -21.4 -2.55 -21.45 -2.4 -21.45 -2.05 -21.35 -1.85 -21.3 -1.75 -21.2 -1.7 -21.2 -1.6 -21.15 -1.55 -21.15 -1.5 -21.2 Q-1.35 -21.25 -1.25 -21.3 L-0.95 -21.45 -0.9 -21.5 -0.85 -21.5 -0.7 -21.65 -0.65 -21.65 -0.6 -21.7 -0.6 -21.8 -0.45 -21.95 -0.45 -22.0 -0.4 -22.05 -0.4 -22.1 Q-0.4 -22.2 -0.3 -22.25 L-0.2 -22.35 Q-0.15 -22.35 -0.1 -22.4 L-0.05 -22.4 -0.05 -22.5 0.05 -22.6 0.05 -22.65 0.15 -22.75 0.15 -23.0 0.2 -23.0 0.2 -23.05 0.25 -23.1 0.25 -23.2 0.3 -23.25 0.35 -23.35 0.75 -23.35 0.85 -23.4 Q0.95 -23.45 1.0 -23.55 L1.05 -23.6 1.1 -23.6 1.1 -23.8 1.05 -23.9 1.05 -24.0 0.8 -24.25 0.7 -24.25 0.65 -24.3 0.55 -24.3 0.4 -24.45 0.25 -24.5 0.2 -24.55 0.2 -25.05 0.15 -25.1 0.15 -25.15 Q0.15 -25.2 0.15 -25.25 L0.1 -25.25 0.1 -25.3 0.0 -25.35 -0.2 -25.3 -0.55 -25.3 -0.6 -25.35 -0.65 -25.35 Q-0.8 -25.3 -0.95 -25.25 L-1.35 -25.3 -1.45 -25.3 -1.5 -25.35 -1.5 -25.4 -1.6 -25.5 -1.6 -25.45 -1.65 -25.4 -1.75 -25.35 -1.75 -25.45 -1.8 -25.5 -1.8 -25.55 -1.85 -25.55 -1.85 -25.6 -1.9 -25.65 -1.95 -25.8 -2.15 -26.1 -2.25 -26.2 -2.25 -26.25 -2.45 -26.35 -2.55 -26.45 -2.55 -26.6 -2.5 -26.65 -2.5 -26.7 -2.6 -26.8 -2.65 -26.8 -2.75 -26.9 -2.8 -26.9 -2.85 -26.95 -2.95 -27.0 -2.95 -27.05 -3.15 -27.05 -3.25 -27.1 -3.35 -27.1 -3.4 -27.05 -3.45 -27.05 -3.55 -26.95 -3.9 -26.9 -3.9 -26.85 -3.95 -26.8 -4.05 -26.8 -4.1 -26.75 -4.65 -26.75 -4.75 -26.8 -5.05 -26.85 -5.25 -26.85 -5.3 -26.9 -5.55 -26.9 -5.6 -26.95 -5.7 -27.0 -5.75 -27.0 -5.85 -27.05 -5.95 -27.15 -6.05 -27.15 -6.05 -27.2 -6.15 -27.2 -6.45 -27.3 -6.5 -27.3 -6.7 -27.5 -6.75 -27.5 -6.75 -27.6 -6.8 -27.65 -6.8 -28.0 -6.85 -28.05 -6.85 -28.1 -6.9 -28.15 -6.9 -28.2 -6.95 -28.2 -7.0 -28.25 -7.0 -28.45 -7.05 -28.5 -7.05 -28.55 -7.1 -28.6 -7.1 -28.8 -7.05 -28.85 -7.05 -28.9 -7.0 -28.9 -7.0 -29.0 -6.95 -29.05 -6.95 -29.1 -6.85 -29.2 -6.85 -29.25 -6.75 -29.45 -6.65 -29.5 -6.65 -29.55 -6.55 -29.55 -6.55 -29.75 -6.75 -29.85 -6.8 -29.85 -6.8 -29.9 -6.9 -29.9 -7.0 -29.85 -7.2 -29.85 Q-7.25 -29.8 -7.3 -29.8 L-7.35 -29.75 -7.4 -29.75 -7.5 -29.7 -7.65 -29.65 -7.75 -29.65 -8.05 -29.6 Q-8.15 -29.55 -8.2 -29.5 L-8.45 -29.45 -9.2 -29.55 -9.9 -29.65 -9.95 -29.7 -10.0 -29.7 -10.0 -29.75 -10.1 -29.8 -10.25 -29.85 -10.35 -29.9 -10.35 -29.95 -10.4 -29.95 -10.4 -30.0 -10.5 -30.1 -10.5 -30.15 -10.9 -30.15 -10.9 -30.1 -11.0 -30.05 -11.1 -29.85 -11.35 -29.6 -11.65 -29.45 Q-11.75 -29.4 -11.85 -29.35 L-12.1 -29.1 -12.3 -29.0 -12.35 -29.0 -12.5 -28.85 -12.5 -28.8 -12.7 -28.8 -12.7 -28.75 -12.9 -28.65 -12.95 -28.65 -13.15 -28.6 -13.2 -28.55 -13.2 -28.35 -13.25 -28.3 -13.25 -27.95 -13.3 -27.9 -13.3 -27.8 -13.35 -27.75 -13.35 -27.55 -13.4 -27.5 -13.4 -27.4 -13.45 -27.4 -13.45 -27.35 -13.5 -27.3 -13.5 -27.2 -13.55 -27.15 -13.55 -27.05 -13.65 -26.95 -13.7 -26.85 -13.7 -26.75 -13.75 -26.7 Q-13.75 -26.6 -13.85 -26.55 -14.0 -26.4 -14.15 -26.3 L-14.2 -26.25 -14.3 -26.2 -14.35 -26.15 -14.4 -26.15 -14.45 -26.1 -14.55 -26.05 -14.55 -26.0 -14.6 -26.0 -14.6 -25.9 -14.75 -25.75 -14.75 -25.7 -14.8 -25.7 -14.85 -25.65 -14.85 -25.55 -15.0 -25.4 -15.0 -25.3 -14.95 -25.25 -14.95 -24.75 -14.9 -24.7 -14.9 -24.6 -14.85 -24.55 -14.85 -24.5 -14.8 -24.45 -14.8 -24.4 -14.75 -24.3 -14.7 -24.25 -14.7 -24.2 -14.6 -24.15 -14.55 -24.15 -14.4 -24.0 -14.3 -23.85 -14.25 -23.8 -14.25 -23.7 -14.15 -23.6 -14.15 -23.55 -14.1 -23.5 -14.1 -23.45 -14.05 -23.45 -14.05 -23.4 -14.0 -23.35 -14.0 -23.2 -13.95 -23.15 -13.9 -23.15 -13.85 -23.1 -13.85 -23.05 -13.8 -23.0 -13.8 -22.95 -13.6 -22.75 -13.55 -22.75 -13.55 -22.55 -13.5 -22.5 -13.5 -22.3 -13.55 -22.25 -13.55 -22.1 -13.3 -22.1 -13.2 -22.05 -12.75 -22.05 -12.65 -22.1 -12.45 -22.1 -12.4 -22.05 -12.0 -21.95 -11.9 -21.85 -11.85 -21.85 -11.85 -21.4 -11.8 -21.35 -11.8 -21.3 -11.75 -21.25 -11.6 -21.25 -11.5 -21.2 -11.5 -21.15 -11.45 -21.1 -11.45 -20.85 -11.5 -20.8 -11.5 -20.7 -11.55 -20.7 -11.55 -20.6 -11.6 -20.55 -11.6 -20.4 -11.45 -20.35 -11.35 -20.25 -11.3 -20.25 -11.15 -20.1 -11.15 -20.0 -11.1 -20.0 -11.05 -19.95 -11.05 -19.75 -10.95 -19.65 -10.9 -19.65 -10.9 -19.6 -10.8 -19.55 -10.8 -19.3 -10.85 -19.3 -10.85 -19.1 -10.9 -19.05 -10.9 -18.95 -10.95 -18.9 -11.0 -18.75 -11.05 -18.65 -11.15 -18.6 -11.15 -18.55 -11.2 -18.5 -11.25 -18.4 -11.4 -18.25 -11.4 -18.1 -11.45 -18.05 -11.45 -17.95 -11.5 -17.95 -11.5 -17.9 -11.55 -17.85 -11.55 -17.8 -11.6 -17.8 -11.6 -17.9 -11.55 -18.0 -11.45 -18.1 -11.45 -18.3 -11.4 -18.35 -11.4 -18.4 -11.3 -18.5 -11.3 -18.6 -11.25 -18.65 -11.25 -18.9 -11.2 -18.95 -11.2 -19.05 -11.15 -19.1 -11.15 -19.2 -11.1 -19.25 -11.1 -19.3 -11.05 -19.35 -11.1 -19.4 -11.1 -19.45 -11.15 -19.55 -11.25 -19.6 -11.3 -19.65 -11.3 -19.8 -11.35 -19.85 -11.35 -19.95 -11.55 -20.05 -11.65 -20.15 -11.7 -20.25 -11.75 -20.15 -11.75 -20.05 -11.8 -20.05 -11.85 -20.0 -11.85 -19.9 -11.95 -19.8 -11.95 -19.65 -12.0 -19.65 -12.1 -19.6 -12.15 -19.65 -12.15 -19.85 -12.1 -19.9 -12.1 -20.1 -12.05 -20.15 -12.05 -20.2 -11.95 -20.3 -11.95 -20.4 -11.9 -20.45 -11.9 -20.55 -11.85 -20.6 -11.85 -20.65 -11.8 -20.7 -11.8 -20.9 -11.9 -20.95 -12.05 -21.1 -12.1 -21.2 -12.15 -21.2 -12.15 -21.65 -12.2 -21.7 -12.2 -21.75 -12.45 -21.8 -12.6 -21.8 -12.65 -21.75 -13.2 -21.75 -13.3 -21.8 -13.65 -21.8 -13.8 -21.95 -13.85 -21.95 -13.9 -22.0 -13.9 -22.2 -13.85 -22.25 -13.85 -22.35 -13.8 -22.4 -13.85 -22.45 -13.85 -22.55 -13.95 -22.65 -14.1 -22.85 -14.15 -22.95 -14.3 -23.1 -14.3 -23.2 -14.35 -23.25 -14.35 -23.35 -14.4 -23.35 -14.4 -23.4 -14.5 -23.5 -14.5 -23.55 -14.55 -23.6 -14.55 -23.65 -14.65 -23.7 -14.65 -23.75 -15.05 -24.15 -15.05 -24.2 -15.1 -24.25 -15.1 -24.3 -15.15 -24.35 -15.15 -24.45 -15.2 -24.5 -15.2 -24.6 -15.25 -24.65 -15.25 -25.15 -15.3 -25.2 -15.3 -25.3 -15.35 -25.35 -15.35 -25.5 -15.2 -25.65 -15.05 -25.85 -14.95 -25.95 -14.95 -26.05 -14.85 -26.15 -14.85 -26.2 -14.8 -26.25 -14.75 -26.25 -14.75 -26.3 -14.65 -26.4 -14.55 -26.4 -14.45 -26.5 -14.4 -26.5 -14.3 -26.55 -14.2 -26.65 -14.15 -26.65 -14.1 -26.7 -14.1 -26.75 -14.05 -26.8 -14.05 -26.85 -13.95 -26.95 -13.95 -27.0 -13.9 -27.05 -13.9 -27.1 -13.85 -27.15 -13.85 -27.3 -13.8 -27.3 -13.8 -27.35 -13.75 -27.4 -13.75 -27.45 -13.7 -27.5 -13.7 -27.6 -13.65 -27.65 -13.65 -27.85 -13.6 -27.9 -13.6 -28.0 -13.55 -28.05 -13.55 -28.4 -13.5 -28.45 -13.5 -28.65 -13.45 -28.65 -13.45 -28.8 -13.35 -28.9 -13.3 -28.9 -13.0 -28.95 -12.95 -29.0 -12.85 -29.0 -12.75 -29.1 -12.7 -29.1 -12.6 -29.15 -12.55 -29.15 -12.45 -29.3 Q-12.35 -29.35 -12.3 -29.4 L-12.15 -29.55 -12.15 -29.6 -12.1 -29.7 -12.1 -29.75 -12.05 -29.85 -11.95 -29.95 -11.95 -30.0 -11.9 -30.05 -11.9 -30.15 -11.95 -30.2 -11.95 -30.35 -12.0 -30.4 -12.0 -30.45 -12.05 -30.5 -12.05 -30.65 -12.0 -30.75 -11.85 -30.9 -11.85 -30.95 -11.8 -30.95 -11.7 -31.05 -11.65 -31.05 -11.4 -31.15 -11.05 -31.2 -10.85 -31.3 -10.8 -31.35 -10.6 -31.4 -10.45 -31.45 -10.35 -31.55 -10.3 -31.55 -10.2 -31.6 -10.15 -31.6 -9.8 -31.65 -9.75 -31.65 -9.5 -31.7 -9.45 -31.65 -9.4 -31.65 -9.3 -31.6 -9.2 -31.5 -9.2 -31.2 Q-9.2 -31.15 -9.2 -31.05 L-9.2 -31.0 -9.15 -30.95 -8.75 -30.95 -8.6 -31.05 -8.5 -31.1 -8.45 -31.15 -7.7 -31.1 -7.7 -31.05 -7.6 -31.1 -7.55 -31.15 -7.45 -31.15 -7.35 -31.1 -7.15 -31.1 -7.1 -31.05 -7.05 -31.05 -7.0 -31.0 -6.85 -31.0 -6.45 -31.2 -6.25 -31.2 -6.1 -31.05 -6.1 -30.8 -6.05 -30.75 -6.05 -30.65 -6.1 -30.6 -6.1 -30.55 -6.15 -30.5 -6.15 -30.45 Q-6.2 -30.45 -6.25 -30.4 L-6.45 -30.35 -6.6 -30.2 -6.6 -30.15 -6.55 -30.1 -6.4 -30.05 -6.3 -29.95 -6.3 -29.45 -6.5 -29.25 -6.5 -29.2 -6.55 -29.15 -6.55 -29.05 -6.6 -29.0 -6.65 -28.9 -6.75 -28.8 -6.75 -28.65 -6.7 -28.6 -6.7 -28.55 -6.65 -28.5 -6.65 -28.45 -6.6 -28.4 -6.6 -28.35 -6.55 -28.3 -6.55 -28.25 -6.5 -28.2 -6.5 -28.15 -6.45 -28.1 -6.45 -27.75 -6.4 -27.75 -6.25 -27.6 -5.9 -27.5 -5.75 -27.45 -5.65 -27.35 -5.2 -27.4 -5.1 -27.5 -5.0 -27.5 -4.9 -27.55 -4.9 -27.6 -4.85 -27.65 -4.8 -27.65 -4.8 -27.75 -4.75 -27.8 -4.75 -27.95 -4.7 -27.95 -4.6 -28.05 -4.6 -28.1 -4.5 -28.15 -4.5 -28.2 -4.4 -28.2 -4.3 -28.3 -3.95 -28.3 -3.75 -28.25 -3.2 -28.25 -3.15 -28.3 -3.15 -28.35 -3.1 -28.35 -2.8 -28.65 -2.75 -28.75 -2.65 -28.85 -2.65 -29.0 -2.6 -29.05 -2.6 -29.15 -2.7 -29.2 -2.8 -29.2 -2.85 -29.15 -3.0 -29.15 -3.1 -29.2 -3.1 -29.5 Q-3.1 -29.6 -3.05 -29.65 L-2.95 -29.75 Q-2.9 -29.8 -2.9 -29.85 L-2.8 -29.9 -2.7 -30.0 -2.7 -30.05 -2.6 -30.15 -2.55 -30.15 -2.5 -30.2 -2.4 -30.25 -2.35 -30.3 -2.3 -30.3 -2.3 -30.2 -2.35 -30.15 -2.45 -30.1 -2.5 -30.05 -2.5 -29.95 -2.55 -29.85 -2.65 -29.8 -2.75 -29.7 -2.75 -29.65 -2.85 -29.55 -2.85 -29.5 -2.95 -29.4 -2.6 -29.4 -2.5 -29.35 -2.4 -29.35 -2.45 -29.25 -2.45 -29.0 -2.5 -29.0 -2.5 -28.8 -2.55 -28.75 -2.55 -28.65 -2.65 -28.6 -2.75 -28.5 -2.75 -28.45 -2.9 -28.3 -2.7 -28.35 -2.6 -28.4 -2.2 -28.45 -2.15 -28.45 -2.1 -28.5 -2.05 -28.5 -2.05 -28.55 -2.0 -28.55 -1.9 -28.6 -1.85 -28.65 -1.8 -28.65 -1.75 -28.7 -1.65 -28.7 -1.55 -28.65 -1.5 -28.6 -1.4 -28.55 -1.3 -28.35 -1.2 -28.3 -1.15 -28.25 -1.15 -28.2 -1.05 -28.1 -1.05 -27.85 -0.75 -27.55 -0.7 -27.55 -0.65 -27.5 -0.6 -27.5 -0.5 -27.45 -0.45 -27.4 -0.45 -27.35 -0.35 -27.3 Q-0.3 -27.25 -0.2 -27.2 L-0.1 -27.1 0.0 -27.05 0.15 -27.0 0.3 -26.9 0.6 -26.9 0.7 -27.0 0.75 -27.0 0.8 -27.05 0.9 -27.05 0.95 -27.1 0.95 -27.15 1.0 -27.15 1.05 -27.2 1.35 -27.2 M2.1 -27.05 L2.1 -27.1 2.05 -27.15 2.05 -27.2 2.0 -27.2 2.0 -27.15 1.95 -27.1 1.95 -27.0 1.9 -26.95 1.9 -26.9 1.85 -26.9 1.8 -26.85 1.6 -26.85 1.35 -26.9 1.2 -26.9 1.0 -26.8 0.85 -26.75 0.8 -26.7 0.2 -26.7 0.05 -26.75 -0.05 -26.85 -0.2 -26.9 -0.25 -26.9 -0.35 -27.0 -0.35 -27.05 -0.45 -27.05 -0.45 -27.1 -0.6 -27.25 -0.7 -27.3 -0.85 -27.35 -0.95 -27.4 -1.05 -27.5 -1.05 -27.55 -1.1 -27.6 -1.15 -27.6 -1.25 -27.7 -1.25 -27.9 -1.3 -27.95 -1.3 -28.0 -1.35 -28.0 -1.35 -28.05 -1.45 -28.1 -1.45 -28.15 -1.5 -28.2 -1.55 -28.2 -1.6 -28.25 -1.6 -28.3 -1.7 -28.35 -1.8 -28.35 -1.8 -28.3 -1.9 -28.3 -1.9 -28.25 -2.05 -28.25 -2.1 -28.2 -2.7 -28.2 -2.9 -28.15 -2.95 -28.1 -3.25 -28.1 -3.3 -28.05 -4.2 -28.05 -4.25 -28.0 -4.3 -28.0 -4.45 -27.85 -4.45 -27.7 -4.55 -27.6 -4.55 -27.55 -4.6 -27.5 -4.6 -27.45 -4.7 -27.35 -4.7 -27.3 -4.8 -27.25 -4.85 -27.25 -5.0 -27.2 -4.8 -27.15 -4.7 -27.1 -4.15 -27.1 -4.1 -27.15 -4.1 -27.2 -4.0 -27.2 Q-3.8 -27.25 -3.6 -27.35 L-3.4 -27.4 -3.15 -27.4 -2.9 -27.35 -2.85 -27.3 -2.65 -27.3 -2.6 -27.25 -2.6 -27.15 -2.5 -27.1 -2.45 -27.05 -2.4 -27.05 -2.4 -27.0 -2.3 -27.0 -2.2 -26.9 -2.2 -26.85 -2.15 -26.8 -2.15 -26.65 -2.05 -26.6 -1.95 -26.5 -1.95 -26.45 -1.9 -26.4 -1.7 -26.1 -1.7 -26.05 -1.65 -26.0 -1.65 -25.9 -1.6 -25.85 -1.6 -25.75 -1.5 -25.7 -1.45 -25.65 -1.4 -25.65 -1.3 -25.55 -1.05 -25.55 -1.0 -25.6 -0.95 -25.6 -0.65 -25.65 -0.45 -25.7 -0.4 -25.65 -0.3 -25.65 -0.25 -25.7 -0.05 -25.75 0.05 -25.75 0.15 -25.7 0.25 -25.6 0.3 -25.6 0.4 -25.5 0.45 -25.4 0.45 -25.3 0.5 -25.25 0.5 -24.8 0.6 -24.7 0.7 -24.65 0.85 -24.55 0.95 -24.55 1.05 -24.45 Q1.1 -24.45 1.15 -24.4 L1.2 -24.4 1.25 -24.35 1.25 -24.3 1.35 -24.2 1.35 -24.1 1.4 -24.05 1.4 -24.0 1.45 -23.95 1.45 -23.5 Q1.4 -23.45 1.35 -23.35 L1.25 -23.3 1.2 -23.25 1.1 -23.25 1.1 -23.2 1.0 -23.1 Q0.95 -23.1 0.85 -23.05 L0.8 -23.05 0.7 -23.0 0.65 -23.0 0.5 -22.85 0.5 -22.7 0.4 -22.5 0.35 -22.45 0.3 -22.45 0.2 -22.35 0.2 -22.3 0.15 -22.2 0.2 -22.2 0.25 -22.25 0.25 -22.3 0.35 -22.4 0.45 -22.4 0.5 -22.35 0.7 -22.35 0.75 -22.4 0.8 -22.4 1.0 -22.3 1.05 -22.3 1.2 -22.15 1.2 -22.1 1.25 -22.05 1.25 -21.6 1.3 -21.6 1.35 -21.55 1.4 -21.6 1.45 -21.6 1.5 -21.65 1.6 -21.7 1.7 -21.8 1.75 -21.8 1.8 -21.85 1.8 -21.9 1.85 -21.95 1.85 -22.0 1.9 -22.05 1.9 -22.1 2.0 -22.2 2.0 -22.25 2.05 -22.3 2.05 -22.35 2.1 -22.4 2.1 -22.55 2.15 -22.55 2.15 -22.6 2.2 -22.65 2.2 -22.7 2.25 -22.75 2.25 -22.8 2.3 -22.85 2.3 -22.95 2.35 -22.95 2.35 -23.0 2.5 -23.15 2.55 -23.15 2.55 -23.2 2.65 -23.3 2.65 -23.4 2.7 -23.45 2.7 -23.55 2.65 -23.6 2.65 -23.8 2.7 -23.85 2.7 -23.9 2.8 -24.0 2.85 -24.1 2.9 -24.15 3.0 -24.2 3.5 -24.2 3.5 -24.6 3.45 -24.65 3.45 -24.7 3.4 -24.75 3.4 -24.8 3.35 -24.85 3.35 -24.95 2.95 -25.35 2.95 -25.45 2.9 -25.45 2.9 -25.55 2.75 -25.7 2.75 -25.75 2.7 -25.8 2.7 -25.85 2.65 -25.9 2.65 -25.95 2.6 -26.0 2.6 -26.05 2.55 -26.1 2.55 -26.15 2.45 -26.25 2.45 -26.35 2.4 -26.4 2.4 -26.5 2.3 -26.55 2.25 -26.6 2.25 -26.85 2.3 -26.9 2.25 -26.9 2.25 -26.95 2.15 -27.0 2.1 -27.05 M-33.9 -20.45 L-33.75 -20.6 -33.7 -20.7 -33.65 -20.7 -33.55 -20.75 -33.5 -20.8 -33.4 -20.85 -33.15 -20.85 -33.05 -20.75 -32.9 -20.8 -32.8 -20.8 -32.35 -20.85 -32.35 -20.9 -32.2 -20.9 -32.1 -20.8 -32.05 -20.8 -31.95 -20.75 -31.85 -20.65 -31.85 -20.6 -31.8 -20.6 -31.8 -20.45 -31.75 -20.4 -31.75 -20.3 -31.8 -20.25 -31.8 -20.05 -31.7 -20.05 -31.6 -20.0 -31.3 -20.0 -31.2 -19.95 -31.15 -19.9 -31.15 -19.85 -30.95 -19.65 -30.55 -19.65 -30.45 -19.7 -30.9 -19.7 -31.0 -19.75 -30.75 -19.8 -30.4 -19.85 -30.3 -19.9 -30.2 -20.0 -30.2 -20.1 -30.15 -20.1 -30.15 -20.15 -30.05 -20.2 -29.95 -20.3 -29.95 -20.35 -29.85 -20.45 -29.85 -20.5 -29.8 -20.5 -29.7 -20.55 -29.75 -20.7 -29.75 -21.15 -29.8 -21.2 -29.8 -21.35 Q-29.8 -21.4 -29.85 -21.4 L-29.95 -21.5 -29.95 -21.7 -29.9 -21.75 -29.8 -21.75 -29.75 -21.8 Q-29.7 -21.8 -29.65 -21.85 L-29.35 -21.85 -29.3 -21.9 -29.2 -21.9 -29.15 -21.95 -28.7 -21.95 -28.6 -22.05 -28.6 -22.15 -28.65 -22.2 -28.65 -22.55 -28.7 -22.6 -28.7 -22.65 -28.75 -22.7 -28.75 -23.15 -28.7 -23.2 -28.7 -23.25 -28.65 -23.3 -28.65 -23.35 -28.6 -23.4 -28.1 -23.4 -27.9 -23.35 -27.8 -23.35 -27.8 -23.3 -27.75 -23.25 -27.85 -23.25 -28.1 -23.2 -28.5 -23.1 -28.5 -23.05 -28.55 -23.0 -28.55 -22.85 -28.5 -22.8 -28.5 -22.7 -28.45 -22.65 -28.45 -22.35 -28.4 -22.35 -28.4 -22.3 -28.35 -22.25 -28.35 -22.2 -28.3 -22.15 -28.3 -22.0 -28.35 -22.0 -28.35 -21.95 -28.55 -21.75 -28.85 -21.75 -28.9 -21.7 -29.15 -21.7 -29.25 -21.65 -29.3 -21.65 -29.55 -21.6 -29.55 -21.35 -29.45 -21.25 -29.45 -20.75 -29.5 -20.55 -29.45 -20.55 -29.2 -20.3 -29.2 -20.25 -29.15 -20.25 -29.15 -20.2 -29.05 -20.1 -28.85 -20.05 -28.8 -20.05 -28.4 -20.0 -28.35 -20.0 -28.15 -19.95 -28.1 -19.9 -27.95 -19.9 -27.85 -19.85 -27.75 -19.75 -27.6 -19.75 Q-27.45 -19.7 -27.35 -19.65 L-27.25 -19.65 -27.2 -19.6 -27.1 -19.55 -27.0 -19.55 -26.9 -19.5 -26.85 -19.5 -26.75 -19.4 -26.75 -19.25 -26.7 -19.2 -26.7 -19.1 -26.65 -19.05 -26.65 -19.0 -26.6 -18.95 -26.6 -19.0 -26.45 -19.15 -26.45 -19.2 -26.25 -19.2 -26.2 -19.15 -25.95 -19.1 -25.85 -19.0 -25.75 -19.0 -25.6 -18.85 -25.6 -18.8 -25.4 -18.8 -25.3 -18.85 -25.1 -19.05 -25.1 -19.1 -25.05 -19.15 -25.05 -19.2 -25.1 -19.25 -25.1 -20.05 -25.05 -20.1 -25.05 -20.25 -25.0 -20.35 -24.95 -20.4 -24.9 -20.4 -24.85 -20.5 -24.75 -20.55 -24.7 -20.6 -24.65 -20.6 -24.6 -20.65 -24.6 -20.85 -24.65 -20.9 -24.65 -21.15 -24.7 -21.2 -24.65 -21.25 -24.6 -21.2 -24.6 -21.15 -24.35 -20.9 -24.35 -20.85 -24.3 -20.8 -24.3 -20.6 -24.4 -20.5 -24.4 -20.45 -24.55 -20.4 -24.55 -20.35 -24.65 -20.35 -24.75 -20.25 -24.75 -20.15 -24.8 -20.1 -24.8 -20.0 -24.85 -20.0 -24.85 -19.95 -24.9 -19.8 -24.9 -19.35 -24.85 -19.3 -24.85 -19.05 -24.95 -18.95 -25.0 -18.85 -25.05 -18.8 -25.05 -18.75 -25.1 -18.7 -25.1 -18.65 -25.25 -18.6 -25.35 -18.6 -25.4 -18.55 -25.55 -18.55 -25.6 -18.6 -25.7 -18.6 -25.8 -18.75 -25.9 -18.85 -25.95 -18.95 -26.1 -18.95 -26.3 -19.0 -26.4 -19.0 -26.45 -18.95 -26.45 -18.9 -26.6 -18.9 -26.6 -18.7 -26.65 -18.65 -26.7 -18.55 -27.0 -18.4 -27.05 -18.4 -27.2 -18.3 -27.4 -18.25 -27.5 -18.15 -27.5 -18.1 -27.6 -18.0 -27.6 -17.9 -27.55 -17.85 -27.55 -17.65 -27.6 -17.6 -27.6 -17.5 -27.65 -17.4 -27.65 -17.25 -27.5 -17.15 -27.3 -17.1 -27.25 -17.05 -27.25 -17.0 -27.15 -16.9 -27.1 -16.9 -27.05 -16.85 -26.95 -16.85 -26.85 -16.75 -26.75 -16.75 -26.65 -16.7 -26.65 -16.65 -26.6 -16.65 -26.6 -16.15 -26.65 -16.1 -26.65 -15.95 -26.6 -15.9 -26.6 -15.25 -26.65 -15.25 -26.65 -15.15 -26.7 -15.1 -26.7 -14.95 -26.75 -14.95 -26.75 -14.7 -26.7 -14.7 -26.5 -14.9 -26.05 -14.9 -25.95 -14.85 -25.85 -14.75 -25.85 -14.7 -25.8 -14.7 -25.75 -14.65 -25.35 -14.65 -25.25 -14.6 -25.25 -14.55 -25.2 -14.55 -25.15 -14.5 -25.1 -14.5 -24.9 -14.4 -24.9 -14.3 -24.85 -14.25 -24.85 -14.0 -24.75 -13.9 -24.75 -13.85 -24.7 -13.85 -24.55 -13.7 -24.55 -13.65 Q-24.55 -13.55 -24.5 -13.5 -24.45 -13.4 -24.35 -13.35 L-24.1 -13.2 -24.1 -13.15 -24.05 -13.1 -24.05 -13.05 -23.95 -12.95 -23.7 -12.95 -23.55 -13.0 -23.5 -13.05 -23.45 -13.05 -23.4 -13.1 -23.4 -13.15 -23.35 -13.15 -23.35 -13.2 -23.25 -13.3 -23.15 -13.35 -23.1 -13.4 -23.05 -13.4 -22.9 -13.55 -22.85 -13.55 -22.75 -13.65 -22.75 -13.7 -22.7 -13.75 -22.75 -13.85 -23.05 -14.05 -23.05 -14.4 -23.1 -14.45 -23.1 -14.5 -23.15 -14.55 -23.15 -14.6 -23.1 -14.65 -23.1 -14.75 -23.05 -14.8 -22.95 -14.85 -22.8 -14.7 -22.15 -14.8 -21.95 -14.85 -21.85 -14.85 -21.8 -14.9 -21.75 -14.9 -21.6 -14.95 -21.5 -15.0 -21.45 -15.05 -21.4 -15.05 -21.3 -15.1 -21.25 -15.15 -21.15 -15.15 -21.05 -15.25 -20.95 -15.3 -20.9 -15.3 -20.85 -15.35 -20.8 -15.35 -20.75 -15.4 -20.35 -15.45 -20.3 -15.45 -20.2 -15.5 -20.15 -15.55 -20.1 -15.55 Q-20.05 -15.6 -20.0 -15.6 L-20.0 -15.65 -19.95 -15.65 -19.9 -15.7 -19.6 -15.7 -19.45 -15.65 -19.25 -15.55 -19.2 -15.5 -19.15 -15.5 -18.75 -15.1 -18.75 -15.05 -18.7 -15.0 -18.7 -14.75 -18.75 -14.7 -18.75 -14.55 -18.7 -14.45 -18.7 -14.15 -18.75 -14.1 -18.75 -13.85 -18.95 -13.65 -19.05 -13.6 -19.2 -13.55 -19.4 -13.55 -19.45 -13.5 -19.95 -13.4 -20.05 -13.35 -20.15 -13.35 -20.35 -13.3 -20.45 -13.25 -20.5 -13.2 -20.8 -13.2 -20.8 -13.15 -20.9 -13.15 -21.0 -13.1 -21.05 -13.05 -21.15 -13.0 -21.3 -12.95 -21.3 -12.8 Q-21.25 -12.75 -21.2 -12.75 L-21.05 -12.75 -20.9 -12.7 -20.7 -12.6 -20.5 -12.4 -20.5 -12.05 -20.4 -11.95 -20.35 -11.85 -20.3 -11.8 -20.2 -11.8 -20.1 -11.7 -19.25 -11.7 -19.15 -11.75 -18.4 -11.75 -18.15 -11.8 Q-18.05 -11.85 -18.0 -11.9 L-17.85 -11.9 -17.75 -12.0 -17.6 -12.05 -17.4 -12.1 -17.35 -12.15 -17.1 -12.2 -17.0 -12.2 -16.5 -12.25 -15.95 -12.4 Q-15.7 -12.45 -15.5 -12.6 L-15.45 -12.6 -15.35 -12.7 -15.35 -12.95 -15.3 -13.0 -15.3 -13.05 -15.25 -13.05 -15.15 -13.15 -15.1 -13.15 -15.0 -13.2 -14.95 -13.2 -14.9 -13.25 -14.85 -13.25 -14.75 -13.3 -13.95 -13.35 -13.85 -13.35 -13.6 -13.4 -13.5 -13.45 -13.45 -13.55 -13.25 -13.75 -13.25 -13.85 -13.2 -13.9 -13.2 -14.05 -13.1 -14.15 -13.1 -14.2 -13.05 -14.25 -13.05 -14.35 -13.15 -14.45 -13.2 -14.45 -13.2 -14.9 -13.3 -14.9 -13.4 -14.8 -13.8 -14.8 -13.9 -14.85 -13.95 -14.85 -14.05 -14.95 -14.05 -15.0 -14.2 -15.15 -14.2 -15.85 -14.15 -15.9 -14.15 -15.95 -14.05 -16.05 -14.05 -16.2 -13.9 -16.35 -13.9 -16.55 -13.95 -16.6 -13.95 -16.75 -13.9 -16.8 -13.95 -16.85 -13.95 -16.9 -14.1 -16.9 -14.35 -16.85 -14.4 -16.85 -14.5 -16.9 -14.5 -16.95 -14.65 -17.1 -14.65 -17.2 -14.7 -17.25 -14.7 -17.35 -14.65 -17.4 -14.65 -17.65 -14.5 -17.8 -14.5 -17.85 -14.4 -17.95 -14.2 -18.05 -14.15 -18.1 -14.0 -18.05 -13.7 -18.05 -13.65 -18.1 -13.55 -18.15 -13.4 -18.2 -13.3 -18.3 -13.25 -18.45 -13.1 -18.6 -12.95 -18.6 -12.9 -18.65 -12.8 -18.7 -12.8 -18.75 -12.75 -18.8 -12.75 -18.85 -12.5 -19.1 -12.5 -19.15 -12.45 -19.2 -12.45 -19.25 -12.4 -19.3 -12.4 -19.35 -12.35 -19.45 -12.3 -19.5 -12.2 -19.5 -12.15 -19.45 -12.15 -19.4 -12.1 -19.4 -12.1 -19.35 -12.15 -19.3 -12.15 -19.25 -12.2 -19.2 -12.2 -19.15 -12.25 -19.1 -12.35 -18.9 -12.35 -18.8 -12.4 -18.75 -12.5 -18.75 -12.5 -18.7 -12.6 -18.6 -12.6 -18.55 -12.8 -18.35 -12.9 -18.3 -13.0 -18.2 -13.05 -18.1 -13.15 -18.0 -13.25 -17.95 -13.95 -17.95 -14.25 -17.8 -14.3 -17.75 -14.4 -17.7 -14.5 -17.6 -14.5 -17.55 -14.45 -17.5 -14.45 -17.4 -14.3 -17.25 -13.9 -17.25 -13.8 -17.15 -13.8 -17.05 -13.75 -17.0 -13.7 -17.0 -13.7 -16.8 -13.65 -16.75 -13.65 -16.7 -13.6 -16.6 -13.6 -16.4 -13.35 -16.4 -13.25 -16.35 -13.1 -16.2 -13.05 -16.2 -13.05 -16.15 -12.9 -16.0 -12.9 -15.95 -12.85 -15.95 -12.85 -15.9 -12.75 -15.9 -12.7 -15.85 -12.7 -15.8 -12.6 -15.8 -12.55 -15.75 -12.4 -15.7 -12.3 -15.65 -12.35 -15.65 -12.4 -15.6 -12.7 -15.6 -12.7 -15.65 -12.8 -15.75 -13.0 -15.85 -13.05 -15.9 -13.05 -15.95 -13.1 -15.95 -13.15 -16.0 -13.15 -16.1 -13.2 -16.15 -13.2 -16.2 -13.25 -16.25 -13.35 -16.25 -13.4 -16.2 -13.5 -16.2 -13.6 -16.1 -13.6 -16.05 -13.7 -15.95 -13.7 -15.9 -13.8 -15.8 -13.8 -15.65 -13.85 -15.6 -13.9 -15.6 -13.9 -15.5 -13.85 -15.35 -13.85 -15.3 -13.8 -15.3 -13.75 -15.25 -13.7 -15.25 -13.5 -15.2 -13.4 -15.2 -13.35 -15.25 -13.3 -15.25 -13.2 -15.3 -13.15 -15.3 -13.0 -15.15 -13.0 -15.05 -12.95 -15.0 -12.95 -14.95 -12.9 -14.9 -12.9 -14.6 -12.8 -14.5 -12.8 -14.15 -12.85 -14.1 -12.85 -14.0 -12.9 -13.95 -12.9 -13.9 -12.95 -13.9 -12.95 -13.75 -13.0 -13.7 -13.05 -13.55 -13.3 -13.3 -13.35 -13.2 -13.4 -13.2 -13.5 -13.1 -13.85 -13.05 -13.9 -13.05 -14.75 -13.0 -14.9 -12.95 -15.0 -12.85 -15.0 -12.65 -15.1 -12.55 -15.1 -12.5 -15.15 -12.45 -15.15 -12.4 -15.2 -12.4 -15.4 -12.3 -15.5 -12.2 -15.6 -12.15 -15.85 -12.1 -15.9 -12.1 -16.2 -11.95 -16.35 -11.9 -16.95 -11.9 -17.0 -11.85 -17.3 -11.8 -17.5 -11.8 -17.55 -11.75 -17.75 -11.65 -18.0 -11.6 -18.3 -11.5 -18.35 -11.45 -19.15 -11.4 -20.3 -11.4 -20.3 -11.45 -20.4 -11.45 -20.45 -11.5 -20.45 -11.4 -20.5 -11.35 -20.55 -11.35 -20.55 -11.25 -20.6 -11.25 -20.65 -11.1 -20.75 -10.95 -20.8 -10.9 -21.1 -10.9 -21.15 -10.95 -21.4 -10.95 -21.4 -10.9 -21.6 -10.9 -21.6 -10.95 -21.7 -11.0 -22.1 -11.1 Q-22.15 -11.1 -22.2 -11.15 L-22.3 -11.25 -22.35 -11.35 -22.35 -11.45 -22.45 -11.55 -22.45 -11.65 -22.5 -11.7 -22.55 -11.8 -22.55 -12.0 -22.85 -12.1 -22.85 -12.15 -22.8 -12.2 -22.8 -12.5 -22.75 -12.55 -22.75 -12.7 -22.8 -12.75 -22.8 -12.85 -22.9 -12.8 -23.15 -12.75 -23.2 -12.75 -23.2 -12.7 -23.25 -12.7 Q-23.3 -12.65 -23.4 -12.65 L-23.55 -12.55 -23.6 -12.55 -23.65 -12.5 -23.7 -12.5 -23.75 -12.55 -23.75 -12.6 -24.15 -12.6 -24.25 -12.7 -24.35 -12.85 -24.4 -12.95 -24.45 -13.0 -24.65 -13.1 -24.75 -13.2 Q-24.8 -13.25 -24.8 -13.3 L-24.85 -13.4 -24.85 -13.45 -24.9 -13.5 -24.9 -13.55 -25.0 -13.6 -25.0 -13.65 -25.05 -13.65 -25.2 -13.8 -25.2 -14.2 -25.25 -14.25 -25.35 -14.25 -25.45 -14.3 -25.45 -14.35 -25.8 -14.35 -26.0 -14.45 -26.05 -14.45 -26.15 -14.55 -26.35 -14.55 -26.5 -14.4 -26.6 -14.35 -26.6 -14.3 -26.7 -14.25 -26.85 -14.25 -26.95 -14.3 -26.95 -14.35 -27.0 -14.4 -27.0 -14.45 -27.1 -14.55 -27.1 -15.0 -27.05 -15.0 -27.05 -15.1 -27.0 -15.1 -27.0 -15.25 -26.95 -15.3 -26.95 -15.4 -26.9 -15.4 -26.9 -15.75 -26.95 -15.75 -26.95 -15.8 -27.0 -15.85 -27.0 -16.05 -26.95 -16.1 -26.95 -16.25 -26.9 -16.3 -26.9 -16.4 -27.0 -16.45 -27.05 -16.5 -27.05 -16.55 -27.1 -16.55 -27.2 -16.6 -27.25 -16.65 -27.3 -16.65 -27.4 -16.7 -27.55 -16.85 -27.75 -16.85 -27.8 -16.9 -27.85 -16.9 -27.95 -17.0 -27.95 -17.05 -28.1 -17.2 -28.1 -17.3 -28.05 -17.35 -28.05 -17.45 -28.0 -17.5 -28.0 -17.55 -27.95 -17.6 -27.95 -18.1 -27.85 -18.2 -27.8 -18.3 -27.75 -18.3 -27.75 -18.35 -27.7 -18.4 -27.7 -18.45 -27.6 -18.55 -27.55 -18.55 -27.5 -18.6 -27.3 -18.65 Q-27.15 -18.7 -27.0 -18.75 L-26.95 -18.8 -26.95 -18.85 -27.0 -18.85 -27.0 -18.9 -27.1 -19.1 -27.1 -19.15 -27.25 -19.3 -27.35 -19.3 -27.35 -19.35 -27.4 -19.35 -27.45 -19.4 -27.5 -19.4 -27.5 -19.45 -27.7 -19.5 -27.9 -19.6 -27.95 -19.65 -28.0 -19.65 -28.0 -19.7 -28.2 -19.7 -28.2 -19.75 -28.4 -19.8 -28.45 -19.8 Q-28.8 -19.8 -29.15 -19.9 L-29.15 -19.95 -29.2 -19.95 -29.2 -20.0 -29.3 -20.0 -29.35 -20.05 -29.35 -20.1 -29.4 -20.15 -29.4 -20.2 -29.45 -20.25 -29.55 -20.3 -29.55 -20.25 -29.65 -20.2 -29.75 -20.0 -29.9 -20.0 -29.95 -19.95 -29.95 -19.9 -30.05 -19.85 -30.05 -19.8 -30.1 -19.8 -30.15 -19.7 -30.25 -19.6 -30.25 -19.55 -30.3 -19.55 -30.35 -19.5 -30.45 -19.45 -31.15 -19.4 -31.15 -19.45 -31.25 -19.55 -31.3 -19.65 -31.35 -19.7 -32.0 -19.8 -32.1 -19.9 -32.1 -20.35 -32.15 -20.4 -32.15 -20.45 -32.25 -20.5 -33.15 -20.5 -33.25 -20.55 -33.4 -20.55 -33.45 -20.5 -33.5 -20.5 -33.55 -20.4 -33.7 -20.25 -33.75 -20.15 -33.8 -20.1 -33.85 -20.1 -33.85 -20.0 -33.9 -19.95 -34.0 -19.9 -34.0 -19.85 -34.15 -19.85 -34.2 -19.8 -34.3 -19.75 -34.5 -19.75 -34.5 -19.9 -34.45 -19.95 -34.35 -20.0 -34.3 -20.0 -34.25 -20.05 -34.2 -20.05 -34.2 -20.1 -34.1 -20.1 -34.1 -20.25 -33.9 -20.45 M-6.25 -30.95 L-6.35 -30.95 -6.55 -30.85 -6.65 -30.85 -6.65 -30.8 -6.7 -30.8 -6.8 -30.75 -6.8 -30.7 -6.95 -30.7 -7.05 -30.8 -7.25 -30.85 -7.6 -30.9 -7.8 -30.95 -8.45 -30.95 -8.5 -30.9 -8.5 -30.85 -8.7 -30.85 -8.75 -30.8 -8.9 -30.75 -8.95 -30.75 -9.15 -30.7 -9.3 -30.75 -9.35 -30.75 -9.4 -30.8 -9.4 -30.85 -9.45 -30.9 -9.45 -30.95 -9.5 -31.0 -9.5 -31.15 -9.45 -31.2 -9.45 -31.35 -9.5 -31.4 -9.5 -31.45 -9.75 -31.45 -9.8 -31.4 -10.15 -31.4 -10.2 -31.35 -10.3 -31.35 -10.4 -31.25 -10.45 -31.25 -10.65 -31.15 -10.7 -31.15 -10.85 -31.1 -10.95 -31.05 -10.95 -31.0 -11.2 -30.95 -11.4 -30.95 -11.45 -30.9 -11.55 -30.85 -11.6 -30.8 -11.7 -30.75 -11.8 -30.65 -11.8 -30.4 -11.75 -30.35 -11.75 -29.95 -11.8 -29.9 -11.8 -29.85 -11.85 -29.8 -11.9 -29.8 -11.95 -29.75 -11.95 -29.65 -12.0 -29.6 -11.95 -29.6 -11.85 -29.65 -11.8 -29.7 -11.6 -29.8 -11.45 -29.85 -11.45 -29.9 -11.35 -30.0 -11.2 -30.2 -11.15 -30.3 -11.1 -30.35 -11.05 -30.35 -11.0 -30.4 -10.4 -30.4 -10.35 -30.35 -10.3 -30.35 -10.25 -30.3 -10.25 -30.25 -10.15 -30.15 -10.15 -30.1 -10.1 -30.1 -10.1 -30.05 -10.0 -30.05 -9.95 -30.0 -9.9 -30.0 -9.8 -29.9 -9.65 -29.9 -9.6 -29.85 -9.15 -29.85 -9.1 -29.8 -8.7 -29.8 -8.6 -29.75 -8.55 -29.75 -8.45 -29.8 -8.05 -29.9 -7.8 -29.95 -7.7 -29.95 -7.45 -30.05 -7.3 -30.1 -7.25 -30.15 -6.95 -30.2 -6.75 -30.2 -6.75 -30.35 -6.7 -30.4 -6.7 -30.55 -6.6 -30.65 -6.25 -30.65 -6.2 -30.7 -6.25 -30.75 -6.25 -30.95 M-25.15 -22.95 L-25.0 -22.95 -24.95 -22.9 -24.8 -22.9 -24.75 -22.85 -24.75 -22.55 -24.9 -22.4 -24.9 -22.35 -25.0 -22.25 -25.0 -22.2 -25.05 -22.15 -25.05 -22.1 -25.15 -22.0 -25.15 -21.9 -25.2 -21.85 -25.0 -21.85 -24.95 -21.8 -24.95 -21.75 -24.9 -21.7 -24.8 -21.65 -24.8 -21.6 -24.75 -21.5 -24.7 -21.45 -24.7 -21.4 -24.65 -21.3 -24.7 -21.25 -24.8 -21.3 -24.9 -21.4 -24.9 -21.5 -25.05 -21.65 -25.1 -21.6 -25.1 -21.55 -25.25 -21.55 -25.3 -21.6 -25.3 -21.65 -25.35 -21.7 -25.35 -21.9 -25.3 -22.0 -25.3 -22.05 -25.25 -22.1 -25.15 -22.3 -25.1 -22.35 -25.1 -22.4 -24.9 -22.6 -24.9 -22.65 -24.85 -22.7 -24.85 -22.75 -24.9 -22.75 -24.95 -22.8 -25.0 -22.8 -25.2 -22.85 -25.3 -22.8 -25.35 -22.8 -25.4 -22.75 -25.45 -22.8 -25.4 -22.85 -25.4 -22.9 -25.3 -23.0 -25.2 -23.0 -25.15 -22.95 M-21.15 -14.85 L-21.3 -14.8 -21.4 -14.75 -21.45 -14.7 -21.55 -14.7 -21.75 -14.65 -21.8 -14.6 -21.9 -14.6 -21.9 -14.55 -22.15 -14.55 -22.25 -14.5 -22.7 -14.55 -22.65 -14.5 Q-22.6 -14.4 -22.6 -14.3 L-22.6 -14.25 -22.65 -14.2 -22.55 -14.1 -22.45 -13.95 -22.4 -13.9 -22.4 -13.65 -22.45 -13.6 -22.45 -13.55 -22.55 -13.45 -22.55 -13.4 -22.65 -13.3 -22.75 -13.3 -22.85 -13.2 -23.0 -13.1 -23.05 -13.05 -23.05 -13.0 -23.1 -12.95 -22.9 -13.0 -22.7 -13.0 -22.65 -12.95 -22.65 -12.85 -22.55 -12.75 -22.55 -12.45 -22.6 -12.4 -22.65 -12.4 -22.65 -12.2 -22.5 -12.15 -22.45 -12.15 -22.45 -12.1 -22.4 -12.05 -22.4 -11.95 -22.3 -11.85 -22.25 -11.75 -22.15 -11.6 -22.15 -11.55 -22.1 -11.5 Q-22.0 -11.3 -21.8 -11.25 L-21.6 -11.2 -21.5 -11.2 -21.4 -11.3 -21.3 -11.35 -21.25 -11.35 -21.2 -11.3 -21.0 -11.25 -20.9 -11.25 -20.85 -11.3 -20.85 -11.4 -20.8 -11.45 -20.8 -11.55 -20.75 -11.6 -20.75 -11.65 -20.55 -11.65 -20.7 -11.8 -20.75 -11.8 -20.75 -11.85 -20.8 -11.9 -20.8 -12.25 -20.85 -12.3 -21.05 -12.4 -21.2 -12.4 -21.35 -12.45 -21.35 -12.5 -21.45 -12.5 -21.6 -12.65 -21.6 -12.85 -21.65 -12.85 -21.7 -12.9 -21.7 -13.1 -21.65 -13.15 -21.6 -13.15 -21.4 -13.2 -21.25 -13.25 -21.1 -13.35 -20.95 -13.4 -20.85 -13.45 -20.8 -13.45 -20.55 -13.5 -20.45 -13.55 -20.4 -13.55 -20.35 -13.6 -20.15 -13.6 Q-20.1 -13.65 -20.05 -13.65 L-20.0 -13.7 -19.45 -13.8 -19.15 -13.9 -19.1 -13.95 -19.1 -14.15 -19.05 -14.2 -19.05 -14.4 -19.1 -14.45 -19.1 -14.8 -19.05 -14.85 -19.05 -14.9 -19.15 -15.0 -19.15 -15.1 -19.25 -15.15 -19.3 -15.15 -19.4 -15.25 -19.5 -15.3 -19.5 -15.35 -19.6 -15.35 -19.65 -15.4 -19.85 -15.4 -19.9 -15.35 -19.9 -15.3 -20.0 -15.2 -20.1 -15.2 -20.25 -15.15 -20.35 -15.1 -20.7 -15.05 -20.85 -15.05 -20.95 -15.0 -21.05 -14.9 -21.15 -14.85 M-11.85 -17.65 L-11.75 -17.7 -11.65 -17.8 -11.65 -17.7 -11.7 -17.65 -11.7 -17.5 -11.75 -17.45 -11.75 -17.3 -11.8 -17.2 -11.8 -17.1 -12.05 -16.85 -12.05 -16.5 -12.0 -16.45 -12.0 -16.35 -11.95 -16.3 -11.95 -16.1 -11.9 -16.05 -11.9 -15.95 -11.95 -15.9 -11.85 -15.8 -11.85 -15.65 -11.95 -15.55 -12.15 -15.55 -12.25 -15.65 -12.25 -15.85 -12.2 -15.9 -12.15 -15.9 -12.05 -15.95 -12.0 -15.95 -12.0 -16.0 -12.05 -16.05 -12.05 -16.2 -12.1 -16.25 -12.1 -16.3 -12.15 -16.3 -12.15 -16.4 -12.2 -16.45 -12.2 -17.0 -12.15 -17.0 -12.1 -17.05 -12.1 -17.1 -12.05 -17.15 -12.05 -17.2 -11.95 -17.3 -11.95 -17.35 -11.9 -17.35 -11.9 -17.55 -11.85 -17.6 -11.85 -17.65" fill="#ffffff" fill-rule="evenodd" stroke="none"/>
  </g>
</svg>
