<?xml version="1.0" encoding="UTF-8" standalone="no"?>
<svg xmlns:ffdec="https://www.free-decompiler.com/flash" xmlns:xlink="http://www.w3.org/1999/xlink" ffdec:objectType="shape" height="5.05px" width="22.75px" xmlns="http://www.w3.org/2000/svg">
  <g transform="matrix(1.0, 0.0, 0.0, 1.0, 11.1, 3.55)">
    <path d="M6.85 -2.85 Q7.0 -2.85 7.15 -2.85 7.35 -2.9 7.4 -2.85 7.3 -2.8 7.1 -2.8 6.95 -2.8 6.85 -2.85 M8.0 -2.95 L7.95 -2.9 Q7.7 -2.95 7.75 -3.05 7.85 -3.1 8.0 -3.05 8.0 -3.0 8.0 -2.95 M5.05 -2.05 Q5.15 -1.9 5.1 -1.8 5.05 -1.7 4.9 -1.65 4.8 -1.65 4.75 -1.65 4.7 -1.75 4.55 -1.8 L4.45 -1.8 Q4.35 -1.8 4.2 -1.75 4.0 -1.7 3.75 -1.7 3.5 -1.8 3.45 -1.7 3.1 -1.65 3.2 -1.85 L3.25 -1.85 Q3.5 -1.9 3.6 -1.85 3.75 -1.75 3.9 -1.8 4.05 -1.8 4.15 -1.8 4.05 -1.85 4.15 -1.9 4.25 -1.9 4.25 -1.95 4.25 -2.0 4.4 -2.0 4.5 -2.0 4.6 -2.05 4.7 -2.05 4.8 -2.05 4.95 -2.1 5.05 -2.05 M2.15 -3.15 Q2.35 -2.85 3.2 -2.95 L4.0 -3.05 Q4.15 -3.0 4.4 -2.9 4.15 -2.95 3.8 -2.9 3.2 -2.85 2.95 -2.8 L2.65 -2.8 Q2.75 -2.8 2.9 -2.8 2.85 -2.75 2.8 -2.75 2.7 -2.75 2.55 -2.75 2.05 -2.85 1.9 -3.05 1.7 -3.0 1.55 -2.95 1.65 -2.85 1.55 -2.8 1.55 -2.75 1.5 -2.7 0.85 -2.8 1.0 -3.05 1.35 -3.1 1.65 -3.2 1.8 -3.2 1.95 -3.2 1.95 -3.25 2.1 -3.3 L2.1 -3.25 Q2.2 -3.25 2.25 -3.25 2.25 -3.2 2.15 -3.15 M0.8 -1.95 Q0.9 -2.05 1.25 -2.1 1.7 -2.15 2.0 -2.1 2.1 -1.95 2.1 -1.8 2.05 -1.75 2.0 -1.7 L2.0 -1.7 Q1.9 -1.65 1.7 -1.6 1.65 -1.65 1.75 -1.7 1.85 -1.75 1.85 -1.8 1.85 -1.85 1.8 -1.85 1.55 -1.9 1.45 -1.85 L1.35 -1.8 Q1.4 -1.75 1.35 -1.7 1.3 -1.7 1.25 -1.7 L1.2 -1.7 Q1.0 -1.7 0.95 -1.8 0.95 -1.85 0.8 -1.95 M3.15 -1.55 L3.15 -1.5 3.1 -1.5 Q3.0 -1.5 2.95 -1.45 L2.9 -1.45 Q2.85 -1.45 2.75 -1.45 L2.7 -1.45 Q2.65 -1.45 2.6 -1.5 L2.5 -1.5 Q2.4 -1.45 2.2 -1.45 2.15 -1.45 2.1 -1.4 2.05 -1.35 2.0 -1.4 1.9 -1.35 1.85 -1.35 1.85 -1.45 2.15 -1.5 2.15 -1.55 2.3 -1.6 2.35 -1.6 2.45 -1.6 L2.5 -1.6 2.7 -1.55 Q2.75 -1.55 2.8 -1.55 2.95 -1.6 3.15 -1.6 L3.15 -1.55 M1.25 -0.6 Q1.35 -0.65 1.5 -0.65 1.55 -0.65 1.6 -0.65 1.65 -0.6 1.6 -0.5 1.5 -0.45 1.35 -0.45 1.2 -0.45 1.15 -0.5 1.05 -0.55 1.15 -0.6 L1.25 -0.6 M1.8 -0.35 Q1.9 -0.4 2.0 -0.4 2.15 -0.4 2.2 -0.4 2.1 -0.35 2.0 -0.35 L1.9 -0.35 Q1.9 -0.25 1.8 -0.35 L1.75 -0.35 Q1.7 -0.4 1.8 -0.35 M2.7 -0.45 Q2.75 -0.4 2.6 -0.45 2.5 -0.5 2.7 -0.45 M7.1 -1.0 Q7.2 -1.0 7.3 -1.0 7.2 -0.95 6.8 -0.95 6.5 -1.0 6.35 -1.1 6.7 -1.05 7.1 -1.0 M4.4 -0.2 Q4.4 -0.15 4.45 -0.1 4.45 0.0 4.25 0.0 4.05 -0.05 4.1 -0.15 4.2 -0.25 4.4 -0.2 M4.95 -0.25 Q5.2 -0.3 5.6 -0.3 5.9 -0.3 6.25 -0.35 6.4 -0.05 6.4 -0.2 7.3 -0.05 7.25 -0.35 L7.5 -0.35 7.55 -0.3 7.55 -0.25 Q7.55 -0.2 7.5 -0.2 7.1 -0.15 6.75 -0.05 6.45 0.05 6.3 0.15 L6.3 0.1 Q6.2 0.1 6.25 0.05 6.25 -0.05 6.25 -0.1 6.3 -0.2 6.15 -0.2 5.9 -0.25 5.55 -0.2 5.25 -0.15 4.95 -0.2 L4.95 -0.25 M10.85 -3.3 L10.9 -3.3 Q10.65 -3.15 10.55 -3.0 10.4 -2.85 10.55 -2.7 10.5 -2.65 10.4 -2.65 10.25 -2.6 10.1 -2.55 L9.9 -2.55 Q10.15 -2.65 10.2 -2.8 L10.3 -2.9 Q10.55 -3.0 10.45 -3.05 L10.45 -3.0 Q10.4 -2.9 10.2 -2.9 10.2 -2.95 10.15 -3.05 L10.05 -3.1 10.05 -3.05 Q10.0 -3.1 9.9 -3.15 9.5 -3.2 9.3 -3.2 9.35 -3.25 9.4 -3.25 L9.35 -3.25 Q9.2 -3.25 9.05 -3.25 9.25 -3.35 9.5 -3.35 L9.8 -3.35 Q10.25 -3.35 10.65 -3.35 10.8 -3.35 10.85 -3.3 M10.05 -3.0 Q10.0 -2.95 9.95 -2.9 9.9 -2.95 9.95 -2.95 L10.05 -3.0 M9.6 -2.35 L9.45 -2.4 9.5 -2.4 9.55 -2.45 9.75 -2.45 9.6 -2.35 M9.05 -2.3 L9.25 -2.25 Q8.85 -2.15 8.65 -2.05 8.75 -2.2 9.05 -2.3 M8.55 -1.95 Q8.6 -1.9 8.55 -1.9 L8.65 -1.9 Q8.7 -1.9 8.75 -1.85 L8.7 -1.8 8.75 -1.8 Q8.65 -1.75 8.65 -1.8 8.55 -1.8 8.4 -1.85 8.25 -1.9 8.45 -1.95 L8.55 -1.95 M11.4 -1.4 Q11.25 -1.35 11.15 -1.35 10.75 -1.2 10.6 -1.1 L10.4 -1.1 Q10.35 -1.15 10.3 -1.15 L10.4 -1.2 10.35 -1.25 10.3 -1.25 10.3 -1.3 Q9.85 -1.25 9.5 -1.35 8.85 -1.5 9.3 -1.7 9.2 -1.5 9.6 -1.4 9.9 -1.35 10.2 -1.35 10.3 -1.35 10.5 -1.35 10.75 -1.3 11.0 -1.3 11.05 -1.35 11.15 -1.4 11.25 -1.4 11.3 -1.4 11.35 -1.4 11.4 -1.4 M10.5 -0.95 L10.5 -0.9 10.3 -0.95 Q10.35 -0.95 10.35 -1.05 L10.55 -1.05 Q10.55 -1.0 10.55 -0.95 L10.5 -0.95 M8.5 -1.05 Q8.85 -0.95 9.25 -0.9 9.35 -0.85 9.4 -0.75 9.5 -0.8 9.7 -0.85 9.95 -0.75 10.15 -0.8 L10.25 -0.8 Q9.8 -0.6 9.2 -0.6 9.1 -0.75 8.75 -0.85 8.45 -0.9 8.25 -1.0 8.35 -1.05 8.5 -1.05 M3.3 0.15 L3.3 0.2 Q3.4 0.2 3.5 0.25 L3.55 0.25 Q3.6 0.25 3.6 0.3 L3.6 0.35 Q3.4 0.4 3.15 0.4 2.65 0.4 2.65 0.25 2.7 0.25 2.75 0.25 2.95 0.2 2.9 0.3 2.95 0.35 3.0 0.35 3.15 0.35 3.25 0.35 L3.25 0.25 Q3.2 0.25 3.25 0.2 L3.3 0.15 M3.3 0.3 L3.3 0.3 M0.7 0.45 Q0.45 0.55 0.8 0.5 0.85 0.5 0.7 0.45 M0.6 0.45 Q0.65 0.4 0.7 0.4 0.85 0.4 0.95 0.45 1.05 0.5 1.1 0.5 1.3 0.7 0.9 0.85 1.0 0.75 1.05 0.65 0.75 0.55 0.55 0.5 0.6 0.5 0.6 0.45 M-8.25 -0.65 Q-8.55 -0.6 -8.6 -0.55 -9.0 -0.4 -8.8 -0.15 -8.7 -0.1 -8.6 -0.05 -8.55 0.0 -8.5 0.0 -8.7 0.05 -8.85 0.1 L-8.85 0.1 Q-9.05 0.2 -9.1 0.3 -9.25 0.3 -9.45 0.25 -9.5 0.25 -9.5 0.3 L-9.4 0.3 Q-9.25 0.4 -9.15 0.4 L-9.15 0.45 Q-9.25 0.5 -9.4 0.5 -10.1 0.3 -10.75 0.3 -10.8 0.25 -10.85 0.25 L-10.8 0.2 Q-10.05 0.35 -9.25 0.1 L-9.1 0.1 -9.1 0.05 -9.05 0.05 Q-9.0 0.05 -8.95 0.0 L-8.9 0.0 -8.95 -0.05 Q-9.05 -0.1 -9.15 -0.15 -9.4 -0.2 -9.3 -0.25 -9.3 -0.35 -9.3 -0.4 L-9.25 -0.45 Q-9.25 -0.5 -9.15 -0.55 L-9.1 -0.6 -8.25 -0.65 M-3.1 -2.2 L-3.1 -2.2 M-4.05 -2.25 Q-3.6 -2.3 -3.15 -2.4 -2.95 -2.35 -2.8 -2.3 -3.0 -2.3 -3.25 -2.35 -3.05 -2.25 -2.75 -2.15 L-2.75 -2.1 -2.8 -2.05 -2.85 -2.05 -2.9 -2.0 -3.6 -2.0 Q-3.6 -2.05 -3.65 -2.05 L-3.7 -2.1 -3.7 -2.2 Q-3.85 -2.25 -4.05 -2.25 M-2.95 -1.85 L-3.0 -1.75 Q-2.95 -1.75 -2.85 -1.7 -2.45 -1.7 -2.25 -1.55 -2.2 -1.55 -2.15 -1.55 -2.1 -1.5 -2.0 -1.45 -1.95 -1.4 -2.05 -1.4 -2.1 -1.35 -2.2 -1.35 L-2.35 -1.35 Q-2.3 -1.4 -2.45 -1.5 -2.5 -1.55 -2.6 -1.55 L-2.65 -1.55 Q-2.95 -1.65 -3.2 -1.6 L-3.25 -1.6 Q-3.3 -1.6 -3.35 -1.6 -3.45 -1.6 -3.5 -1.6 -3.7 -1.65 -3.6 -1.75 -3.5 -1.8 -3.5 -1.9 L-2.95 -1.9 -2.95 -1.85 M-0.75 -1.8 Q-0.8 -1.7 -0.85 -1.8 -0.85 -1.85 -0.75 -1.8 M-4.55 -2.2 L-4.6 -2.2 Q-4.85 -2.15 -4.75 -2.1 -4.65 -2.05 -4.55 -2.0 L-4.6 -2.0 Q-4.7 -1.95 -4.75 -1.95 L-5.6 -1.9 Q-5.65 -1.95 -5.55 -2.05 -5.45 -2.15 -5.4 -2.25 -4.95 -2.2 -4.55 -2.2 M-4.85 -1.85 Q-4.35 -1.65 -4.25 -1.4 -4.25 -1.35 -4.3 -1.3 -4.6 -1.2 -4.7 -1.15 L-4.8 -1.15 Q-4.8 -1.1 -4.8 -1.05 -4.8 -1.0 -4.7 -1.0 L-4.65 -0.95 Q-4.95 -0.95 -5.05 -1.05 -5.15 -1.1 -5.15 -1.15 -4.75 -1.2 -4.6 -1.3 -4.55 -1.35 -4.5 -1.35 L-4.55 -1.4 -4.6 -1.4 Q-4.6 -1.45 -4.65 -1.5 -4.7 -1.5 -4.75 -1.55 -4.95 -1.6 -5.15 -1.6 -5.15 -1.65 -5.1 -1.7 -5.4 -1.75 -5.55 -1.8 L-4.85 -1.85 M-4.9 -1.65 L-4.9 -1.65 M-7.6 -0.8 L-7.55 -0.75 -7.5 -0.75 Q-7.4 -0.75 -7.35 -0.7 -7.35 -0.65 -7.4 -0.6 L-7.4 -0.55 -7.45 -0.55 Q-7.45 -0.5 -7.55 -0.5 -7.55 -0.55 -7.6 -0.55 -7.5 -0.6 -7.5 -0.65 L-7.8 -0.65 Q-7.95 -0.7 -8.15 -0.65 -8.45 -0.7 -8.75 -0.7 -8.4 -0.75 -8.05 -0.85 -7.95 -0.85 -7.85 -0.85 -7.7 -0.85 -7.65 -0.8 L-7.6 -0.8 M-7.9 -0.45 L-7.95 -0.5 -7.9 -0.5 -7.9 -0.45 M-4.1 -0.25 Q-3.85 -0.25 -3.95 -0.15 -4.1 -0.1 -3.9 0.0 -3.8 0.0 -3.7 0.0 L-3.45 0.0 Q-3.3 -0.05 -3.25 -0.1 -3.15 -0.15 -3.05 -0.1 -3.15 -0.1 -3.1 -0.05 -3.0 0.0 -3.1 0.0 -3.3 0.05 -3.5 0.05 -3.7 0.1 -3.95 0.05 -4.6 -0.1 -4.15 -0.25 L-4.1 -0.25 M-0.8 -1.7 Q-0.6 -1.75 -0.5 -1.7 -0.5 -1.65 -0.55 -1.65 -0.45 -1.6 -0.4 -1.5 L-0.35 -1.45 Q-0.3 -1.45 -0.25 -1.45 -0.3 -1.4 -0.35 -1.4 -0.4 -1.35 -0.45 -1.35 L-0.5 -1.35 Q-0.75 -1.4 -0.65 -1.5 -0.6 -1.55 -0.75 -1.55 L-0.85 -1.55 -0.85 -1.5 Q-0.7 -1.4 -0.85 -1.3 -1.3 -1.35 -1.2 -1.6 L-1.15 -1.65 -1.1 -1.65 -1.05 -1.7 Q-1.0 -1.7 -0.95 -1.7 L-0.8 -1.7 M-2.4 -0.3 L-2.4 -0.25 Q-2.45 -0.2 -2.55 -0.15 -2.75 -0.15 -2.8 -0.2 -2.8 -0.25 -3.0 -0.2 -3.3 -0.15 -2.8 -0.3 -2.6 -0.4 -2.4 -0.3 M-2.65 1.25 Q-3.1 1.2 -3.05 1.0 -3.4 0.95 -3.65 0.85 -4.0 0.75 -3.75 0.7 -3.2 0.9 -2.5 0.95 -1.7 1.25 -0.9 1.0 -0.85 1.05 -0.9 1.1 -0.95 1.2 -1.05 1.25 -1.1 1.3 -1.2 1.35 -1.2 1.3 -1.25 1.25 -1.1 1.2 -1.0 1.15 L-1.3 1.2 Q-1.65 1.1 -2.1 1.15 -2.45 1.2 -2.65 1.25 M-1.85 0.95 Q-1.75 0.95 -1.6 0.95 -1.75 1.0 -1.85 0.95 M-9.75 0.05 L-9.7 0.05 Q-10.15 0.1 -10.6 0.05 -10.4 0.0 -10.2 0.05 -9.95 0.05 -9.75 0.05" fill="#ffffff" fill-rule="evenodd" stroke="none"/>
    <path d="M6.85 -2.85 Q7.0 -2.85 7.15 -2.85 7.35 -2.9 7.4 -2.85 7.3 -2.8 7.1 -2.8 6.95 -2.8 6.85 -2.85 M8.0 -2.95 L7.95 -2.9 Q7.7 -2.95 7.75 -3.05 7.85 -3.1 8.0 -3.05 8.0 -3.0 8.0 -2.95 M5.05 -2.05 Q5.15 -1.9 5.1 -1.8 5.05 -1.7 4.9 -1.65 4.8 -1.65 4.75 -1.65 4.7 -1.75 4.55 -1.8 L4.45 -1.8 Q4.35 -1.8 4.2 -1.75 4.0 -1.7 3.75 -1.7 3.5 -1.8 3.45 -1.7 3.1 -1.65 3.2 -1.85 L3.25 -1.85 Q3.5 -1.9 3.6 -1.85 3.75 -1.75 3.9 -1.8 4.05 -1.8 4.15 -1.8 4.05 -1.85 4.15 -1.9 4.25 -1.9 4.25 -1.95 4.25 -2.0 4.4 -2.0 4.5 -2.0 4.6 -2.05 4.7 -2.05 4.8 -2.05 4.95 -2.1 5.05 -2.05 M2.15 -3.15 Q2.35 -2.85 3.2 -2.95 L4.0 -3.05 Q4.15 -3.0 4.4 -2.9 4.15 -2.95 3.8 -2.9 3.2 -2.85 2.95 -2.8 L2.65 -2.8 Q2.75 -2.8 2.9 -2.8 2.85 -2.75 2.8 -2.75 2.7 -2.75 2.55 -2.75 2.05 -2.85 1.9 -3.05 1.7 -3.0 1.55 -2.95 1.65 -2.85 1.55 -2.8 1.55 -2.75 1.5 -2.7 0.85 -2.8 1.0 -3.05 1.35 -3.1 1.65 -3.2 1.8 -3.2 1.95 -3.2 1.95 -3.25 2.1 -3.3 L2.1 -3.25 Q2.2 -3.25 2.25 -3.25 2.25 -3.2 2.15 -3.15 M0.8 -1.95 Q0.9 -2.05 1.25 -2.1 1.7 -2.15 2.0 -2.1 2.1 -1.95 2.1 -1.8 2.05 -1.75 2.0 -1.7 L2.0 -1.7 Q1.9 -1.65 1.7 -1.6 1.65 -1.65 1.75 -1.7 1.85 -1.75 1.85 -1.8 1.85 -1.85 1.8 -1.85 1.55 -1.9 1.45 -1.85 L1.35 -1.8 Q1.4 -1.75 1.35 -1.7 1.3 -1.7 1.25 -1.7 L1.2 -1.7 Q1.0 -1.7 0.95 -1.8 0.95 -1.85 0.8 -1.95 M3.15 -1.55 L3.15 -1.5 3.1 -1.5 Q3.0 -1.5 2.95 -1.45 L2.9 -1.45 Q2.85 -1.45 2.75 -1.45 L2.7 -1.45 Q2.65 -1.45 2.6 -1.5 L2.5 -1.5 Q2.4 -1.45 2.2 -1.45 2.15 -1.45 2.1 -1.4 2.05 -1.35 2.0 -1.4 1.9 -1.35 1.85 -1.35 1.85 -1.45 2.15 -1.5 2.15 -1.55 2.3 -1.6 2.35 -1.6 2.45 -1.6 L2.5 -1.6 2.7 -1.55 Q2.75 -1.55 2.8 -1.55 2.95 -1.6 3.15 -1.6 L3.15 -1.55 M1.25 -0.6 Q1.35 -0.65 1.5 -0.65 1.55 -0.65 1.6 -0.65 1.65 -0.6 1.6 -0.5 1.5 -0.45 1.35 -0.45 1.2 -0.45 1.15 -0.5 1.05 -0.55 1.15 -0.6 L1.25 -0.6 M1.8 -0.35 Q1.9 -0.4 2.0 -0.4 2.15 -0.4 2.2 -0.4 2.1 -0.35 2.0 -0.35 L1.9 -0.35 Q1.9 -0.25 1.8 -0.35 L1.75 -0.35 Q1.7 -0.4 1.8 -0.35 M2.7 -0.45 Q2.75 -0.4 2.6 -0.45 2.5 -0.5 2.7 -0.45 M7.1 -1.0 Q7.2 -1.0 7.3 -1.0 7.2 -0.95 6.8 -0.95 6.5 -1.0 6.35 -1.1 6.7 -1.05 7.1 -1.0 M4.4 -0.2 Q4.4 -0.15 4.45 -0.1 4.45 0.0 4.25 0.0 4.05 -0.05 4.1 -0.15 4.2 -0.25 4.4 -0.2 M4.95 -0.25 Q5.2 -0.3 5.6 -0.3 5.9 -0.3 6.25 -0.35 6.4 -0.05 6.4 -0.2 7.3 -0.05 7.25 -0.35 L7.5 -0.35 7.55 -0.3 7.55 -0.25 Q7.55 -0.2 7.5 -0.2 7.1 -0.15 6.75 -0.05 6.45 0.05 6.3 0.15 L6.3 0.1 Q6.2 0.1 6.25 0.05 6.25 -0.05 6.25 -0.1 6.3 -0.2 6.15 -0.2 5.9 -0.25 5.55 -0.2 5.25 -0.15 4.95 -0.2 L4.95 -0.25 M10.85 -3.3 L10.9 -3.3 Q10.65 -3.15 10.55 -3.0 10.4 -2.85 10.55 -2.7 10.5 -2.65 10.4 -2.65 10.25 -2.6 10.1 -2.55 L9.9 -2.55 Q10.15 -2.65 10.2 -2.8 L10.3 -2.9 Q10.55 -3.0 10.45 -3.05 L10.45 -3.0 Q10.4 -2.9 10.2 -2.9 10.2 -2.95 10.15 -3.05 L10.05 -3.1 10.05 -3.05 Q10.0 -3.1 9.9 -3.15 9.5 -3.2 9.3 -3.2 9.35 -3.25 9.4 -3.25 L9.35 -3.25 Q9.2 -3.25 9.05 -3.25 9.25 -3.35 9.5 -3.35 L9.8 -3.35 Q10.25 -3.35 10.65 -3.35 10.8 -3.35 10.85 -3.3 M9.6 -2.35 L9.45 -2.4 9.5 -2.4 9.55 -2.45 9.75 -2.45 9.6 -2.35 M9.05 -2.3 Q8.75 -2.2 8.65 -2.05 8.85 -2.15 9.25 -2.25 L9.05 -2.3 M8.55 -1.95 Q8.6 -1.9 8.55 -1.9 L8.65 -1.9 Q8.7 -1.9 8.75 -1.85 L8.7 -1.8 8.75 -1.8 Q8.65 -1.75 8.65 -1.8 8.55 -1.8 8.4 -1.85 8.25 -1.9 8.45 -1.95 L8.55 -1.95 M11.4 -1.4 Q11.25 -1.35 11.15 -1.35 10.75 -1.2 10.6 -1.1 L10.4 -1.1 Q10.35 -1.15 10.3 -1.15 L10.4 -1.2 10.35 -1.25 10.3 -1.25 10.3 -1.3 Q9.85 -1.25 9.5 -1.35 8.85 -1.5 9.3 -1.7 9.2 -1.5 9.6 -1.4 9.9 -1.35 10.2 -1.35 10.3 -1.35 10.5 -1.35 10.75 -1.3 11.0 -1.3 11.05 -1.35 11.15 -1.4 11.25 -1.4 11.3 -1.4 11.35 -1.4 11.4 -1.4 M10.5 -0.95 L10.55 -0.95 Q10.55 -1.0 10.55 -1.05 L10.35 -1.05 Q10.35 -0.95 10.3 -0.95 L10.5 -0.9 10.5 -0.95 M8.5 -1.05 Q8.85 -0.95 9.25 -0.9 9.35 -0.85 9.4 -0.75 9.5 -0.8 9.7 -0.85 9.95 -0.75 10.15 -0.8 L10.25 -0.8 Q9.8 -0.6 9.2 -0.6 9.1 -0.75 8.75 -0.85 8.45 -0.9 8.25 -1.0 8.35 -1.05 8.5 -1.05 M3.3 0.15 L3.3 0.2 Q3.4 0.2 3.5 0.25 L3.55 0.25 Q3.6 0.25 3.6 0.3 L3.6 0.35 Q3.4 0.4 3.15 0.4 2.65 0.4 2.65 0.25 2.7 0.25 2.75 0.25 2.95 0.2 2.9 0.3 2.95 0.35 3.0 0.35 3.15 0.35 3.25 0.35 L3.25 0.25 Q3.2 0.25 3.25 0.2 L3.3 0.15 M0.6 0.45 Q0.65 0.4 0.7 0.4 0.85 0.4 0.95 0.45 1.05 0.5 1.1 0.5 1.3 0.7 0.9 0.85 1.0 0.75 1.05 0.65 0.75 0.55 0.55 0.5 0.6 0.5 0.6 0.45 M-8.25 -0.65 L-9.1 -0.6 -9.15 -0.55 Q-9.25 -0.5 -9.25 -0.45 L-9.3 -0.4 Q-9.3 -0.35 -9.3 -0.25 -9.4 -0.2 -9.15 -0.15 -9.05 -0.1 -8.95 -0.05 L-8.9 0.0 -8.95 0.0 Q-9.0 0.05 -9.05 0.05 L-9.1 0.05 -9.1 0.1 -9.25 0.1 Q-10.05 0.35 -10.8 0.2 L-10.85 0.25 Q-10.8 0.25 -10.75 0.3 -10.1 0.3 -9.4 0.5 -9.25 0.5 -9.15 0.45 L-9.15 0.4 Q-9.25 0.4 -9.4 0.3 L-9.5 0.3 Q-9.5 0.25 -9.45 0.25 -9.25 0.3 -9.1 0.3 -9.05 0.2 -8.85 0.1 L-8.85 0.1 Q-8.7 0.05 -8.5 0.0 -8.55 0.0 -8.6 -0.05 -8.7 -0.1 -8.8 -0.15 -9.0 -0.4 -8.6 -0.55 -8.55 -0.6 -8.25 -0.65 M-3.1 -2.2 L-3.1 -2.2 M-4.05 -2.25 Q-3.85 -2.25 -3.7 -2.2 L-3.7 -2.1 -3.65 -2.05 Q-3.6 -2.05 -3.6 -2.0 L-2.9 -2.0 -2.85 -2.05 -2.8 -2.05 -2.75 -2.1 -2.75 -2.15 Q-3.05 -2.25 -3.25 -2.35 -3.0 -2.3 -2.8 -2.3 -2.95 -2.35 -3.15 -2.4 -3.6 -2.3 -4.05 -2.25 M-2.95 -1.85 L-3.0 -1.75 Q-2.95 -1.75 -2.85 -1.7 -2.45 -1.7 -2.25 -1.55 -2.2 -1.55 -2.15 -1.55 -2.1 -1.5 -2.0 -1.45 -1.95 -1.4 -2.05 -1.4 -2.1 -1.35 -2.2 -1.35 L-2.35 -1.35 Q-2.3 -1.4 -2.45 -1.5 -2.5 -1.55 -2.6 -1.55 L-2.65 -1.55 Q-2.95 -1.65 -3.2 -1.6 L-3.25 -1.6 Q-3.3 -1.6 -3.35 -1.6 -3.45 -1.6 -3.5 -1.6 -3.7 -1.65 -3.6 -1.75 -3.5 -1.8 -3.5 -1.9 L-2.95 -1.9 -2.95 -1.85 M-4.55 -2.2 Q-4.95 -2.2 -5.4 -2.25 -5.45 -2.15 -5.55 -2.05 -5.65 -1.95 -5.6 -1.9 L-4.75 -1.95 Q-4.7 -1.95 -4.6 -2.0 L-4.55 -2.0 Q-4.65 -2.05 -4.75 -2.1 -4.85 -2.15 -4.6 -2.2 L-4.55 -2.2 M-4.85 -1.85 Q-4.35 -1.65 -4.25 -1.4 -4.25 -1.35 -4.3 -1.3 -4.6 -1.2 -4.7 -1.15 L-4.8 -1.15 Q-4.8 -1.1 -4.8 -1.05 -4.8 -1.0 -4.7 -1.0 L-4.65 -0.95 Q-4.95 -0.95 -5.05 -1.05 -5.15 -1.1 -5.15 -1.15 -4.75 -1.2 -4.6 -1.3 -4.55 -1.35 -4.5 -1.35 L-4.55 -1.4 -4.6 -1.4 Q-4.6 -1.45 -4.65 -1.5 -4.7 -1.5 -4.75 -1.55 -4.95 -1.6 -5.15 -1.6 -5.15 -1.65 -5.1 -1.7 -5.4 -1.75 -5.55 -1.8 L-4.85 -1.85 M-7.6 -0.8 L-7.55 -0.75 -7.5 -0.75 Q-7.4 -0.75 -7.35 -0.7 -7.35 -0.65 -7.4 -0.6 L-7.4 -0.55 -7.45 -0.55 Q-7.45 -0.5 -7.55 -0.5 -7.55 -0.55 -7.6 -0.55 -7.5 -0.6 -7.5 -0.65 L-7.8 -0.65 Q-7.95 -0.7 -8.15 -0.65 -8.45 -0.7 -8.75 -0.7 -8.4 -0.75 -8.05 -0.85 -7.95 -0.85 -7.85 -0.85 -7.7 -0.85 -7.65 -0.8 L-7.6 -0.8 M-4.1 -0.25 Q-3.85 -0.25 -3.95 -0.15 -4.1 -0.1 -3.9 0.0 -3.8 0.0 -3.7 0.0 L-3.45 0.0 Q-3.3 -0.05 -3.25 -0.1 -3.15 -0.15 -3.05 -0.1 -3.15 -0.1 -3.1 -0.05 -3.0 0.0 -3.1 0.0 -3.3 0.05 -3.5 0.05 -3.7 0.1 -3.95 0.05 -4.6 -0.1 -4.15 -0.25 L-4.1 -0.25 M-0.8 -1.7 Q-0.6 -1.75 -0.5 -1.7 -0.5 -1.65 -0.55 -1.65 -0.45 -1.6 -0.4 -1.5 L-0.35 -1.45 Q-0.3 -1.45 -0.25 -1.45 -0.3 -1.4 -0.35 -1.4 -0.4 -1.35 -0.45 -1.35 L-0.5 -1.35 Q-0.75 -1.4 -0.65 -1.5 -0.6 -1.55 -0.75 -1.55 L-0.85 -1.55 -0.85 -1.5 Q-0.7 -1.4 -0.85 -1.3 -1.3 -1.35 -1.2 -1.6 L-1.15 -1.65 -1.1 -1.65 -1.05 -1.7 Q-1.0 -1.7 -0.95 -1.7 L-0.8 -1.7 M-2.4 -0.3 L-2.4 -0.25 Q-2.45 -0.2 -2.55 -0.15 -2.75 -0.15 -2.8 -0.2 -2.8 -0.25 -3.0 -0.2 -3.3 -0.15 -2.8 -0.3 -2.6 -0.4 -2.4 -0.3 M-2.65 1.25 Q-3.1 1.2 -3.05 1.0 -3.4 0.95 -3.65 0.85 -4.0 0.75 -3.75 0.7 -3.2 0.9 -2.5 0.95 -1.7 1.25 -0.9 1.0 -0.85 1.05 -0.9 1.1 -0.95 1.2 -1.05 1.25 -1.1 1.3 -1.2 1.35 -1.2 1.3 -1.25 1.25 -1.1 1.2 -1.0 1.15 L-1.3 1.2 Q-1.65 1.1 -2.1 1.15 -2.45 1.2 -2.65 1.25 M-1.85 0.95 Q-1.75 1.0 -1.6 0.95 -1.75 0.95 -1.85 0.95 M-9.75 0.05 L-9.7 0.05 Q-10.15 0.1 -10.6 0.05 -10.4 0.0 -10.2 0.05 -9.95 0.05 -9.75 0.05 Z" fill="none" stroke="#ffffff" stroke-linecap="round" stroke-linejoin="round" stroke-opacity="0.3529412" stroke-width="0.15000000000000002"/>
  </g>
</svg>
