<?xml version="1.0" encoding="UTF-8" standalone="no"?>
<svg xmlns:ffdec="https://www.free-decompiler.com/flash" xmlns:xlink="http://www.w3.org/1999/xlink" ffdec:objectType="shape" height="23.5px" width="41.85px" xmlns="http://www.w3.org/2000/svg">
  <g transform="matrix(1.0, 0.0, 0.0, 1.0, 34.4, 32.05)">
    <path d="M1.95 -26.5 L2.05 -26.4 2.05 -26.35 2.1 -26.3 2.1 -26.25 2.15 -26.25 2.15 -26.2 2.2 -26.15 2.2 -26.1 2.25 -26.05 2.25 -25.9 2.3 -25.9 2.3 -25.55 2.35 -25.55 2.3 -25.5 2.3 -25.45 2.25 -25.4 2.25 -25.25 2.3 -25.2 2.25 -25.15 2.25 -25.05 1.9 -25.05 1.8 -25.15 1.75 -25.15 1.65 -25.25 1.55 -25.25 1.5 -25.3 1.5 -25.15 1.55 -25.1 1.6 -25.0 1.85 -24.75 1.85 -24.65 1.95 -24.55 1.95 -24.5 2.0 -24.45 2.0 -24.4 2.05 -24.35 2.05 -24.25 2.1 -24.2 2.1 -24.15 2.15 -24.1 2.15 -23.95 2.2 -23.9 2.2 -23.8 2.25 -23.75 2.25 -23.7 2.3 -23.65 2.3 -23.35 2.25 -23.3 2.25 -23.25 2.2 -23.25 2.2 -23.05 2.15 -23.0 2.15 -22.95 2.1 -22.95 2.05 -22.9 1.8 -22.9 1.7 -23.0 1.45 -23.05 1.4 -23.1 1.1 -23.1 1.1 -23.05 1.15 -23.0 1.15 -22.9 1.25 -22.8 1.25 -22.65 1.2 -22.55 1.1 -22.45 1.1 -22.4 0.85 -22.15 0.85 -22.05 0.7 -21.9 0.6 -21.85 0.55 -21.85 0.55 -21.8 0.5 -21.8 0.45 -21.75 0.1 -21.75 -0.05 -21.9 -0.05 -21.85 -0.1 -21.8 -0.1 -21.75 -0.15 -21.7 -0.2 -21.7 -0.2 -21.65 -0.45 -21.4 -0.45 -21.35 -0.55 -21.15 -0.6 -21.15 -0.65 -21.1 -0.65 -21.05 -0.7 -21.05 Q-0.75 -21.0 -0.8 -21.0 L-0.9 -20.9 -0.95 -20.9 -1.0 -20.85 -1.05 -20.85 -1.1 -20.8 -1.15 -20.8 -1.15 -20.75 -1.3 -20.75 -1.35 -20.8 -1.45 -20.85 -1.5 -20.85 -1.5 -20.8 -2.1 -20.9 -2.2 -20.9 -2.35 -20.95 -2.35 -20.9 -2.25 -20.7 -2.2 -20.65 -2.2 -20.55 -2.15 -20.5 -2.15 -20.4 -2.1 -20.3 -2.0 -20.2 -2.0 -20.05 -1.9 -19.95 -1.9 -19.7 -1.85 -19.6 -1.85 -19.55 -1.8 -19.5 -1.7 -19.5 -1.55 -19.55 -1.45 -19.65 -1.4 -19.65 -1.35 -19.7 -1.25 -19.7 -1.15 -19.8 -1.1 -19.8 -0.95 -19.95 -0.95 -20.0 -0.4 -20.0 -0.3 -19.9 -0.3 -19.65 -0.1 -19.65 -0.05 -19.6 0.0 -19.6 0.05 -19.55 0.05 -19.5 0.1 -19.45 0.15 -19.45 0.25 -19.4 0.3 -19.4 0.4 -19.35 0.45 -19.3 0.45 -19.25 0.85 -19.25 0.95 -19.3 1.05 -19.3 1.1 -19.35 1.4 -19.4 1.45 -19.4 1.65 -19.5 1.7 -19.55 1.7 -19.65 1.75 -19.65 1.95 -19.85 2.0 -19.85 2.15 -19.9 2.2 -19.9 2.3 -20.0 2.65 -20.0 2.75 -19.9 2.8 -19.9 2.95 -19.85 3.1 -19.75 Q3.15 -19.75 3.2 -19.7 L3.25 -19.65 3.3 -19.65 3.75 -19.6 3.85 -19.55 Q3.95 -19.5 4.0 -19.5 L4.15 -19.4 4.2 -19.4 4.25 -19.35 4.25 -19.3 4.4 -19.15 4.4 -18.95 4.35 -18.9 4.35 -18.75 4.45 -18.65 4.45 -18.55 4.5 -18.5 4.5 -18.3 4.45 -18.25 4.45 -18.15 4.4 -18.1 4.4 -18.05 Q4.55 -18.1 4.7 -18.2 L4.75 -18.25 4.85 -18.3 5.1 -18.4 5.2 -18.45 5.2 -18.5 5.3 -18.6 5.35 -18.6 5.55 -18.65 5.8 -18.65 5.85 -18.6 5.9 -18.6 5.9 -18.55 6.05 -18.55 6.05 -18.5 6.1 -18.45 6.1 -18.4 6.35 -18.4 6.4 -18.45 6.5 -18.5 6.55 -18.55 6.55 -18.6 6.65 -18.7 6.8 -18.75 6.85 -18.75 6.85 -18.8 7.25 -18.75 7.3 -18.75 7.3 -18.7 7.35 -18.65 7.35 -18.6 7.45 -18.5 7.45 -18.05 7.4 -18.05 7.4 -18.0 7.3 -17.8 7.3 -17.75 7.25 -17.75 7.15 -17.65 6.95 -17.55 6.75 -17.6 6.7 -17.6 6.7 -17.55 6.8 -17.45 6.8 -17.35 6.85 -17.35 6.85 -17.2 6.95 -17.1 6.95 -16.85 6.9 -16.8 6.75 -16.8 6.7 -16.75 6.6 -16.7 6.45 -16.7 6.4 -16.65 6.35 -16.65 6.25 -16.6 6.3 -16.6 6.4 -16.55 6.5 -16.55 6.5 -16.5 6.55 -16.45 6.55 -16.4 6.5 -16.3 6.5 -16.25 6.45 -16.2 6.4 -16.2 6.35 -16.15 6.35 -16.1 6.2 -16.1 6.15 -16.05 6.15 -16.0 6.1 -15.95 6.0 -15.95 5.9 -15.85 5.85 -15.85 5.85 -15.8 5.8 -15.75 5.75 -15.75 5.75 -15.8 6.15 -16.2 6.3 -16.4 6.15 -16.45 6.1 -16.45 6.0 -16.5 6.0 -16.6 5.95 -16.6 6.0 -16.65 6.05 -16.65 6.1 -16.7 6.2 -16.75 6.4 -16.8 6.45 -16.85 Q6.55 -16.95 6.7 -17.0 L6.75 -17.0 6.75 -17.05 6.65 -17.25 6.6 -17.3 6.6 -17.35 6.5 -17.4 6.5 -17.6 6.3 -17.6 6.2 -17.7 6.2 -17.6 6.15 -17.6 6.15 -17.5 6.1 -17.45 6.1 -17.4 6.0 -17.3 5.9 -17.25 5.9 -17.2 5.85 -17.15 5.85 -17.05 5.65 -17.05 5.5 -17.2 5.45 -17.15 5.45 -17.05 5.4 -17.05 5.35 -17.0 5.3 -17.0 5.25 -17.05 5.25 -17.2 5.3 -17.25 5.3 -17.3 5.4 -17.4 5.55 -17.35 5.65 -17.35 5.75 -17.25 5.85 -17.4 5.9 -17.5 5.9 -17.55 5.95 -17.55 5.95 -17.6 6.05 -17.7 6.05 -17.75 6.15 -17.85 6.2 -17.85 6.25 -17.9 6.3 -17.9 6.35 -17.85 6.35 -17.8 6.4 -17.75 6.4 -17.7 6.5 -17.7 6.5 -17.8 6.55 -17.85 6.55 -17.9 6.75 -17.9 6.85 -17.8 6.95 -17.75 7.0 -17.75 7.1 -17.8 7.2 -17.9 7.2 -18.0 7.35 -18.15 7.35 -18.35 7.3 -18.35 7.3 -18.4 7.25 -18.45 7.25 -18.5 7.15 -18.6 6.85 -18.6 6.75 -18.55 6.75 -18.5 6.7 -18.45 6.7 -18.4 6.65 -18.35 6.6 -18.35 6.5 -18.3 6.5 -18.25 6.4 -18.15 6.25 -18.15 6.2 -18.2 6.0 -18.2 5.95 -18.25 5.95 -18.3 5.9 -18.35 5.75 -18.4 5.7 -18.45 5.7 -18.5 5.65 -18.45 5.4 -18.4 5.35 -18.35 Q5.2 -18.2 4.95 -18.15 4.9 -18.1 4.8 -18.05 L4.8 -18.0 4.7 -18.0 4.5 -17.9 4.45 -17.85 4.3 -17.9 4.3 -17.85 4.25 -17.8 4.25 -17.7 4.2 -17.7 4.2 -17.45 4.25 -17.4 4.25 -17.35 4.2 -17.3 4.2 -17.0 4.25 -17.0 4.25 -16.9 4.3 -16.85 4.3 -16.8 4.35 -16.75 4.35 -16.65 4.4 -16.6 4.4 -16.55 4.35 -16.5 4.35 -16.45 4.3 -16.4 Q4.35 -16.35 4.3 -16.3 L4.2 -16.15 4.15 -16.0 4.1 -15.95 4.0 -15.95 3.9 -15.9 3.55 -15.9 3.45 -16.0 3.3 -16.05 3.2 -16.1 3.05 -16.15 2.95 -16.15 2.8 -16.0 2.9 -15.9 2.9 -15.25 2.85 -15.2 2.85 -15.05 2.8 -15.05 2.8 -15.0 2.75 -14.95 2.75 -14.9 2.7 -14.85 2.7 -14.75 2.6 -14.65 2.6 -14.55 2.55 -14.5 2.55 -14.45 2.5 -14.4 2.5 -14.35 Q2.5 -14.25 2.45 -14.2 L2.3 -14.0 2.2 -13.9 2.2 -13.85 2.1 -13.75 2.0 -13.7 1.55 -13.65 1.5 -13.7 1.45 -13.7 1.4 -13.65 1.3 -13.7 1.3 -13.75 1.2 -13.85 1.1 -13.9 1.0 -14.0 Q0.95 -14.0 0.95 -14.05 L0.85 -14.05 0.8 -14.1 0.8 -14.15 0.7 -14.15 0.65 -14.2 0.65 -14.25 0.55 -14.35 0.45 -14.35 0.25 -14.55 0.15 -14.6 0.1 -14.6 0.0 -14.7 0.0 -15.15 -0.05 -15.2 -0.05 -15.65 -0.1 -15.7 -0.1 -15.75 -0.2 -15.85 -0.2 -15.9 -0.25 -16.0 -0.4 -16.1 -0.6 -16.2 -0.6 -16.15 -0.65 -16.1 -0.9 -16.1 -0.95 -16.15 -1.0 -16.1 -1.25 -16.1 -1.25 -16.15 -1.3 -16.2 -1.3 -16.25 -1.45 -16.4 -1.45 -16.45 -1.55 -16.5 -1.65 -16.45 -1.8 -16.4 -1.8 -16.35 -1.85 -16.3 -1.85 -16.0 -1.9 -15.95 -1.9 -15.5 -1.95 -15.45 -1.95 -15.3 -2.05 -15.2 -2.05 -15.0 -2.1 -14.95 -2.15 -14.95 -2.15 -14.7 -2.2 -14.65 -2.2 -14.6 -2.25 -14.6 -2.25 -14.5 -2.3 -14.45 -2.3 -14.4 -2.4 -14.3 -2.4 -14.25 -2.45 -14.25 -2.5 -14.2 -2.5 -14.15 -2.45 -14.1 -2.45 -13.9 -1.4 -13.9 -1.35 -13.85 -1.35 -13.75 -1.3 -13.7 -1.3 -13.45 -1.25 -13.4 -1.25 -13.3 -1.1 -13.15 -1.1 -13.0 -1.05 -12.95 -1.05 -12.75 -1.0 -12.7 -1.0 -12.6 -0.75 -12.7 -0.65 -12.75 -0.55 -12.75 -0.5 -12.7 -0.2 -12.65 -0.15 -12.6 -0.15 -12.5 -0.1 -12.45 -0.1 -12.35 -0.05 -12.25 -0.05 -12.2 0.0 -12.1 0.0 -12.0 0.05 -11.9 0.05 -11.6 -0.05 -11.5 -0.1 -11.5 -0.1 -11.45 -0.2 -11.35 -0.3 -11.3 -0.3 -11.25 -0.35 -11.25 -0.35 -11.05 Q-0.35 -10.9 -0.4 -10.8 L-0.4 -10.45 -0.3 -10.35 0.3 -10.3 0.3 -10.35 0.4 -10.35 0.4 -10.3 0.5 -10.3 Q0.6 -10.35 0.65 -10.4 L0.8 -10.55 0.9 -10.6 1.0 -10.7 1.0 -10.75 1.2 -10.85 1.3 -10.95 1.3 -11.0 1.45 -11.15 1.55 -11.2 1.6 -11.25 1.6 -11.35 1.65 -11.4 1.65 -11.55 1.7 -11.6 1.7 -11.65 1.8 -11.7 2.1 -11.7 2.15 -11.6 2.25 -11.55 2.4 -11.5 2.55 -11.4 2.6 -11.4 2.65 -11.35 2.75 -11.35 2.85 -11.3 2.9 -11.25 3.0 -11.2 3.05 -11.15 3.05 -11.1 3.1 -11.0 3.15 -11.0 3.15 -10.95 3.2 -10.9 3.25 -10.8 3.25 -10.55 3.3 -10.45 3.3 -10.2 Q3.3 -10.1 3.25 -10.05 L3.2 -10.0 3.05 -9.9 3.05 -9.85 3.0 -9.85 2.95 -9.8 2.3 -9.8 2.35 -9.7 2.4 -9.65 2.4 -9.55 2.55 -9.4 2.55 -9.35 2.5 -9.25 2.5 -9.0 Q2.5 -8.9 2.4 -8.85 L2.35 -8.8 2.3 -8.7 2.3 -8.65 2.25 -8.55 2.1 -8.55 2.15 -8.6 2.15 -8.9 2.3 -9.05 2.3 -9.3 2.25 -9.35 2.25 -9.5 2.2 -9.55 2.15 -9.65 2.05 -9.75 2.05 -9.8 2.1 -9.85 2.1 -10.1 2.15 -10.1 2.2 -10.15 2.4 -10.15 2.7 -10.05 2.8 -10.05 Q2.9 -10.1 2.95 -10.15 L3.0 -10.2 3.05 -10.3 3.05 -10.65 2.9 -10.8 2.9 -10.85 2.85 -10.9 2.85 -11.0 2.75 -11.05 2.7 -11.1 2.55 -11.15 2.4 -11.3 2.35 -11.3 2.25 -11.35 2.15 -11.35 2.15 -11.4 2.05 -11.5 2.05 -11.55 2.0 -11.65 1.85 -11.65 1.7 -11.5 1.7 -11.45 1.65 -11.35 1.65 -11.2 1.55 -11.1 1.45 -11.05 1.35 -10.95 1.35 -10.9 1.1 -10.65 0.95 -10.6 0.95 -10.55 0.9 -10.55 0.9 -10.5 0.8 -10.5 0.8 -10.4 0.75 -10.35 0.7 -10.35 0.6 -10.25 0.9 -10.25 0.95 -10.3 1.05 -10.3 1.15 -10.2 1.15 -9.5 1.1 -9.45 1.1 -9.4 1.05 -9.35 0.95 -9.3 0.55 -9.3 0.5 -9.35 0.5 -9.4 0.25 -9.45 0.2 -9.4 0.1 -9.4 0.05 -9.35 0.05 -9.25 0.0 -9.2 0.0 -9.15 -0.05 -9.15 -0.05 -9.05 -0.15 -9.05 -0.15 -9.1 -0.1 -9.15 -0.15 -9.15 -0.15 -9.25 -0.1 -9.3 -0.1 -9.35 -0.05 -9.4 -0.05 -9.5 0.0 -9.5 0.05 -9.55 0.15 -9.6 0.35 -9.6 0.55 -9.55 0.6 -9.5 0.65 -9.5 0.65 -9.45 0.85 -9.5 0.9 -9.5 0.9 -9.55 0.95 -9.6 0.95 -9.95 0.85 -10.0 0.4 -10.05 0.35 -10.1 0.25 -10.15 0.2 -10.15 -0.35 -10.2 -0.45 -10.25 -0.5 -10.25 -0.6 -10.3 -0.6 -10.5 -0.55 -10.55 -0.55 -11.25 -0.5 -11.35 -0.5 -11.4 -0.4 -11.45 -0.3 -11.55 -0.15 -11.6 -0.1 -11.65 -0.1 -11.7 -0.05 -11.75 -0.1 -11.8 -0.2 -12.0 -0.2 -12.2 -0.3 -12.4 -0.3 -12.45 -0.65 -12.55 -0.7 -12.5 -0.8 -12.45 -0.85 -12.45 -0.95 -12.35 -1.05 -12.35 -1.1 -12.3 -1.1 -12.25 -1.2 -12.15 -1.2 -12.05 -1.25 -11.95 -1.3 -11.9 -1.4 -11.75 -1.75 -11.75 -1.8 -11.8 -1.9 -11.7 -1.9 -11.65 -1.95 -11.6 -1.95 -11.4 -2.0 -11.35 -1.95 -11.3 -1.95 -11.25 -1.7 -11.0 -1.65 -11.0 -1.55 -10.95 -1.5 -10.9 -1.45 -10.95 -1.4 -11.05 -1.35 -11.1 -1.3 -11.1 -1.25 -11.15 -1.15 -11.15 -1.0 -11.0 -0.95 -11.0 -0.95 -10.85 Q-0.95 -10.75 -0.95 -10.7 L-1.0 -10.55 -1.0 -10.35 -1.05 -10.3 -1.05 -10.25 -1.2 -10.1 -1.25 -10.1 -1.75 -10.15 -1.9 -10.2 -2.05 -10.2 -2.05 -10.25 -2.1 -10.25 -2.2 -10.35 -2.2 -10.4 -2.25 -10.45 -2.35 -10.5 -2.4 -10.55 -2.65 -10.55 -2.7 -10.5 -2.75 -10.5 -3.05 -10.4 -3.1 -10.35 -3.15 -10.35 -3.35 -10.3 -3.45 -10.25 -3.55 -10.25 -3.6 -10.3 -4.0 -10.3 -3.95 -10.25 -3.95 -9.95 -4.0 -9.9 -3.95 -9.6 -3.95 -9.2 -4.0 -9.0 -4.0 -8.95 -4.05 -8.9 -4.1 -8.9 -4.1 -8.95 -4.05 -9.0 -4.1 -9.2 -4.1 -9.75 -4.15 -9.8 -4.15 -10.0 -4.1 -10.05 -4.15 -10.1 -4.15 -10.45 -4.1 -10.5 -4.0 -10.5 -3.8 -10.55 -3.75 -10.6 -3.65 -10.6 -3.55 -10.5 -3.5 -10.5 -3.2 -10.6 Q-3.1 -10.6 -2.95 -10.7 L-2.9 -10.7 -2.75 -10.75 -2.7 -10.8 -2.35 -10.8 -2.35 -10.75 -2.3 -10.75 -2.2 -10.7 -2.15 -10.7 -2.05 -10.6 -2.05 -10.55 -2.0 -10.5 -2.0 -10.45 -1.95 -10.45 -1.85 -10.4 -1.8 -10.35 -1.75 -10.35 -1.65 -10.3 -1.6 -10.3 -1.35 -10.25 -1.25 -10.25 -1.2 -10.3 -1.2 -10.45 -1.1 -10.55 -1.15 -10.55 -1.15 -10.9 -1.25 -10.9 -1.3 -10.8 -1.4 -10.7 -1.65 -10.7 -1.75 -10.75 -2.2 -11.2 -2.2 -11.45 -2.15 -11.5 -2.15 -11.65 -2.1 -11.7 -2.1 -11.75 -2.05 -11.8 -2.05 -11.9 -2.0 -11.9 -1.95 -11.95 -1.7 -11.95 -1.65 -11.9 -1.45 -11.9 -1.3 -12.05 -1.3 -12.15 -1.25 -12.15 -1.3 -12.2 -1.3 -12.25 -1.25 -12.3 -1.25 -12.35 -1.3 -12.4 -1.25 -12.45 -1.25 -12.6 -1.3 -12.65 -1.3 -12.9 -1.35 -12.95 -1.35 -13.0 -1.4 -13.05 -1.4 -13.1 -1.45 -13.15 -1.45 -13.25 -1.5 -13.3 -1.5 -13.55 -1.55 -13.6 -1.55 -13.65 -1.85 -13.65 Q-2.15 -13.55 -2.5 -13.6 L-2.6 -13.65 -2.7 -13.75 -2.7 -13.95 -2.75 -14.0 -2.75 -14.25 -2.7 -14.3 -2.65 -14.4 -2.6 -14.45 -2.55 -14.45 -2.45 -14.55 -2.45 -14.6 -2.4 -14.65 -2.4 -14.75 -2.35 -14.75 -2.35 -14.8 -2.3 -14.85 -2.3 -15.05 -2.25 -15.05 -2.25 -15.25 -2.2 -15.3 -2.2 -15.35 -2.15 -15.4 -2.15 -15.45 -2.1 -15.5 -2.1 -15.75 -2.15 -15.8 -2.15 -16.1 -2.1 -16.1 -2.1 -16.45 -2.05 -16.5 -1.95 -16.55 -1.75 -16.75 -1.65 -16.75 -1.65 -16.8 -1.5 -16.8 -1.1 -16.4 -0.8 -16.4 -0.75 -16.35 -0.7 -16.4 -0.65 -16.4 -0.6 -16.45 -0.4 -16.45 -0.3 -16.35 -0.2 -16.35 -0.2 -16.3 -0.1 -16.2 -0.1 -16.15 -0.05 -16.1 0.0 -16.1 0.05 -16.05 0.05 -15.95 0.1 -15.9 0.1 -15.85 0.15 -15.8 0.15 -15.65 0.2 -15.55 0.2 -15.35 0.25 -15.3 0.25 -14.85 0.3 -14.85 0.35 -14.8 0.4 -14.8 0.55 -14.65 0.7 -14.65 0.8 -14.55 0.8 -14.5 0.85 -14.5 0.85 -14.45 1.05 -14.25 1.1 -14.25 1.25 -14.1 1.25 -14.05 1.3 -14.05 1.5 -14.0 1.7 -14.0 1.75 -13.95 1.9 -13.95 1.95 -14.0 1.95 -14.05 2.0 -14.1 2.0 -14.15 2.1 -14.25 2.15 -14.25 2.2 -14.3 2.2 -14.35 2.25 -14.45 2.25 -14.5 2.35 -14.6 2.35 -14.7 2.45 -14.75 2.45 -14.85 2.5 -14.9 2.5 -14.95 2.55 -14.95 2.55 -15.0 2.6 -15.05 2.6 -15.25 2.65 -15.3 2.65 -15.35 2.7 -15.4 2.6 -15.5 2.6 -15.65 2.65 -15.75 2.5 -15.9 2.5 -16.1 2.6 -16.2 2.6 -16.25 2.7 -16.25 2.9 -16.45 3.1 -16.45 Q3.25 -16.35 3.35 -16.3 L3.55 -16.2 3.6 -16.2 Q3.6 -16.15 3.65 -16.15 L3.8 -16.15 3.85 -16.2 3.95 -16.2 4.05 -16.4 4.05 -16.55 4.1 -16.55 4.1 -16.65 4.05 -16.7 4.05 -16.75 4.0 -16.8 4.0 -16.9 3.95 -16.9 3.95 -17.2 4.0 -17.45 4.0 -17.7 4.05 -17.75 4.05 -17.9 4.15 -18.0 4.15 -18.15 4.2 -18.2 4.2 -18.5 4.15 -18.55 4.15 -19.1 4.1 -19.15 4.1 -19.2 4.05 -19.2 3.9 -19.25 3.8 -19.35 Q3.75 -19.35 3.65 -19.4 L3.15 -19.4 2.9 -19.65 2.75 -19.65 2.7 -19.7 2.6 -19.7 2.6 -19.75 2.55 -19.8 2.45 -19.8 2.45 -19.75 2.3 -19.75 2.2 -19.65 2.15 -19.65 2.05 -19.6 2.0 -19.55 1.95 -19.55 1.8 -19.4 1.8 -19.35 1.75 -19.3 1.65 -19.3 1.55 -19.25 1.5 -19.2 1.1 -19.2 1.1 -19.15 0.95 -19.1 0.3 -19.1 0.25 -19.15 0.2 -19.15 0.15 -19.2 0.1 -19.2 -0.05 -19.25 -0.1 -19.3 -0.15 -19.3 -0.2 -19.35 -0.35 -19.4 -0.45 -19.4 -0.55 -19.5 -0.55 -19.7 -0.8 -19.7 -0.9 -19.65 -1.0 -19.55 -1.05 -19.55 -1.15 -19.5 -1.15 -19.45 -1.25 -19.4 -1.3 -19.4 -1.35 -19.35 -1.45 -19.3 -1.5 -19.3 -1.6 -19.25 -1.9 -19.25 -2.0 -19.3 -2.1 -19.4 -2.1 -19.75 -2.15 -19.8 -2.15 -19.9 -2.2 -19.95 -2.2 -20.05 -2.3 -20.1 -2.4 -20.25 -2.45 -20.35 -2.4 -20.4 -2.4 -20.45 -2.45 -20.5 -2.45 -20.6 -2.55 -20.65 -2.55 -20.7 -2.6 -20.75 -2.6 -20.8 -2.65 -20.8 -2.65 -21.0 -2.75 -21.0 -3.1 -20.95 -3.15 -21.0 -3.4 -21.0 -3.5 -21.1 -3.5 -21.35 -3.45 -21.4 -3.45 -21.45 -3.35 -21.55 -3.35 -21.65 -3.5 -21.7 -3.55 -21.75 -3.55 -21.8 -3.6 -21.75 -3.6 -21.7 -3.65 -21.65 -3.75 -21.65 -3.8 -21.55 -3.8 -21.5 -3.85 -21.4 -3.85 -21.2 Q-3.8 -21.15 -3.85 -21.05 L-3.85 -20.65 -3.9 -20.6 -3.95 -20.6 -3.95 -20.7 -4.0 -20.75 -4.0 -20.95 -4.05 -21.0 -4.05 -21.05 -4.25 -21.1 -4.35 -21.15 -4.35 -21.2 -4.4 -21.25 -4.4 -21.3 -4.6 -21.3 -4.7 -21.2 -4.85 -21.15 -4.9 -21.15 -4.95 -21.1 -5.05 -21.15 -5.0 -21.15 -4.9 -21.2 -4.8 -21.3 -4.7 -21.35 -4.5 -21.35 -4.55 -21.4 -4.5 -21.5 -4.45 -21.55 -4.3 -21.55 -4.2 -21.5 -4.2 -21.45 -4.15 -21.35 -4.15 -21.3 -4.05 -21.25 -4.0 -21.25 -3.95 -21.3 -3.95 -21.45 -3.85 -21.65 -3.85 -21.8 -3.8 -21.85 -3.8 -21.9 -3.75 -21.95 -3.65 -22.0 -3.6 -22.05 -3.45 -22.05 -3.35 -21.95 -3.35 -21.9 -3.25 -21.9 -3.2 -21.85 -3.1 -21.8 -3.05 -21.75 -3.05 -21.55 -3.1 -21.5 -3.1 -21.4 -3.15 -21.4 -3.15 -21.3 -3.1 -21.25 -3.0 -21.25 -3.0 -21.2 -2.75 -21.15 -2.6 -21.15 -2.55 -21.2 -2.55 -21.25 -2.5 -21.25 -2.35 -21.3 -2.2 -21.3 -2.1 -21.2 -1.4 -21.15 -1.35 -21.15 -1.3 -21.1 -1.0 -21.2 -0.9 -21.2 -0.75 -21.35 -0.65 -21.4 -0.65 -21.45 -0.4 -21.7 -0.4 -21.75 -0.35 -21.8 -0.35 -21.85 -0.3 -21.85 -0.3 -22.3 -0.25 -22.3 -0.25 -22.35 -0.2 -22.4 -0.2 -22.5 -0.25 -22.55 -0.25 -22.65 -0.3 -22.75 -0.3 -23.0 Q-0.25 -23.1 -0.2 -23.15 L-0.05 -23.3 0.15 -23.4 0.2 -23.45 0.2 -23.6 0.3 -23.7 0.3 -23.75 0.35 -23.75 0.3 -23.8 0.3 -23.9 0.25 -23.95 0.25 -24.0 0.05 -24.05 0.0 -24.05 -0.15 -24.2 -0.15 -24.25 -0.2 -24.3 -0.2 -24.45 -0.25 -24.5 -0.25 -24.7 -0.2 -24.75 -0.2 -24.9 -0.25 -24.95 -0.25 -25.0 -0.3 -25.05 -0.3 -25.1 -0.35 -25.15 -0.45 -25.2 -0.5 -25.2 -0.6 -25.25 -0.65 -25.3 -0.65 -25.35 -0.8 -25.35 -0.9 -25.3 -1.1 -25.1 -1.2 -25.05 -1.25 -25.0 -1.35 -25.0 -1.4 -24.95 -1.7 -24.95 -1.8 -25.0 -1.95 -25.05 -2.0 -25.1 -2.15 -25.2 -2.25 -25.35 -2.3 -25.5 -2.35 -25.55 -2.55 -25.65 -2.65 -25.75 -2.65 -25.9 -2.7 -26.0 -2.7 -26.05 -2.65 -26.15 -2.65 -26.3 -2.85 -26.6 Q-2.9 -26.7 -3.0 -26.75 L-3.0 -26.8 -3.2 -26.8 -3.45 -26.85 -3.55 -26.9 -3.6 -26.9 -3.7 -26.8 -3.7 -26.75 -3.8 -26.7 -4.45 -26.75 -4.55 -26.65 -4.6 -26.55 -4.65 -26.55 -4.7 -26.5 -5.35 -26.5 -5.45 -26.55 -5.45 -26.6 -5.5 -26.6 -5.65 -26.65 -5.75 -26.7 -5.8 -26.7 -5.85 -26.75 -5.85 -26.8 -6.0 -26.85 -6.1 -26.95 -6.4 -27.05 -6.45 -27.05 -6.45 -27.1 -6.55 -27.1 -6.6 -27.15 -6.6 -27.2 -6.65 -27.2 -6.7 -27.25 -6.85 -27.3 -6.85 -27.35 -6.9 -27.4 -6.9 -27.55 -6.85 -27.65 -6.75 -27.75 -6.75 -28.1 -6.8 -28.15 -6.8 -28.2 -6.85 -28.2 -6.85 -28.25 -6.8 -28.3 -6.8 -28.5 -6.75 -28.5 -6.8 -28.55 -6.8 -28.85 -6.75 -28.9 -6.75 -29.0 -6.65 -29.1 -6.65 -29.15 -6.55 -29.25 -6.45 -29.3 -6.4 -29.3 -6.35 -29.35 -6.25 -29.35 -6.2 -29.4 -5.9 -29.4 -5.9 -29.7 -6.0 -29.75 -6.05 -29.8 -6.1 -29.8 -6.55 -29.9 -6.75 -30.0 -6.95 -30.05 -7.25 -30.15 -7.25 -30.2 -7.3 -30.2 -7.4 -30.25 -7.45 -30.25 -8.15 -30.2 -8.25 -30.15 -8.3 -30.15 -9.05 -30.2 -9.2 -30.25 -9.4 -30.3 -9.4 -30.35 -9.5 -30.45 -9.5 -30.75 -9.65 -30.8 -9.9 -30.8 -9.95 -30.75 -10.25 -30.75 -10.4 -30.7 -10.45 -30.65 -11.05 -30.65 -11.2 -30.6 -11.25 -30.55 -11.3 -30.55 -11.4 -30.45 -11.4 -30.25 -11.5 -30.1 -11.5 -30.05 -11.7 -29.85 -11.7 -29.7 -11.8 -29.6 -11.85 -29.6 -12.1 -29.5 -12.2 -29.45 -12.35 -29.3 -12.35 -29.25 -12.45 -29.15 -12.65 -29.1 -12.7 -29.05 -13.1 -29.0 -13.25 -28.85 -13.35 -28.7 -13.4 -28.65 -13.4 -28.45 -13.35 -28.4 -13.35 -27.8 -13.4 -27.75 -13.4 -27.65 -13.5 -27.45 -13.7 -27.25 -13.75 -27.25 -13.8 -27.2 -13.75 -27.15 Q-13.75 -27.1 -13.8 -27.1 L-13.8 -27.0 -14.0 -26.8 -14.05 -26.8 -14.05 -26.75 -14.15 -26.65 -14.25 -26.6 -14.3 -26.55 -14.3 -26.5 -14.4 -26.45 -14.6 -26.45 -14.6 -26.4 -15.05 -26.4 -15.1 -26.35 -15.2 -26.35 -15.2 -26.0 -15.3 -26.0 -15.3 -25.95 -15.45 -25.8 -15.55 -25.8 -15.7 -25.65 -15.65 -25.6 -15.65 -25.25 -15.6 -25.2 -15.6 -25.15 -15.35 -24.9 -15.35 -24.85 -15.3 -24.8 -15.2 -24.6 -15.15 -24.55 -15.15 -24.5 -15.1 -24.45 -15.1 -24.2 -15.05 -24.15 -15.0 -24.15 -15.0 -24.05 -14.95 -24.0 -14.95 -23.95 -14.9 -23.9 -14.9 -23.85 -14.7 -23.65 -14.5 -23.4 -14.4 -23.25 -14.25 -23.25 -14.2 -23.2 -14.2 -23.15 -14.15 -23.15 -14.15 -23.1 -14.1 -23.1 -13.95 -22.95 -13.8 -22.85 -13.75 -22.75 -13.6 -22.6 -13.6 -22.2 -13.4 -22.1 -13.35 -22.15 -13.15 -22.15 -13.1 -22.1 -13.05 -22.1 -12.65 -22.05 -12.6 -22.1 -12.55 -22.1 -12.45 -22.15 -12.35 -22.25 -12.25 -22.25 -12.2 -22.3 -11.95 -22.3 -11.85 -22.25 -11.8 -22.25 -11.7 -22.15 -11.7 -22.1 -11.65 -22.1 -11.65 -21.95 -11.6 -21.9 -11.55 -21.8 -11.55 -21.2 -11.5 -21.15 -11.4 -21.1 -11.35 -21.05 -11.3 -21.05 -11.2 -21.0 -11.15 -20.95 -11.15 -20.3 -11.2 -20.25 -11.2 -20.2 -11.3 -20.1 -11.2 -20.1 -11.15 -20.05 -11.15 -19.8 -11.1 -19.75 -11.05 -19.75 -10.9 -19.6 -10.85 -19.6 -10.75 -19.55 -10.7 -19.5 -10.7 -19.45 -10.65 -19.4 -10.65 -19.15 Q-10.7 -19.05 -10.8 -18.95 L-10.95 -18.7 Q-10.95 -18.65 -11.0 -18.6 L-11.05 -18.55 -11.05 -18.45 -11.15 -18.35 -11.15 -18.3 -11.05 -18.25 -11.0 -18.2 -11.0 -18.15 -10.95 -18.1 -11.0 -18.05 -11.0 -18.0 -11.15 -17.75 -11.3 -17.55 -11.4 -17.4 -11.4 -17.35 -11.45 -17.3 -11.45 -17.15 -11.5 -17.1 -11.5 -17.0 -11.55 -17.0 -11.55 -16.55 -11.6 -16.5 -11.6 -16.05 -11.65 -16.0 -11.65 -15.95 -11.7 -15.95 -11.7 -15.7 -11.75 -15.65 -12.25 -15.65 -12.45 -15.8 -12.55 -16.0 -12.6 -16.0 -12.6 -16.05 -12.65 -16.1 -12.7 -16.1 -12.75 -16.05 -12.75 -16.0 -12.8 -15.95 -12.8 -15.85 -13.1 -15.8 -13.1 -15.75 -13.4 -15.75 -13.4 -15.7 -13.45 -15.65 -13.45 -15.55 -13.35 -15.5 -13.3 -15.45 -13.15 -15.45 -13.05 -15.5 -12.65 -15.5 -12.5 -15.35 -12.4 -15.3 -12.4 -14.9 -12.45 -14.85 -12.45 -14.8 -12.5 -14.75 -12.45 -14.7 -12.45 -14.65 -12.4 -14.6 -12.4 -14.55 -12.35 -14.5 -12.35 -14.4 -12.3 -14.35 -12.3 -14.3 -12.25 -14.25 Q-12.2 -14.15 -12.2 -14.05 L-12.2 -13.6 -12.25 -13.55 -12.25 -13.5 -12.3 -13.45 -12.3 -13.3 -12.4 -13.2 -12.4 -13.15 -12.6 -13.1 -12.9 -13.0 -13.0 -12.95 -13.05 -12.9 -13.2 -12.9 -13.25 -12.85 -13.35 -12.9 -13.5 -12.8 -13.65 -12.75 -13.75 -12.7 -13.8 -12.7 -14.0 -12.65 -14.05 -12.6 -14.2 -12.6 -14.25 -12.55 -14.4 -12.55 -14.45 -12.5 -14.85 -12.5 -14.95 -12.6 -15.15 -12.6 -15.15 -12.55 -15.25 -12.5 -15.3 -12.5 -15.4 -12.45 -15.45 -12.45 -15.35 -12.4 -15.35 -12.3 -15.45 -12.2 -15.5 -12.2 -15.6 -12.15 -15.9 -12.1 -16.15 -12.0 -16.55 -12.0 -16.7 -12.15 -16.9 -12.15 -16.95 -12.1 -16.95 -12.05 -17.15 -12.0 Q-17.35 -11.95 -17.5 -11.9 L-17.55 -11.9 -17.65 -11.8 -17.9 -11.8 -18.05 -11.75 -18.1 -11.7 -18.15 -11.7 -18.2 -11.65 -18.3 -11.65 -18.35 -11.6 -18.45 -11.55 -18.8 -11.5 -18.9 -11.4 -18.95 -11.4 -19.0 -11.35 -19.25 -11.35 -19.4 -11.4 Q-19.45 -11.45 -19.5 -11.45 L-19.65 -11.5 -19.7 -11.55 -19.8 -11.55 -19.9 -11.6 -20.2 -11.6 -20.3 -11.55 -20.35 -11.55 -20.35 -11.5 -20.4 -11.45 -20.4 -11.35 -20.45 -11.35 -20.45 -11.25 -20.5 -11.2 -20.6 -11.15 -20.6 -11.1 -20.85 -11.1 -20.95 -11.2 -20.95 -11.25 -21.0 -11.3 -21.05 -11.25 -21.15 -11.2 -21.2 -11.2 -21.35 -11.15 -21.4 -11.1 -21.5 -11.15 -21.55 -11.2 -21.55 -11.4 -21.5 -11.45 -21.5 -12.0 -21.55 -12.05 -21.55 -12.15 -21.6 -12.2 -21.6 -12.25 -21.7 -12.3 -21.75 -12.3 -21.75 -12.35 -21.85 -12.45 -21.9 -12.45 -21.9 -12.4 -21.95 -12.45 -21.95 -12.55 -22.05 -12.6 -22.1 -12.65 -22.1 -12.75 -22.15 -12.8 -22.2 -12.8 -22.35 -12.75 -22.55 -12.75 -22.7 -12.9 -22.8 -12.95 -22.85 -12.9 -23.25 -12.8 -23.3 -12.75 -23.55 -12.75 -23.65 -12.65 -24.05 -12.65 -24.15 -12.7 -24.25 -12.85 -24.45 -13.05 -24.45 -13.1 -24.55 -13.2 -24.55 -13.25 -24.6 -13.35 -24.65 -13.4 -24.75 -13.55 -24.75 -13.6 -24.8 -13.65 -24.8 -13.7 -24.9 -13.8 -24.9 -13.85 -24.95 -13.9 -24.95 -13.95 -25.0 -14.0 -25.0 -13.8 -25.1 -13.8 -25.1 -13.85 -25.15 -13.9 -25.2 -13.9 -25.25 -13.95 -25.25 -14.05 -25.35 -14.15 -25.5 -14.2 -25.55 -14.25 -25.6 -14.25 -25.6 -14.3 -25.75 -14.3 -25.8 -14.35 -25.8 -14.4 -26.25 -14.45 -26.6 -14.45 -26.6 -14.4 -26.65 -14.3 -26.7 -14.25 -26.75 -14.25 -26.8 -14.2 -27.1 -14.2 -27.15 -14.25 -27.2 -14.25 -27.3 -14.3 -27.3 -14.35 -27.35 -14.45 -27.3 -14.55 -27.3 -14.8 -27.35 -14.85 -27.35 -15.2 -27.4 -15.25 -27.4 -15.5 Q-27.4 -15.55 -27.45 -15.6 L-27.45 -15.65 -27.5 -15.7 -27.5 -16.2 -27.45 -16.2 -27.45 -16.25 -27.4 -16.3 -27.4 -16.45 -27.35 -16.5 -27.35 -16.55 -27.3 -16.6 -27.4 -16.7 -27.55 -16.75 -27.6 -16.75 -27.7 -16.8 -27.7 -16.85 -27.75 -16.85 -27.8 -16.9 -27.85 -16.9 -28.0 -17.05 -28.0 -16.95 -28.05 -16.95 -28.05 -17.0 -28.1 -17.05 -28.1 -17.55 -28.05 -17.6 -28.05 -18.25 -27.95 -18.3 -27.9 -18.3 -27.9 -18.35 -27.85 -18.35 -27.7 -18.4 -27.65 -18.4 -27.55 -18.5 -27.1 -18.5 -27.05 -18.45 -27.05 -18.4 -27.1 -18.4 -27.1 -18.35 -27.45 -18.3 -27.45 -18.25 -27.6 -18.1 -27.8 -18.1 -27.8 -17.85 -27.85 -17.8 -27.85 -17.5 -27.9 -17.5 -27.9 -17.45 -27.95 -17.35 -27.9 -17.35 -27.8 -17.25 -27.8 -17.2 -27.75 -17.15 -27.75 -17.1 -27.65 -17.1 -27.6 -17.05 -27.6 -17.0 -27.5 -16.95 Q-27.35 -16.95 -27.25 -16.85 L-27.2 -16.8 -27.15 -16.8 -27.1 -16.75 -27.1 -16.55 -27.15 -16.5 -27.15 -16.45 -27.2 -16.45 -27.2 -16.35 -27.25 -16.3 -27.2 -16.25 -27.2 -16.2 -27.25 -16.15 -27.25 -15.95 Q-27.25 -15.9 -27.3 -15.8 L-27.25 -15.8 -27.25 -15.75 -27.2 -15.7 -27.2 -15.05 -27.1 -14.95 -27.1 -14.5 -26.85 -14.5 -26.8 -14.55 -26.8 -14.6 -26.75 -14.65 -26.65 -14.7 -26.6 -14.7 -26.55 -14.75 -26.45 -14.75 -26.4 -14.7 -26.3 -14.7 -26.3 -14.65 -26.2 -14.65 -26.15 -14.6 -25.7 -14.6 -25.65 -14.55 -25.65 -14.5 -25.6 -14.5 -25.5 -14.45 -25.35 -14.45 -25.25 -14.4 -25.2 -14.35 -25.15 -14.35 -25.15 -14.3 -25.1 -14.25 -25.1 -14.2 -25.05 -14.15 -25.05 -14.1 -25.0 -14.05 -25.0 -14.1 -24.85 -14.1 -24.65 -13.85 -24.35 -13.35 -24.25 -13.25 -24.25 -13.2 -24.0 -12.95 -23.95 -12.95 -23.85 -12.9 -23.8 -12.9 -23.7 -13.0 -23.65 -13.0 -23.65 -13.05 -23.6 -13.05 -23.55 -13.1 -23.5 -13.1 -23.4 -13.2 -23.3 -13.25 -23.25 -13.3 -23.2 -13.3 Q-23.05 -13.35 -22.95 -13.4 L-22.8 -13.45 -22.8 -13.5 -22.75 -13.55 -22.65 -13.6 -22.65 -13.75 -22.7 -13.85 -22.85 -13.9 -22.9 -13.9 -22.9 -14.2 -23.0 -14.3 -23.0 -14.6 -22.95 -14.65 -22.95 -14.7 -22.85 -14.75 -22.75 -14.75 -22.65 -14.8 -22.6 -14.8 -22.55 -14.75 -22.2 -14.75 -22.1 -14.8 -22.0 -14.8 -21.95 -14.85 -21.85 -14.85 -21.75 -14.95 -21.7 -14.95 -21.7 -15.15 -21.85 -15.2 -21.9 -15.25 -21.9 -15.4 -21.8 -15.5 -21.8 -15.55 -21.7 -15.65 -21.6 -15.65 -21.5 -15.6 -21.45 -15.6 -21.6 -15.55 -21.65 -15.5 -21.65 -15.45 -21.7 -15.4 -21.75 -15.4 -21.65 -15.35 -21.55 -15.25 -21.55 -15.2 -21.5 -15.15 -21.5 -15.1 -21.55 -15.05 -21.55 -14.8 -21.6 -14.8 -21.7 -14.7 -21.75 -14.7 -21.8 -14.65 -21.9 -14.65 -21.9 -14.6 -22.0 -14.55 -22.15 -14.5 -22.55 -14.5 -22.65 -14.55 -22.65 -14.5 -22.75 -14.5 -22.8 -14.45 -22.7 -14.35 -22.7 -14.25 -22.65 -14.25 -22.65 -14.1 -22.6 -14.1 -22.4 -14.05 -22.35 -14.0 -22.35 -13.75 Q-22.35 -13.7 -22.35 -13.65 L-22.35 -13.5 -22.4 -13.45 -22.4 -13.4 -22.55 -13.35 -22.6 -13.35 -22.7 -13.25 -22.8 -13.2 -22.85 -13.2 -22.9 -13.15 -22.55 -13.15 -22.4 -13.0 -22.35 -13.0 -22.25 -13.05 -22.05 -13.0 -22.0 -12.95 -21.95 -12.95 -21.9 -12.9 -21.95 -12.85 -21.95 -12.7 -21.9 -12.65 -21.9 -12.6 -21.85 -12.65 -21.85 -12.7 -21.75 -12.7 -21.65 -12.6 -21.65 -12.55 -21.55 -12.45 -21.45 -12.4 -21.4 -12.35 -21.4 -12.3 -21.3 -12.2 -21.3 -11.9 -21.25 -11.7 -21.25 -11.5 -21.15 -11.5 -21.1 -11.55 -20.95 -11.55 -20.9 -11.5 -20.85 -11.5 -20.8 -11.45 -20.7 -11.45 -20.65 -11.5 -20.65 -11.7 -20.6 -11.7 -20.6 -11.9 -20.65 -11.95 -20.65 -12.0 -20.7 -12.05 -20.75 -12.05 -20.75 -12.15 -20.8 -12.2 -20.8 -12.25 -20.85 -12.25 -20.95 -12.3 -21.2 -12.3 -21.4 -12.35 -21.4 -12.4 -21.45 -12.45 -21.45 -12.5 -21.5 -12.55 -21.5 -12.6 -21.45 -12.6 -21.45 -12.7 -21.65 -12.9 -21.65 -13.05 -21.6 -13.1 -21.6 -13.15 -21.4 -13.35 -21.1 -13.35 -21.05 -13.4 -21.05 -13.45 -20.95 -13.55 -20.85 -13.6 -20.75 -13.6 -20.75 -13.65 -20.6 -13.65 -20.2 -13.6 -19.85 -13.6 -19.85 -13.7 -19.75 -13.8 -19.7 -13.8 -19.65 -13.85 -19.6 -13.85 -19.5 -13.8 -18.95 -13.8 -18.75 -13.9 -18.7 -13.95 -18.7 -14.1 -18.65 -14.15 -18.65 -14.3 -18.55 -14.4 -18.55 -14.55 -18.5 -14.6 -18.5 -14.95 -18.55 -14.95 -18.55 -15.05 -18.6 -15.1 -18.6 -15.15 -18.65 -15.15 -18.75 -15.25 -18.75 -15.35 -18.85 -15.4 -18.9 -15.45 -18.9 -15.5 -18.95 -15.6 -19.0 -15.65 -19.0 -15.8 -19.05 -15.8 -19.1 -15.85 -19.25 -15.9 -19.55 -15.9 -19.6 -15.95 -19.75 -15.95 -19.85 -16.0 -19.9 -16.05 -19.95 -16.0 -20.05 -16.0 -20.35 -15.95 -20.5 -15.9 -20.75 -15.9 -20.8 -15.85 -20.8 -15.8 -20.95 -15.8 -21.0 -15.75 -21.0 -15.7 -21.1 -15.65 -21.35 -15.65 -21.35 -15.7 -21.3 -15.7 -21.2 -15.75 -21.15 -15.75 -21.05 -15.8 -21.0 -15.85 -20.95 -15.85 -20.85 -15.95 -20.8 -15.95 -20.75 -16.0 -20.6 -16.05 -20.55 -16.05 -20.5 -16.1 -20.45 -16.1 -20.35 -16.2 -20.1 -16.2 -20.05 -16.25 -19.9 -16.25 -19.6 -16.1 -19.55 -16.1 -19.5 -16.05 -19.35 -16.0 -19.0 -16.0 -19.0 -16.1 -18.9 -16.1 -18.8 -16.05 -18.75 -16.0 -18.75 -15.85 -18.7 -15.8 -18.7 -15.75 -18.65 -15.7 -18.65 -15.6 -18.6 -15.55 -18.6 -15.5 -18.55 -15.45 -18.5 -15.35 -18.45 -15.3 -18.45 -15.25 -18.4 -15.2 -18.4 -15.15 -18.35 -15.1 -18.35 -15.05 -18.3 -14.95 Q-18.3 -14.85 -18.35 -14.75 L-18.35 -14.45 -18.4 -14.35 -18.4 -14.05 -18.45 -14.0 -18.45 -13.85 -18.55 -13.75 -18.55 -13.7 -18.65 -13.65 -18.65 -13.6 -18.7 -13.6 -18.85 -13.55 -18.9 -13.5 -19.6 -13.5 -19.65 -13.45 -19.8 -13.45 -20.0 -13.45 -20.6 -13.4 -20.7 -13.35 -20.75 -13.3 -20.8 -13.3 -20.85 -13.25 -20.85 -13.2 -20.9 -13.15 -20.9 -13.1 -21.25 -13.1 -21.3 -13.05 -21.3 -12.9 -21.2 -12.85 -21.15 -12.8 -21.15 -12.6 Q-21.1 -12.6 -21.05 -12.55 L-20.9 -12.55 -20.85 -12.6 -20.8 -12.6 -20.7 -12.55 -20.7 -12.5 -20.55 -12.35 -20.55 -12.3 -20.5 -12.25 -20.5 -12.2 -20.4 -12.1 -20.4 -12.0 -20.35 -11.95 -20.35 -11.75 -20.3 -11.75 -20.2 -11.8 -19.9 -11.8 -19.85 -11.75 -19.6 -11.75 -19.5 -11.7 -19.4 -11.7 -19.15 -11.65 -19.05 -11.65 -19.0 -11.7 -18.9 -11.75 -18.8 -11.75 -18.55 -11.8 -18.45 -11.85 -18.25 -11.9 Q-18.2 -11.95 -18.1 -11.95 L-18.05 -12.0 -17.9 -12.05 -17.75 -12.05 -17.65 -12.15 -17.6 -12.15 -17.5 -12.2 -17.25 -12.25 Q-17.1 -12.3 -16.95 -12.4 L-16.9 -12.4 -16.85 -12.45 -16.6 -12.45 -16.4 -12.25 -16.25 -12.25 -16.15 -12.3 -16.05 -12.3 -15.95 -12.35 -15.85 -12.35 -15.8 -12.4 -15.8 -12.45 -15.7 -12.5 -15.65 -12.5 Q-15.55 -12.55 -15.5 -12.6 -15.45 -12.65 -15.4 -12.7 L-15.3 -12.75 -15.2 -12.85 -14.95 -12.85 -14.85 -12.75 -14.75 -12.7 -14.4 -12.7 -14.3 -12.75 -14.05 -12.8 -14.0 -12.85 -13.8 -12.85 -13.55 -13.0 -13.4 -13.05 -13.2 -13.05 -12.9 -13.2 -12.65 -13.3 -12.55 -13.35 -12.5 -13.35 -12.5 -13.55 -12.45 -13.6 -12.35 -13.65 -12.35 -14.1 -12.4 -14.15 -12.4 -14.25 -12.5 -14.35 -12.5 -14.4 -12.6 -14.5 -12.65 -14.6 -12.65 -14.65 -12.7 -14.7 -12.75 -14.7 -12.75 -14.8 -12.7 -14.85 -12.65 -14.95 Q-12.6 -15.0 -12.55 -15.05 L-12.55 -15.15 -12.65 -15.2 -12.7 -15.25 -12.75 -15.25 -12.75 -15.3 -13.05 -15.3 -13.15 -15.25 -13.4 -15.25 -13.6 -15.35 -13.65 -15.4 -13.7 -15.6 -13.7 -16.05 -13.65 -16.1 -13.55 -16.3 -13.4 -16.45 -13.4 -16.5 -13.45 -16.5 -13.5 -16.55 -13.7 -16.55 -13.8 -16.65 -13.8 -16.7 -13.85 -16.75 -13.85 -16.85 -13.9 -16.9 -14.0 -16.95 -14.05 -17.0 -14.1 -17.0 -14.1 -17.05 -14.15 -17.1 -14.15 -17.15 -14.2 -17.2 -14.2 -17.25 -14.25 -17.35 -14.25 -17.55 -14.2 -17.6 -14.15 -17.7 -14.1 -17.7 -13.9 -17.8 -13.85 -17.75 -13.8 -17.75 -13.45 -17.8 -13.25 -17.8 -13.15 -17.85 -13.0 -18.0 -12.85 -18.2 -12.8 -18.25 -12.65 -18.45 -12.35 -18.75 -12.2 -18.75 -12.15 -18.8 -12.05 -18.85 -11.85 -18.9 -11.7 -18.95 -11.6 -19.0 -11.55 -19.0 -11.45 -19.1 -11.45 -19.25 -11.4 -19.3 -11.4 -19.6 -11.5 -19.7 -11.5 -20.0 -11.45 -20.05 -11.45 -20.15 -11.4 -20.2 -11.4 -20.25 -11.3 -20.35 -11.3 -20.7 -11.35 -20.8 -11.45 -20.9 -11.5 -20.9 -11.6 -20.95 -11.65 -20.95 -11.75 -21.05 -11.75 -21.75 -11.8 -21.8 -11.8 -21.85 -11.85 -21.85 -11.85 -21.9 -11.9 -21.95 -11.9 -22.0 -11.95 -22.05 -12.2 -22.05 -12.3 -22.0 -12.3 -21.95 -12.35 -21.9 -13.15 -21.85 -13.3 -21.85 -13.35 -21.8 -13.5 -21.8 -13.6 -21.85 -13.75 -21.85 -13.9 -22.0 Q-13.95 -22.05 -14.0 -22.15 L-14.05 -22.2 -14.05 -22.25 -14.0 -22.3 -14.0 -22.35 -13.95 -22.4 -13.95 -22.5 -14.05 -22.6 -14.1 -22.7 -14.25 -22.85 -14.35 -22.9 -14.4 -22.95 -14.4 -23.0 -14.5 -23.0 -14.6 -23.1 -14.6 -23.15 -14.75 -23.3 -14.8 -23.3 -14.95 -23.45 -14.95 -23.55 -15.0 -23.6 -15.05 -23.6 -15.05 -23.65 -15.15 -23.75 -15.15 -23.85 -15.2 -23.9 -15.2 -23.95 -15.3 -24.05 -15.3 -24.35 -15.35 -24.4 -15.35 -24.45 -15.4 -24.5 -15.4 -24.55 -15.45 -24.6 -15.45 -24.65 -15.5 -24.65 -15.55 -24.7 -15.55 -24.8 -15.6 -24.85 -15.6 -24.9 -15.7 -25.0 -15.8 -25.2 -15.8 -25.5 -15.85 -25.55 -15.85 -25.8 -15.65 -26.0 -15.55 -26.0 -15.5 -25.95 -15.45 -25.95 -15.35 -26.05 -15.3 -26.05 -15.25 -26.1 -15.25 -26.4 -15.2 -26.45 -15.2 -26.5 -15.15 -26.55 -14.8 -26.65 Q-14.65 -26.65 -14.55 -26.75 L-14.5 -26.75 -14.4 -26.8 -14.1 -27.1 -14.05 -27.1 -14.05 -27.15 -13.95 -27.25 -13.95 -27.3 -13.9 -27.35 -13.9 -27.4 -13.75 -27.55 -13.75 -27.6 -13.7 -27.65 -13.7 -27.7 -13.65 -27.75 -13.65 -27.9 -13.6 -27.95 -13.6 -28.25 -13.65 -28.3 -13.65 -28.45 -13.7 -28.5 -13.7 -28.75 -13.65 -28.8 -13.65 -28.9 -13.5 -29.05 -13.35 -29.15 -13.3 -29.2 -13.2 -29.25 -12.65 -29.25 -12.65 -29.3 -12.55 -29.35 -12.55 -29.4 -12.5 -29.45 -12.5 -29.5 -12.45 -29.6 -12.35 -29.7 -12.2 -29.7 -12.0 -29.8 -11.95 -29.85 -11.95 -29.95 -11.8 -30.1 -11.8 -30.15 -11.75 -30.2 -11.75 -30.35 -11.7 -30.4 -11.7 -30.55 -11.65 -30.6 -11.6 -30.7 -11.6 -30.75 -11.55 -30.75 -11.5 -30.8 -11.4 -30.85 -11.35 -30.85 -11.25 -30.9 -11.1 -30.9 -11.0 -30.95 -10.9 -30.95 -10.85 -31.0 -10.65 -31.05 -10.5 -31.15 -10.3 -31.2 -10.15 -31.35 -10.15 -31.45 -10.1 -31.5 -10.1 -31.55 -10.05 -31.55 -10.0 -31.6 -10.0 -31.65 -9.95 -31.7 -9.95 -31.75 -9.85 -31.85 -9.75 -31.9 -9.65 -31.9 -9.6 -31.95 -9.45 -32.0 -9.45 -32.05 -9.4 -32.05 -9.3 -32.0 -9.25 -32.0 -9.15 -31.9 -9.05 -31.85 -8.95 -31.85 -8.9 -31.8 -8.85 -31.8 -8.85 -31.45 -8.75 -31.35 -8.75 -31.1 -8.7 -31.05 -8.7 -30.9 -8.65 -30.85 -8.65 -30.8 -8.55 -30.75 -8.5 -30.75 -8.35 -30.7 -8.25 -30.7 -8.1 -30.75 -8.0 -30.8 -7.85 -30.95 -7.55 -30.95 -7.5 -31.0 -7.05 -31.05 -7.0 -31.05 -6.9 -31.1 -6.65 -31.35 -6.6 -31.35 -6.5 -31.4 -6.45 -31.45 -6.1 -31.45 -5.65 -31.4 -5.6 -31.35 -5.45 -31.3 -5.4 -31.3 -5.3 -31.2 -5.3 -31.1 -5.2 -31.0 -5.2 -30.65 -5.15 -30.6 -5.15 -30.5 -5.2 -30.45 -5.2 -30.4 -5.25 -30.4 -5.4 -30.35 -5.4 -30.25 -5.35 -30.2 -5.35 -30.05 -5.4 -30.0 -5.45 -29.9 -5.5 -29.85 -5.65 -29.75 -5.65 -29.5 -5.6 -29.45 -5.6 -29.2 -5.7 -29.1 -6.15 -29.05 -6.2 -29.05 -6.3 -29.0 -6.4 -28.9 -6.45 -28.9 -6.45 -28.75 -6.5 -28.7 -6.5 -28.5 -6.55 -28.45 -6.55 -28.3 -6.5 -28.3 -6.45 -28.25 -6.45 -28.0 -6.4 -28.0 -6.4 -27.6 -6.45 -27.55 -6.55 -27.5 -6.4 -27.35 -6.1 -27.2 -5.9 -27.15 -5.9 -27.2 -5.5 -27.2 -5.45 -27.15 -5.4 -27.15 -5.35 -27.1 -5.0 -27.1 -4.9 -27.15 -4.85 -27.15 -4.75 -27.25 -4.7 -27.25 -4.7 -27.3 -4.65 -27.3 -4.6 -27.35 -4.45 -27.35 -4.35 -27.4 -4.25 -27.5 -4.15 -27.55 -4.15 -27.6 -4.1 -27.6 -3.95 -27.65 -3.8 -27.65 -3.7 -27.75 -3.65 -27.75 -3.45 -27.85 -3.4 -27.85 -3.35 -27.9 -3.05 -27.95 -2.95 -28.0 -2.85 -28.1 -2.85 -28.35 -2.8 -28.4 -2.8 -28.55 -2.85 -28.6 Q-2.9 -28.6 -2.9 -28.65 L-3.1 -28.65 -3.15 -28.7 -3.15 -28.8 -3.2 -28.8 -3.3 -28.75 -3.3 -28.7 -3.45 -28.7 -3.65 -28.9 -3.65 -29.15 Q-3.65 -29.2 -3.6 -29.3 L-3.4 -29.4 -3.35 -29.45 -3.3 -29.4 -3.3 -29.3 -3.35 -29.25 -3.35 -29.15 -3.4 -29.1 -3.4 -29.0 -3.3 -29.0 -3.25 -29.05 -2.9 -29.05 -2.85 -29.0 -2.85 -28.9 -2.6 -28.65 -2.6 -28.35 -2.65 -28.3 -2.65 -28.05 -2.7 -28.0 -2.6 -27.9 -2.6 -27.75 -2.55 -27.65 -2.55 -27.55 -2.5 -27.5 -2.5 -27.45 -2.45 -27.4 -2.25 -27.25 -2.05 -27.0 -2.0 -26.95 -1.9 -26.95 -1.7 -26.85 Q-1.65 -26.85 -1.65 -26.9 L-1.6 -26.9 -1.6 -26.95 -1.65 -27.0 -1.65 -27.3 -1.6 -27.35 -1.6 -27.45 -1.55 -27.5 -1.35 -27.55 -1.25 -27.6 -1.1 -27.55 -0.9 -27.55 -0.85 -27.5 -0.75 -27.45 -0.75 -27.4 -0.65 -27.35 -0.6 -27.3 -0.55 -27.3 -0.35 -27.1 -0.05 -27.0 0.0 -27.0 0.1 -26.9 0.2 -26.9 0.3 -26.8 0.35 -26.8 0.45 -26.7 0.5 -26.7 0.6 -26.65 0.85 -26.65 0.95 -26.6 1.0 -26.65 1.05 -26.65 1.1 -26.7 1.3 -26.7 1.3 -26.75 1.35 -26.75 1.4 -26.8 1.7 -26.8 1.95 -26.55 1.95 -26.5 M1.85 -26.25 L1.75 -26.45 Q1.7 -26.5 1.65 -26.55 L1.45 -26.55 1.45 -26.45 1.4 -26.4 1.1 -26.4 1.1 -26.35 1.05 -26.35 1.0 -26.3 0.95 -26.3 0.85 -26.35 0.5 -26.35 0.45 -26.4 0.35 -26.45 0.25 -26.55 0.15 -26.6 0.1 -26.6 0.05 -26.65 -0.05 -26.7 -0.15 -26.8 -0.25 -26.8 -0.25 -26.85 -0.55 -26.85 -0.6 -26.9 -0.65 -26.9 -0.8 -27.05 -0.8 -27.1 -0.85 -27.2 -0.95 -27.3 -1.0 -27.4 -1.2 -27.4 -1.25 -27.35 -1.35 -27.35 -1.4 -27.3 -1.4 -27.25 -1.45 -27.2 -1.45 -27.1 -1.4 -27.05 -1.4 -26.8 -1.45 -26.75 -1.45 -26.7 -1.55 -26.65 -1.9 -26.65 -2.05 -26.7 -2.05 -26.75 -2.15 -26.75 -2.25 -26.8 -2.25 -26.85 -2.45 -27.05 -2.5 -27.05 -2.6 -27.15 -2.6 -27.2 -2.7 -27.25 -2.7 -27.3 -2.75 -27.35 -2.75 -27.45 -2.8 -27.5 -2.8 -27.75 -2.85 -27.8 -2.95 -27.8 -3.05 -27.75 -3.3 -27.75 -3.3 -27.7 Q-3.4 -27.65 -3.45 -27.6 L-3.6 -27.55 -3.65 -27.5 -3.7 -27.5 -3.7 -27.45 -3.85 -27.45 -3.9 -27.4 -4.05 -27.35 -4.3 -27.1 -4.45 -27.05 -4.35 -27.05 -4.25 -27.0 -4.05 -26.95 -3.9 -26.95 -3.9 -27.0 -3.85 -27.05 -3.8 -27.05 -3.75 -27.1 -3.65 -27.15 -3.45 -27.15 -3.35 -27.1 -3.1 -27.1 -3.0 -27.05 -2.95 -27.0 -2.9 -27.0 -2.65 -26.75 Q-2.6 -26.65 -2.55 -26.6 L-2.55 -26.55 -2.5 -26.5 -2.5 -26.35 -2.45 -26.3 -2.45 -26.25 -2.35 -26.2 -2.35 -26.05 -2.3 -26.0 -2.25 -26.0 -2.25 -25.95 -2.15 -25.85 -2.1 -25.85 -2.05 -25.8 -1.95 -25.75 -1.95 -25.55 -1.9 -25.45 -1.85 -25.45 -1.75 -25.35 -1.65 -25.3 -1.4 -25.3 -1.3 -25.35 -1.2 -25.45 -1.15 -25.45 -1.15 -25.5 -1.1 -25.5 -1.05 -25.55 -1.0 -25.55 -0.95 -25.6 -0.6 -25.55 -0.25 -25.35 -0.05 -25.2 -0.05 -25.15 0.0 -25.05 0.05 -25.0 0.1 -25.0 0.15 -24.95 0.15 -24.65 0.1 -24.65 0.1 -24.45 0.15 -24.4 0.15 -24.35 0.2 -24.35 0.25 -24.3 0.35 -24.3 0.5 -24.15 0.5 -24.1 0.55 -24.05 0.55 -24.0 0.6 -23.95 0.6 -23.85 0.65 -23.8 0.65 -23.6 0.6 -23.55 0.5 -23.35 0.4 -23.25 0.4 -23.2 0.3 -23.1 0.2 -23.05 0.05 -22.9 0.05 -22.7 0.1 -22.65 0.1 -22.25 0.05 -22.25 0.05 -22.1 0.1 -22.05 0.4 -22.05 0.5 -22.1 0.65 -22.25 0.65 -22.3 0.8 -22.45 Q0.9 -22.55 1.0 -22.65 L1.0 -22.7 0.95 -22.75 0.95 -22.8 0.9 -22.9 Q0.8 -22.95 0.85 -23.0 L0.85 -23.15 0.9 -23.2 0.9 -23.3 1.0 -23.4 1.2 -23.4 1.4 -23.35 1.75 -23.35 1.8 -23.3 1.85 -23.3 2.0 -23.45 2.0 -23.6 1.95 -23.65 1.95 -23.7 1.9 -23.75 1.9 -24.0 1.85 -24.05 1.85 -24.15 1.8 -24.2 1.8 -24.3 1.75 -24.35 1.75 -24.4 1.7 -24.45 1.7 -24.5 1.65 -24.55 1.65 -24.6 1.6 -24.65 1.6 -24.7 1.55 -24.75 1.45 -24.8 1.4 -24.85 1.4 -24.9 1.35 -24.95 1.35 -25.0 1.3 -25.05 1.3 -25.1 1.25 -25.1 1.25 -25.2 1.15 -25.3 1.15 -25.4 1.1 -25.45 1.1 -25.65 1.15 -25.65 1.15 -25.7 1.35 -25.7 1.45 -25.6 1.5 -25.6 1.7 -25.5 1.9 -25.45 1.9 -25.4 2.0 -25.35 2.05 -25.35 2.05 -25.5 2.1 -25.55 2.1 -25.75 2.05 -25.8 2.05 -25.85 2.0 -25.9 2.0 -26.0 1.95 -26.05 1.95 -26.1 1.85 -26.25 M-33.7 -20.4 L-33.75 -20.35 -33.75 -20.25 -33.8 -20.2 -33.8 -20.15 -34.0 -19.95 -34.05 -19.95 -34.1 -19.9 -34.3 -19.85 -34.4 -19.85 -34.35 -19.9 -34.35 -19.95 -34.15 -20.0 -34.05 -20.05 -34.05 -20.1 -34.0 -20.15 -34.0 -20.2 -33.95 -20.25 -33.95 -20.45 -33.9 -20.5 -33.9 -20.55 -33.85 -20.6 -33.75 -20.65 -33.65 -20.65 -33.35 -20.7 -33.25 -20.7 -33.2 -20.75 -33.1 -20.8 -33.05 -20.8 -32.75 -20.85 -32.7 -20.85 -32.7 -20.9 -32.55 -20.85 -32.5 -20.85 -32.3 -20.8 -32.25 -20.75 -32.05 -20.7 -32.0 -20.65 -32.0 -20.55 -31.95 -20.5 -31.95 -20.35 -32.0 -20.3 -32.05 -20.2 -32.15 -20.15 -32.15 -20.05 -32.1 -20.0 -32.1 -19.7 -32.0 -19.6 -31.85 -19.55 -31.8 -19.55 -31.7 -19.5 -31.65 -19.5 -31.8 -19.45 -32.1 -19.45 -32.35 -19.5 -32.35 -19.65 -32.3 -19.7 -32.3 -19.85 -32.35 -19.9 -32.35 -20.2 -32.25 -20.3 -32.25 -20.35 -32.2 -20.4 -32.2 -20.5 -32.4 -20.55 -32.4 -20.65 -33.05 -20.65 -33.15 -20.6 -33.15 -20.55 -33.2 -20.55 -33.3 -20.5 -33.35 -20.5 -33.65 -20.45 -33.7 -20.4 M-29.7 -21.85 L-29.4 -21.95 -29.3 -22.05 -29.5 -22.1 -29.5 -22.15 -29.6 -22.25 -29.6 -22.3 -29.65 -22.35 -29.65 -22.45 -29.6 -22.5 -29.6 -22.65 -29.5 -22.65 -29.45 -22.6 -29.45 -22.5 -29.4 -22.4 -29.35 -22.35 -29.35 -22.3 -29.2 -22.3 -29.1 -22.25 -29.1 -21.95 -29.15 -21.9 -29.2 -21.8 -29.25 -21.75 -29.3 -21.75 -29.5 -21.7 -29.7 -21.6 -29.7 -21.55 -29.8 -21.55 -29.85 -21.5 -29.85 -21.25 -29.5 -21.15 -29.45 -21.15 -29.45 -20.85 -29.4 -20.8 -29.4 -20.5 -29.45 -20.4 -29.45 -20.2 -29.3 -20.2 -29.25 -20.15 -29.15 -20.15 -29.15 -20.1 -29.05 -20.1 -28.95 -20.0 -28.95 -19.95 -28.9 -19.9 -28.9 -19.85 -28.85 -19.8 -28.85 -19.75 -28.8 -19.75 -28.8 -19.65 -28.7 -19.65 -28.6 -19.55 -28.55 -19.6 -28.3 -19.6 -28.25 -19.65 -28.05 -19.65 -28.0 -19.6 -27.75 -19.55 -27.45 -19.55 -27.35 -19.5 -27.3 -19.45 -27.3 -19.4 -27.25 -19.35 -27.2 -19.35 -27.1 -19.3 -27.0 -19.2 -26.85 -19.2 -26.65 -19.0 -26.65 -18.95 -26.6 -18.95 -26.5 -19.05 -26.35 -19.05 -26.05 -18.9 -26.05 -18.85 -25.95 -18.85 -25.9 -18.8 -25.9 -18.75 -25.8 -18.7 -25.75 -18.65 -25.7 -18.65 -25.65 -18.6 -25.55 -18.55 -25.5 -18.5 -25.45 -18.5 -25.45 -18.45 -25.2 -18.45 -25.1 -18.55 -25.1 -18.95 -25.05 -18.95 -24.95 -19.05 Q-24.9 -19.1 -24.75 -19.15 L-24.45 -19.25 -24.45 -19.4 -24.55 -19.45 -24.55 -19.5 -24.6 -19.55 -24.65 -19.55 -24.65 -19.6 -24.7 -19.65 -24.7 -19.8 -24.6 -19.9 -24.5 -19.9 -24.4 -19.95 -24.3 -20.05 -24.3 -20.15 -24.25 -20.2 -24.25 -20.25 -24.2 -20.3 -24.2 -20.35 Q-24.15 -20.35 -24.15 -20.4 L-24.1 -20.45 -24.1 -20.65 -24.05 -20.7 -24.05 -20.75 -24.0 -20.8 -24.05 -20.8 -24.1 -20.85 -24.15 -20.85 -24.35 -20.9 -24.4 -20.95 -24.5 -21.0 -24.55 -21.05 -24.6 -21.05 -24.6 -21.1 -24.65 -21.15 -24.65 -21.35 -24.6 -21.3 -24.45 -21.2 Q-24.4 -21.15 -24.3 -21.1 L-24.2 -21.05 -24.05 -21.05 -23.95 -21.0 -23.85 -21.0 -23.8 -20.95 -23.8 -20.75 -23.85 -20.7 -23.85 -20.65 -23.9 -20.6 -23.9 -20.45 -23.95 -20.4 -23.95 -20.35 -24.05 -20.25 -24.05 -20.2 -24.1 -20.15 -24.1 -20.05 -24.15 -20.0 -24.15 -19.95 -24.25 -19.85 -24.25 -19.8 -24.35 -19.7 -24.45 -19.65 -24.4 -19.65 -24.35 -19.6 -24.25 -19.55 -24.25 -19.45 -24.2 -19.4 -24.2 -19.25 -24.25 -19.2 -24.25 -19.1 -24.35 -19.0 -24.5 -18.95 -24.55 -18.95 -24.65 -18.9 -24.7 -18.9 Q-24.75 -18.85 -24.8 -18.85 L-24.85 -18.8 -24.85 -18.75 -24.9 -18.7 -24.9 -18.45 -25.0 -18.35 -25.0 -18.3 -25.05 -18.3 -25.1 -18.25 -25.25 -18.25 -25.3 -18.2 -25.5 -18.2 -25.7 -18.4 -25.75 -18.4 -25.85 -18.45 -25.9 -18.5 -25.9 -18.55 -26.0 -18.55 -26.15 -18.7 -26.25 -18.75 -26.35 -18.75 -26.4 -18.8 -26.5 -18.7 -26.5 -18.65 -26.6 -18.65 -26.6 -18.55 -26.7 -18.5 -26.75 -18.5 -26.75 -18.45 -26.95 -18.45 -26.95 -18.55 -26.85 -18.65 -26.85 -18.85 -26.9 -18.9 -26.9 -18.95 -26.95 -19.0 -27.1 -19.05 -27.2 -19.1 -27.4 -19.1 -27.55 -19.25 -27.75 -19.3 -27.8 -19.35 -27.9 -19.4 -28.1 -19.45 -28.15 -19.5 -28.25 -19.45 -28.3 -19.45 -28.4 -19.4 -28.75 -19.4 -28.9 -19.45 -28.95 -19.5 -28.95 -19.55 -29.0 -19.55 -29.0 -19.75 -29.1 -19.85 -29.1 -19.9 -29.15 -19.95 -29.25 -20.0 -29.25 -19.95 -29.3 -19.95 -29.35 -19.9 -29.45 -19.95 -29.5 -19.95 -29.55 -19.9 -29.6 -19.8 -29.75 -19.7 -29.75 -19.65 -29.8 -19.6 -29.8 -19.5 -29.85 -19.4 -30.05 -19.3 -30.1 -19.3 -30.2 -19.2 -30.2 -19.15 -30.25 -19.1 -30.3 -19.1 -30.3 -19.05 -30.75 -19.1 -30.8 -19.1 -30.85 -19.15 -30.85 -19.3 -30.9 -19.3 -30.95 -19.25 -31.1 -19.25 -31.15 -19.3 -31.15 -19.35 -31.2 -19.35 -31.25 -19.4 -31.35 -19.3 -31.5 -19.3 -31.6 -19.4 -31.6 -19.6 -31.55 -19.65 -31.45 -19.7 -31.3 -19.7 -31.2 -19.6 -31.2 -19.55 -30.85 -19.55 -30.65 -19.35 -30.65 -19.3 -30.45 -19.3 -30.35 -19.4 -30.3 -19.4 -30.2 -19.45 -30.1 -19.55 -30.0 -19.6 -30.0 -19.7 -29.95 -19.75 -29.95 -19.8 -29.85 -19.9 -29.85 -19.95 -29.75 -20.05 -29.75 -20.1 -29.6 -20.25 -29.65 -20.3 -29.65 -20.55 -29.6 -20.6 -29.6 -20.95 -30.0 -21.0 -30.05 -21.05 -30.05 -21.65 -29.95 -21.75 -29.9 -21.75 -29.8 -21.8 -29.75 -21.85 -29.7 -21.85 M-5.55 -31.05 L-5.6 -31.1 -5.7 -31.15 -5.75 -31.15 -6.35 -31.2 -6.4 -31.2 -6.55 -31.15 -6.55 -31.1 -6.6 -31.05 -6.7 -31.05 -6.85 -30.9 -6.95 -30.85 -7.45 -30.85 -7.5 -30.8 -7.75 -30.75 -7.8 -30.75 -7.8 -30.7 -7.9 -30.65 -7.95 -30.6 Q-8.0 -30.6 -8.05 -30.55 L-8.2 -30.5 -8.45 -30.5 -8.5 -30.55 -8.6 -30.6 -8.8 -30.65 -8.85 -30.65 -8.85 -30.75 -8.9 -30.8 -8.9 -31.0 -8.95 -31.05 -8.95 -31.15 -9.0 -31.2 -9.0 -31.3 -9.05 -31.35 -9.05 -31.6 -9.1 -31.6 -9.35 -31.65 -9.4 -31.7 -9.5 -31.7 -9.7 -31.6 -9.75 -31.55 -9.8 -31.55 -9.8 -31.45 -9.85 -31.4 -9.9 -31.3 -10.0 -31.2 -10.1 -31.15 -10.1 -31.1 -10.15 -31.05 -10.3 -31.0 -10.4 -30.95 -10.45 -30.9 -9.55 -30.9 -9.4 -30.85 -9.4 -30.55 -9.3 -30.45 -9.15 -30.4 -9.15 -30.35 -9.0 -30.35 -8.95 -30.3 -8.35 -30.35 -8.25 -30.45 -8.15 -30.45 -7.9 -30.5 -7.85 -30.55 -7.35 -30.55 -7.25 -30.5 -7.15 -30.5 -7.05 -30.4 -6.9 -30.4 Q-6.75 -30.3 -6.6 -30.25 L-6.5 -30.25 -6.3 -30.15 -6.2 -30.15 -6.05 -30.1 -5.95 -30.05 -5.8 -30.0 -5.75 -29.95 -5.75 -30.0 -5.7 -30.0 -5.6 -30.1 -5.65 -30.15 -5.65 -30.4 -5.5 -30.55 -5.45 -30.55 -5.4 -30.6 -5.4 -30.8 -5.55 -30.95 -5.55 -31.05 M-11.25 -19.45 L-11.25 -19.2 -11.3 -19.15 -11.3 -19.05 -11.4 -18.95 -11.4 -18.9 -11.5 -18.8 -11.8 -18.7 -11.85 -18.7 -11.85 -18.65 -12.0 -18.65 -12.1 -18.55 -12.2 -18.5 -12.25 -18.5 -12.75 -18.0 -12.75 -17.95 -12.95 -17.75 -13.05 -17.7 -13.1 -17.65 -13.15 -17.65 -13.4 -17.6 -13.7 -17.5 -13.85 -17.5 -13.9 -17.45 -13.9 -17.3 -13.95 -17.25 -13.9 -17.25 -13.9 -17.2 -13.8 -17.1 -13.8 -17.05 -13.75 -17.05 -13.7 -17.0 -13.65 -17.0 -13.65 -16.9 -13.6 -16.85 -13.6 -16.8 -13.4 -16.75 -13.35 -16.75 -13.2 -16.7 -13.2 -16.65 -13.15 -16.6 -13.15 -16.3 -13.2 -16.25 -13.2 -16.2 -13.35 -16.05 -13.35 -16.0 -13.4 -16.0 -13.45 -15.95 -13.45 -15.9 -13.05 -16.1 -13.0 -16.1 -12.95 -16.15 -12.95 -16.2 -12.85 -16.3 -12.85 -16.35 -12.5 -16.35 -12.4 -16.25 -12.4 -16.2 -12.35 -16.15 -12.35 -16.1 -12.3 -16.05 -12.2 -16.0 -12.2 -15.95 -12.1 -15.85 -11.95 -15.85 -11.85 -15.95 -11.85 -16.1 -11.8 -16.15 -11.8 -16.55 -11.75 -16.55 Q-11.75 -16.65 -11.75 -16.7 L-11.75 -17.0 -11.7 -17.05 -11.7 -17.15 -11.6 -17.25 -11.6 -17.35 -11.55 -17.4 -11.55 -17.55 -11.5 -17.6 -11.5 -17.65 -11.4 -17.8 Q-11.35 -17.9 -11.3 -17.95 L-11.2 -18.05 -11.3 -18.1 -11.4 -18.1 -11.5 -18.15 -11.55 -18.2 -11.55 -18.45 -11.45 -18.55 -11.4 -18.55 -11.35 -18.6 -11.3 -18.6 -11.3 -18.65 Q-11.25 -18.65 -11.25 -18.7 L-11.25 -18.75 -11.2 -18.8 -11.2 -18.85 -11.15 -18.85 -11.05 -19.05 -10.95 -19.15 -10.95 -19.25 -11.05 -19.35 -11.05 -19.4 -11.15 -19.4 -11.2 -19.45 -11.2 -19.5 -11.25 -19.5 -11.25 -19.45 M-5.0 -26.85 L-5.35 -26.85 -5.15 -26.8 -4.95 -26.8 -4.9 -26.85 -5.0 -26.85 M-5.5 -26.95 L-5.5 -26.95 M-28.75 -23.25 L-28.85 -23.2 -28.95 -23.1 -29.0 -23.0 -29.15 -22.85 -29.15 -22.8 -29.25 -22.7 -29.35 -22.7 -29.4 -22.75 -29.4 -22.8 Q-29.4 -22.85 -29.35 -22.9 L-29.25 -23.0 -29.15 -23.15 -29.1 -23.2 -29.0 -23.25 -28.95 -23.25 -28.9 -23.3 -28.8 -23.35 -28.7 -23.35 -28.75 -23.3 -28.75 -23.25 M-23.15 -13.05 L-23.05 -13.1 -23.15 -13.1 -23.15 -13.05 M-3.95 -12.0 L-3.8 -12.15 -3.8 -12.2 -3.7 -12.3 -3.55 -12.3 -3.5 -12.25 -3.3 -12.25 -3.2 -12.15 -3.2 -12.05 -3.15 -12.0 -3.15 -11.95 -3.1 -11.9 -3.1 -11.75 -3.05 -11.7 -3.05 -11.45 -3.1 -11.35 -3.2 -11.3 -3.25 -11.3 -3.3 -11.25 -3.3 -11.05 -3.25 -11.0 -3.2 -11.0 -3.2 -10.8 -3.15 -10.8 -3.15 -10.75 -3.0 -10.7 -3.25 -10.7 -3.25 -10.75 -3.3 -10.8 -3.3 -10.85 -3.4 -10.9 -3.4 -10.95 -3.45 -11.0 -3.45 -11.35 -3.25 -11.55 -3.25 -11.7 -3.3 -11.75 -3.3 -11.85 -3.35 -11.9 -3.35 -12.0 -3.4 -12.05 -3.5 -12.1 -3.55 -12.1 -3.6 -12.15 -3.65 -12.1 -3.65 -12.0 -3.7 -11.95 -3.8 -11.9 -3.85 -11.85 -3.9 -11.75 -3.9 -11.7 Q-3.9 -11.65 -3.95 -11.6 L-4.0 -11.6 -4.1 -11.45 -4.15 -11.35 -4.25 -11.25 -4.25 -11.15 -4.2 -11.1 -4.2 -10.75 -4.25 -10.7 -4.25 -10.65 -4.3 -10.6 -4.3 -10.55 -4.4 -10.55 -4.45 -10.5 -4.7 -10.5 -4.8 -10.55 -5.05 -10.55 -5.25 -10.45 -5.25 -10.4 -5.3 -10.35 -5.3 -10.3 -5.35 -10.25 -5.35 -10.15 -5.4 -10.1 -5.45 -10.1 -5.5 -10.15 -5.5 -10.5 -5.45 -10.55 -5.45 -10.6 -5.4 -10.65 -5.4 -10.7 -5.3 -10.7 -5.15 -10.75 -4.55 -10.75 -4.45 -10.8 -4.4 -10.85 -4.4 -10.95 -4.45 -11.0 -4.45 -11.4 -4.4 -11.45 -4.4 -11.5 -4.3 -11.5 -4.2 -11.55 -4.2 -11.6 -4.15 -11.65 -4.15 -11.7 -4.0 -11.85 -4.0 -11.95 -3.95 -12.0" fill="#ffffff" fill-rule="evenodd" stroke="none"/>
  </g>
</svg>
