<?xml version="1.0" encoding="UTF-8" standalone="no"?>
<svg xmlns:ffdec="https://www.free-decompiler.com/flash" xmlns:xlink="http://www.w3.org/1999/xlink" ffdec:objectType="shape" height="22.9px" width="42.45px" xmlns="http://www.w3.org/2000/svg">
  <g transform="matrix(1.0, 0.0, 0.0, 1.0, 34.3, 32.35)">
    <path d="M0.35 -28.4 L0.65 -28.4 0.75 -28.35 0.85 -28.25 0.85 -28.2 0.9 -28.15 0.9 -28.1 0.95 -28.1 1.0 -28.0 1.0 -27.95 1.1 -27.9 1.1 -27.65 1.05 -27.55 1.05 -27.5 0.95 -27.5 0.9 -27.55 0.9 -27.75 0.85 -27.75 0.85 -27.8 0.8 -27.85 0.8 -27.9 0.75 -27.95 0.75 -28.0 0.7 -28.05 0.7 -28.1 0.65 -28.1 0.65 -28.2 0.35 -28.2 0.35 -28.15 0.3 -28.15 0.2 -28.1 -0.05 -28.05 -1.05 -28.1 -1.1 -28.05 -1.2 -28.05 -1.3 -28.0 -1.35 -27.95 -1.35 -27.9 -1.4 -27.85 -1.4 -27.8 -1.45 -27.75 -1.45 -27.7 -1.4 -27.65 -1.4 -27.6 -1.3 -27.5 -1.3 -27.2 -1.45 -27.05 -1.45 -27.0 -1.55 -26.9 -1.65 -26.9 -1.7 -26.85 -1.7 -26.8 -2.2 -26.75 -2.25 -26.75 -2.25 -26.8 -2.3 -26.85 -2.3 -26.9 -2.35 -26.95 -2.4 -26.95 -2.5 -27.05 -2.7 -27.15 -2.85 -27.15 -2.95 -27.05 -2.95 -27.0 -2.85 -26.9 Q-2.8 -26.85 -2.75 -26.8 L-2.7 -26.7 -2.7 -26.55 -2.65 -26.5 -2.65 -26.45 -2.6 -26.45 -2.7 -26.35 -2.65 -26.3 -2.65 -26.2 -2.6 -26.15 -2.6 -26.1 -2.55 -26.05 -2.55 -25.95 -2.5 -25.9 -2.5 -25.8 -2.45 -25.8 -2.45 -25.75 -2.4 -25.7 -2.4 -25.55 -2.35 -25.5 -2.35 -25.45 -2.2 -25.3 -2.2 -25.25 -2.1 -25.15 -2.1 -25.1 -2.0 -25.0 -2.1 -25.0 -2.15 -25.05 -2.25 -25.1 -2.3 -25.15 -2.4 -25.2 -2.45 -25.2 -2.5 -25.25 -2.5 -25.3 -2.55 -25.35 -2.55 -25.4 -2.6 -25.45 -2.6 -25.5 -2.65 -25.55 -2.65 -25.6 -2.7 -25.65 -2.7 -25.7 -2.75 -25.75 -2.75 -25.85 -2.8 -25.9 -2.8 -25.95 -2.85 -26.0 -2.85 -26.1 -2.9 -26.15 -2.9 -26.5 -3.0 -26.6 -3.0 -26.65 -3.05 -26.7 -3.05 -26.75 -3.1 -26.75 -3.15 -26.8 -3.2 -26.8 -3.2 -26.85 -3.25 -26.9 -3.35 -26.9 -3.4 -26.85 -3.4 -26.7 -3.45 -26.65 -3.85 -26.65 -3.85 -26.6 -3.8 -26.6 -3.9 -26.5 -4.0 -26.5 -4.1 -26.55 -4.15 -26.6 -4.65 -26.6 -4.75 -26.5 -4.8 -26.5 -5.15 -26.45 -5.2 -26.4 Q-5.7 -26.35 -6.2 -26.4 L-6.25 -26.45 -6.3 -26.45 -6.35 -26.5 -6.4 -26.5 -6.5 -26.6 -6.6 -26.6 -6.7 -26.7 -6.75 -26.7 -6.8 -26.75 -6.9 -26.8 -6.95 -26.85 -6.95 -26.95 -7.0 -27.0 -7.0 -27.15 -7.05 -27.2 -7.05 -27.35 -7.2 -27.5 -7.2 -27.7 -7.1 -27.8 -7.1 -27.85 -6.95 -28.0 -6.85 -28.05 -6.75 -28.15 -6.75 -28.2 Q-6.7 -28.2 -6.65 -28.2 L-6.6 -28.25 -6.55 -28.25 -6.45 -28.35 -6.45 -28.5 -6.5 -28.55 -6.5 -28.6 -6.55 -28.65 -6.55 -28.75 -6.65 -28.85 -6.65 -28.9 -6.7 -28.9 -6.7 -29.05 -6.55 -29.2 -6.45 -29.25 -5.85 -29.25 -5.8 -29.3 -5.8 -29.55 -5.9 -29.6 -6.0 -29.6 -6.1 -29.65 -6.15 -29.7 -6.15 -29.75 -6.1 -29.8 -6.05 -29.8 -6.05 -29.85 -6.0 -29.8 -5.8 -29.8 -5.8 -29.75 -5.75 -29.8 -5.75 -30.05 -5.8 -30.05 -5.8 -30.35 -5.75 -30.35 -5.7 -30.4 -5.65 -30.5 -5.55 -30.6 -5.45 -30.65 -5.4 -30.65 -5.3 -30.75 -5.25 -30.75 -5.25 -30.9 -5.2 -30.95 -5.2 -31.05 -5.1 -31.15 -5.1 -31.2 -5.05 -31.25 -5.05 -31.4 -5.1 -31.45 -5.2 -31.5 -5.2 -31.55 -5.35 -31.55 -6.05 -31.6 -6.1 -31.65 -6.05 -31.65 -6.0 -31.7 -5.4 -31.65 -5.35 -31.65 -5.15 -31.6 -5.15 -31.55 -5.05 -31.55 -5.0 -31.5 -5.0 -31.35 -4.95 -31.3 -4.95 -31.25 -4.9 -31.1 -4.9 -31.0 -4.95 -30.95 -4.95 -30.75 -5.0 -30.7 -5.0 -30.55 -5.05 -30.55 -5.2 -30.4 -5.3 -30.35 -5.3 -30.3 -5.4 -30.3 -5.5 -30.2 -5.45 -30.15 -5.45 -29.7 -5.5 -29.7 -5.5 -29.65 -5.55 -29.6 -5.55 -29.55 -5.6 -29.5 -5.6 -29.45 -5.55 -29.45 -5.55 -29.2 -5.6 -29.15 -5.7 -29.1 -5.7 -29.05 -5.9 -29.05 -6.4 -29.0 -6.4 -28.95 -6.35 -28.9 -6.35 -28.75 -6.3 -28.7 -6.3 -28.6 -6.25 -28.55 -6.25 -28.25 -6.3 -28.2 -6.3 -28.15 -6.4 -28.05 -6.5 -28.0 -6.55 -27.95 -6.55 -27.9 -6.6 -27.85 -6.65 -27.85 -6.7 -27.8 -6.8 -27.75 -6.85 -27.7 -6.85 -27.55 -6.8 -27.5 -6.8 -27.4 -6.7 -27.3 -6.7 -27.0 -6.45 -26.75 -6.45 -26.7 -6.25 -26.65 -6.15 -26.65 Q-5.7 -26.55 -5.25 -26.65 L-5.2 -26.65 -4.85 -26.7 -4.75 -26.8 -4.7 -26.8 Q-4.45 -26.85 -4.2 -26.9 L-4.05 -26.9 -4.0 -26.8 Q-3.75 -26.8 -3.6 -26.9 L-3.6 -26.95 -3.4 -27.15 -3.3 -27.2 -3.2 -27.2 -3.2 -27.3 -3.1 -27.4 -3.1 -27.45 -3.05 -27.5 -3.05 -27.55 -3.15 -27.6 -3.2 -27.65 -3.2 -27.7 -3.45 -27.75 -3.5 -27.75 -3.55 -27.8 -3.55 -28.3 -3.5 -28.35 -3.5 -28.4 -3.4 -28.4 -3.35 -28.45 -3.3 -28.4 -3.3 -28.35 -3.35 -28.3 -3.35 -27.95 -3.2 -27.95 -3.0 -27.85 -2.85 -27.7 -2.85 -27.5 -2.9 -27.45 -2.9 -27.4 -2.95 -27.3 -3.0 -27.25 -2.9 -27.3 -2.85 -27.35 -2.6 -27.3 -2.55 -27.25 -2.5 -27.25 -2.5 -27.2 -2.4 -27.1 -2.3 -27.05 -2.25 -27.05 -2.25 -27.0 -2.15 -26.9 -2.15 -26.85 -2.05 -26.85 -2.0 -26.9 -1.75 -26.95 -1.65 -27.05 -1.55 -27.05 -1.55 -27.1 -1.45 -27.2 -1.45 -27.3 -1.4 -27.35 -1.4 -27.4 -1.5 -27.5 -1.5 -27.55 -1.55 -27.6 -1.55 -27.75 -1.5 -27.8 -1.5 -27.95 -1.45 -28.0 -1.45 -28.05 -1.4 -28.1 -1.35 -28.1 -1.35 -28.15 -1.3 -28.15 -1.25 -28.2 -0.85 -28.2 -0.8 -28.25 -0.15 -28.25 -0.05 -28.3 0.1 -28.35 0.25 -28.35 0.3 -28.4 0.35 -28.4 M2.0 -27.2 L2.05 -27.2 2.05 -27.15 2.1 -27.1 Q2.15 -27.1 2.15 -27.05 L2.25 -27.05 2.25 -27.0 2.4 -26.85 2.4 -26.8 2.45 -26.75 2.4 -26.7 2.35 -26.7 2.15 -26.9 2.15 -26.95 2.05 -27.0 1.95 -27.1 1.95 -27.2 2.0 -27.2 M2.9 -25.5 L2.9 -24.95 2.95 -24.9 2.95 -24.85 3.0 -24.8 3.0 -24.6 3.05 -24.55 3.05 -24.35 3.1 -24.3 3.1 -24.15 3.15 -24.1 3.2 -24.1 3.25 -24.05 3.25 -24.0 3.3 -23.95 3.3 -23.8 3.25 -23.75 3.25 -23.7 3.2 -23.7 3.15 -23.65 3.0 -23.65 2.85 -23.7 2.65 -23.75 2.6 -23.7 2.6 -23.5 2.75 -23.35 2.75 -23.15 2.8 -23.15 2.8 -22.85 2.75 -22.8 Q2.8 -22.75 2.7 -22.7 L2.55 -22.5 2.5 -22.5 Q2.25 -22.45 1.95 -22.55 L2.45 -22.65 2.55 -22.75 2.55 -22.85 2.6 -22.9 2.6 -22.95 2.65 -23.0 2.6 -23.05 2.6 -23.25 2.45 -23.3 2.4 -23.35 2.45 -23.45 2.45 -23.75 2.5 -23.85 2.5 -23.9 2.6 -23.9 2.7 -23.85 2.85 -23.85 2.9 -23.8 3.05 -23.8 3.1 -23.85 3.1 -24.05 3.0 -24.15 3.0 -24.2 2.95 -24.25 2.95 -24.3 2.9 -24.35 2.9 -24.5 2.85 -24.55 2.85 -24.7 2.8 -24.8 2.8 -25.55 Q2.8 -25.6 2.85 -25.65 L2.9 -25.5 M0.0 -24.55 L0.0 -24.4 0.05 -24.35 0.05 -24.3 0.1 -24.25 0.2 -24.2 0.25 -24.25 0.25 -24.3 0.5 -24.3 0.6 -24.2 0.6 -24.05 0.55 -24.0 0.55 -23.95 0.65 -23.95 0.65 -23.85 0.6 -23.8 0.6 -23.55 0.5 -23.5 0.45 -23.45 0.45 -23.4 Q0.45 -23.3 0.4 -23.25 L0.2 -23.1 0.15 -23.05 -0.05 -23.0 -0.15 -23.0 -0.15 -22.75 -0.1 -22.7 -0.1 -22.6 -0.05 -22.55 -0.15 -22.55 -0.15 -22.65 -0.2 -22.7 -0.2 -23.1 -0.05 -23.1 0.05 -23.15 0.15 -23.25 0.2 -23.25 0.3 -23.3 0.35 -23.35 0.35 -23.55 0.4 -23.6 0.4 -23.65 0.45 -23.7 0.45 -23.95 0.25 -23.95 0.2 -24.0 0.2 -24.15 0.0 -24.15 -0.05 -24.2 -0.1 -24.2 -0.2 -24.3 -0.2 -24.9 -0.3 -25.0 -0.3 -25.1 -0.35 -25.15 -0.35 -25.2 -0.4 -25.2 -0.45 -25.25 -0.45 -25.3 -0.55 -25.3 -0.7 -25.45 -0.85 -25.45 -0.9 -25.4 -1.0 -25.35 -1.1 -25.25 -1.1 -25.2 -1.15 -25.2 -1.55 -25.15 -1.65 -25.1 -1.7 -25.1 -2.0 -25.15 -2.25 -25.4 -2.2 -25.4 -2.1 -25.3 -2.0 -25.25 -2.0 -25.2 -1.75 -25.2 -1.6 -25.35 -1.25 -25.4 -1.1 -25.55 -0.65 -25.55 -0.5 -25.4 -0.4 -25.35 -0.2 -25.15 -0.1 -25.1 -0.1 -25.0 -0.05 -24.95 -0.05 -24.85 0.0 -24.85 0.0 -24.75 0.05 -24.7 0.05 -24.65 0.0 -24.6 0.0 -24.55 M1.4 -22.85 L1.4 -22.9 1.65 -22.9 1.75 -22.8 1.75 -22.75 1.9 -22.75 1.9 -22.7 1.95 -22.65 1.65 -22.65 1.55 -22.75 1.45 -22.65 1.45 -22.4 1.3 -22.25 1.3 -22.15 1.15 -22.0 1.05 -21.95 1.0 -21.95 0.8 -21.75 0.8 -21.7 0.65 -21.7 0.55 -21.8 0.55 -21.95 0.5 -22.0 0.5 -22.05 0.4 -22.05 0.35 -22.0 0.2 -21.95 0.15 -21.95 0.15 -21.65 0.15 -21.6 0.1 -21.55 0.1 -21.35 -0.05 -21.2 Q-0.1 -21.2 -0.15 -21.15 L-0.2 -21.15 -0.3 -21.1 -0.35 -21.0 -0.45 -20.95 -0.45 -20.9 -0.6 -20.85 -0.75 -20.7 -0.75 -20.65 Q-1.0 -20.55 -1.25 -20.6 L-1.3 -20.65 -1.5 -20.65 -1.6 -20.7 -1.65 -20.75 -1.65 -20.8 -1.75 -20.85 -1.8 -20.9 Q-2.15 -21.0 -2.5 -20.95 L-2.6 -20.9 Q-2.55 -20.8 -2.5 -20.75 L-2.3 -20.55 -2.25 -20.55 -2.2 -20.5 -2.0 -20.5 -2.0 -20.55 -1.9 -20.6 -1.8 -20.5 -1.8 -20.35 -1.75 -20.35 -1.7 -20.3 -1.7 -20.25 -1.6 -20.2 -1.6 -20.15 -1.55 -20.1 -1.55 -20.0 -1.5 -20.0 -1.5 -19.9 -1.4 -19.8 -1.2 -19.8 -1.15 -19.85 -1.1 -19.8 -1.1 -19.65 -1.15 -19.6 -1.15 -19.55 -1.45 -19.55 -1.55 -19.65 -1.65 -19.65 -1.65 -19.8 -1.7 -19.85 -1.7 -20.0 -1.8 -20.05 -1.9 -20.15 -1.9 -20.25 -1.95 -20.3 -2.15 -20.3 -2.2 -20.35 -2.25 -20.35 -2.35 -20.4 Q-2.4 -20.5 -2.5 -20.55 L-2.6 -20.7 -2.7 -20.8 -2.7 -20.85 -2.8 -20.95 -2.85 -20.95 -2.85 -21.0 -2.95 -21.05 -3.05 -21.05 -3.15 -21.15 -3.15 -21.3 -3.05 -21.4 -3.0 -21.4 -3.0 -21.5 -2.9 -21.6 -2.85 -21.6 -2.85 -21.65 -2.9 -21.7 -2.9 -21.85 -3.05 -22.0 -3.25 -22.05 -3.45 -22.05 -3.5 -22.1 -3.5 -22.15 -3.6 -22.25 -3.6 -22.5 -3.75 -22.35 -3.8 -22.35 -3.8 -21.95 -3.9 -21.95 -3.9 -22.5 -3.85 -22.5 -3.85 -22.6 -3.8 -22.6 -3.8 -22.7 -3.75 -22.7 -3.75 -22.75 -3.6 -22.75 -3.55 -22.7 -3.45 -22.65 -3.4 -22.6 -3.4 -22.45 -3.35 -22.4 -3.35 -22.3 -3.2 -22.3 -3.1 -22.25 -3.05 -22.25 -2.95 -22.2 -2.85 -22.1 -2.8 -22.1 -2.7 -22.0 -2.7 -21.8 -2.65 -21.75 -2.65 -21.45 -2.7 -21.4 -2.75 -21.4 -2.8 -21.35 -2.8 -21.25 -2.85 -21.2 -2.8 -21.15 -2.8 -21.1 -2.65 -21.1 -2.55 -21.15 -2.0 -21.15 -1.7 -21.1 -1.6 -21.0 -1.5 -20.95 -1.5 -20.9 -1.45 -20.85 -1.25 -20.8 -1.05 -20.8 -1.0 -20.85 -0.9 -20.85 Q-0.85 -20.95 -0.75 -21.0 -0.65 -21.05 -0.55 -21.1 L-0.5 -21.15 -0.5 -21.2 -0.4 -21.3 -0.3 -21.3 -0.2 -21.35 -0.1 -21.35 0.0 -21.4 0.0 -21.45 0.05 -21.5 0.0 -21.55 0.0 -21.65 -0.05 -21.7 -0.05 -22.0 -0.1 -22.05 -0.1 -22.2 -0.05 -22.25 -0.05 -22.3 -0.1 -22.4 -0.1 -22.45 -0.05 -22.45 0.0 -22.4 0.0 -22.35 0.1 -22.15 0.15 -22.1 0.2 -22.15 0.35 -22.2 0.55 -22.2 0.65 -22.1 0.65 -22.05 0.75 -21.95 0.85 -22.05 0.85 -22.1 0.95 -22.1 1.15 -22.3 1.15 -22.35 1.2 -22.4 1.2 -22.45 1.25 -22.45 1.25 -22.5 1.35 -22.6 1.35 -22.75 1.3 -22.75 1.4 -22.85 M2.3 -20.4 L2.35 -20.35 2.5 -20.35 2.6 -20.25 2.65 -20.25 2.65 -20.2 2.7 -20.15 2.8 -20.15 2.85 -20.1 3.0 -20.05 3.1 -20.0 3.15 -20.0 3.3 -19.95 3.45 -19.95 3.5 -19.9 3.6 -19.9 3.65 -19.85 3.8 -19.85 4.0 -19.65 4.1 -19.6 4.15 -19.55 4.15 -19.5 4.2 -19.55 4.3 -19.45 4.3 -19.4 4.4 -19.3 4.4 -19.25 4.45 -19.2 4.5 -19.05 4.5 -18.7 4.4 -18.6 4.45 -18.55 4.4 -18.5 4.4 -18.45 4.45 -18.35 4.45 -18.05 4.35 -18.05 4.35 -18.15 4.3 -18.2 4.3 -18.3 4.25 -18.3 4.2 -18.35 4.2 -18.55 4.3 -18.65 4.3 -18.7 4.35 -18.75 4.35 -19.2 4.3 -19.25 4.3 -19.15 4.35 -19.1 4.2 -19.1 4.1 -19.15 4.1 -19.25 4.05 -19.3 4.0 -19.3 3.75 -19.55 3.65 -19.6 3.6 -19.65 3.55 -19.65 3.5 -19.7 Q3.4 -19.7 3.35 -19.75 L3.3 -19.75 3.1 -19.8 3.05 -19.8 2.9 -19.85 2.8 -19.9 2.7 -19.9 2.5 -20.0 2.45 -20.05 2.45 -20.15 2.35 -20.15 2.25 -20.2 2.2 -20.25 1.85 -20.25 1.85 -20.2 1.8 -20.15 1.8 -20.1 1.75 -20.1 1.75 -20.0 1.7 -19.95 1.7 -19.9 1.65 -19.85 1.65 -19.8 1.6 -19.75 1.6 -19.7 1.55 -19.65 1.55 -19.6 1.45 -19.5 1.35 -19.45 1.35 -19.4 1.3 -19.4 1.25 -19.35 1.2 -19.35 0.95 -19.3 0.55 -19.3 0.5 -19.35 0.3 -19.35 0.25 -19.4 0.25 -19.45 0.2 -19.45 0.2 -19.55 0.15 -19.6 0.15 -19.7 0.1 -19.75 0.05 -19.75 -0.1 -19.9 -0.2 -19.85 -0.5 -19.9 -0.5 -19.95 -0.2 -20.0 -0.1 -19.95 -0.05 -19.95 0.0 -19.9 0.05 -19.9 0.2 -19.75 0.2 -19.65 0.25 -19.6 0.25 -19.55 0.95 -19.55 1.1 -19.6 1.15 -19.6 1.35 -19.7 1.45 -19.8 1.45 -19.85 1.5 -19.9 1.5 -19.95 1.55 -20.0 1.55 -20.1 1.6 -20.1 1.6 -20.15 1.65 -20.2 1.65 -20.3 1.7 -20.35 1.7 -20.45 1.8 -20.45 1.8 -20.5 1.95 -20.45 2.0 -20.45 2.3 -20.4 M4.2 -19.45 L4.2 -19.45 M4.6 -18.2 L4.6 -18.25 4.65 -18.3 4.65 -18.35 4.7 -18.4 4.75 -18.4 4.75 -18.45 4.8 -18.5 4.8 -18.6 4.85 -18.65 4.85 -18.7 5.0 -18.75 5.15 -18.75 5.2 -18.8 5.3 -18.75 5.35 -18.7 5.4 -18.7 5.4 -18.65 5.6 -18.6 5.65 -18.65 5.8 -18.65 5.85 -18.7 6.0 -18.75 6.05 -18.75 Q6.05 -18.85 6.15 -18.9 6.2 -18.95 6.25 -19.05 L6.35 -19.15 6.35 -19.2 6.4 -19.25 6.4 -19.3 6.55 -19.4 6.7 -19.55 6.95 -19.6 7.1 -19.6 7.2 -19.5 7.0 -19.5 6.7 -19.45 6.55 -19.3 6.55 -19.25 6.4 -19.1 6.4 -19.0 6.35 -19.0 6.3 -18.95 6.1 -18.65 6.05 -18.6 5.8 -18.55 5.8 -18.5 5.6 -18.55 5.35 -18.6 5.35 -18.65 5.25 -18.7 5.15 -18.65 5.0 -18.65 4.95 -18.6 4.95 -18.55 4.9 -18.5 4.9 -18.45 4.85 -18.4 4.8 -18.4 4.75 -18.35 4.75 -18.25 4.65 -18.15 4.65 -18.1 4.55 -18.1 4.55 -18.15 4.6 -18.2 M7.25 -18.4 L7.15 -18.3 7.05 -18.25 7.0 -18.25 7.05 -18.3 7.05 -18.35 7.1 -18.4 7.1 -18.45 7.05 -18.5 7.15 -18.6 7.2 -18.6 7.2 -18.65 7.25 -18.65 7.3 -18.7 7.4 -18.7 7.6 -18.5 7.8 -18.5 7.8 -18.55 7.85 -18.6 7.85 -18.95 7.8 -19.0 7.75 -19.0 7.75 -19.15 7.55 -19.15 7.45 -19.25 7.45 -19.45 7.55 -19.55 7.65 -19.55 7.75 -19.5 7.8 -19.45 7.8 -19.4 7.85 -19.4 7.85 -19.25 7.95 -19.15 7.95 -19.1 8.0 -19.1 8.1 -19.0 8.1 -18.8 8.15 -18.75 8.15 -18.7 8.1 -18.6 8.1 -18.4 8.05 -18.4 8.05 -18.35 7.95 -18.25 7.45 -18.25 7.4 -18.3 7.4 -18.4 7.25 -18.4 M4.35 -17.9 L4.35 -17.85 4.3 -17.8 4.3 -17.75 4.35 -17.7 4.2 -17.7 4.2 -17.75 4.3 -17.85 4.3 -17.9 4.35 -17.95 4.4 -17.95 4.35 -17.9 M4.35 -17.05 L4.35 -16.8 Q4.35 -16.7 4.35 -16.6 L4.35 -16.55 4.4 -16.5 4.4 -16.45 4.45 -16.4 4.45 -16.1 4.4 -16.1 4.4 -16.0 4.25 -15.85 4.15 -15.85 4.0 -15.9 4.0 -15.95 3.95 -15.95 3.95 -16.0 4.0 -16.05 4.1 -16.1 4.15 -16.1 4.2 -16.15 4.2 -16.2 4.3 -16.3 4.3 -16.45 4.25 -16.5 4.25 -17.1 Q4.25 -17.2 4.3 -17.25 L4.35 -17.05 M3.8 -16.1 L3.8 -16.05 3.9 -16.0 3.95 -16.0 3.8 -15.95 3.75 -16.0 3.6 -16.0 3.35 -16.05 3.15 -16.15 3.1 -16.1 3.05 -16.1 3.05 -16.05 3.0 -16.0 3.0 -15.8 3.05 -15.75 3.05 -15.6 3.0 -15.55 2.9 -15.55 2.9 -15.6 2.85 -15.65 2.85 -15.7 2.75 -15.8 2.75 -16.1 2.8 -16.15 2.8 -16.2 2.85 -16.2 2.85 -16.3 2.9 -16.35 3.0 -16.4 3.25 -16.4 3.3 -16.35 3.3 -16.3 3.35 -16.25 3.4 -16.25 3.5 -16.2 3.55 -16.15 3.75 -16.1 3.8 -16.1 M0.05 -15.25 L0.1 -15.2 0.05 -15.15 0.05 -14.8 0.1 -14.75 0.1 -14.45 0.15 -14.4 0.15 -14.3 0.25 -14.25 0.3 -14.1 0.35 -14.0 0.45 -13.95 0.6 -13.9 0.65 -13.85 0.85 -13.8 0.9 -13.8 1.0 -13.75 1.0 -13.7 1.05 -13.65 1.25 -13.65 1.25 -13.6 1.3 -13.55 1.3 -13.5 1.35 -13.45 1.45 -13.45 1.55 -13.35 1.55 -13.4 1.65 -13.4 1.7 -13.45 1.7 -13.55 1.75 -13.6 1.75 -13.65 1.8 -13.7 1.9 -13.75 1.9 -13.9 1.95 -13.9 2.0 -13.95 2.1 -13.95 2.2 -14.0 2.25 -14.1 2.3 -14.15 2.35 -14.25 2.4 -14.4 Q2.45 -14.45 2.45 -14.5 L2.5 -14.55 2.5 -14.7 2.55 -14.75 2.55 -14.85 2.6 -14.85 2.7 -14.95 2.7 -14.9 2.65 -14.85 2.65 -14.75 2.6 -14.7 2.6 -14.55 2.55 -14.5 2.55 -14.45 2.45 -14.25 2.4 -14.25 2.35 -14.2 Q2.35 -14.1 2.3 -14.05 L2.2 -13.9 2.1 -13.8 2.05 -13.8 2.05 -13.75 2.0 -13.7 2.0 -13.45 1.9 -13.35 1.85 -13.25 1.8 -13.2 1.8 -13.15 1.7 -13.15 1.6 -13.05 1.5 -13.05 1.45 -13.1 1.4 -13.1 Q1.3 -13.15 1.25 -13.25 L1.1 -13.45 1.05 -13.45 1.05 -13.5 0.95 -13.55 0.85 -13.55 0.8 -13.6 0.6 -13.7 0.4 -13.7 0.4 -13.75 0.2 -13.8 0.15 -13.85 0.1 -13.95 0.0 -14.05 0.0 -14.15 -0.05 -14.15 -0.05 -14.25 -0.1 -14.3 -0.1 -14.65 -0.15 -14.7 -0.15 -15.2 -0.05 -15.25 0.05 -15.25 M2.3 -11.8 L2.35 -11.75 2.45 -11.7 2.5 -11.7 2.45 -11.65 2.4 -11.65 2.15 -11.7 2.05 -11.7 2.0 -11.75 Q1.95 -11.75 1.95 -11.8 L1.9 -11.8 1.95 -11.85 Q2.0 -11.85 2.05 -11.9 L2.1 -11.85 2.15 -11.85 2.3 -11.8 M2.7 -11.7 L2.8 -11.65 2.9 -11.65 3.0 -11.7 3.05 -11.75 3.3 -11.75 3.3 -11.7 3.5 -11.7 3.65 -11.55 3.65 -11.5 3.75 -11.4 3.75 -11.15 3.8 -11.1 3.8 -11.05 3.85 -11.0 3.85 -10.95 3.8 -10.9 3.8 -10.75 3.75 -10.7 3.75 -10.65 3.7 -10.6 3.7 -10.45 3.65 -10.4 3.65 -10.1 3.6 -10.05 3.6 -10.0 3.55 -9.95 3.55 -9.9 3.5 -9.85 3.5 -9.8 3.45 -9.75 3.25 -9.75 3.05 -9.8 3.05 -9.95 3.0 -10.0 2.95 -10.0 2.8 -9.95 2.7 -9.95 2.7 -10.1 2.75 -10.1 2.9 -10.25 3.1 -10.25 3.2 -10.15 3.2 -10.1 3.25 -10.1 3.25 -10.0 3.3 -10.0 3.45 -10.15 3.45 -10.25 3.5 -10.3 3.5 -10.35 3.55 -10.4 3.55 -10.45 3.6 -10.45 3.6 -10.5 3.65 -10.55 3.65 -10.9 3.6 -10.95 3.6 -11.0 3.55 -11.05 3.55 -11.25 3.6 -11.3 3.5 -11.4 3.5 -11.45 3.4 -11.55 3.25 -11.6 3.25 -11.65 3.05 -11.65 2.95 -11.6 2.95 -11.55 2.9 -11.55 2.9 -11.45 2.85 -11.4 2.85 -11.35 2.8 -11.3 2.6 -11.3 2.55 -11.35 2.5 -11.35 2.5 -11.6 2.55 -11.65 2.6 -11.65 2.7 -11.7 M1.2 -10.2 L1.25 -10.2 1.3 -10.15 1.3 -10.05 1.25 -10.0 1.25 -9.9 1.2 -9.85 1.2 -9.75 1.1 -9.65 1.1 -9.55 1.0 -9.45 0.95 -9.5 0.9 -9.5 0.9 -9.6 1.0 -9.7 1.0 -9.75 1.1 -9.85 1.1 -10.1 1.05 -10.15 1.05 -10.2 1.0 -10.25 0.85 -10.35 0.65 -10.35 0.6 -10.3 Q0.35 -10.2 0.05 -10.15 L0.0 -10.15 -0.35 -10.2 -0.45 -10.3 -0.45 -10.7 Q-0.45 -10.8 -0.4 -10.9 L-0.4 -10.95 -0.3 -11.05 -0.3 -11.1 -0.2 -11.1 -0.2 -10.95 -0.25 -10.9 -0.25 -10.85 -0.3 -10.7 -0.3 -10.4 -0.25 -10.35 -0.1 -10.3 Q0.0 -10.3 0.1 -10.3 L0.3 -10.3 0.35 -10.35 0.55 -10.4 0.6 -10.45 0.95 -10.5 1.15 -10.45 1.2 -10.4 1.2 -10.2 M-29.8 -22.7 L-29.75 -22.75 -29.75 -22.85 -29.55 -23.05 -29.45 -23.0 -29.45 -22.85 -29.5 -22.8 -29.5 -22.75 -29.55 -22.7 -29.55 -22.4 -29.5 -22.35 -29.5 -22.3 -29.45 -22.3 -29.45 -21.95 -29.55 -21.95 -29.65 -21.9 -29.7 -21.85 -29.9 -21.9 -29.9 -21.95 -29.75 -22.1 -29.7 -22.1 -29.65 -22.15 -29.65 -22.2 -29.7 -22.2 -29.75 -22.25 -29.75 -22.45 -29.8 -22.5 -29.8 -22.7 M-33.9 -20.45 L-33.85 -20.5 -33.85 -20.55 -33.65 -20.75 -32.9 -20.75 -32.85 -20.8 -32.8 -20.8 -32.55 -20.85 -32.35 -20.85 -32.2 -20.8 -32.15 -20.75 -32.15 -20.7 -32.2 -20.75 -32.75 -20.75 -32.75 -20.7 -32.9 -20.65 -33.15 -20.65 -33.45 -20.6 -33.6 -20.55 -33.65 -20.5 -33.7 -20.5 -33.7 -20.45 -33.75 -20.4 -33.75 -20.35 -33.8 -20.3 -33.8 -20.2 -33.9 -20.15 -33.9 -20.1 -33.95 -20.1 -34.05 -20.0 -34.1 -20.0 -34.2 -19.9 -34.3 -19.9 -34.1 -20.1 -34.1 -20.15 -33.9 -20.35 -33.9 -20.45 M-29.7 -21.0 L-29.5 -20.9 -29.5 -20.85 -29.45 -20.8 -29.45 -20.1 -29.5 -20.05 -29.5 -20.0 -29.2 -20.0 -29.15 -19.95 -29.15 -19.9 -29.1 -19.8 -29.0 -19.7 -29.0 -19.65 -28.9 -19.55 -28.9 -19.45 -28.85 -19.4 -28.85 -19.25 -28.8 -19.25 -28.6 -19.2 -28.45 -19.2 -28.4 -19.15 -28.4 -19.1 -28.45 -19.1 Q-28.65 -19.15 -28.85 -19.15 L-28.9 -19.2 -28.95 -19.2 -28.95 -19.4 -29.15 -19.6 -29.15 -19.7 -29.25 -19.75 -29.25 -19.8 -29.5 -19.8 -29.5 -19.75 -29.65 -19.6 -29.65 -19.35 -29.7 -19.3 -29.7 -19.2 -29.75 -19.15 -29.75 -19.1 -29.8 -19.0 -29.9 -18.9 -30.2 -18.9 -30.25 -18.95 -30.25 -19.0 -30.35 -19.0 -30.4 -18.95 -30.45 -18.95 -30.55 -19.0 -30.65 -19.0 -30.75 -19.1 -30.9 -19.1 -31.0 -19.2 -31.0 -19.4 -30.95 -19.45 -30.9 -19.45 -30.8 -19.5 -30.7 -19.45 -30.65 -19.4 -30.65 -19.35 -30.55 -19.25 -30.45 -19.25 -30.4 -19.2 -30.2 -19.2 -30.15 -19.15 -30.05 -19.1 -30.0 -19.1 -29.85 -19.25 -29.85 -19.35 -29.8 -19.4 -29.8 -19.45 -29.75 -19.5 -29.75 -19.55 -29.8 -19.6 -29.8 -19.75 -29.75 -19.8 -29.75 -19.85 -29.65 -19.95 -29.65 -20.1 -29.6 -20.1 -29.6 -20.75 -29.75 -20.75 -29.8 -20.7 -30.0 -20.7 -30.0 -20.75 -30.05 -20.8 -30.0 -20.85 -29.95 -20.85 -29.9 -20.9 -29.9 -20.95 -29.85 -20.95 -29.8 -21.0 -29.7 -21.0 M-32.1 -20.4 L-32.05 -20.35 -32.05 -20.2 -32.1 -20.15 -32.1 -20.0 -32.15 -19.95 -32.15 -19.9 -32.05 -19.8 -32.05 -19.75 -31.9 -19.6 -31.8 -19.55 -31.8 -19.45 -31.85 -19.4 -32.0 -19.35 -32.1 -19.4 -32.25 -19.4 -32.25 -19.45 -32.35 -19.55 -32.35 -19.6 -32.4 -19.65 -32.4 -19.8 -32.35 -19.9 -32.25 -19.95 -32.25 -20.0 -32.2 -20.05 -32.2 -20.15 -32.15 -20.2 -32.15 -20.35 -32.1 -20.4 M-31.5 -19.55 L-31.15 -19.5 -31.55 -19.55 -31.5 -19.55 M-7.05 -30.7 L-7.0 -30.65 -6.95 -30.65 -6.8 -30.55 -6.75 -30.55 -6.7 -30.5 -6.7 -30.45 -6.65 -30.4 -6.65 -30.3 -6.6 -30.25 -6.6 -30.05 -6.7 -30.05 -6.75 -30.1 -6.8 -30.1 -6.8 -30.2 -6.9 -30.3 -6.9 -30.35 -6.95 -30.4 -7.05 -30.45 -7.1 -30.45 -7.2 -30.5 -7.3 -30.5 -7.4 -30.45 -7.4 -30.4 -7.7 -30.4 -8.0 -30.25 -8.05 -30.2 -8.15 -30.15 -8.25 -30.15 -8.3 -30.1 -8.4 -30.05 -9.15 -30.1 -9.3 -30.25 -9.3 -30.3 -9.35 -30.35 -9.35 -30.4 -9.4 -30.45 -9.4 -30.65 -9.6 -30.75 -9.75 -30.75 -9.85 -30.7 -10.0 -30.65 -10.05 -30.65 -10.5 -30.7 -10.6 -30.7 -10.6 -30.75 -10.55 -30.8 -10.1 -30.9 -9.85 -30.95 -9.65 -31.05 -9.55 -31.05 -9.45 -30.95 -9.4 -30.95 -9.3 -30.9 -9.25 -30.85 -9.2 -30.85 -9.15 -30.8 -9.15 -30.55 -9.1 -30.5 -9.1 -30.4 -8.8 -30.35 -8.75 -30.3 -8.45 -30.3 -8.4 -30.35 -8.25 -30.35 -8.15 -30.4 -8.1 -30.4 -8.0 -30.45 -7.9 -30.55 -7.8 -30.6 -7.75 -30.65 -7.55 -30.65 -7.45 -30.7 -7.05 -30.7 M-9.3 -32.35 L-9.25 -32.35 -9.2 -32.3 -9.15 -32.3 -9.1 -32.25 -9.1 -32.15 -8.9 -32.15 -8.85 -32.1 -8.6 -32.05 -8.5 -32.05 -8.4 -32.0 -8.3 -31.9 -8.3 -31.85 -8.45 -31.85 Q-8.7 -31.8 -8.95 -31.9 L-9.2 -31.95 -9.4 -32.15 -9.5 -32.15 -9.75 -32.1 -9.85 -32.0 -9.85 -31.55 -9.9 -31.5 -9.9 -31.45 -9.95 -31.4 -9.95 -31.3 -10.05 -31.25 -10.1 -31.2 -10.1 -31.1 -10.2 -31.05 -10.25 -31.05 -10.35 -30.95 -10.5 -30.9 -10.5 -30.85 -10.85 -30.85 -10.85 -30.75 -10.8 -30.75 Q-10.8 -30.7 -10.85 -30.7 L-10.95 -30.7 -11.0 -30.75 -11.1 -30.8 -11.25 -30.8 -11.35 -30.7 -11.35 -30.65 -11.3 -30.65 -11.3 -30.5 -11.25 -30.45 -11.25 -30.2 -11.3 -30.15 -11.3 -30.1 -11.4 -30.1 -11.5 -30.05 -11.6 -29.95 -11.6 -29.9 -11.65 -29.85 -11.65 -29.55 Q-11.7 -29.45 -11.75 -29.4 L-11.9 -29.3 -12.0 -29.2 -12.1 -29.15 -12.15 -29.15 -12.2 -29.1 -12.3 -29.05 -12.4 -29.15 -12.5 -29.1 -12.8 -29.05 -13.1 -29.05 -13.15 -29.1 -13.2 -29.1 -13.25 -29.15 -13.5 -29.15 -13.55 -29.1 -13.55 -29.05 -13.6 -28.95 -13.6 -28.9 -13.55 -28.85 -13.55 -28.8 Q-13.5 -28.75 -13.55 -28.7 L-13.55 -27.95 -13.6 -27.9 -13.7 -27.9 -13.7 -27.7 -13.9 -27.5 -13.9 -27.3 -14.0 -27.3 -14.0 -27.35 -13.95 -27.4 -13.95 -27.5 -14.0 -27.5 -13.95 -27.55 -13.95 -27.75 -13.9 -27.8 -13.9 -28.0 -13.75 -28.15 -13.75 -28.7 -13.8 -28.8 -13.8 -28.85 -13.85 -28.95 -13.85 -29.05 -13.65 -29.25 -13.55 -29.3 -13.15 -29.3 -13.05 -29.25 -12.8 -29.25 -12.55 -29.3 -12.45 -29.35 -12.2 -29.35 -12.2 -29.4 -12.15 -29.45 -12.05 -29.5 -12.0 -29.55 -12.0 -29.6 -11.9 -29.65 -11.9 -30.0 -11.85 -30.1 -11.7 -30.25 -11.65 -30.25 -11.6 -30.3 -11.5 -30.3 -11.5 -30.35 -11.55 -30.4 -11.55 -30.5 -11.6 -30.55 -11.6 -30.85 -11.55 -30.9 -11.45 -30.95 -11.35 -31.05 -11.05 -31.05 -11.0 -31.0 -10.95 -31.0 -10.95 -30.95 -10.9 -30.95 -10.85 -30.9 -10.65 -30.95 -10.55 -31.0 -10.5 -31.05 -10.35 -31.05 -10.3 -31.1 -10.25 -31.2 -10.15 -31.3 -10.15 -31.4 -10.1 -31.45 -10.1 -31.5 -10.05 -31.55 -10.05 -32.1 -10.0 -32.15 -10.0 -32.2 -9.9 -32.3 -9.75 -32.3 -9.55 -32.35 -9.3 -32.35 M-14.35 -26.9 L-14.5 -26.85 -14.6 -26.75 -14.8 -26.75 -14.8 -26.9 -14.75 -26.85 -14.6 -26.9 -14.4 -26.95 -14.35 -27.0 -14.25 -26.95 -14.35 -26.9 M-14.1 -23.3 Q-13.95 -23.25 -13.85 -23.15 L-13.7 -23.0 -13.7 -22.9 -13.8 -22.8 -13.85 -22.7 -13.95 -22.65 -13.95 -22.6 -14.0 -22.55 -13.95 -22.5 -13.95 -22.1 -13.85 -22.05 -13.75 -22.05 -13.4 -22.1 -13.2 -22.1 -13.15 -22.05 -13.05 -22.05 -13.0 -22.1 -12.8 -22.1 -12.55 -22.35 -12.5 -22.35 -12.4 -22.45 -12.35 -22.45 -12.35 -22.5 -12.3 -22.55 -12.3 -22.6 -12.25 -22.6 -12.25 -22.65 -12.1 -22.6 -12.05 -22.6 -11.9 -22.55 -11.85 -22.5 -11.75 -22.45 -11.7 -22.45 -11.6 -22.35 -11.6 -22.3 -11.55 -22.25 -11.55 -21.7 -11.4 -21.55 -11.4 -21.5 -11.35 -21.5 -11.3 -21.55 -11.3 -21.6 -11.25 -21.65 -11.05 -21.65 -10.9 -21.5 -10.9 -21.45 -10.8 -21.35 -10.8 -21.25 -10.75 -21.25 -10.75 -21.15 -10.7 -21.05 -10.7 -20.95 Q-10.75 -20.85 -10.75 -20.8 L-10.75 -20.75 -10.7 -20.7 -10.7 -20.55 -10.75 -20.5 -10.75 -20.45 -10.8 -20.4 -10.8 -20.25 Q-10.8 -20.2 -10.85 -20.2 L-10.85 -20.55 -10.9 -20.6 -10.9 -20.7 -10.95 -20.75 -10.95 -21.0 -11.05 -21.05 -11.05 -21.25 -11.0 -21.25 -11.05 -21.3 -11.05 -21.35 -11.15 -21.45 -11.15 -21.4 -11.2 -21.35 -11.2 -21.3 -11.25 -21.3 -11.25 -21.25 -11.45 -21.25 -11.55 -21.35 -11.55 -21.4 -11.6 -21.4 -11.75 -21.55 -11.75 -22.15 -11.8 -22.2 -11.8 -22.25 -11.85 -22.3 -11.95 -22.35 -12.25 -22.35 -12.35 -22.3 -12.4 -22.25 -12.4 -22.2 -12.5 -22.1 -12.55 -22.1 -12.55 -21.95 -12.6 -21.95 -12.6 -21.9 -12.85 -21.9 -12.95 -21.95 -13.0 -21.9 -13.35 -21.9 -13.35 -21.85 -13.7 -21.85 -13.75 -21.8 -13.9 -21.85 -13.95 -21.85 -14.1 -21.9 -14.15 -21.95 -14.15 -22.25 -14.1 -22.3 -14.1 -22.4 -14.15 -22.45 -14.15 -22.5 -14.2 -22.55 -14.2 -22.65 -14.15 -22.65 -14.15 -22.7 -14.05 -22.8 -14.05 -22.85 -13.95 -22.95 -13.95 -23.0 -14.0 -23.05 -14.05 -23.05 -14.15 -23.1 -14.3 -23.2 -14.35 -23.15 -14.6 -23.1 -14.9 -23.1 -15.0 -23.2 -15.0 -23.35 -15.05 -23.35 -15.1 -23.4 -15.1 -23.45 -15.2 -23.55 -15.2 -23.75 -15.25 -23.8 -15.25 -23.85 -15.2 -23.85 -15.15 -23.8 -15.05 -23.65 -14.9 -23.55 Q-14.85 -23.5 -14.85 -23.4 L-14.85 -23.35 -14.8 -23.35 -14.8 -23.3 -14.45 -23.35 -14.4 -23.4 -14.2 -23.35 -14.15 -23.35 -14.1 -23.3 M-11.25 -20.05 Q-11.1 -20.1 -10.95 -20.15 L-10.9 -20.15 -10.85 -20.1 -10.9 -20.1 -10.9 -20.0 -10.95 -19.95 -10.95 -19.9 -11.15 -19.85 -11.15 -19.3 -11.2 -19.25 -11.2 -19.2 -11.25 -19.15 -11.25 -19.0 -11.35 -18.85 -11.45 -18.65 -11.5 -18.6 -11.75 -18.55 -11.9 -18.6 -12.15 -18.35 -12.15 -18.3 -12.2 -18.25 -12.2 -18.05 -12.25 -18.0 -12.25 -17.9 -12.3 -17.85 -12.3 -17.65 -12.35 -17.6 -12.35 -17.35 -12.4 -17.35 -12.4 -17.25 -12.45 -17.2 -12.45 -17.15 -12.5 -17.1 -12.55 -17.1 -12.6 -17.05 -12.95 -17.05 -13.05 -16.95 -13.05 -16.85 -13.0 -16.8 -12.85 -16.8 -12.8 -16.75 -12.8 -16.55 -12.85 -16.5 -12.85 -16.45 -12.8 -16.45 -12.8 -16.4 -12.75 -16.35 -12.75 -16.15 -12.7 -16.2 -12.6 -16.2 -12.5 -16.25 -12.3 -16.25 -12.3 -16.15 -12.2 -16.05 -12.2 -15.95 -12.15 -15.95 -12.15 -15.9 -12.1 -15.85 -12.1 -15.8 -12.0 -15.75 -11.9 -15.65 -11.75 -15.6 -11.65 -15.5 -11.5 -15.5 -11.4 -15.55 -11.4 -15.7 -11.35 -15.75 -11.3 -15.85 -11.3 -16.2 -11.25 -16.2 -11.25 -16.25 Q-11.1 -16.3 -10.95 -16.35 L-10.65 -16.45 -10.6 -16.45 -10.8 -16.25 -11.0 -16.15 -11.05 -16.1 -11.15 -16.1 -11.15 -16.05 -11.2 -15.95 -11.2 -15.8 -11.15 -15.75 -11.15 -15.7 -11.2 -15.65 -11.2 -15.6 -11.25 -15.55 -11.25 -15.5 -11.35 -15.4 -11.4 -15.4 -11.5 -15.35 -11.55 -15.3 -11.65 -15.3 -11.7 -15.35 -11.8 -15.4 -11.85 -15.45 -12.0 -15.5 -12.05 -15.55 -12.15 -15.6 -12.35 -15.8 -12.35 -15.9 -12.4 -15.95 -12.4 -16.1 -12.55 -16.1 Q-12.6 -16.05 -12.65 -16.05 L-12.65 -16.0 -12.7 -15.95 -12.8 -15.95 -12.8 -15.9 Q-12.85 -15.8 -12.85 -15.75 L-12.85 -15.7 -12.9 -15.7 -12.9 -15.85 -13.0 -15.8 -13.0 -15.75 -13.05 -15.75 -13.1 -15.7 -13.15 -15.7 -13.25 -15.65 -13.35 -15.55 -13.35 -15.4 -13.4 -15.4 -13.4 -15.3 -13.3 -15.3 -13.2 -15.4 -12.95 -15.45 -12.75 -15.45 -12.7 -15.5 -12.6 -15.5 -12.5 -15.55 -12.4 -15.55 -12.35 -15.5 Q-12.2 -15.45 -12.1 -15.4 L-12.0 -15.35 -12.0 -15.3 -11.95 -15.25 -11.95 -14.95 -11.9 -14.9 -11.9 -14.15 -11.95 -14.15 -11.95 -14.05 -12.05 -14.05 -12.1 -14.1 -12.1 -14.65 -12.15 -14.6 -12.2 -14.65 -12.2 -14.8 -12.1 -14.8 -12.1 -14.95 -12.05 -15.0 -12.05 -15.15 -12.1 -15.15 -12.1 -15.2 -12.15 -15.25 Q-12.25 -15.35 -12.45 -15.4 L-12.55 -15.4 -12.6 -15.35 -12.6 -15.3 -12.65 -15.3 -12.8 -15.25 -12.85 -15.25 -13.15 -15.15 -13.2 -15.15 -13.2 -15.1 -13.35 -15.1 -13.4 -15.05 -13.5 -15.05 -13.6 -15.15 -13.6 -15.4 -13.55 -15.45 -13.55 -15.7 -13.5 -15.7 -13.45 -15.75 -13.45 -15.8 -13.4 -15.85 -13.15 -15.95 -13.0 -15.95 -12.9 -16.0 -12.9 -16.3 -12.85 -16.35 -12.9 -16.35 -12.9 -16.5 -12.95 -16.55 -12.95 -16.6 -13.1 -16.65 -13.15 -16.65 -13.25 -16.75 -13.25 -17.0 -13.2 -17.05 -13.2 -17.15 -13.15 -17.15 -13.0 -17.3 -12.65 -17.35 -12.65 -17.45 -12.55 -17.55 -12.55 -17.65 -12.4 -17.8 -12.4 -18.05 -12.35 -18.1 -12.35 -18.25 -12.3 -18.35 -12.2 -18.45 -12.2 -18.7 -12.15 -18.75 -12.1 -18.75 -12.1 -18.85 -11.85 -18.85 -11.85 -18.8 -11.75 -18.75 -11.55 -18.75 -11.45 -18.85 -11.45 -18.9 -11.4 -18.95 -11.4 -19.0 -11.35 -19.05 -11.35 -19.95 -11.25 -20.05 M-10.1 -19.65 L-10.1 -19.55 -10.05 -19.5 -10.05 -19.15 -10.1 -19.1 -10.15 -19.1 -10.2 -19.0 -10.35 -18.85 -10.35 -18.75 -10.4 -18.75 -10.4 -18.55 -10.35 -18.55 -10.2 -18.4 -10.15 -18.4 -10.15 -18.2 -10.1 -18.15 -10.2 -18.15 -10.2 -18.1 -10.25 -18.05 -10.25 -17.85 -10.3 -17.8 -10.35 -17.7 -10.4 -17.65 -10.4 -17.55 -10.45 -17.55 -10.45 -17.6 -10.5 -17.65 -10.5 -17.8 -10.45 -17.8 -10.45 -17.9 -10.4 -17.95 -10.4 -18.2 -10.35 -18.25 -10.45 -18.25 -10.5 -18.3 -10.6 -18.3 -10.6 -18.45 -10.65 -18.5 -10.65 -18.6 -10.55 -18.7 -10.55 -18.85 -10.4 -19.0 -10.4 -19.1 -10.35 -19.15 -10.35 -19.2 -10.3 -19.2 -10.3 -19.25 -10.25 -19.3 -10.25 -19.45 -10.3 -19.5 -10.4 -19.5 -10.5 -19.4 -10.55 -19.4 -10.55 -19.35 -10.8 -19.4 -10.9 -19.45 -11.05 -19.6 -11.05 -19.7 -11.1 -19.75 -11.1 -19.8 -11.0 -19.85 -10.9 -19.75 -10.9 -19.7 -10.8 -19.65 -10.7 -19.55 -10.6 -19.55 -10.55 -19.6 -10.55 -19.7 -10.45 -19.7 -10.45 -19.75 -10.25 -19.75 -10.2 -19.7 -10.2 -19.65 -10.1 -19.65 M-3.05 -27.2 L-3.05 -27.2 M-27.8 -19.1 L-27.8 -19.15 -27.4 -19.15 -27.35 -19.1 -27.05 -19.1 -26.95 -19.05 -26.85 -18.95 -26.8 -18.95 -26.75 -18.85 -26.8 -18.8 -26.8 -18.65 -26.85 -18.6 -26.8 -18.6 -26.75 -18.6 -26.6 -18.75 -26.55 -18.75 -26.55 -18.8 -26.4 -18.8 -26.3 -18.75 -26.25 -18.7 -26.15 -18.65 -26.1 -18.6 -26.1 -18.55 -25.95 -18.4 -25.8 -18.35 -25.65 -18.35 -25.55 -18.3 -25.5 -18.25 -25.5 -18.2 -25.45 -18.15 -25.45 -17.95 -25.5 -17.9 -25.4 -17.8 -25.25 -17.8 -25.25 -17.9 -25.2 -18.0 -25.2 -18.05 Q-25.1 -18.05 -25.1 -18.1 L-25.05 -18.15 -25.05 -18.25 -24.9 -18.4 -24.8 -18.45 -24.7 -18.55 -24.55 -18.6 -24.35 -18.65 -24.25 -18.7 -24.05 -18.7 -24.3 -18.45 -24.4 -18.4 -24.45 -18.4 -24.55 -18.35 -24.6 -18.3 -24.7 -18.25 -24.75 -18.2 -24.85 -18.15 -24.9 -18.1 -24.9 -18.0 -24.85 -17.95 -24.85 -17.8 -24.9 -17.75 -25.0 -17.7 -25.15 -17.7 -25.2 -17.75 -25.6 -17.8 -25.65 -17.85 -25.65 -17.95 -25.6 -18.0 -25.6 -18.05 -25.65 -18.1 -25.65 -18.15 -25.85 -18.25 -26.0 -18.3 -26.05 -18.3 -26.05 -18.4 -26.15 -18.45 -26.15 -18.5 -26.2 -18.55 -26.25 -18.55 -26.35 -18.6 -26.5 -18.6 -26.6 -18.55 -26.65 -18.5 -26.65 -18.45 -26.85 -18.45 -26.9 -18.5 -27.05 -18.45 -27.1 -18.45 -27.5 -18.4 -27.85 -18.4 -27.95 -18.35 -27.95 -18.3 -28.0 -18.2 -28.0 -17.85 -28.05 -17.8 -28.05 -17.7 -28.1 -17.7 -28.1 -17.65 -28.2 -17.65 -28.2 -17.9 -28.15 -17.95 -28.15 -18.1 -28.2 -18.15 -28.2 -18.25 -28.15 -18.3 -28.1 -18.3 -28.1 -18.45 -28.05 -18.45 -28.0 -18.5 -27.8 -18.5 -27.75 -18.45 -27.55 -18.45 -27.5 -18.5 -27.1 -18.5 -27.05 -18.55 -26.95 -18.6 -26.9 -18.6 -26.9 -18.75 -27.1 -18.85 -27.5 -18.9 -27.55 -18.95 -27.55 -19.0 -27.6 -19.05 -27.8 -19.1 M-28.25 -19.2 L-28.25 -19.15 -28.3 -19.1 -28.4 -19.1 -28.25 -19.25 -28.25 -19.2 M-23.75 -20.6 L-23.8 -20.7 -23.75 -20.75 -23.75 -20.8 -23.6 -20.8 -23.5 -20.75 -23.5 -20.7 -23.45 -20.65 -23.45 -20.5 -23.5 -20.4 -23.5 -20.3 -23.55 -20.25 -23.65 -20.25 -23.7 -20.3 -23.7 -20.4 -23.75 -20.45 -23.75 -20.6 M-24.1 -18.8 L-24.1 -18.85 -24.05 -18.9 -24.05 -19.4 -24.1 -19.45 -24.1 -19.5 -24.05 -19.55 -24.0 -19.5 -24.0 -19.45 -23.95 -19.4 -23.95 -18.85 -24.05 -18.75 -24.1 -18.75 -24.1 -18.8 M-18.15 -15.05 L-18.1 -15.0 -18.1 -14.9 -18.0 -14.8 -18.0 -14.75 -17.9 -14.65 -17.85 -14.55 -17.85 -13.8 -17.9 -13.8 -17.9 -13.7 -18.0 -13.5 Q-18.1 -13.4 -18.2 -13.35 L-18.3 -13.3 -18.3 -13.25 Q-18.4 -13.15 -18.55 -13.15 L-18.85 -13.2 -19.0 -13.25 -19.15 -13.4 -19.25 -13.45 -19.3 -13.45 -19.35 -13.5 -19.45 -13.55 -19.65 -13.55 -19.65 -13.5 Q-19.7 -13.45 -19.75 -13.45 L-19.8 -13.4 -19.9 -13.4 -20.0 -13.35 -20.0 -13.3 Q-20.15 -13.25 -20.4 -13.25 L-20.5 -13.2 -20.55 -13.15 -20.55 -13.1 -20.65 -13.1 -20.7 -13.05 -20.7 -13.0 -20.75 -12.95 -20.75 -12.9 -20.7 -12.85 -20.5 -12.85 -20.45 -12.8 -20.45 -12.7 -20.35 -12.6 -20.35 -12.15 -20.3 -12.1 Q-20.3 -12.05 -20.3 -11.95 L-20.3 -11.8 -20.25 -11.85 -20.25 -11.9 -20.0 -12.15 -19.9 -12.15 -19.9 -12.2 -19.8 -12.3 -19.75 -12.3 -19.75 -12.35 -19.55 -12.35 -19.35 -12.15 -19.3 -12.15 -19.1 -12.05 -19.0 -12.05 -18.7 -12.0 -18.5 -11.95 -18.5 -11.9 -18.65 -11.9 -18.7 -11.85 -19.15 -11.85 -19.2 -11.9 -19.35 -11.95 -19.35 -12.0 -19.5 -12.1 -19.6 -12.15 -19.65 -12.15 -19.7 -12.1 -19.75 -12.1 -19.85 -12.0 Q-19.9 -11.95 -19.95 -11.95 L-20.05 -11.85 -20.05 -11.75 -20.1 -11.75 -20.2 -11.65 -20.2 -11.6 -20.3 -11.6 -20.3 -11.55 -20.35 -11.5 -20.35 -11.45 -20.4 -11.4 -20.4 -11.35 -20.45 -11.3 -20.45 -11.25 -20.5 -11.2 -20.5 -11.15 -20.85 -11.15 -20.9 -11.2 -20.9 -11.25 -21.2 -11.25 -21.25 -11.3 -21.05 -11.5 -20.8 -11.5 -20.7 -11.4 -20.6 -11.45 -20.6 -11.5 -20.55 -11.55 -20.55 -11.65 -20.5 -11.7 -20.5 -11.95 -20.55 -12.0 -20.55 -12.45 -20.6 -12.5 -20.6 -12.55 -21.0 -12.65 -21.05 -12.7 -21.05 -12.95 -21.0 -13.0 -21.0 -13.05 -20.95 -13.05 -20.95 -13.1 -20.9 -13.15 -20.8 -13.2 -20.65 -13.3 -20.55 -13.3 -20.45 -13.4 -20.1 -13.4 -20.05 -13.45 -19.95 -13.45 -19.85 -13.55 -19.75 -13.6 -19.7 -13.65 -19.4 -13.7 -19.3 -13.75 -19.15 -13.7 -19.05 -13.65 -18.85 -13.45 -18.75 -13.4 -18.7 -13.4 -18.55 -13.35 -18.4 -13.35 -18.35 -13.4 -18.3 -13.4 -18.3 -13.5 -18.15 -13.65 -18.1 -13.65 -18.05 -13.7 Q-18.05 -13.75 -18.0 -13.75 L-18.0 -13.8 -17.95 -13.85 -17.95 -14.2 -18.0 -14.25 -18.0 -14.4 -18.05 -14.45 -18.05 -14.5 -18.15 -14.55 -18.2 -14.65 -18.2 -14.7 -18.3 -14.8 -18.3 -15.0 -18.25 -15.05 -18.15 -15.05 M-21.6 -16.4 L-21.8 -16.4 -21.9 -16.3 -22.0 -16.3 -22.15 -16.15 -22.25 -16.15 -22.25 -16.05 -22.3 -16.0 -22.3 -15.95 -22.35 -15.9 -22.25 -15.8 -22.25 -15.75 -22.15 -15.65 -22.15 -15.55 -22.1 -15.5 -22.1 -15.4 -22.05 -15.35 -22.05 -15.3 -22.0 -15.25 -22.0 -15.1 -21.95 -15.05 -21.9 -15.05 -21.85 -15.0 -21.85 -14.75 -21.95 -14.7 -22.05 -14.6 -22.05 -14.5 -22.65 -14.5 -22.7 -14.45 -22.7 -14.4 -22.75 -14.35 -22.75 -14.15 -22.65 -14.05 -22.65 -14.0 -22.55 -13.9 -22.55 -13.65 -22.6 -13.65 -22.6 -13.45 -22.85 -13.2 -22.9 -13.2 -22.95 -13.15 -22.95 -13.1 -23.1 -13.1 -23.2 -13.0 -23.3 -12.95 -23.35 -12.9 -23.4 -12.9 -23.35 -12.95 -23.35 -13.0 -23.3 -13.05 -23.25 -13.15 -23.2 -13.2 -23.15 -13.2 -22.95 -13.3 -22.85 -13.4 -22.85 -13.45 -22.8 -13.55 -22.75 -13.55 -22.75 -13.75 -22.8 -13.8 -22.8 -13.9 -22.9 -13.95 -22.95 -14.0 -22.95 -14.35 -22.9 -14.4 -22.9 -14.45 -22.85 -14.5 -22.85 -14.6 -22.75 -14.7 -22.35 -14.7 -22.3 -14.65 -22.2 -14.7 -22.0 -14.9 -22.0 -15.0 -22.15 -15.15 -22.15 -15.25 -22.2 -15.3 -22.2 -15.4 -22.25 -15.45 -22.25 -15.55 -22.35 -15.65 -22.35 -15.8 -22.4 -15.85 -22.4 -15.95 -22.35 -16.0 -22.35 -16.05 -22.3 -16.1 -22.3 -16.2 -22.25 -16.2 -22.15 -16.25 -22.1 -16.3 -22.1 -16.35 -22.05 -16.4 -21.95 -16.45 -21.9 -16.45 -21.85 -16.5 Q-21.8 -16.5 -21.8 -16.55 L-21.45 -16.55 -20.95 -16.5 -20.95 -16.45 -21.45 -16.45 -21.6 -16.4 M-22.15 -13.05 L-22.05 -12.95 -22.0 -12.85 -21.9 -12.75 -21.9 -12.7 -21.85 -12.65 -21.85 -12.6 -21.9 -12.6 -21.95 -12.55 -22.0 -12.6 -22.1 -12.6 -22.35 -12.85 -22.45 -12.9 -22.5 -12.9 -22.65 -12.75 -22.75 -12.75 -22.85 -12.7 -22.95 -12.7 -22.95 -12.65 -23.15 -12.65 -23.3 -12.7 -23.5 -12.7 -23.55 -12.75 -23.7 -12.75 -23.8 -12.7 -23.85 -12.65 -23.85 -12.6 -23.9 -12.6 -23.95 -12.55 -24.0 -12.55 -24.05 -12.5 -24.15 -12.5 -24.35 -12.6 -24.45 -12.6 -24.55 -12.7 -24.6 -12.8 -24.65 -12.85 -24.65 -13.1 -24.8 -13.15 -24.85 -13.2 -24.85 -13.25 -24.9 -13.3 -25.0 -13.35 -25.0 -13.4 -25.1 -13.45 -25.1 -13.5 -25.2 -13.6 -25.2 -13.65 -25.35 -13.7 -25.4 -13.75 -25.45 -13.7 -25.55 -13.8 -25.6 -13.8 -25.6 -13.85 -25.7 -13.95 -25.7 -14.0 -25.75 -14.05 -25.85 -14.1 -26.0 -14.15 -26.15 -14.15 -26.15 -14.2 Q-26.25 -14.25 -26.3 -14.25 L-26.45 -14.25 -26.55 -14.2 -26.6 -14.2 -26.8 -14.15 -26.85 -14.1 -26.85 -14.05 -26.95 -14.05 -27.05 -13.95 -27.2 -13.95 -27.3 -14.05 -27.5 -14.1 -27.55 -14.15 -27.65 -14.2 -27.7 -14.25 -27.75 -14.25 -27.75 -14.7 -27.7 -14.8 -27.55 -14.95 -27.4 -15.05 -27.4 -15.15 -27.45 -15.2 -27.5 -15.3 -27.5 -15.4 -27.55 -15.45 -27.55 -16.05 -27.5 -16.1 -27.5 -16.25 -27.4 -16.35 -27.4 -16.4 -27.35 -16.45 -27.35 -16.5 -27.5 -16.5 -27.55 -16.55 -27.65 -16.55 -27.75 -16.65 -27.75 -16.7 -27.65 -16.7 -27.6 -16.65 -27.5 -16.6 -27.45 -16.6 -27.3 -16.55 -27.3 -16.4 -27.35 -16.35 -27.35 -16.25 -27.4 -16.2 -27.4 -16.1 -27.35 -16.05 -27.4 -16.0 -27.4 -15.45 -27.3 -15.35 -27.3 -15.25 -27.25 -15.2 -27.25 -15.05 -27.2 -15.05 -27.2 -14.85 -27.3 -14.75 -27.3 -14.7 -27.4 -14.7 -27.4 -14.65 -27.45 -14.6 -27.45 -14.45 -27.5 -14.45 -27.45 -14.4 -27.45 -14.35 -27.35 -14.25 -27.2 -14.2 -27.1 -14.2 -26.8 -14.35 -26.6 -14.4 -26.35 -14.4 -26.15 -14.3 -26.1 -14.25 -25.85 -14.25 -25.65 -14.2 -25.6 -14.15 -25.6 -14.1 -25.5 -14.0 -25.5 -13.95 -25.45 -13.9 -25.35 -13.9 -25.3 -13.85 -25.25 -13.85 -25.15 -13.8 -24.7 -13.35 -24.65 -13.35 -24.55 -13.3 -24.4 -13.15 -24.4 -12.95 -24.3 -12.85 -24.1 -12.8 -24.05 -12.8 -24.0 -12.85 -23.95 -12.85 -23.85 -12.95 -23.75 -13.0 -23.55 -13.0 -23.45 -12.95 -23.45 -12.9 -23.4 -12.85 -23.35 -12.85 -23.4 -12.8 -23.4 -12.75 -23.3 -12.85 -23.1 -12.85 -23.05 -12.9 -23.0 -12.9 -22.95 -12.95 -22.9 -12.95 -22.8 -13.0 -22.8 -13.05 -22.75 -13.1 -22.65 -13.1 -22.6 -13.15 -22.3 -13.15 -22.25 -13.1 -22.2 -13.1 -22.15 -13.05 M-15.4 -12.8 L-15.05 -12.8 -14.85 -12.65 -14.65 -12.55 -14.5 -12.5 -14.45 -12.5 -14.0 -12.4 -13.8 -12.45 -13.4 -12.45 -13.3 -12.5 -13.25 -12.55 -13.0 -12.6 -12.95 -12.65 -12.95 -12.7 -12.9 -12.75 -12.75 -12.8 -12.65 -12.85 -12.6 -12.9 -12.25 -12.9 -12.1 -13.05 -12.1 -13.1 -12.05 -13.15 -12.05 -13.2 -12.0 -13.25 -12.0 -13.3 -11.9 -13.4 -11.85 -13.4 -11.85 -13.05 -11.95 -12.85 -12.0 -12.8 -12.1 -12.75 Q-12.15 -12.7 -12.25 -12.7 L-12.55 -12.7 -12.65 -12.65 -12.9 -12.4 -13.75 -12.3 -13.8 -12.3 -14.75 -12.4 -14.85 -12.5 -15.0 -12.5 -15.1 -12.55 -15.3 -12.55 -15.4 -12.45 -15.45 -12.35 Q-15.5 -12.3 -15.55 -12.3 L-16.1 -12.3 -16.1 -12.4 -16.15 -12.45 -16.15 -12.5 -16.25 -12.6 -16.35 -12.5 -16.85 -12.5 -17.1 -12.25 -17.1 -12.2 -17.15 -12.15 -17.25 -12.15 -17.25 -12.2 -17.15 -12.3 -17.15 -12.35 -17.05 -12.45 -17.0 -12.55 -16.85 -12.7 -16.8 -12.7 -16.65 -12.75 -16.45 -12.75 -16.45 -12.7 -16.35 -12.75 -16.15 -12.75 -16.1 -12.7 -16.1 -12.65 -16.0 -12.6 -15.95 -12.55 -15.95 -12.45 -15.65 -12.45 -15.55 -12.55 -15.55 -12.65 -15.5 -12.7 -15.5 -12.75 -15.45 -12.75 -15.4 -12.8 M-1.75 -17.3 L-1.7 -17.3 -1.7 -17.35 -1.6 -17.3 -1.5 -17.2 -1.5 -17.15 -1.45 -17.1 -1.45 -17.0 -1.35 -16.9 -1.35 -16.85 -1.25 -16.8 -1.2 -16.75 -1.0 -16.75 -1.0 -16.7 -0.95 -16.7 -0.95 -16.6 -1.1 -16.55 -1.1 -16.5 -1.2 -16.55 -1.2 -16.6 -1.3 -16.6 -1.4 -16.65 -1.6 -16.85 -1.6 -16.95 -1.65 -17.0 -1.65 -17.1 -1.7 -17.1 -1.75 -17.05 -2.05 -17.05 -2.05 -16.8 -2.1 -16.8 -2.1 -16.55 -2.05 -16.5 -2.05 -16.45 -2.0 -16.45 -2.0 -16.4 Q-1.95 -16.3 -2.0 -16.2 L-2.0 -16.0 -1.95 -15.8 -1.95 -15.7 -2.0 -15.65 -2.0 -15.55 -2.05 -15.5 -2.05 -15.4 -2.1 -15.35 -2.1 -15.3 -2.2 -15.25 -2.2 -15.2 -2.25 -15.15 -2.25 -15.1 -2.3 -15.05 -2.3 -15.0 -2.35 -14.95 -2.35 -14.85 -2.45 -14.75 Q-2.6 -14.65 -2.75 -14.65 L-2.85 -14.55 Q-2.9 -14.45 -2.95 -14.4 L-3.05 -14.35 -3.05 -14.05 -3.0 -14.0 -3.0 -13.95 -3.05 -13.9 -3.05 -13.85 -3.15 -13.85 -3.15 -13.9 -3.2 -13.95 -3.2 -14.0 -3.25 -14.05 -3.25 -14.25 -3.2 -14.4 -3.15 -14.45 -3.05 -14.6 -2.9 -14.75 -2.8 -14.8 -2.75 -14.8 -2.6 -14.85 -2.6 -14.9 -2.55 -14.95 -2.45 -15.0 -2.45 -15.05 -2.4 -15.1 -2.4 -15.2 -2.25 -15.35 -2.25 -15.4 -2.2 -15.45 -2.2 -15.5 -2.15 -15.55 -2.15 -15.65 -2.1 -15.7 -2.1 -16.35 -2.15 -16.4 -2.15 -16.5 -2.2 -16.55 -2.2 -16.8 -2.15 -16.85 -2.15 -17.25 -1.8 -17.25 -1.75 -17.3 M-2.15 -13.65 L-2.1 -13.7 -1.75 -13.65 -1.7 -13.65 -1.6 -13.6 -1.55 -13.6 -1.45 -13.55 -1.4 -13.55 -1.25 -13.4 -1.15 -13.35 -1.05 -13.25 -1.05 -13.15 -1.0 -13.0 -1.0 -12.7 -0.85 -12.7 -0.85 -12.75 -0.8 -12.75 -0.75 -12.8 -0.7 -12.8 -0.65 -12.75 -0.45 -12.75 -0.35 -12.7 -0.3 -12.7 -0.2 -12.65 -0.15 -12.6 -0.15 -12.5 -0.1 -12.5 0.0 -12.4 -0.05 -12.3 -0.05 -12.1 -0.1 -12.0 -0.15 -12.0 -0.15 -12.1 -0.2 -12.15 -0.2 -12.3 -0.3 -12.4 -0.3 -12.45 -0.35 -12.5 -0.4 -12.5 -0.45 -12.55 -0.45 -12.6 -0.55 -12.6 -0.6 -12.55 -0.7 -12.6 -0.7 -12.55 -0.8 -12.5 -1.1 -12.5 -1.2 -12.6 -1.2 -13.05 -1.25 -13.1 -1.25 -13.15 -1.3 -13.2 -1.3 -13.3 -1.4 -13.35 -1.45 -13.4 -1.45 -13.45 -1.65 -13.45 -1.7 -13.5 -1.8 -13.55 -2.05 -13.55 -2.1 -13.5 -2.1 -13.45 -2.15 -13.4 -2.25 -13.35 -2.35 -13.35 -2.45 -13.25 -2.7 -13.25 -2.8 -13.3 -2.85 -13.35 -2.85 -13.45 -2.5 -13.45 -2.45 -13.5 -2.35 -13.5 -2.25 -13.55 -2.2 -13.55 -2.15 -13.6 -2.15 -13.65 M-4.35 -12.5 L-4.3 -12.45 -4.2 -12.4 -4.1 -12.4 -4.0 -12.5 -3.9 -12.5 -3.8 -12.45 -3.75 -12.4 -3.7 -12.4 -3.7 -12.2 -3.8 -12.1 -4.0 -12.1 -4.1 -12.2 -4.1 -12.3 -4.25 -12.35 -4.3 -12.35 -4.35 -12.4 -4.4 -12.4 -4.5 -12.3 -4.6 -12.3 -4.6 -12.2 -4.55 -12.15 -4.55 -12.1 -4.5 -12.05 -4.45 -11.95 -4.4 -11.9 -4.4 -11.75 -4.45 -11.75 -4.6 -11.9 -4.65 -11.9 -4.7 -11.95 -4.7 -12.05 -4.75 -12.1 -4.75 -12.15 -4.7 -12.2 -4.7 -12.3 -4.6 -12.4 -4.6 -12.45 -4.45 -12.5 -4.35 -12.5 M-3.7 -12.95 L-3.65 -13.0 -3.55 -12.95 -3.25 -12.95 -3.2 -13.0 -3.1 -12.95 -3.05 -12.95 -2.95 -12.9 -2.95 -12.85 -2.75 -12.65 -2.75 -12.6 -2.7 -12.6 -2.7 -12.5 -2.6 -12.4 -2.6 -12.15 -2.7 -12.05 -2.7 -12.0 -2.75 -11.95 -2.9 -11.9 -2.95 -11.9 -2.95 -11.8 -3.0 -11.75 -3.0 -11.65 -3.05 -11.6 -3.05 -11.0 -3.0 -10.95 -3.0 -10.9 -2.8 -10.7 -2.6 -10.65 -2.85 -10.65 -2.85 -10.7 -2.9 -10.7 -2.9 -10.75 -3.0 -10.75 -3.0 -10.8 -3.05 -10.85 -3.05 -10.9 -3.1 -10.95 -3.1 -11.0 -3.15 -11.05 -3.15 -11.7 -3.1 -11.75 -3.1 -11.8 -3.0 -11.9 -2.95 -11.9 -2.95 -12.0 -2.9 -12.05 -2.9 -12.1 -2.85 -12.1 -2.75 -12.2 -2.75 -12.35 -2.8 -12.4 -2.8 -12.5 -2.85 -12.5 -2.85 -12.55 -3.15 -12.85 -3.2 -12.8 -3.55 -12.85 -3.6 -12.85 -3.6 -12.75 -3.65 -12.75 -3.65 -12.65 -3.7 -12.6 -3.7 -12.55 -3.75 -12.5 -3.75 -12.45 -3.8 -12.45 -3.8 -12.7 -3.75 -12.75 -3.75 -12.95 -3.7 -12.95 M-3.75 -10.75 L-3.65 -10.75 -3.55 -10.65 -3.55 -10.6 -3.45 -10.55 -3.4 -10.55 -2.95 -10.5 -2.95 -10.45 -3.45 -10.45 -3.6 -10.5 -3.7 -10.5 -3.75 -10.55 -3.9 -10.55 -3.9 -10.5 -3.95 -10.45 -3.95 -10.4 -4.05 -10.3 -4.05 -9.85 -4.1 -9.85 -4.1 -10.15 -4.2 -10.15 -4.2 -10.3 -4.25 -10.35 -4.25 -10.4 -4.2 -10.45 -4.2 -10.5 -4.1 -10.6 -4.05 -10.7 -4.05 -10.75 -4.0 -10.8 -3.8 -10.8 -3.75 -10.75 M-1.15 -12.3 L-1.2 -12.25 -1.2 -12.15 -1.35 -12.0 -1.4 -12.0 -1.45 -11.95 -1.75 -11.95 -1.85 -12.0 -1.9 -12.05 -2.25 -12.05 -2.3 -12.0 -2.3 -11.95 -2.35 -11.9 -2.35 -11.6 -2.3 -11.55 -2.3 -11.5 -2.25 -11.45 -2.25 -11.35 -2.2 -11.35 -2.2 -11.15 -2.1 -11.05 -2.1 -11.0 -2.0 -10.9 -2.0 -10.85 -1.85 -10.85 -1.8 -10.8 -1.5 -10.8 -1.4 -10.7 -1.4 -10.6 -1.35 -10.55 -1.35 -10.35 -1.45 -10.3 -1.55 -10.2 -1.55 -10.15 -1.6 -10.1 -1.7 -10.1 -1.75 -10.15 -1.7 -10.2 -1.65 -10.2 -1.65 -10.25 -1.6 -10.3 -1.5 -10.35 -1.45 -10.4 -1.45 -10.5 -1.55 -10.6 -1.65 -10.6 -1.95 -10.7 -1.95 -10.75 -2.0 -10.8 -2.05 -10.8 -2.15 -10.9 -2.15 -10.95 -2.2 -10.95 -2.35 -11.0 -2.35 -11.25 -2.4 -11.25 -2.4 -11.35 -2.5 -11.45 -2.5 -11.5 -2.55 -11.6 -2.5 -11.75 -2.5 -12.0 -2.45 -12.05 -2.45 -12.1 -2.35 -12.2 -2.25 -12.25 -1.9 -12.25 -1.8 -12.2 -1.65 -12.05 -1.3 -12.15 -1.25 -12.2 -1.25 -12.3 -1.2 -12.35 -1.15 -12.35 -1.15 -12.3" fill="#ffffff" fill-rule="evenodd" stroke="none"/>
  </g>
</svg>
