<?xml version="1.0" encoding="UTF-8" standalone="no"?>
<svg xmlns:ffdec="https://www.free-decompiler.com/flash" xmlns:xlink="http://www.w3.org/1999/xlink" ffdec:objectType="shape" height="25.45px" width="73.05px" xmlns="http://www.w3.org/2000/svg">
  <g transform="matrix(1.0, 0.0, 0.0, 1.0, 53.9, 32.8)">
    <path d="M1.45 -32.6 L1.45 -32.35 Q1.5 -32.35 1.55 -32.35 L2.05 -32.35 2.15 -32.3 2.15 -32.25 2.2 -32.2 2.2 -32.15 2.25 -32.15 2.3 -32.1 2.5 -32.0 2.5 -31.95 2.55 -31.9 2.55 -31.85 2.6 -31.8 2.6 -31.75 2.75 -31.6 2.75 -31.45 2.6 -31.45 2.45 -31.5 2.4 -31.55 2.4 -31.6 2.35 -31.65 2.3 -31.65 2.3 -31.85 2.25 -31.9 2.1 -32.0 2.0 -32.1 1.9 -32.15 1.8 -32.15 1.5 -32.1 1.45 -32.05 1.15 -32.05 1.1 -32.1 1.1 -32.45 0.95 -32.6 0.8 -32.65 -0.15 -32.7 -0.25 -32.65 -0.6 -32.65 -0.65 -32.7 -0.75 -32.65 -0.9 -32.5 -0.9 -32.2 -0.8 -32.1 -0.75 -32.1 -0.65 -32.0 -0.6 -32.0 -0.5 -31.95 -0.5 -31.55 -0.6 -31.45 -0.6 -31.1 -0.7 -31.0 -0.7 -30.95 -0.8 -30.85 -0.8 -30.8 -0.9 -30.7 -1.0 -30.65 -1.05 -30.65 -1.1 -30.6 -1.45 -30.65 -1.5 -30.65 -1.75 -30.7 -1.8 -30.75 -1.85 -30.75 -1.95 -30.85 -1.95 -31.05 -2.0 -31.1 -2.0 -31.3 -2.1 -31.4 -2.85 -31.4 -2.95 -31.35 -3.0 -31.3 -3.0 -31.25 -3.15 -31.25 -3.15 -31.2 -3.2 -31.15 -3.2 -31.1 -3.25 -31.05 -3.25 -31.0 -3.3 -30.95 -3.3 -30.75 -3.25 -30.7 -3.2 -30.7 -3.05 -30.65 -2.95 -30.6 -2.95 -30.55 -2.85 -30.45 -2.85 -30.2 -2.9 -30.15 -2.95 -30.15 -2.95 -30.1 -3.15 -29.9 -3.15 -29.85 -3.25 -29.85 -3.3 -29.8 -3.3 -29.75 -3.4 -29.65 -3.55 -29.55 -3.4 -29.55 -3.3 -29.5 -3.15 -29.5 -3.0 -29.45 -2.95 -29.4 -2.8 -29.4 -2.7 -29.35 -2.65 -29.35 -2.5 -29.3 -2.35 -29.3 -2.25 -29.35 -2.2 -29.35 -2.1 -29.3 -2.0 -29.3 -1.9 -29.25 -1.9 -29.2 -1.85 -29.15 -1.7 -29.1 -1.6 -29.0 -1.45 -29.0 -1.25 -28.9 -1.2 -28.85 -1.1 -28.8 -1.05 -28.75 -1.0 -28.75 -1.0 -28.7 -0.9 -28.65 -0.7 -28.45 -0.65 -28.45 -0.65 -28.35 -0.6 -28.3 -0.6 -28.2 -0.55 -28.15 -0.55 -28.1 -0.5 -28.05 -0.45 -28.05 -0.35 -28.0 -0.35 -27.95 -0.4 -27.9 -0.65 -27.9 -0.65 -27.95 -0.8 -28.1 -0.85 -28.1 -0.85 -28.2 -0.9 -28.25 -1.05 -28.25 -1.05 -28.3 -1.1 -28.3 -1.2 -28.35 -1.25 -28.35 -1.25 -28.4 -1.4 -28.4 -1.5 -28.45 -1.5 -28.6 -1.55 -28.65 -1.6 -28.65 -1.75 -28.7 -1.8 -28.75 -1.95 -28.8 -2.0 -28.8 -2.05 -28.85 -2.15 -28.9 -2.2 -28.95 -2.25 -28.95 -2.35 -29.0 -2.55 -29.0 -3.15 -29.1 -3.4 -29.15 -3.8 -29.15 -3.8 -29.1 -3.9 -29.05 -3.95 -29.0 -4.1 -28.9 -4.2 -28.85 -4.6 -28.8 -5.15 -28.8 -5.8 -28.85 -5.9 -28.8 -6.1 -28.8 -6.4 -28.85 -6.55 -28.8 -6.8 -28.7 -7.35 -28.7 -7.6 -28.65 -7.65 -28.6 -7.75 -28.6 -7.75 -28.55 -7.85 -28.55 -7.9 -28.5 -7.9 -28.45 -8.05 -28.3 -8.05 -28.25 -8.1 -28.2 -8.1 -28.15 -8.2 -28.05 -8.2 -28.0 -8.3 -27.9 -8.3 -27.85 -8.35 -27.8 -8.45 -27.75 -8.6 -27.6 -8.7 -27.55 -8.8 -27.45 -9.0 -27.45 -9.3 -27.4 -9.3 -27.45 -9.4 -27.45 -9.5 -27.4 -9.55 -27.4 -9.7 -27.35 -9.75 -27.3 -10.0 -27.3 -10.1 -27.2 -10.2 -27.2 -10.4 -27.25 -10.6 -27.25 -10.75 -27.2 -10.9 -27.2 -11.05 -27.25 -11.2 -27.25 -11.4 -27.35 -11.45 -27.35 -11.65 -27.25 -11.9 -27.2 -12.3 -27.25 -12.7 -27.25 -12.75 -27.2 -12.85 -27.15 -12.95 -27.15 -13.05 -27.1 -13.15 -27.0 -13.2 -27.0 -13.4 -26.9 -13.45 -26.85 -13.65 -26.8 -13.7 -26.8 -13.8 -26.7 -13.9 -26.65 -14.2 -26.55 -15.0 -26.55 -15.15 -26.6 -15.2 -26.6 -15.3 -26.65 -15.3 -27.1 -15.4 -27.1 -15.8 -27.15 -15.95 -27.15 -16.4 -27.3 -17.45 -27.3 -17.6 -27.25 -17.65 -27.2 -17.75 -27.15 -17.8 -27.15 -18.1 -27.0 -18.35 -27.0 -18.5 -27.05 -18.55 -27.1 -18.6 -27.1 -18.75 -27.05 -18.85 -27.05 -18.95 -27.0 -19.0 -27.0 -19.1 -26.95 -19.1 -26.8 -19.45 -26.45 -19.45 -26.1 -19.3 -25.95 Q-19.25 -25.95 -19.15 -25.9 L-19.05 -25.8 -19.05 -25.5 -18.85 -25.4 -18.8 -25.3 -18.75 -25.25 -18.75 -25.2 -18.65 -25.1 -18.65 -24.75 -18.75 -24.65 -18.75 -24.05 -18.8 -24.0 -18.8 -23.8 -18.9 -23.7 -18.95 -23.7 -18.95 -23.65 -19.0 -23.6 -19.0 -23.45 -19.05 -23.4 -19.05 -23.35 -19.1 -23.35 -19.1 -23.3 -19.05 -23.25 -19.2 -23.1 -19.2 -23.0 -19.25 -23.0 -19.3 -22.95 -19.3 -22.9 -19.45 -22.75 -19.45 -22.7 -19.5 -22.65 -19.55 -22.65 -19.65 -22.55 -19.7 -22.55 -19.8 -22.4 -19.9 -22.3 -19.9 -22.15 -20.0 -22.05 -20.0 -21.85 -19.95 -21.85 -19.9 -21.8 -19.9 -21.6 -19.95 -21.55 -20.0 -21.55 -20.0 -21.5 -20.05 -21.45 -20.05 -21.35 -20.1 -21.25 -20.1 -21.15 -20.15 -21.15 -20.15 -21.1 -20.2 -21.05 -20.2 -20.95 -20.3 -20.85 -20.3 -20.8 -20.35 -20.75 -20.4 -20.65 -20.4 -20.6 -20.45 -20.55 -20.45 -20.45 -20.55 -20.35 -20.55 -20.25 -20.65 -20.15 -20.75 -20.1 -20.9 -20.0 -20.9 -19.95 -21.0 -19.85 -21.0 -19.8 -21.35 -19.45 -21.4 -19.45 -21.6 -19.4 -22.2 -19.4 -22.3 -19.45 -22.35 -19.45 -22.45 -19.35 -22.45 -19.1 -22.5 -19.1 -22.5 -19.05 -22.55 -19.0 -22.55 -18.9 -22.6 -18.8 -22.6 -18.65 -22.7 -18.55 -22.7 -18.4 -22.75 -18.4 -22.75 -18.35 -22.8 -18.3 -22.8 -18.2 -22.85 -18.15 -22.85 -18.05 -22.75 -18.0 -22.6 -17.85 -22.6 -17.7 -22.55 -17.7 -22.35 -17.6 -22.3 -17.55 -22.3 -17.5 -22.2 -17.4 -22.1 -17.4 -21.65 -17.35 -21.25 -17.35 -21.1 -17.2 -21.05 -17.25 -21.0 -17.25 -20.95 -17.3 -20.8 -17.4 -20.7 -17.45 -20.3 -17.45 -20.15 -17.3 -20.15 -17.25 -20.1 -17.2 -19.85 -17.15 -19.75 -17.1 -19.6 -17.1 -19.3 -17.05 -19.2 -17.05 -19.05 -17.0 -19.0 -17.0 -18.65 -17.05 -18.2 -17.05 -18.2 -17.1 -18.25 -17.2 -18.25 -17.5 -18.15 -17.6 -18.05 -17.6 -18.05 -17.7 -18.0 -17.75 -18.05 -17.8 -18.05 -18.0 -17.8 -18.25 -17.8 -18.3 -17.7 -18.3 -17.7 -18.5 -17.65 -18.55 -17.4 -18.55 -17.4 -18.65 -17.3 -18.75 -17.3 -18.95 -17.25 -19.0 -17.25 -19.05 -17.2 -19.15 Q-17.2 -19.2 -17.1 -19.25 L-16.95 -19.35 -16.95 -19.55 -16.9 -19.55 -16.85 -19.6 -16.85 -19.65 -16.8 -19.7 -16.8 -19.75 -16.75 -19.8 -16.75 -19.85 -16.85 -19.9 -16.9 -19.95 -17.2 -19.95 -17.3 -20.0 -17.3 -20.4 -17.2 -20.5 -17.1 -20.55 -17.0 -20.7 -16.65 -20.8 -16.45 -20.9 -16.3 -20.9 -16.25 -20.85 -16.25 -20.8 -16.3 -20.75 -16.4 -20.7 -16.45 -20.65 -16.55 -20.6 -16.6 -20.55 -16.7 -20.5 -16.75 -20.45 -16.8 -20.45 -16.8 -20.4 -16.85 -20.35 -16.85 -20.3 Q-16.8 -20.3 -16.7 -20.25 L-16.6 -20.2 -16.5 -20.1 -16.35 -20.05 -16.25 -19.95 -16.25 -19.8 -16.35 -19.7 -16.35 -19.6 -16.45 -19.5 -16.45 -19.4 -16.7 -19.15 -16.75 -19.15 Q-16.8 -19.1 -16.85 -19.1 L-16.95 -19.0 -16.95 -18.95 -17.05 -18.9 -17.05 -18.7 -17.15 -18.6 -17.15 -18.55 -16.95 -18.55 -16.65 -18.4 -16.6 -18.4 -16.55 -18.35 -16.4 -18.25 -16.4 -18.2 -16.3 -18.15 -16.3 -18.0 Q-16.3 -17.95 -16.25 -17.95 L-16.05 -17.95 -15.9 -18.0 -15.8 -18.05 -15.8 -18.1 -15.7 -18.2 -15.55 -18.2 -15.45 -18.25 -15.4 -18.3 -15.25 -18.35 -15.2 -18.4 -14.8 -18.5 -14.75 -18.5 -14.6 -18.55 -14.5 -18.55 -14.45 -18.5 -14.45 -18.4 -14.55 -18.3 -14.7 -18.3 -14.8 -18.25 -14.85 -18.2 -14.95 -18.2 -15.0 -18.15 -15.2 -18.1 -15.25 -18.05 -15.35 -18.0 -15.5 -17.95 -15.55 -17.95 -15.55 -17.9 -15.65 -17.8 -15.85 -17.75 -15.9 -17.75 -16.0 -17.7 -16.3 -17.7 -16.5 -17.75 -16.55 -17.8 -16.6 -17.8 -16.6 -18.05 -16.75 -18.2 -16.9 -18.25 -16.95 -18.3 -17.1 -18.35 -17.4 -18.3 -17.5 -18.2 -17.5 -18.15 -17.65 -18.0 -17.75 -17.95 -17.75 -17.9 -17.7 -17.85 -17.7 -17.7 -17.8 -17.6 -17.8 -17.55 -17.95 -17.4 -17.95 -17.2 -18.0 -17.1 -18.0 -16.95 -18.05 -16.9 -18.4 -16.85 -18.75 -16.85 -18.85 -16.8 -19.15 -16.8 -19.2 -16.85 -19.25 -16.85 -19.45 -16.9 -19.9 -16.9 -19.95 -16.95 -20.25 -17.0 -20.35 -17.05 -20.4 -17.1 -20.4 -17.15 -20.5 -17.25 -20.55 -17.2 -20.7 -17.15 -20.8 -17.1 -20.85 -17.1 -20.85 -17.05 -20.9 -17.05 -20.8 -16.95 -20.8 -16.7 -20.9 -16.6 -20.95 -16.5 -20.95 -16.45 -21.0 -16.45 -21.0 -16.4 -21.05 -16.35 -21.05 -16.3 -21.1 -16.25 -21.1 -16.2 -21.15 -16.15 -21.15 -16.1 -21.25 -16.0 -21.25 -15.8 -21.3 -15.75 -21.35 -15.75 -21.35 -15.55 -21.4 -15.5 -21.4 -15.45 -21.45 -15.4 -21.5 -15.4 -21.55 -15.3 Q-21.6 -15.2 -21.7 -15.15 L-21.85 -15.05 -21.95 -15.0 -22.0 -14.95 -22.1 -14.9 -22.7 -14.9 -22.75 -14.95 -22.95 -14.95 -23.0 -15.0 -23.05 -15.0 -24.05 -15.05 -24.1 -15.05 -24.2 -15.1 -24.3 -15.2 -24.55 -15.2 -24.75 -15.25 -24.85 -15.2 -25.35 -15.2 Q-25.5 -15.1 -25.7 -15.05 L-26.25 -14.9 -26.3 -14.85 -26.5 -14.85 -26.55 -14.8 -26.75 -14.75 -26.8 -14.7 -26.85 -14.7 -27.0 -14.65 -27.1 -14.65 -27.25 -14.6 -27.25 -14.5 -27.35 -14.45 -27.35 -14.25 -27.4 -14.25 -27.55 -14.15 -27.65 -14.05 -27.8 -14.05 -27.9 -13.95 -29.15 -13.95 -29.3 -13.9 -30.2 -13.9 -30.3 -14.0 -30.3 -14.1 -30.4 -14.2 -30.55 -14.15 -31.4 -14.15 Q-31.55 -14.15 -31.65 -14.2 L-31.95 -14.3 -32.4 -14.3 -32.45 -14.25 -32.6 -14.25 -32.7 -14.15 -32.75 -14.15 -32.85 -14.1 -33.15 -14.1 -33.2 -14.05 -34.0 -14.0 -34.2 -14.1 -34.25 -14.1 -34.55 -14.15 -34.65 -14.15 -34.75 -14.2 -35.1 -14.2 -35.1 -13.9 -35.15 -13.7 -35.15 -13.65 -35.35 -13.45 -35.45 -13.4 -35.5 -13.35 -35.6 -13.35 -35.6 -13.25 -35.7 -13.15 -35.8 -13.0 -35.95 -12.85 -35.95 -12.8 -36.05 -12.75 -36.1 -12.7 -36.8 -12.65 -36.7 -12.6 -36.55 -12.5 -36.45 -12.45 -36.4 -12.4 -36.45 -12.35 -36.45 -12.3 -36.5 -12.25 -36.45 -12.25 -36.35 -12.2 -36.25 -12.1 -36.15 -12.05 -36.1 -12.05 -36.1 -11.95 -36.05 -11.9 -36.05 -11.85 -35.95 -11.8 -35.95 -11.7 -35.9 -11.7 -35.9 -11.65 -35.85 -11.6 -35.75 -11.55 -35.6 -11.4 -35.6 -11.3 -35.55 -11.25 -35.55 -11.2 -35.35 -11.25 -35.2 -11.25 -35.0 -11.3 -34.9 -11.35 -34.8 -11.35 -34.75 -11.4 -34.6 -11.4 -34.45 -11.45 -34.35 -11.5 -34.0 -11.5 -33.9 -11.55 -33.75 -11.6 -33.65 -11.6 -32.4 -11.55 -32.35 -11.5 -32.25 -11.45 -32.25 -11.4 -32.2 -11.35 -32.2 -11.15 -32.1 -11.1 -32.05 -11.05 -32.05 -11.0 -31.95 -10.9 -31.95 -10.85 -31.85 -10.75 -31.85 -10.7 -31.75 -10.6 -31.75 -10.4 -31.8 -10.35 -31.75 -10.35 -31.55 -10.3 -31.4 -10.3 -31.3 -10.35 -30.9 -10.35 -30.85 -10.4 -30.65 -10.4 -30.6 -10.45 -30.6 -10.5 -30.45 -10.65 -30.45 -10.7 -30.4 -10.75 -29.85 -10.75 -29.8 -10.7 -29.7 -10.65 -29.5 -10.6 -29.35 -10.55 -28.7 -10.55 -28.65 -10.6 -28.3 -10.6 -28.15 -10.55 -28.1 -10.55 -28.0 -10.5 -27.95 -10.45 -27.95 -10.35 -28.05 -10.25 -28.15 -10.25 -28.2 -10.3 Q-28.75 -10.35 -29.35 -10.35 L-29.65 -10.4 -29.95 -10.5 -30.05 -10.55 -30.2 -10.55 -30.25 -10.5 -30.25 -10.45 -30.35 -10.4 -30.35 -10.3 -30.45 -10.2 -30.5 -10.2 -30.55 -10.15 -30.85 -10.2 -31.1 -10.15 -31.3 -10.15 -31.3 -10.1 -31.6 -10.1 -31.6 -9.85 -31.7 -9.75 -31.85 -9.7 -31.9 -9.7 -32.15 -9.65 -32.25 -9.6 -32.2 -9.55 -32.2 -9.5 -32.1 -9.4 -31.9 -9.4 -31.8 -9.35 -31.75 -9.3 -31.6 -9.3 -31.6 -9.25 -31.55 -9.2 -31.55 -9.05 -31.35 -8.95 -31.25 -8.85 -31.1 -8.8 -31.1 -8.6 -31.05 -8.55 -31.05 -8.45 -31.0 -8.4 -31.0 -8.25 -31.05 -8.2 -31.15 -8.2 -31.3 -8.35 -31.35 -8.35 -31.35 -8.4 -31.45 -8.5 -31.45 -8.6 -31.55 -8.7 -31.75 -8.8 -31.9 -8.95 -31.9 -9.0 -31.95 -9.05 -32.05 -9.1 -32.3 -9.15 -32.4 -9.15 -32.45 -9.2 -32.45 -9.25 -32.55 -9.35 -32.55 -9.45 -32.6 -9.5 -32.65 -9.5 -32.65 -9.75 -32.6 -9.8 -32.55 -9.8 -32.15 -9.95 -32.0 -9.95 -31.9 -10.0 -31.9 -10.1 -32.0 -10.1 -32.05 -10.15 -32.05 -10.4 -32.1 -10.4 -32.1 -10.5 -32.2 -10.6 -32.2 -10.65 -32.3 -10.75 -32.3 -10.8 -32.35 -10.8 -32.35 -10.85 -32.55 -11.05 -32.55 -11.35 -33.15 -11.4 -33.2 -11.45 -33.55 -11.45 -33.65 -11.4 Q-33.8 -11.35 -33.95 -11.35 L-34.3 -11.3 Q-34.4 -11.25 -34.55 -11.25 L-34.55 -11.2 -34.7 -11.2 -34.75 -11.15 -34.9 -11.1 -34.95 -11.1 -35.15 -11.05 -35.2 -11.05 -35.2 -11.0 -35.8 -11.0 -35.9 -11.1 -35.9 -11.25 -36.0 -11.35 -36.1 -11.4 -36.15 -11.45 -36.15 -11.5 -36.2 -11.5 -36.2 -11.55 -36.25 -11.6 -36.25 -11.65 -36.35 -11.75 -36.35 -11.8 -36.4 -11.8 -36.45 -11.85 -36.45 -11.95 -36.6 -12.0 -36.75 -12.0 -36.85 -12.05 -36.9 -12.1 -36.9 -12.15 -36.85 -12.15 -36.8 -12.2 -36.8 -12.45 -36.85 -12.5 -37.0 -12.5 -37.1 -12.6 -37.1 -12.65 -37.3 -12.65 -37.35 -12.6 -37.5 -12.65 -37.7 -12.75 -37.85 -12.75 -38.05 -12.85 -38.1 -12.9 -38.15 -12.9 -38.2 -12.95 -38.3 -12.95 -38.35 -13.0 -38.45 -13.05 -38.5 -13.1 -38.5 -13.2 -38.55 -13.3 Q-38.6 -13.4 -38.7 -13.45 L-38.75 -13.55 -38.85 -13.55 -39.05 -13.75 -39.2 -13.75 -39.35 -13.8 -39.55 -13.8 -39.65 -13.7 -39.75 -13.65 -40.2 -13.65 -40.3 -13.75 -40.45 -13.85 -40.65 -14.0 -40.65 -14.05 -40.7 -14.05 -40.7 -14.1 -40.75 -14.15 -40.75 -14.35 -40.8 -14.4 -40.8 -14.65 -40.75 -14.7 -40.7 -14.7 -40.7 -14.8 -40.65 -14.85 -40.65 -14.9 -40.6 -14.95 -40.6 -15.0 -40.55 -15.05 -40.5 -15.05 -40.5 -15.1 -40.55 -15.15 -40.55 -15.35 -40.5 -15.4 -40.5 -15.65 -40.55 -15.7 -40.55 -15.75 -40.6 -15.75 -40.6 -15.85 -40.7 -15.95 -40.7 -16.05 -40.75 -16.1 -40.8 -16.1 -40.8 -16.35 -40.85 -16.4 -40.9 -16.65 -40.9 -17.1 Q-40.9 -17.2 -40.75 -17.25 L-40.55 -17.4 -40.6 -17.5 -40.6 -17.7 -40.7 -17.8 -40.85 -17.85 -41.0 -18.0 -41.15 -18.0 -41.2 -18.05 -41.3 -18.1 Q-41.35 -18.1 -41.4 -18.15 L-41.5 -18.2 -41.55 -18.25 -41.55 -18.7 -41.5 -18.75 -41.4 -18.8 -41.35 -18.85 -41.2 -18.9 -41.15 -18.95 -40.95 -19.1 -40.75 -19.15 -39.55 -19.2 -38.75 -19.2 -38.6 -19.25 -38.55 -19.3 -38.5 -19.3 -38.35 -19.35 -38.25 -19.4 -38.2 -19.45 -38.2 -19.8 -38.05 -19.95 -38.05 -20.25 -37.95 -20.25 -37.85 -20.35 -37.35 -20.4 -37.1 -20.45 -36.95 -20.6 -36.95 -20.8 -37.15 -21.0 -37.3 -21.1 -37.5 -21.3 -37.7 -21.35 -38.05 -21.35 -38.05 -21.4 -38.2 -21.4 -38.3 -21.35 -39.1 -21.4 -39.45 -21.4 -39.6 -21.45 -39.85 -21.45 -39.9 -21.4 -39.9 -21.35 -40.0 -21.3 -40.15 -21.25 -40.2 -21.2 -40.4 -21.2 -40.45 -21.25 -40.9 -21.25 -40.95 -21.3 -41.15 -21.35 -41.2 -21.35 -41.3 -21.4 -41.35 -21.45 -41.4 -21.45 -41.5 -21.5 -41.55 -21.5 -41.75 -21.6 -41.8 -21.6 Q-41.9 -21.65 -41.95 -21.65 L-42.0 -21.65 -42.15 -21.7 -42.35 -21.75 -42.4 -21.8 -42.65 -21.85 -42.75 -21.85 -42.9 -21.9 -43.05 -22.05 -43.05 -22.1 -43.15 -22.2 -43.3 -22.3 -43.35 -22.4 -43.35 -22.45 -43.45 -22.55 -43.55 -22.55 -43.65 -22.6 -43.7 -22.65 -43.7 -22.7 -43.8 -22.75 -43.95 -22.8 -44.15 -22.9 -44.4 -22.85 -44.45 -22.85 -44.55 -22.75 -45.5 -22.75 -45.6 -22.7 -45.65 -22.65 -45.8 -22.6 -45.85 -22.6 -46.0 -22.55 -46.1 -22.55 -46.25 -22.4 -46.4 -22.35 -46.45 -22.35 -46.55 -22.3 -46.8 -22.3 Q-46.8 -22.25 -46.85 -22.25 L-47.15 -22.25 -47.25 -22.35 -47.35 -22.4 -47.55 -22.4 -47.7 -22.35 -47.75 -22.3 -48.0 -22.25 -48.3 -22.25 -48.35 -22.2 -48.4 -22.2 -48.65 -22.15 -48.75 -22.15 -49.0 -22.1 -49.5 -22.1 -49.55 -22.15 -49.65 -22.15 -49.75 -22.05 -49.75 -22.0 -49.8 -21.95 -49.8 -21.8 -49.85 -21.75 -49.75 -21.65 -49.75 -21.55 -49.8 -21.55 -49.8 -21.2 -49.85 -21.2 -49.85 -21.15 -49.8 -21.1 -49.85 -21.05 -49.85 -21.0 -49.8 -20.95 -49.8 -20.7 -49.9 -20.6 -50.05 -20.55 -50.2 -20.55 -50.45 -20.5 -50.6 -20.45 -50.65 -20.45 -50.75 -20.4 -51.2 -20.4 -51.35 -20.45 -51.4 -20.45 -51.45 -20.5 -51.65 -20.5 -51.75 -20.55 -51.8 -20.55 -51.9 -20.6 -52.35 -20.6 -52.35 -20.55 -52.4 -20.5 -52.4 -20.4 -52.7 -20.25 -53.1 -19.95 -53.15 -19.9 -53.2 -19.9 -53.4 -19.85 -53.5 -19.85 -53.5 -19.8 -53.9 -19.8 -53.8 -19.9 -53.7 -19.9 -53.7 -20.0 -53.65 -20.05 -53.65 -20.1 -53.45 -20.15 -53.35 -20.2 -53.3 -20.25 -53.2 -20.25 -53.15 -20.3 -52.95 -20.4 Q-52.9 -20.4 -52.9 -20.45 L-52.9 -20.5 -52.85 -20.55 -52.7 -20.6 -52.6 -20.7 -52.6 -20.75 -52.55 -20.8 -52.45 -20.8 Q-52.0 -20.85 -51.55 -20.75 L-50.8 -20.75 -50.7 -20.8 -50.55 -20.8 -50.35 -20.85 -50.2 -20.9 -50.2 -21.1 -50.1 -21.2 -50.05 -21.2 -50.05 -21.4 -50.15 -21.5 -50.15 -21.55 -50.2 -21.55 -50.2 -22.15 -50.1 -22.25 -50.0 -22.3 -49.95 -22.35 -49.8 -22.4 -49.75 -22.45 -49.65 -22.45 -49.55 -22.4 -49.45 -22.4 -49.4 -22.35 -49.0 -22.35 -48.85 -22.4 Q-48.55 -22.45 -48.25 -22.5 L-48.2 -22.55 -48.0 -22.55 -47.9 -22.6 -47.75 -22.65 -47.1 -22.65 -47.0 -22.6 -46.95 -22.55 -46.7 -22.55 -46.55 -22.6 -46.35 -22.7 -46.3 -22.75 -46.15 -22.75 -46.15 -22.8 -46.1 -22.8 -45.9 -22.9 -45.9 -22.95 -45.7 -23.0 -45.65 -23.0 -45.6 -23.05 -45.45 -23.1 -45.35 -23.05 -45.05 -23.05 -45.0 -23.1 -44.0 -23.1 -43.8 -23.0 -43.8 -23.1 -43.7 -23.2 -43.7 -23.25 -43.6 -23.35 -43.6 -23.55 -43.55 -23.6 -43.5 -23.6 -43.5 -23.65 -43.45 -23.7 -43.1 -23.7 -42.9 -23.65 -42.8 -23.65 -42.75 -23.7 -42.65 -23.65 -42.35 -23.65 -42.3 -23.7 -42.15 -23.7 -42.1 -23.65 -41.3 -23.65 -41.15 -23.6 -41.1 -23.6 -41.05 -23.55 -40.95 -23.5 -40.9 -23.45 -40.8 -23.45 -40.75 -23.4 -40.75 -23.2 -40.7 -23.2 -40.55 -23.05 -40.3 -23.05 -40.15 -23.0 -40.0 -22.9 -39.95 -22.85 -39.9 -22.85 -39.9 -22.7 -39.8 -22.7 -39.75 -22.65 -39.45 -22.65 -39.25 -22.55 -39.2 -22.55 -39.0 -22.5 -38.9 -22.5 -38.8 -22.45 -38.75 -22.45 -38.6 -22.4 -38.35 -22.4 -38.05 -22.35 -38.0 -22.35 -37.65 -22.3 -37.15 -22.25 -37.1 -22.25 -36.9 -22.35 -36.85 -22.35 -36.8 -22.4 -36.65 -22.4 -36.55 -22.45 -36.45 -22.45 -36.35 -22.4 -36.2 -22.35 -36.1 -22.35 -36.0 -22.3 -35.9 -22.3 -35.85 -22.25 -35.75 -22.2 -35.65 -22.1 -35.65 -21.95 -35.6 -21.9 -35.6 -21.7 -35.65 -21.65 -35.6 -21.6 -35.6 -21.55 -35.5 -21.45 -35.5 -21.25 -35.45 -21.2 -35.45 -21.05 -35.4 -21.0 -35.4 -20.95 -35.45 -20.95 -35.5 -20.9 -35.85 -20.85 -35.95 -20.8 -36.0 -20.75 -36.15 -20.7 -36.25 -20.65 -36.4 -20.65 -36.5 -20.6 -36.5 -20.45 -36.55 -20.35 Q-36.6 -20.25 -36.7 -20.2 L-36.85 -20.15 -36.9 -20.1 -37.4 -20.1 -37.6 -20.05 -37.6 -19.85 -37.65 -19.8 -37.75 -19.75 -37.85 -19.65 -37.85 -19.4 -37.8 -19.35 -37.8 -19.2 -37.9 -19.1 -38.0 -19.1 -38.05 -19.05 Q-38.25 -18.95 -38.4 -18.9 L-38.65 -18.85 -38.75 -18.8 -38.9 -18.8 -39.05 -18.85 -39.35 -18.85 -39.45 -18.8 -40.6 -18.8 -40.7 -18.7 -40.7 -18.65 -40.8 -18.6 -40.85 -18.6 -40.95 -18.55 -41.0 -18.5 -41.0 -18.45 -40.95 -18.4 -40.85 -18.35 -40.7 -18.3 -40.6 -18.3 -40.5 -18.2 -40.4 -18.15 -40.25 -18.1 -40.25 -18.05 -40.2 -18.0 -40.2 -17.85 -40.15 -17.8 -40.15 -17.4 -40.2 -17.35 -40.25 -17.25 -40.3 -17.2 -40.35 -17.2 -40.35 -17.15 -40.4 -17.1 Q-40.5 -17.1 -40.55 -17.1 L-40.55 -17.05 -40.6 -17.0 -40.6 -16.9 -40.5 -16.8 -40.5 -16.65 -40.6 -16.55 -40.6 -16.45 -40.55 -16.45 -40.5 -16.4 -40.5 -16.2 -40.45 -16.15 -40.45 -16.1 -40.4 -16.1 -40.4 -16.0 -40.35 -15.95 -40.35 -15.75 -40.3 -15.75 -40.25 -15.7 -40.25 -15.4 -40.2 -15.3 -40.15 -15.25 -40.15 -15.2 -40.1 -15.15 -40.1 -15.1 -40.05 -15.05 -40.05 -14.9 -40.15 -14.8 -40.15 -14.7 -40.2 -14.65 -40.2 -14.45 -40.25 -14.4 -40.25 -14.35 -40.3 -14.35 -40.3 -14.3 -40.25 -14.25 -40.25 -14.15 -40.2 -14.1 -40.1 -14.05 Q-40.05 -14.05 -40.0 -14.05 L-39.85 -14.05 -39.7 -14.1 -39.65 -14.1 -39.55 -14.15 -39.2 -14.15 -39.0 -14.05 -38.9 -14.05 Q-38.65 -13.9 -38.45 -13.75 L-38.2 -13.45 -38.1 -13.4 -38.1 -13.35 -38.0 -13.25 -37.85 -13.15 -37.75 -13.1 -37.65 -13.1 -37.55 -13.05 -37.4 -12.95 -37.3 -12.9 -37.25 -12.85 -37.2 -12.85 -36.75 -12.9 -36.65 -12.95 -36.35 -12.95 -36.2 -13.1 -36.15 -13.1 -36.1 -13.2 -35.9 -13.4 -35.8 -13.45 -35.75 -13.5 -35.6 -13.55 -35.5 -13.65 -35.5 -13.7 -35.45 -13.75 -35.45 -14.35 -35.4 -14.4 -35.35 -14.4 -35.3 -14.45 -34.6 -14.4 -34.5 -14.35 -34.4 -14.35 -34.05 -14.3 -33.95 -14.25 -33.65 -14.25 -33.2 -14.35 -33.1 -14.35 -33.0 -14.4 -32.95 -14.45 -32.8 -14.45 -32.7 -14.55 -32.65 -14.55 -32.55 -14.6 -32.45 -14.6 -32.35 -14.65 -32.0 -14.65 Q-31.8 -14.55 -31.55 -14.55 -31.3 -14.5 -31.1 -14.4 L-30.75 -14.4 -30.65 -14.45 -30.3 -14.45 -30.15 -14.4 -30.1 -14.35 -30.0 -14.35 -29.9 -14.25 -29.35 -14.2 -29.2 -14.25 -28.15 -14.25 -28.0 -14.3 -27.9 -14.35 -27.8 -14.35 -27.8 -14.6 -27.7 -14.7 -27.7 -14.75 -27.55 -14.9 -27.45 -14.95 -26.95 -15.05 Q-26.75 -15.1 -26.5 -15.1 -26.25 -15.15 -26.0 -15.25 L-25.45 -15.4 -24.55 -15.55 -24.1 -15.55 -23.95 -15.5 -23.85 -15.5 -23.8 -15.45 -23.0 -15.4 -22.9 -15.4 -22.8 -15.35 -22.55 -15.35 -22.4 -15.3 -22.3 -15.35 -22.2 -15.35 -22.0 -15.45 -21.95 -15.45 -21.95 -15.55 -21.8 -15.7 -21.8 -15.8 -21.7 -15.9 -21.7 -16.1 -21.6 -16.2 -21.6 -16.3 -21.5 -16.4 -21.5 -16.55 -21.45 -16.6 -21.35 -16.8 -21.25 -16.8 -21.25 -16.95 -21.4 -17.05 -21.5 -17.1 -22.05 -17.1 -22.1 -17.05 -22.2 -17.05 -22.35 -17.1 -22.45 -17.15 -22.6 -17.25 -22.65 -17.3 -22.65 -17.35 -22.7 -17.4 -22.85 -17.4 -22.95 -17.5 -22.95 -17.55 -23.0 -17.6 -23.0 -17.65 -23.05 -17.7 -23.1 -17.7 -23.25 -17.85 -23.25 -17.95 -23.3 -18.0 -23.3 -18.05 -23.35 -18.05 -23.35 -18.2 -23.25 -18.3 -23.25 -18.45 -23.2 -18.5 -23.2 -18.55 -23.15 -18.6 -23.15 -18.75 -23.1 -18.75 -23.05 -18.8 -23.05 -18.85 -23.0 -18.9 -23.0 -18.95 -22.95 -19.0 -22.95 -19.15 -22.85 -19.2 -22.85 -19.4 -22.8 -19.45 -22.8 -19.5 -22.75 -19.55 -22.75 -19.65 -22.85 -19.75 -22.85 -20.1 -22.8 -20.1 -22.75 -20.15 -22.25 -20.15 -22.2 -20.1 -22.1 -20.05 -22.1 -19.85 -22.0 -19.75 -22.0 -19.7 -21.95 -19.65 -21.85 -19.7 -21.7 -19.7 -21.65 -19.75 -21.55 -19.8 -21.4 -19.95 -21.4 -20.0 -21.15 -20.25 -21.0 -20.35 -20.95 -20.4 -20.95 -20.45 -20.65 -20.75 -20.65 -20.8 -20.6 -20.85 -20.6 -20.95 -20.55 -21.0 -20.55 -21.15 -20.45 -21.25 -20.45 -21.35 -20.4 -21.35 -20.35 -21.4 -20.35 -22.15 -20.3 -22.2 -20.3 -22.4 -20.25 -22.4 -20.2 -22.45 -20.2 -22.5 -20.1 -22.6 -20.1 -22.65 -20.05 -22.7 -19.95 -22.75 -19.9 -22.75 -19.8 -22.8 -19.8 -22.9 -19.75 -22.95 -19.75 -23.0 -19.7 -23.0 -19.65 -23.05 -19.65 -23.1 -19.55 -23.2 -19.55 -23.25 -19.5 -23.3 -19.5 -23.35 -19.45 -23.35 -19.45 -23.45 -19.35 -23.55 -19.35 -23.7 -19.3 -23.75 -19.3 -23.8 -19.25 -23.85 -19.25 -23.9 -19.2 -23.95 -19.2 -24.05 -19.1 -24.15 -19.1 -24.75 -19.05 -24.75 -19.05 -24.8 -19.0 -24.85 -19.0 -25.05 -19.05 -25.05 -19.25 -25.25 -19.4 -25.3 -19.45 -25.35 -19.45 -25.4 -19.5 -25.45 -19.5 -25.65 -19.55 -25.7 -19.7 -25.8 -19.85 -25.95 -19.85 -26.5 -19.8 -26.5 -19.8 -26.55 -19.75 -26.6 -19.75 -26.65 -19.65 -26.75 -19.55 -26.8 -19.45 -26.9 -19.45 -27.15 -19.4 -27.15 -19.25 -27.2 -19.2 -27.25 -19.1 -27.25 -18.95 -27.3 -18.95 -27.45 -18.85 -27.55 -18.85 -27.7 -18.8 -27.75 -18.75 -27.75 -18.8 -27.8 -18.8 -27.85 -18.95 -28.0 -19.0 -28.1 -19.15 -28.1 -19.25 -28.05 -19.3 -28.0 -19.65 -28.0 -19.7 -28.05 -19.8 -28.1 -19.8 -28.2 -19.85 -28.2 -19.9 -28.25 -19.9 -28.3 -19.95 -28.35 -19.95 -28.5 -20.0 -28.55 -20.05 -28.55 -20.05 -28.9 -20.0 -28.95 -19.85 -29.0 -19.35 -29.0 -19.3 -29.05 -18.9 -29.05 -18.75 -29.1 -18.65 -29.2 -18.55 -29.25 -18.5 -29.25 -18.45 -29.3 -18.45 -29.35 -18.35 -29.45 -18.35 -29.6 -18.4 -29.65 -18.4 -29.7 -18.45 -29.75 -18.45 -29.9 -18.5 -29.95 -18.5 -30.15 -18.55 -30.2 -18.55 -30.3 -18.65 -30.4 -18.65 -30.65 -18.6 -30.7 -18.6 -30.9 -18.55 -30.95 -18.55 -31.0 -18.5 -31.0 -18.4 -31.1 -18.4 -31.3 -18.3 -31.35 -18.25 -31.35 -18.05 -31.45 -17.9 -31.5 -17.7 -31.45 -17.6 -31.45 -17.45 -31.4 -17.35 -31.3 -17.35 -31.25 -17.2 -31.1 -17.2 -31.05 -17.15 -31.0 -17.15 -30.8 -17.2 -30.8 -17.25 -30.75 -17.25 -30.7 -17.2 -30.65 -16.85 -30.65 -16.8 -30.7 -16.65 -30.75 -16.55 -30.75 -16.5 -30.8 -16.5 -30.85 -16.4 -30.9 -16.3 -31.0 -16.3 -31.05 -15.8 -31.05 -15.7 -31.0 -15.45 -30.95 -15.35 -30.95 -15.25 -30.9 -15.1 -30.85 -15.0 -30.85 -14.95 -30.8 -14.9 -30.8 -14.8 -30.75 -14.65 -30.75 -14.55 -30.65 -14.6 -30.6 Q-14.65 -30.6 -14.7 -30.6 L-15.1 -30.6 -15.4 -30.65 -15.4 -30.7 -15.45 -30.7 Q-15.5 -30.7 -15.55 -30.75 L-15.6 -30.75 -15.7 -30.8 -15.8 -30.8 -15.9 -30.85 -15.9 -30.9 -16.1 -30.85 -16.15 -30.85 -16.15 -30.8 -16.25 -30.7 -16.25 -30.65 -16.3 -30.6 -16.4 -30.55 -16.7 -30.45 -17.35 -30.45 -17.45 -30.5 -17.5 -30.55 -17.5 -30.8 -17.4 -30.9 -17.4 -31.0 -17.45 -31.05 -17.55 -31.1 -17.55 -31.15 -17.65 -31.25 -17.95 -31.25 -18.05 -31.2 -18.15 -31.2 -18.15 -31.0 -18.25 -30.9 -18.25 -30.85 -18.3 -30.85 -18.3 -30.65 -18.4 -30.55 -18.35 -30.5 -18.35 -30.3 -18.25 -30.2 -18.25 -29.85 -18.3 -29.85 -18.2 -29.75 -18.2 -29.35 -18.3 -29.25 -18.3 -29.2 -18.4 -29.15 -18.45 -29.15 -18.5 -29.1 -18.6 -29.05 -18.7 -28.95 -19.05 -28.95 -19.1 -28.9 -19.5 -28.9 -19.65 -28.85 -19.65 -28.8 -19.75 -28.8 -19.8 -28.75 -19.75 -28.7 -19.75 -28.65 -19.7 -28.6 -19.7 -28.5 -19.6 -28.4 -19.6 -28.35 -19.5 -28.25 -19.5 -28.2 -19.45 -28.2 -19.25 -28.25 -19.1 -28.3 -18.85 -28.25 -18.8 -28.2 -18.7 -28.2 -18.7 -28.1 -18.6 -28.0 -18.6 -27.9 -18.55 -27.85 -18.55 -27.6 -18.6 -27.55 -18.6 -27.45 -18.65 -27.4 -18.45 -27.4 -18.35 -27.35 -18.3 -27.3 -18.1 -27.3 -18.05 -27.35 -17.9 -27.45 -17.8 -27.5 -17.7 -27.5 -17.65 -27.55 -16.3 -27.55 -15.7 -27.4 -15.3 -27.4 -15.15 -27.35 -15.1 -27.3 -15.0 -27.3 -14.9 -27.2 -14.9 -26.85 -14.25 -26.8 -14.15 -26.85 -14.1 -26.9 -13.95 -26.9 -13.85 -26.95 -13.65 -27.15 Q-13.6 -27.15 -13.55 -27.15 L-13.35 -27.25 -13.3 -27.3 -13.15 -27.35 -13.1 -27.4 -12.8 -27.5 -11.9 -27.5 -11.6 -27.55 -11.55 -27.6 -11.15 -27.6 -11.1 -27.55 -11.0 -27.55 -10.9 -27.5 -10.8 -27.5 -10.75 -27.45 -10.65 -27.5 -10.2 -27.5 -10.0 -27.6 -9.9 -27.6 -9.8 -27.65 -9.75 -27.7 -9.7 -27.7 -9.65 -27.75 -9.5 -27.75 -9.4 -27.85 -9.3 -27.9 -9.3 -28.05 -9.2 -28.15 -9.2 -28.25 -9.15 -28.3 -9.05 -28.35 -8.8 -28.5 -8.8 -28.55 -8.6 -28.55 -8.5 -28.65 -8.4 -28.7 -8.35 -28.75 -8.35 -28.8 -8.15 -29.0 -8.0 -29.05 -7.9 -29.1 -7.1 -29.1 -6.9 -29.15 -6.3 -29.15 -6.25 -29.1 -6.1 -29.1 -5.95 -29.15 -4.8 -29.15 -4.7 -29.2 -4.65 -29.2 -4.55 -29.25 -4.3 -29.25 -4.3 -29.3 -4.25 -29.35 -4.25 -29.4 -4.15 -29.45 -4.15 -29.5 -4.1 -29.5 -4.0 -29.6 -3.9 -29.6 -3.85 -29.65 -3.75 -29.7 -3.6 -29.85 -3.6 -29.9 -3.5 -29.95 -3.45 -29.95 -3.45 -30.0 -3.25 -30.2 -3.25 -30.25 -3.2 -30.25 -3.2 -30.3 -3.25 -30.35 -3.25 -30.5 -3.45 -30.5 -3.5 -30.55 -3.6 -30.6 -3.65 -30.65 -3.7 -30.65 -3.7 -30.8 -3.6 -30.9 -3.6 -31.1 -3.5 -31.2 -3.5 -31.25 -3.45 -31.3 -3.3 -31.35 -3.15 -31.45 -2.9 -31.45 -2.8 -31.5 -2.0 -31.5 -1.8 -31.4 -1.8 -31.2 -1.7 -31.1 -1.7 -31.0 -1.65 -30.95 -1.35 -30.8 -1.15 -30.8 -1.1 -30.85 -1.05 -30.85 -1.05 -30.9 -0.95 -31.0 -0.95 -31.1 -0.85 -31.2 -0.85 -31.55 -0.8 -31.55 -0.75 -31.6 -0.75 -31.8 -0.8 -31.85 -0.8 -31.9 -0.9 -31.95 -0.95 -31.95 -1.1 -32.1 -1.1 -32.6 -1.05 -32.6 -1.05 -32.65 -0.9 -32.8 -0.75 -32.8 -0.55 -32.75 -0.35 -32.75 -0.25 -32.8 0.95 -32.8 1.0 -32.75 1.15 -32.75 1.35 -32.65 1.4 -32.6 1.45 -32.6 M0.3 -30.5 L0.4 -30.4 0.3 -30.35 0.1 -30.35 0.0 -30.3 Q-0.05 -30.3 -0.15 -30.3 L-0.25 -30.2 -0.55 -30.15 -0.75 -30.25 -0.85 -30.25 -0.9 -30.3 -0.9 -30.55 -0.85 -30.65 -0.85 -30.75 -0.8 -30.8 -0.7 -30.8 -0.6 -30.7 -0.6 -30.65 -0.55 -30.55 -0.55 -30.5 -0.25 -30.5 -0.2 -30.55 -0.1 -30.6 0.0 -30.6 0.25 -30.55 0.3 -30.5 M0.25 -27.45 L0.35 -27.4 0.4 -27.4 0.45 -27.35 0.65 -27.25 0.75 -27.25 0.75 -27.2 1.15 -27.2 1.2 -27.25 1.25 -27.25 1.4 -27.3 1.45 -27.35 1.45 -27.4 1.5 -27.45 1.6 -27.5 1.65 -27.55 1.75 -27.6 1.75 -27.65 1.85 -27.7 1.9 -27.75 2.25 -27.75 2.4 -27.7 2.5 -27.6 2.55 -27.6 2.85 -27.5 2.95 -27.45 2.95 -27.3 3.0 -27.25 3.0 -27.2 3.15 -27.05 3.2 -26.95 3.4 -26.85 3.6 -26.7 3.8 -26.6 3.95 -26.6 4.05 -26.55 4.1 -26.5 4.15 -26.5 4.65 -26.45 4.95 -26.4 5.0 -26.35 5.1 -26.3 5.15 -26.25 5.65 -26.25 5.95 -26.55 5.95 -26.6 6.1 -26.75 6.25 -26.8 6.4 -26.8 6.55 -26.85 6.9 -26.85 7.05 -26.8 7.1 -26.75 7.25 -26.75 7.4 -26.7 7.5 -26.65 7.5 -26.6 7.55 -26.6 7.65 -26.5 7.75 -26.5 7.9 -26.45 8.1 -26.45 8.2 -26.5 8.25 -26.5 8.4 -26.45 8.5 -26.35 8.5 -26.3 8.7 -26.2 8.75 -26.15 8.75 -25.9 8.7 -25.9 8.6 -25.85 Q8.65 -25.8 8.75 -25.8 L9.1 -25.8 9.3 -25.7 9.4 -25.6 9.4 -25.55 9.45 -25.5 9.5 -25.5 9.5 -25.4 9.6 -25.3 9.6 -25.05 9.7 -24.95 9.7 -24.9 9.75 -24.85 9.85 -24.85 9.9 -24.8 10.05 -24.75 10.4 -24.75 Q10.65 -24.8 10.9 -24.9 L11.2 -24.9 11.65 -24.85 11.85 -24.75 11.85 -24.45 11.8 -24.4 11.75 -24.4 11.75 -24.3 11.7 -24.25 11.8 -24.15 11.8 -24.05 11.85 -24.0 11.85 -23.95 11.9 -23.9 11.95 -23.8 12.15 -23.6 12.15 -23.45 12.25 -23.35 12.3 -23.25 12.35 -23.2 12.35 -23.05 12.45 -22.95 12.45 -22.35 Q12.45 -22.25 12.4 -22.15 L12.4 -22.1 12.25 -22.0 12.15 -21.95 12.1 -21.95 12.0 -21.9 11.95 -21.85 11.95 -21.8 11.85 -21.75 11.75 -21.75 11.5 -21.7 11.45 -21.65 11.35 -21.65 11.2 -21.6 11.2 -21.55 10.9 -21.6 10.85 -21.6 10.55 -21.65 10.35 -21.7 10.25 -21.7 10.2 -21.75 9.85 -21.8 9.7 -21.85 9.65 -21.85 9.35 -22.0 9.25 -22.1 9.2 -22.1 9.05 -22.15 8.95 -22.25 8.75 -22.3 8.45 -22.4 Q8.35 -22.45 8.3 -22.55 L8.25 -22.6 8.25 -22.65 8.2 -22.65 8.05 -22.7 7.9 -22.85 7.85 -22.85 7.5 -22.9 7.45 -22.9 7.35 -22.95 7.1 -22.95 6.9 -22.9 6.8 -22.85 5.9 -22.8 5.95 -22.75 6.1 -22.7 6.15 -22.65 6.15 -22.45 6.05 -22.35 6.05 -22.25 6.0 -22.2 6.0 -22.1 5.95 -22.1 5.95 -22.05 5.85 -21.95 5.65 -21.8 5.3 -21.75 5.25 -21.75 5.2 -21.7 4.65 -21.65 4.5 -21.6 4.45 -21.6 4.2 -21.55 4.05 -21.5 4.0 -21.45 3.2 -21.45 3.05 -21.5 2.8 -21.55 2.75 -21.55 2.6 -21.6 1.35 -21.6 1.25 -21.65 1.2 -21.65 1.1 -21.75 1.1 -21.8 1.0 -21.85 0.95 -21.9 0.95 -21.95 0.9 -21.95 0.9 -22.0 0.85 -22.05 0.85 -22.1 0.6 -22.15 0.45 -22.3 0.45 -22.35 0.4 -22.35 0.35 -22.4 0.25 -22.35 0.2 -22.3 0.1 -22.25 0.0 -22.3 0.0 -22.15 -0.3 -21.85 -0.35 -21.85 -0.5 -21.8 -0.55 -21.75 -0.8 -21.7 -1.15 -21.65 -1.2 -21.6 -1.2 -21.55 -1.3 -21.5 -1.35 -21.45 -1.5 -21.4 -1.55 -21.4 -1.65 -21.35 -2.1 -21.35 -2.4 -21.4 -2.65 -21.45 -2.75 -21.5 -2.75 -21.55 -3.05 -21.55 -3.1 -21.6 -3.2 -21.65 -3.3 -21.75 -3.45 -21.75 -3.6 -21.8 -3.65 -21.85 -3.75 -21.9 -3.8 -21.95 -3.95 -21.95 -4.2 -22.0 -4.3 -22.0 -4.4 -21.95 -4.45 -21.9 -4.6 -21.85 -4.7 -21.8 -4.8 -21.7 -4.8 -21.3 -4.9 -21.2 -5.0 -21.15 -5.15 -21.1 -5.2 -21.1 Q-5.25 -21.05 -5.35 -21.05 L-5.5 -20.95 -5.55 -20.85 Q-5.65 -20.8 -5.7 -20.75 L-5.8 -20.7 -5.8 -20.6 -5.9 -20.55 -6.0 -20.55 -6.15 -20.5 -6.2 -20.5 -6.3 -20.45 -6.4 -20.35 -6.55 -20.35 -6.65 -20.3 -6.7 -20.25 -6.9 -20.15 -7.0 -20.05 -7.05 -20.05 -7.1 -20.0 -7.2 -20.0 -7.3 -19.95 -7.35 -19.9 -7.45 -19.85 -7.65 -19.85 -7.8 -19.8 -7.85 -19.8 -7.95 -19.75 -8.0 -19.7 -8.15 -19.65 -8.2 -19.6 -8.3 -19.55 -8.35 -19.5 -8.35 -19.4 -8.4 -19.4 -8.3 -19.35 -7.8 -19.35 -7.7 -19.3 -7.6 -19.2 -7.6 -19.15 -7.55 -19.1 -7.45 -19.1 -7.4 -19.05 -7.2 -19.0 -6.75 -18.95 -6.45 -18.85 -6.3 -18.75 -6.15 -18.7 -6.05 -18.6 -5.95 -18.55 -5.75 -18.55 -5.6 -18.5 -5.55 -18.45 -5.5 -18.45 -5.3 -18.4 -5.15 -18.4 -5.1 -18.35 -4.9 -18.35 -4.8 -18.4 -4.45 -18.4 -4.35 -18.35 -4.15 -18.3 -3.8 -18.25 -3.3 -18.25 -3.0 -18.35 -2.75 -18.4 Q-2.65 -18.45 -2.55 -18.5 L-2.35 -18.5 -2.25 -18.45 -2.1 -18.45 -1.9 -18.35 -1.8 -18.35 -1.55 -18.3 -1.45 -18.3 -1.35 -18.25 -1.3 -18.2 -1.2 -18.2 -1.05 -18.15 -0.95 -18.05 -0.9 -18.05 -0.7 -17.85 -0.7 -17.75 -0.65 -17.7 -0.6 -17.7 -0.6 -16.85 -0.75 -16.7 Q-0.8 -16.6 -0.95 -16.55 -1.1 -16.45 -1.25 -16.4 L-1.65 -16.25 -1.75 -16.2 -1.85 -16.2 -1.85 -16.1 -1.8 -16.05 -1.7 -16.05 -1.6 -16.0 -1.6 -15.95 -1.35 -15.95 -1.25 -15.9 -1.05 -15.85 -1.0 -15.85 -0.85 -15.8 -0.8 -15.75 -0.7 -15.75 -0.55 -15.6 -0.55 -15.45 -0.45 -15.35 -0.45 -15.3 -0.4 -15.25 -0.4 -15.15 -0.3 -15.05 -0.3 -14.65 -0.2 -14.55 -0.2 -14.2 -0.15 -14.05 Q-0.15 -13.9 -0.2 -13.75 L-0.25 -13.7 -0.3 -13.7 -0.35 -13.65 -0.45 -13.6 -0.6 -13.55 -1.65 -13.6 -1.65 -13.4 -1.7 -13.35 -1.7 -13.3 -1.75 -13.3 -1.8 -13.25 -1.8 -13.2 -1.9 -13.1 -1.85 -13.05 -1.85 -12.85 -1.95 -12.75 -1.9 -12.75 -1.8 -12.7 -1.75 -12.65 -1.55 -12.55 -1.4 -12.6 Q-1.35 -12.6 -1.25 -12.65 L-1.15 -12.75 -1.0 -12.8 -0.8 -12.8 -0.6 -12.7 -0.6 -12.45 -0.5 -12.4 -0.45 -12.4 -0.25 -12.3 -0.15 -12.2 -0.15 -12.15 -0.1 -12.15 -0.05 -12.1 -0.05 -11.75 -0.15 -11.65 -0.15 -11.55 -0.2 -11.5 -0.25 -11.5 -0.25 -11.25 -0.1 -11.1 -0.1 -11.0 -0.05 -10.95 0.3 -10.95 0.4 -11.0 0.45 -11.0 0.55 -11.05 0.6 -11.1 0.75 -11.1 0.85 -11.15 0.9 -11.2 1.0 -11.25 1.1 -11.25 1.25 -11.3 1.45 -11.4 1.55 -11.5 1.7 -11.6 2.5 -11.6 2.55 -11.55 2.65 -11.5 2.65 -11.45 2.75 -11.35 2.8 -11.35 2.8 -11.3 3.0 -11.1 3.0 -11.0 3.05 -11.0 3.1 -10.95 3.1 -10.8 3.15 -10.65 3.15 -10.4 3.25 -10.35 3.35 -10.25 3.35 -10.2 3.45 -10.15 3.45 -10.1 3.55 -10.0 3.55 -9.9 3.5 -9.7 3.45 -9.6 3.45 -9.55 3.25 -9.55 2.45 -9.5 2.4 -9.55 2.25 -9.55 2.2 -9.6 1.85 -9.6 1.7 -9.45 1.6 -9.4 1.55 -9.35 1.4 -9.35 1.35 -9.3 1.25 -9.25 1.2 -9.2 1.2 -9.1 1.4 -9.0 1.45 -8.95 1.5 -8.95 1.6 -8.85 1.6 -8.8 1.7 -8.7 1.7 -8.6 1.65 -8.4 1.7 -8.25 1.6 -8.15 1.6 -8.05 1.5 -7.95 1.45 -7.95 1.35 -7.9 0.95 -7.85 0.9 -7.8 0.75 -7.8 0.55 -7.6 0.3 -7.4 0.2 -7.35 -0.05 -7.35 -0.1 -7.4 -0.1 -7.55 -0.05 -7.6 -0.05 -7.65 0.1 -7.8 0.2 -7.85 0.3 -7.95 0.3 -8.0 0.35 -8.05 0.45 -8.05 0.55 -8.1 0.6 -8.15 0.7 -8.15 0.7 -8.2 0.8 -8.2 1.1 -8.25 1.1 -8.3 1.25 -8.45 1.25 -8.5 1.2 -8.55 1.2 -8.6 1.1 -8.6 1.1 -8.65 1.05 -8.7 0.95 -8.75 0.75 -8.8 0.6 -8.95 0.6 -9.05 0.55 -9.1 0.55 -9.15 0.5 -9.2 0.5 -9.35 0.65 -9.5 0.7 -9.5 0.85 -9.55 1.0 -9.55 1.1 -9.6 1.15 -9.65 1.3 -9.65 1.5 -9.75 1.55 -9.8 1.65 -9.85 2.25 -9.85 2.4 -9.8 2.55 -9.8 2.65 -9.75 2.7 -9.75 Q2.95 -9.75 3.2 -9.75 L3.15 -9.8 3.15 -9.85 3.05 -9.95 3.05 -10.0 3.0 -10.0 3.0 -10.05 2.9 -10.15 2.9 -10.3 2.85 -10.35 2.85 -10.4 2.8 -10.45 2.6 -10.55 2.55 -10.6 2.55 -10.7 2.5 -10.7 2.5 -10.85 2.45 -10.9 2.45 -11.0 2.4 -11.0 2.4 -11.1 2.3 -11.2 2.3 -11.25 2.25 -11.3 1.95 -11.3 1.9 -11.25 1.7 -11.15 1.45 -11.0 1.35 -10.95 Q1.25 -10.95 1.2 -10.9 L1.15 -10.9 0.85 -10.75 0.75 -10.65 0.6 -10.65 0.5 -10.55 -0.5 -10.55 -0.6 -10.6 -0.65 -10.65 -0.65 -10.9 -0.7 -10.95 -0.7 -11.05 -0.75 -11.1 -0.75 -11.3 -0.7 -11.35 -0.7 -11.55 -0.6 -11.65 -0.6 -11.75 -0.5 -11.85 -0.5 -12.0 -0.6 -12.1 -0.7 -12.1 -0.7 -12.15 -0.95 -12.15 -1.05 -12.25 -1.05 -12.3 -1.1 -12.35 -1.1 -12.3 -1.25 -12.3 Q-1.3 -12.3 -1.35 -12.25 L-1.75 -12.25 -1.95 -12.35 -2.0 -12.4 -2.05 -12.4 -2.2 -12.3 -2.25 -12.3 -2.25 -12.25 -2.6 -12.2 -2.65 -12.2 -3.3 -12.15 -3.35 -12.2 -3.45 -12.25 -3.55 -12.35 -3.7 -12.35 -3.85 -12.4 -3.95 -12.45 -4.1 -12.6 -4.2 -12.65 -4.25 -12.7 -4.4 -12.75 -4.45 -12.75 -4.55 -12.8 -4.65 -12.9 -5.05 -12.9 -5.05 -12.8 -5.15 -12.7 -5.15 -12.65 -5.25 -12.55 -5.25 -12.5 -5.4 -12.35 -5.4 -12.3 -5.5 -12.2 -5.5 -12.15 -5.55 -12.15 -5.5 -12.1 -5.3 -12.0 -5.15 -11.9 -5.1 -11.85 -4.95 -11.8 -4.8 -11.65 -4.8 -11.5 -4.75 -11.5 -4.7 -11.45 -4.7 -11.2 -4.8 -11.1 -4.9 -11.1 -5.0 -11.0 -5.1 -10.95 -5.45 -10.85 -5.55 -10.85 -5.75 -10.8 -6.35 -10.7 -6.6 -10.65 -6.6 -10.6 -6.7 -10.5 -6.7 -10.45 -6.65 -10.45 -6.3 -10.4 -6.15 -10.4 -6.1 -10.35 -5.9 -10.3 -5.75 -10.3 -5.55 -10.2 -5.25 -10.2 -5.1 -10.1 -4.8 -9.95 -4.75 -9.9 -4.6 -9.85 -4.55 -9.85 -4.45 -9.75 -4.45 -9.0 -4.55 -8.9 -4.55 -8.3 -4.6 -8.25 -4.6 -8.15 -4.7 -8.05 Q-4.7 -8.0 -4.75 -8.0 L-4.8 -8.05 -4.8 -8.15 -4.85 -8.15 -4.85 -8.2 -4.9 -8.25 -4.9 -9.05 -4.8 -9.15 -4.85 -9.2 -4.85 -9.45 -4.8 -9.55 -4.8 -9.6 -4.85 -9.65 -5.05 -9.65 -5.1 -9.7 -5.1 -9.75 -5.3 -9.8 -5.35 -9.85 -5.45 -9.85 -5.5 -9.9 -6.1 -10.0 Q-6.2 -10.05 -6.3 -10.05 L-6.35 -10.1 -6.85 -10.1 -7.0 -10.2 -7.05 -10.25 -7.2 -10.3 -7.25 -10.35 -7.25 -10.6 -7.2 -10.65 -7.1 -10.7 -7.05 -10.7 -7.05 -10.8 -7.1 -10.85 -7.1 -10.95 -7.05 -11.0 -6.35 -11.0 -6.0 -11.05 -5.85 -11.05 -5.75 -11.1 -5.65 -11.1 -5.45 -11.2 -5.35 -11.2 -5.3 -11.25 -5.2 -11.3 -5.15 -11.35 -5.15 -11.4 -5.25 -11.5 -5.3 -11.5 -5.4 -11.55 -5.45 -11.6 -5.55 -11.65 -5.6 -11.7 -5.8 -11.8 -5.95 -11.8 -6.1 -11.95 -6.1 -12.1 -6.05 -12.15 -6.05 -12.25 -5.95 -12.35 -5.95 -12.4 -5.9 -12.45 -5.9 -12.5 -5.85 -12.5 -5.8 -12.55 -5.7 -12.6 -5.7 -12.65 -5.6 -12.75 -5.6 -12.85 -5.5 -12.95 -5.5 -13.0 -5.55 -13.05 -5.5 -13.1 -5.5 -13.15 -5.4 -13.2 -5.35 -13.2 -5.25 -13.3 -5.1 -13.3 -5.1 -13.35 -5.0 -13.35 -4.9 -13.3 -4.55 -13.25 -4.45 -13.25 -4.35 -13.2 -4.25 -13.2 -4.15 -13.15 -4.15 -13.1 -4.1 -13.05 -3.7 -12.85 -3.7 -12.8 -3.55 -12.65 -3.45 -12.6 -3.25 -12.55 -3.15 -12.5 -3.1 -12.45 -2.65 -12.45 -2.5 -12.5 -2.3 -12.6 -2.25 -12.6 -2.25 -12.65 -2.3 -12.7 -2.4 -12.75 -2.45 -12.75 -2.5 -12.8 -2.5 -12.9 -2.6 -13.0 -2.6 -13.1 -2.55 -13.15 -2.55 -13.2 -2.35 -13.4 -2.35 -13.45 -2.3 -13.45 -2.25 -13.5 -2.25 -13.55 -2.2 -13.6 -2.2 -13.75 -1.95 -14.0 -1.2 -14.0 -1.05 -13.95 -0.9 -13.95 -0.75 -14.0 -0.75 -14.15 -0.7 -14.2 -0.7 -14.35 -0.8 -14.45 -0.8 -14.9 -0.85 -14.95 -0.9 -14.95 -0.9 -15.15 -1.0 -15.2 -1.0 -15.25 -1.05 -15.25 -1.1 -15.3 -1.1 -15.4 -1.2 -15.5 -1.3 -15.55 -1.35 -15.6 -1.45 -15.6 -1.8 -15.65 -1.95 -15.65 -2.05 -15.7 -2.05 -15.75 -2.1 -15.8 -2.25 -15.85 -2.3 -15.85 -2.35 -15.9 -2.45 -15.95 -2.45 -16.15 -2.2 -16.4 -2.1 -16.45 -2.05 -16.5 -1.9 -16.5 -1.8 -16.55 -1.6 -16.6 -1.55 -16.65 -1.45 -16.65 Q-1.4 -16.7 -1.35 -16.7 L-1.3 -16.75 -1.3 -16.8 -1.25 -16.85 -1.15 -16.9 -1.05 -17.0 -1.05 -17.55 -1.1 -17.6 -1.1 -17.65 -1.2 -17.75 -1.2 -17.8 -1.3 -17.9 -1.35 -17.9 -1.55 -17.95 -1.65 -18.0 -1.7 -18.0 -2.0 -18.05 -2.1 -18.1 -2.25 -18.1 -2.4 -18.15 -2.5 -18.15 -2.55 -18.1 -2.75 -18.05 -2.85 -18.0 -2.9 -18.0 -2.9 -17.95 -3.05 -17.95 -4.4 -18.0 -4.45 -18.05 -5.3 -18.05 -5.4 -18.1 Q-5.5 -18.15 -5.65 -18.2 L-6.25 -18.3 -6.35 -18.4 -6.5 -18.5 -6.8 -18.65 -7.1 -18.65 -7.55 -18.75 -7.7 -18.75 -7.85 -18.9 -7.95 -18.95 -8.0 -19.0 -8.05 -19.0 -8.1 -19.05 -8.35 -19.1 -8.8 -19.1 -8.85 -19.15 -8.85 -19.45 -8.8 -19.5 -8.8 -19.55 -8.75 -19.6 -8.75 -19.65 -8.65 -19.75 -8.55 -19.8 -8.4 -19.9 -8.25 -19.95 -8.2 -20.0 -8.15 -20.0 -8.1 -20.05 -8.0 -20.05 -7.9 -20.1 -7.8 -20.1 -7.7 -20.15 -7.65 -20.15 Q-7.6 -20.2 -7.55 -20.2 L-7.35 -20.3 -7.05 -20.5 -6.95 -20.6 -6.85 -20.65 -6.7 -20.7 -6.65 -20.7 Q-6.6 -20.7 -6.55 -20.75 L-6.45 -20.8 -6.3 -20.8 -6.15 -20.85 -6.05 -20.95 -6.0 -21.05 -5.8 -21.15 -5.75 -21.2 -5.6 -21.3 -5.45 -21.35 -5.25 -21.4 -5.25 -21.6 -5.3 -21.65 -5.3 -21.8 -5.25 -21.85 -5.25 -21.9 -5.15 -21.95 -5.1 -21.95 -5.0 -22.0 -4.95 -22.05 -4.8 -22.1 -4.75 -22.15 -4.55 -22.25 -4.55 -22.3 -4.45 -22.3 -4.35 -22.35 -4.2 -22.35 -3.8 -22.25 -3.55 -22.15 -3.35 -22.05 -3.3 -22.05 -3.15 -22.0 -3.05 -21.95 -3.0 -21.9 -2.9 -21.9 -2.8 -21.8 -2.65 -21.8 -2.5 -21.75 -2.45 -21.7 -2.4 -21.7 -2.35 -21.65 -2.0 -21.6 -1.8 -21.6 -1.75 -21.65 -1.6 -21.7 -1.6 -21.8 -1.45 -21.95 -1.35 -21.95 -1.25 -22.0 -0.95 -22.0 Q-0.9 -22.0 -0.8 -22.05 L-0.75 -22.05 -0.6 -22.1 -0.6 -22.15 -0.5 -22.25 -0.5 -22.5 -0.35 -22.65 -0.25 -22.65 -0.15 -22.7 0.0 -22.7 0.05 -22.75 0.4 -22.75 0.65 -22.65 0.75 -22.65 0.75 -22.6 0.9 -22.45 1.1 -22.4 1.2 -22.4 1.3 -22.35 1.3 -22.3 1.45 -22.15 1.45 -22.1 1.5 -22.05 1.5 -21.95 Q2.05 -21.85 2.65 -21.95 2.8 -21.9 2.95 -21.85 L3.3 -21.8 3.75 -21.8 4.05 -21.85 4.25 -21.95 4.65 -22.0 4.95 -22.05 5.05 -22.05 5.1 -22.1 5.2 -22.1 5.4 -22.15 5.5 -22.25 5.5 -22.3 5.55 -22.35 5.55 -22.45 5.6 -22.45 5.45 -22.5 5.35 -22.55 5.3 -22.6 5.3 -22.9 5.45 -23.05 Q5.5 -23.15 5.65 -23.2 L5.75 -23.2 5.8 -23.25 5.95 -23.2 6.7 -23.2 6.85 -23.25 7.25 -23.25 7.9 -23.15 8.1 -23.1 8.2 -23.05 8.25 -23.05 8.35 -23.0 8.45 -22.9 8.55 -22.9 8.65 -22.8 8.65 -22.7 8.75 -22.6 8.85 -22.55 8.9 -22.55 8.95 -22.5 9.0 -22.5 9.2 -22.45 9.3 -22.4 9.35 -22.35 9.45 -22.3 9.5 -22.3 9.55 -22.25 9.65 -22.25 9.75 -22.2 9.8 -22.15 9.9 -22.1 10.0 -22.1 10.2 -22.05 10.25 -22.05 10.75 -21.95 11.05 -21.95 11.1 -22.0 11.2 -22.05 11.25 -22.05 11.6 -22.1 11.75 -22.15 11.9 -22.3 Q11.95 -22.35 11.95 -22.45 L11.95 -22.7 11.9 -22.75 11.9 -22.8 11.85 -22.85 11.85 -23.1 11.75 -23.2 11.65 -23.25 11.65 -23.4 11.6 -23.5 11.4 -23.7 11.4 -23.8 11.3 -23.9 11.3 -23.95 11.2 -24.05 11.2 -24.3 11.25 -24.3 11.25 -24.35 11.3 -24.4 11.3 -24.55 11.1 -24.55 11.05 -24.5 11.0 -24.5 10.7 -24.45 10.65 -24.4 10.0 -24.4 9.85 -24.45 9.6 -24.5 9.4 -24.65 9.3 -24.75 9.25 -24.75 9.15 -24.85 9.15 -25.1 9.05 -25.2 9.05 -25.3 9.0 -25.4 8.9 -25.45 8.45 -25.45 8.35 -25.5 8.25 -25.6 8.1 -25.7 8.05 -25.75 8.05 -26.0 8.1 -26.0 8.15 -26.05 8.1 -26.1 7.9 -26.15 7.85 -26.15 7.85 -26.1 7.45 -26.1 7.25 -26.2 7.1 -26.3 7.1 -26.35 7.0 -26.4 6.85 -26.4 6.75 -26.5 6.6 -26.5 6.55 -26.45 Q6.5 -26.45 6.45 -26.4 L6.4 -26.35 6.4 -26.3 6.25 -26.2 6.05 -26.1 6.05 -26.05 5.95 -25.95 5.85 -25.9 4.95 -25.9 4.85 -25.95 4.75 -26.05 4.7 -26.05 4.1 -26.1 3.95 -26.15 3.8 -26.15 Q3.75 -26.2 3.7 -26.2 L3.7 -26.25 3.65 -26.25 3.3 -26.3 3.25 -26.35 3.2 -26.35 3.15 -26.4 3.15 -26.45 3.05 -26.5 3.0 -26.55 2.85 -26.6 2.8 -26.6 2.7 -26.7 2.7 -26.75 2.6 -26.85 2.45 -26.95 2.45 -27.25 2.4 -27.3 2.25 -27.3 2.15 -27.4 2.15 -27.45 2.05 -27.4 2.0 -27.35 1.7 -27.1 1.45 -26.95 1.35 -26.9 0.55 -26.9 0.35 -27.0 0.25 -27.1 0.2 -27.1 -0.1 -27.15 -0.2 -27.2 -0.2 -27.3 -0.3 -27.4 -0.4 -27.45 -0.4 -27.6 -0.35 -27.65 -0.35 -27.7 -0.3 -27.75 0.05 -27.75 0.15 -27.7 0.2 -27.65 0.2 -27.6 0.25 -27.55 0.25 -27.45 M1.2 -18.3 L1.4 -18.3 1.55 -18.25 1.75 -18.15 1.75 -17.9 1.85 -17.8 1.85 -17.7 1.8 -17.7 1.75 -17.65 1.8 -17.6 1.8 -17.5 2.05 -17.5 2.35 -17.6 2.45 -17.6 2.5 -17.65 2.6 -17.7 2.65 -17.75 3.4 -17.75 3.5 -17.7 3.5 -17.65 3.55 -17.65 Q3.6 -17.65 3.7 -17.6 L3.75 -17.55 3.8 -17.55 3.8 -17.5 3.85 -17.45 3.85 -17.35 4.05 -17.25 4.1 -17.2 4.15 -17.2 4.15 -17.1 4.25 -17.05 4.3 -17.0 4.3 -16.95 4.35 -16.9 4.4 -16.9 4.5 -16.85 4.5 -16.75 4.6 -16.65 4.6 -16.5 4.5 -16.5 4.35 -16.55 4.3 -16.65 4.1 -16.85 3.85 -17.05 3.85 -17.1 3.8 -17.1 3.75 -17.15 3.65 -17.2 3.5 -17.35 3.5 -17.4 3.3 -17.45 3.2 -17.5 3.2 -17.55 2.8 -17.5 2.75 -17.5 2.55 -17.4 2.6 -17.4 2.8 -17.3 2.85 -17.25 2.95 -17.2 3.0 -17.2 3.0 -17.15 2.95 -17.1 2.95 -17.05 2.85 -17.0 2.8 -16.95 2.8 -16.8 2.75 -16.75 2.75 -16.6 2.7 -16.55 2.7 -16.2 2.65 -16.2 2.65 -16.15 2.55 -16.1 2.45 -16.15 2.4 -16.2 2.4 -16.45 Q2.35 -16.55 2.35 -16.6 L2.35 -16.8 2.45 -16.9 2.45 -17.1 2.5 -17.15 2.5 -17.2 2.45 -17.25 2.35 -17.25 2.3 -17.3 2.2 -17.25 1.7 -17.25 1.6 -17.3 1.6 -17.45 1.65 -17.5 1.65 -17.65 1.6 -17.7 1.6 -17.75 1.5 -17.8 1.5 -18.05 1.35 -18.1 1.25 -18.15 1.2 -18.1 1.0 -18.05 0.95 -18.05 0.85 -18.0 0.85 -17.65 0.75 -17.55 0.75 -17.35 0.7 -17.35 0.5 -17.3 0.25 -17.3 0.2 -17.35 0.2 -17.4 0.05 -17.45 0.0 -17.5 -0.55 -17.5 -0.6 -17.55 -0.6 -17.6 -0.55 -17.65 -0.45 -17.7 -0.25 -17.7 -0.2 -17.75 0.3 -17.75 0.35 -17.7 0.35 -17.65 0.4 -17.6 0.5 -17.6 0.5 -17.7 0.55 -17.7 0.6 -17.75 0.6 -18.05 0.65 -18.1 0.85 -18.2 1.0 -18.25 1.1 -18.25 1.2 -18.3 M13.45 -24.25 L13.55 -24.3 13.65 -24.3 13.75 -24.25 13.8 -24.2 13.95 -24.15 14.0 -24.15 14.05 -24.1 14.05 -24.05 14.15 -23.95 14.15 -23.9 14.2 -23.85 14.2 -23.7 Q14.2 -23.65 14.25 -23.55 L14.3 -23.4 14.3 -23.35 14.4 -23.25 14.65 -23.25 14.75 -23.2 14.9 -23.25 15.05 -23.25 15.1 -23.3 15.1 -23.35 15.2 -23.45 15.3 -23.5 15.3 -23.6 15.35 -23.65 15.45 -23.7 16.05 -23.7 16.15 -23.6 16.25 -23.55 16.25 -23.5 16.3 -23.45 16.3 -23.4 16.35 -23.35 16.35 -23.3 16.45 -23.2 16.45 -22.95 16.4 -22.9 16.3 -22.85 16.2 -22.75 16.2 -22.6 16.8 -22.6 16.85 -22.65 16.95 -22.65 17.0 -22.7 17.25 -22.65 17.35 -22.65 17.4 -22.6 17.5 -22.55 17.65 -22.5 17.7 -22.45 17.8 -22.4 17.85 -22.35 17.9 -22.35 17.9 -22.15 17.85 -22.1 17.85 -22.05 17.8 -22.05 17.8 -22.0 18.25 -22.0 18.3 -21.95 18.35 -21.95 18.6 -21.9 18.75 -21.85 18.85 -21.85 18.95 -21.75 18.95 -21.7 19.05 -21.65 19.05 -21.55 19.15 -21.55 19.15 -21.3 19.1 -21.25 19.1 -21.2 19.05 -21.15 18.95 -21.15 18.85 -21.25 18.85 -21.4 18.8 -21.45 18.8 -21.5 18.75 -21.55 18.7 -21.55 18.7 -21.6 18.6 -21.7 18.45 -21.7 18.45 -21.75 18.2 -21.75 18.15 -21.8 17.55 -21.8 17.5 -21.85 17.5 -22.1 17.55 -22.15 17.55 -22.25 17.15 -22.45 17.05 -22.45 16.9 -22.4 16.2 -22.4 16.15 -22.45 16.1 -22.45 16.1 -22.4 15.4 -22.4 15.1 -22.25 15.1 -22.2 15.15 -22.15 15.15 -22.05 15.2 -22.0 15.2 -21.95 15.1 -21.85 14.9 -21.95 14.85 -22.0 14.85 -22.05 14.8 -22.1 14.75 -22.1 14.65 -22.2 14.65 -22.35 14.7 -22.4 14.8 -22.4 15.1 -22.5 15.2 -22.55 15.75 -22.55 15.8 -22.6 15.8 -22.65 15.75 -22.7 15.75 -22.75 15.95 -22.95 16.05 -23.0 16.1 -23.05 16.1 -23.1 16.05 -23.15 16.05 -23.2 15.9 -23.35 15.9 -23.4 15.8 -23.45 15.6 -23.45 15.55 -23.35 15.4 -23.3 15.2 -23.15 15.15 -23.1 15.05 -23.1 15.0 -23.05 14.8 -23.05 14.75 -23.0 14.75 -22.95 14.45 -22.95 14.4 -23.0 14.15 -23.05 14.1 -23.05 14.05 -23.1 13.95 -23.15 13.9 -23.2 13.9 -23.5 13.95 -23.65 13.95 -23.7 13.9 -23.75 13.9 -23.8 13.7 -24.0 13.6 -24.0 13.55 -23.95 13.45 -23.9 13.4 -23.85 13.3 -23.8 13.25 -23.75 13.1 -23.7 12.8 -23.5 12.65 -23.5 12.6 -23.45 12.45 -23.45 12.4 -23.5 12.5 -23.6 12.5 -23.65 12.55 -23.7 12.6 -23.7 12.75 -23.75 12.9 -23.9 13.1 -24.0 13.2 -24.1 13.4 -24.25 13.45 -24.25 M-40.5 -22.75 L-40.65 -22.8 -40.7 -22.85 -40.8 -22.9 -40.9 -23.0 -40.9 -23.15 -41.0 -23.15 -41.05 -23.2 -41.2 -23.25 -41.3 -23.3 -41.4 -23.4 -41.85 -23.45 -41.9 -23.45 -41.95 -23.5 -42.25 -23.55 -42.6 -23.55 -42.95 -23.6 -43.05 -23.6 -43.25 -23.55 -43.35 -23.45 -43.35 -23.25 -43.4 -23.25 -43.4 -23.1 -43.5 -23.0 -43.5 -22.9 -43.3 -22.85 -43.2 -22.8 -43.1 -22.8 -42.9 -22.7 -42.9 -22.65 -42.85 -22.6 -42.85 -22.55 -42.8 -22.55 -42.7 -22.5 -42.7 -22.45 -42.65 -22.4 -42.65 -22.3 -42.6 -22.25 -42.6 -22.2 -42.55 -22.15 -42.45 -22.15 -42.4 -22.1 -42.1 -22.1 -42.0 -22.05 -41.95 -22.0 -41.95 -21.95 -41.85 -21.9 -41.7 -21.85 -41.65 -21.8 -41.6 -21.8 -41.55 -21.75 -41.4 -21.7 -41.2 -21.65 -40.9 -21.6 -40.3 -21.6 -40.15 -21.75 -39.95 -21.8 -39.55 -21.8 -39.45 -21.75 -39.4 -21.7 -39.1 -21.7 -39.0 -21.65 -38.4 -21.6 -38.0 -21.6 -37.9 -21.55 -37.85 -21.55 -37.7 -21.5 -37.6 -21.45 -37.4 -21.45 -37.1 -21.35 -37.0 -21.3 -36.85 -21.2 -36.7 -21.15 -36.65 -21.05 -36.55 -20.95 -36.55 -20.85 -36.5 -20.85 -36.4 -20.95 -36.35 -20.95 -36.15 -21.05 -36.1 -21.05 -36.0 -21.1 -35.65 -21.1 -35.65 -21.25 -35.6 -21.25 -35.6 -21.35 -35.65 -21.4 -35.65 -21.45 -35.7 -21.5 -35.7 -21.55 -35.8 -21.6 -35.8 -21.65 -35.85 -21.65 -35.85 -21.75 -36.0 -21.9 -36.0 -21.95 -36.05 -21.95 -36.1 -22.0 -36.1 -22.05 -36.15 -22.05 -36.3 -22.1 -36.35 -22.1 -36.75 -22.15 -37.1 -22.1 -37.1 -22.15 Q-37.2 -22.15 -37.25 -22.15 L-37.25 -22.2 -38.2 -22.25 -38.7 -22.25 -38.75 -22.3 -38.85 -22.35 -39.0 -22.4 -39.0 -22.45 -39.25 -22.45 -39.3 -22.5 -39.4 -22.5 -39.45 -22.55 -39.8 -22.55 -39.9 -22.6 -39.95 -22.65 -40.0 -22.65 -40.0 -22.6 -40.2 -22.6 -40.4 -22.7 -40.45 -22.75 -40.5 -22.75" fill="#ffffff" fill-rule="evenodd" stroke="none"/>
  </g>
</svg>
