<?xml version="1.0" encoding="UTF-8" standalone="no"?>
<svg xmlns:ffdec="https://www.free-decompiler.com/flash" xmlns:xlink="http://www.w3.org/1999/xlink" ffdec:objectType="shape" height="23.65px" width="64.35px" xmlns="http://www.w3.org/2000/svg">
  <g transform="matrix(1.0, 0.0, 0.0, 1.0, 53.9, 31.7)">
    <path d="M2.1 -27.2 L2.6 -27.2 2.6 -27.25 2.65 -27.25 2.8 -27.4 2.8 -27.45 2.85 -27.5 3.3 -27.5 3.4 -27.45 3.5 -27.35 3.6 -27.3 3.6 -27.25 3.65 -27.2 3.75 -27.2 3.8 -27.15 3.8 -27.1 3.9 -27.0 3.9 -26.8 3.85 -26.8 3.85 -26.75 3.8 -26.7 3.9 -26.65 3.95 -26.6 4.1 -26.5 4.15 -26.45 4.15 -26.4 4.25 -26.3 4.3 -26.2 4.45 -26.05 4.45 -25.95 4.55 -25.85 4.75 -25.8 4.75 -25.75 4.85 -25.7 4.95 -25.6 5.0 -25.5 5.1 -25.4 5.2 -25.35 5.25 -25.3 5.35 -25.25 5.4 -25.2 5.45 -25.2 5.65 -25.1 5.65 -25.05 5.75 -25.0 5.75 -24.95 5.8 -24.9 5.8 -24.8 5.85 -24.75 5.8 -24.65 5.8 -24.45 Q5.75 -24.35 5.8 -24.25 L5.8 -24.0 5.75 -23.95 5.55 -23.95 5.0 -23.9 4.9 -23.85 4.85 -23.8 4.75 -23.75 4.7 -23.7 4.55 -23.6 4.5 -23.55 4.5 -23.5 4.45 -23.45 4.3 -23.4 4.25 -23.35 4.25 -23.3 4.2 -23.25 4.15 -23.25 3.9 -23.0 3.9 -22.95 3.8 -22.85 3.75 -22.85 3.75 -22.8 3.7 -22.75 3.7 -22.7 3.55 -22.55 3.5 -22.55 3.5 -22.5 3.45 -22.45 3.45 -22.35 3.4 -22.3 3.4 -22.2 3.35 -22.15 3.25 -22.1 3.25 -22.05 3.15 -21.95 3.15 -21.9 3.1 -21.85 3.05 -21.85 3.05 -21.8 2.9 -21.65 2.8 -21.6 2.75 -21.55 2.65 -21.5 2.5 -21.5 2.35 -21.35 2.0 -21.35 1.7 -21.4 1.65 -21.45 1.55 -21.5 1.55 -21.55 1.5 -21.6 1.5 -21.95 1.4 -22.05 1.25 -22.05 1.05 -22.15 0.75 -22.15 0.65 -22.05 0.5 -22.0 0.4 -21.9 0.25 -21.9 0.1 -21.85 -0.15 -21.85 -0.2 -21.8 -0.2 -21.75 Q-0.25 -21.65 -0.35 -21.6 L-0.55 -21.45 -0.65 -21.4 -0.8 -21.35 -0.85 -21.3 -1.05 -21.25 -1.1 -21.2 -1.3 -21.1 -1.55 -21.05 -1.65 -21.05 -1.7 -21.0 -1.75 -21.0 -1.9 -20.95 Q-2.0 -20.9 -2.05 -20.9 L-2.15 -20.8 -2.25 -20.8 -2.3 -20.75 -2.65 -20.75 -2.75 -20.8 -2.85 -20.9 -3.0 -20.95 -3.2 -20.95 -3.8 -21.05 -3.85 -21.0 -4.05 -20.85 -4.15 -20.8 -4.15 -20.75 -4.2 -20.7 -4.2 -20.3 -4.25 -20.25 -4.15 -20.15 -4.05 -20.1 -4.05 -19.8 -4.0 -19.75 -3.95 -19.65 -3.95 -19.2 -3.85 -19.1 -3.75 -19.05 -3.5 -19.05 -3.35 -19.1 -3.3 -19.15 -3.2 -19.15 Q-3.0 -19.2 -2.8 -19.25 L-2.75 -19.25 -2.3 -19.4 Q-2.15 -19.5 -2.0 -19.55 L-1.9 -19.6 -1.8 -19.6 -1.7 -19.65 -1.65 -19.7 -1.45 -19.8 -1.35 -19.8 -1.3 -19.85 -1.2 -19.9 -1.05 -19.9 -0.9 -19.95 -0.75 -19.95 -0.6 -19.9 -0.55 -19.85 -0.55 -19.8 -0.45 -19.7 -0.35 -19.65 -0.25 -19.65 -0.2 -19.6 -0.05 -19.5 0.0 -19.5 0.2 -19.4 0.3 -19.3 0.55 -19.3 0.65 -19.25 1.0 -19.25 1.15 -19.2 1.5 -19.2 1.65 -19.25 2.05 -19.25 2.2 -19.3 2.6 -19.3 2.75 -19.35 2.95 -19.4 3.0 -19.4 3.1 -19.45 3.2 -19.45 3.55 -19.55 3.65 -19.55 3.75 -19.5 4.4 -19.5 4.55 -19.55 5.1 -19.55 5.2 -19.5 5.55 -19.45 5.65 -19.4 5.75 -19.3 6.15 -19.3 6.2 -19.25 6.2 -19.2 6.25 -19.15 6.25 -19.0 6.2 -18.95 6.2 -18.85 6.25 -18.85 6.3 -18.8 6.4 -18.75 6.5 -18.75 6.5 -18.7 6.6 -18.6 6.6 -18.5 6.7 -18.4 6.7 -18.2 6.65 -18.15 6.65 -18.05 6.6 -18.05 6.6 -18.0 6.55 -17.95 6.95 -17.95 7.1 -18.0 7.2 -18.05 7.25 -18.1 7.35 -18.15 7.5 -18.2 7.55 -18.2 7.55 -18.25 7.65 -18.35 7.65 -18.5 7.7 -18.5 7.75 -18.55 7.85 -18.6 7.9 -18.6 8.5 -18.65 8.6 -18.75 8.65 -18.75 8.75 -18.8 9.25 -18.75 9.35 -18.75 9.4 -18.65 Q9.45 -18.55 9.55 -18.5 L9.75 -18.4 9.75 -18.35 9.8 -18.3 9.8 -18.15 9.7 -18.05 9.65 -18.05 9.75 -17.95 9.9 -17.85 9.9 -17.75 9.95 -17.7 10.0 -17.7 10.05 -17.65 10.05 -17.55 9.95 -17.45 8.9 -17.45 8.95 -17.4 9.1 -17.35 9.2 -17.25 9.35 -17.25 9.5 -17.2 9.55 -17.15 9.65 -17.15 9.7 -17.1 9.7 -17.05 9.75 -17.0 9.95 -16.9 10.0 -16.9 10.2 -16.8 10.35 -16.7 Q10.45 -16.65 10.45 -16.6 L10.35 -16.5 10.3 -16.4 10.15 -16.3 10.05 -16.15 9.95 -16.05 Q9.85 -16.0 9.8 -15.95 L9.7 -15.8 9.6 -15.75 9.55 -15.65 9.45 -15.6 9.4 -15.55 9.3 -15.5 9.3 -15.6 9.35 -15.65 9.35 -15.8 9.45 -15.9 9.45 -15.95 9.55 -16.05 9.55 -16.1 9.65 -16.2 9.75 -16.25 Q9.8 -16.35 9.9 -16.4 L9.95 -16.45 9.95 -16.5 10.0 -16.55 9.95 -16.55 9.9 -16.6 9.75 -16.7 9.6 -16.75 9.45 -16.9 9.35 -16.95 9.35 -17.0 9.2 -17.0 9.05 -17.05 9.0 -17.1 8.9 -17.1 8.8 -17.15 8.75 -17.1 8.75 -17.05 8.65 -16.95 8.65 -16.7 8.6 -16.65 8.7 -16.6 8.7 -16.55 8.75 -16.5 8.75 -16.45 8.7 -16.4 8.7 -16.35 8.6 -16.3 8.45 -16.3 8.15 -16.2 8.0 -16.1 7.9 -16.05 7.75 -16.05 7.8 -16.1 8.0 -16.2 8.15 -16.3 8.25 -16.3 8.35 -16.35 8.4 -16.4 8.5 -16.45 8.5 -16.5 8.45 -16.55 8.35 -16.6 8.35 -16.7 8.45 -16.8 8.45 -17.0 8.55 -17.1 8.55 -17.15 8.6 -17.2 8.6 -17.3 8.5 -17.4 8.5 -17.6 8.55 -17.65 8.6 -17.65 8.65 -17.7 9.1 -17.7 9.2 -17.65 9.55 -17.65 9.55 -17.7 9.45 -17.8 9.25 -17.9 9.25 -17.95 9.2 -17.95 9.2 -18.05 9.25 -18.15 9.45 -18.3 9.5 -18.3 9.35 -18.35 9.3 -18.4 9.25 -18.4 9.2 -18.45 9.2 -18.5 9.15 -18.55 9.15 -18.6 8.8 -18.6 8.8 -18.55 8.7 -18.45 8.6 -18.4 8.0 -18.4 8.0 -18.25 7.95 -18.2 7.85 -18.15 7.65 -17.95 7.5 -17.95 7.4 -17.85 7.25 -17.8 7.2 -17.75 7.05 -17.75 6.35 -17.7 6.25 -17.75 6.2 -17.75 6.2 -17.7 6.1 -17.6 6.05 -17.5 6.0 -17.45 6.0 -17.4 5.95 -17.35 5.95 -17.3 5.9 -17.25 5.9 -17.05 5.8 -16.95 5.8 -16.8 5.85 -16.7 5.85 -16.4 5.65 -16.2 5.6 -16.2 5.55 -16.15 5.45 -16.15 5.3 -16.2 4.8 -16.2 4.4 -16.15 4.35 -16.1 4.2 -16.05 4.05 -15.95 4.05 -15.9 4.0 -15.8 4.0 -15.7 4.05 -15.65 4.05 -15.4 4.1 -15.35 4.1 -15.05 4.2 -14.95 4.2 -14.8 Q4.15 -14.7 4.05 -14.6 L3.9 -14.45 3.75 -14.4 3.7 -14.35 3.55 -14.25 3.5 -14.2 3.5 -14.15 3.45 -14.15 3.3 -14.0 3.25 -14.0 3.05 -13.9 3.0 -13.9 2.9 -13.85 2.2 -13.8 2.05 -13.85 1.95 -13.9 1.95 -13.95 1.85 -14.05 1.65 -14.05 1.3 -14.15 1.1 -14.3 1.0 -14.4 0.9 -14.45 0.75 -14.55 0.7 -14.55 0.55 -14.6 Q0.4 -14.7 0.3 -14.85 L0.25 -14.95 0.15 -15.05 0.05 -15.2 -0.2 -15.45 -0.3 -15.5 -0.35 -15.55 -0.35 -15.6 -0.4 -15.6 -0.5 -15.65 -0.55 -15.7 -0.55 -15.75 -0.65 -15.75 -0.75 -15.7 -1.05 -15.6 -1.25 -15.55 -1.3 -15.5 -1.45 -15.5 -1.6 -15.45 -1.65 -15.4 -1.7 -15.4 -1.75 -15.35 -1.85 -15.35 -1.85 -15.05 -1.9 -15.0 -2.05 -14.9 -2.1 -14.9 -2.3 -14.85 -2.35 -14.8 -2.65 -14.65 -2.7 -14.6 -2.8 -14.6 -2.9 -14.5 -2.9 -14.45 -2.7 -14.35 -2.6 -14.35 -2.55 -14.3 -2.25 -14.3 -2.2 -14.35 -2.1 -14.3 -2.0 -14.3 -1.95 -14.25 -1.95 -14.2 -1.8 -14.05 -1.6 -14.0 -1.55 -13.95 -1.55 -13.8 -1.45 -13.7 -1.45 -13.65 -1.5 -13.6 -1.35 -13.45 -1.35 -13.35 -1.4 -13.3 -1.4 -13.05 -1.45 -13.0 -1.45 -12.95 -1.55 -12.85 -1.55 -12.8 -1.45 -12.8 -1.4 -12.85 -1.2 -12.9 -1.1 -12.95 -0.65 -12.95 -0.45 -12.85 -0.4 -12.85 -0.4 -12.5 -0.35 -12.5 -0.2 -12.35 -0.2 -12.3 -0.15 -12.25 -0.15 -12.15 -0.05 -12.15 0.05 -12.05 0.05 -11.85 Q0.05 -11.8 0.1 -11.75 L0.1 -11.6 Q0.05 -11.5 -0.1 -11.4 L-0.5 -11.1 Q-0.65 -11.0 -0.7 -10.85 L-0.7 -10.8 -0.75 -10.8 -0.8 -10.75 -0.8 -10.45 -0.45 -10.4 -0.2 -10.35 -0.05 -10.35 0.2 -10.3 0.4 -10.3 0.45 -10.35 0.55 -10.4 0.6 -10.45 0.7 -10.5 0.75 -10.5 0.85 -10.55 0.9 -10.55 1.0 -10.6 Q1.0 -10.7 1.1 -10.75 L1.3 -10.85 1.5 -11.0 1.65 -11.05 1.7 -11.1 1.75 -11.1 1.75 -11.15 1.85 -11.2 1.85 -11.3 2.15 -11.45 2.45 -11.7 2.55 -11.8 3.05 -11.8 3.1 -11.75 3.4 -11.6 3.45 -11.6 3.75 -11.4 3.85 -11.3 4.1 -11.3 4.2 -11.25 4.25 -11.2 4.3 -11.2 4.45 -11.15 4.55 -11.15 4.6 -11.1 4.6 -11.05 4.65 -11.05 4.75 -11.0 4.8 -11.0 4.8 -10.9 4.75 -10.85 4.8 -10.8 4.8 -10.7 4.9 -10.6 4.9 -10.4 5.0 -10.3 5.05 -10.3 5.05 -10.05 5.1 -10.0 5.1 -9.9 5.0 -9.8 4.9 -9.8 4.55 -9.75 4.55 -9.7 3.75 -9.65 3.7 -9.65 3.5 -9.55 3.45 -9.5 3.5 -9.45 3.6 -9.4 3.6 -9.35 3.7 -9.25 3.7 -9.2 3.75 -9.15 3.75 -9.05 3.7 -9.0 3.7 -8.95 3.65 -8.9 3.65 -8.8 3.6 -8.8 3.5 -8.7 3.5 -8.65 3.45 -8.6 3.45 -8.55 3.3 -8.4 3.25 -8.3 3.15 -8.2 3.05 -8.15 2.95 -8.15 2.85 -8.05 2.75 -8.05 2.75 -8.2 2.8 -8.25 2.8 -8.3 2.9 -8.4 2.9 -8.45 3.0 -8.55 3.0 -8.6 3.1 -8.7 3.1 -8.8 3.2 -8.9 3.2 -8.95 3.25 -8.95 3.25 -9.15 3.2 -9.25 3.1 -9.3 3.0 -9.4 3.0 -9.65 3.2 -9.75 3.2 -9.8 3.3 -9.9 3.35 -9.9 3.45 -9.95 3.6 -9.95 3.75 -10.0 4.4 -10.0 4.55 -10.05 4.75 -10.05 4.75 -10.2 4.7 -10.25 4.6 -10.3 4.55 -10.35 4.55 -10.5 4.5 -10.55 4.5 -10.7 4.25 -10.95 4.15 -11.0 4.1 -11.0 3.8 -11.15 3.75 -11.2 3.65 -11.2 3.45 -11.25 3.3 -11.25 3.25 -11.3 3.15 -11.35 3.0 -11.4 2.85 -11.4 Q2.8 -11.45 2.75 -11.45 L2.7 -11.4 2.7 -11.35 2.65 -11.35 2.55 -11.3 2.45 -11.2 2.25 -11.1 2.2 -11.1 2.05 -10.95 2.05 -10.9 Q1.95 -10.85 1.8 -10.8 L1.5 -10.65 1.35 -10.55 1.35 -10.5 1.3 -10.45 1.25 -10.45 1.2 -10.4 1.05 -10.35 1.0 -10.3 0.95 -10.3 0.75 -10.25 0.65 -10.15 0.8 -10.2 Q1.2 -10.15 1.45 -10.25 L1.75 -10.25 1.85 -10.2 1.9 -10.2 1.9 -9.95 1.7 -9.75 1.7 -9.7 1.65 -9.65 1.65 -9.55 1.7 -9.5 1.65 -9.5 1.65 -9.45 1.6 -9.4 1.6 -9.2 1.55 -9.15 1.5 -9.15 1.45 -9.1 1.35 -9.1 1.35 -9.05 0.9 -9.05 0.75 -9.1 0.7 -9.15 0.65 -9.15 0.45 -9.2 0.35 -9.2 0.25 -9.15 0.15 -9.05 0.15 -9.0 0.1 -8.95 0.1 -8.8 0.15 -8.75 0.15 -8.65 0.05 -8.55 0.05 -8.45 0.0 -8.4 0.0 -8.35 -0.05 -8.35 -0.1 -8.3 -0.1 -8.25 -0.15 -8.2 -0.3 -8.2 -0.3 -8.35 -0.25 -8.4 -0.25 -8.55 -0.2 -8.6 -0.2 -8.65 -0.25 -8.7 -0.25 -8.95 -0.15 -9.05 0.0 -9.05 0.0 -9.1 -0.05 -9.15 -0.05 -9.2 0.0 -9.25 0.0 -9.3 0.05 -9.35 0.05 -9.4 0.15 -9.5 0.65 -9.5 0.8 -9.45 0.95 -9.45 1.05 -9.35 1.25 -9.35 1.35 -9.45 1.35 -9.5 1.4 -9.55 1.4 -9.85 1.5 -9.95 0.75 -9.95 0.55 -10.0 0.5 -10.05 0.45 -10.05 0.35 -10.0 0.25 -10.0 0.15 -10.05 -0.2 -10.1 -0.95 -10.15 -1.0 -10.2 -1.15 -10.25 -1.25 -10.3 -1.3 -10.35 -1.3 -10.6 -1.25 -10.65 -1.25 -10.7 -1.2 -10.75 -1.2 -10.9 -1.15 -10.9 -1.1 -10.95 -1.1 -11.05 -1.0 -11.15 -0.85 -11.25 -0.65 -11.35 -0.65 -11.4 -0.55 -11.5 -0.35 -11.6 -0.3 -11.6 -0.3 -11.7 -0.25 -11.75 -0.25 -11.85 -0.35 -11.95 -0.5 -12.0 -0.55 -12.05 -0.55 -12.15 -0.5 -12.2 -0.5 -12.25 -0.4 -12.3 -0.5 -12.35 -0.55 -12.4 -0.6 -12.4 -0.7 -12.5 -0.7 -12.6 -0.75 -12.65 -0.85 -12.65 -1.1 -12.55 -1.3 -12.45 -1.35 -12.4 -1.45 -12.4 -1.75 -12.35 -1.95 -12.45 -1.95 -12.0 -2.1 -11.85 Q-2.15 -11.75 -2.2 -11.7 L-2.4 -11.6 -2.45 -11.55 -2.95 -11.55 -3.0 -11.5 -3.0 -11.45 -3.05 -11.4 -2.95 -11.3 -2.95 -11.25 -2.9 -11.15 -2.75 -11.0 -2.6 -10.95 -2.55 -10.9 -2.45 -10.9 -2.45 -10.85 -2.3 -10.8 -2.0 -10.75 -1.95 -10.7 -1.9 -10.6 -1.9 -10.4 -2.0 -10.3 -2.1 -10.3 -2.25 -10.25 -2.8 -10.25 -2.95 -10.3 -3.95 -10.4 -4.05 -10.45 -4.1 -10.4 -4.1 -10.35 -4.2 -10.3 -4.3 -10.3 -4.3 -10.25 -4.55 -10.25 -4.55 -10.2 -6.1 -10.2 -6.15 -10.15 -6.15 -9.9 Q-6.15 -9.85 -6.2 -9.8 -6.15 -9.6 -6.15 -9.45 L-6.2 -9.1 -6.2 -8.8 -6.25 -8.75 -6.35 -8.7 -6.45 -8.6 -6.5 -8.6 -6.55 -8.65 -6.55 -8.7 -6.6 -8.7 -6.6 -8.75 -6.55 -8.8 -6.55 -9.55 -6.6 -9.6 -6.6 -9.65 -6.65 -9.7 -6.65 -10.05 -6.55 -10.15 -6.55 -10.3 -6.5 -10.4 -6.3 -10.5 -6.1 -10.5 -6.0 -10.45 -4.6 -10.45 -4.65 -10.5 -4.8 -10.55 -4.85 -10.55 -5.05 -10.65 -5.2 -10.7 -5.3 -10.75 -5.35 -10.8 -5.4 -10.8 -5.45 -10.85 -5.65 -10.9 -5.7 -10.9 -5.7 -10.95 -5.8 -11.05 -5.8 -11.1 -5.85 -11.15 -5.85 -11.2 -5.9 -11.25 -5.9 -11.4 -5.95 -11.45 -6.05 -11.5 -6.35 -11.5 -6.55 -11.4 -6.6 -11.35 -6.7 -11.35 -6.8 -11.25 -6.7 -11.15 -6.7 -10.8 -6.8 -10.7 -6.85 -10.7 -6.95 -10.65 -7.15 -10.6 -7.2 -10.55 -7.35 -10.5 -8.0 -10.5 -8.05 -10.45 -8.35 -10.35 -8.4 -10.3 -8.35 -10.3 -8.25 -10.25 -8.2 -10.2 -8.05 -10.1 -7.85 -10.0 -7.8 -9.95 -7.8 -9.9 -7.7 -9.8 -7.7 -9.7 -7.65 -9.65 -7.7 -9.6 -7.7 -9.45 Q-7.75 -9.45 -7.8 -9.4 L-7.9 -9.45 -7.95 -9.5 -7.95 -9.6 -8.05 -9.6 -8.1 -9.65 -8.1 -9.7 -8.35 -9.95 -8.5 -9.95 -8.6 -10.05 -8.75 -10.1 -8.8 -10.1 -8.9 -10.2 -8.9 -10.3 -8.85 -10.4 Q-8.75 -10.45 -8.55 -10.5 L-8.45 -10.55 -8.4 -10.6 -8.3 -10.65 -8.1 -10.65 -8.0 -10.7 -7.5 -10.7 -7.4 -10.75 -7.25 -10.8 -7.05 -10.85 -6.95 -10.95 -6.95 -11.0 -7.0 -11.05 -7.0 -11.1 -7.05 -11.1 -7.05 -11.3 -6.85 -11.5 -6.6 -11.65 -6.5 -11.75 -5.8 -11.75 -5.55 -11.5 -5.55 -11.3 -5.5 -11.25 -5.5 -11.1 -5.45 -11.1 -5.2 -10.85 -5.2 -10.8 Q-5.15 -10.75 -5.05 -10.75 L-5.0 -10.7 -4.9 -10.7 -4.8 -10.65 -4.75 -10.6 -4.6 -10.55 -4.55 -10.5 -4.5 -10.5 -4.5 -10.55 -4.45 -10.6 -4.35 -10.65 -4.3 -10.7 -4.2 -10.75 -4.1 -10.75 -3.7 -10.65 -3.55 -10.6 -3.1 -10.7 -2.9 -10.6 -2.6 -10.55 -2.4 -10.55 -2.5 -10.6 -2.7 -10.8 -2.9 -10.8 -3.0 -10.85 -3.05 -10.9 -3.15 -10.95 -3.15 -11.0 -3.25 -11.1 -3.25 -11.15 -3.4 -11.2 -3.45 -11.25 -3.5 -11.25 -3.5 -11.5 -3.55 -11.6 -3.45 -11.7 -3.45 -11.8 -3.35 -11.9 -2.9 -11.9 -2.8 -11.85 -2.75 -11.8 -2.65 -11.8 -2.35 -12.0 -2.3 -12.05 -2.2 -12.3 -2.25 -12.55 Q-2.25 -12.7 -2.05 -12.7 L-2.0 -12.65 -2.0 -12.75 -2.05 -12.8 -2.0 -12.85 -2.0 -13.1 -1.95 -13.1 -1.9 -13.15 -1.9 -13.25 -1.85 -13.35 -1.85 -13.45 -1.8 -13.45 -1.8 -13.6 -1.85 -13.65 -1.9 -13.75 -2.05 -13.9 -2.2 -13.95 -2.3 -14.0 -2.8 -14.0 -3.0 -14.05 -3.15 -14.05 -3.25 -14.1 -3.4 -14.25 -3.4 -14.3 -3.45 -14.35 -3.45 -14.6 -3.15 -14.9 -3.05 -14.95 -2.9 -15.0 -2.85 -15.05 -2.8 -15.05 -2.7 -15.1 -2.4 -15.2 -2.4 -15.35 -2.35 -15.35 -2.2 -15.5 -2.05 -15.6 -1.9 -15.65 -1.8 -15.75 Q-1.55 -15.8 -1.3 -15.85 L-1.1 -15.95 -0.85 -16.05 -0.75 -16.1 -0.3 -16.1 -0.25 -16.05 -0.05 -15.9 0.1 -15.85 0.2 -15.75 Q0.25 -15.6 0.4 -15.5 L0.5 -15.35 0.55 -15.25 0.65 -15.15 0.8 -14.95 0.9 -14.85 1.0 -14.85 1.1 -14.8 1.25 -14.7 1.5 -14.5 1.55 -14.45 1.7 -14.4 1.9 -14.35 2.0 -14.35 2.1 -14.3 2.2 -14.3 2.3 -14.25 2.3 -14.2 2.35 -14.15 2.65 -14.15 2.75 -14.2 2.85 -14.3 2.9 -14.3 3.3 -14.5 3.45 -14.6 3.55 -14.65 3.75 -14.85 3.75 -14.9 3.7 -14.95 3.7 -15.15 3.6 -15.25 3.6 -15.4 3.55 -15.45 3.55 -15.5 3.5 -15.55 3.5 -16.0 3.55 -16.05 3.55 -16.15 3.7 -16.3 4.0 -16.45 4.05 -16.45 4.1 -16.5 4.25 -16.55 4.65 -16.6 5.0 -16.6 5.25 -16.55 5.4 -16.55 5.35 -16.6 5.35 -16.75 5.45 -16.85 5.45 -16.9 5.5 -16.9 5.5 -17.05 5.55 -17.1 5.55 -17.3 5.65 -17.4 5.65 -17.5 5.75 -17.6 5.75 -17.65 5.8 -17.7 5.8 -17.95 5.75 -18.0 5.8 -18.05 5.8 -18.4 5.75 -18.45 5.75 -18.6 5.7 -18.65 5.7 -18.7 5.65 -18.75 5.65 -18.85 5.55 -18.9 Q5.45 -18.95 5.35 -19.0 L5.3 -19.1 5.3 -19.15 5.25 -19.15 5.25 -19.2 5.3 -19.2 5.0 -19.25 3.55 -19.2 3.2 -19.2 3.0 -19.1 2.75 -19.05 2.65 -19.05 2.2 -19.0 2.1 -19.0 1.65 -18.95 1.55 -18.9 1.05 -18.95 0.95 -18.95 0.65 -19.0 0.5 -19.0 0.15 -19.05 0.05 -19.1 -0.05 -19.2 -0.25 -19.25 -0.3 -19.3 -0.35 -19.3 -0.5 -19.4 -0.75 -19.45 -0.85 -19.45 -0.95 -19.55 -0.95 -19.6 -1.05 -19.6 -1.25 -19.55 -1.3 -19.5 -1.4 -19.5 -1.45 -19.45 -1.95 -19.2 -2.0 -19.2 -2.2 -19.1 Q-2.4 -19.0 -2.7 -18.9 L-2.75 -18.9 -2.8 -18.85 -3.15 -18.8 -3.2 -18.8 -3.5 -18.7 -3.55 -18.65 -3.8 -18.65 -3.95 -18.7 -4.25 -18.85 -4.35 -18.95 -4.45 -19.0 -4.45 -19.3 -4.4 -19.4 -4.4 -19.55 -4.5 -19.65 -4.5 -19.9 -4.7 -20.1 -4.7 -20.15 -4.8 -20.2 -4.8 -20.4 -4.75 -20.45 -4.8 -20.5 -4.8 -20.8 -4.7 -20.85 -4.65 -20.9 -4.65 -20.95 -5.35 -20.95 -5.45 -21.0 -5.6 -21.1 -5.75 -21.25 -5.8 -21.25 -5.85 -21.2 -5.8 -21.15 -5.8 -20.95 -5.85 -20.95 -5.85 -20.85 -6.05 -20.65 -6.2 -20.65 -6.2 -20.6 -6.25 -20.6 -6.35 -20.5 Q-6.4 -20.5 -6.5 -20.5 L-6.65 -20.35 -6.75 -20.3 -6.8 -20.25 -6.9 -20.2 -6.85 -20.15 -6.85 -20.1 -6.8 -20.1 -6.8 -20.05 -6.65 -19.9 -6.65 -19.8 -6.55 -19.7 Q-6.6 -19.65 -6.6 -19.6 -6.65 -19.55 -6.75 -19.5 L-6.85 -19.45 Q-6.9 -19.45 -6.95 -19.45 L-7.0 -19.5 -6.95 -19.55 -6.95 -19.65 -7.0 -19.7 -7.0 -19.75 -7.1 -19.85 -7.1 -19.9 -7.2 -20.0 -7.3 -20.05 -7.35 -20.1 -7.35 -20.3 -7.3 -20.35 -7.2 -20.4 -7.05 -20.4 -6.85 -20.5 -6.75 -20.5 -6.7 -20.55 -6.65 -20.55 -6.45 -20.65 -6.3 -20.8 -6.25 -20.8 -6.2 -20.85 -6.2 -20.9 -6.25 -20.85 -6.3 -20.85 -6.4 -20.8 -7.3 -20.8 -7.4 -20.9 -7.4 -20.95 -7.5 -21.05 -7.85 -21.0 -7.85 -20.95 -7.9 -20.9 -7.9 -20.85 -7.95 -20.75 -8.05 -20.7 -8.15 -20.7 -8.15 -20.65 -8.25 -20.55 -8.25 -20.5 -8.3 -20.45 -8.4 -20.4 -8.5 -20.3 -8.5 -20.25 -8.55 -20.2 -8.55 -20.15 -8.7 -20.1 -8.75 -20.05 -8.8 -20.05 -8.85 -20.0 -8.85 -20.05 -8.8 -20.1 -8.8 -20.15 -8.75 -20.2 -8.75 -20.3 -8.7 -20.35 -8.65 -20.45 -8.6 -20.5 -8.6 -20.55 -8.5 -20.65 -8.5 -20.7 -8.45 -20.7 -8.2 -20.95 -8.2 -21.0 -8.15 -21.05 -8.15 -21.1 -8.05 -21.2 -7.9 -21.2 -7.9 -21.25 -7.4 -21.2 -7.3 -21.2 -7.2 -21.15 -7.15 -21.1 -7.15 -21.0 -6.45 -20.95 -6.35 -21.0 -6.3 -21.0 -6.15 -21.05 -6.15 -21.3 -6.05 -21.35 -6.1 -21.4 -6.1 -21.55 -6.05 -21.55 -6.0 -21.6 -5.45 -21.6 -5.35 -21.5 -5.35 -21.35 -5.3 -21.3 -5.3 -21.25 -5.2 -21.2 -5.15 -21.15 -4.35 -21.15 -4.35 -21.2 -4.25 -21.3 -4.25 -21.35 -4.1 -21.4 -4.0 -21.45 -3.75 -21.45 -3.2 -21.35 -2.85 -21.3 -2.75 -21.25 -2.7 -21.2 -2.65 -21.2 -2.5 -21.15 -2.4 -21.15 -2.3 -21.2 Q-2.1 -21.25 -1.9 -21.3 L-1.65 -21.4 -1.5 -21.45 -1.4 -21.5 -1.35 -21.5 -1.25 -21.55 -1.1 -21.65 -1.05 -21.65 -0.95 -21.7 -0.9 -21.8 -0.75 -21.95 -0.65 -22.0 -0.65 -22.1 Q-0.6 -22.2 -0.5 -22.25 L-0.35 -22.35 Q-0.25 -22.35 -0.15 -22.4 L-0.1 -22.4 -0.1 -22.5 0.0 -22.55 0.1 -22.65 0.2 -22.7 0.2 -22.75 0.25 -22.8 0.25 -23.0 0.3 -23.0 0.35 -23.05 0.35 -23.1 0.45 -23.2 0.45 -23.25 0.55 -23.35 1.15 -23.35 1.3 -23.4 Q1.45 -23.45 1.55 -23.55 L1.65 -23.6 1.7 -23.6 1.75 -23.65 1.75 -23.8 1.65 -23.9 1.65 -23.95 1.6 -24.0 1.4 -24.15 1.3 -24.2 1.25 -24.25 1.05 -24.25 1.0 -24.3 0.9 -24.3 0.8 -24.35 0.75 -24.4 0.65 -24.45 0.45 -24.5 0.35 -24.55 0.3 -24.6 0.3 -25.05 0.2 -25.15 Q0.2 -25.2 0.2 -25.25 L0.2 -25.3 0.0 -25.35 -0.35 -25.3 -0.85 -25.3 -0.9 -25.35 -1.0 -25.35 Q-1.25 -25.3 -1.45 -25.25 L-2.1 -25.3 -2.3 -25.3 -2.35 -25.35 -2.35 -25.4 -2.4 -25.45 -2.45 -25.45 -2.5 -25.5 -2.55 -25.45 -2.55 -25.4 -2.6 -25.4 -2.7 -25.35 -2.75 -25.4 -2.75 -25.45 -2.95 -25.65 -3.05 -25.8 -3.35 -26.1 -3.45 -26.15 -3.55 -26.25 -3.7 -26.3 -4.0 -26.45 -4.0 -26.55 -3.95 -26.6 -3.95 -26.7 -4.05 -26.8 -4.1 -26.8 -4.25 -26.85 -4.3 -26.9 -4.35 -26.9 -4.55 -27.0 -4.6 -27.05 -4.9 -27.05 -5.05 -27.1 -5.25 -27.1 -5.3 -27.05 -5.4 -27.05 -5.45 -27.0 -5.55 -26.95 -6.05 -26.9 -6.1 -26.85 -6.2 -26.8 -6.35 -26.8 -6.35 -26.75 -7.3 -26.75 -7.4 -26.8 -7.9 -26.85 -8.2 -26.85 -8.3 -26.9 -8.65 -26.9 -8.75 -26.95 -8.95 -27.0 -9.0 -27.0 -9.2 -27.1 -9.25 -27.1 -9.3 -27.15 -9.4 -27.15 -9.45 -27.2 -9.65 -27.2 -10.05 -27.3 -10.1 -27.3 -10.25 -27.35 -10.3 -27.4 -10.4 -27.45 -10.45 -27.5 -10.55 -27.5 -10.55 -27.6 -10.65 -27.65 -10.65 -28.0 -10.7 -28.05 -10.7 -28.1 -10.8 -28.2 -10.85 -28.2 -10.9 -28.25 -10.9 -28.45 -11.0 -28.5 -11.0 -28.55 -11.05 -28.6 -11.05 -28.85 -11.0 -28.9 -10.95 -28.9 -10.95 -28.95 -10.65 -29.25 -10.6 -29.35 -10.5 -29.45 -10.4 -29.5 -10.35 -29.55 -10.25 -29.55 -10.2 -29.6 -10.2 -29.75 -10.25 -29.75 -10.35 -29.8 -10.5 -29.85 -10.6 -29.85 -10.65 -29.9 -10.8 -29.9 -10.9 -29.85 -11.25 -29.85 Q-11.35 -29.8 -11.4 -29.8 L-11.45 -29.75 -11.55 -29.75 -11.7 -29.7 -11.75 -29.7 -12.0 -29.65 -12.1 -29.65 -12.55 -29.6 Q-12.7 -29.55 -12.85 -29.5 L-13.2 -29.45 -14.4 -29.55 -15.5 -29.65 -15.55 -29.7 -15.6 -29.7 -15.6 -29.75 -16.0 -29.85 -16.2 -29.95 -16.4 -30.15 -17.0 -30.15 -17.05 -30.1 -17.15 -30.05 -17.4 -29.8 -17.5 -29.75 -17.6 -29.65 -17.7 -29.6 -17.75 -29.6 -18.2 -29.45 Q-18.35 -29.4 -18.45 -29.35 L-18.6 -29.3 -18.65 -29.25 -18.75 -29.2 -18.8 -29.15 -18.9 -29.1 -19.2 -29.0 -19.3 -29.0 -19.4 -28.9 -19.5 -28.85 -19.55 -28.8 -19.8 -28.8 -19.85 -28.75 -19.95 -28.7 -20.0 -28.7 -20.15 -28.65 -20.2 -28.65 -20.55 -28.6 -20.6 -28.55 -20.6 -28.4 -20.7 -28.3 -20.7 -27.95 -20.8 -27.85 -20.8 -27.75 -20.85 -27.75 -20.85 -27.55 -20.9 -27.5 -20.9 -27.45 -21.05 -27.3 -21.05 -27.25 -21.15 -27.15 -21.15 -27.05 -21.35 -26.85 -21.4 -26.75 -21.45 -26.7 Q-21.5 -26.6 -21.6 -26.55 -21.85 -26.4 -22.1 -26.3 L-22.2 -26.25 -22.35 -26.2 -22.4 -26.15 -22.45 -26.15 -22.55 -26.1 -22.7 -26.05 -22.75 -26.0 -22.8 -26.0 -22.8 -25.95 -23.0 -25.75 -23.0 -25.7 -23.1 -25.7 -23.15 -25.65 -23.15 -25.6 -23.25 -25.5 -23.35 -25.45 -23.4 -25.4 -23.4 -25.3 -23.35 -25.25 -23.35 -24.8 -23.3 -24.75 -23.3 -24.7 -23.25 -24.65 -23.25 -24.6 -23.1 -24.45 -23.1 -24.4 -22.9 -24.2 -22.8 -24.15 -22.7 -24.15 -22.3 -23.85 -22.25 -23.8 -22.25 -23.75 -22.05 -23.55 -22.05 -23.5 -22.0 -23.45 -21.95 -23.45 -21.85 -23.35 -21.85 -23.25 -21.75 -23.15 -21.7 -23.15 -21.6 -23.1 -21.6 -23.0 -21.5 -22.95 -21.35 -22.85 -21.25 -22.75 -21.15 -22.75 -21.15 -22.55 -21.1 -22.5 -21.1 -22.45 -21.05 -22.45 -21.05 -22.35 -21.15 -22.25 -21.15 -22.15 -21.1 -22.1 -20.75 -22.1 -20.6 -22.05 -19.85 -22.05 -19.75 -22.1 -19.45 -22.1 -19.35 -22.05 -19.0 -22.0 -18.7 -21.95 -18.6 -21.9 -18.5 -21.8 -18.5 -21.4 -18.35 -21.25 -18.1 -21.25 -17.9 -21.15 -17.85 -21.1 -17.85 -20.9 -18.0 -20.75 -18.0 -20.65 -18.05 -20.6 -18.05 -20.55 -18.1 -20.5 -18.1 -20.45 -18.15 -20.4 -18.05 -20.4 -17.9 -20.35 -17.8 -20.3 -17.75 -20.3 -17.75 -20.25 -17.6 -20.25 -17.55 -20.2 -17.45 -20.15 -17.4 -20.1 -17.4 -20.05 -17.35 -20.0 -17.3 -20.0 -17.3 -19.85 -17.25 -19.8 -17.25 -19.75 -17.15 -19.7 -17.1 -19.65 -17.05 -19.65 -17.0 -19.6 -16.9 -19.55 -16.8 -19.45 -16.8 -19.4 -16.85 -19.35 -16.85 -19.3 -16.9 -19.3 -16.9 -19.15 -17.0 -19.05 -17.0 -19.0 -17.1 -18.9 -17.2 -18.75 -17.35 -18.6 -17.4 -18.6 -17.5 -18.5 -17.55 -18.4 -17.65 -18.35 -17.8 -18.2 -17.8 -18.1 -17.85 -18.05 -17.85 -18.0 -17.9 -17.95 -17.95 -17.95 -17.95 -17.9 -18.05 -17.8 -18.15 -17.8 -18.1 -17.85 -18.1 -17.9 -17.9 -18.1 -17.9 -18.15 -17.85 -18.2 -17.85 -18.3 -17.8 -18.35 -17.8 -18.4 -17.75 -18.45 -17.65 -18.5 -17.65 -18.6 -17.55 -18.65 -17.55 -18.9 -17.45 -19.0 -17.45 -19.05 -17.35 -19.15 -17.35 -19.2 -17.3 -19.25 -17.3 -19.4 -17.35 -19.45 -17.4 -19.55 -17.45 -19.55 -17.65 -19.65 -17.65 -19.8 -17.75 -19.9 -17.75 -19.95 -17.85 -20.0 -18.05 -20.05 -18.25 -20.25 -18.3 -20.25 -18.35 -20.15 -18.35 -20.05 -18.4 -20.05 -18.7 -19.75 -18.7 -19.65 -18.75 -19.65 -18.9 -19.6 -18.95 -19.65 -18.95 -19.85 -18.9 -19.9 -18.9 -19.95 -18.85 -20.0 -18.85 -20.15 -18.65 -20.35 -18.65 -20.4 -18.6 -20.45 -18.6 -20.5 -18.45 -20.65 -18.45 -20.7 -18.4 -20.75 -18.4 -20.9 -18.6 -20.95 -18.65 -21.0 -18.8 -21.1 -18.9 -21.2 -18.95 -21.2 -18.95 -21.65 -19.0 -21.7 -19.1 -21.75 -19.45 -21.8 -19.7 -21.8 -19.75 -21.75 -20.65 -21.75 -20.8 -21.8 -21.3 -21.8 -21.5 -21.9 -21.55 -21.95 -21.6 -21.95 -21.7 -22.0 -21.7 -22.2 -21.6 -22.25 -21.6 -22.5 -21.65 -22.55 -21.8 -22.65 -22.05 -22.85 -22.1 -22.95 -22.15 -23.0 -22.25 -23.05 -22.35 -23.15 -22.35 -23.2 -22.4 -23.25 -22.4 -23.35 -22.45 -23.35 -22.5 -23.4 -22.6 -23.45 -22.6 -23.55 -22.7 -23.6 -22.7 -23.65 -22.85 -23.7 -22.9 -23.75 -23.05 -23.85 -23.3 -24.05 -23.5 -24.15 -23.5 -24.2 -23.65 -24.35 -23.65 -24.4 -23.7 -24.45 -23.7 -24.55 -23.8 -24.65 -23.8 -25.1 -23.85 -25.15 -23.85 -25.25 -23.95 -25.35 -23.95 -25.5 -23.75 -25.65 -23.5 -25.85 -23.4 -25.9 -23.35 -25.95 -23.35 -26.0 -23.25 -26.1 -23.15 -26.15 -23.15 -26.2 -23.1 -26.25 -23.05 -26.25 -23.0 -26.3 -22.9 -26.35 -22.85 -26.4 -22.75 -26.4 -22.6 -26.45 -22.55 -26.5 -22.45 -26.5 -22.35 -26.55 -22.3 -26.6 -22.25 -26.6 -22.2 -26.65 -22.1 -26.65 -22.0 -26.7 -21.95 -26.75 -21.95 -26.8 -21.8 -26.95 -21.8 -27.0 -21.75 -27.05 -21.65 -27.1 -21.6 -27.15 -21.6 -27.3 -21.55 -27.3 -21.55 -27.35 -21.4 -27.5 -21.4 -27.55 -21.35 -27.6 -21.35 -27.75 -21.3 -27.8 -21.3 -27.85 -21.25 -27.9 -21.25 -28.0 -21.15 -28.05 -21.15 -28.4 -21.05 -28.5 -21.05 -28.65 -20.95 -28.75 -20.95 -28.85 -20.85 -28.9 -20.75 -28.9 -20.35 -28.95 -20.2 -29.0 -20.1 -29.0 -19.9 -29.1 -19.85 -29.1 -19.7 -29.15 -19.6 -29.15 -19.4 -29.3 Q-19.3 -29.35 -19.15 -29.4 L-19.15 -29.45 -19.1 -29.5 -18.95 -29.55 -18.95 -29.6 -18.9 -29.7 -18.85 -29.75 -18.8 -29.85 -18.7 -29.95 -18.6 -30.0 -18.6 -30.15 -18.7 -30.25 -18.7 -30.4 -18.8 -30.5 -18.8 -30.65 -18.6 -30.85 -18.5 -30.9 -18.5 -30.95 -18.45 -30.95 -18.25 -31.05 -18.15 -31.05 -17.8 -31.15 -17.2 -31.2 -17.05 -31.25 -16.85 -31.35 -16.55 -31.4 -16.3 -31.45 -16.25 -31.5 -16.15 -31.55 -16.1 -31.55 -15.95 -31.6 -15.8 -31.6 -15.3 -31.65 -15.2 -31.65 -14.8 -31.7 -14.7 -31.65 -14.65 -31.65 -14.45 -31.55 -14.35 -31.45 -14.35 -31.2 Q-14.35 -31.15 -14.35 -31.05 L-14.35 -31.0 -14.3 -30.95 -13.65 -30.95 -13.4 -31.05 -13.2 -31.15 -12.05 -31.1 -12.0 -31.05 -11.8 -31.15 -11.6 -31.15 -11.5 -31.1 -11.2 -31.1 -11.1 -31.05 -11.0 -31.05 -10.9 -31.0 -10.7 -31.0 -10.55 -31.05 -10.35 -31.1 -10.1 -31.2 -9.8 -31.2 -9.65 -31.15 -9.55 -31.05 -9.55 -30.85 -9.45 -30.75 -9.5 -30.7 -9.5 -30.65 -9.45 -30.65 -9.55 -30.55 -9.55 -30.5 -9.6 -30.45 Q-9.7 -30.45 -9.75 -30.4 L-10.1 -30.35 -10.1 -30.3 -10.15 -30.3 -10.25 -30.25 -10.3 -30.2 -10.3 -30.15 -10.35 -30.15 -10.25 -30.1 -10.0 -30.05 -9.9 -30.0 -9.8 -29.9 -9.8 -29.5 -9.85 -29.5 -9.85 -29.45 -9.95 -29.4 -10.0 -29.35 -10.1 -29.3 -10.15 -29.25 -10.15 -29.2 -10.2 -29.15 -10.25 -29.15 -10.25 -29.05 -10.55 -28.75 -10.55 -28.7 -10.5 -28.65 -10.5 -28.6 -10.4 -28.5 -10.4 -28.45 -10.35 -28.45 -10.35 -28.4 -10.1 -28.15 -10.1 -27.8 -10.05 -27.75 -10.0 -27.75 -9.9 -27.7 -9.85 -27.65 -9.75 -27.6 -9.25 -27.5 -8.95 -27.45 -8.9 -27.4 -8.8 -27.35 -8.15 -27.4 -8.0 -27.45 -7.95 -27.5 -7.8 -27.5 -7.6 -27.6 -7.55 -27.65 -7.5 -27.65 -7.5 -27.75 -7.4 -27.85 -7.4 -27.95 -7.35 -27.95 -7.3 -28.0 -7.2 -28.05 -7.15 -28.1 -7.05 -28.15 -7.0 -28.2 -6.85 -28.2 -6.75 -28.3 -6.2 -28.3 -5.8 -28.25 -4.95 -28.25 -4.95 -28.3 -4.9 -28.35 -4.8 -28.35 -4.55 -28.55 -4.35 -28.65 -4.3 -28.75 -4.25 -28.8 -4.15 -28.85 -4.1 -28.9 -4.1 -29.05 -4.05 -29.1 -4.05 -29.15 -4.2 -29.2 -4.35 -29.2 -4.45 -29.15 -4.7 -29.15 -4.8 -29.2 -4.85 -29.25 -4.85 -29.5 Q-4.85 -29.6 -4.75 -29.65 L-4.6 -29.75 Q-4.5 -29.8 -4.5 -29.85 L-4.3 -29.95 -4.15 -30.1 -4.05 -30.15 -4.0 -30.15 -3.85 -30.2 -3.75 -30.25 -3.7 -30.3 -3.6 -30.3 -3.6 -30.25 -3.65 -30.2 -3.65 -30.15 -3.7 -30.15 -3.8 -30.1 -3.9 -30.0 -3.9 -29.95 -4.0 -29.85 -4.15 -29.8 -4.25 -29.75 -4.3 -29.7 -4.3 -29.65 -4.4 -29.55 -4.5 -29.5 -4.5 -29.45 -4.55 -29.45 -4.6 -29.4 -4.1 -29.4 -3.85 -29.35 -3.8 -29.35 -3.8 -29.05 -3.9 -28.95 -3.9 -28.8 -4.0 -28.7 -4.0 -28.65 -4.15 -28.6 -4.3 -28.45 -4.5 -28.35 -4.5 -28.3 -4.2 -28.35 -4.1 -28.4 -3.45 -28.45 -3.35 -28.45 -3.25 -28.5 -3.2 -28.5 -3.2 -28.55 -3.1 -28.55 -2.9 -28.65 -2.8 -28.65 -2.75 -28.7 -2.55 -28.7 -2.35 -28.6 -2.2 -28.55 -2.1 -28.45 -2.05 -28.35 -2.0 -28.35 -1.8 -28.25 -1.65 -28.1 -1.65 -27.85 -1.45 -27.75 -1.4 -27.7 -1.25 -27.6 -1.15 -27.55 -1.1 -27.55 -1.0 -27.5 -0.9 -27.5 -0.8 -27.45 -0.75 -27.4 -0.65 -27.35 -0.5 -27.3 Q-0.45 -27.25 -0.35 -27.2 L-0.3 -27.2 -0.2 -27.15 -0.15 -27.1 0.0 -27.05 0.2 -27.0 0.5 -26.9 0.95 -26.9 1.0 -26.95 1.1 -27.0 1.2 -27.0 1.25 -27.05 1.4 -27.05 1.5 -27.15 1.55 -27.15 1.65 -27.2 2.1 -27.2 M3.3 -27.05 L3.15 -27.2 3.1 -27.2 3.1 -27.15 3.0 -27.05 3.0 -26.95 2.95 -26.9 2.9 -26.9 2.8 -26.85 2.5 -26.85 2.1 -26.9 1.9 -26.9 1.75 -26.85 1.55 -26.8 1.3 -26.75 1.25 -26.7 0.35 -26.7 0.05 -26.75 0.0 -26.8 -0.1 -26.85 -0.3 -26.9 -0.35 -26.9 -0.5 -26.95 -0.5 -27.0 -0.55 -27.05 -0.65 -27.05 -0.75 -27.1 -0.85 -27.2 -0.95 -27.25 -1.1 -27.3 -1.5 -27.4 -1.65 -27.55 -1.75 -27.6 -1.8 -27.6 -1.9 -27.65 -2.0 -27.75 -2.0 -27.95 -2.1 -28.05 -2.25 -28.1 -2.35 -28.2 -2.45 -28.2 -2.5 -28.25 -2.5 -28.3 -2.65 -28.35 -2.75 -28.35 -2.85 -28.3 -2.95 -28.3 -3.0 -28.25 -3.25 -28.25 -3.3 -28.2 -4.2 -28.2 -4.55 -28.15 -4.65 -28.1 -5.1 -28.1 -5.2 -28.05 -6.6 -28.05 -6.65 -28.0 -6.75 -28.0 -6.8 -27.95 -6.95 -27.85 -7.0 -27.8 -7.0 -27.7 -7.05 -27.65 -7.05 -27.6 -7.1 -27.6 -7.1 -27.55 -7.35 -27.3 -7.5 -27.25 -7.55 -27.25 -7.8 -27.2 -7.45 -27.15 -7.3 -27.1 -6.5 -27.1 -6.45 -27.15 -6.35 -27.2 -6.3 -27.2 Q-5.95 -27.25 -5.65 -27.35 L-5.3 -27.4 -4.9 -27.4 -4.55 -27.35 -4.45 -27.3 -4.15 -27.3 -4.05 -27.25 -4.05 -27.15 -3.9 -27.1 -3.8 -27.05 -3.75 -27.05 -3.75 -27.0 -3.6 -27.0 -3.55 -26.95 -3.45 -26.9 -3.4 -26.85 -3.4 -26.7 -3.35 -26.65 -3.05 -26.5 -3.05 -26.45 -2.95 -26.4 -2.65 -26.1 -2.65 -26.05 -2.6 -26.0 -2.55 -26.0 -2.55 -25.85 -2.5 -25.8 -2.5 -25.75 -2.3 -25.7 -2.25 -25.65 -2.2 -25.65 -2.05 -25.6 -2.05 -25.55 -1.6 -25.55 -1.55 -25.6 -1.45 -25.6 -1.0 -25.65 -0.75 -25.7 -0.6 -25.65 -0.5 -25.65 -0.35 -25.7 -0.1 -25.75 0.1 -25.75 0.25 -25.7 0.3 -25.65 0.35 -25.65 0.35 -25.6 0.5 -25.6 0.7 -25.4 0.7 -25.3 0.75 -25.3 0.75 -25.25 0.8 -25.2 0.8 -24.8 0.95 -24.7 1.1 -24.65 1.35 -24.55 1.5 -24.55 1.6 -24.5 1.65 -24.45 Q1.7 -24.45 1.75 -24.4 L1.85 -24.4 1.95 -24.35 2.05 -24.25 2.05 -24.2 2.15 -24.1 2.15 -24.05 2.25 -23.95 2.25 -23.5 Q2.2 -23.45 2.1 -23.35 L1.95 -23.3 1.9 -23.25 1.75 -23.25 1.7 -23.2 1.55 -23.1 Q1.45 -23.1 1.35 -23.05 L1.25 -23.05 1.1 -23.0 1.0 -23.0 0.95 -22.95 0.85 -22.9 0.8 -22.85 0.8 -22.75 0.75 -22.7 0.7 -22.6 0.55 -22.45 0.5 -22.45 0.45 -22.4 0.35 -22.35 0.3 -22.3 0.25 -22.2 0.3 -22.2 0.4 -22.25 0.4 -22.3 0.5 -22.35 0.55 -22.4 0.7 -22.4 0.75 -22.35 1.1 -22.35 1.2 -22.4 1.25 -22.4 1.55 -22.3 1.65 -22.3 1.75 -22.25 1.9 -22.1 1.9 -22.05 1.95 -21.9 1.95 -21.6 2.0 -21.6 2.1 -21.55 2.15 -21.6 2.25 -21.6 2.4 -21.65 2.5 -21.7 2.55 -21.75 2.7 -21.8 2.75 -21.85 2.85 -21.9 2.85 -21.95 3.0 -22.1 3.0 -22.15 3.1 -22.2 3.15 -22.2 3.15 -22.25 3.2 -22.3 3.2 -22.35 3.25 -22.4 3.25 -22.5 3.3 -22.55 3.35 -22.55 3.35 -22.6 3.45 -22.65 3.45 -22.7 3.55 -22.8 3.55 -22.85 3.6 -22.9 3.6 -22.95 3.65 -22.95 3.75 -23.05 3.95 -23.15 4.15 -23.35 4.15 -23.4 4.2 -23.45 4.2 -23.55 4.15 -23.6 4.15 -23.8 4.5 -24.15 4.65 -24.2 5.5 -24.2 5.5 -24.5 5.45 -24.6 5.35 -24.7 5.35 -24.75 5.25 -24.85 5.25 -24.9 5.1 -25.05 4.9 -25.15 4.65 -25.35 4.65 -25.4 4.6 -25.45 4.55 -25.45 4.55 -25.5 4.5 -25.55 4.5 -25.6 4.45 -25.6 4.35 -25.65 4.3 -25.7 4.3 -25.75 4.15 -25.9 4.1 -25.9 4.1 -26.0 4.0 -26.05 4.0 -26.1 3.85 -26.25 3.85 -26.3 3.75 -26.4 3.75 -26.45 3.7 -26.5 3.5 -26.6 3.5 -26.85 3.55 -26.9 3.5 -26.9 3.5 -26.95 3.3 -27.05 M-52.9 -20.45 L-52.8 -20.55 -52.7 -20.6 -52.6 -20.7 -52.5 -20.7 -52.35 -20.75 -52.3 -20.8 -52.1 -20.85 -51.7 -20.85 -51.6 -20.75 -51.55 -20.75 -51.35 -20.8 -51.2 -20.8 -50.55 -20.85 -50.45 -20.9 -50.3 -20.9 -50.15 -20.85 -50.1 -20.8 -50.0 -20.8 -49.8 -20.7 -49.7 -20.6 -49.65 -20.6 -49.65 -20.5 -49.6 -20.45 -49.6 -20.15 -49.65 -20.1 -49.65 -20.05 -49.45 -20.05 -49.35 -20.0 -48.85 -20.0 -48.7 -19.95 -48.55 -19.8 -48.45 -19.75 -48.35 -19.65 -47.65 -19.65 -47.55 -19.7 -48.25 -19.7 -48.4 -19.75 -48.0 -19.8 -47.45 -19.85 -47.35 -19.9 -47.2 -19.95 -47.15 -20.0 -47.15 -20.05 -47.05 -20.15 -46.9 -20.2 -46.8 -20.25 -46.7 -20.35 -46.7 -20.4 -46.65 -20.45 -46.55 -20.5 -46.5 -20.5 -46.4 -20.55 -46.4 -21.1 -46.5 -21.2 -46.5 -21.35 Q-46.55 -21.4 -46.6 -21.4 L-46.65 -21.45 -46.75 -21.5 -46.75 -21.65 -46.65 -21.75 -46.55 -21.75 -46.45 -21.8 Q-46.4 -21.8 -46.3 -21.85 L-45.85 -21.85 -45.75 -21.9 -45.6 -21.9 -45.45 -21.95 -44.8 -21.95 -44.7 -22.0 -44.6 -22.1 -44.7 -22.2 -44.75 -22.2 -44.75 -22.25 -44.7 -22.3 -44.7 -22.55 -44.75 -22.55 -44.8 -22.6 -44.8 -22.65 -44.9 -22.75 -44.9 -23.1 -44.8 -23.2 -44.8 -23.25 -44.65 -23.4 -43.85 -23.4 -43.5 -23.35 -43.4 -23.35 -43.4 -23.3 -43.35 -23.25 -43.45 -23.25 -43.85 -23.2 -44.5 -23.1 -44.5 -23.05 -44.55 -23.0 -44.6 -23.0 -44.6 -22.95 -44.55 -22.9 -44.55 -22.85 -44.5 -22.8 -44.5 -22.7 -44.45 -22.65 -44.4 -22.65 -44.4 -22.35 -44.35 -22.35 -44.3 -22.3 -44.3 -22.25 -44.2 -22.15 -44.2 -22.0 -44.25 -21.95 -44.35 -21.9 -44.4 -21.85 -44.6 -21.75 -45.05 -21.75 -45.15 -21.7 -45.5 -21.7 -45.7 -21.65 -45.75 -21.65 -46.15 -21.6 -46.15 -21.45 -46.1 -21.4 -46.1 -21.3 -46.05 -21.3 -46.0 -21.25 -46.0 -20.55 -45.95 -20.55 -45.9 -20.5 -45.8 -20.45 -45.65 -20.35 -45.6 -20.3 -45.6 -20.25 -45.55 -20.25 -45.5 -20.2 -45.4 -20.15 -45.35 -20.1 -45.05 -20.05 -44.95 -20.05 -44.35 -20.0 -44.25 -20.0 -43.95 -19.95 -43.9 -19.9 -43.6 -19.9 -43.45 -19.85 -43.35 -19.8 -43.3 -19.75 -43.1 -19.75 Q-42.9 -19.7 -42.7 -19.65 L-42.55 -19.65 -42.25 -19.55 -42.15 -19.55 -42.0 -19.5 -41.9 -19.5 -41.8 -19.45 -41.75 -19.4 -41.75 -19.25 -41.65 -19.15 -41.65 -19.05 -41.55 -18.95 -41.5 -18.95 -41.5 -19.0 -41.4 -19.05 -41.25 -19.2 -40.95 -19.2 -40.9 -19.15 -40.5 -19.1 -40.4 -19.05 -40.35 -19.0 -40.2 -19.0 -40.15 -18.95 -40.05 -18.9 -39.95 -18.8 -39.65 -18.8 -39.5 -18.85 -39.3 -18.95 -39.1 -19.15 -39.15 -19.2 -39.15 -19.4 -39.2 -19.65 -39.2 -20.0 -39.1 -20.1 -39.1 -20.25 -39.0 -20.35 -38.9 -20.4 -38.85 -20.4 -38.8 -20.5 -38.65 -20.55 -38.55 -20.6 -38.45 -20.6 -38.4 -20.65 -38.4 -20.85 -38.45 -20.9 -38.45 -20.95 -38.5 -21.0 -38.5 -21.15 -38.55 -21.2 -38.5 -21.25 -38.45 -21.25 -38.35 -21.15 -38.35 -21.1 -38.2 -21.05 -38.1 -20.95 -38.05 -20.95 -38.05 -20.9 -37.95 -20.8 -37.95 -20.75 -37.9 -20.7 -37.9 -20.6 -37.95 -20.6 -38.1 -20.45 -38.3 -20.4 -38.35 -20.35 -38.5 -20.35 -38.6 -20.3 -38.65 -20.25 -38.65 -20.15 -38.75 -20.1 -38.75 -20.0 -38.8 -19.95 -38.85 -19.8 -38.85 -19.35 -38.8 -19.3 -38.75 -19.3 -38.75 -19.15 -38.8 -19.1 -38.8 -19.05 -38.85 -19.0 -38.9 -19.0 -39.05 -18.85 -39.05 -18.8 -39.15 -18.7 -39.2 -18.7 -39.2 -18.65 -39.4 -18.6 -39.55 -18.6 -39.65 -18.55 -39.9 -18.55 -39.95 -18.6 -40.1 -18.6 -40.3 -18.75 -40.4 -18.85 -40.55 -18.95 -40.75 -18.95 -41.05 -19.0 -41.2 -19.0 -41.3 -18.95 -41.3 -18.9 -41.5 -18.9 -41.5 -18.75 -41.7 -18.55 -42.15 -18.4 -42.2 -18.4 -42.45 -18.3 -42.8 -18.25 -43.0 -18.05 -43.1 -18.0 -43.1 -17.9 -43.05 -17.85 -43.05 -17.6 -43.1 -17.55 -43.1 -17.5 -43.15 -17.4 -43.15 -17.35 -43.2 -17.35 -43.15 -17.3 -43.15 -17.25 -42.9 -17.15 -42.65 -17.1 -42.55 -17.05 -42.45 -16.95 -42.35 -16.9 -42.3 -16.9 -42.2 -16.85 -42.1 -16.85 -42.0 -16.8 -41.95 -16.75 -41.75 -16.75 -41.55 -16.65 -41.5 -16.65 -41.5 -16.2 -41.55 -16.15 -41.55 -16.1 -41.6 -16.05 -41.6 -15.95 -41.5 -15.85 -41.5 -15.3 -41.55 -15.25 -41.6 -15.25 -41.6 -15.15 -41.65 -15.1 -41.65 -15.05 -41.7 -15.0 -41.7 -14.95 -41.75 -14.95 -41.75 -14.7 -41.65 -14.7 -41.55 -14.8 -41.45 -14.85 -41.4 -14.9 -40.65 -14.9 -40.45 -14.8 -40.35 -14.7 -40.3 -14.7 -40.15 -14.65 -39.55 -14.65 -39.45 -14.6 -39.4 -14.55 -39.35 -14.55 -39.3 -14.5 -39.15 -14.5 -39.0 -14.45 -38.9 -14.4 -38.9 -14.35 -38.85 -14.3 -38.85 -14.25 -38.8 -14.25 -38.75 -14.2 -38.75 -13.95 -38.65 -13.9 -38.6 -13.85 -38.55 -13.85 -38.45 -13.8 -38.3 -13.65 Q-38.3 -13.55 -38.2 -13.5 -38.15 -13.4 -38.0 -13.35 L-37.65 -13.2 -37.6 -13.15 -37.6 -13.1 -37.55 -13.1 -37.55 -13.05 -37.5 -13.0 -37.4 -12.95 -37.0 -12.95 -36.8 -13.0 -36.7 -13.05 -36.65 -13.05 -36.55 -13.1 -36.5 -13.15 -36.4 -13.2 -36.3 -13.3 -36.15 -13.35 -36.1 -13.35 -36.05 -13.4 -36.0 -13.4 -35.9 -13.45 -35.85 -13.5 -35.75 -13.55 -35.7 -13.55 -35.55 -13.65 -35.5 -13.65 -35.5 -13.7 -35.45 -13.75 -35.5 -13.85 -35.7 -13.95 -35.95 -14.05 -36.0 -14.1 -36.0 -14.3 -35.95 -14.35 -36.05 -14.45 -36.05 -14.5 -36.1 -14.55 -36.1 -14.65 -36.05 -14.75 -36.0 -14.8 -35.85 -14.85 -35.7 -14.8 -35.6 -14.7 -34.55 -14.8 -34.25 -14.85 -34.1 -14.85 -34.0 -14.9 -33.9 -14.9 -33.7 -14.95 -33.55 -15.0 -33.45 -15.05 -33.4 -15.05 -33.3 -15.1 -33.15 -15.15 -33.0 -15.15 -32.9 -15.2 -32.85 -15.25 -32.7 -15.3 -32.65 -15.3 -32.55 -15.35 -32.45 -15.35 -32.35 -15.4 -31.8 -15.45 -31.65 -15.45 -31.5 -15.5 -31.45 -15.55 -31.35 -15.55 Q-31.3 -15.6 -31.25 -15.6 L-31.2 -15.65 -31.15 -15.65 -31.1 -15.7 -30.55 -15.7 -30.35 -15.65 -30.2 -15.6 -30.0 -15.5 -29.9 -15.5 -29.85 -15.45 -29.65 -15.35 -29.35 -15.15 -29.2 -15.0 -29.2 -14.75 -29.25 -14.7 -29.25 -14.55 -29.2 -14.45 -29.2 -14.15 -29.3 -14.05 -29.3 -13.85 -29.35 -13.8 -29.45 -13.75 -29.55 -13.65 -29.7 -13.6 -29.75 -13.6 -30.0 -13.55 -30.3 -13.55 -30.35 -13.5 -30.8 -13.45 -31.15 -13.4 -31.3 -13.35 -31.45 -13.35 -31.8 -13.3 -32.0 -13.2 -32.45 -13.2 -32.45 -13.15 -32.6 -13.15 -32.8 -13.1 -32.8 -13.05 -32.85 -13.05 -33.0 -13.0 -33.25 -12.95 -33.25 -12.85 -33.2 -12.8 Q-33.2 -12.75 -33.1 -12.75 L-32.85 -12.75 -32.45 -12.65 -32.25 -12.55 -32.1 -12.5 -32.0 -12.4 -31.95 -12.4 -31.95 -12.3 -32.0 -12.25 -32.0 -12.05 -31.9 -12.0 -31.7 -11.8 -31.5 -11.8 -31.4 -11.75 -31.35 -11.7 -30.05 -11.7 -29.9 -11.75 -28.7 -11.75 -28.35 -11.8 Q-28.2 -11.85 -28.1 -11.9 L-27.85 -11.9 -27.75 -12.0 -27.5 -12.05 -27.15 -12.1 -27.1 -12.15 -26.7 -12.2 -26.55 -12.2 -25.8 -12.25 -24.9 -12.4 Q-24.5 -12.45 -24.2 -12.6 L-24.1 -12.6 -24.0 -12.65 -23.95 -12.7 -23.95 -12.95 -23.85 -13.05 -23.7 -13.1 -23.6 -13.15 -23.55 -13.15 -23.45 -13.2 -23.35 -13.2 -23.3 -13.25 -23.15 -13.25 -23.0 -13.3 -21.8 -13.35 -21.65 -13.35 -21.25 -13.4 -21.1 -13.45 -20.95 -13.55 -20.85 -13.65 -20.7 -13.75 -20.7 -13.8 -20.65 -13.8 -20.65 -13.85 -20.6 -13.9 -20.6 -14.05 -20.5 -14.1 -20.5 -14.15 -20.45 -14.15 -20.45 -14.2 -20.4 -14.25 -20.4 -14.35 -20.45 -14.4 -20.55 -14.45 -20.6 -14.5 -20.6 -14.85 -20.65 -14.9 -20.75 -14.9 -20.85 -14.85 -20.9 -14.8 -21.6 -14.8 -21.7 -14.85 -21.8 -14.85 -21.9 -14.95 -21.9 -15.0 -22.1 -15.1 -22.15 -15.15 -22.15 -15.85 -22.1 -15.9 -22.1 -15.95 -22.0 -16.0 -21.95 -16.05 -21.95 -16.2 -21.85 -16.25 -21.7 -16.35 -21.7 -16.55 -21.75 -16.6 -21.75 -16.85 -21.8 -16.9 -22.0 -16.9 -22.35 -16.85 -22.45 -16.85 -22.6 -16.9 -22.75 -17.05 -22.85 -17.1 -22.85 -17.15 -22.9 -17.2 -22.9 -17.25 -22.95 -17.3 -22.95 -17.35 -22.9 -17.35 -22.9 -17.5 -22.85 -17.55 -22.85 -17.7 -22.8 -17.7 -22.75 -17.75 -22.65 -17.8 -22.65 -17.85 -22.35 -18.0 -22.15 -18.05 -22.1 -18.1 -21.85 -18.05 -21.4 -18.05 -21.2 -18.15 -20.95 -18.2 -20.8 -18.3 -20.55 -18.55 -20.4 -18.6 -20.25 -18.6 -20.15 -18.65 -20.0 -18.7 -20.0 -18.75 -19.9 -18.8 -19.75 -18.95 -19.65 -19.0 -19.45 -19.2 -19.45 -19.25 -19.2 -19.5 -19.05 -19.5 -18.95 -19.45 -18.95 -19.4 -18.9 -19.4 -18.9 -19.35 -19.0 -19.25 -19.0 -19.2 -19.2 -19.0 -19.25 -18.9 -19.3 -18.85 -19.3 -18.8 -19.35 -18.75 -19.5 -18.75 -19.7 -18.55 -19.8 -18.5 -19.85 -18.45 -19.85 -18.4 -19.9 -18.4 -19.95 -18.35 -20.0 -18.35 -20.15 -18.3 -20.2 -18.25 -20.3 -18.2 -20.35 -18.1 -20.45 -18.05 -20.5 -18.0 -20.55 -18.0 -20.7 -17.95 -21.8 -17.95 -21.95 -17.9 -22.05 -17.85 -22.25 -17.8 -22.3 -17.75 -22.5 -17.7 -22.55 -17.65 -22.65 -17.6 -22.6 -17.6 -22.6 -17.45 -22.45 -17.3 -22.35 -17.25 -21.75 -17.25 -21.6 -17.2 -21.6 -17.15 -21.55 -17.15 -21.55 -17.05 -21.45 -17.0 -21.4 -17.0 -21.4 -16.9 -21.35 -16.85 -21.35 -16.75 -21.3 -16.7 -21.25 -16.6 -21.25 -16.4 -20.85 -16.4 -20.7 -16.35 -20.5 -16.25 -20.45 -16.2 -20.4 -16.2 -20.35 -16.15 -20.25 -16.1 -20.05 -15.9 -19.85 -15.9 -19.85 -15.85 -19.8 -15.8 -19.7 -15.8 -19.6 -15.75 -19.35 -15.7 -19.25 -15.65 -19.3 -15.6 -19.85 -15.6 -19.85 -15.65 -19.9 -15.7 -20.0 -15.75 -20.3 -15.85 -20.4 -15.95 -20.45 -15.95 -20.55 -16.05 -20.55 -16.1 -20.6 -16.15 -20.6 -16.2 -20.65 -16.25 -20.85 -16.25 -20.95 -16.2 -21.1 -16.2 -21.45 -15.85 -21.5 -15.85 -21.5 -15.8 -21.6 -15.75 -21.6 -15.6 -21.65 -15.6 -21.65 -15.35 -21.6 -15.3 -21.5 -15.3 -21.45 -15.25 -21.4 -15.25 -21.1 -15.2 -20.9 -15.2 -20.8 -15.25 -20.75 -15.25 -20.65 -15.3 -20.55 -15.3 -20.35 -15.2 -20.25 -15.1 -20.25 -15.0 -20.15 -14.9 -20.15 -14.85 -20.1 -14.8 -20.1 -14.7 -20.15 -14.65 -20.15 -14.6 -20.1 -14.6 -20.0 -14.5 -20.0 -14.15 -20.05 -14.1 -20.05 -14.05 -20.1 -14.0 -20.1 -13.95 -20.15 -13.9 -20.2 -13.9 -20.2 -13.85 -20.25 -13.8 -20.25 -13.7 -20.4 -13.55 -20.55 -13.45 -20.75 -13.3 -20.85 -13.2 -20.9 -13.2 -21.05 -13.15 -21.1 -13.1 -21.6 -13.05 -21.75 -13.05 -23.0 -13.0 -23.25 -12.95 -23.3 -12.9 -23.4 -12.85 -23.45 -12.8 -23.45 -12.75 -23.4 -12.7 -23.65 -12.45 -23.65 -12.4 -23.75 -12.4 -24.05 -12.3 -24.1 -12.25 -24.2 -12.2 -24.35 -12.15 -24.7 -12.1 -24.85 -12.1 -25.3 -11.95 -25.55 -11.9 -26.45 -11.9 -26.55 -11.85 -27.0 -11.8 -27.35 -11.8 -27.4 -11.75 -27.7 -11.65 -27.75 -11.65 -28.1 -11.6 -28.6 -11.5 -28.65 -11.45 -29.9 -11.4 -31.65 -11.4 -31.7 -11.45 -31.85 -11.45 -31.9 -11.5 -31.9 -11.45 -31.95 -11.4 -31.95 -11.35 -32.1 -11.35 -32.1 -11.25 -32.15 -11.25 -32.25 -11.1 -32.45 -10.9 -32.95 -10.9 -33.05 -10.95 -33.35 -10.95 -33.45 -10.9 -33.7 -10.9 -33.7 -10.95 -33.75 -10.95 -33.85 -11.0 -34.5 -11.1 Q-34.6 -11.1 -34.65 -11.15 L-34.75 -11.2 -34.9 -11.35 -34.9 -11.45 -35.1 -11.65 -35.1 -11.7 -35.25 -11.85 -35.25 -11.9 -35.2 -11.95 -35.2 -12.0 -35.65 -12.1 -35.65 -12.15 -35.6 -12.2 -35.6 -12.5 -35.5 -12.6 -35.5 -12.65 -35.55 -12.7 -35.55 -12.75 -35.6 -12.8 -35.6 -12.85 -35.75 -12.8 -36.1 -12.75 -36.2 -12.75 -36.2 -12.7 -36.3 -12.7 Q-36.4 -12.65 -36.5 -12.65 L-36.75 -12.55 -36.85 -12.55 -36.9 -12.5 -36.95 -12.5 -37.1 -12.55 -37.05 -12.6 -37.7 -12.6 -37.85 -12.7 -38.1 -12.95 -38.2 -13.0 -38.45 -13.1 -38.6 -13.2 Q-38.7 -13.25 -38.75 -13.3 L-38.8 -13.4 -38.8 -13.45 -38.9 -13.55 -39.0 -13.6 -39.0 -13.65 -39.15 -13.65 -39.2 -13.7 -39.3 -13.75 -39.35 -13.8 -39.35 -14.2 -39.4 -14.25 -39.55 -14.25 -39.7 -14.3 -39.75 -14.35 -40.3 -14.35 -40.4 -14.4 -40.55 -14.45 -40.7 -14.45 -40.8 -14.55 -40.8 -14.6 -40.85 -14.55 -41.15 -14.55 -41.25 -14.45 -41.35 -14.4 -41.5 -14.35 -41.55 -14.3 -41.7 -14.25 -41.95 -14.25 -42.05 -14.3 -42.15 -14.4 -42.15 -14.45 -42.25 -14.55 -42.25 -15.0 -42.2 -15.1 -42.15 -15.1 -42.15 -15.2 -42.1 -15.25 -42.1 -15.35 -42.05 -15.4 -42.0 -15.4 -42.0 -15.75 -42.05 -15.75 -42.15 -15.85 -42.15 -16.0 -42.1 -16.05 -42.1 -16.1 -42.05 -16.1 -42.05 -16.25 -41.95 -16.35 -41.95 -16.4 -42.0 -16.4 -42.15 -16.45 -42.25 -16.55 -42.55 -16.65 -42.65 -16.65 -42.85 -16.75 -42.9 -16.8 -42.95 -16.8 -43.0 -16.85 -43.3 -16.85 -43.4 -16.9 -43.5 -16.9 -43.6 -16.95 -43.6 -17.0 -43.7 -17.1 -43.8 -17.15 -43.85 -17.2 -43.85 -17.3 -43.8 -17.35 -43.8 -17.4 -43.75 -17.45 -43.75 -17.5 -43.65 -17.55 -43.65 -17.7 -43.6 -17.75 -43.6 -17.8 -43.65 -17.85 -43.6 -17.95 -43.6 -18.1 -43.5 -18.2 -43.35 -18.3 -43.25 -18.4 -43.25 -18.45 -43.2 -18.5 -43.15 -18.5 -43.1 -18.55 -43.0 -18.55 -42.9 -18.6 -42.6 -18.65 Q-42.4 -18.7 -42.15 -18.75 L-42.1 -18.8 -42.1 -18.85 -42.15 -18.85 -42.15 -18.9 -42.25 -19.0 -42.3 -19.1 -42.3 -19.15 -42.55 -19.3 -42.65 -19.3 -42.7 -19.35 -42.75 -19.35 -42.85 -19.4 -42.9 -19.4 -42.9 -19.45 -43.2 -19.5 -43.25 -19.5 -43.4 -19.55 -43.45 -19.55 -43.65 -19.65 -43.7 -19.7 -44.0 -19.7 -44.05 -19.75 -44.35 -19.8 -44.4 -19.8 Q-44.95 -19.8 -45.45 -19.9 L-45.55 -19.95 -45.6 -19.95 -45.6 -20.0 -45.75 -20.0 -45.8 -20.05 -45.8 -20.1 -45.9 -20.2 -46.1 -20.3 -46.15 -20.25 -46.25 -20.2 -46.45 -20.0 -46.65 -20.0 -46.7 -19.95 -46.9 -19.85 -46.95 -19.8 -47.0 -19.8 -47.05 -19.7 -47.15 -19.65 -47.25 -19.55 -47.3 -19.55 -47.4 -19.5 -47.55 -19.45 -48.6 -19.4 -48.7 -19.5 -48.8 -19.55 -48.85 -19.65 -48.9 -19.7 -48.95 -19.7 -49.95 -19.8 -50.0 -19.85 -50.1 -19.9 -50.1 -19.95 -50.15 -20.0 -50.15 -20.15 -50.1 -20.2 -50.1 -20.35 -50.15 -20.4 -50.15 -20.45 -50.3 -20.5 -51.75 -20.5 -51.9 -20.55 -52.15 -20.55 -52.2 -20.5 -52.3 -20.5 -52.4 -20.4 -52.6 -20.25 -52.7 -20.15 -52.8 -20.1 -52.85 -20.05 -52.85 -20.0 -52.9 -19.95 -52.95 -19.95 -53.05 -19.9 -53.1 -19.85 -53.3 -19.85 -53.4 -19.8 -53.55 -19.75 -53.75 -19.75 Q-53.8 -19.75 -53.85 -19.75 L-53.9 -19.8 -53.9 -19.85 -53.8 -19.95 -53.65 -20.0 -53.55 -20.0 -53.45 -20.05 -53.4 -20.05 -53.4 -20.1 -53.25 -20.1 -53.2 -20.15 -53.2 -20.3 -53.1 -20.35 -53.05 -20.35 -53.0 -20.4 -52.9 -20.45 M-9.75 -30.95 L-9.9 -30.95 -10.05 -30.9 -10.1 -30.9 -10.2 -30.85 -10.35 -30.85 -10.4 -30.8 -10.45 -30.8 -10.6 -30.75 -10.65 -30.7 -10.85 -30.7 -10.9 -30.75 -11.05 -30.8 -11.3 -30.85 -11.9 -30.9 -12.2 -30.95 -13.2 -30.95 -13.3 -30.9 -13.3 -30.85 -13.55 -30.85 -13.65 -30.8 -13.85 -30.75 -13.95 -30.75 -14.3 -30.7 -14.55 -30.75 -14.6 -30.75 -14.75 -30.9 -14.75 -30.95 -14.8 -31.0 -14.8 -31.05 -14.85 -31.1 -14.8 -31.15 -14.8 -31.2 -14.75 -31.25 -14.75 -31.35 -14.85 -31.45 -15.2 -31.45 -15.3 -31.4 -15.8 -31.4 -15.9 -31.35 -16.05 -31.35 -16.15 -31.3 -16.2 -31.25 -16.3 -31.25 -16.6 -31.15 -16.75 -31.15 -16.9 -31.1 -16.95 -31.1 -17.1 -31.05 -17.1 -31.0 -17.5 -30.95 -17.8 -30.95 -17.85 -30.9 -18.0 -30.85 -18.05 -30.85 -18.35 -30.7 -18.4 -30.65 -18.4 -30.6 -18.45 -30.55 -18.4 -30.5 -18.4 -30.4 -18.35 -30.35 -18.35 -30.0 -18.4 -29.95 -18.4 -29.9 -18.5 -29.8 -18.55 -29.8 -18.65 -29.7 -18.65 -29.65 -18.7 -29.6 -18.65 -29.6 -18.5 -29.65 -18.4 -29.7 -18.25 -29.75 -18.05 -29.8 -17.9 -29.85 -17.85 -29.9 -17.7 -30.0 -17.5 -30.2 -17.35 -30.3 -17.3 -30.35 -17.25 -30.35 -17.2 -30.4 -16.25 -30.4 -16.2 -30.35 -16.05 -30.35 -16.05 -30.3 -15.95 -30.2 -15.85 -30.15 -15.8 -30.1 -15.75 -30.1 -15.75 -30.05 -15.6 -30.05 -15.55 -30.0 -15.45 -30.0 -15.35 -29.95 -15.3 -29.9 -15.1 -29.9 -15.0 -29.85 -14.3 -29.85 -14.15 -29.8 -13.55 -29.8 -13.45 -29.75 -13.3 -29.75 -13.2 -29.8 -12.9 -29.85 -12.55 -29.9 -12.15 -29.95 -12.0 -29.95 -11.6 -30.05 -11.35 -30.1 -11.3 -30.15 -10.8 -30.2 -10.55 -30.2 -10.55 -30.25 -10.5 -30.3 -10.5 -30.45 -10.45 -30.5 -10.45 -30.55 -10.35 -30.6 -10.3 -30.65 -9.75 -30.65 -9.7 -30.7 -9.75 -30.75 -9.75 -30.95 M-39.25 -22.95 L-39.0 -22.95 -38.9 -22.9 -38.7 -22.9 -38.65 -22.85 -38.65 -22.55 -38.7 -22.5 -38.8 -22.45 -39.1 -22.15 -39.1 -22.1 -39.15 -22.05 -39.25 -22.0 -39.25 -21.95 -39.35 -21.85 -39.0 -21.85 -38.9 -21.8 -38.95 -21.75 -38.9 -21.7 -38.75 -21.65 -38.7 -21.6 -38.65 -21.5 -38.6 -21.5 -38.6 -21.45 -38.45 -21.3 -38.5 -21.3 -38.6 -21.25 -38.75 -21.3 -38.85 -21.4 -38.85 -21.45 -38.95 -21.55 -39.05 -21.6 -39.1 -21.65 -39.2 -21.55 -39.45 -21.55 -39.5 -21.6 -39.5 -21.65 -39.55 -21.7 -39.55 -21.75 -39.6 -21.75 -39.6 -21.9 -39.5 -22.0 -39.5 -22.05 -39.4 -22.1 -39.25 -22.3 -39.15 -22.4 -39.15 -22.45 -39.1 -22.45 -39.05 -22.5 -38.95 -22.55 -38.85 -22.65 -38.85 -22.75 -38.95 -22.8 -39.0 -22.8 -39.35 -22.85 -39.5 -22.8 -39.55 -22.8 -39.65 -22.75 -39.7 -22.8 -39.7 -22.85 -39.65 -22.9 -39.55 -22.95 -39.55 -23.0 -39.35 -23.0 -39.25 -22.95 M-33.0 -14.85 L-33.3 -14.8 -33.5 -14.7 -33.65 -14.7 -33.9 -14.65 -34.05 -14.6 -34.15 -14.6 -34.2 -14.55 -34.6 -14.55 -34.75 -14.5 -35.4 -14.55 -35.4 -14.5 Q-35.3 -14.4 -35.3 -14.3 L-35.3 -14.25 -35.35 -14.2 -35.3 -14.15 -35.2 -14.1 -35.0 -13.9 -34.95 -13.9 -34.95 -13.7 -35.0 -13.65 -35.0 -13.6 -35.05 -13.55 -35.1 -13.55 -35.1 -13.5 -35.15 -13.45 -35.25 -13.4 -35.35 -13.3 -35.5 -13.3 -35.6 -13.25 -35.65 -13.2 -35.95 -13.05 -36.05 -12.95 -36.1 -12.95 -35.75 -13.0 -35.4 -13.0 -35.35 -12.95 -35.35 -12.85 -35.25 -12.75 -35.25 -12.4 -35.35 -12.4 -35.35 -12.2 -35.15 -12.15 -35.05 -12.15 -35.0 -12.1 -35.0 -12.0 -34.95 -11.95 -34.85 -11.9 -34.85 -11.85 -34.7 -11.75 -34.55 -11.6 -34.55 -11.5 Q-34.35 -11.3 -34.0 -11.25 L-33.7 -11.2 -33.55 -11.2 -33.5 -11.25 -33.3 -11.35 -33.2 -11.35 -33.1 -11.3 -32.8 -11.25 -32.65 -11.25 -32.55 -11.35 -32.55 -11.4 -32.5 -11.45 -32.5 -11.5 -32.35 -11.65 -32.1 -11.65 -32.1 -11.7 -32.15 -11.7 -32.2 -11.75 -32.35 -11.8 -32.5 -11.95 -32.5 -12.15 -32.45 -12.2 -32.55 -12.3 -32.85 -12.4 -33.1 -12.4 -33.3 -12.45 -33.35 -12.5 -33.5 -12.5 -33.6 -12.55 -33.7 -12.65 -33.7 -12.85 -33.8 -12.85 -33.85 -12.9 -33.85 -13.1 -33.8 -13.15 -33.75 -13.15 -33.4 -13.2 -33.15 -13.25 -32.9 -13.35 -32.75 -13.4 -32.55 -13.45 -32.45 -13.45 -32.05 -13.5 -31.95 -13.55 -31.85 -13.55 -31.75 -13.6 -31.4 -13.6 Q-31.35 -13.65 -31.3 -13.65 L-31.2 -13.7 -30.35 -13.8 -29.9 -13.9 -29.8 -14.0 -29.8 -14.15 -29.7 -14.25 -29.7 -14.35 -29.8 -14.45 -29.8 -14.8 -29.75 -14.85 -29.75 -14.9 -29.8 -14.95 -29.85 -14.95 -29.85 -15.0 -29.9 -15.05 -29.9 -15.1 -30.05 -15.15 -30.1 -15.15 -30.2 -15.2 -30.25 -15.25 -30.4 -15.3 -30.45 -15.35 -30.6 -15.35 -30.65 -15.4 -30.95 -15.4 -31.05 -15.35 -31.15 -15.25 -31.25 -15.2 -31.4 -15.2 -31.6 -15.15 -31.75 -15.1 -32.3 -15.05 -32.55 -15.05 -32.85 -14.9 -33.0 -14.85 M-18.45 -17.65 L-18.4 -17.7 -18.25 -17.75 -18.15 -17.8 -18.15 -17.75 -18.3 -17.6 -18.25 -17.55 -18.25 -17.5 -18.3 -17.5 -18.3 -17.45 -18.35 -17.4 -18.35 -17.3 -18.45 -17.1 -18.6 -16.95 -18.8 -16.85 -18.8 -16.55 -18.75 -16.5 -18.75 -16.45 -18.7 -16.45 -18.7 -16.4 -18.75 -16.35 -18.65 -16.25 -18.65 -16.1 -18.6 -16.05 -18.6 -15.85 -18.5 -15.75 -18.5 -15.7 -18.65 -15.55 -18.95 -15.55 -19.05 -15.6 -19.1 -15.65 -19.15 -15.65 -19.15 -15.8 -19.05 -15.9 -18.95 -15.9 -18.8 -15.95 -18.7 -15.95 -18.8 -16.05 -18.8 -16.1 -18.85 -16.15 -18.85 -16.25 -18.9 -16.3 -18.95 -16.3 -18.95 -16.4 -19.05 -16.45 -19.05 -17.0 -19.0 -17.0 -18.85 -17.05 -18.85 -17.1 -18.8 -17.15 -18.8 -17.2 -18.7 -17.3 -18.6 -17.35 -18.6 -17.5 -18.55 -17.55 -18.55 -17.6 -18.45 -17.65" fill="#ffffff" fill-rule="evenodd" stroke="none"/>
  </g>
</svg>
