<?xml version="1.0" encoding="UTF-8" standalone="no"?>
<svg xmlns:ffdec="https://www.free-decompiler.com/flash" xmlns:xlink="http://www.w3.org/1999/xlink" ffdec:objectType="shape" height="23.5px" width="65.35px" xmlns="http://www.w3.org/2000/svg">
  <g transform="matrix(1.0, 0.0, 0.0, 1.0, 53.7, 32.05)">
    <path d="M3.05 -26.5 L3.15 -26.45 3.25 -26.35 3.25 -26.3 3.3 -26.25 3.35 -26.25 3.35 -26.2 3.5 -26.05 3.5 -25.9 3.55 -25.9 3.6 -25.85 3.6 -25.65 3.65 -25.55 3.6 -25.5 3.6 -25.45 3.55 -25.4 3.55 -25.15 3.5 -25.1 3.5 -25.05 3.0 -25.05 2.9 -25.1 2.85 -25.1 2.85 -25.15 2.7 -25.15 2.6 -25.25 2.45 -25.25 2.3 -25.3 2.35 -25.25 2.35 -25.15 2.4 -25.1 2.55 -25.0 2.8 -24.8 2.9 -24.7 2.9 -24.65 2.95 -24.6 3.0 -24.6 3.05 -24.55 3.05 -24.5 3.2 -24.35 3.2 -24.3 3.25 -24.25 3.25 -24.2 3.35 -24.1 3.35 -23.95 3.4 -23.95 3.4 -23.9 3.45 -23.85 3.45 -23.8 3.5 -23.75 3.5 -23.7 3.55 -23.65 3.55 -23.3 3.5 -23.25 3.45 -23.25 3.4 -23.2 3.4 -23.0 3.35 -22.95 3.25 -22.95 3.2 -22.9 2.8 -22.9 2.75 -22.95 2.65 -23.0 2.25 -23.05 2.2 -23.1 1.7 -23.1 1.7 -23.05 1.8 -22.95 1.8 -22.9 1.85 -22.85 1.9 -22.85 1.95 -22.8 1.95 -22.65 1.85 -22.55 1.7 -22.45 1.7 -22.4 1.65 -22.35 1.5 -22.25 1.4 -22.2 1.35 -22.15 1.35 -22.1 1.25 -22.0 1.15 -21.95 1.1 -21.9 0.95 -21.85 0.9 -21.85 0.85 -21.8 0.8 -21.8 0.75 -21.75 0.2 -21.75 0.05 -21.8 -0.05 -21.9 -0.05 -21.85 -0.1 -21.85 -0.1 -21.8 -0.2 -21.7 -0.3 -21.7 -0.3 -21.65 -0.45 -21.55 -0.55 -21.5 -0.65 -21.4 -0.65 -21.35 -0.75 -21.25 -0.9 -21.15 -1.0 -21.1 -1.05 -21.05 -1.1 -21.05 Q-1.15 -21.0 -1.25 -21.0 L-1.3 -20.95 -1.35 -20.95 -1.35 -20.9 -1.5 -20.9 -1.55 -20.85 -1.65 -20.85 -1.75 -20.8 -1.8 -20.8 -1.8 -20.75 -2.0 -20.75 -2.15 -20.8 -2.25 -20.85 -2.35 -20.85 -2.35 -20.8 -3.3 -20.9 -3.4 -20.9 -3.7 -20.95 -3.7 -20.9 -3.45 -20.65 -3.45 -20.6 -3.4 -20.55 -3.4 -20.4 -3.35 -20.4 -3.1 -20.15 -3.1 -20.05 -2.95 -19.9 -2.95 -19.7 -2.9 -19.6 -2.9 -19.55 -2.8 -19.5 -2.65 -19.5 -2.4 -19.55 -2.35 -19.6 -2.25 -19.65 -2.2 -19.65 -2.1 -19.7 -1.95 -19.7 -1.9 -19.75 -1.8 -19.8 Q-1.75 -19.8 -1.7 -19.8 L-1.6 -19.9 -1.5 -19.95 -1.45 -20.0 -0.65 -20.0 -0.45 -19.9 -0.45 -19.65 -0.2 -19.65 -0.05 -19.6 0.0 -19.6 0.1 -19.5 0.2 -19.45 0.25 -19.45 0.4 -19.4 0.45 -19.4 0.6 -19.35 0.7 -19.3 0.7 -19.25 1.35 -19.25 1.45 -19.3 1.65 -19.3 1.75 -19.35 2.15 -19.4 2.25 -19.4 2.45 -19.45 2.65 -19.55 2.65 -19.6 2.7 -19.65 2.75 -19.65 2.8 -19.7 2.9 -19.75 3.0 -19.85 3.1 -19.85 3.35 -19.9 3.4 -19.9 3.6 -20.0 4.15 -20.0 4.2 -19.95 4.3 -19.9 4.35 -19.9 4.6 -19.85 4.85 -19.75 Q4.95 -19.75 5.0 -19.7 L5.05 -19.65 5.15 -19.65 5.85 -19.6 6.0 -19.55 Q6.15 -19.5 6.3 -19.5 L6.5 -19.4 6.6 -19.4 6.6 -19.35 6.75 -19.2 6.85 -19.15 6.9 -19.1 6.9 -19.0 6.8 -18.9 6.8 -18.75 6.9 -18.7 6.9 -18.65 7.0 -18.55 7.0 -18.3 6.95 -18.25 6.95 -18.2 6.9 -18.15 6.9 -18.1 6.85 -18.05 Q7.1 -18.1 7.3 -18.2 L7.4 -18.25 7.55 -18.3 7.95 -18.4 8.1 -18.45 8.25 -18.6 8.35 -18.6 8.65 -18.65 9.05 -18.65 9.15 -18.6 9.2 -18.6 9.25 -18.55 9.4 -18.55 9.5 -18.5 9.5 -18.45 9.55 -18.4 9.95 -18.4 10.0 -18.45 10.15 -18.5 10.25 -18.6 10.25 -18.65 10.4 -18.7 10.65 -18.75 10.7 -18.75 10.75 -18.8 11.3 -18.75 11.4 -18.75 11.4 -18.7 11.55 -18.55 11.65 -18.5 11.65 -18.05 11.55 -18.05 11.55 -18.0 11.5 -17.9 11.4 -17.8 11.4 -17.75 11.35 -17.75 11.2 -17.65 11.05 -17.6 10.8 -17.55 10.55 -17.6 10.45 -17.6 10.45 -17.55 10.55 -17.5 10.6 -17.45 10.6 -17.35 10.65 -17.35 10.7 -17.3 10.7 -17.2 10.75 -17.15 10.85 -17.1 10.85 -16.85 10.8 -16.8 10.55 -16.8 10.45 -16.75 10.3 -16.7 10.05 -16.7 10.0 -16.65 9.9 -16.65 9.8 -16.6 9.85 -16.6 10.0 -16.55 10.1 -16.55 10.2 -16.5 10.2 -16.45 10.25 -16.4 10.05 -16.2 10.0 -16.2 9.9 -16.15 9.9 -16.1 9.7 -16.1 9.65 -16.05 9.55 -16.0 9.5 -15.95 9.4 -15.95 9.2 -15.85 9.15 -15.85 9.05 -15.75 8.95 -15.75 9.1 -15.9 9.25 -15.95 9.4 -16.1 9.45 -16.1 9.55 -16.2 9.8 -16.4 9.55 -16.45 9.4 -16.5 9.35 -16.55 9.35 -16.6 9.3 -16.6 9.35 -16.65 9.45 -16.65 9.55 -16.7 9.7 -16.75 9.95 -16.8 10.05 -16.85 Q10.25 -16.95 10.45 -17.0 L10.55 -17.0 10.5 -17.05 10.45 -17.15 10.25 -17.35 10.15 -17.4 10.1 -17.45 10.1 -17.6 9.85 -17.6 9.75 -17.65 9.7 -17.7 9.7 -17.65 9.65 -17.6 9.6 -17.6 9.6 -17.55 9.5 -17.45 9.5 -17.4 9.4 -17.3 9.25 -17.25 9.15 -17.15 9.15 -17.05 8.8 -17.05 8.7 -17.15 8.6 -17.2 8.5 -17.1 8.5 -17.05 8.45 -17.05 8.4 -17.0 8.25 -17.0 8.25 -17.25 8.3 -17.3 8.3 -17.35 8.4 -17.35 8.45 -17.4 8.7 -17.35 8.8 -17.35 8.95 -17.3 9.0 -17.25 9.25 -17.5 9.25 -17.55 9.3 -17.6 9.4 -17.65 9.4 -17.7 9.55 -17.85 9.65 -17.85 9.7 -17.9 9.85 -17.9 9.95 -17.85 9.95 -17.75 10.0 -17.7 10.1 -17.7 10.2 -17.8 10.2 -17.85 10.25 -17.9 10.5 -17.9 10.6 -17.85 10.65 -17.8 10.7 -17.8 10.8 -17.75 10.95 -17.75 11.1 -17.8 11.15 -17.85 11.25 -17.9 11.25 -18.0 11.3 -18.05 11.35 -18.05 11.45 -18.15 11.45 -18.35 11.4 -18.35 11.35 -18.4 11.35 -18.45 11.2 -18.6 10.75 -18.6 10.55 -18.55 10.5 -18.5 10.5 -18.45 10.4 -18.35 10.35 -18.35 10.2 -18.3 10.1 -18.25 10.0 -18.15 9.75 -18.15 9.7 -18.2 9.35 -18.2 9.2 -18.35 9.0 -18.4 8.95 -18.45 8.85 -18.5 8.8 -18.45 8.45 -18.4 8.35 -18.35 Q8.1 -18.2 7.75 -18.15 7.6 -18.1 7.5 -18.05 L7.45 -18.0 7.35 -18.0 7.2 -17.95 7.15 -17.95 7.0 -17.9 7.0 -17.85 6.75 -17.9 6.65 -17.8 6.65 -17.75 6.55 -17.65 6.55 -17.6 6.5 -17.55 6.6 -17.45 6.6 -17.35 6.5 -17.25 6.5 -17.1 6.65 -16.95 6.65 -16.9 6.8 -16.75 6.8 -16.65 6.85 -16.6 6.85 -16.55 6.8 -16.5 6.8 -16.45 6.75 -16.4 Q6.75 -16.35 6.7 -16.3 L6.5 -16.0 6.4 -15.95 6.25 -15.95 6.1 -15.9 5.5 -15.9 5.4 -16.0 5.15 -16.05 5.0 -16.1 4.8 -16.15 4.6 -16.15 4.55 -16.1 4.5 -16.1 4.4 -16.0 4.55 -15.85 4.55 -15.75 4.5 -15.7 4.5 -15.55 4.55 -15.45 4.55 -15.4 4.5 -15.3 4.5 -15.25 4.45 -15.2 4.45 -15.05 4.4 -15.05 4.35 -15.0 4.35 -14.95 4.25 -14.85 4.25 -14.75 4.2 -14.75 4.15 -14.7 4.05 -14.65 4.05 -14.6 4.0 -14.55 4.0 -14.45 3.9 -14.35 Q3.9 -14.25 3.8 -14.2 L3.6 -14.0 3.5 -13.95 3.45 -13.9 3.45 -13.85 3.35 -13.8 3.3 -13.75 3.15 -13.7 3.1 -13.7 2.45 -13.65 2.4 -13.7 2.25 -13.7 2.2 -13.65 2.05 -13.7 1.95 -13.8 1.75 -13.9 1.7 -13.9 1.65 -13.95 1.55 -14.0 Q1.5 -14.0 1.5 -14.05 L1.35 -14.05 1.25 -14.1 1.25 -14.15 1.05 -14.15 1.0 -14.2 1.0 -14.25 0.9 -14.35 0.75 -14.35 0.6 -14.4 0.55 -14.45 0.45 -14.5 0.4 -14.55 0.25 -14.6 0.2 -14.6 0.05 -14.65 0.0 -14.7 0.0 -14.75 -0.05 -14.8 0.0 -14.95 -0.05 -15.05 -0.05 -15.2 -0.1 -15.25 -0.1 -15.7 -0.2 -15.75 -0.2 -15.8 -0.3 -15.85 -0.3 -15.9 -0.4 -16.0 -0.6 -16.1 -0.75 -16.15 -0.95 -16.2 -0.95 -16.15 -1.0 -16.1 -1.4 -16.1 -1.45 -16.15 -1.55 -16.1 -1.95 -16.1 -2.0 -16.15 -2.0 -16.2 -2.15 -16.35 -2.2 -16.35 -2.3 -16.45 -2.4 -16.5 -2.45 -16.5 -2.6 -16.45 -2.8 -16.4 -2.9 -16.3 -2.9 -16.0 -2.95 -15.95 -2.95 -15.55 -3.05 -15.45 -3.05 -15.35 -3.25 -15.15 -3.25 -14.95 -3.3 -14.95 -3.3 -14.8 -3.4 -14.7 -3.4 -14.65 -3.45 -14.6 -3.5 -14.6 -3.5 -14.55 -3.55 -14.5 -3.55 -14.45 -3.65 -14.35 -3.75 -14.3 -3.8 -14.25 -3.85 -14.25 -3.9 -14.2 -3.9 -14.15 -3.85 -14.1 -3.85 -14.05 -3.8 -14.0 -3.8 -13.9 -2.15 -13.9 -2.1 -13.85 -2.1 -13.75 -2.05 -13.7 -2.05 -13.65 -2.0 -13.65 -2.0 -13.45 -1.9 -13.35 -1.9 -13.3 -1.75 -13.15 -1.75 -13.05 -1.65 -12.95 -1.65 -12.75 -1.55 -12.65 -1.55 -12.6 -1.15 -12.7 -1.05 -12.75 -0.85 -12.75 -0.8 -12.7 -0.3 -12.65 -0.25 -12.6 -0.25 -12.55 -0.15 -12.45 -0.15 -12.35 -0.1 -12.25 -0.05 -12.2 0.0 -12.1 0.0 -12.05 0.05 -12.0 0.1 -11.9 0.1 -11.65 -0.05 -11.5 -0.15 -11.5 -0.3 -11.35 -0.45 -11.3 -0.5 -11.25 -0.55 -11.25 -0.55 -11.05 Q-0.55 -10.9 -0.6 -10.8 L-0.6 -10.45 -0.45 -10.35 0.45 -10.3 0.5 -10.35 0.6 -10.35 0.65 -10.3 0.8 -10.3 Q0.95 -10.35 1.0 -10.4 L1.1 -10.45 1.25 -10.55 1.4 -10.6 1.45 -10.65 1.55 -10.7 1.6 -10.75 1.7 -10.8 1.75 -10.8 1.85 -10.85 1.9 -10.9 2.05 -10.95 2.05 -11.0 2.15 -11.1 2.25 -11.15 2.4 -11.2 2.5 -11.25 2.5 -11.35 2.6 -11.45 2.6 -11.55 2.75 -11.7 3.25 -11.7 3.35 -11.6 3.4 -11.6 3.5 -11.55 3.75 -11.5 3.95 -11.4 4.05 -11.4 4.15 -11.35 4.3 -11.35 4.45 -11.3 4.5 -11.25 4.65 -11.2 4.75 -11.15 4.8 -11.1 4.85 -11.0 4.9 -11.0 4.9 -10.95 5.1 -10.75 5.1 -10.55 5.2 -10.35 5.2 -10.2 Q5.15 -10.1 5.05 -10.05 L5.0 -10.0 4.75 -9.9 4.75 -9.85 4.7 -9.85 4.6 -9.8 3.6 -9.8 3.75 -9.65 3.75 -9.55 3.8 -9.5 3.95 -9.4 4.0 -9.4 3.95 -9.35 3.9 -9.25 3.9 -9.0 Q3.9 -8.9 3.8 -8.85 L3.7 -8.8 3.6 -8.7 3.55 -8.7 3.55 -8.65 3.5 -8.55 3.3 -8.55 3.3 -8.6 3.35 -8.7 3.35 -8.75 3.4 -8.8 3.4 -8.9 3.55 -9.05 3.55 -9.35 3.5 -9.4 3.5 -9.5 3.45 -9.55 3.3 -9.65 3.3 -9.7 3.25 -9.75 3.2 -9.75 3.2 -9.8 3.25 -9.85 3.25 -10.0 3.3 -10.05 3.3 -10.1 3.35 -10.1 3.45 -10.15 3.75 -10.15 4.2 -10.05 4.35 -10.05 Q4.5 -10.1 4.6 -10.15 L4.7 -10.2 4.8 -10.3 4.8 -10.35 4.75 -10.4 4.75 -10.65 4.7 -10.7 4.6 -10.75 4.45 -10.9 4.45 -10.95 4.4 -11.0 4.25 -11.05 4.2 -11.1 4.0 -11.15 3.95 -11.2 3.8 -11.25 3.75 -11.3 3.7 -11.3 3.5 -11.35 3.35 -11.35 3.3 -11.4 3.3 -11.45 3.2 -11.55 3.15 -11.65 2.85 -11.65 2.75 -11.6 2.75 -11.55 2.65 -11.45 2.6 -11.35 2.6 -11.2 2.55 -11.2 2.4 -11.1 2.25 -11.05 2.05 -10.85 1.95 -10.8 1.9 -10.75 1.85 -10.75 1.75 -10.7 1.7 -10.65 1.5 -10.6 1.45 -10.55 1.4 -10.55 1.4 -10.5 1.25 -10.5 1.25 -10.4 1.2 -10.4 1.15 -10.35 1.1 -10.35 1.05 -10.3 0.95 -10.25 1.45 -10.25 1.45 -10.3 1.65 -10.3 1.75 -10.25 1.8 -10.2 1.8 -9.5 1.7 -9.4 1.6 -9.35 1.45 -9.3 0.85 -9.3 0.8 -9.35 0.8 -9.4 0.4 -9.45 0.35 -9.4 0.2 -9.4 0.1 -9.35 0.05 -9.25 0.0 -9.2 0.0 -9.15 -0.05 -9.15 -0.1 -9.05 -0.25 -9.05 -0.15 -9.15 -0.2 -9.15 -0.2 -9.3 -0.1 -9.4 -0.1 -9.5 -0.05 -9.5 0.1 -9.55 0.2 -9.6 0.55 -9.6 0.85 -9.55 0.95 -9.5 1.0 -9.5 1.0 -9.45 1.35 -9.5 1.4 -9.5 1.5 -9.6 1.5 -9.95 1.45 -9.95 1.35 -10.0 0.65 -10.05 0.55 -10.1 0.5 -10.1 0.35 -10.15 -0.55 -10.2 -0.7 -10.25 -0.75 -10.25 -0.9 -10.3 -0.95 -10.35 -0.95 -10.5 -0.9 -10.5 -0.85 -10.55 -0.85 -10.75 -0.9 -10.95 -0.9 -11.25 -0.85 -11.25 -0.8 -11.35 -0.8 -11.4 -0.65 -11.45 -0.45 -11.55 -0.25 -11.6 -0.2 -11.6 -0.2 -11.65 -0.1 -11.75 -0.15 -11.8 -0.2 -11.9 -0.3 -12.0 -0.3 -12.2 -0.4 -12.3 -0.45 -12.4 -0.5 -12.45 -1.05 -12.55 -1.1 -12.5 -1.3 -12.45 -1.45 -12.4 -1.5 -12.35 -1.65 -12.35 -1.85 -12.15 -1.85 -12.05 -1.95 -11.95 -2.05 -11.9 -2.2 -11.75 -2.75 -11.75 -2.8 -11.8 -2.9 -11.75 -3.0 -11.65 -3.0 -11.6 -3.05 -11.55 -3.05 -11.4 -3.1 -11.35 -3.0 -11.25 -3.0 -11.2 -2.8 -11.1 -2.65 -11.0 -2.55 -11.0 -2.45 -10.95 -2.3 -10.9 -2.25 -10.95 -2.2 -11.05 -2.1 -11.1 -2.05 -11.1 -2.0 -11.15 -1.8 -11.15 -1.6 -11.05 -1.55 -11.0 -1.5 -11.0 -1.5 -10.85 Q-1.5 -10.75 -1.5 -10.7 L-1.55 -10.55 -1.55 -10.4 -1.6 -10.35 -1.6 -10.3 -1.65 -10.3 -1.65 -10.25 -1.7 -10.2 -1.8 -10.15 -1.85 -10.1 -1.9 -10.1 -2.7 -10.15 -2.95 -10.2 -3.2 -10.2 -3.25 -10.25 -3.3 -10.25 -3.4 -10.3 -3.45 -10.35 -3.45 -10.4 -3.5 -10.45 -3.55 -10.45 -3.75 -10.55 -4.15 -10.55 -4.2 -10.5 Q-4.25 -10.5 -4.3 -10.5 L-4.55 -10.45 -4.75 -10.4 -4.85 -10.35 -4.9 -10.35 -5.25 -10.3 -5.35 -10.25 -5.55 -10.25 -5.65 -10.3 -6.25 -10.3 -6.15 -10.2 -6.15 -9.95 -6.2 -9.9 -6.15 -9.6 -6.15 -9.35 -6.2 -9.2 -6.2 -9.0 -6.3 -8.9 -6.4 -8.9 -6.4 -8.95 -6.35 -9.0 -6.4 -9.2 -6.4 -9.4 -6.35 -9.65 -6.35 -9.75 -6.4 -9.75 -6.45 -9.8 -6.45 -9.9 -6.5 -9.95 -6.4 -10.05 -6.5 -10.15 -6.5 -10.45 -6.45 -10.5 -6.3 -10.5 -5.95 -10.55 -5.8 -10.6 -5.75 -10.6 -5.6 -10.55 -5.55 -10.5 -5.5 -10.5 -5.0 -10.6 Q-4.8 -10.6 -4.65 -10.7 L-4.55 -10.7 -4.3 -10.75 -4.25 -10.8 -3.7 -10.8 -3.65 -10.75 -3.6 -10.75 -3.45 -10.7 -3.35 -10.7 -3.1 -10.45 -3.05 -10.45 -2.85 -10.4 -2.8 -10.35 -2.75 -10.35 -2.6 -10.3 -2.5 -10.3 -2.15 -10.25 -1.9 -10.25 -1.85 -10.3 -1.85 -10.45 -1.75 -10.55 -1.75 -10.6 -1.8 -10.65 -1.8 -10.9 -1.95 -10.9 -2.05 -10.8 -2.2 -10.7 -2.6 -10.7 -2.75 -10.75 -3.0 -10.9 -3.35 -11.15 -3.45 -11.25 -3.45 -11.4 -3.4 -11.45 -3.4 -11.5 -3.35 -11.55 -3.35 -11.65 -3.25 -11.75 -3.25 -11.8 -3.2 -11.85 -3.2 -11.9 -3.15 -11.9 -3.05 -11.95 -2.7 -11.95 -2.6 -11.9 -2.25 -11.9 -2.15 -11.95 -2.05 -12.05 -2.05 -12.1 Q-2.0 -12.1 -2.0 -12.15 L-2.0 -12.2 -2.05 -12.25 -2.0 -12.25 -1.95 -12.3 -1.95 -12.35 -2.0 -12.35 -2.05 -12.4 -1.95 -12.5 -1.95 -12.6 -2.0 -12.6 -2.0 -12.85 -2.2 -13.05 -2.2 -13.1 -2.3 -13.2 -2.3 -13.25 -2.35 -13.3 -2.35 -13.55 -2.45 -13.65 -2.9 -13.65 Q-3.3 -13.55 -3.9 -13.6 L-4.05 -13.65 -4.1 -13.7 -4.2 -13.75 -4.2 -13.9 -4.3 -14.0 -4.3 -14.2 -4.25 -14.25 -4.25 -14.3 -4.15 -14.4 -4.05 -14.45 -4.0 -14.45 -3.9 -14.5 -3.8 -14.6 -3.8 -14.65 -3.6 -14.85 -3.6 -15.0 -3.5 -15.1 -3.5 -15.25 -3.4 -15.35 -3.4 -15.4 -3.35 -15.4 -3.3 -15.45 -3.3 -15.55 -3.25 -15.6 -3.25 -15.75 -3.3 -15.75 -3.35 -15.8 -3.35 -16.1 -3.3 -16.1 -3.3 -16.45 -3.25 -16.45 -3.2 -16.5 -3.05 -16.55 -3.0 -16.6 -2.85 -16.7 -2.7 -16.75 -2.55 -16.75 -2.55 -16.8 -2.35 -16.8 -2.25 -16.75 -2.2 -16.7 -2.05 -16.6 -1.85 -16.5 -1.75 -16.4 -1.25 -16.4 -1.2 -16.35 -1.1 -16.4 -1.0 -16.4 -0.9 -16.45 -0.65 -16.45 -0.45 -16.35 -0.35 -16.35 -0.1 -16.1 -0.05 -16.1 0.05 -16.05 0.05 -16.0 0.2 -15.85 0.2 -15.8 0.25 -15.75 0.25 -15.65 0.3 -15.55 0.3 -15.4 0.35 -15.35 0.35 -15.3 0.4 -15.25 0.4 -14.85 0.45 -14.85 0.55 -14.8 0.65 -14.8 0.75 -14.75 0.85 -14.65 1.1 -14.65 1.2 -14.6 1.4 -14.4 1.5 -14.35 1.55 -14.3 1.65 -14.25 1.75 -14.25 1.85 -14.15 1.95 -14.1 2.0 -14.05 2.05 -14.05 2.35 -14.0 2.7 -14.0 2.7 -13.95 2.95 -13.95 3.2 -14.2 3.3 -14.25 3.4 -14.25 3.45 -14.3 3.45 -14.35 3.55 -14.45 3.55 -14.5 3.65 -14.6 3.65 -14.65 3.7 -14.7 3.8 -14.75 3.85 -14.8 3.85 -14.85 4.0 -15.0 4.0 -15.05 4.05 -15.1 4.05 -15.15 4.1 -15.2 4.1 -15.3 4.2 -15.4 4.1 -15.5 4.1 -15.75 3.9 -15.95 3.9 -16.1 4.0 -16.2 4.05 -16.2 4.1 -16.25 4.2 -16.25 4.3 -16.3 4.35 -16.35 4.55 -16.45 4.8 -16.45 Q5.05 -16.35 5.25 -16.3 L5.55 -16.2 5.65 -16.2 Q5.65 -16.15 5.7 -16.15 L5.95 -16.15 6.0 -16.2 6.15 -16.2 6.2 -16.3 6.35 -16.45 6.35 -16.55 6.4 -16.55 6.45 -16.6 6.35 -16.65 6.35 -16.75 6.25 -16.8 6.25 -16.9 6.2 -16.9 6.2 -17.65 6.3 -17.75 6.3 -17.85 6.4 -17.95 6.5 -18.0 6.5 -18.2 6.55 -18.25 6.55 -18.4 6.6 -18.45 6.5 -18.55 6.5 -18.6 6.45 -18.6 6.45 -18.75 6.5 -18.8 6.5 -19.05 6.45 -19.1 6.45 -19.15 6.35 -19.2 6.3 -19.2 6.1 -19.25 6.0 -19.3 5.95 -19.35 Q5.85 -19.35 5.75 -19.4 L4.9 -19.4 4.85 -19.45 4.75 -19.5 4.7 -19.55 4.55 -19.6 4.5 -19.65 4.3 -19.65 4.25 -19.7 4.1 -19.7 4.0 -19.75 4.0 -19.8 3.8 -19.8 3.8 -19.75 3.55 -19.75 3.45 -19.65 3.35 -19.65 3.2 -19.6 3.15 -19.55 3.05 -19.55 2.9 -19.45 2.85 -19.4 2.75 -19.35 2.7 -19.3 2.55 -19.3 2.4 -19.25 2.35 -19.2 1.75 -19.2 1.7 -19.15 1.5 -19.1 0.5 -19.1 0.35 -19.15 0.3 -19.15 0.2 -19.2 0.15 -19.2 -0.1 -19.25 -0.2 -19.3 -0.25 -19.3 -0.3 -19.35 -0.35 -19.35 -0.55 -19.4 -0.7 -19.4 -0.85 -19.55 -0.85 -19.7 -1.25 -19.7 -1.4 -19.65 -1.5 -19.6 -1.55 -19.55 -1.65 -19.55 -1.8 -19.5 -1.8 -19.45 -2.0 -19.4 -2.05 -19.4 -2.1 -19.35 -2.25 -19.3 -2.35 -19.3 -2.55 -19.25 -3.0 -19.25 -3.2 -19.35 -3.25 -19.4 -3.25 -19.45 -3.3 -19.55 -3.25 -19.65 -3.25 -19.75 -3.3 -19.75 -3.35 -19.8 -3.35 -19.85 -3.45 -19.95 -3.45 -20.05 -3.6 -20.1 -3.75 -20.25 -3.8 -20.35 -3.8 -20.4 Q-3.75 -20.4 -3.75 -20.45 L-3.8 -20.5 -3.8 -20.55 -3.85 -20.6 -3.95 -20.65 -4.1 -20.8 -4.1 -21.0 -4.3 -21.0 -4.8 -20.95 -4.95 -21.0 -5.3 -21.0 -5.5 -21.1 -5.5 -21.25 -5.45 -21.3 -5.45 -21.35 -5.4 -21.4 -5.4 -21.45 -5.3 -21.5 -5.25 -21.55 -5.2 -21.55 -5.2 -21.6 -5.25 -21.65 -5.45 -21.7 -5.55 -21.8 -5.65 -21.7 -5.75 -21.65 -5.8 -21.65 -5.95 -21.55 -5.95 -21.5 -6.05 -21.4 -6.0 -21.35 -6.0 -21.2 Q-5.95 -21.15 -5.95 -21.05 L-6.0 -20.9 -6.0 -20.7 -6.05 -20.65 -6.05 -20.6 -6.15 -20.6 -6.15 -20.65 -6.2 -20.7 -6.2 -20.9 -6.3 -21.0 -6.3 -21.05 -6.65 -21.1 -6.75 -21.15 -6.9 -21.3 -7.15 -21.3 -7.35 -21.2 -7.6 -21.15 -7.7 -21.15 -7.75 -21.1 -7.85 -21.15 -7.8 -21.15 -7.65 -21.2 -7.55 -21.25 -7.5 -21.3 -7.35 -21.35 -7.0 -21.35 -7.1 -21.4 -7.05 -21.5 -6.9 -21.55 -6.7 -21.55 -6.6 -21.5 -6.55 -21.45 -6.5 -21.35 -6.45 -21.3 -6.35 -21.25 -6.25 -21.25 -6.2 -21.3 -6.2 -21.35 -6.15 -21.4 -6.15 -21.45 -6.05 -21.55 -6.0 -21.65 -6.0 -21.8 -5.9 -21.9 -5.9 -21.95 -5.85 -21.95 -5.7 -22.0 -5.6 -22.05 -5.4 -22.05 -5.3 -22.0 -5.2 -21.9 -5.1 -21.9 -5.0 -21.85 -4.8 -21.8 -4.75 -21.75 -4.75 -21.55 -4.8 -21.5 -4.8 -21.45 -4.85 -21.4 -4.9 -21.4 -4.9 -21.3 -4.8 -21.25 -4.7 -21.25 -4.65 -21.2 -4.3 -21.15 -4.05 -21.15 -3.95 -21.25 -3.9 -21.25 -3.65 -21.3 -3.45 -21.3 -3.25 -21.2 -2.2 -21.15 -2.05 -21.15 -2.0 -21.1 -1.6 -21.2 -1.45 -21.2 -1.35 -21.25 -1.3 -21.3 -1.2 -21.35 -1.05 -21.4 -1.0 -21.45 -0.9 -21.5 -0.7 -21.65 -0.6 -21.7 -0.6 -21.75 -0.55 -21.8 -0.55 -21.85 -0.5 -21.85 -0.5 -21.95 -0.45 -22.0 -0.45 -22.3 -0.4 -22.3 -0.35 -22.35 -0.35 -22.55 -0.45 -22.65 -0.45 -23.0 Q-0.45 -23.1 -0.3 -23.15 L-0.1 -23.3 0.2 -23.4 0.3 -23.45 0.3 -23.55 0.4 -23.65 0.5 -23.7 0.5 -23.85 0.45 -23.9 0.45 -23.95 0.35 -24.0 0.05 -24.05 0.0 -24.05 -0.2 -24.15 -0.25 -24.2 -0.25 -24.25 -0.3 -24.3 -0.3 -24.4 -0.35 -24.45 -0.35 -24.5 -0.4 -24.55 -0.4 -24.7 -0.3 -24.8 -0.3 -24.85 -0.4 -24.95 -0.4 -25.0 -0.55 -25.15 -0.75 -25.2 -0.8 -25.2 -1.0 -25.3 -1.05 -25.3 -1.05 -25.35 -1.3 -25.35 -1.5 -25.25 -1.55 -25.2 -1.6 -25.2 -1.65 -25.15 -1.75 -25.1 -1.9 -25.05 -1.9 -25.0 -2.1 -25.0 -2.2 -24.95 -2.65 -24.95 -2.8 -25.0 -3.0 -25.05 -3.15 -25.1 -3.35 -25.2 -3.5 -25.35 -3.6 -25.5 Q-3.65 -25.5 -3.65 -25.55 L-3.95 -25.65 -4.05 -25.7 -4.1 -25.7 -4.1 -25.85 -4.15 -25.9 -4.2 -26.0 -4.2 -26.05 -4.15 -26.15 -4.15 -26.3 -4.3 -26.45 -4.4 -26.6 Q-4.5 -26.7 -4.65 -26.75 L-4.7 -26.8 -4.95 -26.8 -5.35 -26.85 -5.5 -26.9 -5.6 -26.9 -5.7 -26.85 -5.8 -26.75 -5.9 -26.7 -7.0 -26.75 -7.2 -26.55 -7.3 -26.55 -7.35 -26.5 -8.3 -26.5 -8.5 -26.55 -8.55 -26.6 -8.8 -26.65 -8.95 -26.7 -9.05 -26.7 -9.15 -26.8 -9.4 -26.85 -9.5 -26.95 -10.05 -27.05 -10.1 -27.1 -10.2 -27.1 -10.3 -27.2 -10.4 -27.2 -10.5 -27.25 -10.65 -27.3 -10.75 -27.35 -10.8 -27.4 -10.8 -27.55 -10.7 -27.65 -10.55 -27.75 -10.5 -27.8 -10.5 -28.05 -10.65 -28.2 -10.65 -28.3 -10.6 -28.35 -10.6 -28.5 -10.55 -28.5 -10.6 -28.55 -10.6 -28.85 -10.55 -28.9 -10.55 -28.95 -10.5 -29.0 -10.5 -29.05 -10.4 -29.1 -10.25 -29.25 -10.2 -29.25 -10.1 -29.3 Q-10.05 -29.3 -10.0 -29.3 L-9.9 -29.35 -9.8 -29.35 -9.65 -29.4 -9.2 -29.4 -9.2 -29.7 -9.25 -29.7 -9.4 -29.75 -9.45 -29.8 -9.55 -29.8 -10.2 -29.9 -10.55 -30.0 -10.85 -30.05 -11.3 -30.15 -11.35 -30.2 -11.55 -30.25 -11.6 -30.25 -12.7 -30.2 -12.75 -30.2 -12.85 -30.15 -12.95 -30.15 -14.1 -30.2 -14.35 -30.25 -14.65 -30.3 -14.8 -30.45 -14.8 -30.75 -15.05 -30.8 -15.5 -30.8 -15.55 -30.75 -16.05 -30.75 -16.25 -30.7 -16.3 -30.65 -17.3 -30.65 -17.5 -30.6 -17.55 -30.55 -17.65 -30.55 -17.75 -30.5 -17.8 -30.45 -17.8 -30.25 -17.9 -30.1 -18.0 -30.05 -18.05 -29.95 -18.1 -29.95 -18.15 -29.9 -18.25 -29.85 -18.25 -29.75 -18.4 -29.6 -18.45 -29.6 -18.85 -29.5 -18.9 -29.5 -19.05 -29.45 -19.1 -29.4 -19.2 -29.35 -19.35 -29.2 -19.45 -29.15 -19.75 -29.1 -19.85 -29.05 -20.5 -29.0 -20.7 -28.85 -20.9 -28.65 -20.9 -28.45 -20.8 -28.35 -20.8 -27.95 -20.85 -27.85 -20.85 -27.8 -20.9 -27.75 -20.9 -27.65 -21.2 -27.35 -21.35 -27.3 -21.4 -27.25 -21.5 -27.25 -21.5 -27.1 -21.6 -27.05 -21.6 -26.95 -21.65 -26.9 -21.75 -26.9 -21.85 -26.8 -21.9 -26.8 -22.0 -26.7 -22.1 -26.65 -22.25 -26.6 -22.35 -26.5 -22.5 -26.45 -22.8 -26.45 -22.85 -26.4 -23.5 -26.4 -23.55 -26.35 -23.7 -26.35 -23.7 -26.05 -23.75 -26.0 -23.85 -26.0 -23.95 -25.9 -24.0 -25.9 -24.1 -25.8 -24.3 -25.8 -24.35 -25.75 -24.45 -25.7 -24.5 -25.65 -24.4 -25.55 -24.4 -25.25 -24.35 -25.2 -24.35 -25.15 -24.2 -25.05 -24.0 -24.9 -23.65 -24.55 -23.65 -24.5 -23.6 -24.5 -23.6 -24.25 -23.5 -24.15 -23.4 -24.15 -23.4 -24.05 -23.35 -24.0 -23.35 -23.95 -23.25 -23.85 -22.95 -23.65 -22.6 -23.4 -22.45 -23.25 -22.3 -23.25 -22.15 -23.2 -22.15 -23.15 -22.1 -23.15 -22.1 -23.1 -22.0 -23.1 -21.9 -23.05 -21.6 -22.85 -21.5 -22.75 -21.4 -22.7 -21.35 -22.65 -21.25 -22.6 -21.25 -22.5 -21.2 -22.4 -21.2 -22.35 -21.25 -22.3 -21.25 -22.2 -21.2 -22.2 -21.1 -22.15 -20.9 -22.1 -20.85 -22.15 -20.55 -22.15 -20.45 -22.1 -20.4 -22.1 -19.7 -22.05 -19.7 -22.1 Q-19.65 -22.1 -19.6 -22.1 L-19.45 -22.15 -19.4 -22.2 -19.3 -22.25 -19.1 -22.25 -19.0 -22.3 -18.65 -22.3 -18.55 -22.25 -18.45 -22.25 -18.35 -22.2 -18.25 -22.1 -18.2 -22.1 -18.2 -22.0 -18.1 -21.9 -18.05 -21.8 -18.05 -21.25 -18.0 -21.2 -18.0 -21.15 -17.8 -21.1 -17.7 -21.05 -17.65 -21.05 -17.5 -21.0 -17.4 -20.9 -17.4 -20.85 -17.45 -20.7 -17.45 -20.25 -17.6 -20.1 -17.5 -20.1 -17.45 -20.05 -17.45 -20.0 -17.4 -19.95 -17.4 -19.8 -17.35 -19.75 -17.25 -19.75 -17.2 -19.7 -17.0 -19.6 -16.9 -19.6 -16.8 -19.55 -16.75 -19.5 -16.65 -19.45 -16.6 -19.4 -16.65 -19.35 -16.65 -19.25 -16.6 -19.2 -16.6 -19.15 Q-16.7 -19.05 -16.85 -18.95 L-17.05 -18.7 Q-17.1 -18.65 -17.2 -18.6 L-17.2 -18.55 -17.25 -18.5 -17.25 -18.45 -17.3 -18.4 -17.35 -18.4 -17.35 -18.35 -17.4 -18.3 -17.35 -18.3 -17.25 -18.25 -17.15 -18.15 -17.15 -18.0 -17.45 -17.75 -17.8 -17.4 -17.8 -17.35 -17.85 -17.3 -17.85 -17.25 -17.9 -17.2 -17.9 -17.15 -17.95 -17.1 -17.95 -17.05 -18.0 -17.0 -18.05 -17.0 -18.05 -16.55 -18.15 -16.45 -18.15 -16.0 -18.2 -15.95 -18.25 -15.95 -18.25 -15.85 -18.3 -15.8 -18.3 -15.7 -18.35 -15.65 -19.1 -15.65 -19.4 -15.8 -19.65 -16.0 -19.65 -16.05 -19.75 -16.1 -19.8 -16.1 -19.9 -16.05 -19.95 -16.0 -19.95 -15.9 -20.0 -15.85 -20.4 -15.8 -20.45 -15.75 -20.9 -15.75 -21.0 -15.65 -21.0 -15.6 -21.05 -15.55 -21.0 -15.55 -20.85 -15.5 -20.75 -15.45 -20.55 -15.45 -20.35 -15.5 -19.8 -15.5 -19.4 -15.3 -19.35 -15.25 -19.35 -14.9 -19.5 -14.75 -19.35 -14.6 -19.35 -14.55 -19.25 -14.45 -19.25 -14.4 -19.2 -14.35 -19.15 -14.35 -19.15 -14.3 -19.1 -14.25 Q-19.05 -14.15 -19.05 -14.05 L-19.1 -13.8 -19.1 -13.55 -19.25 -13.4 -19.25 -13.25 -19.35 -13.2 -19.4 -13.15 -19.9 -13.05 -20.3 -12.95 -20.35 -12.9 -20.6 -12.9 -20.7 -12.85 -20.8 -12.9 -21.05 -12.8 -21.3 -12.75 -21.45 -12.7 -21.55 -12.7 -21.85 -12.65 -21.9 -12.6 -22.2 -12.6 -22.3 -12.55 -22.45 -12.55 -22.55 -12.5 -23.2 -12.5 -23.3 -12.6 -23.65 -12.6 -23.65 -12.55 -23.8 -12.5 -23.85 -12.5 -24.05 -12.45 -24.1 -12.45 -24.0 -12.4 -23.95 -12.35 -24.05 -12.25 -24.15 -12.2 -24.2 -12.2 -24.3 -12.15 -24.35 -12.15 -24.8 -12.1 -25.2 -12.0 -25.85 -12.0 -25.9 -12.05 -26.0 -12.1 -26.05 -12.15 -26.35 -12.15 -26.45 -12.05 -26.8 -12.0 Q-27.05 -11.95 -27.35 -11.9 L-27.4 -11.9 -27.5 -11.85 -27.55 -11.8 -27.9 -11.8 -28.2 -11.75 -28.25 -11.7 -28.3 -11.7 -28.35 -11.65 -28.6 -11.65 -28.65 -11.6 -28.8 -11.55 -28.85 -11.55 -29.35 -11.5 -29.4 -11.45 -29.45 -11.45 -29.45 -11.4 -29.6 -11.4 -29.65 -11.35 -30.05 -11.35 -30.3 -11.4 Q-30.35 -11.45 -30.45 -11.45 L-30.65 -11.5 -30.7 -11.5 -30.7 -11.55 -30.9 -11.55 -31.1 -11.6 -31.55 -11.6 -31.65 -11.55 -31.75 -11.55 -31.8 -11.5 -31.8 -11.45 -31.85 -11.4 -31.85 -11.35 -31.9 -11.35 -31.9 -11.3 -32.0 -11.2 -32.15 -11.15 -32.2 -11.1 -32.6 -11.1 -32.8 -11.3 -32.9 -11.25 -33.05 -11.2 -33.1 -11.2 -33.35 -11.15 -33.35 -11.1 -33.6 -11.15 -33.6 -11.2 -33.65 -11.25 -33.65 -11.4 -33.55 -11.5 -33.55 -12.0 -33.6 -12.05 -33.6 -12.1 -33.75 -12.25 -33.85 -12.3 -33.9 -12.3 -34.0 -12.35 -34.1 -12.45 -34.15 -12.45 -34.15 -12.4 -34.2 -12.4 -34.25 -12.45 -34.25 -12.5 -34.3 -12.55 -34.4 -12.6 -34.5 -12.7 -34.5 -12.75 -34.55 -12.8 -34.65 -12.8 -34.9 -12.75 -35.2 -12.75 -35.3 -12.8 -35.4 -12.9 -35.6 -12.95 -35.65 -12.9 -35.95 -12.85 -36.3 -12.8 -36.35 -12.75 -36.75 -12.75 -36.85 -12.7 -36.9 -12.65 -37.5 -12.65 -37.65 -12.7 -37.85 -12.85 -38.05 -12.95 -38.2 -13.1 -38.2 -13.15 -38.3 -13.2 -38.35 -13.25 -38.4 -13.35 -38.8 -13.75 -38.9 -13.8 -38.9 -13.9 -39.0 -14.0 -39.0 -13.85 -39.05 -13.8 -39.15 -13.8 -39.25 -13.9 -39.3 -13.9 -39.4 -13.95 -39.45 -14.0 -39.45 -14.05 -39.55 -14.15 -39.85 -14.2 -39.9 -14.25 -39.95 -14.25 -39.95 -14.3 -40.15 -14.3 -40.25 -14.35 -40.3 -14.4 -41.0 -14.45 -41.5 -14.45 -41.7 -14.25 -41.75 -14.25 -41.85 -14.2 -42.3 -14.2 -42.4 -14.25 -42.45 -14.25 -42.6 -14.3 -42.65 -14.35 -42.65 -14.8 -42.7 -14.85 -42.7 -15.2 -42.8 -15.3 -42.8 -15.5 Q-42.8 -15.55 -42.85 -15.6 L-42.85 -15.65 -42.9 -15.7 -42.9 -16.2 -42.8 -16.3 -42.8 -16.4 -42.7 -16.5 -42.7 -16.55 -42.65 -16.6 -42.75 -16.7 -43.05 -16.75 -43.1 -16.75 -43.2 -16.8 -43.25 -16.85 -43.3 -16.85 -43.4 -16.9 -43.5 -16.9 -43.65 -17.05 -43.7 -17.05 -43.7 -16.95 -43.75 -16.95 -43.85 -17.05 -43.85 -17.2 -43.9 -17.3 -43.9 -17.5 -43.8 -17.6 -43.8 -17.95 Q-43.75 -17.95 -43.8 -18.0 L-43.8 -18.2 -43.75 -18.25 -43.65 -18.3 -43.6 -18.3 -43.55 -18.35 -43.45 -18.35 -43.25 -18.4 -43.15 -18.4 -43.1 -18.45 -43.0 -18.5 -42.25 -18.5 -42.2 -18.45 -42.25 -18.4 -42.35 -18.35 -42.85 -18.3 -42.85 -18.25 -42.9 -18.2 -43.1 -18.1 -43.4 -18.1 -43.4 -17.85 -43.45 -17.8 -43.5 -17.8 -43.5 -17.5 -43.55 -17.5 -43.6 -17.45 -43.6 -17.35 -43.55 -17.35 -43.45 -17.3 -43.3 -17.15 -43.3 -17.1 -43.15 -17.1 -43.05 -17.0 -42.9 -16.95 Q-42.7 -16.95 -42.5 -16.85 L-42.4 -16.8 -42.35 -16.75 -42.35 -16.5 -42.5 -16.35 -42.5 -16.15 -42.55 -16.1 -42.55 -15.95 Q-42.55 -15.9 -42.6 -15.8 L-42.55 -15.8 -42.5 -15.75 -42.5 -15.4 -42.45 -15.4 -42.4 -15.35 -42.4 -15.0 -42.35 -14.95 -42.3 -14.85 -42.3 -14.5 -41.9 -14.5 -41.85 -14.55 -41.85 -14.6 -41.8 -14.65 -41.75 -14.65 -41.65 -14.7 -41.55 -14.7 -41.45 -14.75 -41.3 -14.75 -41.2 -14.7 -41.1 -14.7 -41.05 -14.65 -40.9 -14.65 -40.8 -14.6 -40.15 -14.6 -40.05 -14.55 -40.0 -14.5 -39.8 -14.45 -39.55 -14.45 -39.4 -14.4 -39.35 -14.35 -39.25 -14.35 -39.25 -14.3 -39.15 -14.2 -39.15 -14.15 -39.05 -14.05 -39.0 -14.05 -39.0 -14.1 -38.8 -14.1 -38.45 -13.85 -38.2 -13.6 -38.05 -13.35 -37.9 -13.3 -37.85 -13.25 -37.85 -13.2 -37.8 -13.15 -37.65 -13.05 -37.45 -12.95 -37.35 -12.95 -37.25 -12.9 -37.15 -12.9 -37.05 -12.95 -37.0 -13.0 -36.95 -13.0 -36.9 -13.05 -36.8 -13.05 -36.75 -13.1 -36.65 -13.1 -36.55 -13.2 -36.4 -13.25 -36.35 -13.3 -36.2 -13.3 Q-36.0 -13.35 -35.8 -13.4 L-35.6 -13.45 -35.5 -13.55 -35.35 -13.6 -35.35 -13.75 -35.45 -13.85 -35.65 -13.9 -35.7 -13.9 -35.75 -13.95 -35.75 -14.2 -35.85 -14.25 -35.85 -14.3 -35.9 -14.35 -35.9 -14.6 -35.8 -14.7 -35.65 -14.75 -35.5 -14.75 -35.35 -14.8 -35.3 -14.8 -35.15 -14.75 -34.6 -14.75 -34.45 -14.8 -34.35 -14.8 -34.3 -14.85 -34.1 -14.85 -34.05 -14.9 -33.95 -14.95 -33.85 -14.95 -33.85 -15.15 -33.9 -15.15 -34.1 -15.2 -34.2 -15.3 -34.2 -15.35 -34.15 -15.4 -34.05 -15.45 -34.0 -15.5 -34.0 -15.55 -33.95 -15.6 -33.85 -15.65 -33.75 -15.65 -33.55 -15.6 -33.5 -15.6 -33.75 -15.55 -33.85 -15.45 -33.85 -15.4 -33.9 -15.4 -33.85 -15.35 -33.7 -15.3 -33.55 -15.15 -33.55 -15.1 -33.6 -15.05 -33.6 -14.85 -33.65 -14.8 -33.7 -14.8 -33.85 -14.75 -33.9 -14.7 -33.95 -14.7 -34.0 -14.65 -34.15 -14.65 -34.2 -14.6 -34.3 -14.55 -34.35 -14.55 -34.55 -14.5 -35.2 -14.5 -35.35 -14.55 -35.4 -14.5 -35.5 -14.5 -35.55 -14.45 -35.4 -14.3 -35.4 -14.25 -35.35 -14.15 -35.35 -14.1 -35.3 -14.1 -35.0 -14.05 -34.9 -14.0 -34.9 -13.75 Q-34.85 -13.7 -34.9 -13.65 L-34.9 -13.5 -35.0 -13.4 -35.15 -13.35 -35.3 -13.35 -35.4 -13.3 -35.45 -13.25 -35.6 -13.2 -35.65 -13.2 -35.75 -13.15 -35.15 -13.15 -35.05 -13.05 -34.95 -13.0 -34.85 -13.0 -34.75 -13.05 -34.4 -13.0 -34.35 -12.95 -34.25 -12.95 -34.2 -12.9 -34.25 -12.85 -34.25 -12.7 -34.15 -12.6 -34.15 -12.65 -34.1 -12.7 -33.95 -12.7 -33.9 -12.65 -33.85 -12.65 -33.75 -12.55 -33.75 -12.5 -33.65 -12.45 -33.5 -12.4 -33.2 -12.1 -33.2 -11.5 -33.0 -11.5 -32.9 -11.55 -32.75 -11.55 -32.65 -11.5 -32.55 -11.5 -32.45 -11.45 -32.4 -11.45 Q-32.35 -11.45 -32.3 -11.45 L-32.2 -11.55 -32.2 -11.8 -32.15 -11.85 -32.15 -11.9 -32.3 -12.05 -32.35 -12.05 -32.4 -12.1 -32.4 -12.15 -32.5 -12.25 -32.75 -12.3 -33.15 -12.3 -33.4 -12.35 -33.5 -12.45 -33.5 -12.5 -33.55 -12.55 -33.55 -12.6 -33.5 -12.6 -33.5 -12.7 -33.6 -12.75 -33.75 -12.9 -33.75 -13.1 -33.7 -13.15 -33.6 -13.2 -33.55 -13.25 -33.4 -13.35 -32.9 -13.35 -32.9 -13.4 -32.85 -13.45 -32.55 -13.6 -32.4 -13.6 -32.35 -13.65 -32.2 -13.65 -31.55 -13.6 -30.95 -13.6 -30.95 -13.7 -30.85 -13.8 -30.75 -13.8 -30.65 -13.85 -30.55 -13.85 -30.45 -13.8 -29.55 -13.8 -29.4 -13.85 -29.3 -13.9 -29.25 -13.9 -29.25 -13.95 -29.2 -14.0 -29.2 -14.1 -29.15 -14.15 -29.15 -14.2 -29.1 -14.25 -29.1 -14.3 -29.05 -14.35 -28.95 -14.4 -28.95 -14.55 -28.9 -14.6 -28.85 -14.6 -28.85 -14.8 -28.9 -14.9 -28.9 -14.95 -29.05 -15.1 -29.05 -15.15 -29.1 -15.15 -29.25 -15.25 -29.25 -15.3 -29.3 -15.35 -29.4 -15.4 -29.45 -15.45 -29.55 -15.5 -29.6 -15.6 -29.65 -15.65 -29.65 -15.8 -29.7 -15.8 -29.8 -15.85 -29.85 -15.85 -30.1 -15.9 -30.55 -15.9 -30.6 -15.95 -30.85 -15.95 -31.0 -16.0 -31.1 -16.05 -31.15 -16.0 -31.3 -16.0 -31.75 -15.95 -31.95 -15.9 -32.4 -15.9 -32.5 -15.85 -32.5 -15.8 -32.7 -15.8 -32.8 -15.7 -32.95 -15.65 -33.3 -15.65 -33.35 -15.7 -33.3 -15.7 -33.05 -15.75 -33.0 -15.75 -32.85 -15.8 -32.8 -15.85 -32.75 -15.85 -32.6 -15.9 -32.55 -15.95 -32.45 -15.95 -32.4 -16.0 -32.35 -16.0 -32.15 -16.05 -32.1 -16.05 -32.0 -16.1 -31.9 -16.1 -31.85 -16.15 -31.75 -16.2 -31.4 -16.2 -31.3 -16.25 -31.1 -16.25 -30.85 -16.2 -30.75 -16.15 -30.6 -16.1 -30.5 -16.1 -30.4 -16.05 -30.2 -16.0 -29.7 -16.0 -29.7 -16.05 -29.65 -16.1 -29.5 -16.1 -29.35 -16.05 -29.3 -16.0 -29.3 -15.95 -29.25 -15.9 -29.25 -15.85 -29.1 -15.7 -29.1 -15.6 -28.7 -15.2 -28.7 -15.15 -28.6 -15.05 -28.6 -14.95 Q-28.6 -14.85 -28.6 -14.75 L-28.6 -14.55 -28.65 -14.5 -28.65 -14.45 -28.7 -14.35 -28.7 -14.15 -28.75 -14.05 -28.75 -14.0 -28.8 -13.95 -28.8 -13.9 -29.0 -13.7 -29.1 -13.65 -29.15 -13.6 -29.2 -13.6 -29.4 -13.55 -29.45 -13.5 -30.6 -13.5 -30.65 -13.45 -30.85 -13.45 -30.9 -13.5 -30.95 -13.45 -31.2 -13.45 -32.2 -13.4 -32.35 -13.35 -32.4 -13.3 -32.5 -13.3 -32.55 -13.25 -32.55 -13.2 -32.65 -13.1 -33.15 -13.1 -33.25 -13.0 -33.25 -12.95 -33.2 -12.9 -33.1 -12.85 -33.0 -12.75 -33.0 -12.6 Q-32.9 -12.6 -32.85 -12.55 L-32.65 -12.55 -32.55 -12.6 -32.45 -12.6 -32.35 -12.55 -32.3 -12.5 -32.2 -12.45 -32.15 -12.4 -32.1 -12.4 -32.1 -12.35 -32.0 -12.25 -32.0 -12.2 -31.9 -12.15 -31.85 -12.1 -31.85 -12.0 -31.75 -11.9 -31.75 -11.75 -31.65 -11.75 -31.55 -11.8 -31.05 -11.8 -30.95 -11.75 -30.55 -11.75 -30.45 -11.7 -30.25 -11.7 -29.9 -11.65 -29.75 -11.65 -29.55 -11.75 -29.35 -11.75 -28.95 -11.8 -28.8 -11.85 -28.5 -11.9 Q-28.4 -11.95 -28.3 -11.95 L-28.2 -12.0 -27.9 -12.05 -27.7 -12.05 -27.65 -12.1 -27.55 -12.15 -27.45 -12.15 -27.3 -12.2 -26.9 -12.25 Q-26.65 -12.3 -26.45 -12.4 L-26.35 -12.4 -26.3 -12.45 -25.9 -12.45 -25.8 -12.4 -25.7 -12.3 -25.6 -12.25 -25.35 -12.25 -25.2 -12.3 -25.05 -12.3 -24.9 -12.35 -24.7 -12.35 -24.7 -12.4 -24.65 -12.45 -24.5 -12.5 -24.45 -12.5 Q-24.3 -12.55 -24.2 -12.6 -24.1 -12.65 -24.0 -12.7 L-23.7 -12.85 -23.35 -12.85 -23.15 -12.75 -23.0 -12.7 -22.45 -12.7 -22.35 -12.75 -21.9 -12.8 -21.85 -12.85 -21.55 -12.85 -21.15 -13.0 -20.9 -13.05 -20.65 -13.05 -20.1 -13.2 -19.75 -13.3 -19.6 -13.35 -19.55 -13.35 -19.5 -13.4 -19.5 -13.55 -19.45 -13.6 -19.3 -13.65 -19.3 -14.1 -19.4 -14.2 -19.4 -14.25 -19.65 -14.5 -19.7 -14.6 -19.8 -14.65 -19.85 -14.7 -19.85 -14.85 -19.7 -14.95 Q-19.65 -15.0 -19.6 -15.05 L-19.6 -15.15 -19.75 -15.2 -19.8 -15.25 -19.85 -15.25 -19.95 -15.3 -20.35 -15.3 -20.55 -15.25 -20.95 -15.25 -21.1 -15.3 -21.2 -15.35 -21.35 -15.4 -21.35 -16.05 -21.2 -16.2 -21.15 -16.3 -21.1 -16.35 -20.9 -16.45 -20.9 -16.5 -21.05 -16.5 -21.1 -16.55 -21.35 -16.55 -21.45 -16.6 -21.6 -16.75 -21.6 -16.85 -21.65 -16.9 -21.75 -16.9 -21.85 -16.95 -21.9 -17.0 -22.0 -17.0 -22.0 -17.05 -22.1 -17.15 -22.2 -17.2 -22.2 -17.6 -22.05 -17.7 -22.0 -17.7 -21.85 -17.75 -21.75 -17.8 -21.6 -17.75 -21.55 -17.75 -21.0 -17.8 -20.65 -17.8 -20.55 -17.85 -20.3 -18.0 -20.05 -18.2 -20.0 -18.25 -19.7 -18.45 -19.3 -18.7 -19.25 -18.75 -19.1 -18.75 -18.8 -18.85 -18.3 -18.95 -18.1 -19.0 -18.05 -19.0 -17.95 -19.05 -17.85 -19.15 -17.85 -19.25 -17.8 -19.3 -17.75 -19.3 -17.75 -19.5 -17.8 -19.55 -17.8 -19.6 -17.85 -19.65 -17.9 -19.65 -17.95 -19.7 -17.95 -20.0 -17.9 -20.0 -17.85 -20.05 -17.85 -20.15 -17.8 -20.2 -17.8 -20.25 -17.75 -20.3 -17.65 -20.35 -17.65 -20.7 -17.7 -20.8 -17.9 -20.9 -17.95 -20.9 -18.1 -20.95 -18.2 -20.95 -18.3 -21.0 -18.35 -21.05 -18.35 -21.7 -18.4 -21.75 -18.4 -21.8 -18.45 -21.85 -18.55 -21.9 -18.55 -21.95 -18.65 -22.05 -19.0 -22.05 -19.2 -22.0 -19.2 -21.95 -19.25 -21.9 -19.3 -21.9 -20.55 -21.85 -20.75 -21.85 -20.85 -21.8 -21.1 -21.8 -21.2 -21.85 -21.5 -21.85 -21.7 -22.0 Q-21.8 -22.05 -21.85 -22.15 L-21.9 -22.2 -21.9 -22.3 -21.8 -22.4 -21.8 -22.5 -22.0 -22.7 -22.15 -22.8 -22.25 -22.85 -22.4 -22.9 -22.45 -22.95 -22.45 -23.0 -22.65 -23.0 -22.75 -23.05 -22.85 -23.15 -22.85 -23.2 -22.9 -23.25 -22.95 -23.25 -23.0 -23.3 -23.1 -23.3 -23.2 -23.35 -23.3 -23.45 -23.35 -23.55 -23.45 -23.6 -23.65 -23.8 -23.65 -23.85 -23.75 -23.9 -23.75 -23.95 -23.85 -24.0 -23.9 -24.05 -23.9 -24.35 -24.0 -24.45 -24.0 -24.5 -24.15 -24.65 -24.25 -24.7 -24.25 -24.8 -24.35 -24.9 -24.55 -25.0 -24.6 -25.1 -24.7 -25.2 -24.7 -25.55 -24.8 -25.65 -24.8 -25.7 -24.6 -25.9 -24.45 -26.0 -24.25 -26.0 -24.15 -25.95 -24.1 -25.95 -24.0 -26.05 -23.9 -26.05 -23.8 -26.1 -23.8 -26.4 -23.65 -26.55 -23.6 -26.55 -23.1 -26.65 Q-22.9 -26.65 -22.75 -26.75 L-22.6 -26.75 -22.45 -26.8 -22.2 -26.95 -22.0 -27.1 -21.9 -27.1 -21.9 -27.15 -21.8 -27.25 -21.8 -27.3 -21.7 -27.4 -21.6 -27.45 -21.6 -27.5 -21.45 -27.55 -21.45 -27.6 -21.3 -27.75 -21.3 -27.9 -21.2 -28.0 -21.2 -28.2 -21.3 -28.3 -21.3 -28.45 -21.4 -28.55 -21.4 -28.75 -21.3 -28.85 -21.3 -28.9 -21.1 -29.05 -20.85 -29.15 -20.8 -29.2 -20.65 -29.25 -19.8 -29.25 -19.6 -29.35 -19.55 -29.4 -19.55 -29.5 -19.4 -29.6 -19.3 -29.7 -19.05 -29.7 -18.85 -29.75 -18.65 -29.85 -18.65 -29.95 -18.55 -30.05 -18.45 -30.05 -18.45 -30.1 -18.35 -30.2 -18.35 -30.35 -18.3 -30.4 -18.25 -30.4 -18.25 -30.55 -18.2 -30.6 -18.15 -30.7 -18.1 -30.75 -18.05 -30.75 -17.95 -30.8 -17.8 -30.85 -17.7 -30.85 -17.55 -30.9 -17.35 -30.9 -17.2 -30.95 -17.05 -30.95 -16.95 -31.0 -16.6 -31.05 -16.4 -31.15 -16.05 -31.2 -16.0 -31.25 -15.9 -31.3 -15.85 -31.35 -15.85 -31.4 -15.75 -31.5 -15.75 -31.55 -15.7 -31.55 -15.65 -31.6 -15.55 -31.65 -15.55 -31.75 -15.45 -31.8 -15.4 -31.85 -15.25 -31.9 -15.1 -31.9 -14.95 -31.95 -14.75 -32.0 -14.75 -32.05 -14.65 -32.05 -14.55 -32.0 -14.45 -32.0 -14.4 -31.95 -14.3 -31.9 -14.1 -31.85 -14.0 -31.85 -13.9 -31.8 -13.85 -31.8 -13.85 -31.5 -13.65 -31.3 -13.65 -31.1 -13.6 -31.05 -13.6 -30.9 -13.5 -30.8 -13.35 -30.75 -13.25 -30.75 -13.05 -30.7 -12.9 -30.7 -12.65 -30.75 -12.5 -30.8 -12.4 -30.85 -12.35 -30.9 -12.25 -30.95 -11.8 -30.95 -11.75 -31.0 -11.05 -31.05 -10.95 -31.05 -10.65 -31.15 -10.5 -31.3 -10.45 -31.3 -10.35 -31.35 -10.3 -31.35 -10.15 -31.4 -10.1 -31.45 -9.55 -31.45 -8.8 -31.4 -8.7 -31.35 -8.55 -31.3 -8.45 -31.3 -8.35 -31.25 -8.3 -31.2 -8.3 -31.15 -8.1 -30.95 -8.1 -30.75 -8.15 -30.7 -8.05 -30.6 -8.05 -30.5 -8.15 -30.4 -8.25 -30.4 -8.4 -30.35 -8.45 -30.3 -8.35 -30.2 -8.35 -30.05 -8.5 -29.9 -8.8 -29.75 -8.8 -29.5 -8.75 -29.45 -8.75 -29.4 -8.7 -29.35 -8.7 -29.25 -8.8 -29.15 -8.9 -29.1 -9.6 -29.05 -9.65 -29.05 -9.85 -29.0 -9.95 -28.95 -10.0 -28.9 -10.05 -28.9 -10.05 -28.8 -10.15 -28.7 -10.15 -28.5 -10.25 -28.4 -10.25 -28.35 -10.2 -28.3 -10.1 -28.3 -10.1 -28.25 -10.05 -28.2 -10.05 -28.0 -10.0 -28.0 -9.95 -27.9 -9.95 -27.65 -10.0 -27.6 -10.2 -27.5 -10.1 -27.45 -10.0 -27.35 -9.95 -27.35 -9.55 -27.2 -9.2 -27.15 -9.2 -27.2 -8.6 -27.2 -8.5 -27.15 -8.45 -27.15 -8.35 -27.1 -7.8 -27.1 -7.7 -27.15 Q-7.6 -27.15 -7.55 -27.15 L-7.4 -27.25 -7.35 -27.25 -7.3 -27.3 -7.2 -27.35 -6.95 -27.35 -6.8 -27.4 -6.7 -27.45 -6.65 -27.5 -6.5 -27.55 -6.45 -27.6 -6.35 -27.6 -6.15 -27.65 -5.95 -27.65 -5.85 -27.7 -5.8 -27.75 -5.75 -27.75 -5.55 -27.8 -5.4 -27.85 -5.35 -27.85 -5.25 -27.9 -4.75 -27.95 -4.65 -28.0 -4.6 -28.0 -4.5 -28.05 -4.4 -28.15 -4.4 -28.4 -4.35 -28.45 -4.35 -28.5 -4.4 -28.55 -4.5 -28.6 Q-4.55 -28.6 -4.55 -28.65 L-4.85 -28.65 -4.9 -28.7 -4.9 -28.8 -5.0 -28.8 -5.15 -28.75 -5.2 -28.7 -5.35 -28.7 -5.5 -28.75 -5.6 -28.85 -5.7 -28.9 -5.75 -28.9 -5.75 -29.15 Q-5.7 -29.2 -5.6 -29.3 L-5.35 -29.4 -5.25 -29.45 -5.15 -29.4 -5.15 -29.35 -5.2 -29.3 -5.2 -29.15 -5.25 -29.15 -5.35 -29.05 -5.3 -29.0 -5.15 -29.0 -5.1 -29.05 -4.55 -29.05 -4.45 -28.95 -4.45 -28.9 -4.35 -28.85 -4.2 -28.75 -4.1 -28.65 -4.05 -28.65 -4.05 -28.35 -4.1 -28.35 -4.15 -28.3 -4.15 -28.05 -4.25 -28.0 -4.1 -27.95 -4.05 -27.9 -4.05 -27.8 -4.0 -27.75 -4.0 -27.6 -3.8 -27.4 -3.5 -27.25 -3.2 -27.0 -3.15 -26.95 -3.0 -26.95 -2.8 -26.9 -2.7 -26.85 Q-2.6 -26.85 -2.55 -26.9 L-2.55 -27.0 -2.6 -27.05 -2.6 -27.25 -2.55 -27.3 -2.55 -27.45 -2.5 -27.45 -2.45 -27.5 -2.05 -27.55 -1.9 -27.6 -1.75 -27.55 -1.4 -27.55 -1.2 -27.45 -1.15 -27.4 -1.0 -27.35 -0.9 -27.3 -0.85 -27.3 -0.8 -27.25 -0.65 -27.2 -0.55 -27.1 -0.3 -27.05 -0.1 -27.0 0.0 -27.0 0.1 -26.95 Q0.15 -26.9 0.2 -26.9 L0.3 -26.9 0.4 -26.85 0.45 -26.8 0.55 -26.8 0.65 -26.75 0.7 -26.7 0.8 -26.7 0.95 -26.65 1.35 -26.65 1.45 -26.6 1.55 -26.65 1.65 -26.65 1.75 -26.7 2.0 -26.7 2.05 -26.75 2.1 -26.75 2.2 -26.8 2.65 -26.8 2.75 -26.75 2.8 -26.7 2.9 -26.65 3.05 -26.5 M2.9 -26.25 L2.7 -26.45 Q2.65 -26.5 2.6 -26.55 L2.3 -26.55 2.25 -26.5 2.25 -26.45 2.2 -26.4 1.75 -26.4 1.7 -26.35 1.65 -26.35 1.55 -26.3 1.45 -26.3 1.3 -26.35 0.8 -26.35 0.7 -26.4 0.5 -26.45 0.4 -26.55 0.25 -26.6 0.2 -26.6 0.1 -26.65 -0.1 -26.7 -0.2 -26.75 -0.25 -26.8 -0.35 -26.8 -0.4 -26.85 -0.85 -26.85 -0.9 -26.9 -1.0 -26.9 -1.2 -27.0 -1.25 -27.05 -1.25 -27.1 -1.55 -27.4 -1.85 -27.4 -1.95 -27.35 -2.1 -27.35 -2.2 -27.3 -2.2 -27.25 -2.25 -27.2 -2.3 -27.2 -2.3 -27.15 -2.2 -27.05 -2.2 -26.8 -2.3 -26.7 -2.4 -26.65 -2.95 -26.65 -3.2 -26.7 -3.25 -26.75 -3.4 -26.75 -3.5 -26.8 -3.65 -26.95 -3.75 -27.0 -3.8 -27.05 -3.9 -27.05 -4.0 -27.1 -4.1 -27.2 -4.2 -27.25 -4.3 -27.35 -4.3 -27.45 -4.35 -27.5 -4.35 -27.75 -4.4 -27.8 -4.65 -27.8 -4.75 -27.75 -5.15 -27.75 -5.15 -27.7 Q-5.3 -27.65 -5.4 -27.6 L-5.65 -27.55 -5.7 -27.5 -5.75 -27.5 -5.75 -27.45 -6.0 -27.45 -6.1 -27.4 -6.3 -27.35 -6.35 -27.3 -6.45 -27.3 -6.55 -27.2 -6.65 -27.15 -6.7 -27.1 -6.75 -27.1 -6.9 -27.05 -6.8 -27.05 -6.6 -27.0 -6.35 -26.95 -6.1 -26.95 -6.0 -27.05 -5.9 -27.05 -5.85 -27.1 -5.75 -27.15 -5.35 -27.15 -5.25 -27.1 -4.8 -27.1 -4.7 -27.05 -4.65 -27.0 -4.55 -27.0 -4.3 -26.85 -4.1 -26.75 Q-4.05 -26.65 -4.0 -26.6 L-3.95 -26.55 -3.95 -26.5 -3.9 -26.45 -3.9 -26.4 -3.85 -26.35 -3.85 -26.3 -3.8 -26.25 -3.7 -26.2 -3.7 -26.15 -3.65 -26.1 -3.65 -26.05 -3.6 -26.0 -3.55 -26.0 -3.55 -25.95 -3.4 -25.9 -3.35 -25.85 -3.3 -25.85 -3.15 -25.8 -3.1 -25.75 -3.05 -25.75 -3.05 -25.55 -2.95 -25.45 -2.9 -25.45 -2.8 -25.4 -2.75 -25.35 -2.6 -25.3 -2.2 -25.3 -2.05 -25.35 -2.0 -25.4 -1.85 -25.45 -1.8 -25.45 -1.8 -25.5 -1.75 -25.5 -1.6 -25.55 -1.55 -25.55 -1.45 -25.6 -0.95 -25.55 -0.4 -25.35 -0.1 -25.2 0.1 -25.0 0.15 -25.0 0.2 -24.95 0.2 -24.9 0.25 -24.85 0.25 -24.7 0.15 -24.6 0.15 -24.45 0.25 -24.35 0.35 -24.35 0.35 -24.3 0.55 -24.3 0.65 -24.25 0.9 -24.0 0.9 -23.95 0.95 -23.9 0.95 -23.85 1.0 -23.8 1.0 -23.6 0.9 -23.55 0.8 -23.45 0.75 -23.35 0.5 -23.1 0.3 -23.05 0.2 -22.95 0.1 -22.9 0.05 -22.9 0.05 -22.75 0.15 -22.65 0.15 -22.25 0.1 -22.25 0.05 -22.2 0.05 -22.05 0.1 -22.1 0.2 -22.05 0.6 -22.05 0.75 -22.1 0.95 -22.2 1.05 -22.3 1.25 -22.45 Q1.45 -22.55 1.55 -22.65 L1.55 -22.7 1.5 -22.75 1.5 -22.8 1.4 -22.9 Q1.3 -22.95 1.3 -23.0 L1.3 -23.1 1.4 -23.2 1.4 -23.3 1.45 -23.35 1.5 -23.35 1.55 -23.4 1.85 -23.4 2.2 -23.35 2.75 -23.35 2.85 -23.3 2.9 -23.3 2.95 -23.35 3.0 -23.35 3.15 -23.5 3.15 -23.55 3.05 -23.65 3.05 -23.7 3.0 -23.75 3.0 -23.95 2.9 -24.05 2.9 -24.1 2.8 -24.2 2.8 -24.3 2.65 -24.45 2.65 -24.5 2.5 -24.65 2.5 -24.7 2.45 -24.75 2.4 -24.75 2.25 -24.8 2.1 -24.95 2.1 -25.0 1.95 -25.15 1.95 -25.2 1.85 -25.25 1.8 -25.3 1.8 -25.4 1.75 -25.45 1.7 -25.45 1.7 -25.6 1.8 -25.7 2.1 -25.7 2.2 -25.65 2.25 -25.6 2.35 -25.6 2.65 -25.5 2.95 -25.45 3.0 -25.4 3.1 -25.35 3.2 -25.35 3.2 -25.5 3.25 -25.55 3.25 -25.6 3.3 -25.65 3.3 -25.75 3.25 -25.75 3.2 -25.8 3.2 -25.85 3.1 -25.95 3.1 -26.0 3.0 -26.1 2.9 -26.25 M-52.6 -20.4 L-52.7 -20.3 -52.7 -20.25 -52.9 -20.05 -53.0 -20.0 -53.05 -19.95 -53.15 -19.95 -53.25 -19.9 -53.5 -19.85 -53.7 -19.85 -53.6 -19.95 -53.35 -20.0 -53.3 -20.0 -53.15 -20.05 -53.15 -20.1 -53.05 -20.15 -53.05 -20.2 -52.95 -20.3 -53.0 -20.35 -53.0 -20.45 -52.9 -20.5 -52.9 -20.55 -52.7 -20.65 -52.55 -20.65 -52.1 -20.7 -51.9 -20.7 -51.85 -20.75 -51.65 -20.8 -51.55 -20.8 -51.15 -20.85 -51.1 -20.85 -51.0 -20.9 -50.8 -20.85 -50.7 -20.85 -50.4 -20.8 -50.35 -20.75 -50.05 -20.7 -49.95 -20.65 -49.95 -20.55 -49.85 -20.45 -49.85 -20.4 Q-49.85 -20.35 -49.9 -20.35 L-50.05 -20.2 -50.15 -20.15 -50.2 -20.1 -50.2 -20.05 -50.15 -20.0 -50.15 -19.75 -50.05 -19.65 -49.95 -19.6 -49.75 -19.55 -49.65 -19.55 -49.45 -19.5 -49.65 -19.45 -50.1 -19.45 -50.45 -19.5 -50.5 -19.55 -50.5 -19.65 -50.45 -19.7 -50.45 -19.85 -50.55 -19.95 -50.55 -20.05 -50.5 -20.1 -50.5 -20.2 -50.25 -20.45 -50.3 -20.5 -50.55 -20.55 -50.6 -20.6 -50.6 -20.65 -51.55 -20.65 -51.7 -20.6 -51.75 -20.55 -51.85 -20.55 -52.0 -20.5 -52.05 -20.5 -52.5 -20.45 -52.6 -20.4 M-46.35 -21.85 L-46.15 -21.9 -45.85 -21.95 -45.75 -22.05 -46.05 -22.1 -46.15 -22.2 -46.15 -22.25 -46.25 -22.35 -46.25 -22.5 -46.2 -22.55 -46.2 -22.65 -46.05 -22.65 -46.0 -22.6 -46.0 -22.55 -45.95 -22.5 -45.9 -22.4 -45.8 -22.35 -45.8 -22.3 -45.55 -22.3 -45.45 -22.25 -45.4 -22.2 -45.4 -21.95 -45.5 -21.9 -45.65 -21.75 -45.75 -21.75 -46.0 -21.7 -46.05 -21.7 -46.2 -21.65 -46.25 -21.65 -46.35 -21.6 -46.4 -21.55 -46.55 -21.55 -46.6 -21.5 -46.6 -21.25 -46.05 -21.15 -45.95 -21.15 -45.95 -20.85 -45.9 -20.8 -45.85 -20.8 -45.85 -20.55 -45.9 -20.5 -45.95 -20.4 -45.95 -20.3 -46.0 -20.2 -45.7 -20.2 -45.7 -20.15 -45.55 -20.15 -45.45 -20.1 -45.35 -20.1 -45.25 -20.05 -45.2 -20.0 -45.2 -19.95 -45.1 -19.9 -45.1 -19.85 -45.0 -19.75 -45.0 -19.65 Q-44.95 -19.65 -44.9 -19.65 L-44.8 -19.65 -44.6 -19.55 -44.55 -19.6 -44.2 -19.6 -44.1 -19.65 -43.8 -19.65 -43.7 -19.6 -43.3 -19.55 -42.85 -19.55 -42.7 -19.5 -42.6 -19.4 -42.5 -19.35 -42.45 -19.35 -42.15 -19.2 -41.9 -19.2 -41.8 -19.15 -41.8 -19.1 -41.7 -19.05 -41.6 -18.95 -41.55 -18.95 -41.45 -19.0 Q-41.4 -19.0 -41.4 -19.05 L-41.1 -19.05 -41.0 -19.0 -40.95 -19.0 -40.8 -18.95 -40.7 -18.9 -40.65 -18.85 -40.5 -18.85 -40.4 -18.75 -40.25 -18.7 -40.05 -18.6 -39.9 -18.55 -39.8 -18.5 -39.75 -18.5 -39.7 -18.45 -39.35 -18.45 -39.25 -18.5 -39.15 -18.6 -39.15 -18.95 -39.1 -18.95 -39.05 -19.0 -38.95 -19.05 Q-38.85 -19.1 -38.65 -19.15 L-38.15 -19.25 -38.15 -19.4 -38.3 -19.45 -38.4 -19.55 -38.45 -19.55 -38.5 -19.6 -38.5 -19.65 -38.55 -19.7 -38.55 -19.75 -38.4 -19.9 -38.25 -19.9 -38.1 -19.95 -38.0 -20.0 -37.95 -20.0 -37.95 -20.1 -37.9 -20.15 -37.9 -20.25 -37.8 -20.3 -37.75 -20.35 Q-37.7 -20.35 -37.7 -20.4 L-37.6 -20.5 -37.6 -20.65 -37.55 -20.7 -37.5 -20.7 -37.5 -20.8 -37.65 -20.85 -37.7 -20.85 -38.0 -20.9 -38.1 -20.95 -38.25 -21.0 -38.3 -21.05 -38.35 -21.05 -38.5 -21.2 -38.5 -21.35 -38.45 -21.35 -38.4 -21.3 -38.2 -21.2 Q-38.05 -21.15 -37.9 -21.1 L-37.8 -21.05 -37.5 -21.05 -37.4 -21.0 -37.25 -21.0 -37.15 -20.95 -37.15 -20.8 -37.2 -20.75 -37.2 -20.7 -37.25 -20.7 -37.25 -20.65 -37.35 -20.6 -37.35 -20.4 -37.6 -20.15 -37.6 -20.1 -37.65 -20.05 -37.65 -20.0 -37.7 -20.0 -37.8 -19.9 -37.8 -19.85 -37.9 -19.8 -37.95 -19.75 -38.15 -19.65 -38.1 -19.65 -37.95 -19.6 -37.85 -19.5 -37.85 -19.45 -37.8 -19.4 -37.8 -19.3 -37.75 -19.3 -37.85 -19.2 -37.85 -19.15 -38.0 -19.0 -38.25 -18.95 -38.3 -18.95 -38.5 -18.9 -38.55 -18.9 Q-38.65 -18.85 -38.7 -18.85 L-38.8 -18.75 -38.9 -18.7 -38.9 -18.6 -38.85 -18.6 -38.85 -18.55 -38.9 -18.5 -38.9 -18.45 -38.95 -18.4 -39.05 -18.35 -39.05 -18.3 -39.1 -18.3 -39.2 -18.25 -39.45 -18.25 -39.45 -18.2 -39.85 -18.2 -39.95 -18.3 -40.05 -18.35 -40.1 -18.4 -40.15 -18.4 -40.4 -18.45 -40.4 -18.5 -40.45 -18.55 -40.55 -18.55 -40.65 -18.6 -40.7 -18.65 -40.85 -18.7 -40.95 -18.75 -41.1 -18.75 -41.25 -18.8 -41.4 -18.65 -41.5 -18.65 -41.5 -18.6 -41.55 -18.55 -41.7 -18.5 -41.75 -18.45 -42.05 -18.45 -42.05 -18.55 -41.9 -18.7 -41.9 -18.85 -42.0 -18.9 -42.05 -18.95 -42.05 -19.0 -42.25 -19.05 -42.3 -19.05 -42.45 -19.1 -42.75 -19.1 -42.85 -19.15 -42.9 -19.2 -43.0 -19.25 -43.3 -19.3 -43.35 -19.35 -43.4 -19.35 -43.55 -19.4 -43.6 -19.4 -43.9 -19.45 -43.95 -19.5 -44.1 -19.45 -44.2 -19.45 -44.3 -19.4 -44.9 -19.4 -45.1 -19.45 -45.15 -19.5 -45.25 -19.55 -45.25 -19.65 -45.3 -19.7 -45.3 -19.75 -45.4 -19.85 -45.4 -19.9 -45.45 -19.9 -45.45 -19.95 -45.6 -20.0 -45.65 -20.0 -45.7 -19.95 -45.75 -19.95 -45.85 -19.9 -45.95 -19.95 -46.1 -19.95 -46.15 -19.9 -46.2 -19.8 -46.4 -19.7 -46.5 -19.6 -46.5 -19.5 -46.6 -19.4 -46.9 -19.3 -46.95 -19.3 -47.05 -19.25 -47.15 -19.15 -47.25 -19.1 -47.3 -19.1 -47.3 -19.05 -48.05 -19.1 -48.1 -19.1 -48.15 -19.15 -48.15 -19.3 -48.25 -19.3 -48.3 -19.25 -48.55 -19.25 -48.65 -19.3 -48.65 -19.35 -48.7 -19.35 -48.8 -19.4 -48.9 -19.3 -49.15 -19.3 -49.25 -19.35 -49.35 -19.45 -49.35 -19.55 -49.3 -19.6 -49.3 -19.65 -49.2 -19.65 -49.15 -19.7 -48.85 -19.7 -48.75 -19.65 -48.7 -19.6 -48.7 -19.55 -48.2 -19.55 -48.05 -19.5 -48.0 -19.45 -47.9 -19.4 -47.9 -19.35 -47.85 -19.3 -47.5 -19.3 -47.4 -19.35 -47.35 -19.4 -47.3 -19.4 -47.15 -19.45 -47.1 -19.5 -47.0 -19.55 -46.85 -19.6 -46.8 -19.65 -46.8 -19.7 -46.55 -19.95 -46.55 -20.0 -46.5 -20.0 -46.25 -20.25 -46.25 -20.55 -46.15 -20.65 -46.25 -20.75 -46.25 -20.95 -46.85 -21.0 -46.9 -21.05 -46.9 -21.65 -46.85 -21.7 -46.75 -21.75 -46.65 -21.75 -46.5 -21.8 -46.4 -21.85 -46.35 -21.85 M-8.65 -31.05 L-8.7 -31.1 -8.95 -31.15 -9.0 -31.15 -9.9 -31.2 -10.0 -31.2 -10.2 -31.15 -10.3 -31.05 -10.45 -31.05 -10.55 -31.0 -10.65 -30.9 -10.8 -30.85 -11.65 -30.85 -11.75 -30.8 -12.1 -30.75 -12.15 -30.75 -12.2 -30.7 -12.35 -30.65 -12.4 -30.6 Q-12.45 -30.6 -12.55 -30.55 L-12.8 -30.5 -13.15 -30.5 -13.3 -30.55 -13.4 -30.6 -13.7 -30.65 -13.8 -30.65 -13.8 -30.75 -13.85 -30.8 -13.85 -30.95 -13.9 -30.95 -13.9 -31.0 -14.0 -31.1 -14.0 -31.2 -14.1 -31.3 -14.1 -31.35 -14.15 -31.35 -14.15 -31.6 -14.55 -31.65 -14.65 -31.7 -14.85 -31.7 -15.15 -31.6 -15.2 -31.55 -15.3 -31.55 -15.3 -31.45 -15.55 -31.2 -15.6 -31.2 -15.75 -31.15 -15.85 -31.05 -16.25 -30.95 -16.3 -30.9 -14.95 -30.9 -14.7 -30.85 -14.65 -30.8 -14.65 -30.55 -14.55 -30.45 -14.3 -30.4 -14.25 -30.35 -14.05 -30.35 -14.0 -30.3 -13.05 -30.35 -12.85 -30.45 -12.75 -30.45 -12.35 -30.5 -12.3 -30.55 -11.45 -30.55 -11.35 -30.5 -11.2 -30.5 -11.05 -30.45 -11.0 -30.4 -10.75 -30.4 Q-10.5 -30.3 -10.3 -30.25 L-10.15 -30.25 -9.8 -30.15 -9.65 -30.15 -9.05 -30.0 -9.0 -29.95 -8.95 -29.95 -8.95 -30.0 -8.9 -30.0 -8.8 -30.1 -8.8 -30.4 -8.75 -30.45 -8.65 -30.5 -8.6 -30.55 -8.55 -30.55 -8.45 -30.6 -8.4 -30.65 -8.45 -30.7 -8.45 -30.8 -8.55 -30.9 -8.65 -30.95 -8.65 -31.05 M-17.55 -19.45 L-17.55 -19.2 -17.6 -19.15 -17.6 -19.1 -17.8 -18.9 -17.95 -18.8 -18.45 -18.7 -18.5 -18.7 -18.5 -18.65 -18.75 -18.65 -18.85 -18.55 -19.05 -18.5 -19.15 -18.5 -19.25 -18.4 -19.75 -18.1 -19.9 -17.95 -19.95 -17.95 -20.05 -17.85 -20.15 -17.8 -20.2 -17.75 -20.35 -17.7 -20.4 -17.65 -20.55 -17.65 -20.9 -17.6 -20.95 -17.6 -21.35 -17.5 -21.65 -17.5 -21.75 -17.45 -21.75 -17.4 -21.7 -17.35 -21.75 -17.3 -21.75 -17.25 -21.7 -17.2 -21.6 -17.15 -21.5 -17.05 -21.45 -17.05 -21.35 -17.0 -21.3 -17.0 -21.3 -16.9 -21.2 -16.8 -20.9 -16.75 -20.8 -16.75 -20.6 -16.7 -20.6 -16.65 -20.55 -16.6 -20.55 -16.3 -20.65 -16.2 -20.65 -16.15 -20.8 -16.1 -20.8 -16.05 -20.85 -16.0 -20.95 -16.0 -20.95 -15.9 -20.7 -16.0 -20.35 -16.1 -20.3 -16.1 -20.2 -16.2 -20.1 -16.25 -20.1 -16.3 -20.05 -16.35 -19.55 -16.35 -19.35 -16.25 -19.35 -16.2 -19.3 -16.15 -19.3 -16.1 -19.0 -15.95 -18.9 -15.85 -18.6 -15.85 -18.6 -15.9 -18.5 -16.0 -18.5 -16.05 -18.4 -16.15 -18.4 -16.55 -18.35 -16.55 Q-18.3 -16.65 -18.3 -16.7 L-18.3 -16.95 -18.35 -17.0 -18.3 -17.05 -18.25 -17.15 -18.15 -17.25 -18.15 -17.3 -18.05 -17.4 -18.05 -17.5 -17.95 -17.6 -17.95 -17.65 -17.8 -17.8 Q-17.75 -17.9 -17.6 -17.95 L-17.5 -18.05 -17.65 -18.1 -17.8 -18.1 -17.95 -18.15 -18.0 -18.2 -18.0 -18.45 -17.95 -18.5 -17.85 -18.55 -17.8 -18.55 -17.75 -18.6 -17.65 -18.6 -17.6 -18.65 Q-17.55 -18.65 -17.55 -18.7 L-17.55 -18.75 -17.25 -19.05 -17.1 -19.15 -17.1 -19.25 -17.15 -19.3 -17.25 -19.35 -17.3 -19.4 -17.4 -19.4 -17.5 -19.5 -17.55 -19.5 -17.55 -19.45 M-7.8 -26.85 L-8.35 -26.85 -8.05 -26.8 -7.75 -26.8 -7.65 -26.85 -7.8 -26.85 M-8.6 -26.95 L-8.6 -26.95 M-44.9 -23.25 L-45.2 -23.1 -45.3 -23.0 -45.5 -22.85 -45.65 -22.7 -45.8 -22.7 -45.9 -22.8 Q-45.9 -22.85 -45.8 -22.9 L-45.65 -23.0 -45.45 -23.15 -45.4 -23.2 -45.3 -23.25 -45.2 -23.25 -45.15 -23.3 -44.95 -23.35 -44.8 -23.35 -44.9 -23.25 M-36.15 -13.05 L-36.0 -13.1 -36.1 -13.1 -36.15 -13.05 M-6.15 -12.0 L-6.05 -12.1 -5.95 -12.15 -5.8 -12.3 -5.5 -12.3 -5.45 -12.25 -5.15 -12.25 -5.05 -12.2 -4.95 -12.1 -4.95 -12.0 -4.85 -11.9 -4.85 -11.8 -4.8 -11.75 -4.8 -11.35 -4.85 -11.35 -5.0 -11.3 -5.05 -11.3 -5.15 -11.25 -5.15 -11.05 -5.1 -11.0 -5.05 -11.0 -5.0 -10.95 -5.0 -10.85 -4.9 -10.75 -4.7 -10.7 -5.05 -10.7 -5.1 -10.75 -5.1 -10.8 -5.15 -10.8 -5.2 -10.85 -5.3 -10.9 -5.3 -10.95 -5.4 -11.05 -5.4 -11.35 -5.3 -11.4 -5.2 -11.5 -5.1 -11.55 -5.05 -11.55 -5.05 -11.65 -5.15 -11.75 -5.15 -11.8 -5.25 -11.9 -5.25 -12.0 -5.3 -12.05 -5.45 -12.1 -5.55 -12.1 -5.6 -12.15 -5.7 -12.1 -5.7 -12.05 -5.8 -11.95 -5.95 -11.9 -6.0 -11.85 -6.05 -11.75 -6.1 -11.7 Q-6.1 -11.65 -6.15 -11.6 L-6.25 -11.6 -6.35 -11.45 -6.45 -11.35 -6.6 -11.3 -6.65 -11.25 -6.65 -11.2 -6.55 -11.1 -6.55 -10.8 -6.6 -10.75 -6.6 -10.7 -6.75 -10.55 -6.85 -10.55 -6.9 -10.5 -7.35 -10.5 -7.5 -10.55 -7.9 -10.55 -8.0 -10.5 -8.15 -10.45 -8.2 -10.4 -8.25 -10.4 -8.3 -10.35 -8.3 -10.25 -8.35 -10.2 -8.35 -10.15 -8.4 -10.1 -8.55 -10.1 -8.55 -10.15 -8.6 -10.2 -8.6 -10.45 -8.55 -10.5 -8.55 -10.6 -8.45 -10.65 -8.4 -10.7 -8.3 -10.7 -8.0 -10.75 -7.1 -10.75 -7.0 -10.8 -6.9 -10.8 -6.9 -10.95 -7.0 -11.05 -7.0 -11.35 -6.85 -11.5 -6.7 -11.5 -6.6 -11.55 -6.5 -11.65 -6.5 -11.7 -6.4 -11.75 -6.35 -11.8 -6.3 -11.8 -6.25 -11.85 -6.2 -11.95 -6.15 -12.0" fill="#ffffff" fill-rule="evenodd" stroke="none"/>
  </g>
</svg>
