<?xml version="1.0" encoding="UTF-8" standalone="no"?>
<svg xmlns:ffdec="https://www.free-decompiler.com/flash" xmlns:xlink="http://www.w3.org/1999/xlink" ffdec:objectType="shape" height="27.5px" width="1.6px" xmlns="http://www.w3.org/2000/svg">
  <g transform="matrix(1.0, 0.0, 0.0, 1.0, 0.0, 9.25)">
    <path d="M0.0 -0.4 Q0.0 -0.55 0.0 -0.65 0.05 0.15 0.1 -2.75 0.1 -3.15 0.1 -3.6 0.1 -2.35 0.15 -3.2 0.2 -2.65 0.2 -3.2 0.2 -2.75 0.25 -2.75 0.25 -2.7 0.25 -2.65 0.25 -2.05 0.3 -1.85 L0.3 -1.95 Q0.3 -2.0 0.3 -2.2 0.35 -2.25 0.35 -3.85 L0.35 -3.95 Q0.4 -4.0 0.4 -3.85 0.4 -3.8 0.4 -3.75 L0.4 -3.45 Q0.4 -2.6 0.45 -2.65 L0.45 -2.4 Q0.45 -2.3 0.45 -2.15 0.45 -2.05 0.45 -1.95 0.5 -1.25 0.5 -1.45 L0.5 -1.0 Q0.5 -1.1 0.5 -1.15 L0.5 -0.95 Q0.6 -0.85 0.6 -2.3 L0.65 -2.35 Q0.65 -1.6 0.65 -0.85 0.65 -0.35 0.65 0.0 0.65 0.2 0.65 0.25 0.65 0.35 0.65 0.4 0.7 0.95 0.75 1.15 L0.75 1.25 Q0.75 1.45 0.8 1.3 0.8 -0.35 0.8 -1.1 0.85 -1.75 0.9 -3.4 0.9 -3.25 0.95 -3.75 0.95 -3.55 0.95 -3.9 L1.0 -3.85 1.0 -3.75 Q1.0 -3.55 1.0 -3.35 1.0 -3.1 1.0 -2.9 1.0 -2.8 1.0 -2.75 1.0 -2.1 1.0 -1.5 1.0 -1.1 1.0 -0.65 1.0 -0.2 1.05 0.15 L1.05 0.35 Q1.05 1.1 1.05 1.55 1.1 2.15 1.1 2.25 L1.1 2.15 Q1.15 2.65 1.15 2.7 L1.2 3.35 1.2 4.3 Q1.2 4.5 1.25 4.55 1.25 5.1 1.25 4.15 L1.25 3.45 Q1.3 2.25 1.35 0.35 L1.35 0.25 Q1.35 0.05 1.35 -0.1 L1.35 -0.35 Q1.35 -0.75 1.4 -2.0 1.4 -2.25 1.4 -2.7 1.4 -2.75 1.45 -2.95 1.45 -2.3 1.5 -3.0 L1.5 -3.1 1.45 -3.45 Q1.5 -3.5 1.5 -3.65 L1.5 -3.55 Q1.5 -2.05 1.5 -1.45 L1.5 -0.75 Q1.55 -0.55 1.55 -0.6 1.55 0.0 1.55 0.6 L1.5 0.4 Q1.5 -0.3 1.5 -1.15 L1.5 -1.3 1.45 -1.4 1.45 -1.7 Q1.45 -2.0 1.4 -1.25 L1.4 -1.7 Q1.4 -0.7 1.35 0.6 1.3 1.95 1.3 4.2 L1.3 4.5 Q1.25 4.85 1.25 5.4 1.25 5.35 1.2 5.6 L1.2 4.95 Q1.2 4.35 1.2 4.15 L1.2 4.0 Q1.15 3.15 1.1 3.2 1.05 2.45 1.05 2.1 1.05 0.7 1.0 0.4 L1.0 -0.1 Q1.0 -1.45 0.95 -2.35 L0.95 -2.6 Q0.95 -3.05 0.9 -2.6 L0.9 -2.75 Q0.9 -2.65 0.9 -2.35 0.9 -2.0 0.85 -1.0 L0.85 -0.4 Q0.8 -0.25 0.8 1.45 0.8 1.9 0.8 2.25 0.75 1.75 0.7 1.75 0.7 1.6 0.7 1.55 L0.7 1.5 Q0.65 0.45 0.6 0.6 L0.6 0.4 Q0.6 -0.15 0.6 -1.0 L0.6 -0.65 Q0.6 -0.35 0.6 -0.1 L0.55 0.15 Q0.55 -0.55 0.5 -0.15 0.5 -0.2 0.5 0.05 L0.45 0.1 Q0.45 -1.35 0.45 -1.55 L0.4 -1.9 Q0.4 -2.75 0.4 -2.35 0.4 -3.2 0.35 -2.3 0.35 -2.2 0.35 -1.65 0.35 -1.55 0.3 -1.4 0.3 -1.45 0.3 -1.25 L0.3 -1.3 0.25 -1.4 Q0.2 -2.65 0.2 -2.35 L0.2 -2.1 Q0.15 -2.75 0.1 -1.75 L0.1 -0.45 Q0.1 -0.15 0.1 0.2 L0.1 0.35 0.0 0.2 0.0 -0.4 M0.1 -1.7 L0.1 -1.65 Q0.1 -1.7 0.1 -1.75 L0.1 -1.7 M0.25 -2.85 L0.25 -2.85 M0.35 -5.15 L0.35 -5.15 M0.9 -9.1 L0.9 -9.1 M1.05 8.85 L1.05 8.85 M1.05 8.1 L1.05 8.1 M1.1 9.85 L1.1 9.85 M1.6 2.5 L1.6 2.5 M1.35 -0.6 L1.35 -0.6 M1.15 9.1 L1.15 9.1 M1.2 18.2 L1.2 18.2 M0.5 15.65 L0.5 15.65" fill="#fff3f0" fill-rule="evenodd" stroke="none"/>
  </g>
</svg>
