<?xml version="1.0" encoding="UTF-8" standalone="no"?>
<svg xmlns:ffdec="https://www.free-decompiler.com/flash" xmlns:xlink="http://www.w3.org/1999/xlink" ffdec:objectType="shape" height="22.9px" width="66.2px" xmlns="http://www.w3.org/2000/svg">
  <g transform="matrix(1.0, 0.0, 0.0, 1.0, 53.5, 32.35)">
    <path d="M0.55 -28.4 L1.05 -28.4 1.2 -28.35 1.3 -28.3 1.3 -28.25 1.4 -28.15 1.4 -28.1 1.45 -28.1 1.6 -27.95 1.7 -27.9 1.7 -27.65 1.65 -27.55 1.6 -27.5 1.45 -27.5 1.45 -27.55 1.4 -27.6 1.4 -27.75 1.35 -27.75 1.3 -27.8 1.3 -27.85 1.1 -28.05 1.1 -28.1 1.05 -28.1 1.0 -28.15 1.0 -28.2 0.55 -28.2 0.5 -28.15 0.45 -28.15 0.3 -28.1 -0.05 -28.05 -0.1 -28.05 -1.65 -28.1 -1.7 -28.05 -1.9 -28.05 -2.05 -28.0 -2.05 -27.95 -2.15 -27.9 -2.2 -27.85 -2.2 -27.8 -2.3 -27.7 -2.2 -27.65 -2.05 -27.5 -2.0 -27.5 -2.0 -27.25 -2.15 -27.1 -2.25 -27.05 -2.4 -26.9 -2.55 -26.9 -2.65 -26.8 -2.7 -26.8 -3.4 -26.75 -3.5 -26.75 -3.6 -26.85 -3.6 -26.9 -3.7 -26.95 -3.8 -26.95 -3.9 -27.05 -4.2 -27.15 -4.45 -27.15 -4.5 -27.1 -4.6 -27.05 -4.65 -27.0 -4.6 -27.0 -4.5 -26.9 Q-4.4 -26.85 -4.3 -26.8 L-4.25 -26.7 -4.2 -26.65 -4.2 -26.55 -4.1 -26.45 -4.1 -26.4 -4.2 -26.35 -4.1 -26.25 -4.1 -26.15 -4.0 -26.05 -4.0 -26.0 -3.95 -25.95 -3.95 -25.9 -3.9 -25.85 -3.9 -25.8 -3.85 -25.8 -3.75 -25.7 -3.75 -25.6 -3.65 -25.5 -3.65 -25.45 -3.6 -25.4 -3.55 -25.4 -3.3 -25.15 -3.3 -25.1 -3.25 -25.1 -3.15 -25.0 -3.3 -25.0 -3.4 -25.05 -3.55 -25.1 -3.6 -25.15 -3.75 -25.2 -3.8 -25.2 -4.1 -25.5 -4.1 -25.55 -4.3 -25.75 -4.3 -25.85 -4.35 -25.9 -4.35 -25.95 -4.45 -26.05 -4.45 -26.1 -4.55 -26.15 -4.55 -26.5 -4.75 -26.7 -4.75 -26.75 -4.85 -26.75 -4.9 -26.8 -4.95 -26.8 -5.05 -26.9 -5.2 -26.9 -5.3 -26.85 -5.3 -26.75 -5.4 -26.65 -6.05 -26.65 -6.0 -26.6 -5.95 -26.6 -6.05 -26.5 -6.3 -26.5 -6.4 -26.55 -6.45 -26.6 -7.25 -26.6 -7.3 -26.55 -7.4 -26.5 -7.5 -26.5 -8.0 -26.45 -8.1 -26.4 Q-8.9 -26.35 -9.7 -26.4 L-9.9 -26.5 -9.95 -26.5 -10.1 -26.55 -10.15 -26.6 -10.3 -26.6 -10.4 -26.65 -10.45 -26.7 -10.55 -26.7 -10.6 -26.75 -10.75 -26.8 -10.85 -26.9 -10.85 -26.95 -10.9 -27.0 -10.9 -27.1 -11.0 -27.2 -11.0 -27.35 -11.05 -27.35 -11.2 -27.5 -11.2 -27.75 -11.15 -27.75 -11.1 -27.8 -11.1 -27.85 -11.0 -27.9 -10.9 -28.0 -10.8 -28.0 -10.7 -28.05 -10.65 -28.1 -10.55 -28.15 -10.5 -28.2 Q-10.45 -28.2 -10.35 -28.2 L-10.3 -28.25 -10.2 -28.25 -10.05 -28.4 -10.05 -28.45 -10.15 -28.55 -10.15 -28.6 -10.25 -28.7 -10.25 -28.75 -10.4 -28.9 -10.45 -28.9 -10.45 -29.05 -10.4 -29.1 -10.1 -29.25 -9.15 -29.25 -9.05 -29.3 -9.05 -29.55 -9.1 -29.55 -9.2 -29.6 -9.35 -29.6 -9.55 -29.65 -9.55 -29.8 -9.45 -29.8 -9.45 -29.85 -9.4 -29.8 -9.05 -29.8 -9.05 -29.75 -8.95 -29.85 -8.95 -30.0 -9.0 -30.05 -9.05 -30.05 -9.05 -30.35 -9.0 -30.35 -8.95 -30.4 -8.8 -30.5 -8.7 -30.6 -8.65 -30.6 -8.55 -30.65 -8.45 -30.65 -8.35 -30.7 -8.3 -30.75 -8.25 -30.75 -8.25 -30.85 -8.1 -31.0 -8.1 -31.05 -8.05 -31.1 -7.95 -31.15 -7.95 -31.2 -7.9 -31.25 -7.9 -31.35 -7.85 -31.4 -7.9 -31.4 -7.95 -31.45 -8.15 -31.5 -8.15 -31.55 -8.3 -31.55 -9.45 -31.6 -9.5 -31.65 -9.45 -31.65 -9.35 -31.7 -8.45 -31.65 -8.35 -31.65 -8.05 -31.6 -8.05 -31.55 -7.9 -31.55 -7.8 -31.45 -7.8 -31.4 -7.75 -31.35 -7.75 -31.3 -7.7 -31.25 -7.7 -31.1 -7.65 -31.05 -7.7 -31.0 -7.7 -30.8 -7.75 -30.75 -7.75 -30.7 -7.8 -30.65 -7.8 -30.55 -7.85 -30.55 -7.95 -30.5 -8.0 -30.45 -8.1 -30.4 -8.25 -30.35 -8.3 -30.3 -8.45 -30.3 -8.55 -30.2 -8.5 -30.15 -8.5 -29.8 -8.55 -29.7 -8.65 -29.6 -8.65 -29.55 -8.7 -29.5 -8.75 -29.5 -8.7 -29.45 -8.65 -29.45 -8.65 -29.25 -8.7 -29.2 -8.7 -29.15 -8.8 -29.15 -8.85 -29.1 -8.95 -29.05 -9.2 -29.05 -10.0 -29.0 -9.9 -28.9 -9.95 -28.85 -9.95 -28.8 -9.85 -28.7 -9.85 -28.65 -9.8 -28.6 -9.8 -28.2 -9.9 -28.1 -9.95 -28.1 -10.0 -28.05 -10.15 -28.0 -10.3 -27.85 -10.4 -27.85 -10.45 -27.8 -10.6 -27.75 -10.7 -27.7 -10.7 -27.55 -10.65 -27.5 -10.65 -27.45 -10.45 -27.25 -10.45 -27.0 -10.35 -26.95 -10.3 -26.9 -10.2 -26.85 -10.15 -26.8 -10.1 -26.8 -10.05 -26.75 -10.05 -26.7 -9.75 -26.65 -9.6 -26.65 Q-8.9 -26.55 -8.2 -26.65 L-8.1 -26.65 -7.55 -26.7 -7.45 -26.8 -7.35 -26.8 Q-6.95 -26.85 -6.55 -26.9 L-6.35 -26.9 -6.25 -26.8 -6.2 -26.8 Q-5.85 -26.8 -5.6 -26.9 L-5.6 -26.95 -5.55 -27.0 -5.35 -27.1 -5.3 -27.15 -5.2 -27.2 -5.0 -27.2 -5.0 -27.3 -4.95 -27.3 -4.95 -27.35 -4.85 -27.4 -4.75 -27.5 -4.75 -27.55 -4.8 -27.55 -4.9 -27.6 -4.95 -27.65 -5.05 -27.7 -5.35 -27.75 -5.5 -27.75 -5.55 -27.8 -5.55 -28.3 -5.45 -28.4 -5.35 -28.4 -5.25 -28.45 -5.2 -28.4 -5.2 -27.95 -4.95 -27.95 -4.8 -27.9 -4.7 -27.85 -4.65 -27.8 -4.45 -27.7 -4.4 -27.65 -4.4 -27.55 -4.45 -27.5 -4.55 -27.45 -4.55 -27.4 -4.65 -27.3 -4.65 -27.25 -4.45 -27.35 -4.05 -27.3 -4.0 -27.25 -3.95 -27.25 -3.85 -27.2 -3.75 -27.1 -3.6 -27.05 -3.55 -27.05 -3.5 -27.0 -3.4 -26.95 -3.35 -26.9 -3.35 -26.85 -3.2 -26.85 -3.15 -26.9 -3.1 -26.9 -2.7 -26.95 -2.65 -27.0 -2.55 -27.05 -2.45 -27.05 -2.45 -27.1 -2.35 -27.15 -2.3 -27.2 -2.3 -27.3 -2.2 -27.35 -2.2 -27.4 -2.25 -27.45 -2.35 -27.5 -2.35 -27.55 -2.45 -27.65 -2.45 -27.75 -2.35 -27.8 -2.35 -27.9 -2.3 -27.95 -2.3 -28.05 -2.2 -28.1 -2.15 -28.1 -2.1 -28.15 -2.0 -28.15 -1.95 -28.2 -1.3 -28.2 -1.25 -28.25 -0.2 -28.25 -0.1 -28.3 0.15 -28.35 0.45 -28.35 0.5 -28.4 0.55 -28.4 M3.1 -27.2 L3.15 -27.2 3.25 -27.15 3.3 -27.1 Q3.35 -27.1 3.4 -27.05 L3.5 -27.05 3.5 -27.0 3.65 -26.9 3.75 -26.85 3.8 -26.8 3.8 -26.7 3.65 -26.7 3.5 -26.8 3.4 -26.9 3.35 -26.9 3.35 -26.95 3.2 -27.0 3.15 -27.05 3.1 -27.05 3.0 -27.1 3.0 -27.15 3.05 -27.2 3.1 -27.2 M4.5 -25.5 L4.5 -25.25 4.55 -25.2 4.55 -24.95 4.65 -24.85 4.65 -24.75 4.7 -24.65 4.7 -24.6 4.75 -24.55 4.75 -24.4 4.8 -24.35 4.8 -24.2 4.9 -24.1 5.0 -24.1 5.1 -24.05 5.1 -23.95 5.15 -23.95 5.1 -23.9 5.1 -23.75 5.05 -23.7 4.95 -23.7 4.9 -23.65 4.65 -23.65 4.5 -23.7 4.1 -23.75 4.05 -23.7 4.05 -23.65 4.0 -23.6 4.0 -23.5 4.05 -23.5 4.25 -23.4 4.3 -23.35 4.3 -23.2 4.35 -23.15 4.4 -23.15 4.4 -22.9 4.3 -22.8 Q4.35 -22.75 4.25 -22.7 L3.95 -22.5 3.9 -22.5 Q3.5 -22.45 3.05 -22.55 L3.8 -22.65 3.85 -22.65 3.95 -22.75 3.95 -22.8 4.05 -22.9 4.05 -22.95 4.1 -23.0 4.05 -23.05 4.05 -23.25 3.8 -23.3 3.75 -23.35 3.8 -23.45 3.8 -23.7 3.85 -23.75 3.9 -23.85 3.95 -23.9 4.1 -23.9 4.2 -23.85 4.5 -23.85 4.55 -23.8 4.75 -23.8 4.85 -23.85 4.85 -24.05 4.8 -24.1 4.75 -24.1 4.65 -24.15 4.65 -24.25 4.55 -24.35 4.55 -24.4 4.5 -24.45 4.5 -24.55 4.45 -24.6 4.45 -24.65 4.4 -24.7 4.4 -24.85 4.35 -24.9 4.35 -25.25 4.4 -25.3 4.4 -25.55 Q4.35 -25.6 4.45 -25.65 L4.5 -25.65 4.5 -25.5 M0.0 -24.55 L0.0 -24.5 -0.05 -24.5 -0.05 -24.45 0.15 -24.25 0.2 -24.25 0.3 -24.2 0.3 -24.15 0.35 -24.2 0.35 -24.25 0.45 -24.3 0.8 -24.3 0.9 -24.25 0.95 -24.2 0.95 -24.05 0.85 -23.95 1.0 -23.95 1.0 -23.85 0.95 -23.8 0.95 -23.6 0.9 -23.55 0.7 -23.45 0.7 -23.4 Q0.7 -23.3 0.6 -23.25 L0.3 -23.1 0.25 -23.05 -0.1 -23.0 -0.2 -23.0 -0.2 -22.9 -0.25 -22.9 -0.25 -22.8 -0.2 -22.75 -0.2 -22.7 -0.15 -22.65 -0.15 -22.6 -0.1 -22.55 -0.25 -22.55 -0.25 -22.65 -0.3 -22.7 -0.3 -22.8 -0.35 -22.95 -0.35 -23.05 -0.3 -23.1 -0.1 -23.1 0.1 -23.15 0.2 -23.2 0.25 -23.25 0.3 -23.25 0.5 -23.3 0.55 -23.35 0.55 -23.55 0.65 -23.65 0.65 -23.7 0.7 -23.75 0.7 -23.9 0.75 -23.9 0.75 -23.95 0.4 -23.95 0.3 -24.05 0.3 -24.15 0.0 -24.15 -0.05 -24.2 -0.2 -24.2 -0.35 -24.35 -0.35 -24.8 -0.3 -24.85 -0.45 -25.0 -0.45 -25.1 -0.55 -25.15 -0.55 -25.2 -0.6 -25.2 -0.7 -25.3 -0.85 -25.3 -1.05 -25.4 -1.05 -25.45 -1.3 -25.45 -1.4 -25.4 -1.55 -25.35 -1.65 -25.3 -1.75 -25.2 -2.45 -25.15 -2.6 -25.1 -2.65 -25.1 -3.15 -25.15 -3.2 -25.2 -3.35 -25.3 -3.45 -25.35 -3.5 -25.4 -3.45 -25.4 -3.35 -25.35 -3.3 -25.3 -3.15 -25.25 -3.1 -25.2 -2.7 -25.2 -2.55 -25.35 -1.95 -25.4 -1.85 -25.45 -1.8 -25.5 -1.7 -25.55 -1.0 -25.55 -0.9 -25.5 -0.8 -25.4 -0.75 -25.4 -0.6 -25.35 -0.5 -25.25 -0.2 -25.1 -0.15 -25.05 -0.15 -25.0 -0.05 -24.95 -0.05 -24.85 0.05 -24.75 0.05 -24.6 0.0 -24.55 M2.15 -22.85 L2.2 -22.9 2.6 -22.9 2.75 -22.75 2.95 -22.75 3.0 -22.7 3.0 -22.65 2.55 -22.65 2.5 -22.7 2.4 -22.75 2.3 -22.7 2.25 -22.65 2.3 -22.6 2.3 -22.5 2.25 -22.45 2.25 -22.4 2.15 -22.3 2.1 -22.3 2.05 -22.25 2.05 -22.2 1.9 -22.05 1.8 -22.0 1.65 -21.95 1.6 -21.95 1.3 -21.8 1.3 -21.75 1.25 -21.7 1.0 -21.7 0.85 -21.85 0.85 -21.95 0.8 -22.0 0.75 -22.0 0.75 -22.05 0.65 -22.05 0.55 -22.0 0.35 -21.95 0.25 -21.95 0.25 -21.7 0.2 -21.65 0.2 -21.55 0.15 -21.5 0.15 -21.35 0.1 -21.3 0.0 -21.25 -0.05 -21.25 -0.05 -21.2 Q-0.15 -21.2 -0.25 -21.15 L-0.3 -21.15 -0.45 -21.1 -0.55 -21.0 -0.75 -20.9 -1.05 -20.8 -1.2 -20.65 Q-1.55 -20.55 -2.0 -20.6 L-2.05 -20.65 -2.35 -20.65 -2.5 -20.7 -2.6 -20.75 -2.6 -20.8 -2.7 -20.85 -2.85 -20.9 Q-3.4 -21.0 -3.9 -20.95 L-3.95 -20.95 -4.05 -20.9 Q-4.0 -20.8 -3.9 -20.75 L-3.7 -20.6 -3.4 -20.5 -3.15 -20.5 -3.1 -20.55 -3.0 -20.6 -2.8 -20.5 -2.8 -20.35 -2.75 -20.35 -2.65 -20.25 -2.45 -20.15 -2.4 -20.1 -2.4 -20.0 -2.35 -20.0 -2.3 -19.95 -2.3 -19.85 -2.15 -19.8 -1.9 -19.8 -1.8 -19.85 -1.7 -19.8 -1.7 -19.75 -1.75 -19.7 -1.75 -19.65 -1.8 -19.6 -1.8 -19.55 -2.25 -19.55 -2.35 -19.6 -2.4 -19.65 -2.55 -19.65 -2.6 -19.7 -2.6 -19.85 -2.7 -19.9 -2.7 -20.0 -2.8 -20.05 -2.95 -20.15 -2.95 -20.2 -3.05 -20.3 -3.35 -20.3 -3.45 -20.35 -3.5 -20.35 -3.65 -20.4 Q-3.75 -20.5 -3.85 -20.55 L-4.05 -20.7 -4.2 -20.8 -4.25 -20.85 -4.25 -20.9 -4.4 -20.95 -4.4 -21.0 -4.45 -21.0 -4.65 -21.05 -4.75 -21.05 -4.8 -21.1 -4.9 -21.15 -4.9 -21.3 -4.85 -21.35 -4.75 -21.4 -4.7 -21.4 -4.7 -21.45 -4.55 -21.6 -4.45 -21.6 -4.45 -21.65 -4.5 -21.7 -4.5 -21.85 -4.55 -21.85 -4.65 -21.95 -4.75 -22.0 -5.1 -22.05 -5.35 -22.05 -5.45 -22.1 -5.6 -22.25 -5.6 -22.5 -5.65 -22.45 -5.7 -22.45 -5.8 -22.35 -5.9 -22.35 -5.9 -22.2 -5.95 -22.1 -5.95 -21.95 -6.05 -21.95 -6.05 -22.1 -6.1 -22.1 -6.1 -22.4 -6.05 -22.45 -6.05 -22.5 -6.0 -22.6 -5.95 -22.6 -5.95 -22.7 -5.9 -22.7 -5.85 -22.75 -5.6 -22.75 -5.3 -22.6 -5.3 -22.45 -5.2 -22.35 -5.2 -22.3 -4.95 -22.3 -4.85 -22.25 -4.75 -22.25 -4.6 -22.2 -4.5 -22.15 -4.45 -22.1 -4.35 -22.1 -4.25 -22.0 -4.25 -21.85 -4.15 -21.75 -4.15 -21.6 -4.1 -21.5 -4.2 -21.4 -4.3 -21.4 -4.4 -21.35 -4.4 -21.15 -4.35 -21.1 -4.15 -21.1 -4.0 -21.15 -3.15 -21.15 -2.7 -21.1 -2.55 -21.0 -2.35 -20.95 -2.25 -20.85 -1.95 -20.8 -1.6 -20.8 -1.55 -20.85 -1.45 -20.85 Q-1.35 -20.95 -1.15 -21.0 -1.0 -21.05 -0.8 -21.1 L-0.8 -21.15 -0.75 -21.2 -0.65 -21.25 -0.6 -21.3 -0.45 -21.3 -0.3 -21.35 -0.15 -21.35 0.0 -21.4 0.05 -21.45 0.05 -21.5 0.0 -21.55 0.0 -21.6 -0.05 -21.65 -0.05 -21.9 -0.1 -21.95 -0.1 -22.0 -0.15 -22.05 -0.15 -22.2 -0.1 -22.25 -0.1 -22.3 -0.15 -22.4 -0.15 -22.45 -0.05 -22.45 -0.05 -22.4 0.25 -22.1 0.3 -22.15 0.55 -22.2 0.85 -22.2 0.95 -22.15 1.0 -22.1 1.0 -22.05 1.1 -22.0 1.15 -21.95 1.2 -22.0 1.3 -22.05 1.35 -22.1 1.5 -22.1 1.65 -22.2 1.75 -22.3 1.75 -22.35 1.85 -22.4 1.9 -22.45 1.95 -22.45 2.1 -22.6 2.1 -22.7 2.05 -22.75 2.15 -22.85 M3.6 -20.4 L3.7 -20.35 3.85 -20.35 4.0 -20.3 4.05 -20.25 4.1 -20.25 4.15 -20.2 4.25 -20.15 4.35 -20.15 4.5 -20.1 4.7 -20.05 4.8 -20.0 4.95 -20.0 5.2 -19.95 5.4 -19.95 5.5 -19.9 5.65 -19.9 5.75 -19.85 5.95 -19.85 6.05 -19.75 6.25 -19.65 6.4 -19.6 6.5 -19.5 6.55 -19.55 6.65 -19.5 6.7 -19.45 6.7 -19.4 6.8 -19.35 6.95 -19.2 7.0 -19.2 7.0 -18.7 6.9 -18.6 6.9 -18.45 6.95 -18.35 6.95 -18.05 6.75 -18.05 6.8 -18.1 6.75 -18.15 6.75 -18.2 6.7 -18.25 6.7 -18.3 6.65 -18.3 6.6 -18.35 6.6 -18.6 6.65 -18.6 6.75 -18.65 6.75 -18.7 6.8 -18.75 6.8 -19.15 6.75 -19.2 6.75 -19.25 6.7 -19.3 6.7 -19.25 6.75 -19.2 6.75 -19.1 6.55 -19.1 6.45 -19.15 6.3 -19.3 6.2 -19.3 6.15 -19.35 6.05 -19.4 5.95 -19.5 5.85 -19.55 5.7 -19.6 5.65 -19.65 5.55 -19.65 5.45 -19.7 Q5.35 -19.7 5.25 -19.75 L5.2 -19.75 4.85 -19.8 4.75 -19.8 4.55 -19.85 4.5 -19.85 4.35 -19.9 4.25 -19.9 4.1 -19.95 4.05 -19.95 3.9 -20.0 3.85 -20.05 3.85 -20.1 3.8 -20.15 3.65 -20.15 3.5 -20.2 3.4 -20.25 2.9 -20.25 2.85 -20.2 2.85 -20.15 2.8 -20.1 2.75 -20.1 2.75 -20.05 2.65 -19.95 2.65 -19.9 2.45 -19.7 2.45 -19.65 2.4 -19.6 2.25 -19.5 2.05 -19.4 1.9 -19.35 1.45 -19.3 0.85 -19.3 0.75 -19.35 0.5 -19.35 0.4 -19.4 0.35 -19.45 0.3 -19.55 0.25 -19.6 0.25 -19.7 0.15 -19.75 0.1 -19.75 0.0 -19.8 -0.05 -19.85 -0.2 -19.9 -0.3 -19.85 -0.8 -19.9 -0.8 -19.95 -0.3 -20.0 -0.2 -19.95 -0.05 -19.95 0.0 -19.9 0.1 -19.9 0.2 -19.85 0.3 -19.75 0.3 -19.7 0.35 -19.65 0.35 -19.6 0.4 -19.55 1.45 -19.55 1.7 -19.6 1.8 -19.6 2.0 -19.65 2.05 -19.7 2.2 -19.75 2.35 -19.9 2.35 -19.95 2.45 -20.05 2.45 -20.1 2.5 -20.1 2.55 -20.15 2.55 -20.2 2.6 -20.25 2.6 -20.3 2.65 -20.35 2.65 -20.4 2.7 -20.45 2.8 -20.45 2.8 -20.5 3.05 -20.45 3.15 -20.45 3.6 -20.4 M6.55 -19.45 L6.55 -19.45 M7.15 -18.2 L7.3 -18.35 7.3 -18.4 7.4 -18.4 7.45 -18.45 7.45 -18.5 7.5 -18.55 7.5 -18.6 7.6 -18.7 7.75 -18.75 8.0 -18.75 8.1 -18.8 8.3 -18.75 8.35 -18.7 8.4 -18.7 8.4 -18.65 8.75 -18.6 8.8 -18.65 9.0 -18.65 9.1 -18.7 9.4 -18.75 Q9.45 -18.85 9.55 -18.9 9.7 -18.95 9.8 -19.05 L9.95 -19.2 9.95 -19.25 10.0 -19.3 10.25 -19.4 10.45 -19.55 10.85 -19.6 11.1 -19.6 11.2 -19.55 11.2 -19.5 10.95 -19.5 10.45 -19.45 10.35 -19.35 10.25 -19.3 10.2 -19.25 10.1 -19.2 10.0 -19.1 10.0 -19.05 9.95 -19.0 9.9 -19.0 9.5 -18.6 9.4 -18.6 9.05 -18.55 9.05 -18.5 8.75 -18.55 8.3 -18.6 8.3 -18.65 8.25 -18.7 8.05 -18.65 7.85 -18.65 7.75 -18.6 7.65 -18.5 7.65 -18.45 7.6 -18.4 7.5 -18.4 7.4 -18.3 7.4 -18.25 7.35 -18.2 7.25 -18.15 7.25 -18.1 7.15 -18.1 7.1 -18.15 7.15 -18.2 M11.3 -18.4 L11.25 -18.35 11.2 -18.35 11.2 -18.3 11.15 -18.3 11.05 -18.25 11.05 -18.2 10.95 -18.25 10.95 -18.3 11.0 -18.3 11.05 -18.35 11.05 -18.5 11.15 -18.6 11.2 -18.6 11.25 -18.65 11.3 -18.65 11.35 -18.7 11.55 -18.7 11.75 -18.6 11.85 -18.5 12.15 -18.5 12.25 -18.6 12.25 -18.95 12.2 -19.0 12.15 -19.0 12.15 -19.05 12.05 -19.15 11.75 -19.15 11.7 -19.2 11.6 -19.25 11.6 -19.4 11.7 -19.5 11.8 -19.55 11.9 -19.55 12.05 -19.5 12.15 -19.45 12.25 -19.35 12.25 -19.25 12.35 -19.2 12.45 -19.1 12.5 -19.1 12.6 -19.05 12.6 -19.0 12.65 -18.95 12.65 -18.8 12.7 -18.75 12.7 -18.6 12.65 -18.5 12.65 -18.4 12.6 -18.4 12.5 -18.3 12.4 -18.25 11.6 -18.25 11.55 -18.3 11.55 -18.35 11.5 -18.4 11.3 -18.4 M6.85 -17.9 L6.75 -17.85 6.75 -17.7 6.55 -17.7 6.6 -17.75 6.6 -17.8 6.7 -17.85 6.7 -17.9 6.75 -17.95 6.85 -17.95 6.85 -17.9 M6.8 -17.05 L6.8 -16.8 Q6.8 -16.7 6.8 -16.6 L6.9 -16.5 6.9 -16.45 6.95 -16.4 6.95 -16.25 7.0 -16.2 6.95 -16.15 6.95 -16.1 6.9 -16.1 6.9 -16.05 6.85 -16.0 6.75 -15.95 6.65 -15.85 6.45 -15.85 6.25 -15.9 6.25 -15.95 6.2 -15.95 6.15 -16.0 6.2 -16.05 6.4 -16.1 6.45 -16.1 6.55 -16.15 6.55 -16.2 6.6 -16.25 6.7 -16.3 6.7 -16.4 6.75 -16.45 6.7 -16.45 6.65 -16.5 6.65 -17.1 Q6.65 -17.2 6.75 -17.25 L6.8 -17.05 M5.9 -16.1 L5.95 -16.05 6.1 -16.0 6.15 -16.0 5.95 -15.95 5.85 -16.0 5.6 -16.0 5.2 -16.05 5.05 -16.1 4.95 -16.15 4.9 -16.15 4.8 -16.1 4.75 -16.1 4.75 -16.05 4.7 -16.0 4.7 -15.95 4.65 -15.9 4.7 -15.85 4.7 -15.8 4.8 -15.7 4.75 -15.65 4.75 -15.6 4.7 -15.55 4.55 -15.55 4.4 -15.7 4.4 -15.75 4.3 -15.8 4.3 -15.95 4.25 -16.0 4.3 -16.05 4.3 -16.1 4.35 -16.15 4.35 -16.2 4.45 -16.2 4.45 -16.25 4.5 -16.3 4.5 -16.35 4.55 -16.35 4.7 -16.4 5.05 -16.4 5.15 -16.35 5.25 -16.25 5.35 -16.25 5.5 -16.2 5.55 -16.15 5.85 -16.1 5.9 -16.1 M0.05 -15.25 L0.1 -15.2 0.15 -15.2 0.05 -15.1 0.05 -14.9 0.1 -14.85 0.1 -14.8 0.15 -14.75 0.15 -14.45 0.25 -14.4 0.25 -14.3 0.35 -14.25 0.45 -14.1 0.55 -14.0 0.7 -13.95 0.95 -13.9 1.05 -13.85 1.3 -13.8 1.4 -13.8 1.55 -13.75 1.65 -13.65 1.95 -13.65 1.95 -13.6 2.05 -13.5 2.15 -13.45 2.3 -13.45 2.35 -13.4 2.45 -13.35 2.45 -13.4 2.55 -13.4 2.65 -13.45 2.65 -13.5 2.7 -13.55 2.7 -13.6 2.8 -13.7 2.95 -13.75 3.0 -13.8 3.0 -13.9 3.1 -13.95 3.3 -13.95 3.4 -14.0 3.5 -14.1 3.6 -14.15 3.65 -14.25 3.75 -14.4 Q3.85 -14.45 3.85 -14.5 L3.9 -14.55 3.9 -14.6 3.95 -14.65 3.95 -14.75 4.0 -14.8 4.0 -14.85 4.2 -14.95 4.2 -14.9 4.15 -14.85 4.15 -14.8 4.05 -14.7 4.05 -14.55 3.95 -14.45 3.9 -14.35 3.8 -14.25 3.75 -14.25 3.7 -14.2 Q3.65 -14.1 3.6 -14.05 L3.45 -13.9 3.35 -13.85 3.3 -13.8 3.2 -13.8 3.2 -13.75 3.15 -13.7 3.15 -13.6 3.1 -13.55 3.1 -13.45 2.9 -13.25 2.8 -13.2 2.8 -13.15 2.65 -13.15 2.55 -13.05 2.35 -13.05 2.25 -13.1 2.2 -13.1 Q2.05 -13.15 1.95 -13.25 L1.7 -13.45 1.65 -13.45 1.65 -13.5 1.5 -13.55 1.35 -13.55 1.25 -13.6 0.95 -13.7 0.65 -13.7 0.6 -13.75 0.35 -13.8 0.25 -13.85 0.15 -13.95 0.0 -14.05 0.0 -14.1 -0.05 -14.15 -0.1 -14.15 -0.1 -14.3 -0.15 -14.35 -0.15 -14.6 -0.25 -14.7 -0.25 -15.15 -0.2 -15.2 -0.1 -15.25 0.05 -15.25 M3.6 -11.8 L3.65 -11.75 3.85 -11.7 3.85 -11.65 3.75 -11.65 3.35 -11.7 3.2 -11.7 3.15 -11.75 Q3.1 -11.75 3.05 -11.8 L3.0 -11.8 3.05 -11.85 Q3.1 -11.85 3.2 -11.9 L3.25 -11.9 Q3.25 -11.85 3.3 -11.85 L3.35 -11.85 3.6 -11.8 M4.2 -11.7 L4.35 -11.65 4.55 -11.65 4.65 -11.7 4.7 -11.7 4.75 -11.75 5.1 -11.75 5.2 -11.7 5.5 -11.7 5.55 -11.65 5.65 -11.6 5.65 -11.55 5.7 -11.5 5.8 -11.45 5.85 -11.4 5.85 -11.25 5.9 -11.2 5.9 -11.1 6.0 -11.0 5.95 -10.95 5.95 -10.8 5.85 -10.7 5.85 -10.65 5.75 -10.55 5.75 -10.45 5.7 -10.4 5.75 -10.4 5.75 -10.3 5.7 -10.25 5.7 -10.1 5.5 -9.9 5.5 -9.85 5.45 -9.8 5.35 -9.75 5.1 -9.75 4.8 -9.8 4.75 -9.85 4.75 -9.95 4.7 -10.0 4.65 -10.0 4.4 -9.95 4.25 -9.95 4.25 -10.1 4.3 -10.1 4.35 -10.15 4.55 -10.25 4.8 -10.25 4.95 -10.2 4.95 -10.15 5.0 -10.1 5.05 -10.1 5.1 -10.05 5.1 -10.0 5.15 -10.0 5.2 -10.05 5.25 -10.05 5.4 -10.2 5.4 -10.25 5.55 -10.4 5.55 -10.45 5.6 -10.45 5.7 -10.55 5.7 -10.65 5.75 -10.7 5.7 -10.75 5.7 -10.85 5.65 -10.9 5.65 -10.95 5.55 -11.05 5.55 -11.25 5.6 -11.3 5.4 -11.5 5.3 -11.55 5.1 -11.6 5.05 -11.65 4.75 -11.65 4.6 -11.6 4.6 -11.55 4.5 -11.55 4.5 -11.45 4.45 -11.4 4.45 -11.35 4.35 -11.3 4.05 -11.3 3.95 -11.35 3.9 -11.35 3.85 -11.4 3.85 -11.55 3.9 -11.6 4.0 -11.65 4.05 -11.65 4.2 -11.7 M1.9 -10.2 L1.95 -10.2 2.0 -10.15 2.0 -10.0 1.9 -9.9 1.9 -9.85 1.85 -9.75 1.75 -9.65 1.75 -9.6 1.65 -9.5 1.55 -9.45 1.45 -9.5 1.45 -9.65 1.55 -9.7 1.55 -9.75 1.6 -9.8 1.7 -9.85 1.75 -9.85 1.75 -10.05 1.55 -10.25 1.35 -10.35 1.05 -10.35 0.95 -10.3 Q0.55 -10.2 0.05 -10.15 L0.0 -10.15 -0.55 -10.2 -0.65 -10.3 -0.65 -10.7 Q-0.7 -10.8 -0.65 -10.9 L-0.45 -11.1 -0.35 -11.1 -0.3 -11.05 -0.3 -11.0 -0.35 -10.95 -0.35 -10.9 -0.4 -10.85 -0.45 -10.7 -0.45 -10.4 -0.4 -10.35 -0.15 -10.3 Q0.0 -10.3 0.2 -10.3 L0.5 -10.3 0.55 -10.35 0.85 -10.4 0.9 -10.45 0.95 -10.45 1.5 -10.5 1.75 -10.45 1.85 -10.4 1.85 -10.25 1.9 -10.2 M-46.5 -22.7 L-46.45 -22.75 -46.45 -22.8 -46.4 -22.85 -46.4 -22.9 -46.35 -22.9 -46.3 -22.95 -46.1 -23.05 -46.0 -23.0 -45.95 -23.0 -45.95 -22.9 -46.15 -22.7 -46.15 -22.45 -46.1 -22.4 -46.1 -22.35 -46.0 -22.3 -45.95 -22.3 -45.95 -22.1 -46.0 -22.0 -46.0 -21.95 -46.1 -21.95 -46.3 -21.9 -46.4 -21.85 -46.65 -21.9 -46.65 -21.95 -46.6 -22.0 -46.5 -22.05 -46.45 -22.1 -46.4 -22.1 -46.25 -22.15 -46.3 -22.2 -46.4 -22.2 -46.45 -22.25 -46.45 -22.45 -46.55 -22.55 -46.55 -22.65 -46.5 -22.7 M-52.9 -20.45 L-52.85 -20.5 -52.85 -20.55 -52.8 -20.55 -52.65 -20.65 -52.55 -20.75 -51.4 -20.75 -51.25 -20.8 -51.2 -20.8 -50.85 -20.85 -50.45 -20.85 -50.25 -20.8 -50.15 -20.7 -50.25 -20.75 -51.15 -20.75 -51.15 -20.7 -51.35 -20.65 -51.75 -20.65 -52.2 -20.6 -52.45 -20.55 -52.55 -20.5 -52.65 -20.5 -52.65 -20.4 -52.75 -20.3 -52.75 -20.25 -52.8 -20.2 -52.9 -20.15 -52.95 -20.1 -53.0 -20.1 -53.05 -20.05 -53.15 -20.0 -53.25 -20.0 -53.3 -19.95 -53.4 -19.9 -53.5 -19.9 -53.5 -19.95 -53.4 -20.0 -53.35 -20.05 -53.3 -20.05 -53.2 -20.1 -53.2 -20.15 -53.1 -20.25 -53.05 -20.25 -52.95 -20.35 -52.95 -20.4 -52.9 -20.45 M-46.35 -21.0 L-46.2 -20.95 -46.0 -20.85 -45.95 -20.8 -46.0 -20.7 -46.0 -20.05 -46.05 -20.0 -45.6 -20.0 -45.5 -19.95 -45.5 -19.9 -45.55 -19.9 -45.4 -19.8 -45.3 -19.7 -45.3 -19.65 -45.25 -19.6 -45.2 -19.6 -45.1 -19.5 -45.1 -19.45 -45.05 -19.4 -45.05 -19.3 -45.0 -19.25 -44.95 -19.25 -44.65 -19.2 -44.45 -19.2 -44.35 -19.15 -44.35 -19.1 -44.45 -19.1 Q-44.7 -19.15 -45.05 -19.15 L-45.1 -19.2 -45.15 -19.2 -45.15 -19.3 -45.2 -19.35 -45.2 -19.4 -45.4 -19.5 -45.4 -19.55 -45.6 -19.75 -45.7 -19.8 -46.0 -19.8 -46.05 -19.75 -46.25 -19.65 -46.25 -19.6 -46.3 -19.55 -46.3 -19.35 -46.4 -19.3 -46.4 -19.15 -46.65 -18.9 -47.1 -18.9 -47.2 -18.95 -47.25 -19.0 -47.4 -19.0 -47.45 -18.95 -47.55 -18.95 -47.65 -19.0 -47.85 -19.0 -47.9 -19.05 -48.0 -19.1 -48.25 -19.1 -48.35 -19.15 -48.4 -19.2 -48.4 -19.35 -48.3 -19.45 -48.2 -19.45 -48.1 -19.5 -47.95 -19.45 -47.85 -19.4 -47.8 -19.35 -47.8 -19.3 -47.75 -19.3 -47.7 -19.25 -47.5 -19.25 -47.4 -19.2 -47.15 -19.2 -47.05 -19.15 -46.9 -19.1 -46.85 -19.1 -46.55 -19.25 -46.55 -19.4 -46.45 -19.5 -46.45 -19.55 -46.5 -19.6 -46.5 -19.75 -46.45 -19.8 -46.45 -19.85 -46.4 -19.9 -46.3 -19.95 -46.3 -20.05 -46.25 -20.1 -46.2 -20.1 -46.2 -20.35 -46.25 -20.55 -46.25 -20.75 -46.4 -20.75 -46.55 -20.7 -46.8 -20.7 -46.9 -20.8 -46.8 -20.85 -46.7 -20.85 -46.7 -20.9 -46.65 -20.95 -46.6 -20.95 -46.55 -21.0 -46.35 -21.0 M-50.1 -20.4 L-50.05 -20.35 -50.05 -20.2 -50.1 -20.15 -50.1 -20.1 -50.15 -20.05 -50.15 -19.9 -50.05 -19.8 -50.05 -19.75 -49.65 -19.55 -49.6 -19.55 -49.65 -19.5 -49.65 -19.45 -49.7 -19.4 -49.75 -19.4 -49.9 -19.35 -50.15 -19.4 -50.3 -19.4 -50.4 -19.45 -50.55 -19.6 -50.55 -19.65 -50.6 -19.7 -50.6 -19.75 -50.25 -20.1 -50.25 -20.15 -50.2 -20.2 -50.2 -20.25 -50.15 -20.35 -50.1 -20.4 M-49.2 -19.55 L-48.65 -19.5 -49.2 -19.55 M-11.0 -30.7 L-10.9 -30.65 -10.8 -30.65 -10.65 -30.55 -10.55 -30.55 -10.45 -30.5 -10.4 -30.45 -10.4 -30.35 -10.3 -30.25 -10.3 -30.05 -10.5 -30.05 -10.55 -30.1 -10.6 -30.1 -10.6 -30.15 -10.75 -30.3 -10.75 -30.35 -10.85 -30.4 -11.0 -30.45 -11.05 -30.45 -11.25 -30.5 -11.4 -30.5 -11.55 -30.45 -11.55 -30.4 -12.0 -30.4 -12.2 -30.35 -12.5 -30.25 -12.55 -30.2 -12.75 -30.15 -12.85 -30.15 -13.0 -30.1 -13.1 -30.05 -14.3 -30.1 -14.4 -30.15 -14.5 -30.25 -14.55 -30.25 -14.55 -30.35 -14.65 -30.45 -14.65 -30.65 -14.7 -30.65 -14.8 -30.7 -14.95 -30.75 -15.25 -30.75 -15.35 -30.7 -15.65 -30.65 -16.35 -30.7 -16.55 -30.7 -16.55 -30.75 -16.5 -30.8 -15.75 -30.9 -15.4 -30.95 -15.25 -31.0 -15.2 -31.0 -15.1 -31.05 -14.9 -31.05 -14.8 -31.0 -14.75 -30.95 -14.65 -30.95 -14.45 -30.85 -14.35 -30.85 -14.3 -30.8 -14.3 -30.75 -14.25 -30.7 -14.25 -30.55 -14.3 -30.55 -14.2 -30.45 -14.2 -30.4 -13.75 -30.35 -13.6 -30.3 -13.2 -30.3 -13.1 -30.35 -12.9 -30.35 -12.75 -30.4 -12.6 -30.4 -12.1 -30.65 -11.75 -30.65 -11.65 -30.7 -11.0 -30.7 M-14.5 -32.35 L-14.4 -32.35 -14.35 -32.3 -14.25 -32.3 -14.2 -32.25 -14.2 -32.15 -13.9 -32.15 -13.8 -32.1 -13.4 -32.05 -13.3 -32.05 -13.15 -32.0 -13.05 -31.95 -12.95 -31.85 -13.2 -31.85 Q-13.6 -31.8 -14.0 -31.9 L-14.4 -31.95 -14.5 -32.05 -14.55 -32.05 -14.65 -32.15 -14.8 -32.15 -15.25 -32.1 -15.4 -31.95 -15.4 -31.55 -15.5 -31.45 -15.5 -31.4 -15.55 -31.35 -15.55 -31.3 -15.75 -31.2 -15.75 -31.1 -15.9 -31.05 -16.0 -31.05 -16.1 -30.95 -16.35 -30.9 -16.4 -30.85 -16.95 -30.85 -16.95 -30.8 -16.9 -30.75 -16.9 -30.7 -17.05 -30.7 -17.2 -30.75 -17.3 -30.8 -17.55 -30.8 -17.75 -30.7 -17.7 -30.65 -17.65 -30.65 -17.65 -30.55 -17.55 -30.45 -17.55 -30.25 -17.6 -30.2 -17.6 -30.15 -17.65 -30.1 -17.8 -30.1 -17.95 -30.05 -18.05 -30.0 -18.15 -29.9 -18.15 -29.6 -18.2 -29.55 Q-18.25 -29.45 -18.35 -29.4 L-18.6 -29.3 -18.7 -29.2 -18.75 -29.2 -18.85 -29.15 -18.95 -29.15 -19.0 -29.1 -19.2 -29.05 -19.3 -29.1 -19.35 -29.15 -19.5 -29.1 -20.0 -29.05 -20.45 -29.05 -20.5 -29.1 -20.65 -29.1 -20.65 -29.15 -21.1 -29.15 -21.1 -29.1 -21.15 -29.05 -21.2 -28.95 -21.2 -28.85 -21.15 -28.8 Q-21.1 -28.75 -21.1 -28.7 L-21.1 -28.05 -21.15 -28.0 -21.15 -27.95 -21.2 -27.9 -21.35 -27.9 -21.4 -27.85 -21.4 -27.7 -21.45 -27.65 -21.55 -27.6 -21.65 -27.5 -21.65 -27.45 -21.7 -27.4 -21.7 -27.35 -21.75 -27.3 -21.85 -27.3 -21.85 -27.35 -21.8 -27.4 -21.8 -27.5 -21.85 -27.5 -21.75 -27.6 -21.75 -27.75 -21.7 -27.8 -21.7 -28.0 -21.6 -28.1 -21.45 -28.15 -21.45 -28.65 -21.5 -28.7 -21.55 -28.8 -21.55 -28.85 -21.6 -28.95 -21.6 -29.05 -21.4 -29.2 -21.3 -29.25 -21.15 -29.3 -20.5 -29.3 -20.35 -29.25 -20.0 -29.25 -19.6 -29.3 -19.45 -29.35 -19.1 -29.35 -19.0 -29.4 -18.95 -29.45 -18.75 -29.55 -18.7 -29.6 -18.6 -29.65 -18.6 -29.95 -18.55 -30.0 -18.5 -30.1 -18.35 -30.2 -18.3 -30.25 -18.15 -30.25 -18.1 -30.3 -18.0 -30.3 -17.95 -30.35 -18.0 -30.4 -18.0 -30.45 -18.1 -30.55 -18.1 -30.85 -18.05 -30.9 -18.0 -30.9 -17.8 -31.0 -17.75 -31.0 -17.75 -31.05 -17.3 -31.05 -17.15 -31.0 -17.1 -31.0 -17.1 -30.95 -17.0 -30.95 -16.95 -30.9 -16.6 -30.95 -16.4 -31.05 -16.15 -31.05 -16.0 -31.2 -15.9 -31.25 -15.85 -31.3 -15.85 -31.35 -15.8 -31.4 -15.8 -31.45 -15.75 -31.45 -15.75 -31.5 -15.7 -31.55 -15.7 -32.1 -15.65 -32.15 -15.6 -32.15 -15.6 -32.2 -15.55 -32.25 -15.45 -32.3 -15.2 -32.3 -14.95 -32.35 -14.5 -32.35 M-22.4 -26.9 L-22.65 -26.85 -22.75 -26.8 -22.8 -26.75 -23.1 -26.75 -23.1 -26.8 -23.15 -26.85 -23.1 -26.9 -23.05 -26.85 -23.0 -26.85 -22.85 -26.9 -22.45 -26.95 -22.4 -27.0 -22.35 -27.0 -22.25 -26.95 -22.4 -26.9 M-22.0 -23.3 Q-21.75 -23.25 -21.6 -23.15 L-21.4 -23.0 -21.4 -22.9 -21.5 -22.8 -21.65 -22.7 -21.8 -22.65 -21.8 -22.6 -21.85 -22.55 -21.8 -22.5 -21.8 -22.1 -21.6 -22.05 -21.45 -22.05 -20.9 -22.1 -20.6 -22.1 -20.55 -22.05 -20.35 -22.05 -20.3 -22.1 -20.0 -22.1 -19.85 -22.15 -19.85 -22.2 -19.75 -22.25 -19.7 -22.3 -19.6 -22.35 -19.55 -22.35 -19.35 -22.45 -19.3 -22.45 -19.25 -22.5 -19.25 -22.55 -19.2 -22.6 -19.1 -22.6 -19.1 -22.65 -18.85 -22.6 -18.8 -22.6 -18.6 -22.55 -18.45 -22.5 -18.35 -22.45 -18.25 -22.45 -18.05 -22.25 -18.05 -21.75 -17.95 -21.65 -17.85 -21.6 -17.75 -21.5 -17.7 -21.5 -17.55 -21.65 -17.25 -21.65 -17.05 -21.55 -17.05 -21.5 -16.9 -21.35 -16.9 -21.25 -16.8 -21.25 -16.75 -21.2 -16.75 -20.95 Q-16.75 -20.85 -16.8 -20.8 L-16.75 -20.75 -16.75 -20.7 -16.7 -20.65 -16.7 -20.6 -16.75 -20.55 -16.75 -20.5 -16.85 -20.4 -16.85 -20.25 -16.9 -20.2 -16.95 -20.25 -16.95 -20.55 -17.05 -20.65 -17.05 -20.85 -17.1 -20.95 -17.1 -21.0 -17.25 -21.05 -17.25 -21.1 -17.3 -21.15 -17.25 -21.2 -17.25 -21.25 -17.2 -21.25 -17.25 -21.3 -17.25 -21.35 -17.3 -21.4 -17.4 -21.45 -17.5 -21.35 -17.5 -21.3 -17.55 -21.3 -17.55 -21.25 -17.9 -21.25 -18.05 -21.4 -18.1 -21.4 -18.25 -21.5 -18.35 -21.55 -18.35 -22.15 -18.45 -22.25 -18.45 -22.3 -18.5 -22.3 -18.65 -22.35 -19.15 -22.35 -19.3 -22.3 -19.5 -22.1 -19.6 -22.1 -19.6 -21.95 -19.65 -21.95 -19.65 -21.9 -20.1 -21.9 -20.25 -21.95 -20.3 -21.9 -20.8 -21.9 -20.85 -21.85 -21.35 -21.85 -21.45 -21.8 -21.7 -21.85 -21.8 -21.85 -22.0 -21.9 -22.05 -21.95 -22.05 -22.3 -22.0 -22.3 -22.05 -22.35 -22.05 -22.4 -22.1 -22.45 -22.1 -22.5 -22.15 -22.55 -22.15 -22.65 -22.1 -22.65 -22.05 -22.7 -22.05 -22.75 -21.95 -22.8 -21.85 -22.9 -21.75 -22.95 -21.85 -23.05 -21.9 -23.05 -22.35 -23.2 -22.4 -23.15 -22.8 -23.1 -23.25 -23.1 -23.35 -23.15 -23.4 -23.2 -23.4 -23.3 -23.45 -23.35 -23.5 -23.35 -23.6 -23.4 -23.6 -23.5 -23.7 -23.55 -23.7 -23.65 -23.75 -23.7 -23.75 -23.75 -23.8 -23.8 -23.75 -23.85 -23.7 -23.85 -23.6 -23.8 -23.45 -23.65 -23.3 -23.55 Q-23.2 -23.5 -23.15 -23.4 L-23.15 -23.35 -23.1 -23.3 -22.55 -23.35 -22.45 -23.4 -22.15 -23.35 -22.05 -23.35 -22.0 -23.3 M-17.55 -20.05 Q-17.3 -20.1 -17.1 -20.15 L-17.0 -20.15 -16.95 -20.1 -17.0 -20.1 -17.0 -20.0 -17.1 -19.9 -17.35 -19.85 -17.4 -19.8 -17.4 -19.35 -17.45 -19.3 -17.45 -19.25 -17.55 -19.15 -17.55 -19.0 -17.75 -18.85 -17.9 -18.65 -17.95 -18.6 -18.35 -18.55 -18.55 -18.6 -18.65 -18.55 -18.7 -18.5 -18.8 -18.45 -18.85 -18.4 -18.9 -18.4 -19.1 -18.2 -19.1 -18.0 -19.15 -17.95 -19.15 -17.7 -19.2 -17.7 -19.25 -17.65 -19.25 -17.55 -19.3 -17.5 -19.3 -17.35 -19.35 -17.35 -19.35 -17.3 -19.4 -17.25 -19.4 -17.2 -19.5 -17.1 -19.55 -17.1 -19.65 -17.05 -20.2 -17.05 -20.4 -16.95 -20.4 -16.9 -20.3 -16.8 -20.05 -16.8 -20.0 -16.75 -20.0 -16.55 -20.05 -16.5 -20.05 -16.45 -20.0 -16.45 -19.95 -16.4 -19.95 -16.35 -19.9 -16.3 -19.9 -16.15 -19.85 -16.15 -19.8 -16.2 -19.65 -16.2 -19.55 -16.25 -19.25 -16.25 -19.1 -16.1 -19.1 -16.05 -19.05 -16.0 -19.05 -15.95 -19.0 -15.95 -18.85 -15.8 -18.65 -15.7 -18.6 -15.65 -18.35 -15.6 -18.15 -15.5 -17.95 -15.5 -17.8 -15.55 -17.75 -15.6 -17.75 -15.7 -17.7 -15.75 -17.65 -15.85 -17.65 -16.2 -17.6 -16.2 -17.55 -16.25 Q-17.3 -16.3 -17.05 -16.35 L-16.9 -16.4 -16.65 -16.45 -16.55 -16.45 -16.65 -16.35 -16.85 -16.25 -17.15 -16.15 -17.2 -16.1 -17.35 -16.1 -17.45 -16.05 -17.45 -15.65 -17.55 -15.55 -17.55 -15.5 -17.65 -15.45 -17.7 -15.4 -17.8 -15.4 -18.0 -15.3 -18.2 -15.3 -18.4 -15.4 -18.45 -15.45 -18.7 -15.5 -18.8 -15.55 -18.85 -15.55 -19.0 -15.6 -19.1 -15.7 -19.2 -15.75 -19.25 -15.75 -19.25 -15.85 -19.35 -15.95 -19.35 -16.1 -19.6 -16.1 Q-19.65 -16.05 -19.7 -16.05 L-19.8 -16.0 -19.85 -15.95 -19.95 -15.95 -20.0 -15.9 Q-20.1 -15.8 -20.05 -15.75 L-20.05 -15.7 -20.15 -15.7 -20.15 -15.85 -20.3 -15.8 -20.3 -15.75 -20.35 -15.75 -20.4 -15.7 -20.55 -15.7 -20.7 -15.65 -20.75 -15.6 Q-20.8 -15.55 -20.85 -15.55 L-20.85 -15.4 -20.9 -15.4 -20.9 -15.3 -20.75 -15.3 -20.7 -15.35 -20.6 -15.4 -20.2 -15.45 -19.9 -15.45 -19.8 -15.5 -19.7 -15.5 -19.55 -15.55 -19.35 -15.55 -19.3 -15.5 Q-19.05 -15.45 -18.9 -15.4 L-18.75 -15.35 -18.75 -15.3 -18.65 -15.2 -18.65 -15.0 -18.6 -14.95 -18.6 -14.85 -18.55 -14.65 -18.55 -14.45 -18.6 -14.25 -18.6 -14.15 -18.7 -14.05 -18.8 -14.05 -18.85 -14.1 -18.9 -14.4 -18.9 -14.65 -19.0 -14.6 -19.05 -14.65 -19.05 -14.75 -19.0 -14.8 -18.9 -14.8 -18.9 -14.9 -18.85 -14.95 -18.85 -15.15 -18.95 -15.25 Q-19.15 -15.35 -19.4 -15.4 L-19.6 -15.4 -19.65 -15.35 -19.65 -15.3 -19.75 -15.3 -20.0 -15.25 -20.05 -15.25 -20.55 -15.15 -20.6 -15.15 -20.65 -15.1 -20.85 -15.1 -20.9 -15.05 -21.1 -15.05 -21.15 -15.1 -21.25 -15.15 -21.25 -15.4 -21.2 -15.4 -21.15 -15.45 -21.15 -15.7 -21.1 -15.7 -21.0 -15.75 -20.9 -15.85 -20.55 -15.95 -20.3 -15.95 -20.15 -16.0 -20.1 -16.05 -20.1 -16.35 -20.15 -16.35 -20.15 -16.5 -20.25 -16.6 -20.45 -16.65 -20.5 -16.65 -20.65 -16.7 -20.7 -16.75 -20.7 -16.95 -20.6 -17.05 -20.6 -17.15 -20.55 -17.15 -20.45 -17.2 -20.4 -17.25 -20.3 -17.3 -19.8 -17.35 -19.75 -17.35 -19.75 -17.45 -19.65 -17.5 -19.65 -17.55 -19.6 -17.6 -19.6 -17.65 -19.55 -17.7 -19.5 -17.7 -19.4 -17.8 -19.4 -18.0 -19.3 -18.1 -19.3 -18.25 -19.25 -18.35 -19.05 -18.45 -19.05 -18.6 -19.0 -18.65 -19.0 -18.7 -18.95 -18.75 -18.9 -18.75 -18.9 -18.8 -18.85 -18.85 -18.55 -18.85 -18.5 -18.8 -18.45 -18.8 -18.35 -18.75 -18.0 -18.75 -17.9 -18.85 -17.9 -18.9 -17.8 -18.95 -17.8 -19.0 -17.75 -19.05 -17.75 -19.25 -17.7 -19.3 -17.7 -19.95 -17.65 -20.0 -17.55 -20.05 M-15.8 -19.65 L-15.75 -19.6 -15.75 -19.55 -15.65 -19.45 -15.65 -19.25 -15.7 -19.2 -15.7 -19.15 -15.8 -19.1 -15.9 -19.0 -16.0 -18.95 -16.05 -18.9 -16.15 -18.85 -16.15 -18.8 -16.2 -18.75 -16.25 -18.75 -16.25 -18.6 -16.2 -18.55 -16.05 -18.5 -16.05 -18.45 -16.0 -18.45 -15.9 -18.4 -15.85 -18.4 -15.85 -18.25 -15.8 -18.2 -15.8 -18.15 -15.95 -18.15 -15.95 -17.95 -16.0 -17.85 -16.1 -17.8 -16.15 -17.7 -16.2 -17.65 -16.2 -17.6 -16.25 -17.55 -16.3 -17.55 -16.35 -17.6 -16.35 -17.65 -16.4 -17.7 -16.4 -17.75 -16.35 -17.8 -16.3 -17.8 -16.3 -17.9 -16.25 -17.95 -16.25 -18.15 -16.15 -18.25 -16.35 -18.25 -16.45 -18.3 -16.55 -18.3 -16.55 -18.45 -16.65 -18.5 -16.65 -18.55 -16.5 -18.7 -16.5 -18.85 -16.45 -18.85 -16.35 -18.9 -16.25 -19.0 -16.25 -19.05 -16.0 -19.3 -16.0 -19.4 -16.1 -19.5 -16.2 -19.5 -16.4 -19.4 -16.45 -19.4 -16.5 -19.35 -16.8 -19.4 -16.85 -19.4 -17.0 -19.45 -17.05 -19.5 -17.15 -19.55 -17.2 -19.55 -17.25 -19.6 -17.25 -19.65 -17.3 -19.7 -17.3 -19.75 -17.35 -19.8 -17.3 -19.8 -17.2 -19.85 -17.15 -19.85 -17.05 -19.8 -17.0 -19.75 -17.0 -19.7 -16.9 -19.65 -16.85 -19.65 -16.8 -19.6 -16.7 -19.55 -16.55 -19.55 -16.5 -19.6 -16.5 -19.65 -16.45 -19.65 -16.45 -19.7 -16.3 -19.7 -16.3 -19.75 -16.0 -19.75 -15.9 -19.65 -15.8 -19.65 M-4.8 -27.2 L-4.75 -27.2 -4.8 -27.15 -4.8 -27.2 M-43.4 -19.1 L-43.4 -19.15 -42.8 -19.15 -42.7 -19.1 -42.2 -19.1 -42.1 -19.05 -41.95 -19.0 -41.9 -18.95 -41.8 -18.95 -41.8 -18.8 -41.85 -18.75 -41.85 -18.65 -41.9 -18.6 -41.85 -18.6 -41.8 -18.55 -41.8 -18.6 -41.75 -18.6 -41.65 -18.7 -41.55 -18.75 -41.45 -18.75 -41.45 -18.8 -41.2 -18.8 -41.05 -18.75 -40.85 -18.65 -40.8 -18.6 -40.7 -18.55 -40.6 -18.45 -40.5 -18.4 -40.3 -18.35 -40.05 -18.35 -39.9 -18.3 -39.8 -18.25 -39.8 -18.2 -39.75 -18.15 -39.75 -17.95 -39.8 -17.9 -39.7 -17.85 -39.65 -17.8 -39.4 -17.8 -39.4 -17.9 -39.35 -18.0 -39.3 -18.05 Q-39.2 -18.05 -39.15 -18.1 L-39.15 -18.15 -39.1 -18.25 -39.05 -18.3 -38.95 -18.35 -38.9 -18.4 -38.7 -18.45 -38.6 -18.55 -38.3 -18.6 -38.05 -18.65 -37.85 -18.7 -37.55 -18.7 -37.65 -18.65 -37.95 -18.45 -38.1 -18.4 -38.15 -18.4 -38.35 -18.35 -38.35 -18.3 -38.4 -18.3 -38.55 -18.25 -38.65 -18.2 -38.8 -18.15 -38.9 -18.1 -38.85 -18.0 -38.8 -17.95 -38.8 -17.85 -38.9 -17.75 -39.0 -17.7 -39.25 -17.7 -39.35 -17.75 -39.95 -17.8 -40.0 -17.85 -40.0 -17.95 -39.95 -18.0 -39.95 -18.05 -40.05 -18.15 -40.15 -18.2 -40.2 -18.2 -40.35 -18.25 -40.6 -18.3 -40.65 -18.3 -40.65 -18.35 -40.7 -18.4 -40.8 -18.45 -40.9 -18.55 -40.95 -18.55 -41.1 -18.6 -41.4 -18.6 -41.55 -18.55 -41.6 -18.5 -41.6 -18.45 -41.9 -18.45 -42.0 -18.5 -42.2 -18.45 -42.3 -18.45 -42.95 -18.4 -43.45 -18.4 -43.65 -18.35 -43.65 -18.3 -43.7 -18.2 -43.7 -17.85 -43.8 -17.75 -43.8 -17.7 -43.85 -17.7 -43.9 -17.65 -44.0 -17.65 -44.05 -17.7 -44.05 -17.85 -44.0 -17.9 -44.0 -17.95 -43.95 -18.05 -43.95 -18.1 -44.0 -18.15 -44.0 -18.25 -43.95 -18.3 -43.9 -18.3 -43.85 -18.35 -43.85 -18.45 -43.8 -18.45 -43.75 -18.5 -43.35 -18.5 -43.3 -18.45 -43.0 -18.45 -42.9 -18.5 -42.25 -18.5 -42.2 -18.55 -42.05 -18.6 -42.0 -18.6 -42.0 -18.75 -42.3 -18.85 -42.35 -18.85 -42.9 -18.9 -43.0 -18.95 -43.1 -19.05 -43.4 -19.1 M-44.05 -19.2 L-44.1 -19.15 Q-44.15 -19.15 -44.2 -19.1 L-44.35 -19.1 -44.15 -19.2 -44.1 -19.25 -44.05 -19.2 M-37.1 -20.6 L-37.15 -20.7 -37.05 -20.8 -36.8 -20.8 -36.7 -20.75 -36.6 -20.65 -36.6 -20.55 -36.65 -20.5 -36.65 -20.35 -36.75 -20.25 -36.9 -20.25 -37.0 -20.35 -37.0 -20.4 -37.05 -20.45 -37.1 -20.6 M-37.65 -18.8 L-37.6 -18.85 -37.6 -19.25 -37.55 -19.3 -37.55 -19.4 -37.6 -19.45 -37.6 -19.5 -37.55 -19.55 -37.4 -19.4 -37.4 -19.25 -37.35 -19.2 -37.35 -18.85 -37.4 -18.85 -37.5 -18.75 -37.65 -18.75 -37.65 -18.8 M-28.35 -15.05 L-28.25 -15.0 -28.25 -14.9 -28.15 -14.85 -28.1 -14.8 -28.1 -14.75 -27.95 -14.65 -27.85 -14.55 -27.9 -14.5 -27.9 -14.35 -27.85 -14.3 -27.85 -13.85 -27.9 -13.8 -27.95 -13.8 -27.95 -13.75 -27.9 -13.7 -28.15 -13.5 Q-28.3 -13.4 -28.45 -13.35 L-28.55 -13.3 -28.6 -13.25 Q-28.7 -13.15 -28.95 -13.15 L-29.4 -13.2 -29.45 -13.2 -29.65 -13.25 -29.75 -13.3 -29.8 -13.35 -29.9 -13.4 -30.05 -13.45 -30.1 -13.45 -30.2 -13.5 -30.35 -13.55 -30.65 -13.55 -30.7 -13.5 Q-30.8 -13.45 -30.85 -13.45 L-30.85 -13.4 -31.1 -13.4 -31.2 -13.35 -31.25 -13.3 Q-31.45 -13.25 -31.85 -13.25 L-31.9 -13.25 -32.0 -13.2 -32.1 -13.1 -32.25 -13.1 -32.35 -13.0 -32.35 -12.95 -32.4 -12.9 -32.35 -12.85 -32.0 -12.85 -31.95 -12.8 -31.95 -12.75 -31.8 -12.6 -31.75 -12.5 -31.75 -12.15 -31.7 -12.1 Q-31.65 -12.05 -31.65 -11.95 L-31.65 -11.8 -31.6 -11.85 -31.6 -11.9 -31.55 -11.95 -31.45 -12.0 -31.35 -12.1 -31.25 -12.15 -31.05 -12.15 -31.05 -12.2 -31.0 -12.25 -30.9 -12.3 -30.85 -12.3 -30.8 -12.35 -30.5 -12.35 -30.45 -12.3 -30.35 -12.25 -30.25 -12.15 -30.1 -12.15 -30.0 -12.1 -29.8 -12.05 -29.7 -12.05 -29.2 -12.0 -28.9 -11.95 -28.85 -11.9 -29.1 -11.9 -29.2 -11.85 -29.9 -11.85 -29.95 -11.9 -30.15 -11.95 -30.45 -12.1 -30.6 -12.15 -30.7 -12.15 -30.8 -12.1 -30.85 -12.1 -30.9 -12.05 -31.0 -12.0 Q-31.1 -11.95 -31.15 -11.95 L-31.25 -11.9 -31.35 -11.8 -31.35 -11.75 -31.45 -11.7 -31.55 -11.6 -31.65 -11.6 -31.9 -11.35 -31.9 -11.3 -31.95 -11.25 -31.95 -11.2 -32.05 -11.15 -32.55 -11.15 -32.65 -11.25 -33.1 -11.25 -33.15 -11.3 -33.05 -11.4 -32.9 -11.45 -32.85 -11.5 -32.45 -11.5 -32.35 -11.45 -32.3 -11.4 -32.2 -11.45 Q-32.15 -11.45 -32.15 -11.5 L-32.1 -11.5 -32.1 -11.6 -32.0 -11.7 -32.0 -11.95 -32.05 -12.0 -32.1 -12.15 -32.1 -12.45 -32.15 -12.5 -32.15 -12.55 -32.75 -12.65 -32.85 -12.7 -32.85 -12.95 -32.7 -13.1 -32.5 -13.2 -32.25 -13.3 -32.05 -13.3 -32.0 -13.35 -31.9 -13.4 -31.35 -13.4 -31.35 -13.45 -31.15 -13.45 -31.0 -13.55 -30.85 -13.6 -30.8 -13.65 -30.7 -13.65 -30.3 -13.7 -30.1 -13.75 -29.9 -13.7 -29.6 -13.6 -29.5 -13.5 -29.4 -13.45 -29.25 -13.4 -29.2 -13.4 -28.95 -13.35 -28.75 -13.35 -28.6 -13.4 -28.55 -13.45 -28.55 -13.5 -28.5 -13.55 -28.35 -13.6 -28.3 -13.65 -28.2 -13.7 Q-28.15 -13.75 -28.1 -13.75 L-28.05 -13.8 -28.05 -13.85 -28.0 -13.95 -28.0 -14.15 -28.1 -14.25 -28.1 -14.4 -28.2 -14.5 -28.3 -14.55 -28.35 -14.65 -28.45 -14.7 -28.55 -14.8 -28.55 -15.0 -28.5 -15.05 -28.35 -15.05 M-33.7 -16.4 L-34.0 -16.4 -34.2 -16.3 -34.35 -16.3 -34.4 -16.25 -34.5 -16.2 -34.55 -16.15 -34.7 -16.15 -34.7 -16.1 -34.75 -16.05 -34.75 -16.0 -34.85 -15.9 -34.75 -15.8 -34.75 -15.75 -34.7 -15.75 -34.55 -15.6 -34.55 -15.5 -34.45 -15.4 -34.45 -15.35 -34.35 -15.25 -34.35 -15.15 -34.25 -15.05 -34.15 -15.05 -34.1 -15.0 -34.1 -14.75 -34.15 -14.75 -34.3 -14.7 -34.4 -14.6 -34.4 -14.55 -34.45 -14.5 -35.35 -14.5 -35.5 -14.35 -35.5 -14.15 -35.4 -14.1 -35.3 -14.0 -35.3 -13.95 -35.25 -13.9 -35.25 -13.5 -35.35 -13.4 -35.45 -13.35 -35.5 -13.3 -35.6 -13.25 -35.65 -13.2 -35.75 -13.2 -35.85 -13.15 -35.85 -13.1 -36.1 -13.1 -36.15 -13.05 -36.35 -12.95 -36.4 -12.9 -36.5 -12.9 -36.5 -12.95 -36.25 -13.2 -36.15 -13.2 -35.85 -13.3 -35.75 -13.35 -35.65 -13.45 -35.6 -13.55 -35.55 -13.55 -35.5 -13.6 -35.5 -13.75 -35.6 -13.85 -35.6 -13.9 -35.75 -13.95 -35.8 -14.0 -35.8 -14.35 -35.75 -14.4 -35.75 -14.45 -35.7 -14.5 -35.7 -14.6 -35.65 -14.6 -35.55 -14.7 -34.85 -14.7 -34.8 -14.65 -34.65 -14.7 -34.55 -14.8 -34.45 -14.85 -34.3 -14.9 -34.3 -14.95 -34.4 -15.05 -34.45 -15.05 -34.55 -15.15 -34.55 -15.25 -34.6 -15.25 -34.65 -15.3 -34.65 -15.35 -34.75 -15.45 -34.75 -15.55 -34.85 -15.6 -34.9 -15.65 -34.9 -15.8 -34.95 -15.85 -34.95 -15.95 -34.85 -16.0 -34.85 -16.1 -34.8 -16.15 -34.8 -16.2 -34.75 -16.2 -34.6 -16.25 -34.55 -16.3 -34.45 -16.35 -34.4 -16.4 -34.25 -16.45 -34.2 -16.45 -34.1 -16.5 Q-34.05 -16.5 -34.0 -16.55 L-33.45 -16.55 -32.7 -16.5 -32.7 -16.45 -33.45 -16.45 -33.7 -16.4 M-34.55 -13.05 L-34.4 -12.95 -34.1 -12.65 -34.1 -12.6 -34.2 -12.6 -34.3 -12.55 -34.35 -12.6 -34.45 -12.6 -34.55 -12.65 -34.7 -12.75 -34.8 -12.8 -34.85 -12.85 -34.9 -12.85 -35.05 -12.9 -35.1 -12.9 -35.25 -12.85 -35.35 -12.75 -35.55 -12.75 -35.65 -12.7 -35.8 -12.7 -35.85 -12.65 -36.15 -12.65 -36.35 -12.7 -36.7 -12.7 -36.75 -12.75 -37.0 -12.75 -37.15 -12.7 -37.25 -12.6 -37.3 -12.6 -37.4 -12.55 -37.45 -12.55 -37.55 -12.5 -37.75 -12.5 -37.85 -12.55 -38.0 -12.6 -38.15 -12.6 -38.2 -12.65 -38.3 -12.7 -38.45 -12.85 -38.45 -13.05 -38.5 -13.1 -38.75 -13.15 -38.8 -13.2 -38.8 -13.25 -38.85 -13.3 -39.0 -13.35 -39.05 -13.4 -39.15 -13.45 -39.2 -13.45 -39.2 -13.5 -39.3 -13.6 -39.3 -13.65 -39.55 -13.7 -39.65 -13.75 -39.7 -13.75 -39.75 -13.7 -39.85 -13.75 -39.9 -13.8 -39.95 -13.8 -40.0 -13.85 -40.0 -13.9 -40.1 -13.95 -40.2 -14.05 -40.35 -14.1 -40.6 -14.15 -40.8 -14.15 -40.85 -14.2 Q-40.95 -14.25 -41.05 -14.25 L-41.3 -14.25 -41.45 -14.2 -41.5 -14.2 -41.85 -14.15 -41.9 -14.1 -41.95 -14.1 -41.95 -14.05 -42.1 -14.05 -42.2 -13.95 -42.45 -13.95 -42.5 -14.0 -42.6 -14.05 -42.9 -14.1 -43.0 -14.15 -43.15 -14.2 -43.25 -14.25 -43.3 -14.25 -43.3 -14.5 -43.35 -14.6 -43.35 -14.7 -43.25 -14.8 -43.0 -14.95 -42.8 -15.05 -42.8 -15.15 -42.85 -15.2 -42.9 -15.3 -42.95 -15.35 -42.95 -15.4 -43.0 -15.45 -43.05 -15.55 -43.05 -16.0 -43.0 -16.05 -42.9 -16.1 -42.9 -16.25 -42.8 -16.35 -42.8 -16.4 -42.7 -16.5 -42.95 -16.5 -43.0 -16.55 -43.15 -16.55 -43.35 -16.65 -43.3 -16.7 -43.15 -16.7 -43.1 -16.65 -42.9 -16.6 -42.85 -16.6 -42.65 -16.55 -42.6 -16.5 -42.6 -16.45 -42.65 -16.4 -42.65 -16.25 -42.75 -16.2 -42.75 -16.1 -42.7 -16.05 -42.8 -15.95 -42.8 -15.5 -42.65 -15.35 -42.65 -15.3 -42.5 -15.15 -42.5 -15.05 -42.45 -15.0 -42.45 -14.9 -42.6 -14.75 -42.65 -14.75 -42.65 -14.7 -42.8 -14.7 -42.8 -14.65 -42.9 -14.55 -42.9 -14.45 -42.75 -14.3 -42.75 -14.25 -42.4 -14.2 -42.35 -14.2 -42.15 -14.25 -41.85 -14.35 -41.55 -14.4 -41.1 -14.4 -40.8 -14.3 -40.75 -14.25 -40.4 -14.25 -40.05 -14.2 -39.8 -13.95 -39.7 -13.9 -39.55 -13.9 -39.45 -13.85 -39.25 -13.8 -39.15 -13.75 -39.1 -13.7 -39.0 -13.65 -38.95 -13.6 -38.8 -13.5 -38.6 -13.4 -38.55 -13.35 -38.5 -13.35 -38.35 -13.3 -38.15 -13.2 -38.1 -13.15 -38.1 -12.95 -38.05 -12.9 -38.0 -12.9 -37.9 -12.85 -37.65 -12.8 -37.55 -12.8 -37.45 -12.85 -37.35 -12.85 -37.3 -12.9 -37.1 -13.0 -36.75 -13.0 -36.6 -12.95 -36.6 -12.9 -36.5 -12.85 -36.5 -12.75 -36.45 -12.8 -36.35 -12.85 -36.1 -12.85 -36.0 -12.9 -35.9 -12.9 -35.8 -12.95 -35.75 -12.95 -35.6 -13.0 -35.5 -13.1 -35.35 -13.1 -35.3 -13.15 -34.8 -13.15 -34.75 -13.1 -34.6 -13.1 -34.55 -13.05 M-24.0 -12.8 L-23.5 -12.8 -23.2 -12.65 -22.9 -12.55 -22.6 -12.5 -22.55 -12.5 -21.85 -12.4 -21.55 -12.45 -20.9 -12.45 -20.7 -12.55 -20.35 -12.6 -20.25 -12.6 -20.25 -12.65 -20.15 -12.75 -19.9 -12.8 -19.75 -12.85 -19.65 -12.9 -19.1 -12.9 -19.0 -12.95 -18.9 -13.05 -18.9 -13.1 -18.6 -13.4 -18.55 -13.4 -18.45 -13.35 -18.45 -13.3 -18.5 -13.25 -18.5 -13.05 -18.6 -12.95 -18.65 -12.85 -18.75 -12.8 -18.9 -12.75 Q-18.95 -12.7 -19.1 -12.7 L-19.6 -12.7 -19.8 -12.65 -19.85 -12.6 -19.95 -12.55 -19.95 -12.5 -20.05 -12.45 -20.1 -12.4 -21.45 -12.3 -21.55 -12.3 -23.0 -12.4 -23.2 -12.5 -23.45 -12.5 -23.55 -12.55 -23.9 -12.55 -24.1 -12.35 -24.15 -12.35 Q-24.2 -12.3 -24.3 -12.3 L-25.15 -12.3 -25.15 -12.35 -25.1 -12.4 -25.15 -12.45 -25.25 -12.5 -25.35 -12.6 -25.55 -12.5 -26.3 -12.5 -26.4 -12.45 -26.45 -12.4 -26.65 -12.3 -26.7 -12.25 -26.7 -12.2 -26.8 -12.15 -26.95 -12.15 -26.65 -12.45 -26.35 -12.65 -26.3 -12.7 -26.2 -12.7 -26.0 -12.75 -25.7 -12.75 -25.7 -12.7 -25.55 -12.75 -25.25 -12.75 -25.15 -12.7 -25.1 -12.65 -25.0 -12.6 -24.95 -12.6 -24.9 -12.55 -24.9 -12.45 -24.4 -12.45 -24.25 -12.6 -24.25 -12.65 -24.15 -12.75 -24.1 -12.75 -24.0 -12.8 M-2.7 -17.3 L-2.65 -17.3 -2.65 -17.35 -2.5 -17.3 -2.4 -17.25 -2.35 -17.2 -2.3 -17.2 -2.3 -17.1 -2.25 -17.05 -2.25 -17.0 -2.15 -16.9 -1.85 -16.75 -1.6 -16.75 -1.55 -16.7 -1.5 -16.7 -1.45 -16.65 -1.5 -16.6 -1.7 -16.55 -1.7 -16.5 -1.85 -16.55 -1.9 -16.55 -1.9 -16.6 -2.05 -16.6 -2.2 -16.65 -2.3 -16.75 -2.45 -16.8 -2.5 -16.85 -2.5 -16.95 -2.6 -17.05 -2.6 -17.1 -2.65 -17.1 -2.75 -17.05 -3.2 -17.05 -3.2 -16.85 -3.25 -16.8 -3.3 -16.8 -3.3 -16.55 -3.2 -16.5 -3.2 -16.45 -3.15 -16.45 -3.1 -16.4 Q-3.1 -16.3 -3.1 -16.2 L-3.1 -16.0 -3.05 -15.8 -3.05 -15.7 -3.15 -15.6 -3.15 -15.45 -3.3 -15.3 -3.45 -15.25 -3.45 -15.2 -3.55 -15.1 -3.55 -15.05 -3.6 -15.05 -3.6 -15.0 -3.7 -14.9 -3.7 -14.85 -3.85 -14.75 Q-4.0 -14.65 -4.3 -14.65 L-4.4 -14.55 Q-4.5 -14.45 -4.65 -14.4 L-4.75 -14.35 -4.75 -14.3 -4.8 -14.25 -4.8 -14.1 -4.7 -14.0 -4.7 -13.95 -4.75 -13.9 -4.75 -13.85 -4.9 -13.85 -5.05 -14.0 -5.05 -14.4 -4.95 -14.45 -4.55 -14.75 -4.35 -14.8 -4.3 -14.8 -4.1 -14.85 -4.05 -14.9 -3.85 -15.0 -3.85 -15.05 -3.75 -15.15 -3.75 -15.2 -3.7 -15.2 -3.45 -15.45 -3.45 -15.5 -3.4 -15.55 -3.4 -15.65 -3.35 -15.65 -3.3 -15.7 -3.3 -16.05 -3.25 -16.25 -3.3 -16.3 -3.3 -16.35 -3.35 -16.4 -3.35 -16.45 -3.45 -16.55 -3.45 -16.8 -3.35 -16.85 -3.35 -17.0 -3.4 -17.1 -3.35 -17.25 -2.8 -17.25 -2.75 -17.3 -2.7 -17.3 M-3.35 -13.65 L-3.3 -13.65 -3.3 -13.7 -2.7 -13.65 -2.65 -13.65 -2.55 -13.6 -2.45 -13.6 -2.25 -13.55 -2.15 -13.55 -2.05 -13.5 -2.0 -13.45 -1.8 -13.35 -1.75 -13.3 -1.65 -13.25 -1.6 -13.2 -1.6 -13.0 -1.55 -12.95 -1.55 -12.8 -1.6 -12.7 -1.35 -12.7 -1.3 -12.75 -1.25 -12.75 -1.2 -12.8 -1.1 -12.8 -1.0 -12.75 -0.7 -12.75 -0.55 -12.7 -0.45 -12.7 -0.3 -12.65 -0.25 -12.6 -0.25 -12.5 -0.15 -12.5 -0.05 -12.45 -0.05 -12.25 -0.1 -12.2 -0.1 -12.1 -0.15 -12.0 -0.25 -12.0 -0.25 -12.1 -0.3 -12.15 -0.3 -12.3 -0.35 -12.35 -0.45 -12.4 -0.5 -12.45 -0.5 -12.5 -0.65 -12.5 -0.75 -12.6 -0.9 -12.6 -0.95 -12.55 -1.1 -12.6 -1.1 -12.55 -1.25 -12.5 -1.75 -12.5 -1.85 -12.6 -1.9 -12.6 -1.9 -13.1 -2.0 -13.15 -2.05 -13.2 -2.05 -13.3 -2.25 -13.4 -2.3 -13.45 -2.6 -13.45 -2.65 -13.5 -2.8 -13.55 -3.2 -13.55 -3.3 -13.45 -3.3 -13.4 -3.55 -13.35 -3.65 -13.35 -3.75 -13.3 -3.8 -13.25 -4.25 -13.25 -4.45 -13.35 -4.5 -13.4 -4.5 -13.45 -3.9 -13.45 -3.8 -13.5 -3.65 -13.5 -3.55 -13.55 -3.45 -13.55 -3.35 -13.65 M-6.8 -12.5 L-6.7 -12.45 -6.55 -12.4 -6.35 -12.4 -6.3 -12.45 -6.2 -12.5 -6.1 -12.5 -5.95 -12.45 -5.85 -12.4 -5.8 -12.4 -5.8 -12.2 -5.85 -12.15 -5.95 -12.1 -6.25 -12.1 -6.3 -12.15 -6.4 -12.2 -6.4 -12.3 -6.6 -12.35 -6.7 -12.35 -6.8 -12.4 -6.9 -12.4 -7.0 -12.35 -7.05 -12.3 -7.15 -12.3 -7.2 -12.25 -6.9 -11.95 -6.9 -11.9 -6.85 -11.85 -6.85 -11.8 -6.9 -11.75 -6.95 -11.75 -7.05 -11.85 -7.2 -11.9 -7.25 -11.9 -7.35 -12.0 -7.35 -12.05 -7.4 -12.1 -7.4 -12.15 -7.35 -12.2 -7.35 -12.3 -7.25 -12.35 -7.15 -12.45 -7.0 -12.5 -6.8 -12.5 M-5.8 -12.95 L-5.75 -13.0 -5.5 -12.95 -5.1 -12.95 -5.0 -13.0 -4.85 -12.95 -4.75 -12.95 -4.55 -12.85 -4.45 -12.75 -4.3 -12.65 -4.2 -12.55 -4.2 -12.5 -4.1 -12.4 -4.1 -12.1 -4.2 -12.05 -4.3 -11.95 -4.5 -11.9 -4.55 -11.9 -4.6 -11.85 -4.6 -11.8 -4.65 -11.75 -4.65 -11.7 -4.75 -11.6 -4.75 -11.0 -4.7 -10.95 -4.7 -10.9 -4.5 -10.8 -4.4 -10.7 -4.35 -10.7 -4.1 -10.65 -4.4 -10.65 -4.5 -10.7 -4.55 -10.7 -4.55 -10.75 -4.7 -10.75 -4.7 -10.8 -4.8 -10.9 -4.8 -10.95 -4.9 -11.05 -4.9 -11.7 -4.8 -11.8 -4.8 -11.85 -4.7 -11.9 -4.65 -11.9 -4.6 -11.95 -4.6 -12.0 -4.5 -12.1 -4.45 -12.1 -4.35 -12.15 -4.3 -12.2 -4.3 -12.35 -4.35 -12.4 -4.35 -12.45 -4.4 -12.5 -4.45 -12.5 -4.6 -12.65 -4.7 -12.7 -4.8 -12.8 -4.95 -12.85 -4.95 -12.8 -5.55 -12.85 -5.65 -12.85 -5.65 -12.75 -5.75 -12.65 -5.75 -12.6 -5.85 -12.5 -5.85 -12.45 -5.95 -12.45 -5.95 -12.55 -5.9 -12.6 -5.9 -12.7 -5.8 -12.8 -5.8 -12.95 M-5.85 -10.75 L-5.7 -10.75 -5.6 -10.7 -5.55 -10.65 -5.55 -10.6 -5.5 -10.6 -5.35 -10.55 -5.3 -10.55 -4.6 -10.5 -4.6 -10.45 -5.4 -10.45 -5.65 -10.5 -5.75 -10.5 -5.8 -10.55 -6.05 -10.55 -6.35 -10.25 -6.35 -10.2 -6.3 -10.2 -6.3 -9.85 -6.4 -9.85 -6.4 -10.15 -6.55 -10.15 -6.55 -10.25 -6.6 -10.3 -6.6 -10.45 -6.55 -10.45 -6.5 -10.5 -6.5 -10.55 -6.4 -10.6 -6.35 -10.7 -6.35 -10.75 -6.3 -10.75 -6.25 -10.8 -5.95 -10.8 -5.85 -10.75 M-1.8 -12.3 L-1.85 -12.25 -1.85 -12.2 -2.0 -12.05 -2.05 -12.05 -2.1 -12.0 -2.2 -12.0 -2.25 -11.95 -2.7 -11.95 -2.9 -12.0 -2.95 -12.05 -3.55 -12.05 -3.6 -12.0 -3.6 -11.95 -3.7 -11.85 -3.7 -11.6 -3.6 -11.55 -3.6 -11.5 -3.55 -11.45 -3.55 -11.35 -3.45 -11.35 -3.45 -11.2 -3.2 -10.95 -3.1 -10.9 -3.1 -10.85 -2.85 -10.85 -2.8 -10.8 -2.35 -10.8 -2.3 -10.75 -2.2 -10.7 -2.2 -10.65 -2.1 -10.55 -2.1 -10.45 -2.15 -10.4 -2.15 -10.35 -2.35 -10.25 -2.4 -10.2 -2.4 -10.15 -2.5 -10.1 -2.7 -10.1 -2.75 -10.15 -2.7 -10.2 -2.6 -10.2 -2.5 -10.3 -2.35 -10.35 -2.3 -10.4 Q-2.25 -10.4 -2.25 -10.45 L-2.35 -10.55 -2.45 -10.6 -2.6 -10.6 -3.05 -10.7 -3.05 -10.75 -3.15 -10.8 -3.3 -10.85 -3.4 -10.95 -3.65 -11.0 -3.65 -11.2 -3.7 -11.25 -3.75 -11.25 -3.75 -11.35 -3.9 -11.5 -3.95 -11.6 -3.95 -11.9 -3.85 -12.0 -3.85 -12.05 -3.75 -12.15 -3.55 -12.25 -2.95 -12.25 -2.8 -12.2 -2.7 -12.1 -2.6 -12.05 -2.05 -12.15 -2.0 -12.2 -1.95 -12.2 -1.95 -12.3 -1.85 -12.35 -1.8 -12.35 -1.8 -12.3" fill="#ffffff" fill-rule="evenodd" stroke="none"/>
  </g>
</svg>
