<?xml version="1.0" encoding="UTF-8" standalone="no"?>
<svg xmlns:ffdec="https://www.free-decompiler.com/flash" xmlns:xlink="http://www.w3.org/1999/xlink" ffdec:objectType="shape" height="27.55px" width="54.0px" xmlns="http://www.w3.org/2000/svg">
  <g transform="matrix(1.0, 0.0, 0.0, 1.0, 25.05, 34.3)">
    <path d="M5.4 -32.25 L5.4 -32.15 5.35 -32.1 5.35 -32.05 5.3 -32.0 5.3 -31.95 5.25 -31.95 5.25 -31.75 5.2 -31.75 5.2 -31.65 5.15 -31.65 5.15 -31.15 5.2 -31.15 5.25 -31.1 5.3 -31.1 5.3 -31.05 5.35 -31.1 5.4 -31.05 5.4 -30.8 5.45 -30.75 5.5 -30.75 Q5.55 -30.7 5.6 -30.7 L5.65 -30.65 5.7 -30.65 5.7 -30.6 5.75 -30.6 5.75 -30.5 5.8 -30.5 5.85 -30.45 5.85 -30.4 5.9 -30.4 5.9 -30.2 5.85 -30.2 5.85 -30.15 5.75 -30.05 5.55 -30.05 5.55 -30.1 5.7 -30.1 5.75 -30.15 5.8 -30.15 5.8 -30.2 5.85 -30.2 5.85 -30.35 5.75 -30.45 5.7 -30.45 5.7 -30.55 5.65 -30.55 5.65 -30.6 5.6 -30.6 5.5 -30.7 5.45 -30.7 5.45 -30.65 5.4 -30.7 5.3 -30.7 5.3 -31.0 5.25 -31.0 5.25 -31.05 5.15 -31.05 5.15 -31.1 5.1 -31.1 5.1 -31.5 5.15 -31.5 5.15 -31.7 5.2 -31.75 5.2 -31.9 5.25 -31.95 5.25 -32.05 5.3 -32.05 5.3 -32.15 5.35 -32.15 5.35 -32.2 5.4 -32.25 M8.1 -34.3 L8.2 -34.3 8.25 -34.25 8.25 -34.2 8.3 -34.2 8.3 -34.1 8.35 -34.1 8.35 -34.05 8.45 -34.05 8.55 -33.95 8.6 -33.95 8.6 -33.9 8.65 -33.85 8.65 -33.8 8.6 -33.75 8.5 -33.7 8.4 -33.7 8.4 -33.75 8.5 -33.75 8.5 -33.85 8.45 -33.85 8.45 -33.9 8.4 -33.9 8.3 -33.95 8.25 -33.95 8.25 -34.05 8.2 -34.05 8.2 -34.2 8.15 -34.25 8.0 -34.25 8.0 -34.2 7.95 -34.2 7.95 -34.1 7.9 -34.1 7.9 -34.05 7.85 -34.05 7.8 -34.0 7.8 -33.95 7.75 -33.95 7.7 -33.9 7.65 -33.9 7.65 -33.8 7.6 -33.8 7.65 -33.75 7.75 -33.65 7.75 -33.45 7.65 -33.45 7.65 -33.5 7.7 -33.5 7.7 -33.6 7.6 -33.6 7.6 -33.65 7.55 -33.65 7.45 -33.7 7.45 -33.8 7.5 -33.8 7.5 -33.85 7.55 -33.85 7.6 -33.8 7.6 -33.85 7.7 -33.95 7.7 -34.0 7.75 -34.0 7.8 -34.1 7.9 -34.15 7.9 -34.2 8.0 -34.3 8.1 -34.3 M5.55 -32.65 L5.6 -32.65 5.6 -32.7 5.65 -32.7 5.65 -32.75 5.7 -32.75 Q5.75 -32.75 5.85 -32.8 L5.9 -32.85 5.95 -32.85 5.95 -32.75 5.9 -32.75 5.8 -32.65 5.75 -32.65 5.75 -32.6 5.65 -32.6 5.6 -32.55 5.6 -32.5 5.55 -32.5 5.55 -32.65 M6.65 -31.1 L6.7 -31.15 6.75 -31.15 6.75 -31.1 6.65 -31.1 6.65 -31.05 6.6 -31.0 6.55 -31.0 6.55 -30.95 6.5 -30.95 6.5 -30.9 6.45 -30.9 6.45 -30.85 6.35 -30.85 6.35 -30.75 6.3 -30.75 6.3 -30.65 6.35 -30.65 6.35 -30.5 6.4 -30.5 6.4 -30.35 6.45 -30.35 6.45 -30.15 6.5 -30.15 6.5 -30.05 6.45 -30.05 6.45 -29.85 6.4 -29.85 6.4 -29.8 6.45 -29.8 6.5 -29.75 6.5 -29.6 6.55 -29.55 6.55 -29.3 6.5 -29.3 6.5 -29.25 6.45 -29.2 6.4 -29.2 6.35 -29.15 6.2 -29.15 6.15 -29.1 6.15 -29.0 6.1 -28.95 6.05 -28.95 6.05 -28.9 6.0 -28.9 6.0 -28.85 5.9 -28.75 5.9 -28.7 5.85 -28.7 5.85 -28.65 5.8 -28.65 5.7 -28.55 5.7 -28.5 5.65 -28.5 5.65 -28.45 5.6 -28.45 5.6 -28.4 5.55 -28.4 5.55 -28.35 5.5 -28.35 5.5 -28.3 5.45 -28.3 5.45 -28.2 5.4 -28.15 5.35 -28.15 5.35 -28.1 5.25 -28.0 5.2 -28.0 5.05 -27.95 4.95 -28.0 4.9 -28.0 4.85 -28.05 4.75 -28.05 4.7 -28.1 4.65 -28.1 4.65 -28.15 4.6 -28.15 4.6 -28.2 4.55 -28.25 4.55 -28.3 4.5 -28.3 4.5 -28.4 4.35 -28.4 4.35 -28.5 4.3 -28.5 4.3 -28.55 4.25 -28.55 4.25 -28.5 4.0 -28.5 3.95 -28.55 3.85 -28.55 3.75 -28.6 3.75 -28.7 3.6 -28.7 3.6 -28.65 3.55 -28.65 3.55 -28.6 3.5 -28.6 3.45 -28.55 3.4 -28.55 3.35 -28.5 3.3 -28.5 3.3 -28.45 3.25 -28.45 3.25 -28.4 3.2 -28.35 3.2 -28.3 2.95 -28.3 Q2.8 -28.2 2.6 -28.25 L2.45 -28.25 2.45 -28.3 2.4 -28.3 2.35 -28.35 2.2 -28.4 2.2 -28.35 2.05 -28.35 2.1 -28.4 2.15 -28.4 2.15 -28.45 2.35 -28.45 2.4 -28.4 2.4 -28.35 2.5 -28.35 2.5 -28.3 2.8 -28.3 2.85 -28.35 2.95 -28.4 3.15 -28.4 3.15 -28.45 3.2 -28.5 3.2 -28.55 3.25 -28.55 3.25 -28.6 3.3 -28.6 3.3 -28.65 3.45 -28.65 3.45 -28.7 3.5 -28.7 3.5 -28.75 3.7 -28.75 3.75 -28.8 3.8 -28.75 3.8 -28.65 3.85 -28.65 3.85 -28.6 3.95 -28.6 4.0 -28.55 4.1 -28.55 4.2 -28.65 4.3 -28.65 4.3 -28.75 4.35 -28.75 4.35 -28.8 4.4 -28.85 4.4 -28.9 4.55 -29.05 4.6 -29.05 4.6 -29.1 4.7 -29.1 4.7 -29.15 4.75 -29.2 4.8 -29.2 4.8 -29.4 4.75 -29.4 4.75 -29.6 4.8 -29.6 4.8 -29.65 4.85 -29.65 4.8 -29.7 4.8 -29.8 4.85 -29.8 4.95 -29.9 4.95 -29.95 5.0 -29.95 5.0 -29.9 4.95 -29.9 4.95 -29.85 4.9 -29.85 4.9 -29.8 4.95 -29.8 4.95 -29.65 4.85 -29.65 4.85 -29.2 4.8 -29.15 4.8 -29.1 4.75 -29.1 4.75 -29.05 4.7 -29.05 4.7 -29.0 4.65 -29.0 4.55 -28.9 4.5 -28.9 4.5 -28.8 4.45 -28.8 4.45 -28.75 4.35 -28.65 4.4 -28.65 4.4 -28.6 4.45 -28.6 4.5 -28.55 4.5 -28.5 4.55 -28.5 4.6 -28.45 4.6 -28.4 4.65 -28.35 4.65 -28.3 4.7 -28.3 4.7 -28.25 4.8 -28.2 4.8 -28.15 4.85 -28.15 4.9 -28.1 4.95 -28.1 4.95 -28.05 5.05 -28.05 5.05 -28.0 5.1 -28.0 5.15 -28.05 5.2 -28.05 5.25 -28.1 5.25 -28.15 5.3 -28.2 5.35 -28.2 5.35 -28.25 5.4 -28.25 5.4 -28.3 5.45 -28.3 5.5 -28.35 5.5 -28.4 5.55 -28.4 5.55 -28.45 5.6 -28.45 5.6 -28.55 5.65 -28.55 5.65 -28.6 5.7 -28.65 5.75 -28.65 5.75 -28.7 5.8 -28.7 5.85 -28.75 5.85 -28.8 5.95 -28.9 5.95 -28.95 6.0 -29.0 6.0 -29.15 6.1 -29.25 6.2 -29.25 6.25 -29.3 6.35 -29.3 6.4 -29.35 6.45 -29.35 6.45 -29.55 6.4 -29.55 6.4 -29.6 6.3 -29.65 6.25 -29.65 6.25 -29.8 6.2 -29.8 6.3 -29.9 6.3 -30.0 6.35 -30.0 6.35 -30.35 6.3 -30.35 6.3 -30.45 6.25 -30.45 6.25 -30.55 6.2 -30.55 6.2 -30.6 6.15 -30.6 6.15 -30.75 6.2 -30.75 6.2 -30.8 6.25 -30.85 6.25 -30.9 6.3 -30.9 6.3 -30.95 6.4 -30.95 6.45 -31.0 6.5 -31.0 6.55 -31.05 6.65 -31.05 6.65 -31.1 M7.75 -31.55 L7.8 -31.6 7.85 -31.6 7.85 -31.7 7.9 -31.7 7.9 -31.8 8.0 -31.8 8.0 -31.85 8.05 -31.85 8.05 -31.8 8.2 -31.8 8.2 -31.75 8.25 -31.75 8.3 -31.7 8.35 -31.7 8.35 -31.65 8.4 -31.65 8.4 -31.6 8.45 -31.55 8.45 -31.5 8.5 -31.5 8.5 -31.4 8.6 -31.4 8.6 -31.35 8.65 -31.3 8.65 -31.25 8.7 -31.25 8.7 -31.15 8.7 -31.05 8.75 -31.05 8.75 -31.0 8.65 -31.0 8.65 -31.15 8.6 -31.15 8.6 -31.25 8.55 -31.25 8.45 -31.35 8.4 -31.35 8.4 -31.5 8.35 -31.5 8.35 -31.6 8.25 -31.6 8.25 -31.65 8.2 -31.7 8.15 -31.7 8.05 -31.75 8.0 -31.75 8.0 -31.7 7.95 -31.7 7.95 -31.65 7.9 -31.65 7.9 -31.6 7.85 -31.6 7.85 -31.55 7.8 -31.55 7.75 -31.5 7.7 -31.5 7.6 -31.45 7.45 -31.45 7.45 -31.4 7.35 -31.4 7.35 -31.35 7.05 -31.35 7.25 -31.4 7.35 -31.4 7.35 -31.45 7.45 -31.45 7.5 -31.5 7.7 -31.55 7.75 -31.55 M10.1 -32.9 L10.1 -32.95 10.15 -32.95 10.25 -33.05 10.3 -33.05 10.35 -33.0 10.4 -33.0 10.45 -32.95 10.45 -32.9 10.55 -32.8 10.55 -32.7 10.6 -32.65 10.6 -32.55 10.65 -32.55 10.65 -32.5 10.7 -32.5 10.75 -32.45 10.75 -32.4 10.8 -32.4 10.8 -32.3 10.85 -32.25 10.85 -32.15 10.8 -32.1 10.8 -32.05 10.75 -32.05 10.75 -32.0 10.55 -32.0 10.45 -32.05 10.35 -32.05 10.3 -32.0 10.3 -31.9 10.25 -31.9 10.25 -31.85 10.2 -31.85 10.2 -32.05 10.3 -32.15 10.35 -32.15 10.4 -32.2 10.45 -32.2 10.55 -32.15 10.65 -32.15 10.65 -32.2 10.7 -32.2 10.7 -32.45 10.65 -32.45 10.65 -32.5 10.6 -32.5 10.6 -32.6 10.55 -32.6 10.55 -32.7 10.5 -32.75 10.5 -32.8 10.45 -32.85 10.4 -32.85 10.4 -32.9 10.35 -32.9 10.35 -32.95 10.2 -32.95 10.2 -32.9 10.15 -32.85 10.15 -32.8 10.05 -32.8 10.05 -32.75 10.0 -32.75 9.95 -32.7 9.9 -32.7 9.9 -32.8 10.0 -32.8 10.0 -32.85 10.1 -32.85 10.1 -32.9 M8.45 -33.55 L8.45 -33.45 8.4 -33.45 8.4 -33.4 8.45 -33.35 8.45 -33.3 8.35 -33.25 8.3 -33.25 8.35 -33.2 8.4 -33.2 8.5 -33.1 8.5 -33.05 8.45 -33.1 8.4 -33.1 8.4 -33.15 8.35 -33.15 8.35 -33.1 8.25 -33.1 8.25 -33.15 8.2 -33.15 8.2 -33.25 8.15 -33.3 8.15 -33.35 8.2 -33.35 8.2 -33.4 8.35 -33.4 8.35 -33.45 8.4 -33.45 8.4 -33.5 8.45 -33.55 M8.75 -31.0 L8.75 -31.05 8.8 -31.05 8.85 -31.0 8.9 -31.0 8.9 -30.95 9.25 -30.95 9.4 -31.0 9.4 -31.05 9.45 -31.05 9.5 -31.1 9.6 -31.1 9.6 -31.15 9.65 -31.15 9.7 -31.1 9.7 -31.2 9.75 -31.25 9.75 -31.35 9.8 -31.35 9.8 -31.25 9.9 -31.15 9.95 -31.15 9.95 -31.1 10.0 -31.1 10.0 -31.05 10.05 -31.05 10.1 -31.0 10.5 -31.0 10.5 -30.95 10.55 -30.95 10.55 -30.7 10.5 -30.65 10.5 -30.55 10.45 -30.55 10.45 -29.95 10.5 -29.9 10.45 -29.9 10.45 -29.7 10.5 -29.7 10.5 -29.55 10.55 -29.5 10.55 -29.45 10.6 -29.45 10.7 -29.4 10.75 -29.35 10.8 -29.35 10.85 -29.3 Q10.9 -29.25 10.95 -29.25 L11.05 -29.15 11.05 -29.1 11.1 -29.1 11.1 -29.05 11.15 -29.05 11.15 -29.0 11.25 -29.0 11.25 -28.95 11.3 -28.95 11.35 -28.9 11.35 -28.8 11.4 -28.8 11.4 -28.65 11.35 -28.65 11.35 -28.6 11.3 -28.5 11.2 -28.4 11.15 -28.4 11.15 -28.35 11.1 -28.35 11.1 -28.3 10.95 -28.3 10.95 -28.25 10.9 -28.25 10.9 -28.15 10.95 -28.1 10.95 -28.0 11.05 -27.9 11.1 -27.9 11.2 -27.85 11.45 -27.85 11.45 -27.75 11.4 -27.75 11.35 -27.7 11.3 -27.7 Q11.25 -27.7 11.15 -27.7 L11.1 -27.75 11.05 -27.75 11.05 -27.8 11.0 -27.8 10.95 -27.85 10.95 -27.9 10.9 -27.9 10.9 -28.1 10.85 -28.1 10.85 -28.4 10.9 -28.45 11.0 -28.45 11.05 -28.4 11.1 -28.45 11.1 -28.5 11.15 -28.5 11.25 -28.6 11.25 -28.65 11.3 -28.65 11.3 -28.8 11.25 -28.8 11.2 -28.85 11.05 -28.9 11.05 -29.0 11.0 -29.0 10.95 -29.1 10.85 -29.2 10.7 -29.2 10.7 -29.25 10.65 -29.3 10.55 -29.3 10.55 -29.35 10.5 -29.35 10.45 -29.4 10.45 -29.55 10.4 -29.6 10.4 -29.7 10.45 -29.7 10.45 -29.9 10.4 -29.9 10.4 -30.0 10.35 -30.0 10.35 -30.25 10.4 -30.25 10.4 -30.6 10.45 -30.65 10.45 -30.95 10.4 -30.95 10.35 -30.9 10.3 -30.9 10.1 -30.95 10.1 -30.9 10.0 -30.9 9.95 -30.95 9.9 -30.95 9.85 -31.0 9.85 -31.05 9.55 -31.05 9.5 -31.0 9.45 -31.0 9.45 -30.95 9.4 -30.9 8.85 -30.9 8.8 -30.95 8.75 -30.95 8.75 -31.0 M10.15 -31.85 L10.15 -31.75 10.1 -31.7 9.95 -31.7 9.95 -31.65 9.9 -31.65 9.9 -31.7 9.95 -31.75 9.95 -31.8 10.1 -31.8 10.1 -31.85 10.15 -31.85 M20.0 -27.85 L20.25 -27.85 20.25 -27.7 20.45 -27.7 20.45 -27.75 20.55 -27.75 20.55 -27.8 20.65 -27.8 20.65 -27.85 20.7 -27.85 20.7 -27.9 20.75 -27.95 20.8 -27.95 20.9 -28.05 21.1 -28.05 21.15 -28.0 21.2 -28.0 21.2 -27.95 21.25 -27.95 21.25 -27.9 21.3 -27.9 21.3 -27.85 21.35 -27.85 21.45 -27.8 21.45 -27.4 21.4 -27.45 21.4 -27.75 21.35 -27.75 21.3 -27.7 21.3 -27.75 21.25 -27.75 21.2 -27.8 21.2 -27.85 21.15 -27.9 21.1 -27.9 21.0 -28.0 20.9 -28.0 20.85 -27.95 20.85 -27.9 20.75 -27.9 20.6 -27.75 20.55 -27.75 20.5 -27.7 20.5 -27.65 20.4 -27.65 20.4 -27.6 20.3 -27.6 20.25 -27.65 20.2 -27.65 20.2 -27.7 20.05 -27.7 20.05 -27.65 20.0 -27.65 20.0 -27.55 19.95 -27.5 19.9 -27.5 19.9 -27.35 19.85 -27.3 19.8 -27.3 19.8 -27.25 19.75 -27.25 19.65 -27.2 19.6 -27.15 19.55 -27.15 19.5 -27.2 19.5 -27.1 19.55 -27.05 19.7 -27.05 19.75 -27.1 19.85 -27.1 20.05 -27.3 20.2 -27.3 20.25 -27.25 20.35 -27.25 20.35 -27.2 20.4 -27.15 20.4 -27.1 20.45 -27.1 20.45 -27.05 20.55 -26.95 20.6 -26.95 20.6 -26.85 20.65 -26.85 20.7 -26.8 20.7 -26.7 20.75 -26.7 20.75 -26.6 20.7 -26.6 20.7 -26.65 20.65 -26.65 20.65 -26.7 20.6 -26.7 20.6 -26.8 20.55 -26.8 20.5 -26.85 20.5 -26.9 20.4 -27.0 20.4 -27.05 20.35 -27.05 20.35 -27.1 20.3 -27.1 20.3 -27.15 20.2 -27.15 20.15 -27.2 20.05 -27.2 20.05 -27.15 20.0 -27.15 20.0 -27.1 19.95 -27.1 19.95 -27.05 19.9 -27.05 19.9 -27.0 19.8 -27.0 19.75 -26.95 19.5 -26.95 19.45 -27.0 19.45 -27.05 19.4 -27.05 19.4 -27.25 19.3 -27.25 19.3 -27.35 19.35 -27.35 19.45 -27.25 19.6 -27.25 19.65 -27.3 19.75 -27.3 19.8 -27.35 19.85 -27.35 19.85 -27.5 19.9 -27.55 19.9 -27.65 19.95 -27.7 19.95 -27.75 20.0 -27.8 20.0 -27.85 M19.05 -27.45 L19.05 -27.35 19.0 -27.35 18.9 -27.3 18.8 -27.3 18.75 -27.25 18.6 -27.25 18.5 -27.15 18.45 -27.15 18.4 -27.1 18.4 -27.05 18.35 -27.0 18.35 -26.9 18.3 -26.9 18.3 -26.8 18.25 -26.75 18.25 -26.7 18.2 -26.65 18.2 -26.85 18.25 -26.85 18.25 -27.0 18.3 -27.0 18.3 -27.1 18.35 -27.15 18.35 -27.2 18.4 -27.25 18.45 -27.25 18.5 -27.3 18.6 -27.3 18.65 -27.35 18.8 -27.35 18.85 -27.4 18.9 -27.4 19.0 -27.45 19.05 -27.45 M21.4 -27.25 L21.4 -27.2 21.35 -27.2 21.35 -27.1 21.5 -27.1 21.55 -27.05 21.6 -27.05 21.6 -27.0 21.55 -26.95 21.3 -26.95 21.3 -27.0 21.25 -27.0 21.25 -27.2 21.35 -27.2 21.35 -27.25 21.4 -27.3 21.4 -27.25 M18.15 -26.6 L18.15 -26.55 18.1 -26.55 18.1 -26.5 18.05 -26.5 17.95 -26.45 17.85 -26.35 17.85 -26.25 17.8 -26.25 17.8 -26.15 17.75 -26.15 17.75 -26.05 17.7 -26.0 17.7 -25.9 17.65 -25.9 17.65 -25.85 17.6 -25.85 17.6 -25.8 17.55 -25.75 17.55 -25.7 17.5 -25.7 17.5 -25.65 17.45 -25.65 17.45 -25.6 17.4 -25.6 17.4 -25.55 17.25 -25.55 17.25 -25.5 17.2 -25.5 17.2 -25.45 17.15 -25.45 17.15 -25.4 17.1 -25.4 17.0 -25.3 16.95 -25.3 16.8 -25.25 16.75 -25.25 16.45 -25.2 16.45 -25.25 16.4 -25.3 16.3 -25.35 16.2 -25.35 16.2 -25.4 16.15 -25.4 16.2 -25.45 16.2 -25.4 16.4 -25.4 16.4 -25.35 16.45 -25.35 16.45 -25.25 16.55 -25.25 16.55 -25.3 16.7 -25.3 16.75 -25.35 16.95 -25.35 16.95 -25.4 17.05 -25.4 17.05 -25.45 17.15 -25.45 17.15 -25.5 17.3 -25.65 17.35 -25.65 17.55 -25.85 17.55 -25.9 17.6 -25.9 17.6 -26.0 17.65 -26.0 17.65 -26.05 17.7 -26.1 17.7 -26.2 17.75 -26.2 17.75 -26.3 17.8 -26.35 17.8 -26.45 17.85 -26.5 18.05 -26.5 18.05 -26.55 18.1 -26.6 18.15 -26.6 M20.95 -23.8 L21.05 -23.8 21.1 -23.85 21.35 -23.85 21.45 -23.9 21.55 -23.9 21.55 -23.95 21.65 -23.95 21.65 -24.0 21.7 -24.0 21.7 -24.05 21.75 -24.1 21.8 -24.1 21.9 -24.2 21.9 -24.25 21.95 -24.25 21.95 -24.3 22.0 -24.35 22.0 -24.4 22.2 -24.4 22.2 -24.5 22.25 -24.5 22.25 -24.55 22.3 -24.6 22.3 -24.65 22.35 -24.7 22.35 -24.75 22.3 -24.8 22.3 -24.9 22.15 -24.9 22.15 -24.95 22.1 -24.95 22.1 -25.0 22.05 -25.0 22.0 -25.05 22.0 -25.25 22.05 -25.3 22.05 -25.35 21.95 -25.35 21.95 -25.4 21.85 -25.4 21.8 -25.45 21.8 -25.5 22.0 -25.5 22.05 -25.45 22.1 -25.45 22.1 -25.4 22.15 -25.4 22.15 -25.35 22.2 -25.35 22.2 -25.25 22.15 -25.25 22.15 -25.2 22.1 -25.2 22.1 -25.1 22.2 -25.0 22.25 -25.0 22.25 -24.95 22.3 -24.95 22.35 -24.9 22.35 -24.8 22.4 -24.8 22.4 -24.65 22.35 -24.65 22.35 -24.55 22.3 -24.55 22.3 -24.5 22.25 -24.5 22.25 -24.45 22.2 -24.4 22.25 -24.4 22.25 -24.45 22.3 -24.45 22.3 -24.5 22.55 -24.5 22.55 -24.45 22.65 -24.45 22.65 -24.4 22.7 -24.4 22.75 -24.35 22.75 -24.3 22.8 -24.3 22.8 -24.2 22.85 -24.2 22.85 -24.1 22.9 -24.05 22.9 -24.0 23.0 -23.95 23.05 -23.95 23.05 -23.9 23.15 -23.9 23.2 -23.95 23.25 -23.95 23.3 -24.0 23.35 -24.0 23.4 -24.05 23.45 -24.05 23.45 -24.1 23.5 -24.1 23.5 -24.05 23.45 -24.05 23.45 -24.0 23.35 -24.0 23.35 -23.95 23.3 -23.9 23.3 -23.85 23.2 -23.85 23.2 -23.8 23.15 -23.75 23.05 -23.75 23.05 -23.8 23.0 -23.8 22.9 -23.85 22.85 -23.85 22.85 -23.9 22.8 -23.9 22.8 -24.0 22.75 -24.0 22.75 -24.15 22.7 -24.15 22.7 -24.2 22.65 -24.25 22.65 -24.3 22.6 -24.3 22.55 -24.35 22.5 -24.35 22.5 -24.4 22.4 -24.4 22.35 -24.35 22.3 -24.35 22.25 -24.3 22.25 -24.35 22.15 -24.35 22.15 -24.3 22.05 -24.3 22.0 -24.25 22.0 -24.2 21.95 -24.15 21.9 -24.15 21.9 -24.1 21.8 -24.0 21.75 -24.0 21.75 -23.95 21.7 -23.9 21.65 -23.9 21.65 -23.85 21.6 -23.85 Q21.55 -23.85 21.5 -23.8 L21.35 -23.8 21.2 -23.75 21.15 -23.75 21.15 -23.7 21.1 -23.7 21.0 -23.6 21.0 -23.5 20.95 -23.5 20.95 -23.35 20.9 -23.3 20.9 -23.0 20.95 -22.95 20.95 -22.6 20.9 -22.6 20.9 -22.9 20.85 -22.95 20.85 -23.0 20.8 -23.0 20.8 -23.25 20.85 -23.3 20.85 -23.4 20.9 -23.4 20.9 -23.75 20.95 -23.75 20.95 -23.8 M14.55 -28.7 L14.55 -28.8 14.6 -28.85 14.65 -28.8 14.75 -28.8 14.8 -28.75 14.85 -28.75 14.85 -28.7 14.9 -28.7 14.9 -28.65 14.95 -28.65 15.0 -28.6 15.05 -28.6 15.05 -28.55 15.1 -28.55 15.1 -28.5 15.15 -28.45 15.15 -28.4 15.2 -28.35 15.2 -28.25 15.25 -28.25 15.25 -28.05 15.2 -28.05 15.2 -28.15 15.15 -28.15 15.15 -28.25 15.1 -28.3 15.1 -28.35 15.05 -28.35 15.05 -28.45 15.0 -28.45 14.95 -28.5 14.9 -28.5 14.9 -28.55 14.85 -28.55 14.85 -28.6 14.8 -28.6 14.75 -28.65 14.7 -28.65 14.7 -28.7 14.6 -28.65 14.6 -28.6 14.55 -28.6 14.55 -28.55 14.25 -28.55 14.05 -28.6 14.0 -28.6 14.0 -28.15 13.9 -28.05 13.9 -28.0 13.85 -28.0 13.85 -27.9 13.8 -27.85 13.8 -27.75 13.75 -27.75 13.75 -27.6 13.7 -27.55 13.5 -27.55 13.45 -27.6 13.4 -27.6 13.4 -27.65 13.35 -27.65 13.35 -27.7 13.3 -27.75 13.25 -27.75 13.25 -27.8 13.2 -27.8 13.2 -27.85 13.1 -27.95 13.1 -28.0 13.05 -28.0 13.05 -28.05 13.0 -28.1 13.0 -28.15 12.9 -28.15 12.85 -28.2 12.75 -28.2 12.75 -28.15 12.6 -28.15 12.6 -28.2 12.5 -28.2 12.45 -28.25 12.35 -28.25 12.35 -28.3 12.5 -28.3 12.55 -28.25 12.75 -28.25 12.75 -28.3 12.85 -28.3 12.9 -28.25 13.0 -28.25 13.15 -28.1 13.2 -28.1 13.25 -28.05 13.25 -28.0 13.35 -27.9 13.35 -27.85 13.4 -27.85 13.45 -27.8 13.45 -27.75 13.5 -27.75 13.55 -27.7 13.6 -27.7 13.65 -27.65 13.65 -27.7 13.7 -27.7 13.7 -27.75 13.75 -27.75 13.75 -27.9 13.8 -27.9 13.8 -28.0 13.85 -28.0 13.8 -28.05 13.85 -28.05 13.85 -28.2 13.95 -28.2 13.95 -28.65 14.25 -28.65 14.25 -28.6 Q14.3 -28.6 14.35 -28.6 L14.4 -28.6 14.45 -28.65 14.5 -28.65 14.5 -28.7 14.55 -28.7 M15.55 -27.05 L15.55 -27.15 15.6 -27.15 15.6 -27.0 15.65 -27.0 15.65 -26.85 15.7 -26.85 15.7 -26.8 15.75 -26.75 15.75 -26.65 15.65 -26.55 15.65 -26.5 15.6 -26.5 15.6 -26.45 15.55 -26.4 15.55 -26.3 15.4 -26.25 15.35 -26.25 15.35 -26.3 15.2 -26.3 15.2 -26.35 15.15 -26.35 15.15 -26.4 15.1 -26.4 15.05 -26.45 15.0 -26.45 14.95 -26.4 14.9 -26.4 14.85 -26.35 14.7 -26.35 14.6 -26.45 14.45 -26.45 14.45 -26.5 14.3 -26.5 14.15 -26.55 14.1 -26.55 14.1 -26.6 13.95 -26.6 13.9 -26.55 13.9 -26.5 13.85 -26.5 13.85 -26.45 13.8 -26.45 13.8 -26.4 Q13.8 -26.45 13.75 -26.45 L13.75 -26.4 13.65 -26.4 13.6 -26.35 13.6 -26.3 13.55 -26.35 13.45 -26.35 13.45 -25.6 13.4 -25.6 13.4 -26.0 13.35 -26.05 13.35 -26.15 13.3 -26.2 13.3 -26.25 13.35 -26.3 13.35 -26.4 13.45 -26.5 13.7 -26.5 13.75 -26.55 Q13.8 -26.6 13.8 -26.65 L13.9 -26.75 14.0 -26.75 14.0 -26.7 14.15 -26.7 14.15 -26.65 14.25 -26.65 14.3 -26.6 14.45 -26.6 14.45 -26.55 14.65 -26.55 14.65 -26.5 14.75 -26.5 14.8 -26.45 14.85 -26.5 14.9 -26.5 14.95 -26.55 14.95 -26.6 15.05 -26.6 15.1 -26.55 15.15 -26.55 15.15 -26.5 15.2 -26.5 15.25 -26.45 15.25 -26.4 15.35 -26.4 15.35 -26.35 15.5 -26.35 15.5 -26.4 15.55 -26.4 15.55 -26.45 15.6 -26.5 15.6 -26.55 15.65 -26.55 15.65 -26.6 15.7 -26.65 15.7 -26.7 15.65 -26.7 15.65 -26.8 15.6 -26.8 15.6 -26.9 15.55 -26.95 15.55 -27.05 M11.9 -28.2 L11.85 -28.15 11.8 -28.15 11.8 -28.05 11.75 -28.05 11.75 -28.0 11.7 -28.0 11.7 -27.95 11.65 -27.95 11.65 -27.9 11.6 -27.9 11.55 -27.85 11.55 -27.9 11.6 -27.9 11.6 -27.95 11.65 -27.95 11.7 -28.0 11.75 -28.1 11.8 -28.1 11.8 -28.15 11.85 -28.2 11.85 -28.25 11.9 -28.25 11.95 -28.3 12.0 -28.3 12.0 -28.4 12.15 -28.4 12.25 -28.3 12.2 -28.3 12.2 -28.25 12.15 -28.25 12.05 -28.3 12.05 -28.25 11.95 -28.25 11.9 -28.2 M12.8 -25.1 L12.85 -25.15 12.85 -25.2 12.95 -25.2 12.95 -25.15 13.0 -25.1 13.0 -25.05 13.05 -25.05 13.05 -25.1 13.1 -25.1 13.2 -25.2 13.25 -25.2 13.25 -25.25 13.35 -25.25 13.35 -25.2 13.3 -25.2 13.3 -25.15 13.2 -25.05 13.05 -25.05 13.05 -25.0 12.95 -25.0 12.95 -25.1 12.9 -25.1 12.9 -25.05 12.95 -25.0 12.95 -24.9 13.0 -24.9 13.0 -24.55 12.95 -24.55 12.95 -24.35 12.9 -24.35 12.9 -24.2 13.15 -24.2 13.2 -24.25 13.25 -24.25 13.3 -24.2 13.35 -24.2 13.35 -24.15 13.4 -24.15 13.4 -24.1 13.45 -24.1 13.45 -24.05 13.55 -24.05 13.55 -24.0 13.65 -24.0 13.7 -23.95 13.7 -23.9 13.65 -23.9 13.65 -23.95 13.4 -23.95 13.4 -24.0 13.35 -24.0 13.25 -24.1 13.2 -24.05 12.8 -24.05 12.8 -24.4 12.85 -24.4 12.85 -24.5 12.9 -24.55 12.9 -24.85 12.85 -24.85 12.85 -25.0 12.8 -25.0 12.8 -25.1 M15.55 -25.45 L15.6 -25.45 15.6 -25.5 16.1 -25.5 16.1 -25.55 16.15 -25.5 16.2 -25.5 16.2 -25.45 16.15 -25.45 16.1 -25.4 16.05 -25.4 15.95 -25.35 15.65 -25.35 15.55 -25.3 15.5 -25.3 15.45 -25.25 15.45 -25.15 15.4 -25.15 15.4 -25.0 15.35 -24.95 15.35 -24.6 15.25 -24.5 15.25 -24.45 15.05 -24.45 15.05 -24.4 15.0 -24.4 15.0 -24.25 14.95 -24.2 14.95 -24.05 14.9 -24.05 14.9 -23.95 14.95 -23.95 15.05 -23.85 15.05 -23.75 15.0 -23.7 15.0 -23.65 14.95 -23.6 14.95 -23.55 14.9 -23.55 14.9 -23.45 14.85 -23.45 14.85 -23.4 14.8 -23.4 14.8 -23.2 14.7 -23.1 14.7 -23.05 14.65 -23.0 14.55 -23.0 14.45 -23.05 Q14.4 -23.1 14.35 -23.15 L14.3 -23.15 14.3 -23.25 14.25 -23.25 14.25 -23.3 14.1 -23.45 14.15 -23.45 14.2 -23.4 14.2 -23.35 14.25 -23.35 14.25 -23.3 14.3 -23.25 14.35 -23.25 14.35 -23.2 14.4 -23.15 14.45 -23.15 14.5 -23.1 14.65 -23.1 14.65 -23.2 14.7 -23.2 14.75 -23.25 14.75 -23.5 14.8 -23.5 14.8 -23.55 14.85 -23.6 14.85 -23.65 14.9 -23.7 14.9 -23.75 14.95 -23.75 14.95 -23.8 14.9 -23.85 14.85 -23.85 14.85 -23.9 14.8 -23.9 14.8 -24.1 14.85 -24.1 14.85 -24.25 14.9 -24.3 14.9 -24.4 14.95 -24.4 14.95 -24.5 15.0 -24.5 15.0 -24.55 15.2 -24.55 15.2 -24.65 15.25 -24.65 15.25 -24.7 15.3 -24.7 15.3 -25.0 15.35 -25.05 15.35 -25.25 15.4 -25.25 15.4 -25.35 15.45 -25.4 15.45 -25.45 15.55 -25.45 M21.0 -22.0 L21.0 -21.95 20.95 -21.95 20.95 -21.7 20.9 -21.7 20.9 -21.65 20.85 -21.6 20.8 -21.6 20.8 -21.5 20.75 -21.45 20.65 -21.4 20.6 -21.4 20.6 -21.3 20.55 -21.3 20.55 -21.55 20.75 -21.55 20.8 -21.6 20.8 -21.65 20.85 -21.65 20.85 -21.7 20.9 -21.75 20.9 -21.95 20.9 -22.0 20.95 -22.0 20.95 -22.05 21.0 -22.05 21.0 -22.0 M20.45 -21.05 L20.45 -21.15 20.5 -21.15 20.5 -21.25 20.55 -21.25 20.55 -21.2 20.5 -21.2 20.5 -21.0 20.45 -20.95 20.45 -20.7 20.4 -20.7 20.4 -20.5 20.35 -20.5 20.35 -20.45 20.3 -20.4 20.3 -20.3 20.25 -20.3 20.25 -20.25 20.2 -20.25 20.2 -20.2 20.1 -20.1 20.1 -20.05 20.05 -20.05 20.05 -20.0 19.85 -20.0 19.8 -19.95 19.8 -19.9 19.75 -19.85 19.75 -19.75 19.8 -19.75 19.75 -19.7 19.75 -19.4 19.7 -19.4 19.7 -19.15 19.65 -19.15 19.65 -19.1 19.6 -19.05 19.4 -19.05 19.4 -19.1 19.35 -19.15 19.2 -19.15 19.2 -19.0 19.15 -19.0 19.15 -18.85 19.1 -18.85 19.1 -18.7 19.05 -18.7 19.05 -18.5 19.0 -18.45 18.85 -18.45 18.85 -18.4 18.8 -18.4 18.75 -18.35 18.75 -18.3 18.8 -18.3 18.8 -18.2 18.85 -18.2 18.85 -18.15 18.8 -18.15 18.8 -18.05 18.85 -18.05 18.85 -17.9 18.75 -17.8 18.7 -17.8 Q18.65 -17.75 18.55 -17.75 L18.5 -17.75 18.45 -17.8 18.4 -17.8 18.4 -17.75 18.35 -17.75 18.35 -17.6 18.3 -17.6 18.3 -17.35 18.25 -17.3 18.25 -17.1 18.3 -17.1 18.3 -16.9 18.25 -16.9 18.25 -16.45 18.3 -16.4 18.3 -16.45 18.45 -16.45 18.5 -16.4 18.5 -16.35 18.55 -16.35 18.55 -16.2 18.5 -16.15 18.5 -16.0 18.55 -16.0 18.55 -15.7 18.5 -15.7 18.5 -15.6 18.45 -15.6 18.45 -15.5 18.4 -15.5 18.4 -15.25 18.45 -15.25 18.45 -15.15 18.5 -15.15 18.5 -15.0 18.55 -15.0 18.55 -14.9 18.6 -14.9 18.7 -14.85 18.75 -14.85 18.8 -14.8 18.95 -14.8 19.0 -14.75 19.0 -14.7 19.05 -14.7 19.05 -14.75 19.15 -14.75 19.3 -14.9 19.4 -14.9 19.45 -14.85 19.55 -14.85 19.55 -14.8 19.6 -14.85 19.6 -14.9 19.65 -14.9 19.65 -15.0 19.7 -15.0 19.7 -15.1 19.75 -15.1 19.75 -15.2 19.8 -15.2 19.8 -15.3 19.85 -15.3 19.85 -15.35 19.9 -15.4 19.9 -15.55 20.0 -15.55 20.0 -15.5 20.15 -15.45 20.25 -15.45 20.3 -15.35 Q20.35 -15.3 20.4 -15.3 L20.55 -15.25 20.55 -15.2 20.6 -15.2 20.7 -15.1 20.75 -15.1 20.75 -15.05 20.8 -15.0 20.85 -15.0 20.85 -14.95 20.9 -14.95 21.1 -14.75 21.25 -14.75 21.25 -14.7 21.3 -14.65 21.3 -14.6 21.35 -14.6 21.35 -14.55 21.55 -14.55 21.6 -14.6 21.75 -14.6 21.8 -14.55 21.8 -14.45 21.75 -14.45 21.75 -14.35 21.7 -14.35 21.7 -14.2 21.65 -14.2 21.65 -14.1 21.7 -14.05 21.75 -14.05 21.75 -14.0 21.8 -14.05 21.9 -14.05 21.9 -14.1 22.15 -14.1 22.3 -14.2 22.45 -14.25 22.45 -14.3 22.5 -14.3 22.5 -14.35 22.55 -14.35 22.55 -14.45 22.5 -14.45 22.5 -14.7 22.55 -14.7 22.55 -14.75 22.6 -14.75 22.6 -14.8 22.65 -14.8 22.65 -14.85 22.75 -14.85 22.8 -14.9 22.8 -15.05 22.85 -15.1 22.85 -15.15 22.9 -15.2 22.95 -15.2 22.95 -15.25 23.0 -15.25 23.0 -15.3 23.1 -15.35 Q23.2 -15.35 23.25 -15.4 L23.3 -15.45 23.35 -15.45 23.45 -15.5 23.55 -15.45 23.6 -15.45 23.6 -15.5 23.85 -15.5 23.85 -15.45 23.95 -15.45 24.0 -15.4 24.05 -15.4 24.05 -15.35 24.1 -15.35 24.1 -15.3 24.15 -15.3 24.15 -15.25 24.2 -15.25 24.2 -15.2 24.75 -15.2 24.8 -15.15 24.9 -15.15 24.95 -15.1 25.05 -15.1 25.05 -15.05 25.1 -15.05 25.1 -15.0 25.15 -15.0 25.15 -14.95 25.4 -14.95 25.4 -14.9 25.5 -14.9 25.5 -14.85 25.55 -14.85 25.55 -14.8 25.6 -14.75 25.6 -14.6 25.65 -14.6 25.65 -14.55 25.7 -14.55 25.7 -14.45 25.75 -14.45 25.75 -14.35 25.8 -14.35 25.8 -14.4 25.85 -14.35 25.95 -14.35 26.0 -14.4 26.1 -14.55 26.15 -14.6 26.15 -14.8 26.1 -14.85 26.15 -14.9 26.15 -15.05 26.2 -15.05 26.2 -15.2 26.3 -15.2 26.3 -15.25 26.55 -15.25 26.55 -15.3 26.65 -15.3 26.7 -15.25 26.85 -15.25 26.85 -15.2 26.9 -15.2 26.9 -14.95 26.85 -14.95 26.85 -15.1 26.8 -15.1 26.8 -15.15 26.7 -15.15 26.7 -15.2 26.4 -15.2 26.35 -15.15 26.25 -15.15 26.25 -15.0 26.2 -14.95 26.2 -14.6 26.15 -14.6 26.15 -14.5 26.0 -14.35 26.0 -14.3 25.95 -14.3 25.95 -14.2 25.9 -14.15 25.9 -14.2 25.85 -14.2 25.85 -14.05 25.9 -14.0 25.9 -13.7 25.85 -13.65 25.85 -13.6 25.8 -13.55 25.8 -13.5 25.75 -13.45 25.7 -13.45 25.65 -13.4 25.45 -13.4 25.45 -13.45 25.4 -13.45 25.3 -13.5 Q25.15 -13.55 25.0 -13.45 L24.95 -13.4 24.95 -13.1 25.0 -13.1 25.0 -13.05 24.95 -13.05 24.95 -13.0 24.9 -13.0 24.9 -13.05 24.85 -13.05 24.85 -13.2 24.9 -13.25 24.9 -13.5 24.95 -13.5 25.05 -13.6 25.45 -13.6 25.5 -13.55 25.5 -13.5 25.6 -13.5 25.6 -13.55 25.75 -13.55 25.75 -13.6 25.8 -13.65 25.8 -13.7 25.85 -13.75 25.85 -13.9 25.8 -13.95 25.8 -14.25 25.75 -14.25 25.7 -14.3 25.7 -14.35 25.65 -14.35 25.65 -14.4 25.6 -14.45 25.6 -14.5 25.55 -14.5 25.55 -14.55 25.5 -14.55 25.5 -14.7 25.4 -14.8 25.15 -14.85 25.1 -14.85 25.1 -14.9 25.05 -14.9 25.05 -14.95 25.0 -14.95 24.95 -15.0 24.9 -15.0 24.85 -15.05 24.7 -15.05 24.7 -15.1 24.65 -15.1 24.3 -15.05 24.2 -15.1 24.15 -15.15 24.05 -15.15 24.05 -15.2 23.95 -15.3 23.85 -15.35 23.8 -15.4 23.4 -15.4 23.35 -15.35 23.3 -15.35 23.25 -15.3 23.2 -15.3 23.2 -15.25 23.1 -15.25 23.0 -15.15 22.95 -15.15 22.95 -15.1 22.9 -15.1 22.9 -14.9 22.85 -14.85 22.85 -14.8 22.8 -14.8 22.8 -14.75 22.7 -14.75 22.7 -14.7 22.65 -14.7 22.65 -14.65 22.6 -14.65 22.6 -14.3 22.55 -14.3 22.55 -14.2 22.5 -14.15 22.35 -14.15 22.35 -14.1 22.25 -14.1 22.05 -14.0 22.05 -13.95 22.0 -13.95 21.9 -13.9 21.65 -13.9 21.5 -14.05 21.5 -14.15 21.55 -14.15 21.55 -14.2 21.65 -14.3 21.65 -14.35 21.7 -14.4 21.7 -14.45 21.75 -14.45 21.75 -14.55 21.7 -14.55 21.7 -14.6 21.65 -14.6 21.65 -14.55 21.6 -14.55 21.6 -14.5 21.55 -14.5 21.5 -14.45 21.3 -14.45 21.25 -14.5 21.25 -14.55 21.2 -14.6 21.2 -14.65 21.05 -14.65 21.05 -14.7 20.85 -14.9 20.85 -14.95 20.8 -14.95 20.8 -15.0 20.75 -15.0 20.75 -15.05 20.7 -15.0 20.7 -15.05 20.65 -15.05 20.6 -15.1 20.55 -15.1 20.5 -15.15 20.4 -15.15 20.4 -15.2 20.3 -15.2 20.3 -15.25 20.25 -15.25 20.25 -15.3 20.2 -15.3 20.2 -15.35 20.1 -15.35 20.1 -15.4 19.95 -15.4 19.95 -15.35 19.9 -15.3 19.9 -15.25 19.85 -15.25 19.85 -15.15 19.8 -15.15 19.8 -15.05 19.75 -15.0 19.75 -14.95 19.7 -14.9 19.7 -14.85 19.65 -14.85 19.65 -14.75 19.6 -14.75 19.6 -14.55 19.65 -14.55 19.65 -14.5 19.7 -14.45 19.7 -14.15 19.65 -14.1 19.65 -14.05 19.6 -14.05 19.6 -14.0 19.55 -14.0 19.5 -13.95 19.45 -13.95 19.4 -13.9 19.4 -13.7 19.45 -13.7 19.45 -13.6 19.5 -13.6 19.5 -13.55 19.55 -13.5 19.6 -13.5 19.6 -13.3 19.55 -13.3 19.55 -13.2 19.5 -13.2 19.5 -13.15 19.45 -13.15 19.45 -13.1 19.4 -13.1 19.4 -13.05 19.35 -13.05 19.3 -13.0 19.2 -12.95 19.1 -12.95 19.1 -13.0 19.05 -13.0 19.05 -13.05 18.95 -13.05 18.95 -13.1 18.85 -13.1 18.85 -13.15 18.75 -13.15 18.75 -13.2 18.6 -13.2 18.55 -13.25 18.55 -13.1 18.5 -13.1 18.5 -13.05 18.45 -13.05 18.45 -13.2 18.5 -13.25 18.5 -13.35 18.65 -13.35 18.7 -13.3 18.75 -13.3 18.8 -13.25 18.85 -13.25 Q18.9 -13.2 18.95 -13.15 L19.0 -13.15 19.05 -13.1 19.1 -13.1 19.1 -13.05 19.25 -13.05 19.35 -13.1 19.4 -13.1 19.4 -13.15 19.45 -13.2 19.45 -13.25 19.5 -13.25 19.5 -13.45 19.45 -13.45 19.45 -13.55 19.4 -13.55 19.4 -13.6 19.35 -13.6 19.35 -13.8 19.3 -13.85 19.3 -14.0 19.35 -14.05 19.4 -14.05 19.4 -14.1 Q19.45 -14.1 19.5 -14.1 L19.55 -14.15 19.6 -14.15 19.6 -14.3 19.65 -14.35 19.65 -14.4 19.6 -14.45 19.55 -14.45 19.55 -14.6 19.5 -14.6 19.5 -14.7 19.45 -14.75 19.3 -14.75 19.2 -14.65 19.1 -14.6 19.0 -14.6 18.95 -14.65 18.9 -14.65 18.8 -14.7 18.75 -14.7 18.75 -14.75 18.7 -14.75 18.7 -14.8 18.55 -14.8 18.5 -14.85 18.5 -14.9 18.45 -14.95 18.45 -15.05 18.4 -15.1 18.4 -15.15 18.35 -15.15 18.35 -15.6 18.4 -15.65 18.45 -15.65 18.45 -16.35 18.35 -16.35 18.3 -16.3 18.25 -16.35 18.25 -16.45 18.2 -16.4 18.2 -16.35 18.15 -16.35 18.2 -16.4 18.15 -16.45 18.15 -17.1 18.2 -17.1 18.2 -17.3 18.15 -17.35 18.15 -17.4 18.2 -17.45 18.2 -17.75 18.25 -17.75 18.25 -17.85 18.3 -17.85 18.3 -17.9 18.55 -17.9 18.6 -17.85 18.7 -17.85 18.75 -17.9 18.75 -18.0 18.7 -18.0 18.7 -18.05 18.55 -18.05 18.5 -18.0 18.4 -18.0 18.4 -18.05 18.3 -18.05 18.3 -18.1 18.25 -18.1 18.25 -18.2 18.2 -18.2 18.2 -18.65 18.15 -18.65 18.15 -18.75 18.1 -18.75 18.1 -18.85 18.0 -18.85 18.0 -18.8 17.9 -18.8 17.9 -18.75 17.7 -18.75 17.6 -18.7 17.55 -18.65 17.45 -18.65 17.45 -18.7 17.35 -18.7 17.35 -18.85 17.3 -18.9 17.15 -18.9 17.15 -18.85 17.1 -18.85 17.05 -18.8 17.05 -18.75 17.0 -18.75 17.0 -18.7 16.95 -18.7 16.95 -18.8 17.0 -18.8 17.05 -18.9 17.1 -18.95 17.1 -19.0 17.3 -19.0 17.35 -18.95 17.35 -18.9 17.4 -18.9 17.4 -18.75 17.45 -18.75 17.45 -18.7 17.55 -18.7 17.6 -18.75 17.65 -18.75 17.75 -18.85 17.85 -18.85 17.9 -18.9 17.95 -18.9 18.0 -18.95 18.0 -19.0 18.05 -19.0 18.1 -18.95 18.15 -18.95 18.15 -18.85 18.25 -18.75 18.25 -18.65 18.3 -18.65 18.3 -18.15 18.35 -18.15 18.35 -18.1 18.4 -18.05 18.5 -18.05 18.55 -18.1 18.7 -18.1 18.7 -18.25 18.65 -18.25 18.65 -18.45 18.7 -18.45 18.7 -18.5 18.75 -18.5 18.8 -18.55 18.9 -18.55 18.95 -18.6 19.0 -18.6 19.0 -18.7 19.05 -18.7 19.05 -18.75 19.1 -18.8 19.1 -18.95 19.15 -19.0 19.15 -19.1 19.2 -19.1 19.2 -19.2 19.25 -19.2 19.25 -19.25 19.4 -19.25 19.4 -19.2 19.45 -19.2 19.45 -19.1 19.5 -19.1 19.55 -19.15 19.6 -19.15 19.6 -19.25 19.65 -19.25 19.65 -19.3 19.7 -19.35 19.7 -19.45 19.7 -19.65 19.65 -19.65 19.65 -19.85 19.6 -19.85 19.6 -19.9 19.65 -19.9 19.65 -20.05 19.7 -20.05 19.7 -20.1 19.75 -20.1 19.8 -20.15 20.0 -20.15 20.1 -20.2 20.15 -20.25 20.2 -20.25 20.2 -20.3 20.25 -20.35 20.3 -20.35 20.3 -20.65 20.35 -20.65 20.35 -20.85 20.45 -20.95 20.45 -21.05 M16.35 -17.9 L16.35 -17.8 16.4 -17.8 16.4 -17.7 16.55 -17.7 16.6 -17.65 16.7 -17.65 16.75 -17.6 16.75 -17.5 16.8 -17.5 16.8 -17.4 16.85 -17.4 16.85 -17.25 16.9 -17.25 16.9 -17.0 16.85 -17.0 16.85 -17.1 16.8 -17.15 16.8 -17.25 16.75 -17.25 16.75 -17.4 16.7 -17.45 16.65 -17.45 16.65 -17.5 16.55 -17.55 16.5 -17.55 16.35 -17.6 16.35 -17.65 16.3 -17.65 16.3 -17.9 16.35 -17.9 M19.7 -18.7 L19.7 -18.65 19.65 -18.65 19.65 -18.7 19.7 -18.7 M5.0 -30.0 L5.1 -30.05 5.15 -30.05 5.2 -30.0 5.25 -30.0 5.3 -29.95 5.2 -29.95 5.2 -30.0 5.0 -30.0 M0.05 -28.95 L0.15 -28.9 0.2 -28.85 0.35 -28.85 0.35 -28.8 0.4 -28.8 0.4 -28.75 0.5 -28.75 0.6 -28.65 0.6 -28.6 0.65 -28.55 0.65 -28.5 0.8 -28.5 0.85 -28.45 0.9 -28.45 0.9 -28.4 1.05 -28.4 1.05 -28.35 1.1 -28.35 1.1 -28.3 0.9 -28.3 0.8 -28.35 0.8 -28.4 0.75 -28.4 0.6 -28.45 0.6 -28.5 0.55 -28.5 0.55 -28.55 0.5 -28.6 0.5 -28.65 0.45 -28.7 0.3 -28.7 0.25 -28.75 0.1 -28.75 0.0 -28.8 -0.05 -28.85 -0.15 -28.75 -0.2 -28.75 -0.2 -28.55 -0.25 -28.5 -0.25 -28.45 -0.3 -28.4 -0.3 -28.35 -0.35 -28.35 -0.35 -28.3 -0.4 -28.3 -0.45 -28.35 -0.5 -28.35 -0.5 -28.4 -0.55 -28.4 -0.55 -28.35 -0.6 -28.35 -0.6 -28.3 -0.65 -28.3 -0.65 -28.25 -0.7 -28.2 -0.75 -28.2 -0.75 -28.25 -0.7 -28.3 -0.7 -28.35 -0.65 -28.4 -0.6 -28.4 -0.6 -28.45 -0.35 -28.45 -0.35 -28.5 -0.3 -28.5 -0.3 -28.7 -0.25 -28.7 -0.25 -28.75 -0.2 -28.8 -0.2 -28.85 -0.15 -28.85 -0.15 -28.9 -0.1 -28.9 -0.05 -28.95 0.05 -28.95 M0.1 -26.9 L0.2 -26.9 0.2 -26.85 0.25 -26.85 0.25 -26.6 0.2 -26.55 0.2 -26.4 0.15 -26.35 0.15 -26.1 0.2 -26.1 0.15 -26.05 0.15 -25.8 0.1 -25.8 0.1 -25.9 0.15 -25.9 0.15 -26.05 0.1 -26.05 0.1 -26.15 0.05 -26.15 0.05 -26.2 0.1 -26.25 0.1 -26.55 0.15 -26.55 0.15 -26.8 0.05 -26.8 0.05 -26.85 -0.25 -26.85 -0.25 -26.8 -0.3 -26.75 -0.5 -26.75 -0.5 -26.8 -0.55 -26.75 -0.6 -26.75 -0.6 -26.7 -0.65 -26.7 -0.65 -26.75 -0.6 -26.75 -0.6 -26.8 -0.55 -26.8 -0.55 -26.85 -0.35 -26.85 -0.3 -26.9 -0.25 -26.9 -0.25 -26.95 0.1 -26.95 0.1 -26.9 M0.05 -25.7 L0.05 -25.6 0.0 -25.55 0.0 -25.5 -0.05 -25.5 -0.05 -25.4 -0.1 -25.35 -0.1 -25.3 -0.15 -25.25 -0.15 -25.1 -0.2 -25.1 -0.2 -25.0 -0.25 -25.0 -0.25 -24.95 -0.3 -24.95 -0.3 -24.8 -0.35 -24.8 -0.35 -24.7 -0.4 -24.7 -0.4 -24.6 -0.45 -24.6 -0.45 -24.5 -0.5 -24.45 -0.5 -24.15 -0.55 -24.15 -0.6 -24.1 -0.6 -24.05 -0.65 -24.05 -0.75 -23.95 -0.8 -23.95 -0.8 -23.9 -0.95 -23.85 -1.05 -23.85 -1.05 -23.7 -1.1 -23.65 -1.1 -23.55 -1.15 -23.55 -1.15 -23.5 -1.15 -23.45 -1.25 -23.35 -1.25 -23.1 -1.2 -23.1 -1.2 -23.05 -1.1 -23.0 -1.05 -22.9 -1.05 -22.85 -1.0 -22.8 -1.0 -22.75 -0.9 -22.75 -0.9 -22.7 -0.85 -22.7 -0.8 -22.75 -0.7 -22.75 -0.7 -22.7 -0.65 -22.7 -0.65 -22.6 -0.7 -22.55 -0.7 -22.35 -0.75 -22.3 -0.75 -21.85 -0.9 -21.7 -1.0 -21.65 -1.05 -21.6 -1.05 -21.55 -1.1 -21.55 -1.1 -21.6 -1.15 -21.6 -1.1 -21.7 -1.05 -21.75 -1.0 -21.75 -1.0 -21.8 -0.95 -21.8 -0.85 -21.9 -0.85 -22.1 -0.8 -22.15 -0.8 -22.45 -0.75 -22.45 -0.75 -22.6 -0.95 -22.6 -1.0 -22.65 -1.0 -22.7 -1.05 -22.7 -1.05 -22.75 -1.1 -22.8 -1.1 -22.85 -1.2 -22.95 -1.2 -23.0 -1.25 -23.0 -1.35 -23.1 -1.35 -23.3 -1.4 -23.3 -1.4 -23.25 -1.6 -23.25 -1.65 -23.3 -1.7 -23.3 -1.75 -23.35 -1.75 -23.45 -1.8 -23.45 -1.8 -23.2 -1.75 -23.2 -1.7 -23.1 -1.65 -23.1 -1.65 -23.0 -1.6 -23.0 -1.6 -22.85 -1.65 -22.85 -1.65 -22.65 -1.7 -22.6 -1.7 -22.45 -1.75 -22.4 -1.75 -22.25 -1.8 -22.2 -1.8 -22.15 -1.95 -22.15 -2.0 -22.2 -2.1 -22.2 -2.1 -22.15 -2.15 -22.15 -2.2 -22.1 -2.3 -22.1 -2.3 -22.0 -2.35 -22.0 -2.35 -21.95 -2.4 -21.9 -2.4 -22.1 -2.35 -22.1 -2.35 -22.2 -2.25 -22.2 -2.2 -22.15 -2.2 -22.2 -2.15 -22.2 -2.1 -22.25 -1.95 -22.25 -1.9 -22.2 -1.85 -22.2 -1.85 -22.3 -1.8 -22.3 -1.8 -22.55 -1.75 -22.6 -1.75 -22.65 -1.7 -22.7 -1.7 -22.9 -1.65 -22.9 -1.65 -22.95 -1.7 -22.95 -1.7 -23.05 -1.75 -23.05 -1.8 -23.1 -1.8 -23.15 -1.85 -23.2 -1.85 -23.45 -1.8 -23.5 -1.8 -23.55 -1.75 -23.6 -1.7 -23.55 -1.7 -23.45 -1.65 -23.4 -1.6 -23.4 -1.6 -23.35 -1.45 -23.35 -1.45 -23.3 -1.4 -23.35 -1.35 -23.35 -1.35 -23.4 -1.3 -23.4 -1.3 -23.5 -1.2 -23.6 -1.15 -23.6 -1.15 -23.7 -1.1 -23.7 -1.1 -23.9 -1.05 -23.9 -1.0 -23.95 -0.8 -23.95 -0.8 -24.0 -0.75 -24.0 -0.75 -24.05 -0.7 -24.05 -0.7 -24.1 -0.6 -24.2 -0.6 -24.25 -0.55 -24.3 -0.55 -24.5 -0.5 -24.5 -0.5 -24.6 -0.45 -24.65 -0.45 -24.7 -0.4 -24.75 -0.4 -24.85 -0.35 -24.85 -0.4 -24.9 -0.35 -24.9 -0.35 -25.0 -0.3 -25.05 -0.3 -25.1 -0.25 -25.15 -0.25 -25.25 -0.2 -25.25 -0.2 -25.3 -0.15 -25.35 -0.15 -25.4 -0.1 -25.4 -0.1 -25.55 -0.05 -25.55 -0.05 -25.6 0.05 -25.7 M17.65 -15.0 L17.65 -14.95 17.7 -14.9 17.7 -14.75 17.75 -14.7 17.75 -14.4 17.8 -14.4 17.8 -14.05 17.75 -14.05 17.75 -14.3 17.7 -14.35 17.7 -14.6 17.65 -14.6 17.65 -15.0 M21.65 -27.1 L21.75 -27.1 21.75 -27.05 21.8 -27.05 21.8 -27.0 21.85 -27.0 21.85 -26.8 21.9 -26.8 21.9 -26.75 21.85 -26.7 21.85 -26.75 21.8 -26.75 21.8 -26.9 21.75 -26.95 21.75 -27.0 21.7 -27.0 21.7 -27.05 21.65 -27.05 21.65 -27.1 M23.4 -26.0 Q23.5 -25.95 23.55 -25.85 L23.75 -25.65 23.75 -25.6 23.8 -25.6 23.8 -25.5 23.85 -25.5 23.85 -25.45 23.9 -25.45 23.9 -25.3 24.0 -25.3 24.0 -25.25 24.1 -25.15 24.1 -25.05 24.05 -25.0 24.0 -25.0 24.0 -24.95 23.75 -24.95 23.75 -24.9 23.65 -24.9 23.65 -24.95 23.6 -24.95 23.55 -24.9 23.5 -24.9 23.5 -24.85 23.55 -24.85 23.55 -24.8 23.7 -24.8 23.75 -24.75 23.75 -24.7 23.8 -24.7 23.8 -24.6 23.75 -24.6 23.75 -24.45 23.65 -24.35 23.65 -24.3 23.65 -24.45 23.7 -24.5 23.7 -24.65 23.65 -24.7 23.5 -24.7 23.5 -24.8 23.45 -24.8 23.45 -24.95 23.55 -25.05 23.95 -25.05 24.0 -25.1 23.95 -25.15 23.9 -25.2 23.9 -25.3 23.85 -25.35 23.85 -25.4 23.75 -25.5 23.75 -25.55 23.7 -25.55 23.7 -25.6 23.4 -25.9 23.4 -25.95 23.35 -25.95 23.35 -26.0 23.4 -26.0 M27.25 -12.3 L27.3 -12.3 27.3 -11.95 27.25 -11.95 27.25 -11.9 27.25 -11.8 27.2 -11.75 27.2 -11.6 27.0 -11.4 26.95 -11.4 26.95 -11.5 26.9 -11.55 26.9 -11.6 26.85 -11.6 26.85 -11.65 26.8 -11.7 26.8 -11.75 26.6 -11.7 26.55 -11.7 26.55 -11.5 26.6 -11.5 26.6 -11.4 26.65 -11.4 26.65 -11.3 26.7 -11.25 26.7 -11.1 26.75 -11.1 26.75 -11.0 26.8 -10.95 26.8 -10.9 26.9 -10.9 26.95 -10.85 27.05 -10.95 27.05 -11.0 27.15 -11.0 27.15 -11.05 27.25 -11.15 27.3 -11.15 27.35 -11.2 27.5 -11.2 27.7 -11.0 27.7 -10.95 27.85 -10.95 27.85 -10.9 27.95 -10.9 27.95 -10.95 28.0 -10.95 28.05 -11.0 28.25 -11.0 28.25 -10.95 28.3 -10.9 28.3 -10.85 28.35 -10.85 28.4 -10.8 28.4 -10.75 28.45 -10.7 28.45 -10.65 28.5 -10.65 28.5 -10.55 28.55 -10.5 28.55 -10.45 28.6 -10.45 28.6 -10.3 28.65 -10.3 28.65 -10.15 28.7 -10.15 28.7 -10.0 28.75 -10.0 28.7 -9.95 28.75 -9.95 28.75 -9.85 28.8 -9.85 28.8 -9.75 28.85 -9.75 28.85 -9.5 28.9 -9.5 28.9 -9.4 28.95 -9.4 28.95 -9.35 28.9 -9.35 28.9 -9.05 28.85 -9.05 28.65 -9.0 28.65 -9.05 28.6 -9.05 28.6 -9.1 28.5 -9.1 28.5 -9.15 28.4 -9.15 28.4 -9.25 28.35 -9.25 28.35 -9.55 28.4 -9.55 28.4 -9.75 28.45 -9.8 28.4 -9.8 28.4 -10.0 28.35 -10.0 28.35 -10.05 28.3 -10.05 28.3 -10.1 28.2 -10.1 28.2 -10.15 28.05 -10.15 28.0 -10.1 28.0 -10.05 27.95 -10.0 27.75 -10.0 27.75 -9.95 27.65 -9.95 27.6 -10.0 27.55 -10.0 27.5 -10.05 27.45 -10.05 27.45 -9.95 27.4 -9.95 27.4 -9.9 27.35 -9.9 27.35 -9.95 27.4 -9.95 27.4 -10.05 27.45 -10.05 27.45 -10.1 27.5 -10.05 27.6 -10.05 27.6 -10.0 27.75 -10.0 27.75 -10.05 27.9 -10.05 27.9 -10.1 27.95 -10.1 27.95 -10.15 28.0 -10.2 28.05 -10.2 28.05 -10.25 28.2 -10.25 28.2 -10.2 28.25 -10.2 28.35 -10.1 28.4 -10.1 28.4 -10.0 28.45 -9.95 28.45 -9.85 28.5 -9.85 28.5 -9.55 28.45 -9.5 28.45 -9.25 28.55 -9.25 28.55 -9.2 28.6 -9.2 28.6 -9.15 28.65 -9.15 28.65 -9.1 28.85 -9.1 28.85 -9.15 28.8 -9.15 28.8 -9.3 28.85 -9.3 28.85 -9.45 28.8 -9.5 28.8 -9.7 28.75 -9.7 28.75 -9.8 28.7 -9.8 28.7 -9.85 28.65 -9.9 28.65 -10.05 28.6 -10.1 28.6 -10.15 28.55 -10.15 28.55 -10.3 28.5 -10.35 28.5 -10.45 28.45 -10.45 28.45 -10.55 28.4 -10.6 28.4 -10.65 28.35 -10.65 28.35 -10.7 28.2 -10.85 28.2 -10.9 28.15 -10.9 28.15 -10.85 28.1 -10.9 28.05 -10.9 28.05 -10.85 28.0 -10.85 27.95 -10.8 27.85 -10.8 27.8 -10.85 27.7 -10.85 27.65 -10.9 27.6 -10.9 27.6 -10.95 27.55 -11.0 27.5 -11.0 27.5 -11.05 27.45 -11.1 27.35 -11.1 27.35 -11.05 27.3 -11.05 27.2 -10.95 27.15 -10.95 27.05 -10.85 27.05 -10.8 26.75 -10.8 26.75 -10.95 26.7 -10.95 26.7 -11.1 26.65 -11.1 26.65 -11.25 26.6 -11.25 26.6 -11.4 26.55 -11.4 26.55 -11.45 26.45 -11.45 26.45 -11.5 26.4 -11.5 26.4 -11.55 26.3 -11.65 26.25 -11.65 26.25 -11.7 26.2 -11.7 26.1 -11.65 26.05 -11.65 25.7 -11.3 25.65 -11.3 25.65 -11.25 25.6 -11.2 25.6 -11.15 25.55 -11.15 25.55 -11.1 25.5 -11.1 25.5 -11.05 25.45 -11.0 25.35 -11.0 25.3 -10.95 25.25 -10.95 25.25 -10.85 25.2 -10.8 25.2 -10.75 25.15 -10.7 25.15 -10.45 25.1 -10.4 25.1 -10.3 25.05 -10.3 25.05 -10.15 25.0 -10.15 25.0 -10.1 24.95 -10.05 24.95 -10.0 24.8 -9.85 24.8 -9.8 24.75 -9.8 24.75 -9.75 24.7 -9.75 24.7 -9.7 24.65 -9.7 24.6 -9.65 24.55 -9.65 24.55 -9.8 24.15 -9.8 24.15 -9.65 24.1 -9.65 24.1 -9.5 24.05 -9.5 24.05 -9.4 24.0 -9.4 24.0 -9.25 23.95 -9.25 23.9 -9.2 23.9 -9.15 23.85 -9.15 23.85 -9.1 23.8 -9.1 23.75 -9.05 23.7 -9.05 23.65 -9.0 23.45 -8.95 23.45 -8.75 23.5 -8.7 23.5 -8.6 23.55 -8.6 23.55 -8.5 23.6 -8.45 23.65 -8.45 23.7 -8.4 23.75 -8.4 23.75 -8.45 23.8 -8.5 23.85 -8.5 23.9 -8.55 23.95 -8.55 23.95 -8.6 24.05 -8.7 24.15 -8.7 24.15 -8.75 24.2 -8.75 24.25 -8.7 24.3 -8.6 24.3 -8.5 24.35 -8.45 24.35 -8.2 24.4 -8.2 24.4 -8.15 24.35 -8.15 24.35 -8.3 24.3 -8.3 24.3 -8.35 24.25 -8.4 24.25 -8.55 24.2 -8.55 24.2 -8.6 24.15 -8.65 24.1 -8.6 24.05 -8.6 24.0 -8.55 24.0 -8.5 23.95 -8.5 23.9 -8.45 23.85 -8.45 23.75 -8.35 23.65 -8.35 23.6 -8.4 23.5 -8.4 23.5 -8.55 23.45 -8.55 23.45 -8.6 23.4 -8.65 23.4 -8.7 23.35 -8.7 23.35 -9.1 23.65 -9.1 23.75 -9.15 23.75 -9.2 23.8 -9.2 23.85 -9.25 23.85 -9.3 23.9 -9.35 23.9 -9.4 23.95 -9.45 23.95 -9.55 24.0 -9.55 24.0 -9.7 24.05 -9.7 24.05 -9.95 24.0 -9.95 24.0 -10.2 23.95 -10.25 23.95 -10.3 23.9 -10.35 23.9 -10.4 23.85 -10.45 23.85 -10.65 23.8 -10.65 23.8 -10.75 23.75 -10.8 23.75 -10.95 23.8 -10.95 23.8 -11.0 23.85 -11.0 23.9 -11.05 24.35 -11.05 24.45 -11.1 24.5 -11.1 24.55 -11.15 24.55 -11.2 24.6 -11.2 24.6 -11.3 24.65 -11.35 24.65 -11.45 24.7 -11.45 24.7 -11.55 24.75 -11.55 24.8 -11.6 24.95 -11.6 24.95 -11.55 25.0 -11.6 25.05 -11.6 25.05 -11.75 25.1 -11.75 25.1 -11.95 25.15 -11.95 25.15 -12.5 25.1 -12.55 25.1 -12.6 25.05 -12.65 25.05 -12.75 25.1 -12.75 25.1 -12.7 25.2 -12.6 25.2 -11.95 25.15 -11.95 25.15 -11.7 25.1 -11.7 25.1 -11.6 25.05 -11.55 25.05 -11.5 25.0 -11.5 25.0 -11.45 24.8 -11.45 24.8 -11.3 24.75 -11.3 24.75 -11.25 24.65 -11.15 24.6 -11.05 24.55 -11.0 24.45 -10.95 24.15 -10.95 24.1 -10.9 23.85 -10.9 23.85 -10.85 23.9 -10.8 23.9 -10.65 23.95 -10.65 23.95 -10.45 24.0 -10.45 24.0 -10.35 24.05 -10.35 24.05 -10.2 24.1 -10.2 24.1 -9.95 24.15 -9.95 24.15 -9.8 24.2 -9.85 24.6 -9.85 24.65 -9.8 24.7 -9.8 24.7 -9.85 24.75 -9.9 24.75 -9.95 24.8 -9.95 24.85 -10.0 24.85 -10.05 24.9 -10.05 24.9 -10.1 24.95 -10.1 24.95 -10.2 25.0 -10.2 25.0 -10.3 25.05 -10.3 25.05 -10.45 25.1 -10.45 25.1 -10.6 25.15 -10.65 25.15 -10.85 25.2 -10.9 25.2 -11.0 25.25 -11.05 25.3 -11.05 25.35 -11.1 25.45 -11.1 25.45 -11.15 25.5 -11.15 25.5 -11.2 Q25.55 -11.2 25.55 -11.25 L25.55 -11.3 25.6 -11.3 25.6 -11.35 25.65 -11.35 25.9 -11.6 25.9 -11.65 25.95 -11.65 25.95 -11.7 26.0 -11.7 26.05 -11.75 26.35 -11.75 26.35 -11.7 26.4 -11.7 26.4 -11.65 26.45 -11.65 26.45 -11.6 26.5 -11.6 26.5 -11.75 26.55 -11.75 26.6 -11.8 26.8 -11.75 26.85 -11.7 26.85 -11.65 26.9 -11.6 26.95 -11.6 26.95 -11.55 27.0 -11.55 27.0 -11.5 27.1 -11.6 27.15 -11.6 27.15 -11.95 27.2 -12.0 27.2 -12.25 27.25 -12.25 27.25 -12.3 M27.85 -9.1 L27.9 -9.1 28.0 -9.05 28.05 -9.0 28.1 -9.0 28.1 -8.95 28.15 -8.95 28.15 -8.9 28.2 -8.85 28.2 -8.8 28.25 -8.75 28.25 -8.65 28.2 -8.65 28.2 -8.7 28.15 -8.7 28.15 -8.8 28.05 -8.9 27.95 -8.95 27.9 -8.95 27.85 -9.0 27.75 -9.0 27.75 -8.95 27.7 -8.95 27.7 -8.9 27.65 -8.85 27.65 -8.8 27.6 -8.8 27.6 -8.7 27.55 -8.7 27.55 -8.6 27.5 -8.6 27.5 -8.55 27.45 -8.5 27.45 -8.45 27.4 -8.45 27.4 -8.4 27.2 -8.4 27.15 -8.45 27.15 -9.1 27.2 -9.05 27.2 -8.7 27.15 -8.7 27.15 -8.65 27.2 -8.6 27.2 -8.5 27.35 -8.5 27.35 -8.55 27.4 -8.55 27.4 -8.6 27.45 -8.65 27.45 -8.7 27.5 -8.7 27.5 -8.75 27.55 -8.8 27.55 -8.9 27.6 -8.9 27.6 -8.95 27.65 -9.0 27.65 -9.05 27.7 -9.05 27.7 -9.1 27.85 -9.1 M28.25 -8.5 L28.25 -8.45 28.3 -8.4 28.3 -8.35 28.35 -8.35 28.35 -8.3 28.5 -8.3 28.5 -8.25 28.55 -8.25 28.55 -8.2 28.5 -8.15 28.5 -7.9 28.45 -7.9 28.45 -7.85 28.4 -7.85 28.4 -7.8 28.35 -7.8 28.3 -7.75 28.3 -7.65 28.25 -7.65 28.25 -7.55 28.2 -7.55 28.2 -7.5 28.1 -7.4 28.1 -7.35 28.05 -7.3 28.0 -7.3 28.0 -7.25 27.95 -7.25 27.95 -7.2 27.9 -7.2 27.85 -7.15 27.8 -7.15 27.85 -7.2 27.85 -7.25 27.9 -7.25 27.9 -7.3 28.05 -7.45 28.05 -7.5 28.1 -7.5 28.1 -7.55 28.15 -7.55 28.15 -7.65 28.2 -7.65 28.2 -7.85 28.3 -7.85 28.35 -7.9 28.4 -7.9 28.4 -8.2 28.35 -8.2 28.3 -8.25 28.25 -8.25 28.25 -8.4 28.2 -8.45 28.2 -8.5 28.25 -8.5 M24.3 -8.0 L24.3 -8.1 24.35 -8.15 24.4 -8.15 24.45 -8.1 24.45 -8.0 24.4 -7.95 24.35 -7.95 24.35 -8.0 24.3 -8.0 M24.1 -7.7 L24.1 -7.65 24.15 -7.65 24.1 -7.6 24.05 -7.6 24.05 -7.55 24.0 -7.55 24.0 -7.5 24.05 -7.55 24.25 -7.55 24.25 -7.6 24.35 -7.6 24.35 -7.55 24.4 -7.5 24.4 -7.2 24.35 -7.2 24.35 -6.9 24.3 -6.9 24.3 -6.85 24.25 -6.8 24.25 -6.75 24.2 -6.75 24.2 -6.8 24.25 -6.85 24.25 -7.15 24.3 -7.2 24.3 -7.35 24.35 -7.35 24.35 -7.4 24.3 -7.45 24.3 -7.5 24.1 -7.5 24.1 -7.45 24.0 -7.45 24.0 -7.4 23.95 -7.45 23.95 -7.55 24.0 -7.6 24.0 -7.65 24.05 -7.7 24.1 -7.7 M-24.35 -16.5 L-24.35 -16.55 -24.3 -16.55 -24.3 -16.6 -24.15 -16.6 -24.1 -16.55 -23.8 -16.55 -23.75 -16.5 -23.75 -16.45 -23.7 -16.45 -23.7 -16.4 -23.6 -16.3 -23.6 -16.2 -23.55 -16.2 -23.5 -16.15 -23.45 -16.15 -23.3 -16.0 -23.25 -16.0 -23.2 -15.95 -23.1 -15.95 -23.1 -15.9 -22.9 -15.9 -22.9 -15.95 -22.85 -15.95 Q-22.8 -16.0 -22.75 -16.0 L-22.75 -16.05 -22.65 -16.05 -22.65 -16.0 -22.6 -16.0 -22.6 -15.9 -22.75 -15.9 -22.85 -15.85 -22.85 -15.8 -23.1 -15.8 -23.15 -15.85 -23.2 -15.85 -23.3 -15.95 -23.35 -15.95 -23.4 -16.05 -23.45 -16.1 -23.5 -16.1 -23.5 -16.15 -23.55 -16.15 -23.6 -16.2 -23.65 -16.2 -23.65 -16.25 -23.7 -16.25 -23.7 -16.3 -23.75 -16.3 -23.8 -16.35 -23.8 -16.4 -23.9 -16.5 -23.95 -16.5 -24.0 -16.55 -24.25 -16.55 -24.25 -16.5 -24.3 -16.5 -24.3 -16.35 -24.35 -16.35 -24.4 -16.3 -24.4 -16.2 -24.45 -16.2 -24.45 -16.15 -24.5 -16.1 -24.55 -16.1 -24.55 -16.05 -24.65 -16.1 -25.0 -16.1 -25.05 -16.15 -24.95 -16.15 -24.9 -16.2 -24.8 -16.2 -24.7 -16.15 -24.6 -16.15 -24.55 -16.2 -24.5 -16.2 -24.5 -16.3 -24.45 -16.3 -24.45 -16.35 -24.4 -16.4 -24.35 -16.4 -24.35 -16.5 M-22.2 -15.45 L-22.2 -15.5 -22.15 -15.45 -22.15 -15.35 -22.1 -15.3 -22.15 -15.3 -22.15 -15.35 -22.2 -15.4 -22.2 -15.45 M-21.85 -14.85 L-21.85 -14.65 -21.9 -14.65 -21.85 -14.6 -21.8 -14.6 -21.8 -14.55 -21.65 -14.55 -21.65 -14.5 -21.7 -14.5 -21.65 -14.45 -21.65 -14.35 -21.6 -14.3 -21.6 -14.25 -21.55 -14.25 -21.55 -14.0 -21.6 -14.0 -21.6 -13.85 -21.55 -13.85 -21.55 -13.75 -21.5 -13.75 -21.5 -13.7 -21.45 -13.7 -21.45 -13.65 -21.35 -13.65 -21.35 -13.7 -21.25 -13.7 -21.25 -13.75 -21.2 -13.75 -21.15 -13.8 -21.15 -13.85 -21.1 -13.85 -21.05 -13.9 -21.0 -13.9 -21.05 -13.85 -21.05 -13.75 -21.15 -13.65 -21.2 -13.65 -21.2 -13.6 -21.3 -13.6 -21.3 -13.55 -21.35 -13.55 -21.35 -13.6 -21.5 -13.6 -21.55 -13.65 -21.55 -13.7 -21.6 -13.7 -21.6 -13.75 -21.65 -13.75 -21.65 -13.8 -21.7 -13.8 -21.7 -13.95 -21.65 -13.95 -21.65 -14.1 -21.6 -14.15 -21.65 -14.2 -21.65 -14.35 -21.7 -14.4 -21.7 -14.45 -21.75 -14.45 -21.75 -14.5 -21.85 -14.5 -21.9 -14.55 -21.9 -14.6 -21.95 -14.65 -21.95 -14.85 -22.0 -14.85 -22.0 -14.95 -22.05 -15.0 -22.05 -15.05 -22.1 -15.1 -22.1 -15.15 -22.0 -15.15 -22.0 -15.1 -21.95 -15.1 -21.95 -15.05 -21.9 -15.0 -21.9 -14.9 -21.85 -14.9 -21.85 -14.85 M-2.4 -26.8 L-2.4 -26.9 -2.25 -26.9 -2.2 -26.85 -2.05 -26.85 -1.95 -26.9 -1.9 -26.9 -1.85 -26.95 -1.8 -26.95 -1.8 -27.05 -1.75 -27.05 -1.75 -27.15 -1.65 -27.25 -1.65 -27.3 -1.6 -27.3 -1.6 -27.4 -1.5 -27.5 -1.5 -27.55 -1.45 -27.6 -1.45 -27.5 -1.5 -27.45 -1.5 -27.4 -1.55 -27.4 -1.55 -27.3 -1.65 -27.2 -1.65 -27.05 -1.7 -27.05 -1.7 -26.95 -1.75 -26.95 -1.75 -26.9 -1.8 -26.9 Q-1.9 -26.85 -1.95 -26.85 L-2.05 -26.85 -2.05 -26.8 -2.3 -26.8 -2.3 -26.7 -2.35 -26.7 -2.35 -26.65 -2.4 -26.6 -2.4 -26.55 -2.45 -26.5 -2.45 -26.3 -2.4 -26.25 -2.2 -26.35 -2.15 -26.35 -2.1 -26.4 -1.9 -26.4 -1.8 -26.3 -1.75 -26.3 -1.75 -26.25 -1.65 -26.2 -1.45 -26.2 -1.4 -26.25 -1.2 -26.35 -1.15 -26.35 -1.05 -26.45 -0.95 -26.45 -0.95 -26.5 -0.9 -26.5 -0.85 -26.55 -0.85 -26.6 -0.75 -26.6 -0.8 -26.55 -0.85 -26.55 -0.85 -26.5 -0.9 -26.5 -0.9 -26.45 -0.95 -26.45 -1.0 -26.4 -1.05 -26.4 -1.05 -26.35 -1.1 -26.35 -1.1 -26.3 Q-1.15 -26.3 -1.2 -26.3 L-1.2 -26.2 -1.3 -26.2 -1.3 -26.15 -1.35 -26.15 -1.45 -26.1 -1.7 -26.1 -1.8 -26.2 -1.85 -26.2 -1.85 -26.25 -1.9 -26.25 -1.95 -26.3 -2.05 -26.3 -2.1 -26.25 -2.15 -26.25 -2.25 -26.15 -2.45 -26.15 -2.5 -26.2 -2.5 -26.3 -2.55 -26.3 -2.55 -26.45 -2.6 -26.45 -2.6 -26.55 -2.55 -26.55 -2.45 -26.65 -2.45 -26.75 -2.4 -26.75 -2.4 -26.8 M-8.7 -18.2 L-8.85 -18.2 -8.85 -18.25 -8.9 -18.3 -8.9 -18.45 -8.95 -18.5 -9.05 -18.5 -9.05 -18.55 -9.1 -18.5 -9.2 -18.55 -9.3 -18.55 -9.45 -18.6 -9.75 -18.6 -9.75 -18.55 -9.8 -18.55 -9.8 -18.5 -9.85 -18.5 -9.85 -18.45 -9.9 -18.4 -9.9 -18.0 -9.95 -17.95 -9.95 -17.9 -10.0 -17.85 -10.0 -17.9 -10.05 -17.85 -10.05 -17.9 -10.0 -17.9 -10.0 -18.0 -9.95 -18.0 -9.95 -18.3 -10.0 -18.3 -10.0 -18.4 -9.95 -18.4 -9.95 -18.5 -9.9 -18.5 -9.9 -18.55 -9.85 -18.6 -9.8 -18.6 -9.8 -18.65 -9.65 -18.65 -9.65 -18.6 -9.6 -18.6 -9.6 -18.65 -9.45 -18.65 -9.45 -18.6 -9.05 -18.6 -9.0 -18.55 -8.95 -18.55 -8.95 -18.5 -8.85 -18.5 -8.85 -18.4 -8.8 -18.4 -8.8 -18.35 -8.75 -18.3 -8.5 -18.3 -8.5 -18.25 -8.45 -18.25 -8.45 -18.15 -8.4 -18.1 -8.4 -18.05 -8.35 -18.05 -8.35 -17.95 -8.3 -17.95 -8.3 -17.9 -8.25 -17.9 -8.25 -17.7 -8.2 -17.65 -7.9 -17.65 -7.75 -17.7 -7.65 -17.7 -7.65 -17.75 -7.6 -17.75 -7.6 -17.8 -7.55 -17.8 -7.55 -17.85 -7.5 -17.85 -7.4 -17.95 -7.35 -17.95 -7.35 -18.0 -7.1 -18.0 -7.1 -17.95 -6.85 -17.9 -6.8 -17.9 -6.8 -17.95 -6.75 -17.95 -6.75 -18.0 -6.5 -18.0 -6.5 -18.05 -5.9 -18.05 -5.9 -18.0 -6.05 -18.0 -6.5 -17.95 -6.7 -17.95 -6.8 -17.85 -7.15 -17.85 -7.15 -17.95 -7.25 -17.95 -7.25 -17.9 -7.3 -17.9 -7.35 -17.85 -7.4 -17.85 -7.4 -17.8 -7.5 -17.8 -7.5 -17.75 -7.55 -17.75 -7.65 -17.65 -7.65 -17.6 -7.75 -17.6 -7.85 -17.55 -8.05 -17.55 -8.05 -17.5 -8.2 -17.5 -8.2 -17.55 -8.3 -17.55 -8.3 -17.6 -8.35 -17.6 -8.35 -17.75 -8.3 -17.75 -8.3 -17.8 -8.35 -17.85 -8.35 -17.95 -8.4 -17.95 -8.4 -18.0 -8.45 -18.05 -8.45 -18.1 -8.5 -18.1 -8.5 -18.15 -8.55 -18.15 -8.55 -18.2 -8.6 -18.2 -8.6 -18.15 -8.65 -18.15 -8.7 -18.2 M-10.5 -17.25 L-10.45 -17.3 -10.35 -17.35 -10.35 -17.4 -10.2 -17.4 -10.2 -17.45 -10.15 -17.45 -10.35 -17.25 -10.4 -17.25 -10.4 -17.2 -10.45 -17.2 -10.45 -17.15 -10.5 -17.1 -10.55 -17.1 -10.55 -17.05 -10.7 -17.05 -10.7 -17.1 -10.85 -17.15 -10.9 -17.1 -10.95 -17.1 -10.95 -17.05 -11.0 -17.05 -11.0 -17.0 -11.05 -17.0 -11.05 -16.95 -11.1 -16.9 -11.2 -16.9 -11.25 -16.85 -11.3 -16.85 -11.35 -16.9 -11.35 -17.0 -11.4 -17.05 -11.4 -17.15 -11.35 -17.15 -11.35 -17.1 -11.3 -17.1 -11.3 -16.95 -11.1 -16.95 -11.1 -17.0 -11.05 -17.0 -11.05 -17.15 -11.0 -17.15 -11.0 -17.2 -10.95 -17.25 -10.8 -17.25 -10.8 -17.2 -10.65 -17.15 -10.6 -17.15 -10.6 -17.2 -10.55 -17.2 -10.5 -17.25 M-1.45 -21.05 L-1.45 -20.7 -1.4 -20.65 -1.4 -20.35 -1.45 -20.35 -1.45 -20.15 -1.5 -20.15 -1.5 -20.1 -1.55 -20.1 -1.6 -20.05 -1.6 -19.85 -1.65 -19.8 -1.65 -19.75 -1.75 -19.65 -1.8 -19.65 -1.8 -19.6 -1.9 -19.6 -2.05 -19.55 -2.1 -19.6 -2.15 -19.6 -2.15 -19.65 -2.3 -19.7 -2.4 -19.7 -2.4 -19.75 -3.0 -19.7 -3.0 -19.65 -3.1 -19.7 -3.0 -19.7 -2.8 -19.75 -2.45 -19.75 -2.4 -19.8 -2.05 -19.8 -2.05 -19.7 -1.8 -19.7 -1.75 -19.75 -1.7 -19.75 -1.7 -19.9 -1.65 -19.9 -1.65 -19.95 -1.7 -19.95 -1.7 -20.05 -1.65 -20.1 -1.65 -20.15 -1.6 -20.15 -1.6 -20.2 -1.55 -20.2 -1.55 -20.35 -1.5 -20.35 -1.5 -20.5 -1.45 -20.5 -1.45 -20.6 -1.5 -20.65 -1.55 -20.65 -1.55 -20.85 -1.6 -20.85 -1.6 -20.95 -1.45 -21.1 -1.45 -21.05 M-4.4 -20.1 L-4.2 -20.1 -4.2 -20.2 -4.15 -20.2 -4.15 -20.35 -3.95 -20.55 -3.95 -20.5 -4.0 -20.5 -4.0 -20.45 -4.05 -20.4 -4.1 -20.4 -4.1 -20.25 -4.15 -20.25 -4.15 -20.1 -4.2 -20.1 -4.2 -20.05 -4.4 -20.05 -4.4 -19.95 -4.45 -19.95 -4.45 -19.85 -4.5 -19.85 -4.5 -19.8 -4.55 -19.8 -4.55 -19.65 -4.5 -19.65 -4.5 -19.55 -4.45 -19.5 -4.45 -19.45 -4.5 -19.45 -4.5 -19.35 -4.45 -19.3 -4.45 -19.0 -4.5 -18.95 -4.5 -18.85 -4.55 -18.85 -4.55 -18.75 -4.6 -18.75 -4.6 -18.7 -4.5 -18.8 -4.5 -18.85 -4.4 -18.85 -4.4 -18.9 -4.3 -18.9 -4.25 -18.95 -4.25 -19.0 -4.15 -19.0 -4.15 -19.05 -4.1 -19.1 -4.1 -19.25 -4.05 -19.25 -4.05 -19.35 -4.0 -19.4 -4.0 -19.5 -3.95 -19.55 -3.95 -19.6 -3.9 -19.6 -3.9 -19.65 -3.85 -19.65 -3.75 -19.7 -3.55 -19.7 -3.55 -19.65 -3.6 -19.65 -3.65 -19.6 -3.85 -19.6 -3.85 -19.55 -3.9 -19.55 -3.9 -19.4 -3.95 -19.35 -3.95 -19.2 -4.0 -19.2 -4.0 -19.05 -4.05 -19.05 -4.05 -19.0 -4.1 -19.0 -4.1 -18.95 -4.15 -18.95 -4.15 -18.9 -4.25 -18.9 -4.25 -18.85 -4.3 -18.85 -4.3 -18.8 Q-4.35 -18.8 -4.4 -18.75 L-4.45 -18.75 -4.45 -18.7 -4.5 -18.7 -4.5 -18.65 -4.55 -18.65 -4.55 -18.55 -4.6 -18.55 -4.65 -18.5 -4.7 -18.35 -4.75 -18.3 -4.75 -18.2 -4.8 -18.2 -4.8 -18.15 -4.85 -18.15 -5.05 -18.1 -5.15 -18.1 -5.15 -18.15 -5.05 -18.15 -4.9 -18.2 -4.85 -18.2 -4.85 -18.35 -4.8 -18.4 -4.8 -18.45 -4.75 -18.45 -4.75 -18.55 -4.7 -18.55 -4.7 -18.6 -4.65 -18.6 -4.65 -18.65 -4.65 -18.7 -4.6 -18.75 -4.6 -18.85 -4.55 -18.9 -4.55 -19.05 -4.5 -19.1 -4.5 -19.2 -4.55 -19.25 -4.55 -19.55 -4.6 -19.55 -4.6 -19.85 -4.55 -19.85 -4.55 -19.9 -4.45 -20.0 -4.45 -20.05 -4.4 -20.05 -4.4 -20.1 M-19.7 -17.25 L-19.65 -17.3 -19.65 -17.2 -19.7 -17.2 -19.7 -17.15 -19.75 -17.15 -19.75 -17.0 -19.7 -17.0 -19.6 -16.95 -19.55 -16.9 -19.55 -16.8 -19.5 -16.8 -19.5 -16.75 -19.45 -16.7 -19.45 -16.6 -19.4 -16.6 -19.4 -16.45 -19.45 -16.45 -19.45 -16.55 -19.5 -16.55 -19.5 -16.65 -19.55 -16.65 -19.55 -16.7 -19.6 -16.75 -19.6 -16.8 -19.65 -16.8 -19.65 -16.9 -19.75 -16.9 -19.75 -16.95 -19.8 -16.95 -19.8 -17.05 -19.85 -17.1 -19.8 -17.15 -19.8 -17.2 -19.75 -17.2 -19.7 -17.25 M-18.95 -17.65 L-18.9 -17.65 -18.9 -17.6 -18.85 -17.6 -18.85 -17.45 -18.9 -17.45 -18.9 -17.5 -19.0 -17.5 -19.0 -17.55 -19.1 -17.55 -19.15 -17.5 -19.2 -17.5 -19.2 -17.55 -19.15 -17.6 -19.15 -17.65 -19.05 -17.65 -19.05 -17.7 -19.0 -17.7 -19.0 -17.65 -18.95 -17.65 M-18.95 -15.85 L-18.95 -15.8 -18.9 -15.75 -18.9 -15.55 -18.95 -15.5 -18.95 -15.4 -19.0 -15.4 -19.05 -15.35 -19.15 -15.35 -19.15 -15.3 -19.25 -15.3 -19.3 -15.25 -19.35 -15.25 -19.4 -15.2 -19.4 -15.1 -19.45 -15.05 -19.65 -15.05 -19.8 -14.9 -19.8 -14.85 -19.85 -14.85 -19.85 -14.8 -19.9 -14.75 -20.0 -14.75 -20.0 -14.7 -20.05 -14.65 -20.1 -14.65 -20.1 -14.6 -20.15 -14.6 -20.15 -14.5 -20.2 -14.5 -20.2 -14.45 -20.25 -14.4 -20.3 -14.4 -20.3 -14.35 -20.35 -14.35 -20.35 -14.3 -20.4 -14.3 -20.45 -14.25 -20.5 -14.25 -20.5 -14.2 -20.55 -14.2 -20.55 -14.25 -20.5 -14.25 -20.5 -14.3 -20.45 -14.3 -20.45 -14.35 -20.4 -14.35 -20.4 -14.4 -20.35 -14.4 -20.2 -14.55 -20.2 -14.65 -20.15 -14.65 -20.15 -14.7 -20.05 -14.75 -20.0 -14.75 -20.0 -14.8 -19.9 -14.8 -19.9 -14.95 -19.85 -14.95 -19.85 -15.0 -19.8 -15.0 -19.8 -15.05 -19.75 -15.1 -19.65 -15.1 -19.65 -15.15 -19.5 -15.15 -19.45 -15.2 -19.45 -15.3 -19.4 -15.3 -19.3 -15.35 -19.25 -15.4 -19.15 -15.4 -19.1 -15.45 -19.05 -15.45 -19.05 -15.5 -19.0 -15.55 -19.0 -15.65 -18.95 -15.65 -19.0 -15.7 -19.0 -15.9 -18.95 -15.85 M-16.25 -18.75 L-16.15 -18.75 -16.05 -18.85 -16.05 -18.95 -16.0 -18.95 -16.0 -19.0 -15.95 -19.0 -15.95 -19.05 -15.8 -19.05 -15.8 -19.0 -15.7 -19.0 -15.7 -18.95 -15.65 -18.95 -15.65 -18.9 -15.6 -18.85 -15.6 -18.8 -15.55 -18.8 -15.5 -18.75 -15.5 -18.7 -15.45 -18.7 -15.4 -18.65 -15.35 -18.65 -15.3 -18.6 -15.25 -18.6 -15.25 -18.55 -15.35 -18.55 -15.35 -18.6 -15.45 -18.6 -15.5 -18.65 -15.55 -18.65 -15.55 -18.7 -15.6 -18.7 -15.6 -18.75 -15.7 -18.75 -15.7 -18.85 -15.75 -18.85 -15.75 -18.9 -15.85 -18.9 -15.85 -18.95 -15.9 -18.95 -15.95 -18.9 -15.95 -18.8 -16.0 -18.8 -16.0 -18.7 -16.1 -18.7 -16.1 -18.65 -16.3 -18.65 -16.3 -18.6 -16.35 -18.6 -16.35 -18.55 -16.4 -18.55 -16.4 -18.5 -16.45 -18.5 -16.45 -18.55 -16.4 -18.55 -16.4 -18.6 -16.35 -18.6 -16.35 -18.7 -16.3 -18.7 -16.3 -18.75 -16.25 -18.75 M-16.5 -17.8 L-16.35 -17.8 -16.35 -17.75 -16.3 -17.75 -16.3 -17.7 -16.2 -17.7 -16.2 -17.65 -16.15 -17.65 -16.15 -17.4 -16.05 -17.4 -16.05 -17.35 -15.9 -17.35 -15.9 -17.3 -15.75 -17.3 -15.75 -17.4 -15.7 -17.4 -15.65 -17.45 -15.35 -17.45 -15.35 -17.5 -15.3 -17.5 -15.25 -17.55 -15.2 -17.55 -15.1 -17.45 -15.1 -17.15 -15.15 -17.15 -15.15 -17.05 -15.2 -17.0 -15.2 -16.95 -15.25 -16.95 -15.25 -16.85 -15.3 -16.8 -15.3 -16.75 -15.35 -16.75 -15.35 -16.7 -15.55 -16.7 -15.55 -16.65 -15.6 -16.65 -15.7 -16.6 -15.75 -16.6 -15.8 -16.55 -16.05 -16.55 -16.05 -16.5 -16.0 -16.5 -16.05 -16.45 -16.1 -16.45 -16.1 -16.4 -16.15 -16.4 -16.15 -16.55 -16.05 -16.65 -16.0 -16.65 -15.9 -16.6 -15.85 -16.6 -15.85 -16.65 -15.7 -16.65 -15.65 -16.7 -15.6 -16.7 -15.6 -16.8 -15.5 -16.8 -15.5 -16.85 -15.35 -16.85 -15.35 -16.95 -15.3 -16.95 -15.3 -17.0 -15.25 -17.05 -15.25 -17.1 -15.2 -17.1 -15.2 -17.2 -15.15 -17.2 -15.15 -17.45 -15.25 -17.45 -15.3 -17.4 -15.35 -17.4 -15.35 -17.35 -15.4 -17.3 -15.6 -17.3 -15.6 -17.35 -15.65 -17.35 -15.7 -17.3 -15.7 -17.25 -15.95 -17.25 -15.95 -17.3 -16.1 -17.3 -16.1 -17.25 -16.2 -17.25 -16.2 -17.3 -16.25 -17.35 -16.25 -17.6 -16.35 -17.65 -16.35 -17.7 -16.45 -17.7 -16.5 -17.75 -16.55 -17.75 -16.55 -17.8 -16.6 -17.8 -16.6 -17.9 -16.55 -17.9 -16.55 -17.85 -16.5 -17.85 -16.5 -17.8 M-13.1 -22.0 L-13.05 -22.0 -13.0 -21.95 -13.0 -21.9 -12.9 -21.8 -12.8 -21.8 -12.8 -21.75 -12.7 -21.75 -12.7 -21.35 -12.75 -21.35 -12.75 -21.3 -12.7 -21.25 -12.7 -21.2 -12.55 -21.05 -12.55 -20.95 -12.4 -20.95 -12.4 -20.85 -12.35 -20.8 -12.35 -20.7 -12.3 -20.7 -12.3 -20.2 -12.35 -20.15 -12.35 -20.2 -12.4 -20.25 -12.4 -20.4 -12.35 -20.4 -12.35 -20.5 -12.3 -20.5 -12.3 -20.55 -12.35 -20.55 -12.35 -20.65 -12.4 -20.7 -12.4 -20.75 -12.5 -20.75 -12.5 -20.85 -12.6 -20.85 -12.6 -21.0 -12.65 -21.0 -12.65 -21.05 -12.8 -21.2 -12.8 -21.45 -12.75 -21.45 -12.75 -21.6 -12.8 -21.65 -12.85 -21.65 -12.9 -21.7 -12.95 -21.7 -13.0 -21.75 -13.05 -21.75 -13.05 -21.85 -13.1 -21.85 -13.1 -21.9 -13.15 -21.9 -13.15 -21.85 -13.4 -21.85 -13.4 -21.8 -13.45 -21.8 -13.6 -21.75 -13.6 -21.7 -13.65 -21.7 -13.7 -21.65 -13.75 -21.65 -13.75 -21.6 -13.8 -21.6 -13.8 -21.55 -13.85 -21.55 -13.85 -21.45 -13.9 -21.45 -13.9 -21.15 -13.95 -21.15 -13.95 -21.1 -14.0 -21.05 -14.2 -21.05 -14.25 -21.1 -14.3 -21.1 -14.35 -21.15 -14.4 -21.15 -14.45 -21.2 -14.45 -21.25 -14.55 -21.25 -14.55 -21.3 -14.5 -21.3 -14.45 -21.25 -14.45 -21.3 -14.4 -21.35 -14.35 -21.3 -14.3 -21.3 -14.3 -21.15 -14.05 -21.15 -14.05 -21.2 -14.0 -21.2 -14.0 -21.3 -13.95 -21.3 -13.95 -21.4 -13.9 -21.45 -13.9 -21.5 -13.85 -21.55 -13.85 -21.6 -13.8 -21.65 -13.8 -21.7 -13.75 -21.7 -13.7 -21.75 -13.65 -21.75 -13.65 -21.8 -13.6 -21.8 -13.6 -21.85 -13.45 -21.85 -13.45 -21.9 -13.4 -21.9 -13.35 -21.95 -13.2 -21.95 -13.2 -22.0 -13.1 -22.0 M-12.3 -19.6 L-12.25 -19.6 -12.25 -19.1 -12.3 -19.05 -12.3 -19.0 -12.25 -19.0 -12.25 -18.9 -12.3 -18.85 -12.35 -18.85 -12.35 -18.8 -12.3 -18.8 -12.3 -18.75 -12.25 -18.7 -12.25 -18.6 -12.2 -18.6 -12.2 -18.45 -12.25 -18.5 -12.25 -18.6 -12.3 -18.6 -12.3 -18.65 -12.35 -18.65 -12.35 -18.7 -12.4 -18.7 -12.4 -18.8 -12.45 -18.8 -12.45 -18.9 -12.4 -18.95 -12.35 -18.95 -12.35 -19.0 -12.3 -19.05 -12.3 -19.15 -12.25 -19.15 -12.3 -19.2 -12.3 -19.35 -12.35 -19.35 -12.35 -19.6 -12.3 -19.6 M-14.85 -21.6 L-14.9 -21.55 -15.05 -21.55 -15.05 -21.4 -15.0 -21.4 -15.0 -21.05 -15.05 -21.0 -15.05 -20.95 -15.15 -20.95 -15.15 -20.6 -15.2 -20.6 -15.2 -20.5 -15.15 -20.45 -15.15 -20.4 -14.7 -20.4 -14.7 -20.35 -14.65 -20.35 -14.65 -20.15 -14.7 -20.15 -14.7 -20.05 -14.75 -20.0 -14.75 -19.7 -14.8 -19.7 -14.8 -19.55 -14.85 -19.5 -14.85 -19.4 -14.8 -19.4 -14.8 -19.35 -14.75 -19.35 -14.75 -19.3 -14.65 -19.3 -14.65 -19.25 -14.6 -19.25 -14.6 -18.95 -14.65 -18.95 -14.7 -18.9 -14.8 -18.9 -14.75 -18.95 -14.75 -19.0 -14.7 -19.0 -14.65 -19.05 -14.65 -19.1 -14.7 -19.15 -14.7 -19.25 -14.8 -19.25 -14.85 -19.3 -14.85 -19.35 -14.9 -19.35 -14.9 -19.6 -14.85 -19.6 -14.85 -19.7 -14.8 -19.75 -14.8 -20.15 -14.75 -20.15 -14.75 -20.25 -14.85 -20.3 -15.0 -20.3 -15.0 -20.35 -15.25 -20.35 -15.3 -20.4 -15.3 -20.7 -15.25 -20.7 -15.25 -20.9 -15.3 -20.95 -15.25 -20.95 -15.25 -21.0 -15.2 -21.05 -15.1 -21.05 -15.1 -21.25 -15.05 -21.25 -15.05 -21.35 -15.1 -21.35 -15.1 -21.65 -14.9 -21.65 -14.9 -21.6 -14.85 -21.6 M-15.8 -15.85 L-15.8 -15.8 -15.75 -15.8 -15.7 -15.75 -15.65 -15.75 -15.65 -15.7 -15.45 -15.7 -15.45 -15.75 -15.3 -15.75 -15.25 -15.7 -15.25 -15.45 -15.3 -15.45 -15.3 -15.4 -15.35 -15.35 -15.3 -15.3 -15.3 -15.25 -15.25 -15.25 -15.25 -15.2 -15.2 -15.2 -15.15 -15.15 -15.15 -14.9 -15.2 -14.9 -15.2 -14.85 -15.35 -14.7 -15.7 -14.7 -15.7 -14.55 -15.75 -14.55 -15.85 -14.5 -15.8 -14.5 -15.8 -14.45 -15.75 -14.4 -15.75 -14.35 -15.7 -14.35 -15.75 -14.3 -15.7 -14.3 -15.7 -14.2 -15.75 -14.2 -15.75 -14.25 -15.85 -14.35 -15.85 -14.4 -15.9 -14.4 -15.9 -14.45 -15.95 -14.5 -15.95 -14.65 -15.8 -14.65 -15.8 -14.8 -15.75 -14.8 -15.7 -14.85 -15.55 -14.85 -15.55 -14.8 -15.4 -14.8 -15.4 -14.85 -15.35 -14.85 -15.3 -14.9 -15.25 -14.9 -15.25 -15.1 -15.3 -15.1 -15.3 -15.15 -15.35 -15.15 -15.35 -15.25 -15.4 -15.25 -15.55 -15.25 -15.55 -15.15 -15.6 -15.1 -15.6 -15.05 -15.85 -15.05 -15.85 -15.1 -15.9 -15.1 -15.95 -15.15 -16.0 -15.15 -16.0 -15.1 -16.1 -15.1 -16.15 -15.15 -16.15 -15.1 -16.2 -15.1 -16.2 -15.15 -16.1 -15.15 -16.05 -15.2 -15.85 -15.2 -15.8 -15.15 -15.65 -15.15 -15.65 -15.25 -15.55 -15.35 Q-15.45 -15.35 -15.4 -15.45 L-15.35 -15.5 -15.35 -15.65 -15.4 -15.65 -15.4 -15.6 -15.65 -15.6 -15.65 -15.65 -15.7 -15.65 -15.75 -15.7 -15.8 -15.7 -15.85 -15.75 -15.9 -15.75 -15.9 -15.7 -16.0 -15.7 -16.0 -15.65 -16.05 -15.7 -16.1 -15.7 -16.1 -16.05 -16.05 -16.05 -16.05 -16.0 -16.0 -16.0 -16.0 -15.85 -15.8 -15.85 M-12.15 -18.4 L-12.2 -18.4 -12.15 -18.45 -12.15 -18.35 -12.1 -18.35 -12.1 -18.25 -12.05 -18.25 -12.05 -18.2 -12.1 -18.2 -12.1 -18.1 -12.15 -18.1 -12.2 -18.05 -12.15 -18.05 -12.15 -17.85 -12.1 -17.85 -12.1 -17.8 -12.05 -17.8 -12.05 -17.7 -12.0 -17.7 -12.0 -17.6 -11.95 -17.6 -11.95 -17.5 -12.0 -17.5 -12.0 -17.55 -12.1 -17.65 -12.1 -17.7 -12.15 -17.7 -12.15 -17.75 -12.2 -17.75 -12.2 -17.85 -12.25 -17.85 -12.25 -17.95 -12.3 -17.95 -12.3 -18.1 -12.25 -18.15 -12.25 -18.2 -12.2 -18.2 -12.15 -18.25 -12.15 -18.4 M-14.7 -13.65 L-14.65 -13.6 -14.7 -13.6 -14.7 -13.55 -14.75 -13.5 -14.75 -13.45 -15.0 -13.45 -15.0 -13.5 -15.05 -13.5 -15.05 -13.55 -15.1 -13.6 -15.15 -13.6 -15.15 -13.65 -15.25 -13.75 -15.3 -13.75 -15.3 -13.8 -15.35 -13.8 -15.35 -13.85 -15.3 -13.85 -15.3 -13.8 -15.25 -13.8 -15.25 -13.75 -15.1 -13.75 -15.1 -13.7 -15.05 -13.7 -14.9 -13.55 -14.8 -13.55 -14.75 -13.6 -14.7 -13.6 -14.7 -13.65 M-16.75 -15.0 L-16.65 -15.0 -16.7 -14.95 -16.75 -14.95 -16.75 -14.9 -16.8 -14.9 -16.85 -14.85 -16.9 -14.85 -16.9 -14.8 -16.95 -14.8 -16.95 -14.65 -17.05 -14.55 -17.05 -14.5 Q-17.1 -14.5 -17.15 -14.45 L-17.3 -14.45 -17.4 -14.35 -17.45 -14.35 -17.55 -14.3 -17.6 -14.3 -17.6 -14.25 -17.65 -14.2 -17.7 -14.2 -17.7 -14.1 -17.75 -14.1 -17.75 -14.0 -17.9 -14.0 -17.9 -13.95 -18.0 -13.95 -18.05 -13.9 -18.1 -13.9 -18.1 -13.95 -18.15 -14.0 -18.2 -14.0 -18.25 -14.05 -18.35 -14.05 -18.35 -14.15 -18.3 -14.1 -18.15 -14.05 -18.1 -14.0 -18.0 -14.0 -17.9 -14.05 -17.8 -14.05 -17.8 -14.25 -17.75 -14.25 -17.75 -14.3 -17.65 -14.3 -17.65 -14.35 -17.6 -14.35 -17.6 -14.4 -17.5 -14.4 -17.35 -14.5 -17.2 -14.55 -17.15 -14.6 -17.1 -14.6 -17.1 -14.65 -17.05 -14.7 -17.05 -14.75 -17.0 -14.75 -17.0 -14.9 -16.95 -14.9 -16.9 -14.95 -16.85 -14.95 -16.85 -15.0 -16.75 -15.0 M-18.7 -14.15 L-18.65 -14.1 -18.7 -14.1 -18.75 -14.05 -18.95 -14.05 -18.95 -14.1 -19.0 -14.1 -19.0 -14.2 -18.95 -14.2 -18.95 -14.25 -18.9 -14.3 -19.0 -14.3 -19.0 -14.35 -18.85 -14.35 -18.85 -14.25 -18.9 -14.2 -18.9 -14.1 -18.75 -14.15 -18.7 -14.15 M-19.45 -15.05 L-19.4 -15.05 -19.4 -15.0 -19.35 -14.95 -19.35 -14.8 -19.3 -14.8 -19.3 -14.45 -19.25 -14.45 Q-19.15 -14.4 -19.1 -14.4 L-19.05 -14.4 -19.05 -14.3 -19.1 -14.3 -19.35 -14.35 -19.4 -14.35 -19.4 -14.7 -19.35 -14.7 -19.35 -14.75 -19.4 -14.8 -19.4 -14.95 -19.45 -15.0 -19.45 -15.05" fill="#ffffff" fill-rule="evenodd" stroke="none"/>
  </g>
</svg>
