<?xml version="1.0" encoding="UTF-8" standalone="no"?>
<svg xmlns:ffdec="https://www.free-decompiler.com/flash" xmlns:xlink="http://www.w3.org/1999/xlink" ffdec:objectType="shape" height="22.3px" width="42.35px" xmlns="http://www.w3.org/2000/svg">
  <g transform="matrix(1.0, 0.0, 0.0, 1.0, 20.9, 26.05)">
    <path d="M10.0 -22.2 L10.1 -22.1 10.1 -22.0 Q10.15 -21.9 10.15 -21.8 L10.15 -21.75 Q10.15 -21.7 10.2 -21.7 L10.2 -21.6 10.25 -21.55 10.25 -21.35 10.2 -21.3 10.2 -21.2 Q10.2 -21.15 10.25 -21.15 L10.35 -21.2 10.45 -21.3 10.5 -21.3 11.2 -21.35 11.5 -21.2 11.55 -21.1 11.6 -21.05 11.7 -21.05 11.8 -21.1 11.8 -21.2 11.85 -21.25 11.85 -21.3 11.9 -21.35 11.9 -21.45 11.95 -21.5 11.95 -21.6 12.0 -21.7 12.0 -21.8 12.05 -21.9 12.05 -21.95 12.15 -22.0 12.35 -22.15 12.4 -22.2 12.8 -22.2 13.1 -22.05 13.2 -21.95 13.3 -21.9 13.4 -21.95 13.7 -22.05 13.8 -22.05 13.95 -22.0 14.0 -21.9 14.05 -21.9 Q14.2 -21.9 14.35 -21.9 L14.4 -21.95 14.4 -22.05 14.5 -22.1 14.5 -22.15 14.55 -22.2 14.55 -22.4 14.5 -22.5 14.5 -22.8 14.75 -23.05 15.2 -23.05 15.4 -22.95 15.45 -22.9 15.5 -22.8 15.6 -22.75 Q15.85 -22.65 16.15 -22.6 16.5 -22.5 16.8 -22.35 L16.85 -22.3 16.95 -22.3 17.2 -22.2 17.4 -22.1 17.4 -22.05 17.5 -22.05 17.6 -22.0 17.65 -21.9 17.75 -21.85 17.75 -21.75 17.8 -21.65 17.9 -21.55 17.95 -21.45 17.95 -21.4 18.0 -21.35 18.0 -20.9 18.1 -20.8 18.1 -20.7 18.15 -20.65 18.15 -20.5 18.2 -20.45 18.2 -20.1 18.05 -19.8 18.0 -19.75 17.85 -19.65 17.75 -19.6 17.5 -19.5 16.9 -19.45 16.85 -19.45 Q16.85 -19.4 16.8 -19.4 L16.85 -19.3 16.95 -19.25 17.0 -19.2 17.05 -19.1 17.1 -19.05 17.1 -19.0 17.15 -18.95 17.15 -18.85 17.2 -18.8 17.2 -18.55 Q17.25 -18.4 17.2 -18.25 L17.25 -18.15 17.25 -17.8 17.2 -17.7 17.2 -17.65 17.15 -17.6 17.15 -17.55 17.2 -17.5 17.2 -17.4 17.15 -17.35 17.15 -17.3 17.1 -17.25 17.1 -17.1 17.05 -17.05 17.05 -17.0 17.1 -16.9 17.1 -16.85 17.15 -16.8 17.15 -16.55 17.1 -16.4 17.1 -16.35 17.05 -16.25 17.0 -16.2 17.0 -15.4 17.1 -15.25 17.2 -15.05 17.3 -15.0 17.35 -14.95 17.4 -14.85 17.4 -14.7 17.45 -14.6 17.45 -14.55 17.5 -14.5 17.5 -14.35 17.45 -14.3 17.4 -14.15 17.35 -14.05 17.3 -14.05 17.1 -13.95 17.0 -13.95 16.75 -13.9 16.7 -13.85 16.7 -13.7 16.75 -13.65 16.95 -13.6 17.05 -13.55 17.2 -13.4 17.6 -13.35 17.75 -13.3 17.95 -13.1 18.15 -13.0 18.25 -12.85 18.3 -12.75 Q18.35 -12.65 18.35 -12.55 L18.35 -12.1 18.4 -12.1 18.45 -12.15 18.95 -12.15 19.0 -12.1 19.2 -12.0 19.2 -11.85 19.25 -11.8 19.25 -11.75 19.3 -11.7 19.3 -11.65 19.4 -11.6 19.45 -11.55 19.45 -11.5 19.5 -11.35 19.6 -11.25 19.6 -11.1 19.65 -11.05 19.65 -11.0 19.7 -10.9 19.8 -10.8 19.8 -10.75 19.85 -10.65 19.85 -10.6 19.9 -10.55 19.9 -9.9 19.85 -9.75 19.8 -9.65 19.8 -9.5 19.75 -9.45 19.75 -9.25 19.8 -9.2 19.8 -9.1 19.85 -9.0 Q19.85 -8.95 19.9 -8.95 L19.9 -8.9 20.6 -8.85 20.7 -8.8 20.75 -8.8 Q20.8 -8.75 20.85 -8.75 L20.9 -8.65 21.0 -8.55 21.0 -8.45 21.05 -8.4 21.05 -8.3 21.1 -8.15 21.1 -7.85 21.15 -7.75 21.15 -7.7 21.3 -7.5 Q21.35 -7.4 21.4 -7.25 L21.45 -7.15 21.45 -6.7 21.4 -6.65 21.4 -6.5 21.35 -6.45 21.35 -6.3 21.3 -6.25 21.3 -6.2 21.25 -6.1 21.25 -6.05 21.2 -6.0 21.2 -5.85 21.15 -5.75 21.15 -5.6 21.1 -5.55 21.1 -5.3 21.15 -5.2 21.15 -5.15 21.2 -5.1 21.2 -4.95 21.3 -4.85 21.35 -4.7 21.4 -4.65 21.4 -4.4 Q21.4 -4.3 21.3 -4.2 L21.1 -3.95 21.0 -3.8 20.95 -3.8 20.8 -3.75 20.75 -3.75 20.6 -3.8 20.45 -3.8 20.4 -3.85 20.4 -3.9 Q20.45 -3.95 20.45 -4.0 L20.6 -4.2 20.65 -4.25 20.5 -4.4 20.3 -4.65 20.3 -4.9 20.25 -4.95 20.25 -5.6 20.3 -5.65 20.3 -5.95 20.45 -6.1 20.45 -6.25 20.55 -6.35 20.55 -6.55 20.5 -6.65 20.5 -7.45 20.45 -7.5 20.45 -7.7 20.4 -7.75 20.4 -7.8 20.3 -7.85 20.2 -7.85 19.65 -7.8 19.6 -7.75 19.55 -7.65 19.55 -7.6 19.45 -7.5 19.45 -7.35 19.4 -7.3 19.35 -7.2 19.3 -7.15 19.3 -7.1 19.25 -7.05 19.25 -6.95 19.15 -6.85 19.1 -6.75 19.05 -6.75 18.95 -6.7 18.85 -6.6 18.65 -6.6 18.65 -6.55 18.6 -6.5 18.6 -6.05 18.55 -5.95 18.55 -5.7 18.45 -5.6 18.4 -5.5 18.4 -5.35 18.35 -5.25 18.35 -5.15 18.3 -5.1 18.25 -5.0 18.15 -4.9 18.15 -4.85 18.05 -4.75 18.0 -4.65 17.9 -4.65 17.85 -4.75 17.8 -4.8 17.8 -4.85 17.75 -4.95 17.7 -5.0 17.7 -5.1 17.65 -5.3 17.65 -5.75 17.6 -5.8 17.6 -6.35 17.65 -6.4 17.65 -6.45 17.7 -6.5 17.75 -6.6 17.75 -7.4 17.8 -7.45 17.9 -7.6 18.0 -7.7 18.0 -7.75 18.3 -7.75 18.4 -7.7 18.5 -7.7 18.5 -8.05 18.55 -8.1 18.55 -8.25 18.6 -8.3 18.6 -8.35 Q18.65 -8.45 18.65 -8.55 L18.65 -9.4 18.7 -9.45 18.7 -9.75 18.75 -9.85 18.8 -9.9 18.8 -10.15 18.85 -10.2 18.8 -10.3 18.8 -10.4 18.75 -10.45 18.6 -10.55 18.55 -10.6 18.55 -10.65 18.05 -10.75 17.45 -10.9 17.4 -10.9 17.3 -10.95 17.2 -11.1 17.05 -11.25 Q16.95 -11.35 16.9 -11.45 L16.9 -12.05 17.0 -12.15 17.0 -12.2 17.05 -12.25 17.15 -12.3 17.2 -12.35 17.2 -12.45 16.9 -12.5 16.8 -12.55 16.7 -12.55 16.6 -12.6 16.45 -12.7 Q16.4 -12.7 16.3 -12.75 L16.2 -12.9 16.1 -13.0 15.95 -13.2 15.8 -13.3 15.75 -13.35 Q15.7 -13.35 15.7 -13.4 L15.7 -13.55 15.6 -13.65 15.6 -13.8 15.55 -13.85 15.55 -14.1 15.6 -14.15 15.6 -14.3 15.65 -14.35 15.7 -14.45 15.9 -14.55 15.95 -14.55 16.05 -14.6 16.15 -14.7 16.2 -14.8 16.25 -14.85 16.3 -14.85 16.35 -14.9 16.25 -15.0 16.2 -15.1 16.15 -15.15 16.15 -15.2 16.1 -15.25 16.1 -16.75 16.15 -16.8 16.15 -16.85 16.2 -16.95 16.2 -17.25 16.15 -17.3 16.15 -17.65 16.05 -17.75 16.05 -18.15 16.0 -18.2 15.75 -18.25 15.35 -18.35 15.2 -18.5 15.15 -18.6 15.05 -18.7 15.05 -20.05 15.1 -20.1 15.1 -20.2 15.2 -20.3 15.5 -20.45 15.85 -20.45 15.95 -20.4 16.05 -20.4 16.2 -20.55 16.2 -20.6 16.3 -20.6 16.5 -20.7 16.45 -20.8 16.4 -20.85 16.3 -20.9 16.25 -20.95 15.8 -20.95 15.7 -21.0 15.65 -21.1 15.6 -21.1 15.5 -21.15 15.45 -21.2 15.4 -21.3 15.35 -21.35 15.25 -21.35 15.2 -21.3 15.1 -21.25 15.0 -21.15 14.9 -21.1 Q14.9 -21.05 14.8 -21.0 L14.7 -20.95 14.35 -20.9 13.15 -20.9 13.15 -20.95 12.9 -21.0 12.85 -21.05 12.75 -21.0 12.75 -20.95 12.7 -20.9 12.7 -20.8 12.6 -20.7 12.6 -20.55 12.5 -20.45 12.45 -20.35 12.45 -20.3 12.35 -20.2 12.3 -20.1 12.25 -20.05 12.15 -20.0 12.1 -19.95 12.05 -19.85 11.9 -19.7 11.8 -19.65 11.1 -19.65 11.0 -19.7 11.0 -19.8 10.95 -19.9 10.95 -20.0 Q10.9 -20.25 10.7 -20.15 10.45 -20.05 10.2 -20.05 L10.15 -20.1 10.0 -20.15 9.9 -20.25 9.8 -20.25 9.75 -20.2 9.7 -20.1 9.7 -20.05 9.6 -19.95 9.55 -19.85 9.5 -19.8 9.5 -19.75 9.45 -19.65 9.35 -19.55 9.35 -19.5 9.3 -19.4 9.3 -19.35 9.25 -19.3 9.2 -19.3 9.15 -19.25 8.95 -19.2 8.95 -18.85 9.0 -18.8 9.0 -18.2 8.95 -18.15 8.95 -18.1 8.9 -18.0 8.9 -17.95 8.85 -17.9 8.85 -17.8 8.8 -17.75 8.8 -17.7 8.75 -17.65 8.75 -17.55 8.65 -17.45 8.65 -16.8 8.6 -16.75 8.55 -16.65 8.45 -16.55 8.45 -16.5 8.4 -16.4 8.3 -16.3 8.3 -16.05 8.25 -16.0 8.2 -15.9 8.1 -15.8 5.85 -15.8 5.8 -15.85 5.7 -15.9 5.6 -16.0 Q5.4 -15.95 5.25 -16.05 5.1 -16.1 4.95 -16.15 L4.9 -16.15 4.75 -16.25 4.7 -16.25 4.6 -16.3 4.55 -16.4 4.5 -16.45 4.5 -16.65 4.4 -16.75 4.4 -17.1 4.45 -17.15 4.45 -17.2 4.5 -17.25 4.5 -17.4 4.55 -17.45 4.55 -17.65 Q4.6 -17.8 4.65 -17.95 4.7 -18.05 4.8 -18.1 L4.8 -18.15 4.85 -18.2 Q4.9 -18.35 4.95 -18.4 L5.05 -18.5 Q5.1 -18.55 5.15 -18.65 L5.15 -18.75 5.1 -18.8 5.1 -19.3 5.15 -19.4 5.15 -19.55 5.2 -19.65 5.25 -19.7 5.25 -19.75 5.3 -19.8 5.3 -19.95 5.35 -20.0 5.5 -20.1 5.55 -20.1 5.6 -20.15 5.65 -20.15 5.95 -20.2 5.9 -20.2 5.8 -20.25 5.75 -20.35 5.7 -20.4 5.7 -20.45 4.85 -20.5 4.85 -20.55 4.75 -20.6 4.65 -20.7 4.5 -20.8 4.4 -20.8 4.3 -20.85 4.25 -20.9 Q4.15 -20.95 4.05 -21.0 L4.0 -21.05 2.3 -21.25 2.1 -21.35 1.95 -21.5 1.9 -21.6 1.8 -21.7 1.8 -22.4 1.85 -22.5 1.85 -22.55 1.9 -22.6 1.9 -22.85 1.95 -22.9 2.0 -23.0 2.05 -23.05 2.05 -23.2 2.15 -23.3 2.15 -23.35 2.25 -23.45 2.45 -23.5 Q2.55 -23.55 2.65 -23.65 L2.7 -23.65 Q2.7 -23.7 2.7 -23.75 L2.7 -23.8 1.95 -23.9 1.9 -23.95 1.9 -24.0 Q1.7 -24.0 1.6 -24.05 1.35 -24.1 1.15 -24.15 L1.1 -24.15 1.0 -24.25 0.95 -24.25 0.45 -24.3 0.35 -24.4 -0.05 -24.4 -0.1 -24.35 -0.2 -24.3 -0.3 -24.3 -0.4 -24.35 -0.45 -24.4 -0.6 -24.35 -0.65 -24.3 -1.15 -24.25 -1.2 -24.2 Q-1.2 -24.1 -1.3 -24.0 L-1.6 -23.7 Q-1.75 -23.55 -1.85 -23.25 L-1.85 -22.9 -1.9 -22.8 -1.95 -22.75 -1.95 -22.55 -2.0 -22.5 -2.0 -22.35 -2.05 -22.3 -2.05 -22.25 -2.15 -22.2 -2.15 -22.1 -2.2 -22.05 -2.2 -22.0 -2.25 -21.9 -2.3 -21.85 -2.3 -21.8 -2.4 -21.7 Q-2.45 -21.65 -2.5 -21.65 L-2.55 -21.6 -2.55 -21.55 -2.6 -21.55 -3.15 -21.45 -3.25 -21.35 -3.4 -21.3 -3.5 -21.2 -3.55 -21.2 -3.85 -21.05 -4.0 -21.0 -4.25 -20.95 -4.25 -20.9 Q-4.35 -20.9 -4.4 -20.85 L-4.55 -20.8 -4.6 -20.75 -5.15 -20.75 -5.25 -20.8 -5.3 -20.8 -5.45 -20.85 -5.5 -20.9 Q-5.5 -20.95 -5.55 -20.95 L-5.75 -21.0 -5.85 -21.05 -6.0 -21.2 -6.05 -21.2 -6.1 -21.1 -6.2 -21.05 -6.4 -20.85 -6.5 -20.8 -6.55 -20.75 -6.6 -20.65 -6.95 -20.6 -7.0 -20.55 -7.75 -20.55 -7.85 -20.6 -7.95 -20.6 -8.15 -20.4 -8.25 -20.35 -8.35 -20.25 -8.4 -20.15 -8.55 -20.1 -8.55 -20.05 -8.75 -20.0 -8.85 -19.9 Q-9.0 -19.8 -9.15 -19.75 -9.35 -19.65 -9.45 -19.55 L-9.55 -19.5 -9.6 -19.45 -9.7 -19.4 -9.75 -19.4 -9.9 -19.35 -9.95 -19.25 -10.45 -19.0 -10.65 -18.75 Q-10.85 -18.5 -11.0 -18.25 -11.1 -18.05 -11.25 -17.9 L-11.3 -17.85 -11.4 -17.85 -11.55 -17.8 -11.6 -17.75 -11.85 -17.7 -11.8 -17.65 -11.8 -17.4 -11.75 -17.35 -11.75 -17.2 -11.65 -17.1 -11.6 -17.0 -11.6 -16.45 -11.65 -16.4 -11.65 -16.25 -11.7 -16.2 -11.7 -16.0 -11.75 -15.95 -11.8 -15.85 -11.85 -15.8 -12.15 -15.7 -12.25 -15.6 -12.35 -15.55 -12.85 -15.55 -12.8 -15.5 -12.8 -15.1 -12.9 -15.0 -12.95 -14.9 -12.95 -14.85 -13.0 -14.8 -13.05 -14.7 -13.2 -14.55 -13.25 -14.45 -13.35 -14.4 -14.1 -14.4 -14.15 -14.45 -14.3 -14.5 -14.5 -14.6 -14.55 -14.7 -14.95 -14.7 -15.0 -14.8 -15.05 -14.85 -15.25 -14.95 Q-15.35 -15.0 -15.45 -15.05 L-15.55 -15.15 -15.55 -15.2 -15.6 -15.15 -15.6 -15.0 -15.65 -14.95 -15.65 -14.9 -15.7 -14.85 -15.7 -14.75 -15.8 -14.65 -15.9 -14.5 -16.0 -14.4 -16.1 -14.25 -16.2 -14.2 -16.25 -14.15 -16.3 -14.15 -16.4 -14.1 -16.65 -14.0 -17.15 -14.05 -17.35 -14.15 -17.4 -14.25 -17.5 -14.3 -17.55 -14.35 -17.65 -14.4 -17.7 -14.45 -17.8 -14.45 -17.8 -14.15 -17.85 -14.0 Q-17.9 -13.85 -17.95 -13.75 -18.05 -13.55 -18.15 -13.35 -18.2 -13.25 -18.3 -13.15 L-18.95 -13.15 -19.0 -13.25 -19.05 -13.3 -19.15 -13.3 -19.25 -13.35 -19.3 -13.45 -19.35 -13.45 -19.35 -13.5 -19.5 -13.55 -19.55 -13.55 -20.5 -13.65 -20.7 -13.7 -20.75 -13.75 -20.75 -13.9 -20.7 -13.95 -20.7 -14.0 -20.65 -14.0 -20.65 -14.05 -20.7 -14.0 Q-20.75 -13.95 -20.8 -13.9 L-20.9 -13.9 -20.9 -14.0 -20.85 -14.0 -20.85 -14.05 -20.8 -14.1 -20.8 -14.15 -20.75 -14.15 -20.75 -14.25 -20.7 -14.3 -20.7 -14.35 -20.6 -14.45 -20.3 -14.45 -20.2 -14.5 -20.15 -14.55 -20.15 -14.6 -20.1 -14.7 -20.1 -14.75 -20.0 -14.85 -19.9 -14.9 Q-19.65 -14.9 -19.45 -14.85 L-19.35 -14.7 -19.15 -14.5 Q-19.1 -14.45 -19.05 -14.35 L-18.95 -14.3 -18.8 -14.3 -18.7 -14.35 -18.75 -14.4 -18.75 -14.9 -18.8 -15.0 -18.8 -15.55 -18.6 -15.7 Q-18.5 -15.8 -18.3 -15.85 L-18.1 -15.85 -18.0 -15.8 -17.9 -15.7 -17.85 -15.6 -17.85 -15.55 -17.75 -15.45 -17.7 -15.45 -17.55 -15.4 -17.25 -15.25 -16.85 -15.25 -16.8 -15.35 -16.75 -15.4 -16.75 -15.45 -16.7 -15.55 -16.7 -15.6 -16.65 -15.65 -16.65 -15.8 -16.6 -15.9 Q-16.55 -16.0 -16.5 -16.1 -16.45 -16.2 -16.4 -16.3 L-16.2 -16.4 -16.1 -16.5 -15.65 -16.6 -15.6 -16.65 -15.6 -16.75 -15.45 -16.9 -15.35 -16.95 -15.2 -16.95 -15.1 -16.9 -15.05 -16.85 -15.0 -16.75 -15.0 -16.7 -14.95 -16.65 -14.9 -16.55 -14.9 -16.05 -14.85 -16.0 -14.8 -16.0 -14.5 -15.85 -14.45 -15.75 -14.35 -15.65 -13.8 -15.6 -13.75 -15.7 -13.75 -16.1 -13.7 -16.2 -13.65 -16.25 -13.65 -16.3 -13.6 -16.4 -13.6 -16.45 -13.55 -16.5 -13.55 -16.65 -13.5 -16.7 -13.4 -16.75 -12.9 -16.75 -12.7 -16.65 -12.65 -16.6 -12.55 -16.65 -12.55 -16.9 -12.65 -17.0 -12.7 -17.1 -12.8 -17.2 -12.85 -17.35 -12.85 -17.4 -12.9 -17.45 -12.95 -17.55 -13.0 -17.6 -13.0 -17.8 -13.1 -17.9 -13.1 -18.15 -13.05 -18.2 -13.05 -18.3 -13.0 -18.35 -12.95 -18.5 -12.9 -18.55 -12.9 -18.6 -12.85 -18.65 -12.8 -18.75 -12.75 -18.8 -12.65 -18.8 -12.25 -19.0 -12.15 -19.0 -12.05 -18.95 -11.9 -18.9 -11.75 -18.95 -11.7 -18.95 -11.5 -19.05 -11.45 -19.1 -11.45 -19.15 -11.35 -19.2 -11.25 -19.3 -11.15 -19.35 -11.15 -19.4 -11.1 -19.5 -10.6 -20.0 -10.5 -20.05 -10.45 -20.1 -10.45 -20.2 -10.35 -20.3 -10.25 -20.35 -10.2 -20.45 -10.0 -20.55 -9.85 -20.7 -9.85 -20.75 -9.8 -20.8 -9.75 -20.9 -9.7 -20.9 -9.6 -20.95 -9.4 -20.95 -9.3 -20.9 -9.1 -20.9 -9.05 -20.95 -9.05 -21.05 -9.0 -21.1 -9.0 -21.15 -8.95 -21.2 -8.9 -21.3 -8.9 -21.4 -8.8 -21.55 -8.7 -21.65 Q-8.65 -21.75 -8.55 -21.85 L-8.5 -21.85 -8.45 -21.9 -8.35 -21.9 -8.2 -21.95 -8.1 -21.95 -7.9 -21.85 -7.85 -21.75 -7.4 -21.75 -7.05 -21.85 -6.6 -21.9 -6.55 -21.95 -6.5 -22.05 -6.5 -22.1 -6.4 -22.2 -6.4 -22.5 -6.35 -22.55 -6.35 -22.6 -6.3 -22.65 -6.25 -22.75 -6.2 -22.75 -6.15 -22.8 -6.1 -22.8 -6.0 -22.85 -5.85 -22.9 -5.6 -22.9 -5.4 -22.8 -5.4 -22.75 -5.35 -22.65 -5.35 -22.6 -5.25 -22.5 -5.25 -22.4 -5.2 -22.35 -5.2 -22.2 -5.15 -22.15 -5.15 -22.1 -4.85 -22.05 -4.75 -22.0 -4.25 -22.0 -4.15 -22.05 -4.1 -22.1 -4.0 -22.15 -3.95 -22.2 Q-3.75 -22.25 -3.6 -22.3 -3.4 -22.4 -3.2 -22.45 L-3.15 -22.5 -3.05 -22.55 -3.0 -22.65 -3.0 -22.7 -2.95 -22.75 -2.9 -22.9 -2.8 -23.0 -2.8 -23.05 -2.85 -23.15 -2.85 -23.65 Q-2.8 -23.75 -2.75 -23.85 L-2.65 -23.9 -2.65 -24.05 -2.55 -24.15 -2.55 -24.35 -2.25 -24.8 -2.25 -25.05 -2.2 -25.15 -2.2 -25.25 -2.25 -25.3 -2.25 -25.35 Q-2.05 -25.4 -1.9 -25.5 -1.5 -25.75 -1.2 -26.05 L-1.1 -26.0 -1.1 -25.9 -1.05 -25.85 -1.05 -25.8 -1.0 -25.75 -1.0 -25.6 -0.8 -25.65 -0.7 -25.7 -0.6 -25.7 -0.6 -25.65 -0.55 -25.7 -0.3 -25.7 -0.2 -25.75 0.1 -25.75 0.2 -25.65 0.3 -25.6 0.4 -25.6 0.6 -25.4 0.6 -25.3 0.7 -25.3 1.05 -25.25 1.15 -25.2 1.3 -25.05 1.5 -25.0 1.8 -24.9 1.9 -24.95 1.95 -25.0 2.0 -25.15 2.1 -25.25 2.15 -25.4 2.3 -25.45 2.35 -25.5 2.35 -25.55 2.4 -25.55 2.5 -25.6 2.7 -25.6 2.8 -25.55 2.85 -25.5 2.95 -25.5 3.0 -25.45 3.05 -25.5 3.25 -25.6 3.4 -25.6 3.5 -25.55 3.6 -25.45 3.65 -25.35 3.85 -25.25 3.85 -25.2 3.9 -25.1 3.9 -24.8 3.95 -24.75 4.05 -24.7 4.1 -24.65 4.2 -24.5 4.2 -24.45 4.25 -24.4 Q4.15 -24.2 4.15 -23.95 4.15 -23.5 4.25 -23.2 L4.25 -23.1 4.15 -23.0 4.1 -22.9 4.05 -22.85 3.95 -22.8 3.25 -22.7 3.15 -22.6 3.15 -22.55 3.2 -22.45 3.25 -22.4 3.25 -22.25 3.35 -22.25 3.35 -22.3 3.5 -22.45 3.6 -22.5 3.65 -22.55 3.85 -22.55 4.05 -22.45 4.1 -22.4 4.1 -22.35 Q4.2 -22.3 4.3 -22.3 L4.4 -22.25 4.45 -22.2 4.5 -22.1 4.65 -21.95 4.75 -21.9 4.75 -21.85 4.8 -21.85 4.95 -21.75 5.05 -21.65 5.15 -21.6 5.6 -21.6 5.75 -21.65 5.95 -21.7 6.0 -21.75 6.05 -21.85 6.1 -21.9 6.2 -21.95 6.35 -21.95 6.55 -21.85 6.55 -21.8 6.6 -21.7 6.6 -21.65 6.65 -21.6 6.7 -21.5 6.7 -21.35 Q6.7 -21.3 6.7 -21.25 L6.75 -21.2 6.75 -21.15 6.8 -21.05 6.95 -20.9 6.95 -20.75 7.0 -20.7 7.0 -20.5 6.95 -20.35 6.95 -20.25 7.0 -20.2 6.95 -20.1 6.95 -20.0 7.0 -19.95 7.0 -19.85 6.95 -19.8 6.95 -19.7 6.85 -19.55 6.8 -19.5 6.75 -19.4 6.6 -19.25 6.45 -19.15 6.45 -18.85 6.4 -18.8 6.4 -18.75 6.2 -18.55 6.1 -18.5 6.05 -18.4 6.05 -18.35 6.0 -18.3 6.0 -18.25 5.8 -18.05 5.75 -17.9 5.7 -17.85 5.65 -17.7 5.55 -17.55 5.55 -17.4 5.5 -17.35 5.5 -17.05 5.6 -16.95 5.7 -16.9 6.0 -16.85 6.1 -16.8 6.45 -16.75 6.55 -16.7 6.7 -16.7 6.85 -16.75 Q6.9 -16.8 6.95 -16.8 L7.0 -16.85 7.05 -16.95 7.1 -17.0 7.2 -17.0 7.7 -17.1 7.75 -17.2 7.85 -17.3 7.85 -17.55 7.9 -17.65 7.9 -17.7 7.95 -17.75 7.95 -17.8 8.0 -17.95 8.05 -18.0 8.15 -18.2 8.15 -18.8 8.1 -18.85 8.1 -18.9 8.05 -18.95 8.05 -19.35 8.1 -19.4 8.1 -19.5 8.15 -19.55 8.15 -19.6 8.2 -19.65 8.2 -19.75 8.3 -19.85 8.35 -19.95 8.45 -20.05 8.5 -20.05 8.55 -20.1 8.7 -20.1 8.75 -20.2 8.75 -20.25 8.8 -20.3 8.85 -20.4 8.9 -20.45 8.9 -20.75 8.95 -20.8 8.95 -21.15 9.0 -21.2 9.0 -21.25 9.05 -21.35 9.05 -21.45 9.1 -21.5 9.1 -21.75 9.15 -21.85 9.2 -21.9 9.2 -21.95 9.25 -22.05 9.35 -22.15 9.55 -22.3 9.6 -22.35 9.9 -22.35 9.9 -22.2 9.95 -22.15 9.95 -21.95 10.0 -21.9 10.0 -21.8 9.95 -21.75 9.95 -21.7 9.9 -21.65 9.9 -21.6 9.75 -21.45 9.8 -21.4 9.9 -21.4 9.95 -21.45 10.0 -21.55 10.0 -21.65 10.05 -21.7 10.05 -21.75 10.1 -21.8 10.1 -21.9 10.05 -21.95 10.05 -22.15 10.0 -22.2 M15.2 -22.35 L15.15 -22.45 15.0 -22.45 15.0 -21.9 15.05 -21.9 15.15 -21.95 15.5 -21.95 15.6 -21.9 15.65 -21.85 15.85 -21.85 15.95 -21.8 16.0 -21.8 16.15 -21.65 16.3 -21.6 16.35 -21.55 16.4 -21.55 16.7 -21.5 16.85 -21.5 16.9 -21.4 16.95 -21.35 17.05 -21.3 17.1 -21.2 17.15 -21.15 17.15 -20.95 17.0 -20.8 17.0 -20.65 17.05 -20.6 17.05 -20.45 17.0 -20.4 17.0 -20.35 16.95 -20.25 16.8 -20.1 16.55 -20.05 16.55 -20.0 16.5 -19.95 16.85 -20.05 Q17.1 -20.1 17.35 -20.15 L17.5 -20.2 17.6 -20.2 17.65 -20.3 17.65 -20.4 17.6 -20.55 17.55 -20.6 17.55 -20.65 17.45 -20.8 17.45 -21.1 17.4 -21.2 17.4 -21.3 17.35 -21.35 17.35 -21.45 17.3 -21.45 17.25 -21.5 Q17.15 -21.55 17.1 -21.6 L17.05 -21.6 16.95 -21.65 Q16.85 -21.7 16.7 -21.75 16.6 -21.8 16.5 -21.85 L16.45 -21.9 16.05 -22.0 Q15.7 -22.05 15.35 -22.2 L15.2 -22.35 M9.55 -21.5 L9.55 -21.25 9.5 -21.2 9.5 -21.05 9.45 -21.0 9.45 -20.95 9.4 -20.85 9.4 -20.65 9.45 -20.7 9.45 -20.75 9.5 -20.8 9.55 -20.9 9.75 -20.9 9.75 -21.6 9.7 -21.65 9.6 -21.6 9.6 -21.55 9.55 -21.5 M10.8 -20.7 L10.9 -20.75 10.7 -20.75 10.55 -20.7 10.5 -20.65 10.7 -20.65 10.8 -20.7 M12.6 -21.6 L12.55 -21.6 12.5 -21.55 12.6 -21.6 M11.5 -20.25 L11.5 -20.2 11.55 -20.2 11.65 -20.25 11.7 -20.35 11.75 -20.4 11.85 -20.45 11.85 -20.5 11.5 -20.45 11.5 -20.25 M16.65 -18.7 L16.4 -18.75 16.6 -18.55 16.65 -18.4 16.7 -18.35 16.7 -18.6 16.65 -18.65 16.65 -18.7 M15.7 -19.8 L15.55 -19.8 15.55 -19.75 Q15.55 -19.7 15.55 -19.65 L15.6 -19.6 15.6 -18.95 Q15.7 -18.9 15.85 -18.85 L15.8 -18.9 15.8 -19.05 15.75 -19.1 15.75 -19.15 15.7 -19.2 15.7 -19.35 15.65 -19.4 15.65 -19.6 15.7 -19.65 15.7 -19.75 15.75 -19.8 15.7 -19.8 M16.2 -13.8 L16.2 -14.0 16.25 -14.05 16.15 -14.0 16.1 -14.0 16.05 -13.95 16.05 -13.85 16.1 -13.8 Q16.15 -13.75 16.2 -13.75 L16.2 -13.8 M16.9 -14.7 L16.85 -14.6 16.75 -14.5 16.9 -14.5 Q16.95 -14.5 17.0 -14.55 L17.0 -14.6 16.95 -14.65 16.95 -14.7 16.9 -14.7 M5.5 -21.1 L5.0 -21.1 4.95 -21.15 4.8 -21.2 4.85 -21.2 4.85 -21.15 4.95 -21.1 5.0 -21.05 5.65 -21.0 5.5 -21.05 5.5 -21.1 M4.55 -21.4 L4.5 -21.45 4.3 -21.5 4.3 -21.55 4.25 -21.6 4.15 -21.6 4.1 -21.7 3.8 -21.8 3.75 -21.8 3.6 -21.65 4.1 -21.6 4.2 -21.55 4.25 -21.5 4.35 -21.5 4.45 -21.45 4.55 -21.35 4.6 -21.35 4.55 -21.4 M3.35 -24.85 L3.3 -24.9 3.2 -24.8 2.8 -24.8 2.75 -24.9 2.7 -24.9 2.7 -24.95 2.6 -25.0 2.5 -24.9 2.4 -24.85 2.4 -24.8 2.3 -24.65 2.3 -24.6 2.25 -24.5 2.25 -24.45 2.9 -24.4 3.0 -24.35 3.05 -24.3 3.15 -24.25 3.2 -24.15 3.2 -24.1 3.25 -24.05 3.25 -23.35 3.2 -23.3 3.7 -23.35 3.65 -23.4 3.65 -24.1 3.6 -24.15 3.6 -24.25 3.5 -24.35 3.45 -24.45 3.45 -24.5 3.4 -24.55 3.4 -24.6 3.35 -24.7 3.35 -24.85 M2.6 -22.8 Q2.65 -22.9 2.75 -23.0 L2.55 -22.9 2.5 -22.85 2.45 -22.75 2.45 -22.7 2.4 -22.65 2.4 -22.6 2.35 -22.5 2.35 -22.35 2.3 -22.25 2.3 -22.2 2.25 -22.15 2.25 -22.0 2.4 -21.85 2.5 -21.8 2.85 -21.8 2.85 -21.85 2.8 -21.9 2.8 -21.95 2.75 -22.05 2.65 -22.15 2.65 -22.2 2.6 -22.3 Q2.6 -22.35 2.6 -22.4 L2.6 -22.8 M4.95 -17.05 L4.95 -17.0 4.9 -16.95 4.9 -16.85 5.0 -16.8 5.0 -16.85 4.95 -16.9 4.95 -17.05 M7.3 -16.4 L7.3 -16.45 7.25 -16.4 7.3 -16.4 M17.4 -11.65 L17.5 -11.6 17.55 -11.55 17.55 -11.5 Q17.6 -11.45 17.65 -11.45 L18.2 -11.4 18.4 -11.35 18.75 -11.2 18.85 -11.15 18.9 -11.05 18.95 -11.0 19.05 -10.95 19.1 -10.85 19.2 -10.75 19.2 -10.6 19.25 -10.55 19.25 -10.5 19.3 -10.45 19.3 -10.0 19.25 -9.9 19.25 -9.65 19.2 -9.6 19.2 -9.55 19.15 -9.45 19.15 -9.3 19.1 -9.2 19.1 -8.35 19.15 -8.35 19.2 -8.4 19.35 -8.45 19.4 -8.5 Q19.45 -8.5 19.45 -8.55 L19.5 -8.55 19.35 -8.7 19.35 -8.9 19.3 -8.95 19.3 -9.05 19.25 -9.1 19.25 -9.5 19.3 -9.55 19.3 -9.6 19.35 -9.65 19.35 -9.8 19.4 -9.85 19.4 -10.0 19.45 -10.05 19.45 -10.3 19.4 -10.4 Q19.3 -10.5 19.25 -10.6 L19.2 -10.75 19.2 -10.9 Q19.15 -11.0 19.05 -11.15 18.9 -11.3 18.8 -11.45 L18.8 -11.5 18.7 -11.6 18.65 -11.55 18.5 -11.5 18.45 -11.45 18.2 -11.45 18.1 -11.55 18.0 -11.6 17.85 -11.75 17.8 -11.85 17.8 -12.15 17.85 -12.2 17.85 -12.3 17.9 -12.35 17.9 -12.4 17.85 -12.45 17.85 -12.55 17.75 -12.6 17.7 -12.6 17.7 -12.15 17.6 -12.05 17.55 -11.95 17.55 -11.9 17.5 -11.9 17.4 -11.85 17.35 -11.8 17.4 -11.75 17.4 -11.65 M18.3 -7.1 L18.25 -7.15 18.2 -7.1 18.2 -6.35 18.15 -6.25 18.15 -6.2 18.1 -6.15 Q18.1 -6.05 18.1 -5.95 L18.1 -5.8 18.2 -5.9 18.2 -6.1 18.3 -6.2 18.3 -7.0 18.35 -7.05 18.3 -7.1 M21.05 -7.1 L20.95 -7.2 20.95 -6.7 21.0 -6.65 Q21.0 -6.75 21.05 -6.85 L21.05 -7.1 M-18.3 -14.95 L-18.3 -14.75 -18.25 -14.7 -18.25 -14.95 -18.2 -15.0 -18.2 -15.05 -18.3 -15.15 -18.3 -14.95 M-19.75 -14.2 L-19.8 -14.15 -19.8 -14.1 -19.5 -14.1 -19.6 -14.2 -19.65 -14.3 -19.75 -14.25 -19.75 -14.2 M-18.6 -13.7 L-18.5 -13.75 -18.65 -13.7 -18.6 -13.7 M-0.6 -24.9 L-0.35 -24.9 -0.15 -25.0 -0.15 -25.05 -0.2 -25.05 -0.8 -25.0 -0.75 -25.0 -0.65 -24.95 -0.6 -24.9 M-1.55 -25.6 L-1.55 -25.6 M-1.5 -25.0 L-1.65 -24.85 -1.65 -24.7 -1.6 -24.75 -1.5 -24.8 -1.35 -24.95 -1.4 -24.95 -1.5 -25.0 M-2.25 -23.55 L-2.3 -23.5 -2.3 -23.4 -2.25 -23.45 -2.25 -23.5 -2.2 -23.6 -2.25 -23.55 M-8.15 -21.25 L-8.2 -21.3 -8.3 -21.25 -8.4 -21.15 -8.4 -21.05 -8.35 -21.1 -8.2 -21.15 -8.0 -21.15 -8.05 -21.2 -8.15 -21.25 M-7.7 -21.1 L-7.1 -21.1 -7.0 -21.15 -6.8 -21.2 -6.75 -21.25 -6.75 -21.3 -6.95 -21.25 -7.15 -21.15 -7.75 -21.15 -7.7 -21.1 M-8.45 -20.9 L-8.45 -20.9 M-5.45 -21.55 L-5.5 -21.6 -5.55 -21.7 -5.6 -21.75 -5.6 -21.8 -5.65 -21.9 -5.65 -22.0 -5.7 -22.05 -5.7 -22.15 -5.75 -22.2 -5.9 -22.2 -5.9 -22.0 -5.85 -22.0 -5.75 -21.95 -5.7 -21.9 -5.7 -21.85 -5.65 -21.75 -5.65 -21.65 -5.6 -21.6 -5.6 -21.55 -5.45 -21.5 -5.35 -21.45 -5.3 -21.4 -5.2 -21.35 -5.1 -21.35 -5.0 -21.3 -4.75 -21.3 -4.65 -21.35 -4.85 -21.35 -5.25 -21.45 -5.45 -21.55 M-9.45 -20.25 L-9.55 -20.2 -9.55 -20.1 -9.6 -20.1 -9.5 -20.2 -9.4 -20.25 -9.45 -20.25 M-9.85 -19.95 L-9.85 -19.95 M-15.7 -15.8 L-15.4 -15.8 -15.3 -15.75 -15.35 -15.85 -15.35 -15.9 -15.4 -15.9 -15.65 -15.95 -15.7 -15.85 -15.75 -15.8 -15.85 -15.75 -16.0 -15.75 -16.05 -15.8 -16.15 -15.7 -16.15 -15.6 -16.2 -15.6 -16.2 -15.4 -16.25 -15.3 -16.25 -15.25 -16.3 -15.2 -16.3 -15.15 -16.35 -15.1 -16.3 -15.05 -16.3 -14.85 -16.35 -14.8 -16.35 -14.75 -16.25 -14.8 -16.25 -14.85 -16.2 -14.95 -16.1 -15.05 -16.05 -15.15 -16.05 -15.3 -16.0 -15.4 -16.0 -15.45 -15.95 -15.5 -15.95 -15.55 -15.9 -15.65 -15.85 -15.7 -15.75 -15.75 -15.7 -15.8 M-16.75 -14.6 L-16.75 -14.55 -16.7 -14.55 -16.65 -14.6 -16.75 -14.6 M-13.25 -15.9 L-13.25 -15.9 M-14.2 -15.0 L-14.15 -15.0 -13.95 -14.9 -13.9 -14.9 -13.8 -14.95 -13.7 -14.95 -13.6 -14.9 -13.5 -14.9 -13.45 -15.0 -13.3 -15.15 -13.25 -15.25 -13.45 -15.15 -13.65 -15.0 -14.25 -15.05 -14.2 -15.0 M-14.9 -15.35 L-14.85 -15.3 -14.8 -15.3 -14.8 -15.35 -14.85 -15.4 -15.1 -15.45 -15.05 -15.4 -15.0 -15.4 -14.9 -15.35 M-12.45 -18.2 L-12.55 -18.1 -12.55 -18.0 -12.45 -17.9 -12.45 -17.8 -12.4 -17.75 -12.4 -17.7 -12.35 -17.65 -12.35 -17.55 -12.3 -17.55 -12.35 -17.6 -12.35 -18.25 -12.45 -18.2 M-12.05 -16.7 L-12.05 -16.7" fill="#8ce6e6" fill-opacity="0.7529412" fill-rule="evenodd" stroke="none"/>
    <path d="M9.9 -22.35 L9.9 -22.4 9.85 -22.45 9.85 -22.5 9.7 -22.5 9.7 -22.85 9.8 -22.9 9.8 -22.95 9.85 -22.95 9.85 -23.0 9.9 -23.05 9.95 -23.05 10.15 -23.25 10.15 -23.35 10.1 -23.35 10.1 -23.55 10.05 -23.55 10.05 -23.65 10.15 -23.75 10.25 -23.75 10.4 -23.6 10.55 -23.6 10.55 -23.65 10.7 -23.75 10.8 -23.8 10.85 -23.85 10.85 -23.95 10.8 -24.05 10.8 -24.1 10.75 -24.1 10.7 -24.15 10.7 -24.4 10.55 -24.4 10.5 -24.5 10.45 -24.55 10.45 -24.7 10.55 -24.8 10.6 -24.8 10.6 -24.85 10.8 -24.85 10.85 -24.9 10.85 -24.95 10.9 -24.95 10.9 -25.1 11.0 -25.2 11.0 -25.3 11.05 -25.35 11.1 -25.35 11.1 -25.4 11.2 -25.4 11.2 -25.3 11.1 -25.2 11.05 -25.2 11.05 -25.05 11.0 -25.0 11.0 -24.95 10.95 -24.95 10.95 -24.85 10.9 -24.8 10.9 -24.75 10.85 -24.75 10.7 -24.7 10.65 -24.7 10.6 -24.65 10.6 -24.6 10.75 -24.55 10.8 -24.45 10.85 -24.4 10.85 -24.35 10.8 -24.3 10.9 -24.2 10.9 -24.1 10.95 -24.1 10.95 -23.75 11.0 -23.75 11.05 -23.8 11.1 -23.8 11.15 -23.85 11.25 -23.9 11.3 -23.9 11.35 -23.95 11.45 -23.95 11.45 -24.0 11.55 -24.1 11.55 -24.2 11.6 -24.2 11.65 -24.3 11.75 -24.3 11.85 -24.25 11.95 -24.15 11.95 -24.1 12.0 -24.05 12.0 -24.0 12.1 -23.9 Q12.15 -23.85 12.2 -23.85 L12.45 -23.75 12.5 -23.7 12.5 -23.65 12.55 -23.65 Q12.55 -23.7 12.6 -23.75 L12.65 -23.85 12.75 -23.85 12.8 -23.8 12.8 -23.7 12.95 -23.7 12.95 -23.6 13.05 -23.6 13.15 -23.5 13.2 -23.5 13.25 -23.45 13.25 -23.35 13.0 -23.35 12.9 -23.4 12.85 -23.45 12.85 -23.5 12.8 -23.5 12.8 -23.55 12.75 -23.6 12.75 -23.65 12.7 -23.7 12.6 -23.6 12.4 -23.6 12.4 -23.65 12.3 -23.65 12.25 -23.7 12.15 -23.7 12.0 -23.85 Q11.95 -23.95 11.9 -23.95 L11.85 -24.0 11.85 -24.1 11.8 -24.15 11.7 -24.15 11.6 -24.05 11.6 -23.95 11.55 -23.9 11.55 -23.85 11.5 -23.85 11.45 -23.8 11.4 -23.8 11.4 -23.75 11.3 -23.75 11.15 -23.7 11.05 -23.65 11.0 -23.6 10.95 -23.6 10.75 -23.5 10.65 -23.5 10.65 -23.45 10.6 -23.45 10.55 -23.4 10.3 -23.4 10.3 -23.45 10.25 -23.5 10.2 -23.5 10.2 -23.55 10.15 -23.55 10.15 -23.4 10.2 -23.35 10.2 -23.2 10.15 -23.2 10.15 -23.1 9.9 -22.85 9.9 -22.8 9.85 -22.8 9.85 -22.7 9.8 -22.7 9.8 -22.65 9.85 -22.6 9.95 -22.6 9.95 -22.5 10.0 -22.45 10.0 -22.4 10.05 -22.35 10.05 -22.25 10.0 -22.25 10.0 -22.2 10.05 -22.15 10.05 -21.95 10.1 -21.9 10.1 -21.8 10.05 -21.75 10.05 -21.7 10.0 -21.65 10.0 -21.55 9.95 -21.45 9.9 -21.4 9.8 -21.4 9.75 -21.45 9.9 -21.6 9.9 -21.65 9.95 -21.7 9.95 -21.75 10.0 -21.8 10.0 -21.9 9.95 -21.95 9.95 -22.15 9.9 -22.2 9.9 -22.35 M12.15 -25.5 L12.05 -25.45 12.0 -25.5 11.75 -25.5 11.75 -25.55 11.7 -25.55 11.65 -25.6 11.6 -25.6 11.6 -25.65 11.55 -25.7 11.3 -25.7 11.3 -25.8 11.35 -25.8 11.35 -25.85 11.45 -25.85 11.45 -25.9 11.5 -25.85 11.6 -25.85 11.7 -25.75 11.7 -25.7 11.75 -25.7 11.85 -25.6 12.0 -25.6 12.05 -25.55 12.1 -25.55 12.15 -25.5 M-8.4 -15.2 L-8.4 -14.85 -8.45 -14.8 -8.45 -14.65 -8.55 -14.65 -8.6 -14.6 -8.65 -14.6 -8.7 -14.55 -8.7 -14.6 -8.55 -14.7 -8.55 -14.75 -8.5 -14.75 -8.5 -15.0 -8.45 -15.0 -8.45 -15.25 -8.4 -15.25 -8.4 -15.2 M-8.75 -14.55 L-8.8 -14.55 -8.85 -14.5 -9.0 -14.45 -9.05 -14.45 -9.05 -14.35 -9.0 -14.3 -9.0 -14.1 -9.2 -13.9 -9.25 -13.9 -9.3 -13.85 -9.6 -13.85 -9.65 -13.9 -9.65 -14.0 -9.7 -14.05 -9.7 -14.15 -9.75 -14.15 -9.8 -14.1 -9.8 -14.05 -9.85 -14.05 -9.85 -14.0 -9.95 -14.0 -9.95 -13.95 -10.0 -13.95 -10.0 -13.9 -9.95 -13.85 -9.9 -13.85 -9.9 -13.65 -9.95 -13.6 -9.95 -13.45 -10.0 -13.45 -10.0 -13.35 -10.05 -13.35 -10.05 -13.3 -10.1 -13.25 -10.15 -13.15 -10.2 -13.15 -10.25 -13.1 -10.3 -13.1 -10.35 -13.05 -10.45 -13.0 -10.6 -13.15 -10.65 -13.15 -10.65 -13.1 -10.7 -13.1 -10.7 -13.05 -10.8 -13.0 -11.15 -13.0 -11.2 -13.1 -11.3 -13.2 -11.3 -13.3 -11.25 -13.35 -11.25 -13.8 -11.3 -13.9 -11.35 -13.95 -11.4 -13.95 -11.5 -14.0 -11.55 -14.0 -11.5 -14.05 -11.45 -14.05 -11.4 -14.1 -11.3 -14.05 -11.25 -14.05 -11.2 -14.0 -11.2 -13.9 -11.15 -13.9 -11.15 -13.7 -11.2 -13.65 -11.2 -13.6 -11.1 -13.5 -11.1 -13.45 -11.05 -13.45 -11.05 -13.4 -11.1 -13.35 -11.1 -13.3 -11.15 -13.25 -11.15 -13.2 -11.1 -13.2 Q-11.1 -13.15 -11.05 -13.15 L-10.95 -13.15 -10.95 -13.1 -10.75 -13.1 -10.75 -13.2 -10.7 -13.25 -10.7 -13.3 -10.65 -13.3 -10.6 -13.35 -10.55 -13.35 -10.55 -13.3 -10.45 -13.3 -10.45 -13.25 -10.4 -13.2 -10.35 -13.2 -10.35 -13.25 -10.25 -13.25 -10.15 -13.35 -10.1 -13.45 -10.0 -13.55 -10.0 -13.75 -10.1 -13.8 -10.1 -13.85 -10.15 -13.85 Q-10.2 -13.9 -10.2 -13.95 L-10.2 -14.0 -10.15 -14.0 -10.1 -14.05 -9.9 -14.15 Q-9.85 -14.15 -9.8 -14.2 L-9.75 -14.25 -9.65 -14.25 -9.65 -14.2 -9.6 -14.15 -9.6 -14.1 -9.55 -14.05 -9.55 -14.0 -9.5 -14.0 -9.35 -13.95 -9.3 -14.0 -9.25 -14.0 -9.2 -14.05 -9.15 -14.05 -9.1 -14.1 -9.1 -14.15 Q-9.1 -14.2 -9.1 -14.25 L-9.25 -14.4 -9.25 -14.45 -9.2 -14.5 -9.2 -14.55 -9.05 -14.55 -9.05 -14.6 -8.9 -14.6 -8.85 -14.65 -8.8 -14.6 -8.75 -14.6 -8.75 -14.55" fill="#ffffff" fill-rule="evenodd" stroke="none"/>
  </g>
</svg>
