<?xml version="1.0" encoding="UTF-8" standalone="no"?>
<svg xmlns:ffdec="https://www.free-decompiler.com/flash" xmlns:xlink="http://www.w3.org/1999/xlink" ffdec:objectType="shape" height="23.1px" width="42.4px" xmlns="http://www.w3.org/2000/svg">
  <g transform="matrix(1.0, 0.0, 0.0, 1.0, 20.85, 27.15)">
    <path d="M3.8 -27.1 L3.9 -27.15 4.0 -27.15 4.1 -27.1 4.15 -27.0 4.15 -26.9 4.2 -26.85 4.2 -26.7 4.3 -26.6 4.3 -26.5 4.35 -26.45 4.35 -26.35 4.6 -26.35 4.65 -26.4 4.75 -26.45 4.8 -26.5 4.75 -26.6 4.75 -26.85 4.85 -26.95 5.3 -26.95 5.35 -26.9 5.35 -26.85 5.4 -26.75 5.45 -26.7 5.45 -26.6 5.5 -26.5 5.5 -26.25 5.45 -26.2 5.4 -26.25 Q5.35 -26.25 5.35 -26.3 5.3 -26.3 5.3 -26.35 L5.3 -26.4 5.25 -26.45 5.15 -26.6 5.15 -26.7 4.95 -26.7 4.95 -26.5 4.9 -26.45 4.9 -26.4 4.85 -26.4 4.75 -26.3 4.6 -26.25 4.6 -26.2 4.25 -26.25 4.25 -26.3 4.15 -26.35 4.15 -26.55 4.1 -26.6 4.1 -26.75 4.05 -26.8 4.05 -26.85 4.0 -26.95 3.95 -27.0 3.85 -26.95 3.85 -26.9 3.8 -26.8 3.8 -26.75 3.7 -26.7 3.65 -26.65 3.75 -26.55 3.75 -26.5 3.8 -26.4 3.8 -26.35 3.85 -26.3 3.85 -25.75 3.8 -25.7 3.8 -25.4 3.75 -25.25 Q3.7 -25.15 3.65 -25.1 L3.55 -24.9 3.55 -24.8 3.6 -24.75 3.65 -24.65 3.65 -24.35 3.6 -24.3 3.6 -24.15 3.65 -24.1 3.65 -24.05 3.7 -23.95 3.75 -23.9 3.75 -23.05 3.7 -23.0 3.6 -23.0 3.55 -23.05 3.4 -22.95 3.25 -22.9 3.2 -22.85 3.2 -22.75 3.15 -22.7 3.05 -22.65 2.95 -22.65 2.8 -22.6 2.75 -22.5 2.7 -22.45 2.6 -22.4 2.55 -22.35 2.55 -22.25 2.75 -22.15 2.8 -22.05 2.95 -21.9 2.95 -21.85 3.0 -21.8 3.15 -21.7 3.3 -21.7 3.4 -21.75 3.4 -21.85 3.45 -21.9 3.8 -21.95 3.85 -22.0 3.95 -21.95 4.1 -21.9 4.15 -21.8 4.25 -21.7 4.35 -21.65 4.45 -21.65 4.5 -21.55 4.7 -21.35 4.9 -21.35 5.0 -21.3 5.05 -21.25 5.2 -21.25 5.3 -21.15 5.35 -21.05 5.45 -21.0 5.5 -20.95 5.55 -21.0 6.25 -21.0 6.25 -21.1 6.35 -21.15 6.45 -21.25 6.45 -21.35 6.5 -21.4 6.5 -21.5 6.55 -21.6 6.6 -21.65 6.7 -21.7 7.0 -21.7 7.1 -21.65 7.1 -21.45 7.15 -21.4 7.25 -21.35 7.3 -21.25 7.3 -21.2 Q7.35 -21.2 7.4 -21.15 L7.45 -21.15 7.55 -21.2 7.6 -21.2 7.75 -21.15 7.75 -21.1 7.65 -21.05 7.65 -21.0 7.5 -20.95 7.45 -20.9 7.25 -20.9 7.1 -20.95 7.1 -21.1 7.0 -21.15 6.95 -21.2 6.95 -21.4 7.0 -21.45 6.9 -21.45 6.8 -21.4 6.75 -21.35 6.75 -21.3 6.7 -21.15 Q6.65 -21.0 6.55 -20.9 L6.45 -20.8 6.45 -20.75 6.5 -20.65 6.6 -20.55 6.6 -20.1 6.55 -20.05 6.55 -19.65 6.5 -19.6 6.5 -19.55 6.35 -19.4 6.3 -19.4 6.3 -19.25 6.25 -19.2 6.2 -19.2 6.15 -19.15 5.95 -19.15 5.85 -19.1 5.85 -19.05 5.8 -18.95 5.8 -18.85 5.75 -18.7 5.75 -18.6 5.7 -18.5 Q5.65 -18.4 5.6 -18.25 L5.4 -18.05 Q5.3 -17.9 5.2 -17.7 L5.2 -17.55 5.1 -17.45 5.1 -17.3 5.05 -17.25 5.05 -17.2 5.1 -17.1 5.1 -17.0 5.15 -16.95 5.2 -16.85 5.25 -16.8 Q5.3 -16.8 5.3 -16.75 L5.55 -16.7 5.6 -16.7 5.65 -16.65 5.75 -16.65 5.8 -16.55 5.85 -16.5 6.0 -16.5 6.3 -16.55 6.35 -16.5 Q6.35 -16.45 6.4 -16.45 L6.5 -16.45 6.55 -16.5 6.65 -16.5 6.8 -16.35 6.9 -16.3 7.25 -16.3 7.35 -16.35 7.55 -16.4 7.7 -16.55 7.8 -16.7 7.85 -16.85 7.95 -16.95 7.95 -17.1 8.0 -17.15 8.0 -17.2 8.05 -17.25 8.05 -17.35 8.1 -17.4 8.1 -17.6 8.15 -17.65 8.15 -17.85 8.2 -17.9 8.2 -17.95 8.25 -18.05 8.25 -18.15 8.3 -18.25 8.3 -18.6 8.35 -18.65 8.35 -19.3 8.4 -19.35 8.45 -19.45 8.5 -19.5 8.6 -19.55 8.7 -19.65 8.9 -19.65 8.9 -19.85 Q8.9 -19.9 8.9 -19.95 L9.0 -20.05 9.0 -20.1 9.05 -20.2 9.05 -20.3 9.1 -20.35 9.1 -20.55 9.15 -20.65 9.15 -20.7 9.2 -20.75 9.2 -20.8 9.25 -20.9 9.3 -20.9 9.3 -21.1 9.35 -21.2 9.35 -21.3 9.45 -21.45 9.55 -21.55 9.7 -21.65 9.8 -21.65 9.9 -21.6 10.0 -21.5 10.0 -21.3 9.95 -21.25 9.9 -21.15 9.9 -21.1 10.0 -21.0 10.0 -20.9 10.2 -20.85 10.25 -20.9 10.3 -20.9 10.4 -20.85 10.45 -20.85 10.65 -20.95 11.05 -20.95 11.15 -20.9 11.2 -20.8 11.35 -20.65 11.4 -20.55 11.4 -20.5 11.45 -20.45 11.7 -20.45 11.85 -20.5 11.85 -20.85 11.9 -20.9 11.95 -21.05 12.0 -21.1 12.0 -21.2 12.05 -21.3 12.1 -21.3 12.2 -21.35 12.25 -21.45 12.25 -21.5 12.3 -21.5 12.45 -21.6 12.5 -21.65 12.6 -21.65 12.65 -21.7 13.05 -21.7 13.15 -21.65 13.4 -21.6 13.5 -21.55 13.55 -21.5 13.7 -21.5 13.75 -21.45 13.8 -21.35 13.85 -21.35 Q14.1 -21.35 14.35 -21.35 L14.4 -21.4 14.5 -21.55 14.6 -21.65 14.6 -21.75 14.7 -21.85 14.7 -22.05 14.75 -22.15 14.75 -22.45 14.85 -22.55 14.9 -22.55 14.9 -22.6 14.85 -22.65 14.65 -22.7 14.6 -22.8 14.6 -23.15 14.65 -23.2 15.05 -23.2 15.1 -23.1 Q15.05 -23.05 15.0 -23.05 L14.7 -23.0 14.8 -22.9 14.95 -22.85 15.0 -22.75 15.15 -22.6 15.1 -22.55 15.25 -22.4 15.45 -22.3 15.45 -22.2 15.55 -22.15 16.05 -22.1 16.2 -21.95 Q16.2 -21.9 16.25 -21.9 L16.3 -21.85 16.45 -21.85 16.5 -21.9 16.65 -21.9 16.75 -21.85 16.8 -21.75 16.95 -21.7 17.15 -21.6 17.2 -21.6 17.25 -21.5 17.4 -21.35 17.45 -21.25 17.5 -21.2 17.5 -21.15 17.55 -21.2 17.6 -21.3 17.8 -21.5 17.8 -21.55 Q17.9 -21.6 18.0 -21.65 L18.2 -21.85 18.2 -21.9 18.25 -22.0 18.35 -22.1 18.35 -22.2 18.45 -22.3 18.45 -22.45 18.4 -22.5 18.4 -22.7 18.45 -22.75 18.5 -22.85 18.55 -22.9 18.65 -22.9 18.8 -22.85 18.9 -22.75 18.9 -22.5 18.85 -22.4 18.8 -22.35 18.75 -22.35 18.65 -22.3 18.55 -22.1 18.45 -21.95 18.4 -21.9 Q18.4 -21.75 18.35 -21.7 L17.85 -21.2 17.8 -21.1 17.75 -21.05 17.75 -21.0 17.7 -20.95 17.65 -20.85 17.65 -20.65 17.7 -20.55 17.7 -20.3 17.75 -20.25 17.7 -20.2 17.7 -20.1 17.65 -20.05 17.6 -20.05 17.45 -19.95 17.2 -19.95 17.2 -19.9 17.1 -19.8 16.9 -19.75 16.85 -19.7 16.75 -19.65 16.6 -19.6 16.6 -19.55 15.9 -19.55 15.9 -19.5 15.7 -19.45 15.7 -19.4 15.75 -19.35 15.75 -19.25 15.8 -19.2 15.8 -18.95 15.85 -18.95 15.95 -19.0 16.1 -19.0 16.2 -18.95 16.25 -18.9 16.45 -18.85 16.55 -18.8 16.8 -18.55 16.8 -18.5 16.85 -18.4 16.95 -18.3 16.95 -17.85 16.9 -17.8 16.9 -17.6 16.95 -17.55 16.95 -17.1 16.9 -17.05 16.9 -16.75 16.85 -16.7 16.85 -16.6 16.9 -16.55 16.9 -16.1 16.8 -16.0 16.8 -15.9 16.75 -15.85 16.75 -15.55 16.8 -15.45 16.8 -15.2 16.85 -15.15 16.85 -15.1 16.95 -14.95 17.0 -14.85 17.0 -14.75 17.1 -14.65 17.1 -14.35 17.0 -14.25 16.85 -14.2 16.65 -14.1 16.55 -14.15 16.5 -14.05 16.5 -14.0 16.45 -13.95 16.45 -13.85 16.35 -13.75 16.35 -13.7 16.3 -13.65 Q16.35 -13.6 16.4 -13.55 L16.45 -13.5 16.6 -13.45 16.65 -13.45 16.7 -13.35 16.75 -13.3 16.85 -13.3 17.0 -13.25 17.1 -13.2 17.15 -13.15 17.2 -13.05 17.3 -12.95 17.4 -12.8 17.45 -12.75 17.55 -12.75 17.75 -12.7 17.85 -12.65 17.9 -12.6 17.9 -12.5 17.95 -12.45 17.95 -12.25 17.9 -12.15 17.8 -12.0 17.85 -11.95 17.9 -11.85 17.9 -11.8 17.95 -11.75 17.95 -11.55 18.05 -11.45 18.5 -11.35 18.5 -11.45 Q18.5 -11.5 18.55 -11.55 L18.6 -11.6 18.65 -11.6 18.75 -11.65 18.8 -11.7 18.95 -11.7 19.0 -11.65 19.0 -11.7 19.05 -11.75 19.05 -12.0 19.1 -12.05 19.15 -12.15 19.2 -12.15 19.3 -12.2 19.35 -12.25 19.45 -12.25 19.5 -12.2 19.95 -12.15 20.2 -12.15 20.55 -12.1 20.6 -12.05 20.75 -12.05 20.95 -12.1 21.05 -12.05 21.15 -11.95 21.15 -11.7 21.1 -11.6 21.0 -11.5 21.0 -11.45 20.95 -11.35 20.95 -11.2 21.05 -11.1 21.15 -11.05 21.3 -10.9 21.3 -10.75 21.35 -10.65 21.35 -10.45 21.45 -10.25 21.5 -10.25 21.5 -10.1 21.55 -10.1 21.5 -10.05 21.5 -9.85 21.45 -9.9 21.4 -9.9 21.4 -10.05 21.35 -10.1 21.35 -10.2 21.3 -10.2 21.3 -10.25 21.2 -10.35 21.2 -10.45 21.15 -10.45 Q21.1 -10.5 21.1 -10.55 L21.1 -10.75 21.05 -10.8 21.05 -10.85 20.95 -10.9 20.9 -10.9 20.8 -10.95 20.75 -11.05 20.7 -11.1 20.7 -11.35 20.8 -11.45 20.8 -11.55 20.85 -11.6 20.85 -11.65 20.9 -11.75 20.95 -11.8 20.9 -11.85 20.8 -11.85 20.8 -11.8 20.6 -11.85 20.55 -11.9 20.45 -11.95 19.25 -11.95 19.25 -11.75 19.2 -11.7 19.15 -11.6 19.15 -11.55 19.2 -11.4 19.3 -11.3 19.3 -11.2 19.35 -11.1 19.35 -10.7 19.4 -10.65 19.4 -10.6 19.45 -10.5 Q19.45 -10.4 19.45 -10.25 L19.45 -10.0 19.5 -9.95 19.5 -9.8 19.55 -9.6 19.55 -9.3 19.6 -9.25 19.6 -9.2 19.65 -9.1 19.65 -9.05 19.7 -9.0 19.7 -8.6 19.5 -8.4 19.45 -8.4 19.45 -8.25 19.5 -8.25 19.55 -8.3 19.65 -8.35 19.7 -8.4 19.75 -8.4 20.1 -8.45 20.2 -8.5 20.25 -8.55 20.55 -8.55 20.65 -8.5 20.65 -8.4 20.7 -8.35 20.8 -8.3 20.85 -8.2 20.9 -8.15 20.95 -8.05 20.95 -7.65 21.1 -7.5 21.1 -7.45 21.15 -7.35 21.15 -7.0 21.2 -6.95 21.2 -6.9 Q21.25 -6.8 21.25 -6.7 L21.25 -6.3 21.2 -6.25 21.2 -6.1 21.1 -6.0 21.0 -5.95 21.0 -5.9 20.95 -5.8 20.95 -5.5 20.9 -5.45 20.9 -5.4 20.85 -5.3 20.85 -5.25 20.75 -5.15 20.8 -5.1 20.9 -5.05 20.95 -4.95 21.1 -4.8 21.15 -4.7 21.2 -4.65 21.2 -4.4 21.15 -4.35 21.15 -4.25 Q21.1 -4.25 21.05 -4.2 L21.0 -4.15 20.9 -4.1 20.85 -4.05 20.7 -4.05 20.65 -4.1 Q20.65 -4.15 20.65 -4.2 L20.65 -4.25 20.7 -4.3 20.75 -4.4 20.7 -4.45 20.7 -4.5 20.65 -4.65 20.55 -4.75 20.45 -4.9 20.45 -5.35 20.65 -5.55 Q20.65 -5.65 20.65 -5.75 20.65 -5.9 20.7 -6.0 20.7 -6.1 20.7 -6.2 L20.7 -6.6 20.75 -6.65 20.7 -6.7 20.7 -6.9 20.65 -6.95 20.65 -7.2 20.7 -7.3 20.7 -7.4 20.65 -7.5 20.65 -7.9 20.6 -8.0 20.4 -8.2 20.2 -8.1 19.9 -8.05 19.8 -8.05 19.75 -7.95 19.65 -7.85 19.6 -7.85 19.55 -7.8 19.35 -7.85 19.3 -7.85 19.3 -7.8 Q19.2 -7.8 19.1 -7.8 L19.1 -7.7 19.15 -7.65 19.15 -7.6 19.2 -7.5 19.2 -7.45 19.25 -7.4 19.25 -7.15 19.2 -7.1 19.15 -7.0 19.15 -6.95 19.05 -6.9 19.0 -6.85 18.45 -6.85 18.35 -6.75 18.3 -6.65 18.3 -6.6 18.35 -6.55 18.35 -6.5 18.4 -6.4 18.45 -6.35 18.45 -5.95 18.4 -5.9 18.4 -5.7 18.35 -5.65 18.35 -5.6 18.3 -5.5 18.3 -5.35 18.25 -5.25 18.25 -5.2 18.2 -5.15 18.2 -5.1 18.15 -5.05 18.0 -5.05 18.0 -5.1 17.9 -5.3 17.9 -5.75 17.95 -5.8 17.95 -6.35 17.85 -6.45 17.85 -6.7 Q17.85 -6.85 17.95 -6.9 18.05 -7.05 18.2 -7.15 L18.4 -7.25 18.6 -7.15 18.75 -7.1 18.9 -7.15 18.95 -7.2 18.95 -7.4 18.9 -7.45 18.9 -7.85 18.85 -7.85 18.85 -8.8 18.9 -8.9 18.95 -8.95 19.05 -9.0 19.15 -9.0 19.15 -9.75 19.1 -9.8 19.1 -10.1 19.05 -10.2 19.05 -10.5 18.95 -10.6 18.95 -10.7 18.8 -10.85 Q18.45 -10.9 18.05 -10.85 L17.95 -10.85 Q17.85 -10.9 17.75 -10.95 L17.65 -11.0 17.6 -11.05 17.5 -11.2 17.45 -11.25 17.45 -11.45 17.4 -11.5 17.35 -11.6 17.25 -11.65 17.25 -11.7 17.2 -11.75 17.2 -11.85 17.15 -11.9 17.15 -12.05 Q17.2 -12.1 17.2 -12.15 L17.35 -12.35 17.4 -12.4 17.35 -12.45 17.15 -12.6 17.15 -12.75 17.05 -12.85 16.95 -12.9 16.65 -12.85 16.55 -12.9 16.5 -13.0 16.45 -13.0 16.4 -13.05 16.25 -13.1 16.2 -13.15 16.2 -13.2 16.05 -13.3 16.05 -13.35 16.0 -13.4 16.0 -13.45 16.05 -13.55 16.05 -13.6 16.0 -13.65 16.0 -13.8 16.05 -13.85 16.05 -13.9 16.1 -14.0 16.1 -14.3 16.15 -14.4 16.1 -14.4 16.05 -14.35 15.95 -14.45 15.85 -14.5 15.8 -14.55 15.75 -14.65 15.75 -14.85 15.6 -14.9 15.5 -14.85 15.5 -14.3 15.45 -14.3 15.45 -14.25 15.35 -14.2 15.25 -14.1 14.7 -14.05 14.7 -14.0 14.75 -13.95 14.75 -13.9 Q14.8 -13.85 14.85 -13.85 L14.9 -13.75 14.95 -13.7 15.15 -13.7 15.2 -13.6 15.2 -13.45 15.25 -13.35 15.25 -13.3 15.3 -13.25 15.3 -13.15 15.1 -12.95 15.0 -12.9 15.0 -12.85 14.95 -12.85 14.95 -12.8 14.9 -12.75 14.9 -12.65 14.85 -12.6 14.85 -12.4 14.8 -12.35 14.8 -11.85 14.75 -11.8 14.75 -11.65 14.7 -11.65 14.7 -11.7 14.65 -11.75 14.65 -11.85 Q14.65 -11.9 14.65 -11.95 L14.65 -12.05 14.7 -12.1 14.7 -12.25 14.65 -12.3 14.7 -12.4 14.7 -12.45 14.75 -12.5 14.7 -12.55 14.7 -12.7 14.75 -12.75 14.75 -12.8 Q14.75 -12.9 14.85 -12.95 L14.9 -13.0 14.95 -13.1 14.95 -13.2 15.0 -13.2 15.0 -13.15 15.05 -13.1 15.1 -13.15 15.1 -13.2 15.0 -13.3 15.0 -13.35 14.7 -13.65 14.5 -13.7 14.5 -14.0 14.55 -14.05 14.6 -14.15 14.6 -14.25 14.65 -14.25 15.25 -14.35 15.3 -14.4 15.3 -14.85 15.35 -14.95 15.55 -15.15 15.8 -15.15 15.85 -15.05 15.9 -15.0 15.9 -14.8 15.95 -14.75 15.95 -14.65 16.05 -14.6 16.1 -14.55 16.25 -14.55 16.3 -14.65 16.45 -14.7 16.65 -14.75 16.55 -14.85 16.55 -14.95 16.5 -15.0 16.5 -15.25 16.45 -15.3 16.45 -15.4 16.4 -15.45 16.4 -15.5 16.35 -15.55 16.35 -15.85 16.4 -15.9 16.4 -15.95 16.45 -16.1 16.5 -16.2 16.55 -16.35 16.55 -16.6 16.6 -16.65 16.6 -16.8 16.65 -16.85 16.65 -17.05 16.7 -17.1 16.7 -17.15 16.65 -17.2 16.65 -17.25 16.6 -17.35 16.55 -17.4 16.55 -18.05 16.5 -18.1 16.5 -18.25 16.4 -18.35 16.15 -18.4 16.05 -18.4 16.0 -18.5 15.55 -18.5 15.5 -18.55 15.45 -18.65 15.45 -19.1 15.3 -19.25 15.3 -19.7 15.4 -19.85 15.45 -19.9 15.5 -19.9 15.8 -20.0 15.9 -20.0 16.35 -20.05 16.4 -20.1 16.45 -20.1 16.55 -20.2 16.65 -20.25 16.65 -20.55 16.7 -20.65 16.75 -20.7 16.85 -20.75 16.95 -20.75 17.05 -20.7 17.05 -20.75 17.0 -20.8 16.95 -20.95 16.95 -21.0 16.9 -21.05 16.9 -21.15 16.85 -21.2 16.85 -21.25 16.8 -21.25 16.7 -21.3 16.6 -21.4 16.5 -21.4 16.45 -21.35 16.4 -21.35 16.2 -21.4 16.2 -21.45 16.15 -21.5 15.95 -21.6 15.9 -21.65 15.1 -21.7 15.05 -21.75 15.05 -21.7 15.0 -21.7 Q14.95 -21.65 14.9 -21.65 L14.85 -21.6 14.75 -21.4 14.7 -21.35 14.7 -21.25 14.5 -21.05 14.45 -21.05 14.35 -21.0 13.75 -21.0 13.65 -21.05 13.6 -21.1 13.6 -21.15 Q13.3 -21.15 13.05 -21.25 13.0 -21.25 13.0 -21.3 L12.65 -21.25 12.55 -21.2 12.5 -21.15 12.4 -21.1 12.35 -21.05 12.3 -20.9 12.25 -20.85 12.25 -20.8 12.2 -20.7 12.2 -20.45 12.15 -20.4 12.15 -20.3 12.1 -20.2 12.05 -20.15 12.0 -20.15 11.9 -20.05 11.35 -20.05 11.25 -20.1 11.2 -20.15 11.1 -20.35 10.95 -20.5 10.7 -20.45 10.35 -20.45 Q10.2 -20.5 10.0 -20.55 L9.85 -20.55 9.8 -20.6 9.8 -20.7 9.7 -20.6 9.65 -20.5 9.5 -20.4 9.45 -20.35 9.4 -20.35 9.4 -20.15 9.3 -19.95 9.25 -19.9 9.25 -19.85 9.2 -19.8 9.2 -19.65 9.15 -19.6 9.15 -19.55 9.05 -19.4 9.0 -19.35 9.0 -19.3 8.7 -19.25 8.65 -19.2 8.65 -18.65 8.6 -18.6 8.6 -18.55 8.55 -18.5 8.55 -18.05 8.5 -17.95 8.5 -17.8 8.45 -17.7 8.45 -17.6 8.4 -17.55 8.4 -17.45 8.35 -17.4 8.35 -17.25 8.3 -17.2 8.3 -17.1 8.25 -17.0 8.25 -16.95 8.15 -16.75 8.15 -16.7 8.1 -16.65 8.05 -16.55 7.9 -16.4 7.85 -16.3 7.85 -16.25 7.8 -16.2 7.75 -16.1 7.35 -16.1 7.35 -16.05 7.3 -16.0 6.6 -16.0 6.55 -16.1 6.5 -16.15 6.3 -16.2 6.25 -16.25 6.0 -16.3 5.8 -16.35 5.8 -16.4 5.75 -16.45 5.65 -16.45 5.55 -16.4 5.45 -16.4 5.5 -16.3 5.5 -16.2 5.55 -16.05 5.55 -15.95 5.5 -15.8 5.4 -15.7 5.35 -15.6 5.45 -15.5 5.45 -15.4 Q5.5 -15.35 5.55 -15.35 L5.7 -15.2 5.7 -15.15 5.75 -15.05 5.75 -15.0 5.8 -14.95 5.75 -14.8 5.7 -14.7 5.7 -14.6 5.65 -14.5 5.65 -14.45 Q5.7 -14.45 5.8 -14.45 L5.85 -14.55 5.95 -14.55 6.05 -14.6 6.15 -14.75 6.2 -14.9 6.25 -14.95 6.25 -15.0 6.35 -15.05 6.45 -15.0 6.6 -14.95 6.65 -14.85 6.75 -14.75 Q6.85 -14.7 7.0 -14.65 L7.0 -14.55 7.05 -14.5 7.05 -14.4 7.0 -14.3 7.1 -14.25 7.15 -14.2 Q7.2 -14.15 7.25 -14.15 L7.45 -14.05 7.6 -14.05 7.65 -14.2 7.7 -14.25 7.75 -14.25 7.8 -14.3 7.9 -14.35 7.9 -14.45 Q7.95 -14.45 8.05 -14.5 L8.1 -14.55 8.2 -14.55 8.3 -14.6 8.45 -14.7 8.5 -14.75 8.55 -14.75 8.7 -14.7 8.75 -14.7 8.75 -14.65 8.55 -14.6 8.55 -14.55 8.45 -14.5 8.4 -14.45 8.2 -14.4 8.15 -14.35 8.05 -14.3 8.0 -14.25 8.0 -14.2 7.8 -14.1 7.8 -14.05 7.75 -14.05 7.75 -14.0 7.8 -13.95 7.8 -13.75 7.75 -13.7 7.35 -13.7 7.3 -13.75 7.1 -13.75 7.0 -13.8 6.85 -13.9 6.75 -13.95 6.7 -14.0 6.65 -14.15 6.65 -14.55 6.6 -14.65 6.5 -14.75 6.4 -14.7 6.25 -14.55 6.2 -14.45 6.1 -14.35 5.95 -14.3 5.9 -14.2 5.85 -14.15 5.45 -14.15 5.4 -14.25 5.35 -14.3 5.35 -14.55 5.4 -14.6 5.4 -14.75 5.45 -14.8 5.5 -14.9 5.5 -14.95 5.4 -15.05 5.3 -15.05 5.2 -15.15 5.2 -15.3 5.15 -15.35 5.15 -15.7 5.3 -15.85 5.3 -15.95 5.4 -16.05 5.4 -16.25 5.35 -16.3 5.2 -16.35 5.2 -16.4 5.15 -16.4 5.1 -16.5 5.0 -16.6 4.95 -16.7 4.85 -16.8 4.85 -16.85 4.8 -16.95 4.75 -17.0 4.75 -17.45 4.8 -17.5 4.8 -17.55 4.85 -17.65 4.85 -17.7 4.9 -17.75 4.9 -17.8 5.15 -18.1 5.5 -18.45 5.5 -18.5 5.55 -18.6 5.55 -18.65 5.5 -18.7 5.45 -18.8 5.45 -18.9 5.4 -18.95 5.4 -19.15 5.45 -19.2 5.5 -19.35 5.5 -19.4 5.55 -19.5 5.7 -19.55 5.75 -19.6 5.8 -19.6 5.85 -19.65 5.85 -19.7 5.9 -19.75 5.95 -19.9 6.05 -20.0 6.05 -20.05 6.3 -20.1 6.35 -20.1 6.35 -20.2 6.4 -20.25 6.4 -20.3 6.35 -20.35 6.3 -20.45 6.3 -20.55 6.25 -20.65 6.25 -20.7 6.15 -20.75 6.15 -20.8 5.85 -20.8 5.65 -20.75 5.6 -20.7 5.4 -20.7 5.4 -20.75 5.1 -20.85 5.1 -20.9 4.95 -20.9 Q4.9 -20.9 4.85 -20.95 L4.55 -21.05 4.45 -21.1 4.4 -21.2 4.35 -21.25 4.35 -21.3 4.3 -21.3 4.15 -21.35 4.05 -21.35 4.0 -21.45 4.0 -21.5 3.9 -21.5 3.9 -21.55 3.65 -21.55 3.55 -21.5 3.5 -21.45 3.5 -21.4 3.4 -21.35 3.0 -21.35 2.8 -21.45 2.8 -21.5 2.55 -21.5 2.45 -21.55 2.35 -21.65 2.2 -21.7 2.1 -21.7 2.05 -21.8 2.0 -21.85 2.0 -22.1 2.05 -22.15 2.05 -22.2 2.15 -22.35 2.15 -22.55 2.2 -22.65 Q2.3 -22.8 2.4 -22.9 L2.65 -23.05 2.7 -23.1 2.9 -23.2 2.95 -23.2 3.05 -23.3 Q3.1 -23.45 3.2 -23.5 L3.3 -23.6 3.3 -23.65 3.2 -23.75 3.2 -23.95 3.15 -24.0 3.1 -24.1 3.1 -24.15 3.05 -24.2 3.0 -24.3 2.7 -24.3 2.7 -24.25 2.65 -24.2 2.4 -24.2 2.35 -24.1 2.35 -24.05 2.3 -24.0 2.05 -24.0 2.0 -24.05 1.95 -24.15 1.8 -24.15 1.65 -24.2 1.6 -24.2 1.4 -24.25 1.3 -24.25 1.2 -24.3 1.2 -24.35 1.05 -24.4 1.0 -24.45 0.8 -24.5 0.6 -24.6 0.5 -24.7 0.3 -24.75 0.15 -24.9 -0.2 -24.85 -0.6 -24.8 -0.7 -24.7 -0.85 -24.7 -0.85 -24.65 -1.05 -24.7 -1.1 -24.75 -1.2 -24.7 -1.3 -24.7 -1.4 -24.6 -1.6 -24.6 -1.6 -24.55 -1.75 -24.4 -1.75 -24.3 -1.7 -24.2 -1.7 -24.15 -1.75 -24.1 -1.75 -23.95 -1.8 -23.9 -1.8 -23.85 -1.85 -23.75 -1.95 -23.6 -2.1 -23.4 -2.2 -23.25 -2.2 -23.0 -2.25 -22.95 -2.25 -22.55 -2.35 -22.45 -2.35 -22.3 -2.45 -22.1 Q-2.5 -22.0 -2.55 -21.9 L-2.7 -21.8 -2.9 -21.7 -2.95 -21.65 -3.3 -21.65 -3.4 -21.7 -3.45 -21.65 -3.55 -21.6 -3.6 -21.55 -3.6 -21.5 -3.65 -21.4 -3.75 -21.35 -3.8 -21.3 Q-3.9 -21.3 -4.0 -21.2 -4.1 -21.15 -4.25 -21.05 L-4.3 -21.05 -4.95 -21.0 -5.1 -21.05 -5.15 -21.05 -5.2 -21.0 -5.5 -21.05 -5.55 -21.1 -5.55 -21.15 -5.6 -21.2 -5.6 -21.3 -5.75 -21.35 -5.8 -21.4 -5.8 -21.6 -5.75 -21.65 -5.8 -21.7 -5.8 -21.8 -5.85 -21.85 -5.85 -21.9 -5.9 -21.9 -5.9 -21.85 -5.95 -21.85 -5.95 -21.8 -6.0 -21.85 -5.95 -21.9 -6.0 -21.9 -6.0 -21.8 -6.05 -21.75 Q-6.1 -21.65 -6.15 -21.55 L-6.2 -21.35 -6.3 -21.25 Q-6.35 -21.25 -6.4 -21.2 L-6.55 -21.05 -6.7 -21.05 -6.7 -21.0 -7.25 -20.95 -7.35 -21.0 -7.4 -20.95 -7.45 -20.95 -7.6 -20.9 -7.65 -20.85 -7.95 -20.8 -8.15 -20.8 -8.2 -20.9 -8.25 -20.95 -8.4 -20.9 -8.45 -20.85 -8.45 -20.65 -8.5 -20.6 Q-8.5 -20.5 -8.55 -20.45 L-8.75 -20.25 Q-8.75 -20.2 -8.8 -20.2 L-8.85 -20.2 -8.95 -20.15 -9.0 -20.1 -9.05 -20.0 -9.1 -19.95 -9.15 -19.95 -9.15 -19.9 -9.35 -19.8 -9.45 -19.65 -9.55 -19.6 -9.6 -19.6 Q-9.7 -19.6 -9.85 -19.6 L-10.05 -19.55 -10.1 -19.45 -10.25 -19.4 -10.3 -19.3 -10.45 -19.25 -10.5 -19.2 -10.55 -19.1 -10.6 -19.05 -10.7 -19.0 -10.75 -18.95 -10.8 -18.85 -10.8 -18.8 -10.85 -18.8 -10.95 -18.75 -10.95 -18.7 -11.0 -18.65 Q-11.05 -18.5 -11.15 -18.35 -11.25 -18.25 -11.35 -18.2 L-11.4 -18.1 -11.45 -18.1 -11.45 -18.05 -11.6 -18.0 -11.7 -18.05 -11.75 -18.1 -11.95 -18.1 -12.1 -18.05 -12.15 -18.05 -12.15 -18.0 -12.25 -17.95 -12.25 -17.8 -12.15 -17.75 -12.05 -17.65 -12.05 -17.55 -12.0 -17.5 -12.0 -17.05 -12.05 -17.0 -12.05 -16.85 -12.0 -16.8 -11.95 -16.7 -11.8 -16.55 -11.8 -16.5 Q-11.8 -16.45 -11.8 -16.4 -11.8 -16.35 -11.85 -16.3 -11.95 -16.15 -12.05 -16.05 L-12.1 -16.0 -12.15 -15.9 -12.25 -15.85 -12.4 -15.9 -12.65 -15.95 -12.7 -16.0 -12.7 -16.05 -12.95 -16.05 -13.0 -16.0 -13.0 -15.95 -13.1 -15.85 -13.1 -15.75 -13.15 -15.7 -13.15 -15.6 -13.05 -15.5 -13.0 -15.35 -13.05 -15.3 -13.1 -15.15 Q-13.15 -15.0 -13.25 -14.95 L-13.25 -14.95 -13.2 -14.85 -13.15 -14.8 -13.15 -14.6 -13.1 -14.55 -12.9 -14.45 -12.9 -14.3 -12.85 -14.2 -12.8 -14.15 -12.8 -14.1 -12.7 -14.05 -12.6 -13.95 -12.6 -13.9 -12.25 -13.95 -12.25 -14.05 -12.2 -14.1 -12.2 -14.15 -12.15 -14.2 -11.65 -14.25 -11.6 -14.3 -11.6 -14.65 -11.5 -14.75 -11.3 -14.85 -11.25 -14.9 -11.15 -14.85 -10.8 -14.8 -10.6 -14.7 -10.8 -14.6 -11.1 -14.6 -11.25 -14.55 -11.35 -14.5 -11.35 -14.25 -11.4 -14.2 -11.45 -14.1 -11.45 -14.05 -11.5 -14.0 -12.15 -14.0 -12.2 -13.9 -12.2 -13.85 -12.25 -13.85 Q-12.4 -13.8 -12.6 -13.85 L-12.65 -13.85 -12.75 -13.95 Q-12.8 -14.0 -12.9 -14.0 L-12.9 -14.1 -12.95 -14.2 -12.95 -14.35 -13.15 -14.45 -13.3 -14.5 -13.3 -14.7 -13.35 -14.7 -13.65 -14.8 -13.7 -14.8 -13.9 -14.7 -14.4 -14.7 -14.45 -14.75 -14.5 -14.9 -14.6 -15.0 -14.6 -15.1 -14.65 -15.15 -14.8 -15.15 -15.05 -15.1 Q-15.1 -15.15 -15.15 -15.15 L-15.2 -15.2 -15.35 -15.25 -15.5 -15.4 -15.5 -15.5 -15.55 -15.55 -15.9 -15.45 -15.95 -15.4 -15.95 -15.3 -16.0 -15.25 -16.0 -15.2 -15.95 -15.05 -15.95 -14.75 -16.0 -14.7 -16.0 -14.6 -16.1 -14.55 -16.15 -14.5 -16.25 -14.45 -16.5 -14.4 -16.6 -14.45 -16.7 -14.45 -16.75 -14.4 -17.0 -14.4 -17.0 -14.35 -17.05 -14.3 -17.55 -14.3 -17.6 -14.35 -17.6 -14.5 -17.7 -14.6 -17.75 -14.7 -17.85 -14.65 -18.0 -14.65 -18.0 -14.7 -18.05 -14.75 -18.05 -14.8 -18.15 -14.8 -18.15 -14.75 -18.2 -14.7 -18.2 -14.1 -18.25 -14.05 -18.25 -13.9 -18.35 -13.8 -18.35 -13.7 -18.4 -13.65 -18.5 -13.6 -18.55 -13.55 -18.85 -13.55 -18.95 -13.6 Q-19.0 -13.65 -19.05 -13.7 L-19.05 -13.75 -19.2 -13.85 -19.3 -13.95 -19.6 -14.0 -19.7 -13.9 -19.85 -13.85 -20.35 -13.85 -20.5 -14.0 -20.55 -14.0 -20.55 -13.9 -20.6 -13.85 Q-20.7 -13.8 -20.8 -13.85 L-20.85 -13.9 -20.85 -13.95 -20.75 -14.1 -20.7 -14.2 -20.55 -14.3 -20.5 -14.35 -20.4 -14.3 -20.35 -14.25 -20.3 -14.15 -20.3 -14.1 -20.25 -14.05 -20.05 -14.1 -19.95 -14.15 -19.9 -14.25 -19.85 -14.25 -19.7 -14.35 -19.7 -14.4 -19.65 -14.45 -19.65 -14.5 -19.6 -14.5 -19.55 -14.55 -19.5 -14.55 -19.4 -14.5 -19.35 -14.45 -19.35 -14.3 -19.3 -14.25 -19.15 -14.15 -19.05 -14.1 -19.0 -14.1 -18.9 -14.05 -18.8 -13.95 -18.7 -13.9 -18.6 -13.9 -18.55 -14.0 -18.55 -14.05 -18.5 -14.1 -18.5 -14.25 -18.55 -14.45 -18.55 -14.75 -18.5 -14.85 -18.45 -14.9 -18.5 -14.9 -18.5 -15.35 -18.4 -15.45 -18.2 -15.45 -18.05 -15.5 -17.95 -15.6 -17.95 -15.75 -18.0 -15.8 -18.0 -16.05 -17.95 -16.1 -17.95 -16.15 -17.9 -16.2 -17.85 -16.2 Q-17.75 -16.25 -17.75 -16.3 L-17.6 -16.4 -17.55 -16.4 -17.5 -16.45 -17.3 -16.55 -17.3 -16.6 -17.25 -16.65 -17.2 -16.65 -17.1 -16.75 -17.05 -16.75 -17.05 -16.8 -16.95 -16.9 -16.95 -16.95 -16.9 -16.95 -16.8 -17.0 -16.65 -17.0 -16.55 -16.9 -16.55 -16.85 -16.5 -16.8 -16.5 -16.55 -16.45 -16.5 -16.25 -16.5 -16.2 -16.55 -15.7 -16.55 -15.7 -16.5 -15.65 -16.45 -15.65 -16.4 -15.6 -16.4 -15.6 -16.2 -15.5 -16.25 -15.4 -16.2 -15.35 -16.15 -15.25 -16.1 -15.25 -16.0 -15.2 -15.95 -15.2 -15.7 -15.15 -15.65 -15.15 -15.6 -15.05 -15.55 -15.0 -15.55 -14.95 -15.5 -14.7 -15.45 -14.5 -15.4 -14.4 -15.35 -14.3 -15.25 -14.25 -15.1 -14.15 -15.1 -14.05 -15.15 -14.0 -15.15 -14.0 -15.2 -13.95 -15.25 -13.8 -15.3 -13.6 -15.3 -13.55 -15.35 -13.6 -15.4 -13.6 -15.7 -13.55 -15.75 -13.55 -15.8 -13.45 -15.85 -13.3 -16.0 -13.3 -16.05 -13.25 -16.15 -13.15 -16.25 -13.15 -16.3 -13.05 -16.35 -12.55 -16.35 -12.45 -16.25 -12.45 -16.2 -12.35 -16.15 -12.05 -16.3 -12.05 -16.45 -12.25 -16.65 -12.25 -16.85 -12.3 -16.9 -12.3 -17.0 -12.35 -17.1 -12.35 -17.25 -12.55 -17.3 -12.55 -17.4 -12.6 -17.45 -12.6 -17.75 -12.65 -17.8 -12.65 -18.2 -12.6 -18.25 -12.5 -18.3 Q-12.4 -18.35 -12.25 -18.4 L-12.25 -18.65 -12.2 -18.7 -12.15 -18.7 -12.1 -18.75 -11.95 -18.75 -11.85 -18.7 -11.8 -18.65 -11.8 -18.55 -11.7 -18.5 -11.65 -18.45 -11.5 -18.5 -11.4 -18.5 -11.3 -18.55 -11.2 -18.65 -11.15 -18.75 -11.15 -18.8 -11.1 -18.85 -11.0 -18.9 -10.95 -18.9 -10.9 -18.95 -10.85 -19.05 -10.75 -19.15 -10.65 -19.2 -10.6 -19.3 -10.3 -19.6 -10.3 -19.65 -10.05 -19.85 -9.95 -19.95 -9.9 -20.05 -9.85 -20.1 -9.85 -20.25 -9.75 -20.35 -9.7 -20.35 -9.5 -20.25 -9.5 -20.3 -9.4 -20.4 -9.35 -20.5 -9.25 -20.5 -9.2 -20.55 -9.15 -20.55 -9.1 -20.6 -9.05 -20.6 -8.95 -20.65 Q-8.9 -20.7 -8.85 -20.7 L-8.8 -20.8 -8.8 -21.1 -8.7 -21.2 -8.6 -21.35 -8.55 -21.35 Q-8.5 -21.35 -8.5 -21.4 L-8.45 -21.45 -8.15 -21.45 -8.05 -21.4 -8.0 -21.35 -8.0 -21.3 -7.95 -21.25 -7.95 -21.15 -7.75 -21.2 -7.65 -21.25 -7.65 -21.3 -7.55 -21.4 -7.45 -21.45 -7.25 -21.45 -7.15 -21.4 -7.1 -21.35 -6.85 -21.35 Q-6.75 -21.4 -6.7 -21.4 L-6.6 -21.45 -6.55 -21.5 -6.5 -21.6 -6.45 -21.65 -6.45 -21.7 -6.4 -21.75 -6.3 -21.95 Q-6.25 -22.05 -6.2 -22.15 L-6.15 -22.2 -6.15 -22.3 -6.1 -22.35 -5.75 -22.35 -5.75 -22.45 -5.65 -22.55 -5.65 -22.6 -5.6 -22.7 -5.55 -22.75 -5.45 -22.9 -5.45 -23.2 -5.5 -23.35 -5.45 -23.35 -5.4 -23.4 -5.3 -23.35 -5.25 -23.35 -5.2 -23.25 -5.05 -23.1 -4.7 -23.15 -4.65 -23.05 -4.65 -22.9 -4.6 -22.85 -4.55 -22.85 -4.5 -22.9 -4.45 -23.0 -4.4 -23.05 -4.3 -23.2 -4.3 -23.3 -4.35 -23.35 -4.35 -23.65 -4.25 -23.7 -4.2 -23.65 -4.2 -23.75 -4.15 -23.8 -4.15 -23.9 -4.1 -23.9 -4.1 -23.95 -3.65 -23.95 -3.6 -23.9 -3.5 -23.85 -3.5 -23.8 -3.55 -23.7 -3.6 -23.7 Q-3.65 -23.65 -3.75 -23.65 L-4.1 -23.55 -4.1 -23.5 -4.2 -23.45 -4.15 -23.4 -4.15 -23.0 -4.2 -22.95 -4.2 -22.9 -4.3 -22.8 -4.3 -22.75 -4.45 -22.6 Q-4.6 -22.6 -4.75 -22.6 L-4.8 -22.65 -4.8 -22.75 -4.75 -22.8 -4.75 -22.95 -5.1 -23.0 -5.2 -23.1 -5.2 -23.15 -5.3 -23.15 -5.3 -22.8 -5.35 -22.75 -5.4 -22.65 -5.45 -22.6 -5.5 -22.45 -5.55 -22.4 Q-5.55 -22.35 -5.6 -22.35 L-5.65 -22.3 -5.6 -22.25 -5.6 -22.2 -5.55 -22.1 -5.45 -21.8 -5.45 -21.7 -5.4 -21.7 -5.3 -21.65 -5.2 -21.55 -5.05 -21.55 -4.95 -21.5 -4.4 -21.5 Q-4.35 -21.55 -4.25 -21.6 L-4.2 -21.65 -4.0 -21.7 -3.9 -21.75 -3.7 -21.95 -3.55 -22.15 -3.45 -22.2 -3.4 -22.2 -3.3 -22.15 -3.25 -22.05 -3.0 -22.05 -2.9 -22.1 Q-2.85 -22.1 -2.8 -22.15 L-2.8 -22.2 -2.75 -22.25 -2.75 -22.35 -2.65 -22.45 -2.65 -22.6 -2.6 -22.65 -2.6 -23.05 -2.55 -23.1 -2.55 -23.2 -2.5 -23.3 -2.5 -23.4 -2.45 -23.55 -2.4 -23.65 -2.3 -23.8 -2.2 -23.85 Q-2.1 -23.95 -2.0 -24.1 -1.9 -24.25 -1.85 -24.35 L-1.8 -24.4 -1.75 -24.5 -1.75 -24.55 -1.7 -24.6 -1.7 -24.65 -1.75 -24.7 -1.75 -25.1 -1.7 -25.15 -1.6 -25.2 -1.5 -25.2 -1.4 -25.25 -1.3 -25.35 -1.25 -25.35 -1.2 -25.4 -0.95 -25.4 -0.9 -25.35 -0.8 -25.3 -0.8 -25.1 -0.2 -25.1 0.15 -25.05 0.35 -24.95 0.5 -24.9 0.55 -24.8 0.6 -24.75 0.8 -24.65 1.05 -24.65 1.1 -24.6 1.2 -24.6 1.25 -24.65 1.25 -24.7 1.65 -24.7 1.75 -24.65 1.8 -24.6 1.9 -24.6 1.9 -24.65 1.95 -24.7 1.95 -24.75 2.0 -24.75 2.05 -24.8 2.15 -24.8 2.2 -24.75 2.5 -24.75 2.55 -24.85 2.65 -25.0 2.75 -25.1 2.9 -25.1 3.0 -25.05 3.05 -25.0 3.05 -24.95 3.1 -24.95 3.25 -25.1 3.4 -25.1 3.45 -25.05 3.5 -25.15 3.6 -25.25 3.6 -25.3 3.65 -25.4 3.65 -25.85 3.7 -25.9 3.7 -25.95 3.75 -26.0 3.75 -26.1 3.65 -26.2 3.65 -26.25 3.45 -26.55 3.45 -26.6 Q3.45 -26.65 3.5 -26.7 3.55 -26.8 3.6 -26.9 L3.75 -27.1 3.8 -27.1 M16.4 -24.05 L16.4 -24.1 16.6 -24.1 16.6 -24.15 16.7 -24.05 Q16.75 -24.05 16.8 -24.05 L16.85 -23.95 16.85 -23.65 16.9 -23.6 16.9 -23.4 16.95 -23.35 17.0 -23.25 17.05 -23.2 17.8 -23.1 17.9 -23.0 17.9 -22.95 Q17.95 -22.95 17.95 -22.9 L18.05 -22.9 18.1 -22.85 18.35 -22.8 18.4 -22.75 18.4 -22.7 Q18.35 -22.65 18.3 -22.65 L18.25 -22.7 18.05 -22.75 18.0 -22.8 17.95 -22.75 17.85 -22.8 17.8 -22.85 17.7 -22.9 16.95 -22.9 16.9 -23.0 16.8 -23.1 16.75 -23.2 16.7 -23.25 16.7 -23.5 16.75 -23.55 16.75 -23.6 16.7 -23.7 16.7 -23.85 16.6 -23.9 16.6 -23.95 16.5 -23.95 16.4 -23.9 16.3 -23.9 16.15 -23.95 16.15 -24.0 16.3 -24.05 16.4 -24.05 M15.85 -23.7 L15.95 -23.85 Q16.05 -23.9 16.1 -23.9 L16.1 -23.75 15.75 -23.4 15.6 -23.3 15.5 -23.3 15.5 -23.45 15.6 -23.55 15.8 -23.65 15.85 -23.7 M5.5 -25.95 L5.45 -26.05 5.45 -26.1 5.5 -26.1 5.6 -26.0 5.65 -25.9 5.55 -25.9 5.5 -25.95 M8.4 -21.05 L8.4 -20.9 8.25 -20.9 8.3 -20.95 8.3 -21.0 8.35 -21.05 8.3 -21.05 8.2 -21.15 8.15 -21.25 8.1 -21.3 8.15 -21.35 8.25 -21.25 8.4 -21.2 8.4 -21.05 M18.75 -6.75 L18.8 -6.2 18.8 -6.15 18.7 -6.25 18.7 -6.65 18.75 -6.7 18.75 -6.75 M17.9 -5.0 L17.85 -5.0 17.9 -5.05 17.9 -5.0 M-17.65 -16.2 L-17.7 -16.2 -17.7 -16.15 -17.75 -16.1 -17.85 -16.1 -17.9 -16.05 -17.9 -16.0 -17.95 -16.0 -17.95 -15.9 -17.9 -15.85 -17.9 -15.6 -17.95 -15.5 -18.05 -15.4 -18.1 -15.4 -18.05 -15.35 -18.05 -15.3 -17.9 -15.3 -17.85 -15.2 -17.8 -15.15 -17.7 -15.1 -17.6 -15.1 -17.55 -15.05 -17.5 -15.05 -17.4 -15.0 -17.35 -14.95 -17.3 -14.85 -17.3 -14.75 -17.25 -14.7 Q-17.2 -14.65 -17.2 -14.7 L-17.15 -14.7 -17.15 -14.75 -16.8 -14.75 -16.7 -14.7 -16.6 -14.8 -16.5 -14.85 -16.45 -14.9 -16.45 -15.15 -16.4 -15.2 -16.35 -15.3 -16.35 -15.6 -16.3 -15.7 -16.2 -15.85 -16.15 -15.9 -16.05 -15.95 -15.95 -15.95 -15.9 -15.9 -15.75 -15.9 -15.75 -16.1 -15.7 -16.15 -15.7 -16.25 -15.8 -16.35 -15.8 -16.4 -15.85 -16.4 -16.05 -16.5 -16.3 -16.45 -16.45 -16.4 -16.5 -16.4 -16.5 -16.45 -16.55 -16.5 -16.55 -16.8 -16.6 -16.85 -16.65 -16.85 -16.65 -16.9 -16.75 -16.85 -16.85 -16.85 -17.0 -16.7 -17.05 -16.7 -17.1 -16.65 -17.1 -16.6 -17.2 -16.55 -17.3 -16.45 -17.5 -16.35 -17.5 -16.3 -17.55 -16.3 -17.65 -16.2" fill="#ffffff" fill-rule="evenodd" stroke="none"/>
  </g>
</svg>
