<?xml version="1.0" encoding="UTF-8" standalone="no"?>
<svg xmlns:ffdec="https://www.free-decompiler.com/flash" xmlns:xlink="http://www.w3.org/1999/xlink" ffdec:objectType="shape" height="56.05px" width="61.5px" xmlns="http://www.w3.org/2000/svg">
  <g transform="matrix(1.0, 0.0, 0.0, 1.0, 28.25, 53.2)">
    <path d="M25.25 -41.0 L25.25 -41.95 25.3 -42.05 Q25.4 -42.15 25.7 -42.15 29.2 -42.15 31.6 -31.8 32.75 -26.65 33.25 -21.45 33.25 -18.45 31.8 -14.15 30.3 -9.75 28.4 -7.35 28.05 -7.7 27.9 -8.05 27.8 -8.3 27.9 -8.45 L27.85 -8.55 Q26.2 -6.05 25.05 -4.7 22.25 -1.35 20.55 -1.35 L19.95 -1.4 19.75 -1.45 19.7 -1.55 Q19.65 -1.6 19.65 -1.95 L20.05 -3.45 Q20.45 -4.9 20.45 -5.3 20.45 -5.65 20.35 -5.9 L20.15 -6.3 Q17.45 -3.7 15.15 -1.7 10.6 2.1 8.4 2.1 7.75 2.1 6.4 0.7 5.35 -0.4 5.05 -1.0 L4.9 -1.05 Q4.75 -1.0 4.6 -0.95 L3.85 -0.6 Q4.0 -0.35 4.25 0.4 4.5 1.2 4.5 1.5 4.5 2.05 3.95 2.45 3.5 2.85 3.0 2.85 1.25 2.85 -2.55 -0.95 -4.5 -2.95 -6.95 -5.75 -6.95 -4.65 -5.95 -1.65 -4.95 1.4 -4.95 1.6 -4.95 2.1 -5.1 2.3 -5.35 2.55 -6.15 2.55 -7.25 2.55 -8.35 2.35 L-9.0 2.8 Q-10.55 2.8 -12.75 1.25 L-14.2 0.2 Q-14.9 -0.25 -15.25 -0.25 -15.65 -0.25 -17.25 -2.4 -19.8 -3.95 -21.15 -6.6 -21.6 -7.5 -22.35 -9.45 L-22.5 -9.85 -23.35 -11.2 -23.3 -11.8 -23.5 -12.15 Q-23.65 -11.8 -23.75 -11.2 L-23.9 -10.1 Q-24.15 -8.75 -24.75 -8.15 L-24.95 -8.5 Q-26.45 -8.5 -27.45 -15.4 -27.65 -17.05 -27.8 -18.65 -28.25 -20.6 -28.25 -21.45 -28.25 -25.55 -27.9 -28.2 -27.35 -32.1 -26.0 -35.3 -24.95 -37.6 -23.4 -39.7 L-23.4 -39.75 Q-23.15 -40.1 -21.95 -41.8 -20.6 -43.6 -19.35 -44.95 -15.35 -49.1 -11.5 -49.1 -10.75 -49.1 -10.6 -48.8 -10.5 -48.7 -10.5 -48.25 -10.5 -47.8 -10.95 -46.85 L-11.45 -45.75 -11.45 -45.65 Q-10.25 -46.2 -8.6 -46.7 -5.25 -47.75 -1.4 -47.75 0.7 -47.75 1.75 -47.0 2.5 -46.45 2.5 -45.85 2.5 -45.7 -1.25 -43.55 -5.35 -41.2 -6.25 -40.45 -8.2 -38.8 -9.4 -37.05 -10.75 -35.0 -10.7 -33.35 -10.5 -33.45 -8.9 -34.8 -7.25 -36.1 -6.45 -36.1 -5.7 -36.1 -5.5 -35.7 -5.45 -35.6 -5.45 -35.25 -5.45 -35.0 -5.8 -33.85 L-6.55 -31.35 Q-7.65 -27.55 -7.65 -25.75 L-7.45 -22.6 -7.1 -17.95 Q-7.05 -18.0 -6.7 -18.5 -6.35 -19.0 -6.0 -19.0 -5.65 -19.0 -5.2 -17.95 -4.85 -17.25 -4.35 -15.6 L-3.45 -12.9 Q-2.95 -11.5 -2.5 -10.95 -1.85 -10.1 -1.05 -8.8 L0.3 -6.75 Q0.75 -6.05 1.25 -5.5 2.45 -4.85 4.05 -3.5 5.6 -2.25 6.8 -1.5 12.0 -3.2 15.2 -9.95 16.55 -12.8 17.35 -16.1 17.95 -18.9 17.95 -20.95 17.95 -23.2 17.4 -24.55 17.1 -25.3 17.0 -25.6 16.85 -26.3 16.85 -27.35 16.85 -27.9 16.9 -28.0 L17.1 -28.1 Q17.35 -28.2 17.65 -28.2 18.2 -28.2 18.75 -27.4 19.45 -26.45 19.6 -26.35 L19.6 -26.25 19.65 -26.55 Q19.65 -28.25 18.65 -30.95 17.75 -33.55 16.2 -36.35 14.6 -39.2 12.85 -41.4 11.6 -42.95 10.5 -43.9 L10.3 -43.85 Q10.15 -44.0 9.95 -44.3 L9.35 -44.75 Q9.35 -44.8 9.4 -44.85 L9.45 -44.9 9.7 -44.8 Q9.65 -44.9 9.65 -44.95 9.65 -45.3 10.0 -45.55 L10.6 -45.9 Q8.7 -46.7 7.1 -47.4 3.95 -48.85 3.95 -49.65 3.95 -50.25 5.0 -50.7 5.95 -51.15 6.9 -51.15 13.1 -51.15 19.8 -44.85 22.05 -42.75 24.1 -40.15 25.55 -38.35 26.2 -37.25 L26.25 -37.2 26.3 -37.35 Q26.15 -37.9 25.9 -39.25 25.65 -40.4 25.25 -41.0 M13.3 -44.4 L13.5 -44.45 13.2 -44.75 Q13.0 -44.95 12.65 -45.05 L13.3 -44.4 M0.1 -53.0 Q1.1 -52.85 1.35 -52.4 1.45 -52.25 1.45 -51.75 1.45 -50.55 -0.1 -49.65 -2.15 -48.5 -6.0 -48.5 -7.65 -48.5 -8.1 -49.15 -8.35 -49.45 -8.25 -49.8 -8.25 -51.4 -6.35 -52.35 -3.95 -53.5 0.75 -53.1 L0.1 -53.0 M8.75 -38.5 L8.8 -38.9 Q11.5 -38.95 13.5 -35.3 14.25 -33.9 14.75 -32.25 15.15 -30.8 15.15 -29.8 15.15 -29.0 14.9 -28.25 14.45 -27.0 13.35 -27.0 11.05 -27.0 9.65 -32.35 9.0 -35.05 8.75 -38.0 L8.75 -38.5 M2.7 -30.4 Q2.35 -29.5 1.75 -28.7 0.2 -26.45 -1.7 -26.45 -2.95 -26.45 -3.15 -27.55 -3.3 -28.05 -3.15 -28.65 -3.15 -30.7 -2.2 -32.25 -1.3 -33.6 -0.05 -34.1 1.2 -34.6 2.1 -34.0 3.05 -33.35 3.05 -31.6 3.05 -31.2 2.7 -30.4 M13.55 -25.4 Q13.55 -25.8 13.75 -26.05 14.0 -26.25 14.3 -26.2 15.05 -26.15 15.3 -25.2 L15.2 -24.65 15.0 -24.55 Q14.85 -24.5 14.5 -24.5 L14.45 -24.5 Q15.1 -24.05 15.1 -22.85 15.1 -22.7 14.9 -22.1 14.65 -21.3 14.3 -20.6 13.25 -18.5 11.85 -18.5 10.75 -18.5 10.4 -19.55 10.3 -19.95 10.3 -20.8 10.3 -22.1 11.05 -23.15 11.7 -24.1 12.7 -24.5 13.35 -24.8 13.85 -24.7 L13.7 -24.9 Q13.55 -25.15 13.55 -25.4 M-1.8 -53.05 Q-1.95 -53.05 -2.15 -52.95 -1.25 -53.0 -0.85 -53.1 L-1.8 -53.05" fill="#bffff9" fill-opacity="0.7529412" fill-rule="evenodd" stroke="none"/>
  </g>
</svg>
