<?xml version="1.0" encoding="UTF-8" standalone="no"?>
<svg xmlns:ffdec="https://www.free-decompiler.com/flash" xmlns:xlink="http://www.w3.org/1999/xlink" ffdec:objectType="shape" height="50.95px" width="68.25px" xmlns="http://www.w3.org/2000/svg">
  <g transform="matrix(1.0, 0.0, 0.0, 1.0, 30.4, 56.4)">
    <path d="M30.8 -43.75 Q31.7 -44.65 34.25 -42.85 35.15 -42.15 35.75 -41.35 36.25 -40.65 36.55 -39.7 37.2 -37.75 37.5 -36.3 37.85 -34.5 37.85 -32.95 37.85 -31.25 37.65 -30.2 37.2 -27.75 35.85 -27.75 35.4 -27.75 35.05 -29.05 34.85 -29.85 34.35 -32.25 32.95 -37.8 29.55 -41.45 29.75 -41.75 30.05 -41.75 L30.55 -41.75 Q30.4 -42.25 30.4 -42.8 30.45 -43.45 30.8 -43.75 M25.65 -39.0 Q25.65 -38.4 25.3 -37.55 25.35 -37.3 25.35 -37.1 25.35 -36.5 24.85 -35.65 24.2 -34.55 23.15 -34.55 19.85 -34.55 16.95 -39.35 16.0 -40.9 15.25 -42.7 14.7 -44.1 14.7 -44.35 L14.7 -44.85 14.75 -45.1 Q15.7 -45.25 16.8 -44.95 17.45 -45.3 18.1 -45.3 20.55 -45.3 23.3 -42.45 24.3 -41.45 25.0 -40.35 25.65 -39.35 25.65 -39.0 M35.1 -32.05 L35.05 -31.75 35.2 -31.4 Q35.3 -31.15 35.3 -31.0 L35.2 -31.6 35.1 -32.15 35.1 -32.05 M16.0 -44.4 L15.45 -44.35 15.6 -43.9 Q15.75 -44.15 16.0 -44.4 M22.75 -46.9 Q22.75 -46.35 22.7 -46.2 22.6 -45.75 22.2 -45.75 20.75 -45.75 18.55 -46.25 16.3 -46.75 14.05 -47.55 8.7 -49.5 7.0 -51.7 7.05 -51.75 7.4 -51.65 7.75 -51.55 7.95 -51.4 7.85 -52.15 8.65 -52.65 9.8 -53.4 12.7 -53.4 16.45 -53.4 19.9 -50.5 21.15 -49.45 22.0 -48.3 22.75 -47.3 22.75 -46.9 M11.2 -38.05 Q13.5 -39.2 14.8 -36.15 15.25 -35.1 15.5 -33.7 15.7 -32.65 15.7 -32.0 L15.7 -30.6 Q15.55 -29.55 14.85 -29.55 13.3 -29.55 12.05 -33.55 11.45 -35.55 11.15 -37.55 11.15 -38.1 11.2 -38.05 M1.1 -32.25 Q0.7 -31.2 0.1 -30.25 -1.45 -27.6 -3.0 -27.6 -3.75 -27.6 -3.95 -28.4 -4.05 -28.8 -4.0 -29.25 -4.0 -30.35 -3.15 -31.85 -2.35 -33.2 -1.3 -34.2 -0.15 -35.2 0.6 -35.15 1.45 -35.05 1.45 -33.55 1.45 -33.2 1.1 -32.25 M20.55 -36.4 L20.9 -36.1 21.35 -36.05 21.05 -36.35 20.75 -36.35 20.55 -36.4 M21.3 -42.6 L21.9 -42.1 Q22.6 -41.45 23.2 -40.8 22.7 -41.6 21.95 -42.15 L21.3 -42.6 M15.65 -22.45 Q15.4 -21.5 15.05 -20.65 13.95 -18.15 12.5 -18.15 11.65 -18.15 11.35 -18.7 11.2 -19.0 11.25 -19.35 11.25 -19.95 11.95 -21.2 12.7 -22.45 13.55 -23.4 14.55 -24.55 15.15 -24.65 15.9 -24.75 15.9 -23.4 15.9 -23.2 15.65 -22.45 M37.0 -22.3 Q37.1 -21.85 37.05 -21.25 L37.0 -20.7 Q37.0 -20.35 36.65 -18.8 36.15 -16.85 35.45 -15.15 33.4 -10.0 30.75 -10.0 30.1 -10.0 29.8 -10.6 29.65 -10.9 29.65 -11.25 29.65 -11.55 30.2 -13.45 30.85 -15.7 31.65 -17.7 33.95 -23.7 35.75 -23.7 36.8 -23.7 37.0 -22.3 M31.0 -22.0 Q30.85 -20.9 30.55 -19.95 29.75 -17.05 28.4 -17.05 26.1 -17.05 25.45 -19.8 25.1 -21.2 25.25 -22.85 25.25 -25.2 26.15 -26.45 27.0 -27.55 28.2 -27.5 29.4 -27.45 30.2 -26.3 31.15 -25.0 31.15 -23.05 31.15 -22.85 31.0 -22.0 M-4.5 -52.75 Q-6.2 -52.75 -7.05 -53.25 -7.65 -53.6 -7.65 -53.95 -7.65 -54.9 -6.35 -55.55 -5.15 -56.2 -3.45 -56.35 -1.75 -56.5 -0.6 -56.1 0.7 -55.6 0.7 -54.55 0.7 -53.95 -1.2 -53.3 -2.95 -52.75 -4.5 -52.75 M-0.8 -46.2 Q-1.35 -45.55 -2.6 -45.0 -3.15 -44.75 -5.25 -43.95 -7.2 -43.25 -8.45 -42.65 -9.0 -42.4 -10.2 -41.5 L-12.5 -39.85 Q-15.6 -37.65 -17.1 -37.65 L-17.5 -37.65 -17.85 -37.75 -17.85 -40.2 Q-17.85 -42.8 -15.1 -45.2 -12.7 -47.2 -9.0 -48.5 -5.5 -49.75 -2.9 -49.65 -0.1 -49.55 -0.1 -48.0 -0.1 -46.9 -0.8 -46.2 M-11.7 -50.6 Q-12.6 -48.55 -15.45 -46.3 L-17.85 -44.5 Q-19.25 -43.4 -20.1 -42.55 L-24.0 -38.05 Q-27.05 -34.45 -27.65 -34.45 -28.15 -34.45 -28.45 -35.1 -28.65 -35.55 -28.65 -35.85 -28.65 -37.75 -27.9 -39.75 -27.1 -42.05 -25.4 -44.05 -21.25 -49.0 -12.7 -50.9 -11.9 -50.75 -11.7 -50.6 M-26.05 -31.35 Q-24.25 -31.7 -23.05 -30.35 -21.65 -28.8 -21.65 -25.7 -21.65 -24.2 -22.2 -22.65 L-23.4 -19.85 Q-24.2 -17.95 -24.6 -16.15 -25.1 -13.65 -25.1 -10.45 -25.1 -10.0 -25.25 -9.75 -25.4 -9.45 -25.8 -9.45 -26.95 -9.45 -27.9 -11.7 -28.4 -12.85 -28.65 -14.05 -28.65 -14.5 -28.95 -15.7 L-29.55 -18.15 Q-30.4 -21.9 -30.4 -24.4 -30.4 -27.25 -29.05 -29.2 -27.8 -31.0 -26.05 -31.35 M-18.15 -21.75 Q-16.8 -22.7 -15.9 -21.55 -14.85 -20.3 -14.85 -16.6 -14.85 -14.4 -15.1 -10.7 -15.5 -5.45 -16.1 -5.45 -18.2 -5.45 -20.05 -9.6 -21.0 -11.7 -21.5 -13.9 -21.5 -16.35 -20.45 -18.65 -19.5 -20.85 -18.15 -21.75" fill="#bffff9" fill-opacity="0.7529412" fill-rule="evenodd" stroke="none"/>
  </g>
</svg>
