<?xml version="1.0" encoding="UTF-8" standalone="no"?>
<svg xmlns:ffdec="https://www.free-decompiler.com/flash" xmlns:xlink="http://www.w3.org/1999/xlink" ffdec:objectType="shape" height="22.75px" width="70.85px" xmlns="http://www.w3.org/2000/svg">
  <g transform="matrix(1.0, 0.0, 0.0, 1.0, 31.85, 15.15)">
    <path d="M18.85 -8.95 Q18.6 -8.95 18.55 -9.15 18.5 -9.3 18.5 -9.4 18.5 -9.8 18.95 -9.75 19.35 -9.75 19.35 -9.4 19.35 -9.2 19.1 -9.05 18.9 -8.95 18.85 -8.95 M20.4 -5.4 Q20.4 -5.35 20.2 -5.35 19.95 -5.35 19.85 -5.55 L19.8 -5.75 Q19.8 -6.05 20.1 -6.1 20.4 -6.15 20.5 -5.7 L20.45 -5.45 20.4 -5.4 M18.75 -0.1 L18.9 0.0 Q18.55 0.05 18.45 0.1 18.4 0.15 18.4 0.35 18.4 0.5 18.35 0.55 L18.05 0.55 17.85 0.5 17.75 0.45 17.75 0.25 Q17.75 0.0 18.05 -0.05 18.35 -0.15 18.75 -0.1 M19.85 -1.05 Q20.1 -0.95 20.35 -0.6 20.6 -0.3 20.6 -0.05 20.6 0.2 20.55 0.15 L20.1 0.25 19.65 0.3 Q19.15 0.3 19.05 0.0 L19.05 -0.25 Q19.05 -1.4 19.85 -1.05 M37.45 -14.2 Q37.45 -13.95 37.2 -13.45 36.85 -12.8 36.35 -12.6 36.1 -12.9 36.1 -12.95 36.1 -13.5 36.75 -14.2 37.45 -14.9 37.45 -14.2 M28.15 -1.35 L28.05 -1.35 Q28.3 -1.55 28.9 -2.35 29.55 -3.05 30.55 -3.1 L30.6 -2.95 Q30.6 -2.6 30.4 -2.3 30.1 -1.85 29.5 -1.85 29.3 -1.85 29.2 -1.9 29.05 -2.0 29.05 -2.05 L28.85 -1.6 Q28.7 -1.35 28.5 -1.35 L28.15 -1.35 M26.25 -0.2 L26.5 -0.2 26.55 0.1 Q26.5 0.35 26.05 0.8 25.55 1.25 25.45 1.6 25.35 2.1 25.2 2.35 L25.15 2.45 Q25.05 2.65 25.05 2.8 L25.1 2.95 Q24.25 3.3 23.55 3.5 24.05 3.05 24.25 2.7 L24.25 2.65 Q24.25 2.05 24.7 1.15 25.3 0.1 26.05 0.25 26.05 0.0 26.1 -0.2 L26.25 -0.2 M31.05 -5.4 L30.8 -5.45 30.75 -5.45 30.7 -5.5 Q30.7 -5.55 30.7 -5.7 30.7 -6.15 31.25 -6.45 31.85 -6.8 31.85 -6.15 31.85 -5.95 31.65 -5.7 31.4 -5.4 31.05 -5.4 M32.95 -1.85 Q33.35 -1.75 33.35 -1.1 33.35 -0.95 33.25 -0.85 33.05 -0.7 32.75 -0.7 32.55 -1.1 32.55 -1.45 32.55 -1.7 32.65 -1.8 32.8 -1.9 32.95 -1.85 M37.85 -6.55 Q37.85 -6.75 38.05 -6.95 38.2 -7.15 38.45 -7.2 39.0 -7.4 39.0 -6.65 39.0 -6.35 38.75 -6.05 38.55 -5.8 38.35 -5.8 38.1 -5.8 37.95 -6.15 37.9 -6.35 37.85 -6.55 M37.95 -3.95 L37.4 -3.55 37.1 -3.15 Q36.7 -2.75 36.65 -2.75 36.5 -2.75 36.4 -2.85 L36.1 -2.65 36.1 -2.75 Q36.1 -3.15 35.85 -3.3 L35.85 -3.35 35.8 -3.4 36.05 -3.55 Q35.95 -3.95 35.95 -4.3 35.95 -4.5 36.0 -4.7 36.1 -5.0 36.25 -5.15 36.85 -4.8 37.1 -4.55 L37.3 -4.35 37.6 -4.35 37.65 -4.2 37.45 -4.05 37.5 -3.95 37.65 -4.05 Q37.9 -4.05 37.95 -3.95 M16.9 2.75 L17.1 2.95 Q17.15 3.05 17.15 3.2 17.15 3.5 17.05 3.7 16.9 4.0 16.55 4.0 L16.2 3.95 15.75 3.95 Q15.7 3.9 15.7 3.75 15.7 3.2 15.95 3.05 16.15 2.95 16.9 2.75 M13.0 3.05 Q13.0 3.35 12.75 3.7 12.55 4.05 12.2 4.05 11.8 4.05 11.65 3.85 11.5 3.65 11.4 3.65 L11.2 3.65 11.2 3.45 Q11.2 3.05 11.35 2.7 11.6 2.2 12.0 2.2 12.5 2.2 12.8 2.65 13.0 2.9 13.0 3.05 M13.85 4.2 Q14.1 4.4 14.1 4.95 14.1 5.3 14.0 5.55 L14.35 5.45 Q14.05 6.0 14.05 6.2 L14.05 6.25 13.95 6.25 11.85 6.65 12.25 5.95 12.5 5.9 12.5 5.75 Q12.5 5.25 12.75 4.85 13.0 4.45 13.3 4.25 13.65 4.05 13.85 4.2 M6.45 3.25 Q6.45 3.4 6.15 3.85 5.9 4.25 5.7 4.25 5.4 4.25 5.25 4.0 5.2 3.85 5.2 3.75 5.2 3.5 5.55 3.1 6.0 2.65 6.35 2.85 L6.4 3.0 6.45 3.25 M9.6 3.85 Q9.5 4.05 9.35 4.05 9.15 4.05 9.05 3.85 8.95 3.75 8.95 3.65 8.95 3.25 9.35 3.2 9.7 3.15 9.7 3.55 9.7 3.7 9.6 3.85 M2.8 5.0 Q2.45 6.35 2.1 6.35 1.8 6.35 1.65 5.9 L1.55 5.45 Q1.55 5.15 1.75 4.85 1.95 4.5 2.3 4.5 2.7 4.5 2.8 4.7 L2.8 5.0 M1.3 6.85 Q1.3 7.05 1.25 7.2 L1.4 7.2 1.7 7.15 1.7 7.4 0.55 7.4 Q0.45 7.45 0.4 7.5 L-1.75 7.6 -1.85 7.4 Q-2.1 7.2 -2.2 6.9 -2.3 6.7 -2.3 6.3 -2.3 5.85 -2.0 5.4 -1.65 4.85 -1.1 5.0 -1.6 4.3 -2.2 4.15 -2.4 4.05 -2.5 4.0 -2.55 3.9 -2.55 3.7 L-2.7 4.0 Q-2.9 4.45 -3.15 4.45 -3.75 4.45 -4.0 3.8 L-4.15 3.2 Q-4.15 2.1 -3.3 2.55 -3.05 2.75 -2.75 3.0 L-2.55 3.25 Q-2.5 3.05 -2.3 3.0 -2.05 3.0 -1.75 3.4 -0.9 4.4 -0.8 6.35 -0.65 6.35 0.5 6.0 0.75 6.0 1.3 6.85 M-26.45 -14.55 Q-26.45 -15.0 -25.9 -15.1 -25.35 -15.2 -25.35 -14.65 -25.35 -14.5 -25.55 -14.2 -25.8 -13.9 -25.95 -13.9 -26.25 -13.9 -26.35 -14.2 -26.45 -14.35 -26.45 -14.55 M-26.35 -12.35 L-26.35 -12.4 Q-26.4 -12.5 -26.4 -12.6 L-26.25 -12.6 Q-26.15 -12.55 -26.1 -12.45 L-26.15 -12.4 Q-26.2 -12.35 -26.35 -12.35 M-30.6 -11.45 Q-30.6 -11.55 -30.5 -11.65 -30.35 -11.8 -30.15 -11.8 L-29.95 -11.8 -29.8 -11.75 -29.75 -11.7 -29.75 -11.5 Q-29.75 -11.3 -30.0 -11.2 -30.15 -11.15 -30.3 -11.15 -30.55 -11.15 -30.5 -11.2 L-30.6 -11.25 -30.6 -11.45 M-30.9 -8.4 L-30.95 -8.45 -31.1 -8.55 Q-31.1 -8.8 -30.95 -8.95 -30.85 -8.85 -30.7 -8.7 L-30.6 -8.55 -30.65 -8.5 Q-30.75 -8.4 -30.9 -8.4 M-31.5 -4.35 Q-31.8 -4.45 -31.85 -4.7 L-31.85 -5.2 Q-31.85 -5.85 -31.5 -5.8 -31.15 -5.75 -31.15 -5.2 -31.15 -4.9 -31.15 -4.8 -31.25 -4.5 -31.5 -4.35 M-24.05 -3.6 Q-23.75 -3.3 -23.5 -2.8 -23.3 -2.25 -23.25 -1.65 -23.3 -1.95 -23.1 -2.1 -22.95 -2.25 -22.75 -2.25 -22.45 -2.25 -22.25 -2.05 -22.1 -1.9 -22.1 -1.8 -22.1 -1.75 -22.65 -1.3 -23.2 -0.9 -23.25 -0.9 -24.15 -0.9 -24.55 -1.75 -24.85 -2.3 -24.85 -2.75 -24.85 -3.5 -24.6 -3.7 -24.35 -3.85 -24.05 -3.6 M-27.75 -1.9 Q-27.2 -1.9 -27.15 -1.2 -27.15 -0.85 -26.85 -0.45 -26.45 0.05 -26.4 0.15 -26.35 0.05 -26.3 -0.15 L-26.25 -0.45 Q-26.05 -0.9 -25.35 -0.9 -24.85 -0.9 -24.8 -0.5 L-24.85 0.05 Q-23.85 0.85 -23.6 1.15 -23.2 1.5 -23.2 2.05 -23.2 2.2 -23.35 2.3 -23.45 2.45 -23.45 2.55 -23.45 2.75 -23.4 2.9 L-23.25 3.1 -23.25 3.15 -22.8 3.35 -22.9 3.8 -23.6 3.45 -23.7 3.45 Q-23.9 3.45 -24.05 3.25 L-24.2 3.2 Q-24.0 3.0 -24.0 2.85 -23.95 2.75 -23.95 2.3 -23.8 2.1 -23.8 2.0 -23.8 1.75 -24.0 1.6 -24.15 0.45 -25.2 0.95 -25.35 1.0 -25.5 1.15 L-25.8 1.05 -25.8 1.35 -26.05 1.6 Q-26.3 1.85 -26.35 2.0 L-26.75 1.8 -27.2 1.5 -27.7 1.15 -27.65 1.0 -27.55 0.95 -27.4 1.0 -27.45 0.6 Q-27.45 0.45 -27.4 0.35 L-27.25 0.25 Q-27.3 0.15 -27.8 -0.55 -28.3 -1.2 -28.3 -1.4 -28.3 -1.65 -28.1 -1.8 -27.95 -1.9 -27.75 -1.9 M-16.95 -9.15 Q-16.95 -9.1 -17.1 -9.1 L-17.25 -9.1 Q-17.25 -8.65 -17.6 -7.75 -18.0 -6.75 -18.35 -6.75 -18.6 -6.75 -18.7 -7.15 -18.8 -7.35 -18.8 -7.5 -18.8 -7.95 -18.15 -8.75 -17.45 -9.65 -17.05 -9.45 -17.05 -9.35 -16.95 -9.15 M-21.3 -0.85 Q-21.3 -1.65 -20.6 -1.45 -20.35 -1.35 -20.1 -1.15 -19.9 -0.95 -19.9 -0.8 -19.9 -0.55 -20.05 -0.25 -20.25 0.1 -20.55 0.1 -21.0 0.1 -21.2 -0.3 -21.3 -0.55 -21.3 -0.85 M-18.1 -1.1 Q-17.8 -1.55 -17.25 -1.55 -16.4 -1.55 -15.7 -0.3 -15.1 0.7 -15.1 1.05 -15.1 1.5 -15.3 1.95 -15.6 2.6 -16.15 2.6 -17.25 2.6 -17.9 1.2 -18.25 0.45 -18.35 -0.3 -18.35 -0.75 -18.1 -1.1 M-8.9 -8.55 Q-8.9 -9.45 -8.35 -9.7 L-7.95 -9.7 Q-7.75 -9.6 -7.75 -9.2 -7.75 -8.95 -8.0 -8.5 -8.3 -8.0 -8.6 -8.0 -8.85 -8.0 -8.9 -8.25 L-8.9 -8.55 M-9.75 -5.9 L-9.9 -5.7 Q-10.05 -5.5 -10.2 -5.4 -10.5 -5.65 -10.5 -5.75 -10.5 -6.0 -10.35 -6.1 -10.2 -6.2 -9.85 -6.3 L-9.8 -6.15 Q-9.75 -6.05 -9.75 -5.9 M-2.55 -0.85 Q-2.65 -0.65 -2.85 -0.65 -3.15 -0.65 -3.3 -1.3 -3.3 -1.75 -2.9 -1.7 -2.5 -1.7 -2.5 -1.15 -2.5 -0.95 -2.55 -0.85 M-6.95 3.4 Q-6.1 3.7 -5.85 3.9 -5.9 3.95 -6.3 4.2 -6.7 4.45 -7.05 4.45 -7.8 4.45 -8.35 3.2 L-8.75 2.35 Q-8.95 1.95 -9.2 1.95 -9.65 1.95 -9.95 2.35 -10.2 2.8 -10.5 2.8 -10.95 2.8 -11.05 2.45 L-11.05 2.1 Q-11.05 1.3 -10.6 1.3 L-9.4 1.45 Q-9.15 1.45 -8.55 2.1 L-7.95 2.85 Q-7.7 3.1 -6.95 3.4 M-14.7 3.1 Q-14.7 3.25 -14.75 3.35 -14.85 3.55 -15.05 3.55 -15.35 3.55 -15.4 3.35 L-15.4 3.1 -15.35 2.75 Q-15.05 2.6 -14.85 2.8 -14.7 2.95 -14.7 3.1 M-14.95 4.7 Q-14.8 4.95 -14.4 5.3 -14.15 5.55 -14.15 5.8 L-14.15 6.2 -14.3 6.15 Q-14.4 6.25 -14.55 6.25 -15.0 6.25 -15.15 5.8 L-15.2 5.35 Q-15.2 5.2 -15.1 5.0 L-15.0 4.7 -14.95 4.7 M-22.5 1.85 Q-22.8 1.85 -22.85 1.55 L-22.85 1.25 Q-22.85 0.4 -22.35 0.45 -22.15 0.45 -22.0 0.65 -21.85 0.85 -21.85 1.1 -21.85 1.3 -22.15 1.6 -22.4 1.85 -22.5 1.85" fill="#ffffff" fill-opacity="0.5019608" fill-rule="evenodd" stroke="none"/>
  </g>
</svg>
