<?xml version="1.0" encoding="UTF-8" standalone="no"?>
<svg xmlns:ffdec="https://www.free-decompiler.com/flash" xmlns:xlink="http://www.w3.org/1999/xlink" ffdec:objectType="shape" height="1.9px" width="2.75px" xmlns="http://www.w3.org/2000/svg">
  <g transform="matrix(1.0, 0.0, 0.0, 1.0, 0.9, 1.75)">
    <path d="M0.4 -0.25 L0.35 -0.2 Q0.3 -0.2 0.3 -0.25 L0.15 -0.3 0.15 -0.2 Q0.1 -0.25 0.0 -0.35 L-0.05 -0.3 -0.1 -0.3 -0.4 -0.25 -0.55 -0.3 -0.6 -0.25 -0.75 -0.25 -0.75 -0.15 -0.8 0.15 -0.8 -0.2 -0.85 -0.2 -0.9 -0.25 -0.75 -0.35 -0.7 -0.5 Q-0.6 -0.7 -0.55 -0.8 -0.5 -0.9 -0.35 -0.9 L-0.2 -1.0 Q-0.15 -1.0 -0.1 -1.1 L-0.05 -1.3 0.15 -1.55 Q0.4 -1.85 0.8 -1.7 L1.0 -1.5 1.15 -1.3 1.25 -1.1 1.5 -0.65 Q1.7 -0.35 1.85 -0.25 L1.75 -0.2 1.45 -0.3 1.4 -0.2 1.3 -0.25 1.25 -0.25 0.9 -0.2 0.45 -0.3 0.4 -0.25" fill="#ffffff" fill-opacity="0.5019608" fill-rule="evenodd" stroke="none"/>
  </g>
</svg>
