<?xml version="1.0" encoding="UTF-8" standalone="no"?>
<svg xmlns:ffdec="https://www.free-decompiler.com/flash" xmlns:xlink="http://www.w3.org/1999/xlink" ffdec:objectType="shape" height="1.5px" width="6.1px" xmlns="http://www.w3.org/2000/svg">
  <g transform="matrix(1.0, 0.0, 0.0, 1.0, 2.85, 0.45)">
    <path d="M2.55 -0.1 Q2.55 0.2 2.25 0.45 2.1 0.6 1.85 0.7 1.15 1.05 0.2 1.05 -0.8 1.05 -1.45 0.7 L-1.9 0.45 Q-2.15 0.2 -2.15 -0.1 L-2.15 -0.15 -1.45 -0.35 0.2 -0.45 1.85 -0.35 2.55 -0.15 2.55 -0.1" fill="#ffffff" fill-opacity="0.5019608" fill-rule="evenodd" stroke="none"/>
    <path d="M3.25 -0.1 Q3.25 0.2 2.9 0.45 L2.65 0.6 2.35 0.7 0.2 1.05 -1.95 0.7 -2.5 0.45 Q-2.85 0.2 -2.85 -0.1 L-2.85 -0.15 -1.95 -0.35 0.2 -0.45 2.35 -0.35 2.65 -0.3 3.25 -0.15 3.25 -0.1" fill="#ffffff" fill-opacity="0.5019608" fill-rule="evenodd" stroke="none"/>
  </g>
</svg>
