<?xml version="1.0" encoding="UTF-8" standalone="no"?>
<svg xmlns:ffdec="https://www.free-decompiler.com/flash" xmlns:xlink="http://www.w3.org/1999/xlink" ffdec:objectType="shape" height="2.6px" width="3.25px" xmlns="http://www.w3.org/2000/svg">
  <g transform="matrix(1.0, 0.0, 0.0, 1.0, 1.15, 2.55)">
    <path d="M0.6 -2.55 Q0.85 -2.6 1.05 -2.2 L1.3 -1.65 1.45 -1.35 1.45 -1.3 1.65 -0.9 Q1.7 -0.75 1.9 -0.6 L2.1 -0.25 1.9 -0.2 Q1.8 -0.2 1.7 -0.35 L1.65 -0.3 1.55 -0.35 1.55 -0.3 1.45 -0.3 1.4 -0.25 Q1.4 -0.2 1.35 -0.2 1.3 -0.2 1.3 -0.25 L1.3 -0.3 1.05 -0.3 0.85 -0.25 0.75 -0.25 Q0.7 -0.25 0.65 -0.3 L0.65 -0.4 0.1 -0.25 -0.05 -0.15 -0.2 0.05 Q-0.25 0.05 -0.25 -0.15 L-0.25 -0.2 -0.35 -0.25 -0.4 -0.3 -0.85 -0.15 -0.85 -0.1 -0.9 -0.15 Q-0.95 -0.2 -0.95 -0.3 L-0.95 -0.4 Q-1.0 -0.25 -1.05 -0.25 L-1.1 -0.25 -1.15 -0.3 -1.05 -0.45 -1.0 -0.45 -1.0 -0.5 -0.9 -0.8 -0.75 -1.15 -0.7 -1.3 -0.65 -1.35 -0.55 -1.4 -0.2 -1.45 -0.15 -1.5 -0.1 -1.6 Q0.0 -1.95 0.2 -2.25 0.4 -2.5 0.6 -2.55" fill="#ffffff" fill-opacity="0.5019608" fill-rule="evenodd" stroke="none"/>
  </g>
</svg>
