<?xml version="1.0" encoding="UTF-8" standalone="no"?>
<svg xmlns:ffdec="https://www.free-decompiler.com/flash" xmlns:xlink="http://www.w3.org/1999/xlink" ffdec:objectType="shape" height="1.5px" width="7.7px" xmlns="http://www.w3.org/2000/svg">
  <g transform="matrix(1.0, 0.0, 0.0, 1.0, 3.65, 0.45)">
    <path d="M3.25 -0.1 Q3.25 0.2 2.9 0.45 L2.65 0.6 2.35 0.7 0.2 1.05 -1.95 0.7 -2.5 0.45 Q-2.85 0.2 -2.85 -0.1 L-2.85 -0.15 -1.95 -0.35 0.2 -0.45 2.35 -0.35 2.65 -0.3 3.25 -0.15 3.25 -0.1" fill="#ffffff" fill-opacity="0.5019608" fill-rule="evenodd" stroke="none"/>
    <path d="M4.05 -0.1 Q4.05 0.2 3.6 0.45 L2.95 0.7 2.65 0.8 0.2 1.05 -2.55 0.7 -3.2 0.45 Q-3.65 0.2 -3.65 -0.1 L-3.65 -0.15 -2.55 -0.35 0.2 -0.45 2.75 -0.4 2.95 -0.35 4.05 -0.15 4.05 -0.1" fill="#ffffff" fill-opacity="0.5019608" fill-rule="evenodd" stroke="none"/>
  </g>
</svg>
