<?xml version="1.0" encoding="UTF-8" standalone="no"?>
<svg xmlns:ffdec="https://www.free-decompiler.com/flash" xmlns:xlink="http://www.w3.org/1999/xlink" ffdec:objectType="shape" height="4.0px" width="3.35px" xmlns="http://www.w3.org/2000/svg">
  <g transform="matrix(1.0, 0.0, 0.0, 1.0, 1.25, 3.45)">
    <path d="M0.35 -3.2 L0.6 -3.4 0.75 -3.45 0.95 -3.45 1.15 -3.35 Q1.4 -3.3 1.55 -2.85 1.6 -2.5 1.6 -2.2 L1.6 -1.65 Q1.65 -1.55 1.75 -1.5 L1.95 -1.3 2.0 -1.15 2.05 -0.7 2.05 -0.65 2.1 -0.15 2.1 0.45 2.05 -0.15 2.05 -0.3 2.0 -0.4 2.0 -0.3 1.85 -0.3 1.75 -0.35 1.45 -0.4 0.85 -0.3 0.35 -0.3 -0.3 -0.25 -0.45 -0.3 -0.5 -0.4 -0.95 -0.25 -1.0 -0.3 -1.05 -0.15 Q-1.1 0.1 -1.2 0.1 -1.25 0.1 -1.25 0.05 L-1.25 -0.15 -1.15 -0.3 -1.2 -0.3 -1.2 -0.35 -1.15 -0.35 -1.1 -0.4 Q-1.0 -0.6 -0.95 -0.9 L-0.9 -1.2 -0.9 -1.3 -0.8 -1.6 Q-0.75 -1.8 -0.55 -1.9 L-0.15 -2.0 0.0 -2.4 0.05 -2.6 0.35 -3.2" fill="#ffffff" fill-opacity="0.5019608" fill-rule="evenodd" stroke="none"/>
  </g>
</svg>
