<?xml version="1.0" encoding="UTF-8" standalone="no"?>
<svg xmlns:ffdec="https://www.free-decompiler.com/flash" xmlns:xlink="http://www.w3.org/1999/xlink" ffdec:objectType="shape" height="5.35px" width="3.6px" xmlns="http://www.w3.org/2000/svg">
  <g transform="matrix(1.0, 0.0, 0.0, 1.0, 1.15, 5.45)">
    <path d="M1.95 -4.05 L2.0 -3.55 2.1 -3.4 2.05 -3.45 2.0 -3.45 Q2.05 -3.4 2.1 -3.4 L2.15 -3.45 2.35 -3.45 2.35 -3.4 Q2.4 -3.3 2.45 -3.1 L2.45 -3.05 2.3 -2.3 2.2 -1.85 2.25 -1.7 2.3 -1.5 2.3 -1.3 2.25 -1.0 2.2 -0.75 2.15 -0.4 Q2.1 -0.4 2.1 -0.45 L2.1 -0.35 2.05 -0.45 2.1 -0.65 2.15 -1.1 2.15 -1.3 Q2.1 -1.6 2.0 -1.6 L1.9 -1.6 Q1.75 -1.5 1.65 -1.3 1.6 -1.1 1.6 -0.75 L1.6 -0.5 1.65 -0.45 1.6 -0.3 1.6 -0.45 Q1.5 -0.2 1.05 -0.2 L0.6 -0.25 0.25 -0.15 0.1 -0.1 0.05 -0.15 0.05 -0.2 -0.3 -0.2 -0.25 -0.4 Q-0.15 -0.7 -0.15 -0.85 -0.15 -1.15 -0.2 -1.3 L-0.4 -1.4 -0.55 -1.3 Q-0.65 -1.1 -0.65 -0.5 L-0.65 -0.25 -0.6 -0.2 -0.85 -0.2 -1.0 -0.3 -1.0 -0.25 -1.05 -0.2 -1.1 -0.35 -1.15 -0.4 Q-1.15 -0.5 -1.1 -0.55 L-1.0 -1.0 -0.95 -1.3 -0.9 -1.45 Q-0.9 -1.65 -0.95 -1.85 L-1.0 -2.1 Q-1.0 -2.85 -0.8 -3.05 L-0.7 -3.15 Q-0.3 -3.45 -0.1 -3.8 L0.15 -4.45 0.5 -5.15 Q0.85 -5.65 1.5 -5.35 1.7 -5.25 1.75 -5.1 L1.85 -4.75 1.95 -4.05 M2.15 -2.95 Q2.05 -2.95 2.05 -2.75 L2.05 -2.65 Q2.05 -2.55 2.15 -2.55 2.25 -2.55 2.25 -2.8 2.25 -2.95 2.15 -2.95 M0.0 -3.1 Q0.15 -3.1 0.15 -3.45 0.15 -3.75 0.0 -3.65 -0.15 -3.6 -0.15 -3.35 -0.1 -3.1 0.0 -3.1" fill="#ffffff" fill-opacity="0.5019608" fill-rule="evenodd" stroke="none"/>
  </g>
</svg>
