<?xml version="1.0" encoding="UTF-8" standalone="no"?>
<svg xmlns:ffdec="https://www.free-decompiler.com/flash" xmlns:xlink="http://www.w3.org/1999/xlink" ffdec:objectType="shape" height="8.9px" width="4.2px" xmlns="http://www.w3.org/2000/svg">
  <g transform="matrix(1.0, 0.0, 0.0, 1.0, 1.2, 8.3)">
    <path d="M0.65 -7.7 L0.75 -7.95 Q0.85 -8.1 1.0 -8.2 L1.2 -8.25 1.45 -8.25 Q1.9 -7.95 2.0 -7.3 2.1 -6.65 2.3 -6.4 L2.7 -6.35 2.8 -6.25 Q2.9 -6.1 2.95 -5.9 L2.95 -5.0 2.85 -4.55 2.8 -4.5 2.75 -4.4 2.7 -4.4 2.7 -4.6 2.75 -4.85 2.65 -5.15 2.55 -5.2 2.25 -5.0 Q2.1 -4.7 2.05 -4.3 1.9 -3.45 1.65 -3.45 1.5 -2.8 1.5 -2.1 1.5 -1.85 1.55 -1.4 L1.6 -1.3 Q1.65 -0.65 1.75 -0.6 1.85 -0.7 1.95 -0.85 L2.0 -1.05 2.05 -1.3 2.1 -1.45 Q2.15 -1.85 2.15 -2.15 L2.2 -2.2 2.2 -2.4 2.25 -2.4 2.25 -1.75 2.3 -1.45 2.4 -1.15 Q2.45 -0.9 2.6 -0.75 2.75 -0.5 3.0 -0.4 L3.0 -0.25 2.95 -0.25 2.7 -0.4 2.7 -0.3 2.5 -0.3 2.3 -0.35 1.9 -0.2 1.9 -0.15 1.7 0.3 Q1.65 0.3 1.65 0.05 L1.65 -0.15 1.6 -0.25 1.55 -0.25 1.1 -0.3 0.85 -0.45 0.25 -0.3 Q0.15 -0.3 0.15 -0.45 0.1 -0.35 0.05 -0.35 L-0.1 -0.25 -0.2 -0.15 Q-0.25 0.3 -0.35 0.3 -0.4 0.3 -0.45 -0.15 L-0.5 -0.3 -0.55 -0.3 -0.65 -0.25 -0.7 -0.25 Q-0.8 -0.3 -0.85 -0.5 L-0.85 -0.15 -0.9 0.45 Q-0.9 0.75 -0.9 0.45 L-0.9 -0.25 -0.95 -0.25 -1.05 -0.35 -1.15 -0.2 -1.2 -0.25 -1.05 -0.75 -0.95 -1.3 -0.9 -1.5 -0.9 -1.6 -0.85 -1.6 -0.85 -2.05 -0.8 -2.05 -0.85 -1.95 -0.85 -1.75 -0.8 -1.5 -0.8 -1.6 -0.75 -1.55 -0.8 -1.3 -0.8 -1.15 Q-0.7 -0.45 -0.55 -0.45 L-0.55 -0.5 Q-0.55 -1.1 -0.3 -1.2 -0.1 -1.25 -0.1 -0.75 L-0.1 -0.7 0.0 -0.55 Q0.15 -0.55 0.2 -1.3 L0.2 -1.4 0.25 -2.05 0.25 -2.25 Q0.2 -2.25 0.15 -2.3 L0.15 -2.35 0.0 -2.2 -0.05 -2.1 -0.2 -1.85 Q-0.4 -1.85 -0.45 -1.95 L-0.5 -2.2 -0.5 -2.8 -0.6 -3.05 -0.6 -3.1 Q-0.75 -2.7 -0.75 -2.3 L-0.75 -2.4 -0.8 -2.2 -0.85 -2.05 Q-0.9 -2.7 -0.95 -3.1 L-0.95 -3.05 -1.0 -3.2 -1.2 -4.1 Q-1.2 -4.6 -1.1 -4.75 L-0.75 -4.9 Q-0.15 -5.05 0.1 -6.15 L0.4 -7.2 Q0.5 -7.45 0.6 -7.65 L0.6 -7.7 0.65 -7.7 M0.95 -8.05 L0.95 -8.05 M1.65 -6.8 Q1.55 -6.8 1.55 -6.55 L1.55 -6.45 Q1.6 -6.4 1.65 -6.4 1.8 -6.4 1.85 -6.5 1.9 -6.75 1.9 -6.8 L1.65 -6.8 M2.85 -4.65 L2.85 -4.65 M0.5 -7.25 L0.5 -7.25 M0.35 -2.1 L0.35 -2.1 M0.05 -2.75 L0.05 -2.95 Q0.05 -3.25 -0.1 -3.2 -0.3 -3.2 -0.3 -3.0 L-0.25 -2.8 Q-0.2 -2.6 -0.05 -2.6 0.0 -2.6 0.05 -2.75 M2.25 -2.2 L2.25 -2.2 M1.65 -0.6 L1.65 -0.6 M2.25 -1.3 L2.25 -1.3 M2.2 -1.8 L2.15 -1.9 2.15 -1.8 2.2 -1.8 M-0.25 -3.4 Q-0.25 -3.55 -0.35 -3.55 -0.45 -3.55 -0.45 -3.4 L-0.45 -3.3 -0.35 -3.25 -0.25 -3.3 -0.25 -3.4 M-0.9 -0.95 L-0.9 -0.9 -0.85 -0.9 -0.85 -0.95 -0.9 -0.95" fill="#ffffff" fill-opacity="0.5019608" fill-rule="evenodd" stroke="none"/>
  </g>
</svg>
