<?xml version="1.0" encoding="UTF-8" standalone="no"?>
<svg xmlns:ffdec="https://www.free-decompiler.com/flash" xmlns:xlink="http://www.w3.org/1999/xlink" ffdec:objectType="shape" height="7.15px" width="4.2px" xmlns="http://www.w3.org/2000/svg">
  <g transform="matrix(1.0, 0.0, 0.0, 1.0, 1.1, 6.6)">
    <path d="M2.3 -6.05 L2.3 -6.3 Q2.35 -6.6 2.45 -6.6 L2.55 -6.55 2.55 -6.5 2.6 -6.25 2.85 -5.95 2.9 -5.95 Q3.1 -5.9 3.1 -5.7 L3.05 -5.5 2.9 -5.45 2.7 -5.45 Q2.6 -5.55 2.55 -5.7 L2.45 -5.9 Q2.3 -5.9 2.3 -6.0 L2.3 -6.05 M2.75 -5.75 L2.65 -5.8 2.75 -5.7 2.75 -5.75 M0.05 -5.8 Q-0.05 -5.7 -0.1 -5.7 L-0.35 -5.7 -0.65 -5.5 -0.7 -5.5 Q-0.75 -5.4 -0.8 -5.4 L-0.95 -5.4 -0.95 -5.65 Q-0.95 -5.8 -0.85 -5.85 L-0.75 -5.8 Q-0.6 -6.15 -0.45 -6.25 L-0.2 -6.4 Q0.15 -6.4 0.15 -6.05 0.15 -5.95 0.05 -5.8 M0.8 -0.15 L1.6 -0.15 0.95 -0.1 0.8 -0.15 M-0.95 -0.8 L-0.8 -1.3 -0.65 -0.35 -0.7 -0.15 -0.8 -0.25 -0.85 -0.45 -0.95 -0.2 -0.95 -0.15 -1.05 0.45 -1.05 0.55 -1.1 0.45 -1.1 0.25 -1.05 -0.15 -0.95 -0.8" fill="#ffffff" fill-opacity="0.5019608" fill-rule="evenodd" stroke="none"/>
  </g>
</svg>
