<?xml version="1.0" encoding="UTF-8" standalone="no"?>
<svg xmlns:ffdec="https://www.free-decompiler.com/flash" xmlns:xlink="http://www.w3.org/1999/xlink" ffdec:objectType="shape" height="11.4px" width="4.3px" xmlns="http://www.w3.org/2000/svg">
  <g transform="matrix(1.0, 0.0, 0.0, 1.0, 1.2, 11.25)">
    <path d="M2.95 -7.6 L2.95 -6.85 2.85 -6.25 2.8 -6.15 2.8 -6.2 2.75 -6.1 2.85 -5.95 2.9 -5.95 Q3.1 -5.9 3.1 -5.7 L3.05 -5.5 2.9 -5.45 2.7 -5.45 Q2.6 -5.55 2.55 -5.7 L2.45 -5.9 Q2.3 -5.9 2.3 -6.0 L2.3 -6.3 Q2.35 -6.6 2.45 -6.6 L2.55 -6.55 2.55 -6.5 2.6 -6.25 2.7 -6.1 2.7 -6.35 2.75 -6.65 2.65 -7.05 2.55 -7.15 Q2.4 -7.05 2.25 -6.85 2.1 -6.5 2.05 -5.9 1.9 -4.85 1.65 -4.85 1.5 -3.95 1.5 -2.95 1.5 -2.6 1.55 -2.1 L1.6 -1.95 1.65 -1.4 Q1.7 -0.85 1.75 -0.8 L1.95 -1.25 1.95 -1.4 2.0 -1.6 2.05 -1.95 2.1 -2.15 Q2.15 -2.7 2.15 -3.05 L2.2 -3.1 2.2 -3.4 2.25 -3.4 2.25 -2.55 2.3 -2.1 2.3 -2.15 2.35 -1.95 2.4 -1.7 2.45 -1.4 2.6 -1.0 Q2.75 -0.55 3.0 -0.25 L3.0 -0.05 Q3.0 0.05 2.95 0.05 2.85 0.05 2.7 -0.25 L2.7 -0.1 2.65 -0.1 2.5 -0.15 2.3 -0.25 Q2.15 -0.25 1.9 0.15 L1.65 0.15 1.6 0.05 1.55 0.05 Q1.2 0.05 1.1 -0.15 1.0 -0.35 0.85 -0.35 L0.25 -0.1 Q0.15 -0.1 0.15 -0.35 0.1 -0.15 0.05 -0.15 0.0 -0.05 -0.1 -0.05 L-0.15 0.15 -0.45 0.15 -0.5 -0.1 -0.55 -0.1 -0.65 -0.05 -0.65 0.15 -1.0 0.15 -1.0 0.05 -1.05 -0.15 -1.15 0.1 -1.2 0.05 -1.05 -1.05 -1.0 -1.4 -0.95 -1.95 -0.9 -2.2 -0.9 -2.3 -0.85 -2.35 -0.85 -2.95 -0.8 -2.95 -0.8 -2.9 -0.85 -2.8 -0.85 -2.5 -0.8 -2.2 -0.8 -2.3 -0.75 -2.25 -0.8 -1.95 -0.8 -1.75 -0.75 -1.4 Q-0.7 -0.45 -0.55 -0.45 L-0.5 -1.4 Q-0.45 -1.7 -0.3 -1.8 -0.1 -1.85 -0.1 -1.4 L-0.1 -0.95 0.0 -0.65 Q0.1 -0.65 0.15 -1.4 L0.2 -1.95 0.2 -2.1 0.25 -2.95 0.25 -3.2 0.15 -3.25 0.15 -3.3 0.1 -3.25 0.0 -3.1 -0.05 -3.0 -0.2 -2.65 Q-0.4 -2.65 -0.45 -2.8 L-0.5 -3.1 -0.5 -3.95 -0.6 -4.3 Q-0.75 -3.75 -0.75 -3.3 L-0.75 -3.4 -0.8 -3.1 -0.85 -2.95 Q-0.9 -3.75 -0.95 -4.3 L-0.95 -4.25 -1.0 -4.5 -1.2 -5.65 Q-1.2 -6.3 -1.1 -6.5 L-0.75 -6.7 Q-0.15 -6.95 0.1 -8.35 L0.4 -9.85 Q0.5 -10.1 0.6 -10.35 L0.6 -10.4 0.65 -10.45 0.75 -10.75 1.0 -11.1 1.2 -11.2 1.45 -11.2 Q1.9 -10.8 2.0 -9.9 2.1 -9.0 2.3 -8.7 2.5 -8.9 2.7 -8.65 L2.8 -8.55 Q2.9 -8.35 2.95 -8.05 L2.95 -7.6 M0.95 -10.9 L0.95 -10.95 0.9 -10.85 0.95 -10.9 M0.5 -9.9 L0.5 -9.9 M1.85 -8.85 L1.9 -9.25 1.65 -9.25 Q1.55 -9.25 1.55 -8.9 L1.55 -8.8 Q1.6 -8.7 1.65 -8.7 1.8 -8.7 1.85 -8.85 M2.85 -6.35 L2.85 -6.35 M2.75 -5.75 L2.65 -5.8 2.75 -5.7 2.75 -5.75 M0.05 -3.85 L0.05 -4.1 Q0.05 -4.5 -0.1 -4.5 -0.3 -4.5 -0.3 -4.2 L-0.25 -3.95 Q-0.2 -3.65 -0.05 -3.65 0.0 -3.65 0.05 -3.85 M0.3 -3.25 L0.3 -3.25 M2.25 -3.1 L2.25 -3.1 M2.15 -2.7 L2.15 -2.6 2.2 -2.6 2.15 -2.7 M2.25 -1.95 L2.25 -1.95 M1.7 -0.7 L1.7 -0.7 M-0.25 -4.75 Q-0.25 -4.9 -0.35 -4.9 -0.45 -4.9 -0.45 -4.7 L-0.45 -4.6 Q-0.4 -4.5 -0.35 -4.5 -0.3 -4.5 -0.25 -4.55 L-0.25 -4.75 M-0.8 -1.95 L-0.8 -1.95 M-0.9 -1.5 L-0.9 -1.4 -0.85 -1.4 -0.85 -1.5 -0.9 -1.5" fill="#ffffff" fill-opacity="0.5019608" fill-rule="evenodd" stroke="none"/>
  </g>
</svg>
