<?xml version="1.0" encoding="UTF-8" standalone="no"?>
<svg xmlns:ffdec="https://www.free-decompiler.com/flash" xmlns:xlink="http://www.w3.org/1999/xlink" ffdec:objectType="shape" height="11.75px" width="25.0px" xmlns="http://www.w3.org/2000/svg">
  <g transform="matrix(1.0, 0.0, 0.0, 1.0, 14.45, 9.95)">
    <path d="M5.25 -7.2 Q5.25 -6.7 5.0 -6.45 4.75 -6.15 4.05 -6.1 L2.9 -6.0 Q2.4 -5.8 2.15 -5.15 2.15 -4.2 2.0 -3.65 1.8 -2.6 0.45 -2.6 -0.1 -2.6 -1.35 -3.3 -2.6 -3.9 -2.95 -3.85 L-3.95 -3.65 -5.15 -3.7 -6.3 -3.8 -6.45 -3.9 -7.0 -4.0 -7.05 -4.1 -7.45 -4.1 Q-7.9 -4.55 -8.15 -5.35 -8.35 -6.05 -8.35 -6.7 -8.35 -7.9 -7.55 -9.15 -6.75 -10.35 -6.1 -9.75 L-5.95 -9.75 -5.9 -9.7 Q-5.85 -9.7 -5.85 -9.55 L-6.35 -8.9 Q-6.9 -8.2 -6.9 -7.8 -6.9 -7.45 -6.7 -7.15 -6.5 -6.85 -6.25 -6.65 L-5.65 -6.6 Q-4.9 -6.6 -3.85 -7.25 L-2.3 -8.15 -1.3 -8.3 0.8 -8.4 Q1.75 -8.4 2.25 -8.75 2.5 -8.9 2.8 -9.2 L3.65 -9.2 4.85 -8.25 Q5.25 -7.85 5.25 -7.2 M4.75 -5.0 L4.85 -5.3 5.15 -5.65 5.2 -5.75 Q5.45 -6.05 5.75 -6.3 L6.0 -6.25 6.1 -6.1 Q6.5 -6.1 7.0 -5.85 7.3 -5.65 7.55 -5.05 7.75 -4.4 8.0 -4.25 L10.15 -2.9 Q10.55 -2.55 10.55 -1.55 10.55 -1.05 10.25 -0.6 9.9 0.05 9.25 0.05 8.6 0.05 8.1 -0.2 7.65 -0.5 7.2 -0.5 L6.3 -0.35 6.2 0.3 Q6.05 0.7 5.6 0.95 L4.3 0.7 3.15 0.65 Q2.5 0.65 1.8 0.35 L1.2 0.05 Q1.15 0.0 1.0 -0.2 L0.85 -0.3 0.75 -0.4 0.7 -0.4 0.7 -0.45 Q0.6 -0.55 0.6 -0.7 L0.65 -0.9 Q0.65 -2.05 1.55 -2.35 L3.0 -2.45 Q3.8 -2.45 4.25 -3.0 4.7 -3.6 4.6 -4.35 4.6 -4.65 4.75 -5.0 M-10.15 -7.45 Q-10.15 -7.1 -10.5 -6.3 -10.85 -5.5 -10.85 -5.15 -10.85 -4.75 -10.65 -4.35 -8.85 -4.15 -8.45 -3.95 -8.2 -3.7 -7.55 -3.45 L-7.5 -3.4 -7.4 -3.4 -7.3 -3.35 -7.25 -3.45 Q-7.0 -3.3 -6.9 -3.1 L-6.7 -2.55 Q-6.7 -2.35 -6.55 -2.15 -6.25 -1.8 -5.3 -1.8 -4.75 -1.8 -4.2 -2.05 -3.65 -2.25 -3.4 -2.25 L-2.25 -2.15 -1.65 -1.6 -1.1 -1.1 Q-0.85 -0.9 -0.85 -0.65 -0.85 -0.15 -1.75 0.25 -2.65 0.65 -3.75 0.75 L-5.1 0.95 Q-5.9 1.1 -6.25 1.25 L-6.7 1.5 -7.3 1.8 -7.9 1.8 -8.3 1.5 -8.65 1.15 Q-8.75 0.95 -8.95 0.75 L-9.25 0.55 -11.1 0.45 -12.15 0.8 Q-13.25 1.15 -13.6 1.15 -14.3 1.15 -14.4 0.85 -14.5 0.7 -14.4 0.5 L-14.25 -0.6 Q-14.1 -1.35 -14.15 -1.85 -14.25 -2.7 -14.2 -3.0 -14.15 -3.7 -13.55 -4.0 -12.85 -4.35 -12.6 -5.05 -12.4 -5.6 -12.5 -6.25 -12.7 -8.0 -11.65 -8.2 L-10.65 -8.25 Q-10.3 -8.0 -10.2 -7.8 -10.15 -7.75 -10.15 -7.45" fill="#ffffff" fill-opacity="0.5019608" fill-rule="evenodd" stroke="none"/>
  </g>
</svg>
