<?xml version="1.0" encoding="UTF-8" standalone="no"?>
<svg xmlns:ffdec="https://www.free-decompiler.com/flash" xmlns:xlink="http://www.w3.org/1999/xlink" ffdec:objectType="shape" height="17.8px" width="4.35px" xmlns="http://www.w3.org/2000/svg">
  <g transform="matrix(1.0, 0.0, 0.0, 1.0, 1.1, 17.65)">
    <path d="M1.2 -17.65 Q1.5 -17.6 1.7 -17.15 1.8 -16.85 1.9 -16.45 L1.85 -16.55 1.9 -16.55 1.95 -16.05 2.0 -15.2 2.1 -14.5 Q2.2 -14.2 2.35 -14.15 L2.55 -14.3 Q2.65 -14.5 2.8 -14.5 3.0 -14.5 3.15 -14.05 L3.2 -13.9 3.25 -13.6 3.25 -13.15 3.2 -13.05 3.2 -13.0 Q3.2 -12.85 3.1 -12.7 3.0 -12.55 3.0 -12.35 3.0 -12.15 3.1 -12.05 3.25 -12.0 3.25 -11.75 L3.2 -10.95 Q3.2 -10.8 3.15 -10.65 3.05 -10.75 3.05 -10.9 L3.0 -11.15 2.7 -11.65 2.6 -12.1 Q2.45 -12.55 2.25 -12.55 1.9 -12.55 1.65 -11.85 L1.5 -11.15 1.45 -10.8 Q1.4 -10.45 1.4 -10.35 1.4 -10.1 1.45 -10.05 L1.85 -9.95 Q2.0 -9.95 2.0 -9.4 2.0 -9.0 1.75 -8.8 1.45 -8.6 1.35 -7.95 1.3 -7.8 1.3 -7.5 L1.3 -7.4 1.25 -6.8 1.2 -6.5 Q1.1 -5.7 1.1 -5.5 L1.0 -5.4 Q0.95 -5.65 0.95 -6.1 0.95 -6.55 0.9 -6.8 L0.7 -7.45 Q0.55 -7.85 0.55 -8.1 0.55 -8.4 0.7 -8.7 L0.85 -9.0 0.85 -9.15 0.8 -9.3 0.75 -9.5 0.65 -9.7 0.45 -10.3 0.45 -10.25 0.2 -10.25 Q-0.05 -10.25 -0.1 -10.55 -0.15 -10.65 -0.15 -10.9 -0.15 -11.2 0.0 -11.4 0.05 -11.55 0.05 -11.8 L-0.1 -12.25 -0.25 -12.5 Q-0.5 -12.45 -0.6 -12.05 L-0.7 -11.85 -0.7 -11.5 -0.65 -11.2 -0.6 -10.8 -0.6 -10.75 Q-0.7 -10.95 -0.9 -11.4 L-1.1 -11.9 -1.05 -11.95 -1.1 -12.05 Q-1.1 -12.2 -1.0 -12.4 L-0.85 -12.7 -0.8 -13.0 -0.7 -13.2 Q-0.65 -13.35 -0.5 -13.35 -0.3 -13.35 -0.2 -13.15 L-0.1 -13.0 Q0.15 -13.05 0.25 -13.6 L0.3 -13.9 0.3 -14.25 Q0.25 -14.8 0.25 -14.95 0.25 -15.65 0.4 -16.25 L0.7 -17.25 Q0.9 -17.7 1.2 -17.65 M2.8 -14.15 L2.7 -14.15 2.7 -14.1 2.75 -14.1 2.8 -14.15 M0.25 -13.1 Q0.35 -13.3 0.4 -13.7 L0.3 -13.25 0.25 -13.1 M2.45 -6.25 L2.3 -6.3 2.3 -6.45 2.35 -6.55 2.4 -6.55 2.6 -6.5 2.7 -6.4 2.9 -6.45 Q3.1 -6.45 3.25 -6.25 L3.25 -6.05 3.15 -5.95 2.85 -6.2 2.75 -6.15 2.7 -6.1 2.5 -6.15 2.45 -6.25 M1.5 -5.0 L1.5 -5.15 Q1.5 -5.4 1.75 -5.3 2.0 -5.25 2.0 -5.05 2.0 -4.85 1.85 -4.85 L1.75 -4.9 1.5 -5.0 M0.2 -6.35 L0.15 -6.4 0.05 -6.45 -0.15 -6.35 -0.5 -6.4 -0.55 -6.45 -0.65 -6.5 -0.7 -6.5 -0.75 -6.45 -0.85 -6.3 -0.9 -6.2 -1.0 -6.2 -1.05 -6.35 Q-1.05 -6.85 -0.8 -6.8 L-0.45 -6.6 -0.3 -6.65 -0.2 -6.75 Q0.05 -6.75 0.15 -6.6 L0.2 -6.5 0.2 -6.35 M1.0 -4.5 Q1.2 -4.6 1.2 -4.35 L1.15 -4.15 Q1.1 -4.0 0.95 -4.0 0.9 -4.0 0.85 -4.1 L0.85 -4.2 Q0.85 -4.45 1.0 -4.5 M1.0 -3.05 L1.0 -2.85 1.1 -2.35 Q1.1 -2.2 1.05 -2.05 1.0 -1.9 0.85 -1.9 0.8 -1.9 0.75 -2.05 L0.75 -2.15 Q0.75 -2.35 0.85 -2.65 L1.0 -3.05 M1.25 -0.35 Q1.2 -0.45 1.2 -0.7 1.2 -1.15 1.3 -1.3 1.45 -0.95 1.55 -0.3 1.55 -0.25 1.45 -0.25 1.4 -0.25 1.35 -0.35 L1.25 -0.35 M-0.8 -11.8 L-0.85 -11.8 -0.8 -11.75 -0.8 -11.8 M-0.3 -12.75 L-0.3 -12.75 M-0.65 -12.3 L-0.6 -12.35 -0.65 -12.35 -0.65 -12.3 M-0.7 -0.25 L-0.7 -0.15 Q-0.75 0.05 -0.75 0.1 L-0.95 0.1 Q-1.0 0.25 -1.0 -0.15 L-1.0 -0.2 Q-0.9 -0.75 -0.8 -0.85 L-0.75 -0.6 -0.7 -0.25" fill="#ffffff" fill-opacity="0.5019608" fill-rule="evenodd" stroke="none"/>
  </g>
</svg>
