<?xml version="1.0" encoding="UTF-8" standalone="no"?>
<svg xmlns:ffdec="https://www.free-decompiler.com/flash" xmlns:xlink="http://www.w3.org/1999/xlink" ffdec:objectType="shape" height="24.1px" width="3.6px" xmlns="http://www.w3.org/2000/svg">
  <g transform="matrix(1.0, 0.0, 0.0, 1.0, 0.7, 23.5)">
    <path d="M1.05 -0.1 Q1.05 0.2 0.8 0.4 L0.75 0.45 0.2 0.6 -0.35 0.45 -0.45 0.4 Q-0.7 0.2 -0.7 -0.1 L-0.7 -0.15 -0.45 -0.25 0.2 -0.3 0.8 -0.25 1.05 -0.15 1.05 -0.1" fill="#ffffff" fill-opacity="0.5019608" fill-rule="evenodd" stroke="none"/>
    <path d="M0.45 -0.15 L0.5 -0.1 0.4 0.1 0.2 0.15 0.0 0.1 Q-0.1 0.05 -0.1 -0.1 L-0.1 -0.15 0.0 -0.2 0.4 -0.2 0.45 -0.15" fill="#ffffff" fill-opacity="0.5019608" fill-rule="evenodd" stroke="none"/>
    <path d="M0.85 -23.5 L1.05 -23.4 1.05 -23.2 Q1.0 -23.0 0.9 -22.95 L0.75 -22.85 0.75 -23.2 Q0.8 -23.45 0.85 -23.5 M1.8 -23.05 Q1.65 -22.65 1.55 -22.4 L1.4 -22.25 1.3 -22.3 1.25 -22.4 Q1.25 -22.45 1.25 -22.5 L1.3 -22.45 Q1.45 -22.45 1.65 -23.15 1.8 -23.15 1.8 -23.05 M2.35 -21.8 L2.35 -21.45 Q2.35 -21.3 2.25 -21.3 L2.25 -21.8 2.35 -21.8 M2.8 -20.55 Q2.85 -20.9 2.9 -20.9 L2.9 -20.7 Q2.9 -20.6 2.85 -20.55 2.8 -20.45 2.8 -20.55 M1.3 -19.2 L1.3 -18.95 1.15 -18.95 1.2 -19.25 Q1.25 -19.3 1.3 -19.2 M0.1 -17.35 L0.1 -17.65 0.35 -17.55 Q0.3 -17.3 0.15 -17.3 L0.1 -17.35 M1.7 -17.05 L1.8 -17.35 1.8 -17.2 1.75 -16.9 1.7 -16.95 1.7 -17.05 M-0.5 -21.7 L-0.6 -21.4 -0.65 -21.45 Q-0.6 -21.8 -0.5 -21.8 L-0.5 -21.7 M-0.45 -18.75 L-0.5 -18.6 Q-0.6 -18.5 -0.65 -18.5 -0.7 -18.5 -0.7 -18.55 L-0.7 -18.65 -0.65 -18.75 Q-0.55 -18.95 -0.4 -18.9 L-0.4 -18.8 -0.45 -18.75" fill="#ffffff" fill-opacity="0.5019608" fill-rule="evenodd" stroke="none"/>
    <path d="M0.85 -23.5 L1.05 -23.4 1.05 -23.2 Q1.0 -23.0 0.9 -22.95 L0.75 -22.85 0.75 -23.2 Q0.8 -23.45 0.85 -23.5 M1.8 -23.05 Q1.65 -22.65 1.55 -22.4 L1.4 -22.25 1.3 -22.3 1.25 -22.4 Q1.25 -22.45 1.25 -22.5 L1.3 -22.45 Q1.45 -22.45 1.65 -23.15 1.8 -23.15 1.8 -23.05 M2.35 -21.8 L2.35 -21.45 Q2.35 -21.3 2.25 -21.3 L2.25 -21.8 2.35 -21.8 M2.8 -20.55 Q2.85 -20.9 2.9 -20.9 L2.9 -20.7 Q2.9 -20.6 2.85 -20.55 2.8 -20.45 2.8 -20.55 M1.3 -19.2 L1.3 -18.95 1.15 -18.95 1.2 -19.25 Q1.25 -19.3 1.3 -19.2 M0.1 -17.35 L0.1 -17.65 0.35 -17.55 Q0.3 -17.3 0.15 -17.3 L0.1 -17.35 M1.7 -17.05 L1.8 -17.35 1.8 -17.2 1.75 -16.9 1.7 -16.95 1.7 -17.05 M-0.5 -21.7 L-0.6 -21.4 -0.65 -21.45 Q-0.6 -21.8 -0.5 -21.8 L-0.5 -21.7 M-0.45 -18.75 L-0.5 -18.6 Q-0.6 -18.5 -0.65 -18.5 -0.7 -18.5 -0.7 -18.55 L-0.7 -18.65 -0.65 -18.75 Q-0.55 -18.95 -0.4 -18.9 L-0.4 -18.8 -0.45 -18.75" fill="#ffffff" fill-opacity="0.5019608" fill-rule="evenodd" stroke="none"/>
  </g>
</svg>
