<?xml version="1.0" encoding="UTF-8" standalone="no"?>
<svg xmlns:ffdec="https://www.free-decompiler.com/flash" xmlns:xlink="http://www.w3.org/1999/xlink" ffdec:objectType="shape" height="22.4px" width="18.7px" xmlns="http://www.w3.org/2000/svg">
  <g transform="matrix(1.0, 0.0, 0.0, 1.0, 9.45, 21.75)">
    <path d="M1.85 -20.25 L2.6 -21.05 Q4.6 -22.5 5.35 -21.1 5.7 -20.35 5.7 -19.15 5.7 -18.45 5.35 -17.9 5.0 -17.45 5.0 -17.35 5.0 -17.15 5.2 -16.85 5.35 -16.55 5.35 -16.2 5.35 -16.0 5.3 -15.85 L5.2 -15.5 5.2 -14.4 5.25 -14.35 5.35 -14.35 Q5.8 -14.75 6.2 -15.0 L6.35 -15.3 Q6.4 -15.6 6.6 -15.8 6.8 -16.0 7.15 -15.95 7.45 -15.9 7.7 -15.55 7.85 -15.35 7.9 -15.1 L7.95 -14.75 Q7.95 -14.4 7.85 -13.85 L7.85 -13.7 7.95 -12.8 8.0 -12.5 8.05 -12.3 8.05 -12.25 Q8.45 -11.4 8.45 -11.15 8.45 -10.7 8.3 -10.25 8.2 -10.0 7.95 -10.05 7.8 -9.95 7.6 -9.95 7.5 -9.95 7.0 -9.2 L6.85 -8.95 7.3 -9.25 7.6 -9.3 Q8.15 -9.4 8.55 -8.9 8.9 -8.45 9.1 -7.65 9.25 -7.0 9.25 -6.5 9.25 -5.7 8.75 -4.8 L8.65 -4.7 8.6 -4.55 8.1 -3.85 8.05 -3.75 7.95 -3.6 7.9 -3.45 Q7.9 -3.35 8.05 -2.95 8.2 -2.55 8.2 -2.4 L8.15 -2.1 8.1 -1.85 8.0 -1.85 7.55 -1.25 Q6.75 -0.55 5.6 -0.55 4.8 -0.55 4.15 -1.05 L4.15 -1.1 Q4.0 -1.2 3.9 -1.3 L3.85 -1.35 3.8 -1.35 3.75 -1.4 3.75 -1.45 Q3.6 -1.6 3.6 -1.7 L3.6 -1.9 3.65 -2.0 3.65 -2.05 3.8 -2.1 Q3.85 -2.1 4.0 -1.95 L4.0 -2.1 3.95 -2.1 3.9 -2.35 Q3.75 -2.65 3.45 -2.65 3.05 -2.65 2.1 -2.25 L1.95 -2.2 1.45 -1.95 1.15 -1.85 0.5 -1.35 0.4 -1.3 0.25 -1.15 0.0 -1.0 Q-0.5 -0.6 -1.1 -0.35 L-1.8 0.0 Q-3.25 0.65 -3.85 0.65 -4.4 0.65 -4.9 0.35 -5.8 0.3 -6.3 -0.15 L-6.35 -0.15 -6.55 -0.25 -6.8 -0.35 -6.75 -0.35 -6.55 -0.3 -6.5 -0.35 -6.65 -0.55 -7.05 -0.65 Q-7.3 -0.8 -7.3 -1.25 L-7.35 -1.85 Q-9.45 -1.95 -9.45 -3.8 -9.45 -5.15 -9.0 -6.15 -8.75 -6.7 -7.9 -7.15 -7.15 -7.55 -7.15 -8.15 -7.15 -8.5 -7.5 -8.9 -7.85 -9.4 -7.85 -10.05 -7.85 -10.45 -7.45 -10.75 -6.95 -11.2 -6.75 -11.7 -6.65 -11.95 -6.65 -12.45 -6.65 -13.05 -6.6 -13.3 -6.5 -14.05 -5.85 -14.95 -5.1 -16.05 -4.6 -15.15 -4.5 -15.2 -4.4 -15.55 -4.3 -15.75 -3.9 -15.75 -3.75 -15.75 -3.3 -15.05 -2.95 -14.5 -2.75 -14.3 -2.2 -16.15 -1.65 -17.35 -0.9 -19.1 -0.75 -17.5 L-0.6 -17.8 Q-0.45 -18.0 -0.45 -18.4 -0.45 -18.8 -0.15 -19.15 0.2 -19.55 0.75 -19.65 1.35 -19.75 1.85 -20.25 M7.9 -12.65 L7.9 -12.75 7.85 -12.95 7.85 -12.75 7.9 -12.6 7.9 -12.65 M7.2 -2.05 L7.25 -2.1 7.35 -2.1 Q7.15 -2.1 7.15 -2.05 L7.2 -2.05" fill="#ccfeff" fill-opacity="0.6" fill-rule="evenodd" stroke="none"/>
    <path d="M2.9 -16.6 Q2.9 -15.75 2.55 -14.55 2.2 -13.35 2.2 -12.3 2.2 -11.95 1.9 -10.8 L1.5 -9.6 Q1.6 -9.35 1.8 -9.35 2.2 -9.35 2.95 -10.2 3.45 -10.85 3.65 -11.25 3.9 -11.65 4.45 -12.2 5.1 -12.8 5.7 -12.95 L5.8 -12.55 5.9 -12.1 Q5.9 -11.65 5.9 -11.25 5.9 -11.05 5.85 -10.55 5.75 -10.05 5.75 -9.9 5.65 -9.25 5.55 -8.6 5.25 -7.3 4.85 -7.3 L4.7 -7.35 4.6 -7.45 Q4.55 -7.8 4.65 -8.5 L4.6 -8.65 Q4.55 -8.75 4.4 -8.75 3.55 -8.75 2.4 -4.95 2.4 -4.25 2.95 -4.25 4.15 -4.25 5.25 -5.3 L6.0 -6.15 Q6.4 -6.6 6.55 -6.7 L7.05 -6.6 7.2 -6.25 7.25 -5.8 Q7.25 -5.65 6.75 -4.8 6.3 -3.95 6.3 -3.65 6.3 -3.35 6.55 -2.95 6.8 -2.6 6.8 -2.4 6.8 -2.15 6.6 -1.85 6.3 -1.5 5.75 -1.5 5.3 -1.5 4.95 -1.95 4.6 -2.3 4.6 -2.5 4.6 -2.6 4.85 -2.95 L5.05 -3.4 5.05 -3.6 5.0 -3.65 Q4.9 -3.55 4.45 -3.6 L2.8 -3.7 Q-0.15 -3.7 -0.9 -3.3 -1.15 -3.15 -1.4 -2.85 -1.7 -2.45 -1.95 -2.25 L-1.95 -1.6 Q-1.95 -1.55 -1.85 -1.6 L-1.6 -1.65 Q-1.35 -1.65 -1.35 -1.5 -1.35 -1.35 -0.95 -1.3 L-0.9 -1.15 -1.1 -0.8 Q-1.25 -0.55 -1.5 -0.4 -2.2 0.05 -4.4 0.05 -5.2 0.05 -5.5 -0.3 -5.7 -0.55 -5.7 -1.05 -5.7 -1.35 -5.6 -1.5 L-4.95 -2.3 -5.1 -2.5 Q-5.15 -2.6 -5.3 -2.6 L-5.7 -2.5 -6.15 -2.35 Q-6.75 -2.35 -6.85 -3.0 L-6.85 -3.95 -6.9 -4.05 -7.0 -3.95 Q-7.15 -3.9 -7.2 -3.75 -7.25 -3.55 -7.45 -3.5 -7.6 -3.95 -7.6 -4.3 -7.6 -4.65 -7.5 -5.05 -7.35 -5.6 -7.05 -5.6 -6.5 -5.6 -6.35 -5.45 L-6.0 -5.15 Q-5.85 -5.5 -5.6 -5.95 L-5.15 -6.65 Q-4.65 -7.5 -4.8 -8.45 -4.8 -9.85 -4.75 -10.05 -4.6 -11.05 -3.85 -11.6 -3.8 -11.5 -3.7 -10.6 -3.6 -9.8 -3.4 -9.8 -3.3 -9.8 -3.2 -9.95 -3.1 -10.05 -2.95 -10.05 -2.5 -10.05 -2.3 -9.45 -2.15 -9.05 -2.15 -8.7 -1.25 -9.6 -0.7 -10.9 -0.4 -11.6 0.15 -13.15 0.65 -14.4 1.25 -15.4 2.1 -16.75 2.9 -17.3 L2.9 -16.6 M-7.3 -3.95 L-7.4 -4.0 -7.35 -3.9 -7.3 -3.95" fill="#ffffff" fill-opacity="0.7529412" fill-rule="evenodd" stroke="none"/>
  </g>
</svg>
