<?xml version="1.0" encoding="UTF-8" standalone="no"?>
<svg xmlns:ffdec="https://www.free-decompiler.com/flash" xmlns:xlink="http://www.w3.org/1999/xlink" ffdec:objectType="shape" height="35.3px" width="32.6px" xmlns="http://www.w3.org/2000/svg">
  <g transform="matrix(1.0, 0.0, 0.0, 1.0, 11.35, 34.2)">
    <path d="M4.45 -33.4 L4.55 -33.2 4.55 -32.9 Q4.55 -32.6 4.3 -31.5 4.05 -30.4 3.85 -29.95 3.75 -29.7 3.85 -29.15 L3.9 -28.35 Q3.9 -28.05 3.75 -27.55 L3.65 -26.9 Q3.5 -26.15 3.1 -26.15 L2.9 -26.15 2.85 -26.2 2.85 -26.25 Q2.8 -26.25 2.8 -26.4 2.8 -26.55 3.0 -26.95 3.15 -27.35 3.15 -27.45 3.15 -27.5 2.6 -28.05 2.3 -28.05 2.15 -27.35 L2.1 -26.65 Q2.1 -25.9 1.8 -25.5 1.65 -25.25 1.25 -25.0 0.85 -24.75 0.7 -24.55 0.45 -24.2 0.45 -23.5 0.45 -22.9 0.2 -21.9 L0.0 -21.35 -0.1 -20.55 -0.25 -19.85 -0.15 -19.4 -0.15 -19.35 Q-0.05 -19.1 -0.05 -18.95 L-0.05 -18.55 Q-0.05 -18.15 -0.3 -17.3 -0.6 -16.4 -0.6 -16.1 -0.6 -15.65 -0.45 -15.25 -0.3 -14.9 -0.3 -14.2 -0.3 -13.95 -0.5 -13.45 -0.65 -13.0 -0.65 -12.9 L-0.6 -12.35 Q-0.55 -12.05 -0.35 -12.05 L0.2 -12.15 Q0.6 -12.65 0.8 -13.15 0.85 -13.7 0.75 -14.4 0.75 -14.85 0.95 -15.6 L1.25 -16.95 Q1.3 -17.35 1.6 -18.15 1.9 -19.05 2.0 -19.5 2.3 -20.8 2.95 -20.45 3.15 -20.35 3.35 -20.0 3.5 -19.7 3.5 -19.35 L3.4 -18.9 Q3.3 -18.6 3.3 -18.3 3.5 -18.45 3.75 -18.55 L4.25 -19.45 Q4.55 -20.15 4.6 -20.6 L4.35 -20.15 4.55 -20.9 4.45 -21.25 4.35 -21.55 Q4.25 -21.85 4.25 -22.15 4.25 -22.75 4.4 -22.95 4.5 -23.1 4.7 -23.2 L4.9 -23.8 Q4.9 -23.9 4.7 -24.0 4.5 -24.15 4.5 -24.3 4.5 -25.3 5.6 -26.15 L6.35 -26.65 Q6.75 -26.9 6.75 -26.95 6.85 -27.1 6.9 -27.35 L6.95 -27.7 Q7.0 -27.95 7.15 -28.1 7.25 -28.25 7.5 -28.35 7.9 -28.5 8.1 -28.95 8.2 -29.2 8.35 -29.65 L8.35 -29.7 Q8.05 -29.55 7.45 -28.85 L7.0 -28.3 6.8 -28.15 Q6.7 -28.15 6.65 -28.25 L6.6 -28.4 Q6.4 -28.2 6.1 -27.7 5.9 -27.3 5.65 -27.3 L5.25 -27.4 4.75 -27.5 4.7 -27.6 Q4.7 -27.65 4.7 -27.8 4.7 -28.0 5.0 -28.35 L5.4 -28.75 5.65 -29.05 5.8 -29.55 5.6 -29.15 5.55 -29.2 Q5.65 -29.4 5.85 -29.7 6.05 -30.35 6.15 -30.45 6.3 -30.7 6.4 -31.0 L6.45 -31.45 Q6.55 -31.8 7.2 -31.8 7.25 -31.8 7.45 -32.0 7.55 -32.15 7.75 -32.15 L7.9 -32.3 Q8.05 -32.6 8.2 -32.75 L8.35 -32.75 8.45 -32.8 8.6 -32.85 9.4 -33.2 10.0 -33.5 10.35 -33.9 Q11.35 -34.8 11.35 -33.0 11.35 -32.8 11.25 -32.3 L11.25 -32.05 Q11.25 -32.0 11.55 -31.25 L11.8 -30.55 Q11.8 -29.8 11.1 -28.55 10.35 -27.3 10.35 -26.65 L10.55 -26.15 Q10.55 -25.6 7.65 -22.3 7.6 -22.1 7.45 -22.05 L7.35 -21.9 7.15 -21.75 7.15 -22.1 Q7.1 -22.15 7.1 -22.25 7.05 -22.4 7.1 -22.5 7.1 -22.85 7.3 -23.1 7.45 -23.7 7.75 -24.55 8.45 -26.35 8.45 -26.55 L8.25 -26.7 Q8.15 -26.85 7.9 -26.85 7.5 -26.85 6.85 -25.45 6.15 -23.9 5.9 -23.45 L5.15 -21.8 5.15 -21.75 Q5.45 -21.45 5.45 -21.25 5.45 -21.15 5.25 -20.4 5.0 -19.65 4.95 -19.5 4.75 -18.95 4.6 -18.65 4.35 -18.3 3.9 -18.1 L3.85 -18.05 3.7 -17.8 Q3.3 -17.3 3.35 -16.8 3.4 -16.5 3.25 -16.0 L3.05 -15.0 Q2.9 -14.45 2.45 -12.85 L2.0 -11.3 Q2.0 -11.0 2.55 -10.8 2.95 -10.65 3.25 -10.65 L3.5 -10.65 Q3.85 -10.75 4.35 -11.1 L4.2 -11.05 Q4.45 -11.4 4.9 -11.85 L5.6 -12.8 6.45 -13.8 Q6.85 -14.25 7.0 -14.7 7.15 -15.25 7.15 -16.1 7.15 -16.65 6.9 -16.9 L6.75 -17.1 6.55 -17.25 Q6.45 -17.4 6.45 -17.45 6.45 -18.15 7.35 -19.1 8.65 -20.45 8.8 -20.75 8.95 -21.0 9.6 -21.55 10.25 -22.1 10.3 -22.05 10.6 -22.0 10.6 -21.35 10.55 -21.05 10.6 -20.9 L10.95 -21.1 Q11.45 -21.6 12.15 -22.4 L13.45 -23.95 Q13.85 -24.4 15.5 -25.05 16.5 -25.4 16.95 -25.4 17.2 -25.4 17.2 -25.2 L16.6 -24.0 Q16.0 -22.8 16.0 -22.0 L16.15 -21.75 Q16.3 -21.5 16.3 -21.4 16.3 -21.1 15.95 -20.75 15.5 -20.25 15.2 -19.8 15.1 -19.6 15.0 -19.05 L14.8 -18.3 Q14.7 -17.8 14.65 -17.55 14.5 -17.05 14.0 -16.75 13.5 -16.45 13.1 -16.05 L12.5 -15.5 12.05 -15.5 Q11.85 -15.55 11.8 -15.75 11.7 -15.9 11.7 -16.1 11.7 -16.45 12.75 -18.2 13.85 -20.05 13.95 -20.6 L13.95 -20.7 Q13.2 -20.6 12.7 -19.9 L12.1 -18.7 Q12.0 -18.5 11.45 -18.1 L10.75 -17.55 10.35 -17.1 10.25 -17.0 10.4 -17.1 Q10.4 -16.95 10.3 -16.8 10.15 -16.55 9.85 -16.55 9.75 -16.55 9.7 -16.6 L9.6 -16.75 9.55 -16.85 9.5 -17.0 9.35 -17.3 Q9.2 -17.65 9.2 -17.95 L9.1 -18.1 8.8 -17.85 Q8.6 -17.6 8.6 -17.45 8.6 -17.3 8.7 -17.25 L8.75 -17.15 8.7 -17.0 Q8.65 -16.9 8.55 -16.9 L8.5 -16.9 8.55 -16.7 Q8.7 -16.65 8.8 -16.55 8.95 -16.4 8.95 -16.2 8.95 -15.95 8.5 -15.4 L8.4 -15.3 Q8.2 -14.15 6.95 -12.95 L6.45 -12.5 Q6.35 -12.3 6.35 -12.1 6.35 -11.6 6.6 -11.6 L6.9 -11.65 Q7.05 -11.7 7.15 -11.8 7.45 -12.15 7.85 -12.15 8.1 -12.15 8.3 -11.7 8.45 -11.4 8.45 -11.25 8.45 -10.95 8.25 -10.6 8.0 -10.2 7.7 -10.15 L7.7 -9.65 Q7.7 -9.55 7.45 -8.65 7.45 -8.2 7.55 -8.0 7.65 -7.7 8.05 -7.4 9.55 -7.95 9.8 -8.9 9.9 -9.3 10.05 -9.4 10.3 -9.6 11.0 -9.6 L11.6 -9.7 Q12.25 -9.85 13.2 -10.35 14.45 -11.05 14.75 -11.5 L14.3 -11.95 Q14.05 -11.8 13.75 -11.7 L13.75 -12.1 Q13.75 -12.5 14.35 -13.0 15.05 -13.55 15.95 -13.55 16.6 -15.1 17.05 -15.15 17.6 -15.2 18.15 -13.45 L18.7 -13.4 20.3 -13.1 Q21.1 -12.9 21.25 -12.75 21.3 -12.25 20.35 -11.85 19.2 -11.45 18.9 -11.25 L18.2 -10.9 Q17.75 -10.65 17.65 -10.4 17.45 -9.9 17.2 -9.85 L16.1 -9.75 Q15.4 -9.75 13.2 -9.1 L12.85 -8.95 11.25 -8.45 11.25 -8.4 11.2 -8.4 10.3 -8.05 Q10.05 -7.85 9.9 -7.6 9.75 -7.4 9.65 -7.05 L9.5 -6.55 Q9.15 -5.65 8.65 -5.65 8.45 -5.65 8.4 -5.55 8.35 -5.45 8.35 -4.95 8.35 -4.55 8.45 -4.25 8.5 -4.2 8.55 -4.1 L8.55 -4.25 8.6 -4.05 Q8.75 -3.9 9.0 -3.85 9.9 -3.9 10.15 -4.35 L10.35 -4.75 Q10.45 -4.9 10.7 -4.9 L11.1 -4.75 Q11.35 -4.65 11.45 -4.65 L12.1 -4.7 12.65 -4.8 13.4 -4.85 13.7 -5.35 Q13.7 -5.55 13.45 -5.7 L13.05 -6.15 Q13.1 -6.45 13.3 -6.55 13.55 -6.75 14.2 -6.8 L14.5 -7.2 Q14.65 -7.35 14.75 -7.4 L15.15 -7.35 15.3 -7.15 Q15.35 -7.0 15.55 -6.75 19.4 -6.15 19.85 -5.6 19.3 -5.15 19.0 -5.0 18.45 -4.7 17.5 -4.45 17.35 -4.25 17.05 -4.1 L16.6 -3.9 16.5 -3.95 16.65 -4.2 16.45 -4.15 Q16.05 -4.05 16.0 -4.0 L15.9 -3.85 16.05 -3.7 16.2 -3.5 Q15.85 -3.0 15.65 -2.95 15.5 -2.9 14.1 -2.9 12.8 -2.9 11.75 -2.5 L9.7 -1.7 9.25 -1.2 Q9.05 -1.0 8.15 -0.8 L5.7 -0.6 Q4.9 -0.6 4.55 -0.9 4.4 -1.05 4.4 -1.3 4.4 -1.5 4.55 -1.55 L4.95 -1.65 4.95 -1.8 Q4.95 -1.85 5.55 -2.8 6.2 -3.85 6.35 -4.35 L6.7 -5.6 Q7.05 -6.7 7.05 -6.95 L6.95 -7.7 Q6.85 -8.3 6.85 -8.45 6.85 -8.9 7.05 -9.3 7.25 -9.65 7.25 -10.05 7.25 -10.35 7.15 -10.6 L7.0 -10.55 Q6.85 -10.55 6.8 -10.65 6.75 -10.75 6.45 -10.8 L6.25 -10.85 Q6.1 -10.9 6.05 -10.95 L6.0 -11.0 Q5.95 -10.95 5.9 -10.9 L5.65 -10.55 Q5.25 -10.1 4.0 -10.1 L3.6 -10.0 3.15 -9.85 Q2.45 -9.65 2.25 -9.55 1.8 -9.25 1.7 -8.55 1.6 -7.65 1.45 -7.4 1.1 -6.85 0.35 -6.25 -0.5 -5.55 -0.75 -5.2 -0.9 -5.0 -1.15 -4.15 -1.4 -3.3 -1.4 -3.0 -1.4 -2.65 -0.9 -2.2 -0.35 -1.75 -0.35 -1.15 -0.35 -0.5 -1.65 0.3 -3.05 1.1 -4.6 1.1 -5.25 1.1 -6.9 0.4 -8.55 -0.35 -8.55 -0.65 -8.55 -1.15 -8.45 -1.3 -8.25 -1.65 -7.35 -1.6 L-7.35 -1.65 Q-7.3 -1.7 -7.3 -1.85 L-7.9 -2.85 Q-8.45 -3.85 -8.45 -4.4 -8.45 -4.85 -8.4 -5.35 -8.5 -5.6 -8.5 -5.85 -8.5 -6.45 -8.2 -7.0 -7.9 -7.5 -7.9 -8.05 -7.9 -8.25 -8.1 -8.6 -8.3 -8.9 -8.6 -9.3 -9.0 -9.7 -9.4 -10.1 -9.7 -10.5 -9.7 -11.3 -9.7 -12.1 -10.0 -12.45 L-10.2 -11.85 Q-10.35 -11.45 -10.6 -11.15 L-11.05 -11.15 Q-11.25 -11.3 -11.3 -11.65 L-11.35 -12.25 Q-11.35 -13.35 -10.8 -14.6 L-10.4 -15.4 Q-10.25 -15.8 -10.25 -15.95 -10.25 -16.1 -10.35 -16.35 -10.45 -16.6 -10.45 -16.75 -10.45 -17.3 -10.35 -17.45 L-9.85 -18.2 -8.9 -18.15 Q-8.85 -17.8 -8.8 -16.95 -8.8 -16.1 -8.65 -15.65 L-8.25 -14.45 Q-7.9 -13.55 -7.9 -13.2 -7.9 -13.0 -7.95 -12.6 -8.0 -12.25 -8.05 -11.95 -8.1 -11.95 -8.2 -12.05 L-8.3 -12.2 -8.3 -11.4 Q-7.95 -10.95 -8.0 -10.7 -8.2 -10.4 -8.2 -10.15 -8.2 -9.7 -7.75 -9.1 L-7.4 -8.7 Q-7.05 -8.3 -6.75 -8.1 L-6.8 -8.15 -6.75 -8.25 -6.65 -8.1 Q-6.6 -8.05 -6.5 -8.05 -6.0 -8.05 -5.3 -9.4 -4.7 -10.5 -4.5 -11.45 L-4.05 -13.35 Q-3.9 -14.1 -3.9 -15.0 -3.9 -15.7 -4.0 -16.0 -4.1 -16.25 -4.6 -17.25 -4.75 -17.6 -5.25 -17.55 -5.8 -17.5 -5.9 -17.55 -6.0 -17.65 -6.25 -18.05 -6.5 -18.4 -6.5 -18.6 L-6.3 -19.7 Q-6.1 -20.9 -6.1 -21.45 -6.1 -21.8 -6.0 -22.15 -5.8 -22.65 -5.55 -22.65 -5.45 -22.65 -5.3 -22.5 -5.15 -22.35 -5.05 -22.35 -4.9 -22.35 -4.9 -22.45 L-4.85 -22.6 -4.85 -23.2 -4.9 -23.2 -5.25 -23.25 Q-5.3 -23.3 -5.4 -23.5 -5.5 -23.7 -5.5 -23.8 L-5.55 -23.8 Q-5.6 -23.8 -5.6 -23.95 -5.6 -24.35 -5.25 -25.15 -4.85 -25.9 -4.85 -26.9 -4.85 -28.75 -4.15 -29.8 -3.9 -30.2 -3.3 -30.3 -2.7 -30.4 -2.5 -30.65 -2.3 -30.85 -2.25 -31.35 -2.15 -31.9 -2.05 -32.05 -1.25 -33.35 -0.85 -32.65 -0.6 -32.2 -0.6 -31.3 -0.6 -31.2 -0.7 -30.65 L-0.8 -30.0 Q-0.8 -29.7 -0.55 -29.3 -0.3 -28.9 -0.3 -28.8 -0.3 -28.15 -0.5 -27.45 -0.8 -26.35 -0.85 -25.9 L-0.95 -25.85 -0.85 -26.3 Q-0.85 -26.25 -0.9 -26.2 -0.95 -26.35 -1.0 -26.95 -1.1 -27.45 -1.45 -27.45 -1.6 -27.45 -1.95 -26.6 -2.4 -25.5 -2.55 -25.3 -2.9 -24.75 -3.0 -24.25 L-3.0 -23.3 Q-3.0 -22.1 -3.25 -21.0 -3.55 -19.95 -3.55 -19.1 L-3.5 -18.4 Q-3.45 -17.85 -3.35 -17.55 -3.3 -17.4 -2.75 -16.9 -2.2 -16.45 -2.15 -16.45 -1.2 -16.45 -1.05 -17.8 -1.0 -18.15 -1.0 -18.9 L-0.95 -19.3 Q-0.9 -19.65 -0.85 -19.8 L-0.75 -19.8 -0.75 -20.0 Q-0.8 -20.2 -0.85 -20.5 L-0.9 -21.0 Q-0.9 -21.55 -0.6 -22.35 -0.3 -23.1 -0.3 -23.5 -0.3 -24.35 -0.2 -24.75 -0.1 -25.35 0.4 -26.1 0.65 -26.45 0.75 -27.3 0.85 -28.3 1.0 -28.65 1.15 -29.05 1.75 -29.7 2.35 -30.35 2.65 -30.95 2.85 -31.35 3.15 -32.25 3.5 -33.05 4.1 -33.4 L4.45 -33.4 M17.05 -25.2 L17.1 -25.3 16.9 -25.35 17.05 -25.2 M4.8 -21.8 L4.85 -21.9 4.85 -21.95 4.8 -21.85 4.8 -21.8 M9.6 -16.9 L9.6 -16.9" fill="#ccfeff" fill-opacity="0.6" fill-rule="evenodd" stroke="none"/>
    <path d="M9.7 -31.15 L9.45 -31.2 Q9.4 -31.1 9.4 -31.0 L9.45 -30.95 Q9.5 -30.9 9.7 -30.85 L9.75 -30.75 Q9.8 -30.75 9.8 -30.9 9.8 -31.1 9.7 -31.15 M10.5 -30.9 Q10.5 -30.55 10.35 -30.25 10.2 -29.85 9.9 -29.85 L9.6 -29.9 9.45 -29.85 9.45 -30.15 Q9.45 -30.3 9.5 -30.4 L9.15 -30.5 Q9.0 -31.15 9.0 -31.55 9.0 -31.9 9.25 -32.1 9.45 -32.3 9.75 -32.2 10.5 -32.05 10.5 -30.9 M9.75 -28.2 Q9.75 -28.1 9.9 -27.95 10.1 -27.75 10.1 -27.65 10.1 -27.45 9.75 -26.85 9.35 -26.2 9.05 -26.1 L9.05 -26.25 Q9.0 -26.35 9.0 -26.55 9.0 -27.1 9.3 -27.7 L9.75 -28.55 9.75 -28.2 M12.75 -22.05 Q13.05 -22.6 13.4 -22.95 14.35 -24.0 14.5 -22.85 14.15 -22.25 13.55 -21.65 12.9 -20.95 12.5 -20.85 12.55 -20.95 12.5 -21.1 12.5 -21.3 12.5 -21.4 12.5 -21.6 12.75 -22.05 M10.95 -19.05 Q10.5 -18.55 10.45 -18.55 10.2 -18.55 10.15 -18.8 L10.1 -19.1 Q10.1 -19.25 10.35 -19.55 10.55 -19.85 10.8 -20.05 11.45 -20.6 11.45 -19.75 11.45 -19.6 10.95 -19.05 M2.65 -17.75 Q2.7 -17.45 2.7 -17.25 2.7 -16.7 2.35 -15.25 1.95 -13.65 1.55 -13.65 L1.3 -13.65 1.3 -13.85 Q1.3 -13.95 1.35 -14.2 L1.5 -14.65 Q1.5 -14.7 1.5 -14.65 L1.4 -14.6 1.35 -14.7 Q1.3 -14.8 1.3 -15.0 1.3 -15.55 1.75 -16.8 2.15 -17.9 2.4 -18.3 2.55 -18.15 2.65 -17.75 M8.25 -1.95 Q8.0 -1.75 7.5 -1.75 7.1 -1.75 6.95 -1.95 6.85 -2.05 6.85 -2.3 6.85 -2.75 7.1 -3.25 7.3 -3.8 7.6 -3.95 7.7 -3.75 8.1 -3.3 8.45 -2.85 8.45 -2.45 8.45 -2.1 8.25 -1.95 M17.45 -12.75 Q17.65 -12.35 17.65 -12.1 17.65 -11.7 17.4 -11.6 16.85 -11.4 16.55 -11.15 16.15 -10.9 15.75 -10.75 15.3 -10.55 14.65 -10.45 L15.15 -10.8 Q15.6 -11.1 15.7 -11.3 15.85 -11.65 15.8 -11.95 15.75 -12.3 15.8 -12.45 16.3 -13.95 17.0 -13.4 17.3 -13.2 17.45 -12.75 M-2.1 -27.5 Q-2.25 -27.2 -2.65 -26.7 -3.55 -25.55 -3.8 -23.85 L-3.8 -24.1 Q-3.75 -24.35 -3.75 -24.5 -3.75 -24.6 -3.95 -24.95 -4.1 -25.35 -4.1 -25.55 -4.1 -26.05 -3.75 -27.0 -3.45 -27.95 -3.0 -28.7 -2.55 -29.55 -2.25 -29.65 -1.9 -29.8 -1.9 -28.85 -1.9 -28.05 -2.1 -27.5 M-5.4 -19.6 Q-5.4 -20.55 -4.8 -21.05 -4.6 -21.2 -4.4 -21.15 -4.25 -21.1 -4.25 -20.75 -4.25 -20.65 -4.3 -20.4 L-4.3 -20.25 -4.15 -19.7 Q-4.15 -19.5 -4.25 -19.25 L-4.35 -18.95 Q-4.15 -18.6 -4.15 -18.45 -4.15 -18.3 -4.2 -18.15 L-4.2 -18.0 -4.3 -17.95 -4.5 -17.9 Q-4.8 -17.9 -5.15 -18.75 -5.3 -19.15 -5.4 -19.6 M-3.15 -16.4 Q-3.2 -16.15 -3.45 -16.05 L-3.6 -16.2 Q-3.65 -16.25 -3.65 -16.45 -3.65 -16.8 -3.45 -16.8 -3.3 -16.8 -3.15 -16.4 M-10.25 -13.9 Q-10.3 -14.05 -10.25 -14.1 -10.25 -14.7 -9.9 -15.4 -9.5 -16.15 -9.2 -15.1 -9.1 -14.7 -9.15 -13.95 -9.2 -13.15 -9.1 -12.65 L-9.2 -12.5 Q-9.4 -12.55 -9.5 -12.9 -9.55 -13.15 -9.5 -13.5 L-9.55 -13.55 -9.8 -13.55 Q-10.2 -13.55 -10.25 -13.9 M-1.45 -14.15 Q-1.45 -13.9 -1.95 -12.65 -2.45 -11.4 -2.8 -10.8 L-2.9 -11.8 -2.95 -12.65 -2.8 -13.1 Q-2.65 -13.45 -2.65 -13.6 -2.65 -13.8 -2.75 -14.05 -2.85 -14.35 -2.85 -14.5 L-2.85 -14.65 Q-3.05 -14.7 -3.2 -15.1 -3.4 -15.5 -3.4 -15.7 -3.4 -16.0 -3.25 -16.05 -3.15 -16.15 -2.95 -16.0 -2.6 -15.75 -2.55 -15.2 L-2.15 -15.15 Q-1.85 -15.0 -1.65 -14.75 -1.45 -14.45 -1.45 -14.15 M-4.45 -8.5 Q-3.9 -8.3 -2.8 -8.3 -2.1 -8.3 -1.85 -8.95 -1.75 -9.25 -1.75 -9.6 -1.75 -10.05 -1.65 -10.25 -1.55 -10.4 -1.4 -10.3 -1.0 -10.1 -1.0 -9.15 -1.0 -8.75 -1.25 -8.35 -1.65 -7.75 -1.8 -7.3 -2.0 -6.8 -2.75 -6.35 -3.35 -5.95 -3.35 -5.55 -3.35 -5.4 -3.3 -5.1 -3.2 -4.75 -3.2 -4.6 -3.2 -4.25 -3.0 -3.3 -2.8 -2.35 -2.8 -1.95 -2.8 -1.25 -3.2 -0.75 -3.8 0.0 -5.3 0.0 -5.6 0.0 -5.7 -0.3 -5.75 -0.45 -5.75 -0.65 -5.75 -1.15 -5.05 -1.5 -4.4 -1.85 -4.4 -2.3 -4.4 -2.6 -4.55 -3.15 -4.7 -3.75 -4.85 -3.9 -5.5 -4.4 -5.7 -4.7 -5.9 -5.0 -5.9 -5.35 -5.9 -5.6 -5.6 -6.35 L-5.15 -7.25 -4.7 -8.2 Q-4.55 -8.45 -4.45 -8.5" fill="#ffffff" fill-opacity="0.7529412" fill-rule="evenodd" stroke="none"/>
  </g>
</svg>
