<?xml version="1.0" encoding="UTF-8" standalone="no"?>
<svg xmlns:ffdec="https://www.free-decompiler.com/flash" xmlns:xlink="http://www.w3.org/1999/xlink" ffdec:objectType="shape" height="35.3px" width="33.05px" xmlns="http://www.w3.org/2000/svg">
  <g transform="matrix(1.0, 0.0, 0.0, 1.0, 11.35, 34.6)">
    <path d="M4.3 -33.2 Q4.35 -32.95 4.4 -32.45 4.45 -32.0 4.8 -31.8 5.1 -31.6 5.1 -31.3 5.1 -31.1 4.85 -30.2 4.6 -29.25 4.4 -29.05 4.25 -29.3 4.25 -30.2 4.1 -31.0 3.4 -31.0 L2.85 -30.75 Q2.3 -30.55 2.1 -30.55 L1.9 -30.6 1.85 -30.6 1.8 -31.15 Q1.8 -31.3 2.55 -32.25 3.35 -33.35 3.95 -33.55 4.2 -33.6 4.3 -33.2 M7.05 -33.15 Q7.35 -33.15 7.35 -32.95 7.6 -32.9 7.85 -32.65 7.95 -32.75 8.3 -33.05 8.85 -33.55 8.95 -33.6 L9.55 -33.7 Q9.8 -33.75 10.1 -34.1 10.75 -34.9 11.35 -34.5 11.6 -34.35 11.75 -34.1 11.9 -33.9 11.9 -33.7 L11.8 -33.05 Q11.65 -32.5 11.65 -32.4 11.65 -31.7 12.3 -31.3 12.65 -31.1 12.75 -31.0 12.95 -30.8 12.95 -30.5 12.95 -29.85 12.25 -29.4 11.9 -29.15 11.8 -29.05 11.55 -28.85 11.55 -28.55 11.55 -28.35 11.75 -27.95 11.95 -27.55 11.95 -27.35 11.95 -26.5 11.55 -26.05 L10.05 -24.85 10.0 -24.8 10.0 -24.95 Q10.0 -25.35 10.45 -26.15 10.9 -26.95 10.9 -27.05 10.9 -27.15 10.6 -27.55 10.3 -27.95 10.3 -28.25 10.3 -28.45 10.65 -29.1 11.0 -29.75 11.0 -29.95 11.0 -30.15 10.6 -31.25 10.25 -32.4 10.1 -32.4 9.9 -32.4 9.7 -32.05 L9.3 -31.25 Q8.7 -30.1 7.85 -30.1 7.35 -30.1 7.4 -30.65 L7.45 -31.2 Q7.45 -31.5 7.35 -31.65 7.0 -31.4 6.7 -30.75 6.45 -30.15 6.15 -29.95 L6.0 -30.15 Q5.95 -30.25 5.95 -30.3 5.95 -30.75 6.15 -31.3 6.4 -31.9 6.4 -32.15 6.4 -32.35 6.55 -32.7 6.8 -33.15 7.05 -33.15 M15.75 -24.65 Q15.65 -24.65 15.05 -24.3 14.45 -24.0 14.1 -24.0 13.65 -24.0 13.35 -24.3 L13.2 -24.45 13.05 -24.2 Q12.8 -23.75 12.45 -23.7 12.5 -24.0 12.9 -24.6 L13.05 -24.8 Q13.05 -25.0 13.25 -25.3 13.5 -25.75 13.75 -25.75 L13.95 -25.45 Q14.15 -25.15 14.35 -25.15 14.5 -25.15 15.75 -25.85 16.95 -26.55 17.25 -26.55 17.5 -26.55 17.75 -26.15 17.95 -25.8 17.95 -25.6 17.95 -25.5 17.8 -25.4 17.55 -25.3 17.4 -24.8 17.85 -24.4 17.8 -24.15 17.65 -23.85 17.65 -23.55 17.65 -23.35 18.15 -23.15 18.65 -22.95 18.65 -22.65 18.65 -22.4 17.7 -21.7 16.7 -21.05 16.7 -20.65 16.7 -20.3 17.1 -19.9 17.5 -19.5 17.5 -19.4 17.5 -18.65 16.35 -17.8 15.8 -17.4 14.4 -16.6 L14.25 -16.55 14.1 -16.55 Q14.05 -16.55 14.05 -16.7 14.05 -17.05 14.45 -17.15 L14.95 -17.75 Q15.55 -18.4 15.65 -18.65 L15.25 -19.1 Q15.2 -19.15 15.2 -19.3 15.2 -19.65 15.4 -19.9 15.75 -20.45 15.9 -20.8 16.0 -21.05 16.0 -21.3 L16.0 -21.65 Q16.0 -22.0 16.65 -22.0 L16.7 -22.0 16.7 -22.2 Q16.7 -22.3 16.5 -22.7 16.25 -23.1 16.15 -23.1 15.65 -23.1 14.25 -22.0 L13.25 -21.2 Q13.1 -21.0 12.85 -20.9 L12.55 -20.6 12.65 -20.75 12.55 -20.7 12.65 -20.8 12.35 -20.8 Q12.0 -20.8 11.95 -21.05 11.9 -21.2 11.95 -21.4 11.95 -21.5 12.0 -21.65 L12.2 -22.15 12.15 -22.3 12.05 -22.45 11.35 -22.5 Q11.15 -22.5 10.9 -22.3 10.6 -22.1 10.6 -22.05 10.8 -22.5 11.25 -22.65 11.7 -22.75 12.1 -22.6 12.55 -22.5 12.7 -22.15 12.9 -21.8 12.65 -21.4 L12.75 -21.3 Q12.75 -21.2 12.9 -21.2 13.65 -22.35 14.8 -23.25 L15.65 -23.85 Q16.0 -24.1 16.0 -24.3 16.0 -24.45 15.9 -24.55 L15.75 -24.65 M14.05 -22.15 L14.95 -22.8 14.9 -22.85 14.4 -22.5 14.05 -22.15 M8.4 -28.6 L8.4 -28.6 M9.15 -29.6 Q9.0 -29.45 8.85 -29.4 L8.8 -29.5 8.9 -29.6 Q9.0 -29.65 9.05 -29.65 L9.15 -29.6 M8.65 -28.95 Q8.9 -28.85 8.9 -28.45 L8.9 -28.1 8.95 -28.0 Q8.9 -27.95 8.8 -27.95 8.75 -27.9 8.65 -27.85 L8.55 -27.9 8.55 -27.7 8.5 -27.65 8.05 -27.6 7.7 -27.1 Q7.4 -26.6 7.05 -26.3 L6.8 -26.1 6.75 -26.1 6.7 -26.05 6.7 -25.95 6.55 -26.05 6.25 -26.05 Q6.15 -26.1 6.0 -26.25 5.9 -26.35 5.85 -26.4 L5.2 -26.75 Q5.05 -26.6 4.95 -26.2 L4.8 -25.7 4.8 -25.2 Q5.25 -25.4 5.55 -25.1 5.7 -24.85 5.7 -24.6 5.7 -24.15 5.65 -24.0 5.6 -23.8 5.45 -23.55 L5.2 -23.05 5.1 -23.05 5.2 -23.3 5.1 -23.35 5.3 -23.8 5.45 -24.05 5.45 -24.25 Q5.45 -24.4 5.4 -24.5 L5.3 -24.7 Q4.7 -24.45 4.35 -25.1 4.1 -25.55 4.1 -25.9 4.1 -26.2 4.3 -26.5 4.4 -26.7 4.5 -26.9 4.85 -27.4 5.5 -27.45 L6.0 -27.55 Q6.2 -27.55 6.45 -27.15 6.65 -26.75 6.8 -26.75 L6.95 -26.75 7.15 -27.1 7.45 -27.65 Q7.65 -28.05 8.05 -28.2 L8.25 -28.5 8.4 -28.8 Q8.45 -29.05 8.65 -28.95 M2.65 -28.6 L2.65 -28.45 Q2.6 -28.4 2.5 -28.4 2.4 -28.4 2.35 -28.55 2.3 -28.75 2.2 -28.75 L1.85 -28.65 Q1.55 -28.55 1.45 -28.55 1.35 -28.55 1.25 -27.9 L1.1 -26.9 Q1.0 -26.85 0.85 -26.85 0.85 -26.9 0.9 -27.1 0.95 -27.25 0.95 -27.4 0.95 -27.55 0.8 -27.85 0.7 -28.2 0.7 -28.3 0.7 -28.55 0.95 -29.05 1.15 -29.6 1.3 -29.6 1.55 -29.6 1.65 -29.45 L1.7 -29.2 2.2 -29.75 Q2.5 -29.55 2.55 -29.2 2.6 -28.7 2.65 -28.6 M0.0 -30.25 Q-0.2 -30.0 -0.55 -30.0 -0.85 -30.0 -1.0 -30.25 -1.1 -30.35 -1.15 -30.7 -1.2 -31.1 -1.3 -31.25 -1.5 -31.45 -1.9 -31.45 -2.2 -31.45 -2.7 -31.1 L-2.75 -31.1 -3.2 -30.7 Q-4.1 -30.0 -4.35 -30.0 -4.65 -30.0 -4.75 -30.3 L-4.75 -30.8 Q-4.75 -31.5 -4.4 -32.05 -4.0 -32.7 -3.25 -32.7 -2.65 -32.7 -2.35 -33.0 -2.2 -33.15 -2.1 -33.6 -1.95 -34.0 -1.75 -34.15 -1.45 -34.45 -0.75 -34.4 -0.6 -34.15 -0.2 -32.4 L0.15 -30.7 Q0.15 -30.45 0.0 -30.25 M0.2 -25.25 Q0.0 -25.15 -0.05 -24.8 -0.15 -24.45 -0.1 -24.15 L0.0 -24.25 Q0.0 -24.05 -0.15 -23.5 -0.3 -22.95 -0.3 -22.65 -0.3 -22.5 -0.35 -22.15 L-0.55 -21.55 -0.5 -21.05 Q-0.5 -20.65 -0.85 -20.65 -1.05 -20.65 -1.1 -21.15 -1.15 -21.35 -1.1 -21.6 -1.1 -22.15 -0.95 -22.35 -0.6 -22.7 -0.3 -23.55 -0.2 -23.75 -0.15 -24.55 -0.1 -25.2 0.15 -25.3 L0.2 -25.25 M2.35 -19.95 L2.55 -19.95 Q2.7 -20.0 2.75 -20.05 2.6 -20.15 2.4 -20.05 L2.35 -19.95 M2.05 -20.35 Q2.25 -20.7 2.65 -20.6 3.05 -20.55 3.05 -20.05 3.05 -19.7 2.9 -19.55 2.85 -19.45 2.6 -19.35 2.05 -19.1 1.9 -18.4 1.85 -18.0 1.6 -17.35 L1.3 -16.4 1.25 -16.4 1.55 -17.75 Q1.75 -18.55 1.8 -19.0 1.8 -19.15 1.8 -19.6 1.8 -20.05 2.05 -20.35 M9.2 -20.7 Q8.55 -20.6 8.05 -19.85 7.5 -18.9 7.15 -18.55 7.25 -18.35 7.4 -18.3 L7.7 -18.25 Q7.7 -18.0 7.7 -17.6 L7.6 -17.05 7.8 -16.6 Q8.0 -16.2 8.0 -16.1 8.0 -15.95 7.85 -15.8 L8.0 -15.65 8.85 -15.55 Q9.4 -15.6 9.6 -15.25 9.75 -15.0 9.85 -14.45 9.9 -13.8 10.05 -13.5 10.1 -13.4 10.2 -11.95 10.35 -10.45 10.35 -10.05 L10.35 -9.65 10.7 -9.7 11.05 -9.7 Q11.45 -9.85 11.75 -10.35 L12.25 -11.2 Q12.55 -11.55 12.8 -11.5 13.1 -11.4 13.55 -10.65 L13.55 -10.5 Q13.5 -10.4 13.35 -10.4 13.25 -10.4 13.2 -10.55 13.1 -10.65 13.0 -10.65 12.6 -10.65 12.35 -9.95 12.0 -9.05 11.9 -8.95 11.8 -8.85 11.35 -8.75 L10.7 -8.6 Q10.35 -8.5 10.1 -8.2 L9.85 -7.95 9.85 -7.9 Q9.55 -7.3 8.9 -6.55 8.75 -6.2 8.3 -5.7 7.9 -5.25 7.9 -5.0 7.9 -4.85 8.0 -4.2 8.1 -3.55 8.15 -3.45 8.2 -3.35 8.75 -3.05 9.15 -2.8 9.1 -2.25 L9.25 -2.2 Q10.3 -2.2 10.75 -2.6 L11.0 -2.85 Q11.1 -3.0 11.2 -3.0 10.95 -3.1 10.75 -3.55 10.6 -3.9 10.6 -4.25 10.6 -4.85 11.2 -5.4 12.0 -6.15 13.55 -5.65 L13.65 -5.5 Q13.55 -5.45 13.55 -5.35 L13.6 -5.3 12.9 -5.2 12.7 -5.15 Q12.95 -5.2 13.1 -5.05 L13.4 -4.7 13.55 -4.7 13.45 -4.8 Q13.45 -4.85 13.5 -4.85 L13.7 -4.85 Q13.9 -4.85 14.3 -5.1 L14.3 -5.15 Q14.9 -5.55 15.95 -6.45 15.9 -6.55 15.55 -6.65 L15.1 -6.8 15.2 -6.85 14.95 -6.9 14.9 -6.85 Q14.6 -7.1 14.6 -7.2 14.6 -7.4 14.9 -7.6 15.2 -7.8 15.45 -7.65 L15.3 -7.55 15.35 -7.5 15.4 -7.6 Q15.75 -7.9 15.85 -7.95 16.8 -7.75 17.25 -7.5 17.5 -7.4 18.0 -7.4 18.5 -7.4 18.5 -6.9 L18.45 -6.5 Q18.4 -6.25 18.45 -6.15 18.8 -5.55 19.5 -5.35 L20.6 -5.25 Q20.9 -5.05 20.9 -4.8 20.9 -4.25 18.75 -3.55 16.7 -2.9 15.65 -2.95 L15.3 -2.95 15.25 -3.05 Q15.3 -3.3 15.7 -3.65 16.0 -3.95 16.0 -4.15 16.0 -4.75 15.65 -4.7 L14.65 -4.55 14.4 -4.5 14.1 -4.55 14.0 -4.45 Q13.85 -4.35 13.75 -4.35 13.3 -4.35 12.85 -4.6 12.45 -4.85 12.25 -4.85 12.05 -4.85 11.6 -4.55 11.15 -4.25 11.1 -4.25 11.05 -3.9 11.4 -3.65 11.75 -3.4 11.75 -3.15 11.75 -2.9 11.6 -2.65 11.8 -2.6 11.8 -2.2 11.8 -1.7 11.2 -1.4 10.7 -1.15 10.0 -1.15 L9.05 -0.9 Q8.0 -0.65 7.4 -0.65 7.15 -0.65 6.75 -1.2 6.4 -1.7 6.4 -1.95 6.4 -2.1 6.55 -2.45 L6.7 -2.7 6.7 -2.75 6.65 -2.9 Q6.5 -2.95 6.45 -3.15 6.45 -3.3 6.45 -3.5 L6.5 -3.65 6.45 -3.9 Q6.45 -4.2 6.5 -4.3 6.6 -4.55 6.8 -4.6 7.1 -5.2 7.6 -6.0 L8.3 -7.0 Q8.45 -7.3 8.65 -7.85 9.0 -9.0 9.0 -9.6 9.0 -10.4 8.3 -12.85 7.6 -15.35 7.3 -15.35 L5.25 -15.2 4.1 -14.95 2.95 -13.65 Q2.75 -13.4 1.85 -12.65 0.95 -11.9 0.65 -11.6 -0.05 -10.85 -0.6 -9.95 L-0.1 -10.4 Q-0.45 -10.05 -0.85 -9.4 L-1.0 -9.2 Q-1.45 -8.35 -1.7 -7.4 L-1.7 -7.35 Q-1.7 -7.05 -1.95 -6.15 -2.15 -5.25 -2.15 -5.05 -2.15 -4.8 -1.75 -4.15 -1.4 -3.55 -1.4 -3.3 -1.4 -2.75 -0.95 -2.25 -0.6 -1.8 -0.6 -1.6 -0.6 -0.6 -1.6 0.1 -2.4 0.7 -3.05 0.7 -3.35 0.7 -3.6 0.5 -3.9 0.35 -4.25 0.35 L-4.9 0.45 -5.55 0.6 Q-6.45 0.6 -6.65 -0.45 -6.75 -1.0 -6.65 -1.75 -6.65 -1.85 -6.75 -2.2 -6.85 -2.5 -6.85 -2.6 L-6.85 -3.05 -6.75 -3.1 Q-6.7 -3.2 -6.6 -3.2 -6.55 -3.2 -6.4 -2.95 L-6.2 -2.75 Q-5.7 -2.75 -5.3 -3.15 -5.25 -3.3 -5.25 -3.4 -5.25 -3.75 -5.45 -4.0 L-5.6 -4.25 Q-5.85 -4.3 -6.0 -4.45 L-6.65 -5.1 -7.05 -5.25 Q-7.4 -5.3 -7.5 -5.45 -7.7 -5.6 -7.7 -5.8 L-7.75 -6.1 Q-7.75 -6.3 -7.55 -6.5 -7.4 -6.7 -7.4 -6.85 L-7.4 -6.9 -7.55 -7.1 -7.65 -7.3 Q-7.9 -7.5 -7.9 -7.8 L-7.85 -8.1 -7.85 -8.35 Q-7.65 -8.3 -7.4 -8.15 -7.2 -8.05 -7.15 -7.95 -7.05 -7.8 -7.1 -7.5 L-7.1 -7.2 Q-6.95 -7.0 -6.95 -6.75 -6.95 -6.65 -7.0 -6.55 L-6.9 -6.25 Q-6.75 -5.95 -6.75 -5.8 L-6.6 -5.75 -6.15 -5.5 -6.05 -5.6 Q-5.95 -5.55 -5.8 -5.3 -5.65 -5.1 -5.45 -5.05 L-5.15 -4.85 Q-5.0 -4.75 -5.0 -4.65 -5.0 -4.55 -5.05 -4.45 -4.85 -4.9 -4.65 -6.25 -4.5 -7.5 -4.15 -8.15 -2.9 -10.3 -2.9 -10.45 -2.85 -10.55 -2.9 -10.9 -3.0 -11.35 -3.0 -11.95 -3.0 -13.0 -2.75 -13.65 -2.85 -13.6 -2.9 -13.6 L-3.15 -13.65 -3.15 -13.7 Q-3.15 -13.75 -3.15 -13.9 -2.8 -14.85 -2.8 -14.9 -2.8 -15.05 -3.0 -15.4 L-3.2 -15.95 Q-2.8 -15.8 -2.6 -15.3 -2.45 -14.95 -2.45 -14.4 L-2.45 -14.25 -2.25 -14.4 -2.3 -14.6 Q-2.3 -15.05 -1.85 -15.35 -1.45 -15.7 -1.15 -15.65 L-1.65 -14.9 Q-1.8 -14.6 -1.85 -14.3 L-1.8 -14.25 Q-1.55 -13.85 -1.55 -13.2 L-1.35 -12.9 Q-1.1 -12.55 -1.0 -12.2 -0.95 -12.2 -0.75 -12.35 -0.65 -12.45 -0.55 -12.45 -0.4 -12.45 -0.35 -12.35 L-0.2 -12.25 Q-0.25 -12.0 -0.35 -11.8 0.15 -11.9 1.15 -13.65 L1.85 -14.95 Q2.2 -15.55 2.4 -15.55 2.5 -15.55 2.6 -15.35 2.7 -15.2 2.75 -15.2 2.85 -15.2 3.05 -15.45 L3.4 -16.0 Q3.95 -16.7 4.5 -16.3 L4.65 -16.15 4.7 -16.15 Q5.15 -16.35 5.4 -16.35 5.5 -16.35 5.65 -16.2 L6.2 -16.2 6.3 -16.25 Q6.45 -16.4 6.65 -16.4 L6.7 -16.4 Q6.7 -16.85 7.45 -17.15 7.5 -17.25 7.5 -17.5 L7.0 -17.5 Q6.7 -17.75 6.6 -17.9 6.55 -18.05 6.55 -18.3 6.55 -18.75 6.7 -18.85 L7.15 -18.85 Q7.3 -18.85 7.5 -19.1 L7.85 -19.7 Q8.35 -20.6 9.05 -20.75 L9.05 -20.8 Q9.2 -20.8 9.2 -20.7 M4.1 -15.85 Q3.75 -15.85 3.45 -15.55 3.25 -15.4 2.9 -14.95 L3.0 -14.4 3.5 -15.05 3.5 -15.15 Q3.5 -15.5 4.0 -15.8 L4.1 -15.85 M2.3 -16.05 Q2.3 -15.75 2.15 -15.6 L2.0 -15.5 1.85 -15.5 1.85 -15.65 Q1.85 -15.8 1.9 -15.95 2.0 -16.15 2.25 -16.3 L2.3 -16.25 2.3 -16.05 M18.5 -14.4 Q18.55 -14.25 18.5 -13.95 18.5 -13.9 18.75 -13.8 L19.15 -13.75 19.65 -13.85 20.1 -13.95 Q20.85 -13.95 21.35 -13.45 21.7 -13.05 21.7 -12.9 21.7 -12.55 21.0 -12.35 20.25 -12.1 20.25 -11.75 L20.45 -11.25 Q20.45 -10.95 19.75 -10.45 19.55 -10.35 18.3 -9.65 L18.15 -9.65 18.15 -9.8 18.55 -10.4 Q18.9 -11.0 18.95 -11.45 18.7 -10.6 17.9 -10.6 17.35 -10.6 17.15 -11.5 17.0 -11.65 16.75 -12.1 L16.55 -12.5 Q15.55 -12.5 15.15 -12.05 L15.1 -11.95 Q14.7 -11.15 14.6 -11.05 14.6 -11.1 14.8 -11.5 15.0 -11.9 14.95 -11.95 L14.9 -11.95 Q15.75 -13.45 16.35 -13.3 16.7 -13.15 17.15 -12.35 17.65 -12.0 17.7 -11.85 L17.95 -11.45 Q18.2 -11.15 18.35 -11.15 18.55 -11.15 18.75 -11.45 L18.9 -11.75 18.75 -12.55 Q18.5 -13.5 18.0 -13.05 17.8 -13.3 17.8 -13.65 17.8 -13.8 17.9 -14.25 L17.9 -14.3 17.6 -14.05 Q17.35 -13.85 17.25 -13.85 17.1 -13.85 17.05 -13.95 L16.95 -14.1 Q17.0 -14.65 17.25 -15.05 17.45 -15.45 17.75 -15.55 18.05 -15.65 18.2 -15.4 18.45 -15.15 18.45 -14.55 L18.5 -14.4 M18.0 -13.4 L18.55 -13.4 18.7 -13.35 18.8 -13.5 18.4 -13.75 18.4 -13.85 18.5 -14.2 Q18.45 -14.25 18.4 -14.25 18.4 -13.95 18.35 -13.8 18.3 -13.5 18.0 -13.65 L18.0 -13.4 M15.4 -12.4 Q15.75 -12.65 16.35 -12.7 16.25 -12.8 16.1 -12.8 15.75 -12.8 15.4 -12.4 M18.85 -10.3 L18.85 -10.2 Q19.1 -10.2 19.5 -10.5 19.85 -10.75 19.95 -10.9 L19.8 -11.25 Q19.7 -11.45 19.7 -11.5 L19.15 -11.5 Q19.15 -11.15 19.1 -10.95 19.05 -10.7 18.85 -10.3 M-1.75 -30.75 Q-1.55 -30.65 -1.55 -30.3 -1.55 -29.4 -2.25 -29.4 L-2.65 -29.45 Q-2.9 -29.5 -2.95 -29.7 L-2.95 -29.85 Q-2.95 -30.4 -2.55 -30.65 L-2.25 -30.8 -1.75 -30.75 M-2.45 -28.15 Q-2.45 -27.9 -2.65 -27.45 L-2.95 -26.9 -3.0 -26.9 -2.95 -27.05 -3.0 -27.0 -3.0 -27.25 -2.9 -27.25 -2.7 -27.65 Q-2.5 -28.1 -2.55 -28.35 L-2.5 -28.35 -2.45 -28.15 M-3.5 -26.85 L-3.25 -27.55 Q-3.1 -27.9 -2.9 -28.1 -3.0 -27.65 -3.05 -27.3 -3.25 -26.5 -3.6 -25.95 -3.85 -25.5 -4.45 -25.05 L-4.65 -24.9 Q-5.1 -24.1 -5.5 -22.85 -5.45 -22.7 -5.3 -22.45 L-5.2 -22.35 -4.95 -22.2 Q-4.8 -22.25 -4.65 -22.5 -4.45 -22.85 -4.4 -22.85 -4.05 -22.85 -3.95 -22.3 L-3.95 -21.75 Q-3.95 -21.45 -4.1 -20.75 -4.25 -20.0 -4.25 -19.65 -4.25 -19.55 -4.15 -19.35 -4.0 -19.1 -3.95 -18.95 L-3.95 -18.6 Q-3.9 -18.4 -3.85 -18.25 L-3.85 -18.0 -3.95 -17.95 -4.15 -17.9 Q-4.7 -17.9 -4.95 -19.45 -5.0 -19.95 -5.05 -20.35 L-5.1 -20.3 Q-5.2 -20.5 -5.2 -20.65 L-5.2 -20.9 Q-5.2 -21.0 -5.3 -21.15 -5.4 -21.3 -5.45 -21.3 -5.65 -21.3 -5.75 -21.2 L-5.9 -20.95 Q-6.1 -20.55 -6.7 -20.55 -6.95 -20.55 -7.1 -21.15 -7.15 -21.5 -7.15 -21.85 L-7.05 -22.6 Q-7.0 -23.2 -7.0 -23.35 -7.0 -23.65 -6.6 -24.3 -6.15 -24.95 -5.8 -25.2 L-5.75 -25.2 Q-5.65 -25.25 -5.6 -25.4 -5.45 -25.65 -5.3 -26.15 -5.05 -26.9 -4.75 -26.9 -4.5 -26.9 -4.2 -26.7 -3.95 -26.5 -3.85 -26.5 -3.75 -26.5 -3.55 -26.7 L-3.5 -26.85 M-9.55 -19.3 L-9.55 -19.3 M-8.5 -19.3 L-8.5 -19.25 Q-8.55 -19.25 -8.6 -19.3 L-8.65 -19.25 Q-8.2 -19.1 -8.05 -18.45 -7.9 -18.05 -7.9 -17.5 -7.9 -17.35 -8.05 -16.95 -8.2 -16.55 -8.35 -16.55 -8.4 -16.55 -8.85 -16.85 -9.3 -17.2 -9.5 -17.2 -10.25 -17.2 -10.4 -16.05 -10.45 -15.4 -10.5 -15.25 -10.65 -14.9 -10.95 -14.9 -11.15 -14.9 -11.25 -15.25 -11.35 -15.45 -11.35 -15.6 -11.35 -16.75 -11.3 -17.1 -11.1 -18.25 -10.35 -18.25 L-10.15 -18.6 -10.15 -18.65 -10.1 -18.85 Q-9.95 -19.5 -9.85 -19.65 -9.6 -19.95 -9.15 -19.85 -8.8 -19.7 -8.5 -19.3 M-9.45 -17.65 L-9.25 -17.6 Q-9.35 -17.7 -9.4 -17.7 L-9.45 -17.65 M-8.5 -16.75 L-8.45 -16.8 -8.65 -17.0 -8.5 -16.75 M-0.7 -17.95 L-0.7 -16.85 -0.8 -16.8 -0.85 -16.9 Q-0.85 -17.0 -0.85 -17.15 L-0.85 -17.6 -0.8 -18.05 -0.75 -18.05 -0.7 -17.95 M-10.1 -18.7 L-9.9 -18.95 -9.95 -19.1 -10.1 -18.7 M-10.05 -15.0 Q-10.0 -15.45 -9.9 -15.6 -9.7 -15.95 -9.5 -15.75 -9.25 -15.5 -9.15 -15.5 L-9.15 -15.4 Q-9.1 -15.3 -9.1 -15.15 -9.1 -14.5 -9.15 -14.25 -9.25 -13.55 -9.5 -13.55 -9.85 -13.55 -10.0 -13.95 -10.1 -14.15 -10.1 -14.35 -10.1 -14.6 -10.05 -15.0 M-11.05 -15.35 L-11.05 -15.35 M-11.1 -15.45 L-11.1 -15.6 Q-11.1 -15.85 -10.95 -16.4 -11.15 -15.85 -11.15 -15.65 L-11.1 -15.45 M-1.1 -15.75 L-1.15 -15.75 -1.05 -16.05 -0.9 -16.25 Q-0.95 -16.0 -1.1 -15.75 M-0.45 -11.55 Q-0.6 -11.3 -0.8 -11.3 L-0.65 -11.1 Q-0.35 -11.5 0.0 -11.9 L-0.35 -11.6 -0.45 -11.55 M-5.35 -8.1 L-5.35 -8.2 -5.3 -7.5 Q-5.4 -7.7 -5.4 -7.8 L-5.35 -8.1 M-7.1 -7.2 L-7.1 -7.5 Q-7.1 -7.7 -7.25 -7.85 -7.3 -7.95 -7.4 -7.95 -7.4 -8.05 -7.4 -7.75 L-7.25 -7.65 Q-7.2 -7.55 -7.25 -7.35 L-7.1 -7.2" fill="#ccfeff" fill-opacity="0.6" fill-rule="evenodd" stroke="none"/>
    <path d="M7.9 -1.8 Q7.8 -1.65 7.6 -1.65 7.25 -1.65 7.15 -2.1 7.1 -2.3 7.15 -2.45 7.15 -2.8 7.3 -2.95 7.4 -3.1 7.6 -3.05 8.0 -2.95 8.0 -2.15 8.0 -1.95 7.9 -1.8 M19.15 -12.7 Q19.15 -13.25 19.55 -13.15 20.0 -13.05 20.0 -12.65 20.0 -12.15 19.5 -12.15 19.25 -12.15 19.15 -12.4 19.15 -12.5 19.15 -12.7 M-2.35 -9.65 Q-2.1 -9.8 -2.1 -9.0 -2.1 -8.45 -2.7 -6.85 -3.35 -5.25 -3.35 -4.35 -3.35 -4.1 -3.1 -3.6 -2.85 -3.1 -2.8 -2.95 -2.7 -2.6 -2.35 -2.25 -2.0 -1.95 -2.0 -1.6 -2.0 -1.25 -2.85 -0.65 -3.75 0.0 -4.45 0.0 -4.75 0.0 -4.95 -0.6 -5.1 -1.0 -5.1 -1.15 -5.1 -1.85 -4.9 -2.15 -4.8 -2.3 -4.5 -2.5 -4.2 -2.65 -4.05 -2.95 -3.85 -3.35 -3.85 -4.3 -3.85 -6.4 -3.0 -8.6 -2.65 -9.45 -2.35 -9.65" fill="#ffffff" fill-opacity="0.7529412" fill-rule="evenodd" stroke="none"/>
  </g>
</svg>
