<?xml version="1.0" encoding="UTF-8" standalone="no"?>
<svg xmlns:ffdec="https://www.free-decompiler.com/flash" xmlns:xlink="http://www.w3.org/1999/xlink" ffdec:objectType="shape" height="36.6px" width="33.3px" xmlns="http://www.w3.org/2000/svg">
  <g transform="matrix(1.0, 0.0, 0.0, 1.0, 11.55, 35.5)">
    <path d="M0.6 -32.95 Q0.6 -32.7 0.4 -32.3 0.25 -31.95 0.1 -31.95 -0.35 -31.95 -0.35 -32.45 -0.35 -32.7 -0.25 -33.0 L-0.3 -33.5 -0.3 -33.95 -0.35 -33.9 -0.4 -33.9 Q-0.5 -34.2 -0.6 -34.45 L-0.65 -34.6 -0.75 -34.6 -0.95 -34.65 Q-1.2 -34.65 -1.45 -34.2 L-1.65 -33.8 Q-2.05 -32.95 -2.3 -32.95 L-2.65 -32.75 -2.8 -32.6 -3.05 -32.65 -3.25 -32.6 Q-3.45 -32.6 -3.7 -32.8 L-4.3 -32.8 -4.35 -32.7 -4.55 -32.35 -4.65 -32.45 -4.7 -32.25 Q-4.8 -31.55 -4.85 -31.45 L-4.95 -31.45 Q-5.0 -31.45 -5.0 -31.65 -4.7 -33.6 -4.35 -33.6 L-4.15 -33.55 -3.85 -33.55 -3.5 -33.3 Q-3.15 -33.05 -3.05 -33.05 L-2.95 -33.05 Q-2.5 -33.25 -2.1 -34.05 L-1.7 -34.8 Q-1.5 -35.2 -1.35 -35.25 L-1.3 -35.35 -1.2 -35.35 Q-0.5 -35.7 -0.3 -35.1 -0.2 -34.8 -0.1 -33.35 0.1 -33.15 0.4 -33.1 0.6 -33.1 0.6 -32.95 M3.15 -33.05 L3.0 -33.05 3.0 -33.1 2.95 -33.15 2.95 -33.3 Q2.95 -33.65 3.25 -33.75 L3.9 -34.05 Q4.15 -34.15 4.35 -34.15 4.65 -34.1 4.8 -33.65 L5.0 -32.55 Q5.1 -31.9 5.25 -31.7 5.35 -31.7 5.35 -31.6 5.35 -31.4 5.3 -31.25 5.25 -31.1 5.1 -30.8 L5.05 -30.8 Q5.05 -30.85 5.15 -31.1 L5.25 -31.4 Q5.25 -31.65 5.2 -31.7 L5.0 -31.7 Q4.7 -31.7 4.55 -32.3 L4.45 -32.95 Q4.35 -33.5 4.05 -33.5 L3.6 -33.25 Q3.2 -33.05 3.15 -33.05 M7.15 -34.25 L7.1 -34.3 7.1 -34.5 Q7.1 -34.9 7.25 -35.15 7.4 -35.4 7.65 -35.35 7.9 -35.35 8.05 -35.1 8.2 -34.9 8.2 -34.5 8.25 -34.4 8.25 -34.2 L8.25 -34.1 Q8.35 -33.95 8.55 -33.95 L8.95 -34.1 Q9.35 -34.1 9.4 -33.9 9.5 -33.65 9.65 -33.65 L9.75 -33.7 9.85 -33.85 9.85 -33.9 Q9.85 -34.7 10.2 -35.05 10.45 -35.3 10.9 -35.15 11.05 -35.15 11.2 -35.0 11.45 -34.85 11.65 -34.55 12.0 -34.1 12.0 -33.6 12.0 -33.5 12.15 -33.2 12.35 -32.9 12.35 -32.75 12.35 -32.7 12.2 -32.5 12.1 -32.25 12.1 -32.1 L12.3 -31.9 12.6 -31.9 12.75 -31.95 13.05 -32.0 Q13.35 -32.0 13.5 -31.7 L13.5 -31.4 13.6 -31.15 Q13.6 -30.9 13.45 -30.65 L13.4 -30.55 Q13.3 -30.35 13.05 -30.2 L13.0 -30.25 13.05 -30.4 13.0 -30.4 13.15 -30.65 Q13.25 -30.9 13.25 -31.05 13.25 -31.2 13.2 -31.25 L13.15 -31.4 12.35 -31.3 Q11.85 -31.3 11.65 -31.5 11.5 -31.65 11.5 -31.9 11.5 -32.0 11.65 -32.25 11.75 -32.5 11.75 -32.6 11.75 -32.85 11.5 -33.65 L11.15 -34.5 Q10.75 -34.25 10.45 -33.75 10.2 -33.25 10.15 -33.25 L9.9 -33.35 9.6 -33.45 9.65 -33.55 9.6 -33.6 9.6 -33.55 Q9.25 -33.6 9.05 -33.35 8.9 -33.05 8.6 -33.05 8.25 -33.05 8.15 -33.25 8.1 -33.3 8.1 -33.5 L8.15 -33.7 8.1 -33.75 8.1 -33.7 Q8.05 -33.75 8.05 -33.9 L8.05 -34.2 7.85 -34.25 7.9 -34.15 7.9 -34.05 Q7.9 -34.0 7.8 -34.0 7.4 -34.0 7.25 -34.15 7.25 -34.2 7.2 -34.35 L7.15 -34.25 M9.1 -33.9 L9.45 -33.7 Q9.25 -33.9 9.1 -33.9 M12.05 -32.7 L12.05 -32.55 12.1 -32.7 12.05 -33.05 12.05 -32.7 M16.65 -26.9 L16.95 -26.8 17.55 -26.85 Q17.95 -26.45 18.05 -25.85 L18.05 -24.75 Q18.05 -24.2 18.6 -24.0 19.15 -23.85 19.15 -23.3 19.15 -23.0 19.05 -22.75 18.95 -22.25 18.6 -22.25 L18.55 -22.15 18.9 -22.15 19.05 -22.0 19.15 -21.75 19.1 -21.65 Q19.05 -21.55 18.95 -21.55 L18.75 -21.6 18.35 -21.65 18.25 -21.75 Q18.2 -21.8 18.2 -21.95 18.2 -22.3 18.55 -22.55 18.85 -22.75 18.85 -23.15 18.85 -23.4 18.6 -23.5 L18.15 -23.6 Q17.4 -23.65 17.4 -24.35 17.4 -24.85 17.6 -25.4 17.85 -25.95 17.85 -26.05 17.85 -26.25 17.55 -26.5 17.4 -26.65 17.25 -26.65 L17.35 -26.6 Q16.55 -26.45 16.4 -26.2 16.2 -25.7 15.65 -25.4 L15.2 -25.4 Q15.0 -25.5 14.55 -26.2 L14.35 -26.6 14.3 -26.5 Q14.25 -26.35 14.05 -26.3 L13.9 -26.4 Q13.85 -26.5 13.85 -26.65 13.85 -27.4 14.3 -27.2 L14.35 -27.25 14.7 -27.2 Q14.95 -27.15 14.95 -26.8 15.0 -26.45 14.85 -26.25 L15.05 -26.25 15.3 -26.2 Q15.5 -26.2 16.1 -26.55 L16.65 -26.9 M14.7 -26.85 L14.8 -26.75 14.7 -26.95 Q14.65 -27.1 14.45 -27.05 14.6 -26.95 14.7 -26.85 M17.15 -20.45 Q17.95 -20.4 17.95 -19.65 17.95 -18.7 16.35 -17.85 L16.95 -18.45 Q17.5 -19.05 17.5 -19.15 17.5 -19.35 17.1 -19.55 16.75 -19.75 16.75 -19.95 16.75 -20.3 16.8 -20.45 16.85 -20.9 17.0 -21.05 L17.15 -21.0 Q17.2 -20.95 17.15 -20.9 L17.1 -20.85 Q17.1 -20.65 17.15 -20.45 M5.0 -25.15 Q5.0 -24.6 4.7 -24.6 4.45 -24.6 4.35 -25.0 4.3 -25.2 4.3 -25.4 4.3 -25.65 4.45 -26.05 4.65 -26.4 4.7 -26.45 L4.7 -26.15 Q4.7 -25.9 4.85 -25.55 L5.0 -25.15 M5.8 -27.5 L6.05 -27.2 6.0 -27.15 Q5.7 -27.3 5.3 -27.0 4.9 -26.65 4.65 -26.55 L4.6 -26.5 4.6 -26.7 Q4.6 -26.9 4.95 -27.2 L5.4 -27.55 5.8 -27.5 M8.05 -27.65 L7.75 -27.35 7.7 -27.4 7.95 -27.8 Q8.2 -28.1 8.45 -28.05 L8.05 -27.65 M0.95 -29.05 Q0.95 -29.65 1.35 -29.5 L1.75 -29.3 Q2.0 -29.2 2.15 -29.2 L2.15 -29.15 Q1.9 -28.95 1.55 -28.95 1.15 -28.9 1.0 -28.8 L0.95 -28.85 0.95 -29.05 M2.6 -20.55 L2.3 -20.25 Q2.05 -19.9 1.95 -19.85 L1.9 -20.0 Q1.8 -20.3 2.05 -20.65 2.35 -21.0 2.75 -20.9 2.75 -20.75 2.8 -20.65 L2.75 -20.6 2.6 -20.55 M2.1 -19.25 Q2.85 -19.85 3.05 -20.35 3.45 -21.4 3.65 -21.7 4.25 -22.45 5.3 -22.5 5.65 -22.3 5.7 -21.95 5.75 -21.7 5.65 -21.35 L5.7 -21.25 6.15 -21.3 Q6.3 -21.4 6.45 -21.7 6.6 -22.0 6.7 -22.0 7.0 -22.0 7.6 -21.35 L8.2 -20.7 Q8.45 -20.25 8.55 -19.9 L8.55 -18.4 Q8.55 -17.8 8.25 -17.8 7.9 -17.8 7.7 -18.15 7.6 -18.35 7.45 -18.9 7.1 -20.05 5.65 -20.05 4.15 -20.05 3.0 -19.25 2.0 -18.35 1.65 -18.15 L1.3 -18.15 Q1.2 -18.35 1.15 -18.4 1.3 -18.65 2.1 -19.25 M9.55 -3.35 L9.8 -2.95 Q10.05 -2.45 9.65 -2.15 L9.65 -2.05 Q9.65 -2.0 9.8 -2.0 10.15 -2.0 10.4 -2.35 L10.7 -2.75 10.8 -2.8 Q10.85 -2.8 10.85 -2.65 L10.85 -2.55 Q10.9 -2.75 10.9 -2.45 10.9 -2.2 10.0 -1.3 9.9 -1.2 9.05 -1.05 L8.0 -0.85 Q7.75 -0.85 7.7 -1.15 7.65 -1.35 7.65 -1.5 7.65 -2.1 7.7 -2.4 L7.5 -2.65 Q7.3 -2.85 7.3 -3.0 7.3 -3.15 7.6 -3.45 L8.4 -4.15 Q9.7 -5.3 10.35 -6.45 10.55 -6.85 10.7 -7.45 10.9 -8.1 11.0 -8.35 11.2 -8.7 11.4 -9.25 11.65 -9.9 11.65 -10.1 11.65 -10.95 10.7 -13.55 10.7 -13.85 11.0 -13.75 11.35 -13.6 11.7 -13.1 12.75 -11.9 12.75 -10.4 12.75 -9.05 11.1 -6.35 L11.1 -6.35 Q11.85 -6.65 13.15 -6.25 L13.15 -6.1 Q13.1 -6.0 13.0 -6.0 L12.7 -6.2 Q12.45 -6.45 12.3 -6.45 11.75 -6.45 11.4 -6.15 11.15 -5.95 11.1 -5.8 L11.5 -6.15 11.05 -5.5 10.9 -5.1 Q10.75 -4.75 11.05 -4.5 L10.85 -4.3 Q10.75 -4.2 10.6 -4.2 10.4 -4.2 10.35 -4.55 10.3 -4.75 10.35 -5.0 L10.35 -5.25 9.4 -3.8 Q9.4 -3.65 9.55 -3.35 M18.7 -14.4 Q19.4 -14.55 19.55 -14.3 L19.65 -14.15 Q19.7 -14.05 19.85 -14.05 L20.45 -14.15 21.1 -14.3 Q21.45 -14.3 21.65 -13.8 21.75 -13.55 21.75 -13.35 21.75 -12.85 21.6 -12.6 21.5 -12.5 21.25 -12.4 21.0 -12.35 20.95 -12.25 20.8 -12.05 20.8 -11.6 20.8 -11.35 20.6 -11.1 20.45 -10.85 20.2 -10.85 20.0 -10.85 19.95 -11.05 19.85 -11.15 19.85 -11.25 L20.05 -11.7 Q20.2 -12.15 20.2 -12.35 20.2 -12.95 19.3 -13.4 18.4 -13.7 18.35 -13.75 18.15 -13.95 18.2 -14.7 18.25 -15.3 17.8 -15.3 17.6 -15.3 17.4 -15.1 L17.2 -14.8 17.15 -14.9 17.15 -15.15 17.35 -15.35 Q17.5 -15.55 17.6 -15.6 L17.95 -15.6 Q18.1 -15.3 18.4 -14.95 18.6 -14.7 18.7 -14.4 M18.35 -6.75 L17.75 -7.4 Q17.95 -8.0 18.6 -7.55 19.25 -7.15 19.25 -6.75 19.25 -6.6 19.15 -6.45 19.1 -6.25 19.1 -6.15 19.1 -5.65 19.3 -5.55 19.5 -5.4 20.3 -5.4 20.75 -5.4 20.95 -5.05 21.05 -4.8 21.05 -4.55 21.05 -4.2 20.85 -4.0 20.65 -3.85 20.15 -3.75 18.45 -3.5 17.0 -3.1 L16.75 -3.1 16.6 -3.05 Q16.45 -2.9 16.35 -2.9 L16.15 -2.95 16.05 -3.05 16.05 -3.15 Q16.25 -3.55 17.1 -3.85 L17.6 -4.0 Q18.15 -4.6 18.55 -4.7 L18.65 -4.7 Q18.3 -4.9 18.2 -5.1 18.15 -5.15 18.15 -5.45 18.15 -5.75 18.3 -5.95 18.5 -6.2 18.5 -6.4 18.5 -6.6 18.35 -6.75 M16.55 -5.6 Q16.35 -4.2 14.6 -3.95 L14.55 -3.9 14.55 -4.1 Q14.55 -4.35 14.8 -4.4 15.15 -4.45 15.35 -4.7 L15.7 -5.1 15.9 -5.05 Q16.05 -5.05 16.2 -5.3 16.4 -5.6 16.55 -5.6 M17.9 -3.65 L17.8 -3.6 Q17.95 -3.65 17.9 -3.65 M-0.9 -34.9 L-0.8 -34.95 -0.95 -34.95 -0.9 -34.9 M-0.7 -34.7 L-0.7 -34.7 M-1.5 -30.9 L-1.7 -30.6 -1.85 -30.65 Q-2.1 -30.65 -2.3 -30.55 -2.4 -30.45 -2.5 -30.3 L-2.8 -30.3 Q-2.8 -30.35 -2.8 -30.55 -2.8 -30.9 -2.5 -30.95 L-1.55 -31.0 -1.5 -30.9 M-1.6 -30.2 Q-1.6 -30.15 -1.75 -30.15 -1.85 -30.15 -2.0 -30.3 -2.15 -30.4 -2.25 -30.4 -2.1 -30.6 -1.95 -30.65 -1.7 -30.7 -1.6 -30.3 L-1.6 -30.2 M-3.75 -26.65 Q-3.9 -26.35 -4.2 -26.35 L-4.7 -26.45 Q-4.95 -26.45 -5.4 -25.5 L-5.95 -24.45 Q-6.5 -23.95 -6.75 -23.5 -6.95 -23.05 -6.95 -22.55 -6.95 -22.1 -6.9 -21.95 -6.8 -21.6 -6.35 -21.55 L-6.5 -21.5 -6.75 -21.45 Q-7.0 -21.45 -7.0 -22.0 -7.05 -22.25 -7.05 -22.55 -7.05 -22.95 -6.9 -23.2 -6.8 -23.45 -6.8 -24.2 -6.8 -25.0 -6.45 -25.1 L-5.8 -25.15 Q-5.4 -25.35 -5.45 -25.85 -5.5 -26.5 -5.4 -26.75 -5.15 -27.2 -4.95 -27.2 -4.8 -27.2 -4.6 -26.95 L-4.25 -26.6 Q-4.0 -26.45 -3.75 -26.65 M-5.15 -22.45 Q-5.25 -22.15 -5.3 -22.1 L-5.35 -22.05 Q-5.3 -22.4 -5.1 -22.8 -4.85 -23.25 -4.6 -23.5 -3.85 -24.15 -3.85 -22.75 -3.85 -22.6 -3.95 -22.5 -4.1 -22.35 -4.35 -22.4 L-4.3 -22.05 -4.35 -21.45 -4.45 -21.45 Q-4.45 -21.65 -4.65 -22.05 -4.85 -22.45 -4.85 -22.75 -5.1 -22.7 -5.15 -22.45 M-8.7 -20.05 Q-8.5 -19.8 -8.5 -19.65 -8.5 -19.6 -8.65 -19.4 -8.75 -19.15 -8.8 -19.15 -8.9 -19.15 -9.05 -19.25 L-9.3 -19.35 Q-9.4 -19.35 -9.45 -19.25 -9.5 -19.15 -9.6 -19.15 L-9.8 -19.2 -9.85 -19.2 Q-9.95 -18.8 -10.1 -18.65 L-10.3 -18.5 Q-10.35 -18.4 -10.35 -18.1 -10.35 -18.05 -10.6 -17.8 -10.9 -17.6 -11.1 -17.65 -11.1 -17.45 -11.05 -17.25 L-11.1 -17.1 Q-11.15 -17.05 -11.3 -17.05 -11.45 -17.05 -11.5 -17.25 L-11.55 -17.5 Q-11.55 -18.05 -11.05 -18.25 -10.5 -18.5 -10.3 -19.1 L-10.2 -19.55 Q-10.1 -19.9 -10.0 -20.1 -9.8 -20.45 -9.45 -20.3 -9.2 -20.4 -8.95 -20.3 L-8.7 -20.05 M-0.45 -22.45 Q-0.4 -22.4 -0.4 -22.25 -0.4 -22.05 -0.65 -21.4 L-0.7 -21.4 -0.8 -21.8 -0.65 -22.25 Q-0.6 -22.5 -0.5 -22.55 L-0.45 -22.45 M-4.35 -21.1 L-4.35 -20.3 -4.5 -20.2 -4.55 -20.35 -4.6 -20.65 -4.6 -20.95 Q-4.55 -21.1 -4.4 -21.2 L-4.35 -21.1 M-10.25 -15.2 Q-10.3 -15.3 -10.3 -15.4 -10.3 -15.75 -10.15 -15.9 -10.0 -16.0 -9.45 -16.05 L-9.4 -16.0 Q-9.35 -16.0 -9.35 -15.8 -9.35 -15.6 -9.6 -15.3 -9.85 -15.0 -10.0 -15.0 -10.2 -15.0 -10.25 -15.2 M-1.15 -13.45 Q-2.45 -12.25 -3.05 -11.4 -3.9 -10.2 -3.9 -9.15 -3.9 -9.0 -4.1 -7.9 -4.35 -6.75 -4.35 -5.85 -4.35 -3.9 -3.25 -2.55 L-2.5 -1.65 Q-2.15 -1.2 -2.15 -0.8 -2.15 -0.15 -2.65 0.4 -3.35 1.1 -4.5 1.1 -5.4 1.1 -6.1 0.4 -6.7 -0.15 -6.7 -0.55 -6.4 -1.2 -6.1 -1.9 -5.5 -3.35 -5.5 -4.2 L-5.55 -5.35 -6.05 -5.35 Q-7.1 -5.35 -7.25 -6.05 -7.25 -6.25 -7.25 -6.65 -7.2 -7.0 -7.25 -7.1 L-7.25 -7.75 Q-7.25 -7.85 -7.15 -7.85 -6.8 -7.85 -6.65 -7.6 L-6.5 -7.0 Q-6.25 -6.05 -5.25 -5.8 -5.05 -6.25 -5.05 -6.7 -5.05 -7.3 -5.35 -7.9 -5.65 -8.45 -5.65 -8.7 -5.65 -8.8 -5.1 -10.0 -4.6 -11.2 -4.55 -11.7 -4.45 -13.0 -3.5 -13.05 -2.6 -13.05 -1.95 -13.35 -1.3 -13.7 -1.25 -13.7 -1.2 -13.55 -1.15 -13.45" fill="#ccfeff" fill-opacity="0.6" fill-rule="evenodd" stroke="none"/>
    <path d="M8.9 -1.8 Q8.8 -1.65 8.55 -1.65 8.25 -1.65 8.15 -1.9 L8.15 -2.2 Q8.15 -2.7 8.5 -2.7 8.9 -2.75 9.15 -2.1 L8.9 -1.8 M-5.55 -0.7 Q-5.55 -1.15 -5.2 -2.55 -4.8 -4.0 -4.7 -3.25 -4.35 -3.05 -4.3 -2.6 -4.3 -2.0 -4.2 -1.7 L-4.1 -1.35 Q-4.1 -1.15 -4.1 -0.95 -3.85 -0.85 -3.7 -0.65 -3.55 -0.5 -3.55 -0.4 -3.55 -0.1 -3.75 -0.05 L-4.35 0.0 Q-4.95 0.0 -5.3 -0.25 -5.55 -0.45 -5.55 -0.7" fill="#ffffff" fill-opacity="0.7529412" fill-rule="evenodd" stroke="none"/>
  </g>
</svg>
