<?xml version="1.0" encoding="UTF-8" standalone="no"?>
<svg xmlns:ffdec="https://www.free-decompiler.com/flash" xmlns:xlink="http://www.w3.org/1999/xlink" ffdec:objectType="shape" height="2.0px" width="10.3px" xmlns="http://www.w3.org/2000/svg">
  <g transform="matrix(1.0, 0.0, 0.0, 1.0, -23.35, 2.15)">
    <path d="M30.65 -0.15 Q30.35 -0.75 29.95 -1.1 L29.05 -1.2 28.05 -1.3 Q26.05 -1.3 25.15 -0.75 L24.6 -0.35 24.35 -0.15 24.3 -0.15 23.35 -0.15 24.2 -0.7 Q24.4 -1.05 24.95 -1.4 25.5 -1.75 26.2 -1.95 L26.35 -2.05 26.3 -2.0 Q27.05 -2.15 27.95 -2.15 L29.7 -2.0 30.0 -2.05 31.6 -1.6 Q32.5 -1.3 33.0 -0.8 33.4 -0.4 33.65 -0.15 L32.0 -0.15 31.9 -0.25 31.2 -0.65 31.4 -0.15 30.65 -0.15 M31.65 -0.15 L31.5 -0.15 31.5 -0.3 31.6 -0.3 31.65 -0.15" fill="#1e1821" fill-rule="evenodd" stroke="none"/>
    <path d="M24.3 -0.15 L24.35 -0.15 24.6 -0.35 25.15 -0.75 Q26.05 -1.3 28.05 -1.3 L29.05 -1.2 29.95 -1.1 Q30.35 -0.75 30.65 -0.15 L24.3 -0.15" fill="#94947d" fill-rule="evenodd" stroke="none"/>
    <path d="M31.4 -0.15 L31.2 -0.65 31.9 -0.25 32.0 -0.15 31.65 -0.15 31.6 -0.3 31.5 -0.3 31.5 -0.15 31.4 -0.15" fill="#917299" fill-rule="evenodd" stroke="none"/>
  </g>
</svg>
