<?xml version="1.0" encoding="UTF-8" standalone="no"?>
<svg xmlns:ffdec="https://www.free-decompiler.com/flash" xmlns:xlink="http://www.w3.org/1999/xlink" ffdec:objectType="shape" height="4.25px" width="4.0px" xmlns="http://www.w3.org/2000/svg">
  <g transform="matrix(1.0, 0.0, 0.0, 1.0, 0.35, 22.7)">
    <path d="M3.15 -22.0 Q3.65 -21.4 3.65 -20.65 3.65 -20.15 3.3 -19.5 2.75 -18.45 1.7 -18.45 0.3 -18.45 -0.15 -19.4 -0.35 -19.8 -0.35 -20.45 -0.35 -21.15 -0.15 -21.5 L0.85 -22.6 Q2.4 -22.95 3.15 -22.0" fill="#59a5ff" fill-opacity="0.5019608" fill-rule="evenodd" stroke="none"/>
    <path d="M1.65 -21.85 Q2.05 -21.95 2.35 -21.65 2.65 -21.35 2.65 -20.8 2.65 -20.4 2.35 -19.95 2.0 -19.4 1.45 -19.4 0.85 -19.4 0.7 -19.85 0.6 -20.1 0.65 -20.35 0.65 -21.0 0.95 -21.45 1.25 -21.8 1.65 -21.85" fill="#8cc1ff" fill-opacity="0.7529412" fill-rule="evenodd" stroke="none"/>
    <path d="M2.2 -21.3 Q2.4 -21.15 2.4 -20.8 2.4 -20.45 2.2 -20.15 2.0 -19.75 1.6 -19.75 1.1 -19.75 1.0 -20.05 0.95 -20.25 1.0 -20.45 1.0 -21.3 1.7 -21.4 2.0 -21.45 2.2 -21.3" fill="#bfdcff" fill-opacity="0.7529412" fill-rule="evenodd" stroke="none"/>
    <path d="M2.1 -20.95 L2.15 -20.65 Q2.15 -20.4 1.95 -20.25 1.8 -20.1 1.65 -20.1 1.3 -20.1 1.25 -20.3 1.2 -20.4 1.25 -20.55 1.25 -21.3 2.1 -21.05 L2.1 -20.95" fill="#ffffff" fill-rule="evenodd" stroke="none"/>
  </g>
</svg>
