<?xml version="1.0" encoding="UTF-8" standalone="no"?>
<svg xmlns:ffdec="https://www.free-decompiler.com/flash" xmlns:xlink="http://www.w3.org/1999/xlink" ffdec:objectType="shape" height="35.3px" width="38.95px" xmlns="http://www.w3.org/2000/svg">
  <g transform="matrix(1.0, 0.0, 0.0, 1.0, 19.6, 40.45)">
    <path d="M4.25 -40.45 L4.35 -40.45 Q4.45 -40.4 4.55 -40.2 4.6 -40.05 4.65 -40.0 L4.5 -39.9 Q4.15 -40.2 4.15 -40.25 4.15 -40.45 4.25 -40.45 M1.5 -36.05 Q1.45 -35.95 1.25 -35.9 0.85 -36.0 0.7 -36.25 0.55 -36.55 0.15 -36.75 0.6 -36.95 0.85 -36.6 1.25 -36.1 1.5 -36.05 M5.05 -36.4 Q5.0 -36.2 4.85 -36.15 L4.75 -36.2 4.65 -36.3 Q4.7 -36.6 4.9 -36.6 L5.05 -36.4 M5.8 -30.05 Q5.9 -29.8 5.9 -29.6 L5.85 -29.5 Q5.7 -29.65 5.3 -30.4 L5.35 -30.45 Q5.65 -30.4 5.8 -30.05 M3.55 -30.9 L3.5 -31.05 Q3.4 -31.15 3.4 -31.2 3.6 -31.2 4.15 -31.05 4.7 -30.85 5.05 -30.65 4.3 -30.8 3.55 -30.9 M11.5 -31.95 L10.7 -31.6 10.6 -31.6 Q10.5 -31.6 10.5 -31.75 10.5 -32.0 10.75 -32.05 L11.45 -32.05 11.5 -31.95 M6.35 -28.95 Q6.4 -28.7 7.1 -27.75 6.85 -27.7 6.55 -28.2 6.25 -28.65 6.25 -28.95 L6.35 -28.95 M14.65 -34.65 Q14.75 -34.75 14.85 -34.8 15.05 -34.7 15.05 -34.55 L15.05 -34.45 Q15.0 -34.35 14.85 -34.3 L14.6 -34.45 Q14.6 -34.55 14.65 -34.65 M12.5 -35.2 Q12.8 -35.4 12.9 -35.4 L12.7 -35.0 12.55 -34.6 12.55 -34.55 12.35 -34.55 Q12.15 -34.55 12.1 -34.6 12.05 -34.6 12.05 -34.7 12.2 -34.95 12.5 -35.2 M18.9 -28.3 L18.95 -27.95 Q18.9 -27.8 18.75 -27.75 L18.55 -27.75 Q18.5 -27.8 18.5 -27.95 18.5 -28.15 18.5 -28.25 L18.6 -28.3 18.9 -28.3 M15.3 -22.4 L15.3 -22.35 15.25 -22.3 15.05 -22.3 Q14.8 -22.3 14.5 -22.55 14.25 -22.85 14.2 -23.2 14.5 -23.2 14.85 -23.05 15.3 -22.9 15.3 -22.65 L15.3 -22.4 M14.8 -18.65 L14.75 -16.85 14.8 -16.75 14.8 -16.55 Q14.8 -16.4 14.7 -16.15 L14.7 -15.75 14.6 -15.5 14.55 -15.5 14.5 -15.75 Q14.35 -15.5 14.3 -15.45 L14.45 -15.9 Q14.35 -16.2 14.35 -16.35 14.35 -16.75 14.45 -17.55 L14.65 -19.0 14.75 -19.0 14.8 -18.9 14.8 -18.65 M13.15 -20.95 Q13.2 -20.35 13.05 -19.8 12.85 -19.1 12.45 -18.65 L12.4 -18.7 12.3 -18.75 Q12.55 -19.15 12.7 -20.0 12.8 -20.6 13.15 -20.95 M19.35 -17.6 L19.35 -17.4 Q19.35 -17.1 18.75 -16.8 L18.65 -16.85 18.65 -17.05 Q18.65 -17.15 19.2 -17.6 L19.35 -17.6 M8.7 -26.0 Q8.45 -26.25 8.45 -26.3 L8.75 -26.05 9.15 -25.7 9.15 -25.6 Q8.95 -25.7 8.7 -26.0 M10.65 -22.6 L10.7 -22.15 Q10.75 -21.9 10.8 -21.75 L10.75 -21.5 Q10.5 -21.7 10.5 -22.0 10.5 -22.3 10.35 -22.45 10.4 -22.5 10.5 -22.55 L10.65 -22.6 M5.0 -24.8 Q6.65 -23.55 6.65 -21.85 6.65 -19.65 5.05 -17.7 3.55 -15.8 1.95 -15.8 -1.75 -15.8 -3.05 -18.2 -3.65 -19.25 -3.65 -20.9 -3.65 -23.55 -2.05 -24.9 -0.65 -26.1 1.5 -26.0 3.5 -25.9 5.0 -24.8 M11.5 -9.7 L11.45 -9.9 11.45 -10.65 Q11.7 -10.65 11.75 -10.55 11.65 -10.3 11.6 -9.6 L11.55 -9.55 Q11.5 -9.6 11.5 -9.7 M3.9 -5.15 Q3.6 -5.25 3.4 -5.45 3.1 -5.7 3.1 -5.9 L3.2 -6.05 Q3.45 -5.95 3.7 -5.7 4.0 -5.4 3.95 -5.2 L3.9 -5.15 M-15.5 -32.3 Q-15.9 -32.15 -16.35 -32.15 -16.75 -32.15 -16.8 -32.3 -16.7 -32.5 -16.3 -32.5 -15.9 -32.5 -15.5 -32.35 L-15.5 -32.3 M-6.9 -37.75 Q-7.1 -37.4 -7.0 -37.2 L-7.2 -37.2 -7.3 -37.35 -7.3 -37.65 Q-7.3 -37.85 -7.2 -37.9 L-7.0 -37.9 -6.9 -37.75 M-7.95 -32.85 Q-8.4 -33.05 -8.8 -33.05 L-8.85 -33.2 -8.65 -33.35 -8.5 -33.5 -7.95 -33.45 -7.6 -33.05 Q-7.5 -32.95 -7.15 -32.75 L-7.05 -32.65 -7.25 -32.65 Q-7.5 -32.65 -7.95 -32.85 M-8.95 -29.35 Q-9.0 -29.1 -9.1 -28.85 -9.25 -28.5 -9.4 -28.35 L-9.7 -28.35 Q-9.7 -28.65 -9.45 -29.0 -9.2 -29.3 -8.95 -29.35 M-4.05 -34.8 L-4.2 -34.3 -4.35 -33.75 -4.35 -33.7 -4.55 -33.7 Q-4.75 -33.7 -4.8 -33.75 L-4.85 -33.85 -4.6 -34.45 Q-4.4 -34.9 -4.1 -34.95 L-4.05 -34.8 M-9.5 -26.9 L-9.4 -26.25 -9.5 -26.1 Q-9.55 -26.05 -9.7 -26.0 L-9.8 -26.1 -9.8 -26.4 -9.75 -26.9 -9.65 -27.5 -9.55 -27.5 -9.5 -26.9 M-8.5 -18.45 Q-8.6 -17.9 -8.35 -17.35 -8.6 -17.6 -8.7 -18.25 -8.8 -18.75 -8.8 -19.05 -8.8 -19.3 -8.65 -19.5 -8.45 -19.75 -8.1 -19.75 L-8.05 -19.6 Q-8.45 -19.0 -8.5 -18.45 M-10.65 -16.7 L-10.6 -16.7 Q-10.55 -16.65 -10.55 -16.5 -10.55 -16.25 -10.8 -15.85 L-11.1 -15.2 -11.25 -15.15 -11.05 -15.9 Q-10.9 -16.4 -10.9 -16.7 L-10.65 -16.7 M-7.45 -15.3 Q-7.15 -14.75 -6.85 -14.5 L-6.9 -14.45 Q-7.25 -14.6 -7.55 -15.1 -7.7 -15.4 -7.95 -16.05 L-7.85 -16.05 -7.45 -15.3 M-13.3 -25.8 Q-13.15 -26.2 -12.95 -26.3 L-13.25 -25.3 Q-13.45 -24.6 -13.2 -24.2 L-13.25 -24.15 Q-13.3 -24.15 -13.45 -24.15 L-13.45 -25.4 Q-13.45 -25.5 -13.3 -25.8 M-13.1 -23.75 Q-12.75 -23.15 -12.2 -22.3 -11.8 -21.7 -11.8 -21.6 -11.8 -21.2 -12.15 -21.05 -12.4 -21.2 -12.65 -21.8 -12.9 -22.35 -12.9 -22.6 -12.9 -22.9 -13.2 -23.75 L-13.1 -23.75 M-19.35 -21.0 L-19.25 -20.75 Q-19.25 -20.65 -19.35 -20.6 L-19.5 -20.65 Q-19.6 -20.7 -19.6 -20.9 -19.6 -21.2 -19.55 -21.2 L-19.45 -21.2 -19.35 -21.0 M-15.9 -17.85 Q-16.0 -17.45 -16.15 -17.25 L-16.2 -17.25 -16.25 -17.2 Q-16.25 -17.25 -16.25 -17.4 -16.1 -18.3 -15.75 -18.4 -15.75 -18.25 -15.9 -17.85 M-16.25 -14.95 L-16.3 -14.9 -16.3 -15.1 -16.25 -15.3 Q-16.1 -15.3 -15.75 -15.1 -15.45 -14.95 -15.4 -14.8 L-15.45 -14.65 Q-15.45 -14.6 -15.65 -14.6 -15.8 -14.6 -16.0 -14.75 L-16.25 -14.95 M-5.05 -11.2 Q-4.9 -11.3 -4.65 -11.65 -4.4 -11.9 -4.05 -11.9 L-3.95 -11.8 Q-4.3 -11.5 -4.65 -11.3 -5.3 -10.85 -6.05 -10.85 -6.4 -10.85 -7.15 -11.45 -7.0 -11.45 -6.6 -11.25 -6.25 -11.05 -6.05 -11.05 L-5.75 -11.1 -5.05 -11.2 M-3.2 -11.65 L-3.2 -11.6 -3.35 -11.6 Q-3.55 -11.6 -3.7 -11.7 -3.8 -11.75 -3.8 -11.85 L-3.35 -11.9 -3.2 -11.65 M-11.1 -7.3 L-10.75 -7.3 Q-10.4 -7.2 -10.4 -7.15 -10.55 -7.05 -10.95 -7.05 L-11.2 -7.1 -11.2 -7.3 -11.1 -7.3 M-7.35 -7.65 L-7.25 -7.55 Q-7.25 -7.45 -7.3 -7.35 -7.45 -7.2 -7.75 -7.15 -7.75 -7.2 -7.8 -7.2 L-7.85 -7.4 Q-7.85 -7.6 -7.65 -7.65 L-7.35 -7.65" fill="#59a5ff" fill-opacity="0.5019608" fill-rule="evenodd" stroke="none"/>
    <path d="M1.25 -22.25 Q1.75 -22.2 2.15 -21.9 2.5 -21.55 2.5 -21.05 2.5 -20.7 2.35 -20.35 2.05 -19.75 1.35 -19.75 0.5 -19.75 0.2 -20.2 0.05 -20.45 0.05 -20.8 0.05 -21.55 0.4 -21.95 0.75 -22.3 1.25 -22.25" fill="#8cc1ff" fill-opacity="0.7529412" fill-rule="evenodd" stroke="none"/>
    <path d="M1.2 -21.95 Q1.55 -22.0 1.75 -21.75 2.05 -21.55 2.05 -21.1 2.05 -20.8 1.9 -20.6 1.7 -20.35 1.2 -20.35 0.6 -20.35 0.45 -20.75 0.35 -20.95 0.4 -21.15 0.4 -21.5 0.65 -21.75 0.9 -21.95 1.2 -21.95" fill="#bfdcff" fill-opacity="0.7529412" fill-rule="evenodd" stroke="none"/>
    <path d="M1.65 -20.9 L1.65 -20.85 1.55 -20.75 Q1.45 -20.7 1.25 -20.7 1.0 -20.7 0.9 -20.9 0.8 -21.05 0.8 -21.15 0.8 -21.75 1.25 -21.75 1.65 -21.75 1.65 -21.2 L1.65 -20.9" fill="#ffffff" fill-rule="evenodd" stroke="none"/>
  </g>
</svg>
