<?xml version="1.0" encoding="UTF-8" standalone="no"?>
<svg xmlns:ffdec="https://www.free-decompiler.com/flash" xmlns:xlink="http://www.w3.org/1999/xlink" ffdec:objectType="shape" height="36.3px" width="38.35px" xmlns="http://www.w3.org/2000/svg">
  <g transform="matrix(1.0, 0.0, 0.0, 1.0, 19.35, 40.9)">
    <path d="M3.9 -40.9 Q4.3 -40.65 4.4 -40.1 L4.45 -39.2 4.35 -39.15 Q4.2 -39.65 3.9 -40.0 3.75 -40.2 3.75 -40.65 L3.75 -40.85 3.9 -40.9 M2.1 -35.8 L1.8 -35.7 1.45 -35.65 Q1.2 -35.65 0.75 -36.05 0.35 -36.45 0.1 -36.45 -0.1 -36.45 -0.35 -36.3 L-0.75 -36.15 -1.05 -36.4 Q-1.15 -36.4 -1.15 -36.5 -1.15 -36.9 -0.85 -36.9 -0.6 -36.95 -0.05 -36.7 0.6 -36.4 0.95 -36.25 1.65 -35.95 2.1 -35.9 L2.1 -35.8 M5.0 -35.8 L5.0 -35.75 4.9 -35.65 Q4.8 -35.75 4.35 -36.1 3.95 -36.45 3.8 -36.45 4.25 -36.75 4.65 -36.5 5.0 -36.25 5.0 -36.05 L5.0 -35.8 M2.5 -34.05 Q2.25 -34.1 1.9 -34.3 1.4 -34.6 1.4 -35.05 1.65 -35.0 1.95 -34.65 L2.5 -34.05 M2.55 -29.35 Q5.65 -28.85 7.0 -27.3 7.45 -26.8 7.85 -26.0 L8.5 -24.75 Q9.1 -23.75 9.3 -22.3 9.4 -21.55 9.4 -19.9 9.4 -19.4 8.9 -18.35 8.35 -17.15 7.45 -16.1 5.0 -13.2 1.7 -13.2 -1.55 -13.2 -3.5 -14.55 -4.55 -15.3 -5.75 -16.75 -6.55 -17.5 -6.85 -18.9 -7.05 -19.85 -7.05 -21.2 -7.05 -22.1 -6.8 -23.25 -6.45 -24.8 -5.75 -26.05 -3.7 -29.6 0.6 -29.6 L1.35 -29.5 2.55 -29.35 M1.6 -31.05 Q4.35 -30.9 5.1 -30.35 5.35 -30.15 5.6 -29.75 5.9 -29.15 6.15 -28.9 L7.05 -27.65 Q7.6 -26.9 8.35 -26.25 9.2 -25.4 9.85 -23.55 10.45 -21.9 10.45 -20.65 L10.45 -20.1 Q10.35 -19.65 10.1 -19.45 10.2 -21.55 10.05 -22.55 9.75 -24.4 8.6 -25.5 7.9 -26.15 7.3 -27.1 L6.3 -28.6 Q4.95 -30.25 1.5 -31.0 L1.55 -31.05 1.6 -31.05 M7.1 -32.35 L7.2 -32.35 Q7.55 -32.05 8.2 -31.9 8.95 -31.7 9.25 -31.45 L10.6 -31.45 10.9 -31.75 Q11.1 -31.9 11.45 -31.9 11.75 -31.9 11.9 -31.6 11.95 -31.45 11.95 -31.2 11.95 -31.05 12.05 -30.95 L12.2 -30.75 11.4 -31.0 9.1 -31.35 Q7.9 -31.7 7.6 -31.85 7.35 -31.95 7.1 -32.35 M11.5 -29.0 Q12.0 -28.35 12.0 -28.15 L11.95 -27.5 11.9 -27.45 11.6 -28.55 Q11.3 -29.35 10.75 -29.65 L10.8 -29.7 10.8 -29.75 Q11.05 -29.6 11.5 -29.0 M11.95 -36.4 L12.05 -36.4 12.15 -34.5 Q12.15 -34.3 12.1 -34.15 L12.0 -33.95 11.9 -33.9 Q11.8 -34.05 11.75 -34.25 11.65 -34.45 11.65 -34.6 11.65 -34.7 11.8 -35.4 11.95 -36.05 11.95 -36.4 M14.5 -33.75 L14.2 -33.8 14.0 -33.95 Q14.05 -34.25 14.15 -34.3 L14.7 -34.35 Q14.7 -34.3 14.85 -33.9 14.8 -33.75 14.5 -33.75 M12.9 -29.25 Q13.0 -28.75 13.05 -28.65 L13.05 -28.55 Q12.85 -28.65 12.7 -29.15 12.6 -29.6 12.6 -29.8 L12.65 -29.8 Q12.75 -29.7 12.9 -29.25 M18.9 -25.45 L18.9 -25.2 18.95 -24.85 Q18.95 -24.75 18.7 -24.1 L18.4 -23.35 18.3 -23.3 18.65 -24.3 Q18.85 -24.95 18.8 -25.45 L18.9 -25.45 M18.05 -27.25 L17.75 -28.25 17.8 -28.5 Q18.5 -28.65 18.6 -27.85 18.55 -26.8 18.65 -26.4 L18.55 -26.35 Q18.2 -26.75 18.05 -27.25 M13.05 -27.95 L13.05 -27.75 Q13.05 -27.45 12.85 -26.75 12.6 -25.95 12.2 -25.75 L12.2 -25.9 Q12.6 -26.25 12.8 -27.05 12.95 -27.9 13.05 -28.0 L13.05 -27.95 M13.15 -24.5 Q13.4 -23.95 14.45 -22.75 15.25 -21.85 15.25 -21.15 L15.2 -20.7 15.15 -20.3 Q15.15 -20.2 15.05 -20.15 15.15 -20.9 14.2 -22.3 13.15 -23.85 13.05 -24.45 13.05 -24.5 13.15 -24.5 M12.9 -23.0 Q12.95 -22.75 12.95 -22.35 L12.95 -21.65 12.9 -21.6 12.8 -21.65 12.8 -23.0 12.9 -23.0 M12.45 -22.3 Q12.6 -21.5 12.6 -20.2 L12.65 -20.2 12.75 -20.65 12.8 -21.2 12.9 -21.2 12.95 -21.15 12.95 -20.95 12.85 -20.3 Q12.75 -19.8 12.75 -19.65 12.75 -19.1 12.35 -18.3 11.85 -17.4 11.2 -17.0 L11.0 -17.1 Q10.95 -17.1 10.95 -17.3 10.95 -17.4 11.25 -17.8 11.65 -18.35 11.9 -18.8 12.75 -20.4 12.35 -22.3 L12.45 -22.3 M12.35 -19.6 L12.5 -19.75 Q12.55 -19.9 12.55 -19.95 L12.5 -19.95 Q12.35 -19.65 12.35 -19.6 M13.5 -17.9 L13.55 -17.85 13.55 -17.7 Q13.55 -17.5 13.05 -16.55 12.6 -15.75 12.5 -15.65 L12.45 -15.7 Q12.6 -16.05 13.0 -16.8 13.35 -17.45 13.45 -17.9 L13.5 -17.9 M13.8 -14.9 Q14.05 -15.5 14.15 -17.25 14.2 -18.75 14.75 -19.35 L14.55 -17.1 Q14.35 -15.75 14.0 -14.9 L13.8 -14.9 M13.65 -14.8 Q12.9 -14.6 12.2 -14.4 10.9 -14.0 10.6 -13.45 L10.4 -13.45 Q10.7 -14.0 12.0 -14.45 L13.35 -14.9 Q13.65 -14.85 13.65 -14.8 M18.95 -17.95 Q19.0 -17.9 19.0 -17.75 19.0 -17.35 18.75 -16.85 18.5 -16.3 18.2 -16.05 L18.45 -17.0 Q18.6 -17.7 18.9 -17.9 L18.95 -17.95 M11.0 -8.25 Q11.15 -8.7 11.2 -9.8 11.35 -10.8 11.95 -11.1 11.55 -9.95 11.15 -8.25 L11.0 -8.25 M4.45 -5.7 L4.8 -5.2 Q5.05 -4.85 5.4 -4.6 4.45 -4.7 3.75 -5.25 3.05 -5.9 2.6 -6.2 L3.0 -6.2 Q4.1 -6.2 4.45 -5.7 M-17.7 -31.2 Q-17.75 -31.2 -17.75 -31.4 -17.75 -32.2 -16.45 -32.15 L-15.2 -32.05 -13.8 -32.15 Q-14.2 -31.85 -15.7 -31.55 L-17.5 -31.2 -17.7 -31.2 M-3.1 -35.5 L-3.05 -35.3 -2.9 -35.35 -2.65 -35.4 -3.6 -34.1 Q-4.2 -33.25 -4.75 -33.05 L-4.95 -33.05 Q-5.0 -33.05 -5.0 -33.2 -5.0 -33.3 -4.35 -33.95 -3.65 -34.65 -3.6 -34.75 L-3.25 -35.5 Q-3.0 -36.0 -2.9 -36.05 -2.9 -35.8 -3.1 -35.5 M-6.5 -37.5 Q-6.65 -36.9 -6.75 -36.7 L-6.9 -36.65 -7.1 -36.95 Q-7.2 -37.2 -7.2 -37.3 -7.2 -37.5 -6.9 -37.8 -6.6 -38.15 -6.3 -38.2 L-6.5 -37.5 M-8.05 -32.5 L-8.85 -32.45 -9.1 -32.15 Q-9.35 -31.9 -9.45 -31.8 L-9.8 -31.85 Q-9.1 -33.3 -8.2 -33.0 -7.9 -32.9 -7.35 -32.55 -6.8 -32.2 -6.5 -32.05 L-7.1 -32.05 -7.55 -32.25 -8.05 -32.5 M-7.4 -32.05 L-6.75 -32.0 -6.75 -31.75 Q-6.75 -31.65 -6.8 -31.6 -6.85 -31.65 -6.85 -31.9 L-7.45 -31.95 -7.45 -32.0 -7.4 -32.05 M-9.2 -28.5 L-9.55 -27.4 -9.55 -26.8 -9.25 -27.7 Q-9.1 -28.25 -9.2 -28.5 M-7.55 -29.9 Q-7.9 -29.6 -8.45 -28.5 -9.05 -27.45 -9.05 -27.05 -9.05 -26.9 -8.95 -26.55 -8.8 -26.2 -8.8 -26.05 -8.8 -25.45 -8.95 -25.15 -9.25 -24.7 -9.6 -24.05 L-9.65 -24.1 -9.45 -24.45 Q-9.35 -24.7 -9.35 -24.75 -9.35 -24.85 -9.45 -25.2 -9.6 -25.5 -9.65 -25.65 -9.65 -25.5 -9.75 -25.1 L-9.8 -24.4 -9.9 -24.4 -9.9 -25.05 Q-9.75 -25.5 -9.7 -26.35 -9.6 -27.4 -9.55 -27.7 -9.25 -29.35 -7.9 -30.1 -7.6 -30.0 -7.55 -29.9 M-10.85 -21.2 L-10.9 -21.15 -11.3 -21.05 Q-12.15 -21.05 -12.6 -22.35 -12.8 -23.0 -12.8 -23.7 -12.8 -23.85 -12.95 -24.2 -13.15 -24.55 -13.15 -24.7 -13.15 -25.2 -12.65 -26.4 L-12.1 -27.65 -12.05 -26.85 -12.2 -27.05 -12.7 -25.9 Q-12.9 -25.3 -12.9 -24.75 -12.9 -24.3 -11.85 -23.0 -10.85 -21.7 -10.85 -21.5 -10.85 -21.35 -10.85 -21.2 M-7.6 -20.75 Q-7.6 -20.6 -7.85 -19.7 -8.05 -18.8 -8.05 -17.85 -8.05 -17.15 -7.35 -15.65 -6.65 -14.2 -6.15 -13.75 L-6.2 -13.65 Q-7.15 -14.4 -7.75 -16.3 -8.3 -17.9 -8.3 -19.25 -8.3 -19.5 -8.0 -20.1 -7.7 -20.7 -7.7 -21.2 L-7.6 -21.2 Q-7.6 -21.1 -7.6 -20.75 M-10.2 -16.65 L-10.15 -16.05 -10.2 -15.4 -10.25 -15.4 -10.3 -15.95 -10.55 -15.4 Q-10.65 -15.15 -10.65 -15.0 -10.65 -14.9 -10.3 -14.2 L-9.9 -13.45 -9.95 -13.45 Q-10.2 -13.7 -10.5 -14.25 -10.8 -14.8 -10.8 -15.05 -10.8 -15.75 -10.7 -16.05 L-10.4 -17.35 -10.3 -17.35 Q-10.25 -17.1 -10.2 -16.65 M-11.8 -24.55 L-11.85 -25.5 -11.65 -24.55 -11.8 -24.55 M-19.0 -21.25 L-18.8 -20.7 -18.85 -20.65 -19.25 -20.65 Q-19.25 -21.1 -19.35 -21.25 L-19.3 -21.7 -19.2 -21.7 Q-19.1 -21.6 -19.0 -21.25 M-15.25 -18.7 L-15.2 -18.6 Q-15.15 -18.55 -15.15 -18.35 -15.15 -18.25 -15.45 -17.5 -15.75 -16.75 -15.75 -16.45 -15.75 -15.9 -15.15 -15.65 -14.6 -15.35 -14.6 -15.1 -14.6 -14.9 -14.75 -14.75 -14.9 -14.6 -15.15 -14.6 -15.65 -14.6 -15.85 -14.95 -15.9 -15.1 -15.9 -15.3 L-15.8 -16.6 -15.7 -17.85 Q-15.7 -18.05 -15.6 -18.3 -15.45 -18.6 -15.25 -18.7 M-2.35 -11.25 L-2.4 -11.2 Q-2.4 -11.15 -2.5 -11.1 -2.75 -11.1 -3.05 -11.3 -3.4 -11.5 -3.75 -11.5 L-4.45 -11.4 -5.1 -11.25 Q-6.05 -11.25 -7.55 -11.8 -8.95 -12.3 -9.2 -12.65 L-9.1 -12.65 Q-8.7 -12.35 -7.6 -12.1 -6.5 -11.85 -5.45 -11.85 -5.3 -11.85 -4.85 -11.95 L-4.25 -12.1 Q-3.15 -12.1 -2.95 -11.85 L-2.8 -11.55 Q-2.65 -11.4 -2.35 -11.25 M-11.45 -7.65 Q-11.45 -7.95 -11.45 -7.85 L-11.4 -7.85 -11.05 -7.6 Q-10.75 -7.4 -10.45 -7.55 L-10.25 -7.35 -10.45 -7.25 Q-10.7 -7.15 -10.85 -7.15 -11.35 -7.15 -11.45 -7.65 M-9.0 -7.45 L-9.05 -7.55 Q-8.6 -7.5 -8.3 -7.65 -7.9 -7.9 -7.4 -8.0 -7.15 -7.9 -7.1 -7.85 -7.75 -7.55 -8.05 -7.45 L-8.6 -7.35 -8.9 -7.35 -9.0 -7.45" fill="#59a5ff" fill-opacity="0.5019608" fill-rule="evenodd" stroke="none"/>
    <path d="M2.65 -22.45 Q3.25 -21.95 3.25 -20.95 3.25 -20.35 2.75 -19.65 2.15 -18.75 1.15 -18.75 0.1 -18.75 -0.4 -19.75 -0.65 -20.2 -0.7 -20.75 -0.7 -21.5 -0.1 -22.05 0.5 -22.6 1.3 -22.7 2.1 -22.85 2.65 -22.45" fill="#8cc1ff" fill-opacity="0.7529412" fill-rule="evenodd" stroke="none"/>
    <path d="M1.5 -21.6 Q1.9 -21.6 2.15 -21.4 2.45 -21.15 2.45 -20.75 2.45 -20.35 2.3 -20.1 2.05 -19.8 1.6 -19.8 0.85 -19.8 0.6 -20.2 0.5 -20.35 0.5 -20.7 0.5 -21.1 0.8 -21.35 1.1 -21.6 1.5 -21.6" fill="#bfdcff" fill-opacity="0.7529412" fill-rule="evenodd" stroke="none"/>
    <path d="M1.9 -20.35 Q1.7 -20.1 1.4 -20.1 1.1 -20.1 1.05 -20.2 L1.05 -20.5 Q1.05 -21.05 1.55 -21.25 2.1 -21.5 2.1 -20.95 2.1 -20.55 1.9 -20.35" fill="#ffffff" fill-rule="evenodd" stroke="none"/>
  </g>
</svg>
