<?xml version="1.0" encoding="UTF-8" standalone="no"?>
<svg xmlns:ffdec="https://www.free-decompiler.com/flash" xmlns:xlink="http://www.w3.org/1999/xlink" ffdec:objectType="shape" height="47.1px" width="46.15px" xmlns="http://www.w3.org/2000/svg">
  <g transform="matrix(1.0, 0.0, 0.0, 1.0, 23.2, 46.7)">
    <path d="M4.2 -45.95 L4.3 -45.8 Q4.45 -45.8 4.15 -45.8 L3.3 -45.9 2.5 -45.95 Q2.6 -46.15 2.7 -46.15 L4.05 -46.1 4.2 -45.95 M2.35 -43.9 Q8.6 -43.1 12.55 -40.35 14.1 -39.25 15.6 -37.65 16.3 -36.9 18.0 -34.85 L18.05 -34.75 15.5 -37.4 15.25 -37.65 17.05 -35.65 Q19.3 -33.1 19.3 -32.35 L19.95 -30.7 Q20.7 -28.85 21.05 -27.35 21.3 -26.25 21.4 -24.85 21.55 -23.55 21.55 -22.35 21.55 -19.6 20.2 -15.85 18.85 -12.05 17.15 -10.45 17.0 -9.9 15.9 -8.75 14.55 -7.4 12.6 -6.05 9.1 -3.65 6.0 -2.85 5.45 -2.7 4.55 -2.45 2.45 -1.9 0.3 -1.9 L-0.7 -1.95 -1.45 -2.0 -2.0 -2.05 -2.6 -2.1 Q-6.1 -2.6 -8.4 -3.6 L-8.6 -3.7 Q-9.6 -3.85 -11.8 -5.25 -14.25 -6.9 -15.35 -8.3 L-17.2 -10.7 Q-18.35 -12.2 -18.8 -13.05 -19.85 -15.25 -20.4 -17.75 -20.95 -20.2 -20.95 -22.5 -20.95 -29.35 -18.15 -34.0 -13.9 -41.05 -3.05 -44.0 L-0.75 -44.0 Q0.3 -44.0 1.35 -44.05 1.95 -44.05 2.35 -43.9 M11.25 -43.8 Q11.85 -43.45 13.55 -42.95 14.9 -42.4 14.9 -41.7 14.9 -41.5 14.85 -41.5 L14.85 -41.55 Q14.0 -41.8 13.0 -42.55 11.8 -43.4 11.2 -43.7 L11.25 -43.8 M19.2 -37.05 Q19.2 -36.95 19.1 -36.9 18.7 -37.2 18.1 -37.9 17.55 -38.55 17.2 -39.05 L17.3 -39.05 Q17.4 -38.85 18.2 -38.1 19.05 -37.3 19.2 -37.05 M22.6 -28.8 L22.5 -27.65 Q22.45 -26.55 22.5 -26.0 L22.35 -26.0 Q22.35 -26.35 22.4 -27.1 L22.45 -28.0 Q22.45 -28.8 21.9 -30.05 L21.1 -32.0 21.2 -32.0 Q22.6 -30.15 22.6 -28.8 M22.75 -23.75 L22.85 -22.9 22.95 -22.2 Q22.95 -20.6 22.75 -19.55 L22.7 -19.55 Q22.75 -20.2 22.7 -21.5 L22.65 -22.85 22.7 -23.75 22.75 -23.75 M22.45 -17.75 Q22.45 -16.75 22.0 -15.6 21.55 -14.5 20.8 -13.45 L20.75 -13.4 20.75 -13.55 Q20.75 -13.7 21.0 -14.15 L21.55 -15.2 Q22.3 -16.8 22.3 -18.25 L22.4 -18.25 22.45 -17.75 M1.45 -25.75 Q-0.55 -25.75 -1.9 -24.6 -3.4 -23.3 -3.4 -20.9 -3.4 -19.5 -2.85 -18.35 -1.8 -16.1 0.75 -16.1 4.0 -16.1 5.45 -18.8 5.9 -19.65 6.1 -20.7 6.25 -21.35 6.25 -21.7 6.25 -23.5 4.75 -24.65 3.35 -25.75 1.45 -25.75 M5.55 -1.95 L5.6 -2.0 6.15 -1.9 5.5 -1.9 5.55 -1.95 M5.15 -1.6 Q4.8 -1.45 4.5 -1.0 L4.05 -0.2 Q3.45 0.65 2.2 0.35 L1.9 0.25 Q2.95 0.3 3.95 -0.75 L4.6 -1.45 Q4.9 -1.75 5.15 -1.7 L5.15 -1.6 M10.7 -2.65 L10.6 -2.7 10.45 -2.8 Q10.6 -2.9 11.55 -3.35 12.4 -3.75 12.55 -4.05 12.75 -4.4 13.45 -4.75 L14.25 -5.15 Q13.9 -4.3 13.55 -3.9 13.0 -3.15 11.6 -2.95 L11.6 -2.9 11.2 -2.75 10.7 -2.65 M18.25 -9.15 Q17.65 -7.95 16.85 -7.35 L18.0 -9.35 Q18.75 -10.65 19.1 -10.95 18.6 -9.8 18.25 -9.15 M16.0 -6.5 Q15.6 -6.5 15.35 -6.25 L14.85 -5.65 14.8 -5.75 15.3 -6.25 Q15.7 -6.7 15.95 -6.6 L16.0 -6.5 M-0.7 -46.6 Q-0.3 -46.55 0.05 -46.45 L-1.0 -46.45 Q-2.8 -46.45 -4.55 -45.9 L-6.35 -45.35 Q-5.6 -45.8 -4.9 -46.0 -3.95 -46.3 -1.7 -46.65 L-1.7 -46.7 -0.7 -46.6 M-15.45 -40.3 L-15.55 -40.3 Q-15.6 -40.35 -15.65 -40.4 -14.25 -41.75 -13.25 -42.45 -11.6 -43.65 -10.2 -43.95 -10.95 -43.35 -13.15 -42.0 -14.65 -41.05 -15.45 -40.3 M-19.1 -37.3 Q-19.35 -37.15 -19.15 -36.7 L-19.2 -36.7 -19.5 -36.65 -19.5 -36.75 -19.55 -37.0 Q-19.55 -37.3 -19.25 -37.55 -18.95 -37.8 -18.7 -37.75 -18.75 -37.55 -19.1 -37.3 M-21.1 -33.1 Q-21.3 -32.95 -21.55 -32.2 -21.8 -31.55 -21.8 -31.35 -21.8 -30.9 -22.2 -29.75 -22.55 -28.75 -22.8 -28.35 L-22.9 -28.35 -23.0 -28.45 -23.0 -28.7 Q-23.0 -29.3 -22.35 -31.05 -21.75 -32.75 -21.75 -33.15 L-21.15 -33.2 -21.1 -33.1 M-23.05 -21.45 L-22.95 -21.45 Q-22.85 -21.0 -22.8 -20.25 L-22.75 -19.35 Q-22.75 -19.25 -22.6 -18.9 L-22.3 -18.35 -22.3 -18.3 Q-22.35 -18.2 -22.45 -18.2 L-23.0 -18.8 Q-23.2 -19.05 -23.2 -19.4 L-23.1 -20.25 Q-23.05 -21.0 -23.05 -21.3 L-23.05 -21.45 M-20.2 -11.9 Q-19.9 -10.8 -18.4 -9.2 -17.7 -8.4 -17.45 -8.1 -17.05 -7.5 -17.05 -7.05 -17.05 -6.9 -16.95 -6.85 L-16.7 -6.8 Q-17.25 -6.85 -17.55 -7.1 -17.7 -7.25 -17.85 -7.65 -18.0 -8.25 -18.05 -8.35 -18.25 -8.8 -18.65 -9.15 -19.25 -9.6 -19.75 -10.4 -20.3 -11.2 -20.3 -11.7 -20.3 -11.9 -20.25 -11.9 L-20.2 -11.9 M-12.95 -4.3 Q-12.2 -4.0 -11.65 -3.75 -10.6 -3.25 -10.4 -2.8 L-10.6 -2.7 -10.95 -2.65 Q-11.25 -2.65 -12.1 -3.4 L-12.95 -4.25 -12.95 -4.3 M-13.05 -4.45 Q-13.5 -4.6 -14.15 -4.95 -14.6 -5.2 -14.9 -5.2 -15.1 -5.2 -15.05 -5.35 L-15.0 -5.6 Q-14.9 -5.6 -14.15 -5.15 L-13.05 -4.45 M-4.6 -1.75 Q-3.7 -1.5 -3.35 -1.05 -2.85 -0.35 -2.45 -0.1 -2.4 -0.1 -2.4 -0.05 -2.35 0.0 -2.55 0.0 -3.5 0.0 -4.05 -0.85 L-3.75 -0.95 Q-3.9 -1.05 -4.1 -1.3 -4.3 -1.55 -4.65 -1.65 L-4.65 -1.7 -4.6 -1.75" fill="#59a5ff" fill-opacity="0.5019608" fill-rule="evenodd" stroke="none"/>
    <path d="M10.9 -35.9 Q11.25 -35.85 11.9 -35.3 12.55 -34.65 12.5 -34.3 L12.45 -34.0 12.35 -33.95 Q12.2 -33.85 12.05 -33.85 11.55 -33.85 11.2 -34.6 11.05 -35.0 10.85 -35.75 L10.9 -35.9 M2.8 -28.75 Q3.35 -28.55 3.7 -28.15 L4.45 -27.3 Q4.65 -27.05 5.85 -26.65 6.95 -26.3 7.1 -25.75 7.55 -24.35 8.15 -23.85 8.35 -23.65 8.4 -23.45 8.5 -23.2 8.5 -22.5 8.5 -22.0 8.1 -19.95 L7.6 -17.6 Q7.45 -16.9 6.8 -16.3 6.05 -15.65 4.85 -15.3 4.45 -15.15 3.4 -14.15 2.4 -13.3 1.7 -13.3 0.7 -13.3 -0.1 -13.6 -0.55 -13.75 -0.95 -14.0 L-2.35 -14.4 Q-3.6 -14.85 -3.7 -15.0 L-4.7 -16.2 Q-5.2 -16.85 -5.25 -17.4 -5.4 -18.8 -5.3 -19.95 -5.3 -20.55 -5.45 -21.3 -5.65 -22.05 -5.65 -22.4 -5.65 -22.6 -5.55 -23.25 -5.45 -23.85 -5.45 -24.6 -5.45 -26.05 -4.15 -26.55 -3.4 -26.8 -3.05 -26.95 -2.45 -27.2 -2.2 -27.6 -1.35 -28.95 0.4 -29.1 1.65 -29.2 2.8 -28.75 M1.9 -35.3 L1.65 -35.3 Q1.4 -35.3 0.7 -35.1 L-0.3 -34.75 Q-0.1 -35.4 0.75 -35.45 1.45 -35.55 1.9 -35.35 L1.9 -35.3 M5.75 -35.05 Q6.05 -35.0 6.55 -34.45 7.1 -33.85 7.1 -33.5 7.1 -33.3 7.05 -33.1 L7.0 -32.85 6.85 -32.8 Q6.8 -33.05 6.25 -33.8 5.75 -34.5 5.75 -34.9 L5.75 -35.05 M13.0 -26.7 L13.9 -26.25 13.5 -26.2 Q13.2 -26.15 12.85 -26.25 12.15 -26.45 11.95 -26.95 L11.95 -27.05 Q12.25 -27.1 13.0 -26.7 M13.9 -22.35 Q14.35 -22.95 14.75 -23.0 L14.8 -22.9 14.8 -22.6 Q14.8 -22.25 14.5 -21.85 14.15 -21.45 13.75 -21.35 L13.6 -21.35 Q13.5 -21.35 13.5 -21.5 13.5 -21.85 13.9 -22.35 M16.75 -19.55 L16.8 -19.15 Q16.8 -18.75 16.6 -18.45 16.3 -18.75 16.3 -19.1 16.3 -19.5 16.3 -19.6 16.35 -19.9 16.6 -19.95 16.7 -19.75 16.75 -19.55 M4.5 -23.95 Q3.35 -25.0 1.8 -25.35 -0.35 -25.9 -1.9 -24.05 -2.4 -23.4 -2.8 -22.65 -3.05 -22.0 -3.05 -21.8 -3.05 -19.85 -2.65 -18.8 -1.75 -16.4 1.05 -16.4 2.05 -16.4 3.35 -17.45 4.45 -18.35 4.75 -19.05 5.05 -19.65 5.3 -20.5 5.55 -21.45 5.55 -22.0 5.55 -22.95 4.5 -23.95 M5.9 -9.8 L5.85 -9.95 Q7.35 -11.4 8.3 -11.8 8.05 -11.25 7.4 -10.55 6.75 -9.85 6.2 -9.6 L6.05 -9.65 Q5.95 -9.75 5.9 -9.8 M8.6 -8.9 Q8.6 -9.2 8.9 -9.4 9.2 -9.6 9.75 -9.5 L9.3 -9.05 Q8.85 -8.7 8.7 -8.65 L8.65 -8.7 Q8.6 -8.7 8.6 -8.9 M0.65 -9.7 Q1.05 -9.7 1.2 -9.6 L1.65 -9.35 Q1.15 -9.05 1.0 -9.0 L0.5 -8.95 Q-0.65 -8.95 -1.7 -9.6 -2.65 -10.15 -2.65 -10.55 -2.65 -10.85 -2.6 -10.65 -2.45 -10.6 -1.75 -10.1 L-0.7 -9.4 0.1 -9.4 Q0.3 -9.7 0.65 -9.7 M2.85 -6.65 L2.55 -6.5 Q2.35 -6.45 2.2 -6.45 1.9 -6.45 1.6 -6.6 1.35 -6.75 1.2 -6.9 1.25 -7.0 1.3 -7.0 L1.6 -7.05 Q2.6 -6.85 2.85 -6.65 M11.4 -6.35 Q11.35 -6.2 10.75 -6.15 L10.7 -6.15 Q10.65 -6.15 10.65 -6.35 10.65 -6.55 10.85 -6.7 L11.45 -6.7 11.4 -6.35 M16.25 -11.65 Q16.25 -12.0 16.6 -12.1 16.9 -12.2 17.2 -11.95 17.1 -11.7 16.75 -11.5 16.5 -11.4 16.35 -11.4 L16.3 -11.45 Q16.25 -11.5 16.25 -11.65 M12.4 -12.35 L11.65 -11.7 11.5 -11.75 Q11.55 -11.9 12.25 -12.45 12.95 -13.05 13.15 -13.05 L12.4 -12.35 M-15.45 -36.7 L-15.45 -36.65 -15.55 -36.6 -15.75 -36.6 -15.8 -36.65 -15.85 -36.8 -15.8 -36.95 -15.6 -36.95 Q-15.45 -36.8 -15.45 -36.7 M-12.2 -32.75 Q-11.75 -32.75 -11.75 -32.35 -11.75 -32.2 -11.85 -32.05 -12.0 -31.9 -12.2 -31.9 -12.55 -31.9 -12.65 -32.15 -12.7 -32.3 -12.7 -32.35 -12.7 -32.75 -12.2 -32.75 M-14.75 -34.35 L-14.7 -34.35 Q-14.65 -34.3 -14.65 -34.15 -14.65 -33.95 -14.7 -33.9 L-14.8 -33.75 -15.05 -33.7 -15.15 -33.75 -15.3 -33.85 Q-15.25 -34.1 -15.1 -34.25 -14.95 -34.4 -14.75 -34.35 M-17.1 -28.75 Q-16.95 -28.5 -16.9 -28.3 -16.85 -28.15 -16.7 -27.95 -17.1 -27.9 -17.2 -28.1 L-17.35 -28.6 -17.2 -28.7 -17.1 -28.75 M-1.1 -39.05 L-1.35 -39.1 -1.45 -39.2 -1.5 -39.2 -1.5 -39.4 Q-1.5 -39.65 -1.15 -39.8 -0.7 -39.95 -0.3 -39.5 -0.65 -39.05 -1.1 -39.05 M-7.65 -36.5 L-7.85 -36.55 Q-7.9 -36.6 -7.9 -36.75 L-7.9 -37.0 -7.85 -37.05 -7.5 -37.0 Q-7.25 -36.95 -7.1 -36.8 L-7.65 -36.5 M-10.8 -19.45 Q-10.75 -18.95 -10.55 -18.65 L-10.55 -18.6 Q-11.1 -18.85 -11.2 -19.3 -11.25 -19.6 -11.25 -20.15 -11.2 -20.3 -11.0 -20.3 -10.95 -20.1 -10.8 -19.45 M-16.1 -23.95 Q-16.05 -23.3 -16.05 -23.05 -16.25 -23.3 -16.25 -23.95 -16.25 -24.45 -16.25 -24.55 -16.15 -24.9 -15.85 -24.75 -16.1 -24.5 -16.1 -23.95 M-12.8 -13.4 L-12.75 -13.0 -12.75 -12.95 Q-12.85 -12.9 -12.95 -12.9 -13.3 -13.15 -13.3 -13.55 L-13.25 -13.75 -13.25 -13.8 -13.05 -13.8 Q-12.9 -13.65 -12.8 -13.4 M-1.2 -7.45 L-1.15 -7.3 -1.3 -7.0 Q-1.35 -6.95 -1.5 -6.95 -1.7 -6.95 -1.85 -7.05 L-2.05 -7.2 -2.1 -7.45 -1.7 -7.45 Q-1.4 -7.4 -1.2 -7.45 M-8.75 -7.65 Q-8.55 -7.65 -8.15 -7.5 -7.75 -7.3 -7.55 -7.25 L-7.5 -7.05 -7.75 -6.9 Q-7.85 -6.85 -8.05 -6.85 -8.3 -6.85 -8.55 -7.15 -8.75 -7.45 -8.75 -7.65 M-8.5 -5.25 Q-8.65 -5.25 -8.85 -5.4 -9.05 -5.55 -9.2 -5.55 L-9.25 -5.7 Q-8.95 -5.95 -8.7 -5.85 L-8.1 -5.5 -8.2 -5.35 Q-8.3 -5.25 -8.5 -5.25 M-4.4 -4.95 L-4.4 -5.15 -4.35 -5.2 -4.2 -5.2 Q-4.15 -5.15 -4.1 -5.0 L-4.05 -4.75 -4.1 -4.7 -4.35 -4.65 -4.35 -4.75 -4.4 -4.95" fill="#8cc1ff" fill-opacity="0.7529412" fill-rule="evenodd" stroke="none"/>
    <path d="M6.8 -21.75 Q6.8 -21.35 6.3 -20.3 5.8 -19.1 5.0 -18.05 2.8 -15.05 0.05 -15.05 -2.3 -15.05 -3.5 -17.7 -3.9 -18.55 -4.1 -19.6 -4.25 -20.35 -4.25 -20.7 -4.25 -21.8 -4.15 -22.05 L-3.5 -24.05 -3.3 -24.9 Q-3.15 -25.4 -2.8 -25.75 -1.85 -26.65 1.0 -26.45 3.3 -27.35 5.2 -25.05 5.9 -24.2 6.35 -23.15 6.8 -22.25 6.8 -21.75 M3.85 -24.25 Q2.75 -25.15 1.2 -25.2 -0.4 -25.2 -1.5 -24.2 -2.7 -23.1 -2.7 -21.05 -2.7 -19.85 -2.05 -18.7 -1.1 -16.9 0.95 -16.9 3.35 -16.9 4.45 -19.1 5.05 -20.4 5.05 -21.6 5.05 -23.2 3.85 -24.25 M5.5 -20.35 L5.5 -20.45 5.4 -20.15 5.5 -20.35 M-3.3 -22.1 Q-3.5 -21.35 -3.55 -20.7 L-3.4 -21.7 -3.3 -22.1 M-2.45 -24.3 L-2.3 -24.4 -2.45 -24.55 -2.7 -24.1 -2.45 -24.3" fill="#bfdcff" fill-opacity="0.7529412" fill-rule="evenodd" stroke="none"/>
    <path d="M1.95 -25.75 Q4.2 -25.85 5.1 -24.65 5.65 -23.85 5.65 -22.2 5.65 -21.6 5.4 -20.7 5.1 -19.55 4.6 -18.65 3.1 -16.05 0.4 -16.05 -0.45 -16.05 -1.0 -16.45 -1.15 -16.3 -1.35 -16.3 -1.55 -16.3 -2.1 -17.15 -2.6 -17.95 -2.75 -18.4 L-3.15 -19.45 Q-3.35 -20.1 -3.35 -20.35 -3.35 -22.5 -2.8 -23.7 -1.7 -25.85 1.4 -25.85 L1.75 -25.8 1.95 -25.75 M2.2 -25.4 L1.5 -25.45 Q-0.5 -25.45 -1.85 -23.6 -2.3 -22.95 -2.6 -22.2 -2.8 -21.6 -2.8 -21.3 -2.8 -20.35 -2.1 -19.1 L-2.1 -19.15 -2.05 -19.25 -1.95 -18.85 -1.85 -18.65 -1.15 -17.65 Q-0.25 -16.9 1.6 -16.9 3.05 -16.9 4.2 -19.05 4.6 -19.8 4.85 -20.7 5.1 -21.5 5.1 -21.95 5.1 -23.4 3.85 -24.4 3.45 -24.7 2.75 -25.1 2.45 -25.25 2.2 -25.4 M-2.75 -19.6 L-2.7 -19.55 -2.7 -19.75 -2.75 -20.2 -2.8 -20.7 -2.95 -20.7 Q-2.95 -20.15 -2.75 -19.6" fill="#ffffff" fill-rule="evenodd" stroke="none"/>
  </g>
</svg>
