<?xml version="1.0" encoding="UTF-8" standalone="no"?>
<svg xmlns:ffdec="https://www.free-decompiler.com/flash" xmlns:xlink="http://www.w3.org/1999/xlink" ffdec:objectType="shape" height="46.55px" width="46.6px" xmlns="http://www.w3.org/2000/svg">
  <g transform="matrix(1.0, 0.0, 0.0, 1.0, 23.45, 46.45)">
    <path d="M2.05 -46.35 L2.8 -46.35 Q7.1 -45.9 10.95 -43.8 13.75 -42.25 15.25 -40.55 23.15 -33.4 23.15 -23.2 L22.95 -18.9 Q22.95 -18.3 21.95 -15.6 20.95 -12.95 20.6 -12.5 L20.5 -12.5 20.45 -12.55 20.45 -12.8 Q19.7 -11.05 18.85 -9.7 17.4 -7.5 15.5 -6.1 L13.2 -4.35 Q11.9 -3.35 10.75 -2.7 7.75 -1.05 3.5 -0.2 L2.95 -0.2 2.95 -0.25 2.8 -0.2 Q0.8 0.1 -0.1 0.1 L-1.2 0.05 -2.1 -0.05 -4.1 -0.6 -4.1 -0.55 Q-6.95 -1.25 -9.35 -2.2 L-9.1 -2.1 Q-9.9 -2.4 -10.85 -2.9 L-10.5 -2.65 Q-13.2 -3.9 -14.35 -5.15 -14.85 -5.65 -16.05 -6.5 -17.3 -7.45 -17.75 -7.85 -18.3 -8.45 -18.8 -9.3 L-19.75 -11.05 Q-20.9 -12.85 -21.85 -15.7 -22.6 -17.9 -23.05 -20.2 -23.45 -22.35 -23.45 -23.8 -23.45 -29.15 -20.4 -34.35 -17.05 -40.1 -10.8 -43.95 L-10.55 -43.9 Q-9.5 -44.45 -8.15 -44.95 -3.95 -46.55 -1.7 -46.3 L-1.7 -46.35 -0.35 -46.35 -0.25 -46.45 1.85 -46.4 2.05 -46.35 M0.25 -33.55 Q-2.6 -33.8 -5.6 -31.65 -7.8 -30.05 -9.25 -28.0 -9.8 -27.2 -10.3 -25.1 -10.8 -23.1 -10.8 -21.8 -10.8 -20.15 -10.5 -19.05 -10.3 -18.3 -9.5 -16.2 L-9.05 -15.6 Q-8.2 -14.3 -7.4 -13.55 -6.8 -13.0 -5.35 -12.2 L-4.95 -12.0 Q-5.4 -12.3 -5.75 -12.6 L-5.75 -12.65 -5.7 -12.7 Q-5.45 -12.55 -4.65 -12.05 -3.9 -11.55 -3.25 -11.25 -1.5 -10.5 1.45 -10.25 L1.45 -10.3 2.7 -10.45 Q3.95 -10.65 4.35 -10.85 L4.75 -10.75 4.8 -10.65 Q9.75 -12.8 11.5 -16.7 12.3 -18.5 12.45 -20.85 12.55 -22.1 12.4 -23.9 11.6 -26.65 9.95 -28.65 L8.9 -29.95 Q8.55 -30.4 8.45 -30.8 5.15 -33.65 0.85 -33.65 0.35 -33.65 0.25 -33.55 M9.6 -29.85 L9.75 -29.65 9.85 -29.6 9.9 -29.6 Q9.85 -29.65 9.75 -29.75 L9.6 -29.85 M10.2 -28.9 L10.35 -28.75 Q10.45 -28.65 10.5 -28.65 L10.2 -28.95 10.2 -28.9 M12.75 -23.35 L12.75 -23.35 M-14.0 -5.15 L-13.9 -5.15 Q-14.0 -5.3 -14.3 -5.45 -14.5 -5.55 -14.6 -5.6 L-14.0 -5.15" fill="#59a5ff" fill-opacity="0.5019608" fill-rule="evenodd" stroke="none"/>
    <path d="M0.3 -43.3 Q-0.15 -42.85 -0.55 -42.9 L-0.6 -42.85 Q-0.65 -42.85 -0.65 -43.05 -0.65 -43.6 -0.35 -43.9 0.0 -44.35 0.75 -43.95 0.6 -43.65 0.3 -43.3 M11.45 -39.35 Q11.1 -39.3 10.85 -39.6 L10.45 -40.25 Q10.85 -40.25 11.05 -39.95 11.4 -39.4 11.45 -39.35 M8.35 -39.45 L9.0 -38.8 Q9.9 -38.0 10.95 -38.1 11.95 -38.15 12.4 -37.45 12.75 -36.65 13.05 -36.35 12.45 -36.75 11.9 -37.0 11.05 -37.4 9.9 -37.8 9.35 -37.95 8.6 -38.7 L7.6 -39.75 7.65 -39.8 7.65 -39.85 Q8.0 -39.75 8.35 -39.45 M6.15 -40.6 Q4.85 -40.15 3.85 -39.9 L2.2 -39.45 2.0 -39.5 Q2.35 -39.65 3.3 -40.25 4.45 -40.75 5.95 -40.7 6.1 -40.65 6.15 -40.6 M7.75 -37.8 Q9.3 -37.65 10.0 -36.8 L10.55 -36.0 Q10.95 -35.35 11.2 -35.0 L12.5 -33.5 Q13.45 -32.4 13.85 -31.85 14.3 -31.1 14.95 -28.4 15.5 -25.95 15.5 -25.35 L15.45 -24.85 15.4 -24.65 15.75 -23.75 Q16.35 -22.35 16.35 -21.6 16.35 -20.25 16.1 -19.2 16.1 -18.05 15.55 -16.6 14.9 -15.1 13.75 -13.55 12.65 -12.15 11.5 -11.25 10.35 -10.3 9.7 -10.3 L9.25 -10.2 8.5 -9.35 Q7.9 -8.65 6.15 -7.85 4.3 -7.0 3.3 -7.0 2.0 -7.0 1.0 -7.5 L0.35 -7.9 Q0.1 -8.05 0.0 -8.05 L-0.95 -8.0 -1.4 -7.75 Q-2.15 -7.45 -3.5 -7.45 L-3.85 -7.45 Q-4.5 -7.2 -5.1 -7.05 L-6.9 -7.05 Q-8.15 -7.5 -8.8 -8.6 L-9.25 -9.5 Q-9.5 -10.05 -9.75 -10.3 -10.05 -10.65 -10.5 -10.9 L-11.35 -11.35 Q-12.3 -12.0 -12.6 -13.15 -13.0 -14.7 -13.1 -16.45 -13.1 -16.7 -13.3 -17.35 L-13.55 -17.75 Q-13.8 -18.2 -13.8 -19.05 L-13.8 -19.3 -13.85 -19.6 Q-14.2 -20.65 -14.85 -21.6 -15.35 -22.25 -15.5 -22.65 -15.75 -23.3 -15.75 -24.15 -15.75 -24.3 -15.45 -24.9 L-14.7 -26.15 Q-13.6 -28.1 -13.35 -29.4 L-13.1 -30.7 Q-12.85 -31.55 -12.0 -32.05 -11.2 -32.5 -9.35 -32.9 -8.55 -33.9 -8.3 -34.55 -8.1 -35.15 -7.65 -35.75 -7.1 -36.55 -6.3 -37.0 -5.25 -37.6 -4.2 -38.05 -2.5 -38.75 -1.45 -38.75 1.5 -38.6 2.55 -37.85 L2.9 -37.5 4.85 -37.35 Q5.5 -37.35 6.1 -37.65 6.6 -37.9 7.75 -37.8 M6.1 -37.1 Q5.75 -36.9 5.55 -36.85 6.4 -36.95 7.8 -36.3 9.55 -35.45 10.2 -35.35 L10.35 -35.4 8.95 -36.5 Q8.1 -37.1 7.65 -37.35 6.5 -37.3 6.1 -37.1 M1.6 -39.95 L1.6 -39.85 Q1.5 -39.85 1.3 -39.9 1.1 -40.0 0.95 -40.0 0.65 -40.0 0.2 -39.8 -0.25 -39.65 -0.35 -39.65 -0.7 -39.65 -0.85 -39.8 L-0.9 -39.9 Q-0.8 -39.9 -0.45 -40.1 0.0 -40.35 0.25 -40.45 1.2 -40.8 1.6 -39.95 M3.95 -36.8 L3.4 -36.85 3.4 -36.8 4.05 -36.7 3.95 -36.8 M0.2 -33.75 L-2.2 -33.0 -4.6 -32.1 Q-5.3 -31.75 -6.4 -30.75 -7.35 -29.95 -8.3 -28.95 -9.4 -27.85 -10.05 -25.65 -10.6 -23.85 -10.6 -22.15 -10.6 -20.25 -9.8 -18.5 -9.3 -17.4 -9.0 -16.7 L-8.85 -16.45 -7.85 -14.75 Q-6.8 -13.3 -5.55 -12.2 -4.15 -11.7 -2.85 -11.25 0.1 -10.25 1.65 -10.25 4.1 -10.25 6.6 -11.8 6.85 -11.95 8.35 -12.95 L9.05 -13.4 Q10.35 -14.75 11.3 -16.7 12.5 -19.2 12.5 -21.35 12.5 -25.0 10.3 -28.15 9.5 -29.3 8.2 -30.65 L6.8 -32.05 Q6.55 -32.05 6.05 -32.3 L4.85 -32.9 Q2.9 -33.75 0.2 -33.75 M10.35 -34.05 Q11.1 -33.3 11.95 -31.95 L13.15 -29.9 13.8 -28.95 13.3 -31.35 Q13.05 -32.2 11.8 -33.15 11.1 -33.7 10.2 -34.15 L10.35 -34.05 M17.1 -35.4 L17.05 -35.25 Q16.95 -35.35 16.75 -35.7 16.55 -36.05 16.55 -36.1 16.55 -36.55 16.85 -36.6 17.1 -35.95 17.1 -35.4 M17.25 -33.05 Q18.1 -32.9 18.5 -32.45 18.9 -31.95 18.8 -31.5 L16.55 -32.95 Q14.95 -34.0 14.55 -34.55 L15.5 -34.0 Q16.5 -33.4 17.25 -33.05 M15.95 -32.4 Q16.25 -32.0 16.55 -31.4 16.8 -30.8 16.8 -30.45 L16.75 -29.9 16.7 -29.3 16.6 -29.3 16.45 -30.8 Q16.3 -31.8 15.85 -32.35 L15.95 -32.4 M19.15 -30.0 Q19.15 -30.2 19.05 -30.45 L18.9 -30.9 19.0 -30.9 19.15 -30.6 Q19.25 -30.4 19.25 -30.25 L19.25 -30.0 19.15 -30.0 M21.2 -28.8 L21.25 -28.8 Q21.3 -28.8 21.3 -28.6 L21.25 -28.15 Q21.2 -27.8 21.2 -27.6 L21.1 -27.6 20.95 -27.8 Q20.9 -27.9 20.9 -28.1 20.9 -28.35 20.95 -28.45 21.05 -28.65 21.2 -28.8 M17.5 -25.85 L17.5 -25.8 Q17.45 -25.8 17.45 -26.0 17.45 -27.05 17.75 -27.85 18.2 -28.9 19.25 -29.2 19.0 -28.7 18.4 -27.55 17.7 -26.3 17.5 -25.85 M17.9 -22.3 L18.75 -20.3 19.35 -18.9 Q19.35 -18.7 19.3 -18.55 L19.15 -18.2 Q18.55 -18.7 18.25 -20.1 18.05 -20.9 17.8 -22.3 L17.9 -22.3 M20.55 -23.8 Q20.7 -23.9 20.9 -23.75 21.45 -23.5 21.45 -22.85 21.45 -22.5 21.4 -22.25 21.3 -21.95 21.05 -21.75 L20.95 -21.75 21.05 -21.8 Q21.1 -21.85 21.1 -22.0 21.1 -22.25 20.75 -22.7 20.35 -23.15 20.35 -23.4 20.35 -23.7 20.55 -23.8 M14.75 -16.35 Q14.1 -15.45 13.1 -14.45 12.05 -13.3 10.95 -12.25 L10.75 -12.0 11.1 -12.2 Q13.35 -13.55 13.95 -14.6 14.3 -15.2 14.75 -16.35 M20.5 -18.1 Q20.5 -18.0 20.35 -17.95 20.2 -18.15 20.2 -18.65 20.2 -19.1 20.2 -19.25 20.25 -19.7 20.45 -19.75 20.4 -19.05 20.5 -18.1 M20.45 -20.6 Q20.45 -20.7 20.65 -21.05 20.9 -21.4 21.05 -21.45 21.05 -21.25 20.75 -20.75 20.5 -20.3 20.6 -20.05 L20.5 -20.05 20.45 -20.25 20.45 -20.6 M17.75 -18.55 L17.8 -18.25 Q17.8 -16.95 17.15 -15.65 16.45 -14.15 15.25 -13.45 16.6 -14.45 17.1 -16.05 17.45 -17.05 17.55 -18.8 L17.65 -18.8 17.75 -18.55 M18.15 -15.15 Q17.7 -14.15 17.55 -13.65 17.35 -12.75 16.3 -11.95 15.2 -11.15 14.15 -11.15 L13.85 -11.2 13.75 -11.2 13.7 -11.25 Q13.65 -11.25 13.65 -11.45 13.65 -11.9 14.2 -12.25 14.6 -12.45 15.45 -12.75 16.45 -13.1 16.8 -13.25 17.45 -13.6 17.55 -14.0 L18.05 -15.4 Q18.35 -16.35 18.75 -16.7 18.65 -16.15 18.15 -15.15 M7.05 -9.2 Q5.5 -8.3 4.25 -8.3 L3.35 -8.5 Q2.5 -8.7 1.8 -8.7 L0.25 -8.65 -0.2 -8.4 0.1 -8.5 Q0.45 -8.5 0.75 -8.3 1.15 -8.15 1.6 -8.05 L3.4 -7.8 4.05 -7.75 Q4.7 -7.75 6.3 -8.75 L7.05 -9.2 M10.25 -8.95 Q10.25 -8.9 10.25 -8.7 10.25 -8.5 8.6 -7.2 6.85 -5.9 6.2 -5.9 L5.35 -5.95 4.3 -6.05 Q4.6 -6.6 6.05 -7.05 L7.75 -7.6 Q8.25 -7.9 9.0 -8.55 9.65 -9.05 10.2 -9.0 L10.25 -8.95 M0.05 -5.2 Q0.65 -5.6 1.45 -5.45 2.0 -5.4 2.8 -4.95 L4.25 -4.2 Q5.05 -3.8 5.65 -3.8 6.4 -3.8 6.6 -4.0 7.05 -4.45 7.3 -4.55 L7.35 -4.45 Q7.15 -4.35 6.65 -3.9 6.3 -3.5 5.95 -3.5 5.05 -3.5 2.5 -4.35 1.25 -4.75 0.05 -5.2 M10.35 -6.45 Q9.6 -6.35 9.55 -6.1 L9.5 -5.85 Q9.45 -5.65 9.25 -5.45 L9.2 -5.45 9.45 -6.15 Q9.65 -6.75 9.65 -6.9 9.65 -7.3 10.6 -7.6 11.45 -7.9 11.85 -8.2 L11.5 -7.6 Q11.45 -7.25 11.3 -7.0 11.05 -6.6 10.35 -6.45 M9.2 -3.65 L9.15 -3.65 9.05 -3.75 Q9.4 -3.85 10.0 -4.15 10.55 -4.4 10.75 -4.4 L10.25 -3.9 Q9.95 -3.6 9.5 -3.6 L9.2 -3.65 M18.25 -11.5 L18.2 -11.55 Q18.15 -11.6 18.15 -11.8 18.15 -12.05 18.45 -12.15 L19.25 -12.2 19.3 -12.0 19.3 -11.85 19.25 -11.55 Q19.25 -11.5 18.95 -11.5 L18.25 -11.5 M12.5 -9.3 L12.5 -9.4 Q12.6 -10.0 12.8 -10.1 12.7 -9.75 12.5 -9.3 M14.05 -7.75 Q14.1 -8.0 14.5 -8.45 14.85 -8.85 15.0 -8.9 L15.0 -8.85 Q14.9 -8.8 14.6 -8.35 L14.15 -7.75 14.05 -7.75 M-14.9 -35.9 Q-15.45 -35.65 -15.55 -35.45 L-15.65 -35.5 Q-15.7 -35.55 -15.7 -35.75 -15.7 -36.2 -15.15 -36.45 -14.55 -36.7 -14.05 -36.35 L-14.9 -35.9 M-14.45 -32.35 Q-14.95 -31.95 -15.35 -31.35 -15.85 -30.65 -15.75 -30.25 L-16.0 -30.25 -16.0 -30.3 -16.15 -29.0 Q-16.35 -27.35 -16.55 -26.6 L-16.6 -26.65 -16.6 -26.85 Q-16.6 -27.8 -16.35 -29.45 -16.05 -31.25 -15.75 -31.4 L-15.85 -31.05 -15.35 -31.7 Q-14.7 -32.7 -14.7 -33.15 -14.7 -33.8 -14.1 -34.4 -13.5 -35.0 -13.1 -34.7 -13.15 -34.5 -13.6 -34.15 -14.0 -33.8 -14.05 -33.55 L-14.2 -32.95 Q-14.3 -32.55 -14.45 -32.35 M-14.45 -34.1 L-14.65 -34.15 Q-14.45 -34.35 -13.9 -35.15 -13.35 -35.85 -12.95 -35.6 L-13.8 -34.85 Q-14.25 -34.45 -14.45 -34.1 M-12.75 -29.7 L-12.95 -28.25 -13.3 -26.1 -13.05 -26.55 Q-12.15 -27.75 -11.65 -28.75 L-11.4 -29.4 -11.3 -29.95 -11.0 -31.0 -10.9 -31.3 Q-11.85 -31.0 -12.0 -30.9 -12.55 -30.45 -12.75 -29.7 M-4.45 -39.5 L-5.9 -39.85 Q-5.4 -39.9 -4.45 -39.7 -3.5 -39.45 -3.2 -39.1 L-3.25 -39.05 Q-3.25 -39.0 -3.35 -39.0 -3.65 -39.3 -4.45 -39.5 M-5.15 -40.3 Q-5.85 -40.75 -6.2 -40.75 -6.45 -40.75 -6.7 -40.65 L-7.15 -40.45 -7.35 -40.45 Q-6.6 -41.45 -5.35 -41.0 -4.85 -40.85 -4.45 -40.5 -4.05 -40.2 -3.95 -39.9 L-4.15 -39.75 Q-4.35 -39.8 -5.15 -40.3 M-5.35 -37.25 Q-5.55 -37.05 -5.85 -36.95 -5.05 -36.8 -3.45 -37.15 -2.1 -37.5 -1.8 -37.7 L-1.7 -37.9 -3.0 -38.0 Q-4.5 -38.0 -5.0 -37.6 L-5.35 -37.25 M-3.7 -36.25 L-2.95 -36.9 -4.35 -36.6 Q-6.3 -36.15 -6.9 -35.65 -7.35 -35.35 -7.5 -34.55 -7.6 -33.7 -8.05 -33.3 L-8.05 -33.2 Q-7.6 -33.3 -7.2 -33.5 -6.65 -33.85 -6.2 -34.3 L-5.8 -34.65 -5.75 -34.7 Q-5.45 -35.05 -5.2 -35.25 -4.45 -35.9 -3.8 -36.2 L-3.7 -36.25 M-4.7 -35.5 L-5.3 -35.0 -5.15 -35.1 -4.15 -35.9 -4.7 -35.5 M-1.15 -37.65 L0.15 -37.7 -0.05 -37.8 -1.0 -37.8 -1.15 -37.65 M-10.25 -38.9 Q-10.7 -38.2 -11.1 -37.0 L-11.25 -37.0 Q-11.4 -37.05 -11.45 -37.1 L-10.95 -38.25 Q-10.55 -39.0 -10.3 -39.2 L-10.25 -38.9 M-11.3 -29.6 L-11.35 -29.65 -11.35 -29.6 -11.3 -29.6 M-15.15 -23.35 Q-14.25 -21.3 -13.95 -21.05 -13.7 -23.25 -13.95 -25.4 -14.2 -25.15 -14.7 -24.35 -15.15 -23.55 -15.15 -23.35 M-13.5 -24.05 L-13.55 -23.0 Q-13.55 -22.2 -13.5 -21.5 L-13.45 -21.45 -13.5 -21.4 -13.45 -21.2 Q-13.3 -22.0 -13.3 -22.6 -13.3 -22.8 -13.45 -23.75 L-13.5 -24.05 M-18.8 -25.55 Q-18.7 -26.1 -18.35 -26.2 L-18.45 -26.0 -18.25 -26.15 Q-17.85 -26.45 -17.85 -25.9 -17.85 -25.65 -18.05 -25.3 -18.25 -24.95 -18.25 -24.75 -18.25 -23.4 -17.45 -22.05 -16.4 -20.4 -15.75 -19.15 -15.75 -19.05 -15.8 -19.0 -16.7 -20.0 -17.65 -22.05 L-17.75 -22.2 Q-18.4 -22.4 -18.7 -23.5 -18.9 -24.2 -18.9 -24.9 -18.9 -25.25 -18.8 -25.55 M-20.05 -25.95 Q-20.05 -26.1 -19.65 -26.55 L-19.75 -26.1 Q-19.8 -25.8 -19.75 -25.65 L-19.9 -25.6 -20.0 -25.7 Q-20.05 -25.75 -20.05 -25.95 M-18.8 -24.9 Q-18.8 -24.85 -18.4 -23.85 -18.7 -24.75 -18.7 -25.4 -18.8 -25.1 -18.8 -24.9 M-19.15 -16.95 L-19.4 -16.9 Q-19.55 -16.9 -19.9 -17.3 -20.25 -17.65 -20.4 -18.0 L-20.35 -18.15 Q-20.0 -18.2 -19.6 -17.7 -19.2 -17.15 -19.05 -17.0 L-19.15 -16.95 M-11.95 -14.5 Q-11.95 -13.3 -11.8 -12.85 -11.5 -11.9 -10.25 -11.15 -9.75 -10.85 -9.4 -10.35 L-8.8 -9.45 Q-8.1 -8.3 -6.65 -8.0 L-5.1 -8.0 Q-6.1 -8.6 -7.45 -9.8 L-8.3 -10.65 -8.35 -10.65 Q-9.5 -11.2 -9.85 -11.5 -10.8 -12.3 -11.3 -13.45 -11.65 -14.3 -11.65 -15.25 L-11.85 -15.4 -11.95 -15.5 -11.95 -14.5 M-14.95 -10.8 Q-15.0 -10.7 -15.05 -10.65 L-15.5 -11.05 Q-15.75 -11.3 -15.75 -11.6 -15.4 -11.55 -14.9 -10.85 L-14.95 -10.8 M-9.15 -11.5 Q-10.0 -12.4 -10.5 -13.15 -10.65 -13.35 -10.8 -13.9 -10.95 -14.3 -11.05 -14.55 L-10.85 -13.8 Q-10.45 -12.55 -9.4 -11.65 L-9.15 -11.5 M-10.0 -9.15 Q-9.7 -8.8 -9.3 -7.95 -8.9 -7.1 -8.55 -6.75 -8.0 -6.1 -7.0 -5.75 L-6.85 -5.45 Q-6.95 -5.45 -7.0 -5.5 L-7.1 -5.6 Q-8.75 -5.95 -9.15 -6.75 -9.25 -6.9 -9.35 -7.35 -9.45 -7.7 -9.55 -7.85 L-11.6 -10.1 -11.5 -10.1 Q-10.55 -9.8 -10.0 -9.15 M-9.25 -4.8 L-9.1 -4.75 Q-9.3 -4.5 -9.4 -4.45 -9.6 -4.3 -9.7 -4.3 -10.15 -4.3 -10.5 -4.95 -10.65 -5.35 -10.9 -5.95 L-10.9 -6.0 -10.1 -5.35 Q-9.35 -4.8 -9.25 -4.8 M-5.55 -5.05 Q-5.55 -5.5 -4.6 -5.7 L-2.75 -6.0 Q-3.25 -5.65 -3.65 -5.45 -4.35 -5.05 -5.1 -4.8 L-5.45 -4.9 -5.5 -4.85 Q-5.55 -4.9 -5.55 -5.05 M-3.65 -2.45 Q-3.15 -2.3 -2.9 -2.1 -2.9 -2.0 -3.0 -1.95 -3.1 -1.85 -3.3 -1.85 -3.4 -1.85 -3.8 -2.1 -4.25 -2.35 -4.35 -2.65 -4.1 -2.65 -3.65 -2.45" fill="#8cc1ff" fill-opacity="0.7529412" fill-rule="evenodd" stroke="none"/>
    <path d="M8.7 -29.85 Q7.9 -30.85 6.95 -31.55 4.25 -33.55 -0.2 -33.55 -1.2 -33.55 -2.4 -33.05 L-1.0 -33.4 Q-7.0 -30.9 -9.05 -27.85 -9.9 -26.55 -10.2 -25.0 -10.4 -23.9 -10.4 -22.1 -10.4 -21.75 -9.95 -20.2 L-9.5 -18.65 Q-9.5 -18.15 -7.65 -15.5 L-6.4 -13.7 Q-5.05 -12.9 -3.5 -12.15 -0.4 -10.7 1.05 -10.7 3.85 -10.7 5.15 -11.45 5.5 -11.65 6.0 -12.0 6.5 -12.35 7.0 -12.45 8.15 -12.7 9.05 -13.65 9.55 -14.15 10.2 -15.2 11.55 -17.4 11.95 -18.4 12.45 -19.7 12.45 -21.4 12.45 -23.0 11.75 -24.85 11.05 -26.6 9.75 -28.35 L8.7 -29.85 M8.7 -32.35 Q8.85 -32.1 10.3 -30.55 11.35 -29.4 11.65 -28.65 L13.15 -25.15 Q14.55 -21.55 14.55 -20.7 14.55 -20.45 13.8 -19.0 13.05 -17.65 12.9 -17.4 12.4 -16.8 11.95 -15.9 L11.2 -14.2 Q10.85 -13.4 10.05 -12.65 9.1 -11.85 7.8 -11.35 6.75 -10.7 5.65 -10.2 3.5 -9.3 1.25 -9.3 L0.45 -9.05 Q-0.5 -8.8 -1.25 -8.8 -2.3 -8.8 -4.0 -9.85 -4.9 -10.4 -6.35 -11.35 -7.3 -11.8 -8.0 -12.75 -8.5 -13.35 -8.9 -14.35 -9.1 -14.75 -10.55 -17.3 -11.9 -19.85 -11.9 -20.7 L-11.7 -25.55 Q-11.7 -26.6 -11.55 -27.1 -11.45 -27.55 -11.05 -28.0 L-10.0 -29.05 Q-9.1 -29.95 -8.15 -31.1 -7.45 -31.95 -6.8 -32.5 -5.75 -33.3 -4.25 -33.85 -3.55 -34.1 -3.0 -34.5 -2.6 -34.85 -1.95 -34.85 L-0.2 -34.95 1.8 -35.05 Q5.25 -34.65 6.65 -34.1 7.9 -33.6 8.7 -32.35" fill="#bfdcff" fill-opacity="0.7529412" fill-rule="evenodd" stroke="none"/>
    <path d="M5.25 -33.25 L5.9 -33.1 Q6.65 -32.85 7.3 -32.5 8.05 -32.05 8.2 -32.0 9.25 -31.5 9.8 -30.55 10.3 -29.3 10.6 -28.65 10.85 -28.2 11.2 -26.95 L11.3 -26.6 12.05 -24.95 12.15 -24.8 Q12.55 -24.15 13.25 -23.25 13.65 -22.7 13.65 -21.8 L13.65 -21.3 Q13.65 -21.2 13.6 -21.15 L13.5 -21.3 Q13.6 -20.95 13.6 -20.8 13.6 -19.45 12.55 -17.9 L11.55 -16.5 Q10.95 -15.6 10.6 -14.65 10.45 -14.3 9.6 -13.6 8.7 -12.8 7.5 -12.1 4.55 -10.35 1.7 -10.15 1.7 -10.05 1.6 -9.95 1.4 -9.8 1.05 -9.8 0.6 -9.8 -0.65 -10.25 L-1.45 -10.2 Q-3.4 -10.2 -4.95 -11.55 -5.4 -11.95 -5.8 -12.45 -6.95 -13.0 -7.6 -13.8 -7.8 -14.05 -8.2 -14.7 -8.55 -15.3 -8.8 -15.6 -9.25 -16.1 -10.25 -18.85 -11.3 -21.75 -11.3 -22.7 -11.3 -24.65 -10.95 -25.75 -10.45 -27.15 -8.9 -29.0 L-7.65 -30.35 -6.2 -31.75 Q-5.4 -32.5 -3.7 -33.15 L-2.1 -33.7 -2.0 -33.9 Q-1.55 -34.2 2.35 -33.9 4.2 -33.7 5.15 -33.3 L5.25 -33.25 M0.35 -33.4 L-0.95 -33.45 Q-1.5 -33.4 -1.8 -33.3 -2.1 -32.95 -2.6 -32.6 -3.3 -32.1 -4.75 -31.3 -6.4 -30.35 -6.95 -29.95 -8.05 -29.25 -8.5 -28.65 -8.75 -28.25 -9.65 -25.8 -10.55 -23.3 -10.55 -22.8 -10.55 -22.35 -9.55 -19.65 -8.45 -16.7 -7.85 -15.95 -7.1 -14.85 -6.65 -14.3 -5.8 -13.3 -4.55 -12.9 -3.25 -12.45 -1.75 -11.45 -0.85 -10.85 0.55 -10.85 1.0 -10.85 1.3 -10.65 3.35 -10.85 5.55 -11.9 7.9 -12.95 9.55 -14.5 10.1 -14.95 11.4 -17.8 12.65 -20.5 12.65 -20.9 12.65 -21.7 12.2 -23.35 L11.8 -24.6 Q11.35 -25.2 11.1 -26.1 L11.0 -26.35 Q10.7 -27.0 10.3 -27.65 7.05 -32.85 1.25 -33.4 L0.35 -33.4 M6.25 -32.65 L6.35 -32.6 Q7.5 -31.95 8.55 -30.8 9.6 -29.45 10.2 -28.8 L10.45 -28.4 Q10.25 -28.95 9.95 -29.5 9.4 -30.45 8.7 -31.05 L7.8 -31.9 Q7.35 -32.25 6.8 -32.45 L6.25 -32.65 M-4.35 -11.6 Q-3.0 -10.6 -1.1 -10.4 L-2.25 -10.9 Q-3.45 -11.4 -4.9 -12.05 L-4.35 -11.6" fill="#ffffff" fill-rule="evenodd" stroke="none"/>
  </g>
</svg>
