<?xml version="1.0" encoding="UTF-8" standalone="no"?>
<svg xmlns:ffdec="https://www.free-decompiler.com/flash" xmlns:xlink="http://www.w3.org/1999/xlink" ffdec:objectType="shape" height="47.1px" width="47.15px" xmlns="http://www.w3.org/2000/svg">
  <g transform="matrix(1.0, 0.0, 0.0, 1.0, 23.6, 46.6)">
    <path d="M2.6 -46.5 Q8.4 -45.5 11.8 -43.65 13.2 -42.9 14.55 -41.8 L16.9 -39.75 Q18.55 -38.25 19.9 -35.95 20.5 -34.9 21.6 -32.65 22.45 -32.1 23.05 -29.3 23.55 -26.9 23.55 -24.85 L23.35 -22.5 23.15 -19.55 Q23.05 -18.05 22.85 -16.95 22.55 -15.5 22.05 -14.35 20.6 -11.2 18.8 -9.05 L18.15 -8.25 18.9 -8.9 Q18.4 -7.75 16.2 -6.1 13.65 -4.35 12.65 -3.5 12.15 -3.05 10.2 -2.3 8.85 -1.8 7.7 -1.45 5.75 -0.7 3.4 -0.15 3.15 0.05 2.0 0.3 0.95 0.5 0.4 0.5 L0.0 0.45 -1.2 0.4 Q-1.45 0.35 -1.55 0.25 -2.2 0.15 -2.7 -0.15 -3.55 -0.6 -4.85 -0.6 L-5.65 -0.7 -6.45 -0.75 Q-7.0 -0.75 -8.25 -1.3 -9.7 -1.95 -10.5 -2.1 -14.7 -4.35 -17.55 -7.75 -20.25 -10.65 -21.75 -14.2 -23.6 -18.7 -23.6 -24.7 -23.6 -27.5 -22.5 -30.7 -21.3 -34.2 -19.05 -37.2 -16.55 -40.6 -13.1 -42.85 -9.15 -45.4 -4.3 -46.3 L-4.55 -46.25 -2.55 -46.55 1.7 -46.6 2.6 -46.5 M0.15 -37.95 L1.7 -37.95 0.4 -38.0 0.15 -37.95 M0.9 -37.8 Q-0.15 -37.75 -0.6 -37.8 -9.05 -36.5 -12.6 -30.6 -14.95 -26.7 -14.95 -21.25 -14.95 -20.95 -14.6 -19.5 L-14.3 -18.05 Q-14.3 -17.85 -14.35 -17.9 L-14.2 -17.45 Q-13.45 -15.4 -12.5 -13.85 -10.5 -10.55 -6.7 -8.35 -5.65 -8.0 -4.5 -7.7 -1.5 -6.85 -0.2 -6.85 L2.75 -7.0 4.0 -7.2 3.95 -7.3 Q7.65 -8.2 10.5 -10.6 12.65 -12.45 14.2 -15.1 16.15 -18.45 16.15 -24.25 16.15 -24.65 15.3 -26.95 L14.85 -28.05 Q13.4 -31.25 10.9 -33.65 7.15 -37.3 2.3 -37.9 L0.9 -37.8 M-21.2 -13.45 Q-20.2 -11.15 -18.6 -9.15 -19.85 -10.9 -21.2 -13.45" fill="#59a5ff" fill-opacity="0.5019608" fill-rule="evenodd" stroke="none"/>
    <path d="M0.45 -43.05 Q-0.45 -42.55 -0.6 -42.55 -0.8 -42.55 -0.85 -42.6 L-0.95 -42.7 Q-1.0 -43.55 0.15 -43.9 1.3 -44.2 2.1 -43.75 1.35 -43.65 0.45 -43.05 M9.3 -41.0 Q9.95 -40.25 11.3 -39.35 12.8 -38.4 14.35 -37.9 L14.35 -37.8 Q13.0 -38.2 11.75 -38.8 9.25 -39.9 9.25 -40.75 9.25 -41.05 9.3 -41.0 M8.25 -39.15 Q8.55 -38.75 9.3 -38.4 9.85 -38.1 10.5 -37.9 11.5 -37.6 12.75 -36.6 13.9 -35.65 14.05 -35.2 14.25 -34.5 15.6 -33.65 17.1 -32.85 17.5 -32.55 18.15 -32.05 18.8 -30.95 19.45 -29.9 19.45 -29.45 19.45 -28.95 18.8 -28.05 L17.65 -26.65 17.7 -26.0 17.75 -24.8 18.25 -21.9 Q18.75 -18.95 18.75 -18.5 18.75 -18.15 18.1 -15.75 17.45 -13.45 17.2 -12.9 17.0 -12.45 15.5 -11.8 13.55 -10.95 13.1 -10.6 L12.8 -10.05 Q11.95 -8.35 11.05 -7.65 8.25 -5.4 7.35 -4.8 6.0 -3.9 4.65 -3.9 4.15 -3.9 3.25 -4.3 2.5 -4.65 2.3 -4.8 1.6 -4.95 0.85 -5.15 0.1 -5.35 -0.15 -5.45 L-2.9 -5.25 -4.85 -5.15 Q-7.2 -5.15 -8.45 -6.05 -8.95 -6.45 -9.45 -7.35 L-10.2 -8.6 -10.6 -9.2 -11.9 -10.2 Q-13.3 -11.4 -13.7 -12.2 -14.4 -13.5 -14.8 -14.5 -15.25 -15.65 -15.5 -16.85 L-15.6 -17.2 Q-16.5 -18.5 -16.75 -19.5 L-17.7 -21.85 Q-18.4 -23.6 -18.4 -24.35 L-18.4 -26.0 Q-18.3 -26.95 -17.85 -27.4 -17.8 -27.5 -17.4 -27.6 -17.05 -27.75 -16.9 -28.0 -16.55 -28.55 -16.5 -28.75 L-16.25 -29.5 -16.0 -30.2 -15.2 -31.95 Q-14.6 -33.25 -14.15 -34.0 -13.1 -35.8 -12.05 -35.65 -11.65 -36.7 -11.25 -37.4 -10.8 -38.25 -10.25 -38.95 -9.55 -39.75 -8.85 -40.1 -7.6 -40.75 -6.7 -40.8 -6.0 -40.85 -5.35 -40.55 -4.6 -40.15 -4.15 -40.0 -3.4 -39.65 -2.5 -39.65 -1.35 -39.65 -0.5 -39.9 0.3 -40.4 0.65 -40.25 L1.15 -40.0 Q1.55 -39.8 2.05 -39.8 L2.55 -39.9 3.05 -40.05 3.05 -40.0 4.1 -40.35 Q5.35 -40.65 6.05 -40.6 6.55 -40.55 6.9 -40.3 7.25 -40.25 7.55 -40.0 L8.25 -39.15 M6.35 -40.0 L5.5 -40.15 Q4.4 -40.15 3.65 -39.85 3.1 -39.55 3.05 -39.55 L2.4 -39.45 2.2 -39.3 Q1.8 -39.05 0.55 -39.05 L0.0 -39.2 -0.25 -39.15 -0.35 -39.05 -0.25 -39.05 0.85 -38.9 Q2.0 -38.9 2.55 -39.2 2.85 -39.4 4.4 -39.05 4.65 -38.85 5.35 -38.75 L6.2 -38.65 Q7.15 -38.4 8.1 -38.05 9.05 -37.65 9.55 -37.25 11.2 -35.9 11.8 -35.35 13.15 -34.15 13.5 -33.3 13.65 -32.8 14.95 -31.3 16.3 -29.8 16.55 -29.3 L16.5 -29.4 Q16.2 -30.9 16.05 -31.45 15.85 -32.1 14.3 -33.55 12.7 -35.05 12.45 -35.75 L13.05 -35.35 Q13.6 -34.95 13.85 -34.85 L13.9 -34.8 13.9 -35.0 Q13.9 -35.6 12.2 -36.3 10.15 -37.05 9.55 -37.4 9.05 -37.7 8.65 -38.15 L8.05 -39.0 Q7.4 -39.95 6.35 -39.85 L6.35 -40.0 M8.9 -35.35 Q5.6 -37.55 1.7 -37.55 -3.0 -37.55 -6.4 -35.75 -7.4 -35.2 -8.55 -34.3 L-9.75 -33.25 Q-12.15 -31.05 -12.75 -29.6 -13.55 -27.8 -14.05 -25.9 -14.75 -23.55 -14.75 -22.05 -14.75 -18.35 -12.45 -14.55 -11.05 -12.15 -9.1 -10.25 L-8.35 -9.9 -6.15 -8.8 Q-4.95 -8.2 -3.65 -7.8 -1.2 -7.0 1.4 -7.0 L3.2 -7.2 Q5.0 -7.45 5.2 -7.6 L5.25 -7.65 5.3 -7.5 6.35 -8.0 Q8.55 -9.05 9.6 -10.2 10.15 -10.8 11.35 -12.25 12.15 -13.15 12.85 -13.6 14.1 -15.2 14.85 -17.05 15.8 -19.55 15.8 -22.45 15.8 -24.1 15.45 -25.3 15.25 -26.0 14.3 -28.55 13.85 -29.65 12.05 -32.0 11.15 -33.15 10.75 -33.85 9.8 -34.7 8.9 -35.35 M15.3 -37.3 Q15.8 -36.95 16.25 -36.75 L16.65 -36.5 Q16.8 -36.45 16.8 -36.3 L16.8 -35.75 Q16.8 -35.65 17.15 -34.8 17.45 -33.9 17.55 -33.75 17.0 -34.1 16.5 -35.35 15.95 -36.7 15.25 -37.2 L15.3 -37.25 15.3 -37.3 M15.5 -33.2 Q16.35 -31.6 16.8 -30.05 17.1 -28.85 17.2 -27.85 17.3 -27.45 17.2 -27.2 L17.2 -26.8 17.25 -26.85 17.45 -27.5 17.55 -27.5 17.6 -27.05 Q17.95 -27.3 18.15 -27.55 18.55 -27.95 18.55 -28.3 18.55 -31.7 15.5 -33.25 L15.5 -33.2 M19.2 -32.15 Q20.05 -31.3 20.25 -30.9 L20.75 -29.55 Q21.15 -28.5 21.15 -28.3 21.15 -28.1 20.9 -27.7 L20.55 -27.1 20.4 -27.2 20.55 -28.1 20.65 -28.85 Q20.65 -30.2 19.8 -31.4 19.45 -31.85 18.9 -32.4 L19.2 -32.15 M18.05 -33.2 L18.05 -33.2 M19.65 -25.45 L19.75 -25.45 Q19.6 -24.95 20.25 -23.9 21.0 -22.75 21.0 -22.3 21.0 -22.0 20.65 -21.1 20.3 -20.2 20.3 -19.9 20.3 -19.45 20.35 -18.55 L20.45 -17.5 20.4 -17.15 20.35 -16.75 Q20.35 -16.7 20.3 -16.65 19.75 -20.45 19.75 -20.9 L20.15 -23.05 19.6 -24.95 19.65 -25.45 M17.1 -17.0 Q18.35 -19.1 18.35 -19.35 18.35 -19.95 18.1 -20.55 L17.6 -21.6 17.3 -22.25 17.35 -21.4 Q17.35 -20.8 17.2 -19.2 17.1 -17.85 17.1 -17.0 M18.4 -18.95 Q18.1 -18.3 17.7 -17.3 L17.1 -15.7 Q16.3 -13.9 14.7 -12.7 16.3 -12.75 17.05 -13.85 17.6 -14.55 17.65 -15.65 17.7 -16.1 18.1 -17.25 18.45 -18.35 18.4 -18.95 M10.1 -8.15 L9.9 -8.15 Q9.85 -8.2 9.85 -8.35 L9.65 -8.15 Q9.3 -7.9 8.55 -7.15 7.9 -6.45 7.3 -6.1 6.1 -5.3 3.9 -5.1 4.45 -4.9 4.7 -4.9 6.2 -4.9 8.2 -6.35 9.65 -7.4 10.3 -8.25 L10.1 -8.15 M9.3 -3.9 L8.15 -3.8 Q7.45 -3.75 7.05 -3.6 L6.75 -3.6 Q8.75 -4.0 9.5 -4.2 10.45 -4.45 11.05 -4.8 11.45 -5.0 12.0 -5.5 12.65 -6.05 12.95 -6.5 13.65 -7.65 14.15 -8.3 15.1 -9.5 15.85 -9.85 L14.4 -8.15 Q13.5 -7.05 13.05 -6.4 12.95 -6.25 12.3 -5.65 L11.4 -4.8 Q10.7 -4.1 9.3 -3.9 M19.5 -12.85 L19.5 -12.55 Q19.5 -12.1 19.15 -11.8 18.85 -11.65 18.25 -11.45 17.5 -11.2 17.3 -11.1 16.8 -10.9 16.6 -10.5 L16.55 -10.7 Q16.9 -11.25 18.0 -12.05 L19.5 -13.05 Q19.45 -12.95 19.5 -12.85 M-12.7 -38.0 Q-12.85 -37.6 -13.05 -37.3 -13.35 -36.9 -14.5 -35.8 -15.45 -34.85 -15.7 -34.4 L-15.7 -34.3 Q-15.75 -34.3 -15.75 -34.5 -15.75 -35.85 -14.9 -36.3 L-14.15 -36.65 Q-13.65 -36.9 -13.35 -37.35 -13.1 -37.65 -12.5 -38.95 -12.0 -40.0 -11.55 -40.3 -11.25 -40.3 -11.25 -40.2 -12.1 -39.75 -12.45 -38.8 L-12.7 -38.0 M-12.5 -34.4 Q-16.2 -31.1 -16.2 -25.75 -16.2 -25.3 -16.15 -24.75 L-15.95 -25.75 Q-15.05 -29.85 -14.5 -30.9 -13.65 -32.6 -12.7 -33.75 L-12.5 -34.4 M-16.25 -28.75 Q-16.9 -27.6 -17.6 -27.2 -17.75 -27.05 -17.8 -26.9 -17.85 -26.75 -17.85 -26.1 -17.85 -25.95 -17.95 -25.5 L-18.1 -24.85 Q-18.1 -24.0 -17.5 -22.6 L-16.7 -20.95 -16.75 -21.4 Q-16.75 -21.85 -16.3 -24.05 -16.6 -25.45 -16.6 -25.7 -16.6 -26.2 -16.45 -27.3 -16.3 -28.35 -16.2 -28.65 L-16.25 -28.75 M-1.45 -39.35 Q-3.25 -39.45 -3.75 -39.65 L-3.7 -39.6 Q-3.2 -39.2 -2.55 -39.2 L-1.95 -39.25 -1.45 -39.35 M-5.3 -40.05 Q-5.85 -40.3 -6.1 -40.3 -8.55 -40.3 -9.55 -39.3 -10.1 -38.7 -10.1 -37.9 -10.1 -36.85 -10.85 -35.35 L-10.7 -35.4 Q-9.8 -35.85 -7.8 -36.95 L-7.15 -37.25 Q-6.25 -38.3 -5.7 -38.3 -5.55 -38.3 -5.35 -38.15 L-5.3 -38.1 -4.7 -38.35 -5.2 -38.1 -5.0 -38.05 Q-4.9 -38.05 -3.5 -38.55 -3.9 -38.65 -4.1 -38.9 -4.55 -39.3 -5.5 -39.3 -6.6 -39.3 -8.45 -37.3 L-8.15 -37.65 Q-6.75 -39.15 -5.45 -40.0 L-5.3 -40.05 M-7.15 -41.7 Q-7.6 -41.7 -8.3 -41.9 L-6.85 -42.05 -5.15 -41.9 -6.25 -41.8 -7.15 -41.7 M-18.2 -27.45 L-18.9 -27.05 Q-19.15 -26.9 -19.15 -26.45 -19.15 -26.4 -19.45 -25.7 L-19.8 -24.75 -20.0 -25.15 Q-20.1 -25.45 -20.1 -25.6 -20.1 -26.1 -19.55 -26.6 -18.6 -27.4 -18.45 -27.55 -18.2 -27.5 -18.2 -27.45 M-20.3 -21.3 Q-20.35 -21.1 -20.35 -20.95 -20.35 -19.6 -19.5 -18.15 L-18.65 -16.8 Q-18.1 -15.9 -17.7 -15.05 -19.65 -17.55 -19.9 -17.9 -20.5 -18.95 -20.5 -20.6 -20.5 -21.0 -20.35 -21.55 L-20.3 -21.55 Q-20.25 -21.45 -20.3 -21.3 M-16.2 -12.75 Q-15.95 -12.3 -15.7 -12.15 L-14.75 -11.6 Q-14.5 -11.4 -14.5 -11.2 L-14.55 -10.7 -14.6 -10.3 Q-15.15 -10.7 -15.75 -11.7 L-16.7 -13.35 -16.65 -13.4 Q-16.55 -13.3 -16.2 -12.75 M-13.3 -8.7 Q-14.35 -9.7 -14.65 -10.25 L-11.7 -7.5 -8.45 -4.45 Q-9.95 -4.65 -10.5 -5.45 L-11.0 -6.3 Q-11.35 -6.85 -11.8 -7.3 L-13.3 -8.7 M-9.5 -8.4 Q-8.5 -7.3 -7.9 -6.7 L-6.25 -6.35 -5.9 -6.3 Q-7.2 -6.9 -8.8 -7.95 L-9.5 -8.4 M-0.25 -6.75 L0.0 -6.8 -0.6 -6.85 -0.25 -6.75 M-4.3 -2.6 Q-5.45 -3.3 -5.75 -3.45 -5.05 -3.3 -3.85 -2.85 -2.6 -2.4 -2.1 -2.25 L-2.7 -2.15 -3.15 -2.1 Q-3.55 -2.1 -4.3 -2.6" fill="#8cc1ff" fill-opacity="0.7529412" fill-rule="evenodd" stroke="none"/>
    <path d="M8.65 -36.6 Q9.5 -36.3 10.05 -35.7 L10.95 -34.6 12.7 -32.5 13.1 -31.9 Q14.75 -31.4 15.75 -27.8 16.2 -26.35 16.45 -24.55 16.65 -23.15 16.65 -22.25 16.65 -20.55 16.55 -19.5 16.4 -18.4 16.2 -17.8 L16.25 -17.55 Q16.25 -16.25 14.85 -14.4 13.7 -13.0 11.6 -11.1 11.35 -10.85 10.95 -10.35 L10.3 -9.5 Q9.35 -8.45 8.0 -7.85 7.0 -7.4 5.75 -6.95 3.25 -6.05 1.8 -6.05 0.0 -6.05 -0.9 -6.45 L-1.25 -6.6 Q-5.7 -6.75 -8.15 -8.4 -9.15 -9.1 -10.15 -10.25 L-10.8 -11.0 Q-11.2 -11.25 -11.8 -11.95 -12.4 -12.75 -12.95 -13.6 -13.25 -14.15 -13.6 -14.95 L-14.15 -16.35 Q-14.3 -16.75 -14.45 -17.7 -14.7 -18.5 -15.35 -19.0 -15.75 -19.3 -15.95 -20.15 -16.05 -20.75 -16.05 -21.65 -16.05 -21.95 -15.0 -25.2 -13.95 -28.55 -13.5 -29.5 L-12.75 -31.45 Q-12.25 -32.75 -11.85 -33.4 -11.35 -34.25 -9.4 -35.05 L-8.05 -35.55 Q-6.05 -37.65 -1.5 -38.05 0.55 -38.25 2.55 -38.05 L3.0 -38.0 3.5 -38.1 4.2 -38.25 Q5.15 -38.25 6.65 -37.55 L8.65 -36.6 M1.75 -37.1 L-0.1 -37.3 Q-3.05 -37.3 -6.1 -35.95 -7.7 -35.25 -8.9 -34.4 -11.5 -32.3 -13.0 -29.1 -14.65 -25.5 -14.65 -21.45 -14.65 -20.0 -14.35 -19.1 -13.8 -17.75 -13.3 -16.3 -13.0 -15.45 -11.85 -13.9 -10.45 -12.0 -10.05 -11.3 L-10.05 -11.25 -9.75 -11.05 Q-8.15 -10.0 -7.15 -9.45 -4.35 -7.85 -1.55 -7.05 L-1.6 -7.1 -1.5 -7.25 Q-1.4 -7.35 -1.2 -7.35 L1.75 -6.85 Q3.45 -6.85 6.05 -8.05 7.4 -8.65 8.65 -9.4 9.85 -9.9 10.4 -10.85 L10.85 -11.65 Q11.2 -12.15 11.7 -12.6 13.2 -13.8 14.15 -15.85 L14.85 -17.4 Q15.2 -18.2 15.5 -18.7 L15.6 -20.35 15.7 -22.8 Q15.7 -23.95 15.5 -25.1 L15.0 -27.5 Q14.8 -28.15 13.8 -29.7 13.2 -30.6 12.85 -31.25 12.35 -31.7 11.8 -32.3 L9.65 -34.5 Q7.45 -36.55 4.5 -37.45 3.55 -37.05 1.75 -37.1" fill="#bfdcff" fill-opacity="0.7529412" fill-rule="evenodd" stroke="none"/>
    <path d="M1.4 -36.95 L-0.5 -37.1 Q-0.55 -37.1 -0.65 -37.2 -0.75 -37.3 -0.95 -37.3 -3.35 -37.3 -5.7 -36.0 -6.4 -35.6 -7.15 -35.05 L-8.0 -34.5 -9.2 -33.8 -9.25 -33.8 Q-9.7 -33.35 -9.7 -33.2 -9.7 -33.05 -10.15 -32.5 L-11.2 -31.2 Q-12.85 -29.2 -13.35 -27.65 -14.0 -25.85 -14.3 -24.9 -14.8 -23.15 -14.8 -22.05 -14.8 -21.45 -14.2 -19.45 L-13.65 -17.6 Q-12.45 -14.65 -10.1 -11.8 -8.9 -10.35 -5.55 -8.95 -1.95 -7.6 -0.7 -7.05 L1.0 -7.05 Q0.8 -7.05 0.9 -6.95 1.0 -6.8 1.0 -7.05 1.0 -6.7 2.35 -6.95 3.95 -7.25 6.1 -8.3 L8.1 -9.2 Q9.25 -9.75 9.65 -10.2 9.9 -10.4 10.45 -11.45 10.9 -12.3 11.5 -12.75 12.0 -13.1 12.9 -14.0 L13.4 -14.55 Q13.7 -15.15 14.2 -16.1 14.9 -17.4 15.2 -18.2 15.7 -19.6 15.7 -22.2 15.7 -24.1 15.0 -26.5 14.2 -29.2 13.05 -30.4 12.55 -30.9 11.4 -32.4 10.4 -33.75 9.65 -34.45 7.2 -36.7 2.95 -37.1 L2.85 -37.05 Q2.35 -36.9 2.25 -36.9 L1.4 -36.95 M3.3 -37.25 Q4.7 -37.5 6.95 -36.65 9.4 -35.7 9.95 -34.75 11.0 -33.8 12.0 -32.55 12.6 -31.8 13.8 -30.2 15.25 -28.3 15.8 -25.6 16.15 -23.7 16.15 -20.75 L16.05 -19.75 Q15.95 -18.95 15.95 -18.75 15.95 -18.6 15.85 -18.3 15.75 -17.95 15.75 -17.8 15.75 -17.35 14.85 -15.9 14.35 -15.0 13.85 -14.55 13.85 -13.85 11.7 -12.05 11.25 -11.7 10.75 -10.75 10.25 -9.8 9.9 -9.5 9.2 -8.95 6.65 -7.85 3.25 -6.35 1.15 -6.35 0.5 -6.35 -0.45 -6.55 -1.15 -6.7 -1.5 -6.85 L-1.55 -6.85 Q-1.35 -6.8 -1.5 -6.75 -1.55 -6.7 -1.55 -6.85 L-1.6 -6.9 -3.65 -7.5 Q-6.15 -8.25 -7.75 -8.85 -8.95 -9.3 -9.5 -10.25 L-10.05 -11.1 Q-10.35 -11.65 -10.8 -12.05 -12.25 -13.45 -13.1 -15.2 -13.75 -16.45 -14.05 -17.7 -14.75 -18.7 -15.05 -19.5 -15.35 -20.4 -15.35 -21.95 -15.35 -22.5 -14.6 -25.3 L-13.8 -28.25 Q-13.6 -29.3 -12.6 -30.65 -12.6 -30.7 -12.65 -30.7 L-12.65 -30.9 Q-12.65 -31.9 -10.6 -33.45 -10.2 -33.75 -8.9 -34.6 -7.9 -35.3 -7.55 -35.65 -5.6 -37.35 -1.4 -37.55 -0.2 -37.6 1.6 -37.5 3.2 -37.45 3.55 -37.5 3.45 -37.4 3.3 -37.25 M-10.7 -32.65 L-9.9 -33.4 Q-10.35 -33.1 -10.7 -32.7 L-10.7 -32.65" fill="#ffffff" fill-rule="evenodd" stroke="none"/>
  </g>
</svg>
