<?xml version="1.0" encoding="UTF-8" standalone="no"?>
<svg xmlns:ffdec="https://www.free-decompiler.com/flash" xmlns:xlink="http://www.w3.org/1999/xlink" ffdec:objectType="shape" height="47.1px" width="47.15px" xmlns="http://www.w3.org/2000/svg">
  <g transform="matrix(1.0, 0.0, 0.0, 1.0, 23.6, 46.6)">
    <path d="M2.6 -46.5 Q8.4 -45.5 11.8 -43.65 13.2 -42.9 14.55 -41.8 L16.9 -39.75 Q18.55 -38.25 19.9 -35.95 20.5 -34.9 21.6 -32.65 22.45 -32.1 23.05 -29.3 23.55 -26.9 23.55 -24.85 L23.35 -22.5 23.15 -19.55 Q23.05 -18.05 22.85 -16.95 22.55 -15.5 22.05 -14.35 20.6 -11.2 18.8 -9.05 L18.15 -8.25 18.9 -8.9 Q18.4 -7.75 16.2 -6.1 13.65 -4.35 12.65 -3.5 12.15 -3.05 10.2 -2.3 8.85 -1.8 7.7 -1.45 5.75 -0.7 3.4 -0.15 3.15 0.05 2.0 0.3 0.95 0.5 0.4 0.5 L0.0 0.45 -1.2 0.4 Q-1.45 0.35 -1.55 0.25 -2.2 0.15 -2.7 -0.15 -3.55 -0.6 -4.85 -0.6 L-5.65 -0.7 -6.45 -0.75 Q-7.0 -0.75 -8.25 -1.3 -9.7 -1.95 -10.5 -2.1 -14.7 -4.35 -17.55 -7.75 -20.25 -10.65 -21.75 -14.2 -23.6 -18.7 -23.6 -24.7 -23.6 -27.5 -22.5 -30.7 -21.3 -34.2 -19.05 -37.2 -16.55 -40.6 -13.1 -42.85 -9.15 -45.4 -4.3 -46.3 L-4.55 -46.25 -2.55 -46.55 1.7 -46.6 2.6 -46.5 M0.45 -41.45 Q-3.55 -41.3 -7.05 -39.8 -10.55 -38.25 -13.2 -35.5 -15.7 -32.95 -17.05 -29.7 -18.35 -26.6 -18.35 -23.55 -18.35 -19.75 -17.1 -16.45 -16.1 -13.75 -14.1 -10.9 L-13.0 -9.75 Q-11.8 -8.55 -10.6 -7.65 -8.45 -6.0 -5.7 -4.95 L-5.85 -5.05 -5.9 -5.15 Q-5.45 -4.95 -4.3 -4.65 -2.9 -4.3 -1.45 -4.05 L0.85 -4.05 Q4.1 -4.25 7.25 -5.55 7.85 -5.8 9.05 -6.4 L9.3 -6.6 Q9.8 -7.0 10.55 -7.05 L10.65 -7.05 Q16.3 -10.9 18.0 -16.1 18.65 -18.05 18.85 -20.7 19.0 -21.95 19.1 -24.3 18.9 -26.65 18.1 -28.85 17.05 -31.7 15.15 -33.9 13.65 -35.6 12.65 -36.55 11.2 -37.85 9.65 -38.75 6.3 -40.65 0.45 -41.45 M-21.2 -13.45 Q-20.2 -11.15 -18.6 -9.15 -19.85 -10.9 -21.2 -13.45" fill="#59a5ff" fill-opacity="0.5019608" fill-rule="evenodd" stroke="none"/>
    <path d="M0.5 -42.75 Q1.05 -42.65 1.6 -42.45 4.4 -42.4 6.75 -41.4 L6.7 -41.5 Q6.25 -42.1 6.05 -42.25 5.6 -42.55 5.0 -42.6 L4.0 -42.7 Q4.0 -42.75 3.5 -42.95 3.15 -43.1 2.45 -43.1 1.7 -43.1 0.5 -42.75 M6.3 -42.5 L7.8 -41.05 Q8.2 -40.7 8.6 -40.4 L9.1 -40.1 Q9.55 -39.8 10.05 -39.6 9.95 -39.75 9.85 -39.95 L9.8 -40.0 9.7 -40.4 Q9.5 -41.0 9.35 -41.3 8.7 -42.4 6.55 -42.6 6.55 -42.55 6.3 -42.5 M6.45 -43.0 Q8.15 -42.95 8.8 -42.4 9.35 -41.9 9.7 -41.3 L10.25 -40.2 Q10.3 -40.1 11.0 -39.4 L11.9 -39.0 14.15 -38.05 Q16.65 -36.85 16.65 -35.5 16.65 -34.9 18.0 -33.6 19.65 -32.05 19.85 -31.65 20.4 -30.7 20.8 -29.75 21.25 -28.55 21.25 -27.7 21.25 -27.45 21.1 -27.3 L20.8 -27.05 Q20.35 -26.65 20.35 -25.4 L20.25 -25.35 Q20.15 -25.25 20.05 -25.25 L19.95 -25.5 20.2 -24.0 Q20.4 -22.4 20.4 -22.05 L20.1 -20.3 Q19.8 -18.65 19.8 -17.5 L19.75 -16.45 19.75 -16.3 19.7 -16.35 19.6 -15.5 Q19.25 -13.8 19.2 -13.3 19.05 -12.25 18.0 -11.45 L17.2 -10.85 16.7 -10.35 Q16.15 -9.8 15.05 -9.15 14.35 -8.5 13.45 -7.5 L11.55 -5.45 Q10.7 -4.6 8.75 -3.8 6.25 -2.75 3.5 -2.75 L1.4 -2.35 Q-0.75 -1.95 -1.2 -1.95 -2.85 -1.95 -3.7 -2.15 -4.3 -2.3 -4.9 -2.7 -5.9 -3.45 -6.15 -3.55 -7.15 -4.15 -8.75 -4.65 -9.8 -5.0 -10.8 -6.4 L-11.3 -7.15 Q-11.55 -7.3 -11.75 -7.45 L-13.2 -8.15 Q-14.2 -8.6 -14.75 -9.0 -15.55 -9.65 -16.15 -10.8 L-16.45 -11.45 Q-16.2 -11.0 -15.8 -10.55 -14.65 -9.25 -12.35 -8.05 L-13.8 -9.2 Q-14.65 -9.85 -15.35 -10.6 -15.75 -11.05 -16.25 -11.95 L-16.9 -13.15 Q-16.9 -12.65 -16.75 -12.15 L-17.0 -12.75 -17.9 -14.95 -17.95 -15.0 -18.05 -15.05 Q-18.35 -15.2 -18.45 -15.4 -18.75 -15.8 -18.85 -16.35 L-19.35 -17.2 Q-20.65 -19.3 -20.65 -19.75 -20.65 -20.2 -20.55 -20.9 -20.45 -21.65 -20.45 -21.95 -20.45 -23.9 -19.95 -25.4 -19.1 -28.05 -18.8 -29.5 -18.7 -29.9 -18.2 -30.9 -17.95 -31.5 -17.55 -32.1 -17.25 -32.8 -17.15 -33.2 -17.05 -34.0 -16.0 -35.05 L-14.95 -36.0 -14.95 -36.05 -15.05 -35.95 -15.25 -35.95 Q-14.95 -36.2 -14.65 -36.45 -14.0 -37.4 -13.2 -38.0 L-13.0 -38.25 Q-11.8 -39.7 -10.9 -40.35 -9.05 -41.65 -6.0 -41.95 L-3.7 -42.2 Q-2.4 -42.4 -1.6 -42.75 -0.1 -43.4 2.65 -43.35 3.7 -43.15 6.45 -43.0 M9.4 -38.6 L7.05 -39.7 Q3.5 -41.4 -0.9 -41.4 -1.15 -41.4 -3.4 -40.9 L-4.15 -40.7 -6.0 -39.9 Q-9.35 -38.4 -9.95 -38.0 -11.85 -36.9 -14.85 -33.75 -16.05 -32.5 -17.15 -29.55 -18.25 -26.65 -18.25 -24.9 -18.25 -24.1 -18.15 -21.85 -18.0 -19.6 -17.95 -19.35 -17.75 -18.55 -16.8 -16.25 L-16.1 -14.5 -14.7 -12.4 Q-14.4 -11.9 -13.1 -10.65 -11.95 -9.55 -11.65 -8.85 -10.85 -7.05 -6.8 -5.6 -4.05 -4.55 -0.25 -3.85 L1.6 -4.1 Q3.55 -4.55 4.6 -4.85 4.95 -5.0 5.5 -5.0 5.75 -5.0 6.8 -5.5 7.9 -6.1 8.0 -6.15 9.35 -6.5 9.95 -6.95 L11.5 -7.9 Q12.5 -8.6 13.0 -9.0 13.5 -9.4 15.25 -11.25 L15.9 -11.9 Q16.0 -12.25 16.4 -13.05 17.15 -14.7 17.5 -15.6 18.85 -18.9 19.1 -22.0 L19.05 -22.05 19.15 -22.95 19.15 -23.5 Q19.15 -28.3 16.2 -32.5 15.5 -33.45 14.15 -35.0 13.2 -36.1 13.2 -36.35 13.2 -36.5 11.9 -37.35 11.3 -37.75 10.85 -38.1 10.15 -38.25 9.4 -38.6 M14.95 -36.5 L12.45 -38.15 Q13.95 -36.9 15.85 -34.55 L16.75 -33.4 16.65 -33.65 16.3 -34.7 Q16.05 -35.45 15.65 -35.95 15.35 -36.25 14.95 -36.5 M16.95 -34.5 Q17.4 -33.35 17.7 -32.8 18.05 -32.2 18.4 -31.3 18.95 -30.6 19.35 -29.65 L19.45 -29.3 Q19.6 -29.0 19.6 -28.9 L19.7 -28.5 20.0 -27.65 Q20.05 -27.75 20.2 -28.2 L20.3 -28.75 Q20.3 -29.5 19.75 -30.55 19.2 -31.6 18.25 -32.55 17.9 -32.95 17.0 -34.45 L16.95 -34.5 M19.3 -17.65 L19.25 -18.0 Q18.7 -15.1 18.7 -14.85 18.7 -14.4 17.9 -12.9 17.35 -11.9 16.9 -11.5 16.65 -11.15 16.35 -10.8 L17.4 -11.8 Q17.8 -12.4 18.7 -13.45 19.5 -14.45 19.5 -15.4 19.5 -16.35 19.3 -17.65 M5.1 -3.4 Q6.1 -3.5 6.8 -3.7 8.05 -4.5 9.35 -5.6 L9.4 -5.6 Q8.6 -5.25 7.5 -4.8 6.85 -4.55 6.25 -4.15 L5.4 -3.55 5.1 -3.4 M9.55 -4.95 Q10.4 -5.25 10.65 -5.5 L11.65 -6.45 Q12.45 -7.1 12.7 -7.4 13.0 -7.75 14.3 -8.75 L14.15 -8.65 12.45 -7.3 Q11.65 -6.7 10.45 -6.1 L10.05 -5.9 9.0 -4.75 9.55 -4.95 M-16.5 -33.4 Q-16.2 -33.8 -15.85 -34.4 L-15.2 -35.55 -15.75 -34.9 Q-16.3 -34.1 -16.5 -33.4 M-5.7 -41.3 Q-7.9 -41.0 -8.55 -40.65 -9.65 -40.05 -11.2 -38.9 -10.35 -39.05 -9.85 -39.3 -9.5 -39.45 -8.9 -39.75 L-7.85 -40.3 Q-6.6 -40.9 -5.4 -41.2 L-4.75 -41.3 -4.5 -41.45 -5.7 -41.3 M-19.15 -26.8 L-19.75 -25.25 Q-20.15 -24.0 -20.15 -21.95 -20.15 -20.5 -19.3 -18.45 L-19.1 -18.1 -19.35 -19.7 Q-19.55 -21.45 -19.55 -22.0 -19.55 -22.55 -19.3 -24.9 -19.1 -26.75 -18.95 -27.4 L-19.15 -26.8 M-2.95 -2.7 L-2.45 -2.65 -2.0 -2.7 -2.2 -2.7 Q-2.3 -2.7 -2.6 -2.85 -2.9 -2.95 -3.0 -3.05 L-2.7 -3.3 Q-3.6 -3.5 -5.6 -4.15 L-6.8 -4.5 Q-5.85 -4.1 -5.55 -3.95 -4.4 -3.4 -3.8 -2.75 L-2.95 -2.7" fill="#8cc1ff" fill-opacity="0.7529412" fill-rule="evenodd" stroke="none"/>
    <path d="M8.65 -38.6 L7.95 -39.1 Q7.2 -39.65 6.35 -40.05 3.45 -41.4 -1.35 -41.4 L-2.2 -41.25 -2.75 -41.15 Q-3.6 -40.75 -5.05 -40.15 -8.2 -38.9 -8.85 -38.55 L-10.3 -37.65 Q-11.0 -37.2 -11.5 -36.95 -13.2 -35.3 -14.1 -34.35 -15.9 -32.5 -16.35 -31.2 L-17.45 -27.75 Q-18.25 -25.3 -18.25 -25.0 -18.25 -22.5 -18.1 -21.2 -17.95 -19.65 -17.5 -18.3 -17.05 -17.0 -16.05 -15.1 -15.45 -13.95 -13.8 -11.15 -13.45 -10.9 -13.0 -10.5 -12.3 -9.85 -12.05 -9.5 -11.6 -8.75 -10.65 -7.85 L-9.6 -6.9 -7.75 -6.3 -4.85 -5.3 -3.65 -4.7 Q-2.85 -4.3 -2.5 -4.25 L-0.4 -4.15 1.35 -4.0 3.0 -4.5 Q5.2 -5.1 5.85 -5.3 6.4 -5.5 7.65 -6.1 8.85 -6.7 9.95 -7.05 11.9 -7.7 13.6 -9.35 L14.55 -10.35 Q17.1 -14.1 18.0 -16.3 19.05 -18.85 19.05 -21.85 19.05 -26.2 17.6 -29.7 16.55 -32.25 13.75 -36.05 L13.9 -36.05 Q16.65 -33.9 18.35 -30.2 19.9 -26.85 19.9 -23.9 19.9 -22.85 19.35 -20.2 L18.6 -16.95 Q18.05 -14.6 17.5 -13.45 16.75 -12.0 15.55 -11.0 15.05 -10.15 14.15 -9.2 12.8 -7.85 11.3 -6.9 10.95 -6.7 10.2 -6.5 9.15 -6.25 8.75 -6.1 8.1 -5.85 6.85 -5.2 6.1 -4.8 4.5 -4.15 2.65 -3.45 2.05 -3.45 L1.55 -3.5 1.4 -3.45 -0.85 -3.35 Q-2.4 -3.35 -4.6 -4.1 L-6.9 -4.95 Q-8.25 -5.15 -9.15 -6.0 L-9.3 -6.1 Q-10.2 -6.45 -11.0 -7.15 -11.65 -7.75 -12.8 -9.0 -13.95 -10.05 -14.6 -10.8 -15.35 -11.75 -15.55 -12.5 -17.0 -14.3 -17.9 -16.75 -19.2 -20.1 -19.2 -23.55 -19.2 -23.7 -18.8 -25.25 L-18.25 -27.3 Q-18.15 -27.6 -18.0 -29.1 -17.85 -30.35 -17.45 -30.95 -17.15 -31.4 -16.3 -32.8 L-15.2 -34.6 Q-15.05 -34.8 -14.4 -35.25 -14.3 -36.1 -12.65 -37.25 -11.15 -38.35 -8.65 -39.5 -6.4 -40.5 -4.3 -41.15 -2.2 -41.85 -1.55 -41.75 0.75 -42.15 3.35 -41.55 5.55 -41.1 8.6 -39.75 11.55 -38.8 12.8 -37.35 13.2 -36.9 13.75 -36.05 14.35 -35.1 14.7 -34.65 13.8 -34.6 13.2 -35.35 12.85 -35.8 12.35 -36.65 12.05 -37.0 10.95 -37.55 10.3 -37.85 8.65 -38.6" fill="#bfdcff" fill-opacity="0.7529412" fill-rule="evenodd" stroke="none"/>
    <path d="M9.85 -38.3 Q10.8 -37.65 12.1 -37.1 12.1 -37.4 12.15 -37.1 L12.15 -37.15 Q12.6 -36.7 14.05 -35.55 15.2 -34.55 15.85 -33.75 16.3 -33.15 16.85 -32.1 L17.75 -30.3 Q18.8 -28.05 19.15 -26.65 19.4 -25.5 19.4 -23.4 19.4 -22.25 19.1 -20.65 L18.6 -18.35 18.65 -18.3 Q18.7 -18.15 18.7 -17.95 18.7 -17.15 17.95 -15.55 17.25 -13.95 16.15 -12.3 13.85 -8.95 11.95 -7.8 11.35 -7.35 10.4 -6.95 9.5 -6.6 7.3 -5.9 5.75 -5.15 4.45 -4.65 1.95 -3.75 0.0 -3.75 L-2.75 -3.9 Q-3.6 -4.0 -4.35 -4.35 L-5.95 -5.2 Q-7.15 -5.9 -8.55 -6.45 L-8.45 -6.55 -8.2 -6.55 Q-7.35 -6.55 -6.55 -6.2 L-5.05 -5.4 Q-2.9 -4.3 -0.3 -4.3 2.0 -4.3 6.6 -5.95 8.7 -6.7 11.45 -7.8 14.45 -10.1 16.2 -13.1 16.85 -14.3 17.5 -15.9 L18.3 -17.9 Q18.4 -18.85 18.75 -20.7 19.05 -22.25 19.05 -23.35 19.05 -24.8 18.45 -26.8 18.1 -28.0 17.25 -30.3 16.85 -31.45 15.25 -33.75 15.05 -34.05 13.45 -35.45 12.25 -36.55 12.1 -37.0 L12.05 -37.0 Q11.8 -37.0 10.2 -37.65 8.5 -38.35 8.1 -38.65 7.0 -39.55 6.4 -39.85 5.0 -40.6 3.0 -40.8 1.75 -40.95 1.65 -41.0 L0.6 -41.05 -0.5 -41.15 -1.7 -41.15 Q-3.25 -40.95 -5.0 -40.1 -6.25 -39.45 -7.1 -39.2 -7.2 -39.15 -7.35 -39.1 L-9.2 -38.3 Q-10.0 -37.9 -10.75 -37.25 -11.5 -36.65 -11.9 -36.4 -13.15 -35.5 -14.1 -34.35 -14.95 -33.4 -15.8 -32.0 -16.85 -30.35 -17.5 -27.65 -18.1 -25.15 -18.1 -23.0 L-17.95 -21.9 -17.85 -20.8 -17.85 -20.75 Q-17.35 -18.85 -17.0 -17.8 -16.25 -15.55 -15.3 -13.8 -12.9 -9.3 -8.2 -6.2 L-8.25 -6.15 -8.5 -6.15 Q-9.1 -6.15 -10.85 -7.6 -12.05 -8.6 -12.95 -9.5 -13.8 -10.35 -14.4 -11.4 L-15.5 -13.35 Q-16.8 -15.45 -17.45 -17.2 -18.15 -19.1 -18.2 -20.75 -18.35 -21.15 -18.45 -21.8 L-18.65 -22.95 Q-18.65 -23.8 -17.7 -27.65 -16.8 -31.2 -16.6 -31.75 -14.2 -37.25 -6.5 -39.8 L-5.15 -40.65 Q-3.4 -41.5 -0.2 -41.45 L1.9 -41.3 Q6.55 -40.55 8.4 -39.4 L9.85 -38.3" fill="#ffffff" fill-rule="evenodd" stroke="none"/>
  </g>
</svg>
