<?xml version="1.0" encoding="UTF-8" standalone="no"?>
<svg xmlns:ffdec="https://www.free-decompiler.com/flash" xmlns:xlink="http://www.w3.org/1999/xlink" ffdec:objectType="shape" height="47.1px" width="47.15px" xmlns="http://www.w3.org/2000/svg">
  <g transform="matrix(1.0, 0.0, 0.0, 1.0, 23.6, 46.6)">
    <path d="M2.6 -46.5 Q8.4 -45.5 11.8 -43.65 13.2 -42.9 14.55 -41.8 L16.9 -39.75 Q18.55 -38.25 19.9 -35.95 20.5 -34.9 21.6 -32.65 22.45 -32.1 23.05 -29.3 23.55 -26.9 23.55 -24.85 L23.35 -22.5 23.15 -19.55 Q23.05 -18.05 22.85 -16.95 22.55 -15.5 22.05 -14.35 20.6 -11.2 18.8 -9.05 L18.15 -8.25 18.9 -8.9 Q18.4 -7.75 16.2 -6.1 13.65 -4.35 12.65 -3.5 12.15 -3.05 10.2 -2.3 8.85 -1.8 7.7 -1.45 5.75 -0.7 3.4 -0.15 3.15 0.05 2.0 0.3 0.95 0.5 0.4 0.5 L0.0 0.45 -1.2 0.4 Q-1.45 0.35 -1.55 0.25 -2.2 0.15 -2.7 -0.15 -3.55 -0.6 -4.85 -0.6 L-5.65 -0.7 -6.45 -0.75 Q-7.0 -0.75 -8.25 -1.3 -9.7 -1.95 -10.5 -2.1 -14.7 -4.35 -17.55 -7.75 -20.25 -10.65 -21.75 -14.2 -23.6 -18.7 -23.6 -24.7 -23.6 -27.5 -22.5 -30.7 -21.3 -34.2 -19.05 -37.2 -16.55 -40.6 -13.1 -42.85 -9.15 -45.4 -4.3 -46.3 L-4.55 -46.25 -2.55 -46.55 1.7 -46.6 2.6 -46.5 M2.45 -43.85 Q2.95 -43.65 3.1 -43.65 L2.55 -43.7 2.1 -43.8 Q-4.85 -43.8 -9.55 -41.25 -13.8 -39.0 -17.85 -33.7 -19.05 -32.15 -19.85 -28.35 -20.55 -25.05 -20.55 -22.5 -20.55 -17.15 -18.05 -12.5 -15.2 -7.15 -9.7 -4.5 -8.75 -4.05 -8.0 -3.75 -5.5 -2.8 -2.4 -2.35 L-1.2 -2.25 Q-0.05 -2.3 3.3 -2.75 L3.75 -2.8 Q8.95 -3.9 12.5 -6.5 13.8 -7.4 15.1 -8.75 L17.1 -10.8 17.15 -10.85 Q21.3 -16.25 21.3 -24.25 21.3 -28.15 19.0 -32.4 17.1 -36.0 14.55 -38.3 13.45 -39.3 12.4 -40.05 8.35 -42.85 2.4 -43.9 L2.45 -43.85 M-21.2 -13.45 Q-20.2 -11.15 -18.6 -9.15 -19.85 -10.9 -21.2 -13.45" fill="#59a5ff" fill-opacity="0.5019608" fill-rule="evenodd" stroke="none"/>
    <path d="M0.75 -43.75 L-0.5 -43.9 Q-1.15 -43.9 -2.75 -43.55 -4.5 -43.25 -6.25 -42.7 -11.0 -41.35 -12.25 -39.85 -13.05 -38.9 -15.2 -36.75 -17.1 -34.9 -17.95 -33.7 -18.9 -32.45 -19.4 -30.6 -19.55 -30.1 -20.0 -27.4 L-20.5 -24.3 Q-20.5 -24.05 -20.5 -22.8 L-20.45 -21.2 Q-20.45 -20.8 -20.6 -20.4 L-20.6 -20.35 Q-20.3 -19.35 -19.9 -17.8 -19.3 -15.45 -18.9 -14.35 -18.4 -12.75 -16.35 -10.15 L-15.05 -8.5 Q-14.5 -7.75 -14.5 -7.6 L-14.5 -7.45 Q-13.85 -7.15 -13.3 -6.75 -12.7 -6.4 -12.0 -5.8 -11.3 -5.35 -10.45 -4.95 -5.65 -2.6 -0.8 -2.6 1.25 -2.6 4.55 -3.35 L8.1 -4.2 8.95 -4.55 Q10.5 -5.15 10.75 -5.35 11.0 -5.6 11.9 -6.4 L13.15 -7.4 14.3 -8.35 Q15.2 -9.1 15.7 -9.35 16.35 -9.7 16.75 -10.3 L17.5 -11.5 Q18.35 -12.6 18.95 -13.7 19.25 -14.2 20.15 -16.15 20.35 -16.55 20.45 -17.35 L20.55 -18.7 Q20.65 -19.45 20.85 -19.85 L21.0 -21.45 Q21.2 -23.25 21.2 -24.2 21.2 -26.35 20.2 -29.2 19.05 -32.5 17.05 -35.35 14.65 -38.7 11.4 -40.8 7.65 -43.25 3.05 -43.75 L3.0 -43.75 2.0 -43.65 0.75 -43.75 M2.25 -44.35 Q6.45 -43.95 10.3 -41.9 13.65 -40.1 16.35 -37.2 18.75 -34.6 20.15 -31.7 21.5 -28.95 21.5 -26.9 21.85 -24.45 21.85 -23.95 L21.8 -22.85 21.6 -21.3 21.65 -20.35 21.65 -20.15 Q21.65 -19.8 21.4 -18.7 21.15 -17.6 21.15 -17.25 21.15 -16.05 19.15 -12.8 17.45 -10.1 16.95 -9.55 15.4 -8.1 12.65 -6.3 12.35 -6.15 11.65 -5.4 11.05 -4.8 10.6 -4.65 9.85 -4.35 8.95 -4.1 L8.3 -3.9 Q8.15 -3.7 7.9 -3.5 7.35 -3.1 6.45 -2.75 3.9 -1.8 -0.25 -1.8 -4.25 -1.8 -8.85 -3.65 -10.7 -4.35 -12.0 -5.1 -12.45 -5.25 -13.7 -6.2 L-14.95 -7.2 Q-15.55 -7.4 -17.05 -9.55 -18.15 -11.1 -19.5 -13.3 -19.7 -13.6 -20.4 -16.0 -21.15 -18.6 -21.15 -19.3 L-21.1 -19.85 Q-21.65 -19.85 -21.85 -20.6 -21.95 -21.0 -22.0 -21.4 -22.0 -22.6 -21.55 -24.95 -21.15 -26.95 -20.8 -28.2 -20.7 -28.6 -20.5 -29.9 -20.35 -31.0 -20.05 -31.6 -20.0 -31.7 -19.85 -32.45 -19.75 -33.1 -19.55 -33.3 -19.3 -33.55 -18.5 -34.1 -17.85 -34.5 -17.55 -34.9 L-16.55 -36.5 Q-15.85 -37.55 -15.2 -38.3 -13.4 -40.4 -10.8 -41.4 -10.15 -41.6 -8.45 -42.55 -6.85 -43.4 -5.65 -43.8 -2.2 -44.9 2.5 -44.2 L2.25 -44.35" fill="#8cc1ff" fill-opacity="0.7529412" fill-rule="evenodd" stroke="none"/>
    <path d="M0.8 -43.5 Q0.65 -43.4 0.6 -43.4 -1.4 -43.5 -2.05 -43.3 L-2.45 -43.15 -3.15 -43.05 -4.4 -43.15 -4.5 -43.2 Q-6.4 -42.65 -8.0 -42.0 -11.1 -40.8 -12.45 -39.65 -13.55 -38.65 -15.1 -36.9 L-17.6 -34.05 Q-18.6 -32.95 -19.05 -31.25 -19.5 -29.35 -19.85 -28.4 -20.1 -27.75 -20.35 -25.75 -20.55 -23.9 -20.55 -22.8 -20.55 -22.25 -19.85 -18.1 -19.85 -15.05 -16.9 -10.95 -15.8 -9.5 -14.55 -8.15 -13.65 -7.2 -13.05 -6.75 L-12.4 -6.4 Q-10.6 -5.35 -10.1 -5.1 -7.0 -3.5 -2.65 -2.6 L-1.35 -2.6 1.25 -2.85 3.9 -3.2 3.95 -3.05 Q6.45 -3.9 8.75 -4.9 12.55 -6.6 13.4 -7.8 L13.15 -7.4 Q18.5 -11.4 20.3 -16.6 21.45 -19.85 21.3 -24.35 21.0 -26.95 20.2 -29.4 19.25 -32.3 17.8 -34.55 19.3 -32.85 20.4 -30.05 21.55 -27.15 21.55 -25.05 L21.5 -24.6 21.45 -24.2 21.5 -22.75 21.6 -20.5 Q21.6 -19.0 20.8 -16.7 20.2 -14.7 19.45 -13.4 18.55 -11.75 16.4 -9.5 14.2 -7.15 13.5 -7.15 13.15 -7.15 13.05 -7.25 12.05 -6.1 9.25 -4.65 5.7 -2.85 2.2 -2.2 L1.95 -2.3 1.75 -2.4 2.25 -2.55 1.85 -2.45 Q0.25 -2.25 -0.8 -2.25 L-1.95 -2.3 -2.9 -2.4 Q-8.2 -3.25 -10.65 -4.6 -11.55 -5.1 -12.65 -5.95 L-13.35 -6.55 Q-14.55 -6.65 -15.4 -7.75 -15.7 -8.15 -16.1 -8.85 -16.55 -9.55 -16.7 -9.75 L-18.15 -11.7 Q-18.9 -12.8 -19.2 -13.65 L-20.6 -17.5 Q-21.35 -19.9 -21.35 -21.45 -21.35 -22.4 -20.65 -26.6 -19.9 -30.85 -19.9 -31.35 -19.9 -32.75 -19.35 -33.35 L-18.6 -34.0 Q-18.05 -34.45 -17.6 -34.95 L-14.4 -38.55 Q-12.95 -40.2 -9.95 -41.65 -7.4 -42.9 -4.7 -43.4 L-4.65 -43.55 -4.1 -43.5 -2.95 -43.65 -3.55 -43.45 Q-2.4 -43.5 -1.85 -43.7 -1.35 -43.9 -0.3 -43.95 0.2 -44.2 1.45 -44.15 L3.5 -43.95 Q6.6 -43.95 9.1 -42.25 L9.95 -41.6 Q9.85 -41.7 9.85 -41.75 L9.85 -42.0 9.9 -42.05 Q12.05 -41.3 14.5 -38.9 16.45 -36.95 17.65 -34.95 L17.65 -34.85 15.3 -37.5 Q13.2 -39.65 12.35 -39.65 11.8 -39.65 11.05 -40.4 9.5 -41.3 7.0 -42.55 6.5 -42.8 4.9 -43.0 L2.65 -43.25 1.25 -43.4 0.8 -43.5" fill="#bfdcff" fill-opacity="0.7529412" fill-rule="evenodd" stroke="none"/>
    <path d="M0.05 -43.4 Q3.5 -44.3 6.4 -43.35 7.65 -42.9 9.55 -41.65 10.0 -41.35 11.1 -40.95 L12.95 -40.15 Q14.9 -39.25 14.9 -38.15 L15.6 -37.5 15.6 -37.45 Q15.45 -37.5 15.0 -37.9 L14.9 -38.0 14.85 -37.9 Q13.4 -38.5 12.05 -39.55 L9.85 -41.25 Q8.4 -42.15 6.45 -42.6 4.05 -43.2 0.25 -43.35 L0.05 -43.4 M20.2 -29.95 L21.2 -28.0 Q21.65 -27.05 21.65 -26.15 21.65 -25.95 21.55 -25.65 L21.4 -25.25 Q21.2 -26.15 20.8 -27.6 L20.1 -29.95 20.2 -29.95 M19.55 -14.25 Q17.9 -10.7 14.3 -8.1 17.5 -11.65 19.15 -14.4 20.2 -16.1 20.7 -17.65 L20.65 -17.4 Q20.2 -15.65 19.55 -14.25 M5.0 -3.65 Q4.5 -3.05 2.55 -2.6 1.0 -2.3 0.0 -2.3 L-1.05 -2.35 -1.95 -2.45 Q-8.25 -3.05 -10.05 -5.1 -10.5 -5.2 -11.5 -5.7 -13.15 -6.55 -13.5 -6.7 -14.45 -7.1 -14.9 -7.85 -15.15 -8.25 -15.45 -8.95 -15.85 -9.7 -17.3 -11.35 -18.5 -12.75 -18.8 -13.6 L-18.7 -13.65 Q-16.6 -10.55 -15.25 -9.05 -13.0 -6.6 -10.15 -5.25 L-9.8 -5.05 -9.0 -4.55 -7.9 -3.75 -4.95 -3.15 Q-3.65 -2.85 -1.8 -2.55 L-0.25 -2.55 2.3 -3.1 5.0 -3.65 M3.95 -2.75 Q4.7 -3.55 7.2 -4.6 L11.15 -6.25 Q9.9 -5.7 7.75 -4.45 5.75 -3.25 4.25 -2.65 L3.95 -2.75 M-14.3 -38.25 Q-12.75 -39.9 -11.75 -40.2 -11.9 -39.65 -12.5 -38.9 -13.2 -38.1 -14.0 -37.8 -14.55 -37.4 -15.4 -36.6 L-16.75 -35.25 Q-17.8 -34.25 -18.4 -32.6 L-18.85 -31.3 Q-19.15 -30.55 -19.4 -30.05 L-19.6 -30.0 -19.6 -30.05 -20.1 -27.4 Q-20.75 -24.1 -20.75 -23.4 L-20.35 -21.1 Q-20.0 -18.75 -20.0 -17.15 -20.0 -17.0 -19.9 -16.75 -19.75 -16.55 -19.75 -16.45 L-19.8 -16.4 Q-20.45 -17.3 -20.8 -19.0 -21.1 -20.4 -21.1 -21.9 -21.1 -22.45 -20.6 -25.5 -20.15 -28.3 -19.7 -30.15 L-19.8 -30.25 Q-19.85 -30.35 -19.85 -30.45 -19.85 -31.95 -19.2 -32.8 -18.75 -33.45 -16.85 -35.35 L-14.3 -38.25" fill="#ffffff" fill-rule="evenodd" stroke="none"/>
  </g>
</svg>
