<?xml version="1.0" encoding="UTF-8" standalone="no"?>
<svg xmlns:ffdec="https://www.free-decompiler.com/flash" xmlns:xlink="http://www.w3.org/1999/xlink" ffdec:objectType="shape" height="47.1px" width="47.15px" xmlns="http://www.w3.org/2000/svg">
  <g transform="matrix(1.0, 0.0, 0.0, 1.0, 23.6, 46.6)">
    <path d="M2.6 -46.5 Q8.4 -45.5 11.8 -43.65 13.2 -42.9 14.55 -41.8 L16.9 -39.75 Q18.55 -38.25 19.9 -35.95 20.5 -34.9 21.6 -32.65 22.45 -32.1 23.05 -29.3 23.55 -26.9 23.55 -24.85 L23.35 -22.5 23.15 -19.55 Q23.05 -18.05 22.85 -16.95 22.55 -15.5 22.05 -14.35 20.6 -11.2 18.8 -9.05 L18.15 -8.25 18.9 -8.9 Q18.4 -7.75 16.2 -6.1 13.65 -4.35 12.65 -3.5 12.15 -3.05 10.2 -2.3 8.85 -1.8 7.7 -1.45 5.75 -0.7 3.4 -0.15 3.15 0.05 2.0 0.3 0.95 0.5 0.4 0.5 L0.0 0.45 -1.2 0.4 Q-1.45 0.35 -1.55 0.25 -2.2 0.15 -2.7 -0.15 -3.55 -0.6 -4.85 -0.6 L-5.65 -0.7 -6.45 -0.75 Q-7.0 -0.75 -8.25 -1.3 -9.7 -1.95 -10.5 -2.1 -14.7 -4.35 -17.55 -7.75 -20.25 -10.65 -21.75 -14.2 -23.6 -18.7 -23.6 -24.7 -23.6 -27.5 -22.5 -30.7 -21.3 -34.2 -19.05 -37.2 -16.55 -40.6 -13.1 -42.85 -9.15 -45.4 -4.3 -46.3 L-4.55 -46.25 -2.55 -46.55 1.7 -46.6 2.6 -46.5 M3.45 -45.0 L3.35 -45.1 2.7 -45.15 1.95 -45.2 -0.2 -45.35 -1.2 -45.25 Q-7.4 -44.15 -10.6 -42.55 -11.85 -41.9 -13.1 -40.95 L-15.3 -39.15 -15.35 -39.05 -15.35 -39.15 Q-17.4 -37.1 -18.9 -34.5 -20.55 -31.65 -21.4 -28.4 -22.15 -25.6 -22.15 -23.0 -22.15 -20.6 -21.3 -17.1 -20.7 -14.65 -20.05 -13.05 -19.7 -12.7 -19.35 -12.05 L-19.3 -12.05 Q-18.95 -11.25 -17.7 -9.65 L-16.6 -8.2 -16.6 -8.15 -16.25 -7.75 Q-14.2 -5.85 -11.35 -4.2 -8.55 -2.65 -5.55 -1.7 -4.0 -1.2 -2.8 -1.0 L-4.05 -1.25 -1.95 -1.1 -0.35 -1.1 Q6.6 -1.85 9.4 -3.1 10.25 -3.45 11.25 -4.15 12.3 -4.85 12.9 -5.15 L12.95 -5.2 12.95 -5.15 Q15.95 -6.95 17.6 -9.45 18.1 -10.1 19.05 -11.75 19.9 -13.25 20.5 -14.15 21.2 -15.0 21.65 -18.4 22.05 -21.25 22.05 -23.45 22.05 -24.4 21.8 -25.95 L21.35 -28.35 Q21.3 -28.8 20.6 -30.85 20.05 -32.6 20.05 -33.2 L19.2 -34.7 18.75 -35.6 Q17.0 -37.95 14.9 -39.75 10.7 -43.25 4.45 -44.95 L3.45 -45.0 M0.95 -0.85 L1.2 -0.85 Q1.4 -0.9 1.45 -0.95 L1.1 -0.9 0.95 -0.85 M1.6 -0.95 L2.7 -1.0 2.95 -1.1 Q3.1 -1.15 3.15 -1.2 L2.65 -1.1 1.6 -0.95 M-18.6 -9.15 Q-19.85 -10.9 -21.2 -13.45 -20.2 -11.15 -18.6 -9.15" fill="#59a5ff" fill-opacity="0.5019608" fill-rule="evenodd" stroke="none"/>
    <path d="M2.75 -44.75 L0.5 -44.95 Q0.2 -44.95 -0.5 -45.15 L-1.15 -45.3 -1.7 -45.2 Q-2.15 -45.1 -5.55 -44.15 -8.65 -43.25 -9.3 -43.25 -11.6 -43.25 -15.05 -39.6 -16.2 -38.4 -17.3 -37.0 -18.1 -35.95 -18.25 -35.65 -19.0 -34.45 -20.1 -31.65 -21.45 -28.35 -21.45 -27.05 -21.45 -26.25 -21.7 -24.6 -22.0 -23.0 -22.0 -22.25 -22.0 -19.85 -20.45 -15.45 -19.3 -12.25 -18.3 -10.5 -15.35 -6.5 -10.0 -3.75 -7.5 -2.5 -4.95 -1.75 -2.7 -1.1 -1.25 -1.1 0.1 -1.1 1.25 -1.35 L1.4 -1.5 Q2.0 -1.9 3.05 -1.9 L3.35 -1.6 3.35 -1.55 Q4.1 -1.85 5.15 -2.05 L7.4 -2.55 Q8.65 -2.9 9.4 -3.3 13.3 -5.55 14.35 -6.2 L14.4 -6.15 Q14.8 -6.55 15.5 -7.05 16.7 -7.85 17.05 -8.4 17.25 -8.8 18.0 -9.85 18.7 -10.75 19.0 -11.45 19.5 -12.5 20.1 -13.45 L21.0 -14.75 Q21.75 -15.95 21.75 -17.5 21.75 -17.65 21.9 -19.05 L22.05 -20.6 21.9 -22.1 21.8 -23.65 21.85 -25.0 21.95 -26.55 21.95 -26.75 Q21.45 -28.25 20.8 -30.45 19.6 -33.9 18.1 -36.05 16.15 -38.85 10.95 -41.8 8.9 -43.0 7.0 -43.75 5.2 -44.5 4.45 -44.5 L2.75 -44.75 M2.8 -45.65 Q5.2 -45.25 7.65 -44.1 8.1 -43.9 9.65 -43.25 11.1 -42.6 11.5 -42.35 12.95 -41.5 14.55 -40.15 L17.2 -37.85 Q18.85 -36.45 20.9 -31.9 21.65 -30.15 22.2 -28.6 22.75 -27.1 22.75 -26.65 L22.7 -26.1 22.7 -25.9 22.6 -25.35 22.6 -25.15 Q22.7 -25.05 22.6 -25.0 L22.55 -25.1 Q22.45 -24.6 22.45 -24.5 22.95 -21.05 22.95 -20.65 21.9 -14.45 20.85 -12.85 20.5 -12.35 19.35 -10.95 18.4 -9.8 18.05 -9.15 L17.55 -8.2 Q17.25 -7.8 16.8 -7.2 16.4 -6.7 15.35 -6.1 14.45 -5.6 14.35 -5.6 L14.15 -5.6 14.05 -5.65 Q12.2 -3.7 7.75 -2.15 6.4 -1.7 4.25 -1.1 2.5 -0.6 2.2 -0.45 2.0 -0.5 1.9 -0.6 L1.65 -0.55 Q1.5 -0.55 1.25 -0.7 L1.0 -0.8 Q0.25 -0.55 -0.2 -0.55 -4.3 -0.55 -8.6 -2.3 -11.4 -3.45 -13.15 -4.75 L-15.05 -6.1 Q-16.25 -7.0 -16.75 -7.85 -17.1 -8.3 -18.45 -9.5 -19.5 -10.4 -19.5 -11.05 L-19.5 -11.4 Q-20.35 -12.8 -21.15 -15.0 -21.75 -16.8 -22.15 -18.65 -22.5 -20.4 -22.5 -21.45 -22.5 -24.4 -22.45 -25.55 -22.35 -27.0 -22.05 -28.05 -21.65 -29.55 -19.4 -35.0 -18.9 -36.25 -16.9 -38.3 -15.65 -39.6 -13.35 -41.6 -11.2 -43.45 -6.9 -44.55 -4.5 -45.15 -1.7 -45.45 L-0.85 -45.5 -0.8 -45.5 -0.4 -45.65 0.75 -45.65 Q0.75 -45.75 1.3 -45.75 L2.8 -45.65" fill="#8cc1ff" fill-opacity="0.7529412" fill-rule="evenodd" stroke="none"/>
    <path d="M2.4 -44.8 L0.9 -45.2 0.9 -45.45 Q0.9 -45.95 2.4 -45.75 3.85 -45.55 5.05 -45.05 5.6 -44.65 6.9 -44.0 L8.55 -43.15 Q7.45 -43.35 6.35 -43.95 5.45 -44.4 4.3 -44.4 3.7 -44.4 2.4 -44.8 M9.2 -42.85 L9.25 -42.85 Q12.75 -41.7 15.85 -39.0 17.25 -37.8 18.05 -36.65 18.4 -36.15 18.65 -35.7 19.45 -34.4 20.85 -31.45 22.35 -28.4 22.35 -28.1 22.35 -27.95 22.2 -27.55 22.05 -27.1 22.05 -26.95 L22.15 -25.8 Q22.25 -24.75 22.2 -24.2 22.1 -23.15 22.45 -22.65 22.85 -22.15 22.85 -21.5 22.85 -20.55 22.55 -20.05 22.2 -19.4 22.05 -17.75 22.05 -17.65 22.0 -17.6 21.95 -17.95 22.05 -18.7 L22.15 -19.55 22.0 -20.7 Q21.8 -21.7 21.8 -21.85 L21.95 -22.85 22.05 -23.85 Q22.05 -26.3 20.75 -29.95 20.15 -31.65 18.9 -34.7 L18.9 -34.65 Q18.9 -34.5 19.0 -34.3 L19.15 -34.05 19.05 -34.0 Q18.55 -36.25 15.75 -38.65 13.15 -40.9 9.2 -42.75 L9.2 -42.85 M21.9 -17.6 Q21.8 -16.25 21.7 -15.55 21.5 -14.25 21.0 -13.4 20.3 -12.3 18.95 -11.5 L18.95 -11.6 18.9 -11.55 Q18.45 -10.4 18.15 -9.85 17.05 -7.85 14.75 -6.5 11.55 -4.45 9.95 -3.6 7.4 -2.3 3.2 -1.45 L2.8 -1.15 Q2.6 -1.0 2.25 -1.0 1.8 -1.0 1.65 -1.2 L1.65 -1.25 1.45 -1.1 Q0.95 -0.8 0.25 -0.8 L-0.6 -0.85 -1.25 -0.9 Q-2.35 -0.9 -3.05 -1.25 L-3.25 -1.35 -3.4 -1.35 -4.0 -1.45 -4.65 -1.45 -4.8 -1.65 -6.3 -1.8 Q-6.75 -1.9 -7.0 -2.05 -6.85 -2.1 -6.6 -2.05 -10.5 -3.2 -13.45 -5.5 -15.1 -6.75 -17.45 -9.1 L-18.1 -9.8 Q-19.2 -11.0 -19.55 -12.15 -19.65 -12.6 -20.45 -14.8 -21.15 -16.8 -21.15 -16.95 L-21.5 -18.8 Q-21.85 -20.6 -21.85 -21.55 -21.85 -21.7 -22.0 -22.85 L-22.15 -24.2 Q-22.15 -24.55 -21.9 -26.25 L-21.5 -28.6 Q-21.4 -29.15 -20.6 -30.6 -19.85 -31.95 -19.7 -32.85 -19.35 -34.9 -17.55 -37.1 -16.25 -38.8 -13.7 -41.0 L-13.65 -40.95 -16.65 -37.85 Q-18.6 -35.7 -18.9 -34.5 -19.25 -33.05 -20.3 -30.9 -21.15 -29.25 -21.15 -27.9 L-21.3 -24.65 Q-21.3 -24.35 -21.5 -23.0 L-21.75 -21.6 Q-21.75 -20.05 -21.2 -18.0 -21.0 -17.4 -20.0 -14.45 -19.75 -13.65 -19.3 -12.65 L-18.45 -10.9 Q-18.1 -10.05 -17.1 -9.2 -15.6 -7.9 -15.4 -7.7 L-15.4 -7.65 -14.8 -7.05 Q-14.35 -6.65 -13.05 -5.8 L-11.35 -4.6 Q-10.55 -3.95 -9.2 -3.4 -8.5 -3.1 -7.0 -2.6 -6.2 -2.35 -4.55 -1.95 L-4.2 -1.95 -3.95 -1.85 -1.05 -1.25 0.3 -1.4 Q1.35 -1.55 1.7 -1.7 1.95 -2.05 2.85 -2.1 L4.75 -2.1 Q6.0 -2.3 7.05 -2.7 L8.65 -3.4 Q9.0 -3.55 10.85 -4.65 12.75 -5.75 13.55 -6.15 16.3 -7.45 17.75 -9.8 18.05 -10.25 18.75 -11.65 L18.9 -12.0 Q18.95 -12.8 19.9 -13.8 21.1 -15.15 21.45 -15.95 21.7 -16.65 21.9 -17.6 M-9.75 -43.05 L-11.45 -42.4 -11.5 -42.3 Q-11.6 -42.25 -11.6 -42.45 -11.6 -42.7 -10.65 -43.15 -9.6 -43.65 -8.5 -43.8 -8.8 -43.45 -9.75 -43.05 M-8.6 -43.45 L-8.7 -43.55 Q-8.1 -44.2 -5.75 -44.65 L-2.65 -45.2 Q-2.4 -45.15 -2.35 -45.1 -2.7 -44.95 -5.4 -44.25 L-8.5 -43.45 -8.6 -43.45" fill="#bfdcff" fill-opacity="0.7529412" fill-rule="evenodd" stroke="none"/>
  </g>
</svg>
