<?xml version="1.0" encoding="UTF-8" standalone="no"?>
<svg xmlns:ffdec="https://www.free-decompiler.com/flash" xmlns:xlink="http://www.w3.org/1999/xlink" ffdec:objectType="shape" height="47.3px" width="47.15px" xmlns="http://www.w3.org/2000/svg">
  <g transform="matrix(1.0, 0.0, 0.0, 1.0, 23.6, 46.6)">
    <path d="M3.05 -46.05 L2.45 -46.0 -0.3 -46.05 -3.05 -45.9 Q-4.45 -45.75 -5.6 -45.35 -6.3 -45.15 -8.1 -44.4 -10.1 -43.6 -11.8 -43.0 L-11.9 -42.9 -11.95 -42.9 -12.35 -42.65 Q-17.3 -39.15 -20.2 -34.25 -23.2 -29.05 -23.2 -23.75 -23.2 -20.4 -21.65 -15.8 -19.85 -10.65 -17.45 -8.7 L-17.5 -8.6 -17.65 -8.7 -16.9 -8.0 Q-15.8 -6.95 -13.75 -5.2 L-12.9 -4.4 -12.3 -3.85 -12.3 -3.8 -11.85 -3.55 -10.8 -3.0 Q-9.6 -2.4 -7.85 -2.1 -6.7 -1.6 -5.6 -1.2 -4.9 -1.0 -4.5 -0.85 -2.1 -0.15 0.1 -0.15 0.75 -0.15 2.75 -0.55 5.1 -1.0 5.6 -1.4 L5.75 -1.35 5.65 -1.2 6.6 -1.5 Q8.45 -2.05 9.4 -2.4 L10.55 -3.0 Q11.3 -3.5 12.75 -4.5 L13.8 -5.25 Q14.75 -6.0 15.05 -6.2 16.15 -6.9 17.15 -8.0 L17.5 -8.5 18.05 -9.1 18.55 -9.85 Q19.45 -11.15 20.75 -13.5 L21.25 -14.85 Q22.15 -17.0 22.3 -18.05 22.4 -18.6 22.6 -20.75 L22.85 -23.25 Q22.85 -24.25 22.75 -25.25 22.7 -25.5 22.7 -25.75 L22.55 -26.95 Q22.15 -29.7 21.1 -32.05 19.35 -36.05 15.4 -40.2 L13.45 -41.65 Q11.9 -42.75 10.5 -43.65 9.2 -44.45 6.95 -45.1 6.9 -45.15 6.2 -45.4 5.75 -45.55 4.9 -45.75 L3.1 -46.1 3.05 -46.05 M2.6 -46.5 Q8.4 -45.5 11.8 -43.65 13.2 -42.9 14.55 -41.8 L16.9 -39.75 Q18.55 -38.25 19.9 -35.95 20.5 -34.9 21.6 -32.65 22.45 -32.1 23.05 -29.3 23.55 -26.9 23.55 -24.85 L23.35 -22.5 23.15 -19.55 Q23.05 -18.05 22.85 -16.95 22.55 -15.5 22.05 -14.35 20.6 -11.2 18.8 -9.05 L18.4 -8.55 18.25 -8.35 18.9 -8.9 Q18.4 -7.75 16.2 -6.1 13.65 -4.35 12.65 -3.5 12.15 -3.05 10.2 -2.3 L9.2 -1.95 Q6.85 -0.9 3.85 -0.25 L3.4 -0.15 Q3.15 0.05 2.0 0.3 0.95 0.5 0.4 0.5 L0.0 0.45 -1.2 0.4 Q-1.45 0.35 -1.55 0.25 -2.2 0.15 -2.7 -0.15 -2.85 -0.25 -3.05 -0.3 L-4.05 -0.55 -4.1 -0.55 -4.1 -0.6 -4.85 -0.6 -5.65 -0.7 -6.45 -0.75 Q-7.0 -0.75 -8.25 -1.3 -9.7 -1.95 -10.5 -2.1 -14.55 -4.3 -17.35 -7.5 L-17.75 -7.85 Q-18.15 -8.3 -18.55 -8.9 -20.2 -10.9 -21.3 -13.2 -21.85 -13.75 -22.3 -15.7 L-22.35 -15.95 Q-22.9 -17.65 -23.2 -19.55 L-23.3 -19.85 -23.25 -19.85 Q-23.6 -22.15 -23.6 -24.7 -23.6 -27.5 -22.5 -30.7 -21.3 -34.2 -19.05 -37.2 -16.55 -40.6 -13.1 -42.85 -11.0 -44.2 -8.65 -45.1 L-8.3 -45.3 Q-8.0 -45.4 -7.9 -45.35 -6.15 -45.95 -4.3 -46.3 L-4.55 -46.25 -2.55 -46.55 1.7 -46.6 2.6 -46.5 M17.0 -38.9 L17.1 -38.75 17.3 -38.5 16.9 -39.1 Q16.9 -39.05 17.0 -38.9 M15.25 -40.65 L14.8 -41.05 15.25 -40.55 15.35 -40.45 15.25 -40.65 M21.45 -32.05 L21.55 -31.8 21.5 -31.85 21.45 -32.05 M23.15 -23.2 L23.1 -22.1 23.2 -23.85 23.15 -23.85 23.1 -23.95 23.15 -23.2 M22.35 -16.75 L22.35 -16.7 22.4 -16.9 22.35 -16.75 M20.45 -12.75 L20.45 -12.8 20.35 -12.55 20.45 -12.75 M17.1 -7.5 L16.65 -7.05 17.15 -7.5 17.1 -7.5 M13.05 -4.25 Q12.15 -3.6 11.35 -3.1 12.05 -3.4 12.6 -3.75 13.25 -4.15 14.25 -5.0 L13.05 -4.25 M-7.85 -45.15 L-7.15 -45.45 -7.85 -45.2 -7.85 -45.15 M-1.7 -46.35 L-2.0 -46.35 -1.7 -46.3 -1.7 -46.35 M-11.85 -43.3 L-11.55 -43.45 -11.9 -43.25 -11.85 -43.3 M-22.8 -28.9 L-23.1 -27.6 -22.75 -28.9 -22.8 -28.9 M-22.8 -19.1 L-23.05 -20.2 -23.1 -20.45 -22.95 -19.35 -22.8 -19.1 M-21.05 -13.05 Q-20.2 -11.25 -19.0 -9.65 L-19.15 -9.95 Q-20.05 -11.3 -21.0 -13.0 L-21.05 -13.05 M-20.8 -13.0 L-20.85 -13.0 -20.5 -12.35 -20.8 -13.0 M-14.4 -5.5 L-13.95 -5.2 Q-14.1 -5.35 -14.3 -5.45 L-14.4 -5.5 M-15.75 -6.3 L-16.05 -6.5 -16.3 -6.7 -15.75 -6.2 -15.7 -6.2 -15.75 -6.3 M-8.55 -1.85 L-8.35 -1.8 -8.5 -1.85 -8.55 -1.85" fill="#59a5ff" fill-opacity="0.5019608" fill-rule="evenodd" stroke="none"/>
    <path d="M13.05 -42.7 L14.9 -41.3 Q15.85 -40.55 15.85 -40.45 15.85 -40.25 15.85 -40.3 L15.8 -40.35 Q14.6 -40.75 13.75 -41.35 13.3 -41.65 12.55 -42.45 11.9 -43.1 11.3 -43.5 10.45 -44.05 9.05 -44.4 L10.15 -44.25 Q11.05 -44.05 11.3 -43.9 L12.05 -43.45 13.05 -42.7 M4.75 -45.95 L3.6 -46.1 2.95 -46.3 3.65 -46.25 4.85 -46.1 Q6.05 -46.1 6.35 -45.9 L6.5 -45.75 Q6.55 -45.65 6.65 -45.6 6.55 -45.6 6.4 -45.65 L6.0 -45.8 5.4 -45.9 4.75 -45.95 M18.9 -36.65 Q19.3 -36.2 19.65 -35.4 20.05 -34.45 20.25 -34.2 L20.2 -34.15 19.45 -35.3 18.65 -36.65 18.9 -36.65 M21.75 -32.2 Q22.45 -30.85 22.45 -30.1 L22.45 -29.85 22.4 -29.75 Q22.05 -30.2 20.15 -33.7 20.15 -33.9 20.2 -34.0 L20.25 -34.1 20.35 -34.1 Q21.05 -33.55 21.75 -32.2 M22.75 -17.2 Q22.75 -15.85 21.9 -14.15 21.3 -13.0 20.5 -11.9 L18.8 -9.4 Q17.8 -8.0 16.6 -6.9 15.0 -5.4 13.8 -4.55 11.85 -3.25 9.45 -2.25 9.2 -2.15 0.35 0.7 0.05 0.7 -0.15 0.5 -0.3 0.35 -0.3 0.25 -0.3 -0.4 0.75 -0.5 L2.25 -0.45 Q10.0 -2.2 12.3 -3.9 12.85 -4.3 13.45 -5.15 14.05 -5.9 14.7 -6.3 15.1 -6.6 15.65 -6.75 16.2 -6.9 16.4 -7.05 17.45 -7.85 17.6 -8.05 19.45 -10.5 20.7 -13.0 21.95 -15.55 22.45 -18.05 L22.5 -18.05 Q22.75 -17.65 22.75 -17.2 M-8.6 -44.2 Q-9.5 -43.8 -10.2 -43.7 L-10.35 -43.65 Q-10.5 -43.6 -10.5 -43.8 -10.5 -43.9 -9.15 -44.5 -7.65 -45.15 -6.05 -45.65 -1.3 -47.15 0.05 -46.2 -4.15 -46.25 -6.85 -45.05 -7.55 -44.75 -8.6 -44.2 M-22.35 -29.75 Q-23.1 -27.4 -23.05 -25.4 L-23.15 -25.4 -23.15 -27.1 Q-22.7 -31.55 -20.45 -35.3 -17.8 -39.75 -12.95 -42.7 -17.3 -39.75 -20.35 -34.25 -21.65 -31.95 -22.35 -29.75 M-23.3 -22.65 L-23.2 -22.65 Q-23.2 -21.7 -22.6 -19.9 -21.9 -17.8 -21.8 -17.1 -21.75 -16.5 -21.55 -15.7 L-21.2 -14.35 Q-21.1 -13.95 -20.45 -12.8 -19.8 -11.7 -19.8 -11.6 -19.8 -11.25 -18.0 -9.15 -16.45 -7.4 -15.75 -6.7 L-15.8 -6.65 Q-19.65 -9.75 -21.3 -14.05 -21.85 -15.55 -22.35 -17.85 -23.1 -21.0 -23.3 -21.6 L-23.3 -22.65 M-11.9 -3.35 Q-11.15 -2.85 -10.65 -2.75 L-10.65 -2.65 Q-12.5 -3.35 -13.95 -4.45 -14.95 -5.25 -16.1 -6.6 -15.6 -6.5 -14.2 -5.55 -12.65 -4.6 -12.65 -4.2 -12.65 -3.85 -11.9 -3.35 M-6.5 -1.1 Q-6.65 -1.0 -6.8 -1.0 -7.35 -1.0 -8.4 -1.55 L-9.55 -2.2 -7.7 -2.05 Q-6.75 -1.95 -6.15 -1.35 L-6.5 -1.1" fill="#8cc1ff" fill-opacity="0.7529412" fill-rule="evenodd" stroke="none"/>
  </g>
</svg>
