<?xml version="1.0" encoding="UTF-8" standalone="no"?>
<svg xmlns:ffdec="https://www.free-decompiler.com/flash" xmlns:xlink="http://www.w3.org/1999/xlink" ffdec:objectType="shape" height="46.35px" width="12.45px" xmlns="http://www.w3.org/2000/svg">
  <g transform="matrix(1.0, 0.0, 0.0, 1.0, 6.0, 41.45)">
    <path d="M0.75 -40.85 L-0.25 -40.65 Q-0.9 -40.1 -1.05 -39.25 L-1.2 -38.25 Q-1.25 -37.7 -1.5 -37.35 -1.75 -36.9 -2.2 -35.55 -2.65 -34.1 -2.65 -33.65 L-1.85 -31.85 -1.05 -30.0 Q-1.05 -29.05 -1.35 -28.65 -1.4 -28.5 -1.55 -28.4 L-1.3 -28.0 Q-1.1 -27.7 -1.1 -27.35 -1.1 -26.85 -1.4 -26.1 L-1.75 -25.35 -1.6 -24.9 -1.5 -24.85 Q-1.2 -24.6 -1.2 -24.1 -1.2 -23.85 -1.25 -23.55 L-1.25 -23.5 Q-1.0 -23.35 -1.0 -23.0 -1.0 -22.8 -1.2 -22.65 L-1.35 -22.55 Q-1.45 -22.05 -1.75 -21.6 -2.2 -20.75 -2.2 -19.8 -2.2 -19.7 -2.4 -19.05 L-2.6 -18.35 Q-2.6 -17.95 -2.05 -16.25 L-1.55 -14.6 -1.4 -14.25 Q-1.25 -13.8 -1.25 -13.6 -1.25 -13.4 -1.4 -13.05 -1.6 -12.75 -1.6 -12.6 -1.6 -12.5 -1.25 -11.7 -0.85 -10.95 -0.85 -10.55 -0.85 -10.3 -1.05 -9.45 L-1.1 -9.2 Q-1.55 -9.9 -1.85 -9.9 -2.3 -9.9 -2.4 -9.7 -2.4 -9.6 -2.4 -9.2 -2.4 -8.75 -2.25 -8.3 -1.95 -7.5 -1.25 -7.5 L-1.2 -6.8 Q-1.1 -6.0 -1.1 -4.75 -1.1 -3.85 -0.65 -3.1 L-0.05 -2.2 0.1 -2.35 Q0.7 -2.85 0.9 -4.6 0.95 -4.85 1.35 -5.35 1.75 -5.9 1.85 -6.2 1.9 -6.5 1.8 -7.05 L1.75 -7.8 Q1.75 -9.35 2.35 -10.0 2.75 -10.35 2.8 -10.5 3.0 -10.85 3.0 -11.45 3.0 -11.6 3.15 -12.45 3.3 -13.25 3.3 -13.45 3.3 -13.95 3.1 -14.45 L2.65 -15.2 Q2.05 -16.25 2.05 -17.45 2.05 -18.0 2.8 -18.8 3.5 -19.6 3.5 -19.75 3.5 -20.3 2.85 -21.25 2.2 -22.15 2.2 -22.85 2.2 -23.0 2.45 -23.35 2.75 -23.65 2.7 -23.85 L2.55 -24.3 Q2.45 -24.55 2.45 -24.75 2.45 -24.9 2.55 -25.05 L2.75 -25.3 Q3.05 -25.75 2.95 -26.75 2.9 -27.7 3.05 -28.05 3.25 -28.45 3.25 -28.65 3.25 -29.0 2.6 -29.9 L3.0 -29.75 Q3.2 -30.4 3.2 -30.95 3.2 -31.15 3.15 -31.25 L3.1 -31.35 Q2.4 -31.4 2.2 -31.15 2.15 -31.05 2.15 -30.65 L2.15 -30.4 1.6 -31.1 Q1.6 -31.6 1.85 -33.0 L2.25 -33.0 2.75 -32.95 Q2.8 -33.35 2.8 -33.75 2.8 -34.0 2.35 -34.95 1.9 -35.85 1.75 -36.0 1.35 -36.45 1.5 -37.15 L1.75 -38.2 Q1.75 -38.7 1.3 -39.6 L0.75 -40.85 M1.6 -39.55 L1.7 -39.45 1.55 -39.75 Q1.35 -40.2 1.15 -40.55 1.2 -40.05 1.6 -39.55 M2.8 -39.2 Q3.65 -37.95 3.8 -36.95 L3.75 -36.0 Q3.7 -35.4 3.95 -34.8 4.05 -34.65 4.7 -33.8 5.25 -33.1 5.25 -32.75 5.05 -30.2 5.05 -29.65 5.05 -29.45 4.9 -28.65 4.7 -27.85 4.7 -27.65 4.7 -27.0 5.15 -26.3 5.55 -25.6 5.55 -24.75 5.55 -23.45 5.3 -23.0 5.05 -22.55 5.05 -21.45 L5.35 -19.95 Q5.6 -18.45 5.6 -17.0 5.6 -16.8 5.5 -16.55 L5.35 -16.2 5.2 -15.7 Q4.95 -15.05 4.95 -14.6 L5.2 -13.45 Q5.5 -12.25 5.5 -11.6 5.5 -11.35 5.2 -11.0 4.9 -10.65 4.85 -10.15 4.85 -9.95 4.9 -9.55 L4.95 -8.95 4.9 -5.4 Q4.9 -4.9 4.35 -3.8 3.75 -2.6 3.65 -2.0 3.6 -1.8 3.65 -1.15 3.65 -0.6 3.6 -0.3 3.55 -0.05 3.15 0.55 2.7 1.15 2.65 1.35 2.4 2.05 1.8 3.0 0.85 4.45 -0.05 4.45 -0.45 4.45 -0.45 4.35 L-0.5 4.05 Q-1.3 3.75 -2.05 2.8 -3.0 1.55 -3.1 0.4 -3.25 -1.45 -3.9 -1.9 -4.25 -2.15 -4.3 -2.25 -4.5 -2.55 -4.5 -3.2 -4.5 -3.55 -4.3 -5.5 L-4.05 -7.5 -4.9 -9.75 Q-5.75 -12.05 -5.75 -12.45 -5.75 -12.8 -5.45 -13.6 -5.2 -14.45 -5.1 -14.9 -4.95 -15.55 -4.95 -16.15 -4.95 -16.5 -5.25 -17.05 -5.55 -17.55 -5.55 -17.9 -5.55 -18.95 -5.25 -19.55 -4.95 -20.15 -4.95 -20.8 -4.95 -21.6 -5.5 -23.25 L-6.0 -24.9 Q-6.0 -25.05 -5.05 -26.8 -4.1 -28.55 -4.1 -29.4 -4.1 -29.6 -4.3 -30.45 L-4.55 -31.35 Q-4.55 -34.05 -3.4 -37.05 -2.6 -39.1 -1.6 -40.25 L-1.95 -39.75 Q-2.35 -39.05 -2.6 -38.55 -2.3 -39.05 -1.85 -39.8 L-1.4 -40.35 -1.15 -40.65 Q-0.95 -40.95 -0.6 -41.1 0.2 -41.55 1.2 -41.25 2.3 -40.0 2.8 -39.2 M-1.95 -28.2 Q-2.25 -28.1 -2.4 -28.0 L-2.8 -27.45 Q-2.9 -27.25 -2.9 -26.95 L-2.8 -27.0 -2.9 -26.85 -2.9 -26.8 -2.85 -26.25 -2.8 -25.55 Q-2.65 -25.55 -2.65 -25.35 -2.2 -25.5 -1.95 -25.7 L-1.7 -26.3 -1.6 -26.6 -1.6 -26.7 Q-1.6 -26.95 -1.5 -27.15 L-1.5 -27.2 Q-1.5 -27.3 -1.75 -27.95 L-1.85 -28.25 -1.95 -28.2 M-2.95 -27.2 L-2.95 -27.2" fill="#59a5ff" fill-opacity="0.5019608" fill-rule="evenodd" stroke="none"/>
    <path d="M2.05 -40.0 L2.95 -38.95 Q3.9 -37.7 3.85 -36.8 3.8 -35.6 4.0 -35.0 4.15 -34.55 4.5 -34.25 4.95 -33.9 5.05 -33.7 5.3 -33.3 5.3 -32.45 L5.1 -30.8 Q4.85 -29.2 4.85 -28.9 4.85 -28.1 5.2 -26.65 5.6 -25.15 5.6 -24.45 5.6 -23.6 5.4 -22.8 5.2 -22.0 5.2 -21.35 5.2 -20.7 5.4 -19.65 5.6 -18.6 5.6 -17.8 5.6 -17.0 5.3 -15.85 5.05 -14.7 5.05 -14.25 5.05 -13.85 5.3 -12.9 5.6 -11.95 5.6 -11.5 5.6 -10.9 5.1 -10.5 4.6 -10.15 4.6 -9.55 4.6 -9.15 4.8 -8.1 5.05 -7.05 5.05 -6.5 5.05 -5.45 4.55 -3.8 4.1 -2.3 4.2 -0.8 4.2 -0.2 3.55 0.7 2.7 1.8 2.55 2.1 2.35 2.7 1.35 3.5 0.75 4.05 0.15 4.35 L0.2 4.4 0.1 4.6 Q0.0 4.7 -0.2 4.7 L-0.4 4.65 -0.55 4.7 -0.6 4.55 Q-1.1 4.2 -1.9 3.05 -2.95 1.65 -3.35 0.6 -3.7 -0.2 -4.0 -1.45 -4.3 -2.6 -4.45 -3.6 -4.5 -4.25 -4.45 -5.7 -4.4 -7.1 -4.5 -7.85 -4.6 -8.55 -5.15 -9.95 -5.55 -11.15 -5.55 -11.95 -5.55 -13.0 -5.35 -13.55 -5.15 -14.15 -5.15 -14.8 -5.15 -14.85 -5.35 -15.6 -5.55 -16.35 -5.55 -16.5 -5.55 -16.95 -5.2 -18.7 L-4.85 -20.35 Q-4.85 -20.95 -5.35 -22.2 -5.85 -23.5 -5.85 -24.05 -5.85 -25.35 -5.0 -26.75 -4.55 -27.45 -4.45 -27.75 -4.2 -28.35 -4.2 -28.95 -4.2 -29.55 -4.35 -30.35 -4.55 -31.2 -4.55 -32.0 -4.55 -32.8 -4.25 -34.25 -3.9 -35.85 -3.35 -37.35 -2.15 -40.55 -0.85 -41.2 -0.25 -41.65 0.35 -41.35 L0.4 -41.2 Q1.0 -41.45 1.6 -40.75 1.8 -40.45 2.05 -40.0 M2.75 -36.45 Q2.9 -36.8 2.9 -36.95 2.9 -37.7 1.8 -39.15 0.7 -40.6 -0.05 -40.9 L0.15 -41.1 -0.25 -40.95 Q-1.0 -40.35 -1.55 -39.6 -2.15 -38.7 -2.45 -37.7 L-3.05 -35.75 Q-3.25 -35.05 -3.25 -33.95 -3.25 -33.65 -2.95 -31.8 -2.65 -30.0 -2.65 -29.45 -2.65 -29.2 -3.3 -27.55 -4.0 -25.95 -4.0 -25.4 L-3.45 -23.55 Q-2.95 -21.7 -2.95 -21.45 -2.95 -21.2 -3.15 -20.0 L-3.15 -19.85 -3.3 -18.85 -3.35 -18.6 -3.55 -17.8 -3.35 -16.5 Q-3.15 -15.2 -3.15 -15.15 -3.15 -14.75 -3.35 -14.1 L-3.55 -13.4 Q-3.55 -13.1 -3.1 -12.65 -2.6 -12.2 -2.6 -11.65 -2.6 -11.3 -2.85 -10.7 -3.15 -10.1 -3.15 -9.7 L-2.7 -7.35 Q-2.25 -5.0 -2.2 -4.0 -2.15 -3.4 -1.5 -2.55 L-0.45 -1.15 Q-0.2 -0.75 0.05 0.1 L0.2 0.95 0.4 0.8 Q1.3 0.1 1.5 -0.3 1.5 -0.9 1.8 -1.55 2.05 -2.15 2.4 -2.45 3.05 -3.0 3.3 -3.5 3.6 -4.0 3.5 -4.5 3.4 -4.95 3.35 -5.75 L3.3 -6.7 3.45 -7.95 Q3.6 -9.1 3.6 -9.65 3.6 -10.0 3.95 -11.1 4.3 -12.2 4.3 -12.5 4.3 -12.65 3.75 -14.25 3.2 -15.9 3.2 -16.4 3.2 -16.8 3.65 -17.15 4.15 -17.55 4.15 -18.1 4.15 -18.35 3.95 -18.9 3.75 -19.45 3.75 -19.8 3.75 -20.0 3.9 -20.6 4.05 -21.2 4.05 -21.4 4.05 -22.05 3.65 -23.1 3.2 -24.15 3.2 -24.8 3.2 -26.35 3.6 -27.85 4.0 -29.3 4.0 -29.45 L3.8 -30.6 Q3.65 -31.55 3.65 -31.75 3.65 -31.9 3.8 -32.4 3.95 -32.85 3.95 -33.05 3.95 -33.45 3.3 -34.55 2.6 -35.65 2.6 -35.95 2.6 -36.15 2.75 -36.45" fill="#8cc1ff" fill-opacity="0.7529412" fill-rule="evenodd" stroke="none"/>
    <path d="M1.4 -40.6 Q1.55 -40.6 1.6 -40.45 1.65 -40.35 1.65 -40.25 L1.75 -40.3 Q1.85 -40.4 2.05 -40.4 2.4 -40.4 3.1 -39.45 3.65 -38.65 4.0 -37.85 4.45 -36.8 4.35 -36.4 L4.15 -36.0 Q4.05 -35.75 4.05 -35.35 4.05 -34.8 4.35 -34.5 4.55 -34.3 4.95 -34.15 5.45 -34.0 5.6 -33.9 5.85 -33.65 5.85 -33.2 5.85 -33.0 5.35 -31.5 4.8 -30.0 4.8 -29.35 4.8 -27.65 5.5 -26.45 L6.0 -25.55 Q6.2 -25.05 6.2 -24.4 6.2 -24.0 5.9 -23.15 5.6 -22.3 5.4 -22.1 L5.4 -21.6 5.55 -19.35 5.75 -17.15 Q5.75 -16.35 5.65 -16.2 5.55 -15.85 4.7 -15.1 4.75 -14.85 5.4 -13.95 5.9 -13.25 5.9 -12.85 5.9 -11.1 5.1 -10.2 L4.5 -9.6 Q4.25 -9.2 4.25 -8.6 4.25 -8.55 5.2 -6.2 5.2 -5.55 4.85 -3.8 4.5 -1.95 4.45 -1.35 4.45 -0.4 3.45 1.1 2.5 2.55 1.6 3.15 L1.55 3.15 1.25 3.6 Q0.5 4.75 0.15 4.75 -1.1 4.75 -1.65 3.25 -1.75 3.0 -2.3 2.35 -2.95 1.65 -3.2 1.25 -3.45 0.8 -3.8 -0.65 -4.15 -2.1 -4.15 -2.8 L-4.1 -3.35 Q-4.3 -3.7 -4.3 -4.4 -4.3 -5.05 -4.2 -5.75 -4.2 -5.9 -4.45 -6.6 L-4.7 -7.4 -4.6 -8.15 Q-4.5 -8.65 -4.55 -8.95 -4.75 -10.0 -5.25 -10.75 -5.6 -11.35 -5.6 -12.1 -5.6 -12.5 -5.35 -13.25 -5.05 -13.95 -5.05 -14.75 L-5.3 -15.7 Q-5.5 -16.65 -5.5 -16.8 -5.5 -17.7 -5.35 -18.1 -5.3 -18.3 -5.1 -18.55 -4.7 -19.0 -4.7 -20.5 L-5.25 -22.4 Q-5.85 -24.3 -5.85 -24.65 -5.85 -25.25 -5.55 -26.0 L-4.9 -27.4 Q-3.95 -29.4 -3.95 -31.0 L-4.25 -31.75 Q-4.55 -32.45 -4.55 -32.65 -4.55 -34.45 -3.55 -36.9 -2.75 -38.9 -1.75 -40.0 -1.3 -40.75 -0.85 -41.15 -0.55 -41.15 -0.5 -41.05 -1.0 -40.8 -1.3 -40.3 -1.8 -39.05 -2.3 -38.0 L-3.1 -36.45 Q-3.7 -35.15 -3.7 -33.15 -3.7 -32.7 -3.5 -30.85 L-3.3 -29.0 Q-3.3 -28.75 -4.25 -26.8 -5.2 -24.85 -5.2 -24.65 L-4.55 -23.2 Q-3.95 -21.7 -3.95 -21.3 -3.95 -21.0 -4.2 -19.15 -4.45 -17.3 -4.45 -16.8 L-4.25 -15.55 Q-4.1 -14.5 -4.1 -14.3 -4.1 -14.0 -4.25 -13.45 -3.9 -12.7 -3.85 -12.5 -3.7 -12.15 -3.7 -11.4 -3.7 -11.15 -3.8 -10.9 L-3.9 -10.55 Q-3.75 -10.25 -3.75 -10.05 L-3.8 -8.15 Q-3.8 -7.55 -3.5 -7.05 -3.2 -6.55 -3.2 -5.85 -3.2 -5.4 -3.3 -4.55 -2.35 -3.55 -1.9 -1.8 L-1.45 0.15 Q-1.2 1.3 -0.9 2.0 L-0.85 2.05 -0.75 1.75 Q-0.7 1.6 -0.55 1.45 L1.3 1.5 Q1.4 0.95 1.7 0.1 2.25 -1.85 2.65 -2.55 2.8 -2.8 3.45 -3.55 3.9 -4.05 3.95 -4.8 3.95 -5.25 4.1 -6.25 4.25 -7.15 4.25 -7.3 4.25 -7.45 4.1 -7.9 3.95 -8.3 3.95 -8.5 3.95 -9.2 4.65 -10.2 L5.3 -11.35 Q5.3 -11.5 4.75 -12.95 4.15 -14.45 4.15 -15.6 4.15 -15.75 4.6 -16.6 L5.05 -17.45 4.3 -21.65 Q4.3 -22.2 4.7 -22.8 L4.9 -23.1 Q4.25 -24.7 4.25 -26.2 L4.4 -27.45 4.55 -28.8 Q4.55 -29.05 4.05 -30.9 4.05 -31.55 4.45 -32.3 4.8 -33.05 4.8 -33.15 4.8 -33.3 4.6 -33.5 L4.25 -33.85 Q3.65 -34.35 3.55 -35.2 3.55 -35.55 3.65 -36.2 L3.75 -37.05 Q3.75 -37.15 2.55 -38.6 1.3 -40.0 1.3 -40.4 1.3 -40.65 1.35 -40.65 L1.4 -40.6 M4.7 -25.55 Q4.7 -24.95 4.95 -23.95 L5.0 -24.2 5.05 -24.55 Q5.05 -24.75 4.9 -25.1 L4.7 -25.55 M2.6 -1.4 Q2.55 -0.05 2.45 0.7 3.35 -0.1 3.6 -1.25 3.8 -1.95 3.75 -3.25 L3.7 -3.25 Q2.8 -2.6 2.6 -1.4 M1.2 1.95 L-0.3 1.95 Q-0.05 2.2 -0.05 2.8 L-0.1 2.85 0.15 2.9 Q0.45 2.9 0.75 2.5 L1.15 2.05 1.2 1.95 M-4.4 -13.0 Q-4.6 -12.4 -4.6 -12.05 -4.6 -11.85 -4.3 -11.3 -4.25 -11.3 -4.25 -11.25 -4.2 -11.6 -4.2 -11.9 -4.2 -12.2 -4.4 -12.9 L-4.4 -13.0 M-3.2 -3.7 Q-3.2 -3.45 -3.25 -3.3 L-2.85 -1.3 Q-2.5 0.15 -1.95 1.15 -1.8 1.1 -1.8 1.05 -1.75 0.95 -1.75 0.7 -1.75 0.5 -1.9 -0.35 L-2.0 -1.4 Q-2.0 -1.8 -2.6 -2.8 L-3.25 -3.9 -3.2 -3.7" fill="#bfdcff" fill-opacity="0.7529412" fill-rule="evenodd" stroke="none"/>
    <path d="M1.95 -40.45 L2.0 -40.5 3.9 -38.65 Q4.45 -38.1 4.5 -37.85 4.55 -37.7 4.45 -37.2 4.3 -36.6 4.3 -35.85 4.3 -35.1 5.2 -34.5 L5.85 -34.1 Q6.15 -33.9 6.15 -33.7 6.15 -33.45 5.65 -31.55 5.2 -29.65 5.2 -28.2 5.2 -27.1 5.8 -26.2 6.45 -25.3 6.45 -24.35 6.45 -24.05 5.9 -22.8 5.35 -21.5 5.35 -21.0 5.35 -20.45 5.65 -19.2 5.9 -17.9 5.9 -17.35 5.9 -16.8 5.6 -16.0 5.3 -15.15 5.3 -15.0 5.3 -14.6 5.7 -13.6 6.1 -12.7 6.1 -11.9 6.1 -11.25 5.85 -10.75 5.7 -10.45 5.35 -10.05 4.95 -9.65 4.8 -9.4 4.55 -8.95 4.55 -8.3 4.55 -8.2 4.9 -7.35 5.2 -6.5 5.2 -5.8 L5.1 -4.35 Q4.95 -3.15 4.95 -2.95 4.95 -0.45 3.3 1.15 2.75 2.1 2.1 3.0 1.3 4.2 0.7 4.6 L0.75 4.65 0.7 4.8 Q0.65 4.9 0.4 4.9 -0.4 4.9 -1.4 3.5 L-2.55 1.8 Q-3.2 1.25 -3.65 0.2 -3.95 -0.55 -4.05 -1.45 -4.3 -3.65 -4.3 -8.05 -4.3 -8.45 -4.95 -9.85 -5.65 -11.25 -5.65 -11.8 -5.65 -12.15 -5.35 -13.0 -5.05 -13.85 -5.05 -14.25 -5.05 -14.65 -5.25 -15.4 -5.45 -16.1 -5.45 -16.55 -5.45 -17.0 -5.15 -18.25 -4.85 -19.55 -4.85 -20.45 -4.85 -21.75 -5.35 -23.0 -5.85 -24.25 -5.85 -24.5 -5.85 -24.95 -5.0 -26.65 -4.2 -28.35 -4.2 -29.15 -4.2 -29.55 -4.45 -30.95 -4.75 -32.35 -4.75 -32.85 -4.75 -34.1 -3.7 -36.15 L-2.8 -37.8 Q-2.3 -38.75 -2.1 -39.3 -2.0 -39.0 -2.45 -38.3 -2.85 -37.55 -2.85 -37.25 -2.85 -37.15 -3.5 -35.95 -4.1 -34.8 -4.1 -34.55 -4.1 -34.35 -4.25 -34.05 -4.4 -33.75 -4.4 -33.6 -4.4 -33.1 -4.0 -31.9 -3.65 -30.7 -3.65 -30.4 -3.65 -28.65 -4.55 -26.65 L-5.2 -25.35 Q-5.5 -24.75 -5.5 -24.55 L-5.0 -22.7 Q-4.45 -20.8 -4.45 -19.45 -4.45 -19.05 -4.75 -18.0 -5.05 -16.9 -5.05 -16.5 L-4.8 -15.55 Q-4.6 -14.7 -4.6 -14.25 -4.6 -13.6 -4.85 -13.0 -5.15 -12.4 -5.15 -11.75 -5.15 -11.45 -4.5 -9.75 -3.9 -8.0 -3.9 -7.5 -3.85 -5.6 -3.8 -4.9 -3.75 -4.3 -3.75 -3.25 -3.75 -1.05 -2.6 0.65 -2.15 1.3 -1.2 2.4 L0.3 4.15 Q0.75 4.05 1.15 3.6 1.4 3.3 1.65 2.8 L2.0 2.15 Q2.15 1.9 2.95 0.9 3.7 -0.05 3.95 -0.45 4.45 -1.45 4.7 -5.8 4.7 -6.45 4.45 -7.2 4.2 -7.95 4.2 -8.25 4.2 -9.05 4.85 -10.1 5.5 -11.15 5.5 -11.95 5.5 -12.45 5.1 -13.25 4.65 -14.1 4.65 -14.8 4.65 -15.45 5.05 -16.0 5.4 -16.6 5.4 -17.45 5.4 -17.85 5.15 -19.45 L4.85 -21.0 Q4.85 -21.45 5.25 -22.5 5.6 -23.55 5.6 -23.95 5.6 -24.4 5.45 -25.0 L5.15 -26.15 Q4.7 -27.95 4.7 -30.0 4.7 -30.85 5.1 -32.0 L5.55 -33.2 4.85 -33.6 Q4.15 -34.15 4.05 -34.95 4.0 -35.35 4.0 -35.9 L4.05 -36.85 Q4.0 -37.5 3.3 -38.45 L1.85 -40.4 1.95 -40.45" fill="#ffffff" fill-rule="evenodd" stroke="none"/>
  </g>
</svg>
