<?xml version="1.0" encoding="UTF-8" standalone="no"?>
<svg xmlns:ffdec="https://www.free-decompiler.com/flash" xmlns:xlink="http://www.w3.org/1999/xlink" ffdec:objectType="shape" height="44.45px" width="21.35px" xmlns="http://www.w3.org/2000/svg">
  <g transform="matrix(1.0, 0.0, 0.0, 1.0, 10.75, 39.75)">
    <path d="M2.0 -38.55 Q0.95 -39.05 -0.7 -39.25 L-0.9 -39.35 -1.35 -39.3 Q-1.65 -39.05 -1.9 -38.9 -2.05 -38.65 -2.4 -38.45 L-2.45 -38.45 -2.85 -38.05 -3.2 -37.8 -3.1 -37.75 Q-2.95 -37.65 -2.95 -37.4 -2.95 -36.65 -4.15 -35.2 -5.3 -33.75 -5.3 -33.2 -5.3 -33.15 -5.1 -32.85 -4.9 -32.55 -4.9 -32.4 -4.9 -32.35 -5.4 -30.5 -5.4 -30.15 -5.2 -29.9 -5.1 -29.8 -4.8 -29.65 -4.2 -29.3 -4.2 -28.45 -4.2 -28.1 -4.6 -27.55 L-5.45 -26.45 Q-6.75 -24.75 -6.75 -22.7 -6.75 -22.6 -7.05 -21.3 -7.35 -20.05 -7.35 -19.4 -7.35 -19.3 -7.1 -18.7 L-6.75 -18.05 -6.1 -17.95 Q-5.7 -17.65 -5.3 -16.7 -4.9 -15.85 -4.9 -15.6 -4.9 -15.5 -5.25 -14.55 L-5.6 -13.6 Q-5.6 -13.45 -5.45 -13.2 -5.3 -12.95 -5.3 -12.75 -5.3 -12.65 -5.55 -11.75 L-5.85 -10.85 Q-5.85 -10.7 -5.75 -10.6 L-5.5 -10.45 Q-5.15 -10.15 -5.0 -9.3 L-4.85 -8.75 -4.55 -7.85 -4.15 -6.4 Q-3.95 -5.45 -3.95 -4.9 -3.95 -4.2 -3.2 -3.4 -2.35 -2.5 -2.2 -2.15 -1.8 -1.15 -1.55 -0.75 L-1.5 -0.75 Q0.3 -0.5 1.35 -1.7 1.65 -2.1 2.0 -2.75 2.4 -3.45 2.55 -3.6 3.6 -4.85 4.5 -5.7 4.75 -5.95 4.85 -6.25 4.9 -6.55 4.9 -7.3 4.9 -8.4 5.2 -8.95 5.4 -9.3 5.8 -9.4 6.4 -9.6 6.45 -9.6 6.75 -9.8 6.75 -10.4 L6.5 -11.65 Q6.25 -12.85 6.25 -13.0 6.25 -13.65 6.8 -14.85 7.35 -16.0 7.35 -16.25 7.35 -16.8 6.15 -18.6 5.0 -20.4 5.0 -20.75 5.0 -21.3 5.55 -22.25 6.1 -23.15 6.1 -23.85 6.1 -24.05 5.55 -24.7 5.0 -25.35 5.0 -25.4 5.0 -26.0 5.95 -27.15 L6.9 -28.25 Q6.9 -29.45 5.6 -30.7 L4.75 -31.5 Q4.3 -31.95 4.3 -32.2 4.3 -32.35 4.5 -32.85 4.7 -33.35 4.7 -33.55 4.7 -34.0 3.8 -34.5 2.9 -35.0 2.75 -35.5 2.65 -35.85 2.6 -36.5 L2.6 -37.4 Q2.6 -37.75 2.15 -38.35 L2.0 -38.55 M5.6 -35.1 Q6.4 -33.95 7.0 -33.3 7.7 -32.45 7.85 -31.35 7.9 -30.1 8.0 -29.55 8.15 -28.6 8.65 -27.55 9.05 -26.6 9.05 -25.9 9.05 -25.6 8.75 -24.85 8.45 -24.15 8.45 -23.85 8.45 -23.7 8.65 -23.05 L9.0 -21.6 Q9.5 -19.3 9.5 -17.1 9.5 -16.1 9.8 -15.4 10.05 -14.75 10.05 -14.05 10.05 -13.3 9.45 -12.0 8.85 -10.85 8.85 -10.75 8.85 -10.55 9.0 -9.75 L9.2 -8.75 Q9.2 -7.25 8.2 -5.35 L7.4 -3.75 Q6.95 -2.75 6.7 -1.75 6.3 -0.15 4.2 1.95 2.0 4.2 0.4 4.2 L0.0 4.2 Q-1.05 4.2 -3.4 2.45 -4.6 1.55 -5.6 0.65 -6.05 0.15 -6.75 -1.65 -7.35 -3.3 -7.35 -3.55 -7.35 -3.65 -8.05 -4.6 -8.75 -5.55 -8.75 -6.2 -8.75 -6.4 -8.6 -7.15 -8.45 -7.95 -8.45 -8.1 -8.45 -8.6 -8.95 -9.3 -9.45 -10.05 -9.45 -10.6 L-8.95 -11.9 -8.45 -13.15 Q-8.45 -13.95 -9.6 -16.15 -10.75 -18.4 -10.75 -18.95 -10.75 -19.45 -9.9 -21.25 -9.1 -23.05 -9.1 -23.75 -9.1 -24.15 -9.3 -25.0 -9.5 -25.85 -9.5 -26.2 -9.5 -27.05 -8.2 -29.6 -6.75 -32.4 -6.5 -33.55 -6.0 -35.8 -4.7 -37.35 -2.95 -39.45 -0.1 -39.7 L-0.1 -39.65 0.0 -39.65 0.75 -39.75 Q1.5 -39.75 2.9 -38.6 4.05 -37.6 4.45 -36.95 L5.6 -35.1 M3.45 -31.75 Q3.45 -31.35 3.1 -31.25 2.9 -31.15 2.3 -31.15 2.05 -31.15 2.05 -31.2 2.0 -31.25 2.05 -31.25 L2.0 -31.4 Q2.0 -31.55 2.0 -31.75 2.0 -32.65 2.7 -32.55 3.0 -32.5 3.2 -32.25 3.45 -32.05 3.45 -31.75 M4.45 -29.3 Q4.55 -28.8 4.55 -28.45 4.55 -28.25 4.45 -28.05 L4.25 -27.65 4.05 -27.65 3.9 -27.7 3.7 -27.8 Q4.0 -29.1 4.05 -30.1 L4.25 -30.1 Q4.35 -29.9 4.45 -29.3 M4.7 -15.95 Q4.55 -15.6 4.1 -15.6 3.55 -15.6 3.3 -16.6 3.15 -17.1 3.15 -17.65 3.15 -18.15 3.55 -18.6 4.0 -19.15 4.45 -18.4 4.5 -18.05 4.6 -17.35 4.7 -16.7 4.7 -16.55 4.7 -16.1 4.7 -15.95 M5.25 -12.65 Q5.05 -12.4 4.75 -12.2 4.7 -12.25 4.5 -12.7 4.3 -13.2 4.3 -13.3 L4.3 -13.65 Q4.8 -13.7 5.1 -13.35 5.35 -13.1 5.35 -12.85 5.35 -12.8 5.25 -12.65 M2.25 -7.3 L2.15 -7.4 Q2.1 -7.45 2.1 -7.65 2.1 -8.1 2.45 -8.8 2.75 -9.45 3.15 -9.9 3.55 -10.4 3.85 -10.35 4.15 -10.3 4.15 -9.55 4.15 -9.1 3.7 -8.25 3.15 -7.25 2.6 -7.25 L2.25 -7.3 M1.4 -5.55 L1.75 -5.45 1.8 -5.5 Q1.85 -5.5 1.85 -5.3 1.85 -4.95 1.6 -4.25 1.3 -3.35 1.0 -3.2 L0.75 -3.25 Q0.65 -3.3 0.65 -3.55 0.65 -3.85 0.8 -4.4 1.0 -5.25 1.4 -5.55 M-1.85 -29.6 L-1.8 -29.5 Q-1.8 -29.45 -1.8 -29.7 L-1.8 -29.75 -1.95 -29.75 -1.85 -29.6 M-1.8 -28.8 Q-2.25 -29.1 -2.5 -29.8 L-2.95 -31.1 -2.95 -31.75 Q-2.6 -31.65 -1.95 -31.05 -1.3 -30.45 -1.3 -30.25 -1.3 -30.05 -1.45 -29.55 -1.65 -29.05 -1.8 -28.8 M-3.5 -23.2 Q-3.5 -22.85 -3.55 -22.55 L-3.55 -22.5 Q-3.6 -22.45 -3.8 -22.45 -4.1 -22.45 -4.35 -23.05 L-4.55 -23.65 Q-4.55 -23.95 -4.4 -24.1 -4.25 -24.25 -4.05 -24.2 -3.5 -24.0 -3.5 -23.2 M-3.2 -22.25 Q-3.2 -24.55 -2.4 -24.4 -2.15 -24.35 -1.9 -24.0 -1.65 -23.6 -1.65 -23.2 -1.65 -22.3 -1.8 -21.85 -2.1 -20.95 -3.05 -20.9 -3.2 -21.75 -3.2 -22.25 M-2.25 -17.45 Q-2.3 -17.3 -2.35 -17.25 -2.45 -17.1 -2.7 -17.1 -3.25 -17.1 -3.65 -17.8 -4.0 -18.3 -4.0 -18.5 -4.0 -18.7 -3.85 -19.0 -3.75 -19.3 -3.75 -19.45 L-3.65 -19.45 Q-3.15 -19.15 -2.75 -18.45 L-2.25 -17.45 M-2.35 -15.55 L-2.1 -15.1 Q-2.05 -14.75 -2.1 -14.55 -2.15 -14.25 -2.5 -14.05 -2.75 -13.85 -2.95 -13.8 L-2.85 -14.05 -2.9 -14.05 Q-2.95 -14.15 -2.95 -14.4 -2.95 -14.65 -2.85 -14.95 -2.7 -15.4 -2.35 -15.55 M-2.2 -10.6 Q-1.6 -9.35 -1.6 -8.5 -1.6 -8.2 -1.75 -8.05 L-2.0 -7.8 Q-2.3 -7.6 -1.75 -6.9 -1.95 -6.95 -2.35 -7.45 -2.75 -8.0 -2.75 -8.3 -2.75 -8.45 -2.5 -8.95 -2.2 -9.5 -2.15 -9.55 -2.5 -10.1 -3.4 -10.85 -4.0 -11.35 -4.0 -11.85 -4.0 -12.2 -3.8 -12.55 -3.65 -12.85 -3.4 -12.95 -2.8 -13.25 -2.8 -12.0 -2.8 -11.85 -2.2 -10.6 M-1.5 -5.65 L-1.6 -5.65 Q-1.7 -5.85 -1.7 -6.05 -1.6 -6.1 -1.45 -6.05 -1.35 -6.05 -1.35 -5.95 L-1.5 -5.65" fill="#59a5ff" fill-opacity="0.5019608" fill-rule="evenodd" stroke="none"/>
    <path d="M1.7 -39.45 Q3.3 -38.55 5.4 -35.95 7.25 -33.7 7.65 -32.7 7.9 -32.05 7.95 -30.95 8.0 -29.65 8.1 -29.25 8.4 -27.9 8.8 -27.2 9.05 -26.75 9.05 -25.85 9.05 -25.45 8.85 -24.7 8.65 -23.95 8.65 -23.6 8.65 -22.75 9.15 -21.35 9.6 -20.05 9.55 -18.9 9.5 -18.1 9.85 -16.6 10.25 -14.95 10.25 -14.3 10.25 -13.15 9.8 -12.25 9.4 -11.4 9.4 -9.7 9.45 -8.4 9.4 -8.05 L8.8 -5.8 Q8.7 -5.25 7.8 -3.9 7.0 -2.7 6.95 -2.0 6.75 0.0 3.65 2.45 2.5 3.35 1.35 4.0 0.25 4.6 -0.05 4.6 -0.5 4.6 -0.65 4.25 -1.15 4.0 -1.95 3.3 -3.3 2.05 -3.55 1.9 -4.0 1.65 -4.7 0.75 L-4.75 0.9 -4.8 1.0 Q-5.9 0.2 -7.35 -2.9 -7.85 -4.0 -8.25 -5.05 -8.55 -6.0 -8.55 -6.15 -8.55 -6.4 -8.35 -7.05 -8.15 -7.7 -8.15 -7.9 -8.15 -8.1 -8.25 -8.45 -8.8 -9.05 -8.95 -9.3 -9.2 -9.7 -9.2 -10.2 -9.2 -10.7 -8.8 -11.55 -8.45 -12.4 -8.45 -12.95 -8.45 -14.15 -9.55 -16.1 -10.1 -17.15 -10.25 -17.6 -10.6 -18.4 -10.6 -19.05 -10.6 -19.65 -10.35 -20.35 L-9.8 -21.55 Q-9.05 -23.05 -9.2 -24.2 -9.35 -25.75 -9.25 -26.7 -9.15 -28.15 -8.5 -29.25 -7.7 -30.55 -7.1 -31.8 -6.6 -32.85 -6.0 -34.25 -5.15 -36.35 -4.9 -36.8 -4.0 -38.45 -2.65 -39.0 -3.75 -38.0 -4.45 -36.75 L-4.45 -36.3 Q-4.45 -35.95 -4.85 -35.4 -5.25 -34.9 -5.25 -34.75 -5.25 -34.5 -5.95 -32.6 -6.6 -30.65 -6.6 -29.9 -6.6 -29.6 -6.95 -29.1 L-7.2 -28.7 -7.25 -27.95 -7.1 -26.7 Q-6.95 -25.6 -6.95 -25.4 -6.95 -24.7 -7.2 -24.1 L-7.75 -23.0 -7.85 -22.75 Q-7.75 -22.35 -7.75 -22.15 -7.75 -21.5 -8.3 -19.75 L-8.5 -19.25 Q-8.35 -18.65 -7.5 -16.8 -6.95 -15.6 -6.65 -14.85 -6.95 -15.45 -7.5 -16.05 -8.25 -16.9 -8.4 -17.1 -8.75 -17.6 -8.8 -18.2 L-8.9 -17.75 Q-8.9 -17.15 -8.55 -16.6 -8.35 -16.4 -7.75 -15.8 -7.2 -15.25 -6.95 -14.85 -6.6 -14.15 -6.6 -13.3 -6.6 -13.15 -6.75 -12.3 -6.85 -11.45 -6.85 -11.3 -6.45 -10.15 -6.45 -9.9 -6.45 -9.7 -6.6 -9.1 -6.75 -8.45 -6.75 -8.25 -6.75 -7.6 -6.3 -6.7 L-6.1 -6.2 Q-6.45 -8.0 -6.4 -9.1 L-6.25 -10.45 Q-6.15 -11.45 -6.15 -12.45 L-6.15 -12.65 Q-6.1 -12.0 -6.15 -11.15 -6.2 -9.1 -6.1 -8.45 -6.05 -7.95 -5.7 -7.0 -5.3 -6.05 -5.3 -5.6 L-5.2 -4.75 Q-4.95 -4.3 -4.9 -3.45 -4.75 -3.15 -4.6 -2.9 -4.45 -2.65 -3.5 -1.55 -2.7 -0.65 -2.6 -0.2 -2.45 0.5 -2.1 1.2 L-2.05 1.35 Q-0.95 1.55 -0.45 1.95 -0.35 1.65 -0.05 1.5 0.3 1.3 1.05 1.3 L2.15 1.2 Q2.45 1.1 2.55 0.75 L2.15 1.15 2.05 1.15 Q2.1 1.0 2.55 0.6 L2.55 0.45 Q2.45 -0.3 2.85 -1.15 3.25 -2.05 3.8 -2.1 3.95 -2.65 4.25 -3.0 5.75 -4.65 6.1 -5.1 6.95 -6.25 6.95 -7.2 6.95 -7.65 7.1 -8.2 7.2 -8.6 7.35 -8.85 7.75 -9.9 7.75 -11.0 L7.55 -12.2 Q7.35 -13.35 7.35 -13.55 7.35 -13.9 7.85 -15.15 L8.3 -16.35 Q8.0 -17.15 8.0 -17.65 8.0 -17.85 8.2 -18.3 L8.25 -18.35 8.1 -20.15 7.8 -21.0 7.55 -21.35 Q6.85 -22.1 6.7 -22.4 6.4 -22.95 6.4 -24.25 6.4 -24.4 6.85 -25.95 L7.45 -28.15 7.45 -30.0 Q7.25 -30.95 7.0 -31.2 6.5 -31.8 6.4 -32.5 6.3 -33.4 6.15 -33.6 5.7 -34.45 4.8 -35.0 4.45 -35.2 4.35 -35.35 4.15 -35.55 4.15 -35.95 L4.1 -36.4 4.7 -35.7 3.55 -37.1 1.6 -39.35 Q1.6 -39.7 1.7 -39.4 L1.7 -39.45 M3.8 -36.75 L3.6 -36.8 3.65 -36.9 3.7 -36.9 3.8 -36.75 M2.95 -31.35 L2.7 -31.45 Q2.65 -31.5 2.65 -31.75 2.65 -32.0 3.1 -32.25 L3.3 -32.2 Q3.4 -32.2 3.4 -31.95 3.4 -31.85 3.25 -31.65 L2.95 -31.35 M4.8 -28.0 Q4.7 -27.75 4.4 -27.45 L4.2 -27.65 Q4.15 -27.75 4.15 -28.0 L4.2 -28.65 4.3 -29.4 4.6 -29.4 Q4.8 -28.95 4.8 -28.45 4.8 -28.1 4.8 -28.0 M7.35 -31.7 Q7.2 -32.25 6.95 -32.65 L6.6 -33.2 6.6 -32.75 Q6.6 -32.5 7.05 -32.05 L7.35 -31.7 M7.85 -26.4 Q7.85 -26.9 7.7 -28.05 7.6 -27.25 7.35 -26.25 L6.85 -24.35 6.9 -23.9 Q6.95 -24.6 7.35 -25.2 7.85 -25.95 7.85 -26.4 M4.25 -18.25 Q4.4 -18.1 4.65 -17.4 L4.85 -16.65 4.85 -16.4 4.8 -16.4 4.7 -16.35 Q4.65 -16.25 4.55 -16.2 4.5 -16.25 4.2 -16.85 3.95 -17.45 3.95 -17.65 3.95 -18.1 4.25 -18.25 M8.25 -15.4 Q7.65 -14.2 7.65 -13.95 L7.9 -12.6 Q8.1 -11.35 8.1 -11.0 8.1 -10.55 8.05 -9.95 L8.1 -10.1 Q8.55 -10.9 8.55 -11.25 8.55 -11.4 8.35 -12.15 8.15 -12.95 8.15 -13.05 8.15 -13.5 8.5 -13.9 8.85 -14.3 8.85 -14.65 8.85 -15.15 8.5 -15.95 L8.25 -15.4 M5.4 -13.15 L5.4 -12.6 5.2 -12.4 Q5.05 -12.5 4.85 -12.7 L4.7 -12.95 Q4.7 -13.2 4.9 -13.25 L5.35 -13.2 5.4 -13.15 M2.75 -8.4 Q3.05 -8.95 3.3 -9.35 4.15 -10.45 4.15 -9.3 4.15 -8.85 3.85 -8.25 3.45 -7.5 2.9 -7.5 L2.6 -7.55 2.55 -7.6 Q2.5 -7.6 2.5 -7.8 2.5 -7.95 2.75 -8.4 M1.5 -4.7 Q2.05 -5.1 2.05 -4.35 2.05 -4.15 1.8 -3.85 1.6 -3.55 1.4 -3.4 L1.05 -3.45 Q1.0 -3.5 1.0 -3.75 1.0 -4.3 1.5 -4.7 M4.3 -2.0 Q4.5 -1.85 4.7 -1.85 5.55 -1.85 6.05 -3.7 L6.4 -4.9 6.35 -4.85 Q6.05 -4.4 5.05 -3.3 4.4 -2.55 4.1 -2.05 L4.3 -2.0 M-7.65 -28.1 Q-8.65 -26.65 -8.65 -25.35 -8.65 -25.15 -8.2 -23.9 L-8.1 -23.6 Q-7.95 -24.1 -7.95 -24.15 L-7.7 -25.55 Q-7.5 -26.9 -7.5 -27.95 L-7.45 -28.35 -7.65 -28.1 M-1.75 -29.8 Q-1.75 -29.6 -1.8 -29.5 L-1.9 -29.4 -1.9 -29.35 Q-1.9 -29.3 -2.1 -29.3 -2.45 -29.3 -2.6 -29.8 -2.65 -30.05 -2.7 -30.3 -2.7 -30.5 -2.8 -30.8 L-3.0 -31.25 -2.95 -31.5 Q-2.5 -31.45 -2.1 -30.75 -1.75 -30.15 -1.75 -29.8 M-4.0 -22.8 L-4.05 -22.75 -4.25 -22.65 Q-4.6 -22.8 -4.7 -23.1 -4.7 -23.15 -4.7 -23.5 -4.7 -23.75 -4.65 -23.85 -4.55 -24.0 -4.4 -24.05 -4.25 -23.9 -4.1 -23.65 L-3.95 -23.25 -4.0 -22.8 M-3.1 -22.85 Q-3.1 -23.5 -2.5 -23.85 L-2.45 -23.9 Q-2.4 -23.9 -2.4 -23.65 -2.4 -22.35 -2.9 -21.6 L-3.05 -21.6 Q-3.05 -22.0 -3.1 -22.85 M-3.25 -18.2 L-2.8 -17.6 Q-2.9 -17.25 -3.25 -17.25 -3.65 -17.25 -3.95 -18.3 -3.95 -18.5 -3.85 -18.6 -3.8 -18.7 -3.6 -18.75 L-3.25 -18.2 M-2.25 -15.05 L-2.25 -14.4 -2.55 -14.25 -2.75 -14.3 Q-2.8 -14.35 -2.8 -14.55 -2.8 -14.95 -2.55 -15.1 L-2.25 -15.05 M-2.7 -10.65 Q-2.75 -10.55 -2.95 -10.55 -3.5 -10.55 -3.7 -11.1 -3.85 -11.4 -3.85 -11.7 -3.85 -11.95 -3.8 -12.1 L-3.65 -12.3 Q-3.45 -12.25 -3.05 -11.7 -2.65 -11.1 -2.6 -10.8 -2.65 -10.7 -2.7 -10.65 M-2.05 -8.7 Q-1.95 -8.5 -1.95 -8.3 -1.95 -7.85 -2.2 -7.65 -2.6 -7.95 -2.6 -8.3 L-2.55 -8.65 Q-2.45 -8.85 -2.2 -9.05 L-2.05 -8.7 M-6.25 -13.7 L-6.35 -14.05 -6.3 -13.9 -6.25 -13.7 M-4.75 -1.65 Q-4.6 -1.0 -3.6 0.1 L-3.05 0.7 Q-3.1 -0.55 -3.8 -1.15 -4.4 -1.65 -4.8 -2.3 L-4.75 -1.65" fill="#8cc1ff" fill-opacity="0.7529412" fill-rule="evenodd" stroke="none"/>
    <path d="M3.3 -31.95 Q3.45 -31.75 3.45 -31.5 3.3 -31.4 3.15 -31.4 L3.1 -31.4 Q3.05 -31.4 3.05 -31.6 3.05 -31.85 3.1 -31.9 L3.15 -31.95 3.3 -31.95 M5.0 -28.95 L5.05 -28.75 5.05 -27.9 4.95 -27.85 4.8 -27.75 Q4.6 -28.0 4.6 -28.45 L4.6 -28.8 Q4.65 -29.1 4.9 -29.2 4.95 -29.1 5.0 -28.95 M8.8 -28.0 Q9.4 -26.85 9.4 -26.35 9.4 -25.8 8.95 -24.8 8.5 -23.85 8.5 -23.8 8.5 -23.65 8.95 -22.4 9.45 -21.15 9.45 -20.7 L9.35 -18.95 9.25 -17.65 9.8 -16.7 Q10.3 -15.75 10.3 -15.05 10.3 -14.5 10.15 -13.75 L9.8 -12.15 Q9.3 -9.75 9.3 -7.4 9.3 -6.7 9.0 -5.75 8.6 -4.25 7.85 -4.2 L7.5 -3.25 Q6.9 -1.5 6.75 -1.05 6.5 -0.05 5.6 1.15 4.6 2.45 3.7 2.55 3.55 3.1 2.45 3.8 1.05 4.7 -0.45 4.7 -0.7 4.7 -2.25 3.45 L-4.3 1.65 Q-5.5 0.5 -5.9 -0.05 -6.35 -0.7 -6.35 -1.45 -6.8 -2.1 -7.45 -3.4 -8.65 -5.75 -8.65 -5.95 -8.65 -6.1 -8.35 -6.95 -8.1 -7.8 -8.1 -8.1 -8.1 -8.15 -8.55 -9.0 -8.95 -9.85 -8.95 -10.45 -8.95 -11.25 -8.9 -11.35 -8.85 -11.55 -8.45 -11.8 -8.4 -12.2 -8.4 -12.3 -8.4 -14.3 -9.4 -16.25 L-10.1 -17.55 Q-10.4 -18.2 -10.4 -18.65 -10.4 -19.7 -10.15 -20.2 L-9.2 -22.1 Q-8.85 -23.0 -9.0 -23.9 L-9.15 -24.7 Q-9.2 -25.15 -9.2 -25.55 L-9.1 -26.55 Q-8.95 -27.4 -8.95 -27.55 -8.95 -28.25 -7.95 -29.9 -6.75 -31.85 -6.7 -31.95 L-6.05 -34.25 Q-5.7 -35.5 -5.2 -36.2 L-5.2 -35.95 Q-5.55 -34.2 -5.8 -33.35 -6.2 -31.85 -6.65 -30.85 -7.1 -30.0 -7.6 -29.2 L-8.3 -28.15 Q-8.95 -27.2 -8.95 -25.85 -8.95 -24.85 -8.55 -24.05 -8.2 -23.2 -8.2 -22.5 -8.2 -22.3 -8.55 -20.85 -8.95 -19.4 -8.95 -18.5 -8.95 -18.4 -9.05 -18.3 -9.25 -18.05 -9.75 -17.95 -9.7 -17.6 -9.45 -17.05 -9.2 -16.55 -9.2 -16.3 -9.2 -16.15 -8.55 -15.3 -7.9 -14.5 -7.65 -14.4 -7.9 -15.15 -7.9 -15.7 -7.9 -15.8 -8.05 -16.1 L-8.3 -16.55 -8.2 -16.7 Q-7.05 -14.6 -7.05 -11.95 -7.05 -11.8 -7.15 -11.5 -7.3 -11.2 -7.3 -11.0 -7.3 -10.85 -7.4 -10.55 -7.55 -10.25 -7.55 -10.1 -7.55 -9.9 -7.7 -9.6 -7.8 -9.45 -7.95 -9.3 -7.45 -8.05 -6.9 -6.65 -5.75 -3.5 -5.75 -2.45 -5.75 -2.25 -5.6 -1.85 -5.45 -1.45 -5.45 -1.25 L-5.45 -1.05 Q-4.85 -0.3 -3.8 0.65 L-0.8 3.25 Q-0.1 2.9 1.45 2.45 L3.05 2.05 3.05 1.85 Q3.05 0.9 3.35 0.45 3.6 0.1 4.2 -0.15 L5.15 -0.5 Q5.65 -0.8 5.9 -1.35 6.0 -1.55 6.05 -2.35 6.1 -3.1 6.3 -3.45 6.55 -3.9 7.15 -4.6 L7.35 -4.85 7.3 -5.15 Q7.2 -5.6 7.2 -6.15 7.2 -7.25 7.45 -7.95 7.6 -8.3 8.05 -9.05 8.5 -9.75 8.65 -10.35 8.95 -11.3 8.95 -12.75 L9.3 -14.05 Q9.3 -14.55 9.1 -15.25 L8.7 -16.55 Q8.55 -16.95 8.6 -17.85 L8.75 -18.95 Q8.75 -19.65 8.15 -21.45 L7.55 -23.25 Q7.55 -24.15 8.0 -25.15 8.45 -26.2 8.45 -26.4 8.45 -26.45 8.0 -27.1 7.6 -27.75 7.6 -28.15 7.6 -28.55 7.85 -29.05 8.1 -29.55 8.1 -30.1 8.1 -31.3 7.95 -31.85 7.8 -32.4 7.4 -32.9 L6.35 -34.05 Q5.55 -35.0 4.7 -36.2 7.4 -34.25 7.95 -32.6 8.2 -31.95 8.2 -31.05 L8.2 -29.3 Q8.2 -29.15 8.8 -28.0 M4.85 -17.25 Q5.0 -17.0 5.1 -16.9 5.05 -16.7 4.9 -16.55 4.65 -16.65 4.45 -16.95 4.3 -17.2 4.3 -17.35 4.3 -17.6 4.4 -17.65 L4.55 -17.7 Q4.75 -17.5 4.85 -17.25 M8.0 -7.5 Q7.8 -6.55 7.8 -6.2 L7.85 -5.9 7.85 -5.85 8.2 -7.35 Q8.4 -8.3 8.3 -8.8 L8.3 -8.75 Q8.2 -8.45 8.0 -7.5 M4.05 -9.0 Q4.1 -8.9 4.1 -8.7 4.1 -8.5 3.8 -8.2 L3.4 -7.75 3.25 -7.75 Q3.1 -7.75 3.1 -7.95 3.1 -8.15 3.4 -8.6 3.7 -9.05 3.9 -9.1 L4.05 -9.0 M2.25 -3.95 Q2.2 -3.75 2.1 -3.6 1.95 -3.45 1.7 -3.35 L1.5 -3.4 Q1.4 -3.45 1.4 -3.65 1.4 -4.05 2.05 -4.15 L2.25 -3.95 M1.05 3.2 Q0.75 3.35 0.2 3.4 L0.35 3.5 0.65 3.55 Q0.8 3.55 1.35 3.0 1.3 3.0 1.05 3.2 M-2.5 -30.6 Q-2.35 -30.35 -2.35 -30.15 -2.35 -29.95 -2.4 -29.85 L-2.5 -29.7 -2.85 -30.2 -3.05 -30.6 Q-3.05 -30.85 -2.95 -30.95 -2.9 -31.05 -2.8 -31.05 L-2.5 -30.6 M-4.4 -23.4 L-4.2 -23.05 Q-4.2 -22.95 -4.3 -22.85 -4.55 -22.95 -4.75 -23.25 L-4.7 -23.55 Q-4.55 -23.55 -4.4 -23.4 M-3.05 -22.65 Q-3.0 -22.85 -2.95 -23.7 L-2.75 -23.7 -2.65 -23.45 -2.65 -23.1 Q-2.65 -22.85 -2.7 -22.75 -2.75 -22.7 -2.95 -22.55 L-3.0 -22.55 -3.05 -22.65 M-3.35 -17.4 Q-3.45 -17.3 -3.55 -17.25 L-3.9 -17.55 Q-4.1 -17.75 -4.1 -17.85 -4.1 -18.1 -4.1 -18.15 L-3.95 -18.3 Q-3.65 -18.15 -3.2 -17.6 -3.25 -17.5 -3.35 -17.4 M-2.85 -11.0 L-2.95 -10.85 -3.1 -10.75 -3.55 -11.2 Q-3.55 -11.45 -3.45 -11.65 -3.35 -11.8 -3.2 -11.8 L-2.8 -11.2 -2.85 -11.0 M-2.2 -8.9 Q-2.1 -8.75 -2.1 -8.55 -2.1 -8.35 -2.15 -8.35 L-2.15 -8.4 -2.25 -8.3 -2.45 -8.45 Q-2.55 -8.55 -2.55 -8.75 -2.55 -9.1 -2.5 -9.15 L-2.35 -9.15 -2.2 -8.9 M-7.45 -13.3 Q-7.45 -12.5 -7.5 -12.05 -7.3 -12.8 -7.45 -13.35 L-7.45 -13.3 M-7.6 -7.5 L-7.8 -6.95 Q-7.95 -6.55 -7.95 -6.35 -7.95 -6.25 -7.2 -5.05 -6.45 -3.7 -6.25 -2.9 L-6.2 -2.85 Q-6.2 -2.8 -6.2 -3.0 -6.2 -3.8 -6.8 -5.35 L-7.6 -7.55 -7.6 -7.5 M-5.5 -1.05 L-5.5 -1.05" fill="#bfdcff" fill-opacity="0.7529412" fill-rule="evenodd" stroke="none"/>
    <path d="M3.4 -31.9 L3.55 -31.85 3.5 -31.6 3.3 -31.6 Q3.25 -31.7 3.25 -31.9 L3.4 -31.9 M5.3 -28.15 Q5.25 -28.05 5.1 -28.0 4.9 -28.15 4.85 -28.25 4.75 -28.4 4.75 -28.65 4.75 -29.0 4.8 -28.85 5.3 -28.8 5.3 -28.15 M7.25 -33.4 Q6.75 -34.1 6.45 -34.15 L6.35 -34.7 6.45 -34.7 6.5 -34.75 Q7.15 -34.45 7.5 -33.65 L8.0 -32.4 7.95 -32.35 7.25 -33.4 M8.55 -28.8 Q8.65 -27.75 8.95 -27.25 9.2 -26.85 9.2 -26.15 9.2 -25.25 9.0 -24.55 8.8 -23.85 8.8 -23.4 8.8 -22.9 9.05 -21.85 9.3 -20.8 9.3 -19.6 9.3 -18.25 9.95 -17.05 L10.4 -16.2 Q10.6 -15.75 10.6 -15.35 10.6 -14.45 10.5 -13.85 10.4 -13.55 10.1 -13.0 9.5 -11.7 9.25 -9.75 9.2 -9.3 9.2 -8.4 L9.25 -6.95 Q9.25 -5.2 8.45 -4.3 7.75 -3.55 7.15 -1.65 6.55 0.2 6.0 0.85 4.55 2.45 3.4 3.25 1.55 4.6 -0.1 4.6 L-0.35 4.65 Q-1.0 4.65 -1.85 3.55 L-2.95 2.2 Q-3.5 1.8 -4.45 1.15 -5.25 0.6 -5.65 0.1 -6.0 -0.3 -6.3 -1.05 L-6.75 -2.3 Q-6.85 -2.5 -7.75 -3.55 -8.55 -4.55 -8.55 -4.7 L-8.4 -5.9 Q-8.2 -6.95 -8.2 -7.1 -8.2 -7.55 -8.6 -8.75 -9.0 -9.9 -9.0 -10.45 -9.0 -11.2 -8.7 -11.6 -8.35 -12.0 -8.35 -12.6 -8.35 -13.7 -9.45 -15.85 L-10.25 -17.35 Q-10.55 -18.1 -10.55 -18.55 -10.55 -19.7 -9.7 -21.35 L-9.2 -21.95 Q-8.9 -22.3 -9.0 -22.5 L-9.0 -23.15 Q-9.05 -23.5 -9.15 -23.75 L-9.15 -24.6 -9.05 -24.6 -8.95 -23.55 Q-8.85 -22.9 -8.85 -22.7 -8.85 -21.35 -9.4 -20.1 -9.95 -19.1 -9.95 -19.0 -9.95 -18.05 -8.8 -15.3 -7.7 -12.55 -7.7 -11.5 -7.7 -11.35 -7.95 -10.55 L-8.15 -9.65 Q-8.15 -9.4 -8.0 -8.7 -7.9 -8.05 -7.9 -7.85 -7.9 -7.7 -8.05 -6.7 L-8.2 -5.5 Q-8.2 -5.15 -6.55 -2.85 -6.25 -2.45 -6.0 -1.6 -5.8 -0.75 -5.5 -0.35 -5.2 0.1 -4.15 0.8 -3.0 1.6 -2.6 1.9 -2.2 2.25 -1.4 3.2 -0.9 3.8 -0.3 4.2 0.25 3.9 1.1 3.55 2.35 3.05 2.75 2.85 3.15 2.6 3.6 2.25 L3.75 1.7 Q3.95 1.1 4.1 0.75 4.6 -0.15 5.85 -0.25 L6.0 -0.6 Q6.2 -1.05 6.4 -2.05 6.55 -2.95 6.75 -3.4 7.0 -4.05 7.5 -4.4 8.65 -5.15 8.85 -6.7 8.95 -7.6 8.85 -9.4 8.9 -10.3 9.5 -12.25 10.1 -14.1 10.1 -14.6 10.1 -15.0 9.75 -15.75 L9.2 -16.8 Q9.05 -17.2 9.05 -17.9 L8.95 -19.0 Q8.75 -20.0 8.45 -21.3 8.2 -22.35 8.2 -23.4 8.2 -23.95 8.45 -24.8 8.7 -25.6 8.7 -26.15 8.7 -26.35 8.55 -26.95 8.4 -27.55 8.4 -27.7 L8.45 -28.8 8.55 -28.8 M5.2 -16.75 L5.0 -16.75 Q4.95 -16.85 4.95 -17.15 L5.05 -17.15 Q5.15 -17.15 5.3 -17.05 5.3 -16.85 5.2 -16.75 M4.05 -7.9 L4.0 -7.85 Q3.9 -7.8 3.8 -7.8 L3.55 -7.85 3.55 -8.1 Q3.55 -8.6 3.9 -8.65 L4.05 -8.5 Q4.1 -8.4 4.1 -8.15 L4.1 -7.9 4.05 -7.9 M2.35 -3.35 L2.0 -3.25 1.85 -3.25 Q1.8 -3.25 1.8 -3.45 1.8 -3.7 1.95 -3.75 L2.2 -3.8 Q2.35 -3.65 2.35 -3.35 M5.25 0.05 Q4.4 0.5 4.1 1.25 L3.8 2.0 4.0 1.85 Q4.9 0.9 5.25 0.6 5.5 0.35 5.75 0.0 L5.25 0.05 M-6.0 -33.9 L-6.0 -33.7 Q-6.0 -32.75 -7.2 -30.65 -8.7 -28.05 -8.8 -27.75 L-9.0 -27.75 Q-8.95 -28.45 -8.5 -29.3 -8.25 -29.85 -7.55 -30.9 -6.85 -31.9 -6.6 -32.45 -6.15 -33.3 -6.15 -33.95 L-6.05 -33.95 -6.0 -33.9 M-2.8 -30.1 L-2.85 -30.05 Q-2.95 -30.0 -3.05 -30.0 L-3.1 -30.0 Q-3.15 -30.0 -3.15 -30.25 L-3.1 -30.5 -3.05 -30.55 -2.9 -30.55 Q-2.8 -30.4 -2.8 -30.1 M-3.05 -11.45 L-2.95 -11.35 Q-2.95 -11.25 -3.1 -11.1 L-3.25 -11.15 Q-3.4 -11.2 -3.45 -11.25 L-3.45 -11.45 -3.05 -11.45 M-2.5 -8.55 Q-2.65 -8.55 -2.7 -8.65 -2.65 -8.75 -2.55 -8.75 -2.45 -8.75 -2.25 -8.65 -2.3 -8.55 -2.5 -8.55" fill="#ffffff" fill-rule="evenodd" stroke="none"/>
  </g>
</svg>
