<?xml version="1.0" encoding="UTF-8" standalone="no"?>
<svg xmlns:ffdec="https://www.free-decompiler.com/flash" xmlns:xlink="http://www.w3.org/1999/xlink" ffdec:objectType="shape" height="42.6px" width="28.25px" xmlns="http://www.w3.org/2000/svg">
  <g transform="matrix(1.0, 0.0, 0.0, 1.0, 14.15, 38.05)">
    <path d="M7.25 -34.6 Q7.5 -33.75 7.6 -33.6 7.85 -33.3 8.65 -32.6 L9.75 -31.65 Q10.45 -30.95 10.65 -29.6 10.95 -27.9 11.15 -27.5 L12.3 -25.5 Q13.2 -23.8 13.2 -23.5 13.2 -23.35 13.05 -23.1 12.95 -22.85 12.95 -22.7 12.95 -20.75 13.4 -19.35 L13.7 -18.4 Q13.85 -18.0 13.85 -17.6 13.85 -17.05 13.45 -16.0 13.0 -15.0 13.0 -14.45 L13.3 -11.55 Q13.3 -11.0 13.0 -10.3 12.7 -9.6 12.7 -9.45 12.7 -9.2 12.95 -8.45 13.15 -7.75 13.15 -7.5 13.15 -6.95 12.15 -5.95 11.0 -4.7 10.85 -4.3 10.7 -4.0 10.6 -3.5 L10.4 -2.65 Q10.1 -1.7 9.2 -1.3 9.15 -1.25 8.35 -0.45 7.4 0.55 6.65 1.2 3.95 3.55 2.1 3.55 1.95 3.55 1.8 3.5 1.55 3.6 1.15 3.85 0.9 4.0 0.4 4.0 L-0.25 3.95 -0.9 3.85 Q-1.2 3.85 -1.3 3.6 -1.4 3.35 -2.0 3.45 L-2.95 3.45 Q-4.6 2.45 -5.45 1.85 -7.0 0.75 -7.0 0.1 -8.2 -0.25 -8.95 -1.95 L-9.55 -3.3 Q-9.9 -4.05 -10.3 -4.45 -12.0 -6.0 -12.2 -7.0 -12.35 -7.6 -12.15 -9.15 -12.15 -9.85 -12.6 -10.65 -13.0 -11.45 -13.0 -11.95 -13.0 -12.5 -12.75 -13.55 L-12.55 -14.65 Q-12.55 -15.2 -13.35 -15.95 -14.15 -16.65 -14.15 -17.2 -14.15 -17.75 -13.7 -18.75 -13.25 -19.75 -13.25 -20.55 -13.25 -21.25 -13.05 -21.85 L-12.65 -22.75 Q-12.15 -23.9 -12.3 -25.25 -12.4 -26.0 -11.6 -27.45 -10.65 -29.2 -10.5 -29.75 -10.3 -30.5 -9.2 -31.95 -7.85 -33.7 -7.55 -34.3 -6.75 -35.8 -4.1 -36.75 -2.75 -37.25 -1.1 -37.6 L-0.2 -37.6 Q-0.05 -38.3 1.6 -37.85 3.35 -37.3 6.55 -35.5 7.0 -35.3 7.25 -34.6 M0.0 -37.25 Q-0.05 -37.2 -0.1 -37.2 -0.2 -37.2 -0.25 -37.3 -1.55 -36.9 -2.65 -36.55 L-4.2 -35.45 Q-5.5 -34.4 -5.65 -33.6 -5.8 -32.65 -6.7 -31.75 -7.15 -31.3 -7.3 -31.05 -7.55 -30.65 -7.55 -30.15 L-7.3 -28.85 Q-7.0 -27.6 -7.0 -26.85 -7.0 -26.6 -7.45 -26.4 -8.15 -26.05 -8.6 -25.6 -8.55 -24.7 -8.85 -24.2 L-9.9 -22.7 Q-10.55 -21.7 -10.55 -21.3 -10.55 -20.6 -10.2 -20.1 -9.6 -19.45 -9.15 -18.85 -8.55 -18.0 -8.75 -17.6 L-8.95 -17.2 Q-9.05 -16.9 -9.05 -16.5 L-8.6 -16.05 Q-8.1 -15.45 -8.1 -14.4 -8.1 -13.5 -7.95 -13.2 -7.75 -12.85 -7.75 -12.4 L-8.25 -11.0 Q-8.8 -9.65 -8.8 -8.95 -8.8 -8.0 -8.6 -7.35 -8.45 -6.75 -7.95 -5.5 L-7.55 -5.85 Q-7.25 -6.1 -6.95 -6.1 -6.2 -6.1 -5.65 -4.6 L-5.25 -3.5 Q-5.0 -2.9 -4.7 -2.65 -3.6 -1.85 -0.55 -0.3 L0.5 -0.4 Q2.55 -0.75 3.05 -1.95 3.5 -3.2 3.9 -3.35 4.2 -3.45 5.65 -3.3 6.75 -3.3 6.9 -5.9 6.95 -6.3 7.6 -7.15 8.3 -8.15 8.45 -8.45 8.6 -8.85 8.8 -9.75 8.95 -10.7 9.15 -11.1 9.55 -12.15 10.15 -12.55 L10.5 -12.8 Q10.6 -13.0 10.6 -13.35 10.6 -13.8 9.95 -14.75 9.3 -15.65 9.3 -15.9 9.3 -16.05 9.45 -16.35 9.6 -16.7 9.6 -16.85 9.6 -17.3 9.05 -18.15 8.5 -19.0 8.5 -19.3 8.5 -20.95 9.6 -21.5 9.9 -21.65 10.4 -21.85 10.75 -22.05 10.75 -22.4 10.75 -22.65 10.6 -23.0 L10.25 -23.65 9.4 -23.7 Q9.0 -23.85 8.9 -24.1 8.85 -24.25 8.85 -24.6 8.85 -24.95 9.6 -26.7 9.6 -27.65 9.2 -28.4 8.95 -28.85 8.4 -29.5 7.75 -30.2 7.55 -30.55 7.2 -31.15 7.2 -31.9 7.2 -32.7 6.55 -33.2 L5.95 -33.65 Q5.6 -33.9 5.4 -34.2 5.2 -34.5 4.75 -35.35 4.25 -36.15 3.75 -36.7 2.95 -36.95 1.45 -37.1 1.3 -37.35 0.8 -37.35 0.4 -37.35 0.0 -37.25 M4.7 -31.8 Q4.7 -33.75 5.4 -32.3 6.2 -30.35 6.3 -30.1 6.2 -30.15 5.95 -30.4 5.75 -30.6 5.5 -30.6 5.2 -30.6 4.95 -31.2 4.7 -31.65 4.7 -31.8 M3.5 -31.1 L3.5 -30.75 3.45 -30.7 3.4 -30.6 Q3.3 -30.55 3.1 -30.55 2.75 -30.55 2.7 -30.8 2.7 -30.9 2.7 -31.1 2.7 -31.9 3.1 -31.9 3.5 -31.9 3.5 -31.1 M5.1 -28.2 L5.2 -27.9 5.2 -27.5 5.05 -27.45 4.8 -27.3 Q4.55 -27.4 4.45 -27.6 4.45 -27.65 4.45 -27.85 4.45 -28.0 4.55 -28.2 4.65 -28.45 4.8 -28.6 L5.1 -28.2 M6.25 -26.2 Q6.15 -25.7 6.15 -25.35 6.15 -24.75 6.65 -24.1 7.15 -23.5 7.15 -23.3 7.15 -23.0 6.7 -21.75 L6.2 -20.5 Q6.2 -20.25 6.45 -19.6 L6.7 -18.95 6.7 -18.8 7.0 -18.45 Q6.95 -18.4 6.9 -18.4 L6.55 -18.35 Q5.8 -18.35 5.5 -19.45 5.4 -20.0 5.4 -20.55 5.4 -20.95 5.85 -21.7 6.35 -22.4 6.35 -22.95 6.35 -23.15 5.8 -23.8 5.2 -24.4 5.2 -24.75 L5.4 -25.55 Q5.7 -26.35 6.3 -26.25 L6.25 -26.2 M6.75 -22.8 L6.85 -23.05 6.7 -23.25 6.75 -22.95 6.75 -22.8 M6.75 -20.55 Q7.1 -20.55 7.1 -20.2 L7.05 -20.0 Q7.05 -19.95 7.05 -19.85 L7.0 -19.8 Q6.9 -19.75 6.8 -19.7 L6.6 -19.9 Q6.5 -20.0 6.5 -20.2 6.5 -20.45 6.6 -20.5 L6.75 -20.55 M5.95 -20.5 L5.95 -20.5 M4.7 -18.05 Q5.0 -17.65 5.05 -17.5 5.15 -17.35 5.15 -17.0 5.15 -16.75 5.1 -16.55 5.0 -16.35 4.8 -16.15 4.75 -16.2 4.55 -16.7 4.35 -17.2 4.35 -17.3 4.35 -17.6 4.4 -17.75 4.5 -17.9 4.7 -18.05 M7.75 -15.6 Q7.75 -15.05 7.6 -14.55 7.45 -14.1 7.45 -13.15 L7.4 -12.35 7.3 -11.3 7.25 -11.2 Q7.15 -11.1 6.95 -11.1 6.9 -11.1 6.55 -12.05 6.25 -12.95 6.25 -13.0 6.25 -13.35 6.9 -14.55 7.55 -15.8 7.55 -16.35 L7.7 -16.35 Q7.75 -15.9 7.75 -15.6 M4.85 -13.0 Q4.85 -13.35 4.9 -13.2 L5.2 -13.25 5.55 -13.2 5.65 -13.0 Q5.6 -12.7 5.4 -12.6 L4.95 -12.85 4.9 -12.8 Q4.85 -12.75 4.85 -13.0 M3.1 -7.45 L2.95 -7.5 Q2.9 -7.55 2.9 -7.75 2.9 -7.9 3.15 -8.35 3.4 -8.85 3.7 -9.2 4.55 -10.25 4.55 -9.15 4.55 -8.75 4.1 -8.25 3.65 -7.75 3.1 -7.45 M5.5 -7.55 Q5.6 -7.25 5.6 -7.05 5.6 -6.35 5.25 -5.9 5.05 -5.7 3.95 -4.65 4.4 -5.15 4.65 -5.75 4.75 -6.15 4.85 -7.15 4.95 -7.95 5.2 -8.35 5.5 -8.95 6.25 -9.2 5.4 -8.55 5.4 -8.05 L5.5 -7.55 M1.95 -4.8 Q2.0 -4.7 2.0 -4.45 2.0 -4.25 1.7 -3.8 1.45 -3.35 1.25 -3.25 L1.0 -3.3 Q0.95 -3.4 0.95 -3.6 0.95 -3.8 1.15 -4.25 1.45 -4.8 1.75 -4.95 L1.95 -4.8 M1.55 3.35 L1.6 3.4 1.6 3.35 1.55 3.35 M-5.35 -32.2 L-5.2 -32.25 Q-4.85 -32.0 -5.0 -31.3 -5.2 -30.5 -5.1 -30.3 L-4.5 -29.4 Q-4.2 -28.85 -4.2 -28.5 -4.2 -27.8 -5.05 -26.35 L-6.15 -24.7 -6.25 -24.65 Q-6.25 -24.75 -6.3 -25.05 -6.4 -25.4 -6.4 -25.55 L-5.7 -26.75 Q-5.05 -27.9 -5.05 -28.4 -5.05 -28.55 -5.45 -29.0 -5.9 -29.5 -5.9 -30.05 -5.9 -30.65 -5.7 -31.0 -5.45 -31.4 -5.35 -32.2 M-2.9 -30.5 Q-2.75 -30.5 -2.5 -30.35 -1.85 -29.9 -1.85 -29.25 -1.85 -29.0 -2.05 -28.85 -2.15 -28.8 -2.35 -28.8 -2.85 -28.8 -3.05 -29.5 -3.1 -29.85 -3.1 -30.15 -3.1 -30.45 -2.9 -30.5 M-4.35 -22.75 L-4.45 -22.55 Q-4.45 -22.45 -4.7 -22.4 L-5.1 -22.5 -5.15 -22.75 -5.2 -23.15 Q-4.65 -23.15 -4.35 -22.75 M-3.25 -21.4 Q-3.25 -21.95 -3.15 -22.4 -3.0 -23.3 -2.55 -23.5 -2.45 -23.4 -2.3 -23.0 -2.1 -22.55 -2.1 -22.4 -2.15 -22.1 -2.25 -21.75 -2.45 -21.1 -2.8 -20.95 L-3.2 -21.05 -3.25 -21.1 -3.25 -21.4 M-6.75 -17.9 L-6.75 -17.95 -6.6 -17.95 Q-5.9 -17.6 -5.55 -17.35 -5.2 -17.05 -5.2 -16.75 -5.2 -16.5 -5.35 -15.4 L-5.55 -14.3 Q-5.55 -14.1 -5.4 -14.0 -5.2 -13.9 -5.2 -13.7 -5.2 -13.35 -5.4 -12.75 -5.65 -12.05 -5.85 -11.9 -5.95 -12.1 -5.85 -12.5 L-5.75 -13.1 -5.9 -14.65 Q-5.9 -14.85 -6.05 -14.9 -6.25 -15.0 -6.25 -15.2 L-6.0 -15.7 Q-5.75 -16.1 -5.75 -16.15 -5.75 -16.5 -6.25 -16.9 -6.75 -17.35 -6.75 -17.65 L-6.75 -17.9 M-3.0 -17.4 Q-3.0 -16.9 -3.45 -16.9 -3.9 -16.9 -4.2 -17.35 -4.4 -17.6 -4.45 -17.75 -4.45 -18.3 -4.25 -18.5 -4.05 -18.65 -3.75 -18.5 -3.45 -18.35 -3.25 -18.0 -3.0 -17.7 -3.0 -17.4 M-3.05 -14.3 Q-3.05 -14.85 -2.8 -15.05 -2.65 -15.0 -2.6 -14.9 L-2.6 -14.3 -2.8 -14.1 -2.95 -14.05 Q-3.05 -14.05 -3.05 -14.3 M-4.05 -12.1 Q-3.85 -11.9 -3.5 -11.45 -3.15 -11.0 -3.0 -10.65 -2.85 -10.4 -2.3 -10.05 -1.85 -9.75 -1.85 -9.4 -1.85 -9.2 -2.25 -8.65 -2.65 -8.15 -2.65 -8.05 -2.65 -7.85 -2.35 -7.6 -1.95 -7.3 -1.9 -7.1 L-1.85 -7.05 -2.1 -7.0 Q-2.6 -7.0 -2.9 -7.5 -3.15 -7.85 -3.15 -8.05 -3.15 -8.2 -2.75 -8.5 -2.35 -8.8 -2.35 -9.05 -2.35 -9.4 -2.85 -9.8 -3.35 -10.25 -3.35 -10.95 -3.9 -11.0 -4.15 -11.15 -4.35 -11.3 -4.35 -11.6 -4.35 -11.8 -4.25 -12.0 -4.15 -12.1 -4.05 -12.1 M-4.4 -8.05 Q-4.3 -6.35 -4.05 -5.6 -4.3 -6.0 -4.8 -7.65 -5.2 -9.15 -5.8 -10.0 L-5.75 -10.15 Q-4.65 -9.55 -4.4 -8.05" fill="#59a5ff" fill-opacity="0.5019608" fill-rule="evenodd" stroke="none"/>
    <path d="M6.45 -35.6 L6.45 -35.65 Q7.2 -35.35 7.85 -34.2 8.65 -32.8 9.3 -32.3 L9.3 -32.05 9.85 -31.65 Q10.5 -31.15 10.5 -30.25 10.5 -29.85 10.75 -29.15 L11.2 -28.0 Q11.45 -27.35 12.6 -25.65 13.4 -24.45 13.4 -23.45 13.4 -23.25 13.25 -22.9 13.05 -22.6 13.05 -22.4 13.05 -21.7 13.55 -19.5 14.05 -17.3 14.05 -16.95 14.05 -16.75 13.7 -16.05 13.35 -15.3 13.35 -15.05 L13.35 -13.3 Q13.35 -13.0 13.4 -12.4 L13.5 -11.45 Q13.5 -11.25 13.2 -10.65 12.95 -10.05 12.95 -9.75 12.95 -9.55 13.05 -8.85 13.2 -8.15 13.2 -8.0 13.2 -7.4 13.05 -7.05 12.95 -6.8 12.7 -6.55 11.75 -5.65 11.25 -4.6 11.1 -4.35 10.95 -3.8 L10.65 -2.85 Q10.25 -1.65 9.55 -1.1 9.1 -0.8 8.05 0.25 L6.25 1.9 Q3.75 4.0 1.55 4.0 L1.1 4.0 1.1 4.1 Q1.05 4.25 0.85 4.25 L-0.3 4.2 -0.55 4.35 Q-0.85 4.35 -1.1 4.15 -1.95 4.05 -2.3 3.9 -2.55 3.75 -2.9 3.4 -3.35 2.9 -3.7 2.6 -4.05 2.35 -5.4 1.5 L-6.2 0.9 Q-7.05 0.55 -7.9 -0.3 -8.7 -1.1 -9.05 -1.85 -9.55 -2.85 -11.35 -4.9 -12.35 -6.0 -13.15 -11.25 -13.15 -11.45 -13.0 -12.3 -12.85 -13.2 -12.85 -13.35 -12.85 -14.4 -13.5 -15.6 -14.15 -16.85 -14.15 -17.2 -14.15 -17.8 -13.8 -18.3 -13.45 -18.75 -13.45 -19.7 L-13.4 -20.95 Q-13.35 -21.7 -13.0 -22.15 -12.6 -22.65 -12.55 -23.35 -12.5 -23.75 -12.55 -24.6 -12.55 -25.4 -12.5 -25.8 -12.35 -26.45 -11.9 -27.0 -11.05 -27.95 -10.55 -29.45 -9.9 -31.25 -9.45 -31.9 -9.2 -32.3 -8.35 -33.15 L-8.1 -33.45 Q-7.85 -33.8 -7.7 -34.2 -7.6 -34.4 -7.0 -34.9 L-6.35 -35.55 Q-5.6 -36.4 -4.95 -36.5 -4.35 -36.45 -4.3 -36.4 -5.05 -36.15 -5.65 -35.8 -5.9 -35.55 -6.05 -35.25 -6.2 -34.95 -6.4 -34.3 -6.55 -33.65 -6.75 -33.3 -7.05 -32.8 -7.65 -32.4 L-7.85 -32.2 -8.0 -31.9 Q-8.55 -30.8 -8.8 -30.1 L-8.9 -29.3 Q-9.0 -28.7 -9.05 -28.35 -9.15 -28.05 -9.25 -27.8 L-9.2 -27.75 Q-9.15 -27.45 -9.15 -26.85 -9.15 -26.1 -9.35 -25.65 -9.5 -25.35 -9.85 -25.0 L-10.45 -24.4 Q-10.85 -23.9 -11.1 -23.25 -11.25 -22.9 -12.0 -21.35 -12.4 -20.5 -12.4 -19.75 L-12.4 -19.65 -12.2 -19.2 -11.75 -18.4 Q-11.1 -17.35 -11.1 -17.0 -11.1 -16.8 -11.25 -15.7 L-11.25 -15.65 -11.0 -14.45 -10.55 -12.05 Q-10.3 -12.4 -10.2 -13.75 -10.1 -14.7 -10.1 -15.65 -10.1 -15.75 -10.7 -16.75 L-11.55 -18.25 -11.45 -18.25 -10.4 -16.95 Q-10.0 -16.5 -9.9 -16.25 -9.75 -16.0 -9.75 -15.6 L-9.7 -14.5 Q-9.7 -13.95 -9.9 -13.2 -10.1 -12.4 -10.4 -12.05 L-10.55 -12.0 -10.4 -11.0 -10.3 -10.85 Q-10.1 -10.35 -10.1 -9.8 -10.1 -9.5 -10.3 -8.65 -10.55 -7.8 -10.55 -7.55 -10.55 -7.4 -10.3 -6.55 L-9.95 -5.6 Q-9.75 -5.2 -8.95 -4.85 -8.25 -4.55 -7.9 -4.15 -7.25 -3.8 -6.85 -3.3 -6.05 -3.05 -5.55 -2.4 -5.4 -2.15 -4.95 -1.35 -4.6 -0.7 -4.25 -0.3 -3.25 -0.15 -2.75 0.45 -2.45 0.8 -1.7 1.3 -0.7 2.0 0.0 2.0 L0.85 1.6 Q1.6 1.25 2.0 1.25 2.9 1.3 3.4 1.05 L3.75 0.4 Q4.1 -0.15 4.7 -0.4 L5.15 -0.5 Q5.35 -0.9 5.25 -1.2 5.35 -1.55 6.2 -2.1 7.0 -2.6 7.55 -2.75 8.05 -2.9 8.35 -3.45 8.4 -4.1 9.0 -5.3 9.8 -6.95 9.9 -7.35 10.0 -7.85 10.35 -8.4 10.1 -9.05 10.1 -9.2 10.1 -9.95 10.7 -11.25 11.4 -12.6 11.5 -13.3 L11.5 -13.35 11.35 -12.95 11.25 -12.95 11.25 -13.6 11.5 -14.1 Q11.45 -14.45 11.45 -14.7 11.45 -14.75 11.55 -14.95 L11.55 -15.3 Q11.55 -16.15 11.9 -16.6 11.8 -16.75 11.8 -17.0 12.0 -17.05 12.15 -17.05 11.95 -17.25 11.5 -17.6 10.6 -18.25 10.6 -18.9 10.6 -19.35 11.15 -19.8 11.65 -20.2 11.6 -20.85 11.55 -21.5 12.2 -22.8 L11.9 -23.05 Q11.7 -23.25 11.7 -23.5 11.7 -24.05 11.5 -24.25 L10.65 -25.1 Q10.5 -25.25 10.5 -25.65 10.5 -25.75 10.7 -26.15 10.85 -26.55 10.85 -26.8 10.85 -26.95 10.65 -27.2 L10.1 -27.8 Q9.3 -28.75 9.15 -30.0 9.1 -30.5 8.2 -31.65 7.35 -32.7 7.35 -33.3 L7.1 -34.1 Q6.9 -34.75 6.9 -35.0 6.65 -35.45 6.45 -35.6 M3.7 -31.05 Q3.65 -30.8 3.4 -30.7 L3.2 -30.7 Q3.1 -30.75 3.1 -30.95 3.1 -31.2 3.2 -31.25 L3.4 -31.35 Q3.65 -31.25 3.7 -31.05 M5.5 -32.05 L6.0 -31.55 5.95 -31.5 Q6.05 -31.35 6.0 -31.3 L5.9 -31.1 Q5.8 -31.0 5.6 -31.0 5.2 -31.0 5.05 -31.45 4.95 -31.7 4.95 -31.9 4.95 -32.15 5.0 -32.2 5.1 -32.25 5.25 -32.3 L5.5 -32.05 M5.2 -27.6 L5.05 -27.7 Q5.0 -27.75 5.0 -27.95 5.0 -28.05 5.15 -28.2 5.3 -28.35 5.4 -28.3 L5.55 -28.3 Q5.6 -28.25 5.6 -28.05 5.6 -28.0 5.5 -27.8 5.3 -27.65 5.2 -27.6 M11.95 -16.5 Q11.65 -15.9 11.65 -15.1 L11.95 -15.55 12.2 -15.95 12.2 -16.05 Q12.2 -16.2 12.0 -16.45 L11.95 -16.5 M7.05 -23.95 Q7.35 -23.85 7.35 -23.4 7.35 -22.95 7.25 -22.8 L6.7 -22.15 6.6 -22.15 6.6 -22.2 6.65 -22.45 Q6.65 -22.75 6.45 -23.45 L6.15 -24.4 Q6.45 -24.2 7.05 -23.95 M6.25 -25.2 Q6.25 -24.9 6.2 -24.75 6.1 -24.55 5.95 -24.4 L5.75 -24.5 Q5.7 -24.55 5.7 -24.8 5.7 -25.05 5.75 -25.2 5.8 -25.3 5.95 -25.4 L6.2 -25.4 Q6.25 -25.4 6.25 -25.2 M6.2 -20.7 Q6.15 -20.6 6.15 -20.4 6.15 -19.9 6.3 -19.7 6.6 -19.3 6.75 -18.8 L6.6 -18.6 Q6.45 -18.4 6.35 -18.4 6.0 -18.4 5.85 -18.9 5.8 -19.2 5.85 -19.45 5.85 -19.8 5.9 -20.15 6.05 -20.7 6.25 -20.85 L6.2 -20.7 M7.6 -14.6 L7.65 -14.25 Q7.65 -13.7 7.45 -12.9 7.3 -12.1 7.15 -12.0 L6.95 -12.3 Q6.85 -12.45 6.85 -12.65 6.85 -13.1 7.05 -13.75 7.25 -14.55 7.55 -14.75 L7.6 -14.6 M10.75 -9.1 L11.25 -9.85 Q11.8 -10.55 12.3 -11.1 12.3 -11.7 11.85 -12.95 L11.8 -13.15 11.8 -13.0 Q11.8 -12.8 11.15 -11.55 10.5 -10.25 10.5 -10.1 10.5 -9.95 10.7 -9.2 L10.75 -9.1 M4.6 -9.05 L4.65 -8.75 Q4.65 -8.45 4.45 -8.25 L3.7 -7.7 3.35 -7.95 3.3 -8.05 Q3.3 -8.35 3.6 -8.75 4.05 -9.3 4.55 -9.15 L4.6 -9.05 M1.9 -3.95 Q2.0 -4.0 2.2 -4.0 2.35 -3.85 2.35 -3.7 L2.1 -3.5 Q1.95 -3.4 1.85 -3.4 L1.75 -3.45 1.55 -3.6 Q1.75 -3.85 1.9 -3.95 M5.45 -0.55 L5.8 -0.6 6.9 -0.75 Q7.45 -0.9 7.7 -1.3 7.95 -1.7 8.15 -2.3 8.3 -2.75 8.3 -3.1 7.95 -2.8 7.3 -2.5 6.4 -2.1 6.15 -1.9 5.6 -1.5 5.5 -1.0 L5.45 -0.55 M3.25 1.3 Q2.2 1.55 1.7 1.75 0.85 2.05 0.4 2.6 L-0.3 2.6 Q-0.75 2.5 -1.3 2.25 L-1.0 2.55 Q-0.55 3.05 -0.2 3.35 L0.55 2.9 Q1.65 2.3 2.1 2.25 2.7 2.2 3.15 1.5 L3.25 1.3 M-7.25 -33.5 L-7.35 -33.3 -7.2 -33.5 Q-7.1 -33.65 -6.95 -34.0 L-7.25 -33.5 M-7.4 -33.25 L-7.5 -33.1 -7.45 -33.15 -7.4 -33.25 M-9.3 -31.45 L-9.3 -31.5 -9.65 -30.9 -9.25 -31.5 -9.3 -31.45 M-9.6 -28.05 L-9.35 -28.5 Q-8.85 -29.5 -9.05 -30.15 -8.8 -30.75 -8.25 -31.75 L-9.1 -30.6 Q-10.3 -28.95 -10.3 -28.6 -10.3 -28.35 -10.0 -28.2 L-9.6 -28.05 M-5.85 -30.35 Q-5.8 -30.45 -5.65 -30.5 L-4.85 -29.1 Q-4.55 -28.65 -4.55 -28.0 -4.55 -27.75 -5.1 -26.95 -5.5 -26.25 -5.65 -26.1 L-5.75 -26.1 Q-5.15 -27.95 -5.15 -28.2 -5.15 -28.5 -5.5 -29.1 -5.9 -29.75 -5.9 -30.0 -5.9 -30.25 -5.85 -30.35 M-3.15 -30.25 L-2.9 -30.25 -2.5 -29.3 -2.6 -29.25 Q-3.0 -29.25 -3.15 -29.45 -3.2 -29.6 -3.2 -29.75 L-3.15 -30.25 M-11.4 -14.3 Q-11.4 -13.15 -11.0 -12.2 L-11.4 -14.15 -11.4 -14.3 M-6.45 -14.2 Q-6.45 -14.55 -6.3 -14.8 -6.1 -15.05 -5.75 -15.1 -5.75 -15.0 -5.75 -14.85 L-5.8 -14.5 Q-5.8 -14.3 -5.65 -14.05 L-5.45 -13.75 Q-5.5 -13.65 -5.55 -13.6 -5.65 -13.5 -5.85 -13.5 -6.2 -13.5 -6.35 -13.8 -6.45 -14.0 -6.45 -14.2 M-6.5 -16.9 Q-6.0 -17.1 -5.75 -16.8 -5.55 -16.6 -5.55 -16.35 -5.55 -16.1 -5.6 -15.8 L-5.65 -15.3 -5.75 -15.3 Q-5.7 -15.6 -6.05 -16.05 -6.45 -16.55 -6.5 -16.9 M-4.45 -10.8 L-4.65 -11.0 -4.6 -11.35 Q-4.45 -11.35 -4.15 -11.25 -3.85 -11.1 -3.75 -10.9 L-3.75 -10.75 -4.05 -10.7 Q-4.25 -10.7 -4.45 -10.8 M-5.3 -9.05 L-5.05 -9.05 Q-4.85 -8.85 -4.8 -8.45 -4.7 -8.1 -4.65 -8.05 L-4.7 -8.0 Q-4.8 -7.9 -4.9 -7.9 -5.05 -8.0 -5.2 -8.3 -5.3 -8.6 -5.3 -8.85 L-5.3 -9.05 M-2.55 -8.85 Q-2.5 -8.8 -2.5 -8.6 -2.5 -8.4 -2.5 -8.25 L-2.55 -7.95 -2.65 -7.9 Q-2.7 -7.85 -2.8 -7.8 -3.1 -8.1 -3.1 -8.2 -3.1 -8.75 -2.8 -8.85 L-2.55 -8.85 M-6.75 -2.5 L-6.9 -2.55 -6.7 -2.2 Q-6.1 -1.05 -5.55 -0.4 L-5.65 -0.5 -5.5 -0.4 -4.9 -0.4 -4.5 -0.35 Q-5.15 -1.25 -6.25 -2.1 L-6.4 -2.2 -6.3 -1.95 -6.15 -1.25 -6.6 -2.15 -6.75 -2.5 M-5.1 -0.25 Q-4.65 -0.1 -4.2 0.05 -4.5 -0.1 -4.8 -0.15 L-5.1 -0.25" fill="#8cc1ff" fill-opacity="0.7529412" fill-rule="evenodd" stroke="none"/>
    <path d="M5.5 -31.4 Q5.5 -31.55 5.6 -31.7 5.7 -31.9 5.8 -31.9 5.9 -31.85 6.0 -31.75 L6.1 -31.6 6.0 -31.35 6.05 -31.3 Q6.0 -31.25 5.8 -31.25 5.6 -31.25 5.55 -31.3 L5.5 -31.4 M10.15 -31.35 Q10.2 -31.15 10.2 -30.65 10.2 -29.8 11.6 -27.35 12.3 -26.15 13.55 -24.3 L13.55 -23.65 13.45 -23.55 13.4 -23.55 Q13.55 -23.1 13.55 -22.85 13.55 -22.65 13.45 -22.0 13.3 -21.35 13.3 -21.15 13.3 -20.75 13.65 -19.95 13.95 -19.15 13.95 -18.45 L13.95 -17.65 Q13.9 -17.45 13.8 -17.35 L13.95 -16.95 Q14.1 -16.6 14.1 -16.3 L13.2 -13.05 Q13.2 -12.85 13.3 -12.2 13.45 -11.55 13.45 -11.4 L13.4 -10.25 Q13.3 -9.15 13.3 -8.2 13.3 -7.4 11.65 -4.5 10.3 -2.2 9.85 -1.8 L9.9 -1.5 Q9.9 -0.9 7.05 1.3 L5.15 2.8 5.15 2.9 Q5.15 3.65 3.35 4.05 1.8 4.45 -0.3 4.45 -1.35 4.45 -2.05 4.15 -2.55 3.9 -3.0 3.4 -3.55 2.75 -3.9 2.45 -4.45 1.85 -5.2 1.45 -6.8 0.6 -7.6 -0.1 -8.45 -0.85 -9.05 -1.95 -9.4 -2.55 -10.65 -3.85 -11.65 -4.9 -11.75 -5.55 -11.85 -5.9 -12.4 -7.3 -12.85 -8.45 -12.85 -9.1 -12.85 -9.4 -12.75 -9.85 -13.05 -10.5 -13.0 -11.35 L-12.9 -12.55 Q-12.8 -13.3 -12.8 -13.7 -12.8 -14.95 -13.35 -15.85 L-13.8 -16.5 Q-13.95 -16.9 -13.95 -17.4 -13.95 -18.2 -13.7 -18.85 -13.4 -19.55 -13.4 -20.55 -13.4 -21.15 -12.95 -22.05 -12.55 -22.95 -12.55 -23.8 -12.55 -24.0 -12.35 -24.55 -12.2 -25.05 -12.2 -25.15 -12.2 -26.1 -12.05 -26.45 -11.9 -26.7 -10.9 -28.05 -10.7 -28.35 -10.25 -29.5 -9.8 -30.5 -9.45 -30.85 -10.1 -29.55 -10.5 -28.2 -10.9 -26.65 -10.85 -25.4 -10.85 -25.2 -11.0 -24.8 -11.2 -24.35 -11.45 -24.05 -11.7 -23.75 -11.8 -23.3 -11.85 -22.85 -11.9 -22.75 -12.55 -21.15 -12.55 -20.1 -12.55 -19.9 -12.8 -19.05 L-13.05 -18.25 Q-13.05 -18.15 -12.55 -16.3 -12.05 -14.45 -12.05 -14.05 -12.05 -13.4 -12.0 -12.2 L-12.0 -12.5 -11.85 -12.5 Q-11.85 -12.3 -11.9 -12.0 L-11.9 -11.5 Q-11.9 -11.25 -11.6 -9.55 -11.25 -7.85 -11.1 -7.35 L-10.9 -6.35 Q-10.75 -5.7 -10.6 -5.3 -10.55 -5.15 -9.6 -4.4 -8.65 -3.7 -8.65 -3.35 -8.45 -1.1 -4.55 0.55 -3.15 1.15 -2.45 1.75 -2.15 2.1 -1.8 2.7 -1.55 3.15 -1.15 3.3 -0.6 3.5 0.9 3.5 2.55 3.5 3.3 2.95 L3.8 2.6 Q3.9 2.4 4.1 2.15 4.5 1.65 4.55 1.4 4.65 1.0 5.3 0.75 L6.8 0.3 Q7.65 0.05 8.45 -0.85 8.8 -1.3 9.25 -2.05 9.2 -2.2 9.25 -2.35 9.25 -2.55 9.9 -4.35 10.4 -5.8 10.8 -6.8 L11.65 -7.9 Q12.3 -8.7 12.1 -9.05 12.1 -9.75 12.5 -10.35 12.9 -10.95 12.9 -11.2 12.9 -11.4 12.7 -11.7 12.55 -12.05 12.55 -12.2 L12.6 -14.15 12.65 -15.8 Q12.65 -16.1 13.05 -16.85 L13.25 -17.25 Q12.8 -17.4 12.55 -18.1 12.35 -18.55 12.3 -19.0 12.3 -19.25 12.4 -20.05 L12.5 -21.1 Q12.5 -21.4 12.7 -22.65 L12.9 -23.6 Q12.6 -23.85 12.3 -24.55 11.9 -25.4 11.9 -25.6 11.9 -25.75 11.45 -26.45 10.9 -27.2 10.8 -27.45 10.7 -27.75 10.6 -28.4 10.5 -29.05 10.4 -29.3 10.2 -29.85 9.3 -31.15 8.45 -32.4 8.3 -32.9 8.8 -32.4 9.25 -32.1 L9.85 -31.7 Q10.05 -31.55 10.15 -31.35 M12.9 -19.15 Q12.9 -19.1 12.9 -18.9 12.9 -18.7 12.95 -18.6 L13.1 -18.4 13.2 -18.4 13.05 -18.85 Q13.0 -19.15 12.95 -19.2 L12.9 -19.15 M6.7 -24.95 L6.6 -24.7 6.0 -24.65 5.95 -24.7 Q5.9 -24.75 5.9 -24.95 L5.9 -25.15 6.0 -25.2 6.2 -25.2 6.6 -25.15 Q6.6 -25.05 6.7 -24.95 M7.4 -23.35 L7.4 -23.0 Q7.4 -22.75 7.35 -22.6 7.25 -22.45 7.1 -22.3 L7.0 -22.3 7.0 -22.45 7.05 -23.0 7.1 -23.5 7.3 -23.5 7.4 -23.35 M6.9 -18.95 L6.65 -18.7 Q6.45 -18.8 6.3 -18.95 6.1 -19.15 6.1 -19.3 6.1 -19.6 6.15 -19.6 6.55 -19.8 6.85 -19.55 7.1 -19.35 7.1 -19.15 7.1 -19.1 6.9 -18.95 M7.85 -13.9 Q7.95 -13.85 7.95 -13.65 7.95 -13.4 7.85 -13.1 7.7 -12.7 7.45 -12.5 7.4 -12.5 7.35 -12.5 7.3 -12.5 7.3 -12.75 7.3 -13.0 7.4 -13.35 7.5 -13.75 7.65 -13.95 L7.85 -13.9 M6.0 -7.15 L5.55 -6.1 5.45 -6.1 5.4 -6.45 Q5.35 -6.65 5.55 -7.0 5.7 -7.3 5.85 -7.35 L6.0 -7.15 M4.75 -8.9 Q4.8 -8.85 4.8 -8.65 4.8 -8.4 4.65 -8.2 4.45 -7.9 4.1 -7.9 L3.8 -8.0 3.75 -7.95 Q3.7 -8.0 3.7 -8.2 3.7 -8.45 3.9 -8.7 4.25 -9.0 4.7 -8.85 L4.75 -8.9 M2.3 -3.75 L2.45 -3.55 Q2.35 -3.35 2.1 -3.3 L1.95 -3.3 Q1.85 -3.3 1.85 -3.55 1.85 -3.9 1.9 -3.75 L2.3 -3.75 M-7.6 -33.85 L-7.6 -33.55 Q-7.6 -32.9 -8.15 -32.25 L-9.55 -30.9 -9.6 -31.1 -8.5 -32.5 Q-7.7 -33.45 -7.7 -33.85 L-7.6 -33.85 M-3.1 -29.8 L-2.95 -29.8 -2.65 -29.5 Q-2.7 -29.3 -2.8 -29.3 -3.15 -29.3 -3.15 -29.5 L-3.1 -29.8 M-5.5 -29.8 Q-5.55 -29.75 -5.55 -29.55 L-5.15 -28.6 Q-4.7 -27.65 -4.7 -27.5 -4.7 -27.25 -4.9 -27.05 -5.1 -26.8 -5.45 -26.8 L-5.6 -27.0 Q-5.65 -27.1 -5.65 -27.35 -5.65 -27.6 -5.4 -28.0 -5.2 -28.45 -5.2 -28.55 -5.2 -28.8 -5.45 -29.1 -5.75 -29.4 -5.75 -29.5 -5.75 -29.75 -5.65 -29.8 -5.65 -29.85 -5.5 -29.9 -5.5 -29.85 -5.5 -29.8 M-3.1 -22.25 Q-3.2 -22.3 -3.25 -22.45 L-3.3 -22.65 -3.25 -22.85 Q-2.9 -22.85 -2.8 -22.75 L-3.1 -22.25 M-5.95 -17.15 L-5.95 -16.95 Q-5.95 -16.75 -6.05 -16.6 L-6.25 -16.4 -6.5 -16.55 -6.3 -16.85 -6.05 -17.2 -5.95 -17.15 M-6.05 -14.55 Q-5.85 -14.35 -5.75 -14.1 L-5.6 -13.6 -6.15 -13.7 Q-6.35 -13.8 -6.35 -14.05 -6.35 -14.3 -6.25 -14.45 -6.15 -14.55 -6.05 -14.55 M-3.7 -17.4 Q-3.75 -17.3 -3.8 -17.2 -3.85 -17.2 -4.1 -17.4 L-4.45 -17.65 -4.35 -17.8 Q-4.25 -17.9 -4.2 -17.9 -3.8 -17.55 -3.7 -17.4 M-4.45 -11.15 Q-4.35 -11.25 -4.2 -11.25 -4.05 -11.1 -4.05 -10.95 L-4.25 -10.75 Q-4.45 -10.85 -4.45 -11.15 M-3.05 -8.75 Q-2.85 -8.55 -2.8 -8.4 -2.85 -8.3 -2.95 -8.25 -3.25 -8.4 -3.25 -8.5 L-3.2 -8.75 -3.05 -8.75 M-4.6 -8.6 L-4.45 -8.4 Q-4.5 -8.3 -4.6 -8.2 -4.7 -8.1 -4.8 -8.05 -5.0 -8.3 -5.1 -8.5 L-5.15 -8.75 Q-5.1 -8.9 -4.9 -8.9 L-4.6 -8.6" fill="#bfdcff" fill-opacity="0.7529412" fill-rule="evenodd" stroke="none"/>
    <path d="M9.8 -31.95 Q10.05 -31.75 10.3 -31.05 L10.65 -30.1 Q10.45 -30.2 10.25 -30.6 10.1 -30.75 9.95 -31.1 L9.65 -31.9 9.7 -32.0 Q9.7 -32.25 9.8 -31.95 M13.55 -24.05 Q13.55 -23.75 13.5 -23.2 13.45 -22.55 13.45 -22.2 13.45 -21.15 13.7 -19.85 13.95 -18.55 13.95 -17.4 13.95 -16.35 13.55 -14.9 13.2 -13.5 13.2 -13.15 13.2 -12.9 13.45 -12.3 13.7 -11.7 13.7 -11.4 13.7 -11.0 13.5 -10.45 13.3 -9.8 13.3 -9.5 13.25 -9.15 13.4 -8.45 L13.55 -7.65 Q13.55 -7.25 12.05 -5.05 10.5 -2.9 10.5 -2.45 10.5 -2.0 9.4 -0.6 8.4 0.7 7.95 1.0 7.7 1.15 6.7 1.55 5.8 1.95 5.6 2.15 L5.15 2.95 5.0 3.15 5.05 3.15 Q5.05 4.05 3.75 4.35 2.8 4.55 0.6 4.55 L-0.65 4.5 Q-1.05 4.15 -1.15 4.1 -1.25 4.05 -1.5 4.0 L-1.5 4.1 -1.85 4.15 Q-2.65 3.5 -4.25 2.1 -5.7 0.8 -7.15 -0.05 -7.9 -0.5 -8.35 -1.15 -8.65 -1.5 -9.0 -2.2 -9.15 -2.5 -10.1 -3.25 -11.1 -4.0 -11.25 -4.4 -13.05 -8.1 -13.15 -9.15 -13.15 -9.55 -13.1 -10.55 -12.95 -11.75 -12.95 -12.85 -12.95 -13.65 -13.45 -15.3 L-13.95 -17.05 Q-13.95 -18.4 -13.15 -21.4 -12.35 -24.4 -12.35 -25.5 -12.35 -26.0 -12.0 -26.6 -11.7 -27.2 -11.3 -27.3 -11.8 -26.3 -11.75 -26.05 -11.6 -25.7 -11.6 -25.15 -11.6 -24.35 -12.1 -23.35 -12.7 -22.1 -12.85 -21.25 L-13.55 -17.5 Q-13.55 -17.0 -13.15 -16.0 -12.65 -14.9 -12.6 -14.65 -12.55 -14.15 -12.55 -13.35 L-12.55 -12.0 Q-12.55 -10.15 -12.45 -9.25 -12.35 -7.65 -11.85 -6.65 -11.5 -5.65 -11.25 -5.2 -10.85 -4.4 -9.95 -3.85 -9.15 -3.35 -8.65 -2.55 -8.25 -1.65 -7.9 -1.2 -7.6 -0.75 -6.25 0.15 L-4.1 1.45 Q-3.7 1.75 -2.8 2.7 -2.0 3.55 -1.6 3.85 L-1.4 3.85 -0.35 4.0 0.75 4.15 Q2.2 4.15 3.45 3.7 L3.9 3.5 3.75 3.4 3.6 3.15 3.8 3.15 Q4.4 3.15 4.9 2.45 L5.4 1.55 Q5.7 1.25 6.7 0.75 7.85 0.2 8.1 0.05 9.15 -0.65 9.75 -1.7 9.95 -2.1 10.55 -3.5 11.0 -4.65 11.65 -5.85 L12.5 -7.45 Q13.3 -9.1 13.3 -10.9 L13.05 -11.75 Q12.8 -12.6 12.8 -12.75 12.8 -12.95 13.2 -14.95 13.6 -16.95 13.6 -17.6 13.6 -18.15 13.3 -18.75 12.95 -19.35 12.95 -19.65 12.95 -20.05 13.15 -20.9 13.35 -21.7 13.35 -22.1 13.35 -22.6 12.9 -24.05 12.4 -25.55 12.1 -25.9 12.15 -26.05 12.25 -26.05 13.45 -24.95 13.55 -24.05 M8.05 -13.05 L7.9 -12.8 7.8 -12.5 7.7 -12.55 7.7 -12.75 Q7.7 -13.0 7.8 -13.15 7.85 -13.3 7.95 -13.3 L8.05 -13.05 M4.85 -8.5 L4.95 -8.3 4.8 -8.1 4.35 -8.05 4.3 -8.1 Q4.25 -8.15 4.25 -8.35 4.25 -8.55 4.4 -8.6 L4.55 -8.6 4.85 -8.5 M-8.35 -32.6 L-8.7 -31.95 Q-8.9 -31.6 -9.2 -31.45 L-9.35 -31.5 -9.5 -31.65 Q-9.4 -31.9 -9.1 -32.3 -8.75 -32.65 -8.45 -32.8 L-8.35 -32.6 M-5.2 -27.5 Q-5.2 -27.3 -5.4 -27.2 L-5.65 -27.25 Q-5.7 -27.3 -5.7 -27.55 -5.7 -27.9 -5.65 -27.75 L-5.45 -27.75 Q-5.25 -27.65 -5.2 -27.5" fill="#ffffff" fill-rule="evenodd" stroke="none"/>
  </g>
</svg>
