<?xml version="1.0" encoding="UTF-8" standalone="no"?>
<svg xmlns:ffdec="https://www.free-decompiler.com/flash" xmlns:xlink="http://www.w3.org/1999/xlink" ffdec:objectType="shape" height="40.6px" width="36.0px" xmlns="http://www.w3.org/2000/svg">
  <g transform="matrix(1.0, 0.0, 0.0, 1.0, 18.2, 35.85)">
    <path d="M8.2 -33.5 Q9.55 -32.35 10.05 -32.05 11.2 -31.4 11.55 -30.75 11.9 -29.9 12.25 -29.35 12.55 -28.95 13.5 -28.15 14.4 -27.4 14.7 -26.85 14.9 -26.4 15.05 -25.5 15.25 -24.5 15.35 -24.15 15.5 -23.65 16.15 -22.75 16.9 -21.75 17.05 -21.45 17.5 -20.4 17.35 -18.8 17.1 -17.0 17.1 -16.15 L17.3 -15.15 Q17.5 -14.15 17.5 -13.75 17.5 -12.9 17.2 -11.45 16.9 -9.9 16.85 -9.2 16.85 -8.95 16.7 -8.15 16.6 -7.4 16.6 -7.0 16.65 -5.5 15.75 -4.8 15.6 -4.7 14.35 -4.0 13.4 -3.5 13.1 -2.95 L12.45 -1.85 Q11.95 -1.05 11.6 -0.75 L10.25 0.35 9.1 1.35 Q7.65 2.45 5.5 2.75 5.1 3.1 3.95 3.5 2.45 4.05 1.2 4.05 0.1 4.05 -0.05 3.95 -0.15 3.85 -0.15 3.7 L-0.2 3.4 -0.2 3.35 -0.3 3.3 -0.65 3.35 -1.75 3.45 -2.35 3.35 Q-2.9 3.3 -3.45 3.0 L-4.05 2.8 -5.8 2.15 Q-6.4 2.05 -6.75 1.9 -7.55 1.7 -8.25 1.4 -9.35 0.95 -9.75 0.5 L-10.45 -0.35 Q-11.0 -0.85 -11.6 -1.45 -12.2 -2.0 -13.2 -3.2 L-13.3 -3.3 -13.5 -3.45 Q-13.9 -3.7 -14.4 -4.4 L-14.7 -4.7 Q-15.35 -5.45 -15.35 -6.25 L-15.9 -7.5 -16.1 -8.05 -16.35 -8.4 Q-16.85 -9.15 -16.8 -9.4 L-16.7 -9.65 -16.7 -9.75 -16.75 -9.95 Q-17.1 -11.05 -17.1 -11.3 L-17.1 -11.6 Q-17.1 -12.0 -16.8 -12.6 -16.5 -13.2 -16.5 -13.6 -16.5 -13.95 -17.2 -14.65 -17.95 -15.35 -17.95 -16.0 -17.95 -16.55 -17.45 -17.35 -16.95 -18.1 -16.95 -18.45 L-17.1 -19.6 Q-17.25 -20.6 -17.25 -20.75 -17.25 -21.05 -16.9 -21.55 L-16.2 -22.5 Q-15.2 -23.9 -15.2 -25.0 -15.4 -25.9 -14.4 -27.05 -14.15 -27.4 -13.85 -27.6 -13.15 -28.55 -12.95 -29.1 -12.65 -30.15 -11.9 -31.1 -10.95 -32.4 -9.75 -32.75 -10.25 -32.45 -10.75 -31.9 L-10.5 -32.05 -10.1 -32.35 -8.9 -33.05 Q-8.3 -33.35 -7.65 -33.6 -6.2 -34.35 -4.45 -34.85 L-4.4 -34.9 -4.25 -34.95 Q-3.2 -35.2 -2.05 -35.4 L-1.45 -35.5 0.15 -35.7 1.3 -35.85 Q2.6 -35.9 3.2 -35.7 L4.35 -35.35 6.1 -34.75 Q7.1 -34.45 8.2 -33.5 M1.0 -35.5 L0.25 -35.4 Q0.1 -35.35 0.0 -35.3 L-0.75 -35.25 -1.75 -35.1 -3.8 -34.75 -4.2 -34.8 -4.9 -34.5 Q-4.5 -34.45 -4.45 -34.4 -5.45 -34.2 -5.8 -33.8 -6.0 -33.6 -6.1 -33.0 -6.2 -32.45 -6.4 -32.2 -6.8 -31.8 -7.8 -31.55 -8.2 -31.5 -9.8 -30.2 -11.4 -28.9 -11.4 -28.5 -11.4 -28.35 -11.25 -27.75 -11.05 -27.15 -11.05 -27.0 -11.05 -26.7 -11.2 -26.0 L-11.4 -24.7 Q-11.5 -24.1 -12.25 -23.3 -12.95 -22.55 -12.95 -22.45 -12.95 -22.2 -12.6 -21.5 -12.2 -20.85 -12.2 -20.7 -12.2 -20.6 -12.65 -19.1 -13.05 -17.6 -13.05 -16.3 -13.05 -15.6 -12.85 -15.25 -12.7 -15.05 -12.35 -14.8 -12.0 -14.6 -11.85 -14.4 -11.6 -14.05 -11.6 -13.45 -11.6 -13.0 -11.4 -12.1 L-11.2 -10.65 -11.1 -9.2 Q-11.05 -8.35 -10.9 -7.75 -10.85 -7.45 -10.1 -7.15 -9.25 -6.9 -9.1 -6.6 -9.0 -6.4 -9.05 -5.9 L-9.1 -5.2 Q-9.1 -5.0 -8.9 -4.6 -8.7 -4.2 -8.7 -4.05 L-8.7 -3.95 Q-8.55 -3.7 -8.05 -3.5 -7.45 -3.25 -7.35 -3.15 -7.3 -3.05 -7.25 -2.65 -7.15 -2.3 -7.0 -2.15 -6.7 -1.85 -5.8 -1.4 -4.7 -0.85 -4.45 -0.65 L-4.65 -0.65 Q-3.85 -0.5 -3.45 -0.3 -3.15 -0.15 -3.1 0.15 -3.05 0.4 -2.85 0.5 -2.5 0.6 -1.4 0.6 L-0.45 0.7 Q-0.4 0.75 -0.4 0.9 -0.35 1.15 1.0 1.25 1.9 0.55 3.75 0.0 L5.2 -0.45 Q5.9 -0.7 6.2 -0.95 6.5 -1.2 6.65 -1.9 6.8 -2.65 7.05 -2.95 7.6 -3.65 8.5 -3.7 L9.65 -3.65 Q9.85 -4.2 10.7 -4.95 11.6 -5.7 11.6 -6.35 11.6 -6.45 11.35 -6.85 11.15 -7.25 11.15 -7.35 11.15 -7.8 12.3 -8.5 13.5 -9.2 13.55 -9.65 13.6 -9.95 13.95 -11.2 L14.3 -12.4 Q14.3 -12.45 13.55 -13.3 12.8 -14.1 12.8 -14.45 12.8 -15.05 13.5 -15.6 14.2 -16.2 14.2 -16.6 L13.7 -17.75 Q13.2 -18.9 13.2 -19.25 13.2 -19.9 13.4 -20.25 13.55 -20.45 13.95 -20.6 14.3 -20.8 14.45 -20.9 14.7 -21.15 14.7 -21.75 14.7 -22.2 14.5 -22.45 L13.7 -23.45 Q13.45 -23.75 13.1 -24.0 12.85 -24.2 12.1 -24.6 11.75 -24.8 11.65 -26.2 L11.6 -27.95 Q11.6 -28.45 11.2 -28.65 11.0 -28.75 10.3 -28.85 9.65 -28.9 9.4 -29.05 9.0 -29.25 9.0 -29.85 9.0 -30.0 9.15 -30.25 9.3 -30.5 9.3 -30.7 9.3 -30.75 7.6 -32.4 6.4 -33.6 5.65 -34.2 2.75 -35.7 1.95 -35.7 L1.15 -35.6 0.8 -35.55 1.0 -35.5 M3.9 -30.3 Q3.85 -30.1 3.75 -30.0 L3.55 -30.0 3.5 -30.05 3.45 -30.25 Q3.45 -30.6 3.55 -30.7 3.65 -30.75 4.0 -30.6 L3.9 -30.3 M5.45 -31.25 L5.65 -31.35 Q5.95 -31.3 6.1 -31.0 6.25 -30.65 6.35 -30.55 6.1 -30.3 5.95 -30.2 5.4 -30.65 5.4 -30.95 5.4 -31.2 5.45 -31.25 M5.5 -26.95 Q5.45 -26.7 5.3 -26.5 5.25 -26.45 5.1 -26.4 L4.85 -26.5 Q4.8 -26.5 4.8 -26.75 4.8 -27.1 4.9 -27.15 5.0 -27.2 5.4 -27.15 L5.5 -26.95 M6.55 -25.0 Q6.7 -24.55 7.15 -24.1 7.55 -23.75 7.55 -23.35 L7.45 -22.95 7.4 -22.65 Q6.65 -22.95 6.45 -23.35 6.3 -23.6 6.3 -24.25 6.3 -24.85 6.55 -25.0 M7.0 -21.5 Q6.9 -21.3 6.9 -21.1 6.9 -20.95 6.7 -20.45 6.5 -19.9 6.5 -19.85 6.5 -19.7 6.85 -19.3 7.25 -18.9 7.25 -18.7 L7.25 -18.4 7.2 -18.3 Q7.15 -18.2 6.95 -18.2 6.5 -18.2 6.35 -18.9 6.25 -19.25 6.25 -19.6 6.25 -20.05 6.55 -20.85 6.9 -21.7 7.1 -21.8 7.1 -21.7 7.0 -21.5 M5.6 -17.05 Q5.65 -17.05 5.65 -16.8 L5.25 -16.2 Q5.05 -16.25 5.0 -16.3 4.95 -16.4 4.95 -16.6 4.95 -16.8 5.05 -16.9 5.1 -16.95 5.4 -17.1 L5.6 -17.05 M8.15 -14.55 L7.9 -13.1 Q7.7 -12.15 7.7 -11.7 7.65 -11.6 7.5 -11.55 L7.15 -11.6 7.15 -12.25 7.1 -12.85 7.45 -13.7 Q7.8 -14.55 8.1 -14.7 L8.15 -14.55 M5.9 -12.65 Q5.8 -12.45 5.5 -12.4 5.45 -12.4 5.4 -12.45 L5.25 -12.55 Q5.25 -12.65 5.3 -12.75 5.4 -12.9 5.5 -12.95 L5.85 -12.85 5.9 -12.65 M6.1 -6.75 Q6.1 -6.7 5.9 -6.4 5.65 -6.15 5.4 -6.0 L5.2 -6.05 Q5.1 -6.05 5.1 -6.25 5.1 -6.5 5.4 -6.9 5.7 -7.2 6.0 -7.4 5.95 -7.3 6.05 -7.1 6.1 -6.95 6.1 -6.75 M4.6 -8.65 L4.65 -8.6 4.7 -8.4 Q4.7 -8.15 4.4 -7.8 4.05 -7.45 3.7 -7.45 L3.6 -7.5 Q3.55 -7.5 3.55 -7.7 3.55 -7.95 4.0 -8.3 4.4 -8.6 4.6 -8.65 M2.3 -3.75 Q2.3 -3.55 2.1 -3.3 1.9 -3.05 1.6 -3.05 1.25 -3.05 1.2 -3.1 L1.15 -3.2 Q1.1 -3.3 1.1 -3.5 1.1 -3.65 1.3 -3.85 1.45 -4.1 1.7 -4.2 2.3 -4.55 2.3 -3.75 M0.3 3.45 L0.5 3.4 0.2 3.4 0.25 3.45 0.3 3.45 M-11.7 -30.45 L-11.8 -30.25 -11.65 -30.4 -11.7 -30.4 -11.7 -30.45 M-14.45 -26.9 L-14.75 -26.45 -14.5 -26.75 -14.45 -26.9 M-3.0 -35.15 L-2.2 -35.4 -2.25 -35.4 -3.1 -35.15 -3.0 -35.15 M-6.3 -29.55 Q-6.3 -29.7 -6.0 -30.2 -5.7 -30.7 -5.5 -30.9 L-5.45 -30.95 -5.45 -30.75 Q-5.45 -30.3 -5.95 -29.8 -5.7 -29.75 -5.35 -29.35 -5.05 -29.0 -5.05 -28.85 -5.05 -28.65 -5.15 -28.5 -5.3 -28.3 -5.55 -28.3 -6.1 -28.3 -6.25 -28.9 -6.35 -29.25 -6.3 -29.55 M-3.05 -28.9 L-2.95 -28.9 Q-2.75 -28.75 -2.6 -28.5 -2.45 -28.35 -2.45 -28.25 L-2.55 -28.15 Q-2.6 -28.1 -2.7 -28.05 L-2.85 -28.25 Q-2.9 -28.2 -2.95 -28.2 L-3.15 -28.2 Q-3.2 -28.2 -3.2 -28.4 -3.2 -28.75 -3.2 -28.65 L-3.15 -28.65 -3.2 -28.7 Q-3.2 -28.9 -3.05 -28.9 M-5.0 -27.4 L-5.9 -25.9 Q-6.4 -25.0 -6.2 -24.4 L-6.45 -24.4 -6.5 -24.7 Q-6.5 -25.3 -5.9 -26.15 -5.3 -27.05 -5.2 -27.8 L-5.05 -27.8 -5.0 -27.4 M-2.6 -22.35 Q-2.55 -22.3 -2.55 -22.1 -2.55 -21.65 -2.9 -21.05 -3.1 -21.2 -3.25 -21.4 -3.35 -21.6 -3.35 -21.7 -3.35 -21.8 -3.15 -22.1 L-2.8 -22.4 -2.6 -22.35 M-6.5 -17.05 Q-6.15 -16.8 -5.75 -16.1 -5.4 -15.5 -5.4 -15.2 -5.4 -15.15 -5.55 -14.95 -5.7 -14.7 -5.8 -14.7 L-6.0 -14.75 Q-6.1 -14.85 -6.1 -15.05 -6.1 -15.25 -5.95 -15.4 -5.8 -15.55 -5.8 -15.7 -5.8 -15.95 -6.1 -16.3 L-6.6 -17.0 -6.55 -17.0 Q-6.5 -17.0 -6.5 -17.05 M-5.9 -14.2 Q-5.85 -13.8 -5.6 -13.2 -5.4 -12.65 -5.4 -12.35 -5.4 -12.0 -5.45 -11.8 L-5.65 -11.75 -5.9 -11.7 -6.0 -11.8 -6.0 -14.2 -5.9 -14.2 M-3.5 -17.0 L-3.55 -16.7 -3.9 -16.65 -4.2 -16.9 -4.4 -17.05 -4.35 -17.4 -4.3 -17.7 Q-4.0 -17.7 -3.8 -17.45 -3.6 -17.1 -3.5 -17.0 M-4.7 -11.25 L-4.65 -11.3 Q-4.45 -11.2 -3.95 -10.8 -3.4 -10.4 -3.25 -10.2 L-3.2 -10.1 -3.3 -10.05 Q-3.4 -10.0 -3.65 -10.0 -3.85 -10.0 -4.3 -10.45 -4.7 -10.9 -4.7 -11.05 L-4.7 -11.25 M-5.35 -8.85 L-4.95 -8.0 -4.6 -7.25 -4.6 -7.2 -4.75 -7.15 -5.1 -7.9 -5.5 -8.85 -5.35 -8.85 M-3.4 -7.5 Q-3.4 -8.0 -2.9 -8.5 L-2.4 -9.0 Q-2.4 -9.2 -2.55 -9.35 L-2.75 -9.6 -2.65 -9.65 Q-2.35 -9.45 -2.2 -9.25 -2.1 -9.1 -2.1 -9.0 -2.1 -8.8 -2.4 -8.55 -2.85 -8.25 -3.0 -8.0 -2.5 -7.65 -2.35 -7.5 L-2.4 -7.3 Q-2.5 -7.2 -2.75 -7.2 -3.0 -7.2 -3.15 -7.3 L-3.4 -7.5" fill="#59a5ff" fill-opacity="0.5019608" fill-rule="evenodd" stroke="none"/>
    <path d="M7.85 -33.8 L8.25 -33.35 Q7.9 -33.45 7.65 -33.6 7.4 -33.75 7.3 -34.05 L7.45 -34.1 7.85 -33.8 M9.55 -32.45 Q9.7 -32.2 10.7 -31.55 11.65 -30.9 11.8 -30.5 12.1 -29.6 12.25 -29.4 12.6 -28.8 13.45 -28.45 14.6 -28.0 15.1 -26.55 15.4 -25.6 15.4 -24.35 15.4 -24.1 15.75 -23.6 L16.5 -22.5 Q17.6 -20.9 17.6 -19.0 17.6 -18.55 17.4 -17.65 17.15 -16.7 17.15 -16.35 17.15 -15.9 17.35 -15.05 17.55 -14.15 17.55 -13.85 17.55 -12.45 17.3 -11.15 16.9 -9.4 16.75 -8.05 L16.7 -6.65 Q16.65 -5.75 16.4 -5.3 16.1 -4.65 14.65 -4.0 L13.75 -3.6 Q13.6 -3.35 13.25 -2.95 12.5 -2.1 12.35 -1.9 L11.75 -0.95 Q11.25 -0.3 10.9 0.0 10.6 0.25 10.35 0.55 L9.95 1.05 Q9.45 1.55 8.5 1.85 7.85 2.05 7.0 2.4 5.8 2.95 5.3 3.35 4.75 3.3 3.45 3.85 2.1 4.35 2.0 4.35 L1.5 4.3 0.6 4.15 0.5 4.1 0.05 4.15 -0.9 3.85 Q-2.0 3.5 -2.8 3.35 -4.05 3.15 -4.75 2.9 -5.25 2.8 -5.65 2.6 -6.0 2.4 -7.7 1.85 -9.45 1.2 -10.05 0.65 -10.5 0.2 -11.05 -0.65 -11.65 -1.55 -11.9 -1.85 -12.1 -2.05 -13.45 -2.95 -14.1 -3.4 -14.25 -3.85 L-14.4 -3.8 Q-14.85 -4.25 -16.05 -6.9 -17.25 -9.7 -17.25 -10.55 -17.25 -11.0 -17.0 -12.0 -16.75 -13.0 -16.75 -13.4 -16.75 -13.65 -17.4 -14.45 -18.1 -15.25 -18.1 -15.95 -18.1 -16.4 -17.75 -17.5 -17.35 -18.55 -17.35 -19.9 -17.35 -20.85 -16.9 -21.5 L-15.45 -23.5 Q-15.2 -23.8 -15.2 -24.35 -15.2 -24.55 -15.25 -25.3 -15.35 -26.55 -14.8 -27.0 -13.85 -27.75 -13.3 -28.85 -13.05 -29.45 -12.6 -30.7 -12.1 -31.7 -11.3 -32.25 -10.25 -33.0 -8.2 -33.3 -7.9 -33.3 -7.85 -33.2 L-9.15 -32.65 -10.55 -32.05 Q-11.3 -31.4 -11.75 -30.75 -12.0 -30.35 -12.2 -30.0 L-12.2 -29.95 Q-12.25 -29.8 -12.35 -29.55 L-12.4 -29.25 Q-12.45 -28.65 -13.15 -27.5 -13.8 -26.45 -13.8 -26.35 L-13.45 -25.8 Q-13.1 -25.3 -13.1 -24.9 -13.1 -24.2 -13.55 -23.55 -13.85 -23.15 -14.6 -22.35 -15.4 -21.55 -15.7 -21.0 L-15.9 -20.7 Q-15.55 -20.4 -15.15 -19.55 L-15.25 -19.9 -15.15 -19.9 -14.8 -18.75 Q-14.2 -17.25 -14.1 -16.5 L-13.85 -15.7 -14.1 -16.1 -14.15 -15.65 Q-14.25 -15.2 -14.4 -14.95 L-14.55 -14.95 Q-14.75 -16.25 -15.0 -17.35 -15.1 -17.05 -15.25 -16.6 -15.7 -15.65 -15.7 -14.6 -15.7 -13.9 -15.15 -13.4 -14.65 -12.95 -14.65 -12.5 L-14.7 -11.95 -14.45 -12.3 -14.45 -12.1 -14.05 -12.5 -14.45 -12.35 -14.15 -12.65 Q-13.6 -13.2 -13.7 -13.8 L-13.55 -13.8 -13.45 -13.2 Q-13.35 -13.4 -13.3 -13.5 L-13.15 -13.1 Q-13.25 -12.75 -13.7 -12.35 L-14.45 -11.75 -14.55 -11.75 Q-14.6 -11.6 -14.7 -11.45 L-14.8 -11.4 -14.95 -10.55 Q-14.95 -10.0 -14.55 -9.7 -14.4 -9.55 -13.75 -9.2 -13.2 -8.9 -12.9 -8.55 -12.55 -8.05 -12.55 -7.2 -12.55 -7.05 -12.7 -6.1 L-12.8 -5.0 Q-12.8 -4.8 -12.55 -4.35 -12.3 -3.85 -12.0 -3.85 -10.8 -4.3 -10.05 -3.45 -9.85 -3.2 -9.55 -2.65 L-9.05 -1.85 Q-8.3 -0.7 -7.35 0.15 -4.7 0.35 -3.75 1.05 L-3.15 1.5 Q-2.8 1.75 -2.35 1.85 -0.9 2.2 -0.2 2.6 L-0.35 2.35 Q-0.1 2.5 0.4 2.85 0.9 3.15 1.6 3.15 2.3 3.15 3.45 2.3 4.55 1.45 4.75 1.45 4.95 1.45 5.35 1.55 5.75 1.7 5.95 1.7 7.15 1.7 7.75 1.2 8.15 0.9 8.4 0.15 8.7 -0.75 8.85 -0.95 9.25 -1.5 10.05 -1.55 10.45 -1.55 12.45 -3.3 14.4 -5.1 14.4 -5.45 14.4 -5.6 14.25 -6.3 14.05 -6.95 14.05 -7.15 14.05 -7.95 14.25 -8.25 L14.25 -8.3 Q14.2 -8.4 14.1 -8.5 14.0 -8.75 14.0 -8.9 L14.1 -9.55 Q14.25 -10.15 14.65 -10.3 14.65 -10.05 14.5 -9.35 14.4 -8.75 14.4 -8.45 L14.75 -8.7 Q15.4 -9.1 15.9 -10.1 L15.9 -10.55 Q15.9 -11.1 15.2 -14.65 15.2 -15.15 15.7 -15.65 16.25 -16.15 16.25 -16.55 16.25 -16.75 15.9 -17.45 15.7 -17.8 15.6 -18.05 15.5 -18.2 15.45 -18.45 15.4 -18.7 15.45 -18.95 15.45 -19.15 15.9 -19.8 L16.3 -20.5 Q16.3 -20.8 15.55 -21.95 L14.55 -23.4 Q14.3 -23.8 14.3 -24.75 14.3 -25.45 14.15 -25.9 L13.9 -26.4 Q13.65 -26.85 13.35 -27.05 L12.25 -27.85 Q11.85 -28.15 11.7 -28.5 11.55 -28.9 11.3 -29.9 11.0 -30.8 10.3 -31.35 L10.3 -31.4 10.35 -31.45 11.45 -30.0 11.4 -30.2 Q11.25 -30.85 11.15 -30.95 11.05 -31.2 10.3 -31.7 9.55 -32.15 9.45 -32.45 L9.55 -32.45 M6.35 -30.95 Q6.3 -30.75 6.15 -30.65 L5.85 -30.65 5.85 -30.75 Q5.8 -30.8 5.8 -30.95 5.8 -31.2 5.95 -31.2 L6.1 -31.25 Q6.3 -31.15 6.35 -30.95 M12.9 -28.1 Q13.55 -27.25 14.1 -26.35 L14.2 -26.35 Q14.45 -25.95 14.75 -24.9 L14.85 -24.55 14.8 -24.7 Q14.6 -26.05 14.5 -26.35 14.3 -26.95 13.2 -27.85 L12.9 -28.1 M7.4 -23.25 Q7.35 -23.15 7.25 -23.1 7.0 -23.3 6.85 -23.5 6.75 -23.7 6.75 -23.75 6.75 -24.0 6.8 -24.15 6.85 -24.3 7.0 -24.45 7.25 -24.45 7.35 -24.1 7.4 -23.65 7.5 -23.45 7.45 -23.3 7.4 -23.25 M7.25 -19.25 L7.2 -19.0 7.2 -18.9 Q7.15 -18.85 6.95 -18.85 6.8 -18.85 6.65 -19.2 6.55 -19.5 6.55 -19.6 6.55 -19.7 6.65 -19.85 6.75 -20.0 6.95 -20.1 L7.15 -19.7 Q7.25 -19.45 7.25 -19.25 M8.1 -12.5 L7.95 -12.4 Q7.8 -12.45 7.75 -12.55 7.7 -12.65 7.7 -12.85 7.7 -13.3 7.95 -13.4 8.2 -13.15 8.2 -12.55 L8.1 -12.5 M4.85 -7.75 L4.8 -7.7 Q4.75 -7.65 4.55 -7.65 4.2 -7.65 4.0 -7.95 3.85 -8.15 3.85 -8.25 3.85 -8.65 4.3 -8.65 4.7 -8.6 4.95 -8.1 L4.85 -7.75 M1.85 -3.15 L1.8 -3.25 Q1.75 -3.35 1.75 -3.45 L1.95 -3.45 Q2.1 -3.4 2.2 -3.3 2.1 -3.2 1.85 -3.15 M0.3 3.4 L0.45 3.6 Q0.75 3.65 1.0 3.75 L1.75 3.8 Q0.75 3.8 0.35 3.45 L0.3 3.4 M0.15 3.5 L0.15 3.5 M-12.1 -30.4 Q-11.45 -31.4 -10.9 -31.85 -11.6 -31.55 -11.9 -31.0 -12.0 -30.8 -12.1 -30.4 M-5.65 -34.25 L-5.8 -33.95 Q-6.1 -33.6 -7.0 -33.5 L-7.05 -33.65 Q-6.85 -33.8 -6.2 -34.15 -5.55 -34.45 -5.35 -34.45 -5.55 -34.4 -5.65 -34.25 M-6.5 -29.35 Q-6.5 -29.45 -6.45 -29.6 -6.35 -29.85 -6.15 -29.95 -5.95 -29.6 -5.7 -28.85 L-5.75 -28.7 Q-5.8 -28.6 -6.0 -28.6 -6.3 -28.6 -6.5 -29.35 M-12.25 -26.2 L-12.65 -25.4 -13.0 -24.65 -13.1 -24.65 -12.75 -25.7 Q-12.5 -26.35 -12.3 -26.45 L-12.25 -26.2 M-16.35 -19.35 Q-16.3 -19.25 -16.0 -19.15 L-15.9 -19.15 -16.3 -19.6 -16.35 -19.35" fill="#8cc1ff" fill-opacity="0.7529412" fill-rule="evenodd" stroke="none"/>
    <path d="M5.85 -31.3 L6.05 -31.3 6.4 -31.25 6.5 -31.05 6.35 -30.9 5.9 -30.85 5.85 -30.9 5.85 -31.3 M13.1 -28.65 Q13.95 -28.1 14.3 -27.85 15.1 -27.2 15.15 -26.75 15.05 -26.2 15.05 -25.8 L15.05 -25.2 Q14.8 -26.25 14.0 -27.15 L13.0 -28.25 Q12.35 -28.9 12.0 -29.5 L12.1 -29.7 12.25 -29.7 Q12.35 -29.15 13.1 -28.65 M15.2 -24.2 L15.15 -24.65 Q15.25 -24.25 15.45 -23.95 15.6 -23.65 16.35 -23.0 16.95 -22.45 17.25 -21.75 17.65 -20.8 17.65 -19.1 17.65 -18.75 17.4 -18.1 L17.2 -17.55 17.2 -17.5 17.1 -16.7 Q17.1 -16.55 17.3 -15.45 L17.5 -14.2 17.25 -10.55 Q17.25 -9.7 17.0 -8.65 16.75 -7.6 16.75 -5.95 16.75 -5.35 16.6 -5.1 16.45 -4.7 15.85 -4.3 L15.75 -4.4 Q15.4 -4.1 14.5 -3.65 13.5 -3.2 12.95 -2.75 12.1 -1.95 11.6 -0.5 11.4 0.2 10.5 0.85 10.35 0.95 8.45 2.1 8.05 2.3 7.1 2.5 6.1 2.7 5.9 2.8 L5.2 3.35 Q4.45 3.85 4.05 3.85 L3.85 3.85 3.7 3.95 Q2.55 4.45 2.4 4.45 0.15 4.45 -2.2 3.65 L-4.05 2.9 Q-5.1 2.5 -5.8 2.3 -6.75 2.05 -7.6 1.75 -9.05 1.3 -9.4 0.95 L-9.6 0.7 Q-10.4 0.45 -11.2 -0.75 L-11.8 -1.8 Q-12.1 -2.3 -12.2 -2.35 -12.4 -2.55 -13.25 -2.95 -13.95 -3.35 -14.15 -3.7 L-14.4 -4.15 -14.55 -4.15 Q-15.3 -4.15 -15.5 -5.2 L-15.65 -6.05 Q-15.7 -6.6 -15.8 -6.8 L-16.45 -8.0 Q-17.1 -9.2 -17.1 -9.5 -17.1 -10.4 -16.8 -11.5 -16.55 -12.6 -16.55 -12.7 -16.55 -13.25 -17.25 -14.15 -17.95 -15.05 -17.95 -15.6 -17.95 -15.75 -17.6 -17.15 -17.25 -18.55 -17.25 -19.95 -17.25 -20.35 -17.05 -20.8 -16.9 -21.05 -16.7 -21.3 -16.5 -21.65 -16.2 -22.15 -15.35 -23.5 -15.2 -23.9 -15.05 -24.25 -15.1 -24.75 L-15.25 -25.6 Q-15.35 -26.6 -14.55 -26.85 -14.55 -26.1 -14.35 -25.7 -14.15 -25.35 -14.15 -24.85 -14.15 -23.7 -15.05 -22.35 L-15.9 -21.1 -16.5 -20.1 -16.3 -19.1 Q-16.0 -17.6 -16.0 -17.3 L-16.2 -16.25 Q-16.4 -15.2 -16.4 -14.95 -16.4 -14.75 -16.25 -14.1 -16.05 -13.45 -16.05 -13.1 -16.05 -12.85 -16.15 -12.2 L-16.25 -11.45 Q-16.25 -11.35 -15.9 -10.65 -15.4 -9.65 -15.15 -9.05 -14.1 -6.6 -14.05 -4.9 -13.95 -4.65 -13.75 -4.4 -13.05 -3.35 -11.4 -2.95 -10.55 -2.75 -9.65 -1.3 -8.85 -0.05 -8.85 0.25 L-8.85 0.4 Q-8.5 0.6 -8.05 0.75 -6.05 1.3 -5.1 1.65 L-4.2 1.9 Q-3.55 2.0 -3.45 2.1 -3.25 2.3 -2.85 2.55 -2.5 2.8 -2.25 2.85 -0.8 3.4 0.0 3.6 0.95 3.8 2.2 3.8 2.95 3.8 3.2 3.55 L3.4 3.4 Q3.55 2.9 5.2 2.3 6.95 1.7 7.8 1.7 8.65 1.7 9.25 0.7 L9.7 -0.1 Q9.95 -0.5 10.2 -0.65 10.75 -0.95 11.3 -1.7 11.9 -2.55 12.3 -2.8 14.5 -4.45 15.25 -5.25 15.6 -5.65 15.85 -6.0 15.85 -6.2 15.7 -6.6 15.6 -7.05 15.6 -7.15 L16.1 -9.5 Q16.6 -11.85 16.6 -12.3 16.6 -12.5 16.45 -13.0 16.25 -13.55 16.25 -13.75 16.25 -13.9 16.4 -14.65 16.55 -15.4 16.55 -15.7 16.55 -16.55 16.65 -17.0 L16.75 -17.3 Q16.55 -17.4 16.35 -17.7 16.25 -18.05 16.25 -18.2 16.25 -18.85 16.6 -19.35 17.0 -19.85 17.0 -20.1 17.0 -20.55 16.75 -21.0 L16.1 -21.8 Q15.2 -23.0 15.2 -24.2 M7.0 -23.9 Q7.0 -24.1 7.1 -24.15 L7.55 -24.15 7.55 -24.05 7.6 -23.75 Q7.6 -23.55 7.55 -23.5 L7.45 -23.35 Q7.25 -23.5 7.1 -23.7 7.0 -23.85 7.0 -23.9 M8.2 -12.9 L8.25 -12.6 8.25 -12.4 8.2 -12.45 8.05 -12.35 Q7.9 -12.45 7.9 -12.65 L7.95 -13.05 8.15 -13.05 8.2 -12.9 M4.9 -8.4 Q5.0 -8.25 5.0 -8.1 4.85 -7.9 4.7 -7.85 L4.4 -7.9 Q4.35 -7.95 4.35 -8.2 4.35 -8.4 4.45 -8.5 L4.7 -8.55 Q4.8 -8.5 4.9 -8.4 M2.3 -3.15 Q2.2 -3.05 2.0 -3.05 L1.95 -2.95 Q1.9 -2.95 1.9 -3.15 1.9 -3.4 2.1 -3.4 L2.45 -3.35 Q2.4 -3.25 2.3 -3.15 M-12.05 -31.45 L-12.25 -31.55 Q-12.1 -31.8 -11.7 -32.05 -11.25 -32.35 -11.0 -32.35 L-11.9 -31.45 -12.05 -31.45 M-6.15 -28.8 Q-6.15 -28.85 -6.3 -29.0 L-6.5 -29.15 -6.25 -29.4 Q-6.15 -29.5 -6.1 -29.5 -5.85 -29.4 -5.8 -29.25 L-5.9 -28.95 -6.0 -28.9 Q-6.1 -28.8 -6.15 -28.8 M-10.85 -1.9 L-10.55 -1.3 -10.5 -1.3 -10.65 -1.95 Q-10.8 -2.45 -11.3 -2.45 L-11.25 -2.4 Q-11.0 -2.25 -10.85 -1.9" fill="#bfdcff" fill-opacity="0.7529412" fill-rule="evenodd" stroke="none"/>
    <path d="M14.9 -26.95 L14.4 -27.4 Q14.05 -27.8 14.05 -27.85 14.05 -28.2 14.1 -27.95 14.25 -27.9 14.55 -27.6 L15.05 -27.1 14.9 -26.95 M15.95 -23.0 Q15.7 -23.3 15.7 -23.45 15.7 -23.65 15.7 -23.7 L15.75 -23.8 15.9 -23.8 Q17.25 -22.8 17.65 -21.35 17.8 -20.65 17.8 -18.85 17.8 -18.45 17.6 -17.95 17.4 -17.45 17.4 -16.9 L17.7 -12.1 Q17.7 -11.5 17.3 -10.3 16.85 -9.1 16.8 -8.35 L16.8 -6.55 Q16.8 -5.5 16.5 -4.75 L16.35 -4.75 Q16.05 -4.4 15.4 -4.05 13.85 -3.35 13.25 -2.9 12.35 -2.3 12.0 -1.4 11.75 -0.4 11.45 0.05 11.05 0.75 9.85 1.35 8.75 1.9 7.35 2.2 5.35 2.7 4.2 3.8 3.65 4.3 3.4 4.45 2.9 4.75 2.1 4.75 0.5 4.75 -2.75 3.4 -4.3 2.75 -5.9 2.0 -7.05 1.9 -7.65 1.75 -8.55 1.45 -9.2 0.9 L-9.15 0.85 Q-9.9 0.7 -10.35 0.0 -10.5 -0.25 -10.8 -0.8 -11.05 -1.3 -11.25 -1.5 -11.8 -2.15 -13.2 -2.75 -14.5 -3.35 -14.95 -3.95 -15.35 -4.45 -15.5 -5.4 -15.75 -6.7 -15.85 -6.95 L-16.6 -8.4 Q-17.15 -9.45 -17.15 -9.95 -17.15 -10.15 -16.95 -10.9 -16.75 -11.6 -16.75 -11.85 -16.75 -13.35 -17.45 -14.45 L-17.95 -15.2 Q-18.2 -15.65 -18.2 -16.15 L-17.75 -17.7 Q-17.35 -19.1 -17.35 -20.35 -17.35 -21.05 -17.0 -21.6 -16.6 -22.2 -15.6 -22.95 -15.0 -23.35 -15.05 -24.15 -15.05 -24.55 -15.2 -25.4 L-15.15 -25.85 -15.1 -26.2 -15.0 -26.2 -14.75 -25.5 Q-14.55 -25.1 -14.55 -24.9 -14.55 -24.05 -15.25 -23.0 -16.3 -21.45 -16.6 -20.75 -16.85 -20.15 -17.25 -18.5 -17.6 -16.95 -17.6 -16.6 -17.6 -16.5 -17.45 -16.1 L-17.0 -15.25 Q-16.35 -13.95 -16.35 -12.85 -16.35 -12.7 -16.55 -11.75 L-16.75 -10.7 Q-16.75 -10.6 -16.2 -9.35 -15.6 -7.9 -15.45 -7.55 -15.4 -7.4 -15.15 -5.95 -15.0 -5.0 -14.55 -4.55 -14.25 -4.25 -12.7 -3.25 -11.3 -2.3 -11.0 -1.85 -10.7 -1.3 -9.7 -0.45 -8.65 0.4 -8.3 0.9 L-8.5 0.95 -8.6 0.95 -7.1 1.35 -5.1 1.8 Q-2.85 2.35 -2.35 2.9 L-2.4 2.95 Q-3.1 2.5 -4.05 2.25 L-5.0 2.1 Q-4.0 2.45 -2.1 3.15 1.2 4.35 1.55 4.35 2.45 4.35 3.25 4.0 3.8 3.75 4.55 3.25 5.45 2.6 5.75 2.4 6.45 2.0 7.25 1.9 8.75 1.7 9.75 1.15 10.85 0.55 10.95 -0.15 11.2 -1.9 13.6 -3.75 14.3 -4.3 15.4 -4.95 L16.3 -5.55 16.35 -6.85 16.35 -9.0 Q16.4 -9.65 16.85 -11.15 17.25 -12.7 17.25 -13.25 L17.1 -15.1 16.9 -16.9 Q16.9 -17.35 17.15 -18.25 17.35 -19.15 17.35 -19.85 17.35 -21.25 16.55 -22.35 L15.95 -23.0 M8.05 -24.05 L7.95 -23.85 7.7 -23.8 Q7.65 -23.9 7.65 -24.1 L7.8 -24.15 8.0 -24.15 8.05 -24.05 M8.35 -12.65 L8.25 -12.75 Q8.2 -12.8 8.2 -12.9 L8.3 -12.9 8.55 -12.85 Q8.5 -12.75 8.35 -12.65 M5.1 -8.15 L5.0 -8.2 Q4.85 -8.2 4.8 -8.25 4.9 -8.35 5.0 -8.4 5.15 -8.4 5.2 -8.35 5.2 -8.25 5.1 -8.15 M-12.0 -31.5 L-12.2 -31.65 -11.9 -31.95 Q-11.75 -32.05 -11.4 -32.05 -11.75 -31.6 -11.9 -31.45 L-12.0 -31.5 M-6.1 -29.1 L-6.2 -29.15 -6.35 -29.25 -6.2 -29.35 -5.95 -29.35 Q-5.95 -29.2 -6.1 -29.1" fill="#ffffff" fill-rule="evenodd" stroke="none"/>
  </g>
</svg>
