<?xml version="1.0" encoding="UTF-8" standalone="no"?>
<svg xmlns:ffdec="https://www.free-decompiler.com/flash" xmlns:xlink="http://www.w3.org/1999/xlink" ffdec:objectType="shape" height="36.4px" width="52.0px" xmlns="http://www.w3.org/2000/svg">
  <g transform="matrix(1.0, 0.0, 0.0, 1.0, 25.35, 32.3)">
    <path d="M1.9 -32.1 Q1.8 -31.95 1.55 -31.9 L1.45 -31.95 1.3 -32.05 Q1.45 -32.25 1.55 -32.3 L1.75 -32.3 1.9 -32.1 M9.35 -29.7 Q10.05 -29.7 10.1 -29.6 10.05 -29.45 10.05 -29.4 L10.5 -29.4 11.65 -29.3 Q13.45 -29.1 14.65 -28.25 L15.75 -27.5 17.25 -26.55 18.1 -25.9 Q19.1 -25.6 19.55 -25.05 19.75 -24.6 20.9 -23.9 21.65 -23.45 21.85 -23.05 L22.2 -22.75 Q23.45 -21.9 23.65 -20.8 23.7 -20.2 23.75 -19.85 23.85 -19.25 24.1 -18.75 25.3 -16.7 25.5 -16.35 25.6 -16.15 25.6 -15.85 L25.6 -14.75 25.45 -13.6 Q25.3 -12.65 25.3 -12.5 25.3 -12.35 25.45 -11.95 25.6 -11.6 25.6 -11.45 25.6 -10.65 25.45 -10.25 25.35 -10.05 25.05 -9.7 24.25 -8.95 23.8 -7.05 23.6 -6.15 22.2 -4.95 L19.7 -3.05 Q19.45 -2.85 18.05 -2.25 16.9 -1.75 16.8 -1.3 16.7 -0.85 16.0 -0.4 15.45 -0.05 14.45 0.4 L12.85 1.2 Q12.0 1.65 11.05 1.9 L5.65 2.85 5.4 2.85 Q4.75 3.0 3.95 3.25 L2.0 3.25 0.9 3.3 Q0.6 3.3 0.35 3.25 L0.3 3.25 -0.45 3.4 -1.2 3.5 Q-2.95 3.5 -7.75 2.45 -12.4 1.45 -13.5 0.9 -14.8 0.3 -16.5 -1.15 -18.65 -3.0 -18.95 -3.2 L-19.85 -3.25 Q-20.8 -4.1 -21.6 -5.15 -22.25 -6.05 -22.9 -7.2 -23.0 -7.4 -23.95 -8.15 -24.8 -8.9 -24.8 -9.2 -24.85 -9.55 -24.8 -10.3 L-24.7 -11.2 Q-24.7 -12.05 -25.0 -13.1 L-25.3 -14.15 -24.8 -16.05 Q-24.3 -17.95 -24.3 -18.5 -24.4 -19.3 -23.15 -20.65 L-22.0 -21.8 Q-21.35 -22.45 -21.05 -22.9 -20.7 -23.4 -20.3 -24.1 -19.95 -24.65 -19.2 -25.15 L-17.7 -25.9 Q-16.7 -26.45 -16.35 -26.9 -16.0 -27.3 -12.85 -28.5 L-8.95 -29.95 Q-8.6 -29.9 -8.55 -29.85 -11.85 -28.85 -14.4 -27.5 -14.95 -27.25 -15.15 -26.8 -15.3 -26.55 -15.45 -26.0 -15.6 -25.4 -15.75 -25.15 -16.05 -24.7 -16.65 -24.4 -17.8 -23.85 -18.85 -22.9 L-20.5 -21.15 -20.3 -21.2 Q-20.1 -21.2 -19.8 -21.2 -19.75 -20.75 -19.75 -20.45 L-20.7 -19.0 Q-21.7 -17.45 -21.7 -17.0 -21.7 -16.75 -21.35 -16.5 -21.0 -16.2 -21.0 -15.9 -21.0 -15.5 -21.3 -14.95 L-21.3 -13.95 -20.65 -14.1 -20.2 -14.0 Q-20.15 -13.85 -20.15 -13.45 -20.15 -13.25 -20.7 -12.0 -21.25 -10.75 -21.25 -10.4 -21.25 -9.85 -21.0 -9.7 -20.9 -9.6 -20.5 -9.6 -20.0 -9.6 -19.8 -9.45 -19.4 -9.3 -19.1 -8.7 -18.85 -8.2 -18.85 -7.6 L-18.95 -6.6 Q-18.95 -6.25 -18.4 -5.45 -17.85 -4.6 -17.4 -4.6 -17.15 -4.6 -16.75 -4.8 L-16.3 -5.05 Q-15.75 -5.05 -15.6 -4.4 L-15.55 -3.4 Q-15.5 -2.6 -14.4 -2.35 L-13.5 -2.25 Q-13.05 -2.15 -12.9 -1.95 -12.05 -1.05 -11.4 -0.6 -10.15 0.35 -9.0 0.35 L-6.1 1.0 -3.1 1.65 Q-3.0 1.7 -2.55 1.95 -2.35 1.8 -2.15 1.75 -1.8 1.65 -0.55 1.75 L0.35 2.3 Q0.8 2.55 1.0 2.55 2.25 2.55 3.05 2.15 L3.6 1.9 Q3.9 1.75 4.3 1.75 4.65 1.75 5.05 1.9 L5.25 2.0 5.95 1.75 Q7.2 1.35 8.05 1.1 8.5 1.0 9.0 0.45 9.45 -0.1 10.0 -0.1 10.4 -0.1 10.5 0.1 10.6 0.25 10.7 0.25 11.5 0.25 12.75 -0.5 13.85 -1.2 14.05 -1.55 L14.4 -2.1 14.7 -2.65 Q14.9 -2.95 15.45 -3.05 16.2 -3.15 16.45 -3.3 16.75 -3.45 16.8 -3.8 16.8 -4.0 16.75 -4.35 16.8 -5.1 18.0 -5.3 18.65 -5.4 19.2 -6.3 L19.65 -6.9 Q19.85 -7.15 20.05 -7.15 20.25 -7.15 20.6 -6.95 21.0 -6.75 21.05 -6.75 21.3 -6.75 21.5 -7.7 21.6 -8.15 21.65 -8.65 L21.25 -9.7 Q20.85 -10.65 20.85 -10.75 20.85 -11.0 21.0 -11.15 21.3 -11.4 22.15 -11.5 L22.4 -11.75 Q22.55 -11.95 22.55 -12.05 22.55 -12.55 21.5 -13.6 20.45 -14.65 20.45 -15.0 20.45 -15.55 21.15 -15.55 L22.35 -15.4 22.75 -15.45 22.85 -15.65 22.6 -16.1 Q22.35 -16.45 22.35 -16.65 22.35 -16.75 22.75 -17.1 23.15 -17.5 23.15 -17.7 23.15 -17.75 22.5 -18.6 L21.75 -19.55 Q21.35 -19.85 21.15 -20.45 L20.85 -21.4 20.05 -21.5 Q19.7 -21.7 19.5 -21.95 19.25 -22.15 19.25 -22.3 19.25 -22.7 19.7 -22.85 L20.6 -22.85 20.95 -22.9 Q20.2 -23.4 18.35 -24.8 L17.75 -25.25 Q17.55 -25.35 17.5 -25.4 L16.45 -25.45 Q15.85 -25.8 15.45 -26.35 L15.1 -26.85 14.45 -27.35 Q13.75 -27.9 13.35 -28.15 12.05 -28.95 9.3 -29.35 9.3 -29.65 9.35 -29.7 M7.85 -29.7 Q7.8 -29.7 7.8 -29.9 7.8 -30.05 8.0 -30.15 8.25 -30.2 8.55 -30.15 L8.6 -30.05 8.7 -29.9 Q8.65 -29.8 8.5 -29.75 8.35 -29.65 8.2 -29.6 L7.9 -29.7 7.85 -29.7 M7.15 -30.75 L7.15 -30.7 6.9 -30.65 6.45 -30.7 6.3 -30.75 6.25 -30.9 6.15 -31.05 6.5 -31.05 Q6.75 -31.0 7.1 -30.85 L7.15 -30.75 M13.95 -23.65 Q13.95 -23.5 13.9 -23.45 L13.8 -23.4 Q13.3 -23.3 13.0 -23.5 12.75 -23.7 12.75 -23.95 12.75 -24.05 12.9 -24.55 13.1 -25.15 13.3 -25.3 13.65 -25.1 13.8 -24.6 13.95 -24.15 13.95 -23.65 M14.25 -22.9 Q14.2 -22.85 14.2 -23.05 14.2 -23.25 14.25 -23.25 L14.5 -23.2 Q14.5 -23.05 14.3 -22.95 L14.25 -22.9 M16.8 -17.4 Q16.9 -17.3 16.9 -17.15 16.75 -16.95 16.6 -16.9 L16.3 -17.0 Q16.25 -17.05 16.25 -17.25 16.25 -17.45 16.35 -17.5 L16.6 -17.6 Q16.7 -17.55 16.8 -17.4 M15.5 -18.4 Q15.15 -17.7 14.9 -17.55 L14.55 -17.8 14.45 -17.9 Q14.45 -18.3 14.6 -18.45 14.8 -18.75 15.4 -18.65 L15.45 -18.6 Q15.5 -18.6 15.5 -18.4 M15.55 -16.35 L15.5 -16.05 15.45 -16.0 Q15.4 -15.95 15.2 -15.95 14.85 -15.95 14.7 -16.2 14.65 -16.35 14.65 -16.5 14.65 -16.65 14.75 -16.85 L14.9 -17.1 15.25 -16.75 Q15.5 -16.5 15.55 -16.35 M8.7 -11.55 L8.6 -11.5 Q8.5 -11.45 8.3 -11.45 L7.95 -11.5 7.85 -11.5 7.8 -11.55 Q7.8 -11.6 7.8 -11.8 7.8 -12.1 8.05 -12.2 L8.05 -12.25 8.25 -12.25 Q8.75 -12.25 8.8 -11.8 L8.7 -11.55 M7.95 -1.5 L7.85 -1.5 7.75 -1.75 Q7.95 -2.15 8.5 -2.55 9.1 -3.0 9.55 -2.9 9.65 -2.85 9.7 -2.85 L9.7 -2.65 Q9.7 -2.3 9.1 -1.85 8.5 -1.45 8.3 -1.45 L7.95 -1.5 M13.65 -6.55 Q13.1 -5.75 12.7 -5.65 L12.6 -5.65 Q12.55 -5.7 12.55 -5.85 12.55 -6.75 13.3 -7.45 13.65 -7.75 13.85 -7.75 14.05 -7.7 14.05 -7.3 13.9 -6.95 13.65 -6.55 M15.05 -7.05 L15.1 -6.8 15.1 -6.55 15.05 -6.55 14.95 -6.5 Q14.85 -6.45 14.75 -6.4 14.4 -6.7 14.4 -6.8 14.4 -7.25 15.05 -7.1 L15.05 -7.05 M-6.35 -30.8 L-6.3 -30.6 -6.4 -30.5 -7.1 -30.5 -7.15 -30.7 -7.25 -30.85 Q-7.0 -31.0 -6.85 -31.0 L-6.4 -31.0 -6.35 -30.8 M-5.8 -14.7 Q-5.85 -14.5 -6.1 -14.45 L-6.2 -14.5 -6.35 -14.6 Q-6.25 -14.75 -6.15 -14.8 L-5.9 -14.9 -5.8 -14.7 M-12.35 -24.35 Q-12.25 -24.25 -12.25 -24.0 -12.25 -23.65 -12.55 -23.25 L-13.2 -22.5 Q-14.2 -23.1 -14.2 -23.8 -14.2 -23.95 -13.75 -24.25 -13.3 -24.6 -12.95 -24.6 -12.5 -24.6 -12.35 -24.35 M-13.2 -21.95 L-13.35 -21.65 Q-13.5 -21.45 -13.75 -21.25 -14.1 -21.35 -14.2 -21.5 -14.2 -21.55 -14.2 -21.75 -14.2 -21.95 -13.95 -22.15 -13.65 -22.35 -13.25 -22.35 L-13.2 -21.95 M-16.5 -20.15 Q-16.8 -19.45 -17.45 -19.0 L-17.7 -19.25 Q-17.8 -19.35 -17.8 -19.45 -17.8 -19.65 -17.6 -20.05 L-17.25 -20.75 Q-17.0 -21.3 -16.65 -21.4 L-15.95 -21.4 -16.5 -20.15 M-17.9 -15.9 L-17.95 -15.55 Q-17.95 -15.4 -17.75 -15.1 -17.6 -14.85 -17.6 -14.7 -17.6 -14.5 -17.7 -14.3 -17.85 -14.1 -18.15 -14.1 -18.3 -14.1 -18.8 -15.1 -18.8 -15.3 -18.55 -15.7 -18.25 -16.15 -17.95 -16.2 -17.85 -16.1 -17.9 -15.9 M-15.3 -17.8 Q-15.25 -17.75 -15.25 -17.6 L-15.25 -17.35 -15.3 -17.35 -15.35 -17.3 -15.7 -17.25 Q-15.9 -17.25 -15.95 -17.3 L-16.05 -17.4 -16.1 -17.6 Q-16.0 -17.8 -15.9 -17.85 L-15.3 -17.8 M-14.95 -16.85 Q-14.35 -16.75 -14.35 -16.2 -14.35 -16.05 -14.5 -15.55 -14.65 -15.1 -14.65 -14.95 -14.65 -14.75 -14.5 -14.45 -14.35 -14.15 -14.35 -14.05 -14.5 -13.85 -14.8 -13.85 -14.85 -14.25 -15.2 -15.35 -15.5 -16.3 -15.5 -16.55 -15.5 -16.75 -15.3 -16.85 L-14.95 -16.85 M-15.85 -14.4 L-16.15 -14.6 Q-16.25 -14.7 -16.25 -14.8 L-16.25 -15.05 Q-16.15 -15.2 -15.85 -15.15 L-15.5 -14.8 -15.5 -14.65 -15.55 -14.55 -15.85 -14.4 M-13.15 -6.4 Q-13.05 -6.4 -12.85 -6.25 -12.9 -6.1 -13.05 -6.05 L-13.15 -6.1 Q-13.3 -6.15 -13.3 -6.2 L-13.15 -6.4 M-12.4 -6.6 L-12.35 -6.55 Q-11.55 -6.7 -10.9 -5.95 -10.6 -5.6 -10.2 -4.8 L-10.25 -4.65 -10.25 -4.6 -10.5 -4.6 Q-10.65 -4.6 -10.95 -4.9 -11.3 -5.25 -11.9 -5.4 -12.2 -5.5 -12.35 -5.85 -12.45 -6.1 -12.45 -6.35 L-12.4 -6.6 M-11.6 -4.75 L-11.5 -4.4 -11.75 -4.1 Q-11.95 -3.9 -12.05 -3.9 L-12.35 -4.15 -12.45 -4.3 Q-12.45 -4.6 -12.2 -4.75 -11.95 -4.9 -11.6 -4.75 M-4.25 -9.2 L-4.35 -9.15 Q-4.45 -9.1 -4.7 -9.05 L-4.75 -9.05 Q-4.8 -9.05 -4.8 -9.2 L-4.8 -9.4 -4.7 -9.3 -4.7 -9.35 Q-4.3 -9.3 -4.25 -9.2" fill="#59a5ff" fill-opacity="0.5019608" fill-rule="evenodd" stroke="none"/>
    <path d="M16.9 -26.9 Q17.45 -26.25 17.65 -26.15 17.65 -26.05 17.3 -26.05 16.75 -26.05 16.05 -26.55 L14.95 -27.4 15.05 -27.5 Q16.25 -27.55 16.9 -26.9 M20.4 -25.0 Q21.25 -24.1 21.45 -23.4 L19.8 -24.5 Q18.7 -25.35 18.5 -25.95 L18.8 -25.95 Q19.5 -25.95 20.4 -25.0 M21.45 -23.25 Q21.65 -23.25 21.95 -23.1 22.2 -23.0 22.35 -22.8 L22.45 -22.8 22.3 -22.85 Q22.2 -22.9 22.2 -23.1 22.2 -23.3 22.25 -23.25 L22.3 -23.2 23.45 -22.4 Q24.25 -21.8 24.4 -21.3 24.45 -20.95 24.4 -20.3 24.3 -19.65 24.35 -19.35 24.4 -19.05 25.25 -17.5 26.0 -16.15 26.0 -15.5 26.0 -15.0 25.75 -13.95 25.45 -12.95 25.45 -12.4 25.45 -12.25 25.6 -11.55 L25.75 -10.65 Q25.75 -10.2 25.65 -9.95 25.55 -9.8 25.35 -9.55 24.7 -8.95 24.2 -7.95 24.15 -7.75 23.9 -6.55 23.7 -5.6 23.25 -5.2 22.85 -4.85 21.45 -4.05 20.0 -3.25 19.45 -2.75 L18.45 -2.25 Q17.55 -1.8 17.35 -1.45 17.3 -1.1 17.15 -0.85 16.95 -0.45 16.45 -0.2 16.25 -0.3 16.15 -0.4 L16.4 -0.8 Q15.6 -0.1 14.1 0.75 12.2 1.8 11.6 1.85 9.85 1.95 6.1 2.8 2.7 3.5 1.5 3.5 L0.95 3.45 Q0.75 3.4 0.65 3.35 L0.6 3.3 0.05 3.15 -0.95 3.4 -1.8 3.6 Q-2.0 3.6 -2.15 3.75 -2.35 3.9 -2.55 3.9 -3.4 3.9 -6.0 3.2 -8.6 2.5 -8.75 2.5 -10.2 2.45 -11.05 2.0 -11.85 1.85 -13.0 1.4 -14.45 0.75 -14.65 0.35 -15.5 -0.05 -16.5 -0.85 -17.55 -1.65 -18.55 -2.75 L-19.3 -2.85 -19.95 -2.95 Q-20.9 -3.75 -22.15 -5.75 -23.35 -7.65 -24.6 -8.65 -25.25 -9.15 -25.15 -10.0 L-25.0 -10.75 Q-24.9 -11.2 -24.9 -11.45 -24.9 -11.65 -25.1 -12.8 -25.3 -13.9 -25.3 -14.25 -25.3 -14.7 -24.65 -17.1 -24.05 -19.5 -23.85 -19.75 -22.75 -21.25 -21.45 -22.7 -20.4 -23.85 -19.55 -24.65 -18.85 -25.45 -17.8 -25.7 L-17.8 -25.55 Q-17.95 -25.15 -18.55 -24.85 -19.2 -24.45 -19.4 -24.15 L-19.9 -23.35 -20.4 -22.5 Q-20.65 -22.05 -21.65 -20.85 -22.6 -19.75 -22.9 -19.15 L-22.75 -19.15 -22.6 -19.2 -22.55 -19.2 Q-22.5 -19.2 -22.5 -19.0 -22.5 -18.9 -23.25 -17.45 L-23.95 -16.0 Q-23.95 -15.65 -23.15 -14.7 -22.3 -13.75 -22.3 -13.1 -22.3 -12.45 -22.55 -11.5 -22.75 -10.6 -22.75 -10.05 -22.75 -9.75 -22.55 -9.65 -22.5 -9.6 -22.15 -9.5 -21.45 -9.35 -21.4 -8.6 -21.35 -7.65 -20.9 -7.05 -20.75 -6.8 -20.05 -5.3 -19.5 -4.2 -19.0 -3.9 -18.8 -3.8 -18.45 -3.8 L-17.85 -3.8 Q-17.1 -3.8 -16.75 -3.25 -16.65 -3.0 -16.1 -2.45 L-15.3 -1.65 Q-14.8 -1.1 -14.6 -1.05 -14.3 -0.9 -12.5 -0.45 -12.05 -0.35 -11.45 0.15 L-10.45 1.1 -10.45 1.15 -9.5 1.15 Q-8.05 1.15 -7.15 1.35 -6.65 1.5 -5.75 1.9 -4.95 2.25 -4.25 2.4 -3.15 2.6 -1.4 2.6 L-0.15 2.85 0.35 2.75 Q0.55 2.75 1.0 2.9 L1.1 2.95 2.3 2.85 Q3.85 2.65 4.55 2.0 L6.25 2.05 Q7.95 1.85 9.0 1.55 9.85 1.3 10.55 1.0 10.7 0.9 11.85 0.55 12.85 0.25 13.4 -0.05 L15.3 -1.25 Q16.65 -2.2 16.85 -2.8 17.85 -3.35 18.6 -3.8 L19.1 -4.6 Q19.4 -5.1 19.65 -5.35 20.25 -6.0 20.9 -5.3 L21.05 -5.4 Q23.4 -7.15 23.4 -8.45 23.4 -8.6 23.1 -8.9 22.8 -9.15 22.8 -9.3 22.8 -9.85 23.05 -10.1 23.15 -10.2 23.6 -10.4 24.0 -10.55 24.15 -10.75 24.4 -11.05 24.4 -11.65 24.4 -11.75 23.95 -12.55 23.5 -13.3 23.5 -13.75 23.5 -14.3 24.15 -14.55 24.45 -14.65 24.6 -14.75 24.8 -14.95 24.8 -15.25 24.8 -15.55 24.15 -16.9 23.5 -18.25 23.5 -18.4 23.45 -18.7 23.1 -19.2 L22.65 -19.9 Q22.35 -20.35 22.4 -20.8 22.4 -21.05 22.5 -21.35 L21.95 -22.05 Q21.35 -22.8 21.2 -23.25 L21.2 -23.3 21.45 -23.25 M14.05 -23.8 Q14.05 -23.7 13.8 -23.65 L13.7 -23.7 13.7 -23.95 Q13.7 -24.15 13.75 -24.25 13.8 -24.3 13.95 -24.35 14.05 -24.1 14.05 -23.8 M15.55 -17.95 L15.5 -17.8 Q15.3 -17.7 15.0 -17.7 L14.95 -17.8 Q14.9 -17.9 14.9 -18.05 14.9 -18.25 15.05 -18.3 L15.2 -18.3 15.55 -17.95 M15.55 -16.4 Q15.5 -16.3 15.4 -16.3 15.35 -16.25 15.3 -16.25 15.2 -16.2 15.2 -16.4 15.2 -16.5 15.35 -16.65 15.5 -16.75 15.6 -16.6 15.6 -16.5 15.55 -16.4 M9.45 -2.1 L9.3 -1.95 Q9.2 -1.85 9.05 -1.85 L8.85 -1.9 Q8.75 -1.95 8.75 -2.15 8.75 -2.45 8.8 -2.25 9.0 -2.4 9.3 -2.4 9.4 -2.3 9.45 -2.1 M14.2 -6.95 L13.8 -6.55 Q13.55 -6.25 13.45 -6.2 13.4 -6.2 13.35 -6.25 L13.2 -6.35 13.65 -6.9 Q13.9 -7.2 14.05 -7.25 L14.2 -6.95 M5.5 2.3 L4.7 2.3 4.1 2.55 5.3 2.3 5.5 2.3 M-15.85 -26.9 L-15.9 -26.95 Q-15.95 -26.95 -15.95 -27.15 -15.95 -27.45 -15.35 -27.5 -14.25 -27.55 -13.85 -27.65 -14.55 -27.45 -15.85 -26.9 M-13.45 -23.8 Q-13.55 -23.35 -13.45 -23.15 -13.5 -23.05 -13.5 -23.0 -13.6 -22.9 -13.8 -22.9 L-14.1 -22.95 -14.05 -22.95 Q-14.15 -23.05 -14.15 -23.1 L-14.2 -23.4 Q-14.2 -23.7 -14.1 -23.85 -14.05 -24.05 -13.75 -24.25 -13.4 -24.05 -13.45 -23.8 M-16.95 -20.5 L-17.6 -19.75 -17.75 -19.95 Q-17.8 -20.05 -17.8 -20.25 -17.8 -20.55 -17.45 -20.85 -17.0 -21.25 -16.5 -21.2 -16.55 -20.95 -16.95 -20.5 M-18.8 -14.3 Q-18.85 -14.35 -18.9 -14.3 L-18.95 -14.5 Q-18.95 -14.75 -18.85 -14.9 -18.8 -15.0 -18.7 -15.05 -18.6 -14.95 -18.55 -14.75 L-18.45 -14.4 -18.55 -14.35 Q-18.65 -14.3 -18.8 -14.3 M-15.15 -16.4 Q-15.1 -16.55 -15.0 -16.6 L-14.9 -16.4 -14.85 -16.05 Q-14.85 -15.9 -14.9 -15.75 L-14.95 -15.45 -15.05 -15.4 Q-15.15 -15.55 -15.15 -15.65 -15.2 -15.8 -15.2 -16.05 -15.2 -16.25 -15.15 -16.4 M-14.7 -14.05 L-14.95 -14.25 Q-15.1 -14.4 -15.15 -14.5 L-15.1 -14.6 Q-14.95 -14.6 -14.65 -14.3 -14.65 -14.2 -14.7 -14.05 M-12.3 -6.05 L-12.2 -6.15 Q-11.95 -6.1 -11.7 -5.95 -11.45 -5.8 -11.4 -5.65 L-11.45 -5.45 Q-11.55 -5.35 -11.75 -5.35 -12.1 -5.35 -12.25 -5.55 -12.35 -5.65 -12.35 -5.75 -12.35 -6.0 -12.3 -6.05" fill="#8cc1ff" fill-opacity="0.7529412" fill-rule="evenodd" stroke="none"/>
    <path d="M16.9 -26.5 Q16.8 -26.5 16.6 -26.6 16.35 -26.65 16.15 -26.8 L16.15 -26.95 16.6 -26.8 16.9 -26.6 16.9 -26.5 M19.4 -25.15 L19.45 -25.45 Q20.25 -25.45 20.4 -24.7 L20.4 -24.6 20.15 -24.55 19.7 -24.85 Q19.45 -25.05 19.4 -25.15 M14.15 -24.05 Q14.2 -24.05 14.2 -23.85 L14.15 -23.7 Q14.05 -23.65 13.95 -23.65 L13.95 -23.6 Q13.9 -23.6 13.9 -23.8 13.9 -24.15 13.95 -24.1 L14.05 -24.1 14.15 -24.05 M15.6 -18.1 Q15.6 -18.0 15.45 -17.85 L15.25 -17.85 15.15 -17.9 15.15 -18.1 Q15.15 -18.25 15.3 -18.3 L15.5 -18.3 15.6 -18.1 M9.5 -2.2 Q9.4 -2.15 9.25 -2.1 L9.2 -2.05 9.2 -2.25 Q9.2 -2.55 9.2 -2.45 L9.35 -2.45 Q9.45 -2.45 9.55 -2.35 L9.5 -2.2 M13.95 -7.05 L14.05 -6.85 Q14.15 -6.7 14.25 -6.6 14.2 -6.55 14.05 -6.5 L13.8 -6.45 13.7 -6.55 13.7 -7.0 13.75 -7.05 13.95 -7.05 M16.3 -0.35 Q16.25 -0.45 16.25 -0.65 L16.25 -0.7 Q14.85 0.45 13.95 0.9 12.05 1.75 8.8 2.0 L7.3 2.7 Q6.35 3.1 5.95 3.2 L5.05 3.25 Q4.45 3.2 4.15 3.3 L2.4 3.85 Q1.8 3.85 0.8 3.65 L0.5 3.55 0.45 3.6 Q0.35 3.65 -0.05 3.6 L-0.75 3.6 Q-1.45 3.6 -1.9 3.85 -2.4 4.1 -3.0 4.1 -3.65 4.1 -5.3 3.65 L-7.05 3.15 Q-8.4 2.7 -8.65 2.7 L-9.8 2.75 Q-10.15 2.75 -12.55 1.4 -14.9 0.15 -15.95 -0.6 L-16.9 -1.65 Q-17.55 -2.4 -18.2 -2.55 L-19.95 -2.95 Q-20.75 -3.3 -21.2 -4.1 L-22.15 -6.05 Q-22.8 -7.25 -23.95 -8.15 -25.15 -9.15 -25.15 -10.2 -25.15 -10.5 -25.05 -11.15 -24.95 -11.75 -24.95 -12.1 -24.95 -12.45 -25.15 -13.6 L-25.35 -14.75 Q-25.35 -15.3 -24.9 -16.25 -24.55 -17.05 -24.2 -17.45 L-24.2 -17.3 -24.55 -16.05 Q-24.85 -15.0 -24.85 -14.8 -24.85 -14.55 -24.45 -13.6 -24.0 -12.7 -23.95 -12.6 -23.85 -12.2 -23.9 -11.45 L-24.0 -10.5 Q-24.0 -10.15 -23.0 -8.45 -22.0 -6.85 -21.5 -6.25 -21.35 -6.05 -20.8 -5.2 -20.3 -4.45 -20.05 -4.1 -19.85 -3.9 -19.15 -3.7 -18.5 -3.5 -18.3 -3.2 -18.2 -3.0 -17.8 -2.8 -17.3 -2.6 -17.1 -2.45 -16.9 -2.3 -16.2 -1.4 -15.6 -0.65 -15.0 -0.3 -14.3 0.1 -13.4 0.4 -12.4 0.7 -11.9 0.85 -10.7 1.25 -8.1 1.95 -5.55 2.55 -3.25 3.35 -2.9 3.35 -2.25 3.05 -1.6 2.75 -0.7 2.75 L-0.4 2.8 -0.15 2.85 Q0.05 2.75 0.7 2.75 L1.5 2.85 2.35 3.0 Q2.5 3.0 3.5 2.6 4.45 2.2 4.7 2.25 5.2 2.25 7.25 2.0 7.95 1.8 10.55 1.35 12.9 0.9 13.45 0.45 14.1 -0.05 15.2 -0.7 16.55 -1.55 17.05 -1.65 17.45 -2.35 18.5 -3.05 19.15 -3.45 19.55 -3.55 19.75 -3.9 20.15 -4.15 20.5 -4.4 21.4 -4.7 22.3 -5.0 22.65 -5.25 23.25 -5.65 23.45 -6.25 L23.8 -7.05 Q24.0 -7.55 24.05 -7.95 24.05 -8.5 24.0 -9.6 24.0 -10.05 24.65 -10.3 25.3 -10.6 25.3 -10.9 25.3 -11.2 24.9 -11.95 24.55 -12.75 24.55 -13.1 24.55 -13.35 25.05 -14.55 L25.55 -15.7 Q25.55 -15.8 25.2 -16.3 24.8 -16.8 24.75 -17.1 L24.75 -17.85 24.85 -17.85 25.7 -17.05 Q26.25 -16.5 26.25 -16.2 26.25 -16.0 25.8 -14.8 L25.3 -13.6 Q25.3 -13.5 25.5 -13.05 25.7 -12.7 25.6 -12.25 25.5 -11.3 25.5 -10.95 25.5 -10.75 25.65 -10.5 25.75 -10.25 25.75 -10.1 L24.75 -8.5 Q23.7 -6.95 23.6 -6.4 L23.5 -5.4 Q23.45 -4.85 23.05 -4.45 22.9 -4.3 22.05 -4.0 L21.15 -3.75 Q21.0 -3.7 20.5 -3.3 20.05 -2.9 19.85 -2.9 L19.7 -2.9 Q19.6 -2.65 19.4 -2.5 19.15 -2.25 18.6 -2.2 L17.85 -2.1 Q17.5 -1.95 17.5 -1.45 17.5 -0.6 16.6 -0.1 16.4 -0.2 16.3 -0.35 M24.45 -19.65 L24.35 -19.6 24.2 -19.5 Q23.75 -19.9 23.4 -20.85 23.2 -21.55 23.2 -21.75 23.2 -22.2 23.4 -22.25 23.55 -22.3 23.8 -22.0 24.45 -21.35 24.45 -20.55 L24.45 -19.65 M-23.85 -20.15 Q-23.25 -20.95 -22.6 -21.25 -21.85 -21.55 -21.4 -22.25 -20.95 -23.0 -20.8 -23.05 -21.2 -21.45 -23.8 -18.4 -24.35 -18.8 -24.35 -19.1 -24.35 -19.45 -23.85 -20.15 M-13.85 -23.0 L-14.05 -22.95 -14.25 -23.0 Q-14.3 -23.1 -14.3 -23.3 -14.3 -23.45 -13.8 -23.7 -13.75 -23.65 -13.7 -23.5 -13.65 -23.4 -13.65 -23.35 L-13.7 -23.05 -13.85 -23.0 M-17.35 -20.35 Q-17.4 -20.1 -17.75 -19.95 -17.95 -20.0 -18.0 -20.05 -18.05 -20.15 -18.05 -20.35 -18.05 -20.65 -17.9 -20.75 -17.7 -20.9 -17.25 -20.65 L-17.35 -20.35 M-18.8 -14.55 L-18.85 -14.5 Q-19.0 -14.45 -19.05 -14.45 -19.15 -14.55 -19.15 -14.85 L-18.8 -14.85 Q-18.8 -14.75 -18.8 -14.55 M-11.85 -5.35 L-12.0 -5.35 Q-12.1 -5.45 -12.1 -5.7 L-11.95 -5.7 -11.75 -5.65 Q-11.75 -5.45 -11.85 -5.35" fill="#bfdcff" fill-opacity="0.7529412" fill-rule="evenodd" stroke="none"/>
    <path d="M16.65 -26.85 Q16.5 -26.85 16.45 -26.9 16.5 -27.05 16.85 -26.9 16.8 -26.85 16.65 -26.85 M19.7 -25.2 Q20.25 -25.3 20.5 -24.7 L20.45 -24.6 Q20.15 -24.7 19.95 -24.9 19.75 -25.05 19.7 -25.2 M17.0 -0.2 Q16.95 -0.2 16.8 -0.1 16.65 0.0 16.45 0.0 16.25 0.0 16.15 -0.15 16.05 -0.3 15.85 -0.3 15.6 -0.3 14.7 0.55 14.0 1.15 13.6 1.25 13.15 1.45 12.35 1.6 L8.95 2.15 Q7.35 2.4 6.15 2.7 L4.9 2.75 Q4.65 2.75 3.8 3.3 3.0 3.85 2.6 3.85 L1.6 3.7 Q0.85 3.6 0.75 3.55 L0.7 3.5 0.4 3.45 Q-0.7 3.45 -1.25 3.75 -1.8 4.05 -2.8 4.05 -3.85 4.05 -4.2 3.95 L-4.4 3.95 Q-4.9 3.95 -5.35 3.7 -5.65 3.55 -5.85 3.35 -7.2 3.25 -7.95 3.05 -8.5 2.9 -9.1 2.65 -9.2 2.7 -9.3 2.7 -9.8 2.45 -12.5 1.3 -14.6 0.4 -15.25 -0.1 -15.7 -0.4 -16.1 -0.95 L-16.45 -1.35 Q-15.2 -0.25 -14.45 0.05 -12.65 0.7 -11.6 1.15 -10.2 1.7 -9.45 2.25 -7.95 2.4 -6.7 2.7 -5.5 3.0 -4.45 3.55 -4.35 3.55 -4.25 3.6 -4.1 3.7 -3.95 3.7 -2.8 3.7 -1.65 3.35 -0.55 3.0 -0.15 3.0 L1.15 3.15 2.5 3.3 3.25 3.05 Q3.95 2.7 4.15 2.6 4.5 2.55 4.95 2.6 L5.6 2.65 7.35 2.15 Q9.05 1.65 9.2 1.65 11.85 1.45 12.9 1.0 13.15 0.9 13.45 0.7 13.7 0.55 13.9 0.5 L14.1 0.5 14.15 0.55 14.55 -0.05 Q15.35 -0.75 16.5 -0.45 16.65 -0.5 16.85 -1.05 17.1 -1.65 17.35 -1.85 L18.2 -2.15 Q18.8 -2.4 18.95 -2.6 19.5 -3.2 21.05 -3.95 22.4 -4.6 22.85 -4.65 22.5 -4.2 21.8 -3.8 20.95 -3.3 20.15 -3.3 19.8 -3.3 19.5 -2.95 19.3 -2.65 19.3 -2.55 19.3 -2.35 18.7 -2.15 17.9 -1.85 17.6 -1.6 17.3 -1.35 17.15 -1.0 16.95 -0.6 17.0 -0.2 M24.25 -20.25 Q24.2 -20.5 24.15 -21.0 L24.05 -21.8 24.15 -22.0 Q24.8 -21.95 24.8 -20.8 24.8 -20.55 24.25 -20.25 M26.65 -15.95 L26.65 -15.7 Q26.55 -15.5 26.25 -15.45 25.85 -15.55 25.85 -15.95 25.9 -16.5 25.85 -16.6 L25.9 -16.85 Q26.3 -16.9 26.5 -16.55 26.65 -16.3 26.65 -15.95 M25.95 -15.45 Q26.0 -15.45 26.1 -15.45 L26.15 -15.3 26.15 -15.2 25.95 -15.05 25.9 -14.95 Q25.85 -14.95 25.85 -15.15 25.85 -15.35 25.95 -15.45 M25.85 -14.7 Q25.85 -14.45 25.55 -14.15 L25.45 -14.15 Q25.55 -14.35 25.65 -14.5 L25.85 -14.7 M25.35 -13.6 Q25.35 -13.45 25.5 -12.95 25.65 -12.45 25.65 -12.3 L25.6 -11.7 25.6 -11.1 25.45 -11.05 Q25.45 -11.35 25.25 -12.05 25.0 -12.8 25.0 -13.0 25.0 -13.35 25.1 -13.55 25.15 -13.7 25.45 -14.0 L25.4 -13.9 Q25.35 -13.8 25.35 -13.6 M25.55 -11.0 Q25.6 -10.8 25.65 -10.35 L25.7 -9.75 Q25.7 -9.55 25.0 -8.9 L24.25 -8.2 24.2 -8.15 Q24.15 -8.15 24.15 -8.35 24.15 -8.8 24.3 -9.05 24.4 -9.2 24.7 -9.45 25.35 -9.95 25.45 -11.0 L25.55 -11.0 M-23.5 -19.55 L-23.8 -19.5 -23.85 -19.5 Q-23.9 -19.5 -23.9 -19.7 -23.9 -19.95 -23.3 -20.5 -22.7 -21.0 -22.35 -21.1 -22.55 -20.8 -22.9 -20.3 L-23.4 -19.6 -23.5 -19.55 M-24.95 -14.0 L-24.65 -11.95 Q-24.35 -10.2 -24.35 -9.75 -24.35 -9.4 -24.05 -9.05 -24.0 -9.15 -23.95 -9.15 -23.15 -8.5 -22.65 -7.5 L-21.85 -5.75 Q-21.35 -4.7 -20.8 -4.1 -20.05 -3.25 -18.85 -2.8 -18.3 -2.6 -17.75 -2.3 -18.65 -2.65 -20.1 -2.85 -21.35 -4.15 -22.35 -5.9 L-23.75 -8.4 Q-23.75 -8.2 -23.8 -8.25 L-23.8 -8.3 Q-24.05 -8.35 -24.55 -8.65 -25.05 -9.0 -25.05 -9.05 L-24.85 -9.9 -24.7 -10.65 Q-24.7 -10.8 -24.8 -12.0 L-25.05 -14.0 -24.95 -14.0 M-14.15 -23.4 L-14.3 -23.15 -14.35 -23.15 -14.55 -23.2 -14.6 -23.3 -14.4 -23.45 Q-14.25 -23.55 -14.15 -23.6 -14.1 -23.55 -14.15 -23.4 M-17.95 -20.45 Q-18.05 -20.25 -18.15 -20.2 -18.3 -20.25 -18.3 -20.4 L-18.25 -20.65 -18.05 -20.65 -17.95 -20.45" fill="#ffffff" fill-rule="evenodd" stroke="none"/>
  </g>
</svg>
