<?xml version="1.0" encoding="UTF-8" standalone="no"?>
<svg xmlns:ffdec="https://www.free-decompiler.com/flash" xmlns:xlink="http://www.w3.org/1999/xlink" ffdec:objectType="shape" height="33.15px" width="54.8px" xmlns="http://www.w3.org/2000/svg">
  <g transform="matrix(1.0, 0.0, 0.0, 1.0, 27.35, 29.5)">
    <path d="M8.35 -28.05 L8.25 -28.1 Q8.2 -28.15 8.2 -28.25 L8.3 -28.25 8.55 -28.2 Q8.5 -28.1 8.35 -28.05 M13.85 -26.6 Q13.8 -26.5 13.55 -26.5 13.35 -26.5 12.3 -27.0 11.8 -27.2 11.25 -27.45 12.05 -27.9 13.0 -27.4 L13.6 -27.0 13.95 -26.75 Q13.9 -26.65 13.85 -26.6 M14.85 -25.8 L14.9 -25.85 Q16.55 -25.35 18.6 -24.1 20.6 -22.85 22.4 -21.35 24.3 -19.7 25.4 -18.2 26.6 -16.55 26.6 -15.35 26.6 -14.9 26.4 -14.1 26.2 -13.3 26.2 -12.9 26.2 -12.75 26.35 -11.6 L26.5 -10.3 Q26.5 -8.75 23.9 -5.5 22.85 -4.15 21.85 -3.15 20.8 -2.15 20.3 -1.95 19.35 -1.6 17.45 -0.65 14.95 0.65 14.05 1.1 9.55 3.15 6.1 3.15 L5.7 3.15 5.65 3.1 5.3 3.15 Q1.35 3.45 1.35 3.15 L1.4 3.05 Q-0.35 3.1 -1.1 3.25 -1.9 3.45 -2.9 3.45 -3.75 3.45 -6.55 2.85 -9.55 2.25 -10.5 1.8 -11.25 1.4 -13.65 1.05 -15.9 0.7 -16.35 0.45 -17.95 -0.45 -19.65 -1.6 L-23.0 -3.9 Q-23.6 -4.25 -24.0 -4.9 -24.45 -5.65 -25.3 -6.35 -26.15 -7.0 -26.1 -8.85 -26.1 -9.2 -26.55 -10.05 -27.0 -10.9 -27.0 -11.35 -26.95 -11.85 -27.0 -12.8 L-27.05 -13.85 Q-27.05 -14.8 -25.95 -17.25 -24.9 -19.6 -24.4 -19.85 -23.3 -20.4 -22.3 -21.25 -21.75 -21.75 -20.7 -22.8 -19.7 -23.7 -18.85 -24.2 -17.7 -24.85 -16.25 -25.2 -16.7 -24.85 -17.15 -24.6 -17.6 -24.35 -18.15 -24.15 L-18.65 -23.3 Q-19.1 -22.65 -19.6 -22.25 -20.7 -21.4 -21.0 -21.15 -21.35 -20.8 -21.35 -20.15 -21.35 -19.55 -21.6 -19.25 -21.75 -19.1 -22.25 -18.85 -23.45 -18.25 -24.05 -17.0 -24.0 -16.95 -23.85 -16.95 L-23.3 -16.95 -23.3 -16.75 Q-23.3 -16.35 -23.9 -15.45 L-24.5 -14.55 Q-24.5 -14.35 -24.3 -14.05 -24.05 -13.8 -24.05 -13.5 -24.05 -13.25 -24.65 -12.3 -25.2 -11.4 -25.2 -11.1 L-25.2 -10.45 -24.5 -10.65 -23.9 -10.75 -23.8 -10.7 -23.8 -10.45 Q-23.8 -10.3 -23.95 -9.95 -24.05 -9.6 -24.05 -9.45 L-23.55 -8.7 Q-23.0 -7.85 -22.7 -7.15 -22.55 -6.85 -22.55 -6.5 L-22.55 -6.0 Q-22.45 -5.4 -21.7 -5.0 L-20.65 -4.95 Q-19.8 -4.35 -19.5 -3.8 -19.35 -3.6 -19.25 -3.1 -19.2 -2.75 -18.95 -2.7 -18.55 -2.55 -17.45 -2.55 L-17.0 -2.5 -16.35 -2.4 Q-16.0 -1.9 -15.4 -1.45 -14.9 -1.1 -14.3 -0.9 -12.75 -0.4 -12.0 -0.2 -11.15 0.0 -10.55 0.0 -10.25 0.0 -9.95 0.2 L-9.45 0.65 Q-8.75 1.3 -7.8 1.2 -6.4 1.05 -5.5 1.4 -5.2 1.5 -4.7 1.75 L-3.85 2.2 -3.1 2.2 -2.6 2.45 Q-2.35 2.6 -2.2 2.9 L-2.25 2.9 -2.3 2.95 Q-1.4 2.9 -0.95 2.7 -0.4 2.45 0.85 2.55 1.4 2.55 3.35 2.55 L5.45 2.45 Q5.65 2.15 6.4 2.0 8.15 1.7 8.4 1.6 L9.35 1.25 Q9.9 1.05 10.9 1.05 11.7 1.1 12.3 0.8 12.65 0.65 13.3 0.2 13.95 -0.3 14.4 -0.55 15.15 -0.9 16.1 -1.05 L16.7 -2.25 Q17.4 -3.35 18.0 -3.35 L18.15 -3.3 Q18.3 -3.25 18.5 -3.05 18.8 -3.2 19.65 -4.6 20.4 -5.85 20.6 -5.85 21.15 -5.85 21.3 -5.65 L21.6 -5.2 Q23.2 -6.7 23.2 -8.1 23.2 -8.9 24.1 -9.8 L24.75 -10.35 Q25.05 -10.65 25.05 -10.75 25.05 -11.45 24.55 -11.85 23.5 -12.65 23.05 -13.2 24.1 -13.4 24.3 -13.7 24.35 -13.8 24.3 -13.95 L24.3 -14.25 Q24.3 -14.3 24.5 -14.6 24.8 -14.95 25.1 -15.05 L24.8 -15.65 Q24.5 -16.1 24.5 -16.25 24.5 -16.4 24.65 -16.5 24.8 -16.6 24.8 -16.75 24.8 -17.3 23.55 -18.2 22.85 -18.7 22.7 -18.85 22.3 -19.2 22.3 -19.45 22.3 -19.7 22.5 -19.85 22.75 -20.0 23.3 -19.85 L22.45 -20.75 22.0 -21.15 Q19.15 -23.45 14.8 -25.8 L14.85 -25.8 M20.3 -20.95 Q20.2 -20.85 20.0 -20.85 19.65 -20.85 19.55 -21.15 19.45 -21.35 19.45 -21.5 19.45 -21.7 19.5 -21.7 L19.55 -21.65 Q19.9 -21.65 20.15 -21.4 L20.35 -21.15 20.3 -20.95 M14.05 -22.8 L13.75 -23.05 Q13.65 -23.15 13.65 -23.2 13.65 -23.5 13.7 -23.5 14.15 -23.5 14.3 -23.0 14.2 -22.85 14.05 -22.8 M15.5 -17.4 L15.6 -17.2 15.6 -17.15 Q15.45 -17.2 15.35 -17.2 15.2 -17.25 15.15 -17.3 L15.1 -17.45 Q15.2 -17.6 15.4 -17.6 L15.5 -17.4 M15.3 -15.95 Q15.4 -16.0 15.6 -16.0 15.8 -15.95 15.95 -15.85 15.8 -15.8 15.6 -15.7 15.3 -15.75 15.3 -15.95 M21.45 -15.1 Q22.35 -15.1 22.35 -14.4 22.35 -14.1 22.25 -13.95 22.05 -13.65 21.55 -13.65 21.15 -13.65 20.85 -14.1 20.6 -14.4 20.6 -14.55 20.6 -14.75 20.85 -14.95 21.1 -15.1 21.45 -15.1 M22.9 -14.4 L22.95 -14.3 Q22.85 -14.15 22.6 -14.1 22.55 -14.2 22.55 -14.4 L22.9 -14.4 M8.7 -11.05 L8.65 -11.15 Q8.55 -11.2 8.55 -11.35 L8.75 -11.35 9.05 -11.25 Q9.05 -11.1 8.7 -11.05 M8.6 -1.7 Q8.6 -1.8 8.9 -2.05 9.2 -2.25 9.5 -2.25 L9.7 -2.25 Q9.8 -2.2 9.8 -2.05 9.8 -1.8 9.4 -1.6 L9.0 -1.4 8.7 -1.4 8.7 -1.45 8.65 -1.5 Q8.6 -1.5 8.6 -1.7 M23.15 -10.4 L23.15 -10.35 23.2 -10.15 23.15 -10.05 Q23.1 -9.95 22.95 -9.95 22.8 -9.95 22.75 -10.0 22.7 -10.0 22.7 -10.2 L22.85 -10.1 22.95 -10.0 23.15 -10.4 Q22.95 -10.55 22.8 -10.5 L23.05 -10.55 23.15 -10.4 M22.55 -10.45 L22.55 -9.9 Q22.5 -9.3 21.85 -9.3 21.5 -9.3 21.3 -9.9 21.15 -10.3 21.15 -10.5 21.15 -10.8 21.2 -11.05 22.1 -11.05 22.7 -10.85 22.6 -10.75 22.55 -10.45 M15.25 -6.5 Q15.1 -6.5 15.05 -6.55 15.1 -6.7 15.45 -6.55 15.4 -6.5 15.25 -6.5 M14.1 -6.45 Q14.05 -6.35 13.8 -6.3 13.7 -6.45 13.7 -6.6 13.75 -6.65 13.85 -6.65 L14.05 -6.65 14.1 -6.45 M14.4 0.2 L14.4 0.2 M-13.8 -26.85 Q-13.75 -26.9 -13.75 -26.7 -13.75 -26.4 -14.05 -26.2 -14.3 -26.0 -14.55 -26.0 -14.95 -26.0 -15.05 -26.2 L-15.05 -26.4 Q-15.05 -26.65 -14.9 -26.75 -14.7 -26.9 -14.3 -26.9 L-13.95 -26.85 -13.8 -26.85 M-13.25 -27.05 Q-13.05 -27.3 -12.7 -27.4 L-12.45 -27.5 -12.7 -27.2 Q-12.75 -27.15 -13.05 -27.05 L-13.25 -27.05 M-11.7 -27.7 L-11.5 -27.75 -11.2 -27.85 -11.15 -27.85 -11.05 -27.9 Q-10.1 -28.2 -9.9 -28.2 L-9.85 -28.15 -10.8 -27.85 -10.85 -27.8 -11.15 -27.7 Q-11.7 -27.5 -11.75 -27.35 L-11.9 -27.3 Q-12.0 -27.3 -12.0 -27.5 -12.0 -27.55 -11.7 -27.7 M-5.9 -29.4 Q-5.95 -29.25 -6.1 -29.2 L-6.4 -29.35 -6.4 -29.5 -6.25 -29.5 Q-6.1 -29.5 -5.9 -29.4 M-13.7 -23.5 L-13.55 -23.25 Q-13.5 -23.15 -13.5 -22.95 -13.5 -22.85 -13.6 -22.5 -13.75 -22.1 -13.9 -22.0 -14.45 -22.35 -14.45 -22.6 -14.45 -22.95 -14.35 -23.1 -14.2 -23.3 -13.7 -23.5 M-13.95 -21.05 Q-13.8 -20.9 -13.8 -20.75 L-13.85 -20.7 -14.05 -20.6 Q-14.25 -20.7 -14.25 -20.95 -14.15 -21.05 -13.95 -21.05 M-17.25 -20.0 L-17.4 -19.7 Q-17.55 -19.45 -17.4 -19.15 L-17.5 -18.95 -17.55 -18.9 -17.75 -18.8 -18.15 -18.9 -18.2 -19.15 Q-18.2 -19.35 -18.0 -19.65 -17.8 -20.1 -17.35 -20.2 L-17.3 -20.2 Q-17.25 -20.2 -17.25 -20.0 M-22.75 -12.15 L-22.5 -12.1 Q-22.5 -11.9 -22.6 -11.8 L-22.8 -11.8 Q-22.85 -11.9 -22.85 -12.15 L-22.75 -12.15 M-22.35 -12.8 Q-21.75 -13.4 -20.9 -13.2 -20.05 -13.0 -20.05 -12.5 -20.05 -12.45 -20.65 -11.7 -21.25 -10.9 -21.55 -10.8 -21.75 -10.85 -21.8 -10.9 -21.9 -10.95 -21.9 -11.15 -21.9 -11.35 -21.75 -11.5 L-21.6 -11.7 Q-21.9 -11.8 -22.0 -12.3 -22.1 -12.75 -22.35 -12.8 M-18.45 -14.75 Q-18.4 -14.65 -18.4 -14.45 L-18.4 -14.3 -18.45 -14.2 -18.45 -14.15 Q-18.5 -14.1 -18.7 -14.1 -19.05 -14.1 -19.15 -14.25 L-19.2 -14.5 -19.15 -14.85 -18.9 -14.9 -18.5 -14.85 -18.45 -14.75 M-15.75 -16.65 L-15.8 -16.45 -15.85 -16.4 -16.0 -16.35 -16.25 -16.4 Q-16.35 -16.4 -16.35 -16.6 -16.35 -16.7 -16.25 -16.8 L-15.95 -17.0 -15.8 -16.8 -15.75 -16.65 M-15.2 -15.15 Q-15.25 -15.05 -15.3 -15.0 -15.45 -15.15 -15.6 -15.3 -15.75 -15.5 -15.75 -15.6 L-15.75 -15.85 -15.55 -15.85 Q-15.25 -15.55 -15.2 -15.15 M-14.9 -13.85 Q-14.9 -13.7 -15.05 -13.6 -15.3 -13.65 -15.3 -13.85 -15.25 -13.9 -15.1 -13.9 -14.95 -13.9 -14.9 -13.85 M-16.0 -13.9 Q-16.05 -13.9 -16.15 -13.85 L-16.35 -13.9 Q-16.4 -13.9 -16.4 -14.05 -16.4 -14.35 -16.35 -14.25 L-16.0 -14.25 -15.9 -14.15 -16.0 -13.95 -16.0 -13.9 M-21.5 -9.5 Q-20.25 -9.45 -19.3 -8.25 -18.4 -7.1 -18.8 -6.3 L-18.85 -6.1 -19.2 -6.0 -19.6 -6.1 Q-19.65 -6.3 -19.55 -6.75 L-19.5 -7.35 Q-19.5 -7.45 -20.45 -8.3 -21.5 -9.15 -21.55 -9.25 L-21.5 -9.5 M-20.45 -6.95 Q-20.5 -6.9 -20.7 -6.9 -21.05 -6.9 -21.2 -7.05 -21.35 -7.15 -21.35 -7.3 -21.35 -7.7 -20.95 -7.65 -20.5 -7.6 -20.45 -7.05 L-20.45 -6.95 M-12.35 -5.85 L-11.7 -5.75 Q-11.1 -5.6 -11.0 -5.1 L-11.05 -5.05 Q-11.1 -4.95 -11.35 -4.95 -11.7 -4.95 -11.9 -5.25 -12.05 -5.4 -12.35 -5.85 M-12.2 -3.4 L-12.6 -3.55 -12.65 -3.65 -12.7 -3.85 Q-12.7 -4.15 -12.65 -4.2 -12.3 -4.2 -12.1 -4.0 -11.9 -3.85 -11.85 -3.65 -11.95 -3.45 -12.2 -3.4 M-15.85 -4.1 L-15.95 -3.9 -16.1 -3.9 Q-16.85 -3.8 -16.85 -4.2 L-16.75 -4.8 -16.15 -4.7 Q-15.8 -4.6 -15.8 -4.4 -15.8 -4.25 -15.85 -4.1" fill="#59a5ff" fill-opacity="0.5019608" fill-rule="evenodd" stroke="none"/>
    <path d="M22.35 -14.8 Q22.35 -14.7 22.35 -14.5 L22.35 -14.05 Q22.25 -13.95 22.0 -13.95 L21.8 -14.2 Q21.75 -14.35 21.75 -14.55 21.75 -14.6 21.85 -14.75 21.95 -14.9 22.1 -15.0 22.3 -14.9 22.35 -14.8 M22.45 -10.5 L22.5 -10.2 22.45 -9.8 22.25 -9.75 Q22.1 -9.85 22.1 -9.95 22.05 -10.0 22.05 -10.2 22.05 -10.65 22.35 -10.7 L22.45 -10.5 M16.55 -0.25 Q17.2 -0.65 17.7 -1.0 L17.3 -0.95 Q17.1 -0.95 16.65 -0.4 L16.55 -0.25 M23.0 -5.0 Q23.9 -6.1 24.05 -6.65 24.55 -8.25 25.3 -8.9 25.65 -9.2 25.7 -9.3 25.85 -9.6 25.85 -10.15 25.85 -10.7 25.45 -11.4 25.05 -12.15 25.05 -12.4 25.05 -12.6 25.45 -12.75 25.95 -12.95 26.05 -13.15 26.05 -13.3 26.1 -13.55 L26.2 -13.95 Q26.2 -14.25 25.8 -14.6 25.35 -14.95 25.35 -15.1 25.35 -15.3 25.7 -15.85 26.0 -16.4 26.0 -16.65 26.0 -16.8 25.05 -17.95 24.05 -19.15 23.95 -19.4 L24.15 -19.35 24.2 -19.4 24.25 -19.35 Q24.45 -19.3 24.7 -19.15 24.7 -19.1 24.65 -19.1 27.0 -17.55 27.0 -16.2 27.0 -15.55 26.85 -15.0 26.65 -14.4 26.6 -13.5 L26.55 -12.2 Q26.55 -11.45 26.65 -10.9 26.85 -9.9 25.9 -8.3 24.7 -6.5 24.25 -5.6 23.45 -3.95 21.15 -2.45 20.45 -2.0 19.4 -1.4 18.4 -0.85 18.2 -0.75 16.95 0.1 13.85 1.45 10.6 2.85 9.8 2.85 L9.5 2.85 9.45 2.8 9.4 2.8 9.35 2.75 9.05 2.85 Q8.1 3.1 7.8 3.1 7.6 3.1 7.1 2.95 6.6 2.8 6.45 2.8 L3.25 2.9 Q2.1 2.9 0.4 3.2 L-1.2 3.45 -1.45 3.45 -1.6 3.35 -1.6 3.4 Q-1.65 3.4 -1.65 3.25 L-2.0 3.3 -2.0 3.35 Q-2.0 3.45 -2.15 3.5 -2.3 3.6 -2.55 3.6 L-3.85 3.5 Q-4.6 3.35 -4.6 2.85 L-6.5 2.7 -8.3 2.65 -9.45 2.2 Q-10.6 1.7 -10.95 1.65 L-12.6 1.4 -14.15 1.15 -14.3 1.2 -15.35 1.0 -15.7 0.9 Q-16.35 0.9 -17.0 0.5 -17.45 0.2 -18.15 -0.45 L-19.35 -1.5 Q-20.05 -2.1 -20.7 -2.35 -22.4 -2.95 -23.3 -3.8 L-24.05 -4.65 Q-24.6 -5.25 -25.05 -5.65 -25.85 -6.4 -26.6 -9.4 -27.15 -11.8 -27.15 -12.5 -27.15 -13.45 -26.75 -15.1 -26.4 -16.55 -26.0 -17.6 L-25.5 -18.8 Q-25.1 -19.6 -24.25 -20.0 -23.6 -20.35 -22.4 -21.15 L-21.25 -22.0 Q-21.35 -21.55 -21.95 -21.0 -21.7 -21.15 -21.5 -21.4 -21.15 -21.8 -21.05 -22.25 L-20.95 -22.25 -20.9 -22.2 -20.9 -22.0 Q-20.9 -21.4 -22.3 -20.35 -23.9 -19.1 -24.05 -18.8 -24.25 -18.5 -24.35 -18.05 L-24.5 -17.25 Q-24.75 -16.3 -25.55 -15.65 L-25.25 -15.65 Q-25.1 -15.6 -25.1 -15.4 -25.1 -15.3 -25.6 -13.75 -26.1 -12.2 -26.1 -11.8 L-26.0 -11.25 Q-25.95 -10.85 -25.95 -10.65 -25.95 -10.45 -25.65 -10.2 -25.25 -9.85 -25.15 -9.65 -24.95 -9.25 -24.8 -8.5 L-24.55 -7.4 Q-24.45 -7.0 -23.7 -6.35 -23.0 -5.65 -22.85 -5.25 -22.75 -4.9 -22.15 -4.15 -21.6 -3.5 -21.1 -3.05 -19.4 -2.8 -18.8 -2.35 -18.6 -2.2 -18.4 -1.95 L-18.05 -1.55 Q-17.65 -1.1 -16.35 -0.65 L-14.8 -0.15 Q-14.65 -0.05 -12.9 0.15 -11.1 0.4 -10.75 0.55 -8.95 1.3 -5.65 1.45 -5.3 1.7 -5.2 1.8 -4.3 1.9 -3.85 2.1 L-3.3 2.5 Q-2.75 2.9 -1.0 2.9 L-0.95 2.95 0.7 2.75 4.9 2.6 5.7 2.4 6.5 2.25 Q6.7 2.25 7.15 2.35 7.55 2.5 7.75 2.5 8.5 2.5 10.0 1.85 11.7 1.15 11.75 1.15 12.65 0.95 14.15 0.45 15.75 -0.15 16.1 -0.5 16.5 -0.9 17.5 -1.3 18.4 -1.6 18.75 -2.05 19.2 -2.6 19.6 -3.25 20.0 -3.6 20.95 -3.6 21.85 -3.6 23.0 -5.0 M-18.95 -23.95 Q-18.9 -23.95 -18.9 -23.75 -18.9 -23.7 -19.1 -23.55 L-19.5 -23.3 -19.8 -23.3 -19.85 -23.25 Q-19.9 -23.25 -19.9 -23.4 -19.9 -23.5 -19.55 -23.7 -19.2 -23.9 -18.95 -23.9 L-18.95 -23.95 M-21.75 -12.7 Q-21.25 -12.8 -20.95 -12.5 -20.75 -12.3 -20.75 -12.1 -20.75 -11.9 -20.95 -11.65 -21.1 -11.45 -21.25 -11.3 -21.5 -11.65 -21.6 -12.05 L-21.75 -12.7 M-20.9 -7.5 Q-20.8 -7.4 -20.8 -7.25 -20.95 -7.05 -21.1 -7.0 L-21.4 -7.1 Q-21.45 -7.1 -21.45 -7.35 -21.45 -7.55 -21.35 -7.6 L-21.1 -7.65 Q-21.0 -7.6 -20.9 -7.5 M-20.95 -8.9 Q-20.7 -9.15 -20.4 -8.75 -19.9 -8.15 -19.8 -8.05 L-19.8 -7.95 -20.45 -8.4 Q-20.85 -8.7 -20.95 -8.9 M-19.4 -7.3 Q-19.3 -7.1 -19.1 -6.8 -18.9 -6.6 -18.9 -6.45 L-18.9 -6.2 -18.95 -6.15 -19.05 -6.15 Q-19.15 -6.05 -19.2 -6.05 -19.55 -6.55 -19.55 -6.9 L-19.55 -7.2 -19.5 -7.3 -19.4 -7.3 M-16.2 -3.7 Q-16.25 -3.65 -16.3 -3.65 L-16.85 -3.8 Q-16.85 -3.85 -16.9 -3.9 L-16.95 -4.05 Q-16.55 -4.25 -16.1 -3.85 -16.1 -3.8 -16.2 -3.7" fill="#8cc1ff" fill-opacity="0.7529412" fill-rule="evenodd" stroke="none"/>
    <path d="M22.65 -14.75 L22.7 -14.55 Q22.6 -14.4 22.4 -14.3 22.25 -14.35 22.2 -14.35 22.1 -14.4 22.1 -14.6 22.1 -14.8 22.25 -14.9 L22.5 -14.9 22.65 -14.75 M22.75 -10.6 L22.8 -10.4 Q22.7 -10.25 22.55 -10.15 22.4 -10.2 22.35 -10.25 22.3 -10.25 22.3 -10.45 22.3 -10.65 22.4 -10.75 22.45 -10.75 22.6 -10.75 22.7 -10.7 22.75 -10.6 M18.95 -1.35 L18.9 -1.55 Q19.3 -2.35 20.25 -2.95 21.4 -3.65 22.55 -3.5 22.15 -3.1 20.65 -2.2 19.3 -1.35 19.2 -1.35 L18.95 -1.35 M17.6 -0.5 L17.65 -0.45 Q17.45 -0.35 17.25 -0.35 17.3 -0.45 17.4 -0.45 L17.6 -0.5 M26.4 -12.55 Q26.4 -12.3 26.75 -11.75 27.1 -11.2 27.1 -11.0 27.1 -10.85 26.5 -9.85 25.95 -8.85 25.8 -8.65 L25.6 -8.7 26.1 -9.35 Q26.55 -9.95 26.55 -10.05 L26.3 -10.8 Q26.05 -11.4 26.05 -11.65 26.05 -11.85 26.2 -12.15 26.3 -12.35 26.4 -12.55 M27.1 -15.85 L27.0 -15.75 Q26.35 -16.0 26.3 -16.6 26.25 -16.95 26.3 -17.7 26.85 -17.8 27.05 -17.3 27.15 -17.05 27.15 -16.45 L27.1 -15.85 M24.9 -6.8 Q24.65 -6.1 24.05 -5.7 24.2 -6.0 24.5 -6.95 24.85 -7.8 25.3 -8.05 25.05 -7.2 24.9 -6.8 M15.2 0.65 Q15.35 0.7 15.4 0.75 14.35 1.2 13.5 1.6 11.9 2.25 11.55 2.25 L11.25 2.2 11.25 2.15 Q11.45 1.75 13.0 1.3 14.8 0.8 15.05 0.65 L15.2 0.65 M8.55 2.45 L8.55 2.5 8.6 2.75 Q8.6 2.85 8.5 3.0 8.35 3.15 8.2 3.15 L7.85 3.15 7.45 3.1 7.4 3.05 Q7.35 3.05 7.35 2.85 7.35 2.6 7.6 2.5 L8.55 2.45 M-23.5 -20.2 L-23.45 -20.25 -23.15 -20.5 Q-23.0 -20.55 -22.8 -20.55 -22.8 -20.4 -22.95 -20.2 L-22.95 -20.15 -23.25 -20.15 Q-23.45 -20.15 -23.5 -20.2 M-24.45 -19.35 Q-24.9 -17.85 -25.35 -16.75 L-26.05 -15.35 Q-26.35 -14.7 -26.45 -14.15 -26.6 -13.4 -26.6 -12.15 L-26.1 -10.55 Q-25.6 -9.0 -25.6 -8.0 -25.6 -7.8 -25.4 -7.05 L-25.15 -6.3 Q-24.75 -6.1 -24.2 -5.5 -23.5 -4.6 -23.3 -4.45 -22.5 -3.6 -19.95 -2.55 -19.25 -2.3 -18.65 -1.65 -17.75 -0.7 -17.5 -0.5 -15.75 0.85 -11.5 0.85 -11.25 0.9 -11.05 0.95 -10.9 1.0 -10.85 1.05 -10.4 1.1 -9.9 1.25 -9.5 1.35 -8.55 1.75 -7.7 2.1 -7.2 2.2 -6.45 2.3 -5.75 2.1 -5.65 2.05 -5.5 2.1 -5.6 2.25 -6.2 2.55 -6.75 2.75 -6.95 2.75 -8.4 2.75 -9.3 2.25 -9.75 1.95 -10.05 1.85 -10.6 1.65 -11.45 1.6 L-11.5 1.5 -11.5 1.15 -12.2 1.15 -13.45 1.25 Q-15.5 1.25 -16.5 0.85 -17.25 0.55 -17.65 -0.1 L-18.0 -0.65 Q-18.25 -1.0 -18.45 -1.2 -19.05 -1.9 -20.25 -2.25 -22.15 -2.8 -23.45 -4.15 L-24.45 -5.3 Q-25.05 -6.0 -25.5 -6.35 L-25.3 -6.3 Q-26.1 -7.9 -26.45 -8.95 -27.1 -10.65 -27.1 -11.85 L-27.0 -14.55 -26.85 -15.3 Q-26.65 -16.1 -26.4 -16.85 -25.6 -19.1 -24.5 -19.5 L-24.45 -19.35 M-20.55 -8.25 L-20.6 -8.2 Q-20.65 -8.15 -20.8 -8.15 L-21.0 -8.35 Q-21.0 -8.4 -20.9 -8.45 L-20.65 -8.45 -20.55 -8.25 M-21.0 -7.25 L-21.05 -7.2 Q-21.15 -7.15 -21.25 -7.1 L-21.5 -7.1 Q-21.6 -7.1 -21.6 -7.3 -21.6 -7.65 -21.1 -7.55 -21.15 -7.5 -21.1 -7.4 L-21.0 -7.25 M-19.05 -5.95 Q-19.15 -6.0 -19.35 -6.15 L-19.6 -6.3 Q-19.35 -6.5 -19.15 -6.35 -19.1 -6.3 -18.95 -6.05 L-19.05 -5.95 M-15.95 -3.65 L-16.0 -3.6 -16.15 -3.5 -16.3 -3.55 Q-16.45 -3.6 -16.5 -3.65 -16.5 -3.7 -16.4 -3.8 -16.25 -3.85 -16.1 -3.85 -16.0 -3.75 -15.95 -3.65 M-3.65 2.35 Q-3.35 2.6 -3.45 3.1 -3.4 3.15 -3.1 3.2 L-2.6 3.25 -3.05 3.4 Q-3.3 3.5 -3.55 3.5 -4.0 3.5 -4.35 2.95 -4.65 2.55 -4.7 2.3 -4.0 2.0 -3.65 2.35" fill="#bfdcff" fill-opacity="0.7529412" fill-rule="evenodd" stroke="none"/>
    <path d="M20.8 -2.15 Q20.2 -1.75 19.85 -1.6 19.7 -1.65 19.6 -1.75 19.7 -2.1 20.65 -2.5 21.3 -2.8 21.75 -2.9 21.6 -2.7 20.8 -2.15 M27.3 -16.95 L27.35 -16.65 Q27.35 -16.4 27.3 -16.3 27.25 -16.2 27.1 -16.15 26.9 -16.25 26.85 -16.35 26.85 -16.4 26.85 -16.65 26.85 -16.75 26.9 -16.9 26.95 -17.15 27.15 -17.2 L27.3 -16.95 M26.6 -11.55 Q26.6 -11.75 26.7 -11.85 L26.85 -11.95 Q27.3 -11.9 27.4 -11.65 27.45 -11.6 27.45 -11.3 27.45 -11.1 27.35 -10.9 27.25 -10.8 27.1 -10.65 27.0 -10.7 26.8 -11.1 26.6 -11.5 26.6 -11.55 M25.5 -7.4 Q25.35 -7.25 25.1 -6.8 24.85 -6.4 24.55 -6.15 L24.45 -6.25 Q24.7 -6.4 25.0 -7.0 25.3 -7.6 25.45 -7.65 L25.5 -7.4 M13.25 1.65 L12.5 2.15 Q12.25 2.1 12.2 2.0 12.25 1.9 12.6 1.75 12.85 1.6 13.1 1.55 L13.25 1.65 M8.45 3.1 L8.35 3.25 Q8.25 3.3 8.0 3.3 L7.75 3.3 7.75 3.25 7.7 3.2 7.7 3.0 Q7.7 2.65 8.3 2.85 8.3 2.95 8.45 3.1 M-26.0 -15.7 L-26.55 -14.35 Q-27.15 -12.95 -27.15 -12.6 -27.15 -11.3 -26.9 -10.7 -26.4 -9.6 -26.1 -8.2 -25.9 -7.35 -24.65 -5.85 -23.45 -4.4 -23.45 -4.0 -23.45 -3.8 -23.55 -3.85 L-23.6 -3.9 Q-24.95 -5.2 -26.15 -7.65 -27.35 -10.15 -27.35 -11.8 -27.35 -12.95 -26.7 -15.4 -26.1 -17.8 -25.8 -17.95 -26.05 -16.75 -26.05 -16.55 -26.0 -16.25 -26.0 -15.7 M-23.3 -3.75 Q-22.05 -3.3 -21.1 -2.9 -19.2 -2.2 -18.75 -1.75 -18.45 -1.45 -18.2 -1.05 L-17.75 -0.35 Q-17.25 0.35 -16.45 0.8 -15.35 1.0 -14.7 1.3 -14.4 1.4 -12.85 1.4 L-11.4 1.1 Q-9.95 1.1 -8.35 2.05 -8.05 2.25 -7.75 2.5 L-7.1 2.55 Q-6.7 2.65 -6.5 2.8 L-6.5 2.9 -6.7 2.9 -7.05 3.0 -6.85 3.15 -7.1 3.15 Q-7.4 3.15 -7.7 2.9 L-8.4 2.35 Q-9.5 1.6 -11.5 1.6 -11.65 1.6 -12.15 1.7 L-12.8 1.8 -13.4 1.75 -14.05 1.65 Q-14.45 1.65 -15.2 1.35 -15.6 1.15 -16.0 1.05 L-16.0 1.1 -16.15 1.0 -16.65 0.95 -16.8 0.8 -16.75 0.8 -16.75 0.75 -16.65 0.8 Q-16.85 0.7 -17.05 0.6 -17.55 0.35 -17.85 -0.15 -18.0 -0.4 -18.35 -0.8 L-19.0 -1.5 Q-19.25 -1.8 -21.15 -2.5 -23.0 -3.2 -23.3 -3.7 L-23.3 -3.75 M-1.4 3.45 L-1.4 3.55 Q-1.5 3.65 -2.7 3.65 -4.15 3.15 -4.2 2.95 -4.05 2.85 -4.05 2.75 -3.25 2.75 -1.2 3.35 -1.35 3.35 -1.4 3.45" fill="#ffffff" fill-rule="evenodd" stroke="none"/>
  </g>
</svg>
