<?xml version="1.0" encoding="UTF-8" standalone="no"?>
<svg xmlns:ffdec="https://www.free-decompiler.com/flash" xmlns:xlink="http://www.w3.org/1999/xlink" ffdec:objectType="shape" height="28.85px" width="57.05px" xmlns="http://www.w3.org/2000/svg">
  <g transform="matrix(1.0, 0.0, 0.0, 1.0, 28.2, 25.7)">
    <path d="M16.35 -23.45 L16.4 -23.75 Q16.85 -23.6 17.55 -23.2 18.2 -22.75 18.6 -22.65 17.9 -22.65 17.1 -23.0 16.55 -23.25 16.35 -23.45 M13.2 -25.4 L12.9 -25.35 12.45 -25.3 12.35 -25.6 Q12.55 -25.75 13.0 -25.65 L13.2 -25.4 M19.65 -22.0 Q20.05 -21.8 20.95 -21.35 22.25 -20.75 22.65 -20.55 24.8 -19.45 25.45 -18.5 25.5 -18.3 26.95 -16.45 28.3 -14.65 28.3 -14.25 L28.2 -11.05 Q28.2 -10.2 27.65 -8.85 27.2 -7.65 26.65 -6.9 26.45 -6.6 26.1 -5.95 25.75 -5.25 25.55 -4.95 24.8 -3.75 23.45 -3.15 21.45 -2.25 20.4 -1.75 18.4 -0.85 17.65 -0.2 17.25 0.15 16.55 0.45 L15.95 0.7 Q15.25 0.95 14.35 1.2 11.85 1.85 7.25 2.55 7.2 2.6 6.95 2.65 L6.45 2.75 5.2 2.65 Q5.15 2.7 5.1 2.75 L4.7 3.0 4.55 2.9 4.15 3.0 Q3.4 3.15 2.4 3.15 L-3.2 2.75 -8.7 2.3 Q-9.5 2.05 -10.9 1.75 L-13.6 1.1 Q-15.75 0.55 -17.6 -0.4 L-21.0 -2.15 Q-21.75 -2.5 -22.65 -3.0 L-24.1 -3.85 Q-24.6 -4.15 -25.25 -4.9 -25.9 -5.6 -26.5 -5.9 -27.35 -6.35 -28.2 -10.35 -28.2 -10.8 -28.0 -12.0 -27.75 -13.2 -27.75 -14.65 -27.75 -14.95 -26.85 -16.35 -26.0 -17.6 -25.6 -18.05 -24.95 -18.7 -23.6 -19.65 -22.3 -20.6 -21.5 -21.0 L-21.55 -20.9 Q-20.8 -21.3 -20.25 -21.7 L-20.2 -21.75 Q-20.1 -21.7 -20.1 -21.55 -20.1 -21.35 -20.9 -21.0 -21.4 -20.75 -21.7 -20.7 -22.15 -20.15 -23.3 -19.25 L-23.9 -18.8 -23.9 -18.75 -23.95 -18.75 Q-24.9 -18.0 -25.25 -17.65 -24.9 -17.55 -24.75 -17.25 -24.65 -17.05 -24.65 -16.9 -24.65 -16.25 -25.15 -15.8 -25.95 -15.1 -26.35 -14.4 -25.85 -14.1 -25.85 -13.9 -25.85 -13.65 -26.35 -12.3 L-27.0 -10.6 -27.0 -10.55 -26.75 -10.95 Q-26.65 -11.15 -26.25 -11.15 -26.0 -11.15 -25.85 -10.9 -25.75 -10.75 -25.75 -10.65 -25.75 -10.5 -25.9 -9.95 -26.0 -9.4 -26.0 -9.3 -26.0 -9.2 -25.5 -8.7 -25.05 -8.2 -25.05 -7.95 -25.05 -7.8 -25.2 -7.35 L-25.3 -7.0 Q-25.2 -6.7 -25.2 -6.45 L-25.2 -6.35 Q-23.5 -6.15 -23.15 -5.4 L-22.95 -4.8 Q-22.85 -4.45 -22.55 -4.3 -22.2 -4.05 -21.65 -3.85 L-20.85 -3.5 Q-19.95 -3.1 -19.95 -2.45 L-20.05 -2.3 -20.1 -2.25 -19.65 -2.0 Q-18.55 -2.1 -16.4 -1.15 -15.0 -0.55 -14.6 -0.4 -13.6 -0.05 -12.95 -0.05 -12.65 -0.05 -11.65 0.4 -10.65 0.85 -10.5 0.85 -9.55 1.0 -9.15 1.1 -8.3 1.3 -8.15 1.6 L-8.55 1.7 Q-4.6 2.4 -0.45 2.4 L1.85 2.5 4.1 2.6 4.3 2.6 Q4.4 2.55 4.55 2.5 4.2 2.4 4.05 2.4 4.15 2.35 7.4 1.95 11.0 1.5 12.3 1.2 L13.9 0.75 13.9 0.6 Q13.9 0.35 14.75 0.0 15.4 -0.25 15.9 -0.3 16.25 -0.7 16.4 -0.95 16.75 -1.6 16.9 -1.75 17.05 -1.95 17.15 -1.9 L17.55 -1.75 Q17.85 -1.65 18.3 -1.65 18.35 -1.65 18.55 -1.85 18.7 -2.05 18.95 -2.05 18.95 -2.5 19.4 -3.2 19.95 -4.15 20.7 -4.15 21.05 -4.15 21.15 -3.95 21.2 -3.9 21.2 -3.7 L22.85 -4.1 Q23.8 -4.35 24.3 -4.9 25.05 -5.7 25.2 -6.65 25.4 -7.75 26.2 -8.45 26.55 -8.8 26.7 -9.0 26.9 -9.35 26.9 -9.95 26.9 -10.3 26.4 -10.95 25.85 -11.65 25.85 -11.95 25.85 -12.3 26.05 -12.4 26.2 -12.55 26.65 -12.55 27.0 -12.55 27.25 -13.05 27.25 -13.55 26.85 -14.0 26.45 -14.45 26.45 -14.6 26.45 -14.75 26.6 -15.0 26.75 -15.25 26.75 -15.4 26.75 -15.6 25.75 -16.25 24.75 -16.85 24.75 -17.15 24.75 -17.25 24.9 -17.45 25.0 -17.7 25.2 -17.85 25.15 -17.95 24.65 -18.4 L24.4 -18.65 21.9 -20.4 Q20.0 -21.65 19.65 -22.0 M22.5 -13.6 L22.45 -13.55 Q22.35 -13.5 22.25 -13.45 22.1 -13.55 22.05 -13.55 21.95 -13.65 21.95 -13.85 21.95 -14.0 22.05 -14.1 22.1 -14.1 22.25 -14.15 22.4 -14.1 22.5 -14.0 22.55 -13.9 22.55 -13.85 L22.5 -13.6 M10.1 -1.55 Q9.95 -1.4 9.8 -1.35 L9.5 -1.4 Q9.45 -1.45 9.45 -1.65 9.45 -1.85 9.55 -1.95 9.6 -2.0 9.8 -2.05 10.1 -1.85 10.1 -1.55 M22.8 -10.05 Q22.95 -9.85 22.95 -9.7 22.95 -9.55 22.9 -9.45 L22.8 -9.35 Q22.7 -9.3 22.55 -9.3 22.25 -9.35 22.2 -9.5 L22.15 -9.75 Q22.15 -9.95 22.25 -10.1 22.4 -10.25 22.55 -10.35 L22.8 -10.05 M18.9 -1.6 L19.0 -1.65 19.0 -1.75 18.9 -1.6 M-18.25 -22.75 Q-18.7 -22.45 -19.05 -22.4 L-19.2 -22.45 -19.2 -22.6 Q-19.2 -22.85 -18.55 -23.15 -17.95 -23.4 -17.55 -23.4 -17.85 -23.0 -18.25 -22.75 M-13.75 -24.8 L-13.85 -24.75 -14.25 -24.75 Q-14.3 -24.75 -14.3 -24.95 -14.3 -25.1 -14.0 -25.2 L-13.55 -25.2 Q-13.55 -25.0 -13.75 -24.8 M-25.55 -17.3 L-25.75 -16.95 Q-25.55 -17.15 -25.3 -17.25 -25.35 -17.3 -25.5 -17.3 L-25.55 -17.3 M-27.4 -12.2 L-27.5 -11.7 -27.35 -12.1 -27.3 -12.2 -27.35 -12.35 -27.4 -12.2 M-27.6 -10.15 Q-27.55 -10.0 -27.4 -9.85 L-27.3 -9.75 -27.3 -9.95 -27.55 -10.1 -27.6 -10.15 M-26.55 -9.5 L-26.5 -9.55 -26.6 -9.6 -26.55 -9.5 M-26.95 -7.65 L-26.95 -7.5 Q-26.95 -7.2 -26.65 -6.85 L-26.95 -7.65 M-25.75 -5.9 L-25.25 -5.5 -25.3 -5.65 -25.5 -5.95 Q-25.6 -5.9 -25.75 -5.9 M-14.35 -21.75 L-14.35 -21.7 -14.45 -21.65 -14.7 -21.65 -14.75 -21.7 -14.8 -21.8 -14.75 -22.0 -14.55 -22.0 Q-14.35 -21.85 -14.35 -21.75 M-17.95 -18.45 L-18.0 -18.4 -18.35 -18.4 Q-18.4 -18.45 -18.4 -18.65 -18.4 -19.0 -17.8 -18.8 -17.8 -18.7 -17.95 -18.45 M-22.45 -12.05 Q-22.45 -12.4 -21.95 -12.35 -21.5 -12.25 -21.4 -12.0 -21.3 -11.35 -21.2 -11.05 L-21.25 -10.8 -21.35 -10.8 -21.7 -10.75 Q-22.15 -10.75 -22.35 -11.4 -22.45 -11.75 -22.45 -12.05 M-20.5 -8.65 Q-20.05 -8.45 -20.05 -8.1 L-20.05 -7.8 -20.1 -7.75 Q-20.15 -7.7 -20.35 -7.7 -20.7 -7.7 -21.1 -8.1 -21.4 -8.45 -21.4 -8.7 -20.95 -8.85 -20.5 -8.65 M-21.4 -6.9 Q-21.3 -6.9 -21.2 -6.75 L-21.15 -6.65 -21.25 -6.45 Q-21.3 -6.4 -21.4 -6.4 L-21.6 -6.45 Q-21.65 -6.5 -21.65 -6.65 -21.65 -6.85 -21.6 -6.9 L-21.4 -6.9 M-19.8 -7.3 Q-19.45 -7.1 -19.2 -6.8 -18.95 -6.5 -18.95 -6.35 L-19.0 -6.1 -19.1 -6.05 Q-19.15 -6.0 -19.4 -6.0 -19.6 -6.0 -19.65 -6.3 L-19.65 -6.75 Q-19.65 -6.95 -19.75 -7.05 L-19.95 -7.3 -19.8 -7.3 M-16.45 -4.35 Q-16.25 -4.25 -16.2 -4.1 -16.15 -4.0 -16.15 -3.75 L-16.25 -3.7 Q-16.35 -3.65 -16.45 -3.65 L-16.65 -3.7 Q-16.75 -3.75 -16.75 -3.95 -16.75 -4.15 -16.65 -4.25 -16.6 -4.3 -16.45 -4.35 M-5.7 1.7 L-5.6 1.85 -5.6 1.9 -5.55 1.95 Q-5.5 2.0 -5.75 2.0 L-6.4 1.9 Q-6.75 1.8 -6.95 1.75 -6.75 1.6 -6.65 1.6 L-5.75 1.6 -5.7 1.7 M-13.3 0.6 L-13.1 0.65 -12.25 0.9 Q-12.8 0.65 -13.3 0.6" fill="#59a5ff" fill-opacity="0.5019608" fill-rule="evenodd" stroke="none"/>
    <path d="M22.8 -13.9 Q22.75 -13.8 22.75 -13.75 L22.5 -13.75 22.4 -13.9 Q22.45 -14.0 22.75 -14.0 L22.8 -13.9 M23.1 -10.15 Q23.2 -10.05 23.2 -9.95 L23.2 -9.75 23.15 -9.7 23.0 -9.65 22.8 -9.55 Q22.55 -9.6 22.45 -9.75 L22.45 -10.0 22.65 -10.05 Q22.8 -10.15 22.8 -10.35 L23.1 -10.15 M22.3 -3.1 L22.35 -3.0 Q22.4 -2.9 22.4 -2.75 22.4 -2.5 22.2 -2.4 22.05 -2.35 21.6 -2.3 20.45 -2.1 19.85 -1.6 19.55 -1.4 18.5 -0.95 17.7 -0.55 16.95 -0.3 17.2 -0.6 17.8 -0.95 L19.2 -1.8 Q19.4 -1.95 19.55 -2.2 19.75 -2.5 20.05 -2.75 20.3 -2.95 20.9 -3.0 L22.3 -3.1 M25.7 -17.4 L25.75 -17.55 Q25.9 -17.5 26.5 -16.95 27.0 -16.5 27.35 -16.4 L27.95 -15.55 Q28.2 -15.15 28.55 -14.7 L28.55 -13.8 28.5 -13.7 Q28.45 -13.65 28.2 -13.65 27.6 -13.65 27.5 -14.35 L27.4 -14.95 Q27.4 -15.25 27.35 -15.35 27.3 -15.45 26.45 -16.2 25.7 -16.9 25.7 -17.1 25.7 -17.25 25.7 -17.4 M28.15 -13.5 L28.4 -13.45 28.45 -13.3 28.25 -13.15 Q28.1 -13.1 27.95 -13.1 L27.9 -13.15 Q27.85 -13.15 27.85 -13.3 27.85 -13.5 27.9 -13.5 L28.15 -13.5 M27.05 -11.8 Q27.25 -12.0 27.45 -12.1 27.7 -12.25 27.85 -12.2 L27.9 -12.6 Q27.9 -12.9 28.25 -12.9 L28.35 -12.75 Q28.25 -12.6 28.1 -12.0 L28.2 -11.75 28.25 -11.15 28.3 -10.6 Q28.3 -10.35 28.1 -9.7 L27.95 -9.6 27.65 -9.85 Q27.6 -9.9 27.6 -10.0 27.6 -10.15 27.35 -10.65 27.25 -10.8 27.15 -10.95 L27.1 -11.05 Q26.85 -11.45 26.85 -11.55 26.85 -11.6 27.05 -11.8 M25.7 -6.65 Q25.7 -7.15 26.4 -7.95 26.7 -8.35 27.55 -9.15 27.35 -8.45 27.35 -8.1 27.35 -7.95 27.05 -7.45 26.75 -6.9 26.75 -6.65 26.75 -6.4 26.65 -6.25 26.45 -6.1 25.8 -5.9 25.8 -6.0 25.75 -6.25 25.7 -6.5 25.7 -6.65 M24.75 -4.3 Q24.1 -3.55 23.3 -3.4 23.8 -3.85 24.5 -4.7 25.1 -5.35 25.55 -5.5 25.2 -4.8 24.75 -4.3 M15.7 0.7 Q14.9 1.0 14.75 1.0 L14.45 1.0 14.25 0.95 Q14.3 0.85 15.15 0.5 16.1 0.15 16.4 0.2 L16.5 0.2 Q16.6 0.2 16.6 0.25 16.55 0.35 15.7 0.7 M12.0 1.5 L11.0 1.6 10.55 1.9 Q10.15 2.15 9.95 2.2 L9.3 2.05 9.25 1.95 Q9.3 1.5 10.3 1.5 L11.3 1.45 12.4 1.4 12.0 1.5 M8.2 2.1 Q9.0 1.9 9.1 1.9 9.0 2.0 7.9 2.35 6.5 2.75 5.4 2.75 L3.7 2.75 3.5 2.6 Q3.3 2.5 3.3 2.45 3.5 2.4 4.85 2.4 6.4 2.4 7.0 2.4 7.3 2.35 8.2 2.1 M1.5 2.85 L-0.35 2.8 1.75 2.7 Q1.7 2.8 1.5 2.85 M-25.65 -17.65 Q-26.15 -17.05 -26.15 -16.95 -26.15 -16.85 -26.0 -16.7 -25.8 -16.55 -25.8 -16.4 -25.8 -16.25 -26.15 -15.8 -26.5 -15.3 -26.75 -15.2 -27.4 -14.9 -27.25 -14.6 -27.0 -14.25 -27.0 -14.05 -27.0 -13.7 -27.25 -13.05 -27.5 -12.35 -27.5 -12.0 -27.25 -10.9 -27.25 -10.6 L-27.05 -9.35 Q-26.8 -8.2 -26.8 -7.75 -26.8 -7.6 -25.75 -6.55 -24.4 -5.25 -24.15 -4.95 -23.7 -4.45 -23.1 -4.05 L-22.1 -3.55 Q-21.55 -3.25 -21.35 -3.05 -21.05 -2.75 -21.05 -2.3 -21.05 -2.1 -21.1 -2.15 L-21.2 -2.2 Q-24.0 -3.75 -26.8 -6.3 -27.3 -6.8 -27.7 -8.35 -28.05 -9.7 -28.05 -10.7 -28.05 -11.0 -27.85 -12.2 -27.6 -13.4 -27.6 -14.15 L-27.5 -14.8 Q-27.4 -15.45 -27.4 -15.65 -27.4 -15.9 -26.7 -16.9 -25.8 -18.1 -25.05 -18.25 L-25.65 -17.65 M-21.85 -11.7 Q-21.75 -11.6 -21.75 -11.4 -21.75 -11.25 -21.8 -11.2 L-21.85 -11.15 -22.0 -11.1 -22.2 -11.15 Q-22.35 -11.2 -22.35 -11.35 -22.35 -11.7 -22.25 -11.95 L-22.05 -11.95 -21.85 -11.7 M-20.5 -7.9 Q-20.6 -7.8 -20.85 -7.8 -21.1 -7.8 -21.35 -8.3 -21.35 -8.65 -21.0 -8.65 -20.6 -8.65 -20.4 -8.1 -20.45 -7.95 -20.5 -7.9 M-19.1 -1.35 L-19.7 -1.35 Q-20.05 -1.45 -20.25 -1.8 -19.9 -1.9 -19.55 -1.75 -19.2 -1.6 -19.1 -1.4 L-19.1 -1.35 M-15.75 0.0 Q-15.3 0.3 -14.85 0.45 L-14.95 0.6 Q-15.05 0.7 -15.25 0.7 -17.95 -0.1 -18.5 -1.05 -17.4 -1.1 -16.5 -0.55 L-15.75 0.0 M-2.1 2.75 Q-2.25 2.75 -2.7 2.85 -3.15 3.0 -3.3 3.0 -4.05 3.0 -5.8 2.1 L-7.1 2.15 -7.8 2.2 Q-7.95 2.2 -8.25 2.05 L-8.45 1.9 -8.45 2.0 Q-8.45 2.05 -8.65 2.05 -8.95 2.05 -9.3 1.75 L-9.85 1.3 Q-9.55 1.3 -9.1 1.45 -8.75 1.6 -8.6 1.7 L-8.55 1.65 -8.35 1.65 -7.7 1.75 -7.1 1.85 Q-6.2 1.85 -5.2 2.25 -4.4 2.6 -4.3 2.6 -4.1 2.6 -3.55 2.5 -3.0 2.4 -2.8 2.4 -2.25 2.4 -2.05 2.5 L-1.75 2.7 -1.55 2.75 -2.1 2.75 M-10.55 1.25 Q-10.75 1.3 -11.05 1.45 -11.3 1.55 -11.5 1.55 -12.7 1.55 -12.95 1.4 -13.5 1.1 -14.2 0.95 -14.1 0.6 -13.5 0.5 -13.1 0.4 -12.75 0.4 -12.2 0.4 -11.5 0.8 L-10.55 1.25" fill="#8cc1ff" fill-opacity="0.7529412" fill-rule="evenodd" stroke="none"/>
    <path d="M19.2 -1.35 L19.15 -1.3 Q19.1 -1.3 19.1 -1.5 19.1 -1.75 20.05 -2.15 L21.1 -2.6 Q21.9 -2.95 22.05 -3.0 22.5 -3.1 22.5 -2.65 22.5 -2.5 22.1 -2.45 L21.25 -2.45 Q19.9 -2.3 19.5 -1.35 L19.2 -1.35 M28.2 -14.15 Q27.75 -14.45 27.6 -15.0 27.55 -15.3 27.4 -16.0 28.0 -16.15 28.2 -15.5 28.35 -14.7 28.5 -14.45 28.45 -14.25 28.2 -14.15 M28.2 -11.45 L28.3 -10.8 28.25 -10.55 28.2 -10.4 Q28.05 -10.55 27.85 -10.9 27.55 -11.3 27.55 -11.55 27.55 -11.85 27.6 -11.95 27.7 -12.2 28.1 -12.2 28.1 -12.0 28.2 -11.45 M27.1 -8.0 L27.3 -7.95 Q27.35 -7.9 27.35 -7.7 27.35 -7.55 27.0 -7.0 26.65 -6.45 26.5 -6.4 L26.3 -6.45 Q26.25 -6.55 26.25 -6.7 26.25 -6.85 26.45 -7.3 26.75 -7.85 27.1 -8.0 M25.15 -4.35 Q25.0 -4.1 24.7 -4.0 L24.5 -4.0 Q24.45 -4.05 24.45 -4.2 24.45 -4.4 24.7 -4.55 24.95 -4.7 25.3 -4.7 25.25 -4.65 25.15 -4.35 M16.0 0.85 Q15.9 1.0 15.6 1.0 L15.3 0.95 15.25 1.0 Q15.2 1.0 15.2 0.8 15.2 0.65 15.6 0.55 15.95 0.4 16.25 0.45 16.1 0.75 16.0 0.85 M6.4 2.85 L5.5 3.05 5.15 2.75 Q5.15 2.5 5.7 2.5 6.2 2.5 6.85 2.7 6.7 2.8 6.4 2.85 M10.9 2.1 Q10.8 2.25 10.55 2.25 10.2 2.25 10.05 2.0 L9.95 1.85 Q9.95 1.45 10.4 1.55 10.8 1.6 11.0 1.9 L10.9 2.1 M-26.5 -16.8 L-26.45 -16.6 Q-26.5 -16.1 -26.55 -15.9 -26.75 -15.4 -27.3 -15.45 L-27.35 -15.75 Q-27.3 -15.9 -27.15 -16.35 -27.0 -16.75 -26.8 -16.8 L-26.5 -16.8 M-27.05 -10.0 Q-26.9 -9.75 -26.9 -9.15 L-27.0 -8.25 Q-27.1 -7.5 -27.0 -7.05 L-27.15 -7.05 -27.55 -7.8 Q-27.8 -8.3 -27.85 -8.65 L-27.95 -10.15 Q-27.95 -10.85 -27.8 -11.1 L-27.05 -10.0 M-26.45 -6.45 Q-26.05 -6.25 -26.0 -6.2 L-26.0 -6.0 -26.05 -6.0 -26.35 -5.95 Q-26.75 -5.95 -26.9 -6.25 -27.0 -6.4 -27.0 -6.6 L-26.9 -6.65 Q-26.7 -6.55 -26.45 -6.45 M-24.05 -3.9 L-24.0 -3.9 -23.75 -3.95 Q-23.0 -3.95 -22.5 -3.35 -22.05 -2.65 -21.8 -2.45 L-21.8 -2.35 Q-22.4 -2.6 -23.05 -2.95 -23.9 -3.4 -24.1 -3.65 L-24.05 -3.9 M-22.15 -11.8 Q-22.05 -11.6 -22.05 -11.5 L-22.2 -11.3 -22.6 -11.55 Q-22.65 -11.65 -22.65 -11.75 -22.65 -11.95 -22.6 -12.0 L-22.4 -12.05 Q-22.25 -11.95 -22.15 -11.8 M-21.1 -8.65 Q-20.9 -8.55 -20.8 -8.3 L-20.9 -8.15 Q-20.95 -8.05 -21.2 -8.05 L-21.45 -8.1 -21.5 -8.1 -21.55 -8.15 Q-21.6 -8.15 -21.6 -8.35 -21.6 -8.45 -21.5 -8.55 -21.35 -8.7 -21.1 -8.65 M-16.6 -0.35 Q-16.4 -0.25 -15.8 0.1 L-15.95 0.25 Q-16.1 0.3 -16.3 0.3 -16.8 0.3 -17.1 0.0 -17.2 -0.1 -17.35 -0.35 L-17.35 -0.55 Q-17.0 -0.55 -16.6 -0.35 M-2.95 2.9 Q-3.3 3.0 -3.55 3.0 -4.0 3.0 -4.45 2.85 L-4.45 2.9 Q-4.5 2.9 -4.5 2.75 -4.5 2.4 -3.55 2.5 -2.75 2.6 -2.5 2.75 L-2.95 2.9 M-7.6 2.1 L-7.9 2.15 -8.4 2.0 -8.45 1.75 Q-8.25 1.75 -8.05 1.85 -7.7 2.0 -7.3 2.05 L-7.6 2.1 M-12.2 1.55 Q-12.45 1.55 -12.8 1.35 -13.1 1.15 -13.15 1.05 -12.85 0.8 -12.3 0.9 -11.85 1.0 -11.4 1.25 -11.6 1.4 -11.75 1.45 L-12.2 1.55" fill="#bfdcff" fill-opacity="0.7529412" fill-rule="evenodd" stroke="none"/>
    <path d="M19.45 -1.7 Q19.85 -1.85 20.05 -1.85 L19.6 -1.5 19.15 -1.2 19.1 -1.2 Q19.05 -1.2 19.05 -1.35 19.05 -1.55 19.45 -1.7 M22.15 -2.8 Q22.45 -3.0 22.4 -2.95 L22.65 -2.8 22.75 -2.6 Q22.6 -2.45 22.1 -2.4 22.05 -2.35 22.0 -2.35 21.85 -2.35 21.85 -2.55 21.85 -2.6 22.15 -2.8 M28.8 -14.95 L28.8 -14.45 28.85 -14.4 28.6 -14.4 Q28.25 -14.4 28.2 -14.6 L28.2 -14.9 Q28.2 -15.15 28.3 -15.35 28.4 -15.6 28.55 -15.65 L28.75 -15.3 Q28.8 -15.15 28.8 -14.95 M28.0 -11.1 Q28.1 -11.25 28.3 -11.4 L28.4 -11.15 28.45 -10.9 Q28.45 -10.7 28.35 -10.6 L28.3 -10.35 28.15 -10.35 28.05 -10.55 Q28.0 -10.7 28.0 -10.9 28.0 -11.05 28.0 -11.1 M27.35 -7.55 L27.35 -7.35 Q27.35 -7.3 27.15 -6.9 26.9 -6.5 26.85 -6.45 L26.75 -6.45 27.0 -7.05 Q27.15 -7.55 27.25 -7.6 27.3 -7.55 27.35 -7.55 M24.95 -4.0 L24.8 -4.0 Q24.8 -4.05 24.8 -4.2 24.8 -4.5 24.8 -4.4 L24.95 -4.4 25.2 -4.35 Q25.05 -4.05 24.95 -4.0 M16.0 0.9 L15.75 1.05 Q15.1 1.05 15.05 1.0 15.35 0.8 15.75 0.75 L16.2 0.75 16.0 0.9 M6.25 2.7 Q6.05 2.9 5.75 3.05 L5.65 2.95 Q5.75 2.85 5.95 2.75 6.15 2.7 6.25 2.7 M10.35 2.05 Q10.3 2.0 10.3 1.85 L10.6 1.8 11.1 1.8 Q11.05 1.95 11.0 2.0 10.9 2.05 10.5 2.15 10.35 2.1 10.35 2.05 M-26.85 -16.2 Q-26.8 -16.2 -26.8 -16.0 L-26.8 -15.85 -26.85 -15.9 -26.9 -15.85 Q-26.95 -15.8 -27.0 -15.8 L-27.05 -15.85 -27.1 -16.0 -27.05 -16.15 -26.85 -16.15 -26.85 -16.2 M-27.4 -9.5 Q-27.2 -8.7 -27.2 -8.5 L-27.2 -8.2 Q-27.25 -8.05 -27.35 -7.95 L-27.55 -7.95 Q-27.55 -8.4 -27.7 -9.35 L-27.9 -10.35 Q-27.9 -10.55 -27.85 -10.5 L-27.8 -10.45 Q-27.65 -10.35 -27.4 -9.5 M-23.7 -3.2 L-23.7 -3.25 Q-23.5 -3.3 -23.1 -3.1 -22.7 -2.95 -22.6 -2.75 L-22.6 -2.65 -22.65 -2.6 Q-22.7 -2.6 -22.95 -2.6 -23.15 -2.6 -23.45 -2.85 -23.7 -3.1 -23.7 -3.2 M-16.9 -0.2 L-16.6 -0.15 Q-16.4 -0.05 -16.4 0.05 L-16.5 0.05 -17.0 0.1 Q-17.05 0.05 -17.05 -0.2 L-16.9 -0.2 M-3.05 3.0 L-3.15 3.05 -3.5 3.05 Q-3.75 3.05 -3.85 2.95 -3.95 2.85 -3.95 2.75 -3.75 2.7 -3.05 2.95 L-3.05 3.0 M-7.5 1.9 Q-7.6 2.1 -7.7 2.2 L-8.1 2.2 Q-8.15 2.25 -8.15 2.05 -8.15 1.85 -8.05 1.8 L-7.95 1.75 Q-7.6 1.8 -7.5 1.9 M-11.85 1.35 L-11.85 1.45 Q-11.85 1.5 -12.05 1.5 -12.55 1.5 -12.8 1.35 L-13.15 1.1 -12.35 1.15 Q-12.05 1.2 -11.85 1.35" fill="#ffffff" fill-rule="evenodd" stroke="none"/>
  </g>
</svg>
