<?xml version="1.0" encoding="UTF-8" standalone="no"?>
<svg xmlns:ffdec="https://www.free-decompiler.com/flash" xmlns:xlink="http://www.w3.org/1999/xlink" ffdec:objectType="shape" height="8.45px" width="6.8px" xmlns="http://www.w3.org/2000/svg">
  <g transform="matrix(1.0, 0.0, 0.0, 1.0, 0.6, 8.5)">
    <path d="M2.55 -7.8 L2.95 -8.3 2.95 -8.35 Q2.95 -8.5 3.1 -8.5 L3.2 -8.5 3.25 -8.45 3.3 -8.5 Q3.55 -8.4 3.7 -8.0 L4.0 -7.2 3.95 -7.1 Q3.95 -6.9 4.55 -6.35 4.9 -6.0 5.2 -5.85 L5.25 -5.85 Q6.2 -5.0 6.2 -4.15 6.2 -3.55 5.8 -3.05 5.55 -2.75 4.95 -2.2 4.25 -1.6 4.0 -1.25 3.7 -0.9 3.5 -0.55 L3.4 -0.3 Q3.2 -0.05 2.85 -0.05 L2.8 -0.05 Q1.45 -0.1 1.0 -1.2 0.85 -1.55 0.75 -2.05 L0.7 -2.65 Q0.55 -3.6 -0.05 -4.2 -0.35 -4.45 -0.4 -4.6 -0.6 -4.9 -0.6 -5.35 -0.6 -5.75 -0.35 -6.05 L-0.35 -6.15 -0.3 -6.15 -0.3 -6.2 -0.35 -6.15 -0.3 -6.25 -0.25 -6.3 -0.1 -6.35 -0.1 -6.4 0.25 -6.6 Q0.6 -6.75 1.35 -7.0 1.8 -7.2 2.25 -7.55 L2.55 -7.8 M3.15 -8.3 Q3.1 -8.0 2.7 -7.6 2.3 -7.2 1.9 -6.95 2.05 -6.7 2.2 -6.35 2.4 -5.9 2.4 -5.1 L2.4 -5.0 Q3.0 -5.1 3.65 -4.75 L4.1 -4.45 4.0 -4.7 Q3.65 -5.45 3.3 -5.75 3.8 -5.65 4.1 -4.75 L4.25 -4.45 Q4.35 -4.7 4.75 -4.95 5.1 -5.25 5.45 -5.25 L5.0 -5.7 4.35 -6.2 Q4.25 -6.3 4.2 -6.4 3.95 -6.4 3.65 -7.35 3.35 -8.3 3.3 -8.3 L3.15 -8.3 M3.6 -4.45 Q3.0 -4.95 2.4 -4.9 2.3 -4.25 1.95 -3.45 1.55 -2.5 1.55 -1.85 1.55 -0.85 2.25 -0.55 L2.95 -0.3 3.15 -0.45 3.25 -0.55 Q3.35 -0.9 3.65 -1.25 3.9 -1.6 4.55 -2.2 5.25 -2.85 5.5 -3.15 5.95 -3.65 5.95 -4.15 5.95 -4.55 5.65 -5.0 L5.6 -5.0 Q5.05 -5.0 4.75 -4.7 L4.6 -4.55 4.55 -4.45 4.45 -4.3 Q4.35 -4.15 4.35 -4.0 L4.35 -3.15 4.1 -2.65 4.05 -2.65 4.25 -3.15 4.25 -3.85 3.6 -4.45 M1.65 -6.85 L1.35 -6.75 1.5 -6.45 Q1.6 -6.1 1.6 -5.5 1.6 -4.95 1.35 -4.35 L0.8 -3.25 Q0.9 -2.95 0.95 -2.6 L1.0 -1.95 Q1.05 -1.55 1.2 -1.3 1.35 -1.05 1.55 -0.9 L1.55 -0.95 Q1.45 -1.2 1.35 -1.4 1.35 -2.55 1.8 -3.5 2.1 -4.15 2.2 -4.9 L2.15 -4.95 2.2 -4.95 2.2 -5.55 Q2.2 -5.8 1.9 -6.45 L1.65 -6.85 M0.9 -6.55 Q0.35 -6.4 0.05 -6.2 -0.35 -5.75 -0.35 -5.35 -0.35 -4.75 0.25 -4.15 0.55 -3.8 0.7 -3.45 L1.05 -4.15 Q1.4 -4.9 1.4 -5.5 1.4 -5.95 1.3 -6.35 L1.15 -6.65 0.9 -6.55" fill="#101010" fill-rule="evenodd" stroke="none"/>
    <path d="M3.15 -8.3 L3.3 -8.3 Q3.35 -8.3 3.65 -7.35 3.95 -6.4 4.2 -6.4 4.25 -6.3 4.35 -6.2 L5.0 -5.7 5.45 -5.25 Q5.1 -5.25 4.75 -4.95 4.35 -4.7 4.25 -4.45 L4.1 -4.75 Q3.8 -5.65 3.3 -5.75 3.65 -5.45 4.0 -4.7 L4.1 -4.45 3.65 -4.75 Q3.0 -5.1 2.4 -5.0 L2.4 -5.1 Q2.4 -5.9 2.2 -6.35 2.05 -6.7 1.9 -6.95 2.3 -7.2 2.7 -7.6 3.1 -8.0 3.15 -8.3 M0.9 -6.55 L1.15 -6.65 1.3 -6.35 Q1.4 -5.95 1.4 -5.5 1.4 -4.9 1.05 -4.15 L0.7 -3.45 Q0.55 -3.8 0.25 -4.15 -0.35 -4.75 -0.35 -5.35 -0.35 -5.75 0.05 -6.2 0.35 -6.4 0.9 -6.55" fill="#eeb884" fill-rule="evenodd" stroke="none"/>
    <path d="M3.6 -4.45 L4.25 -3.85 4.25 -3.15 4.05 -2.65 4.1 -2.65 4.35 -3.15 4.35 -4.0 Q4.35 -4.15 4.45 -4.3 L4.55 -4.45 4.6 -4.55 4.75 -4.7 Q5.05 -5.0 5.6 -5.0 L5.65 -5.0 Q5.95 -4.55 5.95 -4.15 5.95 -3.65 5.5 -3.15 5.25 -2.85 4.55 -2.2 3.9 -1.6 3.65 -1.25 3.35 -0.9 3.25 -0.55 L3.15 -0.45 2.95 -0.3 2.25 -0.55 Q1.55 -0.85 1.55 -1.85 1.55 -2.5 1.95 -3.45 2.3 -4.25 2.4 -4.9 3.0 -4.95 3.6 -4.45" fill="#ffffff" fill-rule="evenodd" stroke="none"/>
    <path d="M1.65 -6.85 L1.9 -6.45 Q2.2 -5.8 2.2 -5.55 L2.2 -4.95 2.15 -4.95 2.2 -4.9 Q2.1 -4.15 1.8 -3.5 1.35 -2.55 1.35 -1.4 1.45 -1.2 1.55 -0.95 L1.55 -0.9 Q1.35 -1.05 1.2 -1.3 1.05 -1.55 1.0 -1.95 L0.95 -2.6 Q0.9 -2.95 0.8 -3.25 L1.35 -4.35 Q1.6 -4.95 1.6 -5.5 1.6 -6.1 1.5 -6.45 L1.35 -6.75 1.65 -6.85" fill="#601731" fill-rule="evenodd" stroke="none"/>
  </g>
</svg>
