<?xml version="1.0" encoding="UTF-8" standalone="no"?>
<svg xmlns:ffdec="https://www.free-decompiler.com/flash" xmlns:xlink="http://www.w3.org/1999/xlink" ffdec:objectType="shape" height="12.2px" width="68.8px" xmlns="http://www.w3.org/2000/svg">
  <g transform="matrix(1.0, 0.0, 0.0, 1.0, 33.75, 9.35)">
    <path d="M22.4 -0.4 L23.3 -0.5 Q23.1 -0.45 22.95 -0.35 L22.75 -0.15 Q22.5 0.0 21.7 0.05 L21.6 0.05 Q21.55 0.05 21.55 -0.1 21.55 -0.3 22.4 -0.4 M34.05 -7.7 L34.2 -7.7 34.25 -8.05 34.2 -8.3 34.15 -8.0 Q34.05 -7.85 34.05 -7.7 M34.45 -7.5 Q34.45 -7.3 34.2 -7.05 33.85 -6.7 33.45 -6.7 L33.1 -6.7 33.05 -6.75 Q33.0 -6.8 33.0 -6.95 33.0 -7.2 33.35 -8.05 33.75 -9.0 34.05 -9.35 34.45 -8.65 34.45 -7.5 M24.0 -0.55 Q23.85 -0.55 23.85 -0.65 23.85 -0.8 24.45 -1.1 25.05 -1.5 25.55 -1.55 L25.0 -1.05 Q24.6 -0.7 24.1 -0.6 24.05 -0.55 24.0 -0.55 M23.75 -0.55 Q23.7 -0.5 23.3 -0.55 L23.35 -0.6 23.4 -0.6 23.75 -0.55 M13.25 1.8 Q12.45 2.1 12.35 2.15 L12.2 2.2 Q12.1 2.2 12.1 2.05 12.1 1.8 12.8 1.6 13.5 1.4 14.05 1.4 14.0 1.55 13.25 1.8 M9.45 2.6 Q8.45 2.85 7.8 2.85 L7.05 2.8 Q7.0 2.8 6.75 2.55 L7.5 2.35 Q8.1 2.15 8.55 2.05 9.95 1.75 10.55 2.25 10.3 2.4 9.45 2.6 M-32.35 -7.45 Q-32.1 -7.15 -31.5 -6.4 -30.9 -5.55 -30.9 -5.5 L-30.9 -5.3 -31.0 -5.25 -31.25 -5.2 Q-31.9 -5.5 -32.55 -6.3 -33.15 -7.05 -33.15 -7.4 -33.15 -7.45 -33.45 -7.75 -33.75 -8.05 -33.75 -8.1 -33.75 -8.4 -33.55 -8.6 -33.3 -8.8 -32.85 -8.45 -32.8 -8.4 -32.65 -8.0 -32.55 -7.65 -32.35 -7.45 M-25.2 -1.75 L-25.25 -1.65 -25.3 -1.7 -25.6 -1.7 -25.7 -1.8 -25.55 -1.9 Q-25.45 -1.95 -25.2 -1.8 L-25.2 -1.75 M-22.45 -0.15 Q-22.15 -0.15 -22.0 0.1 -22.1 0.25 -22.2 0.3 -22.45 0.25 -22.6 0.15 -22.8 0.05 -22.75 -0.1 L-22.45 -0.15 M-14.2 1.55 L-14.6 1.55 Q-14.9 1.55 -15.85 1.35 -16.75 1.15 -16.85 1.1 -16.05 1.1 -15.5 1.2 L-14.1 1.5 -14.2 1.55" fill="#59a5ff" fill-opacity="0.5019608" fill-rule="evenodd" stroke="none"/>
    <path d="M34.2 -7.6 Q34.15 -7.65 34.15 -7.85 34.15 -8.1 34.55 -8.25 L34.75 -8.05 Q34.8 -8.0 34.8 -7.85 34.8 -7.5 34.4 -7.4 34.25 -7.55 34.2 -7.6 M-32.35 -6.5 L-32.35 -6.4 -32.6 -6.4 Q-32.85 -6.4 -32.9 -6.5 -32.95 -6.55 -32.95 -6.75 L-32.95 -6.95 -32.85 -7.05 -32.7 -7.05 -32.5 -6.8 Q-32.4 -6.6 -32.35 -6.5" fill="#8cc1ff" fill-opacity="0.7529412" fill-rule="evenodd" stroke="none"/>
    <path d="M34.4 -7.6 Q34.3 -7.65 34.3 -7.8 34.3 -7.95 34.4 -8.05 34.45 -8.1 34.6 -8.1 34.8 -8.0 34.85 -7.9 34.9 -7.8 34.9 -7.65 L34.8 -7.6 Q34.7 -7.55 34.6 -7.55 L34.4 -7.6 M-32.6 -6.7 L-32.7 -6.6 -33.0 -6.6 Q-33.05 -6.65 -33.1 -6.75 L-33.1 -7.0 Q-32.85 -7.0 -32.55 -6.7 L-32.6 -6.7" fill="#bfdcff" fill-opacity="0.7529412" fill-rule="evenodd" stroke="none"/>
    <path d="M34.6 -7.8 Q34.7 -7.9 34.9 -7.9 35.05 -7.9 35.05 -7.85 L34.9 -7.8 34.7 -7.75 34.6 -7.8 M-32.95 -6.5 L-33.3 -6.5 -33.3 -6.45 Q-33.35 -6.45 -33.35 -6.6 -33.35 -6.75 -33.2 -6.75 L-32.85 -6.7 Q-32.85 -6.6 -32.95 -6.5" fill="#ffffff" fill-rule="evenodd" stroke="none"/>
  </g>
</svg>
