<?xml version="1.0" encoding="UTF-8" standalone="no"?>
<svg xmlns:ffdec="https://www.free-decompiler.com/flash" xmlns:xlink="http://www.w3.org/1999/xlink" ffdec:objectType="shape" height="10.8px" width="68.5px" xmlns="http://www.w3.org/2000/svg">
  <g transform="matrix(1.0, 0.0, 0.0, 1.0, 33.55, 7.8)">
    <path d="M22.45 -0.2 Q22.65 -0.15 22.9 -0.05 L22.75 0.1 Q22.7 0.15 22.5 0.15 L22.2 0.1 22.25 0.1 Q22.15 0.05 22.15 -0.2 L22.45 -0.2 M34.35 -6.8 Q34.3 -6.85 34.3 -7.0 34.3 -7.1 34.45 -7.4 34.65 -7.7 34.65 -7.8 L34.8 -7.8 Q34.95 -7.4 34.95 -7.05 L34.8 -6.95 34.45 -6.75 34.35 -6.8 M25.6 -1.0 L25.55 -0.85 25.35 -0.8 25.05 -0.8 Q25.1 -0.95 25.25 -1.05 25.4 -1.1 25.55 -1.1 L25.6 -1.0 M13.45 1.65 L13.75 1.65 Q13.75 1.7 13.9 1.75 L14.1 1.8 Q13.95 1.9 13.75 1.95 L13.45 1.9 Q13.3 1.9 13.3 1.75 13.3 1.6 13.35 1.6 L13.45 1.65 M9.2 2.6 L9.55 2.75 Q9.45 2.8 9.0 2.9 L8.5 3.0 8.15 2.95 8.05 2.85 Q8.1 2.7 8.35 2.65 8.55 2.6 8.8 2.6 L9.2 2.6 M-32.7 -6.4 Q-32.3 -6.15 -32.3 -5.95 -32.3 -5.85 -32.45 -5.7 -32.6 -5.6 -32.75 -5.6 -33.15 -5.65 -33.25 -5.9 -33.35 -6.1 -33.05 -6.3 -33.3 -6.5 -33.55 -6.8 L-33.3 -6.8 -32.7 -6.4 M-13.95 1.2 Q-13.95 1.25 -13.7 1.45 L-15.2 1.75 Q-15.35 1.7 -16.0 1.5 -16.25 1.45 -16.95 1.1 -15.8 1.45 -15.4 1.35 L-15.05 1.2 Q-14.85 1.15 -14.55 1.15 L-14.2 1.15 -13.95 1.2 M-22.1 0.15 Q-22.15 0.2 -22.35 0.25 L-22.7 0.35 -22.75 0.4 Q-22.85 0.4 -22.85 0.3 -22.85 0.15 -22.7 0.1 L-22.4 0.05 Q-22.2 0.1 -22.1 0.15" fill="#59a5ff" fill-opacity="0.5019608" fill-rule="evenodd" stroke="none"/>
  </g>
</svg>
