<?xml version="1.0" encoding="UTF-8" standalone="no"?>
<svg xmlns:ffdec="https://www.free-decompiler.com/flash" xmlns:xlink="http://www.w3.org/1999/xlink" ffdec:objectType="shape" height="6.05px" width="5.95px" xmlns="http://www.w3.org/2000/svg">
  <g transform="matrix(1.0, 0.0, 0.0, 1.0, 0.2, 6.55)">
    <path d="M5.15 -4.95 L5.6 -4.35 5.7 -4.15 5.7 -4.1 5.75 -3.8 Q5.75 -3.45 5.15 -2.5 4.8 -1.9 4.45 -1.65 3.35 -0.5 1.8 -0.5 0.55 -0.5 0.05 -0.95 -0.2 -1.25 -0.2 -1.65 -0.2 -1.95 -0.15 -2.3 -0.05 -2.7 -0.05 -2.8 -0.05 -3.5 0.1 -4.35 L0.2 -4.9 0.2 -5.2 Q0.2 -5.25 0.2 -5.3 0.2 -5.45 0.3 -5.5 0.0 -5.7 0.0 -5.9 0.0 -6.1 0.4 -6.3 0.9 -6.55 1.8 -6.55 3.45 -6.55 4.45 -5.75 4.95 -5.35 5.1 -5.0 L5.1 -5.05 5.15 -5.0 5.15 -4.95 M4.4 -4.5 Q4.7 -4.7 4.7 -4.9 4.7 -5.3 4.05 -5.65 3.45 -5.95 2.55 -6.15 L1.05 -6.25 Q0.35 -6.2 0.35 -5.9 0.35 -5.7 1.65 -5.05 3.0 -4.35 3.7 -4.35 4.05 -4.35 4.4 -4.5 M5.1 -4.5 L5.05 -4.55 5.05 -4.6 5.0 -4.65 Q4.8 -4.6 4.4 -4.45 3.8 -4.15 3.55 -4.15 2.9 -4.15 2.15 -4.5 1.8 -4.7 1.5 -4.95 L1.1 -5.1 0.85 -5.25 0.65 -5.35 0.6 -5.35 0.55 -5.15 Q0.5 -5.15 0.5 -5.05 0.5 -5.0 0.6 -4.85 L0.5 -4.4 0.35 -3.65 0.25 -2.8 0.25 -2.7 0.2 -2.0 Q0.05 -1.65 0.2 -1.35 0.5 -0.85 1.85 -0.85 2.9 -0.85 3.6 -1.35 L4.35 -2.15 4.65 -2.45 5.1 -2.95 5.15 -3.0 Q5.3 -3.3 5.4 -3.6 L5.4 -3.8 Q5.4 -4.05 5.1 -4.5 M0.95 -4.7 L1.05 -4.55 1.0 -4.65 0.95 -4.65 0.95 -4.7" fill="#111111" fill-rule="evenodd" stroke="none"/>
    <path d="M5.1 -4.5 Q5.4 -4.05 5.4 -3.8 L5.4 -3.6 5.15 -3.35 5.1 -3.35 4.85 -3.25 4.2 -3.2 3.65 -3.25 2.8 -3.15 Q2.0 -3.15 1.6 -3.7 1.35 -4.0 1.2 -4.75 L1.2 -4.8 1.25 -4.95 1.7 -4.55 Q2.6 -3.75 3.5 -3.75 4.15 -3.75 4.7 -4.15 L5.1 -4.5" fill="#80c0f0" fill-rule="evenodd" stroke="none"/>
    <path d="M5.4 -3.6 Q5.3 -3.3 5.15 -3.0 L5.1 -2.95 4.65 -2.45 4.35 -2.15 3.6 -1.35 Q2.9 -0.85 1.85 -0.85 0.5 -0.85 0.2 -1.35 0.05 -1.65 0.2 -2.0 L0.25 -2.7 0.25 -2.8 0.35 -3.65 0.5 -4.4 0.6 -4.85 Q0.5 -5.0 0.5 -5.05 0.5 -5.15 0.55 -5.15 L0.6 -5.35 0.65 -5.35 0.85 -5.25 1.1 -5.1 1.5 -4.95 Q1.8 -4.7 2.15 -4.5 2.9 -4.15 3.55 -4.15 3.8 -4.15 4.4 -4.45 4.8 -4.6 5.0 -4.65 L5.05 -4.6 5.05 -4.55 5.1 -4.5 4.7 -4.15 Q4.15 -3.75 3.5 -3.75 2.6 -3.75 1.7 -4.55 L1.25 -4.95 1.2 -4.8 1.2 -4.75 Q1.35 -4.0 1.6 -3.7 2.0 -3.15 2.8 -3.15 L3.65 -3.25 4.2 -3.2 4.85 -3.25 5.1 -3.35 5.15 -3.35 5.4 -3.6 M0.95 -4.7 L0.95 -4.65 1.0 -4.65 1.05 -4.55 0.95 -4.7" fill="#0070e0" fill-rule="evenodd" stroke="none"/>
    <path d="M4.4 -4.5 Q4.05 -4.35 3.7 -4.35 3.0 -4.35 1.65 -5.05 0.35 -5.7 0.35 -5.9 0.35 -6.2 1.05 -6.25 L2.55 -6.15 Q3.45 -5.95 4.05 -5.65 4.7 -5.3 4.7 -4.9 4.7 -4.7 4.4 -4.5" fill="#600000" fill-rule="evenodd" stroke="none"/>
  </g>
</svg>
