<?xml version="1.0" encoding="UTF-8" standalone="no"?>
<svg xmlns:ffdec="https://www.free-decompiler.com/flash" xmlns:xlink="http://www.w3.org/1999/xlink" ffdec:objectType="shape" height="7.75px" width="7.95px" xmlns="http://www.w3.org/2000/svg">
  <g transform="matrix(1.0, 0.0, 0.0, 1.0, 1.55, 6.55)">
    <path d="M3.45 -2.0 L4.05 -1.95 4.7 -2.0 4.9 -2.0 4.9 -2.35 Q4.9 -2.95 4.65 -4.0 4.35 -5.0 4.05 -5.5 4.3 -5.35 4.7 -4.2 5.05 -3.15 5.05 -2.85 5.05 -2.25 4.95 -2.0 L5.4 -2.05 6.0 -2.25 6.1 -2.25 6.1 -2.3 6.25 -2.3 6.3 -2.35 6.3 -2.45 6.25 -2.6 6.0 -3.65 6.0 -3.7 Q5.5 -4.55 5.35 -4.85 L5.2 -5.15 4.95 -5.6 4.9 -5.65 4.9 -5.7 4.85 -5.7 4.85 -5.75 4.8 -5.75 4.8 -5.8 4.75 -5.8 4.75 -5.85 4.7 -5.85 Q4.35 -6.2 3.65 -6.45 L3.6 -6.45 3.35 -6.55 Q3.65 -6.55 4.05 -6.4 L4.35 -6.25 4.6 -6.1 Q4.9 -5.9 4.95 -5.75 L5.3 -5.15 5.55 -4.75 5.6 -4.7 5.9 -4.2 6.05 -4.0 Q6.15 -3.8 6.3 -3.3 L6.4 -2.6 6.4 -2.2 Q6.3 -2.15 6.2 -2.05 L6.15 -2.05 6.05 -1.95 Q5.95 -1.8 5.95 -1.55 L5.85 -1.2 5.75 -0.6 5.7 -0.5 5.35 0.4 Q5.25 0.65 5.2 0.85 4.75 1.1 3.8 1.2 L3.25 1.2 3.2 1.2 2.75 1.15 2.65 1.15 2.5 1.1 Q1.5 0.95 0.7 0.35 0.15 0.0 -0.15 -0.35 L-0.65 -1.05 -0.7 -1.4 -0.85 -1.9 Q-1.1 -2.7 -1.1 -2.95 L-1.1 -3.15 -1.0 -3.3 -1.0 -3.35 -1.3 -3.55 -1.5 -3.75 -1.55 -3.75 -1.55 -3.8 Q-1.55 -3.9 -1.45 -3.9 L-1.4 -3.95 -1.3 -4.1 Q-1.1 -4.4 -1.1 -4.65 L-1.15 -5.1 Q-1.15 -5.3 -0.3 -5.85 0.35 -6.3 0.6 -6.4 L0.55 -6.3 0.85 -6.4 -0.2 -5.75 Q-0.85 -5.35 -0.9 -5.05 L-0.95 -4.75 -0.95 -4.4 Q-1.0 -4.15 -1.1 -3.95 L-1.05 -4.0 -0.95 -4.05 -0.95 -4.0 -0.9 -4.05 Q-0.5 -3.95 -0.15 -3.7 0.15 -3.45 0.6 -3.0 L1.1 -2.7 1.15 -2.65 1.6 -2.4 2.05 -2.2 Q2.7 -2.05 3.45 -2.0 M0.85 0.2 Q1.25 0.5 1.7 0.65 L2.05 0.8 2.2 0.85 2.8 0.95 3.15 1.0 3.5 1.0 Q4.4 1.0 4.95 0.75 L5.2 0.4 Q5.45 -0.15 5.55 -0.6 L5.75 -1.3 Q5.8 -1.65 5.8 -1.95 L5.35 -1.85 4.7 -1.75 4.2 -1.7 2.85 -1.85 2.35 -1.95 2.25 -1.95 2.15 -2.0 Q1.9 -2.05 1.65 -2.2 1.5 -2.25 1.3 -2.35 L1.2 -2.45 Q0.8 -2.6 0.45 -2.9 L-0.1 -3.3 -0.45 -3.6 -0.55 -3.7 -0.65 -3.5 -0.75 -3.35 -0.8 -3.25 -0.85 -3.05 -0.8 -2.8 -0.65 -2.1 Q-0.45 -1.4 -0.3 -1.05 -0.1 -0.45 0.75 0.15 L0.85 0.2 M5.6 -1.65 L5.6 -1.65 M-1.2 -3.7 L-1.05 -3.6 -0.95 -3.55 -0.95 -3.5 -0.9 -3.45 -0.85 -3.65 -0.7 -3.8 -1.0 -3.9 Q-1.15 -3.85 -1.2 -3.8 L-1.25 -3.8 -1.3 -3.75 -1.2 -3.7" fill="#000000" fill-rule="evenodd" stroke="none"/>
    <path d="M3.2 1.2 L3.25 1.2 3.2 1.2 M5.7 -0.5 L5.75 -0.6 5.75 -0.55 5.7 -0.5 M4.6 -6.1 L4.35 -6.25 4.05 -6.4 4.1 -6.35 Q4.4 -6.25 4.6 -6.1" fill="#cccccc" fill-rule="evenodd" stroke="none"/>
    <path d="M-1.2 -3.7 L-1.3 -3.75 -1.25 -3.8 -1.2 -3.8 Q-1.15 -3.85 -1.0 -3.9 L-0.7 -3.8 -0.85 -3.65 -0.9 -3.45 -0.95 -3.5 -0.95 -3.55 -1.05 -3.6 -1.2 -3.7" fill="#999999" fill-rule="evenodd" stroke="none"/>
    <path d="M3.6 -6.45 Q3.55 -6.35 3.55 -6.25 3.55 -6.2 3.85 -5.2 4.1 -4.2 4.1 -4.1 4.1 -3.45 3.75 -2.8 L3.4 -2.1 Q3.4 -2.05 3.45 -2.0 2.7 -2.05 2.05 -2.2 L1.6 -2.4 1.65 -2.4 Q2.0 -2.4 2.1 -2.65 2.15 -2.8 2.15 -3.0 L2.15 -3.6 2.1 -5.15 Q1.9 -5.7 1.6 -5.4 1.4 -5.2 1.25 -4.8 L1.15 -4.65 1.05 -4.55 0.85 -4.3 0.8 -4.25 Q0.5 -4.0 0.45 -3.85 L0.45 -3.8 0.95 -2.8 1.0 -2.8 1.1 -2.7 0.6 -3.0 Q0.15 -3.45 -0.15 -3.7 -0.5 -3.95 -0.9 -4.05 L-0.95 -4.0 -0.95 -4.05 -1.05 -4.0 -1.1 -3.95 Q-1.0 -4.15 -0.95 -4.4 L-0.95 -4.75 -0.9 -5.05 Q-0.85 -5.35 -0.2 -5.75 L0.85 -6.4 0.55 -6.3 Q1.2 -6.55 2.05 -6.55 2.8 -6.6 3.35 -6.55 L3.6 -6.45 M-0.1 -3.3 Q-0.4 -3.3 -0.4 -2.85 -0.4 -2.75 -0.15 -2.05 L0.2 -1.05 Q0.5 -0.25 0.85 0.2 L0.75 0.15 Q-0.1 -0.45 -0.3 -1.05 -0.45 -1.4 -0.65 -2.1 L-0.8 -2.8 -0.85 -3.05 -0.8 -3.25 -0.75 -3.35 -0.65 -3.5 -0.55 -3.7 -0.45 -3.6 -0.1 -3.3" fill="#464e59" fill-rule="evenodd" stroke="none"/>
    <path d="M3.6 -6.45 L3.65 -6.45 Q4.35 -6.2 4.7 -5.85 L4.75 -5.85 4.75 -5.8 4.8 -5.8 4.8 -5.75 4.85 -5.75 4.85 -5.7 4.9 -5.7 4.9 -5.65 4.95 -5.6 5.2 -5.15 5.35 -4.85 Q5.5 -4.55 6.0 -3.7 L6.0 -3.65 6.25 -2.6 6.3 -2.45 6.3 -2.35 6.25 -2.3 6.1 -2.3 6.1 -2.25 6.0 -2.25 5.4 -2.05 4.95 -2.0 Q5.05 -2.25 5.05 -2.85 5.05 -3.15 4.7 -4.2 4.3 -5.35 4.05 -5.5 4.35 -5.0 4.65 -4.0 4.9 -2.95 4.9 -2.35 L4.9 -2.0 4.7 -2.0 4.05 -1.95 3.45 -2.0 Q3.4 -2.05 3.4 -2.1 L3.75 -2.8 Q4.1 -3.45 4.1 -4.1 4.1 -4.2 3.85 -5.2 3.55 -6.2 3.55 -6.25 3.55 -6.35 3.6 -6.45 M1.6 -2.4 L1.15 -2.65 1.1 -2.7 1.0 -2.8 0.95 -2.8 0.45 -3.8 0.45 -3.85 Q0.5 -4.0 0.8 -4.25 L0.85 -4.3 1.05 -4.55 1.15 -4.65 1.25 -4.8 Q1.4 -5.2 1.6 -5.4 1.9 -5.7 2.1 -5.15 L2.15 -3.6 2.15 -3.0 Q2.15 -2.8 2.1 -2.65 2.0 -2.4 1.65 -2.4 L1.6 -2.4 M-0.1 -3.3 L0.45 -2.9 Q0.8 -2.6 1.2 -2.45 L1.3 -2.35 Q1.5 -2.25 1.65 -2.2 1.9 -2.05 2.15 -2.0 L2.25 -1.95 2.35 -1.95 2.85 -1.85 4.2 -1.7 4.7 -1.75 5.35 -1.85 5.8 -1.95 Q5.8 -1.65 5.75 -1.3 L5.55 -0.6 Q5.45 -0.15 5.2 0.4 L4.95 0.75 Q4.4 1.0 3.5 1.0 L3.15 1.0 2.8 0.95 2.2 0.85 2.05 0.8 1.7 0.65 Q1.25 0.5 0.85 0.2 0.5 -0.25 0.2 -1.05 L-0.15 -2.05 Q-0.4 -2.75 -0.4 -2.85 -0.4 -3.3 -0.1 -3.3 M5.6 -1.65 L5.6 -1.65" fill="#3a4749" fill-rule="evenodd" stroke="none"/>
  </g>
</svg>
