<?xml version="1.0" encoding="UTF-8" standalone="no"?>
<svg xmlns:ffdec="https://www.free-decompiler.com/flash" xmlns:xlink="http://www.w3.org/1999/xlink" ffdec:objectType="shape" height="7.6px" width="12.6px" xmlns="http://www.w3.org/2000/svg">
  <g transform="matrix(1.0, 0.0, 0.0, 1.0, 6.3, 8.1)">
    <path d="M5.1 -7.5 Q4.8 -7.65 4.2 -7.65 L0.55 -7.15 -2.55 -6.7 -2.95 -6.65 -3.5 -6.6 Q-4.85 -6.55 -5.45 -5.95 -5.85 -5.55 -5.85 -5.0 -5.85 -4.8 -5.65 -4.5 L-5.4 -4.05 -3.65 -2.8 Q-1.9 -1.6 -1.1 -1.2 -0.75 -1.05 -0.6 -1.05 L-0.35 -1.1 Q0.15 -1.2 1.35 -1.75 2.9 -2.4 3.5 -2.85 L5.3 -4.05 Q5.85 -4.5 5.85 -5.4 5.85 -6.05 5.55 -6.55 5.25 -7.1 5.25 -7.3 L5.25 -7.4 5.1 -7.5 M-0.4 -0.65 Q-1.25 -0.65 -3.55 -2.2 -5.1 -3.3 -5.85 -4.0 -6.15 -4.05 -6.25 -4.3 L-6.25 -4.75 Q-6.3 -5.3 -6.2 -5.75 -5.95 -6.7 -5.15 -6.75 -3.4 -6.95 0.25 -7.55 3.4 -8.1 4.45 -8.1 5.0 -8.1 5.35 -7.9 5.65 -7.75 5.65 -7.55 5.65 -7.35 5.65 -7.4 L5.65 -7.35 5.55 -7.35 5.75 -7.0 Q6.3 -6.0 6.3 -5.05 6.3 -4.35 5.4 -3.65 4.75 -3.05 3.7 -2.6 L1.9 -1.45 Q0.8 -0.8 0.0 -0.7 L-0.4 -0.65" fill="#111111" fill-rule="evenodd" stroke="none"/>
    <path d="M0.0 -0.7 L0.05 -0.6 0.0 -0.5 -0.1 -0.5 -0.4 -0.65 0.0 -0.7" fill="#666666" fill-rule="evenodd" stroke="none"/>
    <path d="M5.1 -7.5 L5.25 -7.4 5.25 -7.3 Q5.25 -7.1 5.55 -6.55 5.85 -6.05 5.85 -5.4 5.85 -4.5 5.3 -4.05 L3.5 -2.85 Q2.9 -2.4 1.35 -1.75 0.15 -1.2 -0.35 -1.1 L-0.6 -1.05 Q-0.75 -1.05 -1.1 -1.2 -1.9 -1.6 -3.65 -2.8 L-5.4 -4.05 -5.65 -4.5 Q-5.85 -4.8 -5.85 -5.0 -5.85 -5.55 -5.45 -5.95 -4.85 -6.55 -3.5 -6.6 L-2.95 -6.65 -2.55 -6.7 0.55 -7.15 4.2 -7.65 Q4.8 -7.65 5.1 -7.5" fill="#262024" fill-rule="evenodd" stroke="none"/>
  </g>
</svg>
