<?xml version="1.0" encoding="UTF-8" standalone="no"?>
<svg xmlns:ffdec="https://www.free-decompiler.com/flash" xmlns:xlink="http://www.w3.org/1999/xlink" ffdec:objectType="shape" height="7.95px" width="6.2px" xmlns="http://www.w3.org/2000/svg">
  <g transform="matrix(1.0, 0.0, 0.0, 1.0, 0.2, 7.8)">
    <path d="M1.7 -7.65 L1.7 -7.6 1.8 -7.65 1.85 -7.7 3.5 -7.8 4.05 -7.7 4.2 -7.65 4.25 -7.7 4.3 -7.7 4.3 -7.65 4.4 -7.4 4.45 -7.15 4.85 -6.55 5.1 -6.2 5.35 -5.9 Q5.8 -5.25 5.95 -4.7 L5.95 -4.6 6.0 -4.25 Q6.0 -4.1 5.95 -3.9 L5.95 -3.85 Q5.8 -3.1 5.2 -2.2 4.85 -1.7 4.45 -1.2 4.1 -0.7 3.9 -0.5 L3.7 -0.3 3.65 -0.2 3.6 -0.2 3.65 -0.25 Q3.15 0.15 2.3 0.15 1.05 0.15 0.45 -0.5 0.2 -0.75 0.15 -1.0 L0.1 -1.05 0.1 -0.95 0.05 -1.0 0.1 -1.1 0.05 -1.15 0.5 -1.9 0.85 -2.4 Q0.85 -2.55 0.55 -2.9 L0.5 -2.9 0.35 -3.25 0.15 -3.7 0.05 -4.0 -0.05 -4.15 Q-0.2 -4.85 -0.2 -5.15 -0.2 -5.55 -0.05 -5.85 L-0.1 -5.85 Q0.0 -6.0 0.15 -6.2 L0.4 -6.45 0.55 -6.55 0.65 -6.65 1.1 -7.0 1.4 -7.4 1.6 -7.55 1.7 -7.65 M1.75 -7.45 L1.6 -7.3 Q1.4 -7.05 0.95 -6.65 L0.8 -6.5 Q1.1 -6.5 1.4 -6.3 1.85 -5.75 2.05 -5.55 L2.2 -5.45 Q2.6 -4.95 3.3 -4.25 L3.35 -4.25 3.45 -4.45 3.4 -4.45 3.5 -4.6 3.9 -5.4 3.8 -5.45 Q3.5 -5.6 2.9 -6.3 L1.8 -7.45 1.75 -7.45 M3.95 -6.9 L3.95 -6.95 4.05 -7.2 4.0 -7.4 4.0 -7.45 3.85 -7.55 3.5 -7.65 2.2 -7.6 1.9 -7.55 2.35 -7.1 2.6 -6.8 2.75 -6.6 2.85 -6.5 3.4 -6.0 3.6 -5.9 3.65 -6.1 3.7 -6.45 Q3.7 -6.55 3.75 -6.65 L3.9 -6.8 3.95 -6.9 M4.15 -7.4 Q4.15 -7.35 4.25 -7.15 L4.3 -6.9 4.2 -6.1 4.1 -5.5 4.1 -5.45 Q4.05 -5.25 3.8 -4.8 3.65 -4.45 3.5 -4.25 L4.35 -4.45 4.95 -4.45 5.1 -4.65 Q5.25 -4.9 5.25 -5.0 L5.15 -5.75 4.95 -6.0 4.45 -6.75 4.4 -7.0 Q4.25 -7.25 4.25 -7.45 L4.15 -7.45 4.15 -7.4 M4.2 -6.45 L4.2 -6.5 Q4.2 -6.8 4.1 -7.05 L4.1 -7.1 4.05 -7.0 4.0 -6.85 4.05 -6.85 Q3.95 -6.75 3.9 -6.6 L3.8 -6.25 3.65 -5.85 3.95 -5.55 Q4.2 -6.15 4.2 -6.45 M5.15 -4.45 L5.4 -4.45 5.8 -4.4 Q5.75 -4.75 5.4 -5.3 L5.4 -5.15 Q5.4 -4.95 5.3 -4.75 5.25 -4.55 5.15 -4.45 M5.75 -3.95 L5.8 -4.25 5.4 -4.3 4.35 -4.25 Q3.15 -4.1 2.25 -3.85 L1.85 -3.7 1.75 -3.7 1.45 -3.6 1.25 -3.5 1.1 -3.45 0.85 -3.35 0.65 -3.3 Q1.0 -2.65 1.1 -2.4 L1.15 -2.3 1.05 -2.15 0.9 -1.95 0.6 -1.6 0.45 -1.25 0.4 -1.05 Q0.6 -0.5 1.2 -0.25 1.5 -0.15 1.85 -0.15 L2.25 -0.1 2.6 -0.1 Q2.7 -0.2 2.95 -0.25 L3.25 -0.25 3.5 -0.5 3.55 -0.5 3.55 -0.55 Q3.75 -0.7 4.1 -1.15 L4.3 -1.35 4.4 -1.5 4.9 -2.1 Q5.1 -2.45 5.3 -2.75 5.45 -3.05 5.5 -3.3 L5.6 -3.4 5.6 -3.45 5.7 -3.65 5.7 -3.7 5.75 -3.9 5.75 -3.95 M1.7 -3.85 L3.1 -4.2 Q2.95 -4.3 2.65 -4.7 L2.1 -5.45 Q1.7 -5.95 1.45 -6.1 1.1 -6.4 0.65 -6.4 L0.5 -6.3 0.45 -6.2 0.3 -6.05 0.2 -5.9 0.15 -5.9 0.15 -5.85 Q0.05 -5.55 0.0 -5.45 L0.0 -5.15 Q0.0 -4.9 0.15 -4.25 0.3 -3.9 0.55 -3.45 L1.0 -3.6 1.7 -3.85 M0.1 -3.2 L0.15 -3.15 0.1 -3.15 0.1 -3.2" fill="#111111" fill-rule="evenodd" stroke="none"/>
    <path d="M5.15 -4.45 Q5.25 -4.55 5.3 -4.75 5.4 -4.95 5.4 -5.15 L5.4 -5.3 Q5.75 -4.75 5.8 -4.4 L5.4 -4.45 5.15 -4.45 M0.3 -6.05 L0.45 -6.2 0.5 -6.3 0.65 -6.4 Q1.1 -6.4 1.45 -6.1 1.7 -5.95 2.1 -5.45 L2.65 -4.7 Q2.95 -4.3 3.1 -4.2 L1.7 -3.85 1.7 -3.9 Q1.3 -4.5 1.1 -4.95 L0.7 -5.75 0.65 -5.8 0.4 -6.1 0.3 -6.05" fill="#80c0f0" fill-rule="evenodd" stroke="none"/>
    <path d="M1.75 -7.45 L1.8 -7.45 2.9 -6.3 Q3.5 -5.6 3.8 -5.45 L3.9 -5.4 3.5 -4.6 3.4 -4.45 3.45 -4.45 3.35 -4.25 3.3 -4.25 Q2.6 -4.95 2.2 -5.45 L2.05 -5.55 Q1.85 -5.75 1.4 -6.3 1.1 -6.5 0.8 -6.5 L0.95 -6.65 Q1.4 -7.05 1.6 -7.3 L1.75 -7.45 M4.15 -7.4 L4.15 -7.45 4.25 -7.45 Q4.25 -7.25 4.4 -7.0 L4.45 -6.75 4.95 -6.0 5.15 -5.75 5.25 -5.0 Q5.25 -4.9 5.1 -4.65 L4.95 -4.45 4.35 -4.45 3.5 -4.25 Q3.65 -4.45 3.8 -4.8 4.05 -5.25 4.1 -5.45 L4.1 -5.5 4.2 -6.1 4.3 -6.9 4.25 -7.15 Q4.15 -7.35 4.15 -7.4 M1.75 -3.7 L1.85 -3.7 2.25 -3.85 Q3.15 -4.1 4.35 -4.25 L5.4 -4.3 5.8 -4.25 5.75 -3.95 5.5 -3.7 Q4.75 -3.15 3.25 -3.15 2.3 -3.15 1.75 -3.7 M1.85 -0.15 Q1.5 -0.15 1.2 -0.25 0.6 -0.5 0.4 -1.05 L0.45 -1.25 0.6 -1.6 0.9 -1.95 1.05 -2.15 Q1.6 -1.55 1.75 -1.25 L1.95 -0.4 1.9 -0.35 1.85 -0.15" fill="#b00000" fill-rule="evenodd" stroke="none"/>
    <path d="M0.3 -6.05 L0.4 -6.1 0.65 -5.8 0.7 -5.75 1.1 -4.95 Q1.3 -4.5 1.7 -3.9 L1.7 -3.85 1.0 -3.6 0.55 -3.45 Q0.3 -3.9 0.15 -4.25 0.0 -4.9 0.0 -5.15 L0.0 -5.45 Q0.05 -5.55 0.15 -5.85 L0.15 -5.9 0.2 -5.9 0.3 -6.05" fill="#0070e0" fill-rule="evenodd" stroke="none"/>
    <path d="M1.75 -3.7 Q2.3 -3.15 3.25 -3.15 4.75 -3.15 5.5 -3.7 L5.75 -3.95 5.75 -3.9 5.7 -3.7 5.7 -3.65 5.6 -3.45 5.6 -3.4 5.5 -3.3 Q5.45 -3.05 5.3 -2.75 5.1 -2.45 4.9 -2.1 L4.4 -1.5 4.3 -1.35 4.1 -1.15 Q3.75 -0.7 3.55 -0.55 L3.55 -0.5 3.5 -0.5 3.25 -0.25 2.95 -0.25 Q2.7 -0.2 2.6 -0.1 L2.25 -0.1 1.85 -0.15 1.9 -0.35 1.95 -0.4 1.75 -1.25 Q1.6 -1.55 1.05 -2.15 L1.15 -2.3 1.1 -2.4 Q1.0 -2.65 0.65 -3.3 L0.85 -3.35 1.1 -3.45 1.25 -3.5 1.45 -3.6 1.75 -3.7" fill="#600000" fill-rule="evenodd" stroke="none"/>
    <path d="M2.85 -6.5 L2.95 -6.4 3.55 -6.65 Q3.65 -6.65 3.9 -6.85 L3.95 -6.9 3.9 -6.8 3.75 -6.65 Q3.7 -6.55 3.7 -6.45 L3.65 -6.1 3.6 -5.9 3.4 -6.0 2.85 -6.5 M3.9 -6.6 Q4.05 -6.5 4.2 -6.45 4.2 -6.15 3.95 -5.55 L3.65 -5.85 3.8 -6.25 3.9 -6.6" fill="#9c9581" fill-rule="evenodd" stroke="none"/>
    <path d="M2.85 -6.5 L2.75 -6.6 2.6 -6.8 2.35 -7.1 1.9 -7.55 2.2 -7.6 3.5 -7.65 3.85 -7.55 4.0 -7.45 4.0 -7.4 4.05 -7.2 3.95 -6.95 3.95 -6.9 3.9 -6.85 Q3.65 -6.65 3.55 -6.65 L2.95 -6.4 2.85 -6.5 M3.9 -6.6 Q3.95 -6.75 4.05 -6.85 L4.0 -6.85 4.05 -7.0 4.1 -7.1 4.1 -7.05 Q4.2 -6.8 4.2 -6.5 L4.2 -6.45 Q4.05 -6.5 3.9 -6.6" fill="#666154" fill-rule="evenodd" stroke="none"/>
  </g>
</svg>
