<?xml version="1.0" encoding="UTF-8" standalone="no"?>
<svg xmlns:ffdec="https://www.free-decompiler.com/flash" xmlns:xlink="http://www.w3.org/1999/xlink" ffdec:objectType="shape" height="11.65px" width="10.2px" xmlns="http://www.w3.org/2000/svg">
  <g transform="matrix(1.0, 0.0, 0.0, 1.0, 4.15, 11.5)">
    <path d="M-3.1 -0.5 L-2.15 -0.45 -1.55 -0.45 -0.2 -0.6 -0.1 -0.65 0.8 -0.85 0.8 -0.8 0.85 -0.75 1.2 -0.85 1.9 -1.0 1.9 -1.05 Q1.95 -1.15 2.2 -1.2 L2.6 -1.25 3.05 -1.5 2.85 -1.3 5.3 -1.4 5.4 -2.2 Q5.45 -2.75 5.55 -3.05 L5.7 -3.9 Q5.75 -4.15 5.85 -4.4 L5.7 -4.2 Q5.8 -4.45 5.9 -4.45 L5.95 -4.6 6.0 -4.65 6.05 -4.65 6.05 -4.55 Q5.85 -3.3 5.85 -3.0 5.85 -2.8 5.75 -2.45 5.7 -2.1 5.7 -1.9 5.7 -1.2 5.6 -0.75 L5.35 -0.75 Q3.85 -0.4 1.75 -0.1 -0.3 0.15 -1.15 0.15 -2.75 0.15 -3.35 -0.05 -3.7 -0.2 -3.7 -0.35 -3.7 -0.45 -3.65 -0.45 L-3.65 -0.5 -3.5 -0.7 Q-3.35 -0.9 -3.35 -1.1 L-3.35 -1.7 Q-3.35 -2.65 -3.75 -3.8 -4.15 -5.0 -4.15 -6.2 -4.15 -8.35 -3.2 -10.1 L-3.1 -10.3 Q-2.8 -10.85 -2.55 -11.15 L-2.45 -11.3 -2.35 -11.35 -2.3 -11.4 Q-2.3 -11.5 -2.25 -11.4 -2.15 -11.5 -2.1 -11.5 L-2.05 -11.45 -1.9 -11.5 -2.05 -11.3 -2.15 -11.15 -2.2 -11.1 Q-2.75 -10.05 -3.1 -9.1 L-3.25 -8.6 Q-3.6 -7.3 -3.6 -5.9 L-3.6 -5.3 Q-3.5 -4.75 -3.25 -4.05 L-3.0 -2.95 Q-2.85 -2.35 -2.8 -1.95 L-2.8 -1.65 Q-2.85 -1.4 -3.05 -1.0 -3.2 -0.65 -3.35 -0.5 L-3.1 -0.5" fill="#111111" fill-rule="evenodd" stroke="none"/>
    <path d="M-3.1 -0.5 Q-1.95 -1.35 -1.25 -2.5 -0.7 -3.3 -0.25 -4.7 -0.1 -5.2 0.25 -6.65 0.7 -8.4 0.7 -9.0 L0.65 -9.25 Q0.55 -9.4 0.55 -9.5 L0.6 -9.5 Q0.7 -9.55 0.7 -9.7 L0.75 -9.7 1.15 -9.35 1.9 -8.8 2.65 -8.2 4.7 -6.15 Q5.65 -5.15 5.95 -4.6 L5.9 -4.45 Q5.8 -4.45 5.7 -4.2 L5.85 -4.4 Q5.75 -4.15 5.7 -3.9 L5.55 -3.05 Q5.45 -2.75 5.4 -2.2 L5.3 -1.4 2.85 -1.3 3.05 -1.5 2.6 -1.25 2.2 -1.2 Q1.95 -1.15 1.9 -1.05 L1.9 -1.0 1.2 -0.85 0.85 -0.75 0.8 -0.8 0.8 -0.85 -0.1 -0.65 -0.2 -0.6 -1.55 -0.45 -2.15 -0.45 -3.1 -0.5 M-3.0 -2.95 L-2.8 -3.1 -2.35 -3.6 Q-2.05 -3.9 -1.9 -4.15 L-1.45 -4.8 Q-1.15 -5.2 -1.15 -4.7 -1.15 -4.2 -2.15 -2.65 L-2.8 -1.65 -2.8 -1.95 Q-2.85 -2.35 -3.0 -2.95 M0.55 -6.1 L0.5 -5.7 0.5 -5.95 0.55 -6.1 M0.65 -6.65 Q0.6 -6.55 0.6 -6.4 0.7 -6.5 0.65 -6.65" fill="#262024" fill-rule="evenodd" stroke="none"/>
    <path d="M0.75 -9.7 L0.7 -9.7 Q0.7 -9.55 0.6 -9.5 L0.55 -9.5 Q0.55 -9.4 0.65 -9.25 L0.7 -9.0 Q0.7 -8.4 0.25 -6.65 -0.1 -5.2 -0.25 -4.7 -0.7 -3.3 -1.25 -2.5 -1.95 -1.35 -3.1 -0.5 L-3.35 -0.5 Q-3.2 -0.65 -3.05 -1.0 -2.85 -1.4 -2.8 -1.65 L-2.15 -2.65 Q-1.15 -4.2 -1.15 -4.7 -1.15 -5.2 -1.45 -4.8 L-1.9 -4.15 Q-2.05 -3.9 -2.35 -3.6 L-2.8 -3.1 -3.0 -2.95 -3.25 -4.05 Q-3.5 -4.75 -3.6 -5.3 L-3.6 -5.9 Q-3.6 -7.3 -3.25 -8.6 L-3.1 -9.1 Q-2.75 -10.05 -2.2 -11.1 L-2.15 -11.15 -2.05 -11.3 -2.0 -11.3 Q-1.75 -11.3 -1.4 -11.15 L-1.35 -11.15 Q-1.15 -11.05 -0.9 -10.9 L-0.4 -10.6 0.65 -9.75 0.75 -9.7 M0.65 -6.65 Q0.7 -6.5 0.6 -6.4 0.6 -6.55 0.65 -6.65 M0.55 -6.1 L0.5 -5.95 0.5 -5.7 0.55 -6.1" fill="#40363d" fill-rule="evenodd" stroke="none"/>
  </g>
</svg>
