<?xml version="1.0" encoding="UTF-8" standalone="no"?>
<svg xmlns:ffdec="https://www.free-decompiler.com/flash" xmlns:xlink="http://www.w3.org/1999/xlink" ffdec:objectType="shape" height="10.35px" width="11.35px" xmlns="http://www.w3.org/2000/svg">
  <g transform="matrix(1.0, 0.0, 0.0, 1.0, 5.8, 10.45)">
    <path d="M-4.15 -7.95 L-4.1 -7.85 -3.85 -7.55 -3.55 -7.2 Q-2.95 -6.45 -2.05 -5.85 L-0.05 -4.5 Q0.65 -4.1 0.9 -4.0 1.45 -3.8 2.4 -3.8 L2.45 -3.75 2.4 -3.6 1.6 -3.5 Q0.55 -3.5 -0.55 -4.1 -1.15 -4.4 -2.05 -5.0 -2.85 -5.5 -3.5 -6.05 L-4.5 -6.9 -4.5 -7.0 Q-4.45 -7.4 -4.2 -7.8 L-4.15 -7.95 M-4.65 -6.25 L-4.65 -6.3 -4.6 -6.35 -3.3 -5.1 Q-2.45 -4.3 -1.8 -3.8 -0.5 -2.8 0.7 -2.2 1.9 -1.55 2.6 -1.55 L2.9 -1.55 3.55 -1.8 Q4.35 -2.05 4.95 -2.15 L4.95 -2.3 Q4.95 -2.9 4.4 -4.2 L4.35 -4.1 4.35 -4.0 4.3 -3.85 4.2 -3.65 4.05 -3.3 3.65 -2.85 Q3.4 -2.5 3.25 -2.35 2.9 -2.1 2.45 -2.1 2.1 -2.1 1.55 -2.35 1.3 -2.5 1.05 -2.65 0.9 -2.7 0.8 -2.85 L0.65 -3.1 0.65 -3.15 0.7 -3.15 Q0.95 -2.95 1.15 -2.85 L1.5 -2.75 2.25 -2.7 Q2.7 -2.7 3.0 -3.3 3.15 -3.6 3.2 -3.95 L3.35 -4.25 3.45 -4.6 3.5 -5.35 Q3.5 -5.55 3.3 -6.35 L3.15 -6.6 3.3 -6.45 Q3.65 -6.05 3.95 -5.55 L4.05 -5.3 4.5 -4.25 4.95 -3.4 5.05 -3.25 5.05 -3.15 5.15 -2.45 Q5.1 -2.3 4.95 -2.15 4.85 -2.1 4.7 -1.95 4.3 -1.75 3.55 -1.55 2.3 -1.1 1.4 -1.05 L1.35 -1.1 1.05 -1.05 0.9 -1.05 0.85 -1.1 0.8 -1.1 Q0.6 -1.15 0.4 -1.25 -0.1 -1.5 -2.1 -2.8 -2.9 -3.35 -3.65 -4.05 -4.3 -4.7 -4.7 -5.35 L-4.7 -5.45 -4.75 -5.6 -4.8 -5.7 -4.8 -5.8 -4.75 -5.9 -4.7 -6.2 -4.65 -6.25 M3.05 -6.75 Q3.0 -6.3 2.75 -5.45 L2.45 -4.8 Q2.4 -4.65 2.05 -4.55 L1.65 -4.45 1.1 -4.5 1.0 -4.6 1.0 -4.65 1.1 -4.7 1.3 -4.7 Q1.35 -4.7 1.35 -4.8 L1.7 -4.8 Q2.05 -5.15 2.15 -5.95 2.2 -6.4 2.2 -7.05 2.2 -7.2 1.9 -8.4 1.9 -8.45 1.6 -8.8 L1.25 -9.25 1.3 -9.3 1.35 -9.4 1.55 -9.0 1.8 -8.55 1.95 -8.35 Q2.45 -7.5 3.05 -6.75 M2.05 -8.7 L2.1 -8.65 2.05 -8.7 M5.5 -2.1 L5.5 -2.05 5.55 -1.95 Q5.55 -1.9 4.75 -1.6 L4.8 -1.65 5.25 -1.85 Q5.4 -1.95 5.5 -2.1 M1.2 -0.6 L1.1 -0.6 1.15 -0.65 1.2 -0.6 M-4.65 -3.95 L-4.6 -3.8 Q-4.6 -3.55 -4.15 -2.75 L-3.6 -1.9 Q-3.4 -1.45 -2.35 -0.85 L-2.2 -0.75 Q-2.85 -0.85 -3.2 -1.1 L-3.6 -1.3 Q-3.95 -1.5 -4.15 -1.55 -4.25 -1.55 -4.45 -1.7 L-4.8 -1.95 -5.4 -2.2 -5.2 -2.95 Q-5.0 -3.65 -5.0 -3.9 -5.0 -4.3 -4.9 -4.9 L-4.8 -4.6 Q-4.7 -4.1 -4.7 -3.95 L-4.65 -3.75 -4.65 -3.95 M0.1 -1.05 L0.5 -0.85 0.35 -0.8 Q-0.2 -0.6 -0.55 -0.6 -1.15 -0.6 -2.25 -1.25 -3.65 -2.05 -3.9 -3.15 -3.95 -3.4 -4.15 -3.85 L-4.45 -4.5 -4.45 -4.55 -3.9 -3.9 Q-3.55 -3.45 -3.15 -3.15 -2.85 -2.65 -2.45 -2.25 L-2.25 -1.95 -1.8 -1.6 Q-1.35 -1.4 -1.1 -1.35 -0.35 -1.1 0.1 -1.05 M2.95 -2.6 L2.85 -2.55 2.95 -2.55 2.95 -2.6" fill="#262024" fill-rule="evenodd" stroke="none"/>
    <path d="M-4.15 -7.95 Q-3.95 -8.3 -3.7 -8.55 -2.55 -9.55 -1.95 -9.85 -0.7 -10.55 0.9 -10.45 1.05 -10.3 1.4 -9.75 1.7 -9.35 1.75 -9.15 L1.3 -9.9 1.25 -9.9 1.2 -9.85 1.25 -9.8 1.2 -9.75 1.35 -9.4 1.3 -9.3 1.25 -9.25 1.6 -8.8 Q1.9 -8.45 1.9 -8.4 2.2 -7.2 2.2 -7.05 2.2 -6.4 2.15 -5.95 2.05 -5.15 1.7 -4.8 L1.35 -4.8 Q1.35 -4.7 1.3 -4.7 L1.1 -4.7 1.0 -4.65 1.0 -4.6 1.1 -4.5 1.65 -4.45 2.05 -4.55 Q2.4 -4.65 2.45 -4.8 L2.75 -5.45 Q3.0 -6.3 3.05 -6.75 L3.15 -6.6 3.3 -6.35 Q3.5 -5.55 3.5 -5.35 L3.45 -4.6 3.35 -4.25 3.2 -3.95 Q3.15 -3.6 3.0 -3.3 2.7 -2.7 2.25 -2.7 L1.5 -2.75 1.15 -2.85 Q0.95 -2.95 0.7 -3.15 L0.65 -3.15 0.65 -3.1 0.8 -2.85 Q0.9 -2.7 1.05 -2.65 1.3 -2.5 1.55 -2.35 2.1 -2.1 2.45 -2.1 2.9 -2.1 3.25 -2.35 3.4 -2.5 3.65 -2.85 L4.05 -3.3 4.2 -3.65 4.3 -3.85 4.35 -4.0 4.35 -4.1 4.4 -4.2 Q4.95 -2.9 4.95 -2.3 L4.95 -2.15 Q4.35 -2.05 3.55 -1.8 L2.9 -1.55 2.6 -1.55 Q1.9 -1.55 0.7 -2.2 -0.5 -2.8 -1.8 -3.8 -2.45 -4.3 -3.3 -5.1 L-4.6 -6.35 -4.65 -6.3 -4.65 -6.25 -4.5 -6.9 -3.5 -6.05 Q-2.85 -5.5 -2.05 -5.0 -1.15 -4.4 -0.55 -4.1 0.55 -3.5 1.6 -3.5 L2.4 -3.6 2.45 -3.75 2.4 -3.8 Q1.45 -3.8 0.9 -4.0 0.65 -4.1 -0.05 -4.5 L-2.05 -5.85 Q-2.95 -6.45 -3.55 -7.2 L-3.85 -7.55 -4.1 -7.85 -4.15 -7.95 M0.1 -1.05 Q-0.35 -1.1 -1.1 -1.35 -1.35 -1.4 -1.8 -1.6 L-2.25 -1.95 -2.45 -2.25 Q-2.85 -2.65 -3.15 -3.15 -2.7 -2.75 -2.2 -2.5 -1.3 -1.85 -0.55 -1.4 -0.2 -1.2 0.1 -1.05 M2.95 -2.6 L2.95 -2.55 2.85 -2.55 2.95 -2.6" fill="#40363d" fill-rule="evenodd" stroke="none"/>
    <path d="M3.15 -6.6 L3.05 -6.75 Q2.45 -7.5 1.95 -8.35 L1.8 -8.55 1.55 -9.0 1.35 -9.4 1.2 -9.75 1.25 -9.8 1.2 -9.85 1.25 -9.9 1.3 -9.9 1.75 -9.15 2.05 -8.7 2.1 -8.65 2.45 -8.1 2.75 -7.75 3.35 -7.0 3.85 -6.45 4.05 -6.15 4.1 -6.05 Q4.9 -4.65 5.15 -4.15 5.4 -3.55 5.5 -3.05 L5.55 -2.75 5.55 -2.45 Q5.55 -2.25 5.5 -2.1 5.4 -1.95 5.25 -1.85 L4.8 -1.65 4.75 -1.6 Q4.5 -1.5 4.2 -1.35 L3.2 -0.95 Q2.5 -0.65 2.2 -0.6 L1.95 -0.5 1.2 -0.6 1.15 -0.65 1.1 -0.6 0.5 -0.4 Q0.0 -0.3 -0.5 -0.2 L-0.8 -0.25 Q-1.4 -0.35 -2.2 -0.75 L-2.35 -0.85 Q-3.4 -1.45 -3.6 -1.9 L-4.15 -2.75 Q-4.6 -3.55 -4.6 -3.8 L-4.65 -3.95 -4.6 -4.25 -4.65 -4.6 -4.65 -5.05 -4.7 -5.35 Q-4.3 -4.7 -3.65 -4.05 -2.9 -3.35 -2.1 -2.8 -0.1 -1.5 0.4 -1.25 0.6 -1.15 0.8 -1.1 L0.85 -1.1 0.9 -1.05 1.05 -1.05 1.35 -1.1 1.4 -1.05 Q2.3 -1.1 3.55 -1.55 4.3 -1.75 4.7 -1.95 4.85 -2.1 4.95 -2.15 5.1 -2.3 5.15 -2.45 L5.05 -3.15 5.05 -3.25 4.95 -3.4 4.5 -4.25 4.05 -5.3 3.95 -5.55 Q3.65 -6.05 3.3 -6.45 L3.15 -6.6 M-3.15 -3.15 Q-3.55 -3.45 -3.9 -3.9 L-4.45 -4.55 -4.45 -4.5 -4.15 -3.85 Q-3.95 -3.4 -3.9 -3.15 -3.65 -2.05 -2.25 -1.25 -1.15 -0.6 -0.55 -0.6 -0.2 -0.6 0.35 -0.8 L0.5 -0.85 0.1 -1.05 Q-0.2 -1.2 -0.55 -1.4 -1.3 -1.85 -2.2 -2.5 -2.7 -2.75 -3.15 -3.15" fill="#111111" fill-rule="evenodd" stroke="none"/>
    <path d="M-0.8 -0.25 L-0.95 -0.2 -1.45 -0.1 Q-2.1 -0.1 -3.05 -0.5 -3.65 -0.8 -3.95 -1.0 L-4.25 -1.2 Q-4.5 -1.2 -5.1 -1.55 L-5.75 -1.95 -5.8 -2.0 -5.5 -3.15 Q-5.25 -4.05 -5.25 -4.45 L-5.1 -5.45 Q-5.1 -5.8 -4.95 -5.9 -4.8 -6.0 -4.75 -5.9 L-4.8 -5.8 -4.8 -5.7 -4.75 -5.6 -4.7 -5.45 -4.7 -5.35 -4.65 -5.05 -4.65 -4.6 -4.6 -4.25 -4.65 -3.95 -4.65 -3.75 -4.7 -3.95 Q-4.7 -4.1 -4.8 -4.6 L-4.9 -4.9 Q-5.0 -4.3 -5.0 -3.9 -5.0 -3.65 -5.2 -2.95 L-5.4 -2.2 -4.8 -1.95 -4.45 -1.7 Q-4.25 -1.55 -4.15 -1.55 -3.95 -1.5 -3.6 -1.3 L-3.2 -1.1 Q-2.85 -0.85 -2.2 -0.75 -1.4 -0.35 -0.8 -0.25" fill="#000000" fill-rule="evenodd" stroke="none"/>
  </g>
</svg>
