<?xml version="1.0" encoding="UTF-8" standalone="no"?>
<svg xmlns:ffdec="https://www.free-decompiler.com/flash" xmlns:xlink="http://www.w3.org/1999/xlink" ffdec:objectType="shape" height="10.05px" width="8.25px" xmlns="http://www.w3.org/2000/svg">
  <g transform="matrix(1.0, 0.0, 0.0, 1.0, 3.9, 10.45)">
    <path d="M4.15 -2.25 L4.2 -2.1 4.35 -1.8 4.3 -1.7 Q3.6 -0.75 2.8 -0.45 L2.55 -0.45 2.05 -0.4 Q1.8 -0.4 1.45 -0.6 L1.45 -0.7 Q1.3 -0.8 0.9 -1.35 L0.6 -1.7 Q0.2 -2.15 -0.75 -3.45 L-2.4 -5.45 -2.9 -6.0 Q-3.15 -6.25 -3.4 -6.6 -3.85 -7.2 -3.85 -7.45 L-3.85 -7.6 -3.9 -7.7 -3.9 -7.85 Q-3.85 -8.6 -3.5 -9.15 -3.05 -9.9 -2.3 -10.2 -2.0 -10.35 -1.8 -10.35 L-1.25 -10.45 Q-0.75 -10.45 -0.1 -9.8 0.3 -9.4 0.55 -9.05 1.55 -7.4 1.55 -7.25 L1.7 -7.0 Q1.85 -6.8 1.85 -6.65 L2.3 -5.9 2.75 -5.1 3.2 -4.25 Q3.7 -3.35 4.0 -2.55 L4.1 -2.2 4.15 -2.25 M1.75 -6.25 Q0.7 -7.9 0.05 -8.75 -1.0 -10.15 -1.55 -10.05 L-1.65 -10.05 -1.75 -9.95 Q-1.9 -9.9 -2.0 -9.9 L-2.25 -9.7 -2.6 -9.4 -2.85 -9.2 -3.05 -8.95 -3.15 -8.85 Q-3.35 -8.5 -3.45 -8.2 L-3.45 -8.15 Q-3.45 -7.55 -3.15 -7.0 -2.9 -6.55 -2.45 -6.1 L-2.3 -5.95 -0.95 -4.35 Q-0.25 -3.55 0.4 -2.55 L0.5 -2.35 0.55 -2.35 1.1 -1.6 1.2 -1.45 1.45 -1.2 Q1.85 -0.9 2.3 -0.85 L2.85 -0.95 2.9 -0.95 2.95 -1.05 Q3.0 -1.15 3.15 -1.15 L3.8 -1.85 3.85 -1.9 Q3.75 -2.05 3.6 -2.35 L3.5 -2.8 3.2 -3.55 2.2 -5.45 1.75 -6.25" fill="#111111" fill-rule="evenodd" stroke="none"/>
    <path d="M4.0 -2.55 L4.15 -2.25 4.1 -2.2 4.0 -2.55 M1.75 -6.25 L2.2 -5.45 3.2 -3.55 3.5 -2.8 3.6 -2.35 Q3.75 -2.05 3.85 -1.9 L3.8 -1.85 3.15 -1.15 Q3.0 -1.15 2.95 -1.05 L2.9 -0.95 2.85 -0.95 2.3 -0.85 Q1.85 -0.9 1.45 -1.2 L1.2 -1.45 1.1 -1.6 0.55 -2.35 0.5 -2.35 0.4 -2.55 Q-0.25 -3.55 -0.95 -4.35 L-2.3 -5.95 -2.45 -6.1 Q-2.9 -6.55 -3.15 -7.0 -3.45 -7.55 -3.45 -8.15 L-3.45 -8.2 Q-3.35 -8.5 -3.15 -8.85 L-3.05 -8.95 -2.85 -9.2 -2.6 -9.4 -2.25 -9.7 -2.0 -9.9 Q-1.9 -9.9 -1.75 -9.95 L-1.65 -10.05 -1.55 -10.05 Q-1.0 -10.15 0.05 -8.75 0.7 -7.9 1.75 -6.25" fill="#c7a36d" fill-rule="evenodd" stroke="none"/>
  </g>
</svg>
