<?xml version="1.0" encoding="UTF-8" standalone="no"?>
<svg xmlns:ffdec="https://www.free-decompiler.com/flash" xmlns:xlink="http://www.w3.org/1999/xlink" ffdec:objectType="shape" height="20.15px" width="14.35px" xmlns="http://www.w3.org/2000/svg">
  <g transform="matrix(1.0, 0.0, 0.0, 1.0, 6.6, 19.45)">
    <path d="M1.65 -19.45 L1.75 -19.4 Q3.5 -19.25 4.8 -17.7 L5.2 -17.15 Q5.5 -16.65 5.8 -16.1 6.7 -15.1 7.2 -13.8 7.75 -12.5 7.75 -11.45 7.75 -10.35 7.4 -9.2 7.05 -8.7 6.8 -8.15 6.45 -7.55 6.4 -7.15 L6.4 -7.1 6.35 -6.9 Q6.35 -6.8 6.5 -6.45 L6.65 -6.1 Q6.8 -5.45 6.8 -5.25 6.8 -3.05 1.25 -0.45 L0.8 -0.5 0.3 -0.3 Q-2.55 0.7 -3.1 0.7 -3.95 0.7 -5.1 -2.3 -5.7 -3.85 -6.05 -5.35 L-6.05 -5.5 Q-6.4 -6.15 -6.4 -6.55 L-6.5 -7.8 -6.6 -9.0 -6.6 -9.15 -6.5 -9.3 Q-5.8 -10.3 -5.5 -11.95 -5.3 -12.8 -4.5 -15.15 L-4.05 -16.45 Q-2.45 -18.75 0.3 -19.3 0.8 -19.45 1.2 -19.45 L1.65 -19.45 M0.9 -18.95 L0.45 -18.9 0.0 -18.8 Q-0.05 -18.8 -0.5 -18.6 L-0.65 -18.0 Q-0.9 -17.1 -0.9 -16.8 -0.9 -16.55 -0.75 -15.6 L-0.6 -14.8 Q1.35 -16.2 2.4 -16.8 3.65 -17.55 4.25 -17.7 3.25 -18.75 2.25 -18.75 L1.6 -18.85 0.9 -18.95 M4.45 -17.1 L3.2 -16.5 Q1.25 -15.65 -0.65 -14.4 L-0.7 -14.35 -0.75 -14.35 -1.7 -13.65 Q-3.0 -12.75 -4.2 -11.35 L-5.85 -9.3 Q-6.05 -8.7 -6.05 -8.15 -6.05 -7.8 -5.75 -6.8 L-5.45 -6.1 Q-5.3 -6.0 -5.3 -5.75 L-5.25 -5.65 -5.0 -5.05 Q-4.4 -5.85 -2.75 -7.35 -1.4 -8.55 0.3 -10.0 0.85 -10.5 1.95 -11.3 L3.7 -12.5 Q3.85 -12.65 5.15 -14.15 L5.7 -14.7 5.6 -15.1 Q5.3 -16.05 5.3 -16.15 5.05 -16.7 4.65 -17.25 L4.45 -17.1 M-3.15 -0.4 Q-2.95 -0.1 -2.8 -0.1 -2.75 -0.1 -2.55 -0.35 -2.3 -0.25 -2.05 -0.25 -0.7 -0.25 0.75 -1.1 1.05 -1.3 1.3 -1.45 L1.45 -1.55 Q2.4 -1.9 2.55 -1.9 L2.75 -1.9 Q3.45 -2.2 4.2 -2.65 5.05 -3.25 5.6 -3.9 6.1 -4.5 6.1 -5.05 L5.95 -5.75 Q5.75 -6.45 5.75 -6.6 L5.65 -6.55 5.55 -7.0 6.05 -7.9 Q6.55 -8.85 6.95 -9.85 7.25 -10.8 7.25 -11.2 L7.2 -11.65 Q7.1 -12.0 7.1 -12.15 7.1 -12.7 6.8 -13.25 6.55 -13.75 6.15 -14.05 5.75 -14.35 5.5 -14.25 5.2 -14.1 5.2 -13.55 4.5 -12.85 3.3 -11.9 L0.2 -9.55 Q-1.4 -8.15 -3.35 -5.85 -4.2 -4.85 -4.6 -4.4 L-4.6 -4.35 Q-4.85 -4.1 -4.85 -3.9 L-4.85 -3.6 Q-4.85 -3.25 -4.35 -2.05 -4.15 -1.45 -3.9 -1.1 -3.55 -0.55 -3.15 -0.4 M-3.85 -15.7 Q-3.85 -15.6 -4.0 -15.25 -4.1 -14.9 -4.1 -14.75 -4.1 -14.0 -4.05 -13.5 -3.95 -12.95 -3.75 -12.4 -2.7 -13.3 -1.7 -14.05 L-1.1 -14.45 -1.2 -15.9 -1.15 -17.65 -1.05 -18.3 -1.95 -17.7 Q-3.2 -16.7 -3.85 -15.95 L-3.85 -15.7 M-4.35 -13.45 Q-4.45 -14.1 -4.45 -14.8 -4.65 -14.05 -4.75 -12.95 -4.9 -11.85 -5.05 -11.15 L-4.05 -12.15 Q-4.25 -12.5 -4.35 -13.45" fill="#111111" fill-rule="evenodd" stroke="none"/>
    <path d="M4.45 -17.1 L4.65 -17.25 Q5.05 -16.7 5.3 -16.15 5.3 -16.05 5.6 -15.1 L5.7 -14.7 5.15 -14.15 Q3.85 -12.65 3.7 -12.5 L1.95 -11.3 Q0.85 -10.5 0.3 -10.0 -1.4 -8.55 -2.75 -7.35 -4.4 -5.85 -5.0 -5.05 L-5.25 -5.65 -5.3 -5.75 Q-5.3 -6.0 -5.45 -6.1 L-5.75 -6.8 Q-6.05 -7.8 -6.05 -8.15 -6.05 -8.7 -5.85 -9.3 L-4.2 -11.35 Q-3.0 -12.75 -1.7 -13.65 L-0.75 -14.35 -0.7 -14.35 -0.65 -14.4 Q1.25 -15.65 3.2 -16.5 L4.45 -17.1 M-3.85 -15.7 L-3.85 -15.95 Q-3.2 -16.7 -1.95 -17.7 L-1.05 -18.3 -1.15 -17.65 -1.2 -15.9 -1.1 -14.45 -1.7 -14.05 Q-2.7 -13.3 -3.75 -12.4 -3.95 -12.95 -4.05 -13.5 -4.1 -14.0 -4.1 -14.75 -4.1 -14.9 -4.0 -15.25 -3.85 -15.6 -3.85 -15.7" fill="#b74a26" fill-rule="evenodd" stroke="none"/>
    <path d="M-3.9 -1.1 Q-4.15 -1.45 -4.35 -2.05 -4.85 -3.25 -4.85 -3.6 L-4.85 -3.9 Q-4.85 -4.1 -4.6 -4.35 L-4.6 -4.4 Q-4.2 -4.85 -3.35 -5.85 -1.4 -8.15 0.2 -9.55 L3.3 -11.9 Q4.5 -12.85 5.2 -13.55 5.2 -14.1 5.5 -14.25 5.75 -14.35 6.15 -14.05 6.55 -13.75 6.8 -13.25 7.1 -12.7 7.1 -12.15 7.1 -12.0 7.2 -11.65 L7.25 -11.2 Q7.25 -10.8 6.95 -9.85 6.55 -8.85 6.05 -7.9 L5.55 -7.0 5.65 -6.55 5.75 -6.6 Q5.75 -6.45 5.95 -5.75 L6.1 -5.05 Q6.1 -4.5 5.6 -3.9 5.05 -3.25 4.2 -2.65 3.45 -2.2 2.75 -1.9 L2.55 -1.9 Q2.4 -1.9 1.45 -1.55 L1.3 -1.45 Q1.05 -1.3 0.75 -1.1 -0.7 -0.25 -2.05 -0.25 -2.3 -0.25 -2.55 -0.35 -2.75 -0.1 -2.8 -0.1 -2.95 -0.1 -3.15 -0.4 L-3.25 -0.55 Q-3.6 -0.65 -3.9 -1.1 M-4.35 -13.45 Q-4.25 -12.5 -4.05 -12.15 L-5.05 -11.15 Q-4.9 -11.85 -4.75 -12.95 -4.65 -14.05 -4.45 -14.8 -4.45 -14.1 -4.35 -13.45" fill="#43767e" fill-rule="evenodd" stroke="none"/>
    <path d="M0.9 -18.95 L1.6 -18.85 2.25 -18.75 Q3.25 -18.75 4.25 -17.7 3.65 -17.55 2.4 -16.8 1.35 -16.2 -0.6 -14.8 L-0.75 -15.6 Q-0.9 -16.55 -0.9 -16.8 -0.9 -17.1 -0.65 -18.0 L-0.5 -18.6 Q-0.05 -18.8 0.0 -18.8 L0.45 -18.9 0.9 -18.95" fill="#394044" fill-rule="evenodd" stroke="none"/>
  </g>
</svg>
