<?xml version="1.0" encoding="UTF-8" standalone="no"?>
<svg xmlns:ffdec="https://www.free-decompiler.com/flash" xmlns:xlink="http://www.w3.org/1999/xlink" ffdec:objectType="shape" height="20.0px" width="12.7px" xmlns="http://www.w3.org/2000/svg">
  <g transform="matrix(1.0, 0.0, 0.0, 1.0, 6.95, 19.1)">
    <path d="M4.15 -17.9 Q4.75 -17.6 5.2 -16.35 5.65 -15.15 5.7 -14.0 L5.7 -13.3 5.75 -13.05 Q5.75 -12.2 5.15 -10.7 4.5 -9.2 4.5 -8.45 4.5 -7.65 5.0 -6.75 L4.95 -6.75 5.3 -5.9 Q5.55 -5.15 5.55 -5.05 L5.65 -4.2 Q5.65 -3.6 5.35 -2.85 L5.3 -2.8 5.25 -2.7 4.9 -2.2 Q4.4 -1.55 3.75 -1.1 L3.55 -0.95 Q2.4 -0.05 0.3 0.5 -1.25 0.9 -2.3 0.9 L-2.55 0.85 -3.0 0.75 Q-3.45 0.6 -3.95 0.25 -4.35 0.05 -4.9 -0.65 -5.35 -1.2 -5.4 -1.6 L-5.55 -1.9 -5.55 -2.05 -5.6 -2.15 -5.65 -2.4 Q-5.75 -2.7 -5.75 -2.95 -5.75 -3.5 -5.5 -4.05 -5.4 -4.3 -4.95 -5.0 -4.7 -5.4 -4.55 -5.8 L-4.65 -6.2 Q-4.4 -6.85 -4.4 -7.5 -4.4 -8.55 -5.1 -9.45 L-5.1 -9.5 -5.4 -9.5 Q-5.8 -9.5 -5.9 -9.7 -6.25 -9.9 -6.5 -10.3 -6.95 -10.95 -6.95 -11.35 -6.95 -12.5 -5.8 -13.95 L-5.15 -14.8 -5.05 -15.1 Q-4.75 -16.0 -4.2 -16.75 -2.45 -19.1 0.95 -19.1 2.3 -19.1 3.7 -18.25 L4.15 -17.9 M2.6 -17.75 Q2.5 -17.9 2.2 -18.05 1.85 -18.25 1.6 -18.25 0.15 -18.25 -1.2 -17.9 -2.8 -17.55 -2.8 -16.95 L-2.6 -16.7 Q-2.1 -15.15 -1.5 -13.85 -0.95 -14.55 0.2 -15.65 1.7 -17.05 2.7 -17.65 L2.55 -17.7 2.6 -17.75 M-1.8 -12.5 L-1.85 -12.35 -1.85 -12.3 -1.9 -12.1 Q-2.0 -11.8 -2.0 -11.65 -2.0 -11.45 -2.1 -10.7 -2.2 -9.95 -2.2 -9.45 L-2.2 -9.2 Q-2.35 -7.85 -2.35 -6.45 L-2.25 -5.25 -2.15 -4.1 Q-2.15 -3.65 -1.95 -2.9 L-1.9 -2.6 -1.65 -1.85 -1.25 -0.85 -0.65 -0.9 Q-0.95 -1.35 -1.25 -2.45 -1.55 -3.4 -1.75 -4.4 -1.75 -4.6 -1.9 -6.5 -2.05 -8.35 -2.05 -8.9 L-2.05 -9.2 -2.0 -9.3 -2.0 -9.85 -1.95 -10.15 -1.95 -10.45 -1.8 -11.25 -1.6 -12.25 -1.1 -12.85 -0.7 -13.3 -0.2 -13.85 0.6 -14.7 0.8 -14.9 Q2.65 -16.5 3.6 -17.15 L3.5 -17.2 3.0 -17.5 Q1.65 -16.2 0.9 -15.5 L0.4 -15.0 -0.5 -14.05 Q-1.6 -12.9 -1.8 -12.5 M4.25 -16.65 L3.9 -16.9 1.85 -15.1 0.65 -14.0 0.7 -14.0 0.6 -13.95 Q-0.3 -13.15 -0.35 -12.95 L-0.5 -12.85 -0.6 -12.65 Q-0.7 -12.35 -0.75 -12.0 L-0.75 -11.65 Q-0.75 -10.85 -0.25 -10.25 L0.1 -9.9 Q0.75 -9.5 1.75 -9.45 L1.75 -9.5 2.3 -9.5 Q2.85 -9.65 3.35 -10.1 L3.4 -10.1 3.6 -10.45 Q3.9 -11.0 3.9 -11.5 L3.75 -12.15 3.75 -12.25 3.5 -12.7 3.3 -12.9 3.3 -13.0 Q3.3 -13.05 3.35 -13.05 L3.4 -13.05 Q3.2 -13.25 3.0 -13.3 L3.0 -13.45 3.1 -13.45 Q3.7 -13.45 4.15 -12.6 4.5 -11.85 4.5 -11.45 4.5 -10.7 3.9 -10.05 3.55 -9.55 3.15 -9.35 L3.05 -9.3 Q2.5 -8.9 1.7 -8.9 1.1 -8.9 0.6 -9.05 0.35 -9.1 0.15 -9.2 -0.4 -9.45 -0.8 -9.85 -1.05 -10.2 -1.25 -10.55 L-1.45 -9.35 -1.3 -5.45 -1.2 -4.8 -1.1 -4.2 Q-1.1 -3.9 -0.6 -2.4 -0.25 -1.35 -0.1 -0.95 L0.75 -1.0 1.7 -1.35 3.2 -1.9 3.4 -2.1 Q4.05 -2.6 4.5 -3.2 4.9 -3.7 4.95 -3.95 5.05 -4.25 5.0 -5.5 L5.0 -6.1 4.9 -6.25 4.9 -6.2 Q4.9 -6.1 4.35 -5.75 L4.0 -5.5 Q3.2 -4.85 2.75 -4.85 2.6 -4.85 2.4 -4.7 2.2 -4.55 1.8 -4.55 1.6 -4.55 1.45 -5.1 L1.35 -5.65 1.35 -5.7 1.3 -5.85 1.35 -5.85 1.3 -5.9 Q1.35 -6.0 1.5 -6.05 L1.85 -6.15 2.85 -6.45 Q3.0 -6.55 3.95 -7.1 L4.25 -7.25 Q3.95 -7.95 3.95 -8.65 3.95 -8.95 4.55 -11.05 4.85 -12.2 5.1 -12.8 L5.15 -14.1 Q5.15 -14.75 4.5 -16.15 L4.3 -16.6 4.25 -16.65 M1.65 -10.15 L1.6 -10.2 1.6 -10.25 1.65 -10.25 1.65 -10.15 M4.4 -6.95 L3.8 -6.65 2.95 -6.25 1.65 -5.85 1.55 -5.85 1.55 -5.8 1.6 -5.6 1.65 -5.35 1.65 -5.3 1.8 -4.85 2.05 -4.95 Q2.55 -5.35 3.5 -5.7 L4.6 -6.25 4.6 -6.3 4.55 -6.6 4.55 -6.65 4.4 -6.95 M-3.55 -16.3 Q-2.95 -14.65 -2.0 -12.9 -1.95 -13.15 -1.75 -13.45 -2.0 -13.9 -2.35 -14.6 -2.95 -16.0 -2.95 -16.65 -3.35 -16.45 -3.55 -16.3 M-2.4 -12.5 L-2.35 -12.6 Q-3.05 -13.15 -3.75 -15.9 -3.95 -15.05 -4.95 -13.85 -5.6 -13.05 -5.8 -12.7 -6.2 -12.1 -6.2 -11.6 -6.2 -11.15 -5.85 -10.75 -5.5 -10.25 -4.9 -10.25 -4.45 -10.25 -3.8 -10.55 L-3.1 -10.85 -2.9 -10.8 -2.85 -10.85 Q-2.8 -11.2 -2.55 -11.9 L-2.35 -12.45 -2.4 -12.5 M-4.4 -9.05 L-4.4 -8.8 -4.25 -8.6 Q-4.0 -8.1 -4.0 -7.45 -4.0 -6.8 -4.35 -6.0 L-4.3 -5.9 -3.85 -5.75 -3.45 -5.7 -3.4 -5.7 -3.4 -5.65 -3.35 -5.65 -3.35 -5.5 Q-3.35 -5.0 -3.4 -4.8 L-3.45 -4.75 -3.45 -4.55 Q-3.45 -4.5 -3.5 -4.5 L-3.55 -4.5 -3.55 -4.45 Q-3.6 -4.4 -3.95 -4.4 L-4.15 -4.45 -4.2 -4.5 -4.25 -4.5 -4.65 -4.65 -4.7 -4.7 -4.7 -4.8 -4.8 -4.7 Q-4.85 -4.7 -4.85 -4.55 L-4.95 -4.35 -5.35 -3.1 -5.4 -2.6 -5.35 -2.25 Q-4.9 -1.45 -4.75 -1.25 L-4.45 -0.95 -4.3 -0.9 -4.3 -0.85 -4.2 -0.85 -3.3 -0.7 -3.2 -0.7 -2.25 -0.65 -1.55 -0.7 -1.75 -0.8 Q-2.0 -1.25 -2.25 -2.05 -2.7 -3.35 -2.7 -4.3 -3.05 -5.8 -3.05 -6.5 L-2.85 -10.55 Q-2.95 -10.35 -3.3 -10.05 -3.85 -9.6 -4.65 -9.5 L-4.55 -9.25 -4.4 -9.05 M-4.25 -5.5 L-4.25 -5.6 -4.3 -5.65 -4.3 -5.55 -4.5 -5.15 -4.5 -5.0 -4.2 -4.85 -4.1 -4.85 -4.05 -4.8 -3.9 -4.75 -3.75 -4.75 -3.65 -4.8 -3.65 -5.35 Q-3.8 -5.35 -4.2 -5.5 L-4.25 -5.5 M-5.45 -1.35 L-5.45 -1.4 -5.2 -1.05 Q-5.45 -1.3 -5.45 -1.35" fill="#111111" fill-rule="evenodd" stroke="none"/>
    <path d="M-1.8 -12.5 Q-1.6 -12.9 -0.5 -14.05 L0.4 -15.0 0.9 -15.5 Q1.65 -16.2 3.0 -17.5 L3.5 -17.2 3.6 -17.15 Q2.65 -16.5 0.8 -14.9 L0.6 -14.7 -0.2 -13.85 -0.7 -13.3 -1.1 -12.85 -1.6 -12.25 -1.8 -11.25 -1.95 -10.45 -1.95 -10.15 -2.0 -9.85 -2.0 -9.3 -2.05 -9.2 -2.05 -8.9 Q-2.05 -8.35 -1.9 -6.5 -1.75 -4.6 -1.75 -4.4 -1.55 -3.4 -1.25 -2.45 -0.95 -1.35 -0.65 -0.9 L-1.25 -0.85 -1.65 -1.85 -1.9 -2.6 -1.95 -2.9 Q-2.15 -3.65 -2.15 -4.1 L-2.25 -5.25 -2.35 -6.45 Q-2.35 -7.85 -2.2 -9.2 L-2.2 -9.45 Q-2.2 -9.95 -2.1 -10.7 -2.0 -11.45 -2.0 -11.65 -2.0 -11.8 -1.9 -12.1 L-1.85 -12.3 -1.85 -12.35 -1.8 -12.5 M-3.55 -16.3 Q-3.35 -16.45 -2.95 -16.65 -2.95 -16.0 -2.35 -14.6 -2.0 -13.9 -1.75 -13.45 -1.95 -13.15 -2.0 -12.9 -2.95 -14.65 -3.55 -16.3 M4.4 -6.95 L4.55 -6.65 4.55 -6.6 4.6 -6.3 4.6 -6.25 3.5 -5.7 Q2.55 -5.35 2.05 -4.95 L1.8 -4.85 1.65 -5.3 1.65 -5.35 1.6 -5.6 1.55 -5.8 1.55 -5.85 1.65 -5.85 2.95 -6.25 3.8 -6.65 4.4 -6.95 M-4.25 -5.5 L-4.2 -5.5 Q-3.8 -5.35 -3.65 -5.35 L-3.65 -4.8 -3.75 -4.75 -3.9 -4.75 -4.05 -4.8 -4.1 -4.85 -4.2 -4.85 -4.5 -5.0 -4.5 -5.15 -4.3 -5.55 -4.3 -5.65 -4.25 -5.6 -4.25 -5.5" fill="#b00000" fill-rule="evenodd" stroke="none"/>
    <path d="M4.25 -16.65 L4.3 -16.6 4.5 -16.15 Q5.15 -14.75 5.15 -14.1 L5.1 -12.8 Q4.85 -12.2 4.55 -11.05 3.95 -8.95 3.95 -8.65 3.95 -7.95 4.25 -7.25 L3.95 -7.1 Q3.0 -6.55 2.85 -6.45 L1.85 -6.15 1.5 -6.05 Q1.35 -6.0 1.3 -5.9 L1.35 -5.85 1.3 -5.85 1.35 -5.7 1.35 -5.65 1.45 -5.1 Q1.6 -4.55 1.8 -4.55 2.2 -4.55 2.4 -4.7 2.6 -4.85 2.75 -4.85 3.2 -4.85 4.0 -5.5 L4.35 -5.75 Q4.9 -6.1 4.9 -6.2 L4.9 -6.25 5.0 -6.1 5.0 -5.5 Q5.05 -4.25 4.95 -3.95 4.9 -3.7 4.5 -3.2 4.05 -2.6 3.4 -2.1 L3.2 -1.9 1.7 -1.35 0.75 -1.0 -0.1 -0.95 Q-0.25 -1.35 -0.6 -2.4 -1.1 -3.9 -1.1 -4.2 L-1.2 -4.8 -1.3 -5.45 -1.45 -9.35 -1.25 -10.55 Q-1.05 -10.2 -0.8 -9.85 -0.4 -9.45 0.15 -9.2 0.35 -9.1 0.6 -9.05 1.1 -8.9 1.7 -8.9 2.5 -8.9 3.05 -9.3 L3.15 -9.35 Q3.55 -9.55 3.9 -10.05 4.5 -10.7 4.5 -11.45 4.5 -11.85 4.15 -12.6 3.7 -13.45 3.1 -13.45 L3.0 -13.45 3.0 -13.3 Q3.2 -13.25 3.4 -13.05 L3.35 -13.05 Q3.3 -13.05 3.3 -13.0 L3.3 -12.9 3.5 -12.7 3.75 -12.25 3.75 -12.15 3.9 -11.5 Q3.9 -11.0 3.6 -10.45 L3.4 -10.1 3.35 -10.1 Q2.85 -9.65 2.3 -9.5 L1.75 -9.5 1.75 -9.45 Q0.75 -9.5 0.1 -9.9 L-0.25 -10.25 Q-0.75 -10.85 -0.75 -11.65 L-0.75 -12.0 Q-0.7 -12.35 -0.6 -12.65 L-0.5 -12.85 -0.35 -12.95 Q-0.3 -13.15 0.6 -13.95 L0.7 -14.0 0.65 -14.0 1.85 -15.1 3.9 -16.9 4.25 -16.65 M1.65 -10.15 L1.65 -10.25 1.6 -10.25 1.6 -10.2 1.65 -10.15 M-4.4 -9.05 L-4.55 -9.25 -4.65 -9.5 Q-3.85 -9.6 -3.3 -10.05 -2.95 -10.35 -2.85 -10.55 L-3.05 -6.5 Q-3.05 -5.8 -2.7 -4.3 -2.7 -3.35 -2.25 -2.05 -2.0 -1.25 -1.75 -0.8 L-1.55 -0.7 -2.25 -0.65 -3.2 -0.7 -3.3 -0.7 -4.2 -0.85 -4.3 -0.85 -4.3 -0.9 -4.45 -0.95 -4.75 -1.25 Q-4.9 -1.45 -5.35 -2.25 L-5.4 -2.6 -5.35 -3.1 -4.95 -4.35 -4.85 -4.55 Q-4.85 -4.7 -4.8 -4.7 L-4.7 -4.8 -4.7 -4.7 -4.65 -4.65 -4.25 -4.5 -4.2 -4.5 -4.15 -4.45 -3.95 -4.4 Q-3.6 -4.4 -3.55 -4.45 L-3.55 -4.5 -3.5 -4.5 Q-3.45 -4.5 -3.45 -4.55 L-3.45 -4.75 -3.4 -4.8 Q-3.35 -5.0 -3.35 -5.5 L-3.35 -5.65 -3.4 -5.65 -3.4 -5.7 -3.45 -5.7 -3.85 -5.75 -4.3 -5.9 -4.35 -6.0 Q-4.0 -6.8 -4.0 -7.45 -4.0 -8.1 -4.25 -8.6 L-4.4 -8.8 -4.4 -9.05 M-2.4 -12.5 L-2.35 -12.45 -2.55 -11.9 Q-2.8 -11.2 -2.85 -10.85 L-2.9 -10.8 -3.1 -10.85 -3.8 -10.55 Q-4.45 -10.25 -4.9 -10.25 -5.5 -10.25 -5.85 -10.75 -6.2 -11.15 -6.2 -11.6 -6.2 -12.1 -5.8 -12.7 -5.6 -13.05 -4.95 -13.85 -3.95 -15.05 -3.75 -15.9 -3.05 -13.15 -2.35 -12.6 L-2.4 -12.5" fill="#403020" fill-rule="evenodd" stroke="none"/>
    <path d="M2.6 -17.75 L2.55 -17.7 2.7 -17.65 Q1.7 -17.05 0.2 -15.65 -0.95 -14.55 -1.5 -13.85 -2.1 -15.15 -2.6 -16.7 L-2.8 -16.95 Q-2.8 -17.55 -1.2 -17.9 0.15 -18.25 1.6 -18.25 1.85 -18.25 2.2 -18.05 2.5 -17.9 2.6 -17.75" fill="#506060" fill-rule="evenodd" stroke="none"/>
  </g>
</svg>
