<?xml version="1.0" encoding="UTF-8" standalone="no"?>
<svg xmlns:ffdec="https://www.free-decompiler.com/flash" xmlns:xlink="http://www.w3.org/1999/xlink" ffdec:objectType="shape" height="20.8px" width="16.6px" xmlns="http://www.w3.org/2000/svg">
  <g transform="matrix(1.0, 0.0, 0.0, 1.0, 8.65, 20.55)">
    <path d="M4.0 -19.9 L3.55 -19.95 3.55 -19.75 3.65 -19.45 Q3.75 -19.2 3.9 -19.15 L4.1 -19.3 Q4.15 -19.4 4.15 -19.45 4.2 -19.75 4.1 -19.85 L4.15 -19.8 4.35 -19.65 Q4.45 -19.5 4.45 -19.25 L4.45 -19.15 4.3 -18.6 4.25 -18.45 Q4.1 -18.1 3.8 -17.7 3.4 -17.1 2.45 -16.05 2.0 -15.55 0.75 -14.8 L-0.1 -14.5 Q0.75 -15.0 1.65 -15.9 2.45 -16.7 3.05 -17.5 3.6 -18.2 3.6 -18.4 3.65 -18.9 3.35 -19.2 2.95 -19.65 2.0 -19.65 1.4 -19.65 -0.05 -19.3 -1.65 -18.9 -2.45 -18.5 L-3.0 -18.2 -3.55 -17.95 Q-3.85 -17.85 -4.05 -17.8 L-4.25 -17.7 Q-4.4 -17.6 -4.4 -17.5 L-4.45 -17.45 -4.55 -17.3 Q-4.55 -17.0 -4.35 -16.25 L-4.2 -15.7 -4.3 -15.85 -4.55 -16.25 Q-4.65 -16.5 -4.7 -16.65 -4.7 -16.95 -4.75 -17.05 -4.8 -17.15 -4.9 -17.2 L-4.85 -17.45 -4.9 -17.75 Q-4.65 -17.95 -4.0 -18.35 L-3.95 -18.35 Q-3.2 -18.7 -3.1 -18.85 L-2.95 -18.85 -2.9 -18.95 -1.25 -19.45 Q1.1 -20.1 2.35 -20.2 L2.3 -20.15 Q2.3 -20.1 2.4 -20.1 L2.5 -20.1 3.1 -20.2 3.65 -20.1 Q3.8 -20.05 4.0 -19.9 M3.8 -16.8 Q4.05 -17.15 4.3 -17.65 4.55 -18.15 4.7 -18.55 L4.8 -18.0 4.9 -17.75 Q4.65 -17.15 4.1 -16.55 L4.15 -16.65 Q4.15 -17.0 3.8 -16.8 M1.6 -14.15 L1.6 -14.1 Q2.2 -14.5 3.5 -15.55 L4.2 -16.15 Q4.35 -15.9 4.75 -15.5 L5.05 -15.05 5.05 -14.85 4.9 -14.45 4.75 -14.1 4.75 -14.05 Q4.35 -13.45 3.95 -12.95 3.2 -11.95 2.35 -11.55 L1.55 -11.35 0.8 -11.2 0.35 -11.3 Q0.15 -11.35 0.0 -11.35 -0.2 -11.35 -0.25 -11.3 L-0.7 -11.4 -1.75 -11.45 -2.2 -11.5 -2.2 -11.6 -2.05 -11.8 -1.85 -12.2 -1.5 -12.65 -1.4 -12.75 Q-1.0 -13.15 -1.0 -13.25 L-1.05 -13.35 -0.35 -13.45 Q-0.15 -13.45 0.15 -13.55 L0.1 -13.55 Q0.55 -13.65 0.95 -13.85 1.35 -14.0 1.6 -14.15 M0.3 -7.15 L0.0 -7.25 -0.65 -7.55 -0.2 -7.4 Q0.0 -7.35 0.3 -7.15 M-2.5 -8.4 Q-2.45 -8.7 -2.45 -8.85 L-2.3 -9.45 -2.25 -9.7 -2.25 -9.6 -2.15 -9.6 -1.5 -9.65 -0.35 -9.4 0.9 -9.3 2.05 -9.15 2.9 -9.2 Q2.8 -9.05 2.7 -8.85 2.5 -8.5 2.15 -8.25 L1.9 -8.05 Q1.7 -7.9 1.6 -7.7 L1.5 -7.65 0.95 -7.6 Q0.6 -7.6 -0.5 -8.05 -1.55 -8.55 -1.75 -8.55 -2.25 -8.55 -2.5 -8.45 L-2.5 -8.4 M-3.65 -13.7 L-3.8 -13.7 -3.65 -13.6 -3.8 -13.4 -3.95 -13.1 -4.45 -12.45 Q-4.9 -11.9 -4.9 -11.75 L-7.25 -11.85 -7.9 -11.75 Q-7.75 -12.7 -6.6 -14.5 -6.1 -15.25 -5.6 -15.95 -5.55 -15.7 -5.5 -15.45 L-5.4 -15.2 -5.0 -14.65 Q-4.8 -14.45 -4.6 -14.35 L-4.5 -14.25 Q-4.45 -13.95 -4.1 -13.85 L-3.95 -13.8 -3.65 -13.7 M-5.0 -15.45 L-5.05 -15.6 -5.05 -15.7 -5.0 -15.45 M3.85 -14.55 L3.85 -14.65 Q3.35 -14.3 2.45 -13.55 L1.1 -12.4 1.15 -12.35 Q2.25 -12.55 3.0 -13.35 3.55 -13.85 3.85 -14.55 M1.1 -8.7 L0.3 -8.85 Q-0.05 -8.9 -0.4 -9.0 L-0.9 -9.1 -1.1 -9.1 -1.15 -9.0 Q-0.35 -8.4 0.95 -8.4 L1.4 -8.4 1.4 -8.5 Q1.3 -8.65 1.1 -8.7 M3.05 -3.9 L3.15 -3.9 Q3.3 -3.9 3.85 -4.6 L4.6 -5.6 4.65 -5.4 4.5 -4.7 4.3 -4.0 Q4.15 -3.6 3.65 -3.05 L3.4 -2.75 Q3.3 -3.2 3.1 -3.7 L3.1 -3.8 3.05 -3.9 M2.15 -5.9 Q2.4 -6.0 2.8 -6.4 3.6 -7.15 3.9 -7.35 L3.85 -7.3 3.05 -5.8 2.6 -5.0 Q2.35 -5.55 2.15 -5.9 M3.95 -4.2 L3.85 -4.25 Q3.65 -4.15 3.55 -4.0 3.45 -3.85 3.45 -3.75 L3.65 -3.6 Q3.95 -3.75 3.95 -4.0 4.0 -4.15 3.95 -4.2 M-2.35 -4.8 L-2.35 -4.85 Q-2.35 -5.35 -2.65 -7.3 L-2.2 -7.35 -1.65 -7.25 -0.75 -7.2 Q-0.55 -7.05 0.0 -6.8 L0.25 -6.7 0.4 -6.6 0.95 -6.25 1.35 -5.85 Q1.6 -5.5 1.8 -5.4 L1.8 -5.45 1.6 -5.7 1.85 -5.5 2.1 -5.05 Q1.95 -5.0 1.75 -4.75 1.5 -4.45 1.25 -4.45 0.8 -4.45 0.0 -4.75 -0.8 -5.05 -1.05 -5.05 L-2.05 -5.0 Q-2.1 -4.9 -2.35 -4.8 M1.65 -3.65 L1.75 -3.65 Q1.95 -3.8 2.2 -4.05 L2.45 -4.35 2.65 -3.95 Q2.75 -3.7 2.8 -3.3 L2.9 -2.8 2.95 -2.4 2.95 -2.6 2.45 -2.35 Q1.8 -1.9 1.5 -1.75 0.9 -1.4 0.6 -1.4 L0.15 -1.55 Q-0.3 -1.7 -0.5 -1.7 L-1.45 -1.6 Q-2.05 -3.25 -2.2 -3.7 L-2.25 -4.0 Q-2.0 -3.85 -1.4 -3.7 -0.45 -3.5 0.5 -3.5 L0.8 -3.55 1.15 -3.6 1.15 -3.65 1.65 -3.65 M1.95 -1.3 L1.6 -1.1 1.95 -1.3 M-1.0 -0.3 L-1.05 -0.35 -1.0 -0.3 M0.55 -5.45 L0.55 -5.5 Q0.4 -5.8 -0.35 -6.0 -1.15 -6.2 -1.45 -5.9 -1.35 -5.75 -0.65 -5.55 0.0 -5.4 0.3 -5.4 L0.55 -5.45 M1.95 -3.2 Q1.8 -3.25 1.5 -3.05 1.15 -2.8 0.65 -2.8 L-0.5 -2.75 Q-0.1 -2.5 0.1 -2.4 0.4 -2.25 0.7 -2.25 1.15 -2.25 1.5 -2.55 L1.95 -2.95 2.05 -3.1 1.95 -3.2 M-5.7 -14.25 L-5.7 -14.65 -5.85 -14.65 Q-6.1 -14.55 -6.55 -13.9 -6.95 -13.25 -6.95 -13.1 -6.95 -13.0 -6.9 -13.0 L-6.8 -12.95 Q-6.4 -13.35 -6.05 -13.85 L-5.8 -14.05 Q-5.7 -14.15 -5.7 -14.25 M-7.2 -10.0 L-6.8 -10.0 -7.1 -9.9 -7.2 -10.0 M-4.35 -9.65 Q-4.55 -9.35 -4.7 -8.9 L-4.85 -8.45 -4.9 -8.45 Q-5.95 -8.45 -6.55 -8.2 -6.85 -8.05 -7.15 -7.85 L-7.35 -7.65 -7.3 -8.05 -7.1 -8.95 -7.1 -8.9 -6.55 -9.15 Q-5.95 -9.35 -5.6 -9.4 L-4.35 -9.65 M-5.6 -9.0 L-5.7 -9.0 Q-6.45 -9.0 -6.8 -8.55 L-6.7 -8.5 -6.55 -8.45 Q-6.45 -8.45 -6.15 -8.6 -5.75 -8.8 -5.6 -9.0 M-4.45 -5.35 L-4.5 -5.4 Q-4.7 -5.3 -4.95 -5.0 L-4.95 -4.85 -4.9 -4.9 Q-4.65 -5.0 -4.55 -5.1 L-4.45 -5.35 M-5.85 -4.35 L-5.95 -4.55 Q-5.65 -4.95 -5.4 -5.5 -4.95 -6.25 -4.8 -6.5 -4.6 -6.7 -4.35 -6.85 L-4.25 -6.15 Q-4.2 -5.7 -4.1 -5.2 L-4.0 -4.55 Q-4.45 -4.3 -4.9 -3.95 L-5.3 -4.15 -5.7 -4.4 Q-5.8 -4.4 -5.85 -4.35 M-4.6 -3.2 L-4.45 -3.2 Q-4.2 -3.25 -3.85 -3.5 L-3.75 -3.6 -3.7 -3.5 Q-3.7 -3.35 -3.45 -2.65 L-3.2 -2.0 -3.0 -1.4 Q-3.2 -1.35 -3.4 -1.25 L-3.75 -1.05 -4.5 -1.6 Q-4.7 -1.7 -4.85 -1.75 L-4.95 -2.05 -5.35 -3.2 Q-5.15 -3.1 -4.95 -3.15 L-4.85 -3.15 -4.6 -3.2 M-3.75 -2.1 Q-3.7 -2.2 -3.7 -2.25 -3.7 -2.5 -4.05 -2.55 -4.45 -2.65 -4.45 -2.3 -4.45 -2.0 -4.0 -2.0 -3.85 -2.0 -3.75 -2.1" fill="#508090" fill-rule="evenodd" stroke="none"/>
    <path d="M4.0 -19.9 Q3.8 -20.05 3.65 -20.1 L3.1 -20.2 2.5 -20.1 2.4 -20.1 Q2.3 -20.1 2.3 -20.15 L2.35 -20.2 Q1.1 -20.1 -1.25 -19.45 L-2.9 -18.95 -2.95 -18.85 -3.1 -18.85 Q-3.2 -18.7 -3.95 -18.35 L-4.0 -18.35 Q-4.65 -17.95 -4.9 -17.75 L-4.85 -17.45 -4.9 -17.2 -5.05 -15.75 -5.05 -15.7 -5.05 -15.6 -5.0 -15.45 -4.65 -14.95 -4.55 -14.9 Q-4.25 -14.65 -4.15 -14.35 L-4.05 -14.2 Q-4.05 -14.1 -4.0 -14.0 L-3.9 -13.9 -3.95 -13.8 -4.0 -13.85 -4.4 -14.15 -4.5 -14.25 -4.6 -14.35 Q-4.8 -14.45 -5.0 -14.65 L-5.4 -15.2 -5.5 -15.45 Q-5.55 -15.7 -5.6 -15.95 -6.1 -15.25 -6.6 -14.5 -7.75 -12.7 -7.9 -11.75 L-7.25 -11.85 -4.9 -11.75 Q-4.9 -11.9 -4.45 -12.45 L-3.95 -13.1 -3.8 -13.4 -3.65 -13.6 -3.8 -13.7 -3.65 -13.7 -3.45 -13.7 -3.3 -13.65 -3.1 -13.6 -3.05 -13.55 -2.5 -13.4 -1.2 -13.45 -1.1 -13.35 -1.05 -13.35 -1.0 -13.25 Q-1.0 -13.15 -1.4 -12.75 L-1.5 -12.65 -1.85 -12.2 -2.05 -11.8 -2.2 -11.6 -2.2 -11.5 -1.75 -11.45 -0.7 -11.4 -0.25 -11.3 Q-0.2 -11.35 0.0 -11.35 0.15 -11.35 0.35 -11.3 L0.8 -11.2 1.55 -11.35 2.35 -11.55 Q3.2 -11.95 3.95 -12.95 4.35 -13.45 4.75 -14.05 L4.75 -14.1 4.9 -14.45 5.05 -14.85 5.05 -15.05 5.15 -15.55 Q5.25 -15.8 5.4 -15.65 5.6 -15.55 5.6 -15.3 L5.6 -14.55 5.65 -14.25 Q5.65 -13.4 5.45 -12.65 5.35 -11.95 4.75 -11.05 3.75 -9.45 1.95 -9.45 L0.9 -9.55 -0.2 -9.7 -2.2 -9.9 -2.2 -9.85 -2.25 -9.7 -2.3 -9.45 -2.45 -8.85 Q-2.45 -8.7 -2.5 -8.4 L-2.55 -8.3 -2.6 -8.0 -2.1 -7.95 Q-1.6 -7.95 -1.0 -7.7 L-0.65 -7.55 0.0 -7.25 0.3 -7.15 Q0.65 -7.0 1.1 -6.65 1.15 -6.6 1.3 -6.55 1.5 -6.8 2.85 -7.7 L4.65 -8.8 Q5.7 -9.55 6.0 -9.8 6.25 -10.0 6.4 -10.25 L6.4 -10.3 6.7 -11.05 Q7.0 -11.8 7.0 -11.95 L7.15 -12.75 7.25 -13.65 Q7.25 -14.1 6.85 -14.75 L6.25 -15.85 Q5.85 -16.6 5.5 -16.95 L5.25 -17.15 5.1 -17.25 5.1 -17.2 5.05 -17.15 5.05 -17.2 Q5.0 -17.15 5.0 -17.1 4.95 -16.85 4.2 -16.15 L3.5 -15.55 Q2.2 -14.5 1.6 -14.1 L1.6 -14.15 1.6 -14.25 Q1.65 -14.45 1.95 -14.7 L2.15 -14.9 3.3 -15.8 Q3.75 -16.15 4.1 -16.55 4.65 -17.15 4.9 -17.75 L4.8 -18.0 4.7 -18.55 Q4.55 -18.15 4.3 -17.65 4.05 -17.15 3.8 -16.8 3.5 -16.4 3.25 -16.15 L2.5 -15.5 Q2.1 -15.15 1.6 -14.95 L1.4 -14.85 1.05 -14.65 Q0.8 -14.5 0.3 -14.25 0.0 -14.05 -0.35 -13.85 -0.75 -13.7 -1.25 -13.6 L-1.9 -13.55 Q-2.2 -13.55 -2.35 -13.7 L-2.45 -13.8 Q-3.0 -13.9 -3.55 -14.55 -3.85 -14.9 -4.15 -15.4 L-4.2 -15.7 -4.35 -16.25 Q-4.55 -17.0 -4.55 -17.3 L-4.45 -17.45 -4.4 -17.5 Q-4.4 -17.6 -4.25 -17.7 L-4.05 -17.8 Q-3.85 -17.85 -3.55 -17.95 L-3.0 -18.2 -2.45 -18.5 Q-1.65 -18.9 -0.05 -19.3 1.4 -19.65 2.0 -19.65 2.95 -19.65 3.35 -19.2 3.65 -18.9 3.6 -18.4 3.6 -18.2 3.05 -17.5 2.45 -16.7 1.65 -15.9 0.75 -15.0 -0.1 -14.5 L0.75 -14.8 Q2.0 -15.55 2.45 -16.05 3.4 -17.1 3.8 -17.7 4.1 -18.1 4.25 -18.45 L4.3 -18.6 4.45 -19.15 4.45 -19.25 Q4.45 -19.5 4.35 -19.65 L4.15 -19.8 4.1 -19.85 4.0 -19.9 M4.45 -20.2 L4.55 -20.2 5.0 -19.0 5.1 -18.7 5.2 -18.75 Q5.3 -18.4 5.3 -18.25 L5.3 -18.2 Q5.4 -18.15 5.55 -18.0 L5.8 -17.7 6.15 -17.4 Q6.45 -17.15 6.75 -16.7 L7.15 -16.05 Q7.45 -15.55 7.7 -14.75 7.95 -13.9 7.95 -13.3 7.9 -13.0 7.7 -12.3 7.5 -11.6 7.5 -11.45 7.5 -11.25 7.2 -10.65 6.85 -10.0 6.65 -9.95 L6.6 -9.75 Q6.6 -9.55 6.15 -9.2 5.95 -8.4 5.9 -7.35 L5.85 -5.2 Q5.85 -4.75 5.7 -4.2 5.5 -3.7 5.25 -3.3 L4.85 -2.8 4.5 -2.35 4.0 -1.75 Q3.9 -1.65 3.7 -1.6 L3.65 -1.55 Q3.1 -1.05 2.8 -0.85 2.6 -0.5 1.95 -0.3 1.0 0.1 -0.9 0.15 L-0.9 0.25 -1.0 0.2 -1.05 0.15 -1.8 0.15 Q-3.25 0.15 -4.2 -0.35 L-4.4 -0.45 -4.45 -0.4 -4.45 -0.35 -4.6 -0.3 Q-4.75 -0.3 -5.0 -0.85 L-5.45 -1.15 Q-5.5 -1.2 -5.3 -1.2 -5.25 -1.2 -5.15 -1.15 L-5.1 -1.1 -5.35 -1.65 Q-5.9 -2.9 -6.05 -3.65 -6.15 -3.9 -6.6 -4.4 L-7.35 -5.25 -7.7 -5.6 Q-7.95 -5.85 -8.05 -6.05 -8.1 -6.3 -8.1 -6.85 -8.1 -7.05 -7.95 -7.4 -7.85 -7.75 -7.8 -8.1 L-7.6 -8.8 -7.4 -9.45 -7.7 -9.75 Q-8.0 -10.15 -8.1 -10.35 -8.25 -10.65 -8.45 -10.9 -8.6 -11.1 -8.6 -11.4 L-8.55 -11.55 -8.65 -11.6 -8.5 -11.6 -8.05 -12.75 -7.4 -14.15 Q-7.0 -14.95 -6.35 -15.8 -5.9 -16.35 -5.6 -16.55 L-5.6 -16.6 -5.7 -16.9 Q-5.65 -17.65 -5.3 -18.05 -5.05 -18.3 -4.65 -18.5 -4.5 -18.6 -4.05 -18.8 -3.25 -19.2 -2.05 -19.55 1.05 -20.55 3.5 -20.55 4.1 -20.55 4.45 -20.2 M2.25 -18.1 L1.45 -18.15 Q0.05 -18.15 -1.65 -17.5 -3.0 -17.05 -3.95 -16.45 L-3.9 -16.3 Q-3.8 -15.95 -3.8 -15.8 -3.0 -14.6 -2.6 -14.4 -1.75 -14.35 -0.55 -15.05 0.15 -15.4 0.95 -15.9 1.3 -16.15 1.6 -16.5 L2.1 -17.05 Q2.2 -17.1 2.45 -17.55 L2.7 -17.95 2.5 -18.0 2.25 -18.1 M2.85 -18.45 L3.0 -18.8 Q3.0 -19.2 2.45 -19.2 L0.8 -19.05 Q0.45 -19.0 -0.6 -18.7 L-1.55 -18.45 -3.85 -17.5 -3.95 -17.2 -4.05 -16.95 -4.05 -16.8 -3.35 -17.2 Q-2.4 -17.75 -1.25 -18.1 1.65 -19.05 2.8 -18.25 L2.85 -18.45 M5.1 -13.5 Q4.6 -12.65 4.2 -12.15 3.5 -11.3 2.65 -11.15 L2.7 -11.2 Q2.2 -10.95 1.55 -10.85 L0.5 -10.75 Q0.15 -10.75 -0.95 -11.0 L-2.2 -11.15 -2.15 -11.05 -2.1 -10.6 -2.15 -10.4 -1.55 -10.35 -1.45 -10.4 -1.2 -10.5 Q1.25 -10.0 1.8 -10.0 3.4 -10.0 4.35 -11.15 4.8 -11.8 5.0 -12.5 5.15 -12.9 5.15 -13.25 L5.15 -13.5 5.1 -13.5 M3.4 -2.75 L3.4 -2.4 3.45 -2.2 3.75 -2.35 4.15 -2.7 Q4.3 -2.85 5.05 -4.05 L4.95 -4.7 4.9 -5.3 4.95 -5.9 5.05 -6.45 5.1 -6.95 5.2 -7.5 Q5.2 -7.6 5.25 -7.8 L4.55 -6.55 4.25 -5.95 Q3.35 -4.4 3.0 -4.15 L3.05 -3.9 3.1 -3.8 3.1 -3.7 Q3.3 -3.2 3.4 -2.75 M2.6 -5.0 L2.75 -4.7 2.95 -5.0 3.4 -5.75 Q3.8 -6.55 4.2 -7.1 4.75 -7.9 5.0 -8.45 L5.05 -8.5 4.4 -8.1 3.7 -7.6 3.05 -7.1 2.45 -6.6 Q2.1 -6.25 1.9 -6.2 L2.15 -5.9 Q2.35 -5.55 2.6 -5.0 M2.1 -5.05 L1.85 -5.5 1.6 -5.7 1.8 -5.45 1.8 -5.4 Q1.6 -5.5 1.35 -5.85 L0.95 -6.25 0.4 -6.6 0.25 -6.7 0.0 -6.8 Q-0.55 -7.05 -0.75 -7.2 L-1.65 -7.25 -2.2 -7.35 -2.65 -7.3 Q-2.35 -5.35 -2.35 -4.85 L-2.35 -4.8 -2.35 -4.35 -2.3 -4.25 -2.0 -4.3 -1.45 -4.2 -0.7 -4.0 0.1 -3.95 0.6 -3.85 1.0 -3.7 Q1.15 -3.7 1.15 -3.65 L1.15 -3.6 0.8 -3.55 0.5 -3.5 Q-0.45 -3.5 -1.4 -3.7 -2.0 -3.85 -2.25 -4.0 L-2.2 -3.7 Q-2.05 -3.25 -1.45 -1.6 L-1.45 -1.5 -1.05 -0.35 -1.0 -0.3 Q-0.25 -0.35 0.85 -0.8 L1.6 -1.1 1.95 -1.3 2.0 -1.4 2.05 -1.4 2.65 -1.65 2.95 -1.85 Q2.9 -2.0 2.95 -2.15 L2.95 -2.4 2.9 -2.8 2.8 -3.3 Q2.75 -3.7 2.65 -3.95 L2.45 -4.35 2.2 -4.05 Q1.95 -3.8 1.75 -3.65 L1.65 -3.65 Q1.6 -3.7 1.6 -3.8 1.65 -3.9 1.85 -4.2 2.1 -4.5 2.3 -4.6 L2.35 -4.55 2.1 -5.05 M-1.65 -12.95 L-2.15 -12.95 Q-2.6 -12.95 -3.2 -13.3 L-3.25 -13.3 Q-3.45 -13.3 -3.9 -12.55 -4.2 -12.0 -4.4 -11.7 L-3.75 -11.65 -2.7 -11.55 -2.65 -11.65 -2.6 -11.7 Q-2.6 -11.85 -2.1 -12.45 L-1.95 -12.6 -1.7 -12.95 -1.65 -12.95 M-2.85 -11.2 L-3.35 -11.25 -3.8 -11.3 -4.4 -11.35 -4.25 -11.15 Q-3.95 -10.55 -3.9 -10.45 L-2.95 -10.5 -2.6 -10.45 -2.75 -10.7 Q-2.85 -11.0 -2.85 -11.15 L-2.85 -11.2 M-6.8 -10.0 L-6.7 -10.05 -5.65 -10.3 -5.45 -10.3 -4.4 -10.4 Q-4.55 -10.55 -4.65 -10.8 -4.85 -11.1 -4.9 -11.35 L-5.75 -11.25 -7.5 -11.4 -7.95 -11.45 Q-7.95 -10.95 -7.45 -10.35 L-7.2 -10.0 -7.1 -9.9 -6.8 -10.0 M-3.9 -9.9 Q-3.9 -9.8 -3.95 -9.65 L-4.05 -9.45 Q-4.05 -9.35 -4.3 -8.55 L-4.5 -8.05 -3.65 -8.1 -3.0 -8.05 Q-2.95 -8.3 -2.8 -8.95 -2.6 -9.6 -2.4 -9.9 L-2.65 -9.95 -2.95 -10.05 -3.9 -10.0 -3.9 -9.9 M-4.85 -8.45 L-4.7 -8.9 Q-4.55 -9.35 -4.35 -9.65 L-4.1 -9.95 -4.1 -10.0 Q-5.4 -9.85 -7.0 -9.5 L-7.0 -9.45 -7.05 -9.45 -7.05 -9.3 -7.1 -8.95 -7.3 -8.05 -7.35 -7.65 -7.45 -7.35 Q-7.6 -6.85 -7.6 -6.6 -7.6 -6.5 -7.5 -6.4 -7.45 -6.6 -7.25 -6.8 L-6.45 -7.45 Q-6.0 -7.8 -5.55 -7.9 L-4.95 -8.0 -4.85 -8.45 M-6.25 -7.2 Q-6.55 -7.0 -7.3 -6.1 L-6.95 -5.8 -6.25 -5.1 -6.2 -5.0 -6.0 -5.35 Q-5.55 -6.15 -5.35 -6.35 -5.2 -6.45 -5.0 -6.8 L-4.7 -7.15 Q-4.9 -7.35 -5.0 -7.7 -5.75 -7.55 -6.25 -7.2 M-4.6 -7.75 Q-4.55 -7.7 -4.4 -7.5 L-4.3 -7.4 Q-3.8 -7.65 -2.8 -7.7 L-2.9 -7.8 -3.55 -7.8 -4.6 -7.75 M-2.65 -7.7 L-2.4 -7.7 -2.65 -7.75 -2.65 -7.7 M-3.4 -4.15 Q-3.35 -4.1 -3.4 -4.0 L-3.4 -3.95 -3.3 -3.65 -2.9 -2.55 -2.5 -1.6 -2.0 -0.4 -1.6 -0.35 Q-2.2 -1.2 -2.55 -3.4 L-2.6 -3.75 Q-2.75 -4.6 -2.85 -5.55 -2.9 -6.25 -2.9 -7.3 -3.6 -7.25 -4.1 -7.0 L-3.9 -6.05 -3.75 -5.45 -3.45 -4.15 -3.4 -4.15 M-4.0 -4.55 L-4.1 -5.2 Q-4.2 -5.7 -4.25 -6.15 L-4.35 -6.85 Q-4.6 -6.7 -4.8 -6.5 -4.95 -6.25 -5.4 -5.5 -5.65 -4.95 -5.95 -4.55 L-5.85 -4.35 -5.55 -3.7 -5.45 -3.65 Q-4.95 -3.4 -4.95 -3.15 -5.15 -3.1 -5.35 -3.2 L-4.95 -2.05 -4.85 -1.75 -4.6 -1.1 -3.8 -0.8 Q-2.8 -0.5 -2.55 -0.5 L-2.5 -0.45 -2.95 -1.35 -3.0 -1.4 -3.2 -2.0 -3.45 -2.65 Q-3.7 -3.35 -3.7 -3.5 L-3.75 -3.6 -3.85 -3.5 Q-4.2 -3.25 -4.45 -3.2 L-4.6 -3.2 -4.6 -3.3 Q-4.6 -3.45 -4.2 -3.8 L-3.85 -4.05 -3.9 -4.05 -4.0 -4.55" fill="#111111" fill-rule="evenodd" stroke="none"/>
    <path d="M4.1 -19.85 Q4.2 -19.75 4.15 -19.45 4.15 -19.4 4.1 -19.3 L3.9 -19.15 Q3.75 -19.2 3.65 -19.45 L3.55 -19.75 3.55 -19.95 4.0 -19.9 4.1 -19.85 M3.85 -14.55 Q3.55 -13.85 3.0 -13.35 2.25 -12.55 1.15 -12.35 L1.1 -12.4 2.45 -13.55 Q3.35 -14.3 3.85 -14.65 L3.85 -14.55 M1.1 -8.7 Q1.3 -8.65 1.4 -8.5 L1.4 -8.4 0.95 -8.4 Q-0.35 -8.4 -1.15 -9.0 L-1.1 -9.1 -0.9 -9.1 -0.4 -9.0 Q-0.05 -8.9 0.3 -8.85 L1.1 -8.7 M3.95 -4.2 Q4.0 -4.15 3.95 -4.0 3.95 -3.75 3.65 -3.6 L3.45 -3.75 Q3.45 -3.85 3.55 -4.0 3.65 -4.15 3.85 -4.25 L3.95 -4.2 M0.55 -5.45 L0.3 -5.4 Q0.0 -5.4 -0.65 -5.55 -1.35 -5.75 -1.45 -5.9 -1.15 -6.2 -0.35 -6.0 0.4 -5.8 0.55 -5.5 L0.55 -5.45 M1.95 -3.2 L2.05 -3.1 1.95 -2.95 1.5 -2.55 Q1.15 -2.25 0.7 -2.25 0.4 -2.25 0.1 -2.4 -0.1 -2.5 -0.5 -2.75 L0.65 -2.8 Q1.15 -2.8 1.5 -3.05 1.8 -3.25 1.95 -3.2 M-5.7 -14.25 Q-5.7 -14.15 -5.8 -14.05 L-6.05 -13.85 Q-6.4 -13.35 -6.8 -12.95 L-6.9 -13.0 Q-6.95 -13.0 -6.95 -13.1 -6.95 -13.25 -6.55 -13.9 -6.1 -14.55 -5.85 -14.65 L-5.7 -14.65 -5.7 -14.25 M-5.6 -9.0 Q-5.75 -8.8 -6.15 -8.6 -6.45 -8.45 -6.55 -8.45 L-6.7 -8.5 -6.8 -8.55 Q-6.45 -9.0 -5.7 -9.0 L-5.6 -9.0 M-4.45 -5.35 L-4.55 -5.1 Q-4.65 -5.0 -4.9 -4.9 L-4.95 -4.85 -4.95 -5.0 Q-4.7 -5.3 -4.5 -5.4 L-4.45 -5.35 M-3.75 -2.1 Q-3.85 -2.0 -4.0 -2.0 -4.45 -2.0 -4.45 -2.3 -4.45 -2.65 -4.05 -2.55 -3.7 -2.5 -3.7 -2.25 -3.7 -2.2 -3.75 -2.1" fill="#8fdfff" fill-rule="evenodd" stroke="none"/>
    <path d="M2.25 -18.1 L2.5 -18.0 2.7 -17.95 2.45 -17.55 Q2.2 -17.1 2.1 -17.05 L1.6 -16.5 Q1.3 -16.15 0.95 -15.9 0.15 -15.4 -0.55 -15.05 -1.75 -14.35 -2.6 -14.4 -3.0 -14.6 -3.8 -15.8 -3.8 -15.95 -3.9 -16.3 L-3.95 -16.45 Q-3.0 -17.05 -1.65 -17.5 0.05 -18.15 1.45 -18.15 L2.25 -18.1" fill="#1c2c33" fill-rule="evenodd" stroke="none"/>
    <path d="M-4.9 -17.2 Q-4.8 -17.15 -4.75 -17.05 -4.7 -16.95 -4.7 -16.65 -4.65 -16.5 -4.55 -16.25 L-4.3 -15.85 -4.2 -15.7 -4.15 -15.4 Q-3.85 -14.9 -3.55 -14.55 -3.0 -13.9 -2.45 -13.8 L-2.35 -13.7 Q-2.2 -13.55 -1.9 -13.55 L-1.25 -13.6 Q-0.75 -13.7 -0.35 -13.85 0.0 -14.05 0.3 -14.25 0.8 -14.5 1.05 -14.65 L1.4 -14.85 1.6 -14.95 Q2.1 -15.15 2.5 -15.5 L3.25 -16.15 Q3.5 -16.4 3.8 -16.8 4.15 -17.0 4.15 -16.65 L4.1 -16.55 Q3.75 -16.15 3.3 -15.8 L2.15 -14.9 1.95 -14.7 Q1.65 -14.45 1.6 -14.25 L1.6 -14.15 Q1.35 -14.0 0.95 -13.85 0.55 -13.65 0.1 -13.55 L0.15 -13.55 Q-0.15 -13.45 -0.35 -13.45 L-1.05 -13.35 -1.1 -13.35 -1.2 -13.45 -2.5 -13.4 -3.05 -13.55 -3.1 -13.6 -3.3 -13.65 -3.45 -13.7 -3.65 -13.7 -3.95 -13.8 -4.1 -13.85 Q-4.45 -13.95 -4.5 -14.25 L-4.4 -14.15 -4.0 -13.85 -3.95 -13.8 -3.9 -13.9 -4.0 -14.0 Q-4.05 -14.1 -4.05 -14.2 L-4.15 -14.35 Q-4.25 -14.65 -4.55 -14.9 L-4.65 -14.95 -5.0 -15.45 -5.05 -15.7 -5.05 -15.75 -4.9 -17.2 M4.2 -16.15 Q4.95 -16.85 5.0 -17.1 5.0 -17.15 5.05 -17.2 L5.05 -17.15 5.1 -17.2 5.1 -17.25 5.25 -17.15 5.5 -16.95 Q5.85 -16.6 6.25 -15.85 L6.85 -14.75 Q7.25 -14.1 7.25 -13.65 L7.15 -12.75 7.0 -11.95 Q7.0 -11.8 6.7 -11.05 L6.4 -10.3 6.4 -10.25 Q6.25 -10.0 6.0 -9.8 5.7 -9.55 4.65 -8.8 L2.85 -7.7 Q1.5 -6.8 1.3 -6.55 1.15 -6.6 1.1 -6.65 0.65 -7.0 0.3 -7.15 0.0 -7.35 -0.2 -7.4 L-0.65 -7.55 -1.0 -7.7 Q-1.6 -7.95 -2.1 -7.95 L-2.6 -8.0 -2.55 -8.3 -2.5 -8.4 -2.5 -8.45 Q-2.25 -8.55 -1.75 -8.55 -1.55 -8.55 -0.5 -8.05 0.6 -7.6 0.95 -7.6 L1.5 -7.65 1.6 -7.7 Q1.7 -7.9 1.9 -8.05 L2.15 -8.25 Q2.5 -8.5 2.7 -8.85 2.8 -9.05 2.9 -9.2 L2.05 -9.15 0.9 -9.3 -0.35 -9.4 -1.5 -9.65 -2.15 -9.6 -2.25 -9.6 -2.25 -9.7 -2.2 -9.85 -2.2 -9.9 -0.2 -9.7 0.9 -9.55 1.95 -9.45 Q3.75 -9.45 4.75 -11.05 5.35 -11.95 5.45 -12.65 5.65 -13.4 5.65 -14.25 L5.6 -14.55 5.6 -15.3 Q5.6 -15.55 5.4 -15.65 5.25 -15.8 5.15 -15.55 L5.05 -15.05 4.75 -15.5 Q4.35 -15.9 4.2 -16.15 M2.85 -18.45 L2.8 -18.25 Q1.65 -19.05 -1.25 -18.1 -2.4 -17.75 -3.35 -17.2 L-4.05 -16.8 -4.05 -16.95 -3.95 -17.2 -3.85 -17.5 -1.55 -18.45 -0.6 -18.7 Q0.45 -19.0 0.8 -19.05 L2.45 -19.2 Q3.0 -19.2 3.0 -18.8 L2.85 -18.45 M5.1 -13.5 L5.15 -13.5 5.15 -13.25 Q5.15 -12.9 5.0 -12.5 4.8 -11.8 4.35 -11.15 3.4 -10.0 1.8 -10.0 1.25 -10.0 -1.2 -10.5 L-1.45 -10.4 -1.55 -10.35 -2.15 -10.4 -2.1 -10.6 -2.15 -11.05 -2.2 -11.15 -0.95 -11.0 Q0.15 -10.75 0.5 -10.75 L1.55 -10.85 Q2.2 -10.95 2.7 -11.2 L2.65 -11.15 Q3.5 -11.3 4.2 -12.15 4.6 -12.65 5.1 -13.5 M3.05 -3.9 L3.0 -4.15 Q3.35 -4.4 4.25 -5.95 L4.55 -6.55 5.25 -7.8 Q5.2 -7.6 5.2 -7.5 L5.1 -6.95 5.05 -6.45 4.95 -5.9 4.9 -5.3 4.95 -4.7 5.05 -4.05 Q4.3 -2.85 4.15 -2.7 L3.75 -2.35 3.45 -2.2 3.4 -2.4 3.4 -2.75 3.65 -3.05 Q4.15 -3.6 4.3 -4.0 L4.5 -4.7 4.65 -5.4 4.6 -5.6 3.85 -4.6 Q3.3 -3.9 3.15 -3.9 L3.05 -3.9 M2.6 -5.0 L3.05 -5.8 3.85 -7.3 3.9 -7.35 Q3.6 -7.15 2.8 -6.4 2.4 -6.0 2.15 -5.9 L1.9 -6.2 Q2.1 -6.25 2.45 -6.6 L3.05 -7.1 3.7 -7.6 4.4 -8.1 5.05 -8.5 5.0 -8.45 Q4.75 -7.9 4.2 -7.1 3.8 -6.55 3.4 -5.75 L2.95 -5.0 2.75 -4.7 2.6 -5.0 M-2.35 -4.8 Q-2.1 -4.9 -2.05 -5.0 L-1.05 -5.05 Q-0.8 -5.05 0.0 -4.75 0.8 -4.45 1.25 -4.45 1.5 -4.45 1.75 -4.75 1.95 -5.0 2.1 -5.05 L2.35 -4.55 2.3 -4.6 Q2.1 -4.5 1.85 -4.2 1.65 -3.9 1.6 -3.8 1.6 -3.7 1.65 -3.65 L1.15 -3.65 Q1.15 -3.7 1.0 -3.7 L0.6 -3.85 0.1 -3.95 -0.7 -4.0 -1.45 -4.2 -2.0 -4.3 -2.3 -4.25 -2.35 -4.35 -2.35 -4.8 M2.95 -2.4 L2.95 -2.15 Q2.9 -2.0 2.95 -1.85 L2.65 -1.65 2.05 -1.4 2.0 -1.4 1.95 -1.3 1.6 -1.1 0.85 -0.8 Q-0.25 -0.35 -1.0 -0.3 L-1.05 -0.35 -1.45 -1.5 -1.45 -1.6 -0.5 -1.7 Q-0.3 -1.7 0.15 -1.55 L0.6 -1.4 Q0.9 -1.4 1.5 -1.75 1.8 -1.9 2.45 -2.35 L2.95 -2.6 2.95 -2.4 M-7.2 -10.0 L-7.45 -10.35 Q-7.95 -10.95 -7.95 -11.45 L-7.5 -11.4 -5.75 -11.25 -4.9 -11.35 Q-4.85 -11.1 -4.65 -10.8 -4.55 -10.55 -4.4 -10.4 L-5.45 -10.3 -5.65 -10.3 -6.7 -10.05 -6.8 -10.0 -7.2 -10.0 M-4.35 -9.65 L-5.6 -9.4 Q-5.95 -9.35 -6.55 -9.15 L-7.1 -8.9 -7.1 -8.95 -7.05 -9.3 -7.05 -9.45 -7.0 -9.45 -7.0 -9.5 Q-5.4 -9.85 -4.1 -10.0 L-4.1 -9.95 -4.35 -9.65 M-7.35 -7.65 L-7.15 -7.85 Q-6.85 -8.05 -6.55 -8.2 -5.95 -8.45 -4.9 -8.45 L-4.85 -8.45 -4.95 -8.0 -5.55 -7.9 Q-6.0 -7.8 -6.45 -7.45 L-7.25 -6.8 Q-7.45 -6.6 -7.5 -6.4 -7.6 -6.5 -7.6 -6.6 -7.6 -6.85 -7.45 -7.35 L-7.35 -7.65 M-6.25 -7.2 Q-5.75 -7.55 -5.0 -7.7 -4.9 -7.35 -4.7 -7.15 L-5.0 -6.8 Q-5.2 -6.45 -5.35 -6.35 -5.55 -6.15 -6.0 -5.35 L-6.2 -5.0 -6.25 -5.1 -6.95 -5.8 -7.3 -6.1 Q-6.55 -7.0 -6.25 -7.2 M-5.85 -4.35 Q-5.8 -4.4 -5.7 -4.4 L-5.3 -4.15 -4.9 -3.95 Q-4.45 -4.3 -4.0 -4.55 L-3.9 -4.05 -3.85 -4.05 -4.2 -3.8 Q-4.6 -3.45 -4.6 -3.3 L-4.6 -3.2 -4.85 -3.15 -4.95 -3.15 Q-4.95 -3.4 -5.45 -3.65 L-5.55 -3.7 -5.85 -4.35 M-3.0 -1.4 L-2.95 -1.35 -2.5 -0.45 -2.55 -0.5 Q-2.8 -0.5 -3.8 -0.8 L-4.6 -1.1 -4.85 -1.75 Q-4.7 -1.7 -4.5 -1.6 L-3.75 -1.05 -3.4 -1.25 Q-3.2 -1.35 -3.0 -1.4" fill="#314d59" fill-rule="evenodd" stroke="none"/>
    <path d="M-2.85 -11.2 L-2.85 -11.15 Q-2.85 -11.0 -2.75 -10.7 L-2.6 -10.45 -2.95 -10.5 -3.9 -10.45 Q-3.95 -10.55 -4.25 -11.15 L-4.4 -11.35 -3.8 -11.3 -3.35 -11.25 -2.85 -11.2 M-1.65 -12.95 L-1.7 -12.95 -1.95 -12.6 -2.1 -12.45 Q-2.6 -11.85 -2.6 -11.7 L-2.65 -11.65 -2.7 -11.55 -3.75 -11.65 -4.4 -11.7 Q-4.2 -12.0 -3.9 -12.55 -3.45 -13.3 -3.25 -13.3 L-3.2 -13.3 Q-2.6 -12.95 -2.15 -12.95 L-1.65 -12.95 M-3.9 -9.9 L-3.9 -10.0 -2.95 -10.05 -2.65 -9.95 -2.4 -9.9 Q-2.6 -9.6 -2.8 -8.95 -2.95 -8.3 -3.0 -8.05 L-3.65 -8.1 -4.5 -8.05 -4.3 -8.55 Q-4.05 -9.35 -4.05 -9.45 L-3.95 -9.65 Q-3.9 -9.8 -3.9 -9.9 M-4.6 -7.75 L-3.55 -7.8 -2.9 -7.8 -2.8 -7.7 Q-3.8 -7.65 -4.3 -7.4 L-4.4 -7.5 Q-4.55 -7.7 -4.6 -7.75 M-3.4 -4.15 L-3.45 -4.15 -3.75 -5.45 -3.9 -6.05 -4.1 -7.0 Q-3.6 -7.25 -2.9 -7.3 -2.9 -6.25 -2.85 -5.55 -2.75 -4.6 -2.6 -3.75 L-2.55 -3.4 Q-2.2 -1.2 -1.6 -0.35 L-2.0 -0.4 -2.5 -1.6 -2.9 -2.55 -3.3 -3.65 -3.4 -3.95 -3.4 -4.0 Q-3.35 -4.1 -3.4 -4.15" fill="#600000" fill-rule="evenodd" stroke="none"/>
  </g>
</svg>
