<?xml version="1.0" encoding="UTF-8" standalone="no"?>
<svg xmlns:ffdec="https://www.free-decompiler.com/flash" xmlns:xlink="http://www.w3.org/1999/xlink" ffdec:objectType="shape" height="24.45px" width="27.0px" xmlns="http://www.w3.org/2000/svg">
  <g transform="matrix(1.0, 0.0, 0.0, 1.0, 20.45, 9.7)">
    <path d="M6.3 -7.3 Q6.2 -7.1 5.95 -6.95 L5.95 -7.0 Q4.75 -6.0 1.3 -3.1 0.25 -1.9 -4.2 2.55 L-6.65 5.2 -7.6 6.0 -7.7 6.15 Q-7.5 6.5 -7.5 6.85 -7.5 7.4 -7.65 8.15 L-7.8 9.0 Q-7.8 9.1 -8.0 10.15 -8.2 11.25 -8.3 11.5 L-8.35 11.9 -8.4 12.25 Q-8.55 12.6 -8.65 12.7 L-8.75 12.7 -8.75 12.6 Q-8.85 12.45 -8.85 12.25 -8.85 12.15 -8.95 11.85 L-9.05 11.45 -9.05 11.4 -9.25 11.7 Q-9.35 11.8 -9.4 11.8 -9.55 11.8 -9.65 11.45 L-9.6 11.2 -9.5 11.05 Q-9.6 10.2 -10.0 9.4 L-10.2 9.05 -10.3 9.0 -10.6 9.3 -10.6 9.35 Q-12.5 11.3 -12.65 11.4 L-14.1 12.85 Q-14.15 13.0 -14.4 13.1 L-14.6 13.5 Q-15.15 14.3 -15.9 14.75 L-16.05 14.7 Q-16.1 14.7 -16.1 14.5 L-16.0 14.05 Q-15.9 13.7 -15.9 13.55 L-15.95 13.55 Q-16.75 13.55 -17.85 12.65 -18.95 11.7 -18.95 11.0 L-19.6 10.9 Q-20.1 10.75 -20.1 10.55 -20.1 10.25 -19.7 10.1 -19.25 9.9 -18.95 9.75 -19.15 9.7 -19.75 9.35 L-20.45 8.9 -20.35 8.75 -20.2 8.8 -20.2 8.75 -19.75 8.65 Q-19.75 8.4 -19.45 8.35 L-19.15 8.3 -18.35 8.35 -16.5 6.5 Q-14.25 4.3 -13.45 4.0 -12.95 3.6 -12.25 3.2 -10.55 2.0 -9.3 1.6 L-8.45 1.1 Q-5.9 -0.3 -4.2 -1.5 -3.6 -1.95 -2.9 -2.5 L-1.9 -3.35 -1.8 -3.4 -0.65 -4.5 1.7 -6.55 3.3 -8.25 Q4.8 -9.7 5.15 -9.7 5.75 -9.7 6.1 -9.1 6.4 -8.55 6.4 -7.9 L6.4 -7.75 Q6.5 -7.75 6.4 -7.75 L6.5 -7.7 6.55 -7.5 6.3 -7.3 M4.8 -7.75 L5.0 -7.95 Q3.3 -6.15 2.75 -5.7 L0.95 -4.25 0.25 -3.5 Q-0.5 -2.75 -0.55 -2.75 -4.05 0.9 -5.35 1.45 -5.7 1.55 -6.25 1.6 -6.85 1.65 -7.35 1.9 -7.65 2.05 -8.4 2.45 L-9.7 3.1 -10.15 3.25 Q-10.35 3.35 -10.9 3.75 -11.2 4.0 -11.45 4.35 L-11.95 4.95 Q-12.5 5.6 -13.15 5.6 -14.1 6.5 -14.15 6.5 L-16.15 8.55 -16.25 8.65 -16.5 8.85 -16.6 8.8 -16.45 8.55 -16.35 8.4 -14.3 6.25 -13.75 5.75 Q-13.25 5.3 -13.2 5.3 -10.7 3.1 -9.65 2.45 L-9.85 2.55 -10.3 2.75 Q-10.9 3.4 -11.95 3.95 -12.85 4.45 -13.25 4.55 L-13.95 5.05 Q-14.35 5.5 -15.0 6.4 -16.25 7.85 -17.6 8.5 -17.05 8.65 -16.55 8.95 -15.3 9.55 -15.1 10.35 L-15.25 10.65 -15.3 10.55 Q-15.3 10.7 -15.4 10.85 L-15.55 11.05 -15.5 10.95 Q-15.45 10.95 -15.3 10.95 -15.1 10.95 -15.0 11.0 L-14.9 11.05 -14.9 11.1 -14.8 11.15 -14.75 11.25 -14.8 11.3 Q-14.75 11.5 -14.75 11.7 -14.75 12.05 -14.8 12.2 L-15.05 12.8 -15.0 12.75 -14.9 12.7 -14.7 12.45 -14.65 12.35 Q-13.65 11.3 -11.75 9.45 L-11.25 9.0 -11.0 8.7 -10.8 8.5 Q-10.9 8.3 -10.9 8.1 L-10.85 7.65 -10.9 7.65 -11.05 7.8 -11.1 8.05 -11.2 8.15 -13.8 10.45 -13.9 10.5 Q-13.95 10.5 -13.95 10.3 -13.95 10.15 -13.9 10.05 L-13.6 9.8 Q-12.7 8.8 -12.7 8.75 -11.7 7.75 -11.2 7.45 L-11.05 7.35 -10.8 7.2 Q-10.7 7.1 -10.6 7.1 L-10.55 7.1 -10.3 6.9 -10.25 6.9 -10.2 6.95 -10.25 7.0 -10.1 7.0 -10.0 7.1 -10.0 7.2 -10.1 7.4 -10.15 7.65 Q-10.15 7.9 -9.95 8.3 L-9.75 8.65 Q-9.5 8.9 -9.35 9.5 -9.25 10.05 -9.25 11.1 -9.2 11.15 -9.25 11.2 L-9.3 11.3 -9.0 11.1 Q-8.8 11.2 -8.7 11.55 -8.65 11.25 -8.55 11.05 L-8.55 10.65 -8.5 10.5 -8.45 10.4 -8.3 9.55 Q-8.15 8.65 -8.15 7.9 L-8.05 7.5 -8.0 7.1 Q-8.0 6.75 -8.1 6.4 -8.2 6.15 -8.3 6.0 L-8.55 5.95 -8.65 5.95 -8.85 6.05 Q-9.15 6.2 -9.35 6.25 L-9.5 6.35 Q-9.55 6.4 -9.55 6.25 L-9.55 6.15 -9.5 6.1 -9.7 6.15 Q-10.25 6.4 -10.3 6.4 L-10.5 6.35 -10.55 6.3 Q-10.6 6.25 -10.6 6.1 -10.6 6.0 -10.5 5.85 L-9.75 4.95 -9.45 4.85 -9.3 4.9 Q-9.2 4.9 -9.15 4.95 L-9.5 5.2 Q-9.7 5.35 -10.05 5.85 -9.35 5.85 -8.1 4.85 -6.9 3.85 -6.9 3.2 L-6.9 3.0 -6.95 3.05 -6.95 2.95 Q-7.45 3.3 -8.7 3.85 -9.85 4.45 -10.6 5.25 L-12.3 7.0 Q-13.95 8.7 -15.35 9.45 L-15.4 9.45 Q-15.45 9.45 -15.45 9.25 -15.45 8.85 -14.3 7.9 -13.0 6.9 -12.7 6.6 L-11.05 4.8 Q-10.1 4.1 -9.15 3.45 -7.55 2.4 -7.1 2.4 -6.8 2.4 -6.65 2.55 -6.45 2.65 -6.45 2.85 -6.45 3.0 -6.6 3.35 -6.7 3.65 -6.7 3.8 -6.7 4.55 -8.45 5.55 L-8.55 5.6 -8.35 5.55 -8.15 5.6 Q-7.3 4.7 -6.65 4.4 L-6.55 4.4 -4.45 2.15 -1.35 -0.9 -1.4 -0.9 -1.45 -0.85 -1.65 -0.75 -1.7 -0.7 Q-1.75 -0.7 -1.75 -0.85 L-1.45 -1.15 Q-1.2 -2.05 2.35 -4.85 L3.7 -5.9 Q5.5 -7.65 5.6 -8.0 L5.5 -8.5 5.35 -8.6 Q5.15 -8.8 5.1 -9.05 L4.25 -8.2 Q4.0 -7.85 3.1 -6.95 2.05 -5.95 0.9 -4.95 -1.3 -2.75 -2.3 -2.2 L-2.45 -2.05 Q-2.55 -2.0 -2.65 -2.0 L-2.75 -1.95 Q-3.5 -1.35 -4.2 -0.85 -5.9 0.45 -8.0 1.5 -8.2 1.7 -8.75 2.0 L-8.35 1.85 -6.95 1.45 Q-5.0 0.85 -3.4 -0.55 -1.75 -2.2 -0.55 -3.1 L2.05 -5.6 Q4.05 -7.5 4.45 -7.5 4.6 -7.5 4.8 -7.75 M-9.35 6.65 Q-8.9 6.65 -8.7 7.4 -8.55 7.95 -8.55 8.65 -8.55 9.1 -8.6 9.35 L-8.7 10.15 Q-8.9 9.8 -8.9 8.9 L-8.9 8.1 Q-8.9 6.95 -9.35 6.95 -9.45 6.95 -9.6 7.15 L-9.65 7.15 -9.7 7.1 Q-9.7 6.95 -9.6 6.8 -9.5 6.65 -9.35 6.65 M-19.5 9.05 Q-18.95 9.25 -18.7 9.45 L-18.65 9.5 -18.65 9.6 Q-18.6 9.65 -18.6 9.7 -18.6 9.75 -18.7 9.9 L-19.0 10.4 -18.6 10.45 -18.55 10.65 -18.55 10.85 Q-18.35 11.8 -17.45 12.35 -16.75 12.8 -15.8 12.95 L-15.75 12.6 -15.9 12.65 Q-16.6 12.65 -17.55 11.95 -18.5 11.2 -18.5 10.65 -18.5 10.15 -18.35 9.95 -18.15 9.45 -17.45 9.45 -17.15 9.45 -16.75 9.95 -16.4 10.35 -16.4 10.55 -16.4 10.9 -16.6 11.15 -16.8 11.35 -17.0 11.35 -17.3 11.35 -17.5 11.15 -17.65 11.0 -17.65 10.75 L-17.65 10.55 -17.6 10.4 -17.25 10.3 Q-17.2 10.35 -17.15 10.55 L-17.1 10.85 -16.85 10.85 Q-16.8 10.85 -16.8 10.55 -16.8 10.35 -17.15 10.15 -17.4 9.95 -17.55 9.95 L-17.9 10.0 -17.95 10.1 -18.0 10.35 Q-18.0 11.1 -17.05 11.7 -16.6 11.95 -15.65 12.3 L-15.6 12.25 Q-15.45 11.8 -15.3 11.55 L-15.55 11.55 -16.45 11.6 -16.5 11.55 -16.55 11.3 Q-16.55 11.15 -16.35 11.05 -15.85 10.75 -15.4 10.45 L-15.8 10.1 -15.8 10.15 Q-16.2 9.65 -17.45 9.3 L-18.65 8.95 -18.75 9.0 -18.85 8.9 -19.1 9.0 -19.5 9.05" fill="#111111" fill-rule="evenodd" stroke="none"/>
    <path d="M-9.35 6.65 Q-9.5 6.65 -9.6 6.8 -9.7 6.95 -9.7 7.1 L-9.65 7.15 -9.6 7.15 Q-9.45 6.95 -9.35 6.95 -8.9 6.95 -8.9 8.1 L-8.9 8.9 Q-8.9 9.8 -8.7 10.15 L-8.6 9.35 Q-8.55 9.1 -8.55 8.65 -8.55 7.95 -8.7 7.4 -8.9 6.65 -9.35 6.65 M4.8 -7.75 Q4.6 -7.5 4.45 -7.5 4.05 -7.5 2.05 -5.6 L-0.55 -3.1 Q-1.75 -2.2 -3.4 -0.55 -5.0 0.85 -6.95 1.45 L-8.35 1.85 -8.75 2.0 Q-8.2 1.7 -8.0 1.5 -5.9 0.45 -4.2 -0.85 -3.5 -1.35 -2.75 -1.95 L-2.65 -2.0 Q-2.55 -2.0 -2.45 -2.05 L-2.3 -2.2 Q-1.3 -2.75 0.9 -4.95 2.05 -5.95 3.1 -6.95 4.0 -7.85 4.25 -8.2 L5.1 -9.05 Q5.15 -8.8 5.35 -8.6 L5.5 -8.5 5.6 -8.0 Q5.5 -7.65 3.7 -5.9 L2.35 -4.85 Q-1.2 -2.05 -1.45 -1.15 L-1.75 -0.85 Q-1.75 -0.7 -1.7 -0.7 L-1.65 -0.75 -1.45 -0.85 -1.4 -0.9 -1.35 -0.9 -4.45 2.15 -6.55 4.4 -6.65 4.4 Q-7.3 4.7 -8.15 5.6 L-8.35 5.55 -8.55 5.6 -8.45 5.55 Q-6.7 4.55 -6.7 3.8 -6.7 3.65 -6.6 3.35 -6.45 3.0 -6.45 2.85 -6.45 2.65 -6.65 2.55 -6.8 2.4 -7.1 2.4 -7.55 2.4 -9.15 3.45 -10.1 4.1 -11.05 4.8 L-12.7 6.6 Q-13.0 6.9 -14.3 7.9 -15.45 8.85 -15.45 9.25 -15.45 9.45 -15.4 9.45 L-15.35 9.45 Q-13.95 8.7 -12.3 7.0 L-10.6 5.25 Q-9.85 4.45 -8.7 3.85 -7.45 3.3 -6.95 2.95 L-6.95 3.05 -6.9 3.0 -6.9 3.2 Q-6.9 3.85 -8.1 4.85 -9.35 5.85 -10.05 5.85 -9.7 5.35 -9.5 5.2 L-9.15 4.95 Q-9.2 4.9 -9.3 4.9 L-9.45 4.85 -9.75 4.95 -10.5 5.85 Q-10.6 6.0 -10.6 6.1 -10.6 6.25 -10.55 6.3 L-10.5 6.35 -10.3 6.4 Q-10.25 6.4 -9.7 6.15 L-9.5 6.1 -9.55 6.15 -9.55 6.25 Q-9.55 6.4 -9.5 6.35 L-9.35 6.25 Q-9.15 6.2 -8.85 6.05 L-8.65 5.95 -8.55 5.95 -8.3 6.0 Q-8.2 6.15 -8.1 6.4 -8.0 6.75 -8.0 7.1 L-8.05 7.5 -8.15 7.9 Q-8.15 8.65 -8.3 9.55 L-8.45 10.4 -8.5 10.5 -8.55 10.65 -8.55 11.05 Q-8.65 11.25 -8.7 11.55 -8.8 11.2 -9.0 11.1 L-9.3 11.3 -9.25 11.2 Q-9.2 11.15 -9.25 11.1 -9.25 10.05 -9.35 9.5 -9.5 8.9 -9.75 8.65 L-9.95 8.3 Q-10.15 7.9 -10.15 7.65 L-10.1 7.4 -10.0 7.2 -10.0 7.1 -10.1 7.0 -10.25 7.0 -10.2 6.95 -10.25 6.9 -10.3 6.9 -10.55 7.1 -10.6 7.1 Q-10.7 7.1 -10.8 7.2 L-11.05 7.35 -11.2 7.45 Q-11.7 7.75 -12.7 8.75 -12.7 8.8 -13.6 9.8 L-13.9 10.05 Q-13.95 10.15 -13.95 10.3 -13.95 10.5 -13.9 10.5 L-13.8 10.45 -11.2 8.15 -11.1 8.05 -11.05 7.8 -10.9 7.65 -10.85 7.65 -10.9 8.1 Q-10.9 8.3 -10.8 8.5 L-11.0 8.7 -11.25 9.0 -11.75 9.45 Q-13.65 11.3 -14.65 12.35 L-14.7 12.45 -14.9 12.7 -15.0 12.75 -15.05 12.8 -14.8 12.2 Q-14.75 12.05 -14.75 11.7 -14.75 11.5 -14.8 11.3 L-14.75 11.25 -14.8 11.15 -14.9 11.1 -14.9 11.05 -15.0 11.0 Q-15.1 10.95 -15.3 10.95 -15.45 10.95 -15.5 10.95 L-15.55 11.05 -15.4 10.85 Q-15.3 10.7 -15.3 10.55 L-15.25 10.65 -15.1 10.35 Q-15.3 9.55 -16.55 8.95 -17.05 8.65 -17.6 8.5 -16.25 7.85 -15.0 6.4 -14.35 5.5 -13.95 5.05 L-13.25 4.55 Q-12.85 4.45 -11.95 3.95 -10.9 3.4 -10.3 2.75 L-9.85 2.55 -9.65 2.45 Q-10.7 3.1 -13.2 5.3 -13.25 5.3 -13.75 5.75 L-14.3 6.25 -16.35 8.4 -16.45 8.55 -16.6 8.8 -16.5 8.85 -16.25 8.65 -16.15 8.55 -14.15 6.5 Q-14.1 6.5 -13.15 5.6 -12.5 5.6 -11.95 4.95 L-11.45 4.35 Q-11.2 4.0 -10.9 3.75 -10.35 3.35 -10.15 3.25 L-9.7 3.1 -8.4 2.45 Q-7.65 2.05 -7.35 1.9 -6.85 1.65 -6.25 1.6 -5.7 1.55 -5.35 1.45 -4.05 0.9 -0.55 -2.75 -0.5 -2.75 0.25 -3.5 L0.95 -4.25 2.75 -5.7 Q3.3 -6.15 5.0 -7.95 L4.8 -7.75" fill="#6e5827" fill-rule="evenodd" stroke="none"/>
    <path d="M-19.5 9.05 L-19.1 9.0 -18.85 8.9 -18.75 9.0 -18.65 8.95 -17.45 9.3 Q-16.2 9.65 -15.8 10.15 L-15.8 10.1 -15.4 10.45 Q-15.85 10.75 -16.35 11.05 -16.55 11.15 -16.55 11.3 L-16.5 11.55 -16.45 11.6 -15.55 11.55 -15.3 11.55 Q-15.45 11.8 -15.6 12.25 L-15.65 12.3 Q-16.6 11.95 -17.05 11.7 -18.0 11.1 -18.0 10.35 L-17.95 10.1 -17.9 10.0 -17.55 9.95 Q-17.4 9.95 -17.15 10.15 -16.8 10.35 -16.8 10.55 -16.8 10.85 -16.85 10.85 L-17.1 10.85 -17.15 10.55 Q-17.2 10.35 -17.25 10.3 L-17.6 10.4 -17.65 10.55 -17.65 10.75 Q-17.65 11.0 -17.5 11.15 -17.3 11.35 -17.0 11.35 -16.8 11.35 -16.6 11.15 -16.4 10.9 -16.4 10.55 -16.4 10.35 -16.75 9.95 -17.15 9.45 -17.45 9.45 -18.15 9.45 -18.35 9.95 -18.5 10.15 -18.5 10.65 -18.5 11.2 -17.55 11.95 -16.6 12.65 -15.9 12.65 L-15.75 12.6 -15.8 12.95 Q-16.75 12.8 -17.45 12.35 -18.35 11.8 -18.55 10.85 L-18.55 10.65 -18.6 10.45 -19.0 10.4 -18.7 9.9 Q-18.6 9.75 -18.6 9.7 -18.6 9.65 -18.65 9.6 L-18.65 9.5 -18.7 9.45 Q-18.95 9.25 -19.5 9.05" fill="#ccad70" fill-rule="evenodd" stroke="none"/>
  </g>
</svg>
