<?xml version="1.0" encoding="UTF-8" standalone="no"?>
<svg xmlns:ffdec="https://www.free-decompiler.com/flash" xmlns:xlink="http://www.w3.org/1999/xlink" ffdec:objectType="shape" height="19.25px" width="14.55px" xmlns="http://www.w3.org/2000/svg">
  <g transform="matrix(1.0, 0.0, 0.0, 1.0, 2.05, 7.15)">
    <path d="M6.15 -7.1 L8.95 -7.15 9.3 -6.15 9.3 -6.1 8.9 -5.75 Q7.2 -4.0 7.2 -2.15 7.2 -0.9 7.9 -0.35 8.25 -0.05 9.55 0.4 10.75 0.8 11.4 1.4 12.05 2.0 12.5 3.0 12.45 5.2 11.25 8.3 L10.6 9.1 9.65 10.25 9.4 10.45 Q8.85 10.95 8.3 11.35 L7.2 11.65 6.9 11.7 5.35 12.05 5.25 12.1 Q2.7 11.6 1.3 10.7 0.85 10.4 0.4 10.0 L0.1 9.65 0.05 9.7 0.05 9.65 -0.1 9.45 Q-0.15 9.45 -0.25 9.2 L-0.4 9.0 Q-0.8 8.45 -0.95 7.4 -1.1 6.25 -1.2 5.75 -1.35 4.95 -1.7 2.3 -2.05 -0.3 -2.05 -0.75 L-2.05 -1.5 -1.75 -2.75 -1.7 -3.0 -1.55 -3.45 Q-1.3 -3.85 -0.85 -4.25 -0.5 -4.55 0.4 -5.2 1.15 -5.75 1.45 -6.1 1.7 -6.4 1.85 -6.7 L2.0 -6.75 2.25 -6.8 2.6 -6.85 2.85 -6.9 6.15 -7.1 M7.95 -5.55 L8.05 -5.7 8.25 -5.9 8.65 -6.4 8.8 -6.55 8.55 -6.55 8.05 -6.6 6.65 -6.6 4.5 -6.6 4.0 -6.55 3.65 -6.55 3.15 -6.5 2.85 -6.45 2.4 -6.45 2.25 -6.4 2.1 -6.4 2.05 -6.2 2.05 -6.15 2.0 -6.1 2.0 -6.0 1.95 -6.0 1.95 -5.95 1.75 -5.7 1.75 -5.65 1.7 -5.65 1.6 -5.55 Q1.35 -5.4 0.9 -5.15 L0.7 -5.05 0.55 -4.95 0.4 -4.9 Q0.0 -4.6 -0.35 -4.3 L-0.7 -3.85 -0.8 -3.7 -0.85 -3.55 Q-1.65 -2.3 -1.65 -0.8 L-1.45 0.45 -1.1 2.85 -0.85 4.5 -0.8 4.6 -0.65 5.5 Q-0.6 5.9 -0.5 6.8 -0.25 7.9 0.05 8.45 L0.0 8.55 0.1 8.65 0.25 8.95 0.3 8.95 0.3 9.0 0.65 9.35 1.25 9.9 Q2.05 10.45 3.0 10.75 L3.1 10.85 3.2 10.85 Q3.75 11.25 5.0 11.25 L6.1 11.15 7.0 10.95 7.1 10.9 Q7.7 10.8 8.4 10.35 8.85 10.1 9.25 9.7 L9.35 9.6 Q10.2 9.3 11.0 7.4 11.4 6.5 11.6 5.7 L11.65 5.65 11.65 5.5 Q11.8 4.85 11.85 4.35 L11.85 4.2 11.9 4.05 11.9 3.9 11.85 3.3 11.85 3.25 Q11.75 2.75 11.4 2.3 11.1 1.95 10.75 1.65 L10.25 1.3 Q10.1 1.2 9.95 1.15 L9.85 1.1 8.95 0.8 8.55 0.7 Q8.1 0.6 7.75 0.4 6.7 -0.05 6.45 -1.15 L6.4 -1.35 Q6.4 -1.6 6.4 -1.9 6.4 -2.5 6.55 -3.15 6.75 -3.85 7.1 -4.45 7.45 -5.0 7.95 -5.55 M2.2 -3.5 L2.35 -2.6 2.55 -1.05 2.4 0.15 2.1 1.0 Q1.4 2.7 0.5 2.75 L0.45 2.75 Q-0.1 2.75 -0.5 1.0 L-0.55 0.85 -0.55 0.7 -0.6 0.65 -0.65 0.35 -0.7 0.1 Q-0.8 -0.5 -0.85 -1.1 -0.85 -2.3 -0.3 -3.25 -0.05 -3.65 0.25 -3.9 0.4 -3.9 0.45 -3.95 L0.55 -4.1 Q0.7 -4.2 0.9 -4.25 L1.25 -4.25 Q1.6 -4.2 1.9 -3.95 L2.1 -3.65 2.15 -3.65 2.15 -3.6 2.2 -3.55 2.2 -3.5 M4.65 -5.15 L4.65 -5.15 M1.65 -3.25 L1.65 -3.3 1.6 -3.3 1.55 -3.35 Q1.5 -3.55 1.3 -3.6 1.0 -3.75 0.65 -3.4 0.3 -3.15 0.1 -2.75 -0.05 -2.55 -0.15 -2.3 -0.4 -1.75 -0.4 -0.75 -0.4 -0.3 -0.3 0.15 L-0.3 0.25 -0.25 0.5 -0.2 0.55 -0.1 1.05 Q0.2 2.0 0.6 2.0 1.0 2.0 1.3 1.65 1.65 1.3 1.9 0.5 2.2 -0.45 2.2 -1.0 L2.15 -1.65 Q2.1 -2.2 2.0 -2.5 1.9 -3.05 1.65 -3.25 M7.65 -0.25 L7.8 -0.15 Q8.0 0.0 8.3 0.2 L8.35 0.2 Q7.95 -0.05 7.75 -0.2 L7.65 -0.25" fill="#000000" fill-rule="evenodd" stroke="none"/>
    <path d="M10.5 1.85 L10.6 2.0 10.65 2.05 10.5 1.85 M2.6 8.5 L2.6 8.6 2.55 8.6 2.6 8.5" fill="#d18a5a" fill-rule="evenodd" stroke="none"/>
    <path d="M7.95 -5.55 Q7.85 -6.3 6.45 -5.7 L4.6 -4.7 Q3.7 -4.25 3.55 -3.55 3.55 -2.85 3.45 -2.5 3.3 -2.05 3.0 -0.3 2.7 1.5 2.7 1.9 2.7 2.05 2.75 2.15 2.85 2.35 3.15 2.35 3.3 2.35 4.5 1.75 L5.9 1.05 6.15 0.95 Q5.25 1.45 4.4 2.05 3.45 2.65 3.45 2.75 3.45 3.25 2.85 5.05 2.3 6.65 2.25 7.5 1.25 7.2 0.5 6.05 L-0.15 4.95 Q-0.5 4.5 -0.8 4.5 L-0.85 4.5 -1.1 2.85 -1.45 0.45 -1.25 0.45 -1.2 0.35 -1.2 0.25 Q-1.15 0.8 -1.0 1.35 -0.65 2.95 0.1 2.95 0.35 2.95 0.45 2.8 L0.5 2.75 Q1.4 2.7 2.1 1.0 L2.4 0.15 2.55 -1.05 2.35 -2.6 2.2 -3.5 2.1 -4.15 1.8 -4.9 0.95 -4.85 1.0 -4.9 Q1.55 -5.25 1.95 -5.3 L1.95 -5.4 1.9 -5.45 Q0.5 -5.05 -0.35 -4.3 0.0 -4.6 0.4 -4.9 L0.55 -4.95 0.7 -5.05 0.9 -5.15 Q1.35 -5.4 1.6 -5.55 L2.05 -5.45 2.35 -5.4 Q2.45 -5.4 3.3 -5.7 4.2 -6.05 4.35 -6.05 5.45 -6.2 6.15 -6.4 6.5 -6.5 6.65 -6.6 L8.05 -6.6 8.55 -6.55 8.8 -6.55 8.65 -6.4 8.25 -5.9 8.05 -5.7 7.95 -5.55 M2.85 -6.45 L3.15 -6.5 3.65 -6.55 2.85 -6.45 M4.65 -5.15 L4.65 -5.15 M2.4 -6.45 L2.3 -6.4 2.05 -6.15 2.05 -6.2 2.1 -6.4 2.25 -6.4 2.4 -6.45 M5.6 6.4 Q5.95 6.1 6.25 5.7 6.95 4.75 7.45 4.25 7.95 3.7 9.2 2.5 L10.3 1.45 Q10.3 1.35 10.25 1.3 L10.75 1.65 Q11.1 1.95 11.4 2.3 L11.0 2.6 Q10.65 2.9 10.05 3.55 L9.4 4.3 Q8.6 5.0 5.65 6.35 L5.6 6.4 M10.5 1.85 L10.65 2.05 10.6 2.0 10.5 1.85 M7.55 1.0 Q7.6 1.05 7.4 1.15 L7.2 1.2 Q7.45 1.0 7.55 1.0 M2.8 7.55 L3.3 6.9 4.2 5.6 Q5.45 3.85 6.95 2.95 L5.8 4.55 Q4.75 6.15 4.75 6.5 L4.75 6.6 4.85 6.75 2.85 7.55 2.8 7.55 M-1.2 0.15 L-1.25 -0.05 -1.35 -0.35 Q-1.35 -0.65 -1.15 -1.7 -0.95 -2.7 -0.9 -2.85 L-0.7 -3.15 Q-1.25 -1.95 -1.25 -0.3 L-1.2 0.15" fill="#e2b492" fill-rule="evenodd" stroke="none"/>
    <path d="M6.15 0.95 L5.9 1.05 4.5 1.75 Q3.3 2.35 3.15 2.35 2.85 2.35 2.75 2.15 2.7 2.05 2.7 1.9 2.7 1.5 3.0 -0.3 3.3 -2.05 3.45 -2.5 3.55 -2.85 3.55 -3.55 3.7 -4.25 4.6 -4.7 L6.45 -5.7 Q7.85 -6.3 7.95 -5.55 7.45 -5.0 7.1 -4.45 6.75 -3.85 6.55 -3.15 6.4 -2.5 6.4 -1.9 6.4 -1.6 6.4 -1.35 L6.45 -1.25 6.45 -1.15 Q6.7 -0.05 7.75 0.4 L7.5 0.5 7.4 0.55 6.25 0.9 6.15 0.95 M0.95 -4.85 L1.8 -4.9 2.1 -4.15 2.2 -3.5 2.2 -3.55 2.15 -3.6 2.15 -3.65 2.1 -3.65 1.9 -3.95 1.7 -4.15 Q1.55 -4.25 1.45 -4.2 L1.25 -4.25 0.9 -4.25 Q0.7 -4.2 0.55 -4.1 L0.45 -3.95 Q0.4 -3.9 0.25 -3.9 -0.05 -3.65 -0.3 -3.25 -0.85 -2.3 -0.85 -1.1 -0.8 -0.5 -0.7 0.1 L-0.65 0.35 -0.6 0.6 -0.5 1.0 Q-0.1 2.75 0.45 2.75 L0.5 2.75 0.45 2.8 Q0.35 2.95 0.1 2.95 -0.65 2.95 -1.0 1.35 -1.15 0.8 -1.2 0.25 L-1.2 0.15 -1.25 -0.3 Q-1.25 -1.95 -0.7 -3.15 L-0.55 -3.4 -0.55 -3.45 -0.5 -3.55 -0.45 -3.7 -0.4 -3.7 -0.35 -3.85 0.75 -4.8 0.95 -4.85 M-0.85 4.5 L-0.8 4.5 Q-0.5 4.5 -0.15 4.95 L0.5 6.05 Q1.25 7.2 2.25 7.5 L2.6 7.55 2.8 7.55 2.85 7.55 4.85 6.75 5.6 6.4 5.65 6.35 Q8.6 5.0 9.4 4.3 L10.05 3.55 Q10.65 2.9 11.0 2.6 L11.4 2.3 Q11.75 2.75 11.85 3.25 L11.85 3.3 11.9 3.9 11.9 4.05 11.85 4.2 11.85 4.35 Q11.8 4.85 11.65 5.5 L11.65 5.65 11.6 5.7 Q11.4 6.5 11.0 7.4 10.2 9.3 9.35 9.6 L9.25 9.7 Q8.85 10.1 8.4 10.35 7.7 10.8 7.1 10.9 L7.0 10.95 6.1 11.15 5.0 11.25 Q3.75 11.25 3.2 10.85 L3.1 10.85 3.0 10.75 Q2.05 10.45 1.25 9.9 L0.65 9.35 0.3 9.0 0.3 8.95 0.25 8.95 0.1 8.65 0.0 8.55 0.05 8.45 Q-0.25 7.9 -0.5 6.8 -0.6 5.9 -0.65 5.5 L-0.8 4.6 -0.85 4.5 M2.6 8.5 L2.55 8.6 2.6 8.6 2.6 8.5" fill="#b07248" fill-rule="evenodd" stroke="none"/>
    <path d="M6.65 -6.6 Q6.5 -6.5 6.15 -6.4 5.45 -6.2 4.35 -6.05 4.2 -6.05 3.3 -5.7 2.45 -5.4 2.35 -5.4 L2.05 -5.45 1.6 -5.55 1.7 -5.65 1.75 -5.65 1.75 -5.7 1.95 -5.95 1.95 -6.0 2.0 -6.0 2.0 -6.1 2.05 -6.15 2.3 -6.4 2.4 -6.45 2.85 -6.45 3.65 -6.55 4.0 -6.55 4.5 -6.6 6.65 -6.6 M-0.35 -4.3 Q0.5 -5.05 1.9 -5.45 L1.95 -5.4 1.95 -5.3 Q1.55 -5.25 1.0 -4.9 L0.95 -4.85 0.75 -4.8 -0.35 -3.85 -0.4 -3.7 -0.45 -3.7 -0.5 -3.55 -0.55 -3.45 -0.55 -3.4 -0.7 -3.15 -0.9 -2.85 Q-0.95 -2.7 -1.15 -1.7 -1.35 -0.65 -1.35 -0.35 L-1.25 -0.05 -1.2 0.15 -1.2 0.25 -1.2 0.35 -1.25 0.45 -1.45 0.45 -1.65 -0.8 Q-1.65 -2.3 -0.85 -3.55 L-0.8 -3.7 -0.7 -3.85 -0.35 -4.3 M2.25 7.5 Q2.3 6.65 2.85 5.05 3.45 3.25 3.45 2.75 3.45 2.65 4.4 2.05 5.25 1.45 6.15 0.95 L6.25 0.9 7.4 0.55 7.5 0.5 7.75 0.4 Q8.1 0.6 8.55 0.7 L8.95 0.8 9.85 1.1 9.95 1.15 Q10.1 1.2 10.25 1.3 10.3 1.35 10.3 1.45 L9.2 2.5 Q7.95 3.7 7.45 4.25 6.95 4.75 6.25 5.7 5.95 6.1 5.6 6.4 L4.85 6.75 4.75 6.6 4.75 6.5 Q4.75 6.15 5.8 4.55 L6.95 2.95 Q5.45 3.85 4.2 5.6 L3.3 6.9 2.8 7.55 2.6 7.55 2.25 7.5 M7.55 1.0 Q7.45 1.0 7.2 1.2 L7.4 1.15 Q7.6 1.05 7.55 1.0" fill="#e8cbbd" fill-rule="evenodd" stroke="none"/>
  </g>
</svg>
