<?xml version="1.0" encoding="UTF-8" standalone="no"?>
<svg xmlns:ffdec="https://www.free-decompiler.com/flash" xmlns:xlink="http://www.w3.org/1999/xlink" ffdec:objectType="shape" height="31.2px" width="34.25px" xmlns="http://www.w3.org/2000/svg">
  <g transform="matrix(1.0, 0.0, 0.0, 1.0, 19.8, 15.85)">
    <path d="M-10.85 4.55 L-11.0 4.25 Q-10.4 3.75 -9.25 2.8 L-9.0 2.65 -8.95 2.7 -7.85 1.85 Q-6.1 0.45 -5.8 0.15 -5.75 0.05 -5.75 0.2 L-4.4 -0.9 -3.3 -1.75 -3.3 -1.8 -1.4 -3.3 -0.35 -4.15 0.5 -4.8 Q3.2 -7.85 6.45 -10.9 11.75 -15.85 13.65 -15.85 L13.95 -15.85 Q14.25 -15.85 14.35 -15.55 14.45 -15.4 14.45 -15.2 14.45 -15.05 14.35 -14.8 L14.35 -14.65 Q14.35 -14.6 14.2 -14.45 L14.0 -14.0 10.15 -10.3 Q9.45 -9.5 7.1 -7.55 L6.4 -6.95 6.45 -6.85 Q5.35 -5.95 3.35 -4.4 L0.8 -2.5 -1.5 -0.75 Q-1.9 -0.3 -2.9 0.45 L-4.25 1.5 -6.6 3.45 -7.8 4.35 -7.75 4.4 -7.95 4.55 -8.0 4.5 -8.8 5.1 -9.75 5.75 -9.95 5.9 -10.6 4.95 -10.15 5.55 -10.0 5.45 -8.25 4.15 -8.25 4.1 -8.1 4.05 -8.05 3.95 -5.55 2.1 -2.45 -0.55 -1.4 -1.45 Q-0.35 -2.3 0.55 -2.9 L0.85 -3.1 1.65 -3.7 5.1 -6.35 6.1 -7.3 6.55 -7.75 9.05 -10.15 Q10.5 -11.5 11.75 -12.6 12.8 -13.8 13.55 -14.8 L13.55 -14.9 13.4 -15.15 Q12.45 -14.65 9.7 -12.6 6.55 -10.3 6.55 -9.7 6.55 -9.45 5.4 -8.5 L5.3 -8.4 Q4.7 -7.9 4.25 -7.65 L2.95 -6.45 2.8 -6.35 2.55 -6.1 Q1.15 -4.85 -0.15 -3.8 -1.55 -2.65 -2.8 -1.75 L-3.1 -1.5 Q-4.0 -0.8 -5.7 0.6 L-8.75 3.0 -8.65 3.15 -8.8 2.95 -8.85 3.0 -9.0 3.1 -10.85 4.5 -10.85 4.55" fill="#111111" fill-rule="evenodd" stroke="none"/>
    <path d="M-10.85 4.55 L-10.85 4.5 -9.0 3.1 -8.85 3.0 -8.8 2.95 -8.65 3.15 -8.75 3.0 -5.7 0.6 Q-4.0 -0.8 -3.1 -1.5 L-2.8 -1.75 Q-1.55 -2.65 -0.15 -3.8 1.15 -4.85 2.55 -6.1 L2.8 -6.35 2.95 -6.45 4.25 -7.65 Q4.7 -7.9 5.3 -8.4 L5.4 -8.5 Q6.55 -9.45 6.55 -9.7 6.55 -10.3 9.7 -12.6 12.45 -14.65 13.4 -15.15 L13.55 -14.9 13.55 -14.8 Q12.8 -13.8 11.75 -12.6 10.5 -11.5 9.05 -10.15 L6.55 -7.75 6.1 -7.3 5.1 -6.35 1.65 -3.7 0.85 -3.1 0.55 -2.9 Q-0.35 -2.3 -1.4 -1.45 L-2.45 -0.55 -5.55 2.1 -8.05 3.95 -8.1 4.05 -8.25 4.1 -8.25 4.15 -10.0 5.45 -10.15 5.55 -10.6 4.95 -10.85 4.55" fill="#6e5827" fill-rule="evenodd" stroke="none"/>
    <path d="M-12.4 8.55 L-12.05 8.8 -11.45 9.25 -10.75 9.8 -7.75 11.85 -7.6 11.75 -7.5 11.8 -7.45 11.8 -7.45 11.85 Q-7.45 11.95 -7.5 12.0 L-7.45 12.05 -7.55 12.15 -7.6 12.15 Q-8.1 12.65 -10.35 13.6 -12.6 14.55 -14.65 15.25 L-14.7 15.3 -14.8 15.3 -15.0 15.35 -14.85 15.25 -16.25 14.4 Q-17.25 13.8 -17.55 13.3 L-17.7 13.2 -18.6 12.4 -18.9 12.15 Q-20.7 10.7 -18.75 10.55 -17.9 10.3 -17.15 9.95 L-17.05 10.05 Q-17.15 9.75 -17.15 9.45 L-17.1 9.45 -16.75 9.3 -16.65 9.0 -16.5 8.6 Q-16.35 8.25 -16.1 7.95 L-15.65 7.5 Q-15.15 6.7 -14.25 6.0 L-13.6 5.55 -13.6 5.5 -13.65 5.45 Q-13.65 5.35 -13.45 5.35 L-13.3 5.35 -12.75 5.05 Q-11.55 4.05 -11.1 4.05 L-11.0 4.05 -10.95 4.15 -10.95 4.2 -10.9 4.25 Q-10.65 4.3 -10.25 5.0 -9.95 5.55 -9.85 5.9 L-9.8 6.0 -9.85 6.05 -9.85 6.1 Q-9.85 6.25 -9.95 6.3 L-10.05 6.15 -10.2 6.3 Q-11.75 7.8 -12.65 8.15 L-12.7 8.2 -12.85 8.2 -12.75 8.25 -12.4 8.55 M-10.2 5.85 L-10.25 5.8 -10.55 5.35 -11.2 4.35 -11.95 4.8 -12.95 5.45 Q-12.65 5.55 -12.35 5.75 -11.65 6.2 -11.55 6.85 L-10.2 5.85 M-9.15 11.3 Q-10.15 10.9 -11.85 9.55 L-13.05 8.5 -13.3 8.25 Q-13.4 8.25 -13.55 8.35 L-13.7 8.45 -13.75 8.55 Q-14.25 9.05 -15.75 9.7 L-16.15 9.85 -15.55 10.55 Q-14.95 11.3 -14.75 11.7 -15.25 11.45 -15.8 10.8 -16.25 10.3 -16.4 9.85 L-16.55 9.85 -16.55 10.1 Q-16.55 10.85 -15.4 11.9 L-15.35 11.9 Q-14.55 12.45 -14.0 12.85 L-14.2 12.65 -14.6 12.15 -14.55 12.05 -14.4 12.05 Q-14.3 12.05 -14.1 12.2 L-14.05 12.2 Q-13.9 12.35 -13.7 12.6 -13.25 13.1 -13.25 13.2 -13.25 13.35 -13.3 13.35 L-13.55 13.35 -13.65 13.4 -13.75 13.4 Q-14.2 13.4 -14.9 12.9 -15.55 12.4 -16.15 11.7 -16.85 10.85 -17.05 10.2 -17.8 10.45 -18.5 10.65 -18.6 10.75 -19.0 10.8 -19.3 10.95 -19.3 11.25 -19.3 11.35 -17.65 12.7 -15.9 14.15 -15.75 14.3 L-16.4 13.9 -16.2 14.05 Q-14.75 14.95 -14.65 15.15 -13.6 14.65 -11.6 13.7 L-7.95 11.95 -9.15 11.3 M-14.4 6.45 L-15.05 7.1 Q-15.2 7.4 -15.5 7.75 -15.75 8.2 -16.0 8.85 L-15.9 8.85 -16.0 9.0 -16.25 9.55 Q-15.0 8.95 -14.15 8.35 L-14.0 8.25 -13.9 8.1 -13.7 8.0 -13.55 7.95 -13.15 8.05 -11.85 7.05 -12.25 6.55 Q-12.8 5.95 -13.1 5.85 -13.05 5.8 -12.9 5.8 L-13.3 5.7 -14.05 6.15 -14.15 6.2 -14.4 6.45 M-15.2 7.4 L-15.2 7.4" fill="#111111" fill-rule="evenodd" stroke="none"/>
    <path d="M-12.7 8.2 L-12.6 8.25 Q-12.55 8.4 -12.4 8.55 L-12.75 8.25 -12.85 8.2 -12.7 8.2 M-15.2 7.4 L-15.2 7.4 M-14.4 6.45 L-14.15 6.2 -14.05 6.15 -13.3 5.7 -12.9 5.8 Q-13.05 5.8 -13.1 5.85 -12.8 5.95 -12.25 6.55 L-11.85 7.05 -13.15 8.05 -13.55 7.95 -13.7 8.0 -13.9 8.1 -14.0 8.25 -14.15 8.35 Q-15.0 8.95 -16.25 9.55 L-16.0 9.0 -15.9 8.85 -16.0 8.85 Q-15.75 8.2 -15.5 7.75 -15.2 7.4 -15.05 7.1 L-14.4 6.45 M-9.15 11.3 L-7.95 11.95 -11.6 13.7 Q-13.6 14.65 -14.65 15.15 -14.75 14.95 -16.2 14.05 L-16.4 13.9 -15.75 14.3 Q-15.9 14.15 -17.65 12.7 -19.3 11.35 -19.3 11.25 -19.3 10.95 -19.0 10.8 -18.6 10.75 -18.5 10.65 -17.8 10.45 -17.05 10.2 -16.85 10.85 -16.15 11.7 -15.55 12.4 -14.9 12.9 -14.2 13.4 -13.75 13.4 L-13.65 13.4 -13.55 13.35 -13.3 13.35 Q-13.25 13.35 -13.25 13.2 -13.25 13.1 -13.7 12.6 -13.9 12.35 -14.05 12.2 L-14.1 12.2 Q-14.3 12.05 -14.4 12.05 L-14.55 12.05 -14.6 12.15 -14.2 12.65 -14.0 12.85 Q-14.55 12.45 -15.35 11.9 L-15.4 11.9 Q-16.55 10.85 -16.55 10.1 L-16.55 9.85 -16.4 9.85 Q-16.25 10.3 -15.8 10.8 -15.25 11.45 -14.75 11.7 -14.95 11.3 -15.55 10.55 L-16.15 9.85 -15.75 9.7 Q-14.25 9.05 -13.75 8.55 L-13.7 8.45 -13.55 8.35 Q-13.4 8.25 -13.3 8.25 L-13.05 8.5 -11.85 9.55 Q-10.15 10.9 -9.15 11.3 M-10.2 5.85 L-11.55 6.85 Q-11.65 6.2 -12.35 5.75 -12.65 5.55 -12.95 5.45 L-11.95 4.8 -11.2 4.35 -10.55 5.35 -10.25 5.8 -10.2 5.85" fill="#8c8c8c" fill-rule="evenodd" stroke="none"/>
  </g>
</svg>
