<?xml version="1.0" encoding="UTF-8" standalone="no"?>
<svg xmlns:ffdec="https://www.free-decompiler.com/flash" xmlns:xlink="http://www.w3.org/1999/xlink" ffdec:objectType="shape" height="33.25px" width="39.95px" xmlns="http://www.w3.org/2000/svg">
  <g transform="matrix(1.0, 0.0, 0.0, 1.0, 25.5, 15.85)">
    <path d="M-10.6 4.95 L-10.0 5.45 -8.25 4.15 -8.25 4.1 -8.1 4.05 -8.05 3.95 -5.55 2.1 -2.45 -0.55 -1.4 -1.45 Q-0.35 -2.3 0.55 -2.9 L0.85 -3.1 1.65 -3.7 5.1 -6.35 6.1 -7.3 6.55 -7.75 9.05 -10.15 Q10.5 -11.5 11.75 -12.6 12.8 -13.8 13.55 -14.8 L13.55 -14.9 13.4 -15.15 Q12.45 -14.65 9.7 -12.6 6.55 -10.3 6.55 -9.7 6.55 -9.45 5.4 -8.5 L5.3 -8.4 Q4.7 -7.9 4.25 -7.65 L2.95 -6.45 2.8 -6.35 2.55 -6.1 Q1.15 -4.85 -0.15 -3.8 -1.55 -2.65 -2.8 -1.75 L-3.1 -1.5 Q-4.0 -0.8 -5.7 0.6 L-8.75 3.0 -8.65 3.15 -8.8 2.95 -8.85 3.0 -9.0 3.1 -10.85 4.5 -10.85 4.55 -11.0 4.25 Q-10.4 3.75 -9.25 2.8 L-9.0 2.65 -8.95 2.7 -7.85 1.85 Q-6.1 0.45 -5.8 0.15 -5.75 0.05 -5.75 0.2 L-4.4 -0.9 -3.3 -1.75 -3.3 -1.8 -1.4 -3.3 -0.35 -4.15 0.5 -4.8 Q3.2 -7.85 6.45 -10.9 11.75 -15.85 13.65 -15.85 L13.95 -15.85 Q14.25 -15.85 14.35 -15.55 14.45 -15.4 14.45 -15.2 14.45 -15.05 14.35 -14.8 L14.35 -14.65 Q14.35 -14.6 14.2 -14.45 L14.0 -14.0 10.15 -10.3 Q9.45 -9.5 7.1 -7.55 L6.4 -6.95 6.45 -6.85 Q5.35 -5.95 3.35 -4.4 L0.8 -2.5 -1.5 -0.75 Q-1.9 -0.3 -2.9 0.45 L-4.25 1.5 -6.6 3.45 -7.8 4.35 -7.75 4.4 -7.95 4.55 -8.0 4.5 -8.8 5.1 -9.75 5.75 -10.6 4.95" fill="#111111" fill-rule="evenodd" stroke="none"/>
    <path d="M-10.85 4.55 L-10.85 4.5 -9.0 3.1 -8.85 3.0 -8.8 2.95 -8.65 3.15 -8.75 3.0 -5.7 0.6 Q-4.0 -0.8 -3.1 -1.5 L-2.8 -1.75 Q-1.55 -2.65 -0.15 -3.8 1.15 -4.85 2.55 -6.1 L2.8 -6.35 2.95 -6.45 4.25 -7.65 Q4.7 -7.9 5.3 -8.4 L5.4 -8.5 Q6.55 -9.45 6.55 -9.7 6.55 -10.3 9.7 -12.6 12.45 -14.65 13.4 -15.15 L13.55 -14.9 13.55 -14.8 Q12.8 -13.8 11.75 -12.6 10.5 -11.5 9.05 -10.15 L6.55 -7.75 6.1 -7.3 5.1 -6.35 1.65 -3.7 0.85 -3.1 0.55 -2.9 Q-0.35 -2.3 -1.4 -1.45 L-2.45 -0.55 -5.55 2.1 -8.05 3.95 -8.1 4.05 -8.25 4.1 -8.25 4.15 -10.0 5.45 -10.6 4.95 -10.85 4.55" fill="#6e5827" fill-rule="evenodd" stroke="none"/>
    <path d="M-10.7 4.15 L-10.55 4.2 Q-10.15 4.35 -9.9 4.7 -9.6 5.2 -9.6 5.55 L-9.55 5.6 Q-9.6 5.7 -9.7 5.85 -9.75 6.0 -9.95 6.15 L-10.0 6.15 -10.4 6.45 -10.8 6.7 Q-10.4 7.35 -10.2 8.2 L-10.15 8.55 Q-10.0 9.0 -10.3 9.7 L-10.45 10.0 Q-10.65 10.35 -10.9 10.6 L-11.15 10.95 Q-11.2 11.05 -11.6 11.4 L-11.8 11.55 -12.1 11.75 -12.35 11.95 -12.8 12.25 -15.95 14.4 Q-16.25 14.55 -16.35 14.65 L-18.3 15.95 -18.65 16.2 Q-18.9 16.35 -19.15 16.55 -19.3 16.65 -20.2 17.0 -21.15 17.4 -21.5 17.4 L-21.5 17.35 -21.4 17.3 Q-21.4 17.05 -20.65 16.3 -19.9 15.6 -19.35 15.2 L-18.35 14.6 -17.3 13.85 -13.9 11.5 -13.1 10.85 -12.85 10.7 -12.7 10.6 -12.55 10.45 Q-12.4 10.25 -12.2 10.0 L-12.2 9.95 -12.15 9.75 Q-12.1 9.3 -12.1 8.9 L-12.1 8.6 -12.15 8.65 -12.35 8.9 Q-12.45 8.95 -12.7 9.15 L-13.15 9.5 -13.4 9.65 -13.6 9.75 -13.7 9.85 -17.3 12.25 -17.7 12.55 -18.3 12.95 -18.85 13.4 -19.4 13.8 -20.05 14.2 Q-20.65 14.6 -21.0 14.75 -22.0 15.2 -22.55 15.25 L-22.8 15.3 -22.85 15.25 -22.75 15.2 -22.7 15.15 Q-22.7 14.9 -21.95 14.2 -21.25 13.5 -20.65 13.1 L-19.7 12.45 -18.65 11.75 -15.35 9.5 -15.15 9.3 -14.9 9.1 -14.45 8.75 -14.45 8.7 -14.35 8.65 -13.6 8.1 -13.05 7.7 -12.9 7.15 -12.75 6.7 -13.5 6.85 -13.55 6.85 -13.9 7.05 -14.0 7.1 -14.6 7.55 -15.45 8.1 -15.45 8.15 -16.0 8.45 -19.4 10.75 -20.5 11.45 -21.4 12.15 Q-22.0 12.55 -22.9 12.95 -23.9 13.4 -24.1 13.3 L-24.2 13.4 -24.25 13.35 Q-24.1 13.05 -23.4 12.25 -22.75 11.6 -22.6 11.5 L-22.05 11.15 -21.75 10.9 -19.8 9.6 -19.4 9.3 -16.25 7.15 -15.85 6.85 -15.55 6.65 -15.5 6.6 -14.7 6.05 -14.4 5.85 -14.35 5.8 -14.55 5.7 -14.9 5.65 -15.4 5.65 -15.75 5.8 -15.95 5.85 -16.05 5.95 -16.3 6.15 -17.2 6.65 -21.7 9.65 -22.65 10.3 Q-23.25 10.7 -24.15 11.15 -25.1 11.6 -25.35 11.45 L-25.45 11.55 -25.5 11.55 Q-25.35 11.25 -24.65 10.45 -24.0 9.8 -23.85 9.65 L-23.3 9.35 -22.95 9.1 -21.05 7.8 -20.65 7.5 -17.5 5.35 Q-17.35 5.25 -17.1 5.05 L-16.5 4.65 -16.25 4.55 Q-15.8 4.25 -15.7 4.25 L-15.7 4.3 Q-15.3 4.15 -14.7 4.0 -13.55 3.8 -13.1 4.25 -12.5 4.4 -12.05 4.85 -12.0 4.75 -11.8 4.6 L-11.25 4.35 -11.15 4.3 -11.2 4.25 Q-11.25 4.3 -11.15 4.2 L-10.9 4.15 -10.9 4.1 -10.8 4.1 -10.7 4.15 M-11.15 4.7 L-11.4 4.85 -11.85 5.15 -11.8 5.2 -11.7 5.4 -11.65 5.6 Q-12.8 4.4 -14.0 4.3 L-14.95 4.45 Q-15.5 4.55 -16.25 4.85 L-16.35 4.9 -16.6 5.05 -16.85 5.25 -17.35 5.55 -20.55 7.7 -20.95 8.0 -22.85 9.3 -23.25 9.55 -24.1 10.35 -25.15 11.25 Q-24.35 11.05 -24.1 10.85 L-21.75 9.4 -20.8 8.75 -15.85 5.4 -15.8 5.4 Q-15.6 5.35 -15.4 5.3 -14.8 5.1 -14.4 5.35 L-14.4 5.4 Q-14.25 5.45 -14.2 5.6 L-14.15 5.65 -14.1 5.65 -14.05 5.7 -14.1 5.8 -14.05 5.9 -14.15 5.85 -14.2 5.95 -14.4 6.15 -14.6 6.3 -15.15 6.65 -15.1 6.7 -15.4 6.9 -16.15 7.35 -19.3 9.5 -19.75 9.8 -21.65 11.1 -22.05 11.35 -22.85 12.15 -23.9 13.1 Q-23.1 12.85 -22.85 12.7 L-20.5 11.2 -15.75 7.95 -14.85 7.25 -14.3 6.9 -14.3 6.85 -14.2 6.75 Q-13.85 6.55 -13.5 6.45 L-13.35 6.4 Q-13.3 6.3 -12.75 6.4 L-12.65 6.4 -12.45 6.6 -12.45 6.65 Q-12.25 7.05 -12.5 7.55 -12.65 7.8 -12.85 7.95 L-13.3 8.3 -13.7 8.6 -13.7 8.65 -18.5 11.95 -19.45 12.55 -21.7 14.25 Q-21.95 14.4 -22.45 15.05 L-22.4 15.05 -21.2 14.45 -20.15 13.95 -19.8 13.7 -18.35 12.7 -18.25 12.6 -17.75 12.3 -17.45 12.05 -16.35 11.3 -15.35 10.6 -14.2 9.85 -13.5 9.35 -12.85 8.9 -12.45 8.6 -12.2 8.45 Q-12.0 8.35 -11.9 8.35 -11.9 8.4 -12.0 8.5 L-11.95 8.5 -11.85 8.55 Q-11.6 8.95 -11.7 9.45 -11.65 9.85 -12.0 10.35 L-12.25 10.65 -12.25 10.7 -17.15 14.05 -18.15 14.7 -20.35 16.35 Q-20.6 16.5 -21.1 17.15 L-19.85 16.55 -18.8 16.05 -18.45 15.8 -16.55 14.5 -16.15 14.2 -12.95 12.05 -12.5 11.7 -12.25 11.5 -11.95 11.3 -11.85 11.25 Q-11.35 10.65 -11.05 10.2 -10.75 9.8 -10.6 9.4 -10.5 8.95 -10.55 8.45 L-10.6 8.1 Q-10.75 7.45 -11.15 6.65 L-11.2 6.65 -11.15 6.6 -11.15 6.45 -11.25 6.3 -11.25 6.15 -11.0 6.4 Q-10.95 6.25 -10.7 6.1 L-10.15 5.8 -10.1 5.8 -10.05 5.65 Q-9.95 5.25 -10.2 4.85 -10.4 4.55 -10.7 4.5 L-10.85 4.5 -11.15 4.7" fill="#111111" fill-rule="evenodd" stroke="none"/>
    <path d="M-11.15 4.7 L-10.85 4.5 -10.7 4.5 Q-10.4 4.55 -10.2 4.85 -9.95 5.25 -10.05 5.65 L-10.1 5.8 -10.15 5.8 -10.7 6.1 Q-10.95 6.25 -11.0 6.4 L-11.25 6.15 -11.25 6.3 -11.15 6.45 -11.15 6.6 -11.2 6.65 -11.15 6.65 Q-10.75 7.45 -10.6 8.1 L-10.55 8.45 Q-10.5 8.95 -10.6 9.4 -10.75 9.8 -11.05 10.2 -11.35 10.65 -11.85 11.25 L-11.95 11.3 -12.25 11.5 -12.5 11.7 -12.95 12.05 -16.15 14.2 -16.55 14.5 -18.45 15.8 -18.8 16.05 -19.85 16.55 -21.1 17.15 Q-20.6 16.5 -20.35 16.35 L-18.15 14.7 -17.15 14.05 -12.25 10.7 -12.25 10.65 -12.0 10.35 Q-11.65 9.85 -11.7 9.45 -11.6 8.95 -11.85 8.55 L-11.95 8.5 -12.0 8.5 Q-11.9 8.4 -11.9 8.35 -12.0 8.35 -12.2 8.45 L-12.45 8.6 -12.85 8.9 -13.5 9.35 -14.2 9.85 -15.35 10.6 -16.35 11.3 -17.45 12.05 -17.75 12.3 -18.25 12.6 -18.35 12.7 -19.8 13.7 -20.15 13.95 -21.2 14.45 -22.4 15.05 -22.45 15.05 Q-21.95 14.4 -21.7 14.25 L-19.45 12.55 -18.5 11.95 -13.7 8.65 -13.7 8.6 -13.3 8.3 -12.85 7.95 Q-12.65 7.8 -12.5 7.55 -12.25 7.05 -12.45 6.65 L-12.45 6.6 -12.65 6.4 -12.75 6.4 Q-13.3 6.3 -13.35 6.4 L-13.5 6.45 Q-13.85 6.55 -14.2 6.75 L-14.3 6.85 -14.3 6.9 -14.85 7.25 -15.75 7.95 -20.5 11.2 -22.85 12.7 Q-23.1 12.85 -23.9 13.1 L-22.85 12.15 -22.05 11.35 -21.65 11.1 -19.75 9.8 -19.3 9.5 -16.15 7.35 -15.4 6.9 -15.1 6.7 -15.15 6.65 -14.6 6.3 -14.4 6.15 -14.2 5.95 -14.15 5.85 -14.05 5.9 -14.1 5.8 -14.05 5.7 -14.1 5.65 -14.15 5.65 -14.2 5.6 Q-14.25 5.45 -14.4 5.4 L-14.4 5.35 Q-14.8 5.1 -15.4 5.3 -15.6 5.35 -15.8 5.4 L-15.85 5.4 -20.8 8.75 -21.75 9.4 -24.1 10.85 Q-24.35 11.05 -25.15 11.25 L-24.1 10.35 -23.25 9.55 -22.85 9.3 -20.95 8.0 -20.55 7.7 -17.35 5.55 -16.85 5.25 -16.6 5.05 -16.35 4.9 -16.25 4.85 Q-15.5 4.55 -14.95 4.45 L-14.0 4.3 Q-12.8 4.4 -11.65 5.6 L-11.7 5.4 -11.8 5.2 -11.85 5.15 -11.4 4.85 -11.15 4.7" fill="#8c8c8c" fill-rule="evenodd" stroke="none"/>
  </g>
</svg>
