<?xml version="1.0" encoding="UTF-8" standalone="no"?>
<svg xmlns:ffdec="https://www.free-decompiler.com/flash" xmlns:xlink="http://www.w3.org/1999/xlink" ffdec:objectType="shape" height="19.35px" width="21.8px" xmlns="http://www.w3.org/2000/svg">
  <g transform="matrix(1.0, 0.0, 0.0, 1.0, 6.6, 18.75)">
    <path d="M-2.15 -6.1 L-2.15 -6.15 -2.15 -6.1 M11.3 -6.95 L9.05 -7.05 8.2 -7.1 8.9 -7.45 9.5 -7.8 9.6 -7.85 Q10.4 -8.35 10.9 -8.65 L11.2 -8.8 11.9 -9.25 11.5 -7.6 11.3 -6.95 M3.8 0.0 Q3.25 -0.05 2.75 -0.2 1.5 -0.4 0.8 -1.0 0.4 -1.1 0.15 -1.6 0.0 -1.95 0.0 -2.3 0.0 -3.15 0.25 -3.95 L0.35 -4.75 Q0.5 -5.55 0.75 -6.1 L0.85 -6.0 Q0.95 -5.9 1.05 -5.9 1.3 -5.7 1.75 -5.6 2.2 -5.4 2.85 -5.4 4.55 -5.4 7.25 -6.65 7.25 -5.55 7.35 -4.85 L7.35 -4.75 7.3 -4.75 6.3 -4.95 6.2 -4.95 6.2 -4.7 7.15 -4.6 Q6.25 -3.95 6.25 -3.75 6.25 -3.65 6.3 -3.65 L7.4 -4.35 Q7.45 -3.7 7.65 -3.15 L7.3 -3.0 7.3 -2.95 7.4 -2.95 6.65 -2.95 6.45 -3.0 6.35 -3.0 3.45 -3.05 Q2.3 -3.15 1.55 -3.35 0.85 -3.5 0.6 -3.65 L0.6 -3.5 Q0.8 -3.35 1.05 -3.3 1.9 -3.0 3.45 -2.85 L6.45 -2.8 6.65 -2.75 7.35 -2.8 Q7.45 -2.75 7.75 -2.75 L8.7 -2.8 Q9.65 -2.85 10.05 -2.65 8.6 -1.75 6.0 -0.9 L3.8 -0.1 3.8 0.0 M7.75 -3.25 Q7.7 -3.75 7.65 -4.55 L8.65 -4.35 8.7 -4.35 8.7 -4.45 7.8 -4.65 Q8.85 -5.35 9.3 -5.75 8.65 -5.75 7.6 -4.95 L7.6 -5.0 7.4 -6.7 7.95 -7.0 8.0 -6.95 11.25 -6.8 10.95 -6.1 Q10.75 -5.75 10.4 -5.25 L9.7 -4.5 Q9.3 -4.05 8.25 -3.5 L7.75 -3.25 M-0.2 -10.25 L-0.25 -10.2 -0.2 -10.25 M-0.75 -2.65 L-0.9 -2.85 -0.7 -2.65 -0.75 -2.65" fill="#8d873f" fill-rule="evenodd" stroke="none"/>
    <path d="M10.5 -12.7 L10.45 -12.7 Q10.3 -12.75 9.9 -13.05 L9.75 -13.15 9.4 -13.4 9.25 -13.45 9.75 -13.2 10.5 -12.7 M7.6 -13.9 Q7.05 -13.9 6.45 -13.6 5.4 -13.15 4.55 -11.65 L4.5 -11.6 4.15 -11.15 Q3.55 -10.3 3.55 -9.7 L3.55 -9.35 Q3.55 -8.85 3.85 -8.6 4.1 -8.4 4.65 -8.3 3.85 -8.05 3.1 -7.85 L1.8 -7.85 Q1.25 -7.8 1.05 -7.65 L1.0 -7.6 1.0 -7.65 Q0.75 -7.75 0.55 -7.9 0.05 -8.35 0.05 -8.8 0.05 -9.0 0.1 -9.15 L0.05 -9.15 Q0.1 -9.6 0.35 -10.15 L0.6 -10.65 Q0.85 -11.15 1.2 -11.6 L1.55 -11.95 Q2.15 -12.5 3.25 -13.3 4.65 -14.0 6.5 -14.0 L7.6 -13.9 M3.75 -9.0 L3.8 -8.95 Q3.9 -8.8 4.15 -8.55 L4.25 -8.55 Q3.95 -8.65 3.8 -8.85 3.8 -8.9 3.75 -9.0" fill="#af481d" fill-rule="evenodd" stroke="none"/>
    <path d="M11.3 -6.95 L11.5 -7.6 11.9 -9.25 12.05 -9.4 12.1 -9.4 12.6 -9.7 12.85 -9.95 13.15 -9.45 13.35 -9.7 Q13.5 -9.95 13.6 -9.95 L13.65 -9.9 13.65 -9.7 Q13.55 -9.5 13.55 -9.25 13.55 -9.15 13.6 -9.15 L13.6 -9.05 13.7 -9.05 14.35 -9.0 Q14.35 -8.8 14.05 -8.55 L14.05 -8.5 14.0 -8.45 13.8 -8.3 14.25 -7.3 Q14.6 -6.35 14.6 -5.7 14.6 -4.85 14.25 -4.05 13.9 -3.2 13.35 -2.85 L12.95 -2.7 12.95 -2.85 12.7 -2.45 12.7 -2.35 Q12.7 -1.65 11.4 -0.85 10.4 -0.25 9.2 -0.05 L8.0 0.05 7.7 0.15 5.0 0.15 4.1 0.0 3.8 0.0 3.8 -0.1 6.0 -0.9 Q8.6 -1.75 10.05 -2.65 9.65 -2.85 8.7 -2.8 L7.75 -2.75 Q7.45 -2.75 7.35 -2.8 9.95 -3.05 10.6 -3.15 11.0 -3.25 11.7 -3.6 L11.7 -3.7 10.95 -3.5 Q9.55 -3.1 7.75 -3.0 7.8 -3.0 7.8 -3.05 L7.8 -3.1 7.75 -3.25 8.25 -3.5 Q9.3 -4.05 9.7 -4.5 L10.4 -5.25 Q10.75 -5.75 10.95 -6.1 L11.25 -6.8 11.5 -6.8 11.55 -6.9 11.3 -6.95 M7.65 -3.15 L7.7 -3.0 7.4 -2.95 7.3 -2.95 7.3 -3.0 7.65 -3.15 M12.7 -8.1 L12.7 -8.1 M-0.25 -10.2 L-0.2 -10.25 -0.35 -9.7 Q-0.5 -9.3 -0.5 -8.9 -0.5 -8.25 -0.2 -7.35 L0.1 -6.5 Q0.1 -6.05 -0.25 -4.6 -0.5 -3.25 -0.55 -2.85 -0.95 -3.25 -1.2 -3.65 -1.45 -4.1 -1.65 -4.65 L-1.7 -4.85 -1.75 -4.95 -1.9 -5.6 -2.05 -6.45 -2.1 -6.45 -1.95 -7.0 Q-1.55 -8.15 -1.0 -9.05 L-0.25 -10.2" fill="#676129" fill-rule="evenodd" stroke="none"/>
    <path d="M9.25 -13.45 L9.4 -13.4 9.75 -13.15 9.9 -13.05 Q10.3 -12.75 10.45 -12.7 L10.5 -12.7 11.05 -12.2 Q8.75 -10.3 7.05 -9.4 6.05 -8.85 5.0 -8.45 L4.85 -8.45 4.55 -8.5 4.5 -8.5 4.25 -8.55 4.15 -8.55 Q3.9 -8.8 3.8 -8.95 L3.75 -9.0 3.75 -9.25 Q3.75 -10.35 4.8 -11.65 L5.25 -12.2 Q4.85 -12.0 4.5 -11.6 L4.55 -11.65 Q5.4 -13.15 6.45 -13.6 7.05 -13.9 7.6 -13.9 L8.0 -13.85 8.05 -13.85 8.05 -13.8 8.2 -13.8 Q8.75 -13.65 9.25 -13.45 M1.0 -7.6 L1.05 -7.65 Q1.25 -7.8 1.8 -7.85 L3.1 -7.85 Q2.1 -7.65 1.1 -7.55 L1.0 -7.6" fill="#872710" fill-rule="evenodd" stroke="none"/>
    <path d="M-6.6 0.1 L-6.6 0.0 -6.6 0.1 M12.75 -17.65 L12.8 -17.8 Q12.8 -18.0 12.9 -18.15 L12.95 -18.2 12.95 -18.25 13.05 -18.25 13.1 -18.3 13.15 -18.3 Q13.05 -18.25 13.05 -18.1 L13.0 -17.8 Q13.0 -17.45 13.1 -17.3 13.15 -17.35 13.25 -17.7 L13.25 -17.8 13.3 -17.35 13.2 -17.1 Q13.4 -16.25 13.35 -16.0 L13.5 -15.55 Q13.6 -15.35 13.75 -15.2 L13.8 -15.2 13.8 -15.15 13.85 -15.1 13.9 -15.1 13.9 -14.95 13.85 -14.95 13.85 -14.9 13.8 -14.85 13.8 -14.75 13.75 -14.5 Q13.55 -14.4 13.4 -14.05 L13.4 -14.0 13.35 -13.95 13.4 -14.15 13.35 -14.2 13.4 -14.45 Q13.5 -14.75 13.4 -15.4 L13.3 -15.8 13.25 -16.2 Q13.2 -16.7 13.05 -17.0 L13.0 -17.1 12.95 -17.15 12.95 -17.3 12.9 -17.4 12.85 -17.45 12.85 -17.5 12.8 -17.5 12.75 -17.6 12.75 -17.65 M13.25 -18.4 L13.35 -18.5 13.3 -18.3 13.3 -18.35 13.25 -18.35 13.25 -18.4 M12.35 -11.6 L12.2 -11.75 12.7 -12.35 12.65 -12.4 Q12.85 -12.75 13.05 -13.2 L13.05 -13.25 Q13.05 -13.2 13.1 -13.25 13.2 -13.35 13.25 -13.65 L13.3 -13.8 Q13.2 -13.3 13.1 -13.1 12.6 -12.15 12.45 -11.75 L12.35 -11.6 M12.6 -12.1 L12.6 -12.1 M-4.85 -0.85 Q-5.7 -0.55 -6.25 0.05 L-6.25 0.1 -6.3 0.15 -6.3 0.05 Q-6.4 -0.1 -6.45 -0.15 L-6.35 -0.3 -6.25 -0.3 Q-5.85 -0.7 -5.25 -1.05 L-5.2 -1.0 -5.1 -1.05 -5.0 -1.05 -4.65 -1.1 -5.2 -0.9 Q-5.2 -0.85 -4.95 -0.85 L-4.85 -0.85 M-2.1 -1.3 L-2.25 -1.3 Q-1.95 -1.4 -1.7 -1.5 -1.3 -1.7 -0.7 -2.1 L-0.65 -2.05 -0.55 -2.05 Q-0.75 -1.9 -0.95 -1.8 L-1.0 -1.75 Q-1.4 -1.55 -2.1 -1.3" fill="#663300" fill-rule="evenodd" stroke="none"/>
    <path d="M-6.2 -0.65 Q-6.15 -0.7 -6.0 -0.8 L-6.0 -0.85 Q-5.55 -1.25 -4.65 -2.25 L-3.85 -3.0 -1.9 -4.8 -1.85 -4.85 -1.8 -4.65 -1.85 -4.6 -3.3 -3.25 Q-5.15 -1.6 -5.8 -0.85 L-6.05 -0.65 -6.2 -0.65 M9.6 -13.6 L9.9 -13.95 10.1 -14.2 10.4 -14.55 10.8 -15.1 11.6 -16.3 Q11.8 -16.65 12.35 -17.3 L12.65 -17.7 12.6 -17.5 12.6 -17.4 11.65 -16.05 10.95 -15.15 10.8 -14.9 10.4 -14.4 10.15 -14.1 9.9 -13.75 9.7 -13.55 9.65 -13.5 9.6 -13.55 9.6 -13.6 M12.75 -17.65 L12.75 -17.6 12.75 -17.65 M-1.75 -4.95 L-1.7 -4.85 -1.75 -4.95" fill="#c7b8b1" fill-rule="evenodd" stroke="none"/>
    <path d="M13.35 -13.95 L13.4 -14.0 13.4 -14.05 Q13.55 -14.4 13.75 -14.5 L13.8 -14.75 13.8 -14.85 13.85 -14.9 13.8 -14.55 13.85 -14.55 Q13.9 -14.65 13.9 -14.5 L13.65 -13.75 13.35 -12.8 13.2 -12.4 12.95 -11.9 12.85 -11.8 12.85 -11.75 12.8 -11.6 12.7 -11.35 12.7 -11.3 12.6 -11.3 12.55 -11.3 Q12.4 -11.3 12.4 -11.4 L12.4 -11.55 12.35 -11.55 12.35 -11.6 12.45 -11.75 Q12.6 -12.15 13.1 -13.1 13.2 -13.3 13.3 -13.8 L13.35 -13.95 M13.25 -17.8 L13.25 -17.7 Q13.15 -17.35 13.1 -17.3 13.0 -17.45 13.0 -17.8 L13.05 -18.1 Q13.05 -18.25 13.15 -18.3 L13.25 -18.4 13.25 -18.35 13.3 -18.35 13.3 -18.3 13.35 -18.1 13.25 -17.8 M-4.65 -1.1 Q-3.85 -1.3 -2.5 -1.45 L-2.15 -1.6 Q-1.65 -1.75 -1.35 -1.95 L-1.3 -2.0 -1.05 -2.15 Q-0.9 -2.2 -0.8 -2.25 L-0.75 -2.25 -0.75 -2.3 -0.6 -2.4 -0.5 -2.45 -0.45 -2.45 -0.45 -2.4 Q-0.45 -2.0 -0.3 -1.8 L-0.25 -1.8 -0.25 -1.75 -0.3 -1.7 -0.35 -1.65 Q-0.5 -1.45 -0.65 -1.45 L-0.75 -1.45 -0.8 -1.45 -0.95 -1.4 -1.15 -1.35 -2.1 -1.3 Q-1.4 -1.55 -1.0 -1.75 L-0.95 -1.8 Q-0.75 -1.9 -0.55 -2.05 L-0.65 -2.05 -0.7 -2.1 Q-1.3 -1.7 -1.7 -1.5 -1.95 -1.4 -2.25 -1.3 -2.8 -1.15 -3.5 -1.15 L-4.1 -1.0 -4.85 -0.85 -4.95 -0.85 Q-5.2 -0.85 -5.2 -0.9 L-4.65 -1.1 M-0.55 -2.05 L-0.55 -2.0 -0.45 -2.1 -0.5 -2.1 -0.55 -2.05" fill="#9a5a2c" fill-rule="evenodd" stroke="none"/>
    <path d="M10.55 -11.4 L10.7 -11.5 Q10.9 -11.35 11.1 -10.95 11.3 -10.5 11.3 -10.25 11.3 -9.8 9.55 -8.75 9.1 -8.3 8.85 -8.15 8.45 -7.9 6.65 -7.05 4.8 -6.25 4.55 -6.2 L3.85 -5.8 2.85 -5.8 Q2.25 -5.8 1.8 -6.05 1.35 -6.2 1.0 -6.45 0.45 -6.85 0.45 -7.1 0.45 -7.25 0.55 -7.3 L0.95 -7.3 0.95 -7.2 Q0.95 -7.1 1.0 -7.1 L1.1 -7.05 1.2 -7.05 2.3 -6.95 3.85 -7.05 4.0 -7.05 7.35 -9.05 8.35 -9.7 9.15 -10.35 Q10.1 -11.0 10.5 -11.25 L10.55 -11.4" fill="#875f3a" fill-rule="evenodd" stroke="none"/>
    <path d="M10.55 -11.4 L10.5 -11.25 Q10.1 -11.0 9.15 -10.35 L8.35 -9.7 7.35 -9.05 4.0 -7.05 3.85 -7.05 2.3 -6.95 1.2 -7.05 1.1 -7.05 1.0 -7.1 Q0.95 -7.1 0.95 -7.2 L0.95 -7.3 1.0 -7.35 1.1 -7.35 2.15 -7.5 2.4 -7.55 Q3.3 -7.7 3.9 -7.9 L5.35 -8.35 5.4 -8.35 5.4 -8.3 5.9 -8.55 Q6.9 -9.1 7.2 -9.15 L7.4 -9.25 Q9.6 -10.65 10.55 -11.4 M3.85 -5.8 L4.55 -6.2 Q4.8 -6.25 6.65 -7.05 8.45 -7.9 8.85 -8.15 9.1 -8.3 9.55 -8.75 11.3 -9.8 11.3 -10.25 11.3 -10.5 11.1 -10.95 10.9 -11.35 10.7 -11.5 11.05 -11.8 11.2 -11.95 L11.2 -11.9 11.3 -11.95 Q11.65 -11.9 12.15 -11.35 12.65 -10.8 12.65 -10.5 L12.65 -10.4 12.7 -10.25 12.65 -10.25 12.7 -10.15 Q12.75 -10.25 12.75 -10.1 12.75 -10.0 11.8 -9.45 L11.3 -9.1 10.15 -8.35 9.3 -7.85 8.7 -7.55 8.65 -7.55 8.55 -7.5 8.0 -7.2 Q7.3 -6.85 6.9 -6.7 L6.75 -6.6 5.8 -6.2 5.4 -6.05 5.3 -6.05 Q4.5 -5.8 3.85 -5.8" fill="#724738" fill-rule="evenodd" stroke="none"/>
    <path d="M12.65 -17.7 Q12.65 -17.95 12.75 -18.15 12.85 -18.4 13.0 -18.5 L13.05 -18.5 13.05 -18.55 13.2 -18.7 Q13.25 -18.75 13.35 -18.75 L13.4 -18.7 13.4 -18.65 13.45 -18.65 13.45 -18.55 Q13.5 -18.25 13.45 -17.65 L13.45 -16.95 Q13.45 -16.5 13.75 -15.75 L13.95 -15.35 13.95 -15.3 14.05 -15.2 14.0 -15.1 14.05 -15.0 Q14.05 -14.75 13.85 -13.9 L13.8 -13.7 13.65 -13.2 13.6 -13.05 13.15 -11.75 12.95 -11.25 12.85 -11.05 12.8 -11.0 Q13.1 -10.45 13.3 -9.85 13.45 -9.9 13.85 -10.1 14.25 -10.35 14.4 -10.35 L14.45 -10.3 14.05 -9.9 Q13.8 -9.55 13.8 -9.25 L14.7 -9.2 Q14.8 -9.15 14.8 -9.05 L14.5 -8.75 14.35 -8.65 14.35 -8.55 14.95 -8.65 Q15.15 -8.65 15.2 -8.6 15.05 -8.45 14.3 -8.05 L14.15 -8.25 14.1 -8.25 Q14.35 -7.75 14.45 -7.35 14.75 -6.5 14.75 -5.65 L14.7 -5.05 Q14.55 -4.35 14.25 -3.65 L13.65 -2.7 13.6 -2.7 13.6 -2.65 Q13.6 -2.6 13.35 -2.45 13.15 -2.3 12.95 -2.3 12.8 -1.4 11.95 -0.8 10.25 0.4 5.8 0.4 3.5 0.4 1.65 -0.35 1.1 -0.55 0.7 -0.8 0.15 -0.95 -0.2 -1.6 -0.4 -1.45 -0.55 -1.35 L-0.7 -1.3 -0.8 -1.2 -1.55 -1.05 -1.85 -1.0 -2.2 -1.0 -2.7 -1.1 Q-3.6 -1.0 -4.25 -0.85 L-4.7 -0.7 -5.2 -0.35 Q-5.5 -0.2 -5.9 0.15 -6.2 0.4 -6.35 0.6 L-6.35 0.55 -6.5 0.55 -6.5 0.5 -6.6 0.4 -6.55 0.35 -6.6 0.35 -6.6 0.1 -6.6 0.0 -6.6 -0.15 -6.55 -0.15 Q-6.5 -0.2 -6.5 -0.25 L-6.45 -0.35 -6.35 -0.45 -6.2 -0.65 -6.05 -0.65 -5.8 -0.85 -5.65 -1.0 -5.5 -1.1 Q-5.25 -1.3 -5.1 -1.25 L-3.85 -1.5 -2.1 -1.75 Q-1.85 -1.85 -1.25 -2.2 L-1.0 -2.35 -1.0 -2.4 -0.75 -2.6 -0.75 -2.65 -0.7 -2.65 -0.9 -2.85 -1.35 -3.5 Q-1.65 -4.05 -1.85 -4.6 L-1.8 -4.65 -1.85 -4.85 -1.9 -4.8 Q-2.0 -5.15 -2.05 -5.5 L-2.15 -6.1 -2.15 -6.15 -2.35 -6.75 Q-2.2 -7.25 -1.95 -7.85 L-2.3 -7.5 -2.35 -7.55 Q-2.35 -7.7 -2.2 -7.85 L-1.8 -8.25 -2.25 -8.3 Q-2.35 -8.4 -2.35 -8.45 L-2.2 -8.5 -1.6 -8.5 Q-1.15 -9.35 -0.5 -10.25 0.25 -11.3 1.05 -12.1 L1.25 -12.3 Q3.2 -14.25 5.95 -14.5 8.05 -14.3 9.6 -13.6 L9.6 -13.55 9.65 -13.5 9.7 -13.55 9.75 -13.55 Q11.1 -12.9 12.0 -11.95 L12.05 -11.9 12.1 -11.95 12.35 -12.35 12.7 -13.0 12.8 -13.2 12.8 -13.25 12.95 -13.6 13.1 -14.1 13.15 -14.25 13.15 -14.35 13.2 -14.65 13.15 -14.65 13.2 -15.0 13.2 -15.05 12.95 -15.85 Q12.8 -16.6 12.7 -16.95 12.65 -17.2 12.6 -17.4 L12.6 -17.5 12.65 -17.7 M13.15 -18.3 L13.1 -18.3 13.05 -18.25 12.95 -18.25 12.95 -18.2 12.9 -18.15 Q12.8 -18.0 12.8 -17.8 L12.75 -17.65 12.75 -17.6 12.8 -17.5 12.85 -17.5 12.85 -17.45 12.9 -17.4 12.95 -17.3 12.95 -17.15 13.0 -17.1 13.05 -17.0 Q13.2 -16.7 13.25 -16.2 L13.3 -15.8 13.4 -15.4 Q13.5 -14.75 13.4 -14.45 L13.35 -14.2 13.4 -14.15 13.35 -13.95 13.3 -13.8 13.25 -13.65 Q13.2 -13.35 13.1 -13.25 13.05 -13.2 13.05 -13.25 L13.05 -13.2 Q12.85 -12.75 12.65 -12.4 L12.7 -12.35 12.2 -11.75 12.35 -11.6 12.35 -11.55 12.4 -11.55 12.4 -11.4 Q12.4 -11.3 12.55 -11.3 L12.6 -11.3 12.7 -11.3 12.7 -11.35 12.8 -11.6 12.85 -11.75 12.85 -11.8 12.95 -11.9 13.2 -12.4 13.35 -12.8 13.65 -13.75 13.9 -14.5 Q13.9 -14.65 13.85 -14.55 L13.8 -14.55 13.85 -14.9 13.85 -14.95 13.9 -14.95 13.9 -15.1 13.85 -15.1 13.8 -15.15 13.8 -15.2 13.75 -15.2 Q13.6 -15.35 13.5 -15.55 L13.35 -16.0 Q13.4 -16.25 13.2 -17.1 L13.3 -17.35 13.25 -17.8 13.35 -18.1 13.3 -18.3 13.35 -18.5 13.25 -18.4 13.15 -18.3 M10.5 -12.7 L9.75 -13.2 9.25 -13.45 Q8.75 -13.65 8.2 -13.8 L8.05 -13.8 8.05 -13.85 8.0 -13.85 7.6 -13.9 6.5 -14.0 Q4.65 -14.0 3.25 -13.3 2.15 -12.5 1.55 -11.95 L1.2 -11.6 Q0.85 -11.15 0.6 -10.65 L0.35 -10.15 Q0.1 -9.6 0.05 -9.15 L0.1 -9.15 Q0.05 -9.0 0.05 -8.8 0.05 -8.35 0.55 -7.9 0.75 -7.75 1.0 -7.65 L1.0 -7.6 1.1 -7.55 Q2.1 -7.65 3.1 -7.85 3.85 -8.05 4.65 -8.3 4.1 -8.4 3.85 -8.6 3.55 -8.85 3.55 -9.35 L3.55 -9.7 Q3.55 -10.3 4.15 -11.15 L4.5 -11.6 Q4.85 -12.0 5.25 -12.2 L4.8 -11.65 Q3.75 -10.35 3.75 -9.25 L3.75 -9.0 Q3.8 -8.9 3.8 -8.85 3.95 -8.65 4.25 -8.55 L4.5 -8.5 4.55 -8.5 4.85 -8.45 5.0 -8.45 Q6.05 -8.85 7.05 -9.4 8.75 -10.3 11.05 -12.2 L10.5 -12.7 M10.7 -11.5 L10.55 -11.4 Q9.6 -10.65 7.4 -9.25 L7.2 -9.15 Q6.9 -9.1 5.9 -8.55 L5.4 -8.3 5.4 -8.35 5.35 -8.35 3.9 -7.9 Q3.3 -7.7 2.4 -7.55 L2.15 -7.5 1.1 -7.35 1.0 -7.35 0.95 -7.3 0.55 -7.3 Q0.45 -7.25 0.45 -7.1 0.45 -6.85 1.0 -6.45 1.35 -6.2 1.8 -6.05 2.25 -5.8 2.85 -5.8 L3.85 -5.8 Q4.5 -5.8 5.3 -6.05 L5.4 -6.05 5.8 -6.2 6.75 -6.6 6.9 -6.7 Q7.3 -6.85 8.0 -7.2 L8.55 -7.5 8.65 -7.55 8.7 -7.55 9.3 -7.85 10.15 -8.35 11.3 -9.1 11.8 -9.45 Q12.75 -10.0 12.75 -10.1 12.75 -10.25 12.7 -10.15 L12.65 -10.25 12.7 -10.25 12.65 -10.4 12.65 -10.5 Q12.65 -10.8 12.15 -11.35 11.65 -11.9 11.3 -11.95 L11.2 -11.9 11.2 -11.95 Q11.05 -11.8 10.7 -11.5 M11.9 -9.25 L11.2 -8.8 10.9 -8.65 Q10.4 -8.35 9.6 -7.85 L9.5 -7.8 8.9 -7.45 8.2 -7.1 9.05 -7.05 11.3 -6.95 11.55 -6.9 11.5 -6.8 11.25 -6.8 8.0 -6.95 7.95 -7.0 7.4 -6.7 7.6 -5.0 7.6 -4.95 Q8.65 -5.75 9.3 -5.75 8.85 -5.35 7.8 -4.65 L8.7 -4.45 8.7 -4.35 8.65 -4.35 7.65 -4.55 Q7.7 -3.75 7.75 -3.25 L7.8 -3.1 7.8 -3.05 Q7.8 -3.0 7.75 -3.0 9.55 -3.1 10.95 -3.5 L11.7 -3.7 11.7 -3.6 Q11.0 -3.25 10.6 -3.15 9.95 -3.05 7.35 -2.8 L6.65 -2.75 6.45 -2.8 3.45 -2.85 Q1.9 -3.0 1.05 -3.3 0.8 -3.35 0.6 -3.5 L0.6 -3.65 Q0.85 -3.5 1.55 -3.35 2.3 -3.15 3.45 -3.05 L6.35 -3.0 6.45 -3.0 6.65 -2.95 7.4 -2.95 7.7 -3.0 7.65 -3.15 Q7.45 -3.7 7.4 -4.35 L6.3 -3.65 Q6.25 -3.65 6.25 -3.75 6.25 -3.95 7.15 -4.6 L6.2 -4.7 6.2 -4.95 6.3 -4.95 7.3 -4.75 7.35 -4.75 7.35 -4.85 Q7.25 -5.55 7.25 -6.65 4.55 -5.4 2.85 -5.4 2.2 -5.4 1.75 -5.6 1.3 -5.7 1.05 -5.9 0.95 -5.9 0.85 -6.0 L0.75 -6.1 Q0.5 -5.55 0.35 -4.75 L0.25 -3.95 Q0.0 -3.15 0.0 -2.3 0.0 -1.95 0.15 -1.6 0.4 -1.1 0.8 -1.0 1.5 -0.4 2.75 -0.2 3.25 -0.05 3.8 0.0 L4.1 0.0 5.0 0.15 7.7 0.15 8.0 0.05 9.2 -0.05 Q10.4 -0.25 11.4 -0.85 12.7 -1.65 12.7 -2.35 L12.7 -2.45 12.95 -2.85 12.95 -2.7 13.35 -2.85 Q13.9 -3.2 14.25 -4.05 14.6 -4.85 14.6 -5.7 14.6 -6.35 14.25 -7.3 L13.8 -8.3 14.0 -8.45 14.05 -8.4 14.05 -8.55 Q14.35 -8.8 14.35 -9.0 L13.7 -9.05 13.6 -9.05 13.6 -9.15 Q13.55 -9.15 13.55 -9.25 13.55 -9.5 13.65 -9.7 L13.65 -9.9 13.6 -9.95 Q13.5 -9.95 13.35 -9.7 L13.15 -9.45 12.85 -9.95 12.6 -9.7 12.1 -9.4 12.05 -9.4 11.9 -9.25 M4.55 -8.5 L4.55 -8.5 M12.7 -8.1 L12.7 -8.1 M-0.25 -10.2 L-1.0 -9.05 Q-1.55 -8.15 -1.95 -7.0 L-2.1 -6.45 -2.05 -6.45 -1.9 -5.6 -1.75 -4.95 -1.7 -4.85 -1.65 -4.65 Q-1.45 -4.1 -1.2 -3.65 -0.95 -3.25 -0.55 -2.85 -0.5 -3.25 -0.25 -4.6 0.1 -6.05 0.1 -6.5 L-0.2 -7.35 Q-0.5 -8.25 -0.5 -8.9 -0.5 -9.3 -0.35 -9.7 L-0.2 -10.25 -0.25 -10.2 M-4.65 -1.1 L-5.0 -1.05 -5.1 -1.05 -5.2 -1.0 -5.25 -1.05 Q-5.85 -0.7 -6.25 -0.3 L-6.35 -0.3 -6.45 -0.15 Q-6.4 -0.1 -6.3 0.05 L-6.3 0.15 -6.25 0.1 -6.25 0.05 Q-5.7 -0.55 -4.85 -0.85 L-4.1 -1.0 -3.5 -1.15 Q-2.8 -1.15 -2.25 -1.3 L-2.1 -1.3 -1.15 -1.35 -0.95 -1.4 -0.75 -1.45 -0.65 -1.45 Q-0.5 -1.45 -0.35 -1.65 L-0.3 -1.7 -0.25 -1.75 -0.25 -1.8 -0.3 -1.8 Q-0.45 -2.0 -0.45 -2.4 L-0.45 -2.45 -0.5 -2.45 -0.6 -2.4 -0.75 -2.3 -0.8 -2.25 Q-0.9 -2.2 -1.05 -2.15 L-1.3 -2.0 -1.35 -1.95 Q-1.65 -1.75 -2.15 -1.6 L-2.5 -1.45 Q-3.85 -1.3 -4.65 -1.1 M-0.6 -2.4 L-0.6 -2.4 M-2.7 -5.55 L-2.7 -5.55" fill="#101010" fill-rule="evenodd" stroke="none"/>
  </g>
</svg>
