<?xml version="1.0" encoding="UTF-8" standalone="no"?>
<svg xmlns:ffdec="https://www.free-decompiler.com/flash" xmlns:xlink="http://www.w3.org/1999/xlink" ffdec:objectType="shape" height="27.9px" width="18.45px" xmlns="http://www.w3.org/2000/svg">
  <g transform="matrix(1.0, 0.0, 0.0, 1.0, 7.3, 17.4)">
    <path d="M0.35 -17.0 L0.3 -16.7 Q0.45 -16.4 0.45 -15.85 L0.2 -14.8 Q0.0 -13.8 0.0 -13.5 L-0.05 -12.15 -0.05 -11.15 0.0 -10.0 0.55 -5.5 0.65 -4.35 Q0.8 -3.0 0.9 -2.05 L1.35 5.4 1.55 6.3 1.7 6.8 1.7 6.75 Q1.8 6.45 1.8 6.1 L1.85 6.0 Q1.85 5.95 2.0 5.9 L4.0 5.9 Q5.75 5.75 6.75 5.5 7.35 5.35 7.95 5.1 8.2 4.95 8.65 4.65 9.1 4.3 9.25 4.2 9.7 3.95 10.7 2.95 10.95 2.75 11.05 2.8 11.15 2.85 11.15 3.35 11.15 3.7 11.0 4.15 10.85 4.6 10.6 5.05 10.4 5.4 10.1 5.8 L10.05 5.9 9.6 6.4 9.3 6.7 Q7.85 8.3 6.2 8.7 5.6 8.85 4.7 8.85 L3.15 8.85 Q2.35 8.85 1.85 9.05 L1.65 9.15 1.6 9.25 Q0.9 10.4 0.3 10.4 L0.05 10.35 Q0.0 10.35 0.0 10.25 -0.25 10.1 -0.5 9.5 L-0.65 9.5 -1.2 9.45 -1.3 9.45 -1.5 9.5 Q-1.75 9.6 -2.0 9.9 L-2.4 10.4 -2.4 10.45 -2.45 10.5 -3.1 10.45 -3.85 10.45 -3.95 10.4 -4.1 10.35 Q-4.15 10.3 -4.35 9.9 -4.35 9.8 -4.45 9.75 -4.65 9.7 -4.85 9.55 L-5.05 9.5 Q-5.3 9.45 -5.75 9.15 -6.2 8.8 -6.45 8.55 -6.65 8.35 -6.8 8.05 L-7.0 7.5 -7.3 6.5 Q-7.3 6.0 -7.2 6.0 -7.1 5.8 -6.8 6.0 L-6.2 6.45 Q-5.95 6.65 -5.55 6.8 -4.75 7.15 -3.9 7.15 -3.2 7.15 -2.9 7.0 L-2.55 6.9 Q-2.25 7.15 -2.05 7.55 -1.95 7.85 -1.7 7.85 L-1.3 7.8 -1.15 7.75 -1.05 7.55 -1.0 7.4 -1.15 6.3 Q-1.2 5.55 -1.05 4.95 L-1.05 0.8 Q-1.05 0.95 -1.05 0.75 -1.2 -1.65 -1.2 -2.25 -1.2 -2.85 -1.3 -4.0 -1.4 -5.15 -1.4 -5.7 L-1.4 -7.0 Q-1.35 -8.3 -1.45 -10.95 -1.45 -12.55 -2.0 -14.2 L-2.35 -15.25 Q-2.5 -15.75 -2.5 -16.0 -2.5 -16.55 -1.8 -17.0 -1.0 -17.45 0.0 -17.4 0.15 -17.4 0.25 -17.25 0.35 -17.1 0.35 -17.0 M1.35 8.4 Q1.45 8.15 1.45 7.9 1.45 7.65 1.2 7.05 0.95 6.5 0.95 6.15 0.95 5.95 0.85 5.5 0.75 5.1 0.75 4.8 L0.75 4.15 0.7 3.5 0.7 1.05 0.65 0.4 0.6 -0.1 0.45 -1.45 0.3 -2.55 Q0.25 -3.3 0.25 -3.7 L0.25 -4.05 0.05 -5.2 Q-0.2 -6.8 -0.2 -7.05 L-0.2 -7.5 Q-0.35 -9.75 -0.35 -11.25 L-0.35 -12.25 -0.3 -13.8 -0.05 -15.0 Q0.2 -15.9 0.2 -16.3 L0.15 -16.25 0.1 -16.6 0.05 -16.9 -0.5 -17.0 Q-1.45 -16.75 -1.85 -16.4 -2.2 -16.15 -2.2 -15.7 -2.2 -15.6 -1.95 -15.1 L-2.0 -15.2 -2.0 -15.25 Q-1.9 -14.95 -1.7 -14.55 L-1.55 -14.25 Q-1.05 -13.05 -1.0 -11.5 -1.05 -9.35 -0.95 -8.25 -0.9 -7.4 -0.8 -5.1 -0.75 -3.0 -0.6 -1.85 L-0.6 1.15 Q-0.6 1.4 -0.6 1.95 L-0.6 2.15 -0.55 3.75 -0.5 3.85 -0.5 6.4 Q-0.5 6.95 -0.35 7.8 L-0.35 7.75 Q-0.35 8.05 -0.25 8.3 L-0.15 8.75 Q-0.15 8.95 -0.2 8.85 L-0.25 8.8 Q-0.1 9.4 0.2 9.9 L0.25 9.9 0.75 9.35 1.15 8.85 1.0 8.9 1.2 8.7 1.35 8.4 M-0.15 -15.9 Q-0.15 -15.75 -0.2 -15.7 L-0.25 -15.65 -0.15 -15.9 M-1.1 -15.4 L-1.15 -15.4 -1.05 -15.45 -1.1 -15.4 M10.55 4.2 L10.7 3.8 10.65 3.8 10.35 4.15 Q10.3 4.3 9.85 4.65 9.4 4.95 8.8 5.3 L8.5 5.45 7.8 5.75 Q6.05 6.45 4.35 6.45 L2.5 6.4 2.25 6.35 2.25 6.75 Q2.25 6.9 2.1 7.1 2.0 7.3 1.85 7.35 L1.9 7.45 2.1 7.8 2.15 7.95 2.15 8.1 2.1 8.25 2.15 8.5 2.05 8.35 1.95 8.55 1.95 8.65 2.15 8.55 2.45 8.55 2.5 8.5 3.9 8.5 4.55 8.4 Q5.65 8.25 6.35 8.1 6.7 7.95 7.7 7.55 L8.0 7.4 8.05 7.35 8.45 7.0 Q8.9 6.65 9.1 6.35 9.85 5.4 10.15 4.95 10.4 4.55 10.55 4.2 M-6.45 6.95 L-6.6 6.85 -6.5 7.2 -6.45 7.3 Q-6.25 7.75 -5.9 8.3 L-5.85 8.35 Q-5.55 8.7 -5.15 8.95 L-5.1 9.0 -4.85 9.15 -4.7 9.2 Q-4.4 9.35 -4.2 9.45 L-4.0 9.5 -3.95 9.45 Q-3.9 9.55 -3.85 9.65 L-3.85 10.0 -3.8 10.05 -3.3 9.95 -2.7 9.9 -2.65 9.9 -2.65 9.8 Q-2.6 9.7 -2.55 9.65 L-2.5 9.55 Q-2.4 9.5 -2.3 9.5 -2.2 9.4 -2.0 9.35 L-1.6 9.25 Q-1.3 9.1 -0.95 9.15 L-0.6 9.15 -0.7 8.9 -0.8 8.5 -0.9 8.05 -1.05 8.2 Q-1.4 8.4 -1.8 8.4 L-2.2 8.3 Q-2.3 8.2 -2.5 8.05 -2.55 7.95 -2.6 7.8 L-2.65 7.75 -2.7 7.5 Q-2.65 7.45 -2.75 7.45 -2.85 7.45 -3.05 7.55 -3.2 7.65 -3.5 7.65 L-3.6 7.65 -3.6 7.7 -4.0 7.7 Q-5.0 7.7 -5.85 7.35 L-6.45 6.95" fill="#111111" fill-rule="evenodd" stroke="none"/>
    <path d="M-2.0 -15.25 L-2.0 -15.2 -1.95 -15.1 Q-2.2 -15.6 -2.2 -15.7 -2.2 -16.15 -1.85 -16.4 -1.45 -16.75 -0.5 -17.0 L0.05 -16.9 0.1 -16.6 0.15 -16.25 0.2 -16.3 Q0.2 -15.9 -0.05 -15.0 L-0.3 -13.8 -0.35 -12.25 -0.35 -11.25 Q-0.35 -9.75 -0.2 -7.5 L-0.2 -7.05 Q-0.2 -6.8 0.05 -5.2 L0.25 -4.05 0.25 -3.7 Q0.25 -3.3 0.3 -2.55 L0.45 -1.45 0.6 -0.1 0.65 0.4 0.7 1.05 0.7 3.5 0.75 4.15 0.75 4.8 Q0.75 5.1 0.85 5.5 0.95 5.95 0.95 6.15 0.95 6.5 1.2 7.05 1.45 7.65 1.45 7.9 1.45 8.15 1.35 8.4 1.35 8.0 1.3 7.8 L1.25 7.55 1.2 7.55 Q1.1 7.1 0.75 7.1 0.4 7.1 0.35 7.5 0.3 7.6 0.3 7.7 0.35 8.15 0.5 8.15 L0.65 8.1 0.7 8.05 0.65 7.9 0.65 7.65 Q0.65 7.55 0.65 7.5 L0.75 7.4 0.85 7.55 0.95 7.75 Q0.95 8.05 0.9 8.15 0.85 8.3 0.6 8.55 0.25 7.9 0.1 7.05 L0.1 7.0 Q0.1 6.75 0.05 6.25 L0.15 5.7 Q0.25 4.9 0.25 3.8 0.25 2.3 0.15 0.65 L0.15 -0.65 Q0.1 -1.35 0.1 -2.4 0.1 -2.9 -0.05 -5.55 L-0.3 -7.15 -0.4 -8.0 -0.45 -9.0 -0.4 -10.7 Q-0.4 -11.45 -0.4 -12.0 L-0.4 -12.6 Q-0.4 -13.4 -0.7 -13.95 -0.8 -14.2 -1.0 -14.4 L-1.4 -14.8 -1.55 -15.1 -1.6 -15.3 Q-1.6 -15.55 -1.45 -15.85 L-1.25 -16.05 Q-1.0 -16.2 -0.7 -16.25 L-0.5 -16.25 -0.5 -16.2 -0.45 -16.05 Q-0.45 -15.9 -1.05 -15.45 L-1.15 -15.4 -1.1 -15.4 -0.9 -15.3 -0.75 -15.3 -0.7 -15.35 -0.3 -15.65 -0.25 -15.65 -0.2 -15.7 Q-0.15 -15.75 -0.15 -15.9 L-0.15 -16.1 Q-0.15 -16.45 -0.4 -16.55 -0.7 -16.65 -1.05 -16.5 -1.95 -16.15 -2.0 -15.3 L-2.0 -15.25 M1.0 8.9 L1.15 8.85 0.75 9.35 0.25 9.9 0.2 9.9 Q-0.1 9.4 -0.25 8.8 L-0.2 8.85 Q-0.15 8.95 -0.15 8.75 L-0.25 8.3 -0.25 8.25 -0.3 7.85 -0.35 7.85 -0.35 7.8 Q-0.5 6.95 -0.5 6.4 L-0.5 3.85 -0.55 3.75 -0.6 2.15 -0.6 1.95 Q-0.6 1.4 -0.6 1.15 L-0.6 -1.85 Q-0.75 -3.0 -0.8 -5.1 -0.9 -7.4 -0.95 -8.25 -1.05 -9.35 -1.0 -11.5 -1.05 -13.05 -1.55 -14.25 L-1.7 -14.55 -1.5 -14.35 -1.3 -14.1 -1.2 -13.9 Q-0.9 -13.45 -0.8 -13.0 -0.7 -12.4 -0.65 -11.7 L-0.65 -10.05 -0.7 -8.8 Q-0.7 -8.55 -0.6 -7.8 -0.6 -6.3 -0.5 -4.95 L-0.2 -1.25 Q-0.05 0.5 -0.05 2.2 L-0.05 3.55 -0.15 4.25 Q-0.25 5.45 -0.25 6.1 -0.3 6.7 -0.3 7.3 -0.3 7.75 -0.15 8.25 0.05 9.0 0.5 8.9 L1.0 8.9" fill="#6e5827" fill-rule="evenodd" stroke="none"/>
    <path d="M-2.0 -15.25 L-2.0 -15.3 Q-1.95 -16.15 -1.05 -16.5 -0.7 -16.65 -0.4 -16.55 -0.15 -16.45 -0.15 -16.1 L-0.15 -15.9 -0.25 -15.65 -0.3 -15.65 -0.7 -15.35 -0.75 -15.3 -0.9 -15.3 -1.1 -15.4 -1.05 -15.45 Q-0.45 -15.9 -0.45 -16.05 L-0.5 -16.2 -0.5 -16.25 -0.7 -16.25 Q-1.0 -16.2 -1.25 -16.05 L-1.45 -15.85 Q-1.6 -15.55 -1.6 -15.3 L-1.55 -15.1 -1.4 -14.8 -1.0 -14.4 Q-0.8 -14.2 -0.7 -13.95 -0.4 -13.4 -0.4 -12.6 L-0.4 -12.0 Q-0.4 -11.45 -0.4 -10.7 L-0.45 -9.0 -0.4 -8.0 -0.3 -7.15 -0.05 -5.55 Q0.1 -2.9 0.1 -2.4 0.1 -1.35 0.15 -0.65 L0.15 0.65 Q0.25 2.3 0.25 3.8 0.25 4.9 0.15 5.7 L0.05 6.25 Q0.1 6.75 0.1 7.0 L0.1 7.05 Q0.25 7.9 0.6 8.55 0.85 8.3 0.9 8.15 0.95 8.05 0.95 7.75 L0.85 7.55 0.75 7.4 0.65 7.5 Q0.65 7.55 0.65 7.65 L0.65 7.9 0.7 8.05 0.65 8.1 0.5 8.15 Q0.35 8.15 0.3 7.7 0.3 7.6 0.35 7.5 0.4 7.1 0.75 7.1 1.1 7.1 1.2 7.55 L1.25 7.55 1.3 7.8 Q1.35 8.0 1.35 8.4 L1.2 8.7 1.0 8.9 0.5 8.9 Q0.05 9.0 -0.15 8.25 -0.3 7.75 -0.3 7.3 -0.3 6.7 -0.25 6.1 -0.25 5.45 -0.15 4.25 L-0.05 3.55 -0.05 2.2 Q-0.05 0.5 -0.2 -1.25 L-0.5 -4.95 Q-0.6 -6.3 -0.6 -7.8 -0.7 -8.55 -0.7 -8.8 L-0.65 -10.05 -0.65 -11.7 Q-0.7 -12.4 -0.8 -13.0 -0.9 -13.45 -1.2 -13.9 L-1.3 -14.1 -1.5 -14.35 -1.7 -14.55 -1.55 -14.25 -1.7 -14.55 Q-1.9 -14.95 -2.0 -15.25 M-0.25 8.3 Q-0.35 8.05 -0.35 7.75 L-0.35 7.8 -0.35 7.85 -0.3 7.85 -0.25 8.25 -0.25 8.3" fill="#4d3c1b" fill-rule="evenodd" stroke="none"/>
    <path d="M8.5 5.8 Q7.95 6.05 7.25 6.25 6.5 6.5 5.75 6.65 L4.85 6.75 3.85 6.85 2.85 6.85 Q3.0 7.2 2.6 7.5 L2.1 7.8 1.9 7.45 1.85 7.35 Q2.0 7.3 2.1 7.1 2.25 6.9 2.25 6.75 L2.25 6.35 2.5 6.4 4.35 6.45 Q6.05 6.45 7.8 5.75 L8.5 5.45 8.8 5.3 Q9.4 4.95 9.85 4.65 10.3 4.3 10.35 4.15 L10.65 3.8 10.7 3.8 10.55 4.2 10.05 4.75 Q9.45 5.2 9.05 5.5 L8.5 5.8 M3.25 7.25 L3.25 7.25 M-3.1 7.9 L-3.15 7.9 -3.45 7.8 -3.5 7.8 -3.75 7.85 -3.8 7.9 -4.0 8.0 -4.05 8.0 -4.15 8.1 Q-4.2 7.95 -4.4 8.0 -4.7 8.1 -4.7 8.4 -4.65 8.4 -4.6 8.45 -5.1 8.2 -5.4 8.0 L-6.45 6.95 -5.85 7.35 Q-5.0 7.7 -4.0 7.7 L-3.6 7.7 -3.6 7.65 -3.5 7.65 Q-3.2 7.65 -3.05 7.55 -2.85 7.45 -2.75 7.45 -2.65 7.45 -2.7 7.5 L-2.65 7.75 -2.75 7.75 -3.1 7.9 M-4.8 7.75 L-5.0 7.75 Q-5.1 7.75 -5.1 7.85 -5.1 8.0 -5.05 8.0 L-4.9 8.05 -4.8 8.0 -4.75 7.95 -4.75 7.75 -4.8 7.75" fill="#949494" fill-rule="evenodd" stroke="none"/>
    <path d="M8.5 5.8 L9.05 5.5 Q9.45 5.2 10.05 4.75 L10.55 4.2 Q10.4 4.55 10.15 4.95 9.85 5.4 9.1 6.35 8.9 6.65 8.45 7.0 L8.05 7.35 8.0 7.4 7.7 7.55 Q6.7 7.95 6.35 8.1 5.65 8.25 4.55 8.4 L3.9 8.5 2.5 8.5 2.45 8.55 2.15 8.55 1.95 8.65 1.95 8.55 2.05 8.35 2.15 8.5 2.1 8.25 2.15 8.1 2.15 8.15 Q2.55 8.0 2.85 7.75 3.15 7.5 3.15 7.3 L3.5 7.6 3.9 7.9 3.65 8.05 Q3.45 8.15 3.25 8.15 L3.1 8.0 3.15 7.95 3.35 7.95 3.4 8.0 Q3.55 8.05 3.55 7.95 L3.4 7.75 3.15 7.75 Q2.95 7.85 2.95 8.0 2.95 8.3 3.25 8.3 4.05 8.3 4.05 7.9 4.05 7.7 3.65 7.5 3.95 7.6 4.25 7.6 L5.75 7.45 6.45 7.5 6.6 7.6 6.3 7.75 5.85 7.8 5.75 7.65 Q5.7 7.6 5.55 7.55 L5.5 7.6 Q5.5 7.8 5.6 7.85 5.75 7.95 6.4 8.0 6.6 7.9 6.7 7.8 L6.8 7.6 Q6.8 7.2 5.8 7.2 L4.25 7.35 Q3.8 7.35 3.45 7.2 L3.3 7.15 5.9 6.95 6.9 6.65 Q7.65 6.5 8.45 6.2 8.85 6.0 9.35 5.6 9.9 5.2 10.2 4.8 L10.15 4.75 10.1 4.8 Q9.5 5.35 8.5 5.8 M3.85 6.85 L4.85 6.75 5.75 6.65 3.85 6.85 M-6.5 7.2 L-6.25 7.5 -5.55 8.15 -5.2 8.4 -4.95 8.55 -4.8 8.65 Q-4.75 8.65 -4.7 8.7 L-4.45 8.8 Q-4.1 8.9 -3.8 8.9 L-3.8 8.95 Q-3.85 9.0 -3.85 9.2 -3.85 9.5 -3.8 9.55 -3.75 9.65 -3.45 9.75 L-3.0 9.75 -2.95 9.7 Q-2.85 9.7 -2.85 9.65 -2.8 9.6 -2.8 9.45 L-2.85 9.35 -2.85 9.25 Q-2.9 9.2 -2.95 9.15 L-3.05 9.15 -3.05 9.2 -3.1 9.25 -3.1 9.45 -3.35 9.45 Q-3.5 9.45 -3.55 9.35 L-3.55 9.15 -3.5 9.05 -3.05 9.05 -2.45 9.1 -1.1 9.0 -0.7 8.9 -0.6 9.15 -0.95 9.15 Q-1.3 9.1 -1.6 9.25 L-2.0 9.35 Q-2.2 9.4 -2.3 9.5 -2.4 9.5 -2.5 9.55 L-2.55 9.65 Q-2.6 9.7 -2.65 9.8 L-2.65 9.9 -2.7 9.9 -3.3 9.95 -3.8 10.05 -3.85 10.0 -3.85 9.65 Q-3.9 9.55 -3.95 9.45 L-4.0 9.5 -4.2 9.45 Q-4.4 9.35 -4.7 9.2 L-4.85 9.15 -5.1 9.0 -5.15 8.95 Q-5.55 8.7 -5.85 8.35 L-5.9 8.3 Q-6.25 7.75 -6.45 7.3 L-6.5 7.2 M-0.8 8.5 L-1.2 8.65 Q-1.85 8.8 -2.45 8.8 L-3.1 8.8 -3.0 8.65 Q-2.9 8.5 -2.9 8.4 L-2.95 8.2 -2.95 8.15 Q-3.0 8.0 -3.1 7.9 L-2.75 7.75 -2.65 7.75 -2.6 7.8 Q-2.55 7.95 -2.5 8.05 -2.3 8.2 -2.2 8.3 L-1.8 8.4 Q-1.4 8.4 -1.05 8.2 L-0.9 8.05 -0.8 8.5 M-4.15 8.1 L-4.2 8.2 -4.15 8.35 Q-4.15 8.45 -4.0 8.45 L-3.95 8.45 -3.9 8.45 -3.7 8.3 Q-3.6 8.2 -3.55 8.2 -3.45 8.2 -3.35 8.3 L-3.25 8.35 -3.25 8.5 -3.3 8.6 -3.5 8.7 -3.8 8.7 -4.2 8.6 -4.5 8.45 -4.6 8.45 Q-4.65 8.4 -4.7 8.4 -4.7 8.1 -4.4 8.0 -4.2 7.95 -4.15 8.1 M-4.8 7.75 L-4.75 7.75 -4.75 7.95 -4.8 8.0 -4.9 8.05 -5.05 8.0 Q-5.1 8.0 -5.1 7.85 -5.1 7.75 -5.0 7.75 L-4.8 7.75" fill="#737373" fill-rule="evenodd" stroke="none"/>
    <path d="M5.75 6.65 Q6.5 6.5 7.25 6.25 7.95 6.05 8.5 5.8 9.5 5.35 10.1 4.8 L10.15 4.75 10.2 4.8 Q9.9 5.2 9.35 5.6 8.85 6.0 8.45 6.2 7.65 6.5 6.9 6.65 L5.9 6.95 3.3 7.15 3.45 7.2 Q3.8 7.35 4.25 7.35 L5.8 7.2 Q6.8 7.2 6.8 7.6 L6.7 7.8 Q6.6 7.9 6.4 8.0 5.75 7.95 5.6 7.85 5.5 7.8 5.5 7.6 L5.55 7.55 Q5.7 7.6 5.75 7.65 L5.85 7.8 6.3 7.75 6.6 7.6 6.45 7.5 5.75 7.45 4.25 7.6 Q3.95 7.6 3.65 7.5 4.05 7.7 4.05 7.9 4.05 8.3 3.25 8.3 2.95 8.3 2.95 8.0 2.95 7.85 3.15 7.75 L3.4 7.75 3.55 7.95 Q3.55 8.05 3.4 8.0 L3.35 7.95 3.15 7.95 3.1 8.0 3.25 8.15 Q3.45 8.15 3.65 8.05 L3.9 7.9 3.5 7.6 3.15 7.3 Q3.15 7.5 2.85 7.75 2.55 8.0 2.15 8.15 L2.15 8.1 2.15 7.95 2.1 7.8 2.6 7.5 Q3.0 7.2 2.85 6.85 L3.85 6.85 5.75 6.65 M3.25 7.25 L3.25 7.25 M-6.5 7.2 L-6.6 6.85 -6.45 6.95 -5.4 8.0 Q-5.1 8.2 -4.6 8.45 L-4.5 8.45 -4.2 8.6 -3.8 8.7 -3.5 8.7 -3.3 8.6 -3.25 8.5 -3.25 8.35 -3.35 8.3 Q-3.45 8.2 -3.55 8.2 -3.6 8.2 -3.7 8.3 L-3.9 8.45 -3.95 8.45 -4.0 8.45 Q-4.15 8.45 -4.15 8.35 L-4.2 8.2 -4.15 8.1 -4.05 8.0 -4.0 8.0 -3.8 7.9 -3.75 7.85 -3.5 7.8 -3.45 7.8 -3.15 7.9 -3.1 7.9 Q-3.0 8.0 -2.95 8.15 L-2.95 8.2 -2.9 8.4 Q-2.9 8.5 -3.0 8.65 L-3.1 8.8 -2.45 8.8 Q-1.85 8.8 -1.2 8.65 L-0.8 8.5 -0.7 8.9 -1.1 9.0 -2.45 9.1 -3.05 9.05 -3.5 9.05 -3.55 9.15 -3.55 9.35 Q-3.5 9.45 -3.35 9.45 L-3.1 9.45 -3.1 9.25 -3.05 9.2 -3.05 9.15 -2.95 9.15 Q-2.9 9.2 -2.85 9.25 L-2.85 9.35 -2.8 9.45 Q-2.8 9.6 -2.85 9.65 -2.85 9.7 -2.95 9.7 L-3.0 9.75 -3.45 9.75 Q-3.75 9.65 -3.8 9.55 -3.85 9.5 -3.85 9.2 -3.85 9.0 -3.8 8.95 L-3.8 8.9 Q-4.1 8.9 -4.45 8.8 L-4.7 8.7 Q-4.75 8.65 -4.8 8.65 L-4.95 8.55 -5.2 8.4 -5.55 8.15 -6.25 7.5 -6.5 7.2" fill="#575757" fill-rule="evenodd" stroke="none"/>
  </g>
</svg>
