<?xml version="1.0" encoding="UTF-8" standalone="no"?>
<svg xmlns:ffdec="https://www.free-decompiler.com/flash" xmlns:xlink="http://www.w3.org/1999/xlink" ffdec:objectType="shape" height="17.8px" width="22.0px" xmlns="http://www.w3.org/2000/svg">
  <g transform="matrix(1.0, 0.0, 0.0, 1.0, 8.75, 9.1)">
    <path d="M7.25 -5.15 L7.5 -4.7 8.9 -2.2 Q10.25 0.05 11.7 1.6 L11.8 1.7 11.8 1.6 11.75 1.5 11.75 1.35 Q11.0 -0.95 9.0 -4.2 L7.45 -6.6 7.2 -7.05 7.15 -7.05 Q6.9 -7.05 6.25 -7.7 L6.2 -7.75 Q5.65 -8.25 5.0 -8.25 L4.75 -8.25 4.5 -8.25 3.4 -8.2 3.25 -8.15 Q1.9 -8.0 0.25 -7.6 0.5 -7.3 1.25 -5.75 L1.35 -5.6 1.4 -5.65 1.5 -5.35 Q2.15 -4.0 2.15 -3.75 L2.1 -3.35 3.55 1.45 Q4.55 5.05 4.95 6.8 L5.05 6.8 Q5.05 6.9 5.0 6.95 5.15 7.65 5.2 8.0 L6.8 6.9 7.5 6.45 8.85 5.5 9.05 5.35 9.5 5.05 9.6 5.0 10.6 4.35 10.8 4.25 10.85 4.2 Q12.05 3.45 12.6 3.15 L12.6 3.0 Q11.1 2.85 8.9 -0.75 7.05 -3.75 6.0 -6.85 L6.25 -6.6 6.15 -6.8 Q6.15 -6.85 6.3 -6.85 L6.9 -5.65 7.25 -5.15 M7.6 -7.3 Q9.35 -5.85 10.4 -3.8 11.1 -3.1 12.15 -0.75 13.25 1.75 13.25 2.9 13.25 3.1 13.2 3.3 L13.05 3.65 12.9 3.7 Q12.15 4.75 9.45 6.35 8.1 7.15 6.65 7.9 5.4 8.55 4.95 8.7 L4.7 8.65 Q4.6 8.6 4.6 8.45 L4.8 8.3 4.45 7.15 2.85 7.2 Q0.15 7.2 -0.6 6.95 -0.9 6.85 -1.05 6.75 L-1.05 7.3 Q-1.05 7.55 -1.1 8.05 L-1.05 8.05 -1.1 8.15 -1.15 8.45 -1.7 8.45 Q-2.9 8.45 -5.9 6.8 L-7.9 5.55 Q-8.75 5.0 -8.75 4.85 L-8.7 4.7 -8.65 4.7 -8.7 4.5 -8.35 2.3 Q-7.95 0.0 -7.95 -0.85 L-8.35 -5.05 Q-8.35 -5.35 -8.35 -5.2 L-8.2 -5.0 -8.2 -5.05 -8.1 -5.6 Q-8.0 -6.05 -8.0 -6.2 -4.1 -7.6 -0.25 -8.45 7.3 -10.15 7.45 -7.5 L7.6 -7.3 M0.05 -7.55 Q-1.35 -7.25 -2.9 -6.75 L-3.0 -6.75 -2.55 -4.8 Q-2.05 -2.6 -2.05 -2.05 L-2.05 -1.7 -2.1 -1.7 Q-1.95 -0.7 -1.75 0.45 -1.2 4.0 -1.05 6.15 L-0.8 6.15 4.35 6.7 3.4 3.3 Q2.2 -1.05 1.55 -3.95 L0.8 -5.5 Q0.05 -7.15 0.05 -7.4 L0.05 -7.55 M12.05 1.45 L12.25 2.15 12.6 2.45 Q12.5 1.6 11.6 -0.6 L11.85 0.35 12.0 1.05 12.05 1.45 M-4.8 -6.15 L-6.3 -5.55 -6.35 -5.55 Q-7.35 -5.1 -7.35 -4.95 -7.35 -4.75 -7.15 -3.25 -6.9 -1.8 -6.9 -1.25 L-7.0 -0.65 -7.1 -0.3 -7.25 0.5 -7.25 0.55 -7.3 0.65 Q-7.4 0.45 -7.45 -0.1 L-7.5 0.3 -7.5 0.75 -7.6 2.15 Q-7.6 2.3 -7.7 2.8 L-7.8 3.45 Q-7.8 3.6 -7.9 4.0 L-8.0 4.5 Q-8.0 4.7 -8.1 4.85 L-8.15 4.95 Q-7.8 5.15 -7.4 5.35 L-7.15 5.5 -6.85 5.7 -5.55 6.45 -5.35 6.55 -5.3 6.55 Q-5.1 6.65 -4.9 6.75 L-3.6 7.3 -3.15 7.45 Q-2.3 7.7 -1.4 7.9 -1.55 7.15 -1.7 5.8 -1.85 4.1 -1.85 3.6 -1.85 2.95 -2.45 -1.0 L-2.9 -4.25 -3.0 -4.65 -3.4 -6.6 -4.55 -6.25 -4.8 -6.15" fill="#111111" fill-rule="evenodd" stroke="none"/>
    <path d="M6.2 -7.75 Q6.15 -7.65 6.15 -7.5 6.65 -6.3 7.25 -5.15 L6.9 -5.65 6.3 -6.85 Q6.15 -6.85 6.15 -6.8 L6.25 -6.6 6.0 -6.85 Q7.05 -3.75 8.9 -0.75 11.1 2.85 12.6 3.0 L12.6 3.15 Q12.05 3.45 10.85 4.2 9.25 1.45 7.7 -1.9 6.65 -4.05 4.75 -8.25 L5.0 -8.25 Q5.65 -8.25 6.2 -7.75 M4.5 -8.25 Q4.55 -7.75 5.15 -6.3 L5.85 -4.65 Q5.85 -3.6 8.25 0.6 9.75 3.15 10.6 4.35 L9.6 5.0 Q8.4 3.8 7.5 2.35 6.55 0.85 5.8 -1.25 L4.65 -4.9 Q4.05 -6.85 3.4 -8.2 L4.5 -8.25 M3.25 -8.15 Q3.45 -7.55 4.25 -5.45 4.95 -3.45 4.95 -3.35 5.65 -0.95 6.55 1.4 7.8 4.5 8.8 5.55 L8.85 5.5 7.5 6.45 Q6.4 5.1 5.65 3.45 5.0 2.0 4.3 -0.45 3.45 -3.25 3.1 -4.2 2.3 -6.25 1.15 -7.7 1.75 -6.35 2.65 -3.4 L4.2 1.6 Q5.1 4.35 5.9 5.75 6.35 6.5 6.8 6.9 L5.2 8.0 Q5.15 7.65 5.0 6.95 5.05 6.9 5.05 6.8 L4.95 6.8 Q4.55 5.05 3.55 1.45 L2.1 -3.35 2.15 -3.75 Q2.15 -4.0 1.5 -5.35 L1.4 -5.65 1.35 -5.6 1.25 -5.75 Q0.5 -7.3 0.25 -7.6 1.9 -8.0 3.25 -8.15 M12.05 1.45 L12.05 1.35 Q12.05 0.95 11.85 0.35 L11.6 -0.6 Q12.5 1.6 12.6 2.45 L12.25 2.15 12.05 1.45 M-6.3 -5.55 L-4.8 -6.15 -4.8 -6.05 -4.4 -2.9 Q-3.95 0.25 -3.9 1.4 -3.85 2.05 -3.95 3.25 L-4.0 5.1 Q-4.0 6.3 -3.6 7.3 L-4.9 6.75 -4.75 6.85 Q-5.05 6.0 -5.15 5.6 -5.4 4.8 -5.4 3.45 -5.4 2.4 -5.3 0.85 -5.2 -0.5 -5.25 -1.15 -5.3 -3.0 -6.3 -5.55 M-4.55 -6.25 L-3.4 -6.6 -3.0 -4.65 -2.9 -4.25 -2.45 -1.0 Q-1.85 2.95 -1.85 3.6 -1.85 4.1 -1.7 5.8 -1.55 7.15 -1.4 7.9 -2.3 7.7 -3.15 7.45 -3.4 6.9 -3.45 6.25 -3.55 5.7 -3.55 4.05 L-3.45 1.6 Q-3.4 0.3 -3.6 -1.1 -3.75 -1.95 -3.9 -3.75 -4.1 -5.25 -4.55 -6.25 M-5.35 6.55 L-5.55 6.45 -6.85 5.7 Q-6.95 4.6 -7.05 2.25 L-7.0 -0.65 -6.9 -1.25 Q-6.9 -1.8 -7.15 -3.25 -7.35 -4.75 -7.35 -4.95 -7.35 -5.1 -6.35 -5.55 L-6.4 -5.5 -6.15 -3.45 Q-5.85 -1.2 -5.85 0.9 -5.85 1.65 -5.95 2.75 -6.1 3.8 -6.05 4.25 -6.0 5.25 -5.35 6.55 M-7.4 5.35 Q-7.8 5.15 -8.15 4.95 L-8.1 4.85 Q-8.0 4.7 -8.0 4.5 L-7.9 4.0 Q-7.8 3.6 -7.8 3.45 L-7.7 2.8 Q-7.6 2.3 -7.6 2.15 L-7.5 0.75 -7.5 0.3 -7.5 0.7 Q-7.55 2.65 -7.55 3.8 -7.5 4.75 -7.4 5.35" fill="#0070e0" fill-rule="evenodd" stroke="none"/>
    <path d="M7.25 -5.15 Q6.65 -6.3 6.15 -7.5 6.15 -7.65 6.2 -7.75 L6.25 -7.7 Q6.9 -7.05 7.15 -7.05 L7.2 -7.05 7.45 -6.6 9.0 -4.2 Q11.0 -0.95 11.75 1.35 L11.75 1.5 11.8 1.6 11.7 1.6 Q10.25 0.05 8.9 -2.2 L7.5 -4.7 7.25 -5.15 M4.75 -8.25 Q6.65 -4.05 7.7 -1.9 9.25 1.45 10.85 4.2 L10.8 4.25 10.6 4.35 Q9.75 3.15 8.25 0.6 5.85 -3.6 5.85 -4.65 L5.15 -6.3 Q4.55 -7.75 4.5 -8.25 L4.75 -8.25 M3.25 -8.15 L3.4 -8.2 Q4.05 -6.85 4.65 -4.9 L5.8 -1.25 Q6.55 0.85 7.5 2.35 8.4 3.8 9.6 5.0 L9.5 5.05 9.05 5.35 8.85 5.5 8.8 5.55 Q7.8 4.5 6.55 1.4 5.65 -0.95 4.95 -3.35 4.95 -3.45 4.25 -5.45 3.45 -7.55 3.25 -8.15 M0.05 -7.55 L0.05 -7.4 Q0.05 -7.15 0.8 -5.5 L1.55 -3.95 Q2.2 -1.05 3.4 3.3 L4.35 6.7 -0.8 6.15 -1.05 6.15 Q-1.2 4.0 -1.75 0.45 -1.95 -0.7 -2.1 -1.7 L-2.05 -1.7 -2.05 -2.05 Q-2.05 -2.6 -2.55 -4.8 L-3.0 -6.75 -2.9 -6.75 Q-1.35 -7.25 0.05 -7.55 M6.8 6.9 Q6.35 6.5 5.9 5.75 5.1 4.35 4.2 1.6 L2.65 -3.4 Q1.75 -6.35 1.15 -7.7 2.3 -6.25 3.1 -4.2 3.45 -3.25 4.3 -0.45 5.0 2.0 5.65 3.45 6.4 5.1 7.5 6.45 L6.8 6.9 M11.85 0.35 Q12.05 0.95 12.05 1.35 L12.05 1.45 12.0 1.05 11.85 0.35 M-4.8 -6.15 L-4.55 -6.25 Q-4.1 -5.25 -3.9 -3.75 -3.75 -1.95 -3.6 -1.1 -3.4 0.3 -3.45 1.6 L-3.55 4.05 Q-3.55 5.7 -3.45 6.25 -3.4 6.9 -3.15 7.45 L-3.6 7.3 Q-4.0 6.3 -4.0 5.1 L-3.95 3.25 Q-3.85 2.05 -3.9 1.4 -3.95 0.25 -4.4 -2.9 L-4.8 -6.05 -4.8 -6.15 M-4.9 6.75 Q-5.1 6.65 -5.3 6.55 L-5.35 6.55 Q-6.0 5.25 -6.05 4.25 -6.1 3.8 -5.95 2.75 -5.85 1.65 -5.85 0.9 -5.85 -1.2 -6.15 -3.45 L-6.4 -5.5 -6.35 -5.55 -6.3 -5.55 Q-5.3 -3.0 -5.25 -1.15 -5.2 -0.5 -5.3 0.85 -5.4 2.4 -5.4 3.45 -5.4 4.8 -5.15 5.6 -5.05 6.0 -4.75 6.85 L-4.9 6.75 M-6.85 5.7 L-7.15 5.5 -7.4 5.35 Q-7.5 4.75 -7.55 3.8 -7.55 2.65 -7.5 0.7 L-7.5 0.3 -7.45 -0.1 Q-7.4 0.45 -7.3 0.65 L-7.25 0.55 -7.25 0.5 -7.1 -0.3 -7.0 -0.65 -7.05 2.25 Q-6.95 4.6 -6.85 5.7" fill="#80c0f0" fill-rule="evenodd" stroke="none"/>
  </g>
</svg>
