<?xml version="1.0" encoding="UTF-8" standalone="no"?>
<svg xmlns:ffdec="https://www.free-decompiler.com/flash" xmlns:xlink="http://www.w3.org/1999/xlink" ffdec:objectType="shape" height="8.6px" width="8.9px" xmlns="http://www.w3.org/2000/svg">
  <g transform="matrix(1.0, 0.0, 0.0, 1.0, 3.7, 6.1)">
    <path d="M4.75 -3.65 Q5.2 -2.9 5.2 -2.15 5.2 -1.55 4.95 -1.25 L4.9 -1.2 Q4.8 -0.8 4.6 -0.6 4.3 -0.35 3.75 -0.35 2.45 -0.35 1.0 1.1 0.35 1.75 -0.1 2.4 L-0.15 2.4 -0.2 2.5 Q-0.35 2.5 -0.8 2.25 L-0.9 2.25 Q-1.7 2.25 -2.55 1.2 -3.25 0.45 -3.5 -0.6 -3.7 -1.25 -3.7 -2.0 -3.7 -2.55 -3.45 -3.2 L-3.2 -3.85 Q-2.8 -4.6 -2.1 -5.2 L-1.8 -5.45 Q-1.55 -5.65 -1.3 -5.7 -0.45 -6.1 0.7 -6.1 2.6 -6.1 4.0 -4.7 4.55 -4.25 4.75 -3.65 M2.55 -5.15 L1.95 -5.3 1.65 -5.35 0.55 -5.4 -0.85 -5.3 Q-1.1 -5.3 -1.8 -4.6 -0.8 -4.5 0.55 -3.5 L0.65 -3.4 Q2.2 -2.25 2.8 -0.8 L2.95 -0.45 Q3.3 -0.65 3.6 -0.65 3.95 -0.65 4.2 -0.75 L4.15 -0.85 4.3 -1.1 Q4.45 -1.45 4.55 -2.15 L4.5 -2.5 4.5 -2.7 Q4.05 -4.25 2.9 -5.0 L2.7 -5.15 2.55 -5.15 M2.85 -0.45 L2.85 -0.45 M2.05 -0.1 L2.1 -0.15 Q2.3 -0.2 2.7 -0.4 1.6 -2.35 0.1 -3.25 -1.0 -3.95 -2.35 -4.05 L-2.5 -3.9 -2.85 -3.3 -2.7 -3.3 Q-1.7 -3.3 -0.15 -2.5 1.55 -1.55 2.0 -0.3 L2.05 -0.15 2.05 -0.1 M1.95 -0.05 Q0.85 -1.55 -0.7 -2.3 -1.15 -2.55 -2.95 -3.15 -3.2 -2.45 -3.2 -1.7 L-3.2 -1.3 -3.15 -0.9 -2.85 -0.2 -2.5 0.6 -2.25 0.95 -1.7 1.45 -1.55 1.55 Q-1.4 1.55 -1.1 1.75 L-1.0 1.8 -0.55 2.05 -0.6 2.05 -0.5 2.1 Q-0.25 1.7 0.15 1.25 0.95 0.35 1.95 -0.05 M-2.05 -4.35 L-2.1 -4.35 -1.9 -4.3 -2.05 -4.35" fill="#000004" fill-rule="evenodd" stroke="none"/>
    <path d="M2.55 -5.15 L2.7 -5.15 2.9 -5.0 Q4.05 -4.25 4.5 -2.7 L4.5 -2.5 4.55 -2.15 Q4.45 -1.45 4.3 -1.1 L4.15 -0.85 4.2 -0.75 Q3.95 -0.65 3.6 -0.65 3.3 -0.65 2.95 -0.45 L2.8 -0.8 Q2.2 -2.25 0.65 -3.4 L0.55 -3.5 Q-0.8 -4.5 -1.8 -4.6 -1.1 -5.3 -0.85 -5.3 L0.55 -5.4 1.65 -5.35 1.95 -5.3 2.55 -5.15 M1.95 -0.05 Q0.95 0.35 0.15 1.25 -0.25 1.7 -0.5 2.1 L-0.6 2.05 -0.55 2.05 -1.0 1.8 -1.1 1.75 Q-1.4 1.55 -1.55 1.55 L-1.7 1.45 -2.25 0.95 -2.5 0.6 -2.85 -0.2 -3.15 -0.9 -3.2 -1.3 -3.2 -1.7 Q-3.2 -2.45 -2.95 -3.15 -1.15 -2.55 -0.7 -2.3 0.85 -1.55 1.95 -0.05" fill="#b00000" fill-rule="evenodd" stroke="none"/>
    <path d="M2.05 -0.1 L2.05 -0.15 2.0 -0.3 Q1.55 -1.55 -0.15 -2.5 -1.7 -3.3 -2.7 -3.3 L-2.85 -3.3 -2.5 -3.9 -2.35 -4.05 Q-1.0 -3.95 0.1 -3.25 1.6 -2.35 2.7 -0.4 2.3 -0.2 2.1 -0.15 L2.05 -0.1" fill="#f0f0a0" fill-rule="evenodd" stroke="none"/>
  </g>
</svg>
