<?xml version="1.0" encoding="UTF-8" standalone="no"?>
<svg xmlns:ffdec="https://www.free-decompiler.com/flash" xmlns:xlink="http://www.w3.org/1999/xlink" ffdec:objectType="shape" height="20.25px" width="11.35px" xmlns="http://www.w3.org/2000/svg">
  <g transform="matrix(1.0, 0.0, 0.0, 1.0, 4.55, 15.3)">
    <path d="M1.1 -7.55 L1.3 -7.65 1.35 -7.7 0.95 -7.55 Q-0.25 -7.1 -1.05 -6.65 -1.85 -6.1 -2.6 -5.25 L-3.25 -4.45 Q-3.65 -3.9 -3.9 -3.3 L-4.2 -2.45 -4.2 -1.9 -4.15 -2.1 Q-4.0 -2.6 -3.65 -2.8 -3.25 -3.15 -2.7 -3.1 L-2.45 -2.9 Q-2.25 -2.55 -2.25 -2.2 -2.25 -1.85 -2.6 -1.4 L-2.65 -1.4 Q-2.65 -1.6 -2.7 -1.7 L-2.75 -1.8 Q-2.8 -1.9 -2.95 -1.95 -3.2 -1.95 -3.35 -1.65 L-3.4 -1.25 Q-3.4 -1.05 -3.25 -0.65 -3.15 -0.4 -3.0 -0.25 L-2.9 -0.25 Q-2.75 -0.1 -2.55 -0.1 L-2.35 -0.15 Q-2.15 -0.25 -2.0 -0.55 -1.9 -0.7 -1.7 -1.2 L-1.65 -1.35 -1.65 -1.4 -1.6 -1.8 -1.7 -3.25 Q-1.7 -4.75 -1.0 -5.8 -0.35 -6.8 1.05 -7.5 L1.1 -7.55 M0.7 -7.85 L1.65 -8.0 2.75 -8.15 2.95 -8.15 Q5.45 -5.9 6.0 -5.0 6.4 -4.4 6.6 -3.5 L6.7 -3.15 Q6.8 -2.0 6.8 -1.55 6.8 -1.1 6.45 -0.65 6.15 -0.15 5.6 0.25 L5.7 0.55 Q5.75 1.0 6.1 1.7 6.4 2.35 6.8 2.65 6.8 2.8 6.55 2.9 6.3 3.05 6.0 3.05 5.55 3.05 5.45 2.85 L5.35 2.55 Q4.95 2.4 4.55 2.4 3.7 2.4 2.35 2.95 1.9 3.2 1.15 3.65 -1.0 4.95 -2.0 4.95 L-2.1 4.95 -2.25 4.9 -2.25 4.8 Q-2.4 4.7 -2.5 4.3 L-2.65 3.3 -2.85 2.55 -2.95 2.05 -3.3 1.6 -3.6 1.35 Q-3.95 0.95 -4.1 0.6 L-4.15 0.5 Q-4.2 0.35 -4.3 0.05 -4.4 -0.4 -4.4 -0.85 L-4.4 -0.9 -4.5 -1.4 -4.45 -1.55 Q-4.55 -1.85 -4.55 -2.0 -4.55 -3.4 -3.4 -4.95 L-2.3 -6.15 Q-2.1 -6.4 -1.0 -7.1 -0.2 -7.6 0.7 -7.85 M1.45 -7.35 Q0.4 -6.95 -0.35 -5.75 L-0.45 -5.6 Q-1.1 -4.75 -1.2 -3.35 L-1.25 -2.2 Q-1.25 -1.5 -1.4 -1.1 L-1.55 -0.6 -1.7 -0.45 -1.7 -0.4 Q-1.7 -0.3 -1.95 -0.05 -2.2 0.15 -2.45 0.2 L-2.6 0.2 Q-3.25 0.2 -3.5 -0.5 -3.65 -0.9 -3.7 -1.25 L-3.7 -1.3 Q-3.7 -1.8 -3.35 -2.05 L-3.25 -2.1 -3.25 -2.15 -3.2 -2.2 -3.05 -2.2 -2.6 -2.25 -2.5 -2.1 -2.5 -2.15 Q-2.5 -2.3 -2.6 -2.5 L-2.6 -2.55 Q-2.8 -2.7 -3.05 -2.7 -3.4 -2.7 -3.65 -2.45 -3.85 -2.2 -3.95 -1.8 -4.1 -1.35 -4.1 -0.85 L-4.05 -0.5 -3.9 0.0 -3.65 0.5 -3.2 0.95 -3.1 1.0 -3.05 1.05 Q-2.9 1.2 -2.55 1.2 -1.3 1.2 -0.25 0.0 0.25 -0.65 0.6 -1.35 L0.65 -1.4 0.75 -1.55 1.55 -2.3 Q2.25 -2.9 2.95 -3.3 3.75 -3.8 4.55 -3.9 L4.65 -3.8 4.85 -3.45 5.0 -3.15 Q5.35 -2.7 5.5 -1.7 5.6 -1.1 5.65 -0.5 5.8 -0.55 5.85 -0.65 5.95 -0.7 6.0 -0.85 6.2 -1.0 6.25 -1.5 L6.25 -1.55 6.3 -1.8 6.35 -2.4 6.35 -3.15 6.2 -3.9 Q6.05 -4.45 5.75 -4.9 5.25 -5.7 2.9 -7.85 2.05 -7.65 1.45 -7.35 M1.95 -2.3 Q1.05 -1.45 0.75 -0.6 0.6 -0.15 0.3 1.3 L0.15 2.0 0.0 2.6 Q-0.3 3.55 -0.85 4.2 L-0.35 3.95 Q0.7 3.35 1.4 3.05 2.0 2.8 2.55 2.6 2.95 2.4 3.2 2.3 3.8 2.1 4.65 2.1 5.55 2.1 5.7 2.35 L5.75 2.5 5.85 2.6 5.95 2.6 Q6.1 2.6 6.2 2.55 L5.85 1.9 5.85 1.85 Q5.45 1.1 5.2 -0.85 L5.2 -1.0 5.1 -1.4 4.95 -2.2 4.9 -2.35 Q4.8 -2.85 4.6 -3.15 L4.55 -3.25 4.4 -3.45 4.35 -3.5 4.3 -3.45 4.25 -3.5 Q3.8 -3.4 3.35 -3.2 2.6 -2.9 1.95 -2.3 M0.4 -0.35 Q-0.2 0.35 -0.5 0.6 -0.8 0.9 -1.1 1.05 -1.7 1.5 -2.2 1.5 L-2.75 1.45 -2.95 1.45 -2.95 1.5 -2.9 1.55 -2.7 1.85 -2.6 2.05 -2.35 3.2 Q-2.2 4.0 -1.95 4.5 L-1.9 4.5 -1.9 4.55 -1.3 4.35 Q-0.95 3.95 -0.6 3.2 0.1 1.8 0.3 0.2 0.3 -0.1 0.4 -0.35" fill="#000000" fill-rule="evenodd" stroke="none"/>
    <path d="M1.1 -7.55 L1.05 -7.5 Q-0.35 -6.8 -1.0 -5.8 -1.7 -4.75 -1.7 -3.25 L-1.6 -1.8 -1.65 -1.4 -1.65 -1.35 -1.7 -1.2 Q-1.9 -0.7 -2.0 -0.55 -2.15 -0.25 -2.35 -0.15 L-2.55 -0.1 Q-2.75 -0.1 -2.9 -0.25 L-3.0 -0.25 Q-3.15 -0.4 -3.25 -0.65 -3.4 -1.05 -3.4 -1.25 L-3.35 -1.65 Q-3.2 -1.95 -2.95 -1.95 -2.8 -1.9 -2.75 -1.8 L-2.7 -1.7 Q-2.65 -1.6 -2.65 -1.4 L-2.6 -1.4 Q-2.25 -1.85 -2.25 -2.2 -2.25 -2.55 -2.45 -2.9 L-2.7 -3.1 Q-3.25 -3.15 -3.65 -2.8 -4.0 -2.6 -4.15 -2.1 L-4.2 -1.9 -4.2 -2.45 -3.9 -3.3 Q-3.65 -3.9 -3.25 -4.45 L-2.6 -5.25 Q-1.85 -6.1 -1.05 -6.65 -0.25 -7.1 0.95 -7.55 L1.35 -7.7 1.3 -7.65 1.1 -7.55 M3.2 -4.15 Q2.95 -4.15 2.9 -4.3 L2.9 -4.4 Q2.9 -4.6 3.15 -4.6 3.4 -4.6 3.4 -4.4 L3.4 -4.2 3.2 -4.15 M5.45 -3.85 L5.3 -3.85 Q5.1 -3.85 4.8 -4.15 4.55 -4.45 4.55 -4.55 L4.55 -4.75 Q5.05 -4.85 5.3 -4.5 5.5 -4.2 5.5 -3.9 L5.45 -3.85 M2.0 -3.7 Q2.0 -3.55 1.6 -3.15 1.15 -2.7 0.95 -2.7 L0.7 -2.7 0.7 -2.95 Q0.7 -3.15 1.1 -3.5 1.55 -3.9 1.95 -3.85 2.0 -3.85 2.0 -3.7 M0.4 -2.0 Q0.4 -1.75 0.15 -1.75 L-0.05 -1.8 -0.1 -1.95 Q-0.1 -2.2 0.15 -2.25 0.4 -2.3 0.4 -2.0 M1.95 -2.3 Q2.6 -2.9 3.35 -3.2 3.8 -3.4 4.25 -3.5 L4.3 -3.45 4.35 -3.5 4.4 -3.45 4.55 -3.25 4.6 -3.15 Q4.8 -2.85 4.9 -2.35 L4.95 -2.2 5.1 -1.4 5.2 -1.0 5.2 -0.85 Q5.45 1.1 5.85 1.85 L5.85 1.9 6.2 2.55 Q6.1 2.6 5.95 2.6 L5.85 2.6 5.75 2.5 5.7 2.35 Q5.55 2.1 4.65 2.1 3.8 2.1 3.2 2.3 2.95 2.4 2.55 2.6 2.0 2.8 1.4 3.05 0.7 3.35 -0.35 3.95 L-0.85 4.2 Q-0.3 3.55 0.0 2.6 L0.15 2.0 0.3 1.3 Q0.6 -0.15 0.75 -0.6 1.05 -1.45 1.95 -2.3 M5.65 -3.05 L5.6 -3.1 5.6 -3.2 5.65 -3.25 5.75 -3.3 5.85 -3.2 5.85 -3.05 Q5.85 -3.0 5.75 -3.0 L5.65 -3.05 M5.75 -1.8 Q5.75 -2.35 6.0 -2.35 6.2 -2.35 6.2 -1.8 L6.2 -1.5 Q6.15 -1.3 5.95 -1.3 5.8 -1.3 5.75 -1.5 L5.75 -1.8 M0.4 -0.35 Q0.3 -0.1 0.3 0.2 0.1 1.8 -0.6 3.2 -0.95 3.95 -1.3 4.35 L-1.9 4.55 -1.9 4.5 -1.95 4.5 Q-2.2 4.0 -2.35 3.2 L-2.6 2.05 -2.7 1.85 -2.9 1.55 -2.95 1.5 -2.95 1.45 -2.75 1.45 -2.2 1.5 Q-1.7 1.5 -1.1 1.05 -0.8 0.9 -0.5 0.6 -0.2 0.35 0.4 -0.35 M-0.45 -15.2 Q-0.45 -15.1 -0.6 -15.0 L-0.7 -15.1 -0.75 -15.1 -0.75 -15.15 Q-0.75 -15.25 -0.7 -15.3 L-0.6 -15.3 Q-0.5 -15.25 -0.45 -15.2 M-3.4 -2.4 Q-3.3 -2.35 -3.25 -2.3 -3.4 -2.1 -3.45 -2.1 L-3.55 -2.1 -3.6 -2.15 -3.6 -2.45 -3.4 -2.4 M-3.9 -0.4 L-3.9 -0.55 Q-3.9 -0.6 -3.85 -0.65 -3.75 -0.7 -3.6 -0.65 L-3.55 -0.55 -3.6 -0.4 -3.75 -0.35 -3.9 -0.4 M-0.3 -1.3 L-0.25 -1.15 Q-0.25 -1.0 -0.45 -0.65 -0.7 -0.2 -0.95 -0.2 L-1.15 -0.2 -1.15 -0.4 Q-1.15 -0.65 -0.4 -1.45 L-0.3 -1.3 M-1.6 0.4 L-1.6 0.5 -1.65 0.55 -1.8 0.6 -1.95 0.55 -2.0 0.4 Q-2.0 0.3 -1.9 0.3 -1.85 0.25 -1.65 0.3 L-1.6 0.3 -1.6 0.4 M-2.95 0.45 Q-2.95 0.55 -3.0 0.55 -3.05 0.65 -3.15 0.65 L-3.35 0.6 -3.35 0.3 -3.25 0.25 -3.0 0.3 Q-2.95 0.3 -2.95 0.45" fill="#403020" fill-rule="evenodd" stroke="none"/>
    <path d="M1.45 -7.35 Q2.05 -7.65 2.9 -7.85 5.25 -5.7 5.75 -4.9 6.05 -4.45 6.2 -3.9 L6.35 -3.15 6.35 -2.4 6.3 -1.8 6.25 -1.55 6.25 -1.5 Q6.2 -1.0 6.0 -0.85 5.95 -0.7 5.85 -0.65 5.8 -0.55 5.65 -0.5 5.6 -1.1 5.5 -1.7 5.35 -2.7 5.0 -3.15 L4.85 -3.45 4.65 -3.8 4.55 -3.9 Q3.75 -3.8 2.95 -3.3 2.25 -2.9 1.55 -2.3 L0.75 -1.55 0.65 -1.4 0.6 -1.35 Q0.25 -0.65 -0.25 0.0 -1.3 1.2 -2.55 1.2 -2.9 1.2 -3.05 1.05 L-3.1 1.0 -3.2 0.95 -3.65 0.5 -3.9 0.0 -4.05 -0.5 -4.1 -0.85 Q-4.1 -1.35 -3.95 -1.8 -3.85 -2.2 -3.65 -2.45 -3.4 -2.7 -3.05 -2.7 -2.8 -2.7 -2.6 -2.55 L-2.6 -2.5 Q-2.5 -2.3 -2.5 -2.15 L-2.5 -2.1 -2.6 -2.25 -3.05 -2.2 -3.2 -2.2 -3.25 -2.15 -3.25 -2.1 -3.35 -2.05 Q-3.7 -1.8 -3.7 -1.3 L-3.7 -1.25 Q-3.65 -0.9 -3.5 -0.5 -3.25 0.2 -2.6 0.2 L-2.45 0.2 Q-2.2 0.15 -1.95 -0.05 -1.7 -0.3 -1.7 -0.4 L-1.7 -0.45 -1.55 -0.6 -1.4 -1.1 Q-1.25 -1.5 -1.25 -2.2 L-1.2 -3.35 Q-1.1 -4.75 -0.45 -5.6 L-0.35 -5.75 Q0.4 -6.95 1.45 -7.35 M0.4 -2.0 Q0.4 -2.3 0.15 -2.25 -0.1 -2.2 -0.1 -1.95 L-0.05 -1.8 0.15 -1.75 Q0.4 -1.75 0.4 -2.0 M2.0 -3.7 Q2.0 -3.85 1.95 -3.85 1.55 -3.9 1.1 -3.5 0.7 -3.15 0.7 -2.95 L0.7 -2.7 0.95 -2.7 Q1.15 -2.7 1.6 -3.15 2.0 -3.55 2.0 -3.7 M5.45 -3.85 L5.5 -3.9 Q5.5 -4.2 5.3 -4.5 5.05 -4.85 4.55 -4.75 L4.55 -4.55 Q4.55 -4.45 4.8 -4.15 5.1 -3.85 5.3 -3.85 L5.45 -3.85 M3.2 -4.15 L3.4 -4.2 3.4 -4.4 Q3.4 -4.6 3.15 -4.6 2.9 -4.6 2.9 -4.4 L2.9 -4.3 Q2.95 -4.15 3.2 -4.15 M5.75 -1.8 L5.75 -1.5 Q5.8 -1.3 5.95 -1.3 6.15 -1.3 6.2 -1.5 L6.2 -1.8 Q6.2 -2.35 6.0 -2.35 5.75 -2.35 5.75 -1.8 M5.65 -3.05 L5.75 -3.0 Q5.85 -3.0 5.85 -3.05 L5.85 -3.2 5.75 -3.3 5.65 -3.25 5.6 -3.2 5.6 -3.1 5.65 -3.05 M-2.95 0.45 Q-2.95 0.3 -3.0 0.3 L-3.25 0.25 -3.35 0.3 -3.35 0.6 -3.15 0.65 Q-3.05 0.65 -3.0 0.55 -2.95 0.55 -2.95 0.45 M-1.6 0.4 L-1.6 0.3 -1.65 0.3 Q-1.85 0.25 -1.9 0.3 -2.0 0.3 -2.0 0.4 L-1.95 0.55 -1.8 0.6 -1.65 0.55 -1.6 0.5 -1.6 0.4 M-0.3 -1.3 L-0.4 -1.45 Q-1.15 -0.65 -1.15 -0.4 L-1.15 -0.2 -0.95 -0.2 Q-0.7 -0.2 -0.45 -0.65 -0.25 -1.0 -0.25 -1.15 L-0.3 -1.3 M-3.9 -0.4 L-3.75 -0.35 -3.6 -0.4 -3.55 -0.55 -3.6 -0.65 Q-3.75 -0.7 -3.85 -0.65 -3.9 -0.6 -3.9 -0.55 L-3.9 -0.4 M-3.4 -2.4 L-3.6 -2.45 -3.6 -2.15 -3.55 -2.1 -3.45 -2.1 Q-3.4 -2.1 -3.25 -2.3 -3.3 -2.35 -3.4 -2.4" fill="#b00000" fill-rule="evenodd" stroke="none"/>
  </g>
</svg>
