<?xml version="1.0" encoding="UTF-8" standalone="no"?>
<svg xmlns:ffdec="https://www.free-decompiler.com/flash" xmlns:xlink="http://www.w3.org/1999/xlink" ffdec:objectType="shape" height="6.45px" width="8.3px" xmlns="http://www.w3.org/2000/svg">
  <g transform="matrix(1.0, 0.0, 0.0, 1.0, 3.5, 5.95)">
    <path d="M3.65 -4.0 L3.5 -4.15 2.95 -4.6 2.65 -4.75 2.4 -4.7 Q1.9 -4.55 1.55 -4.15 L2.5 -4.2 3.0 -4.15 3.65 -4.0 M4.3 -3.75 Q4.8 -3.05 4.8 -2.15 4.8 -1.7 4.7 -1.25 L4.45 -0.5 Q4.45 -0.2 4.0 0.0 3.7 0.15 3.2 0.25 L2.35 0.4 0.65 0.5 0.5 0.5 -0.1 0.45 -0.25 0.45 -0.35 0.4 -1.15 0.25 -1.45 0.2 -1.75 0.1 -1.85 0.1 -2.0 0.05 -2.8 -0.2 -3.0 -0.4 -3.1 -0.45 -3.1 -0.5 -3.2 -0.55 Q-3.35 -0.65 -3.35 -0.8 -3.5 -1.25 -3.5 -1.55 L-3.45 -1.85 -3.4 -2.2 Q-3.4 -2.9 -2.55 -4.05 -1.75 -5.1 -1.05 -5.45 L-0.5 -5.75 Q-0.1 -5.9 0.25 -5.95 L0.8 -5.95 Q1.3 -5.9 2.05 -5.55 L2.75 -5.2 3.5 -4.7 Q3.9 -4.35 4.1 -4.15 L4.3 -3.75 M3.05 -3.65 L2.6 -3.7 2.2 -3.8 1.45 -3.7 0.95 -3.6 0.8 -3.65 0.75 -3.75 Q1.05 -4.25 1.4 -4.5 1.8 -4.85 2.25 -5.0 L1.9 -5.15 1.5 -5.3 1.15 -5.1 0.6 -4.75 Q0.25 -4.45 -0.1 -4.0 L-1.35 -2.4 -1.4 -2.4 -0.05 -2.7 1.25 -2.8 2.2 -2.7 3.2 -2.6 4.35 -2.4 4.25 -2.8 Q4.15 -3.1 4.0 -3.5 L3.55 -3.6 3.05 -3.65 M0.65 -5.55 Q0.15 -5.55 -0.35 -5.35 -0.8 -5.15 -1.1 -4.9 L-1.7 -4.4 -2.15 -3.9 Q-2.55 -3.4 -2.8 -2.8 -3.1 -2.15 -3.1 -1.6 -3.0 -1.1 -3.0 -0.95 -3.0 -0.9 -2.9 -0.8 L-2.6 -0.6 -2.35 -0.45 Q-1.45 -0.2 -1.35 -0.2 L-0.8 -0.1 0.9 0.1 1.8 0.05 2.0 0.0 2.75 -0.1 3.35 -0.2 Q3.7 -0.25 3.8 -0.45 L4.15 -1.25 Q4.35 -1.75 4.35 -2.1 L4.15 -2.15 Q3.75 -2.3 3.35 -2.3 L2.55 -2.4 1.35 -2.5 Q0.2 -2.5 -0.5 -2.35 -0.85 -2.3 -1.3 -2.05 -1.7 -1.85 -1.95 -1.85 L-1.95 -1.95 Q-1.95 -2.35 -0.55 -3.95 -0.25 -4.25 0.3 -4.9 0.65 -5.25 1.05 -5.45 L0.65 -5.55" fill="#111111" fill-rule="evenodd" stroke="none"/>
    <path d="M3.05 -3.65 L3.55 -3.6 4.0 -3.5 Q4.15 -3.1 4.25 -2.8 L4.35 -2.4 3.2 -2.6 2.2 -2.7 1.25 -2.8 -0.05 -2.7 -1.4 -2.4 -1.35 -2.4 -0.1 -4.0 Q0.25 -4.45 0.6 -4.75 L1.15 -5.1 1.5 -5.3 1.9 -5.15 2.25 -5.0 Q1.8 -4.85 1.4 -4.5 1.05 -4.25 0.75 -3.75 L0.8 -3.65 0.95 -3.6 1.45 -3.7 2.2 -3.8 2.6 -3.7 3.05 -3.65" fill="#b00000" fill-rule="evenodd" stroke="none"/>
    <path d="M3.65 -4.0 L3.0 -4.15 2.5 -4.2 1.55 -4.15 Q1.9 -4.55 2.4 -4.7 L2.65 -4.75 2.95 -4.6 3.5 -4.15 3.65 -4.0 M0.65 -5.55 L1.05 -5.45 Q0.65 -5.25 0.3 -4.9 -0.25 -4.25 -0.55 -3.95 -1.95 -2.35 -1.95 -1.95 L-1.95 -1.85 Q-1.7 -1.85 -1.3 -2.05 -0.85 -2.3 -0.5 -2.35 0.2 -2.5 1.35 -2.5 L2.55 -2.4 3.35 -2.3 Q3.75 -2.3 4.15 -2.15 L4.35 -2.1 Q4.35 -1.75 4.15 -1.25 L3.8 -0.45 Q3.7 -0.25 3.35 -0.2 L2.75 -0.1 2.0 0.0 1.8 0.05 0.9 0.1 -0.8 -0.1 -1.35 -0.2 Q-1.45 -0.2 -2.35 -0.45 L-2.6 -0.6 -2.9 -0.8 Q-3.0 -0.9 -3.0 -0.95 -3.0 -1.1 -3.1 -1.6 -3.1 -2.15 -2.8 -2.8 -2.55 -3.4 -2.15 -3.9 L-1.7 -4.4 -1.1 -4.9 Q-0.8 -5.15 -0.35 -5.35 0.15 -5.55 0.65 -5.55" fill="#403020" fill-rule="evenodd" stroke="none"/>
  </g>
</svg>
