<?xml version="1.0" encoding="UTF-8" standalone="no"?>
<svg xmlns:ffdec="https://www.free-decompiler.com/flash" xmlns:xlink="http://www.w3.org/1999/xlink" ffdec:objectType="shape" height="6.1px" width="7.9px" xmlns="http://www.w3.org/2000/svg">
  <g transform="matrix(1.0, 0.0, 0.0, 1.0, 3.4, 6.1)">
    <path d="M3.95 -4.25 Q4.5 -3.8 4.5 -3.55 4.5 -3.3 4.05 -2.8 3.65 -2.4 3.35 -2.3 3.2 -2.05 2.85 -1.8 2.45 -1.25 2.0 -1.2 1.05 -0.7 0.05 -0.5 -1.05 0.0 -1.7 0.0 -2.75 0.0 -3.2 -0.9 -3.4 -1.35 -3.4 -1.85 -3.4 -2.75 -3.05 -3.45 L-2.8 -3.9 Q-2.25 -4.65 -1.35 -5.25 -0.65 -5.75 0.05 -5.95 0.7 -6.2 0.7 -6.0 0.7 -6.05 0.95 -5.9 L1.3 -5.8 Q1.65 -5.75 2.1 -5.5 2.95 -5.2 3.5 -4.7 L3.95 -4.3 3.95 -4.25 M3.0 -4.4 Q2.0 -5.35 1.6 -5.35 1.45 -5.35 1.2 -5.45 L1.15 -5.5 0.8 -5.5 0.3 -5.25 -0.15 -5.1 Q-1.7 -4.6 -2.35 -3.8 L-2.45 -3.7 Q-2.6 -3.45 -2.75 -3.15 -2.9 -2.75 -2.9 -2.2 -2.9 -1.75 -2.7 -1.3 -2.45 -0.7 -2.0 -0.7 L-1.7 -0.7 -1.5 -0.8 Q-1.4 -1.05 -1.0 -1.35 -0.4 -1.85 0.5 -2.35 0.95 -2.65 1.4 -2.85 L2.0 -3.15 Q2.4 -3.4 2.75 -3.55 L3.7 -3.8 3.0 -4.4 M1.95 -2.8 L1.35 -2.45 Q0.9 -2.1 0.75 -2.0 L-0.5 -1.15 -1.1 -0.75 -0.4 -0.9 0.15 -1.1 0.7 -1.25 1.2 -1.55 2.3 -2.15 2.55 -2.4 3.1 -2.6 3.2 -2.8 Q3.25 -3.0 3.25 -3.25 L3.0 -3.1 3.0 -3.2 2.3 -2.95 1.95 -2.8 M3.95 -3.4 L3.6 -3.3 3.6 -2.95 3.55 -2.85 3.6 -2.85 Q3.95 -3.15 3.95 -3.35 L3.95 -3.4" fill="#111111" fill-rule="evenodd" stroke="none"/>
    <path d="M3.0 -4.4 L3.7 -3.8 2.75 -3.55 Q2.4 -3.4 2.0 -3.15 L1.4 -2.85 Q0.95 -2.65 0.5 -2.35 -0.4 -1.85 -1.0 -1.35 -1.4 -1.05 -1.5 -0.8 L-1.7 -0.7 -2.0 -0.7 Q-2.45 -0.7 -2.7 -1.3 -2.9 -1.75 -2.9 -2.2 -2.9 -2.75 -2.75 -3.15 -2.6 -3.45 -2.45 -3.7 L-2.35 -3.8 Q-1.7 -4.6 -0.15 -5.1 L0.3 -5.25 0.8 -5.5 1.15 -5.5 1.2 -5.45 Q1.45 -5.35 1.6 -5.35 2.0 -5.35 3.0 -4.4 M3.95 -3.4 L3.95 -3.35 Q3.95 -3.15 3.6 -2.85 L3.55 -2.85 3.6 -2.95 3.6 -3.3 3.95 -3.4" fill="#403020" fill-rule="evenodd" stroke="none"/>
    <path d="M1.95 -2.8 L2.3 -2.95 3.0 -3.2 3.0 -3.1 3.25 -3.25 Q3.25 -3.0 3.2 -2.8 L3.1 -2.6 2.55 -2.4 2.3 -2.15 1.2 -1.55 0.7 -1.25 0.15 -1.1 -0.4 -0.9 -1.1 -0.75 -0.5 -1.15 0.75 -2.0 Q0.9 -2.1 1.35 -2.45 L1.95 -2.8" fill="#b00000" fill-rule="evenodd" stroke="none"/>
  </g>
</svg>
