<?xml version="1.0" encoding="UTF-8" standalone="no"?>
<svg xmlns:ffdec="https://www.free-decompiler.com/flash" xmlns:xlink="http://www.w3.org/1999/xlink" ffdec:objectType="shape" height="7.75px" width="8.25px" xmlns="http://www.w3.org/2000/svg">
  <g transform="matrix(1.0, 0.0, 0.0, 1.0, 3.3, 6.7)">
    <path d="M4.5 -4.25 L4.7 -3.65 4.8 -3.55 4.8 -3.35 Q4.95 -3.0 4.95 -2.85 4.95 -2.3 4.85 -1.9 4.75 -1.6 4.6 -1.3 L4.6 -1.2 Q4.35 -0.65 3.95 -0.15 L3.75 0.1 3.45 0.3 Q2.5 1.05 1.6 1.05 L-0.55 0.9 Q-0.85 0.9 -1.65 0.55 L-2.3 0.2 -2.35 0.1 Q-2.8 -0.5 -3.05 -1.1 L-3.1 -1.45 Q-3.25 -2.0 -3.25 -2.15 L-3.3 -3.4 -3.25 -3.45 Q-3.0 -4.6 -2.35 -5.35 L-2.05 -5.6 Q-1.25 -6.2 -0.4 -6.4 L0.25 -6.55 0.5 -6.6 Q1.4 -7.05 3.0 -5.95 3.6 -5.5 4.05 -5.0 4.5 -4.5 4.5 -4.25 M2.75 -5.3 L1.5 -5.9 0.35 -5.95 Q-0.3 -5.95 -0.55 -5.85 -1.4 -5.45 -2.0 -4.45 -2.6 -3.5 -2.6 -2.65 -2.6 -2.05 -2.45 -1.5 L-2.45 -1.95 -2.4 -1.8 Q-2.25 -1.2 -2.15 -1.05 -2.05 -0.85 -1.8 -0.6 -1.6 -0.35 -1.35 -0.25 L-1.05 0.1 -0.8 0.2 -0.85 0.15 Q-1.15 -0.25 -1.4 -0.6 -1.75 -1.2 -1.75 -1.85 -1.75 -2.6 -1.45 -3.35 -1.15 -4.1 -0.6 -4.65 -0.1 -5.15 1.7 -4.9 2.75 -4.6 3.15 -4.05 3.35 -3.75 3.35 -3.25 3.35 -2.5 3.0 -1.85 2.5 -0.85 1.4 -0.85 0.75 -0.85 0.35 -1.5 0.15 -1.8 0.1 -2.15 0.4 -2.85 0.65 -3.0 0.75 -3.1 0.85 -3.15 1.15 -2.8 1.15 -2.4 L1.25 -2.35 1.4 -2.35 Q1.65 -2.35 1.85 -2.5 2.0 -2.65 2.0 -2.75 2.0 -2.95 1.9 -3.15 1.8 -3.45 1.6 -3.6 1.35 -3.7 1.2 -3.7 0.55 -3.7 0.1 -3.1 -0.25 -2.65 -0.25 -2.3 -0.25 -1.8 0.2 -1.1 0.9 -0.05 2.2 -0.05 3.05 -0.05 3.8 -0.9 4.1 -1.2 4.3 -1.55 L4.4 -1.85 Q4.45 -2.15 4.45 -2.45 4.45 -2.9 4.25 -3.5 4.05 -4.3 3.7 -4.6 3.25 -5.05 2.75 -5.3 M0.45 -4.55 Q-0.2 -4.55 -0.65 -4.0 -1.0 -3.6 -1.0 -3.3 -1.3 -2.2 -1.3 -1.65 -1.3 -1.15 -0.85 -0.45 -0.55 0.1 -0.2 0.35 L0.45 0.45 0.9 0.55 1.95 0.45 Q1.05 0.35 0.2 -0.7 -0.6 -1.65 -0.6 -2.25 -0.6 -2.75 -0.15 -3.4 0.45 -4.25 1.2 -3.95 1.95 -3.85 2.2 -3.45 2.35 -3.25 2.35 -2.9 2.35 -2.65 2.1 -2.4 L1.55 -1.95 Q0.85 -2.15 0.75 -2.45 L0.7 -2.45 Q0.55 -2.2 0.55 -2.1 0.55 -1.9 0.85 -1.65 L1.25 -1.35 1.5 -1.3 Q2.2 -1.3 2.65 -1.95 2.95 -2.4 2.95 -2.75 2.95 -3.45 2.45 -3.9 1.8 -4.55 0.45 -4.55" fill="#111111" fill-rule="evenodd" stroke="none"/>
    <path d="M0.45 -4.55 Q1.8 -4.55 2.45 -3.9 2.95 -3.45 2.95 -2.75 2.95 -2.4 2.65 -1.95 2.2 -1.3 1.5 -1.3 L1.25 -1.35 0.85 -1.65 Q0.55 -1.9 0.55 -2.1 0.55 -2.2 0.7 -2.45 L0.75 -2.45 Q0.85 -2.15 1.55 -1.95 L2.1 -2.4 Q2.35 -2.65 2.35 -2.9 2.35 -3.25 2.2 -3.45 1.95 -3.85 1.2 -3.95 0.45 -4.25 -0.15 -3.4 -0.6 -2.75 -0.6 -2.25 -0.6 -1.65 0.2 -0.7 1.05 0.35 1.95 0.45 L0.9 0.55 0.45 0.45 -0.2 0.35 Q-0.55 0.1 -0.85 -0.45 -1.3 -1.15 -1.3 -1.65 -1.3 -2.2 -1.0 -3.3 -1.0 -3.6 -0.65 -4.0 -0.2 -4.55 0.45 -4.55" fill="#b00000" fill-rule="evenodd" stroke="none"/>
    <path d="M2.75 -5.3 Q3.25 -5.05 3.7 -4.6 4.05 -4.3 4.25 -3.5 4.45 -2.9 4.45 -2.45 4.45 -2.15 4.4 -1.85 L4.3 -1.55 Q4.1 -1.2 3.8 -0.9 3.05 -0.05 2.2 -0.05 0.9 -0.05 0.2 -1.1 -0.25 -1.8 -0.25 -2.3 -0.25 -2.65 0.1 -3.1 0.55 -3.7 1.2 -3.7 1.35 -3.7 1.6 -3.6 1.8 -3.45 1.9 -3.15 2.0 -2.95 2.0 -2.75 2.0 -2.65 1.85 -2.5 1.65 -2.35 1.4 -2.35 L1.25 -2.35 1.15 -2.4 Q1.15 -2.8 0.85 -3.15 0.75 -3.1 0.65 -3.0 0.4 -2.85 0.1 -2.15 0.15 -1.8 0.35 -1.5 0.75 -0.85 1.4 -0.85 2.5 -0.85 3.0 -1.85 3.35 -2.5 3.35 -3.25 3.35 -3.75 3.15 -4.05 2.75 -4.6 1.7 -4.9 -0.1 -5.15 -0.6 -4.65 -1.15 -4.1 -1.45 -3.35 -1.75 -2.6 -1.75 -1.85 -1.75 -1.2 -1.4 -0.6 -1.15 -0.25 -0.85 0.15 L-0.8 0.2 -1.05 0.1 -1.35 -0.25 Q-1.6 -0.35 -1.8 -0.6 -2.05 -0.85 -2.15 -1.05 -2.25 -1.2 -2.4 -1.8 L-2.45 -1.95 -2.45 -1.5 Q-2.6 -2.05 -2.6 -2.65 -2.6 -3.5 -2.0 -4.45 -1.4 -5.45 -0.55 -5.85 -0.3 -5.95 0.35 -5.95 L1.5 -5.9 2.75 -5.3" fill="#403020" fill-rule="evenodd" stroke="none"/>
  </g>
</svg>
