<?xml version="1.0" encoding="UTF-8" standalone="no"?>
<svg xmlns:ffdec="https://www.free-decompiler.com/flash" xmlns:xlink="http://www.w3.org/1999/xlink" ffdec:objectType="shape" height="8.7px" width="8.1px" xmlns="http://www.w3.org/2000/svg">
  <g transform="matrix(1.0, 0.0, 0.0, 1.0, 4.5, 11.4)">
    <path d="M1.7 -10.3 L3.1 -8.7 3.05 -8.7 3.35 -8.2 3.45 -7.9 3.5 -7.3 3.6 -6.7 Q3.6 -5.35 2.35 -4.0 1.05 -2.7 -0.2 -2.7 -1.35 -2.7 -2.2 -3.3 -3.15 -4.0 -3.15 -5.1 L-3.15 -5.15 Q-3.05 -5.15 -2.95 -5.3 L-2.9 -5.35 Q-3.0 -5.6 -3.7 -7.05 -4.5 -8.65 -4.5 -9.25 -4.5 -10.2 -3.9 -10.8 -3.35 -11.4 -2.45 -11.4 -2.05 -11.4 -1.45 -11.1 -1.1 -10.95 -0.8 -10.75 -0.5 -11.0 -0.25 -11.0 0.15 -11.0 0.85 -10.75 1.5 -10.5 1.7 -10.3 M1.45 -9.85 Q0.95 -10.15 0.35 -10.35 -0.05 -10.5 -0.25 -10.5 L-0.45 -10.5 -0.2 -10.3 Q1.3 -9.05 1.3 -7.65 1.3 -6.35 0.35 -5.55 L0.1 -5.35 Q0.45 -4.9 0.75 -4.75 1.0 -4.65 1.6 -4.65 1.8 -4.65 2.15 -4.85 L2.45 -5.0 Q3.0 -5.85 3.0 -6.95 3.0 -8.8 1.45 -9.85 M1.25 -4.3 Q0.75 -4.25 0.35 -4.4 -0.15 -4.6 -0.35 -5.1 L-0.8 -4.9 -0.75 -4.7 Q-0.6 -4.25 -0.2 -3.8 0.1 -3.8 0.4 -3.6 L0.65 -3.5 Q1.35 -3.75 2.0 -4.4 L2.0 -4.45 Q1.55 -4.3 1.25 -4.3 M-3.45 -10.3 Q-3.95 -9.95 -3.95 -9.3 -3.95 -8.75 -3.25 -7.45 -2.75 -7.95 -2.05 -8.85 L-1.65 -9.35 -1.35 -9.8 -1.25 -10.3 Q-1.8 -10.6 -2.4 -10.6 -3.0 -10.6 -3.45 -10.3 M-3.0 -7.15 Q-3.1 -7.15 -3.15 -7.2 L-3.1 -7.25 -3.15 -7.25 -3.05 -7.1 Q-2.8 -6.65 -2.6 -6.3 -2.2 -6.65 -1.65 -7.4 -0.8 -8.55 -0.8 -9.15 L-0.7 -9.7 -0.7 -9.9 -0.9 -10.05 Q-0.8 -9.3 -1.45 -8.4 -1.9 -7.75 -2.45 -7.45 -2.75 -7.15 -3.0 -7.15 M-1.8 -4.75 Q-1.95 -4.75 -2.4 -4.9 L-2.6 -5.0 Q-2.6 -4.2 -1.85 -3.75 -1.15 -3.35 -0.3 -3.35 L-0.05 -3.35 Q-0.3 -3.45 -0.4 -3.5 L-0.9 -4.1 Q-1.0 -4.15 -1.0 -4.3 -1.0 -4.4 -1.1 -4.6 L-1.2 -4.8 -1.8 -4.75 M-0.45 -9.7 L-0.45 -9.65 Q-0.45 -8.5 -1.05 -7.25 -1.65 -6.1 -2.3 -5.95 -1.9 -5.45 -1.55 -5.45 -0.85 -5.45 -0.35 -5.9 L-0.15 -6.15 Q0.35 -6.9 0.35 -8.1 0.35 -9.0 -0.45 -9.7" fill="#111111" fill-rule="evenodd" stroke="none"/>
    <path d="M1.45 -9.85 Q3.0 -8.8 3.0 -6.95 3.0 -5.85 2.45 -5.0 L2.15 -4.85 Q1.8 -4.65 1.6 -4.65 1.0 -4.65 0.75 -4.75 0.45 -4.9 0.1 -5.35 L0.35 -5.55 Q1.3 -6.35 1.3 -7.65 1.3 -9.05 -0.2 -10.3 L-0.45 -10.5 -0.25 -10.5 Q-0.05 -10.5 0.35 -10.35 0.95 -10.15 1.45 -9.85 M-3.45 -10.3 Q-3.0 -10.6 -2.4 -10.6 -1.8 -10.6 -1.25 -10.3 L-1.35 -9.8 -1.65 -9.35 -2.05 -8.85 Q-2.75 -7.95 -3.25 -7.45 -3.95 -8.75 -3.95 -9.3 -3.95 -9.95 -3.45 -10.3 M-0.45 -9.7 Q0.35 -9.0 0.35 -8.1 0.35 -6.9 -0.15 -6.15 L-0.35 -5.9 Q-0.85 -5.45 -1.55 -5.45 -1.9 -5.45 -2.3 -5.95 -1.65 -6.1 -1.05 -7.25 -0.45 -8.5 -0.45 -9.65 L-0.45 -9.7 M-1.8 -4.75 L-1.2 -4.8 -1.1 -4.6 Q-1.0 -4.4 -1.0 -4.3 -1.0 -4.15 -0.9 -4.1 L-0.4 -3.5 Q-0.3 -3.45 -0.05 -3.35 L-0.3 -3.35 Q-1.15 -3.35 -1.85 -3.75 -2.6 -4.2 -2.6 -5.0 L-2.4 -4.9 Q-1.95 -4.75 -1.8 -4.75" fill="#b00000" fill-rule="evenodd" stroke="none"/>
    <path d="M1.25 -4.3 Q1.55 -4.3 2.0 -4.45 L2.0 -4.4 Q1.35 -3.75 0.65 -3.5 L0.4 -3.6 Q0.1 -3.8 -0.2 -3.8 -0.6 -4.25 -0.75 -4.7 L-0.8 -4.9 -0.35 -5.1 Q-0.15 -4.6 0.35 -4.4 0.75 -4.25 1.25 -4.3 M-3.0 -7.15 Q-2.75 -7.15 -2.45 -7.45 -1.9 -7.75 -1.45 -8.4 -0.8 -9.3 -0.9 -10.05 L-0.7 -9.9 -0.7 -9.7 -0.8 -9.15 Q-0.8 -8.55 -1.65 -7.4 -2.2 -6.65 -2.6 -6.3 -2.8 -6.65 -3.05 -7.1 L-3.15 -7.25 -3.1 -7.25 -3.15 -7.2 Q-3.1 -7.15 -3.0 -7.15" fill="#f0f0a0" fill-rule="evenodd" stroke="none"/>
  </g>
</svg>
