<?xml version="1.0" encoding="UTF-8" standalone="no"?>
<svg xmlns:ffdec="https://www.free-decompiler.com/flash" xmlns:xlink="http://www.w3.org/1999/xlink" ffdec:objectType="shape" height="11.7px" width="7.3px" xmlns="http://www.w3.org/2000/svg">
  <g transform="matrix(1.0, 0.0, 0.0, 1.0, 3.25, 11.8)">
    <path d="M3.0 -11.05 Q3.3 -10.75 3.5 -10.4 L3.35 -10.65 Q3.2 -10.9 3.0 -11.05 M1.2 -11.25 Q-0.3 -11.2 -1.25 -10.2 0.2 -10.05 1.0 -9.0 1.35 -8.6 1.65 -7.95 L2.0 -7.1 2.3 -7.05 Q2.3 -7.2 2.45 -7.2 L2.6 -7.0 2.7 -7.0 2.7 -6.95 2.75 -6.95 2.8 -7.0 Q3.05 -7.3 3.05 -7.4 L3.15 -7.75 Q3.5 -8.55 3.5 -9.0 L3.5 -9.2 3.55 -9.45 Q3.55 -10.3 3.2 -10.7 2.85 -11.1 2.15 -11.2 L1.65 -11.3 1.2 -11.25 M1.05 -8.5 Q0.15 -9.45 -1.4 -9.8 L-1.5 -9.9 -1.45 -10.0 -1.0 -10.05 -0.45 -9.95 Q-0.55 -10.05 -1.05 -10.15 L-1.3 -10.15 -1.75 -9.6 -2.05 -9.1 Q-0.8 -9.1 0.3 -8.1 0.85 -7.5 1.1 -7.05 L1.85 -7.15 Q1.25 -8.2 1.05 -8.5 M3.95 -9.15 L3.85 -8.45 Q3.85 -8.15 3.5 -7.55 L3.5 -7.5 Q3.2 -6.85 3.05 -6.75 L3.0 -6.75 2.85 -6.55 3.1 -5.7 3.2 -5.6 3.15 -5.55 3.2 -5.25 3.3 -4.9 3.25 -4.9 Q3.45 -4.0 3.45 -3.5 3.45 -2.45 3.2 -1.65 2.7 -0.1 1.4 -0.1 -0.05 -0.1 -0.7 -2.35 L-0.9 -3.0 -0.95 -2.95 -0.9 -3.15 Q-1.1 -4.05 -1.1 -4.95 L-1.2 -4.9 Q-1.3 -4.75 -1.5 -4.75 -2.55 -4.75 -3.0 -5.8 -3.25 -6.4 -3.25 -6.95 -3.25 -8.45 -2.3 -9.8 -0.85 -11.8 2.3 -11.8 3.15 -11.8 3.65 -11.0 4.05 -10.4 4.05 -9.8 L3.95 -9.15 M2.4 -6.8 L2.4 -6.85 2.25 -6.8 2.4 -6.8 M2.3 -6.5 L1.25 -6.45 Q0.8 -6.25 0.3 -5.95 -0.3 -5.6 -0.75 -5.25 -0.6 -5.0 -0.55 -4.9 L-0.6 -4.4 -0.6 -4.25 -0.55 -3.8 -0.5 -3.45 -0.35 -3.7 Q-0.05 -4.2 0.4 -4.65 1.45 -5.75 2.45 -5.9 2.4 -6.2 2.4 -6.5 L2.3 -6.5 M0.6 -6.9 Q-0.25 -7.8 -1.15 -8.3 -1.7 -8.6 -2.05 -8.7 -2.05 -8.8 -2.2 -8.8 -2.45 -8.4 -2.5 -8.0 L-2.65 -7.6 -2.6 -7.3 Q-2.6 -6.65 -1.9 -5.7 -1.85 -5.6 -1.45 -5.35 L-1.4 -5.3 Q-1.25 -5.65 -0.7 -6.15 -0.3 -6.45 0.15 -6.65 0.4 -6.8 0.6 -6.9 M2.45 -3.7 L2.75 -3.5 2.7 -4.3 2.65 -4.7 1.75 -4.0 Q2.0 -3.95 2.45 -3.7 M1.55 -3.85 L0.95 -3.4 Q1.45 -3.3 2.1 -2.95 2.4 -2.75 2.6 -2.6 L2.75 -3.2 2.4 -3.4 1.55 -3.85 M0.7 -4.2 L-0.45 -3.1 -0.4 -2.95 -0.25 -2.35 -0.25 -2.4 Q-0.25 -2.65 0.5 -3.4 L1.1 -3.95 Q2.05 -4.75 2.6 -5.0 L2.5 -5.4 Q1.9 -5.25 0.7 -4.2 M1.8 -2.5 L0.75 -3.2 Q-0.05 -2.45 -0.05 -2.1 L-0.1 -2.0 Q0.45 -0.85 1.45 -0.85 2.05 -0.85 2.45 -2.0 L1.8 -2.5" fill="#111111" fill-rule="evenodd" stroke="none"/>
    <path d="M1.2 -11.25 L1.65 -11.3 2.15 -11.2 Q2.85 -11.1 3.2 -10.7 3.55 -10.3 3.55 -9.45 L3.5 -9.2 3.5 -9.0 Q3.5 -8.55 3.15 -7.75 L3.05 -7.4 Q3.05 -7.3 2.8 -7.0 L2.75 -6.95 2.7 -6.95 2.7 -7.0 2.6 -7.0 2.45 -7.2 Q2.3 -7.2 2.3 -7.05 L2.0 -7.1 1.65 -7.95 Q1.35 -8.6 1.0 -9.0 0.2 -10.05 -1.25 -10.2 -0.3 -11.2 1.2 -11.25 M2.45 -3.7 Q2.0 -3.95 1.75 -4.0 L2.65 -4.7 2.7 -4.3 2.75 -3.5 2.45 -3.7 M0.6 -6.9 Q0.4 -6.8 0.15 -6.65 -0.3 -6.45 -0.7 -6.15 -1.25 -5.65 -1.4 -5.3 L-1.45 -5.35 Q-1.85 -5.6 -1.9 -5.7 -2.6 -6.65 -2.6 -7.3 L-2.65 -7.6 -2.5 -8.0 Q-2.45 -8.4 -2.2 -8.8 -2.05 -8.8 -2.05 -8.7 -1.7 -8.6 -1.15 -8.3 -0.25 -7.8 0.6 -6.9 M2.3 -6.5 L2.4 -6.5 Q2.4 -6.2 2.45 -5.9 1.45 -5.75 0.4 -4.65 -0.05 -4.2 -0.35 -3.7 L-0.5 -3.45 -0.55 -3.8 -0.6 -4.25 -0.6 -4.4 -0.55 -4.9 Q-0.6 -5.0 -0.75 -5.25 -0.3 -5.6 0.3 -5.95 0.8 -6.25 1.25 -6.45 L2.3 -6.5 M1.8 -2.5 L2.45 -2.0 Q2.05 -0.85 1.45 -0.85 0.45 -0.85 -0.1 -2.0 L-0.05 -2.1 Q-0.05 -2.45 0.75 -3.2 L1.8 -2.5" fill="#b00000" fill-rule="evenodd" stroke="none"/>
    <path d="M1.05 -8.5 Q1.25 -8.2 1.85 -7.15 L1.1 -7.05 Q0.85 -7.5 0.3 -8.1 -0.8 -9.1 -2.05 -9.1 L-1.75 -9.6 -1.3 -10.15 -1.05 -10.15 Q-0.55 -10.05 -0.45 -9.95 L-1.0 -10.05 -1.45 -10.0 -1.5 -9.9 -1.4 -9.8 Q0.15 -9.45 1.05 -8.5 M0.7 -4.2 Q1.9 -5.25 2.5 -5.4 L2.6 -5.0 Q2.05 -4.75 1.1 -3.95 L0.5 -3.4 Q-0.25 -2.65 -0.25 -2.4 L-0.25 -2.35 -0.4 -2.95 -0.45 -3.1 0.7 -4.2 M1.55 -3.85 L2.4 -3.4 2.75 -3.2 2.6 -2.6 Q2.4 -2.75 2.1 -2.95 1.45 -3.3 0.95 -3.4 L1.55 -3.85" fill="#f0f0a0" fill-rule="evenodd" stroke="none"/>
  </g>
</svg>
