<?xml version="1.0" encoding="UTF-8" standalone="no"?>
<svg xmlns:ffdec="https://www.free-decompiler.com/flash" xmlns:xlink="http://www.w3.org/1999/xlink" ffdec:objectType="shape" height="16.1px" width="22.1px" xmlns="http://www.w3.org/2000/svg">
  <g transform="matrix(1.0, 0.0, 0.0, 1.0, 17.1, 16.2)">
    <path d="M4.1 -10.6 Q5.0 -9.1 5.0 -8.35 5.0 -8.3 4.75 -7.85 L4.7 -7.85 4.7 -7.8 4.65 -7.75 Q4.55 -7.5 4.25 -7.1 L4.2 -7.1 3.9 -6.7 3.9 -6.25 Q3.8 -4.2 3.7 -3.25 L3.7 -3.2 3.75 -3.05 3.8 -2.7 3.8 -1.65 Q3.65 -1.25 3.3 -0.9 2.45 -0.1 1.2 -0.1 0.65 -0.1 0.35 -0.25 L-0.2 -0.75 -0.45 -0.95 -0.85 -1.35 -0.85 -1.8 -0.8 -2.35 Q-0.8 -2.55 -1.05 -3.5 L-1.35 -3.65 -1.7 -3.9 -2.0 -3.9 Q-2.95 -4.35 -3.6 -5.9 -3.9 -6.65 -4.1 -7.5 L-4.25 -8.2 -4.15 -8.25 -4.15 -8.3 Q-4.15 -8.4 -3.8 -8.65 L-3.6 -8.9 -3.5 -9.0 -3.4 -9.0 Q-2.2 -9.0 -1.5 -9.3 L-1.35 -9.3 -1.2 -9.4 Q-0.85 -9.5 -0.5 -9.8 -0.25 -9.9 0.0 -10.2 L0.2 -10.3 0.4 -10.6 Q0.7 -11.05 0.9 -11.15 L0.95 -11.15 Q1.05 -11.35 1.6 -11.7 2.2 -12.1 2.55 -12.15 L2.55 -12.2 Q2.75 -12.2 2.95 -12.05 L3.1 -12.0 3.1 -11.95 Q3.55 -11.6 4.1 -10.6 M3.55 -10.2 L3.25 -10.85 3.2 -11.1 Q3.05 -11.35 2.8 -11.5 2.65 -11.6 2.5 -11.55 L2.1 -11.25 Q2.35 -10.9 2.7 -10.15 3.55 -8.5 3.65 -7.8 L3.7 -7.8 3.7 -7.7 3.75 -7.75 3.8 -7.7 3.85 -7.75 4.0 -7.95 4.15 -8.25 4.15 -8.55 Q4.15 -8.65 3.95 -9.15 L3.8 -9.8 Q3.7 -10.05 3.55 -10.2 M1.0 -10.2 L0.95 -10.15 0.75 -10.0 0.8 -9.95 Q0.75 -9.9 0.75 -9.8 L1.55 -8.25 Q2.2 -7.05 2.5 -6.75 L2.5 -6.7 Q2.55 -6.7 2.6 -6.7 L2.6 -6.65 2.65 -6.6 2.8 -6.6 Q2.95 -6.6 3.2 -6.9 L3.2 -6.95 3.3 -7.65 Q3.3 -7.95 2.55 -9.6 L1.85 -11.05 Q1.75 -10.85 1.55 -10.6 1.35 -10.5 1.2 -10.4 L1.0 -10.2 M0.45 -9.6 Q0.4 -9.6 0.3 -9.6 L0.35 -9.55 Q0.2 -9.5 0.0 -9.35 L-0.05 -9.3 -0.25 -9.2 -0.75 -8.7 -0.85 -8.65 -0.9 -8.7 Q-0.75 -8.05 -0.45 -7.2 L-0.3 -6.8 -0.1 -6.3 0.15 -5.8 0.3 -5.4 0.6 -5.5 1.25 -5.85 1.5 -5.9 Q2.1 -6.15 2.15 -6.35 L2.25 -6.45 2.05 -6.9 1.2 -8.25 Q0.55 -9.35 0.45 -9.65 L0.45 -9.6 M3.25 -6.15 L3.05 -6.0 Q2.5 -5.6 1.85 -5.3 L1.75 -5.3 Q0.35 -4.5 -0.7 -4.2 L-0.7 -4.15 Q-0.7 -4.1 -0.45 -3.8 -0.15 -3.45 0.2 -3.15 1.3 -2.2 2.35 -2.2 L2.3 -2.1 2.05 -2.1 Q1.15 -2.1 0.1 -2.85 L0.05 -2.85 Q-0.15 -2.95 -0.55 -3.2 L-0.55 -2.85 Q-0.45 -2.5 -0.45 -2.35 L-0.5 -1.9 -0.5 -1.65 Q-0.3 -1.5 0.4 -1.2 1.35 -0.8 1.65 -0.8 2.65 -0.8 3.25 -2.0 L3.3 -2.75 3.35 -3.05 3.3 -3.05 3.3 -5.8 3.25 -6.15 M-16.75 -16.05 Q-16.75 -15.9 -16.95 -15.8 L-17.0 -15.85 -17.1 -15.9 -17.1 -16.0 -17.05 -16.1 -16.95 -16.2 Q-16.8 -16.15 -16.75 -16.05 M-3.55 -8.25 L-3.6 -8.15 -3.6 -7.9 -3.65 -7.8 -3.6 -7.75 -3.5 -7.45 -3.3 -6.7 -3.25 -6.65 -2.35 -5.0 -2.3 -5.0 -2.2 -4.8 -2.1 -4.75 -1.95 -4.75 -1.85 -4.7 -1.55 -4.7 -1.4 -4.55 -1.1 -4.75 Q-1.75 -5.05 -2.15 -6.2 L-2.3 -6.7 -2.65 -8.0 -2.8 -8.25 -3.55 -8.25 M-2.15 -8.35 L-2.45 -8.3 Q-2.35 -8.05 -2.25 -7.7 L-2.25 -7.55 -2.05 -7.05 -1.6 -5.8 Q-1.5 -5.6 -1.35 -5.45 L-1.2 -5.35 -1.05 -5.3 Q-0.75 -5.15 -0.5 -5.05 L-0.05 -5.25 0.0 -5.25 -0.35 -6.1 Q-0.65 -6.85 -0.9 -7.75 -1.0 -8.15 -1.05 -8.45 L-1.1 -8.6 -1.2 -8.6 -1.35 -8.55 -1.4 -8.65 Q-1.75 -8.45 -2.15 -8.35 M-2.7 -8.25 L-2.7 -8.3 -2.75 -8.25 -2.7 -8.25" fill="#111111" fill-rule="evenodd" stroke="none"/>
    <path d="M3.95 -9.15 Q4.15 -8.65 4.15 -8.55 L4.15 -8.25 4.0 -7.95 3.85 -7.75 3.8 -7.7 3.75 -7.75 3.7 -7.7 3.7 -7.8 3.65 -7.8 Q3.55 -8.5 2.7 -10.15 2.35 -10.9 2.1 -11.25 L2.5 -11.55 Q2.65 -11.6 2.8 -11.5 3.05 -11.35 3.2 -11.1 L3.25 -10.85 3.55 -10.2 Q3.4 -10.35 3.2 -10.35 3.2 -10.05 3.4 -9.65 3.55 -9.2 3.55 -9.0 L3.6 -9.0 3.75 -8.95 3.9 -9.0 3.95 -9.0 3.95 -9.15 M1.55 -10.6 L1.6 -10.65 Q1.8 -10.5 1.9 -10.3 L2.05 -9.9 2.3 -9.25 Q2.5 -8.7 2.5 -8.5 2.5 -8.4 2.35 -8.3 2.2 -8.2 2.1 -8.2 1.9 -8.2 1.4 -9.15 L1.0 -10.15 1.0 -10.2 1.2 -10.4 Q1.35 -10.5 1.55 -10.6 M0.45 -9.6 L0.45 -9.65 Q0.55 -9.35 1.2 -8.25 L2.05 -6.9 2.25 -6.45 2.15 -6.35 Q2.1 -6.15 1.5 -5.9 L1.25 -5.85 0.6 -5.5 0.3 -5.4 0.15 -5.8 -0.1 -6.3 -0.3 -6.8 -0.45 -7.2 Q-0.75 -8.05 -0.9 -8.7 L-0.85 -8.65 -0.75 -8.7 -0.25 -9.2 -0.05 -9.3 0.0 -9.35 Q0.2 -9.5 0.35 -9.55 L0.3 -9.6 Q0.4 -9.6 0.45 -9.6 M0.95 -7.75 Q0.75 -8.0 0.55 -8.1 -0.05 -8.4 -0.05 -7.55 -0.05 -7.3 0.0 -7.1 0.15 -6.7 0.7 -6.7 1.0 -6.7 1.05 -6.9 L1.1 -7.25 Q1.1 -7.5 0.95 -7.75 M-3.55 -8.25 L-2.8 -8.25 -2.65 -8.0 -2.3 -6.7 -2.15 -6.2 Q-1.75 -5.05 -1.1 -4.75 L-1.4 -4.55 -1.55 -4.7 -1.85 -4.7 -1.95 -4.75 -2.1 -4.75 -2.2 -4.8 -2.3 -5.0 -2.35 -5.0 -3.25 -6.65 -3.3 -6.7 -3.5 -7.45 -3.6 -7.75 -3.65 -7.8 -3.6 -7.9 -3.6 -8.15 -3.55 -8.25 M-3.1 -7.3 L-3.1 -7.1 -2.9 -6.4 Q-2.65 -5.75 -2.5 -5.75 -2.4 -5.75 -2.35 -5.8 L-2.3 -5.9 Q-2.4 -6.0 -2.6 -6.7 -2.7 -7.2 -3.1 -7.3 M-1.35 -8.55 L-1.3 -8.55 -1.3 -7.95 Q-1.3 -7.75 -1.2 -7.4 -1.1 -7.05 -1.1 -6.85 L-1.1 -6.65 Q-1.15 -6.55 -1.25 -6.55 -1.55 -6.55 -1.85 -7.45 L-2.15 -8.35 Q-1.75 -8.45 -1.4 -8.65 L-1.35 -8.55" fill="#403020" fill-rule="evenodd" stroke="none"/>
    <path d="M3.55 -10.2 Q3.7 -10.05 3.8 -9.8 L3.95 -9.15 3.95 -9.0 3.9 -9.0 3.75 -8.95 3.6 -9.0 3.55 -9.0 Q3.55 -9.2 3.4 -9.65 3.2 -10.05 3.2 -10.35 3.4 -10.35 3.55 -10.2 M1.0 -10.2 L1.0 -10.15 1.4 -9.15 Q1.9 -8.2 2.1 -8.2 2.2 -8.2 2.35 -8.3 2.5 -8.4 2.5 -8.5 2.5 -8.7 2.3 -9.25 L2.05 -9.9 1.9 -10.3 Q1.8 -10.5 1.6 -10.65 L1.55 -10.6 Q1.75 -10.85 1.85 -11.05 L2.55 -9.6 Q3.3 -7.95 3.3 -7.65 L3.2 -6.95 3.2 -6.9 Q2.95 -6.6 2.8 -6.6 L2.65 -6.6 2.6 -6.65 2.6 -6.7 Q2.55 -6.7 2.5 -6.7 L2.5 -6.75 Q2.2 -7.05 1.55 -8.25 L0.75 -9.8 Q0.75 -9.9 0.8 -9.95 L0.75 -10.0 0.95 -10.15 1.0 -10.2 M0.95 -7.75 Q1.1 -7.5 1.1 -7.25 L1.05 -6.9 Q1.0 -6.7 0.7 -6.7 0.15 -6.7 0.0 -7.1 -0.05 -7.3 -0.05 -7.55 -0.05 -8.4 0.55 -8.1 0.75 -8.0 0.95 -7.75 M3.25 -6.15 L3.3 -5.8 3.3 -3.05 3.35 -3.05 3.3 -2.75 3.25 -2.0 Q2.65 -0.8 1.65 -0.8 1.35 -0.8 0.4 -1.2 -0.3 -1.5 -0.5 -1.65 L-0.5 -1.9 -0.45 -2.35 Q-0.45 -2.5 -0.55 -2.85 L-0.55 -3.2 Q-0.15 -2.95 0.05 -2.85 L0.1 -2.85 Q1.15 -2.1 2.05 -2.1 L2.3 -2.1 2.35 -2.2 Q1.3 -2.2 0.2 -3.15 -0.15 -3.45 -0.45 -3.8 -0.7 -4.1 -0.7 -4.15 L-0.7 -4.2 Q0.35 -4.5 1.75 -5.3 L1.85 -5.3 Q2.5 -5.6 3.05 -6.0 L3.25 -6.15 M-3.1 -7.3 Q-2.7 -7.2 -2.6 -6.7 -2.4 -6.0 -2.3 -5.9 L-2.35 -5.8 Q-2.4 -5.75 -2.5 -5.75 -2.65 -5.75 -2.9 -6.4 L-3.1 -7.1 -3.1 -7.3 M-2.15 -8.35 L-1.85 -7.45 Q-1.55 -6.55 -1.25 -6.55 -1.15 -6.55 -1.1 -6.65 L-1.1 -6.85 Q-1.1 -7.05 -1.2 -7.4 -1.3 -7.75 -1.3 -7.95 L-1.3 -8.55 -1.35 -8.55 -1.2 -8.6 -1.1 -8.6 -1.05 -8.45 Q-1.0 -8.15 -0.9 -7.75 -0.65 -6.85 -0.35 -6.1 L0.0 -5.25 -0.05 -5.25 -0.5 -5.05 Q-0.75 -5.15 -1.05 -5.3 L-1.2 -5.35 -1.35 -5.45 Q-1.5 -5.6 -1.6 -5.8 L-2.05 -7.05 -2.25 -7.55 -2.25 -7.7 Q-2.35 -8.05 -2.45 -8.3 L-2.15 -8.35 M-2.7 -8.25 L-2.75 -8.25 -2.7 -8.3 -2.7 -8.25" fill="#b00000" fill-rule="evenodd" stroke="none"/>
  </g>
</svg>
