<?xml version="1.0" encoding="UTF-8" standalone="no"?>
<svg xmlns:ffdec="https://www.free-decompiler.com/flash" xmlns:xlink="http://www.w3.org/1999/xlink" ffdec:objectType="shape" height="12.55px" width="9.0px" xmlns="http://www.w3.org/2000/svg">
  <g transform="matrix(1.0, 0.0, 0.0, 1.0, 4.35, 12.6)">
    <path d="M-3.25 -8.95 Q-3.8 -8.3 -3.8 -8.05 L-3.75 -7.95 -3.15 -6.9 -3.05 -6.65 -2.75 -6.2 Q-2.65 -6.1 -2.45 -6.05 L-1.3 -6.15 -1.05 -6.15 -0.65 -6.2 0.3 -6.45 Q0.8 -6.6 1.45 -6.9 2.1 -7.15 2.5 -7.4 L2.75 -7.65 Q2.8 -7.9 2.9 -7.75 L3.1 -7.95 Q3.2 -8.05 3.2 -8.15 L2.85 -9.05 2.35 -10.15 Q2.1 -10.65 1.75 -11.1 1.35 -11.6 0.9 -11.9 L0.85 -11.9 Q-0.25 -11.7 -2.05 -10.2 L-2.55 -9.75 -3.25 -8.95 M3.1 -7.2 L3.25 -6.35 Q3.25 -6.1 3.5 -5.25 3.75 -4.5 3.8 -4.4 L4.3 -3.25 4.4 -3.1 4.65 -2.7 4.5 -2.45 Q4.45 -2.2 4.3 -1.95 L4.15 -1.75 3.75 -1.3 3.45 -1.0 3.15 -0.75 Q2.8 -0.55 2.35 -0.35 1.65 -0.05 1.2 -0.05 0.65 -0.05 -0.05 -0.4 L-0.1 -0.4 Q-0.35 -0.5 -0.6 -0.6 -1.35 -1.05 -1.35 -1.45 L-1.35 -1.6 Q-1.35 -1.9 -1.4 -2.4 -1.4 -3.5 -2.0 -4.6 L-2.4 -5.3 -2.55 -5.5 -2.7 -5.5 Q-3.2 -5.5 -3.65 -6.5 -4.1 -7.55 -4.25 -7.55 -4.35 -7.55 -4.35 -7.7 L-4.35 -7.95 Q-4.35 -8.3 -3.55 -9.35 L-2.55 -10.5 Q-2.15 -11.1 -0.9 -11.85 0.25 -12.6 0.7 -12.6 1.4 -12.6 2.65 -10.5 3.8 -8.6 3.8 -8.2 3.8 -7.85 3.1 -7.3 L3.1 -7.2 M3.85 -3.0 L3.8 -3.0 3.8 -3.05 Q3.5 -3.45 3.45 -3.7 L3.25 -4.2 Q3.1 -4.6 3.05 -4.8 L2.85 -5.35 2.7 -5.85 2.6 -6.35 Q2.55 -6.65 2.5 -6.85 L2.45 -6.8 Q2.1 -6.55 1.75 -6.35 L1.8 -6.15 1.85 -6.05 1.85 -5.95 Q1.95 -5.6 2.0 -5.45 2.05 -5.2 2.2 -4.8 L2.45 -4.15 Q2.7 -3.3 2.9 -2.85 3.0 -2.6 3.35 -2.25 L3.4 -2.25 3.7 -1.95 4.05 -2.45 4.05 -2.65 3.9 -2.85 3.85 -3.0 M0.2 -5.35 Q0.15 -5.65 0.15 -5.9 L0.1 -5.9 -0.15 -5.85 -0.2 -5.75 Q-0.3 -5.7 -0.5 -5.65 L-1.2 -5.65 -1.55 -5.6 -1.3 -5.2 Q-1.0 -4.55 -0.95 -4.1 L-0.9 -3.95 -0.75 -3.1 Q-0.65 -2.4 -0.65 -2.1 L-0.65 -1.85 -0.7 -1.65 -0.75 -1.55 -0.8 -1.4 Q-0.15 -1.15 0.4 -0.85 0.75 -0.75 1.55 -0.7 L2.0 -0.8 2.2 -0.8 1.9 -1.1 1.85 -1.1 Q1.45 -1.55 1.35 -1.85 L0.95 -3.2 0.45 -4.5 Q0.3 -5.0 0.2 -5.35 M1.4 -6.2 Q0.9 -6.0 0.5 -5.9 L0.7 -5.4 Q0.95 -4.6 0.95 -4.4 1.4 -3.05 1.4 -2.8 1.4 -2.2 2.05 -1.5 L2.5 -0.95 2.55 -1.0 3.2 -1.4 3.4 -1.6 3.0 -1.85 Q2.6 -2.15 2.6 -2.3 2.6 -2.45 2.0 -4.25 1.4 -6.05 1.4 -6.15 L1.4 -6.2" fill="#111111" fill-rule="evenodd" stroke="none"/>
    <path d="M1.0 -10.7 Q0.8 -11.05 0.6 -11.05 0.15 -11.05 -0.2 -10.75 L-0.65 -10.35 -0.65 -10.3 Q-0.55 -10.2 -0.45 -10.2 L0.05 -10.3 0.55 -10.35 Q0.65 -10.35 0.8 -10.2 0.95 -10.0 1.1 -10.0 1.25 -10.0 1.15 -10.05 L1.2 -10.3 Q1.2 -10.45 1.0 -10.7 M0.85 -11.9 L1.55 -10.9 Q2.35 -9.7 2.35 -9.15 L2.25 -8.4 2.15 -7.8 Q-0.15 -6.95 -1.2 -6.95 -2.0 -6.95 -2.6 -8.0 L-3.05 -8.75 -3.25 -8.95 -2.55 -9.75 -2.05 -10.2 Q-0.25 -11.7 0.85 -11.9 M1.85 -8.9 Q1.85 -8.95 1.6 -9.3 1.5 -9.25 1.5 -9.1 1.5 -9.05 1.55 -8.9 1.6 -8.75 1.75 -8.75 1.85 -8.75 1.85 -8.8 L1.85 -8.9 M1.85 -5.95 L2.0 -6.0 Q1.9 -5.9 1.9 -5.8 1.9 -5.7 2.0 -5.7 L2.4 -5.6 Q2.6 -5.55 2.7 -5.45 L3.2 -3.95 3.3 -3.4 3.25 -3.1 Q3.25 -2.8 3.4 -2.8 L3.65 -2.9 3.85 -3.0 3.9 -2.85 3.6 -2.45 3.4 -2.25 3.35 -2.25 Q3.0 -2.6 2.9 -2.85 2.7 -3.3 2.45 -4.15 L2.2 -4.8 Q2.05 -5.2 2.0 -5.45 1.95 -5.6 1.85 -5.95 M-0.65 -1.85 L-0.4 -1.85 Q-0.3 -1.85 -0.2 -1.9 -0.1 -2.0 -0.1 -2.1 L-0.2 -2.35 -0.4 -2.8 Q-0.55 -3.2 -0.6 -3.6 -0.6 -4.0 -0.75 -4.4 L-0.75 -4.55 0.05 -5.25 0.2 -5.35 Q0.3 -5.0 0.45 -4.5 L0.95 -3.2 1.35 -1.85 Q1.45 -1.55 1.85 -1.1 L1.8 -1.15 0.7 -1.35 -0.75 -1.55 -0.7 -1.65 -0.65 -1.85 M0.25 -2.6 L0.15 -3.0 0.0 -3.8 Q-0.15 -4.3 -0.25 -4.6 L-0.35 -4.55 -0.2 -3.9 -0.1 -3.3 0.25 -2.05 Q0.25 -1.9 0.35 -1.7 0.5 -1.45 0.85 -1.45 1.1 -1.45 1.1 -1.65 1.1 -1.8 0.75 -1.9 0.4 -2.05 0.35 -2.2 0.25 -2.35 0.25 -2.6" fill="#508090" fill-rule="evenodd" stroke="none"/>
    <path d="M1.4 -6.2 L1.4 -6.15 Q1.4 -6.05 2.0 -4.25 2.6 -2.45 2.6 -2.3 2.6 -2.15 3.0 -1.85 L3.4 -1.6 3.2 -1.4 2.55 -1.0 2.5 -0.95 2.05 -1.5 Q1.4 -2.2 1.4 -2.8 1.4 -3.05 0.95 -4.4 0.95 -4.6 0.7 -5.4 L0.5 -5.9 Q0.9 -6.0 1.4 -6.2" fill="#600000" fill-rule="evenodd" stroke="none"/>
    <path d="M-3.25 -8.95 L-3.05 -8.75 -2.6 -8.0 Q-2.0 -6.95 -1.2 -6.95 -0.15 -6.95 2.15 -7.8 L2.25 -8.4 2.35 -9.15 Q2.35 -9.7 1.55 -10.9 L0.85 -11.9 0.9 -11.9 Q1.35 -11.6 1.75 -11.1 2.1 -10.65 2.35 -10.15 L2.85 -9.05 3.2 -8.15 Q3.2 -8.05 3.1 -7.95 L2.9 -7.75 Q2.8 -7.9 2.75 -7.65 L2.5 -7.4 Q2.1 -7.15 1.45 -6.9 0.8 -6.6 0.3 -6.45 L-0.65 -6.2 -1.05 -6.15 -1.3 -6.15 -2.45 -6.05 Q-2.65 -6.1 -2.75 -6.2 L-3.05 -6.65 -3.15 -6.9 -3.75 -7.95 -3.8 -8.05 Q-3.8 -8.3 -3.25 -8.95 M1.85 -5.95 L1.85 -6.05 1.8 -6.15 1.75 -6.35 Q2.1 -6.55 2.45 -6.8 L2.5 -6.85 Q2.55 -6.65 2.6 -6.35 L2.7 -5.85 2.85 -5.35 3.05 -4.8 Q3.1 -4.6 3.25 -4.2 L3.45 -3.7 Q3.5 -3.45 3.8 -3.05 L3.8 -3.0 3.85 -3.0 3.65 -2.9 3.4 -2.8 Q3.25 -2.8 3.25 -3.1 L3.3 -3.4 3.2 -3.95 2.7 -5.45 Q2.6 -5.55 2.4 -5.6 L2.0 -5.7 Q1.9 -5.7 1.9 -5.8 1.9 -5.9 2.0 -6.0 L1.85 -5.95 M3.9 -2.85 L4.05 -2.65 4.05 -2.45 3.7 -1.95 3.4 -2.25 3.6 -2.45 3.9 -2.85 M-0.65 -1.85 L-0.65 -2.1 Q-0.65 -2.4 -0.75 -3.1 L-0.9 -3.95 -0.95 -4.1 Q-1.0 -4.55 -1.3 -5.2 L-1.55 -5.6 -1.2 -5.65 -0.5 -5.65 Q-0.3 -5.7 -0.2 -5.75 L-0.15 -5.85 0.1 -5.9 0.15 -5.9 Q0.15 -5.65 0.2 -5.35 L0.05 -5.25 -0.75 -4.55 -0.75 -4.4 Q-0.6 -4.0 -0.6 -3.6 -0.55 -3.2 -0.4 -2.8 L-0.2 -2.35 -0.1 -2.1 Q-0.1 -2.0 -0.2 -1.9 -0.3 -1.85 -0.4 -1.85 L-0.65 -1.85 M1.85 -1.1 L1.9 -1.1 2.2 -0.8 2.0 -0.8 1.55 -0.7 Q0.75 -0.75 0.4 -0.85 -0.15 -1.15 -0.8 -1.4 L-0.75 -1.55 0.7 -1.35 1.8 -1.15 1.85 -1.1" fill="#314d59" fill-rule="evenodd" stroke="none"/>
    <path d="M1.0 -10.7 Q1.2 -10.45 1.2 -10.3 L1.15 -10.05 Q1.25 -10.0 1.1 -10.0 0.95 -10.0 0.8 -10.2 0.65 -10.35 0.55 -10.35 L0.05 -10.3 -0.45 -10.2 Q-0.55 -10.2 -0.65 -10.3 L-0.65 -10.35 -0.2 -10.75 Q0.15 -11.05 0.6 -11.05 0.8 -11.05 1.0 -10.7 M1.85 -8.9 L1.85 -8.8 Q1.85 -8.75 1.75 -8.75 1.6 -8.75 1.55 -8.9 1.5 -9.05 1.5 -9.1 1.5 -9.25 1.6 -9.3 1.85 -8.95 1.85 -8.9 M0.25 -2.6 Q0.25 -2.35 0.35 -2.2 0.4 -2.05 0.75 -1.9 1.1 -1.8 1.1 -1.65 1.1 -1.45 0.85 -1.45 0.5 -1.45 0.35 -1.7 0.25 -1.9 0.25 -2.05 L-0.1 -3.3 -0.2 -3.9 -0.35 -4.55 -0.25 -4.6 Q-0.15 -4.3 0.0 -3.8 L0.15 -3.0 0.25 -2.6" fill="#8fdfff" fill-rule="evenodd" stroke="none"/>
  </g>
</svg>
