<?xml version="1.0" encoding="UTF-8" standalone="no"?>
<svg xmlns:ffdec="https://www.free-decompiler.com/flash" xmlns:xlink="http://www.w3.org/1999/xlink" ffdec:objectType="shape" height="12.75px" width="8.45px" xmlns="http://www.w3.org/2000/svg">
  <g transform="matrix(1.0, 0.0, 0.0, 1.0, 4.55, 12.25)">
    <path d="M3.7 -11.25 Q3.9 -10.65 3.9 -10.35 3.9 -9.9 3.7 -9.0 L3.45 -7.75 3.15 -6.4 Q3.0 -5.65 2.95 -5.05 L2.95 -5.0 Q3.0 -5.1 3.2 -5.15 3.35 -5.25 3.45 -5.25 3.6 -5.25 3.55 -5.2 L3.6 -5.2 3.65 -5.1 3.8 -5.0 Q3.75 -4.75 3.7 -4.3 3.65 -3.95 3.7 -3.75 L3.8 -3.4 3.9 -3.2 3.85 -3.1 3.9 -2.35 Q3.85 -1.95 3.7 -1.55 3.55 -1.3 3.55 -0.75 L3.55 -0.15 3.5 -0.05 3.5 0.0 3.45 0.05 3.45 0.0 3.35 0.05 2.9 0.0 2.75 0.0 Q2.7 0.0 2.65 -0.05 2.45 -0.35 2.45 -0.8 L2.5 -1.6 2.45 -1.65 2.4 -1.6 2.0 -1.5 Q1.9 -1.45 1.65 -1.2 L1.4 -0.95 1.25 -0.65 Q1.25 -0.5 1.1 -0.35 L0.95 0.05 Q0.7 0.45 0.0 0.5 L-2.55 0.35 -3.3 0.25 -3.95 0.1 -4.25 0.1 -4.25 0.05 -4.3 0.1 Q-4.55 -0.2 -4.55 -0.35 -4.6 -0.7 -4.55 -1.0 L-4.45 -1.25 Q-4.3 -1.8 -3.55 -2.2 -2.95 -2.5 -2.65 -2.7 -2.15 -3.0 -1.95 -3.35 L-1.5 -4.05 Q-1.25 -4.5 -1.15 -4.8 -1.0 -5.05 -0.85 -5.65 -0.8 -5.9 -0.7 -6.0 L-0.6 -6.1 -0.55 -6.05 -0.5 -6.05 -0.5 -6.0 -0.1 -5.4 -0.05 -5.35 Q-0.15 -5.8 -0.35 -6.7 -0.5 -7.2 -0.55 -8.2 -0.6 -8.65 -0.6 -9.35 L-0.55 -10.45 Q-0.55 -11.1 -0.4 -11.65 -0.25 -12.2 0.0 -12.1 0.1 -12.2 0.6 -12.25 1.25 -12.3 1.95 -12.1 3.05 -11.85 3.6 -11.25 L3.7 -11.25 M3.45 -9.7 Q3.55 -9.95 3.55 -10.2 L3.55 -10.3 3.35 -10.65 2.65 -11.35 Q2.55 -11.4 2.5 -11.45 2.35 -11.45 2.3 -11.5 L2.25 -11.55 Q1.8 -11.7 0.8 -11.75 L0.6 -11.75 0.6 -11.7 0.5 -11.7 0.25 -11.45 0.05 -10.65 0.4 -10.8 0.6 -10.8 0.6 -10.7 0.4 -10.5 0.1 -10.3 0.05 -10.3 0.15 -10.2 0.35 -9.95 0.55 -9.65 0.55 -9.6 Q0.45 -9.6 0.4 -9.65 0.2 -9.8 0.0 -10.0 L0.0 -9.95 -0.05 -9.2 0.35 -9.2 0.35 -9.15 0.05 -8.9 0.0 -8.85 0.4 -8.4 0.45 -8.3 Q0.5 -8.25 0.4 -8.25 0.15 -8.25 -0.05 -8.5 L-0.1 -8.25 -0.05 -7.7 0.0 -7.7 Q0.25 -7.9 0.4 -7.8 0.35 -7.7 0.15 -7.55 L0.0 -7.45 0.15 -7.3 0.45 -6.95 0.6 -6.65 0.6 -6.55 0.45 -6.6 0.15 -6.95 0.0 -7.15 0.05 -6.5 0.05 -6.35 0.1 -6.35 Q0.3 -6.5 0.45 -6.45 L0.5 -6.3 Q0.5 -6.2 0.15 -6.05 L0.3 -5.9 0.55 -5.55 0.7 -5.3 Q0.8 -5.25 0.65 -5.25 L0.55 -5.25 0.4 -5.35 Q0.25 -5.5 0.2 -5.65 L0.15 -5.7 0.1 -5.75 0.1 -5.05 0.2 -4.95 0.2 -4.9 0.4 -4.7 0.4 -4.65 0.55 -4.5 Q0.9 -4.1 1.0 -3.9 L1.15 -3.75 Q1.2 -3.65 1.2 -3.6 L1.6 -3.85 2.35 -4.25 2.65 -4.5 2.6 -4.6 Q2.55 -4.8 2.55 -4.9 L2.55 -5.2 Q2.65 -6.0 3.1 -8.05 L3.25 -8.8 Q3.3 -9.3 3.4 -9.55 L3.45 -9.7 M3.2 -3.6 Q3.15 -4.0 3.3 -4.6 L3.0 -4.2 2.95 -4.15 2.95 -4.2 2.65 -3.95 Q1.85 -3.3 1.4 -3.25 1.4 -3.15 1.25 -3.15 1.2 -3.2 1.1 -3.25 L0.95 -3.35 1.0 -3.35 0.6 -3.75 Q0.2 -4.2 0.0 -4.5 L-0.4 -5.25 -0.4 -5.3 Q-0.5 -4.5 -1.7 -2.8 -2.1 -2.25 -3.2 -1.85 -3.7 -1.65 -3.95 -1.3 L-4.15 -1.05 -4.15 -0.9 Q-4.15 -0.75 -4.15 -0.35 L-4.2 -0.35 -3.95 -0.3 -3.6 -0.15 -2.65 -0.05 -1.95 0.0 Q-1.1 0.05 -0.5 0.0 L-0.05 -0.05 0.55 -0.15 Q0.6 -0.55 1.1 -1.2 1.8 -2.15 2.3 -2.1 L2.55 -2.1 Q2.55 -2.25 2.65 -2.3 2.8 -1.95 2.85 -1.35 L2.9 -0.8 2.95 -0.45 3.0 -0.35 3.3 -0.35 Q3.3 -0.6 3.35 -1.05 L3.3 -0.9 Q3.5 -1.95 3.5 -2.25 L3.45 -2.35 Q3.55 -2.6 3.55 -2.7 3.5 -2.95 3.2 -3.45 L3.15 -3.4 3.15 -3.5 3.2 -3.55 3.2 -3.6" fill="#111111" fill-rule="evenodd" stroke="none"/>
    <path d="M0.6 -11.7 L0.6 -11.75 0.8 -11.75 Q1.8 -11.7 2.25 -11.55 L2.3 -11.5 Q2.35 -11.45 2.5 -11.45 2.55 -11.4 2.65 -11.35 L3.35 -10.65 3.55 -10.3 3.55 -10.2 Q3.55 -9.95 3.45 -9.7 L3.4 -9.8 2.7 -7.75 Q2.25 -6.4 2.35 -5.6 2.35 -5.35 2.5 -5.1 L2.55 -5.2 2.55 -4.9 Q2.55 -4.8 2.6 -4.6 L2.65 -4.5 2.35 -4.25 1.6 -3.85 1.2 -3.6 Q1.2 -3.65 1.15 -3.75 L1.0 -3.9 Q0.9 -4.1 0.55 -4.5 L0.6 -4.45 0.6 -4.9 0.55 -5.25 0.65 -5.25 Q0.8 -5.25 0.7 -5.3 L0.55 -5.55 0.5 -6.25 0.45 -6.6 0.6 -6.55 0.6 -6.65 0.45 -6.95 0.4 -7.95 0.4 -8.25 Q0.5 -8.25 0.45 -8.3 L0.4 -8.4 0.4 -9.65 Q0.45 -9.6 0.55 -9.6 L0.55 -9.65 0.35 -9.95 Q0.35 -10.2 0.4 -10.5 L0.6 -10.7 0.6 -10.8 0.4 -10.8 0.45 -11.1 0.6 -11.7 M3.2 -3.6 L3.15 -3.65 Q3.1 -3.6 3.05 -3.4 3.0 -3.25 3.05 -3.1 L3.1 -2.8 3.15 -2.45 3.2 -2.2 Q3.2 -1.95 3.3 -1.8 3.35 -1.95 3.4 -2.4 L3.4 -2.55 3.45 -2.35 3.5 -2.25 Q3.5 -1.95 3.3 -0.9 L3.35 -1.05 Q3.3 -0.6 3.3 -0.35 L3.0 -0.35 2.95 -0.45 2.9 -0.8 2.85 -1.35 Q2.8 -1.95 2.65 -2.3 2.55 -2.25 2.55 -2.1 L2.3 -2.1 Q1.8 -2.15 1.1 -1.2 0.6 -0.55 0.55 -0.15 L-0.05 -0.05 -0.5 0.0 Q-1.1 0.05 -1.95 0.0 L-2.65 -0.05 -3.6 -0.15 -3.95 -0.3 -4.2 -0.35 -4.15 -0.35 Q-4.15 -0.75 -4.15 -0.9 L-4.15 -1.05 -3.95 -1.3 Q-3.7 -1.65 -3.2 -1.85 -2.1 -2.25 -1.7 -2.8 -0.5 -4.5 -0.4 -5.3 L-0.4 -5.25 0.0 -4.5 Q0.2 -4.2 0.6 -3.75 L1.0 -3.35 0.95 -3.35 1.1 -3.25 Q1.2 -3.2 1.25 -3.15 1.4 -3.15 1.4 -3.25 1.85 -3.3 2.65 -3.95 L2.95 -4.2 2.95 -4.15 3.0 -4.2 3.3 -4.6 Q3.15 -4.0 3.2 -3.6 M0.1 -6.35 L0.05 -6.35 0.05 -6.5 0.0 -7.15 0.1 -6.35 M0.15 -5.7 L0.2 -4.95 0.1 -5.05 0.1 -5.75 0.15 -5.7 M-3.3 -1.0 Q-3.25 -1.15 -3.0 -1.3 -2.8 -1.4 -2.65 -1.45 L-1.45 -1.7 Q-0.8 -1.9 -0.4 -2.3 -0.55 -2.4 -0.85 -2.25 -1.2 -2.05 -1.4 -2.1 L-2.05 -2.05 -2.75 -1.95 Q-3.05 -1.9 -3.45 -1.5 -3.95 -1.05 -3.9 -0.8 -3.9 -0.55 -3.55 -0.4 -3.45 -0.5 -3.4 -0.7 L-3.3 -1.0 M0.8 -2.85 L0.8 -3.0 Q0.8 -3.15 0.2 -3.7 0.1 -3.85 -0.05 -4.1 L-0.25 -4.5 Q-0.45 -4.75 -0.55 -4.65 L-0.7 -4.35 Q-0.95 -3.75 -0.95 -3.55 L-0.9 -3.4 -0.75 -3.3 Q-0.65 -3.35 -0.65 -3.5 -0.6 -3.6 -0.45 -3.6 L0.15 -3.15 0.7 -2.75 Q0.75 -2.75 0.8 -2.75 L0.8 -2.85" fill="#260d23" fill-rule="evenodd" stroke="none"/>
    <path d="M0.6 -11.7 L0.45 -11.1 0.4 -10.8 0.05 -10.65 0.25 -11.45 0.5 -11.7 0.6 -11.7 M0.4 -10.5 Q0.35 -10.2 0.35 -9.95 L0.15 -10.2 0.05 -10.3 0.1 -10.3 0.4 -10.5 M0.4 -9.65 L0.4 -8.4 0.0 -8.85 0.05 -8.9 0.35 -9.15 0.35 -9.2 -0.05 -9.2 0.0 -9.95 0.0 -10.0 Q0.2 -9.8 0.4 -9.65 M0.4 -8.25 L0.4 -7.95 0.45 -6.95 0.15 -7.3 0.0 -7.45 0.15 -7.55 Q0.35 -7.7 0.4 -7.8 0.25 -7.9 0.0 -7.7 L-0.05 -7.7 -0.1 -8.25 -0.05 -8.5 Q0.15 -8.25 0.4 -8.25 M0.45 -6.6 L0.5 -6.25 0.55 -5.55 0.3 -5.9 0.15 -6.05 Q0.5 -6.2 0.5 -6.3 L0.45 -6.45 Q0.3 -6.5 0.1 -6.35 L0.0 -7.15 0.15 -6.95 0.45 -6.6 M0.55 -5.25 L0.6 -4.9 0.6 -4.45 0.55 -4.5 0.4 -4.65 0.4 -4.7 0.2 -4.9 0.2 -4.95 0.15 -5.7 0.2 -5.65 Q0.25 -5.5 0.4 -5.35 L0.55 -5.25 M2.55 -5.2 L2.5 -5.1 Q2.35 -5.35 2.35 -5.6 2.25 -6.4 2.7 -7.75 L3.4 -9.8 3.45 -9.7 3.4 -9.55 Q3.3 -9.3 3.25 -8.8 L3.1 -8.05 Q2.65 -6.0 2.55 -5.2 M3.45 -2.35 L3.4 -2.55 3.4 -2.4 Q3.35 -1.95 3.3 -1.8 3.2 -1.95 3.2 -2.2 L3.15 -2.45 3.1 -2.8 3.05 -3.1 Q3.0 -3.25 3.05 -3.4 3.1 -3.6 3.15 -3.65 L3.2 -3.6 3.2 -3.55 3.15 -3.5 3.15 -3.4 3.2 -3.45 Q3.5 -2.95 3.55 -2.7 3.55 -2.6 3.45 -2.35 M0.8 -2.85 L0.8 -2.75 Q0.75 -2.75 0.7 -2.75 L0.15 -3.15 -0.45 -3.6 Q-0.6 -3.6 -0.65 -3.5 -0.65 -3.35 -0.75 -3.3 L-0.9 -3.4 -0.95 -3.55 Q-0.95 -3.75 -0.7 -4.35 L-0.55 -4.65 Q-0.45 -4.75 -0.25 -4.5 L-0.05 -4.1 Q0.1 -3.85 0.2 -3.7 0.8 -3.15 0.8 -3.0 L0.8 -2.85 M-3.3 -1.0 L-3.4 -0.7 Q-3.45 -0.5 -3.55 -0.4 -3.9 -0.55 -3.9 -0.8 -3.95 -1.05 -3.45 -1.5 -3.05 -1.9 -2.75 -1.95 L-2.05 -2.05 -1.4 -2.1 Q-1.2 -2.05 -0.85 -2.25 -0.55 -2.4 -0.4 -2.3 -0.8 -1.9 -1.45 -1.7 L-2.65 -1.45 Q-2.8 -1.4 -3.0 -1.3 -3.25 -1.15 -3.3 -1.0" fill="#4d1a47" fill-rule="evenodd" stroke="none"/>
  </g>
</svg>
