<?xml version="1.0" encoding="UTF-8" standalone="no"?>
<svg xmlns:ffdec="https://www.free-decompiler.com/flash" xmlns:xlink="http://www.w3.org/1999/xlink" ffdec:objectType="shape" height="28.05px" width="58.75px" xmlns="http://www.w3.org/2000/svg">
  <g transform="matrix(1.0, 0.0, 0.0, 1.0, 40.35, 16.55)">
    <path d="M-25.65 -11.6 L-27.8 -12.3 -28.4 -12.55 -28.55 -12.55 -29.2 -12.85 Q-29.6 -13.05 -31.0 -13.75 -32.5 -13.75 -33.35 -14.15 -33.6 -14.25 -33.75 -14.35 L-33.9 -14.5 -34.45 -14.7 -34.45 -14.75 -35.1 -15.2 Q-35.55 -15.55 -36.0 -15.6 L-36.0 -15.7 -35.7 -15.6 Q-34.35 -15.0 -34.0 -14.8 -33.4 -14.4 -31.55 -14.0 L-30.65 -13.85 -30.75 -13.75 -30.5 -13.65 -28.4 -12.7 -26.95 -12.2 -26.8 -12.15 -26.8 -12.2 -26.75 -12.15 Q-25.95 -11.9 -25.45 -11.75 -25.05 -11.65 -24.15 -11.5 -23.1 -11.25 -22.4 -11.3 L-22.15 -11.0 Q-22.0 -10.9 -21.8 -10.55 L-21.25 -9.55 Q-20.95 -9.1 -20.65 -8.75 L-20.5 -8.6 Q-20.75 -8.6 -20.9 -8.35 L-20.95 -8.45 -20.85 -8.55 -21.05 -8.7 -21.15 -8.75 -21.2 -8.85 -21.75 -9.85 Q-21.85 -10.0 -22.0 -10.55 -22.2 -10.85 -22.4 -10.95 L-22.5 -11.05 -22.55 -11.05 -23.4 -11.1 Q-24.2 -11.15 -25.1 -11.4 L-25.65 -11.6 M-36.3 -15.6 L-36.35 -15.55 -36.45 -15.55 Q-36.85 -15.55 -38.25 -15.85 L-39.65 -16.15 -39.1 -15.75 Q-38.35 -15.0 -38.35 -14.7 L-38.2 -14.5 -37.85 -13.75 -37.85 -13.7 -37.65 -13.45 -37.15 -13.05 -36.6 -12.65 -36.5 -12.6 -36.45 -12.6 Q-36.35 -12.7 -36.0 -12.75 -35.25 -12.8 -33.75 -12.45 -32.95 -12.05 -32.65 -11.65 L-32.6 -11.6 -32.2 -11.3 -31.8 -11.5 -31.55 -11.65 -31.45 -11.75 -30.85 -11.75 -30.65 -11.65 Q-30.6 -11.8 -30.3 -11.8 L-29.95 -11.75 -29.85 -11.7 Q-29.45 -11.6 -29.3 -11.4 L-29.3 -11.2 -29.2 -10.95 -29.35 -10.7 -29.35 -10.6 -29.4 -10.55 -29.5 -10.45 -29.6 -10.15 -29.05 -9.5 Q-28.55 -8.85 -28.45 -8.25 L-28.4 -8.1 -29.9 -10.35 Q-29.75 -10.45 -29.6 -10.6 -29.5 -10.75 -29.45 -10.95 L-29.45 -11.05 Q-29.55 -11.1 -29.85 -11.35 -30.25 -11.6 -30.45 -11.45 L-30.6 -11.4 -30.65 -11.4 -30.7 -11.3 -31.1 -11.35 Q-31.2 -11.35 -31.7 -11.1 L-31.95 -10.95 -32.2 -10.85 Q-32.35 -11.15 -32.65 -11.4 -33.2 -11.95 -33.95 -12.25 L-34.2 -12.35 Q-34.5 -12.45 -34.8 -12.5 L-35.25 -12.65 Q-35.55 -12.65 -35.7 -12.5 L-36.0 -12.45 -36.3 -12.35 -36.3 -12.3 Q-36.3 -12.25 -36.45 -12.25 L-36.6 -12.3 -37.45 -12.95 Q-37.8 -13.2 -38.1 -13.35 L-38.5 -14.05 -38.95 -14.95 -40.25 -16.25 -40.25 -16.3 -40.3 -16.35 -40.3 -16.55 -38.9 -16.3 -36.5 -15.85 -36.35 -15.75 -36.3 -15.65 -36.3 -15.6 M-24.2 -7.2 Q-25.1 -7.75 -26.1 -8.5 L-26.25 -8.6 Q-25.5 -8.1 -24.95 -7.9 -24.65 -7.7 -24.35 -7.5 -24.35 -7.3 -24.25 -7.25 L-24.2 -7.25 -24.2 -7.2 M-24.8 -9.9 L-26.4 -10.5 -27.25 -10.8 -27.6 -11.05 -26.65 -10.75 Q-25.4 -10.35 -25.2 -10.25 L-24.75 -10.05 -24.8 -9.9 M-16.6 -1.35 Q-16.35 -1.5 -16.35 -1.7 -16.35 -1.85 -16.4 -1.9 L-16.55 -1.95 -17.0 -1.75 -17.25 -1.6 -17.4 -1.6 Q-17.3 -1.65 -17.1 -1.7 L-16.8 -1.9 -16.15 -2.85 -16.1 -2.95 -16.05 -2.95 Q-16.1 -3.15 -16.45 -3.4 -16.85 -3.75 -17.1 -3.75 L-17.25 -3.65 -17.3 -3.5 -17.3 -3.3 -17.45 -3.0 -17.6 -2.9 -17.7 -3.05 Q-17.5 -3.3 -17.2 -3.8 L-17.25 -4.0 -17.2 -4.0 Q-17.15 -4.15 -17.2 -4.35 L-17.35 -4.55 -17.6 -4.7 -17.65 -4.65 -17.85 -4.75 -18.35 -4.8 -18.45 -5.0 Q-18.15 -5.1 -18.0 -5.25 L-18.0 -5.3 Q-18.0 -5.35 -17.95 -5.45 -17.85 -5.5 -17.85 -5.6 L-17.8 -5.65 -17.75 -5.7 -17.8 -5.75 -17.8 -5.8 -17.8 -5.85 -17.6 -5.6 -17.65 -5.5 Q-17.6 -5.45 -17.65 -5.45 L-17.75 -5.3 -17.8 -5.2 -17.8 -5.15 Q-17.9 -5.05 -18.05 -4.95 L-17.55 -4.75 -17.45 -4.75 -17.3 -4.65 -17.15 -4.6 -17.1 -4.5 -17.05 -4.45 -17.0 -4.35 -17.05 -4.25 -17.0 -4.2 -16.95 -4.2 -16.8 -4.15 Q-16.65 -4.1 -16.45 -4.25 L-16.4 -4.25 -16.25 -4.5 -16.2 -4.5 -16.05 -4.85 -15.95 -5.0 -15.85 -5.05 -15.8 -5.25 -15.7 -5.4 -15.75 -5.4 -15.8 -5.45 -15.75 -6.05 -15.75 -6.15 -15.75 -6.2 -15.75 -6.25 -15.8 -6.25 -15.85 -6.35 Q-16.05 -6.5 -16.1 -6.55 L-16.25 -6.45 -16.3 -6.45 -16.45 -6.5 Q-16.95 -6.75 -17.4 -6.85 -17.45 -6.5 -17.65 -6.15 L-17.75 -6.0 -17.8 -5.95 -17.8 -5.9 -17.9 -6.0 -17.8 -6.3 -17.75 -6.65 -17.7 -6.95 -17.7 -7.0 -17.65 -7.35 -17.65 -7.45 -17.45 -7.45 -17.5 -7.5 -17.5 -7.55 -17.45 -7.4 -17.45 -7.35 -17.5 -7.25 -17.45 -7.2 Q-17.45 -7.05 -17.35 -7.0 L-17.2 -7.0 Q-17.1 -6.85 -16.7 -6.75 -16.5 -6.7 -16.4 -6.6 L-16.35 -6.65 Q-16.2 -6.65 -16.0 -6.55 L-15.7 -6.4 -15.7 -6.45 -15.75 -6.6 -15.75 -6.65 -15.8 -7.1 Q-15.95 -7.8 -16.2 -7.95 L-16.75 -8.15 Q-17.0 -8.25 -17.25 -8.0 -17.35 -7.9 -17.35 -7.8 L-17.45 -7.6 -17.5 -7.65 Q-17.4 -8.15 -16.85 -8.2 -16.45 -8.25 -16.1 -8.1 -15.9 -8.0 -15.75 -7.85 L-15.8 -7.9 Q-15.85 -7.9 -15.9 -8.25 L-15.95 -8.55 -16.0 -8.55 Q-16.05 -8.55 -16.1 -8.9 L-16.1 -8.95 -16.15 -9.15 Q-16.2 -9.3 -16.25 -9.3 L-17.0 -9.35 Q-17.35 -9.25 -17.5 -9.05 L-17.55 -8.95 -17.8 -8.8 Q-18.0 -8.7 -18.0 -8.55 -18.0 -8.35 -17.8 -8.1 L-17.85 -8.05 Q-17.65 -7.9 -17.55 -7.7 L-18.05 -8.05 Q-18.5 -8.35 -18.65 -8.35 L-18.8 -8.3 -18.7 -8.5 -18.55 -8.45 Q-18.35 -8.35 -18.25 -8.35 -18.15 -8.35 -18.1 -8.4 L-18.0 -8.45 -18.05 -8.65 -18.15 -8.75 -18.15 -8.8 Q-17.8 -9.1 -17.45 -9.55 -17.3 -9.75 -16.6 -9.8 L-15.85 -9.5 -15.75 -9.4 -16.0 -9.45 -16.0 -9.3 Q-16.0 -9.2 -15.9 -9.05 L-15.7 -8.95 -15.5 -8.9 -15.55 -9.3 -15.55 -9.45 Q-15.7 -10.05 -15.95 -10.5 -15.5 -10.55 -15.35 -10.05 -15.25 -9.45 -15.2 -9.2 L-15.2 -9.1 Q-15.05 -8.85 -15.05 -8.45 -14.7 -9.05 -14.35 -9.1 L-14.25 -9.05 Q-14.2 -9.0 -14.2 -8.9 L-14.6 -8.45 -14.5 -8.5 Q-14.0 -8.6 -13.45 -8.35 L-13.4 -8.25 Q-13.5 -8.2 -13.7 -8.15 L-13.55 -7.7 -13.5 -7.65 Q-13.2 -7.0 -13.2 -6.8 L-13.2 -6.7 Q-13.25 -6.8 -13.35 -6.85 L-13.55 -6.75 Q-13.65 -6.65 -13.65 -6.5 -13.65 -6.4 -13.55 -6.3 -13.4 -6.2 -13.25 -6.2 L-13.2 -6.2 Q-12.85 -6.0 -12.7 -5.75 -12.55 -5.55 -12.25 -4.75 L-12.15 -4.85 -11.25 -5.3 -11.2 -5.3 Q-10.85 -5.45 -10.3 -5.25 L-10.2 -5.2 -10.1 -5.2 -9.95 -5.1 -9.9 -5.05 -9.85 -5.05 -9.75 -4.95 Q-9.65 -4.9 -9.3 -4.4 L-9.25 -4.35 -9.2 -4.15 -9.25 -4.15 -9.3 -4.05 -9.85 -4.75 Q-10.15 -5.05 -10.3 -4.95 L-10.35 -4.95 Q-10.35 -5.05 -10.45 -5.1 -10.6 -5.2 -10.8 -5.2 L-11.25 -4.95 Q-11.6 -4.75 -11.75 -4.75 L-12.0 -4.75 Q-12.05 -4.6 -12.4 -4.4 L-12.35 -4.3 -12.2 -4.25 -12.7 -3.75 -13.05 -3.25 -13.1 -3.3 -12.85 -3.65 Q-14.45 -3.25 -14.6 -3.35 -14.65 -3.4 -14.7 -3.4 -14.9 -3.1 -15.25 -3.0 L-15.55 -2.9 Q-15.55 -2.85 -15.7 -2.75 L-15.4 -2.5 Q-15.25 -2.35 -15.15 -2.3 L-15.0 -2.25 -14.6 -2.3 -13.65 -2.3 Q-13.35 -2.4 -13.15 -2.5 L-13.1 -2.55 -13.05 -2.5 -13.05 -2.6 -12.85 -2.65 -12.8 -2.7 -12.85 -2.75 -12.75 -2.85 -12.8 -2.85 -12.95 -2.95 -12.95 -3.1 Q-12.9 -3.05 -12.8 -3.0 L-12.65 -2.95 -12.7 -2.85 -12.65 -2.9 -12.5 -3.0 -12.35 -3.0 Q-12.2 -3.15 -12.0 -3.2 L-11.7 -3.2 -11.55 -3.2 Q-11.3 -3.1 -10.95 -2.9 -10.4 -2.6 -9.7 -2.0 -8.9 -1.3 -8.55 -0.95 L-8.0 -0.65 Q-7.25 -0.25 -6.85 0.05 -6.5 0.05 -5.85 0.35 L-4.45 1.05 Q-3.8 1.35 -3.15 1.75 -2.75 2.0 -2.45 2.25 L-2.15 2.45 -2.0 2.7 Q-1.9 2.7 -1.8 2.75 -1.7 2.8 -1.5 3.05 L-1.35 3.1 Q-1.2 3.15 -1.0 3.25 L-0.9 3.3 0.55 3.95 1.1 4.2 Q-0.15 3.85 -0.6 3.65 -1.25 3.45 -2.1 2.65 -2.9 1.9 -3.55 1.8 L-3.55 1.95 -3.45 2.05 -3.5 2.05 Q-3.65 1.85 -3.9 1.8 L-4.0 1.9 -4.35 1.7 Q-4.5 1.35 -5.25 1.0 -5.85 0.7 -6.05 0.7 -6.3 0.7 -7.35 0.1 -8.3 -0.4 -8.5 -0.6 L-9.15 -1.25 Q-10.45 -2.55 -10.65 -2.55 -10.75 -2.7 -11.0 -2.85 -11.4 -3.05 -11.65 -3.05 L-11.75 -3.05 -11.75 -3.1 -11.85 -3.1 -11.95 -3.0 -12.05 -2.95 Q-12.15 -2.85 -12.15 -2.75 L-12.15 -2.7 -12.9 -2.3 -12.95 -2.3 Q-13.25 -2.0 -13.45 -2.0 L-13.6 -2.05 -13.7 -2.0 Q-14.05 -1.9 -14.45 -1.9 L-14.55 -1.9 -15.25 -1.95 -15.3 -2.05 -15.25 -2.05 -15.3 -2.1 Q-15.5 -2.15 -15.7 -2.35 -15.8 -2.45 -15.85 -2.5 L-15.95 -2.6 -16.2 -2.2 -16.15 -2.2 -16.15 -1.9 -16.25 -2.1 -16.3 -2.05 -16.2 -1.9 Q-16.1 -1.85 -16.05 -1.8 L-16.05 -1.85 -15.15 -0.55 Q-14.85 -0.2 -14.5 -0.05 L-14.3 0.0 -14.65 -0.3 -14.8 -0.55 -14.85 -0.5 -15.0 -0.75 -15.0 -0.8 -15.05 -1.15 -14.95 -1.15 -14.75 -1.0 -14.35 -0.8 -14.3 -0.75 -13.85 -0.45 -13.55 -0.2 -13.3 -0.05 -13.3 -0.15 Q-13.2 -0.1 -13.05 0.0 -12.85 0.1 -12.65 0.05 L-12.5 0.15 -13.05 0.1 Q-13.05 -0.05 -13.05 0.2 -13.05 0.3 -12.3 0.5 L-12.65 0.45 Q-12.05 0.9 -11.45 1.0 -11.4 1.05 -11.4 1.15 L-11.8 1.05 -12.15 0.95 Q-12.65 0.75 -13.1 0.4 -13.45 0.15 -13.6 0.0 L-14.05 -0.2 -14.1 -0.15 -13.9 0.05 -13.9 0.1 -13.85 0.15 -13.75 0.2 -13.75 0.35 Q-13.8 0.45 -13.95 0.45 -14.55 0.45 -15.4 -0.35 -15.8 -0.75 -16.0 -1.05 L-15.85 -0.35 -15.9 -0.25 -16.0 -0.3 -16.1 -0.45 -16.15 -0.5 Q-16.35 -0.55 -16.5 -1.0 -16.6 -1.2 -16.6 -1.35 M-17.55 -1.65 L-17.55 -1.6 -17.6 -1.75 -17.55 -2.2 -17.55 -2.35 Q-17.55 -2.55 -17.55 -2.65 L-17.75 -2.65 -17.6 -2.75 -17.6 -2.7 Q-17.45 -2.5 -17.55 -2.0 -17.55 -1.75 -17.55 -1.65 M-17.8 -2.6 L-17.85 -2.55 -17.95 -2.6 -17.8 -2.6 M-20.35 -5.45 L-20.4 -5.45 -21.1 -5.75 Q-20.65 -5.6 -20.25 -5.55 L-20.35 -5.45 M-22.45 -6.35 L-22.85 -6.45 Q-22.85 -6.55 -22.85 -6.6 L-22.7 -6.5 -22.45 -6.35 M-22.95 -6.65 L-23.0 -6.65 -23.0 -6.7 -22.95 -6.65 M-23.2 -6.5 L-23.3 -6.4 Q-23.5 -6.25 -23.8 -6.25 L-23.95 -6.35 -23.6 -6.45 -23.55 -6.4 -23.45 -6.45 Q-23.35 -6.45 -23.3 -6.5 L-23.25 -6.5 -23.2 -6.5 M-23.15 -9.5 L-23.0 -9.5 -22.0 -8.95 -21.95 -8.9 Q-21.6 -8.6 -21.2 -8.45 L-21.15 -8.5 -20.9 -8.35 -20.8 -8.25 -20.55 -8.15 Q-20.7 -8.2 -20.7 -8.1 L-20.9 -8.1 -21.05 -8.15 -23.15 -9.5 M-29.25 -10.95 L-29.25 -10.95 M5.3 3.85 Q5.6 3.9 5.9 4.05 6.15 4.2 6.5 4.5 L6.4 4.4 Q5.8 4.05 5.3 3.85 M7.65 5.35 L7.9 5.45 8.25 5.6 8.65 5.65 9.1 5.65 Q9.45 5.65 11.35 6.4 L11.35 6.5 Q11.35 6.65 11.4 6.65 L11.45 6.65 Q12.2 6.95 13.5 7.35 L15.5 7.95 Q16.1 8.15 16.9 8.8 L16.3 8.55 16.1 8.45 Q16.05 8.5 15.95 8.5 14.55 7.9 13.1 7.3 L12.8 7.25 Q12.65 7.25 12.2 7.05 11.95 6.95 11.7 7.05 11.3 6.95 10.5 6.6 9.4 6.1 9.3 6.1 9.2 6.1 9.1 6.15 L9.0 6.2 9.05 6.3 8.95 6.75 Q8.9 6.95 8.8 7.1 L9.1 7.25 9.15 7.25 9.3 7.35 8.8 7.2 8.8 7.35 12.75 9.4 16.75 11.45 16.7 11.5 16.55 11.45 16.45 11.45 Q16.25 11.45 14.8 10.7 L14.5 10.5 14.45 10.5 13.45 9.95 13.4 9.9 13.4 9.95 13.3 10.0 11.3 8.8 Q9.85 7.95 8.75 7.45 8.7 7.55 8.55 7.55 L7.45 7.35 Q7.3 7.35 7.15 7.1 L7.1 7.1 7.4 7.25 Q7.95 7.45 8.6 7.45 8.7 7.45 8.75 7.4 L8.75 7.3 Q8.75 7.1 8.45 6.95 L8.5 6.95 8.55 6.7 8.5 6.7 8.55 6.6 Q8.7 6.55 8.8 6.4 8.9 6.25 8.9 6.05 8.1 5.65 7.75 5.65 L7.7 5.65 7.7 6.05 7.65 6.6 7.55 6.6 7.55 6.65 7.6 6.7 8.0 6.85 7.8 6.85 Q7.5 6.8 7.3 6.55 7.1 6.35 6.8 6.4 6.75 6.4 6.75 6.55 6.75 6.75 6.95 6.95 6.75 6.85 6.55 6.85 6.4 6.85 5.95 6.7 L6.05 6.7 Q6.2 6.7 6.2 6.65 L6.3 6.5 6.25 6.35 5.95 6.25 Q5.9 6.2 5.9 6.05 5.9 5.85 6.05 5.4 L6.15 5.35 Q6.2 5.25 6.2 5.15 6.2 5.1 6.3 5.0 6.35 4.95 6.35 4.85 L7.45 5.5 7.6 5.45 7.65 5.35 M17.75 9.05 L17.8 9.05 17.85 9.1 17.9 9.1 18.1 9.45 18.3 9.85 18.3 9.9 17.75 9.05 M18.15 10.15 Q17.9 10.6 17.05 11.35 L17.05 11.4 17.05 11.15 16.45 10.95 16.95 11.1 17.0 11.1 Q17.85 10.35 18.0 10.0 L17.95 9.9 18.15 10.15 M16.95 11.45 L16.9 11.45 16.95 11.45 M-15.7 -8.95 L-15.7 -8.95 M-14.85 -8.15 Q-15.1 -7.9 -15.2 -7.85 L-15.3 -8.0 -15.6 -7.75 -15.65 -7.75 -15.75 -7.85 -15.55 -7.6 -15.6 -7.55 -15.5 -7.55 Q-15.3 -7.15 -15.45 -6.55 L-15.25 -6.5 Q-14.9 -6.35 -14.9 -6.3 L-14.7 -6.0 -14.6 -6.0 -14.6 -5.95 Q-14.5 -6.1 -14.25 -6.15 L-14.2 -6.1 Q-14.1 -6.15 -13.95 -6.25 L-13.85 -6.35 -13.75 -6.55 -13.7 -6.7 -13.65 -6.7 -13.85 -7.55 -13.9 -7.8 Q-14.05 -8.0 -14.2 -8.05 L-14.7 -8.05 Q-14.85 -8.05 -14.8 -8.1 L-14.85 -8.05 -14.85 -8.15 M-15.5 -8.75 L-15.55 -8.7 -15.55 -8.45 -15.5 -8.2 -15.35 -8.25 -15.4 -8.35 -15.5 -8.35 -15.5 -8.75 M-20.45 -8.15 L-20.15 -8.0 Q-19.8 -7.8 -19.55 -7.8 L-19.4 -7.8 Q-19.35 -7.7 -19.25 -7.7 L-19.05 -7.75 -19.0 -7.9 -18.95 -7.9 -18.95 -7.8 -19.05 -7.75 Q-18.95 -7.65 -18.95 -7.3 -18.95 -6.9 -19.1 -6.65 L-19.1 -6.6 -19.15 -6.6 -19.35 -6.65 -19.3 -6.85 -19.25 -6.8 -19.3 -6.9 -19.3 -7.0 -19.25 -7.25 -19.3 -7.4 -19.35 -7.65 -19.5 -7.65 Q-19.7 -7.65 -20.3 -8.05 L-20.45 -8.15 M-17.4 -9.5 L-17.25 -9.55 -17.35 -9.55 -17.4 -9.5 M-19.25 -7.3 L-19.2 -7.3 -19.2 -7.25 -19.15 -7.3 -19.25 -7.3 M-19.4 -5.8 L-19.5 -5.6 -19.55 -5.65 -19.4 -5.8 M-14.3 -5.95 Q-14.5 -5.9 -14.6 -5.8 L-14.45 -5.55 -14.35 -5.2 -14.35 -5.25 -14.25 -5.2 -14.25 -5.05 Q-13.9 -4.95 -13.35 -4.65 L-13.3 -4.65 -13.0 -4.6 -12.95 -4.6 -12.6 -4.55 -12.55 -4.55 -12.45 -4.65 Q-12.6 -4.85 -12.8 -5.3 -13.05 -5.8 -13.45 -6.1 L-13.65 -6.1 -13.7 -6.15 -13.75 -6.1 -13.8 -6.15 -13.9 -6.1 -13.9 -6.05 -14.3 -5.95 M-14.25 -4.5 Q-14.25 -4.1 -14.45 -3.7 L-14.55 -3.55 -12.65 -3.85 -12.65 -3.9 -12.55 -4.05 Q-12.8 -4.15 -13.15 -4.3 L-13.9 -4.7 -14.0 -4.7 -14.15 -4.75 -14.3 -4.85 -14.3 -4.7 -14.35 -4.6 -14.25 -4.5 M-12.6 -4.3 L-12.6 -4.3 M-11.15 -3.5 L-11.05 -3.6 -10.85 -3.75 -10.65 -4.0 -10.6 -4.0 -10.55 -4.1 -10.5 -4.15 Q-10.45 -4.25 -10.45 -4.35 L-10.45 -4.4 -10.45 -4.55 -10.4 -4.65 -10.4 -4.4 Q-10.4 -4.35 -10.2 -4.15 L-10.25 -4.05 Q-10.25 -3.9 -10.05 -3.85 L-10.05 -3.8 -10.15 -3.75 -10.05 -3.75 -9.85 -3.8 Q-9.8 -3.75 -9.7 -3.75 L-9.55 -3.75 -9.55 -3.7 -9.5 -3.7 -9.45 -3.75 Q-9.4 -3.75 -9.35 -3.8 L-9.35 -3.6 Q-9.35 -3.4 -9.15 -3.15 L-9.1 -3.1 Q-8.35 -2.7 -8.1 -2.4 -7.8 -2.05 -7.05 -1.65 L-6.7 -1.45 -5.85 -0.95 -5.8 -0.9 Q-4.75 -0.3 -2.65 0.75 L-1.5 1.35 -1.75 1.3 -2.9 0.8 -4.6 0.0 -4.6 0.05 -4.75 -0.05 -4.7 -0.05 -4.7 -0.1 -4.9 -0.15 Q-5.15 -0.35 -5.55 -0.45 L-5.55 -0.5 -5.9 -0.75 -5.95 -0.75 Q-6.85 -0.75 -7.65 -1.4 -8.0 -1.7 -8.3 -2.1 L-8.9 -2.5 Q-10.6 -3.55 -10.9 -3.55 L-11.15 -3.5 M-15.45 -6.3 L-15.5 -6.35 -15.55 -6.3 -15.55 -6.15 -15.6 -6.0 -15.7 -5.8 Q-15.7 -5.7 -15.6 -5.5 L-15.6 -5.45 -15.55 -5.35 -15.55 -5.3 Q-15.55 -5.15 -15.6 -5.0 L-15.7 -4.9 -16.15 -4.5 -16.4 -4.2 -16.6 -4.0 -16.8 -4.05 -16.8 -4.0 -16.95 -3.9 -17.0 -3.85 Q-16.55 -3.55 -16.2 -3.35 L-16.2 -3.3 -16.05 -3.2 -16.05 -3.25 -15.95 -3.2 Q-15.85 -3.15 -15.75 -3.15 L-15.75 -3.1 -15.45 -3.15 -15.4 -3.15 -15.2 -3.25 Q-14.8 -3.5 -14.7 -3.7 -14.5 -4.1 -14.45 -4.4 L-14.5 -4.6 -14.45 -4.6 -14.6 -4.85 -14.65 -5.0 -14.7 -5.1 -14.75 -5.1 -14.75 -5.15 -14.9 -5.55 -15.15 -6.1 -15.35 -6.45 -15.35 -6.4 -15.45 -6.3 M-15.9 -2.95 L-15.9 -2.95 M-12.95 -3.2 L-12.95 -3.15 -13.0 -3.2 -13.0 -3.25 -12.95 -3.2 M-10.6 -3.8 L-10.65 -3.65 -10.65 -3.5 -10.4 -3.4 -9.9 -3.15 -9.85 -3.1 -9.45 -2.9 Q-10.0 -3.3 -10.0 -3.55 L-10.0 -3.65 -10.15 -3.75 -10.25 -3.75 -10.5 -4.0 -10.5 -3.9 -10.6 -3.95 Q-10.7 -3.9 -10.65 -3.85 L-10.7 -3.8 -10.6 -3.8 M-10.75 -3.75 L-10.7 -3.8 -10.8 -3.75 -10.75 -3.75 M-9.2 -4.55 L-9.25 -4.5 -9.25 -4.6 -9.2 -4.55 M-9.4 -3.3 L-9.4 -3.45 -9.45 -3.55 -9.65 -3.55 -9.4 -3.3 M2.45 4.75 L2.85 4.95 Q2.85 4.8 2.95 4.65 L3.05 4.6 3.05 4.5 Q3.05 4.35 3.15 3.95 L3.25 3.65 3.05 3.7 1.4 2.95 0.15 2.4 0.15 2.35 -0.45 1.85 Q1.8 3.0 2.1 3.0 L2.2 3.0 2.45 3.15 Q3.05 3.5 3.2 3.5 L3.6 3.4 Q3.95 3.3 4.05 3.3 4.3 3.3 4.6 3.65 L4.95 4.05 5.1 4.0 5.45 4.25 5.2 4.2 Q4.85 4.2 4.8 4.4 L4.75 4.35 Q4.65 4.6 4.6 4.9 4.3 5.1 4.3 5.4 L4.3 5.55 4.75 5.85 5.7 6.2 5.5 6.15 4.7 6.05 Q4.55 6.05 4.3 5.7 L4.1 5.5 3.95 5.2 4.1 5.05 Q4.3 5.0 4.7 4.15 4.7 4.1 4.4 3.85 4.05 3.55 3.85 3.55 L3.7 3.6 3.65 3.6 3.6 3.8 3.65 3.85 3.45 4.3 Q3.25 4.8 3.05 5.0 L3.1 5.05 2.95 5.05 3.3 5.15 2.95 5.1 2.8 5.1 Q2.7 4.95 2.45 4.75 M-1.65 1.5 L-2.25 1.25 -1.8 1.4 -1.65 1.5 M6.5 5.1 Q6.4 5.15 6.3 5.3 6.2 5.45 6.2 5.65 L6.25 5.8 6.2 5.9 6.2 5.95 6.15 6.0 Q6.15 6.2 6.25 6.3 L6.35 6.3 Q6.55 6.25 6.85 6.3 7.05 6.4 7.2 6.45 L7.25 6.2 Q7.3 6.2 7.3 6.15 L7.3 6.1 7.3 6.05 7.35 5.95 7.3 5.85 7.35 5.8 7.3 5.6 7.15 5.6 7.0 5.45 Q6.7 5.1 6.55 5.1 L6.5 5.1 M8.75 7.15 L8.75 7.15" fill="#111111" fill-rule="evenodd" stroke="none"/>
    <path d="M-36.0 -15.6 Q-35.55 -15.55 -35.1 -15.2 L-34.45 -14.75 -34.45 -14.7 -33.9 -14.5 -33.75 -14.35 Q-33.6 -14.25 -33.35 -14.15 -32.5 -13.75 -31.0 -13.75 -29.6 -13.05 -29.2 -12.85 L-28.55 -12.55 -28.4 -12.55 -27.8 -12.3 -25.65 -11.6 -25.7 -11.55 Q-25.05 -11.4 -24.7 -11.15 L-24.75 -11.15 -24.8 -10.85 -24.85 -10.6 -24.9 -10.6 Q-25.05 -10.55 -25.25 -10.55 L-25.1 -10.4 -25.3 -10.55 Q-25.85 -10.55 -27.05 -10.9 L-27.7 -11.1 Q-27.9 -11.2 -28.25 -11.3 L-28.75 -11.35 -28.9 -10.6 Q-28.8 -10.5 -28.55 -10.35 -27.5 -9.45 -26.5 -8.75 L-26.25 -8.6 -26.1 -8.5 Q-25.1 -7.75 -24.2 -7.2 L-24.2 -7.15 -24.15 -7.15 -24.2 -6.95 -26.75 -8.6 -28.8 -9.9 -28.95 -10.1 -29.2 -10.25 -29.15 -10.35 Q-29.15 -10.4 -29.4 -10.55 L-29.35 -10.6 -29.35 -10.7 -29.2 -10.95 -29.3 -11.2 -29.3 -11.4 Q-29.45 -11.6 -29.85 -11.7 L-30.05 -11.8 -30.3 -11.8 Q-30.6 -11.8 -30.65 -11.65 L-30.85 -11.75 -31.45 -11.75 -31.55 -11.65 -32.05 -12.0 -32.3 -12.2 -32.65 -12.55 -33.4 -13.15 -33.4 -13.2 Q-33.4 -13.4 -34.15 -13.95 -34.8 -14.45 -35.15 -14.5 L-35.65 -14.95 -36.55 -15.4 -36.6 -15.5 -36.45 -15.55 -36.35 -15.55 -36.3 -15.6 -36.0 -15.6 M-29.45 -11.05 L-29.45 -10.95 -29.45 -11.05 M-24.75 -10.05 L-24.7 -10.1 Q-24.55 -9.9 -24.25 -9.75 -23.75 -9.55 -23.15 -9.5 L-21.05 -8.15 -20.95 -8.05 -21.1 -8.05 Q-21.1 -8.3 -21.1 -7.95 -21.1 -7.75 -20.5 -7.3 -20.0 -6.85 -19.65 -6.8 -19.75 -6.75 -19.9 -6.75 -20.0 -6.75 -22.4 -8.2 -24.8 -9.6 -24.8 -9.65 L-24.8 -9.9 -24.75 -10.05 M-23.15 -6.55 L-23.2 -6.5 -23.25 -6.5 -23.15 -6.55 M-24.95 -7.9 Q-24.6 -7.75 -24.3 -7.7 L-24.35 -7.5 Q-24.65 -7.7 -24.95 -7.9 M-29.25 -10.95 L-29.25 -10.95" fill="#c6cdd5" fill-rule="evenodd" stroke="none"/>
    <path d="M-20.9 -8.35 Q-20.75 -8.6 -20.5 -8.6 L-20.2 -8.55 Q-19.85 -8.35 -19.6 -8.25 -19.55 -8.4 -19.35 -8.6 -19.1 -8.9 -18.7 -8.9 -18.5 -8.9 -18.3 -8.8 L-18.15 -8.75 -18.05 -8.65 -18.0 -8.45 -18.1 -8.4 Q-18.15 -8.35 -18.25 -8.35 -18.35 -8.35 -18.55 -8.45 L-18.7 -8.5 -18.8 -8.3 -18.85 -8.25 Q-18.95 -8.05 -19.0 -7.9 L-19.05 -7.75 -19.25 -7.7 Q-19.35 -7.7 -19.4 -7.8 L-19.55 -7.8 Q-19.8 -7.8 -20.15 -8.0 L-20.45 -8.15 -20.55 -8.15 -20.8 -8.25 -20.9 -8.35 M-40.25 -16.3 L-40.25 -16.25 -40.35 -16.35 -40.25 -16.3 M-36.45 -12.25 Q-36.3 -12.25 -36.3 -12.3 L-36.3 -12.35 -36.0 -12.45 -35.95 -12.4 Q-36.15 -12.35 -36.2 -12.2 L-36.25 -12.15 -36.45 -12.25 M-28.4 -8.1 L-28.45 -8.25 -27.85 -8.05 -26.8 -7.6 -23.95 -6.35 -23.8 -6.25 Q-23.5 -6.25 -23.3 -6.4 L-23.2 -6.5 -23.15 -6.55 Q-23.05 -6.65 -23.0 -6.65 L-22.95 -6.65 -22.9 -6.6 -22.85 -6.6 Q-22.85 -6.55 -22.85 -6.45 L-22.45 -6.35 Q-21.7 -5.95 -21.1 -5.75 L-20.4 -5.45 -20.35 -5.45 Q-20.4 -5.35 -20.4 -5.2 -20.4 -5.05 -20.2 -4.85 L-19.85 -4.4 -19.3 -4.35 -19.2 -4.35 Q-19.15 -4.0 -19.0 -3.65 -18.6 -2.6 -18.05 -2.6 L-17.95 -2.6 -17.85 -2.55 -17.8 -2.6 -17.75 -2.65 -17.55 -2.65 Q-17.55 -2.55 -17.55 -2.35 L-17.55 -2.2 -17.6 -1.75 -17.55 -1.6 -17.55 -1.65 -17.4 -1.6 -17.25 -1.6 -17.0 -1.75 -16.55 -1.95 -16.4 -1.9 Q-16.35 -1.85 -16.35 -1.7 -16.35 -1.5 -16.6 -1.35 -16.75 -1.3 -16.9 -1.25 L-17.45 -1.2 Q-17.75 -1.2 -17.9 -1.4 -18.0 -1.5 -18.0 -1.7 L-17.95 -2.15 -17.95 -2.2 Q-18.7 -2.25 -19.05 -2.7 -19.3 -3.1 -19.3 -3.95 -19.3 -4.05 -19.35 -4.15 L-19.4 -4.15 -19.9 -4.05 Q-20.15 -4.05 -20.45 -5.15 L-20.65 -5.1 Q-20.85 -5.1 -21.8 -5.6 -22.65 -6.0 -22.95 -6.25 L-23.25 -6.1 Q-23.6 -5.9 -23.8 -5.9 L-28.25 -7.9 -28.4 -8.1 M-36.6 -12.65 L-36.45 -12.6 -36.5 -12.6 -36.6 -12.65 M-15.75 -9.4 L-15.55 -9.3 -15.5 -8.9 -15.7 -8.95 -15.9 -9.05 Q-16.0 -9.2 -16.0 -9.3 L-16.0 -9.45 -15.75 -9.4 M-13.2 -6.7 L-13.15 -6.6 -13.1 -6.3 -13.1 -6.25 Q-13.1 -6.2 -13.2 -6.2 L-13.25 -6.2 Q-13.4 -6.2 -13.55 -6.3 -13.65 -6.4 -13.65 -6.5 -13.65 -6.65 -13.55 -6.75 L-13.35 -6.85 Q-13.25 -6.8 -13.2 -6.7 M-9.2 -4.15 L-9.15 -3.8 Q-9.05 -3.5 -8.95 -3.35 L-8.85 -3.15 Q-8.6 -2.85 -7.85 -2.4 L-7.8 -2.4 -7.55 -2.1 Q-6.5 -1.1 -5.05 -0.95 L-2.4 0.5 Q-0.35 1.65 1.45 2.25 2.65 2.95 3.5 2.95 L3.85 3.0 4.3 3.0 Q4.55 3.05 4.8 3.3 5.1 3.55 5.15 3.8 L5.3 3.85 Q5.8 4.05 6.4 4.4 L6.5 4.5 7.65 5.2 7.65 5.35 7.6 5.45 7.45 5.5 6.35 4.85 6.15 4.75 5.45 4.25 5.1 4.0 4.95 4.05 4.6 3.65 Q4.3 3.3 4.05 3.3 3.95 3.3 3.6 3.4 L3.2 3.5 Q3.05 3.5 2.45 3.15 L2.2 3.0 2.1 3.0 Q1.8 3.0 -0.45 1.85 L-1.5 1.35 -2.65 0.75 Q-4.75 -0.3 -5.8 -0.9 L-5.85 -0.95 -6.7 -1.45 -7.05 -1.65 Q-7.8 -2.05 -8.1 -2.4 -8.35 -2.7 -9.1 -3.1 L-9.15 -3.15 Q-9.35 -3.4 -9.35 -3.6 L-9.35 -3.8 -9.35 -3.9 -9.3 -4.05 -9.25 -4.15 -9.2 -4.15 M11.35 6.4 Q11.4 6.35 11.45 6.3 L11.75 6.3 13.5 6.9 Q15.3 7.6 15.85 7.7 16.9 7.9 17.5 8.7 L17.75 9.05 18.3 9.9 18.4 10.1 Q18.45 10.2 18.2 10.2 L18.15 10.15 17.95 9.9 17.75 9.65 16.9 8.8 Q16.1 8.15 15.5 7.95 L13.5 7.35 Q12.2 6.95 11.45 6.65 L11.4 6.65 Q11.35 6.65 11.35 6.5 L11.35 6.4 M17.05 11.4 L16.95 11.45 16.9 11.45 16.75 11.45 12.75 9.4 8.8 7.35 8.8 7.2 9.3 7.35 Q10.8 7.8 12.9 9.05 15.1 10.4 16.45 10.95 L17.05 11.15 17.05 11.4 M7.1 7.1 Q7.05 7.0 6.95 6.95 6.75 6.75 6.75 6.55 6.75 6.4 6.8 6.4 7.1 6.35 7.3 6.55 7.5 6.8 7.8 6.85 L8.0 6.85 8.4 6.95 8.45 6.95 Q8.75 7.1 8.75 7.3 L8.75 7.4 Q8.7 7.45 8.6 7.45 7.95 7.45 7.4 7.25 L7.1 7.1 M5.95 6.7 Q4.95 6.7 4.45 6.45 3.85 6.2 3.8 5.6 L3.55 5.65 3.05 5.7 Q3.0 5.7 2.75 5.45 L2.65 5.35 Q0.35 4.45 -0.9 4.0 -1.55 3.75 -2.35 3.1 L-3.15 2.35 -3.05 2.65 -2.75 3.3 -2.75 3.45 -2.8 3.45 -2.65 3.6 Q-2.9 3.7 -3.0 3.75 L-3.0 3.85 Q-3.05 3.95 -3.25 3.95 -3.6 3.95 -4.0 3.75 L-4.25 3.5 Q-4.3 3.5 -4.35 3.45 -5.1 3.0 -5.65 3.0 L-6.05 3.25 -6.05 3.3 -6.1 3.35 -6.15 3.35 Q-7.35 3.35 -8.3 2.85 -8.85 2.55 -9.1 2.2 -8.85 3.0 -8.6 3.15 L-8.55 3.25 -8.55 3.3 Q-8.6 3.35 -8.8 3.35 -9.25 3.35 -9.55 2.15 L-9.6 2.05 -9.6 2.0 Q-9.7 1.8 -9.7 1.7 -9.7 1.65 -10.05 1.2 L-10.2 0.95 -11.55 0.7 -12.3 0.5 Q-13.05 0.3 -13.05 0.2 -13.05 -0.05 -13.05 0.1 L-12.5 0.15 -11.25 0.25 Q-10.55 0.35 -10.1 0.5 L-10.1 0.45 Q-9.9 0.55 -9.7 0.75 L-9.6 0.85 -9.6 0.9 Q-9.45 1.1 -9.35 1.45 L-9.3 1.4 -9.25 1.4 Q-8.75 2.2 -8.0 2.6 -7.25 2.95 -6.15 3.05 L-6.15 3.0 Q-6.15 2.85 -6.1 2.8 -5.95 2.7 -5.55 2.7 L-5.4 2.65 Q-4.9 2.65 -4.15 3.05 L-3.6 3.4 -3.25 3.55 -3.2 3.5 -3.35 3.3 Q-3.55 3.1 -3.7 2.7 L-4.0 1.9 -3.9 1.8 Q-3.65 1.85 -3.5 2.05 L-3.45 2.05 -3.55 1.95 -3.55 1.8 Q-2.9 1.9 -2.1 2.65 -1.25 3.45 -0.6 3.65 -0.15 3.85 1.1 4.2 L1.4 4.25 Q2.05 4.5 2.45 4.75 2.7 4.95 2.8 5.1 L2.95 5.1 3.3 5.15 3.85 5.15 3.95 5.2 4.1 5.5 4.3 5.7 Q4.55 6.05 4.7 6.05 L5.5 6.15 5.7 6.2 5.95 6.25 6.25 6.35 6.3 6.5 6.2 6.65 Q6.2 6.7 6.05 6.7 L5.95 6.7" fill="#000000" fill-rule="evenodd" stroke="none"/>
    <path d="M-10.95 -2.9 Q-10.15 -2.7 -9.05 -2.05 L-8.05 -1.5 -8.15 -1.45 Q-8.1 -1.35 -7.75 -1.1 L-7.6 -0.95 -7.55 -0.85 -6.1 -0.2 Q-5.3 0.15 -4.6 0.1 L-4.75 0.0 -4.75 -0.05 -4.6 0.05 Q-4.2 0.5 -3.0 0.95 L-2.25 1.25 -1.65 1.5 -1.05 1.95 Q-0.25 2.45 0.0 2.45 0.2 2.45 0.15 2.4 L1.4 2.95 3.05 3.7 Q2.9 3.8 2.9 3.95 2.85 4.35 2.8 4.45 L2.85 4.55 3.0 4.55 3.05 4.5 3.05 4.6 2.95 4.65 Q2.85 4.8 2.85 4.95 L2.45 4.75 Q2.05 4.5 1.4 4.25 L1.1 4.2 0.55 3.95 -0.9 3.3 -1.0 3.25 Q-1.2 3.15 -1.35 3.1 L-1.5 3.05 Q-1.7 2.8 -1.8 2.75 -1.9 2.7 -2.0 2.7 L-2.15 2.45 -2.45 2.25 Q-2.75 2.0 -3.15 1.75 -3.8 1.35 -4.45 1.05 L-5.85 0.35 Q-6.5 0.05 -6.85 0.05 -7.25 -0.25 -8.0 -0.65 L-8.55 -0.95 Q-8.9 -1.3 -9.7 -2.0 -10.4 -2.6 -10.95 -2.9 M17.75 9.65 L17.95 9.9 18.0 10.0 Q17.85 10.35 17.0 11.1 L16.95 11.1 16.45 10.95 Q15.1 10.4 12.9 9.05 10.8 7.8 9.3 7.35 L9.15 7.25 9.1 7.25 8.8 7.1 Q8.9 6.95 8.95 6.75 L9.05 6.3 Q9.2 6.45 9.6 6.65 10.15 6.95 10.45 6.95 10.6 6.95 11.9 7.65 13.4 8.45 13.75 8.55 14.35 8.8 15.95 9.25 17.45 9.7 17.6 9.7 L17.75 9.65" fill="#b69562" fill-rule="evenodd" stroke="none"/>
    <path d="M-4.35 1.7 L-4.3 1.75 -4.3 1.85 Q-4.35 1.9 -4.45 1.9 L-4.45 1.85 -4.6 1.8 -4.95 1.8 Q-5.45 1.65 -6.3 1.25 L-6.35 1.35 -6.5 1.15 -6.85 0.65 Q-7.05 0.35 -7.15 0.35 -7.3 0.35 -7.3 0.5 L-7.25 0.5 -7.25 0.65 -7.05 0.85 -7.15 0.9 Q-7.35 0.85 -7.4 0.9 L-7.55 1.1 Q-7.35 1.25 -7.15 1.5 L-6.95 1.85 -6.95 1.95 Q-7.75 1.9 -8.4 1.55 -8.8 1.3 -9.05 1.0 -9.2 0.8 -9.3 0.55 -9.35 0.3 -9.5 -0.05 -9.8 -1.05 -9.95 -1.4 -10.75 -2.2 -10.8 -2.35 L-11.2 -2.5 -11.2 -2.4 -11.05 -2.2 -11.1 -2.1 -10.8 -1.7 Q-10.5 -1.25 -10.5 -1.15 L-10.5 -1.0 -10.55 -0.9 Q-10.85 -0.9 -11.05 -0.7 L-10.6 -0.3 -10.15 0.05 Q-10.45 0.05 -10.75 -0.1 -11.05 -0.25 -11.2 -0.25 L-11.4 -0.05 -11.45 -0.05 Q-11.95 -0.25 -12.1 -0.45 -11.95 -0.55 -11.85 -0.75 -11.75 -0.95 -11.75 -1.1 -11.75 -1.15 -11.85 -1.25 L-11.85 -1.3 -12.0 -1.5 -12.15 -1.75 -12.05 -1.95 Q-11.95 -2.15 -11.8 -2.15 L-11.75 -2.25 -11.75 -2.4 Q-11.9 -2.4 -12.05 -2.55 L-12.1 -2.55 -12.1 -2.5 -12.4 -2.25 Q-12.7 -2.05 -12.7 -1.9 L-12.5 -1.6 -12.25 -1.2 -12.5 -1.0 Q-12.65 -1.0 -12.85 -1.15 L-13.0 -1.25 -13.1 -1.2 -13.1 -1.1 -13.05 -0.9 -12.95 -0.75 -12.95 -0.7 Q-12.95 -0.65 -13.05 -0.6 -13.35 -0.7 -13.8 -1.1 -14.25 -1.45 -14.3 -1.65 L-14.45 -1.9 Q-14.05 -1.9 -13.7 -2.0 L-13.6 -2.05 -13.45 -2.0 Q-13.25 -2.0 -12.95 -2.3 L-12.9 -2.3 -12.15 -2.7 -12.15 -2.75 Q-12.15 -2.85 -12.05 -2.95 L-11.95 -3.0 -11.85 -3.1 -11.75 -3.1 -11.75 -3.05 -11.65 -3.05 Q-11.4 -3.05 -11.0 -2.85 -10.75 -2.7 -10.65 -2.55 -10.45 -2.55 -9.15 -1.25 L-8.5 -0.6 Q-8.3 -0.4 -7.35 0.1 -6.3 0.7 -6.05 0.7 -5.85 0.7 -5.25 1.0 -4.5 1.35 -4.35 1.7 M-11.45 -0.95 L-11.45 -0.95" fill="#8b0104" fill-rule="evenodd" stroke="none"/>
    <path d="M-36.45 -15.55 L-36.6 -15.5 -36.55 -15.4 -35.65 -14.95 -35.15 -14.5 Q-34.8 -14.45 -34.15 -13.95 -33.4 -13.4 -33.4 -13.2 L-33.4 -13.15 -32.65 -12.55 -32.3 -12.2 -32.05 -12.0 -31.55 -11.65 -31.8 -11.5 -32.2 -11.3 -32.6 -11.6 -32.65 -11.65 Q-32.95 -12.05 -33.75 -12.45 -35.25 -12.8 -36.0 -12.75 -36.35 -12.7 -36.45 -12.6 L-36.6 -12.65 -37.15 -13.05 -37.65 -13.45 -37.85 -13.7 -37.85 -13.75 -38.2 -14.5 -38.35 -14.7 Q-38.35 -15.0 -39.1 -15.75 L-39.65 -16.15 -38.25 -15.85 Q-36.85 -15.55 -36.45 -15.55 M-29.4 -10.55 Q-29.15 -10.4 -29.15 -10.35 L-29.2 -10.25 -28.95 -10.1 -28.8 -9.9 -26.75 -8.6 -24.2 -6.95 -24.2 -6.9 Q-24.2 -6.8 -24.0 -6.65 -23.85 -6.45 -23.6 -6.45 L-23.95 -6.35 -26.8 -7.6 -27.85 -8.05 -28.45 -8.25 Q-28.55 -8.85 -29.05 -9.5 L-29.6 -10.15 -29.5 -10.45 -29.4 -10.55 M-24.15 -7.15 L-24.2 -7.15 -24.2 -7.2 -24.2 -7.25 -24.25 -7.25 Q-24.35 -7.3 -24.35 -7.5 L-24.3 -7.7 Q-24.6 -7.75 -24.95 -7.9 -25.5 -8.1 -26.25 -8.6 L-26.5 -8.75 Q-27.5 -9.45 -28.55 -10.35 -28.8 -10.5 -28.9 -10.6 L-28.75 -11.35 -28.25 -11.3 Q-27.9 -11.2 -27.7 -11.1 L-27.05 -10.9 Q-25.85 -10.55 -25.3 -10.55 L-25.1 -10.4 -24.8 -10.25 -24.7 -10.1 -24.75 -10.05 -25.2 -10.25 Q-25.4 -10.35 -26.65 -10.75 L-27.6 -11.05 -27.25 -10.8 -26.4 -10.5 -24.8 -9.9 -24.8 -9.65 Q-24.8 -9.6 -22.4 -8.2 -20.0 -6.75 -19.9 -6.75 L-19.85 -6.7 -19.8 -6.7 -19.8 -6.65 -19.7 -6.6 -19.75 -6.6 -19.75 -6.55 Q-19.75 -6.5 -20.0 -6.35 L-20.1 -6.25 Q-20.15 -6.1 -20.3 -6.05 L-20.45 -6.05 -20.65 -6.1 Q-21.9 -6.2 -22.35 -6.45 L-22.45 -6.5 -22.8 -6.7 -23.3 -6.95 -23.4 -6.95 -23.7 -6.95 -23.75 -7.1 -24.15 -7.15 M-36.0 -12.45 L-35.7 -12.5 -35.7 -12.45 -35.95 -12.4 -36.0 -12.45 M-34.8 -12.5 Q-34.5 -12.45 -34.2 -12.35 L-34.65 -12.45 -34.8 -12.5" fill="#e8e7e3" fill-rule="evenodd" stroke="none"/>
    <path d="M-25.65 -11.6 L-25.1 -11.4 Q-24.2 -11.15 -23.4 -11.1 L-22.55 -11.05 -22.5 -11.05 -22.4 -10.95 -22.55 -10.95 Q-22.65 -10.75 -22.65 -10.35 -22.65 -9.75 -22.2 -9.2 L-21.95 -8.9 -22.0 -8.95 -23.0 -9.5 -23.15 -9.5 Q-23.75 -9.55 -24.25 -9.75 -24.55 -9.9 -24.7 -10.1 L-24.8 -10.25 -25.1 -10.4 -25.25 -10.55 Q-25.05 -10.55 -24.9 -10.6 L-24.85 -10.6 -24.8 -10.85 -24.75 -11.15 -24.7 -11.15 Q-25.05 -11.4 -25.7 -11.55 L-25.65 -11.6 M-21.2 -8.85 L-21.15 -8.75 -21.2 -8.85 M-20.95 -8.45 L-20.9 -8.35 -21.15 -8.5 -21.1 -8.5 -21.0 -8.45 -20.95 -8.45 M-24.2 -6.95 L-24.15 -7.15 -23.75 -7.1 -23.7 -6.95 -23.4 -6.95 -23.2 -6.8 -23.25 -6.8 Q-23.3 -6.9 -23.4 -6.9 L-23.6 -6.85 Q-23.7 -6.85 -23.7 -6.7 -23.7 -6.55 -23.6 -6.45 -23.85 -6.45 -24.0 -6.65 -24.2 -6.8 -24.2 -6.9 L-24.2 -6.95 M-19.9 -6.75 Q-19.75 -6.75 -19.65 -6.8 -20.0 -6.85 -20.5 -7.3 -21.1 -7.75 -21.1 -7.95 -21.1 -8.3 -21.1 -8.05 L-20.95 -8.05 -21.05 -8.15 -20.9 -8.1 -20.7 -8.1 -20.7 -8.0 -20.65 -7.9 -20.6 -7.85 -20.05 -7.25 Q-19.8 -7.05 -19.55 -6.9 L-19.45 -6.8 -19.4 -6.85 -19.3 -6.85 -19.35 -6.65 -19.7 -6.6 -19.8 -6.65 -19.8 -6.7 -19.85 -6.7 -19.9 -6.75 M-23.45 -6.45 L-23.25 -6.55 -23.15 -6.55 -23.25 -6.5 -23.3 -6.5 Q-23.35 -6.45 -23.45 -6.45" fill="#a9acba" fill-rule="evenodd" stroke="none"/>
    <path d="M-17.4 -1.6 L-17.55 -1.65 Q-17.55 -1.75 -17.55 -2.0 -17.45 -2.5 -17.6 -2.7 L-17.6 -2.75 -17.6 -2.9 -17.45 -3.0 -17.3 -3.3 Q-17.25 -3.15 -17.1 -3.0 -16.9 -2.7 -16.55 -2.7 -16.5 -2.7 -16.1 -2.95 L-16.15 -2.85 -16.8 -1.9 -17.1 -1.7 Q-17.3 -1.65 -17.4 -1.6 M-17.65 -7.35 L-17.7 -7.0 -17.7 -7.15 -17.65 -7.35 M-17.7 -6.95 L-17.75 -6.65 -17.8 -6.3 -17.9 -6.0 -17.95 -6.0 -17.95 -6.05 Q-17.95 -6.25 -18.3 -6.45 -18.65 -6.6 -19.1 -6.6 L-19.1 -6.65 Q-18.95 -6.9 -18.95 -7.3 -18.95 -7.65 -19.05 -7.75 L-18.95 -7.8 -18.95 -7.9 Q-18.85 -8.0 -18.75 -8.0 -18.65 -8.0 -18.25 -7.7 -18.1 -7.6 -17.95 -7.55 L-17.8 -6.9 -17.7 -6.95 M-17.8 -5.9 L-17.8 -5.95 -17.75 -6.0 -17.65 -6.15 Q-17.45 -6.5 -17.4 -6.85 -16.95 -6.75 -16.45 -6.5 L-16.3 -6.45 -16.35 -6.4 -16.35 -6.3 Q-16.35 -6.0 -16.25 -5.65 L-16.05 -4.95 -15.95 -5.0 -16.05 -4.85 -16.2 -4.5 -16.25 -4.5 -16.4 -4.25 -16.45 -4.25 Q-16.65 -4.1 -16.8 -4.15 L-16.95 -4.2 -17.0 -4.2 -17.05 -4.25 -17.0 -4.35 -17.05 -4.45 -17.1 -4.5 -17.15 -4.6 -17.3 -4.65 -17.45 -4.75 -17.55 -4.75 -18.05 -4.95 Q-17.9 -5.05 -17.8 -5.15 L-17.8 -5.2 -17.75 -5.3 -17.65 -5.45 Q-17.6 -5.45 -17.65 -5.5 L-17.6 -5.6 -17.8 -5.85 -17.8 -5.9 M-15.8 -6.25 L-15.75 -6.25 -15.75 -6.2 -15.8 -6.25 M-15.75 -6.15 L-15.75 -6.05 -15.75 -6.15 M-15.8 -5.45 L-15.75 -5.4 -15.7 -5.4 -15.8 -5.25 -15.8 -5.45 M-17.8 -5.8 L-17.8 -5.75 -17.75 -5.7 -17.8 -5.65 -17.8 -5.8 M-17.95 -5.45 Q-18.0 -5.35 -18.0 -5.3 L-18.0 -5.25 Q-18.15 -5.1 -18.45 -5.0 -18.65 -5.3 -19.25 -5.55 L-19.5 -5.6 -19.4 -5.8 -19.75 -5.9 Q-19.75 -6.1 -19.5 -6.25 -19.25 -6.35 -18.9 -6.35 -18.15 -6.25 -18.05 -5.8 L-18.05 -5.7 Q-18.05 -5.65 -18.15 -5.5 -18.05 -5.45 -18.0 -5.45 L-17.95 -5.45 M-18.35 -4.8 L-17.85 -4.75 -17.65 -4.65 -17.65 -4.6 -17.5 -4.3 Q-17.4 -4.15 -17.3 -4.15 -17.2 -4.15 -17.2 -4.2 L-17.2 -4.35 Q-17.15 -4.15 -17.2 -4.0 L-17.25 -4.0 -17.2 -3.8 Q-17.5 -3.3 -17.7 -3.05 L-17.85 -3.2 -18.0 -3.4 Q-18.25 -3.4 -18.4 -3.5 -18.6 -3.6 -18.7 -3.8 -18.8 -4.05 -18.8 -4.25 -18.8 -5.0 -18.35 -4.6 L-18.3 -4.55 Q-18.3 -4.7 -18.35 -4.8 M-12.0 -3.2 Q-12.2 -3.15 -12.35 -3.0 L-12.5 -3.0 -12.65 -2.9 -12.7 -2.85 -12.65 -2.95 -12.8 -3.0 Q-12.9 -3.05 -12.95 -3.1 L-12.95 -2.95 -12.8 -2.85 -12.75 -2.85 -12.85 -2.75 -12.8 -2.7 -12.85 -2.65 -13.05 -2.6 -13.05 -2.5 -13.1 -2.55 -13.15 -2.5 Q-13.35 -2.4 -13.65 -2.3 L-14.6 -2.3 -15.0 -2.25 -15.15 -2.3 Q-15.25 -2.35 -15.4 -2.5 L-15.7 -2.75 Q-15.55 -2.85 -15.55 -2.9 L-15.25 -3.0 Q-14.9 -3.1 -14.7 -3.4 -14.65 -3.4 -14.6 -3.35 -14.45 -3.25 -12.85 -3.65 L-13.1 -3.3 -13.05 -3.25 -12.7 -3.75 -12.2 -4.25 Q-11.9 -4.45 -11.75 -4.45 -11.55 -4.45 -11.45 -4.3 -11.35 -4.2 -11.35 -4.05 L-11.35 -3.9 Q-11.8 -3.35 -11.95 -3.25 L-12.0 -3.2 M-11.7 -3.2 Q-11.6 -3.25 -11.5 -3.35 L-11.4 -3.35 -11.55 -3.2 -11.7 -3.2 M-10.85 -3.75 L-10.75 -3.95 -10.65 -4.0 -10.6 -4.0 -10.65 -4.0 -10.85 -3.75 M-10.55 -4.1 L-10.5 -4.15 -10.55 -4.1 M-10.45 -4.35 L-10.45 -4.4 -10.45 -4.35 M-10.05 -3.85 L-9.9 -3.85 -9.85 -3.8 -10.05 -3.75 -10.15 -3.75 -10.05 -3.8 -10.05 -3.85 M-9.7 -3.75 L-9.5 -3.8 Q-9.4 -3.8 -9.35 -3.9 L-9.35 -3.8 Q-9.4 -3.75 -9.45 -3.75 L-9.5 -3.7 -9.55 -3.7 -9.55 -3.75 -9.7 -3.75 M-15.6 -6.0 L-15.55 -6.15 -15.55 -6.3 -15.5 -6.35 -15.45 -6.3 -15.45 -6.25 -15.6 -6.0 M-14.75 -5.15 L-14.75 -5.1 -14.75 -5.15 M-14.7 -5.1 L-14.65 -5.0 -14.6 -4.85 -14.7 -5.1 M-14.5 -4.6 L-14.45 -4.4 Q-14.5 -4.1 -14.7 -3.7 -14.8 -3.5 -15.2 -3.25 L-15.4 -3.15 -15.45 -3.15 -15.75 -3.1 -15.75 -3.15 Q-15.85 -3.15 -15.95 -3.2 L-16.05 -3.25 -16.05 -3.2 -16.2 -3.3 -16.2 -3.35 Q-16.55 -3.55 -17.0 -3.85 L-16.95 -3.9 -16.8 -4.0 -16.8 -4.05 -16.6 -4.0 -16.4 -4.2 -16.15 -4.5 -15.7 -4.9 -15.6 -5.0 Q-15.55 -5.15 -15.55 -5.3 L-15.55 -5.35 -15.6 -5.45 -15.6 -5.5 -15.15 -5.1 -14.5 -4.6 M-12.95 -3.2 L-13.0 -3.25 -13.0 -3.2 -12.95 -3.15 -12.95 -3.2" fill="#91401a" fill-rule="evenodd" stroke="none"/>
    <path d="M-18.8 -8.3 L-18.65 -8.35 Q-18.5 -8.35 -18.05 -8.05 L-17.55 -7.7 Q-17.65 -7.9 -17.85 -8.05 L-17.8 -8.1 Q-18.0 -8.35 -18.0 -8.55 -18.0 -8.7 -17.8 -8.8 L-17.55 -8.95 -17.5 -9.05 Q-17.35 -9.25 -17.0 -9.35 L-16.25 -9.3 Q-16.2 -9.3 -16.15 -9.15 L-16.1 -8.95 -16.1 -8.9 Q-16.05 -8.55 -16.0 -8.55 L-15.95 -8.55 -15.9 -8.25 Q-15.85 -7.9 -15.8 -7.9 L-15.75 -7.85 Q-15.9 -8.0 -16.1 -8.1 -16.45 -8.25 -16.85 -8.2 -17.4 -8.15 -17.5 -7.65 L-17.45 -7.6 -17.35 -7.8 Q-17.35 -7.9 -17.25 -8.0 -17.0 -8.25 -16.75 -8.15 L-16.2 -7.95 Q-15.95 -7.8 -15.8 -7.1 L-15.75 -6.65 -15.75 -6.6 -15.7 -6.45 -15.7 -6.4 -16.0 -6.55 Q-16.2 -6.65 -16.35 -6.65 L-16.4 -6.6 Q-16.5 -6.7 -16.7 -6.75 -17.1 -6.85 -17.2 -7.0 L-17.35 -7.0 Q-17.45 -7.05 -17.45 -7.2 L-17.5 -7.25 -17.45 -7.35 -17.45 -7.4 -17.5 -7.55 -17.5 -7.5 -17.45 -7.45 -17.65 -7.45 -17.65 -7.35 -17.7 -7.15 -17.7 -7.0 -17.7 -6.95 -17.8 -6.9 -17.95 -7.55 Q-18.1 -7.6 -18.25 -7.7 -18.65 -8.0 -18.75 -8.0 -18.85 -8.0 -18.95 -7.9 L-19.0 -7.9 Q-18.95 -8.05 -18.85 -8.25 L-18.8 -8.3 M-17.9 -6.0 L-17.8 -5.9 -17.8 -5.85 -17.8 -5.8 -17.8 -5.65 -17.85 -5.6 Q-17.85 -5.5 -17.95 -5.45 L-18.0 -5.45 Q-18.05 -5.45 -18.15 -5.5 -18.05 -5.65 -18.05 -5.7 L-18.05 -5.8 Q-17.95 -5.9 -17.95 -6.0 L-17.9 -6.0 M-16.3 -6.45 L-16.25 -6.45 -16.1 -6.55 Q-16.05 -6.5 -15.85 -6.35 L-15.8 -6.25 -15.75 -6.2 -15.75 -6.15 -15.75 -6.05 -15.8 -5.45 -15.8 -5.25 -15.85 -5.05 -15.95 -5.0 -16.05 -4.95 -16.25 -5.65 Q-16.35 -6.0 -16.35 -6.3 L-16.35 -6.4 -16.3 -6.45 M-17.65 -4.65 L-17.6 -4.7 -17.35 -4.55 -17.2 -4.35 -17.2 -4.2 Q-17.2 -4.15 -17.3 -4.15 -17.4 -4.15 -17.5 -4.3 L-17.65 -4.6 -17.65 -4.65 M-17.3 -3.3 L-17.3 -3.5 -17.25 -3.65 -17.1 -3.75 Q-16.85 -3.75 -16.45 -3.4 -16.1 -3.15 -16.05 -2.95 L-16.1 -2.95 Q-16.5 -2.7 -16.55 -2.7 -16.9 -2.7 -17.1 -3.0 -17.25 -3.15 -17.3 -3.3 M-14.85 -8.15 L-14.85 -8.05 -14.8 -8.1 Q-14.85 -8.05 -14.7 -8.05 L-14.2 -8.05 Q-14.05 -8.0 -13.9 -7.8 L-13.85 -7.55 -13.65 -6.7 -13.7 -6.7 -13.75 -6.55 -13.85 -6.35 -13.95 -6.25 Q-14.1 -6.15 -14.2 -6.1 L-14.25 -6.15 Q-14.5 -6.1 -14.6 -5.95 L-14.6 -6.0 -14.7 -6.0 -14.9 -6.3 Q-14.9 -6.35 -15.25 -6.5 L-15.45 -6.55 Q-15.3 -7.15 -15.5 -7.55 L-15.6 -7.55 -15.55 -7.6 -15.75 -7.85 -15.65 -7.75 -15.6 -7.75 -15.3 -8.0 -15.2 -7.85 Q-15.1 -7.9 -14.85 -8.15 M-15.5 -8.75 L-15.5 -8.35 -15.4 -8.35 -15.35 -8.25 -15.5 -8.2 -15.55 -8.45 -15.55 -8.7 -15.5 -8.75 M-14.3 -5.95 L-13.9 -6.05 -13.9 -6.1 -13.8 -6.15 -13.75 -6.1 -13.7 -6.15 -13.65 -6.1 -13.45 -6.1 Q-13.05 -5.8 -12.8 -5.3 -12.6 -4.85 -12.45 -4.65 L-12.55 -4.55 -12.6 -4.55 -12.95 -4.6 -13.0 -4.6 -13.3 -4.65 -13.35 -4.65 Q-13.9 -4.95 -14.25 -5.05 L-14.25 -5.2 -14.35 -5.25 -14.35 -5.2 -14.45 -5.55 -14.6 -5.8 Q-14.5 -5.9 -14.3 -5.95 M-12.2 -4.25 L-12.35 -4.3 -12.4 -4.4 Q-12.05 -4.6 -12.0 -4.75 L-11.75 -4.75 Q-11.6 -4.75 -11.25 -4.95 L-10.8 -5.2 Q-10.6 -5.2 -10.45 -5.1 -10.35 -5.05 -10.35 -4.95 L-10.3 -4.95 Q-10.15 -5.05 -9.85 -4.75 L-9.3 -4.05 -9.35 -3.9 Q-9.4 -3.8 -9.5 -3.8 L-9.7 -3.75 Q-9.8 -3.75 -9.85 -3.8 L-9.9 -3.85 -10.05 -3.85 Q-10.25 -3.9 -10.25 -4.05 L-10.2 -4.15 Q-10.4 -4.35 -10.4 -4.4 L-10.4 -4.65 -10.45 -4.55 -10.45 -4.4 -10.45 -4.35 Q-10.45 -4.25 -10.5 -4.15 L-10.55 -4.1 -10.6 -4.0 -10.65 -4.0 -10.75 -3.95 -10.85 -3.75 -11.05 -3.6 -11.15 -3.5 Q-11.3 -3.45 -11.4 -3.35 L-11.5 -3.35 Q-11.6 -3.25 -11.7 -3.2 L-12.0 -3.2 -11.95 -3.25 Q-11.8 -3.35 -11.35 -3.9 L-11.35 -4.05 Q-11.35 -4.2 -11.45 -4.3 -11.55 -4.45 -11.75 -4.45 -11.9 -4.45 -12.2 -4.25 M-15.6 -6.0 L-15.45 -6.25 -15.45 -6.3 -15.35 -6.4 -15.35 -6.45 -15.15 -6.1 -14.9 -5.55 -14.75 -5.15 -14.75 -5.1 -14.7 -5.1 -14.6 -4.85 -14.45 -4.6 -14.5 -4.6 -15.15 -5.1 -15.6 -5.5 Q-15.7 -5.7 -15.7 -5.8 L-15.6 -6.0 M-10.6 -3.8 L-10.7 -3.8 -10.65 -3.85 Q-10.7 -3.9 -10.6 -3.95 L-10.5 -3.9 -10.5 -4.0 -10.25 -3.75 -10.15 -3.75 -10.0 -3.65 -10.0 -3.55 Q-10.0 -3.3 -9.45 -2.9 L-9.85 -3.1 -9.9 -3.15 -10.4 -3.4 -10.65 -3.5 -10.65 -3.65 -10.6 -3.8 M-9.4 -3.3 L-9.65 -3.55 -9.45 -3.55 -9.4 -3.45 -9.4 -3.3" fill="#5e2911" fill-rule="evenodd" stroke="none"/>
    <path d="M-22.4 -10.95 Q-22.2 -10.85 -22.0 -10.55 -21.85 -10.0 -21.75 -9.85 L-21.2 -8.85 -21.15 -8.75 -21.05 -8.7 -20.85 -8.55 -20.95 -8.45 -21.0 -8.45 -21.1 -8.5 -21.15 -8.5 -21.2 -8.45 Q-21.6 -8.6 -21.95 -8.9 L-22.2 -9.2 Q-22.65 -9.75 -22.65 -10.35 -22.65 -10.75 -22.55 -10.95 L-22.4 -10.95 M-23.0 -6.65 Q-23.05 -6.65 -23.15 -6.55 L-23.25 -6.55 -23.45 -6.45 -23.55 -6.4 -23.6 -6.45 Q-23.7 -6.55 -23.7 -6.7 -23.7 -6.85 -23.6 -6.85 L-23.4 -6.9 Q-23.3 -6.9 -23.25 -6.8 L-23.2 -6.8 -23.0 -6.7 -23.0 -6.65 M-20.55 -8.15 L-20.45 -8.15 -20.3 -8.05 Q-19.7 -7.65 -19.5 -7.65 L-19.35 -7.65 -19.3 -7.4 -19.25 -7.25 -19.3 -7.0 -19.3 -6.9 -19.25 -6.8 -19.3 -6.85 -19.4 -6.85 -19.45 -6.8 -19.55 -6.9 Q-19.8 -7.05 -20.05 -7.25 L-20.6 -7.85 -20.65 -7.9 -20.7 -8.0 -20.7 -8.1 Q-20.7 -8.2 -20.55 -8.15" fill="#686c82" fill-rule="evenodd" stroke="none"/>
    <path d="M6.05 5.4 Q5.9 5.85 5.9 6.05 5.9 6.2 5.95 6.25 L5.7 6.2 4.75 5.85 4.3 5.55 4.3 5.4 Q4.3 5.1 4.6 4.9 4.65 4.6 4.75 4.35 L4.8 4.4 Q4.8 4.55 5.35 4.95 L6.0 5.4 6.05 5.4 M6.25 5.8 L6.25 5.85 6.35 5.8 6.65 5.75 Q6.75 5.75 7.0 5.85 7.25 5.95 7.25 6.05 L7.3 6.1 7.3 6.15 Q7.3 6.2 7.25 6.2 L7.2 6.45 Q7.05 6.4 6.85 6.3 6.55 6.25 6.35 6.3 L6.25 6.3 Q6.15 6.2 6.15 6.0 L6.2 5.95 6.2 5.9 6.25 5.8 M8.0 6.85 L7.6 6.7 7.55 6.65 7.55 6.6 7.65 6.6 7.7 6.05 Q7.85 6.05 8.05 6.15 8.35 6.3 8.4 6.55 L8.4 6.6 8.55 6.6 8.5 6.7 8.55 6.7 8.5 6.95 8.45 6.95 8.4 6.95 8.0 6.85 M3.3 5.15 L2.95 5.05 3.1 5.05 3.05 5.0 Q3.25 4.8 3.45 4.3 L3.65 3.85 3.95 4.05 4.0 4.1 Q4.15 4.1 4.25 4.45 L4.25 4.5 4.3 4.6 4.2 4.9 4.1 5.05 3.95 5.2 3.85 5.15 3.3 5.15" fill="#fcefc7" fill-rule="evenodd" stroke="none"/>
    <path d="M-14.25 -4.5 L-14.35 -4.6 -14.3 -4.7 -14.3 -4.85 -14.15 -4.75 -14.0 -4.7 -13.9 -4.7 -13.15 -4.3 Q-12.8 -4.15 -12.55 -4.05 L-12.65 -3.9 -12.65 -3.85 -14.55 -3.55 -14.45 -3.7 Q-14.25 -4.1 -14.25 -4.5 M-11.4 -3.35 Q-11.3 -3.45 -11.15 -3.5 L-10.9 -3.55 Q-10.6 -3.55 -8.9 -2.5 L-8.3 -2.1 Q-8.0 -1.7 -7.65 -1.4 -6.85 -0.75 -5.95 -0.75 L-5.9 -0.75 -5.55 -0.5 -5.55 -0.45 Q-5.15 -0.35 -4.9 -0.15 L-4.7 -0.1 -4.7 -0.05 -4.75 -0.05 -4.75 0.0 -4.6 0.1 Q-5.3 0.15 -6.1 -0.2 L-7.55 -0.85 -7.6 -0.95 -7.75 -1.1 Q-8.1 -1.35 -8.15 -1.45 L-8.05 -1.5 -9.05 -2.05 Q-10.15 -2.7 -10.95 -2.9 -11.3 -3.1 -11.55 -3.2 L-11.4 -3.35 M3.05 4.5 L3.0 4.55 2.85 4.55 2.8 4.45 Q2.85 4.35 2.9 3.95 2.9 3.8 3.05 3.7 L3.25 3.65 3.15 3.95 Q3.05 4.35 3.05 4.5 M0.15 2.4 Q0.2 2.45 0.0 2.45 -0.25 2.45 -1.05 1.95 L-1.65 1.5 -1.8 1.4 -2.25 1.25 -3.0 0.95 Q-4.2 0.5 -4.6 0.05 L-4.6 0.0 -2.9 0.8 -1.75 1.3 -1.5 1.35 -0.45 1.85 0.15 2.35 0.15 2.4 M9.1 6.15 Q9.2 6.1 9.3 6.1 9.4 6.1 10.5 6.6 11.3 6.95 11.7 7.05 11.95 6.95 12.2 7.05 12.65 7.25 12.8 7.25 L13.1 7.3 Q14.55 7.9 15.95 8.5 16.05 8.5 16.1 8.45 L16.3 8.55 16.9 8.8 17.75 9.65 17.6 9.7 Q17.45 9.7 15.95 9.25 14.35 8.8 13.75 8.55 13.4 8.45 11.9 7.65 10.6 6.95 10.45 6.95 10.15 6.95 9.6 6.65 9.2 6.45 9.05 6.3 L9.0 6.2 9.1 6.15" fill="#745a34" fill-rule="evenodd" stroke="none"/>
    <path d="M-12.5 0.15 L-12.65 0.05 Q-12.85 0.1 -13.05 0.0 -13.2 -0.1 -13.3 -0.15 L-13.3 -0.05 -13.55 -0.2 -13.85 -0.45 -14.3 -0.75 -14.35 -0.8 -14.75 -1.0 -14.95 -1.15 -15.05 -1.15 -15.0 -0.8 -15.0 -0.75 -14.85 -0.5 -14.8 -0.55 -14.65 -0.3 -14.3 0.0 -14.5 -0.05 Q-14.85 -0.2 -15.15 -0.55 L-16.05 -1.85 -16.05 -1.8 Q-16.1 -1.85 -16.2 -1.9 L-16.3 -2.05 -16.25 -2.1 -16.15 -1.9 -16.15 -2.2 -16.2 -2.2 -15.95 -2.6 -15.85 -2.5 Q-15.8 -2.45 -15.7 -2.35 -15.5 -2.15 -15.3 -2.1 L-15.25 -2.05 -15.3 -2.05 -15.25 -1.95 -14.55 -1.9 -14.45 -1.9 -14.3 -1.65 Q-14.25 -1.45 -13.8 -1.1 -13.35 -0.7 -13.05 -0.6 -12.95 -0.65 -12.95 -0.7 L-12.95 -0.75 -13.05 -0.9 -13.1 -1.1 -13.1 -1.2 -13.0 -1.25 -12.85 -1.15 Q-12.65 -1.0 -12.5 -1.0 L-12.25 -1.2 -12.5 -1.6 -12.7 -1.9 Q-12.7 -2.05 -12.4 -2.25 L-12.1 -2.5 -12.1 -2.55 -12.05 -2.55 Q-11.9 -2.4 -11.75 -2.4 L-11.75 -2.25 -11.8 -2.15 Q-11.95 -2.15 -12.05 -1.95 L-12.15 -1.75 -12.0 -1.5 -11.85 -1.3 -11.85 -1.25 Q-11.75 -1.15 -11.75 -1.1 -11.75 -0.95 -11.85 -0.75 -11.95 -0.55 -12.1 -0.45 -11.95 -0.25 -11.45 -0.05 L-11.4 -0.05 -11.2 -0.25 Q-11.05 -0.25 -10.75 -0.1 -10.45 0.05 -10.15 0.05 L-10.6 -0.3 -11.05 -0.7 Q-10.85 -0.9 -10.55 -0.9 L-10.5 -1.0 -10.5 -1.15 Q-10.5 -1.25 -10.8 -1.7 L-11.1 -2.1 -11.05 -2.2 -11.2 -2.4 -11.2 -2.5 -10.8 -2.35 Q-10.75 -2.2 -9.95 -1.4 -9.8 -1.05 -9.5 -0.05 -9.35 0.3 -9.3 0.55 -9.2 0.8 -9.05 1.0 -8.8 1.3 -8.4 1.55 -7.75 1.9 -6.95 1.95 L-6.95 1.85 -7.15 1.5 Q-7.35 1.25 -7.55 1.1 L-7.4 0.9 Q-7.35 0.85 -7.15 0.9 L-7.05 0.85 -7.25 0.65 -7.25 0.5 -7.3 0.5 Q-7.3 0.35 -7.15 0.35 -7.05 0.35 -6.85 0.65 L-6.5 1.15 -6.35 1.35 -6.3 1.25 Q-5.45 1.65 -4.95 1.8 L-4.6 1.8 -4.45 1.85 -4.45 1.9 Q-4.35 1.9 -4.3 1.85 L-4.3 1.75 -4.35 1.7 -4.0 1.9 -3.7 2.7 Q-3.55 3.1 -3.35 3.3 L-3.2 3.5 -3.25 3.55 -3.6 3.4 -4.15 3.05 Q-4.9 2.65 -5.4 2.65 L-5.55 2.7 Q-5.95 2.7 -6.1 2.8 -6.15 2.85 -6.15 3.0 L-6.15 3.05 Q-7.25 2.95 -8.0 2.6 -8.75 2.2 -9.25 1.4 L-9.3 1.4 -9.35 1.45 Q-9.45 1.1 -9.6 0.9 L-9.6 0.85 -9.7 0.75 Q-9.9 0.55 -10.1 0.45 L-10.1 0.5 Q-10.55 0.35 -11.25 0.25 L-12.5 0.15 M-11.45 -0.95 L-11.45 -0.95" fill="#600000" fill-rule="evenodd" stroke="none"/>
    <path d="M5.45 4.25 L6.15 4.75 6.35 4.85 Q6.35 4.95 6.3 5.0 6.2 5.1 6.2 5.15 6.2 5.25 6.15 5.35 L6.05 5.4 6.0 5.4 5.35 4.95 Q4.8 4.55 4.8 4.4 4.85 4.2 5.2 4.2 L5.45 4.25 M6.25 5.8 L6.2 5.65 Q6.2 5.45 6.3 5.3 6.4 5.15 6.5 5.1 L6.55 5.1 Q6.7 5.1 7.0 5.45 L7.15 5.6 7.3 5.6 7.35 5.8 7.3 5.85 7.35 5.95 7.3 6.05 7.3 6.1 7.25 6.05 Q7.25 5.95 7.0 5.85 6.75 5.75 6.65 5.75 L6.35 5.8 6.25 5.85 6.25 5.8 M7.7 6.05 L7.7 5.65 7.75 5.65 Q8.1 5.65 8.9 6.05 8.9 6.25 8.8 6.4 8.7 6.55 8.55 6.6 L8.4 6.6 8.4 6.55 Q8.35 6.3 8.05 6.15 7.85 6.05 7.7 6.05 M3.65 3.85 L3.6 3.8 3.65 3.6 3.7 3.6 3.85 3.55 Q4.05 3.55 4.4 3.85 4.7 4.1 4.7 4.15 4.3 5.0 4.1 5.05 L4.2 4.9 4.3 4.6 4.25 4.5 4.25 4.45 Q4.15 4.1 4.0 4.1 L3.95 4.05 3.65 3.85" fill="#7c6507" fill-rule="evenodd" stroke="none"/>
    <path d="M-17.75 -2.65 L-17.8 -2.6 -17.95 -2.6 -18.05 -2.6 Q-18.6 -2.6 -19.0 -3.65 -19.15 -4.0 -19.2 -4.35 L-19.3 -4.35 -19.85 -4.4 -20.2 -4.85 Q-20.4 -5.05 -20.4 -5.2 -20.4 -5.35 -20.35 -5.45 L-20.25 -5.55 Q-20.65 -5.6 -21.1 -5.75 -21.7 -5.95 -22.45 -6.35 L-22.7 -6.5 -22.85 -6.6 -22.9 -6.6 -22.95 -6.65 -23.0 -6.7 -23.2 -6.8 -23.4 -6.95 -23.3 -6.95 -22.8 -6.7 -22.45 -6.5 -22.35 -6.45 Q-21.9 -6.2 -20.65 -6.1 L-20.45 -6.05 -20.3 -6.05 Q-20.15 -6.1 -20.1 -6.25 L-20.0 -6.35 Q-19.75 -6.5 -19.75 -6.55 L-19.75 -6.6 -19.7 -6.6 -19.35 -6.65 -19.15 -6.6 -19.1 -6.6 Q-18.65 -6.6 -18.3 -6.45 -17.95 -6.25 -17.95 -6.05 L-17.95 -6.0 Q-17.95 -5.9 -18.05 -5.8 -18.15 -6.25 -18.9 -6.35 -19.25 -6.35 -19.5 -6.25 -19.75 -6.1 -19.75 -5.9 L-19.4 -5.8 -19.55 -5.65 -19.9 -5.65 Q-20.2 -5.6 -20.2 -5.35 -20.2 -5.15 -19.7 -5.0 -19.1 -4.85 -19.0 -4.45 L-18.9 -3.9 Q-18.8 -3.5 -18.45 -3.5 L-18.4 -3.5 Q-18.25 -3.4 -18.0 -3.4 L-17.85 -3.2 -17.7 -3.05 -17.6 -2.9 -17.6 -2.75 -17.75 -2.65" fill="#990000" fill-rule="evenodd" stroke="none"/>
    <path d="M-18.45 -5.0 L-18.35 -4.8 Q-18.3 -4.7 -18.3 -4.55 L-18.35 -4.6 Q-18.8 -5.0 -18.8 -4.25 -18.8 -4.05 -18.7 -3.8 -18.6 -3.6 -18.4 -3.5 L-18.45 -3.5 Q-18.8 -3.5 -18.9 -3.9 L-19.0 -4.45 Q-19.1 -4.85 -19.7 -5.0 -20.2 -5.15 -20.2 -5.35 -20.2 -5.6 -19.9 -5.65 L-19.55 -5.65 -19.5 -5.6 -19.25 -5.55 Q-18.65 -5.3 -18.45 -5.0" fill="#530000" fill-rule="evenodd" stroke="none"/>
  </g>
</svg>
