<?xml version="1.0" encoding="UTF-8" standalone="no"?>
<svg xmlns:ffdec="https://www.free-decompiler.com/flash" xmlns:xlink="http://www.w3.org/1999/xlink" ffdec:objectType="shape" height="12.1px" width="11.15px" xmlns="http://www.w3.org/2000/svg">
  <g transform="matrix(1.0, 0.0, 0.0, 1.0, 5.4, 12.0)">
    <path d="M0.5 -11.3 Q-0.4 -11.1 -0.8 -10.6 L-0.8 -9.55 -0.55 -9.5 Q-0.5 -9.8 -0.3 -9.6 L-0.15 -9.45 1.35 -9.2 Q3.55 -8.9 4.85 -8.85 4.75 -9.95 4.0 -10.65 3.35 -11.2 2.35 -11.4 1.4 -11.55 0.5 -11.3 M0.0 -9.0 L0.05 -8.65 0.1 -8.15 0.25 -8.3 Q0.65 -8.75 0.85 -8.8 L0.9 -8.75 Q0.95 -8.75 0.95 -8.65 0.95 -8.6 0.55 -8.2 L0.25 -7.9 0.35 -7.75 Q0.55 -7.55 0.6 -7.3 L0.45 -7.25 0.15 -7.5 0.15 -7.35 0.1 -6.5 0.2 -6.6 Q0.6 -6.9 0.75 -6.85 L0.8 -6.75 Q0.7 -6.6 0.35 -6.3 L0.25 -6.25 0.9 -5.3 0.85 -5.25 0.75 -5.25 Q0.5 -5.25 0.15 -5.8 L0.1 -5.95 0.05 -5.7 0.05 -5.4 0.0 -5.15 Q0.0 -5.05 -0.15 -4.85 L-0.2 -4.8 0.25 -4.5 0.55 -4.2 0.9 -4.6 Q1.35 -5.1 1.35 -5.3 L1.25 -6.0 1.15 -6.8 Q1.0 -7.6 1.0 -8.1 1.0 -8.25 1.1 -8.6 L1.2 -8.8 1.15 -8.85 0.45 -8.95 0.0 -9.0 M1.35 -7.15 L1.4 -6.7 Q1.4 -6.5 1.55 -6.2 1.65 -5.95 1.65 -5.6 1.65 -4.2 0.9 -4.0 L0.75 -4.0 1.15 -3.55 Q1.75 -2.75 1.95 -1.9 L1.95 -1.85 2.1 -1.85 3.45 -1.95 3.4 -2.15 Q3.35 -2.4 3.3 -2.65 3.3 -3.2 3.75 -4.05 4.05 -4.65 4.4 -4.95 4.25 -5.1 4.15 -5.5 L4.0 -6.0 4.0 -6.65 Q4.05 -7.1 4.15 -7.6 L4.25 -8.05 4.3 -8.2 4.3 -8.3 4.35 -8.3 4.4 -8.35 4.4 -8.4 4.35 -8.4 4.15 -8.45 2.3 -8.7 1.5 -8.8 1.45 -8.45 Q1.3 -7.95 1.3 -7.55 L1.35 -7.15 M-5.25 -0.5 L-5.25 -1.1 -5.35 -1.25 -5.4 -1.4 Q-5.4 -2.2 -5.35 -2.5 -5.2 -3.15 -4.65 -3.45 -4.4 -3.65 -3.25 -3.85 L-2.9 -3.9 -2.3 -4.1 -1.15 -4.5 -0.6 -4.75 Q-0.6 -4.95 -0.6 -5.15 -0.45 -5.5 -0.4 -6.05 -0.25 -6.9 -0.25 -7.3 -0.25 -8.4 -0.75 -8.9 L-0.8 -9.2 -0.85 -9.2 -1.2 -9.15 -1.35 -10.5 Q-1.35 -11.3 -0.3 -11.75 0.7 -12.1 2.05 -11.95 3.45 -11.8 4.4 -11.1 5.45 -10.25 5.45 -9.0 L5.45 -8.55 Q5.45 -8.4 5.35 -8.3 L5.3 -8.35 4.75 -8.4 4.7 -8.35 4.5 -7.65 Q4.35 -6.95 4.35 -6.2 4.4 -5.95 4.5 -5.7 L4.7 -5.55 Q5.15 -5.15 5.4 -4.65 L5.45 -4.55 Q5.65 -4.25 5.7 -3.95 5.75 -3.75 5.75 -3.6 5.75 -2.8 5.4 -2.15 L5.25 -1.9 5.25 -1.85 5.2 -1.7 5.15 -1.6 5.05 -1.45 Q4.85 -0.85 4.8 -0.65 L4.8 -0.55 Q4.8 -0.45 4.25 -0.35 3.7 -0.2 3.05 -0.2 L2.75 -0.25 2.65 -0.2 2.6 -0.25 2.45 -0.3 2.35 -0.3 2.35 -0.35 2.3 -0.35 2.1 -1.15 2.0 -1.45 1.95 -1.45 Q0.9 -1.2 0.25 -0.9 -0.35 -0.6 -1.0 -0.05 L-1.05 -0.05 -1.2 0.1 -1.3 0.05 -1.3 0.0 -1.8 0.0 Q-2.9 0.0 -4.1 0.0 L-5.15 0.0 -5.2 -0.45 -5.25 -0.5 M4.65 -4.65 L4.35 -4.25 Q3.7 -3.4 3.7 -2.6 3.7 -2.3 3.8 -2.15 L3.9 -2.0 4.85 -2.0 5.0 -2.3 Q5.3 -2.95 5.35 -3.25 5.3 -3.5 4.85 -4.35 L4.65 -4.65 M0.9 -3.05 Q0.55 -3.5 -0.55 -4.4 L-0.8 -4.25 Q-1.2 -4.05 -1.8 -3.8 -2.8 -3.45 -3.6 -3.35 L-3.85 -3.25 Q-4.8 -3.05 -5.0 -2.35 -5.05 -2.15 -5.05 -1.8 L-5.05 -1.45 -4.75 -1.75 -4.85 -1.6 -4.85 -1.3 -4.45 -1.3 -2.35 -1.15 -0.6 -1.0 Q-0.35 -1.2 0.15 -1.45 0.8 -1.8 1.4 -1.85 1.2 -2.65 0.9 -3.05 M0.8 -1.3 L0.3 -1.1 -0.15 -0.9 -0.15 -0.85 Q0.2 -1.05 0.65 -1.25 L0.8 -1.3 M-3.75 -2.85 L-4.15 -2.55 Q-3.85 -2.8 -3.65 -2.95 L-3.75 -2.85" fill="#111111" fill-rule="evenodd" stroke="none"/>
    <path d="M1.35 -7.15 L1.3 -7.55 Q1.3 -7.95 1.45 -8.45 L1.5 -8.8 2.3 -8.7 4.15 -8.45 4.35 -8.4 4.4 -8.4 4.4 -8.35 4.35 -8.3 4.3 -8.3 4.3 -8.2 4.25 -8.05 4.15 -7.6 Q4.05 -7.1 4.0 -6.65 L4.0 -6.0 4.15 -5.5 Q4.25 -5.1 4.4 -4.95 4.05 -4.65 3.75 -4.05 3.3 -3.2 3.3 -2.65 3.35 -2.4 3.4 -2.15 L3.45 -1.95 2.1 -1.85 1.95 -1.85 1.95 -1.9 Q1.75 -2.75 1.15 -3.55 L0.75 -4.0 0.9 -4.0 Q1.65 -4.2 1.65 -5.6 1.65 -5.95 1.55 -6.2 1.4 -6.5 1.4 -6.7 L1.35 -7.15 M5.2 -1.7 L5.1 -1.55 5.05 -1.45 5.15 -1.6 5.2 -1.7" fill="#403020" fill-rule="evenodd" stroke="none"/>
    <path d="M0.5 -11.3 Q1.4 -11.55 2.35 -11.4 3.35 -11.2 4.0 -10.65 4.75 -9.95 4.85 -8.85 3.55 -8.9 1.35 -9.2 L-0.15 -9.45 -0.3 -9.6 Q-0.5 -9.8 -0.55 -9.5 L-0.8 -9.55 -0.8 -10.6 Q-0.4 -11.1 0.5 -11.3 M-5.2 -0.45 L-5.25 -0.5 -5.2 -0.45 M0.8 -1.3 L0.65 -1.25 Q0.2 -1.05 -0.15 -0.85 L-0.15 -0.9 0.3 -1.1 0.8 -1.3 M0.9 -3.05 Q1.2 -2.65 1.4 -1.85 0.8 -1.8 0.15 -1.45 -0.35 -1.2 -0.6 -1.0 L-2.35 -1.15 -4.45 -1.3 -4.85 -1.3 -4.85 -1.6 -4.75 -1.75 -5.05 -1.45 -5.05 -1.8 Q-5.05 -2.15 -5.0 -2.35 -4.8 -3.05 -3.85 -3.25 L-3.6 -3.35 Q-2.8 -3.45 -1.8 -3.8 -1.2 -4.05 -0.8 -4.25 L-0.55 -4.4 Q0.55 -3.5 0.9 -3.05 M4.65 -4.65 L4.85 -4.35 Q5.3 -3.5 5.35 -3.25 5.3 -2.95 5.0 -2.3 L4.85 -2.0 3.9 -2.0 3.8 -2.15 Q3.7 -2.3 3.7 -2.6 3.7 -3.4 4.35 -4.25 L4.65 -4.65 M-3.75 -2.85 L-3.65 -2.95 Q-3.85 -2.8 -4.15 -2.55 L-3.75 -2.85" fill="#302010" fill-rule="evenodd" stroke="none"/>
    <path d="M0.0 -9.0 L0.45 -8.95 1.15 -8.85 1.2 -8.8 1.1 -8.6 Q1.0 -8.25 1.0 -8.1 1.0 -7.6 1.15 -6.8 L1.25 -6.0 1.35 -5.3 Q1.35 -5.1 0.9 -4.6 L0.55 -4.2 0.25 -4.5 -0.2 -4.8 -0.15 -4.85 Q0.0 -5.05 0.0 -5.15 L0.05 -5.4 0.05 -5.7 0.1 -5.95 0.15 -5.8 Q0.5 -5.25 0.75 -5.25 L0.85 -5.25 0.9 -5.3 0.25 -6.25 0.35 -6.3 Q0.7 -6.6 0.8 -6.75 L0.75 -6.85 Q0.6 -6.9 0.2 -6.6 L0.1 -6.5 0.15 -7.35 0.15 -7.5 0.45 -7.25 0.6 -7.3 Q0.55 -7.55 0.35 -7.75 L0.25 -7.9 0.55 -8.2 Q0.95 -8.6 0.95 -8.65 0.95 -8.75 0.9 -8.75 L0.85 -8.8 Q0.65 -8.75 0.25 -8.3 L0.1 -8.15 0.05 -8.65 0.0 -9.0" fill="#b00000" fill-rule="evenodd" stroke="none"/>
  </g>
</svg>
