<?xml version="1.0" encoding="UTF-8" standalone="no"?>
<svg xmlns:ffdec="https://www.free-decompiler.com/flash" xmlns:xlink="http://www.w3.org/1999/xlink" ffdec:objectType="shape" height="27.9px" width="16.7px" xmlns="http://www.w3.org/2000/svg">
  <g transform="matrix(1.0, 0.0, 0.0, 1.0, -6.85, 30.2)">
    <path d="M17.8 -28.85 L16.65 -28.95 16.5 -28.9 Q15.65 -28.9 15.2 -28.7 15.0 -28.6 14.9 -28.5 L14.7 -28.3 14.4 -28.05 14.2 -27.85 14.1 -27.8 14.15 -27.8 14.15 -27.7 15.0 -27.6 15.15 -27.55 15.25 -27.6 18.1 -27.3 19.25 -27.1 Q19.8 -27.0 20.15 -26.85 20.2 -26.9 20.2 -27.0 20.2 -27.1 19.95 -27.25 L19.95 -27.3 Q19.95 -27.45 19.8 -27.55 19.35 -28.3 18.45 -28.65 L18.35 -28.7 17.8 -28.85 M15.55 -29.2 Q16.1 -29.35 16.65 -29.4 16.65 -29.7 16.95 -29.95 17.25 -30.15 17.65 -30.2 18.1 -30.2 18.4 -30.0 18.7 -29.7 18.7 -29.1 L18.7 -29.05 Q19.4 -28.65 20.05 -27.95 20.9 -27.05 20.9 -26.55 L21.2 -26.4 Q21.6 -26.15 21.6 -25.95 21.6 -25.8 21.25 -25.2 20.95 -24.7 20.7 -24.4 L20.7 -24.35 21.15 -22.75 Q21.3 -22.2 21.3 -21.9 L21.3 -19.9 Q21.3 -19.45 21.1 -17.65 L21.05 -17.15 22.35 -17.05 Q23.55 -16.45 23.55 -14.75 23.55 -14.15 23.15 -13.55 22.55 -12.65 21.15 -12.65 L20.5 -12.7 20.5 -12.5 20.45 -12.45 Q20.7 -12.4 20.85 -12.3 21.0 -12.15 21.15 -11.85 22.1 -10.45 22.3 -9.8 L22.35 -9.75 Q22.55 -9.15 22.55 -8.0 22.6 -7.5 22.45 -7.05 22.25 -6.45 21.8 -6.3 21.7 -6.25 21.45 -6.25 20.45 -6.2 19.75 -6.0 19.15 -5.85 18.8 -5.6 L18.2 -5.2 16.75 -3.9 16.65 -3.75 Q16.2 -3.45 15.6 -3.1 15.15 -2.85 14.65 -2.65 L14.1 -2.55 Q13.3 -2.3 12.45 -2.3 10.4 -2.3 8.95 -3.25 7.85 -4.0 7.8 -4.65 7.7 -4.8 7.6 -5.1 L7.4 -5.6 Q6.85 -7.1 6.85 -7.8 L6.85 -8.0 Q6.85 -8.15 6.9 -8.35 L6.9 -8.4 Q6.9 -8.8 7.1 -9.25 7.15 -9.45 7.35 -9.75 7.55 -10.2 7.95 -10.8 8.5 -11.55 8.7 -11.45 8.8 -11.5 8.85 -11.5 L9.0 -11.45 9.05 -11.6 Q9.15 -11.85 9.15 -12.0 L9.1 -12.5 9.0 -13.65 Q8.9 -15.35 8.9 -15.7 8.9 -16.65 8.95 -17.5 L8.85 -17.65 Q8.65 -18.0 8.65 -18.4 8.65 -19.1 9.05 -19.5 L9.25 -19.6 Q9.55 -21.35 10.25 -22.55 L10.4 -22.85 Q11.05 -23.95 12.0 -24.65 L12.55 -25.2 Q12.85 -25.5 13.15 -25.7 13.05 -25.9 12.95 -26.35 12.85 -26.75 12.85 -27.2 L12.8 -27.5 Q12.85 -27.6 12.95 -27.65 L13.0 -27.65 13.1 -27.7 13.4 -27.75 13.55 -27.85 Q13.55 -28.05 13.85 -28.3 14.2 -28.65 14.65 -28.85 15.0 -29.05 15.55 -29.2 M17.05 -29.4 L18.15 -29.25 Q18.0 -29.7 17.75 -29.7 17.25 -29.7 17.05 -29.5 L17.05 -29.4 M17.95 -24.95 Q19.35 -24.75 19.85 -24.75 20.0 -24.75 20.05 -24.8 20.35 -24.85 20.35 -25.15 L20.45 -25.3 20.65 -25.8 Q20.65 -25.95 20.35 -26.2 L19.85 -26.4 18.45 -26.8 16.9 -27.15 16.7 -27.15 15.1 -27.35 14.95 -27.35 13.7 -27.25 13.55 -27.25 13.6 -26.95 13.65 -26.4 Q13.7 -26.25 13.8 -26.1 L13.75 -26.05 Q13.75 -26.0 13.85 -25.95 L13.85 -25.85 Q13.85 -25.7 16.5 -25.2 L17.95 -24.95 M17.6 -11.85 Q18.85 -12.2 19.95 -12.4 L19.95 -12.95 19.75 -13.3 19.75 -13.5 19.85 -13.5 Q20.2 -13.3 20.7 -13.3 L21.0 -13.3 Q22.1 -13.3 22.55 -13.95 22.8 -14.35 22.8 -14.75 L22.75 -15.3 22.75 -15.35 Q22.6 -16.1 21.95 -16.4 21.75 -16.55 21.5 -16.6 21.3 -16.65 21.05 -16.65 L20.8 -16.65 Q20.55 -16.55 20.3 -16.3 L20.35 -16.5 20.2 -16.45 20.1 -16.4 19.95 -16.3 19.8 -16.15 Q19.6 -15.9 19.35 -15.45 L19.3 -15.45 19.5 -15.95 Q19.65 -16.4 19.9 -16.6 20.1 -16.85 20.45 -17.0 L20.55 -17.65 Q20.9 -19.75 20.9 -20.7 20.9 -21.85 20.7 -22.75 L20.2 -24.05 20.15 -24.15 20.05 -24.15 Q19.75 -24.45 18.85 -24.65 L18.7 -24.7 18.0 -24.85 17.85 -24.85 17.65 -24.9 15.45 -25.25 13.9 -25.15 13.8 -25.1 13.6 -25.15 Q12.1 -24.4 11.1 -22.9 11.3 -22.9 11.5 -22.8 L11.55 -22.75 Q11.7 -22.65 11.7 -22.55 11.7 -22.35 11.6 -22.35 L11.3 -22.35 10.65 -22.2 Q10.3 -21.5 10.05 -20.75 L9.75 -19.8 10.0 -19.85 Q10.55 -19.85 10.95 -19.5 11.25 -19.25 11.3 -18.9 11.55 -19.05 12.05 -18.95 12.55 -18.9 12.8 -18.75 12.9 -19.05 13.15 -19.3 13.55 -19.7 14.2 -19.65 14.8 -19.65 15.25 -19.3 15.7 -18.85 15.7 -18.2 15.7 -18.0 15.65 -17.75 L15.5 -17.4 Q15.2 -16.8 14.55 -16.8 13.75 -16.8 13.25 -17.1 L13.3 -16.7 13.35 -16.7 13.4 -16.65 Q13.65 -16.6 13.85 -16.5 L13.95 -16.4 Q14.25 -16.2 14.4 -15.85 L14.5 -15.7 14.5 -15.65 Q14.65 -15.45 14.7 -15.2 L14.7 -14.8 Q14.7 -14.5 14.6 -14.25 L14.5 -14.05 Q14.4 -13.9 14.3 -13.75 L14.35 -13.65 14.55 -13.4 14.6 -13.3 Q14.95 -12.8 14.95 -12.5 L14.95 -12.45 Q14.95 -12.2 14.85 -12.0 L14.8 -11.85 14.4 -11.65 14.35 -11.65 Q14.0 -11.65 13.75 -11.85 L13.5 -12.05 13.4 -11.65 Q13.35 -11.4 13.05 -11.4 12.8 -11.4 12.45 -11.65 12.3 -11.8 12.15 -11.9 L12.05 -11.65 Q11.95 -11.45 11.8 -11.45 11.5 -11.45 11.3 -11.65 L11.0 -11.95 10.85 -11.7 10.75 -11.6 10.6 -11.55 Q10.1 -11.55 9.9 -12.35 L9.9 -12.5 Q9.8 -12.85 9.8 -13.2 9.8 -13.5 9.9 -13.7 9.65 -13.8 9.55 -13.95 9.5 -14.05 9.45 -14.25 9.3 -14.45 9.3 -14.65 9.3 -13.85 9.45 -13.05 L9.55 -12.5 9.65 -11.6 Q9.65 -11.45 9.55 -11.3 L10.1 -11.1 10.55 -10.95 11.45 -10.9 11.95 -10.9 12.85 -10.95 13.15 -10.95 13.65 -11.05 14.05 -11.1 16.35 -11.55 17.3 -11.75 17.4 -11.8 17.6 -11.85 M21.85 -16.05 L21.9 -16.0 22.0 -15.85 21.95 -15.8 21.8 -16.0 Q21.4 -16.0 21.1 -15.7 L20.95 -15.4 Q21.3 -15.05 21.3 -14.7 L21.3 -14.4 Q21.25 -14.2 21.2 -14.05 21.0 -13.65 20.5 -13.55 L20.5 -13.6 20.45 -13.6 20.45 -13.65 20.4 -13.65 20.4 -13.75 20.6 -13.75 20.65 -13.85 20.75 -13.95 Q20.95 -14.25 20.95 -14.35 20.95 -14.45 20.75 -14.9 L20.75 -14.95 20.6 -15.2 Q20.45 -15.35 20.45 -15.4 20.45 -15.8 21.1 -16.05 21.6 -16.25 21.85 -16.05 M15.7 -22.25 Q15.7 -22.15 15.65 -22.1 15.6 -22.0 15.5 -22.0 15.05 -22.0 14.55 -22.2 14.1 -22.4 14.1 -22.5 14.1 -22.75 14.9 -22.7 15.7 -22.7 15.7 -22.25 M15.2 -18.2 Q15.2 -18.7 14.85 -18.95 14.6 -19.2 14.15 -19.15 13.75 -19.15 13.5 -18.85 13.15 -18.55 13.15 -18.1 13.15 -17.9 13.4 -17.6 13.7 -17.25 14.1 -17.25 14.8 -17.25 15.05 -17.75 15.2 -17.95 15.2 -18.2 M11.8 -18.5 Q11.35 -18.15 11.0 -17.85 L10.7 -17.25 10.4 -16.7 10.35 -16.35 10.25 -15.95 10.2 -15.55 Q10.2 -14.9 10.65 -14.2 10.85 -13.95 11.05 -13.75 L11.1 -13.75 Q11.45 -13.5 11.9 -13.45 12.1 -13.55 12.3 -13.7 L12.55 -13.85 13.1 -13.75 Q13.9 -13.75 14.2 -14.3 14.35 -14.55 14.35 -14.9 L14.3 -15.2 Q14.2 -15.75 13.45 -16.15 13.25 -16.25 13.1 -16.3 L13.05 -16.65 12.9 -17.15 12.9 -17.25 12.8 -17.55 Q12.7 -17.75 12.65 -17.95 L12.55 -18.15 12.45 -18.3 12.4 -18.3 12.1 -18.5 11.8 -18.5 M9.6 -19.1 Q9.3 -18.95 9.25 -18.7 9.2 -18.6 9.2 -18.5 9.2 -18.3 9.25 -18.1 9.3 -17.9 9.45 -17.8 9.7 -17.5 10.0 -17.5 10.1 -17.5 10.2 -17.6 10.3 -17.65 10.4 -17.65 L10.65 -18.05 10.8 -18.2 11.05 -18.4 11.05 -18.5 Q11.05 -18.75 10.8 -19.0 10.5 -19.35 10.2 -19.35 9.85 -19.35 9.6 -19.15 L9.6 -19.1 M9.8 -16.45 L10.0 -16.95 9.55 -17.0 Q9.4 -17.05 9.3 -17.15 L9.25 -15.45 9.25 -14.8 Q9.3 -15.05 9.3 -15.3 9.35 -15.7 9.4 -15.9 9.5 -16.2 9.75 -16.3 L9.8 -16.45 M10.05 -15.8 Q9.65 -15.4 9.65 -14.9 9.65 -14.7 9.65 -14.55 L9.7 -14.5 Q9.95 -14.2 10.8 -13.85 10.55 -14.1 10.35 -14.35 10.1 -14.9 10.1 -15.55 L10.1 -15.75 10.05 -15.8 M10.25 -13.6 L10.2 -12.8 Q10.2 -12.75 10.3 -12.5 10.45 -12.15 10.5 -12.1 L10.7 -12.5 Q10.85 -12.8 10.95 -12.8 11.05 -12.8 11.15 -12.5 L11.2 -12.35 Q11.3 -11.9 11.55 -11.9 11.65 -11.9 11.8 -12.3 L11.9 -12.5 Q12.0 -12.65 12.1 -12.65 12.25 -12.65 12.4 -12.5 L12.5 -12.35 Q12.75 -11.95 12.95 -11.9 L13.05 -12.4 13.1 -12.5 Q13.2 -12.8 13.3 -12.8 13.4 -12.8 13.75 -12.5 L13.75 -12.45 Q14.15 -12.1 14.35 -12.1 14.5 -12.1 14.55 -12.25 L14.55 -12.45 14.5 -12.5 14.0 -13.55 Q13.65 -13.4 13.25 -13.4 L12.95 -13.45 12.5 -13.2 Q12.15 -13.05 12.05 -13.05 11.6 -13.05 11.2 -13.25 10.7 -13.5 10.5 -13.55 L10.25 -13.6 M19.3 -11.65 L17.2 -11.15 Q13.95 -10.45 12.1 -10.45 L11.15 -10.45 Q10.2 -10.45 9.55 -10.75 L9.5 -10.8 9.3 -10.85 8.95 -10.9 Q8.85 -10.9 8.7 -10.75 L8.15 -9.85 8.1 -9.75 Q7.45 -8.75 7.45 -8.25 L7.45 -8.05 Q7.5 -7.55 7.75 -6.35 L7.8 -6.25 8.15 -4.85 8.3 -4.65 Q8.55 -4.2 8.8 -3.95 9.85 -2.85 12.15 -2.85 13.85 -2.85 15.75 -3.9 16.4 -4.2 16.95 -4.6 L17.65 -5.25 Q18.1 -5.65 18.8 -5.95 L19.35 -6.25 19.85 -6.35 20.0 -6.4 Q20.6 -6.55 21.3 -6.7 21.5 -6.75 21.65 -6.95 21.75 -7.1 21.75 -7.25 L21.75 -7.3 Q21.85 -7.5 21.9 -7.95 21.95 -8.4 21.95 -8.85 L21.65 -9.75 Q21.4 -10.5 21.2 -10.95 20.75 -11.9 20.35 -11.9 L19.3 -11.65" fill="#111111" fill-rule="evenodd" stroke="none"/>
    <path d="M18.1 -27.3 L15.25 -27.6 15.15 -27.55 15.0 -27.6 14.15 -27.7 14.15 -27.8 14.1 -27.8 14.2 -27.85 14.4 -28.05 14.7 -28.3 14.9 -28.5 Q15.0 -28.6 15.2 -28.7 15.65 -28.9 16.5 -28.9 L16.65 -28.95 17.8 -28.85 17.9 -28.55 Q18.05 -28.1 18.05 -27.65 L18.0 -27.35 18.1 -27.3 M7.45 -8.05 L7.45 -8.25 Q7.45 -8.75 8.1 -9.75 L8.15 -9.85 8.7 -10.75 Q8.85 -10.9 8.95 -10.9 L9.3 -10.85 9.5 -10.8 9.55 -10.75 Q10.2 -10.45 11.15 -10.45 L12.1 -10.45 Q13.95 -10.45 17.2 -11.15 L19.3 -11.65 Q19.4 -11.15 19.4 -10.7 L19.4 -9.95 Q19.4 -9.85 19.35 -9.75 L19.2 -9.65 18.4 -9.3 Q17.6 -8.95 16.65 -8.35 15.7 -7.75 14.1 -7.2 12.65 -6.7 11.55 -6.55 L9.85 -6.55 Q8.55 -6.9 7.45 -8.05" fill="#b00000" fill-rule="evenodd" stroke="none"/>
    <path d="M15.2 -18.2 Q15.2 -17.95 15.05 -17.75 14.8 -17.25 14.1 -17.25 13.7 -17.25 13.4 -17.6 13.15 -17.9 13.15 -18.1 13.15 -18.55 13.5 -18.85 13.75 -19.15 14.15 -19.15 14.6 -19.2 14.85 -18.95 15.2 -18.7 15.2 -18.2 M9.6 -19.1 L9.6 -19.15 Q9.85 -19.35 10.2 -19.35 10.5 -19.35 10.8 -19.0 11.05 -18.75 11.05 -18.5 L11.05 -18.4 10.8 -18.2 10.65 -18.05 10.4 -17.65 Q10.3 -17.65 10.2 -17.6 10.1 -17.5 10.0 -17.5 9.7 -17.5 9.45 -17.8 9.3 -17.9 9.25 -18.1 9.2 -18.3 9.2 -18.5 9.2 -18.6 9.25 -18.7 9.3 -18.95 9.6 -19.1" fill="#ffffff" fill-rule="evenodd" stroke="none"/>
    <path d="M17.8 -28.85 L18.35 -28.7 18.45 -28.65 Q19.35 -28.3 19.8 -27.55 19.95 -27.45 19.95 -27.3 L19.95 -27.25 Q20.2 -27.1 20.2 -27.0 20.2 -26.9 20.15 -26.85 19.8 -27.0 19.25 -27.1 L18.1 -27.3 18.0 -27.35 18.05 -27.65 Q18.05 -28.1 17.9 -28.55 L17.8 -28.85 M7.45 -8.05 Q8.55 -6.9 9.85 -6.55 L11.55 -6.55 Q12.65 -6.7 14.1 -7.2 15.7 -7.75 16.65 -8.35 17.6 -8.95 18.4 -9.3 L19.2 -9.65 19.35 -9.75 Q19.4 -9.85 19.4 -9.95 L19.4 -10.7 Q19.4 -11.15 19.3 -11.65 L20.35 -11.9 Q20.75 -11.9 21.2 -10.95 21.4 -10.5 21.65 -9.75 L21.95 -8.85 Q21.95 -8.4 21.9 -7.95 21.85 -7.5 21.75 -7.3 L21.75 -7.25 Q21.75 -7.1 21.65 -6.95 21.5 -6.75 21.3 -6.7 20.6 -6.55 20.0 -6.4 L19.85 -6.35 19.35 -6.25 18.8 -5.95 Q18.1 -5.65 17.65 -5.25 L16.95 -4.6 Q16.4 -4.2 15.75 -3.9 13.85 -2.85 12.15 -2.85 9.85 -2.85 8.8 -3.95 8.55 -4.2 8.3 -4.65 L8.15 -4.85 7.8 -6.25 7.75 -6.35 Q7.5 -7.55 7.45 -8.05" fill="#600000" fill-rule="evenodd" stroke="none"/>
    <path d="M17.65 -24.9 L17.7 -24.75 Q17.85 -24.55 17.95 -24.3 L18.4 -23.0 Q18.6 -22.15 18.65 -21.6 L18.65 -20.4 Q18.65 -19.0 18.35 -17.35 17.95 -15.0 17.85 -14.0 L17.6 -11.85 17.4 -11.8 17.3 -11.75 16.35 -11.55 14.05 -11.1 13.65 -11.05 13.85 -11.15 Q14.45 -11.1 14.7 -11.5 14.85 -11.7 14.85 -11.95 L14.8 -11.85 14.85 -12.0 Q14.95 -12.2 14.95 -12.45 L14.95 -12.5 Q14.95 -12.8 14.6 -13.3 14.6 -13.45 14.7 -13.7 14.7 -14.0 14.6 -14.25 14.7 -14.5 14.7 -14.8 L14.7 -15.2 Q14.65 -15.45 14.5 -15.65 L14.5 -15.7 14.4 -15.85 Q14.25 -16.2 13.95 -16.4 L14.2 -16.4 Q15.15 -16.4 15.5 -17.0 15.65 -17.3 15.65 -17.75 15.7 -18.0 15.7 -18.2 15.7 -18.85 15.25 -19.3 14.8 -19.65 14.2 -19.65 13.55 -19.7 13.15 -19.3 12.9 -19.05 12.8 -18.75 12.55 -18.9 12.05 -18.95 11.55 -19.05 11.3 -18.9 11.25 -19.25 10.95 -19.5 10.55 -19.85 10.0 -19.85 L9.75 -19.8 10.05 -20.75 Q10.3 -21.5 10.65 -22.2 L11.3 -22.35 11.6 -22.35 Q11.7 -22.35 11.7 -22.55 11.7 -22.65 11.55 -22.75 L11.5 -22.8 Q11.3 -22.9 11.1 -22.9 12.1 -24.4 13.6 -25.15 L13.8 -25.1 13.9 -25.15 15.45 -25.25 17.65 -24.9 M21.95 -16.4 L21.9 -16.45 21.9 -16.05 21.85 -16.05 Q21.6 -16.25 21.1 -16.05 20.45 -15.8 20.45 -15.4 20.45 -15.35 20.6 -15.2 L20.75 -14.95 20.7 -14.9 Q20.6 -14.65 20.2 -14.5 L20.0 -14.9 Q19.75 -15.3 19.75 -15.4 19.75 -15.9 20.2 -16.45 L20.35 -16.5 20.3 -16.3 Q20.55 -16.55 20.8 -16.65 L21.05 -16.65 Q21.3 -16.65 21.5 -16.6 21.75 -16.55 21.95 -16.4 M20.4 -13.75 L20.45 -13.75 20.65 -13.85 20.6 -13.75 20.4 -13.75 M15.7 -22.25 Q15.7 -22.7 14.9 -22.7 14.1 -22.75 14.1 -22.5 14.1 -22.4 14.55 -22.2 15.05 -22.0 15.5 -22.0 15.6 -22.0 15.65 -22.1 15.7 -22.15 15.7 -22.25 M9.8 -16.45 L9.75 -16.3 Q9.5 -16.2 9.4 -15.9 9.35 -15.7 9.3 -15.3 9.3 -15.05 9.25 -14.8 L9.25 -15.45 9.3 -17.15 Q9.4 -17.05 9.55 -17.0 L9.55 -16.85 Q9.6 -16.7 9.75 -16.5 L9.8 -16.45 M11.45 -10.9 L10.55 -10.95 10.1 -11.1 9.55 -11.3 Q9.65 -11.45 9.65 -11.6 L9.55 -12.5 9.45 -13.05 Q9.3 -13.85 9.3 -14.65 9.3 -14.45 9.45 -14.25 9.5 -14.05 9.55 -13.95 9.65 -13.8 9.9 -13.7 9.8 -13.5 9.8 -13.2 9.8 -12.85 9.9 -12.5 L9.9 -12.35 Q10.1 -11.55 10.6 -11.55 L10.75 -11.6 Q11.1 -11.05 11.45 -10.9 M11.95 -10.9 L12.35 -11.05 12.85 -10.95 11.95 -10.9" fill="#c7a36d" fill-rule="evenodd" stroke="none"/>
    <path d="M17.6 -11.85 L17.85 -14.0 Q17.95 -15.0 18.35 -17.35 18.65 -19.0 18.65 -20.4 L18.65 -21.6 Q18.6 -22.15 18.4 -23.0 L17.95 -24.3 Q17.85 -24.55 17.7 -24.75 L17.65 -24.9 17.85 -24.85 18.0 -24.85 18.7 -24.7 18.85 -24.65 Q19.75 -24.45 20.05 -24.15 L20.15 -24.15 20.2 -24.05 20.7 -22.75 Q20.9 -21.85 20.9 -20.7 20.9 -19.75 20.55 -17.65 L20.45 -17.0 Q20.1 -16.85 19.9 -16.6 19.65 -16.4 19.5 -15.95 L19.3 -15.45 19.35 -15.45 Q19.6 -15.9 19.8 -16.15 L19.95 -16.3 20.1 -16.4 20.2 -16.45 Q19.75 -15.9 19.75 -15.4 19.75 -15.3 20.0 -14.9 L20.2 -14.5 Q20.6 -14.65 20.7 -14.9 L20.75 -14.95 20.75 -14.9 Q20.95 -14.45 20.95 -14.35 20.95 -14.25 20.75 -13.95 L20.65 -13.85 20.45 -13.75 20.4 -13.75 20.4 -13.65 20.45 -13.65 20.45 -13.6 20.5 -13.6 20.5 -13.55 Q21.0 -13.65 21.2 -14.05 21.25 -14.2 21.3 -14.4 L21.3 -14.7 Q21.3 -15.05 20.95 -15.4 L21.1 -15.7 Q21.4 -16.0 21.8 -16.0 L21.95 -15.8 22.0 -15.85 21.9 -16.0 21.85 -16.05 21.9 -16.05 21.9 -16.45 21.95 -16.4 Q22.6 -16.1 22.75 -15.35 L22.75 -15.3 22.8 -14.75 Q22.8 -14.35 22.55 -13.95 22.1 -13.3 21.0 -13.3 L20.7 -13.3 Q20.2 -13.3 19.85 -13.5 L19.75 -13.5 19.75 -13.3 19.95 -12.95 19.95 -12.4 Q18.85 -12.2 17.6 -11.85 M15.65 -17.75 Q15.65 -17.3 15.5 -17.0 15.15 -16.4 14.2 -16.4 L13.95 -16.4 13.85 -16.5 Q13.65 -16.6 13.4 -16.65 L13.35 -16.7 13.3 -16.7 13.25 -17.1 Q13.75 -16.8 14.55 -16.8 15.2 -16.8 15.5 -17.4 L15.65 -17.75 M14.6 -14.25 Q14.7 -14.0 14.7 -13.7 14.6 -13.45 14.6 -13.3 L14.55 -13.4 14.35 -13.65 14.3 -13.75 Q14.4 -13.9 14.5 -14.05 L14.6 -14.25 M14.8 -11.85 L14.85 -11.95 Q14.85 -11.7 14.7 -11.5 14.45 -11.1 13.85 -11.15 L13.65 -11.05 13.15 -10.95 12.85 -10.95 12.35 -11.05 11.95 -10.9 11.45 -10.9 Q11.1 -11.05 10.75 -11.6 L10.85 -11.7 11.0 -11.95 11.3 -11.65 Q11.5 -11.45 11.8 -11.45 11.95 -11.45 12.05 -11.65 L12.15 -11.9 Q12.3 -11.8 12.45 -11.65 12.8 -11.4 13.05 -11.4 13.35 -11.4 13.4 -11.65 L13.5 -12.05 13.75 -11.85 Q14.0 -11.65 14.35 -11.65 L14.4 -11.65 14.8 -11.85 M11.8 -18.5 L12.1 -18.5 12.4 -18.3 12.45 -18.3 12.55 -18.15 12.65 -17.95 Q12.7 -17.75 12.8 -17.55 L12.9 -17.25 12.9 -17.15 13.05 -16.65 13.1 -16.3 Q13.25 -16.25 13.45 -16.15 14.2 -15.75 14.3 -15.2 L14.35 -14.9 Q14.35 -14.55 14.2 -14.3 13.9 -13.75 13.1 -13.75 L12.55 -13.85 12.3 -13.7 Q12.1 -13.55 11.9 -13.45 11.45 -13.5 11.1 -13.75 L11.05 -13.75 Q10.85 -13.95 10.65 -14.2 10.2 -14.9 10.2 -15.55 L10.25 -15.95 10.35 -16.35 10.4 -16.7 10.7 -17.25 11.0 -17.85 Q11.35 -18.15 11.8 -18.5 M9.55 -17.0 L10.0 -16.95 9.8 -16.45 9.75 -16.5 Q9.6 -16.7 9.55 -16.85 L9.55 -17.0 M10.05 -15.8 L10.1 -15.75 10.1 -15.55 Q10.1 -14.9 10.35 -14.35 10.55 -14.1 10.8 -13.85 9.95 -14.2 9.7 -14.5 L9.65 -14.55 Q9.65 -14.7 9.65 -14.9 9.65 -15.4 10.05 -15.8" fill="#a9854f" fill-rule="evenodd" stroke="none"/>
    <path d="M10.25 -13.6 L10.5 -13.55 Q10.7 -13.5 11.2 -13.25 11.6 -13.05 12.05 -13.05 12.15 -13.05 12.5 -13.2 L12.95 -13.45 13.25 -13.4 Q13.65 -13.4 14.0 -13.55 L14.5 -12.5 14.55 -12.45 14.55 -12.25 Q14.5 -12.1 14.35 -12.1 14.15 -12.1 13.75 -12.45 L13.75 -12.5 Q13.4 -12.8 13.3 -12.8 13.2 -12.8 13.1 -12.5 L13.05 -12.4 12.95 -11.9 Q12.75 -11.95 12.5 -12.35 L12.4 -12.5 Q12.25 -12.65 12.1 -12.65 12.0 -12.65 11.9 -12.5 L11.8 -12.3 Q11.65 -11.9 11.55 -11.9 11.3 -11.9 11.2 -12.35 L11.15 -12.5 Q11.05 -12.8 10.95 -12.8 10.85 -12.8 10.7 -12.5 L10.5 -12.1 Q10.45 -12.15 10.3 -12.5 10.2 -12.75 10.2 -12.8 L10.25 -13.6" fill="#003060" fill-rule="evenodd" stroke="none"/>
    <path d="M17.05 -29.4 L17.05 -29.5 Q17.25 -29.7 17.75 -29.7 18.0 -29.7 18.15 -29.25 L17.05 -29.4 M18.45 -26.8 Q18.2 -26.1 17.95 -24.95 L16.5 -25.2 Q13.85 -25.7 13.85 -25.85 L13.85 -25.95 Q13.75 -26.0 13.75 -26.05 L13.8 -26.1 Q13.7 -26.25 13.65 -26.4 L13.6 -26.95 13.55 -27.25 13.7 -27.25 14.95 -27.35 15.1 -27.35 16.7 -27.15 16.9 -27.15 18.45 -26.8" fill="#9c9581" fill-rule="evenodd" stroke="none"/>
    <path d="M18.45 -26.8 L19.85 -26.4 20.35 -26.2 Q20.65 -25.95 20.65 -25.8 L20.45 -25.3 20.35 -25.15 Q20.35 -24.85 20.05 -24.8 20.0 -24.75 19.85 -24.75 19.35 -24.75 17.95 -24.95 18.2 -26.1 18.45 -26.8" fill="#666154" fill-rule="evenodd" stroke="none"/>
  </g>
</svg>
