<?xml version="1.0" encoding="UTF-8" standalone="no"?>
<svg xmlns:ffdec="https://www.free-decompiler.com/flash" xmlns:xlink="http://www.w3.org/1999/xlink" ffdec:objectType="shape" height="18.55px" width="17.95px" xmlns="http://www.w3.org/2000/svg">
  <g transform="matrix(1.0, 0.0, 0.0, 1.0, -3.15, 21.2)">
    <path d="M20.2 -15.25 L19.8 -16.3 Q19.45 -17.1 18.55 -18.1 L18.05 -18.5 17.65 -18.75 17.15 -18.9 16.55 -19.05 Q16.05 -18.9 15.9 -18.9 16.4 -19.25 17.1 -19.2 L16.15 -19.8 Q14.6 -20.65 11.4 -20.65 10.05 -20.65 7.95 -19.7 6.1 -18.75 5.55 -18.5 L5.45 -18.45 5.75 -18.4 7.05 -18.5 7.3 -18.55 Q8.25 -19.3 9.25 -19.55 L9.5 -19.5 Q8.2 -18.85 6.85 -17.6 L4.9 -15.75 4.7 -15.55 Q5.2 -15.75 5.8 -16.1 L5.95 -16.15 Q6.75 -16.95 8.0 -17.85 L8.15 -17.8 8.35 -18.0 8.2 -17.8 8.15 -17.75 Q7.5 -16.95 6.7 -16.2 L5.25 -14.85 Q4.65 -14.35 4.35 -13.95 4.1 -13.55 3.95 -13.2 3.8 -12.8 3.8 -12.35 L3.6 -11.0 Q3.6 -9.8 3.85 -8.6 3.95 -8.25 4.1 -7.9 L4.4 -8.75 Q4.65 -9.55 4.65 -9.7 L4.8 -10.4 4.85 -10.6 5.05 -12.15 Q5.05 -12.45 5.25 -13.05 5.25 -13.15 5.6 -13.75 6.0 -14.3 6.0 -14.4 6.6 -15.3 6.9 -15.35 6.65 -15.15 6.45 -14.85 L6.25 -14.6 Q6.0 -14.2 5.75 -13.65 5.2 -12.45 5.2 -11.75 L5.15 -9.4 5.15 -9.05 Q5.3 -7.7 5.3 -7.1 L5.3 -7.05 5.25 -6.95 5.3 -6.8 5.2 -6.45 5.1 -5.85 Q5.65 -6.35 6.05 -7.0 L6.25 -7.35 6.4 -7.65 Q6.75 -8.4 6.75 -8.65 L6.85 -8.95 6.9 -9.2 6.95 -9.4 7.1 -9.95 7.15 -10.3 7.2 -10.0 Q7.2 -9.55 6.95 -8.7 L6.95 -8.5 6.7 -7.75 6.6 -7.3 6.6 -7.35 6.5 -6.95 6.35 -5.95 6.35 -5.35 6.45 -4.65 6.45 -4.45 7.55 -5.8 Q7.9 -6.15 8.05 -6.45 7.9 -7.2 7.9 -7.85 7.9 -8.0 8.1 -8.15 8.25 -8.35 8.25 -8.45 8.25 -8.8 7.85 -8.9 7.75 -9.05 7.65 -9.25 7.55 -9.55 7.55 -9.75 7.35 -10.15 7.35 -10.6 7.35 -10.95 7.5 -11.2 7.65 -11.35 7.9 -11.45 L7.9 -11.55 7.85 -12.0 7.85 -11.9 7.8 -11.9 7.8 -11.95 7.85 -12.05 7.65 -12.9 7.5 -13.4 7.55 -14.1 7.6 -14.2 7.6 -14.3 7.15 -13.65 Q6.95 -13.3 6.75 -12.95 L6.75 -12.9 6.65 -12.65 Q6.4 -12.05 6.25 -11.2 L5.95 -9.75 Q5.95 -9.7 5.95 -9.8 5.95 -11.55 6.45 -12.95 7.05 -14.65 8.3 -15.35 8.75 -15.65 9.5 -15.95 L9.8 -16.05 10.05 -16.05 10.25 -16.15 11.8 -16.45 Q12.2 -16.55 12.95 -16.95 13.55 -17.25 13.85 -17.5 L14.6 -18.25 Q15.25 -18.75 15.25 -18.0 L15.05 -17.45 Q14.85 -17.0 14.85 -16.6 L14.85 -16.45 Q14.85 -16.05 15.15 -15.65 15.25 -15.55 15.85 -15.0 16.25 -14.65 16.5 -14.2 16.85 -13.6 16.85 -12.95 16.85 -12.7 16.55 -12.15 16.4 -11.9 16.2 -11.75 L16.2 -11.7 16.35 -11.75 Q16.35 -11.65 16.4 -11.65 L16.5 -11.65 Q18.45 -11.5 19.7 -10.9 L20.0 -11.2 Q20.55 -11.8 20.5 -12.65 L20.55 -13.15 20.55 -13.9 20.35 -14.7 20.2 -15.25 M14.05 -15.5 L14.7 -15.35 14.2 -15.45 13.75 -15.35 Q13.45 -15.25 13.3 -15.2 L12.9 -15.1 12.6 -15.0 Q12.35 -15.0 12.3 -15.15 L12.3 -15.2 12.3 -15.3 Q12.3 -15.85 13.35 -15.7 L14.05 -15.5 M14.85 -13.8 L15.15 -13.75 15.45 -13.85 15.9 -13.95 Q15.95 -13.95 15.95 -13.8 15.95 -13.65 15.6 -13.4 L15.55 -13.35 Q15.35 -13.25 15.2 -13.2 15.3 -13.15 15.3 -12.95 15.3 -12.7 14.7 -12.35 14.05 -12.0 13.35 -12.0 L13.1 -12.25 Q12.85 -12.55 12.75 -12.75 L12.8 -12.75 12.95 -12.5 12.95 -12.45 Q13.1 -12.3 13.2 -12.3 L13.75 -12.4 14.0 -12.5 Q14.55 -12.65 14.7 -12.85 14.85 -13.1 15.0 -13.2 L14.55 -13.3 Q14.05 -13.45 13.85 -13.45 13.7 -13.45 13.45 -13.35 L13.25 -13.25 13.2 -13.2 13.2 -13.1 Q13.2 -13.0 13.25 -12.85 13.35 -12.65 13.5 -12.65 L13.55 -12.65 Q13.85 -12.65 14.0 -12.8 14.05 -12.85 14.05 -12.95 L14.0 -13.15 13.75 -13.4 13.85 -13.45 13.95 -13.4 Q14.15 -13.4 14.2 -13.2 L14.2 -12.95 Q14.2 -12.75 14.05 -12.65 13.9 -12.55 13.65 -12.55 L13.45 -12.55 Q13.3 -12.6 13.2 -12.7 L13.1 -12.85 Q13.05 -13.0 13.05 -13.1 L12.85 -13.0 12.7 -12.85 12.65 -12.9 12.65 -12.95 Q12.65 -13.0 12.95 -13.3 13.25 -13.6 13.45 -13.7 14.1 -14.1 14.5 -13.95 L14.8 -13.85 14.85 -13.8 M15.75 -11.9 L16.05 -12.1 Q16.5 -12.45 16.5 -12.65 16.5 -12.75 16.55 -12.85 L16.65 -13.0 Q16.65 -13.6 16.25 -14.15 L15.45 -15.0 Q14.9 -15.55 14.7 -16.0 14.6 -16.25 14.6 -16.5 14.5 -17.0 14.6 -17.55 13.7 -17.0 11.95 -16.35 L10.6 -15.9 10.15 -15.75 10.05 -15.75 Q10.25 -15.6 10.3 -15.45 L10.35 -15.3 Q10.35 -15.2 10.25 -15.1 10.2 -15.0 10.1 -15.0 L9.95 -15.05 9.65 -15.25 9.55 -15.35 9.5 -15.35 9.25 -15.55 Q8.75 -15.3 8.4 -14.9 8.0 -14.45 7.8 -13.95 L7.9 -13.75 7.95 -13.6 8.0 -13.55 8.15 -13.45 8.2 -13.4 8.25 -13.15 8.35 -12.9 8.15 -13.05 Q8.35 -12.6 8.35 -12.2 L8.3 -11.9 8.4 -11.75 Q8.45 -11.6 8.6 -11.6 L9.15 -11.65 10.15 -11.75 10.7 -11.85 11.4 -11.95 12.0 -11.85 Q12.45 -11.7 13.0 -11.7 13.6 -11.7 13.75 -11.8 L13.95 -11.9 14.7 -11.8 14.9 -11.75 15.6 -11.8 15.75 -11.9 M10.2 -14.6 L10.25 -14.6 10.25 -14.45 10.4 -13.65 10.4 -13.6 Q10.45 -13.25 10.45 -12.9 L10.4 -12.5 10.4 -12.35 10.5 -12.25 Q10.5 -12.15 10.35 -12.05 L10.35 -11.95 10.3 -11.85 Q10.25 -11.9 10.25 -12.0 10.15 -11.9 10.1 -11.9 9.75 -11.9 9.4 -12.15 9.1 -12.3 9.05 -12.5 L9.1 -12.5 9.3 -12.25 9.35 -12.25 Q9.5 -12.1 9.65 -12.1 L9.85 -12.1 Q10.0 -12.15 10.0 -12.3 10.0 -12.45 10.2 -12.45 L10.25 -12.45 10.2 -12.7 10.15 -12.75 10.1 -12.6 10.0 -12.5 9.95 -12.45 Q9.6 -12.45 9.4 -12.65 9.3 -12.75 9.3 -12.9 9.3 -13.0 9.4 -13.1 L9.5 -13.25 9.55 -13.25 9.7 -13.2 9.65 -13.15 9.6 -13.15 9.45 -13.05 9.45 -13.0 9.4 -12.9 9.4 -12.85 Q9.45 -12.6 9.85 -12.6 9.95 -12.6 10.0 -12.7 L10.0 -13.1 9.95 -13.1 10.0 -13.15 9.9 -13.2 Q9.85 -13.3 9.75 -13.3 L9.55 -13.3 Q9.1 -13.25 9.05 -13.0 L9.05 -12.85 Q9.0 -12.75 8.9 -12.75 L8.85 -12.75 Q8.75 -12.75 8.55 -12.9 8.3 -13.1 8.25 -13.3 L8.35 -13.3 Q8.45 -13.25 8.5 -13.25 8.7 -13.25 8.75 -13.3 L8.8 -13.5 Q8.85 -13.75 9.6 -13.75 L9.75 -13.75 Q10.0 -13.75 10.15 -13.65 L10.2 -13.6 10.35 -13.5 Q10.3 -13.65 10.25 -14.05 L10.15 -14.55 10.2 -14.6 M16.4 -20.2 Q17.2 -19.85 17.7 -19.4 18.65 -19.05 19.75 -17.2 20.95 -15.25 20.95 -14.15 L21.05 -13.6 21.1 -13.05 21.05 -12.7 21.0 -12.3 Q21.0 -12.2 20.95 -12.05 L20.8 -11.55 20.6 -11.05 Q20.5 -10.7 20.5 -10.45 L20.95 -10.05 Q20.95 -9.1 20.5 -8.3 20.25 -7.85 20.15 -7.4 L20.25 -7.15 Q20.35 -6.9 20.35 -6.25 20.35 -5.55 18.7 -5.0 L17.25 -4.6 Q16.45 -4.35 16.0 -4.15 15.25 -3.75 14.3 -3.35 12.35 -2.65 10.9 -2.65 9.45 -2.65 8.9 -3.7 8.6 -4.3 8.6 -5.2 L8.55 -5.45 Q8.35 -5.5 8.15 -5.8 L8.15 -5.9 7.45 -4.95 Q6.45 -3.65 6.4 -3.65 6.15 -3.65 6.0 -4.85 L6.0 -4.95 Q5.95 -5.2 5.95 -5.65 L5.95 -6.05 6.0 -6.2 Q5.55 -5.7 5.0 -5.3 L4.7 -5.05 4.7 -5.1 4.6 -5.1 Q4.55 -5.1 4.55 -5.2 L4.55 -5.25 4.75 -6.15 4.9 -6.85 4.95 -8.7 4.9 -9.1 4.7 -8.6 Q4.3 -7.4 4.3 -7.25 L4.2 -7.15 4.2 -7.05 4.1 -7.15 Q3.85 -7.25 3.65 -7.95 3.45 -8.45 3.3 -9.2 3.15 -10.2 3.15 -11.5 3.15 -12.75 3.7 -13.8 4.0 -14.45 4.55 -14.95 4.15 -14.85 3.75 -14.85 L3.6 -14.85 3.55 -14.9 3.55 -15.0 3.85 -15.25 3.85 -15.3 4.35 -15.7 Q4.9 -16.25 5.25 -16.85 5.8 -17.65 5.95 -17.85 L6.0 -17.85 5.3 -18.0 Q4.7 -18.15 4.45 -18.3 L4.45 -18.35 Q6.45 -19.45 7.7 -19.9 8.15 -20.1 9.25 -20.7 10.45 -21.2 12.3 -21.2 14.4 -21.2 16.4 -20.2 M17.95 -11.0 L16.4 -11.15 15.35 -11.2 14.95 -11.25 14.15 -11.3 12.6 -11.4 11.65 -11.55 10.55 -11.7 10.25 -11.65 9.9 -11.6 Q9.4 -11.6 9.0 -11.4 8.75 -11.25 8.55 -11.2 L8.5 -11.15 8.1 -11.05 Q7.85 -10.95 7.8 -10.85 L7.7 -10.8 Q7.85 -10.5 7.85 -10.4 L7.8 -10.1 7.8 -10.05 Q7.95 -9.65 8.25 -9.4 9.0 -8.75 10.6 -9.0 L12.0 -9.05 13.7 -8.9 14.15 -8.85 13.7 -8.85 12.1 -9.0 10.55 -8.9 9.65 -8.75 9.4 -8.75 8.7 -8.6 8.7 -8.4 Q8.75 -8.0 9.6 -7.95 L9.85 -7.9 Q10.5 -7.9 12.8 -7.9 L12.85 -7.9 13.05 -7.95 13.75 -7.95 15.75 -7.9 15.8 -7.9 16.7 -7.8 16.95 -7.8 17.1 -7.8 17.6 -7.85 18.15 -7.9 Q19.05 -7.9 19.35 -7.75 L19.6 -7.95 Q19.5 -8.1 19.4 -8.15 L18.55 -8.35 18.25 -8.45 16.75 -8.6 14.55 -8.8 18.65 -8.6 Q19.45 -8.5 19.85 -8.2 L19.85 -8.25 Q20.45 -8.85 20.45 -9.35 20.45 -9.65 20.05 -10.15 19.7 -10.35 19.15 -10.6 18.6 -10.85 17.95 -11.0 M16.6 -7.75 L16.0 -7.8 Q12.55 -7.95 9.75 -7.8 L8.5 -7.9 8.4 -7.95 8.35 -7.9 Q8.2 -7.6 8.2 -7.4 8.2 -7.25 8.25 -7.05 L8.25 -7.0 8.4 -6.85 Q8.45 -6.8 8.45 -6.6 L8.4 -6.4 8.45 -6.35 8.7 -6.05 Q8.85 -6.0 9.15 -5.8 9.7 -5.5 10.1 -5.5 L10.65 -5.4 Q10.95 -5.3 11.05 -5.3 13.95 -5.3 15.55 -5.85 15.9 -6.0 16.55 -6.35 17.05 -6.6 17.35 -6.65 17.1 -6.55 16.55 -6.25 15.95 -5.9 15.45 -5.75 L15.2 -5.65 15.15 -5.65 15.05 -5.6 12.25 -5.15 12.1 -5.1 11.55 -5.1 Q11.0 -5.05 10.4 -5.05 L10.35 -5.05 9.75 -5.1 9.15 -5.25 9.1 -4.9 9.05 -4.45 Q9.05 -4.2 9.55 -3.7 L9.65 -3.6 Q10.3 -2.9 10.85 -2.9 12.45 -2.9 14.15 -3.65 14.45 -3.75 15.95 -4.55 16.3 -4.7 18.1 -5.35 19.75 -6.0 19.75 -6.5 L19.75 -6.55 19.6 -7.05 19.35 -7.55 19.15 -7.6 18.9 -7.6 16.6 -7.75" fill="#111111" fill-rule="evenodd" stroke="none"/>
    <path d="M14.05 -15.5 L13.35 -15.7 Q12.3 -15.85 12.3 -15.3 L12.3 -15.2 Q12.05 -14.95 11.9 -14.4 11.55 -13.45 11.55 -13.1 L11.55 -12.85 11.6 -12.9 Q11.7 -12.95 11.85 -13.2 12.05 -13.5 12.25 -13.65 12.8 -14.2 14.1 -14.2 14.3 -14.2 14.85 -13.8 L14.8 -13.85 14.5 -13.95 Q14.1 -14.1 13.45 -13.7 13.25 -13.6 12.95 -13.3 12.65 -13.0 12.65 -12.95 L12.65 -12.9 12.7 -12.85 12.85 -13.0 12.85 -12.95 Q12.85 -12.75 12.95 -12.5 L12.95 -12.45 12.95 -12.5 12.8 -12.75 12.75 -12.75 Q12.85 -12.55 13.1 -12.25 L13.35 -12.0 Q14.05 -12.0 14.7 -12.35 15.3 -12.7 15.3 -12.95 15.3 -13.15 15.2 -13.2 15.35 -13.25 15.55 -13.35 15.7 -13.35 15.8 -12.9 15.85 -12.6 15.85 -12.4 15.85 -12.2 15.75 -11.9 L15.6 -11.8 14.9 -11.75 14.7 -11.8 13.95 -11.9 13.75 -11.8 Q13.6 -11.7 13.0 -11.7 12.45 -11.7 12.0 -11.85 L11.4 -11.95 10.7 -11.85 10.15 -11.75 9.15 -11.65 8.6 -11.6 Q8.45 -11.6 8.4 -11.75 L8.3 -11.9 8.35 -12.2 Q8.35 -12.6 8.15 -13.05 L8.35 -12.9 8.25 -13.15 8.2 -13.4 8.15 -13.45 9.1 -14.4 Q9.35 -14.05 9.55 -13.8 L9.6 -13.75 Q8.85 -13.75 8.8 -13.5 L8.75 -13.3 Q8.7 -13.25 8.5 -13.25 8.45 -13.25 8.35 -13.3 L8.25 -13.3 Q8.3 -13.1 8.55 -12.9 8.75 -12.75 8.85 -12.75 L8.9 -12.75 Q8.95 -12.65 9.05 -12.5 9.1 -12.3 9.4 -12.15 9.75 -11.9 10.1 -11.9 10.15 -11.9 10.25 -12.0 10.25 -11.9 10.3 -11.85 L10.35 -11.95 10.35 -12.05 Q10.5 -12.15 10.5 -12.25 L10.4 -12.35 10.4 -12.5 10.45 -12.9 Q10.45 -13.25 10.4 -13.6 L10.4 -13.65 Q10.4 -13.9 10.25 -14.45 L10.25 -14.6 10.2 -14.6 10.05 -15.0 9.95 -15.05 10.1 -15.0 Q10.2 -15.0 10.25 -15.1 10.35 -15.2 10.35 -15.3 L10.3 -15.45 10.45 -15.7 10.6 -15.9 11.95 -16.35 Q13.7 -17.0 14.6 -17.55 14.5 -17.0 14.6 -16.5 L14.5 -16.2 Q14.35 -15.7 14.0 -15.55 L14.05 -15.5 M10.7 -15.65 L10.65 -15.65 Q10.65 -15.6 10.75 -15.6 L10.85 -15.6 10.7 -15.65 M9.85 -12.1 L9.65 -12.1 Q9.5 -12.1 9.35 -12.25 L9.3 -12.25 Q9.55 -12.1 9.85 -12.1" fill="#c7a36d" fill-rule="evenodd" stroke="none"/>
    <path d="M12.3 -15.2 L12.3 -15.15 Q12.35 -15.0 12.6 -15.0 L12.9 -15.1 13.3 -15.2 Q13.45 -15.25 13.75 -15.35 L14.2 -15.45 14.7 -15.35 14.05 -15.5 14.0 -15.55 Q14.35 -15.7 14.5 -16.2 L14.6 -16.5 Q14.6 -16.25 14.7 -16.0 14.9 -15.55 15.45 -15.0 L16.25 -14.15 Q16.65 -13.6 16.65 -13.0 L16.55 -12.85 Q16.5 -12.75 16.5 -12.65 16.5 -12.45 16.05 -12.1 L15.75 -11.9 Q15.85 -12.2 15.85 -12.4 15.85 -12.6 15.8 -12.9 15.7 -13.35 15.55 -13.35 L15.6 -13.4 Q15.95 -13.65 15.95 -13.8 15.95 -13.95 15.9 -13.95 L15.45 -13.85 15.15 -13.75 14.85 -13.8 Q14.3 -14.2 14.1 -14.2 12.8 -14.2 12.25 -13.65 12.05 -13.5 11.85 -13.2 11.7 -12.95 11.6 -12.9 L11.55 -12.85 11.55 -13.1 Q11.55 -13.45 11.9 -14.4 12.05 -14.95 12.3 -15.2 M10.6 -15.9 L10.45 -15.7 10.3 -15.45 Q10.25 -15.6 10.05 -15.75 L10.15 -15.75 10.6 -15.9 M9.95 -15.05 L10.05 -15.0 10.2 -14.6 10.15 -14.55 10.25 -14.05 Q10.3 -13.65 10.35 -13.5 L10.2 -13.6 10.15 -13.65 Q10.0 -13.75 9.75 -13.75 L9.6 -13.75 9.55 -13.8 Q9.35 -14.05 9.1 -14.4 L8.15 -13.45 8.0 -13.55 7.95 -13.6 7.9 -13.75 7.8 -13.95 Q8.0 -14.45 8.4 -14.9 8.75 -15.3 9.25 -15.55 L9.5 -15.35 9.55 -15.35 9.65 -15.25 9.95 -15.05 M10.25 -14.45 Q10.4 -13.9 10.4 -13.65 L10.4 -13.6 10.4 -13.65 10.25 -14.45 M10.7 -15.65 L10.85 -15.6 10.75 -15.6 Q10.65 -15.6 10.65 -15.65 L10.7 -15.65" fill="#a9854f" fill-rule="evenodd" stroke="none"/>
    <path d="M7.8 -10.1 L7.85 -10.4 Q7.85 -10.5 7.7 -10.8 L7.8 -10.85 Q7.85 -10.95 8.1 -11.05 L8.5 -11.15 8.55 -11.2 Q8.75 -11.25 9.0 -11.4 9.4 -11.6 9.9 -11.6 L10.25 -11.65 10.55 -11.7 11.65 -11.55 12.6 -11.4 14.15 -11.3 14.95 -11.25 15.35 -11.2 16.4 -11.15 17.95 -11.0 18.0 -10.5 Q18.0 -10.15 17.8 -9.85 17.35 -9.25 16.3 -9.25 L14.3 -9.4 13.25 -9.5 12.3 -9.55 11.1 -9.65 9.0 -9.65 Q8.45 -9.65 8.05 -9.85 8.0 -9.9 7.8 -10.1 M16.95 -7.8 L16.7 -7.8 16.8 -7.8 16.9 -7.85 16.95 -7.8 M9.6 -7.95 Q8.75 -8.0 8.7 -8.4 L8.7 -8.6 9.4 -8.75 9.65 -8.75 11.8 -8.65 12.95 -8.6 14.9 -8.45 15.4 -8.45 15.1 -8.4 11.6 -8.05 9.6 -7.95 M8.25 -7.05 Q8.2 -7.25 8.2 -7.4 8.2 -7.6 8.35 -7.9 L8.4 -7.95 8.5 -7.9 9.75 -7.8 Q12.55 -7.95 16.0 -7.8 L16.6 -7.75 16.65 -7.65 Q16.65 -7.15 15.3 -6.7 L13.1 -6.2 11.3 -6.1 10.05 -6.0 Q8.95 -6.0 8.25 -7.05 M9.55 -3.7 Q9.05 -4.2 9.05 -4.45 L9.2 -4.45 9.1 -4.55 12.75 -4.9 13.95 -5.0 15.45 -5.15 Q15.0 -4.7 13.5 -4.1 11.95 -3.5 11.15 -3.5 L10.4 -3.5 Q10.05 -3.5 9.6 -3.65 L9.55 -3.7" fill="#b00000" fill-rule="evenodd" stroke="none"/>
    <path d="M7.8 -10.1 Q8.0 -9.9 8.05 -9.85 8.45 -9.65 9.0 -9.65 L11.1 -9.65 12.3 -9.55 13.25 -9.5 14.3 -9.4 16.3 -9.25 Q17.35 -9.25 17.8 -9.85 18.0 -10.15 18.0 -10.5 L17.95 -11.0 Q18.6 -10.85 19.15 -10.6 19.7 -10.35 20.05 -10.15 20.45 -9.65 20.45 -9.35 20.45 -8.85 19.85 -8.25 L19.85 -8.2 Q19.45 -8.5 18.65 -8.6 L14.55 -8.8 16.75 -8.6 18.25 -8.45 18.55 -8.35 19.4 -8.15 Q19.5 -8.1 19.6 -7.95 L19.35 -7.75 Q19.05 -7.9 18.15 -7.9 L17.6 -7.85 17.1 -7.8 16.95 -7.8 16.9 -7.85 16.8 -7.8 16.7 -7.8 15.8 -7.9 15.75 -7.9 13.75 -7.95 13.05 -7.95 12.85 -7.9 12.8 -7.9 Q10.5 -7.9 9.85 -7.9 L9.6 -7.95 11.6 -8.05 15.1 -8.4 15.4 -8.45 14.9 -8.45 12.95 -8.6 11.8 -8.65 9.65 -8.75 10.55 -8.9 12.1 -9.0 13.7 -8.85 14.15 -8.85 13.7 -8.9 12.0 -9.05 10.6 -9.0 Q9.0 -8.75 8.25 -9.4 7.95 -9.65 7.8 -10.05 L7.8 -10.1 M8.25 -7.05 Q8.95 -6.0 10.05 -6.0 L11.3 -6.1 13.1 -6.2 15.3 -6.7 Q16.65 -7.15 16.65 -7.65 L16.6 -7.75 18.9 -7.6 19.15 -7.6 19.35 -7.55 19.6 -7.05 19.75 -6.55 19.75 -6.5 Q19.75 -6.0 18.1 -5.35 16.3 -4.7 15.95 -4.55 14.45 -3.75 14.15 -3.65 12.45 -2.9 10.85 -2.9 10.3 -2.9 9.65 -3.6 L9.55 -3.7 9.6 -3.65 Q10.05 -3.5 10.4 -3.5 L11.15 -3.5 Q11.95 -3.5 13.5 -4.1 15.0 -4.7 15.45 -5.15 L13.95 -5.0 12.75 -4.9 9.1 -4.55 9.2 -4.45 9.05 -4.45 9.1 -4.9 9.15 -5.25 9.75 -5.1 10.35 -5.05 10.4 -5.05 Q11.0 -5.05 11.55 -5.1 L12.1 -5.1 12.25 -5.15 15.05 -5.6 15.15 -5.65 15.2 -5.65 15.45 -5.75 Q15.95 -5.9 16.55 -6.25 17.1 -6.55 17.35 -6.65 17.05 -6.6 16.55 -6.35 15.9 -6.0 15.55 -5.85 13.95 -5.3 11.05 -5.3 10.95 -5.3 10.65 -5.4 L10.1 -5.5 Q9.7 -5.5 9.15 -5.8 8.85 -6.0 8.7 -6.05 L8.45 -6.35 8.4 -6.4 8.45 -6.6 Q8.45 -6.8 8.4 -6.85 L8.25 -7.0 8.25 -7.05" fill="#600000" fill-rule="evenodd" stroke="none"/>
    <path d="M9.05 -12.5 Q8.95 -12.65 8.9 -12.75 9.0 -12.75 9.05 -12.85 L9.05 -13.0 Q9.1 -13.25 9.55 -13.3 L9.55 -13.25 9.5 -13.25 9.4 -13.1 Q9.3 -13.0 9.3 -12.9 9.3 -12.75 9.4 -12.65 9.6 -12.45 9.95 -12.45 L10.0 -12.5 Q10.1 -12.55 10.15 -12.6 L10.2 -12.7 10.25 -12.45 10.2 -12.45 Q10.0 -12.45 10.0 -12.3 10.0 -12.15 9.85 -12.1 9.55 -12.1 9.3 -12.25 L9.1 -12.5 9.05 -12.5 M9.45 -13.0 L9.4 -12.85 9.4 -12.9 9.45 -13.0 M13.85 -13.45 Q14.05 -13.45 14.55 -13.3 L15.0 -13.2 Q14.85 -13.1 14.7 -12.85 14.55 -12.65 14.0 -12.5 L13.75 -12.4 13.2 -12.3 Q13.1 -12.3 12.95 -12.45 L12.95 -12.5 Q12.85 -12.75 12.85 -12.95 L12.85 -13.0 13.05 -13.1 Q13.05 -13.0 13.1 -12.85 L13.2 -12.7 Q13.25 -12.5 13.5 -12.5 L13.65 -12.55 Q13.9 -12.55 14.05 -12.65 14.2 -12.75 14.2 -12.95 L14.2 -13.2 Q14.15 -13.4 13.95 -13.4 L13.85 -13.45" fill="#ffffff" fill-rule="evenodd" stroke="none"/>
    <path d="M3.85 -8.6 Q3.6 -9.8 3.6 -11.0 L3.8 -12.35 Q3.8 -12.8 3.95 -13.2 4.1 -13.55 4.35 -13.95 4.65 -14.35 5.25 -14.85 L6.7 -16.2 Q7.5 -16.95 8.15 -17.75 L8.2 -17.8 8.35 -18.0 8.15 -17.8 8.0 -17.85 Q6.75 -16.95 5.95 -16.15 L5.8 -16.1 Q5.2 -15.75 4.7 -15.55 L4.9 -15.75 6.85 -17.6 Q8.2 -18.85 9.5 -19.5 L9.25 -19.55 Q8.25 -19.3 7.3 -18.55 L7.05 -18.5 5.75 -18.4 5.45 -18.45 5.55 -18.5 Q6.1 -18.75 7.95 -19.7 10.05 -20.65 11.4 -20.65 14.6 -20.65 16.15 -19.8 L17.1 -19.2 Q16.4 -19.25 15.9 -18.9 16.05 -18.9 16.55 -19.05 L17.15 -18.9 17.65 -18.75 18.05 -18.5 18.55 -18.1 Q19.45 -17.1 19.8 -16.3 L20.2 -15.25 Q19.6 -15.8 18.8 -15.8 18.65 -15.8 18.5 -15.6 18.4 -15.4 18.4 -15.25 18.4 -15.05 18.35 -14.9 18.25 -14.55 17.95 -14.55 17.7 -14.55 17.5 -14.8 L17.4 -14.9 Q16.85 -15.65 16.85 -16.4 16.85 -16.45 17.0 -17.1 16.75 -16.85 16.65 -16.05 16.6 -15.55 16.6 -15.15 16.6 -15.1 16.65 -14.9 16.45 -14.75 16.3 -14.75 16.15 -14.75 16.1 -14.85 L16.35 -14.9 Q15.7 -15.0 15.25 -15.75 14.95 -16.25 14.85 -16.6 14.85 -17.0 15.05 -17.45 L15.25 -18.0 Q15.25 -18.75 14.6 -18.25 L13.85 -17.5 Q13.55 -17.25 12.95 -16.95 12.2 -16.55 11.8 -16.45 L10.25 -16.15 10.05 -16.05 9.8 -16.05 9.5 -15.95 Q8.75 -15.65 8.3 -15.35 7.05 -14.65 6.45 -12.95 5.95 -11.55 5.95 -9.8 5.95 -9.7 5.95 -9.75 L5.9 -9.6 5.75 -8.7 Q5.75 -7.7 5.2 -6.45 L5.3 -6.8 5.25 -6.95 5.3 -7.05 5.3 -7.1 Q5.3 -7.7 5.15 -9.05 L5.15 -9.4 5.2 -11.75 Q5.2 -12.45 5.75 -13.65 6.0 -14.2 6.25 -14.6 L7.35 -15.85 Q6.05 -15.2 5.1 -13.65 4.25 -12.2 4.25 -11.1 L4.2 -10.9 4.15 -10.65 4.0 -9.6 Q3.85 -8.9 3.85 -8.6 M7.6 -14.2 L7.55 -14.2 7.15 -13.65 7.6 -14.3 7.6 -14.2" fill="#003060" fill-rule="evenodd" stroke="none"/>
    <path d="M3.85 -8.6 Q3.85 -8.9 4.0 -9.6 L4.15 -10.65 4.2 -10.9 4.25 -11.1 Q4.25 -12.2 5.1 -13.65 6.05 -15.2 7.35 -15.85 L6.25 -14.6 6.45 -14.85 Q6.65 -15.15 6.9 -15.35 6.6 -15.3 6.0 -14.4 6.0 -14.3 5.6 -13.75 5.25 -13.15 5.25 -13.05 5.05 -12.45 5.05 -12.15 L4.85 -10.6 4.8 -10.4 4.65 -9.7 Q4.65 -9.55 4.4 -8.75 L4.1 -7.9 Q3.95 -8.25 3.85 -8.6 M5.2 -6.45 Q5.75 -7.7 5.75 -8.7 L5.9 -9.6 5.95 -9.75 6.25 -11.2 Q6.4 -12.05 6.65 -12.65 L6.75 -12.9 6.75 -12.95 Q6.95 -13.3 7.15 -13.65 L7.55 -14.2 7.6 -14.2 7.55 -14.1 7.5 -13.4 7.65 -12.9 7.85 -12.05 7.8 -11.95 7.8 -11.9 7.85 -11.9 7.85 -12.0 7.9 -11.55 7.9 -11.45 Q7.65 -11.35 7.5 -11.2 7.35 -10.95 7.35 -10.6 7.35 -10.15 7.55 -9.75 7.55 -9.55 7.65 -9.25 7.75 -9.05 7.85 -8.9 8.25 -8.8 8.25 -8.45 8.25 -8.35 8.1 -8.15 7.9 -8.0 7.9 -7.85 7.9 -7.2 8.05 -6.45 7.9 -6.15 7.55 -5.8 L6.45 -4.45 6.45 -4.65 6.35 -5.35 6.35 -5.95 6.5 -6.95 6.6 -7.35 6.6 -7.3 6.7 -7.75 6.95 -8.5 6.95 -8.7 Q7.2 -9.55 7.2 -10.0 L7.15 -10.3 7.1 -9.95 6.95 -9.4 6.9 -9.2 6.85 -8.95 6.75 -8.65 Q6.75 -8.4 6.4 -7.65 L6.25 -7.35 6.05 -7.0 Q5.65 -6.35 5.1 -5.85 L5.2 -6.45 M14.85 -16.6 Q14.95 -16.25 15.25 -15.75 15.7 -15.0 16.35 -14.9 L16.1 -14.85 Q16.15 -14.75 16.3 -14.75 16.45 -14.75 16.65 -14.9 16.6 -15.1 16.6 -15.15 16.6 -15.55 16.65 -16.05 16.75 -16.85 17.0 -17.1 16.85 -16.45 16.85 -16.4 16.85 -15.65 17.4 -14.9 L17.5 -14.8 Q17.7 -14.55 17.95 -14.55 18.25 -14.55 18.35 -14.9 18.4 -15.05 18.4 -15.25 18.4 -15.4 18.5 -15.6 18.65 -15.8 18.8 -15.8 19.6 -15.8 20.2 -15.25 L20.35 -14.7 20.55 -13.9 20.55 -13.15 20.5 -12.65 Q20.55 -11.8 20.0 -11.2 L19.7 -10.9 Q18.45 -11.5 16.5 -11.65 L16.4 -11.65 Q16.35 -11.65 16.35 -11.75 L16.2 -11.7 16.2 -11.75 Q16.4 -11.9 16.55 -12.15 16.85 -12.7 16.85 -12.95 16.85 -13.6 16.5 -14.2 16.25 -14.65 15.85 -15.0 15.25 -15.55 15.15 -15.65 14.85 -16.05 14.85 -16.45 L14.85 -16.6" fill="#002040" fill-rule="evenodd" stroke="none"/>
    <path d="M10.0 -12.5 L10.1 -12.6 10.15 -12.75 10.2 -12.7 10.15 -12.6 Q10.1 -12.55 10.0 -12.5 M9.55 -13.3 L9.75 -13.3 Q9.85 -13.3 9.9 -13.2 L10.0 -13.15 9.95 -13.1 10.0 -13.1 10.0 -12.7 Q9.95 -12.6 9.85 -12.6 9.45 -12.6 9.4 -12.85 L9.45 -13.0 9.45 -13.05 9.6 -13.15 9.65 -13.15 9.7 -13.2 9.55 -13.25 9.55 -13.3 M13.85 -13.45 L13.95 -13.4 13.85 -13.45 13.75 -13.4 14.0 -13.15 14.05 -12.95 Q14.05 -12.85 14.0 -12.8 13.85 -12.65 13.55 -12.65 L13.5 -12.65 Q13.35 -12.65 13.25 -12.85 13.2 -13.0 13.2 -13.1 L13.2 -13.2 13.25 -13.25 13.45 -13.35 Q13.7 -13.45 13.85 -13.45 M13.65 -12.55 L13.5 -12.5 Q13.25 -12.5 13.2 -12.7 13.3 -12.6 13.45 -12.55 L13.65 -12.55" fill="#ff6633" fill-rule="evenodd" stroke="none"/>
  </g>
</svg>
