<?xml version="1.0" encoding="UTF-8" standalone="no"?>
<svg xmlns:ffdec="https://www.free-decompiler.com/flash" xmlns:xlink="http://www.w3.org/1999/xlink" ffdec:objectType="shape" height="41.55px" width="63.25px" xmlns="http://www.w3.org/2000/svg">
  <g transform="matrix(1.0, 0.0, 0.0, 1.0, 44.6, 21.3)">
    <path d="M-24.9 -17.95 Q-26.15 -18.8 -26.7 -19.1 -27.25 -19.4 -28.9 -19.8 -29.35 -19.95 -29.65 -20.1 L-29.9 -19.55 -29.9 -19.45 -30.0 -19.2 -30.2 -19.0 -30.7 -18.15 -30.75 -18.15 -30.8 -18.1 -31.55 -17.05 -32.25 -16.1 -32.25 -16.05 -32.9 -14.9 -33.6 -14.2 -33.85 -13.9 Q-34.5 -12.95 -35.0 -12.0 L-35.45 -11.2 -35.85 -10.45 -35.9 -10.35 -36.15 -9.7 Q-36.2 -9.45 -36.35 -9.25 L-36.35 -9.2 -36.6 -8.75 -36.75 -8.65 -36.85 -8.55 -37.05 -8.4 -37.05 -8.35 -37.25 -8.3 Q-38.2 -7.7 -39.95 -7.6 L-40.05 -7.55 -40.0 -7.5 Q-40.05 -7.35 -39.95 -7.25 L-40.2 -7.5 -40.15 -7.55 -41.4 -7.55 -41.5 -7.6 -41.45 -7.35 Q-41.3 -6.85 -41.2 -6.2 L-40.95 -4.4 -40.9 -4.2 -40.5 -4.4 -40.0 -4.6 -39.9 -4.65 -39.65 -4.85 -39.65 -4.8 -39.6 -4.8 -39.4 -4.7 -39.3 -4.7 Q-39.25 -4.65 -39.4 -4.45 L-39.5 -4.3 Q-39.45 -4.25 -39.45 -4.15 L-39.3 -4.0 -39.15 -4.0 -39.05 -3.95 Q-38.6 -3.8 -38.1 -3.3 L-37.05 -2.15 Q-36.3 -1.4 -35.55 -0.95 L-35.2 -1.45 Q-35.0 -1.7 -34.75 -1.8 L-34.75 -2.1 -34.6 -2.8 -34.5 -2.8 -34.7 -2.95 -34.75 -2.95 -34.75 -3.05 -34.7 -3.45 -34.65 -3.5 -34.65 -3.55 -34.4 -4.0 -34.3 -3.65 -34.3 -2.95 -34.3 -2.85 -34.35 -2.85 Q-34.4 -2.8 -34.5 -2.6 -34.6 -2.2 -34.35 -2.0 L-34.3 -1.95 -34.15 -1.85 -33.9 -1.65 -33.95 -1.65 Q-33.6 -1.4 -33.25 -0.9 -32.75 -0.25 -32.65 0.0 L-32.2 -0.05 -32.05 0.0 -30.95 -0.05 -30.35 -0.2 Q-29.7 -0.4 -29.2 -0.75 L-26.6 -0.85 -26.6 -0.75 -26.55 -0.75 -25.9 -0.9 Q-25.3 -1.15 -24.8 -1.4 L-24.25 -1.75 Q-24.0 -1.85 -23.45 -2.35 L-23.35 -2.45 Q-23.3 -2.6 -23.3 -2.7 L-23.35 -2.8 -23.05 -3.3 -23.0 -3.3 -23.0 -3.4 -22.95 -3.55 -22.95 -3.8 -23.9 -4.35 -23.9 -4.3 Q-25.2 -3.6 -26.65 -3.2 L-27.5 -3.2 Q-25.65 -3.6 -24.0 -4.4 L-25.2 -5.15 Q-25.3 -5.55 -25.3 -6.3 L-25.3 -7.35 -25.25 -7.7 -25.2 -8.05 -25.2 -8.2 -25.15 -8.3 Q-25.1 -8.75 -24.9 -9.05 L-24.85 -9.3 -24.85 -9.35 -24.9 -9.35 -25.0 -9.55 -25.0 -9.85 Q-25.0 -10.05 -24.8 -10.55 L-24.6 -10.95 -24.55 -10.95 Q-24.25 -11.4 -24.05 -11.9 L-23.65 -12.55 -23.4 -12.85 -23.2 -13.1 Q-22.45 -14.05 -22.45 -14.2 L-23.25 -16.1 -23.4 -16.45 Q-24.2 -16.8 -25.0 -17.0 -25.95 -17.25 -26.5 -17.1 -26.3 -17.3 -26.05 -17.5 -25.65 -17.75 -25.1 -17.8 L-24.65 -17.75 -24.8 -17.9 -24.9 -17.95 M-40.9 -4.2 L-40.9 -4.2 M-24.0 -7.8 L-24.05 -7.15 -24.2 -5.95 -24.25 -5.85 -24.3 -5.85 -24.3 -5.8 -22.5 -4.85 Q-22.5 -4.35 -22.35 -3.7 -22.55 -3.1 -22.65 -2.25 -22.65 -2.05 -22.8 -1.65 L-23.4 -1.45 Q-24.15 -1.2 -25.45 -0.55 -26.7 0.0 -26.95 0.1 L-30.25 0.9 -30.75 0.9 Q-32.55 0.9 -32.9 0.75 L-33.0 0.7 -33.25 0.75 Q-33.65 0.75 -34.05 0.25 L-34.45 -0.3 -34.75 0.05 -34.9 -0.05 Q-36.15 -1.0 -37.5 -1.85 -39.0 -2.75 -39.9 -3.05 L-40.05 -3.25 Q-40.4 -3.15 -40.9 -3.15 -41.15 -3.15 -41.35 -3.6 L-41.4 -3.6 Q-41.7 -3.9 -42.1 -5.4 -42.45 -6.8 -42.45 -7.25 -42.45 -7.75 -42.4 -7.9 -42.3 -8.25 -41.95 -8.2 L-41.85 -8.25 -41.8 -8.45 -40.5 -8.45 Q-38.5 -8.45 -37.75 -9.25 -37.55 -9.45 -37.45 -9.65 -37.2 -9.85 -37.05 -10.15 -36.85 -10.5 -36.7 -11.1 L-36.6 -11.4 Q-35.35 -12.7 -32.5 -16.75 -30.9 -18.95 -29.6 -20.95 L-29.4 -21.3 -28.9 -21.25 Q-28.0 -21.15 -26.5 -20.35 -25.15 -19.65 -24.05 -18.8 L-24.0 -18.75 Q-23.8 -18.95 -23.25 -18.15 -22.95 -17.85 -22.95 -17.7 L-22.95 -17.65 -22.7 -17.2 Q-22.2 -16.25 -21.75 -15.2 -21.3 -14.15 -21.3 -13.85 -21.3 -13.7 -22.35 -12.1 L-22.8 -11.35 -22.1 -10.9 Q-19.85 -8.95 -19.35 -8.8 L-19.3 -8.75 Q-18.85 -8.5 -17.95 -8.05 L-16.25 -7.3 -16.15 -7.3 Q-14.15 -6.3 -13.65 -5.4 L-8.1 -3.05 Q-4.35 -1.45 -1.8 -0.05 -0.55 0.3 1.2 1.2 2.65 2.0 3.5 2.55 6.2 3.9 6.85 4.2 L7.05 4.45 7.3 4.65 8.6 5.15 Q9.9 5.7 11.15 6.0 L13.15 6.15 13.85 6.4 Q18.55 8.05 18.55 9.25 L18.55 9.4 18.45 9.6 18.15 9.85 17.7 9.6 Q15.75 8.55 13.0 7.3 L12.9 7.25 12.8 7.25 Q12.65 7.25 12.2 7.05 11.95 6.95 11.7 7.05 11.3 6.95 10.5 6.6 L10.45 6.55 Q9.75 6.45 9.05 6.2 L9.0 6.2 9.05 6.3 8.95 6.75 Q8.9 6.95 8.8 7.1 L8.85 7.1 8.7 7.1 Q8.6 7.0 8.45 6.95 L8.5 6.95 8.55 6.7 8.5 6.7 8.55 6.6 Q8.7 6.55 8.8 6.4 L8.9 6.15 8.65 6.05 Q8.15 5.85 7.7 5.65 L7.7 6.05 7.65 6.6 7.55 6.6 7.55 6.65 7.6 6.7 8.0 6.85 7.8 6.85 Q7.5 6.8 7.3 6.55 7.1 6.35 6.8 6.4 6.75 6.4 6.75 6.55 L6.75 6.6 Q8.35 7.25 9.05 7.6 9.4 7.65 9.8 7.75 10.5 8.25 12.3 9.3 15.4 11.05 16.3 11.05 L16.35 11.05 17.15 11.45 17.0 11.7 16.9 11.85 Q16.8 11.95 16.65 11.95 15.65 11.95 12.55 10.15 10.9 9.15 9.6 8.3 L9.55 8.35 9.15 8.45 Q7.95 8.45 4.7 6.95 2.7 6.3 -0.65 4.65 -4.55 2.65 -6.75 1.3 -8.2 0.75 -10.15 -0.2 -13.0 -1.55 -14.95 -2.75 L-15.75 -3.25 -14.85 -3.05 -14.05 -2.85 Q-13.3 -2.35 -10.7 -1.2 -8.35 -0.2 -6.75 0.45 -5.2 1.4 -3.7 2.25 -2.75 2.7 -0.8 3.7 L-0.35 3.95 Q0.9 4.45 1.65 4.55 L4.5 5.65 5.9 6.25 Q5.9 6.15 5.9 6.05 5.9 5.85 6.05 5.4 L6.15 5.35 Q6.2 5.25 6.2 5.15 6.2 5.1 6.3 5.0 6.35 4.95 6.35 4.85 L7.45 5.5 Q6.55 5.0 6.05 4.4 L4.8 3.9 4.95 4.05 5.1 4.0 5.45 4.25 5.2 4.2 Q4.85 4.2 4.8 4.4 L4.75 4.35 Q4.65 4.6 4.6 4.9 L4.45 5.05 4.2 4.95 Q4.4 4.8 4.7 4.15 4.7 4.1 4.4 3.85 4.05 3.55 3.85 3.55 L3.7 3.6 3.65 3.6 3.6 3.8 3.65 3.85 3.5 4.3 3.45 4.3 3.45 4.4 3.3 4.65 3.05 4.6 3.05 4.5 Q3.05 4.35 3.15 3.95 L3.25 3.65 3.05 3.7 1.4 2.95 0.15 2.4 0.15 2.35 -0.45 1.85 Q1.8 3.0 2.1 3.0 L2.2 3.0 2.45 3.15 Q3.05 3.5 3.2 3.5 L3.6 3.4 3.7 3.4 3.5 3.3 Q2.8 3.15 1.1 2.25 0.0 2.25 -1.1 1.3 L-1.4 1.0 -1.5 0.9 -1.6 0.9 Q-2.6 0.8 -4.3 0.1 L-5.65 -0.55 Q-7.2 -1.3 -9.2 -2.4 L-9.6 -2.55 -10.0 -2.75 Q-10.0 -2.65 -10.1 -2.55 -10.2 -2.45 -10.4 -2.4 L-10.55 -2.4 Q-10.95 -2.4 -10.95 -2.45 L-11.0 -2.5 Q-11.05 -2.5 -11.05 -2.7 L-11.05 -2.75 Q-11.05 -2.95 -10.95 -3.05 L-10.75 -3.15 -12.3 -4.0 Q-12.9 -4.35 -13.4 -4.7 -13.8 -5.0 -14.15 -5.3 L-14.65 -5.55 -14.35 -5.25 -14.35 -5.2 -14.25 -5.15 -14.25 -5.05 -14.1 -5.0 -13.6 -4.55 -13.9 -4.7 -14.0 -4.7 -14.15 -4.75 -14.3 -4.85 -14.3 -4.7 -14.35 -4.6 -14.25 -4.5 Q-14.25 -4.1 -14.45 -3.7 L-14.55 -3.55 -14.3 -3.6 Q-14.45 -3.45 -14.6 -3.4 L-14.65 -3.4 -14.7 -3.4 -14.75 -3.35 -14.85 -3.25 -14.9 -3.2 Q-15.0 -3.3 -15.15 -3.3 -14.8 -3.5 -14.7 -3.7 -14.5 -4.1 -14.45 -4.4 L-14.5 -4.6 -14.45 -4.6 -14.6 -4.85 -14.65 -5.0 -14.7 -5.1 -14.75 -5.1 -14.75 -5.15 -14.9 -5.55 -15.0 -5.7 -15.6 -6.0 -15.7 -5.8 Q-15.7 -5.7 -15.6 -5.5 L-15.6 -5.45 -15.55 -5.35 -15.55 -5.3 Q-15.55 -5.15 -15.6 -5.0 L-15.7 -4.9 -16.15 -4.5 -16.4 -4.2 -16.6 -4.0 -16.8 -4.05 -16.8 -4.0 -16.95 -3.9 -17.2 -4.0 Q-17.15 -4.15 -17.2 -4.35 L-17.35 -4.55 -17.6 -4.7 -17.65 -4.65 -17.85 -4.75 -18.4 -4.8 -18.6 -4.8 -18.7 -4.9 Q-18.25 -5.05 -18.0 -5.25 L-18.0 -5.3 Q-18.0 -5.35 -17.95 -5.45 -17.85 -5.5 -17.85 -5.6 L-17.8 -5.65 -17.75 -5.7 -17.8 -5.75 -17.8 -5.8 -17.8 -5.85 -17.6 -5.6 -17.65 -5.5 Q-17.6 -5.45 -17.65 -5.45 L-17.75 -5.3 -17.8 -5.2 -17.8 -5.15 Q-17.9 -5.05 -18.05 -4.95 L-17.55 -4.75 -17.45 -4.75 -17.3 -4.65 -17.15 -4.6 -17.1 -4.5 -17.05 -4.45 -17.0 -4.35 -17.05 -4.25 -17.0 -4.2 -16.95 -4.2 -16.8 -4.15 Q-16.65 -4.1 -16.45 -4.25 L-16.4 -4.25 -16.25 -4.5 -16.2 -4.5 -16.05 -4.85 -15.95 -5.0 -15.85 -5.05 -15.8 -5.25 -15.7 -5.4 -15.75 -5.4 -15.8 -5.45 -15.75 -6.05 -15.75 -6.1 -16.35 -6.4 -17.15 -6.8 -17.4 -6.85 Q-17.45 -6.5 -17.65 -6.15 L-17.75 -6.0 -17.8 -5.95 -17.8 -5.9 -17.9 -6.0 -17.8 -6.3 -17.75 -6.65 -17.7 -6.95 -17.7 -7.0 -17.7 -7.05 -17.85 -7.1 -18.95 -7.65 Q-18.95 -7.5 -18.95 -7.3 -18.95 -7.0 -19.05 -6.75 L-19.1 -7.45 -19.2 -7.7 Q-19.4 -7.7 -19.7 -7.8 -20.3 -8.1 -21.35 -8.8 L-21.55 -8.95 Q-22.6 -9.75 -23.2 -10.4 L-23.4 -10.55 -23.45 -10.5 -23.65 -10.55 -23.7 -10.4 -24.0 -9.85 -24.05 -9.6 -24.1 -9.35 -24.15 -9.3 -24.25 -9.1 -24.3 -9.0 Q-24.5 -8.55 -24.6 -8.1 -24.5 -8.25 -24.25 -8.3 L-24.3 -8.35 Q-24.3 -8.7 -24.25 -8.7 -23.9 -8.65 -23.5 -8.5 L-23.4 -8.5 Q-22.5 -8.2 -21.4 -7.55 -20.7 -7.15 -20.25 -6.75 -19.7 -6.25 -19.55 -5.8 -19.6 -5.6 -19.65 -5.55 -19.75 -5.45 -20.0 -5.45 L-20.2 -5.6 -23.25 -7.55 -24.0 -8.1 -24.0 -7.8 M-34.8 -5.9 L-34.9 -6.15 Q-35.25 -7.05 -35.05 -7.35 L-34.95 -7.35 Q-34.85 -7.05 -34.8 -6.85 L-34.6 -6.6 Q-34.55 -6.25 -34.45 -6.15 L-34.4 -6.15 -34.35 -5.55 -34.35 -5.2 Q-34.4 -4.8 -34.4 -4.3 L-34.55 -5.05 Q-34.65 -5.75 -34.8 -5.9 M-18.6 -6.3 L-18.7 -6.35 -18.65 -6.4 -18.1 -6.1 -18.05 -6.05 -18.25 -6.15 -18.6 -6.3 M-19.95 -6.8 L-19.95 -6.8 M-2.25 1.25 L-1.8 1.4 -1.65 1.5 -2.25 1.25 M-1.5 1.35 L-1.75 1.3 -2.9 0.8 -3.3 0.65 -3.2 0.65 -2.95 0.6 -2.65 0.75 -1.5 1.35 M-3.55 0.5 L-3.95 0.3 -4.0 0.25 -3.55 0.5 M16.85 11.1 L16.6 11.0 16.85 11.1 M6.5 5.1 Q6.4 5.15 6.3 5.3 6.2 5.45 6.2 5.65 L6.25 5.8 6.2 5.9 6.2 5.95 6.15 6.0 Q6.15 6.2 6.25 6.3 L6.35 6.3 Q6.55 6.25 6.85 6.3 7.05 6.4 7.2 6.45 L7.25 6.2 Q7.3 6.2 7.3 6.15 L7.3 6.1 7.3 6.05 7.35 5.95 7.3 5.85 7.35 5.8 7.3 5.6 7.15 5.6 7.0 5.45 Q6.7 5.1 6.55 5.1 L6.5 5.1 M6.25 6.35 L5.95 6.25 6.3 6.4 6.25 6.35" fill="#111111" fill-rule="evenodd" stroke="none"/>
    <path d="M-24.85 -9.3 L-24.9 -9.05 Q-25.1 -8.75 -25.15 -8.3 L-25.2 -8.3 -25.15 -8.55 -25.1 -8.7 -24.95 -9.25 -24.9 -9.35 -24.85 -9.3 M-24.0 -7.8 L-24.0 -8.1 -23.25 -7.55 -24.0 -7.8 M-20.2 -5.6 L-20.0 -5.45 Q-19.75 -5.45 -19.65 -5.55 -19.6 -5.6 -19.55 -5.8 -19.7 -6.25 -20.25 -6.75 L-19.4 -6.35 -19.3 -6.25 -19.3 -6.3 -19.0 -6.3 -19.0 -5.85 Q-18.95 -5.75 -18.95 -5.7 L-18.95 -5.35 -19.0 -5.3 Q-19.05 -5.25 -19.15 -5.2 -18.95 -5.1 -18.7 -4.9 L-18.6 -4.8 -18.15 -4.35 Q-18.0 -4.3 -17.2 -4.0 L-16.95 -3.9 -16.25 -3.7 Q-15.55 -3.5 -15.25 -3.3 L-15.15 -3.3 Q-15.0 -3.3 -14.9 -3.2 L-14.85 -3.05 -15.75 -3.25 -14.95 -2.75 -14.95 -2.7 Q-15.05 -2.65 -15.15 -2.5 L-15.3 -2.5 Q-15.65 -2.5 -16.15 -2.65 L-16.8 -2.9 Q-17.6 -3.25 -18.05 -3.8 -18.35 -4.2 -18.95 -4.4 -19.4 -4.5 -19.7 -4.4 L-20.1 -4.65 Q-20.0 -4.8 -20.0 -5.0 -20.0 -5.25 -20.2 -5.5 L-20.2 -5.6 M-23.5 -8.5 Q-23.9 -8.65 -24.25 -8.7 -24.3 -8.7 -24.3 -8.35 L-24.25 -8.3 Q-24.5 -8.25 -24.6 -8.1 -24.5 -8.55 -24.3 -9.0 L-23.7 -8.65 -23.5 -8.5 M-23.7 -10.4 L-23.65 -10.55 -23.45 -10.5 -23.4 -10.55 -23.2 -10.4 Q-22.6 -9.75 -21.55 -8.95 L-21.35 -8.8 -22.6 -9.65 -23.7 -10.4 M-19.7 -7.8 Q-19.4 -7.7 -19.2 -7.7 L-19.1 -7.45 -19.05 -6.75 -19.05 -6.5 -19.2 -6.6 -19.2 -7.0 Q-19.2 -7.2 -19.7 -7.8 M-13.6 -4.55 L-14.1 -5.0 -14.25 -5.15 -14.35 -5.2 -14.35 -5.25 -14.65 -5.55 -14.15 -5.3 Q-13.8 -5.0 -13.4 -4.7 -13.55 -4.65 -13.55 -4.5 L-13.6 -4.55 M-4.3 0.1 Q-2.6 0.8 -1.6 0.9 L-1.4 1.0 -1.1 1.3 Q0.0 2.25 1.1 2.25 2.8 3.15 3.5 3.3 L3.7 3.4 3.6 3.4 3.2 3.5 Q3.05 3.5 2.45 3.15 L2.2 3.0 2.1 3.0 Q1.8 3.0 -0.45 1.85 L-1.5 1.35 -2.65 0.75 -2.95 0.6 -3.2 0.65 -3.3 0.65 -3.55 0.5 -4.0 0.25 -4.3 0.1 M3.05 4.6 L3.3 4.65 3.35 4.7 3.35 4.9 Q3.35 5.15 3.45 5.2 3.5 5.25 3.7 5.35 4.0 5.15 4.15 4.95 L4.2 4.95 4.45 5.05 4.6 5.1 4.6 5.15 Q4.5 5.4 4.5 5.6 L4.5 5.65 1.65 4.55 1.85 4.55 Q2.25 4.55 2.45 4.35 L2.8 4.5 2.95 4.55 3.05 4.6 M5.45 4.25 L5.1 4.0 4.95 4.05 4.8 3.9 6.05 4.4 Q6.55 5.0 7.45 5.5 L6.35 4.85 6.15 4.75 5.45 4.25 M17.0 11.7 L17.15 11.45 16.35 11.05 16.6 11.0 16.85 11.1 Q16.95 10.8 17.25 10.35 17.5 9.95 17.8 9.7 L17.75 9.65 17.7 9.6 18.15 9.85 18.45 9.6 18.55 9.4 18.6 9.55 18.65 9.85 Q18.65 10.25 18.2 10.85 17.7 11.55 17.15 11.75 L17.0 11.7 M9.8 7.75 Q9.4 7.65 9.05 7.6 8.35 7.25 6.75 6.6 L6.75 6.55 Q6.75 6.4 6.8 6.4 7.1 6.35 7.3 6.55 7.5 6.8 7.8 6.85 L8.0 6.85 8.4 6.95 8.45 6.95 Q8.6 7.0 8.7 7.1 L8.85 7.1 Q9.05 7.1 9.35 7.2 L9.3 7.25 Q9.3 7.4 9.8 7.75 M-16.25 -7.3 L-17.95 -8.05 Q-18.85 -8.5 -19.3 -8.75 -19.2 -8.8 -19.05 -8.8 -18.85 -8.8 -18.55 -8.65 L-18.4 -8.6 Q-17.0 -8.25 -16.2 -7.45 L-16.25 -7.3 M-22.2 -8.1 L-22.0 -8.05 -21.45 -7.75 -22.2 -8.1 M-44.55 20.25 L-44.6 20.2 -44.5 20.25 -44.55 20.25 M6.25 6.35 L6.3 6.4 5.95 6.25 6.25 6.35" fill="#000000" fill-rule="evenodd" stroke="none"/>
    <path d="M-24.6 -10.95 L-24.8 -10.55 -25.05 -10.35 -24.65 -10.85 -24.6 -10.95 M-23.4 -8.5 L-23.5 -8.5 -23.7 -8.65 -23.4 -8.5 M-24.25 -9.1 L-24.15 -9.3 -24.1 -9.35 -23.8 -9.2 Q-22.1 -8.55 -21.95 -8.45 -21.7 -8.45 -21.7 -8.7 -22.1 -9.05 -22.8 -9.25 L-23.95 -9.6 -24.05 -9.6 -24.0 -9.85 -23.7 -10.4 -22.6 -9.65 -21.35 -8.8 Q-20.3 -8.1 -19.7 -7.8 -19.2 -7.2 -19.2 -7.0 L-19.2 -6.6 Q-19.8 -6.95 -21.45 -7.75 L-22.0 -8.05 -22.2 -8.1 -22.35 -8.15 Q-23.45 -8.7 -24.25 -9.1 M-13.4 -4.7 Q-12.9 -4.35 -12.3 -4.0 L-10.75 -3.15 -10.95 -3.05 Q-11.05 -2.95 -11.05 -2.75 L-11.05 -2.7 -12.3 -3.35 -12.45 -3.45 Q-12.45 -3.35 -12.5 -3.35 L-12.5 -3.15 Q-12.5 -3.05 -12.0 -2.75 -10.55 -2.3 -8.75 -1.55 L-8.95 -1.65 -10.4 -2.4 Q-10.2 -2.45 -10.1 -2.55 L-9.6 -2.55 -9.2 -2.4 Q-7.2 -1.3 -5.65 -0.55 L-4.3 0.1 -4.0 0.25 -3.95 0.3 -3.95 0.5 -2.85 1.0 -2.25 1.25 -1.65 1.5 -1.5 1.65 Q-0.6 2.1 0.1 2.45 L0.15 2.4 1.4 2.95 3.05 3.7 Q2.9 3.8 2.9 3.95 2.85 4.35 2.8 4.45 L2.8 4.5 2.45 4.35 Q2.25 4.55 1.85 4.55 L1.65 4.55 Q0.9 4.45 -0.35 3.95 L-0.8 3.7 Q-2.75 2.7 -3.7 2.25 -5.2 1.4 -6.75 0.45 -8.35 -0.2 -10.7 -1.2 -13.3 -2.35 -14.05 -2.85 -14.3 -3.05 -14.3 -3.15 L-14.3 -3.35 Q-14.25 -3.35 -14.25 -3.45 L-13.3 -3.2 Q-13.75 -3.55 -13.75 -3.75 -13.75 -4.2 -13.45 -4.15 L-13.4 -4.25 Q-13.55 -4.35 -13.55 -4.45 L-13.55 -4.5 Q-13.55 -4.65 -13.4 -4.7 M3.05 4.5 L3.05 4.6 2.95 4.55 3.0 4.55 3.05 4.5 M16.35 11.05 L16.3 11.05 Q15.4 11.05 12.3 9.3 10.5 8.25 9.8 7.75 9.3 7.4 9.3 7.25 L9.35 7.2 Q9.05 7.1 8.85 7.1 L8.8 7.1 Q8.9 6.95 8.95 6.75 L9.05 6.3 Q9.2 6.45 9.6 6.65 10.15 6.95 10.45 6.95 10.6 6.95 11.9 7.65 13.4 8.45 13.75 8.55 14.35 8.8 15.95 9.25 17.45 9.7 17.6 9.7 L17.75 9.65 17.8 9.7 Q17.5 9.95 17.25 10.35 16.95 10.8 16.85 11.1 L16.6 11.0 16.35 11.05 M-19.3 -6.3 L-19.3 -6.25 -19.4 -6.35 -19.3 -6.3 M-4.8 0.1 L-4.8 0.05 -4.85 0.05 -4.9 0.1 -4.8 0.1" fill="#b69562" fill-rule="evenodd" stroke="none"/>
    <path d="M-17.7 -7.05 L-17.7 -7.0 -17.7 -7.05 M-15.75 -6.1 L-15.75 -6.05 -15.75 -6.1 M-15.8 -5.45 L-15.75 -5.4 -15.7 -5.4 -15.8 -5.25 -15.8 -5.45 M-17.8 -5.8 L-17.8 -5.75 -17.75 -5.7 -17.8 -5.65 -17.8 -5.8 M-14.75 -5.15 L-14.75 -5.1 -14.75 -5.15 M-14.7 -5.1 L-14.65 -5.0 -14.6 -4.85 -14.7 -5.1 M-14.9 -3.2 L-14.85 -3.25 -14.85 -3.05 -14.9 -3.2 M-14.75 -3.35 L-14.7 -3.4 -14.65 -3.4 -14.75 -3.35" fill="#91401a" fill-rule="evenodd" stroke="none"/>
    <path d="M-17.85 -7.1 L-17.7 -7.05 -17.7 -7.0 -17.7 -6.95 -17.8 -6.9 -17.85 -7.1 M-17.65 -4.65 L-17.6 -4.7 -17.35 -4.55 -17.2 -4.35 -17.2 -4.2 Q-17.2 -4.15 -17.3 -4.15 -17.4 -4.15 -17.5 -4.3 L-17.65 -4.6 -17.65 -4.65 M-14.1 -5.0 L-14.25 -5.05 -14.25 -5.15 -14.1 -5.0 M-14.35 -5.2 L-14.35 -5.25 -14.35 -5.2" fill="#5e2911" fill-rule="evenodd" stroke="none"/>
    <path d="M-19.05 -6.75 Q-18.95 -7.0 -18.95 -7.3 -18.95 -7.5 -18.95 -7.65 L-17.85 -7.1 -17.8 -6.9 -17.7 -6.95 -17.75 -6.65 -17.8 -6.3 -17.9 -6.0 -18.05 -6.05 -18.1 -6.1 -18.65 -6.4 -18.7 -6.35 -18.6 -6.3 -18.9 -6.35 Q-18.9 -6.45 -18.9 -6.25 -18.9 -6.15 -18.55 -5.85 -18.15 -5.45 -18.0 -5.45 L-17.95 -5.45 Q-18.0 -5.35 -18.0 -5.3 L-18.0 -5.25 Q-18.25 -5.05 -18.7 -4.9 -18.95 -5.1 -19.15 -5.2 -19.05 -5.25 -19.0 -5.3 L-18.95 -5.35 -18.95 -5.7 Q-18.95 -5.75 -19.0 -5.85 L-19.0 -6.3 -18.95 -6.35 -18.95 -6.4 -19.0 -6.5 -19.05 -6.5 -19.05 -6.75 M-17.8 -5.9 L-17.8 -5.95 -17.75 -6.0 -17.65 -6.15 Q-17.45 -6.5 -17.4 -6.85 L-17.15 -6.8 -16.35 -6.4 -16.35 -6.3 Q-16.35 -6.0 -16.25 -5.65 L-16.05 -4.95 -15.95 -5.0 -16.05 -4.85 -16.2 -4.5 -16.25 -4.5 -16.4 -4.25 -16.45 -4.25 Q-16.65 -4.1 -16.8 -4.15 L-16.95 -4.2 -17.0 -4.2 -17.05 -4.25 -17.0 -4.35 -17.05 -4.45 -17.1 -4.5 -17.15 -4.6 -17.3 -4.65 -17.45 -4.75 -17.55 -4.75 -18.05 -4.95 Q-17.9 -5.05 -17.8 -5.15 L-17.8 -5.2 -17.75 -5.3 -17.65 -5.45 Q-17.6 -5.45 -17.65 -5.5 L-17.6 -5.6 -17.8 -5.85 -17.8 -5.9 M-16.95 -3.9 L-16.8 -4.0 -16.8 -4.05 -16.6 -4.0 -16.4 -4.2 -16.15 -4.5 -15.7 -4.9 -15.6 -5.0 Q-15.55 -5.15 -15.55 -5.3 L-15.55 -5.35 -15.6 -5.45 -15.6 -5.5 -15.15 -5.1 -14.5 -4.6 -14.45 -4.4 Q-14.5 -4.1 -14.7 -3.7 -14.8 -3.5 -15.15 -3.3 L-15.25 -3.3 Q-15.55 -3.5 -16.25 -3.7 L-16.95 -3.9 M3.3 4.65 L3.45 4.4 3.45 4.3 3.5 4.3 3.65 3.85 3.95 4.05 4.0 4.1 Q4.15 4.1 4.25 4.45 L4.25 4.5 4.3 4.6 4.2 4.9 4.15 4.95 Q4.0 5.15 3.7 5.35 3.5 5.25 3.45 5.2 3.35 5.15 3.35 4.9 L3.35 4.7 3.3 4.65 M4.45 5.05 L4.6 4.9 Q4.65 4.6 4.75 4.35 L4.8 4.4 Q4.8 4.5 5.0 4.65 L5.55 4.7 5.6 4.75 5.65 5.0 5.65 5.15 6.0 5.4 6.05 5.4 Q5.9 5.85 5.9 6.05 5.9 6.15 5.9 6.25 L4.5 5.65 4.5 5.6 Q4.5 5.4 4.6 5.15 L4.6 5.1 4.45 5.05 M8.0 6.85 L7.6 6.7 7.55 6.65 7.55 6.6 7.65 6.6 7.7 6.05 Q7.85 6.05 8.05 6.15 8.35 6.3 8.4 6.55 L8.4 6.6 8.55 6.6 8.5 6.7 8.55 6.7 8.5 6.95 8.45 6.95 8.4 6.95 8.0 6.85 M6.25 5.8 L6.25 5.85 6.35 5.8 6.65 5.75 Q6.75 5.75 7.0 5.85 7.25 5.95 7.25 6.05 L7.3 6.1 7.3 6.15 Q7.3 6.2 7.25 6.2 L7.2 6.45 Q7.05 6.4 6.85 6.3 6.55 6.25 6.35 6.3 L6.25 6.3 Q6.15 6.2 6.15 6.0 L6.2 5.95 6.2 5.9 6.25 5.8" fill="#fcefc7" fill-rule="evenodd" stroke="none"/>
    <path d="M-24.9 -9.35 L-24.85 -9.35 -24.85 -9.3 -24.9 -9.35 M-20.25 -6.75 Q-20.7 -7.15 -21.4 -7.55 -22.5 -8.2 -23.4 -8.5 L-23.7 -8.65 -24.3 -9.0 -24.25 -9.1 Q-23.45 -8.7 -22.35 -8.15 L-22.2 -8.1 -21.45 -7.75 Q-19.8 -6.95 -19.2 -6.6 L-19.05 -6.5 -19.0 -6.5 -18.95 -6.4 -18.95 -6.35 -19.0 -6.3 -19.3 -6.3 -19.4 -6.35 -20.25 -6.75 M-24.1 -9.35 L-24.05 -9.6 -23.95 -9.6 -22.8 -9.25 Q-22.1 -9.05 -21.7 -8.7 -21.7 -8.45 -21.95 -8.45 -22.1 -8.55 -23.8 -9.2 L-24.1 -9.35 M-14.85 -3.25 L-14.75 -3.35 -14.65 -3.4 -14.6 -3.4 Q-14.45 -3.45 -14.3 -3.6 L-14.55 -3.55 -14.45 -3.7 Q-14.25 -4.1 -14.25 -4.5 L-14.35 -4.6 -14.3 -4.7 -14.3 -4.85 -14.15 -4.75 -14.0 -4.7 -13.9 -4.7 -13.6 -4.55 -13.55 -4.5 -13.55 -4.45 Q-13.55 -4.35 -13.4 -4.25 L-13.45 -4.15 Q-13.75 -4.2 -13.75 -3.75 -13.75 -3.55 -13.3 -3.2 L-14.25 -3.45 Q-14.25 -3.35 -14.3 -3.35 L-14.3 -3.15 Q-14.3 -3.05 -14.05 -2.85 L-14.85 -3.05 -14.85 -3.25 M-11.05 -2.7 Q-11.05 -2.5 -11.0 -2.5 L-10.95 -2.45 Q-10.95 -2.4 -10.55 -2.4 L-10.4 -2.4 -8.95 -1.65 -8.75 -1.55 Q-10.55 -2.3 -12.0 -2.75 -12.5 -3.05 -12.5 -3.15 L-12.5 -3.35 Q-12.45 -3.35 -12.45 -3.45 L-12.3 -3.35 -11.05 -2.7 M-0.45 1.85 L0.15 2.35 0.15 2.4 0.1 2.45 Q-0.6 2.1 -1.5 1.65 L-1.65 1.5 -1.8 1.4 -2.25 1.25 -2.85 1.0 -3.95 0.5 -3.95 0.3 -3.55 0.5 -3.3 0.65 -2.9 0.8 -1.75 1.3 -1.5 1.35 -0.45 1.85 M3.05 3.7 L3.25 3.65 3.15 3.95 Q3.05 4.35 3.05 4.5 L3.0 4.55 2.95 4.55 2.8 4.5 2.8 4.45 Q2.85 4.35 2.9 3.95 2.9 3.8 3.05 3.7 M9.05 6.3 L9.0 6.2 9.05 6.2 Q9.75 6.45 10.45 6.55 L10.5 6.6 Q11.3 6.95 11.7 7.05 11.95 6.95 12.2 7.05 12.65 7.25 12.8 7.25 L12.9 7.25 13.0 7.3 Q15.75 8.55 17.7 9.6 L17.75 9.65 17.6 9.7 Q17.45 9.7 15.95 9.25 14.35 8.8 13.75 8.55 13.4 8.45 11.9 7.65 10.6 6.95 10.45 6.95 10.15 6.95 9.6 6.65 9.2 6.45 9.05 6.3 M-19.95 -6.8 L-19.95 -6.8 M-4.8 0.1 L-4.9 0.1 -4.85 0.05 -4.8 0.05 -4.8 0.1" fill="#745a34" fill-rule="evenodd" stroke="none"/>
    <path d="M-17.9 -6.0 L-17.8 -5.9 -17.8 -5.85 -17.8 -5.8 -17.8 -5.65 -17.85 -5.6 Q-17.85 -5.5 -17.95 -5.45 L-18.0 -5.45 Q-18.15 -5.45 -18.55 -5.85 -18.9 -6.15 -18.9 -6.25 -18.9 -6.45 -18.9 -6.35 L-18.6 -6.3 -18.25 -6.15 -18.05 -6.05 -17.9 -6.0 M-16.35 -6.4 L-15.75 -6.1 -15.75 -6.05 -15.8 -5.45 -15.8 -5.25 -15.85 -5.05 -15.95 -5.0 -16.05 -4.95 -16.25 -5.65 Q-16.35 -6.0 -16.35 -6.3 L-16.35 -6.4 M-18.6 -4.8 L-18.4 -4.8 -17.85 -4.75 -17.65 -4.65 -17.65 -4.6 -17.5 -4.3 Q-17.4 -4.15 -17.3 -4.15 -17.2 -4.15 -17.2 -4.2 L-17.2 -4.35 Q-17.15 -4.15 -17.2 -4.0 -18.0 -4.3 -18.15 -4.35 L-18.6 -4.8 M-15.6 -5.5 Q-15.7 -5.7 -15.7 -5.8 L-15.6 -6.0 -15.0 -5.7 -14.9 -5.55 -14.75 -5.15 -14.75 -5.1 -14.7 -5.1 -14.6 -4.85 -14.45 -4.6 -14.5 -4.6 -15.15 -5.1 -15.6 -5.5 M3.65 3.85 L3.6 3.8 3.65 3.6 3.7 3.6 3.85 3.55 Q4.05 3.55 4.4 3.85 4.7 4.1 4.7 4.15 4.4 4.8 4.2 4.95 L4.15 4.95 4.2 4.9 4.3 4.6 4.25 4.5 4.25 4.45 Q4.15 4.1 4.0 4.1 L3.95 4.05 3.65 3.85 M4.8 4.4 Q4.85 4.2 5.2 4.2 L5.45 4.25 6.15 4.75 6.35 4.85 Q6.35 4.95 6.3 5.0 6.2 5.1 6.2 5.15 6.2 5.25 6.15 5.35 L6.05 5.4 6.0 5.4 5.65 5.15 5.65 5.0 5.6 4.75 5.55 4.7 5.0 4.65 Q4.8 4.5 4.8 4.4 M7.7 6.05 L7.7 5.65 Q8.15 5.85 8.65 6.05 L8.9 6.15 8.8 6.4 Q8.7 6.55 8.55 6.6 L8.4 6.6 8.4 6.55 Q8.35 6.3 8.05 6.15 7.85 6.05 7.7 6.05 M6.25 5.8 L6.2 5.65 Q6.2 5.45 6.3 5.3 6.4 5.15 6.5 5.1 L6.55 5.1 Q6.7 5.1 7.0 5.45 L7.15 5.6 7.3 5.6 7.35 5.8 7.3 5.85 7.35 5.95 7.3 6.05 7.3 6.1 7.25 6.05 Q7.25 5.95 7.0 5.85 6.75 5.75 6.65 5.75 L6.35 5.8 6.25 5.85 6.25 5.8" fill="#7c6507" fill-rule="evenodd" stroke="none"/>
    <path d="M-26.05 -17.5 Q-26.3 -17.3 -26.5 -17.1 -25.95 -17.25 -25.0 -17.0 -24.2 -16.8 -23.4 -16.45 L-23.25 -16.1 -22.45 -14.2 Q-22.45 -14.05 -23.2 -13.1 L-23.4 -12.85 -23.65 -12.55 Q-24.0 -12.85 -23.75 -13.55 L-23.7 -13.65 -23.85 -13.85 Q-23.75 -14.1 -23.75 -14.2 L-23.8 -14.3 Q-24.8 -14.95 -26.2 -16.35 -27.6 -17.65 -28.5 -18.15 -28.8 -18.35 -29.65 -18.15 L-30.05 -18.05 -30.15 -18.1 -30.7 -18.15 -30.2 -19.0 -30.0 -19.2 -29.9 -19.45 Q-29.9 -19.2 -29.65 -19.05 -29.4 -18.9 -28.95 -18.75 -28.75 -18.55 -28.5 -18.4 -27.45 -17.75 -26.85 -17.6 -26.4 -17.45 -26.05 -17.5 M-25.3 -7.35 L-25.3 -6.3 Q-25.3 -5.55 -25.2 -5.15 L-24.0 -4.4 Q-25.65 -3.6 -27.5 -3.2 L-28.0 -3.1 Q-28.65 -2.9 -29.3 -2.5 L-30.55 -2.4 Q-31.15 -2.35 -31.8 -2.4 -32.3 -2.35 -33.05 -2.55 -33.7 -2.7 -34.3 -2.95 L-34.3 -3.65 -34.4 -4.0 -34.65 -3.55 -34.65 -3.5 -34.7 -3.45 -34.75 -3.05 -35.0 -3.15 -35.05 -3.15 -35.3 -3.35 -35.45 -3.35 -35.6 -3.4 Q-37.1 -4.6 -37.45 -4.8 L-37.8 -4.95 -37.95 -5.15 -38.15 -5.25 Q-38.6 -5.7 -38.95 -6.15 L-39.2 -6.5 -39.05 -6.4 -38.55 -6.35 Q-38.5 -6.2 -38.25 -6.05 L-37.45 -5.85 -37.3 -5.9 -35.15 -5.6 Q-34.95 -5.85 -34.8 -5.9 -34.65 -5.75 -34.55 -5.05 L-34.4 -4.3 Q-34.4 -4.8 -34.35 -5.2 L-34.35 -5.55 -34.2 -5.5 -34.2 -5.6 -33.7 -5.65 -33.7 -5.45 -32.35 -5.3 Q-26.95 -4.9 -26.3 -6.0 -26.15 -6.25 -26.2 -6.55 L-26.2 -6.65 Q-25.6 -6.8 -25.35 -7.3 L-25.3 -7.35 M-31.7 -13.5 Q-31.7 -13.35 -31.6 -13.1 L-32.05 -13.15 -32.2 -13.15 -32.1 -13.3 Q-32.0 -13.4 -31.7 -13.5" fill="#595566" fill-rule="evenodd" stroke="none"/>
    <path d="M-29.9 -19.55 L-29.65 -20.1 Q-29.35 -19.95 -28.9 -19.8 -27.25 -19.4 -26.7 -19.1 -26.15 -18.8 -24.9 -17.95 L-25.1 -17.8 Q-25.65 -17.75 -26.05 -17.5 -26.4 -17.45 -26.85 -17.6 -27.45 -17.75 -28.5 -18.4 -28.75 -18.55 -28.95 -18.75 -29.4 -18.9 -29.65 -19.05 -29.9 -19.2 -29.9 -19.45 L-29.9 -19.55 M-23.65 -12.55 L-24.05 -11.9 Q-24.25 -11.4 -24.55 -10.95 L-24.6 -10.95 -24.65 -10.85 -25.05 -10.35 Q-25.95 -9.45 -27.05 -9.45 -28.45 -8.65 -31.0 -9.1 -32.0 -9.25 -32.9 -9.55 L-33.6 -9.6 Q-33.9 -9.85 -34.25 -10.25 L-34.4 -10.3 Q-34.6 -10.4 -34.9 -10.7 -35.25 -11.0 -35.45 -11.2 L-35.0 -12.0 Q-34.5 -12.95 -33.85 -13.9 L-33.6 -14.2 -32.9 -14.9 -32.25 -16.05 -32.25 -16.1 -31.55 -17.05 -30.8 -18.1 -30.75 -18.15 -30.7 -18.15 -30.15 -18.1 -30.05 -18.05 -29.65 -18.15 Q-28.8 -18.35 -28.5 -18.15 -27.6 -17.65 -26.2 -16.35 -24.8 -14.95 -23.8 -14.3 L-23.75 -14.2 Q-23.75 -14.1 -23.85 -13.85 L-23.7 -13.65 -23.75 -13.55 Q-24.0 -12.85 -23.65 -12.55 M-39.95 -7.25 Q-40.05 -7.35 -40.0 -7.5 L-39.95 -7.6 Q-38.2 -7.7 -37.25 -8.3 L-37.05 -8.35 -36.85 -8.4 -36.6 -8.75 -36.35 -9.2 -36.35 -9.25 Q-36.2 -9.45 -36.15 -9.7 L-35.9 -10.35 -35.85 -10.45 -35.65 -10.0 -35.45 -10.0 Q-35.35 -10.0 -34.85 -9.7 L-33.7 -8.8 -33.1 -8.35 Q-31.8 -7.75 -30.4 -7.25 -27.55 -6.25 -26.2 -6.65 L-26.2 -6.55 Q-26.15 -6.25 -26.3 -6.0 -26.95 -4.9 -32.35 -5.3 L-33.7 -5.45 -33.7 -5.65 -34.2 -5.6 -34.2 -5.5 -34.35 -5.55 -34.4 -6.15 -34.45 -6.15 Q-34.55 -6.25 -34.6 -6.6 L-34.8 -6.85 Q-34.85 -7.05 -34.95 -7.35 L-35.05 -7.35 Q-35.25 -7.05 -34.9 -6.15 L-34.8 -5.9 Q-34.95 -5.85 -35.15 -5.6 L-37.3 -5.9 -37.45 -5.85 -38.25 -6.05 Q-38.5 -6.2 -38.55 -6.35 L-39.05 -6.4 -39.2 -6.5 -39.6 -6.85 Q-39.9 -7.05 -39.95 -7.25 M-35.75 -10.05 L-35.8 -10.15 -35.9 -9.95 -35.7 -10.0 -35.75 -10.05 M-36.15 -9.4 L-36.2 -9.1 -35.95 -9.05 Q-36.05 -9.2 -36.15 -9.4 M-35.1 -7.5 Q-34.9 -7.35 -34.7 -7.25 L-34.7 -7.3 Q-34.95 -7.45 -35.25 -7.65 L-35.9 -8.1 Q-35.6 -7.85 -35.1 -7.5 M-31.7 -13.5 Q-32.0 -13.4 -32.1 -13.3 L-32.2 -13.15 -32.05 -13.15 -31.6 -13.1 Q-31.7 -13.35 -31.7 -13.5" fill="#9793a4" fill-rule="evenodd" stroke="none"/>
    <path d="M-24.8 -10.55 Q-25.0 -10.05 -25.0 -9.85 L-25.0 -9.55 -24.9 -9.35 -24.95 -9.25 -25.1 -8.7 -25.15 -8.55 -25.2 -8.3 -25.25 -8.1 -25.25 -8.05 -25.4 -7.8 -25.25 -7.7 -25.3 -7.35 -25.35 -7.3 Q-25.6 -6.8 -26.2 -6.65 -27.55 -6.25 -30.4 -7.25 -31.8 -7.75 -33.1 -8.35 L-33.7 -8.8 -34.85 -9.7 Q-35.35 -10.0 -35.45 -10.0 L-35.65 -10.0 -35.85 -10.45 -35.45 -11.2 Q-35.25 -11.0 -34.9 -10.7 -34.6 -10.4 -34.4 -10.3 L-34.25 -10.25 Q-33.9 -9.85 -33.6 -9.6 L-32.9 -9.55 Q-32.0 -9.25 -31.0 -9.1 -28.45 -8.65 -27.05 -9.45 -25.95 -9.45 -25.05 -10.35 L-24.8 -10.55 M-27.5 -3.2 L-26.65 -3.2 Q-25.2 -3.6 -23.9 -4.3 L-23.9 -4.35 -22.95 -3.8 -22.95 -3.55 -23.0 -3.4 -23.0 -3.3 -23.05 -3.3 -23.35 -2.8 -23.5 -2.95 -23.85 -2.85 Q-24.35 -2.7 -25.65 -2.4 L-25.85 -2.35 -27.55 -1.9 Q-27.95 -1.7 -28.1 -1.55 -28.55 -1.05 -29.2 -0.75 -29.7 -0.4 -30.35 -0.2 L-30.95 -0.05 -32.05 0.0 -32.2 -0.05 -32.65 0.0 Q-32.75 -0.25 -33.25 -0.9 -33.6 -1.4 -33.95 -1.65 L-33.9 -1.65 -34.15 -1.85 -34.3 -1.95 -34.35 -2.0 Q-34.6 -2.2 -34.5 -2.6 -34.4 -2.8 -34.35 -2.85 L-34.3 -2.85 -34.3 -2.95 Q-33.7 -2.7 -33.05 -2.55 -32.3 -2.35 -31.8 -2.4 -31.15 -2.35 -30.55 -2.4 L-29.3 -2.5 Q-28.65 -2.9 -28.0 -3.1 L-27.5 -3.2 M-34.75 -3.05 L-34.75 -2.95 -34.7 -2.95 -34.5 -2.8 -34.6 -2.8 -34.75 -2.1 -34.75 -1.8 Q-35.0 -1.7 -35.2 -1.45 L-35.55 -0.95 Q-36.3 -1.4 -37.05 -2.15 L-38.1 -3.3 Q-38.6 -3.8 -39.05 -3.95 -39.2 -4.3 -39.25 -4.55 -39.4 -4.55 -39.3 -4.35 L-39.4 -4.25 -39.45 -4.15 Q-39.45 -4.25 -39.5 -4.3 L-39.4 -4.45 Q-39.25 -4.65 -39.3 -4.7 L-39.4 -4.7 -39.6 -4.8 -39.65 -4.8 -39.65 -4.85 -39.9 -4.65 -40.0 -4.6 -40.5 -4.4 -40.25 -4.75 -40.95 -4.4 -41.2 -6.2 Q-41.3 -6.85 -41.45 -7.35 L-41.4 -7.55 -40.15 -7.55 -40.2 -7.5 -39.95 -7.25 Q-39.9 -7.05 -39.6 -6.85 L-38.7 -5.6 -38.2 -5.2 Q-38.2 -5.3 -38.15 -5.25 L-37.95 -5.15 -37.8 -4.95 -37.45 -4.8 Q-37.1 -4.6 -35.6 -3.4 L-35.35 -3.15 -35.25 -3.1 -35.05 -3.05 -35.05 -3.15 -35.0 -3.15 -34.75 -3.05 M-34.8 -3.05 L-34.8 -3.0 -34.75 -3.0 -34.8 -3.05" fill="#d9d8de" fill-rule="evenodd" stroke="none"/>
    <path d="M-23.35 -2.8 L-23.3 -2.7 Q-23.3 -2.6 -23.35 -2.45 L-23.45 -2.35 Q-24.0 -1.85 -24.25 -1.75 L-24.8 -1.4 Q-25.3 -1.15 -25.9 -0.9 L-26.55 -0.75 -26.6 -0.75 -26.6 -0.85 -29.2 -0.75 Q-28.55 -1.05 -28.1 -1.55 -27.95 -1.7 -27.55 -1.9 L-25.85 -2.35 -25.65 -2.4 Q-24.35 -2.7 -23.85 -2.85 L-23.5 -2.95 -23.35 -2.8 M-39.05 -3.95 L-39.15 -4.0 -39.3 -4.0 -39.45 -4.15 -39.4 -4.25 -39.3 -4.35 Q-39.4 -4.55 -39.25 -4.55 -39.2 -4.3 -39.05 -3.95 M-40.5 -4.4 L-40.9 -4.2 -40.95 -4.4 -40.25 -4.75 -40.5 -4.4 M-41.45 -7.35 L-41.5 -7.6 -41.4 -7.55 -41.45 -7.35" fill="#81838d" fill-rule="evenodd" stroke="none"/>
  </g>
</svg>
