<?xml version="1.0" encoding="UTF-8" standalone="no"?>
<svg xmlns:ffdec="https://www.free-decompiler.com/flash" xmlns:xlink="http://www.w3.org/1999/xlink" ffdec:objectType="shape" height="20.8px" width="20.35px" xmlns="http://www.w3.org/2000/svg">
  <g transform="matrix(1.0, 0.0, 0.0, 1.0, -6.75, 20.45)">
    <path d="M26.25 -17.95 L26.0 -18.3 Q25.35 -19.0 23.75 -19.55 22.8 -19.85 21.75 -20.05 L20.6 -20.2 Q19.95 -20.2 18.35 -19.6 L17.8 -19.45 17.2 -19.3 Q17.15 -19.25 16.9 -19.05 L16.75 -18.9 Q17.25 -18.4 17.65 -17.75 17.85 -17.4 18.2 -16.5 L18.3 -16.3 18.35 -16.15 18.4 -16.05 18.45 -15.75 18.85 -14.3 Q18.9 -14.35 19.0 -14.4 L19.25 -14.45 19.5 -14.55 Q20.0 -14.8 20.1 -14.8 L20.55 -15.05 Q21.5 -15.6 22.4 -16.0 24.25 -16.85 25.1 -16.75 L25.15 -16.75 25.35 -16.8 25.5 -16.85 Q25.7 -17.0 25.85 -17.05 L25.9 -17.05 Q26.1 -17.2 26.4 -17.25 L26.4 -17.2 26.5 -17.2 Q26.5 -17.6 26.25 -17.95 M15.95 -19.55 Q17.1 -19.7 18.95 -20.2 21.05 -20.65 23.25 -20.25 24.9 -19.75 26.05 -18.75 27.1 -17.8 27.1 -17.0 27.1 -16.8 26.9 -16.75 L26.4 -16.7 26.05 -16.6 26.0 -16.6 Q25.6 -16.05 25.6 -15.7 L25.75 -14.25 25.7 -12.1 Q25.65 -10.9 25.25 -10.0 24.5 -8.1 22.15 -6.8 22.0 -6.3 20.8 -5.4 L20.75 -5.35 Q19.2 -4.2 18.25 -4.2 L16.6 -3.85 Q16.6 -3.6 16.05 -3.05 15.5 -2.55 15.05 -2.5 15.4 -1.85 15.8 -0.5 15.8 -0.3 15.45 0.0 15.05 0.3 14.7 0.3 L14.6 0.35 Q13.95 0.35 13.6 -0.05 13.5 -0.15 13.45 -0.25 L13.4 -0.3 13.1 -0.15 Q12.85 0.0 12.4 0.0 12.2 0.0 12.1 -0.1 L12.1 -0.3 Q12.1 -0.35 12.1 -0.4 L12.15 -0.6 Q11.8 -0.65 11.6 -0.85 11.35 -1.1 11.35 -1.25 L11.65 -1.6 Q11.9 -1.75 11.9 -2.0 11.9 -2.1 11.7 -2.3 L11.45 -2.45 Q11.2 -2.45 11.1 -2.35 L10.9 -2.2 Q10.6 -2.2 10.4 -2.95 L10.35 -3.9 11.3 -3.8 11.95 -3.9 12.65 -4.0 12.6 -4.1 Q12.5 -4.35 12.45 -4.65 L12.25 -4.7 12.2 -4.7 Q10.85 -4.7 9.3 -6.25 8.75 -6.85 8.3 -7.45 7.95 -8.0 7.95 -8.25 7.95 -8.55 8.05 -8.9 7.85 -9.15 7.7 -9.6 7.55 -9.95 7.45 -10.35 7.3 -10.6 7.2 -10.9 6.95 -11.1 6.8 -11.65 6.75 -12.05 6.75 -12.5 6.75 -13.05 7.15 -13.15 L7.55 -13.2 8.95 -13.2 8.95 -13.25 9.1 -13.45 Q9.35 -13.7 9.55 -14.6 L9.75 -16.05 9.85 -16.55 9.95 -17.0 Q10.1 -17.4 10.3 -17.85 10.7 -18.2 11.9 -18.6 L13.3 -19.05 13.6 -19.2 Q14.7 -19.75 15.8 -19.65 15.85 -19.6 15.95 -19.55 M17.85 -16.85 Q17.55 -17.5 17.1 -18.15 16.3 -19.25 15.55 -19.25 14.85 -19.25 13.65 -18.75 L13.35 -18.55 Q12.75 -18.25 11.9 -18.05 L11.55 -17.9 Q11.2 -17.75 10.95 -17.55 10.6 -17.25 10.4 -16.75 L10.3 -16.55 10.1 -16.0 10.1 -15.8 Q9.85 -13.85 9.55 -13.2 L9.7 -13.2 10.05 -13.45 Q10.25 -13.6 10.4 -13.8 10.55 -14.05 10.75 -14.55 L11.2 -15.3 11.15 -15.35 Q11.15 -16.15 12.0 -16.1 L12.75 -16.55 12.85 -16.6 13.2 -16.75 12.55 -16.95 Q11.7 -16.9 11.25 -16.55 11.05 -16.4 10.95 -16.2 L10.75 -15.85 10.7 -15.65 10.7 -15.4 10.7 -15.3 10.65 -15.25 10.55 -15.05 10.55 -14.95 10.55 -14.9 Q10.55 -14.8 10.45 -14.5 L10.35 -14.3 10.2 -14.05 10.1 -14.05 Q10.25 -14.25 10.25 -14.4 L10.3 -14.65 10.6 -15.65 10.85 -16.55 10.9 -16.7 Q11.1 -16.95 11.35 -17.15 L11.4 -17.2 Q12.15 -17.75 13.05 -17.25 L13.25 -17.05 13.4 -16.95 13.55 -16.8 13.8 -16.6 13.9 -16.55 14.5 -16.0 14.95 -15.55 15.0 -15.55 15.05 -15.5 15.05 -15.4 15.15 -15.3 Q15.35 -14.95 15.55 -14.5 L15.55 -14.4 15.7 -13.85 15.7 -13.8 15.75 -13.75 Q15.8 -13.35 15.95 -12.25 16.1 -10.5 17.2 -9.25 L17.7 -8.75 17.9 -8.6 18.55 -7.95 Q19.25 -7.1 19.25 -6.4 19.25 -6.05 18.95 -5.6 L18.65 -5.05 18.7 -5.0 Q20.0 -5.35 20.8 -5.95 L21.3 -6.35 Q22.05 -7.1 22.05 -8.0 L22.05 -8.25 22.0 -8.65 22.0 -8.75 Q21.9 -9.2 21.7 -9.65 21.5 -10.05 21.25 -10.4 21.05 -10.85 20.9 -11.0 L20.2 -11.75 19.5 -12.45 19.5 -12.5 19.2 -12.8 Q18.8 -13.3 18.7 -13.7 L18.6 -14.25 18.35 -15.1 Q18.15 -16.0 17.95 -16.55 L17.85 -16.85 M13.45 -13.05 Q13.4 -13.1 13.35 -13.15 L13.35 -13.35 Q13.35 -13.7 13.8 -14.25 14.15 -14.7 14.5 -14.8 L14.6 -14.8 14.5 -14.75 Q13.9 -14.35 13.9 -13.9 13.9 -13.75 13.8 -13.4 14.05 -13.6 14.5 -13.9 L14.6 -13.95 Q15.1 -14.2 15.35 -14.2 L15.25 -14.45 15.3 -14.45 Q15.15 -14.85 14.95 -15.25 L14.85 -15.2 14.4 -15.2 Q14.1 -15.2 13.9 -15.45 13.75 -15.65 13.75 -15.75 13.75 -15.95 13.95 -16.05 14.05 -16.1 14.2 -16.1 L13.7 -16.5 13.15 -16.25 Q12.7 -16.0 12.5 -15.95 L12.75 -15.85 Q13.0 -15.7 13.05 -15.55 13.25 -15.7 13.55 -15.75 13.45 -15.65 13.15 -15.4 L13.0 -15.3 12.95 -15.25 12.85 -15.2 12.75 -15.05 Q12.6 -14.9 12.55 -14.65 L12.4 -14.15 12.25 -13.7 12.2 -13.6 11.95 -13.25 11.95 -13.15 11.9 -13.1 Q11.6 -12.7 11.35 -12.55 11.95 -12.3 12.15 -12.15 12.45 -11.9 12.45 -11.5 L12.45 -11.2 12.6 -11.1 12.65 -11.05 Q12.85 -10.75 13.35 -10.75 13.8 -10.75 13.95 -10.85 L14.0 -10.9 14.05 -10.9 14.25 -10.95 Q14.55 -11.05 14.85 -11.2 L15.15 -11.45 Q15.3 -11.65 15.5 -11.75 L15.6 -11.75 15.55 -11.8 15.55 -11.9 15.4 -11.75 Q14.95 -11.25 14.5 -11.25 13.95 -11.25 13.65 -11.6 13.4 -11.9 13.4 -12.1 L13.4 -12.4 13.45 -12.45 13.5 -12.4 13.5 -12.3 Q13.5 -12.0 13.55 -11.9 13.65 -11.65 14.05 -11.65 L14.5 -11.65 Q14.95 -11.75 15.25 -12.05 L15.6 -12.35 15.6 -12.75 15.45 -12.7 15.15 -12.5 Q14.9 -12.25 14.65 -12.25 L14.5 -12.25 Q14.15 -12.25 13.9 -12.4 L13.55 -12.7 13.8 -12.65 14.1 -12.6 14.5 -12.6 14.85 -12.7 Q15.15 -12.75 15.25 -12.85 L15.55 -13.1 15.5 -13.65 15.4 -13.65 14.8 -13.75 14.5 -13.7 Q14.2 -13.65 13.95 -13.35 L13.65 -13.0 13.55 -12.9 13.55 -12.95 13.5 -13.0 Q13.45 -13.0 13.45 -13.05 M12.75 -15.55 Q12.6 -15.7 12.3 -15.75 11.9 -15.9 11.75 -15.65 L11.9 -15.6 12.05 -15.6 Q12.15 -15.6 12.3 -15.5 L12.5 -15.45 12.65 -15.45 12.75 -15.55 M11.5 -13.15 L11.55 -13.1 Q11.3 -13.25 11.25 -14.05 11.1 -14.1 11.0 -14.25 10.95 -14.4 10.95 -14.55 L10.95 -14.6 11.05 -14.7 11.15 -14.7 11.4 -14.55 11.7 -14.75 Q12.1 -14.9 12.3 -14.9 L12.35 -14.85 12.05 -14.65 12.0 -14.6 11.9 -14.45 11.9 -14.5 11.75 -14.4 11.7 -14.25 11.75 -14.2 Q12.1 -14.0 12.2 -13.85 L12.35 -14.2 Q12.6 -14.9 12.75 -15.15 L12.2 -15.35 12.25 -15.25 Q10.95 -15.1 10.65 -14.0 L10.45 -13.3 10.3 -13.15 Q10.55 -13.05 10.75 -12.95 L10.85 -13.35 Q10.95 -13.65 11.05 -13.7 11.1 -13.8 11.1 -13.65 L11.0 -13.45 10.9 -13.3 Q10.9 -13.15 11.0 -13.05 L11.15 -12.85 Q11.4 -12.9 11.65 -13.05 11.75 -13.1 11.9 -13.25 L12.05 -13.55 12.0 -13.55 Q12.0 -13.75 11.75 -13.85 L11.75 -13.9 Q11.85 -13.95 11.7 -13.95 L11.45 -13.9 11.4 -13.65 Q11.4 -13.55 11.45 -13.3 L11.45 -13.25 11.5 -13.2 11.5 -13.15 M14.05 -15.75 Q14.15 -15.55 14.35 -15.55 L14.7 -15.55 14.5 -15.8 14.45 -15.85 Q14.4 -15.75 14.1 -15.75 L14.05 -15.75 M21.75 -9.75 L22.1 -8.95 Q22.45 -8.25 22.45 -8.0 L22.4 -7.95 22.45 -7.6 22.4 -7.4 Q24.0 -8.75 24.6 -9.7 25.4 -10.9 25.4 -12.85 25.4 -13.85 25.25 -14.75 L25.15 -15.2 25.1 -15.9 Q25.1 -16.0 25.2 -16.2 25.05 -16.35 25.0 -16.45 L24.95 -16.45 Q23.3 -16.45 21.5 -15.55 20.95 -15.25 20.35 -14.9 L19.9 -14.6 19.7 -14.45 Q19.4 -14.25 19.25 -14.2 L19.15 -14.15 18.95 -13.95 Q19.2 -13.35 19.7 -12.7 L20.1 -12.25 20.15 -12.2 20.15 -12.15 20.4 -11.95 20.45 -11.85 Q20.8 -11.55 21.6 -10.05 L21.75 -9.75 M7.15 -12.15 L7.15 -12.1 Q7.15 -11.6 7.5 -11.15 L7.55 -11.1 Q8.05 -10.15 8.95 -10.15 9.55 -10.15 9.8 -10.25 9.95 -10.55 9.95 -11.0 L9.95 -11.05 10.0 -11.15 10.05 -11.2 Q10.05 -11.3 10.2 -11.4 10.4 -11.5 10.6 -11.45 10.8 -11.45 10.9 -11.35 L11.15 -11.15 11.25 -11.05 Q11.45 -10.9 11.55 -10.9 L11.7 -10.9 11.85 -10.95 12.1 -11.2 12.15 -11.15 12.2 -11.3 12.2 -11.4 12.05 -11.85 11.75 -12.15 11.65 -12.25 Q10.85 -12.85 8.9 -12.85 L7.75 -12.85 Q7.55 -12.8 7.4 -12.65 7.2 -12.45 7.15 -12.2 L7.15 -12.15 M11.3 -10.6 Q11.1 -10.65 10.95 -10.85 L10.85 -11.05 10.8 -11.1 10.7 -11.15 10.45 -11.25 10.4 -11.25 Q10.15 -11.25 10.1 -11.05 L10.1 -10.9 10.2 -10.7 10.25 -10.45 10.0 -10.15 9.9 -9.95 9.85 -9.95 Q9.45 -9.7 8.9 -9.7 8.55 -9.7 8.3 -9.85 L8.1 -9.85 8.15 -9.75 Q8.3 -9.5 8.75 -9.0 9.5 -8.35 10.6 -8.2 L10.7 -8.2 Q10.75 -8.2 10.85 -8.15 L11.5 -8.1 11.75 -8.15 11.8 -8.15 Q12.4 -8.25 13.2 -8.8 L13.4 -9.0 Q14.05 -9.5 14.45 -10.05 L14.5 -10.2 14.5 -10.25 14.55 -10.25 14.75 -10.85 14.8 -10.9 14.8 -10.95 14.8 -11.0 14.85 -11.05 14.75 -11.0 Q14.5 -10.85 14.25 -10.75 L14.2 -10.75 14.15 -10.7 13.9 -10.55 Q13.55 -10.6 13.1 -10.7 L12.45 -10.9 12.35 -10.9 Q12.2 -10.7 11.8 -10.6 L11.6 -10.55 11.5 -10.6 11.3 -10.6 M8.55 -8.05 L8.55 -7.95 Q8.55 -7.65 9.7 -6.45 11.05 -5.15 11.9 -5.15 L12.1 -5.25 Q11.4 -5.35 10.35 -6.45 9.25 -7.55 9.25 -7.85 8.8 -8.05 8.45 -8.4 8.45 -8.2 8.55 -8.05 M10.45 -7.6 Q9.9 -7.65 9.45 -7.8 9.6 -7.4 9.95 -6.9 10.65 -5.95 11.55 -5.95 L11.35 -7.0 Q11.1 -7.1 10.75 -7.35 10.6 -7.5 10.45 -7.6 M11.9 -3.45 L10.9 -3.45 10.7 -3.5 10.65 -3.25 Q10.65 -3.0 10.75 -2.9 10.85 -2.8 11.05 -2.75 11.25 -2.85 11.6 -2.9 L12.1 -3.0 Q12.5 -3.1 12.65 -3.15 L13.05 -3.5 12.45 -3.5 11.9 -3.45 M14.05 -9.15 L13.55 -8.7 13.25 -8.45 Q12.5 -7.9 11.85 -7.75 L11.7 -7.7 Q11.6 -7.65 11.45 -7.6 12.1 -7.35 13.65 -7.35 14.1 -7.35 14.95 -7.9 L15.75 -8.5 Q15.4 -7.8 14.25 -7.3 L14.2 -7.25 13.15 -6.9 Q12.45 -6.9 12.0 -7.05 L11.95 -6.9 Q11.95 -6.65 12.0 -6.45 12.0 -6.1 12.35 -5.7 L12.35 -5.65 Q12.6 -5.4 12.9 -5.25 13.75 -4.7 15.35 -4.7 16.3 -4.7 17.1 -5.0 L17.7 -8.2 17.45 -8.4 17.1 -8.7 16.65 -9.3 16.55 -9.45 16.4 -9.6 16.2 -9.85 16.1 -10.05 16.05 -10.25 Q15.8 -10.95 15.65 -11.4 L15.6 -11.4 Q15.25 -11.2 15.05 -10.85 L15.0 -10.7 15.0 -10.65 14.65 -9.85 14.55 -9.7 14.05 -9.15 M15.0 -2.9 L15.05 -2.9 Q15.4 -3.0 15.75 -3.3 16.0 -3.5 16.1 -3.75 16.1 -4.0 15.9 -4.2 L15.35 -4.2 Q14.3 -4.2 13.55 -4.45 L12.85 -4.55 Q12.9 -4.4 13.0 -4.25 L13.2 -3.95 Q13.8 -3.75 14.15 -3.55 L14.3 -3.45 Q14.6 -3.2 14.65 -2.95 L14.7 -3.0 14.7 -2.95 14.8 -2.9 14.95 -2.9 15.0 -2.9 M12.05 -1.95 L12.05 -1.8 Q12.05 -1.75 11.9 -1.6 11.8 -1.45 11.8 -1.4 11.8 -0.9 12.35 -1.0 L12.35 -1.1 Q12.5 -1.2 12.85 -1.85 L13.2 -2.5 13.25 -2.55 13.25 -2.6 Q13.4 -2.9 13.4 -3.05 L13.4 -3.3 13.15 -3.3 12.6 -3.05 11.4 -2.6 Q11.95 -2.45 12.05 -1.95 M14.2 -1.8 Q14.2 -1.4 14.4 -0.95 14.65 -0.35 15.05 -0.35 15.15 -0.35 15.25 -0.4 15.4 -0.65 15.4 -0.85 15.4 -1.2 14.95 -1.8 14.55 -2.4 14.55 -2.7 L14.3 -3.0 14.2 -1.8 M14.05 -1.6 L14.05 -1.75 Q14.15 -2.1 14.15 -2.8 14.15 -3.85 13.6 -2.8 13.2 -2.05 13.1 -1.7 12.8 -1.05 12.6 -0.5 L12.6 -0.45 12.8 -0.45 Q12.85 -0.45 13.05 -0.55 L13.1 -0.6 13.35 -0.6 13.55 -0.65 13.6 -0.6 13.65 -0.6 13.8 -0.5 13.8 -0.4 13.9 -0.3 14.1 -0.15 Q14.35 -0.05 14.75 -0.05 L14.9 -0.05 Q14.5 -0.25 14.3 -0.85 14.15 -1.2 14.15 -1.55 L14.05 -1.6" fill="#111111" fill-rule="evenodd" stroke="none"/>
    <path d="M14.1 -12.6 Q14.0 -12.6 13.95 -12.65 L13.9 -12.65 Q13.8 -12.65 13.6 -12.8 13.45 -12.95 13.4 -13.05 L13.45 -13.05 Q13.45 -13.0 13.5 -13.0 L13.55 -12.95 13.55 -12.9 13.65 -13.0 13.95 -13.35 Q14.2 -13.65 14.5 -13.7 L14.8 -13.75 15.4 -13.65 15.5 -13.65 15.55 -13.1 15.25 -12.85 Q15.15 -12.75 14.85 -12.7 L14.5 -12.6 14.1 -12.6 M11.65 -13.05 L11.5 -13.1 11.5 -13.15 11.5 -13.2 11.45 -13.25 11.45 -13.3 Q11.4 -13.55 11.4 -13.65 L11.45 -13.9 11.7 -13.95 Q11.85 -13.95 11.75 -13.9 L11.75 -13.85 11.75 -13.8 Q11.5 -13.8 11.5 -13.55 L11.5 -13.4 Q11.55 -13.3 11.75 -13.3 11.95 -13.3 12.0 -13.55 L12.05 -13.55 11.9 -13.25 Q11.75 -13.1 11.65 -13.05 M14.5 -12.85 L14.55 -12.85 Q14.6 -12.95 14.6 -13.05 14.6 -13.25 14.5 -13.35 L14.35 -13.4 Q14.05 -13.4 14.05 -13.05 14.05 -12.95 14.05 -12.9 14.15 -12.75 14.35 -12.75 14.45 -12.75 14.5 -12.85" fill="#ffffff" fill-rule="evenodd" stroke="none"/>
    <path d="M10.05 -13.45 L10.25 -14.05 10.35 -14.3 10.45 -14.5 Q10.55 -14.8 10.55 -14.9 L10.55 -14.95 10.65 -15.25 10.7 -15.3 10.7 -15.4 10.7 -15.45 10.75 -15.85 10.95 -16.2 Q11.05 -16.4 11.25 -16.55 11.7 -16.9 12.55 -16.95 L13.2 -16.75 12.85 -16.6 12.75 -16.55 12.0 -16.1 Q11.15 -16.15 11.15 -15.35 L11.2 -15.3 10.75 -14.55 Q10.55 -14.05 10.4 -13.8 10.25 -13.6 10.05 -13.45 M11.4 -17.2 Q11.55 -17.65 12.75 -17.7 14.5 -17.35 15.45 -15.85 L16.45 -16.1 Q16.85 -16.25 17.85 -16.85 L17.95 -16.55 Q18.15 -16.0 18.35 -15.1 L18.6 -14.25 18.7 -13.7 Q18.8 -13.3 19.2 -12.8 L19.5 -12.5 19.5 -12.45 20.2 -11.75 19.8 -11.45 18.85 -10.65 17.8 -9.75 17.7 -9.6 17.65 -9.55 17.6 -9.65 17.7 -9.5 18.35 -8.65 18.9 -7.95 Q20.2 -8.65 20.8 -9.05 L21.25 -9.3 21.7 -9.65 Q21.9 -9.2 22.0 -8.75 L21.95 -8.75 21.9 -8.65 21.8 -8.6 22.0 -8.75 22.0 -8.65 22.05 -8.25 22.05 -8.0 Q22.05 -7.1 21.3 -6.35 L20.8 -5.95 Q20.0 -5.35 18.7 -5.0 L18.65 -5.05 18.95 -5.6 Q19.25 -6.05 19.25 -6.4 19.25 -7.1 18.55 -7.95 L17.9 -8.6 17.7 -8.75 17.2 -9.25 Q16.1 -10.5 15.95 -12.25 15.8 -13.35 15.75 -13.75 L15.7 -13.8 15.7 -13.85 15.55 -14.4 15.55 -14.5 Q15.35 -14.95 15.15 -15.3 L15.05 -15.4 15.05 -15.5 15.0 -15.55 14.95 -15.55 14.5 -16.0 13.9 -16.55 13.8 -16.6 13.55 -16.8 13.4 -16.95 13.25 -17.05 13.05 -17.25 Q12.15 -17.75 11.4 -17.2 M8.55 -8.05 Q8.45 -8.2 8.45 -8.4 8.8 -8.05 9.25 -7.85 9.25 -7.55 10.35 -6.45 11.4 -5.35 12.1 -5.25 L11.9 -5.15 Q11.05 -5.15 9.7 -6.45 8.55 -7.65 8.55 -7.95 L8.55 -8.05 M10.45 -7.6 Q10.6 -7.5 10.75 -7.35 11.1 -7.1 11.35 -7.0 L11.55 -5.95 Q10.65 -5.95 9.95 -6.9 9.6 -7.4 9.45 -7.8 9.9 -7.65 10.45 -7.6 M12.1 -3.0 L11.95 -3.25 11.9 -3.45 12.45 -3.5 13.05 -3.5 12.65 -3.15 Q12.5 -3.1 12.1 -3.0 M16.9 -10.85 L16.9 -10.85 M14.7 -2.95 L14.7 -3.0 14.65 -2.95 Q14.6 -3.2 14.3 -3.45 L14.15 -3.55 Q13.8 -3.75 13.2 -3.95 L13.0 -4.25 Q12.9 -4.4 12.85 -4.55 L13.55 -4.45 Q14.3 -4.2 15.35 -4.2 L15.9 -4.2 Q16.1 -4.0 16.1 -3.75 16.0 -3.5 15.75 -3.3 15.4 -3.0 15.05 -2.9 L15.0 -2.9 14.7 -2.95 14.95 -2.9 14.8 -2.9 14.7 -2.95 M12.6 -3.05 L13.15 -3.3 13.4 -3.3 13.4 -3.05 Q13.4 -2.9 13.25 -2.6 L13.25 -2.55 13.2 -2.5 12.85 -1.85 Q12.5 -1.2 12.35 -1.1 L12.35 -1.0 Q11.8 -0.9 11.8 -1.4 11.8 -1.45 11.9 -1.6 12.05 -1.75 12.05 -1.8 L12.05 -1.95 Q12.85 -2.45 12.9 -2.5 L12.95 -2.55 12.75 -2.9 12.6 -3.05 M14.2 -1.8 L14.3 -3.0 14.55 -2.7 Q14.55 -2.4 14.95 -1.8 15.4 -1.2 15.4 -0.85 15.4 -0.65 15.25 -0.4 15.15 -0.35 15.05 -0.35 14.65 -0.35 14.4 -0.95 14.2 -1.4 14.2 -1.8 M13.1 -1.7 Q13.2 -2.05 13.6 -2.8 14.15 -3.85 14.15 -2.8 14.15 -2.1 14.05 -1.75 L14.05 -1.6 Q13.95 -1.65 13.9 -1.65 L13.8 -1.05 13.8 -0.5 13.65 -0.6 13.6 -0.6 13.55 -0.65 13.35 -0.6 13.1 -0.6 13.15 -0.6 13.15 -0.8 13.2 -1.05 13.25 -1.25 13.35 -1.75 13.2 -1.65 13.1 -1.7" fill="#b4be2e" fill-rule="evenodd" stroke="none"/>
    <path d="M20.4 -11.95 L20.15 -12.15 20.15 -12.2 20.1 -12.25 19.7 -12.7 Q19.2 -13.35 18.95 -13.95 L19.15 -14.15 19.25 -14.2 Q19.4 -14.25 19.7 -14.45 L19.9 -14.6 20.35 -14.9 Q20.95 -15.25 21.5 -15.55 23.3 -16.45 24.95 -16.45 L25.0 -16.45 Q25.05 -16.35 25.2 -16.2 25.1 -16.0 25.1 -15.9 L25.15 -15.2 25.25 -14.75 Q25.4 -13.85 25.4 -12.85 25.4 -10.9 24.6 -9.7 24.0 -8.75 22.4 -7.4 L22.45 -7.6 22.4 -7.95 22.45 -8.0 Q22.45 -8.25 22.1 -8.95 L21.75 -9.75 Q22.95 -11.2 23.5 -12.6 23.65 -13.0 23.8 -13.8 L24.0 -14.55 Q21.9 -13.4 21.8 -13.3 L20.4 -11.95" fill="#13643c" fill-rule="evenodd" stroke="none"/>
    <path d="M11.9 -13.1 L12.25 -13.05 Q12.5 -12.9 12.7 -12.45 L13.1 -11.7 Q13.4 -11.25 13.75 -11.05 13.9 -10.95 14.05 -10.9 L14.0 -10.9 13.95 -10.85 Q13.8 -10.75 13.35 -10.75 12.85 -10.75 12.65 -11.05 L12.6 -11.1 12.45 -11.2 12.45 -11.5 Q12.45 -11.9 12.15 -12.15 11.95 -12.3 11.35 -12.55 11.6 -12.7 11.9 -13.1" fill="#9aa87b" fill-rule="evenodd" stroke="none"/>
    <path d="M10.05 -13.45 L9.7 -13.2 9.55 -13.2 Q9.85 -13.85 10.1 -15.8 L10.1 -16.0 10.3 -16.55 10.4 -16.75 Q10.6 -17.25 10.95 -17.55 11.2 -17.75 11.55 -17.9 L11.9 -18.05 Q12.75 -18.25 13.35 -18.55 L13.65 -18.75 Q14.85 -19.25 15.55 -19.25 16.3 -19.25 17.1 -18.15 17.55 -17.5 17.85 -16.85 16.85 -16.25 16.45 -16.1 L15.45 -15.85 Q14.5 -17.35 12.75 -17.7 11.55 -17.65 11.4 -17.2 L11.35 -17.15 Q11.1 -16.95 10.9 -16.7 L10.85 -16.55 10.6 -15.65 10.3 -14.65 10.25 -14.4 Q10.25 -14.25 10.1 -14.05 L10.2 -14.05 10.35 -14.3 10.25 -14.05 10.05 -13.45 M20.2 -11.75 L20.9 -11.0 Q21.05 -10.85 21.25 -10.4 21.5 -10.05 21.7 -9.65 L21.25 -9.3 20.8 -9.05 Q20.2 -8.65 18.9 -7.95 L18.35 -8.65 17.7 -9.5 17.6 -9.65 17.65 -9.55 17.7 -9.6 17.8 -9.75 18.85 -10.65 19.8 -11.45 20.2 -11.75 M22.0 -8.75 L22.0 -8.65 22.0 -8.75 21.8 -8.6 21.9 -8.65 21.95 -8.75 22.0 -8.75 M10.75 -15.85 L10.7 -15.45 10.7 -15.4 10.7 -15.65 10.75 -15.85 M10.65 -15.25 L10.55 -14.95 10.55 -15.05 10.65 -15.25 M12.1 -3.0 L11.6 -2.9 Q11.25 -2.85 11.05 -2.75 10.85 -2.8 10.75 -2.9 10.65 -3.0 10.65 -3.25 L10.7 -3.5 10.9 -3.45 11.9 -3.45 11.95 -3.25 12.1 -3.0 M16.9 -10.85 L16.9 -10.85 M14.7 -2.95 L15.0 -2.9 14.95 -2.9 14.7 -2.95 M12.05 -1.95 Q11.95 -2.45 11.4 -2.6 L12.6 -3.05 12.75 -2.9 12.95 -2.55 12.9 -2.5 Q12.85 -2.45 12.05 -1.95 M14.05 -1.6 L14.15 -1.55 Q14.15 -1.2 14.3 -0.85 14.5 -0.25 14.9 -0.05 L14.75 -0.05 Q14.35 -0.05 14.1 -0.15 L13.9 -0.3 13.8 -0.4 13.8 -0.5 13.8 -1.05 13.9 -1.65 Q13.95 -1.65 14.05 -1.6 M13.1 -0.6 L13.05 -0.55 Q12.85 -0.45 12.8 -0.45 L12.6 -0.45 12.6 -0.5 Q12.8 -1.05 13.1 -1.7 L13.2 -1.65 13.35 -1.75 13.25 -1.25 13.2 -1.05 13.15 -0.8 13.15 -0.6 13.1 -0.6" fill="#e2df65" fill-rule="evenodd" stroke="none"/>
    <path d="M20.4 -11.95 L21.8 -13.3 Q21.9 -13.4 24.0 -14.55 L23.8 -13.8 Q23.65 -13.0 23.5 -12.6 22.95 -11.2 21.75 -9.75 L21.6 -10.05 Q20.8 -11.55 20.45 -11.85 L20.4 -11.95" fill="#1c9558" fill-rule="evenodd" stroke="none"/>
    <path d="M13.4 -9.0 L13.5 -9.05 Q13.2 -8.95 13.1 -8.95 12.4 -8.95 11.6 -9.5 10.95 -10.0 10.95 -10.2 L11.3 -10.6 11.5 -10.6 11.6 -10.55 11.8 -10.6 Q12.2 -10.7 12.35 -10.9 L12.45 -10.9 13.1 -10.7 Q13.55 -10.6 13.9 -10.55 L14.15 -10.7 14.2 -10.75 Q14.5 -10.4 14.5 -10.3 L14.5 -10.2 14.45 -10.05 Q14.05 -9.5 13.4 -9.0 M14.75 -11.0 L14.85 -11.05 14.8 -11.0 14.8 -10.95 14.75 -11.0 M14.65 -9.85 L14.6 -9.75 Q14.7 -9.6 14.95 -9.4 L15.2 -9.1 Q14.65 -8.45 14.1 -8.15 L14.1 -8.2 13.65 -8.25 14.05 -9.15 14.55 -9.7 14.65 -9.85" fill="#c2caae" fill-rule="evenodd" stroke="none"/>
    <path d="M11.75 -12.15 L12.05 -11.85 12.2 -11.4 12.2 -11.3 12.15 -11.15 12.1 -11.2 11.85 -10.95 11.7 -10.9 11.55 -10.9 Q11.45 -10.9 11.25 -11.05 L11.15 -11.15 10.9 -11.35 Q10.8 -11.45 10.6 -11.45 10.4 -11.5 10.2 -11.4 10.05 -11.3 10.05 -11.2 L10.0 -11.15 9.95 -11.05 9.95 -11.0 Q9.95 -10.55 9.8 -10.25 9.55 -10.15 8.95 -10.15 8.05 -10.15 7.55 -11.1 L7.5 -11.15 Q7.15 -11.6 7.15 -12.1 L7.15 -12.15 Q7.6 -11.65 8.1 -11.65 L8.25 -11.7 9.25 -11.95 Q10.2 -12.2 10.95 -12.2 L11.75 -12.15" fill="#434b32" fill-rule="evenodd" stroke="none"/>
    <path d="M12.75 -15.55 L12.65 -15.45 12.5 -15.45 12.3 -15.5 Q12.15 -15.6 12.05 -15.6 L11.9 -15.6 11.75 -15.65 Q11.9 -15.9 12.3 -15.75 12.6 -15.7 12.75 -15.55 M14.05 -15.75 L14.1 -15.75 Q14.4 -15.75 14.45 -15.85 L14.5 -15.8 14.7 -15.55 14.35 -15.55 Q14.15 -15.55 14.05 -15.75" fill="#454e34" fill-rule="evenodd" stroke="none"/>
    <path d="M11.9 -13.1 L11.95 -13.15 11.95 -13.25 12.2 -13.6 12.25 -13.7 12.4 -14.15 12.55 -14.65 Q12.6 -14.9 12.75 -15.05 L12.85 -15.2 12.95 -15.25 13.0 -15.3 13.15 -15.4 Q13.45 -15.65 13.55 -15.75 13.25 -15.7 13.05 -15.55 13.0 -15.7 12.75 -15.85 L12.5 -15.95 Q12.7 -16.0 13.15 -16.25 L13.7 -16.5 14.2 -16.1 Q14.05 -16.1 13.95 -16.05 13.75 -15.95 13.75 -15.75 13.75 -15.65 13.9 -15.45 14.1 -15.2 14.4 -15.2 L14.85 -15.2 14.95 -15.25 Q15.15 -14.85 15.3 -14.45 L15.25 -14.45 15.35 -14.2 Q15.1 -14.2 14.6 -13.95 L14.5 -13.9 Q14.05 -13.6 13.8 -13.4 13.9 -13.75 13.9 -13.9 13.9 -14.35 14.5 -14.75 L14.6 -14.8 14.5 -14.8 Q14.15 -14.7 13.8 -14.25 13.35 -13.7 13.35 -13.35 L13.35 -13.15 Q13.4 -13.1 13.45 -13.05 L13.4 -13.05 Q13.45 -12.95 13.6 -12.8 13.8 -12.65 13.9 -12.65 L13.95 -12.65 Q14.0 -12.6 14.1 -12.6 L13.8 -12.65 13.55 -12.7 13.9 -12.4 Q14.15 -12.25 14.5 -12.25 L14.65 -12.25 Q14.9 -12.25 15.15 -12.5 L15.45 -12.7 15.6 -12.75 15.6 -12.35 15.25 -12.05 Q14.95 -11.75 14.5 -11.65 L14.05 -11.65 Q13.65 -11.65 13.55 -11.9 13.5 -12.0 13.5 -12.3 L13.5 -12.4 13.45 -12.45 13.4 -12.4 13.4 -12.1 Q13.4 -11.9 13.65 -11.6 13.95 -11.25 14.5 -11.25 14.95 -11.25 15.4 -11.75 L15.55 -11.9 15.55 -11.8 15.6 -11.75 15.5 -11.75 Q15.3 -11.65 15.15 -11.45 L14.85 -11.2 Q14.55 -11.05 14.25 -10.95 L14.05 -10.9 Q13.9 -10.95 13.75 -11.05 13.4 -11.25 13.1 -11.7 L12.7 -12.45 Q12.5 -12.9 12.25 -13.05 L11.9 -13.1 M11.65 -13.05 Q11.4 -12.9 11.15 -12.85 L11.0 -13.05 Q10.9 -13.15 10.9 -13.3 L11.0 -13.45 11.1 -13.65 Q11.1 -13.8 11.05 -13.7 10.95 -13.65 10.85 -13.35 L10.75 -12.95 Q10.55 -13.05 10.3 -13.15 L10.45 -13.3 10.65 -14.0 Q10.95 -15.1 12.25 -15.25 L12.2 -15.35 12.75 -15.15 Q12.6 -14.9 12.35 -14.2 L12.2 -13.85 Q12.1 -14.0 11.75 -14.2 L11.7 -14.25 11.75 -14.4 11.9 -14.5 11.9 -14.45 12.0 -14.6 12.05 -14.65 12.35 -14.85 12.3 -14.9 Q12.1 -14.9 11.7 -14.75 L11.4 -14.55 11.15 -14.7 11.05 -14.7 10.95 -14.6 10.95 -14.55 Q10.95 -14.4 11.0 -14.25 11.1 -14.1 11.25 -14.05 11.3 -13.25 11.55 -13.1 L11.5 -13.15 11.5 -13.1 11.65 -13.05" fill="#788659" fill-rule="evenodd" stroke="none"/>
    <path d="M11.75 -13.85 Q12.0 -13.75 12.0 -13.55 11.95 -13.3 11.75 -13.3 11.55 -13.3 11.5 -13.4 L11.5 -13.55 Q11.5 -13.8 11.75 -13.8 L11.75 -13.85 M14.5 -12.85 Q14.45 -12.75 14.35 -12.75 14.15 -12.75 14.05 -12.9 14.05 -12.95 14.05 -13.05 14.05 -13.4 14.35 -13.4 L14.5 -13.35 Q14.6 -13.25 14.6 -13.05 14.6 -12.95 14.55 -12.85 L14.5 -12.85" fill="#cccccc" fill-rule="evenodd" stroke="none"/>
    <path d="M13.4 -9.0 L13.2 -8.8 Q12.4 -8.25 11.8 -8.15 L11.75 -8.15 11.5 -8.1 10.85 -8.15 Q10.75 -8.2 10.7 -8.2 L10.6 -8.2 Q9.5 -8.35 8.75 -9.0 8.3 -9.5 8.15 -9.75 L8.1 -9.85 8.3 -9.85 Q8.55 -9.7 8.9 -9.7 9.45 -9.7 9.85 -9.95 L9.9 -9.95 10.0 -10.15 10.25 -10.45 10.2 -10.7 10.1 -10.9 10.1 -11.05 Q10.15 -11.25 10.4 -11.25 L10.45 -11.25 10.7 -11.15 10.8 -11.1 10.85 -11.05 10.95 -10.85 Q11.1 -10.65 11.3 -10.6 L10.95 -10.2 Q10.95 -10.0 11.6 -9.5 12.4 -8.95 13.1 -8.95 13.2 -8.95 13.5 -9.05 L13.4 -9.0 M14.2 -10.75 L14.25 -10.75 Q14.5 -10.85 14.75 -11.0 L14.8 -10.95 14.8 -10.9 14.75 -10.85 14.55 -10.25 14.5 -10.25 14.5 -10.2 14.5 -10.3 Q14.5 -10.4 14.2 -10.75 M14.65 -9.85 L15.0 -10.65 15.0 -10.7 15.05 -10.85 Q15.25 -11.2 15.6 -11.4 L15.65 -11.4 Q15.8 -10.95 16.05 -10.25 L16.1 -10.05 16.2 -9.85 16.4 -9.6 16.55 -9.45 16.65 -9.3 17.1 -8.7 17.45 -8.4 17.7 -8.2 17.1 -5.0 Q16.3 -4.7 15.35 -4.7 13.75 -4.7 12.9 -5.25 12.6 -5.4 12.35 -5.65 L12.35 -5.7 Q12.0 -6.1 12.0 -6.45 11.95 -6.65 11.95 -6.9 L12.0 -7.05 Q12.45 -6.9 13.15 -6.9 L14.2 -7.25 14.25 -7.3 Q15.4 -7.8 15.75 -8.5 L14.95 -7.9 Q14.1 -7.35 13.65 -7.35 12.1 -7.35 11.45 -7.6 11.6 -7.65 11.7 -7.7 L11.85 -7.75 Q12.5 -7.9 13.25 -8.45 L13.55 -8.7 14.05 -9.15 13.65 -8.25 14.1 -8.2 14.1 -8.15 Q14.65 -8.45 15.2 -9.1 L14.95 -9.4 Q14.7 -9.6 14.6 -9.75 L14.65 -9.85" fill="#9eab7e" fill-rule="evenodd" stroke="none"/>
    <path d="M11.75 -12.15 L10.95 -12.2 Q10.2 -12.2 9.25 -11.95 L8.25 -11.7 8.1 -11.65 Q7.6 -11.65 7.15 -12.15 L7.15 -12.2 Q7.2 -12.45 7.4 -12.65 7.55 -12.8 7.75 -12.85 L8.9 -12.85 Q10.85 -12.85 11.65 -12.25 L11.75 -12.15" fill="#b0ba96" fill-rule="evenodd" stroke="none"/>
    <path d="M18.3 -16.3 L18.2 -16.5 Q17.85 -17.4 17.65 -17.75 17.25 -18.4 16.75 -18.9 L16.9 -19.05 Q17.15 -19.25 17.2 -19.3 L17.8 -19.45 18.35 -19.6 Q19.95 -20.2 20.6 -20.2 L21.75 -20.05 Q22.8 -19.85 23.75 -19.55 25.35 -19.0 26.0 -18.3 L26.25 -17.95 26.05 -17.95 Q24.35 -17.95 21.8 -17.1 19.7 -16.4 18.3 -16.3" fill="#658175" fill-rule="evenodd" stroke="none"/>
    <path d="M18.3 -16.3 Q19.7 -16.4 21.8 -17.1 24.35 -17.95 26.05 -17.95 L26.25 -17.95 Q26.5 -17.6 26.5 -17.2 L26.4 -17.2 26.4 -17.25 Q26.1 -17.2 25.9 -17.05 L25.85 -17.05 Q25.7 -17.0 25.5 -16.85 L25.35 -16.8 25.15 -16.75 25.1 -16.75 Q24.25 -16.85 22.4 -16.0 21.5 -15.6 20.55 -15.05 L20.1 -14.8 Q20.0 -14.8 19.5 -14.55 L19.25 -14.45 19.0 -14.4 Q18.9 -14.35 18.85 -14.3 L18.45 -15.75 18.4 -16.05 18.35 -16.15 18.3 -16.3" fill="#33594e" fill-rule="evenodd" stroke="none"/>
    <path d="M11.0 -2.35 Q11.0 -2.55 11.2 -2.55 11.4 -2.55 11.4 -2.35 L11.55 -2.25 Q11.65 -2.1 11.7 -1.95 L11.8 -1.7 Q11.5 -1.4 11.5 -1.15 L11.6 -0.95 11.25 -0.75 Q10.6 -0.4 10.1 -0.45 8.95 -0.65 8.75 -1.1 8.7 -1.25 8.7 -1.4 L8.75 -1.6 Q8.95 -2.55 9.3 -3.0 9.25 -3.2 9.2 -3.5 9.2 -3.95 9.2 -4.4 9.25 -4.8 9.5 -5.05 9.8 -5.35 9.85 -5.55 9.85 -5.75 10.1 -5.9 L10.15 -5.95 10.25 -6.0 10.55 -6.3 10.55 -6.4 Q10.6 -6.8 10.85 -7.2 L11.0 -7.4 11.3 -7.1 11.25 -7.05 11.1 -6.85 Q11.0 -6.7 11.0 -6.5 L10.9 -5.7 10.95 -5.4 11.0 -5.35 11.05 -5.35 Q11.2 -5.3 11.75 -6.6 L11.75 -6.5 11.8 -6.2 11.55 -5.55 11.7 -5.55 11.8 -5.65 12.0 -5.65 Q12.05 -5.4 12.15 -5.2 L12.25 -5.05 Q12.2 -4.75 11.9 -4.4 L11.7 -4.0 11.7 -3.75 11.4 -3.8 11.4 -3.85 11.45 -4.0 11.4 -4.0 10.95 -3.8 10.9 -3.75 Q10.65 -3.75 10.5 -3.65 10.45 -3.6 10.4 -3.5 L10.35 -3.55 10.25 -3.6 Q10.05 -3.8 9.95 -3.7 9.65 -3.7 9.6 -3.3 9.6 -3.25 9.8 -2.95 L10.0 -2.75 Q10.15 -2.6 10.3 -2.55 10.5 -2.55 10.65 -2.55 10.75 -2.5 10.8 -2.45 L10.7 -2.4 Q10.55 -2.35 10.15 -2.4 10.0 -2.45 9.75 -2.6 L9.5 -2.8 9.45 -2.7 Q9.45 -2.6 9.7 -2.4 9.95 -2.2 10.35 -2.15 L10.8 -2.15 Q10.95 -2.25 11.0 -2.3 L11.0 -2.35 M11.25 -5.1 L10.85 -4.95 Q10.4 -4.85 9.65 -4.45 L9.6 -4.25 Q9.65 -4.0 9.85 -3.95 9.9 -3.9 10.05 -3.85 L10.25 -3.8 Q10.7 -3.7 11.2 -4.1 11.6 -4.4 11.6 -4.6 11.65 -4.75 11.75 -5.0 L11.9 -5.3 Q11.9 -5.4 11.85 -5.45 11.75 -5.35 11.25 -5.1 M10.75 -5.8 L10.7 -5.85 10.6 -5.85 10.4 -5.7 10.2 -5.5 10.05 -4.95 10.1 -4.9 10.15 -4.95 10.25 -4.95 10.7 -5.1 10.7 -5.2 10.8 -5.45 Q10.8 -5.55 10.8 -5.75 L10.8 -5.8 10.75 -5.8 M11.05 -2.0 Q10.75 -1.85 10.3 -1.95 L10.15 -1.95 Q10.15 -1.55 10.25 -1.2 L10.35 -0.9 10.45 -0.9 10.85 -0.95 Q11.5 -1.1 11.5 -1.3 L11.45 -1.75 Q11.45 -1.85 11.4 -1.95 L11.3 -2.1 Q11.25 -2.1 11.2 -2.1 L11.1 -2.05 11.05 -2.0 M9.9 -2.75 L9.95 -2.7 9.95 -2.65 10.0 -2.65 9.9 -2.75 M9.45 -2.3 Q9.2 -1.8 9.1 -1.4 L9.15 -1.2 Q9.2 -1.1 9.4 -1.0 9.4 -1.15 9.4 -1.25 9.45 -1.4 9.6 -1.9 L9.7 -2.1 Q9.55 -2.2 9.5 -2.3 L9.45 -2.3 M9.75 -1.95 Q9.6 -1.45 9.6 -1.35 9.55 -1.25 9.65 -1.05 L9.7 -0.9 9.9 -0.9 9.9 -1.45 9.95 -1.75 Q9.95 -1.9 10.05 -2.0 L9.8 -2.1 9.75 -1.95 M18.15 -8.05 Q18.4 -8.05 18.65 -7.75 18.9 -7.55 19.05 -7.15 19.15 -6.85 19.15 -6.7 L18.8 -5.8 Q18.9 -5.5 18.9 -5.25 18.9 -4.9 18.7 -4.35 18.6 -4.15 18.55 -3.9 18.65 -3.75 18.6 -3.4 L18.6 -2.95 Q18.6 -2.9 18.5 -2.75 L18.45 -2.3 Q18.5 -2.25 18.5 -2.1 L18.75 -1.85 Q19.25 -1.25 19.25 -0.75 L18.7 -0.25 Q18.1 0.35 17.65 0.35 16.45 0.35 16.15 -0.1 16.05 -0.25 16.1 -0.45 L16.1 -0.65 Q16.1 -1.75 16.4 -2.3 16.3 -2.55 16.2 -2.9 16.1 -3.4 16.05 -3.9 16.05 -4.3 16.25 -4.65 16.45 -5.0 16.45 -5.3 16.45 -5.5 16.7 -5.7 L16.7 -5.75 16.8 -5.85 Q16.95 -6.05 17.0 -6.25 L17.0 -6.35 Q17.0 -6.8 17.15 -7.3 17.25 -7.55 17.35 -7.7 L17.35 -7.95 Q17.35 -8.3 17.7 -8.5 18.0 -8.7 18.0 -8.25 18.0 -8.2 18.1 -8.1 L18.15 -8.05 M18.3 -7.5 L18.3 -7.6 18.25 -7.65 Q17.8 -7.65 17.6 -7.2 17.45 -6.9 17.45 -6.55 L17.5 -5.65 17.6 -5.3 17.7 -5.3 Q17.85 -5.3 18.3 -7.5 M17.5 -7.85 Q17.5 -7.75 17.55 -7.75 L17.55 -7.7 17.6 -7.65 17.85 -7.65 17.9 -7.7 17.95 -7.85 Q17.85 -8.0 17.7 -8.0 17.5 -8.05 17.5 -7.85 M18.0 -5.1 L17.55 -4.8 Q17.15 -4.6 16.45 -4.0 L16.5 -3.75 Q16.55 -3.5 16.75 -3.5 L16.85 -3.45 17.2 -3.4 Q17.65 -3.4 18.05 -3.9 18.4 -4.35 18.4 -4.55 18.4 -4.75 18.45 -5.05 L18.55 -5.4 Q18.55 -5.5 18.5 -5.55 18.4 -5.45 18.0 -5.1 M17.15 -5.75 L17.0 -5.55 16.8 -5.3 16.8 -4.6 16.85 -4.65 16.9 -4.65 16.95 -4.7 17.0 -4.7 17.4 -4.95 17.4 -5.05 17.45 -5.35 Q17.4 -5.45 17.35 -5.65 L17.35 -5.7 17.25 -5.8 17.15 -5.75 M17.6 -3.0 L17.35 -3.15 17.25 -3.2 Q17.0 -3.35 16.9 -3.2 16.6 -3.2 16.6 -2.75 16.6 -2.65 16.9 -2.4 L17.1 -2.2 Q17.3 -2.05 17.45 -2.05 17.7 -2.05 17.85 -2.15 18.0 -2.25 18.0 -2.4 L18.0 -2.45 17.8 -2.75 17.65 -2.95 17.6 -3.0 M16.6 -2.15 L16.6 -2.05 Q16.6 -1.9 16.85 -1.75 17.15 -1.6 17.55 -1.6 17.8 -1.6 18.0 -1.7 18.2 -1.8 18.2 -1.95 18.2 -2.05 18.15 -2.05 L18.05 -2.1 17.85 -1.95 Q17.75 -1.85 17.35 -1.85 17.15 -1.85 16.9 -2.0 L16.65 -2.15 16.6 -2.15 M17.15 -2.05 L17.0 -2.15 17.1 -2.1 17.15 -2.05 M17.05 -1.4 L17.0 -1.25 Q16.95 -0.65 16.95 -0.5 16.95 -0.4 17.1 -0.2 L17.15 -0.1 17.35 -0.1 17.3 -0.25 17.25 -0.7 17.2 -1.05 Q17.25 -1.25 17.3 -1.35 L17.05 -1.4 M16.65 -1.55 Q16.5 -0.95 16.5 -0.5 L16.55 -0.3 Q16.65 -0.2 16.85 -0.15 16.8 -0.3 16.8 -0.4 16.8 -0.6 16.9 -1.15 L16.95 -1.45 Q16.8 -1.5 16.7 -1.6 L16.65 -1.55 M18.4 -6.85 L18.4 -6.75 18.35 -6.5 18.3 -6.5 18.3 -6.4 18.15 -5.6 18.2 -5.6 18.3 -5.65 18.4 -5.8 Q18.65 -5.8 18.75 -6.1 18.85 -6.35 18.85 -6.5 18.85 -7.45 18.5 -7.0 L18.45 -6.95 18.4 -6.9 18.4 -6.85 M18.05 -2.7 L18.05 -2.65 18.15 -2.8 18.3 -3.25 18.3 -3.7 18.35 -3.85 18.3 -3.9 17.9 -3.55 Q17.7 -3.4 17.7 -3.25 L17.7 -3.15 Q17.85 -3.05 17.95 -2.85 L18.05 -2.7 M17.75 -0.2 L17.8 -0.2 18.25 -0.35 Q18.85 -0.65 18.85 -0.9 L18.7 -1.45 18.5 -1.85 Q18.45 -1.75 18.35 -1.6 L18.3 -1.6 18.3 -1.55 18.25 -1.55 17.9 -1.4 17.55 -1.35 17.4 -1.35 Q17.45 -0.9 17.6 -0.55 L17.75 -0.2" fill="#111111" fill-rule="evenodd" stroke="none"/>
    <path d="M10.0 -2.75 L9.8 -2.95 Q9.6 -3.25 9.6 -3.3 9.65 -3.7 9.95 -3.7 10.05 -3.8 10.25 -3.6 L10.35 -3.55 10.4 -3.5 10.4 -3.35 Q10.4 -3.25 10.45 -3.1 10.3 -2.95 10.0 -2.75 M11.0 -5.35 L10.95 -5.4 10.9 -5.7 11.0 -6.5 Q11.0 -6.7 11.1 -6.85 L11.05 -6.7 Q11.1 -6.3 11.1 -6.0 11.1 -5.7 11.0 -5.35 M10.75 -5.8 L10.8 -5.8 10.8 -5.75 Q10.8 -5.55 10.8 -5.45 L10.7 -5.2 10.7 -5.1 10.25 -4.95 10.15 -4.95 10.1 -4.9 10.05 -4.95 10.2 -5.5 10.4 -5.7 10.6 -5.85 10.7 -5.85 10.75 -5.8 M10.05 -3.85 Q9.9 -3.9 9.85 -3.95 9.65 -4.0 9.6 -4.25 L9.65 -4.45 Q10.4 -4.85 10.85 -4.95 L11.25 -5.1 11.1 -4.9 10.75 -4.4 Q10.55 -4.15 10.35 -4.05 L10.05 -3.85 M10.45 -0.9 L10.35 -0.9 10.25 -1.2 Q10.15 -1.55 10.15 -1.95 L10.3 -1.95 Q10.75 -1.85 11.05 -2.0 L10.8 -1.4 10.4 -0.9 10.45 -0.9 M9.9 -2.75 L10.0 -2.65 9.95 -2.65 9.95 -2.7 9.9 -2.75 M9.75 -1.95 L9.8 -2.1 10.05 -2.0 Q9.95 -1.9 9.95 -1.75 L9.9 -1.45 9.9 -0.9 9.7 -0.9 9.65 -1.05 Q9.55 -1.25 9.6 -1.35 9.6 -1.45 9.75 -1.95 M9.45 -2.3 L9.5 -2.3 Q9.55 -2.2 9.7 -2.1 L9.6 -1.9 Q9.45 -1.4 9.4 -1.25 9.4 -1.15 9.4 -1.0 9.2 -1.1 9.15 -1.2 L9.1 -1.4 Q9.2 -1.8 9.45 -2.3 M17.5 -7.85 Q17.5 -8.05 17.7 -8.0 17.85 -8.0 17.95 -7.85 L17.9 -7.7 17.85 -7.65 17.6 -7.65 17.55 -7.7 17.55 -7.75 Q17.5 -7.75 17.5 -7.85 M17.5 -5.65 L17.45 -6.55 Q17.45 -6.9 17.6 -7.2 17.8 -7.65 18.25 -7.65 L18.3 -7.6 18.3 -7.5 17.9 -6.55 17.5 -5.65 M17.15 -5.75 L17.25 -5.8 17.35 -5.7 17.35 -5.65 Q17.4 -5.45 17.45 -5.35 L17.4 -5.05 17.4 -4.95 17.0 -4.7 16.95 -4.7 16.9 -4.65 16.85 -4.65 16.8 -4.6 16.8 -5.3 17.0 -5.55 17.15 -5.75 M16.85 -3.45 L16.75 -3.5 Q16.55 -3.5 16.5 -3.75 L16.45 -4.0 Q17.15 -4.6 17.55 -4.8 L18.0 -5.1 17.95 -5.05 Q17.5 -4.1 16.85 -3.45 M17.1 -2.2 L16.9 -2.4 Q16.6 -2.65 16.6 -2.75 16.6 -3.2 16.9 -3.2 17.0 -3.35 17.25 -3.2 L17.35 -3.15 17.6 -3.0 17.55 -2.95 Q17.45 -2.5 17.1 -2.2 M17.15 -2.05 L17.1 -2.1 17.0 -2.15 17.15 -2.05 M16.65 -1.55 L16.7 -1.6 Q16.8 -1.5 16.95 -1.45 L16.9 -1.15 Q16.8 -0.6 16.8 -0.4 16.8 -0.3 16.85 -0.15 16.65 -0.2 16.55 -0.3 L16.5 -0.5 Q16.5 -0.95 16.65 -1.55 M17.05 -1.4 L17.3 -1.35 Q17.25 -1.25 17.2 -1.05 L17.25 -0.7 17.3 -0.25 17.35 -0.1 17.15 -0.1 17.1 -0.2 Q16.95 -0.4 16.95 -0.5 16.95 -0.65 17.0 -1.25 L17.05 -1.4 M18.45 -6.95 L18.4 -6.9 18.4 -6.85 18.4 -6.9 18.45 -6.95 M18.05 -2.7 L17.95 -2.85 18.05 -2.85 18.1 -2.8 18.05 -2.7 M17.9 -1.4 L17.8 -1.35 17.8 -0.35 17.75 -0.2 17.6 -0.55 Q17.45 -0.9 17.4 -1.35 L17.55 -1.35 17.9 -1.4" fill="#434b32" fill-rule="evenodd" stroke="none"/>
    <path d="M11.0 -2.35 L11.0 -2.3 Q10.95 -2.25 10.8 -2.15 L10.35 -2.15 Q9.95 -2.2 9.7 -2.4 9.45 -2.6 9.45 -2.7 L9.5 -2.8 9.75 -2.6 Q10.0 -2.45 10.15 -2.4 10.55 -2.35 10.7 -2.4 L10.8 -2.45 11.0 -2.35 M16.6 -2.15 L16.65 -2.15 16.9 -2.0 Q17.15 -1.85 17.35 -1.85 17.75 -1.85 17.85 -1.95 L18.05 -2.1 18.15 -2.05 Q18.2 -2.05 18.2 -1.95 18.2 -1.8 18.0 -1.7 17.8 -1.6 17.55 -1.6 17.15 -1.6 16.85 -1.75 16.6 -1.9 16.6 -2.05 L16.6 -2.15" fill="#b4be2e" fill-rule="evenodd" stroke="none"/>
    <path d="M10.65 -2.55 Q10.5 -2.55 10.3 -2.55 10.15 -2.6 10.0 -2.75 10.3 -2.95 10.45 -3.1 L10.5 -3.05 10.5 -3.0 Q10.5 -2.75 10.65 -2.55 M10.9 -3.75 L10.95 -3.8 11.4 -4.0 11.45 -4.0 11.4 -3.85 11.4 -3.8 10.9 -3.75 M12.0 -5.65 L11.8 -5.65 11.7 -5.55 11.55 -5.55 11.8 -6.2 11.95 -5.75 12.0 -5.65 M11.75 -6.6 Q11.2 -5.3 11.05 -5.35 L11.0 -5.35 Q11.1 -5.7 11.1 -6.0 11.1 -6.3 11.05 -6.7 L11.1 -6.85 11.25 -7.05 11.3 -7.1 Q11.35 -7.05 11.45 -7.0 11.6 -6.9 11.7 -6.8 L11.75 -6.6 M11.25 -5.1 Q11.75 -5.35 11.85 -5.45 11.9 -5.4 11.9 -5.3 L11.75 -5.0 Q11.65 -4.75 11.6 -4.6 11.6 -4.4 11.2 -4.1 10.7 -3.7 10.25 -3.8 L10.05 -3.85 10.35 -4.05 Q10.55 -4.15 10.75 -4.4 L11.1 -4.9 11.25 -5.1 M11.05 -2.0 L11.1 -2.05 11.2 -2.1 Q11.25 -2.1 11.3 -2.1 L11.4 -1.95 Q11.45 -1.85 11.45 -1.75 L11.5 -1.3 Q11.5 -1.1 10.85 -0.95 L10.45 -0.9 10.4 -0.9 10.8 -1.4 11.05 -2.0 M18.3 -7.5 Q17.85 -5.3 17.7 -5.3 L17.6 -5.3 17.5 -5.65 17.9 -6.55 18.3 -7.5 M18.0 -5.1 Q18.4 -5.45 18.5 -5.55 18.55 -5.5 18.55 -5.4 L18.45 -5.05 Q18.4 -4.75 18.4 -4.55 18.4 -4.35 18.05 -3.9 17.65 -3.4 17.2 -3.4 L16.85 -3.45 Q17.5 -4.1 17.95 -5.05 L18.0 -5.1 M17.6 -3.0 L17.65 -2.95 17.8 -2.75 18.0 -2.45 18.0 -2.4 Q18.0 -2.25 17.85 -2.15 17.7 -2.05 17.45 -2.05 17.3 -2.05 17.1 -2.2 17.45 -2.5 17.55 -2.95 L17.6 -3.0 M18.45 -6.95 L18.5 -7.0 Q18.85 -7.45 18.85 -6.5 18.85 -6.35 18.75 -6.1 18.65 -5.8 18.4 -5.8 L18.3 -5.65 18.2 -5.6 18.15 -5.6 18.3 -6.4 18.3 -6.5 18.35 -6.5 18.4 -6.75 18.4 -6.85 18.4 -6.9 18.45 -6.95 M17.95 -2.85 Q17.85 -3.05 17.7 -3.15 L17.7 -3.25 Q17.7 -3.4 17.9 -3.55 L18.3 -3.9 18.35 -3.85 18.3 -3.7 18.3 -3.25 18.15 -2.8 18.05 -2.65 18.05 -2.7 18.1 -2.8 18.05 -2.85 17.95 -2.85 M17.9 -1.4 L18.25 -1.55 18.3 -1.55 18.3 -1.6 18.35 -1.6 Q18.45 -1.75 18.5 -1.85 L18.7 -1.45 18.85 -0.9 Q18.85 -0.65 18.25 -0.35 L17.8 -0.2 17.75 -0.2 17.8 -0.35 17.8 -1.35 17.9 -1.4" fill="#2d3221" fill-rule="evenodd" stroke="none"/>
  </g>
</svg>
