<?xml version="1.0" encoding="UTF-8" standalone="no"?>
<svg xmlns:ffdec="https://www.free-decompiler.com/flash" xmlns:xlink="http://www.w3.org/1999/xlink" ffdec:objectType="shape" height="22.9px" width="21.2px" xmlns="http://www.w3.org/2000/svg">
  <g transform="matrix(1.0, 0.0, 0.0, 1.0, -10.25, 25.75)">
    <path d="M20.2 -18.2 Q18.3 -19.0 16.05 -18.45 15.35 -18.3 14.7 -17.9 15.6 -17.85 16.45 -17.6 16.65 -17.45 17.0 -17.3 17.35 -17.15 17.8 -17.0 L19.0 -16.5 Q19.1 -16.45 19.2 -16.4 20.0 -15.9 20.65 -15.15 21.1 -14.65 21.5 -14.05 L21.6 -13.8 21.75 -13.6 Q22.3 -12.45 22.7 -10.8 22.75 -10.55 22.65 -10.15 L22.6 -10.0 Q23.5 -10.9 23.9 -11.7 24.1 -12.0 24.2 -12.3 L24.15 -12.35 24.2 -12.4 Q24.4 -13.2 24.2 -14.05 24.15 -14.35 23.7 -15.05 L23.4 -15.5 23.35 -15.55 23.35 -15.6 23.3 -15.65 22.65 -16.4 22.45 -16.65 22.2 -16.85 Q21.65 -17.35 21.1 -17.7 20.65 -18.0 20.2 -18.2 M12.45 -17.45 Q12.75 -17.75 13.4 -17.9 14.9 -18.95 17.85 -18.9 19.25 -18.85 20.45 -18.5 L21.05 -18.3 21.95 -19.15 22.5 -19.7 22.55 -19.8 22.7 -19.95 Q23.2 -20.35 24.25 -20.3 L24.7 -20.25 24.75 -20.25 Q25.1 -20.95 25.65 -22.3 26.35 -23.95 26.75 -24.65 L26.6 -25.1 Q26.55 -25.35 26.6 -25.4 26.95 -25.95 27.8 -25.55 28.15 -25.4 28.35 -25.2 28.55 -24.9 28.4 -24.7 L28.0 -24.4 27.55 -24.1 27.4 -23.9 27.15 -23.4 Q26.45 -22.35 26.4 -22.2 L25.55 -20.15 25.9 -20.0 Q26.55 -20.45 27.7 -21.4 29.05 -22.55 29.75 -23.0 L29.85 -23.45 Q29.9 -23.7 30.0 -23.75 30.55 -24.1 31.15 -23.3 31.4 -23.0 31.45 -22.7 31.45 -22.4 31.25 -22.25 L30.75 -22.2 30.2 -22.15 29.95 -22.05 Q29.8 -21.85 29.55 -21.7 28.4 -21.1 28.3 -21.0 L26.7 -19.65 26.8 -19.55 27.05 -19.45 Q27.35 -19.25 27.6 -18.9 28.15 -18.15 28.5 -16.65 L28.6 -16.4 Q28.75 -15.6 28.75 -15.35 L28.75 -14.7 Q28.6 -14.2 28.3 -13.6 27.45 -12.1 26.8 -11.95 24.9 -11.8 24.35 -11.85 L24.2 -11.4 24.0 -11.1 23.8 -10.65 23.6 -10.3 23.35 -9.9 23.3 -9.8 Q22.55 -9.2 22.4 -9.0 L22.35 -8.95 22.1 -8.35 Q21.95 -8.1 21.8 -7.9 L21.85 -7.75 22.05 -7.0 Q22.15 -6.6 21.85 -5.9 21.5 -5.05 20.75 -4.85 20.0 -4.7 19.6 -4.9 L19.5 -4.95 Q18.45 -3.8 16.45 -3.3 L16.4 -3.3 Q16.25 -3.2 16.05 -3.15 L15.65 -3.2 15.05 -3.0 14.95 -3.0 14.75 -2.95 Q13.7 -2.7 12.85 -3.5 12.6 -3.7 12.4 -3.95 L12.1 -4.2 Q11.55 -4.75 11.15 -5.35 10.75 -5.9 10.7 -6.1 L10.65 -6.45 10.6 -6.55 Q10.45 -7.55 10.6 -8.85 L10.8 -11.05 10.7 -12.25 10.65 -12.3 10.5 -12.55 10.45 -12.7 Q10.3 -12.85 10.25 -13.05 10.25 -13.2 10.55 -14.15 10.9 -15.2 11.1 -15.55 L11.5 -16.4 Q11.7 -16.75 11.8 -16.9 12.1 -17.25 12.45 -17.45 M11.7 -15.95 L11.6 -15.7 11.45 -15.4 11.2 -14.7 Q11.1 -14.35 11.2 -14.05 L11.25 -14.05 11.25 -14.0 Q11.25 -13.9 11.35 -13.9 L11.3 -13.85 11.15 -13.8 11.15 -13.75 10.9 -13.55 Q10.75 -13.35 10.85 -13.15 L11.0 -13.35 11.1 -13.5 11.1 -13.45 11.35 -13.55 Q11.75 -14.05 13.1 -13.9 L13.45 -13.9 Q14.4 -13.8 15.3 -13.5 L15.35 -13.45 Q16.15 -13.4 16.7 -13.15 L16.85 -13.1 Q17.55 -12.7 19.05 -11.6 L19.35 -11.35 Q19.4 -11.35 19.45 -11.3 L20.5 -10.4 20.55 -10.4 20.95 -10.5 Q20.95 -10.6 20.95 -10.7 L20.85 -10.85 19.95 -12.15 Q19.45 -12.9 19.15 -13.35 18.95 -13.75 18.9 -13.95 L18.85 -14.1 18.85 -14.15 18.9 -14.2 19.25 -13.65 Q19.7 -12.95 20.45 -12.0 L21.4 -10.75 21.4 -10.7 21.75 -10.35 Q21.95 -10.25 22.1 -10.05 L22.15 -10.3 Q22.2 -11.0 22.15 -11.25 21.85 -12.75 21.6 -13.35 21.05 -14.65 20.2 -15.15 L20.2 -15.2 20.05 -15.35 19.55 -15.7 18.85 -16.15 18.4 -16.4 18.0 -16.6 Q15.5 -17.75 13.15 -17.25 12.7 -17.1 12.35 -16.9 L12.1 -16.55 11.7 -15.95 M25.6 -19.6 L25.3 -19.65 25.2 -19.7 Q24.2 -19.9 23.7 -19.8 23.15 -19.65 22.8 -19.45 L22.65 -19.35 22.4 -19.1 22.2 -18.8 21.9 -18.4 21.9 -17.9 21.85 -17.7 22.4 -17.15 22.75 -16.75 23.05 -16.4 23.65 -15.6 Q24.1 -14.95 24.3 -14.45 L24.45 -14.1 Q24.5 -13.9 24.45 -13.25 24.4 -13.05 24.4 -12.85 L24.4 -12.7 24.35 -12.4 24.6 -12.35 25.25 -12.25 25.25 -12.2 Q25.75 -12.15 26.55 -12.35 27.05 -12.45 27.7 -13.45 28.05 -13.95 28.25 -14.4 L28.3 -14.85 Q28.3 -15.45 28.25 -15.95 L28.25 -16.0 28.2 -16.4 28.15 -16.55 27.8 -17.65 27.8 -17.7 Q27.55 -18.2 27.3 -18.55 L27.2 -18.7 27.0 -18.9 26.4 -19.35 26.3 -19.4 25.75 -19.55 25.65 -19.6 25.6 -19.6 M12.45 -10.1 Q12.45 -10.35 12.5 -10.5 L12.4 -11.1 12.45 -11.2 Q12.4 -11.5 12.45 -11.7 12.4 -11.75 12.35 -11.8 12.4 -11.9 12.35 -12.0 12.3 -12.0 12.3 -12.1 L12.35 -12.15 12.3 -12.25 12.3 -12.3 Q12.25 -12.45 12.05 -12.7 11.75 -12.95 11.55 -12.9 L11.25 -12.85 Q11.35 -12.75 11.3 -12.65 L11.25 -12.55 11.35 -11.75 Q11.4 -11.05 11.4 -10.6 11.75 -11.05 11.95 -11.2 L12.0 -11.15 12.15 -11.15 12.05 -11.05 Q11.85 -10.85 11.75 -10.35 L11.75 -10.3 11.85 -10.25 11.95 -10.25 12.1 -10.2 Q12.3 -10.15 12.4 -10.0 L12.4 -10.05 12.45 -10.1 M16.6 -12.8 L16.45 -12.9 15.4 -13.2 15.35 -13.2 15.3 -13.25 15.0 -13.35 14.4 -13.45 Q13.05 -13.8 12.15 -13.6 L11.7 -13.45 11.55 -13.35 11.25 -13.1 11.95 -13.1 Q12.55 -13.1 12.6 -12.7 L12.6 -12.25 12.7 -12.1 12.7 -11.9 12.8 -11.55 Q12.85 -11.35 12.8 -10.85 L12.8 -10.65 Q13.1 -10.5 13.2 -10.0 13.35 -9.5 13.9 -8.8 L13.9 -8.75 14.0 -8.45 Q14.1 -8.05 14.2 -7.85 L14.25 -7.8 14.15 -7.65 14.1 -7.6 13.8 -7.25 13.6 -7.2 13.55 -7.2 Q13.45 -7.15 13.4 -7.1 L12.35 -7.1 12.15 -7.15 Q12.25 -6.9 12.65 -6.6 L12.95 -6.5 13.3 -6.4 Q13.85 -6.4 15.4 -6.75 L15.65 -6.85 15.7 -6.9 Q15.55 -7.0 15.4 -7.2 L15.05 -7.8 15.0 -8.1 15.1 -8.1 Q15.1 -7.6 15.6 -7.4 15.85 -7.3 16.55 -7.2 L16.7 -7.2 16.7 -7.15 16.75 -7.15 17.05 -7.2 17.05 -7.25 Q17.2 -7.2 17.45 -7.0 17.7 -6.75 17.75 -6.65 L17.75 -6.55 17.65 -6.45 Q17.35 -6.7 17.1 -6.9 L17.0 -6.9 16.85 -6.85 16.55 -6.85 16.0 -6.7 Q15.5 -6.5 14.8 -6.35 L14.1 -6.15 13.6 -6.1 13.4 -6.1 13.15 -6.15 Q12.75 -6.15 12.5 -6.4 L12.4 -6.45 12.4 -6.5 12.25 -6.7 Q12.05 -7.0 12.05 -7.25 11.75 -7.1 11.7 -7.05 11.7 -7.35 11.8 -7.45 L11.8 -7.5 Q11.7 -7.6 11.65 -7.75 L11.6 -7.9 Q11.6 -8.0 11.65 -8.25 L11.7 -8.3 11.8 -8.7 11.65 -8.7 Q11.55 -8.75 11.45 -8.9 L11.25 -9.15 11.2 -9.5 11.25 -9.5 Q11.3 -9.25 11.4 -9.1 11.45 -8.95 11.6 -8.95 L11.7 -8.95 11.7 -9.0 Q11.75 -9.05 11.75 -9.1 L11.65 -9.35 11.5 -9.6 11.45 -9.8 Q11.4 -9.75 11.35 -9.75 L11.2 -9.7 11.05 -9.05 Q10.7 -7.7 11.0 -6.45 11.0 -6.35 11.2 -6.05 L11.25 -6.0 11.25 -5.95 11.4 -5.8 12.05 -5.05 12.0 -5.4 Q12.0 -6.0 12.1 -6.1 L12.15 -5.25 Q12.3 -4.75 12.65 -4.3 L12.85 -4.05 Q14.15 -3.25 15.9 -3.65 L16.0 -3.65 16.35 -3.9 Q17.15 -4.45 17.15 -4.85 L17.2 -4.85 17.25 -4.75 17.1 -4.25 17.15 -4.25 17.2 -4.15 17.25 -4.1 17.3 -4.1 Q18.8 -4.8 19.65 -6.2 20.1 -6.9 20.3 -7.65 20.3 -7.7 20.3 -7.75 20.45 -8.4 20.35 -9.0 20.45 -8.35 20.45 -7.8 L20.65 -7.8 20.9 -7.75 Q21.15 -7.85 21.35 -7.95 21.4 -8.05 21.5 -8.15 L21.65 -8.2 Q21.85 -8.45 21.95 -8.7 L22.05 -9.0 Q22.1 -9.2 22.05 -9.35 L22.05 -9.45 22.1 -9.45 22.1 -9.6 22.05 -9.65 22.05 -9.7 21.9 -9.95 21.8 -10.1 Q21.75 -10.1 21.65 -10.2 L21.6 -10.15 Q21.5 -10.15 21.35 -10.3 L21.1 -10.2 21.1 -10.15 20.8 -10.0 20.6 -9.95 20.55 -9.8 20.45 -9.3 20.35 -9.0 20.35 -8.95 Q20.05 -7.95 19.95 -7.9 19.8 -7.85 19.6 -8.35 L19.4 -8.85 Q19.25 -9.45 19.3 -10.0 19.35 -10.45 19.2 -11.1 17.9 -12.15 17.35 -12.5 L17.3 -12.55 17.1 -12.65 16.6 -12.8 M16.8 -7.9 L16.7 -7.8 Q16.1 -7.7 15.75 -7.85 15.5 -8.0 15.5 -8.15 L15.45 -8.4 15.55 -8.4 Q15.35 -8.5 15.35 -8.7 L15.35 -8.8 Q15.5 -8.6 15.7 -8.5 16.0 -8.35 16.4 -8.45 16.8 -8.5 16.9 -8.65 L16.85 -8.8 Q16.85 -8.95 16.75 -9.1 16.7 -8.8 16.45 -8.65 L15.9 -8.55 Q15.65 -8.6 15.55 -8.75 15.55 -8.8 15.5 -9.0 L15.45 -9.15 15.3 -9.0 15.25 -8.95 Q15.2 -9.85 16.25 -9.65 L16.45 -9.6 16.5 -9.6 16.55 -9.55 16.9 -9.4 16.95 -9.35 17.05 -9.35 17.05 -9.45 17.05 -9.5 17.0 -9.75 16.85 -10.1 16.7 -10.4 16.45 -10.45 16.4 -10.5 16.4 -10.45 16.3 -10.5 16.05 -10.5 Q15.6 -10.4 15.45 -10.2 15.35 -10.05 15.25 -9.95 L15.2 -9.95 Q15.45 -10.4 16.05 -10.55 L16.5 -10.65 16.75 -10.6 16.8 -10.6 16.8 -10.55 17.0 -10.45 17.0 -10.4 Q17.25 -10.25 17.4 -9.8 L17.45 -9.65 17.5 -9.55 17.6 -9.15 17.6 -9.05 17.65 -8.95 Q17.7 -8.85 17.6 -8.6 17.55 -8.35 17.35 -8.3 L17.3 -8.3 Q17.1 -8.25 17.05 -8.4 L17.0 -8.45 16.75 -8.4 15.95 -8.3 Q15.75 -8.3 15.6 -8.35 15.85 -8.15 16.15 -8.05 16.45 -7.9 16.7 -8.0 L16.75 -8.0 16.9 -8.1 16.95 -8.1 17.0 -8.15 16.85 -7.9 16.8 -7.9 M17.45 -11.1 Q17.25 -11.2 17.1 -11.45 L16.8 -11.9 16.75 -11.95 16.55 -12.1 Q16.3 -12.3 15.9 -12.35 L15.2 -12.35 14.9 -12.3 14.75 -12.35 Q14.7 -12.4 14.65 -12.45 14.65 -12.65 14.65 -12.75 14.75 -13.05 15.2 -12.95 L15.25 -12.95 Q15.7 -12.85 16.25 -12.5 L16.6 -12.25 Q17.1 -11.75 17.45 -11.2 L17.5 -11.15 17.45 -11.1 M11.5 -9.8 L11.65 -9.5 Q11.75 -9.2 11.95 -9.25 L12.05 -9.25 12.2 -9.55 12.05 -9.5 Q11.85 -9.5 11.65 -9.65 11.55 -9.75 11.55 -9.8 L11.5 -9.85 11.5 -9.8 M20.2 -9.85 L20.25 -9.6 Q20.3 -9.9 20.25 -10.2 L19.65 -10.7 Q19.65 -10.5 19.55 -10.15 19.45 -9.75 19.5 -9.4 19.65 -8.75 19.85 -8.4 L20.2 -9.35 20.25 -9.55 20.05 -10.1 20.1 -10.1 20.2 -9.85 M21.45 -7.55 Q21.25 -7.4 21.0 -7.35 L20.45 -7.4 20.4 -6.75 Q20.2 -6.0 19.85 -5.4 L19.9 -5.4 Q20.35 -5.2 20.85 -5.3 21.4 -5.45 21.65 -6.2 21.8 -6.7 21.75 -6.95 L21.5 -7.4 21.45 -7.55 M11.9 -10.2 L11.7 -10.15 11.6 -9.9 11.6 -9.85 Q11.6 -9.75 11.75 -9.65 11.9 -9.6 11.95 -9.6 12.2 -9.65 12.25 -9.7 12.05 -9.85 11.95 -10.2 L11.9 -10.2 M12.55 -9.05 Q12.35 -8.85 12.1 -8.45 11.9 -8.15 11.9 -8.05 L11.85 -8.0 11.85 -7.95 Q11.9 -7.75 12.2 -7.5 12.3 -7.45 12.4 -7.4 12.75 -7.3 13.25 -7.4 L13.3 -7.45 13.6 -7.6 14.1 -7.95 13.75 -8.4 Q13.55 -8.7 13.5 -8.85 13.1 -10.0 12.75 -10.2 L12.75 -9.6 Q12.75 -9.25 12.55 -9.05 M16.35 -9.35 L16.35 -9.4 Q16.15 -9.5 15.85 -9.45 L15.55 -9.2 Q15.55 -9.1 15.55 -9.05 L15.6 -8.85 Q15.7 -8.7 15.9 -8.65 L16.45 -8.8 Q16.55 -8.9 16.5 -9.05 L16.35 -9.35 M15.35 -5.3 L15.2 -5.3 14.8 -5.2 Q14.1 -5.15 13.55 -5.45 13.0 -5.75 12.95 -6.0 L13.0 -6.0 13.25 -5.85 13.3 -5.85 13.5 -5.7 13.6 -5.65 Q14.2 -5.35 14.45 -5.4 14.85 -5.5 15.2 -5.65 L15.55 -5.85 15.8 -5.9 15.8 -5.85 15.85 -5.75 Q15.9 -5.65 15.6 -5.45 L15.45 -5.35 15.35 -5.3 M18.3 -6.75 L18.25 -6.8 18.3 -6.8 18.3 -6.75 M31.0 -23.0 L30.85 -23.35 Q30.4 -23.6 30.25 -23.5 30.2 -23.45 30.15 -23.2 L30.05 -23.05 Q30.15 -23.0 30.3 -22.8 30.45 -22.8 30.6 -22.65 30.8 -22.5 31.1 -22.6 31.15 -22.65 31.0 -23.0 M29.95 -22.75 L29.25 -22.4 Q29.15 -22.3 28.3 -21.65 L27.45 -20.95 Q27.2 -20.8 26.45 -20.1 L26.2 -19.9 26.4 -19.8 Q26.95 -20.45 27.85 -21.05 L29.9 -22.4 29.95 -22.45 30.0 -22.6 29.95 -22.75 M26.95 -25.35 Q26.95 -25.3 27.0 -25.0 L27.0 -24.85 Q27.1 -24.85 27.3 -24.7 L27.65 -24.75 Q27.9 -24.7 28.1 -24.9 28.1 -25.0 27.85 -25.25 L27.55 -25.45 Q27.05 -25.45 26.95 -25.35 M27.15 -24.15 L27.15 -24.45 27.05 -24.55 26.6 -23.9 Q26.5 -23.75 26.1 -22.75 L25.65 -21.75 Q25.5 -21.5 25.2 -20.55 L25.05 -20.2 25.25 -20.2 Q25.45 -21.0 26.0 -22.0 L27.15 -24.15" fill="#111111" fill-rule="evenodd" stroke="none"/>
    <path d="M15.35 -8.8 L15.35 -8.85 15.3 -9.0 15.45 -9.15 15.5 -9.0 Q15.55 -8.8 15.55 -8.75 15.65 -8.6 15.9 -8.55 L16.45 -8.65 Q16.7 -8.8 16.75 -9.1 16.85 -8.95 16.85 -8.8 L16.9 -8.65 Q16.8 -8.5 16.4 -8.45 16.0 -8.35 15.7 -8.5 15.5 -8.6 15.35 -8.8 M11.5 -9.8 L11.5 -9.85 11.55 -9.8 Q11.55 -9.75 11.65 -9.65 11.85 -9.5 12.05 -9.5 L12.2 -9.55 12.05 -9.25 11.95 -9.25 Q11.75 -9.2 11.65 -9.5 L11.5 -9.8" fill="#ffffff" fill-rule="evenodd" stroke="none"/>
    <path d="M11.35 -11.75 Q12.0 -11.65 12.05 -11.35 L12.0 -11.15 11.95 -11.2 Q11.75 -11.05 11.4 -10.6 11.4 -11.05 11.35 -11.75 M12.05 -11.05 L12.2 -11.05 12.25 -10.7 Q12.35 -10.3 12.45 -10.1 L12.4 -10.05 12.4 -10.0 Q12.3 -10.15 12.1 -10.2 L11.95 -10.25 11.85 -10.25 11.75 -10.3 11.75 -10.35 Q11.85 -10.85 12.05 -11.05 M14.15 -7.65 L14.25 -7.8 14.2 -7.85 Q14.1 -8.05 14.0 -8.45 L13.9 -8.75 13.9 -8.8 Q13.35 -9.5 13.2 -10.0 13.1 -10.5 12.8 -10.65 L12.8 -10.85 Q12.85 -11.35 12.8 -11.55 L12.7 -11.9 12.7 -12.1 12.6 -12.25 12.6 -12.7 Q12.55 -13.1 11.95 -13.1 L11.25 -13.1 11.55 -13.35 11.7 -13.45 12.15 -13.6 Q13.05 -13.8 14.4 -13.45 L15.0 -13.35 15.3 -13.25 15.35 -13.2 15.4 -13.2 16.45 -12.9 16.6 -12.8 Q16.6 -12.55 16.35 -12.5 L16.25 -12.5 Q15.7 -12.85 15.25 -12.95 L15.2 -12.95 Q14.75 -13.05 14.65 -12.75 L14.5 -12.75 Q14.05 -12.65 14.05 -11.25 L14.1 -11.15 Q14.2 -11.1 14.35 -11.1 14.4 -11.1 15.15 -11.6 15.8 -12.05 16.0 -12.35 L15.9 -12.35 Q16.3 -12.3 16.55 -12.1 L16.8 -11.9 17.1 -11.45 Q17.25 -11.2 17.45 -11.1 L17.45 -9.65 17.4 -9.8 Q17.25 -10.25 17.0 -10.4 L17.0 -10.45 16.8 -10.55 Q16.7 -10.8 16.55 -10.65 L16.5 -10.65 16.05 -10.55 Q15.45 -10.4 15.2 -9.95 L15.25 -9.95 Q15.35 -10.05 15.45 -10.2 15.6 -10.4 16.05 -10.5 L16.3 -10.5 16.3 -10.15 Q16.3 -9.8 16.3 -9.7 L16.45 -9.6 16.25 -9.65 Q15.2 -9.85 15.25 -8.95 L15.3 -9.0 15.35 -8.85 15.35 -8.8 15.35 -8.7 Q15.35 -8.5 15.55 -8.4 L15.45 -8.4 15.5 -8.15 Q15.5 -8.0 15.75 -7.85 16.1 -7.7 16.7 -7.8 L16.8 -7.9 Q16.9 -7.85 17.0 -7.85 L17.1 -7.9 17.15 -7.9 17.05 -7.5 16.95 -7.45 16.55 -7.2 Q15.85 -7.3 15.6 -7.4 15.1 -7.6 15.1 -8.1 L15.0 -8.1 15.05 -7.8 15.4 -7.2 Q15.55 -7.0 15.7 -6.9 L15.65 -6.85 15.4 -6.75 Q13.85 -6.4 13.3 -6.4 L12.95 -6.5 12.65 -6.6 Q12.25 -6.9 12.15 -7.15 L12.35 -7.1 12.4 -7.0 Q12.7 -6.5 13.2 -6.6 13.75 -6.7 14.0 -7.15 14.15 -7.4 14.15 -7.65 M20.45 -9.3 L20.55 -9.8 20.65 -10.0 20.8 -10.0 21.1 -10.15 21.1 -10.2 21.35 -10.3 Q21.5 -10.15 21.6 -10.15 L21.65 -10.2 Q21.75 -10.1 21.8 -10.1 L21.9 -9.95 Q21.5 -9.9 21.3 -9.8 21.05 -9.7 20.85 -9.35 20.6 -8.9 20.5 -8.85 L20.45 -9.0 20.45 -9.3 M12.65 -4.3 Q12.3 -4.75 12.15 -5.25 L12.1 -6.1 Q12.0 -6.0 12.0 -5.4 L12.05 -5.05 11.4 -5.8 11.25 -5.95 11.25 -6.0 11.2 -6.05 Q11.0 -6.35 11.0 -6.45 10.7 -7.7 11.05 -9.05 L11.2 -9.7 11.35 -9.75 Q11.4 -9.75 11.45 -9.8 L11.5 -9.6 11.65 -9.35 11.75 -9.1 Q11.75 -9.05 11.7 -9.0 L11.7 -8.95 11.6 -8.95 Q11.45 -8.95 11.4 -9.1 11.3 -9.25 11.25 -9.5 L11.2 -9.5 11.25 -9.15 11.45 -8.9 Q11.55 -8.75 11.65 -8.7 11.55 -8.65 11.55 -8.55 11.5 -8.45 11.5 -8.35 11.5 -8.3 11.55 -8.25 L11.65 -8.2 11.65 -8.25 Q11.6 -8.0 11.6 -7.9 L11.65 -7.75 Q11.7 -7.6 11.8 -7.5 L11.8 -7.45 Q11.7 -7.35 11.7 -7.05 11.75 -7.1 12.05 -7.25 12.05 -7.0 12.25 -6.7 L12.4 -6.5 12.4 -6.45 12.5 -6.4 Q12.75 -6.15 13.15 -6.15 L13.4 -6.1 13.6 -6.1 14.1 -6.15 14.8 -6.35 Q15.5 -6.5 16.0 -6.7 L16.55 -6.85 16.85 -6.85 17.0 -6.9 Q16.95 -6.65 17.0 -6.35 17.05 -5.85 16.55 -5.2 15.85 -4.25 14.5 -3.95 13.65 -3.75 13.1 -4.0 L12.65 -4.3 M16.75 -8.4 L16.7 -8.35 Q16.55 -8.2 16.6 -8.1 L16.7 -8.0 Q16.45 -7.9 16.15 -8.05 15.85 -8.15 15.6 -8.35 15.75 -8.3 15.95 -8.3 L16.75 -8.4 M16.95 -9.35 L17.05 -9.45 17.05 -9.35 16.95 -9.35 M15.35 -5.3 Q15.9 -5.5 16.3 -5.9 L16.7 -6.45 16.7 -6.5 16.55 -6.5 16.35 -6.55 Q16.25 -6.5 15.7 -6.15 L15.05 -5.8 13.85 -5.75 13.25 -5.85 13.0 -6.0 12.95 -6.0 Q13.0 -5.75 13.55 -5.45 14.1 -5.15 14.8 -5.2 L15.2 -5.25 15.2 -5.3 15.35 -5.3" fill="#c7a36d" fill-rule="evenodd" stroke="none"/>
    <path d="M11.35 -11.75 L11.25 -12.55 11.3 -12.65 Q11.35 -12.75 11.25 -12.85 L11.55 -12.9 Q11.75 -12.95 12.05 -12.7 12.25 -12.45 12.3 -12.3 L12.3 -12.25 12.35 -12.15 12.3 -12.1 Q12.3 -12.0 12.35 -12.0 12.4 -11.9 12.35 -11.8 12.4 -11.75 12.45 -11.7 12.4 -11.5 12.45 -11.2 L12.4 -11.1 12.5 -10.5 Q12.45 -10.35 12.45 -10.1 12.35 -10.3 12.25 -10.7 L12.2 -11.05 12.05 -11.05 12.15 -11.15 12.0 -11.15 12.05 -11.35 Q12.0 -11.65 11.35 -11.75 M14.15 -7.65 Q14.15 -7.4 14.0 -7.15 13.75 -6.7 13.2 -6.6 12.7 -6.5 12.4 -7.0 L12.35 -7.1 13.4 -7.1 Q13.45 -7.15 13.55 -7.2 L13.6 -7.2 13.8 -7.25 14.1 -7.6 14.15 -7.65 M16.55 -7.2 L16.95 -7.45 17.05 -7.5 17.15 -7.9 17.1 -7.9 17.0 -7.85 Q16.9 -7.85 16.8 -7.9 L16.85 -7.9 17.0 -8.15 16.95 -8.1 16.9 -8.1 16.75 -8.0 16.7 -8.0 16.6 -8.1 Q16.55 -8.2 16.7 -8.35 L16.75 -8.4 17.0 -8.45 17.05 -8.4 Q17.1 -8.25 17.3 -8.3 L17.35 -8.3 Q17.55 -8.35 17.6 -8.6 17.7 -8.85 17.65 -8.95 L17.6 -9.05 17.6 -9.15 17.5 -9.55 17.45 -9.65 17.45 -11.1 17.5 -11.15 17.45 -11.2 Q17.1 -11.75 16.6 -12.25 L16.25 -12.5 16.35 -12.5 Q16.6 -12.55 16.6 -12.8 L17.1 -12.65 17.3 -12.55 17.35 -12.5 Q17.9 -12.15 19.2 -11.1 19.35 -10.45 19.3 -10.0 19.25 -9.45 19.4 -8.85 L19.6 -8.35 Q19.8 -7.85 19.95 -7.9 20.05 -7.95 20.35 -8.95 L20.35 -9.0 20.45 -9.3 20.45 -9.0 20.5 -8.85 Q20.6 -8.9 20.85 -9.35 21.05 -9.7 21.3 -9.8 21.5 -9.9 21.9 -9.95 L22.05 -9.7 22.05 -9.65 22.1 -9.6 22.1 -9.45 22.05 -9.45 22.05 -9.35 Q22.1 -9.2 22.05 -9.0 L21.95 -8.7 Q21.85 -8.45 21.65 -8.2 L21.5 -8.15 Q21.4 -8.05 21.35 -7.95 21.15 -7.85 20.9 -7.75 L20.65 -7.8 20.45 -7.8 Q20.45 -8.35 20.35 -9.0 20.45 -8.4 20.3 -7.75 20.3 -7.7 20.3 -7.65 20.1 -6.9 19.65 -6.2 18.8 -4.8 17.3 -4.1 L17.25 -4.1 17.2 -4.15 17.15 -4.25 17.1 -4.25 17.25 -4.75 17.2 -4.85 17.15 -4.85 Q17.15 -4.45 16.35 -3.9 L16.0 -3.65 15.9 -3.65 Q14.15 -3.25 12.85 -4.05 L12.65 -4.3 13.1 -4.0 Q13.65 -3.75 14.5 -3.95 15.85 -4.25 16.55 -5.2 17.05 -5.85 17.0 -6.35 16.95 -6.65 17.0 -6.9 L17.1 -6.9 Q17.35 -6.7 17.65 -6.45 L17.75 -6.55 17.75 -6.65 Q17.7 -6.75 17.45 -7.0 17.2 -7.2 17.05 -7.25 L17.05 -7.2 16.75 -7.15 16.7 -7.15 16.7 -7.2 16.55 -7.2 M16.45 -9.6 L16.3 -9.7 Q16.3 -9.8 16.3 -10.15 L16.3 -10.5 16.4 -10.45 16.4 -10.5 16.45 -10.45 16.7 -10.4 16.85 -10.1 17.0 -9.75 17.05 -9.5 17.05 -9.45 16.95 -9.35 16.9 -9.4 16.55 -9.55 16.5 -9.6 16.45 -9.6 M16.5 -10.65 L16.55 -10.65 Q16.7 -10.8 16.8 -10.55 L16.8 -10.6 16.75 -10.6 16.5 -10.65 M16.8 -11.9 L16.55 -12.1 16.75 -11.95 16.8 -11.9 M15.9 -12.35 L16.0 -12.35 Q15.8 -12.05 15.15 -11.6 14.4 -11.1 14.35 -11.1 14.2 -11.1 14.1 -11.15 L14.05 -11.25 Q14.05 -12.65 14.5 -12.75 L14.65 -12.75 Q14.65 -12.65 14.65 -12.45 14.7 -12.4 14.75 -12.35 L14.9 -12.3 15.2 -12.35 15.9 -12.35 M20.55 -9.8 L20.6 -9.95 20.8 -10.0 20.65 -10.0 20.55 -9.8 M11.65 -8.7 L11.8 -8.7 11.7 -8.3 11.65 -8.25 11.65 -8.2 11.55 -8.25 Q11.5 -8.3 11.5 -8.35 11.5 -8.45 11.55 -8.55 11.55 -8.65 11.65 -8.7 M12.55 -9.05 Q12.75 -9.25 12.75 -9.6 L12.75 -10.2 Q13.1 -10.0 13.5 -8.85 13.55 -8.7 13.75 -8.4 L14.1 -7.95 13.6 -7.6 13.3 -7.45 13.25 -7.4 Q12.75 -7.3 12.4 -7.4 12.3 -7.45 12.2 -7.5 11.9 -7.75 11.85 -7.95 L11.85 -8.0 11.9 -8.05 Q11.9 -8.15 12.1 -8.45 12.35 -8.85 12.55 -9.05 M13.25 -5.85 L13.85 -5.75 15.05 -5.8 15.7 -6.15 Q16.25 -6.5 16.35 -6.55 L16.55 -6.5 16.7 -6.5 16.7 -6.45 16.3 -5.9 Q15.9 -5.5 15.35 -5.3 L15.45 -5.35 15.6 -5.45 Q15.9 -5.65 15.85 -5.75 L15.8 -5.85 15.8 -5.9 15.55 -5.85 15.2 -5.65 Q14.85 -5.5 14.45 -5.4 14.2 -5.35 13.6 -5.65 L13.5 -5.7 13.3 -5.85 13.25 -5.85 M15.2 -5.3 L15.2 -5.25 14.8 -5.2 15.2 -5.3 M18.3 -6.75 L18.3 -6.8 18.25 -6.8 18.3 -6.75" fill="#a9854f" fill-rule="evenodd" stroke="none"/>
    <path d="M11.9 -10.2 L11.95 -10.2 Q12.05 -9.85 12.25 -9.7 12.2 -9.65 11.95 -9.6 11.9 -9.6 11.75 -9.65 11.6 -9.75 11.6 -9.85 L11.6 -9.9 11.7 -10.15 11.9 -10.2 M16.35 -9.35 L16.5 -9.05 Q16.55 -8.9 16.45 -8.8 L15.9 -8.65 Q15.7 -8.7 15.6 -8.85 L15.55 -9.05 Q15.55 -9.1 15.55 -9.2 L15.85 -9.45 Q16.15 -9.5 16.35 -9.4 L16.35 -9.35" fill="#33cc66" fill-rule="evenodd" stroke="none"/>
    <path d="M17.0 -17.3 Q16.65 -17.45 16.45 -17.6 15.6 -17.85 14.7 -17.9 15.35 -18.3 16.05 -18.45 18.3 -19.0 20.2 -18.2 L20.4 -17.95 Q20.4 -17.85 20.35 -17.7 L20.25 -17.55 Q20.1 -17.6 19.95 -17.75 19.8 -17.9 19.35 -17.8 18.9 -17.7 18.8 -17.4 18.7 -17.15 18.55 -17.1 18.4 -17.05 17.75 -17.2 L17.0 -17.3 M23.4 -15.5 L23.7 -15.05 Q24.15 -14.35 24.2 -14.05 24.4 -13.2 24.2 -12.4 L24.15 -12.35 24.2 -12.3 Q24.1 -12.0 23.9 -11.7 23.5 -10.9 22.6 -10.0 L22.65 -10.15 Q22.75 -10.55 22.7 -10.8 22.3 -12.45 21.75 -13.6 L21.65 -14.5 Q21.55 -15.15 21.55 -15.5 L21.8 -15.45 22.2 -15.45 Q22.4 -15.5 22.55 -16.15 L23.4 -15.5 M21.9 -17.9 L21.9 -18.4 22.2 -18.8 22.4 -19.1 22.65 -19.35 22.8 -19.45 Q23.15 -19.65 23.7 -19.8 24.2 -19.9 25.2 -19.7 L25.3 -19.65 25.6 -19.6 25.55 -19.6 Q26.3 -19.2 26.4 -18.65 L26.35 -18.55 Q26.3 -18.4 26.2 -18.35 L25.65 -18.6 Q25.15 -18.85 24.95 -18.8 24.55 -18.7 24.55 -18.25 24.65 -17.75 24.65 -17.7 24.55 -17.7 24.25 -17.85 24.0 -18.0 23.7 -17.95 23.6 -17.9 23.5 -17.7 23.45 -17.55 23.25 -17.45 22.7 -17.35 22.1 -17.8 L21.9 -17.9 M28.25 -16.0 L28.25 -15.95 Q28.3 -15.45 28.3 -14.85 L28.25 -14.4 Q28.05 -13.95 27.7 -13.45 27.05 -12.45 26.55 -12.35 25.75 -12.15 25.25 -12.2 L25.25 -12.25 24.6 -12.35 24.35 -12.4 24.4 -12.7 24.4 -12.85 Q24.4 -13.05 24.45 -13.25 24.5 -13.9 24.45 -14.1 L24.3 -14.45 24.35 -14.8 Q24.3 -15.95 24.4 -16.2 L24.65 -16.15 Q24.75 -16.1 24.9 -16.15 25.25 -16.25 25.3 -16.4 L25.35 -16.45 Q25.4 -16.8 25.45 -16.85 25.6 -16.8 25.85 -16.45 L25.95 -16.4 Q26.2 -16.2 26.65 -16.3 26.7 -16.35 26.8 -16.4 26.95 -16.6 27.05 -17.25 27.6 -17.25 28.05 -16.4 L28.25 -16.0 M20.2 -9.85 L20.1 -10.1 20.05 -10.1 20.25 -9.55 20.2 -9.35 19.85 -8.4 Q19.65 -8.75 19.5 -9.4 19.45 -9.75 19.55 -10.15 19.65 -10.5 19.65 -10.7 L20.25 -10.2 Q20.3 -9.9 20.25 -9.6 L20.2 -9.85 M21.45 -7.55 L21.5 -7.4 21.75 -6.95 Q21.8 -6.7 21.65 -6.2 21.4 -5.45 20.85 -5.3 20.35 -5.2 19.9 -5.4 L19.85 -5.4 Q20.2 -6.0 20.4 -6.75 L20.45 -7.4 21.0 -7.35 Q21.25 -7.4 21.45 -7.55" fill="#002040" fill-rule="evenodd" stroke="none"/>
    <path d="M17.0 -17.3 L17.75 -17.2 Q18.4 -17.05 18.55 -17.1 18.7 -17.15 18.8 -17.4 18.9 -17.7 19.35 -17.8 19.8 -17.9 19.95 -17.75 20.1 -17.6 20.25 -17.55 L20.35 -17.7 Q20.4 -17.85 20.4 -17.95 L20.2 -18.2 Q20.65 -18.0 21.1 -17.7 21.65 -17.35 22.2 -16.85 L22.45 -16.65 22.65 -16.4 23.3 -15.65 23.35 -15.6 23.35 -15.55 23.4 -15.5 22.55 -16.15 Q22.4 -15.5 22.2 -15.45 L21.8 -15.45 21.55 -15.5 Q21.55 -15.15 21.65 -14.5 L21.75 -13.6 21.6 -13.8 21.5 -14.05 Q21.1 -14.65 20.65 -15.15 20.0 -15.9 19.2 -16.4 19.1 -16.45 19.0 -16.5 L17.8 -17.0 Q17.35 -17.15 17.0 -17.3 M21.9 -17.9 L22.1 -17.8 Q22.7 -17.35 23.25 -17.45 23.45 -17.55 23.5 -17.7 23.6 -17.9 23.7 -17.95 24.0 -18.0 24.25 -17.85 24.55 -17.7 24.65 -17.7 24.65 -17.75 24.55 -18.25 24.55 -18.7 24.95 -18.8 25.15 -18.85 25.65 -18.6 L26.2 -18.35 Q26.3 -18.4 26.35 -18.55 L26.4 -18.65 Q26.3 -19.2 25.55 -19.6 L25.6 -19.6 25.65 -19.6 25.75 -19.55 26.3 -19.4 26.4 -19.35 27.0 -18.9 27.2 -18.7 27.3 -18.55 Q27.55 -18.2 27.8 -17.7 L27.8 -17.65 28.15 -16.55 28.2 -16.4 28.25 -16.0 28.05 -16.4 Q27.6 -17.25 27.05 -17.25 26.95 -16.6 26.8 -16.4 26.7 -16.35 26.65 -16.3 26.2 -16.2 25.95 -16.4 L25.85 -16.45 Q25.6 -16.8 25.45 -16.85 25.4 -16.8 25.35 -16.45 L25.3 -16.4 Q25.25 -16.25 24.9 -16.15 24.75 -16.1 24.65 -16.15 L24.4 -16.2 Q24.3 -15.95 24.35 -14.8 L24.3 -14.45 Q24.1 -14.95 23.65 -15.6 L23.05 -16.4 22.75 -16.75 22.4 -17.15 21.85 -17.7 21.9 -17.9" fill="#003060" fill-rule="evenodd" stroke="none"/>
    <path d="M13.95 -16.0 Q14.15 -16.2 14.2 -16.4 L14.2 -16.5 Q14.2 -16.85 14.0 -17.0 13.8 -17.1 13.55 -17.05 13.0 -16.9 12.9 -16.4 12.9 -16.3 12.9 -16.2 L12.95 -15.8 12.95 -15.6 13.0 -15.3 13.05 -15.15 Q13.15 -14.55 13.2 -14.45 L13.25 -14.45 Q13.35 -14.65 13.4 -14.95 L13.4 -15.0 13.55 -15.45 13.6 -15.5 13.95 -16.0 M11.6 -15.7 L11.55 -15.5 Q11.55 -15.15 11.75 -15.05 12.15 -14.85 12.45 -14.55 L12.6 -14.6 12.6 -14.65 12.65 -14.75 12.5 -15.05 Q12.5 -15.4 12.05 -15.8 11.85 -16.0 11.75 -15.95 L11.7 -15.95 12.1 -16.55 12.35 -16.9 Q12.7 -17.1 13.15 -17.25 15.5 -17.75 18.0 -16.6 L18.4 -16.4 18.85 -16.15 19.55 -15.7 20.05 -15.35 20.2 -15.2 20.2 -15.05 Q20.2 -14.6 19.85 -14.4 L19.75 -14.35 Q19.35 -14.65 19.1 -14.65 18.75 -14.7 18.75 -14.35 18.75 -14.3 18.85 -14.1 L18.9 -13.95 Q18.95 -13.75 19.15 -13.35 19.0 -12.85 18.5 -12.85 18.2 -12.85 17.55 -13.15 L16.85 -13.45 16.2 -13.65 Q15.1 -13.9 13.85 -13.9 L13.45 -13.9 13.1 -13.9 Q11.75 -14.05 11.35 -13.55 L11.1 -13.45 11.1 -13.5 11.0 -13.35 10.85 -13.15 Q10.75 -13.35 10.9 -13.55 L11.15 -13.75 11.15 -13.8 11.3 -13.85 11.35 -13.9 Q11.25 -13.9 11.25 -14.0 L11.25 -14.05 11.2 -14.05 Q11.1 -14.35 11.2 -14.7 L11.45 -15.4 11.6 -15.7 M16.0 -15.45 Q16.0 -16.2 15.05 -15.7 14.15 -15.2 13.85 -14.6 L15.1 -14.8 Q16.0 -14.95 16.0 -15.45 M31.0 -23.0 Q31.15 -22.65 31.1 -22.6 30.8 -22.5 30.6 -22.65 30.45 -22.8 30.3 -22.8 30.15 -23.0 30.05 -23.05 L30.15 -23.2 Q30.2 -23.45 30.25 -23.5 30.4 -23.6 30.85 -23.35 L31.0 -23.0 M26.95 -25.35 Q27.05 -25.45 27.55 -25.45 L27.85 -25.25 Q28.1 -25.0 28.1 -24.9 27.9 -24.7 27.65 -24.75 L27.3 -24.7 Q27.1 -24.85 27.0 -24.85 L27.0 -25.0 Q26.95 -25.3 26.95 -25.35" fill="#80c0f0" fill-rule="evenodd" stroke="none"/>
    <path d="M13.45 -13.9 L13.85 -13.9 Q15.1 -13.9 16.2 -13.65 L16.85 -13.45 17.55 -13.15 Q18.2 -12.85 18.5 -12.85 19.0 -12.85 19.15 -13.35 19.45 -12.9 19.95 -12.15 L20.85 -10.85 20.95 -10.7 Q20.95 -10.6 20.95 -10.5 L20.55 -10.4 20.5 -10.4 19.45 -11.3 Q19.4 -11.35 19.35 -11.35 L19.05 -11.6 Q17.55 -12.7 16.85 -13.1 L16.7 -13.15 Q16.15 -13.4 15.35 -13.45 L15.3 -13.5 Q14.4 -13.8 13.45 -13.9 M18.85 -14.1 Q18.75 -14.3 18.75 -14.35 18.75 -14.7 19.1 -14.65 19.35 -14.65 19.75 -14.35 L19.85 -14.4 Q20.2 -14.6 20.2 -15.05 L20.2 -15.2 20.2 -15.15 Q21.05 -14.65 21.6 -13.35 21.85 -12.75 22.15 -11.25 22.2 -11.0 22.15 -10.3 L22.1 -10.05 Q21.95 -10.25 21.75 -10.35 L21.4 -10.7 21.4 -10.75 20.45 -12.0 Q19.7 -12.95 19.25 -13.65 L18.9 -14.2 18.85 -14.15 18.85 -14.1" fill="#0070e0" fill-rule="evenodd" stroke="none"/>
    <path d="M13.95 -16.0 L13.6 -15.5 13.55 -15.45 13.4 -15.0 13.4 -14.95 Q13.35 -14.65 13.25 -14.45 L13.2 -14.45 Q13.15 -14.55 13.05 -15.15 L13.0 -15.3 12.95 -15.6 12.95 -15.8 12.9 -16.2 Q12.9 -16.3 12.9 -16.4 13.0 -16.9 13.55 -17.05 13.8 -17.1 14.0 -17.0 14.2 -16.85 14.2 -16.5 L14.2 -16.4 Q14.15 -16.2 13.95 -16.0 M11.7 -15.95 L11.75 -15.95 Q11.85 -16.0 12.05 -15.8 12.5 -15.4 12.5 -15.05 L12.65 -14.75 12.6 -14.65 12.6 -14.6 12.45 -14.55 Q12.15 -14.85 11.75 -15.05 11.55 -15.15 11.55 -15.5 L11.6 -15.7 11.7 -15.95 M16.0 -15.45 Q16.0 -14.95 15.1 -14.8 L13.85 -14.6 Q14.15 -15.2 15.05 -15.7 16.0 -16.2 16.0 -15.45" fill="#b00000" fill-rule="evenodd" stroke="none"/>
    <path d="M29.95 -22.75 L30.0 -22.6 29.95 -22.45 29.9 -22.4 27.85 -21.05 Q26.95 -20.45 26.4 -19.8 L26.2 -19.9 26.45 -20.1 Q27.2 -20.8 27.45 -20.95 L28.3 -21.65 Q29.15 -22.3 29.25 -22.4 L29.95 -22.75 M27.15 -24.15 L26.0 -22.0 Q25.45 -21.0 25.25 -20.2 L25.05 -20.2 25.2 -20.55 Q25.5 -21.5 25.65 -21.75 L26.1 -22.75 Q26.5 -23.75 26.6 -23.9 L27.05 -24.55 27.15 -24.45 27.15 -24.15" fill="#9c9581" fill-rule="evenodd" stroke="none"/>
  </g>
</svg>
