<?xml version="1.0" encoding="UTF-8" standalone="no"?>
<svg xmlns:ffdec="https://www.free-decompiler.com/flash" xmlns:xlink="http://www.w3.org/1999/xlink" ffdec:objectType="shape" height="24.15px" width="19.15px" xmlns="http://www.w3.org/2000/svg">
  <g transform="matrix(1.0, 0.0, 0.0, 1.0, -6.25, 27.6)">
    <path d="M21.8 -21.9 L21.85 -21.95 Q21.8 -22.0 21.45 -22.05 L19.35 -22.2 16.75 -8.55 19.05 -8.6 19.25 -8.55 19.3 -8.55 19.55 -8.95 Q19.65 -9.15 19.95 -9.95 20.05 -10.35 20.25 -10.55 L20.4 -11.6 20.55 -11.65 20.7 -11.1 Q20.75 -10.85 20.75 -10.65 L20.6 -8.9 20.6 -8.85 20.55 -8.5 20.45 -7.45 Q20.6 -7.7 20.85 -8.1 L20.9 -8.35 20.95 -8.45 21.1 -8.95 21.15 -9.1 21.35 -9.5 21.4 -9.7 Q21.5 -9.95 21.55 -10.3 L21.6 -10.75 21.6 -11.8 Q21.95 -11.7 22.0 -11.35 L22.05 -10.85 Q21.7 -9.7 21.65 -9.25 L22.1 -9.85 Q22.95 -10.9 22.95 -11.25 22.95 -11.7 22.75 -12.1 22.55 -12.6 22.5 -13.25 22.9 -13.3 23.1 -12.65 23.2 -12.25 23.2 -11.8 23.2 -10.9 22.7 -9.95 L22.7 -9.9 Q22.75 -9.75 22.7 -9.55 22.6 -9.05 22.6 -8.9 23.6 -10.15 23.65 -10.55 23.65 -10.7 23.55 -11.1 23.45 -11.55 23.45 -11.95 L23.5 -12.5 23.6 -12.5 23.85 -11.6 Q24.0 -11.0 24.0 -10.75 L24.05 -10.3 Q24.3 -10.75 24.35 -10.9 L24.35 -11.5 Q24.35 -12.35 24.1 -12.75 L23.9 -13.0 24.05 -12.7 24.05 -12.65 23.85 -12.95 Q23.3 -13.7 22.9 -13.95 L22.7 -14.05 Q22.65 -14.2 22.65 -14.3 L21.5 -13.35 Q19.7 -11.85 19.3 -11.85 L18.75 -12.5 18.8 -14.55 19.7 -15.05 Q21.1 -15.75 21.95 -16.35 L22.1 -16.5 21.85 -16.75 20.85 -17.7 Q21.6 -17.4 22.4 -16.85 L22.45 -16.9 22.65 -16.7 23.0 -16.45 23.0 -16.35 Q23.7 -15.75 24.0 -15.3 L24.05 -15.4 24.05 -15.6 Q24.05 -15.85 24.0 -16.15 L23.85 -16.5 23.85 -16.6 Q23.85 -16.7 23.7 -16.85 23.65 -17.35 22.35 -18.6 23.45 -18.15 24.0 -17.2 L23.95 -17.5 Q23.85 -17.75 23.7 -18.0 23.55 -18.25 23.35 -18.4 L23.35 -18.45 23.15 -18.7 Q22.85 -19.05 22.5 -19.35 L23.1 -19.25 23.35 -19.1 24.4 -18.8 24.05 -19.2 24.0 -19.25 22.95 -20.4 22.4 -20.85 Q21.95 -21.15 21.5 -21.3 L21.4 -21.35 21.35 -21.35 21.2 -21.4 20.9 -21.45 21.1 -21.65 Q21.3 -21.7 21.8 -21.9 M22.75 -21.5 Q22.75 -21.4 22.45 -21.2 L24.4 -19.6 Q25.4 -18.75 25.4 -18.65 L25.4 -18.5 25.3 -18.4 25.1 -18.35 Q24.75 -18.35 24.0 -18.65 L23.8 -18.7 Q24.55 -18.0 24.55 -17.15 L24.55 -16.7 Q24.5 -16.6 24.35 -16.45 24.55 -15.8 24.55 -15.05 L24.5 -14.2 24.5 -14.15 Q24.45 -14.1 24.3 -14.1 L23.7 -14.9 23.3 -15.5 23.35 -15.2 23.3 -15.0 Q23.3 -14.7 23.45 -14.15 24.25 -13.6 24.55 -13.05 24.85 -12.5 24.85 -11.45 24.85 -10.85 24.7 -10.65 24.35 -10.25 24.0 -9.4 L23.75 -9.4 23.65 -9.9 23.4 -9.5 Q22.7 -8.4 22.35 -8.2 22.3 -8.45 22.3 -8.9 L22.35 -9.3 Q21.9 -8.7 21.4 -8.4 L21.25 -8.2 Q21.05 -7.8 20.45 -7.0 L20.2 -7.0 20.2 -7.05 20.15 -6.95 20.1 -7.35 20.0 -7.7 20.05 -7.75 20.1 -7.75 20.0 -8.85 20.05 -8.9 19.65 -8.3 Q18.8 -7.0 18.25 -6.9 L18.9 -22.6 Q19.9 -22.8 21.0 -22.6 21.8 -22.45 22.25 -22.15 22.75 -21.85 22.75 -21.5 M22.4 -16.25 Q21.55 -15.75 20.8 -15.25 19.25 -14.2 19.25 -13.7 L19.55 -12.75 Q21.35 -12.75 22.65 -15.5 22.65 -15.75 22.55 -16.15 L22.4 -16.25" fill="#111111" fill-rule="evenodd" stroke="none"/>
    <path d="M16.75 -8.55 L19.35 -22.2 21.45 -22.05 Q21.8 -22.0 21.85 -21.95 L21.8 -21.9 Q21.0 -21.8 20.2 -21.45 21.05 -21.15 22.4 -20.85 L22.95 -20.4 24.0 -19.25 21.3 -20.05 21.3 -20.0 21.25 -19.95 23.15 -18.7 23.35 -18.45 23.35 -18.4 Q23.55 -18.25 23.7 -18.0 22.35 -19.15 21.4 -19.2 20.2 -19.85 19.35 -19.75 21.45 -18.55 23.3 -17.05 L23.2 -17.2 23.8 -16.4 Q23.05 -17.0 22.1 -17.55 20.7 -18.35 19.6 -18.65 L18.8 -14.55 18.75 -12.5 16.75 -8.55" fill="#003060" fill-rule="evenodd" stroke="none"/>
    <path d="M22.4 -16.25 L22.55 -16.15 Q22.65 -15.75 22.65 -15.5 21.35 -12.75 19.55 -12.75 L19.25 -13.7 Q19.25 -14.2 20.8 -15.25 21.55 -15.75 22.4 -16.25" fill="#005893" fill-rule="evenodd" stroke="none"/>
    <path d="M16.75 -8.55 L18.75 -12.5 19.3 -11.85 Q19.7 -11.85 21.5 -13.35 L22.65 -14.3 Q22.65 -14.2 22.7 -14.05 L22.9 -13.95 Q23.3 -13.7 23.85 -12.95 L24.05 -12.65 24.05 -12.7 23.9 -13.0 24.1 -12.75 Q24.35 -12.35 24.35 -11.5 L24.35 -10.9 Q24.3 -10.75 24.05 -10.3 L24.0 -10.75 Q24.0 -11.0 23.85 -11.6 L23.6 -12.5 23.5 -12.5 23.45 -11.95 Q23.45 -11.55 23.55 -11.1 23.65 -10.7 23.65 -10.55 23.6 -10.15 22.6 -8.9 22.6 -9.05 22.7 -9.55 22.75 -9.75 22.7 -9.9 L22.7 -9.95 Q23.2 -10.9 23.2 -11.8 23.2 -12.25 23.1 -12.65 22.9 -13.3 22.5 -13.25 22.55 -12.6 22.75 -12.1 22.95 -11.7 22.95 -11.25 22.95 -10.9 22.1 -9.85 L21.65 -9.25 Q21.7 -9.7 22.05 -10.85 L22.0 -11.35 Q21.95 -11.7 21.6 -11.8 L21.6 -10.75 21.55 -10.3 Q21.5 -9.95 21.4 -9.7 L21.35 -9.5 21.15 -9.1 21.1 -8.95 20.95 -8.45 20.9 -8.35 20.85 -8.1 Q20.6 -7.7 20.45 -7.45 L20.55 -8.5 20.6 -8.85 20.6 -8.9 20.75 -10.65 Q20.75 -10.85 20.7 -11.1 L20.55 -11.65 20.4 -11.6 20.25 -10.55 Q20.05 -10.35 19.95 -9.95 19.65 -9.15 19.55 -8.95 L19.3 -8.55 19.25 -8.55 19.05 -8.6 16.75 -8.55 M18.8 -14.55 L19.6 -18.65 Q20.7 -18.35 22.1 -17.55 23.05 -17.0 23.8 -16.4 L23.2 -17.2 23.3 -17.05 Q21.45 -18.55 19.35 -19.75 20.2 -19.85 21.4 -19.2 22.35 -19.15 23.7 -18.0 23.85 -17.75 23.95 -17.5 L24.0 -17.2 Q23.45 -18.15 22.35 -18.6 23.65 -17.35 23.7 -16.85 23.85 -16.7 23.85 -16.6 L23.85 -16.5 24.0 -16.15 Q24.05 -15.85 24.05 -15.6 L24.05 -15.4 24.0 -15.3 Q23.7 -15.75 23.0 -16.35 L23.0 -16.45 22.65 -16.7 22.45 -16.9 22.4 -16.85 Q21.6 -17.4 20.85 -17.7 L21.85 -16.75 22.1 -16.5 21.95 -16.35 Q21.1 -15.75 19.7 -15.05 L18.8 -14.55 M23.15 -18.7 L21.25 -19.95 21.3 -20.0 21.3 -20.05 24.0 -19.25 24.05 -19.2 24.4 -18.8 23.35 -19.1 23.1 -19.25 22.5 -19.35 Q22.85 -19.05 23.15 -18.7 M22.4 -20.85 Q21.05 -21.15 20.2 -21.45 21.0 -21.8 21.8 -21.9 21.3 -21.7 21.1 -21.65 L20.9 -21.45 21.2 -21.4 21.35 -21.35 21.4 -21.35 21.5 -21.3 Q21.95 -21.15 22.4 -20.85" fill="#002040" fill-rule="evenodd" stroke="none"/>
    <path d="M18.75 -26.1 Q18.9 -25.75 19.0 -25.3 L19.4 -23.9 19.45 -23.5 Q20.15 -19.2 20.15 -17.2 20.15 -13.55 19.9 -11.6 19.5 -8.7 18.3 -6.3 L18.2 -6.05 Q17.55 -5.1 16.8 -4.5 16.3 -4.2 15.75 -3.85 14.85 -3.45 13.75 -3.45 13.05 -3.45 12.45 -3.5 L11.55 -3.55 Q9.5 -3.75 8.7 -4.25 8.3 -4.5 8.05 -5.0 L7.95 -5.25 Q7.25 -5.35 7.05 -6.15 6.9 -6.6 7.0 -7.1 7.0 -7.35 7.7 -8.35 8.2 -9.05 8.35 -9.55 L8.35 -9.6 Q8.35 -10.1 8.15 -11.2 L7.6 -12.25 7.4 -12.6 Q7.3 -12.8 7.25 -13.15 7.1 -13.6 7.1 -13.95 7.05 -14.35 7.05 -14.65 7.05 -15.15 7.1 -15.45 6.8 -16.6 6.6 -17.65 L6.6 -17.85 Q6.25 -19.55 6.25 -21.05 L6.25 -21.2 6.35 -21.85 Q6.7 -24.25 7.75 -26.55 L7.75 -26.6 8.1 -26.65 Q8.8 -26.65 9.75 -25.7 10.9 -24.0 11.35 -23.6 L11.4 -23.55 Q11.6 -23.4 12.05 -23.4 L12.95 -23.3 13.45 -23.25 13.85 -23.25 Q14.25 -24.05 14.9 -25.45 15.6 -26.7 16.85 -27.4 L17.1 -27.45 17.7 -27.6 17.75 -27.55 Q18.05 -27.2 18.35 -26.65 L18.75 -26.1 M9.45 -5.05 L9.05 -5.05 9.2 -4.9 Q9.95 -4.3 11.4 -4.05 L12.5 -4.0 Q16.4 -4.0 18.15 -7.35 19.15 -9.2 19.3 -11.35 L19.45 -12.65 19.65 -13.9 19.65 -14.15 Q19.65 -17.2 19.7 -18.45 L19.7 -19.15 19.5 -20.35 19.25 -21.65 19.3 -21.8 19.3 -21.85 19.15 -22.35 19.1 -22.6 Q18.55 -24.75 18.05 -25.7 L18.0 -25.75 Q17.6 -26.45 17.2 -26.45 16.65 -26.45 16.15 -25.95 15.65 -25.45 15.25 -24.55 L14.7 -23.25 Q14.5 -22.9 14.3 -22.75 L14.35 -22.7 14.25 -22.5 14.2 -22.45 13.75 -22.45 12.15 -22.75 11.55 -22.75 11.2 -22.8 Q11.1 -22.7 10.95 -22.7 10.85 -22.7 9.85 -24.35 8.85 -25.85 8.25 -26.0 8.0 -25.85 7.8 -25.4 L7.75 -25.35 7.55 -24.7 Q7.85 -24.65 8.4 -23.9 8.85 -23.25 9.35 -22.15 L9.65 -21.5 9.65 -21.45 9.7 -21.35 9.4 -21.1 9.15 -20.8 8.85 -20.35 8.8 -20.3 8.75 -20.2 Q8.45 -19.7 8.25 -19.3 L7.95 -19.05 Q7.75 -19.05 7.6 -19.15 L7.5 -19.25 Q7.25 -19.6 7.1 -20.35 L7.05 -20.4 7.05 -20.65 6.95 -21.15 6.95 -21.0 Q6.95 -20.4 7.0 -19.75 L7.0 -19.55 7.05 -19.45 7.15 -18.45 7.2 -18.4 Q7.15 -18.2 7.15 -18.0 7.2 -17.5 7.3 -17.0 7.4 -16.65 7.5 -16.45 L7.6 -16.1 7.75 -16.1 Q7.9 -16.0 8.05 -16.0 L8.15 -16.0 Q8.45 -15.85 8.85 -15.45 9.5 -14.75 10.0 -13.75 10.55 -12.7 10.55 -12.05 L10.55 -11.95 10.45 -11.55 10.4 -11.4 10.4 -11.3 10.55 -11.25 Q10.1 -10.7 10.1 -10.35 10.1 -10.25 10.1 -10.2 9.7 -10.4 9.2 -10.9 L9.0 -11.15 9.05 -10.9 Q9.05 -10.35 9.0 -9.9 L9.0 -9.6 Q9.0 -9.35 8.9 -9.1 L8.95 -9.1 8.9 -8.7 8.85 -8.4 8.9 -8.35 Q8.8 -8.2 8.8 -8.05 L8.75 -8.15 8.65 -8.25 8.75 -7.9 8.6 -8.0 Q8.1 -8.35 8.1 -7.25 L8.05 -7.25 8.0 -7.45 Q7.8 -7.0 7.8 -6.6 L7.95 -6.4 Q8.0 -6.1 8.25 -5.75 8.7 -5.2 9.45 -5.05 M14.4 -22.1 Q14.45 -22.4 14.6 -22.9 14.9 -23.7 15.25 -24.3 16.2 -25.95 17.05 -24.5 17.5 -24.0 17.85 -22.55 L17.8 -22.15 Q17.8 -21.85 17.9 -20.95 L18.0 -20.0 17.95 -19.95 17.95 -19.85 17.85 -19.65 17.65 -19.3 17.6 -19.25 17.5 -19.3 17.55 -19.3 17.4 -19.45 16.1 -20.65 15.95 -20.75 15.7 -21.0 Q15.0 -21.6 14.55 -21.85 L14.4 -21.95 14.4 -22.1 M17.5 -16.05 Q17.65 -15.75 17.65 -15.35 17.6 -15.0 17.2 -14.25 16.75 -13.45 16.15 -12.75 14.8 -11.2 13.6 -10.9 12.9 -10.5 12.05 -10.3 L12.0 -10.3 12.4 -10.65 12.45 -10.6 12.35 -10.65 Q12.65 -11.0 12.8 -11.45 13.05 -12.0 13.15 -12.65 13.25 -13.3 13.3 -14.7 13.35 -15.5 14.05 -16.05 14.65 -16.55 15.55 -16.7 16.45 -16.8 17.05 -16.5 17.25 -16.35 17.4 -16.2 L17.5 -16.05 M15.2 -21.65 L16.2 -20.75 Q17.35 -19.7 17.6 -19.7 17.75 -19.7 17.85 -19.8 17.8 -20.8 17.4 -22.35 16.85 -24.45 16.15 -24.75 L15.4 -23.45 Q14.9 -22.6 14.9 -22.3 14.9 -22.15 15.2 -21.65 M13.5 -12.65 L13.5 -12.6 13.65 -12.2 13.7 -11.95 13.75 -11.95 Q14.8 -11.85 16.05 -13.25 17.1 -14.55 17.15 -15.3 17.2 -15.9 16.6 -16.2 L16.1 -16.4 15.35 -16.35 Q14.55 -16.2 14.0 -15.65 13.4 -14.95 13.35 -13.95 13.35 -13.2 13.35 -13.05 L13.5 -12.65 M7.2 -21.45 Q7.2 -20.8 7.8 -19.5 7.95 -19.8 8.6 -20.4 L8.8 -20.55 Q9.3 -21.4 9.3 -21.5 L9.0 -22.25 Q8.6 -23.1 8.25 -23.55 7.2 -24.9 7.2 -21.45 M10.2 -12.4 L10.15 -12.5 10.2 -12.55 Q10.15 -12.95 10.0 -13.3 10.0 -13.65 9.7 -14.1 L9.25 -14.6 Q9.1 -15.0 8.55 -15.3 8.25 -15.5 8.05 -15.45 7.9 -15.4 7.85 -15.25 L7.75 -15.25 7.7 -14.85 Q7.65 -14.6 7.65 -14.45 L7.65 -14.3 Q7.6 -14.15 7.6 -13.95 L7.7 -13.7 Q7.8 -13.4 7.95 -13.05 L8.05 -12.9 8.1 -12.8 Q8.15 -12.65 8.4 -12.35 8.7 -11.95 9.1 -11.9 L9.45 -11.85 9.45 -11.9 10.0 -11.3 10.05 -11.2 10.1 -11.2 10.15 -11.3 10.2 -11.55 10.2 -11.7 10.25 -11.9 10.25 -12.0 10.2 -12.4 M9.5 -12.15 L9.35 -12.0 9.5 -12.15 M10.95 -9.0 L10.95 -8.9 Q10.95 -8.75 10.7 -8.5 L10.4 -8.35 Q10.25 -8.35 10.2 -8.4 10.15 -8.45 10.15 -8.65 L10.15 -8.75 10.2 -8.8 10.2 -8.85 10.3 -9.0 Q10.5 -9.3 10.9 -9.15 L10.9 -9.05 10.95 -9.0 M9.75 -8.7 L9.75 -8.65 Q9.75 -8.5 9.7 -8.4 9.6 -8.3 9.4 -8.2 9.25 -8.3 9.15 -8.4 L9.05 -8.55 Q9.0 -8.65 9.0 -8.8 9.05 -9.2 9.4 -9.15 9.75 -9.05 9.75 -8.7 M8.8 -8.55 L8.8 -8.7 8.85 -9.0 8.75 -8.75 8.8 -8.55" fill="#111111" fill-rule="evenodd" stroke="none"/>
    <path d="M18.0 -25.75 L18.1 -25.4 Q18.8 -22.9 18.8 -21.0 18.8 -19.0 18.75 -17.9 L18.75 -17.5 18.85 -15.85 Q18.85 -14.9 18.75 -14.0 L18.6 -13.6 18.35 -13.15 Q18.0 -12.8 17.35 -12.3 16.4 -11.6 16.4 -11.0 16.4 -10.85 16.45 -10.85 L16.45 -10.9 Q16.7 -11.05 17.95 -11.3 L18.1 -11.3 18.15 -10.95 18.15 -10.8 18.1 -10.75 Q17.9 -10.1 17.6 -9.4 16.4 -6.25 14.5 -5.7 L14.65 -5.75 14.55 -5.7 Q14.55 -5.4 13.3 -5.2 12.15 -4.8 10.5 -4.8 10.2 -4.8 9.7 -4.95 L9.5 -5.05 Q11.45 -5.1 12.75 -5.7 13.55 -6.1 14.4 -6.75 15.0 -7.1 15.95 -8.05 L16.1 -8.1 16.2 -8.1 16.25 -8.15 16.4 -8.2 Q16.85 -8.35 17.0 -8.5 17.2 -8.7 17.25 -9.05 17.25 -9.55 16.95 -9.45 L16.9 -9.5 Q16.75 -9.55 16.6 -9.45 L16.5 -9.45 Q16.3 -9.3 16.0 -9.0 L14.7 -7.6 Q14.1 -6.95 13.3 -6.4 11.95 -5.4 10.95 -5.4 L10.0 -5.45 Q9.55 -5.55 9.5 -5.75 9.45 -5.8 9.45 -6.1 9.45 -6.65 10.05 -7.15 L10.1 -7.15 Q10.3 -7.15 10.55 -7.3 L10.7 -7.4 Q11.3 -7.6 11.75 -8.05 12.4 -8.7 12.4 -9.15 12.4 -9.4 12.35 -9.3 L10.95 -9.0 10.9 -9.05 10.9 -9.15 Q10.5 -9.3 10.3 -9.0 L10.2 -8.85 9.85 -8.75 9.75 -8.7 Q9.75 -9.05 9.4 -9.15 9.05 -9.2 9.0 -8.8 9.0 -8.65 9.05 -8.55 L9.15 -8.4 8.95 -8.25 8.9 -8.35 8.85 -8.4 8.9 -8.7 8.95 -9.1 8.9 -9.1 Q9.0 -9.35 9.0 -9.6 L9.0 -9.9 Q9.05 -10.35 9.05 -10.9 L9.0 -11.15 9.2 -10.9 Q9.7 -10.4 10.1 -10.2 L10.15 -10.05 Q10.25 -9.75 10.6 -9.75 10.7 -9.75 11.05 -10.15 L11.1 -10.2 11.2 -10.35 Q11.65 -10.95 11.65 -11.1 11.7 -11.8 11.6 -12.5 L11.65 -12.5 Q12.5 -12.5 12.75 -11.7 L12.8 -11.45 Q12.65 -11.0 12.35 -10.65 L12.45 -10.6 12.4 -10.65 12.0 -10.3 12.05 -10.3 Q12.9 -10.5 13.6 -10.9 14.8 -11.2 16.15 -12.75 16.75 -13.45 17.2 -14.25 17.6 -15.0 17.65 -15.35 17.65 -15.75 17.5 -16.05 17.4 -16.5 17.2 -16.9 16.85 -17.45 16.4 -17.75 16.7 -18.05 16.8 -18.05 16.95 -18.05 17.05 -17.95 17.2 -17.85 17.3 -17.85 17.55 -17.85 17.7 -18.0 17.85 -18.15 17.85 -18.35 17.9 -19.3 16.9 -18.6 16.5 -18.35 16.2 -18.0 L16.15 -17.95 16.15 -17.9 16.1 -17.85 Q15.8 -17.95 15.4 -17.95 L15.05 -17.95 15.2 -18.15 Q15.95 -18.95 15.95 -19.1 15.95 -19.55 15.65 -19.55 15.4 -19.55 15.0 -19.2 14.25 -18.5 14.1 -17.8 L13.3 -17.55 13.35 -17.6 13.65 -18.15 Q13.85 -18.55 13.85 -18.65 L13.85 -18.9 Q13.15 -19.15 12.65 -18.45 12.3 -17.95 12.3 -17.45 L12.3 -17.25 Q11.45 -17.05 10.85 -17.05 L10.4 -17.05 10.4 -17.1 Q10.45 -18.55 11.2 -20.05 L11.75 -21.0 Q12.0 -21.45 12.05 -21.55 12.05 -22.15 11.7 -22.1 11.35 -22.05 10.85 -21.5 10.35 -20.95 10.0 -20.25 9.65 -19.55 9.65 -19.0 9.6 -18.1 9.8 -17.1 9.25 -17.2 8.85 -17.4 L8.85 -17.45 Q8.75 -18.05 8.45 -18.3 8.3 -18.4 8.15 -18.3 8.1 -18.2 8.05 -17.95 7.75 -18.25 7.5 -18.65 L7.05 -19.4 7.05 -19.45 7.0 -19.55 Q7.25 -19.15 7.55 -19.15 L7.6 -19.15 Q7.75 -19.05 7.95 -19.05 L8.25 -19.3 Q8.45 -19.7 8.75 -20.2 L8.8 -20.3 8.85 -20.35 9.4 -21.1 9.7 -21.35 9.65 -21.45 9.7 -21.45 10.25 -22.2 Q9.95 -22.4 9.65 -22.75 L9.55 -22.95 Q9.4 -23.3 8.8 -24.05 8.25 -25.0 7.8 -25.4 8.0 -25.85 8.25 -26.0 8.85 -25.85 9.85 -24.35 10.85 -22.7 10.95 -22.7 11.1 -22.7 11.2 -22.8 L11.55 -22.75 12.15 -22.75 13.75 -22.45 14.2 -22.45 14.4 -22.1 14.4 -21.95 14.55 -21.85 Q14.9 -21.35 15.3 -20.9 16.55 -19.35 17.5 -19.3 L17.6 -19.25 17.65 -19.3 Q17.95 -19.3 18.05 -20.0 18.15 -20.45 18.15 -20.9 18.15 -21.25 17.75 -23.15 17.4 -24.95 17.25 -25.2 16.8 -26.25 16.15 -25.95 16.65 -26.45 17.2 -26.45 17.6 -26.45 18.0 -25.75 M7.95 -6.4 L7.8 -6.6 Q7.8 -7.0 8.0 -7.45 L8.05 -7.25 8.1 -7.15 8.1 -7.05 8.15 -7.0 Q8.25 -6.7 8.45 -6.6 L8.75 -6.6 8.7 -6.65 8.8 -6.75 Q8.85 -6.85 8.85 -7.0 8.85 -7.35 8.75 -7.9 L8.65 -8.25 8.75 -8.15 8.8 -8.05 8.8 -7.95 8.9 -7.75 8.95 -7.65 Q9.1 -7.45 9.35 -7.3 9.3 -7.15 9.3 -6.9 L9.35 -6.45 Q9.35 -5.85 9.05 -5.65 8.55 -5.85 8.15 -6.15 L8.15 -6.2 7.95 -6.4 M10.55 -11.25 L10.4 -11.3 10.4 -11.4 10.45 -11.55 10.55 -11.95 10.7 -12.1 Q11.0 -12.4 11.35 -12.45 11.25 -12.05 10.75 -11.5 L10.55 -11.25 M10.15 -11.3 L10.1 -11.2 10.05 -11.2 10.0 -11.3 10.15 -11.3 M11.05 -6.5 Q11.15 -6.3 11.4 -6.3 12.25 -6.3 12.9 -6.9 13.25 -7.25 13.95 -8.25 14.55 -9.2 15.05 -9.6 15.75 -10.2 16.7 -10.2 16.85 -10.2 16.95 -10.15 17.0 -10.1 17.05 -10.1 L16.95 -10.2 Q16.9 -10.25 16.9 -10.3 15.55 -10.25 14.9 -9.7 14.65 -9.55 14.4 -9.2 L13.9 -8.6 Q13.75 -8.45 12.3 -7.65 11.05 -7.0 11.05 -6.65 L11.05 -6.5" fill="#ffffff" fill-rule="evenodd" stroke="none"/>
    <path d="M18.0 -25.75 L18.05 -25.7 Q18.55 -24.75 19.1 -22.6 L19.15 -22.35 19.3 -21.85 19.3 -21.8 19.25 -21.65 19.5 -20.35 19.7 -19.15 19.7 -18.45 Q19.65 -17.2 19.65 -14.15 L19.65 -13.9 19.45 -12.65 19.3 -11.35 Q19.15 -9.2 18.15 -7.35 16.4 -4.0 12.5 -4.0 L11.4 -4.05 Q9.95 -4.3 9.2 -4.9 L9.05 -5.05 9.45 -5.05 9.5 -5.05 9.7 -4.95 Q10.2 -4.8 10.5 -4.8 12.15 -4.8 13.3 -5.2 14.55 -5.4 14.55 -5.7 L14.65 -5.75 14.5 -5.7 Q16.4 -6.25 17.6 -9.4 17.9 -10.1 18.1 -10.75 L18.15 -10.8 18.15 -10.95 18.1 -11.3 17.95 -11.3 Q16.7 -11.05 16.45 -10.9 L16.45 -10.85 Q16.4 -10.85 16.4 -11.0 16.4 -11.6 17.35 -12.3 18.0 -12.8 18.35 -13.15 L18.6 -13.6 18.75 -14.0 Q18.85 -14.9 18.85 -15.85 L18.75 -17.5 18.75 -17.9 Q18.8 -19.0 18.8 -21.0 18.8 -22.9 18.1 -25.4 L18.0 -25.75 M10.55 -11.95 L10.55 -12.05 Q10.55 -12.7 10.0 -13.75 9.5 -14.75 8.85 -15.45 8.45 -15.85 8.15 -16.0 L8.1 -16.05 Q7.9 -16.1 7.75 -16.1 L7.6 -16.1 7.5 -16.45 7.5 -16.5 7.45 -16.75 Q7.85 -16.5 8.4 -16.3 8.35 -16.55 8.05 -17.05 L7.55 -17.85 7.45 -18.05 7.45 -18.1 7.25 -18.35 7.2 -18.4 7.15 -18.45 7.05 -19.45 7.05 -19.4 7.5 -18.65 Q7.75 -18.25 8.05 -17.95 L8.05 -17.75 Q8.05 -17.5 8.65 -16.65 9.15 -15.9 9.35 -15.75 L9.35 -15.8 9.05 -16.4 Q8.85 -16.75 8.85 -16.95 L8.85 -17.4 Q9.25 -17.2 9.8 -17.1 L9.85 -17.1 9.9 -16.9 Q10.05 -16.0 10.45 -15.1 L10.45 -15.05 10.5 -14.9 11.15 -13.55 Q11.4 -12.95 11.4 -12.75 L11.4 -12.5 11.35 -12.45 Q11.0 -12.4 10.7 -12.1 L10.55 -11.95 M7.0 -19.55 L7.0 -19.75 Q6.95 -20.4 6.95 -21.0 L6.95 -21.15 7.05 -20.65 7.05 -20.4 7.1 -20.35 Q7.25 -19.6 7.5 -19.25 L7.6 -19.15 7.55 -19.15 Q7.25 -19.15 7.0 -19.55 M8.8 -20.3 L8.85 -20.35 9.15 -20.8 9.4 -21.1 8.85 -20.35 8.8 -20.3 M9.65 -21.45 L9.65 -21.5 9.35 -22.15 Q8.85 -23.25 8.4 -23.9 7.85 -24.65 7.55 -24.7 L7.75 -25.35 7.8 -25.4 Q8.25 -25.0 8.8 -24.05 9.4 -23.3 9.55 -22.95 L9.65 -22.75 Q9.95 -22.4 10.25 -22.2 L9.7 -21.45 9.65 -21.45 M14.2 -22.45 L14.25 -22.5 14.35 -22.7 14.3 -22.75 Q14.5 -22.9 14.7 -23.25 L15.25 -24.55 Q15.65 -25.45 16.15 -25.95 16.8 -26.25 17.25 -25.2 17.4 -24.95 17.75 -23.15 18.15 -21.25 18.15 -20.9 18.15 -20.45 18.05 -20.0 17.95 -19.3 17.65 -19.3 L17.85 -19.65 17.95 -19.85 17.95 -19.95 18.0 -20.0 17.9 -20.95 Q17.8 -21.85 17.8 -22.15 L17.85 -22.55 Q17.5 -24.0 17.05 -24.5 16.2 -25.95 15.25 -24.3 14.9 -23.7 14.6 -22.9 14.45 -22.4 14.4 -22.1 L14.2 -22.45 M10.4 -17.05 L10.85 -17.05 Q11.45 -17.05 12.3 -17.25 12.3 -16.9 12.45 -16.2 L12.45 -16.15 Q12.6 -15.2 12.65 -15.15 L12.75 -15.2 Q12.6 -16.05 13.2 -17.3 L13.3 -17.55 14.1 -17.8 14.05 -17.7 14.05 -16.85 14.2 -16.85 Q14.35 -17.2 14.9 -17.8 L15.05 -17.95 15.4 -17.95 Q15.8 -17.95 16.1 -17.85 15.85 -17.6 15.85 -17.5 L15.85 -17.3 15.9 -17.2 16.35 -17.65 16.35 -17.7 16.4 -17.75 Q16.85 -17.45 17.2 -16.9 17.4 -16.5 17.5 -16.05 L17.4 -16.2 Q17.25 -16.35 17.05 -16.5 16.45 -16.8 15.55 -16.7 14.65 -16.55 14.05 -16.05 13.35 -15.5 13.3 -14.7 13.25 -13.3 13.15 -12.65 13.05 -12.0 12.8 -11.45 L12.75 -11.7 Q12.5 -12.5 11.65 -12.5 L11.6 -12.5 11.6 -12.55 Q11.5 -13.6 11.1 -14.55 L11.05 -14.65 11.05 -14.7 10.6 -15.85 Q10.4 -16.45 10.4 -17.05 M14.55 -21.85 Q15.0 -21.6 15.7 -21.0 L15.95 -20.75 16.1 -20.65 17.4 -19.45 17.55 -19.3 17.5 -19.3 Q16.55 -19.35 15.3 -20.9 14.9 -21.35 14.55 -21.85 M10.2 -8.85 L10.2 -8.8 10.15 -8.75 10.15 -8.65 Q10.15 -8.45 10.2 -8.4 10.25 -8.35 10.4 -8.35 L10.7 -8.5 Q10.95 -8.75 10.95 -8.9 L10.95 -9.0 12.35 -9.3 Q12.4 -9.4 12.4 -9.15 12.4 -8.7 11.75 -8.05 11.3 -7.6 10.7 -7.4 L11.2 -7.9 11.45 -8.05 Q11.8 -8.35 11.8 -8.7 L11.8 -8.85 Q11.75 -8.85 11.7 -8.9 L11.6 -8.85 11.45 -8.9 11.25 -8.8 10.8 -8.2 Q10.3 -7.85 9.85 -7.85 9.2 -7.85 8.95 -8.25 L9.15 -8.4 Q9.25 -8.3 9.4 -8.2 9.6 -8.3 9.7 -8.4 9.75 -8.5 9.75 -8.65 L9.75 -8.7 9.85 -8.75 10.2 -8.85" fill="#93c1b3" fill-rule="evenodd" stroke="none"/>
    <path d="M9.5 -5.05 L9.45 -5.05 Q8.7 -5.2 8.25 -5.75 8.0 -6.1 7.95 -6.4 L8.15 -6.2 8.15 -6.15 Q8.55 -5.85 9.05 -5.65 9.35 -5.85 9.35 -6.45 L9.3 -6.9 Q9.3 -7.15 9.35 -7.3 9.1 -7.45 8.95 -7.65 L8.9 -7.75 9.05 -7.65 Q9.6 -7.25 10.4 -7.25 L10.5 -7.25 10.55 -7.3 Q10.3 -7.15 10.1 -7.15 L10.05 -7.15 Q9.45 -6.65 9.45 -6.1 9.45 -5.8 9.5 -5.75 9.55 -5.55 10.0 -5.45 L10.95 -5.4 Q11.95 -5.4 13.3 -6.4 14.1 -6.95 14.7 -7.6 L16.0 -9.0 Q16.3 -9.3 16.5 -9.45 L16.6 -9.45 Q16.75 -9.55 16.9 -9.5 L16.95 -9.45 Q17.25 -9.55 17.25 -9.05 17.2 -8.7 17.0 -8.5 16.85 -8.35 16.4 -8.2 L16.25 -8.15 16.2 -8.1 16.1 -8.1 15.95 -8.05 Q15.0 -7.1 14.4 -6.75 13.55 -6.1 12.75 -5.7 11.45 -5.1 9.5 -5.05 M8.05 -7.25 L8.1 -7.25 8.1 -7.05 8.1 -7.15 8.05 -7.25 M15.2 -21.65 Q14.9 -22.15 14.9 -22.3 14.9 -22.6 15.4 -23.45 L16.15 -24.75 Q16.85 -24.45 17.4 -22.35 17.8 -20.8 17.85 -19.8 17.75 -19.7 17.6 -19.7 17.35 -19.7 16.2 -20.75 L15.2 -21.65 M7.2 -21.45 Q7.2 -24.9 8.25 -23.55 8.6 -23.1 9.0 -22.25 L9.3 -21.5 Q9.3 -21.4 8.8 -20.55 L8.6 -20.4 Q7.95 -19.8 7.8 -19.5 7.2 -20.8 7.2 -21.45" fill="#cc0000" fill-rule="evenodd" stroke="none"/>
    <path d="M8.1 -7.25 Q8.1 -8.35 8.6 -8.0 L8.75 -7.9 Q8.85 -7.35 8.85 -7.0 8.85 -6.85 8.8 -6.75 L8.7 -6.65 8.75 -6.6 8.45 -6.6 Q8.25 -6.7 8.15 -7.0 L8.1 -7.05 8.1 -7.25 M10.1 -10.2 Q10.1 -10.25 10.1 -10.35 10.1 -10.7 10.55 -11.25 L10.75 -11.5 Q11.25 -12.05 11.35 -12.45 L11.4 -12.5 11.6 -12.55 11.6 -12.5 Q11.7 -11.8 11.65 -11.1 11.65 -10.95 11.2 -10.35 L11.1 -10.2 11.05 -10.15 Q10.7 -9.75 10.6 -9.75 10.25 -9.75 10.15 -10.05 L10.1 -10.2 M8.15 -16.0 L8.05 -16.0 Q7.9 -16.0 7.75 -16.1 7.9 -16.1 8.1 -16.05 L8.15 -16.0 M9.8 -17.1 Q9.6 -18.1 9.65 -19.0 9.65 -19.55 10.0 -20.25 10.35 -20.95 10.85 -21.5 11.35 -22.05 11.7 -22.1 12.05 -22.15 12.05 -21.55 12.0 -21.45 11.75 -21.0 L11.2 -20.05 Q10.45 -18.55 10.4 -17.1 L9.85 -17.1 9.8 -17.1 M12.3 -17.25 L12.3 -17.45 Q12.3 -17.95 12.65 -18.45 13.15 -19.15 13.85 -18.9 L13.85 -18.65 Q13.85 -18.55 13.65 -18.15 L13.35 -17.6 12.9 -17.55 Q12.6 -17.45 12.3 -17.25 M14.1 -17.8 Q14.25 -18.5 15.0 -19.2 15.4 -19.55 15.65 -19.55 15.95 -19.55 15.95 -19.1 15.95 -18.95 15.2 -18.15 L15.05 -17.95 14.9 -17.8 14.85 -17.8 Q14.5 -17.85 14.05 -17.7 L14.1 -17.8 M16.15 -17.95 L16.2 -18.0 Q16.5 -18.35 16.9 -18.6 17.9 -19.3 17.85 -18.35 17.85 -18.15 17.7 -18.0 17.55 -17.85 17.3 -17.85 17.2 -17.85 17.05 -17.95 16.95 -18.05 16.8 -18.05 16.7 -18.05 16.4 -17.75 L16.35 -17.7 Q16.3 -17.9 16.15 -17.95 M15.0 -13.35 L15.1 -13.2 15.05 -13.25 Q14.8 -13.1 14.35 -12.8 L13.85 -12.4 13.7 -12.6 13.65 -12.6 13.65 -12.7 13.6 -12.75 13.6 -12.95 Q13.6 -13.3 13.85 -13.5 14.05 -13.65 14.4 -13.65 14.7 -13.65 14.9 -13.5 L15.0 -13.35 M8.05 -17.95 Q8.1 -18.2 8.15 -18.3 8.3 -18.4 8.45 -18.3 8.75 -18.05 8.85 -17.45 8.35 -17.85 8.05 -18.0 L8.05 -17.95 M8.5 -12.95 L8.65 -13.15 Q8.8 -13.25 9.0 -13.2 9.55 -13.05 9.55 -12.45 L9.55 -12.3 Q9.4 -12.4 9.25 -12.45 L8.45 -12.8 8.5 -12.95 M11.05 -6.5 L11.05 -6.65 Q11.05 -7.0 12.3 -7.65 13.75 -8.45 13.9 -8.6 L14.4 -9.2 Q14.65 -9.55 14.9 -9.7 15.55 -10.25 16.9 -10.3 16.9 -10.25 16.95 -10.2 L17.05 -10.1 Q17.0 -10.1 16.95 -10.15 16.85 -10.2 16.7 -10.2 15.75 -10.2 15.05 -9.6 14.55 -9.2 13.95 -8.25 13.25 -7.25 12.9 -6.9 12.25 -6.3 11.4 -6.3 11.15 -6.3 11.05 -6.5" fill="#0099ff" fill-rule="evenodd" stroke="none"/>
    <path d="M16.1 -16.4 L16.1 -16.35 Q16.1 -16.0 15.9 -15.05 15.7 -14.15 15.5 -13.8 15.4 -13.6 15.0 -13.35 L14.9 -13.5 Q14.7 -13.65 14.4 -13.65 14.05 -13.65 13.85 -13.5 13.6 -13.3 13.6 -12.95 L13.6 -12.75 13.45 -12.7 13.5 -12.65 13.35 -13.05 Q13.35 -13.2 13.35 -13.95 13.4 -14.95 14.0 -15.65 14.55 -16.2 15.35 -16.35 L16.1 -16.4 M7.85 -15.25 Q7.9 -15.4 8.05 -15.45 8.25 -15.5 8.55 -15.3 9.1 -15.0 9.25 -14.6 L9.7 -14.1 Q10.0 -13.65 10.0 -13.3 10.15 -12.95 10.2 -12.55 L10.15 -12.5 10.2 -12.4 10.15 -12.5 Q10.1 -12.45 9.95 -12.45 L9.55 -12.45 Q9.55 -13.05 9.0 -13.2 8.8 -13.25 8.65 -13.15 L8.5 -12.95 Q8.1 -13.4 7.95 -14.15 7.9 -14.35 7.9 -14.7 L7.85 -14.8 7.85 -15.25" fill="#fff579" fill-rule="evenodd" stroke="none"/>
    <path d="M16.1 -16.4 L16.6 -16.2 Q17.2 -15.9 17.15 -15.3 17.1 -14.55 16.05 -13.25 14.8 -11.85 13.75 -11.95 L13.7 -11.95 13.65 -12.2 13.5 -12.6 13.5 -12.65 13.45 -12.7 13.6 -12.75 13.65 -12.7 13.65 -12.6 13.7 -12.6 13.85 -12.4 13.85 -12.35 13.9 -12.35 13.95 -12.3 14.1 -12.25 14.35 -12.25 Q14.7 -12.25 14.95 -12.5 15.1 -12.75 15.1 -13.0 L15.1 -13.2 15.0 -13.35 Q15.4 -13.6 15.5 -13.8 15.7 -14.15 15.9 -15.05 16.1 -16.0 16.1 -16.35 L16.1 -16.4 M10.2 -12.4 L10.25 -12.0 10.25 -11.9 10.2 -11.7 10.2 -11.55 10.15 -11.3 10.0 -11.3 9.45 -11.9 9.45 -11.85 9.1 -11.9 9.15 -11.9 9.35 -12.0 9.5 -12.15 9.5 -12.25 9.55 -12.3 9.55 -12.45 9.95 -12.45 Q10.1 -12.45 10.15 -12.5 L10.2 -12.4 M8.1 -12.8 L8.05 -12.9 7.95 -13.05 Q7.8 -13.4 7.7 -13.7 L7.6 -13.95 Q7.6 -14.15 7.65 -14.3 L7.65 -14.45 Q7.65 -14.6 7.7 -14.85 L7.75 -15.25 7.85 -15.25 7.85 -14.8 7.9 -14.7 Q7.9 -14.35 7.95 -14.15 8.1 -13.4 8.5 -12.95 L8.45 -12.8 Q8.45 -12.65 8.5 -12.5 L8.5 -12.4 8.55 -12.35 8.6 -12.2 8.55 -12.2 8.4 -12.4 8.3 -12.5 8.1 -12.8" fill="#b9cf6b" fill-rule="evenodd" stroke="none"/>
    <path d="M7.5 -16.45 Q7.4 -16.65 7.3 -17.0 7.2 -17.5 7.15 -18.0 7.15 -18.2 7.2 -18.4 L7.25 -18.35 7.45 -18.1 7.45 -18.05 7.55 -17.85 8.05 -17.05 Q8.35 -16.55 8.4 -16.3 7.85 -16.5 7.45 -16.75 L7.5 -16.5 7.5 -16.45 M9.85 -17.1 L10.4 -17.1 10.4 -17.05 Q10.4 -16.45 10.6 -15.85 L11.05 -14.7 11.05 -14.65 11.1 -14.55 Q11.5 -13.6 11.6 -12.55 L11.4 -12.5 11.4 -12.75 Q11.4 -12.95 11.15 -13.55 L10.5 -14.9 10.45 -15.05 10.45 -15.1 Q10.05 -16.0 9.9 -16.9 L9.85 -17.1 M13.35 -17.6 L13.3 -17.55 13.2 -17.3 Q12.6 -16.05 12.75 -15.2 L12.65 -15.15 Q12.6 -15.2 12.45 -16.15 L12.45 -16.2 Q12.3 -16.9 12.3 -17.25 12.6 -17.45 12.9 -17.55 L13.35 -17.6 M16.1 -17.85 L16.15 -17.9 16.15 -17.95 Q16.3 -17.9 16.35 -17.7 L16.35 -17.65 15.9 -17.2 15.85 -17.3 15.85 -17.5 Q15.85 -17.6 16.1 -17.85 M14.05 -17.7 Q14.5 -17.85 14.85 -17.8 L14.9 -17.8 Q14.35 -17.2 14.2 -16.85 L14.05 -16.85 14.05 -17.7 M15.1 -13.2 L15.1 -13.0 Q15.1 -12.75 14.95 -12.5 14.7 -12.25 14.35 -12.25 L14.1 -12.25 13.95 -12.3 13.9 -12.35 13.85 -12.35 13.85 -12.4 14.35 -12.8 Q14.8 -13.1 15.05 -13.25 L15.1 -13.2 M8.85 -17.4 L8.85 -16.95 Q8.85 -16.75 9.05 -16.4 L9.35 -15.8 9.35 -15.75 Q9.15 -15.9 8.65 -16.65 8.05 -17.5 8.05 -17.75 L8.05 -17.95 8.05 -18.0 Q8.35 -17.85 8.85 -17.45 L8.85 -17.4 M9.1 -11.9 Q8.7 -11.95 8.4 -12.35 8.15 -12.65 8.1 -12.8 L8.3 -12.5 8.4 -12.4 8.55 -12.2 8.6 -12.2 8.55 -12.35 8.5 -12.4 8.5 -12.5 Q8.45 -12.65 8.45 -12.8 L9.25 -12.45 Q9.4 -12.4 9.55 -12.3 L9.5 -12.25 9.5 -12.15 9.35 -12.0 9.15 -11.9 9.1 -11.9" fill="#005893" fill-rule="evenodd" stroke="none"/>
    <path d="M8.8 -8.05 Q8.8 -8.2 8.9 -8.35 L8.95 -8.25 Q9.2 -7.85 9.85 -7.85 10.3 -7.85 10.8 -8.2 L11.25 -8.8 11.45 -8.9 11.6 -8.85 11.7 -8.9 Q11.75 -8.85 11.8 -8.85 L11.8 -8.7 Q11.8 -8.35 11.45 -8.05 L11.2 -7.9 10.7 -7.4 10.55 -7.3 10.5 -7.25 10.4 -7.25 Q9.6 -7.25 9.05 -7.65 L8.9 -7.75 8.8 -7.95 8.8 -8.05" fill="#950000" fill-rule="evenodd" stroke="none"/>
  </g>
</svg>
