<?xml version="1.0" encoding="UTF-8" standalone="no"?>
<svg xmlns:ffdec="https://www.free-decompiler.com/flash" xmlns:xlink="http://www.w3.org/1999/xlink" ffdec:objectType="shape" height="15.6px" width="13.05px" xmlns="http://www.w3.org/2000/svg">
  <g transform="matrix(1.0, 0.0, 0.0, 1.0, 6.2, 9.25)">
    <path d="M2.0 -9.05 L1.7 -9.05 Q0.55 -9.05 0.0 -8.5 -0.5 -8.15 -0.8 -7.7 -1.0 -7.35 -1.2 -6.85 L-1.45 -6.1 Q-1.55 -5.65 -1.8 -4.35 L-1.85 -4.15 -2.2 -2.7 Q-2.4 -1.85 -2.75 -1.2 -2.9 -0.6 -2.9 -0.5 -2.9 -0.3 -0.25 0.1 L-0.1 0.1 1.45 0.15 1.6 0.15 2.6 0.05 2.65 0.05 3.3 -0.05 3.6 -0.15 Q3.5 -0.9 3.45 -2.6 L3.4 -4.05 3.35 -4.4 3.25 -5.2 Q3.15 -5.95 3.25 -7.8 L3.25 -7.85 3.05 -8.25 2.9 -8.5 Q2.6 -8.95 2.0 -9.05 M-1.5 -1.25 Q-1.85 -1.45 -1.85 -1.55 -1.85 -1.9 -1.7 -2.5 L-1.5 -3.45 -1.5 -4.0 -1.4 -4.4 Q-1.3 -5.0 -1.3 -5.15 L-1.3 -5.25 -1.2 -5.25 -1.2 -5.2 Q-1.0 -5.15 -0.75 -5.0 -0.15 -4.65 0.0 -4.65 L1.4 -4.8 1.65 -4.85 2.0 -4.9 2.55 -5.05 2.85 -5.05 Q2.9 -5.1 2.95 -5.1 L2.95 -4.9 2.9 -4.15 2.9 -3.45 2.95 -1.85 2.9 -1.65 2.95 -1.5 2.95 -1.25 Q2.95 -1.15 2.9 -1.05 2.8 -0.95 2.55 -0.95 L1.3 -0.7 0.2 -0.7 0.05 -0.75 Q-0.35 -0.65 -1.1 -1.05 L-1.5 -1.25 M1.8 -9.25 Q2.35 -9.25 2.75 -9.05 L3.1 -8.6 3.9 -7.65 4.25 -6.85 Q4.65 -5.5 4.6 -4.75 4.45 -3.6 4.55 -2.45 4.55 -2.25 4.5 -1.85 L4.5 -1.25 Q4.5 -0.75 4.75 -0.55 4.95 -0.35 4.9 -0.1 4.9 0.05 4.8 0.3 L4.8 0.4 Q5.0 0.5 5.25 0.95 L5.65 1.45 5.95 1.9 Q5.95 2.05 5.25 2.35 L4.95 2.45 4.9 2.85 4.9 2.95 Q4.8 3.5 4.9 4.0 L5.05 4.2 5.1 4.25 Q5.15 4.5 5.3 4.75 5.7 5.3 6.25 5.45 L6.7 5.9 6.75 5.9 6.85 6.0 Q6.8 6.15 6.8 6.1 L6.5 6.25 5.5 6.35 5.35 6.3 5.3 6.3 Q4.35 6.2 3.4 5.65 L3.3 5.65 Q3.3 5.7 3.25 5.8 L3.3 5.95 2.95 6.05 Q2.55 6.05 2.3 5.9 L2.25 5.9 Q2.1 5.85 2.1 5.7 L2.1 5.55 Q2.1 5.45 2.3 4.95 L2.3 4.75 Q2.4 4.45 2.4 4.1 2.45 3.65 2.1 3.25 2.1 3.2 2.15 3.1 L2.15 3.05 1.8 2.95 1.5 2.85 Q1.2 2.7 1.25 2.6 1.25 2.5 1.7 1.6 L2.05 0.8 Q2.0 0.75 1.95 0.65 L1.9 0.5 1.9 0.45 1.4 0.45 -0.1 0.4 Q-0.1 0.65 -0.2 0.7 L0.0 1.45 0.2 2.4 Q0.15 2.6 -0.45 2.75 L-0.8 2.85 -0.8 2.9 Q-0.85 3.05 -0.9 3.3 -1.3 3.75 -1.35 4.3 L-1.3 4.35 -1.4 4.65 -1.35 5.2 -1.4 5.25 -1.4 5.35 Q-1.45 5.55 -1.6 5.55 L-1.65 5.55 Q-1.95 5.7 -2.3 5.7 -2.6 5.7 -2.65 5.6 -2.6 5.55 -2.6 5.45 L-2.65 5.35 -2.7 5.3 Q-3.75 5.85 -4.75 5.95 L-4.95 5.95 -5.9 5.9 -6.2 5.7 Q-6.25 5.8 -6.2 5.65 L-6.1 5.6 -6.15 5.55 -6.05 5.55 -5.55 5.15 -5.4 5.05 Q-4.6 4.8 -4.0 3.9 L-3.85 3.75 Q-3.6 3.3 -3.55 2.75 L-3.55 2.65 -3.5 2.3 Q-4.4 1.9 -4.4 1.75 L-3.95 1.35 -3.45 0.85 Q-3.05 0.35 -2.8 0.3 L-2.85 0.2 -2.8 0.1 -2.75 -0.05 -3.3 -0.1 -3.35 -0.1 -3.35 -0.25 -2.75 -1.85 -2.45 -2.8 -2.25 -4.4 -2.1 -5.3 Q-1.95 -5.85 -1.95 -6.1 -1.35 -7.9 -0.7 -8.65 -0.4 -8.75 -0.05 -8.95 L0.0 -9.0 0.0 -8.9 Q0.75 -9.25 1.8 -9.25 M3.55 -7.65 Q3.75 -6.25 3.65 -4.5 L3.65 -2.5 Q3.6 -1.75 3.8 -0.9 L3.95 -0.05 Q3.95 0.15 3.2 0.3 L2.55 0.4 2.4 0.45 2.45 0.6 2.45 0.65 2.4 0.7 2.45 0.75 Q2.6 0.85 3.2 0.85 L3.55 0.85 Q3.95 0.85 4.3 0.6 L4.3 0.55 Q4.3 0.3 4.35 0.1 4.4 -0.05 4.45 -0.2 L4.3 -0.45 Q4.1 -0.7 4.1 -0.85 4.1 -1.35 4.2 -1.8 4.3 -2.25 4.35 -2.5 4.35 -3.1 4.3 -4.0 L4.2 -5.5 Q4.2 -6.0 3.85 -7.05 L3.55 -7.65 M2.7 -4.65 L2.65 -4.9 Q2.35 -4.75 1.75 -4.65 L0.25 -4.5 Q-0.3 -4.5 -1.2 -5.1 L-1.3 -4.25 Q-1.3 -4.0 -1.35 -3.65 -1.05 -3.4 -0.8 -3.25 -0.3 -2.95 0.25 -2.95 L0.3 -2.95 Q0.85 -2.95 1.8 -3.25 L2.75 -3.5 2.8 -3.5 2.8 -3.65 2.7 -4.65 M0.0 -0.85 L0.2 -0.85 Q2.0 -0.75 2.55 -1.2 2.7 -1.3 2.75 -1.5 L2.75 -1.65 2.8 -1.75 2.8 -1.8 2.75 -2.05 2.75 -3.35 Q2.5 -3.15 1.85 -3.05 1.2 -2.9 0.75 -2.9 L0.35 -2.9 Q-0.3 -2.95 -0.8 -3.2 -1.05 -3.3 -1.35 -3.5 L-1.5 -3.0 Q-1.7 -2.2 -1.7 -1.8 -1.7 -1.35 -0.8 -1.1 L0.0 -0.85 M4.9 0.8 L4.8 0.7 4.65 0.65 4.55 0.65 4.45 0.75 4.4 0.7 4.05 0.85 Q3.55 1.05 3.15 1.05 L2.8 1.1 Q2.55 1.1 2.4 1.0 L2.35 1.0 2.35 1.05 Q2.2 1.2 2.05 1.5 L1.9 1.75 Q1.75 2.1 1.7 2.35 L1.65 2.5 Q2.0 2.7 2.25 2.8 L2.35 2.8 2.55 2.85 2.6 2.85 Q3.8 2.85 4.5 2.55 4.55 2.45 4.7 2.4 L4.75 2.35 4.8 2.35 4.9 2.3 5.65 1.75 5.15 1.0 4.9 0.8 M4.5 3.55 Q4.45 2.9 4.5 2.65 3.3 3.1 2.95 3.1 L2.5 3.1 2.5 3.15 Q2.75 3.8 2.7 4.1 L2.55 4.6 2.5 5.35 2.55 5.5 Q2.65 5.55 2.75 5.6 L3.0 5.7 Q3.1 5.3 3.3 5.25 L3.4 5.15 Q3.5 5.1 3.8 5.3 L3.95 5.35 4.35 5.65 Q4.75 5.9 5.05 5.9 L6.15 5.8 5.35 5.3 5.0 5.0 4.9 5.0 Q4.65 4.8 4.6 4.8 L4.0 4.85 4.65 4.5 Q4.55 4.15 4.5 3.65 L4.5 3.55 M-0.55 0.65 L-0.55 0.55 Q-0.5 0.45 -0.45 0.35 L-0.6 0.35 -1.65 0.15 -2.35 0.0 -2.35 0.05 Q-2.4 0.3 -2.5 0.4 -2.15 0.75 -1.6 0.75 L-1.35 0.7 -1.0 0.65 -0.55 0.65 M-2.0 2.6 L-1.65 2.65 -0.95 2.65 -0.9 2.6 Q-0.6 2.55 -0.2 2.35 -0.2 2.05 -0.25 1.6 -0.4 1.1 -0.6 0.9 -0.75 0.95 -1.0 0.95 L-1.35 0.95 -1.9 0.85 -2.2 0.75 Q-2.5 0.65 -2.7 0.55 -2.95 0.6 -3.35 0.9 -3.55 1.1 -4.0 1.6 L-3.4 2.15 -3.25 2.2 -3.2 2.2 Q-3.1 2.25 -3.05 2.35 -2.65 2.55 -2.0 2.6 M-3.95 5.45 L-3.7 5.35 -3.0 4.95 Q-2.7 4.8 -2.55 4.85 L-2.5 4.9 Q-2.35 5.0 -2.3 5.35 L-1.8 5.2 -1.75 5.1 -1.75 5.05 -1.6 4.35 -1.65 3.85 Q-1.65 3.6 -1.2 2.95 L-1.2 2.9 -1.6 2.9 Q-2.0 2.9 -3.1 2.45 -3.1 2.7 -3.3 3.25 L-3.35 3.4 Q-3.5 3.9 -3.65 4.2 L-3.1 4.55 -3.7 4.55 -4.05 4.7 -4.15 4.7 -4.55 5.0 -5.45 5.5 -4.95 5.5 -4.4 5.55 -3.95 5.45" fill="#111111" fill-rule="evenodd" stroke="none"/>
    <path d="M-0.25 0.1 Q-2.9 -0.3 -2.9 -0.5 -2.9 -0.6 -2.75 -1.2 -2.4 -1.85 -2.2 -2.7 L-1.85 -4.15 -1.8 -4.35 Q-1.55 -5.65 -1.45 -6.1 L-1.2 -6.85 Q-1.0 -7.35 -0.8 -7.7 -0.5 -8.15 0.0 -8.5 0.55 -9.05 1.7 -9.05 L2.0 -9.05 Q1.95 -8.6 1.85 -6.7 L1.65 -4.85 1.4 -4.8 0.0 -4.65 Q-0.15 -4.65 -0.75 -5.0 -1.0 -5.15 -1.2 -5.2 L-1.2 -5.25 -1.3 -5.25 -1.3 -5.15 Q-1.3 -5.0 -1.4 -4.4 L-1.5 -4.0 -1.5 -3.45 -1.7 -2.5 Q-1.85 -1.9 -1.85 -1.55 -1.85 -1.45 -1.5 -1.25 -1.2 -0.95 -0.55 -0.4 L-0.15 -0.1 -0.15 -0.15 -0.25 0.1 M3.35 -4.4 L3.4 -4.05 3.35 -3.3 Q3.3 -1.7 3.3 -0.05 L2.65 0.05 2.6 0.05 Q2.75 -0.4 2.9 -1.05 2.95 -1.15 2.95 -1.25 L2.95 -1.5 2.95 -1.4 Q3.15 -2.5 3.3 -4.25 L3.35 -4.4 M0.25 -2.95 Q-0.3 -2.95 -0.8 -3.25 -1.05 -3.4 -1.35 -3.65 -1.3 -4.0 -1.3 -4.25 L-1.2 -5.1 Q-0.3 -4.5 0.25 -4.5 L1.75 -4.65 Q2.35 -4.75 2.65 -4.9 L2.7 -4.65 2.65 -4.75 2.55 -4.65 Q1.15 -3.75 0.9 -3.75 0.7 -3.75 0.4 -3.25 L0.2 -2.95 0.25 -2.95 M0.35 -2.9 L0.2 -2.9 Q0.15 -2.8 0.15 -2.65 0.15 -2.4 0.55 -1.9 0.75 -1.7 0.95 -1.55 L0.0 -0.85 -0.8 -1.1 Q-1.7 -1.35 -1.7 -1.8 -1.7 -2.2 -1.5 -3.0 L-1.35 -3.5 Q-1.05 -3.3 -0.8 -3.2 -0.3 -2.95 0.35 -2.9" fill="#8eb960" fill-rule="evenodd" stroke="none"/>
    <path d="M-0.25 0.1 L-0.15 -0.15 -0.15 -0.1 -0.55 -0.4 Q-1.2 -0.95 -1.5 -1.25 L-1.1 -1.05 Q-0.35 -0.65 0.05 -0.75 L0.2 -0.7 1.3 -0.7 2.55 -0.95 Q2.8 -0.95 2.9 -1.05 2.75 -0.4 2.6 0.05 L1.6 0.15 1.45 0.15 -0.1 0.1 -0.25 0.1 M1.65 -4.85 L1.85 -6.7 Q1.95 -8.6 2.0 -9.05 2.6 -8.95 2.9 -8.5 L3.05 -8.25 3.25 -7.85 3.25 -7.8 Q3.15 -5.95 3.25 -5.2 L3.35 -4.4 3.3 -4.25 Q3.15 -2.5 2.95 -1.4 L2.95 -1.5 2.9 -1.65 2.95 -1.85 2.9 -3.45 2.9 -4.15 2.95 -4.9 2.95 -5.1 Q2.9 -5.1 2.85 -5.05 L2.55 -5.05 2.0 -4.9 1.65 -4.85 M3.4 -4.05 L3.45 -2.6 Q3.5 -0.9 3.6 -0.15 L3.3 -0.05 Q3.3 -1.7 3.35 -3.3 L3.4 -4.05 M0.25 -2.95 L0.2 -2.95 0.4 -3.25 Q0.7 -3.75 0.9 -3.75 1.15 -3.75 2.55 -4.65 L2.65 -4.75 2.7 -4.65 2.8 -3.65 2.8 -3.5 2.75 -3.5 1.8 -3.25 Q0.85 -2.95 0.3 -2.95 L0.25 -2.95 M0.35 -2.9 L0.75 -2.9 Q1.2 -2.9 1.85 -3.05 2.5 -3.15 2.75 -3.35 L2.75 -2.05 2.8 -1.8 2.8 -1.75 2.75 -1.65 2.75 -1.5 Q2.7 -1.3 2.55 -1.2 2.0 -0.75 0.2 -0.85 L0.0 -0.85 0.95 -1.55 Q0.75 -1.7 0.55 -1.9 0.15 -2.4 0.15 -2.65 0.15 -2.8 0.2 -2.9 L0.35 -2.9" fill="#519245" fill-rule="evenodd" stroke="none"/>
    <path d="M3.55 -7.65 L3.85 -7.05 Q4.2 -6.0 4.2 -5.5 L4.3 -4.0 Q4.35 -3.1 4.35 -2.5 4.3 -2.25 4.2 -1.8 4.1 -1.35 4.1 -0.85 4.1 -0.7 4.3 -0.45 L4.45 -0.2 Q4.4 -0.05 4.35 0.1 4.3 0.3 4.3 0.55 L4.3 0.6 Q3.95 0.85 3.55 0.85 L3.2 0.85 Q2.6 0.85 2.45 0.75 L2.4 0.7 2.45 0.65 2.45 0.6 2.4 0.45 2.55 0.4 3.2 0.3 Q3.95 0.15 3.95 -0.05 L3.8 -0.9 Q3.6 -1.75 3.65 -2.5 L3.65 -4.5 Q3.75 -6.25 3.55 -7.65 M-0.55 0.65 L-1.0 0.65 -1.35 0.7 -1.6 0.75 Q-2.15 0.75 -2.5 0.4 -2.4 0.3 -2.35 0.05 L-2.35 0.0 -1.65 0.15 -0.6 0.35 -0.45 0.35 Q-0.5 0.45 -0.55 0.55 L-0.55 0.65" fill="#451f2d" fill-rule="evenodd" stroke="none"/>
    <path d="M2.6 2.85 L2.55 2.85 2.35 2.8 2.25 2.8 Q2.0 2.7 1.65 2.5 L1.7 2.35 Q1.75 2.1 1.9 1.75 L2.05 1.5 Q2.2 1.2 2.35 1.05 L2.35 1.0 2.4 1.0 Q2.55 1.1 2.8 1.1 L3.15 1.05 Q3.55 1.05 4.05 0.85 L4.4 0.7 4.45 0.75 4.55 0.65 4.65 0.65 4.8 0.7 4.9 0.8 4.35 0.95 4.25 1.0 Q3.0 1.85 2.85 2.05 L2.75 2.35 2.6 2.85 M3.95 5.35 L3.8 5.3 Q3.5 5.1 3.4 5.15 L3.3 5.25 Q3.1 5.3 3.0 5.7 L2.75 5.6 Q2.65 5.55 2.55 5.5 L2.5 5.35 2.55 4.6 2.7 4.1 Q2.75 3.8 2.5 3.15 L2.5 3.1 2.95 3.1 Q3.3 3.1 4.5 2.65 4.45 2.9 4.5 3.55 4.4 3.5 4.25 3.5 3.5 3.5 3.15 4.05 L3.55 4.75 Q3.8 5.15 4.1 5.45 L3.95 5.35 M-1.9 0.85 L-1.35 0.95 -1.0 0.95 Q-0.75 0.95 -0.6 0.9 -0.4 1.1 -0.25 1.6 -0.2 2.05 -0.2 2.35 -0.6 2.55 -0.9 2.6 L-0.95 2.65 -1.65 2.65 -2.0 2.6 -2.0 2.5 Q-2.0 2.2 -1.95 1.7 L-1.85 1.1 -1.9 0.85 M-3.3 3.25 Q-3.1 2.7 -3.1 2.45 -2.0 2.9 -1.6 2.9 L-1.2 2.9 -1.2 2.95 Q-1.65 3.6 -1.65 3.85 L-1.6 4.35 -1.75 5.05 -1.75 5.1 -1.8 5.2 -2.3 5.35 Q-2.35 5.0 -2.5 4.9 L-2.55 4.85 Q-2.7 4.8 -3.0 4.95 L-3.7 5.35 -3.95 5.45 -3.75 5.3 -2.55 4.55 Q-2.25 4.2 -2.15 3.7 L-2.15 3.5 Q-2.5 3.3 -3.3 3.25" fill="#4e2714" fill-rule="evenodd" stroke="none"/>
    <path d="M2.6 2.85 L2.75 2.35 2.85 2.05 Q3.0 1.85 4.25 1.0 L4.35 0.95 4.9 0.8 5.15 1.0 5.65 1.75 4.9 2.3 4.8 2.35 4.75 2.35 4.7 2.4 Q4.55 2.45 4.5 2.55 3.8 2.85 2.6 2.85 M4.5 3.55 L4.5 3.65 Q4.55 4.15 4.65 4.5 L4.0 4.85 4.6 4.8 Q4.65 4.8 4.9 5.0 L5.0 5.0 5.35 5.3 6.15 5.8 5.05 5.9 Q4.75 5.9 4.35 5.65 L3.95 5.35 4.1 5.45 Q3.8 5.15 3.55 4.75 L3.15 4.05 Q3.5 3.5 4.25 3.5 4.4 3.5 4.5 3.55 M-1.9 0.85 L-1.85 1.1 -1.95 1.7 Q-2.0 2.2 -2.0 2.5 L-2.0 2.6 Q-2.65 2.55 -3.05 2.35 -3.1 2.25 -3.2 2.2 L-3.25 2.2 -3.4 2.15 -4.0 1.6 Q-3.55 1.1 -3.35 0.9 -2.95 0.6 -2.7 0.55 -2.5 0.65 -2.2 0.75 L-1.9 0.85 M-3.3 3.25 Q-2.5 3.3 -2.15 3.5 L-2.15 3.7 Q-2.25 4.2 -2.55 4.55 L-3.75 5.3 -3.95 5.45 -4.4 5.55 -4.95 5.5 -5.45 5.5 -4.55 5.0 -4.15 4.7 -4.05 4.7 -3.7 4.55 -3.1 4.55 -3.65 4.2 Q-3.5 3.9 -3.35 3.4 L-3.3 3.25" fill="#684e1c" fill-rule="evenodd" stroke="none"/>
  </g>
</svg>
