<?xml version="1.0" encoding="UTF-8" standalone="no"?>
<svg xmlns:ffdec="https://www.free-decompiler.com/flash" xmlns:xlink="http://www.w3.org/1999/xlink" ffdec:objectType="shape" height="18.45px" width="14.1px" xmlns="http://www.w3.org/2000/svg">
  <g transform="matrix(1.0, 0.0, 0.0, 1.0, -6.4, 22.7)">
    <path d="M17.3 -21.25 L17.25 -21.35 17.1 -21.5 16.25 -21.35 14.95 -21.05 14.9 -21.05 14.85 -21.0 Q15.4 -20.45 15.75 -19.85 L15.8 -19.85 16.2 -18.95 Q16.5 -19.15 17.5 -19.4 L18.65 -19.7 18.45 -20.0 18.35 -20.1 18.1 -20.05 17.25 -19.8 16.65 -19.6 Q16.6 -19.5 16.55 -19.5 L16.0 -20.2 Q15.65 -20.65 15.65 -20.95 L15.75 -20.85 16.25 -21.05 16.7 -21.15 16.8 -21.15 16.95 -21.15 17.35 -21.25 17.3 -21.25 M19.3 -12.6 Q19.25 -13.05 19.25 -13.55 19.25 -14.05 19.35 -14.7 18.7 -14.75 17.8 -15.6 16.9 -16.4 16.9 -16.7 16.9 -16.95 17.55 -17.05 L19.6 -17.4 19.6 -17.85 Q19.4 -18.6 18.85 -19.45 L18.35 -19.35 17.55 -19.2 16.25 -18.8 16.2 -18.95 16.25 -18.7 16.25 -18.65 16.15 -18.8 16.1 -18.85 Q15.35 -19.9 14.6 -20.95 L14.55 -20.95 Q15.5 -21.45 15.75 -21.55 16.2 -21.7 16.8 -21.75 L16.55 -21.95 16.35 -22.05 Q15.6 -22.4 15.05 -22.4 14.35 -22.4 12.45 -21.8 L10.4 -21.2 10.3 -21.2 9.45 -20.95 9.15 -20.85 9.35 -20.85 Q12.2 -20.7 13.55 -19.75 14.65 -19.0 14.65 -17.9 L14.6 -17.75 14.4 -18.3 14.4 -18.25 Q14.7 -17.1 14.8 -15.35 L14.9 -13.5 14.9 -13.2 15.15 -11.35 15.4 -9.75 15.4 -9.55 15.45 -9.05 15.5 -8.65 Q15.5 -7.75 15.1 -6.35 14.85 -5.35 14.45 -4.8 15.05 -4.95 15.65 -5.2 L16.15 -5.4 17.85 -6.05 Q18.8 -6.45 19.1 -6.75 19.55 -7.05 20.0 -7.5 20.2 -8.05 20.2 -8.4 L20.15 -8.75 20.15 -8.85 20.1 -9.0 Q20.1 -9.25 19.9 -9.7 L19.8 -9.9 19.8 -9.95 19.75 -10.15 19.65 -10.4 19.65 -10.45 19.5 -11.2 19.45 -11.15 19.45 -11.4 19.4 -11.7 19.4 -11.8 19.35 -12.4 19.3 -12.6 M17.25 -21.8 L17.2 -21.8 Q17.8 -21.35 18.55 -20.4 19.1 -19.7 19.5 -19.0 19.9 -18.35 19.9 -18.05 L19.85 -17.85 19.85 -17.8 19.9 -17.0 19.9 -16.9 19.95 -16.85 19.85 -16.8 19.75 -15.45 Q19.6 -14.1 19.6 -13.55 19.6 -11.7 20.05 -10.15 L20.35 -9.15 Q20.5 -8.7 20.5 -8.4 20.5 -7.95 20.3 -7.35 20.0 -6.6 19.55 -6.6 L19.6 -6.7 19.05 -6.35 Q18.2 -5.8 17.4 -5.65 16.65 -5.3 15.85 -4.95 14.7 -4.45 13.85 -4.3 L13.55 -4.25 13.45 -4.3 13.05 -4.3 Q11.95 -4.3 11.5 -4.9 L11.3 -5.1 Q11.1 -5.3 11.0 -5.55 L10.95 -5.7 10.9 -5.7 10.35 -5.45 Q9.5 -5.1 9.4 -5.1 L9.3 -5.1 9.05 -5.05 Q8.45 -5.05 7.7 -5.95 7.4 -6.15 7.1 -6.5 6.4 -7.35 6.4 -8.0 L6.65 -9.65 Q6.85 -10.55 6.9 -11.55 L6.85 -11.45 Q6.9 -11.95 6.9 -12.65 L7.0 -13.6 7.05 -14.5 Q7.05 -15.2 7.0 -15.95 L6.95 -15.95 6.9 -16.45 6.9 -16.5 Q6.75 -17.55 6.75 -18.5 6.75 -19.05 6.85 -19.5 6.95 -19.8 7.1 -20.0 7.1 -20.5 7.9 -20.9 8.6 -21.2 9.95 -21.55 L12.5 -22.05 Q14.05 -22.4 14.85 -22.7 15.95 -22.6 16.5 -22.35 16.95 -22.15 17.25 -21.8 M15.95 -20.75 L15.9 -20.75 16.2 -20.35 16.6 -19.7 16.75 -19.75 Q16.85 -19.9 17.65 -20.15 L18.25 -20.25 17.5 -21.1 16.25 -20.8 16.0 -20.75 16.0 -20.8 15.95 -20.75 M12.55 -17.45 L11.9 -17.95 11.9 -18.05 11.95 -18.1 Q12.05 -18.0 12.85 -17.55 13.3 -17.25 13.6 -17.1 L13.55 -17.3 13.55 -17.35 Q13.5 -18.1 13.25 -18.25 13.05 -18.6 12.8 -18.85 L12.2 -19.3 12.1 -19.35 12.05 -19.35 12.0 -19.4 11.85 -19.45 11.75 -19.5 11.55 -19.55 10.25 -19.9 10.15 -20.0 9.85 -20.0 9.6 -19.95 9.7 -19.9 Q9.25 -19.75 8.85 -19.3 8.75 -19.15 8.7 -19.05 8.5 -18.75 8.55 -18.45 8.55 -18.2 8.5 -17.85 L8.35 -17.4 8.65 -17.65 Q9.1 -17.95 9.8 -18.35 L9.95 -18.4 Q9.65 -17.9 8.95 -17.35 L8.25 -16.7 8.2 -16.6 8.65 -16.8 9.8 -17.2 10.4 -17.4 10.6 -17.4 10.65 -17.4 10.65 -17.3 Q10.3 -17.05 9.05 -16.55 8.7 -16.4 8.45 -16.25 L8.15 -16.2 8.2 -15.2 8.6 -15.2 8.8 -15.25 11.4 -15.5 12.75 -15.5 Q13.25 -15.4 13.6 -15.35 L13.65 -15.35 13.65 -15.4 13.55 -15.9 13.65 -15.85 13.6 -16.75 13.3 -16.95 12.9 -17.25 12.55 -17.45 M8.15 -20.35 L8.5 -20.4 9.15 -20.4 Q10.2 -20.4 11.35 -20.05 12.0 -19.85 12.65 -19.6 13.0 -19.45 13.2 -19.25 L13.4 -18.9 13.45 -18.65 13.6 -18.45 Q13.95 -17.7 14.05 -16.65 14.1 -16.2 14.1 -14.4 14.1 -13.4 14.15 -12.8 14.3 -11.95 14.4 -11.7 L14.4 -11.65 14.35 -11.6 Q14.5 -11.0 14.5 -10.75 L14.7 -9.85 14.8 -9.3 14.8 -8.65 14.75 -8.4 Q14.75 -7.9 14.7 -7.75 14.6 -7.4 14.25 -6.75 L14.25 -6.65 14.2 -6.5 Q13.5 -5.05 12.5 -4.75 L13.5 -4.7 13.6 -4.65 13.7 -4.65 Q14.45 -5.3 14.85 -6.4 15.25 -7.45 15.25 -8.55 15.25 -9.1 14.95 -10.55 14.65 -12.0 14.65 -13.35 14.65 -14.45 14.45 -16.3 L14.15 -18.65 14.05 -18.85 14.05 -18.75 Q13.75 -19.25 13.25 -19.65 12.6 -20.05 11.5 -20.35 L10.85 -20.5 10.65 -20.55 10.8 -20.5 10.0 -20.6 9.85 -20.65 9.1 -20.75 8.9 -20.75 8.15 -20.55 7.95 -20.5 7.75 -20.35 8.15 -20.35 M12.25 -15.2 L12.25 -15.2 M12.6 -13.85 L13.4 -13.7 Q13.05 -13.9 12.55 -14.45 L12.1 -14.95 12.05 -15.05 11.95 -15.2 11.5 -15.2 Q11.65 -14.95 11.65 -14.7 L11.65 -14.6 11.55 -14.55 Q11.4 -14.55 11.35 -14.75 L11.35 -15.2 11.3 -15.2 10.4 -15.15 10.35 -15.15 10.35 -15.1 10.15 -15.1 10.1 -15.0 10.0 -14.8 10.05 -14.35 10.1 -14.1 Q10.35 -14.25 11.1 -14.1 L11.15 -14.1 11.5 -14.05 12.4 -13.85 12.6 -13.85 M13.05 -14.7 L12.9 -14.7 12.95 -14.65 12.95 -14.6 13.2 -14.4 13.3 -14.3 13.85 -13.75 13.75 -14.6 13.75 -14.7 13.7 -15.2 13.55 -15.15 13.5 -15.15 Q13.5 -15.0 13.25 -14.8 L13.2 -14.8 13.1 -14.75 13.05 -14.7 M13.9 -14.35 L13.9 -14.35 M17.15 -16.7 Q17.65 -15.85 19.35 -14.95 L19.4 -15.4 Q19.2 -15.45 18.65 -15.85 18.1 -16.25 17.95 -16.45 18.05 -16.55 18.6 -16.65 L19.55 -16.9 19.6 -17.2 18.85 -17.05 17.2 -16.75 Q17.2 -16.7 17.15 -16.7 M19.15 -16.5 L18.35 -16.45 19.05 -15.9 19.45 -15.65 19.45 -15.9 19.55 -16.6 19.15 -16.5 M9.6 -19.95 L9.6 -19.95 M7.35 -20.0 L7.2 -19.55 Q7.05 -18.9 7.05 -18.45 7.05 -18.25 7.2 -17.4 L7.3 -16.6 7.45 -17.2 Q7.3 -16.65 7.3 -16.05 L7.3 -15.8 7.35 -15.15 7.4 -14.45 7.35 -13.7 7.3 -13.1 7.2 -12.65 7.25 -12.65 Q7.25 -12.25 7.3 -11.85 L7.25 -12.0 Q7.2 -11.15 7.0 -9.85 L6.7 -8.05 Q6.7 -7.55 7.45 -6.7 7.9 -6.15 8.35 -5.8 8.35 -5.9 8.35 -5.85 L8.4 -5.9 Q8.5 -5.75 8.75 -5.65 9.05 -5.45 9.4 -5.45 9.5 -5.45 10.35 -5.85 L10.45 -5.85 Q10.15 -6.0 9.9 -6.3 L9.45 -6.95 Q9.2 -7.1 8.95 -7.25 8.6 -7.5 8.35 -7.75 L8.2 -7.85 Q8.0 -7.95 7.8 -8.25 7.55 -8.6 7.55 -8.7 7.55 -9.0 7.65 -10.1 7.75 -11.0 7.8 -11.45 7.6 -11.75 7.6 -11.85 L7.65 -11.9 7.65 -12.2 Q7.65 -12.45 7.7 -12.7 7.8 -13.0 8.05 -13.15 8.2 -13.3 8.45 -13.4 L8.5 -13.85 Q8.5 -14.05 8.3 -14.9 L8.25 -14.9 Q7.9 -14.9 7.8 -15.4 7.75 -15.65 7.8 -16.05 L7.8 -16.15 7.65 -16.1 Q7.75 -16.3 7.95 -16.4 L7.95 -16.45 7.85 -16.55 7.85 -16.65 Q7.85 -16.9 8.15 -17.25 L8.15 -17.65 Q8.15 -18.5 8.25 -18.95 8.5 -19.95 9.2 -20.0 L7.65 -20.05 7.45 -20.1 7.35 -20.0 M7.6 -20.25 L7.6 -20.25 M7.1 -16.0 L7.1 -16.0 M9.35 -14.45 L9.5 -14.65 9.5 -14.7 9.2 -14.7 Q8.95 -14.7 8.95 -14.85 8.95 -15.0 9.15 -15.05 L8.7 -15.05 8.5 -15.0 8.5 -14.9 8.55 -14.9 8.6 -14.65 8.7 -14.5 8.75 -14.25 8.75 -13.6 8.75 -13.55 8.7 -13.45 8.75 -13.45 8.75 -13.5 9.35 -13.6 9.85 -13.65 9.85 -13.7 9.9 -14.5 9.9 -14.6 9.8 -14.4 Q9.4 -13.8 9.1 -13.8 L9.05 -13.8 9.0 -13.8 8.95 -13.85 9.35 -14.45 M9.85 -15.05 L9.9 -15.1 9.85 -15.1 9.85 -15.05 M11.6 -13.75 L11.55 -13.75 11.1 -13.85 11.05 -13.85 10.75 -13.85 Q10.2 -13.85 10.1 -13.8 L10.1 -13.6 10.1 -13.55 9.9 -12.75 9.8 -12.4 9.7 -11.8 9.65 -11.75 Q9.65 -11.6 9.95 -11.15 10.2 -11.1 10.4 -10.85 L10.6 -10.5 Q10.7 -10.3 10.85 -10.2 L10.55 -10.2 Q10.3 -10.3 10.2 -10.5 L10.0 -10.8 Q9.35 -11.3 9.35 -11.75 9.35 -12.05 9.5 -12.7 L9.55 -12.9 9.6 -13.0 Q9.7 -13.1 9.8 -13.4 L9.8 -13.55 Q9.65 -13.4 9.25 -13.35 L8.7 -13.15 8.4 -13.0 8.35 -13.0 Q8.25 -12.85 8.1 -12.55 L8.15 -12.55 8.05 -12.45 7.9 -12.15 Q7.9 -11.85 8.65 -10.7 L9.45 -9.55 9.45 -9.5 9.4 -9.5 9.45 -9.4 9.1 -9.75 8.75 -10.15 8.75 -10.2 8.65 -10.3 8.45 -10.55 8.4 -10.6 8.15 -10.9 8.1 -11.0 8.1 -10.7 8.05 -9.95 8.0 -9.7 7.95 -9.35 Q7.85 -8.95 7.85 -8.7 L8.25 -8.35 8.7 -8.0 8.75 -8.0 9.1 -7.9 9.25 -7.9 9.95 -7.75 11.1 -7.55 Q12.45 -7.4 13.25 -7.55 L13.2 -7.55 13.05 -7.45 12.95 -7.4 Q12.75 -7.3 12.65 -7.3 L12.3 -7.3 11.85 -7.3 11.4 -7.25 11.3 -7.25 11.35 -7.2 11.25 -7.2 10.1 -7.3 Q9.55 -7.35 9.1 -7.5 9.35 -7.35 9.5 -7.3 10.6 -6.8 12.6 -6.95 L12.55 -6.9 12.35 -6.75 12.25 -6.75 Q11.85 -6.6 10.95 -6.6 10.55 -6.6 10.15 -6.7 9.95 -6.75 9.75 -6.85 L10.0 -6.5 Q10.3 -6.2 10.7 -6.15 L10.9 -6.15 11.65 -6.2 11.75 -6.2 Q12.15 -6.25 12.5 -6.4 12.9 -6.55 13.25 -6.8 L13.55 -7.0 13.85 -7.35 14.3 -7.9 14.35 -7.95 14.4 -8.2 14.45 -8.25 14.45 -8.8 14.4 -9.7 14.3 -10.35 14.3 -10.45 14.25 -10.85 14.1 -11.2 14.15 -11.3 14.1 -11.45 14.05 -11.7 14.05 -11.8 14.0 -11.9 13.85 -12.75 13.85 -13.3 13.85 -13.45 13.7 -13.45 13.1 -13.45 12.9 -13.45 11.9 -13.7 11.6 -13.75 M8.1 -11.0 L8.1 -11.0 M13.15 -9.85 L13.1 -9.85 Q12.7 -10.05 12.6 -10.15 L12.6 -10.2 Q12.6 -10.4 13.3 -10.5 L13.35 -10.5 13.85 -10.55 14.25 -10.55 14.15 -10.5 13.85 -10.4 13.3 -10.2 13.85 -9.85 14.0 -9.75 14.1 -9.7 14.3 -9.55 14.1 -9.6 14.05 -9.6 Q13.7 -9.65 13.2 -9.8 L13.15 -9.85 M14.75 -11.6 L14.7 -11.6 14.75 -11.65 14.75 -11.6 M13.85 -13.7 L13.85 -13.7 M14.15 -7.4 L14.1 -7.3 14.05 -7.25 14.0 -7.15 Q13.85 -6.85 13.5 -6.55 12.7 -5.8 11.35 -5.7 11.7 -5.0 11.95 -5.0 13.1 -5.0 13.9 -6.7 L14.15 -7.3 14.15 -7.4" fill="#111111" fill-rule="evenodd" stroke="none"/>
    <path d="M17.3 -21.25 L17.35 -21.25 16.95 -21.15 16.8 -21.15 17.3 -21.25 M16.2 -18.95 L16.25 -18.8 17.55 -19.2 18.35 -19.35 18.85 -19.45 Q19.4 -18.6 19.6 -17.85 L19.6 -17.4 17.55 -17.05 Q16.9 -16.95 16.9 -16.7 16.9 -16.4 17.8 -15.6 18.7 -14.75 19.35 -14.7 19.25 -14.05 19.25 -13.55 19.25 -13.05 19.3 -12.6 18.9 -12.55 18.25 -12.25 17.25 -11.85 17.25 -11.5 L18.5 -10.9 19.6 -10.35 19.65 -10.25 19.65 -10.1 Q19.65 -9.95 19.55 -9.85 19.15 -9.6 17.5 -9.6 16.75 -9.6 15.9 -9.95 L15.35 -10.15 15.4 -9.8 15.5 -9.75 15.4 -9.75 15.15 -11.35 14.9 -13.2 14.9 -13.5 14.8 -15.35 Q14.7 -17.1 14.4 -18.25 L14.4 -18.3 14.6 -17.75 14.65 -17.9 Q14.65 -19.0 13.55 -19.75 12.2 -20.7 9.35 -20.85 L9.15 -20.85 9.45 -20.95 10.3 -21.2 10.4 -21.2 12.45 -21.8 Q14.35 -22.4 15.05 -22.4 15.6 -22.4 16.35 -22.05 L16.55 -21.95 16.8 -21.75 Q16.2 -21.7 15.75 -21.55 15.5 -21.45 14.55 -20.95 L14.6 -20.95 Q15.35 -19.9 16.1 -18.85 L16.15 -18.8 16.25 -18.65 16.25 -18.7 16.2 -18.95 M14.85 -21.0 L14.9 -21.05 14.95 -21.05 14.85 -21.0 M15.95 -20.75 L16.0 -20.8 16.0 -20.75 16.25 -20.8 17.5 -21.1 18.25 -20.25 17.65 -20.15 Q16.85 -19.9 16.75 -19.75 L16.6 -19.7 16.2 -20.35 15.9 -20.75 15.95 -20.75 M19.15 -16.5 L19.55 -16.6 19.45 -15.9 19.45 -15.65 19.05 -15.9 18.35 -16.45 19.15 -16.5" fill="#b00000" fill-rule="evenodd" stroke="none"/>
    <path d="M14.95 -21.05 L16.25 -21.35 17.1 -21.5 17.25 -21.35 17.3 -21.25 16.8 -21.15 16.7 -21.15 16.25 -21.05 15.75 -20.85 15.65 -20.95 Q15.65 -20.65 16.0 -20.2 L16.55 -19.5 Q16.6 -19.5 16.65 -19.6 L17.25 -19.8 18.1 -20.05 18.35 -20.1 18.45 -20.0 18.65 -19.7 17.5 -19.4 Q16.5 -19.15 16.2 -18.95 L15.8 -19.85 15.75 -19.85 Q15.4 -20.45 14.85 -21.0 L14.95 -21.05 M14.4 -11.7 Q14.3 -11.95 14.15 -12.8 14.1 -13.4 14.1 -14.4 14.1 -16.2 14.05 -16.65 13.95 -17.7 13.6 -18.45 L13.45 -18.65 13.4 -18.9 13.2 -19.25 Q13.0 -19.45 12.65 -19.6 12.0 -19.85 11.35 -20.05 10.2 -20.4 9.15 -20.4 L8.5 -20.4 8.15 -20.35 8.15 -20.55 8.9 -20.75 9.1 -20.75 9.85 -20.65 10.0 -20.6 10.8 -20.5 10.65 -20.55 10.85 -20.5 11.5 -20.35 Q12.6 -20.05 13.25 -19.65 13.75 -19.25 14.05 -18.75 L14.05 -18.85 14.15 -18.65 14.45 -16.3 Q14.65 -14.45 14.65 -13.35 14.65 -12.0 14.95 -10.55 15.25 -9.1 15.25 -8.55 15.25 -7.45 14.85 -6.4 14.45 -5.3 13.7 -4.65 L13.6 -4.65 13.5 -4.7 12.5 -4.75 Q13.5 -5.05 14.2 -6.5 L14.25 -6.65 14.25 -6.75 Q14.6 -7.4 14.7 -7.75 14.75 -7.9 14.75 -8.4 L14.8 -8.65 14.8 -9.3 14.7 -9.85 14.5 -10.75 Q14.5 -11.0 14.35 -11.6 L14.4 -11.65 14.4 -11.7 M17.15 -16.7 Q17.2 -16.7 17.2 -16.75 L18.85 -17.05 19.6 -17.2 19.55 -16.9 18.6 -16.65 Q18.05 -16.55 17.95 -16.45 18.1 -16.25 18.65 -15.85 19.2 -15.45 19.4 -15.4 L19.35 -14.95 Q17.65 -15.85 17.15 -16.7 M14.7 -11.6 L14.75 -11.6 14.75 -11.65 14.7 -11.6" fill="#ffffff" fill-rule="evenodd" stroke="none"/>
    <path d="M8.7 -19.05 Q8.75 -19.15 8.85 -19.3 9.25 -19.75 9.7 -19.9 L9.6 -19.95 9.85 -20.0 10.15 -20.0 10.25 -19.9 11.55 -19.55 11.75 -19.5 11.85 -19.45 12.0 -19.4 12.05 -19.35 12.1 -19.35 12.2 -19.3 12.8 -18.85 Q13.05 -18.6 13.25 -18.25 13.5 -18.1 13.55 -17.35 L13.55 -17.3 13.6 -17.1 Q13.3 -17.25 12.85 -17.55 12.05 -18.0 11.95 -18.1 L11.9 -18.05 11.9 -17.95 12.55 -17.45 11.1 -18.4 Q11.1 -18.45 11.15 -18.5 L11.3 -18.55 11.7 -18.5 Q12.0 -18.4 12.1 -18.3 L12.2 -18.3 Q11.9 -18.65 11.4 -18.9 10.65 -19.25 9.65 -19.25 L9.0 -19.15 8.7 -19.05 M13.3 -16.95 L13.6 -16.75 13.65 -15.85 13.55 -15.9 13.5 -15.95 Q13.35 -16.05 13.15 -16.1 13.1 -16.15 12.9 -16.2 L12.85 -16.2 12.25 -16.3 12.25 -16.35 Q11.8 -17.0 11.8 -16.95 11.8 -17.25 12.4 -16.9 L13.2 -16.4 13.2 -16.7 Q13.2 -16.9 13.3 -16.95 M10.6 -17.4 L10.4 -17.4 9.8 -17.2 8.65 -16.8 8.2 -16.6 8.25 -16.7 8.95 -17.35 9.05 -17.35 Q10.25 -17.8 10.65 -17.8 L10.7 -17.8 10.7 -17.65 10.3 -17.45 Q10.6 -17.6 10.7 -17.6 L10.8 -17.5 10.6 -17.4 M9.8 -18.35 Q9.1 -17.95 8.65 -17.65 L8.35 -17.4 8.5 -17.85 9.1 -18.3 Q10.1 -18.95 10.1 -18.65 10.1 -18.55 9.8 -18.35 M11.05 -13.85 L11.1 -13.85 11.55 -13.75 11.6 -13.75 11.6 -12.2 11.55 -12.2 11.45 -12.15 Q11.3 -12.15 11.15 -13.05 L11.05 -13.85 M13.1 -13.45 L13.7 -13.45 13.85 -13.3 13.85 -12.75 14.0 -11.9 14.05 -11.8 14.05 -11.7 14.1 -11.45 14.15 -11.3 14.1 -11.2 14.25 -10.85 14.3 -10.45 14.3 -10.35 14.4 -9.7 14.45 -8.8 14.45 -8.25 14.4 -8.2 14.35 -7.95 14.3 -7.9 13.85 -7.35 13.55 -7.0 13.25 -6.8 Q12.9 -6.55 12.5 -6.4 12.7 -6.5 12.9 -6.65 13.2 -6.85 13.4 -7.1 13.3 -7.1 13.2 -7.0 13.05 -6.9 12.85 -6.85 L12.25 -6.75 12.35 -6.75 12.55 -6.9 12.6 -6.95 Q10.6 -6.8 9.5 -7.3 9.35 -7.35 9.1 -7.5 9.55 -7.35 10.1 -7.3 L10.3 -7.2 Q10.95 -7.05 11.75 -7.05 12.5 -7.05 13.15 -7.4 13.6 -7.65 13.85 -7.9 13.55 -7.7 13.25 -7.55 L13.05 -7.45 13.2 -7.55 13.25 -7.55 Q12.45 -7.4 11.1 -7.55 L9.95 -7.75 9.25 -7.9 9.1 -7.9 8.75 -8.0 8.7 -8.0 8.25 -8.35 7.85 -8.7 Q7.85 -8.95 7.95 -9.35 L8.0 -9.7 8.05 -9.95 8.1 -10.7 8.1 -11.0 8.15 -10.9 8.4 -10.6 8.45 -10.55 8.65 -10.3 8.8 -10.1 8.8 -10.05 8.75 -10.2 8.75 -10.15 9.1 -9.75 9.45 -9.4 9.4 -9.5 9.45 -9.5 9.45 -9.55 8.65 -10.7 Q7.9 -11.85 7.9 -12.15 L8.05 -12.45 8.15 -12.55 8.1 -12.55 Q8.25 -12.85 8.35 -13.0 L8.4 -13.0 8.7 -13.15 8.7 -13.05 Q8.7 -13.0 8.4 -12.55 L8.25 -12.3 8.25 -12.25 8.2 -12.2 Q8.35 -11.8 9.15 -10.7 10.15 -9.3 10.15 -9.15 L10.15 -9.05 10.1 -9.0 10.0 -8.95 9.85 -8.95 9.85 -9.0 Q9.4 -9.1 8.95 -9.5 8.6 -9.8 8.2 -10.35 L8.15 -9.65 8.15 -9.55 8.45 -9.2 8.9 -8.5 9.0 -8.25 9.75 -8.1 11.0 -7.9 12.6 -7.9 13.0 -8.1 13.0 -8.2 12.95 -8.7 Q12.95 -9.4 13.45 -9.25 13.65 -9.2 13.8 -9.05 L13.85 -8.95 Q14.0 -9.2 14.05 -9.45 L13.35 -9.75 13.15 -9.85 13.2 -9.8 Q13.7 -9.65 14.05 -9.6 L14.1 -9.6 14.3 -9.55 14.1 -9.7 14.05 -9.7 14.0 -9.75 13.85 -9.85 13.3 -10.2 13.85 -10.4 14.15 -10.5 14.25 -10.55 13.85 -10.55 13.35 -10.5 13.3 -10.5 Q12.6 -10.4 12.6 -10.2 L12.6 -10.15 Q12.5 -10.3 12.5 -10.4 12.5 -10.5 13.2 -10.7 L13.9 -10.8 13.9 -10.75 13.85 -11.1 13.55 -12.45 13.55 -12.5 13.5 -12.45 13.5 -12.6 Q13.4 -12.7 13.3 -12.9 13.1 -13.35 13.1 -13.45 M11.75 -6.2 L11.65 -6.2 10.9 -6.15 10.7 -6.15 Q10.3 -6.2 10.0 -6.5 L9.75 -6.85 Q9.95 -6.75 10.15 -6.7 10.3 -6.55 10.6 -6.4 11.05 -6.2 11.65 -6.2 L11.75 -6.2 M11.4 -7.25 L11.85 -7.3 12.3 -7.3 11.8 -7.25 11.4 -7.25 M9.6 -13.0 L9.55 -12.9 9.5 -12.7 9.5 -12.65 9.55 -13.0 9.6 -13.0 M10.55 -10.2 L10.85 -10.2 Q10.7 -10.3 10.6 -10.5 L10.4 -10.85 Q10.2 -11.1 9.95 -11.15 9.65 -11.6 9.65 -11.75 L9.7 -11.8 9.85 -11.75 Q10.2 -11.55 10.75 -11.1 11.55 -10.4 11.85 -10.0 L12.05 -9.8 12.25 -9.75 12.15 -9.6 Q12.15 -9.55 12.0 -9.55 L12.0 -9.5 11.95 -9.55 Q11.65 -9.6 11.15 -9.8 L10.9 -9.9 10.85 -9.85 10.7 -10.05 10.75 -9.95 Q10.55 -10.1 10.55 -10.15 L10.55 -10.2 M10.1 -13.55 L10.1 -13.6 10.15 -13.6 10.15 -13.55 10.1 -13.55" fill="#b3aa94" fill-rule="evenodd" stroke="none"/>
    <path d="M8.7 -19.05 L9.0 -19.15 9.65 -19.25 Q10.65 -19.25 11.4 -18.9 11.9 -18.65 12.2 -18.3 L12.1 -18.3 Q12.0 -18.4 11.7 -18.5 L11.3 -18.55 11.15 -18.5 Q11.1 -18.45 11.1 -18.4 L12.55 -17.45 12.9 -17.25 13.3 -16.95 Q13.2 -16.9 13.2 -16.7 L13.2 -16.4 12.4 -16.9 Q11.8 -17.25 11.8 -16.95 11.8 -17.0 12.25 -16.35 L12.25 -16.3 12.85 -16.2 12.9 -16.2 Q13.1 -16.15 13.15 -16.1 13.35 -16.05 13.5 -15.95 L13.55 -15.9 13.65 -15.4 13.65 -15.35 13.6 -15.35 Q13.25 -15.4 12.75 -15.5 L11.4 -15.5 8.8 -15.25 8.6 -15.2 8.2 -15.2 8.15 -16.2 8.45 -16.25 Q8.7 -16.4 9.05 -16.55 10.3 -17.05 10.65 -17.3 L10.65 -17.4 10.6 -17.4 10.8 -17.5 10.7 -17.6 Q10.6 -17.6 10.3 -17.45 L10.7 -17.65 10.7 -17.8 10.65 -17.8 Q10.25 -17.8 9.05 -17.35 L8.95 -17.35 Q9.65 -17.9 9.95 -18.4 L9.8 -18.35 Q10.1 -18.55 10.1 -18.65 10.1 -18.95 9.1 -18.3 L8.5 -17.85 Q8.55 -18.2 8.55 -18.45 8.5 -18.75 8.7 -19.05 M13.35 -15.7 L13.35 -15.7 M11.05 -13.85 L11.15 -13.05 Q11.3 -12.15 11.45 -12.15 L11.55 -12.2 11.6 -12.2 11.6 -13.75 11.9 -13.7 12.9 -13.45 13.1 -13.45 Q13.1 -13.35 13.3 -12.9 13.4 -12.7 13.5 -12.6 L13.5 -12.45 13.55 -12.5 13.55 -12.45 13.85 -11.1 13.9 -10.75 13.9 -10.8 13.2 -10.7 Q12.5 -10.5 12.5 -10.4 12.5 -10.3 12.6 -10.15 12.7 -10.05 13.1 -9.85 L13.15 -9.85 13.35 -9.75 14.05 -9.45 Q14.0 -9.2 13.85 -8.95 L13.8 -9.05 Q13.65 -9.2 13.45 -9.25 12.95 -9.4 12.95 -8.7 L13.0 -8.2 13.0 -8.1 12.6 -7.9 11.0 -7.9 9.75 -8.1 9.0 -8.25 8.9 -8.5 8.45 -9.2 8.15 -9.55 8.15 -9.65 8.2 -10.35 Q8.6 -9.8 8.95 -9.5 9.4 -9.1 9.85 -9.0 L9.85 -8.95 10.0 -8.95 10.1 -9.0 10.15 -9.05 10.15 -9.15 Q10.15 -9.3 9.15 -10.7 8.35 -11.8 8.2 -12.2 L8.25 -12.25 8.25 -12.3 8.4 -12.55 Q8.7 -13.0 8.7 -13.05 L8.7 -13.15 9.25 -13.35 Q9.65 -13.4 9.8 -13.55 L9.8 -13.4 Q9.7 -13.1 9.6 -13.0 L9.55 -13.0 9.5 -12.65 9.5 -12.7 Q9.35 -12.05 9.35 -11.75 9.35 -11.3 10.0 -10.8 L10.2 -10.5 Q10.3 -10.3 10.55 -10.2 L10.55 -10.15 Q10.55 -10.1 10.75 -9.95 L10.7 -10.05 10.85 -9.85 10.9 -9.9 11.15 -9.8 Q11.65 -9.6 11.95 -9.55 L12.0 -9.5 12.0 -9.55 Q12.15 -9.55 12.15 -9.6 L12.25 -9.75 12.05 -9.8 11.85 -10.0 Q11.55 -10.4 10.75 -11.1 10.2 -11.55 9.85 -11.75 L9.7 -11.8 9.8 -12.4 9.9 -12.75 10.1 -13.55 10.15 -13.55 10.15 -13.6 10.1 -13.6 10.1 -13.8 Q10.2 -13.85 10.75 -13.85 L11.05 -13.85 M13.7 -13.45 L13.85 -13.45 13.85 -13.3 13.7 -13.45 M12.5 -6.4 Q12.15 -6.25 11.75 -6.2 L11.65 -6.2 Q11.05 -6.2 10.6 -6.4 10.3 -6.55 10.15 -6.7 10.55 -6.6 10.95 -6.6 11.85 -6.6 12.25 -6.75 L12.85 -6.85 Q13.05 -6.9 13.2 -7.0 13.3 -7.1 13.4 -7.1 13.2 -6.85 12.9 -6.65 12.7 -6.5 12.5 -6.4 M10.1 -7.3 L11.25 -7.2 11.35 -7.2 11.3 -7.25 11.4 -7.25 11.8 -7.25 12.3 -7.3 12.65 -7.3 Q12.75 -7.3 12.95 -7.4 L13.05 -7.45 13.25 -7.55 Q13.55 -7.7 13.85 -7.9 13.6 -7.65 13.15 -7.4 12.5 -7.05 11.75 -7.05 10.95 -7.05 10.3 -7.2 L10.1 -7.3 M8.1 -11.0 L8.1 -11.0 M8.65 -10.3 L8.75 -10.2 8.8 -10.05 8.8 -10.1 8.65 -10.3 M14.0 -9.75 L14.05 -9.7 14.1 -9.7 14.0 -9.75" fill="#d9cfb4" fill-rule="evenodd" stroke="none"/>
    <path d="M13.35 -15.7 L13.35 -15.7" fill="#304040" fill-rule="evenodd" stroke="none"/>
    <path d="M19.3 -12.6 L19.35 -12.4 19.4 -11.8 19.4 -11.7 19.45 -11.4 19.45 -11.15 19.5 -11.2 19.65 -10.45 19.65 -10.4 19.75 -10.15 19.8 -9.95 19.8 -9.9 19.9 -9.7 Q20.1 -9.25 20.1 -9.0 L20.15 -8.85 20.15 -8.75 20.2 -8.4 Q20.2 -8.05 20.0 -7.5 19.55 -7.05 19.1 -6.75 18.8 -6.45 17.85 -6.05 L16.15 -5.4 15.65 -5.2 Q15.05 -4.95 14.45 -4.8 14.85 -5.35 15.1 -6.35 15.5 -7.75 15.5 -8.65 L15.45 -9.05 15.4 -9.55 15.4 -9.75 15.5 -9.75 15.4 -9.8 15.35 -10.15 15.9 -9.95 Q16.75 -9.6 17.5 -9.6 19.15 -9.6 19.55 -9.85 19.65 -9.95 19.65 -10.1 L19.65 -10.25 19.6 -10.35 18.5 -10.9 17.25 -11.5 Q17.25 -11.85 18.25 -12.25 18.9 -12.55 19.3 -12.6 M14.4 -11.7 L14.4 -11.65 14.4 -11.7 M8.15 -20.55 L8.15 -20.35 7.75 -20.35 7.95 -20.5 8.15 -20.55 M13.9 -14.35 L13.9 -14.35 M7.6 -20.25 L7.6 -20.25 M7.35 -20.0 L7.45 -20.1 7.65 -20.05 9.2 -20.0 Q8.5 -19.95 8.25 -18.95 8.15 -18.5 8.15 -17.65 L8.15 -17.25 Q7.85 -16.9 7.85 -16.65 L7.85 -16.55 7.95 -16.45 7.95 -16.4 Q7.75 -16.3 7.65 -16.1 L7.8 -16.15 7.8 -16.05 Q7.75 -15.65 7.8 -15.4 7.9 -14.9 8.25 -14.9 L8.3 -14.9 Q8.5 -14.05 8.5 -13.85 L8.45 -13.4 Q8.2 -13.3 8.05 -13.15 7.8 -13.0 7.7 -12.7 7.65 -12.45 7.65 -12.2 L7.65 -11.9 7.6 -11.85 Q7.6 -11.75 7.8 -11.45 7.75 -11.0 7.65 -10.1 7.55 -9.0 7.55 -8.7 7.55 -8.6 7.8 -8.25 8.0 -7.95 8.2 -7.85 L8.35 -7.75 Q8.6 -7.5 8.95 -7.25 9.2 -7.1 9.45 -6.95 L9.9 -6.3 Q10.15 -6.0 10.45 -5.85 L10.35 -5.85 Q9.5 -5.45 9.4 -5.45 9.05 -5.45 8.75 -5.65 8.5 -5.75 8.4 -5.9 L8.35 -5.85 Q8.35 -5.9 8.35 -5.8 7.9 -6.15 7.45 -6.7 6.7 -7.55 6.7 -8.05 L7.0 -9.85 Q7.2 -11.15 7.25 -12.0 L7.3 -11.85 Q7.25 -12.25 7.25 -12.65 L7.2 -12.65 7.3 -13.1 7.35 -13.7 7.4 -14.45 7.35 -15.15 7.3 -15.8 7.3 -16.05 Q7.3 -16.65 7.45 -17.2 L7.3 -16.6 7.2 -17.4 Q7.05 -18.25 7.05 -18.45 7.05 -18.9 7.2 -19.55 L7.35 -20.0 M14.7 -11.6 L14.75 -11.6 14.7 -11.6 M14.15 -7.4 L14.15 -7.3 13.9 -6.7 Q13.1 -5.0 11.95 -5.0 11.7 -5.0 11.35 -5.7 12.7 -5.8 13.5 -6.55 13.85 -6.85 14.0 -7.15 L14.05 -7.25 14.1 -7.3 14.15 -7.4" fill="#600000" fill-rule="evenodd" stroke="none"/>
    <path d="M10.35 -15.1 L10.1 -15.0 10.15 -15.1 10.35 -15.1 M10.0 -14.8 L10.1 -14.8 10.8 -14.95 11.1 -14.85 11.1 -14.45 Q11.1 -14.3 11.1 -14.1 10.35 -14.25 10.1 -14.1 L10.05 -14.35 10.0 -14.8 M11.5 -14.05 L11.45 -14.3 Q11.5 -14.25 11.55 -14.25 11.65 -14.25 11.85 -14.55 L11.95 -14.65 11.9 -14.7 12.15 -14.3 12.6 -13.85 12.4 -13.85 11.5 -14.05 M12.95 -14.65 L12.9 -14.7 13.05 -14.7 12.95 -14.65 M13.3 -14.3 L13.2 -14.4 13.25 -14.35 13.3 -14.35 13.3 -14.3 M8.75 -14.25 Q8.85 -14.2 9.0 -14.2 9.1 -14.2 9.35 -14.45 L8.95 -13.85 9.0 -13.8 9.05 -13.8 8.8 -13.65 8.75 -13.6 8.75 -14.25 M9.9 -14.5 L9.85 -13.7 9.85 -13.65 9.35 -13.6 9.4 -13.6 9.5 -13.75 Q9.8 -14.15 9.9 -14.4 L9.9 -14.5" fill="#c7a36d" fill-rule="evenodd" stroke="none"/>
    <path d="M10.35 -15.1 L10.35 -15.15 10.4 -15.15 11.3 -15.2 11.35 -15.2 11.35 -14.75 Q11.4 -14.55 11.55 -14.55 L11.65 -14.6 11.65 -14.7 Q11.65 -14.95 11.5 -15.2 L11.95 -15.2 12.05 -15.05 12.1 -14.95 12.55 -14.45 Q13.05 -13.9 13.4 -13.7 L12.6 -13.85 12.15 -14.3 11.9 -14.7 11.95 -14.65 11.85 -14.55 Q11.65 -14.25 11.55 -14.25 11.5 -14.25 11.45 -14.3 L11.5 -14.05 11.15 -14.1 11.1 -14.1 Q11.1 -14.3 11.1 -14.45 L11.1 -14.85 10.8 -14.95 10.1 -14.8 10.0 -14.8 10.1 -15.0 10.35 -15.1 M12.95 -14.65 L13.05 -14.7 13.1 -14.75 13.2 -14.8 13.25 -14.8 Q13.5 -15.0 13.5 -15.15 L13.55 -15.15 13.7 -15.2 13.75 -14.7 13.75 -14.6 13.85 -13.75 13.3 -14.3 13.3 -14.35 13.25 -14.35 13.2 -14.4 12.95 -14.6 12.95 -14.65 M8.75 -14.25 L8.7 -14.5 8.6 -14.65 8.55 -14.9 8.5 -14.9 8.5 -15.0 8.7 -15.05 9.15 -15.05 Q8.95 -15.0 8.95 -14.85 8.95 -14.7 9.2 -14.7 L9.5 -14.7 9.5 -14.65 9.35 -14.45 Q9.1 -14.2 9.0 -14.2 8.85 -14.2 8.75 -14.25 M9.05 -13.8 L9.1 -13.8 Q9.4 -13.8 9.8 -14.4 L9.9 -14.6 9.9 -14.5 9.9 -14.4 Q9.8 -14.15 9.5 -13.75 L9.4 -13.6 9.35 -13.6 8.75 -13.5 8.75 -13.45 8.7 -13.45 8.75 -13.55 8.75 -13.6 8.8 -13.65 9.05 -13.8" fill="#a9854f" fill-rule="evenodd" stroke="none"/>
  </g>
</svg>
