<?xml version="1.0" encoding="UTF-8" standalone="no"?>
<svg xmlns:ffdec="https://www.free-decompiler.com/flash" xmlns:xlink="http://www.w3.org/1999/xlink" ffdec:objectType="shape" height="23.55px" width="17.25px" xmlns="http://www.w3.org/2000/svg">
  <g transform="matrix(1.0, 0.0, 0.0, 1.0, -4.8, 24.05)">
    <path d="M17.4 -22.75 Q17.7 -22.4 17.7 -21.85 17.75 -20.85 17.75 -20.8 17.85 -20.5 18.15 -19.8 18.4 -19.2 18.4 -18.8 19.2 -19.85 19.55 -19.95 L19.25 -19.55 19.3 -19.55 19.3 -19.6 19.1 -18.9 Q19.0 -18.4 19.0 -18.15 19.0 -17.0 19.7 -15.75 20.4 -14.45 20.4 -13.5 L20.4 -13.2 Q20.35 -13.1 20.3 -13.05 20.8 -12.45 20.8 -12.15 L20.7 -11.5 20.6 -10.8 21.7 -10.75 Q21.95 -10.55 22.0 -10.3 L22.05 -9.85 Q22.05 -9.25 21.7 -8.65 21.2 -7.8 20.2 -7.75 20.35 -7.45 20.35 -7.3 20.35 -6.8 19.75 -5.9 19.4 -5.35 19.05 -5.1 19.05 -4.85 18.8 -4.65 18.55 -4.45 18.35 -4.45 18.15 -4.45 17.7 -4.7 L16.7 -5.25 16.35 -5.45 Q16.2 -5.2 15.9 -4.9 15.55 -4.6 15.25 -4.5 15.2 -4.35 15.15 -4.2 L14.8 -3.7 Q14.35 -3.0 14.4 -1.65 L14.4 -1.6 14.3 -1.6 Q14.15 -1.6 14.1 -1.7 13.8 -1.9 13.75 -2.45 L13.75 -2.5 Q13.7 -2.45 13.45 -1.95 13.2 -1.4 13.2 -1.3 L13.25 -0.95 13.35 -0.6 13.3 -0.55 13.2 -0.5 Q13.15 -0.5 13.15 -0.55 L13.05 -0.5 12.5 -0.95 Q12.0 -1.4 11.9 -1.6 L11.7 -2.15 11.7 -2.2 11.5 -1.8 11.45 -1.8 11.5 -1.7 Q11.0 -1.9 10.85 -2.3 10.7 -2.6 10.7 -3.05 10.7 -3.8 10.9 -4.2 11.1 -4.65 11.65 -5.0 L10.45 -4.7 9.15 -4.4 8.45 -4.45 8.45 -4.35 8.4 -4.35 Q7.4 -5.1 6.95 -5.45 6.15 -6.1 6.15 -6.6 L6.15 -6.7 6.0 -6.65 Q5.3 -6.65 5.0 -7.55 4.8 -7.95 4.8 -8.45 4.8 -9.0 4.95 -9.2 5.05 -9.4 5.4 -9.55 6.45 -10.0 7.15 -10.6 L7.1 -10.65 Q7.1 -10.75 7.05 -10.8 L7.05 -11.1 Q6.95 -11.15 6.9 -11.3 L6.85 -11.45 6.65 -11.75 6.4 -12.1 Q6.2 -12.45 6.0 -12.95 L5.9 -13.15 5.8 -13.25 5.8 -13.3 5.85 -13.3 5.8 -13.45 Q5.8 -13.55 5.9 -13.75 L6.0 -13.9 6.0 -14.0 Q6.0 -14.35 6.5 -14.9 6.85 -15.3 7.3 -15.65 7.2 -15.65 7.2 -15.7 L7.15 -15.85 Q7.15 -16.35 7.7 -17.2 8.2 -17.95 8.75 -18.4 L9.95 -19.55 10.75 -20.25 Q10.9 -20.6 11.2 -20.65 L11.25 -20.65 11.25 -20.5 Q11.25 -20.35 11.1 -19.85 11.6 -20.7 11.9 -21.1 L12.0 -21.1 12.0 -21.0 Q12.0 -20.8 11.8 -20.2 12.05 -20.6 12.45 -21.1 13.6 -22.35 14.35 -22.4 L14.4 -22.35 14.4 -22.25 Q14.4 -22.2 13.7 -21.2 14.2 -21.55 14.95 -22.05 15.35 -22.25 15.75 -22.65 16.2 -23.1 16.4 -23.4 16.9 -24.2 17.05 -24.0 L17.1 -23.8 17.15 -23.7 17.15 -23.45 Q17.15 -23.15 17.05 -22.45 L17.1 -22.65 Q17.2 -22.8 17.4 -22.8 L17.4 -22.75 M17.65 -20.05 Q17.3 -21.1 17.25 -22.2 16.8 -20.7 16.3 -20.35 L16.45 -20.85 Q16.25 -20.4 16.0 -20.25 16.05 -20.65 16.4 -21.6 16.75 -22.5 16.8 -23.0 L16.8 -23.35 Q16.55 -22.8 15.9 -22.25 L14.5 -21.35 Q13.65 -20.75 13.25 -20.4 L13.1 -20.25 12.55 -19.4 12.5 -19.25 12.45 -19.25 12.2 -18.85 12.15 -18.85 Q12.2 -19.35 12.55 -20.05 L13.3 -21.35 Q12.3 -20.5 11.4 -19.0 L11.35 -19.0 11.35 -19.15 11.2 -18.8 11.15 -18.8 11.3 -19.3 11.45 -19.9 11.45 -19.95 10.9 -19.0 10.55 -18.55 Q10.35 -18.1 10.2 -18.0 L10.15 -18.1 10.45 -19.35 10.4 -19.35 10.1 -19.05 9.95 -18.95 9.1 -18.25 9.0 -18.15 8.95 -18.15 8.8 -18.0 Q8.4 -17.5 8.0 -16.8 L7.45 -15.75 7.55 -15.85 7.6 -15.85 Q8.1 -16.2 8.45 -16.3 8.5 -16.45 8.95 -16.55 L9.05 -16.6 Q9.6 -16.7 9.6 -16.45 L9.6 -16.4 10.05 -16.0 10.15 -16.05 10.2 -16.1 10.3 -16.15 10.5 -16.2 10.8 -16.25 11.4 -16.35 11.6 -16.35 11.75 -16.35 12.0 -16.35 12.2 -16.3 12.9 -16.25 13.15 -16.2 13.3 -16.15 13.3 -16.35 13.3 -16.4 Q13.3 -16.6 13.7 -16.8 L13.8 -16.85 13.95 -16.9 14.35 -17.0 14.55 -17.05 Q14.85 -17.1 15.35 -17.05 L15.9 -16.95 16.0 -16.95 16.0 -16.9 16.05 -16.9 16.7 -16.8 Q17.1 -16.7 17.4 -16.5 L17.7 -16.35 Q17.95 -16.25 18.1 -16.0 18.25 -15.8 18.3 -15.5 L18.3 -15.25 18.4 -14.65 Q18.55 -14.6 18.8 -14.4 L19.65 -13.7 19.95 -13.45 19.75 -14.15 Q19.55 -14.9 19.35 -15.35 19.05 -15.95 18.9 -16.3 L18.85 -16.45 Q18.65 -17.05 18.65 -17.6 18.65 -17.8 18.7 -18.05 L18.8 -18.6 Q18.85 -18.85 18.9 -19.05 L18.85 -19.0 18.8 -18.9 18.65 -18.65 18.25 -18.05 Q18.1 -17.7 17.85 -17.4 L17.8 -17.4 17.65 -17.25 17.6 -17.3 Q17.6 -17.35 17.6 -17.45 L17.6 -17.55 17.75 -17.85 17.8 -17.9 17.85 -18.1 Q18.05 -18.5 18.05 -18.8 L17.65 -20.05 M14.35 -21.05 L14.5 -21.0 14.35 -21.0 14.35 -21.05 M17.35 -16.3 Q16.95 -16.55 16.45 -16.7 L15.9 -16.85 15.75 -16.8 15.5 -16.85 15.4 -16.85 15.8 -16.8 Q16.55 -16.6 17.1 -16.3 L17.25 -16.2 Q17.65 -15.9 17.65 -15.65 17.65 -15.4 17.55 -15.25 17.3 -15.05 16.7 -15.05 15.3 -15.05 14.55 -15.6 14.4 -15.75 14.25 -15.9 14.1 -16.05 14.05 -16.25 L14.0 -16.2 13.95 -16.45 Q13.95 -16.6 14.05 -16.65 L13.8 -16.6 13.8 -16.55 13.6 -16.45 13.5 -16.35 13.5 -16.3 13.5 -16.25 13.55 -16.25 Q13.6 -16.35 13.7 -16.25 L13.6 -16.1 13.8 -15.85 13.95 -15.7 Q14.75 -14.85 16.25 -14.85 17.15 -14.85 17.65 -15.1 17.95 -15.25 18.0 -15.4 L18.0 -15.6 17.95 -15.7 17.8 -16.0 17.45 -16.25 17.35 -16.3 M13.15 -16.0 L12.9 -16.05 12.5 -16.05 11.0 -15.9 10.25 -15.8 10.3 -15.7 10.85 -15.05 Q11.3 -15.2 12.45 -15.25 L13.05 -15.25 13.15 -15.55 13.25 -16.0 13.15 -16.0 M13.3 -15.25 L13.35 -15.35 13.35 -15.45 13.3 -15.25 M13.45 -15.45 L13.35 -14.65 Q13.5 -14.35 14.35 -14.0 15.45 -13.5 16.0 -13.5 L17.3 -13.6 17.7 -13.7 17.95 -13.75 17.95 -14.5 18.0 -15.2 Q17.9 -15.1 17.75 -15.0 17.2 -14.65 16.25 -14.65 14.9 -14.65 14.0 -15.45 13.75 -15.7 13.55 -15.9 L13.45 -15.45 M13.0 -14.55 L12.95 -14.65 13.0 -14.9 11.9 -14.8 10.9 -14.85 10.95 -14.8 10.9 -14.7 10.85 -14.65 10.8 -14.7 10.85 -14.6 Q10.85 -14.0 10.0 -13.6 L9.15 -13.2 9.2 -13.2 9.6 -13.35 Q10.35 -13.5 11.75 -13.7 L11.75 -13.75 13.65 -13.75 14.3 -13.65 14.1 -13.75 Q13.25 -14.15 13.05 -14.5 L13.05 -14.45 13.0 -14.55 M13.2 -10.05 L13.5 -10.05 13.75 -10.0 Q13.55 -10.4 13.55 -10.85 13.55 -11.5 14.05 -12.25 14.5 -12.8 15.1 -13.15 L15.4 -13.25 Q15.15 -13.35 14.85 -13.45 L11.75 -13.45 9.9 -13.05 9.75 -13.05 10.55 -12.8 10.75 -12.65 10.85 -12.6 Q11.55 -12.05 11.55 -11.2 L11.55 -10.95 Q11.5 -10.85 11.35 -10.75 11.25 -10.8 11.25 -10.9 L11.15 -10.75 10.45 -9.85 9.15 -8.1 8.95 -7.85 8.95 -7.8 8.9 -7.7 8.85 -7.7 8.85 -7.5 Q8.85 -7.4 9.2 -7.0 L9.55 -6.65 Q9.9 -6.35 10.2 -6.35 10.4 -6.45 10.7 -6.75 L11.3 -7.3 Q11.45 -7.35 12.3 -7.6 L12.4 -7.65 13.4 -7.85 13.7 -7.95 14.0 -7.95 14.1 -8.25 14.15 -8.55 Q13.9 -9.8 13.25 -9.8 13.1 -9.8 12.95 -9.7 12.75 -9.6 12.7 -9.6 L12.55 -9.6 12.55 -9.65 Q12.9 -9.95 13.2 -10.05 M17.25 -15.95 L17.25 -16.0 Q16.95 -16.3 16.0 -16.55 L15.8 -16.6 Q15.15 -16.75 14.7 -16.7 14.2 -16.7 14.2 -16.45 14.2 -16.1 14.8 -15.75 15.5 -15.25 16.7 -15.25 17.35 -15.25 17.35 -15.7 17.35 -15.85 17.25 -15.95 M18.45 -13.55 Q18.45 -13.4 18.2 -13.25 L17.95 -13.15 17.75 -13.1 17.7 -13.1 17.45 -13.05 17.4 -13.05 Q18.2 -12.8 19.1 -12.3 20.05 -11.7 20.3 -11.2 20.3 -11.3 20.3 -11.4 L20.45 -12.05 Q20.45 -12.6 19.45 -13.5 L18.4 -14.5 18.4 -13.65 18.45 -13.55 M18.2 -13.8 L18.2 -13.8 M7.95 -15.8 L7.3 -15.35 Q6.2 -14.45 6.2 -14.0 6.2 -13.8 6.5 -13.8 7.25 -13.8 8.15 -14.85 8.55 -15.3 8.75 -15.6 L8.75 -15.65 8.85 -15.75 8.95 -16.05 8.95 -16.15 Q8.6 -16.25 7.95 -15.8 M8.1 -14.5 Q7.1 -13.55 6.4 -13.55 6.15 -13.55 6.05 -13.7 L6.0 -13.6 Q5.95 -13.5 5.95 -13.35 L6.05 -13.35 6.05 -13.4 Q6.05 -13.5 6.05 -13.45 L6.15 -13.35 Q7.95 -13.6 8.75 -14.65 8.95 -14.9 9.1 -15.25 9.3 -15.75 9.4 -16.4 L9.25 -16.45 9.15 -16.45 9.15 -16.4 8.95 -16.4 Q9.05 -16.4 9.1 -16.3 9.15 -16.25 9.15 -16.1 9.15 -15.7 8.25 -14.7 L8.15 -14.6 8.1 -14.5 M6.1 -13.15 L6.2 -13.05 6.15 -13.15 6.1 -13.15 M9.3 -15.1 Q9.1 -14.75 8.8 -14.4 7.9 -13.45 6.45 -13.15 L6.35 -13.15 7.25 -11.75 Q7.4 -12.25 7.8 -12.55 L8.2 -12.8 Q8.45 -13.0 8.7 -13.1 9.1 -13.4 9.85 -13.8 10.7 -14.3 10.75 -14.75 L10.65 -14.9 10.6 -14.9 10.25 -15.35 9.95 -15.7 9.6 -16.2 9.6 -16.05 Q9.6 -15.8 9.5 -15.55 L9.3 -15.1 M9.5 -12.9 Q8.95 -12.9 8.55 -12.75 L8.0 -12.3 Q7.6 -11.85 7.4 -11.55 L7.4 -11.5 7.35 -11.4 7.3 -11.05 7.3 -10.95 7.4 -11.0 7.55 -11.1 Q8.0 -11.3 8.6 -11.35 9.55 -11.45 10.15 -11.15 L10.35 -11.05 Q10.55 -10.95 10.65 -10.85 L10.7 -10.8 Q10.75 -10.8 10.7 -10.8 L10.75 -10.75 10.75 -10.65 10.9 -10.85 11.25 -11.2 11.3 -11.2 11.3 -11.3 Q11.2 -11.65 10.8 -12.15 10.25 -12.9 9.5 -12.9 M8.85 -10.65 Q8.7 -10.35 8.55 -10.4 L8.15 -10.4 7.95 -10.6 7.95 -10.9 7.6 -10.85 7.6 -10.8 7.5 -10.7 Q7.6 -10.4 7.7 -10.15 8.05 -9.5 8.7 -9.5 9.25 -9.5 9.95 -10.15 L10.5 -10.65 10.45 -10.7 10.15 -10.85 Q9.7 -11.0 9.0 -11.0 9.0 -10.9 8.85 -10.65 M7.1 -10.1 L7.0 -10.05 6.25 -9.55 Q5.15 -9.0 5.15 -8.4 L5.15 -8.35 Q5.15 -7.9 5.45 -7.45 5.75 -7.0 6.25 -6.95 L6.25 -7.0 6.5 -7.75 6.75 -8.35 7.0 -8.8 6.85 -8.75 6.45 -8.6 6.15 -8.5 6.2 -8.4 Q6.2 -8.05 6.25 -7.9 L6.2 -7.8 6.15 -7.75 Q5.95 -7.8 5.85 -8.0 5.8 -8.15 5.8 -8.2 L5.85 -8.35 5.6 -8.3 Q5.4 -8.3 5.3 -8.4 L5.25 -8.5 5.35 -8.55 Q5.65 -8.7 6.15 -8.9 L6.6 -9.0 7.15 -9.05 7.15 -8.95 7.1 -8.9 7.15 -8.55 7.15 -8.5 7.15 -8.4 7.1 -8.3 7.05 -8.1 6.65 -7.0 Q6.5 -6.65 6.5 -6.55 6.5 -6.25 7.5 -5.5 L8.0 -5.1 8.05 -5.1 Q8.2 -5.0 8.3 -4.85 8.45 -4.75 9.15 -4.75 9.6 -4.75 10.35 -5.15 L10.4 -5.15 10.9 -5.35 10.95 -5.35 11.1 -5.4 11.4 -5.4 11.7 -5.35 11.9 -5.2 11.95 -5.15 12.1 -5.05 12.25 -4.8 12.25 -4.65 12.35 -4.8 Q12.65 -5.05 13.1 -5.25 L13.1 -5.3 Q13.1 -5.45 13.1 -5.4 13.3 -5.35 13.6 -5.1 L13.7 -5.05 Q13.85 -4.95 14.15 -4.95 L14.2 -4.95 14.25 -4.9 14.95 -4.9 15.0 -4.95 15.1 -4.95 15.2 -4.85 15.6 -5.15 16.1 -5.5 16.15 -5.5 16.1 -5.55 Q15.1 -5.95 14.25 -5.8 14.4 -5.95 14.6 -6.0 15.3 -6.3 16.55 -5.75 L17.7 -5.15 Q18.2 -4.8 18.3 -4.8 18.35 -4.8 18.5 -4.9 L19.25 -5.85 Q20.0 -6.85 20.0 -7.35 20.0 -7.4 19.65 -8.0 L19.45 -8.35 Q18.95 -9.15 18.9 -9.7 18.75 -9.95 18.6 -10.45 L18.45 -11.0 18.35 -11.5 18.35 -11.55 Q18.35 -11.7 18.4 -11.85 L18.4 -11.95 18.35 -12.2 Q18.35 -12.3 18.4 -12.3 L18.45 -12.2 18.45 -12.25 Q17.7 -12.75 16.9 -13.05 L16.65 -13.05 16.4 -13.05 15.65 -13.2 Q15.4 -13.1 15.15 -12.9 14.8 -12.65 14.5 -12.2 14.05 -11.6 13.95 -11.15 14.1 -11.25 14.4 -11.3 L15.8 -11.4 Q16.6 -11.35 17.15 -11.05 17.7 -10.75 17.75 -10.3 L17.75 -10.05 Q17.7 -9.95 17.55 -9.9 L17.5 -10.25 17.45 -10.35 17.45 -10.35 Q17.4 -9.9 16.95 -9.5 16.55 -9.1 15.95 -9.0 L15.8 -8.95 15.85 -8.95 16.05 -8.95 Q16.55 -8.95 16.9 -9.1 L17.15 -9.15 17.25 -9.2 17.65 -9.2 17.3 -8.85 Q16.95 -8.6 16.05 -8.6 15.05 -8.6 14.45 -9.1 L14.45 -8.95 14.5 -8.7 14.5 -8.5 Q14.5 -8.2 14.4 -8.0 14.3 -7.85 14.2 -7.8 L14.0 -7.6 Q15.3 -7.9 16.9 -8.1 17.9 -8.15 18.2 -7.9 18.3 -7.8 18.3 -7.45 L18.3 -7.4 Q18.25 -7.15 18.05 -7.05 17.95 -7.1 17.95 -7.25 L18.0 -7.5 Q18.0 -7.75 17.25 -7.75 L16.55 -7.75 15.1 -7.5 14.45 -7.3 14.0 -7.15 13.65 -7.05 Q12.2 -6.65 11.4 -6.6 L11.3 -6.6 10.85 -6.25 10.65 -6.15 Q10.4 -6.0 10.25 -6.0 L10.15 -6.05 10.1 -6.0 9.7 -6.1 9.65 -6.1 9.5 -6.25 Q9.3 -6.3 9.1 -6.5 L9.05 -6.45 8.95 -6.5 7.85 -6.45 Q7.75 -6.35 7.6 -6.25 L7.7 -6.15 7.65 -6.0 7.6 -6.0 7.5 -6.0 Q7.3 -6.0 7.25 -6.15 7.2 -6.25 7.25 -6.35 7.25 -6.7 7.55 -6.8 7.95 -6.9 8.7 -6.65 L8.95 -6.65 8.85 -6.8 8.75 -6.9 8.7 -7.0 Q8.5 -7.35 8.5 -7.5 8.5 -7.7 8.65 -7.95 8.7 -8.2 9.05 -8.65 L9.25 -9.0 9.4 -9.15 Q8.55 -8.5 7.95 -8.5 7.85 -8.5 7.65 -8.6 L7.45 -8.65 7.45 -8.7 8.0 -8.85 Q8.45 -8.95 8.6 -9.0 L8.7 -9.1 Q8.4 -9.1 8.2 -9.2 7.85 -9.4 7.65 -9.65 7.4 -10.05 7.4 -10.45 L7.4 -10.6 7.3 -10.55 Q7.3 -10.3 7.1 -10.1 M13.95 -11.15 L13.95 -11.15 M7.6 -6.45 Q7.55 -6.5 7.55 -6.35 L7.6 -6.35 7.7 -6.45 7.6 -6.45 M11.45 -5.85 L11.4 -5.9 Q11.25 -6.1 11.25 -6.25 L11.2 -6.35 11.2 -6.45 11.3 -6.45 11.55 -6.15 Q11.8 -5.95 12.05 -5.95 L12.55 -6.1 Q13.1 -6.25 13.35 -6.4 L13.45 -6.35 13.45 -6.3 12.75 -5.95 12.35 -5.7 Q12.1 -5.6 12.05 -5.6 L12.0 -5.6 Q11.75 -5.6 11.5 -5.8 L11.45 -5.85 M11.3 -2.3 L11.3 -2.35 11.45 -2.75 Q11.5 -2.9 11.6 -2.95 11.6 -3.65 11.85 -4.15 L11.95 -4.3 Q11.9 -4.4 11.9 -4.6 L11.85 -4.85 Q11.4 -4.45 11.25 -4.05 11.05 -3.65 11.05 -3.05 11.05 -2.65 11.2 -2.5 L11.2 -2.45 11.25 -2.35 11.3 -2.3 11.3 -2.3 M20.45 -10.8 L20.4 -10.85 20.4 -10.8 20.45 -10.8 M21.65 -9.35 L21.7 -9.8 Q21.7 -10.0 21.6 -10.4 L19.65 -10.5 Q19.8 -10.55 19.55 -10.6 L19.35 -10.15 19.3 -9.9 20.05 -9.8 Q21.0 -9.6 21.35 -9.25 L21.3 -9.2 Q21.3 -9.15 21.2 -9.15 L20.65 -9.2 Q20.6 -8.65 20.3 -8.6 L20.1 -8.75 20.2 -9.1 20.25 -9.25 19.75 -9.4 19.4 -9.55 19.4 -9.4 19.35 -9.35 19.3 -9.35 Q19.45 -9.05 19.7 -8.7 L20.05 -8.1 Q20.8 -8.1 21.3 -8.75 21.55 -9.05 21.65 -9.35 M18.95 -11.95 L18.5 -12.25 Q18.6 -12.0 18.85 -10.9 18.95 -10.55 19.05 -10.25 19.1 -10.5 19.2 -10.75 19.35 -11.15 19.65 -11.4 L18.95 -11.95 M17.55 -11.75 L17.5 -11.9 Q17.35 -12.2 17.35 -12.25 L17.35 -12.4 Q17.65 -12.45 17.8 -12.1 L17.9 -11.95 Q17.95 -11.75 17.95 -11.6 L17.95 -11.35 Q17.9 -11.25 17.65 -11.05 L17.65 -11.3 17.6 -11.55 17.6 -11.6 17.55 -11.75 M20.2 -10.8 L19.8 -11.25 19.6 -10.75 19.65 -10.8 20.2 -10.8 M14.6 -10.9 L14.65 -11.0 14.6 -11.0 14.6 -10.9 M14.9 -10.5 Q14.55 -10.5 14.45 -10.7 L14.35 -10.85 14.4 -10.95 14.35 -10.95 13.95 -10.8 13.9 -10.8 Q13.9 -10.3 14.25 -9.8 14.4 -9.55 14.65 -9.35 14.85 -9.3 15.1 -9.3 16.55 -9.3 17.0 -10.0 17.15 -10.15 17.2 -10.5 L17.25 -10.65 Q16.85 -11.05 15.55 -11.05 15.55 -10.9 15.45 -10.75 15.3 -10.5 14.9 -10.5 M13.75 -7.55 L13.25 -7.5 12.6 -7.3 13.5 -7.5 13.75 -7.55 M13.9 -3.0 L14.05 -3.0 14.05 -2.55 Q14.05 -2.45 14.1 -2.2 14.1 -2.8 14.2 -3.2 14.35 -3.5 14.8 -4.45 14.3 -4.4 13.9 -4.55 L13.55 -4.75 Q13.2 -5.0 13.1 -5.15 12.7 -4.8 12.45 -4.4 L12.35 -4.2 12.3 -4.2 12.2 -4.0 Q12.0 -3.55 11.95 -3.1 L12.0 -2.95 Q12.0 -2.85 11.9 -2.65 L11.9 -2.55 Q11.9 -2.35 12.0 -2.2 L12.0 -2.15 12.2 -1.75 12.25 -1.7 12.9 -1.0 Q12.9 -1.15 12.85 -1.3 12.85 -1.65 13.25 -2.3 L13.3 -2.4 13.5 -2.75 Q13.7 -2.95 13.9 -3.0" fill="#111111" fill-rule="evenodd" stroke="none"/>
    <path d="M10.1 -19.05 L10.4 -19.35 10.45 -19.35 10.15 -18.1 10.2 -18.0 Q10.35 -18.1 10.55 -18.55 L10.9 -19.0 11.45 -19.95 11.45 -19.9 11.3 -19.3 11.15 -18.8 11.2 -18.8 11.35 -19.15 11.35 -19.0 11.4 -19.0 Q12.3 -20.5 13.3 -21.35 L12.55 -20.05 Q12.2 -19.35 12.15 -18.85 L12.2 -18.85 12.45 -19.25 12.5 -19.25 12.55 -19.4 13.1 -20.25 13.25 -20.4 Q13.65 -20.75 14.5 -21.35 L15.9 -22.25 Q16.55 -22.8 16.8 -23.35 L16.8 -23.0 Q16.75 -22.5 16.4 -21.6 16.05 -20.65 16.0 -20.25 16.25 -20.4 16.45 -20.85 L16.3 -20.35 Q16.8 -20.7 17.25 -22.2 17.3 -21.1 17.65 -20.05 17.65 -19.65 17.55 -19.4 17.45 -18.85 17.0 -18.15 16.7 -17.65 15.85 -17.0 L15.9 -16.95 15.35 -17.05 Q14.85 -17.1 14.55 -17.05 L14.35 -17.0 14.75 -17.6 Q15.55 -18.9 15.55 -19.45 15.55 -19.6 15.55 -19.5 15.4 -19.5 15.35 -19.4 15.3 -19.3 15.25 -19.3 L12.2 -16.3 12.0 -16.35 12.0 -16.45 Q12.0 -16.65 12.05 -17.2 L12.15 -18.0 12.15 -18.1 12.1 -18.15 Q11.9 -17.95 11.7 -17.05 11.65 -16.65 11.6 -16.35 L11.4 -16.35 10.8 -16.25 10.7 -16.65 Q10.55 -17.35 10.25 -17.45 L10.15 -16.85 10.1 -16.4 10.15 -16.05 10.05 -16.0 9.6 -16.4 9.6 -16.45 Q9.6 -16.7 9.05 -16.6 L8.95 -16.55 Q9.05 -17.4 9.55 -18.2 L9.95 -18.85 10.1 -19.05 M17.6 -17.55 L17.6 -17.45 Q17.6 -17.35 17.6 -17.3 L17.65 -17.25 17.8 -17.4 17.85 -17.4 Q18.1 -17.7 18.25 -18.05 L18.65 -18.65 18.8 -18.9 Q18.5 -18.35 18.5 -17.2 18.5 -16.8 18.35 -15.8 L18.3 -15.5 Q18.25 -15.8 18.1 -16.0 17.95 -16.25 17.7 -16.35 L17.4 -16.5 Q17.1 -16.7 16.7 -16.8 L17.2 -17.15 Q17.4 -17.3 17.6 -17.55 M18.85 -16.45 L18.9 -16.3 18.85 -16.35 18.85 -16.45 M18.8 -14.4 Q18.55 -14.6 18.4 -14.65 18.6 -14.6 18.8 -14.4 M14.35 -21.05 L14.35 -21.0 14.5 -21.0 14.35 -21.05 M14.35 -17.55 L14.25 -17.4 14.35 -17.55 M13.8 -16.85 L14.1 -17.15 13.95 -16.9 13.8 -16.85 M13.3 -16.35 L13.3 -16.15 13.15 -16.2 13.3 -16.35 M11.75 -16.35 L11.75 -16.35 M8.8 -18.0 L8.6 -17.65 Q7.85 -16.45 7.6 -15.85 L7.55 -15.85 7.45 -15.75 8.0 -16.8 Q8.4 -17.5 8.8 -18.0 M11.3 -2.3 L11.3 -2.3 M13.9 -4.55 Q13.55 -4.2 13.3 -3.65 12.85 -2.6 12.7 -1.6 L12.65 -1.6 Q12.4 -1.9 12.35 -2.25 12.3 -2.4 12.3 -2.9 12.3 -3.75 12.8 -4.6 L13.1 -5.15 Q13.2 -5.0 13.55 -4.75 L13.9 -4.55 M11.9 -2.55 L11.9 -2.5 12.0 -2.2 Q11.9 -2.35 11.9 -2.55 M13.5 -2.75 Q13.7 -3.15 14.05 -3.55 L13.9 -3.0 Q13.7 -2.95 13.5 -2.75" fill="#003060" fill-rule="evenodd" stroke="none"/>
    <path d="M10.1 -19.05 L9.95 -18.85 9.55 -18.2 Q9.05 -17.4 8.95 -16.55 8.5 -16.45 8.45 -16.3 8.1 -16.2 7.6 -15.85 7.85 -16.45 8.6 -17.65 L8.8 -18.0 8.95 -18.15 9.0 -18.15 9.1 -18.25 9.95 -18.95 10.1 -19.05 M10.15 -16.05 L10.1 -16.4 10.15 -16.85 10.25 -17.45 Q10.55 -17.35 10.7 -16.65 L10.8 -16.25 10.5 -16.2 10.3 -16.15 10.2 -16.1 10.15 -16.05 M11.6 -16.35 Q11.65 -16.65 11.7 -17.05 11.9 -17.95 12.1 -18.15 L12.15 -18.1 12.15 -18.0 12.05 -17.2 Q12.0 -16.65 12.0 -16.45 L12.0 -16.35 11.75 -16.35 11.6 -16.35 M12.2 -16.3 L15.25 -19.3 Q15.3 -19.3 15.35 -19.4 15.4 -19.5 15.55 -19.5 15.55 -19.6 15.55 -19.45 15.55 -18.9 14.75 -17.6 L14.35 -17.0 13.95 -16.9 14.1 -17.15 13.8 -16.85 13.7 -16.8 Q13.3 -16.6 13.3 -16.4 L13.3 -16.35 13.15 -16.2 12.9 -16.25 12.2 -16.3 M15.9 -16.95 L15.85 -17.0 Q16.7 -17.65 17.0 -18.15 17.45 -18.85 17.55 -19.4 17.65 -19.65 17.65 -20.05 L18.05 -18.8 Q18.05 -18.5 17.85 -18.1 L17.8 -17.9 17.75 -17.85 17.6 -17.55 Q17.4 -17.3 17.2 -17.15 L16.7 -16.8 16.05 -16.9 16.0 -16.9 16.0 -16.95 15.9 -16.95 M18.8 -18.9 L18.85 -19.0 18.9 -19.05 Q18.85 -18.85 18.8 -18.6 L18.7 -18.05 Q18.65 -17.8 18.65 -17.6 18.65 -17.05 18.85 -16.45 L18.85 -16.35 18.9 -16.3 Q19.05 -15.95 19.35 -15.35 19.55 -14.9 19.75 -14.15 L19.95 -13.45 19.65 -13.7 18.8 -14.4 Q18.6 -14.6 18.4 -14.65 L18.3 -15.25 18.3 -15.5 18.35 -15.8 Q18.5 -16.8 18.5 -17.2 18.5 -18.35 18.8 -18.9 M14.35 -17.55 L14.25 -17.4 14.35 -17.55 M11.75 -16.35 L11.75 -16.35 M11.3 -2.3 L11.25 -2.35 11.2 -2.45 11.2 -2.5 Q11.05 -2.65 11.05 -3.05 11.05 -3.65 11.25 -4.05 11.4 -4.45 11.85 -4.85 L11.9 -4.6 Q11.9 -4.4 11.95 -4.3 L11.85 -4.15 Q11.6 -3.65 11.6 -2.95 11.5 -2.9 11.45 -2.75 L11.3 -2.35 11.3 -2.3 M18.95 -11.95 L19.65 -11.4 Q19.35 -11.15 19.2 -10.75 19.1 -10.5 19.05 -10.25 18.95 -10.55 18.85 -10.9 18.6 -12.0 18.5 -12.25 L18.95 -11.95 M20.2 -10.8 L19.65 -10.8 19.6 -10.75 19.8 -11.25 20.2 -10.8 M13.9 -4.55 Q14.3 -4.4 14.8 -4.45 14.35 -3.5 14.2 -3.2 14.1 -2.8 14.1 -2.2 14.05 -2.45 14.05 -2.55 L14.05 -3.0 13.9 -3.0 14.05 -3.55 Q13.7 -3.15 13.5 -2.75 L13.3 -2.4 13.25 -2.3 Q12.85 -1.65 12.85 -1.3 12.9 -1.15 12.9 -1.0 L12.25 -1.7 12.2 -1.75 12.0 -2.15 12.0 -2.2 11.9 -2.5 11.9 -2.55 11.9 -2.65 Q12.0 -2.85 12.0 -2.95 L11.95 -3.1 Q12.0 -3.55 12.2 -4.0 L12.3 -4.2 12.35 -4.2 12.45 -4.4 Q12.7 -4.8 13.1 -5.15 L12.8 -4.6 Q12.3 -3.75 12.3 -2.9 12.3 -2.4 12.35 -2.25 12.4 -1.9 12.65 -1.6 L12.7 -1.6 Q12.85 -2.6 13.3 -3.65 13.55 -4.2 13.9 -4.55" fill="#002040" fill-rule="evenodd" stroke="none"/>
    <path d="M17.25 -16.2 L17.1 -16.3 Q16.55 -16.6 15.8 -16.8 L15.4 -16.85 15.5 -16.85 15.75 -16.8 15.9 -16.85 16.45 -16.7 Q16.95 -16.55 17.35 -16.3 L17.3 -16.3 17.25 -16.25 17.25 -16.2 M17.95 -15.7 L18.0 -15.6 18.0 -15.4 Q17.95 -15.25 17.65 -15.1 17.15 -14.85 16.25 -14.85 14.75 -14.85 13.95 -15.7 L13.8 -15.85 14.0 -15.85 Q14.2 -15.85 14.25 -15.9 14.4 -15.75 14.55 -15.6 15.3 -15.05 16.7 -15.05 17.3 -15.05 17.55 -15.25 L17.6 -15.25 Q17.75 -15.25 17.85 -15.45 L17.95 -15.7 M13.5 -16.3 L13.5 -16.35 13.5 -16.3 M13.45 -15.45 L13.55 -15.9 Q13.75 -15.7 14.0 -15.45 14.9 -14.65 16.25 -14.65 17.2 -14.65 17.75 -15.0 17.9 -15.1 18.0 -15.2 L17.95 -14.5 17.95 -13.75 17.7 -13.7 17.3 -13.6 16.0 -13.5 Q15.45 -13.5 14.35 -14.0 13.5 -14.35 13.35 -14.65 L13.45 -15.45 M9.1 -15.25 Q8.95 -14.9 8.75 -14.65 7.95 -13.6 6.15 -13.35 L6.05 -13.45 Q6.05 -13.5 6.05 -13.4 L6.05 -13.35 5.95 -13.35 Q5.95 -13.5 6.0 -13.6 L6.05 -13.7 Q6.15 -13.55 6.4 -13.55 7.1 -13.55 8.1 -14.5 L8.05 -14.45 8.2 -14.3 Q8.65 -14.4 9.05 -15.2 L9.1 -15.25 M9.1 -16.3 Q9.05 -16.4 8.95 -16.4 L9.15 -16.4 9.1 -16.3 M10.25 -15.35 L10.6 -14.9 10.65 -14.9 10.75 -14.75 Q10.7 -14.3 9.85 -13.8 9.1 -13.4 8.7 -13.1 8.45 -13.0 8.2 -12.8 L7.8 -12.55 Q7.4 -12.25 7.25 -11.75 L6.35 -13.15 6.45 -13.15 Q7.9 -13.45 8.8 -14.4 9.1 -14.75 9.3 -15.1 L9.35 -15.05 Q9.45 -14.8 9.7 -14.8 10.0 -14.8 10.15 -15.1 L10.25 -15.35" fill="#304040" fill-rule="evenodd" stroke="none"/>
    <path d="M17.25 -16.2 L17.25 -16.25 17.3 -16.3 17.35 -16.3 17.45 -16.25 17.8 -16.0 17.95 -15.7 17.85 -15.45 Q17.75 -15.25 17.6 -15.25 L17.55 -15.25 Q17.65 -15.4 17.65 -15.65 17.65 -15.9 17.25 -16.2 M13.8 -15.85 L13.6 -16.1 13.7 -16.25 Q13.6 -16.35 13.55 -16.25 L13.5 -16.25 13.5 -16.3 13.5 -16.35 13.6 -16.45 13.8 -16.55 13.8 -16.6 14.05 -16.65 Q13.95 -16.6 13.95 -16.45 L14.0 -16.2 14.05 -16.25 Q14.1 -16.05 14.25 -15.9 14.2 -15.85 14.0 -15.85 L13.8 -15.85 M9.1 -15.25 L9.05 -15.2 Q8.65 -14.4 8.2 -14.3 L8.05 -14.45 8.1 -14.5 8.15 -14.6 8.25 -14.7 Q9.15 -15.7 9.15 -16.1 9.15 -16.25 9.1 -16.3 L9.15 -16.4 9.15 -16.45 9.25 -16.45 9.4 -16.4 Q9.3 -15.75 9.1 -15.25 M10.25 -15.35 L10.15 -15.1 Q10.0 -14.8 9.7 -14.8 9.45 -14.8 9.35 -15.05 L9.3 -15.1 9.5 -15.55 Q9.6 -15.8 9.6 -16.05 L9.6 -16.2 9.95 -15.7 10.25 -15.35" fill="#506060" fill-rule="evenodd" stroke="none"/>
    <path d="M13.15 -16.0 L13.25 -16.0 13.15 -15.55 13.05 -15.25 12.45 -15.25 Q11.3 -15.2 10.85 -15.05 L10.3 -15.7 10.25 -15.8 11.0 -15.9 12.5 -16.05 12.9 -16.05 13.15 -16.0 M13.0 -14.55 L13.05 -14.45 13.05 -14.5 Q13.25 -14.15 14.1 -13.75 L14.3 -13.65 13.65 -13.75 11.75 -13.75 11.75 -13.7 Q10.35 -13.5 9.6 -13.35 L9.2 -13.2 9.15 -13.2 10.0 -13.6 Q10.85 -14.0 10.85 -14.6 L10.8 -14.7 10.85 -14.65 10.9 -14.7 10.95 -14.8 10.9 -14.85 11.9 -14.8 13.0 -14.9 12.95 -14.65 13.0 -14.55 M18.45 -13.55 L18.4 -13.65 18.4 -14.5 19.45 -13.5 Q20.45 -12.6 20.45 -12.05 L20.3 -11.4 Q20.3 -11.3 20.3 -11.2 20.05 -11.7 19.1 -12.3 18.2 -12.8 17.4 -13.05 L17.45 -13.05 17.7 -13.1 17.75 -13.1 17.95 -13.15 18.2 -13.25 Q18.45 -13.4 18.45 -13.55" fill="#1c2626" fill-rule="evenodd" stroke="none"/>
    <path d="M10.55 -12.8 L9.75 -13.05 9.9 -13.05 11.75 -13.45 14.85 -13.45 Q15.15 -13.35 15.4 -13.25 L15.1 -13.15 Q14.5 -12.8 14.05 -12.25 13.55 -11.5 13.55 -10.85 13.55 -10.4 13.75 -10.0 L13.5 -10.05 13.2 -10.05 Q13.2 -10.2 13.3 -10.2 L13.45 -10.15 Q13.2 -10.55 13.2 -10.85 13.2 -11.45 13.6 -12.1 13.95 -12.8 13.95 -12.95 L13.95 -13.05 12.9 -13.05 10.85 -12.8 11.0 -12.85 11.35 -12.3 Q11.6 -11.9 11.6 -11.5 11.6 -11.1 11.55 -10.9 11.45 -10.55 11.1 -10.5 L11.15 -10.75 11.25 -10.9 Q11.25 -10.8 11.35 -10.75 11.5 -10.85 11.55 -10.95 L11.55 -11.2 Q11.55 -12.05 10.85 -12.6 L10.75 -12.65 10.7 -12.8 10.6 -12.75 10.55 -12.8 M13.25 -9.8 Q13.9 -9.8 14.15 -8.55 14.0 -8.2 13.4 -7.85 L12.4 -7.65 12.3 -7.6 Q11.45 -7.35 11.3 -7.3 L10.7 -6.75 Q10.4 -6.45 10.2 -6.35 9.9 -6.35 9.55 -6.65 L9.2 -7.0 Q8.85 -7.4 8.85 -7.5 L8.85 -7.7 8.9 -7.7 8.95 -7.8 8.95 -7.85 9.15 -8.1 9.25 -7.75 Q9.5 -7.05 10.0 -7.05 10.25 -7.05 10.9 -7.5 11.6 -7.95 11.75 -8.0 13.0 -8.2 13.35 -8.5 13.55 -8.7 13.55 -9.15 13.55 -9.4 13.35 -9.65 L13.25 -9.8 M7.4 -11.5 Q7.75 -11.7 8.15 -11.8 L9.7 -11.8 10.15 -11.7 10.55 -11.7 Q10.65 -11.85 10.7 -12.0 10.7 -12.35 10.15 -12.65 9.85 -12.85 9.5 -12.9 10.25 -12.9 10.8 -12.15 11.2 -11.65 11.3 -11.3 L11.25 -11.2 10.9 -10.85 10.75 -10.8 10.65 -10.85 Q10.55 -10.95 10.35 -11.05 L10.15 -11.15 Q9.55 -11.45 8.6 -11.35 8.0 -11.3 7.55 -11.1 L7.4 -11.0 7.3 -10.95 7.3 -11.05 7.35 -11.4 7.4 -11.5 M5.15 -8.4 L5.25 -8.45 5.25 -8.5 5.3 -8.4 Q5.4 -8.3 5.6 -8.3 L5.85 -8.35 5.8 -8.2 Q5.8 -8.15 5.85 -8.0 5.95 -7.8 6.15 -7.75 L6.2 -7.8 6.25 -7.9 Q6.2 -8.05 6.2 -8.4 L6.15 -8.5 6.45 -8.6 6.85 -8.75 6.85 -8.7 6.75 -8.35 6.5 -7.75 6.25 -7.0 6.25 -6.95 Q5.75 -7.0 5.45 -7.45 5.15 -7.9 5.15 -8.35 L5.15 -8.4 M5.35 -8.55 L5.9 -8.85 Q6.4 -9.1 6.6 -9.0 L6.15 -8.9 Q5.65 -8.7 5.35 -8.55 M7.15 -8.95 L7.75 -9.1 Q7.45 -9.3 7.25 -9.7 7.15 -9.9 7.1 -10.1 7.3 -10.3 7.3 -10.55 L7.4 -10.6 7.4 -10.45 Q7.4 -10.05 7.65 -9.65 7.85 -9.4 8.2 -9.2 8.4 -9.1 8.7 -9.1 L8.6 -9.0 Q8.45 -8.95 8.0 -8.85 L7.45 -8.7 7.45 -8.65 7.65 -8.6 Q7.85 -8.5 7.95 -8.5 8.55 -8.5 9.4 -9.15 L9.25 -9.0 9.05 -8.65 8.85 -8.55 Q7.9 -8.05 7.6 -8.05 7.25 -8.05 7.05 -8.1 L7.1 -8.3 7.15 -8.4 7.15 -8.5 7.15 -8.55 7.1 -8.9 7.15 -8.95 M8.7 -7.0 L8.75 -6.9 8.85 -6.8 8.95 -6.65 8.7 -6.65 Q7.95 -6.9 7.55 -6.8 7.25 -6.7 7.25 -6.35 7.2 -6.25 7.25 -6.15 7.3 -6.0 7.5 -6.0 L7.6 -6.0 7.5 -5.95 7.7 -5.8 Q7.8 -5.95 8.05 -5.7 L8.35 -5.4 10.25 -5.65 10.55 -5.8 Q10.6 -5.85 10.65 -6.15 L10.85 -6.25 11.3 -6.6 11.4 -6.55 11.4 -6.6 Q12.2 -6.65 13.65 -7.05 L14.0 -7.15 14.45 -7.3 15.1 -7.5 16.55 -7.75 17.25 -7.75 Q18.0 -7.75 18.0 -7.5 L17.95 -7.25 Q17.95 -7.1 18.05 -7.05 18.25 -7.15 18.3 -7.4 L18.3 -6.9 Q18.25 -6.75 18.15 -6.75 17.9 -6.75 17.75 -7.05 17.6 -7.35 17.35 -7.35 16.05 -7.35 15.2 -7.05 14.55 -6.7 14.45 -6.7 L14.35 -6.75 14.0 -6.6 13.95 -6.35 Q14.25 -6.5 14.65 -6.5 16.0 -6.5 16.95 -6.1 17.15 -6.0 17.7 -5.65 L18.1 -5.65 Q19.35 -6.75 19.45 -7.35 19.55 -7.8 19.65 -8.0 20.0 -7.4 20.0 -7.35 20.0 -6.85 19.25 -5.85 L18.5 -4.9 Q18.35 -4.8 18.3 -4.8 18.2 -4.8 17.7 -5.15 L16.55 -5.75 Q15.3 -6.3 14.6 -6.0 14.4 -5.95 14.25 -5.8 15.1 -5.95 16.1 -5.55 L16.1 -5.5 15.6 -5.15 15.2 -4.85 15.1 -4.95 15.0 -4.95 14.95 -4.9 14.25 -4.9 14.2 -4.95 14.15 -4.95 13.95 -5.1 13.7 -5.05 13.6 -5.1 Q13.3 -5.35 13.1 -5.4 13.1 -5.45 13.1 -5.3 L13.1 -5.25 Q12.65 -5.05 12.35 -4.8 L12.25 -4.8 12.1 -5.05 11.95 -5.15 11.9 -5.2 11.7 -5.35 11.4 -5.4 11.1 -5.4 10.95 -5.35 10.9 -5.35 10.4 -5.15 10.35 -5.15 Q9.6 -4.75 9.15 -4.75 8.45 -4.75 8.3 -4.85 8.2 -5.0 8.05 -5.1 L8.0 -5.1 7.5 -5.5 Q6.5 -6.25 6.5 -6.55 6.5 -6.65 6.65 -7.0 6.7 -6.75 6.95 -6.35 7.0 -6.85 7.65 -7.05 8.15 -7.2 8.7 -7.0 M7.65 -6.0 L7.7 -6.15 7.6 -6.25 Q7.75 -6.35 7.85 -6.45 L8.95 -6.5 9.05 -6.45 9.1 -6.5 Q9.3 -6.3 9.5 -6.25 L9.65 -6.1 9.7 -6.1 9.75 -6.05 9.2 -6.1 Q8.5 -6.3 8.0 -6.2 L7.65 -6.0 M14.5 -8.7 L14.45 -8.95 14.45 -9.1 Q15.05 -8.6 16.05 -8.6 16.95 -8.6 17.3 -8.85 L17.65 -9.2 17.25 -9.2 17.15 -9.15 16.9 -9.1 Q16.55 -8.95 16.05 -8.95 L15.85 -8.95 15.95 -9.0 Q16.55 -9.1 16.95 -9.5 17.4 -9.9 17.45 -10.35 L17.45 -10.35 17.5 -10.25 17.55 -9.9 Q17.7 -9.95 17.75 -10.05 L17.75 -10.3 Q17.7 -10.75 17.15 -11.05 16.6 -11.35 15.8 -11.4 L14.4 -11.3 Q14.1 -11.25 13.95 -11.15 14.05 -11.6 14.5 -12.2 14.8 -12.65 15.15 -12.9 15.0 -12.65 15.0 -12.5 15.0 -12.2 15.15 -12.15 L16.25 -12.05 Q16.95 -12.05 17.4 -11.7 L17.45 -11.85 17.5 -11.9 17.55 -11.75 17.6 -11.6 17.6 -11.55 17.65 -11.3 17.65 -11.05 Q17.9 -11.25 17.95 -11.35 L17.95 -11.6 Q17.95 -11.75 17.9 -11.95 L17.9 -11.95 18.0 -11.95 17.85 -12.15 Q17.3 -12.7 16.65 -13.05 L16.9 -13.05 Q17.7 -12.75 18.45 -12.25 L18.45 -12.2 18.4 -12.3 Q18.35 -12.3 18.35 -12.2 L18.4 -11.95 18.4 -11.85 Q18.35 -11.7 18.35 -11.55 L18.35 -11.5 18.45 -11.0 Q18.15 -10.4 17.75 -9.85 L17.25 -9.25 17.45 -9.35 Q17.8 -9.55 18.05 -9.75 18.25 -9.75 18.25 -9.55 18.25 -9.25 17.7 -8.9 17.1 -8.6 16.25 -8.55 L15.9 -8.45 15.8 -8.45 Q15.0 -8.45 14.5 -8.7 M7.15 -8.5 L7.15 -8.5 M11.5 -5.8 Q11.75 -5.6 12.0 -5.6 L12.05 -5.6 Q12.1 -5.6 12.35 -5.7 L12.75 -5.95 13.45 -6.3 13.45 -6.35 13.35 -6.4 Q13.1 -6.25 12.55 -6.1 L12.05 -5.95 Q11.8 -5.95 11.55 -6.15 L11.3 -6.45 11.2 -6.45 11.2 -6.35 11.25 -6.25 Q11.25 -6.1 11.4 -5.9 L11.45 -5.85 11.5 -5.8 11.5 -5.8 M10.95 -5.35 L10.95 -5.35 M8.5 -5.15 L8.5 -5.15 M19.35 -10.15 L19.65 -10.15 Q20.2 -10.15 21.0 -9.75 21.45 -9.55 21.65 -9.35 21.55 -9.05 21.3 -8.75 20.8 -8.1 20.05 -8.1 L19.7 -8.7 Q19.45 -9.05 19.3 -9.35 L19.35 -9.35 19.4 -9.4 19.4 -9.55 19.75 -9.4 20.25 -9.25 20.2 -9.1 20.1 -8.75 20.3 -8.6 Q20.6 -8.65 20.65 -9.2 L21.2 -9.15 Q21.3 -9.15 21.3 -9.2 L21.35 -9.25 Q21.0 -9.6 20.05 -9.8 L19.3 -9.9 19.35 -10.15 M13.75 -7.55 L13.5 -7.5 12.6 -7.3 13.25 -7.5 13.75 -7.55" fill="#a9854f" fill-rule="evenodd" stroke="none"/>
    <path d="M16.0 -16.55 Q15.85 -16.45 15.85 -16.3 15.85 -16.15 16.0 -16.0 16.2 -15.8 16.7 -15.8 17.0 -15.8 17.15 -15.9 L17.25 -15.95 Q17.35 -15.85 17.35 -15.7 17.35 -15.25 16.7 -15.25 15.5 -15.25 14.8 -15.75 14.2 -16.1 14.2 -16.45 14.2 -16.7 14.7 -16.7 15.15 -16.75 15.8 -16.6 L16.0 -16.55 M8.75 -15.6 Q8.55 -15.3 8.15 -14.85 7.25 -13.8 6.5 -13.8 6.2 -13.8 6.2 -14.0 6.2 -14.45 7.3 -15.35 L7.95 -15.8 Q7.75 -15.6 7.75 -15.4 7.75 -15.35 7.8 -15.3 7.85 -15.2 8.05 -15.2 8.4 -15.2 8.75 -15.6 M6.8 -14.2 Q6.8 -14.4 6.55 -14.4 6.35 -14.35 6.35 -14.1 6.3 -14.05 6.35 -14.0 6.35 -13.9 6.55 -13.9 6.65 -13.9 6.7 -14.0 6.8 -14.1 6.8 -14.2" fill="#bfb69e" fill-rule="evenodd" stroke="none"/>
    <path d="M17.25 -15.95 L17.15 -15.9 Q17.0 -15.8 16.7 -15.8 16.2 -15.8 16.0 -16.0 15.85 -16.15 15.85 -16.3 15.85 -16.45 16.0 -16.55 16.95 -16.3 17.25 -16.0 L17.25 -15.95 M8.75 -15.6 Q8.4 -15.2 8.05 -15.2 7.85 -15.2 7.8 -15.3 7.75 -15.35 7.75 -15.4 7.75 -15.6 7.95 -15.8 8.6 -16.25 8.95 -16.15 L8.95 -16.05 8.85 -15.75 8.75 -15.65 8.75 -15.6 M6.8 -14.2 Q6.8 -14.1 6.7 -14.0 6.65 -13.9 6.55 -13.9 6.35 -13.9 6.35 -14.0 6.3 -14.05 6.35 -14.1 6.35 -14.35 6.55 -14.4 6.8 -14.4 6.8 -14.2" fill="#fff4d4" fill-rule="evenodd" stroke="none"/>
    <path d="M10.55 -12.8 L10.6 -12.75 10.7 -12.8 10.75 -12.65 10.55 -12.8 M11.15 -10.75 L11.1 -10.5 Q11.45 -10.55 11.55 -10.9 11.6 -11.1 11.6 -11.5 11.6 -11.9 11.35 -12.3 L11.0 -12.85 10.85 -12.8 12.9 -13.05 13.95 -13.05 13.95 -12.95 Q13.95 -12.8 13.6 -12.1 13.2 -11.45 13.2 -10.85 13.2 -10.55 13.45 -10.15 L13.3 -10.2 Q13.2 -10.2 13.2 -10.05 12.9 -9.95 12.55 -9.65 L12.55 -9.6 12.7 -9.6 Q12.75 -9.6 12.95 -9.7 13.1 -9.8 13.25 -9.8 L13.35 -9.65 Q13.55 -9.4 13.55 -9.15 13.55 -8.7 13.35 -8.5 13.0 -8.2 11.75 -8.0 11.6 -7.95 10.9 -7.5 10.25 -7.05 10.0 -7.05 9.5 -7.05 9.25 -7.75 L9.15 -8.1 10.45 -9.85 11.15 -10.75 M14.15 -8.55 L14.1 -8.25 14.0 -7.95 13.7 -7.95 13.4 -7.85 Q14.0 -8.2 14.15 -8.55 M9.5 -12.9 Q9.85 -12.85 10.15 -12.65 10.7 -12.35 10.7 -12.0 10.65 -11.85 10.55 -11.7 L10.15 -11.7 9.7 -11.8 8.15 -11.8 Q7.75 -11.7 7.4 -11.5 L7.4 -11.55 Q7.6 -11.85 8.0 -12.3 L8.55 -12.75 Q8.95 -12.9 9.5 -12.9 M10.65 -10.85 L10.75 -10.8 10.9 -10.85 10.75 -10.65 10.75 -10.75 10.7 -10.8 Q10.75 -10.8 10.7 -10.8 L10.65 -10.85 M11.25 -11.2 L11.3 -11.3 11.3 -11.2 11.25 -11.2 M5.15 -8.4 Q5.15 -9.0 6.25 -9.55 L7.0 -10.05 7.1 -10.1 Q7.15 -9.9 7.25 -9.7 7.45 -9.3 7.75 -9.1 L7.15 -8.95 7.15 -9.05 6.6 -9.0 Q6.4 -9.1 5.9 -8.85 L5.35 -8.55 5.25 -8.5 5.3 -8.4 5.25 -8.5 5.25 -8.45 5.15 -8.4 M9.05 -8.65 Q8.7 -8.2 8.65 -7.95 8.5 -7.7 8.5 -7.5 8.5 -7.35 8.7 -7.0 8.15 -7.2 7.65 -7.05 7.0 -6.85 6.95 -6.35 6.7 -6.75 6.65 -7.0 L7.05 -8.1 Q7.25 -8.05 7.6 -8.05 7.9 -8.05 8.85 -8.55 L9.05 -8.65 M7.6 -6.0 L7.65 -6.0 8.0 -6.2 Q8.5 -6.3 9.2 -6.1 L9.75 -6.05 9.7 -6.1 10.1 -6.0 10.15 -6.05 10.25 -6.0 Q10.4 -6.0 10.65 -6.15 10.6 -5.85 10.55 -5.8 L10.25 -5.65 8.35 -5.4 8.05 -5.7 Q7.8 -5.95 7.7 -5.8 L7.5 -5.95 7.6 -6.0 M11.3 -6.6 L11.4 -6.6 11.4 -6.55 11.3 -6.6 M18.3 -7.4 L18.3 -7.45 Q18.3 -7.8 18.2 -7.9 17.9 -8.15 16.9 -8.1 15.3 -7.9 14.0 -7.6 L14.2 -7.8 Q14.3 -7.85 14.4 -8.0 14.5 -8.2 14.5 -8.5 L14.5 -8.7 Q15.0 -8.45 15.8 -8.45 L15.9 -8.45 16.25 -8.55 Q17.1 -8.6 17.7 -8.9 18.25 -9.25 18.25 -9.55 18.25 -9.75 18.05 -9.75 17.8 -9.55 17.45 -9.35 L17.25 -9.25 17.75 -9.85 Q18.15 -10.4 18.45 -11.0 L18.6 -10.45 Q18.75 -9.95 18.9 -9.7 18.95 -9.15 19.45 -8.35 L19.65 -8.0 Q19.55 -7.8 19.45 -7.35 19.35 -6.75 18.1 -5.65 L17.7 -5.65 Q17.15 -6.0 16.95 -6.1 16.0 -6.5 14.65 -6.5 14.25 -6.5 13.95 -6.35 L14.0 -6.6 14.35 -6.75 14.45 -6.7 Q14.55 -6.7 15.2 -7.05 16.05 -7.35 17.35 -7.35 17.6 -7.35 17.75 -7.05 17.9 -6.75 18.15 -6.75 18.25 -6.75 18.3 -6.9 L18.3 -7.4 M15.85 -8.95 L15.8 -8.95 15.95 -9.0 15.85 -8.95 M13.95 -11.15 L13.95 -11.15 M15.15 -12.9 Q15.4 -13.1 15.65 -13.2 L16.4 -13.05 16.65 -13.05 Q17.3 -12.7 17.85 -12.15 L18.0 -11.95 17.9 -11.95 17.9 -11.95 17.8 -12.1 Q17.65 -12.45 17.35 -12.4 L17.35 -12.25 Q17.35 -12.2 17.5 -11.9 L17.55 -11.75 17.5 -11.9 17.45 -11.85 17.4 -11.7 Q16.95 -12.05 16.25 -12.05 L15.15 -12.15 Q15.0 -12.2 15.0 -12.5 15.0 -12.65 15.15 -12.9 M16.1 -5.55 L16.15 -5.5 16.1 -5.5 16.1 -5.55 M14.15 -4.95 Q13.85 -4.95 13.7 -5.05 L13.95 -5.1 14.15 -4.95 M12.35 -4.8 L12.25 -4.65 12.25 -4.8 12.35 -4.8 M6.85 -8.75 L7.0 -8.8 6.75 -8.35 6.85 -8.7 6.85 -8.75 M7.15 -8.5 L7.15 -8.5 M11.5 -5.8 L11.5 -5.8 11.45 -5.85 11.5 -5.8 M10.95 -5.35 L10.95 -5.35 M8.5 -5.15 L8.5 -5.15 M19.35 -10.15 L19.55 -10.6 Q19.8 -10.55 19.65 -10.5 L21.6 -10.4 Q21.7 -10.0 21.7 -9.8 L21.65 -9.35 Q21.45 -9.55 21.0 -9.75 20.2 -10.15 19.65 -10.15 L19.35 -10.15" fill="#c7a36d" fill-rule="evenodd" stroke="none"/>
    <path d="M8.85 -10.65 Q9.0 -10.9 9.0 -11.0 9.7 -11.0 10.15 -10.85 L10.45 -10.7 10.5 -10.65 9.95 -10.15 Q9.25 -9.5 8.7 -9.5 8.05 -9.5 7.7 -10.15 7.6 -10.4 7.5 -10.7 L7.6 -10.8 7.6 -10.85 7.95 -10.9 7.95 -10.6 8.15 -10.4 8.55 -10.4 Q8.7 -10.35 8.85 -10.65 M14.9 -10.5 Q15.3 -10.5 15.45 -10.75 15.55 -10.9 15.55 -11.05 16.85 -11.05 17.25 -10.65 L17.2 -10.5 Q17.15 -10.15 17.0 -10.0 16.55 -9.3 15.1 -9.3 14.85 -9.3 14.65 -9.35 14.4 -9.55 14.25 -9.8 13.9 -10.3 13.9 -10.8 L13.95 -10.8 14.35 -10.95 14.4 -10.95 14.35 -10.85 14.45 -10.7 Q14.55 -10.5 14.9 -10.5" fill="#ffffff" fill-rule="evenodd" stroke="none"/>
  </g>
</svg>
