<?xml version="1.0" encoding="UTF-8" standalone="no"?>
<svg xmlns:ffdec="https://www.free-decompiler.com/flash" xmlns:xlink="http://www.w3.org/1999/xlink" ffdec:objectType="shape" height="22.55px" width="19.25px" xmlns="http://www.w3.org/2000/svg">
  <g transform="matrix(1.0, 0.0, 0.0, 1.0, -5.8, 29.0)">
    <path d="M14.0 -29.0 Q17.8 -28.45 18.55 -27.3 18.65 -27.15 18.75 -26.9 L19.05 -26.25 19.05 -26.2 19.35 -25.5 Q19.75 -24.6 20.1 -23.9 21.25 -21.8 22.3 -21.8 L22.6 -21.7 22.7 -21.7 Q25.05 -21.6 25.05 -19.55 25.05 -18.85 25.0 -18.75 L24.35 -17.9 24.4 -17.7 Q24.65 -16.95 24.65 -16.75 24.65 -15.65 23.55 -15.0 22.85 -14.65 22.0 -14.5 21.85 -14.25 21.6 -13.9 20.9 -13.15 20.1 -13.2 L19.9 -13.2 19.6 -13.05 19.55 -13.05 19.5 -12.85 Q19.25 -12.05 17.6 -10.65 16.1 -9.2 15.0 -8.25 13.0 -6.45 12.5 -6.45 12.35 -6.45 12.15 -6.75 L12.1 -6.75 Q11.65 -6.75 10.75 -8.6 10.1 -9.25 9.6 -10.95 L9.4 -11.6 9.3 -11.9 9.2 -12.4 9.1 -12.75 9.1 -12.85 Q9.05 -13.0 9.05 -13.1 L9.05 -13.3 8.95 -13.3 Q8.05 -13.3 7.45 -14.3 7.05 -14.9 7.0 -15.25 L6.9 -15.35 Q6.05 -15.95 5.9 -16.35 5.8 -16.55 5.8 -17.25 5.8 -17.35 5.95 -17.7 L6.15 -18.05 Q6.15 -18.2 6.0 -18.6 5.8 -19.0 5.8 -19.15 5.8 -19.85 6.25 -20.4 6.6 -20.8 7.25 -21.0 7.45 -21.2 7.55 -21.2 7.65 -21.15 7.8 -21.1 L8.3 -21.15 Q8.8 -21.5 9.1 -21.95 L9.2 -22.2 9.45 -23.3 9.45 -23.35 Q9.4 -24.15 9.4 -25.1 9.4 -25.9 9.75 -26.3 9.75 -26.45 10.0 -26.6 L10.05 -26.65 Q10.45 -27.2 11.1 -27.75 12.7 -29.15 14.0 -28.95 L14.0 -29.0 M9.5 -13.8 L9.45 -13.8 Q9.55 -12.85 9.8 -11.9 10.05 -10.7 10.4 -9.75 11.15 -8.25 12.4 -7.0 L12.35 -6.95 12.45 -6.85 Q16.25 -9.25 17.85 -10.95 19.75 -12.95 19.75 -15.15 L19.7 -15.35 19.8 -15.9 Q19.8 -17.4 19.65 -18.25 L19.6 -18.5 19.25 -19.85 19.2 -20.25 19.2 -20.7 Q19.1 -21.4 18.95 -21.75 18.55 -24.95 18.5 -25.85 18.3 -26.4 18.1 -26.8 17.9 -27.15 17.6 -27.45 16.6 -28.55 14.75 -28.6 12.15 -28.65 10.85 -27.3 10.6 -27.05 10.4 -26.7 L10.85 -26.8 Q12.0 -26.95 12.2 -26.5 L12.65 -25.65 12.85 -25.2 12.85 -24.3 12.8 -24.25 12.8 -22.6 Q13.25 -22.7 13.5 -21.9 L13.6 -21.55 13.75 -20.7 13.8 -20.4 13.85 -20.15 13.9 -19.8 13.85 -19.65 Q13.75 -19.5 13.65 -19.5 L13.45 -19.5 13.0 -19.55 12.7 -19.65 12.6 -19.7 12.6 -19.65 12.5 -19.8 Q12.45 -19.9 12.45 -20.0 L12.5 -20.1 Q12.5 -20.2 12.55 -20.65 L12.6 -20.85 12.6 -21.05 12.6 -21.45 11.65 -21.45 Q10.85 -21.55 10.6 -21.7 10.5 -21.8 10.45 -21.95 L10.4 -22.1 Q10.3 -22.25 10.3 -22.3 L10.3 -22.35 Q10.35 -22.6 10.7 -23.15 11.1 -23.75 11.35 -23.8 L11.3 -23.8 11.25 -23.65 11.25 -23.6 11.2 -23.6 11.2 -23.55 11.1 -23.15 11.0 -22.85 10.95 -22.6 Q11.4 -22.75 11.9 -22.55 12.2 -22.4 12.6 -22.15 L12.6 -22.65 12.55 -23.6 12.55 -23.85 12.6 -24.0 12.65 -24.05 12.65 -24.5 Q12.65 -24.8 12.55 -25.0 L12.55 -25.05 12.6 -25.05 12.45 -25.7 Q12.25 -26.55 11.9 -26.6 11.55 -26.6 10.95 -26.4 L10.7 -26.15 Q10.2 -25.65 10.0 -25.3 L10.0 -22.1 10.05 -21.3 Q10.05 -20.6 9.75 -18.95 L9.5 -17.4 9.5 -17.15 9.45 -16.45 9.4 -16.1 9.4 -14.65 9.45 -14.15 9.5 -14.1 9.5 -13.8 M16.7 -26.9 L16.75 -26.85 Q18.0 -26.5 18.0 -26.15 L18.0 -26.1 17.95 -26.0 Q17.85 -25.85 17.7 -25.75 L17.65 -25.8 17.55 -25.6 Q17.35 -25.3 17.3 -25.3 L16.45 -25.95 Q15.8 -26.35 15.35 -26.5 L15.25 -26.55 15.2 -26.55 Q14.8 -26.45 14.6 -26.15 L14.6 -26.1 Q14.4 -25.9 14.4 -25.6 L14.45 -25.35 Q14.4 -25.1 14.4 -24.8 L14.4 -24.75 Q14.4 -23.95 14.55 -23.4 L14.55 -23.25 14.5 -23.25 Q14.45 -23.35 14.35 -23.95 14.3 -24.55 14.3 -24.75 14.3 -25.5 14.3 -25.8 14.3 -25.85 14.3 -25.95 14.3 -27.25 15.2 -27.05 L15.35 -27.0 15.7 -27.05 15.8 -27.05 16.7 -26.9 M16.85 -24.25 L16.85 -24.3 Q16.85 -24.5 16.85 -24.4 17.15 -24.3 17.4 -24.0 L17.45 -23.95 17.45 -23.9 17.7 -23.6 17.75 -23.5 Q18.05 -23.0 18.05 -22.65 L18.05 -22.5 18.0 -22.35 Q18.0 -22.3 17.85 -22.25 17.55 -21.95 16.9 -21.75 16.4 -21.6 15.9 -21.55 L15.7 -21.55 Q15.25 -21.55 15.2 -21.65 L15.3 -21.65 15.3 -21.7 15.35 -21.7 15.55 -21.7 15.5 -21.8 Q15.45 -21.9 15.5 -22.0 L15.5 -22.05 15.15 -21.85 15.05 -21.8 15.0 -21.8 15.0 -21.95 Q15.0 -22.2 15.75 -22.55 16.55 -22.95 17.5 -22.8 L17.3 -23.2 Q16.9 -23.95 16.85 -24.25 M18.55 -21.1 L18.65 -21.1 18.9 -20.4 18.95 -19.8 18.95 -19.4 Q18.9 -18.6 18.75 -17.8 L18.65 -17.45 18.25 -16.25 Q17.65 -14.5 17.25 -13.9 L17.2 -13.7 16.7 -12.9 16.65 -12.8 15.65 -11.65 14.95 -11.05 14.35 -10.65 Q14.3 -10.6 14.25 -10.6 14.2 -10.6 14.2 -10.75 L14.4 -10.8 14.45 -10.85 14.5 -10.85 15.0 -11.2 Q15.95 -12.0 17.05 -13.85 L17.05 -13.9 17.1 -13.95 Q17.3 -14.3 17.6 -15.6 17.8 -16.55 18.15 -17.05 L18.15 -17.15 18.4 -18.65 18.45 -18.65 18.5 -18.85 Q17.75 -17.5 16.7 -16.75 L16.8 -16.75 16.4 -16.45 16.45 -16.45 16.35 -16.25 15.95 -16.0 15.25 -15.55 Q14.2 -14.95 12.95 -14.95 11.95 -15.0 11.35 -15.45 11.15 -15.65 10.85 -16.1 L10.85 -16.15 10.75 -16.25 10.6 -16.35 10.6 -16.4 10.1 -16.95 10.05 -17.0 10.15 -15.05 Q10.2 -13.75 10.55 -12.85 L10.55 -12.8 Q10.25 -13.3 10.1 -14.0 L10.1 -14.05 10.05 -14.2 9.95 -14.85 Q9.9 -15.6 9.85 -17.15 L9.95 -17.15 9.7 -17.5 9.7 -17.7 10.25 -16.95 Q11.05 -16.1 12.0 -16.05 L14.65 -16.2 Q15.65 -16.35 16.35 -16.8 17.0 -17.25 17.65 -18.2 18.05 -18.7 18.65 -19.8 L18.6 -20.1 Q18.5 -20.8 18.5 -21.0 18.5 -21.25 18.5 -21.1 L18.55 -21.1 M20.2 -22.45 Q20.0 -22.8 19.8 -23.2 19.3 -24.25 19.0 -25.2 L18.95 -25.15 Q19.0 -25.1 18.9 -25.1 L19.45 -21.05 19.45 -20.85 Q19.45 -20.35 19.5 -19.6 19.6 -18.6 19.7 -18.45 L19.75 -18.5 19.75 -18.1 19.8 -17.85 19.8 -17.9 Q19.95 -18.15 20.55 -18.7 21.4 -19.45 21.95 -19.5 L21.75 -19.3 21.7 -19.25 21.5 -19.1 21.4 -19.05 Q20.9 -18.65 20.75 -18.5 L20.4 -17.95 Q20.15 -17.6 19.95 -17.45 L19.95 -17.2 20.05 -16.6 20.15 -16.15 20.2 -15.8 20.2 -15.65 Q21.05 -15.95 21.7 -16.4 21.95 -16.5 22.2 -16.85 L22.45 -17.3 22.5 -17.55 22.55 -17.6 Q22.9 -18.1 22.9 -18.7 L22.75 -19.1 22.6 -19.3 22.55 -19.45 22.25 -19.8 21.6 -19.8 Q21.25 -19.85 21.0 -19.7 20.8 -19.6 20.5 -19.55 L20.4 -19.55 Q20.1 -19.55 19.85 -19.7 L19.8 -20.15 20.05 -20.05 20.6 -19.95 Q20.7 -19.95 20.9 -20.1 L22.4 -20.2 Q22.8 -20.15 23.2 -19.25 L23.2 -19.15 23.2 -18.85 Q23.25 -18.65 23.25 -18.4 L23.25 -18.3 Q23.2 -17.85 23.0 -17.4 L22.9 -17.25 22.75 -16.95 22.5 -16.6 Q21.7 -15.55 20.65 -15.45 L20.3 -15.45 20.3 -15.4 20.25 -15.15 20.25 -15.1 20.2 -15.1 Q20.15 -14.65 20.0 -14.2 L19.9 -14.05 19.9 -13.85 Q20.05 -13.65 20.3 -13.65 L20.35 -13.65 20.45 -13.75 20.9 -13.95 21.3 -14.4 21.6 -14.85 Q21.65 -15.0 21.75 -15.05 L22.15 -15.1 22.55 -15.1 23.0 -15.35 Q23.6 -15.65 23.95 -16.05 24.15 -16.4 24.15 -16.8 24.15 -16.95 23.95 -17.55 L23.9 -17.65 23.7 -18.2 23.95 -18.5 Q23.95 -18.65 24.05 -18.6 L24.5 -19.05 Q24.55 -19.35 24.55 -19.6 L24.55 -19.8 24.5 -19.95 24.5 -20.0 24.4 -20.2 24.35 -20.25 24.3 -20.4 24.05 -20.7 Q23.45 -21.4 22.55 -21.25 L22.35 -21.25 21.35 -21.35 21.25 -21.45 21.3 -21.35 21.15 -21.35 Q20.7 -21.65 20.2 -22.45 M12.8 -22.5 L12.8 -21.2 12.75 -21.1 Q12.8 -20.45 12.75 -20.05 L12.75 -19.85 12.9 -19.85 13.1 -19.8 Q13.3 -19.8 13.4 -19.85 L13.5 -19.85 13.5 -20.0 Q13.6 -20.1 13.6 -20.25 13.6 -20.8 13.45 -21.45 13.35 -22.0 13.2 -22.2 13.05 -22.45 12.85 -22.5 L12.8 -22.5 M12.05 -21.65 L12.45 -21.65 12.6 -21.6 12.6 -21.9 12.45 -21.85 12.35 -21.9 Q12.3 -21.8 12.2 -21.75 L12.05 -21.65 M16.9 -22.2 L17.35 -22.5 17.05 -22.5 16.7 -22.45 Q16.7 -22.25 16.85 -22.2 L16.9 -22.25 16.9 -22.2 M16.8 -20.8 Q16.7 -20.7 16.5 -20.7 L15.75 -20.75 15.4 -21.1 15.7 -21.0 Q15.9 -20.9 16.5 -20.95 L16.65 -20.9 16.8 -20.8 M12.0 -16.3 L11.95 -16.35 12.1 -16.25 12.0 -16.3 M15.75 -16.2 L14.5 -15.95 11.9 -16.0 11.25 -15.95 11.4 -15.75 Q12.05 -15.2 12.95 -15.2 14.05 -15.15 15.15 -15.75 15.3 -15.85 15.7 -16.1 L15.75 -16.2 M11.3 -11.85 L11.35 -11.85 Q11.55 -11.55 12.0 -11.2 12.55 -10.75 13.0 -10.7 L13.0 -10.65 12.9 -10.65 12.45 -10.8 Q11.8 -11.1 11.25 -11.85 L11.3 -11.85 M18.75 -19.35 L18.75 -19.35 M19.85 -17.4 L19.9 -17.5 19.85 -17.5 19.85 -17.4 M6.95 -19.2 L7.3 -19.65 7.7 -20.05 7.95 -20.1 8.95 -20.15 Q9.2 -20.15 9.4 -20.25 L9.55 -22.0 9.4 -21.75 Q9.1 -21.25 8.75 -21.0 L8.6 -20.9 Q8.35 -20.75 8.05 -20.6 L7.6 -20.5 Q6.9 -20.45 6.6 -20.1 L6.5 -19.9 6.45 -19.8 6.4 -19.75 6.35 -19.65 Q6.3 -19.4 6.3 -19.1 L6.3 -19.0 Q6.3 -18.8 6.35 -18.6 6.45 -18.25 6.7 -18.25 L6.7 -18.2 6.65 -18.1 6.65 -18.0 6.55 -17.9 6.45 -17.7 Q6.25 -17.2 6.25 -16.95 L6.5 -16.3 Q6.9 -15.7 7.4 -15.65 7.55 -15.35 7.7 -14.7 7.8 -14.55 7.9 -14.45 8.0 -14.25 8.15 -14.2 8.4 -14.05 8.8 -14.05 L9.0 -14.05 Q9.0 -14.7 9.1 -15.4 L9.0 -15.4 Q8.8 -15.6 8.4 -15.85 7.7 -16.25 7.6 -16.35 L7.2 -16.95 7.1 -17.1 7.0 -17.3 6.9 -17.65 6.85 -17.85 Q6.8 -18.0 6.8 -18.15 L6.8 -18.2 Q6.8 -18.65 6.85 -18.95 L6.8 -19.0 6.9 -19.1 6.95 -19.2 M11.2 -22.05 L11.2 -22.15 10.75 -22.15 Q10.8 -22.0 10.95 -21.9 11.1 -21.8 11.35 -21.75 L11.25 -21.85 Q11.2 -21.95 11.2 -22.05 M10.75 -20.3 Q10.85 -20.4 11.35 -20.65 11.8 -20.85 11.95 -20.85 11.9 -20.7 11.45 -20.45 11.05 -20.2 11.0 -20.2 L10.8 -20.2 10.75 -20.3 M9.1 -17.2 L9.1 -17.3 9.2 -18.25 8.9 -18.6 8.75 -18.75 8.2 -19.35 8.05 -19.45 Q8.4 -19.45 8.95 -18.95 L9.15 -18.8 9.25 -18.7 9.25 -18.75 9.35 -19.7 8.1 -19.7 7.85 -19.6 7.75 -19.5 7.5 -19.25 Q7.15 -18.9 7.15 -18.65 L7.15 -18.55 7.2 -18.1 Q7.25 -17.75 7.4 -17.5 L7.5 -17.35 Q7.65 -17.1 7.9 -16.75 L8.2 -16.5 Q8.5 -16.3 9.05 -15.95 L9.1 -15.95 9.1 -17.2" fill="#111111" fill-rule="evenodd" stroke="none"/>
    <path d="M15.2 -21.8 L15.15 -21.85 15.5 -22.05 15.5 -22.0 Q15.45 -21.9 15.5 -21.8 L15.55 -21.7 15.35 -21.7 15.3 -21.7 15.3 -21.65 15.25 -21.7 Q15.2 -21.7 15.2 -21.8 M12.05 -21.65 L12.2 -21.75 Q12.3 -21.8 12.35 -21.9 L12.45 -21.85 12.6 -21.9 12.6 -21.6 12.45 -21.65 12.05 -21.65 M16.9 -22.2 L16.9 -22.25 16.85 -22.2 Q16.7 -22.25 16.7 -22.45 L17.05 -22.5 17.35 -22.5 16.9 -22.2 M15.75 -16.2 L15.7 -16.1 Q15.3 -15.85 15.15 -15.75 14.05 -15.15 12.95 -15.2 12.05 -15.2 11.4 -15.75 L11.25 -15.95 11.9 -16.0 14.5 -15.95 15.75 -16.2 M11.2 -22.05 Q11.2 -21.95 11.25 -21.85 L11.35 -21.75 Q11.1 -21.8 10.95 -21.9 10.8 -22.0 10.75 -22.15 L11.2 -22.15 11.2 -22.05" fill="#ffffff" fill-rule="evenodd" stroke="none"/>
    <path d="M15.35 -21.7 L15.55 -21.7 15.35 -21.7" fill="#f1cf8f" fill-rule="evenodd" stroke="none"/>
    <path d="M17.6 -27.45 Q17.5 -27.05 16.9 -26.95 L16.7 -26.9 15.8 -27.05 15.7 -27.05 15.35 -27.0 15.2 -27.05 Q14.3 -27.25 14.3 -25.95 14.3 -25.85 14.3 -25.8 14.3 -25.5 14.3 -24.75 14.3 -24.55 14.35 -23.95 14.45 -23.35 14.5 -23.25 L14.55 -23.15 Q14.75 -23.35 14.9 -23.6 L15.15 -24.05 Q15.45 -24.5 16.1 -24.45 16.55 -24.45 16.85 -24.25 16.9 -23.95 17.3 -23.2 L17.5 -22.8 Q16.55 -22.95 15.75 -22.55 15.0 -22.2 15.0 -21.95 L15.0 -21.8 15.05 -21.8 15.15 -21.85 15.2 -21.8 Q14.9 -21.75 14.9 -21.3 14.9 -21.05 15.4 -20.8 15.9 -20.55 16.4 -20.5 L17.5 -20.6 17.5 -20.75 Q17.1 -20.8 16.6 -21.15 L15.9 -21.55 Q16.4 -21.6 16.9 -21.75 17.55 -21.95 17.85 -22.25 18.0 -22.3 18.0 -22.35 L18.05 -22.5 18.05 -22.65 18.1 -22.75 18.25 -22.3 18.55 -21.1 18.5 -21.1 Q18.5 -21.25 18.5 -21.0 18.5 -20.8 18.6 -20.1 L18.65 -19.8 Q18.05 -18.7 17.65 -18.2 17.0 -17.25 16.35 -16.8 15.65 -16.35 14.65 -16.2 L12.0 -16.05 Q11.05 -16.1 10.25 -16.95 L9.7 -17.7 9.7 -17.5 9.95 -17.15 9.85 -17.15 Q9.9 -15.6 9.95 -14.85 L10.05 -14.2 10.1 -14.05 10.1 -14.0 Q10.25 -13.3 10.55 -12.8 L10.55 -12.85 Q10.2 -13.75 10.15 -15.05 L10.05 -17.0 10.1 -16.95 10.6 -16.4 10.6 -16.35 10.75 -16.25 10.85 -16.15 10.85 -16.1 Q11.15 -15.65 11.35 -15.45 11.95 -15.0 12.95 -14.95 14.2 -14.95 15.25 -15.55 L15.95 -16.0 16.35 -16.25 16.45 -16.45 16.4 -16.45 16.8 -16.75 16.7 -16.75 Q17.75 -17.5 18.5 -18.85 L18.45 -18.65 Q18.25 -18.55 17.8 -17.5 17.1 -15.85 16.75 -15.2 L16.25 -14.3 16.4 -14.5 Q16.05 -13.9 15.45 -13.25 14.35 -11.95 13.1 -11.95 11.6 -11.95 11.0 -12.5 10.8 -12.7 10.7 -12.85 L10.7 -12.9 Q10.7 -12.85 10.7 -12.8 10.7 -12.75 10.9 -12.4 11.1 -12.15 11.3 -11.85 L11.25 -11.85 Q11.8 -11.1 12.45 -10.8 12.9 -10.55 13.35 -10.55 13.75 -10.55 14.2 -10.7 L14.2 -10.75 Q14.2 -10.6 14.25 -10.6 14.3 -10.6 14.35 -10.65 L14.95 -11.05 Q15.9 -11.55 16.7 -12.9 L17.2 -13.7 17.25 -13.9 Q17.65 -14.5 18.25 -16.25 L18.65 -17.45 Q18.7 -16.95 18.7 -16.25 L18.65 -14.9 Q18.2 -13.2 17.5 -12.2 L17.0 -11.4 Q14.95 -8.95 12.85 -9.0 11.4 -9.05 10.6 -10.25 10.0 -11.1 9.65 -12.85 L9.5 -13.8 9.5 -14.1 9.45 -14.15 9.4 -14.65 9.4 -16.1 9.45 -16.45 9.5 -17.15 9.5 -17.4 9.75 -18.95 Q10.05 -20.6 10.05 -21.3 L10.0 -22.1 Q10.1 -22.15 10.3 -22.35 L10.3 -22.3 Q10.3 -22.25 10.4 -22.1 L10.45 -21.95 Q10.5 -21.8 10.6 -21.7 10.85 -21.55 11.65 -21.45 10.8 -20.4 10.45 -20.1 10.5 -20.0 10.7 -19.95 10.95 -20.1 12.05 -20.55 12.45 -20.75 12.6 -21.05 L12.6 -20.85 12.55 -20.65 Q12.5 -20.2 12.5 -20.1 L12.45 -20.0 Q12.45 -19.9 12.5 -19.8 L12.6 -19.65 12.6 -19.55 Q12.6 -19.45 12.75 -19.25 12.95 -18.95 13.2 -18.95 13.45 -18.95 13.55 -19.1 13.65 -19.25 13.65 -19.45 L13.65 -19.5 Q13.75 -19.5 13.85 -19.65 L13.9 -19.8 13.85 -20.15 13.8 -20.4 13.75 -20.7 13.6 -21.55 13.5 -21.9 Q13.25 -22.7 12.8 -22.6 L12.8 -24.25 12.85 -24.3 12.85 -25.2 12.65 -25.65 12.2 -26.5 Q12.0 -26.95 10.85 -26.8 L10.4 -26.7 Q10.6 -27.05 10.85 -27.3 12.15 -28.65 14.75 -28.6 16.6 -28.55 17.6 -27.45 M15.35 -26.5 L15.2 -26.55 15.25 -26.55 15.35 -26.5 M17.4 -24.0 L17.45 -23.95 17.4 -24.0 M12.65 -24.05 L12.6 -24.0 12.55 -23.85 12.55 -23.6 12.6 -22.65 12.6 -22.15 Q12.2 -22.4 11.9 -22.55 11.4 -22.75 10.95 -22.6 L11.0 -22.85 11.1 -23.15 11.2 -23.55 11.2 -23.6 11.25 -23.6 11.25 -23.65 Q11.45 -23.85 11.8 -24.0 12.15 -24.2 12.4 -24.2 12.6 -24.2 12.65 -24.05 M15.1 -18.55 L14.5 -18.85 Q13.75 -19.2 13.75 -18.75 L13.7 -18.55 13.95 -18.3 Q14.45 -17.85 15.4 -17.7 L15.45 -17.65 16.25 -17.75 Q16.45 -17.8 16.5 -17.95 L16.2 -18.15 15.95 -18.25 15.75 -18.25 15.1 -18.55 M12.15 -18.0 Q12.7 -18.4 12.7 -18.6 12.7 -19.25 11.75 -18.7 10.8 -18.2 10.65 -17.9 10.9 -17.6 11.1 -17.6 11.55 -17.6 12.15 -18.0 M12.0 -16.3 L12.1 -16.25 11.95 -16.35 12.0 -16.3 M20.5 -19.55 Q20.8 -19.6 21.0 -19.7 21.25 -19.85 21.6 -19.8 L22.25 -19.8 22.55 -19.45 Q22.25 -19.5 21.75 -19.3 L21.95 -19.5 Q21.4 -19.45 20.55 -18.7 19.95 -18.15 19.8 -17.9 L19.8 -17.85 19.75 -18.1 Q20.05 -18.8 20.5 -19.55 M22.2 -16.85 Q21.95 -16.5 21.7 -16.4 21.05 -15.95 20.2 -15.65 L20.2 -15.8 20.15 -16.15 20.05 -16.6 Q20.75 -17.15 21.65 -17.15 21.8 -17.15 22.2 -16.85 M8.2 -19.35 L7.75 -19.5 7.85 -19.6 8.1 -19.7 9.35 -19.7 9.25 -18.75 9.15 -18.8 8.95 -18.95 Q8.4 -19.45 8.05 -19.45 L8.2 -19.35 M7.5 -17.35 L7.6 -17.15 7.7 -17.2 8.75 -17.3 Q8.9 -17.3 9.1 -17.2 L9.1 -15.95 9.05 -15.95 Q8.5 -16.3 8.2 -16.5 L7.9 -16.75 Q7.65 -17.1 7.5 -17.35" fill="#f7c98a" fill-rule="evenodd" stroke="none"/>
    <path d="M20.05 -20.05 Q19.85 -20.45 19.85 -20.85 19.85 -21.65 20.25 -22.4 L20.2 -22.45 Q20.7 -21.65 21.15 -21.35 L21.3 -21.35 21.25 -21.45 21.35 -21.35 22.35 -21.25 22.55 -21.25 Q23.45 -21.4 24.05 -20.7 L24.3 -20.4 24.25 -20.45 Q24.25 -20.1 24.05 -19.8 23.8 -19.4 23.2 -19.15 L23.2 -19.25 Q22.8 -20.15 22.4 -20.2 L20.9 -20.1 Q20.7 -19.95 20.6 -19.95 L20.05 -20.05 M23.9 -17.65 L23.95 -17.55 Q24.15 -16.95 24.15 -16.8 24.15 -16.4 23.95 -16.05 L23.9 -16.05 Q23.35 -16.05 23.0 -16.35 22.75 -16.65 22.75 -16.95 L22.9 -17.25 Q23.0 -17.3 23.15 -17.35 L23.9 -17.65 M15.1 -18.55 L15.75 -18.25 15.95 -18.25 16.2 -18.15 16.5 -17.95 Q16.45 -17.8 16.25 -17.75 L15.45 -17.65 15.4 -17.7 Q14.45 -17.85 13.95 -18.3 L13.7 -18.55 13.75 -18.75 Q13.75 -19.2 14.5 -18.85 L15.1 -18.55 M12.15 -18.0 Q11.55 -17.6 11.1 -17.6 10.9 -17.6 10.65 -17.9 10.8 -18.2 11.75 -18.7 12.7 -19.25 12.7 -18.6 12.7 -18.4 12.15 -18.0 M6.5 -19.9 L6.6 -20.1 Q6.9 -20.45 7.6 -20.5 L8.05 -20.6 Q8.35 -20.75 8.6 -20.9 L8.75 -21.0 Q9.1 -21.25 9.4 -21.75 L9.55 -22.0 9.4 -20.25 Q9.2 -20.15 8.95 -20.15 L7.95 -20.1 7.7 -20.05 7.3 -19.65 6.95 -19.2 6.9 -19.3 Q6.65 -19.55 6.55 -20.05 L6.5 -19.9 M6.9 -17.65 L7.0 -17.3 7.1 -17.1 7.2 -16.95 Q6.95 -16.8 6.65 -16.8 6.5 -16.8 6.25 -16.95 6.25 -17.2 6.45 -17.7 L6.55 -17.9 6.55 -17.8 Q6.7 -17.7 6.9 -17.65" fill="#605c37" fill-rule="evenodd" stroke="none"/>
    <path d="M17.6 -27.45 Q17.9 -27.15 18.1 -26.8 18.3 -26.4 18.5 -25.85 18.55 -24.95 18.95 -21.75 19.1 -21.4 19.2 -20.7 L19.2 -20.25 19.25 -19.85 19.6 -18.5 19.65 -18.25 Q19.8 -17.4 19.8 -15.9 L19.7 -15.35 19.75 -15.15 Q19.75 -12.95 17.85 -10.95 16.25 -9.25 12.45 -6.85 L12.35 -6.95 12.4 -7.0 Q11.15 -8.25 10.4 -9.75 10.05 -10.7 9.8 -11.9 9.55 -12.85 9.45 -13.8 L9.5 -13.8 9.65 -12.85 Q10.0 -11.1 10.6 -10.25 11.4 -9.05 12.85 -9.0 14.95 -8.95 17.0 -11.4 L17.5 -12.2 Q18.2 -13.2 18.65 -14.9 L18.7 -16.25 Q18.7 -16.95 18.65 -17.45 L18.75 -17.8 Q18.9 -18.6 18.95 -19.4 L18.95 -19.8 18.9 -20.4 18.65 -21.1 18.55 -21.1 18.25 -22.3 18.1 -22.75 18.05 -22.65 Q18.05 -23.0 17.75 -23.5 L17.7 -23.6 17.45 -23.9 17.45 -23.95 17.4 -24.0 Q17.15 -24.3 16.85 -24.4 16.85 -24.5 16.85 -24.3 L16.85 -24.25 Q16.55 -24.45 16.1 -24.45 15.45 -24.5 15.15 -24.05 L14.9 -23.6 Q14.75 -23.35 14.55 -23.15 L14.5 -23.25 14.55 -23.25 14.55 -23.4 Q14.4 -23.95 14.4 -24.75 L14.4 -24.8 Q14.4 -25.1 14.45 -25.35 L14.4 -25.6 Q14.4 -25.9 14.6 -26.1 L14.6 -26.15 Q14.8 -26.45 15.2 -26.55 L15.35 -26.5 Q15.8 -26.35 16.45 -25.95 L17.3 -25.3 Q17.35 -25.3 17.55 -25.6 L17.65 -25.8 17.7 -25.75 Q17.85 -25.85 17.95 -26.0 L18.0 -26.1 18.0 -26.15 Q18.0 -26.5 16.75 -26.85 L16.7 -26.9 16.9 -26.95 Q17.5 -27.05 17.6 -27.45 M10.0 -22.1 L10.0 -25.3 Q10.2 -25.65 10.7 -26.15 L10.95 -26.4 Q11.55 -26.6 11.9 -26.6 12.25 -26.55 12.45 -25.7 L12.6 -25.05 12.55 -25.05 12.55 -25.0 Q12.65 -24.8 12.65 -24.5 L12.65 -24.05 Q12.6 -24.2 12.4 -24.2 12.15 -24.2 11.8 -24.0 11.45 -23.85 11.25 -23.65 L11.3 -23.8 11.35 -23.8 Q11.1 -23.75 10.7 -23.15 10.35 -22.6 10.3 -22.35 10.1 -22.15 10.0 -22.1 M11.65 -21.45 L12.6 -21.45 12.6 -21.05 Q12.45 -20.75 12.05 -20.55 10.95 -20.1 10.7 -19.95 10.5 -20.0 10.45 -20.1 10.8 -20.4 11.65 -21.45 M12.6 -19.65 L12.6 -19.7 12.7 -19.65 13.0 -19.55 13.45 -19.5 13.65 -19.5 13.65 -19.45 Q13.65 -19.25 13.55 -19.1 13.45 -18.95 13.2 -18.95 12.95 -18.95 12.75 -19.25 12.6 -19.45 12.6 -19.55 L12.6 -19.65 M19.75 -18.5 Q19.85 -19.0 19.85 -19.7 20.1 -19.55 20.4 -19.55 L20.5 -19.55 Q20.05 -18.8 19.75 -18.1 L19.75 -18.5 M15.9 -21.55 L16.6 -21.15 Q17.1 -20.8 17.5 -20.75 L17.5 -20.6 16.4 -20.5 Q15.9 -20.55 15.4 -20.8 14.9 -21.05 14.9 -21.3 14.9 -21.75 15.2 -21.8 15.2 -21.7 15.25 -21.7 L15.3 -21.65 15.2 -21.65 Q15.25 -21.55 15.7 -21.55 L15.9 -21.55 M16.8 -20.8 L16.65 -20.9 16.5 -20.95 Q15.9 -20.9 15.7 -21.0 L15.4 -21.1 15.75 -20.75 16.5 -20.7 Q16.7 -20.7 16.8 -20.8 M18.45 -18.65 L18.4 -18.65 18.15 -17.15 18.15 -17.05 Q17.8 -16.55 17.6 -15.6 17.3 -14.3 17.1 -13.95 L17.05 -13.9 17.05 -13.85 Q15.95 -12.0 15.0 -11.2 L14.5 -10.85 14.45 -10.85 14.4 -10.8 14.2 -10.75 14.2 -10.7 Q13.75 -10.55 13.35 -10.55 12.9 -10.55 12.45 -10.8 L12.9 -10.65 13.0 -10.65 13.0 -10.7 Q12.55 -10.75 12.0 -11.2 11.55 -11.55 11.35 -11.85 L11.3 -11.85 Q11.1 -12.15 10.9 -12.4 10.7 -12.75 10.7 -12.8 10.7 -12.85 10.7 -12.9 L10.7 -12.85 Q10.8 -12.7 11.0 -12.5 11.6 -11.95 13.1 -11.95 14.35 -11.95 15.45 -13.25 16.05 -13.9 16.4 -14.5 L16.25 -14.3 16.75 -15.2 Q17.1 -15.85 17.8 -17.5 18.25 -18.55 18.45 -18.65 M14.95 -11.05 L15.65 -11.65 16.65 -12.8 16.7 -12.9 Q15.9 -11.55 14.95 -11.05 M19.8 -17.85 L19.8 -17.9 19.8 -17.85 M21.75 -19.3 Q22.25 -19.5 22.55 -19.45 L22.6 -19.3 22.75 -19.1 22.9 -18.7 Q22.9 -18.1 22.55 -17.6 L22.5 -17.55 22.45 -17.3 22.2 -16.85 Q21.8 -17.15 21.65 -17.15 20.75 -17.15 20.05 -16.6 L19.95 -17.2 19.95 -17.45 Q20.15 -17.6 20.4 -17.95 L20.75 -18.5 Q20.9 -18.65 21.4 -19.05 L21.5 -19.1 21.7 -19.25 21.75 -19.3 M8.2 -19.35 L8.75 -18.75 8.9 -18.6 9.2 -18.25 9.1 -17.3 9.1 -17.2 Q8.9 -17.3 8.75 -17.3 L7.7 -17.2 7.6 -17.15 7.5 -17.35 7.4 -17.5 Q7.25 -17.75 7.2 -18.1 L7.15 -18.55 7.15 -18.65 Q7.15 -18.9 7.5 -19.25 L7.75 -19.5 8.2 -19.35 M10.75 -20.3 L10.8 -20.2 11.0 -20.2 Q11.05 -20.2 11.45 -20.45 11.9 -20.7 11.95 -20.85 11.8 -20.85 11.35 -20.65 10.85 -20.4 10.75 -20.3 M9.25 -18.75 L9.25 -18.7 9.15 -18.8 9.25 -18.75" fill="#ef9552" fill-rule="evenodd" stroke="none"/>
    <path d="M19.75 -18.5 L19.7 -18.45 Q19.6 -18.6 19.5 -19.6 19.45 -20.35 19.45 -20.85 L19.45 -21.05 18.9 -25.1 Q19.0 -25.1 18.95 -25.15 L19.0 -25.2 Q19.3 -24.25 19.8 -23.2 20.0 -22.8 20.2 -22.45 L20.25 -22.4 Q19.85 -21.65 19.85 -20.85 19.85 -20.45 20.05 -20.05 L19.8 -20.15 19.85 -19.7 Q19.85 -19.0 19.75 -18.5 M24.3 -20.4 L24.35 -20.25 24.4 -20.2 24.5 -20.0 24.5 -19.95 24.55 -19.8 24.55 -19.6 Q24.55 -19.35 24.5 -19.05 L24.05 -18.6 Q23.95 -18.65 23.95 -18.5 L23.7 -18.2 23.9 -17.65 23.15 -17.35 Q23.0 -17.3 22.9 -17.25 L23.0 -17.4 Q23.2 -17.85 23.25 -18.3 L23.25 -18.4 Q23.25 -18.65 23.2 -18.85 L23.2 -19.15 Q23.8 -19.4 24.05 -19.8 24.25 -20.1 24.25 -20.45 L24.3 -20.4 M23.95 -16.05 Q23.6 -15.65 23.0 -15.35 L22.55 -15.1 22.15 -15.1 21.75 -15.05 Q21.65 -15.0 21.6 -14.85 L21.3 -14.4 20.9 -13.95 20.45 -13.75 20.35 -13.65 20.3 -13.65 Q20.05 -13.65 19.9 -13.85 L19.9 -14.05 20.0 -14.2 Q20.15 -14.65 20.2 -15.1 L20.25 -15.1 20.25 -15.15 20.3 -15.4 20.3 -15.45 20.65 -15.45 Q21.7 -15.55 22.5 -16.6 L22.75 -16.95 Q22.75 -16.65 23.0 -16.35 23.35 -16.05 23.9 -16.05 L23.95 -16.05 M6.5 -19.9 L6.55 -20.05 Q6.65 -19.55 6.9 -19.3 L6.95 -19.2 6.9 -19.1 6.8 -19.0 6.85 -18.95 Q6.8 -18.65 6.8 -18.2 L6.8 -18.15 Q6.8 -18.0 6.85 -17.85 L6.9 -17.65 Q6.7 -17.7 6.55 -17.8 L6.55 -17.9 6.65 -18.0 6.65 -18.1 6.7 -18.2 6.7 -18.25 Q6.45 -18.25 6.35 -18.6 6.3 -18.8 6.3 -19.0 L6.3 -19.1 Q6.3 -19.4 6.35 -19.65 L6.4 -19.75 6.45 -19.8 6.5 -19.9 M7.2 -16.95 L7.6 -16.35 Q7.7 -16.25 8.4 -15.85 8.8 -15.6 9.0 -15.4 L9.1 -15.4 Q9.0 -14.7 9.0 -14.05 L8.8 -14.05 Q8.4 -14.05 8.15 -14.2 8.0 -14.25 7.9 -14.45 7.8 -14.55 7.7 -14.7 7.55 -15.35 7.4 -15.65 6.9 -15.7 6.5 -16.3 L6.25 -16.95 Q6.5 -16.8 6.65 -16.8 6.95 -16.8 7.2 -16.95" fill="#473825" fill-rule="evenodd" stroke="none"/>
    <path d="M12.8 -22.5 L12.85 -22.5 Q13.05 -22.45 13.2 -22.2 13.35 -22.0 13.45 -21.45 13.6 -20.8 13.6 -20.25 13.6 -20.1 13.5 -20.0 L13.5 -19.85 13.4 -19.85 Q13.3 -19.8 13.1 -19.8 L12.9 -19.85 12.75 -19.85 12.75 -20.05 Q12.8 -20.45 12.75 -21.1 L12.8 -21.2 12.8 -22.5" fill="#fa9a7a" fill-rule="evenodd" stroke="none"/>
  </g>
</svg>
