<?xml version="1.0" encoding="UTF-8" standalone="no"?>
<svg xmlns:ffdec="https://www.free-decompiler.com/flash" xmlns:xlink="http://www.w3.org/1999/xlink" ffdec:objectType="shape" height="26.35px" width="31.75px" xmlns="http://www.w3.org/2000/svg">
  <g transform="matrix(1.0, 0.0, 0.0, 1.0, -1.15, 32.6)">
    <path d="M21.95 -31.2 Q21.3 -31.8 20.3 -31.8 18.9 -31.8 17.85 -31.35 16.85 -30.8 15.8 -29.6 L15.55 -29.2 15.2 -28.5 Q14.6 -27.65 13.7 -26.7 L13.3 -26.25 12.6 -25.7 Q12.05 -25.3 11.6 -25.0 10.95 -24.65 9.95 -24.25 L9.55 -24.1 11.2 -24.35 11.4 -24.4 11.4 -24.45 11.9 -24.45 12.35 -24.5 13.35 -24.4 13.85 -24.4 Q16.1 -23.9 19.05 -22.45 L19.35 -22.3 19.5 -22.2 21.75 -21.0 22.45 -20.6 23.1 -20.2 24.05 -19.6 24.1 -19.65 24.15 -19.55 24.8 -19.15 Q25.95 -18.45 26.7 -17.95 26.4 -18.3 26.05 -18.65 25.0 -19.65 24.9 -19.9 L24.4 -20.9 Q24.05 -21.6 23.9 -21.95 23.7 -22.7 23.5 -23.95 23.4 -24.7 23.2 -27.0 23.05 -28.7 22.85 -29.55 L22.8 -29.75 22.45 -30.5 22.3 -30.8 21.95 -31.2 M21.15 -32.5 Q22.3 -32.15 23.0 -30.8 23.65 -29.6 23.65 -28.15 23.65 -24.0 25.1 -21.25 26.2 -19.15 28.25 -17.7 29.45 -16.9 31.45 -15.9 32.9 -15.05 32.9 -14.1 32.9 -13.55 31.5 -13.0 29.75 -12.2 26.8 -12.2 L26.6 -12.25 26.7 -12.1 27.0 -11.7 27.65 -11.15 28.1 -10.8 28.1 -10.75 28.4 -10.45 28.8 -10.15 28.65 -10.05 Q28.45 -9.95 28.2 -9.85 27.45 -9.6 26.5 -9.6 L25.45 -9.85 Q25.05 -9.95 24.8 -10.05 L24.6 -8.75 24.5 -7.85 Q24.6 -7.5 24.7 -7.25 L24.75 -7.2 24.75 -7.15 24.8 -7.0 24.75 -6.95 Q24.65 -6.9 24.5 -6.9 23.85 -6.9 23.25 -7.65 22.85 -8.0 22.5 -8.6 22.15 -9.1 21.9 -9.65 L21.9 -9.65 Q21.4 -9.25 20.7 -8.9 18.7 -7.9 16.0 -7.9 13.6 -7.9 12.05 -8.7 11.25 -9.15 10.8 -9.7 10.55 -9.25 9.95 -8.65 L9.25 -7.9 9.1 -7.55 Q8.9 -6.9 8.9 -6.3 8.85 -6.25 8.7 -6.25 8.2 -6.25 7.9 -8.15 7.85 -8.6 7.8 -9.0 7.7 -9.5 7.65 -9.85 L6.7 -9.5 Q6.75 -9.4 6.75 -9.2 6.75 -9.05 6.6 -8.8 6.4 -8.5 6.2 -8.5 6.05 -8.5 5.95 -8.7 5.9 -8.8 5.9 -8.9 5.9 -9.05 5.95 -9.15 L5.35 -8.95 5.4 -8.8 Q5.4 -8.35 4.55 -7.8 L4.3 -8.05 Q4.3 -8.35 4.4 -8.55 L4.15 -8.5 4.0 -8.4 4.0 -8.35 Q4.0 -8.2 3.6 -7.85 3.25 -7.5 3.2 -7.5 3.0 -7.5 2.95 -7.65 L2.95 -8.05 Q2.5 -7.85 2.4 -7.85 L2.2 -7.9 2.1 -7.95 Q2.4 -8.2 2.8 -8.45 L2.55 -8.6 Q2.15 -8.75 2.1 -8.8 2.15 -9.25 2.85 -9.2 3.5 -9.2 3.55 -8.9 L3.9 -9.0 Q3.7 -9.05 3.55 -9.15 3.3 -9.35 3.3 -9.5 3.3 -10.05 4.1 -9.95 4.4 -9.9 4.65 -9.75 4.85 -9.6 4.85 -9.4 L5.3 -9.55 5.05 -9.75 Q4.85 -9.95 4.85 -10.1 4.85 -10.5 5.5 -10.35 6.15 -10.2 6.15 -9.85 L7.6 -10.2 7.6 -10.35 Q7.6 -10.7 7.75 -11.35 L7.75 -11.6 7.8 -11.75 Q7.9 -12.2 8.05 -12.5 L7.55 -12.3 Q7.45 -12.3 7.4 -12.35 7.1 -12.2 7.0 -12.2 L6.35 -12.25 5.5 -12.35 5.5 -12.4 5.2 -12.45 5.2 -12.4 Q5.15 -12.4 5.15 -12.6 L5.5 -12.8 Q5.9 -13.35 6.35 -13.8 L6.6 -14.05 6.55 -14.1 6.55 -14.15 Q4.0 -14.3 2.4 -16.35 1.8 -17.15 1.45 -18.1 1.15 -18.9 1.15 -19.5 1.15 -20.85 2.65 -21.85 3.65 -22.55 6.1 -23.45 9.15 -24.55 10.2 -25.05 12.45 -26.1 13.5 -27.5 15.9 -30.65 17.95 -31.85 19.75 -32.9 21.15 -32.5 M21.1 -13.85 Q21.05 -13.55 21.0 -13.4 L21.05 -13.2 20.9 -13.1 Q20.7 -13.5 20.45 -14.05 20.25 -14.55 20.1 -15.2 L19.9 -15.75 19.75 -15.85 19.5 -16.0 Q19.4 -16.25 19.4 -16.35 L19.45 -16.4 19.85 -16.0 Q19.7 -16.8 19.7 -17.4 19.7 -17.65 19.5 -18.6 19.3 -19.1 19.15 -19.65 L18.55 -19.75 17.4 -19.95 17.2 -19.9 Q16.85 -19.75 16.7 -19.75 16.2 -19.75 16.0 -19.85 L15.95 -20.05 Q16.1 -20.15 16.25 -20.2 16.4 -20.45 16.6 -20.5 L17.35 -20.6 Q17.95 -20.6 18.65 -20.35 L19.05 -20.2 Q18.85 -21.05 18.8 -21.9 L18.7 -22.2 18.25 -22.35 18.2 -22.3 18.35 -22.3 18.2 -22.25 Q17.85 -21.8 16.6 -20.85 L15.75 -20.25 Q15.35 -19.7 14.35 -19.0 L14.2 -18.85 14.2 -18.35 Q14.1 -18.1 14.1 -17.8 L14.1 -17.75 14.05 -17.65 14.0 -17.05 13.95 -16.7 13.9 -16.25 13.9 -15.4 13.9 -15.25 Q13.9 -15.05 13.75 -14.6 L13.8 -14.65 14.15 -14.7 Q14.4 -14.7 14.9 -13.9 15.4 -13.1 15.45 -12.7 L15.25 -12.75 15.2 -12.75 15.25 -12.85 Q15.25 -13.05 15.1 -13.35 L14.75 -13.8 Q14.25 -14.45 14.25 -14.5 L14.0 -14.35 Q13.75 -14.55 13.55 -14.05 13.3 -13.6 13.3 -13.1 L13.1 -12.8 13.1 -12.6 13.35 -12.6 14.05 -12.7 14.25 -12.75 14.85 -12.8 15.0 -12.75 14.75 -12.7 14.7 -12.65 14.45 -12.6 Q14.0 -12.4 13.4 -12.35 L12.7 -12.35 12.65 -12.4 12.6 -12.5 Q12.85 -12.9 13.2 -14.65 L12.6 -14.75 12.2 -14.85 12.1 -14.9 Q12.1 -14.95 12.15 -14.95 L12.2 -14.95 12.15 -15.0 12.15 -15.1 Q12.3 -15.1 12.55 -14.95 L12.6 -14.9 13.25 -14.9 13.3 -15.05 13.35 -15.35 13.35 -15.45 13.4 -15.6 13.15 -15.9 Q12.75 -16.35 12.55 -16.35 12.2 -16.35 11.7 -16.15 L11.35 -16.0 Q10.9 -16.05 10.9 -16.45 L10.9 -16.6 10.95 -16.65 11.05 -16.65 11.25 -16.45 11.4 -16.2 11.45 -16.4 11.75 -16.45 Q12.1 -16.6 12.3 -16.75 12.75 -16.55 13.15 -16.25 L13.45 -16.0 Q13.8 -17.7 13.8 -18.2 L13.8 -18.25 Q13.8 -18.35 13.85 -18.45 L13.85 -18.65 13.65 -18.5 12.9 -18.1 12.85 -18.1 12.7 -18.05 12.7 -18.0 Q12.25 -17.75 11.8 -17.55 L11.7 -17.6 11.7 -17.55 11.6 -17.65 11.65 -17.7 11.65 -17.75 11.95 -18.1 12.05 -18.25 Q12.25 -19.05 13.05 -20.05 L13.2 -20.25 13.1 -20.25 13.2 -20.3 12.8 -20.2 12.65 -20.2 Q11.75 -20.0 11.5 -19.75 11.25 -19.5 11.05 -19.1 L10.75 -18.5 10.65 -18.45 10.6 -18.4 10.15 -17.4 10.05 -17.1 10.05 -17.05 10.0 -17.05 10.0 -16.95 9.9 -16.75 9.9 -16.65 9.8 -16.4 9.8 -16.35 9.75 -16.25 9.75 -16.05 9.7 -16.0 9.7 -15.85 9.6 -15.3 9.55 -15.25 9.55 -14.9 9.5 -14.85 9.5 -14.25 Q9.5 -14.0 9.55 -13.65 9.6 -13.3 9.7 -12.85 L9.95 -11.7 9.95 -11.65 Q10.25 -11.15 10.6 -10.75 L11.6 -10.85 11.2 -11.5 Q10.85 -12.15 10.5 -12.9 10.35 -13.3 10.25 -13.55 10.25 -13.9 10.5 -13.8 L10.65 -13.55 Q11.0 -13.15 11.3 -12.9 11.65 -12.55 12.35 -12.05 13.75 -11.1 15.0 -11.1 16.5 -11.1 18.4 -11.6 20.3 -12.05 20.55 -12.05 L20.7 -12.05 20.85 -12.15 21.2 -11.85 20.85 -11.5 Q20.25 -11.05 19.35 -10.6 16.9 -9.45 13.55 -9.45 12.95 -9.45 12.35 -10.0 L12.05 -10.3 11.75 -10.65 11.7 -10.65 10.75 -10.6 10.95 -10.4 10.95 -10.35 Q11.35 -10.0 11.8 -9.7 L11.85 -9.65 12.25 -9.4 Q12.75 -9.15 13.35 -8.95 L13.4 -8.95 Q14.45 -8.6 15.75 -8.55 L16.15 -8.55 Q18.75 -8.55 20.45 -9.5 L20.75 -9.65 Q21.25 -9.95 21.3 -10.15 21.6 -10.6 21.85 -10.85 L21.8 -11.0 Q21.4 -12.35 21.15 -13.75 L21.15 -13.8 21.1 -13.95 21.1 -13.85 M18.75 -22.15 L18.8 -22.1 18.8 -22.15 18.75 -22.15 M15.0 -20.05 L15.15 -20.2 16.05 -20.9 17.45 -22.25 17.8 -22.55 17.75 -22.6 17.35 -22.75 Q16.9 -23.0 16.3 -23.25 L16.15 -23.3 Q14.45 -23.95 13.0 -24.15 L11.65 -24.2 Q10.1 -23.4 8.95 -21.75 8.2 -20.75 7.8 -19.6 L7.7 -19.2 Q7.45 -18.4 7.45 -17.8 7.45 -17.35 7.65 -16.6 L7.95 -15.65 8.0 -15.45 8.0 -15.35 8.05 -15.35 8.2 -16.3 Q8.3 -16.85 8.3 -17.0 8.3 -17.15 8.5 -17.65 L8.55 -17.7 8.45 -18.25 Q8.45 -18.75 8.75 -19.55 L9.0 -20.15 Q9.25 -20.7 9.6 -21.25 10.5 -22.65 11.55 -23.1 11.15 -22.8 10.75 -22.45 9.9 -21.5 9.35 -20.35 L9.3 -20.2 Q8.8 -19.1 8.8 -18.25 L8.85 -17.55 Q8.9 -17.05 8.95 -16.7 L9.05 -16.7 Q8.95 -17.1 9.05 -17.55 9.1 -17.85 9.25 -18.2 9.25 -18.95 10.5 -20.2 10.95 -20.6 11.3 -20.9 L11.4 -20.95 Q11.75 -21.15 12.15 -21.35 L12.45 -21.4 12.45 -21.45 13.1 -21.7 15.15 -22.45 15.85 -22.65 14.6 -21.1 14.25 -20.65 14.2 -20.55 13.55 -19.8 12.6 -18.75 12.6 -18.6 12.5 -18.45 12.45 -18.35 Q13.0 -18.6 14.2 -19.4 L15.0 -20.05 M26.2 -10.25 L26.35 -10.2 26.75 -10.15 27.35 -10.15 27.8 -10.25 27.85 -10.25 27.8 -10.3 27.65 -10.35 27.7 -10.35 Q27.25 -10.6 26.9 -11.1 26.45 -11.6 26.3 -11.95 25.6 -12.95 25.2 -14.15 L24.65 -16.05 24.35 -16.95 24.3 -17.6 24.4 -17.65 24.9 -15.8 Q25.1 -14.9 25.35 -14.25 L26.05 -14.0 Q26.75 -13.7 27.15 -13.7 27.4 -13.7 27.9 -13.85 27.05 -14.35 25.8 -16.2 24.5 -18.1 24.5 -18.75 L24.55 -18.95 23.85 -19.35 19.95 -21.45 Q19.7 -21.65 19.3 -21.9 L19.4 -21.7 19.25 -21.7 Q19.2 -21.6 19.2 -21.3 19.2 -21.05 19.6 -19.5 19.85 -18.15 20.1 -17.45 L20.2 -17.2 20.45 -15.7 Q20.55 -15.0 20.7 -14.35 L20.7 -14.4 20.75 -16.45 20.8 -17.25 Q20.8 -18.75 20.75 -19.6 L20.85 -19.6 21.05 -17.1 21.1 -15.95 21.2 -15.95 Q21.5 -13.65 21.85 -12.3 21.9 -11.7 22.05 -11.2 22.6 -9.05 23.9 -7.85 L24.1 -7.7 24.1 -8.1 23.9 -8.75 23.8 -9.1 Q23.7 -9.55 23.6 -10.05 L23.45 -14.7 23.45 -15.5 Q23.35 -16.5 23.1 -17.35 L23.05 -17.6 Q23.45 -16.5 23.65 -15.15 L23.65 -15.0 Q23.8 -14.15 23.85 -12.35 23.95 -10.7 24.15 -9.45 L24.25 -9.85 24.35 -10.5 24.4 -10.35 24.45 -10.4 24.45 -13.05 Q24.35 -13.4 24.35 -14.0 L24.35 -14.3 24.4 -14.2 24.4 -14.05 24.45 -13.9 24.5 -13.55 Q24.8 -11.7 24.8 -11.15 L24.75 -10.8 Q25.1 -10.55 25.5 -10.4 25.85 -10.3 26.2 -10.25 M13.85 -21.5 L13.85 -21.45 Q13.6 -21.45 13.35 -21.3 L12.05 -20.85 11.95 -20.8 11.3 -20.4 11.3 -20.3 Q11.3 -20.2 11.1 -19.8 11.35 -20.1 11.65 -20.35 12.8 -21.3 13.55 -20.65 L14.1 -21.2 14.15 -21.3 14.6 -21.75 13.95 -21.55 13.85 -21.5 M13.15 -17.25 L12.9 -17.25 Q12.5 -17.25 12.2 -17.15 L11.7 -17.15 11.55 -17.1 Q11.55 -17.3 12.05 -17.45 12.6 -17.7 13.2 -17.4 L13.25 -17.35 13.15 -17.25 M16.6 -15.95 Q16.95 -16.6 17.7 -16.95 18.65 -17.35 19.2 -16.55 19.05 -16.55 18.7 -16.65 18.35 -16.8 18.1 -16.8 17.55 -16.8 17.15 -16.4 L16.65 -15.95 16.6 -15.95 M16.65 -14.75 L17.5 -14.7 18.7 -14.55 18.85 -14.45 Q18.65 -14.35 18.45 -14.35 L16.65 -14.6 16.65 -14.75 M16.35 -15.2 L16.35 -15.25 16.4 -15.35 Q16.6 -15.5 17.05 -15.65 17.65 -15.85 18.35 -15.95 L18.5 -15.95 Q18.8 -15.65 19.35 -15.25 L19.5 -15.4 Q19.6 -15.5 19.75 -15.5 19.8 -15.45 19.85 -15.45 L19.9 -15.25 Q19.9 -15.05 19.75 -15.0 L19.5 -14.95 Q19.35 -15.0 19.3 -15.1 L19.3 -15.15 19.05 -15.25 Q18.3 -15.55 17.85 -15.55 17.6 -15.55 17.05 -15.3 L16.55 -15.1 Q16.4 -15.1 16.35 -15.15 L16.35 -15.2 M10.65 -24.05 Q8.3 -23.7 5.95 -22.7 5.7 -22.6 3.0 -21.3 2.75 -21.1 2.6 -20.95 1.8 -20.1 1.8 -18.8 2.05 -17.65 3.05 -16.6 3.6 -16.05 4.3 -15.6 4.9 -15.4 5.65 -15.15 L6.75 -14.8 6.9 -14.8 7.2 -14.65 7.35 -15.15 Q7.4 -15.35 7.5 -15.5 7.0 -16.9 7.0 -17.75 7.0 -18.65 7.4 -19.75 7.8 -21.0 8.55 -22.1 9.45 -23.35 10.65 -24.05 M8.8 -10.5 L8.85 -10.5 9.45 -10.6 9.6 -10.6 Q9.7 -11.1 9.8 -11.35 9.55 -11.8 9.35 -12.4 L9.25 -13.15 9.15 -13.85 9.25 -13.45 9.2 -14.25 Q9.2 -15.2 9.45 -16.25 9.55 -16.65 9.65 -17.0 L9.75 -17.3 Q10.1 -18.45 10.25 -19.2 10.0 -18.7 9.8 -18.1 L9.35 -16.7 9.4 -16.15 9.4 -15.9 9.3 -15.8 Q9.1 -15.95 8.9 -16.3 L8.75 -16.8 8.4 -15.45 8.45 -15.15 8.5 -14.65 8.55 -14.4 8.55 -14.35 8.6 -14.05 8.6 -13.85 8.5 -13.65 Q8.2 -13.9 7.95 -14.45 L7.85 -14.6 7.8 -14.75 7.75 -14.7 7.55 -14.35 7.5 -14.25 Q7.1 -13.6 6.25 -12.7 L6.05 -12.65 6.1 -12.65 6.6 -12.7 7.05 -12.8 7.5 -13.0 8.55 -13.4 8.55 -13.45 8.65 -13.4 Q8.8 -13.4 8.7 -13.4 8.75 -13.35 8.75 -13.15 L8.45 -12.0 Q8.25 -11.4 8.15 -10.95 8.1 -10.6 8.1 -10.35 L8.75 -10.45 8.75 -10.5 8.8 -10.5 M10.75 -13.05 Q11.35 -11.75 11.65 -11.35 L11.8 -11.15 12.05 -11.1 12.8 -10.9 Q14.5 -10.45 18.0 -10.5 L18.15 -10.5 18.15 -10.45 Q18.85 -10.7 19.5 -11.05 20.15 -11.4 20.65 -11.8 L20.45 -11.85 20.4 -11.85 17.95 -11.35 Q15.75 -10.9 15.0 -10.9 13.45 -10.9 12.05 -11.9 11.2 -12.5 10.9 -13.0 L10.75 -13.05 M9.85 -11.3 L9.9 -11.2 9.8 -10.65 10.2 -10.7 9.95 -11.1 9.85 -11.3 M8.75 -10.2 L8.55 -10.15 8.1 -10.0 8.1 -9.75 8.2 -9.0 8.35 -8.2 8.55 -7.6 8.6 -7.6 Q8.7 -7.7 9.0 -8.2 L9.55 -10.4 9.35 -10.35 9.5 -10.3 9.35 -10.3 8.95 -10.25 8.75 -10.2 M6.4 -9.7 Q6.1 -9.6 6.1 -9.2 6.1 -9.0 6.15 -8.9 6.2 -8.85 6.35 -8.75 6.4 -8.75 6.45 -8.8 L6.55 -8.85 6.55 -9.5 6.4 -9.7 M5.85 -9.5 L5.9 -9.55 Q5.8 -9.75 5.6 -10.0 5.35 -10.25 5.2 -10.3 L5.15 -10.2 Q5.1 -10.15 5.1 -10.0 5.1 -9.85 5.2 -9.7 5.3 -9.45 5.55 -9.45 L5.85 -9.5 M10.3 -10.55 L9.8 -10.45 Q9.6 -9.5 9.4 -8.65 L9.5 -8.65 9.75 -9.05 Q10.25 -9.8 10.6 -10.2 L10.3 -10.55 M3.7 -8.55 L3.7 -8.7 3.6 -8.75 Q3.3 -8.55 3.1 -8.05 3.15 -8.0 3.25 -7.95 L3.35 -7.95 Q3.7 -8.25 3.7 -8.55 M5.2 -8.95 L5.15 -9.15 Q4.85 -9.15 4.65 -8.95 4.55 -8.8 4.55 -8.65 4.55 -8.45 4.6 -8.4 L4.8 -8.25 Q5.0 -8.35 5.1 -8.6 5.2 -8.75 5.2 -8.95 M4.4 -9.0 Q4.8 -9.0 4.85 -9.15 4.7 -9.35 4.45 -9.5 4.1 -9.7 3.8 -9.6 3.8 -9.45 4.0 -9.2 4.25 -9.0 4.4 -9.0 M2.5 -8.65 L2.55 -8.65 2.8 -8.6 Q3.15 -8.6 3.3 -8.8 L3.2 -8.95 Q3.15 -9.0 3.15 -9.05 L2.45 -9.1 2.45 -8.8 Q2.45 -8.65 2.5 -8.65 M18.05 -14.0 L18.05 -14.0 M17.4 -10.3 L16.1 -10.35 14.35 -10.4 12.5 -10.7 12.25 -10.65 Q13.15 -9.85 14.25 -9.85 16.2 -9.85 17.7 -10.3 L17.4 -10.3 M22.0 -10.15 L22.05 -10.2 22.0 -10.25 21.95 -10.2 22.0 -10.15 M25.35 -17.7 Q25.65 -16.65 25.85 -16.25 26.75 -14.55 29.3 -14.3 L29.35 -14.1 Q29.25 -13.9 28.95 -13.7 28.4 -13.25 27.4 -13.25 26.6 -13.25 25.95 -13.65 25.6 -13.85 25.45 -14.05 L25.55 -13.85 Q25.7 -13.4 25.95 -13.0 26.75 -13.0 29.2 -12.95 29.15 -13.1 29.05 -13.1 30.05 -13.1 31.1 -13.45 32.3 -13.85 32.3 -14.4 32.1 -14.95 31.0 -15.7 L29.35 -16.3 Q29.05 -16.3 28.6 -16.6 L28.55 -16.65 Q28.0 -16.85 26.4 -17.85 L24.95 -18.7 Q25.15 -18.3 25.35 -17.7 M26.5 -9.6 Q26.6 -9.6 26.6 -9.55 L26.5 -9.55 26.5 -9.6" fill="#111111" fill-rule="evenodd" stroke="none"/>
    <path d="M10.75 -13.05 L10.9 -13.0 Q11.2 -12.5 12.05 -11.9 13.45 -10.9 15.0 -10.9 15.75 -10.9 17.95 -11.35 L20.4 -11.85 20.45 -11.85 20.65 -11.8 Q20.15 -11.4 19.5 -11.05 18.85 -10.7 18.15 -10.45 L18.15 -10.5 18.0 -10.5 Q14.5 -10.45 12.8 -10.9 L12.05 -11.1 11.8 -11.15 11.65 -11.35 Q11.35 -11.75 10.75 -13.05 M17.4 -10.3 L17.7 -10.3 Q16.2 -9.85 14.25 -9.85 13.15 -9.85 12.25 -10.65 L12.5 -10.7 14.35 -10.4 16.1 -10.35 17.4 -10.3" fill="#ffffff" fill-rule="evenodd" stroke="none"/>
    <path d="M5.85 -9.5 L5.55 -9.45 Q5.3 -9.45 5.2 -9.7 5.1 -9.85 5.1 -10.0 5.1 -10.15 5.15 -10.2 L5.2 -10.3 Q5.35 -10.25 5.6 -10.0 5.8 -9.75 5.9 -9.55 L5.85 -9.5 M6.4 -9.7 L6.55 -9.5 6.55 -8.85 6.45 -8.8 Q6.4 -8.75 6.35 -8.75 6.2 -8.85 6.15 -8.9 6.1 -9.0 6.1 -9.2 6.1 -9.6 6.4 -9.7 M2.5 -8.65 Q2.45 -8.65 2.45 -8.8 L2.45 -9.1 3.15 -9.05 Q3.15 -9.0 3.2 -8.95 L3.3 -8.8 Q3.15 -8.6 2.8 -8.6 L2.55 -8.65 2.5 -8.65 M4.4 -9.0 Q4.25 -9.0 4.0 -9.2 3.8 -9.45 3.8 -9.6 4.1 -9.7 4.45 -9.5 4.7 -9.35 4.85 -9.15 4.8 -9.0 4.4 -9.0 M5.2 -8.95 Q5.2 -8.75 5.1 -8.6 5.0 -8.35 4.8 -8.25 L4.6 -8.4 Q4.55 -8.45 4.55 -8.65 4.55 -8.8 4.65 -8.95 4.85 -9.15 5.15 -9.15 L5.2 -8.95 M3.7 -8.55 Q3.7 -8.25 3.35 -7.95 L3.25 -7.95 Q3.15 -8.0 3.1 -8.05 3.3 -8.55 3.6 -8.75 L3.7 -8.7 3.7 -8.55" fill="#cccc66" fill-rule="evenodd" stroke="none"/>
    <path d="M13.9 -15.4 L14.45 -15.5 Q14.95 -15.5 15.4 -14.95 L15.5 -14.65 Q15.6 -14.4 15.75 -14.25 16.25 -13.75 17.6 -14.0 18.2 -14.05 19.85 -13.0 21.4 -11.95 21.4 -11.6 21.4 -10.65 19.65 -9.8 17.65 -8.8 15.0 -8.8 14.25 -8.8 13.4 -8.95 L13.35 -8.95 Q12.75 -9.15 12.25 -9.4 L12.25 -9.65 Q12.25 -9.8 12.35 -10.0 12.95 -9.45 13.55 -9.45 16.9 -9.45 19.35 -10.6 20.25 -11.05 20.85 -11.5 L21.2 -11.85 20.85 -12.15 20.7 -12.05 20.55 -12.05 Q20.3 -12.05 18.4 -11.6 16.5 -11.1 15.0 -11.1 13.75 -11.1 12.35 -12.05 11.65 -12.55 11.3 -12.9 11.0 -13.15 10.65 -13.55 L10.5 -13.8 Q10.25 -13.9 10.25 -13.55 10.35 -13.3 10.5 -12.9 10.85 -12.15 11.2 -11.5 L11.6 -10.85 10.6 -10.75 Q10.25 -11.15 9.95 -11.65 L9.95 -11.7 9.7 -12.85 Q9.6 -13.3 9.55 -13.65 L9.6 -13.7 Q9.75 -14.2 10.05 -14.55 10.6 -15.2 11.55 -15.35 12.3 -15.45 13.0 -15.2 L13.3 -15.05 13.25 -14.9 12.6 -14.9 12.55 -14.95 Q12.3 -15.1 12.15 -15.1 L12.15 -15.0 12.2 -14.95 12.15 -14.95 Q12.1 -14.95 12.1 -14.9 L12.2 -14.85 12.6 -14.75 13.2 -14.65 Q12.85 -12.9 12.6 -12.5 L12.65 -12.4 12.7 -12.35 13.4 -12.35 Q13.7 -12.25 14.4 -12.25 14.75 -12.25 15.0 -12.45 15.2 -12.6 15.25 -12.75 L15.45 -12.7 Q15.4 -13.1 14.9 -13.9 14.4 -14.7 14.15 -14.7 L13.8 -14.65 13.75 -14.6 Q13.9 -15.05 13.9 -15.25 L13.9 -15.4 M21.15 -13.8 L21.15 -13.85 21.1 -13.85 21.1 -13.95 21.15 -13.8 M12.0 -14.2 Q12.0 -14.4 11.75 -14.65 11.5 -14.8 11.2 -14.9 10.4 -15.05 10.4 -14.35 10.4 -14.1 10.55 -13.9 10.8 -13.6 11.35 -13.6 11.6 -13.6 11.75 -13.7 12.0 -13.9 12.0 -14.2 M11.8 -9.7 Q11.35 -10.0 10.95 -10.35 L10.95 -10.4 10.75 -10.6 11.7 -10.65 11.75 -10.65 12.05 -10.3 11.95 -10.2 Q11.8 -10.0 11.8 -9.7 M18.1 -12.0 Q18.9 -12.0 18.9 -12.6 18.9 -13.05 18.6 -13.3 18.35 -13.55 17.95 -13.6 17.55 -13.6 17.3 -13.4 17.0 -13.15 17.0 -12.75 17.0 -12.0 18.1 -12.0" fill="#b78233" fill-rule="evenodd" stroke="none"/>
    <path d="M13.9 -15.4 L13.9 -16.25 13.95 -16.7 14.0 -17.05 14.05 -17.65 14.1 -17.75 14.1 -17.8 Q14.1 -18.1 14.2 -18.35 L14.2 -18.85 14.35 -19.0 Q15.35 -19.7 15.75 -20.25 L16.6 -20.85 Q17.85 -21.8 18.2 -22.25 L18.35 -22.3 18.2 -22.3 18.25 -22.35 18.7 -22.2 18.8 -21.9 Q18.85 -21.05 19.05 -20.2 L18.65 -20.35 Q17.95 -20.6 17.35 -20.6 L16.6 -20.5 Q16.4 -20.45 16.25 -20.2 16.1 -20.15 15.95 -20.05 L16.0 -19.85 Q16.2 -19.75 16.7 -19.75 16.85 -19.75 17.2 -19.9 L17.4 -19.95 18.55 -19.75 19.15 -19.65 Q19.3 -19.1 19.5 -18.6 19.7 -17.65 19.7 -17.4 19.7 -16.8 19.85 -16.0 L19.45 -16.4 19.4 -16.35 Q19.4 -16.25 19.5 -16.0 L19.75 -15.85 19.9 -15.75 20.1 -15.2 Q20.25 -14.55 20.45 -14.05 20.7 -13.5 20.9 -13.1 L21.05 -13.2 21.0 -13.4 Q21.05 -13.55 21.1 -13.85 L21.15 -13.85 21.15 -13.8 21.15 -13.75 Q21.4 -12.35 21.8 -11.0 L21.85 -10.85 Q21.6 -10.6 21.3 -10.15 21.25 -9.95 20.75 -9.65 L20.45 -9.5 Q18.75 -8.55 16.15 -8.55 L15.75 -8.55 Q14.45 -8.6 13.4 -8.95 14.25 -8.8 15.0 -8.8 17.65 -8.8 19.65 -9.8 21.4 -10.65 21.4 -11.6 21.4 -11.95 19.85 -13.0 18.2 -14.05 17.6 -14.0 16.25 -13.75 15.75 -14.25 15.6 -14.4 15.5 -14.65 L15.4 -14.95 Q14.95 -15.5 14.45 -15.5 L13.9 -15.4 M13.85 -21.5 L13.95 -21.55 14.6 -21.75 14.15 -21.3 14.1 -21.2 13.55 -20.65 Q12.8 -21.3 11.65 -20.35 11.35 -20.1 11.1 -19.8 11.3 -20.2 11.3 -20.3 L11.3 -20.4 11.95 -20.8 12.05 -20.85 13.35 -21.3 Q13.6 -21.45 13.85 -21.45 L13.85 -21.5 M9.55 -13.65 Q9.5 -14.0 9.5 -14.25 L9.5 -14.85 9.55 -14.9 9.55 -15.25 9.6 -15.3 9.7 -15.85 9.7 -16.0 9.75 -16.05 9.75 -16.25 9.8 -16.35 9.8 -16.4 9.9 -16.65 9.9 -16.75 10.0 -16.95 10.0 -17.05 10.05 -17.05 10.05 -17.1 10.15 -17.4 10.6 -18.4 10.65 -18.45 10.75 -18.5 11.05 -19.1 Q11.25 -19.5 11.5 -19.75 11.75 -20.0 12.65 -20.2 L12.8 -20.2 13.2 -20.3 13.1 -20.25 13.2 -20.25 13.05 -20.05 Q12.25 -19.05 12.05 -18.25 L11.95 -18.1 11.65 -17.75 11.65 -17.7 11.6 -17.65 11.7 -17.55 11.7 -17.6 11.8 -17.55 Q12.25 -17.75 12.7 -18.0 L12.7 -18.05 12.85 -18.1 12.9 -18.1 13.65 -18.5 13.85 -18.65 13.85 -18.45 Q13.8 -18.35 13.8 -18.25 L13.8 -18.2 Q13.8 -17.7 13.45 -16.0 L13.15 -16.25 Q12.75 -16.55 12.3 -16.75 12.1 -16.6 11.75 -16.45 L11.45 -16.4 11.4 -16.2 11.25 -16.45 11.05 -16.65 10.95 -16.65 10.9 -16.6 10.9 -16.45 Q10.9 -16.05 11.35 -16.0 L11.7 -16.15 Q12.2 -16.35 12.55 -16.35 12.75 -16.35 13.15 -15.9 L13.4 -15.6 13.35 -15.45 13.35 -15.35 13.3 -15.05 13.0 -15.2 Q12.3 -15.45 11.55 -15.35 10.6 -15.2 10.05 -14.55 9.75 -14.2 9.6 -13.7 L9.55 -13.65 M13.4 -12.35 Q14.0 -12.4 14.45 -12.6 L14.7 -12.65 Q15.1 -12.7 15.25 -12.85 L15.2 -12.75 15.25 -12.75 Q15.2 -12.6 15.0 -12.45 14.75 -12.25 14.4 -12.25 13.7 -12.25 13.4 -12.35 M13.15 -17.25 L13.25 -17.35 13.2 -17.4 Q12.6 -17.7 12.05 -17.45 11.55 -17.3 11.55 -17.1 L11.7 -17.15 12.2 -17.15 Q12.5 -17.25 12.9 -17.25 L13.15 -17.25 M16.35 -15.2 L16.35 -15.15 Q16.4 -15.1 16.55 -15.1 L17.05 -15.3 Q17.6 -15.55 17.85 -15.55 18.3 -15.55 19.05 -15.25 L19.3 -15.15 19.3 -15.1 Q19.35 -15.0 19.5 -14.95 L19.75 -15.0 Q19.9 -15.05 19.9 -15.25 L19.85 -15.45 Q19.8 -15.45 19.75 -15.5 19.6 -15.5 19.5 -15.4 L19.35 -15.25 Q18.8 -15.65 18.5 -15.95 L18.35 -15.95 Q17.65 -15.85 17.05 -15.65 16.6 -15.5 16.4 -15.35 L16.35 -15.25 16.35 -15.2 M16.65 -14.75 L16.65 -14.6 18.45 -14.35 Q18.65 -14.35 18.85 -14.45 L18.7 -14.55 17.5 -14.7 16.65 -14.75 M16.6 -15.95 L16.65 -15.95 17.15 -16.4 Q17.55 -16.8 18.1 -16.8 18.35 -16.8 18.7 -16.65 19.05 -16.55 19.2 -16.55 18.65 -17.35 17.7 -16.95 16.95 -16.6 16.6 -15.95 M12.35 -10.0 Q12.25 -9.8 12.25 -9.65 L12.25 -9.4 11.85 -9.65 11.8 -9.7 Q11.8 -10.0 11.95 -10.2 L12.05 -10.3 12.35 -10.0 M18.05 -14.0 L18.05 -14.0" fill="#934e2d" fill-rule="evenodd" stroke="none"/>
    <path d="M15.0 -20.05 L14.2 -19.4 Q13.0 -18.6 12.45 -18.35 L12.5 -18.45 12.6 -18.6 12.6 -18.75 13.55 -19.8 14.2 -20.55 Q14.65 -20.35 15.0 -20.05 M11.3 -20.9 Q10.95 -20.6 10.5 -20.2 9.25 -18.95 9.25 -18.2 9.1 -17.85 9.05 -17.55 8.95 -17.1 9.05 -16.7 L8.95 -16.7 Q8.9 -17.05 8.85 -17.55 L8.8 -18.25 Q8.8 -19.1 9.3 -20.2 L9.35 -20.35 Q10.3 -20.8 11.3 -20.9 M9.0 -20.15 L8.75 -19.55 Q8.45 -18.75 8.45 -18.25 L8.55 -17.7 8.5 -17.65 Q8.3 -17.15 8.3 -17.0 8.3 -16.85 8.2 -16.3 L8.05 -15.35 8.0 -15.35 8.0 -15.45 7.95 -15.65 7.65 -16.6 Q7.45 -17.35 7.45 -17.8 7.45 -18.4 7.7 -19.2 L7.8 -19.3 Q8.35 -19.8 9.0 -20.15 M26.2 -10.25 Q25.85 -10.3 25.5 -10.4 25.1 -10.55 24.75 -10.8 L24.8 -11.15 Q24.8 -11.7 24.5 -13.55 L24.45 -13.9 24.5 -13.75 24.55 -13.65 Q25.15 -11.9 25.4 -11.45 25.75 -10.8 26.2 -10.25 M24.35 -14.0 Q24.35 -13.4 24.45 -13.05 L24.45 -10.4 24.4 -10.35 24.35 -10.5 24.25 -9.85 24.15 -9.45 Q23.95 -10.7 23.85 -12.35 23.8 -14.15 23.65 -15.0 L23.65 -15.15 Q23.95 -14.75 24.2 -14.25 L24.35 -14.0 M23.45 -15.5 L23.45 -14.7 23.6 -10.05 Q23.7 -9.55 23.8 -9.1 L23.9 -8.75 24.1 -8.1 24.1 -7.7 23.9 -7.85 Q22.6 -9.05 22.05 -11.2 21.9 -11.7 21.85 -12.3 21.5 -13.65 21.2 -15.95 L21.1 -15.95 21.05 -17.1 21.75 -16.7 Q22.75 -16.05 23.35 -15.45 L23.45 -15.35 23.45 -15.5 M20.8 -17.25 L20.75 -16.45 20.7 -14.4 20.7 -14.35 Q20.55 -15.0 20.45 -15.7 L20.2 -17.2 20.1 -17.45 Q20.4 -17.4 20.8 -17.25 M7.95 -14.45 L7.95 -14.4 7.85 -14.6 7.95 -14.45 M7.5 -14.25 L7.45 -14.2 7.5 -13.8 7.15 -13.3 6.6 -12.7 6.1 -12.65 6.05 -12.65 6.25 -12.7 Q7.1 -13.6 7.5 -14.25 M8.15 -10.95 L8.3 -11.15 8.9 -12.4 8.8 -10.5 8.75 -10.5 8.75 -10.45 8.1 -10.35 Q8.1 -10.6 8.15 -10.95 M8.6 -7.6 L8.55 -7.6 8.35 -8.2 8.2 -9.0 8.1 -9.75 8.1 -10.0 8.55 -10.15 8.75 -10.2 Q8.65 -8.85 8.6 -7.6" fill="#501f27" fill-rule="evenodd" stroke="none"/>
    <path d="M19.05 -22.45 Q16.1 -23.9 13.85 -24.4 L13.35 -24.4 12.35 -24.5 11.9 -24.45 11.4 -24.45 11.4 -24.4 11.2 -24.35 9.55 -24.1 9.95 -24.25 Q10.95 -24.65 11.6 -25.0 12.05 -25.3 12.6 -25.7 L13.3 -26.25 13.7 -26.7 Q14.6 -27.65 15.2 -28.5 L15.55 -29.2 15.8 -29.6 Q16.85 -30.8 17.85 -31.35 18.9 -31.8 20.3 -31.8 21.3 -31.8 21.95 -31.2 L21.9 -31.15 Q21.35 -30.35 21.35 -30.3 21.35 -30.1 21.4 -30.1 L21.45 -30.1 21.65 -30.05 Q22.1 -30.05 22.4 -30.45 L22.45 -29.95 22.45 -29.45 21.9 -29.0 22.0 -29.1 Q22.1 -29.25 22.1 -29.4 22.1 -29.6 22.0 -29.65 L21.8 -29.7 Q21.45 -29.55 20.9 -29.0 20.35 -28.45 20.35 -28.3 20.35 -28.1 20.45 -28.05 L20.7 -28.05 Q21.15 -28.2 21.6 -28.55 L21.7 -28.55 22.35 -28.65 22.3 -28.4 Q21.7 -27.85 21.1 -27.5 L21.1 -27.55 21.05 -27.65 Q20.85 -27.65 20.35 -27.4 19.8 -27.15 19.8 -27.0 19.8 -26.8 19.85 -26.75 L19.9 -26.65 19.95 -26.6 20.2 -26.6 20.7 -26.75 Q20.95 -26.85 21.05 -27.0 L21.75 -26.65 21.5 -26.4 Q20.9 -25.8 20.5 -25.45 20.65 -25.65 20.65 -25.7 L20.65 -25.95 20.55 -26.05 Q20.3 -26.05 19.9 -25.65 19.5 -25.25 19.5 -25.05 19.5 -24.9 19.5 -24.85 19.55 -24.85 19.55 -24.9 L19.8 -24.8 Q19.9 -24.85 20.25 -25.2 L20.6 -25.05 20.9 -24.9 21.4 -24.95 21.3 -24.3 Q20.9 -24.05 20.55 -23.9 20.55 -24.4 20.1 -24.1 19.65 -23.8 19.65 -23.5 19.65 -23.45 19.7 -23.45 L20.05 -23.2 20.4 -23.5 Q20.55 -23.35 21.0 -23.25 L21.4 -23.15 21.4 -23.1 Q21.75 -23.2 21.85 -23.2 L21.9 -23.15 Q21.95 -23.15 21.95 -22.95 21.95 -22.75 21.6 -22.6 21.4 -22.5 21.25 -22.5 L21.0 -22.15 21.05 -22.0 21.2 -21.85 Q21.3 -21.8 21.5 -21.8 L21.6 -21.8 21.75 -21.0 19.5 -22.2 19.35 -22.3 19.4 -22.35 Q19.5 -22.6 19.55 -22.7 L19.5 -22.85 Q19.3 -22.95 19.15 -22.85 19.05 -22.7 19.05 -22.55 L19.05 -22.45 M23.1 -20.2 L22.45 -20.6 22.5 -20.7 Q22.8 -21.05 22.9 -21.1 L23.15 -20.9 Q23.25 -20.8 23.25 -20.7 23.2 -20.5 23.1 -20.3 L23.1 -20.2 M20.15 -30.35 Q19.85 -30.15 19.7 -29.75 L19.9 -29.6 Q20.65 -30.0 20.95 -30.55 20.5 -30.6 20.15 -30.35 M19.2 -24.15 L19.15 -24.35 Q18.55 -24.5 18.55 -24.0 18.55 -23.8 18.6 -23.75 L18.6 -23.7 18.9 -23.7 Q19.05 -23.85 19.1 -24.0 L19.2 -24.15 M18.65 -26.0 Q18.4 -25.9 18.3 -25.65 L18.5 -25.55 Q18.8 -25.6 18.9 -25.75 L19.05 -26.1 Q18.9 -26.1 18.65 -26.0 M19.15 -27.55 L19.65 -27.95 Q19.6 -28.05 19.5 -28.1 L19.15 -27.9 18.85 -27.7 Q18.95 -27.6 19.15 -27.55 M20.7 -22.6 Q20.6 -22.6 20.5 -22.45 20.4 -22.35 20.4 -22.15 20.4 -21.9 20.45 -21.85 20.5 -21.7 20.7 -21.7 20.9 -21.7 20.9 -21.75 L20.85 -21.8 20.95 -21.9 21.0 -22.2 Q21.0 -22.35 20.9 -22.45 L20.7 -22.6 M22.3 -21.95 L22.35 -22.0 Q22.4 -21.95 22.4 -21.8 22.4 -21.45 22.15 -21.2 21.95 -21.05 21.75 -21.0 L21.6 -21.7 21.75 -21.75 22.3 -21.95" fill="#e7e2ab" fill-rule="evenodd" stroke="none"/>
    <path d="M19.05 -22.45 L19.05 -22.55 Q19.05 -22.7 19.15 -22.85 19.3 -22.95 19.5 -22.85 L19.55 -22.7 Q19.5 -22.6 19.4 -22.35 L19.35 -22.3 19.05 -22.45 M21.75 -21.0 L21.6 -21.8 21.5 -21.8 Q21.3 -21.8 21.2 -21.85 L21.05 -22.0 21.0 -22.15 21.25 -22.5 Q21.4 -22.5 21.6 -22.6 21.95 -22.75 21.95 -22.95 21.95 -23.15 21.9 -23.15 L21.85 -23.2 Q21.75 -23.2 21.4 -23.1 L21.4 -23.15 21.0 -23.25 Q20.55 -23.35 20.4 -23.5 L20.05 -23.2 19.7 -23.45 Q19.65 -23.45 19.65 -23.5 19.65 -23.8 20.1 -24.1 20.55 -24.4 20.55 -23.9 20.9 -24.05 21.3 -24.3 L21.4 -24.95 20.9 -24.9 20.6 -25.05 20.25 -25.2 Q19.9 -24.85 19.8 -24.8 L19.55 -24.9 Q19.55 -24.85 19.5 -24.85 19.5 -24.9 19.5 -25.05 19.5 -25.25 19.9 -25.65 20.3 -26.05 20.55 -26.05 L20.65 -25.95 20.65 -25.7 Q20.65 -25.65 20.5 -25.45 20.9 -25.8 21.5 -26.4 L21.75 -26.65 21.05 -27.0 Q20.95 -26.85 20.7 -26.75 L20.2 -26.6 19.95 -26.6 19.9 -26.65 19.85 -26.75 Q19.8 -26.8 19.8 -27.0 19.8 -27.15 20.35 -27.4 20.85 -27.65 21.05 -27.65 L21.1 -27.55 21.1 -27.5 Q21.7 -27.85 22.3 -28.4 L22.35 -28.65 21.7 -28.55 21.6 -28.55 Q21.15 -28.2 20.7 -28.05 L20.45 -28.05 Q20.35 -28.1 20.35 -28.3 20.35 -28.45 20.9 -29.0 21.45 -29.55 21.8 -29.7 L22.0 -29.65 Q22.1 -29.6 22.1 -29.4 22.1 -29.25 22.0 -29.1 L21.9 -29.0 22.45 -29.45 22.45 -29.95 22.4 -30.45 Q22.1 -30.05 21.65 -30.05 L21.45 -30.1 21.4 -30.1 Q21.35 -30.1 21.35 -30.3 21.35 -30.35 21.9 -31.15 L21.95 -31.2 22.3 -30.8 22.45 -30.5 22.8 -29.75 22.85 -29.55 Q23.05 -28.7 23.2 -27.0 23.4 -24.7 23.5 -23.95 23.7 -22.7 23.9 -21.95 24.05 -21.6 24.4 -20.9 L24.9 -19.9 Q25.0 -19.65 26.05 -18.65 26.4 -18.3 26.7 -17.95 25.95 -18.45 24.8 -19.15 L24.15 -19.55 24.1 -19.65 24.05 -19.6 23.1 -20.2 23.1 -20.3 Q23.2 -20.5 23.25 -20.7 23.25 -20.8 23.15 -20.9 L22.9 -21.1 Q22.8 -21.05 22.5 -20.7 L22.45 -20.6 21.75 -21.0 Q21.95 -21.05 22.15 -21.2 22.4 -21.45 22.4 -21.8 22.4 -21.95 22.35 -22.0 L22.3 -21.95 21.75 -21.75 21.6 -21.7 21.75 -21.0 M20.15 -30.35 Q20.5 -30.6 20.95 -30.55 20.65 -30.0 19.9 -29.6 L19.7 -29.75 Q19.85 -30.15 20.15 -30.35 M19.15 -27.55 Q18.95 -27.6 18.85 -27.7 L19.15 -27.9 19.5 -28.1 Q19.6 -28.05 19.65 -27.95 L19.15 -27.55 M18.65 -26.0 Q18.9 -26.1 19.05 -26.1 L18.9 -25.75 Q18.8 -25.6 18.5 -25.55 L18.3 -25.65 Q18.4 -25.9 18.65 -26.0 M19.2 -24.15 L19.1 -24.0 Q19.05 -23.85 18.9 -23.7 L18.6 -23.7 18.6 -23.75 Q18.55 -23.8 18.55 -24.0 18.55 -24.5 19.15 -24.35 L19.2 -24.15 M20.7 -22.6 L20.9 -22.45 Q21.0 -22.35 21.0 -22.2 L20.95 -21.9 20.85 -21.8 20.9 -21.75 Q20.9 -21.7 20.7 -21.7 20.5 -21.7 20.45 -21.85 20.4 -21.9 20.4 -22.15 20.4 -22.35 20.5 -22.45 20.6 -22.6 20.7 -22.6 M10.65 -24.05 Q9.45 -23.35 8.55 -22.1 7.8 -21.0 7.4 -19.75 7.0 -18.65 7.0 -17.75 7.0 -16.9 7.5 -15.5 7.4 -15.35 7.35 -15.15 L7.2 -14.65 6.9 -14.8 6.75 -14.8 5.65 -15.15 Q4.9 -15.4 4.3 -15.6 3.6 -16.05 3.05 -16.6 2.05 -17.65 1.8 -18.8 1.8 -20.1 2.6 -20.95 2.75 -21.1 3.0 -21.3 5.7 -22.6 5.95 -22.7 8.3 -23.7 10.65 -24.05 M25.35 -17.7 Q25.15 -18.3 24.95 -18.7 L26.4 -17.85 Q28.0 -16.85 28.55 -16.65 L28.6 -16.6 Q29.05 -16.3 29.35 -16.3 L31.0 -15.7 Q32.1 -14.95 32.3 -14.4 32.3 -13.85 31.1 -13.45 30.05 -13.1 29.05 -13.1 29.15 -13.1 29.2 -12.95 26.75 -13.0 25.95 -13.0 25.7 -13.4 25.55 -13.85 L25.45 -14.05 Q25.6 -13.85 25.95 -13.65 26.6 -13.25 27.4 -13.25 28.4 -13.25 28.95 -13.7 29.25 -13.9 29.35 -14.1 L29.3 -14.3 Q26.75 -14.55 25.85 -16.25 25.65 -16.65 25.35 -17.7" fill="#a6b665" fill-rule="evenodd" stroke="none"/>
    <path d="M12.0 -14.2 Q12.0 -13.9 11.75 -13.7 11.6 -13.6 11.35 -13.6 10.8 -13.6 10.55 -13.9 10.4 -14.1 10.4 -14.35 10.4 -15.05 11.2 -14.9 11.5 -14.8 11.75 -14.65 12.0 -14.4 12.0 -14.2 M18.1 -12.0 Q17.0 -12.0 17.0 -12.75 17.0 -13.15 17.3 -13.4 17.55 -13.6 17.95 -13.6 18.35 -13.55 18.6 -13.3 18.9 -13.05 18.9 -12.6 18.9 -12.0 18.1 -12.0" fill="#eb8070" fill-rule="evenodd" stroke="none"/>
    <path d="M7.7 -19.2 L7.8 -19.6 Q8.2 -20.75 8.95 -21.75 10.1 -23.4 11.65 -24.2 L13.0 -24.15 Q14.45 -23.95 16.15 -23.3 L16.3 -23.25 Q16.9 -23.0 17.35 -22.75 L17.75 -22.6 17.8 -22.55 17.45 -22.25 16.05 -20.9 15.15 -20.2 15.0 -20.05 Q14.65 -20.35 14.2 -20.55 L14.25 -20.65 14.6 -21.1 15.85 -22.65 15.15 -22.45 13.1 -21.7 12.45 -21.45 12.45 -21.4 12.15 -21.35 Q11.75 -21.15 11.4 -20.95 L11.3 -20.9 Q10.3 -20.8 9.35 -20.35 9.9 -21.5 10.75 -22.45 11.15 -22.8 11.55 -23.1 10.5 -22.65 9.6 -21.25 9.25 -20.7 9.0 -20.15 8.35 -19.8 7.8 -19.3 L7.7 -19.2 M20.1 -17.45 Q19.85 -18.15 19.6 -19.5 19.2 -21.05 19.2 -21.3 19.2 -21.6 19.25 -21.7 L19.4 -21.7 19.3 -21.9 Q19.7 -21.65 19.95 -21.45 L23.85 -19.35 24.55 -18.95 24.5 -18.75 Q24.5 -18.1 25.8 -16.2 27.05 -14.35 27.9 -13.85 27.4 -13.7 27.15 -13.7 26.75 -13.7 26.05 -14.0 L25.35 -14.25 Q25.1 -14.9 24.9 -15.8 L24.4 -17.65 24.3 -17.6 24.35 -16.95 24.65 -16.05 25.2 -14.15 Q25.6 -12.95 26.3 -11.95 26.45 -11.6 26.9 -11.1 27.25 -10.6 27.7 -10.35 L27.65 -10.35 27.8 -10.3 27.85 -10.25 27.8 -10.25 27.35 -10.15 26.75 -10.15 26.35 -10.2 26.2 -10.25 Q25.75 -10.8 25.4 -11.45 25.15 -11.9 24.55 -13.65 L24.5 -13.75 24.45 -13.9 24.4 -14.05 24.4 -14.2 24.35 -14.3 24.35 -14.0 24.2 -14.25 Q23.95 -14.75 23.65 -15.15 23.45 -16.5 23.05 -17.6 L23.1 -17.35 Q23.35 -16.5 23.45 -15.5 L23.45 -15.35 23.35 -15.45 Q22.75 -16.05 21.75 -16.7 L21.05 -17.1 20.85 -19.6 20.75 -19.6 Q20.8 -18.75 20.8 -17.25 20.4 -17.4 20.1 -17.45 M7.95 -14.45 Q8.2 -13.9 8.5 -13.65 L8.6 -13.85 8.6 -14.05 8.55 -14.35 8.55 -14.4 8.5 -14.65 8.45 -15.15 8.4 -15.45 8.75 -16.8 8.9 -16.3 Q9.1 -15.95 9.3 -15.8 L9.4 -15.9 9.4 -16.15 9.35 -16.7 9.8 -18.1 Q10.0 -18.7 10.25 -19.2 10.1 -18.45 9.75 -17.3 L9.65 -17.0 Q9.55 -16.65 9.45 -16.25 9.2 -15.2 9.2 -14.25 L9.25 -13.45 9.15 -13.85 9.25 -13.15 9.35 -12.4 Q9.55 -11.8 9.8 -11.35 9.7 -11.1 9.6 -10.6 L9.45 -10.6 8.85 -10.5 8.8 -10.5 8.9 -12.4 8.3 -11.15 8.15 -10.95 Q8.25 -11.4 8.45 -12.0 L8.75 -13.15 Q8.75 -13.35 8.7 -13.4 8.8 -13.4 8.65 -13.4 L8.55 -13.45 8.55 -13.4 7.5 -13.0 7.05 -12.8 6.6 -12.7 7.15 -13.3 7.5 -13.8 7.45 -14.2 7.5 -14.25 7.55 -14.35 7.75 -14.7 7.8 -14.75 7.85 -14.6 7.95 -14.4 7.95 -14.45 M9.85 -11.3 L9.95 -11.1 10.2 -10.7 9.8 -10.65 9.9 -11.2 9.85 -11.3 M8.6 -7.6 Q8.65 -8.85 8.75 -10.2 L8.95 -10.25 9.35 -10.3 9.5 -10.3 9.35 -10.35 9.55 -10.4 9.0 -8.2 Q8.7 -7.7 8.6 -7.6 M10.3 -10.55 L10.6 -10.2 Q10.25 -9.8 9.75 -9.05 L9.5 -8.65 9.4 -8.65 Q9.6 -9.5 9.8 -10.45 L10.3 -10.55" fill="#2f0918" fill-rule="evenodd" stroke="none"/>
    <path d="M14.7 -12.65 L14.75 -12.7 15.0 -12.75 14.85 -12.8 14.25 -12.75 14.05 -12.7 13.35 -12.6 13.1 -12.6 13.1 -12.8 13.3 -13.1 Q13.3 -13.6 13.55 -14.05 13.75 -14.55 14.0 -14.35 L14.25 -14.5 Q14.25 -14.45 14.75 -13.8 L15.1 -13.35 Q15.25 -13.05 15.25 -12.85 15.1 -12.7 14.7 -12.65" fill="#c56525" fill-rule="evenodd" stroke="none"/>
  </g>
</svg>
