<?xml version="1.0" encoding="UTF-8" standalone="no"?>
<svg xmlns:ffdec="https://www.free-decompiler.com/flash" xmlns:xlink="http://www.w3.org/1999/xlink" ffdec:objectType="shape" height="28.8px" width="32.7px" xmlns="http://www.w3.org/2000/svg">
  <g transform="matrix(1.0, 0.0, 0.0, 1.0, 3.65, 30.15)">
    <path d="M6.55 -10.25 L6.55 -10.45 Q6.9 -10.65 7.1 -10.4 L7.2 -10.3 Q7.0 -9.9 6.6 -10.1 L6.55 -10.15 6.55 -10.25 M9.0 -9.1 L9.05 -9.1 9.65 -8.75 9.35 -8.25 9.0 -9.1" fill="#fbfbfb" fill-rule="evenodd" stroke="none"/>
    <path d="M3.15 -18.0 Q3.15 -18.2 3.0 -18.3 L3.8 -19.05 3.95 -19.05 4.45 -18.25 Q4.6 -18.05 4.55 -17.65 4.5 -17.25 4.35 -16.85 L4.2 -16.55 4.0 -16.25 3.75 -15.85 3.55 -15.7 Q3.35 -15.55 3.1 -15.45 2.95 -15.35 2.8 -15.35 L2.4 -15.3 Q2.2 -15.25 2.05 -15.3 1.95 -15.3 1.6 -15.45 L1.25 -15.55 1.2 -15.55 1.6 -16.2 Q2.25 -16.05 2.8 -16.55 3.2 -16.95 3.2 -17.2 3.25 -17.65 3.15 -18.0" fill="#ffffcc" fill-rule="evenodd" stroke="none"/>
    <path d="M8.15 -26.9 Q7.9 -27.55 7.9 -27.7 7.9 -27.95 7.95 -27.8 L8.3 -27.7 Q8.85 -27.5 9.2 -26.8 9.6 -26.1 9.6 -25.35 10.05 -25.7 11.2 -26.3 L13.35 -27.3 Q13.8 -27.65 14.85 -29.0 15.65 -29.95 16.4 -30.15 L16.4 -30.0 Q15.8 -28.9 15.35 -27.55 L14.95 -26.15 15.2 -26.35 Q16.0 -26.95 17.1 -27.5 20.0 -28.8 21.9 -28.45 L21.9 -28.4 Q21.95 -28.4 21.95 -28.25 21.95 -28.2 21.7 -28.15 20.5 -27.2 19.85 -26.65 19.15 -26.05 18.85 -25.6 L19.15 -25.55 Q19.9 -25.65 20.65 -25.25 21.45 -24.85 22.5 -23.6 23.95 -21.95 24.3 -21.65 25.35 -20.7 26.35 -20.7 L26.7 -20.7 26.95 -20.65 Q27.25 -20.9 27.5 -20.85 L27.55 -20.75 27.55 -20.6 Q27.55 -20.2 26.7 -19.7 25.85 -19.25 25.2 -19.25 L24.75 -19.3 24.7 -19.3 24.55 -19.35 24.65 -19.3 Q25.05 -19.05 25.35 -18.45 25.6 -17.95 25.95 -16.65 26.1 -15.85 27.05 -14.9 27.7 -14.25 28.55 -13.7 28.85 -13.7 29.0 -13.5 L29.05 -13.35 Q29.05 -13.0 28.0 -12.8 L27.0 -12.55 26.95 -12.55 Q26.2 -12.6 25.45 -13.15 25.05 -13.45 24.85 -13.7 L24.7 -13.55 24.65 -13.6 24.25 -13.05 24.25 -13.0 Q24.3 -13.05 24.35 -13.0 24.6 -13.0 25.1 -12.5 25.45 -12.0 25.55 -11.75 25.65 -11.6 25.75 -11.05 L25.9 -10.45 Q25.85 -10.1 25.55 -9.8 25.15 -9.45 24.4 -9.45 L24.5 -9.2 Q24.65 -8.65 24.65 -8.2 24.65 -8.05 24.65 -8.0 L24.55 -7.9 24.45 -7.9 24.0 -8.3 Q23.75 -8.4 23.4 -8.7 L23.25 -8.8 23.05 -8.95 23.05 -8.9 23.05 -8.6 Q23.05 -7.85 22.95 -7.4 22.75 -6.75 22.2 -6.35 L22.1 -6.4 Q22.05 -6.4 22.05 -6.5 L21.85 -6.35 Q21.65 -5.8 21.3 -5.8 L21.1 -5.85 Q21.1 -6.3 20.9 -6.85 L20.85 -7.0 20.9 -6.55 Q20.8 -6.0 20.4 -5.4 19.7 -4.5 18.45 -4.6 17.3 -4.7 17.0 -5.95 16.85 -6.55 16.9 -7.35 16.65 -7.5 16.45 -7.7 15.85 -5.3 13.65 -4.95 L13.45 -4.8 13.4 -4.9 Q9.9 -5.3 8.1 -2.45 7.65 -1.75 6.85 -1.5 6.15 -1.25 5.4 -1.35 L5.3 -1.45 4.65 -2.95 Q4.05 -2.6 3.75 -2.05 L3.3 -2.05 3.3 -2.15 Q2.6 -2.35 2.15 -2.8 L2.05 -3.2 1.9 -3.75 1.6 -3.75 Q-0.6 -2.85 -0.9 -2.85 -1.95 -2.95 -2.5 -4.15 -2.95 -4.9 -3.25 -6.65 -3.45 -7.7 -3.6 -8.85 -3.65 -9.75 -3.6 -9.9 -3.6 -10.55 -3.2 -11.15 -2.8 -11.75 -2.3 -11.75 L-2.2 -11.85 Q-1.8 -12.05 -1.1 -12.25 L-0.55 -12.5 Q-0.6 -12.85 -0.6 -13.05 -0.45 -14.55 0.6 -16.3 1.5 -17.75 2.8 -19.05 4.0 -20.2 4.95 -20.8 5.35 -21.0 5.6 -21.05 L5.55 -21.1 Q5.7 -21.2 5.9 -21.15 7.15 -22.4 7.7 -24.15 L7.75 -24.3 Q7.9 -24.9 8.0 -25.6 L8.1 -26.1 8.1 -26.25 8.2 -26.85 8.15 -26.9 M14.65 -25.25 L14.6 -25.3 14.5 -25.25 14.45 -25.3 14.45 -25.45 14.5 -25.65 14.45 -25.85 Q14.45 -26.25 14.8 -27.25 15.05 -28.05 15.25 -28.5 L15.25 -28.55 Q14.75 -27.45 12.7 -26.45 L11.05 -25.65 Q10.1 -25.2 9.55 -24.8 L9.5 -24.8 Q9.45 -24.6 9.35 -24.5 L9.15 -24.45 9.2 -24.55 8.55 -26.0 8.55 -25.95 Q8.55 -24.75 7.75 -22.95 7.1 -21.45 6.3 -20.9 L6.35 -20.85 6.85 -20.55 7.45 -20.2 Q7.9 -20.0 8.1 -19.85 L8.15 -19.85 8.15 -19.8 8.5 -19.6 Q9.0 -19.35 9.8 -19.0 10.0 -18.9 12.0 -18.05 L15.65 -16.55 17.95 -15.6 18.45 -15.45 18.65 -15.3 19.0 -15.15 19.15 -15.15 19.75 -15.3 20.3 -15.45 21.6 -15.8 22.25 -15.95 Q23.35 -16.05 24.25 -16.0 25.05 -15.95 25.25 -15.35 25.3 -15.15 25.25 -14.5 L25.25 -14.45 25.2 -14.45 25.2 -14.4 25.0 -13.95 25.0 -13.9 Q25.25 -13.9 25.55 -13.65 26.2 -13.25 26.9 -13.25 27.7 -13.25 28.1 -13.45 L28.15 -13.5 Q27.25 -13.9 26.7 -14.55 26.15 -15.15 25.8 -16.15 L25.15 -17.85 Q24.8 -18.65 24.2 -19.15 L24.1 -19.3 23.9 -19.45 24.15 -19.45 Q24.35 -19.7 25.15 -19.85 L26.15 -20.0 26.5 -20.3 26.4 -20.3 Q25.3 -20.3 24.2 -21.2 23.6 -21.7 22.3 -23.15 21.15 -24.45 20.45 -24.9 20.25 -25.05 20.0 -25.15 L18.75 -25.25 18.65 -25.25 18.6 -25.2 18.55 -24.95 18.45 -24.9 18.25 -24.95 Q18.25 -25.0 18.25 -25.15 18.25 -25.95 19.45 -27.0 20.1 -27.55 20.7 -27.9 L19.8 -27.7 Q17.45 -27.2 16.75 -26.85 L15.65 -26.1 14.85 -25.5 14.7 -25.4 14.65 -25.25 14.65 -25.25 M16.45 -15.55 L15.95 -15.7 14.8 -16.2 Q11.8 -17.35 11.1 -17.65 L8.1 -19.3 Q6.8 -19.95 6.45 -20.15 6.2 -20.3 6.05 -20.5 5.9 -20.55 5.85 -20.65 L5.6 -20.6 5.6 -20.65 5.1 -20.1 4.25 -19.4 Q4.65 -19.3 4.9 -18.8 5.15 -18.15 5.1 -17.35 L5.0 -16.8 Q4.95 -16.55 4.75 -16.3 4.65 -16.05 4.5 -15.85 L4.05 -15.35 3.4 -14.95 Q3.1 -14.85 2.8 -14.8 L2.25 -14.75 1.65 -14.75 Q1.3 -14.8 1.05 -15.0 L0.95 -15.1 Q0.5 -14.3 0.5 -13.85 L0.35 -13.55 Q0.3 -13.5 0.3 -13.45 L0.2 -13.2 Q0.15 -13.1 0.2 -13.0 L0.2 -12.45 0.2 -12.35 0.8 -12.3 1.25 -12.3 7.3 -11.85 7.4 -11.85 Q7.7 -12.0 8.5 -12.05 L10.25 -12.15 10.85 -12.2 11.35 -12.3 Q11.4 -12.25 11.45 -12.25 L12.0 -12.25 12.5 -12.3 12.5 -12.35 14.0 -12.5 14.6 -12.55 15.95 -12.75 16.05 -12.65 16.25 -13.0 16.4 -13.2 16.7 -13.65 15.85 -13.85 14.7 -14.15 13.7 -14.45 12.5 -14.8 11.85 -14.95 11.0 -15.25 10.5 -15.35 10.25 -15.45 Q8.85 -15.9 8.35 -15.95 L7.9 -15.85 7.5 -15.75 Q7.4 -15.8 7.4 -15.85 7.35 -15.95 7.4 -16.05 7.4 -16.2 7.9 -16.35 L8.5 -16.4 8.95 -16.4 9.4 -16.3 9.5 -16.3 Q10.0 -16.25 10.5 -16.05 L10.95 -15.95 Q11.0 -15.95 11.1 -15.9 L12.1 -15.6 13.5 -15.15 13.75 -15.1 14.65 -14.8 Q15.75 -14.55 16.0 -14.45 16.55 -14.2 16.95 -13.95 L17.05 -14.0 18.1 -14.75 18.3 -14.95 Q18.05 -14.95 17.6 -15.15 L16.45 -15.55 M3.15 -18.0 Q3.25 -17.65 3.2 -17.2 3.2 -16.95 2.8 -16.55 2.25 -16.05 1.6 -16.2 L1.2 -15.55 1.25 -15.55 1.6 -15.45 Q1.95 -15.3 2.05 -15.3 2.2 -15.25 2.4 -15.3 L2.8 -15.35 Q2.95 -15.35 3.1 -15.45 3.35 -15.55 3.55 -15.7 L3.75 -15.85 4.0 -16.25 4.2 -16.55 4.35 -16.85 Q4.5 -17.25 4.55 -17.65 4.6 -18.05 4.45 -18.25 L3.95 -19.05 3.8 -19.05 3.0 -18.3 Q3.15 -18.2 3.15 -18.0 M2.65 -17.85 L2.0 -16.8 2.15 -16.8 Q2.35 -16.85 2.6 -17.1 2.85 -17.35 2.85 -17.55 2.85 -17.65 2.75 -17.9 L2.65 -17.85 M12.6 -10.9 L12.55 -11.6 12.5 -11.8 11.9 -11.7 10.9 -11.55 10.2 -11.5 9.35 -11.4 9.0 -11.35 8.2 -11.3 8.15 -11.3 7.4 -10.85 7.3 -10.85 7.5 -10.45 7.4 -9.75 Q7.8 -10.1 8.3 -10.3 8.35 -9.25 7.3 -9.25 6.95 -9.2 6.7 -9.25 L4.3 -9.1 4.05 -9.6 Q4.0 -9.55 3.9 -9.55 3.75 -9.45 3.55 -9.3 L3.15 -8.8 3.1 -8.75 3.4 -8.75 Q4.35 -8.65 4.65 -7.6 4.75 -7.3 4.75 -6.95 4.8 -6.75 4.75 -6.55 L4.75 -6.35 Q4.75 -6.15 4.7 -6.0 4.6 -5.55 4.35 -5.3 L4.2 -5.15 4.15 -5.05 3.7 -4.75 Q3.45 -4.55 3.15 -4.45 L2.8 -4.3 2.65 -4.25 2.7 -4.2 Q2.6 -4.05 2.4 -4.0 L2.5 -3.7 2.6 -3.6 Q2.75 -3.2 3.1 -2.9 L3.3 -2.7 Q5.4 -4.65 7.9 -5.9 9.55 -6.75 8.65 -8.3 L8.45 -8.7 Q8.3 -9.1 8.3 -9.5 8.5 -9.6 8.75 -9.65 L9.1 -9.65 Q9.25 -9.6 9.4 -9.55 9.7 -9.45 9.95 -9.1 L10.05 -9.45 10.0 -9.55 9.95 -9.6 9.9 -9.7 9.85 -9.75 Q9.8 -9.75 9.8 -9.8 L9.8 -9.9 9.85 -9.9 9.85 -10.0 9.9 -10.15 Q9.95 -10.2 10.0 -10.15 10.0 -10.2 10.05 -10.15 10.2 -10.1 10.35 -10.0 L10.4 -10.0 10.5 -9.9 10.6 -9.7 11.0 -9.25 11.0 -9.1 10.9 -9.1 Q10.0 -8.6 9.9 -7.6 9.8 -6.5 8.95 -6.0 L8.6 -5.75 8.4 -5.65 7.5 -5.1 7.1 -4.85 Q6.85 -4.7 6.65 -4.55 L5.05 -3.3 5.45 -2.85 5.9 -2.15 Q8.15 -2.75 9.6 -4.7 9.8 -5.0 10.15 -5.1 11.2 -5.5 12.3 -5.55 L13.15 -5.55 13.1 -5.85 12.65 -9.85 12.65 -9.95 12.6 -10.9 M6.55 -10.25 Q6.1 -10.15 5.85 -9.8 6.65 -9.65 7.25 -10.25 L7.2 -10.3 7.1 -10.4 Q6.9 -10.65 6.55 -10.45 L6.55 -10.25 M9.0 -9.1 L9.35 -8.25 9.65 -8.75 9.05 -9.1 9.0 -9.1 M-1.65 -5.3 L-1.65 -5.25 -1.35 -4.35 -1.2 -4.05 Q-1.05 -3.9 -0.85 -3.85 0.0 -3.75 0.6 -4.05 0.9 -4.25 1.2 -4.5 2.3 -4.9 2.65 -5.05 3.95 -5.65 4.05 -6.75 4.1 -7.15 4.05 -7.4 3.95 -7.8 3.65 -8.1 L3.3 -8.15 Q3.2 -8.2 3.15 -8.2 L2.9 -8.2 Q2.8 -8.1 2.65 -7.95 L2.6 -7.9 2.55 -7.8 2.55 -7.5 Q2.6 -7.4 2.6 -7.3 L2.6 -7.1 2.55 -6.9 2.5 -6.85 Q2.45 -6.8 2.35 -6.8 2.1 -6.8 2.05 -7.15 L2.0 -7.3 Q1.9 -7.6 1.95 -7.75 1.95 -7.95 2.05 -8.1 2.15 -8.3 2.4 -8.5 L2.4 -8.75 Q2.45 -9.05 2.8 -9.6 L2.85 -9.6 2.95 -9.7 3.1 -9.9 Q3.3 -10.1 3.55 -10.25 L3.65 -10.25 Q4.0 -10.45 4.5 -10.6 L5.95 -11.3 4.75 -11.3 3.1 -11.35 2.0 -11.4 1.65 -11.45 1.55 -11.3 1.55 -11.0 1.6 -10.9 1.6 -10.75 1.55 -10.6 1.3 -10.55 Q1.0 -10.6 0.9 -10.95 L0.65 -10.95 0.4 -11.0 Q0.35 -11.0 0.4 -11.1 0.4 -11.3 0.6 -11.5 L0.7 -11.55 0.75 -11.6 0.4 -11.6 0.3 -11.65 Q0.05 -11.7 -0.15 -11.8 -0.5 -11.6 -1.0 -11.45 L-1.7 -11.1 Q-2.05 -10.9 -2.2 -10.65 L-2.2 -10.55 -2.35 -10.0 -2.35 -9.95 Q-2.4 -9.4 -2.35 -8.5 L-2.2 -6.9 -2.1 -6.55 -2.05 -6.4 -2.0 -6.15 -2.0 -6.1 -1.95 -6.1 -1.9 -5.9 -1.65 -5.3 M5.35 -9.7 Q5.4 -9.7 5.4 -9.75 L5.4 -9.8 5.15 -9.7 5.35 -9.7 M16.8 -11.2 L16.85 -11.35 17.15 -11.3 Q19.5 -13.45 22.5 -14.05 22.95 -14.15 23.1 -13.8 23.0 -13.5 22.8 -13.3 L22.4 -13.0 22.35 -12.9 22.5 -12.75 24.05 -14.6 24.1 -14.85 24.05 -14.95 Q21.0 -15.05 18.35 -13.55 17.5 -13.1 16.95 -12.45 L16.8 -12.45 Q16.5 -12.25 16.35 -12.0 16.25 -11.8 16.05 -11.8 L15.75 -11.7 15.6 -11.1 15.6 -11.0 15.55 -10.9 15.4 -10.85 15.35 -10.85 15.35 -10.8 Q15.25 -10.6 15.05 -10.6 L14.85 -10.55 14.9 -9.5 14.9 -9.0 Q16.25 -9.55 17.35 -8.5 L17.4 -8.55 17.65 -8.75 Q17.85 -8.9 18.05 -8.9 L18.15 -8.9 Q17.85 -9.0 17.55 -9.2 L17.45 -9.1 17.25 -9.2 Q17.55 -10.25 16.85 -11.15 L16.8 -11.2 M22.1 -13.25 L22.15 -13.4 21.3 -13.2 21.6 -12.75 21.6 -13.15 Q21.65 -13.1 21.65 -13.15 21.8 -13.25 21.9 -13.25 L22.1 -13.25 M22.1 -12.95 L22.0 -12.85 22.0 -12.8 Q21.95 -12.6 22.1 -12.3 22.25 -11.95 22.7 -11.35 L23.0 -11.0 Q23.7 -10.2 24.3 -10.15 24.5 -10.1 24.65 -10.15 24.75 -10.2 24.85 -10.25 L25.0 -10.45 Q25.05 -10.55 25.1 -10.65 L24.45 -10.65 24.25 -10.7 23.9 -10.8 Q23.4 -11.05 22.95 -11.6 L22.8 -11.75 Q22.5 -12.15 22.3 -12.5 22.2 -12.6 22.15 -12.75 L22.1 -12.95 M21.15 -12.6 L20.9 -13.05 20.0 -12.7 19.9 -12.65 19.95 -12.6 20.2 -12.25 20.2 -12.2 20.4 -11.5 19.75 -10.8 19.0 -10.1 17.95 -10.1 17.85 -9.6 17.85 -9.5 19.0 -9.3 19.05 -9.25 19.0 -9.05 18.65 -8.9 Q18.65 -8.8 18.55 -8.6 18.35 -8.35 18.35 -8.2 L18.35 -8.05 19.05 -8.05 19.0 -8.25 19.25 -9.25 Q19.85 -10.5 21.2 -11.05 L21.7 -11.2 21.6 -11.45 21.2 -12.6 21.15 -12.6 M23.1 -11.95 L23.1 -11.95 M17.8 -11.45 Q17.55 -11.3 17.4 -11.1 L17.9 -10.4 18.35 -10.5 18.8 -10.5 19.75 -11.6 19.5 -12.5 Q18.6 -12.05 17.8 -11.45 M17.45 -7.2 L17.45 -7.05 Q17.4 -6.55 17.6 -6.0 17.85 -5.15 18.55 -5.2 18.8 -5.25 19.0 -5.4 18.3 -5.8 18.0 -6.7 L17.95 -6.95 Q17.85 -7.45 17.85 -8.05 L17.85 -8.05 17.75 -7.95 Q17.45 -7.65 17.45 -7.2 M20.2 -7.35 Q20.05 -7.3 19.9 -7.35 L19.85 -7.4 Q19.85 -7.35 19.6 -7.25 19.5 -7.25 19.45 -7.05 19.4 -7.05 19.4 -7.0 L19.4 -6.85 19.45 -6.65 Q19.4 -6.45 19.2 -6.2 L19.05 -6.0 19.4 -5.7 19.55 -5.7 Q19.95 -6.0 19.95 -6.3 19.95 -6.4 20.1 -6.7 L20.2 -7.1 20.2 -7.35 M22.6 -9.9 L22.7 -9.9 Q22.9 -9.75 23.0 -9.5 L23.2 -9.35 23.25 -9.35 23.65 -9.1 23.75 -9.05 23.7 -9.2 23.55 -9.5 23.55 -9.7 Q23.2 -9.85 22.9 -10.2 22.7 -10.35 22.55 -10.55 L21.6 -9.65 Q22.05 -9.45 22.25 -8.7 22.4 -8.15 22.35 -7.25 L22.35 -7.2 22.55 -7.85 Q22.6 -8.2 22.6 -8.45 L22.5 -9.0 22.4 -9.65 22.4 -9.75 22.5 -9.75 22.55 -9.65 22.55 -9.75 Q22.55 -9.85 22.6 -9.9 M21.1 -9.1 L20.55 -8.45 20.55 -8.4 Q20.65 -8.25 20.65 -8.0 L20.7 -7.9 Q21.05 -7.6 21.25 -7.15 L21.45 -6.4 21.55 -6.55 21.75 -7.1 21.8 -7.4 Q21.8 -7.9 21.55 -8.3 L21.1 -9.1 M15.55 -12.05 L15.35 -12.05 14.8 -12.0 15.2 -11.7 15.45 -11.95 15.55 -11.95 15.6 -12.0 15.55 -12.05 M15.0 -11.1 L15.1 -11.25 Q14.95 -11.35 14.75 -11.5 L14.8 -11.0 15.05 -11.0 15.0 -11.1 M13.55 -9.9 L13.75 -7.45 14.2 -7.4 14.2 -9.4 Q13.85 -9.45 13.65 -9.75 L13.55 -9.9 M15.35 -7.75 Q15.45 -8.1 15.5 -8.45 L14.9 -8.15 14.95 -7.0 15.05 -7.15 Q15.2 -7.4 15.35 -7.75 M19.0 -6.95 L18.45 -6.9 Q18.55 -6.65 18.75 -6.45 L18.95 -6.65 19.0 -6.95 M23.9 -12.55 L23.85 -12.45 Q24.0 -12.3 24.15 -12.05 24.4 -11.5 24.4 -11.1 L24.55 -11.05 24.9 -11.1 25.05 -11.3 25.1 -11.3 Q24.95 -11.6 24.65 -12.0 L24.05 -12.65 23.9 -12.55 M23.35 -12.05 L23.4 -11.9 23.4 -11.75 23.3 -11.7 Q23.55 -11.4 23.95 -11.25 L23.8 -11.55 23.5 -12.25 23.45 -12.25 23.3 -12.1 23.35 -12.05" fill="#111111" fill-rule="evenodd" stroke="none"/>
    <path d="M0.2 -12.45 L0.85 -12.35 1.25 -12.3 0.8 -12.3 0.2 -12.35 0.2 -12.45" fill="#990000" fill-rule="evenodd" stroke="none"/>
    <path d="M7.4 -10.85 L7.4 -10.8 Q7.55 -10.7 7.5 -10.45 L7.3 -10.85 7.4 -10.85 M5.35 -9.7 L5.4 -9.8 5.4 -9.75 Q5.4 -9.7 5.35 -9.7" fill="#4c9999" fill-rule="evenodd" stroke="none"/>
    <path d="M5.4 -9.8 L5.35 -9.7 5.15 -9.7 5.4 -9.8 M15.35 -10.8 L15.35 -10.85 15.4 -10.85 15.35 -10.8 M21.2 -12.6 L21.15 -12.55 21.15 -12.6 21.2 -12.6 M20.0 -12.7 L19.95 -12.6 19.9 -12.65 20.0 -12.7 M20.2 -12.25 L20.3 -12.2 20.2 -12.2 20.2 -12.25" fill="#397373" fill-rule="evenodd" stroke="none"/>
    <path d="M7.2 -10.3 L7.25 -10.25 Q6.65 -9.65 5.85 -9.8 6.1 -10.15 6.55 -10.25 L6.55 -10.15 6.6 -10.1 Q7.0 -9.9 7.2 -10.3" fill="#65cccc" fill-rule="evenodd" stroke="none"/>
    <path d="M22.1 -12.95 L22.15 -12.75 Q22.2 -12.6 22.3 -12.5 22.5 -12.15 22.8 -11.75 L22.95 -11.6 Q23.4 -11.05 23.9 -10.8 L24.25 -10.7 24.45 -10.65 25.1 -10.65 Q25.05 -10.55 25.0 -10.45 L24.85 -10.25 Q24.75 -10.2 24.65 -10.15 24.5 -10.1 24.3 -10.15 23.7 -10.2 23.0 -11.0 L22.7 -11.35 Q22.25 -11.95 22.1 -12.3 21.95 -12.6 22.0 -12.8 L22.0 -12.85 22.1 -12.95 M20.2 -7.35 L20.2 -7.1 20.1 -6.7 Q19.95 -6.4 19.95 -6.3 19.95 -6.0 19.55 -5.7 L19.4 -5.7 19.05 -6.0 19.2 -6.2 Q19.4 -6.45 19.45 -6.65 L19.4 -6.85 19.4 -7.0 Q19.4 -7.05 19.45 -7.05 19.5 -7.25 19.6 -7.25 19.85 -7.35 19.85 -7.4 L19.9 -7.35 Q20.05 -7.3 20.2 -7.35 M17.45 -7.2 Q17.45 -7.65 17.75 -7.95 L17.85 -8.05 17.85 -8.05 Q17.85 -7.45 17.95 -6.95 L18.0 -6.7 Q18.3 -5.8 19.0 -5.4 18.8 -5.25 18.55 -5.2 17.85 -5.15 17.6 -6.0 17.4 -6.55 17.45 -7.05 L17.45 -7.2 M23.9 -12.55 L24.05 -12.65 24.65 -12.0 Q24.95 -11.6 25.1 -11.3 L25.05 -11.3 24.9 -11.1 24.55 -11.05 24.4 -11.1 Q24.4 -11.5 24.15 -12.05 24.0 -12.3 23.85 -12.45 L23.9 -12.55" fill="#d6c966" fill-rule="evenodd" stroke="none"/>
    <path d="M15.55 -12.05 L15.6 -12.0 15.55 -11.95 15.45 -11.95 15.2 -11.7 14.8 -12.0 15.35 -12.05 15.55 -12.05 M13.55 -9.9 L13.65 -9.75 Q13.85 -9.45 14.2 -9.4 L14.2 -7.4 13.75 -7.45 13.55 -9.9" fill="#666666" fill-rule="evenodd" stroke="none"/>
    <path d="M9.0 -11.35 L8.3 -11.15 8.15 -11.3 8.2 -11.3 9.0 -11.35 M8.3 -10.3 L8.5 -10.7 9.1 -10.65 11.7 -10.8 Q11.85 -10.15 12.05 -9.1 12.55 -7.0 12.55 -6.1 12.55 -5.8 12.3 -5.55 11.2 -5.5 10.15 -5.1 9.8 -5.0 9.6 -4.7 8.15 -2.75 5.9 -2.15 L5.45 -2.85 6.85 -4.6 6.6 -4.5 6.65 -4.55 Q6.85 -4.7 7.1 -4.85 L7.5 -5.1 Q8.2 -5.4 8.6 -5.75 L8.95 -6.0 Q9.8 -6.5 9.9 -7.6 10.0 -8.6 10.9 -9.1 L11.0 -9.1 11.0 -9.25 10.6 -9.7 10.5 -9.9 10.4 -10.0 10.35 -10.0 Q10.2 -10.1 10.05 -10.15 10.0 -10.2 10.0 -10.15 9.95 -10.2 9.9 -10.15 L9.85 -10.0 9.85 -9.9 9.8 -9.9 9.8 -9.8 Q9.8 -9.75 9.85 -9.75 L9.9 -9.7 9.95 -9.6 10.0 -9.55 10.05 -9.45 9.95 -9.1 Q9.7 -9.45 9.4 -9.55 9.25 -9.6 9.1 -9.65 L8.75 -9.65 Q8.5 -9.6 8.3 -9.5 8.3 -9.1 8.45 -8.7 L8.25 -8.55 8.3 -7.45 Q8.3 -6.75 7.8 -6.35 L6.5 -5.55 4.9 -4.6 Q3.45 -3.75 3.15 -3.05 3.35 -3.95 3.7 -4.75 L4.15 -5.05 4.2 -5.15 4.35 -5.3 Q4.6 -5.55 4.7 -6.0 4.75 -6.15 4.75 -6.35 L4.75 -6.55 4.85 -6.6 5.1 -6.95 5.05 -7.05 5.3 -8.1 7.7 -7.95 7.8 -8.05 7.65 -8.25 Q7.3 -8.85 6.7 -9.25 6.95 -9.2 7.3 -9.25 8.35 -9.25 8.3 -10.3 M12.65 -9.95 L12.65 -10.0 12.4 -10.9 12.6 -10.9 12.65 -9.95 M1.6 -10.9 L1.65 -11.0 1.95 -11.0 3.0 -11.05 4.05 -11.0 4.0 -10.95 3.35 -10.7 Q2.25 -10.5 1.7 -9.7 1.25 -9.0 1.25 -8.1 1.3 -7.65 1.4 -7.2 1.55 -6.35 1.9 -6.35 2.55 -6.35 2.8 -6.9 L2.95 -7.3 Q3.05 -7.55 3.2 -7.7 L3.35 -7.55 3.35 -7.5 Q3.35 -6.65 2.2 -5.8 1.05 -4.95 -0.25 -4.95 -1.3 -4.95 -1.65 -5.3 L-1.9 -5.9 -1.95 -6.15 Q-1.95 -6.35 -2.1 -6.55 L-2.2 -6.9 -2.35 -8.5 Q-2.4 -9.4 -2.35 -9.95 L-2.35 -10.0 -2.2 -10.55 -2.2 -10.65 Q-2.05 -10.9 -1.7 -11.1 L-1.0 -11.45 Q-0.5 -11.6 -0.15 -11.8 0.05 -11.7 0.3 -11.65 L0.4 -11.6 Q0.15 -11.45 0.15 -11.2 0.15 -10.9 0.25 -10.65 0.45 -10.1 0.95 -10.1 L1.3 -10.55 1.55 -10.6 1.6 -10.75 1.6 -10.9 M10.2 -6.8 Q10.55 -6.5 10.85 -6.75 12.35 -7.9 11.05 -8.65 11.1 -7.55 10.2 -6.8 M16.8 -11.2 L16.85 -11.15 Q17.55 -10.25 17.25 -9.2 L17.45 -9.1 17.55 -9.2 Q17.85 -9.0 18.15 -8.9 L18.05 -8.9 Q17.85 -8.9 17.65 -8.75 17.1 -9.25 16.45 -9.7 L16.35 -9.65 Q16.15 -9.7 15.95 -9.65 L14.9 -9.5 14.85 -10.55 15.05 -10.6 Q15.25 -10.6 15.35 -10.8 L15.4 -10.85 15.55 -10.9 15.7 -10.8 Q16.05 -10.55 16.45 -10.6 L16.65 -10.85 16.5 -10.9 Q16.05 -11.25 16.05 -11.8 16.25 -11.8 16.35 -12.0 16.5 -12.25 16.8 -12.45 L16.95 -12.45 Q17.5 -13.1 18.35 -13.55 21.0 -15.05 24.05 -14.95 L24.1 -14.85 24.05 -14.6 Q21.45 -14.3 18.95 -13.4 17.3 -12.8 16.75 -11.25 L16.8 -11.2 M21.15 -12.6 L21.15 -12.55 21.2 -12.6 21.6 -11.45 19.75 -10.8 20.4 -11.5 20.2 -12.2 20.3 -12.2 20.2 -12.25 19.95 -12.6 20.0 -12.7 20.9 -13.05 21.15 -12.6" fill="#c7a36d" fill-rule="evenodd" stroke="none"/>
    <path d="M9.0 -11.35 L9.35 -11.4 10.2 -11.5 10.9 -11.55 11.9 -11.7 12.5 -11.8 12.55 -11.6 12.6 -10.9 12.4 -10.9 12.65 -10.0 12.65 -9.95 12.65 -9.85 13.1 -5.85 13.15 -5.55 12.3 -5.55 Q12.55 -5.8 12.55 -6.1 12.55 -7.0 12.05 -9.1 11.85 -10.15 11.7 -10.8 L9.1 -10.65 8.5 -10.7 8.3 -10.3 Q7.8 -10.1 7.4 -9.75 L7.5 -10.45 Q7.55 -10.7 7.4 -10.8 L7.4 -10.85 8.15 -11.3 8.3 -11.15 9.0 -11.35 M6.7 -9.25 Q7.3 -8.85 7.65 -8.25 L7.8 -8.05 7.7 -7.95 5.3 -8.1 5.05 -7.05 5.1 -6.95 4.85 -6.6 4.75 -6.55 Q4.8 -6.75 4.75 -6.95 4.75 -7.3 4.65 -7.6 4.35 -8.65 3.4 -8.75 L3.1 -8.75 3.15 -8.8 3.55 -9.3 Q3.75 -9.45 3.9 -9.55 4.0 -9.55 4.05 -9.6 L4.3 -9.1 6.7 -9.25 M3.7 -4.75 Q3.35 -3.95 3.15 -3.05 3.45 -3.75 4.9 -4.6 L6.5 -5.55 7.8 -6.35 Q8.3 -6.75 8.3 -7.45 L8.25 -8.55 8.45 -8.7 8.65 -8.3 Q9.55 -6.75 7.9 -5.9 5.4 -4.65 3.3 -2.7 L3.1 -2.9 Q2.75 -3.2 2.6 -3.6 L2.5 -3.7 2.4 -4.0 Q2.6 -4.05 2.7 -4.2 L2.65 -4.25 2.8 -4.3 3.15 -4.45 Q3.45 -4.55 3.7 -4.75 M8.6 -5.75 Q8.2 -5.4 7.5 -5.1 L8.4 -5.65 8.6 -5.75 M6.65 -4.55 L6.6 -4.5 6.85 -4.6 5.45 -2.85 5.05 -3.3 6.65 -4.55 M1.6 -10.9 L1.55 -11.0 1.55 -11.3 1.65 -11.45 2.0 -11.4 3.1 -11.35 4.75 -11.3 5.95 -11.3 4.5 -10.6 Q4.0 -10.45 3.65 -10.25 L3.55 -10.25 Q3.3 -10.1 3.1 -9.9 L2.95 -9.7 2.85 -9.6 2.8 -9.6 Q2.45 -9.05 2.4 -8.75 L2.4 -8.5 Q2.15 -8.3 2.05 -8.1 1.95 -7.95 1.95 -7.75 1.9 -7.6 2.0 -7.3 L2.05 -7.15 Q2.1 -6.8 2.35 -6.8 2.45 -6.8 2.5 -6.85 L2.55 -6.9 2.6 -7.1 2.6 -7.3 Q2.6 -7.4 2.55 -7.5 L2.55 -7.8 2.6 -7.9 2.65 -7.95 Q2.8 -8.1 2.9 -8.2 L3.15 -8.2 Q3.2 -8.2 3.3 -8.15 L3.65 -8.1 Q3.95 -7.8 4.05 -7.4 4.1 -7.15 4.05 -6.75 3.95 -5.65 2.65 -5.05 2.3 -4.9 1.2 -4.5 0.9 -4.25 0.6 -4.05 0.0 -3.75 -0.85 -3.85 -1.05 -3.9 -1.2 -4.05 L-1.35 -4.35 -1.65 -5.25 -1.65 -5.3 Q-1.3 -4.95 -0.25 -4.95 1.05 -4.95 2.2 -5.8 3.35 -6.65 3.35 -7.5 L3.35 -7.55 3.2 -7.7 Q3.05 -7.55 2.95 -7.3 L2.8 -6.9 Q2.55 -6.35 1.9 -6.35 1.55 -6.35 1.4 -7.2 1.3 -7.65 1.25 -8.1 1.25 -9.0 1.7 -9.7 2.25 -10.5 3.35 -10.7 L4.0 -10.95 4.05 -11.0 3.0 -11.05 1.95 -11.0 1.65 -11.0 1.6 -10.9 M-1.9 -5.9 L-1.95 -6.1 -2.0 -6.1 -2.0 -6.15 -2.05 -6.4 -2.1 -6.55 Q-1.95 -6.35 -1.95 -6.15 L-1.9 -5.9 M0.4 -11.6 L0.75 -11.6 0.7 -11.55 0.6 -11.5 Q0.4 -11.3 0.4 -11.1 0.35 -11.0 0.4 -11.0 L0.65 -10.95 0.9 -10.95 Q1.0 -10.6 1.3 -10.55 L0.95 -10.1 Q0.45 -10.1 0.25 -10.65 0.15 -10.9 0.15 -11.2 0.15 -11.45 0.4 -11.6 M10.2 -6.8 Q11.1 -7.55 11.05 -8.65 12.35 -7.9 10.85 -6.75 10.55 -6.5 10.2 -6.8 M24.05 -14.6 L22.5 -12.75 22.35 -12.9 22.4 -13.0 22.8 -13.3 Q23.0 -13.5 23.1 -13.8 22.95 -14.15 22.5 -14.05 19.5 -13.45 17.15 -11.3 L16.85 -11.35 16.8 -11.2 16.75 -11.25 Q17.3 -12.8 18.95 -13.4 21.45 -14.3 24.05 -14.6 M17.65 -8.75 L17.4 -8.55 17.35 -8.5 Q16.25 -9.55 14.9 -9.0 L14.9 -9.5 15.95 -9.65 Q16.15 -9.7 16.35 -9.65 L16.45 -9.7 Q17.1 -9.25 17.65 -8.75 M15.55 -10.9 L15.6 -11.0 15.6 -11.1 15.75 -11.7 16.05 -11.8 Q16.05 -11.25 16.5 -10.9 L16.65 -10.85 16.45 -10.6 Q16.05 -10.55 15.7 -10.8 L15.55 -10.9 M22.1 -13.25 L21.9 -13.25 Q21.8 -13.25 21.65 -13.15 21.65 -13.1 21.6 -13.15 L21.6 -12.75 21.3 -13.2 22.15 -13.4 22.1 -13.25 M19.75 -10.8 L21.6 -11.45 21.7 -11.2 21.2 -11.05 Q19.85 -10.5 19.25 -9.25 L19.0 -8.25 19.05 -8.05 18.35 -8.05 18.35 -8.2 Q18.35 -8.35 18.55 -8.6 18.65 -8.8 18.65 -8.9 L19.0 -9.05 19.05 -9.25 19.0 -9.3 17.85 -9.5 17.85 -9.6 17.95 -10.1 19.0 -10.1 19.75 -10.8 M17.8 -11.45 Q18.6 -12.05 19.5 -12.5 L19.75 -11.6 18.8 -10.5 18.35 -10.5 17.9 -10.4 17.4 -11.1 Q17.55 -11.3 17.8 -11.45 M15.0 -11.1 L15.05 -11.0 14.8 -11.0 14.75 -11.5 Q14.95 -11.35 15.1 -11.25 L15.0 -11.1 M15.35 -7.75 Q15.2 -7.4 15.05 -7.15 L14.95 -7.0 14.9 -8.15 15.5 -8.45 Q15.45 -8.1 15.35 -7.75" fill="#a9854f" fill-rule="evenodd" stroke="none"/>
    <path d="M16.45 -15.55 L16.35 -15.55 14.9 -15.75 14.2 -15.85 12.2 -16.25 Q9.65 -16.8 9.45 -16.8 L8.5 -16.8 Q7.55 -16.75 7.45 -16.8 7.1 -16.8 6.8 -16.65 L6.55 -16.6 Q6.15 -16.35 6.15 -16.1 L6.15 -15.85 6.2 -15.7 6.25 -15.65 Q6.3 -15.55 6.45 -15.5 6.45 -15.4 6.55 -15.25 L6.6 -15.2 Q6.65 -15.15 6.7 -15.05 6.9 -14.95 7.15 -14.95 L8.5 -14.75 Q9.15 -14.65 10.0 -14.4 L10.65 -14.25 13.35 -13.45 13.1 -13.4 12.95 -13.4 11.4 -13.35 10.0 -13.35 8.2 -13.3 7.7 -13.3 6.1 -13.35 5.75 -13.35 Q5.55 -13.25 5.3 -13.4 L4.3 -13.45 3.55 -13.5 1.95 -13.65 1.05 -13.65 Q0.6 -13.6 0.3 -13.45 0.3 -13.5 0.35 -13.55 L0.5 -13.85 Q0.5 -14.3 0.95 -15.1 L1.05 -15.0 Q1.3 -14.8 1.65 -14.75 L2.25 -14.75 2.8 -14.8 Q3.1 -14.85 3.4 -14.95 L4.05 -15.35 4.5 -15.85 Q4.65 -16.05 4.75 -16.3 4.95 -16.55 5.0 -16.8 L5.1 -17.35 Q5.15 -18.15 4.9 -18.8 4.65 -19.3 4.25 -19.4 L5.1 -20.1 5.6 -20.65 5.6 -20.6 5.85 -20.65 Q5.9 -20.55 6.05 -20.5 6.2 -20.3 6.45 -20.15 6.8 -19.95 8.1 -19.3 L11.1 -17.65 Q11.8 -17.35 14.8 -16.2 L15.95 -15.7 16.45 -15.55 M2.65 -17.85 L2.75 -17.9 Q2.85 -17.65 2.85 -17.55 2.85 -17.35 2.6 -17.1 2.35 -16.85 2.15 -16.8 L2.0 -16.8 2.65 -17.85" fill="#b00000" fill-rule="evenodd" stroke="none"/>
    <path d="M0.3 -13.45 Q0.6 -13.6 1.05 -13.65 L1.95 -13.65 3.55 -13.5 4.3 -13.45 5.3 -13.4 Q5.55 -13.25 5.75 -13.35 L6.1 -13.35 7.7 -13.3 8.2 -13.3 10.0 -13.35 11.4 -13.35 12.95 -13.4 13.1 -13.4 13.35 -13.45 10.65 -14.25 10.0 -14.4 Q9.15 -14.65 8.5 -14.75 L7.15 -14.95 Q6.9 -14.95 6.7 -15.05 6.65 -15.15 6.6 -15.2 L6.55 -15.25 Q6.45 -15.4 6.45 -15.5 6.3 -15.55 6.25 -15.65 L6.2 -15.7 6.15 -15.85 6.15 -16.1 Q6.15 -16.35 6.55 -16.6 L6.8 -16.65 Q7.1 -16.8 7.45 -16.8 7.55 -16.75 8.5 -16.8 L9.45 -16.8 Q9.65 -16.8 12.2 -16.25 L14.2 -15.85 14.9 -15.75 16.35 -15.55 16.45 -15.55 17.6 -15.15 Q18.05 -14.95 18.3 -14.95 L18.1 -14.75 17.05 -14.0 16.95 -13.95 Q16.55 -14.2 16.0 -14.45 15.75 -14.55 14.65 -14.8 L13.75 -15.1 13.5 -15.15 12.1 -15.6 11.1 -15.9 Q11.0 -15.95 10.95 -15.95 L10.5 -16.05 Q10.0 -16.25 9.5 -16.3 L9.4 -16.3 8.95 -16.4 8.5 -16.4 7.9 -16.35 Q7.4 -16.2 7.4 -16.05 7.35 -15.95 7.4 -15.85 7.4 -15.8 7.5 -15.75 L7.9 -15.85 8.35 -15.95 Q8.85 -15.9 10.25 -15.45 L10.5 -15.35 11.0 -15.25 11.85 -14.95 12.5 -14.8 13.7 -14.45 14.7 -14.15 15.85 -13.85 16.7 -13.65 16.4 -13.2 16.25 -13.0 16.05 -12.65 15.95 -12.75 14.6 -12.55 14.0 -12.5 12.5 -12.35 12.5 -12.3 12.0 -12.25 11.45 -12.25 Q11.4 -12.25 11.35 -12.3 L10.85 -12.2 10.25 -12.15 8.5 -12.05 Q7.7 -12.0 7.4 -11.85 L7.3 -11.85 1.25 -12.3 0.85 -12.35 0.2 -12.45 0.2 -13.0 Q0.15 -13.1 0.2 -13.2 L0.3 -13.45" fill="#600000" fill-rule="evenodd" stroke="none"/>
    <path d="M8.1 -19.85 Q8.3 -20.0 8.7 -20.15 L10.1 -20.9 10.35 -21.0 10.65 -20.85 10.65 -20.65 Q10.65 -20.55 10.4 -20.2 10.2 -19.9 10.2 -19.8 10.3 -19.7 10.6 -19.65 11.6 -19.6 13.0 -20.0 13.8 -20.25 14.35 -20.55 14.4 -20.55 15.65 -21.15 16.9 -21.65 16.85 -21.1 16.85 -20.9 16.2 -20.15 15.55 -19.35 15.55 -19.3 L15.5 -19.3 15.45 -19.25 17.35 -19.35 Q19.0 -19.4 19.6 -19.35 20.75 -19.25 21.6 -18.95 22.4 -18.65 22.5 -18.35 22.05 -18.25 20.85 -17.8 L19.55 -17.35 19.5 -17.3 Q20.15 -17.3 20.5 -17.1 L21.2 -16.75 21.85 -16.35 Q22.25 -16.1 22.25 -15.95 L21.6 -15.8 20.3 -15.45 19.75 -15.3 19.15 -15.15 19.0 -15.15 18.65 -15.3 18.45 -15.45 17.95 -15.6 15.65 -16.55 12.0 -18.05 Q10.0 -18.9 9.8 -19.0 9.0 -19.35 8.5 -19.6 L8.15 -19.8 8.15 -19.85 8.1 -19.85" fill="#002040" fill-rule="evenodd" stroke="none"/>
    <path d="M24.75 -19.3 L24.65 -19.3 24.55 -19.35 24.7 -19.3 24.75 -19.3 M23.4 -8.7 L23.05 -8.9 23.05 -8.95 23.25 -8.8 23.4 -8.7 M7.7 -24.15 L7.95 -25.5 8.0 -25.6 Q7.9 -24.9 7.75 -24.3 L7.7 -24.15 M8.1 -26.25 L8.1 -26.35 8.15 -26.85 8.15 -26.9 8.2 -26.85 8.1 -26.25 M8.1 -19.85 Q7.9 -20.0 7.45 -20.2 L6.85 -20.55 6.35 -20.85 6.3 -20.9 Q7.1 -21.45 7.75 -22.95 8.55 -24.75 8.55 -25.95 L8.55 -26.0 9.2 -24.55 9.15 -24.45 9.35 -24.5 Q9.45 -24.6 9.5 -24.8 L9.55 -24.8 Q10.1 -25.2 11.05 -25.65 L12.7 -26.45 Q14.75 -27.45 15.25 -28.55 L15.25 -28.5 Q15.05 -28.05 14.8 -27.25 14.45 -26.25 14.45 -25.85 L14.5 -25.65 14.45 -25.45 14.45 -25.3 14.5 -25.25 14.6 -25.3 14.65 -25.25 14.85 -25.5 15.65 -26.1 16.75 -26.85 Q17.45 -27.2 19.8 -27.7 L20.7 -27.9 Q20.1 -27.55 19.45 -27.0 18.25 -25.95 18.25 -25.15 18.25 -25.0 18.25 -24.95 L18.45 -24.9 18.55 -24.95 18.6 -25.2 18.7 -25.2 18.75 -25.25 20.0 -25.15 Q20.25 -25.05 20.45 -24.9 21.15 -24.45 22.3 -23.15 23.6 -21.7 24.2 -21.2 25.3 -20.3 26.4 -20.3 L26.5 -20.3 26.15 -20.0 25.15 -19.85 Q24.35 -19.7 24.15 -19.45 L23.9 -19.45 24.1 -19.3 24.05 -19.3 24.2 -19.15 Q24.8 -18.65 25.15 -17.85 L25.8 -16.15 Q26.15 -15.15 26.7 -14.55 27.25 -13.9 28.15 -13.5 L28.1 -13.45 Q27.7 -13.25 26.9 -13.25 26.2 -13.25 25.55 -13.65 25.25 -13.9 25.0 -13.9 L25.0 -13.95 25.2 -14.4 25.2 -14.45 25.25 -14.45 25.25 -14.5 Q25.3 -15.15 25.25 -15.35 25.05 -15.95 24.25 -16.0 23.35 -16.05 22.25 -15.95 22.25 -16.1 21.85 -16.35 L21.2 -16.75 20.5 -17.1 Q20.15 -17.3 19.5 -17.3 L19.55 -17.35 20.85 -17.8 Q22.05 -18.25 22.5 -18.35 22.4 -18.65 21.6 -18.95 20.75 -19.25 19.6 -19.35 19.0 -19.4 17.35 -19.35 L15.45 -19.25 15.5 -19.3 15.55 -19.3 Q15.55 -19.35 16.2 -20.15 16.85 -20.9 16.85 -21.1 16.9 -21.65 15.65 -21.15 14.4 -20.55 14.35 -20.55 13.8 -20.25 13.0 -20.0 11.6 -19.6 10.6 -19.65 10.3 -19.7 10.2 -19.8 10.2 -19.9 10.4 -20.2 10.65 -20.55 10.65 -20.65 L10.65 -20.85 10.35 -21.0 10.1 -20.9 8.7 -20.15 Q8.3 -20.0 8.1 -19.85 M14.65 -25.25 L14.65 -25.25 14.65 -25.25 M22.6 -9.9 Q22.55 -9.85 22.55 -9.75 L22.55 -9.65 22.5 -9.75 22.4 -9.75 22.4 -9.65 22.5 -9.0 22.6 -8.45 Q22.6 -8.2 22.55 -7.85 L22.35 -7.2 22.35 -7.25 Q22.4 -8.15 22.25 -8.7 22.05 -9.45 21.6 -9.65 L22.55 -10.55 Q22.7 -10.35 22.9 -10.2 23.2 -9.85 23.55 -9.7 L23.55 -9.5 23.7 -9.2 23.75 -9.05 23.65 -9.1 23.25 -9.35 23.2 -9.35 23.0 -9.5 Q22.9 -9.75 22.7 -9.9 L22.6 -9.9 M21.1 -9.1 L21.55 -8.3 Q21.8 -7.9 21.8 -7.4 L21.75 -7.1 21.55 -6.55 21.45 -6.4 21.25 -7.15 Q21.05 -7.6 20.7 -7.9 L20.65 -8.0 Q20.65 -8.25 20.55 -8.4 L20.55 -8.45 21.1 -9.1" fill="#003060" fill-rule="evenodd" stroke="none"/>
  </g>
</svg>
