<?xml version="1.0" encoding="UTF-8" standalone="no"?>
<svg xmlns:ffdec="https://www.free-decompiler.com/flash" xmlns:xlink="http://www.w3.org/1999/xlink" ffdec:objectType="shape" height="21.45px" width="15.95px" xmlns="http://www.w3.org/2000/svg">
  <g transform="matrix(1.0, 0.0, 0.0, 1.0, -7.1, 23.9)">
    <path d="M15.8 -19.45 L15.85 -19.45 16.75 -19.8 Q17.95 -20.1 18.9 -19.9 L18.95 -19.95 19.0 -19.85 19.1 -19.8 19.05 -19.85 18.7 -20.55 18.2 -21.35 18.05 -21.5 17.85 -21.8 Q17.45 -22.15 16.7 -22.15 L15.9 -22.1 Q14.25 -21.75 13.05 -20.1 12.65 -19.6 12.35 -19.0 L12.35 -18.95 12.3 -18.9 12.15 -18.6 Q11.9 -17.9 11.9 -17.6 L11.8 -16.2 12.35 -16.2 12.4 -16.25 12.5 -16.15 12.3 -16.05 11.75 -15.95 Q11.3 -15.95 11.05 -16.1 L11.05 -16.0 10.95 -15.4 10.95 -15.25 Q10.9 -14.8 10.55 -14.3 L9.9 -13.45 9.7 -13.25 9.95 -13.25 10.05 -13.2 Q10.3 -13.1 10.45 -12.95 L10.55 -12.9 Q10.7 -12.8 10.7 -12.65 L10.75 -12.55 10.7 -12.6 10.65 -12.55 10.45 -12.7 10.3 -12.8 Q10.15 -12.9 9.9 -12.9 L9.6 -12.85 9.55 -12.85 Q9.45 -12.85 9.35 -12.75 L9.1 -12.45 9.2 -12.15 9.2 -11.8 9.2 -11.7 9.25 -11.8 9.3 -11.8 9.35 -11.9 9.45 -12.0 Q9.55 -12.15 9.75 -12.25 L9.85 -12.25 9.9 -12.3 9.9 -12.25 9.85 -12.25 9.55 -11.95 9.45 -11.8 9.5 -11.8 9.4 -11.7 9.3 -11.4 9.75 -11.5 10.15 -11.55 10.3 -11.55 10.55 -11.45 10.7 -11.35 10.85 -11.2 10.75 -11.35 10.75 -11.35 Q10.75 -11.45 10.75 -11.4 L10.9 -11.3 11.0 -11.2 Q11.1 -11.15 11.1 -11.05 L11.1 -11.0 11.05 -10.95 11.05 -10.9 11.05 -10.8 11.0 -10.85 11.0 -10.8 10.95 -10.85 10.95 -10.8 Q10.95 -10.7 10.75 -10.55 10.45 -10.4 10.0 -10.4 9.6 -10.4 9.35 -10.65 L9.25 -10.8 9.25 -10.6 9.3 -10.25 9.4 -9.35 9.4 -9.25 Q9.55 -8.7 9.75 -8.2 9.9 -7.9 10.05 -7.6 L10.15 -7.5 10.3 -7.25 Q11.0 -6.4 12.1 -5.7 12.4 -5.55 12.75 -5.4 L12.9 -5.35 13.0 -5.35 13.3 -5.25 13.4 -5.25 Q13.6 -5.3 13.8 -5.4 L14.15 -5.55 Q14.75 -5.85 15.45 -6.35 L16.35 -7.1 Q16.75 -7.5 17.05 -7.95 L17.45 -8.65 17.75 -9.2 17.35 -9.5 17.2 -9.65 16.85 -10.1 16.1 -11.0 16.05 -11.05 15.9 -11.3 15.8 -11.45 15.75 -11.45 15.7 -11.45 15.7 -11.4 15.45 -11.4 15.4 -11.45 Q15.3 -11.25 15.0 -11.05 14.55 -10.7 14.05 -10.7 L13.85 -10.7 13.4 -10.85 Q13.15 -11.0 13.05 -11.1 L13.0 -11.05 13.0 -11.1 12.95 -11.1 12.85 -11.1 12.85 -11.15 Q12.85 -11.2 12.9 -11.25 L12.9 -11.4 12.95 -11.7 12.95 -11.75 13.05 -12.05 Q13.3 -12.5 13.6 -12.6 L13.65 -12.65 13.7 -12.65 13.7 -12.6 Q13.3 -12.2 13.15 -11.55 L13.25 -11.65 13.4 -11.75 Q13.55 -11.9 13.8 -12.0 L14.1 -12.05 15.1 -12.0 15.25 -11.95 15.5 -11.95 15.2 -12.45 14.7 -13.4 14.6 -13.4 14.35 -13.35 14.3 -13.35 14.15 -13.3 14.1 -13.3 Q13.85 -13.2 13.65 -13.0 L13.6 -13.0 13.6 -12.95 13.4 -12.75 13.25 -12.5 13.05 -12.3 13.0 -12.3 13.05 -12.5 Q13.15 -12.75 13.35 -13.05 13.75 -13.6 14.3 -13.6 L14.4 -13.55 14.6 -13.6 14.5 -13.9 Q13.95 -15.7 13.8 -16.25 L13.55 -16.55 13.45 -16.7 Q13.35 -16.75 13.25 -16.8 L13.2 -16.8 Q12.65 -16.25 12.4 -16.25 L12.35 -16.25 Q12.15 -16.25 12.0 -16.3 L11.9 -16.4 12.2 -16.45 12.75 -16.7 Q13.1 -16.9 13.45 -17.25 L13.5 -17.3 13.5 -17.4 Q13.5 -17.35 13.5 -17.4 L13.55 -17.35 13.6 -17.4 13.6 -17.45 13.65 -17.45 14.25 -18.1 14.65 -18.65 Q15.1 -19.15 15.8 -19.45 M18.2 -21.6 Q18.25 -21.5 18.3 -21.45 L18.25 -21.55 18.2 -21.6 M12.8 -23.2 Q13.4 -23.7 14.3 -23.85 15.45 -24.1 15.8 -23.55 L16.35 -23.05 Q16.8 -22.65 16.9 -22.3 17.7 -22.25 18.0 -21.9 L18.15 -21.75 18.85 -20.85 Q19.55 -19.9 19.55 -19.5 L19.55 -19.35 19.45 -19.3 Q19.85 -18.85 20.35 -18.4 L21.65 -17.1 Q23.05 -15.65 23.05 -14.4 23.05 -13.45 22.45 -12.65 22.2 -12.3 21.45 -11.55 L21.3 -11.4 Q20.95 -10.85 20.8 -10.75 L20.6 -10.65 20.6 -10.15 Q20.55 -9.8 20.4 -9.5 L20.35 -9.4 Q20.05 -8.35 19.7 -8.3 L19.25 -8.3 Q19.1 -8.3 18.95 -8.55 L18.5 -8.75 Q18.6 -8.4 18.7 -7.95 18.75 -7.45 18.75 -7.0 18.75 -6.1 18.25 -5.25 L17.9 -4.7 Q17.9 -4.35 17.15 -3.85 16.55 -3.5 15.95 -3.25 15.0 -2.55 13.95 -2.55 13.75 -2.45 13.45 -2.45 13.0 -2.45 12.9 -2.55 12.85 -2.6 12.85 -2.75 L12.85 -2.85 Q11.9 -3.05 11.3 -3.5 10.75 -3.75 10.4 -3.95 9.65 -4.45 9.55 -5.1 L9.3 -6.45 9.3 -7.55 9.1 -7.7 Q8.45 -8.0 8.05 -8.75 8.0 -8.95 7.9 -9.1 7.25 -10.25 7.25 -11.05 L7.25 -11.4 7.2 -11.55 Q7.1 -11.95 7.1 -12.1 L7.2 -12.35 7.2 -12.4 Q7.2 -12.6 7.75 -14.1 L8.05 -15.0 Q8.75 -17.15 9.3 -18.55 L9.35 -18.9 9.3 -19.2 9.3 -19.6 Q9.45 -20.4 10.3 -21.35 10.85 -21.9 11.55 -22.45 L12.65 -23.1 12.1 -22.7 Q11.8 -22.45 11.5 -22.2 L10.65 -21.4 10.2 -20.9 Q9.55 -20.1 9.5 -19.55 L9.5 -19.5 9.55 -19.3 Q9.55 -19.05 9.65 -18.75 L9.65 -18.65 Q9.75 -18.3 9.95 -17.9 L10.05 -17.7 Q10.4 -16.95 10.8 -16.55 L10.95 -16.4 11.0 -16.4 Q11.1 -16.35 11.15 -16.3 L11.35 -16.25 11.3 -16.3 Q10.8 -16.7 10.6 -17.7 10.45 -18.25 10.4 -18.95 10.4 -19.25 10.4 -19.6 10.4 -20.25 10.95 -21.15 L10.95 -21.2 Q11.35 -21.75 11.75 -22.2 12.05 -22.5 12.35 -22.7 L12.5 -22.85 12.5 -22.9 12.8 -23.2 M12.95 -22.9 L12.95 -22.85 12.85 -22.8 Q12.25 -22.4 12.05 -22.2 11.75 -21.9 11.25 -21.0 10.75 -20.05 10.75 -19.7 L10.75 -19.6 Q10.75 -17.95 11.25 -16.85 L11.4 -16.45 11.45 -16.45 11.5 -16.3 11.55 -16.25 11.65 -16.25 11.6 -16.35 11.55 -16.35 11.55 -16.45 11.5 -16.6 11.5 -16.75 11.5 -17.2 Q11.5 -17.55 11.8 -18.35 L12.05 -18.95 Q12.35 -19.55 12.7 -20.05 13.1 -20.6 13.5 -21.0 14.85 -22.35 16.6 -22.35 L16.85 -22.35 16.75 -22.4 16.1 -22.95 Q15.3 -23.55 15.15 -23.55 L14.9 -23.55 Q14.45 -23.5 13.6 -23.2 L12.95 -23.0 12.95 -22.9 M14.05 -23.55 L14.65 -23.75 14.0 -23.6 Q13.55 -23.45 13.4 -23.4 L13.25 -23.3 14.05 -23.55 M14.0 -23.5 L13.85 -23.45 14.0 -23.5 M16.65 -19.25 L16.75 -19.15 Q18.85 -17.5 19.85 -16.5 L20.05 -16.35 Q21.15 -15.2 21.6 -14.25 L21.65 -14.15 21.65 -14.1 21.5 -14.35 21.35 -14.65 Q20.95 -15.25 20.05 -16.0 L19.55 -16.4 19.5 -16.45 18.25 -17.5 Q17.2 -18.4 16.45 -19.3 15.7 -19.0 15.0 -18.45 15.8 -17.9 16.75 -17.0 L17.85 -15.8 18.35 -15.3 20.45 -13.6 20.75 -13.3 Q21.25 -12.65 21.25 -11.95 L21.25 -11.9 21.25 -11.75 21.3 -11.85 21.8 -12.5 21.85 -12.65 21.85 -13.2 21.9 -13.0 21.9 -12.8 21.85 -12.55 22.0 -12.7 22.15 -12.85 Q22.45 -13.45 22.45 -13.55 L22.45 -13.6 Q22.45 -14.25 22.1 -14.95 21.7 -15.75 20.85 -16.65 L20.4 -17.1 19.35 -18.15 Q18.55 -18.95 18.0 -19.7 17.25 -19.6 16.55 -19.35 L16.65 -19.25 M16.35 -12.45 Q16.1 -12.8 15.9 -13.15 15.8 -13.4 15.05 -15.05 14.55 -16.25 14.05 -16.95 L14.1 -16.95 Q14.75 -16.05 15.55 -14.6 L16.65 -12.6 16.8 -12.3 Q17.35 -11.35 17.85 -10.8 16.95 -11.5 16.35 -12.45 M19.3 -14.5 L18.15 -15.4 Q17.35 -15.95 16.45 -16.95 L15.0 -18.45 14.4 -17.95 13.75 -17.35 Q14.75 -16.7 15.5 -15.8 16.2 -14.9 16.6 -13.95 L17.2 -13.05 17.6 -12.5 Q17.05 -13.2 16.5 -13.95 16.1 -14.45 15.3 -15.7 14.5 -16.7 13.75 -17.3 L13.6 -17.2 Q13.8 -16.85 13.95 -16.3 L14.25 -15.15 14.7 -14.05 14.85 -13.65 Q14.9 -13.5 15.0 -13.35 L15.25 -12.85 Q15.45 -12.45 15.65 -12.1 L15.8 -11.9 16.0 -11.9 16.2 -11.95 16.2 -12.0 Q16.25 -12.0 16.25 -11.95 L16.15 -11.8 16.15 -11.75 15.95 -11.6 Q16.35 -11.05 16.75 -10.6 L17.05 -10.3 17.85 -9.55 17.9 -9.5 18.15 -9.35 18.8 -8.85 18.8 -8.9 18.85 -8.85 Q19.1 -8.65 19.35 -8.5 19.5 -8.55 19.6 -8.65 L20.0 -9.05 20.25 -9.6 20.3 -9.8 20.2 -9.75 19.65 -9.75 Q19.2 -9.8 18.8 -9.95 L18.55 -10.05 18.3 -10.2 18.3 -10.25 18.4 -10.2 18.8 -10.05 18.95 -10.0 18.9 -10.0 18.7 -10.15 18.65 -10.15 18.45 -10.25 18.45 -10.3 18.7 -10.15 18.9 -10.1 19.1 -10.0 19.45 -9.95 19.7 -9.9 20.1 -9.9 20.15 -9.95 20.2 -9.95 20.4 -10.15 20.5 -10.35 20.5 -10.6 20.55 -10.65 20.4 -10.6 20.2 -10.6 Q19.45 -10.65 18.55 -11.5 L18.2 -11.85 Q18.35 -11.7 18.55 -11.6 19.3 -11.1 20.35 -10.95 L20.65 -10.9 20.9 -11.2 21.0 -11.4 21.05 -11.55 Q21.2 -12.0 21.2 -12.25 L21.2 -12.35 20.75 -13.25 20.2 -13.8 19.3 -14.5 M13.55 -17.1 L13.4 -16.95 13.35 -16.95 13.45 -16.9 13.5 -16.85 Q13.65 -16.7 13.75 -16.45 L13.65 -16.9 13.55 -17.15 13.55 -17.1 M19.05 -19.6 L19.05 -19.6 M22.75 -13.7 L22.85 -14.0 Q22.85 -14.75 22.6 -15.35 L22.3 -15.8 Q21.9 -16.3 21.25 -16.9 L19.45 -18.7 Q18.95 -19.3 18.8 -19.65 L18.45 -19.7 18.1 -19.7 20.2 -17.65 21.15 -16.65 Q22.1 -15.55 22.1 -15.15 L22.3 -14.6 22.3 -14.55 22.45 -14.15 Q22.5 -13.8 22.5 -13.6 22.5 -13.45 22.4 -13.15 22.6 -13.45 22.75 -13.7 M9.75 -17.75 L9.65 -17.9 9.65 -17.7 Q9.5 -16.5 8.8 -14.9 L8.7 -14.65 7.9 -13.0 7.65 -12.35 7.6 -12.25 7.8 -12.6 7.9 -12.7 8.3 -13.25 Q8.75 -13.95 8.95 -14.3 9.4 -15.25 9.6 -15.9 9.85 -16.65 10.0 -17.25 L9.85 -17.5 9.75 -17.75 M8.6 -14.55 L8.85 -15.2 Q9.15 -16.15 9.6 -18.05 9.5 -18.35 9.4 -18.6 9.25 -17.65 8.35 -15.35 L8.15 -14.7 7.95 -14.2 7.9 -14.05 7.75 -13.6 Q7.45 -12.85 7.4 -12.4 L7.35 -12.15 7.9 -13.2 7.95 -13.25 8.25 -13.85 8.25 -13.9 8.6 -14.55 M9.8 -14.3 L10.1 -14.65 Q10.55 -15.4 10.75 -16.3 L10.7 -16.4 Q10.5 -16.55 10.35 -16.75 L10.1 -17.05 10.05 -16.5 Q10.05 -15.6 9.3 -14.4 L8.7 -13.55 8.65 -13.45 7.8 -12.4 Q7.35 -11.8 7.35 -11.6 L7.4 -11.45 7.4 -11.3 Q7.4 -10.7 7.65 -10.15 7.6 -10.45 7.6 -10.75 7.6 -11.65 8.05 -12.3 8.3 -12.7 9.0 -13.45 L9.05 -13.45 9.1 -13.55 9.8 -14.3 M7.65 -10.15 L7.65 -10.15 M8.9 -12.8 Q9.15 -13.15 9.45 -13.5 L10.4 -14.55 Q10.85 -15.15 10.85 -15.65 L10.9 -15.95 10.9 -16.15 10.85 -16.2 Q10.8 -15.45 10.35 -14.75 10.05 -14.3 9.3 -13.45 L8.75 -12.8 Q8.4 -12.4 8.2 -12.1 7.75 -11.3 7.75 -10.4 7.75 -10.1 7.95 -9.55 L8.1 -9.2 8.25 -8.9 Q8.0 -9.45 8.0 -10.1 8.0 -11.25 8.6 -12.3 L8.8 -12.65 8.9 -12.8 M10.3 -13.0 Q10.1 -13.15 9.85 -13.15 L9.7 -13.15 9.95 -13.1 Q10.15 -13.1 10.25 -13.0 L10.3 -13.0 M8.95 -12.05 L8.95 -12.2 8.85 -11.75 8.8 -11.55 8.8 -11.5 8.75 -11.15 8.95 -11.3 9.0 -11.3 9.0 -11.65 8.95 -12.05 M8.75 -10.85 L8.7 -10.9 8.7 -10.75 Q8.7 -10.45 8.75 -9.95 L8.85 -9.45 9.3 -8.55 9.45 -8.3 9.45 -8.4 Q9.35 -8.65 9.35 -8.8 9.25 -9.25 9.2 -9.65 L9.15 -10.0 9.15 -10.05 9.1 -10.8 8.95 -10.8 8.75 -10.85 M9.35 -10.95 L9.4 -11.0 9.4 -10.95 9.35 -10.95 M9.75 -10.95 Q9.85 -10.85 10.0 -10.85 L10.25 -10.9 10.35 -11.0 10.4 -11.1 10.15 -11.15 10.0 -11.15 9.7 -11.05 9.75 -10.95 M9.55 -11.0 L9.5 -11.0 9.35 -10.9 Q9.5 -10.75 9.65 -10.7 9.8 -10.6 9.95 -10.6 L10.55 -10.7 10.65 -10.7 10.9 -10.85 10.75 -10.95 10.9 -10.9 10.5 -11.1 Q10.5 -11.0 10.4 -10.9 10.3 -10.75 10.15 -10.75 9.75 -10.75 9.65 -10.9 9.6 -10.9 9.55 -11.0 M10.95 -10.9 L10.95 -10.9 M8.55 -11.1 Q8.6 -11.3 8.65 -11.6 8.55 -11.35 8.5 -11.05 L8.55 -11.1 M8.55 -10.9 L8.5 -10.9 8.5 -10.95 8.45 -10.95 8.4 -10.5 8.4 -10.25 Q8.4 -9.5 8.65 -8.7 8.75 -8.4 8.9 -8.15 L9.25 -7.95 9.45 -7.85 9.5 -7.85 Q9.1 -8.1 8.85 -8.85 8.75 -9.05 8.7 -9.4 L8.7 -9.5 Q8.6 -9.85 8.55 -10.2 L8.5 -10.8 8.55 -10.9 M9.7 -7.7 L9.7 -7.7 M9.6 -7.8 L9.5 -7.85 9.5 -7.8 9.6 -7.75 9.6 -7.8 M11.0 -5.6 Q10.6 -6.1 10.25 -6.6 9.8 -7.2 9.7 -7.5 L9.65 -7.5 9.9 -6.7 9.95 -6.65 10.0 -6.4 10.35 -5.3 10.45 -5.1 10.45 -5.05 Q10.6 -4.7 11.0 -4.35 11.3 -4.1 11.65 -3.85 L11.7 -3.85 11.95 -3.7 12.05 -3.6 12.15 -3.6 Q12.4 -3.4 12.8 -3.15 L12.9 -3.1 12.95 -3.1 13.0 -3.05 13.05 -3.05 13.4 -3.3 13.45 -3.3 13.5 -3.35 13.6 -3.4 Q13.0 -3.65 12.1 -4.45 L11.5 -5.0 11.0 -5.6 M11.5 -8.75 Q11.5 -8.85 11.55 -9.1 11.65 -9.4 11.7 -9.45 L11.75 -9.45 11.75 -9.4 11.7 -9.1 11.7 -8.9 Q11.7 -8.85 11.7 -8.8 L11.85 -8.75 12.1 -8.7 12.3 -8.7 Q12.55 -8.7 12.8 -8.8 L13.15 -8.9 13.15 -8.8 13.0 -8.45 12.65 -8.1 12.6 -8.1 Q12.3 -8.1 11.9 -8.35 L11.75 -8.45 Q11.6 -8.55 11.55 -8.65 11.5 -8.7 11.5 -8.75 M13.25 -4.45 Q13.4 -4.5 13.55 -4.65 L13.95 -4.95 14.15 -5.15 14.2 -5.15 14.4 -5.35 14.45 -5.35 Q14.05 -5.2 13.65 -5.1 L13.5 -5.15 13.2 -5.1 13.15 -5.1 12.8 -5.15 Q12.55 -5.15 12.3 -5.3 L12.2 -5.35 11.95 -5.5 11.6 -5.7 Q11.3 -5.85 11.0 -6.15 L10.8 -6.35 Q11.15 -5.85 11.45 -5.5 11.95 -4.95 12.5 -4.5 L12.55 -4.5 12.55 -4.45 12.7 -4.4 12.8 -4.3 12.85 -4.3 Q13.0 -4.3 13.25 -4.45 M9.95 -5.35 Q10.05 -4.9 10.35 -4.55 L10.3 -4.65 Q10.0 -5.15 9.8 -6.0 L9.75 -6.4 Q9.8 -5.7 9.95 -5.35 M20.85 -10.9 L21.0 -11.05 20.8 -10.9 20.85 -10.9 M20.75 -10.9 L20.75 -10.9 M17.8 -8.65 L17.95 -9.05 17.9 -9.1 17.8 -8.7 17.75 -8.55 17.8 -8.65 M18.1 -8.95 L18.1 -8.95 M17.0 -4.25 Q17.6 -4.8 17.95 -5.35 L18.0 -5.6 Q18.3 -6.55 18.3 -7.8 L18.35 -8.35 18.35 -8.8 18.15 -8.9 18.2 -7.85 Q18.2 -7.65 18.1 -7.0 L17.95 -6.3 Q17.95 -5.4 17.0 -4.25 L17.0 -4.25 M13.55 -3.85 Q13.75 -3.7 14.0 -3.6 L14.25 -3.75 14.3 -3.7 Q15.45 -4.65 16.35 -5.95 L16.4 -6.05 Q17.1 -7.05 17.65 -8.35 L17.65 -8.25 17.6 -8.25 17.6 -8.2 16.7 -7.05 16.6 -6.9 Q16.25 -6.55 15.95 -6.3 15.5 -5.75 14.9 -5.35 14.15 -4.75 13.1 -4.25 L13.0 -4.15 13.55 -3.85 M13.7 -3.05 L14.0 -2.9 14.05 -2.9 Q14.9 -3.1 15.55 -3.45 16.15 -3.85 16.65 -4.55 L16.9 -4.95 Q17.4 -5.75 17.7 -6.7 17.95 -7.5 17.95 -8.05 L17.95 -8.6 17.8 -8.2 Q17.8 -7.8 17.5 -7.05 L17.45 -7.0 17.35 -6.8 Q17.0 -6.05 16.45 -5.3 15.5 -4.0 14.6 -3.45 L13.95 -3.15 13.9 -3.15 13.7 -3.1 13.7 -3.05 13.7 -3.05 M20.35 -9.9 L20.25 -9.85 20.35 -9.85 20.35 -9.9 M14.65 -11.5 Q14.65 -11.35 14.55 -11.2 14.35 -11.0 13.95 -11.0 13.8 -11.0 13.65 -11.15 L13.55 -11.3 13.15 -11.15 13.2 -11.15 Q13.3 -11.05 13.5 -11.0 13.85 -10.85 14.0 -10.85 14.55 -10.85 15.0 -11.25 L15.2 -11.45 14.8 -11.55 14.65 -11.55 14.65 -11.5 M13.65 -11.25 Q13.75 -11.1 14.05 -11.1 14.35 -11.1 14.45 -11.3 L14.55 -11.55 Q14.05 -11.5 13.6 -11.35 L13.65 -11.25 M12.5 -8.3 Q12.75 -8.3 12.9 -8.45 L13.0 -8.55 13.05 -8.7 13.05 -8.75 12.9 -8.65 12.85 -8.6 Q12.55 -8.45 12.3 -8.45 L12.05 -8.5 12.25 -8.35 12.35 -8.3 12.5 -8.3 M12.65 -7.1 L12.5 -7.05 12.65 -7.0 12.9 -7.05 13.35 -7.1 13.75 -7.2 13.8 -7.2 12.8 -7.15 12.7 -7.15 12.65 -7.1 M12.8 -6.4 L12.65 -6.45 12.5 -6.55 Q12.25 -6.65 12.25 -6.85 L12.25 -6.95 12.2 -6.95 12.25 -7.0 12.2 -7.0 12.2 -7.05 Q12.2 -7.2 12.6 -7.35 L12.7 -7.4 13.05 -7.5 Q13.6 -7.6 14.0 -7.45 L14.1 -7.4 14.15 -7.35 14.1 -7.35 14.2 -7.25 14.2 -7.2 14.15 -7.0 Q14.1 -6.85 14.0 -6.7 13.85 -6.55 13.65 -6.45 13.4 -6.35 13.05 -6.35 L12.8 -6.4 M13.85 -7.1 Q13.7 -7.05 13.45 -7.0 L13.1 -6.95 12.45 -6.95 12.5 -6.85 12.5 -6.9 12.55 -6.9 12.6 -6.75 Q12.7 -6.7 12.85 -6.6 L13.4 -6.6 13.65 -6.65 13.6 -6.7 Q13.75 -6.8 13.85 -7.1" fill="#111111" fill-rule="evenodd" stroke="none"/>
    <path d="M14.4 -13.55 L14.3 -13.6 Q13.75 -13.6 13.35 -13.05 13.15 -12.75 13.05 -12.5 L13.0 -12.3 Q12.85 -12.0 12.85 -11.8 12.85 -11.55 12.9 -11.4 L12.9 -11.25 Q12.85 -11.2 12.85 -11.15 L12.85 -11.1 12.95 -11.1 Q12.95 -10.9 13.25 -10.75 13.7 -10.5 14.25 -10.5 14.7 -10.5 15.0 -10.75 15.2 -10.9 15.35 -11.15 L15.4 -11.15 15.5 -11.2 15.55 -11.25 15.6 -11.25 Q15.7 -11.25 16.25 -10.55 16.65 -10.1 16.8 -9.85 L16.75 -9.7 Q16.55 -8.9 16.1 -8.0 15.6 -7.0 14.8 -6.25 14.55 -6.0 13.35 -5.4 L13.25 -5.35 13.3 -5.35 Q11.4 -6.1 10.05 -7.6 9.9 -7.9 9.75 -8.2 L9.95 -7.95 9.65 -8.75 Q9.5 -9.25 9.5 -9.6 9.5 -9.85 9.6 -10.15 L9.65 -10.25 Q9.85 -10.2 10.05 -10.2 10.6 -10.2 10.9 -10.5 11.15 -10.7 11.15 -10.95 L11.1 -11.0 11.1 -11.05 Q11.1 -11.15 11.0 -11.2 L11.05 -11.35 11.1 -11.6 Q11.1 -11.85 10.85 -12.3 L10.7 -12.6 10.75 -12.55 10.7 -12.65 Q10.7 -12.8 10.55 -12.9 L10.45 -12.95 Q10.3 -13.1 10.05 -13.2 L9.95 -13.25 10.8 -14.35 Q11.25 -14.95 11.25 -15.7 L11.2 -15.9 Q11.5 -15.8 11.8 -15.8 12.5 -15.8 12.95 -16.25 13.25 -16.55 13.3 -16.75 L13.7 -16.2 Q13.8 -16.0 13.9 -15.7 L13.95 -15.2 Q14.15 -14.4 14.2 -14.1 14.3 -13.75 14.4 -13.55 M14.15 -13.3 L14.3 -13.35 14.35 -13.35 14.15 -13.3 M15.75 -11.45 L15.8 -11.45 15.9 -11.3 15.75 -11.45 M9.25 -11.8 L9.2 -11.7 9.2 -11.8 9.25 -11.8 M10.3 -13.0 L10.25 -13.0 Q10.15 -13.1 9.95 -13.1 L9.7 -13.15 9.85 -13.15 Q10.1 -13.15 10.3 -13.0 M11.5 -8.75 Q11.5 -8.7 11.55 -8.65 11.6 -8.55 11.75 -8.45 L11.9 -8.35 Q12.3 -8.1 12.6 -8.1 L12.65 -8.1 13.0 -8.45 13.15 -8.8 13.15 -8.9 12.8 -8.8 Q12.55 -8.7 12.3 -8.7 L12.1 -8.7 11.85 -8.75 11.7 -8.8 Q11.7 -8.85 11.7 -8.9 L11.7 -9.1 11.75 -9.4 11.75 -9.45 11.7 -9.45 Q11.65 -9.4 11.55 -9.1 11.5 -8.85 11.5 -8.75 M12.25 -8.35 L12.35 -8.3 12.5 -8.3 12.35 -8.3 12.25 -8.35 M13.65 -6.45 Q13.85 -6.55 14.0 -6.7 14.1 -6.85 14.15 -7.0 L14.2 -7.2 14.2 -7.25 14.1 -7.35 14.15 -7.35 14.1 -7.4 14.0 -7.45 Q13.6 -7.6 13.05 -7.5 L12.7 -7.4 12.6 -7.35 Q12.2 -7.2 12.2 -7.05 L12.2 -7.0 12.25 -7.0 12.2 -6.95 12.25 -6.95 12.25 -6.85 Q12.25 -6.65 12.5 -6.55 L12.65 -6.45 12.8 -6.4 12.8 -6.35 Q12.8 -6.15 13.25 -6.15 13.45 -6.15 13.65 -6.45" fill="#c7a36d" fill-rule="evenodd" stroke="none"/>
    <path d="M12.35 -16.25 L12.4 -16.25 Q12.65 -16.25 13.2 -16.8 L13.25 -16.8 Q13.35 -16.75 13.45 -16.7 L13.55 -16.55 13.8 -16.25 Q13.95 -15.7 14.5 -13.9 L14.6 -13.6 14.4 -13.55 Q14.3 -13.75 14.2 -14.1 14.15 -14.4 13.95 -15.2 L13.9 -15.7 Q13.8 -16.0 13.7 -16.2 L13.3 -16.75 Q13.25 -16.55 12.95 -16.25 12.5 -15.8 11.8 -15.8 11.5 -15.8 11.2 -15.9 L11.25 -15.7 Q11.25 -14.95 10.8 -14.35 L9.95 -13.25 9.7 -13.25 9.9 -13.45 10.55 -14.3 Q10.9 -14.8 10.95 -15.25 L10.95 -15.4 11.05 -16.0 11.05 -16.1 Q11.3 -15.95 11.75 -15.95 L12.3 -16.05 12.5 -16.15 12.4 -16.25 12.35 -16.2 12.35 -16.25 M13.0 -12.3 L13.05 -12.3 13.25 -12.5 13.4 -12.75 13.6 -12.95 13.6 -13.0 13.65 -13.0 Q13.85 -13.2 14.1 -13.3 L14.15 -13.3 14.35 -13.35 14.6 -13.4 14.7 -13.4 15.2 -12.45 15.5 -11.95 15.25 -11.95 15.1 -12.0 14.1 -12.05 13.8 -12.0 Q13.55 -11.9 13.4 -11.75 L13.25 -11.65 13.15 -11.55 Q13.3 -12.2 13.7 -12.6 L13.7 -12.65 13.65 -12.65 13.6 -12.6 Q13.3 -12.5 13.05 -12.05 L12.95 -11.75 12.95 -11.7 12.9 -11.4 Q12.85 -11.55 12.85 -11.8 12.85 -12.0 13.0 -12.3 M12.95 -11.1 L13.0 -11.1 13.0 -11.05 13.05 -11.1 Q13.15 -11.0 13.4 -10.85 L13.85 -10.7 14.05 -10.7 Q14.55 -10.7 15.0 -11.05 15.3 -11.25 15.4 -11.45 L15.45 -11.4 15.7 -11.4 15.7 -11.45 15.75 -11.45 15.9 -11.3 16.05 -11.05 16.1 -11.0 16.85 -10.1 17.2 -9.65 17.35 -9.5 17.75 -9.2 17.45 -8.65 17.05 -7.95 Q16.75 -7.5 16.35 -7.1 L15.45 -6.35 Q14.75 -5.85 14.15 -5.55 L13.8 -5.4 Q13.6 -5.3 13.4 -5.25 L13.3 -5.25 13.0 -5.35 12.9 -5.35 12.75 -5.4 Q12.4 -5.55 12.1 -5.7 11.0 -6.4 10.3 -7.25 L10.15 -7.5 10.05 -7.6 Q11.4 -6.1 13.3 -5.35 L13.25 -5.35 13.35 -5.4 Q14.55 -6.0 14.8 -6.25 15.6 -7.0 16.1 -8.0 16.55 -8.9 16.75 -9.7 L16.8 -9.85 Q16.65 -10.1 16.25 -10.55 15.7 -11.25 15.6 -11.25 L15.55 -11.25 15.5 -11.2 15.4 -11.15 15.35 -11.15 Q15.2 -10.9 15.0 -10.75 14.7 -10.5 14.25 -10.5 13.7 -10.5 13.25 -10.75 12.95 -10.9 12.95 -11.1 M9.75 -8.2 Q9.55 -8.7 9.4 -9.25 L9.4 -9.35 9.3 -10.25 9.25 -10.6 9.25 -10.8 9.35 -10.65 Q9.6 -10.4 10.0 -10.4 10.45 -10.4 10.75 -10.55 10.95 -10.7 10.95 -10.8 L10.95 -10.85 11.0 -10.8 11.0 -10.85 11.05 -10.8 11.05 -10.9 11.05 -10.95 11.1 -11.0 11.15 -10.95 Q11.15 -10.7 10.9 -10.5 10.6 -10.2 10.05 -10.2 9.85 -10.2 9.65 -10.25 L9.6 -10.15 Q9.5 -9.85 9.5 -9.6 9.5 -9.25 9.65 -8.75 L9.95 -7.95 9.75 -8.2 M11.0 -11.2 L10.9 -11.3 10.75 -11.4 Q10.75 -11.45 10.75 -11.35 L10.75 -11.35 10.85 -11.2 10.7 -11.35 10.55 -11.45 10.3 -11.55 10.15 -11.55 9.75 -11.5 9.3 -11.4 9.4 -11.7 9.5 -11.8 9.45 -11.8 9.55 -11.95 9.85 -12.25 9.9 -12.25 9.9 -12.3 9.85 -12.25 9.75 -12.25 Q9.55 -12.15 9.45 -12.0 L9.35 -11.9 9.3 -11.8 9.25 -11.8 9.2 -11.8 9.2 -12.15 9.1 -12.45 9.35 -12.75 Q9.45 -12.85 9.55 -12.85 L9.6 -12.85 9.9 -12.9 Q10.15 -12.9 10.3 -12.8 L10.45 -12.7 10.65 -12.55 10.7 -12.6 10.85 -12.3 Q11.1 -11.85 11.1 -11.6 L11.05 -11.35 11.0 -11.2 M12.25 -8.35 L12.05 -8.5 12.3 -8.45 Q12.55 -8.45 12.85 -8.6 L12.9 -8.65 13.05 -8.75 13.05 -8.7 13.0 -8.55 12.9 -8.45 Q12.75 -8.3 12.5 -8.3 L12.35 -8.3 12.25 -8.35 M12.65 -7.1 L12.7 -7.15 12.8 -7.15 13.8 -7.2 13.75 -7.2 13.35 -7.1 12.9 -7.05 12.65 -7.0 12.5 -7.05 12.65 -7.1 M13.65 -6.45 Q13.45 -6.15 13.25 -6.15 12.8 -6.15 12.8 -6.35 L12.8 -6.4 13.05 -6.35 Q13.4 -6.35 13.65 -6.45 M13.85 -7.1 Q13.75 -6.8 13.6 -6.7 L13.65 -6.65 13.4 -6.6 12.85 -6.6 Q12.7 -6.7 12.6 -6.75 L12.55 -6.9 12.5 -6.9 12.5 -6.85 12.45 -6.95 13.1 -6.95 13.45 -7.0 Q13.7 -7.05 13.85 -7.1" fill="#a9854f" fill-rule="evenodd" stroke="none"/>
    <path d="M9.55 -11.0 Q9.6 -10.9 9.65 -10.9 9.75 -10.75 10.15 -10.75 10.3 -10.75 10.4 -10.9 10.5 -11.0 10.5 -11.1 L10.9 -10.9 10.75 -10.95 10.9 -10.85 10.65 -10.7 10.55 -10.7 9.95 -10.6 Q9.8 -10.6 9.65 -10.7 9.5 -10.75 9.35 -10.9 L9.5 -11.0 9.55 -11.0 M14.65 -11.5 L14.65 -11.55 14.8 -11.55 15.2 -11.45 15.0 -11.25 Q14.55 -10.85 14.0 -10.85 13.85 -10.85 13.5 -11.0 13.3 -11.05 13.2 -11.15 L13.15 -11.15 13.55 -11.3 13.65 -11.15 Q13.8 -11.0 13.95 -11.0 14.35 -11.0 14.55 -11.2 14.65 -11.35 14.65 -11.5" fill="#ffffff" fill-rule="evenodd" stroke="none"/>
    <path d="M9.75 -10.95 L9.7 -11.05 10.0 -11.15 10.15 -11.15 10.4 -11.1 10.35 -11.0 10.25 -10.9 10.0 -10.85 Q9.85 -10.85 9.75 -10.95 M13.65 -11.25 L13.6 -11.35 Q14.05 -11.5 14.55 -11.55 L14.45 -11.3 Q14.35 -11.1 14.05 -11.1 13.75 -11.1 13.65 -11.25" fill="#0e5624" fill-rule="evenodd" stroke="none"/>
    <path d="M15.9 -22.1 Q15.7 -21.95 15.55 -21.8 L16.1 -21.3 15.4 -20.95 Q14.9 -20.7 14.9 -20.55 L15.2 -20.25 16.0 -20.5 16.55 -20.6 Q16.7 -20.6 16.8 -20.45 L16.9 -20.3 Q16.75 -20.15 16.2 -19.95 15.8 -19.8 15.8 -19.6 15.8 -19.5 15.8 -19.45 15.1 -19.15 14.65 -18.65 L14.25 -18.1 Q14.15 -18.35 14.0 -18.55 13.75 -18.9 13.4 -19.1 12.75 -19.4 12.35 -19.0 12.65 -19.6 13.05 -20.1 14.25 -21.75 15.9 -22.1 M9.3 -19.2 L9.3 -19.6 9.3 -19.2 M10.95 -21.15 Q10.4 -20.25 10.4 -19.6 10.4 -19.25 10.4 -18.95 10.05 -19.5 9.8 -19.55 9.6 -19.55 9.55 -19.3 L9.5 -19.5 9.5 -19.55 Q9.55 -20.1 10.2 -20.9 L10.2 -20.75 10.4 -20.7 10.95 -21.15 M12.95 -22.9 Q13.7 -23.2 14.0 -23.2 14.25 -23.2 14.35 -23.1 14.55 -22.9 15.0 -22.65 13.9 -22.3 13.45 -22.05 12.95 -21.8 12.95 -21.5 12.95 -21.25 13.1 -21.15 13.2 -21.05 13.5 -21.0 13.1 -20.6 12.7 -20.05 12.35 -19.55 12.05 -18.95 12.05 -19.35 11.85 -19.65 11.65 -19.9 11.35 -19.95 11.05 -20.0 10.85 -19.8 L10.75 -19.6 10.75 -19.7 Q10.75 -20.05 11.25 -21.0 11.75 -21.9 12.05 -22.2 12.25 -22.4 12.85 -22.8 L12.95 -22.85 12.95 -22.9 M16.6 -22.35 L16.75 -22.4 16.85 -22.35 16.6 -22.35 M14.0 -23.5 L13.85 -23.45 14.0 -23.5 M14.05 -23.55 L13.25 -23.3 13.4 -23.4 Q13.55 -23.45 14.0 -23.6 L14.65 -23.75 14.05 -23.55 M16.65 -19.25 L16.55 -19.35 16.65 -19.25 M20.4 -17.1 L20.85 -16.65 Q21.7 -15.75 22.1 -14.95 L22.05 -15.05 21.95 -14.95 Q21.6 -14.55 21.6 -14.3 L21.6 -14.25 Q21.15 -15.2 20.05 -16.35 L19.85 -16.5 20.0 -16.35 20.2 -16.5 20.4 -16.8 20.4 -17.1 M22.0 -12.7 L21.85 -12.55 21.9 -12.8 22.0 -12.7 M21.3 -11.85 L21.25 -11.75 21.25 -11.9 21.3 -11.85 M20.75 -13.3 L20.45 -13.6 18.35 -15.3 17.85 -15.8 Q18.2 -15.8 18.35 -16.05 18.45 -16.2 18.45 -16.35 L19.35 -16.4 19.55 -16.4 20.05 -16.0 Q20.95 -15.25 21.35 -14.65 L21.5 -14.35 21.45 -14.25 21.3 -14.1 20.75 -13.3 M16.65 -12.6 L16.95 -12.45 Q17.25 -12.3 17.45 -12.3 17.85 -12.3 18.25 -13.0 18.6 -13.65 18.6 -13.95 18.9 -14.0 19.3 -14.5 L20.2 -13.8 20.75 -13.25 20.7 -13.3 Q19.9 -12.8 19.9 -12.3 L19.95 -12.0 19.65 -12.15 18.9 -12.2 Q18.55 -12.05 18.55 -11.6 18.35 -11.7 18.2 -11.85 L18.55 -11.5 18.5 -11.4 Q18.5 -11.25 18.8 -11.0 L18.55 -10.85 Q18.25 -10.7 18.25 -10.55 18.25 -10.45 18.35 -10.3 L18.4 -10.2 18.3 -10.25 18.3 -10.2 18.55 -10.05 Q18.2 -10.05 17.75 -10.25 17.3 -10.55 17.2 -10.55 17.05 -10.55 16.95 -10.45 L16.9 -10.4 17.05 -10.3 16.75 -10.6 Q16.35 -11.05 15.95 -11.6 L16.15 -11.75 16.15 -11.8 16.25 -11.95 Q16.25 -12.0 16.2 -12.0 L16.2 -11.95 16.0 -11.9 15.8 -11.9 15.65 -12.1 15.7 -12.1 Q16.0 -12.1 16.25 -12.35 L16.35 -12.45 Q16.95 -11.5 17.85 -10.8 17.35 -11.35 16.8 -12.3 L16.65 -12.6 M13.55 -17.1 L13.55 -17.15 13.65 -16.9 13.75 -16.45 Q13.65 -16.7 13.5 -16.85 L13.45 -16.9 13.35 -16.95 13.4 -16.95 13.55 -17.1 M11.5 -16.75 L11.5 -16.6 11.55 -16.45 11.55 -16.35 11.6 -16.35 11.65 -16.25 11.55 -16.25 11.5 -16.3 11.45 -16.45 11.4 -16.45 11.25 -16.85 Q11.3 -16.75 11.4 -16.75 L11.5 -16.75 M21.15 -16.65 L22.2 -15.8 22.2 -15.55 Q22.2 -15.1 22.3 -14.6 L22.1 -15.15 Q22.1 -15.55 21.15 -16.65 M22.45 -14.15 Q22.55 -13.8 22.75 -13.7 22.6 -13.45 22.4 -13.15 22.5 -13.45 22.5 -13.6 22.5 -13.8 22.45 -14.15 M9.75 -17.75 L9.65 -17.7 9.65 -17.9 9.75 -17.75 M8.7 -14.65 L8.65 -14.65 Q8.65 -14.55 8.7 -14.45 8.75 -14.3 8.95 -14.3 8.75 -13.95 8.3 -13.25 L8.4 -13.4 8.4 -13.45 8.35 -13.45 Q8.1 -13.3 7.95 -13.05 L7.9 -13.0 8.7 -14.65 M8.15 -14.7 L8.15 -14.65 Q8.25 -14.55 8.5 -14.55 L8.6 -14.55 8.25 -13.9 Q8.25 -14.2 8.05 -14.15 8.0 -14.1 7.9 -14.05 L7.95 -14.2 8.15 -14.7 M9.3 -14.4 L9.3 -14.3 Q9.4 -14.15 9.55 -14.15 9.65 -14.15 9.8 -14.25 L9.8 -14.3 9.1 -13.55 8.65 -13.45 8.7 -13.55 9.3 -14.4 M7.65 -10.15 L7.65 -10.15 M8.75 -12.8 L9.3 -13.45 Q10.05 -14.3 10.35 -14.75 10.8 -15.45 10.85 -16.2 L10.9 -16.15 10.9 -15.95 10.85 -15.65 Q10.85 -15.15 10.4 -14.55 L9.45 -13.5 Q9.15 -13.15 8.9 -12.8 L8.8 -12.85 8.75 -12.8 M8.85 -11.75 L8.95 -12.2 8.95 -12.05 8.85 -11.75 M8.55 -11.1 L8.5 -11.05 Q8.55 -11.35 8.65 -11.6 8.6 -11.3 8.55 -11.1" fill="#003060" fill-rule="evenodd" stroke="none"/>
    <path d="M12.95 -3.1 L13.05 -3.05 13.0 -3.05 12.95 -3.1 M13.5 -3.35 Q12.55 -3.4 11.7 -4.5 11.3 -5.0 11.0 -5.6 L11.5 -5.0 12.1 -4.45 Q13.0 -3.65 13.6 -3.4 L13.5 -3.35 M12.7 -4.4 L12.8 -4.4 13.25 -4.45 Q13.0 -4.3 12.85 -4.3 L12.8 -4.3 12.7 -4.4 M9.95 -6.75 L10.9 -5.35 Q11.45 -4.45 12.1 -3.95 11.1 -4.4 10.6 -5.25 10.35 -5.7 9.95 -6.75 M9.95 -5.35 Q9.8 -5.7 9.75 -6.4 L9.8 -6.0 Q10.0 -5.15 10.3 -4.65 L10.35 -4.55 Q10.05 -4.9 9.95 -5.35 M17.8 -8.7 L17.9 -9.1 17.95 -9.05 17.8 -8.65 17.8 -8.7 M18.1 -8.95 L18.1 -8.95 M16.7 -7.05 L16.65 -6.95 16.45 -6.75 Q15.6 -5.55 14.45 -4.6 L13.55 -3.85 13.0 -4.15 13.1 -4.25 Q14.15 -4.75 14.9 -5.35 15.5 -5.75 15.95 -6.3 16.25 -6.55 16.6 -6.9 L16.7 -7.05 M17.35 -6.8 L17.25 -6.4 Q17.25 -4.9 15.15 -3.75 L14.6 -3.45 Q15.5 -4.0 16.45 -5.3 17.0 -6.05 17.35 -6.8 M13.9 -3.15 L13.7 -3.05 13.7 -3.05 13.7 -3.1 13.9 -3.15" fill="#b00000" fill-rule="evenodd" stroke="none"/>
    <path d="M12.95 -3.1 L12.9 -3.1 12.8 -3.15 Q12.4 -3.4 12.15 -3.6 L12.05 -3.6 11.95 -3.7 11.7 -3.85 11.65 -3.85 Q11.3 -4.1 11.0 -4.35 10.6 -4.7 10.45 -5.05 L10.45 -5.1 10.35 -5.3 10.0 -6.4 9.95 -6.65 9.9 -6.7 9.65 -7.5 9.7 -7.5 Q9.8 -7.2 10.25 -6.6 10.6 -6.1 11.0 -5.6 11.3 -5.0 11.7 -4.5 12.55 -3.4 13.5 -3.35 L13.45 -3.3 13.4 -3.3 13.05 -3.05 12.95 -3.1 M12.7 -4.4 L12.55 -4.45 12.55 -4.5 12.5 -4.5 Q11.95 -4.95 11.45 -5.5 11.15 -5.85 10.8 -6.35 L11.0 -6.15 Q11.3 -5.85 11.6 -5.7 L11.95 -5.5 12.2 -5.35 12.3 -5.3 Q12.55 -5.15 12.8 -5.15 L13.15 -5.1 13.2 -5.1 13.5 -5.15 13.65 -5.1 Q14.05 -5.2 14.45 -5.35 L14.4 -5.35 14.2 -5.15 14.15 -5.15 13.95 -4.95 13.55 -4.65 Q13.4 -4.5 13.25 -4.45 L12.8 -4.4 12.7 -4.4 M9.95 -6.75 Q10.35 -5.7 10.6 -5.25 11.1 -4.4 12.1 -3.95 11.45 -4.45 10.9 -5.35 L9.95 -6.75 M17.0 -4.25 Q17.95 -5.4 17.95 -6.3 L18.1 -7.0 Q18.2 -7.65 18.2 -7.85 L18.15 -8.9 18.35 -8.8 18.35 -8.35 18.3 -7.8 Q18.3 -6.55 18.0 -5.6 L17.95 -5.35 Q17.6 -4.8 17.0 -4.25 M16.7 -7.05 L17.6 -8.2 17.6 -8.25 17.65 -8.25 17.65 -8.35 Q17.1 -7.05 16.4 -6.05 L16.35 -5.95 Q15.45 -4.65 14.3 -3.7 L14.25 -3.75 14.0 -3.6 Q13.75 -3.7 13.55 -3.85 L14.45 -4.6 Q15.6 -5.55 16.45 -6.75 L16.65 -6.95 16.7 -7.05 M17.35 -6.8 L17.45 -7.0 17.5 -7.05 Q17.8 -7.8 17.8 -8.2 L17.95 -8.6 17.95 -8.05 Q17.95 -7.5 17.7 -6.7 17.4 -5.75 16.9 -4.95 L16.65 -4.55 Q16.15 -3.85 15.55 -3.45 14.9 -3.1 14.05 -2.9 L14.0 -2.9 13.7 -3.05 13.9 -3.15 13.95 -3.15 14.6 -3.45 15.15 -3.75 Q17.25 -4.9 17.25 -6.4 L17.35 -6.8" fill="#600000" fill-rule="evenodd" stroke="none"/>
    <path d="M15.9 -22.1 L16.7 -22.15 Q17.45 -22.15 17.85 -21.8 L18.05 -21.5 18.2 -21.35 18.7 -20.55 19.05 -19.85 19.1 -19.8 19.0 -19.85 18.95 -19.95 18.9 -19.9 Q17.95 -20.1 16.75 -19.8 L15.85 -19.45 15.8 -19.45 Q15.8 -19.5 15.8 -19.6 15.8 -19.8 16.2 -19.95 16.75 -20.15 16.9 -20.3 L16.8 -20.45 Q16.7 -20.6 16.55 -20.6 L16.0 -20.5 15.2 -20.25 14.9 -20.55 Q14.9 -20.7 15.4 -20.95 L16.1 -21.3 15.55 -21.8 Q15.7 -21.95 15.9 -22.1 M14.25 -18.1 L13.65 -17.45 13.6 -17.45 13.6 -17.4 13.55 -17.35 13.5 -17.4 Q13.5 -17.35 13.5 -17.4 L13.5 -17.3 13.45 -17.25 Q13.1 -16.9 12.75 -16.7 L12.2 -16.45 11.9 -16.4 12.0 -16.3 Q12.15 -16.25 12.35 -16.25 L12.35 -16.2 11.8 -16.2 11.9 -17.6 Q11.9 -17.9 12.15 -18.6 L12.3 -18.9 12.35 -18.95 12.35 -19.0 Q12.75 -19.4 13.4 -19.1 13.75 -18.9 14.0 -18.55 14.15 -18.35 14.25 -18.1 M11.55 -22.45 Q11.8 -22.75 12.8 -23.2 L12.5 -22.9 12.5 -22.85 12.35 -22.7 Q12.05 -22.5 11.75 -22.2 11.35 -21.75 10.95 -21.2 L10.95 -21.15 10.4 -20.7 10.2 -20.75 10.2 -20.9 10.65 -21.4 11.5 -22.2 Q11.8 -22.45 12.1 -22.7 L12.65 -23.1 11.55 -22.45 M10.4 -18.95 Q10.45 -18.25 10.6 -17.7 10.8 -16.7 11.3 -16.3 L11.35 -16.25 11.15 -16.3 Q11.1 -16.35 11.0 -16.4 L10.95 -16.4 10.8 -16.55 Q10.4 -16.95 10.05 -17.7 L9.95 -17.9 Q9.75 -18.3 9.65 -18.65 L9.65 -18.75 Q9.55 -19.05 9.55 -19.3 9.6 -19.55 9.8 -19.55 10.05 -19.5 10.4 -18.95 M13.5 -21.0 Q13.2 -21.05 13.1 -21.15 12.95 -21.25 12.95 -21.5 12.95 -21.8 13.45 -22.05 13.9 -22.3 15.0 -22.65 14.55 -22.9 14.35 -23.1 14.25 -23.2 14.0 -23.2 13.7 -23.2 12.95 -22.9 L12.95 -23.0 13.6 -23.2 Q14.45 -23.5 14.9 -23.55 L15.15 -23.55 Q15.3 -23.55 16.1 -22.95 L16.75 -22.4 16.6 -22.35 Q14.85 -22.35 13.5 -21.0 M10.75 -19.6 L10.85 -19.8 Q11.05 -20.0 11.35 -19.95 11.65 -19.9 11.85 -19.65 12.05 -19.35 12.05 -18.95 L11.8 -18.35 Q11.5 -17.55 11.5 -17.2 L11.5 -16.75 11.4 -16.75 Q11.3 -16.75 11.25 -16.85 10.75 -17.95 10.75 -19.6 M19.85 -16.5 Q18.85 -17.5 16.75 -19.15 L16.65 -19.25 16.55 -19.35 Q17.25 -19.6 18.0 -19.7 18.55 -18.95 19.35 -18.15 L20.4 -17.1 20.4 -16.8 20.2 -16.5 20.0 -16.35 19.85 -16.5 M22.1 -14.95 Q22.45 -14.25 22.45 -13.6 L22.45 -13.55 Q22.45 -13.45 22.15 -12.85 L22.0 -12.7 21.9 -12.8 21.9 -13.0 21.85 -13.2 21.85 -12.65 21.8 -12.5 21.3 -11.85 21.25 -11.9 21.25 -11.95 Q21.25 -12.65 20.75 -13.3 L21.3 -14.1 21.45 -14.25 21.5 -14.35 21.65 -14.1 21.65 -14.15 21.6 -14.25 21.6 -14.3 Q21.6 -14.55 21.95 -14.95 L22.05 -15.05 22.1 -14.95 M17.85 -15.8 L16.75 -17.0 Q15.8 -17.9 15.0 -18.45 15.7 -19.0 16.45 -19.3 17.2 -18.4 18.25 -17.5 L19.5 -16.45 19.55 -16.4 19.35 -16.4 18.45 -16.35 Q18.45 -16.2 18.35 -16.05 18.2 -15.8 17.85 -15.8 M16.65 -12.6 L15.55 -14.6 Q14.75 -16.05 14.1 -16.95 L14.05 -16.95 Q14.55 -16.25 15.05 -15.05 15.8 -13.4 15.9 -13.15 16.1 -12.8 16.35 -12.45 L16.25 -12.35 Q16.0 -12.1 15.7 -12.1 L15.65 -12.1 Q15.45 -12.45 15.25 -12.85 L15.0 -13.35 Q14.9 -13.5 14.85 -13.65 L14.7 -14.05 14.25 -15.15 13.95 -16.3 Q13.8 -16.85 13.6 -17.2 L13.75 -17.3 Q14.5 -16.7 15.3 -15.7 16.1 -14.45 16.5 -13.95 17.05 -13.2 17.6 -12.5 L17.2 -13.05 16.6 -13.95 Q16.2 -14.9 15.5 -15.8 14.75 -16.7 13.75 -17.35 L14.4 -17.95 15.0 -18.45 16.45 -16.95 Q17.35 -15.95 18.15 -15.4 L19.3 -14.5 Q18.9 -14.0 18.6 -13.95 18.6 -13.65 18.25 -13.0 17.85 -12.3 17.45 -12.3 17.25 -12.3 16.95 -12.45 L16.65 -12.6 M21.15 -16.65 L20.2 -17.65 18.1 -19.7 18.45 -19.7 18.8 -19.65 Q18.95 -19.3 19.45 -18.7 L21.25 -16.9 Q21.9 -16.3 22.3 -15.8 L22.6 -15.35 Q22.85 -14.75 22.85 -14.0 L22.75 -13.7 Q22.55 -13.8 22.45 -14.15 L22.3 -14.55 22.3 -14.6 Q22.2 -15.1 22.2 -15.55 L22.2 -15.8 21.15 -16.65 M9.65 -17.7 L9.75 -17.75 9.85 -17.5 10.0 -17.25 Q9.85 -16.65 9.6 -15.9 9.4 -15.25 8.95 -14.3 8.75 -14.3 8.7 -14.45 8.65 -14.55 8.65 -14.65 L8.7 -14.65 8.8 -14.9 Q9.5 -16.5 9.65 -17.7 M8.15 -14.7 L8.35 -15.35 Q9.25 -17.65 9.4 -18.6 9.5 -18.35 9.6 -18.05 9.15 -16.15 8.85 -15.2 L8.6 -14.55 8.5 -14.55 Q8.25 -14.55 8.15 -14.65 L8.15 -14.7 M8.25 -13.9 L8.25 -13.85 7.95 -13.25 7.9 -13.2 7.35 -12.15 7.4 -12.4 Q7.45 -12.85 7.75 -13.6 L7.9 -14.05 Q8.0 -14.1 8.05 -14.15 8.25 -14.2 8.25 -13.9 M9.3 -14.4 Q10.05 -15.6 10.05 -16.5 L10.1 -17.05 10.35 -16.75 Q10.5 -16.55 10.7 -16.4 L10.75 -16.3 Q10.55 -15.4 10.1 -14.65 L9.8 -14.3 9.8 -14.25 Q9.65 -14.15 9.55 -14.15 9.4 -14.15 9.3 -14.3 L9.3 -14.4 M9.1 -13.55 L9.05 -13.45 9.0 -13.45 Q8.3 -12.7 8.05 -12.3 7.6 -11.65 7.6 -10.75 7.6 -10.45 7.65 -10.15 7.4 -10.7 7.4 -11.3 L7.4 -11.45 7.35 -11.6 Q7.35 -11.8 7.8 -12.4 L8.65 -13.45 9.1 -13.55 M8.75 -12.8 L8.8 -12.85 8.9 -12.8 8.8 -12.65 8.6 -12.3 Q8.0 -11.25 8.0 -10.1 8.0 -9.45 8.25 -8.9 L8.1 -9.2 7.95 -9.55 Q7.75 -10.1 7.75 -10.4 7.75 -11.3 8.2 -12.1 8.4 -12.4 8.75 -12.8 M8.85 -11.75 L8.95 -12.05 9.0 -11.65 9.0 -11.3 8.95 -11.3 8.75 -11.15 8.8 -11.5 8.8 -11.55 8.85 -11.75 M8.75 -10.85 L8.95 -10.8 9.1 -10.8 9.15 -10.05 9.15 -10.0 9.2 -9.65 Q9.25 -9.25 9.35 -8.8 9.35 -8.65 9.45 -8.4 L9.45 -8.3 9.3 -8.55 8.85 -9.45 8.75 -9.95 Q8.7 -10.45 8.7 -10.75 L8.7 -10.9 8.75 -10.85 M7.9 -13.0 L7.95 -13.05 Q8.1 -13.3 8.35 -13.45 L8.4 -13.45 8.4 -13.4 8.3 -13.25 7.9 -12.7 7.8 -12.6 7.6 -12.25 7.65 -12.35 7.9 -13.0 M8.55 -10.9 L8.5 -10.8 8.55 -10.2 Q8.6 -9.85 8.7 -9.5 L8.7 -9.4 Q8.75 -9.05 8.85 -8.85 9.1 -8.1 9.5 -7.85 L9.45 -7.85 9.25 -7.95 8.9 -8.15 Q8.75 -8.4 8.65 -8.7 8.4 -9.5 8.4 -10.25 L8.4 -10.5 8.45 -10.95 8.5 -10.95 8.5 -10.9 8.55 -10.9 M18.55 -11.6 Q18.55 -12.05 18.9 -12.2 L19.65 -12.15 19.95 -12.0 19.9 -12.3 Q19.9 -12.8 20.7 -13.3 L20.75 -13.25 21.2 -12.35 21.2 -12.25 Q21.2 -12.0 21.05 -11.55 L21.0 -11.4 20.9 -11.2 20.65 -10.9 20.35 -10.95 Q19.3 -11.1 18.55 -11.6 M18.55 -11.5 Q19.45 -10.65 20.2 -10.6 L20.4 -10.6 20.55 -10.65 20.5 -10.6 20.5 -10.35 20.4 -10.15 20.2 -9.95 20.15 -9.95 20.1 -9.9 19.7 -9.9 19.45 -9.95 19.1 -10.0 18.9 -10.1 18.7 -10.15 18.45 -10.3 18.45 -10.25 18.65 -10.15 18.7 -10.15 18.9 -10.0 18.95 -10.0 18.8 -10.05 18.4 -10.2 18.35 -10.3 Q18.25 -10.45 18.25 -10.55 18.25 -10.7 18.55 -10.85 L18.8 -11.0 Q18.5 -11.25 18.5 -11.4 L18.55 -11.5 M18.55 -10.05 L18.8 -9.95 Q19.2 -9.8 19.65 -9.75 L20.2 -9.75 20.3 -9.8 20.25 -9.6 20.0 -9.05 19.6 -8.65 Q19.5 -8.55 19.35 -8.5 19.1 -8.65 18.85 -8.85 L18.8 -8.9 18.8 -8.85 18.15 -9.35 17.9 -9.5 17.85 -9.55 17.05 -10.3 16.9 -10.4 16.95 -10.45 Q17.05 -10.55 17.2 -10.55 17.3 -10.55 17.75 -10.25 18.2 -10.05 18.55 -10.05" fill="#002040" fill-rule="evenodd" stroke="none"/>
  </g>
</svg>
