<?xml version="1.0" encoding="UTF-8" standalone="no"?>
<svg xmlns:ffdec="https://www.free-decompiler.com/flash" xmlns:xlink="http://www.w3.org/1999/xlink" ffdec:objectType="shape" height="19.75px" width="18.35px" xmlns="http://www.w3.org/2000/svg">
  <g transform="matrix(1.0, 0.0, 0.0, 1.0, -5.05, 25.6)">
    <path d="M21.5 -24.6 Q20.45 -25.35 18.6 -25.35 18.0 -25.35 17.4 -24.95 L17.3 -24.9 16.95 -24.7 17.35 -24.7 Q18.35 -24.7 19.45 -23.75 L19.5 -23.7 Q20.2 -23.1 20.35 -22.65 L20.4 -22.45 20.3 -21.75 20.25 -21.2 20.15 -20.35 20.15 -19.5 20.2 -19.2 20.25 -18.4 Q20.25 -17.3 20.5 -16.2 L20.7 -16.2 Q20.9 -16.25 21.1 -16.35 21.95 -16.7 22.55 -18.05 22.7 -18.45 22.85 -19.15 22.95 -19.8 23.0 -20.2 L23.0 -21.55 Q22.95 -22.05 22.85 -22.45 22.75 -22.85 22.6 -23.2 L22.6 -23.25 Q22.45 -23.65 22.2 -23.95 L22.1 -24.05 22.1 -24.1 Q21.85 -24.4 21.5 -24.6 M20.3 -17.0 L20.25 -17.25 Q20.15 -18.1 20.15 -18.35 20.15 -18.75 19.9 -19.45 L19.85 -19.65 19.65 -20.0 19.45 -20.3 19.25 -20.55 18.7 -21.1 18.55 -21.2 Q18.3 -21.45 18.0 -21.7 L17.95 -21.7 17.35 -22.1 Q15.75 -23.15 14.2 -23.15 12.6 -23.15 9.6 -22.25 L9.5 -22.2 9.45 -22.2 9.25 -22.15 8.45 -21.85 Q7.85 -21.6 7.15 -21.3 L7.1 -21.3 5.95 -20.9 Q5.55 -20.75 5.45 -20.6 5.35 -20.45 5.35 -20.0 5.4 -19.6 5.55 -19.25 L5.65 -19.0 Q6.0 -18.4 6.65 -18.4 6.9 -18.4 7.75 -19.15 L7.85 -19.2 7.95 -19.35 8.05 -19.4 8.15 -19.65 Q8.4 -20.0 8.85 -20.4 L9.2 -20.7 9.8 -21.15 9.95 -21.25 Q10.6 -21.7 11.05 -21.8 L11.15 -21.8 Q11.2 -21.8 11.2 -21.7 L11.15 -21.65 Q11.45 -21.0 11.9 -20.45 L12.05 -20.35 Q12.3 -20.0 12.65 -19.7 L12.8 -19.55 12.85 -19.55 13.3 -19.1 Q13.6 -18.9 13.9 -18.65 L14.2 -18.45 15.7 -17.5 16.6 -16.85 16.75 -16.65 17.05 -16.3 17.2 -16.05 17.3 -15.85 17.4 -15.6 17.45 -15.6 17.9 -14.65 17.9 -14.6 18.2 -13.7 18.25 -13.45 18.4 -12.45 18.4 -12.35 Q18.4 -11.9 18.2 -11.5 L18.25 -11.7 18.25 -11.9 18.2 -12.8 18.15 -12.9 18.15 -12.95 Q18.15 -13.4 17.5 -13.05 L17.25 -12.85 Q16.95 -12.8 16.75 -12.7 16.45 -12.6 16.3 -12.2 L16.25 -12.0 Q16.05 -11.55 16.05 -10.65 16.05 -10.35 16.1 -10.05 16.1 -9.75 16.2 -9.6 L16.15 -9.4 16.15 -9.15 Q16.35 -9.15 16.45 -9.25 L16.55 -9.25 16.85 -9.2 Q18.45 -9.2 19.85 -10.2 21.1 -11.1 21.1 -11.8 21.1 -12.4 20.7 -14.1 20.35 -15.75 20.35 -16.15 L20.3 -17.0 M19.9 -22.75 Q19.7 -23.1 19.2 -23.5 18.2 -24.3 17.3 -24.35 L17.25 -24.35 Q16.65 -24.35 16.0 -24.0 L15.95 -24.0 Q15.8 -23.85 15.4 -23.7 L15.15 -23.6 15.05 -23.6 14.95 -23.5 Q16.0 -23.3 17.35 -22.5 L18.0 -22.15 18.55 -21.75 Q19.5 -21.05 19.85 -20.6 19.8 -20.75 19.8 -20.95 19.8 -21.15 19.95 -21.6 L20.15 -22.15 Q20.15 -22.4 19.9 -22.75 M23.05 -23.2 Q23.2 -22.7 23.3 -22.1 L23.35 -21.7 Q23.4 -21.0 23.4 -20.4 L23.4 -20.3 Q23.4 -19.95 23.15 -18.9 L22.85 -17.75 Q22.75 -17.2 22.3 -16.7 L22.2 -16.6 21.7 -16.15 Q20.85 -15.45 20.85 -15.2 20.85 -15.05 20.95 -14.65 L21.0 -14.4 21.4 -13.3 Q21.6 -12.65 21.6 -12.2 21.6 -11.85 21.25 -11.25 20.9 -10.65 20.25 -10.05 19.0 -8.95 17.55 -8.7 18.15 -8.05 18.15 -7.75 18.15 -7.35 16.95 -6.65 16.35 -6.25 15.9 -6.1 L15.9 -5.9 Q15.75 -5.85 15.7 -5.85 15.65 -5.85 15.5 -6.0 15.4 -6.1 15.15 -6.1 L14.7 -6.3 14.1 -6.4 13.3 -6.4 Q12.45 -6.35 11.95 -6.4 11.65 -6.4 10.8 -7.0 10.0 -7.55 10.0 -7.65 10.0 -7.8 10.15 -7.95 10.15 -8.25 10.65 -8.7 L10.9 -8.9 Q11.1 -9.05 11.3 -9.1 L11.4 -9.15 11.35 -9.25 Q10.75 -9.3 10.15 -9.9 L10.2 -9.85 Q9.65 -10.5 9.3 -11.25 L8.9 -12.05 8.45 -13.05 Q8.4 -13.2 8.3 -13.5 L8.3 -13.65 8.15 -14.25 7.85 -14.6 7.8 -14.55 7.8 -14.6 Q6.25 -16.25 5.65 -17.45 5.05 -18.65 5.05 -20.2 L5.1 -20.75 5.1 -20.95 5.15 -20.95 5.15 -20.9 Q5.45 -21.15 6.65 -21.5 L8.15 -21.95 Q9.05 -22.35 9.7 -22.6 11.1 -23.0 13.4 -23.4 13.55 -23.45 13.85 -23.55 14.55 -23.75 14.65 -23.8 L15.45 -24.3 Q15.7 -24.45 15.9 -24.45 L16.3 -24.6 Q16.6 -24.85 16.85 -25.2 17.0 -25.3 17.3 -25.4 17.9 -25.6 19.1 -25.6 22.25 -25.6 23.05 -23.2 M14.95 -23.55 L14.8 -23.55 14.9 -23.5 14.95 -23.55 M15.0 -17.1 L14.95 -17.1 14.4 -17.85 14.45 -17.85 Q14.6 -17.8 15.1 -17.5 L15.15 -17.45 15.65 -17.1 15.7 -17.2 14.7 -17.9 14.2 -18.15 13.95 -18.3 Q13.65 -18.4 13.3 -18.6 13.0 -18.5 12.7 -18.35 11.95 -17.9 11.7 -17.9 11.45 -17.9 11.4 -18.1 L11.35 -18.2 Q11.35 -18.3 11.6 -18.4 L11.8 -18.5 12.2 -18.65 13.05 -18.85 Q12.5 -19.25 12.05 -19.9 11.85 -20.2 11.1 -21.6 L10.9 -21.55 Q10.45 -21.4 10.2 -21.3 9.35 -20.85 8.75 -19.95 L8.75 -19.9 8.7 -19.8 8.45 -19.35 8.35 -19.15 Q8.3 -18.95 8.25 -18.55 8.5 -18.65 8.7 -18.65 L8.8 -18.65 Q9.1 -18.6 9.3 -18.4 L9.35 -18.35 9.3 -18.35 9.65 -18.0 9.75 -17.85 10.05 -17.5 10.15 -17.4 Q10.2 -17.35 10.2 -16.9 L10.2 -16.8 10.35 -15.15 10.35 -14.95 Q10.35 -14.75 10.25 -14.35 L10.15 -14.0 10.15 -13.95 10.2 -13.85 10.3 -13.65 10.45 -13.5 10.45 -13.35 Q10.4 -13.3 10.25 -13.3 10.1 -13.3 9.95 -13.4 9.85 -13.5 9.85 -13.6 L9.9 -13.65 9.95 -13.8 10.0 -14.2 10.05 -14.75 Q10.05 -15.05 9.95 -15.1 L9.95 -15.2 Q9.45 -15.3 9.1 -15.55 8.8 -15.75 8.8 -15.9 L8.8 -16.0 8.85 -16.0 8.95 -15.9 9.0 -15.8 Q9.1 -15.7 9.25 -15.6 L9.3 -15.6 Q9.45 -15.5 9.7 -15.5 L9.85 -15.55 10.05 -15.55 10.15 -15.8 10.15 -15.85 10.05 -15.85 9.9 -15.9 Q9.9 -15.8 9.8 -15.7 L9.55 -15.65 Q9.4 -15.7 9.3 -15.75 9.65 -15.75 9.7 -15.95 L9.7 -16.0 9.6 -16.05 9.6 -15.95 9.55 -15.95 9.4 -15.85 9.2 -16.0 9.25 -16.15 9.3 -16.2 9.1 -16.25 9.1 -15.95 9.15 -15.9 9.0 -16.1 9.0 -16.2 9.05 -16.25 8.7 -16.2 8.6 -16.25 Q8.45 -16.25 8.3 -16.35 L8.35 -15.95 8.4 -14.9 Q8.6 -14.1 8.75 -13.65 L8.85 -13.25 Q9.05 -12.65 9.3 -12.05 9.45 -11.65 9.7 -11.2 10.3 -10.55 10.7 -10.15 L10.75 -10.1 Q11.1 -9.9 11.45 -9.8 L11.7 -9.75 Q12.75 -9.8 13.65 -10.35 14.05 -10.6 14.65 -11.1 14.45 -10.5 13.9 -10.05 13.15 -9.4 12.0 -9.25 L12.1 -8.95 12.1 -8.75 12.05 -8.4 12.05 -8.35 12.05 -8.25 12.1 -8.2 13.7 -7.3 15.2 -6.45 Q15.5 -6.55 15.65 -6.75 15.8 -6.9 15.85 -7.1 L15.85 -8.35 15.8 -8.65 15.8 -10.7 Q15.8 -10.85 15.9 -11.9 L15.95 -12.05 15.15 -11.5 15.7 -12.2 15.85 -12.35 Q16.2 -12.8 16.3 -13.1 16.45 -13.5 16.55 -13.7 L16.45 -13.7 Q15.8 -13.7 15.35 -14.05 L15.1 -14.25 Q14.95 -14.45 15.0 -14.65 L15.2 -14.55 15.2 -14.5 15.65 -14.45 Q16.15 -14.45 16.4 -14.85 16.65 -15.1 16.65 -15.25 16.65 -15.35 16.7 -15.4 L16.75 -15.6 16.7 -16.25 16.6 -16.35 16.2 -16.8 16.1 -16.65 Q15.85 -16.35 15.45 -16.25 L15.45 -16.15 15.4 -16.15 15.25 -15.95 15.05 -15.8 14.9 -15.7 Q14.25 -15.3 13.65 -15.3 13.6 -15.3 13.35 -15.4 L12.8 -15.5 12.8 -15.55 13.25 -15.5 Q13.5 -15.55 13.85 -15.65 14.4 -15.9 14.65 -16.15 L14.9 -16.45 Q14.65 -16.55 14.3 -16.55 L14.1 -16.5 14.15 -16.35 Q14.15 -16.05 14.0 -15.95 13.8 -15.75 13.25 -15.75 13.05 -15.75 12.95 -16.0 12.9 -16.1 12.9 -16.2 L12.8 -16.15 12.75 -16.1 12.7 -16.1 12.65 -16.0 12.55 -15.95 12.4 -15.85 Q12.7 -16.35 13.15 -16.65 L13.45 -16.85 13.7 -16.9 Q14.3 -17.15 15.0 -17.0 L15.0 -17.05 15.0 -17.1 M12.4 -15.85 L12.4 -15.85 M13.2 -16.2 L13.2 -16.3 12.95 -16.2 Q12.95 -16.15 13.0 -16.05 13.1 -15.95 13.25 -15.85 13.7 -15.9 13.85 -16.0 13.9 -16.05 13.9 -16.15 13.9 -16.3 13.75 -16.45 L13.65 -16.4 13.7 -16.3 Q13.7 -16.2 13.6 -16.15 13.55 -16.1 13.45 -16.1 13.25 -16.1 13.2 -16.2 M17.3 -15.25 L17.0 -15.8 17.0 -15.55 Q17.0 -15.2 16.6 -14.7 16.05 -14.0 15.25 -14.35 15.4 -13.9 16.0 -13.9 16.75 -13.9 17.1 -14.75 L17.3 -15.25 M17.45 -14.9 Q17.25 -14.45 17.05 -14.15 17.0 -14.05 17.0 -13.85 16.85 -13.6 16.85 -13.4 L16.85 -13.3 Q16.95 -13.2 17.15 -13.2 17.4 -13.2 17.45 -13.4 L17.8 -13.65 17.9 -13.65 17.6 -14.45 17.5 -14.8 17.25 -14.45 17.45 -14.9 M5.8 -18.6 Q6.0 -18.05 6.3 -17.45 6.45 -17.35 6.55 -17.35 7.45 -17.35 7.75 -18.15 L7.8 -18.3 7.85 -18.4 7.75 -18.6 7.75 -18.9 7.7 -18.9 Q7.0 -18.25 6.65 -18.25 6.1 -18.25 5.8 -18.6 M7.8 -18.0 Q7.8 -17.85 7.45 -17.55 7.0 -17.15 6.6 -17.15 6.5 -17.15 6.4 -17.2 L6.6 -16.85 7.1 -16.05 8.0 -15.15 8.0 -15.4 Q7.9 -16.2 7.9 -16.8 L7.9 -17.3 7.85 -18.1 7.8 -18.0 M9.9 -17.35 Q9.75 -17.45 9.25 -17.95 8.7 -18.55 8.35 -18.55 L8.2 -18.55 Q8.15 -18.2 8.15 -17.65 L8.2 -17.25 8.25 -17.15 8.25 -16.9 Q8.35 -16.75 8.45 -16.75 L8.5 -16.75 8.7 -16.95 Q9.0 -17.25 9.15 -17.25 L9.25 -17.2 9.2 -17.15 9.0 -16.85 8.95 -16.8 9.45 -16.7 Q9.8 -16.6 10.0 -16.45 L10.0 -16.65 10.05 -16.75 10.0 -17.0 9.9 -17.35 M11.15 -13.4 Q11.0 -13.5 11.0 -13.6 L11.0 -13.7 Q11.0 -13.75 11.0 -13.7 L11.3 -13.7 11.35 -13.65 Q11.55 -13.6 11.65 -13.4 L11.65 -13.35 Q11.6 -13.3 11.55 -13.3 11.35 -13.3 11.15 -13.4 M10.0 -12.1 L10.0 -12.2 Q9.9 -12.2 10.05 -12.2 L10.4 -12.15 10.4 -12.3 10.5 -12.3 Q10.75 -12.3 10.9 -12.25 11.0 -12.15 11.2 -12.15 L12.2 -12.6 Q12.85 -12.9 12.95 -12.6 L13.4 -12.9 13.35 -12.95 13.25 -13.0 Q13.4 -13.05 13.45 -13.1 13.5 -13.15 13.7 -13.05 L13.75 -12.95 13.7 -12.85 Q13.7 -12.8 13.6 -12.8 L13.55 -12.8 13.1 -12.5 Q13.1 -12.4 12.9 -12.15 L12.65 -11.8 Q12.05 -11.2 11.55 -11.2 10.9 -11.2 10.6 -11.6 L10.45 -11.9 10.1 -12.1 10.0 -12.1 M11.15 -12.0 Q11.1 -12.0 11.0 -12.1 L10.95 -12.1 Q10.75 -12.25 10.45 -12.2 L10.45 -12.1 10.5 -12.15 10.5 -12.1 10.55 -12.1 10.65 -12.05 Q11.05 -11.9 11.3 -11.9 11.6 -11.9 12.1 -12.1 L12.6 -12.4 12.65 -12.45 12.6 -12.6 Q12.45 -12.6 11.4 -12.1 L11.15 -12.0 M10.7 -11.65 Q10.9 -11.4 11.45 -11.4 12.1 -11.4 12.55 -11.95 L12.75 -12.25 12.7 -12.2 12.5 -12.1 Q11.75 -11.7 11.0 -11.7 10.9 -11.7 10.65 -11.8 L10.7 -11.65 M11.4 -8.9 L11.35 -8.9 11.25 -8.85 Q11.3 -8.5 11.75 -8.3 11.75 -8.4 11.75 -8.5 L11.75 -8.55 Q11.75 -8.8 11.7 -8.9 11.6 -9.0 11.45 -8.95 L11.4 -8.9 M10.45 -7.75 Q10.45 -6.75 13.15 -6.55 L14.4 -6.5 14.5 -6.45 Q13.75 -6.9 12.15 -7.8 11.7 -7.95 11.5 -8.05 11.2 -8.3 11.2 -8.6 L11.2 -8.8 Q10.95 -8.6 10.75 -8.35 L10.7 -8.3 Q10.45 -8.05 10.45 -7.75 M17.45 -7.35 L17.7 -7.7 17.7 -7.85 Q17.7 -8.15 17.3 -8.45 L17.05 -8.65 16.6 -8.65 16.6 -8.6 Q16.7 -8.25 16.7 -7.8 L16.7 -7.75 16.45 -7.3 16.45 -7.25 16.4 -7.15 16.35 -6.9 Q16.35 -6.75 16.15 -6.6 16.35 -6.75 16.75 -6.9 17.25 -7.1 17.45 -7.35 M16.9 -13.9 L16.9 -13.95 16.85 -13.9 16.9 -13.9 M16.15 -8.75 L16.15 -7.2 16.35 -7.5 16.35 -7.6 16.4 -7.6 Q16.55 -7.85 16.55 -7.95 16.55 -8.1 16.45 -8.3 16.4 -8.55 16.25 -8.7 L16.15 -8.75" fill="#111111" fill-rule="evenodd" stroke="none"/>
    <path d="M11.4 -18.1 L11.4 -17.85 Q11.4 -17.6 11.6 -16.65 L11.75 -15.95 12.35 -16.45 Q12.4 -17.05 12.75 -17.35 13.15 -17.65 13.7 -17.55 L14.0 -17.45 14.25 -17.45 14.5 -17.25 14.55 -17.2 13.85 -17.1 Q12.4 -16.8 12.4 -16.0 12.4 -15.9 12.4 -15.85 L12.4 -15.85 12.4 -15.8 Q12.4 -15.6 12.45 -15.6 L12.7 -15.65 Q12.85 -15.55 13.25 -15.5 L12.8 -15.55 12.8 -15.5 13.35 -15.4 Q13.6 -15.3 13.65 -15.3 14.25 -15.3 14.9 -15.7 L15.05 -15.8 Q15.2 -15.2 15.2 -14.75 L15.2 -14.55 15.0 -14.65 Q14.95 -14.45 15.1 -14.25 L14.75 -13.2 14.3 -12.15 14.15 -11.9 13.65 -11.2 Q13.35 -10.8 12.95 -10.55 L11.9 -10.0 Q11.25 -9.95 10.7 -10.15 10.3 -10.55 9.7 -11.2 9.45 -11.65 9.3 -12.05 9.05 -12.65 8.85 -13.25 L8.75 -13.65 Q8.6 -14.1 8.4 -14.9 L8.35 -15.95 8.3 -16.35 Q8.45 -16.25 8.6 -16.25 8.7 -16.0 8.8 -15.9 8.8 -15.75 9.1 -15.55 9.45 -15.3 9.95 -15.2 L9.95 -15.1 Q10.05 -15.05 10.05 -14.75 L10.0 -14.2 9.95 -13.8 9.9 -13.65 9.85 -13.6 Q9.85 -13.5 9.95 -13.4 10.1 -13.3 10.25 -13.3 10.55 -13.05 10.85 -13.05 11.3 -13.05 11.55 -13.2 11.8 -13.35 11.8 -13.5 11.8 -14.0 11.35 -13.95 L10.55 -13.75 Q10.5 -13.75 10.3 -13.85 L10.2 -13.85 10.15 -13.95 10.15 -14.0 10.25 -14.35 Q10.35 -14.75 10.35 -14.95 L10.35 -15.15 10.2 -16.8 10.2 -16.9 Q10.2 -17.35 10.15 -17.4 L10.05 -17.5 10.0 -17.65 9.75 -17.85 9.65 -18.0 9.3 -18.35 9.35 -18.35 9.3 -18.4 Q9.1 -18.6 8.8 -18.65 L8.7 -18.75 Q8.6 -19.05 8.6 -19.15 8.6 -19.55 8.8 -19.95 L8.75 -19.95 Q9.35 -20.85 10.2 -21.3 10.45 -21.4 10.9 -21.55 L11.1 -21.6 Q11.85 -20.2 12.05 -19.9 12.5 -19.25 13.05 -18.85 L12.2 -18.65 11.8 -18.5 11.65 -18.5 11.6 -18.4 Q11.35 -18.3 11.35 -18.2 L11.4 -18.1 M12.65 -16.0 L12.7 -16.1 12.65 -16.05 12.65 -16.0 M15.8 -8.65 L15.85 -8.35 15.85 -7.1 Q15.8 -6.9 15.65 -6.75 15.5 -6.55 15.2 -6.45 L13.7 -7.3 12.1 -8.2 12.05 -8.25 12.05 -8.35 12.85 -8.55 Q14.15 -8.8 14.8 -8.8 15.25 -8.8 15.8 -8.65 M13.65 -14.9 Q13.35 -14.75 13.35 -14.55 13.35 -14.15 13.9 -14.15 14.35 -14.15 14.55 -14.45 14.65 -14.6 14.65 -14.8 L14.65 -14.95 Q14.55 -15.1 14.4 -15.1 14.0 -15.1 13.65 -14.9 M8.25 -17.15 Q8.4 -16.8 8.5 -16.75 L8.45 -16.75 Q8.35 -16.75 8.25 -16.9 L8.25 -17.15 M9.2 -17.15 L9.8 -17.3 9.9 -17.35 10.0 -17.0 10.05 -16.75 10.0 -16.65 9.65 -16.8 9.0 -16.85 9.2 -17.15 M8.85 -14.85 Q8.85 -14.7 8.95 -14.55 9.1 -14.3 9.4 -14.3 9.8 -14.3 9.8 -14.6 9.8 -15.0 9.3 -15.1 8.85 -15.25 8.85 -14.85 M10.0 -12.1 L10.1 -12.1 10.45 -11.9 10.6 -11.6 Q10.9 -11.2 11.55 -11.2 12.05 -11.2 12.65 -11.8 L12.9 -12.15 Q13.1 -12.4 13.1 -12.5 L13.55 -12.8 13.6 -12.8 Q13.7 -12.8 13.7 -12.85 L13.75 -12.95 13.7 -13.05 Q13.5 -13.15 13.45 -13.1 13.4 -13.05 13.25 -13.0 L13.35 -12.95 13.4 -12.9 12.95 -12.6 Q12.85 -12.9 12.2 -12.6 L11.2 -12.15 Q11.0 -12.15 10.9 -12.25 10.75 -12.3 10.5 -12.3 L10.4 -12.3 10.4 -12.15 10.05 -12.2 Q9.9 -12.2 10.0 -12.2 L10.0 -12.1" fill="#c7a36d" fill-rule="evenodd" stroke="none"/>
    <path d="M12.4 -15.85 L12.55 -15.95 12.65 -16.0 12.65 -16.05 12.7 -16.1 12.75 -16.1 12.8 -16.15 12.9 -16.2 Q12.9 -16.1 12.95 -16.0 13.05 -15.75 13.25 -15.75 13.8 -15.75 14.0 -15.95 14.15 -16.05 14.15 -16.35 L14.1 -16.5 14.3 -16.55 Q14.65 -16.55 14.9 -16.45 L14.65 -16.15 Q14.4 -15.9 13.85 -15.65 13.5 -15.55 13.25 -15.5 12.85 -15.55 12.7 -15.65 L12.45 -15.6 Q12.4 -15.6 12.4 -15.8 L12.4 -15.85 M8.6 -16.25 L8.7 -16.2 9.05 -16.25 9.0 -16.2 9.0 -16.1 9.15 -15.9 9.15 -15.85 Q9.2 -15.8 9.3 -15.75 9.4 -15.7 9.55 -15.65 L9.8 -15.7 Q9.9 -15.8 9.9 -15.9 L10.05 -15.85 10.15 -15.85 10.15 -15.8 10.05 -15.55 9.85 -15.55 9.7 -15.5 Q9.45 -15.5 9.3 -15.6 L9.25 -15.6 Q9.1 -15.7 9.0 -15.8 L8.95 -15.9 8.85 -16.0 8.8 -16.0 8.8 -15.9 Q8.7 -16.0 8.6 -16.25" fill="#ffffff" fill-rule="evenodd" stroke="none"/>
    <path d="M19.5 -23.7 L20.05 -23.45 20.8 -23.0 Q20.95 -23.05 20.95 -23.2 L21.0 -23.4 Q21.1 -23.6 21.9 -23.6 L21.9 -23.85 21.6 -24.45 21.5 -24.6 Q21.85 -24.4 22.1 -24.1 L22.1 -24.05 22.2 -23.95 Q22.45 -23.65 22.6 -23.25 L22.6 -23.2 Q22.75 -22.85 22.85 -22.45 22.95 -22.05 23.0 -21.55 L23.0 -20.2 22.95 -20.4 Q22.8 -21.55 22.45 -21.95 L22.25 -21.6 Q22.15 -21.4 21.85 -21.4 21.75 -21.4 21.6 -21.45 L21.35 -21.55 Q20.9 -21.55 20.55 -20.35 L20.5 -20.15 Q20.35 -19.55 20.2 -19.2 L20.15 -19.5 20.15 -20.35 20.25 -21.2 20.3 -21.75 20.4 -22.45 20.35 -22.65 Q20.2 -23.1 19.5 -23.7 M17.95 -21.7 L18.0 -21.7 Q18.3 -21.45 18.55 -21.2 L18.7 -21.1 19.25 -20.55 19.45 -20.3 19.65 -20.0 19.85 -19.65 19.9 -19.45 Q20.15 -18.75 20.15 -18.35 20.15 -18.1 20.25 -17.25 L20.3 -17.0 20.25 -17.05 Q19.55 -18.65 19.4 -18.65 19.0 -18.65 18.85 -18.5 18.8 -18.4 18.75 -18.1 18.7 -17.6 18.05 -17.6 17.8 -17.6 17.7 -17.25 L17.65 -16.85 Q17.65 -16.5 17.8 -15.7 L17.9 -14.7 17.9 -14.6 17.9 -14.65 17.45 -15.6 17.4 -15.6 17.3 -15.85 17.2 -16.05 17.05 -16.3 16.75 -16.65 16.6 -16.85 15.7 -17.5 14.2 -18.45 13.9 -18.65 Q13.6 -18.9 13.3 -19.1 L12.85 -19.55 12.8 -19.55 12.65 -19.7 Q12.3 -20.0 12.05 -20.35 L11.9 -20.45 Q13.75 -19.35 14.35 -19.05 L14.5 -19.25 Q14.5 -19.4 14.6 -19.55 14.75 -19.8 15.0 -19.8 15.1 -19.8 15.4 -19.65 15.65 -19.5 15.75 -19.5 L15.95 -19.55 16.05 -19.55 16.05 -19.8 Q16.05 -20.45 16.2 -20.6 16.45 -20.85 17.35 -20.9 L17.65 -20.9 Q17.9 -20.9 18.05 -21.05 18.1 -21.15 18.1 -21.3 18.1 -21.45 17.95 -21.7 M9.8 -21.15 L9.2 -20.7 8.85 -20.4 Q8.4 -20.0 8.15 -19.65 8.05 -20.15 7.5 -20.15 7.15 -20.15 7.0 -20.0 6.9 -19.85 6.8 -19.85 6.55 -19.85 6.4 -19.9 6.25 -20.0 6.15 -20.0 5.65 -20.0 5.55 -19.25 5.4 -19.6 5.35 -20.0 5.35 -20.45 5.45 -20.6 5.55 -20.75 5.95 -20.9 L7.1 -21.3 7.15 -21.3 7.3 -21.25 Q7.3 -21.2 7.3 -21.15 L7.3 -21.1 7.55 -21.1 Q7.65 -21.1 8.1 -21.3 8.55 -21.45 8.95 -21.4 L8.75 -21.2 8.7 -21.1 8.55 -21.0 8.65 -20.95 8.75 -20.95 8.9 -21.05 Q9.05 -21.15 9.7 -21.2 L9.8 -21.15" fill="#003060" fill-rule="evenodd" stroke="none"/>
    <path d="M11.4 -18.1 Q11.45 -17.9 11.7 -17.9 11.95 -17.9 12.7 -18.35 13.0 -18.5 13.3 -18.6 13.65 -18.4 13.95 -18.3 L14.2 -18.15 14.7 -17.9 15.7 -17.2 15.65 -17.1 15.15 -17.45 15.1 -17.5 Q14.6 -17.8 14.45 -17.85 L14.4 -17.85 14.95 -17.1 15.0 -17.1 Q14.75 -17.1 14.55 -17.2 L14.5 -17.25 14.25 -17.45 14.0 -17.45 13.7 -17.55 Q13.15 -17.65 12.75 -17.35 12.4 -17.05 12.35 -16.45 L11.75 -15.95 11.6 -16.65 Q11.4 -17.6 11.4 -17.85 L11.4 -18.1 M15.0 -17.05 L15.0 -17.0 15.0 -17.05 M15.05 -15.8 L15.25 -15.95 15.4 -16.15 15.45 -16.15 15.45 -16.25 Q15.85 -16.35 16.1 -16.65 L16.2 -16.8 16.6 -16.35 16.7 -16.25 16.75 -15.6 16.7 -15.4 Q16.65 -15.35 16.65 -15.25 16.65 -15.1 16.4 -14.85 16.15 -14.45 15.65 -14.45 L15.2 -14.5 15.2 -14.55 15.2 -14.75 Q15.2 -15.2 15.05 -15.8 M15.1 -14.25 L15.35 -14.05 Q15.8 -13.7 16.45 -13.7 L16.55 -13.7 Q16.45 -13.5 16.3 -13.1 16.2 -12.8 15.85 -12.35 L15.7 -12.2 15.15 -11.5 15.95 -12.05 15.9 -11.9 Q15.8 -10.85 15.8 -10.7 L15.8 -8.65 Q15.25 -8.8 14.8 -8.8 14.15 -8.8 12.85 -8.55 L12.05 -8.35 12.05 -8.4 12.1 -8.75 12.1 -8.95 12.0 -9.25 Q13.15 -9.4 13.9 -10.05 14.45 -10.5 14.65 -11.1 14.05 -10.6 13.65 -10.35 12.75 -9.8 11.7 -9.75 L11.45 -9.8 Q11.1 -9.9 10.75 -10.1 L10.7 -10.15 Q11.25 -9.95 11.9 -10.0 L12.95 -10.55 Q13.35 -10.8 13.65 -11.2 L14.15 -11.9 14.3 -12.15 14.75 -13.2 15.1 -14.25 M10.25 -13.3 Q10.4 -13.3 10.45 -13.35 L10.45 -13.5 10.3 -13.65 10.2 -13.85 10.3 -13.85 Q10.5 -13.75 10.55 -13.75 L11.35 -13.95 Q11.8 -14.0 11.8 -13.5 11.8 -13.35 11.55 -13.2 11.3 -13.05 10.85 -13.05 10.55 -13.05 10.25 -13.3 M10.05 -17.5 L9.75 -17.85 10.0 -17.65 10.05 -17.5 M8.8 -18.65 L8.7 -18.65 Q8.5 -18.65 8.25 -18.55 8.3 -18.95 8.35 -19.15 L8.45 -19.35 8.7 -19.8 8.75 -19.9 8.75 -19.95 8.8 -19.95 Q8.6 -19.55 8.6 -19.15 8.6 -19.05 8.7 -18.75 L8.8 -18.65 M11.8 -18.5 L11.6 -18.4 11.65 -18.5 11.8 -18.5 M17.45 -14.9 L17.25 -14.45 17.5 -14.8 17.6 -14.45 17.9 -13.65 17.8 -13.65 17.45 -13.4 Q17.4 -13.2 17.15 -13.2 16.95 -13.2 16.85 -13.3 L16.85 -13.4 Q16.85 -13.6 17.0 -13.85 17.0 -14.05 17.05 -14.15 17.25 -14.45 17.45 -14.9 M8.25 -17.15 L8.2 -17.25 8.15 -17.65 Q8.15 -18.2 8.2 -18.55 L8.35 -18.55 Q8.7 -18.55 9.25 -17.95 9.75 -17.45 9.9 -17.35 L9.8 -17.3 9.2 -17.15 9.25 -17.2 9.15 -17.25 Q9.0 -17.25 8.7 -16.95 L8.5 -16.75 Q8.4 -16.8 8.25 -17.15 M11.15 -13.4 Q11.35 -13.3 11.55 -13.3 11.6 -13.3 11.65 -13.35 L11.65 -13.4 Q11.55 -13.6 11.35 -13.65 L11.3 -13.7 11.0 -13.7 Q11.0 -13.75 11.0 -13.7 L11.0 -13.6 Q11.0 -13.5 11.15 -13.4" fill="#a9854f" fill-rule="evenodd" stroke="none"/>
    <path d="M19.5 -23.7 L19.45 -23.75 Q18.35 -24.7 17.35 -24.7 L16.95 -24.7 17.3 -24.9 17.4 -24.95 Q18.0 -25.35 18.6 -25.35 20.45 -25.35 21.5 -24.6 L21.6 -24.45 21.9 -23.85 21.9 -23.6 Q21.1 -23.6 21.0 -23.4 L20.95 -23.2 Q20.95 -23.05 20.8 -23.0 L20.05 -23.45 19.5 -23.7 M23.0 -20.2 Q22.95 -19.8 22.85 -19.15 22.7 -18.45 22.55 -18.05 21.95 -16.7 21.1 -16.35 20.9 -16.25 20.7 -16.2 L20.5 -16.2 Q20.25 -17.3 20.25 -18.4 L20.2 -19.2 Q20.35 -19.55 20.5 -20.15 L20.55 -20.35 Q20.9 -21.55 21.35 -21.55 L21.6 -21.45 Q21.75 -21.4 21.85 -21.4 22.15 -21.4 22.25 -21.6 L22.45 -21.95 Q22.8 -21.55 22.95 -20.4 L23.0 -20.2 M20.3 -17.0 L20.35 -16.15 Q20.35 -15.75 20.7 -14.1 21.1 -12.4 21.1 -11.8 21.1 -11.1 19.85 -10.2 18.45 -9.2 16.85 -9.2 L16.55 -9.25 16.45 -9.25 Q16.35 -9.15 16.15 -9.15 L16.15 -9.4 16.2 -9.6 Q16.1 -9.75 16.1 -10.05 16.05 -10.35 16.05 -10.65 16.05 -11.55 16.25 -12.0 L16.3 -12.2 Q16.45 -12.6 16.75 -12.7 16.95 -12.8 17.25 -12.85 L17.5 -13.05 Q18.15 -13.4 18.15 -12.95 L18.15 -12.9 18.2 -12.8 18.25 -11.9 18.25 -11.7 18.2 -11.5 Q18.4 -11.9 18.4 -12.35 L18.4 -12.45 18.25 -13.45 18.2 -13.7 17.9 -14.6 17.9 -14.7 17.8 -15.7 Q17.65 -16.5 17.65 -16.85 L17.7 -17.25 Q17.8 -17.6 18.05 -17.6 18.7 -17.6 18.75 -18.1 18.8 -18.4 18.85 -18.5 19.0 -18.65 19.4 -18.65 19.55 -18.65 20.25 -17.05 L20.3 -17.0 M11.9 -20.45 Q11.45 -21.0 11.15 -21.65 L11.2 -21.7 Q11.2 -21.8 11.15 -21.8 L11.05 -21.8 Q10.6 -21.7 9.95 -21.25 L9.8 -21.15 9.7 -21.2 Q9.05 -21.15 8.9 -21.05 L8.75 -20.95 8.65 -20.95 8.55 -21.0 8.7 -21.1 8.75 -21.2 8.95 -21.4 Q8.55 -21.45 8.1 -21.3 7.65 -21.1 7.55 -21.1 L7.3 -21.1 7.3 -21.15 Q7.3 -21.2 7.3 -21.25 L7.15 -21.3 7.1 -21.3 7.15 -21.3 Q7.85 -21.6 8.45 -21.85 L9.25 -22.15 9.45 -22.2 9.5 -22.2 9.6 -22.25 Q12.6 -23.15 14.2 -23.15 15.75 -23.15 17.35 -22.1 L17.95 -21.7 Q18.1 -21.45 18.1 -21.3 18.1 -21.15 18.05 -21.05 17.9 -20.9 17.65 -20.9 L17.35 -20.9 Q16.45 -20.85 16.2 -20.6 16.05 -20.45 16.05 -19.8 L16.05 -19.55 15.95 -19.55 15.75 -19.5 Q15.65 -19.5 15.4 -19.65 15.1 -19.8 15.0 -19.8 14.75 -19.8 14.6 -19.55 14.5 -19.4 14.5 -19.25 L14.35 -19.05 Q13.75 -19.35 11.9 -20.45 M8.15 -19.65 L8.05 -19.4 7.95 -19.35 7.85 -19.2 7.75 -19.15 Q6.9 -18.4 6.65 -18.4 6.0 -18.4 5.65 -19.0 L5.55 -19.25 Q5.65 -20.0 6.15 -20.0 6.25 -20.0 6.4 -19.9 6.55 -19.85 6.8 -19.85 6.9 -19.85 7.0 -20.0 7.15 -20.15 7.5 -20.15 8.05 -20.15 8.15 -19.65 M17.3 -15.25 L17.1 -14.75 Q16.75 -13.9 16.0 -13.9 15.4 -13.9 15.25 -14.35 16.05 -14.0 16.6 -14.7 17.0 -15.2 17.0 -15.55 L17.0 -15.8 17.3 -15.25 M7.8 -18.0 L7.85 -18.1 7.9 -17.3 7.9 -16.8 Q7.9 -16.2 8.0 -15.4 L8.0 -15.15 7.1 -16.05 6.6 -16.85 6.4 -17.2 Q6.5 -17.15 6.6 -17.15 7.0 -17.15 7.45 -17.55 7.8 -17.85 7.8 -18.0 M5.8 -18.6 Q6.1 -18.25 6.65 -18.25 7.0 -18.25 7.7 -18.9 L7.75 -18.9 7.75 -18.6 7.85 -18.4 7.8 -18.3 7.75 -18.15 Q7.45 -17.35 6.55 -17.35 6.45 -17.35 6.3 -17.45 6.0 -18.05 5.8 -18.6" fill="#002040" fill-rule="evenodd" stroke="none"/>
    <path d="M14.55 -17.2 Q14.75 -17.1 15.0 -17.1 L15.0 -17.05 15.0 -17.0 Q14.3 -17.15 13.7 -16.9 L13.45 -16.85 13.15 -16.65 Q12.7 -16.35 12.4 -15.85 12.4 -15.9 12.4 -16.0 12.4 -16.8 13.85 -17.1 L14.55 -17.2 M9.15 -15.9 L9.1 -15.95 9.1 -16.25 9.3 -16.2 9.25 -16.15 9.2 -16.0 9.4 -15.85 9.55 -15.95 9.6 -15.95 9.6 -16.05 9.7 -16.0 9.7 -15.95 Q9.65 -15.75 9.3 -15.75 9.2 -15.8 9.15 -15.85 L9.15 -15.9 M13.2 -16.2 Q13.25 -16.1 13.45 -16.1 13.55 -16.1 13.6 -16.15 13.7 -16.2 13.7 -16.3 L13.65 -16.4 13.75 -16.45 Q13.9 -16.3 13.9 -16.15 13.9 -16.05 13.85 -16.0 13.7 -15.9 13.25 -15.85 13.1 -15.95 13.0 -16.05 12.95 -16.15 12.95 -16.2 L13.2 -16.3 13.2 -16.2 M13.65 -14.9 Q14.0 -15.1 14.4 -15.1 14.55 -15.1 14.65 -14.95 L14.65 -14.8 Q14.65 -14.6 14.55 -14.45 14.35 -14.15 13.9 -14.15 13.35 -14.15 13.35 -14.55 13.35 -14.75 13.65 -14.9 M10.0 -16.65 L10.0 -16.45 Q9.8 -16.6 9.45 -16.7 L8.95 -16.8 9.0 -16.85 9.65 -16.8 10.0 -16.65 M8.85 -14.85 Q8.85 -15.25 9.3 -15.1 9.8 -15.0 9.8 -14.6 9.8 -14.3 9.4 -14.3 9.1 -14.3 8.95 -14.55 8.85 -14.7 8.85 -14.85 M10.7 -11.65 L10.65 -11.8 Q10.9 -11.7 11.0 -11.7 11.75 -11.7 12.5 -12.1 L12.7 -12.2 12.75 -12.25 12.55 -11.95 Q12.1 -11.4 11.45 -11.4 10.9 -11.4 10.7 -11.65 M11.15 -12.0 L11.4 -12.1 Q12.45 -12.6 12.6 -12.6 L12.65 -12.45 12.6 -12.4 12.1 -12.1 Q11.6 -11.9 11.3 -11.9 11.05 -11.9 10.65 -12.05 L10.55 -12.1 10.5 -12.1 10.5 -12.15 10.45 -12.1 10.45 -12.2 Q10.75 -12.25 10.95 -12.1 L11.0 -12.1 Q11.1 -12.0 11.15 -12.0" fill="#e272e2" fill-rule="evenodd" stroke="none"/>
    <path d="M18.55 -21.75 L18.75 -21.9 Q19.05 -22.25 19.55 -22.55 L19.9 -22.75 Q20.15 -22.4 20.15 -22.15 L19.95 -21.6 Q19.8 -21.15 19.8 -20.95 19.8 -20.75 19.85 -20.6 19.5 -21.05 18.55 -21.75" fill="#0070e0" fill-rule="evenodd" stroke="none"/>
    <path d="M18.55 -21.75 L18.0 -22.15 17.35 -22.5 Q16.0 -23.3 14.95 -23.5 L15.05 -23.6 15.15 -23.6 15.4 -23.7 Q15.8 -23.85 15.95 -24.0 L16.0 -24.0 Q16.65 -24.35 17.25 -24.35 L17.3 -24.35 Q18.2 -24.3 19.2 -23.5 19.7 -23.1 19.9 -22.75 L19.55 -22.55 Q19.05 -22.25 18.75 -21.9 L18.55 -21.75" fill="#80c0f0" fill-rule="evenodd" stroke="none"/>
    <path d="M10.45 -7.75 Q10.45 -8.05 10.7 -8.3 L10.75 -8.35 Q10.95 -8.6 11.2 -8.8 L11.2 -8.6 Q11.2 -8.3 11.5 -8.05 11.7 -7.95 12.15 -7.8 13.75 -6.9 14.5 -6.45 L14.4 -6.5 13.15 -6.55 Q10.45 -6.75 10.45 -7.75 M16.7 -7.75 Q17.25 -7.65 17.4 -7.3 L17.45 -7.35 Q17.25 -7.1 16.75 -6.9 16.35 -6.75 16.15 -6.6 16.35 -6.75 16.35 -6.9 L16.4 -7.15 16.45 -7.25 16.45 -7.3 16.7 -7.75" fill="#9c9581" fill-rule="evenodd" stroke="none"/>
    <path d="M11.4 -8.9 L11.45 -8.95 Q11.6 -9.0 11.7 -8.9 11.75 -8.8 11.75 -8.55 L11.75 -8.5 Q11.75 -8.4 11.75 -8.3 11.3 -8.5 11.25 -8.85 L11.35 -8.9 11.4 -8.9 M17.45 -7.35 L17.4 -7.3 Q17.25 -7.65 16.7 -7.75 L16.7 -7.8 Q16.7 -8.25 16.6 -8.6 L16.6 -8.65 17.05 -8.65 17.3 -8.45 Q17.7 -8.15 17.7 -7.85 L17.7 -7.7 17.45 -7.35 M16.15 -8.75 L16.25 -8.7 Q16.4 -8.55 16.45 -8.3 16.55 -8.1 16.55 -7.95 16.55 -7.85 16.4 -7.6 L16.35 -7.6 16.35 -7.5 16.15 -7.2 16.15 -8.75" fill="#666154" fill-rule="evenodd" stroke="none"/>
  </g>
</svg>
