<?xml version="1.0" encoding="UTF-8" standalone="no"?>
<svg xmlns:ffdec="https://www.free-decompiler.com/flash" xmlns:xlink="http://www.w3.org/1999/xlink" ffdec:objectType="shape" height="36.1px" width="24.9px" xmlns="http://www.w3.org/2000/svg">
  <g transform="matrix(1.0, 0.0, 0.0, 1.0, -9.35, 44.8)">
    <path d="M24.05 -43.1 Q24.5 -43.5 25.05 -43.75 25.9 -44.15 26.7 -44.2 25.75 -44.55 24.75 -44.55 24.0 -44.55 23.25 -44.25 L23.3 -44.2 23.05 -44.2 Q22.2 -43.85 21.4 -43.15 20.4 -42.35 20.1 -41.6 19.9 -41.1 20.0 -40.6 L19.95 -40.55 Q19.85 -40.65 19.85 -40.85 19.85 -41.15 19.95 -41.5 20.15 -42.0 20.6 -42.65 21.25 -43.5 22.3 -44.05 L22.2 -44.1 Q22.05 -44.2 21.7 -44.2 19.8 -44.2 18.45 -42.8 L18.3 -42.65 18.0 -42.25 Q17.55 -41.6 17.25 -40.8 17.05 -40.2 17.05 -40.0 17.05 -39.2 17.25 -38.8 L18.0 -37.25 18.0 -37.2 Q17.95 -37.15 17.85 -37.15 17.8 -37.15 17.65 -37.35 L17.5 -37.45 17.4 -37.45 Q16.95 -37.45 16.55 -37.8 16.25 -38.05 16.2 -38.3 L16.15 -38.3 Q16.2 -38.0 16.5 -37.75 L16.95 -37.4 17.0 -37.35 Q17.8 -36.85 17.85 -36.45 L17.6 -36.45 17.05 -36.4 16.85 -36.35 16.4 -36.25 16.4 -36.2 16.7 -36.25 Q17.4 -36.25 18.0 -35.65 18.45 -35.15 18.45 -34.95 18.45 -34.75 18.4 -34.65 L18.7 -34.65 18.65 -35.05 18.65 -35.9 Q18.65 -36.6 18.7 -36.95 18.85 -38.3 19.3 -39.3 20.35 -41.65 23.2 -42.15 23.3 -42.4 23.75 -42.85 L23.9 -43.0 24.05 -43.1 M24.25 -43.15 L24.2 -43.1 24.15 -43.1 Q23.9 -42.85 23.55 -42.4 L23.35 -42.15 24.35 -42.25 24.4 -42.25 24.65 -42.3 25.15 -42.25 25.9 -42.25 Q26.3 -42.15 27.0 -41.85 27.4 -41.8 27.7 -41.6 28.55 -41.2 29.4 -40.8 L29.35 -40.85 Q29.65 -41.05 29.6 -41.0 L29.7 -41.0 Q29.8 -40.9 29.9 -40.9 30.05 -40.9 30.15 -41.0 31.15 -40.95 31.75 -39.85 32.25 -38.95 32.25 -38.15 L32.0 -36.95 Q32.15 -37.2 32.3 -37.6 32.5 -38.25 32.5 -38.8 32.5 -40.45 31.7 -41.5 30.75 -42.7 28.6 -43.6 L28.6 -43.55 Q28.65 -43.55 28.5 -43.55 L28.45 -43.6 28.35 -43.55 29.3 -42.8 Q29.0 -43.05 28.6 -43.35 27.95 -43.75 27.45 -43.85 L27.2 -44.0 26.95 -44.0 Q25.25 -44.0 24.25 -43.15 M25.55 -44.75 Q26.15 -44.7 26.8 -44.45 L27.55 -44.1 Q29.0 -44.1 30.3 -43.2 31.35 -42.5 31.75 -41.7 32.15 -41.25 32.45 -40.25 32.8 -39.3 32.8 -38.8 32.8 -38.15 32.45 -37.35 31.95 -36.1 31.05 -36.1 29.7 -36.1 28.6 -36.4 L28.45 -36.05 28.35 -36.05 Q28.35 -36.1 28.35 -36.2 L28.4 -36.45 27.75 -36.7 27.65 -36.65 27.6 -36.6 Q27.6 -36.65 27.6 -36.7 L27.6 -36.75 Q26.85 -37.1 26.25 -37.6 25.75 -38.0 25.0 -38.7 24.35 -39.15 23.7 -39.15 22.1 -39.15 21.2 -38.5 20.85 -38.3 20.4 -37.8 L19.9 -37.25 Q20.6 -37.2 20.9 -36.9 21.0 -36.8 21.05 -36.6 21.1 -36.35 21.15 -36.25 L21.1 -36.1 Q21.2 -36.05 21.05 -36.05 21.0 -36.05 20.9 -36.15 20.8 -36.2 20.45 -36.2 L19.85 -36.1 19.7 -36.05 Q20.0 -35.95 20.15 -35.85 L20.5 -35.55 20.2 -35.5 19.95 -35.55 Q19.5 -35.55 19.25 -35.15 L19.1 -34.85 19.1 -34.65 19.4 -34.65 Q20.45 -34.95 21.65 -35.35 23.6 -36.0 24.35 -36.2 L24.8 -36.15 24.95 -36.15 Q25.55 -36.1 26.1 -35.95 27.45 -35.7 28.2 -35.35 28.95 -35.05 30.15 -34.4 31.95 -33.6 33.1 -31.95 34.0 -30.7 34.15 -29.6 34.25 -29.25 34.25 -28.95 L34.15 -28.6 34.05 -28.2 Q33.9 -27.85 33.6 -27.6 33.45 -27.45 33.3 -27.35 L33.4 -27.25 Q33.85 -26.8 33.95 -26.35 L34.05 -26.2 33.95 -26.0 33.95 -25.95 33.9 -25.95 Q33.9 -25.85 33.9 -25.75 33.9 -25.6 33.3 -25.4 33.1 -25.35 32.9 -25.3 32.2 -25.05 31.1 -25.05 30.3 -25.05 29.8 -25.2 L29.3 -25.2 Q29.45 -22.8 28.2 -18.7 L27.85 -17.65 27.75 -17.6 Q27.45 -17.6 26.9 -17.9 26.65 -18.05 26.5 -18.15 25.8 -18.4 25.45 -18.45 L25.65 -19.3 25.6 -19.3 25.15 -19.5 25.0 -19.1 24.9 -18.7 24.85 -18.7 Q24.4 -18.7 23.55 -18.95 L22.7 -19.2 22.5 -19.3 22.35 -19.05 Q21.7 -17.65 21.7 -17.15 L21.7 -17.1 21.95 -16.9 Q22.25 -16.7 22.35 -16.05 22.5 -15.25 22.65 -14.9 L22.75 -14.7 22.75 -14.55 Q22.9 -14.25 23.25 -13.6 L23.55 -13.15 23.6 -13.05 24.0 -12.6 23.9 -12.5 23.9 -12.45 Q21.45 -8.7 20.9 -8.7 20.65 -8.7 20.15 -10.2 L19.5 -12.45 19.0 -10.8 Q18.65 -9.7 18.55 -9.0 L18.55 -8.95 Q18.5 -8.9 18.4 -8.9 18.1 -8.9 17.05 -10.3 16.05 -11.65 16.05 -11.75 16.05 -11.85 16.5 -12.7 17.0 -13.6 17.1 -14.15 L17.2 -14.45 Q17.3 -14.75 17.3 -14.85 L17.3 -15.1 Q17.35 -15.45 17.5 -15.85 L17.65 -16.25 Q17.8 -16.6 18.05 -16.85 L18.05 -16.9 18.15 -16.95 Q18.05 -17.15 17.85 -17.2 L17.25 -17.15 16.45 -17.2 Q16.35 -17.25 16.3 -17.4 16.1 -17.4 15.95 -18.95 15.9 -19.7 15.85 -20.5 L15.8 -21.2 Q15.65 -21.2 15.4 -21.35 15.3 -21.45 15.1 -21.4 L15.05 -21.4 14.75 -21.45 14.2 -21.55 13.5 -21.5 13.25 -21.55 12.9 -21.55 12.85 -21.85 12.8 -22.1 12.85 -24.75 Q12.95 -26.65 13.4 -28.05 13.75 -29.05 14.25 -29.85 L14.1 -29.75 Q13.8 -29.65 13.6 -29.6 13.1 -29.4 12.2 -29.35 L10.9 -29.25 Q10.45 -29.25 9.8 -29.6 L9.35 -29.8 Q9.5 -30.2 9.65 -30.4 10.15 -30.8 11.45 -31.55 L11.55 -31.65 12.3 -31.95 Q11.8 -31.95 11.6 -32.75 11.5 -33.15 11.55 -33.6 L11.55 -33.7 Q11.6 -34.2 11.8 -34.7 12.15 -35.35 12.8 -35.85 13.55 -36.4 14.3 -36.05 L14.8 -35.75 Q15.3 -35.6 15.9 -35.35 L16.55 -35.15 Q17.2 -34.95 18.15 -34.8 L17.95 -35.35 Q17.65 -36.0 16.7 -36.0 L16.45 -35.9 16.15 -35.85 16.0 -35.85 16.0 -36.05 Q16.0 -36.2 16.1 -36.3 16.3 -36.55 17.45 -36.65 L17.5 -36.65 16.4 -37.6 Q15.95 -37.95 15.95 -38.45 L16.0 -38.75 Q16.0 -38.95 16.2 -39.0 L16.3 -38.6 Q16.4 -38.3 16.45 -38.2 16.55 -38.05 17.1 -37.85 L17.45 -37.75 17.2 -38.25 Q17.0 -38.8 16.8 -39.35 16.8 -41.0 17.55 -42.05 18.0 -42.7 18.7 -43.2 L19.2 -43.6 Q20.6 -44.6 21.75 -44.55 L22.7 -44.45 23.0 -44.35 Q23.3 -44.5 23.65 -44.7 L25.55 -44.75 M31.85 -37.25 L32.0 -38.15 Q32.0 -38.8 31.7 -39.6 31.25 -40.6 30.6 -40.85 L29.5 -40.75 29.55 -40.75 29.6 -40.65 Q29.7 -40.6 29.55 -40.6 29.25 -40.6 28.2 -41.05 L28.55 -40.45 Q29.0 -39.45 29.0 -38.4 L29.0 -38.05 Q28.95 -37.35 28.7 -36.65 29.75 -36.45 31.05 -36.45 31.4 -36.45 31.7 -36.65 L31.85 -37.25 M28.8 -38.2 L28.8 -38.4 Q28.8 -39.35 28.4 -40.35 28.2 -40.85 27.9 -41.2 L27.85 -41.2 26.5 -41.85 Q27.05 -41.45 27.5 -40.85 28.15 -39.8 28.15 -38.45 L28.15 -38.35 Q28.15 -38.05 28.1 -37.65 L28.05 -37.45 Q27.95 -37.1 27.85 -36.9 28.15 -36.8 28.5 -36.7 L28.55 -36.95 28.7 -37.4 Q28.8 -37.8 28.8 -38.2 M28.0 -38.5 Q27.95 -39.95 27.05 -40.95 26.3 -41.85 25.3 -42.0 L24.35 -42.0 Q20.55 -41.5 19.45 -39.45 19.05 -38.7 18.95 -37.7 L18.95 -37.65 Q18.9 -37.35 18.9 -36.0 18.9 -35.8 19.0 -35.35 L19.0 -35.3 19.2 -35.45 Q19.55 -35.7 19.8 -35.75 L19.8 -35.8 19.35 -35.8 Q19.3 -35.85 19.3 -35.95 19.3 -36.1 19.8 -36.3 20.3 -36.55 20.75 -36.5 20.6 -36.6 20.45 -36.9 20.3 -37.1 19.8 -37.15 L19.5 -36.85 19.4 -36.95 Q19.35 -36.95 19.35 -37.05 L19.35 -37.1 20.15 -38.0 20.2 -38.1 20.25 -38.1 20.8 -38.45 Q22.35 -39.45 23.7 -39.45 L24.1 -39.4 Q24.35 -39.35 24.6 -39.2 L24.9 -39.0 Q25.5 -38.35 25.95 -37.95 26.65 -37.35 27.65 -36.95 L27.8 -37.35 27.9 -37.55 28.0 -38.1 28.0 -38.5 M32.85 -31.25 Q31.95 -32.45 31.5 -32.85 30.6 -33.65 28.6 -34.65 27.55 -35.1 26.4 -35.4 25.05 -35.8 24.55 -35.8 24.3 -35.8 22.25 -35.15 20.95 -34.55 19.3 -34.4 L19.2 -34.4 20.55 -34.05 Q23.45 -33.3 25.65 -33.25 L25.7 -33.15 24.75 -33.15 Q23.7 -33.15 21.75 -33.55 L18.85 -34.2 17.4 -34.65 Q16.8 -34.75 15.8 -35.0 L13.75 -35.65 13.35 -35.65 Q13.1 -35.6 12.9 -35.45 L12.85 -35.4 12.75 -35.35 Q12.5 -35.1 12.25 -34.7 L12.2 -34.65 12.1 -34.4 Q12.0 -34.2 11.95 -33.9 11.9 -33.55 11.9 -33.1 L11.9 -33.05 Q12.0 -32.8 12.25 -32.6 12.45 -32.4 13.05 -32.2 14.5 -32.65 16.0 -32.9 L16.3 -33.0 16.4 -32.95 18.0 -33.2 Q19.9 -33.45 20.75 -33.35 L21.5 -33.25 22.35 -32.95 23.85 -32.45 Q24.2 -32.25 24.7 -32.05 25.25 -31.8 25.85 -31.6 L26.1 -31.45 26.7 -31.1 26.85 -31.05 26.9 -31.0 27.1 -30.95 27.1 -30.9 Q27.85 -30.55 28.5 -30.3 L29.6 -29.6 29.7 -29.6 Q30.5 -29.0 31.6 -28.3 31.9 -28.1 32.85 -27.65 L33.35 -28.15 33.6 -28.45 Q33.8 -28.85 33.8 -29.2 33.8 -29.6 33.7 -29.95 33.45 -30.45 32.9 -31.15 L32.85 -31.25 M33.2 -25.9 Q33.35 -26.1 33.4 -26.35 L33.25 -26.55 31.85 -27.7 31.65 -27.85 31.55 -27.9 31.15 -28.3 Q29.95 -29.3 28.15 -30.3 26.3 -31.35 24.6 -31.95 L24.4 -32.0 Q22.95 -32.55 20.8 -33.05 L20.35 -33.05 18.35 -32.95 Q17.5 -33.0 16.25 -32.7 15.25 -32.5 14.5 -32.25 13.8 -32.05 13.1 -31.8 L12.9 -31.75 12.8 -31.7 Q12.15 -31.5 11.7 -31.35 11.5 -31.15 10.95 -30.8 L10.9 -30.75 Q10.15 -30.4 10.15 -30.15 10.1 -30.05 10.15 -29.95 L10.2 -29.95 Q10.3 -29.85 10.6 -29.8 10.9 -29.65 11.4 -29.65 11.8 -29.65 12.9 -29.85 L14.05 -30.1 Q14.4 -30.25 14.55 -30.25 15.25 -31.1 16.25 -31.6 L15.9 -31.5 Q14.8 -31.15 13.5 -30.5 L13.4 -30.5 Q14.65 -31.2 15.45 -31.5 16.8 -32.0 19.2 -32.4 22.65 -32.05 23.75 -31.5 24.0 -31.4 24.35 -31.15 L24.4 -31.15 24.55 -31.0 Q25.1 -30.6 25.55 -30.4 L25.55 -30.35 24.55 -30.85 24.6 -30.85 25.15 -30.55 Q26.65 -29.65 27.95 -28.75 L27.95 -28.7 Q28.0 -28.7 28.05 -28.65 L29.05 -27.95 30.25 -27.15 30.25 -27.1 Q29.45 -27.45 28.35 -28.15 L28.4 -28.05 Q28.95 -26.95 29.2 -25.85 L29.5 -25.65 Q30.0 -25.4 31.1 -25.4 L31.6 -25.4 32.0 -25.45 32.05 -25.45 33.2 -25.9 M26.6 -27.5 L26.5 -28.15 26.45 -28.35 26.4 -28.4 26.25 -28.9 Q26.05 -29.4 25.7 -29.85 L25.65 -29.9 24.95 -30.45 24.65 -30.65 25.05 -29.65 25.2 -29.3 25.35 -28.8 25.4 -28.5 25.4 -28.4 25.45 -28.35 25.45 -28.05 25.45 -28.0 Q25.45 -27.15 25.4 -26.35 L25.35 -25.8 25.35 -25.65 25.3 -25.45 25.15 -24.15 24.85 -22.75 24.25 -20.1 25.3 -19.75 Q25.9 -21.8 26.2 -23.2 L26.2 -23.3 26.3 -23.7 Q26.45 -24.6 26.55 -25.35 26.6 -26.05 26.6 -26.7 L26.6 -27.5 M25.3 -28.25 Q25.25 -28.6 25.2 -28.85 L25.1 -29.25 25.05 -29.3 25.0 -29.45 Q24.8 -30.05 24.35 -30.85 23.7 -31.3 23.2 -31.55 22.8 -31.7 22.6 -31.65 22.55 -31.75 22.5 -31.7 L22.45 -31.6 Q22.45 -31.55 22.45 -31.45 22.45 -31.35 22.65 -31.1 L22.9 -30.1 22.95 -29.75 22.95 -29.7 23.05 -29.35 23.1 -28.8 Q23.2 -28.1 23.25 -27.5 L23.25 -25.9 23.2 -25.55 Q23.15 -25.1 22.95 -24.65 L22.8 -23.2 22.7 -22.45 22.7 -22.4 Q22.5 -21.3 22.5 -21.1 L22.55 -20.9 Q22.6 -20.85 22.7 -20.8 L22.7 -20.65 23.95 -20.2 24.65 -22.5 24.7 -22.75 Q25.05 -24.3 25.2 -25.45 L25.3 -26.35 25.3 -26.4 25.3 -28.25 M26.25 -19.35 L26.7 -19.2 Q26.9 -19.4 27.05 -19.9 L27.35 -20.75 27.45 -20.75 27.45 -20.6 27.15 -19.8 26.9 -18.95 26.85 -18.85 Q26.95 -18.8 26.75 -18.8 L25.95 -19.15 25.95 -19.1 25.9 -18.85 26.05 -18.75 26.6 -18.45 Q26.8 -18.35 26.95 -18.25 L27.05 -18.2 Q27.3 -18.15 27.55 -18.1 27.65 -18.2 27.75 -18.4 L27.85 -18.6 28.05 -19.2 Q28.3 -19.9 28.5 -21.0 L28.5 -21.15 Q28.8 -22.15 28.9 -23.05 L28.95 -23.85 28.95 -24.2 Q28.95 -24.65 28.8 -25.5 L28.75 -25.55 28.8 -25.7 28.6 -26.55 28.5 -26.8 Q28.0 -27.95 27.6 -28.6 L27.55 -28.65 26.4 -29.45 26.0 -29.65 Q26.3 -29.3 26.5 -28.7 L26.5 -28.6 26.55 -28.4 26.6 -28.4 26.6 -28.2 Q26.7 -27.65 26.75 -27.0 L26.75 -26.7 Q26.75 -26.15 26.65 -25.35 L26.45 -24.1 26.3 -23.2 26.25 -23.05 Q25.85 -21.3 25.35 -19.7 L26.25 -19.35 M12.5 -32.05 L12.5 -32.0 12.6 -32.05 12.5 -32.05 M14.25 -27.85 Q14.35 -28.4 14.55 -28.95 L14.65 -29.3 Q15.0 -30.15 15.45 -30.7 14.4 -29.9 13.85 -28.65 L13.8 -28.6 Q13.55 -27.95 13.35 -27.0 13.25 -26.55 13.2 -26.0 13.1 -25.05 13.1 -23.9 L13.1 -22.55 Q13.15 -21.8 14.2 -21.8 L14.35 -21.8 Q14.25 -22.3 14.15 -23.65 L14.0 -24.8 Q13.95 -25.35 13.95 -25.5 L13.95 -25.55 14.0 -26.05 Q14.05 -26.95 14.25 -27.85 M22.8 -25.5 L22.9 -26.3 22.9 -27.15 Q22.9 -28.75 22.45 -30.25 L22.1 -31.2 21.95 -31.65 21.9 -31.7 21.95 -31.7 21.95 -31.75 20.45 -32.0 19.9 -32.05 19.05 -32.05 Q18.6 -31.85 17.8 -31.1 L17.2 -30.45 17.25 -30.5 Q17.6 -30.65 17.85 -30.6 18.15 -30.55 18.15 -30.3 18.15 -30.1 17.8 -30.1 17.3 -30.05 17.05 -29.8 L16.85 -29.4 16.65 -29.1 16.55 -28.8 16.5 -28.6 Q16.3 -27.9 16.25 -27.4 L16.35 -27.6 Q16.65 -28.1 17.0 -28.2 L17.0 -28.1 Q17.0 -27.95 16.9 -27.65 16.8 -27.4 16.75 -27.2 L16.9 -27.2 Q17.15 -27.2 17.25 -27.15 L17.25 -27.1 Q17.15 -26.95 16.95 -26.95 L16.65 -27.0 16.65 -27.05 16.6 -27.05 16.55 -27.0 Q16.95 -26.8 17.0 -26.8 17.5 -26.8 17.8 -28.2 L18.15 -29.0 18.0 -28.35 17.9 -27.85 17.7 -27.3 17.2 -26.55 17.15 -26.5 Q17.05 -26.45 16.95 -26.45 16.75 -26.45 16.1 -26.8 L16.1 -26.85 15.95 -26.9 Q15.55 -27.15 15.3 -27.35 L15.25 -27.35 15.15 -27.45 Q15.5 -26.15 15.7 -25.45 15.85 -25.1 16.05 -24.75 16.45 -24.0 17.2 -23.45 L17.15 -23.4 17.15 -23.35 Q17.1 -23.3 17.0 -23.3 16.85 -23.3 16.7 -23.35 16.3 -23.6 15.85 -24.5 L15.9 -23.7 15.9 -23.5 15.95 -22.35 15.95 -21.7 16.0 -21.6 16.0 -21.4 Q16.05 -20.8 16.25 -19.5 L16.5 -17.75 16.65 -17.7 Q16.9 -17.5 17.35 -17.45 L17.7 -17.45 Q17.8 -17.55 18.05 -17.55 18.3 -17.65 18.95 -17.85 20.0 -18.15 20.15 -18.1 L20.2 -17.9 Q20.0 -17.65 19.25 -17.45 18.7 -17.25 18.5 -17.25 L18.5 -17.2 18.6 -17.0 18.55 -16.9 18.55 -16.75 18.6 -16.5 18.7 -16.15 Q18.8 -15.85 18.8 -15.65 18.8 -15.5 18.95 -14.95 L19.1 -14.55 19.5 -13.6 19.5 -13.55 Q19.9 -13.95 20.5 -14.8 21.0 -15.6 21.35 -16.0 21.35 -16.4 21.4 -16.8 L21.4 -16.85 21.45 -17.1 21.45 -17.15 21.45 -17.2 Q21.55 -17.8 21.75 -18.45 22.1 -19.55 22.7 -20.2 L22.6 -20.3 22.0 -19.65 Q21.15 -18.85 20.75 -18.55 L20.7 -18.55 20.65 -18.6 22.35 -20.4 22.05 -20.45 22.0 -20.5 22.0 -20.65 Q22.0 -20.75 22.1 -20.95 L22.25 -21.1 22.25 -21.15 22.5 -23.05 22.5 -23.1 22.8 -25.5 M19.65 -26.55 L19.75 -26.65 Q20.0 -26.75 20.55 -26.6 L21.2 -26.4 21.25 -26.35 21.3 -26.35 21.65 -26.1 21.7 -26.0 21.65 -25.9 21.6 -25.9 21.5 -25.85 20.8 -26.1 Q20.0 -26.35 19.65 -26.25 L19.6 -26.3 19.6 -26.4 Q19.6 -26.5 19.65 -26.55 M19.9 -27.0 L19.8 -26.95 Q19.9 -27.2 20.15 -27.5 L20.2 -27.6 20.35 -27.75 20.35 -27.8 Q20.7 -28.2 20.9 -28.25 L20.95 -28.25 20.9 -28.2 Q20.65 -28.0 20.35 -27.5 L20.25 -27.35 20.2 -27.35 20.2 -27.3 19.9 -27.0 M15.5 -28.35 L15.85 -29.05 15.95 -29.2 16.15 -29.6 16.25 -29.65 16.3 -29.75 16.4 -29.9 16.45 -29.95 16.5 -30.05 16.9 -30.45 Q17.25 -30.75 17.4 -30.95 L18.25 -31.75 18.55 -32.0 17.65 -31.9 Q16.65 -31.55 15.9 -31.05 15.5 -30.7 15.2 -30.2 14.85 -29.65 14.6 -28.85 L14.55 -28.7 14.5 -28.5 14.4 -28.15 14.4 -28.1 14.35 -27.8 Q14.15 -26.95 14.1 -26.05 L14.1 -25.2 Q14.1 -24.6 14.25 -23.45 14.4 -22.6 14.5 -21.8 L15.15 -21.8 15.15 -21.85 Q15.15 -22.35 15.05 -23.0 14.95 -23.5 14.95 -24.15 L14.95 -25.85 Q15.0 -26.35 15.05 -26.6 L15.0 -26.8 Q14.95 -27.1 14.85 -27.45 L14.85 -27.75 15.1 -27.75 15.35 -27.7 Q15.35 -27.95 15.5 -28.35 M16.2 -29.35 L15.9 -28.9 Q15.75 -28.55 15.5 -27.6 L15.95 -27.35 Q15.95 -28.0 16.1 -28.6 L16.2 -29.0 16.2 -29.35 M20.9 -30.4 Q21.25 -30.4 21.7 -30.0 22.8 -29.1 22.8 -28.05 L22.8 -27.95 22.7 -27.85 22.55 -27.8 Q22.45 -27.8 22.0 -28.9 21.4 -30.0 20.6 -29.95 20.55 -29.95 20.55 -30.05 20.55 -30.45 20.9 -30.4 M20.05 -25.55 L20.15 -25.45 20.85 -24.95 20.85 -24.9 20.75 -24.85 20.55 -24.8 Q20.35 -24.8 20.0 -25.15 19.7 -25.4 19.6 -25.6 L19.55 -25.65 19.6 -25.8 Q19.65 -25.8 19.75 -25.7 L20.05 -25.55 M18.65 -25.75 Q19.0 -25.65 19.15 -25.35 19.25 -25.05 19.25 -24.55 19.25 -24.25 18.9 -23.8 18.45 -23.35 18.0 -23.3 L17.95 -23.3 17.95 -23.35 Q17.85 -23.4 17.6 -23.85 17.3 -24.4 17.2 -24.5 L16.95 -24.5 Q16.85 -24.45 16.85 -24.35 16.85 -24.25 17.15 -23.9 L17.5 -23.45 Q17.5 -23.4 17.3 -23.35 17.3 -23.6 16.95 -23.9 16.65 -24.2 16.65 -24.4 L16.65 -24.5 Q16.7 -24.6 16.9 -24.65 L17.35 -24.65 17.7 -24.15 Q18.0 -23.7 18.05 -23.7 L18.25 -23.7 18.35 -23.75 18.4 -23.75 18.65 -23.95 18.75 -24.1 Q18.95 -24.4 18.95 -24.55 18.95 -24.75 18.7 -25.2 18.45 -25.6 18.45 -25.7 18.45 -25.85 18.45 -25.8 L18.65 -25.75 M15.25 -26.1 L15.05 -23.0 15.15 -22.25 15.2 -21.8 Q15.5 -21.8 15.65 -21.7 L15.75 -21.7 15.65 -22.3 Q15.45 -23.7 15.45 -24.3 L15.5 -24.9 15.5 -25.35 Q15.35 -25.7 15.25 -26.1 M16.65 -21.0 Q17.25 -21.15 18.15 -20.95 L19.35 -20.6 19.35 -20.4 19.25 -20.4 Q17.3 -20.85 16.7 -20.85 16.65 -20.9 16.65 -21.0 M22.65 -19.65 L24.65 -19.2 24.65 -19.3 Q24.65 -19.4 24.75 -19.5 L24.75 -19.6 24.8 -19.55 24.85 -19.6 Q24.2 -19.8 23.95 -19.8 L23.4 -19.9 23.35 -19.9 Q23.1 -19.95 22.9 -20.1 L22.65 -19.65 M18.7 -14.95 Q18.35 -15.95 18.35 -16.15 L18.3 -16.4 18.05 -15.9 17.85 -15.45 17.75 -15.15 17.55 -14.45 17.5 -14.25 17.45 -14.2 17.3 -13.5 Q17.2 -13.2 16.85 -12.55 L16.5 -11.9 Q16.5 -11.4 17.15 -10.65 17.5 -10.25 18.2 -9.55 19.0 -11.75 19.35 -13.1 19.15 -13.5 18.8 -14.6 L18.7 -14.95 M21.75 -16.05 L21.5 -15.85 Q21.45 -15.55 20.55 -14.3 L19.65 -13.0 20.1 -11.7 Q20.7 -9.95 20.95 -9.35 21.75 -10.05 22.45 -10.85 23.4 -11.95 23.4 -12.5 L23.4 -12.55 Q22.95 -12.9 22.55 -14.2 L22.05 -15.65 21.8 -16.2 Q21.8 -16.15 21.75 -16.05 M33.0 -22.65 L32.9 -22.85 33.05 -22.65 33.0 -22.65 M27.5 -28.0 L27.55 -28.0 27.75 -27.45 28.0 -26.75 Q28.25 -25.75 28.25 -25.55 L28.25 -24.95 Q28.2 -24.45 28.15 -24.1 L27.8 -22.2 27.75 -22.2 Q27.75 -22.45 27.9 -23.3 L28.05 -24.2 28.05 -25.3 28.0 -25.5 27.95 -25.8 27.95 -25.9 Q27.8 -26.65 27.5 -27.65 L27.5 -28.0" fill="#111111" fill-rule="evenodd" stroke="none"/>
    <path d="M17.45 -14.2 L18.4 -14.95 18.7 -14.95 18.8 -14.6 Q19.15 -13.5 19.35 -13.1 19.0 -11.75 18.2 -9.55 17.5 -10.25 17.15 -10.65 16.5 -11.4 16.5 -11.9 L16.85 -12.55 Q17.2 -13.2 17.3 -13.5 L17.45 -14.2 M21.75 -16.05 Q21.8 -16.15 21.8 -16.2 L22.05 -15.65 22.55 -14.2 Q22.95 -12.9 23.4 -12.55 L23.4 -12.5 Q23.4 -11.95 22.45 -10.85 21.75 -10.05 20.95 -9.35 20.7 -9.95 20.1 -11.7 L19.65 -13.0 20.55 -14.3 Q21.45 -15.55 21.5 -15.85 L21.75 -16.05" fill="#e7e2ab" fill-rule="evenodd" stroke="none"/>
    <path d="M17.0 -28.1 L17.0 -28.2 Q16.65 -28.1 16.35 -27.6 L16.25 -27.4 Q16.3 -27.9 16.5 -28.6 L16.55 -28.8 16.65 -29.1 16.85 -29.4 17.05 -29.8 Q17.3 -30.05 17.8 -30.1 18.15 -30.1 18.15 -30.3 18.15 -30.55 17.85 -30.6 17.6 -30.65 17.25 -30.5 L17.2 -30.45 17.8 -31.1 Q18.6 -31.85 19.05 -32.05 L19.9 -32.05 20.45 -32.0 21.95 -31.75 21.95 -31.7 21.9 -31.7 21.95 -31.65 22.1 -31.2 22.45 -30.25 Q22.9 -28.75 22.9 -27.15 L22.9 -26.3 22.8 -25.5 22.7 -24.7 22.5 -24.9 Q22.35 -25.1 22.2 -25.4 22.05 -25.6 21.6 -25.9 L21.65 -25.9 21.7 -26.0 21.65 -26.1 Q21.8 -26.25 21.85 -26.55 21.95 -26.9 21.95 -27.3 21.95 -27.85 21.55 -28.1 21.5 -28.3 21.3 -28.3 21.15 -28.35 20.95 -28.25 L20.9 -28.25 Q20.7 -28.2 20.35 -27.8 L20.2 -27.6 20.15 -27.5 Q19.9 -27.2 19.8 -26.95 L19.9 -27.0 19.85 -26.95 Q19.75 -26.8 19.75 -26.65 L19.65 -26.55 Q19.15 -26.75 19.0 -27.05 L18.85 -27.5 Q18.75 -27.8 18.55 -28.0 L17.95 -28.0 17.9 -27.85 18.0 -28.35 18.15 -29.0 17.8 -28.2 Q17.5 -26.8 17.0 -26.8 16.95 -26.8 16.55 -27.0 L16.6 -27.05 16.65 -27.05 16.65 -27.0 16.95 -26.95 Q17.15 -26.95 17.25 -27.1 L17.2 -27.05 Q17.4 -27.1 17.55 -27.4 17.7 -27.65 17.7 -27.85 17.7 -28.45 17.15 -28.2 L17.0 -28.1 M22.5 -23.1 L22.5 -23.05 22.25 -21.15 22.25 -21.1 22.1 -20.95 Q22.0 -20.75 22.0 -20.65 L22.0 -20.5 22.05 -20.45 22.35 -20.4 20.65 -18.6 20.7 -18.55 20.75 -18.55 Q21.15 -18.85 22.0 -19.65 L22.6 -20.3 22.7 -20.2 Q22.1 -19.55 21.75 -18.45 21.55 -17.8 21.45 -17.2 L21.45 -17.15 19.75 -15.7 18.95 -14.95 Q18.8 -15.5 18.8 -15.65 18.8 -15.85 18.7 -16.15 L18.6 -16.5 18.55 -16.75 18.55 -16.9 18.6 -17.0 18.5 -17.2 18.5 -17.25 Q18.7 -17.25 19.25 -17.45 20.0 -17.65 20.2 -17.9 L20.15 -18.1 Q20.0 -18.15 18.95 -17.85 18.3 -17.65 18.05 -17.55 17.8 -17.55 17.7 -17.45 L17.35 -17.45 18.6 -18.8 21.65 -22.1 22.5 -23.1 M15.95 -22.35 L15.9 -23.5 15.9 -23.7 15.85 -24.5 Q16.3 -23.6 16.7 -23.35 16.85 -23.3 17.0 -23.3 17.1 -23.3 17.15 -23.35 L17.15 -23.4 Q17.4 -23.3 17.7 -23.3 L17.9 -23.3 17.95 -23.35 17.95 -23.3 18.0 -23.3 17.2 -22.9 Q16.3 -22.5 15.95 -22.35 M20.9 -30.4 Q20.55 -30.45 20.55 -30.05 20.55 -29.95 20.6 -29.95 21.4 -30.0 22.0 -28.9 22.45 -27.8 22.55 -27.8 L22.7 -27.85 22.8 -27.95 22.8 -28.05 Q22.8 -29.1 21.7 -30.0 21.25 -30.4 20.9 -30.4 M20.85 -24.9 L21.0 -24.8 21.5 -24.2 21.5 -24.05 21.45 -24.0 21.3 -24.0 Q20.75 -24.0 20.1 -24.6 19.55 -25.15 19.55 -25.3 19.55 -25.45 19.6 -25.6 19.7 -25.4 20.0 -25.15 20.35 -24.8 20.55 -24.8 L20.75 -24.85 20.85 -24.9 M19.75 -25.7 L19.85 -25.75 19.95 -25.6 20.05 -25.55 19.75 -25.7" fill="#f9a755" fill-rule="evenodd" stroke="none"/>
    <path d="M25.45 -28.05 L25.45 -28.35 25.4 -28.4 25.4 -28.5 25.35 -28.8 25.2 -29.3 25.05 -29.65 24.65 -30.65 24.95 -30.45 25.65 -29.9 25.7 -29.85 Q26.05 -29.4 26.25 -28.9 L26.4 -28.4 26.45 -28.35 26.5 -28.15 26.6 -27.5 26.6 -27.4 25.45 -28.05 M23.1 -28.8 L23.05 -29.35 22.95 -29.7 22.95 -29.75 22.9 -30.1 22.65 -31.1 Q22.45 -31.35 22.45 -31.45 22.45 -31.55 22.45 -31.6 L22.5 -31.7 Q22.55 -31.75 22.6 -31.65 22.8 -31.7 23.2 -31.55 23.7 -31.3 24.35 -30.85 24.8 -30.05 25.0 -29.45 L25.05 -29.3 25.1 -29.25 25.2 -28.85 Q25.25 -28.6 25.3 -28.25 L25.3 -28.1 24.95 -28.3 23.1 -28.8 M26.75 -27.0 Q26.7 -27.65 26.6 -28.2 L26.6 -28.4 26.55 -28.4 26.5 -28.6 26.5 -28.7 Q26.3 -29.3 26.0 -29.65 L26.4 -29.45 27.55 -28.65 27.6 -28.6 Q28.0 -27.95 28.5 -26.8 L28.6 -26.55 28.8 -25.7 28.75 -25.55 28.8 -25.5 Q28.95 -24.65 28.95 -24.2 L28.95 -23.85 28.9 -23.05 Q28.8 -22.15 28.5 -21.15 L28.5 -21.0 Q28.3 -19.9 28.05 -19.2 L27.85 -18.6 27.75 -18.4 Q27.65 -18.2 27.55 -18.1 27.3 -18.15 27.05 -18.2 L26.95 -18.25 Q26.8 -18.35 26.6 -18.45 L26.05 -18.75 25.9 -18.85 25.95 -19.1 25.95 -19.15 26.75 -18.8 Q26.95 -18.8 26.85 -18.85 L26.9 -18.95 27.15 -19.8 27.45 -20.6 27.45 -20.75 27.35 -20.75 27.05 -19.9 Q26.9 -19.4 26.7 -19.2 L26.25 -19.35 26.6 -20.55 Q26.9 -21.65 27.1 -22.6 L27.15 -22.65 27.35 -23.65 27.35 -23.9 27.45 -24.35 27.5 -24.8 27.55 -25.95 27.05 -26.65 26.75 -27.0 M13.35 -27.0 Q13.55 -27.95 13.8 -28.6 L13.85 -28.65 Q14.4 -29.9 15.45 -30.7 15.0 -30.15 14.65 -29.3 L14.55 -28.95 Q14.35 -28.4 14.25 -27.85 L13.7 -27.35 13.35 -27.0 M14.35 -27.8 L14.4 -28.1 14.4 -28.15 14.5 -28.5 14.55 -28.7 14.6 -28.85 Q14.85 -29.65 15.2 -30.2 15.5 -30.7 15.9 -31.05 16.65 -31.55 17.65 -31.9 L18.55 -32.0 18.25 -31.75 17.4 -30.95 Q17.25 -30.75 16.9 -30.45 L16.5 -30.05 16.45 -29.95 16.4 -29.9 16.3 -29.75 16.25 -29.65 16.15 -29.6 15.95 -29.2 15.85 -29.05 15.5 -28.35 14.35 -27.8 M16.2 -29.35 L16.2 -29.0 16.1 -28.6 Q15.95 -28.0 15.95 -27.35 L15.5 -27.6 Q15.75 -28.55 15.9 -28.9 L16.2 -29.35 M15.25 -26.1 Q15.35 -25.7 15.5 -25.35 L15.5 -24.9 15.45 -24.3 Q15.45 -23.7 15.65 -22.3 L15.75 -21.7 15.65 -21.7 Q15.5 -21.8 15.2 -21.8 L15.15 -22.25 15.05 -23.0 15.25 -26.1 M22.65 -19.65 L22.9 -20.1 Q23.1 -19.95 23.35 -19.9 L23.4 -19.9 23.95 -19.8 Q24.2 -19.8 24.85 -19.6 L24.8 -19.55 24.75 -19.6 24.75 -19.5 Q24.65 -19.4 24.65 -19.3 L24.65 -19.2 22.65 -19.65 M27.5 -28.0 L27.5 -27.65 Q27.8 -26.65 27.95 -25.9 L27.95 -25.8 28.0 -25.5 28.05 -25.3 28.05 -24.2 27.9 -23.3 Q27.75 -22.45 27.75 -22.2 L27.8 -22.2 28.15 -24.1 Q28.2 -24.45 28.25 -24.95 L28.25 -25.55 Q28.25 -25.75 28.0 -26.75 L27.75 -27.45 27.55 -28.0 27.5 -28.0" fill="#996633" fill-rule="evenodd" stroke="none"/>
    <path d="M20.1 -41.6 Q20.4 -42.35 21.4 -43.15 22.2 -43.85 23.05 -44.2 L23.3 -44.2 23.25 -44.25 Q24.0 -44.55 24.75 -44.55 25.75 -44.55 26.7 -44.2 25.9 -44.15 25.05 -43.75 24.5 -43.5 24.05 -43.1 L23.9 -43.15 Q22.95 -43.1 21.75 -42.55 20.8 -42.15 20.1 -41.6 M16.7 -36.25 L16.4 -36.2 16.4 -36.25 16.85 -36.35 Q16.75 -36.3 16.65 -36.25 L16.7 -36.25 M17.05 -36.4 L17.6 -36.45 Q18.05 -36.2 18.15 -36.0 L17.7 -36.2 Q17.35 -36.4 17.05 -36.4 M16.5 -37.75 Q16.2 -38.0 16.15 -38.3 L16.2 -38.3 Q16.25 -38.05 16.55 -37.8 16.95 -37.45 17.4 -37.45 L17.5 -37.45 17.65 -37.35 Q17.8 -37.15 17.85 -37.15 17.95 -37.15 18.0 -37.2 L18.0 -37.25 17.25 -38.8 Q17.05 -39.2 17.05 -40.0 17.05 -40.2 17.25 -40.8 17.55 -41.6 18.0 -42.25 L18.3 -42.65 18.45 -42.8 Q19.8 -44.2 21.7 -44.2 22.05 -44.2 22.2 -44.1 L22.3 -44.05 Q21.25 -43.5 20.6 -42.65 20.15 -42.0 19.95 -41.5 L19.55 -41.1 19.2 -40.65 19.3 -41.35 Q19.5 -42.2 19.6 -42.45 19.0 -41.9 18.7 -40.85 18.5 -40.05 18.5 -39.2 18.2 -39.95 17.8 -40.25 L17.7 -40.2 18.15 -38.7 Q18.4 -37.65 18.4 -37.05 L18.45 -36.6 18.25 -36.75 17.0 -37.45 16.4 -37.85 16.5 -37.75 M24.25 -43.15 Q25.25 -44.0 26.95 -44.0 L27.2 -44.0 27.45 -43.85 Q27.95 -43.75 28.6 -43.35 29.0 -43.05 29.3 -42.8 L28.35 -43.55 28.45 -43.6 28.5 -43.55 Q28.65 -43.55 28.6 -43.55 L28.6 -43.6 Q30.75 -42.7 31.7 -41.5 32.5 -40.45 32.5 -38.8 32.5 -38.25 32.3 -37.6 32.15 -37.2 32.0 -36.95 L32.25 -38.15 Q32.25 -38.95 31.75 -39.85 31.15 -40.95 30.15 -41.0 L29.3 -41.5 28.7 -41.8 30.1 -42.0 Q29.9 -42.35 29.0 -42.35 L27.65 -42.3 27.55 -42.35 27.0 -42.65 Q27.55 -42.9 28.1 -43.0 27.25 -43.25 26.35 -42.9 25.45 -43.15 24.45 -43.15 L24.25 -43.15 M29.0 -38.05 L29.0 -38.4 Q29.0 -39.45 28.55 -40.45 L28.2 -41.05 Q29.25 -40.6 29.55 -40.6 29.7 -40.6 29.6 -40.65 L29.55 -40.75 29.5 -40.75 30.6 -40.85 Q31.25 -40.6 31.7 -39.6 32.0 -38.8 32.0 -38.15 L31.85 -37.25 31.75 -37.3 31.8 -37.25 Q31.75 -38.25 31.2 -38.9 30.95 -39.1 30.4 -39.85 29.85 -40.5 29.5 -40.3 30.05 -40.0 30.55 -39.2 31.05 -38.4 31.05 -37.9 L31.0 -37.55 30.5 -37.7 Q30.45 -38.05 30.25 -38.45 L29.7 -39.45 29.6 -39.35 Q29.8 -38.2 29.8 -37.9 L29.0 -38.05 M28.15 -38.45 Q28.15 -39.8 27.5 -40.85 27.05 -41.45 26.5 -41.85 L27.85 -41.2 27.9 -41.2 Q28.2 -40.85 28.4 -40.35 28.8 -39.35 28.8 -38.4 L28.8 -38.2 28.4 -38.35 28.15 -38.45 M28.0 -38.5 L27.8 -38.6 Q25.9 -39.65 24.7 -40.1 24.7 -40.6 24.45 -40.95 24.15 -41.3 23.4 -41.75 24.0 -41.15 24.0 -40.9 L23.9 -40.4 23.7 -40.45 Q21.45 -40.55 19.85 -38.9 19.3 -38.35 18.95 -37.7 19.05 -38.7 19.45 -39.45 20.55 -41.5 24.35 -42.0 L25.3 -42.0 Q26.3 -41.85 27.05 -40.95 27.95 -39.95 28.0 -38.5" fill="#ffffff" fill-rule="evenodd" stroke="none"/>
    <path d="M17.45 -14.2 L17.5 -14.25 17.55 -14.45 17.75 -15.15 17.85 -15.45 18.05 -15.9 18.3 -16.4 18.35 -16.15 Q18.35 -15.95 18.7 -14.95 L18.4 -14.95 17.45 -14.2" fill="#a6b665" fill-rule="evenodd" stroke="none"/>
    <path d="M17.0 -28.1 L17.15 -28.2 Q17.7 -28.45 17.7 -27.85 17.7 -27.65 17.55 -27.4 17.4 -27.1 17.2 -27.05 L17.25 -27.1 17.25 -27.15 Q17.15 -27.2 16.9 -27.2 L16.75 -27.2 Q16.8 -27.4 16.9 -27.65 17.0 -27.95 17.0 -28.1 M17.9 -27.85 L17.95 -28.0 18.55 -28.0 Q18.75 -27.8 18.85 -27.5 L19.0 -27.05 Q19.15 -26.75 19.65 -26.55 19.6 -26.5 19.6 -26.4 L19.6 -26.3 19.65 -26.25 Q20.0 -26.35 20.8 -26.1 L21.5 -25.85 21.6 -25.9 Q22.05 -25.6 22.2 -25.4 22.35 -25.1 22.5 -24.9 L22.7 -24.7 22.8 -25.5 22.5 -23.1 21.65 -22.1 18.6 -18.8 17.35 -17.45 Q16.9 -17.5 16.65 -17.7 L16.5 -17.75 16.25 -19.5 Q16.05 -20.8 16.0 -21.4 L16.0 -21.6 15.95 -21.7 15.95 -22.35 Q16.3 -22.5 17.2 -22.9 L18.0 -23.3 Q18.45 -23.35 18.9 -23.8 19.25 -24.25 19.25 -24.55 19.25 -25.05 19.15 -25.35 19.0 -25.65 18.65 -25.75 18.4 -26.05 18.1 -26.15 18.3 -26.6 18.3 -26.85 18.3 -27.95 17.7 -27.3 L17.9 -27.85 M19.75 -26.65 Q19.75 -26.8 19.85 -26.95 L19.9 -27.0 20.2 -27.3 20.2 -27.35 20.25 -27.35 20.35 -27.5 Q20.65 -28.0 20.9 -28.2 L20.95 -28.25 Q21.15 -28.35 21.3 -28.3 21.5 -28.3 21.55 -28.1 21.95 -27.85 21.95 -27.3 21.95 -26.9 21.85 -26.55 21.8 -26.25 21.65 -26.1 L21.3 -26.35 21.25 -26.35 21.2 -26.4 20.55 -26.6 Q20.0 -26.75 19.75 -26.65 M20.2 -27.6 L20.35 -27.8 20.35 -27.75 20.2 -27.6 M21.45 -17.15 L21.45 -17.1 21.4 -16.85 21.4 -16.8 Q21.35 -16.4 21.35 -16.0 21.0 -15.6 20.5 -14.8 19.9 -13.95 19.5 -13.55 L19.5 -13.6 19.1 -14.55 18.95 -14.95 19.75 -15.7 21.45 -17.15 M20.85 -24.9 L20.85 -24.95 20.15 -25.45 20.05 -25.55 19.95 -25.6 19.85 -25.75 19.75 -25.7 Q19.65 -25.8 19.6 -25.8 L19.55 -25.65 19.6 -25.6 Q19.55 -25.45 19.55 -25.3 19.55 -25.15 20.1 -24.6 20.75 -24.0 21.3 -24.0 L21.45 -24.0 21.5 -24.05 21.5 -24.2 21.0 -24.8 20.85 -24.9 M17.8 -25.1 L17.8 -25.1 M16.65 -21.0 Q16.65 -20.9 16.7 -20.85 17.3 -20.85 19.25 -20.4 L19.35 -20.4 19.35 -20.6 18.15 -20.95 Q17.25 -21.15 16.65 -21.0" fill="#fcd5ad" fill-rule="evenodd" stroke="none"/>
    <path d="M26.6 -27.5 L26.6 -26.7 Q26.6 -26.05 26.55 -25.35 26.25 -25.75 25.9 -26.05 L25.8 -26.1 Q25.7 -24.45 25.15 -23.0 L25.2 -23.05 Q25.55 -23.05 26.1 -23.2 L26.2 -23.25 26.2 -23.3 26.2 -23.2 Q25.9 -21.8 25.3 -19.75 L24.25 -20.1 24.85 -22.75 25.15 -24.15 25.3 -25.45 25.35 -25.65 25.35 -25.8 25.4 -26.35 Q25.45 -27.15 25.45 -28.0 L25.45 -28.05 26.6 -27.4 26.6 -27.5 M25.3 -28.25 L25.3 -26.4 25.25 -26.35 24.95 -26.3 25.0 -25.5 Q25.0 -25.1 24.65 -23.5 L24.55 -23.05 Q24.6 -22.85 24.7 -22.75 L24.65 -22.5 23.95 -20.2 22.7 -20.65 22.7 -20.8 Q22.6 -20.85 22.55 -20.9 L22.5 -21.1 Q22.5 -21.3 22.7 -22.4 L22.7 -22.45 Q23.35 -23.5 23.55 -23.7 L23.7 -23.3 Q23.75 -23.15 23.9 -23.05 L23.8 -22.55 23.7 -22.0 23.7 -21.9 23.8 -21.9 Q23.95 -22.15 24.1 -22.5 L24.1 -22.55 24.15 -22.65 24.2 -22.85 24.2 -22.9 Q24.4 -24.15 24.55 -24.65 L24.5 -26.25 24.5 -26.35 24.4 -26.35 Q24.25 -26.3 24.1 -26.2 L23.85 -26.05 Q23.7 -26.3 23.55 -26.7 L23.3 -27.35 23.25 -27.5 Q23.2 -28.1 23.1 -28.8 L24.95 -28.3 25.3 -28.1 25.3 -28.25 M26.75 -27.0 L27.05 -26.65 27.55 -25.95 27.5 -24.8 26.95 -24.75 Q27.0 -25.2 26.65 -25.35 26.75 -26.15 26.75 -26.7 L26.75 -27.0 M27.1 -22.6 Q26.9 -21.65 26.6 -20.55 L26.25 -19.35 25.35 -19.7 Q25.85 -21.3 26.25 -23.05 L26.3 -23.2 26.3 -23.15 Q26.8 -22.75 27.1 -22.6 M13.7 -27.35 L14.25 -27.85 Q14.05 -26.95 14.0 -26.05 L14.0 -26.2 13.95 -26.2 Q13.85 -26.2 13.7 -26.0 13.55 -26.4 13.55 -26.75 13.55 -26.9 13.7 -27.35 M14.0 -24.8 L14.15 -23.65 Q14.25 -22.3 14.35 -21.8 L14.2 -21.8 Q13.15 -21.8 13.1 -22.55 L13.1 -23.9 13.2 -24.15 Q13.45 -24.8 13.75 -24.8 L14.0 -24.8 M14.35 -27.8 L15.5 -28.35 Q15.35 -27.95 15.35 -27.7 L15.1 -27.75 14.85 -27.75 14.85 -27.45 Q14.95 -27.1 15.0 -26.8 L15.0 -26.9 Q14.85 -26.95 14.7 -26.75 14.6 -26.65 14.2 -25.95 L14.1 -26.05 Q14.15 -26.95 14.35 -27.8 M14.95 -24.15 Q14.95 -23.5 15.05 -23.0 15.15 -22.35 15.15 -21.85 L15.15 -21.8 14.5 -21.8 Q14.4 -22.6 14.25 -23.45 14.1 -24.6 14.1 -25.2 L14.1 -25.05 14.3 -24.85 14.55 -24.4 Q14.75 -24.1 14.95 -24.05 L14.95 -24.15 M24.1 -24.55 L24.1 -24.45 24.0 -24.5 24.1 -24.55" fill="#bc863d" fill-rule="evenodd" stroke="none"/>
    <path d="M17.15 -23.4 L17.2 -23.45 17.3 -23.35 Q17.5 -23.3 17.7 -23.3 17.4 -23.3 17.15 -23.4 M15.3 -27.35 Q15.55 -27.15 15.95 -26.9 L16.1 -26.85 16.1 -26.8 Q16.75 -26.45 16.95 -26.45 17.05 -26.45 17.15 -26.5 L17.2 -26.55 17.7 -27.3 Q18.3 -27.95 18.3 -26.85 18.3 -26.6 18.1 -26.15 18.4 -26.05 18.65 -25.75 L18.45 -25.8 Q18.45 -25.85 18.45 -25.7 18.45 -25.6 18.7 -25.2 18.95 -24.75 18.95 -24.55 18.95 -24.4 18.75 -24.1 L18.65 -23.95 18.4 -23.75 18.5 -23.8 18.5 -24.0 Q18.5 -24.55 18.0 -25.1 17.45 -25.65 16.35 -26.1 16.05 -26.3 15.3 -27.35" fill="#fcbdad" fill-rule="evenodd" stroke="none"/>
    <path d="M17.2 -23.45 Q16.45 -24.0 16.05 -24.75 15.85 -25.1 15.7 -25.45 15.5 -26.15 15.15 -27.45 L15.25 -27.35 15.3 -27.35 Q16.05 -26.3 16.35 -26.1 17.45 -25.65 18.0 -25.1 18.5 -24.55 18.5 -24.0 L18.5 -23.8 18.4 -23.75 18.35 -23.75 18.25 -23.7 18.05 -23.7 Q18.0 -23.7 17.7 -24.15 L17.35 -24.65 16.9 -24.65 Q16.7 -24.6 16.65 -24.5 L16.65 -24.4 Q16.65 -24.2 16.95 -23.9 17.3 -23.6 17.3 -23.35 17.5 -23.4 17.5 -23.45 L17.15 -23.9 Q16.85 -24.25 16.85 -24.35 16.85 -24.45 16.95 -24.5 L17.2 -24.5 Q17.3 -24.4 17.6 -23.85 17.85 -23.4 17.95 -23.35 L17.9 -23.3 17.7 -23.3 Q17.5 -23.3 17.3 -23.35 L17.2 -23.45 M17.8 -25.1 L17.8 -25.1" fill="#f88874" fill-rule="evenodd" stroke="none"/>
    <path d="M26.55 -25.35 Q26.45 -24.6 26.3 -23.7 L26.2 -23.3 26.2 -23.25 26.1 -23.2 Q25.55 -23.05 25.2 -23.05 L25.15 -23.0 Q25.7 -24.45 25.8 -26.1 L25.9 -26.05 Q26.25 -25.75 26.55 -25.35 M25.3 -26.4 L25.3 -26.35 25.2 -25.45 Q25.05 -24.3 24.7 -22.75 24.6 -22.85 24.55 -23.05 L24.65 -23.5 Q25.0 -25.1 25.0 -25.5 L24.95 -26.3 25.25 -26.35 25.3 -26.4 M22.7 -22.45 L22.8 -23.2 22.95 -24.65 Q23.15 -25.1 23.2 -25.55 L23.25 -25.9 23.25 -27.5 23.3 -27.35 23.55 -26.7 Q23.7 -26.3 23.85 -26.05 L24.1 -26.2 Q24.25 -26.3 24.4 -26.35 L24.5 -26.35 24.5 -26.25 24.55 -24.65 Q24.4 -24.15 24.2 -22.9 L24.2 -22.85 24.15 -22.65 24.1 -22.55 24.1 -22.5 Q23.95 -22.15 23.8 -21.9 L23.7 -21.9 23.7 -22.0 23.8 -22.55 23.9 -23.05 Q23.75 -23.15 23.7 -23.3 L23.55 -23.7 Q23.35 -23.5 22.7 -22.45 M27.5 -24.8 L27.45 -24.35 27.35 -23.9 27.35 -23.65 27.15 -22.65 27.1 -22.6 Q26.8 -22.75 26.3 -23.15 L26.3 -23.2 26.45 -24.1 26.65 -25.35 Q27.0 -25.2 26.95 -24.75 L27.5 -24.8 M13.35 -27.0 L13.7 -27.35 Q13.55 -26.9 13.55 -26.75 13.55 -26.4 13.7 -26.0 13.85 -26.2 13.95 -26.2 L14.0 -26.2 14.0 -26.05 13.95 -25.55 13.95 -25.5 Q13.95 -25.35 14.0 -24.8 L13.75 -24.8 Q13.45 -24.8 13.2 -24.15 L13.1 -23.9 Q13.1 -25.05 13.2 -26.0 13.25 -26.55 13.35 -27.0 M15.0 -26.8 L15.05 -26.6 Q15.0 -26.35 14.95 -25.85 L14.95 -24.15 14.95 -24.05 Q14.75 -24.1 14.55 -24.4 L14.3 -24.85 14.1 -25.05 14.1 -25.2 14.1 -26.05 14.2 -25.95 Q14.6 -26.65 14.7 -26.75 14.85 -26.95 15.0 -26.9 L15.0 -26.8 M24.1 -24.55 L24.0 -24.5 24.1 -24.45 24.1 -24.55" fill="#ddb57d" fill-rule="evenodd" stroke="none"/>
    <path d="M11.95 -33.9 Q12.0 -34.2 12.1 -34.4 L12.2 -34.65 12.25 -34.7 Q12.5 -35.1 12.75 -35.35 L12.85 -35.4 12.9 -35.45 Q13.1 -35.6 13.35 -35.65 L13.75 -35.65 15.8 -35.0 Q16.8 -34.75 17.4 -34.65 L18.85 -34.2 21.75 -33.55 Q23.7 -33.15 24.75 -33.15 L25.7 -33.15 25.65 -33.25 Q23.45 -33.3 20.55 -34.05 L19.2 -34.4 19.3 -34.4 Q20.95 -34.55 22.25 -35.15 24.3 -35.8 24.55 -35.8 25.05 -35.8 26.4 -35.4 27.55 -35.1 28.6 -34.65 30.6 -33.65 31.5 -32.85 31.95 -32.45 32.85 -31.25 L32.75 -31.1 Q32.45 -30.7 31.95 -30.7 31.2 -30.7 30.6 -31.0 29.75 -31.45 28.9 -31.8 28.4 -32.0 27.3 -32.15 L24.85 -32.55 21.7 -33.2 21.5 -33.25 20.75 -33.35 Q18.35 -33.8 16.9 -33.8 15.95 -33.8 15.05 -33.6 L13.65 -33.45 Q12.9 -33.45 11.95 -33.9 M10.15 -29.95 Q10.1 -30.05 10.15 -30.15 10.15 -30.4 10.9 -30.75 L10.95 -30.8 Q11.5 -31.15 11.7 -31.35 12.15 -31.5 12.8 -31.7 L12.9 -31.75 13.1 -31.8 Q13.8 -32.05 14.5 -32.25 15.25 -32.5 16.25 -32.7 17.5 -33.0 18.35 -32.95 L20.35 -33.05 20.8 -33.05 Q22.95 -32.55 24.4 -32.0 L24.6 -31.95 Q26.3 -31.35 28.15 -30.3 29.95 -29.3 31.15 -28.3 L31.55 -27.9 31.65 -27.85 31.85 -27.7 33.25 -26.55 33.4 -26.35 Q33.35 -26.1 33.2 -25.9 L33.25 -26.0 Q32.85 -26.5 31.8 -27.3 30.1 -28.55 27.7 -29.9 25.15 -31.3 23.1 -32.1 20.8 -33.0 19.9 -32.75 16.8 -32.55 13.45 -31.3 11.2 -30.45 10.15 -29.95" fill="#993333" fill-rule="evenodd" stroke="none"/>
    <path d="M11.95 -33.9 Q12.9 -33.45 13.65 -33.45 L15.05 -33.6 Q15.95 -33.8 16.9 -33.8 18.35 -33.8 20.75 -33.35 19.9 -33.45 18.0 -33.2 L16.4 -32.95 16.3 -33.0 16.0 -32.9 Q14.5 -32.65 13.05 -32.2 12.45 -32.4 12.25 -32.6 12.0 -32.8 11.9 -33.05 L11.9 -33.1 Q11.9 -33.55 11.95 -33.9 M21.5 -33.25 L21.7 -33.2 24.85 -32.55 27.3 -32.15 Q28.4 -32.0 28.9 -31.8 29.75 -31.45 30.6 -31.0 31.2 -30.7 31.95 -30.7 32.45 -30.7 32.75 -31.1 L32.85 -31.25 32.9 -31.15 Q33.45 -30.45 33.7 -29.95 33.8 -29.6 33.8 -29.2 33.8 -28.85 33.6 -28.45 L33.35 -28.15 32.85 -27.65 Q31.9 -28.1 31.6 -28.3 30.5 -29.0 29.7 -29.6 L29.6 -29.6 28.5 -30.3 Q27.85 -30.55 27.1 -30.9 L27.1 -30.95 26.9 -31.0 26.85 -31.05 26.7 -31.1 26.1 -31.45 25.85 -31.6 Q25.25 -31.8 24.7 -32.05 24.2 -32.25 23.85 -32.45 L22.35 -32.95 21.5 -33.25 M33.2 -25.9 L32.05 -25.45 32.0 -25.45 31.6 -25.4 31.1 -25.4 Q30.0 -25.4 29.5 -25.65 L29.2 -25.85 Q28.95 -26.95 28.4 -28.05 L28.35 -28.15 Q29.45 -27.45 30.25 -27.1 L30.25 -27.15 29.05 -27.95 28.05 -28.65 Q28.0 -28.7 27.95 -28.7 L27.95 -28.75 Q26.65 -29.65 25.15 -30.55 L24.6 -30.85 24.55 -30.85 25.55 -30.35 25.55 -30.4 Q25.1 -30.6 24.55 -31.0 L24.4 -31.15 24.35 -31.15 Q24.0 -31.4 23.75 -31.5 22.65 -32.05 19.2 -32.4 16.8 -32.0 15.45 -31.5 14.65 -31.2 13.4 -30.5 L13.5 -30.5 Q14.8 -31.15 15.9 -31.5 L16.25 -31.6 Q15.25 -31.1 14.55 -30.25 14.4 -30.25 14.05 -30.1 L12.9 -29.85 Q11.8 -29.65 11.4 -29.65 10.9 -29.65 10.6 -29.8 10.3 -29.85 10.2 -29.95 L10.15 -29.95 Q11.2 -30.45 13.45 -31.3 16.8 -32.55 19.9 -32.75 20.8 -33.0 23.1 -32.1 25.15 -31.3 27.7 -29.9 30.1 -28.55 31.8 -27.3 32.85 -26.5 33.25 -26.0 L33.2 -25.9" fill="#682034" fill-rule="evenodd" stroke="none"/>
    <path d="M20.1 -41.6 Q20.8 -42.15 21.75 -42.55 22.95 -43.1 23.9 -43.15 L24.05 -43.1 23.9 -43.0 23.75 -42.85 Q23.3 -42.4 23.2 -42.15 20.35 -41.65 19.3 -39.3 18.85 -38.3 18.7 -36.95 18.65 -36.6 18.65 -35.9 L18.65 -35.05 18.7 -34.65 18.4 -34.65 Q18.45 -34.75 18.45 -34.95 18.45 -35.15 18.0 -35.65 17.4 -36.25 16.7 -36.25 L16.65 -36.25 Q16.75 -36.3 16.85 -36.35 L17.05 -36.4 Q17.35 -36.4 17.7 -36.2 L18.15 -36.0 Q18.05 -36.2 17.6 -36.45 L17.85 -36.45 Q17.8 -36.85 17.0 -37.35 L16.95 -37.4 16.5 -37.75 16.4 -37.85 17.0 -37.45 18.25 -36.75 18.45 -36.6 18.4 -37.05 Q18.4 -37.65 18.15 -38.7 L17.7 -40.2 17.8 -40.25 Q18.2 -39.95 18.5 -39.2 18.5 -40.05 18.7 -40.85 19.0 -41.9 19.6 -42.45 19.5 -42.2 19.3 -41.35 L19.2 -40.65 19.55 -41.1 19.95 -41.5 Q19.85 -41.15 19.85 -40.85 19.85 -40.65 19.95 -40.55 L20.0 -40.6 Q19.9 -41.1 20.1 -41.6 M30.15 -41.0 Q30.05 -40.9 29.9 -40.9 29.8 -40.9 29.7 -41.0 L29.6 -41.0 Q29.65 -41.05 29.35 -40.85 L29.4 -40.8 Q28.55 -41.2 27.7 -41.6 27.4 -41.8 27.0 -41.85 26.3 -42.15 25.9 -42.25 L25.15 -42.25 24.65 -42.3 24.4 -42.25 24.35 -42.25 23.35 -42.15 23.55 -42.4 Q23.9 -42.85 24.15 -43.1 L24.2 -43.1 24.25 -43.15 24.45 -43.15 Q25.45 -43.15 26.35 -42.9 27.25 -43.25 28.1 -43.0 27.55 -42.9 27.0 -42.65 L27.55 -42.35 27.65 -42.3 29.0 -42.35 Q29.9 -42.35 30.1 -42.0 L28.7 -41.8 29.3 -41.5 30.15 -41.0 M29.0 -38.05 L29.8 -37.9 Q29.8 -38.2 29.6 -39.35 L29.7 -39.45 30.25 -38.45 Q30.45 -38.05 30.5 -37.7 L31.0 -37.55 31.05 -37.9 Q31.05 -38.4 30.55 -39.2 30.05 -40.0 29.5 -40.3 29.85 -40.5 30.4 -39.85 30.95 -39.1 31.2 -38.9 31.75 -38.25 31.8 -37.25 L31.75 -37.3 31.85 -37.25 31.7 -36.65 Q31.4 -36.45 31.05 -36.45 29.75 -36.45 28.7 -36.65 28.95 -37.35 29.0 -38.05 M28.15 -38.45 L28.4 -38.35 28.8 -38.2 Q28.8 -37.8 28.7 -37.4 L28.55 -36.95 28.5 -36.7 Q28.15 -36.8 27.85 -36.9 27.95 -37.1 28.05 -37.45 L28.1 -37.65 Q28.15 -38.05 28.15 -38.35 L28.15 -38.45 M18.95 -37.7 Q19.3 -38.35 19.85 -38.9 21.45 -40.55 23.7 -40.45 L23.9 -40.4 24.0 -40.9 Q24.0 -41.15 23.4 -41.75 24.15 -41.3 24.45 -40.95 24.7 -40.6 24.7 -40.1 25.9 -39.65 27.8 -38.6 L28.0 -38.5 28.0 -38.1 27.9 -37.55 27.8 -37.35 27.65 -36.95 Q26.65 -37.35 25.95 -37.95 25.5 -38.35 24.9 -39.0 L24.6 -39.2 Q24.35 -39.35 24.1 -39.4 L23.7 -39.45 Q22.35 -39.45 20.8 -38.45 L20.25 -38.1 20.2 -38.1 20.15 -38.0 19.35 -37.1 19.35 -37.05 Q19.35 -36.95 19.4 -36.95 L19.5 -36.85 19.8 -37.15 Q20.3 -37.1 20.45 -36.9 20.6 -36.6 20.75 -36.5 20.3 -36.55 19.8 -36.3 19.3 -36.1 19.3 -35.95 19.3 -35.85 19.35 -35.8 L19.8 -35.8 19.8 -35.75 Q19.55 -35.7 19.2 -35.45 L19.0 -35.3 19.0 -35.35 Q18.9 -35.8 18.9 -36.0 18.9 -37.35 18.95 -37.65 L18.95 -37.7" fill="#b1bccb" fill-rule="evenodd" stroke="none"/>
  </g>
</svg>
