<?xml version="1.0" encoding="UTF-8" standalone="no"?>
<svg xmlns:ffdec="https://www.free-decompiler.com/flash" xmlns:xlink="http://www.w3.org/1999/xlink" ffdec:objectType="shape" height="27.75px" width="24.5px" xmlns="http://www.w3.org/2000/svg">
  <g transform="matrix(1.0, 0.0, 0.0, 1.0, -1.3, 29.3)">
    <path d="M24.4 -28.65 L24.1 -28.65 Q23.1 -28.65 21.95 -28.0 21.0 -27.35 20.95 -27.35 20.7 -27.35 20.7 -27.6 20.7 -27.7 20.8 -27.95 19.3 -26.75 19.1 -26.1 19.05 -25.85 19.1 -25.4 L19.15 -24.65 Q19.65 -24.95 20.45 -24.75 21.15 -24.55 21.4 -24.35 21.95 -23.9 22.2 -23.15 L22.2 -23.0 Q22.35 -22.45 22.35 -21.6 22.35 -21.4 22.2 -20.9 L22.35 -20.85 Q22.5 -20.8 22.55 -20.8 22.75 -20.8 23.15 -20.9 23.6 -21.05 23.7 -21.15 L23.35 -21.4 Q23.15 -21.55 23.15 -21.7 23.15 -21.75 24.35 -22.4 25.5 -23.25 25.5 -24.25 L25.45 -24.6 25.4 -25.2 25.3 -25.3 Q24.85 -25.0 24.6 -24.85 L24.5 -24.85 24.45 -24.8 24.4 -24.8 Q24.2 -24.7 24.05 -24.65 23.9 -24.4 23.85 -24.4 23.55 -24.4 23.55 -24.65 L24.15 -25.55 Q24.75 -26.45 24.75 -27.2 24.75 -27.5 24.6 -27.85 24.5 -28.25 24.45 -28.65 L24.4 -28.65 M24.95 -28.8 L24.85 -26.4 Q24.85 -26.25 24.45 -25.4 L24.7 -25.5 Q25.8 -26.0 25.8 -25.55 25.8 -24.05 25.6 -23.4 25.2 -21.95 23.9 -21.6 23.95 -21.45 24.05 -21.3 24.2 -21.15 24.2 -21.1 24.2 -20.85 23.6 -20.55 23.0 -20.2 22.45 -20.2 22.2 -20.2 22.05 -20.3 L21.95 -20.15 Q22.7 -19.9 22.85 -19.35 22.9 -19.25 22.95 -18.5 L23.05 -17.6 Q23.05 -16.7 22.75 -15.9 22.35 -14.85 21.65 -14.25 L22.15 -13.75 Q22.65 -13.3 22.65 -13.2 22.65 -12.65 22.1 -11.95 21.85 -11.7 21.65 -11.55 21.95 -11.15 22.1 -10.7 22.25 -10.5 23.0 -10.15 23.5 -9.85 23.5 -9.45 23.5 -8.65 22.85 -7.15 L22.5 -6.5 Q22.1 -5.65 21.7 -5.15 L20.95 -4.05 Q20.45 -3.3 20.2 -3.05 L19.7 -2.45 Q19.4 -2.1 19.0 -2.0 17.1 -1.55 16.45 -1.55 L12.35 -1.7 11.8 -1.75 Q11.05 -1.7 10.3 -2.1 L10.2 -2.2 10.15 -2.2 Q9.55 -2.55 8.95 -3.2 8.35 -3.85 7.95 -4.65 7.8 -4.9 7.7 -5.1 7.55 -5.25 7.5 -5.45 7.5 -5.65 7.5 -6.3 L7.5 -6.55 Q7.5 -6.7 7.75 -6.95 L7.85 -20.7 Q7.95 -21.1 8.25 -21.65 8.8 -22.8 9.3 -23.1 10.3 -23.8 11.75 -25.0 12.7 -25.6 12.7 -24.4 L12.6 -23.8 Q13.4 -24.25 14.9 -24.65 16.15 -25.0 17.15 -25.1 18.2 -25.2 18.2 -24.9 18.2 -24.65 17.95 -24.2 L17.8 -23.9 18.15 -24.1 Q18.25 -24.15 18.4 -24.25 18.4 -24.4 18.55 -25.0 18.7 -25.8 19.0 -26.5 19.8 -28.65 20.95 -28.65 21.15 -28.65 21.2 -28.4 L21.25 -28.15 Q23.4 -29.1 23.95 -29.2 24.95 -29.5 24.95 -28.8 M21.65 -23.05 L21.4 -23.5 Q20.75 -24.55 19.6 -24.55 19.4 -24.55 19.1 -24.35 L18.95 -24.2 18.8 -24.1 18.3 -23.7 18.2 -23.6 18.0 -23.5 Q17.95 -23.45 17.9 -23.45 L18.0 -23.4 19.1 -23.25 19.3 -23.2 Q20.7 -22.95 21.0 -22.6 L21.15 -22.35 Q21.3 -22.1 21.3 -21.7 L21.3 -20.25 21.45 -20.25 21.9 -22.15 Q21.9 -22.55 21.65 -23.05 M17.05 -22.95 Q16.9 -22.95 16.85 -23.05 L16.85 -23.15 16.8 -23.2 17.2 -23.6 Q17.6 -24.05 17.65 -24.6 17.65 -24.65 17.5 -24.65 L17.25 -24.7 17.2 -24.7 Q15.05 -24.7 13.6 -23.85 12.3 -22.9 11.65 -22.65 L11.65 -22.6 Q11.6 -22.6 11.6 -22.7 11.6 -23.05 11.95 -23.35 11.95 -23.5 12.1 -23.8 L12.25 -24.1 12.2 -24.55 Q10.2 -23.7 9.2 -22.25 8.95 -21.9 8.6 -21.25 L13.4 -20.25 15.0 -20.55 Q16.0 -20.8 17.05 -20.6 17.75 -20.45 18.1 -20.15 18.4 -19.9 18.45 -19.6 L18.5 -19.55 Q18.7 -19.3 18.7 -19.2 18.7 -18.65 18.55 -18.5 L18.2 -18.25 17.95 -18.05 Q17.95 -17.95 17.55 -17.75 L17.5 -17.7 17.25 -17.6 17.05 -17.5 16.15 -16.2 16.15 -14.9 16.25 -13.1 Q17.25 -13.6 17.6 -14.65 L17.65 -14.85 Q17.85 -15.95 18.35 -16.55 18.85 -17.1 19.5 -17.2 L19.6 -17.2 19.65 -17.15 19.85 -17.15 19.95 -17.2 Q20.1 -17.15 20.25 -17.15 L20.65 -17.05 20.65 -17.0 Q20.7 -16.9 20.8 -16.9 L20.75 -16.8 20.85 -16.75 Q21.4 -16.25 21.4 -15.7 L21.35 -15.1 21.75 -15.7 Q22.55 -17.05 22.55 -18.4 22.55 -19.05 22.45 -19.35 22.35 -19.7 22.15 -19.75 L21.05 -19.65 20.9 -19.65 Q20.8 -19.65 20.7 -19.7 L20.65 -19.7 20.55 -19.75 20.55 -19.95 20.7 -20.75 20.8 -21.5 Q20.8 -22.3 20.55 -22.55 20.0 -23.15 18.1 -23.15 17.85 -23.15 17.6 -23.05 17.35 -22.95 17.15 -22.95 L17.05 -22.95 M16.2 -12.5 L16.25 -17.8 16.9 -17.8 17.35 -17.8 17.55 -17.85 Q18.0 -18.1 18.2 -18.35 18.4 -18.6 18.4 -19.0 L18.4 -19.1 18.3 -19.45 18.2 -19.65 Q18.0 -19.85 17.7 -20.0 17.0 -20.45 16.3 -20.45 15.85 -20.45 15.6 -20.25 15.4 -20.15 14.85 -20.1 L8.95 -6.65 9.1 -6.1 9.1 -5.95 9.25 -5.65 9.35 -5.5 9.55 -5.4 Q10.05 -5.05 11.0 -5.0 11.75 -5.1 12.4 -5.3 13.55 -5.6 14.5 -6.3 L15.55 -7.3 15.8 -7.55 15.95 -7.8 16.05 -7.95 16.2 -8.15 Q16.6 -8.8 16.9 -9.5 L17.2 -9.5 17.1 -9.15 Q17.1 -8.7 16.75 -8.15 16.55 -7.8 16.25 -7.4 L16.1 -7.25 Q15.5 -6.45 14.9 -5.9 L15.0 -5.85 Q16.7 -5.85 18.3 -7.45 18.65 -7.8 18.9 -8.1 19.15 -8.45 19.35 -8.75 19.75 -9.4 19.75 -9.7 19.75 -10.05 19.75 -10.25 L19.55 -10.75 17.95 -11.55 17.7 -11.7 17.65 -11.8 Q17.65 -11.9 17.75 -11.95 L17.8 -12.4 17.95 -12.4 Q18.0 -12.4 18.15 -12.25 18.3 -12.1 18.7 -12.1 19.2 -12.1 19.6 -12.35 L19.9 -12.55 Q20.15 -12.75 20.45 -13.1 20.9 -13.75 20.95 -14.1 20.9 -14.2 20.9 -14.3 L21.0 -14.7 Q21.0 -15.1 20.9 -15.4 L20.9 -15.55 20.85 -15.6 20.85 -15.8 Q20.7 -16.2 20.45 -16.2 L20.35 -16.2 Q19.65 -16.2 19.3 -15.55 19.05 -15.15 19.05 -14.85 L19.2 -14.55 19.2 -14.5 19.25 -14.35 19.3 -14.3 19.35 -14.1 19.35 -14.0 Q19.35 -13.75 19.15 -13.4 18.9 -12.9 18.55 -12.9 L18.15 -13.0 18.15 -13.05 Q18.7 -13.05 19.15 -13.7 L19.1 -14.0 Q19.05 -14.15 18.9 -14.3 18.6 -14.5 18.6 -14.6 18.6 -14.85 18.9 -15.3 19.15 -15.75 19.55 -16.05 20.1 -16.55 20.45 -16.45 20.2 -16.7 19.85 -16.7 18.9 -16.7 18.25 -15.6 L17.9 -14.85 17.8 -14.4 Q17.65 -13.9 17.1 -13.25 L17.05 -13.2 Q16.55 -12.6 16.2 -12.5 M9.7 -4.6 Q9.2 -4.75 8.9 -5.0 L8.8 -5.25 Q8.4 -5.6 8.15 -6.55 L8.1 -6.6 8.1 -6.45 Q8.05 -5.8 8.15 -5.5 8.45 -4.75 8.8 -4.2 L9.75 -3.3 10.15 -2.8 Q10.6 -2.5 11.2 -2.25 L12.4 -2.05 12.7 -2.05 13.75 -1.95 14.5 -1.95 15.5 -1.95 16.35 -2.0 Q17.9 -2.15 19.1 -2.8 20.65 -3.7 21.35 -5.25 L22.2 -7.05 22.25 -7.1 22.35 -7.45 22.5 -7.7 22.5 -7.8 Q22.9 -8.75 22.9 -9.2 22.9 -9.55 22.1 -10.0 22.05 -9.55 21.8 -9.0 L21.75 -8.95 21.7 -8.85 21.6 -8.6 21.35 -8.1 21.05 -7.55 20.65 -6.85 20.65 -6.8 20.4 -6.55 19.55 -5.95 18.55 -5.25 17.85 -4.85 17.1 -4.5 16.95 -4.45 15.9 -4.25 16.8 -4.6 17.35 -4.85 Q18.0 -5.1 18.4 -5.3 19.8 -6.05 20.6 -7.15 20.95 -7.65 21.15 -8.1 21.4 -8.65 21.4 -9.1 L21.45 -9.55 Q21.45 -9.8 21.55 -10.05 L21.5 -10.25 Q21.4 -10.55 21.35 -10.7 L21.3 -10.85 21.1 -11.25 Q20.7 -11.1 20.2 -11.1 L20.05 -10.9 Q20.25 -11.05 20.3 -10.25 L20.3 -10.2 Q20.3 -9.0 19.75 -8.1 19.5 -7.75 19.2 -7.45 L19.1 -7.4 18.75 -7.15 Q18.25 -6.85 17.1 -6.3 15.2 -5.45 14.75 -5.45 L14.35 -5.5 Q13.45 -4.85 12.4 -4.65 L12.05 -4.6 12.4 -4.45 12.45 -4.45 Q13.7 -4.1 14.25 -4.1 L15.85 -4.2 15.25 -4.1 14.5 -3.9 Q13.2 -3.9 12.4 -4.1 12.15 -4.15 11.95 -4.25 L11.55 -4.5 11.35 -4.45 10.95 -4.45 10.95 -4.5 10.8 -4.5 10.6 -4.45 10.5 -4.45 9.9 -4.55 9.7 -4.6 M21.0 -13.45 Q20.65 -12.45 20.05 -11.95 L20.05 -11.7 20.85 -11.9 Q22.15 -12.35 22.15 -13.2 22.15 -13.5 21.55 -13.75 21.3 -13.85 21.15 -13.95 L21.0 -13.45" fill="#111111" fill-rule="evenodd" stroke="none"/>
    <path d="M16.9 -17.8 Q17.25 -18.45 17.75 -19.15 L18.2 -19.65 18.3 -19.45 18.4 -19.1 18.4 -19.0 Q18.4 -18.6 18.2 -18.35 18.0 -18.1 17.55 -17.85 L17.35 -17.8 16.9 -17.8 M8.95 -6.65 L16.2 -12.5 Q16.55 -12.6 17.05 -13.2 L17.1 -13.25 Q17.0 -12.25 16.8 -11.3 L17.95 -11.55 19.55 -10.75 19.75 -10.25 Q19.75 -10.05 19.75 -9.7 19.75 -9.4 19.35 -8.75 19.15 -8.45 18.9 -8.1 18.65 -7.8 18.3 -7.45 16.7 -5.85 15.0 -5.85 L14.9 -5.9 Q15.5 -6.45 16.1 -7.25 L16.25 -7.4 Q16.55 -7.8 16.75 -8.15 17.1 -8.7 17.1 -9.15 L17.2 -9.5 16.9 -9.5 Q16.6 -8.8 16.2 -8.15 L16.05 -7.95 15.95 -7.8 15.8 -7.55 15.55 -7.3 14.5 -6.3 Q13.55 -5.6 12.4 -5.3 11.75 -5.1 11.0 -5.0 10.05 -5.05 9.55 -5.4 L9.35 -5.5 9.25 -5.65 9.1 -5.95 9.1 -6.1 8.95 -6.65 M19.1 -14.0 L19.15 -13.7 Q18.7 -13.05 18.15 -13.05 L18.15 -13.0 18.55 -12.9 Q18.9 -12.9 19.15 -13.4 19.35 -13.75 19.35 -14.0 L19.35 -14.1 19.4 -14.1 Q19.35 -14.15 19.3 -14.3 L19.25 -14.35 19.2 -14.5 19.2 -14.55 19.05 -14.85 Q19.05 -15.15 19.3 -15.55 19.65 -16.2 20.35 -16.2 L20.45 -16.2 Q20.7 -16.2 20.85 -15.8 L20.85 -15.6 20.9 -15.55 20.9 -15.4 Q21.0 -15.1 21.0 -14.7 L20.9 -14.3 Q20.9 -14.2 20.95 -14.1 20.9 -13.75 20.45 -13.1 20.15 -12.75 19.9 -12.55 L19.6 -12.35 Q19.2 -12.1 18.7 -12.1 18.3 -12.1 18.15 -12.25 18.0 -12.4 17.95 -12.4 L17.75 -12.9 Q17.75 -13.35 17.95 -13.45 L19.1 -14.0" fill="#a9854f" fill-rule="evenodd" stroke="none"/>
    <path d="M12.7 -2.05 L12.4 -2.05 11.2 -2.25 Q10.6 -2.5 10.15 -2.8 L9.75 -3.3 8.8 -4.2 Q8.45 -4.75 8.15 -5.5 8.05 -5.8 8.1 -6.45 L8.1 -6.6 8.15 -6.55 Q8.4 -5.6 8.8 -5.25 L8.9 -5.0 Q9.2 -4.75 9.7 -4.6 9.8 -3.95 10.5 -3.2 11.25 -2.4 12.4 -2.1 L12.7 -2.05 M19.55 -5.95 L20.4 -6.55 20.65 -6.8 20.65 -6.85 21.05 -7.55 21.4 -8.05 Q21.65 -7.35 21.65 -7.2 21.65 -6.9 20.8 -5.45 L19.9 -3.95 Q19.5 -3.35 17.4 -2.4 L16.35 -2.0 15.5 -1.95 14.5 -1.95 Q15.55 -2.15 16.95 -3.35 17.8 -4.1 18.75 -5.15 L19.55 -5.95 M19.9 -7.75 L20.05 -8.1 Q20.45 -8.75 20.95 -8.8 L20.9 -8.8 20.65 -8.1 20.4 -7.5 Q20.0 -6.75 19.4 -6.4 L19.4 -6.45 19.9 -7.75" fill="#b00000" fill-rule="evenodd" stroke="none"/>
    <path d="M9.7 -4.6 L9.9 -4.55 10.5 -4.45 10.6 -4.45 10.8 -4.5 10.95 -4.5 10.95 -4.45 11.35 -4.45 11.55 -4.5 11.95 -4.25 Q12.15 -4.15 12.4 -4.1 13.2 -3.9 14.5 -3.9 L15.25 -4.1 15.85 -4.2 14.25 -4.1 Q13.7 -4.1 12.45 -4.45 L12.4 -4.45 12.05 -4.6 12.4 -4.65 Q13.45 -4.85 14.35 -5.5 L14.75 -5.45 Q15.2 -5.45 17.1 -6.3 18.25 -6.85 18.75 -7.15 L19.1 -7.4 19.2 -7.45 Q19.5 -7.75 19.75 -8.1 20.3 -9.0 20.3 -10.2 L20.3 -10.25 Q20.25 -11.05 20.05 -10.9 L20.2 -11.1 Q20.7 -11.1 21.1 -11.25 L21.3 -10.85 21.35 -10.7 Q21.4 -10.55 21.5 -10.25 L21.55 -10.05 Q21.45 -9.8 21.45 -9.55 L21.4 -9.1 Q21.4 -8.65 21.15 -8.1 20.95 -7.65 20.6 -7.15 19.8 -6.05 18.4 -5.3 18.0 -5.1 17.35 -4.85 L16.8 -4.6 15.9 -4.25 16.95 -4.45 17.1 -4.5 17.85 -4.85 18.55 -5.25 19.55 -5.95 18.75 -5.15 Q17.8 -4.1 16.95 -3.35 15.55 -2.15 14.5 -1.95 L13.75 -1.95 12.7 -2.05 12.4 -2.1 Q11.25 -2.4 10.5 -3.2 9.8 -3.95 9.7 -4.6 M21.05 -7.55 L21.35 -8.1 21.6 -8.6 21.7 -8.85 21.75 -8.95 21.8 -9.0 Q22.05 -9.55 22.1 -10.0 22.9 -9.55 22.9 -9.2 22.9 -8.75 22.5 -7.8 L22.5 -7.7 22.35 -7.45 22.25 -7.1 22.2 -7.05 21.35 -5.25 Q20.65 -3.7 19.1 -2.8 17.9 -2.15 16.35 -2.0 L17.4 -2.4 Q19.5 -3.35 19.9 -3.95 L20.8 -5.45 Q21.65 -6.9 21.65 -7.2 21.65 -7.35 21.4 -8.05 L21.05 -7.55 M19.9 -7.75 L19.4 -6.45 19.4 -6.4 Q20.0 -6.75 20.4 -7.5 L20.65 -8.1 20.9 -8.8 20.95 -8.8 Q20.45 -8.75 20.05 -8.1 L19.9 -7.75" fill="#600000" fill-rule="evenodd" stroke="none"/>
    <path d="M16.9 -17.8 L16.25 -17.8 16.2 -12.5 8.95 -6.65 14.85 -20.1 Q15.4 -20.15 15.6 -20.25 15.85 -20.45 16.3 -20.45 17.0 -20.45 17.7 -20.0 18.0 -19.85 18.2 -19.65 L17.75 -19.15 Q17.25 -18.45 16.9 -17.8 M17.1 -13.25 Q17.65 -13.9 17.8 -14.4 L17.9 -14.85 18.25 -15.6 Q18.9 -16.7 19.85 -16.7 20.2 -16.7 20.45 -16.45 20.1 -16.55 19.55 -16.05 19.15 -15.75 18.9 -15.3 18.6 -14.85 18.6 -14.6 18.6 -14.5 18.9 -14.3 19.05 -14.15 19.1 -14.0 L17.95 -13.45 Q17.75 -13.35 17.75 -12.9 L17.95 -12.4 17.8 -12.4 17.75 -11.95 Q17.65 -11.9 17.65 -11.8 L17.7 -11.7 17.95 -11.55 16.8 -11.3 Q17.0 -12.25 17.1 -13.25 M19.35 -14.1 L19.3 -14.3 Q19.35 -14.15 19.4 -14.1 L19.35 -14.1" fill="#c7a36d" fill-rule="evenodd" stroke="none"/>
    <path d="M21.4 -24.35 Q21.15 -24.55 20.45 -24.75 19.65 -24.95 19.15 -24.65 L19.1 -25.4 Q19.05 -25.85 19.1 -26.1 19.3 -26.75 20.8 -27.95 20.7 -27.7 20.7 -27.6 20.7 -27.35 20.95 -27.35 21.0 -27.35 21.95 -28.0 23.1 -28.65 24.1 -28.65 L24.4 -28.65 Q23.85 -27.6 23.3 -26.7 22.7 -25.75 21.75 -24.65 L21.4 -24.35 M24.6 -24.85 Q24.85 -25.0 25.3 -25.3 L25.4 -25.2 25.45 -24.6 25.35 -24.35 Q25.2 -24.0 25.0 -23.8 24.45 -23.3 22.75 -23.3 L22.6 -23.35 Q23.15 -23.65 23.75 -24.1 24.2 -24.5 24.6 -24.85 M17.25 -24.7 L14.7 -21.7 14.75 -21.7 14.7 -21.65 14.8 -21.65 Q15.9 -22.0 16.85 -22.8 L17.05 -22.95 17.15 -22.95 Q17.35 -22.95 17.6 -23.05 17.85 -23.15 18.1 -23.15 20.0 -23.15 20.55 -22.55 19.7 -21.55 19.25 -21.15 L18.1 -20.15 Q17.75 -20.45 17.05 -20.6 16.0 -20.8 15.0 -20.55 L13.4 -20.25 8.6 -21.25 Q8.95 -21.9 9.2 -22.25 10.2 -23.7 12.2 -24.55 L12.25 -24.1 12.1 -23.8 Q11.95 -23.5 11.95 -23.35 11.6 -23.05 11.6 -22.7 11.6 -22.6 11.65 -22.6 L11.65 -22.65 Q12.3 -22.9 13.6 -23.85 15.05 -24.7 17.2 -24.7 L17.25 -24.7 M21.05 -19.65 L22.15 -19.75 Q22.35 -19.7 22.45 -19.35 L22.3 -19.1 Q22.05 -18.5 21.55 -17.95 20.85 -17.15 20.25 -17.15 20.1 -17.15 19.95 -17.2 L19.85 -17.15 19.65 -17.15 19.6 -17.2 19.5 -17.2 17.8 -17.4 17.05 -17.5 17.25 -17.6 17.5 -17.7 17.55 -17.75 Q17.95 -17.95 17.95 -18.05 L18.2 -18.25 Q18.85 -18.5 19.6 -18.9 20.45 -19.3 21.05 -19.65 M16.15 -14.9 L16.15 -16.2 16.15 -14.9" fill="#003060" fill-rule="evenodd" stroke="none"/>
    <path d="M18.3 -23.7 L18.8 -24.1 18.95 -24.2 19.1 -24.35 Q19.4 -24.55 19.6 -24.55 20.75 -24.55 21.4 -23.5 L21.65 -23.05 21.15 -22.35 21.0 -22.6 Q20.7 -22.95 19.3 -23.2 18.9 -23.6 18.45 -23.75 L18.3 -23.7" fill="#9c9581" fill-rule="evenodd" stroke="none"/>
    <path d="M18.3 -23.7 L18.45 -23.75 Q18.9 -23.6 19.3 -23.2 L19.1 -23.25 18.0 -23.4 17.9 -23.45 Q17.95 -23.45 18.0 -23.5 L18.2 -23.6 18.3 -23.7 M21.15 -22.35 L21.65 -23.05 Q21.9 -22.55 21.9 -22.15 L21.45 -20.25 21.3 -20.25 21.3 -21.7 Q21.3 -22.1 21.15 -22.35" fill="#666154" fill-rule="evenodd" stroke="none"/>
    <path d="M24.4 -28.65 L24.45 -28.65 Q24.5 -28.25 24.6 -27.85 24.75 -27.5 24.75 -27.2 24.75 -26.45 24.15 -25.55 L23.55 -24.65 Q23.55 -24.4 23.85 -24.4 23.9 -24.4 24.05 -24.65 24.2 -24.7 24.4 -24.8 L24.45 -24.8 24.5 -24.85 24.6 -24.85 Q24.2 -24.5 23.75 -24.1 23.15 -23.65 22.6 -23.35 L22.75 -23.3 Q24.45 -23.3 25.0 -23.8 25.2 -24.0 25.35 -24.35 L25.45 -24.6 25.5 -24.25 Q25.5 -23.25 24.35 -22.4 23.15 -21.75 23.15 -21.7 23.15 -21.55 23.35 -21.4 L23.7 -21.15 Q23.6 -21.05 23.15 -20.9 22.75 -20.8 22.55 -20.8 22.5 -20.8 22.35 -20.85 L22.2 -20.9 Q22.35 -21.4 22.35 -21.6 22.35 -22.45 22.2 -23.0 L22.2 -23.15 Q21.95 -23.9 21.4 -24.35 L21.75 -24.65 Q22.7 -25.75 23.3 -26.7 23.85 -27.6 24.4 -28.65 M17.25 -24.7 L17.5 -24.65 Q17.65 -24.65 17.65 -24.6 17.6 -24.05 17.2 -23.6 L16.8 -23.2 16.85 -23.15 16.85 -23.05 Q16.9 -22.95 17.05 -22.95 L16.85 -22.8 Q15.9 -22.0 14.8 -21.65 L14.7 -21.65 14.75 -21.7 14.7 -21.7 17.25 -24.7 M20.55 -22.55 Q20.8 -22.3 20.8 -21.5 L20.7 -20.75 20.55 -19.95 20.55 -19.75 20.65 -19.7 20.7 -19.7 Q20.8 -19.65 20.9 -19.65 L21.05 -19.65 Q20.45 -19.3 19.6 -18.9 18.85 -18.5 18.2 -18.25 L18.55 -18.5 Q18.7 -18.65 18.7 -19.2 18.7 -19.3 18.5 -19.55 L18.45 -19.6 Q18.4 -19.9 18.1 -20.15 L19.25 -21.15 Q19.7 -21.55 20.55 -22.55 M22.45 -19.35 Q22.55 -19.05 22.55 -18.4 22.55 -17.05 21.75 -15.7 L21.35 -15.1 21.4 -15.7 Q21.4 -16.25 20.85 -16.75 L20.75 -16.8 20.8 -16.9 Q20.7 -16.9 20.65 -17.0 L20.65 -17.05 20.25 -17.15 Q20.85 -17.15 21.55 -17.95 22.05 -18.5 22.3 -19.1 L22.45 -19.35 M19.85 -17.15 L19.65 -17.15 19.85 -17.15 M19.5 -17.2 Q18.85 -17.1 18.35 -16.55 17.85 -15.95 17.65 -14.85 L17.6 -14.65 Q17.25 -13.6 16.25 -13.1 L16.15 -14.9 16.15 -16.2 17.05 -17.5 17.8 -17.4 19.5 -17.2 M21.0 -13.45 L21.15 -13.95 Q21.3 -13.85 21.55 -13.75 22.15 -13.5 22.15 -13.2 22.15 -12.35 20.85 -11.9 L20.05 -11.7 20.05 -11.95 Q20.65 -12.45 21.0 -13.45" fill="#002040" fill-rule="evenodd" stroke="none"/>
    <path d="M15.35 -19.8 L16.05 -18.65 Q16.3 -18.2 16.6 -18.05 L16.65 -18.0 Q17.1 -17.5 17.65 -17.3 L19.1 -16.65 Q19.05 -16.5 18.75 -16.3 18.3 -15.95 18.2 -15.75 L18.1 -15.25 17.95 -15.05 17.9 -15.05 Q17.2 -15.45 17.0 -15.3 L16.8 -15.45 16.85 -15.2 Q16.7 -15.15 16.6 -14.8 16.35 -14.15 16.35 -13.3 L16.35 -12.85 16.45 -11.85 16.6 -11.8 17.45 -11.75 18.15 -11.85 18.55 -11.95 19.3 -12.0 19.75 -12.05 Q20.1 -12.05 20.25 -11.6 20.4 -11.3 20.4 -11.05 20.4 -10.85 18.9 -10.0 17.3 -9.1 16.7 -9.1 L16.65 -9.1 16.55 -9.05 Q16.35 -8.95 15.85 -8.95 L15.4 -8.15 15.1 -7.75 Q14.4 -6.9 13.55 -6.45 L13.5 -6.4 Q13.1 -6.2 12.4 -6.05 L10.8 -5.85 10.8 -5.8 Q9.8 -5.85 9.0 -6.05 L8.9 -6.15 Q7.95 -6.45 7.3 -7.05 6.8 -7.5 6.6 -7.95 6.35 -8.1 6.25 -8.35 6.1 -8.6 6.1 -8.9 L6.1 -9.1 Q6.05 -9.35 6.05 -9.6 L6.05 -9.65 Q5.8 -10.1 5.8 -10.2 L5.85 -10.3 5.85 -10.45 4.85 -10.3 4.35 -10.25 4.5 -10.25 3.85 -10.2 Q3.55 -10.2 3.3 -10.25 L3.25 -10.25 Q2.7 -10.25 2.3 -10.5 2.0 -10.65 1.75 -10.9 1.5 -11.15 1.45 -11.35 1.3 -11.6 1.3 -11.95 1.3 -12.85 2.2 -13.25 3.05 -13.65 4.75 -13.6 L5.7 -13.7 5.2 -14.6 Q4.8 -15.45 4.75 -16.3 4.7 -16.4 4.65 -16.6 4.6 -16.85 4.55 -17.1 4.55 -17.75 4.9 -18.3 5.1 -18.7 5.4 -18.9 5.55 -19.2 5.75 -19.5 6.2 -20.2 6.8 -20.65 7.2 -21.05 7.65 -21.25 L7.95 -21.45 Q8.75 -21.9 9.55 -21.95 13.5 -21.8 15.05 -20.15 L15.3 -19.8 15.35 -19.8 M9.1 -16.15 L9.15 -16.1 9.2 -15.9 9.2 -15.85 9.3 -15.7 Q9.45 -15.45 9.65 -15.4 L9.65 -15.35 Q9.75 -15.2 9.95 -15.2 L10.0 -15.2 10.0 -15.25 10.25 -15.25 11.45 -15.7 12.1 -15.95 Q12.55 -16.0 13.15 -16.2 L13.55 -16.35 13.6 -16.4 13.85 -16.45 13.9 -16.5 14.05 -16.5 14.15 -16.55 14.35 -16.7 14.55 -16.9 Q14.75 -17.1 14.8 -17.25 L14.85 -17.45 Q14.85 -17.65 14.75 -17.9 L14.55 -18.1 14.55 -18.15 Q14.25 -18.4 13.85 -18.55 L13.8 -18.6 13.2 -18.9 Q12.7 -19.1 12.1 -19.15 L11.8 -19.15 Q12.95 -19.35 13.75 -18.95 14.0 -18.85 14.2 -18.65 L14.5 -18.45 14.7 -18.15 14.85 -17.85 14.9 -17.55 14.9 -16.95 14.75 -16.6 14.65 -16.5 Q14.5 -16.4 14.35 -16.3 14.1 -16.15 13.65 -16.0 13.75 -15.4 13.6 -14.95 13.25 -13.75 11.45 -13.75 11.2 -13.75 10.55 -14.3 10.1 -14.65 9.95 -14.85 L9.9 -14.85 Q9.75 -14.85 9.65 -14.95 L9.6 -15.05 Q9.3 -15.1 9.1 -15.45 L9.0 -15.7 8.95 -15.8 8.95 -15.9 Q8.9 -16.1 8.9 -16.35 8.9 -16.75 9.0 -16.95 9.05 -17.65 9.7 -18.25 10.1 -18.6 10.6 -18.8 L10.3 -18.6 Q10.55 -18.8 10.8 -18.9 11.2 -19.05 11.8 -19.1 L12.6 -19.05 12.35 -19.05 Q11.25 -19.05 10.45 -18.6 L9.95 -18.2 9.75 -17.95 Q9.25 -17.25 9.1 -16.75 L9.05 -16.35 9.1 -16.15 M16.1 -16.7 Q15.9 -18.05 14.9 -19.45 L14.9 -19.5 Q13.35 -21.35 10.45 -21.35 8.75 -21.25 7.55 -20.45 7.0 -20.1 6.55 -19.5 L6.5 -19.5 6.5 -19.45 6.2 -19.0 6.45 -19.05 Q7.1 -19.1 7.55 -18.7 8.0 -18.3 8.0 -17.5 L8.0 -17.25 Q7.95 -17.05 7.95 -16.85 L7.9 -16.6 Q7.9 -16.25 7.95 -15.95 8.0 -15.5 8.15 -15.3 L8.2 -14.8 Q8.7 -14.85 8.9 -14.5 9.0 -14.4 9.05 -14.15 L9.05 -14.1 9.05 -13.2 9.0 -13.4 8.95 -13.7 8.95 -13.8 8.9 -13.95 Q8.75 -14.4 8.3 -14.5 L8.25 -14.5 8.2 -14.35 Q8.2 -14.15 8.1 -13.95 7.95 -13.7 7.6 -13.5 6.85 -13.0 5.7 -13.0 3.65 -13.0 2.8 -12.75 2.5 -12.65 2.3 -12.55 2.0 -12.3 2.0 -11.9 L1.95 -11.75 Q1.95 -11.45 2.2 -11.2 2.65 -10.8 3.9 -10.75 L4.45 -10.8 5.0 -10.9 5.25 -10.9 6.0 -11.05 6.05 -11.05 7.4 -11.3 9.65 -11.75 10.0 -11.85 10.5 -11.95 Q10.95 -12.1 10.95 -12.6 10.95 -12.75 10.85 -12.9 10.65 -13.05 10.55 -13.2 L10.35 -13.25 10.05 -13.2 9.8 -13.15 9.55 -13.15 Q9.35 -12.9 9.25 -12.9 L9.15 -12.9 9.05 -13.0 9.05 -13.05 9.15 -13.05 Q9.35 -13.05 9.35 -13.1 L9.45 -13.25 9.35 -13.35 Q9.45 -13.4 9.7 -13.45 L9.75 -13.5 10.0 -13.55 Q10.3 -13.55 10.55 -13.4 L10.7 -13.3 10.75 -13.3 Q11.0 -13.25 11.25 -13.0 11.6 -12.65 11.75 -12.65 L12.4 -12.8 13.15 -12.95 13.5 -12.95 Q14.6 -12.9 15.1 -12.6 L15.2 -12.55 15.55 -12.2 Q15.6 -12.1 15.6 -11.85 L15.95 -11.0 15.95 -11.1 16.05 -11.95 15.95 -12.45 Q15.85 -12.95 15.85 -13.1 L15.85 -13.4 15.8 -13.35 Q15.35 -13.05 14.7 -12.9 15.75 -13.2 16.1 -14.5 L16.25 -15.3 Q16.2 -16.05 16.1 -16.6 L16.1 -16.7 M11.85 -15.1 L12.1 -15.2 Q12.35 -15.2 12.35 -14.9 L12.35 -14.8 Q12.25 -14.6 12.05 -14.6 L11.85 -14.65 Q11.7 -14.75 11.7 -14.8 11.7 -14.95 11.8 -15.05 L11.85 -15.1 M12.05 -15.65 L11.65 -15.5 11.3 -15.4 Q10.85 -15.2 10.7 -15.05 L10.4 -14.95 Q10.55 -14.05 11.75 -14.05 12.45 -14.05 13.0 -14.6 13.45 -15.05 13.45 -15.45 L13.45 -15.85 13.35 -15.85 13.1 -15.8 Q12.6 -15.85 12.05 -15.65 M16.8 -17.3 Q16.45 -17.8 16.45 -17.2 16.45 -17.0 16.55 -16.6 16.65 -16.05 16.8 -15.95 L16.85 -15.95 17.65 -15.5 17.7 -15.55 17.75 -15.55 Q18.05 -15.6 18.25 -16.0 18.4 -16.3 18.4 -16.45 18.55 -16.55 18.65 -16.6 17.4 -17.0 16.8 -17.3 M5.2 -17.35 L5.2 -17.1 5.35 -16.95 5.35 -16.9 Q5.35 -16.85 5.45 -16.7 L5.55 -16.55 Q5.7 -16.45 5.95 -16.4 L6.1 -16.3 Q6.45 -16.1 6.7 -15.95 L6.55 -16.05 6.5 -16.05 6.6 -16.0 7.15 -15.75 7.05 -15.85 7.35 -15.8 7.5 -15.85 7.6 -15.8 7.6 -15.85 7.7 -15.95 7.75 -16.8 7.75 -16.95 Q7.8 -17.1 7.9 -17.2 L7.9 -17.1 7.95 -17.5 Q7.95 -17.8 7.55 -18.3 7.15 -18.85 6.8 -18.85 6.35 -18.85 6.0 -18.55 5.5 -18.25 5.35 -17.75 5.25 -17.55 5.2 -17.35 M5.65 -16.4 L5.7 -16.4 5.95 -16.35 5.6 -16.45 5.65 -16.4 M5.45 -16.2 L5.6 -15.5 Q5.6 -15.35 5.9 -14.6 L6.2 -13.9 6.2 -13.7 6.25 -13.75 6.3 -13.7 6.3 -13.6 6.65 -13.65 6.75 -13.7 Q7.0 -13.8 7.2 -13.9 6.75 -14.0 6.4 -14.35 6.05 -14.75 6.05 -15.0 L6.05 -15.3 Q6.0 -15.4 6.0 -15.5 6.0 -15.75 6.1 -16.1 L5.9 -16.2 5.45 -16.25 5.45 -16.2 M6.4 -15.9 Q6.35 -15.85 6.35 -15.7 6.35 -15.6 6.35 -15.5 L6.35 -15.4 6.6 -14.8 Q6.95 -14.2 7.5 -14.2 7.6 -14.2 7.7 -14.3 7.9 -14.5 8.0 -14.7 8.0 -14.9 7.8 -15.3 L7.75 -15.3 Q7.65 -15.3 7.45 -15.5 L6.65 -15.85 6.4 -15.95 6.4 -15.9 M6.65 -14.95 Q6.65 -15.2 6.9 -15.2 7.15 -15.2 7.15 -14.95 7.15 -14.85 7.05 -14.8 6.95 -14.7 6.9 -14.7 6.7 -14.7 6.65 -14.8 6.65 -14.85 6.65 -14.95 M10.95 -11.7 L10.8 -11.65 10.65 -11.55 10.6 -11.55 9.8 -11.35 Q9.0 -11.1 8.25 -10.85 L9.05 -10.85 Q9.8 -10.9 10.55 -11.1 L10.8 -11.15 Q11.5 -11.4 12.25 -11.75 13.15 -12.2 13.55 -12.35 14.05 -12.55 14.6 -12.6 14.15 -12.7 13.45 -12.7 13.0 -12.7 12.55 -12.55 12.05 -12.4 11.7 -12.4 11.5 -12.4 11.25 -12.55 L11.3 -12.35 Q11.3 -11.95 10.95 -11.7 M10.55 -10.75 Q10.0 -10.6 9.6 -10.6 L9.5 -10.6 Q8.45 -10.6 7.95 -10.65 L7.9 -10.65 7.75 -10.7 7.55 -10.7 7.1 -10.6 7.1 -10.5 7.15 -10.45 Q7.25 -10.35 7.45 -10.25 L7.4 -10.25 7.05 -10.3 7.0 -10.3 6.9 -10.0 7.0 -9.85 7.5 -9.65 7.95 -9.45 Q8.3 -9.3 8.35 -9.3 L8.7 -9.35 9.9 -9.3 10.55 -9.35 Q12.25 -9.5 13.55 -10.35 14.2 -10.8 14.65 -11.3 14.0 -11.75 13.05 -11.2 12.3 -10.7 11.7 -10.45 10.95 -10.05 10.35 -9.95 L9.95 -9.9 9.85 -9.85 8.45 -9.9 8.4 -9.95 8.15 -10.0 7.85 -10.1 7.7 -10.15 7.65 -10.2 7.55 -10.2 7.8 -10.15 7.85 -10.15 8.65 -10.1 9.15 -10.1 10.5 -10.2 10.7 -10.25 10.65 -10.2 Q11.1 -10.35 11.6 -10.55 12.2 -10.85 13.35 -11.45 14.3 -11.85 14.75 -11.65 15.3 -11.4 15.3 -10.2 15.3 -9.7 13.8 -8.9 12.2 -8.05 10.75 -8.05 L10.35 -8.1 Q8.8 -8.1 7.8 -8.5 L7.65 -8.55 7.35 -8.75 Q7.0 -8.9 6.8 -8.9 L6.65 -9.0 6.65 -8.9 Q6.6 -8.85 6.55 -8.8 L6.6 -8.7 Q6.65 -8.55 6.9 -8.25 L7.1 -8.05 Q7.25 -7.95 7.5 -7.85 8.45 -7.45 10.65 -7.45 11.05 -7.45 11.2 -7.55 L12.45 -7.75 12.7 -7.85 Q13.2 -7.95 13.65 -8.15 L13.9 -8.3 Q14.25 -8.5 14.55 -8.7 15.3 -9.25 15.6 -9.8 L15.7 -10.1 15.75 -10.3 15.8 -10.55 15.8 -10.8 Q15.75 -11.2 15.7 -11.4 L15.5 -11.75 15.45 -11.85 Q15.4 -11.8 15.35 -11.8 L15.25 -12.05 15.05 -12.25 Q14.0 -12.35 12.35 -11.5 11.3 -11.0 10.55 -10.75 M6.85 -10.65 L6.75 -10.7 6.5 -10.45 Q6.4 -10.3 6.4 -10.25 L6.55 -9.7 6.6 -9.6 6.75 -10.0 6.9 -10.5 Q6.9 -10.6 6.85 -10.65 M7.95 -9.3 L7.85 -9.35 7.7 -9.4 7.15 -9.6 7.05 -9.55 Q6.95 -9.55 6.85 -9.55 L6.85 -9.45 6.8 -9.45 6.85 -9.4 6.85 -9.35 Q6.85 -9.2 7.1 -9.0 7.35 -8.75 7.6 -8.75 L7.9 -8.65 Q8.7 -8.25 9.85 -8.25 L10.5 -8.3 Q12.4 -8.4 13.85 -9.25 14.4 -9.6 14.8 -10.0 15.1 -10.35 15.1 -10.5 15.1 -10.8 14.9 -11.05 L14.65 -10.8 Q14.25 -10.4 13.6 -10.05 12.15 -9.3 10.35 -9.15 L9.1 -9.15 8.55 -9.2 8.4 -9.25 7.95 -9.3 M7.3 -7.7 L7.3 -7.6 7.5 -7.4 Q7.65 -7.2 7.85 -7.05 L7.95 -7.0 Q8.35 -6.8 8.75 -6.65 L8.95 -6.6 9.65 -6.5 Q10.05 -6.35 11.2 -6.35 L11.9 -6.4 12.4 -6.55 13.1 -6.75 13.25 -6.85 Q13.45 -6.95 13.65 -7.15 14.05 -7.5 14.7 -8.15 L14.75 -8.2 15.1 -8.8 14.85 -8.55 Q14.55 -8.35 14.2 -8.15 13.45 -7.75 12.4 -7.5 11.3 -7.25 9.9 -7.25 9.15 -7.25 8.5 -7.4 L8.55 -7.4 Q7.9 -7.45 7.3 -7.75 L7.3 -7.7 M19.75 -11.55 Q19.65 -11.7 19.55 -11.7 L18.55 -11.55 16.55 -11.4 16.4 -11.4 16.2 -10.5 16.15 -9.8 16.1 -9.6 16.55 -9.6 18.2 -10.05 Q19.85 -10.6 19.85 -11.3 19.85 -11.45 19.75 -11.55 M16.3 -13.5 L16.3 -13.65 16.25 -13.6 16.25 -13.5 16.3 -13.5" fill="#111111" fill-rule="evenodd" stroke="none"/>
    <path d="M12.05 -15.65 Q12.6 -15.85 13.1 -15.8 L13.35 -15.85 13.45 -15.85 13.45 -15.45 Q13.45 -15.05 13.0 -14.6 12.45 -14.05 11.75 -14.05 10.55 -14.05 10.4 -14.95 L10.7 -15.05 Q10.85 -15.2 11.3 -15.4 L11.65 -15.5 12.05 -15.65 M11.85 -15.1 L11.8 -15.05 Q11.7 -14.95 11.7 -14.8 11.7 -14.75 11.85 -14.65 L12.05 -14.6 Q12.25 -14.6 12.35 -14.8 L12.35 -14.9 Q12.35 -15.2 12.1 -15.2 L11.85 -15.1 M6.65 -14.95 Q6.65 -14.85 6.65 -14.8 6.7 -14.7 6.9 -14.7 6.95 -14.7 7.05 -14.8 7.15 -14.85 7.15 -14.95 7.15 -15.2 6.9 -15.2 6.65 -15.2 6.65 -14.95 M6.4 -15.9 L6.4 -15.95 6.65 -15.85 7.45 -15.5 Q7.65 -15.3 7.75 -15.3 L7.8 -15.3 Q8.0 -14.9 8.0 -14.7 7.9 -14.5 7.7 -14.3 7.6 -14.2 7.5 -14.2 6.95 -14.2 6.6 -14.8 L6.35 -15.4 6.35 -15.5 Q6.35 -15.6 6.35 -15.7 6.35 -15.85 6.4 -15.9 M7.45 -10.25 Q7.5 -10.25 7.6 -10.2 L7.7 -10.15 7.85 -10.1 Q7.8 -9.95 7.8 -9.75 7.8 -9.65 7.95 -9.45 L7.5 -9.65 7.0 -9.85 6.9 -10.0 7.0 -10.3 7.05 -10.3 7.4 -10.25 7.45 -10.25 M10.55 -9.35 L10.55 -9.4 Q10.35 -9.7 10.35 -9.95 10.95 -10.05 11.7 -10.45 12.3 -10.7 13.05 -11.2 14.0 -11.75 14.65 -11.3 14.2 -10.8 13.55 -10.35 12.25 -9.5 10.55 -9.35 M7.95 -9.3 Q7.75 -9.15 7.75 -9.05 7.75 -8.85 7.9 -8.65 L7.6 -8.75 Q7.35 -8.75 7.1 -9.0 6.85 -9.2 6.85 -9.35 L6.85 -9.4 6.8 -9.45 6.85 -9.45 6.85 -9.55 Q6.95 -9.55 7.05 -9.55 L7.15 -9.6 7.7 -9.4 7.85 -9.35 7.95 -9.3 M10.5 -8.3 Q10.4 -8.4 10.4 -8.5 10.4 -8.9 10.35 -9.15 12.15 -9.3 13.6 -10.05 14.25 -10.4 14.65 -10.8 L14.9 -11.05 Q15.1 -10.8 15.1 -10.5 15.1 -10.35 14.8 -10.0 14.4 -9.6 13.85 -9.25 12.4 -8.4 10.5 -8.3" fill="#ffffcc" fill-rule="evenodd" stroke="none"/>
    <path d="M6.85 -10.65 Q6.9 -10.6 6.9 -10.5 L6.75 -10.0 6.6 -9.6 6.55 -9.7 6.4 -10.25 Q6.4 -10.3 6.5 -10.45 L6.75 -10.7 6.85 -10.65" fill="#f89b8b" fill-rule="evenodd" stroke="none"/>
    <path d="M11.8 -19.1 Q11.2 -19.05 10.8 -18.9 10.55 -18.8 10.3 -18.6 L10.6 -18.8 Q10.1 -18.6 9.7 -18.25 9.05 -17.65 9.0 -16.95 8.9 -16.75 8.9 -16.35 8.9 -16.1 8.95 -15.9 L8.95 -15.8 9.0 -15.7 9.1 -15.45 9.35 -14.55 Q9.4 -14.3 9.75 -13.5 L9.7 -13.45 Q9.45 -13.4 9.35 -13.35 L9.45 -13.25 9.35 -13.1 Q9.35 -13.05 9.15 -13.05 L9.1 -13.4 9.1 -13.8 Q9.1 -13.95 9.05 -14.1 L9.05 -14.15 Q9.0 -14.4 8.9 -14.5 8.7 -14.85 8.2 -14.8 L8.15 -15.3 Q8.0 -15.5 7.95 -15.95 7.9 -16.25 7.9 -16.6 L7.95 -16.85 Q7.95 -17.05 8.0 -17.25 L8.0 -17.5 Q8.0 -18.3 7.55 -18.7 7.1 -19.1 6.45 -19.05 L6.2 -19.0 6.5 -19.45 6.5 -19.5 6.55 -19.5 6.75 -19.5 Q6.9 -19.5 7.2 -19.9 7.55 -20.3 7.55 -20.4 L7.55 -20.45 Q8.75 -21.25 10.45 -21.35 13.35 -21.35 14.9 -19.5 L14.9 -19.45 Q15.9 -18.05 16.1 -16.7 15.95 -15.9 15.75 -15.35 15.65 -14.95 15.35 -14.5 15.05 -14.05 14.7 -13.65 14.55 -13.45 13.5 -12.95 L13.15 -12.95 12.4 -12.8 11.75 -12.65 Q11.6 -12.65 11.25 -13.0 11.0 -13.25 10.75 -13.3 L10.7 -13.3 11.15 -13.3 Q13.55 -13.3 14.55 -14.85 15.15 -15.8 15.15 -17.1 15.15 -17.35 15.0 -17.5 L14.9 -17.55 14.85 -17.85 14.7 -18.15 14.5 -18.45 14.2 -18.65 Q14.0 -18.85 13.75 -18.95 12.95 -19.35 11.8 -19.15 L12.1 -19.15 11.8 -19.1 M12.35 -20.2 Q12.35 -20.85 11.7 -20.8 11.05 -20.8 11.05 -20.15 11.05 -20.0 11.1 -19.85 11.3 -19.6 11.7 -19.6 12.1 -19.6 12.25 -19.8 12.35 -19.95 12.35 -20.2 M9.4 -20.25 Q9.4 -20.8 8.85 -20.6 8.35 -20.4 8.35 -19.85 8.35 -19.7 8.4 -19.55 8.55 -19.3 8.8 -19.3 9.4 -19.3 9.4 -20.25 M9.15 -12.9 L9.15 -12.85 9.15 -12.9 M10.8 -11.15 L10.95 -11.7 Q11.3 -11.95 11.3 -12.35 L11.25 -12.55 Q11.5 -12.4 11.7 -12.4 12.05 -12.4 12.55 -12.55 13.0 -12.7 13.45 -12.7 14.15 -12.7 14.6 -12.6 14.05 -12.55 13.55 -12.35 13.15 -12.2 12.25 -11.75 11.5 -11.4 10.8 -11.15" fill="#e4270c" fill-rule="evenodd" stroke="none"/>
    <path d="M9.1 -16.15 L9.05 -16.35 9.1 -16.75 Q9.25 -17.25 9.75 -17.95 L9.95 -18.2 10.45 -18.6 Q11.25 -19.05 12.35 -19.05 L12.6 -19.05 11.8 -19.1 12.1 -19.15 Q12.7 -19.1 13.2 -18.9 L13.8 -18.6 13.85 -18.55 Q14.25 -18.4 14.55 -18.15 14.45 -17.95 14.3 -17.8 13.7 -17.35 11.9 -16.65 10.15 -15.95 9.75 -15.95 9.4 -15.95 9.25 -16.05 L9.1 -16.15 M7.55 -20.45 L7.55 -20.4 Q7.55 -20.3 7.2 -19.9 6.9 -19.5 6.75 -19.5 L6.55 -19.5 Q7.0 -20.1 7.55 -20.45 M12.35 -20.2 Q12.35 -19.95 12.25 -19.8 12.1 -19.6 11.7 -19.6 11.3 -19.6 11.1 -19.85 11.05 -20.0 11.05 -20.15 11.05 -20.8 11.7 -20.8 12.35 -20.85 12.35 -20.2 M7.95 -17.5 L7.85 -17.3 Q7.5 -16.65 6.9 -16.65 6.4 -16.65 5.6 -17.1 L5.2 -17.35 Q5.25 -17.55 5.35 -17.75 5.5 -18.25 6.0 -18.55 6.35 -18.85 6.8 -18.85 7.15 -18.85 7.55 -18.3 7.95 -17.8 7.95 -17.5 M9.4 -20.25 Q9.4 -19.3 8.8 -19.3 8.55 -19.3 8.4 -19.55 8.35 -19.7 8.35 -19.85 8.35 -20.4 8.85 -20.6 9.4 -20.8 9.4 -20.25 M2.0 -11.9 Q2.0 -12.3 2.3 -12.55 2.5 -12.65 2.8 -12.75 3.65 -13.0 5.7 -13.0 6.85 -13.0 7.6 -13.5 7.95 -13.7 8.1 -13.95 8.2 -14.15 8.2 -14.35 L8.25 -14.5 8.3 -14.5 Q8.75 -14.4 8.9 -13.95 L8.95 -13.8 Q8.15 -12.75 7.7 -12.3 8.45 -12.4 9.15 -12.85 L9.15 -12.9 9.25 -12.9 Q9.35 -12.9 9.55 -13.15 L9.8 -13.15 10.05 -13.2 10.35 -13.25 10.55 -13.2 10.5 -13.25 Q10.45 -12.7 10.4 -12.55 10.1 -12.0 8.85 -12.0 L6.85 -11.7 Q4.8 -11.35 2.85 -11.35 2.35 -11.35 2.0 -11.9 M7.9 -10.65 L7.85 -10.65 Q7.8 -10.5 7.8 -10.25 L7.85 -10.15 7.8 -10.15 7.55 -10.2 7.65 -10.2 7.7 -10.15 7.6 -10.2 Q7.5 -10.25 7.45 -10.25 7.25 -10.35 7.15 -10.45 L7.1 -10.5 7.1 -10.6 7.55 -10.7 7.75 -10.7 7.9 -10.65 M10.5 -10.2 L10.4 -10.35 Q10.4 -10.55 10.55 -10.75 11.3 -11.0 12.35 -11.5 14.0 -12.35 15.05 -12.25 L15.25 -12.05 15.35 -11.8 Q15.4 -11.8 15.45 -11.85 L15.5 -11.75 15.55 -11.3 15.65 -10.7 Q15.65 -10.25 15.25 -9.8 15.0 -9.55 14.1 -8.8 13.75 -8.5 12.65 -8.15 L12.25 -8.05 11.15 -7.8 10.4 -7.85 Q10.35 -7.9 10.35 -8.1 L10.75 -8.05 Q12.2 -8.05 13.8 -8.9 15.3 -9.7 15.3 -10.2 15.3 -11.4 14.75 -11.65 14.3 -11.85 13.35 -11.45 12.2 -10.85 11.6 -10.55 11.1 -10.35 10.65 -10.2 L10.7 -10.25 10.5 -10.2 M6.65 -8.9 L6.65 -9.0 6.8 -8.9 Q7.0 -8.9 7.35 -8.75 L7.65 -8.55 7.8 -8.5 Q7.75 -8.25 7.75 -8.0 7.55 -8.1 7.0 -8.6 L6.65 -8.9" fill="#f98f6c" fill-rule="evenodd" stroke="none"/>
    <path d="M9.1 -15.45 Q9.3 -15.1 9.6 -15.05 L9.65 -14.95 Q9.75 -14.85 9.9 -14.85 L9.95 -14.85 Q10.1 -14.65 10.55 -14.3 11.2 -13.75 11.45 -13.75 13.25 -13.75 13.6 -14.95 13.75 -15.4 13.65 -16.0 14.1 -16.15 14.35 -16.3 14.5 -16.4 14.65 -16.5 L14.75 -16.6 14.9 -16.95 14.9 -17.55 15.0 -17.5 Q15.15 -17.35 15.15 -17.1 15.15 -15.8 14.55 -14.85 13.55 -13.3 11.15 -13.3 L10.7 -13.3 10.55 -13.4 Q10.3 -13.55 10.0 -13.55 L9.75 -13.5 Q9.4 -14.3 9.35 -14.55 L9.1 -15.45 M9.05 -14.1 Q9.1 -13.95 9.1 -13.8 L9.1 -13.4 9.05 -13.3 9.05 -13.2 9.05 -14.1 M16.1 -16.7 L16.1 -16.6 Q16.2 -16.05 16.25 -15.3 L16.1 -14.5 Q15.75 -13.2 14.7 -12.9 15.35 -13.05 15.8 -13.35 L15.85 -13.4 15.85 -13.1 Q15.85 -12.95 15.95 -12.45 L16.05 -11.95 15.95 -11.1 15.95 -11.0 15.6 -11.85 Q15.6 -12.1 15.55 -12.2 L15.2 -12.55 15.1 -12.6 Q14.6 -12.9 13.5 -12.95 14.55 -13.45 14.7 -13.65 15.05 -14.05 15.35 -14.5 15.65 -14.95 15.75 -15.35 15.95 -15.9 16.1 -16.7 M5.45 -16.2 L5.45 -16.25 5.9 -16.2 6.1 -16.1 Q6.0 -15.75 6.0 -15.5 6.0 -15.4 6.05 -15.3 L6.05 -15.0 Q6.05 -14.75 6.4 -14.35 6.75 -14.0 7.2 -13.9 7.0 -13.8 6.75 -13.7 L6.65 -13.65 6.3 -13.6 6.3 -13.7 6.25 -13.75 6.2 -13.7 6.2 -13.9 5.9 -14.6 Q5.6 -15.35 5.6 -15.5 L5.45 -16.2 M10.8 -11.15 L10.55 -11.1 Q9.8 -10.9 9.05 -10.85 L8.25 -10.85 Q9.0 -11.1 9.8 -11.35 L10.6 -11.55 10.65 -11.55 10.8 -11.65 10.95 -11.7 10.8 -11.15 M7.3 -7.7 L7.3 -7.75 Q7.9 -7.45 8.55 -7.4 L8.5 -7.4 Q9.15 -7.25 9.9 -7.25 11.3 -7.25 12.4 -7.5 13.45 -7.75 14.2 -8.15 14.55 -8.35 14.85 -8.55 L15.1 -8.8 14.75 -8.2 14.7 -8.15 Q14.05 -7.5 13.65 -7.15 13.45 -6.95 13.25 -6.85 L13.1 -6.75 12.4 -6.55 11.9 -6.4 11.2 -6.35 Q10.05 -6.35 9.65 -6.5 L8.95 -6.6 8.75 -6.65 Q8.35 -6.8 7.95 -7.0 L7.85 -7.05 Q7.65 -7.2 7.5 -7.4 L7.3 -7.6 7.3 -7.7" fill="#a50c0c" fill-rule="evenodd" stroke="none"/>
    <path d="M14.55 -18.15 L14.55 -18.1 14.75 -17.9 Q14.85 -17.65 14.85 -17.45 L14.8 -17.25 Q14.75 -17.1 14.55 -16.9 L14.35 -16.7 14.15 -16.55 14.05 -16.5 13.9 -16.5 13.85 -16.45 13.6 -16.4 13.55 -16.35 13.15 -16.2 Q12.55 -16.0 12.1 -15.95 L11.45 -15.7 10.25 -15.25 10.0 -15.25 10.0 -15.2 9.95 -15.2 Q9.75 -15.2 9.65 -15.35 L9.65 -15.4 Q9.45 -15.45 9.3 -15.7 L9.2 -15.85 9.2 -15.9 9.15 -16.1 9.1 -16.15 9.25 -16.05 Q9.4 -15.95 9.75 -15.95 10.15 -15.95 11.9 -16.65 13.7 -17.35 14.3 -17.8 14.45 -17.95 14.55 -18.15 M9.1 -13.4 L9.15 -13.05 9.05 -13.05 9.05 -13.0 9.15 -12.9 9.15 -12.85 Q8.45 -12.4 7.7 -12.3 8.15 -12.75 8.95 -13.8 L8.95 -13.7 9.0 -13.4 9.05 -13.2 9.05 -13.3 9.1 -13.4 M7.95 -17.5 L7.9 -17.1 7.9 -17.2 Q7.8 -17.1 7.75 -16.95 L7.75 -16.8 7.7 -15.95 7.6 -15.85 7.6 -15.8 7.5 -15.85 7.35 -15.8 7.05 -15.85 7.15 -15.75 6.6 -16.0 6.5 -16.05 6.55 -16.05 6.7 -15.95 Q6.45 -16.1 6.1 -16.3 L5.95 -16.4 Q5.7 -16.45 5.55 -16.55 L5.45 -16.7 Q5.35 -16.85 5.35 -16.9 L5.35 -16.95 5.2 -17.1 5.2 -17.35 5.6 -17.1 Q6.4 -16.65 6.9 -16.65 7.5 -16.65 7.85 -17.3 L7.95 -17.5 M2.0 -11.9 Q2.35 -11.35 2.85 -11.35 4.8 -11.35 6.85 -11.7 L8.85 -12.0 Q10.1 -12.0 10.4 -12.55 10.45 -12.7 10.5 -13.25 L10.55 -13.2 Q10.65 -13.05 10.85 -12.9 10.95 -12.75 10.95 -12.6 10.95 -12.1 10.5 -11.95 L10.0 -11.85 9.65 -11.75 7.4 -11.3 6.05 -11.05 6.0 -11.05 5.25 -10.9 5.0 -10.9 4.45 -10.8 3.9 -10.75 Q2.65 -10.8 2.2 -11.2 1.95 -11.45 1.95 -11.75 L2.0 -11.9 M7.9 -10.65 L7.95 -10.65 Q8.45 -10.6 9.5 -10.6 L9.6 -10.6 Q10.0 -10.6 10.55 -10.75 10.4 -10.55 10.4 -10.35 L10.5 -10.2 9.15 -10.1 8.65 -10.1 7.85 -10.15 7.8 -10.25 Q7.8 -10.5 7.85 -10.65 L7.9 -10.65 M15.5 -11.75 L15.7 -11.4 Q15.75 -11.2 15.8 -10.8 L15.8 -10.55 15.75 -10.3 15.7 -10.1 15.6 -9.8 Q15.3 -9.25 14.55 -8.7 14.25 -8.5 13.9 -8.3 L13.65 -8.15 Q13.2 -7.95 12.7 -7.85 L12.45 -7.75 11.2 -7.55 Q11.05 -7.45 10.65 -7.45 8.45 -7.45 7.5 -7.85 7.25 -7.95 7.1 -8.05 L6.9 -8.25 Q6.65 -8.55 6.6 -8.7 L6.55 -8.8 Q6.6 -8.85 6.65 -8.9 L7.0 -8.6 Q7.55 -8.1 7.75 -8.0 7.75 -8.25 7.8 -8.5 8.8 -8.1 10.35 -8.1 10.35 -7.9 10.4 -7.85 L11.15 -7.8 12.25 -8.05 12.65 -8.15 Q13.75 -8.5 14.1 -8.8 15.0 -9.55 15.25 -9.8 15.65 -10.25 15.65 -10.7 L15.55 -11.3 15.5 -11.75" fill="#f73d28" fill-rule="evenodd" stroke="none"/>
    <path d="M16.8 -17.3 Q17.4 -17.0 18.65 -16.6 18.55 -16.55 18.4 -16.45 18.4 -16.3 18.25 -16.0 18.05 -15.6 17.75 -15.55 L17.7 -15.55 17.65 -15.5 16.85 -15.95 16.8 -15.95 Q16.65 -16.05 16.55 -16.6 16.45 -17.0 16.45 -17.2 16.45 -17.8 16.8 -17.3 M19.75 -11.55 Q19.85 -11.45 19.85 -11.3 19.85 -10.6 18.2 -10.05 L16.55 -9.6 16.1 -9.6 16.15 -9.8 16.2 -10.5 16.4 -11.4 16.55 -11.4 18.55 -11.55 19.55 -11.7 Q19.65 -11.7 19.75 -11.55" fill="#93c1b3" fill-rule="evenodd" stroke="none"/>
    <path d="M7.85 -10.1 L8.15 -10.0 8.4 -9.95 8.45 -9.9 9.85 -9.85 9.95 -9.9 10.35 -9.95 Q10.35 -9.7 10.55 -9.4 L10.55 -9.35 9.9 -9.3 8.7 -9.35 8.35 -9.3 Q8.3 -9.3 7.95 -9.45 7.8 -9.65 7.8 -9.75 7.8 -9.95 7.85 -10.1 M7.9 -8.65 Q7.75 -8.85 7.75 -9.05 7.75 -9.15 7.95 -9.3 L8.4 -9.25 8.55 -9.2 9.1 -9.15 10.35 -9.15 Q10.4 -8.9 10.4 -8.5 10.4 -8.4 10.5 -8.3 L9.85 -8.25 Q8.7 -8.25 7.9 -8.65" fill="#e0e675" fill-rule="evenodd" stroke="none"/>
  </g>
</svg>
