<?xml version="1.0" encoding="UTF-8" standalone="no"?>
<svg xmlns:ffdec="https://www.free-decompiler.com/flash" xmlns:xlink="http://www.w3.org/1999/xlink" ffdec:objectType="shape" height="35.0px" width="36.55px" xmlns="http://www.w3.org/2000/svg">
  <g transform="matrix(1.0, 0.0, 0.0, 1.0, 17.95, 26.8)">
    <path d="M18.6 -25.65 Q18.6 -25.4 17.05 -25.1 15.2 -24.75 14.6 -24.35 14.1 -24.05 13.6 -23.5 L12.65 -22.5 Q12.25 -22.1 11.8 -21.3 L11.35 -20.6 Q10.9 -19.7 10.55 -19.15 L10.55 -19.2 10.75 -19.05 10.8 -18.9 Q9.9 -17.35 9.45 -16.85 L9.6 -16.85 9.6 -16.7 Q9.6 -16.45 9.35 -16.0 L8.8 -15.1 Q8.0 -13.7 8.0 -12.6 8.0 -12.25 8.25 -11.05 L8.25 -11.0 8.35 -10.55 Q8.5 -9.85 8.55 -9.7 L8.5 -9.45 8.45 -9.4 Q9.05 -8.75 9.65 -8.05 10.25 -7.25 11.25 -6.15 L13.0 -4.25 Q15.0 -2.0 15.75 -0.4 L15.75 -0.25 Q15.7 -0.2 15.55 -0.2 L15.2 -0.3 14.95 -0.3 Q14.55 -0.3 13.4 -0.9 12.5 -1.1 11.6 -1.6 11.0 -1.9 10.2 -2.5 10.35 -2.1 10.45 -1.6 L10.75 0.65 10.75 1.15 10.8 1.2 10.8 1.25 10.6 1.25 10.5 1.3 10.3 1.15 Q10.1 1.05 9.9 0.9 L10.05 1.3 10.35 2.45 10.3 2.4 Q10.5 2.85 10.5 3.15 L10.45 3.35 10.25 3.4 Q9.3 3.4 8.05 1.5 7.65 0.9 7.25 0.2 L7.15 -0.1 Q7.05 0.4 6.6 2.15 6.05 4.05 5.9 4.45 L5.75 4.5 Q5.2 4.5 4.3 2.85 3.55 1.5 3.25 0.4 3.15 0.9 2.75 1.75 2.25 2.9 1.95 3.15 1.65 2.6 1.2 1.6 0.9 0.75 0.75 0.25 L0.6 0.65 0.05 1.7 0.05 2.2 Q0.05 2.65 -0.05 2.85 -0.2 3.2 -0.3 3.9 L-0.35 3.9 -1.2 3.15 Q-1.4 3.65 -2.25 4.55 -3.35 5.65 -4.15 6.0 -4.85 6.25 -6.2 7.3 L-7.45 8.2 Q-8.15 8.2 -8.55 5.15 -8.75 3.65 -8.8 2.1 L-8.95 1.25 -9.5 1.75 -9.65 1.75 -9.65 1.65 Q-9.65 0.4 -9.25 -1.1 -9.6 -0.95 -10.05 -0.75 L-11.9 -0.1 -12.0 -0.1 Q-12.05 -0.15 -12.05 -0.25 L-12.05 -0.35 Q-12.1 -0.45 -12.1 -0.6 -12.1 -1.0 -11.4 -2.15 L-11.05 -2.7 Q-10.35 -3.9 -9.75 -4.55 L-9.5 -4.8 -9.65 -4.75 -10.1 -4.65 -10.8 -4.65 Q-10.85 -4.7 -10.85 -4.85 L-9.5 -6.05 Q-8.1 -7.3 -8.1 -7.6 -8.1 -7.7 -8.15 -7.75 L-8.75 -7.75 -8.8 -7.8 -8.8 -7.9 -8.6 -8.2 -7.95 -9.2 -8.05 -9.25 -7.95 -9.35 Q-9.1 -9.4 -10.7 -10.05 L-12.65 -10.95 -13.45 -11.35 Q-14.0 -11.6 -14.75 -11.75 L-16.85 -12.1 Q-17.7 -12.25 -17.8 -12.5 L-17.85 -12.45 -17.95 -12.55 -17.95 -12.75 Q-17.95 -13.35 -15.5 -13.95 -13.15 -14.5 -9.25 -14.9 L-7.0 -14.9 -6.45 -14.95 -5.85 -14.95 -5.55 -15.0 -4.9 -15.05 Q-4.65 -15.2 -4.15 -15.35 -3.35 -15.65 -2.5 -15.7 -1.95 -16.1 -0.55 -17.2 L0.1 -17.7 1.55 -18.85 Q2.1 -19.3 3.1 -20.6 3.5 -21.05 3.9 -21.3 4.55 -21.75 5.2 -21.8 L5.45 -22.05 5.6 -22.05 Q6.05 -22.05 7.1 -23.2 L7.6 -23.75 7.95 -23.8 8.0 -23.65 8.4 -24.0 Q9.35 -24.7 10.7 -25.35 14.15 -27.1 16.15 -26.75 16.65 -26.8 17.6 -26.35 18.6 -25.9 18.6 -25.65 M17.35 -26.0 Q16.55 -26.35 16.25 -26.35 13.15 -26.35 10.3 -24.8 8.7 -23.95 7.6 -22.85 7.3 -22.2 7.15 -21.45 L7.15 -21.3 Q6.95 -20.25 7.1 -19.25 L7.1 -18.75 7.25 -18.75 7.7 -18.8 9.95 -19.1 Q10.15 -19.5 10.85 -20.6 L11.3 -21.3 Q11.95 -22.3 12.3 -22.6 12.65 -22.9 13.15 -23.5 13.65 -24.1 14.0 -24.4 15.2 -25.35 17.85 -25.75 L17.35 -26.0 M6.15 -18.7 L6.35 -18.7 6.65 -18.75 Q6.65 -19.05 6.75 -20.0 L6.8 -21.05 6.85 -21.3 Q6.85 -21.6 7.0 -22.05 L7.05 -22.35 Q7.15 -22.75 7.2 -22.95 L6.65 -22.35 6.4 -22.1 5.95 -21.8 Q5.55 -21.55 5.35 -21.35 L5.15 -21.35 5.15 -21.3 5.1 -21.25 4.6 -20.0 4.35 -19.35 4.4 -19.25 Q4.4 -19.0 4.2 -18.75 4.25 -18.75 4.45 -18.7 L4.8 -18.65 5.4 -18.65 6.15 -18.7 M4.7 -21.1 L4.8 -21.3 4.8 -21.35 4.85 -21.4 4.7 -21.3 4.65 -21.3 4.3 -21.05 4.05 -20.85 3.95 -20.8 Q3.5 -20.4 3.0 -19.95 L2.35 -19.2 2.05 -18.85 1.65 -18.35 Q1.35 -17.95 0.35 -17.2 L0.3 -17.1 0.05 -16.95 0.0 -16.9 -0.4 -16.6 -0.95 -16.2 -1.6 -15.75 0.95 -15.75 1.3 -15.8 2.15 -15.85 2.85 -15.9 2.95 -15.9 3.85 -16.0 Q3.75 -16.2 3.75 -16.6 3.75 -17.1 4.05 -18.45 L4.0 -18.6 Q4.0 -18.7 4.1 -18.95 L4.2 -19.1 4.2 -19.15 Q4.5 -20.55 4.7 -21.1 M9.9 -18.35 L10.05 -18.7 9.95 -18.75 9.9 -18.75 8.6 -18.7 8.4 -18.7 7.05 -18.6 6.95 -18.55 6.7 -18.55 6.7 -18.6 6.1 -18.55 5.15 -18.45 4.1 -18.35 4.05 -18.4 Q3.95 -18.05 3.95 -17.85 L3.95 -17.75 Q3.95 -17.5 4.05 -16.9 L4.2 -16.05 4.2 -16.0 5.2 -16.15 6.25 -16.35 6.55 -16.4 8.1 -16.75 9.15 -16.85 9.1 -16.95 9.25 -17.1 9.2 -17.1 9.9 -18.35 M8.35 -16.45 L5.55 -16.05 5.1 -15.95 4.1 -15.85 4.05 -15.8 3.95 -15.8 1.05 -15.45 -1.55 -15.4 Q-2.15 -15.15 -2.75 -15.25 -3.3 -15.3 -4.05 -14.95 L-4.2 -14.9 -4.0 -14.85 -3.25 -14.8 -3.0 -14.7 -1.9 -14.6 0.1 -13.95 0.85 -13.7 Q2.1 -13.25 3.15 -12.8 4.7 -12.15 5.75 -11.55 L6.6 -11.0 7.15 -10.55 8.0 -9.85 7.8 -10.55 7.75 -10.9 7.75 -11.0 Q7.6 -11.75 7.55 -12.5 7.55 -12.6 7.6 -12.75 7.75 -13.35 8.3 -14.7 L9.1 -16.5 Q9.3 -16.55 9.05 -16.55 L8.35 -16.45 M6.45 -10.65 L5.95 -11.0 5.65 -11.2 5.1 -11.55 4.95 -11.65 Q3.1 -12.65 0.1 -13.7 -0.9 -14.1 -2.1 -14.45 L-6.25 -14.7 -6.45 -14.65 -7.0 -14.6 -9.25 -14.55 Q-13.55 -14.15 -15.6 -13.6 -16.75 -13.3 -17.35 -12.85 -17.4 -12.8 -17.4 -12.75 L-17.45 -12.75 -17.55 -12.65 -17.3 -12.6 -17.25 -12.6 -17.25 -12.55 -15.65 -12.15 -15.55 -12.1 Q-13.65 -11.55 -12.15 -10.95 -10.4 -10.25 -7.9 -9.7 -7.85 -9.65 -7.75 -9.65 -7.4 -9.95 -7.0 -10.3 -6.85 -10.65 -6.45 -11.05 L-6.05 -11.45 Q-5.3 -12.15 -4.75 -12.4 L-5.3 -12.5 -6.45 -12.6 -6.8 -12.65 Q-7.7 -12.75 -7.95 -13.1 -9.3 -13.05 -9.75 -13.1 -10.3 -13.1 -11.05 -13.3 L-13.65 -13.3 -14.15 -13.25 -14.5 -13.15 -15.4 -13.15 -15.5 -13.2 Q-15.6 -13.2 -15.65 -13.25 L-15.6 -13.25 -13.65 -13.45 -13.45 -13.45 Q-11.05 -13.45 -11.05 -13.5 L-6.5 -13.05 -6.45 -13.05 -4.15 -12.7 -2.75 -12.45 -2.7 -12.45 -1.15 -12.1 -0.4 -11.85 0.1 -11.7 0.15 -11.65 0.2 -11.65 0.35 -11.6 Q0.9 -11.35 1.55 -11.0 L2.25 -10.55 2.6 -10.35 Q4.05 -9.35 5.0 -8.9 6.2 -8.3 7.7 -7.1 L7.85 -6.95 9.65 -5.4 12.45 -2.7 12.8 -2.35 Q11.65 -3.15 9.05 -5.35 L8.8 -5.6 Q9.2 -4.8 9.6 -3.7 L9.7 -3.4 Q9.85 -3.25 10.1 -3.05 L10.35 -2.95 10.7 -2.7 Q11.25 -2.35 12.05 -2.0 13.0 -1.55 14.65 -0.8 L15.05 -0.75 Q14.4 -1.55 12.0 -4.35 9.9 -6.75 9.05 -8.05 L8.9 -8.2 Q8.0 -9.5 6.65 -10.55 L6.6 -10.55 6.45 -10.65 M9.1 2.2 L9.2 2.3 9.8 2.75 10.0 2.85 9.0 0.05 Q8.8 -0.25 8.8 -0.5 8.4 -1.7 8.2 -2.55 L8.15 -2.75 7.95 -3.85 8.0 -4.4 8.05 -4.4 Q8.3 -3.65 8.5 -2.5 L8.5 -2.45 8.55 -2.2 Q8.7 -1.1 8.8 -0.65 L8.85 -0.7 8.85 -0.85 9.5 -0.1 9.85 0.25 Q10.05 0.45 10.25 0.55 L10.3 0.6 Q10.35 0.75 10.35 0.55 10.35 0.0 10.1 -0.8 9.8 -2.05 8.95 -3.9 L8.9 -4.05 Q8.25 -5.5 7.75 -6.45 6.15 -7.75 5.1 -8.45 4.15 -9.1 2.95 -9.75 L1.3 -10.55 0.8 -10.85 0.35 -11.0 0.1 -11.1 -0.1 -11.2 -0.1 -11.15 0.1 -11.05 0.15 -11.0 0.55 -10.65 0.65 -10.55 Q1.2 -9.95 1.45 -9.25 1.75 -8.6 2.55 -7.6 2.95 -7.15 3.3 -6.75 3.3 -6.65 3.05 -6.55 L3.0 -6.5 2.9 -6.5 2.9 -6.45 2.8 -6.45 2.75 -6.4 Q2.1 -6.2 1.4 -6.2 0.75 -6.2 0.15 -6.35 L0.15 -5.5 Q0.1 -5.25 0.1 -4.8 0.2 -4.1 0.3 -3.35 L0.15 -4.1 Q0.2 -3.1 0.6 -1.85 0.8 -1.15 1.0 -0.75 L1.15 -0.2 Q1.25 0.15 1.45 0.6 L1.95 2.15 1.95 2.2 2.1 1.9 2.1 1.85 2.15 1.85 2.15 1.7 2.25 1.4 Q2.8 0.45 3.2 -0.5 L3.25 -0.45 3.3 -0.35 Q3.6 0.25 4.15 1.5 4.65 2.45 5.3 3.1 L5.55 3.35 5.75 3.5 6.05 2.55 6.3 1.25 Q6.4 0.4 6.55 -0.1 L6.6 -1.0 6.7 -1.4 6.8 -1.45 6.8 -1.4 7.2 -0.85 7.45 -0.4 7.7 0.15 8.0 0.75 Q8.45 1.6 9.1 2.2 M2.1 -7.45 L1.85 -7.8 Q1.65 -8.1 1.3 -8.85 L1.15 -9.3 1.1 -9.4 Q1.0 -9.7 0.8 -9.95 0.55 -10.3 0.15 -10.55 L0.1 -10.6 Q-0.15 -10.75 -0.5 -10.9 L-0.85 -10.65 -1.5 -10.2 -1.95 -9.9 -1.95 -9.85 -2.05 -9.8 -2.2 -9.7 -2.4 -9.7 -2.35 -9.8 Q-2.35 -9.9 -2.35 -10.05 L-2.35 -10.5 -2.4 -10.6 -2.85 -10.15 Q-2.85 -9.9 -2.75 -9.6 L-2.75 -9.5 Q-2.6 -8.9 -2.25 -8.35 L-2.15 -8.2 Q-1.3 -6.95 0.35 -6.65 L0.4 -6.65 1.35 -6.6 2.6 -6.65 2.65 -6.75 Q2.65 -6.8 2.8 -6.85 L2.5 -7.1 Q2.25 -7.25 2.1 -7.45 M10.7 1.1 L10.75 1.15 10.7 1.0 10.7 1.1 M9.4 0.45 L9.3 0.4 9.4 0.55 9.4 0.45 M-0.45 -1.85 L-0.3 -1.5 Q-0.05 -0.75 0.0 0.75 L0.3 0.15 0.75 -0.8 Q0.3 -2.65 -0.05 -4.65 -0.85 -4.2 -1.25 -3.75 L-1.1 -3.5 Q-0.9 -3.0 -0.55 -2.2 L-0.45 -1.85 M-8.4 -6.7 L-8.85 -6.25 Q-9.8 -5.3 -10.25 -4.95 -9.65 -5.15 -8.5 -5.85 -8.45 -5.85 -8.4 -5.8 -8.35 -5.8 -8.35 -5.65 -8.35 -5.55 -8.85 -4.95 L-9.9 -3.75 -10.0 -3.65 -10.6 -2.7 Q-11.1 -1.9 -11.7 -0.65 L-11.75 -0.65 -11.75 -0.6 -11.6 -0.65 -11.5 -0.7 -10.4 -1.2 -10.1 -1.35 -9.05 -1.85 -8.85 -2.5 -8.15 -4.15 -8.05 -4.35 Q-7.6 -5.2 -7.1 -5.7 -7.0 -6.25 -6.8 -6.7 L-6.55 -7.15 -6.45 -7.25 -6.45 -7.3 -6.4 -7.35 -6.4 -7.55 -6.45 -7.85 -7.55 -7.8 -7.55 -7.75 Q-7.55 -7.55 -8.4 -6.7 M-2.2 -11.15 L-2.05 -11.1 -2.05 -10.95 Q-2.05 -10.85 -2.1 -10.5 L-2.2 -10.0 -1.15 -10.9 -1.05 -11.0 -0.6 -11.35 -0.7 -11.4 Q-1.8 -11.75 -2.5 -11.95 L-3.85 -12.25 -3.95 -11.8 -4.0 -11.3 -4.0 -10.6 -3.75 -9.85 -3.7 -9.85 -3.7 -9.7 -3.65 -9.7 Q-3.55 -9.95 -3.1 -10.4 -2.75 -10.75 -2.4 -11.0 L-2.2 -11.15 M-5.6 -11.25 L-4.2 -12.05 -4.2 -12.1 -4.15 -12.1 -4.2 -12.15 -4.15 -12.3 -4.5 -12.35 -5.6 -11.25 M-8.0 -8.15 L-7.35 -8.15 Q-6.45 -8.15 -5.85 -8.3 -5.55 -8.35 -5.35 -8.5 L-4.05 -9.75 -3.95 -9.85 -4.0 -10.1 -4.0 -10.15 -4.1 -10.45 -4.1 -10.65 -4.15 -10.8 -4.2 -11.0 -4.2 -11.6 -4.8 -11.65 Q-5.4 -11.4 -5.85 -11.0 L-5.9 -10.95 -5.95 -10.95 -6.7 -10.2 -7.1 -9.7 -7.45 -9.2 Q-7.95 -8.5 -8.25 -8.2 L-8.0 -8.15 M-1.85 -5.5 L-1.75 -5.1 -1.8 -4.75 -1.85 -4.7 Q-1.55 -4.35 -1.3 -3.9 -0.95 -4.35 -0.45 -4.7 L-0.1 -5.0 -0.3 -6.45 Q-1.3 -6.8 -2.0 -7.55 L-1.65 -6.8 Q-1.3 -6.2 -0.7 -5.85 L-0.7 -5.8 Q-1.35 -6.05 -1.7 -6.65 -1.9 -6.9 -2.15 -7.65 L-2.1 -7.65 -2.2 -7.8 Q-2.65 -8.3 -2.9 -8.95 -3.1 -9.4 -3.1 -9.65 L-3.05 -9.9 -3.1 -9.85 -3.1 -9.8 -3.7 -9.05 -3.8 -9.35 Q-3.9 -9.2 -4.15 -9.0 L-4.5 -8.7 -5.25 -8.1 Q-6.45 -7.1 -6.75 -5.95 -6.7 -5.95 -6.7 -5.8 L-6.8 -5.55 -6.8 -5.25 Q-6.8 -4.9 -6.7 -4.45 L-6.4 -3.65 -6.35 -3.7 -6.35 -3.75 -6.3 -3.75 Q-6.25 -3.65 -6.1 -3.65 -5.95 -3.65 -4.65 -4.9 L-3.75 -5.85 Q-3.4 -6.0 -3.25 -6.0 -2.95 -6.0 -2.65 -5.6 L-2.6 -5.6 Q-2.2 -5.15 -2.1 -5.1 L-2.1 -5.05 Q-2.05 -5.0 -2.05 -5.15 -2.05 -5.3 -2.2 -5.65 L-2.2 -5.7 -2.25 -5.7 -2.6 -6.6 -2.7 -6.9 -2.8 -7.1 -2.8 -7.25 Q-2.8 -7.8 -2.9 -8.15 L-2.9 -8.2 -2.95 -8.2 Q-2.8 -8.1 -2.6 -7.8 L-2.6 -7.75 Q-2.45 -7.5 -2.3 -7.1 L-2.3 -7.0 -2.2 -6.7 Q-2.0 -6.1 -1.85 -5.5 M-6.1 -7.7 L-5.8 -8.0 -5.85 -8.0 -6.05 -7.95 -6.05 -7.9 -6.1 -7.7 M-6.65 -3.35 L-6.9 -3.9 Q-7.15 -4.65 -7.15 -4.85 L-8.0 -3.4 Q-8.35 -2.65 -8.65 -1.95 L-8.6 -1.95 -8.7 -1.75 -8.75 -1.5 -8.85 -1.4 Q-9.3 0.0 -9.3 1.2 L-9.3 1.3 -9.25 1.25 -9.1 1.15 -8.0 -0.2 -7.95 -0.3 Q-7.65 -0.7 -7.35 -1.15 -6.55 -2.45 -5.75 -3.05 L-5.65 -3.15 Q-5.15 -3.1 -4.3 -2.85 L-4.25 -2.85 -4.15 -2.8 Q-3.9 -2.5 -3.9 -2.2 L-3.9 -2.1 Q-3.9 -1.85 -2.5 0.4 -1.3 2.5 -0.75 3.25 L-0.55 2.6 -0.5 2.5 -0.5 2.35 Q-0.3 1.1 -0.3 -0.1 -0.3 -0.9 -0.8 -2.2 L-1.0 -2.7 Q-1.5 -4.0 -2.05 -4.7 -2.2 -4.75 -2.7 -5.1 L-3.1 -5.45 -3.25 -5.55 Q-3.8 -5.55 -5.15 -4.3 L-6.15 -3.3 -6.55 -3.2 -6.6 -3.25 -6.65 -3.4 -6.65 -3.35 M-7.25 7.5 L-6.2 6.8 -6.15 6.75 -5.8 6.55 -4.1 5.45 Q-3.45 5.0 -2.6 4.0 L-1.5 2.75 Q-1.85 2.35 -1.95 1.95 -2.2 1.6 -2.65 0.65 L-2.75 0.55 -2.95 0.05 -3.3 -0.6 -3.5 -0.95 Q-3.85 -1.75 -4.15 -2.2 L-4.25 -2.35 Q-4.3 -2.55 -4.5 -2.7 L-4.55 -2.7 Q-4.75 -2.9 -4.85 -2.85 L-5.0 -2.9 Q-5.55 -3.0 -5.7 -2.6 L-5.75 -2.65 -5.75 -2.6 Q-6.4 -1.9 -7.3 -0.65 -7.85 0.05 -8.35 0.6 L-8.3 0.6 Q-8.3 0.65 -8.3 0.75 L-8.4 1.35 -8.4 1.4 -8.45 1.65 -8.5 1.65 -8.55 2.1 Q-8.55 3.4 -8.2 4.8 L-7.45 7.65 -7.25 7.5" fill="#111111" fill-rule="evenodd" stroke="none"/>
    <path d="M0.15 -6.35 L0.55 -6.2 1.25 -5.95 1.4 -4.0 Q1.55 -1.95 1.7 -1.3 L1.75 -1.35 Q1.65 -3.15 2.15 -5.6 2.3 -5.55 2.4 -5.5 L2.55 -4.75 Q2.65 -4.1 2.6 -3.8 2.35 -2.3 2.15 -0.45 2.0 1.05 1.95 2.15 L1.45 0.6 Q1.25 0.15 1.15 -0.2 L1.0 -0.75 Q0.8 -1.15 0.6 -1.85 0.2 -3.1 0.15 -4.1 L0.3 -3.35 Q0.2 -4.1 0.1 -4.8 0.1 -5.25 0.15 -5.5 L0.15 -6.35 M3.3 -0.35 Q3.55 -2.0 3.8 -4.25 L3.8 -4.85 5.7 -3.95 5.7 -2.7 5.65 -0.35 Q5.2 -2.65 5.0 -3.45 L4.95 -3.45 Q5.05 -3.1 5.15 -2.15 5.2 -1.25 5.2 -0.75 L5.3 3.1 Q4.65 2.45 4.15 1.5 3.6 0.25 3.3 -0.35 M7.7 0.15 Q7.15 -1.95 7.15 -3.1 L7.15 -3.15 7.85 -2.8 8.35 -0.5 9.1 2.2 Q8.45 1.6 8.0 0.75 L7.7 0.15 M2.5 -7.1 L2.35 -7.05 1.95 -7.0 Q0.75 -7.0 -0.6 -7.5 L-0.85 -7.75 Q-1.6 -8.8 -1.85 -9.05 L-2.0 -9.2 -1.95 -9.2 -1.55 -9.0 Q-1.35 -8.85 -1.1 -8.8 -0.25 -8.65 0.85 -8.1 1.6 -7.7 2.1 -7.45 2.25 -7.25 2.5 -7.1 M-0.05 -4.65 L-0.05 -4.55 -0.35 -2.65 -0.45 -1.85 -0.55 -2.2 Q-0.9 -3.0 -1.1 -3.5 L-1.25 -3.75 Q-0.85 -4.2 -0.05 -4.65 M-11.6 -0.65 L-11.75 -0.6 -11.75 -0.65 -11.7 -0.65 Q-11.1 -1.9 -10.6 -2.7 L-10.0 -3.65 -9.9 -3.75 -8.85 -4.95 Q-8.35 -5.55 -8.35 -5.65 -8.35 -5.8 -8.4 -5.8 -8.45 -5.85 -8.5 -5.85 -9.65 -5.15 -10.25 -4.95 -9.8 -5.3 -8.85 -6.25 L-8.4 -6.7 Q-7.9 -6.9 -7.35 -7.0 L-6.8 -6.7 Q-7.0 -6.25 -7.1 -5.7 -7.6 -5.2 -8.05 -4.35 -9.0 -3.35 -10.3 -2.0 L-11.6 -0.65 M-7.1 -9.7 L-4.95 -9.7 Q-5.55 -9.2 -5.7 -9.1 -5.9 -8.95 -8.0 -8.15 L-8.25 -8.2 Q-7.95 -8.5 -7.45 -9.2 L-7.1 -9.7 M-9.25 1.25 L-9.3 1.3 -9.3 1.2 Q-9.3 0.0 -8.85 -1.4 L-8.75 -1.5 -8.7 -1.75 -8.6 -1.95 -8.65 -1.95 Q-8.35 -2.65 -8.0 -3.4 L-7.15 -4.85 Q-7.15 -4.65 -6.9 -3.9 L-6.65 -3.35 -7.05 -2.8 Q-8.15 -1.1 -8.95 0.6 L-9.25 1.25 M-3.1 -5.45 L-2.7 -5.1 Q-2.2 -4.75 -2.05 -4.7 -1.5 -4.0 -1.0 -2.7 L-0.8 -2.2 Q-0.3 -0.9 -0.3 -0.1 -0.3 1.1 -0.5 2.35 L-0.5 2.5 -0.55 2.6 -1.85 -0.2 -2.65 -2.0 Q-3.15 -3.1 -3.35 -3.8 -3.45 -4.1 -3.65 -4.6 L-3.1 -5.45 M-4.25 -2.85 L-4.3 -2.85 -4.3 -2.9 -4.25 -2.85 M-7.25 7.5 L-7.45 7.65 -8.2 4.8 Q-8.55 3.4 -8.55 2.1 L-8.5 1.65 Q-8.1 1.3 -7.3 0.1 -6.1 -1.65 -5.75 -1.65 -4.95 -1.65 -3.95 -1.05 L-2.9 1.05 Q-3.1 1.6 -3.45 2.35 L-4.6 4.3 -4.6 4.2 -4.55 3.15 Q-4.55 2.75 -4.2 1.55 -3.85 0.3 -3.85 0.2 -3.85 0.05 -3.9 -0.05 L-4.0 -0.2 -4.95 1.85 -5.9 4.1 Q-6.85 6.4 -7.25 7.5" fill="#ffffff" fill-rule="evenodd" stroke="none"/>
    <path d="M-2.3 -7.0 Q-1.45 -5.35 -0.3 -5.15 -0.45 -5.0 -0.85 -4.8 -1.25 -4.55 -1.4 -4.5 -1.5 -5.0 -1.6 -5.15 -1.7 -5.35 -1.85 -5.5 -2.0 -6.1 -2.2 -6.7 L-2.3 -7.0" fill="#f5bd7e" fill-rule="evenodd" stroke="none"/>
    <path d="M0.15 -6.35 Q0.75 -6.2 1.4 -6.2 2.1 -6.2 2.75 -6.4 L2.8 -6.45 2.9 -6.45 2.9 -6.5 3.0 -6.5 3.05 -6.55 Q3.3 -6.65 3.3 -6.75 2.95 -7.15 2.55 -7.6 1.75 -8.6 1.45 -9.25 1.2 -9.95 0.65 -10.55 L0.55 -10.65 0.15 -11.0 0.1 -11.05 -0.1 -11.15 -0.1 -11.2 0.1 -11.1 0.35 -11.0 0.8 -10.85 1.3 -10.55 2.95 -9.75 Q4.15 -9.1 5.1 -8.45 6.15 -7.75 7.75 -6.45 8.25 -5.5 8.9 -4.05 L8.95 -3.9 Q9.8 -2.05 10.1 -0.8 10.35 0.0 10.35 0.55 10.35 0.75 10.3 0.6 L10.25 0.55 Q10.05 0.45 9.85 0.25 L9.5 -0.1 8.85 -0.85 8.85 -0.7 8.8 -0.65 Q8.7 -1.1 8.55 -2.2 L8.5 -2.45 8.5 -2.5 Q8.3 -3.65 8.05 -4.4 L8.0 -4.4 7.95 -3.85 8.15 -2.75 8.2 -2.55 Q8.4 -1.7 8.8 -0.5 8.8 -0.25 9.0 0.05 L10.0 2.85 9.8 2.75 9.2 2.3 9.1 2.2 8.35 -0.5 7.85 -2.8 7.15 -3.15 7.15 -3.1 Q7.15 -1.95 7.7 0.15 L7.45 -0.4 7.2 -0.85 6.8 -1.4 6.8 -1.45 6.7 -1.4 6.6 -1.0 6.55 -0.1 Q6.4 0.4 6.3 1.25 L6.05 2.55 5.75 3.5 5.55 3.35 5.3 3.1 5.2 -0.75 Q5.2 -1.25 5.15 -2.15 5.05 -3.1 4.95 -3.45 L5.0 -3.45 Q5.2 -2.65 5.65 -0.35 L5.7 -2.7 5.7 -3.95 3.8 -4.85 3.8 -4.25 Q3.55 -2.0 3.3 -0.35 L3.25 -0.45 3.2 -0.5 Q2.8 0.45 2.25 1.4 L2.15 1.7 2.15 1.85 2.1 1.85 2.1 1.9 1.95 2.2 1.95 2.15 Q2.0 1.05 2.15 -0.45 2.35 -2.3 2.6 -3.8 2.65 -4.1 2.55 -4.75 L2.4 -5.5 Q2.3 -5.55 2.15 -5.6 1.65 -3.15 1.75 -1.35 L1.7 -1.3 Q1.55 -1.95 1.4 -4.0 L1.25 -5.95 0.55 -6.2 0.15 -6.35 M2.5 -7.1 L2.8 -6.85 Q2.65 -6.8 2.65 -6.75 L2.6 -6.65 1.35 -6.6 0.4 -6.65 0.35 -6.65 Q-1.3 -6.95 -2.15 -8.2 L-2.25 -8.35 Q-2.6 -8.9 -2.75 -9.5 L-2.75 -9.6 Q-2.85 -9.9 -2.85 -10.15 L-2.4 -10.6 -2.35 -10.5 -2.35 -10.05 Q-2.35 -9.9 -2.35 -9.8 L-2.4 -9.7 -2.2 -9.7 -2.05 -9.8 -1.95 -9.85 -1.95 -9.9 -1.5 -10.2 -0.85 -10.65 -0.5 -10.9 Q-0.15 -10.75 0.1 -10.6 L0.15 -10.55 Q0.55 -10.3 0.8 -9.95 1.0 -9.7 1.1 -9.4 L1.15 -9.3 1.3 -8.85 Q1.65 -8.1 1.85 -7.8 L2.1 -7.45 Q1.6 -7.7 0.85 -8.1 -0.25 -8.65 -1.1 -8.8 -1.35 -8.85 -1.55 -9.0 L-1.95 -9.2 -2.0 -9.2 -1.85 -9.05 Q-1.6 -8.8 -0.85 -7.75 L-0.6 -7.5 Q0.75 -7.0 1.95 -7.0 L2.35 -7.05 2.5 -7.1 M-0.05 -4.65 Q0.3 -2.65 0.75 -0.8 L0.3 0.15 0.0 0.75 Q-0.05 -0.75 -0.3 -1.5 L-0.45 -1.85 -0.35 -2.65 -0.05 -4.55 -0.05 -4.65 M-11.6 -0.65 L-10.3 -2.0 Q-9.0 -3.35 -8.05 -4.35 L-8.15 -4.15 -8.85 -2.5 -9.05 -1.85 -10.1 -1.35 -10.4 -1.2 -11.5 -0.7 -11.6 -0.65 M-6.8 -6.7 L-7.35 -7.0 Q-7.9 -6.9 -8.4 -6.7 -7.55 -7.55 -7.55 -7.75 L-7.55 -7.8 -6.45 -7.85 -6.4 -7.55 -6.4 -7.35 -6.45 -7.3 -6.45 -7.25 -6.55 -7.15 -6.8 -6.7 M-7.1 -9.7 L-6.7 -10.2 -5.95 -10.95 -5.9 -10.95 -5.85 -11.0 Q-5.4 -11.4 -4.8 -11.65 L-4.2 -11.6 -4.2 -11.0 -4.15 -10.8 -4.1 -10.65 -4.1 -10.45 -4.0 -10.15 -4.0 -10.1 -3.95 -9.85 -4.05 -9.75 -5.35 -8.5 Q-5.55 -8.35 -5.85 -8.3 -6.45 -8.15 -7.35 -8.15 L-8.0 -8.15 Q-5.9 -8.95 -5.7 -9.1 -5.55 -9.2 -4.95 -9.7 L-7.1 -9.7 M-5.6 -11.25 L-4.5 -12.35 -4.15 -12.3 -4.2 -12.15 -4.15 -12.1 -4.2 -12.1 -4.2 -12.05 -5.6 -11.25 M-2.2 -11.15 L-2.4 -11.0 Q-2.75 -10.75 -3.1 -10.4 -3.55 -9.95 -3.65 -9.7 L-3.7 -9.7 -3.7 -9.85 -3.75 -9.85 -4.0 -10.6 -4.0 -11.3 -3.95 -11.8 -3.85 -12.25 -2.5 -11.95 Q-1.8 -11.75 -0.7 -11.4 L-0.6 -11.35 -1.05 -11.0 -1.15 -10.9 -2.2 -10.0 -2.1 -10.5 Q-2.05 -10.85 -2.05 -10.95 L-2.05 -11.1 -2.2 -11.15 M-9.25 1.25 L-8.95 0.6 Q-8.15 -1.1 -7.05 -2.8 L-6.65 -3.35 -6.65 -3.4 -6.6 -3.25 -6.55 -3.2 -6.15 -3.3 -5.15 -4.3 Q-3.8 -5.55 -3.25 -5.55 L-3.1 -5.45 -3.65 -4.6 Q-3.45 -4.1 -3.35 -3.8 -3.15 -3.1 -2.65 -2.0 L-1.85 -0.2 -0.55 2.6 -0.75 3.25 Q-1.3 2.5 -2.5 0.4 -3.9 -1.85 -3.9 -2.1 L-3.9 -2.2 Q-3.9 -2.5 -4.15 -2.8 L-4.25 -2.85 -4.3 -2.9 -4.3 -2.85 Q-5.15 -3.1 -5.65 -3.15 L-5.75 -3.05 Q-6.55 -2.45 -7.35 -1.15 -7.65 -0.7 -7.95 -0.3 L-8.0 -0.2 -9.1 1.15 -9.25 1.25 M-8.5 1.65 L-8.45 1.65 -8.4 1.4 -8.4 1.35 -8.3 0.75 Q-8.3 0.65 -8.3 0.6 L-8.35 0.6 Q-7.85 0.05 -7.3 -0.65 -6.4 -1.9 -5.75 -2.6 L-5.75 -2.65 -5.7 -2.6 Q-5.55 -3.0 -5.0 -2.9 L-4.85 -2.85 Q-4.75 -2.9 -4.55 -2.7 L-4.5 -2.7 Q-4.3 -2.55 -4.25 -2.35 L-4.15 -2.2 Q-3.85 -1.75 -3.5 -0.95 L-3.3 -0.6 -2.95 0.05 -2.75 0.55 -2.65 0.65 Q-2.2 1.6 -1.95 1.95 -1.85 2.35 -1.5 2.75 L-2.6 4.0 Q-3.45 5.0 -4.1 5.45 L-5.8 6.55 -6.15 6.75 -6.2 6.8 -7.25 7.5 Q-6.85 6.4 -5.9 4.1 L-4.95 1.85 -4.0 -0.2 -3.9 -0.05 Q-3.85 0.05 -3.85 0.2 -3.85 0.3 -4.2 1.55 -4.55 2.75 -4.55 3.15 L-4.6 4.2 -4.6 4.3 -3.45 2.35 Q-3.1 1.6 -2.9 1.05 L-3.95 -1.05 Q-4.95 -1.65 -5.75 -1.65 -6.1 -1.65 -7.3 0.1 -8.1 1.3 -8.5 1.65" fill="#b8c2b4" fill-rule="evenodd" stroke="none"/>
    <path d="M17.35 -26.0 Q16.2 -25.8 14.65 -25.4 13.6 -24.95 12.7 -24.25 L11.8 -23.55 Q10.9 -23.2 10.35 -22.7 L10.65 -22.6 10.75 -22.55 Q10.35 -22.1 9.7 -21.3 L8.7 -20.1 7.7 -18.8 7.25 -18.75 7.1 -18.75 7.1 -19.25 Q6.95 -20.25 7.15 -21.3 L7.15 -21.45 Q7.3 -22.2 7.6 -22.85 8.7 -23.95 10.3 -24.8 13.15 -26.35 16.25 -26.35 16.55 -26.35 17.35 -26.0 M11.15 -23.95 L11.1 -24.1 11.1 -24.15 10.65 -24.15 10.6 -24.05 10.6 -23.95 Q10.6 -23.7 10.85 -23.6 10.95 -23.65 11.05 -23.75 11.15 -23.85 11.15 -23.95 M7.9 -21.45 L7.75 -21.3 Q7.65 -21.2 7.65 -21.05 L7.85 -20.85 8.5 -21.1 Q8.7 -21.2 8.75 -21.3 L8.75 -21.6 8.7 -21.65 Q8.2 -21.65 7.9 -21.45 M5.65 -11.2 L5.95 -11.0 6.45 -10.65 6.5 -10.55 Q7.3 -9.1 7.45 -8.9 8.25 -8.0 10.3 -5.85 11.35 -4.7 11.9 -3.75 L9.25 -5.95 Q5.05 -9.3 3.9 -9.9 L1.7 -11.0 Q0.8 -11.45 0.35 -11.65 L0.1 -11.75 Q-2.25 -12.7 -4.25 -12.85 L-6.45 -13.05 -6.5 -13.05 -11.05 -13.5 Q-11.05 -13.45 -13.45 -13.45 -13.95 -13.5 -14.55 -13.45 L-15.6 -13.25 -15.65 -13.25 -16.15 -13.05 -16.3 -13.0 Q-17.0 -12.9 -17.4 -12.75 -17.4 -12.8 -17.35 -12.85 -16.75 -13.3 -15.6 -13.6 -13.55 -14.15 -9.25 -14.55 L-7.0 -14.6 -6.45 -14.65 -6.25 -14.7 -2.1 -14.45 Q-0.9 -14.1 0.1 -13.7 3.1 -12.65 4.95 -11.65 4.1 -11.25 3.95 -11.05 L4.0 -11.0 4.2 -11.0 5.65 -11.2 M1.1 -11.95 L1.35 -11.8 Q1.6 -11.65 1.65 -11.65 1.7 -11.65 1.75 -11.7 1.85 -11.8 1.85 -11.9 1.85 -12.2 1.55 -12.25 1.25 -12.3 1.1 -11.95" fill="#6fa8a5" fill-rule="evenodd" stroke="none"/>
    <path d="M7.7 -18.8 L8.7 -20.1 9.7 -21.3 Q10.35 -22.1 10.75 -22.55 L10.65 -22.6 10.35 -22.7 Q10.9 -23.2 11.8 -23.55 L12.7 -24.25 Q13.6 -24.95 14.65 -25.4 16.2 -25.8 17.35 -26.0 L17.85 -25.75 Q15.2 -25.35 14.0 -24.4 13.65 -24.1 13.15 -23.5 12.65 -22.9 12.3 -22.6 11.95 -22.3 11.3 -21.3 L10.85 -20.6 Q10.15 -19.5 9.95 -19.1 L7.7 -18.8 M7.9 -21.45 Q8.2 -21.65 8.7 -21.65 L8.75 -21.6 8.75 -21.3 Q8.7 -21.2 8.5 -21.1 L7.85 -20.85 7.65 -21.05 Q7.65 -21.2 7.75 -21.3 L7.9 -21.45 M11.15 -23.95 Q11.15 -23.85 11.05 -23.75 10.95 -23.65 10.85 -23.6 10.6 -23.7 10.6 -23.95 L10.6 -24.05 10.65 -24.15 11.1 -24.15 11.1 -24.1 11.15 -23.95 M5.65 -11.2 L4.2 -11.0 4.0 -11.0 3.95 -11.05 Q4.1 -11.25 4.95 -11.65 L5.1 -11.55 5.65 -11.2 M-17.4 -12.75 Q-17.0 -12.9 -16.3 -13.0 L-16.15 -13.05 -15.65 -13.25 Q-15.6 -13.2 -15.5 -13.2 L-15.4 -13.15 -14.5 -13.15 -14.15 -13.25 -13.65 -13.3 -11.05 -13.3 Q-10.3 -13.1 -9.75 -13.1 -9.3 -13.05 -7.95 -13.1 -7.7 -12.75 -6.8 -12.65 L-6.45 -12.6 -5.3 -12.5 -4.75 -12.4 Q-5.3 -12.15 -6.05 -11.45 L-6.45 -11.05 Q-6.85 -10.65 -7.0 -10.3 -7.4 -9.95 -7.75 -9.65 -7.85 -9.65 -7.9 -9.7 -10.4 -10.25 -12.15 -10.95 -13.65 -11.55 -15.55 -12.1 L-15.65 -12.15 -17.25 -12.55 -17.25 -12.6 -17.3 -12.6 -17.55 -12.65 -17.45 -12.75 -17.4 -12.75 M-15.6 -13.25 L-14.55 -13.45 Q-13.95 -13.5 -13.45 -13.45 L-13.65 -13.45 -15.6 -13.25 M-6.5 -13.05 L-6.45 -13.05 -4.25 -12.85 Q-2.25 -12.7 0.1 -11.75 L0.35 -11.65 Q0.8 -11.45 1.7 -11.0 L3.9 -9.9 Q5.05 -9.3 9.25 -5.95 L11.9 -3.75 Q11.35 -4.7 10.3 -5.85 8.25 -8.0 7.45 -8.9 7.3 -9.1 6.5 -10.55 L6.45 -10.65 6.6 -10.55 6.65 -10.55 Q8.0 -9.5 8.9 -8.2 L9.05 -8.05 Q9.9 -6.75 12.0 -4.35 14.4 -1.55 15.05 -0.75 L14.65 -0.8 Q13.0 -1.55 12.05 -2.0 11.25 -2.35 10.7 -2.7 L10.35 -2.95 10.1 -3.05 Q9.85 -3.25 9.7 -3.4 L9.6 -3.7 Q9.2 -4.8 8.8 -5.6 L9.05 -5.35 Q11.65 -3.15 12.8 -2.35 L12.45 -2.7 9.65 -5.4 7.85 -6.95 7.7 -7.1 Q6.2 -8.3 5.0 -8.9 4.05 -9.35 2.6 -10.35 L2.25 -10.55 1.55 -11.0 Q0.9 -11.35 0.35 -11.6 L0.2 -11.65 0.15 -11.65 0.1 -11.7 -0.4 -11.85 -1.15 -12.1 -2.7 -12.45 -2.75 -12.45 -4.15 -12.7 -6.45 -13.05 -6.5 -13.05 M1.1 -11.95 Q1.25 -12.3 1.55 -12.25 1.85 -12.2 1.85 -11.9 1.85 -11.8 1.75 -11.7 1.7 -11.65 1.65 -11.65 1.6 -11.65 1.35 -11.8 L1.1 -11.95" fill="#43767e" fill-rule="evenodd" stroke="none"/>
    <path d="M7.2 -22.95 Q6.65 -21.95 6.4 -21.3 L6.35 -21.05 Q6.25 -20.8 6.15 -18.75 L6.15 -18.7 5.4 -18.65 4.8 -18.65 4.45 -18.7 Q4.25 -18.75 4.2 -18.75 4.4 -19.0 4.4 -19.25 L4.35 -19.35 4.6 -20.0 5.1 -21.25 5.15 -21.3 5.15 -21.35 5.35 -21.35 Q5.55 -21.55 5.95 -21.8 L6.4 -22.1 6.65 -22.35 7.2 -22.95 M0.35 -17.2 Q1.35 -17.95 1.65 -18.35 L2.05 -18.85 2.35 -19.2 3.0 -19.95 Q3.5 -20.4 3.95 -20.8 L4.05 -20.85 4.3 -21.05 4.65 -21.3 4.7 -21.3 4.85 -21.4 4.8 -21.35 4.8 -21.3 4.7 -21.1 Q3.4 -19.9 3.05 -17.45 2.95 -16.75 2.95 -15.9 L2.85 -15.9 2.15 -15.85 1.55 -17.35 Q1.45 -17.15 1.35 -16.25 L1.3 -15.8 0.95 -15.75 -1.6 -15.75 -0.95 -16.2 -0.4 -16.6 0.0 -16.9 0.0 -16.8 0.05 -16.8 0.05 -16.75 0.25 -16.75 Q0.35 -16.75 0.4 -16.8 L0.6 -17.1 0.55 -17.2 0.35 -17.2 M5.3 -20.5 Q5.15 -20.35 5.15 -20.3 L5.25 -20.25 5.45 -20.05 Q5.6 -20.15 5.7 -20.3 5.8 -20.45 5.8 -20.55 L5.8 -20.7 5.75 -20.75 Q5.5 -20.7 5.3 -20.5 M5.2 -16.15 L4.2 -16.0 4.2 -16.05 4.05 -16.9 Q3.95 -17.5 3.95 -17.75 L3.95 -17.85 Q3.95 -18.05 4.05 -18.4 L4.1 -18.35 5.15 -18.45 6.1 -18.55 6.7 -18.6 6.7 -18.55 6.95 -18.55 7.05 -18.6 8.4 -18.7 8.6 -18.7 9.9 -18.75 9.95 -18.75 10.05 -18.7 9.9 -18.35 7.9 -17.85 Q6.2 -17.65 5.5 -17.5 L4.25 -17.55 4.3 -17.45 4.3 -17.4 4.65 -17.35 5.3 -17.35 5.25 -17.4 Q5.75 -17.25 6.5 -17.15 L6.3 -16.95 5.2 -16.15 M2.7 -18.35 Q2.75 -18.45 2.75 -18.5 L2.55 -18.65 Q2.5 -18.65 2.4 -18.6 2.35 -18.5 2.35 -18.4 2.4 -18.3 2.55 -18.25 L2.7 -18.35 M3.15 -12.8 Q2.1 -13.25 0.85 -13.7 L0.1 -13.95 -1.9 -14.6 -3.0 -14.7 -3.25 -14.8 -4.0 -14.85 -4.2 -14.9 -4.05 -14.95 Q-3.3 -15.3 -2.75 -15.25 -2.15 -15.15 -1.55 -15.4 L1.05 -15.45 3.95 -15.8 4.05 -15.8 4.1 -15.85 5.1 -15.95 5.55 -16.05 8.35 -16.45 Q7.45 -15.85 7.15 -15.8 L3.6 -15.1 Q1.45 -14.7 0.9 -14.7 1.4 -14.3 3.05 -13.85 4.4 -13.5 5.9 -13.3 L6.0 -13.25 5.6 -13.15 3.15 -12.8 M1.55 -13.65 L1.55 -13.95 Q1.3 -14.0 1.15 -13.95 1.1 -14.05 1.1 -13.8 1.1 -13.7 1.15 -13.65 L1.15 -13.6 1.55 -13.65 M-0.15 -15.2 L-0.2 -15.2 Q-0.35 -15.2 -0.6 -15.05 -0.9 -14.9 -0.9 -14.75 L-0.9 -14.6 -0.85 -14.6 -0.85 -14.55 -0.7 -14.55 Q-0.65 -14.55 -0.35 -14.75 -0.1 -14.95 -0.1 -15.05 -0.1 -15.2 -0.15 -15.2" fill="#be8332" fill-rule="evenodd" stroke="none"/>
    <path d="M7.2 -22.95 Q7.15 -22.75 7.05 -22.35 L7.0 -22.05 Q6.85 -21.6 6.85 -21.3 L6.8 -21.05 6.75 -20.0 Q6.65 -19.05 6.65 -18.75 L6.35 -18.7 6.15 -18.7 6.15 -18.75 Q6.25 -20.8 6.35 -21.05 L6.4 -21.3 Q6.65 -21.95 7.2 -22.95 M1.3 -15.8 L1.35 -16.25 Q1.45 -17.15 1.55 -17.35 L2.15 -15.85 1.3 -15.8 M2.95 -15.9 Q2.95 -16.75 3.05 -17.45 3.4 -19.9 4.7 -21.1 4.5 -20.55 4.2 -19.15 L4.2 -19.1 4.1 -18.95 Q4.0 -18.7 4.0 -18.6 L4.05 -18.45 Q3.75 -17.1 3.75 -16.6 3.75 -16.2 3.85 -16.0 L2.95 -15.9 M5.2 -16.15 L6.3 -16.95 6.5 -17.15 Q5.75 -17.25 5.25 -17.4 L5.3 -17.35 4.65 -17.35 4.3 -17.4 4.3 -17.45 4.25 -17.55 5.5 -17.5 Q6.2 -17.65 7.9 -17.85 L9.9 -18.35 9.2 -17.1 9.25 -17.1 9.1 -16.95 9.15 -16.85 8.1 -16.75 6.55 -16.4 6.25 -16.35 5.2 -16.15 M3.15 -12.8 L5.6 -13.15 6.0 -13.25 5.9 -13.3 Q4.4 -13.5 3.05 -13.85 1.4 -14.3 0.9 -14.7 1.45 -14.7 3.6 -15.1 L7.15 -15.8 Q7.45 -15.85 8.35 -16.45 L9.05 -16.55 Q9.3 -16.55 9.1 -16.5 L8.3 -14.7 Q7.75 -13.35 7.6 -12.75 7.55 -12.6 7.55 -12.5 7.6 -11.75 7.75 -11.0 L7.75 -10.9 7.8 -10.55 8.0 -9.85 7.15 -10.55 6.6 -11.0 5.75 -11.55 Q4.7 -12.15 3.15 -12.8" fill="#b74a26" fill-rule="evenodd" stroke="none"/>
    <path d="M0.35 -17.2 L0.55 -17.2 0.6 -17.1 0.4 -16.8 Q0.35 -16.75 0.25 -16.75 L0.05 -16.75 0.05 -16.8 0.0 -16.8 0.0 -16.9 0.05 -16.95 0.3 -17.1 0.35 -17.2 M5.3 -20.5 Q5.5 -20.7 5.75 -20.75 L5.8 -20.7 5.8 -20.55 Q5.8 -20.45 5.7 -20.3 5.6 -20.15 5.45 -20.05 L5.25 -20.25 5.15 -20.3 Q5.15 -20.35 5.3 -20.5 M2.7 -18.35 L2.55 -18.25 Q2.4 -18.3 2.35 -18.4 2.35 -18.5 2.4 -18.6 2.5 -18.65 2.55 -18.65 L2.75 -18.5 Q2.75 -18.45 2.7 -18.35 M1.55 -13.65 L1.15 -13.6 1.15 -13.65 Q1.1 -13.7 1.1 -13.8 1.1 -14.05 1.15 -13.95 1.3 -14.0 1.55 -13.95 L1.55 -13.65 M-0.15 -15.2 Q-0.1 -15.2 -0.1 -15.05 -0.1 -14.95 -0.35 -14.75 -0.65 -14.55 -0.7 -14.55 L-0.85 -14.55 -0.85 -14.6 -0.9 -14.6 -0.9 -14.75 Q-0.9 -14.9 -0.6 -15.05 -0.35 -15.2 -0.2 -15.2 L-0.15 -15.2" fill="#e1ac3e" fill-rule="evenodd" stroke="none"/>
    <path d="M-4.5 -8.7 L-4.15 -9.0 Q-3.9 -9.2 -3.8 -9.35 L-3.7 -9.05 -3.1 -9.8 -3.1 -9.85 -3.05 -9.9 -3.1 -9.65 Q-3.1 -9.4 -2.9 -8.95 -2.65 -8.3 -2.2 -7.8 L-2.1 -7.65 -2.15 -7.65 Q-1.9 -6.9 -1.7 -6.65 -1.35 -6.05 -0.7 -5.8 L-0.7 -5.85 Q-1.3 -6.2 -1.65 -6.8 L-2.0 -7.55 Q-1.3 -6.8 -0.3 -6.45 L-0.1 -5.0 -0.45 -4.7 Q-0.95 -4.35 -1.3 -3.9 -1.55 -4.35 -1.85 -4.7 L-1.8 -4.75 -1.75 -5.1 -1.85 -5.5 Q-1.7 -5.35 -1.6 -5.15 -1.5 -5.0 -1.4 -4.5 -1.25 -4.55 -0.85 -4.8 -0.45 -5.0 -0.3 -5.15 -1.45 -5.35 -2.3 -7.0 L-2.3 -7.1 Q-2.45 -7.5 -2.6 -7.75 L-2.6 -7.8 Q-2.8 -8.1 -2.95 -8.2 L-2.9 -8.2 -2.9 -8.15 -3.15 -8.4 Q-3.5 -8.75 -4.0 -8.75 L-4.5 -8.7 M-6.1 -7.7 L-6.05 -7.9 -6.05 -7.95 -5.85 -8.0 -5.8 -8.0 -6.1 -7.7" fill="#ee9960" fill-rule="evenodd" stroke="none"/>
    <path d="M-4.5 -8.7 L-4.0 -8.75 Q-3.5 -8.75 -3.15 -8.4 L-3.35 -8.1 -4.2 -6.95 -5.7 -4.8 -6.35 -3.7 -6.4 -3.65 -6.7 -4.45 Q-6.8 -4.9 -6.8 -5.25 L-6.8 -5.55 -6.7 -5.8 Q-6.7 -5.95 -6.75 -5.95 -6.45 -7.1 -5.25 -8.1 L-4.5 -8.7 M-4.75 -7.8 L-4.75 -7.85 Q-5.55 -7.75 -6.05 -7.0 -6.4 -6.4 -6.5 -5.8 L-6.45 -5.55 -6.3 -5.45 -6.15 -5.45 Q-5.7 -5.45 -5.15 -6.5 -4.7 -7.4 -4.7 -7.65 -4.7 -7.75 -4.75 -7.8 M-2.7 -6.9 L-2.6 -6.6 -2.25 -5.7 Q-2.45 -5.75 -2.7 -5.95 -2.95 -6.15 -3.2 -6.2 L-3.15 -6.2 -2.7 -6.9" fill="#f1825c" fill-rule="evenodd" stroke="none"/>
    <path d="M-3.15 -8.4 L-2.9 -8.15 Q-2.8 -7.8 -2.8 -7.25 L-2.8 -7.1 -2.7 -6.9 -3.15 -6.2 -3.2 -6.2 Q-2.95 -6.15 -2.7 -5.95 -2.45 -5.75 -2.25 -5.7 L-2.2 -5.7 -2.2 -5.65 Q-2.05 -5.3 -2.05 -5.15 -2.05 -5.0 -2.1 -5.05 L-2.1 -5.1 Q-2.2 -5.15 -2.6 -5.6 L-2.65 -5.6 Q-2.95 -6.0 -3.25 -6.0 -3.4 -6.0 -3.75 -5.85 L-4.65 -4.9 Q-5.95 -3.65 -6.1 -3.65 -6.25 -3.65 -6.3 -3.75 L-6.35 -3.75 -6.35 -3.7 -5.7 -4.8 -4.2 -6.95 -3.35 -8.1 -3.15 -8.4" fill="#d94e35" fill-rule="evenodd" stroke="none"/>
    <path d="M-4.75 -7.8 Q-4.7 -7.75 -4.7 -7.65 -4.7 -7.4 -5.15 -6.5 -5.7 -5.45 -6.15 -5.45 L-6.3 -5.45 -6.45 -5.55 -6.5 -5.8 Q-6.4 -6.4 -6.05 -7.0 -5.55 -7.75 -4.75 -7.85 L-4.75 -7.8" fill="#fec1af" fill-rule="evenodd" stroke="none"/>
  </g>
</svg>
