<?xml version="1.0" encoding="UTF-8" standalone="no"?>
<svg xmlns:ffdec="https://www.free-decompiler.com/flash" xmlns:xlink="http://www.w3.org/1999/xlink" ffdec:objectType="shape" height="15.25px" width="15.45px" xmlns="http://www.w3.org/2000/svg">
  <g transform="matrix(1.0, 0.0, 0.0, 1.0, 6.9, 7.1)">
    <path d="M3.25 -6.55 Q3.3 -6.65 3.4 -6.75 3.5 -6.6 3.8 -5.4 L4.05 -4.15 4.3 -3.2 4.7 -2.15 Q5.25 -0.7 5.4 0.25 5.5 0.6 5.55 2.55 5.55 2.95 5.6 3.3 L5.65 3.4 5.85 4.2 5.95 4.3 Q6.1 4.5 6.1 4.75 L6.15 4.75 5.9 4.95 6.25 4.95 6.55 4.75 Q7.1 4.45 7.45 4.6 L6.85 5.0 Q7.25 5.05 7.65 5.3 L7.7 5.35 8.0 5.6 Q8.45 6.05 8.55 6.9 8.1 7.15 7.35 7.45 L6.25 7.9 6.25 7.95 6.15 8.0 5.95 8.0 5.85 8.1 5.75 8.1 5.7 8.15 5.65 8.1 5.35 8.1 4.35 8.05 4.1 8.05 3.55 7.85 Q2.1 7.4 1.75 7.2 1.5 7.05 1.45 6.75 L1.45 6.2 Q1.5 6.05 1.55 5.95 L1.55 5.8 Q1.25 5.65 1.1 5.4 1.05 5.25 1.05 4.6 L0.5 4.45 Q0.9 5.05 0.9 5.4 L0.8 5.55 0.85 5.55 0.75 5.6 0.7 5.6 Q0.55 5.7 0.3 5.7 L0.4 5.8 0.3 5.85 Q0.45 6.15 0.45 6.45 L0.45 6.6 0.4 6.65 0.25 6.7 Q-0.05 6.85 -0.6 7.0 -2.05 7.4 -4.3 7.45 L-4.75 7.4 Q-5.15 7.3 -5.3 7.15 -5.4 7.1 -5.45 7.05 L-5.45 6.85 -5.4 6.7 -5.55 6.65 -5.6 6.65 Q-6.05 6.4 -6.9 6.05 -6.85 5.7 -6.0 5.1 L-5.9 5.05 Q-6.3 5.2 -6.4 5.35 L-6.45 5.35 -6.45 5.2 Q-6.45 4.95 -6.0 4.85 L-5.3 4.65 -4.85 4.5 -4.9 4.45 Q-5.15 4.3 -5.15 4.1 L-4.95 4.1 Q-4.9 3.9 -4.6 3.95 L-3.55 4.15 -3.7 3.95 -3.8 3.6 -3.75 3.5 Q-3.6 3.25 -3.45 2.8 L-3.5 2.7 -3.5 2.4 -3.6 1.9 -3.75 1.0 Q-3.8 0.5 -3.8 0.25 L-3.8 -0.45 Q-3.8 -1.3 -2.65 -3.2 -1.65 -4.8 -1.4 -5.55 L-1.3 -5.85 -1.25 -5.85 Q-1.15 -5.95 -1.15 -5.8 -1.15 -5.4 -1.25 -5.0 -1.35 -4.65 -1.5 -4.3 L-1.55 -4.2 Q-1.45 -4.1 -1.45 -3.75 -1.45 -2.9 -1.65 -2.1 L-1.65 0.45 -1.7 1.35 -1.75 1.95 -1.7 2.55 -1.7 2.75 -1.6 3.3 Q-1.5 3.7 -1.15 3.9 L0.1 3.95 0.45 4.0 0.55 4.05 1.2 4.2 Q1.25 4.15 1.35 4.1 L1.5 4.15 1.6 4.15 1.7 3.1 1.6 0.25 Q1.65 -1.25 2.35 -2.5 L2.6 -2.9 2.9 -3.3 3.05 -3.4 Q3.25 -3.5 3.55 -3.5 L3.9 -3.5 3.9 -3.6 Q3.7 -4.05 3.5 -4.9 L3.35 -5.6 Q3.2 -6.2 3.2 -6.3 L3.25 -6.5 3.25 -6.55 M2.15 -1.55 L1.9 -0.75 1.9 -0.6 Q1.85 -0.4 1.85 0.35 L1.9 0.95 Q1.85 1.0 1.85 1.05 L1.85 1.1 1.9 1.3 1.85 1.8 Q1.85 1.9 1.9 2.0 L2.0 4.2 1.9 4.6 1.65 4.6 1.45 4.65 1.4 4.65 1.4 5.35 Q1.4 5.4 1.45 5.45 1.55 5.5 1.7 5.55 L1.7 5.5 1.75 5.55 1.85 5.6 1.9 5.6 2.55 5.5 Q3.25 5.35 3.95 5.2 L4.2 5.1 Q4.35 5.0 4.55 4.9 L4.6 4.9 Q4.9 4.8 5.2 4.8 L5.3 4.75 5.5 4.7 Q5.4 4.5 5.35 4.15 L5.3 4.15 5.35 4.15 5.35 4.1 Q5.3 3.75 5.25 3.25 L5.2 2.45 5.2 2.4 Q5.2 1.9 5.1 1.1 L4.85 -0.25 Q4.65 -0.95 4.45 -1.5 L4.1 -2.45 3.95 -2.95 3.75 -3.05 Q3.6 -3.2 3.45 -3.25 L3.4 -3.25 3.1 -3.1 Q2.45 -2.5 2.2 -1.75 L2.15 -1.55 M5.8 5.3 L5.2 5.4 5.45 5.4 5.8 5.3 M6.05 7.5 L6.45 7.4 Q6.8 7.4 7.15 7.2 7.35 7.05 7.4 6.95 L7.5 6.85 7.5 6.5 7.3 5.95 Q7.15 5.65 6.85 5.7 L6.85 5.65 6.8 5.65 6.75 5.6 6.75 5.55 6.5 5.5 6.3 5.45 5.8 5.55 5.4 5.65 5.2 5.5 5.2 5.4 4.5 5.5 3.85 5.6 2.25 5.8 2.15 5.8 2.0 5.85 1.75 5.85 Q1.9 6.05 1.85 6.3 L1.75 6.8 Q1.75 7.1 2.85 7.25 L4.25 7.45 5.35 7.55 5.45 7.6 5.4 7.4 Q5.5 7.4 5.55 7.3 L5.55 7.0 Q5.55 6.45 5.35 6.1 L5.35 6.05 5.2 5.9 Q5.0 5.7 4.65 5.85 L4.55 5.75 4.6 5.75 4.5 5.7 4.15 5.75 Q3.85 5.85 3.55 6.05 L2.9 6.45 2.85 6.45 Q3.2 5.8 3.85 5.7 L4.1 5.65 4.6 5.7 Q4.8 5.5 5.1 5.65 L5.3 5.75 5.35 5.75 5.45 6.0 5.5 6.1 5.7 6.7 5.7 6.75 5.8 7.2 5.85 7.3 5.85 7.55 6.05 7.5 M7.25 5.75 L7.45 6.1 7.7 6.55 7.8 6.6 8.05 6.55 Q8.0 6.3 7.9 6.05 7.65 5.8 7.25 5.65 L7.2 5.65 7.25 5.75 M-1.35 5.15 L-0.85 5.25 -0.5 5.35 0.05 5.35 0.4 5.3 Q0.4 5.4 0.4 5.25 0.1 4.45 0.1 4.3 L-0.25 4.2 -0.45 4.25 -0.75 4.2 -0.95 4.1 -1.1 4.1 -1.3 4.2 -1.6 4.25 Q-1.75 4.25 -1.85 3.55 L-1.85 3.4 -1.95 3.45 -2.05 3.55 -2.25 3.7 -2.7 3.85 Q-2.8 3.9 -2.85 3.9 L-3.0 3.9 -3.05 3.85 Q-2.9 3.8 -2.7 3.7 L-2.6 3.55 -2.5 3.5 Q-2.35 3.45 -2.15 3.2 -1.95 2.9 -1.95 2.8 L-1.95 2.1 -1.85 0.45 -1.85 -2.2 Q-1.75 -2.25 -1.75 -2.5 L-1.8 -3.7 -1.85 -3.75 -2.35 -3.1 -3.0 -1.85 Q-3.55 -0.65 -3.55 0.25 -3.55 0.65 -3.45 1.0 L-3.5 1.0 -3.4 1.3 -3.3 1.7 -3.25 1.8 Q-3.0 2.6 -3.0 2.75 L-3.05 2.9 -3.0 3.0 -3.0 3.05 -3.05 3.3 -3.15 3.55 Q-3.25 3.75 -3.4 3.9 L-3.45 4.0 -3.35 4.1 Q-3.2 4.1 -2.85 4.3 -2.25 4.7 -2.05 4.8 -1.75 5.0 -1.35 5.15 M-4.6 5.5 Q-4.35 5.3 -4.05 5.2 L-4.15 5.1 -4.1 5.0 Q-4.05 5.05 -3.85 5.1 L-3.5 5.05 -3.65 5.15 -3.25 5.25 -3.4 5.05 -2.95 5.3 -2.7 5.4 -2.7 5.45 -2.65 5.45 -2.55 5.5 -2.55 5.55 -2.45 5.6 -2.4 5.65 -2.35 5.65 -2.4 5.75 -2.45 5.8 -3.35 5.5 -3.65 5.35 -3.7 5.35 Q-3.9 5.25 -4.15 5.4 -4.35 5.5 -4.6 5.75 -5.15 6.25 -5.15 6.5 L-5.15 6.7 -5.0 6.8 -4.95 6.8 -5.0 6.9 -3.5 6.8 -1.95 6.65 -1.45 6.6 -1.0 6.55 Q-0.6 6.4 -0.35 6.25 -0.2 6.1 -0.1 6.0 L0.0 5.75 -0.05 5.75 Q-1.05 5.7 -2.15 5.15 -2.95 4.75 -3.25 4.4 -3.25 4.45 -3.35 4.55 L-3.35 4.6 -3.4 4.65 -3.5 4.65 -3.75 4.7 -4.45 4.65 -4.6 4.7 -5.0 4.8 Q-5.2 4.9 -5.4 5.05 L-5.35 5.05 -5.4 5.1 Q-5.75 5.4 -6.15 5.85 L-6.2 5.9 -6.25 6.0 -6.2 6.0 -5.6 6.2 -5.5 6.2 Q-5.45 6.15 -5.35 6.15 L-5.25 6.15 -5.15 5.95 -4.75 5.6 -4.6 5.5" fill="#111111" fill-rule="evenodd" stroke="none"/>
    <path d="M3.45 -3.25 L3.85 -2.15 Q4.45 -0.55 4.45 -0.35 L4.55 1.3 4.5 1.75 Q4.45 2.15 4.1 2.15 2.65 2.15 2.25 0.8 L2.25 0.75 2.2 0.5 Q2.1 0.15 2.1 -0.3 L2.15 -1.0 2.2 -1.65 2.15 -1.55 2.2 -1.75 Q2.45 -2.5 3.1 -3.1 L3.4 -3.25 3.45 -3.25 M2.1 2.4 Q2.25 2.8 3.1 3.6 3.65 4.05 4.05 4.25 L4.1 4.25 4.2 4.35 Q4.5 4.45 4.75 4.45 L5.05 4.4 5.35 4.3 Q5.25 4.4 4.85 4.65 4.35 4.9 4.15 4.9 3.2 4.9 2.6 3.75 2.3 3.25 2.1 2.45 L2.1 2.4 M-2.25 3.7 L-2.15 3.8 Q-1.85 4.15 -1.4 5.0 L-1.35 5.15 Q-1.75 5.0 -2.05 4.8 -2.25 4.7 -2.85 4.3 -3.2 4.1 -3.35 4.1 L-3.45 4.0 -3.4 3.9 Q-3.25 3.75 -3.15 3.55 L-3.05 3.3 Q-2.75 3.35 -2.5 3.5 L-2.6 3.55 -2.7 3.7 Q-2.9 3.8 -3.05 3.85 L-3.0 3.9 -2.85 3.9 Q-2.8 3.9 -2.7 3.85 L-2.25 3.7 M-3.45 1.0 Q-3.55 0.65 -3.55 0.25 -3.55 -0.65 -3.0 -1.85 L-2.35 -3.1 -1.85 -3.75 -1.8 -3.7 -1.75 -2.5 Q-1.75 -2.25 -1.85 -2.2 L-1.85 0.45 Q-2.65 1.15 -3.05 1.15 -3.3 1.15 -3.45 1.0" fill="#666666" fill-rule="evenodd" stroke="none"/>
    <path d="M5.3 4.15 L5.35 4.15 Q5.4 4.5 5.5 4.7 L5.3 4.75 5.2 4.8 Q4.9 4.8 4.6 4.9 L4.55 4.9 Q4.35 5.0 4.2 5.1 L3.95 5.2 Q3.25 5.35 2.55 5.5 L1.9 5.6 1.85 5.6 1.75 5.55 1.7 5.5 1.7 5.55 Q1.55 5.5 1.45 5.45 1.4 5.4 1.4 5.35 L1.4 4.65 1.45 4.65 1.65 4.6 1.9 4.6 2.0 4.2 1.9 2.0 Q1.85 1.9 1.85 1.8 L1.9 1.3 1.85 1.1 1.85 1.05 Q1.85 1.0 1.9 0.95 L1.85 0.35 Q1.85 -0.4 1.9 -0.6 L1.9 -0.75 2.15 -1.55 2.2 -1.65 2.15 -1.0 2.1 -0.3 Q2.1 0.15 2.2 0.5 L2.25 0.75 2.25 0.8 Q2.65 2.15 4.1 2.15 4.45 2.15 4.5 1.75 L4.55 1.3 4.45 -0.35 Q4.45 -0.55 3.85 -2.15 L3.45 -3.25 Q3.6 -3.2 3.75 -3.05 L3.95 -2.95 4.1 -2.45 4.45 -1.5 Q4.65 -0.95 4.85 -0.25 L5.1 1.1 Q5.2 1.9 5.2 2.4 L5.2 2.45 5.25 3.25 Q5.3 3.75 5.35 4.1 L5.3 4.15 M2.1 2.4 L2.1 2.45 Q2.3 3.25 2.6 3.75 3.2 4.9 4.15 4.9 4.35 4.9 4.85 4.65 5.25 4.4 5.35 4.3 L5.05 4.4 4.75 4.45 Q4.5 4.45 4.2 4.35 L4.1 4.25 4.05 4.25 Q3.65 4.05 3.1 3.6 2.25 2.8 2.1 2.4 M-2.25 3.7 L-2.05 3.55 -1.95 3.45 -1.85 3.4 -1.85 3.55 Q-1.75 4.25 -1.6 4.25 L-1.3 4.2 -1.1 4.1 -0.95 4.1 -0.75 4.2 -0.45 4.25 -0.25 4.2 0.1 4.3 Q0.1 4.45 0.4 5.25 0.4 5.4 0.4 5.3 L0.05 5.35 -0.5 5.35 -0.85 5.25 -1.35 5.15 -1.4 5.0 Q-1.85 4.15 -2.15 3.8 L-2.25 3.7 M-3.05 3.3 L-3.0 3.05 -3.0 3.0 -3.05 2.9 -3.0 2.75 Q-3.0 2.6 -3.25 1.8 L-3.3 1.7 -3.4 1.3 -3.5 1.0 -3.45 1.0 Q-3.3 1.15 -3.05 1.15 -2.65 1.15 -1.85 0.45 L-1.95 2.1 -1.95 2.8 Q-1.95 2.9 -2.15 3.2 -2.35 3.45 -2.5 3.5 -2.75 3.35 -3.05 3.3" fill="#362d48" fill-rule="evenodd" stroke="none"/>
    <path d="M5.3 4.15 L5.35 4.1 5.35 4.15 5.3 4.15" fill="#669933" fill-rule="evenodd" stroke="none"/>
    <path d="M6.75 5.6 L6.75 5.55 6.4 5.65 6.45 5.6 6.5 5.5 6.75 5.55 6.75 5.6 M5.75 6.5 L5.75 6.85 5.7 6.75 5.7 6.55 5.75 6.5 M5.85 7.3 L5.85 7.35 Q5.9 7.45 6.05 7.5 L5.85 7.55 5.85 7.3 M3.85 5.6 L3.85 5.7 Q3.2 5.8 2.85 6.45 L2.9 6.45 3.55 6.05 Q3.85 5.85 4.15 5.75 L4.05 5.8 4.1 5.8 4.65 5.9 Q4.4 6.0 4.2 6.2 3.95 6.55 3.95 7.0 3.95 7.25 4.25 7.4 L4.25 7.45 2.85 7.25 Q1.75 7.1 1.75 6.8 L1.85 6.3 Q1.9 6.05 1.75 5.85 L2.0 5.85 2.15 5.8 2.25 5.8 3.85 5.6 M7.25 5.65 L7.25 5.75 7.2 5.65 7.25 5.65 M-2.7 5.4 L-2.95 5.3 -3.4 5.05 -3.25 5.25 -3.65 5.15 -3.5 5.05 -3.85 5.1 Q-4.05 5.05 -4.1 5.0 L-4.15 5.1 -4.05 5.2 Q-4.35 5.3 -4.6 5.5 -4.45 5.05 -4.45 4.85 -4.45 4.75 -4.5 4.65 L-4.6 4.7 -4.45 4.65 -3.75 4.7 -3.5 4.65 -3.4 4.65 -2.7 5.4 M-6.2 6.0 L-6.25 6.0 -6.2 5.9 -6.2 6.0 M-4.15 5.4 Q-3.9 5.25 -3.7 5.35 L-3.65 5.35 -3.35 5.5 -2.45 5.8 -2.4 5.75 Q-1.8 6.35 -1.45 6.6 L-1.95 6.65 -3.5 6.8 Q-3.5 6.7 -3.5 6.5 -3.5 5.8 -3.8 5.5 -3.95 5.4 -4.15 5.4 M-0.05 5.75 L0.0 5.75 -0.05 5.75" fill="#9aa87b" fill-rule="evenodd" stroke="none"/>
    <path d="M6.75 5.6 L6.8 5.65 6.85 5.65 6.85 5.7 Q7.15 5.65 7.3 5.95 L7.5 6.5 7.5 6.85 7.4 6.95 Q7.35 7.05 7.15 7.2 6.8 7.4 6.45 7.4 L6.05 7.5 Q5.9 7.45 5.85 7.35 L5.85 7.3 5.8 7.2 5.7 6.75 5.7 6.7 5.5 6.1 5.45 6.0 5.5 6.0 5.5 6.05 Q5.65 6.2 5.7 6.5 L5.7 6.55 5.7 6.75 5.75 6.85 5.75 6.5 Q5.85 6.15 6.05 5.9 6.2 5.75 6.4 5.65 L6.75 5.55 6.75 5.6 M7.25 5.75 L7.25 5.65 Q7.65 5.8 7.9 6.05 8.0 6.3 8.05 6.55 L7.8 6.6 7.7 6.55 7.45 6.1 7.25 5.75 M4.25 7.45 L4.25 7.4 Q3.95 7.25 3.95 7.0 3.95 6.55 4.2 6.2 4.4 6.0 4.65 5.9 L4.8 5.85 5.05 5.8 Q5.15 5.85 5.2 5.9 L5.35 6.05 5.35 6.1 Q5.55 6.45 5.55 7.0 L5.55 7.3 Q5.5 7.4 5.4 7.4 L5.45 7.6 5.35 7.55 4.25 7.45 M-4.6 4.7 L-4.5 4.65 Q-4.45 4.75 -4.45 4.85 -4.45 5.05 -4.6 5.5 L-4.75 5.6 -5.15 5.95 -5.25 6.15 -5.35 6.15 Q-5.45 6.15 -5.5 6.2 L-5.6 6.2 -6.2 6.0 -6.2 5.9 -6.15 5.85 Q-5.75 5.4 -5.4 5.1 L-5.35 5.05 -5.4 5.05 Q-5.2 4.9 -5.0 4.8 L-4.6 4.7 M-3.5 6.8 L-5.0 6.9 -4.95 6.8 -5.0 6.8 -5.15 6.7 -5.15 6.5 Q-5.15 6.25 -4.6 5.75 -4.35 5.5 -4.15 5.4 -3.95 5.4 -3.8 5.5 -3.5 5.8 -3.5 6.5 -3.5 6.7 -3.5 6.8" fill="#c2caae" fill-rule="evenodd" stroke="none"/>
    <path d="M6.4 5.65 Q6.2 5.75 6.05 5.9 5.85 6.15 5.75 6.5 L5.7 6.55 5.7 6.5 Q5.65 6.2 5.5 6.05 L5.5 6.0 5.45 6.0 5.35 5.75 5.3 5.75 5.1 5.65 Q4.8 5.5 4.6 5.7 L4.1 5.65 3.85 5.7 3.85 5.6 4.5 5.5 5.2 5.4 5.2 5.5 5.4 5.65 5.8 5.55 6.3 5.45 6.5 5.5 6.45 5.6 6.4 5.65 M4.65 5.9 L4.1 5.8 4.05 5.8 4.15 5.75 4.5 5.7 4.6 5.75 4.55 5.75 4.65 5.85 Q5.0 5.7 5.2 5.9 5.15 5.85 5.05 5.8 L4.8 5.85 4.65 5.9 M-2.7 5.4 L-3.4 4.65 -3.35 4.6 -3.35 4.55 Q-3.25 4.45 -3.25 4.4 -2.95 4.75 -2.15 5.15 -1.05 5.7 -0.05 5.75 L0.0 5.75 -0.1 6.0 Q-0.2 6.1 -0.35 6.25 -0.6 6.4 -1.0 6.55 L-1.45 6.6 Q-1.8 6.35 -2.4 5.75 L-2.35 5.65 -2.4 5.65 -2.45 5.6 -2.55 5.55 -2.55 5.5 -2.65 5.45 -2.7 5.45 -2.7 5.4" fill="#788659" fill-rule="evenodd" stroke="none"/>
    <path d="M-0.4 -6.65 L-0.35 -6.7 -0.1 -6.8 0.7 -7.0 0.35 -6.05 Q-0.25 -4.3 -0.35 -3.4 L-0.6 -1.35 Q-0.8 0.55 -0.8 0.9 L-0.65 1.5 Q-0.55 2.15 -0.55 2.3 L-0.55 2.45 -0.45 2.55 -0.5 2.55 -1.05 0.5 Q-1.3 -0.65 -1.3 -1.55 -1.3 -3.45 -0.9 -5.2 -0.7 -6.05 -0.4 -6.65 M2.55 -6.95 L2.75 -6.85 Q3.05 -6.75 3.25 -6.55 L3.25 -6.5 3.2 -6.3 Q3.2 -6.2 3.35 -5.6 L3.5 -4.9 Q3.7 -4.05 3.9 -3.6 L3.9 -3.5 3.55 -3.5 Q3.25 -3.5 3.05 -3.4 L2.9 -3.3 2.6 -2.9 2.35 -2.5 Q1.65 -1.25 1.6 0.25 1.5 0.75 1.5 0.95 L1.3 2.5 Q1.25 3.35 1.25 4.0 L1.25 4.15 1.35 4.1 Q1.25 4.15 1.2 4.2 L0.55 4.05 0.45 4.0 0.1 3.95 0.3 3.5 Q0.8 2.2 0.95 1.6 L1.3 -0.15 1.45 -0.85 1.45 -0.8 1.55 -1.6 Q1.8 -3.25 2.35 -4.75 L2.6 -5.35 2.65 -5.95 2.55 -6.95" fill="#973e24" fill-rule="evenodd" stroke="none"/>
    <path d="M-1.4 -5.55 Q-1.4 -6.1 -0.6 -6.55 L-0.4 -6.65 Q-0.7 -6.05 -0.9 -5.2 -1.3 -3.45 -1.3 -1.55 -1.3 -0.65 -1.05 0.5 L-0.5 2.55 -0.45 2.55 -0.55 2.45 -0.55 2.3 Q-0.55 2.15 -0.65 1.5 L-0.8 0.9 Q-0.8 0.55 -0.6 -1.35 L-0.35 -3.4 Q-0.25 -4.3 0.35 -6.05 L0.7 -7.0 1.05 -7.05 Q1.9 -7.15 2.55 -6.95 L2.65 -5.95 2.6 -5.35 2.35 -4.75 Q1.8 -3.25 1.55 -1.6 L1.45 -0.8 1.45 -0.85 1.3 -0.15 0.95 1.6 Q0.8 2.2 0.3 3.5 L0.1 3.95 -1.15 3.9 Q-1.5 3.7 -1.6 3.3 L-1.7 2.75 -1.7 2.55 -1.75 1.95 -1.7 1.35 -1.65 0.45 -1.65 -2.1 Q-1.45 -2.9 -1.45 -3.75 -1.45 -4.1 -1.55 -4.2 L-1.5 -4.3 Q-1.35 -4.65 -1.25 -5.0 -1.15 -5.4 -1.15 -5.8 -1.15 -5.95 -1.25 -5.85 L-1.3 -5.85 -1.4 -5.55 M1.6 0.25 L1.7 3.1 1.6 4.15 1.5 4.15 1.35 4.1 1.25 4.15 1.25 4.0 Q1.25 3.35 1.3 2.5 L1.5 0.95 Q1.5 0.75 1.6 0.25" fill="#c5521b" fill-rule="evenodd" stroke="none"/>
  </g>
</svg>
