<?xml version="1.0" encoding="UTF-8" standalone="no"?>
<svg xmlns:ffdec="https://www.free-decompiler.com/flash" xmlns:xlink="http://www.w3.org/1999/xlink" ffdec:objectType="shape" height="19.2px" width="12.8px" xmlns="http://www.w3.org/2000/svg">
  <g transform="matrix(1.0, 0.0, 0.0, 1.0, 6.7, 18.9)">
    <path d="M0.45 -18.1 Q0.45 -17.95 0.3 -17.45 L0.2 -17.1 Q0.9 -17.8 2.2 -18.9 2.3 -18.65 2.45 -17.65 L2.6 -16.45 Q3.2 -17.25 3.7 -17.25 3.75 -16.75 4.25 -15.5 4.7 -14.35 4.7 -14.25 L4.7 -14.0 5.35 -13.35 Q5.45 -13.15 5.5 -12.95 5.65 -12.65 5.65 -12.45 6.1 -12.35 6.1 -12.1 6.1 -11.7 6.0 -10.75 L5.95 -10.6 5.7 -10.55 5.65 -9.8 5.55 -9.2 Q5.7 -9.1 5.7 -8.9 5.7 -7.8 5.35 -7.6 5.3 -7.55 5.0 -7.45 4.9 -7.35 4.75 -7.35 4.95 -7.0 5.35 -6.7 5.7 -6.45 5.7 -6.1 5.7 -5.75 5.55 -5.2 L5.45 -4.95 5.45 -4.9 Q5.45 -4.65 5.3 -4.5 5.1 -4.35 4.8 -4.35 4.45 -4.35 4.1 -4.65 L4.05 -3.75 3.9 -2.55 Q3.75 -1.95 3.3 -1.15 2.65 -0.1 2.0 -0.1 1.9 -0.1 1.75 -0.25 L1.7 -0.15 1.5 0.0 Q1.5 0.15 1.35 0.25 L1.1 0.3 -1.95 0.1 Q-2.85 -0.1 -3.5 -0.6 L-3.8 -0.55 -4.65 -0.45 Q-5.6 -0.45 -5.95 -0.6 L-6.05 -0.65 Q-6.45 -0.65 -6.6 -1.7 -6.7 -2.25 -6.7 -2.8 -6.7 -3.15 -6.65 -3.25 -6.5 -3.4 -6.25 -3.65 L-6.25 -4.25 Q-6.25 -4.5 -6.35 -5.2 -6.5 -5.85 -6.5 -6.05 L-6.45 -6.45 -6.65 -6.35 -6.35 -6.65 -6.35 -6.7 -6.2 -6.85 Q-5.9 -7.1 -5.4 -7.15 L-5.35 -7.15 Q-5.3 -7.35 -5.2 -7.65 L-5.45 -8.0 -5.75 -8.5 -5.55 -9.45 -5.3 -10.45 Q-5.5 -10.55 -5.6 -10.7 -5.7 -10.85 -5.7 -11.4 L-5.7 -11.65 -5.65 -11.7 Q-5.55 -12.4 -4.95 -13.2 -4.4 -13.9 -3.65 -14.45 L-3.65 -14.55 -3.6 -14.65 Q-3.3 -15.0 -2.6 -15.6 L-1.5 -16.5 -0.55 -17.5 Q-0.05 -18.05 0.4 -18.25 0.45 -18.25 0.45 -18.1 M2.4 -16.1 L2.4 -16.2 2.5 -16.3 Q2.15 -16.75 2.05 -17.3 2.0 -17.55 2.05 -18.4 1.85 -18.05 1.25 -17.5 L0.25 -16.5 Q-0.85 -15.3 -0.9 -14.55 L-0.15 -14.65 Q0.75 -14.7 1.15 -14.5 1.4 -14.4 1.9 -13.95 L2.4 -13.55 Q2.7 -13.55 3.05 -13.8 3.5 -14.1 3.7 -14.15 L4.25 -14.15 Q3.85 -15.2 3.4 -16.75 L3.0 -16.3 Q2.75 -16.05 2.45 -16.1 L2.4 -16.1 M0.05 -17.55 Q-0.3 -17.0 -1.4 -15.9 -1.95 -15.4 -2.35 -15.05 L-2.25 -15.1 Q-1.55 -15.1 -1.2 -14.85 L-1.2 -14.9 Q-1.2 -15.65 -0.05 -16.9 L-0.05 -17.05 0.05 -17.5 0.05 -17.55 M4.7 -13.1 L4.45 -13.65 3.95 -13.75 Q3.65 -13.75 3.0 -13.4 2.3 -13.05 2.25 -13.05 L1.5 -13.75 Q0.65 -14.45 0.05 -14.45 L-0.6 -14.4 -0.85 -14.3 -0.85 -14.1 -0.9 -14.05 -1.05 -14.0 Q-1.2 -14.0 -1.3 -14.1 L-1.5 -14.35 Q-1.75 -14.65 -2.55 -14.65 L-2.75 -14.65 -3.25 -14.25 -3.25 -14.05 -3.3 -14.05 -3.3 -14.15 Q-3.8 -13.65 -4.3 -12.95 L-5.05 -11.8 -4.75 -11.85 -3.3 -11.8 -3.3 -11.75 -3.25 -11.65 Q-3.25 -11.2 -3.5 -9.45 L-3.7 -7.75 Q-3.35 -7.5 -2.5 -7.5 L-2.1 -7.5 Q-1.9 -7.65 -1.85 -7.9 L-1.75 -8.25 Q-1.8 -8.3 -1.65 -8.3 -1.5 -8.3 -1.45 -8.05 L-1.45 -7.8 Q-1.45 -7.35 -1.6 -7.25 -1.8 -7.05 -2.8 -7.05 -3.85 -7.05 -4.1 -7.5 -4.2 -7.75 -4.1 -8.05 -4.1 -8.35 -3.9 -9.65 L-4.3 -8.75 -4.75 -7.75 -4.75 -7.7 Q-4.75 -7.6 -4.8 -7.5 L-4.9 -7.25 -4.95 -7.35 -5.05 -7.15 -3.8 -7.15 -1.35 -6.55 Q0.85 -6.0 1.35 -6.0 L1.5 -6.0 Q1.45 -6.3 1.45 -6.6 1.45 -7.2 1.65 -7.5 1.8 -7.7 2.15 -7.85 2.65 -8.0 2.75 -8.1 3.1 -8.3 3.25 -8.75 L3.25 -8.7 3.3 -8.55 3.2 -8.15 3.1 -7.8 2.55 -7.5 Q2.15 -7.25 2.1 -7.1 L1.8 -6.1 1.85 -6.1 2.2 -6.2 2.25 -6.15 Q2.15 -5.95 1.85 -5.75 L1.7 -5.7 1.65 -5.55 1.6 -5.65 Q1.15 -5.45 0.55 -5.45 0.4 -5.45 -1.5 -5.95 L-3.9 -6.5 -6.25 -6.5 -6.3 -6.4 -6.05 -5.6 Q-5.8 -4.85 -5.8 -4.25 -5.8 -3.75 -5.8 -3.6 -5.85 -3.35 -5.95 -3.25 L-5.85 -3.2 Q-5.4 -3.05 -4.8 -3.05 L-4.65 -3.3 Q-4.25 -3.95 -3.95 -4.15 L-3.8 -4.1 -3.9 -3.95 Q-3.55 -3.4 -2.9 -2.7 L-2.5 -2.3 -2.35 -2.3 Q-2.1 -2.2 -1.7 -2.05 -0.9 -1.75 -0.2 -1.75 0.15 -1.75 0.45 -2.1 0.6 -2.9 0.95 -3.7 1.25 -4.55 1.5 -4.75 1.65 -4.95 1.8 -4.85 2.1 -4.7 2.15 -4.15 2.4 -4.8 3.25 -7.25 3.6 -8.2 3.85 -8.75 L4.0 -9.55 4.3 -9.55 Q4.4 -9.6 4.45 -9.6 4.65 -9.6 4.9 -9.45 L5.15 -9.4 5.15 -9.5 Q5.15 -9.9 5.15 -10.15 5.2 -10.4 5.3 -10.6 4.1 -10.65 3.85 -11.1 3.75 -11.3 3.8 -11.5 L3.85 -11.75 3.9 -12.25 Q4.0 -12.65 4.55 -12.55 L5.05 -12.5 4.7 -13.1 M5.2 -12.5 L5.25 -12.5 5.15 -12.7 5.2 -12.5 M3.95 -12.0 Q4.0 -11.1 4.85 -11.05 L5.45 -11.05 Q5.6 -11.0 5.7 -10.9 L5.75 -11.45 5.8 -11.9 Q5.8 -12.05 5.6 -12.1 L5.5 -12.15 5.5 -12.1 5.45 -12.15 5.35 -12.15 5.35 -12.1 5.3 -12.2 4.05 -12.25 3.95 -12.0 M0.7 -11.45 L0.3 -11.5 0.5 -10.95 0.6 -10.5 0.9 -10.45 0.85 -10.65 Q0.85 -10.8 0.95 -11.4 L0.7 -11.45 M1.15 -11.05 Q1.1 -10.7 1.1 -10.5 1.4 -10.55 1.55 -10.85 1.7 -11.1 1.7 -11.3 L1.1 -11.4 Q1.15 -11.25 1.15 -11.05 M1.95 -11.25 Q1.95 -10.85 1.7 -10.55 1.35 -10.1 0.7 -10.1 L-0.85 -10.2 -0.7 -10.05 Q0.15 -8.9 0.6 -7.8 L0.5 -7.75 Q0.05 -8.05 -0.75 -9.0 -1.65 -10.0 -1.65 -10.4 L-1.6 -10.6 -1.6 -10.65 Q-1.6 -11.3 -1.35 -11.65 -1.05 -12.0 0.45 -11.85 1.95 -11.65 1.95 -11.25 M5.2 -9.0 Q4.9 -9.05 4.45 -9.2 L3.65 -6.95 Q2.75 -4.7 2.15 -3.8 2.1 -3.65 2.05 -3.5 1.9 -3.6 1.85 -3.95 L1.75 -4.45 1.45 -3.95 1.45 -3.85 Q1.0 -1.9 0.45 -1.55 L0.5 -1.65 Q0.3 -1.45 -0.15 -1.45 -0.95 -1.45 -1.75 -1.8 L-2.2 -2.0 -1.5 -1.4 -2.1 -1.5 Q-2.65 -1.5 -3.35 -2.5 -3.85 -3.25 -3.95 -3.75 L-4.4 -2.95 Q-4.7 -2.35 -4.8 -1.9 L-4.95 -2.1 -5.0 -2.3 Q-5.0 -2.45 -4.95 -2.7 L-5.2 -2.7 Q-5.9 -2.75 -6.1 -2.9 L-6.2 -3.0 Q-6.3 -2.75 -6.3 -2.55 L-6.25 -2.05 -6.2 -1.6 Q-6.1 -1.35 -5.9 -1.2 L-5.5 -0.9 -4.75 -0.9 Q-4.15 -0.9 -3.75 -0.75 -4.05 -1.05 -4.3 -1.45 L-4.25 -1.55 Q-3.65 -0.9 -2.7 -0.6 -1.35 -0.2 1.2 -0.1 L1.3 -0.1 1.6 -0.4 1.55 -0.45 1.65 -0.45 2.0 -0.85 2.2 -1.1 Q2.6 -1.7 2.7 -2.35 2.75 -2.75 2.8 -3.55 2.85 -4.35 2.9 -4.7 3.1 -5.7 3.75 -7.05 L3.85 -7.1 3.8 -7.1 4.25 -7.6 Q4.55 -7.85 4.9 -7.75 L5.0 -7.85 5.1 -8.55 Q5.1 -8.85 5.2 -9.0 M4.5 -7.25 L4.1 -7.05 Q3.65 -6.6 3.4 -5.45 L3.65 -5.5 3.8 -5.5 3.8 -5.45 Q4.05 -5.4 4.4 -5.15 L4.95 -4.75 Q5.05 -4.8 5.15 -4.85 5.25 -5.05 5.4 -5.6 5.4 -6.05 4.95 -6.45 4.5 -6.85 4.5 -7.2 L4.5 -7.25 M5.0 -5.7 Q4.95 -5.6 4.85 -5.6 L4.5 -5.85 4.15 -6.15 Q4.5 -6.45 4.8 -6.25 5.05 -6.1 5.05 -5.9 5.05 -5.75 5.0 -5.7 M3.3 -5.1 Q3.1 -4.15 3.1 -3.15 L3.2 -2.0 3.2 -1.8 3.3 -2.0 Q3.45 -2.5 3.5 -2.95 L3.6 -4.25 Q3.6 -4.75 3.7 -5.1 L3.6 -5.2 Q3.4 -5.2 3.3 -5.1 M2.1 -0.5 Q2.65 -0.7 3.05 -1.5 L2.4 -0.8 2.1 -0.5 M-1.3 -10.95 Q-1.3 -10.85 -0.75 -10.75 L-0.85 -11.0 Q-0.85 -11.15 -0.75 -11.4 L-0.7 -11.55 -1.0 -11.55 -1.2 -11.25 Q-1.3 -11.05 -1.3 -10.95 M-0.05 -11.35 L0.05 -11.5 -0.55 -11.55 -0.6 -11.35 -0.65 -11.1 -0.5 -10.8 -0.4 -10.65 -0.3 -10.65 -0.05 -10.6 Q-0.1 -10.8 -0.1 -11.0 -0.1 -11.2 -0.05 -11.35 M-4.9 -11.55 L-4.8 -11.25 Q-4.7 -10.85 -4.35 -10.75 L-4.45 -11.3 -4.4 -11.55 -4.9 -11.55 M-5.3 -11.5 L-5.35 -11.45 -5.35 -11.25 Q-5.3 -10.9 -5.1 -10.7 L-4.95 -10.7 Q-5.1 -11.2 -5.1 -11.4 L-5.05 -11.5 -5.3 -11.5 M-4.1 -11.55 Q-4.0 -11.4 -3.95 -11.15 -3.9 -10.9 -3.75 -10.8 L-3.65 -11.5 -4.1 -11.55 M-4.25 -10.25 Q-4.75 -10.25 -5.1 -10.35 L-5.1 -10.3 Q-5.1 -10.2 -5.25 -9.45 L-5.4 -8.7 -5.05 -8.2 -5.0 -8.1 Q-4.6 -8.95 -3.85 -10.3 L-4.25 -10.25 M-4.1 -5.05 L-4.1 -5.15 Q-3.4 -4.65 -2.9 -4.3 -2.0 -3.65 -2.0 -3.35 -2.0 -3.25 -2.05 -3.15 -2.15 -3.05 -2.3 -3.05 -2.45 -3.05 -3.3 -4.05 L-4.1 -5.05" fill="#111111" fill-rule="evenodd" stroke="none"/>
    <path d="M0.05 -17.55 L0.05 -17.5 -0.05 -17.05 -0.05 -16.9 Q-1.2 -15.65 -1.2 -14.9 L-1.2 -14.85 Q-1.55 -15.1 -2.25 -15.1 L-2.35 -15.05 Q-1.95 -15.4 -1.4 -15.9 -0.3 -17.0 0.05 -17.55 M2.4 -16.1 L2.45 -16.1 Q2.75 -16.05 3.0 -16.3 L3.4 -16.75 Q3.85 -15.2 4.25 -14.15 L3.7 -14.15 Q3.5 -14.1 3.05 -13.8 2.7 -13.55 2.4 -13.55 L1.9 -13.95 Q1.4 -14.4 1.15 -14.5 0.75 -14.7 -0.15 -14.65 L-0.9 -14.55 Q-0.85 -15.3 0.25 -16.5 L1.25 -17.5 Q1.85 -18.05 2.05 -18.4 2.0 -17.55 2.05 -17.3 2.15 -16.75 2.5 -16.3 L2.4 -16.2 2.4 -16.1 M1.15 -11.05 Q1.15 -11.25 1.1 -11.4 L1.7 -11.3 Q1.7 -11.1 1.55 -10.85 1.4 -10.55 1.1 -10.5 1.1 -10.7 1.15 -11.05 M0.7 -11.45 L0.95 -11.4 Q0.85 -10.8 0.85 -10.65 L0.9 -10.45 0.6 -10.5 0.5 -10.95 0.3 -11.5 0.7 -11.45 M3.95 -12.0 L4.05 -12.25 5.3 -12.2 5.35 -12.1 5.35 -12.15 5.45 -12.15 5.5 -12.1 5.5 -12.15 5.6 -12.1 Q5.8 -12.05 5.8 -11.9 L5.75 -11.45 5.7 -10.9 Q5.6 -11.0 5.45 -11.05 L4.85 -11.05 Q4.0 -11.1 3.95 -12.0 M5.2 -9.0 Q5.1 -8.85 5.1 -8.55 L5.0 -7.85 4.9 -7.75 Q4.55 -7.85 4.25 -7.6 L3.8 -7.1 3.85 -7.1 3.75 -7.05 Q3.1 -5.7 2.9 -4.7 2.85 -4.35 2.8 -3.55 2.75 -2.75 2.7 -2.35 2.6 -1.7 2.2 -1.1 L2.0 -0.85 1.65 -0.45 1.55 -0.45 1.6 -0.4 1.3 -0.1 1.2 -0.1 Q-1.35 -0.2 -2.7 -0.6 -3.65 -0.9 -4.25 -1.55 L-4.3 -1.45 Q-4.05 -1.05 -3.75 -0.75 -4.15 -0.9 -4.75 -0.9 L-5.5 -0.9 -5.9 -1.2 Q-6.1 -1.35 -6.2 -1.6 L-6.25 -2.05 -6.3 -2.55 Q-6.3 -2.75 -6.2 -3.0 L-6.1 -2.9 Q-5.9 -2.75 -5.2 -2.7 L-4.95 -2.7 Q-5.0 -2.45 -5.0 -2.3 L-4.95 -2.1 -4.8 -1.9 Q-4.7 -2.35 -4.4 -2.95 L-3.95 -3.75 Q-3.85 -3.25 -3.35 -2.5 -2.65 -1.5 -2.1 -1.5 L-1.5 -1.4 -2.2 -2.0 -1.75 -1.8 Q-0.95 -1.45 -0.15 -1.45 0.3 -1.45 0.5 -1.65 L0.45 -1.55 Q1.0 -1.9 1.45 -3.85 L1.45 -3.95 1.75 -4.45 1.85 -3.95 Q1.9 -3.6 2.05 -3.5 2.1 -3.65 2.15 -3.8 2.75 -4.7 3.65 -6.95 L4.45 -9.2 Q4.9 -9.05 5.2 -9.0 M-4.1 -11.55 L-3.65 -11.5 -3.75 -10.8 Q-3.9 -10.9 -3.95 -11.15 -4.0 -11.4 -4.1 -11.55 M-5.3 -11.5 L-5.05 -11.5 -5.1 -11.4 Q-5.1 -11.2 -4.95 -10.7 L-5.1 -10.7 Q-5.3 -10.9 -5.35 -11.25 L-5.35 -11.45 -5.3 -11.5 M-4.9 -11.55 L-4.4 -11.55 -4.45 -11.3 -4.35 -10.75 Q-4.7 -10.85 -4.8 -11.25 L-4.9 -11.55 M-0.05 -11.35 Q-0.1 -11.2 -0.1 -11.0 -0.1 -10.8 -0.05 -10.6 L-0.3 -10.65 -0.4 -10.65 -0.5 -10.8 -0.65 -11.1 -0.6 -11.35 -0.55 -11.55 0.05 -11.5 -0.05 -11.35 M-1.3 -10.95 Q-1.3 -11.05 -1.2 -11.25 L-1.0 -11.55 -0.7 -11.55 -0.75 -11.4 Q-0.85 -11.15 -0.85 -11.0 L-0.75 -10.75 Q-1.3 -10.85 -1.3 -10.95" fill="#003060" fill-rule="evenodd" stroke="none"/>
    <path d="M4.7 -13.1 L5.05 -12.5 4.55 -12.55 Q4.0 -12.65 3.9 -12.25 L3.85 -11.75 3.8 -11.5 Q3.75 -11.3 3.85 -11.1 4.1 -10.65 5.3 -10.6 5.2 -10.4 5.15 -10.15 5.15 -9.9 5.15 -9.5 L5.15 -9.4 4.9 -9.45 Q4.65 -9.6 4.45 -9.6 4.4 -9.6 4.3 -9.55 L4.0 -9.55 3.85 -8.75 Q3.6 -8.2 3.25 -7.25 2.4 -4.8 2.15 -4.15 2.1 -4.7 1.8 -4.85 1.65 -4.95 1.5 -4.75 1.25 -4.55 0.95 -3.7 0.6 -2.9 0.45 -2.1 0.15 -1.75 -0.2 -1.75 -0.9 -1.75 -1.7 -2.05 -2.1 -2.2 -2.35 -2.3 L-2.5 -2.3 -2.9 -2.7 Q-3.55 -3.4 -3.9 -3.95 L-3.8 -4.1 -3.95 -4.15 Q-4.25 -3.95 -4.65 -3.3 L-4.8 -3.05 Q-5.4 -3.05 -5.85 -3.2 L-5.95 -3.25 Q-5.85 -3.35 -5.8 -3.6 -5.8 -3.75 -5.8 -4.25 -5.8 -4.85 -6.05 -5.6 L-6.3 -6.4 -6.25 -6.5 -3.9 -6.5 -1.5 -5.95 Q0.4 -5.45 0.55 -5.45 1.15 -5.45 1.6 -5.65 L1.65 -5.55 1.7 -5.7 1.85 -5.75 Q2.15 -5.95 2.25 -6.15 L2.2 -6.2 1.85 -6.1 1.8 -6.1 2.1 -7.1 Q2.15 -7.25 2.55 -7.5 L3.1 -7.8 3.2 -8.15 3.3 -8.55 3.25 -8.7 3.25 -8.75 Q3.1 -8.3 2.75 -8.1 2.65 -8.0 2.15 -7.85 1.8 -7.7 1.65 -7.5 1.45 -7.2 1.45 -6.6 1.45 -6.3 1.5 -6.0 L1.35 -6.0 Q0.85 -6.0 -1.35 -6.55 L-3.8 -7.15 -5.05 -7.15 -4.95 -7.35 -4.9 -7.25 -4.8 -7.5 Q-4.75 -7.6 -4.75 -7.7 L-4.75 -7.75 -4.3 -8.75 -3.9 -9.65 Q-4.1 -8.35 -4.1 -8.05 -4.2 -7.75 -4.1 -7.5 -3.85 -7.05 -2.8 -7.05 -1.8 -7.05 -1.6 -7.25 -1.45 -7.35 -1.45 -7.8 L-1.45 -8.05 Q-1.5 -8.3 -1.65 -8.3 -1.8 -8.3 -1.75 -8.25 L-1.85 -7.9 Q-1.9 -7.65 -2.1 -7.5 L-2.5 -7.5 Q-3.35 -7.5 -3.7 -7.75 L-3.5 -9.45 Q-3.25 -11.2 -3.25 -11.65 L-3.3 -11.75 -3.3 -11.8 -4.75 -11.85 -5.05 -11.8 -4.3 -12.95 Q-3.8 -13.65 -3.3 -14.15 L-3.3 -14.05 -3.25 -14.05 -3.25 -14.25 -2.75 -14.65 -2.55 -14.65 Q-1.75 -14.65 -1.5 -14.35 L-1.3 -14.1 Q-1.2 -14.0 -1.05 -14.0 L-0.9 -14.05 -0.85 -14.1 -0.85 -14.3 -0.6 -14.4 0.05 -14.45 Q0.65 -14.45 1.5 -13.75 L2.25 -13.05 Q2.3 -13.05 3.0 -13.4 3.65 -13.75 3.95 -13.75 L4.45 -13.65 4.7 -13.1 M1.95 -11.25 Q1.95 -11.65 0.45 -11.85 -1.05 -12.0 -1.35 -11.65 -1.6 -11.3 -1.6 -10.65 L-1.6 -10.6 -1.65 -10.4 Q-1.65 -10.0 -0.75 -9.0 0.05 -8.05 0.5 -7.75 L0.6 -7.8 Q0.15 -8.9 -0.7 -10.05 L-0.85 -10.2 0.7 -10.1 Q1.35 -10.1 1.7 -10.55 1.95 -10.85 1.95 -11.25 M2.1 -0.5 L2.4 -0.8 3.05 -1.5 Q2.65 -0.7 2.1 -0.5 M3.3 -5.1 Q3.4 -5.2 3.6 -5.2 L3.7 -5.1 Q3.6 -4.75 3.6 -4.25 L3.5 -2.95 Q3.45 -2.5 3.3 -2.0 L3.2 -1.8 3.2 -2.0 3.1 -3.15 Q3.1 -4.15 3.3 -5.1 M5.0 -5.7 Q5.05 -5.75 5.05 -5.9 5.05 -6.1 4.8 -6.25 4.5 -6.45 4.15 -6.15 L4.5 -5.85 4.85 -5.6 Q4.95 -5.6 5.0 -5.7 M4.5 -7.25 L4.5 -7.2 Q4.5 -6.85 4.95 -6.45 5.4 -6.05 5.4 -5.6 5.25 -5.05 5.15 -4.85 5.05 -4.8 4.95 -4.75 L4.4 -5.15 Q4.05 -5.4 3.8 -5.45 L3.8 -5.5 3.65 -5.5 3.4 -5.45 Q3.65 -6.6 4.1 -7.05 L4.5 -7.25 M-4.1 -5.05 L-3.3 -4.05 Q-2.45 -3.05 -2.3 -3.05 -2.15 -3.05 -2.05 -3.15 -2.0 -3.25 -2.0 -3.35 -2.0 -3.65 -2.9 -4.3 -3.4 -4.65 -4.1 -5.15 L-4.1 -5.05 M-4.25 -10.25 L-3.85 -10.3 Q-4.6 -8.95 -5.0 -8.1 L-5.05 -8.2 -5.4 -8.7 -5.25 -9.45 Q-5.1 -10.2 -5.1 -10.3 L-5.1 -10.35 Q-4.75 -10.25 -4.25 -10.25" fill="#c7a36d" fill-rule="evenodd" stroke="none"/>
  </g>
</svg>
