<?xml version="1.0" encoding="UTF-8" standalone="no"?>
<svg xmlns:ffdec="https://www.free-decompiler.com/flash" xmlns:xlink="http://www.w3.org/1999/xlink" ffdec:objectType="shape" height="19.65px" width="13.35px" xmlns="http://www.w3.org/2000/svg">
  <g transform="matrix(1.0, 0.0, 0.0, 1.0, 6.05, 17.05)">
    <path d="M1.65 -16.55 L0.3 -16.7 Q-1.2 -16.7 -2.25 -16.3 -3.0 -16.0 -3.5 -15.45 L-4.15 -14.75 -3.5 -14.75 -3.85 -14.55 -3.7 -14.55 -3.95 -14.5 -4.65 -14.15 Q-5.25 -13.75 -5.7 -13.0 L-5.4 -13.15 -4.65 -13.4 -4.6 -13.4 -4.55 -13.45 -4.2 -13.5 -4.05 -13.55 -3.5 -13.6 -3.25 -13.6 Q-2.4 -13.4 -1.4 -13.0 L-1.2 -12.9 Q-0.6 -12.7 -0.15 -12.5 L0.9 -11.9 Q1.5 -11.5 1.95 -11.3 2.25 -11.15 3.65 -10.5 L3.7 -10.4 4.8 -9.9 4.9 -9.85 5.95 -9.4 6.15 -9.35 Q6.4 -9.15 6.55 -9.15 L6.6 -9.1 6.75 -9.05 6.95 -9.0 6.95 -9.35 Q6.95 -9.45 6.85 -9.55 L6.8 -9.6 6.7 -9.65 Q6.55 -9.85 5.9 -10.15 L5.45 -10.35 4.9 -10.75 3.3 -12.05 Q2.7 -12.45 1.55 -13.35 0.45 -14.15 -0.9 -14.5 L-1.0 -14.6 Q1.4 -14.0 3.7 -12.25 L4.9 -11.25 6.15 -10.4 6.5 -10.15 Q6.4 -10.4 6.4 -10.8 L6.45 -11.8 Q6.45 -12.4 6.0 -13.25 5.5 -14.2 4.65 -14.95 3.35 -16.1 1.65 -16.55 M5.5 -14.6 Q6.85 -12.9 6.85 -10.7 L6.8 -10.2 7.0 -9.7 Q7.2 -9.4 7.2 -9.1 L7.2 -8.8 7.3 -8.8 7.25 -8.75 7.25 -8.7 7.15 -8.65 Q7.1 -8.55 6.95 -8.5 6.8 -8.35 6.6 -8.35 L6.55 -8.35 Q6.55 -7.75 6.25 -7.15 5.85 -6.15 5.0 -6.1 L4.65 -4.85 4.25 -3.55 Q4.35 -3.0 4.35 -2.4 4.35 -1.75 4.0 -1.1 3.55 -0.25 2.75 0.0 L2.7 0.0 2.65 0.05 2.6 0.0 Q2.6 -0.05 2.6 -0.15 L2.65 -0.4 Q2.5 -0.2 2.3 -0.1 L2.55 -0.4 2.35 -0.25 Q1.85 0.05 0.7 0.9 L-0.35 1.7 Q-0.45 1.7 -0.55 1.6 -0.8 1.55 -0.9 1.05 L-0.95 0.9 Q-1.4 2.0 -1.4 2.45 L-1.45 2.55 -1.5 2.6 -1.6 2.6 -1.6 2.5 Q-2.0 2.5 -2.75 1.65 L-3.05 1.25 -3.0 1.3 -3.05 1.4 -3.05 1.45 -3.15 1.45 Q-3.35 1.45 -4.0 0.5 L-4.6 -0.1 Q-5.7 -1.3 -5.7 -1.65 L-5.6 -1.9 -5.45 -2.15 -5.4 -2.2 -5.1 -2.65 -5.15 -2.65 -5.45 -3.0 Q-5.6 -3.25 -5.6 -3.35 L-5.6 -3.85 Q-5.6 -4.1 -5.5 -4.35 -5.4 -4.55 -5.3 -4.7 L-4.95 -5.0 -5.35 -5.6 Q-5.95 -6.55 -5.95 -6.8 -5.95 -7.0 -5.55 -8.05 L-5.1 -9.15 Q-5.3 -9.55 -5.55 -9.8 -5.65 -9.9 -5.65 -10.3 -5.65 -10.55 -5.2 -11.7 -5.45 -11.7 -5.65 -12.05 -5.8 -12.1 -5.9 -12.3 -6.05 -12.55 -6.05 -12.7 -6.05 -13.1 -5.65 -13.6 -5.35 -13.95 -4.9 -14.3 L-4.75 -14.45 Q-4.65 -15.15 -3.45 -16.0 -2.1 -17.05 -0.65 -17.05 0.3 -17.05 1.35 -16.8 L2.05 -16.65 2.1 -16.65 Q4.25 -16.15 5.5 -14.6 M6.55 -8.65 L6.6 -8.7 6.55 -8.7 6.55 -8.65 M6.55 -8.55 L6.55 -8.5 6.6 -8.5 6.55 -8.55 6.6 -8.55 6.55 -8.6 6.55 -8.55 M6.3 -8.75 L5.85 -8.85 5.45 -8.5 4.95 -8.05 Q4.95 -7.75 5.05 -7.65 5.15 -7.55 5.65 -7.45 L5.5 -7.3 Q5.4 -7.25 5.3 -7.25 4.85 -7.25 4.7 -7.5 4.65 -7.6 4.65 -7.75 L4.7 -8.05 4.75 -8.2 4.7 -8.2 Q4.7 -8.3 5.2 -8.75 5.35 -8.9 5.45 -9.0 L4.9 -9.2 4.85 -9.15 4.55 -8.75 Q4.5 -8.8 4.45 -8.8 L4.45 -9.1 4.3 -8.9 4.2 -8.6 4.05 -7.75 4.05 -6.0 Q4.2 -6.25 4.35 -6.35 L4.3 -6.4 4.3 -6.5 4.35 -6.55 4.5 -6.55 4.75 -6.5 4.9 -6.45 4.95 -6.45 5.0 -6.5 5.05 -6.5 5.05 -6.4 Q5.65 -6.4 6.05 -7.4 6.3 -8.1 6.3 -8.5 L6.3 -8.75 M1.65 -9.9 L1.65 -9.8 1.45 -9.8 Q1.4 -9.8 1.3 -9.8 L-0.35 -10.0 Q-1.45 -10.0 -1.85 -10.15 -2.15 -10.3 -2.15 -10.55 L-2.1 -11.0 -2.05 -11.2 -2.0 -11.3 -1.95 -11.25 -1.95 -11.45 -1.85 -11.45 -1.85 -11.3 -1.8 -11.3 -1.8 -11.55 -1.65 -11.55 -1.6 -11.2 Q-0.35 -11.15 0.65 -10.65 L1.35 -10.2 1.65 -9.95 1.65 -9.9 M-1.9 -9.4 L-1.3 -8.8 -1.0 -8.7 Q-0.7 -8.6 -0.6 -8.6 -0.15 -8.6 0.2 -8.8 L0.4 -8.95 0.6 -9.3 -0.25 -9.25 Q-0.45 -9.0 -0.55 -9.0 -0.85 -9.0 -0.95 -9.15 L-1.0 -9.25 -1.45 -9.3 Q-1.75 -9.35 -1.9 -9.45 L-1.85 -9.45 -1.9 -9.55 Q-1.9 -9.7 -1.9 -9.6 L-0.2 -9.65 0.3 -9.65 0.0 -9.6 -0.05 -9.6 Q0.15 -9.6 0.5 -9.6 L1.25 -9.6 Q1.3 -9.6 1.35 -9.65 1.4 -9.65 1.4 -9.55 L1.45 -9.5 1.4 -9.5 1.4 -9.45 1.2 -9.4 0.9 -9.35 Q0.9 -9.25 0.85 -9.15 0.8 -8.95 0.5 -8.65 0.15 -8.35 -0.15 -8.3 L-0.65 -8.3 -0.4 -8.05 0.9 -7.0 Q0.8 -6.9 0.6 -6.9 -0.3 -6.9 -1.15 -7.95 -1.8 -8.75 -2.0 -9.55 L-1.9 -9.4 M3.4 -10.05 L3.3 -9.6 Q3.25 -8.9 3.05 -7.55 L2.95 -6.2 2.95 -6.15 3.0 -5.9 Q3.0 -5.75 2.85 -5.5 L2.8 -5.15 2.7 -5.05 2.7 -5.2 2.65 -5.15 2.65 -5.0 2.6 -5.1 2.45 -4.85 Q1.85 -3.85 1.25 -3.85 1.4 -3.45 1.4 -3.0 1.4 -2.75 1.35 -2.5 L1.25 -2.5 1.25 -2.85 1.2 -2.2 1.1 -2.15 Q1.0 -3.5 0.7 -4.05 0.2 -5.1 -1.2 -5.55 L-1.25 -5.55 Q-1.75 -5.15 -2.25 -5.15 -2.65 -5.15 -2.95 -5.25 -3.15 -5.3 -3.35 -5.4 L-3.45 -5.45 Q-3.6 -5.1 -4.3 -4.7 -5.15 -4.2 -5.15 -4.05 -5.15 -3.7 -5.1 -3.35 L-4.95 -2.85 Q-4.35 -3.7 -3.95 -4.05 L-4.0 -3.9 -3.9 -4.0 -3.95 -4.05 Q-4.2 -4.3 -4.35 -4.6 L-4.35 -4.65 -4.3 -4.6 -4.3 -4.65 -4.25 -4.6 -4.25 -4.65 -4.2 -4.6 -4.2 -4.65 -3.75 -4.2 -3.05 -3.7 Q-2.95 -3.75 -2.6 -3.9 L-2.25 -4.05 Q-2.65 -4.35 -2.8 -4.65 L-2.75 -4.7 Q-1.55 -4.15 -0.95 -3.85 0.1 -3.35 0.35 -2.6 L-1.3 -3.45 Q-1.8 -3.7 -2.15 -4.0 L-2.55 -3.7 Q-2.7 -3.6 -2.85 -3.55 L-2.8 -3.55 -3.0 -3.5 -3.2 -3.5 Q-3.45 -3.5 -3.85 -3.9 L-3.85 -3.85 Q-3.85 -3.7 -4.6 -2.75 L-5.0 -2.25 Q-5.25 -1.85 -5.25 -1.75 -5.25 -1.7 -4.65 -0.8 L-4.1 -0.2 -3.5 0.6 -3.7 0.2 -4.2 -0.85 Q-4.5 -1.65 -4.5 -2.05 L-4.5 -2.15 -4.45 -2.1 Q-4.2 -1.7 -3.85 -1.0 L-3.3 0.15 Q-2.85 0.9 -2.1 1.65 L-1.8 1.95 Q-1.65 1.4 -1.05 0.3 -0.25 -1.1 0.05 -1.1 L0.0 -1.0 -0.75 0.55 Q-0.65 0.65 -0.6 0.9 -0.55 1.2 -0.4 1.3 L-0.35 1.25 Q0.05 0.75 0.75 0.35 1.4 -0.05 1.8 -0.3 L2.25 -0.65 2.7 -1.05 Q2.9 -1.4 3.05 -1.9 3.25 -2.5 3.45 -2.75 L3.5 -2.95 3.55 -2.95 3.55 -2.85 3.6 -2.9 Q3.65 -2.8 3.65 -2.6 3.65 -2.4 3.5 -1.95 3.35 -1.6 3.2 -1.25 L2.8 -0.6 2.85 -0.35 2.85 -0.25 3.5 -0.75 Q3.7 -0.9 3.7 -1.35 L3.85 -1.9 Q4.05 -2.45 4.05 -2.75 L4.05 -2.8 Q3.95 -2.35 3.75 -1.95 L4.0 -3.25 3.85 -4.35 Q3.6 -5.55 3.6 -6.5 3.6 -6.9 3.8 -7.75 L3.85 -8.15 3.85 -8.35 3.8 -8.5 Q3.8 -8.8 3.9 -9.0 4.0 -9.4 4.2 -9.55 3.85 -9.75 3.4 -10.05 M3.05 -9.85 L3.1 -10.2 1.8 -11.0 Q0.0 -12.05 -0.8 -12.5 L-1.35 -12.7 Q-3.1 -13.25 -3.4 -13.25 L-4.15 -13.2 Q-4.25 -13.0 -4.4 -12.7 L-4.45 -12.55 Q-4.5 -11.8 -4.85 -11.05 L-4.9 -10.95 Q-4.5 -11.1 -3.9 -11.05 L-3.5 -11.05 Q-3.45 -10.9 -3.4 -10.75 L-3.4 -10.9 Q-3.4 -11.55 -3.2 -11.6 L-3.15 -11.55 Q-3.1 -11.35 -3.05 -10.85 -3.0 -10.4 -3.0 -10.2 L-3.0 -9.3 Q-3.0 -9.05 -3.15 -7.85 L-3.25 -6.25 Q-3.25 -5.9 -3.15 -5.75 -3.05 -5.65 -2.85 -5.55 -2.25 -5.55 -1.8 -5.7 L-1.65 -5.7 Q-1.6 -5.8 -1.3 -5.9 L-0.9 -5.95 -0.85 -5.8 Q-0.9 -5.75 -1.05 -5.65 0.0 -5.65 0.65 -4.85 L0.65 -5.15 Q0.65 -5.4 1.2 -5.95 1.8 -6.5 2.1 -6.5 L2.15 -6.45 1.55 -5.55 Q1.15 -5.0 0.75 -4.75 L0.8 -4.75 Q1.0 -4.45 1.15 -4.15 1.85 -4.7 2.25 -5.15 L2.45 -5.4 2.6 -5.8 2.65 -6.0 2.7 -6.5 Q2.75 -7.3 2.8 -8.15 2.85 -8.65 2.95 -9.05 2.95 -9.55 3.05 -9.85 M4.7 -6.15 L4.6 -6.2 4.4 -5.85 4.25 -5.6 Q4.1 -5.3 4.1 -5.1 L4.05 -5.1 4.1 -4.7 Q4.2 -4.95 4.3 -5.3 L4.35 -5.4 Q4.55 -5.95 4.7 -6.15 M4.0 -5.85 L4.0 -5.7 4.05 -5.8 4.0 -5.85 M-1.9 -11.0 L-1.85 -11.0 -1.85 -11.05 -1.9 -11.0 M-4.75 -13.0 L-5.05 -12.8 Q-5.5 -12.45 -5.35 -12.25 L-5.2 -12.05 -5.1 -11.9 -4.85 -12.5 -4.8 -12.55 -4.6 -13.05 -4.75 -13.0 M-4.45 -13.0 L-4.35 -13.15 -4.45 -13.1 -4.45 -13.0 M-3.5 -10.05 L-4.4 -10.05 -5.3 -10.1 -5.1 -9.8 -4.95 -9.6 -4.5 -9.75 Q-4.0 -9.95 -3.7 -9.95 L-3.5 -9.9 -3.5 -10.05 M-3.95 -9.45 L-3.95 -9.45 M-3.7 -9.45 Q-3.7 -9.35 -3.75 -9.25 -3.85 -9.15 -4.1 -9.15 -4.2 -9.15 -4.3 -9.25 L-4.3 -9.4 -4.45 -9.35 Q-4.35 -9.25 -4.3 -9.05 -4.2 -8.75 -3.65 -8.75 L-3.6 -8.75 -3.55 -9.5 -3.7 -9.5 -3.7 -9.45 M-4.6 -9.35 L-4.75 -9.35 Q-4.8 -8.45 -5.15 -7.7 L-5.5 -6.8 Q-5.5 -6.6 -5.1 -6.05 -4.75 -5.55 -4.65 -5.15 -4.25 -5.35 -3.6 -5.6 L-3.6 -5.8 Q-3.7 -6.0 -3.7 -6.55 L-3.6 -8.55 -3.7 -8.5 Q-4.25 -8.5 -4.5 -8.85 -4.6 -9.0 -4.65 -9.15 L-4.6 -9.35 M-1.95 -7.55 Q-1.45 -8.15 -1.1 -7.7 -0.85 -7.35 -0.85 -6.9 L-0.85 -6.6 -0.9 -6.55 Q-0.95 -6.55 -1.0 -6.5 L-1.2 -7.1 Q-1.35 -7.45 -1.95 -7.45 L-1.95 -7.55 M-3.6 -5.55 L-3.65 -5.5 -3.55 -5.55 -3.6 -5.55 M-3.5 -2.9 Q-3.5 -3.35 -2.8 -2.85 -2.1 -2.35 -2.1 -2.05 L-2.15 -1.85 -2.15 -1.8 -2.25 -1.8 Q-2.7 -1.8 -3.15 -2.35 -3.35 -2.65 -3.5 -2.9 M-5.05 -2.7 L-5.05 -2.7" fill="#111111" fill-rule="evenodd" stroke="none"/>
    <path d="M1.65 -16.55 Q3.35 -16.1 4.65 -14.95 5.5 -14.2 6.0 -13.25 6.45 -12.4 6.45 -11.8 L6.4 -10.8 Q6.4 -10.4 6.5 -10.15 L6.15 -10.4 4.9 -11.25 3.7 -12.25 Q1.4 -14.0 -1.0 -14.6 L-0.9 -14.5 Q0.45 -14.15 1.55 -13.35 2.7 -12.45 3.3 -12.05 L4.9 -10.75 5.45 -10.35 5.9 -10.15 Q6.55 -9.85 6.7 -9.65 L6.8 -9.6 6.85 -9.55 Q6.95 -9.45 6.95 -9.35 L6.95 -9.0 6.75 -9.05 6.6 -9.1 6.55 -9.15 Q6.4 -9.15 6.15 -9.35 L5.95 -9.4 4.9 -9.85 4.8 -9.9 3.7 -10.4 3.65 -10.5 Q2.25 -11.15 1.95 -11.3 1.5 -11.5 0.9 -11.9 L-0.15 -12.5 Q-0.6 -12.7 -1.2 -12.9 L-1.4 -13.0 Q-2.4 -13.4 -3.25 -13.6 L-3.5 -13.6 -4.05 -13.55 -4.2 -13.5 -4.55 -13.45 -4.6 -13.4 -4.65 -13.4 -5.4 -13.15 -5.7 -13.0 Q-5.25 -13.75 -4.65 -14.15 L-3.95 -14.5 -3.7 -14.55 -3.85 -14.55 -3.5 -14.75 -4.15 -14.75 -3.5 -15.45 Q-3.0 -16.0 -2.25 -16.3 -1.2 -16.7 0.3 -16.7 L1.65 -16.55 M-4.45 -13.0 L-4.45 -13.1 -4.35 -13.15 -4.45 -13.0 M-4.75 -13.0 L-4.6 -13.05 -4.8 -12.55 -4.85 -12.5 -5.1 -11.9 -5.2 -12.05 -5.35 -12.25 Q-5.5 -12.45 -5.05 -12.8 L-4.75 -13.0" fill="#b00000" fill-rule="evenodd" stroke="none"/>
    <path d="M1.65 -9.9 L1.65 -9.95 1.35 -10.2 0.65 -10.65 Q-0.35 -11.15 -1.6 -11.2 L-1.65 -11.55 -1.8 -11.55 -1.8 -11.3 -1.85 -11.3 -1.85 -11.45 -1.95 -11.45 -1.95 -11.25 -2.0 -11.3 -2.05 -11.2 -2.1 -11.0 -2.15 -10.55 Q-2.15 -10.3 -1.85 -10.15 -1.45 -10.0 -0.35 -10.0 L1.3 -9.8 Q1.4 -9.8 1.45 -9.8 L1.65 -9.8 1.65 -9.9 M6.3 -8.75 L6.3 -8.5 Q6.3 -8.1 6.05 -7.4 5.65 -6.4 5.05 -6.4 L5.05 -6.5 5.0 -6.5 4.95 -6.45 4.9 -6.45 4.75 -6.5 4.5 -6.55 4.35 -6.55 4.3 -6.5 4.3 -6.4 4.35 -6.35 Q4.2 -6.25 4.05 -6.0 L4.05 -7.75 4.2 -8.6 4.3 -8.9 4.45 -9.1 4.45 -8.8 Q4.5 -8.8 4.55 -8.75 L4.85 -9.15 4.9 -9.2 5.45 -9.0 Q5.35 -8.9 5.2 -8.75 4.7 -8.3 4.7 -8.2 L4.75 -8.2 4.7 -8.05 4.65 -7.75 Q4.65 -7.6 4.7 -7.5 4.85 -7.25 5.3 -7.25 5.4 -7.25 5.5 -7.3 L5.65 -7.45 Q5.15 -7.55 5.05 -7.65 4.95 -7.75 4.95 -8.05 L5.45 -8.5 5.85 -8.85 6.3 -8.75 M-1.9 -9.4 L-2.0 -9.55 Q-1.8 -8.75 -1.15 -7.95 -0.3 -6.9 0.6 -6.9 0.8 -6.9 0.9 -7.0 L-0.4 -8.05 -0.65 -8.3 -0.15 -8.3 Q0.15 -8.35 0.5 -8.65 0.8 -8.95 0.85 -9.15 0.9 -9.25 0.9 -9.35 L1.2 -9.4 1.4 -9.45 1.4 -9.5 1.45 -9.5 1.4 -9.55 Q1.4 -9.65 1.35 -9.65 1.3 -9.6 1.25 -9.6 L0.5 -9.6 Q0.15 -9.6 -0.05 -9.6 L0.0 -9.6 0.3 -9.65 -0.2 -9.65 -1.9 -9.6 Q-1.9 -9.7 -1.9 -9.55 L-1.85 -9.45 -1.9 -9.45 -1.9 -9.4 M4.7 -6.15 Q4.55 -5.95 4.35 -5.4 L4.3 -5.3 Q4.2 -4.95 4.1 -4.7 L4.05 -5.1 4.1 -5.1 Q4.1 -5.3 4.25 -5.6 L4.4 -5.85 4.6 -6.2 4.7 -6.15 M3.05 -9.85 Q2.95 -9.55 2.95 -9.05 2.85 -8.65 2.8 -8.15 2.75 -7.3 2.7 -6.5 L2.65 -6.0 2.6 -5.8 2.45 -5.4 2.25 -5.15 Q1.85 -4.7 1.15 -4.15 1.0 -4.45 0.8 -4.75 L0.75 -4.75 Q1.15 -5.0 1.55 -5.55 L2.15 -6.45 2.1 -6.5 Q1.8 -6.5 1.2 -5.95 0.65 -5.4 0.65 -5.15 L0.65 -4.85 Q0.0 -5.65 -1.05 -5.65 -0.9 -5.75 -0.85 -5.8 L-0.9 -5.95 -1.3 -5.9 Q-1.6 -5.8 -1.65 -5.7 L-1.8 -5.7 Q-2.25 -5.55 -2.85 -5.55 -3.05 -5.65 -3.15 -5.75 -3.25 -5.9 -3.25 -6.25 L-3.15 -7.85 Q-3.0 -9.05 -3.0 -9.3 L-3.0 -10.2 Q-3.0 -10.4 -3.05 -10.85 -3.1 -11.35 -3.15 -11.55 L-3.2 -11.6 Q-3.4 -11.55 -3.4 -10.9 L-3.4 -10.75 Q-3.45 -10.9 -3.5 -11.05 L-3.9 -11.05 Q-4.5 -11.1 -4.9 -10.95 L-4.85 -11.05 Q-4.5 -11.8 -4.45 -12.55 L-4.4 -12.7 Q-4.25 -13.0 -4.15 -13.2 L-3.4 -13.25 Q-3.1 -13.25 -1.35 -12.7 L-0.8 -12.5 Q0.0 -12.05 1.8 -11.0 L3.1 -10.2 3.05 -9.85 M4.0 -5.85 L4.05 -5.8 4.0 -5.7 4.0 -5.85 M-3.5 -10.05 L-3.5 -9.9 -3.7 -9.95 Q-4.0 -9.95 -4.5 -9.75 L-4.95 -9.6 -5.1 -9.8 -5.3 -10.1 -4.4 -10.05 -3.5 -10.05 M-4.6 -9.35 L-4.65 -9.15 Q-4.6 -9.0 -4.5 -8.85 -4.25 -8.5 -3.7 -8.5 L-3.6 -8.55 -3.7 -6.55 Q-3.7 -6.0 -3.6 -5.8 L-3.6 -5.6 Q-4.25 -5.35 -4.65 -5.15 -4.75 -5.55 -5.1 -6.05 -5.5 -6.6 -5.5 -6.8 L-5.15 -7.7 Q-4.8 -8.45 -4.75 -9.35 L-4.6 -9.35 M-1.95 -7.55 L-1.95 -7.45 Q-1.35 -7.45 -1.2 -7.1 L-1.0 -6.5 Q-0.95 -6.55 -0.9 -6.55 L-0.85 -6.6 -0.85 -6.9 Q-0.85 -7.35 -1.1 -7.7 -1.45 -8.15 -1.95 -7.55" fill="#c7a36d" fill-rule="evenodd" stroke="none"/>
    <path d="M0.6 -9.3 L0.4 -8.95 0.2 -8.8 Q-0.15 -8.6 -0.6 -8.6 -0.7 -8.6 -1.0 -8.7 L-1.3 -8.8 -1.9 -9.4 -1.9 -9.45 Q-1.75 -9.35 -1.45 -9.3 L-1.0 -9.25 -0.95 -9.15 Q-0.85 -9.0 -0.55 -9.0 -0.45 -9.0 -0.25 -9.25 L0.6 -9.3 M-3.7 -9.45 L-3.7 -9.5 -3.55 -9.5 -3.6 -8.75 -3.65 -8.75 Q-4.2 -8.75 -4.3 -9.05 -4.35 -9.25 -4.45 -9.35 L-4.3 -9.4 -4.3 -9.25 Q-4.2 -9.15 -4.1 -9.15 -3.85 -9.15 -3.75 -9.25 -3.7 -9.35 -3.7 -9.45" fill="#ffffff" fill-rule="evenodd" stroke="none"/>
    <path d="M3.4 -10.05 Q3.85 -9.75 4.2 -9.55 4.0 -9.4 3.9 -9.0 3.8 -8.8 3.8 -8.5 L3.85 -8.35 3.85 -8.15 3.8 -7.75 Q3.6 -6.9 3.6 -6.5 3.6 -5.55 3.85 -4.35 L4.0 -3.25 3.75 -1.95 Q3.95 -2.35 4.05 -2.8 L4.05 -2.75 Q4.05 -2.45 3.85 -1.9 L3.7 -1.35 Q3.7 -0.9 3.5 -0.75 L2.85 -0.25 2.85 -0.35 2.8 -0.6 3.2 -1.25 Q3.35 -1.6 3.5 -1.95 3.65 -2.4 3.65 -2.6 3.65 -2.8 3.6 -2.9 L3.55 -2.85 3.55 -2.95 3.5 -2.95 3.45 -2.75 Q3.25 -2.5 3.05 -1.9 2.9 -1.4 2.7 -1.05 L2.25 -0.65 1.8 -0.3 Q1.4 -0.05 0.75 0.35 0.05 0.75 -0.35 1.25 L-0.4 1.3 Q-0.55 1.2 -0.6 0.9 -0.65 0.65 -0.75 0.55 L0.0 -1.0 0.05 -1.1 Q-0.25 -1.1 -1.05 0.3 -1.65 1.4 -1.8 1.95 L-2.1 1.65 Q-2.85 0.9 -3.3 0.15 L-3.85 -1.0 Q-4.2 -1.7 -4.45 -2.1 L-4.5 -2.15 -4.5 -2.05 Q-4.5 -1.65 -4.2 -0.85 L-3.7 0.2 -3.5 0.6 -4.1 -0.2 -4.65 -0.8 Q-5.25 -1.7 -5.25 -1.75 -5.25 -1.85 -5.0 -2.25 L-4.6 -2.75 Q-3.85 -3.7 -3.85 -3.85 L-3.85 -3.9 Q-3.45 -3.5 -3.2 -3.5 L-3.0 -3.5 -2.8 -3.55 -2.85 -3.55 Q-2.7 -3.6 -2.55 -3.7 L-2.15 -4.0 Q-1.8 -3.7 -1.3 -3.45 L0.35 -2.6 Q0.1 -3.35 -0.95 -3.85 -1.55 -4.15 -2.75 -4.7 L-2.8 -4.65 Q-2.65 -4.35 -2.25 -4.05 L-2.6 -3.9 Q-2.95 -3.75 -3.05 -3.7 L-3.75 -4.2 -4.2 -4.65 -4.2 -4.6 -4.25 -4.65 -4.25 -4.6 -4.3 -4.65 -4.3 -4.6 -4.35 -4.65 -4.35 -4.6 Q-4.2 -4.3 -3.95 -4.05 L-3.9 -4.0 -4.0 -3.9 -3.95 -4.05 Q-4.35 -3.7 -4.95 -2.85 L-5.1 -3.35 Q-5.15 -3.7 -5.15 -4.05 -5.15 -4.2 -4.3 -4.7 -3.6 -5.1 -3.45 -5.45 L-3.35 -5.4 Q-3.15 -5.3 -2.95 -5.25 -2.65 -5.15 -2.25 -5.15 -1.75 -5.15 -1.25 -5.55 L-1.2 -5.55 Q0.2 -5.1 0.7 -4.05 1.0 -3.5 1.1 -2.15 L1.2 -2.2 1.25 -2.85 1.25 -2.5 1.35 -2.5 Q1.4 -2.75 1.4 -3.0 1.4 -3.45 1.25 -3.85 1.85 -3.85 2.45 -4.85 L2.6 -5.1 2.65 -5.0 2.65 -5.15 2.7 -5.2 2.7 -5.05 2.8 -5.15 2.85 -5.5 Q3.0 -5.75 3.0 -5.9 L2.95 -6.15 2.95 -6.2 3.05 -7.55 Q3.25 -8.9 3.3 -9.6 L3.4 -10.05 M-3.5 -2.9 Q-3.35 -2.65 -3.15 -2.35 -2.7 -1.8 -2.25 -1.8 L-2.15 -1.8 -2.15 -1.85 -2.1 -2.05 Q-2.1 -2.35 -2.8 -2.85 -3.5 -3.35 -3.5 -2.9" fill="#003060" fill-rule="evenodd" stroke="none"/>
  </g>
</svg>
