<?xml version="1.0" encoding="UTF-8" standalone="no"?>
<svg xmlns:ffdec="https://www.free-decompiler.com/flash" xmlns:xlink="http://www.w3.org/1999/xlink" ffdec:objectType="shape" height="17.85px" width="15.55px" xmlns="http://www.w3.org/2000/svg">
  <g transform="matrix(1.0, 0.0, 0.0, 1.0, 9.25, 17.6)">
    <path d="M3.5 -14.3 L2.55 -2.25 2.45 -1.6 Q2.45 -0.95 2.0 -0.6 1.55 -0.25 0.75 -0.1 L0.45 -0.05 Q-0.35 0.2 -0.6 0.15 -0.7 0.1 -0.7 0.05 -1.45 0.0 -1.9 -0.4 -2.05 -0.45 -2.15 -0.65 L-2.3 -0.9 Q-2.5 -1.3 -2.5 -2.0 L3.5 -14.3 M1.75 -12.95 L1.95 -4.7 Q1.45 -3.95 0.95 -3.75 L0.35 -0.4 0.55 -0.4 Q1.55 -0.65 2.0 -1.4 2.15 -1.75 2.25 -2.2 L1.75 -12.95 M-2.6 -9.55 L-2.4 -8.85 -2.6 -9.55 M-5.1 -8.85 L-4.45 -9.5 -5.1 -8.85 M-0.7 0.05 L-0.7 0.05" fill="#121212" fill-rule="evenodd" stroke="none"/>
    <path d="M-2.4 -8.85 L-2.6 -9.55 -2.4 -8.85 M-4.45 -9.5 L-5.1 -8.85 -4.45 -9.5" fill="#ffffff" fill-rule="evenodd" stroke="none"/>
    <path d="M1.75 -12.95 L2.25 -2.2 Q2.15 -1.75 2.0 -1.4 1.55 -0.65 0.55 -0.4 L0.35 -0.4 0.95 -3.75 Q1.45 -3.95 1.95 -4.7 L1.75 -12.95 M-2.4 -8.85 L-2.6 -9.55 -2.4 -8.85 M-4.45 -9.5 L-5.1 -8.85 -4.45 -9.5" fill="#c7a36d" fill-rule="evenodd" stroke="none"/>
    <path d="M-6.65 -11.2 L2.7 -4.85 Q2.7 -3.25 3.45 -2.15 3.45 -2.35 3.45 -2.55 L-2.25 -2.7 -7.25 -1.85 -7.4 -1.9 -7.5 -2.0 -7.5 -2.05 -7.35 -2.2 -6.9 -2.7 4.75 -2.8 4.75 -2.55 4.8 -2.4 4.75 -2.3 Q4.8 -2.3 4.65 -2.3 4.3 -2.3 3.85 -3.0 L3.65 -2.55 Q3.7 -2.2 3.7 -1.85 L3.7 -1.55 3.65 -1.55 Q3.45 -1.55 3.1 -2.1 L2.3 -1.8 Q2.2 -1.0 1.9 -0.4 L1.9 -0.15 Q1.9 -0.1 1.75 -0.1 L1.65 -0.1 1.65 -0.25 1.7 -0.75 1.75 -0.95 Q1.55 -1.9 1.25 -4.2 L-1.9 -10.2 -1.15 -8.4 0.85 -0.8 Q0.55 -0.05 0.4 0.25 0.35 0.25 0.35 0.1 L0.45 -0.25 0.45 -0.35 -4.15 -14.25 -4.85 -13.65 -6.65 -11.2" fill="#111111" fill-rule="evenodd" stroke="none"/>
    <path d="M-2.25 -2.7 L3.45 -2.55 Q3.45 -2.35 3.45 -2.15 2.7 -3.25 2.7 -4.85 L-6.65 -11.2 -2.25 -2.7 M-4.85 -13.65 L-4.15 -14.25 -4.85 -13.65" fill="#003060" fill-rule="evenodd" stroke="none"/>
    <path d="M-1.15 -8.4 L-1.9 -10.2 -1.15 -8.4" fill="#ffffff" fill-rule="evenodd" stroke="none"/>
    <path d="M0.65 -17.4 L0.85 -17.35 1.2 -17.2 Q1.45 -17.2 1.9 -16.95 2.75 -16.55 3.5 -15.9 L3.55 -15.9 3.85 -15.65 4.0 -15.5 4.15 -15.3 4.75 -14.6 4.8 -14.6 5.25 -13.85 5.35 -13.6 Q5.65 -13.05 5.75 -12.7 5.85 -12.45 5.95 -12.1 L6.2 -11.05 6.25 -10.15 6.3 -9.85 6.3 -8.65 Q6.25 -7.55 5.8 -4.15 L5.7 -3.5 5.65 -3.35 5.55 -3.25 5.55 -3.3 Q5.5 -2.95 3.85 -2.35 L3.55 -2.25 3.05 -2.05 Q2.9 -1.9 2.35 -1.8 L1.8 -1.35 1.75 -1.25 1.5 -1.1 1.25 -0.85 Q0.55 -0.3 -0.45 0.0 -0.75 0.1 -0.9 0.1 L-1.3 0.1 Q-1.6 0.1 -1.85 -0.35 -2.0 -0.6 -2.15 -1.05 L-2.25 -1.55 -2.3 -1.5 Q-2.3 -1.4 -3.2 -1.2 L-4.1 -1.05 -5.25 -1.05 Q-5.55 -1.1 -6.25 -1.35 -6.85 -1.5 -7.0 -1.65 -7.3 -1.75 -7.35 -1.85 L-7.4 -1.85 -7.25 -2.2 -7.2 -2.35 -7.05 -2.7 Q-6.95 -3.15 -6.95 -3.4 -6.95 -3.75 -7.0 -3.95 -7.05 -4.15 -7.2 -4.5 L-7.3 -4.65 -7.55 -5.2 -7.95 -5.9 -8.2 -6.35 -8.2 -6.4 Q-8.75 -7.35 -9.05 -8.35 L-9.15 -8.75 Q-9.25 -9.2 -9.25 -9.6 -9.25 -11.15 -8.3 -13.05 -7.7 -14.3 -6.85 -15.25 -6.4 -15.65 -5.9 -16.1 -5.35 -16.55 -4.2 -17.15 L-3.75 -17.3 -1.8 -17.6 -0.55 -17.6 0.3 -17.5 0.65 -17.4 M-0.4 -1.85 Q-0.2 -2.05 -0.05 -2.8 L0.0 -2.85 Q0.0 -2.9 0.0 -3.05 0.1 -3.8 0.1 -4.35 L0.2 -5.3 0.25 -5.85 0.25 -6.05 0.2 -6.1 0.25 -6.8 0.15 -8.5 0.25 -8.0 Q0.4 -6.9 0.4 -5.85 L0.4 -5.2 Q0.4 -4.6 0.35 -4.0 L0.35 -3.9 0.3 -3.8 0.05 -2.2 -0.05 -1.85 0.65 -1.85 Q1.1 -1.9 1.65 -2.05 L1.7 -2.05 2.25 -2.25 2.55 -2.3 Q3.0 -2.5 3.35 -2.65 3.5 -2.7 3.65 -2.75 3.8 -2.8 4.15 -3.0 4.45 -3.15 4.75 -3.4 L4.95 -3.5 Q5.25 -3.65 5.35 -3.95 L5.4 -4.3 Q5.5 -4.65 5.6 -5.3 5.7 -5.95 5.75 -6.5 L5.8 -7.3 5.8 -7.9 Q5.8 -8.0 5.8 -8.2 L5.85 -8.65 5.85 -9.35 5.7 -10.6 5.7 -10.75 5.5 -11.6 5.45 -11.8 5.25 -12.35 5.25 -12.4 Q4.95 -13.75 4.3 -14.45 4.1 -14.7 3.85 -14.9 L3.8 -14.95 Q3.1 -15.75 2.2 -16.25 0.75 -17.05 -1.55 -17.15 L-3.6 -16.95 Q-4.05 -16.8 -4.45 -16.6 -5.2 -16.3 -5.65 -15.95 -6.7 -15.1 -7.5 -13.85 -8.7 -11.85 -8.8 -9.85 L-8.85 -9.2 -8.8 -8.7 Q-8.65 -8.1 -8.45 -7.5 L-7.95 -6.4 -7.75 -6.0 -7.55 -5.7 -6.7 -4.2 -6.6 -3.85 -6.55 -3.7 -6.55 -3.45 -6.6 -3.4 -6.9 -2.05 -6.8 -1.9 -6.3 -1.75 -5.9 -1.65 -4.15 -1.5 Q-3.55 -1.5 -2.95 -1.7 -2.55 -1.85 -2.4 -1.95 L-2.5 -2.2 -3.15 -2.2 Q-3.2 -2.15 -3.25 -2.15 -3.75 -2.15 -4.95 -3.25 -5.7 -3.95 -5.95 -4.25 -6.1 -4.35 -6.35 -4.9 -6.65 -5.5 -6.8 -5.95 -7.05 -6.9 -7.05 -7.65 -7.05 -7.95 -6.95 -8.95 L-6.85 -9.7 -6.85 -10.75 -6.9 -10.85 -7.1 -10.45 -7.35 -9.9 Q-7.5 -9.35 -7.7 -8.55 L-7.6 -9.3 Q-7.3 -10.65 -6.6 -11.75 -5.7 -13.25 -4.25 -14.35 L-3.65 -14.75 -3.7 -14.1 -3.7 -14.05 -3.8 -13.75 Q-3.85 -13.4 -3.85 -12.5 L-3.85 -11.9 Q-3.85 -11.55 -3.85 -11.35 L-3.8 -11.3 Q-3.8 -10.9 -3.7 -10.65 L-3.65 -10.55 -3.55 -10.0 -3.5 -9.9 -3.5 -9.85 -3.45 -9.85 Q-3.3 -8.95 -2.5 -7.7 L-2.4 -7.45 -2.35 -7.4 Q-2.0 -6.7 -1.65 -5.95 -1.55 -5.7 -1.45 -5.25 -1.2 -4.55 -1.2 -3.7 L-1.2 -2.85 Q-1.25 -2.4 -1.35 -2.2 L-1.3 -2.15 -1.2 -2.1 -0.4 -1.85 M1.4 -1.5 L1.0 -1.45 0.05 -1.45 Q-0.3 -1.45 -0.9 -1.65 -1.5 -1.85 -1.65 -1.95 L-1.75 -2.05 -1.65 -2.45 -2.15 -2.3 -2.15 -2.25 -1.9 -1.45 -1.7 -0.85 -1.45 -0.45 -1.4 -0.4 -1.1 -0.25 -0.95 -0.25 -0.7 -0.35 Q0.2 -0.7 0.45 -0.85 L1.1 -1.3 1.55 -1.55 1.45 -1.55 1.4 -1.5 M5.2 -3.5 L5.2 -3.5 M-6.0 -8.2 L-6.0 -8.1 -6.05 -8.1 -6.2 -8.15 -6.4 -8.3 -6.4 -8.35 -6.65 -8.55 -6.75 -8.9 -6.75 -8.8 -6.8 -8.6 -6.8 -8.4 -6.9 -7.65 Q-6.9 -6.9 -6.6 -5.95 -6.4 -5.5 -6.2 -5.05 L-6.15 -5.0 Q-5.75 -4.3 -5.05 -3.65 -4.35 -2.85 -3.8 -2.6 L-3.65 -2.45 -3.55 -2.4 -3.1 -2.4 -3.0 -2.45 Q-2.55 -2.45 -1.6 -2.75 -1.5 -3.45 -1.5 -3.85 -1.5 -4.6 -1.75 -5.35 -1.9 -5.25 -2.1 -5.15 L-2.25 -5.05 -2.65 -4.95 -2.95 -4.85 -3.55 -4.85 -4.55 -4.95 -4.7 -4.95 -4.95 -5.0 -5.05 -5.05 Q-5.4 -5.1 -5.55 -5.2 L-5.55 -5.25 -5.6 -5.4 -5.45 -5.6 -5.45 -5.7 -5.4 -5.7 -5.45 -5.55 -5.4 -5.3 -5.0 -5.2 -4.75 -5.15 -3.2 -5.1 Q-2.55 -5.1 -1.85 -5.55 L-2.0 -5.9 -2.5 -7.0 -2.9 -7.65 -2.9 -7.7 Q-3.1 -7.95 -3.3 -8.45 -3.55 -9.1 -3.7 -9.65 -3.85 -10.1 -3.95 -10.6 -4.1 -11.2 -4.1 -11.7 L-4.15 -12.25 -4.15 -12.6 Q-4.15 -13.1 -4.05 -13.6 -4.0 -14.05 -3.9 -14.25 L-4.15 -14.1 -4.5 -13.75 Q-5.45 -12.9 -5.85 -12.35 -6.55 -11.4 -6.6 -11.15 L-6.55 -11.15 -6.6 -10.9 -6.6 -10.75 -6.65 -10.45 -6.7 -9.8 Q-6.45 -10.35 -5.7 -10.05 L-5.55 -9.95 -5.35 -9.8 Q-5.0 -9.55 -4.8 -9.25 L-4.65 -8.75 -4.65 -8.55 -4.75 -8.35 -4.95 -8.1 Q-5.2 -7.9 -5.7 -7.75 L-5.7 -7.8 -5.35 -8.05 -5.25 -8.1 Q-5.0 -8.35 -4.9 -8.55 L-4.85 -8.65 -4.85 -8.75 -4.85 -8.8 -5.05 -9.05 Q-5.35 -9.55 -5.7 -9.55 L-6.0 -9.5 -5.9 -9.5 Q-5.45 -9.5 -5.45 -8.9 -5.45 -8.75 -5.5 -8.6 -5.6 -8.3 -5.85 -8.3 -6.2 -8.3 -6.3 -8.6 L-6.35 -8.75 -6.4 -8.75 -6.3 -8.5 -6.15 -8.3 -6.0 -8.2 M-5.65 -10.7 L-5.55 -10.6 -5.2 -10.35 -4.8 -9.9 -4.7 -9.65 -4.8 -9.7 Q-4.85 -9.85 -5.45 -10.3 L-5.7 -10.45 -5.8 -10.6 -6.05 -10.7 -6.1 -10.7 -6.3 -10.8 -6.35 -10.85 -6.2 -10.85 -6.0 -10.8 -5.65 -10.7 M-5.15 -7.15 Q-5.15 -6.95 -5.0 -6.9 L-4.95 -6.85 -4.2 -6.8 -3.85 -6.85 -3.85 -6.75 -4.05 -6.65 -4.4 -6.7 Q-5.3 -6.7 -5.3 -7.05 L-5.25 -7.2 Q-5.25 -7.35 -5.1 -7.5 -4.95 -7.7 -4.75 -7.8 L-4.7 -7.8 -4.7 -7.75 -4.75 -7.7 -5.0 -7.4 -5.15 -7.15 M-6.7 -11.15 L-6.7 -11.2 -6.75 -11.15 -6.7 -11.15 M-4.7 -4.6 L-4.45 -4.55 -4.35 -4.45 -4.25 -4.45 -4.0 -4.35 -3.8 -4.35 -3.7 -4.3 -3.85 -4.25 -3.85 -4.2 Q-4.15 -4.2 -4.35 -4.3 -4.5 -4.35 -4.5 -4.45 L-4.55 -4.45 -4.7 -4.6" fill="#000000" fill-rule="evenodd" stroke="none"/>
    <path d="M-0.4 -1.85 L-1.2 -2.1 -1.3 -2.15 -1.35 -2.2 Q-1.25 -2.4 -1.2 -2.85 L-1.2 -3.7 Q-1.2 -4.55 -1.45 -5.25 -1.55 -5.7 -1.65 -5.95 -2.0 -6.7 -2.35 -7.4 L-2.4 -7.45 -2.5 -7.7 Q-3.3 -8.95 -3.45 -9.85 L-3.5 -9.85 -3.5 -9.9 -3.55 -10.0 -3.65 -10.55 -3.7 -10.65 Q-3.8 -10.9 -3.8 -11.3 L-3.85 -11.35 Q-3.85 -11.55 -3.85 -11.9 L-3.85 -12.5 Q-3.85 -13.4 -3.8 -13.75 L-3.7 -14.05 -3.7 -14.1 -3.65 -14.75 -4.25 -14.35 Q-5.7 -13.25 -6.6 -11.75 -7.3 -10.65 -7.6 -9.3 L-7.7 -8.55 Q-7.5 -9.35 -7.35 -9.9 L-7.1 -10.45 -6.9 -10.85 -6.85 -10.75 -6.85 -9.7 -6.95 -8.95 Q-7.05 -7.95 -7.05 -7.65 -7.05 -6.9 -6.8 -5.95 -6.65 -5.5 -6.35 -4.9 -6.1 -4.35 -5.95 -4.25 -5.7 -3.95 -4.95 -3.25 -3.75 -2.15 -3.25 -2.15 -3.2 -2.15 -3.15 -2.2 L-2.5 -2.2 -2.4 -1.95 Q-2.55 -1.85 -2.95 -1.7 -3.55 -1.5 -4.15 -1.5 L-5.9 -1.65 -6.3 -1.75 -6.8 -1.9 -6.9 -2.05 -6.6 -3.4 -6.55 -3.45 -6.55 -3.7 -6.6 -3.85 -6.7 -4.2 -7.55 -5.7 -7.75 -6.0 -7.95 -6.4 -8.45 -7.5 Q-8.65 -8.1 -8.8 -8.7 L-8.85 -9.2 -8.8 -9.85 Q-8.7 -11.85 -7.5 -13.85 -6.7 -15.1 -5.65 -15.95 -5.2 -16.3 -4.45 -16.6 -4.05 -16.8 -3.6 -16.95 L-1.55 -17.15 Q0.75 -17.05 2.2 -16.25 3.1 -15.75 3.8 -14.95 L3.85 -14.9 Q4.1 -14.7 4.3 -14.45 4.95 -13.75 5.25 -12.4 L5.25 -12.35 5.45 -11.8 5.5 -11.6 5.7 -10.75 5.7 -10.6 5.85 -9.35 5.85 -8.65 5.8 -8.2 Q5.8 -8.0 5.8 -7.9 L5.8 -7.3 5.75 -6.5 Q5.7 -5.95 5.6 -5.3 5.5 -4.65 5.4 -4.3 L5.35 -3.95 Q5.25 -3.65 4.95 -3.5 L4.75 -3.4 Q4.45 -3.15 4.15 -3.0 3.8 -2.8 3.65 -2.75 3.5 -2.7 3.35 -2.65 3.0 -2.5 2.55 -2.3 L2.25 -2.25 1.7 -2.05 1.65 -2.05 Q1.1 -1.9 0.65 -1.85 L-0.05 -1.85 0.05 -2.2 0.3 -3.8 0.35 -3.9 0.35 -4.0 Q0.4 -4.6 0.4 -5.2 L0.4 -5.85 Q0.4 -6.9 0.25 -8.0 L0.15 -8.5 0.25 -6.8 0.2 -6.1 0.25 -6.05 0.25 -5.85 0.2 -5.3 0.1 -4.35 Q0.1 -3.8 0.0 -3.05 0.0 -2.9 0.0 -2.85 L-0.05 -2.8 Q-0.2 -2.05 -0.4 -1.85" fill="#003060" fill-rule="evenodd" stroke="none"/>
    <path d="M1.4 -1.5 L1.45 -1.55 1.55 -1.55 1.1 -1.3 0.45 -0.85 Q0.2 -0.7 -0.7 -0.35 L-0.95 -0.25 -1.1 -0.25 -1.4 -0.4 -1.45 -0.45 -1.7 -0.85 -1.9 -1.45 -2.15 -2.25 -2.15 -2.3 -1.65 -2.45 -1.75 -2.05 -1.65 -1.95 Q-1.5 -1.85 -0.9 -1.65 -0.3 -1.45 0.05 -1.45 L1.0 -1.45 1.4 -1.5 M-5.35 -8.05 L-5.7 -7.8 -5.7 -7.75 Q-5.2 -7.9 -4.95 -8.1 L-4.75 -8.35 -4.65 -8.55 -4.65 -8.75 -4.8 -9.25 Q-5.0 -9.55 -5.35 -9.8 L-5.55 -9.95 -5.7 -10.05 Q-6.45 -10.35 -6.7 -9.8 L-6.65 -10.45 -6.6 -10.75 -6.6 -10.9 -6.55 -11.15 -6.6 -11.15 Q-6.55 -11.4 -5.85 -12.35 -5.45 -12.9 -4.5 -13.75 L-4.15 -14.1 -3.9 -14.25 Q-4.0 -14.05 -4.05 -13.6 -4.15 -13.1 -4.15 -12.6 L-4.15 -12.25 -4.1 -11.7 Q-4.1 -11.2 -3.95 -10.6 -3.85 -10.1 -3.7 -9.65 -3.55 -9.1 -3.3 -8.45 -3.1 -7.95 -2.9 -7.7 L-2.9 -7.65 -2.5 -7.0 -2.0 -5.9 -1.85 -5.55 Q-2.55 -5.1 -3.2 -5.1 L-4.75 -5.15 -5.0 -5.2 -5.4 -5.3 -5.45 -5.55 -5.4 -5.7 -5.45 -5.7 -5.45 -5.6 -5.6 -5.4 -5.55 -5.25 -5.55 -5.2 Q-5.4 -5.1 -5.05 -5.05 L-4.95 -5.0 -4.7 -4.95 -4.55 -4.95 -3.55 -4.85 -2.95 -4.85 -2.65 -4.95 -2.25 -5.05 -2.1 -5.15 Q-1.9 -5.25 -1.75 -5.35 -1.5 -4.6 -1.5 -3.85 -1.5 -3.45 -1.6 -2.75 -2.55 -2.45 -3.0 -2.45 L-3.1 -2.4 -3.55 -2.4 -3.65 -2.45 -3.8 -2.6 Q-4.35 -2.85 -5.05 -3.65 -5.75 -4.3 -6.15 -5.0 L-6.2 -5.05 Q-6.4 -5.5 -6.6 -5.95 -6.9 -6.9 -6.9 -7.65 L-6.8 -8.4 -6.8 -8.6 -6.75 -8.8 -6.75 -8.9 -6.65 -8.55 -6.4 -8.35 -6.4 -8.3 -6.2 -8.15 -6.05 -8.1 -6.0 -8.1 -6.0 -8.2 Q-5.9 -8.1 -5.75 -8.05 L-5.35 -8.05 M-4.85 -8.8 L-4.85 -8.75 -4.85 -8.8 M-5.65 -10.7 L-6.0 -10.8 -6.2 -10.85 -6.35 -10.85 -6.3 -10.8 -6.1 -10.7 -6.05 -10.7 -5.8 -10.6 -5.7 -10.45 -5.45 -10.3 Q-4.85 -9.85 -4.8 -9.7 L-4.7 -9.65 -4.8 -9.9 -5.2 -10.35 -5.55 -10.6 -5.65 -10.7 M-4.7 -4.6 L-4.55 -4.45 -4.5 -4.45 Q-4.5 -4.35 -4.35 -4.3 -4.15 -4.2 -3.85 -4.2 L-3.85 -4.25 -3.7 -4.3 -3.8 -4.35 -4.0 -4.35 -4.25 -4.45 -4.35 -4.45 -4.45 -4.55 -4.7 -4.6 M-6.7 -11.15 L-6.75 -11.15 -6.7 -11.2 -6.7 -11.15 M-5.15 -7.15 L-5.0 -7.4 -4.75 -7.7 -4.7 -7.75 -4.7 -7.8 -4.75 -7.8 Q-4.95 -7.7 -5.1 -7.5 -5.25 -7.35 -5.25 -7.2 L-5.3 -7.05 Q-5.3 -6.7 -4.4 -6.7 L-4.05 -6.65 -3.85 -6.75 -3.85 -6.85 -4.2 -6.8 -4.95 -6.85 -5.0 -6.9 Q-5.15 -6.95 -5.15 -7.15" fill="#c7a36d" fill-rule="evenodd" stroke="none"/>
    <path d="M-5.35 -8.05 L-5.75 -8.05 Q-5.9 -8.1 -6.0 -8.2 L-6.15 -8.3 -6.3 -8.5 -6.4 -8.75 -6.35 -8.75 -6.3 -8.6 Q-6.2 -8.3 -5.85 -8.3 -5.6 -8.3 -5.5 -8.6 -5.45 -8.75 -5.45 -8.9 -5.45 -9.5 -5.9 -9.5 L-6.0 -9.5 -5.7 -9.55 Q-5.35 -9.55 -5.05 -9.05 L-4.85 -8.8 -4.85 -8.75 -4.85 -8.65 -4.9 -8.55 Q-5.0 -8.35 -5.25 -8.1 L-5.35 -8.05" fill="#ffffff" fill-rule="evenodd" stroke="none"/>
  </g>
</svg>
