<?xml version="1.0" encoding="UTF-8" standalone="no"?>
<svg xmlns:ffdec="https://www.free-decompiler.com/flash" xmlns:xlink="http://www.w3.org/1999/xlink" ffdec:objectType="shape" height="16.85px" width="17.4px" xmlns="http://www.w3.org/2000/svg">
  <g transform="matrix(1.0, 0.0, 0.0, 1.0, 9.85, 17.15)">
    <path d="M3.95 -14.4 L3.75 -5.4 Q3.4 -3.85 3.4 -3.0 3.4 -1.85 3.2 -1.45 2.75 -0.35 1.15 -0.35 L0.95 -0.35 0.5 -0.3 Q-0.1 -0.3 -0.7 -0.6 L-0.8 -0.55 Q-0.95 -0.55 -1.1 -0.75 L-1.15 -0.8 -1.1 -0.85 -1.2 -1.05 -2.0 -0.95 Q-3.0 -0.95 -3.35 -1.1 -3.5 -1.15 -3.55 -1.2 L-3.8 -1.35 -3.95 -1.45 Q-4.2 -1.6 -4.4 -1.8 -4.5 -2.05 -5.3 -3.1 -6.25 -4.45 -6.25 -5.85 L-6.2 -6.2 Q-6.2 -6.45 -6.2 -6.55 L-6.25 -6.55 -6.15 -6.9 -6.15 -7.0 -6.05 -7.85 -5.7 -11.0 -5.05 -13.8 3.95 -14.4 M0.2 -12.45 L-0.2 -12.15 Q-0.85 -11.85 -1.55 -11.25 L-1.65 -11.4 Q-1.65 -11.75 -1.3 -12.1 -0.8 -12.55 0.2 -12.45 M0.3 -10.0 Q-0.15 -10.25 -0.9 -10.15 -1.6 -10.0 -1.6 -9.8 L-1.55 -9.75 -1.6 -9.65 -1.5 -9.7 Q-1.25 -9.85 -0.4 -9.95 0.2 -9.95 0.5 -9.85 L0.3 -10.0 M-1.8 -9.0 L-1.8 -8.95 -1.85 -8.95 -1.9 -8.9 Q-2.1 -9.05 -2.1 -9.15 -2.1 -9.45 -2.1 -9.6 L-2.05 -9.6 -2.05 -9.7 -2.1 -9.85 Q-2.1 -10.2 -1.55 -10.65 -0.9 -11.25 -0.15 -10.85 L-0.1 -10.8 -0.85 -10.5 -0.55 -10.5 Q0.8 -10.6 1.45 -9.35 L1.4 -9.2 1.4 -9.15 0.7 -8.8 0.65 -8.75 Q0.2 -8.3 -0.35 -8.3 L-0.6 -8.3 -0.65 -8.35 -0.7 -8.35 -1.25 -8.4 Q-1.35 -8.4 -1.45 -8.55 L-1.25 -8.6 -1.0 -8.6 Q-0.25 -8.6 0.25 -8.95 L0.85 -9.45 0.6 -9.55 Q0.15 -9.75 -0.3 -9.75 L-0.75 -9.7 -0.8 -9.05 Q-0.95 -8.8 -1.2 -8.8 -1.35 -8.8 -1.45 -9.1 L-1.5 -9.45 -1.55 -9.45 -1.75 -9.3 -1.75 -9.25 -1.8 -9.25 -1.75 -9.15 -1.8 -9.0 M-3.95 -8.75 Q-3.9 -8.75 -3.9 -8.65 -3.9 -8.55 -4.05 -8.45 -4.2 -8.4 -4.45 -8.4 -4.75 -8.4 -4.9 -8.55 -5.1 -8.6 -5.2 -8.85 -5.3 -9.0 -5.35 -9.2 L-5.3 -9.45 -5.4 -9.35 -5.45 -9.35 -5.45 -9.3 -5.6 -8.3 -5.65 -7.85 -5.6 -7.75 -5.6 -7.3 Q-5.6 -7.2 -5.75 -6.5 -5.85 -5.85 -5.8 -5.25 L-5.8 -5.15 -5.65 -4.6 -5.7 -4.55 -5.7 -4.5 Q-5.65 -4.25 -5.1 -3.45 L-4.95 -3.25 -4.85 -3.15 Q-4.6 -2.9 -4.2 -2.4 L-3.8 -1.8 -3.75 -1.75 -3.45 -1.6 -3.35 -1.6 Q-2.95 -1.45 -2.45 -1.4 L-1.3 -1.45 Q-0.15 -1.8 1.2 -2.95 2.2 -3.75 3.0 -4.7 3.0 -4.55 2.6 -4.0 2.15 -3.35 1.55 -2.75 0.6 -1.75 -0.35 -1.35 L-0.3 -1.3 -0.4 -1.2 -0.35 -1.15 -0.1 -0.85 0.0 -0.85 Q0.4 -0.7 0.65 -0.65 L1.0 -0.65 1.4 -0.7 Q2.3 -0.9 2.85 -1.6 L2.95 -1.85 Q3.0 -2.15 3.0 -2.9 3.0 -3.55 3.05 -3.85 L3.2 -4.65 3.8 -6.65 0.8 -14.0 -2.6 -13.85 Q-4.6 -13.85 -5.2 -12.55 L-5.45 -11.3 Q-5.4 -10.4 -5.45 -9.85 L-5.4 -9.9 Q-5.3 -10.1 -5.05 -10.25 -4.75 -10.4 -4.3 -10.35 L-4.2 -10.3 Q-4.5 -10.55 -4.7 -10.6 L-4.75 -10.65 Q-4.75 -10.85 -4.5 -10.8 -4.05 -10.9 -3.3 -9.85 L-3.3 -9.8 Q-3.25 -9.65 -3.25 -9.5 L-3.25 -9.4 -3.3 -9.4 -3.3 -9.25 -3.4 -9.15 -3.45 -9.15 -3.5 -9.15 -3.5 -9.25 -3.7 -9.35 -3.85 -9.35 -3.85 -9.4 -4.25 -9.4 Q-4.25 -9.25 -4.3 -9.1 -4.4 -8.8 -4.6 -8.8 -4.75 -8.8 -4.85 -8.95 L-4.9 -9.2 -4.9 -9.4 Q-5.0 -9.45 -5.0 -9.3 -5.0 -9.15 -4.9 -9.0 -4.75 -8.75 -4.5 -8.7 L-4.45 -8.65 -4.3 -8.65 Q-4.2 -8.7 -4.05 -8.75 L-3.95 -8.75 M-4.3 -12.05 Q-3.7 -11.9 -3.55 -11.7 L-3.5 -11.55 -3.55 -11.45 -3.6 -11.4 -3.7 -11.4 -4.15 -11.55 Q-4.65 -11.75 -5.0 -11.75 L-5.05 -11.75 -5.05 -11.9 Q-5.05 -12.3 -4.3 -12.05 M-4.75 -10.0 Q-4.85 -9.95 -4.95 -9.9 L-5.1 -9.75 -5.1 -9.7 -4.4 -9.75 Q-3.8 -9.7 -3.6 -9.55 -3.6 -9.65 -3.7 -9.7 -3.75 -9.95 -4.4 -10.0 L-4.75 -10.0 M-3.45 -8.55 Q-3.4 -8.5 -3.4 -8.4 -3.4 -8.15 -3.6 -7.85 -3.6 -7.7 -4.2 -7.3 L-4.7 -6.9 Q-4.65 -6.6 -4.25 -6.3 -3.75 -5.95 -3.05 -6.1 L-3.0 -6.1 Q-3.0 -6.05 -3.0 -6.0 -3.0 -5.9 -3.2 -5.8 -3.35 -5.75 -3.6 -5.75 -4.1 -5.75 -4.5 -6.1 L-4.7 -6.3 Q-5.0 -6.65 -5.0 -6.9 L-5.0 -7.0 Q-4.95 -7.25 -4.65 -7.4 L-4.35 -7.55 -4.1 -7.7 Q-3.65 -8.45 -3.55 -8.6 L-3.45 -8.55 M-0.85 -10.05 L-0.85 -10.05 M-2.8 -4.5 Q-2.4 -4.6 -2.15 -4.45 L-2.65 -4.75 Q-2.95 -4.9 -3.95 -4.9 -4.1 -4.85 -4.15 -4.7 L-4.15 -4.5 -3.95 -4.35 -3.85 -4.3 -3.7 -4.3 -3.7 -4.35 -3.55 -4.35 -3.35 -4.3 -2.8 -4.5 M-2.0 -4.25 L-2.05 -4.3 -2.35 -4.2 Q-2.65 -4.0 -3.65 -4.0 L-3.75 -4.0 Q-3.75 -3.95 -3.8 -3.95 -3.85 -3.9 -3.85 -3.85 -3.85 -3.75 -3.6 -3.6 L-3.3 -3.4 Q-2.6 -3.45 -2.25 -3.85 -2.1 -4.05 -2.0 -4.25 M-1.9 -4.05 Q-1.85 -3.75 -2.2 -3.5 -2.65 -3.15 -3.5 -3.15 -3.6 -3.15 -3.75 -3.25 L-3.8 -3.3 Q-3.95 -3.4 -4.05 -3.55 -4.15 -3.75 -4.2 -3.9 -4.2 -4.0 -4.1 -4.1 -4.25 -4.15 -4.35 -4.3 L-4.4 -4.45 -4.45 -4.7 Q-4.5 -5.1 -4.0 -5.15 L-3.95 -5.15 Q-3.5 -5.3 -2.6 -5.15 -2.35 -5.0 -2.1 -4.75 L-1.6 -4.25 -1.65 -4.2 -1.7 -4.1 -1.8 -4.2 -1.9 -4.2 -1.9 -4.05" fill="#111111" fill-rule="evenodd" stroke="none"/>
    <path d="M-1.45 -8.55 Q-1.35 -8.4 -1.25 -8.4 L-0.7 -8.35 -0.65 -8.35 -0.6 -8.3 -0.35 -8.3 Q0.2 -8.3 0.65 -8.75 L0.7 -8.8 1.4 -9.15 1.4 -9.2 1.45 -9.35 Q0.8 -10.6 -0.55 -10.5 L-0.85 -10.5 -0.1 -10.8 -0.15 -10.85 Q-0.9 -11.25 -1.55 -10.65 -2.1 -10.2 -2.1 -9.85 L-2.05 -9.7 -2.05 -9.6 -2.1 -9.6 Q-2.1 -9.45 -2.1 -9.15 -2.1 -9.05 -1.9 -8.9 L-1.85 -8.95 -1.8 -8.95 -1.8 -9.0 -1.7 -8.8 Q-1.6 -8.65 -1.45 -8.55 M0.3 -10.0 L0.5 -9.85 Q0.2 -9.95 -0.4 -9.95 -1.25 -9.85 -1.5 -9.7 L-1.6 -9.65 -1.55 -9.75 -1.6 -9.8 Q-1.6 -10.0 -0.9 -10.15 -0.15 -10.25 0.3 -10.0 M0.2 -12.45 Q-0.8 -12.55 -1.3 -12.1 -1.65 -11.75 -1.65 -11.4 L-1.55 -11.25 Q-0.85 -11.85 -0.2 -12.15 L0.2 -12.45 M-3.45 -9.15 L-3.4 -9.15 -3.3 -9.25 -3.3 -9.4 -3.25 -9.4 -3.25 -9.5 Q-3.25 -9.65 -3.3 -9.8 L-3.3 -9.85 Q-4.05 -10.9 -4.5 -10.8 -4.75 -10.85 -4.75 -10.65 L-4.7 -10.6 Q-4.5 -10.55 -4.2 -10.3 L-4.3 -10.35 Q-4.75 -10.4 -5.05 -10.25 -5.3 -10.1 -5.4 -9.9 L-5.45 -9.85 Q-5.4 -10.4 -5.45 -11.3 L-5.2 -12.55 Q-4.6 -13.85 -2.6 -13.85 L0.8 -14.0 3.8 -6.65 3.2 -4.65 3.05 -3.85 Q3.0 -3.55 3.0 -2.9 3.0 -2.15 2.95 -1.85 L2.85 -1.6 Q2.3 -0.9 1.4 -0.7 L1.0 -0.65 0.65 -0.65 Q0.4 -0.7 0.0 -0.85 L-0.1 -0.85 -0.35 -1.15 -0.4 -1.2 -0.3 -1.3 -0.35 -1.35 Q0.6 -1.75 1.55 -2.75 2.15 -3.35 2.6 -4.0 3.0 -4.55 3.0 -4.7 2.2 -3.75 1.2 -2.95 -0.15 -1.8 -1.3 -1.45 L-2.45 -1.4 Q-2.95 -1.45 -3.35 -1.6 L-3.45 -1.6 -3.75 -1.75 -3.8 -1.8 -4.2 -2.4 Q-4.6 -2.9 -4.85 -3.15 L-4.95 -3.25 -5.1 -3.45 Q-5.65 -4.25 -5.7 -4.5 L-5.7 -4.55 -5.65 -4.6 -5.8 -5.15 -5.8 -5.25 Q-5.85 -5.85 -5.75 -6.5 -5.6 -7.2 -5.6 -7.3 L-5.6 -7.75 -5.65 -7.85 -5.6 -8.3 -5.45 -9.3 -5.45 -9.35 -5.4 -9.35 -5.3 -9.45 -5.35 -9.2 Q-5.3 -9.0 -5.2 -8.85 -5.1 -8.6 -4.9 -8.55 -4.75 -8.4 -4.45 -8.4 -4.2 -8.4 -4.05 -8.45 -3.9 -8.55 -3.9 -8.65 -3.9 -8.75 -3.95 -8.75 L-3.7 -8.95 Q-3.55 -9.05 -3.45 -9.15 M-4.3 -8.65 L-4.45 -8.65 -4.5 -8.7 -4.45 -8.65 -4.3 -8.65 M-4.75 -10.0 L-4.4 -10.0 Q-3.75 -9.95 -3.7 -9.7 -3.6 -9.65 -3.6 -9.55 -3.8 -9.7 -4.4 -9.75 L-5.1 -9.7 -5.1 -9.75 -4.95 -9.9 Q-4.85 -9.95 -4.75 -10.0 M-4.3 -12.05 Q-5.05 -12.3 -5.05 -11.9 L-5.05 -11.75 -5.0 -11.75 Q-4.65 -11.75 -4.15 -11.55 L-3.7 -11.4 -3.6 -11.4 -3.55 -11.45 -3.5 -11.55 -3.55 -11.7 Q-3.7 -11.9 -4.3 -12.05 M-3.45 -8.55 L-3.55 -8.6 Q-3.65 -8.45 -4.1 -7.7 L-4.35 -7.55 -4.65 -7.4 Q-4.95 -7.25 -5.0 -7.0 L-5.0 -6.9 Q-5.0 -6.65 -4.7 -6.3 L-4.5 -6.1 Q-4.1 -5.75 -3.6 -5.75 -3.35 -5.75 -3.2 -5.8 -3.0 -5.9 -3.0 -6.0 -3.0 -6.05 -3.0 -6.1 L-3.05 -6.1 Q-3.75 -5.95 -4.25 -6.3 -4.65 -6.6 -4.7 -6.9 L-4.2 -7.3 Q-3.6 -7.7 -3.6 -7.85 -3.4 -8.15 -3.4 -8.4 -3.4 -8.5 -3.45 -8.55 M-0.85 -10.05 L-0.85 -10.05 M-1.9 -4.05 L-1.9 -4.2 -1.8 -4.2 -1.7 -4.1 -1.65 -4.2 -1.6 -4.25 -2.1 -4.75 Q-2.35 -5.0 -2.6 -5.15 -3.5 -5.3 -3.95 -5.15 L-4.0 -5.15 Q-4.5 -5.1 -4.45 -4.7 L-4.4 -4.45 -4.35 -4.3 Q-4.25 -4.15 -4.1 -4.1 -4.2 -4.0 -4.2 -3.9 -4.15 -3.75 -4.05 -3.55 -3.95 -3.4 -3.8 -3.3 L-3.75 -3.25 Q-3.6 -3.15 -3.5 -3.15 -2.65 -3.15 -2.2 -3.5 -1.85 -3.75 -1.9 -4.05" fill="#c7a36d" fill-rule="evenodd" stroke="none"/>
    <path d="M-1.45 -8.55 Q-1.6 -8.65 -1.7 -8.8 L-1.8 -9.0 -1.75 -9.15 -1.8 -9.25 -1.75 -9.25 -1.75 -9.3 -1.55 -9.45 -1.5 -9.45 -1.45 -9.1 Q-1.35 -8.8 -1.2 -8.8 -0.95 -8.8 -0.8 -9.05 L-0.75 -9.7 -0.3 -9.75 Q0.15 -9.75 0.6 -9.55 L0.85 -9.45 0.25 -8.95 Q-0.25 -8.6 -1.0 -8.6 L-1.25 -8.6 -1.45 -8.55 M-3.45 -9.15 Q-3.55 -9.05 -3.7 -8.95 L-3.95 -8.75 -4.05 -8.75 Q-4.2 -8.7 -4.3 -8.65 L-4.45 -8.65 -4.5 -8.7 Q-4.75 -8.75 -4.9 -9.0 -5.0 -9.15 -5.0 -9.3 -5.0 -9.45 -4.9 -9.4 L-4.9 -9.2 -4.85 -8.95 Q-4.75 -8.8 -4.6 -8.8 -4.4 -8.8 -4.3 -9.1 -4.25 -9.25 -4.25 -9.4 L-3.85 -9.4 -3.85 -9.35 -3.7 -9.35 -3.5 -9.25 -3.5 -9.15 -3.45 -9.15" fill="#ffffff" fill-rule="evenodd" stroke="none"/>
    <path d="M-2.65 -3.9 Q-2.85 -3.9 -3.1 -3.9 L-3.1 -3.6 -2.65 -3.6 -2.6 -3.75 -2.65 -3.9 M-2.0 -4.25 Q-2.1 -4.05 -2.25 -3.85 -2.6 -3.45 -3.3 -3.4 L-3.6 -3.6 Q-3.85 -3.75 -3.85 -3.85 -3.85 -3.9 -3.8 -3.95 -3.75 -3.95 -3.75 -4.0 L-3.65 -4.0 Q-2.65 -4.0 -2.35 -4.2 L-2.05 -4.3 -2.0 -4.25" fill="#802010" fill-rule="evenodd" stroke="none"/>
    <path d="M-2.65 -3.9 L-2.6 -3.75 -2.65 -3.6 -3.1 -3.6 -3.1 -3.9 Q-2.85 -3.9 -2.65 -3.9" fill="#f07070" fill-rule="evenodd" stroke="none"/>
    <path d="M-2.8 -4.5 L-3.35 -4.3 -3.55 -4.35 -3.7 -4.35 -3.7 -4.3 -3.85 -4.3 -3.95 -4.35 -4.15 -4.5 -4.15 -4.7 Q-4.1 -4.85 -3.95 -4.9 -2.95 -4.9 -2.65 -4.75 L-2.15 -4.45 Q-2.4 -4.6 -2.8 -4.5" fill="#602010" fill-rule="evenodd" stroke="none"/>
    <path d="M2.95 -16.3 Q3.0 -16.25 3.1 -16.2 L4.8 -14.4 5.9 -13.1 6.0 -12.95 6.3 -12.55 6.35 -12.5 Q6.6 -11.95 6.75 -11.45 7.15 -10.25 7.15 -8.9 7.15 -8.4 7.05 -7.85 6.85 -7.6 6.7 -7.25 6.45 -6.5 6.25 -6.15 6.3 -6.45 6.1 -6.9 L6.1 -6.75 6.0 -6.8 Q5.8 -6.65 5.7 -6.25 5.5 -5.7 5.45 -5.55 5.35 -5.4 5.0 -4.9 L5.05 -5.35 5.1 -5.45 5.05 -5.55 5.05 -5.9 4.85 -6.0 4.8 -5.95 4.75 -5.95 4.75 -5.85 3.85 -4.6 3.65 -4.35 3.55 -4.35 3.8 -5.25 4.0 -6.0 Q4.25 -5.9 4.5 -5.9 4.65 -5.9 4.7 -6.05 4.2 -6.4 3.75 -6.8 L2.75 -8.15 1.4 -9.95 Q1.05 -10.4 0.15 -11.85 -0.5 -13.05 -1.25 -13.65 L-1.25 -13.7 -1.3 -13.7 Q-1.4 -13.65 -1.4 -13.5 -0.45 -11.55 0.7 -9.7 L1.5 -8.5 Q0.55 -9.45 -0.25 -10.5 -0.7 -11.05 -1.15 -11.7 -1.8 -12.8 -2.35 -14.05 L-2.4 -14.1 -2.4 -14.15 -2.5 -14.1 -2.55 -14.0 -2.55 -13.8 Q-2.55 -13.3 -1.7 -11.4 -1.05 -9.95 -0.7 -9.35 L-0.35 -8.8 Q-0.75 -9.25 -1.1 -9.8 -2.35 -11.65 -2.95 -14.05 L-3.1 -13.95 -3.15 -13.85 Q-3.9 -14.35 -4.8 -14.45 -5.85 -14.6 -6.75 -14.15 -7.75 -13.75 -8.3 -12.9 -8.75 -12.25 -8.9 -11.45 L-8.95 -12.05 Q-8.95 -12.3 -8.8 -12.75 L-8.85 -12.9 -8.95 -12.85 -8.95 -12.9 -9.0 -12.95 Q-9.3 -12.85 -9.5 -12.45 L-9.5 -12.4 Q-9.45 -13.05 -9.25 -13.5 -8.6 -15.15 -6.0 -15.15 L-4.05 -15.05 Q-2.95 -15.1 -2.8 -15.8 L-3.15 -15.75 -2.85 -16.0 Q-1.85 -16.7 -0.7 -16.7 L-0.35 -16.65 Q-0.3 -16.65 -0.25 -16.6 L-1.1 -16.25 Q-2.8 -15.55 -2.8 -15.35 L-2.8 -15.3 Q-2.7 -15.25 -2.5 -15.25 -2.2 -15.25 -1.8 -15.45 L-0.95 -15.95 Q0.3 -16.65 1.5 -16.65 2.35 -16.65 2.95 -16.3 M-6.8 -12.15 L-6.75 -12.05 Q-7.15 -11.9 -7.4 -11.4 -7.55 -11.2 -7.6 -11.0 -7.65 -11.2 -7.65 -11.55 -7.65 -12.2 -7.45 -12.7 -7.2 -13.15 -6.7 -13.75 -6.2 -13.95 -5.5 -14.05 -6.3 -13.8 -6.6 -13.25 -6.8 -12.9 -6.8 -12.15 M-4.65 -14.1 L-4.3 -14.05 Q-5.1 -13.8 -5.6 -12.2 -5.85 -11.35 -5.95 -10.5 L-6.0 -10.9 Q-6.0 -11.15 -6.25 -11.55 -6.5 -11.95 -6.5 -12.25 -6.5 -12.6 -6.1 -13.1 L-5.3 -14.1 -4.65 -14.1" fill="#003060" fill-rule="evenodd" stroke="none"/>
    <path d="M2.95 -16.3 Q2.35 -16.65 1.5 -16.65 0.3 -16.65 -0.95 -15.95 L-1.8 -15.45 Q-2.2 -15.25 -2.5 -15.25 -2.7 -15.25 -2.8 -15.3 L-2.8 -15.35 Q-2.8 -15.55 -1.1 -16.25 L-0.25 -16.6 Q-0.3 -16.65 -0.35 -16.65 L-0.7 -16.7 Q-1.85 -16.7 -2.85 -16.0 L-3.15 -15.75 -2.8 -15.8 Q-2.95 -15.1 -4.05 -15.05 L-6.0 -15.15 Q-8.6 -15.15 -9.25 -13.5 -9.45 -13.05 -9.5 -12.4 L-9.5 -12.45 Q-9.3 -12.85 -9.0 -12.95 L-8.95 -12.9 -8.95 -12.85 -8.85 -12.9 -8.8 -12.75 Q-8.95 -12.3 -8.95 -12.05 L-8.9 -11.45 Q-8.75 -12.25 -8.3 -12.9 -7.75 -13.75 -6.75 -14.15 -5.85 -14.6 -4.8 -14.45 -3.9 -14.35 -3.15 -13.85 L-3.1 -13.95 -2.95 -14.05 Q-2.35 -11.65 -1.1 -9.8 -0.75 -9.25 -0.35 -8.8 L-0.7 -9.35 Q-1.05 -9.95 -1.7 -11.4 -2.55 -13.3 -2.55 -13.8 L-2.55 -14.0 -2.5 -14.1 -2.4 -14.15 -2.4 -14.1 -2.35 -14.05 Q-1.8 -12.8 -1.15 -11.7 -0.7 -11.05 -0.25 -10.5 0.55 -9.45 1.5 -8.5 L0.7 -9.7 Q-0.45 -11.55 -1.4 -13.5 -1.4 -13.65 -1.3 -13.7 L-1.25 -13.7 -1.25 -13.65 Q-0.5 -13.05 0.15 -11.85 1.05 -10.4 1.4 -9.95 L2.75 -8.15 3.75 -6.8 Q4.2 -6.4 4.7 -6.05 4.65 -5.9 4.5 -5.9 4.25 -5.9 4.0 -6.0 L3.8 -5.25 3.55 -4.35 3.65 -4.35 3.85 -4.6 4.75 -5.85 4.75 -5.95 4.8 -5.95 4.85 -6.0 5.05 -5.9 5.05 -5.55 5.1 -5.45 5.05 -5.35 5.0 -4.9 Q5.35 -5.4 5.45 -5.55 5.5 -5.7 5.7 -6.25 5.8 -6.65 6.0 -6.8 L6.1 -6.75 6.1 -6.9 Q6.3 -6.45 6.25 -6.15 6.45 -6.5 6.7 -7.25 6.85 -7.6 7.05 -7.85 7.15 -8.4 7.15 -8.9 7.15 -10.25 6.75 -11.45 6.6 -11.95 6.35 -12.5 L6.3 -12.55 6.0 -12.95 5.9 -13.1 4.8 -14.4 3.1 -16.2 Q3.0 -16.25 2.95 -16.3 M3.05 -16.65 L3.6 -16.15 Q4.95 -15.25 6.05 -13.45 L6.1 -13.4 6.3 -13.1 Q7.55 -11.4 7.55 -9.5 7.55 -8.35 7.35 -7.5 7.15 -6.6 6.75 -6.15 6.35 -5.2 6.15 -5.2 6.05 -5.2 5.95 -5.85 5.85 -5.55 5.65 -5.2 5.2 -4.4 4.8 -4.1 4.65 -3.85 4.55 -3.85 L4.45 -3.85 4.45 -3.95 4.6 -4.85 4.55 -4.75 Q4.25 -4.3 4.0 -4.1 L4.0 -4.05 3.95 -4.05 3.8 -3.95 Q3.6 -3.75 3.4 -3.75 L3.25 -3.8 3.2 -3.8 3.2 -4.25 3.15 -4.45 Q3.15 -4.9 3.3 -5.25 2.7 -5.35 2.0 -6.0 0.45 -6.95 -1.1 -9.25 -2.05 -10.55 -2.6 -11.85 -3.1 -12.95 -3.15 -13.6 L-3.45 -13.75 -3.8 -13.65 Q-4.45 -13.45 -4.75 -13.1 -4.9 -12.95 -5.05 -12.65 -5.2 -12.4 -5.25 -12.15 -5.55 -10.5 -5.55 -10.25 L-5.65 -9.3 -5.75 -8.45 Q-5.8 -8.25 -5.85 -8.15 L-5.95 -8.1 -6.0 -8.45 -6.0 -8.85 -6.05 -9.25 -6.05 -9.45 Q-6.1 -10.2 -6.4 -11.0 L-6.65 -11.75 -6.95 -11.4 Q-7.4 -10.8 -7.4 -10.2 L-7.45 -10.2 Q-7.5 -10.15 -7.55 -10.15 L-7.6 -10.2 Q-7.9 -10.2 -8.0 -10.85 -8.0 -11.2 -8.0 -11.55 -8.0 -12.3 -7.7 -12.85 -7.6 -13.1 -7.45 -13.3 -7.8 -12.95 -8.1 -12.55 -8.35 -12.05 -8.5 -11.35 L-8.65 -10.65 -8.6 -10.35 -8.6 -10.3 -8.65 -10.25 -8.6 -10.25 -8.45 -9.75 -8.55 -9.6 Q-8.9 -9.85 -9.1 -10.55 -9.25 -11.15 -9.25 -11.65 L-9.25 -12.15 -9.55 -11.6 -9.65 -11.6 -9.65 -11.7 -9.7 -11.7 Q-9.85 -12.5 -9.85 -12.75 -9.85 -13.3 -9.6 -13.8 -9.25 -14.45 -8.55 -14.9 -8.2 -15.15 -5.7 -15.4 L-4.5 -15.55 -3.7 -15.95 Q-3.05 -16.4 -2.85 -16.55 -2.15 -17.1 -1.1 -17.15 L-0.6 -17.1 Q0.2 -17.2 0.3 -16.8 0.95 -17.0 1.3 -17.0 2.4 -17.0 3.05 -16.65 M0.15 -9.45 L-0.25 -9.95 -0.35 -10.1 -0.6 -10.4 Q-1.3 -11.25 -1.85 -12.3 -1.3 -10.8 -0.6 -9.6 0.85 -7.25 3.35 -5.55 L3.55 -6.2 3.55 -6.25 Q3.2 -6.5 2.85 -6.85 L2.5 -7.15 Q1.95 -7.4 1.1 -8.35 L0.15 -9.45 M2.5 -7.95 L1.6 -9.25 -1.0 -13.1 Q-0.15 -11.3 0.9 -9.8 1.65 -8.8 2.5 -7.95 M-4.65 -14.1 L-5.3 -14.1 -6.1 -13.1 Q-6.5 -12.6 -6.5 -12.25 -6.5 -11.95 -6.25 -11.55 -6.0 -11.15 -6.0 -10.9 L-5.95 -10.5 Q-5.85 -11.35 -5.6 -12.2 -5.1 -13.8 -4.3 -14.05 L-4.65 -14.1 M-6.8 -12.15 Q-6.8 -12.9 -6.6 -13.25 -6.3 -13.8 -5.5 -14.05 -6.2 -13.95 -6.7 -13.75 -7.2 -13.15 -7.45 -12.7 -7.65 -12.2 -7.65 -11.55 -7.65 -11.2 -7.6 -11.0 -7.55 -11.2 -7.4 -11.4 -7.15 -11.9 -6.75 -12.05 L-6.8 -12.15" fill="#111111" fill-rule="evenodd" stroke="none"/>
  </g>
</svg>
