<?xml version="1.0" encoding="UTF-8" standalone="no"?>
<svg xmlns:ffdec="https://www.free-decompiler.com/flash" xmlns:xlink="http://www.w3.org/1999/xlink" ffdec:objectType="shape" height="19.9px" width="14.7px" xmlns="http://www.w3.org/2000/svg">
  <g transform="matrix(1.0, 0.0, 0.0, 1.0, 4.85, 19.3)">
    <path d="M-1.55 -6.25 L-1.55 -6.25" fill="#ffffff" fill-rule="evenodd" stroke="none"/>
    <path d="M1.45 -18.2 L1.45 -18.25 Q1.55 -18.5 1.65 -18.7 L1.8 -19.0 1.6 -18.85 Q1.1 -18.55 0.75 -18.15 L0.45 -17.75 Q0.1 -17.25 -0.05 -16.5 0.0 -16.5 -0.1 -16.5 -0.2 -16.5 -0.3 -16.95 -0.4 -17.4 -0.4 -17.7 L-0.6 -17.35 -0.6 -17.3 Q-0.85 -16.75 -0.85 -16.2 -0.85 -16.0 -0.75 -15.7 L-0.6 -15.3 -0.4 -15.4 -0.2 -15.45 -0.2 -15.5 Q0.2 -15.75 0.45 -16.1 0.6 -16.35 0.8 -16.75 L0.85 -16.8 0.9 -17.0 0.95 -17.0 0.95 -16.95 0.9 -16.65 0.8 -16.45 0.55 -16.05 0.5 -15.9 0.3 -15.65 0.95 -15.8 2.0 -15.8 2.35 -15.7 2.5 -15.65 Q3.15 -15.65 3.75 -15.55 4.3 -15.4 4.75 -15.1 L5.5 -14.5 Q5.95 -14.15 6.45 -14.0 L6.9 -13.85 7.1 -13.75 7.35 -13.7 8.6 -13.2 8.8 -13.1 8.75 -13.15 Q8.3 -13.75 7.55 -14.35 L6.05 -15.25 5.75 -15.4 4.7 -15.8 Q3.6 -16.25 2.4 -16.6 L2.1 -16.65 Q1.75 -16.75 1.55 -16.8 L1.5 -16.85 Q1.25 -16.95 1.25 -17.0 1.25 -17.05 1.35 -17.05 L1.35 -17.45 Q1.35 -17.8 1.45 -18.2 M0.35 -18.05 Q0.8 -18.65 1.3 -18.95 2.05 -19.55 2.05 -19.05 L1.85 -18.5 Q1.65 -18.0 1.65 -17.9 L1.6 -17.35 1.6 -17.15 Q4.25 -16.7 6.5 -15.3 9.55 -13.7 9.55 -11.85 9.55 -11.0 9.5 -10.65 9.4 -10.2 9.05 -9.55 9.35 -9.35 9.65 -8.6 L9.8 -7.85 9.85 -7.25 Q9.85 -6.35 9.45 -5.55 9.3 -5.3 9.1 -5.05 8.85 -4.65 8.55 -4.4 8.1 -3.95 7.8 -3.9 7.65 -3.35 6.95 -2.6 6.1 -1.75 5.75 -1.7 5.7 -1.5 5.2 -1.15 L5.0 -0.95 Q4.55 -0.65 3.8 -0.25 2.25 0.55 1.1 0.55 L1.0 0.55 0.35 0.6 -0.5 0.6 Q-1.05 0.65 -1.55 0.5 -1.9 0.45 -2.3 0.2 L-2.25 0.25 -2.3 0.25 -2.45 0.1 Q-2.85 -0.15 -2.9 -0.35 L-3.1 -0.55 -3.3 -0.9 -3.35 -1.0 Q-3.45 -1.2 -3.45 -1.4 -3.8 -2.25 -4.05 -3.2 -4.2 -3.65 -4.35 -4.15 -4.85 -6.05 -4.85 -8.15 -4.85 -10.4 -4.15 -12.1 -3.95 -12.6 -3.65 -13.05 -2.8 -14.75 -1.55 -15.55 L-1.2 -15.85 -1.05 -16.0 -1.05 -16.45 Q-1.05 -16.9 -1.0 -17.1 L-0.85 -17.4 -0.75 -17.55 -0.6 -17.9 Q-0.35 -18.5 -0.15 -17.8 L-0.05 -17.45 0.3 -17.9 0.35 -18.05 M4.1 -14.7 Q3.25 -15.35 2.25 -15.6 L2.0 -15.65 1.1 -15.65 Q0.75 -15.6 0.2 -15.4 L-0.05 -15.3 -0.35 -15.2 -0.55 -15.1 -0.65 -15.1 Q-0.8 -15.15 -0.85 -15.4 L-0.9 -15.45 -0.95 -15.55 Q-1.65 -15.25 -2.2 -14.7 L-2.3 -14.6 -2.45 -14.5 -2.55 -14.35 -2.65 -14.25 Q-3.1 -13.7 -3.45 -12.95 -4.4 -10.95 -4.4 -7.9 -4.4 -5.85 -4.15 -4.3 L-4.0 -3.7 -3.7 -2.75 -3.6 -2.5 Q-3.6 -3.4 -3.5 -3.65 -3.45 -3.95 -3.4 -3.95 -3.3 -3.85 -3.3 -3.55 L-3.35 -3.1 Q-3.35 -2.1 -3.15 -1.45 L-3.1 -1.4 -2.75 -0.7 Q-2.5 -0.35 -2.15 -0.05 L-1.8 0.1 -1.3 0.25 -0.45 0.35 0.9 0.35 2.05 0.1 2.8 -0.15 Q3.4 -0.45 3.75 -0.6 L4.7 -1.25 5.1 -1.55 5.4 -1.9 5.6 -2.25 5.7 -2.55 5.85 -3.05 6.05 -3.6 Q6.2 -4.3 6.45 -4.4 L6.5 -4.4 6.55 -4.45 6.6 -4.45 7.1 -4.4 7.95 -4.45 Q8.7 -4.75 9.15 -5.65 9.45 -6.25 9.55 -6.8 L9.55 -7.6 9.4 -8.3 Q9.3 -8.6 9.15 -8.8 L9.15 -8.9 8.65 -9.4 Q8.35 -9.5 7.8 -9.15 7.5 -8.95 7.3 -8.8 7.0 -8.45 6.85 -8.05 L6.45 -6.9 6.45 -6.75 6.3 -5.7 Q6.15 -4.65 5.85 -4.65 L5.75 -4.7 Q5.4 -4.8 4.9 -5.6 4.45 -6.4 4.45 -6.55 4.45 -6.7 4.8 -7.4 5.1 -8.1 5.0 -8.7 4.65 -8.95 4.3 -9.65 3.95 -10.25 3.85 -10.6 L3.7 -10.9 Q3.7 -11.2 4.65 -11.75 5.55 -12.3 5.55 -12.65 5.55 -13.05 5.25 -13.55 5.0 -13.95 4.6 -14.35 L4.1 -14.7 M6.75 -13.75 L6.55 -13.85 Q6.0 -14.05 5.55 -14.4 5.3 -14.55 4.9 -14.95 4.2 -15.4 2.7 -15.6 L2.8 -15.55 3.25 -15.4 Q4.05 -15.0 4.7 -14.4 5.2 -13.9 5.5 -13.45 5.75 -13.05 5.75 -12.85 L5.7 -12.75 5.7 -12.65 Q5.7 -12.25 4.8 -11.65 L4.4 -11.4 4.1 -11.0 4.5 -10.9 Q5.0 -10.75 5.6 -10.75 L6.5 -10.8 7.45 -10.8 7.75 -10.75 7.9 -10.75 Q8.8 -10.6 8.95 -10.0 L8.95 -10.1 Q9.3 -10.9 9.35 -11.45 9.35 -11.9 9.3 -12.25 9.2 -12.5 9.05 -12.75 L8.9 -12.85 8.8 -12.9 8.65 -12.95 8.65 -13.0 7.55 -13.4 7.45 -13.45 7.4 -13.5 7.3 -13.5 7.3 -13.55 6.85 -13.7 6.75 -13.75 M4.95 -9.3 Q5.4 -8.8 6.05 -8.5 6.0 -8.45 5.9 -8.45 5.8 -8.45 5.65 -8.5 L5.55 -8.45 Q5.4 -8.45 5.25 -8.55 L5.25 -8.4 Q5.5 -8.35 5.85 -8.2 L6.45 -7.8 6.45 -7.85 6.5 -7.85 6.6 -8.1 6.65 -8.15 Q6.8 -8.55 7.15 -8.8 L7.55 -9.2 Q8.4 -9.9 8.75 -9.6 L8.8 -9.75 Q8.75 -9.9 8.7 -10.15 8.55 -10.45 7.85 -10.55 L7.7 -10.6 5.5 -10.6 Q4.95 -10.6 4.5 -10.7 4.15 -10.8 4.0 -10.85 L3.95 -10.85 4.15 -10.5 4.5 -9.85 Q4.7 -9.55 4.95 -9.3 M5.35 -7.45 L5.8 -7.3 6.3 -7.1 6.35 -7.3 6.4 -7.45 6.45 -7.7 Q6.3 -7.75 5.8 -8.0 L5.25 -8.3 5.25 -8.25 5.2 -7.95 5.1 -7.5 5.35 -7.45 M7.5 -8.65 Q7.9 -9.0 8.35 -9.1 8.55 -9.05 8.75 -8.9 9.05 -8.5 9.15 -7.8 L9.1 -7.75 Q9.0 -7.9 8.9 -8.45 8.75 -8.95 8.25 -8.95 7.55 -8.95 7.2 -7.65 L7.1 -7.05 7.25 -7.15 Q7.6 -7.35 7.95 -7.4 8.95 -7.6 8.95 -6.65 8.95 -6.0 8.35 -5.45 7.8 -5.0 7.4 -5.0 L7.3 -5.0 7.3 -5.05 8.05 -5.55 Q8.8 -6.15 8.8 -6.65 8.8 -7.3 8.2 -7.3 7.8 -7.3 7.5 -7.15 L7.05 -6.85 6.95 -6.25 Q6.95 -6.15 7.2 -6.15 L7.75 -6.05 7.65 -6.0 7.4 -5.95 Q7.1 -5.95 6.95 -6.1 6.85 -6.2 6.85 -6.25 6.85 -6.5 7.05 -7.4 7.3 -8.25 7.35 -8.35 7.4 -8.5 7.5 -8.65 M3.9 -10.9 L3.9 -10.9 M3.9 -10.85 L3.9 -10.7 3.95 -10.6 3.85 -10.9 3.9 -10.85 M1.1 -10.55 L1.7 -10.45 1.85 -10.4 2.3 -10.35 2.35 -10.35 1.65 -11.55 Q0.8 -12.85 0.55 -12.85 L0.25 -12.85 Q-0.1 -12.7 -0.3 -12.35 -0.5 -11.95 -0.55 -11.55 -0.45 -11.1 0.55 -10.75 0.8 -10.65 1.1 -10.55 M-0.55 -11.3 Q-0.7 -11.45 -0.7 -11.65 L-0.65 -11.8 -0.5 -12.2 Q-0.3 -12.55 -0.05 -12.8 0.65 -13.45 1.3 -12.4 2.2 -11.35 2.55 -10.3 L2.5 -10.25 Q2.5 -10.2 2.45 -10.2 L2.45 -10.25 2.4 -10.25 Q2.35 -10.2 2.1 -10.2 L1.8 -10.2 1.15 -10.3 0.85 -10.4 0.7 -10.5 0.65 -10.5 0.55 -10.55 0.45 -10.55 Q0.35 -10.7 0.05 -10.8 L0.0 -10.8 Q-0.4 -11.05 -0.55 -11.3 M1.7 -8.95 L1.7 -8.9 1.2 -8.9 Q0.5 -8.9 -0.15 -9.4 L-0.4 -9.65 Q-0.65 -9.9 -0.65 -10.05 L-0.65 -10.1 -0.55 -10.05 Q-0.5 -9.95 -0.3 -9.85 L-0.2 -9.75 Q0.0 -9.6 0.5 -9.45 1.2 -9.25 1.6 -9.05 L1.9 -9.05 Q1.85 -9.0 1.75 -8.95 L1.7 -8.95 M1.3 -7.45 Q0.7 -7.6 0.2 -8.1 L0.15 -8.15 Q-0.25 -8.55 -0.35 -8.95 -0.3 -8.95 -0.1 -8.75 L0.2 -8.35 0.25 -8.25 Q0.95 -7.55 1.95 -7.55 L2.1 -7.55 2.3 -7.6 2.1 -7.45 1.7 -7.4 1.3 -7.45 M-0.35 -8.1 L-0.3 -8.1 -0.15 -8.05 -0.15 -8.0 -0.05 -7.85 -0.05 -7.7 0.05 -7.4 0.05 -7.3 0.1 -7.05 Q0.1 -6.75 0.0 -6.5 -0.1 -6.1 -0.3 -6.05 L-0.5 -6.05 Q-0.55 -6.1 -0.75 -6.15 L-0.8 -6.15 Q-0.9 -6.2 -1.45 -6.15 L-1.55 -6.15 -1.6 -6.1 -1.95 -6.05 Q-2.4 -5.8 -2.6 -5.8 -3.2 -5.8 -3.45 -6.45 -3.55 -6.75 -3.55 -7.15 -3.55 -7.95 -3.15 -8.8 -3.05 -9.05 -2.9 -9.35 L-2.85 -9.45 Q-2.95 -9.4 -3.15 -9.35 L-3.3 -9.35 -3.5 -9.4 -3.55 -9.45 -3.55 -9.5 -3.65 -9.55 -3.5 -9.6 -3.0 -9.75 -2.65 -9.85 -2.35 -10.1 -1.75 -10.7 -1.75 -10.85 -1.8 -11.15 Q-2.0 -11.05 -2.4 -10.9 L-2.5 -10.9 -2.9 -10.8 -2.95 -10.8 Q-3.05 -10.8 -3.1 -10.75 L-3.4 -10.75 Q-3.65 -10.75 -3.7 -10.95 L-3.75 -11.15 Q-3.75 -11.65 -3.4 -12.2 -3.05 -12.85 -2.45 -13.0 -1.9 -13.15 -1.75 -12.3 -1.7 -11.4 -1.65 -11.25 L-1.6 -11.1 -1.65 -10.8 -1.5 -10.9 -1.5 -10.85 -1.65 -10.7 Q-1.95 -10.45 -2.3 -9.95 L-2.4 -9.8 Q-2.7 -9.4 -2.9 -9.0 L-2.9 -8.95 Q-3.15 -8.6 -3.25 -8.1 -3.35 -7.6 -3.35 -7.15 -3.35 -6.8 -3.25 -6.5 L-3.2 -6.45 Q-3.0 -6.0 -2.6 -6.0 -2.35 -6.0 -1.5 -6.35 L-1.55 -6.35 Q-1.35 -6.5 -1.15 -6.5 -0.95 -6.5 -0.7 -6.35 L-0.45 -6.2 Q-0.25 -6.2 -0.15 -6.6 -0.1 -6.85 -0.05 -7.05 L-0.15 -7.65 Q-0.3 -8.1 -0.55 -8.0 L-0.65 -7.95 -0.7 -7.95 -0.7 -8.0 Q-0.5 -8.1 -0.35 -8.1 M1.6 -3.5 Q1.45 -4.25 1.0 -5.35 0.35 -6.8 0.35 -7.0 L0.35 -7.1 0.5 -7.2 1.15 -5.5 Q1.75 -3.95 1.75 -3.45 1.75 -3.15 1.65 -2.85 L1.6 -2.85 1.6 -3.15 1.6 -3.25 1.4 -3.35 0.6 -3.8 Q0.25 -4.0 0.0 -4.1 L-0.5 -4.3 Q-1.9 -4.75 -2.65 -4.75 L-3.25 -4.7 -3.5 -4.65 Q-3.6 -4.65 -3.65 -4.7 L-3.65 -4.75 Q-3.65 -5.0 -2.4 -4.85 -1.25 -4.7 -0.95 -4.6 L-0.55 -4.45 Q0.05 -4.4 0.75 -3.95 L1.05 -3.75 1.2 -3.7 1.15 -3.7 1.25 -3.6 1.6 -3.3 1.6 -3.5 M5.6 -6.55 L6.15 -6.05 6.15 -6.1 6.25 -6.55 6.3 -7.0 Q6.05 -7.05 5.7 -7.15 L5.4 -7.25 5.35 -7.3 5.05 -7.4 4.95 -7.15 4.9 -7.05 5.6 -6.55 M5.55 -6.4 L5.5 -6.45 Q5.05 -6.75 4.85 -7.0 L4.75 -6.85 4.7 -6.65 5.05 -5.8 Q5.15 -5.6 5.35 -5.4 L5.45 -5.3 5.8 -5.1 5.95 -5.25 6.05 -5.6 6.1 -5.9 5.85 -6.1 5.55 -6.4 M6.5 -4.05 L6.25 -3.25 6.2 -2.95 5.95 -2.25 5.95 -2.2 Q6.65 -2.6 7.1 -3.15 L7.35 -3.5 7.45 -3.75 7.6 -4.0 7.15 -3.95 Q6.65 -3.95 6.5 -4.05 M-0.05 -17.35 L0.0 -17.45 -0.05 -17.4 -0.05 -17.35 M-0.85 -13.4 Q-1.25 -13.0 -1.35 -12.35 -1.4 -12.05 -1.4 -11.3 L-1.45 -11.25 Q-1.5 -11.3 -1.55 -11.5 L-1.55 -11.8 Q-1.55 -12.25 -1.4 -12.7 -1.25 -13.3 -0.9 -13.45 L-0.85 -13.4 M-2.0 -12.5 Q-2.1 -12.7 -2.25 -12.85 -2.85 -12.75 -3.25 -12.1 -3.6 -11.55 -3.6 -11.15 L-3.55 -11.0 Q-3.5 -10.95 -3.35 -10.9 L-3.2 -10.9 Q-3.05 -10.9 -2.65 -11.0 L-2.15 -11.15 Q-1.95 -11.25 -1.85 -11.35 L-1.85 -11.55 Q-1.85 -12.0 -1.9 -12.2 L-1.9 -12.25 Q-1.9 -12.4 -2.0 -12.5 M-1.55 -6.25 L-1.55 -6.25" fill="#000000" fill-rule="evenodd" stroke="none"/>
    <path d="M-1.8 0.1 L-2.15 -0.05 Q-2.5 -0.35 -2.75 -0.7 L-3.1 -1.4 -3.15 -1.45 Q-3.35 -2.1 -3.35 -3.1 L-3.3 -3.55 Q-3.3 -3.85 -3.4 -3.95 -3.45 -3.95 -3.5 -3.65 -3.6 -3.4 -3.6 -2.5 L-3.7 -2.75 -4.0 -3.7 -4.15 -4.3 Q-4.4 -5.85 -4.4 -7.9 -4.4 -10.95 -3.45 -12.95 -3.1 -13.7 -2.65 -14.25 L-2.55 -14.35 -2.45 -14.5 -2.3 -14.6 -2.2 -14.7 Q-1.65 -15.25 -0.95 -15.55 L-0.9 -15.45 -0.85 -15.4 Q-0.8 -15.15 -0.65 -15.1 L-0.55 -15.1 -0.35 -15.2 -0.05 -15.3 0.2 -15.4 Q0.75 -15.6 1.1 -15.65 L2.0 -15.65 2.25 -15.6 Q3.25 -15.35 4.1 -14.7 L3.95 -14.55 3.1 -13.25 Q2.7 -12.65 2.55 -12.3 2.3 -11.75 2.3 -11.4 2.3 -10.95 3.25 -9.65 L3.2 -9.7 3.3 -9.45 Q3.95 -7.65 3.95 -6.35 3.95 -5.7 3.55 -4.65 3.2 -3.7 2.75 -3.0 2.35 -2.45 1.7 -1.65 L0.85 -1.05 0.1 -0.55 Q-0.4 -0.3 -0.85 -0.1 L-1.85 0.1 -1.8 0.1 M5.25 -13.55 L5.25 -13.55 M1.8 -10.2 L2.1 -10.2 Q2.35 -10.2 2.4 -10.25 L2.45 -10.25 2.45 -10.2 Q2.5 -10.2 2.5 -10.25 L2.55 -10.3 Q2.2 -11.35 1.3 -12.4 0.65 -13.45 -0.05 -12.8 -0.3 -12.55 -0.5 -12.2 L-0.65 -11.8 -0.7 -11.65 Q-0.7 -11.45 -0.55 -11.3 L-0.65 -11.2 Q-0.75 -11.05 -0.75 -10.3 -0.75 -9.85 -0.5 -9.7 L-0.4 -9.65 -0.15 -9.4 Q0.5 -8.9 1.2 -8.9 L1.7 -8.9 1.7 -8.95 Q2.0 -8.95 2.0 -9.3 L1.9 -10.05 1.85 -10.2 1.8 -10.2 M0.15 -8.15 L0.1 -8.2 Q0.15 -8.0 0.45 -7.8 0.8 -7.5 1.3 -7.45 L1.7 -7.4 2.1 -7.45 Q2.45 -7.55 2.6 -7.75 2.75 -7.95 2.75 -8.2 L2.75 -8.3 Q2.65 -8.45 2.55 -8.45 L2.35 -8.4 1.85 -8.35 0.9 -8.25 Q0.8 -8.25 0.35 -8.45 L0.1 -8.45 0.2 -8.35 -0.1 -8.75 Q-0.3 -8.95 -0.35 -8.95 -0.25 -8.55 0.15 -8.15 M0.05 -7.3 L0.1 -7.6 Q0.1 -7.75 0.0 -7.95 -0.15 -8.15 -0.35 -8.1 -0.5 -8.1 -0.7 -8.0 L-0.7 -7.95 -0.65 -7.95 -0.55 -8.0 -0.65 -7.85 Q-0.8 -7.55 -0.85 -7.5 -1.15 -7.2 -1.6 -6.85 -2.25 -6.35 -2.6 -6.35 L-2.9 -6.4 -3.15 -6.45 -3.2 -6.45 -3.25 -6.5 Q-3.35 -6.8 -3.35 -7.15 -3.35 -7.6 -3.25 -8.1 -3.15 -8.6 -2.9 -8.95 L-2.9 -9.0 Q-2.7 -9.4 -2.4 -9.8 L-2.3 -9.95 Q-1.95 -10.45 -1.65 -10.7 L-1.5 -10.85 -1.5 -10.9 -1.65 -10.8 -1.6 -11.1 -1.65 -11.25 Q-1.7 -11.4 -1.75 -12.3 -1.9 -13.15 -2.45 -13.0 -3.05 -12.85 -3.4 -12.2 -3.75 -11.65 -3.75 -11.15 L-3.7 -10.95 Q-3.65 -10.75 -3.4 -10.75 L-3.1 -10.75 -3.2 -10.75 -3.3 -10.55 Q-3.55 -10.05 -3.55 -9.8 L-3.5 -9.6 -3.65 -9.55 -3.55 -9.5 -3.55 -9.45 -3.5 -9.4 -3.3 -9.35 -3.15 -9.35 -2.9 -9.35 Q-3.05 -9.05 -3.15 -8.8 -3.55 -7.95 -3.55 -7.15 -3.55 -6.75 -3.45 -6.45 -3.2 -5.8 -2.6 -5.8 -2.4 -5.8 -1.95 -6.05 L-1.6 -6.1 -1.55 -6.15 -1.45 -6.15 Q-0.9 -6.2 -0.8 -6.15 L-0.75 -6.15 Q-0.55 -6.1 -0.5 -6.05 L-0.3 -6.05 Q-0.1 -6.1 0.0 -6.5 0.1 -6.75 0.1 -7.05 L0.05 -7.3 M1.6 -3.15 L1.6 -2.85 1.65 -2.85 Q1.75 -3.15 1.75 -3.45 1.75 -3.95 1.15 -5.5 L0.5 -7.2 0.35 -7.1 0.35 -7.0 Q0.35 -6.8 1.0 -5.35 1.45 -4.25 1.6 -3.5 L1.5 -3.65 Q1.25 -3.95 1.25 -3.65 L1.25 -3.6 1.15 -3.7 1.2 -3.7 1.05 -3.75 0.75 -3.95 Q0.05 -4.4 -0.55 -4.45 L-0.95 -4.6 Q-1.25 -4.7 -2.4 -4.85 -3.65 -5.0 -3.65 -4.75 L-3.65 -4.7 Q-3.6 -4.65 -3.5 -4.65 L-3.25 -4.7 -2.65 -4.75 Q-1.9 -4.75 -0.5 -4.3 L0.0 -4.1 Q0.25 -4.0 0.6 -3.8 L1.4 -3.35 Q1.5 -3.2 1.6 -3.15 M-0.85 -13.4 L-0.9 -13.45 Q-1.25 -13.3 -1.4 -12.7 -1.55 -12.25 -1.55 -11.8 L-1.55 -11.5 Q-1.5 -11.3 -1.45 -11.25 L-1.4 -11.3 Q-1.4 -12.05 -1.35 -12.35 -1.25 -13.0 -0.85 -13.4" fill="#f0bcb3" fill-rule="evenodd" stroke="none"/>
    <path d="M-1.8 0.1 L-1.85 0.1 -0.85 -0.1 Q-0.4 -0.3 0.1 -0.55 L0.85 -1.05 1.7 -1.65 Q2.35 -2.45 2.75 -3.0 3.2 -3.7 3.55 -4.65 3.95 -5.7 3.95 -6.35 3.95 -7.65 3.3 -9.45 L3.2 -9.7 3.25 -9.65 Q2.3 -10.95 2.3 -11.4 2.3 -11.75 2.55 -12.3 2.7 -12.65 3.1 -13.25 L3.95 -14.55 4.1 -14.7 4.6 -14.35 Q5.0 -13.95 5.25 -13.55 5.55 -13.05 5.55 -12.65 5.55 -12.3 4.65 -11.75 3.7 -11.2 3.7 -10.9 L3.85 -10.6 Q3.95 -10.25 4.3 -9.65 4.65 -8.95 5.0 -8.7 5.1 -8.1 4.8 -7.4 4.45 -6.7 4.45 -6.55 4.45 -6.4 4.9 -5.6 5.4 -4.8 5.75 -4.7 L5.85 -4.65 Q6.15 -4.65 6.3 -5.7 L6.45 -6.75 6.45 -6.9 6.85 -8.05 Q7.0 -8.45 7.3 -8.8 7.5 -8.95 7.8 -9.15 8.35 -9.5 8.65 -9.4 L9.15 -8.9 9.15 -8.8 Q9.3 -8.6 9.4 -8.3 L9.55 -7.6 9.55 -6.8 Q9.45 -6.25 9.15 -5.65 8.7 -4.75 7.95 -4.45 L7.1 -4.4 6.6 -4.45 6.55 -4.45 6.5 -4.4 6.45 -4.4 Q6.2 -4.3 6.05 -3.6 L5.85 -3.05 5.7 -2.55 5.6 -2.25 5.4 -1.9 5.1 -1.55 4.7 -1.25 3.75 -0.6 Q3.4 -0.45 2.8 -0.15 L2.05 0.1 0.9 0.35 -0.45 0.35 -1.3 0.25 -1.8 0.1 M7.5 -8.65 Q7.4 -8.5 7.35 -8.35 7.3 -8.25 7.05 -7.4 6.85 -6.5 6.85 -6.25 6.85 -6.2 6.95 -6.1 7.1 -5.95 7.4 -5.95 L7.65 -6.0 7.75 -6.05 7.2 -6.15 Q6.95 -6.15 6.95 -6.25 L7.05 -6.85 7.5 -7.15 Q7.8 -7.3 8.2 -7.3 8.8 -7.3 8.8 -6.65 8.8 -6.15 8.05 -5.55 L7.3 -5.05 7.3 -5.0 7.4 -5.0 Q7.8 -5.0 8.35 -5.45 8.95 -6.0 8.95 -6.65 8.95 -7.6 7.95 -7.4 7.6 -7.35 7.25 -7.15 L7.1 -7.05 7.2 -7.65 Q7.55 -8.95 8.25 -8.95 8.75 -8.95 8.9 -8.45 9.0 -7.9 9.1 -7.75 L9.15 -7.8 Q9.05 -8.5 8.75 -8.9 8.55 -9.05 8.35 -9.1 7.9 -9.0 7.5 -8.65 M5.25 -13.55 L5.25 -13.55 M1.8 -10.2 L1.85 -10.2 1.9 -10.05 2.0 -9.3 Q2.0 -8.95 1.7 -8.95 L1.75 -8.95 Q1.85 -9.0 1.9 -9.05 L1.6 -9.05 Q1.2 -9.25 0.5 -9.45 0.0 -9.6 -0.2 -9.75 L-0.3 -9.85 Q-0.5 -9.95 -0.55 -10.05 L-0.65 -10.1 -0.65 -10.05 Q-0.65 -9.9 -0.4 -9.65 L-0.5 -9.7 Q-0.75 -9.85 -0.75 -10.3 -0.75 -11.05 -0.65 -11.2 L-0.55 -11.3 Q-0.4 -11.05 0.0 -10.8 L0.05 -10.8 Q0.35 -10.7 0.45 -10.55 L0.55 -10.55 0.65 -10.5 0.7 -10.5 0.85 -10.4 1.15 -10.3 1.8 -10.2 M0.15 -8.15 L0.2 -8.1 Q0.7 -7.6 1.3 -7.45 0.8 -7.5 0.45 -7.8 0.15 -8.0 0.1 -8.2 L0.15 -8.15 M2.1 -7.45 L2.3 -7.6 2.1 -7.55 1.95 -7.55 Q0.95 -7.55 0.25 -8.25 L0.2 -8.35 0.1 -8.45 0.35 -8.45 Q0.8 -8.25 0.9 -8.25 L1.85 -8.35 2.35 -8.4 2.55 -8.45 Q2.65 -8.45 2.75 -8.3 L2.75 -8.2 Q2.75 -7.95 2.6 -7.75 2.45 -7.55 2.1 -7.45 M-0.35 -8.1 Q-0.15 -8.15 0.0 -7.95 0.1 -7.75 0.1 -7.6 L0.05 -7.3 0.05 -7.4 -0.05 -7.7 -0.05 -7.85 -0.15 -8.0 -0.15 -8.05 -0.3 -8.1 -0.35 -8.1 M-2.9 -9.35 L-3.15 -9.35 Q-2.95 -9.4 -2.85 -9.45 L-2.9 -9.35 M-3.5 -9.6 L-3.55 -9.8 Q-3.55 -10.05 -3.3 -10.55 L-3.2 -10.75 -3.1 -10.75 Q-3.05 -10.8 -2.95 -10.8 L-2.9 -10.8 -2.5 -10.9 -2.4 -10.9 Q-2.0 -11.05 -1.8 -11.15 L-1.75 -10.85 -1.75 -10.7 -2.35 -10.1 -2.65 -9.85 -3.0 -9.75 -3.5 -9.6 M-3.2 -6.45 L-3.15 -6.45 -2.9 -6.4 -2.6 -6.35 Q-2.25 -6.35 -1.6 -6.85 -1.15 -7.2 -0.85 -7.5 -0.8 -7.55 -0.65 -7.85 L-0.55 -8.0 Q-0.3 -8.1 -0.15 -7.65 L-0.05 -7.05 Q-0.1 -6.85 -0.15 -6.6 -0.25 -6.2 -0.45 -6.2 L-0.7 -6.35 Q-0.95 -6.5 -1.15 -6.5 -1.35 -6.5 -1.55 -6.35 L-1.5 -6.35 Q-2.35 -6.0 -2.6 -6.0 -3.0 -6.0 -3.2 -6.45 M1.6 -3.15 Q1.5 -3.2 1.4 -3.35 L1.6 -3.25 1.6 -3.15 M1.25 -3.6 L1.25 -3.65 Q1.25 -3.95 1.5 -3.65 L1.6 -3.5 1.6 -3.3 1.25 -3.6" fill="#de937c" fill-rule="evenodd" stroke="none"/>
    <path d="M0.9 -17.0 L0.85 -16.8 0.8 -16.75 Q0.6 -16.35 0.45 -16.1 0.2 -15.75 -0.2 -15.5 L-0.2 -15.45 -0.4 -15.4 -0.6 -15.3 -0.75 -15.7 Q-0.85 -16.0 -0.85 -16.2 -0.85 -16.75 -0.6 -17.3 L-0.6 -17.35 -0.4 -17.7 Q-0.4 -17.4 -0.3 -16.95 -0.2 -16.5 -0.1 -16.5 0.0 -16.5 -0.05 -16.5 0.1 -17.25 0.45 -17.75 L0.75 -18.15 Q1.1 -18.55 1.6 -18.85 L1.8 -19.0 1.65 -18.7 Q1.55 -18.5 1.45 -18.25 L1.45 -18.2 Q1.1 -17.7 0.95 -17.2 L0.9 -17.0 M2.4 -16.6 Q3.6 -16.25 4.7 -15.8 L5.75 -15.4 6.9 -13.85 6.45 -14.0 Q5.95 -14.15 5.5 -14.5 L4.75 -15.1 Q4.3 -15.4 3.75 -15.55 L3.3 -15.9 2.5 -16.5 2.4 -16.6 M1.35 -16.4 L1.35 -16.4 M5.6 -10.75 Q5.0 -10.75 4.5 -10.9 L4.1 -11.0 4.4 -11.4 4.8 -11.65 Q5.7 -12.25 5.7 -12.65 L5.7 -12.75 5.75 -12.85 Q5.75 -13.05 5.5 -13.45 5.2 -13.9 4.7 -14.4 4.05 -15.0 3.25 -15.4 L2.8 -15.55 2.7 -15.6 Q4.2 -15.4 4.9 -14.95 5.3 -14.55 5.55 -14.4 6.0 -14.05 6.55 -13.85 L6.75 -13.75 6.75 -13.45 6.8 -13.4 Q6.75 -13.05 6.6 -12.45 L6.0 -11.45 5.6 -10.75 M5.5 -10.6 Q5.3 -10.3 5.05 -9.7 L4.95 -9.3 Q4.7 -9.55 4.5 -9.85 L4.15 -10.5 3.95 -10.85 4.0 -10.85 Q4.15 -10.8 4.5 -10.7 4.95 -10.6 5.5 -10.6 M5.2 -7.95 Q5.25 -7.75 5.3 -7.6 L5.35 -7.45 5.1 -7.5 5.2 -7.95 M3.9 -10.85 L3.85 -10.9 3.95 -10.6 3.9 -10.7 3.9 -10.85 M3.9 -10.9 L3.9 -10.9 M0.25 -12.85 L0.65 -12.1 Q1.1 -11.25 1.1 -10.9 L1.1 -10.55 Q0.8 -10.65 0.55 -10.75 -0.45 -11.1 -0.55 -11.55 -0.5 -11.95 -0.3 -12.35 -0.1 -12.7 0.25 -12.85 M5.35 -7.3 L5.35 -7.25 Q5.4 -6.95 5.55 -6.6 L5.6 -6.55 4.9 -7.05 4.95 -7.15 5.05 -7.4 5.35 -7.3 M5.35 -5.4 Q5.15 -5.6 5.05 -5.8 L4.7 -6.65 4.75 -6.85 4.85 -7.0 Q5.05 -6.75 5.5 -6.45 L5.55 -6.4 Q5.35 -6.1 5.35 -5.4 M-3.55 -11.0 L-3.6 -11.15 Q-3.6 -11.55 -3.25 -12.1 -2.85 -12.75 -2.25 -12.85 -2.1 -12.7 -2.0 -12.5 L-2.0 -12.6 Q-2.15 -12.55 -2.35 -12.2 -2.65 -11.65 -3.15 -11.25 L-3.55 -11.0" fill="#976822" fill-rule="evenodd" stroke="none"/>
    <path d="M0.9 -17.0 L0.95 -17.2 Q1.1 -17.7 1.45 -18.2 1.35 -17.8 1.35 -17.45 L1.35 -17.05 Q1.25 -17.05 1.25 -17.0 1.25 -16.95 1.5 -16.85 L1.55 -16.8 Q1.75 -16.75 2.1 -16.65 L2.4 -16.6 2.5 -16.5 3.3 -15.9 3.75 -15.55 Q3.15 -15.65 2.5 -15.65 L2.35 -15.7 2.0 -15.8 0.95 -15.8 0.3 -15.65 0.5 -15.9 0.55 -16.05 0.8 -16.45 0.9 -16.65 0.95 -16.95 0.95 -17.0 0.9 -17.0 M5.75 -15.4 L6.05 -15.25 7.55 -14.35 Q8.3 -13.75 8.75 -13.15 L8.8 -13.1 8.6 -13.2 7.35 -13.7 7.1 -13.75 6.9 -13.85 5.75 -15.4 M1.35 -16.4 L1.35 -16.4 M5.6 -10.75 L6.0 -11.45 6.6 -12.45 Q6.75 -13.05 6.8 -13.4 L6.75 -13.45 6.75 -13.75 6.85 -13.7 7.3 -13.55 7.3 -13.5 7.4 -13.5 7.45 -13.45 7.55 -13.4 8.65 -13.0 8.65 -12.95 8.8 -12.9 8.9 -12.85 9.05 -12.75 Q9.2 -12.5 9.3 -12.25 9.35 -11.9 9.35 -11.45 9.3 -10.9 8.95 -10.1 L8.95 -10.0 Q8.8 -10.6 7.9 -10.75 L7.75 -10.75 7.45 -10.8 6.5 -10.8 5.6 -10.75 M5.5 -10.6 L7.7 -10.6 7.85 -10.55 Q8.55 -10.45 8.7 -10.15 8.75 -9.9 8.8 -9.75 L8.75 -9.6 Q8.4 -9.9 7.55 -9.2 L7.15 -8.8 Q6.8 -8.55 6.65 -8.15 L6.6 -8.1 6.5 -7.85 6.45 -7.85 6.45 -7.8 5.85 -8.2 Q5.5 -8.35 5.25 -8.4 L5.25 -8.55 Q5.4 -8.45 5.55 -8.45 L5.65 -8.5 Q5.8 -8.45 5.9 -8.45 6.0 -8.45 6.05 -8.5 5.4 -8.8 4.95 -9.3 L5.05 -9.7 Q5.3 -10.3 5.5 -10.6 M5.2 -7.95 L5.25 -8.25 5.25 -8.3 5.8 -8.0 Q6.3 -7.75 6.45 -7.7 L6.4 -7.45 6.35 -7.3 6.3 -7.1 5.8 -7.3 5.35 -7.45 5.3 -7.6 Q5.25 -7.75 5.2 -7.95 M0.25 -12.85 L0.55 -12.85 Q0.8 -12.85 1.65 -11.55 L2.35 -10.35 2.3 -10.35 1.85 -10.4 1.7 -10.45 1.1 -10.55 1.1 -10.9 Q1.1 -11.25 0.65 -12.1 L0.25 -12.85 M5.35 -7.3 L5.4 -7.25 5.7 -7.15 Q6.05 -7.05 6.3 -7.0 L6.25 -6.55 6.15 -6.1 6.15 -6.05 5.6 -6.55 5.55 -6.6 Q5.4 -6.95 5.35 -7.25 L5.35 -7.3 M5.35 -5.4 Q5.35 -6.1 5.55 -6.4 L5.85 -6.1 6.1 -5.9 6.05 -5.6 5.95 -5.25 5.8 -5.1 5.45 -5.3 5.35 -5.4 M6.5 -4.05 Q6.65 -3.95 7.15 -3.95 L7.6 -4.0 7.45 -3.75 7.35 -3.5 7.1 -3.15 Q6.65 -2.6 5.95 -2.2 L5.95 -2.25 6.2 -2.95 6.25 -3.25 6.5 -4.05 M-3.55 -11.0 L-3.15 -11.25 Q-2.65 -11.65 -2.35 -12.2 -2.15 -12.55 -2.0 -12.6 L-2.0 -12.5 Q-1.9 -12.4 -1.9 -12.25 L-1.9 -12.2 Q-1.85 -12.0 -1.85 -11.55 L-1.85 -11.35 Q-1.95 -11.25 -2.15 -11.15 L-2.65 -11.0 Q-3.05 -10.9 -3.2 -10.9 L-3.35 -10.9 Q-3.5 -10.95 -3.55 -11.0" fill="#964823" fill-rule="evenodd" stroke="none"/>
  </g>
</svg>
