<?xml version="1.0" encoding="UTF-8" standalone="no"?>
<svg xmlns:ffdec="https://www.free-decompiler.com/flash" xmlns:xlink="http://www.w3.org/1999/xlink" ffdec:objectType="shape" height="13.15px" width="4.8px" xmlns="http://www.w3.org/2000/svg">
  <g transform="matrix(1.0, 0.0, 0.0, 1.0, -0.3, 13.2)">
    <path d="M2.5 -13.0 L2.55 -13.0 Q2.7 -12.95 2.8 -12.9 3.35 -12.5 3.85 -10.95 4.05 -10.5 4.1 -10.15 L4.15 -9.8 Q4.45 -8.5 4.45 -7.7 L4.45 -6.75 4.5 -6.7 4.5 -6.45 4.4 -6.45 Q4.3 -6.45 4.0 -7.0 3.65 -7.6 3.55 -7.85 3.5 -8.0 3.35 -8.1 L3.55 -7.45 3.7 -6.85 Q4.1 -5.3 4.1 -4.3 4.1 -4.1 4.0 -4.0 L4.0 -3.95 3.95 -3.9 Q3.9 -3.8 3.7 -3.8 3.2 -4.0 2.25 -4.2 0.8 -4.55 0.65 -4.15 L0.55 -4.1 Q0.6 -4.6 0.9 -5.6 L1.05 -6.2 1.05 -6.45 Q1.05 -7.3 1.15 -8.45 L1.1 -8.45 1.15 -8.6 1.15 -8.8 Q1.2 -9.6 1.3 -10.1 L1.3 -10.2 Q1.35 -11.35 1.9 -12.25 L1.95 -12.3 2.3 -12.8 2.4 -13.0 2.55 -12.9 2.5 -12.95 2.5 -13.0 M4.9 -4.0 L4.9 -3.95 4.85 -3.9 4.9 -4.0 M1.8 -4.1 L1.8 -4.1" fill="#648caa" fill-rule="evenodd" stroke="none"/>
    <path d="M2.95 -3.75 Q2.85 -3.65 2.85 -3.35 L2.85 -3.2 Q3.0 -3.15 3.15 -3.2 L2.95 -2.45 3.05 -2.3 3.1 -2.3 2.9 -2.3 Q2.25 -2.45 1.85 -2.2 L1.7 -2.2 Q1.5 -2.4 1.45 -2.75 L1.5 -2.8 1.45 -3.1 Q1.45 -3.4 1.5 -3.5 L1.5 -3.65 Q1.5 -4.0 1.7 -3.9 L1.9 -3.95 2.05 -3.95 2.25 -3.9 2.35 -3.9 2.95 -3.75 M4.15 -1.95 L4.35 -2.1 4.4 -2.2 Q4.3 -2.0 4.2 -1.95 L4.15 -1.95 M2.2 -2.9 L2.2 -2.9 M1.75 -2.7 L1.9 -2.85 Q1.8 -2.9 1.7 -2.8 1.65 -2.75 1.65 -2.65 L1.65 -2.6 Q1.7 -2.55 1.85 -2.55 L1.95 -2.65 1.9 -2.7 1.9 -2.65 1.85 -2.6 1.75 -2.65 1.75 -2.7 M2.55 -2.75 L2.5 -2.75 2.55 -2.6 2.45 -2.6 2.35 -2.65 2.5 -2.8 2.5 -2.85 Q2.4 -2.8 2.35 -2.75 2.25 -2.65 2.25 -2.6 L2.3 -2.55 Q2.35 -2.5 2.45 -2.5 2.6 -2.5 2.6 -2.65 L2.55 -2.75" fill="#844a4a" fill-rule="evenodd" stroke="none"/>
    <path d="M4.5 -6.45 Q4.6 -5.5 4.85 -4.05 L4.9 -4.0 4.85 -3.9 4.35 -3.8 4.25 -3.75 4.2 -3.7 3.95 -3.7 3.7 -3.8 Q3.9 -3.8 3.95 -3.9 L4.0 -3.95 4.0 -4.0 Q4.1 -4.1 4.1 -4.3 4.1 -5.3 3.7 -6.85 L3.55 -7.45 3.35 -8.1 Q3.5 -8.0 3.55 -7.85 3.65 -7.6 4.0 -7.0 4.3 -6.45 4.4 -6.45 L4.5 -6.45 M2.4 -13.0 L2.4 -13.05 2.45 -13.0 2.5 -13.0 2.5 -12.95 2.55 -12.9 2.4 -13.0" fill="#466171" fill-rule="evenodd" stroke="none"/>
    <path d="M2.95 -3.75 L3.25 -3.65 3.35 -3.65 Q3.65 -3.55 3.85 -3.45 L4.1 -3.35 4.45 -3.45 4.45 -2.85 Q4.45 -2.6 4.4 -2.35 L4.4 -2.2 4.35 -2.1 4.15 -1.95 3.85 -1.95 Q3.5 -2.15 3.15 -2.25 L3.15 -2.3 3.1 -2.3 3.05 -2.3 2.95 -2.45 3.15 -3.2 Q3.0 -3.15 2.85 -3.2 L2.85 -3.35 Q2.85 -3.65 2.95 -3.75 M3.45 -2.7 L3.3 -2.7 3.25 -2.65 3.4 -2.65 3.4 -2.5 3.3 -2.4 3.25 -2.55 3.25 -2.35 Q3.25 -2.3 3.4 -2.3 3.5 -2.3 3.5 -2.6 L3.45 -2.7 M3.9 -2.45 Q3.9 -2.55 3.9 -2.5 3.75 -2.5 3.75 -2.35 L3.75 -2.25 Q3.8 -2.15 3.9 -2.15 L4.0 -2.25 3.85 -2.3 3.9 -2.35 3.9 -2.45 M4.25 -2.3 L4.3 -2.4 4.15 -2.4 4.15 -2.15 4.25 -2.15 Q4.25 -2.2 4.25 -2.3" fill="#5a3232" fill-rule="evenodd" stroke="none"/>
    <path d="M2.95 -1.7 L2.9 -1.5 2.85 -1.45 2.75 -1.15 2.6 -0.65 2.4 -0.25 2.35 -0.25 2.3 -0.3 2.3 -0.45 Q2.45 -0.95 2.45 -1.8 L2.45 -2.05 2.8 -2.05 2.75 -1.9 2.8 -1.8 Q2.8 -1.7 2.95 -1.7 M1.7 -1.8 L1.75 -1.9 2.05 -1.95 1.9 -1.65 Q1.7 -1.3 1.35 -1.1 L1.6 -1.7 1.7 -1.8 M3.15 -0.85 L3.15 -2.0 3.3 -1.95 3.3 -1.9 Q3.4 -1.85 3.5 -1.8 L3.4 -1.65 Q3.2 -1.25 3.15 -0.85" fill="#f4c49f" fill-rule="evenodd" stroke="none"/>
    <path d="M2.95 -1.7 Q2.8 -1.7 2.8 -1.8 L2.75 -1.9 2.8 -2.05 3.0 -2.05 3.05 -2.0 3.0 -1.75 2.95 -1.7 M3.15 -0.85 Q3.2 -1.25 3.4 -1.65 L3.5 -1.8 3.55 -1.75 3.55 -1.7 Q3.55 -1.45 3.4 -0.95 3.2 -0.4 3.2 -0.3 L3.2 -0.25 3.15 -0.2 3.1 -0.3 3.1 -0.45 3.15 -0.85 M3.9 -1.7 L3.7 -0.8 3.5 -0.45 Q3.45 -0.4 3.35 -0.35 3.35 -0.5 3.55 -1.1 L3.7 -1.7 3.7 -1.75 3.9 -1.7" fill="#e7955f" fill-rule="evenodd" stroke="none"/>
    <path d="M2.55 -2.75 L2.6 -2.65 Q2.6 -2.5 2.45 -2.5 2.35 -2.5 2.3 -2.55 L2.25 -2.6 Q2.25 -2.65 2.35 -2.75 2.4 -2.8 2.5 -2.85 L2.5 -2.8 2.35 -2.65 2.45 -2.6 2.55 -2.6 2.5 -2.75 2.55 -2.75 M1.75 -2.7 L1.75 -2.65 1.85 -2.6 1.9 -2.65 1.9 -2.7 1.95 -2.65 1.85 -2.55 Q1.7 -2.55 1.65 -2.6 L1.65 -2.65 Q1.65 -2.75 1.7 -2.8 1.8 -2.9 1.9 -2.85 L1.75 -2.7" fill="#d6ba4e" fill-rule="evenodd" stroke="none"/>
    <path d="M3.45 -2.7 L3.5 -2.6 Q3.5 -2.3 3.4 -2.3 3.25 -2.3 3.25 -2.35 L3.25 -2.55 3.3 -2.4 3.4 -2.5 3.4 -2.65 3.25 -2.65 3.3 -2.7 3.45 -2.7 M4.25 -2.3 Q4.25 -2.2 4.25 -2.15 L4.15 -2.15 4.15 -2.4 4.3 -2.4 4.25 -2.3 M3.9 -2.45 L3.9 -2.35 3.85 -2.3 4.0 -2.25 3.9 -2.15 Q3.8 -2.15 3.75 -2.25 L3.75 -2.35 Q3.75 -2.5 3.9 -2.5 3.9 -2.55 3.9 -2.45" fill="#c27a29" fill-rule="evenodd" stroke="none"/>
    <path d="M2.95 -13.15 Q3.3 -12.9 3.55 -12.55 L3.95 -11.55 4.45 -10.15 Q4.55 -9.6 4.6 -8.85 L4.65 -8.55 4.65 -8.6 5.0 -5.75 5.05 -5.45 5.1 -4.4 5.1 -3.8 4.95 -3.75 4.7 -3.6 Q4.7 -3.05 4.6 -2.6 4.45 -1.65 4.2 -1.65 L4.15 -1.65 4.0 -1.15 3.95 -1.05 3.95 -0.85 3.85 -0.85 3.55 -0.25 3.45 -0.25 3.35 -0.2 3.3 -0.2 3.2 -0.05 3.05 -0.05 3.0 -0.1 Q2.95 -0.3 2.9 -0.6 L2.9 -1.0 2.65 -0.35 2.6 -0.15 2.55 -0.15 2.4 -0.05 Q2.3 -0.05 2.2 -0.1 2.15 -0.15 2.1 -0.25 L2.1 -0.45 Q2.1 -0.8 2.2 -1.35 L2.2 -1.7 1.85 -1.3 1.65 -1.0 1.5 -0.95 1.25 -0.95 1.25 -1.3 1.5 -1.8 1.55 -1.95 Q1.3 -2.0 1.25 -2.6 1.2 -2.9 1.25 -3.25 L1.25 -3.65 Q1.25 -3.85 1.3 -3.95 L1.25 -3.95 0.9 -3.85 0.75 -3.8 0.6 -3.7 0.55 -3.7 0.4 -3.65 0.35 -3.6 0.3 -3.65 0.6 -5.5 Q0.7 -6.0 0.7 -6.55 L0.85 -7.7 Q0.95 -8.75 0.95 -9.95 L0.95 -10.35 Q1.1 -12.05 2.15 -13.2 L2.85 -13.15 2.95 -13.15 M4.5 -6.45 L4.5 -6.7 4.45 -6.75 4.45 -7.7 Q4.45 -8.5 4.15 -9.8 L4.1 -10.15 Q4.05 -10.5 3.85 -10.95 3.35 -12.5 2.8 -12.9 2.7 -12.95 2.55 -13.0 L2.5 -13.0 2.45 -13.0 2.4 -13.05 2.4 -13.0 2.3 -12.8 1.95 -12.3 1.9 -12.25 Q1.35 -11.35 1.3 -10.2 L1.3 -10.1 Q1.2 -9.6 1.15 -8.8 L1.15 -8.6 1.1 -8.45 1.15 -8.45 Q1.05 -7.3 1.05 -6.45 L1.05 -6.2 0.9 -5.6 Q0.6 -4.6 0.55 -4.1 L0.65 -4.15 Q0.8 -4.55 2.25 -4.2 3.2 -4.0 3.7 -3.8 L3.95 -3.7 4.2 -3.7 4.25 -3.75 4.35 -3.8 4.85 -3.9 4.9 -3.95 4.9 -4.0 4.85 -4.05 Q4.6 -5.5 4.5 -6.45 M4.4 -2.2 L4.4 -2.35 Q4.45 -2.6 4.45 -2.85 L4.45 -3.45 4.1 -3.35 3.85 -3.45 Q3.65 -3.55 3.35 -3.65 L3.25 -3.65 2.95 -3.75 2.35 -3.9 2.25 -3.9 2.05 -3.95 1.9 -3.95 1.7 -3.9 Q1.5 -4.0 1.5 -3.65 L1.5 -3.5 Q1.45 -3.4 1.45 -3.1 L1.5 -2.8 1.45 -2.75 Q1.5 -2.4 1.7 -2.2 L1.85 -2.2 Q2.25 -2.45 2.9 -2.3 L3.1 -2.3 3.15 -2.3 3.15 -2.25 Q3.5 -2.15 3.85 -1.95 L4.15 -1.95 4.2 -1.95 Q4.3 -2.0 4.4 -2.2 M1.4 -3.95 L1.4 -3.95 M1.8 -4.1 L1.8 -4.1 M2.2 -2.9 L2.2 -2.9 M1.7 -1.8 L1.6 -1.7 1.35 -1.1 Q1.7 -1.3 1.9 -1.65 L2.05 -1.95 1.75 -1.9 1.7 -1.8 M2.8 -2.05 L2.45 -2.05 2.45 -1.8 Q2.45 -0.95 2.3 -0.45 L2.3 -0.3 2.35 -0.25 2.4 -0.25 2.6 -0.65 2.75 -1.15 2.85 -1.45 2.9 -1.5 2.95 -1.7 3.0 -1.75 3.05 -2.0 3.0 -2.05 2.8 -2.05 M3.5 -1.8 Q3.4 -1.85 3.3 -1.9 L3.3 -1.95 3.15 -2.0 3.15 -0.85 3.1 -0.45 3.1 -0.3 3.15 -0.2 3.2 -0.25 3.2 -0.3 Q3.2 -0.4 3.4 -0.95 3.55 -1.45 3.55 -1.7 L3.55 -1.75 3.5 -1.8 M3.9 -1.7 L3.7 -1.75 3.7 -1.7 3.55 -1.1 Q3.35 -0.5 3.35 -0.35 3.45 -0.4 3.5 -0.45 L3.7 -0.8 3.9 -1.7 M3.75 -0.95 L3.8 -1.05 3.75 -0.85 3.75 -0.95" fill="#101010" fill-rule="evenodd" stroke="none"/>
  </g>
</svg>
