<?xml version="1.0" encoding="UTF-8" standalone="no"?>
<svg xmlns:ffdec="https://www.free-decompiler.com/flash" xmlns:xlink="http://www.w3.org/1999/xlink" ffdec:objectType="shape" height="11.65px" width="15.4px" xmlns="http://www.w3.org/2000/svg">
  <g transform="matrix(1.0, 0.0, 0.0, 1.0, 7.3, 7.85)">
    <path d="M3.4 -3.65 L4.5 -3.85 4.65 -3.85 5.3 -4.05 5.8 -4.25 Q6.4 -4.5 6.8 -4.55 L6.6 -5.0 6.55 -5.2 Q6.3 -5.5 6.05 -6.1 5.45 -7.4 5.3 -7.4 4.85 -7.4 3.35 -6.35 L1.85 -5.15 0.45 -3.95 0.25 -3.8 2.6 -3.6 3.3 -3.65 3.4 -3.65 M0.15 1.7 L0.7 1.7 2.4 1.65 4.7 1.5 4.6 1.15 4.55 0.9 4.45 0.15 4.5 -0.65 Q4.5 -1.3 4.55 -1.95 4.6 -2.85 4.75 -3.3 L4.75 -3.5 4.7 -3.5 4.3 -3.4 3.85 -3.35 2.85 -3.3 2.75 -3.3 2.3 -3.25 0.85 -3.15 Q-0.2 -3.15 -1.9 -3.8 L-2.4 -3.8 Q-2.75 -3.8 -3.8 -4.25 -4.75 -4.65 -5.05 -4.9 -5.55 -5.25 -5.85 -5.7 L-5.9 -5.75 Q-6.15 -6.0 -6.25 -6.2 L-6.0 -6.05 -6.2 -6.4 -6.65 -6.1 -6.75 -5.9 -6.75 -5.8 -6.8 -5.65 -6.75 -5.1 -6.7 -4.95 -6.6 -4.25 -6.6 -3.5 -6.65 -3.05 -6.7 -2.75 -6.75 -2.4 -6.75 -2.35 -6.7 -1.85 Q-6.65 -1.4 -6.5 -0.7 L-6.3 0.3 -6.3 0.35 Q-5.75 0.55 -4.65 0.9 -3.15 1.35 -2.9 1.35 L-1.55 1.5 0.15 1.7 M5.55 -3.45 Q5.8 -3.65 6.15 -3.65 6.45 -3.65 6.55 -3.4 6.65 -3.2 6.65 -3.0 6.65 -2.8 6.5 -2.55 6.3 -2.25 5.95 -2.25 5.6 -2.25 5.45 -2.55 5.35 -2.75 5.35 -3.0 5.35 -3.25 5.55 -3.45 M5.55 -2.95 Q5.55 -2.8 5.65 -2.65 5.8 -2.5 5.95 -2.5 6.2 -2.5 6.3 -2.75 6.35 -2.9 6.35 -3.0 6.35 -3.2 6.3 -3.3 6.15 -3.4 5.9 -3.35 L5.65 -3.3 5.55 -3.1 5.55 -2.95 M5.0 -0.15 L5.15 1.55 5.1 1.6 4.95 1.65 4.9 1.65 4.7 1.7 Q3.35 2.1 0.8 2.1 -1.0 2.1 -3.25 1.6 -4.9 1.25 -5.95 0.75 L-5.65 1.0 Q-6.0 1.0 -6.3 0.9 L-6.3 0.85 Q-6.7 0.7 -6.8 0.3 L-6.85 0.25 -6.85 0.2 -6.9 -0.4 Q-6.95 -0.85 -7.0 -1.05 -7.05 -1.2 -7.05 -1.65 L-7.1 -1.75 Q-7.05 -2.65 -7.05 -3.95 L-7.05 -4.0 -7.3 -5.55 Q-7.3 -5.7 -7.2 -5.9 -7.15 -6.15 -7.05 -6.35 -6.8 -6.75 -6.1 -6.85 L-5.95 -6.85 -5.85 -6.75 -5.9 -6.65 Q-5.65 -6.25 -5.35 -5.9 -4.2 -5.0 -2.4 -4.4 L-1.45 -4.15 -0.85 -4.1 -0.5 -4.1 -0.25 -4.05 Q0.5 -4.85 1.95 -5.95 4.5 -7.85 5.05 -7.85 5.65 -7.85 5.95 -7.35 L6.3 -6.5 6.8 -5.6 7.1 -5.0 7.1 -4.85 Q7.15 -4.8 7.05 -4.8 L7.1 -4.6 7.3 -4.6 Q7.05 -4.3 6.55 -4.05 L6.5 -4.05 Q6.3 -3.9 6.05 -3.85 L5.8 -3.75 5.1 -3.55 4.95 -1.3 5.0 -0.15 M7.05 -4.25 Q7.3 -4.4 7.6 -4.4 7.8 -4.4 7.95 -4.2 8.1 -4.05 8.1 -3.9 8.1 -3.7 8.0 -3.55 7.85 -3.2 7.45 -3.2 7.25 -3.2 7.05 -3.5 6.9 -3.75 6.9 -3.9 6.9 -4.1 7.05 -4.25 M7.5 -4.1 Q7.2 -4.1 7.2 -3.9 7.2 -3.85 7.25 -3.7 7.35 -3.55 7.5 -3.55 L7.7 -3.6 Q7.8 -3.7 7.8 -3.9 7.8 -4.1 7.5 -4.1 M3.6 2.8 Q3.6 2.65 3.55 2.5 3.45 2.25 3.2 2.3 L2.8 2.6 2.75 2.75 Q2.75 2.85 2.85 3.0 2.95 3.2 3.1 3.25 3.6 3.0 3.6 2.8 M3.9 2.8 Q3.9 3.0 3.7 3.25 3.45 3.55 3.05 3.55 2.5 3.55 2.5 2.55 2.5 2.4 2.85 2.15 3.3 1.8 3.6 2.1 3.8 2.25 3.85 2.4 L3.9 2.8 M5.65 2.1 Q5.75 2.25 5.75 2.4 5.75 2.55 5.55 2.85 5.3 3.2 5.0 3.2 4.7 3.2 4.55 3.05 4.4 2.9 4.4 2.7 4.4 2.4 4.5 2.2 4.6 1.85 5.25 1.85 5.5 1.85 5.65 2.1 M5.25 2.15 Q5.1 2.2 4.9 2.3 L4.7 2.35 Q4.65 2.35 4.65 2.45 4.65 2.65 4.75 2.8 4.85 3.0 5.05 2.9 5.25 2.8 5.35 2.65 5.45 2.5 5.45 2.4 L5.4 2.25 Q5.35 2.2 5.25 2.15 M0.15 2.6 Q0.05 2.8 0.05 2.9 0.05 3.1 0.15 3.25 0.25 3.5 0.5 3.5 0.9 3.5 1.05 3.2 L1.05 2.85 Q1.05 2.75 0.95 2.6 0.8 2.45 0.65 2.45 L0.15 2.6 M1.2 3.45 Q1.0 3.8 0.5 3.8 0.15 3.8 -0.05 3.45 -0.2 3.2 -0.2 2.95 -0.2 2.7 -0.1 2.5 0.05 2.15 0.35 2.15 0.85 2.15 1.1 2.4 1.3 2.6 1.3 2.95 1.3 3.2 1.2 3.45 M-2.05 2.2 Q-1.95 2.4 -1.95 2.7 -1.95 2.9 -2.1 3.2 -2.3 3.55 -2.6 3.55 -3.05 3.55 -3.25 3.25 -3.4 3.05 -3.4 2.75 -3.4 1.95 -2.65 1.95 -2.2 1.95 -2.05 2.2 M-2.35 2.95 Q-2.25 2.75 -2.25 2.65 -2.25 2.45 -2.3 2.4 -2.4 2.25 -2.6 2.25 L-2.75 2.25 -3.05 2.55 Q-3.1 2.65 -3.1 2.8 -3.1 3.0 -3.05 3.1 -2.95 3.2 -2.7 3.2 -2.5 3.2 -2.35 2.95 M-5.75 1.75 L-5.8 1.65 -5.85 1.8 Q-5.95 1.9 -5.95 1.95 -5.95 2.55 -5.5 2.55 -5.45 2.55 -5.35 2.45 L-5.25 2.35 Q-5.15 2.2 -5.15 2.0 -5.15 1.95 -5.25 1.85 -5.35 1.75 -5.45 1.7 L-5.75 1.75 M-5.0 1.7 Q-4.85 1.85 -4.85 2.15 -4.85 2.35 -5.0 2.6 -5.25 2.9 -5.75 2.9 -5.8 2.9 -5.95 2.75 L-6.15 2.55 -6.25 2.35 -6.25 2.1 Q-6.25 1.8 -6.15 1.65 -5.95 1.5 -5.45 1.35 L-5.0 1.7" fill="#111111" fill-rule="evenodd" stroke="none"/>
    <path d="M4.85 -6.3 Q5.3 -6.1 5.6 -5.65 5.9 -5.15 6.05 -4.9 L6.15 -4.95 Q6.2 -5.7 5.85 -6.1 5.7 -6.25 5.5 -6.65 5.3 -7.0 4.95 -7.0 4.4 -6.9 3.8 -6.4 3.2 -5.9 3.0 -5.75 L2.25 -5.1 Q1.65 -4.55 1.65 -4.35 1.65 -4.2 1.7 -4.2 L1.8 -4.15 3.15 -5.1 Q4.35 -5.95 4.85 -6.3 M-6.75 -5.8 L-6.75 -5.9 -6.65 -6.1 -6.2 -6.4 -6.0 -6.05 -6.25 -6.2 Q-6.15 -6.0 -5.9 -5.75 L-5.85 -5.7 Q-5.55 -5.25 -5.05 -4.9 -4.75 -4.65 -3.8 -4.25 -2.75 -3.8 -2.4 -3.8 L-1.9 -3.8 Q-0.2 -3.15 0.85 -3.15 L2.3 -3.25 2.75 -3.3 2.85 -3.3 3.85 -3.35 4.3 -3.4 4.7 -3.5 4.75 -3.5 4.75 -3.3 Q4.6 -2.85 4.55 -1.95 4.5 -1.3 4.5 -0.65 L4.45 0.15 4.55 0.9 4.6 1.15 4.7 1.5 2.4 1.65 0.7 1.7 0.15 1.7 Q-1.25 1.5 -2.4 0.95 -3.15 0.65 -4.5 -0.2 -4.9 -0.45 -5.25 -0.85 L-5.9 -1.55 Q-6.05 -1.7 -6.4 -2.35 -6.55 -2.65 -6.7 -2.8 L-6.7 -2.75 -6.65 -3.05 -6.6 -3.5 -6.0 -2.85 Q-5.0 -1.9 -4.55 -1.65 -2.85 -0.65 -2.0 -0.45 -1.25 -0.25 0.9 -0.25 1.1 -0.25 1.1 -0.3 L1.1 -0.5 Q1.1 -0.7 1.1 -0.55 -0.25 -0.75 -1.3 -1.0 -3.2 -1.4 -4.15 -2.1 -4.85 -2.6 -5.75 -3.45 L-6.6 -4.25 -6.7 -4.95 -6.75 -5.1 Q-6.65 -5.0 -6.55 -4.95 -5.7 -4.55 -5.5 -4.45 -5.15 -4.2 -4.45 -3.95 L-3.35 -3.6 Q-2.3 -3.15 -1.05 -2.95 L0.25 -2.8 1.4 -2.65 3.0 -2.7 Q4.1 -2.85 4.35 -3.2 L4.2 -3.3 2.9 -3.15 1.95 -3.05 Q0.15 -3.05 -2.75 -3.8 -6.2 -4.7 -6.2 -5.7 -6.2 -5.95 -6.5 -5.95 -6.7 -5.95 -6.75 -5.8 M3.4 -3.65 L3.3 -3.65 2.6 -3.6 0.25 -3.8 0.45 -3.95 1.85 -5.15 3.35 -6.35 Q4.85 -7.4 5.3 -7.4 5.45 -7.4 6.05 -6.1 6.3 -5.5 6.55 -5.2 L6.6 -5.0 6.8 -4.55 Q6.4 -4.5 5.8 -4.25 L5.3 -4.05 4.65 -3.85 4.5 -3.85 3.4 -3.65 M-2.9 1.35 Q-3.15 1.35 -4.65 0.9 -5.75 0.55 -6.3 0.35 L-6.3 0.3 -6.5 -0.7 Q-6.65 -1.4 -6.7 -1.85 -6.15 -1.05 -4.75 0.25 -3.6 0.95 -2.9 1.35" fill="#260d23" fill-rule="evenodd" stroke="none"/>
    <path d="M5.55 -2.95 L5.55 -3.1 5.65 -3.3 5.9 -3.35 Q6.15 -3.4 6.3 -3.3 6.35 -3.2 6.35 -3.0 6.35 -2.9 6.3 -2.75 6.2 -2.5 5.95 -2.5 5.8 -2.5 5.65 -2.65 5.55 -2.8 5.55 -2.95 M3.6 2.8 Q3.6 3.0 3.1 3.25 2.95 3.2 2.85 3.0 2.75 2.85 2.75 2.75 L2.8 2.6 3.2 2.3 Q3.45 2.25 3.55 2.5 3.6 2.65 3.6 2.8 M7.5 -4.1 Q7.8 -4.1 7.8 -3.9 7.8 -3.7 7.7 -3.6 L7.5 -3.55 Q7.35 -3.55 7.25 -3.7 7.2 -3.85 7.2 -3.9 7.2 -4.1 7.5 -4.1 M0.15 2.6 L0.65 2.45 Q0.8 2.45 0.95 2.6 1.05 2.75 1.05 2.85 L1.05 3.2 Q0.9 3.5 0.5 3.5 0.25 3.5 0.15 3.25 0.05 3.1 0.05 2.9 0.05 2.8 0.15 2.6 M5.25 2.15 Q5.35 2.2 5.4 2.25 L5.45 2.4 Q5.45 2.5 5.35 2.65 5.25 2.8 5.05 2.9 4.85 3.0 4.75 2.8 4.65 2.65 4.65 2.45 4.65 2.35 4.7 2.35 L4.9 2.3 Q5.1 2.2 5.25 2.15 M-5.75 1.75 L-5.45 1.7 Q-5.35 1.75 -5.25 1.85 -5.15 1.95 -5.15 2.0 -5.15 2.2 -5.25 2.35 L-5.35 2.45 Q-5.45 2.55 -5.5 2.55 -5.95 2.55 -5.95 1.95 -5.95 1.9 -5.85 1.8 L-5.8 1.65 -5.75 1.75 M-2.35 2.95 Q-2.5 3.2 -2.7 3.2 -2.95 3.2 -3.05 3.1 -3.1 3.0 -3.1 2.8 -3.1 2.65 -3.05 2.55 L-2.75 2.25 -2.6 2.25 Q-2.4 2.25 -2.3 2.4 -2.25 2.45 -2.25 2.65 -2.25 2.75 -2.35 2.95" fill="#e6af26" fill-rule="evenodd" stroke="none"/>
    <path d="M4.85 -6.3 Q4.35 -5.95 3.15 -5.1 L1.8 -4.15 1.7 -4.2 Q1.65 -4.2 1.65 -4.35 1.65 -4.55 2.25 -5.1 L3.0 -5.75 Q3.2 -5.9 3.8 -6.4 4.4 -6.9 4.95 -7.0 5.3 -7.0 5.5 -6.65 5.7 -6.25 5.85 -6.1 6.2 -5.7 6.15 -4.95 L6.05 -4.9 Q5.9 -5.15 5.6 -5.65 5.3 -6.1 4.85 -6.3 M-6.75 -5.8 Q-6.7 -5.95 -6.5 -5.95 -6.2 -5.95 -6.2 -5.7 -6.2 -4.7 -2.75 -3.8 0.15 -3.05 1.95 -3.05 L2.9 -3.15 4.2 -3.3 4.35 -3.2 Q4.1 -2.85 3.0 -2.7 L1.4 -2.65 0.25 -2.8 -1.05 -2.95 Q-2.3 -3.15 -3.35 -3.6 L-4.45 -3.95 Q-5.15 -4.2 -5.5 -4.45 -5.7 -4.55 -6.55 -4.95 -6.65 -5.0 -6.75 -5.1 L-6.8 -5.65 -6.75 -5.8 M-6.6 -4.25 L-5.75 -3.45 Q-4.85 -2.6 -4.15 -2.1 -3.2 -1.4 -1.3 -1.0 -0.25 -0.75 1.1 -0.55 1.1 -0.7 1.1 -0.5 L1.1 -0.3 Q1.1 -0.25 0.9 -0.25 -1.25 -0.25 -2.0 -0.45 -2.85 -0.65 -4.55 -1.65 -5.0 -1.9 -6.0 -2.85 L-6.6 -3.5 -6.6 -4.25 M-6.7 -2.75 L-6.7 -2.8 Q-6.55 -2.65 -6.4 -2.35 -6.05 -1.7 -5.9 -1.55 L-5.25 -0.85 Q-4.9 -0.45 -4.5 -0.2 -3.15 0.65 -2.4 0.95 -1.25 1.5 0.15 1.7 L-1.55 1.5 -2.9 1.35 Q-3.6 0.95 -4.75 0.25 -6.15 -1.05 -6.7 -1.85 L-6.75 -2.35 -6.75 -2.4 -6.7 -2.75" fill="#4d1a47" fill-rule="evenodd" stroke="none"/>
  </g>
</svg>
