<?xml version="1.0" encoding="UTF-8" standalone="no"?>
<svg xmlns:ffdec="https://www.free-decompiler.com/flash" xmlns:xlink="http://www.w3.org/1999/xlink" ffdec:objectType="shape" height="8.05px" width="16.25px" xmlns="http://www.w3.org/2000/svg">
  <g transform="matrix(1.0, 0.0, 0.0, 1.0, 8.75, 7.85)">
    <path d="M6.8 -7.4 L6.7 -7.3 Q6.8 -7.1 6.95 -6.75 L7.3 -6.3 7.35 -6.35 7.45 -6.25 7.35 -6.2 7.5 -5.9 Q7.3 -5.7 6.9 -5.45 L6.85 -5.4 Q6.8 -5.35 6.75 -5.35 7.2 -4.85 7.2 -4.7 7.2 -4.25 6.45 -3.5 5.75 -2.75 4.6 -2.0 2.4 -0.55 0.75 -0.3 -0.75 0.15 -2.15 0.1 L-4.05 0.2 -5.1 0.15 -5.2 0.15 Q-5.95 0.1 -6.4 -0.05 -6.8 -0.05 -7.6 -1.1 L-7.65 -1.1 Q-7.9 -1.25 -8.0 -1.5 L-8.0 -1.7 -7.95 -2.0 -8.0 -2.05 Q-8.4 -2.15 -8.5 -2.3 L-8.7 -2.35 -8.75 -2.55 -8.6 -2.5 -8.6 -2.55 -8.45 -2.6 -8.5 -2.7 -8.4 -3.3 -8.35 -3.9 Q-8.35 -5.55 -7.9 -6.0 L-7.75 -5.8 Q-7.7 -5.85 -7.65 -5.9 L-6.95 -5.9 Q-6.5 -5.9 -6.0 -5.7 L-5.9 -5.7 -4.6 -5.6 -2.4 -5.45 Q-0.55 -5.45 1.7 -6.15 2.8 -6.5 3.65 -6.9 4.25 -7.1 5.65 -7.75 L6.6 -7.75 6.6 -7.7 Q6.75 -7.6 6.8 -7.4 M5.4 -7.1 Q4.45 -6.65 3.1 -6.15 1.15 -5.4 -0.8 -5.15 -2.05 -4.9 -3.25 -4.9 L-3.35 -4.95 -5.25 -5.05 -5.5 -5.05 -5.6 -5.15 Q-6.35 -5.3 -6.75 -5.25 L-7.15 -5.35 -7.35 -5.45 Q-7.55 -5.45 -7.65 -5.3 L-7.6 -5.0 -7.6 -4.1 -7.55 -4.05 -7.6 -4.05 -7.7 -3.3 -7.75 -2.65 -7.15 -2.5 -6.5 -2.35 Q-3.05 -2.5 1.35 -3.75 4.1 -4.55 5.6 -5.2 6.05 -5.5 6.5 -5.75 L6.25 -6.5 6.15 -6.9 6.0 -6.8 6.0 -6.85 5.9 -7.05 5.75 -7.25 5.4 -7.1 M4.3 -4.2 L3.35 -3.75 Q-0.7 -2.05 -5.35 -1.85 L-3.95 -1.75 Q-0.95 -1.75 3.0 -3.55 L4.3 -4.2 M5.45 -3.15 L5.85 -3.5 6.45 -4.1 Q6.55 -4.25 6.55 -4.3 6.55 -4.4 6.35 -4.8 L6.3 -4.9 5.55 -4.4 Q4.5 -3.75 2.9 -3.05 -1.0 -1.4 -3.8 -1.4 L-6.4 -1.55 Q-6.5 -1.6 -6.65 -1.65 L-6.8 -1.7 -6.9 -1.75 -7.25 -1.85 -7.55 -1.9 -7.6 -1.75 Q-7.6 -1.7 -6.9 -1.05 L-6.8 -1.0 -6.85 -1.2 Q-6.5 -0.6 -6.2 -0.6 -6.0 -0.35 -5.65 -0.35 -5.45 -0.35 -5.3 -0.3 L-5.25 -0.3 -5.25 -0.25 -2.8 -0.25 Q-0.8 -0.45 0.75 -0.8 1.9 -1.25 3.5 -2.0 4.7 -2.6 5.45 -3.15" fill="#111111" fill-rule="evenodd" stroke="none"/>
    <path d="M5.4 -7.1 L5.75 -7.25 5.9 -7.05 6.0 -6.85 6.0 -6.8 6.15 -6.9 6.25 -6.5 6.5 -5.75 Q6.05 -5.5 5.6 -5.2 4.1 -4.55 1.35 -3.75 -3.05 -2.5 -6.5 -2.35 L-7.15 -2.5 -7.75 -2.65 -7.7 -3.3 -7.6 -4.05 -7.55 -4.05 -7.6 -4.1 -7.6 -5.0 -7.65 -5.3 Q-7.55 -5.45 -7.35 -5.45 L-7.15 -5.35 -6.75 -5.25 Q-6.35 -5.3 -5.6 -5.15 L-5.5 -5.05 -5.25 -5.05 -3.35 -4.95 -3.25 -4.9 Q-2.05 -4.9 -0.8 -5.15 1.15 -5.4 3.1 -6.15 4.45 -6.65 5.4 -7.1 M5.45 -3.15 Q4.7 -2.6 3.5 -2.0 1.9 -1.25 0.75 -0.8 -0.8 -0.45 -2.8 -0.25 L-5.25 -0.25 -5.25 -0.3 -5.3 -0.3 Q-5.45 -0.35 -5.65 -0.35 -6.0 -0.35 -6.2 -0.6 -6.5 -0.6 -6.85 -1.2 L-6.8 -1.0 -6.9 -1.05 Q-7.6 -1.7 -7.6 -1.75 L-7.55 -1.9 -7.25 -1.85 -6.9 -1.75 -6.8 -1.7 -6.65 -1.65 Q-6.5 -1.6 -6.4 -1.55 L-3.8 -1.4 Q-1.0 -1.4 2.9 -3.05 4.5 -3.75 5.55 -4.4 L6.3 -4.9 6.35 -4.8 Q6.55 -4.4 6.55 -4.3 6.55 -4.25 6.45 -4.1 L5.85 -3.5 5.45 -3.15" fill="#b00000" fill-rule="evenodd" stroke="none"/>
    <path d="M4.3 -4.2 L3.0 -3.55 Q-0.95 -1.75 -3.95 -1.75 L-5.35 -1.85 Q-0.7 -2.05 3.35 -3.75 L4.3 -4.2" fill="#f0f0a0" fill-rule="evenodd" stroke="none"/>
  </g>
</svg>
