<?xml version="1.0" encoding="UTF-8" standalone="no"?>
<svg xmlns:ffdec="https://www.free-decompiler.com/flash" xmlns:xlink="http://www.w3.org/1999/xlink" ffdec:objectType="shape" height="13.4px" width="6.55px" xmlns="http://www.w3.org/2000/svg">
  <g transform="matrix(1.0, 0.0, 0.0, 1.0, -1.3, 13.3)">
    <path d="M6.0 -8.35 Q5.45 -9.7 4.95 -11.4 4.55 -11.1 3.95 -10.7 L3.45 -10.4 Q2.55 -9.85 2.05 -9.6 L2.05 -9.75 Q2.05 -9.95 2.4 -10.5 L2.9 -11.2 3.3 -11.95 3.45 -12.2 Q3.45 -12.25 3.5 -12.3 L3.55 -12.25 3.6 -12.35 Q3.05 -12.95 2.6 -13.3 3.15 -13.2 3.6 -12.65 L3.75 -12.5 3.65 -12.2 4.05 -11.8 4.4 -11.35 Q4.5 -11.4 4.6 -11.45 L4.9 -11.6 4.85 -11.7 4.9 -11.7 4.95 -11.6 5.0 -11.45 Q5.6 -9.6 6.25 -8.25 L7.15 -6.5 Q7.55 -5.75 7.65 -5.05 7.85 -4.2 7.85 -2.55 L7.8 -1.9 7.7 -0.95 7.5 -0.9 Q7.45 -0.9 7.45 -1.0 7.1 -0.7 6.05 -0.35 4.65 0.1 3.75 0.1 L2.8 0.05 1.55 -0.05 Q1.35 -0.05 1.3 -0.15 L1.3 -0.3 1.55 -1.9 Q1.85 -3.7 1.85 -4.75 1.85 -5.35 1.75 -6.65 1.65 -7.9 1.65 -8.55 1.65 -9.85 1.85 -10.65 2.15 -11.95 3.0 -12.55 L3.0 -12.45 Q2.3 -11.95 2.05 -10.6 1.85 -9.7 1.85 -8.55 L2.05 -4.75 Q2.05 -3.7 1.85 -2.55 L1.5 -0.3 1.6 -0.25 2.25 -0.15 2.7 -0.1 Q4.25 -0.1 5.9 -0.6 6.9 -0.85 7.5 -1.15 L7.55 -1.6 Q7.65 -2.1 7.65 -2.55 L7.65 -2.7 Q7.4 -2.4 7.15 -2.4 5.6 -2.4 4.9 -4.1 4.55 -4.95 4.55 -5.85 4.55 -6.55 4.85 -7.25 5.25 -8.2 6.0 -8.4 L6.0 -8.35 M4.35 -11.3 Q4.1 -11.45 3.9 -11.65 L3.6 -12.0 Q3.45 -11.65 3.1 -11.2 2.4 -10.15 2.25 -9.95 L3.95 -11.05 4.35 -11.3 M5.05 -4.15 Q5.65 -2.55 6.8 -2.55 7.15 -2.55 7.45 -2.75 7.55 -2.85 7.65 -2.85 7.65 -4.05 7.45 -4.85 7.35 -5.55 6.95 -6.4 L6.05 -8.3 Q5.35 -8.05 4.95 -7.15 4.65 -6.5 4.65 -5.85 4.65 -5.1 5.05 -4.15 M7.7 -0.95 L7.7 -0.95" fill="#000000" fill-rule="evenodd" stroke="none"/>
  </g>
</svg>
