<?xml version="1.0" encoding="UTF-8" standalone="no"?>
<svg xmlns:ffdec="https://www.free-decompiler.com/flash" xmlns:xlink="http://www.w3.org/1999/xlink" ffdec:objectType="shape" height="14.5px" width="3.2px" xmlns="http://www.w3.org/2000/svg">
  <g transform="matrix(1.0, 0.0, 0.0, 1.0, -1.1, 13.35)">
    <path d="M3.25 0.65 L3.45 0.6 Q3.6 0.45 3.8 0.15 L3.9 0.0 Q3.85 -0.55 3.85 -1.95 L3.85 -2.95 Q3.75 -3.4 3.75 -3.65 L3.75 -3.75 3.85 -5.2 3.8 -6.45 3.8 -7.2 Q3.7 -7.7 3.7 -7.9 L3.65 -9.3 Q3.55 -10.6 3.55 -10.8 L3.55 -11.5 Q3.55 -11.9 3.5 -12.2 3.3 -12.3 3.0 -12.6 L3.0 -12.65 2.8 -12.8 Q2.5 -13.0 2.3 -13.1 L2.15 -13.05 Q1.95 -12.85 1.8 -12.4 1.7 -12.2 1.65 -11.95 L1.6 -11.55 1.55 -11.5 Q1.5 -11.05 1.5 -10.65 L1.75 -8.1 1.85 -7.2 Q1.8 -5.55 1.7 -4.15 L1.7 -2.25 Q1.7 -1.5 1.5 0.05 L1.5 0.2 1.6 0.3 1.65 0.4 Q1.8 0.65 2.2 0.7 L2.3 0.75 2.5 0.75 3.25 0.65 M3.85 -12.3 L4.05 -12.15 Q4.0 -11.7 4.0 -11.4 L3.95 -11.35 3.95 -11.25 3.85 -10.25 Q3.85 -9.3 4.05 -8.1 L4.2 -7.2 4.15 -6.15 4.15 -4.55 4.2 -3.3 4.25 -2.95 4.25 -0.15 4.3 -0.1 4.25 0.2 Q4.15 0.4 3.75 0.75 L3.55 0.95 Q3.05 1.15 2.45 1.15 1.7 1.15 1.25 0.5 L1.25 0.45 1.1 0.3 1.15 -0.05 Q1.15 -0.5 1.3 -1.55 L1.4 -3.55 1.45 -5.05 1.55 -7.2 Q1.45 -9.25 1.35 -11.3 L1.45 -11.7 Q1.6 -12.2 2.05 -12.95 L2.15 -13.15 2.5 -13.35 Q2.85 -13.3 3.0 -13.15 3.35 -12.7 3.85 -12.3" fill="#111111" fill-rule="evenodd" stroke="none"/>
    <path d="M1.6 -11.55 L1.65 -11.95 Q1.7 -12.2 1.8 -12.4 1.95 -12.85 2.15 -13.05 L2.3 -13.1 Q2.5 -13.0 2.8 -12.8 L3.0 -12.65 3.0 -12.6 Q3.3 -12.3 3.5 -12.2 3.55 -11.9 3.55 -11.5 L3.55 -10.8 Q3.55 -10.6 3.65 -9.3 L3.7 -7.9 Q3.7 -7.7 3.8 -7.2 L3.8 -6.45 3.85 -5.2 3.75 -3.75 3.75 -3.65 Q3.75 -3.4 3.85 -2.95 L3.85 -1.95 Q3.85 -0.55 3.9 0.0 L3.8 0.15 Q3.6 0.45 3.45 0.6 L3.25 0.65 Q2.95 0.2 2.85 -0.6 L2.65 -4.5 Q2.6 -5.7 2.5 -6.45 L2.45 -7.2 2.4 -7.4 2.5 -7.2 Q2.85 -6.55 3.3 -5.9 L3.05 -7.2 2.55 -8.55 1.95 -10.05 Q1.7 -10.7 1.6 -11.55" fill="#ff9933" fill-rule="evenodd" stroke="none"/>
    <path d="M1.6 -11.55 Q1.7 -10.7 1.95 -10.05 L2.55 -8.55 3.05 -7.2 3.3 -5.9 Q2.85 -6.55 2.5 -7.2 L2.4 -7.4 2.45 -7.2 2.5 -6.45 Q2.6 -5.7 2.65 -4.5 L2.85 -0.6 Q2.95 0.2 3.25 0.65 L2.5 0.75 2.3 0.75 2.2 0.7 Q1.8 0.65 1.65 0.4 L1.6 0.3 1.5 0.2 1.5 0.05 Q1.7 -1.5 1.7 -2.25 L1.7 -4.15 Q1.8 -5.55 1.85 -7.2 L1.75 -8.1 1.5 -10.65 Q1.5 -11.05 1.55 -11.5 L1.6 -11.55" fill="#b54d06" fill-rule="evenodd" stroke="none"/>
  </g>
</svg>
