<?xml version="1.0" encoding="UTF-8" standalone="no"?>
<svg xmlns:ffdec="https://www.free-decompiler.com/flash" xmlns:xlink="http://www.w3.org/1999/xlink" ffdec:objectType="shape" height="14.75px" width="6.35px" xmlns="http://www.w3.org/2000/svg">
  <g transform="matrix(1.0, 0.0, 0.0, 1.0, -1.75, 15.25)">
    <path d="M2.45 -14.25 L2.5 -14.35 Q2.8 -14.65 3.45 -14.95 L3.95 -15.25 4.25 -15.2 4.3 -15.15 4.35 -15.05 4.9 -14.05 Q5.5 -12.95 5.8 -12.25 6.0 -11.75 6.8 -10.5 L7.5 -9.4 7.4 -9.35 7.0 -9.05 Q6.6 -8.75 6.6 -8.7 L6.6 -8.6 6.65 -8.6 6.65 -8.55 6.7 -8.0 Q6.7 -7.75 7.0 -6.8 L7.25 -6.1 7.6 -5.55 7.6 -5.45 7.45 -5.35 7.5 -5.25 7.55 -5.1 7.85 -4.25 7.95 -4.05 Q8.05 -3.65 8.1 -3.5 8.1 -2.85 8.0 -2.15 7.9 -1.4 7.65 -1.15 L7.65 -0.85 Q7.65 -0.8 7.5 -0.65 L7.35 -0.5 7.25 -0.55 7.2 -0.55 7.15 -0.6 7.05 -0.75 6.75 -1.8 6.7 -2.45 6.7 -2.5 6.6 -2.8 6.5 -3.0 Q6.35 -3.1 6.15 -3.05 L6.1 -2.9 Q6.0 -2.5 6.0 -2.35 5.95 -1.55 5.45 -1.55 5.15 -1.55 5.1 -1.8 L5.15 -1.9 5.05 -2.4 5.05 -2.5 Q4.95 -2.8 4.9 -2.85 4.9 -2.95 4.95 -3.1 5.0 -3.2 5.05 -3.3 L5.1 -3.4 Q5.05 -3.5 5.05 -3.6 L5.0 -4.05 5.0 -4.15 4.95 -4.25 4.9 -4.3 4.7 -4.3 4.7 -4.6 4.65 -4.75 4.65 -4.9 4.05 -6.3 3.55 -7.5 Q2.95 -7.35 2.5 -7.35 L2.45 -7.35 Q2.35 -7.35 2.35 -7.4 L2.3 -7.45 2.3 -7.55 2.25 -7.65 Q2.2 -8.05 2.2 -8.25 L2.2 -8.45 2.15 -8.55 1.85 -9.95 1.75 -10.3 1.75 -11.5 2.0 -13.0 2.05 -13.25 2.15 -13.6 2.2 -13.75 2.45 -14.25 M2.55 -14.3 L2.55 -14.3 M4.1 -14.7 L3.85 -14.85 3.75 -14.9 3.65 -14.9 3.2 -14.7 2.85 -14.45 2.35 -13.95 2.25 -13.7 Q2.15 -13.35 2.05 -13.05 L1.95 -12.65 Q1.8 -11.95 1.8 -11.1 L1.85 -10.55 1.9 -10.25 2.0 -9.8 2.4 -8.45 2.55 -8.95 2.7 -9.55 Q2.9 -10.15 2.95 -10.55 L2.95 -10.8 3.05 -12.15 3.05 -14.0 3.1 -13.95 3.1 -13.9 Q3.15 -13.35 3.15 -12.75 L3.1 -11.85 2.95 -10.2 2.9 -9.85 2.75 -9.1 2.55 -8.15 2.5 -7.9 2.5 -7.85 2.45 -7.7 2.45 -7.65 2.4 -7.55 Q2.4 -7.5 2.6 -7.5 2.85 -7.5 3.3 -7.6 L3.5 -7.7 Q3.75 -7.75 4.1 -7.9 L5.05 -8.3 5.25 -8.4 5.3 -8.45 5.9 -8.7 6.05 -8.8 Q6.75 -9.15 6.95 -9.3 L7.1 -9.4 7.1 -9.45 7.15 -9.45 6.55 -10.4 Q5.8 -11.6 5.55 -12.2 5.3 -12.95 4.8 -13.75 L4.35 -14.4 4.1 -14.7 M6.5 -7.85 L6.3 -8.55 6.3 -8.65 6.1 -8.65 5.15 -8.15 Q4.8 -7.95 4.25 -7.75 L3.7 -7.55 3.75 -7.45 Q3.75 -7.05 4.35 -6.05 L4.4 -6.0 4.4 -5.95 4.45 -5.9 4.6 -5.65 4.65 -5.55 4.75 -5.3 4.8 -6.1 4.8 -6.35 4.75 -6.9 4.65 -7.45 4.7 -7.7 4.75 -7.7 4.8 -7.65 4.8 -7.15 Q4.85 -6.75 4.9 -6.0 L4.95 -5.4 4.95 -4.65 Q4.95 -4.55 5.05 -4.5 L5.3 -4.5 5.3 -4.45 5.35 -4.5 5.8 -4.55 5.85 -4.6 6.45 -4.8 6.75 -5.05 Q7.15 -5.4 7.2 -5.5 L7.2 -5.65 6.5 -7.85 M6.05 -4.1 L6.0 -4.2 6.0 -4.45 5.45 -4.35 5.35 -4.35 5.35 -4.3 5.25 -4.3 5.25 -3.75 5.35 -3.35 5.3 -3.2 5.3 -3.15 5.35 -3.15 Q5.5 -3.1 5.7 -3.05 5.85 -3.0 5.95 -2.95 L6.05 -3.2 6.05 -3.25 6.1 -3.3 6.1 -3.35 6.05 -3.9 6.05 -4.1 M5.6 -1.8 Q5.8 -1.95 5.85 -2.45 L5.9 -2.8 5.85 -2.85 Q5.7 -3.05 5.5 -3.05 L5.2 -3.0 5.15 -2.75 5.15 -2.65 Q5.15 -2.5 5.3 -2.25 L5.4 -1.9 5.4 -1.8 5.6 -1.8 M7.4 -4.85 L7.4 -4.9 7.25 -5.15 Q7.0 -4.9 6.7 -4.7 6.35 -4.55 6.1 -4.45 L6.1 -4.15 6.15 -4.05 6.15 -3.55 6.15 -3.4 6.25 -3.3 6.35 -3.3 Q6.6 -3.25 6.7 -3.1 L6.85 -2.65 6.95 -2.6 Q7.0 -2.5 7.1 -2.5 7.4 -2.5 7.5 -2.6 L7.6 -2.7 7.65 -3.15 7.55 -3.6 7.6 -3.7 7.75 -3.25 Q7.85 -2.95 7.85 -2.85 L7.85 -2.6 7.9 -2.6 7.9 -3.05 Q7.9 -3.25 7.8 -3.65 L7.7 -4.05 7.65 -4.2 7.65 -4.25 7.6 -4.3 7.5 -4.7 7.4 -4.85 M7.35 -0.8 Q7.45 -0.8 7.5 -1.1 L7.5 -1.4 Q7.5 -1.55 7.6 -2.3 L7.6 -2.6 7.55 -2.55 Q7.45 -2.45 7.25 -2.45 L7.15 -2.45 Q7.05 -2.45 6.95 -2.5 L6.85 -2.5 6.95 -2.25 7.05 -1.5 Q7.1 -1.2 7.15 -1.0 L7.25 -0.85 7.35 -0.8 M7.85 -2.5 L7.8 -2.5 7.75 -2.1 7.7 -1.75 7.7 -1.8 7.85 -2.5" fill="#111111" fill-rule="evenodd" stroke="none"/>
    <path d="M2.55 -14.3 L2.55 -14.3" fill="#ffffff" fill-rule="evenodd" stroke="none"/>
    <path d="M2.25 -13.7 L2.6 -13.9 Q3.2 -14.2 3.55 -14.25 4.0 -14.3 4.1 -14.45 L4.1 -14.7 4.35 -14.4 4.8 -13.75 Q5.3 -12.95 5.55 -12.2 5.8 -11.6 6.55 -10.4 L7.15 -9.45 7.1 -9.45 7.1 -9.4 6.95 -9.3 Q6.75 -9.15 6.05 -8.8 L5.9 -8.7 5.3 -8.45 5.25 -8.4 5.05 -8.3 4.1 -7.9 Q3.75 -7.75 3.5 -7.7 L3.3 -7.6 Q2.85 -7.5 2.6 -7.5 2.4 -7.5 2.4 -7.55 L2.45 -7.65 2.45 -7.7 2.5 -7.85 2.5 -7.9 2.55 -8.15 2.75 -9.1 2.9 -9.85 2.95 -10.2 3.1 -11.85 3.15 -12.75 Q3.15 -13.35 3.1 -13.9 L3.1 -13.95 3.05 -14.0 3.05 -12.15 2.95 -10.8 2.95 -10.55 Q2.9 -10.15 2.7 -9.55 L2.55 -8.95 2.4 -8.45 2.0 -9.8 1.9 -10.25 1.85 -10.55 1.8 -11.1 Q1.8 -11.95 1.95 -12.65 L2.05 -13.05 Q2.15 -13.35 2.25 -13.7" fill="#676c28" fill-rule="evenodd" stroke="none"/>
    <path d="M5.85 -4.6 L5.9 -4.6 5.75 -5.55 5.65 -5.9 5.6 -6.5 5.35 -7.4 5.6 -7.55 Q5.95 -7.75 6.55 -7.75 L6.5 -7.85 7.2 -5.65 7.2 -5.5 Q7.15 -5.4 6.75 -5.05 L6.45 -4.8 5.85 -4.6" fill="#a9943d" fill-rule="evenodd" stroke="none"/>
    <path d="M4.1 -14.7 L4.1 -14.45 Q4.0 -14.3 3.55 -14.25 3.2 -14.2 2.6 -13.9 L2.25 -13.7 2.35 -13.95 2.85 -14.45 3.2 -14.7 3.65 -14.9 3.75 -14.9 3.85 -14.85 4.1 -14.7" fill="#425c1d" fill-rule="evenodd" stroke="none"/>
    <path d="M5.85 -4.6 L5.8 -4.55 5.35 -4.5 5.3 -4.45 5.3 -4.5 5.05 -4.5 Q4.95 -4.55 4.95 -4.65 L4.95 -5.4 4.9 -6.0 Q4.85 -6.75 4.8 -7.15 L4.8 -7.65 4.75 -7.7 4.7 -7.7 4.65 -7.45 4.75 -6.9 4.8 -6.35 4.8 -6.1 4.75 -5.3 4.65 -5.55 4.6 -5.65 4.45 -5.9 4.4 -5.95 4.4 -6.0 4.35 -6.05 Q3.75 -7.05 3.75 -7.45 L3.7 -7.55 4.25 -7.75 Q4.8 -7.95 5.15 -8.15 L6.1 -8.65 6.3 -8.65 6.3 -8.55 6.5 -7.85 6.55 -7.75 Q5.95 -7.75 5.6 -7.55 L5.35 -7.4 5.6 -6.5 5.65 -5.9 5.75 -5.55 5.9 -4.6 5.85 -4.6" fill="#926529" fill-rule="evenodd" stroke="none"/>
    <path d="M5.15 -2.75 L5.2 -3.0 5.5 -3.05 Q5.7 -3.05 5.85 -2.85 L5.9 -2.8 5.85 -2.45 Q5.8 -1.95 5.6 -1.8 L5.6 -2.4 Q5.6 -2.7 5.3 -2.75 L5.15 -2.75 M7.15 -2.45 L7.25 -2.45 Q7.45 -2.45 7.55 -2.55 L7.6 -2.6 7.6 -2.3 Q7.5 -1.55 7.5 -1.4 L7.5 -1.1 Q7.45 -0.8 7.35 -0.8 L7.3 -1.25 7.2 -1.9 7.15 -2.45 M7.85 -2.5 L7.7 -1.8 7.7 -1.75 7.75 -2.1 7.8 -2.5 7.85 -2.5" fill="#f7c98a" fill-rule="evenodd" stroke="none"/>
    <path d="M5.15 -2.75 L5.3 -2.75 Q5.6 -2.7 5.6 -2.4 L5.6 -1.8 5.4 -1.8 5.4 -1.9 5.3 -2.25 Q5.15 -2.5 5.15 -2.65 L5.15 -2.75 M7.15 -2.45 L7.2 -1.9 7.3 -1.25 7.35 -0.8 7.25 -0.85 7.15 -1.0 Q7.1 -1.2 7.05 -1.5 L6.95 -2.25 6.85 -2.5 6.95 -2.5 Q7.05 -2.45 7.15 -2.45" fill="#ef9552" fill-rule="evenodd" stroke="none"/>
    <path d="M5.35 -3.15 L5.45 -3.25 Q5.55 -3.4 5.55 -3.5 L5.55 -3.9 Q5.85 -4.0 6.05 -4.1 L6.05 -3.9 6.1 -3.35 6.1 -3.3 6.05 -3.25 6.05 -3.2 5.95 -2.95 Q5.85 -3.0 5.7 -3.05 5.5 -3.1 5.35 -3.15 M6.1 -4.15 Q6.55 -4.3 7.4 -4.85 L7.5 -4.7 7.6 -4.3 7.65 -4.25 7.65 -4.2 7.7 -4.05 7.8 -3.65 Q7.9 -3.25 7.9 -3.05 L7.9 -2.6 7.85 -2.6 7.85 -2.85 Q7.85 -2.95 7.75 -3.25 L7.6 -3.7 7.55 -3.6 7.65 -3.15 7.6 -2.7 7.5 -2.6 Q7.4 -2.5 7.1 -2.5 6.95 -2.85 6.7 -3.15 6.45 -3.55 6.3 -3.6 6.2 -3.6 6.15 -3.55 L6.15 -4.05 6.1 -4.15" fill="#665224" fill-rule="evenodd" stroke="none"/>
    <path d="M5.35 -3.15 L5.3 -3.15 5.3 -3.2 5.35 -3.35 5.25 -3.75 5.25 -4.3 5.35 -4.3 5.35 -4.35 5.45 -4.35 6.0 -4.45 6.0 -4.2 6.05 -4.1 Q5.85 -4.0 5.55 -3.9 L5.55 -3.5 Q5.55 -3.4 5.45 -3.25 L5.35 -3.15 M6.1 -4.15 L6.1 -4.45 Q6.35 -4.55 6.7 -4.7 7.0 -4.9 7.25 -5.15 L7.4 -4.9 7.4 -4.85 Q6.55 -4.3 6.1 -4.15 M7.1 -2.5 Q7.0 -2.5 6.95 -2.6 L6.85 -2.65 6.7 -3.1 Q6.6 -3.25 6.35 -3.3 L6.25 -3.3 6.15 -3.4 6.15 -3.55 Q6.2 -3.6 6.3 -3.6 6.45 -3.55 6.7 -3.15 6.95 -2.85 7.1 -2.5" fill="#54371b" fill-rule="evenodd" stroke="none"/>
  </g>
</svg>
