<?xml version="1.0" encoding="UTF-8" standalone="no"?>
<svg xmlns:ffdec="https://www.free-decompiler.com/flash" xmlns:xlink="http://www.w3.org/1999/xlink" ffdec:objectType="shape" height="2.35px" width="6.15px" xmlns="http://www.w3.org/2000/svg">
  <g transform="matrix(1.0, 0.0, 0.0, 1.0, 5.1, 13.1)">
    <path d="M0.95 -12.05 L0.6 -11.7 Q0.4 -11.5 0.05 -11.3 -0.35 -11.05 -0.7 -10.9 -0.8 -10.95 -0.9 -10.95 L-0.95 -11.05 -1.75 -10.75 -1.8 -10.8 Q-1.95 -10.8 -2.75 -11.05 L-3.05 -11.15 -3.1 -11.15 -3.2 -10.9 -3.3 -10.95 -3.25 -11.0 -3.45 -11.05 -3.65 -11.2 -3.7 -11.2 Q-3.8 -11.05 -3.85 -11.05 L-4.1 -11.1 -4.25 -11.1 Q-4.4 -11.1 -4.65 -11.2 L-4.8 -11.3 -4.85 -11.3 -4.9 -11.4 -5.0 -11.55 -4.95 -11.75 -5.0 -11.9 -5.0 -12.1 -4.95 -12.25 -5.05 -12.55 -5.1 -12.65 -5.05 -12.7 -5.0 -12.8 Q-5.0 -12.9 -4.95 -12.9 L-4.5 -12.85 Q-4.4 -12.85 -4.4 -12.8 -4.35 -12.75 -4.35 -12.65 L-4.2 -12.9 Q-4.05 -12.9 -3.8 -12.65 L-3.6 -12.5 Q-3.4 -12.35 -3.35 -12.1 L-3.3 -12.1 -3.35 -12.05 -3.05 -12.15 -3.05 -12.2 -3.0 -12.2 Q-3.0 -12.15 -2.95 -12.05 L-2.95 -11.85 -2.8 -11.9 -2.5 -11.95 Q-2.3 -11.95 -2.15 -11.85 L-2.1 -11.85 -1.9 -11.75 -1.7 -11.9 -1.65 -11.9 -1.3 -12.1 -1.3 -12.6 -1.25 -12.65 -1.25 -12.7 -0.75 -12.9 -0.3 -13.05 -0.2 -13.1 -0.15 -13.1 0.25 -13.05 0.65 -12.9 0.65 -12.8 Q0.65 -12.75 0.6 -12.75 L0.55 -12.8 0.45 -12.8 0.25 -12.9 -0.1 -13.0 -0.6 -12.85 -1.2 -12.65 -1.2 -12.55 -1.25 -12.4 Q-1.25 -12.1 -1.1 -11.6 -0.9 -11.0 -0.8 -11.0 L-0.75 -11.05 -0.7 -11.0 -0.4 -11.2 -0.05 -11.4 0.05 -11.45 0.0 -11.45 0.15 -11.55 Q0.6 -11.85 0.75 -12.0 L0.95 -12.1 1.05 -12.15 1.0 -12.1 0.95 -12.05 M-1.8 -11.55 L-1.9 -11.6 -1.95 -11.6 -1.95 -11.65 -2.0 -11.65 -2.05 -11.7 -2.35 -11.8 -2.65 -11.85 -2.85 -11.8 -3.0 -11.8 -3.0 -11.7 -2.95 -11.65 -3.0 -11.3 -2.8 -11.2 -2.5 -11.1 Q-2.05 -10.95 -1.9 -10.95 L-1.8 -10.95 -1.75 -10.95 -1.65 -11.0 -1.5 -11.05 -1.15 -11.15 -1.05 -11.2 -1.2 -11.5 Q-1.25 -11.75 -1.3 -12.0 L-1.45 -11.9 -1.55 -11.85 -1.7 -11.75 -1.8 -11.65 -1.8 -11.6 -1.75 -11.55 -1.75 -11.6 -1.8 -11.6 -1.75 -11.55 -1.8 -11.55 M-0.7 -11.35 L-0.7 -11.35 M-3.1 -11.45 Q-3.05 -11.75 -3.05 -12.1 -3.15 -12.0 -3.35 -12.0 L-3.35 -11.85 -3.4 -11.8 -3.5 -12.15 Q-3.6 -12.4 -3.7 -12.45 L-3.9 -12.6 -3.95 -12.6 -4.0 -12.65 -4.15 -12.75 -4.2 -12.8 -4.25 -12.7 -4.25 -12.6 -4.35 -12.5 -4.4 -12.4 -4.05 -12.4 -4.0 -12.4 -4.15 -12.25 -4.2 -12.25 -4.35 -12.35 -4.4 -12.35 -4.4 -12.4 -4.5 -12.4 -4.45 -12.45 -4.5 -12.45 -4.75 -12.6 -4.7 -12.65 -4.65 -12.65 -4.5 -12.6 -4.45 -12.5 -4.4 -12.45 -4.35 -12.6 Q-4.45 -12.8 -4.6 -12.8 L-4.95 -12.8 -5.0 -12.65 -4.95 -12.5 -4.95 -12.45 -4.75 -12.1 -4.75 -11.4 -4.65 -11.35 -4.4 -11.25 -4.3 -11.2 -3.95 -11.15 Q-3.9 -11.2 -3.85 -11.2 -3.8 -11.2 -3.6 -11.5 L-3.45 -11.65 -3.4 -11.75 -3.45 -11.7 -3.45 -11.65 -3.55 -11.5 -3.55 -11.4 -3.6 -11.3 Q-3.6 -11.25 -3.45 -11.15 L-3.3 -11.1 -3.25 -11.1 -3.2 -11.15 -3.15 -11.25 -3.15 -11.3 -3.1 -11.45 M-4.95 -11.95 Q-4.95 -11.85 -4.85 -11.75 -4.8 -11.7 -4.8 -11.65 L-4.8 -11.6 -4.9 -11.7 Q-4.95 -11.5 -4.85 -11.45 L-4.85 -11.4 -4.8 -11.6 Q-4.8 -11.75 -4.8 -11.9 L-4.9 -12.15 -4.9 -12.1 -4.95 -11.95 M-3.8 -11.2 L-3.8 -11.2" fill="#000000" fill-rule="evenodd" stroke="none"/>
    <path d="M1.0 -12.1 L0.95 -12.05 1.0 -12.1" fill="#ffffff" fill-rule="evenodd" stroke="none"/>
    <path d="M-2.85 -11.8 L-2.65 -11.85 -2.35 -11.8 -2.05 -11.7 -2.0 -11.65 -1.95 -11.65 -1.95 -11.6 -1.9 -11.6 -1.8 -11.55 -1.8 -11.55 Q-1.8 -11.5 -1.7 -11.5 L-1.4 -11.65 Q-1.45 -11.5 -1.3 -11.3 L-1.15 -11.15 -1.5 -11.05 -1.65 -11.0 -1.75 -10.95 -1.8 -10.95 -1.9 -11.05 Q-2.05 -11.15 -2.3 -11.3 -2.6 -11.45 -2.8 -11.75 L-2.85 -11.8" fill="#f4c49f" fill-rule="evenodd" stroke="none"/>
    <path d="M-4.25 -12.7 L-4.2 -12.8 -4.15 -12.75 -4.0 -12.65 -3.95 -12.6 -3.9 -12.6 -3.7 -12.45 Q-3.6 -12.4 -3.5 -12.15 L-3.4 -11.8 -3.35 -11.85 -3.35 -12.0 Q-3.15 -12.0 -3.05 -12.1 -3.05 -11.75 -3.1 -11.45 -3.2 -11.65 -3.4 -11.65 L-3.45 -11.65 -3.55 -11.6 -3.6 -11.55 -3.65 -11.6 -3.75 -11.6 Q-3.85 -11.6 -4.25 -11.75 -4.7 -11.9 -4.7 -12.0 -4.7 -12.1 -4.65 -12.15 L-4.75 -12.1 -4.95 -12.45 -4.95 -12.5 -5.0 -12.65 -4.95 -12.8 -4.6 -12.8 Q-4.45 -12.8 -4.35 -12.6 L-4.4 -12.45 -4.45 -12.5 -4.5 -12.6 -4.65 -12.65 -4.7 -12.65 -4.75 -12.6 -4.5 -12.45 -4.45 -12.45 -4.5 -12.4 -4.4 -12.4 -4.4 -12.35 -4.35 -12.35 -4.3 -12.3 Q-4.25 -12.25 -4.2 -12.25 L-4.15 -12.25 -4.0 -12.4 -4.05 -12.4 -4.05 -12.45 Q-4.1 -12.7 -4.2 -12.7 L-4.25 -12.7 M-3.45 -11.65 L-3.45 -11.7 -3.4 -11.75 -3.45 -11.65" fill="#a04136" fill-rule="evenodd" stroke="none"/>
    <path d="M-2.85 -11.8 L-2.8 -11.75 Q-2.6 -11.45 -2.3 -11.3 -2.05 -11.15 -1.9 -11.05 L-1.8 -10.95 -1.9 -10.95 Q-2.05 -10.95 -2.5 -11.1 L-2.8 -11.2 -3.0 -11.3 -2.95 -11.65 -3.0 -11.7 -3.0 -11.8 -2.85 -11.8 M-1.15 -11.15 L-1.3 -11.3 Q-1.45 -11.5 -1.4 -11.65 L-1.7 -11.5 Q-1.8 -11.5 -1.8 -11.55 L-1.8 -11.55 -1.75 -11.55 -1.8 -11.6 -1.75 -11.6 -1.75 -11.55 -1.8 -11.6 -1.8 -11.65 -1.7 -11.75 -1.55 -11.85 -1.45 -11.9 -1.3 -12.0 Q-1.25 -11.75 -1.2 -11.5 L-1.05 -11.2 -1.15 -11.15" fill="#e7955f" fill-rule="evenodd" stroke="none"/>
    <path d="M-4.25 -12.7 L-4.2 -12.7 Q-4.1 -12.7 -4.05 -12.45 L-4.05 -12.4 -4.4 -12.4 -4.35 -12.5 -4.25 -12.6 -4.25 -12.7 M-4.2 -12.25 Q-4.25 -12.25 -4.3 -12.3 L-4.35 -12.35 -4.2 -12.25 M-4.75 -12.1 L-4.65 -12.15 Q-4.7 -12.1 -4.7 -12.0 -4.7 -11.9 -4.25 -11.75 -3.85 -11.6 -3.75 -11.6 L-3.65 -11.6 -3.6 -11.55 -3.55 -11.6 -3.45 -11.65 -3.4 -11.65 Q-3.2 -11.65 -3.1 -11.45 L-3.15 -11.3 -3.15 -11.25 -3.2 -11.15 -3.25 -11.1 -3.3 -11.1 -3.45 -11.15 Q-3.6 -11.25 -3.6 -11.3 L-3.55 -11.4 -3.55 -11.5 -3.45 -11.65 -3.6 -11.5 Q-3.8 -11.2 -3.85 -11.2 -3.9 -11.2 -3.95 -11.15 L-4.3 -11.2 -4.4 -11.25 -4.65 -11.35 -4.75 -11.4 -4.75 -12.1 M-4.95 -11.95 L-4.9 -12.1 -4.9 -12.15 -4.8 -11.9 Q-4.8 -11.75 -4.8 -11.6 L-4.85 -11.4 -4.85 -11.45 Q-4.95 -11.5 -4.9 -11.7 L-4.8 -11.6 -4.8 -11.65 Q-4.8 -11.7 -4.85 -11.75 -4.95 -11.85 -4.95 -11.95" fill="#88332f" fill-rule="evenodd" stroke="none"/>
    <path d="M0.55 -12.8 L0.75 -12.6 Q0.95 -12.35 0.95 -12.1 L0.75 -12.0 Q0.6 -11.85 0.15 -11.55 L0.0 -11.45 0.05 -11.45 -0.05 -11.4 -0.4 -11.2 -0.7 -11.0 -0.75 -11.05 -0.8 -11.0 Q-0.9 -11.0 -1.1 -11.6 -1.25 -12.1 -1.25 -12.4 L-1.2 -12.55 -1.2 -12.65 -0.6 -12.85 -0.1 -13.0 0.25 -12.9 0.45 -12.8 0.55 -12.8 M-0.7 -11.35 L-0.7 -11.35" fill="#492321" fill-rule="evenodd" stroke="none"/>
  </g>
</svg>
