<?xml version="1.0" encoding="UTF-8" standalone="no"?>
<svg xmlns:ffdec="https://www.free-decompiler.com/flash" xmlns:xlink="http://www.w3.org/1999/xlink" ffdec:objectType="shape" height="3.2px" width="6.7px" xmlns="http://www.w3.org/2000/svg">
  <g transform="matrix(1.0, 0.0, 0.0, 1.0, 5.4, 13.45)">
    <path d="M0.2 -13.2 L0.35 -13.25 0.4 -13.25 Q0.35 -13.15 0.0 -12.9 -0.2 -12.75 -0.35 -12.6 L-0.4 -12.55 -0.6 -12.45 -0.65 -12.4 -0.7 -12.4 Q-0.5 -12.3 -0.35 -12.1 L-0.4 -12.1 -0.45 -12.15 Q-0.85 -12.25 -1.1 -12.3 L-1.15 -12.35 -1.3 -12.35 -1.65 -12.4 Q-1.9 -12.45 -2.1 -12.55 -2.25 -12.55 -2.4 -12.4 L-2.35 -12.25 -2.35 -12.05 -2.25 -11.95 Q-2.1 -11.9 -1.95 -11.6 -1.75 -11.2 -1.95 -11.0 L-2.0 -11.0 -2.05 -10.9 -2.2 -10.8 -2.45 -10.65 -2.1 -11.0 -2.2 -11.0 -2.35 -11.0 -2.35 -11.05 -2.55 -11.0 -2.55 -10.9 -2.6 -10.85 -2.8 -10.6 -2.75 -10.6 -2.55 -10.45 -2.35 -10.45 -2.2 -10.5 -2.1 -10.5 -1.9 -10.55 -1.8 -10.55 -1.35 -10.7 -0.7 -10.9 0.0 -11.4 0.05 -11.4 0.25 -11.55 1.05 -12.2 1.3 -12.45 Q1.3 -12.3 1.15 -12.1 0.95 -11.85 0.4 -11.45 -0.1 -11.05 -0.45 -10.9 L-0.55 -10.85 Q-0.8 -10.65 -1.0 -10.6 L-1.1 -10.55 -1.25 -10.55 -1.45 -10.5 -1.8 -10.4 -1.9 -10.4 -2.0 -10.35 -2.3 -10.3 -2.35 -10.3 -2.4 -10.25 -2.45 -10.3 -2.6 -10.3 -2.7 -10.35 -2.9 -10.5 -3.1 -10.35 -3.3 -10.25 -3.5 -10.25 -3.6 -10.4 -3.8 -10.65 -3.85 -10.7 -4.25 -10.65 -4.6 -10.65 -4.7 -10.75 -5.15 -11.4 -5.2 -11.5 -5.2 -11.55 -5.15 -11.6 -5.4 -11.95 Q-5.4 -12.15 -5.3 -12.25 L-5.15 -12.4 -5.25 -12.55 Q-5.25 -12.9 -5.15 -13.05 L-5.05 -13.2 Q-5.0 -13.25 -4.9 -13.25 L-4.5 -13.2 -4.45 -13.15 -4.3 -13.1 -4.25 -13.1 Q-4.15 -13.4 -4.1 -13.4 L-4.05 -13.45 -3.85 -13.4 -3.4 -13.25 Q-3.3 -13.2 -3.25 -13.0 L-3.2 -12.85 -3.15 -12.85 -2.75 -13.05 -2.75 -13.0 -2.7 -13.05 -2.65 -13.05 Q-2.5 -12.9 -2.45 -12.55 L-2.2 -12.75 Q-2.1 -12.7 -1.85 -12.6 -1.5 -12.5 -1.3 -12.5 L-1.0 -12.5 -0.9 -12.45 -0.85 -12.45 -0.55 -12.75 -0.3 -12.9 -0.1 -13.05 0.2 -13.2 M-2.55 -11.55 L-2.55 -11.7 Q-2.5 -11.85 -2.5 -12.05 -2.5 -12.35 -2.65 -12.65 L-2.7 -12.75 Q-2.75 -12.85 -2.85 -12.85 L-2.95 -12.8 Q-3.05 -12.7 -3.15 -12.7 L-3.05 -12.65 -3.2 -12.6 -3.35 -12.6 -3.35 -12.65 Q-3.45 -12.85 -3.5 -13.1 L-3.85 -13.2 -3.9 -13.25 -4.0 -13.2 -4.0 -13.25 -4.1 -13.25 -4.1 -13.15 -4.15 -13.1 -4.15 -13.05 -4.2 -13.0 -4.2 -12.95 Q-4.1 -12.85 -4.0 -12.75 L-3.8 -12.75 -3.65 -12.7 -3.6 -12.65 -3.55 -12.65 -3.6 -12.6 -3.65 -12.6 -3.7 -12.55 -3.85 -12.6 -4.0 -12.65 -4.05 -12.65 -4.2 -12.75 -4.3 -12.8 -4.3 -12.75 -4.35 -12.75 -4.4 -12.8 -4.65 -12.75 -4.6 -12.8 -4.45 -12.85 -4.4 -12.85 -4.4 -12.9 -4.35 -12.95 -4.4 -12.95 -4.5 -13.0 -4.55 -13.0 -4.7 -13.05 -5.0 -13.05 -5.0 -13.0 -5.05 -12.95 -5.1 -12.75 -5.1 -12.55 -5.0 -12.45 -5.0 -12.4 -4.65 -12.05 -4.65 -12.0 -4.55 -11.9 -4.55 -12.05 -4.55 -12.4 -4.5 -12.25 -4.5 -12.2 -4.45 -12.1 -4.45 -11.55 Q-4.45 -11.05 -4.5 -10.85 L-4.45 -10.8 -4.25 -10.8 -4.2 -10.85 -3.45 -10.85 -3.15 -10.8 -3.55 -10.7 -3.7 -10.7 -3.6 -10.6 -3.6 -10.55 -3.45 -10.45 -3.4 -10.45 Q-3.25 -10.45 -3.1 -10.55 L-3.0 -10.6 -2.95 -10.6 -2.8 -10.85 -2.8 -10.9 Q-2.65 -11.15 -2.6 -11.45 L-2.55 -11.55 M-4.7 -12.75 L-4.7 -12.7 -4.7 -12.75 M-2.15 -11.7 L-2.1 -11.55 Q-2.0 -11.25 -2.1 -11.1 L-2.0 -11.15 Q-2.0 -11.2 -2.0 -11.25 L-2.0 -11.35 -2.1 -11.6 -2.15 -11.7 M-2.35 -11.85 Q-2.35 -11.45 -2.45 -11.15 L-2.2 -11.15 Q-2.15 -11.2 -2.15 -11.4 -2.15 -11.65 -2.25 -11.8 L-2.3 -11.85 -2.35 -11.85 M-4.85 -12.05 L-4.95 -12.15 -5.0 -12.25 -5.05 -12.25 -5.1 -12.2 Q-5.2 -12.05 -5.2 -11.95 -5.2 -11.9 -4.95 -11.65 L-4.55 -11.3 -4.55 -11.75 -4.85 -12.05 M-4.8 -11.35 L-5.05 -11.6 -5.05 -11.45 -4.95 -11.35 Q-4.7 -10.95 -4.55 -10.85 L-4.55 -11.25 -4.65 -11.25 -4.8 -11.35 M-4.55 -11.75 L-4.55 -11.8 -4.6 -11.8 -4.55 -11.75" fill="#000000" fill-rule="evenodd" stroke="none"/>
    <path d="M-0.3 -12.9 Q-0.15 -13.05 0.1 -13.15 L0.2 -13.2 -0.1 -13.05 -0.3 -12.9" fill="#ffffff" fill-rule="evenodd" stroke="none"/>
    <path d="M-2.2 -11.0 L-2.3 -11.0 -2.35 -11.05 -2.35 -11.0 -2.2 -11.0" fill="#585070" fill-rule="evenodd" stroke="none"/>
    <path d="M-4.15 -13.1 L-4.1 -13.15 -4.1 -13.25 -4.0 -13.25 -4.0 -13.2 -3.9 -13.25 -3.85 -13.2 -3.5 -13.1 Q-3.45 -12.85 -3.35 -12.65 L-3.35 -12.6 -3.2 -12.6 -3.05 -12.65 -3.15 -12.7 Q-3.05 -12.7 -2.95 -12.8 L-2.85 -12.85 Q-2.75 -12.85 -2.7 -12.75 L-2.65 -12.65 Q-2.5 -12.35 -2.5 -12.05 -2.5 -11.85 -2.55 -11.7 L-2.55 -11.55 -2.65 -11.55 Q-2.75 -11.55 -3.0 -11.75 -3.2 -12.0 -3.25 -12.15 L-4.05 -12.35 -4.45 -12.4 -4.5 -12.35 -4.55 -12.5 -4.7 -12.7 -4.7 -12.75 Q-4.85 -12.95 -5.0 -12.95 L-5.05 -12.95 -5.0 -13.0 -5.0 -13.05 -4.7 -13.05 -4.55 -13.0 -4.5 -13.0 -4.4 -12.9 -4.4 -12.85 -4.45 -12.85 -4.6 -12.8 -4.65 -12.75 -4.4 -12.8 -4.35 -12.75 -4.3 -12.75 -4.3 -12.8 -4.2 -12.75 -4.05 -12.65 -4.0 -12.65 -3.85 -12.6 -3.75 -12.5 Q-3.65 -12.5 -3.65 -12.55 -3.55 -12.6 -3.55 -12.65 -3.55 -12.75 -3.65 -12.85 -3.85 -13.2 -4.0 -13.2 -4.15 -13.15 -4.15 -13.05 L-4.15 -13.1 M-3.6 -12.65 L-3.55 -12.65 -3.6 -12.65 M-3.0 -10.6 L-3.1 -10.55 -3.1 -10.6 -3.0 -10.6 M-3.6 -10.6 L-3.7 -10.7 -3.55 -10.7 -3.6 -10.7 -3.6 -10.6 M-4.65 -12.0 L-4.65 -12.05 -4.55 -12.05 -4.65 -12.0 M-5.1 -12.2 L-5.05 -12.25 -5.0 -12.25 -4.95 -12.15 -4.85 -12.05 -4.9 -12.0 -4.9 -11.95 -5.0 -11.95 Q-5.05 -11.95 -5.05 -12.0 L-5.1 -12.1 -5.05 -12.2 -5.05 -12.25 -5.1 -12.2 M-4.95 -11.35 L-5.05 -11.45 -5.05 -11.6 -4.8 -11.35 -4.9 -11.45 -4.9 -11.4 -4.95 -11.35" fill="#76785a" fill-rule="evenodd" stroke="none"/>
    <path d="M-4.4 -12.9 L-4.5 -13.0 -4.4 -12.95 -4.35 -12.95 -4.4 -12.9 M-4.55 -12.05 L-4.55 -11.9 -4.65 -12.0 -4.55 -12.05 M-5.1 -12.2 L-5.05 -12.25 -5.05 -12.2 -5.1 -12.1 -5.05 -12.0 Q-5.05 -11.95 -5.0 -11.95 L-4.9 -11.95 -4.9 -12.0 -4.85 -12.05 -4.55 -11.75 -4.55 -11.3 -4.95 -11.65 Q-5.2 -11.9 -5.2 -11.95 -5.2 -12.05 -5.1 -12.2 M-4.95 -11.35 L-4.9 -11.4 -4.9 -11.45 -4.8 -11.35 -4.65 -11.25 -4.55 -11.25 -4.55 -10.85 Q-4.7 -10.95 -4.95 -11.35" fill="#6b6650" fill-rule="evenodd" stroke="none"/>
    <path d="M0.4 -13.25 L0.6 -13.3 Q1.0 -13.3 1.2 -12.7 L1.25 -12.65 0.55 -12.25 Q-0.15 -11.85 -0.7 -11.85 -1.35 -11.85 -1.8 -12.1 -2.2 -12.3 -2.35 -12.3 L-2.35 -12.25 -2.4 -12.4 Q-2.25 -12.55 -2.1 -12.55 -1.9 -12.45 -1.65 -12.4 L-1.3 -12.35 -1.15 -12.35 -1.1 -12.3 Q-0.85 -12.25 -0.45 -12.15 L-0.4 -12.1 -0.35 -12.1 Q-0.5 -12.3 -0.7 -12.4 L-0.65 -12.4 -0.6 -12.45 -0.4 -12.55 -0.35 -12.6 Q-0.2 -12.75 0.0 -12.9 0.35 -13.15 0.4 -13.25" fill="#ebd9a0" fill-rule="evenodd" stroke="none"/>
    <path d="M1.25 -12.65 Q1.45 -12.1 1.15 -12.1 1.3 -12.3 1.3 -12.45 L1.05 -12.2 0.25 -11.55 0.05 -11.4 0.0 -11.4 -0.7 -10.9 -1.35 -10.7 -1.8 -10.55 -1.9 -10.55 -2.1 -10.5 -2.2 -10.5 -2.35 -10.45 -2.55 -10.45 -2.75 -10.6 -2.8 -10.6 -2.6 -10.85 -2.55 -10.9 -2.55 -11.0 -2.35 -11.05 -2.3 -11.0 -2.2 -11.0 -2.1 -11.0 -2.45 -10.65 -2.2 -10.8 -2.05 -10.9 -2.0 -11.0 -1.95 -11.0 Q-1.75 -11.2 -1.95 -11.6 -2.1 -11.9 -2.25 -11.95 L-2.35 -12.05 -2.35 -12.25 -2.35 -12.3 Q-2.2 -12.3 -1.8 -12.1 -1.35 -11.85 -0.7 -11.85 -0.15 -11.85 0.55 -12.25 L1.25 -12.65" fill="#ddc46a" fill-rule="evenodd" stroke="none"/>
    <path d="M-2.15 -11.7 L-2.1 -11.6 -2.0 -11.35 -2.0 -11.25 Q-2.0 -11.2 -2.0 -11.15 L-2.1 -11.1 Q-2.0 -11.25 -2.1 -11.55 L-2.15 -11.7 M-2.35 -11.85 L-2.3 -11.85 -2.25 -11.8 Q-2.15 -11.65 -2.15 -11.4 -2.15 -11.2 -2.2 -11.15 L-2.45 -11.15 Q-2.35 -11.45 -2.35 -11.85" fill="#7b4944" fill-rule="evenodd" stroke="none"/>
    <path d="M-4.15 -13.1 L-4.15 -13.05 Q-4.15 -13.15 -4.0 -13.2 -3.85 -13.2 -3.65 -12.85 -3.55 -12.75 -3.55 -12.65 L-3.6 -12.65 -3.65 -12.7 -3.8 -12.75 -4.0 -12.75 Q-4.1 -12.85 -4.2 -12.95 L-4.2 -13.0 -4.15 -13.05 -4.15 -13.1 M-3.55 -12.65 Q-3.55 -12.6 -3.65 -12.55 -3.65 -12.5 -3.75 -12.5 L-3.85 -12.6 -3.7 -12.55 -3.65 -12.6 -3.6 -12.6 -3.55 -12.65 M-5.05 -12.95 L-5.0 -12.95 Q-4.85 -12.95 -4.7 -12.75 L-4.7 -12.7 -4.55 -12.5 -4.5 -12.35 -4.45 -12.4 -4.05 -12.35 -3.25 -12.15 Q-3.2 -12.0 -3.0 -11.75 -2.75 -11.55 -2.65 -11.55 L-2.55 -11.55 -2.6 -11.45 Q-2.65 -11.15 -2.8 -10.9 L-2.8 -10.85 -2.95 -10.6 -3.0 -10.6 -3.1 -10.6 -3.1 -10.55 Q-3.25 -10.45 -3.4 -10.45 L-3.45 -10.45 -3.6 -10.55 -3.6 -10.6 -3.6 -10.7 -3.55 -10.7 -3.15 -10.8 -3.45 -10.85 -4.2 -10.85 -4.25 -10.8 -4.45 -10.8 -4.5 -10.85 Q-4.45 -11.05 -4.45 -11.55 L-4.45 -12.1 -4.5 -12.2 -4.5 -12.25 -4.55 -12.4 -4.55 -12.05 -4.65 -12.05 -5.0 -12.4 -5.0 -12.45 -5.1 -12.55 -5.1 -12.75 -5.05 -12.95" fill="#625e48" fill-rule="evenodd" stroke="none"/>
  </g>
</svg>
