<?xml version="1.0" encoding="UTF-8" standalone="no"?>
<svg xmlns:ffdec="https://www.free-decompiler.com/flash" xmlns:xlink="http://www.w3.org/1999/xlink" ffdec:objectType="shape" height="10.0px" width="6.65px" xmlns="http://www.w3.org/2000/svg">
  <g transform="matrix(1.0, 0.0, 0.0, 1.0, 4.5, 17.75)">
    <path d="M2.0 -9.6 Q1.9 -9.35 1.75 -9.25 L1.3 -9.15 0.65 -8.95 0.4 -8.85 0.2 -8.75 -0.3 -8.45 Q-1.05 -7.95 -1.4 -7.85 -1.65 -7.7 -1.85 -7.8 L-2.0 -7.95 -2.3 -8.15 Q-2.55 -8.3 -2.9 -8.75 L-3.25 -9.3 -3.65 -10.0 -3.7 -10.1 -3.9 -10.45 -3.95 -10.6 -4.05 -10.75 -4.2 -10.95 -4.35 -11.25 -4.45 -11.6 -4.4 -11.5 -4.4 -11.55 Q-4.6 -12.55 -4.15 -13.55 L-4.0 -13.7 -3.4 -13.7 -2.85 -13.5 -2.7 -13.5 -2.1 -13.35 Q-1.75 -13.3 -1.6 -13.2 L-1.3 -13.05 -1.0 -13.4 -0.95 -13.45 Q-0.9 -13.5 -1.0 -13.65 L-1.05 -13.65 Q-1.1 -13.7 -1.2 -13.8 L-1.5 -14.15 Q-1.9 -14.6 -1.75 -14.85 L-1.7 -15.0 -1.7 -15.1 Q-1.7 -15.2 -1.75 -15.25 L-1.95 -15.45 -2.35 -15.7 -2.55 -15.8 -2.75 -16.0 Q-3.0 -16.2 -3.0 -16.3 -3.1 -16.4 -3.2 -16.55 -3.45 -16.8 -3.45 -17.1 L-3.4 -17.15 Q-3.35 -17.15 -3.3 -17.15 L-3.0 -17.05 -2.75 -16.85 -2.65 -16.8 -2.35 -16.6 -2.45 -16.7 -2.7 -17.05 -2.9 -17.2 Q-2.95 -17.4 -3.05 -17.5 L-3.1 -17.5 -3.15 -17.55 -3.15 -17.65 -3.1 -17.7 Q-3.0 -17.75 -2.9 -17.75 L-2.75 -17.75 -2.75 -17.7 -2.55 -17.65 -2.3 -17.7 -1.7 -17.7 -1.4 -17.55 Q-1.2 -17.45 -1.1 -17.3 -1.15 -17.5 -1.1 -17.6 -1.05 -17.75 -0.9 -17.65 -0.55 -17.5 -0.45 -17.05 -0.4 -16.9 -0.4 -16.5 L-0.4 -16.2 Q-0.25 -16.05 -0.25 -15.75 L-0.3 -15.15 -0.3 -14.7 Q-0.3 -14.55 -0.15 -14.4 L0.05 -14.15 Q0.15 -13.95 0.05 -13.75 L0.0 -13.65 -0.25 -13.2 -0.3 -13.15 -0.45 -12.7 -0.45 -12.55 Q-0.45 -12.45 -0.5 -12.15 L-0.7 -11.65 -0.7 -11.4 -0.65 -11.2 -0.65 -11.0 Q-0.65 -10.85 -0.7 -10.8 L-0.85 -10.7 -0.7 -10.7 Q-0.6 -10.9 -0.4 -10.85 L0.0 -10.85 0.05 -10.95 0.2 -11.05 0.3 -11.15 0.4 -11.2 0.4 -11.25 0.45 -11.25 0.85 -11.3 1.4 -11.3 1.7 -11.2 1.9 -11.05 1.5 -11.1 Q1.15 -11.1 0.95 -11.1 L0.85 -11.1 Q0.65 -11.05 0.0 -10.75 L-0.1 -10.65 Q-0.45 -10.5 -0.6 -10.55 L-0.65 -10.55 -0.85 -10.4 -0.9 -10.35 -1.2 -9.2 -1.2 -9.1 -1.25 -8.85 -1.3 -8.85 -1.2 -9.2 -1.2 -9.4 Q-1.15 -9.55 -1.15 -9.8 L-1.15 -9.95 Q-1.15 -10.3 -1.1 -10.4 L-1.0 -10.5 -1.1 -10.55 -1.6 -10.05 -1.75 -9.85 Q-2.05 -9.15 -2.0 -8.85 -2.0 -8.7 -1.8 -8.55 L-1.7 -8.5 Q-1.65 -8.45 -1.55 -8.5 L-1.45 -8.55 -1.6 -8.4 -1.7 -8.4 Q-1.75 -8.4 -1.75 -8.45 -2.05 -8.6 -2.1 -8.8 -2.2 -9.15 -1.8 -9.95 L-1.7 -10.1 Q-1.6 -10.35 -1.3 -10.5 -1.15 -10.6 -1.1 -10.7 L-1.05 -10.75 -0.95 -10.9 -0.9 -11.05 -0.9 -11.3 -0.95 -11.4 Q-1.05 -11.2 -1.35 -11.1 L-1.8 -11.05 -2.25 -11.05 -2.6 -11.05 -2.65 -11.1 -2.9 -11.2 -3.3 -11.3 -3.35 -11.35 -4.15 -11.75 -4.25 -11.85 -4.2 -11.55 -3.8 -10.7 -3.8 -10.65 -3.65 -10.45 -3.6 -10.35 -3.55 -10.3 -2.9 -9.25 -2.85 -9.15 -2.6 -8.8 -2.45 -8.65 Q-2.1 -8.2 -1.8 -8.05 L-1.45 -8.05 -0.65 -8.5 0.4 -9.1 0.7 -9.2 1.25 -9.35 1.65 -9.5 2.0 -9.6 M-0.35 -10.05 L-0.3 -9.95 Q-0.1 -9.85 0.05 -9.75 L0.75 -9.7 1.0 -9.75 1.05 -9.7 0.75 -9.6 0.25 -9.65 Q-0.1 -9.65 -0.35 -9.75 L-0.45 -9.75 Q-0.5 -9.8 -0.55 -9.8 -0.6 -9.85 -0.7 -10.0 -0.75 -10.1 -0.75 -10.2 L-0.7 -10.25 -0.65 -10.25 -0.35 -10.05 M-3.25 -16.95 L-3.25 -17.0 Q-3.2 -16.75 -3.05 -16.6 L-2.95 -16.5 -2.9 -16.5 -2.9 -16.45 -2.7 -16.4 -2.9 -16.75 Q-2.95 -16.85 -3.1 -16.95 L-3.25 -16.95 M-0.6 -16.95 Q-0.65 -17.1 -0.7 -17.25 -0.8 -17.4 -0.9 -17.45 -0.8 -17.0 -0.6 -16.95 M-1.25 -17.2 L-1.45 -17.4 -1.5 -17.4 -1.7 -17.45 Q-1.8 -17.4 -1.95 -17.35 L-2.05 -17.35 -2.05 -17.25 Q-1.85 -17.15 -1.55 -17.0 -1.25 -16.9 -1.15 -16.6 L-1.15 -16.55 -1.05 -16.45 -0.95 -16.25 -0.9 -16.15 -0.9 -16.1 -0.85 -15.95 -0.85 -15.9 -0.7 -15.85 -0.6 -15.85 Q-0.55 -15.8 -0.55 -15.6 L-0.55 -15.35 -0.5 -15.6 Q-0.4 -15.9 -0.5 -16.0 L-0.6 -16.05 -0.6 -16.15 -0.7 -16.25 Q-0.85 -16.4 -1.0 -16.75 -1.15 -17.05 -1.25 -17.2 M-0.9 -16.95 L-0.95 -16.85 -0.75 -16.5 -0.7 -16.5 -0.65 -16.45 -0.65 -16.7 -0.7 -16.8 Q-0.75 -16.9 -0.8 -16.95 L-0.9 -16.95 M-1.1 -16.0 L-1.1 -16.05 -1.25 -16.35 -1.3 -16.4 -1.5 -16.55 -1.6 -16.6 -1.75 -16.7 Q-1.95 -16.85 -2.1 -17.05 L-2.15 -17.0 -2.1 -16.95 -2.25 -17.0 -2.35 -17.0 -2.3 -16.9 -2.2 -16.75 -2.05 -16.7 -2.05 -16.65 -1.9 -16.55 -1.8 -16.55 Q-1.45 -16.4 -1.4 -16.2 L-1.25 -15.9 Q-1.15 -15.75 -1.15 -15.6 L-1.15 -15.55 -1.25 -15.45 -1.25 -15.4 -1.2 -15.45 -1.15 -15.4 -1.0 -15.4 -0.95 -15.35 -0.95 -15.25 -1.0 -14.95 -1.05 -15.1 -1.05 -15.3 -1.15 -15.3 -1.25 -15.35 -1.3 -15.35 -1.4 -15.45 -1.55 -15.45 -1.75 -15.55 Q-1.9 -15.75 -2.1 -16.05 -2.15 -16.15 -2.45 -16.35 L-2.55 -16.45 -2.6 -16.45 Q-2.65 -16.35 -2.75 -16.35 L-2.55 -16.1 -2.5 -16.05 -2.25 -15.9 -1.9 -15.6 -1.75 -15.5 -1.55 -15.35 -1.55 -15.35 Q-1.5 -15.25 -1.5 -15.15 L-1.5 -14.95 -1.5 -14.55 -1.1 -13.95 -1.05 -13.9 -0.95 -13.9 -0.65 -13.75 -0.55 -13.65 Q-0.55 -13.55 -0.6 -13.45 L-0.65 -13.4 -0.7 -13.45 -0.7 -13.5 -0.75 -13.5 -0.75 -13.55 -0.85 -13.65 -0.85 -13.6 Q-0.85 -13.5 -0.85 -13.4 L-0.9 -13.3 Q-1.0 -13.05 -1.15 -12.9 L-1.3 -12.8 -1.6 -12.35 -1.65 -12.2 Q-1.35 -12.15 -1.1 -12.2 L-1.1 -12.25 Q-0.95 -12.3 -0.75 -12.4 L-0.7 -12.55 -0.7 -12.65 -0.65 -12.85 -0.4 -13.25 -0.35 -13.4 -0.1 -13.75 Q-0.1 -13.95 -0.25 -14.1 L-0.55 -14.6 Q-0.6 -14.95 -0.6 -15.25 L-0.6 -15.3 -0.65 -15.7 -0.75 -15.75 -0.95 -15.75 -1.1 -16.0 M-1.95 -17.5 L-2.0 -17.55 -2.25 -17.55 -2.15 -17.45 Q-2.0 -17.45 -1.95 -17.5 M-2.75 -17.3 L-2.65 -17.25 -2.4 -17.15 -2.35 -17.1 -2.25 -17.1 Q-2.25 -17.2 -2.3 -17.3 -2.45 -17.4 -2.6 -17.5 L-2.75 -17.55 -2.85 -17.55 -2.75 -17.3 M-1.7 -16.25 L-2.1 -16.4 -1.85 -16.1 Q-1.65 -15.75 -1.4 -15.6 L-1.5 -16.0 Q-1.55 -16.2 -1.7 -16.25 M-2.65 -12.5 L-2.0 -12.35 Q-1.9 -12.3 -1.85 -12.3 L-1.65 -12.6 -1.5 -12.85 -1.45 -12.9 -1.7 -13.0 -2.4 -13.3 -3.15 -13.5 -3.2 -13.45 -3.85 -13.45 -3.75 -13.25 -3.55 -12.95 -3.25 -12.75 -2.85 -12.55 -2.65 -12.5 M-2.3 -12.2 L-2.5 -12.25 -2.55 -12.25 -2.9 -12.4 -3.1 -12.5 -3.25 -12.6 -3.3 -12.6 -3.6 -12.85 -3.75 -13.0 -3.95 -13.3 -4.0 -13.35 Q-4.2 -12.7 -4.25 -12.2 -4.0 -11.75 -3.5 -11.5 L-3.4 -11.4 -3.3 -11.35 -2.8 -11.25 -2.65 -11.2 -2.6 -11.2 -2.55 -11.15 -2.35 -11.15 -2.2 -11.15 -1.55 -11.1 -1.45 -11.15 -1.25 -11.2 Q-1.2 -11.15 -1.0 -11.4 L-1.0 -11.45 -0.9 -11.6 -0.8 -11.9 -0.75 -12.1 -0.8 -12.1 Q-1.05 -12.0 -1.6 -12.05 L-2.3 -12.2" fill="#111111" fill-rule="evenodd" stroke="none"/>
    <path d="M1.9 -11.05 Q2.2 -10.8 2.15 -10.3 L2.15 -10.15 2.0 -9.6 1.65 -9.5 1.25 -9.35 1.4 -9.55 Q1.65 -9.85 1.65 -10.15 1.65 -10.35 1.5 -10.55 L1.35 -10.55 0.85 -10.5 0.8 -10.5 0.15 -10.25 Q-0.1 -10.1 -0.25 -10.05 L-0.35 -10.05 -0.65 -10.25 -0.7 -10.25 -0.75 -10.2 Q-0.75 -10.1 -0.7 -10.0 -0.6 -9.85 -0.55 -9.8 -0.5 -9.8 -0.45 -9.75 L-0.7 -9.7 Q-0.9 -9.65 -1.1 -9.25 L-1.15 -9.15 -1.2 -9.1 -1.2 -9.2 -0.9 -10.35 -0.85 -10.4 -0.65 -10.55 -0.6 -10.55 Q-0.45 -10.5 -0.1 -10.65 L0.0 -10.75 Q0.65 -11.05 0.85 -11.1 L0.95 -11.1 Q1.15 -11.1 1.5 -11.1 L1.9 -11.05 M-2.6 -8.8 L-2.85 -9.15 -2.9 -9.25 -3.55 -10.3 -3.6 -10.35 -3.65 -10.45 -3.8 -10.65 -3.8 -10.7 -4.2 -11.55 -4.25 -11.85 -4.15 -11.75 -3.35 -11.35 -3.3 -11.3 -2.9 -11.2 -2.65 -11.1 -2.6 -11.05 -2.25 -11.05 Q-2.3 -10.75 -2.35 -10.3 L-2.4 -10.25 Q-2.6 -9.2 -2.6 -8.8 M-1.6 -8.4 L-1.45 -8.55 -1.55 -8.5 Q-1.65 -8.45 -1.7 -8.5 L-1.8 -8.55 Q-2.0 -8.7 -2.0 -8.85 -2.05 -9.15 -1.75 -9.85 L-1.6 -10.05 -1.1 -10.55 -1.0 -10.5 -1.1 -10.4 Q-1.15 -10.3 -1.15 -9.95 L-1.15 -9.8 Q-1.15 -9.55 -1.2 -9.4 L-1.2 -9.2 -1.3 -8.85 Q-1.4 -8.5 -1.6 -8.4 M-2.7 -10.1 L-2.7 -10.1" fill="#13643c" fill-rule="evenodd" stroke="none"/>
    <path d="M1.25 -9.35 L0.7 -9.2 0.4 -9.1 -0.65 -8.5 -1.45 -8.05 -1.8 -8.05 Q-2.1 -8.2 -2.45 -8.65 L-2.6 -8.8 Q-2.6 -9.2 -2.4 -10.25 L-2.35 -10.3 Q-2.3 -10.75 -2.25 -11.05 L-1.8 -11.05 -1.35 -11.1 Q-1.05 -11.2 -0.95 -11.4 L-0.9 -11.3 -0.9 -11.05 -0.95 -10.9 -1.05 -10.75 -1.1 -10.7 Q-1.15 -10.6 -1.3 -10.5 -1.6 -10.35 -1.7 -10.1 L-1.8 -9.95 Q-2.2 -9.15 -2.1 -8.8 -2.05 -8.6 -1.75 -8.45 -1.75 -8.4 -1.7 -8.4 L-1.6 -8.4 Q-1.4 -8.5 -1.3 -8.85 L-1.25 -8.85 -1.2 -9.1 -1.15 -9.15 -1.1 -9.25 Q-0.9 -9.65 -0.7 -9.7 L-0.45 -9.75 -0.35 -9.75 Q-0.1 -9.65 0.25 -9.65 L0.75 -9.6 1.05 -9.7 1.0 -9.75 0.75 -9.7 0.05 -9.75 Q-0.1 -9.85 -0.3 -9.95 L-0.35 -10.05 -0.25 -10.05 Q-0.1 -10.1 0.15 -10.25 L0.8 -10.5 0.85 -10.5 1.35 -10.55 1.5 -10.55 Q1.65 -10.35 1.65 -10.15 1.65 -9.85 1.4 -9.55 L1.25 -9.35 M-2.7 -10.1 L-2.7 -10.1" fill="#1c9558" fill-rule="evenodd" stroke="none"/>
    <path d="M-2.65 -12.5 L-2.85 -12.55 -3.25 -12.75 -3.55 -12.95 -3.75 -13.25 -3.85 -13.45 -3.2 -13.45 -3.15 -13.5 -2.4 -13.3 -1.7 -13.0 -1.45 -12.9 -1.5 -12.85 -1.65 -12.6 -1.85 -12.3 Q-1.9 -12.3 -2.0 -12.35 L-2.65 -12.5 M-2.3 -12.2 L-2.3 -11.65 -2.35 -11.35 -2.35 -11.15 -2.55 -11.15 -2.6 -11.2 -2.65 -11.2 -2.8 -11.25 -3.3 -11.35 -3.4 -11.4 -3.5 -11.5 Q-4.0 -11.75 -4.25 -12.2 -4.2 -12.7 -4.0 -13.35 L-3.95 -13.3 -3.75 -13.0 -3.6 -12.85 -3.3 -12.6 -3.25 -12.6 -3.1 -12.5 -2.9 -12.4 -2.55 -12.25 -2.5 -12.25 -2.3 -12.2" fill="#b4be2e" fill-rule="evenodd" stroke="none"/>
    <path d="M-2.35 -11.15 L-2.35 -11.35 -2.3 -11.65 -2.3 -12.2 -1.6 -12.05 Q-1.05 -12.0 -0.8 -12.1 L-0.75 -12.1 -0.8 -11.9 -0.9 -11.6 -1.0 -11.45 -1.0 -11.4 Q-1.2 -11.15 -1.25 -11.2 L-1.45 -11.15 -1.55 -11.1 -2.2 -11.15 -2.35 -11.15" fill="#e2df65" fill-rule="evenodd" stroke="none"/>
    <path d="M-0.85 -13.6 L-0.85 -13.65 -0.75 -13.55 -0.8 -13.6 -0.85 -13.6" fill="#bec6a8" fill-rule="evenodd" stroke="none"/>
    <path d="M-2.05 -17.35 L-1.65 -17.2 -1.25 -17.2 Q-1.15 -17.05 -1.0 -16.75 -0.85 -16.4 -0.7 -16.25 L-0.95 -16.25 -1.05 -16.45 -1.15 -16.55 -1.15 -16.6 Q-1.25 -16.9 -1.55 -17.0 -1.85 -17.15 -2.05 -17.25 L-2.05 -17.35 M-0.6 -16.05 L-0.5 -16.0 Q-0.4 -15.9 -0.5 -15.6 L-0.55 -15.35 -0.55 -15.6 Q-0.55 -15.8 -0.6 -15.85 L-0.7 -15.85 -0.75 -15.95 -0.7 -16.0 -0.55 -16.05 -0.6 -16.05 M-0.9 -16.95 L-0.8 -16.95 Q-0.75 -16.9 -0.7 -16.8 L-0.65 -16.7 -0.65 -16.45 -0.7 -16.5 -0.75 -16.5 -0.95 -16.85 -0.9 -16.95 M-1.6 -16.6 L-1.5 -16.55 -1.3 -16.4 -1.25 -16.35 -1.1 -16.05 -1.1 -16.0 -1.15 -16.0 -1.25 -15.9 -1.4 -16.2 Q-1.45 -16.4 -1.8 -16.55 L-1.9 -16.55 -2.05 -16.65 -1.75 -16.6 -1.6 -16.6 M-0.65 -15.7 L-0.6 -15.3 -0.6 -15.25 Q-0.6 -14.95 -0.55 -14.6 L-0.25 -14.1 Q-0.1 -13.95 -0.1 -13.75 L-0.35 -13.4 -0.4 -13.25 -0.65 -12.85 -0.7 -12.65 -0.7 -12.55 -0.75 -12.4 Q-0.95 -12.3 -1.1 -12.25 L-1.1 -12.2 -1.2 -12.25 Q-1.25 -12.3 -1.35 -12.35 L-1.35 -12.4 -1.05 -12.7 -0.85 -13.1 -0.75 -13.35 -0.7 -13.4 -0.7 -13.45 -0.65 -13.4 -0.6 -13.45 Q-0.55 -13.55 -0.55 -13.65 L-0.65 -13.75 -0.8 -13.95 -1.1 -14.3 Q-1.35 -14.55 -1.4 -14.65 L-1.5 -14.95 -1.5 -15.15 -1.3 -15.2 Q-1.1 -15.2 -1.05 -15.25 L-1.05 -15.3 -1.05 -15.1 -1.0 -14.95 -0.95 -15.25 -0.95 -15.35 -1.0 -15.4 -1.15 -15.4 -1.2 -15.45 -1.25 -15.4 -1.25 -15.45 -1.15 -15.55 -0.95 -15.55 Q-0.75 -15.55 -0.7 -15.65 L-0.65 -15.7 M-1.55 -15.35 L-1.75 -15.5 -1.9 -15.6 -2.25 -15.9 Q-2.2 -15.95 -2.25 -16.1 -2.35 -16.25 -2.45 -16.35 -2.15 -16.15 -2.1 -16.05 -1.9 -15.75 -1.75 -15.55 L-1.55 -15.45 -1.55 -15.35" fill="#9aa87b" fill-rule="evenodd" stroke="none"/>
    <path d="M-0.6 -16.95 Q-0.8 -17.0 -0.9 -17.45 -0.8 -17.4 -0.7 -17.25 -0.65 -17.1 -0.6 -16.95 M-3.25 -16.95 L-3.1 -16.95 Q-2.95 -16.85 -2.9 -16.75 L-2.7 -16.4 -2.9 -16.45 -2.9 -16.5 -2.95 -16.5 -3.05 -16.6 Q-3.2 -16.75 -3.25 -17.0 L-3.25 -16.95 M-1.95 -17.5 Q-2.0 -17.45 -2.15 -17.45 L-2.25 -17.55 -2.0 -17.55 -1.95 -17.5 M-2.75 -17.3 L-2.85 -17.55 -2.75 -17.55 -2.6 -17.5 Q-2.45 -17.4 -2.3 -17.3 -2.25 -17.2 -2.25 -17.1 L-2.35 -17.1 -2.4 -17.15 -2.65 -17.25 -2.75 -17.3" fill="#fdfec2" fill-rule="evenodd" stroke="none"/>
    <path d="M-2.05 -17.35 L-1.95 -17.35 Q-1.8 -17.4 -1.7 -17.45 L-1.5 -17.4 -1.45 -17.4 -1.25 -17.2 -1.65 -17.2 -2.05 -17.35 M-0.7 -16.25 L-0.6 -16.15 -0.6 -16.05 -0.55 -16.05 -0.7 -16.0 -0.75 -15.95 -0.7 -15.85 -0.85 -15.9 -0.85 -15.95 -0.9 -16.1 -0.9 -16.15 -0.95 -16.25 -0.7 -16.25 M-1.6 -16.6 L-1.75 -16.6 -2.05 -16.65 -2.05 -16.7 -2.2 -16.75 -2.3 -16.9 -2.35 -17.0 -2.25 -17.0 -2.1 -16.95 -2.15 -17.0 -2.1 -17.05 Q-1.95 -16.85 -1.75 -16.7 L-1.6 -16.6 M-1.25 -15.9 L-1.15 -16.0 -1.1 -16.0 -0.95 -15.75 -0.75 -15.75 -0.65 -15.7 -0.7 -15.65 Q-0.75 -15.55 -0.95 -15.55 L-1.15 -15.55 -1.15 -15.6 Q-1.15 -15.75 -1.25 -15.9 M-1.1 -12.2 Q-1.35 -12.15 -1.65 -12.2 L-1.6 -12.35 -1.3 -12.8 -1.15 -12.9 Q-1.0 -13.05 -0.9 -13.3 L-0.85 -13.4 Q-0.85 -13.5 -0.85 -13.6 L-0.8 -13.6 -0.75 -13.55 -0.75 -13.5 -0.7 -13.5 -0.7 -13.45 -0.7 -13.4 -0.75 -13.35 -0.85 -13.1 -1.05 -12.7 -1.35 -12.4 -1.35 -12.35 Q-1.25 -12.3 -1.2 -12.25 L-1.1 -12.2 M-0.65 -13.75 L-0.95 -13.9 -1.05 -13.9 -1.1 -13.95 -1.5 -14.55 -1.5 -14.95 -1.4 -14.65 Q-1.35 -14.55 -1.1 -14.3 L-0.8 -13.95 -0.65 -13.75 M-1.5 -15.15 Q-1.5 -15.25 -1.55 -15.35 L-1.55 -15.35 -1.55 -15.45 -1.4 -15.45 -1.3 -15.35 -1.25 -15.35 -1.15 -15.3 -1.05 -15.3 -1.05 -15.25 Q-1.1 -15.2 -1.3 -15.2 L-1.5 -15.15 M-2.25 -15.9 L-2.5 -16.05 -2.55 -16.1 -2.75 -16.35 Q-2.65 -16.35 -2.6 -16.45 L-2.55 -16.45 -2.45 -16.35 Q-2.35 -16.25 -2.25 -16.1 -2.2 -15.95 -2.25 -15.9" fill="#788659" fill-rule="evenodd" stroke="none"/>
  </g>
</svg>
