<?xml version="1.0" encoding="UTF-8" standalone="no"?>
<svg xmlns:ffdec="https://www.free-decompiler.com/flash" xmlns:xlink="http://www.w3.org/1999/xlink" ffdec:objectType="shape" height="7.3px" width="5.35px" xmlns="http://www.w3.org/2000/svg">
  <g transform="matrix(1.0, 0.0, 0.0, 1.0, 0.85, 12.6)">
    <path d="M3.1 -12.6 L3.2 -12.6 3.65 -12.25 3.75 -12.05 Q3.9 -11.85 4.05 -11.6 L4.2 -11.25 4.25 -11.1 4.25 -11.05 Q4.4 -10.65 4.45 -10.3 L4.5 -10.05 4.45 -9.6 4.4 -9.5 4.35 -9.2 4.15 -8.8 3.95 -8.35 3.95 -8.4 3.4 -7.55 3.3 -7.4 3.05 -7.05 Q2.2 -6.15 1.5 -5.75 L1.05 -5.5 1.0 -5.5 Q0.55 -5.3 0.0 -5.3 L-0.15 -5.3 Q-0.7 -6.3 -0.85 -7.2 L-0.85 -7.25 Q-0.85 -8.05 -0.45 -9.1 L-0.35 -9.45 -0.15 -10.0 -0.1 -10.05 -0.1 -10.1 -0.05 -10.15 0.0 -10.15 0.0 -10.2 0.05 -10.2 Q0.4 -10.4 0.65 -10.6 L0.75 -10.65 Q1.0 -10.9 1.25 -11.2 1.7 -11.8 1.8 -12.3 L1.9 -12.35 2.05 -12.4 3.1 -12.6 M1.55 -6.1 Q2.5 -6.8 3.15 -7.65 3.4 -7.95 3.6 -8.35 L3.8 -8.75 4.2 -9.6 4.25 -10.0 Q4.25 -10.55 3.95 -11.25 L3.65 -11.65 3.25 -12.2 Q3.05 -12.3 2.75 -12.35 L2.65 -12.35 Q2.25 -12.3 1.9 -12.15 1.85 -11.85 1.4 -11.15 1.1 -10.6 0.75 -10.35 L1.35 -10.3 Q2.15 -10.2 2.45 -9.9 L2.45 -9.85 1.95 -10.05 Q1.45 -10.25 0.95 -10.25 L0.45 -10.2 0.4 -10.15 0.2 -10.1 Q0.05 -9.95 -0.05 -9.8 L-0.05 -9.7 -0.5 -8.1 -0.6 -7.35 -0.6 -6.7 Q-0.55 -6.4 -0.35 -6.1 L-0.25 -5.85 0.0 -5.55 Q0.55 -5.55 0.85 -5.65 1.2 -5.85 1.55 -6.1" fill="#000000" fill-rule="evenodd" stroke="none"/>
    <path d="M2.75 -12.35 Q3.05 -12.3 3.25 -12.2 L3.65 -11.65 3.95 -11.25 Q4.25 -10.55 4.25 -10.0 L4.2 -9.6 3.8 -8.75 3.6 -8.35 Q3.4 -7.95 3.15 -7.65 2.5 -6.8 1.55 -6.1 1.9 -6.7 2.2 -7.7 2.45 -8.45 2.6 -9.3 L2.75 -10.1 Q2.75 -10.25 2.6 -10.45 2.5 -10.65 2.5 -10.75 2.5 -10.8 2.75 -11.2 2.95 -11.55 2.95 -11.85 2.95 -12.2 2.75 -12.35" fill="#464e59" fill-rule="evenodd" stroke="none"/>
    <path d="M1.55 -6.1 Q1.2 -5.85 0.85 -5.65 0.55 -5.55 0.0 -5.55 L-0.25 -5.85 -0.35 -6.1 Q-0.55 -6.4 -0.6 -6.7 L-0.6 -7.35 -0.5 -8.1 -0.05 -9.7 -0.05 -9.8 Q0.05 -9.95 0.2 -10.1 L0.4 -10.15 0.45 -10.2 0.95 -10.25 Q1.45 -10.25 1.95 -10.05 L2.45 -9.85 2.45 -9.9 Q2.15 -10.2 1.35 -10.3 L0.75 -10.35 Q1.1 -10.6 1.4 -11.15 1.85 -11.85 1.9 -12.15 2.25 -12.3 2.65 -12.35 L2.75 -12.35 Q2.95 -12.2 2.95 -11.85 2.95 -11.55 2.75 -11.2 2.5 -10.8 2.5 -10.75 2.5 -10.65 2.6 -10.45 2.75 -10.25 2.75 -10.1 L2.6 -9.3 Q2.45 -8.45 2.2 -7.7 1.9 -6.7 1.55 -6.1" fill="#3a4749" fill-rule="evenodd" stroke="none"/>
  </g>
</svg>
