<?xml version="1.0" encoding="UTF-8" standalone="no"?>
<svg xmlns:ffdec="https://www.free-decompiler.com/flash" xmlns:xlink="http://www.w3.org/1999/xlink" ffdec:objectType="shape" height="10.7px" width="6.15px" xmlns="http://www.w3.org/2000/svg">
  <g transform="matrix(1.0, 0.0, 0.0, 1.0, -0.1, 12.7)">
    <path d="M5.9 -7.1 L6.0 -6.7 5.95 -6.65 6.0 -6.6 Q6.1 -6.7 6.1 -7.1 6.1 -7.2 6.0 -7.35 L5.85 -7.55 5.85 -7.5 5.9 -7.1 M3.1 -12.7 L3.35 -12.7 Q3.5 -12.45 3.5 -12.25 3.55 -11.95 3.0 -10.55 L2.75 -9.95 Q2.5 -9.4 2.3 -9.15 L2.2 -8.9 Q2.2 -8.65 2.3 -8.4 L2.7 -7.95 3.1 -7.45 3.35 -7.2 3.45 -7.25 Q3.6 -7.25 3.8 -7.05 L3.95 -6.75 4.0 -6.75 4.05 -6.65 4.1 -6.6 Q4.3 -6.45 4.45 -6.45 L4.55 -6.65 4.6 -6.85 4.65 -7.0 4.65 -7.6 4.8 -7.75 4.9 -7.75 5.0 -7.8 Q5.05 -7.9 5.25 -7.9 L5.55 -7.95 Q5.75 -7.85 5.8 -7.75 L5.95 -7.7 Q6.1 -7.65 6.15 -7.45 L6.2 -7.3 Q6.25 -7.1 6.25 -6.7 6.25 -6.55 6.2 -6.4 6.1 -6.25 5.95 -6.25 5.85 -6.25 5.85 -6.1 5.8 -5.75 5.75 -5.7 5.6 -5.5 5.4 -5.35 5.3 -5.3 5.0 -5.2 L4.7 -5.2 4.25 -5.35 4.25 -5.2 Q4.2 -4.6 3.95 -3.3 L3.9 -2.95 3.9 -2.9 3.85 -2.7 3.8 -2.45 3.5 -2.15 Q3.4 -2.0 3.25 -2.0 L3.1 -2.0 Q2.7 -2.0 1.7 -3.35 1.5 -3.65 1.3 -4.05 L0.95 -4.75 Q0.7 -5.1 0.4 -6.0 0.1 -6.95 0.1 -7.45 0.1 -8.4 0.2 -8.95 0.25 -9.35 0.4 -9.95 L0.55 -10.5 Q0.6 -10.75 0.85 -11.25 1.05 -11.7 1.1 -12.0 L1.45 -12.2 1.45 -12.15 1.3 -11.8 Q1.15 -11.55 1.0 -11.1 L0.8 -10.45 0.8 -10.4 0.75 -10.35 0.65 -9.95 0.55 -9.3 0.5 -9.0 Q0.35 -8.0 0.35 -7.5 0.35 -6.25 1.25 -4.4 2.05 -2.75 3.0 -2.3 2.85 -2.55 2.75 -2.8 L2.7 -2.85 2.6 -3.25 Q2.5 -3.65 2.5 -4.1 L2.55 -5.1 2.55 -5.15 2.6 -5.35 2.85 -5.95 3.1 -6.45 3.35 -6.7 3.55 -6.8 Q3.65 -6.8 3.65 -6.9 3.65 -7.1 3.4 -7.05 L3.25 -7.0 3.25 -7.05 3.2 -7.05 3.1 -6.95 2.2 -6.95 Q1.7 -7.05 1.25 -7.2 L1.15 -7.2 Q0.8 -7.35 0.65 -7.45 L0.6 -7.6 Q0.6 -7.75 1.15 -7.5 L1.3 -7.4 1.4 -7.35 1.65 -7.25 1.85 -7.15 1.9 -7.15 2.2 -7.1 3.1 -7.1 3.15 -7.15 3.1 -7.15 Q2.9 -7.35 2.5 -8.0 L2.4 -8.1 2.05 -8.65 1.9 -8.95 1.95 -9.1 2.0 -9.2 Q2.1 -9.45 2.35 -9.95 L2.65 -10.5 2.95 -11.1 3.0 -11.1 3.05 -11.25 3.1 -11.5 3.15 -11.55 3.2 -11.95 3.25 -12.25 Q3.2 -12.55 3.1 -12.7 M5.1 -7.3 L5.25 -7.1 5.2 -7.05 5.35 -7.0 5.5 -6.9 5.5 -7.0 5.4 -7.35 Q5.3 -7.6 5.05 -7.65 L5.0 -7.6 Q4.85 -7.55 4.8 -7.45 L4.8 -7.0 4.9 -7.1 5.05 -7.1 5.0 -7.3 5.0 -7.35 4.95 -7.5 5.0 -7.45 5.1 -7.3 M5.45 -7.6 Q5.65 -7.4 5.65 -7.2 5.7 -7.1 5.65 -6.85 L5.8 -6.8 5.85 -6.95 Q5.85 -7.3 5.75 -7.5 5.55 -7.85 5.2 -7.75 5.35 -7.7 5.45 -7.6 M5.2 -6.75 L5.2 -6.65 5.25 -6.65 5.35 -6.6 5.6 -6.5 5.6 -6.6 5.55 -6.65 5.5 -6.75 Q5.3 -6.95 5.0 -6.95 4.9 -6.95 4.8 -6.75 L4.75 -6.65 4.7 -6.6 4.7 -6.5 4.65 -6.45 4.65 -6.3 4.6 -6.2 4.6 -6.15 4.55 -5.8 4.5 -5.8 4.5 -6.15 4.45 -6.15 Q4.3 -6.15 4.1 -6.25 L3.95 -6.1 3.95 -6.0 3.95 -5.9 4.0 -5.8 4.05 -5.65 4.1 -5.65 Q4.3 -5.55 4.45 -5.45 L4.7 -5.35 4.75 -5.35 4.95 -5.6 Q5.15 -5.85 5.15 -6.1 L5.1 -6.35 Q5.05 -6.45 5.05 -6.55 L5.15 -6.75 5.2 -6.75 M5.25 -6.25 L5.3 -5.8 Q5.3 -5.7 5.15 -5.55 L4.95 -5.3 5.2 -5.45 5.55 -5.7 5.55 -5.65 Q5.7 -5.95 5.7 -6.2 5.7 -6.3 5.75 -6.4 L5.7 -6.4 Q5.45 -6.4 5.2 -6.55 L5.25 -6.25 M3.85 -5.95 L3.9 -6.15 4.0 -6.3 4.05 -6.3 4.0 -6.35 3.7 -6.6 Q3.5 -6.6 3.3 -6.4 L3.15 -6.2 3.1 -6.15 3.1 -6.1 3.05 -6.1 3.0 -6.0 3.1 -6.0 3.6 -5.85 3.8 -5.75 3.85 -5.95 M2.95 -5.85 L2.8 -5.45 Q2.6 -4.55 2.6 -4.25 2.6 -3.95 2.75 -3.2 2.95 -2.25 3.25 -2.25 3.45 -2.25 3.6 -2.65 L3.7 -3.0 4.05 -5.05 4.05 -5.25 4.1 -5.35 4.1 -5.4 3.9 -5.5 3.85 -5.5 3.65 -5.6 3.35 -5.7 3.1 -5.8 2.95 -5.85 M2.35 -2.8 L2.35 -2.8" fill="#111111" fill-rule="evenodd" stroke="none"/>
    <path d="M1.45 -12.2 Q1.75 -12.35 2.05 -12.45 2.15 -11.9 2.85 -11.9 3.1 -11.9 3.2 -11.95 L3.15 -11.55 3.1 -11.5 3.05 -11.25 3.0 -11.1 2.95 -11.1 2.65 -10.5 2.35 -9.95 Q2.1 -9.45 2.0 -9.2 L1.95 -9.1 1.9 -8.95 2.05 -8.65 1.3 -8.5 1.15 -8.45 1.4 -8.0 Q1.9 -7.35 1.9 -7.25 L1.9 -7.15 1.85 -7.15 1.65 -7.25 1.4 -7.35 1.3 -7.4 1.15 -7.5 Q0.6 -7.75 0.6 -7.6 L0.65 -7.45 Q0.8 -7.35 1.15 -7.2 L1.25 -7.2 Q1.15 -7.15 1.15 -7.1 1.15 -7.05 1.2 -6.95 1.55 -6.75 1.9 -6.65 2.2 -6.5 3.1 -6.45 L2.85 -5.95 2.6 -5.35 2.55 -5.15 2.55 -5.1 2.5 -4.1 Q2.5 -3.65 2.6 -3.25 L2.7 -2.85 2.75 -2.8 Q2.85 -2.55 3.0 -2.3 2.05 -2.75 1.25 -4.4 0.35 -6.25 0.35 -7.5 0.35 -8.0 0.5 -9.0 L0.55 -9.3 0.65 -9.95 0.75 -10.35 0.8 -10.4 0.8 -10.45 1.0 -11.1 Q1.15 -11.55 1.3 -11.8 L1.45 -12.15 1.45 -12.2 M2.95 -5.85 L3.1 -5.8 3.35 -5.7 3.65 -5.6 3.85 -5.5 3.9 -5.5 4.1 -5.4 4.1 -5.35 4.05 -5.25 4.05 -5.05 3.7 -3.0 3.6 -2.65 Q3.45 -2.25 3.25 -2.25 2.95 -2.25 2.75 -3.2 2.6 -3.95 2.6 -4.25 2.6 -4.55 2.8 -5.45 L2.95 -5.85 M2.35 -2.8 L2.35 -2.8" fill="#0070e0" fill-rule="evenodd" stroke="none"/>
    <path d="M2.05 -12.45 Q2.6 -12.65 3.1 -12.7 3.2 -12.55 3.25 -12.25 L3.2 -11.95 Q3.1 -11.9 2.85 -11.9 2.15 -11.9 2.05 -12.45 M2.05 -8.65 L2.4 -8.1 2.5 -8.0 Q2.9 -7.35 3.1 -7.15 L3.15 -7.15 3.1 -7.1 2.2 -7.1 1.9 -7.15 1.9 -7.25 Q1.9 -7.35 1.4 -8.0 L1.15 -8.45 1.3 -8.5 2.05 -8.65 M1.25 -7.2 Q1.7 -7.05 2.2 -6.95 L3.1 -6.95 3.2 -7.05 3.25 -7.05 3.25 -7.0 3.4 -7.05 Q3.65 -7.1 3.65 -6.9 3.65 -6.8 3.55 -6.8 L3.35 -6.7 3.1 -6.45 Q2.2 -6.5 1.9 -6.65 1.55 -6.75 1.2 -6.95 1.15 -7.05 1.15 -7.1 1.15 -7.15 1.25 -7.2" fill="#80c0f0" fill-rule="evenodd" stroke="none"/>
    <path d="M5.9 -7.1 L5.85 -7.5 5.85 -7.55 6.0 -7.35 Q6.1 -7.2 6.1 -7.1 6.1 -6.7 6.0 -6.6 L5.95 -6.65 6.0 -6.7 5.9 -7.1 M4.9 -7.1 L4.8 -7.0 4.8 -7.45 Q4.85 -7.55 5.0 -7.6 L5.05 -7.65 Q5.3 -7.6 5.4 -7.35 L5.5 -7.0 5.5 -6.9 5.35 -7.0 5.2 -7.05 5.25 -7.1 5.1 -7.3 5.15 -7.25 Q5.1 -7.45 5.05 -7.45 L5.0 -7.45 4.95 -7.5 5.0 -7.35 5.0 -7.4 Q4.95 -7.3 4.9 -7.1 M5.45 -7.6 Q5.35 -7.7 5.2 -7.75 5.55 -7.85 5.75 -7.5 5.85 -7.3 5.85 -6.95 L5.8 -6.8 5.65 -6.85 Q5.7 -7.1 5.65 -7.2 5.65 -7.4 5.45 -7.6 M5.55 -6.65 L5.3 -6.7 5.2 -6.75 5.15 -6.75 Q4.85 -6.7 4.9 -6.45 L4.9 -6.0 Q4.85 -5.7 4.65 -5.7 4.55 -5.7 4.15 -5.9 L4.1 -5.95 3.95 -6.05 3.95 -6.0 3.95 -6.1 4.1 -6.25 Q4.3 -6.15 4.45 -6.15 L4.5 -6.15 4.5 -5.8 4.55 -5.8 4.6 -6.15 4.6 -6.2 4.65 -6.3 4.65 -6.45 4.7 -6.5 4.7 -6.6 4.75 -6.65 4.8 -6.75 Q4.9 -6.95 5.0 -6.95 5.3 -6.95 5.5 -6.75 L5.55 -6.65" fill="#c7a36d" fill-rule="evenodd" stroke="none"/>
    <path d="M4.9 -7.1 Q4.95 -7.3 5.0 -7.4 L5.0 -7.35 5.0 -7.3 5.05 -7.1 4.9 -7.1 M5.0 -7.45 L5.05 -7.45 Q5.1 -7.45 5.15 -7.25 L5.1 -7.3 5.0 -7.45 M5.55 -6.65 L5.6 -6.6 5.6 -6.5 5.35 -6.6 5.25 -6.65 5.2 -6.65 5.2 -6.75 5.3 -6.7 5.55 -6.65 M5.15 -6.75 L5.05 -6.55 Q5.05 -6.45 5.1 -6.35 L5.15 -6.1 Q5.15 -5.85 4.95 -5.6 L4.75 -5.35 4.7 -5.35 4.45 -5.45 Q4.3 -5.55 4.1 -5.65 L4.05 -5.65 4.0 -5.8 3.95 -5.9 3.95 -6.0 3.95 -6.05 4.1 -5.95 4.15 -5.9 Q4.55 -5.7 4.65 -5.7 4.85 -5.7 4.9 -6.0 L4.9 -6.45 Q4.85 -6.7 5.15 -6.75 M5.25 -6.25 L5.2 -6.55 Q5.45 -6.4 5.7 -6.4 L5.75 -6.4 Q5.7 -6.3 5.7 -6.2 5.7 -5.95 5.55 -5.65 L5.55 -5.7 5.2 -5.45 4.95 -5.3 5.15 -5.55 Q5.3 -5.7 5.3 -5.8 L5.25 -6.25" fill="#a9854f" fill-rule="evenodd" stroke="none"/>
    <path d="M3.3 -6.4 Q3.5 -6.6 3.7 -6.6 L4.0 -6.35 4.05 -6.3 4.0 -6.3 3.9 -6.15 3.85 -5.95 3.85 -6.05 3.75 -6.05 Q3.35 -6.25 3.35 -6.3 L3.35 -6.45 3.3 -6.4" fill="#9c9581" fill-rule="evenodd" stroke="none"/>
    <path d="M3.3 -6.4 L3.35 -6.45 3.35 -6.3 Q3.35 -6.25 3.75 -6.05 L3.85 -6.05 3.85 -5.95 3.8 -5.75 3.6 -5.85 3.1 -6.0 3.0 -6.0 3.05 -6.1 3.1 -6.1 3.1 -6.15 3.15 -6.2 3.3 -6.4" fill="#666154" fill-rule="evenodd" stroke="none"/>
  </g>
</svg>
