<?xml version="1.0" encoding="UTF-8" standalone="no"?>
<svg xmlns:ffdec="https://www.free-decompiler.com/flash" xmlns:xlink="http://www.w3.org/1999/xlink" ffdec:objectType="shape" height="11.25px" width="12.85px" xmlns="http://www.w3.org/2000/svg">
  <g transform="matrix(1.0, 0.0, 0.0, 1.0, 3.5, 5.1)">
    <path d="M-0.2 -1.45 L-0.25 -1.4 -0.4 -1.3 -0.65 -1.05 -0.9 -0.75 -1.2 -0.4 -1.3 -0.2 -1.55 0.15 -1.6 0.2 -1.65 0.3 Q-2.0 0.95 -2.0 1.05 -2.0 1.85 -1.55 2.35 L-1.2 2.6 -1.2 2.65 -1.15 2.5 Q-1.1 2.1 -1.1 1.8 -1.1 1.0 -0.6 1.75 -0.2 2.35 0.05 3.1 L0.45 2.75 Q0.25 2.5 -0.15 1.7 L-0.1 1.65 -0.05 1.65 Q0.3 1.4 0.95 0.65 L1.85 -0.3 Q1.9 -0.25 1.9 -0.1 1.9 -0.05 1.55 0.3 0.7 1.35 0.3 1.6 L0.25 1.7 0.2 1.75 0.2 1.85 0.35 2.15 0.5 2.4 0.6 2.55 1.05 2.15 Q1.15 2.2 1.15 2.3 L1.15 2.4 1.1 3.7 1.1 3.95 1.35 5.3 Q1.35 5.4 1.3 5.4 L0.95 5.5 0.45 5.5 0.2 5.55 Q-0.1 5.55 -0.25 5.65 L-1.35 5.8 Q-2.15 5.8 -2.9 5.65 L-3.4 5.45 -3.45 5.45 -3.5 5.4 -3.45 5.35 Q-3.4 5.25 -3.1 5.05 L-3.0 5.0 -2.7 4.8 -2.0 4.4 -2.0 4.35 Q-2.0 4.3 -1.85 4.15 L-1.75 4.0 -1.75 3.95 -3.0 2.7 -3.0 2.65 -2.9 2.6 Q-2.25 2.6 -1.85 2.85 -1.6 3.0 -1.25 3.25 L-1.4 3.0 -1.45 2.85 -1.7 2.55 -2.0 2.0 Q-2.15 1.85 -2.2 1.65 L-2.2 1.6 Q-2.35 1.35 -2.35 1.15 -2.35 1.1 -2.1 0.7 -2.0 0.45 -1.8 0.05 L-1.5 -0.4 Q-1.45 -0.65 -1.15 -1.05 L-0.85 -1.3 Q-0.5 -1.65 0.0 -1.8 0.0 -1.65 -0.2 -1.45 M3.85 -1.5 Q3.5 -1.1 3.5 -0.85 L2.8 0.0 Q2.7 0.1 2.65 0.25 2.5 0.45 2.4 0.65 2.25 1.0 2.25 1.25 L2.3 1.45 2.4 1.75 Q2.55 2.0 2.65 2.1 L2.75 2.15 2.85 2.35 3.15 2.9 3.35 2.25 Q3.5 1.7 3.85 1.6 4.25 1.95 4.5 2.5 L4.85 3.35 4.9 3.35 4.9 3.25 Q4.9 3.05 4.45 2.1 L4.35 1.8 4.4 1.75 4.45 1.65 4.5 1.6 Q4.55 1.4 4.8 1.15 L4.85 1.05 Q5.0 0.75 5.25 0.7 L5.45 0.65 6.1 0.25 Q8.05 -0.85 8.35 -1.2 8.65 -1.5 8.8 -1.85 L8.8 -1.95 Q8.95 -2.5 8.95 -3.35 8.95 -3.9 8.9 -4.2 L8.85 -4.5 9.0 -4.7 Q9.0 -5.0 8.8 -5.0 L8.8 -5.05 Q9.05 -5.15 9.2 -4.35 L9.2 -4.3 Q9.3 -4.25 9.35 -4.1 L9.35 -3.5 Q9.35 -2.1 8.95 -1.3 L8.85 -1.25 Q7.95 -0.6 7.15 -0.2 6.35 0.2 5.55 0.75 4.65 1.4 4.65 1.75 L4.65 1.8 4.6 1.9 Q4.6 1.95 4.8 2.4 L4.8 2.45 5.0 2.8 5.15 3.15 5.5 2.9 Q6.15 2.45 6.35 2.45 6.45 2.45 6.5 2.5 L6.5 2.55 6.15 3.1 Q5.8 3.65 5.8 3.85 L5.7 5.0 5.65 5.4 Q5.55 5.65 5.1 5.65 4.9 5.8 4.2 5.95 L3.0 6.1 2.1 6.1 2.0 6.15 1.9 6.1 1.85 6.1 1.7 6.0 Q1.65 5.85 1.65 5.8 2.05 5.1 2.3 4.8 2.4 4.55 2.4 4.45 2.4 4.25 2.55 4.15 L2.6 4.1 2.7 3.95 Q2.7 3.75 2.45 3.25 L2.2 2.8 2.2 2.7 2.25 2.7 2.2 2.65 2.3 2.65 Q2.5 2.65 2.8 2.85 L2.9 2.95 2.2 1.85 Q2.0 1.55 2.0 1.0 2.0 0.75 2.25 0.35 L2.55 -0.25 Q2.95 -0.85 3.45 -1.25 3.65 -1.45 3.85 -1.5 M3.2 3.45 L2.7 3.1 2.65 3.05 2.75 3.35 Q2.95 3.8 2.95 4.0 L2.95 4.05 3.05 4.05 2.8 4.3 Q2.65 4.45 2.65 4.65 L2.55 4.85 Q2.85 4.55 3.25 4.45 3.95 4.3 4.7 5.2 4.8 5.25 5.05 5.45 L5.15 5.4 5.3 5.3 4.25 4.05 Q4.4 4.15 4.95 4.65 5.3 4.95 5.45 5.1 L5.4 4.9 5.35 4.75 5.65 3.9 6.1 2.8 Q5.85 2.9 5.3 3.3 L5.15 3.4 5.15 3.45 5.1 3.5 4.8 3.7 4.45 2.9 Q4.05 2.05 3.8 1.8 3.6 2.35 3.2 3.45 M0.9 2.65 L0.45 3.1 Q0.15 3.4 0.05 3.4 L-0.35 2.75 Q-0.75 2.0 -0.95 1.8 L-0.9 2.0 Q-0.95 2.75 -1.0 3.15 L-0.95 3.2 Q-0.95 3.25 -1.0 3.3 -1.05 3.55 -1.1 3.55 L-1.8 3.25 Q-2.45 2.9 -2.6 2.9 L-1.95 3.4 Q-1.45 3.8 -1.45 3.95 L-1.4 4.05 Q-1.4 4.1 -1.5 4.15 -1.6 4.15 -1.75 4.25 L-1.7 4.25 -1.65 4.3 -1.65 4.35 Q-1.35 4.5 -0.75 4.85 L-0.05 5.3 0.4 5.3 1.1 5.15 0.9 4.6 Q0.85 4.3 0.85 4.1 L0.9 3.6 0.95 3.5 0.9 3.2 0.9 2.65 M3.5 5.8 L3.95 5.75 4.7 5.5 4.75 5.35 Q4.75 5.25 4.05 4.8 3.55 4.45 3.55 4.55 2.95 4.55 2.5 5.1 L2.4 5.2 2.15 5.45 Q1.9 5.75 1.9 5.8 L1.9 5.85 2.0 5.9 2.35 5.95 2.5 5.95 3.5 5.8 M-2.2 4.8 L-2.25 4.85 -2.7 5.05 -3.0 5.3 -3.05 5.35 Q-2.85 5.4 -2.65 5.5 L-1.85 5.6 -1.45 5.6 Q-1.2 5.6 -0.9 5.5 L-0.85 5.45 -0.4 5.35 -0.15 5.3 Q-0.4 5.15 -0.7 4.95 -1.35 4.55 -1.75 4.45 -1.85 4.6 -2.2 4.8" fill="#111111" fill-rule="evenodd" stroke="none"/>
    <path d="M-0.2 -1.45 L0.4 -1.35 Q0.95 -1.25 1.45 -0.95 1.95 -0.65 1.95 -0.5 L1.85 -0.3 0.95 0.65 Q0.3 1.4 -0.05 1.65 L-0.1 1.65 -0.15 1.7 Q0.25 2.5 0.45 2.75 L0.05 3.1 Q-0.2 2.35 -0.6 1.75 -1.1 1.0 -1.1 1.8 -1.1 2.1 -1.15 2.5 L-1.2 2.65 -1.2 2.6 -1.55 2.35 Q-2.0 1.85 -2.0 1.05 -2.0 0.95 -1.65 0.3 L-1.6 0.2 -1.55 0.15 -1.3 -0.2 -1.2 -0.4 -0.9 -0.75 -0.65 -1.05 -0.4 -1.3 -0.25 -1.4 -0.2 -1.45 M8.8 -5.0 Q9.0 -5.0 9.0 -4.7 L8.85 -4.5 8.9 -4.2 Q8.95 -3.9 8.95 -3.35 8.95 -2.5 8.8 -1.95 L8.8 -1.85 Q8.65 -1.5 8.35 -1.2 8.05 -0.85 6.1 0.25 L5.45 0.65 5.25 0.7 Q5.0 0.75 4.85 1.05 L4.8 1.15 Q4.55 1.4 4.5 1.6 L4.45 1.65 4.4 1.75 4.35 1.8 4.45 2.1 Q4.9 3.05 4.9 3.25 L4.9 3.35 4.85 3.35 4.5 2.5 Q4.25 1.95 3.85 1.6 3.5 1.7 3.35 2.25 L3.15 2.9 2.85 2.35 2.75 2.15 2.65 2.1 Q2.55 2.0 2.4 1.75 L2.3 1.45 2.25 1.25 Q2.25 1.0 2.4 0.65 2.5 0.45 2.65 0.25 2.7 0.1 2.8 0.0 L3.5 -0.85 Q3.5 -1.1 3.85 -1.5 L4.45 -2.05 Q4.9 -2.45 5.85 -3.15 L6.75 -3.75 7.7 -4.2 8.4 -4.85 Q8.65 -5.0 8.8 -5.0" fill="#775028" fill-rule="evenodd" stroke="none"/>
    <path d="M2.4 5.2 Q2.8 5.05 3.1 5.05 3.35 5.05 3.55 5.15 3.65 5.2 4.0 5.45 L3.55 5.8 3.5 5.8 2.5 5.95 2.35 5.95 2.0 5.9 1.9 5.85 1.9 5.8 Q1.9 5.75 2.15 5.45 L2.4 5.2 M-1.85 5.6 L-2.65 5.5 Q-2.85 5.4 -3.05 5.35 L-3.0 5.3 -2.7 5.05 -2.25 4.85 -2.2 4.8 -1.6 4.85 Q-1.35 4.9 -1.15 5.1 L-1.15 5.15 -1.75 5.55 -1.95 5.6 -1.85 5.6" fill="#cccc99" fill-rule="evenodd" stroke="none"/>
    <path d="M2.4 5.2 L2.5 5.1 Q2.95 4.55 3.55 4.55 3.55 4.45 4.05 4.8 4.75 5.25 4.75 5.35 L4.7 5.5 3.95 5.75 3.5 5.8 3.55 5.8 4.0 5.45 Q3.65 5.2 3.55 5.15 3.35 5.05 3.1 5.05 2.8 5.05 2.4 5.2 M0.9 2.65 L0.9 3.2 0.95 3.5 0.9 3.6 0.85 4.1 Q0.85 4.3 0.9 4.6 L1.1 5.15 0.4 5.3 -0.05 5.3 -0.75 4.85 Q-1.35 4.5 -1.65 4.35 L-1.65 4.3 -1.7 4.25 -1.75 4.25 Q-1.6 4.15 -1.5 4.15 -1.4 4.1 -1.4 4.05 L-1.45 3.95 Q-1.45 3.8 -1.95 3.4 L-2.6 2.9 Q-2.45 2.9 -1.8 3.25 L-1.1 3.55 Q-1.05 3.55 -1.0 3.3 -0.95 3.25 -0.95 3.2 L-1.0 3.15 Q-0.95 2.75 -0.9 2.0 L-0.95 1.8 Q-0.75 2.0 -0.35 2.75 L0.05 3.4 Q0.15 3.4 0.45 3.1 L0.9 2.65 M3.2 3.45 Q3.6 2.35 3.8 1.8 4.05 2.05 4.45 2.9 L4.8 3.7 5.1 3.5 5.15 3.45 5.15 3.4 5.3 3.3 Q5.85 2.9 6.1 2.8 L5.65 3.9 5.35 4.75 5.4 4.9 5.45 5.1 Q5.3 4.95 4.95 4.65 4.4 4.15 4.25 4.05 L5.3 5.3 5.15 5.4 5.05 5.45 Q4.8 5.25 4.7 5.2 3.95 4.3 3.25 4.45 2.85 4.55 2.55 4.85 L2.65 4.65 Q2.65 4.45 2.8 4.3 L3.05 4.05 2.95 4.05 2.95 4.0 Q2.95 3.8 2.75 3.35 L2.65 3.05 2.7 3.1 3.2 3.45 M-1.85 5.6 L-1.95 5.6 -1.75 5.55 -1.15 5.15 -1.15 5.1 Q-1.35 4.9 -1.6 4.85 L-2.2 4.8 Q-1.85 4.6 -1.75 4.45 -1.35 4.55 -0.7 4.95 -0.4 5.15 -0.15 5.3 L-0.4 5.35 -0.85 5.45 -0.9 5.5 Q-1.2 5.6 -1.45 5.6 L-1.85 5.6" fill="#949841" fill-rule="evenodd" stroke="none"/>
  </g>
</svg>
