<?xml version="1.0" encoding="UTF-8" standalone="no"?>
<svg xmlns:ffdec="https://www.free-decompiler.com/flash" xmlns:xlink="http://www.w3.org/1999/xlink" ffdec:objectType="shape" height="11.8px" width="10.5px" xmlns="http://www.w3.org/2000/svg">
  <g transform="matrix(1.0, 0.0, 0.0, 1.0, 4.85, 5.85)">
    <path d="M3.0 -4.3 L2.85 -4.95 2.75 -5.35 1.65 -5.65 0.45 -5.65 Q-0.05 -5.55 -0.45 -5.35 L-0.75 -5.2 Q-0.75 -3.8 -1.6 -1.8 L-1.9 -1.05 Q-2.4 0.45 -2.4 1.0 L-2.35 1.55 -2.3 1.95 Q-2.25 2.55 -2.25 2.9 -2.25 3.0 -2.3 3.1 -2.05 3.1 -1.65 3.35 L-1.5 3.4 -0.45 3.9 -0.45 3.8 -0.5 3.65 -0.5 3.6 Q-0.6 3.35 -0.6 3.15 -0.6 2.9 -0.3 2.35 L-0.25 2.25 -0.25 2.15 -0.15 1.95 Q-0.05 1.65 0.0 1.35 L0.0 1.15 -0.2 0.45 Q-0.4 -0.3 -0.4 -0.65 -0.4 -0.9 -0.35 -1.25 L-0.25 -1.6 Q-0.15 -2.25 0.2 -3.0 L0.25 -3.15 0.3 -3.25 0.3 -3.3 0.5 -3.6 0.25 -3.85 0.4 -3.9 0.85 -3.65 0.85 -3.6 0.95 -3.45 1.15 -3.05 Q1.4 -2.5 1.5 -2.25 L1.85 -1.15 1.9 -1.0 Q2.0 -0.9 2.0 -0.75 L2.0 -0.5 2.05 -0.45 1.95 0.5 1.9 0.65 Q1.75 1.4 1.75 1.7 1.75 1.85 2.0 2.3 L2.1 2.5 2.25 2.7 2.25 2.75 2.3 2.85 2.4 3.15 2.5 3.3 2.55 3.6 2.55 4.4 2.8 4.1 Q3.25 3.65 3.95 3.45 L4.0 3.45 4.05 3.5 4.05 3.45 4.0 3.25 Q4.0 2.85 4.05 2.45 L4.1 1.95 4.1 0.9 4.0 0.25 3.9 -0.3 3.4 -1.6 Q3.1 -2.4 3.05 -2.95 3.0 -3.2 3.0 -3.6 L3.0 -4.3 M3.05 -4.9 Q3.25 -4.35 3.35 -3.5 3.45 -2.0 3.8 -1.35 4.25 -0.55 4.4 0.8 4.45 1.3 4.45 2.95 L4.4 3.3 4.4 3.75 5.05 4.7 Q5.55 5.35 5.55 5.55 L5.65 5.65 Q5.65 5.75 5.5 5.85 5.25 5.95 4.8 5.95 L4.05 5.9 4.0 5.9 3.8 5.85 Q3.35 5.75 2.9 5.5 L2.7 5.4 Q2.35 5.3 2.25 5.25 L2.2 5.25 2.2 5.2 Q2.35 4.55 2.35 4.3 2.35 3.85 2.2 3.4 L2.15 3.15 Q2.0 2.85 1.7 2.35 1.4 1.95 1.4 1.65 1.4 1.4 1.55 0.9 L1.7 0.3 1.8 -0.4 1.8 -0.6 1.15 -2.35 Q0.85 -3.05 0.6 -3.45 L0.6 -3.35 Q0.6 -3.2 0.2 -2.3 L0.15 -2.2 Q-0.15 -1.2 -0.15 -0.75 -0.15 -0.6 0.0 0.15 L0.05 0.2 0.1 0.55 Q0.3 1.1 0.3 1.35 0.3 1.55 0.0 2.3 -0.3 3.0 -0.3 3.35 L-0.2 3.95 -0.2 4.05 -0.15 4.05 -0.15 4.3 Q-0.15 4.5 -0.4 4.65 -0.65 4.8 -1.1 4.85 L-1.2 4.8 -3.2 4.95 -3.85 4.95 -4.4 4.9 -4.55 4.9 -4.65 4.85 -4.7 4.85 -4.75 4.8 -4.8 4.8 -4.85 4.7 -4.8 4.65 Q-4.8 4.5 -3.7 3.9 L-3.3 3.65 -2.5 3.1 -2.7 1.7 Q-2.7 0.4 -2.6 0.15 L-2.2 -0.85 -1.85 -1.75 Q-1.35 -3.15 -1.15 -4.25 L-1.15 -4.55 -1.1 -4.85 -1.1 -5.2 -0.85 -5.45 -0.85 -5.4 -0.65 -5.5 Q-0.15 -5.75 0.45 -5.85 L1.6 -5.85 Q2.7 -5.7 2.85 -5.45 2.95 -5.45 3.0 -5.3 3.05 -5.05 3.1 -4.95 L3.05 -4.9 M2.85 4.35 Q2.7 4.6 2.5 5.05 L2.95 5.25 3.3 5.45 3.7 5.55 3.5 5.55 3.55 5.6 3.8 5.65 3.85 5.7 4.65 5.7 4.8 5.7 5.4 5.65 4.75 4.75 Q4.25 4.05 4.15 3.75 L4.15 3.7 4.1 3.7 Q3.35 3.8 2.95 4.25 L2.85 4.35 M-3.0 3.8 L-3.2 3.9 -3.3 4.0 -4.4 4.7 -3.8 4.75 -2.95 4.7 -2.35 4.7 -1.0 4.45 -0.5 4.35 -0.4 4.25 -0.4 4.15 Q-0.75 4.1 -1.45 3.75 -2.2 3.4 -2.4 3.3 -2.55 3.5 -3.0 3.8" fill="#000000" fill-rule="evenodd" stroke="none"/>
    <path d="M4.1 3.7 L4.15 3.7 4.15 3.75 4.1 3.7" fill="#cccccc" fill-rule="evenodd" stroke="none"/>
    <path d="M3.0 -4.3 L3.0 -3.6 Q3.0 -3.2 3.05 -2.95 3.1 -2.4 3.4 -1.6 L3.9 -0.3 4.0 0.25 4.1 0.9 4.1 1.95 4.05 2.45 Q4.0 2.85 4.0 3.25 L4.05 3.45 4.05 3.5 4.0 3.45 3.95 3.45 Q3.25 3.65 2.8 4.1 L2.55 4.4 2.55 3.6 2.5 3.3 2.4 3.15 2.3 2.85 2.25 2.75 2.25 2.7 2.1 2.5 2.0 2.3 Q1.75 1.85 1.75 1.7 1.75 1.4 1.9 0.65 L1.95 0.5 2.05 -0.45 2.0 -0.5 2.0 -0.75 Q2.0 -0.9 1.9 -1.0 L1.85 -1.15 1.5 -2.25 Q1.4 -2.5 1.15 -3.05 L0.95 -3.45 0.85 -3.6 0.85 -3.65 0.4 -3.9 0.25 -3.85 0.5 -3.6 0.3 -3.3 0.3 -3.25 0.25 -3.15 0.2 -3.0 Q-0.15 -2.25 -0.25 -1.6 L-0.35 -1.25 Q-0.4 -0.9 -0.4 -0.65 -0.4 -0.3 -0.2 0.45 L0.0 1.15 0.0 1.35 Q-0.05 1.65 -0.15 1.95 L-0.25 2.15 -0.25 2.25 -0.3 2.35 Q-0.6 2.9 -0.6 3.15 -0.6 3.35 -0.5 3.6 L-0.5 3.65 -0.45 3.8 -0.45 3.9 -1.5 3.4 -1.65 3.35 Q-2.05 3.1 -2.3 3.1 -2.25 3.0 -2.25 2.9 -2.25 2.55 -2.3 1.95 L-2.35 1.55 -2.4 1.0 Q-2.4 0.45 -1.9 -1.05 L-1.6 -1.8 Q-0.75 -3.8 -0.75 -5.2 L-0.45 -5.35 Q-0.05 -5.55 0.45 -5.65 L1.65 -5.65 2.75 -5.35 2.85 -4.95 3.0 -4.3" fill="#330000" fill-rule="evenodd" stroke="none"/>
    <path d="M2.85 4.35 L2.95 4.25 Q3.35 3.8 4.1 3.7 L4.15 3.75 Q4.25 4.05 4.75 4.75 L5.4 5.65 4.8 5.7 4.65 5.7 4.6 5.7 Q4.4 5.25 4.2 5.15 4.05 5.05 3.25 4.7 2.95 4.55 2.85 4.35 M-2.95 4.7 L-2.95 4.65 -3.05 4.3 -3.0 3.8 Q-2.55 3.5 -2.4 3.3 -2.2 3.4 -1.45 3.75 -0.75 4.1 -0.4 4.15 L-0.4 4.25 -0.5 4.35 -1.0 4.45 -2.35 4.7 -2.95 4.7" fill="#524f59" fill-rule="evenodd" stroke="none"/>
    <path d="M4.65 5.7 L3.85 5.7 3.8 5.65 3.55 5.6 3.5 5.55 3.7 5.55 3.3 5.45 2.95 5.25 2.5 5.05 Q2.7 4.6 2.85 4.35 2.95 4.55 3.25 4.7 4.05 5.05 4.2 5.15 4.4 5.25 4.6 5.7 L4.65 5.7 M-2.95 4.7 L-3.8 4.75 -4.4 4.7 -3.3 4.0 -3.2 3.9 -3.0 3.8 -3.05 4.3 -2.95 4.65 -2.95 4.7" fill="#666479" fill-rule="evenodd" stroke="none"/>
  </g>
</svg>
