<?xml version="1.0" encoding="UTF-8" standalone="no"?>
<svg xmlns:ffdec="https://www.free-decompiler.com/flash" xmlns:xlink="http://www.w3.org/1999/xlink" ffdec:objectType="shape" height="11.4px" width="13.15px" xmlns="http://www.w3.org/2000/svg">
  <g transform="matrix(1.0, 0.0, 0.0, 1.0, 5.4, 4.9)">
    <path d="M3.85 -4.15 Q3.95 -4.5 4.6 -4.6 5.35 -4.75 5.25 -4.2 5.4 -3.6 5.6 -2.45 L5.8 -0.95 5.8 -0.8 5.9 -0.5 6.0 -0.05 6.05 0.1 6.05 0.5 6.0 0.9 6.0 1.0 Q6.0 1.05 6.3 1.6 6.6 2.15 6.55 2.75 L6.45 3.2 Q6.45 3.45 6.5 3.5 L6.5 3.7 Q6.6 3.75 6.75 3.95 7.0 4.25 7.0 4.45 7.0 4.6 7.05 4.8 L7.1 5.0 Q7.05 5.1 7.05 5.25 L7.1 5.25 7.15 5.45 7.35 5.65 Q7.7 6.1 7.75 6.35 L7.7 6.35 7.65 6.45 6.6 6.5 5.65 6.45 4.85 6.2 4.75 6.15 Q4.6 6.05 4.55 5.9 4.55 5.85 4.55 5.8 L4.55 5.6 4.4 5.3 4.25 4.95 Q4.25 4.85 4.35 4.7 L4.4 4.5 Q4.3 4.4 4.3 4.35 4.3 4.3 4.35 4.25 L4.2 4.05 Q4.05 3.85 4.05 3.6 4.05 3.4 4.15 2.95 L4.3 2.5 4.25 2.1 4.25 1.9 4.2 1.85 4.1 1.55 4.15 0.9 4.2 0.5 4.2 0.4 4.1 -0.15 4.1 -0.35 3.85 -1.9 Q3.6 -3.6 3.55 -3.85 3.7 -3.95 3.8 -4.15 L3.85 -4.15 M5.45 -1.9 L5.35 -2.5 5.3 -2.65 5.3 -2.7 Q5.1 -3.6 5.1 -4.0 L5.05 -4.0 Q4.95 -4.0 4.9 -4.15 4.8 -4.3 4.75 -4.3 4.35 -4.3 4.15 -4.1 4.0 -3.95 4.0 -3.8 L4.0 -3.7 4.1 -3.3 Q4.1 -3.0 4.2 -2.2 L4.25 -1.1 4.25 -1.0 4.3 -0.55 4.35 -0.45 4.4 0.0 4.45 0.65 4.4 0.75 4.4 0.85 4.35 1.45 4.35 1.55 Q4.75 1.9 4.75 2.0 L4.8 2.0 4.9 1.95 Q5.35 1.85 5.55 1.5 L5.7 1.05 5.7 1.0 5.75 0.65 5.8 0.55 5.75 0.3 5.7 -0.2 5.55 -0.8 Q5.55 -1.05 5.55 -1.25 L5.45 -1.9 M0.75 -3.5 L0.35 -1.95 Q-0.05 -0.4 -0.15 0.2 L-0.1 0.25 -0.1 0.45 Q-0.1 0.55 -0.2 0.65 L-0.3 0.85 Q-0.35 1.1 -0.25 1.35 -0.15 1.45 -0.15 1.6 -0.1 1.85 -0.15 2.1 -0.15 2.25 -0.5 2.95 L-0.45 3.0 Q-0.4 3.0 -0.45 3.05 L-0.45 3.15 -0.35 3.4 -0.35 3.45 -0.3 3.45 Q-0.1 3.6 -0.15 3.9 -0.2 4.15 -0.45 4.45 L-0.55 4.6 -0.55 4.7 Q-0.55 4.8 -0.65 4.85 L-0.65 4.9 -0.6 5.0 Q-0.5 5.15 -0.5 5.2 -0.5 5.25 -0.55 5.35 -0.6 5.45 -0.65 5.45 L-0.7 5.45 Q-0.85 5.6 -1.35 5.7 -1.9 5.85 -2.65 5.9 L-4.45 5.95 -4.75 5.9 Q-5.25 5.85 -5.35 5.8 L-5.35 5.75 -5.4 5.75 -5.4 5.6 -5.3 5.6 Q-5.2 5.55 -4.95 5.45 L-4.05 5.05 -3.3 4.65 -3.3 4.45 Q-3.25 4.2 -3.0 3.9 L-2.7 3.55 Q-2.7 3.4 -2.75 3.25 -2.8 3.15 -2.8 3.0 -2.8 2.85 -2.45 2.35 L-2.3 2.05 -2.3 2.0 -2.35 1.85 -2.3 1.85 -2.35 1.8 -2.3 1.55 Q-2.25 1.3 -2.05 1.2 L-1.95 0.05 -1.95 -0.1 -1.9 -0.1 -1.65 -1.05 Q-1.3 -2.1 -1.25 -2.5 L-1.15 -3.15 -0.95 -3.75 -0.85 -4.1 Q-0.6 -4.35 -0.3 -4.35 L-0.1 -4.35 Q0.05 -4.4 0.25 -4.3 0.75 -4.0 0.75 -3.5 M6.2 3.35 L6.2 3.25 6.3 3.0 Q6.35 2.3 6.1 1.8 5.9 1.6 5.85 1.45 L5.3 2.0 Q4.95 2.3 4.65 2.3 L4.55 2.3 Q4.55 2.55 4.4 2.85 4.25 3.25 4.25 3.45 4.25 3.7 4.45 3.9 L4.45 3.95 4.65 3.95 4.85 4.05 Q5.55 4.0 6.0 3.65 L6.15 3.5 6.15 3.45 6.2 3.35 M6.8 5.05 L6.8 5.0 Q6.85 4.7 6.75 4.45 L6.6 4.25 6.45 4.1 Q6.4 4.25 6.3 4.4 6.05 4.7 5.45 4.75 L5.4 4.75 4.95 4.75 Q4.75 4.75 4.6 4.7 L4.5 4.95 Q4.5 5.05 4.7 5.25 L4.85 5.45 Q5.0 5.3 5.3 5.15 5.65 4.95 5.75 5.0 L6.0 5.0 6.2 5.0 6.45 5.1 6.8 5.2 6.8 5.05 M6.15 4.25 L6.2 4.0 Q5.9 4.3 5.4 4.3 L5.35 4.3 4.7 4.25 4.75 4.35 Q4.95 4.6 5.2 4.6 L5.45 4.6 Q6.05 4.5 6.15 4.3 L6.15 4.25 M6.75 6.3 L7.35 6.3 7.4 6.25 Q7.4 6.2 7.15 5.85 L7.1 5.75 6.95 5.65 6.95 5.6 6.6 5.4 6.55 5.35 Q6.15 5.2 5.7 5.2 L5.5 5.25 5.45 5.25 5.25 5.35 5.2 5.4 5.15 5.45 Q4.95 5.6 4.95 5.7 L4.95 5.75 4.85 5.85 5.1 5.95 Q5.45 6.15 6.0 6.25 L6.45 6.25 6.45 6.3 6.75 6.3 M-1.15 2.15 L-1.1 2.15 -0.85 2.05 -0.75 2.0 -0.7 1.95 Q-0.55 1.8 -0.5 1.6 L-0.45 1.55 Q-0.55 1.2 -0.5 0.85 L-0.45 0.7 -0.35 0.55 -0.4 0.35 -0.4 0.15 -0.35 0.05 -0.35 -0.05 -0.3 -0.7 -0.2 -1.1 -0.1 -1.45 Q0.35 -3.2 0.35 -3.55 0.35 -4.0 -0.05 -4.0 L-0.25 -4.0 -0.3 -4.05 -0.35 -4.0 -0.65 -3.55 -0.75 -3.35 -0.95 -2.65 -0.95 -2.6 -1.05 -2.2 -1.15 -2.0 -1.15 -1.95 -1.5 -0.75 -1.6 -0.1 -1.6 0.05 Q-1.85 0.6 -1.9 1.15 L-1.95 1.25 Q-2.05 1.4 -2.05 1.55 L-2.05 1.75 -2.0 1.85 -2.0 1.9 Q-2.0 2.0 -1.95 2.05 -1.9 2.15 -1.55 2.2 L-1.15 2.15 M-0.95 2.3 L-1.25 2.35 -2.25 2.4 -2.35 2.6 Q-2.55 2.9 -2.55 3.05 L-2.5 3.2 -2.25 3.4 -1.45 3.5 Q-1.15 3.5 -0.85 3.25 L-0.75 3.15 -0.75 3.1 Q-0.7 2.9 -0.65 2.9 L-0.55 2.8 -0.45 2.6 Q-0.4 2.3 -0.4 2.05 L-0.4 2.1 -0.5 2.1 -0.9 2.3 -0.95 2.3 M-2.3 4.05 L-2.0 4.3 Q-1.5 4.6 -1.1 4.6 L-0.9 4.6 -0.75 4.55 -0.6 4.35 Q-0.4 4.05 -0.4 3.85 L-0.55 3.5 -0.6 3.3 Q-0.75 3.4 -1.0 3.55 -1.4 3.7 -1.75 3.75 L-2.05 3.75 -2.4 3.7 -2.45 3.8 Q-2.45 3.9 -2.3 4.05 M-2.35 5.2 L-2.45 5.15 -2.9 5.0 -3.25 5.0 -3.7 5.15 Q-4.7 5.5 -5.0 5.65 L-4.8 5.7 -3.85 5.7 -2.9 5.65 -2.85 5.65 -1.65 5.5 -1.55 5.55 Q-1.25 5.5 -1.1 5.4 L-1.25 5.4 -2.25 5.2 -2.35 5.2 M-1.75 4.65 L-2.2 4.35 Q-2.5 4.1 -2.65 3.95 L-2.75 4.0 Q-3.05 4.2 -3.1 4.45 L-3.05 4.6 -3.05 4.65 -3.0 4.65 -2.75 4.85 Q-2.3 5.05 -1.7 5.05 -1.1 5.1 -0.95 4.95 -1.05 4.8 -1.4 4.75 L-1.65 4.7 -1.75 4.65" fill="#111111" fill-rule="evenodd" stroke="none"/>
    <path d="M4.9 1.95 Q4.7 1.4 4.7 0.9 L4.75 -0.1 4.7 -0.65 4.65 -1.15 4.65 -1.5 Q4.95 -1.95 5.2 -1.95 L5.45 -1.9 5.55 -1.25 Q5.55 -1.05 5.55 -0.8 L5.7 -0.2 5.75 0.3 5.8 0.55 5.75 0.65 5.7 1.0 5.7 1.05 5.55 1.5 Q5.35 1.85 4.9 1.95 M-1.15 -1.95 Q-0.75 -1.95 -0.5 -1.7 L-0.7 -1.0 Q-1.0 -0.1 -1.0 0.2 L-0.95 0.45 Q-1.4 1.35 -1.4 1.5 L-1.3 1.6 Q-1.1 1.45 -0.8 1.05 L-0.8 1.35 Q-0.8 1.5 -1.0 1.85 -1.1 2.05 -1.15 2.15 L-1.55 2.2 Q-1.9 2.15 -1.95 2.05 -2.0 2.0 -2.0 1.9 L-2.0 1.85 -2.05 1.75 -2.05 1.55 Q-2.05 1.4 -1.95 1.25 L-1.9 1.15 Q-1.85 0.6 -1.6 0.05 L-1.6 -0.1 -1.5 -0.75 -1.15 -1.95" fill="#e7e2ab" fill-rule="evenodd" stroke="none"/>
    <path d="M4.9 1.95 L4.8 2.0 4.75 2.0 Q4.75 1.9 4.35 1.55 L4.35 1.45 4.4 0.85 4.4 0.75 4.45 0.65 4.4 0.0 4.35 -0.45 4.3 -0.55 4.25 -1.0 4.25 -1.1 4.2 -2.2 Q4.1 -3.0 4.1 -3.3 L4.0 -3.7 4.0 -3.8 Q4.0 -3.95 4.15 -4.1 4.35 -4.3 4.75 -4.3 4.8 -4.3 4.9 -4.15 4.95 -4.0 5.05 -4.0 L5.1 -4.0 Q5.1 -3.6 5.3 -2.7 L5.3 -2.65 5.35 -2.5 5.45 -1.9 5.2 -1.95 Q4.95 -1.95 4.65 -1.5 L4.65 -1.15 4.7 -0.65 4.75 -0.1 4.7 0.9 Q4.7 1.4 4.9 1.95 M-1.15 -1.95 L-1.15 -2.0 -1.05 -2.2 -0.95 -2.6 -0.95 -2.65 -0.75 -3.35 -0.65 -3.55 -0.35 -4.0 -0.3 -4.05 -0.25 -4.0 -0.05 -4.0 Q0.35 -4.0 0.35 -3.55 0.35 -3.2 -0.1 -1.45 L-0.2 -1.1 -0.3 -0.7 -0.35 -0.05 -0.35 0.05 -0.4 0.15 -0.4 0.35 -0.35 0.55 -0.45 0.7 -0.5 0.85 Q-0.55 1.2 -0.45 1.55 L-0.5 1.6 Q-0.55 1.8 -0.7 1.95 L-0.75 2.0 -0.85 2.05 -1.1 2.15 -1.15 2.15 Q-1.1 2.05 -1.0 1.85 -0.8 1.5 -0.8 1.35 L-0.8 1.05 Q-1.1 1.45 -1.3 1.6 L-1.4 1.5 Q-1.4 1.35 -0.95 0.45 L-1.0 0.2 Q-1.0 -0.1 -0.7 -1.0 L-0.5 -1.7 Q-0.75 -1.95 -1.15 -1.95" fill="#a6b665" fill-rule="evenodd" stroke="none"/>
    <path d="M5.3 2.0 L5.85 1.45 Q5.9 1.6 6.1 1.8 6.35 2.3 6.3 3.0 L6.2 3.25 6.2 3.35 5.35 3.35 Q4.8 3.15 4.8 2.55 L5.3 2.0 M5.4 4.75 L5.45 4.75 Q6.05 4.7 6.3 4.4 6.4 4.25 6.45 4.1 L6.6 4.25 6.75 4.45 Q6.85 4.7 6.8 5.0 L6.8 5.05 6.45 5.1 6.2 5.0 6.0 5.0 Q5.8 4.9 5.45 4.75 L5.4 4.75 M5.35 4.3 L5.4 4.3 Q5.9 4.3 6.2 4.0 L6.15 4.25 5.6 4.35 Q5.45 4.35 5.35 4.3 M5.2 5.4 L5.25 5.35 5.45 5.25 5.5 5.25 5.7 5.2 Q6.15 5.2 6.55 5.35 L6.6 5.4 6.95 5.6 6.95 5.65 7.1 5.75 7.15 5.85 Q7.4 6.2 7.4 6.25 L7.35 6.3 6.75 6.3 Q6.35 6.15 5.2 5.4 M-2.55 3.05 Q-2.55 2.9 -2.35 2.6 L-2.25 2.4 -1.25 2.35 -0.95 2.3 Q-1.05 2.7 -1.25 2.9 -1.5 3.15 -2.15 3.15 L-2.55 3.0 -2.55 3.05 M-1.75 3.75 L-1.4 3.85 -1.45 3.9 Q-1.5 3.9 -1.65 4.0 L-2.3 4.05 Q-2.45 3.9 -2.45 3.8 L-2.4 3.7 -2.05 3.75 -1.75 3.75 M-3.85 5.7 L-4.8 5.7 -5.0 5.65 Q-4.7 5.5 -3.7 5.15 L-3.25 5.0 -2.9 5.0 -2.45 5.15 -2.35 5.2 Q-3.0 5.4 -3.85 5.7 M-3.0 4.65 L-3.05 4.65 -3.05 4.6 -3.1 4.45 Q-3.05 4.2 -2.75 4.0 L-2.65 3.95 Q-2.5 4.1 -2.2 4.35 L-1.75 4.65 -2.1 4.7 -3.0 4.65" fill="#a9943d" fill-rule="evenodd" stroke="none"/>
    <path d="M6.2 3.35 L6.15 3.45 6.15 3.5 6.0 3.65 Q5.55 4.0 4.85 4.05 L4.65 3.95 4.45 3.95 4.45 3.9 Q4.25 3.7 4.25 3.45 4.25 3.25 4.4 2.85 4.55 2.55 4.55 2.3 L4.65 2.3 Q4.95 2.3 5.3 2.0 L4.8 2.55 Q4.8 3.15 5.35 3.35 L6.2 3.35 M5.4 4.75 L5.45 4.75 Q5.8 4.9 6.0 5.0 L5.75 5.0 Q5.65 4.95 5.3 5.15 5.0 5.3 4.85 5.45 L4.7 5.25 Q4.5 5.05 4.5 4.95 L4.6 4.7 Q4.75 4.75 4.95 4.75 L5.4 4.75 M6.45 5.1 L6.8 5.05 6.8 5.2 6.45 5.1 M5.35 4.3 Q5.45 4.35 5.6 4.35 L6.15 4.25 6.15 4.3 Q6.05 4.5 5.45 4.6 L5.2 4.6 Q4.95 4.6 4.75 4.35 L4.7 4.25 5.35 4.3 M6.75 6.3 L6.45 6.3 6.45 6.25 6.0 6.25 Q5.45 6.15 5.1 5.95 L4.85 5.85 4.95 5.75 4.95 5.7 Q4.95 5.6 5.15 5.45 L5.2 5.4 Q6.35 6.15 6.75 6.3 M-2.55 3.05 L-2.55 3.0 -2.15 3.15 Q-1.5 3.15 -1.25 2.9 -1.05 2.7 -0.95 2.3 L-0.9 2.3 -0.5 2.1 -0.4 2.1 -0.4 2.05 Q-0.4 2.3 -0.45 2.6 L-0.55 2.8 -0.65 2.9 Q-0.7 2.9 -0.75 3.1 L-0.75 3.15 -0.85 3.25 Q-1.15 3.5 -1.45 3.5 L-2.25 3.4 -2.5 3.2 -2.55 3.05 M-1.75 3.75 Q-1.4 3.7 -1.0 3.55 -0.75 3.4 -0.6 3.3 L-0.55 3.5 -0.4 3.85 Q-0.4 4.05 -0.6 4.35 L-0.75 4.55 -0.9 4.6 -1.1 4.6 Q-1.5 4.6 -2.0 4.3 L-2.3 4.05 -1.65 4.0 Q-1.5 3.9 -1.45 3.9 L-1.4 3.85 -1.75 3.75 M-3.85 5.7 Q-3.0 5.4 -2.35 5.2 L-2.25 5.2 -1.25 5.4 -1.1 5.4 Q-1.25 5.5 -1.55 5.55 L-1.65 5.5 -2.85 5.65 -2.9 5.65 -3.85 5.7 M-1.75 4.65 L-1.65 4.7 -1.4 4.75 Q-1.05 4.8 -0.95 4.95 -1.1 5.1 -1.7 5.05 -2.3 5.05 -2.75 4.85 L-3.0 4.65 -2.1 4.7 -1.75 4.65" fill="#926529" fill-rule="evenodd" stroke="none"/>
  </g>
</svg>
