<?xml version="1.0" encoding="UTF-8" standalone="no"?>
<svg xmlns:ffdec="https://www.free-decompiler.com/flash" xmlns:xlink="http://www.w3.org/1999/xlink" ffdec:objectType="shape" height="6.65px" width="8.35px" xmlns="http://www.w3.org/2000/svg">
  <g transform="matrix(1.0, 0.0, 0.0, 1.0, 3.8, 4.4)">
    <path d="M1.0 -3.55 L0.7 -3.5 0.6 -3.5 0.55 -3.55 Q0.85 -3.7 1.15 -3.7 L1.25 -3.75 Q1.3 -3.8 1.4 -3.85 L2.05 -3.85 1.85 -3.95 1.8 -3.95 1.25 -4.05 1.1 -4.05 Q0.5 -4.05 -0.05 -3.85 L-0.55 -3.65 Q-1.0 -3.45 -1.4 -3.25 -0.85 -3.85 -0.1 -4.15 L-0.15 -4.15 -0.75 -4.05 -1.05 -3.95 -1.35 -3.8 -1.5 -3.65 -1.6 -3.6 -1.75 -3.45 -2.05 -3.1 -2.15 -3.0 Q-2.2 -2.75 -2.35 -2.4 -2.65 -1.9 -2.95 -1.9 -3.1 -1.9 -3.35 -1.6 -3.55 -1.3 -3.6 -1.15 L-3.6 -0.65 -3.5 -0.65 -3.35 -0.8 Q-3.15 -0.95 -3.05 -0.95 L-3.0 -0.95 -3.0 -1.0 Q-2.85 -1.45 -2.65 -1.6 L-2.6 -1.6 Q-2.55 -1.6 -2.55 -1.5 -2.55 -1.4 -2.7 -1.2 -2.9 -0.95 -2.9 -0.8 L-2.9 -0.7 Q-2.85 -0.3 -2.7 0.1 L-2.4 0.65 2.4 1.65 Q2.5 1.6 2.6 1.6 L2.7 1.65 2.75 1.65 3.15 1.25 3.55 0.5 3.6 0.25 3.6 0.2 Q3.6 0.05 3.5 -0.15 3.4 -0.4 3.3 -0.65 L3.3 -0.75 3.25 -0.8 3.25 -0.85 3.35 -0.85 Q3.45 -0.85 3.7 -0.65 L3.95 -0.4 4.2 -0.2 4.2 -0.25 4.15 -0.6 4.15 -0.65 4.1 -0.7 3.95 -0.9 Q3.75 -1.2 3.45 -1.5 L3.05 -1.8 2.95 -1.85 3.0 -1.85 2.4 -2.25 2.5 -2.25 3.0 -2.15 3.35 -2.05 3.8 -1.65 Q3.6 -2.0 3.35 -2.2 L3.3 -2.25 Q3.1 -2.4 2.8 -2.5 2.8 -2.6 3.25 -2.65 L3.35 -2.7 Q3.55 -2.75 3.65 -2.8 L3.75 -2.95 3.75 -3.0 3.55 -3.0 2.9 -2.95 Q2.25 -2.95 1.75 -3.25 L1.6 -3.3 1.55 -3.35 1.15 -3.5 1.0 -3.55 M0.75 -4.35 Q1.5 -4.45 1.9 -4.25 2.3 -4.05 2.45 -3.65 L2.4 -3.55 2.4 -3.5 1.8 -3.65 1.7 -3.6 1.85 -3.55 2.05 -3.35 Q2.4 -3.25 3.3 -3.25 L3.55 -3.35 3.85 -3.5 3.95 -3.35 4.0 -3.2 4.0 -3.05 Q4.0 -2.9 3.95 -2.8 L3.9 -2.75 3.5 -2.5 Q3.8 -2.25 3.95 -1.95 L4.05 -1.85 Q4.2 -1.5 4.25 -1.2 L4.25 -1.15 4.45 -0.75 Q4.55 -0.5 4.55 -0.25 L4.55 0.0 Q4.55 0.15 4.4 0.2 L4.2 0.05 4.1 0.0 3.95 -0.1 3.9 -0.15 Q3.95 0.15 3.9 0.35 L3.9 0.45 Q3.9 0.95 3.45 1.5 2.85 2.2 2.1 2.15 L0.85 2.15 -2.1 1.3 Q-3.15 0.55 -3.15 -0.2 L-3.1 -0.5 -3.5 -0.25 Q-3.65 -0.25 -3.8 -0.6 -3.8 -1.45 -3.5 -1.75 -2.8 -2.45 -2.35 -3.0 L-2.25 -3.25 Q-2.1 -3.5 -1.75 -3.75 L-1.2 -4.1 -0.8 -4.25 -0.05 -4.3 0.15 -4.25 0.3 -4.25 0.75 -4.35" fill="#111111" fill-rule="evenodd" stroke="none"/>
    <path d="M1.0 -3.55 L1.15 -3.5 1.55 -3.35 1.6 -3.3 1.75 -3.25 Q2.25 -2.95 2.9 -2.95 L3.55 -3.0 3.75 -3.0 3.75 -2.95 3.65 -2.8 Q3.55 -2.75 3.35 -2.7 L3.15 -2.7 2.1 -2.85 1.15 -3.0 Q1.1 -3.1 1.1 -2.95 1.1 -2.9 1.2 -2.9 L1.25 -2.95 2.25 -2.45 Q2.75 -2.2 3.4 -2.15 L3.35 -2.2 Q3.6 -2.0 3.8 -1.65 L3.35 -2.05 3.0 -2.15 2.5 -2.25 2.4 -2.25 3.0 -1.85 2.95 -1.85 3.05 -1.8 3.45 -1.5 Q3.75 -1.2 3.95 -0.9 L4.1 -0.7 4.15 -0.65 4.15 -0.6 4.05 -0.65 3.95 -0.65 Q3.4 -0.95 3.3 -1.1 3.05 -1.55 2.8 -1.8 2.45 -2.25 1.7 -2.45 L1.4 -2.5 1.5 -2.35 Q1.95 -1.95 1.95 -1.75 L1.9 -1.65 Q1.25 -2.4 -0.05 -2.75 L-0.6 -2.75 Q-1.4 -2.75 -1.6 -2.5 L-1.55 -2.5 Q-1.35 -2.6 -1.2 -2.65 -1.1 -2.65 -1.05 -2.6 -0.7 -2.55 -0.35 -2.4 L-2.1 -0.95 Q-2.0 -0.95 -1.85 -1.95 L-1.7 -2.85 -1.3 -3.5 Q-1.0 -3.85 -0.7 -4.05 L-0.75 -4.05 -0.15 -4.15 -0.1 -4.15 Q-0.85 -3.85 -1.4 -3.25 -1.0 -3.45 -0.55 -3.65 L-0.05 -3.85 Q0.5 -4.05 1.1 -4.05 L1.25 -4.05 1.15 -4.0 Q0.75 -3.95 -0.05 -3.3 L-0.2 -3.2 -0.05 -3.2 0.65 -3.45 1.1 -3.5 1.0 -3.55 M-2.4 0.65 L-2.7 0.1 -2.4 0.65" fill="#9c9581" fill-rule="evenodd" stroke="none"/>
    <path d="M1.25 -4.05 L1.8 -3.95 1.85 -3.95 2.05 -3.85 1.4 -3.85 Q1.3 -3.8 1.25 -3.75 L1.15 -3.7 Q0.85 -3.7 0.55 -3.55 L0.6 -3.5 0.7 -3.5 1.0 -3.55 1.1 -3.5 0.65 -3.45 -0.05 -3.2 -0.2 -3.2 -0.05 -3.3 Q0.75 -3.95 1.15 -4.0 L1.25 -4.05 M3.35 -2.7 L3.25 -2.65 Q2.8 -2.6 2.8 -2.5 3.1 -2.4 3.3 -2.25 L3.35 -2.2 3.4 -2.15 Q2.75 -2.2 2.25 -2.45 L1.25 -2.95 1.2 -2.9 Q1.1 -2.9 1.1 -2.95 1.1 -3.1 1.15 -3.0 L2.1 -2.85 3.15 -2.7 3.35 -2.7 M4.15 -0.6 L4.2 -0.25 4.2 -0.2 3.95 -0.4 3.7 -0.65 Q3.45 -0.85 3.35 -0.85 L3.25 -0.85 3.25 -0.8 3.3 -0.75 3.3 -0.65 Q3.4 -0.4 3.5 -0.15 3.6 0.05 3.6 0.2 L3.6 0.25 3.55 0.5 3.15 1.25 2.75 1.65 2.7 1.65 2.6 1.6 Q2.5 1.6 2.4 1.65 L-2.4 0.65 -2.7 0.1 Q-2.85 -0.3 -2.9 -0.7 L-2.9 -0.8 Q-2.9 -0.95 -2.7 -1.2 -2.55 -1.4 -2.55 -1.5 -2.55 -1.6 -2.6 -1.6 L-2.65 -1.6 Q-2.85 -1.45 -3.0 -1.0 L-3.0 -0.95 -3.05 -0.95 Q-3.15 -0.95 -3.35 -0.8 L-3.5 -0.65 -3.6 -0.65 -3.6 -1.15 Q-3.55 -1.3 -3.35 -1.6 -3.1 -1.9 -2.95 -1.9 -2.65 -1.9 -2.35 -2.4 -2.2 -2.75 -2.15 -3.0 L-2.05 -3.1 -1.75 -3.45 -1.6 -3.6 -1.5 -3.65 -1.35 -3.8 -1.05 -3.95 -0.75 -4.05 -0.7 -4.05 Q-1.0 -3.85 -1.3 -3.5 L-1.7 -2.85 -1.85 -1.95 Q-2.0 -0.95 -2.1 -0.95 L-0.35 -2.4 Q-0.7 -2.55 -1.05 -2.6 -1.1 -2.65 -1.2 -2.65 -1.35 -2.6 -1.55 -2.5 L-1.6 -2.5 Q-1.4 -2.75 -0.6 -2.75 L-0.05 -2.75 Q1.25 -2.4 1.9 -1.65 L1.95 -1.75 Q1.95 -1.95 1.5 -2.35 L1.4 -2.5 1.7 -2.45 Q2.45 -2.25 2.8 -1.8 3.05 -1.55 3.3 -1.1 3.4 -0.95 3.95 -0.65 L4.05 -0.65 4.15 -0.6" fill="#666154" fill-rule="evenodd" stroke="none"/>
    <path d="M2.15 1.55 Q2.35 1.4 2.5 1.25 2.75 0.9 2.75 0.45 2.75 -0.05 2.3 -0.65 L2.25 -0.65 2.25 -0.7 2.2 -0.7 2.1 -0.85 Q1.9 -1.15 1.5 -1.45 0.8 -1.85 -0.05 -2.0 L-0.15 -2.0 Q-1.1 -2.15 -1.75 -1.75 L-1.75 -1.7 Q-2.3 -1.35 -2.4 -0.7 L-2.45 -0.35 -2.5 -0.15 -2.55 0.35 Q-2.55 0.7 -2.35 0.95 -2.15 1.2 -1.75 1.35 -0.85 1.75 1.15 1.75 L1.3 1.75 1.8 1.7 2.05 1.6 2.15 1.55 M2.65 -0.65 Q3.1 -0.05 3.1 0.45 3.1 1.1 2.55 1.55 1.75 2.25 -0.05 2.25 -1.1 2.25 -1.75 1.95 -2.25 1.8 -2.5 1.45 -2.75 1.1 -2.75 0.5 L-2.75 -0.3 Q-2.65 -0.8 -2.5 -1.1 -2.2 -1.55 -1.75 -1.85 -1.15 -2.35 -0.15 -2.45 L-0.05 -2.45 Q1.3 -2.05 2.2 -1.15 L2.65 -0.65" fill="#111111" fill-rule="evenodd" stroke="none"/>
    <path d="M-2.4 -0.7 Q-2.3 -1.35 -1.75 -1.7 L-1.75 -1.75 Q-1.1 -2.15 -0.15 -2.0 L-0.05 -2.0 Q0.8 -1.85 1.5 -1.45 1.9 -1.15 2.1 -0.85 L2.2 -0.7 2.25 -0.7 2.25 -0.65 2.3 -0.65 Q2.75 -0.05 2.75 0.45 2.75 0.9 2.5 1.25 2.35 1.4 2.15 1.55 L1.15 1.2 Q0.1 0.85 -0.2 0.65 -1.1 0.05 -1.75 -0.3 L-2.3 -0.55 -2.4 -0.7" fill="#b00000" fill-rule="evenodd" stroke="none"/>
    <path d="M-2.4 -0.7 L-2.3 -0.55 -1.75 -0.3 Q-1.1 0.05 -0.2 0.65 0.1 0.85 1.15 1.2 L2.15 1.55 2.05 1.6 1.8 1.7 1.3 1.75 1.15 1.75 Q-0.85 1.75 -1.75 1.35 -2.15 1.2 -2.35 0.95 -2.55 0.7 -2.55 0.35 L-2.5 -0.15 -2.45 -0.35 -2.4 -0.7" fill="#600000" fill-rule="evenodd" stroke="none"/>
  </g>
</svg>
