<?xml version="1.0" encoding="UTF-8" standalone="no"?>
<svg xmlns:ffdec="https://www.free-decompiler.com/flash" xmlns:xlink="http://www.w3.org/1999/xlink" ffdec:objectType="shape" height="3.65px" width="4.3px" xmlns="http://www.w3.org/2000/svg">
  <g transform="matrix(1.0, 0.0, 0.0, 1.0, 2.8, 2.8)">
    <path d="M1.0 -0.85 Q1.0 -1.3 0.45 -1.8 -0.1 -2.25 -0.8 -2.45 -1.6 -2.65 -2.1 -2.4 -2.65 -2.1 -2.65 -1.3 -2.65 -0.65 -2.5 -0.25 -2.25 0.3 -1.6 0.55 L-1.55 0.55 -1.8 0.2 Q-2.0 -0.15 -2.0 -0.25 -2.0 -1.25 -1.8 -1.65 -1.4 -2.3 -0.25 -2.15 -1.4 -2.15 -1.75 -1.45 -1.9 -1.2 -1.9 -0.7 -1.9 -0.2 -1.8 0.15 -1.7 0.4 -1.5 0.55 -0.2 0.4 0.4 0.05 0.75 -0.1 0.9 -0.4 0.9 -0.55 1.0 -0.75 L1.0 -0.85 M1.3 -0.45 Q1.15 -0.1 0.5 0.25 -0.25 0.7 -1.15 0.85 L-1.65 0.8 Q-2.4 0.5 -2.65 -0.2 -2.8 -0.6 -2.8 -1.3 -2.8 -3.1 -1.75 -2.7 -0.8 -2.8 -0.05 -2.4 0.75 -2.1 1.1 -1.9 1.5 -1.6 1.5 -1.05 1.5 -0.85 1.4 -0.65 L1.3 -0.45" fill="#111111" fill-rule="evenodd" stroke="none"/>
    <path d="M1.0 -0.85 L1.0 -0.75 Q0.9 -0.55 0.9 -0.4 0.75 -0.1 0.4 0.05 -0.2 0.4 -1.5 0.55 -1.7 0.4 -1.8 0.15 -1.9 -0.2 -1.9 -0.7 -1.9 -1.2 -1.75 -1.45 -1.4 -2.15 -0.25 -2.15 -1.4 -2.3 -1.8 -1.65 -2.0 -1.25 -2.0 -0.25 -2.0 -0.15 -1.8 0.2 L-1.55 0.55 -1.6 0.55 Q-2.25 0.3 -2.5 -0.25 -2.65 -0.65 -2.65 -1.3 -2.65 -2.1 -2.1 -2.4 -1.6 -2.65 -0.8 -2.45 -0.1 -2.25 0.45 -1.8 1.0 -1.3 1.0 -0.85" fill="#a33267" fill-rule="evenodd" stroke="none"/>
  </g>
</svg>
