<?xml version="1.0" encoding="UTF-8" standalone="no"?>
<svg xmlns:ffdec="https://www.free-decompiler.com/flash" xmlns:xlink="http://www.w3.org/1999/xlink" ffdec:objectType="shape" height="15.25px" width="11.75px" xmlns="http://www.w3.org/2000/svg">
  <g transform="matrix(1.0, 0.0, 0.0, 1.0, 3.9, 6.8)">
    <path d="M5.25 -6.65 L7.05 -6.75 Q7.4 -6.75 7.65 -6.35 7.8 -6.15 7.85 -5.95 7.85 -5.8 7.6 -5.5 L7.45 -5.3 7.5 -5.25 7.7 -4.6 Q7.7 -3.7 7.65 -3.55 7.4 -2.6 6.3 -2.6 L5.4 -2.7 5.15 -2.75 4.8 -2.85 Q4.15 -2.95 3.25 -2.65 2.3 -2.3 2.25 -1.75 2.35 -1.55 2.3 -1.45 L2.3 -1.3 2.05 -1.3 1.0 -1.05 -0.05 -0.85 -0.4 -0.85 Q-0.2 -0.35 -0.2 -0.1 -0.15 0.15 -0.25 0.65 L-0.3 0.9 -0.2 1.25 0.05 1.95 0.1 2.1 Q0.45 2.35 0.8 2.6 1.3 3.0 1.5 3.25 L1.55 3.25 1.55 3.35 1.7 3.7 1.65 3.7 1.15 4.65 Q0.65 5.6 0.55 6.1 0.45 6.75 0.05 7.35 L-0.25 7.75 Q-0.6 8.2 -0.75 8.3 L-0.8 8.4 -0.9 8.4 -0.95 8.45 -1.0 8.4 -1.2 8.45 -1.5 8.4 -2.2 8.35 -2.25 8.35 Q-2.45 8.35 -2.75 7.95 L-2.85 7.95 -2.85 7.85 -2.9 7.75 -2.9 7.6 Q-2.9 7.4 -2.8 6.95 -2.7 6.55 -2.6 6.4 -2.5 6.0 -2.2 5.35 L-2.0 4.85 Q-1.8 4.0 -1.85 3.1 L-2.6 1.75 Q-3.6 -0.05 -3.6 -0.5 L-3.7 -0.85 -3.7 -1.2 Q-3.8 -1.25 -3.8 -1.35 L-3.75 -1.55 -3.75 -1.65 -3.8 -1.95 -3.8 -2.0 -3.85 -2.1 -3.9 -2.4 -3.6 -2.8 -3.35 -3.0 -3.35 -3.05 Q-3.35 -3.1 -2.65 -3.85 -1.85 -4.7 -1.5 -4.9 L-1.3 -5.0 -1.15 -5.1 Q-0.8 -5.5 -0.4 -5.7 -0.15 -5.85 0.95 -5.9 L1.7 -5.9 2.3 -6.65 Q2.5 -6.9 3.4 -6.75 L4.55 -6.55 5.25 -6.65 M7.25 -4.65 L7.15 -5.0 7.05 -5.2 6.95 -5.35 Q6.85 -5.45 6.75 -5.45 L5.45 -5.3 4.6 -5.35 4.6 -4.75 4.65 -4.35 4.7 -3.5 Q4.7 -3.45 4.8 -3.25 L5.0 -3.25 Q5.65 -3.15 5.75 -2.95 6.85 -3.2 7.15 -3.55 7.3 -3.75 7.3 -4.4 L7.3 -4.45 7.25 -4.65 M3.4 -5.95 Q4.0 -5.65 4.55 -5.65 L6.85 -5.85 Q7.05 -5.85 7.2 -5.7 7.45 -5.85 7.45 -5.9 7.45 -6.05 7.3 -6.2 7.15 -6.4 7.0 -6.4 L5.0 -6.25 Q4.25 -6.25 3.85 -6.4 3.4 -6.55 2.8 -6.55 2.65 -6.55 2.4 -6.1 L2.3 -6.0 Q2.85 -6.05 3.15 -6.0 L3.4 -5.95 M4.45 -4.65 L4.45 -4.7 4.5 -5.0 4.55 -5.35 Q3.85 -5.4 3.45 -5.5 L3.2 -5.5 2.0 -5.55 1.65 -5.5 0.1 -5.35 Q-0.25 -5.3 -1.05 -4.85 L-1.25 -4.65 -2.05 -3.95 -2.2 -3.8 -1.9 -3.8 -1.4 -3.75 -1.25 -3.75 -0.75 -3.7 Q-0.5 -3.65 -0.25 -3.55 L-0.25 -3.55 -0.2 -3.5 0.0 -3.4 Q0.25 -3.2 0.3 -3.05 L0.95 -2.65 1.15 -2.5 Q1.65 -2.15 1.9 -1.9 L1.8 -2.25 Q1.6 -2.95 1.6 -3.15 L1.65 -3.3 1.65 -3.35 1.7 -3.35 Q1.75 -3.25 1.8 -2.9 L1.8 -2.5 Q1.8 -2.4 2.0 -2.1 2.05 -2.35 2.2 -2.55 2.5 -2.85 3.0 -2.8 L3.9 -3.05 4.55 -3.2 4.5 -3.4 4.5 -3.9 4.45 -4.3 4.45 -4.65 M-0.6 5.35 Q-0.45 5.2 -0.3 4.95 -0.2 4.8 0.0 4.15 L0.2 3.75 0.35 3.3 0.35 3.15 -0.15 2.45 Q-0.4 2.2 -0.4 2.0 -0.6 1.65 -0.65 1.3 L-0.65 1.05 -0.6 0.5 -0.55 0.0 Q-0.6 -0.35 -0.85 -0.85 L-0.9 -0.9 Q-1.1 -1.4 -1.2 -1.75 -1.05 -2.1 -1.05 -2.15 L-1.05 -2.2 -1.0 -2.4 -1.0 -2.45 -0.85 -2.95 -0.8 -2.95 Q-0.8 -2.85 -0.8 -2.25 L-0.75 -1.85 -0.7 -1.7 -0.6 -1.75 -0.6 -1.7 -0.45 -1.7 -0.25 -1.75 -0.25 -1.8 0.1 -1.9 Q0.45 -2.05 0.45 -2.2 L0.45 -2.3 0.6 -2.35 Q0.3 -2.5 0.2 -2.65 0.15 -2.7 -0.2 -3.2 L-0.25 -3.25 Q-0.5 -3.6 -1.1 -3.6 L-1.15 -3.6 -2.15 -3.45 -2.25 -3.45 -2.4 -3.35 Q-2.7 -2.9 -3.1 -2.65 -3.3 -2.55 -3.35 -2.3 L-3.4 -2.0 -3.4 -1.7 -3.35 -1.55 -3.3 -1.25 Q-3.3 -1.1 -3.35 -1.1 L-3.3 -0.9 -3.3 -0.85 Q-3.1 -0.25 -2.8 0.35 L-2.05 1.85 -1.65 2.45 Q-1.3 2.95 -1.3 3.05 L-1.35 3.6 -1.3 3.95 -1.35 4.05 -1.85 5.5 -1.6 5.6 -1.35 5.65 Q-0.9 5.65 -0.6 5.35 M-2.25 -3.45 L-2.25 -3.45 M0.9 -2.2 L0.4 -1.8 -0.3 -1.4 -0.45 -1.15 0.35 -1.2 Q1.4 -1.3 1.45 -1.5 1.5 -1.85 1.1 -2.05 L0.9 -2.2 M-2.55 7.5 L-2.55 7.55 -2.4 7.75 -2.2 7.9 -1.95 7.95 -1.1 8.05 -0.85 7.75 -0.65 7.5 Q0.0 6.6 0.25 5.7 0.4 5.15 0.75 4.5 0.95 4.05 1.2 3.7 L1.25 3.5 Q1.1 3.3 0.7 3.0 0.65 3.2 0.6 3.5 -0.25 5.35 -0.7 5.8 L-0.8 5.95 Q-0.95 5.85 -1.1 5.8 L-1.3 5.8 -1.4 5.7 Q-1.6 5.7 -1.8 5.8 L-2.05 5.8 -2.1 5.85 Q-2.45 6.85 -2.55 7.5 M0.4 3.05 L0.2 2.8 0.35 3.15 0.4 3.05" fill="#111111" fill-rule="evenodd" stroke="none"/>
    <path d="M4.6 -4.75 L4.6 -5.35 5.45 -5.3 6.75 -5.45 Q6.85 -5.45 6.95 -5.35 L7.05 -5.2 7.15 -5.0 7.25 -4.65 7.25 -4.7 6.2 -4.6 4.7 -4.75 4.6 -4.75 M-1.4 -3.75 L-1.9 -3.8 -2.2 -3.8 -2.05 -3.95 -1.25 -4.65 -1.05 -4.85 Q-0.25 -5.3 0.1 -5.35 L1.65 -5.5 2.0 -5.55 3.2 -5.5 3.45 -5.5 Q3.85 -5.4 4.55 -5.35 L4.5 -5.0 4.45 -4.7 4.45 -4.65 3.25 -4.65 Q1.95 -4.35 1.65 -3.95 1.4 -3.6 1.15 -3.15 1.0 -2.85 0.95 -2.65 L0.3 -3.05 0.45 -3.0 1.4 -4.5 Q0.2 -3.75 0.0 -3.6 L-0.2 -3.5 -0.25 -3.55 -0.25 -3.55 Q-0.5 -3.65 -0.75 -3.7 -0.9 -3.75 -1.0 -3.75 L-1.3 -3.75 -1.4 -3.75 M-2.25 -3.45 L-2.25 -3.45" fill="#80c0f0" fill-rule="evenodd" stroke="none"/>
    <path d="M3.4 -5.95 L3.15 -6.0 Q2.85 -6.05 2.3 -6.0 L2.4 -6.1 Q2.65 -6.55 2.8 -6.55 3.4 -6.55 3.85 -6.4 4.25 -6.25 5.0 -6.25 L7.0 -6.4 Q7.15 -6.4 7.3 -6.2 7.45 -6.05 7.45 -5.9 7.45 -5.85 7.2 -5.7 7.05 -5.85 6.85 -5.85 L4.55 -5.65 Q4.0 -5.65 3.4 -5.95 M-2.55 7.5 Q-2.45 6.85 -2.1 5.85 L-2.05 5.8 -1.8 5.8 Q-1.6 5.7 -1.4 5.7 L-1.3 5.8 -1.1 5.8 Q-0.95 5.85 -0.8 5.95 L-0.85 5.95 Q-0.95 6.25 -1.35 7.0 L-1.55 7.45 -1.8 7.4 Q-2.2 7.4 -2.5 7.5 L-2.55 7.5 M-1.25 7.5 L-1.25 7.5" fill="#9c9581" fill-rule="evenodd" stroke="none"/>
    <path d="M-0.8 5.95 L-0.7 5.8 Q-0.25 5.35 0.6 3.5 0.65 3.2 0.7 3.0 1.1 3.3 1.25 3.5 L1.2 3.7 Q0.95 4.05 0.75 4.5 0.4 5.15 0.25 5.7 0.0 6.6 -0.65 7.5 L-0.85 7.75 -1.1 8.05 -1.95 7.95 -2.2 7.9 -2.4 7.75 -2.55 7.55 -2.55 7.5 -2.5 7.5 Q-2.2 7.4 -1.8 7.4 L-1.55 7.45 -1.35 7.0 Q-0.95 6.25 -0.85 5.95 L-0.8 5.95 M-1.25 7.5 L-1.25 7.5" fill="#666154" fill-rule="evenodd" stroke="none"/>
    <path d="M4.6 -4.75 L4.7 -4.75 6.2 -4.6 7.25 -4.7 7.25 -4.65 7.3 -4.45 7.3 -4.4 Q7.3 -3.75 7.15 -3.55 6.85 -3.2 5.75 -2.95 5.65 -3.15 5.0 -3.25 L4.8 -3.25 Q4.7 -3.45 4.7 -3.5 L4.65 -4.35 4.6 -4.75 M-0.2 -3.5 L0.0 -3.6 Q0.2 -3.75 1.4 -4.5 L0.45 -3.0 0.3 -3.05 Q0.25 -3.2 0.0 -3.4 L-0.2 -3.5 M0.95 -2.65 Q1.0 -2.85 1.15 -3.15 1.4 -3.6 1.65 -3.95 1.95 -4.35 3.25 -4.65 L4.45 -4.65 4.45 -4.3 4.5 -3.9 4.5 -3.4 4.55 -3.2 3.9 -3.05 3.0 -2.8 Q2.5 -2.85 2.2 -2.55 2.05 -2.35 2.0 -2.1 1.8 -2.4 1.8 -2.5 L1.8 -2.9 Q1.75 -3.25 1.7 -3.35 L1.65 -3.35 1.65 -3.3 1.6 -3.15 Q1.6 -2.95 1.8 -2.25 L1.9 -1.9 Q1.65 -2.15 1.15 -2.5 L0.95 -2.65 M0.9 -2.2 L1.1 -2.05 Q1.5 -1.85 1.45 -1.5 1.4 -1.3 0.35 -1.2 L-0.45 -1.15 -0.3 -1.4 0.4 -1.8 0.9 -2.2" fill="#0070e0" fill-rule="evenodd" stroke="none"/>
    <path d="M-1.3 -3.75 L-1.0 -3.75 Q-0.9 -3.75 -0.75 -3.7 L-1.25 -3.75 -1.3 -3.75 M-1.1 -3.6 Q-0.5 -3.6 -0.25 -3.25 L-0.2 -3.2 Q0.15 -2.7 0.2 -2.65 0.3 -2.5 0.6 -2.35 L0.45 -2.3 0.45 -2.2 Q0.45 -2.05 0.1 -1.9 L-0.25 -1.8 -0.25 -1.75 -0.45 -1.7 -0.6 -1.7 -0.6 -1.75 -0.7 -1.7 -0.75 -1.85 -0.8 -2.25 Q-0.8 -2.85 -0.8 -2.95 L-0.85 -2.95 -1.0 -2.45 -1.0 -2.4 -1.05 -2.2 -1.05 -2.15 Q-1.05 -2.1 -1.2 -1.75 -1.1 -1.4 -0.9 -0.9 L-0.85 -0.85 Q-0.6 -0.35 -0.55 0.0 L-0.6 0.5 -0.65 1.05 -0.65 1.3 Q-0.6 1.65 -0.4 2.0 -0.4 2.2 -0.15 2.45 L0.35 3.15 0.35 3.3 0.2 3.75 0.0 4.15 Q-0.2 4.8 -0.3 4.95 -0.45 5.2 -0.6 5.35 L-0.3 4.0 -0.75 3.95 Q-1.05 3.95 -1.35 4.05 L-1.3 3.95 -1.35 3.6 -1.3 3.05 Q-1.3 2.95 -1.65 2.45 L-2.05 1.85 -2.8 0.35 Q-3.1 -0.25 -3.3 -0.85 L-3.3 -0.9 -3.35 -1.1 Q-3.3 -1.1 -3.3 -1.25 L-3.35 -1.55 -3.4 -1.7 -3.4 -2.0 -3.35 -2.3 -3.35 -2.2 Q-3.25 -1.9 -2.8 -1.9 -2.6 -1.9 -2.2 -2.1 -1.8 -2.5 -0.9 -3.15 L-0.7 -3.3 -0.65 -3.25 -1.1 -3.6" fill="#a9854f" fill-rule="evenodd" stroke="none"/>
    <path d="M-1.4 -3.75 L-1.3 -3.75 -1.25 -3.75 -1.4 -3.75 M-0.6 5.35 Q-0.9 5.65 -1.35 5.65 L-1.6 5.6 -1.85 5.5 -1.35 4.05 Q-1.05 3.95 -0.75 3.95 L-0.3 4.0 -0.6 5.35 M-3.35 -2.3 Q-3.3 -2.55 -3.1 -2.65 -2.7 -2.9 -2.4 -3.35 L-2.25 -3.45 -2.15 -3.45 -1.15 -3.6 -1.1 -3.6 -0.65 -3.25 -0.7 -3.3 -0.9 -3.15 Q-1.8 -2.5 -2.2 -2.1 -2.6 -1.9 -2.8 -1.9 -3.25 -1.9 -3.35 -2.2 L-3.35 -2.3" fill="#c7a36d" fill-rule="evenodd" stroke="none"/>
  </g>
</svg>
