<?xml version="1.0" encoding="UTF-8" standalone="no"?>
<svg xmlns:ffdec="https://www.free-decompiler.com/flash" xmlns:xlink="http://www.w3.org/1999/xlink" ffdec:objectType="shape" height="14.95px" width="11.2px" xmlns="http://www.w3.org/2000/svg">
  <g transform="matrix(1.0, 0.0, 0.0, 1.0, 3.9, 6.95)">
    <path d="M5.0 -4.95 L5.0 -5.35 4.95 -5.35 3.95 -5.5 3.8 -5.5 3.75 -5.3 3.7 -5.05 Q3.7 -4.8 3.7 -4.6 L3.7 -4.45 3.75 -4.25 Q3.85 -3.55 4.15 -3.2 L5.5 -3.25 5.2 -4.15 Q5.05 -4.6 5.0 -4.95 M5.8 -5.5 Q5.5 -5.4 5.15 -5.35 L5.25 -5.05 Q5.3 -4.6 5.5 -4.0 L5.65 -3.25 Q6.75 -3.55 6.95 -4.2 L7.0 -4.5 6.85 -6.15 6.65 -6.05 6.5 -5.9 6.15 -5.7 5.85 -5.55 5.8 -5.5 M3.55 -6.7 Q4.15 -6.4 4.4 -6.4 5.65 -6.4 6.3 -6.85 L6.4 -6.95 Q6.9 -6.85 7.15 -6.75 L7.1 -6.7 Q7.3 -5.75 7.3 -4.8 L7.3 -4.5 7.2 -4.35 Q7.15 -3.9 6.9 -3.55 6.45 -3.0 5.65 -2.9 L5.6 -2.85 5.6 -2.9 5.2 -2.85 4.65 -2.9 3.75 -2.85 Q2.05 -2.7 1.8 -2.2 L1.75 -1.8 Q1.75 -1.65 1.4 -1.5 L0.85 -1.35 0.3 -1.15 0.2 -0.85 Q0.05 -0.5 -0.2 -0.35 L-0.05 -0.3 Q0.3 -0.05 0.3 0.4 L0.3 0.7 0.25 0.75 Q0.55 0.65 0.5 1.65 0.5 2.15 0.9 2.25 1.3 2.4 1.3 2.75 L1.2 3.55 1.3 3.75 1.35 3.9 Q1.45 3.9 1.45 4.1 L1.25 4.4 1.2 4.5 Q1.1 5.2 -0.25 6.6 -1.0 7.35 -1.75 8.0 -2.05 8.0 -2.15 6.75 L-2.2 5.45 -2.15 4.85 -2.15 4.65 Q-2.3 4.6 -2.4 4.3 -2.5 4.2 -2.55 4.0 L-2.55 3.45 Q-2.5 3.4 -2.45 3.35 -2.4 3.25 -2.4 3.15 -2.45 3.05 -2.65 2.9 -2.85 2.7 -3.0 2.6 L-2.95 2.45 -2.9 2.25 -3.0 2.1 Q-3.15 1.85 -3.2 1.55 L-3.35 1.45 -3.45 1.1 -3.5 0.8 Q-3.5 0.2 -3.4 0.15 L-3.6 -0.35 -3.6 -0.6 -3.65 -1.15 Q-3.65 -1.4 -3.75 -1.6 L-3.75 -1.65 -3.8 -1.95 -3.8 -2.0 -3.85 -2.1 -3.9 -2.4 -3.8 -2.55 Q-3.8 -3.0 -3.75 -3.25 L-3.7 -3.35 -3.3 -3.75 -3.3 -3.8 -3.05 -4.0 Q-2.95 -4.25 -2.8 -4.4 -2.5 -4.7 -1.65 -4.75 L-1.25 -5.05 Q-0.85 -5.3 -0.6 -5.4 L-0.45 -5.5 Q0.35 -5.95 1.75 -5.95 L2.55 -5.9 2.45 -6.05 Q2.4 -6.2 2.4 -6.25 2.4 -6.4 2.55 -6.65 2.75 -6.95 3.0 -6.95 L3.55 -6.7 M6.65 -6.5 L6.65 -6.65 6.4 -6.6 6.15 -6.5 6.1 -6.5 Q5.45 -6.2 4.35 -6.2 4.1 -6.2 3.5 -6.4 L3.0 -6.65 Q2.75 -6.65 2.65 -6.4 L2.65 -6.15 2.65 -6.1 Q2.65 -6.05 2.75 -5.95 2.85 -5.85 2.85 -5.8 2.85 -5.7 2.65 -5.6 L2.55 -5.6 1.5 -5.65 Q0.5 -5.6 0.05 -5.35 L0.0 -5.3 -0.2 -5.25 -0.95 -4.85 -1.2 -4.75 Q-0.65 -4.6 -0.2 -4.2 0.2 -3.85 0.25 -3.5 L0.3 -3.35 0.25 -3.3 0.3 -3.2 0.3 -2.95 0.35 -2.2 0.45 -2.4 0.45 -2.05 Q0.4 -1.95 0.45 -1.85 L0.4 -1.65 0.75 -1.5 Q1.15 -1.5 1.55 -2.05 L1.95 -2.7 Q2.15 -3.05 4.0 -3.2 3.9 -3.35 3.8 -3.65 L3.7 -4.45 3.7 -4.6 Q3.6 -5.25 3.6 -5.4 L3.6 -5.5 3.45 -5.55 3.45 -5.6 3.0 -5.7 3.0 -5.75 3.35 -5.65 Q3.5 -5.6 3.8 -5.55 L4.35 -5.5 Q5.2 -5.5 6.0 -5.9 L6.35 -6.1 6.5 -6.25 Q6.6 -6.35 6.65 -6.5 M-0.9 -3.6 L-0.9 -3.55 Q-0.9 -3.25 -0.55 -2.05 L-0.15 -0.95 Q0.15 -1.45 0.15 -2.45 0.15 -2.75 0.05 -3.05 0.0 -3.7 -0.4 -4.1 L-0.45 -4.15 Q-0.85 -4.45 -1.4 -4.5 -2.0 -4.55 -2.4 -4.25 -2.7 -4.05 -2.8 -3.8 L-2.95 -3.65 -3.3 -3.25 -3.55 -2.8 -3.5 -2.7 Q-3.4 -2.8 -3.2 -2.85 L-2.85 -2.85 Q-2.4 -2.8 -1.65 -2.6 -1.3 -2.4 -1.1 -2.1 L-0.95 -1.9 Q-0.85 -1.75 -0.7 -1.25 L-0.65 -1.2 -0.5 -0.95 -0.5 -1.0 Q-0.5 -1.15 -0.55 -1.4 L-0.6 -1.65 Q-0.7 -2.05 -0.7 -2.4 L-0.9 -3.0 Q-1.1 -3.55 -1.1 -3.6 L-1.05 -3.75 Q-1.05 -3.85 -0.9 -3.8 -0.85 -3.75 -0.9 -3.7 L-0.9 -3.6 M-1.5 7.35 L-0.05 5.9 0.5 4.85 0.6 4.75 Q0.85 4.3 1.0 4.2 L1.05 4.15 0.8 3.65 Q0.8 3.55 0.95 3.4 1.15 3.2 1.15 3.05 1.15 2.65 1.0 2.55 0.95 2.5 0.75 2.45 0.35 2.45 0.35 1.75 0.35 1.55 0.3 1.35 L0.2 1.1 Q0.1 1.25 -0.1 1.5 L-0.3 1.75 -0.85 2.3 -0.85 2.4 -0.9 2.75 Q-0.4 2.35 -0.4 2.55 -0.4 2.6 -0.95 3.05 -0.55 3.15 -0.45 3.25 L-0.45 3.35 -0.6 3.35 -1.0 3.3 Q-1.1 3.7 -1.2 3.7 L-1.45 3.4 -1.8 3.65 -1.95 3.65 -1.95 3.6 -1.6 3.25 -1.7 3.15 Q-2.2 3.0 -2.2 2.95 L-2.2 2.85 -2.15 2.8 -2.0 2.85 -2.05 2.8 -2.2 2.6 -2.25 2.6 -2.45 2.55 Q-2.15 2.9 -2.15 3.2 L-2.1 3.4 Q-2.3 3.5 -2.35 3.75 L-2.1 4.1 -2.05 4.2 -2.0 4.2 Q-1.8 4.2 -1.75 4.0 L-1.6 3.95 Q-1.25 3.8 -0.75 3.8 L-0.3 3.85 0.0 3.9 Q0.6 4.05 0.75 4.45 L0.7 4.5 0.25 4.15 0.15 4.1 -0.05 4.05 -0.35 3.9 -0.8 3.85 Q-1.05 3.85 -1.2 3.95 L-1.25 3.95 -1.45 4.05 -1.45 4.1 -1.75 4.3 -1.75 4.35 -1.8 5.0 -1.85 5.15 -1.95 6.15 -1.7 7.45 -1.5 7.35 M-3.35 -2.3 L-3.4 -2.0 -3.4 -1.7 -3.35 -1.55 -3.3 -1.25 Q-3.3 -1.1 -3.35 -1.1 L-3.3 -0.9 -3.3 -0.85 Q-3.1 -0.25 -2.8 0.35 L-2.55 0.85 -2.15 0.85 Q-1.45 0.85 -1.05 0.6 L-0.7 0.25 -0.55 0.0 Q-0.6 -0.35 -0.85 -0.85 L-0.9 -0.9 -1.1 -1.45 -1.2 -1.3 -1.25 -1.15 -1.35 -0.6 -1.4 -1.2 Q-1.35 -1.5 -1.35 -1.75 -1.35 -2.0 -1.5 -2.1 L-1.8 -2.45 Q-2.05 -2.6 -2.35 -2.6 L-2.9 -2.55 -3.25 -2.5 -3.35 -2.3 M-3.0 1.25 L-2.95 1.35 -2.75 1.5 -2.45 1.55 -2.45 1.6 -2.35 1.6 -2.15 1.65 -1.65 1.75 -1.35 1.65 -1.1 1.6 -1.5 1.8 -2.0 1.9 -2.05 1.9 -2.45 1.85 -2.5 1.9 -2.8 1.75 -2.8 1.9 Q-2.8 2.2 -2.4 2.2 L-2.35 2.2 -2.3 2.15 Q-2.1 2.15 -1.7 2.7 L-1.6 2.8 -1.55 2.9 -1.25 2.95 -1.2 2.95 -1.05 2.5 Q-1.0 2.2 -1.1 2.0 L-0.55 1.7 Q-0.25 1.5 -0.15 1.35 L-0.1 1.3 0.0 1.0 -0.1 0.95 -0.1 0.85 0.0 0.65 0.1 0.4 Q0.1 0.25 -0.15 0.1 L-0.2 0.05 Q-0.3 0.25 -0.6 0.55 L-0.7 0.6 -0.75 0.65 -1.25 0.95 -1.45 1.0 -1.45 1.05 -1.5 1.05 -1.9 1.1 -2.45 1.05 Q-2.85 1.0 -3.1 0.85 L-3.1 0.8 -3.25 0.7 -3.25 0.8 Q-3.25 0.95 -3.1 1.15 L-3.0 1.25 M-0.65 1.2 Q-0.5 1.1 -0.45 1.1 -0.5 1.2 -0.65 1.35 -0.8 1.55 -0.95 1.55 -0.9 1.45 -0.7 1.25 L-0.65 1.2" fill="#111111" fill-rule="evenodd" stroke="none"/>
    <path d="M-1.8 -2.45 L-2.2 -2.1 Q-2.6 -1.9 -2.8 -1.9 -3.25 -1.9 -3.35 -2.2 L-3.35 -2.3 -3.25 -2.5 -2.9 -2.55 -2.35 -2.6 Q-2.05 -2.6 -1.8 -2.45" fill="#b78233" fill-rule="evenodd" stroke="none"/>
    <path d="M-0.45 -4.15 Q-0.45 -3.85 -0.7 -3.7 L-0.9 -3.6 -0.9 -3.7 Q-0.85 -3.75 -0.9 -3.8 -1.05 -3.85 -1.05 -3.75 L-1.1 -3.6 Q-1.1 -3.55 -0.9 -3.0 -0.9 -2.85 -1.15 -2.75 -1.25 -2.95 -1.45 -3.05 -1.65 -3.15 -2.0 -3.15 -2.75 -3.15 -3.2 -2.9 L-3.3 -2.85 -3.2 -2.85 Q-3.4 -2.8 -3.5 -2.7 L-3.55 -2.8 -3.3 -3.25 -2.95 -3.65 -2.8 -3.8 Q-2.7 -4.05 -2.4 -4.25 -2.0 -4.55 -1.4 -4.5 -0.85 -4.45 -0.45 -4.15" fill="#a5d7e4" fill-rule="evenodd" stroke="none"/>
    <path d="M-3.35 -2.3 L-3.35 -2.2 Q-3.25 -1.9 -2.8 -1.9 -2.6 -1.9 -2.2 -2.1 L-1.8 -2.45 -1.5 -2.1 Q-1.35 -2.0 -1.35 -1.75 -1.35 -1.5 -1.4 -1.2 L-1.35 -0.6 -1.25 -1.15 -1.2 -1.3 -1.1 -1.45 -0.9 -0.9 -0.85 -0.85 Q-0.6 -0.35 -0.55 0.0 L-0.7 0.25 -1.05 0.6 Q-1.45 0.85 -2.15 0.85 L-2.55 0.85 -2.8 0.35 Q-3.1 -0.25 -3.3 -0.85 L-3.3 -0.9 -3.35 -1.1 Q-3.3 -1.1 -3.3 -1.25 L-3.35 -1.55 -3.4 -1.7 -3.4 -2.0 -3.35 -2.3" fill="#934e2d" fill-rule="evenodd" stroke="none"/>
    <path d="M-1.45 1.05 Q-1.95 1.3 -2.85 1.3 L-3.0 1.25 -3.1 1.15 Q-3.25 0.95 -3.25 0.8 L-3.25 0.7 -3.1 0.8 -3.1 0.85 Q-2.85 1.0 -2.45 1.05 L-1.9 1.1 -1.5 1.05 -1.45 1.05" fill="#ffffcc" fill-rule="evenodd" stroke="none"/>
    <path d="M-1.8 5.0 Q-1.5 4.85 -1.05 4.85 L-0.65 4.85 Q-0.8 5.35 -1.35 6.95 L-1.5 7.35 -1.7 7.45 -1.95 6.15 -1.85 5.15 -1.8 5.0" fill="#663333" fill-rule="evenodd" stroke="none"/>
    <path d="M-1.45 1.05 L-1.45 1.0 -1.25 0.95 -0.75 0.65 -0.7 0.6 -0.6 0.55 Q-0.3 0.25 -0.2 0.05 L-0.15 0.1 Q0.1 0.25 0.1 0.4 L0.0 0.65 -0.1 0.85 -0.1 0.95 0.0 1.0 -0.1 1.3 -0.15 1.35 Q-0.25 1.5 -0.55 1.7 L-1.1 2.0 Q-1.0 2.2 -1.05 2.5 L-1.2 2.95 -1.25 2.95 -1.55 2.9 -1.6 2.8 -1.7 2.7 Q-2.1 2.15 -2.3 2.15 L-2.35 2.2 -2.4 2.2 Q-2.8 2.2 -2.8 1.9 L-2.8 1.75 -2.5 1.9 -2.45 1.85 -2.05 1.9 -2.0 1.9 -1.5 1.8 -1.1 1.6 -1.35 1.65 -1.65 1.75 -2.15 1.65 -2.35 1.6 -2.45 1.6 -2.45 1.55 -2.75 1.5 -2.95 1.35 -3.0 1.25 -2.85 1.3 Q-1.95 1.3 -1.45 1.05 M-0.65 1.2 L-0.7 1.25 Q-0.9 1.45 -0.95 1.55 -0.8 1.55 -0.65 1.35 -0.5 1.2 -0.45 1.1 -0.5 1.1 -0.65 1.2" fill="#c8cf72" fill-rule="evenodd" stroke="none"/>
    <path d="M-1.8 5.0 L-1.75 4.35 -1.75 4.3 -1.45 4.1 -1.45 4.05 -1.25 3.95 -1.2 3.95 Q-1.05 3.85 -0.8 3.85 L-0.35 3.9 -0.05 4.05 0.15 4.1 0.25 4.15 0.7 4.5 0.75 4.45 Q0.6 4.05 0.0 3.9 L-0.3 3.85 -0.75 3.8 Q-1.25 3.8 -1.6 3.95 L-1.75 4.0 Q-1.8 4.2 -2.0 4.2 L-2.05 4.2 -2.1 4.1 -2.35 3.75 Q-2.3 3.5 -2.1 3.4 L-2.15 3.2 Q-2.15 2.9 -2.45 2.55 L-2.25 2.6 -2.2 2.6 -2.05 2.8 -2.0 2.85 -2.15 2.8 -2.2 2.85 -2.2 2.95 Q-2.2 3.0 -1.7 3.15 L-1.6 3.25 -1.95 3.6 -1.95 3.65 -1.8 3.65 -1.45 3.4 -1.2 3.7 Q-1.1 3.7 -1.0 3.3 L-0.6 3.35 -0.45 3.35 -0.45 3.25 Q-0.55 3.15 -0.95 3.05 -0.4 2.6 -0.4 2.55 -0.4 2.35 -0.9 2.75 L-0.85 2.4 -0.85 2.3 -0.3 1.75 -0.1 1.5 Q0.1 1.25 0.2 1.1 L0.3 1.35 Q0.35 1.55 0.35 1.75 0.35 2.45 0.75 2.45 0.95 2.5 1.0 2.55 1.15 2.65 1.15 3.05 1.15 3.2 0.95 3.4 0.8 3.55 0.8 3.65 L1.05 4.15 1.0 4.2 Q0.85 4.3 0.6 4.75 L0.5 4.85 -0.05 5.9 -1.5 7.35 -1.35 6.95 Q-0.8 5.35 -0.65 4.85 L-1.05 4.85 Q-1.5 4.85 -1.8 5.0" fill="#451f2d" fill-rule="evenodd" stroke="none"/>
    <path d="M3.7 -4.6 Q3.7 -4.8 3.7 -5.05 L3.75 -5.3 3.8 -5.5 3.95 -5.5 4.95 -5.35 5.0 -5.35 5.0 -4.95 4.4 -4.7 4.1 -4.6 3.7 -4.6 Q3.05 -4.45 2.6 -4.1 L1.85 -3.5 Q1.4 -3.15 0.9 -2.9 1.2 -3.25 1.55 -3.75 L2.1 -4.6 2.1 -4.7 1.15 -4.0 0.45 -3.6 0.25 -3.5 Q0.2 -3.85 -0.2 -4.2 -0.65 -4.6 -1.2 -4.75 L-0.95 -4.85 -0.2 -5.25 0.0 -5.3 0.05 -5.35 Q0.5 -5.6 1.5 -5.65 L2.55 -5.6 2.65 -5.6 2.75 -5.55 3.6 -5.4 Q3.6 -5.25 3.7 -4.6 M5.25 -5.05 L5.15 -5.35 Q5.5 -5.4 5.8 -5.5 L5.25 -5.05 M2.65 -6.15 L2.65 -6.4 Q2.75 -6.65 3.0 -6.65 L3.5 -6.4 Q4.1 -6.2 4.35 -6.2 5.45 -6.2 6.1 -6.5 L6.15 -6.5 6.4 -6.6 6.65 -6.65 6.65 -6.5 6.15 -6.25 Q5.6 -6.0 4.8 -6.0 L3.25 -6.1 Q3.15 -6.15 2.75 -6.25 L2.65 -6.25 2.65 -6.15 M-0.45 -4.15 L-0.4 -4.1 Q0.0 -3.7 0.05 -3.05 0.15 -2.75 0.15 -2.45 0.15 -1.45 -0.15 -0.95 L-0.55 -2.05 Q-0.9 -3.25 -0.9 -3.55 L-0.9 -3.6 -0.7 -3.7 Q-0.45 -3.85 -0.45 -4.15 M-0.9 -3.0 L-0.7 -2.4 Q-0.7 -2.05 -0.6 -1.65 L-0.55 -1.4 Q-0.5 -1.15 -0.5 -1.0 L-0.5 -0.95 -0.65 -1.2 -0.7 -1.25 Q-0.85 -1.75 -0.95 -1.9 L-1.1 -2.1 Q-1.3 -2.4 -1.65 -2.6 -2.4 -2.8 -2.85 -2.85 L-3.2 -2.85 -3.3 -2.85 -3.2 -2.9 Q-2.75 -3.15 -2.0 -3.15 -1.65 -3.15 -1.45 -3.05 -1.25 -2.95 -1.15 -2.75 -0.9 -2.85 -0.9 -3.0" fill="#509ab6" fill-rule="evenodd" stroke="none"/>
    <path d="M3.7 -4.6 L4.1 -4.6 4.4 -4.7 5.0 -4.95 Q5.05 -4.6 5.2 -4.15 L5.5 -3.25 4.15 -3.2 Q3.85 -3.55 3.75 -4.25 L3.7 -4.45 3.7 -4.6 3.7 -4.45 3.8 -3.65 Q3.9 -3.35 4.0 -3.2 2.15 -3.05 1.95 -2.7 L1.55 -2.05 Q1.15 -1.5 0.75 -1.5 L0.4 -1.65 0.45 -1.85 Q0.4 -1.95 0.45 -2.05 L0.45 -2.4 0.35 -2.2 0.3 -2.95 0.3 -3.2 0.25 -3.3 0.3 -3.35 0.25 -3.5 0.45 -3.6 1.15 -4.0 2.1 -4.7 2.1 -4.6 1.55 -3.75 Q1.2 -3.25 0.9 -2.9 1.4 -3.15 1.85 -3.5 L2.6 -4.1 Q3.05 -4.45 3.7 -4.6 M5.8 -5.5 L5.85 -5.55 6.15 -5.7 6.5 -5.9 6.65 -6.05 6.85 -6.15 7.0 -4.5 6.95 -4.2 Q6.75 -3.55 5.65 -3.25 L5.5 -4.0 Q5.3 -4.6 5.25 -5.05 L5.8 -5.5 M2.65 -6.15 L2.65 -6.25 2.75 -6.25 Q3.15 -6.15 3.25 -6.1 L4.8 -6.0 Q5.6 -6.0 6.15 -6.25 L6.65 -6.5 Q6.6 -6.35 6.5 -6.25 L6.35 -6.1 6.0 -5.9 Q5.2 -5.5 4.35 -5.5 L3.8 -5.55 Q3.5 -5.6 3.35 -5.65 L3.0 -5.75 3.0 -5.7 3.45 -5.6 3.45 -5.55 3.6 -5.5 3.6 -5.4 2.75 -5.55 2.65 -5.6 Q2.85 -5.7 2.85 -5.8 2.85 -5.85 2.75 -5.95 2.65 -6.05 2.65 -6.1 L2.65 -6.15" fill="#396391" fill-rule="evenodd" stroke="none"/>
  </g>
</svg>
