<?xml version="1.0" encoding="UTF-8" standalone="no"?>
<svg xmlns:ffdec="https://www.free-decompiler.com/flash" xmlns:xlink="http://www.w3.org/1999/xlink" ffdec:objectType="shape" height="3.3px" width="6.5px" xmlns="http://www.w3.org/2000/svg">
  <g transform="matrix(1.0, 0.0, 0.0, 1.0, 3.8, 2.2)">
    <path d="M2.5 -0.8 L2.6 -0.85 2.7 -0.8 2.7 -0.65 Q2.75 -0.55 2.65 -0.3 L2.7 -0.25 Q2.65 -0.1 2.6 0.05 L2.55 0.15 Q2.55 0.4 2.4 0.6 L2.15 0.8 1.6 0.9 0.95 0.85 0.5 0.9 0.2 1.0 -0.15 1.1 Q-0.4 1.1 -0.45 0.9 L-0.5 0.65 Q-0.5 0.35 -0.3 0.15 -0.15 0.0 0.05 -0.1 L-0.65 -0.1 -1.2 0.25 Q-1.8 0.6 -1.95 0.6 -2.35 0.6 -2.6 0.5 L-2.65 0.5 Q-2.7 0.55 -2.9 0.55 -3.2 0.55 -3.5 0.4 -3.8 0.25 -3.8 0.15 -3.8 -0.1 -3.4 -0.45 L-3.1 -0.7 -2.85 -1.0 -2.5 -1.45 Q-2.4 -1.55 -2.3 -1.75 -2.25 -1.9 -2.15 -1.95 -1.9 -2.0 -0.35 -1.75 L0.8 -1.75 Q1.05 -1.75 1.15 -2.0 L1.2 -2.2 1.25 -2.2 1.35 -2.1 1.35 -1.9 1.3 -1.8 1.35 -1.75 Q1.15 -1.5 1.15 -1.35 L0.85 -1.45 0.8 -1.45 0.7 -1.5 -0.3 -1.5 -0.85 -1.65 -1.9 -1.75 Q-2.0 -1.75 -2.45 -1.2 L-2.65 -1.0 Q-1.95 -1.45 -1.45 -1.5 L0.45 -1.35 -0.2 -1.2 0.0 -1.15 0.3 -1.15 Q0.55 -1.1 0.75 -0.95 L0.7 -0.95 Q0.65 -0.9 0.55 -0.9 L-0.2 -1.0 -0.5 -1.0 Q-0.65 -1.0 -1.55 -0.55 -2.55 -0.05 -2.5 0.1 L-2.5 0.35 -2.15 0.25 Q-1.65 0.15 -0.8 -0.2 L-0.65 -0.25 -0.6 -0.2 -0.1 -0.3 0.2 -0.25 0.55 -0.3 0.85 -0.25 0.9 -0.25 1.2 -0.15 1.15 -0.15 Q1.1 0.05 0.95 0.1 0.6 0.05 0.1 0.2 -0.35 0.4 -0.3 0.5 L-0.25 0.65 -0.25 0.7 -0.15 0.8 -0.15 0.85 0.4 0.65 1.3 0.65 Q2.05 0.55 2.3 0.35 L2.3 -0.4 2.25 -0.45 Q2.25 -0.6 2.35 -0.65 L2.5 -0.8 M-1.2 -1.05 L-1.0 -1.25 -1.2 -1.3 Q-2.0 -1.3 -2.75 -0.7 -3.45 -0.15 -3.4 0.1 -3.4 0.2 -3.3 0.2 L-3.0 0.25 -2.85 0.25 -2.85 0.05 Q-2.9 0.0 -1.55 -0.85 -1.4 -0.95 -1.2 -1.05 M1.2 -0.45 L1.25 -0.4 1.15 -0.4 1.2 -0.45 M1.1 -1.6 L1.1 -1.55 1.15 -1.6 1.1 -1.6" fill="#111111" fill-rule="evenodd" stroke="none"/>
    <path d="M1.35 -2.1 Q1.5 -2.15 1.75 -2.0 2.05 -1.8 2.25 -1.55 L2.05 -0.9 1.95 -0.4 Q1.85 -0.15 1.45 0.05 L0.4 0.4 Q-0.1 0.55 -0.25 0.7 L-0.25 0.65 -0.3 0.5 Q-0.35 0.4 0.1 0.2 0.6 0.05 0.95 0.1 1.1 0.05 1.15 -0.15 L1.2 -0.15 1.3 -0.15 1.35 -0.25 1.3 -0.3 1.25 -0.3 1.35 -0.35 1.3 -0.35 1.25 -0.4 1.2 -0.45 1.25 -0.45 0.95 -0.55 0.8 -0.55 -0.15 -0.6 -1.6 -0.05 -2.15 0.25 -2.5 0.35 -2.5 0.1 Q-2.55 -0.05 -1.55 -0.55 -0.65 -1.0 -0.5 -1.0 L-0.2 -1.0 0.55 -0.9 Q0.65 -0.9 0.7 -0.95 L0.75 -0.95 Q0.55 -1.1 0.3 -1.15 L0.0 -1.15 -0.2 -1.2 0.45 -1.35 -1.45 -1.5 Q-1.95 -1.45 -2.65 -1.0 L-2.45 -1.2 Q-2.0 -1.75 -1.9 -1.75 L-0.85 -1.65 -0.3 -1.5 0.7 -1.5 0.8 -1.45 0.85 -1.45 1.15 -1.35 Q1.15 -1.5 1.35 -1.75 L1.3 -1.8 1.35 -1.9 1.35 -2.1 M-3.3 0.2 Q-3.4 0.2 -3.4 0.1 -3.45 -0.15 -2.75 -0.7 -2.0 -1.3 -1.2 -1.3 L-1.0 -1.25 -1.2 -1.05 Q-1.55 -0.95 -1.95 -0.75 -2.55 -0.45 -2.95 -0.1 L-3.3 0.2 M0.65 -0.85 L0.35 -0.75 0.45 -0.8 0.65 -0.85" fill="#ffffcc" fill-rule="evenodd" stroke="none"/>
    <path d="M2.25 -1.55 Q2.45 -1.2 2.5 -0.8 L2.35 -0.65 Q2.25 -0.6 2.25 -0.45 L2.3 -0.4 2.3 0.35 Q2.05 0.55 1.3 0.65 L0.4 0.65 -0.15 0.85 -0.15 0.8 -0.25 0.7 Q-0.1 0.55 0.4 0.4 L1.45 0.05 Q1.85 -0.15 1.95 -0.4 L2.05 -0.9 2.25 -1.55 M1.2 -0.15 L0.9 -0.25 0.85 -0.25 0.55 -0.3 0.2 -0.25 -0.1 -0.3 -0.6 -0.2 -0.65 -0.25 -0.8 -0.2 Q-1.65 0.15 -2.15 0.25 L-1.6 -0.05 -0.15 -0.6 0.8 -0.55 0.95 -0.55 1.25 -0.45 1.2 -0.45 1.15 -0.4 1.25 -0.4 1.3 -0.35 1.35 -0.35 1.25 -0.3 1.3 -0.3 1.35 -0.25 1.3 -0.15 1.2 -0.15 M-3.3 0.2 L-2.95 -0.1 Q-2.55 -0.45 -1.95 -0.75 -1.55 -0.95 -1.2 -1.05 -1.4 -0.95 -1.55 -0.85 -2.9 0.0 -2.85 0.05 L-2.85 0.25 -3.0 0.25 -3.3 0.2 M0.65 -0.85 L0.45 -0.8 0.35 -0.75 0.65 -0.85" fill="#c8cf72" fill-rule="evenodd" stroke="none"/>
  </g>
</svg>
