<?xml version="1.0" encoding="UTF-8" standalone="no"?>
<svg xmlns:ffdec="https://www.free-decompiler.com/flash" xmlns:xlink="http://www.w3.org/1999/xlink" ffdec:objectType="shape" height="13.65px" width="7.7px" xmlns="http://www.w3.org/2000/svg">
  <g transform="matrix(1.0, 0.0, 0.0, 1.0, 3.4, 6.5)">
    <path d="M3.3 -4.65 L3.5 -4.45 3.55 -4.45 3.9 -4.05 3.95 -4.1 Q4.05 -4.4 3.8 -4.75 L3.55 -5.0 3.35 -5.15 3.15 -5.2 Q3.35 -4.9 3.3 -4.7 L3.3 -4.65 M3.2 -4.5 L3.15 -4.5 Q3.05 -4.5 3.0 -4.55 L2.95 -4.6 2.8 -4.6 Q2.65 -4.65 2.45 -4.75 2.3 -4.85 2.05 -5.1 1.8 -4.9 1.35 -5.0 L1.05 -5.05 0.95 -5.1 0.75 -5.15 0.75 -4.95 Q0.55 -4.6 -0.15 -4.4 -0.2 -4.3 -0.15 -4.0 -0.15 -3.55 -0.25 -3.35 L-1.2 -1.4 Q-1.65 -1.7 -1.7 -2.4 L-1.7 -2.5 -1.65 -2.75 Q-2.0 -3.0 -2.1 -3.4 L-2.15 -3.55 -2.2 -3.75 Q-2.2 -4.05 -2.0 -4.2 -2.05 -4.3 -2.0 -4.4 -2.15 -4.55 -2.1 -4.75 -2.05 -5.05 -1.8 -5.3 -1.3 -5.8 -0.9 -5.8 L-0.85 -5.9 Q-0.75 -6.1 -0.45 -6.25 -0.25 -6.4 0.0 -6.45 L0.15 -6.5 Q0.55 -6.55 0.9 -6.35 L1.0 -6.25 1.2 -6.2 1.35 -6.2 Q1.9 -6.2 2.25 -6.0 L2.55 -5.75 2.8 -5.65 2.9 -5.55 Q3.4 -5.3 3.75 -5.0 4.5 -4.35 4.15 -3.8 L4.05 -3.65 3.9 -3.7 Q3.5 -4.35 3.25 -4.5 L3.2 -4.5 M-0.45 -5.7 L-0.35 -5.65 0.05 -5.55 0.5 -5.35 0.6 -5.35 Q0.85 -5.2 1.05 -5.15 1.45 -5.05 1.9 -5.15 L1.85 -5.25 1.9 -5.25 1.8 -5.35 1.55 -5.7 1.5 -5.7 1.25 -5.9 1.2 -6.0 1.15 -6.0 0.9 -6.1 Q0.6 -6.25 0.35 -6.3 -0.15 -6.3 -0.45 -5.9 L-0.45 -5.7 M2.25 -5.75 L2.15 -5.8 1.65 -5.95 1.45 -6.0 1.3 -6.0 1.45 -5.85 1.85 -5.4 2.1 -5.25 2.2 -5.15 2.35 -5.0 2.5 -4.95 2.5 -4.9 Q2.6 -4.85 2.8 -4.8 3.05 -4.65 3.1 -4.7 3.2 -4.9 2.9 -5.25 L2.6 -5.5 2.55 -5.55 2.25 -5.75 M-1.7 -4.5 L-1.65 -4.45 Q-1.55 -4.5 -1.45 -4.5 L-0.8 -4.45 -0.45 -4.45 Q-0.05 -4.45 0.15 -4.55 0.45 -4.65 0.55 -4.85 L0.55 -5.25 0.5 -5.25 0.45 -5.3 Q0.35 -5.35 0.1 -5.4 L-0.2 -5.5 -0.45 -5.55 -0.95 -5.55 Q-1.2 -5.45 -1.4 -5.3 L-1.6 -5.05 Q-1.8 -4.75 -1.7 -4.5 M-0.75 -4.4 L-1.2 -4.35 Q-1.45 -4.3 -1.55 -4.2 L-1.75 -4.05 -1.75 -4.0 -1.9 -3.9 Q-2.0 -3.6 -1.7 -3.25 L-1.6 -3.15 -1.45 -2.95 -1.35 -2.9 Q-1.2 -2.9 -0.9 -3.0 L-0.3 -3.55 Q-0.15 -3.8 -0.3 -4.1 L-0.4 -4.35 -0.55 -4.35 -0.65 -4.4 -0.75 -4.4 M-0.9 -2.8 L-0.95 -2.8 Q-1.15 -2.7 -1.35 -2.65 -1.45 -2.3 -1.35 -2.05 -1.2 -1.8 -1.0 -1.7 L-0.9 -2.8" fill="#111111" fill-rule="evenodd" stroke="none"/>
    <path d="M3.3 -4.65 L3.3 -4.7 Q3.35 -4.9 3.15 -5.2 L3.35 -5.15 3.55 -5.0 3.55 -4.8 Q3.45 -4.65 3.3 -4.65 M1.2 -6.0 Q1.25 -5.85 1.15 -5.7 L0.8 -5.65 0.9 -5.6 1.25 -5.35 1.2 -5.35 Q0.75 -5.55 0.3 -5.7 L-0.45 -5.7 -0.45 -5.9 Q-0.15 -6.3 0.35 -6.3 0.6 -6.25 0.9 -6.1 L1.15 -6.0 1.2 -6.0 M2.2 -5.15 L2.1 -5.25 1.85 -5.4 1.45 -5.85 1.3 -6.0 1.45 -6.0 1.65 -5.95 2.15 -5.8 2.25 -5.75 Q2.4 -5.5 2.25 -5.2 L2.2 -5.15 M-1.7 -4.5 Q-1.8 -4.75 -1.6 -5.05 L-1.4 -5.3 Q-1.2 -5.45 -0.95 -5.55 L-0.45 -5.55 -0.2 -5.5 0.1 -5.4 0.05 -5.25 Q-0.45 -5.2 -1.35 -4.95 L-1.3 -4.95 Q-1.1 -5.0 -0.65 -4.95 L-1.45 -4.75 -1.7 -4.65 -1.7 -4.5 M-1.7 -3.25 Q-2.0 -3.6 -1.9 -3.9 L-1.75 -4.0 -1.75 -4.05 -1.55 -4.2 Q-1.45 -4.3 -1.2 -4.35 L-0.75 -4.4 Q-0.6 -4.1 -0.75 -3.8 -0.8 -3.75 -1.2 -3.5 L-1.2 -3.75 Q-1.5 -3.7 -1.7 -3.25 M-0.9 -2.8 L-1.0 -1.7 Q-1.2 -1.8 -1.35 -2.05 -1.45 -2.3 -1.35 -2.65 -1.15 -2.7 -0.95 -2.8 L-0.9 -2.8" fill="#9c9581" fill-rule="evenodd" stroke="none"/>
    <path d="M3.55 -5.0 L3.8 -4.75 Q4.05 -4.4 3.95 -4.1 L3.9 -4.05 3.55 -4.45 3.5 -4.45 3.3 -4.65 Q3.45 -4.65 3.55 -4.8 L3.55 -5.0 M1.2 -6.0 L1.25 -5.9 1.5 -5.7 1.55 -5.7 1.8 -5.35 1.9 -5.25 1.85 -5.25 1.9 -5.15 Q1.45 -5.05 1.05 -5.15 0.85 -5.2 0.6 -5.35 L0.5 -5.35 0.05 -5.55 -0.35 -5.65 -0.45 -5.7 0.3 -5.7 Q0.75 -5.55 1.2 -5.35 L1.25 -5.35 0.9 -5.6 0.8 -5.65 1.15 -5.7 Q1.25 -5.85 1.2 -6.0 M2.25 -5.75 L2.55 -5.55 2.6 -5.5 2.9 -5.25 Q3.2 -4.9 3.1 -4.7 3.05 -4.65 2.8 -4.8 2.6 -4.85 2.5 -4.9 L2.5 -4.95 2.35 -5.0 2.2 -5.15 2.25 -5.2 Q2.4 -5.5 2.25 -5.75 M0.1 -5.4 Q0.35 -5.35 0.45 -5.3 L0.5 -5.25 0.55 -5.25 0.55 -4.85 Q0.45 -4.65 0.15 -4.55 -0.05 -4.45 -0.45 -4.45 L-0.8 -4.45 -1.45 -4.5 Q-1.55 -4.5 -1.65 -4.45 L-1.7 -4.5 -1.7 -4.65 -1.45 -4.75 -0.65 -4.95 Q-1.1 -5.0 -1.3 -4.95 L-1.35 -4.95 Q-0.45 -5.2 0.05 -5.25 L0.1 -5.4 M-0.75 -4.4 L-0.65 -4.4 -0.55 -4.35 -0.4 -4.35 -0.3 -4.1 Q-0.15 -3.8 -0.3 -3.55 L-0.9 -3.0 Q-1.2 -2.9 -1.35 -2.9 L-1.45 -2.95 -1.6 -3.15 -1.7 -3.25 Q-1.5 -3.7 -1.2 -3.75 L-1.2 -3.5 Q-0.8 -3.75 -0.75 -3.8 -0.6 -4.1 -0.75 -4.4 M-1.0 -1.7 L-0.9 -2.8 -1.0 -1.7" fill="#666154" fill-rule="evenodd" stroke="none"/>
    <path d="M-2.85 4.6 Q-3.15 5.15 -3.25 5.2 -3.4 5.15 -3.4 5.0 -3.4 4.85 -3.15 4.45 -2.9 4.05 -2.9 3.95 -2.5 2.55 -2.35 1.85 L-2.35 1.45 Q-2.35 1.0 -1.75 -0.05 L-1.5 -0.5 -1.6 -1.0 -1.65 -1.3 Q-1.65 -1.45 -1.35 -1.55 L-1.2 -1.7 -1.1 -1.85 Q-1.1 -1.95 -1.15 -2.2 L-1.25 -2.55 -1.25 -2.95 -0.95 -3.25 -0.6 -3.5 Q0.05 -4.0 0.45 -4.0 1.25 -4.0 1.8 -3.85 2.3 -3.7 2.65 -3.45 3.05 -3.1 3.0 -2.7 3.0 -2.6 3.1 -1.8 L3.15 -1.6 Q2.75 -1.45 2.6 -1.05 L3.4 -0.85 Q3.65 -0.85 3.8 -1.0 3.95 -1.1 3.95 -1.15 3.95 -2.45 3.05 -3.35 2.6 -3.75 2.1 -3.95 2.1 -4.1 2.15 -4.2 2.3 -4.45 2.7 -4.1 3.25 -3.7 3.95 -2.7 L4.15 -1.85 4.3 -1.0 Q4.3 -0.85 4.15 -0.75 3.85 -0.6 3.15 -0.6 L2.9 -0.6 2.55 -0.65 2.55 -0.4 Q2.5 -0.1 2.35 0.35 1.95 0.7 1.5 0.7 L1.45 0.7 1.45 0.75 1.35 0.8 Q1.3 1.25 1.1 1.85 0.7 2.75 0.0 4.0 L-1.05 5.8 Q-1.6 6.75 -1.75 7.15 L-1.85 7.0 -1.9 6.85 -1.7 6.2 -1.55 5.7 -1.0 4.9 -0.4 3.9 Q0.45 2.5 0.7 1.85 0.8 1.6 0.8 1.45 L1.0 0.6 0.55 0.4 0.4 0.3 -0.15 0.0 -0.15 0.15 -0.2 0.5 -0.25 0.9 -0.25 1.0 -0.65 -0.2 -1.05 -0.35 -1.25 -0.15 -1.75 0.65 Q-2.1 1.3 -2.25 1.85 L-2.3 2.25 -2.2 3.4 Q-2.2 3.55 -2.7 4.35 L-2.7 4.4 -2.75 4.5 -2.85 4.6 M-1.0 -2.25 L-0.9 -2.1 -0.85 -2.05 Q-0.7 -1.8 -0.7 -1.75 -0.7 -1.6 -0.85 -1.5 L-0.9 -1.45 -0.85 -1.4 -0.65 -1.3 Q-0.45 -1.2 -0.35 -1.2 L-0.05 -1.25 Q0.55 -1.3 0.95 -1.55 1.05 -1.65 1.1 -1.7 L1.15 -1.75 1.2 -1.8 1.4 -2.05 Q1.55 -2.25 1.65 -2.25 L1.65 -2.15 Q1.6 -1.95 1.35 -1.7 L1.2 -1.55 Q0.7 -1.1 0.15 -1.1 L-0.6 -1.15 -1.0 -1.25 -1.3 -1.15 -1.35 -1.1 Q-1.35 -1.05 -1.25 -0.9 L-1.1 -0.7 -1.0 -0.7 -0.95 -0.7 -0.9 -0.7 Q0.25 -0.15 0.5 -0.1 0.8 -0.05 1.1 0.15 L1.15 0.1 Q1.25 0.1 1.35 0.25 L1.35 0.35 2.0 -0.1 2.05 -0.15 Q2.05 -1.35 2.6 -1.8 2.7 -1.85 2.8 -1.9 2.75 -2.25 2.65 -2.55 2.5 -3.1 1.95 -3.35 1.45 -3.55 0.7 -3.55 L0.15 -3.5 -0.5 -2.9 Q-0.85 -2.5 -1.05 -2.4 L-1.0 -2.25" fill="#111111" fill-rule="evenodd" stroke="none"/>
    <path d="M-1.9 5.4 L-2.05 5.4 Q-2.6 5.4 -2.8 4.9 L-2.85 4.6 -2.75 4.5 -2.7 4.4 -2.7 4.35 Q-2.2 3.55 -2.2 3.4 L-2.3 2.25 -2.25 1.85 Q-2.1 1.3 -1.75 0.65 L-1.25 -0.15 -1.05 -0.35 -0.65 -0.2 -0.25 1.0 -0.25 0.9 -0.2 0.5 -0.15 0.15 -0.15 0.0 0.4 0.3 Q0.4 0.55 0.3 0.8 0.15 1.2 -0.2 1.85 L-0.85 2.95 Q-1.2 3.55 -1.35 4.1 L-1.55 4.55 -1.9 5.4" fill="#c7a36d" fill-rule="evenodd" stroke="none"/>
    <path d="M-1.7 6.2 L-1.8 6.2 Q-2.0 6.2 -2.0 6.0 L-2.0 5.8 Q-2.0 5.65 -1.9 5.4 L-1.55 4.55 -1.35 4.1 Q-1.2 3.55 -0.85 2.95 L-0.2 1.85 Q0.15 1.2 0.3 0.8 0.4 0.55 0.4 0.3 L0.55 0.4 1.0 0.6 0.8 1.45 Q0.8 1.6 0.7 1.85 0.45 2.5 -0.4 3.9 L-1.0 4.9 -1.55 5.7 -1.7 6.2" fill="#a9854f" fill-rule="evenodd" stroke="none"/>
    <path d="M-1.0 -2.25 L-1.05 -2.4 Q-0.85 -2.5 -0.5 -2.9 L0.15 -3.5 0.7 -3.55 Q1.45 -3.55 1.95 -3.35 L1.35 -2.8 Q0.55 -2.05 0.0 -2.05 -0.5 -2.05 -0.75 -2.15 -0.9 -2.25 -1.0 -2.25 M-0.95 -0.7 L-1.0 -0.7 -1.1 -0.7 -1.25 -0.9 Q-1.35 -1.05 -1.35 -1.1 L-1.3 -1.15 -1.0 -1.25 -0.6 -1.15 0.15 -1.1 Q0.7 -1.1 1.2 -1.55 L1.35 -1.7 Q1.5 -1.65 1.6 -1.45 1.75 -1.15 1.75 -1.0 1.75 -0.9 1.45 -0.75 1.0 -0.5 0.35 -0.5 0.0 -0.5 -0.4 -0.6 L-0.95 -0.7 M1.15 -1.75 L1.1 -1.7 Q1.05 -1.65 0.95 -1.55 L0.95 -1.65 1.15 -1.75 M-0.05 -1.25 L-0.35 -1.2 Q-0.45 -1.2 -0.65 -1.3 L-0.05 -1.25" fill="#80c0f0" fill-rule="evenodd" stroke="none"/>
    <path d="M-0.65 -1.3 L-0.85 -1.4 -0.9 -1.45 -0.85 -1.5 Q-0.7 -1.6 -0.7 -1.75 -0.7 -1.8 -0.85 -2.05 L-0.9 -2.1 -1.0 -2.25 Q-0.9 -2.25 -0.75 -2.15 -0.5 -2.05 0.0 -2.05 0.55 -2.05 1.35 -2.8 L1.95 -3.35 Q2.5 -3.1 2.65 -2.55 2.75 -2.25 2.8 -1.9 2.7 -1.85 2.6 -1.8 2.05 -1.35 2.05 -0.15 L2.0 -0.1 1.35 0.35 1.35 0.25 Q1.25 0.1 1.15 0.1 L1.1 0.15 Q0.8 -0.05 0.5 -0.1 0.25 -0.15 -0.9 -0.7 L-0.95 -0.7 -0.4 -0.6 Q0.0 -0.5 0.35 -0.5 1.0 -0.5 1.45 -0.75 1.75 -0.9 1.75 -1.0 1.75 -1.15 1.6 -1.45 1.5 -1.65 1.35 -1.7 1.6 -1.95 1.65 -2.15 L1.65 -2.25 Q1.55 -2.25 1.4 -2.05 L1.2 -1.8 1.15 -1.75 0.95 -1.65 0.95 -1.55 Q0.55 -1.3 -0.05 -1.25 L-0.65 -1.3 M-1.0 -0.7 L-1.1 -0.7 -1.0 -0.7" fill="#0070e0" fill-rule="evenodd" stroke="none"/>
    <path d="M1.8 -3.85 Q1.8 -4.3 2.15 -4.2 2.1 -4.1 2.1 -3.95 2.6 -3.75 3.05 -3.35 3.95 -2.45 3.95 -1.15 3.95 -1.1 3.8 -1.0 3.65 -0.85 3.4 -0.85 L2.6 -1.05 Q2.75 -1.45 3.15 -1.6 L3.1 -1.8 Q3.0 -2.6 3.0 -2.7 3.05 -3.1 2.65 -3.45 2.3 -3.7 1.8 -3.85" fill="#666154" fill-rule="evenodd" stroke="none"/>
  </g>
</svg>
