<?xml version="1.0" encoding="UTF-8" standalone="no"?>
<svg xmlns:ffdec="https://www.free-decompiler.com/flash" xmlns:xlink="http://www.w3.org/1999/xlink" ffdec:objectType="shape" height="11.45px" width="7.2px" xmlns="http://www.w3.org/2000/svg">
  <g transform="matrix(1.0, 0.0, 0.0, 1.0, 3.65, 4.8)">
    <path d="M2.35 -4.75 L2.85 -4.55 2.9 -4.55 2.95 -4.35 3.0 -4.05 3.25 -2.9 Q3.55 -1.35 3.55 -0.7 L3.5 -0.2 3.35 -0.05 Q3.0 0.35 2.65 0.9 2.65 1.6 2.05 1.85 L1.9 1.85 Q1.65 1.8 1.55 1.9 L1.45 1.85 1.45 1.8 Q0.95 2.65 0.15 3.7 L-0.75 4.9 Q-0.65 5.1 -0.65 5.3 -0.65 5.4 -0.85 5.6 -0.9 5.8 -1.3 6.1 -1.95 6.55 -2.0 6.65 -2.1 6.5 -2.1 6.25 L-2.05 6.15 -1.85 5.95 Q-1.75 5.85 -1.55 5.7 L-1.15 5.5 -1.25 5.35 -1.4 5.15 -1.4 5.1 -1.5 5.0 -1.5 4.95 -1.7 4.75 -1.9 4.55 Q-2.15 4.4 -2.35 4.4 L-2.45 4.4 -2.8 4.45 Q-2.9 4.45 -2.9 4.5 -2.95 4.55 -3.0 4.55 L-3.0 4.7 -3.05 4.9 Q-3.05 5.0 -3.1 5.05 L-3.15 5.1 -3.05 5.2 -2.75 5.45 -2.7 5.45 -2.6 5.6 Q-2.5 5.7 -2.5 5.75 L-2.45 5.85 -2.5 5.85 Q-2.7 5.6 -3.15 5.35 -3.4 5.25 -3.6 5.2 L-3.65 5.15 -3.65 5.1 Q-3.5 5.0 -3.4 4.85 L-3.35 4.75 Q-3.35 4.45 -3.35 4.1 -3.35 3.75 -2.9 3.75 L-2.35 3.8 -2.3 3.7 Q-1.65 2.25 -1.35 1.55 L-1.25 1.15 Q-1.15 0.85 -0.75 0.2 L-0.7 0.0 Q-0.7 -0.05 -0.8 -0.2 L-0.85 -0.4 Q-0.85 -0.8 -0.75 -0.85 L-0.65 -0.85 -0.65 -0.9 Q-0.6 -0.95 -0.5 -1.05 -0.4 -1.2 -0.4 -1.3 -0.4 -1.5 -0.5 -1.7 -0.6 -1.9 -0.6 -2.1 -0.6 -2.25 -0.25 -2.5 L-0.15 -2.55 0.2 -2.55 Q0.55 -3.05 0.65 -3.4 L0.65 -3.45 0.9 -4.0 Q1.1 -4.4 1.5 -4.6 L2.1 -4.75 2.35 -4.75 M1.15 -3.8 L1.05 -3.65 1.0 -3.35 0.85 -2.85 Q0.8 -2.75 0.8 -2.65 0.8 -2.55 0.95 -2.4 L0.9 -2.35 1.1 -2.3 1.2 -2.25 Q1.65 -2.0 2.05 -1.7 L2.15 -1.6 2.45 -1.35 2.7 -1.1 Q2.95 -0.9 3.15 -0.65 L3.2 -0.8 Q3.2 -1.2 2.95 -2.85 L2.95 -2.9 2.8 -3.1 2.8 -3.2 Q2.8 -3.65 2.65 -4.15 L2.65 -4.2 2.55 -4.25 Q2.35 -4.4 2.05 -4.4 L1.9 -4.4 Q1.35 -4.3 1.15 -3.8 M0.8 -2.25 L0.55 -2.35 0.5 -2.35 Q0.3 -2.25 0.05 -2.15 -0.2 -2.1 -0.2 -1.8 L-0.1 -1.4 Q-0.1 -0.9 -0.25 -0.75 0.85 -0.4 1.9 -0.35 L1.95 -0.35 1.75 -0.15 1.6 -0.15 Q1.0 -0.15 0.6 -0.3 L0.4 -0.4 Q-0.05 -0.7 -0.3 -0.75 -0.35 -0.7 -0.45 -0.7 L-0.5 -0.7 Q-0.55 -0.6 -0.55 -0.45 L-0.55 -0.2 -0.4 -0.2 -0.15 -0.05 Q0.3 0.0 0.9 0.3 1.4 0.6 1.65 0.85 L1.75 0.9 1.85 1.0 1.95 1.15 1.95 1.2 1.85 1.25 1.8 1.2 1.65 1.5 1.8 1.5 Q2.25 1.5 2.3 1.25 L2.3 0.95 Q2.25 0.75 2.4 0.65 L3.05 0.0 3.0 -0.05 2.9 -0.05 2.55 -0.65 2.45 -0.8 2.15 -1.2 Q1.45 -2.0 0.8 -2.25 M-1.3 4.25 Q-1.05 4.45 -0.9 4.6 L-0.15 3.6 Q0.9 2.2 1.3 1.55 L1.45 1.15 1.5 1.05 1.3 0.8 1.25 0.75 1.1 0.65 0.9 0.5 0.9 0.45 Q0.65 0.3 0.4 0.2 L0.25 0.15 0.2 0.15 0.05 0.1 -0.3 0.05 -0.55 0.35 Q-1.0 1.0 -1.25 1.55 L-1.4 1.95 -1.6 3.1 Q-1.65 3.25 -2.1 3.9 L-2.0 3.9 Q-1.6 4.05 -1.3 4.25 M0.7 0.35 L0.7 0.35 M-2.2 4.0 Q-2.5 3.95 -2.75 4.0 -3.0 4.1 -3.05 4.25 L-3.05 4.3 -2.9 4.3 Q-2.3 4.3 -1.8 4.55 L-1.7 4.65 Q-1.5 4.75 -1.35 4.85 -1.1 5.1 -0.95 5.35 L-0.9 5.25 Q-0.9 4.85 -1.25 4.5 L-1.5 4.3 -1.55 4.3 Q-1.75 4.15 -2.0 4.05 L-2.05 4.05 -2.2 4.0" fill="#111111" fill-rule="evenodd" stroke="none"/>
    <path d="M2.35 -4.75 L2.1 -4.75 2.25 -4.8 2.35 -4.75 M1.15 -3.8 L1.05 -3.65 1.15 -3.8 M-0.2 -1.8 Q-0.2 -2.1 0.05 -2.15 0.3 -2.25 0.5 -2.35 L0.55 -2.35 0.8 -2.25 1.65 -1.15 1.75 -1.05 Q1.55 -1.1 1.4 -1.15 0.5 -1.6 0.0 -1.8 L-0.2 -1.85 -0.2 -1.8 M-0.55 -0.45 Q-0.55 -0.6 -0.5 -0.7 L-0.45 -0.7 Q-0.35 -0.7 -0.3 -0.75 -0.05 -0.7 0.4 -0.4 L0.6 -0.3 0.55 -0.35 -0.4 -0.45 -0.55 -0.45" fill="#cc6666" fill-rule="evenodd" stroke="none"/>
    <path d="M1.05 -3.65 L1.15 -3.8 Q1.35 -4.3 1.9 -4.4 L2.05 -4.4 Q2.35 -4.4 2.55 -4.25 L2.65 -4.2 2.65 -4.15 Q2.8 -3.65 2.8 -3.2 L2.8 -3.1 2.95 -2.9 2.95 -2.85 Q3.2 -1.2 3.2 -0.8 L3.15 -0.65 Q2.95 -0.9 2.7 -1.1 L2.45 -1.35 2.15 -1.6 2.05 -1.7 Q1.65 -2.0 1.2 -2.25 L1.1 -2.3 0.9 -2.35 0.95 -2.4 Q0.8 -2.55 0.8 -2.65 0.8 -2.75 0.85 -2.85 L1.0 -3.35 1.05 -3.65 M-0.2 -1.8 L-0.2 -1.85 0.0 -1.8 Q0.5 -1.6 1.4 -1.15 1.55 -1.1 1.75 -1.05 L1.65 -1.15 0.8 -2.25 Q1.45 -2.0 2.15 -1.2 L2.45 -0.8 2.55 -0.65 2.9 -0.05 3.0 -0.05 3.05 0.0 2.4 0.65 Q2.25 0.75 2.3 0.95 L2.3 1.25 Q2.25 1.5 1.8 1.5 L1.65 1.5 1.8 1.2 1.85 1.25 1.95 1.2 1.95 1.15 1.85 1.0 1.75 0.9 1.65 0.85 Q1.4 0.6 0.9 0.3 0.3 0.0 -0.15 -0.05 L-0.4 -0.2 -0.55 -0.2 -0.55 -0.45 -0.4 -0.45 0.55 -0.35 0.6 -0.3 Q1.0 -0.15 1.6 -0.15 L1.75 -0.15 1.95 -0.35 1.9 -0.35 Q0.85 -0.4 -0.25 -0.75 -0.1 -0.9 -0.1 -1.4 L-0.2 -1.8" fill="#a33267" fill-rule="evenodd" stroke="none"/>
    <path d="M-1.3 4.25 Q-1.6 4.05 -2.0 3.9 L-2.1 3.9 Q-1.65 3.25 -1.6 3.1 L-1.4 1.95 -1.25 1.55 Q-1.0 1.0 -0.55 0.35 L-0.3 0.05 0.05 0.1 0.2 0.15 0.25 0.15 0.1 0.95 -0.1 1.75 Q-0.1 2.0 -0.7 3.1 L-1.0 3.7 -1.0 3.8 -1.05 3.85 -1.3 4.25 M0.85 1.45 L0.45 1.95 0.15 2.3 0.1 2.3 Q0.1 2.25 0.1 2.15 0.4 1.3 0.75 0.75 L0.65 0.85 0.85 1.45 M-2.05 4.05 L-2.2 4.0 -2.05 4.05" fill="#b78233" fill-rule="evenodd" stroke="none"/>
    <path d="M0.25 0.15 L0.4 0.2 Q0.65 0.3 0.9 0.45 L0.9 0.5 1.1 0.65 1.25 0.75 1.3 0.8 1.5 1.05 1.45 1.15 1.3 1.55 Q0.9 2.2 -0.15 3.6 L-0.9 4.6 Q-1.05 4.45 -1.3 4.25 L-1.05 3.85 -1.0 3.8 -1.0 3.7 -0.7 3.1 Q-0.1 2.0 -0.1 1.75 L0.1 0.95 0.25 0.15 M0.7 0.35 L0.7 0.35 M0.85 1.45 L0.65 0.85 0.75 0.75 Q0.4 1.3 0.1 2.15 0.1 2.25 0.1 2.3 L0.15 2.3 0.45 1.95 0.85 1.45" fill="#934e2d" fill-rule="evenodd" stroke="none"/>
    <path d="M-2.5 5.75 Q-2.5 5.7 -2.6 5.6 L-2.7 5.45 -2.75 5.45 -3.05 5.2 -3.15 5.1 -3.1 5.05 Q-3.05 5.0 -3.05 4.9 L-3.0 4.7 -3.0 4.6 -2.85 4.45 -2.8 4.45 -2.45 4.4 -2.35 4.4 Q-2.15 4.4 -1.9 4.55 L-1.7 4.75 -2.25 5.55 -2.35 5.65 -2.35 5.85 -2.5 5.75" fill="#ffffcc" fill-rule="evenodd" stroke="none"/>
    <path d="M-1.7 4.75 L-1.5 4.95 -1.5 5.0 -1.4 5.1 -1.4 5.15 -1.25 5.35 -1.15 5.5 -1.55 5.7 Q-1.75 5.85 -1.85 5.95 L-2.05 6.15 -2.1 6.25 -2.35 6.55 Q-2.4 6.5 -2.4 6.35 L-2.35 5.85 -2.35 5.65 -2.25 5.55 -1.7 4.75 M-1.7 4.65 L-1.8 4.55 Q-2.3 4.3 -2.9 4.3 L-3.05 4.3 -3.05 4.25 Q-3.0 4.1 -2.75 4.0 -2.5 3.95 -2.2 4.0 L-2.05 4.05 -2.0 4.05 Q-1.75 4.15 -1.55 4.3 L-1.5 4.3 -1.45 4.35 -1.7 4.65" fill="#c8cf72" fill-rule="evenodd" stroke="none"/>
    <path d="M-1.7 4.65 L-1.45 4.35 -1.5 4.3 -1.25 4.5 Q-0.9 4.85 -0.9 5.25 L-0.95 5.35 Q-1.1 5.1 -1.35 4.85 -1.5 4.75 -1.7 4.65" fill="#9aa237" fill-rule="evenodd" stroke="none"/>
  </g>
</svg>
