<?xml version="1.0" encoding="UTF-8" standalone="no"?>
<svg xmlns:ffdec="https://www.free-decompiler.com/flash" xmlns:xlink="http://www.w3.org/1999/xlink" ffdec:objectType="shape" height="9.05px" width="11.8px" xmlns="http://www.w3.org/2000/svg">
  <g transform="matrix(1.0, 0.0, 0.0, 1.0, 6.8, 5.05)">
    <path d="M4.45 -2.75 L4.3 -2.95 3.1 -3.8 3.05 -3.85 2.75 -4.05 2.75 -4.1 3.5 -3.9 3.85 -3.8 3.7 -3.95 3.7 -4.0 3.35 -4.25 3.2 -4.35 Q2.75 -4.65 2.05 -4.75 1.0 -4.95 0.25 -4.15 -0.15 -3.65 -0.25 -3.25 0.25 -3.4 0.55 -3.5 1.0 -3.65 1.45 -3.75 L2.45 -3.75 Q3.0 -3.7 3.45 -3.45 3.9 -3.2 4.1 -2.8 L4.15 -2.75 Q4.3 -2.45 4.3 -2.2 L4.35 -2.0 Q4.25 -1.4 3.3 -0.75 L3.0 -0.5 Q3.7 -0.65 3.85 -0.75 3.9 -0.8 4.25 -1.25 4.65 -1.75 4.65 -1.85 L4.65 -1.95 4.7 -1.95 4.7 -2.1 4.65 -2.3 Q4.6 -2.55 4.45 -2.75 M3.0 -0.5 L3.0 -0.5 M2.0 -5.05 Q2.95 -5.0 3.6 -4.5 4.25 -4.05 4.3 -3.45 L4.7 -2.8 Q5.0 -2.4 5.0 -2.25 4.8 -1.2 3.65 -0.5 2.65 0.1 1.95 0.0 L1.8 -0.05 1.8 -0.1 0.95 -0.1 Q0.15 -0.25 -0.55 -0.6 -1.05 -0.85 -1.7 -1.0 -1.7 -0.9 -1.75 -0.7 L-1.8 -0.35 Q-1.9 -0.05 -2.15 0.3 -2.45 0.65 -2.5 1.05 -2.6 2.25 -2.65 2.65 -2.85 3.7 -3.15 3.75 -3.35 3.75 -3.5 3.7 -3.65 3.55 -3.8 3.6 -3.9 3.6 -3.95 3.8 -3.95 4.0 -4.15 4.0 -4.75 4.1 -4.85 3.75 -4.85 3.25 -4.9 2.9 L-5.1 1.85 -5.15 1.75 -5.1 1.8 Q-5.4 1.8 -5.55 1.6 L-5.55 1.95 -5.45 2.75 Q-5.4 3.45 -5.75 3.45 -6.4 3.55 -6.65 2.7 -6.8 2.25 -6.8 1.75 L-6.8 0.95 Q-6.85 0.55 -6.6 0.25 L-6.65 0.25 -6.5 0.2 -6.3 -0.15 Q-5.95 -0.55 -5.55 -0.9 -5.3 -1.15 -5.05 -1.75 L-4.85 -2.05 -4.85 -2.1 Q-4.7 -2.45 -4.25 -2.45 L-3.7 -2.6 -2.85 -2.65 -1.45 -2.95 -0.7 -3.15 -0.7 -3.25 Q-0.5 -4.2 0.3 -4.7 1.05 -5.1 2.0 -5.05 M3.05 -1.85 L3.0 -1.85 2.8 -2.0 2.8 -2.05 2.95 -1.95 3.0 -1.9 Q3.2 -1.85 3.3 -1.85 L3.75 -2.1 3.85 -2.1 3.8 -2.4 3.75 -2.55 Q3.6 -2.95 3.25 -3.15 2.95 -3.35 2.5 -3.4 L2.1 -3.5 Q1.5 -3.4 0.2 -3.05 -0.6 -2.8 -1.25 -2.7 L-1.45 -2.65 Q-2.05 -2.45 -2.35 -2.45 L-2.5 -2.4 -3.7 -2.3 -4.0 -2.25 Q-4.2 -2.25 -4.4 -2.05 -4.5 -1.85 -4.75 -1.45 L-4.85 -1.3 -5.0 -1.0 -5.2 -0.75 Q-5.45 -0.4 -5.65 -0.2 -6.35 0.45 -6.5 0.75 -6.65 1.0 -6.65 1.35 L-6.6 1.7 Q-6.6 1.85 -6.3 2.45 -5.95 3.15 -5.8 3.15 -5.5 3.1 -5.6 2.55 L-5.75 1.65 -5.7 0.95 -5.6 0.75 -5.6 0.7 -5.4 0.35 Q-5.3 0.15 -5.0 0.1 L-5.0 0.0 -4.95 -0.25 -4.8 -0.5 -4.75 -0.7 -4.7 -0.65 -4.65 -0.5 Q-4.65 -0.35 -4.75 0.8 -4.85 1.6 -4.8 2.3 L-4.85 2.3 -4.8 2.75 -4.7 3.05 -4.65 3.3 Q-4.5 3.6 -4.35 3.65 L-4.2 3.65 -4.15 3.6 -4.15 3.55 Q-4.1 3.45 -4.05 3.1 -4.05 2.8 -4.05 2.35 L-4.1 1.05 Q-4.1 0.75 -4.05 0.4 -3.95 -0.15 -3.65 -0.2 L-3.5 -0.15 Q-3.4 -0.1 -3.4 0.05 L-3.5 1.3 -3.55 1.9 Q-3.6 2.8 -3.55 3.25 L-3.45 3.4 -3.35 3.5 Q-3.0 3.1 -2.85 2.55 -2.75 2.05 -2.8 1.55 L-2.8 0.7 Q-2.8 0.5 -2.55 0.3 -2.25 0.0 -2.2 -0.2 -2.05 -0.5 -2.1 -1.1 L-2.1 -1.2 Q-2.1 -1.4 -1.9 -1.55 L-1.9 -1.5 Q-1.85 -1.6 -1.8 -1.6 L-1.6 -1.6 -1.6 -1.65 -1.55 -1.6 -1.1 -1.7 Q-0.85 -1.8 -0.45 -1.9 L0.05 -2.0 0.05 -1.95 Q-0.3 -1.8 -0.75 -1.75 -1.0 -1.75 -1.0 -1.5 L-1.05 -1.45 Q-1.1 -1.35 -1.35 -1.3 L-1.45 -1.3 Q-1.15 -1.15 -0.7 -0.95 0.05 -0.6 0.3 -0.55 L0.35 -0.55 0.35 -0.5 0.9 -0.45 1.2 -0.45 Q2.25 -0.45 3.0 -0.95 3.4 -1.2 3.65 -1.55 L3.75 -1.65 3.4 -1.7 Q3.25 -1.7 3.05 -1.85 M-3.7 0.4 Q-3.85 0.8 -3.9 1.85 -3.95 2.65 -3.9 2.85 -3.9 3.0 -3.9 2.95 L-3.75 2.1 Q-3.65 1.45 -3.7 1.2 L-3.7 0.4 M-5.05 0.6 L-5.05 0.55 -5.1 0.55 -5.15 0.6 -5.4 1.1 -5.4 1.15 -5.45 1.35 -5.4 1.25 Q-5.35 1.55 -5.15 1.55 L-5.05 0.6" fill="#111111" fill-rule="evenodd" stroke="none"/>
    <path d="M3.05 -3.85 L3.1 -3.8 4.3 -2.95 4.45 -2.75 4.1 -2.85 4.1 -2.8 Q3.9 -3.2 3.45 -3.45 3.0 -3.7 2.45 -3.75 L1.45 -3.75 Q1.0 -3.65 0.55 -3.5 0.25 -3.4 -0.25 -3.25 -0.15 -3.65 0.25 -4.15 1.0 -4.95 2.05 -4.75 2.75 -4.65 3.2 -4.35 2.45 -4.55 2.05 -4.5 1.65 -4.45 1.0 -4.0 L1.5 -4.1 1.8 -4.15 Q2.3 -4.15 3.1 -3.8 L3.05 -3.85 M3.0 -0.5 L3.0 -0.5" fill="#80c0f0" fill-rule="evenodd" stroke="none"/>
    <path d="M3.05 -3.85 L3.1 -3.8 Q2.3 -4.15 1.8 -4.15 L1.5 -4.1 1.0 -4.0 Q1.65 -4.45 2.05 -4.5 2.45 -4.55 3.2 -4.35 L3.35 -4.25 3.7 -4.0 3.7 -3.95 3.85 -3.8 3.5 -3.9 2.75 -4.1 2.75 -4.05 3.05 -3.85 M4.1 -2.8 L4.1 -2.85 4.45 -2.75 Q4.6 -2.55 4.65 -2.3 L4.7 -2.1 4.7 -1.95 4.65 -1.95 4.65 -1.85 Q4.65 -1.75 4.25 -1.25 3.9 -0.8 3.85 -0.75 3.7 -0.65 3.0 -0.5 L3.3 -0.75 Q4.25 -1.4 4.35 -2.0 L4.3 -2.2 Q4.3 -2.45 4.15 -2.75 L4.1 -2.8" fill="#0070e0" fill-rule="evenodd" stroke="none"/>
    <path d="M2.8 -2.05 L2.8 -2.0 3.0 -1.85 3.05 -1.85 Q2.5 -1.55 2.15 -1.45 1.3 -1.25 0.35 -1.4 0.1 -1.45 -0.15 -1.65 L-0.2 -1.7 -0.2 -1.7 Q0.35 -1.9 1.1 -2.3 L-0.1 -2.25 -1.4 -2.05 -1.85 -1.9 -1.8 -1.9 -2.1 -1.7 -2.25 -1.5 Q-2.4 -1.3 -2.45 -0.9 -2.35 -0.7 -2.65 -0.25 -2.95 0.25 -2.9 0.45 -2.85 0.8 -3.2 1.8 L-3.55 1.9 -3.5 1.3 -3.4 0.05 Q-3.4 -0.1 -3.5 -0.15 L-3.45 -0.25 Q-3.55 -0.75 -3.75 -0.45 -3.9 -0.25 -4.05 0.15 -4.25 0.65 -4.3 1.05 -4.4 1.9 -4.75 2.15 L-4.8 2.3 Q-4.85 1.6 -4.75 0.8 -4.65 -0.35 -4.65 -0.5 L-4.7 -0.65 -4.75 -0.7 -4.8 -0.5 -4.95 -0.25 -4.95 -0.3 Q-5.55 0.0 -5.85 0.6 -6.1 1.15 -6.0 1.75 L-6.45 1.5 Q-6.55 1.4 -6.65 1.35 -6.65 1.0 -6.5 0.75 -6.35 0.45 -5.65 -0.2 -5.45 -0.4 -5.2 -0.75 L-5.0 -1.0 -4.85 -1.3 -4.75 -1.45 Q-4.5 -1.85 -4.4 -2.05 -4.2 -2.25 -4.0 -2.25 L-3.7 -2.3 -2.5 -2.4 -2.35 -2.45 Q-2.05 -2.45 -1.45 -2.65 L-1.25 -2.7 Q-0.6 -2.8 0.2 -3.05 1.5 -3.4 2.1 -3.5 L2.5 -3.4 Q2.95 -3.35 3.25 -3.15 3.6 -2.95 3.75 -2.55 L3.8 -2.4 3.5 -2.35 Q3.0 -2.2 2.8 -2.05 M1.2 -0.45 L0.9 -0.45 0.9 -0.5 1.2 -0.45 M-4.7 3.05 L-4.35 3.65 Q-4.5 3.6 -4.65 3.3 L-4.7 3.05" fill="#c7a36d" fill-rule="evenodd" stroke="none"/>
    <path d="M2.8 -2.05 Q3.0 -2.2 3.5 -2.35 L3.8 -2.4 3.85 -2.1 3.75 -2.1 3.3 -1.85 Q3.2 -1.85 3.0 -1.9 L2.95 -1.95 2.8 -2.05 M-6.65 1.35 Q-6.55 1.4 -6.45 1.5 L-6.0 1.75 Q-6.1 1.15 -5.85 0.6 -5.55 0.0 -4.95 -0.3 L-4.95 -0.25 -5.0 0.0 -5.0 0.1 Q-5.3 0.15 -5.4 0.35 L-5.6 0.7 -5.6 0.75 -5.7 0.95 -5.75 1.65 -5.6 2.55 Q-5.5 3.1 -5.8 3.15 -5.95 3.15 -6.3 2.45 -6.6 1.85 -6.6 1.7 L-6.65 1.35 M-4.8 2.3 L-4.75 2.15 Q-4.4 1.9 -4.3 1.05 -4.25 0.65 -4.05 0.15 -3.9 -0.25 -3.75 -0.45 -3.55 -0.75 -3.45 -0.25 L-3.5 -0.15 -3.65 -0.2 Q-3.95 -0.15 -4.05 0.4 -4.1 0.75 -4.1 1.05 L-4.05 2.35 Q-4.05 2.8 -4.05 3.1 -4.1 3.45 -4.15 3.55 L-4.15 3.6 -4.2 3.65 -4.35 3.65 -4.7 3.05 -4.8 2.75 -4.85 2.3 -4.8 2.3 M-3.55 1.9 L-3.2 1.8 Q-2.85 0.8 -2.9 0.45 -2.95 0.25 -2.65 -0.25 -2.35 -0.7 -2.45 -0.9 -2.4 -1.3 -2.25 -1.5 L-2.1 -1.7 -1.8 -1.9 -1.85 -1.9 -1.4 -2.05 -0.1 -2.25 1.1 -2.3 Q0.35 -1.9 -0.2 -1.7 L-0.2 -1.7 -0.15 -1.65 Q0.1 -1.45 0.35 -1.4 1.3 -1.25 2.15 -1.45 2.5 -1.55 3.05 -1.85 3.25 -1.7 3.4 -1.7 L3.75 -1.65 3.65 -1.55 Q3.4 -1.2 3.0 -0.95 2.25 -0.45 1.2 -0.45 L0.9 -0.5 0.9 -0.45 0.35 -0.5 0.35 -0.55 0.3 -0.55 Q0.05 -0.6 -0.7 -0.95 -1.15 -1.15 -1.45 -1.3 L-1.35 -1.3 Q-1.1 -1.35 -1.05 -1.45 L-1.0 -1.5 Q-1.0 -1.75 -0.75 -1.75 -0.3 -1.8 0.05 -1.95 L0.05 -2.0 -0.45 -1.9 Q-0.85 -1.8 -1.1 -1.7 L-1.55 -1.6 -1.6 -1.65 -1.6 -1.6 -1.8 -1.6 Q-1.85 -1.6 -1.9 -1.5 L-1.9 -1.55 Q-2.1 -1.4 -2.1 -1.2 L-2.1 -1.1 Q-2.05 -0.5 -2.2 -0.2 -2.25 0.0 -2.55 0.3 -2.8 0.5 -2.8 0.7 L-2.8 1.55 Q-2.75 2.05 -2.85 2.55 -3.0 3.1 -3.35 3.5 L-3.45 3.4 -3.55 3.25 Q-3.6 2.8 -3.55 1.9 M-5.05 0.6 L-5.15 1.55 Q-5.35 1.55 -5.4 1.25 L-5.45 1.35 -5.4 1.15 -5.4 1.1 -5.15 0.6 -5.1 0.55 -5.05 0.55 -5.05 0.6" fill="#a9854f" fill-rule="evenodd" stroke="none"/>
  </g>
</svg>
