<?xml version="1.0" encoding="UTF-8" standalone="no"?>
<svg xmlns:ffdec="https://www.free-decompiler.com/flash" xmlns:xlink="http://www.w3.org/1999/xlink" ffdec:objectType="shape" height="2.25px" width="1.65px" xmlns="http://www.w3.org/2000/svg">
  <g transform="matrix(1.0, 0.0, 0.0, 1.0, -1.6, 0.7)">
    <path d="M2.45 -0.7 Q2.65 -0.65 2.9 -0.3 3.1 0.0 3.1 0.15 L3.1 0.45 Q3.25 1.05 3.25 1.35 3.2 1.55 3.1 1.55 L2.95 1.35 2.85 1.15 2.75 1.2 Q2.55 1.5 2.35 1.5 L1.85 1.4 Q1.65 1.35 1.6 1.2 L1.6 1.15 1.65 1.1 1.65 0.95 1.7 0.85 1.75 0.65 1.8 0.4 Q1.8 0.15 1.95 -0.25 2.2 -0.8 2.45 -0.7 M2.35 -0.6 Q2.25 -0.6 2.1 -0.4 1.95 -0.2 1.95 -0.15 L1.85 0.3 1.9 0.3 2.0 0.25 2.15 0.25 Q2.35 0.25 2.5 0.35 L2.9 0.7 2.95 0.55 3.0 0.35 3.0 0.15 Q3.0 -0.05 2.9 -0.25 2.7 -0.6 2.4 -0.6 L2.35 -0.6 M3.15 0.95 L3.1 0.7 3.05 0.55 2.95 0.75 Q2.95 0.9 2.9 1.05 L2.95 1.15 3.1 1.5 3.15 1.45 3.15 0.95 M1.8 1.3 Q1.9 1.35 2.15 1.35 L2.45 1.4 Q2.5 1.4 2.75 1.0 L2.9 0.75 2.6 0.5 Q2.25 0.25 2.15 0.25 L2.1 0.25 2.05 0.3 2.0 0.3 1.85 0.35 Q1.75 0.75 1.75 0.85 L1.7 1.0 Q1.7 1.1 1.7 1.15 1.7 1.25 1.8 1.3" fill="#000000" fill-rule="evenodd" stroke="none"/>
    <path d="M2.15 0.25 L2.3 -0.1 2.4 -0.5 2.35 -0.6 2.4 -0.6 Q2.7 -0.6 2.9 -0.25 3.0 -0.05 3.0 0.15 L3.0 0.35 2.95 0.55 2.9 0.7 2.5 0.35 Q2.35 0.25 2.15 0.25 2.25 0.25 2.6 0.5 L2.9 0.75 2.75 1.0 Q2.5 1.4 2.45 1.4 L2.15 1.35 Q1.9 1.35 1.8 1.3 L1.95 0.8 2.05 0.3 2.1 0.25 2.15 0.25" fill="#c54b23" fill-rule="evenodd" stroke="none"/>
    <path d="M3.15 0.95 L3.15 1.45 3.1 1.5 2.95 1.15 Q3.0 0.95 3.1 0.95 L3.15 0.95" fill="#f4db9f" fill-rule="evenodd" stroke="none"/>
    <path d="M2.95 1.15 L2.9 1.05 Q2.95 0.9 2.95 0.75 L3.05 0.55 3.1 0.7 3.15 0.95 3.1 0.95 Q3.0 0.95 2.95 1.15 M3.15 1.45 L3.1 1.5 3.15 1.45" fill="#e6935b" fill-rule="evenodd" stroke="none"/>
    <path d="M2.35 -0.6 L2.4 -0.5 2.3 -0.1 2.15 0.25 2.0 0.25 1.9 0.3 1.85 0.3 1.95 -0.15 Q1.95 -0.2 2.1 -0.4 2.25 -0.6 2.35 -0.6 M1.8 1.3 Q1.7 1.25 1.7 1.15 1.7 1.1 1.7 1.0 L1.75 0.85 Q1.75 0.75 1.85 0.35 L2.0 0.3 2.05 0.3 1.95 0.8 1.8 1.3" fill="#9b241e" fill-rule="evenodd" stroke="none"/>
  </g>
</svg>
