<?xml version="1.0" encoding="UTF-8" standalone="no"?>
<svg xmlns:ffdec="https://www.free-decompiler.com/flash" xmlns:xlink="http://www.w3.org/1999/xlink" ffdec:objectType="shape" height="2.05px" width="2.6px" xmlns="http://www.w3.org/2000/svg">
  <g transform="matrix(1.0, 0.0, 0.0, 1.0, 0.65, 1.8)">
    <path d="M0.7 -1.2 L0.75 -1.15 0.8 -1.05 1.15 -0.8 1.2 -0.95 Q1.2 -1.1 1.2 -1.25 L1.1 -1.45 1.05 -1.5 Q0.9 -1.7 0.7 -1.65 0.55 -1.6 0.55 -1.5 L0.55 -1.4 0.7 -1.2 M-0.2 -1.15 L0.25 -0.9 Q0.6 -0.75 0.65 -0.75 0.8 -0.8 0.85 -0.85 L0.9 -0.9 0.85 -0.9 0.75 -1.05 0.75 -1.1 0.6 -1.2 0.4 -1.35 0.35 -1.4 0.25 -1.45 0.05 -1.45 0.05 -1.4 -0.05 -1.35 -0.2 -1.15 M1.5 -1.05 L1.4 -1.2 Q1.3 -1.3 1.25 -1.25 1.2 -1.15 1.25 -0.85 L1.35 -0.75 1.35 -0.7 1.4 -0.65 Q1.45 -0.55 1.5 -0.55 L1.5 -0.35 1.55 -0.35 1.6 -0.65 1.6 -0.85 1.5 -1.05 M0.4 -1.65 L0.5 -1.7 Q0.65 -1.85 0.9 -1.8 1.2 -1.75 1.3 -1.5 L1.55 -1.3 Q1.7 -1.15 1.75 -0.95 L1.8 -0.7 1.9 -0.55 1.95 -0.45 1.9 -0.2 Q1.8 0.1 1.65 0.1 L1.5 0.2 Q1.45 0.25 1.45 0.2 L1.45 -0.15 1.4 -0.25 1.4 -0.4 Q1.35 -0.55 1.25 -0.6 L1.2 -0.7 1.05 -0.8 0.7 -0.65 Q0.5 -0.65 0.4 -0.65 L0.3 -0.55 0.2 -0.5 0.15 -0.5 0.1 -0.55 0.0 -0.45 -0.05 -0.45 -0.05 -0.4 -0.1 -0.3 -0.1 -0.15 -0.05 -0.1 Q-0.1 0.0 -0.1 0.1 L-0.1 0.2 -0.15 0.2 Q-0.35 0.25 -0.5 0.05 -0.6 -0.15 -0.65 -0.3 -0.7 -0.5 -0.6 -0.65 L-0.65 -0.75 Q-0.65 -0.85 -0.6 -1.05 -0.5 -1.2 -0.3 -1.3 -0.25 -1.45 0.0 -1.6 0.25 -1.75 0.4 -1.65 M-0.45 -0.8 L-0.45 -0.7 -0.35 -0.55 Q-0.3 -0.4 -0.25 -0.45 L-0.2 -0.45 -0.2 -0.4 0.0 -0.55 0.05 -0.6 0.25 -0.75 Q0.2 -0.75 0.15 -0.85 -0.05 -1.05 -0.15 -1.05 L-0.3 -1.05 Q-0.5 -1.0 -0.45 -0.8 M1.8 -0.45 L1.7 -0.55 1.55 -0.35 1.55 -0.05 Q1.6 -0.1 1.7 -0.25 1.8 -0.4 1.8 -0.45 M-0.25 -0.3 L-0.3 -0.35 -0.4 -0.5 Q-0.55 -0.55 -0.5 -0.3 L-0.45 -0.25 Q-0.35 0.0 -0.25 0.0 L-0.2 -0.05 -0.2 -0.15 -0.25 -0.25 -0.25 -0.3" fill="#111111" fill-rule="evenodd" stroke="none"/>
    <path d="M1.1 -1.45 L1.2 -1.25 Q1.2 -1.1 1.2 -0.95 L1.15 -0.8 0.8 -1.05 0.75 -1.15 0.7 -1.2 0.75 -1.2 0.9 -1.05 Q1.05 -1.05 1.1 -1.25 L1.1 -1.45 M0.75 -1.1 L0.75 -1.05 0.85 -0.9 0.9 -0.9 0.85 -0.85 Q0.8 -0.8 0.65 -0.75 0.6 -0.75 0.25 -0.9 L-0.2 -1.15 Q0.4 -1.0 0.7 -1.0 L0.75 -1.1 M1.4 -0.65 Q1.55 -0.9 1.5 -1.05 L1.6 -0.85 1.6 -0.65 1.55 -0.35 1.5 -0.35 1.5 -0.55 Q1.45 -0.55 1.4 -0.65 M0.15 -0.85 Q0.2 -0.75 0.25 -0.75 L0.05 -0.6 0.0 -0.55 -0.2 -0.4 -0.2 -0.45 -0.25 -0.45 Q-0.3 -0.4 -0.35 -0.55 L-0.45 -0.7 -0.45 -0.8 -0.05 -0.75 0.15 -0.85 M1.8 -0.45 Q1.8 -0.4 1.7 -0.25 1.6 -0.1 1.55 -0.05 L1.55 -0.35 1.7 -0.55 1.8 -0.45 M-0.45 -0.25 L-0.4 -0.25 -0.25 -0.3 -0.25 -0.25 -0.2 -0.15 -0.2 -0.05 -0.25 0.0 Q-0.35 0.0 -0.45 -0.25" fill="#bed174" fill-rule="evenodd" stroke="none"/>
    <path d="M0.7 -1.2 L0.55 -1.4 0.55 -1.5 Q0.55 -1.6 0.7 -1.65 0.9 -1.7 1.05 -1.5 L1.1 -1.45 1.1 -1.25 Q1.05 -1.05 0.9 -1.05 L0.75 -1.2 0.7 -1.2 M0.75 -1.1 L0.7 -1.0 Q0.4 -1.0 -0.2 -1.15 L-0.05 -1.35 0.05 -1.4 0.05 -1.45 0.25 -1.45 0.35 -1.4 0.4 -1.35 0.6 -1.2 0.75 -1.1 M1.4 -0.65 L1.35 -0.7 1.35 -0.75 1.25 -0.85 Q1.2 -1.15 1.25 -1.25 1.3 -1.3 1.4 -1.2 L1.5 -1.05 Q1.55 -0.9 1.4 -0.65 M-0.45 -0.8 Q-0.5 -1.0 -0.3 -1.05 L-0.15 -1.05 Q-0.05 -1.05 0.15 -0.85 L-0.05 -0.75 -0.45 -0.8 M-0.45 -0.25 L-0.5 -0.3 Q-0.55 -0.55 -0.4 -0.5 L-0.3 -0.35 -0.25 -0.3 -0.4 -0.25 -0.45 -0.25" fill="#e6edc9" fill-rule="evenodd" stroke="none"/>
  </g>
</svg>
