<?xml version="1.0" encoding="UTF-8" standalone="no"?>
<svg xmlns:ffdec="https://www.free-decompiler.com/flash" xmlns:xlink="http://www.w3.org/1999/xlink" ffdec:objectType="shape" height="3.35px" width="4.0px" xmlns="http://www.w3.org/2000/svg">
  <g transform="matrix(1.0, 0.0, 0.0, 1.0, 1.45, 3.35)">
    <path d="M0.5 -3.35 L0.7 -3.35 Q1.85 -3.35 2.3 -2.35 2.45 -2.0 2.5 -1.6 L2.55 -1.5 2.55 -1.05 Q2.4 -0.8 1.8 -0.5 0.85 0.0 -0.35 0.0 -0.75 0.0 -1.05 -0.1 L-1.25 -0.15 -1.3 -0.15 -1.35 -0.2 -1.45 -0.25 -1.45 -0.45 Q-1.45 -0.85 -1.35 -1.3 -1.25 -1.75 -1.05 -2.05 -0.8 -2.5 -0.4 -2.85 0.0 -3.2 0.4 -3.3 L0.5 -3.35 M1.4 -3.0 L1.35 -3.0 Q0.95 -3.25 0.65 -3.25 -0.6 -2.65 -1.0 -1.85 -1.25 -1.35 -1.25 -0.4 L-1.25 -0.35 -1.0 -0.25 -0.95 -0.25 -0.8 -0.2 -0.4 -0.15 -0.35 -0.15 Q0.9 -0.15 1.8 -0.7 2.05 -0.85 2.4 -1.15 L2.4 -1.2 2.35 -1.3 Q2.35 -1.35 2.3 -1.4 L2.3 -1.6 2.15 -2.15 Q1.95 -2.65 1.4 -3.0" fill="#000000" fill-rule="evenodd" stroke="none"/>
    <path d="M1.4 -3.0 Q1.25 -2.8 1.1 -2.4 0.8 -1.65 -0.25 -0.75 L-0.95 -0.25 -1.0 -0.25 -1.25 -0.35 -1.25 -0.4 Q-1.25 -1.35 -1.0 -1.85 -0.6 -2.65 0.65 -3.25 0.95 -3.25 1.35 -3.0 L1.4 -3.0" fill="#464e59" fill-rule="evenodd" stroke="none"/>
    <path d="M-0.95 -0.25 L-0.25 -0.75 Q0.8 -1.65 1.1 -2.4 1.25 -2.8 1.4 -3.0 1.95 -2.65 2.15 -2.15 L2.3 -1.6 2.3 -1.4 Q2.35 -1.35 2.35 -1.3 L2.4 -1.2 2.4 -1.15 Q2.05 -0.85 1.8 -0.7 0.9 -0.15 -0.35 -0.15 L-0.4 -0.15 -0.8 -0.2 -0.95 -0.25" fill="#3a4749" fill-rule="evenodd" stroke="none"/>
  </g>
</svg>
