<?xml version="1.0" encoding="UTF-8" standalone="no"?>
<svg xmlns:ffdec="https://www.free-decompiler.com/flash" xmlns:xlink="http://www.w3.org/1999/xlink" ffdec:objectType="shape" height="2.5px" width="2.8px" xmlns="http://www.w3.org/2000/svg">
  <g transform="matrix(1.0, 0.0, 0.0, 1.0, 0.1, 3.6)">
    <path d="M2.6 -3.2 Q2.7 -2.9 2.7 -2.7 L2.7 -2.4 Q2.65 -2.1 2.5 -1.75 2.25 -1.15 1.95 -1.1 0.9 -0.95 0.3 -1.75 -0.1 -2.3 -0.1 -2.7 -0.1 -2.75 0.0 -2.8 L0.6 -2.9 Q1.25 -2.95 1.85 -3.35 L2.2 -3.6 Q2.25 -3.55 2.4 -3.55 L2.6 -3.2 M2.55 -2.6 L2.55 -2.95 Q2.55 -3.1 2.35 -3.3 2.2 -3.4 2.1 -3.35 L1.75 -3.15 Q1.4 -2.9 0.85 -2.75 0.8 -2.7 0.8 -2.65 L0.75 -2.6 Q1.0 -2.1 1.4 -2.0 L1.5 -1.95 1.8 -1.95 Q2.25 -2.0 2.5 -2.35 L2.55 -2.4 2.55 -2.6 M2.15 -1.9 L2.1 -1.9 Q1.6 -1.85 1.2 -2.05 0.95 -2.2 0.9 -2.3 L0.7 -2.6 0.55 -2.7 0.05 -2.6 Q0.1 -2.25 0.4 -1.9 L0.5 -1.8 0.65 -1.65 Q1.15 -1.25 1.95 -1.35 2.3 -1.4 2.45 -1.95 L2.5 -2.15 2.45 -2.1 2.45 -2.05 2.4 -2.05 2.2 -1.9 2.15 -1.9" fill="#111111" fill-rule="evenodd" stroke="none"/>
    <path d="M1.4 -2.0 L1.45 -2.0 1.9 -2.1 Q2.1 -2.15 2.35 -2.45 L2.55 -2.7 2.55 -2.6 2.55 -2.4 2.5 -2.35 Q2.25 -2.0 1.8 -1.95 L1.5 -1.95 1.4 -2.0 M2.15 -1.9 L2.2 -1.9 2.4 -2.05 2.45 -2.05 2.45 -2.1 2.5 -2.15 2.45 -1.95 Q2.3 -1.4 1.95 -1.35 1.15 -1.25 0.65 -1.65 L0.5 -1.8 Q1.0 -1.55 1.45 -1.6 1.85 -1.65 2.15 -1.9" fill="#600000" fill-rule="evenodd" stroke="none"/>
    <path d="M1.4 -2.0 Q1.0 -2.1 0.75 -2.6 L0.8 -2.65 Q0.8 -2.7 0.85 -2.75 1.4 -2.9 1.75 -3.15 L2.1 -3.35 Q2.2 -3.4 2.35 -3.3 2.55 -3.1 2.55 -2.95 L2.55 -2.6 2.55 -2.7 2.35 -2.45 Q2.1 -2.15 1.9 -2.1 L1.45 -2.0 1.4 -2.0 M0.5 -1.8 L0.4 -1.9 Q0.1 -2.25 0.05 -2.6 L0.55 -2.7 0.7 -2.6 0.9 -2.3 Q0.95 -2.2 1.2 -2.05 1.6 -1.85 2.1 -1.9 L2.15 -1.9 Q1.85 -1.65 1.45 -1.6 1.0 -1.55 0.5 -1.8" fill="#b00000" fill-rule="evenodd" stroke="none"/>
  </g>
</svg>
