<?xml version="1.0" encoding="UTF-8" standalone="no"?>
<svg xmlns:ffdec="https://www.free-decompiler.com/flash" xmlns:xlink="http://www.w3.org/1999/xlink" ffdec:objectType="shape" height="11.15px" width="8.95px" xmlns="http://www.w3.org/2000/svg">
  <g transform="matrix(1.0, 0.0, 0.0, 1.0, -1.0, 10.55)">
    <path d="M6.8 -9.15 L7.1 -8.75 Q7.2 -8.55 7.3 -8.15 7.45 -7.65 7.5 -7.55 7.6 -7.25 7.65 -6.35 7.75 -5.55 7.7 -5.05 L7.55 -3.75 Q7.4 -2.85 7.35 -2.6 7.35 -2.35 7.4 -1.95 L8.4 -1.7 9.25 -1.6 Q9.95 -1.45 9.95 -1.1 L9.9 -1.05 9.9 -1.0 Q9.85 -0.55 8.45 0.0 6.95 0.6 5.75 0.6 L4.5 0.55 3.75 0.55 Q2.4 0.45 1.7 0.1 1.15 -0.2 1.3 -0.5 L1.3 -0.6 1.35 -0.6 1.35 -0.65 1.55 -1.5 1.55 -1.9 Q1.55 -2.9 1.15 -3.7 1.05 -3.85 1.0 -4.9 0.95 -5.9 1.0 -6.3 L1.0 -6.55 1.1 -7.45 Q1.15 -7.95 1.55 -9.15 L1.75 -9.6 Q2.7 -10.85 4.55 -10.45 5.3 -10.25 5.9 -9.9 6.3 -9.7 6.5 -9.5 L6.8 -9.15 M6.45 -8.95 L6.4 -9.05 6.3 -9.15 Q6.15 -9.3 6.1 -9.45 L5.7 -9.7 5.65 -9.7 5.5 -9.8 5.1 -10.05 Q4.6 -10.25 4.15 -10.25 2.45 -10.25 1.85 -9.25 L1.85 -9.15 1.55 -8.3 Q1.3 -7.3 1.25 -6.75 1.2 -6.2 1.25 -5.7 L1.3 -5.0 1.4 -4.35 1.45 -4.05 1.5 -3.85 1.9 -2.1 Q2.15 -1.6 2.8 -1.6 4.25 -1.6 4.95 -2.95 5.35 -3.85 5.45 -5.05 5.55 -6.05 5.45 -6.65 5.35 -7.25 5.4 -8.0 5.45 -8.45 5.65 -8.55 5.95 -8.7 6.5 -8.0 6.85 -7.55 7.2 -6.75 L7.4 -6.15 7.4 -6.2 Q7.3 -6.8 7.15 -7.3 L7.05 -7.9 6.85 -8.45 6.45 -8.95 M6.85 -7.15 L6.65 -7.6 Q6.2 -8.4 5.9 -8.4 5.7 -8.4 5.65 -8.2 L5.65 -8.05 5.6 -6.85 Q5.7 -6.35 5.65 -6.1 5.7 -4.85 5.35 -3.75 5.15 -3.05 4.8 -2.55 L3.9 -1.75 3.8 -1.7 3.65 -1.65 Q3.25 -1.5 2.8 -1.5 2.1 -1.5 1.95 -1.8 L1.9 -1.85 1.95 -1.7 1.95 -1.6 1.95 -1.3 Q1.9 -1.1 1.8 -0.85 L1.75 -0.75 1.75 -0.7 1.65 -0.5 1.7 -0.45 1.7 -0.4 Q1.65 -0.15 2.4 0.05 L2.9 0.15 4.25 0.35 5.6 0.35 Q6.55 0.35 7.55 0.0 7.95 -0.1 8.4 -0.25 9.6 -0.7 9.6 -1.0 L9.65 -1.05 9.65 -1.1 9.6 -1.2 Q9.45 -1.4 9.05 -1.4 L8.9 -1.45 8.5 -1.45 Q7.8 -1.45 7.5 -1.6 L7.6 -1.4 Q7.75 -1.3 7.95 -1.15 8.35 -0.9 8.85 -0.9 L8.8 -0.9 8.6 -0.85 Q8.15 -0.85 7.8 -1.0 L7.75 -1.0 Q7.3 -1.0 7.15 -2.05 L7.1 -2.6 7.1 -3.1 7.25 -3.9 7.4 -4.85 Q7.35 -5.55 7.15 -6.4 7.05 -6.75 6.85 -7.15" fill="#111111" fill-rule="evenodd" stroke="none"/>
    <path d="M1.45 -4.05 L1.5 -3.95 2.0 -3.9 Q2.35 -3.9 3.0 -4.05 3.75 -4.2 3.75 -4.4 3.75 -4.7 3.9 -5.75 L4.0 -6.2 4.25 -6.4 Q5.2 -7.05 5.2 -8.0 5.2 -8.2 5.45 -8.95 L6.45 -8.95 6.85 -8.45 7.05 -7.9 7.15 -7.3 Q7.3 -6.8 7.4 -6.2 L7.4 -6.15 7.2 -6.75 Q6.85 -7.55 6.5 -8.0 5.95 -8.7 5.65 -8.55 5.45 -8.45 5.4 -8.0 5.35 -7.25 5.45 -6.65 5.55 -6.05 5.45 -5.05 5.35 -3.85 4.95 -2.95 4.25 -1.6 2.8 -1.6 2.15 -1.6 1.9 -2.1 L1.5 -3.85 1.45 -4.05" fill="#80c0f0" fill-rule="evenodd" stroke="none"/>
    <path d="M4.8 -2.55 Q5.15 -3.05 5.35 -3.75 5.7 -4.85 5.65 -6.1 5.7 -6.35 5.6 -6.85 L5.65 -8.05 5.65 -8.2 Q5.7 -8.4 5.9 -8.4 6.2 -8.4 6.65 -7.6 L6.85 -7.15 6.9 -6.85 6.95 -6.2 Q6.95 -5.45 6.85 -4.5 L6.8 -4.2 6.4 -6.5 6.35 -6.5 6.3 -5.4 Q6.3 -4.0 5.9 -2.15 L5.6 -0.85 5.75 -1.05 Q4.8 0.15 2.9 0.15 L2.4 0.05 Q1.65 -0.15 1.7 -0.4 L1.7 -0.45 1.65 -0.5 1.75 -0.7 1.75 -0.75 1.8 -0.85 Q1.9 -1.1 1.95 -1.3 L1.95 -1.6 2.0 -1.55 Q2.35 -1.1 2.85 -1.1 4.15 -1.1 4.85 -2.65 L4.9 -2.7 4.8 -2.55" fill="#b00000" fill-rule="evenodd" stroke="none"/>
    <path d="M1.45 -4.05 L1.4 -4.35 1.3 -5.0 1.25 -5.7 Q1.2 -6.2 1.25 -6.75 1.3 -7.3 1.55 -8.3 L1.85 -9.15 1.85 -9.25 Q2.45 -10.25 4.15 -10.25 4.6 -10.25 5.1 -10.05 L5.5 -9.8 5.65 -9.7 5.7 -9.7 6.1 -9.45 Q6.15 -9.3 6.3 -9.15 L6.4 -9.05 6.45 -8.95 5.45 -8.95 Q5.2 -8.2 5.2 -8.0 5.2 -7.05 4.25 -6.4 L4.0 -6.2 3.9 -5.75 Q3.75 -4.7 3.75 -4.4 3.75 -4.2 3.0 -4.05 2.35 -3.9 2.0 -3.9 L1.5 -3.95 1.45 -4.05" fill="#0070e0" fill-rule="evenodd" stroke="none"/>
    <path d="M4.8 -2.55 L4.9 -2.7 4.85 -2.65 Q4.15 -1.1 2.85 -1.1 2.35 -1.1 2.0 -1.55 L1.95 -1.6 1.95 -1.7 1.9 -1.85 1.95 -1.8 Q2.1 -1.5 2.8 -1.5 3.25 -1.5 3.65 -1.65 L3.8 -1.7 3.9 -1.75 4.8 -2.55 M2.9 0.15 Q4.8 0.15 5.75 -1.05 L5.6 -0.85 5.9 -2.15 Q6.3 -4.0 6.3 -5.4 L6.35 -6.5 6.4 -6.5 6.8 -4.2 6.85 -4.5 Q6.95 -5.45 6.95 -6.2 L6.9 -6.85 6.85 -7.15 Q7.05 -6.75 7.15 -6.4 7.35 -5.55 7.4 -4.85 L7.25 -3.9 7.1 -3.1 7.1 -2.6 7.15 -2.05 Q7.3 -1.0 7.75 -1.0 L7.8 -1.0 Q8.15 -0.85 8.6 -0.85 L8.8 -0.9 8.85 -0.9 Q8.35 -0.9 7.95 -1.15 7.75 -1.3 7.6 -1.4 L7.5 -1.6 Q7.8 -1.45 8.5 -1.45 L8.9 -1.45 9.05 -1.4 Q9.45 -1.4 9.6 -1.2 L9.65 -1.1 9.65 -1.05 9.6 -1.0 Q9.6 -0.7 8.4 -0.25 7.95 -0.1 7.55 0.0 6.55 0.35 5.6 0.35 L4.25 0.35 2.9 0.15" fill="#600000" fill-rule="evenodd" stroke="none"/>
  </g>
</svg>
