<?xml version="1.0" encoding="UTF-8" standalone="no"?>
<svg xmlns:ffdec="https://www.free-decompiler.com/flash" xmlns:xlink="http://www.w3.org/1999/xlink" ffdec:objectType="shape" height="12.35px" width="7.65px" xmlns="http://www.w3.org/2000/svg">
  <g transform="matrix(1.0, 0.0, 0.0, 1.0, -0.65, 10.95)">
    <path d="M6.9 -10.05 L7.8 -6.4 Q8.3 -4.55 8.3 -2.6 8.2 -1.7 8.1 -0.85 L8.05 -0.55 8.1 -0.5 8.05 -0.4 Q8.0 -0.1 7.95 0.1 7.65 0.7 6.75 1.0 L5.05 1.35 4.65 1.4 3.95 1.4 Q2.25 1.4 1.35 0.95 1.05 0.8 0.9 0.65 0.65 0.45 0.65 0.25 L0.65 0.2 Q0.65 -0.1 1.4 -0.55 1.95 -0.9 2.05 -1.3 1.95 -2.15 1.6 -3.6 1.1 -5.85 1.1 -7.05 1.1 -7.75 1.2 -8.25 1.3 -8.8 1.55 -9.5 1.65 -9.75 1.9 -10.1 L1.95 -10.15 2.1 -10.4 2.15 -10.5 2.2 -10.55 2.5 -10.5 2.6 -10.5 Q3.75 -10.1 4.6 -10.05 L5.4 -10.1 5.95 -10.2 6.3 -10.3 6.75 -10.4 6.8 -10.4 6.85 -10.15 6.9 -10.05 M5.65 -7.4 L5.95 -7.55 Q6.5 -7.85 6.65 -8.25 6.7 -8.45 6.75 -8.85 6.8 -9.05 6.85 -9.2 L6.7 -9.85 Q6.6 -9.95 6.6 -10.05 L5.95 -9.95 5.4 -9.8 4.75 -9.8 4.6 -9.8 3.15 -10.05 2.75 -10.2 2.4 -10.3 2.35 -10.3 Q2.15 -10.05 1.95 -9.7 1.6 -9.0 1.45 -8.2 L1.9 -7.95 Q2.35 -7.7 2.45 -7.65 L3.0 -7.45 Q3.45 -7.3 4.3 -7.25 L5.05 -7.25 5.65 -7.4 M6.65 0.75 L7.15 0.55 7.35 0.45 7.45 0.35 Q7.55 0.2 7.7 -0.2 L7.75 -0.4 7.8 -0.55 Q8.05 -1.8 8.05 -3.0 L8.05 -3.3 8.0 -4.05 8.0 -4.3 7.95 -4.3 Q7.8 -5.6 7.35 -7.25 L7.0 -8.45 Q6.95 -8.15 6.8 -7.95 6.55 -7.6 6.1 -7.35 L5.8 -7.2 5.65 -7.2 Q5.4 -7.1 5.05 -7.05 L4.7 -7.05 4.3 -7.05 Q3.4 -7.1 3.15 -7.2 L2.55 -7.45 2.05 -7.75 Q1.6 -8.0 1.55 -8.0 1.45 -8.0 1.4 -7.95 1.35 -7.5 1.35 -7.05 1.35 -5.8 1.8 -3.85 2.3 -1.95 2.3 -1.4 2.3 -0.95 2.25 -0.6 L2.0 -0.2 Q1.9 -0.1 1.8 -0.05 L1.8 -0.1 Q2.0 -0.35 2.05 -0.75 1.95 -0.6 1.7 -0.5 L1.55 -0.35 0.85 0.15 Q0.85 0.5 1.5 0.8 2.05 1.05 3.0 1.1 L3.2 1.15 4.8 1.15 5.2 1.1 5.25 1.1 6.15 0.9 6.65 0.75 M2.45 -10.9 L2.45 -10.9" fill="#111111" fill-rule="evenodd" stroke="none"/>
    <path d="M4.7 -7.05 L4.7 -6.55 Q4.65 -5.4 4.3 -3.85 L3.6 -1.2 3.65 -1.2 Q4.6 -3.1 5.1 -4.55 5.55 -5.85 5.7 -6.95 5.85 -6.25 5.85 -5.6 L5.85 -4.1 Q5.7 -3.3 5.1 -1.95 4.45 -0.4 3.45 0.8 L3.2 1.15 3.0 1.1 Q2.05 1.05 1.5 0.8 0.85 0.5 0.85 0.15 L1.55 -0.35 1.7 -0.5 Q1.95 -0.6 2.05 -0.75 2.0 -0.35 1.8 -0.1 L1.8 -0.05 Q1.9 -0.1 2.0 -0.2 L2.25 -0.6 Q2.3 -0.95 2.3 -1.4 2.3 -1.95 1.8 -3.85 1.35 -5.8 1.35 -7.05 1.35 -7.5 1.4 -7.95 1.45 -8.0 1.55 -8.0 1.6 -8.0 2.05 -7.75 L2.55 -7.45 3.15 -7.2 Q3.4 -7.1 4.3 -7.05 L4.7 -7.05 M5.25 1.1 Q5.65 0.4 6.05 -0.95 L6.2 -1.5 6.3 -1.95 Q6.8 -3.75 6.75 -4.9 L6.8 -4.75 6.85 -5.0 6.9 -4.85 Q7.5 -3.6 7.5 -2.35 L7.45 -1.45 Q7.45 -1.15 7.15 -0.4 7.0 0.0 6.5 0.8 L6.65 0.75 6.15 0.9 5.25 1.1" fill="#ff9933" fill-rule="evenodd" stroke="none"/>
    <path d="M4.7 -7.05 L5.05 -7.05 Q5.4 -7.1 5.65 -7.2 L5.8 -7.2 6.1 -7.35 Q6.55 -7.6 6.8 -7.95 6.95 -8.15 7.0 -8.45 L7.35 -7.25 Q7.8 -5.6 7.95 -4.3 L8.0 -4.3 8.0 -4.05 8.05 -3.3 8.05 -3.0 Q8.05 -1.8 7.8 -0.55 L7.75 -0.4 7.7 -0.2 Q7.55 0.2 7.45 0.35 L7.35 0.45 7.15 0.55 6.65 0.75 6.5 0.8 Q7.0 0.0 7.15 -0.4 7.45 -1.15 7.45 -1.45 L7.5 -2.35 Q7.5 -3.6 6.9 -4.85 L6.85 -5.0 6.8 -4.75 6.75 -4.9 Q6.8 -3.75 6.3 -1.95 L6.2 -1.5 6.05 -0.95 Q5.65 0.4 5.25 1.1 L5.2 1.1 4.8 1.15 3.2 1.15 3.45 0.8 Q4.45 -0.4 5.1 -1.95 5.7 -3.3 5.85 -4.1 L5.85 -5.6 Q5.85 -6.25 5.7 -6.95 5.55 -5.85 5.1 -4.55 4.6 -3.1 3.65 -1.2 L3.6 -1.2 4.3 -3.85 Q4.65 -5.4 4.7 -6.55 L4.7 -7.05" fill="#b54d06" fill-rule="evenodd" stroke="none"/>
    <path d="M4.75 -9.8 L5.05 -9.0 5.45 -8.1 5.65 -7.4 5.05 -7.25 4.3 -7.25 Q3.45 -7.3 3.0 -7.45 L2.45 -7.65 Q2.35 -7.7 1.9 -7.95 L1.45 -8.2 Q1.6 -9.0 1.95 -9.7 2.15 -10.05 2.35 -10.3 L2.4 -10.3 2.75 -10.2 3.15 -10.05 4.6 -9.8 4.75 -9.8" fill="#7ba754" fill-rule="evenodd" stroke="none"/>
    <path d="M4.75 -9.8 L5.4 -9.8 5.95 -9.95 6.6 -10.05 Q6.6 -9.95 6.7 -9.85 L6.85 -9.2 Q6.8 -9.05 6.75 -8.85 6.7 -8.45 6.65 -8.25 6.5 -7.85 5.95 -7.55 L5.65 -7.4 5.45 -8.1 5.05 -9.0 4.75 -9.8" fill="#425829" fill-rule="evenodd" stroke="none"/>
  </g>
</svg>
