<?xml version="1.0" encoding="UTF-8" standalone="no"?>
<svg xmlns:ffdec="https://www.free-decompiler.com/flash" xmlns:xlink="http://www.w3.org/1999/xlink" ffdec:objectType="shape" height="17.95px" width="13.4px" xmlns="http://www.w3.org/2000/svg">
  <g transform="matrix(1.0, 0.0, 0.0, 1.0, 3.45, 16.05)">
    <path d="M-1.6 -11.35 L-2.2 -11.95 -2.35 -12.35 -2.3 -12.4 -2.35 -12.6 Q-2.35 -12.95 -2.25 -13.5 L-2.2 -13.75 -2.2 -14.0 -2.25 -14.55 -2.15 -14.65 -1.95 -14.95 -1.95 -15.0 -1.8 -15.05 Q-1.65 -15.2 -1.55 -15.2 L-1.45 -15.2 -0.75 -15.15 0.15 -15.15 Q0.85 -15.3 1.55 -15.6 L1.6 -15.6 2.0 -15.95 2.15 -15.9 2.15 -15.85 2.15 -15.8 2.2 -15.8 Q2.25 -15.75 2.25 -15.45 L2.2 -15.4 2.2 -15.35 Q2.15 -15.35 2.1 -15.5 2.1 -15.55 2.0 -15.55 L2.0 -15.5 2.1 -15.25 2.1 -14.95 2.15 -14.95 2.2 -15.25 2.2 -15.35 2.3 -15.3 Q2.55 -15.25 2.65 -15.0 2.7 -14.9 2.85 -14.8 3.05 -14.6 3.3 -14.5 L4.05 -14.1 Q4.3 -13.95 4.4 -13.75 5.3 -13.35 5.9 -12.2 L6.1 -11.85 6.2 -11.65 Q6.5 -11.2 6.7 -10.5 L6.8 -10.15 6.9 -10.0 Q6.9 -9.95 6.95 -9.9 L6.9 -9.9 Q7.0 -9.65 7.15 -8.95 L7.25 -8.55 7.45 -7.25 7.65 -6.7 Q8.25 -5.65 8.75 -4.25 L8.8 -4.25 9.0 -3.65 Q9.35 -3.1 9.65 -2.1 9.95 -1.0 9.95 -0.3 L9.95 -0.2 Q9.75 0.35 9.55 0.7 L9.5 0.75 9.45 0.75 9.25 1.05 9.1 1.25 8.85 1.45 Q8.7 1.65 8.05 1.9 L7.95 1.9 7.6 1.7 7.6 1.2 Q7.6 0.4 7.55 0.15 L7.35 -0.8 7.25 -1.7 7.2 -2.1 7.2 -2.45 7.15 -2.7 7.15 -2.85 7.1 -2.9 7.15 -2.9 7.15 -2.95 7.1 -2.9 7.05 -2.95 Q7.05 -3.05 7.0 -3.05 L6.75 -2.95 6.1 -2.9 6.0 -2.9 5.75 -3.1 Q5.85 -3.3 5.85 -3.45 L5.95 -3.5 5.9 -3.55 5.95 -3.55 5.85 -3.65 5.75 -3.7 5.4 -3.95 Q5.2 -4.1 5.15 -4.25 L5.15 -4.35 5.1 -4.4 5.15 -4.4 5.1 -4.5 5.15 -4.7 5.15 -4.75 5.2 -4.9 5.25 -5.05 Q5.2 -5.3 5.15 -5.35 L5.15 -5.4 5.1 -5.4 5.05 -5.4 4.8 -5.45 4.75 -5.45 4.65 -5.5 4.4 -5.85 4.3 -6.15 Q4.2 -6.45 4.05 -6.65 L3.75 -7.15 3.75 -7.1 3.7 -7.2 3.65 -7.3 3.5 -7.7 Q3.35 -8.0 3.35 -8.1 L3.65 -8.4 Q3.8 -8.55 3.85 -8.65 L3.85 -8.7 Q3.8 -9.0 3.7 -9.25 L3.6 -9.4 3.5 -9.6 3.35 -9.75 1.75 -9.75 1.4 -9.8 1.35 -9.8 1.15 -9.85 1.1 -9.85 0.7 -9.9 0.15 -10.1 Q-0.5 -10.4 -0.7 -10.65 L-0.95 -10.8 -1.6 -11.35 M1.3 -15.15 L1.2 -15.1 Q0.95 -15.2 0.7 -15.15 0.25 -15.15 0.1 -14.9 L-0.05 -14.9 -0.1 -14.85 -0.35 -14.85 -0.35 -14.9 -1.1 -14.9 Q-1.3 -14.9 -1.35 -14.8 L-1.4 -14.6 -1.2 -13.6 -1.15 -13.55 -1.15 -13.5 -1.0 -13.35 -0.7 -13.2 -0.55 -13.2 Q-0.45 -13.2 -0.4 -13.25 -0.3 -13.25 -0.1 -13.4 L0.0 -13.45 0.4 -13.75 0.5 -13.8 0.8 -14.05 0.8 -14.0 0.75 -13.9 Q0.5 -13.7 0.4 -13.65 L-0.2 -13.3 -0.45 -13.15 -0.65 -13.15 -0.7 -13.2 -0.75 -13.2 Q-0.95 -13.2 -1.1 -13.25 -1.3 -13.35 -1.35 -13.55 L-1.45 -13.9 -1.45 -14.45 Q-1.45 -14.65 -1.55 -14.75 L-1.55 -14.8 -1.65 -14.8 -1.7 -14.85 -1.8 -14.7 -1.8 -14.65 -1.9 -14.55 -2.0 -14.3 -2.0 -13.9 -2.05 -13.7 -2.05 -13.2 Q-2.05 -13.05 -2.1 -12.7 L-2.15 -12.6 -2.15 -12.45 -2.1 -12.35 Q-2.1 -12.2 -1.9 -11.95 L-1.8 -11.8 -1.75 -11.75 -1.7 -11.75 -1.65 -11.65 -1.6 -11.65 Q-1.15 -11.2 -0.65 -11.1 L-0.15 -11.05 -0.05 -11.05 1.35 -12.45 1.35 -12.5 1.5 -12.6 2.1 -13.15 2.55 -13.65 2.7 -13.8 2.75 -13.85 2.75 -13.8 Q2.45 -13.5 2.4 -13.4 L2.35 -13.3 1.85 -12.75 1.65 -12.5 1.45 -12.3 1.5 -12.3 1.85 -12.55 2.3 -12.8 2.4 -12.85 3.05 -13.1 Q3.65 -13.35 3.9 -13.5 L4.0 -13.55 4.0 -13.7 4.05 -13.7 4.0 -13.75 3.6 -14.1 Q3.35 -14.25 3.2 -14.25 L3.15 -14.25 3.1 -14.3 2.95 -14.25 2.95 -14.2 2.9 -14.2 2.9 -14.3 2.8 -14.3 2.35 -14.8 2.15 -14.9 2.1 -14.85 2.1 -14.8 Q2.1 -14.7 2.0 -14.5 L2.05 -14.55 Q1.6 -13.9 1.0 -13.3 L0.9 -13.3 1.1 -13.5 Q1.55 -14.0 1.75 -14.3 L1.9 -14.6 1.95 -14.9 2.0 -15.1 Q2.0 -15.3 1.9 -15.4 L1.75 -15.4 1.5 -15.25 1.3 -15.15 M1.3 -15.1 L1.3 -15.1 M2.0 -15.7 L2.1 -15.7 2.1 -15.75 2.0 -15.7 M8.65 -0.85 L8.55 -1.5 7.85 -4.75 7.6 -6.15 7.6 -6.0 Q7.5 -6.3 7.4 -6.55 L7.35 -6.9 7.35 -6.95 Q7.35 -7.2 7.25 -7.35 L7.2 -7.6 7.15 -8.0 7.15 -8.05 Q7.15 -8.15 7.0 -8.75 L6.9 -9.1 6.85 -9.2 Q6.85 -9.4 6.7 -9.65 L6.6 -10.1 6.5 -10.15 Q6.25 -10.4 6.05 -10.4 L5.65 -10.4 5.75 -10.45 5.85 -10.45 Q6.25 -10.45 6.5 -10.35 6.05 -11.55 5.7 -12.1 5.5 -12.55 5.1 -12.9 4.75 -13.25 4.45 -13.45 4.1 -13.7 4.0 -13.5 L3.9 -13.5 3.65 -13.35 3.6 -13.3 3.2 -13.05 2.5 -12.75 1.75 -12.35 1.55 -12.25 1.05 -11.75 0.75 -11.4 0.5 -11.15 0.15 -10.85 0.1 -10.85 Q0.1 -10.8 0.1 -10.85 L0.05 -10.8 -0.1 -10.8 -0.15 -10.75 -0.2 -10.8 -0.25 -10.75 -0.5 -10.75 -0.3 -10.6 Q0.45 -10.05 1.4 -9.95 1.5 -9.8 1.75 -9.8 1.9 -9.8 2.0 -9.9 L2.65 -9.85 3.85 -10.0 3.95 -9.95 4.1 -10.0 4.15 -10.0 4.2 -10.05 4.55 -10.2 4.7 -10.25 4.7 -10.2 4.65 -10.2 4.55 -10.1 5.35 -10.1 5.4 -10.05 5.6 -10.05 5.9 -9.85 6.05 -9.55 6.1 -9.5 6.15 -9.35 6.2 -9.3 6.4 -8.9 6.6 -8.3 6.6 -8.25 6.7 -7.95 Q6.8 -7.45 6.85 -7.0 L7.15 -5.25 7.15 -5.15 7.25 -4.8 Q7.3 -4.35 7.3 -4.05 L7.3 -4.0 7.35 -3.35 7.4 -3.3 7.45 -2.65 7.6 -1.45 7.65 -1.1 7.65 -0.75 Q7.8 0.55 7.8 1.15 L7.8 1.5 7.85 1.55 7.85 1.5 8.0 1.5 8.25 1.45 8.25 1.4 Q8.35 1.35 8.4 1.35 L8.95 0.8 8.95 0.5 Q8.95 0.2 8.9 -0.05 8.85 -0.35 8.75 -0.45 L8.65 -0.85 M5.45 -9.5 L5.85 -9.6 5.9 -9.6 5.4 -9.85 4.9 -9.85 4.3 -9.8 4.05 -9.8 3.85 -9.75 3.6 -9.75 3.6 -9.7 3.65 -9.7 3.9 -9.2 4.0 -9.05 4.0 -9.0 Q4.05 -8.85 4.05 -8.7 L4.3 -8.85 4.5 -9.05 Q5.05 -9.4 5.45 -9.5 M5.9 -9.6 L5.9 -9.6 M6.65 -6.75 L6.4 -8.3 Q6.2 -8.8 6.15 -9.05 L6.0 -9.35 Q5.1 -9.2 4.3 -8.7 L4.15 -8.55 4.1 -8.5 4.05 -8.4 Q4.05 -8.35 4.2 -8.05 L4.35 -7.8 4.45 -7.6 Q4.6 -7.7 4.7 -7.65 L4.5 -7.45 4.55 -7.35 4.6 -7.4 4.65 -7.4 4.65 -7.35 4.6 -7.25 4.65 -7.05 4.8 -6.5 4.95 -6.2 4.9 -6.2 4.75 -6.4 Q4.65 -6.65 4.5 -7.05 L4.5 -7.15 4.35 -7.15 Q4.35 -7.2 4.45 -7.3 L4.4 -7.4 4.25 -7.3 Q4.25 -7.25 4.25 -7.35 4.25 -7.4 4.35 -7.55 L4.35 -7.6 4.3 -7.75 Q4.25 -7.8 4.1 -8.0 4.0 -8.3 4.0 -8.4 L3.65 -8.1 3.6 -8.05 3.55 -8.05 3.55 -8.0 3.6 -8.0 Q3.95 -7.25 4.15 -6.85 L4.35 -6.35 Q4.5 -6.1 4.6 -5.95 L4.8 -5.6 Q4.9 -5.55 5.1 -5.5 L5.15 -5.5 5.35 -5.5 5.55 -5.8 5.65 -5.9 Q5.9 -6.2 6.15 -6.4 L6.15 -6.3 Q6.15 -6.25 5.85 -5.9 L5.35 -5.4 5.25 -5.4 5.25 -5.3 5.3 -5.3 5.3 -5.25 5.4 -5.25 5.5 -5.3 5.55 -5.3 5.6 -5.35 5.55 -5.25 5.5 -5.25 5.5 -5.2 5.45 -5.15 5.45 -5.05 5.4 -5.05 5.4 -4.85 5.35 -4.8 5.3 -4.5 5.3 -4.3 5.35 -4.15 5.55 -4.05 5.55 -4.0 5.7 -3.9 5.95 -3.75 5.95 -3.7 Q6.1 -3.75 6.15 -3.7 L6.2 -3.65 6.25 -3.65 6.2 -4.2 6.15 -4.2 6.15 -4.15 Q6.1 -4.35 6.05 -4.4 L6.1 -4.5 6.1 -4.55 5.9 -4.45 5.9 -4.55 Q5.9 -4.6 6.1 -4.75 6.35 -4.85 6.5 -4.85 L6.25 -4.7 6.3 -4.45 6.3 -4.3 Q6.4 -4.2 6.4 -3.95 L6.4 -3.55 6.25 -3.4 6.25 -3.55 6.2 -3.6 6.2 -3.55 6.25 -3.55 6.25 -3.45 6.2 -3.4 6.1 -3.45 5.85 -3.2 Q5.85 -3.15 5.9 -3.05 L6.6 -3.2 6.75 -3.25 7.0 -3.3 7.0 -3.4 7.05 -3.45 7.0 -3.45 7.0 -3.5 7.05 -3.65 7.05 -3.8 6.9 -5.3 6.8 -5.95 6.5 -5.65 6.45 -5.65 6.25 -5.45 6.0 -5.3 5.9 -5.3 5.85 -5.35 5.85 -5.4 5.9 -5.4 6.0 -5.45 6.55 -5.95 6.75 -6.15 6.75 -6.4 6.7 -6.65 6.65 -6.75 M5.3 -5.55 Q5.2 -5.6 5.0 -5.8 4.85 -6.05 4.85 -6.2 L5.05 -5.95 5.3 -5.55 M8.7 -3.95 L8.7 -3.95 M7.8 -5.9 L7.7 -6.15 7.75 -5.85 7.95 -4.9 8.25 -3.35 8.6 -1.7 9.0 0.4 9.0 0.7 9.05 0.65 9.15 0.65 9.3 0.45 9.5 0.3 9.5 0.25 9.55 0.2 9.75 -0.05 9.8 -0.25 Q9.75 -0.9 9.55 -1.5 L9.15 -2.55 Q8.65 -3.65 8.3 -4.7 L7.8 -5.9 M-3.4 -16.05 L-3.4 -16.05 M-0.8 -15.05 L-0.8 -15.05" fill="#111111" fill-rule="evenodd" stroke="none"/>
    <path d="M2.2 -15.35 L2.2 -15.25 2.15 -14.95 2.1 -14.95 2.1 -15.25 2.0 -15.5 2.0 -15.55 Q2.1 -15.55 2.1 -15.5 2.15 -15.35 2.2 -15.35 L2.2 -15.4 2.2 -15.35 M2.2 -15.8 L2.15 -15.8 2.15 -15.85 2.2 -15.8 M2.0 -15.7 L2.1 -15.75 2.1 -15.7 2.0 -15.7" fill="#000000" fill-rule="evenodd" stroke="none"/>
    <path d="M7.75 -5.85 L7.7 -6.15 7.8 -5.9 7.75 -5.85" fill="#666633" fill-rule="evenodd" stroke="none"/>
    <path d="M-1.6 -11.35 L-0.95 -10.8 -1.45 -11.25 -1.6 -11.35 M0.7 -9.9 L1.1 -9.85 1.05 -9.8 0.7 -9.9" fill="#84716c" fill-rule="evenodd" stroke="none"/>
    <path d="M5.9 -9.6 L5.9 -9.6" fill="#666666" fill-rule="evenodd" stroke="none"/>
    <path d="M4.15 -8.55 L4.3 -8.7 Q5.1 -9.2 6.0 -9.35 L6.15 -9.05 Q6.2 -8.8 6.4 -8.3 L6.65 -6.75 Q6.45 -6.75 6.1 -6.35 L5.65 -5.9 5.55 -6.0 Q5.3 -6.1 5.25 -6.4 5.15 -6.85 4.95 -6.65 L4.8 -6.5 4.65 -7.05 4.6 -7.25 Q4.75 -7.25 4.75 -7.55 4.75 -7.75 4.6 -7.95 L4.3 -8.3 4.15 -8.55 M5.85 -5.35 L5.9 -5.3 6.0 -5.3 6.25 -5.45 6.35 -5.25 Q6.45 -5.15 6.55 -5.1 L6.6 -4.45 Q6.5 -4.05 6.5 -3.8 L6.5 -3.7 Q6.55 -3.35 6.65 -3.25 L6.75 -3.25 6.6 -3.2 5.9 -3.05 Q5.85 -3.15 5.85 -3.2 L6.1 -3.45 6.2 -3.4 6.25 -3.45 6.25 -3.55 6.2 -3.55 6.2 -3.6 6.25 -3.55 6.25 -3.4 6.4 -3.55 6.4 -3.95 Q6.4 -4.2 6.3 -4.3 L6.3 -4.45 6.25 -4.7 6.5 -4.85 Q6.35 -4.85 6.1 -4.75 5.9 -4.6 5.9 -4.55 L5.9 -4.45 6.1 -4.55 6.1 -4.5 6.05 -4.4 Q6.1 -4.35 6.15 -4.15 L6.15 -4.2 6.2 -4.2 6.25 -3.65 6.2 -3.65 6.15 -3.7 Q6.1 -3.75 5.95 -3.7 L5.95 -3.75 5.7 -3.9 5.55 -4.0 5.55 -4.05 5.35 -4.15 5.3 -4.3 5.3 -4.5 5.35 -4.8 5.4 -4.85 5.4 -5.05 5.45 -5.05 5.45 -5.15 5.55 -5.15 Q5.65 -5.15 5.85 -5.35 M6.45 -5.65 L6.5 -5.65 6.45 -5.65 M5.3 -5.25 L5.3 -5.3 5.3 -5.25 M5.15 -5.5 L5.1 -5.5 Q4.9 -5.55 4.8 -5.6 L4.6 -5.95 Q4.5 -6.1 4.35 -6.35 L4.15 -6.85 Q3.95 -7.25 3.6 -8.0 L3.55 -8.0 3.55 -8.05 3.6 -8.05 3.65 -8.1 4.0 -8.4 Q4.0 -8.3 4.1 -8.0 4.25 -7.8 4.3 -7.75 L4.35 -7.6 4.15 -7.35 Q4.15 -7.3 4.15 -7.25 4.2 -7.15 4.35 -7.15 L4.5 -7.15 4.5 -7.05 Q4.65 -6.65 4.75 -6.4 4.7 -6.3 4.7 -6.25 4.7 -6.05 4.85 -5.8 4.95 -5.55 5.15 -5.5" fill="#8a6311" fill-rule="evenodd" stroke="none"/>
    <path d="M3.85 -8.7 L3.85 -8.65 Q3.8 -8.55 3.65 -8.4 3.8 -8.6 3.85 -8.7 M3.65 -7.3 L3.7 -7.2 3.65 -7.3 M3.75 -7.1 L3.75 -7.15 4.05 -6.65 3.9 -6.8 3.75 -7.1 M4.65 -5.5 L4.75 -5.45 4.7 -5.45 4.65 -5.5 M5.1 -5.4 L5.15 -5.4 5.15 -5.35 5.1 -5.35 5.1 -5.4 M5.25 -5.05 L5.2 -4.9 5.25 -5.05 M5.15 -4.7 L5.1 -4.5 5.15 -4.4 5.1 -4.4 5.15 -4.35 5.15 -4.25 Q5.1 -4.3 5.1 -4.4 5.1 -4.5 5.15 -4.7 M4.55 -4.85 L4.6 -4.85 4.6 -4.8 4.55 -4.8 4.55 -4.85" fill="#e1d5aa" fill-rule="evenodd" stroke="none"/>
    <path d="M5.9 -3.55 L5.95 -3.5 5.85 -3.45 5.85 -3.5 5.9 -3.55 M7.05 -2.95 L7.1 -2.9 7.15 -2.95 7.15 -2.9 7.1 -2.9 7.15 -2.85 7.15 -2.7 7.05 -2.95 M7.2 -2.1 L7.25 -1.7 7.35 -0.8 7.25 -1.8 7.25 -1.85 7.2 -2.1" fill="#fade9c" fill-rule="evenodd" stroke="none"/>
    <path d="M4.15 -8.55 L4.3 -8.3 4.6 -7.95 Q4.75 -7.75 4.75 -7.55 4.75 -7.25 4.6 -7.25 L4.65 -7.35 4.65 -7.4 4.6 -7.4 4.55 -7.35 4.5 -7.45 4.7 -7.65 Q4.6 -7.7 4.45 -7.6 L4.35 -7.8 4.2 -8.05 Q4.05 -8.35 4.05 -8.4 L4.1 -8.5 4.15 -8.55 M4.8 -6.5 L4.95 -6.65 Q5.15 -6.85 5.25 -6.4 5.3 -6.1 5.55 -6.0 L5.65 -5.9 6.1 -6.35 Q6.45 -6.75 6.65 -6.75 L6.7 -6.65 6.75 -6.4 6.75 -6.15 6.55 -5.95 6.0 -5.45 5.9 -5.4 5.85 -5.4 5.85 -5.35 Q5.65 -5.15 5.55 -5.15 L5.45 -5.15 5.5 -5.2 5.5 -5.25 5.55 -5.25 5.6 -5.35 5.55 -5.3 5.5 -5.3 5.4 -5.25 5.3 -5.25 5.3 -5.3 5.25 -5.3 5.25 -5.4 5.35 -5.4 5.85 -5.9 Q6.15 -6.25 6.15 -6.3 L6.15 -6.4 Q5.9 -6.2 5.65 -5.9 L5.55 -5.8 5.35 -5.5 5.15 -5.5 Q4.95 -5.55 4.85 -5.8 4.7 -6.05 4.7 -6.25 4.7 -6.3 4.75 -6.4 L4.9 -6.2 4.95 -6.2 4.8 -6.5 M6.25 -5.45 L6.45 -5.65 6.5 -5.65 6.8 -5.95 6.9 -5.3 7.05 -3.8 7.05 -3.65 7.0 -3.5 7.0 -3.45 7.05 -3.45 7.0 -3.4 7.0 -3.3 6.75 -3.25 6.65 -3.25 Q6.55 -3.35 6.5 -3.7 L6.5 -3.8 Q6.5 -4.05 6.6 -4.45 L6.55 -5.1 Q6.45 -5.15 6.35 -5.25 L6.25 -5.45 M4.35 -7.6 L4.35 -7.55 Q4.25 -7.4 4.25 -7.35 4.25 -7.25 4.25 -7.3 L4.4 -7.4 4.45 -7.3 Q4.35 -7.2 4.35 -7.15 4.2 -7.15 4.15 -7.25 4.15 -7.3 4.15 -7.35 L4.35 -7.6 M5.3 -5.55 L5.05 -5.95 4.85 -6.2 Q4.85 -6.05 5.0 -5.8 5.2 -5.6 5.3 -5.55" fill="#583d0a" fill-rule="evenodd" stroke="none"/>
    <path d="M1.3 -15.15 L1.25 -15.05 1.2 -15.1 1.3 -15.15 M0.1 -14.9 Q0.05 -14.75 0.05 -14.6 L0.05 -14.5 Q0.15 -14.4 0.4 -14.4 L0.85 -14.4 0.25 -13.95 Q-0.25 -13.6 -0.85 -13.45 L-1.0 -13.35 -1.15 -13.5 -1.15 -13.55 -1.2 -13.6 -1.4 -14.6 -1.35 -14.8 Q-1.3 -14.9 -1.1 -14.9 L-0.35 -14.9 -0.35 -14.85 -0.1 -14.85 -0.05 -14.9 0.1 -14.9 M-1.1 -13.25 Q-0.75 -13.1 -0.5 -13.05 -0.15 -13.1 0.3 -13.25 L0.7 -13.6 Q0.9 -13.6 0.9 -13.35 L0.9 -13.3 Q0.8 -13.35 0.7 -13.25 L0.65 -13.2 Q0.6 -13.15 0.6 -13.1 L0.6 -13.05 0.5 -12.95 Q0.15 -13.1 0.1 -12.75 0.05 -12.7 0.05 -12.6 L0.05 -12.15 -0.2 -12.1 -0.2 -12.2 -0.5 -12.25 -0.55 -12.25 Q-0.45 -12.35 -0.45 -12.5 -0.45 -12.55 -0.65 -12.65 -0.85 -12.75 -1.05 -12.75 -1.6 -12.85 -1.6 -12.3 L-1.6 -12.05 -1.2 -12.05 -0.8 -12.1 -0.8 -11.85 -0.7 -11.85 -0.75 -11.7 -0.75 -11.5 -0.5 -11.45 Q-0.45 -11.45 -0.1 -11.75 0.3 -12.0 0.3 -12.1 L0.35 -12.1 Q0.6 -12.1 0.75 -12.3 0.9 -12.45 0.9 -12.55 L0.85 -12.6 Q0.95 -12.6 1.05 -12.75 L1.1 -13.0 1.1 -13.05 1.55 -13.45 2.1 -14.05 2.15 -14.0 2.3 -14.05 2.35 -13.85 2.4 -13.85 2.6 -13.8 2.7 -13.8 2.55 -13.65 2.1 -13.15 1.5 -12.6 1.35 -12.5 1.35 -12.45 -0.05 -11.05 -0.15 -11.05 -0.65 -11.1 Q-1.15 -11.2 -1.6 -11.65 L-1.65 -11.65 -1.7 -11.75 -1.75 -11.75 -1.8 -11.8 -1.9 -11.95 Q-2.1 -12.2 -2.1 -12.35 L-2.15 -12.45 -2.15 -12.6 -2.1 -12.7 Q-2.05 -13.05 -2.05 -13.2 L-2.05 -13.7 -2.0 -13.9 -2.0 -14.3 -1.9 -14.55 -1.8 -14.65 -1.8 -14.7 -1.7 -14.85 -1.65 -14.8 -1.55 -14.8 -1.55 -14.75 Q-1.45 -14.65 -1.45 -14.45 L-1.45 -13.9 -1.35 -13.55 Q-1.3 -13.35 -1.1 -13.25 M8.65 -0.85 L8.75 -0.45 Q8.85 -0.35 8.9 -0.05 8.95 0.2 8.95 0.5 L8.95 0.8 8.4 1.35 Q8.35 1.35 8.25 1.4 L8.25 1.45 8.0 1.5 7.85 1.5 7.85 1.55 7.8 1.5 7.8 1.15 Q7.8 0.55 7.65 -0.75 L7.65 -1.1 7.6 -1.45 7.45 -2.65 7.4 -3.3 7.35 -3.35 7.3 -4.0 7.3 -4.05 Q7.3 -4.35 7.25 -4.8 L7.15 -5.15 7.15 -5.25 6.85 -7.0 Q6.8 -7.45 6.7 -7.95 L6.6 -8.25 6.85 -7.7 7.25 -6.35 Q7.45 -5.5 7.6 -4.95 7.9 -3.3 8.4 -1.6 L8.65 -0.8 8.65 -0.85 M4.7 -10.25 L4.55 -10.2 4.2 -10.05 4.2 -10.15 4.15 -10.25 4.15 -10.3 3.85 -10.3 Q3.75 -10.25 3.75 -10.15 L3.75 -10.05 3.8 -10.0 3.85 -10.0 2.65 -9.85 2.0 -9.9 Q2.05 -9.9 2.1 -9.95 2.3 -10.05 2.3 -10.2 L2.3 -10.35 1.85 -10.4 1.45 -10.35 Q1.3 -10.3 1.3 -10.1 1.35 -10.0 1.4 -9.95 0.45 -10.05 -0.3 -10.6 L-0.5 -10.75 -0.25 -10.75 -0.2 -10.8 -0.15 -10.75 -0.1 -10.8 0.05 -10.8 0.1 -10.85 Q0.1 -10.8 0.1 -10.85 L0.15 -10.85 0.5 -11.15 0.75 -11.4 1.05 -11.75 1.55 -12.25 1.75 -12.35 2.5 -12.75 3.2 -13.05 3.6 -13.3 3.65 -13.15 3.65 -13.1 Q3.35 -13.05 3.0 -12.85 2.6 -12.6 2.6 -12.45 L2.6 -12.35 2.45 -12.15 2.3 -11.9 2.3 -11.95 Q2.05 -11.95 2.0 -11.95 1.9 -11.9 1.9 -11.75 1.9 -11.65 1.95 -11.6 1.9 -11.55 1.9 -11.45 L1.9 -11.3 Q1.4 -11.1 1.4 -10.85 1.4 -10.75 1.45 -10.7 1.5 -10.65 1.55 -10.6 L2.05 -10.6 Q2.2 -10.6 2.4 -10.7 L2.55 -10.7 Q2.7 -10.55 2.95 -10.55 3.2 -10.55 3.25 -10.6 L3.3 -10.8 Q3.35 -10.7 3.55 -10.7 3.65 -10.7 3.7 -10.75 L3.75 -10.95 3.7 -11.15 Q3.65 -11.3 3.35 -11.3 L3.2 -11.3 Q3.2 -11.45 3.15 -11.35 L2.65 -11.45 2.65 -11.65 2.95 -12.2 2.95 -12.0 3.05 -12.0 2.8 -11.75 2.85 -11.6 2.9 -11.55 3.05 -11.55 Q3.25 -11.55 3.65 -12.1 3.95 -12.6 4.4 -12.5 L4.4 -12.35 4.2 -12.2 4.05 -12.05 Q3.95 -12.0 3.9 -11.95 L3.8 -11.85 Q3.6 -11.75 3.6 -11.45 3.6 -11.35 3.65 -11.3 3.7 -11.3 3.8 -11.25 L4.25 -11.5 4.25 -11.15 4.3 -11.1 4.5 -11.1 Q4.85 -11.1 4.95 -11.3 5.05 -11.4 5.05 -11.6 5.05 -11.9 4.95 -12.05 L5.1 -12.25 5.2 -12.05 5.2 -11.95 Q5.15 -11.9 5.2 -11.8 5.25 -11.65 5.4 -11.6 L5.5 -11.45 5.8 -10.8 5.1 -10.7 5.1 -10.8 5.05 -10.85 Q4.9 -10.85 4.8 -10.75 4.7 -10.65 4.7 -10.55 L4.7 -10.4 Q4.7 -10.3 4.7 -10.25 M5.85 -10.45 L5.75 -10.45 5.85 -10.55 5.85 -10.45 M9.55 0.2 L9.5 0.25 9.5 0.3 9.3 0.45 9.15 0.65 9.05 0.65 9.0 0.7 9.0 0.4 8.6 -1.7 8.25 -3.35 8.55 -2.6 Q8.7 -2.4 8.95 -0.9 9.2 0.25 9.45 0.25 L9.5 0.25 9.55 0.2" fill="#a4490d" fill-rule="evenodd" stroke="none"/>
    <path d="M1.2 -15.1 L1.25 -15.05 1.3 -15.15 1.5 -15.25 1.75 -15.4 1.9 -15.4 Q2.0 -15.3 2.0 -15.1 L1.95 -14.9 1.9 -14.6 1.75 -14.3 Q1.55 -14.0 1.1 -13.5 L0.9 -13.3 1.0 -13.3 Q1.6 -13.9 2.05 -14.55 L2.0 -14.5 Q2.1 -14.7 2.1 -14.8 L2.1 -14.85 2.15 -14.9 2.35 -14.8 2.8 -14.3 2.9 -14.3 2.9 -14.2 2.95 -14.2 2.95 -14.25 3.1 -14.3 3.15 -14.25 3.2 -14.25 Q3.35 -14.25 3.6 -14.1 L4.0 -13.75 4.05 -13.7 4.0 -13.7 4.0 -13.55 3.9 -13.5 Q3.65 -13.35 3.05 -13.1 L2.4 -12.85 2.3 -12.8 1.85 -12.55 1.5 -12.3 1.45 -12.3 1.65 -12.5 1.85 -12.75 2.35 -13.3 2.4 -13.4 Q2.45 -13.5 2.75 -13.8 L2.75 -13.85 2.7 -13.8 2.6 -13.8 2.4 -13.85 2.35 -13.85 2.3 -14.05 2.15 -14.0 2.1 -14.05 1.55 -13.45 1.1 -13.05 1.1 -13.0 1.05 -12.75 Q0.95 -12.6 0.85 -12.6 L0.9 -12.55 Q0.9 -12.45 0.75 -12.3 0.6 -12.1 0.35 -12.1 L0.3 -12.1 Q0.3 -12.0 -0.1 -11.75 -0.45 -11.45 -0.5 -11.45 L-0.75 -11.5 -0.75 -11.7 -0.7 -11.85 -0.8 -11.85 -0.8 -12.1 -1.2 -12.05 -1.6 -12.05 -1.6 -12.3 Q-1.6 -12.85 -1.05 -12.75 -0.85 -12.75 -0.65 -12.65 -0.45 -12.55 -0.45 -12.5 -0.45 -12.35 -0.55 -12.25 L-0.5 -12.25 -0.2 -12.2 -0.2 -12.1 0.05 -12.15 0.05 -12.6 Q0.05 -12.7 0.1 -12.75 0.15 -13.1 0.5 -12.95 L0.6 -13.05 0.6 -13.1 Q0.6 -13.15 0.65 -13.2 L0.7 -13.25 Q0.8 -13.35 0.9 -13.3 L0.9 -13.35 Q0.9 -13.6 0.7 -13.6 L0.3 -13.25 Q-0.15 -13.1 -0.5 -13.05 -0.75 -13.1 -1.1 -13.25 -0.95 -13.2 -0.75 -13.2 L-0.7 -13.2 -0.65 -13.15 -0.45 -13.15 -0.2 -13.3 0.4 -13.65 Q0.5 -13.7 0.75 -13.9 L0.8 -14.0 0.8 -14.05 0.5 -13.8 0.4 -13.75 0.0 -13.45 -0.1 -13.4 Q-0.3 -13.25 -0.4 -13.25 -0.45 -13.2 -0.55 -13.2 L-0.7 -13.2 -1.0 -13.35 -0.85 -13.45 Q-0.25 -13.6 0.25 -13.95 L0.85 -14.4 0.4 -14.4 Q0.15 -14.4 0.05 -14.5 L0.05 -14.6 Q0.05 -14.75 0.1 -14.9 0.25 -15.15 0.7 -15.15 0.95 -15.2 1.2 -15.1 M1.3 -15.1 L1.3 -15.1 M5.75 -10.45 L5.65 -10.4 6.05 -10.4 Q6.25 -10.4 6.5 -10.15 L6.6 -10.1 6.7 -9.65 Q6.85 -9.4 6.85 -9.2 L6.9 -9.1 7.0 -8.75 Q7.15 -8.15 7.15 -8.05 L7.15 -8.0 7.2 -7.6 7.25 -7.35 Q7.35 -7.2 7.35 -6.95 L7.35 -6.9 7.4 -6.55 Q7.5 -6.3 7.6 -6.0 L7.6 -6.15 7.85 -4.75 8.55 -1.5 8.65 -0.85 8.65 -0.8 8.4 -1.6 Q7.9 -3.3 7.6 -4.95 7.45 -5.5 7.25 -6.35 L6.85 -7.7 6.6 -8.25 6.6 -8.3 6.4 -8.9 6.2 -9.3 6.15 -9.35 6.1 -9.5 6.05 -9.55 5.9 -9.85 5.6 -10.05 5.4 -10.05 5.35 -10.1 4.55 -10.1 4.65 -10.2 4.7 -10.2 4.7 -10.25 Q4.7 -10.3 4.7 -10.4 L4.7 -10.55 Q4.7 -10.65 4.8 -10.75 4.9 -10.85 5.05 -10.85 L5.1 -10.8 5.1 -10.7 5.8 -10.8 5.5 -11.45 5.4 -11.6 Q5.25 -11.65 5.2 -11.8 5.15 -11.9 5.2 -11.95 L5.2 -12.05 5.1 -12.25 4.95 -12.05 Q5.05 -11.9 5.05 -11.6 5.05 -11.4 4.95 -11.3 4.85 -11.1 4.5 -11.1 L4.3 -11.1 4.25 -11.15 4.25 -11.5 3.8 -11.25 Q3.7 -11.3 3.65 -11.3 3.6 -11.35 3.6 -11.45 3.6 -11.75 3.8 -11.85 L3.9 -11.95 Q3.95 -12.0 4.05 -12.05 L4.2 -12.2 4.4 -12.35 4.4 -12.5 Q3.95 -12.6 3.65 -12.1 3.25 -11.55 3.05 -11.55 L2.9 -11.55 2.85 -11.6 2.8 -11.75 3.05 -12.0 2.95 -12.0 2.95 -12.2 2.65 -11.65 2.65 -11.45 3.15 -11.35 Q3.2 -11.45 3.2 -11.3 L3.35 -11.3 Q3.65 -11.3 3.7 -11.15 L3.75 -10.95 3.7 -10.75 Q3.65 -10.7 3.55 -10.7 3.35 -10.7 3.3 -10.8 L3.25 -10.6 Q3.2 -10.55 2.95 -10.55 2.7 -10.55 2.55 -10.7 L2.4 -10.7 Q2.2 -10.6 2.05 -10.6 L1.55 -10.6 Q1.5 -10.65 1.45 -10.7 1.4 -10.75 1.4 -10.85 1.4 -11.1 1.9 -11.3 L1.9 -11.45 Q1.9 -11.55 1.95 -11.6 1.9 -11.65 1.9 -11.75 1.9 -11.9 2.0 -11.95 2.05 -11.95 2.3 -11.95 L2.3 -11.9 2.45 -12.15 2.6 -12.35 2.6 -12.45 Q2.6 -12.6 3.0 -12.85 3.35 -13.05 3.65 -13.1 L3.65 -13.15 3.6 -13.3 3.65 -13.35 3.9 -13.5 4.0 -13.5 Q4.1 -13.7 4.45 -13.45 4.75 -13.25 5.1 -12.9 5.5 -12.55 5.7 -12.1 6.05 -11.55 6.5 -10.35 6.25 -10.45 5.85 -10.45 L5.85 -10.55 5.75 -10.45 M4.2 -10.05 L4.15 -10.0 4.1 -10.0 3.95 -9.95 3.85 -10.0 3.8 -10.0 3.75 -10.05 3.75 -10.15 Q3.75 -10.25 3.85 -10.3 L4.15 -10.3 4.15 -10.25 4.2 -10.15 4.2 -10.05 M2.0 -9.9 Q1.9 -9.8 1.75 -9.8 1.5 -9.8 1.4 -9.95 1.35 -10.0 1.3 -10.1 1.3 -10.3 1.45 -10.35 L1.85 -10.4 2.3 -10.35 2.3 -10.2 Q2.3 -10.05 2.1 -9.95 2.05 -9.9 2.0 -9.9 M7.75 -5.85 L7.8 -5.9 8.3 -4.7 Q8.65 -3.65 9.15 -2.55 L9.55 -1.5 Q9.75 -0.9 9.8 -0.25 L9.75 -0.05 9.55 0.2 9.5 0.25 9.45 0.25 Q9.2 0.25 8.95 -0.9 8.7 -2.4 8.55 -2.6 L8.25 -3.35 7.95 -4.9 7.75 -5.85" fill="#5f2b07" fill-rule="evenodd" stroke="none"/>
    <path d="M5.45 -9.5 Q5.05 -9.4 4.5 -9.05 L4.3 -8.85 4.05 -8.7 Q4.05 -8.85 4.0 -9.0 L4.0 -9.05 3.9 -9.2 3.65 -9.7 3.6 -9.7 3.6 -9.75 3.85 -9.75 4.05 -9.8 4.15 -9.7 Q4.3 -9.6 4.8 -9.6 L5.25 -9.45 5.45 -9.5" fill="#8d873f" fill-rule="evenodd" stroke="none"/>
    <path d="M5.9 -9.6 L5.85 -9.6 5.45 -9.5 5.25 -9.45 4.8 -9.6 Q4.3 -9.6 4.15 -9.7 L4.05 -9.8 4.3 -9.8 4.9 -9.85 5.4 -9.85 5.9 -9.6" fill="#4e4a23" fill-rule="evenodd" stroke="none"/>
  </g>
</svg>
