<?xml version="1.0" encoding="UTF-8" standalone="no"?>
<svg xmlns:ffdec="https://www.free-decompiler.com/flash" xmlns:xlink="http://www.w3.org/1999/xlink" ffdec:objectType="shape" height="36.5px" width="5.4px" xmlns="http://www.w3.org/2000/svg">
  <g transform="matrix(1.0, 0.0, 0.0, 1.0, 2.55, 35.45)">
    <path d="M2.6 -5.8 L2.5 -5.55 Q2.3 -5.0 2.3 -4.9 2.3 -4.85 2.55 -4.35 L2.75 -3.9 2.75 -3.8 2.7 -3.8 2.65 -3.85 2.65 -3.35 Q2.75 -2.8 2.75 -1.85 2.75 -1.05 2.05 -0.35 1.55 0.15 0.7 0.65 L0.65 0.9 Q0.6 0.95 0.45 0.95 L0.4 0.8 Q0.05 0.9 -0.1 1.05 L-0.15 1.05 -0.05 1.0 Q-0.65 0.7 -1.15 0.35 L-1.6 0.05 -1.65 0.05 -1.75 0.1 Q-2.3 0.1 -2.3 -0.65 -2.3 -1.0 -2.2 -1.4 L-2.3 -3.45 -2.3 -3.35 -2.4 -3.35 Q-2.45 -3.9 -2.45 -4.85 L-2.5 -5.85 -2.4 -8.65 -2.4 -10.2 -2.3 -12.85 Q-2.25 -14.55 -2.3 -15.45 -2.4 -16.5 -2.35 -18.6 L-2.3 -20.6 -2.3 -24.1 -2.45 -24.95 Q-2.55 -25.85 -2.55 -26.25 L-2.5 -27.9 Q-2.45 -29.55 -2.45 -30.45 L-2.5 -31.45 Q-2.5 -32.1 -2.5 -32.5 -2.45 -32.95 -2.1 -33.6 -1.8 -34.15 -1.5 -34.45 -1.65 -34.5 -1.7 -34.55 -1.55 -34.75 -0.6 -35.05 L0.65 -35.45 0.7 -35.45 0.75 -35.35 0.95 -35.0 1.6 -34.05 Q1.65 -33.95 2.1 -33.45 2.5 -33.05 2.5 -32.85 2.5 -32.55 2.65 -32.25 L2.7 -32.1 2.7 -32.05 2.75 -31.9 2.85 -31.8 Q2.45 -31.25 2.45 -31.2 2.45 -31.1 2.6 -31.0 L2.65 -30.95 2.75 -30.9 2.75 -30.5 2.65 -25.5 2.7 -25.05 2.7 -24.9 2.75 -24.9 2.75 -24.8 2.65 -24.75 2.65 -24.55 2.6 -24.7 2.5 -24.55 2.45 -24.5 2.45 -24.6 2.6 -24.75 2.5 -24.75 Q2.5 -24.9 2.45 -24.9 L2.55 -28.1 2.55 -28.35 2.55 -28.55 2.6 -29.45 2.6 -29.65 2.6 -29.7 2.6 -30.7 2.45 -30.85 2.3 -31.0 Q2.25 -31.05 2.25 -31.15 L2.25 -31.2 Q2.25 -31.3 2.3 -31.4 2.4 -31.45 2.45 -31.65 L2.45 -31.6 2.55 -31.7 2.55 -31.85 2.5 -31.85 2.5 -31.95 2.35 -32.5 Q2.3 -32.7 2.15 -32.65 L2.0 -32.9 1.6 -33.45 1.4 -33.75 1.35 -33.85 1.2 -34.05 0.9 -34.5 Q0.85 -34.65 0.75 -34.9 L0.7 -35.0 0.6 -35.3 0.4 -35.2 -0.1 -34.95 -0.4 -34.85 -0.75 -34.65 -1.3 -34.45 Q-1.25 -34.4 -1.25 -34.35 L-1.25 -34.25 Q-1.25 -34.2 -1.7 -33.45 L-1.8 -33.25 Q-2.05 -32.8 -2.1 -32.6 L-2.05 -32.6 -2.1 -32.4 -2.1 -32.25 -1.95 -28.95 -1.95 -27.15 -1.95 -27.05 -1.95 -26.9 -1.95 -26.85 -1.95 -26.4 -2.05 -25.1 -2.0 -23.6 -2.0 -23.5 -2.0 -14.55 Q-1.9 -13.65 -1.9 -12.45 -1.9 -12.15 -2.05 -10.65 L-2.1 -9.85 -2.1 -8.55 -2.15 -7.4 -2.15 -4.35 -2.0 -3.65 Q-1.8 -2.75 -1.65 -2.0 L-1.65 -1.75 -1.6 -1.05 Q-1.55 -0.55 -1.45 -0.3 -1.35 -0.05 -0.4 0.45 L0.2 0.75 0.35 0.6 0.35 0.55 Q0.5 0.5 0.7 0.25 L0.7 0.3 0.75 0.2 2.1 -1.0 Q2.35 -1.25 2.4 -1.6 2.45 -1.9 2.45 -2.7 2.45 -3.05 2.4 -3.25 L2.4 -3.75 2.45 -3.8 2.4 -4.1 2.5 -4.1 2.35 -4.35 2.2 -4.75 2.2 -4.8 2.15 -4.85 2.2 -4.95 2.2 -4.9 2.25 -5.0 2.35 -5.3 2.35 -5.45 2.55 -5.9 2.5 -5.85 2.4 -5.7 2.45 -5.95 Q2.45 -6.2 2.4 -6.2 L2.4 -10.2 2.25 -12.35 2.2 -13.75 2.25 -15.55 2.25 -16.3 2.25 -16.5 2.25 -16.75 2.25 -17.25 2.25 -17.85 2.25 -18.5 2.25 -19.1 2.25 -19.9 2.25 -20.3 2.25 -20.5 2.3 -21.45 2.35 -23.75 2.4 -23.8 2.35 -23.85 2.2 -23.95 2.1 -23.7 2.1 -23.75 2.0 -23.6 1.95 -23.5 1.9 -23.5 Q2.05 -23.65 2.1 -24.05 L2.15 -24.15 2.2 -24.15 2.3 -24.2 2.5 -24.0 2.6 -24.1 2.6 -24.0 2.55 -22.7 2.45 -20.8 2.45 -16.85 2.55 -14.25 2.65 -10.3 2.65 -6.1 2.7 -6.1 2.65 -5.95 2.65 -5.9 2.6 -5.9 2.6 -5.8 M2.7 -31.05 L2.75 -31.05 2.75 -30.95 2.7 -31.05 M1.65 -31.45 L1.65 -31.45 M2.25 -24.1 L2.25 -24.1 M1.85 -23.45 L1.85 -23.5 1.9 -23.5 1.85 -23.45 M2.65 -5.0 L2.65 -4.95 2.6 -5.0 2.65 -5.0 M0.95 -2.35 L0.95 -2.35 M-1.1 -33.7 L-1.25 -33.4 -1.25 -33.45 Q-1.25 -33.6 -1.1 -33.7 M-1.05 -31.8 L-1.05 -31.8 M-2.25 -28.4 L-2.3 -27.85 -2.25 -27.35 Q-2.15 -27.9 -2.25 -28.45 L-2.25 -28.4 M-2.0 -2.55 Q-2.0 -2.25 -1.95 -2.15 -1.9 -2.3 -2.0 -2.6 L-2.0 -2.55 M-1.8 -1.55 Q-1.8 -1.85 -1.9 -2.0 -1.9 -1.65 -1.85 -1.55 L-1.8 -1.55" fill="#111111" fill-rule="evenodd" stroke="none"/>
    <path d="M2.6 -5.9 L2.6 -5.8 2.6 -5.9 M0.4 -35.2 L0.6 -35.3 0.7 -35.0 0.75 -34.9 Q0.85 -34.65 0.9 -34.5 L1.2 -34.05 1.35 -33.85 1.4 -33.75 Q1.35 -33.75 1.3 -33.8 1.3 -33.85 1.2 -33.85 1.15 -33.85 1.05 -33.75 0.95 -33.7 0.9 -33.7 L0.75 -33.7 0.85 -33.45 1.05 -33.05 Q1.05 -32.95 1.2 -32.9 L1.3 -32.8 Q1.45 -32.3 1.7 -32.0 L1.7 -32.05 1.6 -32.5 Q1.7 -32.4 1.95 -32.25 2.05 -32.2 2.15 -32.15 L2.3 -32.05 2.1 -32.0 Q1.85 -31.85 1.8 -31.75 L1.9 -31.7 2.15 -31.75 1.65 -31.5 1.5 -31.45 1.0 -31.1 Q0.75 -30.95 0.75 -30.9 0.75 -30.8 0.8 -30.8 L0.8 -30.85 0.95 -30.9 Q1.1 -30.75 1.95 -30.75 L2.5 -30.8 2.45 -30.85 2.6 -30.7 2.6 -29.7 2.5 -29.7 1.9 -29.65 1.85 -29.65 1.6 -29.7 1.2 -29.95 Q1.05 -30.1 0.9 -30.15 L0.7 -30.15 0.7 -30.25 0.65 -30.2 0.7 -30.85 0.7 -31.35 0.65 -31.5 0.6 -31.5 0.55 -31.35 0.5 -31.35 0.5 -30.35 0.45 -30.3 0.45 -30.15 0.2 -29.95 0.2 -29.9 Q-0.05 -29.8 -0.15 -29.65 -0.25 -29.6 -0.3 -29.6 L-1.45 -29.6 -1.3 -29.55 -1.35 -29.55 -1.6 -29.65 -1.6 -29.6 -1.8 -29.6 Q-1.7 -29.5 -1.55 -29.35 L-1.3 -29.15 -1.15 -29.15 -1.15 -29.2 -0.1 -29.15 0.1 -29.1 0.25 -29.1 Q0.3 -29.1 0.35 -29.1 L0.35 -29.2 0.25 -29.25 Q0.35 -29.3 0.45 -29.35 L0.45 -29.05 0.35 -28.4 0.35 -27.2 0.4 -26.65 0.4 -26.4 0.35 -25.1 0.35 -24.75 0.3 -24.75 0.25 -24.7 0.15 -24.65 -0.15 -24.4 -0.15 -24.35 -0.1 -24.35 -0.5 -24.25 Q-0.65 -24.25 -0.85 -24.55 L-0.9 -24.8 -0.9 -25.6 Q-0.9 -25.85 -0.95 -26.0 L-0.95 -25.9 Q-1.0 -26.15 -1.1 -26.3 L-1.95 -27.15 -1.95 -28.95 -2.1 -32.25 Q-1.3 -32.35 -1.05 -32.55 -0.85 -32.7 -0.7 -33.15 -0.6 -33.55 -0.05 -33.65 0.35 -33.7 0.55 -33.85 L0.45 -32.95 0.5 -32.65 0.5 -32.6 0.2 -32.6 0.1 -32.5 -0.2 -32.35 Q-0.45 -32.15 -0.45 -32.1 L-0.45 -32.05 -0.55 -31.9 -0.6 -31.85 -0.55 -31.8 -0.95 -31.75 Q-1.35 -31.7 -1.6 -31.55 L-1.75 -31.55 -1.7 -31.5 -1.5 -31.5 -1.55 -31.45 -1.65 -31.5 -1.5 -31.4 -0.5 -31.4 0.2 -31.5 0.2 -31.65 0.25 -31.8 0.55 -31.7 Q0.8 -31.65 0.9 -31.8 L0.95 -31.8 0.9 -31.75 Q0.9 -31.7 0.95 -31.65 L0.9 -31.55 0.95 -31.55 1.05 -31.6 Q1.1 -31.6 1.15 -31.65 L1.1 -31.65 1.25 -31.8 1.3 -31.95 Q1.35 -31.95 1.35 -32.0 L1.4 -32.05 1.25 -32.25 1.1 -32.35 1.0 -32.3 0.75 -32.3 0.7 -32.35 0.75 -32.35 0.7 -32.4 0.65 -32.5 0.65 -32.55 0.8 -32.5 0.8 -33.15 0.75 -33.55 0.65 -33.9 0.7 -33.95 0.75 -34.05 0.7 -34.2 0.55 -34.2 Q0.55 -34.4 0.65 -34.85 L0.6 -34.8 0.3 -34.4 0.15 -34.1 -0.05 -34.1 0.45 -34.85 -0.25 -34.2 -0.45 -34.0 Q-0.7 -33.95 -0.9 -33.85 -0.7 -34.1 -0.25 -34.5 0.35 -34.95 0.6 -35.1 L0.45 -35.2 0.4 -35.2 M2.0 -32.9 L2.15 -32.65 2.2 -32.55 2.15 -32.45 2.1 -32.4 1.9 -32.5 Q1.7 -32.65 1.7 -32.7 1.7 -32.8 1.85 -32.9 L2.0 -32.9 M0.15 -32.0 L0.6 -31.95 0.65 -31.9 0.15 -32.0 M1.25 -29.5 L1.4 -29.45 1.45 -29.4 1.25 -29.5 M2.55 -28.55 L2.55 -28.6 Q2.45 -28.75 2.25 -28.9 L1.85 -29.1 1.7 -29.35 2.6 -29.45 2.55 -28.55 M1.7 -29.4 L1.65 -29.45 1.7 -29.4 M0.55 -29.35 L0.85 -29.3 1.2 -29.25 Q1.35 -29.25 1.7 -28.9 L2.15 -28.5 2.55 -28.1 2.45 -24.9 2.4 -24.8 2.25 -24.65 Q2.05 -24.55 1.85 -24.35 1.55 -24.05 1.5 -23.8 L1.4 -23.65 Q1.4 -23.6 1.5 -23.55 L1.55 -23.5 1.5 -23.4 1.6 -23.25 Q2.0 -23.2 2.3 -23.5 L2.35 -23.6 2.35 -23.75 2.3 -21.45 Q1.85 -20.6 1.55 -19.45 1.9 -20.2 2.15 -20.5 L2.15 -20.4 1.4 -18.6 1.3 -18.15 1.25 -17.85 Q1.1 -17.95 1.1 -18.05 1.05 -18.2 0.9 -18.15 0.85 -18.15 0.8 -18.1 L0.75 -18.55 0.75 -20.6 Q0.7 -21.55 0.65 -22.25 L0.65 -23.85 0.9 -23.85 Q1.2 -23.85 1.3 -23.95 1.4 -24.0 1.4 -24.15 1.4 -24.35 1.3 -24.35 L1.25 -24.35 1.2 -24.45 1.1 -24.55 0.95 -24.65 0.85 -24.65 0.7 -24.7 0.7 -24.75 Q0.7 -24.9 0.65 -24.95 L0.7 -25.35 0.6 -25.95 0.6 -29.1 0.55 -29.1 0.55 -29.35 M0.45 -29.35 L0.5 -29.35 0.45 -29.35 M-0.75 -24.3 L-0.8 -24.3 Q-0.75 -24.2 -0.6 -24.05 -0.35 -23.8 -0.05 -23.8 L0.2 -23.9 0.35 -23.9 0.35 -22.25 0.25 -21.15 Q0.0 -21.45 -0.3 -21.65 -0.05 -21.4 0.0 -21.25 -0.3 -21.4 -0.6 -21.6 -0.4 -21.4 -0.2 -21.05 L-0.2 -21.0 -0.95 -21.8 -1.65 -22.55 -1.55 -22.55 Q-1.7 -22.75 -1.8 -22.95 -1.75 -22.95 -1.45 -22.7 L-1.45 -22.75 Q-1.75 -23.35 -2.0 -23.5 L-2.0 -23.6 -2.05 -25.1 -1.95 -26.4 -1.95 -26.85 Q-1.65 -26.55 -1.35 -26.25 -1.2 -26.15 -1.1 -25.9 -1.0 -25.7 -1.0 -25.55 L-1.0 -25.45 -1.05 -25.35 -1.0 -25.5 -1.0 -25.05 -0.95 -24.7 Q-1.1 -24.95 -1.25 -25.25 -1.5 -25.9 -1.55 -26.35 L-1.55 -26.15 -1.4 -25.55 Q-1.35 -25.2 -1.25 -25.05 -1.2 -24.9 -0.9 -24.5 L-0.9 -24.25 -0.85 -24.25 -0.85 -24.4 -0.75 -24.3 M2.2 -20.25 L2.25 -20.5 2.25 -20.3 Q2.2 -20.3 2.2 -20.25 M2.25 -19.9 L2.25 -19.1 1.95 -18.3 Q2.05 -18.85 2.25 -19.35 L2.25 -19.65 2.05 -19.2 Q1.7 -18.25 1.65 -17.7 L1.6 -17.7 1.6 -18.3 1.8 -18.95 1.8 -18.9 2.1 -19.55 2.25 -19.9 M2.25 -18.5 L2.25 -17.85 Q2.1 -17.8 2.0 -17.5 1.9 -17.2 1.75 -17.1 L1.75 -17.15 Q1.8 -17.35 2.25 -18.5 M2.25 -17.25 L2.25 -16.75 2.25 -16.85 2.05 -16.5 2.25 -17.1 2.25 -17.25 M2.25 -16.5 L2.25 -16.3 2.1 -16.1 1.7 -15.5 1.75 -15.65 2.0 -16.05 2.25 -16.5 M2.2 -4.8 L2.2 -4.75 2.15 -4.75 2.2 -4.8 M0.75 0.2 L0.7 0.3 0.7 0.25 0.7 -0.05 0.7 0.0 Q0.7 0.1 0.75 0.2 M0.8 -18.05 L0.9 -17.8 Q1.05 -17.6 1.25 -17.6 L1.25 -17.55 Q1.0 -17.6 0.95 -17.45 L0.9 -17.3 Q0.8 -17.7 0.8 -18.0 L0.8 -18.05 M0.85 -18.4 Q0.85 -18.35 0.9 -18.3 0.95 -18.2 1.05 -18.2 1.15 -18.2 1.2 -18.35 1.1 -18.6 0.95 -18.6 0.85 -18.6 0.85 -18.4 M1.0 -12.85 L1.05 -12.8 0.95 -12.3 1.0 -12.85 M1.0 -4.85 L1.0 -4.75 1.0 -4.85 M1.1 -16.65 L1.15 -16.65 1.15 -16.6 1.1 -16.65 M2.25 -5.5 L2.15 -5.45 1.95 -5.0 Q2.0 -5.2 2.15 -5.4 L2.25 -5.5 M0.7 -1.2 L0.7 -0.85 0.65 -1.05 0.7 -1.2 M-0.75 -34.65 L-1.0 -34.5 -1.0 -34.45 Q-1.0 -34.4 -1.05 -34.35 L-1.1 -34.2 -0.95 -34.05 -0.9 -33.85 Q-1.0 -33.8 -1.1 -33.7 -1.25 -33.6 -1.25 -33.45 L-1.25 -33.4 Q-1.25 -33.15 -1.3 -33.0 L-1.3 -32.95 -1.35 -32.95 -1.55 -33.15 -1.7 -33.15 -1.8 -33.25 -1.7 -33.45 Q-1.25 -34.2 -1.25 -34.25 L-1.25 -34.35 Q-1.25 -34.4 -1.3 -34.45 L-0.75 -34.65 M-2.25 -28.4 L-2.25 -28.45 Q-2.15 -27.9 -2.25 -27.35 L-2.3 -27.85 -2.25 -28.4 M-1.05 -31.8 L-1.05 -31.8 M-0.15 -28.15 Q-0.15 -28.5 -0.55 -28.3 -1.0 -28.1 -1.0 -27.75 L-1.0 -27.65 Q-0.95 -27.5 -0.8 -27.5 L-0.7 -27.5 -0.65 -27.5 Q-0.5 -27.5 -0.3 -27.7 -0.15 -27.9 -0.15 -28.05 L-0.15 -28.15 M-1.95 -27.05 L-1.95 -27.15 -1.65 -26.75 -1.7 -26.8 -1.95 -27.05 M-1.8 -1.55 L-1.85 -1.55 Q-1.9 -1.65 -1.9 -2.0 -1.8 -1.85 -1.8 -1.55 M-2.0 -2.55 L-2.0 -2.6 Q-1.9 -2.3 -1.95 -2.15 -2.0 -2.25 -2.0 -2.55" fill="#515766" fill-rule="evenodd" stroke="none"/>
    <path d="M2.45 -24.5 L2.25 -24.2 2.3 -24.2 2.2 -24.15 2.15 -24.15 2.3 -24.35 2.45 -24.6 2.35 -24.55 2.0 -24.3 1.5 -23.7 Q1.45 -23.75 1.5 -23.8 1.55 -24.05 1.85 -24.35 2.05 -24.55 2.25 -24.65 L2.3 -24.7 2.4 -24.75 2.4 -24.8 2.45 -24.9 Q2.5 -24.9 2.5 -24.75 L2.6 -24.75 2.45 -24.6 2.45 -24.5 M-0.9 -33.85 Q-0.7 -33.95 -0.45 -34.0 L-0.35 -34.05 0.55 -34.2 0.7 -34.2 0.75 -34.05 0.7 -33.95 0.65 -33.9 0.75 -33.55 0.8 -33.15 0.8 -32.5 0.65 -32.55 0.65 -32.5 0.7 -32.4 0.75 -32.35 0.7 -32.35 0.75 -32.3 0.9 -32.3 Q0.95 -32.3 1.0 -32.3 L1.1 -32.35 1.25 -32.25 1.4 -32.05 1.35 -32.0 Q1.35 -31.95 1.3 -31.95 L1.25 -31.95 1.1 -32.1 0.9 -32.1 0.75 -32.15 0.65 -32.25 Q0.55 -32.35 0.55 -32.4 L0.45 -32.45 Q0.2 -32.45 0.0 -32.35 L-0.2 -32.15 0.1 -32.5 0.2 -32.6 0.5 -32.6 0.5 -32.65 0.45 -32.95 0.55 -33.85 Q0.35 -33.7 -0.05 -33.65 -0.6 -33.55 -0.7 -33.15 -0.85 -32.7 -1.05 -32.55 -1.3 -32.35 -2.1 -32.25 L-2.1 -32.4 -2.05 -32.6 Q-1.5 -32.6 -1.3 -32.95 L-1.3 -33.0 Q-1.25 -33.15 -1.25 -33.4 L-1.1 -33.7 Q-1.0 -33.8 -0.9 -33.85 M-0.1 -24.35 L-0.15 -24.35 -0.15 -24.4 0.15 -24.65 0.25 -24.7 0.3 -24.75 0.35 -24.75 0.35 -25.1 0.4 -26.4 0.4 -26.65 0.35 -27.2 0.35 -28.4 0.45 -29.05 0.45 -29.35 0.5 -29.35 0.55 -29.35 0.55 -29.1 0.6 -29.1 0.6 -25.95 0.7 -25.35 0.65 -24.95 Q0.7 -24.9 0.7 -24.75 L0.7 -24.7 0.85 -24.65 0.95 -24.65 1.1 -24.55 1.2 -24.45 1.2 -24.4 1.15 -24.35 0.9 -24.5 0.7 -24.5 0.55 -24.55 0.45 -24.6 Q0.35 -24.6 0.0 -24.35 L-0.1 -24.35 M-1.3 -29.55 L-1.45 -29.6 -0.3 -29.6 Q-0.25 -29.6 -0.15 -29.65 0.0 -29.7 0.25 -29.9 L0.4 -30.0 0.2 -29.9 0.2 -29.95 0.45 -30.15 0.45 -30.3 0.5 -30.35 0.5 -31.35 0.55 -31.35 0.6 -31.5 0.65 -31.5 0.7 -31.35 0.7 -30.85 0.65 -30.2 0.7 -30.25 0.7 -30.15 0.9 -30.15 Q1.05 -30.1 1.2 -29.95 L1.3 -29.9 0.9 -29.9 Q0.7 -29.9 0.55 -30.05 L0.25 -29.75 Q0.0 -29.55 -0.35 -29.45 L-0.4 -29.5 -1.2 -29.5 -1.3 -29.55 M1.9 -29.65 L2.5 -29.7 2.45 -29.65 2.15 -29.55 1.8 -29.55 1.75 -29.6 1.8 -29.65 1.9 -29.65 M2.15 -31.75 L1.9 -31.7 1.8 -31.75 Q1.85 -31.85 2.1 -32.0 L2.3 -32.05 2.15 -32.15 Q2.05 -32.2 2.05 -32.3 L2.15 -32.45 2.2 -32.55 2.15 -32.65 Q2.3 -32.7 2.35 -32.5 L2.5 -31.95 2.5 -31.85 2.45 -31.85 2.4 -31.8 2.15 -31.75 M2.45 -31.6 L2.45 -31.65 Q2.4 -31.45 2.3 -31.4 L2.45 -31.6 M0.65 -23.85 L0.65 -22.25 Q0.7 -21.55 0.75 -20.6 L0.75 -18.55 Q0.75 -17.75 0.9 -16.35 L0.9 -16.2 1.0 -14.3 1.05 -14.2 1.05 -13.9 1.0 -13.0 1.0 -12.85 0.95 -12.3 0.9 -11.75 0.9 -10.4 0.85 -9.1 0.95 -6.5 0.95 -5.75 1.0 -5.0 1.0 -4.85 1.0 -4.75 1.0 -4.5 1.05 -3.85 1.05 -3.7 0.95 -3.0 0.95 -2.9 0.9 -2.3 1.05 -2.3 1.1 -2.25 0.8 -1.9 0.75 -1.95 0.7 -2.05 Q0.65 -2.05 0.65 -2.15 L0.65 -2.15 0.65 -2.25 0.7 -2.75 0.8 -3.95 0.85 -5.1 0.75 -8.0 0.75 -7.7 0.7 -7.65 Q0.6 -7.85 0.55 -8.1 L0.5 -8.55 0.6 -11.4 0.6 -15.35 0.55 -15.8 Q0.5 -16.45 0.45 -17.35 L0.4 -17.45 Q0.3 -18.2 0.3 -19.1 L0.35 -19.3 0.3 -19.7 0.35 -20.1 0.3 -19.95 0.2 -19.95 0.2 -21.05 0.25 -21.15 0.35 -22.25 0.35 -23.9 0.35 -23.95 0.4 -23.95 0.4 -24.0 0.4 -24.15 0.45 -24.15 0.45 -24.0 0.5 -23.95 0.65 -23.95 0.65 -23.85 M2.4 -6.2 Q2.45 -6.2 2.45 -5.95 L2.4 -5.7 2.25 -5.5 2.15 -5.4 Q2.0 -5.2 1.95 -5.0 L1.9 -4.9 2.05 -4.8 2.1 -4.75 1.95 -4.75 2.0 -4.6 2.15 -4.4 Q2.4 -4.15 2.4 -4.0 L2.4 -4.1 2.45 -3.8 2.4 -3.75 2.4 -3.9 2.35 -3.85 2.3 -3.85 2.25 -3.9 2.25 -3.8 2.05 -3.95 1.9 -4.1 1.8 -4.25 1.75 -4.4 Q1.55 -4.6 1.55 -4.65 1.55 -4.75 1.65 -4.9 1.65 -5.05 1.75 -5.25 L1.9 -5.45 2.0 -5.65 2.1 -5.7 2.2 -5.9 2.4 -6.15 2.4 -6.2 M2.35 -5.3 L2.25 -5.0 2.2 -4.9 2.2 -4.95 2.3 -5.2 2.35 -5.3 M0.7 0.25 Q0.5 0.5 0.35 0.55 L0.35 0.45 0.3 -0.15 Q0.3 -0.55 0.35 -0.75 L0.35 -0.85 0.4 -0.9 0.4 -0.95 0.35 -1.1 0.15 -1.3 0.15 -1.4 0.6 -1.4 0.7 -1.35 0.7 -1.2 0.65 -1.05 0.7 -0.85 0.7 -0.05 0.7 0.25 M0.75 -12.2 L0.75 -11.45 0.8 -11.45 0.8 -11.8 0.75 -12.2" fill="#282b33" fill-rule="evenodd" stroke="none"/>
    <path d="M0.75 -32.3 L1.0 -32.3 Q0.95 -32.3 0.9 -32.3 L0.75 -32.3 M1.3 -31.95 L1.25 -31.8 1.1 -31.65 1.05 -31.85 1.05 -31.9 0.65 -31.9 0.6 -31.95 0.15 -32.0 0.0 -32.05 -0.05 -32.0 0.05 -31.85 0.1 -31.75 0.1 -31.7 0.05 -31.65 -0.35 -31.65 -0.65 -31.6 -0.8 -31.55 -1.05 -31.6 -1.2 -31.55 -1.6 -31.55 Q-1.35 -31.7 -0.95 -31.75 L-0.55 -31.8 -0.6 -31.85 -0.55 -31.9 -0.45 -32.05 -0.45 -32.1 Q-0.45 -32.15 -0.2 -32.35 L0.1 -32.5 -0.2 -32.15 0.0 -32.35 Q0.2 -32.45 0.45 -32.45 L0.55 -32.4 Q0.55 -32.35 0.65 -32.25 L0.75 -32.15 0.9 -32.1 1.1 -32.1 1.25 -31.95 1.3 -31.95 M1.05 -31.6 L0.95 -31.55 0.9 -31.55 0.95 -31.65 1.0 -31.6 1.05 -31.6 M-1.95 -27.15 L-1.1 -26.3 Q-1.0 -26.15 -0.95 -25.9 L-0.95 -26.0 Q-0.9 -25.85 -0.9 -25.6 L-0.9 -24.8 -0.85 -24.55 Q-0.65 -24.25 -0.5 -24.25 L-0.1 -24.35 0.0 -24.35 Q0.35 -24.6 0.45 -24.6 L0.55 -24.55 0.7 -24.5 0.9 -24.5 1.15 -24.35 1.2 -24.4 1.2 -24.45 1.25 -24.35 1.35 -24.25 1.3 -24.2 1.25 -24.1 Q1.25 -24.0 1.15 -24.0 L0.45 -24.0 0.45 -24.15 0.4 -24.15 0.4 -24.0 -0.3 -24.0 Q-0.4 -24.0 -0.6 -24.15 L-0.75 -24.3 -0.85 -24.4 -0.85 -24.25 -0.9 -24.25 -0.9 -24.5 Q-1.2 -24.9 -1.25 -25.05 -1.35 -25.2 -1.4 -25.55 L-1.55 -26.15 -1.55 -26.35 Q-1.5 -25.9 -1.25 -25.25 -1.1 -24.95 -0.95 -24.7 L-1.0 -25.05 -1.0 -25.5 -1.05 -25.35 -1.0 -25.45 -1.0 -25.55 Q-1.0 -25.7 -1.1 -25.9 L-1.35 -26.4 -1.65 -26.75 -1.95 -27.15 M0.45 -29.35 Q0.35 -29.3 0.25 -29.25 L0.2 -29.25 -1.35 -29.4 -1.45 -29.4 -1.45 -29.45 -1.35 -29.55 -1.3 -29.55 -1.2 -29.5 -0.4 -29.5 -0.35 -29.45 Q0.0 -29.55 0.25 -29.75 L0.55 -30.05 Q0.7 -29.9 0.9 -29.9 L1.3 -29.9 1.2 -29.95 1.6 -29.7 1.85 -29.65 1.9 -29.65 1.8 -29.65 1.75 -29.6 1.8 -29.55 2.15 -29.55 2.45 -29.65 2.5 -29.7 2.6 -29.7 2.6 -29.65 2.1 -29.5 Q1.85 -29.45 1.65 -29.45 L1.7 -29.4 1.7 -29.35 1.85 -29.1 2.25 -28.9 Q2.45 -28.75 2.55 -28.6 L2.55 -28.55 2.55 -28.35 2.45 -28.45 Q1.85 -28.85 1.45 -29.4 L1.4 -29.45 1.25 -29.5 1.2 -29.5 0.95 -29.55 Q0.65 -29.55 0.55 -29.4 L0.5 -29.35 0.45 -29.35 M-0.15 -29.65 Q-0.05 -29.8 0.2 -29.9 L0.4 -30.0 0.25 -29.9 Q0.0 -29.7 -0.15 -29.65 M0.95 -30.9 L0.8 -30.85 0.8 -30.8 Q0.75 -30.8 0.75 -30.9 0.75 -30.95 1.0 -31.1 L1.5 -31.45 1.65 -31.5 2.15 -31.75 2.4 -31.8 2.45 -31.85 2.5 -31.85 2.55 -31.85 2.55 -31.7 2.45 -31.6 2.3 -31.4 Q2.25 -31.3 2.25 -31.2 L2.25 -31.15 1.9 -31.15 Q1.65 -31.15 1.25 -31.0 L0.95 -30.9 M1.65 -31.45 L1.65 -31.45 M0.85 -24.65 L0.95 -24.65 1.1 -24.55 0.95 -24.65 0.85 -24.65 M0.75 -18.55 L0.8 -18.1 Q0.85 -18.15 0.9 -18.15 1.05 -18.2 1.1 -18.05 1.1 -17.95 1.25 -17.85 L1.3 -18.15 1.4 -18.6 2.15 -20.4 2.15 -20.5 Q1.9 -20.2 1.55 -19.45 1.85 -20.6 2.3 -21.45 L2.25 -20.5 2.2 -20.25 2.15 -20.25 2.15 -20.1 1.8 -19.05 1.8 -18.95 1.6 -18.3 1.6 -17.7 1.65 -17.7 Q1.7 -18.25 2.05 -19.2 L2.25 -19.65 2.25 -19.35 Q2.05 -18.85 1.95 -18.3 L2.25 -19.1 2.25 -18.5 Q1.8 -17.35 1.75 -17.15 L1.75 -17.1 Q1.9 -17.2 2.0 -17.5 2.1 -17.8 2.25 -17.85 L2.25 -17.25 2.25 -17.1 2.05 -16.5 2.05 -16.45 2.0 -16.4 1.75 -15.65 1.7 -15.5 2.1 -16.1 2.25 -16.3 2.25 -15.55 2.2 -13.75 2.25 -12.35 2.4 -10.2 2.4 -6.2 2.4 -6.15 2.2 -5.9 2.1 -5.7 2.0 -5.65 1.9 -5.45 1.75 -5.25 Q1.65 -5.05 1.65 -4.9 1.55 -4.75 1.55 -4.65 1.55 -4.6 1.75 -4.4 L1.8 -4.25 1.9 -4.1 2.05 -3.95 2.25 -3.8 2.25 -3.9 2.3 -3.85 2.35 -3.85 2.4 -3.9 2.4 -3.75 2.4 -3.25 Q2.45 -3.05 2.45 -2.7 2.45 -1.9 2.4 -1.6 2.35 -1.25 2.1 -1.0 L0.75 0.2 Q0.7 0.1 0.7 0.0 L0.7 -0.05 0.7 -0.85 0.7 -1.2 0.7 -1.35 0.6 -1.4 0.15 -1.4 0.15 -1.3 0.35 -1.1 0.4 -0.95 0.4 -0.9 0.35 -0.85 0.35 -0.75 Q0.3 -0.55 0.3 -0.15 L0.35 0.45 0.35 0.55 0.35 0.6 0.2 0.75 -0.4 0.45 Q-1.35 -0.05 -1.45 -0.3 -1.55 -0.55 -1.6 -1.05 L-1.65 -1.75 -1.65 -2.0 Q-1.8 -2.75 -2.0 -3.65 L-2.15 -4.35 -2.15 -7.4 -2.1 -8.55 -2.1 -9.85 -2.05 -10.65 Q-1.9 -12.15 -1.9 -12.45 -1.9 -13.65 -2.0 -14.55 L-2.0 -23.5 Q-1.75 -23.35 -1.45 -22.75 L-1.45 -22.7 Q-1.75 -22.95 -1.8 -22.95 -1.7 -22.75 -1.55 -22.55 L-1.65 -22.55 -0.95 -21.8 -0.2 -21.0 -0.2 -21.05 Q-0.4 -21.4 -0.6 -21.6 -0.3 -21.4 0.0 -21.25 -0.05 -21.4 -0.3 -21.65 0.0 -21.45 0.25 -21.15 L0.2 -21.05 0.2 -19.95 0.3 -19.95 0.35 -20.1 0.3 -19.7 0.35 -19.3 0.3 -19.1 Q0.3 -18.2 0.4 -17.45 L0.45 -17.35 Q0.5 -16.45 0.55 -15.8 L0.6 -15.35 0.6 -11.4 0.5 -8.55 0.55 -8.1 Q0.6 -7.85 0.7 -7.65 L0.75 -7.7 0.75 -8.0 0.85 -5.1 0.8 -3.95 0.7 -2.75 0.65 -2.25 0.65 -2.15 0.65 -2.15 Q0.65 -2.05 0.7 -2.05 L0.75 -1.95 0.8 -1.9 1.1 -2.25 1.05 -2.3 0.9 -2.3 0.95 -2.9 0.95 -3.0 1.05 -3.7 1.05 -3.85 1.0 -4.5 1.0 -4.75 1.0 -4.85 1.0 -5.0 0.95 -5.75 0.95 -6.5 0.85 -9.1 0.9 -10.4 0.9 -11.75 0.95 -12.3 1.05 -12.8 1.0 -12.85 1.0 -13.0 1.05 -13.9 1.05 -14.2 1.0 -14.3 0.9 -16.2 0.9 -16.35 Q0.75 -17.75 0.75 -18.55 M1.55 -23.5 L1.5 -23.55 Q1.4 -23.6 1.4 -23.65 L1.5 -23.8 Q1.45 -23.75 1.5 -23.7 L2.0 -24.3 2.35 -24.55 2.45 -24.6 2.3 -24.35 2.15 -24.15 2.1 -24.05 Q2.05 -23.65 1.9 -23.5 L1.85 -23.5 1.85 -23.45 1.65 -23.45 Q1.6 -23.45 1.55 -23.5 M2.25 -24.65 L2.4 -24.8 2.4 -24.75 2.3 -24.7 2.25 -24.65 M1.95 -23.5 L2.0 -23.6 2.1 -23.75 2.1 -23.7 Q2.05 -23.6 2.0 -23.55 L1.95 -23.5 1.9 -23.5 1.95 -23.5 M2.4 -5.7 L2.5 -5.85 2.55 -5.9 2.35 -5.45 2.35 -5.3 2.3 -5.2 2.2 -4.95 2.15 -4.85 2.2 -4.8 2.15 -4.75 Q2.05 -4.65 2.0 -4.6 L1.95 -4.75 2.1 -4.75 2.05 -4.8 1.9 -4.9 1.95 -5.0 2.15 -5.45 2.25 -5.5 2.4 -5.7 M0.85 -18.4 Q0.85 -18.6 0.95 -18.6 1.1 -18.6 1.2 -18.35 1.15 -18.2 1.05 -18.2 0.95 -18.2 0.9 -18.3 0.85 -18.35 0.85 -18.4 M0.8 -18.05 L0.8 -18.0 Q0.8 -17.7 0.9 -17.3 L0.95 -17.45 Q1.0 -17.6 1.25 -17.55 L1.25 -17.6 Q1.05 -17.6 0.9 -17.8 L0.8 -18.05 M1.1 -16.65 L1.15 -16.6 1.15 -16.65 1.1 -16.65 M0.95 -2.35 L0.95 -2.35 M-0.7 -27.5 L-0.8 -27.5 Q-0.95 -27.5 -1.0 -27.65 L-1.0 -27.75 Q-1.0 -28.1 -0.55 -28.3 -0.15 -28.5 -0.15 -28.15 L-0.25 -28.15 Q-0.25 -28.0 -0.45 -27.8 L-0.8 -27.55 -0.7 -27.5 M-1.95 -26.9 L-1.95 -27.05 -1.7 -26.8 -1.6 -26.7 -1.6 -26.65 -1.65 -26.6 -1.95 -26.9" fill="#3d414d" fill-rule="evenodd" stroke="none"/>
    <path d="M0.4 -35.2 L0.45 -35.2 0.6 -35.1 Q0.35 -34.95 -0.25 -34.5 -0.7 -34.1 -0.9 -33.85 L-0.95 -34.05 -1.1 -34.2 -1.05 -34.35 Q-1.0 -34.4 -1.0 -34.45 L-1.0 -34.5 -0.75 -34.65 -0.4 -34.85 -0.1 -34.95 0.4 -35.2 M-0.45 -34.0 L-0.25 -34.2 0.45 -34.85 -0.05 -34.1 0.15 -34.1 0.3 -34.4 0.6 -34.8 0.65 -34.85 Q0.55 -34.4 0.55 -34.2 L-0.35 -34.05 -0.45 -34.0 M1.1 -31.65 L1.15 -31.65 Q1.1 -31.6 1.05 -31.6 L1.0 -31.6 0.95 -31.65 Q0.9 -31.7 0.9 -31.75 L0.95 -31.8 0.9 -31.8 Q0.8 -31.65 0.55 -31.7 L0.25 -31.8 0.2 -31.65 0.2 -31.5 -0.5 -31.4 -1.5 -31.4 -1.65 -31.5 -1.55 -31.45 -1.5 -31.5 -1.7 -31.5 -1.75 -31.55 -1.6 -31.55 -1.2 -31.55 -1.05 -31.6 -0.8 -31.55 -0.65 -31.6 -0.35 -31.65 0.05 -31.65 0.1 -31.7 0.1 -31.75 0.05 -31.85 -0.05 -32.0 0.0 -32.05 0.15 -32.0 0.65 -31.9 1.05 -31.9 1.05 -31.85 1.1 -31.65 M0.25 -29.25 L0.35 -29.2 0.35 -29.1 Q0.3 -29.1 0.25 -29.1 L0.1 -29.1 -0.1 -29.15 -1.15 -29.2 -1.15 -29.15 -1.3 -29.15 -1.55 -29.35 Q-1.7 -29.5 -1.8 -29.6 L-1.6 -29.6 -1.6 -29.65 -1.35 -29.55 -1.45 -29.45 -1.45 -29.4 -1.35 -29.4 0.2 -29.25 0.25 -29.25 M2.45 -30.85 L2.5 -30.8 1.95 -30.75 Q1.1 -30.75 0.95 -30.9 L1.25 -31.0 Q1.65 -31.15 1.9 -31.15 L2.25 -31.15 Q2.25 -31.05 2.3 -31.0 L2.45 -30.85 M2.15 -32.15 Q2.05 -32.2 1.95 -32.25 1.7 -32.4 1.6 -32.5 L1.7 -32.05 1.7 -32.0 Q1.45 -32.3 1.3 -32.8 L1.2 -32.9 Q1.05 -32.95 1.05 -33.05 L0.85 -33.45 0.75 -33.7 0.9 -33.7 Q0.95 -33.7 1.05 -33.75 1.15 -33.85 1.2 -33.85 1.3 -33.85 1.3 -33.8 1.35 -33.75 1.4 -33.75 L1.6 -33.45 2.0 -32.9 1.85 -32.9 Q1.7 -32.8 1.7 -32.7 1.7 -32.65 1.9 -32.5 L2.1 -32.4 2.15 -32.45 2.05 -32.3 Q2.05 -32.2 2.15 -32.15 M1.25 -29.5 L1.45 -29.4 Q1.85 -28.85 2.45 -28.45 L2.55 -28.35 2.55 -28.1 2.15 -28.5 1.7 -28.9 Q1.35 -29.25 1.2 -29.25 L0.85 -29.3 0.55 -29.35 0.5 -29.35 0.55 -29.4 Q0.65 -29.55 0.95 -29.55 L1.2 -29.5 1.25 -29.5 M1.7 -29.35 L1.7 -29.4 1.65 -29.45 Q1.85 -29.45 2.1 -29.5 L2.6 -29.65 2.6 -29.45 1.7 -29.35 M1.25 -24.35 L1.3 -24.35 Q1.4 -24.35 1.4 -24.15 1.4 -24.0 1.3 -23.95 1.2 -23.85 0.9 -23.85 L0.65 -23.85 0.65 -23.95 0.5 -23.95 0.45 -24.0 1.15 -24.0 Q1.25 -24.0 1.25 -24.1 L1.3 -24.2 1.35 -24.25 1.25 -24.35 M2.35 -23.75 L2.35 -23.6 2.3 -23.5 Q2.0 -23.2 1.6 -23.25 L1.5 -23.4 1.55 -23.5 Q1.6 -23.45 1.65 -23.45 L1.85 -23.45 1.9 -23.5 1.95 -23.5 2.0 -23.55 Q2.05 -23.6 2.1 -23.7 L2.2 -23.95 2.35 -23.85 2.4 -23.8 2.35 -23.75 M0.35 -23.9 L0.2 -23.9 -0.05 -23.8 Q-0.35 -23.8 -0.6 -24.05 -0.75 -24.2 -0.8 -24.3 L-0.75 -24.3 -0.6 -24.15 Q-0.4 -24.0 -0.3 -24.0 L0.4 -24.0 0.4 -23.95 0.35 -23.95 0.35 -23.9 M-1.1 -25.9 Q-1.2 -26.15 -1.35 -26.25 -1.65 -26.55 -1.95 -26.85 L-1.95 -26.9 -1.65 -26.6 -1.6 -26.65 -1.6 -26.7 -1.7 -26.8 -1.65 -26.75 -1.35 -26.4 -1.1 -25.9 M1.8 -18.95 L1.8 -19.05 2.15 -20.1 2.15 -20.25 2.2 -20.25 Q2.2 -20.3 2.25 -20.3 L2.25 -19.9 2.1 -19.55 1.8 -18.9 1.8 -18.95 M2.25 -16.75 L2.25 -16.5 2.0 -16.05 1.75 -15.65 2.0 -16.4 2.05 -16.45 2.05 -16.5 2.25 -16.85 2.25 -16.75 M2.2 -4.75 L2.35 -4.35 2.5 -4.1 2.4 -4.1 2.4 -4.0 Q2.4 -4.15 2.15 -4.4 L2.0 -4.6 Q2.05 -4.65 2.15 -4.75 L2.2 -4.75 M-1.3 -32.95 Q-1.5 -32.6 -2.05 -32.6 L-2.1 -32.6 Q-2.05 -32.8 -1.8 -33.25 L-1.7 -33.15 -1.55 -33.15 -1.35 -32.95 -1.3 -32.95" fill="#7a8299" fill-rule="evenodd" stroke="none"/>
    <path d="M-0.7 -27.5 L-0.8 -27.55 -0.45 -27.8 Q-0.25 -28.0 -0.25 -28.15 L-0.15 -28.15 -0.15 -28.05 Q-0.15 -27.9 -0.3 -27.7 -0.5 -27.5 -0.65 -27.5 L-0.7 -27.5" fill="#6f778c" fill-rule="evenodd" stroke="none"/>
  </g>
</svg>
