<?xml version="1.0" encoding="UTF-8" standalone="no"?>
<svg xmlns:ffdec="https://www.free-decompiler.com/flash" xmlns:xlink="http://www.w3.org/1999/xlink" ffdec:objectType="shape" height="13.2px" width="7.0px" xmlns="http://www.w3.org/2000/svg">
  <g transform="matrix(1.0, 0.0, 0.0, 1.0, -1.05, 8.25)">
    <path d="M2.5 -7.05 Q2.6 -6.9 3.3 -6.2 4.15 -5.3 4.3 -5.05 L4.85 -4.0 Q5.0 -3.7 5.15 -3.45 4.7 -3.1 4.25 -2.25 3.85 -1.4 3.85 -0.85 L3.85 -0.8 3.7 -0.8 Q3.5 -0.8 3.3 -0.9 2.9 -1.0 2.5 -1.45 L2.4 -1.6 2.15 -1.9 Q1.85 -2.15 1.65 -3.1 1.5 -3.75 1.45 -4.4 1.45 -5.1 1.65 -5.75 1.75 -6.0 1.85 -6.15 1.95 -6.55 2.15 -6.75 2.3 -6.95 2.5 -7.05 M5.25 -3.35 L5.55 -3.0 4.8 -1.6 4.8 -1.55 Q4.35 -1.4 4.25 -1.2 L4.15 -1.1 4.05 -1.05 Q4.15 -1.85 4.65 -2.55 L4.95 -2.9 4.95 -2.95 5.25 -3.35" fill="#8f8842" fill-rule="evenodd" stroke="none"/>
    <path d="M5.7 0.8 L5.65 0.75 5.6 0.75 5.3 0.6 4.85 0.6 4.75 0.65 Q4.5 0.7 4.2 0.85 4.05 0.9 3.95 0.95 L3.95 1.0 3.85 1.05 3.8 1.05 Q4.0 0.4 4.0 -0.4 4.1 -0.65 4.2 -0.8 L4.25 -0.85 4.7 -1.2 4.85 -1.3 Q5.15 -1.45 5.45 -1.5 L5.45 -1.45 Q5.45 -0.85 5.2 -0.2 L4.95 0.3 5.3 0.6 Q5.35 0.5 5.5 0.65 L5.7 0.8 M6.4 1.3 L6.4 1.35 6.35 1.35 6.35 1.3 6.4 1.3 M5.1 4.0 L5.15 3.95 5.2 3.95 5.35 3.85 5.35 3.85 Q5.4 3.95 5.55 3.95 L5.6 3.95 Q5.6 4.1 5.6 4.2 L5.6 4.2 5.55 4.3 5.45 4.4 5.45 4.45 5.55 4.45 5.6 4.35 5.65 4.45 5.55 4.5 Q5.35 4.6 5.3 4.65 L5.2 4.55 4.2 4.35 3.85 4.2 Q3.55 4.05 3.3 3.9 L2.8 3.4 Q2.8 3.35 3.25 2.35 L3.7 1.4 3.7 1.35 3.8 1.2 3.85 1.2 3.9 1.1 4.3 0.9 Q4.5 1.1 4.85 1.05 L5.3 1.0 5.4 1.05 5.65 1.2 5.8 1.25 5.75 1.5 Q5.5 2.35 5.05 2.35 L5.0 2.35 4.95 2.45 Q4.85 2.8 4.85 3.25 L4.85 3.5 4.75 3.5 Q4.1 3.65 4.1 3.9 L4.1 4.0 Q4.2 4.1 4.35 4.1 4.8 4.1 5.1 4.0 M5.45 0.7 L5.55 0.75 5.55 0.8 5.4 0.75 5.45 0.7" fill="#865e3a" fill-rule="evenodd" stroke="none"/>
    <path d="M2.5 -7.05 L2.75 -7.15 2.8 -7.2 2.85 -7.15 2.95 -7.15 2.95 -7.1 3.85 -6.5 4.9 -5.65 4.95 -5.6 5.65 -4.95 Q7.05 -3.45 7.4 -1.85 L6.9 -1.9 6.5 -1.85 5.45 -1.7 5.35 -1.7 4.8 -1.55 4.8 -1.6 5.55 -3.0 5.25 -3.35 5.3 -3.4 5.3 -3.45 5.25 -3.5 5.2 -3.5 5.15 -3.45 Q5.0 -3.7 4.85 -4.0 L4.3 -5.05 Q4.15 -5.3 3.3 -6.2 2.6 -6.9 2.5 -7.05" fill="#696027" fill-rule="evenodd" stroke="none"/>
    <path d="M5.45 -1.5 L6.35 -1.7 6.4 -1.7 7.3 -1.6 Q7.4 -1.65 7.55 -1.5 L7.7 -1.25 7.75 -1.0 7.75 -0.85 Q7.75 -0.75 7.7 -0.75 7.65 -0.35 7.3 0.2 L6.65 1.05 Q6.5 1.15 6.4 1.3 L6.35 1.3 6.35 1.2 6.3 1.1 Q6.35 1.1 6.4 1.05 L6.3 1.05 6.25 0.95 6.2 0.75 5.95 0.55 5.6 0.35 5.6 0.45 Q6.05 0.65 6.15 1.0 L6.2 1.15 6.25 1.2 6.25 1.65 6.2 1.8 6.2 1.95 6.15 2.15 6.05 2.45 5.95 2.6 5.85 2.9 5.75 3.1 Q5.55 3.5 5.3 3.6 L5.25 3.65 5.2 3.75 5.1 3.85 5.05 3.95 5.1 4.0 Q4.8 4.1 4.35 4.1 4.2 4.1 4.1 4.0 L4.1 3.9 Q4.1 3.65 4.75 3.5 L4.85 3.5 4.85 3.25 Q4.85 2.8 4.95 2.45 L5.0 2.35 5.05 2.35 Q5.5 2.35 5.75 1.5 L5.8 1.25 5.65 1.2 5.4 1.05 5.3 1.0 4.85 1.05 Q4.5 1.1 4.3 0.9 L4.35 0.85 4.5 0.8 4.55 0.8 4.75 0.7 4.8 0.7 5.1 0.65 5.45 0.7 5.4 0.75 5.55 0.8 5.6 0.8 5.95 1.15 5.95 1.1 5.9 0.95 5.7 0.8 5.5 0.65 Q5.35 0.5 5.3 0.6 L4.95 0.3 5.2 -0.2 Q5.45 -0.85 5.45 -1.45 L5.45 -1.5 M5.15 3.95 L5.35 3.8 5.65 3.5 5.65 4.0 5.6 4.2 5.6 4.2 Q5.6 4.1 5.6 3.95 L5.55 3.95 Q5.4 3.95 5.35 3.85 L5.35 3.85 5.2 3.95 5.15 3.95 M5.6 4.35 Q5.7 4.15 5.85 3.6 L5.85 3.45 5.9 3.35 6.1 3.2 6.15 3.2 6.25 3.15 6.45 3.25 6.55 3.25 6.55 3.3 6.5 3.45 6.45 3.5 Q6.25 3.85 5.8 4.35 L5.7 4.45 5.65 4.45 5.6 4.35" fill="#693629" fill-rule="evenodd" stroke="none"/>
    <path d="M2.85 -7.35 Q2.9 -7.45 3.2 -7.6 3.6 -7.8 3.7 -7.8 L3.75 -7.7 3.2 -7.35 3.7 -7.45 4.1 -7.45 4.1 -7.3 4.05 -7.25 3.15 -7.15 Q3.85 -6.75 4.45 -6.25 5.7 -5.5 6.65 -4.3 7.7 -2.95 7.8 -1.8 7.95 -1.65 8.0 -1.35 L8.0 -0.85 Q8.0 -0.35 7.5 0.5 7.05 1.15 6.7 1.45 L6.7 1.5 Q6.6 2.55 6.4 2.95 L6.55 3.0 6.8 3.1 6.8 3.15 6.9 3.35 Q6.9 3.45 6.75 3.65 L6.25 4.15 5.5 4.95 5.35 4.95 Q5.35 5.0 5.35 4.9 L5.2 4.95 Q4.8 4.95 4.35 4.75 L3.9 4.55 3.25 4.2 2.85 3.85 2.55 3.55 2.55 3.4 2.6 3.1 Q2.7 2.8 3.0 2.25 L3.15 2.0 Q3.35 1.55 3.55 1.2 L3.55 0.95 Q3.5 0.55 3.6 0.1 L3.6 0.05 Q3.65 -0.25 3.7 -0.45 3.15 -0.5 2.65 -1.05 2.3 -1.35 2.05 -1.8 1.95 -1.95 1.85 -2.15 1.4 -3.0 1.4 -4.25 1.4 -5.25 1.65 -6.0 2.0 -6.9 2.65 -7.25 1.9 -7.7 1.05 -8.1 L1.05 -8.25 Q2.0 -7.85 2.85 -7.35 M7.4 -1.85 Q7.05 -3.45 5.65 -4.95 L4.95 -5.6 4.9 -5.65 3.85 -6.5 2.95 -7.1 2.95 -7.15 2.85 -7.15 2.8 -7.2 2.75 -7.15 2.5 -7.05 Q2.3 -6.95 2.15 -6.75 1.95 -6.55 1.85 -6.15 1.75 -6.0 1.65 -5.75 1.45 -5.1 1.45 -4.4 1.5 -3.75 1.65 -3.1 1.85 -2.15 2.15 -1.9 L2.4 -1.6 2.5 -1.45 Q2.9 -1.0 3.3 -0.9 3.5 -0.8 3.7 -0.8 L3.85 -0.8 3.85 -0.85 Q3.85 -1.4 4.25 -2.25 4.7 -3.1 5.15 -3.45 L5.2 -3.5 5.25 -3.5 5.3 -3.45 5.3 -3.4 5.25 -3.35 4.95 -2.95 4.95 -2.9 4.65 -2.55 Q4.15 -1.85 4.05 -1.05 L4.15 -1.1 4.25 -1.2 Q4.35 -1.4 4.8 -1.55 L5.35 -1.7 5.45 -1.7 6.5 -1.85 6.9 -1.9 7.4 -1.85 M5.45 -1.5 Q5.15 -1.45 4.85 -1.3 L4.7 -1.2 4.25 -0.85 4.2 -0.8 Q4.1 -0.65 4.0 -0.4 4.0 0.4 3.8 1.05 L3.85 1.05 3.95 1.0 3.95 0.95 Q4.05 0.9 4.2 0.85 4.5 0.7 4.75 0.65 L4.85 0.6 5.3 0.6 5.6 0.75 5.65 0.75 5.7 0.8 5.9 0.95 5.95 1.1 5.95 1.15 5.6 0.8 5.55 0.8 5.55 0.75 5.45 0.7 5.1 0.65 4.8 0.7 4.75 0.7 4.55 0.8 4.5 0.8 4.35 0.85 4.3 0.9 3.9 1.1 3.85 1.2 3.8 1.2 3.7 1.35 3.7 1.4 3.25 2.35 Q2.8 3.35 2.8 3.4 L3.3 3.9 Q3.55 4.05 3.85 4.2 L4.2 4.35 5.2 4.55 5.3 4.65 Q5.35 4.6 5.55 4.5 L5.65 4.45 5.7 4.45 5.8 4.35 Q6.25 3.85 6.45 3.5 L6.5 3.45 6.55 3.3 6.55 3.25 6.45 3.25 6.25 3.15 6.15 3.2 6.1 3.2 5.9 3.35 5.85 3.45 5.85 3.6 Q5.7 4.15 5.6 4.35 L5.55 4.45 5.45 4.45 5.45 4.4 5.55 4.3 5.6 4.2 5.65 4.0 5.65 3.5 5.35 3.8 5.15 3.95 5.1 4.0 5.05 3.95 5.1 3.85 5.2 3.75 5.25 3.65 5.3 3.6 Q5.55 3.5 5.75 3.1 L5.85 2.9 5.95 2.6 6.05 2.45 6.15 2.15 6.2 1.95 6.2 1.8 6.25 1.65 6.25 1.2 6.2 1.15 6.15 1.0 Q6.05 0.65 5.6 0.45 L5.6 0.35 5.95 0.55 6.2 0.75 6.25 0.95 6.3 1.05 6.4 1.05 Q6.35 1.1 6.3 1.1 L6.35 1.2 6.35 1.3 6.35 1.35 6.4 1.35 6.4 1.3 Q6.5 1.15 6.65 1.05 L7.3 0.2 Q7.65 -0.35 7.7 -0.75 7.75 -0.75 7.75 -0.85 L7.75 -1.0 7.7 -1.25 7.55 -1.5 Q7.4 -1.65 7.3 -1.6 L6.4 -1.7 6.35 -1.7 5.45 -1.5 M6.7 3.35 L6.7 3.35" fill="#101010" fill-rule="evenodd" stroke="none"/>
  </g>
</svg>
