<?xml version="1.0" encoding="UTF-8" standalone="no"?>
<svg xmlns:ffdec="https://www.free-decompiler.com/flash" xmlns:xlink="http://www.w3.org/1999/xlink" ffdec:objectType="shape" height="12.0px" width="6.05px" xmlns="http://www.w3.org/2000/svg">
  <g transform="matrix(1.0, 0.0, 0.0, 1.0, 1.05, 8.9)">
    <path d="M0.1 -8.5 L0.0 -8.5 Q-0.35 -8.3 -0.7 -7.25 -1.0 -6.15 -1.0 -5.5 L-0.95 -5.0 Q-0.9 -4.75 -0.85 -4.65 L-0.7 -3.85 -0.7 -3.8 -0.5 -2.75 -0.45 -2.55 Q-0.25 -5.2 -0.25 -6.1 L-0.25 -6.55 -0.2 -6.55 Q-0.2 -6.0 -0.2 -4.95 -0.2 -3.9 -0.25 -2.8 L-0.3 -1.5 -0.35 -1.4 Q-0.35 -1.35 -0.3 -1.3 -0.2 -1.15 0.1 -1.15 L0.35 -1.2 0.6 -1.15 Q1.1 -1.15 1.85 -1.6 2.15 -1.75 2.45 -1.95 L2.5 -2.0 2.6 -2.05 2.75 -2.1 Q3.1 -2.35 3.4 -2.5 3.3 -2.6 3.15 -2.85 2.7 -3.35 2.0 -4.75 L0.1 -8.35 0.15 -8.4 0.1 -8.5 M0.85 -7.3 Q1.85 -5.3 2.05 -5.05 2.6 -4.0 3.3 -3.15 L3.8 -2.5 3.6 -2.25 3.5 -2.2 3.5 -2.15 Q3.7 -1.9 4.05 -1.3 L4.65 -0.45 5.0 0.05 Q4.95 0.35 4.5 0.75 L4.45 0.75 4.4 0.8 4.3 0.85 4.25 0.85 3.0 1.5 Q1.4 2.3 1.05 2.4 L1.5 3.05 1.45 3.1 Q1.25 2.95 0.9 2.4 L0.85 2.35 0.55 1.85 Q-0.1 0.85 -0.1 0.7 -0.1 0.6 0.0 0.55 L0.1 0.8 0.2 0.9 0.85 0.6 Q1.7 0.1 2.5 -0.5 L2.2 -0.95 1.95 -1.3 1.85 -1.35 Q0.85 -0.95 0.6 -0.95 L-0.4 -1.0 Q-0.55 -1.0 -0.55 -1.2 L-0.5 -1.7 -0.6 -2.1 -0.65 -2.6 -0.8 -3.65 -0.8 -3.75 -0.85 -3.95 Q-0.95 -4.2 -0.95 -4.75 L-1.0 -4.65 -1.05 -4.85 -1.0 -6.25 -1.0 -6.35 -0.85 -7.35 Q-0.8 -7.85 -0.4 -8.45 L-0.25 -8.65 -0.25 -8.7 -0.05 -8.9 Q0.0 -8.9 0.3 -8.5 L0.35 -8.45 0.85 -7.3 M3.4 -1.95 L3.3 -2.05 3.2 -2.0 3.0 -2.0 2.7 -1.85 2.1 -1.5 2.2 -1.4 Q2.3 -1.35 2.4 -1.2 L2.6 -0.7 2.65 -0.65 3.65 -0.4 3.75 -0.4 3.8 -0.35 3.8 -0.4 Q4.2 -0.25 4.35 -0.1 L4.4 -0.05 4.4 0.1 4.35 0.3 4.3 0.35 4.3 0.4 4.25 0.4 4.25 0.3 Q4.3 0.2 4.3 0.05 L4.3 -0.05 4.2 -0.1 3.8 -0.3 Q3.35 -0.45 2.8 -0.45 L2.75 -0.3 2.65 -0.25 Q2.7 0.0 3.05 0.2 3.45 0.5 4.0 0.5 L4.15 0.5 3.95 0.55 3.9 0.55 Q3.6 0.55 3.35 0.5 3.05 0.4 2.85 0.25 2.65 0.1 2.6 0.0 L2.55 -0.05 2.5 -0.05 Q2.25 0.15 1.6 0.5 L0.6 0.95 Q0.3 1.15 0.3 1.2 0.3 1.25 0.75 1.9 L0.85 2.05 0.9 2.2 Q1.75 1.9 3.0 1.25 L3.45 1.0 Q3.85 0.85 4.1 0.65 L4.15 0.6 4.2 0.6 4.4 0.5 4.55 0.25 4.65 0.15 4.45 -0.15 4.2 -0.55 3.4 -1.95" fill="#111111" fill-rule="evenodd" stroke="none"/>
    <path d="M0.1 -8.5 L0.15 -8.4 0.1 -8.35 2.0 -4.75 Q2.7 -3.35 3.15 -2.85 3.3 -2.6 3.4 -2.5 3.1 -2.35 2.75 -2.1 L2.6 -2.05 2.5 -2.0 2.45 -1.95 Q2.15 -1.75 1.85 -1.6 1.1 -1.15 0.6 -1.15 L0.35 -1.2 0.1 -1.15 Q-0.2 -1.15 -0.3 -1.3 -0.35 -1.35 -0.35 -1.4 L-0.3 -1.5 -0.25 -2.8 Q-0.2 -3.9 -0.2 -4.95 -0.2 -6.0 -0.2 -6.55 L-0.25 -6.55 -0.25 -6.1 Q-0.25 -5.2 -0.45 -2.55 L-0.5 -2.75 -0.7 -3.8 -0.7 -3.85 -0.85 -4.65 Q-0.9 -4.75 -0.95 -5.0 L-1.0 -5.5 Q-1.0 -6.15 -0.7 -7.25 -0.35 -8.3 0.0 -8.5 L0.1 -8.5" fill="#8d9537" fill-rule="evenodd" stroke="none"/>
    <path d="M3.8 -0.4 L3.7 -0.4 Q3.25 -0.6 3.05 -0.8 3.05 -1.05 2.9 -1.3 L3.3 -1.85 3.4 -1.95 4.2 -0.55 4.45 -0.15 4.35 -0.1 Q4.2 -0.25 3.8 -0.4 M0.75 1.9 Q0.3 1.25 0.3 1.2 0.3 1.15 0.6 0.95 L1.6 0.5 Q2.25 0.15 2.5 -0.05 L2.6 0.0 Q2.65 0.1 2.85 0.25 3.05 0.4 3.35 0.5 L1.85 1.25 2.45 0.45 Q2.2 0.5 1.05 1.6 L0.65 1.75 0.65 1.8 0.75 1.9 M4.2 -0.1 L4.3 -0.05 4.3 0.05 4.3 -0.05 4.2 -0.1" fill="#e7e2ab" fill-rule="evenodd" stroke="none"/>
    <path d="M3.8 -0.4 L3.8 -0.35 3.75 -0.4 3.65 -0.4 2.65 -0.65 2.6 -0.7 2.4 -1.2 Q2.3 -1.35 2.2 -1.4 L2.1 -1.5 2.7 -1.85 3.0 -2.0 3.2 -2.0 3.3 -2.05 3.4 -1.95 3.3 -1.85 2.9 -1.3 Q3.05 -1.05 3.05 -0.8 3.25 -0.6 3.7 -0.4 L3.8 -0.4 M4.45 -0.15 L4.65 0.15 4.55 0.25 4.4 0.5 4.2 0.6 4.15 0.6 4.1 0.65 Q3.85 0.85 3.45 1.0 L3.0 1.25 Q1.75 1.9 0.9 2.2 L0.85 2.05 0.75 1.9 0.65 1.8 0.65 1.75 1.05 1.6 Q2.2 0.5 2.45 0.45 L1.85 1.25 3.35 0.5 Q3.6 0.55 3.9 0.55 L3.95 0.55 4.15 0.5 4.0 0.5 Q3.45 0.5 3.05 0.2 2.7 0.0 2.65 -0.25 L2.75 -0.3 2.8 -0.45 Q3.35 -0.45 3.8 -0.3 L4.2 -0.1 4.3 -0.05 4.3 0.05 Q4.3 0.2 4.25 0.3 L4.25 0.4 4.3 0.4 4.3 0.35 4.35 0.3 4.4 0.1 4.4 -0.05 4.35 -0.1 4.45 -0.15 M2.5 -0.05 L2.55 -0.05 2.6 0.0 2.5 -0.05" fill="#a6b665" fill-rule="evenodd" stroke="none"/>
  </g>
</svg>
