<?xml version="1.0" encoding="UTF-8" standalone="no"?>
<svg xmlns:ffdec="https://www.free-decompiler.com/flash" xmlns:xlink="http://www.w3.org/1999/xlink" ffdec:objectType="shape" height="50.8px" width="17.05px" xmlns="http://www.w3.org/2000/svg">
  <g transform="matrix(1.0, 0.0, 0.0, 1.0, 14.0, 36.75)">
    <path d="M-1.65 -2.1 L-1.8 -2.2 -1.85 -2.3 -1.9 -2.45 Q-1.95 -2.65 -2.05 -2.9 L-2.05 -2.95 -2.0 -2.9 -1.9 -3.0 Q-1.9 -3.15 -1.65 -3.6 L-1.65 -3.65 Q-1.65 -4.0 -1.55 -4.15 L-1.75 -4.55 -0.95 -4.6 -1.05 -4.6 Q-1.7 -4.1 -1.7 -2.9 -1.75 -2.6 -1.7 -2.25 L-1.65 -2.1 M-0.35 -4.1 L-0.35 -4.05 -0.35 -4.1" fill="#c54b23" fill-rule="evenodd" stroke="none"/>
    <path d="M-2.4 -3.95 L-2.5 -3.95 -2.5 -4.05 Q-2.5 -4.6 -2.75 -4.85 L-2.75 -4.9 -2.55 -4.95 -2.45 -4.9 -2.55 -5.0 -2.5 -5.0 Q-2.35 -4.9 -2.15 -4.65 L-2.35 -4.85 Q-2.15 -4.65 -2.0 -4.15 L-2.0 -4.2 -2.05 -4.2 Q-2.35 -4.2 -2.4 -3.95 M-1.95 -3.55 L-1.95 -3.5 -2.0 -3.4 -2.05 -3.55 -1.95 -3.55 M-2.8 -4.25 L-2.95 -4.25 Q-3.5 -4.2 -3.5 -3.85 L-3.5 -3.8 -3.35 -3.8 Q-3.55 -3.75 -3.65 -3.7 L-4.05 -3.45 -3.95 -3.4 Q-3.8 -3.45 -3.45 -3.65 -3.3 -3.55 -2.95 -3.55 L-2.55 -3.6 -2.45 -3.65 -2.35 -3.45 Q-2.55 -3.55 -2.9 -3.4 -3.6 -3.15 -3.6 -2.85 L-3.55 -2.7 -3.5 -2.6 Q-3.8 -2.45 -3.9 -2.4 -3.9 -2.35 -3.8 -2.35 L-3.25 -2.55 -3.2 -2.55 -3.6 -2.25 Q-3.85 -2.05 -3.9 -2.05 -3.95 -2.05 -4.15 -2.3 -4.35 -2.5 -4.5 -2.5 -4.65 -2.5 -4.75 -2.45 L-4.85 -2.4 -4.85 -1.9 Q-4.55 -0.65 -4.1 0.5 -3.2 2.85 -2.45 2.85 -2.25 2.85 -2.15 2.7 L-2.1 2.95 -2.65 2.9 Q-3.25 2.4 -3.65 1.8 -4.0 1.25 -4.1 0.7 -4.2 0.2 -4.7 -0.65 L-4.9 -1.05 -5.1 -1.5 -5.1 -1.55 Q-5.05 -2.2 -5.05 -2.4 L-5.05 -2.9 -5.0 -3.35 -5.05 -3.75 -4.75 -4.1 Q-4.5 -4.3 -4.4 -4.45 L-4.4 -4.45 -4.15 -4.55 -4.05 -4.6 -3.9 -4.7 -3.75 -4.75 -3.3 -4.85 -3.2 -4.85 -3.0 -4.8 Q-2.95 -4.7 -2.85 -4.45 L-2.8 -4.25 M-2.25 -2.95 Q-2.25 -2.65 -2.2 -2.4 L-2.15 -2.25 -2.7 -1.7 -2.95 -1.4 -2.85 -1.55 Q-2.65 -1.8 -2.65 -2.05 -2.65 -2.55 -2.8 -2.65 L-2.65 -2.7 Q-2.4 -2.8 -2.25 -2.95 M-1.1 0.15 L-1.2 -0.15 -1.35 -0.5 -1.8 -1.9 -1.6 -1.8 -1.1 -1.65 -0.75 -1.6 -1.05 -1.1 Q-1.05 -0.65 -1.1 0.15" fill="#f4c49f" fill-rule="evenodd" stroke="none"/>
    <path d="M-7.4 -19.85 L-7.35 -19.9 -7.2 -19.95 -7.3 -19.9 -7.35 -19.9 -7.4 -19.85 M-8.0 -18.5 L-8.6 -18.1 -8.95 -19.05 -8.55 -19.05 Q-8.3 -19.05 -7.95 -19.3 L-7.75 -19.45 Q-7.55 -19.55 -7.4 -19.7 L-7.35 -19.65 Q-7.25 -19.3 -7.1 -19.05 L-7.5 -18.8 -7.75 -18.65 Q-7.95 -18.85 -8.2 -18.8 L-8.0 -18.5 M-7.2 -19.8 L-7.2 -19.8 M-9.0 -19.3 L-9.0 -19.3 M-7.05 -13.7 L-7.1 -13.65 -7.5 -14.85 -7.2 -14.1 -7.05 -13.7 M-6.85 -15.05 L-6.6 -15.15 -6.5 -15.15 -6.45 -15.15 -6.3 -14.9 -6.25 -14.75 -6.25 -14.7 -6.2 -14.65 -6.15 -14.4 -6.25 -13.45 Q-6.4 -14.0 -6.6 -14.5 L-6.85 -15.05 M-5.2 -11.05 L-4.55 -9.1 -4.05 -7.8 -3.65 -6.35 -3.65 -6.4 -4.55 -8.1 Q-4.9 -8.8 -5.2 -9.75 L-5.65 -11.35 -6.0 -12.55 Q-5.9 -12.95 -5.9 -13.6 L-5.55 -12.45 -5.55 -12.25 -5.75 -12.75 -5.5 -12.05 -5.45 -11.65 Q-5.35 -11.2 -5.2 -11.05 M-3.4 -5.05 L-3.65 -5.05 -3.6 -5.05 -3.45 -5.1 -3.45 -5.05 -3.4 -5.05 M-1.3 2.6 L-1.8 1.3 Q-2.25 0.1 -2.35 -0.35 -1.6 0.95 -1.3 2.6 M-2.35 -1.6 L-2.25 -1.75 -1.7 -0.4 Q-1.85 -0.55 -1.85 -0.2 -1.85 0.0 -1.1 2.1 -0.4 4.3 0.0 5.15 0.5 6.2 0.8 7.35 L0.9 7.8 0.95 7.95 Q1.3 8.6 1.6 9.6 L1.75 10.25 Q2.65 12.8 2.65 13.15 2.65 13.3 2.2 13.45 L2.15 13.3 Q2.0 13.3 1.9 13.2 L1.7 13.0 Q1.6 12.85 1.6 12.7 L1.6 12.65 Q1.45 12.35 1.3 11.9 0.8 10.3 0.6 9.85 L0.65 9.85 Q0.2 8.7 0.2 8.4 L0.3 6.6 -0.3 5.15 Q-1.0 3.7 -1.15 3.05 -1.25 1.75 -1.5 0.95 -1.8 0.05 -2.35 -0.7 L-2.35 -0.85 -2.3 -1.3 -2.35 -1.6 M0.65 8.15 Q0.7 8.8 0.85 9.4 L0.85 9.05 Q0.85 8.75 0.75 8.4 L0.65 8.15" fill="#bca55c" fill-rule="evenodd" stroke="none"/>
    <path d="M-4.5 -4.8 L-4.5 -4.75 -4.5 -4.8 M-8.0 -18.5 L-8.2 -18.8 Q-7.95 -18.85 -7.75 -18.65 L-8.0 -18.5 M-7.05 -13.7 L-7.2 -14.1 -7.5 -14.85 -7.1 -14.95 -6.85 -15.05 -6.6 -14.5 Q-6.4 -14.0 -6.25 -13.45 -6.3 -12.6 -6.3 -11.7 L-6.55 -12.4 -7.05 -13.7 M-6.5 -15.15 L-6.45 -15.2 -6.45 -15.15 -6.5 -15.15 M-6.3 -14.9 L-6.25 -14.7 -6.25 -14.75 -6.3 -14.9 M-5.2 -11.05 Q-5.15 -11.0 -5.05 -10.95 L-4.95 -10.6 -4.05 -7.8 -4.55 -9.1 -5.2 -11.05 M-3.65 -6.35 L-3.35 -5.35 -3.3 -5.1 -3.25 -5.1 -3.4 -5.05 -3.45 -5.05 -3.45 -5.1 -3.6 -5.05 -3.65 -5.05 -4.05 -4.85 -4.1 -4.8 -4.7 -7.25 -3.7 -5.35 Q-3.95 -6.1 -4.4 -7.0 L-4.9 -7.95 Q-5.2 -8.7 -5.5 -9.3 L-5.45 -9.25 -5.75 -10.1 -6.1 -11.1 -6.1 -11.45 Q-6.1 -11.95 -6.0 -12.45 L-6.0 -12.55 -5.65 -11.35 -5.2 -9.75 Q-4.9 -8.8 -4.55 -8.1 L-3.65 -6.4 -3.65 -6.35 M-5.55 -12.25 L-5.5 -12.05 -5.75 -12.75 -5.55 -12.25 M-1.3 2.6 Q-1.2 3.5 -1.2 4.5 L-1.2 4.9 -1.25 4.55 Q-1.5 3.95 -1.8 3.05 L-2.95 -0.9 -3.0 -0.95 -2.85 -1.05 -2.35 -0.35 Q-2.25 0.1 -1.8 1.3 L-1.3 2.6 M-2.35 -1.6 L-2.3 -1.3 -2.35 -0.85 -2.35 -0.7 -2.75 -1.15 -2.6 -1.35 -2.55 -1.35 -2.35 -1.6 M-1.15 3.05 Q-1.0 3.7 -0.3 5.15 L0.3 6.6 0.2 8.4 Q0.2 8.7 0.65 9.85 L0.6 9.85 Q0.8 10.3 1.3 11.9 1.45 12.35 1.6 12.65 L1.6 12.7 Q1.6 12.85 1.7 13.0 L1.9 13.2 1.95 13.4 1.7 13.2 1.55 13.1 1.25 12.55 0.9 11.85 0.5 10.75 -0.2 8.1 -0.25 8.1 -0.1 8.2 -0.25 7.95 -1.0 5.5 -1.15 3.35 -1.15 3.05 M0.95 7.95 L0.9 7.8 0.8 7.35 Q0.5 6.2 0.0 5.15 -0.4 4.3 -1.1 2.1 -1.85 0.0 -1.85 -0.2 -1.85 -0.55 -1.7 -0.4 L-1.65 -0.3 -1.35 0.35 -1.0 1.75 Q-0.45 3.7 0.15 5.3 L0.55 6.45 0.75 7.05 0.95 7.95 M0.65 8.15 L0.75 8.4 Q0.85 8.75 0.85 9.05 L0.85 9.4 Q0.7 8.8 0.65 8.15" fill="#aa7335" fill-rule="evenodd" stroke="none"/>
    <path d="M-8.15 -18.1 L-8.05 -18.15 Q-7.55 -18.5 -7.05 -18.75 L-7.05 -18.8 Q-6.9 -18.45 -6.75 -18.35 -6.6 -18.2 -6.6 -18.1 -6.6 -18.0 -6.65 -17.8 L-6.65 -17.75 Q-6.85 -17.6 -7.15 -17.45 -7.1 -17.55 -7.1 -17.6 -7.9 -18.0 -8.15 -18.1 M-7.05 -16.6 L-6.65 -16.6 Q-6.2 -16.45 -6.2 -15.75 -6.2 -15.6 -6.4 -15.5 L-6.4 -15.45 -6.45 -15.45 -7.0 -15.25 -6.95 -15.45 Q-6.9 -15.55 -6.9 -15.9 -6.9 -16.4 -7.05 -16.6 M-7.6 -15.15 L-7.65 -15.15 Q-7.7 -15.2 -7.85 -15.35 L-7.85 -15.4 Q-7.75 -15.25 -7.6 -15.15 M-8.05 -16.05 L-8.1 -16.15 -8.1 -16.2 -8.1 -16.15 -8.05 -16.05" fill="#eddaad" fill-rule="evenodd" stroke="none"/>
    <path d="M-12.85 -36.5 L-12.9 -36.55 -12.85 -36.5 M-13.4 -33.85 L-13.4 -33.8 -13.45 -33.75 -13.4 -33.85 M-13.35 -26.0 Q-13.05 -24.75 -12.65 -24.25 L-12.95 -23.8 -13.0 -24.0 -13.3 -25.6 -13.3 -25.8 -13.35 -26.0 M-11.7 -24.7 L-11.95 -25.2 Q-12.3 -26.0 -12.4 -26.5 -12.55 -27.3 -12.6 -28.65 L-12.7 -31.3 -12.7 -32.1 -12.35 -31.2 -11.65 -29.05 Q-11.25 -27.8 -11.05 -26.85 -10.8 -25.5 -10.7 -24.65 -10.55 -23.45 -10.55 -22.5 -10.6 -21.75 -10.55 -21.4 -10.5 -20.75 -10.2 -20.3 -10.1 -20.2 -10.0 -19.7 -9.95 -19.4 -9.45 -19.25 L-9.2 -19.15 -9.35 -19.1 Q-9.35 -19.0 -9.1 -18.45 L-9.05 -18.35 Q-9.45 -18.45 -9.9 -18.65 L-9.95 -18.7 Q-10.3 -18.9 -10.65 -19.15 -11.1 -19.55 -11.45 -20.05 L-11.5 -20.1 -11.5 -20.15 -11.65 -20.3 Q-12.2 -21.2 -12.6 -22.45 L-12.25 -23.2 -12.25 -23.25 -12.2 -23.3 -12.2 -23.6 -12.05 -23.95 -12.05 -24.0 Q-11.8 -24.0 -11.7 -24.15 -11.6 -24.25 -11.6 -24.35 L-11.7 -24.65 -11.65 -24.7 -11.7 -24.7 M-12.25 -23.2 L-12.25 -22.55 Q-12.2 -22.05 -12.0 -22.05 -11.8 -22.05 -11.75 -22.3 L-11.75 -22.65 Q-11.75 -22.95 -11.8 -23.05 -11.85 -23.2 -12.25 -23.2" fill="#bdc2ce" fill-rule="evenodd" stroke="none"/>
    <path d="M-2.4 -3.95 Q-2.35 -4.2 -2.05 -4.2 L-2.0 -4.2 -2.0 -4.15 -1.85 -3.8 -1.85 -3.65 -1.9 -3.55 -1.95 -3.55 -2.05 -3.55 -2.25 -3.8 -2.4 -3.95 M-2.8 -4.25 L-2.75 -4.15 -2.75 -4.05 -2.7 -3.9 -2.65 -3.9 -2.65 -3.85 -2.8 -3.85 -3.35 -3.8 -3.5 -3.8 -3.5 -3.85 Q-3.5 -4.2 -2.95 -4.25 L-2.8 -4.25 M-3.45 -3.65 L-3.2 -3.75 -2.6 -3.75 -2.45 -3.65 -2.55 -3.6 -2.95 -3.55 Q-3.3 -3.55 -3.45 -3.65 M-2.35 -3.45 L-2.3 -3.4 -2.2 -3.15 Q-2.4 -3.05 -3.0 -2.8 L-3.5 -2.6 -3.55 -2.7 -3.6 -2.85 Q-3.6 -3.15 -2.9 -3.4 -2.55 -3.55 -2.35 -3.45 M-3.25 -2.55 L-3.2 -2.55 -2.95 -2.65 -2.25 -2.95 Q-2.4 -2.8 -2.65 -2.7 L-2.8 -2.65 Q-2.65 -2.55 -2.65 -2.05 -2.65 -1.8 -2.85 -1.55 L-2.95 -1.4 -3.05 -1.35 -3.2 -1.1 Q-3.2 -1.25 -3.3 -1.35 L-3.35 -1.35 -3.4 -0.8 -3.45 -0.75 -3.4 -0.7 Q-3.5 -0.4 -3.7 -0.2 L-3.65 -0.15 Q-3.4 -0.35 -3.3 -0.6 L-3.25 -0.65 -3.0 0.05 -2.9 0.3 -2.6 1.4 -2.5 1.95 Q-2.4 2.35 -2.2 2.65 L-2.15 2.7 Q-2.25 2.85 -2.45 2.85 -3.2 2.85 -4.1 0.5 -4.55 -0.65 -4.85 -1.9 L-4.85 -2.4 -4.75 -2.45 Q-4.65 -2.5 -4.5 -2.5 -4.35 -2.5 -4.15 -2.3 -3.95 -2.05 -3.9 -2.05 -3.85 -2.05 -3.6 -2.25 L-3.2 -2.55 -3.25 -2.55 M-1.1 0.15 Q-1.05 -0.65 -1.05 -1.1 L-0.75 -1.6 -0.45 -1.6 Q-0.35 -0.95 -0.35 -0.8 -0.35 -0.35 -0.55 0.2 -0.7 0.6 -0.75 1.15 L-0.8 1.05 -1.1 0.15" fill="#e7955f" fill-rule="evenodd" stroke="none"/>
    <path d="M-0.35 -4.05 L-0.35 -4.0 -0.2 -3.75 -0.1 -3.35 Q0.05 -3.0 0.05 -2.65 L0.05 -2.5 0.0 -2.4 0.0 -2.3 -0.1 -2.15 -0.1 -2.05 -0.15 -1.95 -0.15 -1.9 -0.2 -1.9 -0.3 -1.85 -0.75 -1.85 -1.2 -1.9 Q-1.45 -1.95 -1.65 -2.1 L-1.7 -2.25 Q-1.75 -2.6 -1.7 -2.9 -1.7 -4.1 -1.05 -4.6 L-0.95 -4.6 Q-0.8 -4.55 -0.65 -4.45 -0.5 -4.3 -0.35 -4.1 L-0.35 -4.05" fill="#883720" fill-rule="evenodd" stroke="none"/>
    <path d="M-7.15 -17.45 L-7.35 -17.35 Q-8.25 -16.85 -8.3 -16.85 -8.35 -16.85 -8.6 -17.2 L-8.75 -17.4 -8.8 -17.5 -8.8 -17.55 -8.6 -17.75 -8.55 -17.75 -8.55 -17.8 -8.15 -18.1 Q-7.9 -18.0 -7.1 -17.6 -7.1 -17.55 -7.15 -17.45 M-7.05 -16.85 L-7.15 -16.8 -7.35 -16.75 -7.7 -16.65 -8.1 -16.55 -8.15 -16.6 -7.8 -16.8 -7.45 -17.05 -7.3 -17.1 -7.2 -17.2 -6.85 -17.4 -6.7 -16.9 -7.05 -16.85 M-7.0 -15.25 L-7.35 -15.15 -7.6 -15.15 Q-7.75 -15.25 -7.85 -15.4 L-7.85 -15.45 Q-7.85 -15.55 -8.05 -16.05 L-8.1 -16.15 -8.1 -16.2 Q-7.6 -16.45 -7.15 -16.6 L-7.05 -16.6 Q-6.9 -16.4 -6.9 -15.9 -6.9 -15.55 -6.95 -15.45 L-7.0 -15.25" fill="#c59c5f" fill-rule="evenodd" stroke="none"/>
    <path d="M-12.85 -36.5 L-12.75 -36.45 -12.65 -36.3 -12.35 -35.75 Q-11.75 -34.5 -11.5 -34.05 L-10.2 -30.75 -8.9 -27.4 -8.55 -26.35 Q-7.8 -24.25 -7.75 -23.2 -7.65 -22.8 -7.65 -22.55 -7.65 -22.45 -7.75 -22.25 L-7.5 -21.9 -7.3 -21.55 -7.1 -21.75 -7.0 -21.75 -7.0 -21.85 Q-7.15 -22.25 -7.8 -24.35 L-8.55 -27.05 Q-8.55 -27.25 -8.5 -27.3 L-8.55 -27.6 -8.4 -27.4 -8.4 -27.45 Q-7.65 -27.0 -6.45 -24.55 -6.0 -23.55 -5.7 -22.85 L-5.7 -22.1 -5.65 -21.6 -5.5 -20.65 Q-5.5 -20.05 -5.8 -19.55 L-6.45 -18.4 -6.45 -18.35 Q-6.4 -18.3 -6.35 -18.3 -6.35 -18.15 -6.2 -17.7 L-6.25 -17.65 -6.4 -17.45 -6.4 -17.4 -6.45 -17.25 -6.4 -17.15 -6.45 -17.05 -6.0 -15.9 -6.1 -15.65 -6.05 -15.4 -6.0 -15.35 Q-5.9 -15.0 -5.8 -14.8 L-5.75 -14.6 -5.35 -13.2 -5.35 -13.05 -5.2 -12.75 -5.25 -12.75 -5.15 -12.5 -5.2 -12.2 -5.05 -11.65 Q-4.9 -11.35 -4.75 -11.2 L-4.2 -9.55 -4.05 -9.0 -3.55 -7.7 -3.5 -7.6 -3.35 -6.85 Q-3.25 -6.3 -3.15 -5.95 L-3.15 -5.8 -3.1 -5.6 -3.05 -5.3 -3.05 -5.1 -2.85 -5.15 -2.75 -5.2 -2.5 -5.2 Q-2.05 -5.1 -1.9 -4.8 L-1.9 -4.75 -1.85 -4.8 -1.5 -4.85 -0.75 -4.9 Q-0.75 -4.85 -0.6 -4.8 L-0.5 -4.75 Q-0.1 -4.35 0.1 -3.75 0.2 -3.15 0.35 -2.8 L0.25 -2.5 Q0.1 -2.1 0.0 -1.5 L-0.1 -1.35 -0.1 -1.2 -0.15 -1.2 -0.1 -0.5 -0.15 -0.3 Q-0.35 0.4 -0.4 1.0 -0.45 1.25 -0.45 1.45 L-0.45 1.7 -0.65 1.55 -0.65 1.75 -0.1 3.75 -0.1 3.85 Q0.15 4.75 0.5 5.6 L0.7 6.1 0.8 6.5 1.0 7.15 0.95 7.0 Q1.05 6.9 1.35 7.55 L2.3 10.85 3.05 13.55 2.8 13.75 Q2.4 14.05 2.05 14.05 L1.8 14.0 1.75 14.0 Q1.5 13.8 1.35 13.6 L1.2 13.55 Q0.9 12.75 0.55 11.7 0.05 10.25 -0.35 9.4 -0.5 8.8 -0.6 8.45 -0.75 7.85 -1.5 5.5 -2.2 3.45 -2.2 3.3 L-2.2 3.2 -2.35 3.2 -2.5 3.1 -2.7 3.1 Q-3.2 2.95 -3.6 2.3 L-3.8 2.05 Q-4.1 1.6 -4.3 0.85 -4.45 0.4 -4.9 -0.6 L-5.35 -1.55 -5.25 -2.75 -5.35 -3.65 Q-5.35 -3.9 -5.05 -4.15 L-4.55 -4.6 -4.45 -4.6 -4.5 -4.75 -4.5 -4.8 Q-4.75 -5.35 -5.35 -7.2 L-6.05 -9.75 -6.45 -10.9 -7.1 -13.0 -7.25 -13.35 -7.25 -13.4 -7.8 -14.8 -7.85 -15.15 -7.95 -15.1 Q-8.05 -15.3 -8.2 -15.55 -8.5 -16.0 -8.8 -16.5 -9.2 -17.15 -9.2 -17.3 -9.2 -17.55 -9.0 -17.8 -9.25 -17.9 -9.55 -18.0 L-9.7 -18.15 Q-10.05 -18.25 -10.3 -18.4 -11.4 -18.8 -12.2 -20.05 -12.6 -20.7 -12.85 -21.45 -13.05 -22.05 -13.05 -22.3 -13.05 -22.7 -12.75 -23.3 L-12.55 -23.7 -13.0 -23.3 -13.15 -23.3 Q-13.2 -23.3 -13.2 -23.45 L-13.2 -23.5 -13.3 -24.0 Q-13.6 -24.65 -13.7 -25.45 L-13.9 -27.4 -13.95 -28.6 -14.0 -30.0 Q-14.0 -31.75 -13.8 -33.4 L-13.8 -33.7 -13.55 -35.0 -13.4 -36.3 -13.2 -36.75 -12.9 -36.55 -12.85 -36.5 M-1.65 -2.1 Q-1.45 -1.95 -1.2 -1.9 L-0.75 -1.85 -0.3 -1.85 -0.2 -1.9 -0.15 -1.9 -0.15 -1.95 -0.1 -2.05 -0.1 -2.15 0.0 -2.3 0.0 -2.4 0.05 -2.5 0.05 -2.65 Q0.05 -3.0 -0.1 -3.35 L-0.2 -3.75 -0.35 -4.0 -0.35 -4.05 -0.35 -4.1 Q-0.5 -4.3 -0.65 -4.45 -0.8 -4.55 -0.95 -4.6 L-1.75 -4.55 -1.55 -4.15 Q-1.65 -4.0 -1.65 -3.65 L-1.65 -3.6 Q-1.9 -3.15 -1.9 -3.0 L-2.0 -2.9 -2.05 -2.95 -2.05 -2.9 Q-1.95 -2.65 -1.9 -2.45 L-1.85 -2.3 -1.8 -2.2 -1.65 -2.1 M-12.75 -33.9 Q-12.45 -32.85 -10.75 -27.1 -9.55 -22.95 -8.5 -20.35 -9.75 -22.95 -10.95 -27.05 L-11.9 -30.45 Q-12.45 -32.55 -12.9 -33.9 L-12.75 -33.9 M-13.45 -33.75 L-13.45 -33.7 -13.5 -33.35 -13.5 -33.05 -13.6 -31.85 -13.6 -30.5 -13.35 -26.3 -13.35 -26.0 -13.3 -25.8 -13.3 -25.6 -13.0 -24.0 -12.95 -23.8 -12.65 -24.25 -12.55 -24.35 -12.45 -24.35 -12.15 -24.5 -11.7 -24.7 -11.65 -24.7 -11.7 -24.65 Q-11.95 -24.5 -12.05 -24.3 L-12.1 -24.25 -12.15 -24.1 -12.1 -24.1 Q-12.05 -24.05 -12.05 -24.0 L-12.05 -23.95 -12.2 -23.6 -12.2 -23.3 -12.25 -23.2 -12.6 -22.45 Q-12.2 -21.2 -11.65 -20.3 L-11.5 -20.15 -11.5 -20.1 -11.45 -20.05 Q-11.1 -19.55 -10.65 -19.15 -10.3 -18.9 -9.95 -18.7 L-9.9 -18.65 Q-9.45 -18.45 -9.05 -18.35 L-9.1 -18.45 Q-9.35 -19.0 -9.35 -19.1 L-9.2 -19.15 -9.2 -19.3 -8.95 -19.3 -8.6 -19.45 Q-7.9 -19.85 -7.5 -19.85 L-7.4 -19.85 -7.35 -19.9 Q-7.35 -20.0 -7.35 -19.9 L-7.3 -19.9 -7.2 -19.95 -7.1 -19.95 -7.15 -19.9 -7.05 -19.65 -7.0 -19.55 -7.0 -19.5 -6.9 -19.4 -6.9 -19.3 -6.65 -18.85 -6.6 -18.8 -6.35 -19.4 -6.15 -19.85 -6.1 -19.95 Q-5.95 -20.25 -5.95 -20.7 -5.95 -21.3 -6.05 -21.95 -6.2 -22.9 -6.6 -23.9 L-6.6 -23.95 -7.05 -24.9 -7.15 -25.05 -8.05 -26.8 -8.2 -27.0 -7.35 -24.15 -6.8 -22.3 -6.75 -22.15 -6.75 -21.9 -6.85 -21.6 Q-6.95 -21.2 -7.2 -21.2 L-7.45 -21.25 -7.55 -21.25 Q-7.85 -21.3 -8.05 -21.65 -8.15 -21.9 -8.15 -22.1 L-8.05 -22.6 -7.95 -23.0 -8.1 -23.45 -8.15 -23.45 Q-8.85 -26.35 -10.4 -30.1 L-10.7 -30.9 -11.15 -31.8 -11.3 -32.15 -11.55 -32.65 -11.55 -32.75 -11.65 -33.0 -12.0 -33.75 -13.0 -36.0 -13.4 -33.85 -13.45 -33.75 M-7.2 -19.8 L-7.2 -19.8 M-7.75 -18.65 L-7.5 -18.8 -7.1 -19.05 Q-7.25 -19.3 -7.35 -19.65 L-7.4 -19.7 Q-7.55 -19.55 -7.75 -19.45 L-7.95 -19.3 Q-8.3 -19.05 -8.55 -19.05 L-8.95 -19.05 -8.6 -18.1 -8.0 -18.5 -7.75 -18.65 M-7.15 -17.45 Q-6.85 -17.6 -6.65 -17.75 L-6.65 -17.8 Q-6.6 -18.0 -6.6 -18.1 -6.6 -18.2 -6.75 -18.35 -6.9 -18.45 -7.05 -18.8 L-7.05 -18.75 Q-7.55 -18.5 -8.05 -18.15 L-8.15 -18.1 -8.55 -17.8 -8.55 -17.75 -8.6 -17.75 -8.8 -17.55 -8.8 -17.5 -8.75 -17.4 -8.6 -17.2 Q-8.35 -16.85 -8.3 -16.85 -8.25 -16.85 -7.35 -17.35 L-7.15 -17.45 M-9.0 -19.3 L-9.0 -19.3 M-7.05 -16.85 L-6.7 -16.9 -6.85 -17.4 -7.2 -17.2 -7.3 -17.1 -7.45 -17.05 -7.8 -16.8 -8.15 -16.6 -8.1 -16.55 -7.7 -16.65 -7.35 -16.75 -7.15 -16.8 -7.05 -16.85 M-6.65 -16.6 L-7.05 -16.6 -7.15 -16.6 Q-7.6 -16.45 -8.1 -16.2 L-8.1 -16.15 -8.05 -16.05 Q-7.85 -15.55 -7.85 -15.45 L-7.85 -15.4 -7.85 -15.35 Q-7.7 -15.2 -7.65 -15.15 L-7.6 -15.15 -7.35 -15.15 -7.0 -15.25 -6.45 -15.45 -6.4 -15.45 -6.4 -15.5 Q-6.2 -15.6 -6.2 -15.75 -6.2 -16.45 -6.65 -16.6 M-7.5 -14.85 L-7.1 -13.65 -7.05 -13.7 -6.55 -12.4 -6.3 -11.7 Q-6.3 -12.6 -6.25 -13.45 L-6.15 -14.4 -6.2 -14.65 -6.25 -14.7 -6.3 -14.9 -6.45 -15.15 -6.45 -15.2 -6.5 -15.15 -6.6 -15.15 -6.85 -15.05 -7.1 -14.95 -7.5 -14.85 M-4.05 -7.8 L-4.95 -10.6 -5.05 -10.95 Q-5.15 -11.0 -5.2 -11.05 -5.35 -11.2 -5.45 -11.65 L-5.5 -12.05 -5.55 -12.25 -5.55 -12.45 -5.9 -13.6 Q-5.9 -12.95 -6.0 -12.55 L-6.0 -12.45 Q-6.1 -11.95 -6.1 -11.45 L-6.1 -11.1 -5.75 -10.1 -5.45 -9.25 -5.5 -9.3 Q-5.2 -8.7 -4.9 -7.95 L-4.4 -7.0 Q-3.95 -6.1 -3.7 -5.35 L-4.7 -7.25 -4.1 -4.8 -4.05 -4.85 -3.65 -5.05 -3.4 -5.05 -3.25 -5.1 -3.3 -5.1 -3.35 -5.35 -3.65 -6.35 -4.05 -7.8 M-2.35 -5.0 L-2.35 -5.0 M-2.0 -4.15 Q-2.15 -4.65 -2.35 -4.85 L-2.15 -4.65 Q-2.35 -4.9 -2.5 -5.0 L-2.55 -5.0 -2.45 -4.9 -2.55 -4.95 -2.75 -4.9 -2.75 -4.85 Q-2.5 -4.6 -2.5 -4.05 L-2.5 -3.95 -2.4 -3.95 -2.25 -3.8 -2.05 -3.55 -2.0 -3.4 -1.95 -3.5 -1.95 -3.55 -1.9 -3.55 -1.85 -3.65 -1.85 -3.8 -2.0 -4.15 M-3.35 -3.8 L-2.8 -3.85 -2.65 -3.85 -2.65 -3.9 -2.7 -3.9 -2.75 -4.05 -2.75 -4.15 -2.8 -4.25 -2.85 -4.45 Q-2.95 -4.7 -3.0 -4.8 L-3.2 -4.85 -3.3 -4.85 -3.75 -4.75 -3.9 -4.7 -4.05 -4.6 -4.15 -4.55 -4.4 -4.45 -4.4 -4.45 Q-4.5 -4.3 -4.75 -4.1 L-5.05 -3.75 -5.0 -3.35 -5.05 -2.9 -5.05 -2.4 Q-5.05 -2.2 -5.1 -1.55 L-5.1 -1.5 -4.9 -1.05 -4.7 -0.65 Q-4.2 0.2 -4.1 0.7 -4.0 1.25 -3.65 1.8 -3.25 2.4 -2.65 2.9 L-2.1 2.95 -2.15 2.7 -2.2 2.65 Q-2.4 2.35 -2.5 1.95 L-2.6 1.4 -2.9 0.3 -3.0 0.05 -3.25 -0.65 -3.3 -0.6 Q-3.4 -0.35 -3.65 -0.15 L-3.7 -0.2 Q-3.5 -0.4 -3.4 -0.7 L-3.45 -0.75 -3.4 -0.8 -3.35 -1.35 -3.3 -1.35 Q-3.2 -1.25 -3.2 -1.1 L-3.05 -1.35 -2.95 -1.4 -2.7 -1.7 -2.15 -2.25 -2.2 -2.4 Q-2.25 -2.65 -2.25 -2.95 L-2.95 -2.65 -3.2 -2.55 -3.25 -2.55 -3.8 -2.35 Q-3.9 -2.35 -3.9 -2.4 -3.8 -2.45 -3.5 -2.6 L-3.0 -2.8 Q-2.4 -3.05 -2.2 -3.15 L-2.3 -3.4 -2.35 -3.45 -2.45 -3.65 -2.6 -3.75 -3.2 -3.75 -3.45 -3.65 Q-3.8 -3.45 -3.95 -3.4 L-4.05 -3.45 -3.65 -3.7 Q-3.55 -3.75 -3.35 -3.8 M-3.0 -0.95 L-2.95 -0.9 -1.8 3.05 Q-1.5 3.95 -1.25 4.55 L-1.2 4.9 -1.2 4.5 Q-1.2 3.5 -1.3 2.6 -1.6 0.95 -2.35 -0.35 L-2.85 -1.05 -3.0 -0.95 M-0.75 -1.6 L-1.1 -1.65 -1.6 -1.8 -1.8 -1.9 -1.35 -0.5 -1.2 -0.15 -1.1 0.15 -0.8 1.05 -0.75 1.15 Q-0.7 0.6 -0.55 0.2 -0.35 -0.35 -0.35 -0.8 -0.35 -0.95 -0.45 -1.6 L-0.75 -1.6 M-1.7 -0.4 L-2.25 -1.75 -2.35 -1.6 -2.55 -1.35 -2.6 -1.35 -2.75 -1.15 -2.35 -0.7 Q-1.8 0.05 -1.5 0.95 -1.25 1.75 -1.15 3.05 L-1.15 3.35 -1.0 5.5 -0.25 7.95 -0.1 8.2 -0.25 8.1 -0.2 8.1 0.5 10.75 0.9 11.85 1.25 12.55 1.55 13.1 1.7 13.2 1.95 13.4 1.9 13.2 Q2.0 13.3 2.15 13.3 L2.2 13.45 Q2.65 13.3 2.65 13.15 2.65 12.8 1.75 10.25 L1.6 9.6 Q1.3 8.6 0.95 7.95 L0.75 7.05 0.55 6.45 0.15 5.3 Q-0.45 3.7 -1.0 1.75 L-1.35 0.35 -1.65 -0.3 -1.7 -0.4" fill="#101010" fill-rule="evenodd" stroke="none"/>
    <path d="M-12.75 -33.9 L-12.9 -33.9 Q-12.45 -32.55 -11.9 -30.45 L-10.95 -27.05 Q-9.75 -22.95 -8.5 -20.35 -9.55 -22.95 -10.75 -27.1 -12.45 -32.85 -12.75 -33.9 M-12.7 -32.1 L-12.75 -32.2 -13.0 -32.9 -13.2 -33.35 -13.3 -33.65 -13.4 -33.85 -13.0 -36.0 -12.0 -33.75 -11.65 -33.0 -11.55 -32.75 -11.55 -32.65 -11.3 -32.15 -11.15 -31.8 -10.7 -30.9 -10.4 -30.1 Q-8.85 -26.35 -8.15 -23.45 L-8.1 -23.45 -7.95 -23.0 -8.05 -22.6 -8.15 -22.1 Q-8.15 -21.9 -8.05 -21.65 -7.85 -21.3 -7.55 -21.25 L-7.45 -21.25 -7.2 -21.2 Q-6.95 -21.2 -6.85 -21.6 L-6.75 -21.9 -6.75 -22.15 -6.8 -22.3 -7.35 -24.15 -8.2 -27.0 -8.05 -26.8 -7.15 -25.05 -7.05 -24.9 -6.6 -23.95 -6.6 -23.9 Q-6.2 -22.9 -6.05 -21.95 -5.95 -21.3 -5.95 -20.7 -5.95 -20.25 -6.1 -19.95 L-6.15 -19.85 -6.35 -19.4 -6.6 -18.8 -6.65 -18.85 -6.9 -19.3 -6.9 -19.4 -7.0 -19.5 -7.0 -19.55 -7.05 -19.65 -7.15 -19.9 -7.1 -19.95 -7.2 -19.95 -7.35 -19.9 -7.4 -19.85 -7.5 -19.85 Q-7.9 -19.85 -8.6 -19.45 L-8.95 -19.3 -9.2 -19.3 -9.2 -19.15 -9.45 -19.25 Q-9.95 -19.4 -10.0 -19.7 -10.1 -20.2 -10.2 -20.3 -10.5 -20.75 -10.55 -21.4 -10.6 -21.75 -10.55 -22.5 -10.55 -23.45 -10.7 -24.65 -10.8 -25.5 -11.05 -26.85 -11.25 -27.8 -11.65 -29.05 L-12.35 -31.2 -12.7 -32.1 M-7.35 -19.9 Q-7.35 -20.0 -7.35 -19.9" fill="#92a8ad" fill-rule="evenodd" stroke="none"/>
    <path d="M-13.4 -33.85 L-13.3 -33.65 -13.2 -33.35 -13.0 -32.9 -12.75 -32.2 -12.7 -32.1 -12.7 -31.3 -12.6 -28.65 Q-12.55 -27.3 -12.4 -26.5 -12.3 -26.0 -11.95 -25.2 L-11.7 -24.7 -12.15 -24.5 -12.45 -24.35 -12.55 -24.35 -12.65 -24.25 Q-13.05 -24.75 -13.35 -26.0 L-13.35 -26.3 -13.6 -30.5 -13.6 -31.85 -13.5 -33.05 -13.5 -33.35 -13.45 -33.7 -13.45 -33.75 -13.4 -33.8 -13.4 -33.85 M-11.7 -24.65 L-11.6 -24.35 Q-11.6 -24.25 -11.7 -24.15 -11.8 -24.0 -12.05 -24.0 -12.05 -24.05 -12.1 -24.1 L-12.15 -24.1 -12.1 -24.25 -12.05 -24.3 Q-11.95 -24.5 -11.7 -24.65 M-12.25 -23.2 Q-11.85 -23.2 -11.8 -23.05 -11.75 -22.95 -11.75 -22.65 L-11.75 -22.3 Q-11.8 -22.05 -12.0 -22.05 -12.2 -22.05 -12.25 -22.55 L-12.25 -23.2" fill="#dee9eb" fill-rule="evenodd" stroke="none"/>
  </g>
</svg>
