<?xml version="1.0" encoding="UTF-8" standalone="no"?>
<svg xmlns:ffdec="https://www.free-decompiler.com/flash" xmlns:xlink="http://www.w3.org/1999/xlink" ffdec:objectType="shape" height="26.65px" width="7.75px" xmlns="http://www.w3.org/2000/svg">
  <g transform="matrix(1.0, 0.0, 0.0, 1.0, 9.35, 12.9)">
    <path d="M-3.95 -1.5 L-4.05 -2.2 -4.05 -2.3 Q-4.3 -2.8 -4.6 -2.95 L-4.6 -3.0 -4.55 -3.1 -4.6 -3.2 -4.25 -3.6 -4.0 -3.85 -4.0 -3.9 -3.95 -3.9 -3.95 -3.95 -3.45 -4.35 -3.0 -4.65 -2.6 -4.9 -2.25 -5.05 -2.05 -4.5 -1.95 -4.3 -2.05 -4.25 -2.0 -4.3 -1.95 -4.25 -1.95 -4.2 -1.9 -4.0 -1.85 -3.7 -1.85 -3.3 -1.9 -3.0 -2.35 -2.55 Q-3.3 -1.6 -3.75 -1.6 -3.85 -1.6 -3.9 -1.65 L-3.95 -1.6 -3.95 -1.5 M-4.8 -1.05 L-4.8 -1.15 -4.75 -1.3 -4.7 -1.6 Q-4.6 -2.1 -4.6 -2.55 L-4.6 -2.65 Q-4.3 -2.45 -4.15 -1.95 L-4.1 -1.7 -4.1 -1.6 -4.05 -1.45 -4.0 -1.4 -4.0 -1.35 -4.1 -1.25 Q-4.2 -1.1 -4.3 -1.05 L-4.4 -1.05 -4.65 -1.0 -4.65 -0.95 Q-4.7 -1.05 -4.8 -1.05 M-5.0 -0.6 L-4.95 -0.65 -4.95 -0.6 -5.0 -0.6 M-5.35 0.0 L-5.4 0.05 -5.4 0.1 -5.5 0.2 -5.4 0.1 -5.35 0.0 M-6.2 0.5 L-6.2 0.5 M-6.0 0.35 L-6.0 0.3 -5.95 0.3 -6.0 0.35 M-5.85 0.45 L-5.9 0.45 -5.85 0.45" fill="#8f8842" fill-rule="evenodd" stroke="none"/>
    <path d="M-7.35 -4.1 L-7.45 -4.2 Q-7.65 -4.4 -8.35 -4.35 L-8.45 -4.25 -8.5 -4.25 Q-8.6 -4.25 -8.6 -4.15 L-8.6 -4.05 Q-8.55 -3.95 -8.4 -3.95 L-8.3 -3.95 -7.95 -3.15 -7.95 -3.05 -7.9 -3.05 -7.9 -3.0 Q-7.7 -2.55 -7.55 -2.15 L-7.55 -2.1 Q-7.3 -1.45 -7.3 -1.25 -7.3 -1.15 -7.35 -1.05 L-7.3 -1.0 -7.35 -0.9 -7.35 -0.8 -7.4 -0.75 -7.4 -0.6 -7.5 -0.75 Q-7.6 -0.8 -7.65 -0.95 L-7.65 -1.05 Q-7.8 -1.2 -8.0 -1.55 L-8.3 -2.45 -8.6 -3.1 -8.6 -3.15 Q-8.7 -3.25 -8.95 -3.85 L-9.0 -3.9 -9.1 -4.3 -9.0 -4.3 -9.05 -4.35 -9.05 -4.5 -9.1 -4.75 -9.05 -4.95 -9.05 -5.15 -8.95 -5.25 -8.9 -5.35 -8.9 -5.4 Q-9.0 -5.45 -9.0 -5.8 L-9.0 -5.85 -8.9 -6.15 -8.8 -6.35 -8.8 -6.55 Q-8.8 -7.05 -8.65 -7.2 L-8.55 -7.35 -8.3 -7.4 -7.7 -7.35 -7.8 -7.35 -7.8 -7.25 -7.55 -7.0 Q-7.3 -6.7 -7.0 -6.7 -7.05 -6.55 -7.05 -6.4 L-7.05 -6.3 Q-7.25 -6.4 -7.4 -6.45 -8.0 -6.75 -8.45 -6.6 L-8.45 -6.55 -8.55 -6.4 -8.55 -6.3 -8.5 -6.25 -8.2 -6.35 -8.2 -6.3 Q-7.65 -6.0 -7.45 -6.0 L-7.35 -6.0 -7.35 -5.9 -7.4 -5.5 -7.4 -5.4 -7.45 -5.45 -7.65 -5.45 -8.0 -5.5 -8.1 -5.55 -8.7 -5.55 Q-8.75 -5.55 -8.75 -5.45 L-8.8 -5.35 -8.7 -5.25 -8.65 -5.25 -8.6 -5.2 -8.45 -5.1 -7.65 -5.1 Q-7.75 -4.9 -7.8 -4.5 L-7.75 -4.45 -7.7 -4.45 -7.6 -4.9 -7.55 -5.05 -7.55 -5.0 -7.45 -4.8 Q-7.35 -4.5 -7.35 -4.4 L-7.35 -4.1 M-6.85 -6.85 L-6.8 -6.95 -6.75 -6.85 -6.8 -6.9 -6.85 -6.85 M-6.5 -6.65 L-6.5 -6.6 -6.5 -6.65 M-6.5 -4.35 L-6.45 -4.35 -6.5 -4.3 -6.5 -4.35 M-7.2 -6.1 L-7.2 -6.25 -7.15 -6.2 -7.2 -6.1 M-7.3 -5.35 L-7.35 -5.35 -7.3 -5.35 M-6.2 -2.2 L-6.2 -2.1 Q-6.05 -1.9 -6.0 -1.75 L-6.0 -1.65 -6.1 -1.9 -6.2 -2.2 M-6.0 -0.95 L-6.0 -0.85 Q-6.0 -0.45 -5.8 -0.3 L-5.85 0.15 -6.15 0.3 -6.25 0.3 -6.2 0.2 -6.2 0.15 -6.15 0.0 -6.0 -0.95 M-5.4 -0.25 L-5.45 -0.15 -5.55 -0.05 -5.75 0.05 -5.7 -0.25 -5.4 -0.25" fill="#865e3a" fill-rule="evenodd" stroke="none"/>
    <path d="M-6.35 -10.75 L-6.75 -10.25 -7.4 -9.25 -7.4 -8.7 -7.45 -8.4 Q-7.5 -8.1 -7.5 -7.8 L-7.55 -7.7 -7.6 -7.7 -7.6 -8.85 -7.95 -8.1 -7.95 -7.7 -8.0 -7.7 -8.05 -7.75 -8.1 -7.75 -8.1 -7.7 -8.2 -7.7 -8.2 -7.65 -8.15 -7.85 -8.1 -8.0 -8.05 -8.05 -7.8 -8.7 -7.3 -9.95 Q-7.25 -10.05 -6.35 -10.75 M-8.5 9.75 L-8.55 9.7 -8.55 9.6 -8.5 9.7 -8.5 9.75 M-8.7 8.05 L-8.75 7.75 -8.75 7.5 -8.75 7.65 -8.7 8.05 M-8.75 6.75 L-8.8 6.5 -8.8 6.15 -8.8 6.05 -8.75 6.75 M-6.9 -0.3 Q-7.1 -0.45 -7.25 -0.75 L-7.25 -0.8 -7.2 -1.5 Q-7.3 -1.95 -7.45 -2.7 -7.65 -3.25 -8.0 -3.65 L-8.2 -3.95 -8.2 -4.05 -7.75 -4.05 -7.75 -3.95 Q-7.75 -4.25 -7.3 -3.1 L-6.95 -2.5 Q-6.4 -1.4 -6.4 -1.2 -6.4 -1.0 -6.5 -0.75 L-6.6 -0.75 -6.6 -0.8 -6.5 -1.2 Q-6.5 -1.35 -6.9 -2.15 L-6.8 -1.8 -6.85 -0.8 -6.65 -0.3 -6.7 -0.25 -6.9 -0.55 -6.9 -0.3 M-7.25 -3.7 L-7.15 -3.65 -7.1 -3.45 -7.1 -3.55 -7.25 -3.7 M-7.15 -3.05 L-7.3 -3.4 -7.3 -3.45 Q-7.15 -3.4 -7.0 -3.2 L-6.8 -2.85 -6.8 -2.8 -6.9 -2.8 Q-7.0 -2.8 -7.15 -3.05 M-7.1 -0.35 L-7.1 -0.35 M-7.35 2.9 L-7.4 2.9 Q-7.5 2.9 -7.6 3.0 -7.5 2.95 -7.45 2.9 L-7.4 2.95 -7.8 3.7 Q-8.0 4.1 -8.25 4.35 L-8.3 4.5 -8.3 4.65 -8.25 4.7 Q-7.8 4.35 -7.55 4.05 -7.35 3.75 -7.35 3.4 -7.35 3.2 -7.45 3.0 -7.4 2.95 -7.35 2.95 -7.3 3.05 -7.25 3.2 L-7.25 3.4 Q-7.25 4.2 -8.15 4.75 L-8.1 4.75 Q-7.95 4.75 -7.85 4.6 L-7.85 4.55 -8.0 5.25 -8.05 5.5 -7.7 4.9 Q-6.95 3.65 -7.0 2.95 L-6.9 2.95 Q-6.9 3.05 -6.9 3.2 -6.9 3.8 -7.6 4.9 -7.95 5.5 -8.1 6.0 L-8.2 6.45 -8.25 6.7 -8.3 6.9 -8.3 6.95 Q-8.25 7.65 -8.25 8.8 -8.2 9.15 -8.1 9.5 -7.95 9.55 -7.7 9.75 L-7.65 9.75 Q-7.4 10.0 -7.4 10.15 L-7.5 10.15 -7.7 9.9 Q-7.85 9.75 -8.1 9.65 -7.85 10.45 -7.3 11.05 L-7.3 11.1 -7.55 10.9 -7.3 11.6 -7.4 11.45 Q-7.55 11.1 -7.7 10.75 -7.85 10.6 -7.95 10.35 L-8.1 10.15 Q-8.3 9.85 -8.35 9.65 L-8.4 9.1 -8.25 9.45 -8.3 9.15 Q-8.4 8.55 -8.45 7.65 L-8.5 7.9 -8.5 8.0 -8.5 7.6 -8.6 5.85 Q-8.6 5.15 -8.45 4.45 L-8.5 4.4 -8.4 4.35 -8.35 3.95 -8.15 3.55 -7.9 2.9 -7.45 2.85 -7.35 2.9 M-7.85 3.6 L-8.0 3.9 -7.85 3.65 -7.85 3.6 M-6.75 13.15 L-6.7 13.1 -6.75 13.2 -6.75 13.15" fill="#9c5929" fill-rule="evenodd" stroke="none"/>
    <path d="M-6.9 0.6 L-7.15 0.35 Q-7.2 0.2 -7.25 -0.05 L-7.2 -0.2 -7.25 -0.3 -7.0 -0.1 -6.95 -0.05 Q-7.0 0.0 -7.0 0.2 -7.0 0.35 -6.95 0.5 L-6.9 0.6 M-7.3 1.6 L-7.35 1.45 -7.4 1.05 Q-7.4 0.75 -7.3 0.65 L-7.3 0.3 -7.2 0.45 -6.95 0.65 Q-7.1 0.75 -7.2 0.95 -7.3 1.2 -7.3 1.4 L-7.3 1.6 M-7.3 2.0 Q-7.5 2.05 -7.65 2.15 L-7.55 1.95 -7.45 1.55 -7.45 1.6 Q-7.45 1.7 -7.35 1.8 L-7.25 1.85 -7.3 1.9 -7.3 2.0 M-7.4 2.8 L-7.45 2.8 -7.85 2.85 -7.9 2.75 -7.7 2.25 -7.6 2.2 Q-7.35 2.1 -6.95 2.05 L-7.0 2.05 Q-7.1 2.2 -7.25 2.45 L-7.4 2.7 -7.4 2.8" fill="#d5b791" fill-rule="evenodd" stroke="none"/>
    <path d="M-3.95 -1.5 L-3.95 -1.6 -3.9 -1.65 Q-3.85 -1.6 -3.75 -1.6 -3.3 -1.6 -2.35 -2.55 L-1.9 -3.0 Q-1.9 -2.5 -2.0 -2.0 L-2.45 -0.65 -2.45 -0.6 -2.55 -0.4 -2.7 -0.2 -2.9 -0.05 -3.7 0.1 -5.55 0.45 -5.75 0.45 -5.75 0.4 Q-5.65 0.35 -5.5 0.2 L-5.4 0.1 -5.4 0.05 -5.35 0.0 -5.2 -0.2 -5.1 -0.3 -5.0 -0.6 -4.95 -0.6 -4.95 -0.65 -4.95 -0.75 -4.9 -0.75 -4.9 -0.8 -4.85 -0.95 -4.8 -1.05 Q-4.7 -1.05 -4.65 -0.95 L-4.65 -1.0 -4.4 -1.05 -4.3 -1.05 Q-4.2 -1.1 -4.1 -1.25 L-4.0 -1.35 -3.95 -1.1 -3.9 -1.1 -3.9 -1.3 -3.95 -1.5 M-1.95 -4.25 L-2.0 -4.3 -2.05 -4.25 -1.95 -4.3 -1.95 -4.25 M-5.85 0.45 L-5.9 0.45 -5.85 0.45" fill="#696027" fill-rule="evenodd" stroke="none"/>
    <path d="M-7.65 -5.45 L-7.45 -5.45 -7.4 -5.4 -7.4 -5.35 -7.45 -5.4 -7.5 -5.4 -7.65 -5.45" fill="#754535" fill-rule="evenodd" stroke="none"/>
    <path d="M-7.35 -4.1 L-7.35 -4.4 Q-7.35 -4.5 -7.45 -4.8 L-7.55 -5.0 -7.55 -5.05 -7.45 -5.25 -7.45 -5.3 -7.25 -5.05 -7.1 -4.9 -7.1 -4.85 -7.05 -4.85 -7.05 -4.8 -6.95 -4.7 -6.9 -4.7 -6.8 -4.4 Q-6.8 -4.35 -6.85 -4.3 L-6.75 -4.25 Q-6.75 -4.15 -6.85 -4.05 L-6.9 -3.95 Q-6.95 -3.85 -7.05 -3.85 L-7.1 -3.85 Q-7.2 -3.85 -7.3 -4.0 L-7.35 -4.1 M-7.65 -5.1 L-8.45 -5.1 -8.6 -5.2 -8.65 -5.25 Q-8.25 -5.4 -8.0 -5.4 -7.7 -5.45 -7.55 -5.35 L-7.5 -5.35 -7.5 -5.3 -7.55 -5.3 -7.55 -5.25 -7.65 -5.1 M-7.35 -6.0 L-7.45 -6.0 Q-7.65 -6.0 -8.2 -6.3 L-8.2 -6.35 -7.6 -6.45 Q-7.45 -6.45 -7.25 -6.3 L-7.25 -6.25 -7.35 -6.05 -7.35 -6.0 M-7.05 -6.3 L-7.05 -6.4 Q-7.05 -6.55 -7.0 -6.7 -7.3 -6.7 -7.55 -7.0 L-7.8 -7.25 -7.8 -7.35 -7.7 -7.35 Q-7.3 -7.25 -7.0 -7.1 L-6.9 -7.0 -7.0 -6.75 -7.0 -6.7 Q-6.95 -6.75 -6.85 -6.85 L-6.8 -6.9 -6.75 -6.85 -6.7 -6.85 -6.6 -6.7 Q-6.5 -6.7 -6.5 -6.65 L-6.5 -6.6 -6.6 -6.35 -6.75 -6.2 -6.8 -6.25 -6.85 -6.15 -7.05 -6.3 M-6.5 -4.35 L-6.6 -4.4 -6.85 -4.9 -6.85 -4.95 -6.7 -5.4 -6.65 -5.6 -6.65 -5.65 -6.45 -6.1 -6.3 -6.55 -6.25 -6.55 -6.2 -6.45 Q-5.95 -6.1 -5.95 -5.95 L-6.0 -5.4 -6.0 -5.1 Q-6.0 -4.9 -6.1 -4.8 L-6.1 -4.75 -6.15 -4.8 Q-6.2 -5.05 -6.25 -5.1 L-6.3 -5.1 -6.25 -4.8 -6.2 -4.65 Q-6.3 -4.5 -6.45 -4.35 L-6.5 -4.35 M-7.2 -6.1 L-7.15 -6.2 -7.1 -6.2 -6.9 -6.0 Q-6.85 -6.0 -6.85 -5.85 L-6.85 -5.8 -7.05 -5.15 -7.25 -5.3 -7.3 -5.35 -7.25 -5.8 -7.2 -6.1 M-7.35 -5.35 L-7.3 -5.35 -7.35 -5.35 M-6.2 -2.2 L-6.25 -2.25 -6.25 -2.3 -6.4 -2.55 -6.9 -3.6 Q-6.7 -3.6 -6.3 -4.0 L-6.25 -4.05 -5.9 -3.95 -5.6 -3.8 -5.5 -3.7 -5.7 -1.6 -5.8 -0.3 Q-6.0 -0.45 -6.0 -0.85 L-6.0 -0.95 -6.0 -1.05 -5.95 -1.35 -5.9 -1.4 -6.0 -1.65 -6.0 -1.75 Q-6.05 -1.9 -6.2 -2.1 L-6.2 -2.2 M-5.7 -0.25 L-5.4 -3.65 -5.15 -3.45 Q-4.9 -3.05 -4.9 -2.55 -4.9 -2.2 -4.95 -1.75 L-5.15 -0.95 -5.4 -0.25 -5.7 -0.25" fill="#693629" fill-rule="evenodd" stroke="none"/>
    <path d="M-8.1 -7.7 L-8.1 -7.75 -8.05 -7.75 -8.0 -7.7 -8.1 -7.7 M-8.5 8.0 L-8.5 7.9 -8.45 7.65 Q-8.4 8.55 -8.3 9.15 L-8.25 9.45 -8.4 9.1 -8.5 8.0 M-7.85 3.6 L-7.85 3.65 -8.0 3.9 -7.85 3.6" fill="#754128" fill-rule="evenodd" stroke="none"/>
    <path d="M-6.35 -10.75 L-5.95 -11.0 Q-4.75 -11.85 -4.75 -12.3 L-4.75 -12.4 -4.75 -12.35 Q-4.65 -12.15 -4.65 -12.05 -4.65 -11.85 -4.75 -11.7 L-5.9 -10.65 -6.1 -10.5 Q-7.2 -9.6 -7.45 -8.4 L-7.4 -8.7 -7.4 -9.25 -6.75 -10.25 -6.35 -10.75 M-7.95 -7.7 L-7.95 -8.1 -7.6 -8.85 -7.6 -7.7 -7.55 -7.7 -7.5 -7.8 -7.5 -7.7 -7.95 -7.7 M-6.9 -0.3 L-6.9 -0.55 -6.7 -0.25 -6.65 -0.3 -6.85 -0.8 -6.8 -1.8 -6.9 -2.15 Q-6.5 -1.35 -6.5 -1.2 L-6.6 -0.8 -6.6 -0.75 -6.5 -0.75 Q-6.4 -1.0 -6.4 -1.2 -6.4 -1.4 -6.95 -2.5 L-7.3 -3.1 Q-7.75 -4.25 -7.75 -3.95 L-7.75 -4.05 -7.65 -4.05 -7.5 -3.9 -7.25 -3.7 -7.1 -3.55 -7.1 -3.45 -6.95 -3.15 -6.75 -2.8 -6.7 -2.75 -6.7 -2.7 -6.55 -2.45 -6.6 -2.45 Q-6.3 -1.95 -6.15 -1.65 L-6.1 -1.5 Q-6.05 -1.4 -6.05 -1.3 L-6.05 -1.25 -6.1 -1.2 -6.1 -1.1 Q-6.1 -0.9 -6.2 -0.55 L-6.35 -0.15 Q-6.65 -0.15 -6.9 -0.3 M-7.15 -3.05 Q-7.0 -2.8 -6.9 -2.8 L-6.8 -2.8 -6.8 -2.85 -7.0 -3.2 Q-7.15 -3.4 -7.3 -3.45 L-7.3 -3.4 -7.15 -3.05 M-7.65 9.75 L-7.7 9.75 Q-7.95 9.55 -8.1 9.5 -8.2 9.15 -8.25 8.8 -8.25 7.65 -8.3 6.95 L-8.3 6.9 -8.25 6.7 -8.2 6.45 -8.1 6.0 Q-7.95 5.5 -7.6 4.9 -6.9 3.8 -6.9 3.2 -6.9 3.05 -6.9 2.95 L-7.0 2.95 Q-6.95 3.65 -7.7 4.9 L-8.05 5.5 -8.0 5.25 -7.85 4.55 -7.85 4.6 Q-7.95 4.75 -8.1 4.75 L-8.15 4.75 Q-7.25 4.2 -7.25 3.4 L-7.25 3.2 Q-7.3 3.05 -7.35 2.95 -7.4 2.95 -7.45 3.0 -7.35 3.2 -7.35 3.4 -7.35 3.75 -7.55 4.05 -7.8 4.35 -8.25 4.7 L-8.3 4.65 -8.3 4.5 -8.25 4.35 Q-8.0 4.1 -7.8 3.7 L-7.4 2.95 -7.45 2.9 Q-7.5 2.95 -7.6 3.0 -7.5 2.9 -7.4 2.9 L-7.35 2.9 -7.2 2.9 -6.8 3.0 Q-6.75 3.0 -6.7 2.95 L-6.7 3.0 -6.6 3.1 -6.95 4.0 -7.0 4.25 -7.2 4.75 -7.2 4.8 -7.4 5.25 -7.65 5.9 -7.7 6.0 -8.0 6.7 -8.0 6.75 -8.05 6.75 Q-8.1 7.05 -8.1 7.8 L-8.1 8.35 Q-8.1 8.65 -7.95 9.1 L-7.65 9.75 M-7.3 11.6 L-7.55 10.9 -7.3 11.1 -7.3 11.05 Q-7.85 10.45 -8.1 9.65 -7.85 9.75 -7.7 9.9 L-7.5 10.15 -7.4 10.25 -7.35 10.35 -7.3 10.5 -7.15 10.75 -7.05 11.05 -7.0 11.1 -6.95 11.25 Q-6.75 11.85 -6.75 12.3 L-6.75 12.8 -6.7 13.1 -6.75 13.15 Q-6.9 12.8 -7.0 12.35 -7.15 11.9 -7.3 11.6" fill="#692e1f" fill-rule="evenodd" stroke="none"/>
    <path d="M-6.9 0.6 L-6.95 0.5 Q-7.0 0.35 -7.0 0.2 -7.0 0.0 -6.95 -0.05 L-6.9 -0.05 Q-6.65 0.1 -6.55 0.1 L-6.45 0.1 -6.45 0.3 -6.55 0.6 -6.6 0.8 -6.85 0.65 -6.9 0.6 M-7.3 1.6 L-7.3 1.4 Q-7.3 1.2 -7.2 0.95 -7.1 0.75 -6.95 0.65 L-6.6 0.85 -6.7 1.55 -6.75 1.85 -6.85 1.85 Q-6.95 1.85 -7.0 1.8 -7.2 1.75 -7.3 1.6 M-7.3 2.0 L-7.3 1.9 -7.25 1.85 -7.05 1.95 -7.3 2.0 M-7.4 2.8 L-7.4 2.7 -7.25 2.45 Q-7.1 2.2 -7.0 2.05 L-6.95 2.05 -6.85 2.05 -6.8 2.1 -6.7 2.1 -6.75 2.5 -6.75 2.85 -7.4 2.8" fill="#b07248" fill-rule="evenodd" stroke="none"/>
    <path d="M-4.75 -12.4 L-4.75 -12.3 Q-4.75 -11.85 -5.95 -11.0 L-6.35 -10.75 Q-7.25 -10.05 -7.3 -9.95 L-7.8 -8.7 -8.05 -8.05 -8.1 -8.0 -8.15 -7.85 -8.2 -7.65 -8.2 -7.7 -8.1 -7.7 -8.0 -7.7 -7.95 -7.7 -7.5 -7.7 -7.5 -7.8 Q-7.5 -8.1 -7.45 -8.4 -7.2 -9.6 -6.1 -10.5 L-5.9 -10.65 -4.75 -11.7 Q-4.65 -11.85 -4.65 -12.05 -4.65 -12.15 -4.75 -12.35 L-4.75 -12.4 M-8.8 6.15 L-8.85 5.15 -8.85 4.95 -8.8 4.4 -8.3 3.25 -7.9 2.3 -7.7 1.95 -7.75 1.9 -7.65 1.4 -7.65 1.35 -7.6 1.3 -7.5 0.55 -7.5 0.2 Q-7.6 0.15 -7.75 -0.2 L-7.8 -0.35 Q-8.05 -0.85 -8.5 -1.95 L-8.95 -3.05 Q-9.05 -3.2 -9.2 -3.8 L-9.3 -4.0 -9.25 -4.05 -9.35 -4.6 -9.35 -4.95 -9.25 -5.35 -9.3 -5.7 Q-9.3 -5.9 -9.2 -6.15 -9.1 -6.4 -9.1 -6.85 -9.1 -7.2 -8.8 -7.5 -8.65 -7.65 -8.6 -7.6 L-8.45 -7.65 -8.0 -8.75 Q-7.5 -9.9 -7.45 -10.1 -7.4 -10.35 -6.7 -10.7 -5.9 -11.15 -5.8 -11.25 -5.55 -11.5 -5.25 -11.9 -5.15 -12.1 -4.85 -12.65 L-4.65 -12.9 -4.45 -12.15 -4.35 -11.8 -4.7 -11.5 Q-4.65 -11.35 -4.65 -11.15 -4.65 -10.9 -5.15 -6.2 L-5.35 -4.0 -5.25 -3.95 -5.05 -3.75 -4.85 -3.6 -4.7 -3.4 Q-4.4 -3.75 -3.7 -4.35 L-3.1 -4.8 -2.75 -5.05 -2.3 -5.25 -2.05 -4.95 -1.8 -4.55 -1.7 -4.3 Q-1.6 -3.8 -1.6 -3.15 L-1.6 -3.0 Q-1.6 -2.3 -1.9 -1.35 -2.15 -0.65 -2.45 -0.15 L-2.4 -0.15 -2.45 -0.1 -2.65 0.15 -2.7 0.2 -3.35 0.4 -3.85 0.5 -3.95 0.55 -4.5 0.65 -5.5 0.75 -5.8 0.75 -6.2 6.3 Q-6.45 9.65 -6.45 12.1 L-6.5 12.15 -6.55 12.05 -6.5 12.7 -6.55 13.5 -6.45 13.6 -6.5 13.65 -6.6 13.7 -6.6 13.75 -6.65 13.7 -6.7 13.7 Q-6.95 13.65 -7.05 13.25 L-7.1 12.85 -7.15 12.55 -7.2 12.5 -7.45 11.8 -7.55 11.55 -7.7 11.25 -8.0 10.7 Q-8.4 10.1 -8.5 9.75 L-8.5 9.7 -8.55 9.6 -8.65 8.7 -8.7 8.05 -8.75 7.65 -8.75 7.5 Q-8.75 7.05 -8.75 6.85 L-8.75 6.75 -8.8 6.05 -8.8 6.15 M-5.75 -10.6 Q-6.9 -9.6 -7.15 -8.55 -7.25 -8.15 -7.2 -7.7 L-6.85 -7.6 -6.7 -7.4 -6.65 -7.3 Q-6.45 -6.95 -6.4 -6.95 L-5.85 -6.4 -5.75 -6.2 -5.7 -6.0 -5.7 -5.95 -5.75 -5.4 Q-5.8 -4.9 -5.8 -4.75 L-5.8 -4.7 -5.85 -4.45 -5.85 -4.4 -5.75 -4.3 -5.45 -4.1 -4.75 -11.4 -5.75 -10.6 M-7.7 -7.35 L-8.3 -7.4 -8.55 -7.35 -8.65 -7.2 Q-8.8 -7.05 -8.8 -6.55 L-8.8 -6.35 -8.9 -6.15 -9.0 -5.85 -9.0 -5.8 Q-9.0 -5.45 -8.9 -5.4 L-8.9 -5.35 -8.95 -5.25 -9.05 -5.15 -9.05 -4.95 -9.1 -4.75 -9.05 -4.5 -9.05 -4.35 -9.0 -4.3 -9.1 -4.3 -9.0 -3.9 -8.95 -3.85 Q-8.7 -3.25 -8.6 -3.15 L-8.6 -3.1 -8.3 -2.45 -8.0 -1.55 Q-7.8 -1.2 -7.65 -1.05 L-7.65 -0.95 Q-7.6 -0.8 -7.5 -0.75 L-7.4 -0.6 -7.4 -0.75 -7.35 -0.8 -7.35 -0.9 -7.3 -1.0 -7.35 -1.05 Q-7.3 -1.15 -7.3 -1.25 -7.3 -1.45 -7.55 -2.1 L-7.55 -2.15 Q-7.7 -2.55 -7.9 -3.0 L-7.9 -3.05 -7.95 -3.05 -7.95 -3.15 -8.3 -3.95 -8.4 -3.95 Q-8.55 -3.95 -8.6 -4.05 L-8.6 -4.15 Q-8.6 -4.25 -8.5 -4.25 L-8.45 -4.25 -8.35 -4.35 Q-7.65 -4.4 -7.45 -4.2 L-7.35 -4.1 -7.3 -4.0 Q-7.2 -3.85 -7.1 -3.85 L-7.05 -3.85 Q-6.95 -3.85 -6.9 -3.95 L-6.85 -4.05 Q-6.75 -4.15 -6.75 -4.25 L-6.85 -4.3 Q-6.8 -4.35 -6.8 -4.4 L-6.9 -4.7 -6.95 -4.7 -7.05 -4.8 -7.05 -4.85 -7.1 -4.85 -7.1 -4.9 -7.25 -5.05 -7.45 -5.3 -7.45 -5.25 -7.55 -5.05 -7.6 -4.9 -7.7 -4.45 -7.75 -4.45 -7.8 -4.5 Q-7.75 -4.9 -7.65 -5.1 L-7.55 -5.25 -7.55 -5.3 -7.5 -5.3 -7.5 -5.35 -7.55 -5.35 Q-7.7 -5.45 -8.0 -5.4 -8.25 -5.4 -8.65 -5.25 L-8.7 -5.25 -8.8 -5.35 -8.75 -5.45 Q-8.75 -5.55 -8.7 -5.55 L-8.1 -5.55 -8.0 -5.5 -7.65 -5.45 -7.5 -5.4 -7.45 -5.4 -7.4 -5.35 -7.4 -5.4 -7.4 -5.5 -7.35 -5.9 -7.35 -6.0 -7.35 -6.05 -7.25 -6.25 -7.25 -6.3 Q-7.45 -6.45 -7.6 -6.45 L-8.2 -6.35 -8.5 -6.25 -8.55 -6.3 -8.55 -6.4 -8.45 -6.55 -8.45 -6.6 Q-8.0 -6.75 -7.4 -6.45 -7.25 -6.4 -7.05 -6.3 L-6.85 -6.15 -6.8 -6.25 -6.75 -6.2 -6.6 -6.35 -6.5 -6.6 -6.5 -6.65 Q-6.5 -6.7 -6.6 -6.7 L-6.7 -6.85 -6.75 -6.85 -6.8 -6.95 -6.85 -6.85 Q-6.95 -6.75 -7.0 -6.7 L-7.0 -6.75 -6.9 -7.0 -7.0 -7.1 Q-7.3 -7.25 -7.7 -7.35 M-6.45 -4.35 Q-6.3 -4.5 -6.2 -4.65 L-6.25 -4.8 -6.3 -5.1 -6.25 -5.1 Q-6.2 -5.05 -6.15 -4.8 L-6.1 -4.75 -6.1 -4.8 Q-6.0 -4.9 -6.0 -5.1 L-6.0 -5.4 -5.95 -5.95 Q-5.95 -6.1 -6.2 -6.45 L-6.25 -6.55 -6.3 -6.55 -6.45 -6.1 -6.65 -5.65 -6.65 -5.6 -6.7 -5.4 -6.85 -4.95 -6.85 -4.9 -6.6 -4.4 -6.5 -4.35 -6.5 -4.3 -6.45 -4.35 M-7.15 -6.2 L-7.2 -6.25 -7.2 -6.1 -7.25 -5.8 -7.3 -5.35 -7.35 -5.35 -7.3 -5.35 -7.25 -5.3 -7.05 -5.15 -6.85 -5.8 -6.85 -5.85 Q-6.85 -6.0 -6.9 -6.0 L-7.1 -6.2 -7.15 -6.2 M-7.75 -4.05 L-8.2 -4.05 -8.2 -3.95 -8.0 -3.65 Q-7.65 -3.25 -7.45 -2.7 -7.3 -1.95 -7.2 -1.5 L-7.25 -0.8 -7.25 -0.75 Q-7.1 -0.45 -6.9 -0.3 -6.65 -0.15 -6.35 -0.15 L-6.2 -0.55 Q-6.1 -0.9 -6.1 -1.1 L-6.1 -1.2 -6.05 -1.25 -6.05 -1.3 Q-6.05 -1.4 -6.1 -1.5 L-6.15 -1.65 Q-6.3 -1.95 -6.6 -2.45 L-6.55 -2.45 -6.7 -2.7 -6.7 -2.75 -6.75 -2.8 -6.95 -3.15 -7.1 -3.45 -7.15 -3.65 -7.25 -3.7 -7.5 -3.9 -7.65 -4.05 -7.75 -4.05 M-6.9 -3.6 L-6.4 -2.55 -6.25 -2.3 -6.25 -2.25 -6.2 -2.2 -6.1 -1.9 -6.0 -1.65 -5.9 -1.4 -5.95 -1.35 -6.0 -1.05 -6.0 -0.95 -6.15 0.0 -6.2 0.15 -6.2 0.2 -6.25 0.3 -6.15 0.3 -5.85 0.15 -5.8 -0.3 -5.7 -1.6 -5.5 -3.7 -5.6 -3.8 -5.9 -3.95 -6.25 -4.05 -6.3 -4.0 Q-6.7 -3.6 -6.9 -3.6 M-6.95 -0.05 L-7.0 -0.1 -7.25 -0.3 -7.2 -0.2 -7.25 -0.05 Q-7.2 0.2 -7.15 0.35 L-6.9 0.6 -6.85 0.65 -6.6 0.8 -6.55 0.6 -6.45 0.3 -6.45 0.1 -6.55 0.1 Q-6.65 0.1 -6.9 -0.05 L-6.95 -0.05 M-7.1 -0.35 L-7.1 -0.35 M-1.95 -4.3 L-2.05 -4.5 -2.25 -5.05 -2.6 -4.9 -3.0 -4.65 -3.45 -4.35 -3.95 -3.95 -3.95 -3.9 -4.0 -3.9 -4.0 -3.85 -4.25 -3.6 -4.6 -3.2 -4.55 -3.1 -4.6 -3.0 -4.6 -2.95 Q-4.3 -2.8 -4.05 -2.3 L-4.05 -2.2 -3.95 -1.5 -3.9 -1.3 -3.9 -1.1 -3.95 -1.1 -4.0 -1.35 -4.0 -1.4 -4.05 -1.45 -4.1 -1.6 -4.1 -1.7 -4.15 -1.95 Q-4.3 -2.45 -4.6 -2.65 L-4.6 -2.55 Q-4.6 -2.1 -4.7 -1.6 L-4.75 -1.3 -4.8 -1.15 -4.8 -1.05 -4.85 -0.95 -4.9 -0.8 -4.9 -0.75 -4.95 -0.75 -4.95 -0.65 -5.0 -0.6 -5.1 -0.3 -5.2 -0.2 -5.35 0.0 -5.4 0.1 -5.5 0.2 Q-5.65 0.35 -5.75 0.4 L-5.75 0.45 -5.55 0.45 -3.7 0.1 -2.9 -0.05 -2.7 -0.2 -2.55 -0.4 -2.45 -0.6 -2.45 -0.65 -2.0 -2.0 Q-1.9 -2.5 -1.9 -3.0 L-1.85 -3.3 -1.85 -3.7 -1.9 -4.0 -1.95 -4.2 -1.95 -4.25 -1.95 -4.3 M-5.4 -0.25 L-5.15 -0.95 -4.95 -1.75 Q-4.9 -2.2 -4.9 -2.55 -4.9 -3.05 -5.15 -3.45 L-5.4 -3.65 -5.7 -0.25 -5.75 0.05 -5.55 -0.05 -5.45 -0.15 -5.4 -0.25 M-6.0 0.35 L-5.95 0.3 -6.0 0.3 -6.0 0.35 M-6.2 0.5 L-6.2 0.5 M-6.35 0.75 Q-6.4 0.9 -6.45 1.1 L-6.45 1.25 -6.5 2.05 -6.5 2.2 -6.45 2.35 -6.45 2.6 -6.5 2.7 -6.5 2.75 Q-6.4 2.8 -6.4 2.9 -6.4 3.55 -7.15 5.2 -7.95 6.9 -7.95 7.8 -7.95 8.25 -7.85 8.55 L-7.85 8.7 -7.8 8.8 Q-7.75 9.2 -7.6 9.35 L-7.1 10.4 Q-6.75 11.2 -6.55 11.75 L-6.55 11.4 Q-6.55 8.75 -5.9 0.75 L-6.25 0.7 -6.3 0.7 -6.35 0.75 M-5.9 0.45 L-5.85 0.45 -5.9 0.45 M-6.95 0.65 L-7.2 0.45 -7.3 0.3 -7.3 0.65 Q-7.4 0.75 -7.4 1.05 L-7.35 1.45 -7.3 1.6 Q-7.2 1.75 -7.0 1.8 -6.95 1.85 -6.85 1.85 L-6.75 1.85 -6.7 1.55 -6.6 0.85 -6.95 0.65 M-7.25 1.85 L-7.35 1.8 Q-7.45 1.7 -7.45 1.6 L-7.45 1.55 -7.55 1.95 -7.65 2.15 Q-7.5 2.05 -7.3 2.0 L-7.05 1.95 -7.25 1.85 M-6.95 2.05 Q-7.35 2.1 -7.6 2.2 L-7.7 2.25 -7.9 2.75 -7.85 2.85 -7.45 2.8 -7.4 2.8 -6.75 2.85 -6.75 2.5 -6.7 2.1 -6.8 2.1 -6.85 2.05 -6.95 2.05 M-7.65 9.75 L-7.95 9.1 Q-8.1 8.65 -8.1 8.35 L-8.1 7.8 Q-8.1 7.05 -8.05 6.75 L-8.0 6.75 -8.0 6.7 -7.7 6.0 -7.65 5.9 -7.4 5.25 -7.2 4.8 -7.2 4.75 -7.0 4.25 -6.95 4.0 -6.6 3.1 -6.7 3.0 -6.7 2.95 Q-6.75 3.0 -6.8 3.0 L-7.2 2.9 -7.35 2.9 -7.45 2.85 -7.9 2.9 -8.15 3.55 -8.35 3.95 -8.4 4.35 -8.5 4.4 -8.45 4.45 Q-8.6 5.15 -8.6 5.85 L-8.5 7.6 -8.5 8.0 -8.4 9.1 -8.35 9.65 Q-8.3 9.85 -8.1 10.15 L-7.95 10.35 Q-7.85 10.6 -7.7 10.75 -7.55 11.1 -7.4 11.45 L-7.3 11.6 Q-7.15 11.9 -7.0 12.35 -6.9 12.8 -6.75 13.15 L-6.75 13.2 -6.7 13.1 -6.75 12.8 -6.75 12.3 Q-6.75 11.85 -6.95 11.25 L-7.0 11.1 -7.05 11.05 -7.15 10.75 -7.3 10.5 -7.35 10.35 -7.4 10.25 -7.5 10.15 -7.4 10.15 Q-7.4 10.0 -7.65 9.75" fill="#101010" fill-rule="evenodd" stroke="none"/>
  </g>
</svg>
