<?xml version="1.0" encoding="UTF-8" standalone="no"?>
<svg xmlns:ffdec="https://www.free-decompiler.com/flash" xmlns:xlink="http://www.w3.org/1999/xlink" ffdec:objectType="shape" height="21.05px" width="9.15px" xmlns="http://www.w3.org/2000/svg">
  <g transform="matrix(1.0, 0.0, 0.0, 1.0, 3.95, 10.75)">
    <path d="M3.3 -10.5 L3.1 -10.5 3.0 -10.55 2.6 -10.6 2.5 -10.6 Q2.15 -10.6 1.75 -10.45 L1.7 -10.45 Q1.4 -10.3 1.05 -10.1 L0.6 -9.85 0.55 -9.8 0.3 -9.65 0.25 -9.6 -0.15 -9.3 -0.45 -9.1 Q-1.75 -8.0 -2.25 -7.3 -3.3 -5.95 -3.7 -3.95 -3.15 -3.15 -2.45 -1.85 L-2.4 -1.85 Q-2.35 -2.2 -1.9 -2.75 -1.45 -3.3 -0.95 -3.7 L-0.9 -3.7 -0.9 -3.6 Q-0.9 -3.55 -1.45 -2.9 L-1.65 -2.65 -1.65 -2.6 Q-1.55 -2.5 -1.45 -2.2 -1.35 -1.85 -1.25 -1.4 -1.1 -0.35 -1.1 0.45 L-1.1 0.85 Q-1.1 2.9 -1.4 5.85 -1.75 8.55 -2.15 9.7 L-1.65 9.75 0.25 9.95 1.3 9.95 Q2.6 9.8 3.75 9.15 4.3 8.85 4.9 8.45 L5.05 8.35 5.05 8.6 4.65 9.0 Q4.3 9.3 3.7 9.55 3.0 9.9 2.1 10.1 L1.65 10.15 -0.15 10.3 Q-1.2 10.3 -1.8 10.15 -1.85 10.2 -1.95 10.2 -2.15 10.2 -2.9 9.4 -3.55 8.65 -3.55 8.55 -3.55 6.0 -2.55 2.9 -2.0 1.2 -1.9 0.7 -1.6 -0.5 -1.6 -1.5 L-1.75 -2.35 -1.8 -2.45 -2.4 -1.7 -2.45 -1.75 -2.5 -1.75 Q-2.65 -1.75 -3.15 -2.6 L-3.25 -2.75 Q-3.95 -3.75 -3.95 -3.95 L-3.95 -4.25 -3.9 -4.4 Q-3.75 -5.5 -2.7 -7.05 -1.75 -8.5 -0.7 -9.2 0.0 -9.8 0.85 -10.25 2.6 -11.15 3.3 -10.55 L3.3 -10.5 M3.1 -10.4 L3.1 -10.4 M-2.0 -9.05 L-2.25 -8.7 -2.1 -8.9 -2.05 -9.0 -2.0 -9.05 M-1.4 -0.2 L-1.4 -0.5 -1.45 -0.25 Q-1.55 0.2 -1.7 0.8 L-1.7 0.9 -1.8 1.15 -1.8 1.2 -2.35 2.95 Q-3.35 6.1 -3.35 8.4 L-2.75 9.15 -2.7 9.15 -2.4 9.5 Q-2.15 8.2 -1.85 6.55 -1.65 5.15 -1.5 3.95 L-1.45 3.15 Q-1.3 1.8 -1.3 0.85 -1.3 0.3 -1.4 -0.2" fill="#000000" fill-rule="evenodd" stroke="none"/>
    <path d="M-1.45 -0.25 L-1.4 -0.5 -1.4 -0.2 -1.45 -0.25 M-2.75 9.15 L-3.35 8.4 Q-3.35 6.1 -2.35 2.95 L-1.8 1.2 Q-1.75 2.45 -1.95 3.8 L-2.75 9.15" fill="#d6694e" fill-rule="evenodd" stroke="none"/>
    <path d="M-1.45 -0.25 L-1.4 -0.2 Q-1.3 0.3 -1.3 0.85 -1.3 1.8 -1.45 3.15 L-1.5 3.95 Q-1.65 5.15 -1.85 6.55 -2.15 8.2 -2.4 9.5 L-2.7 9.15 -2.75 9.15 -1.95 3.8 Q-1.75 2.45 -1.8 1.2 L-1.8 1.15 -1.7 0.9 -1.7 0.8 Q-1.55 0.2 -1.45 -0.25" fill="#ad4634" fill-rule="evenodd" stroke="none"/>
    <path d="M5.05 8.6 L5.05 8.35 4.9 8.45 Q4.3 8.85 3.75 9.15 2.6 9.8 1.3 9.95 L0.25 9.95 -1.65 9.75 -2.15 9.7 Q-1.75 8.55 -1.4 5.85 -1.1 2.9 -1.1 0.85 L-1.1 0.45 Q-1.1 -0.35 -1.25 -1.4 -1.35 -1.85 -1.45 -2.2 -1.55 -2.5 -1.65 -2.6 L-1.65 -2.65 -1.45 -2.9 Q-0.9 -3.55 -0.9 -3.6 L-0.9 -3.7 -0.95 -3.7 Q-1.45 -3.3 -1.9 -2.75 -2.35 -2.2 -2.4 -1.85 L-2.45 -1.85 Q-3.15 -3.15 -3.7 -3.95 -3.3 -5.95 -2.25 -7.3 -1.75 -8.0 -0.45 -9.1 L-0.15 -9.3 0.25 -9.6 0.3 -9.65 0.55 -9.8 0.6 -9.85 1.05 -10.1 Q1.4 -10.3 1.7 -10.45 L1.75 -10.45 Q2.15 -10.6 2.5 -10.6 L2.6 -10.6 3.0 -10.55 3.1 -10.5 3.3 -10.5 Q3.7 -10.1 3.85 -9.35 L3.9 -9.1 Q3.95 -7.85 4.05 -7.3 4.25 -6.45 4.25 -3.8 L4.15 0.75 4.75 5.0 Q5.2 8.1 5.2 8.35 L5.15 8.5 5.05 8.6 M3.1 -10.4 L3.1 -10.4" fill="#983e2e" fill-rule="evenodd" stroke="none"/>
  </g>
</svg>
