<?xml version="1.0" encoding="UTF-8" standalone="no"?>
<svg xmlns:ffdec="https://www.free-decompiler.com/flash" xmlns:xlink="http://www.w3.org/1999/xlink" ffdec:objectType="shape" height="12.5px" width="20.1px" xmlns="http://www.w3.org/2000/svg">
  <g transform="matrix(1.0, 0.0, 0.0, 1.0, 8.1, 8.85)">
    <path d="M4.45 -7.7 L4.75 -7.75 5.15 -7.8 Q5.85 -7.6 6.2 -7.6 6.9 -7.6 7.35 -7.75 L7.5 -7.8 7.95 -7.85 9.15 -7.95 Q9.7 -7.95 10.0 -7.55 10.7 -7.2 11.25 -6.25 11.9 -5.05 11.95 -4.0 L12.0 -3.85 12.0 -3.75 Q12.0 -3.1 11.95 -2.85 11.75 -2.1 11.45 -1.25 10.6 0.05 8.85 0.0 L7.15 0.0 Q6.85 0.05 6.4 -0.25 4.85 -0.4 3.95 -2.65 3.65 -3.45 3.45 -4.4 3.35 -5.05 3.35 -5.3 3.35 -5.9 3.45 -6.6 3.55 -7.0 3.65 -7.3 L3.9 -7.45 3.8 -7.15 3.45 -5.8 Q3.45 -5.05 3.55 -4.35 L3.6 -4.2 3.6 -4.15 3.65 -3.95 3.75 -3.65 Q3.85 -3.2 4.05 -2.8 4.7 -1.25 5.95 -0.7 L6.0 -0.75 6.2 -0.75 7.2 -0.45 7.6 -0.45 8.05 -0.4 9.2 -0.4 Q10.55 -0.35 11.2 -1.5 11.65 -2.25 11.65 -3.0 L11.65 -3.1 11.7 -3.7 11.35 -4.05 11.25 -3.9 11.15 -3.7 Q11.05 -3.8 11.05 -3.9 L11.1 -4.1 11.15 -4.2 11.15 -4.25 11.1 -4.3 10.9 -4.4 11.15 -4.35 11.1 -4.5 11.0 -4.75 11.05 -4.8 Q11.25 -4.6 11.3 -4.45 L11.35 -4.25 11.4 -4.2 11.45 -4.2 11.65 -4.05 11.6 -4.15 11.6 -4.2 Q11.5 -5.0 11.15 -5.8 L11.15 -5.85 Q11.0 -6.25 10.7 -6.6 L10.35 -7.0 Q9.9 -7.3 9.55 -7.5 L9.5 -7.55 9.0 -7.65 8.95 -7.7 7.85 -7.6 7.35 -7.5 7.2 -7.45 Q6.85 -7.3 6.4 -7.3 5.75 -7.3 5.15 -7.4 4.6 -7.55 4.45 -7.7 M4.1 -4.45 Q4.1 -4.6 4.1 -4.55 L4.5 -4.55 7.35 -4.05 Q7.4 -4.2 7.45 -4.25 7.5 -4.2 7.55 -4.1 L7.6 -4.0 7.85 -3.95 8.4 -4.1 Q8.35 -4.3 8.35 -4.4 8.5 -4.45 8.7 -4.2 L8.8 -4.25 8.85 -4.25 8.85 -4.35 8.85 -4.45 9.0 -4.45 Q9.05 -4.45 9.15 -4.35 L10.05 -4.65 10.15 -4.6 10.1 -4.85 Q10.3 -4.9 10.4 -4.7 L10.4 -4.6 10.45 -4.45 10.45 -4.4 10.4 -4.3 10.3 -4.2 10.25 -4.25 Q10.2 -4.35 10.15 -4.5 L10.15 -4.55 9.6 -4.45 9.15 -4.3 9.2 -4.25 9.25 -4.1 Q9.25 -3.95 9.1 -3.95 8.95 -3.95 8.9 -4.15 L8.85 -4.2 8.8 -4.15 8.75 -4.15 Q8.85 -4.0 8.85 -3.85 L8.85 -3.8 8.85 -3.75 8.8 -3.75 8.75 -3.7 8.7 -3.7 Q8.55 -3.75 8.45 -4.0 8.05 -3.8 8.0 -3.8 L7.6 -3.85 7.5 -3.7 7.45 -3.65 7.35 -3.7 7.3 -3.8 7.35 -3.95 7.25 -3.95 6.6 -4.15 5.25 -4.4 4.4 -4.45 4.15 -4.4 4.1 -4.4 4.1 -4.45 M-1.35 -2.0 Q-1.25 -1.75 -1.15 -1.35 -1.05 -0.85 -1.05 -0.45 -1.05 1.35 -2.7 2.8 L-3.35 3.3 Q-4.2 3.6 -5.05 3.65 L-5.15 3.65 -6.3 3.55 -6.2 2.4 Q-6.95 2.15 -7.5 1.2 -8.05 0.2 -8.0 -0.4 L-8.05 -0.95 Q-8.15 -1.4 -8.1 -1.6 -8.1 -1.85 -7.8 -3.1 -7.75 -3.35 -7.85 -3.7 L-7.9 -3.95 Q-8.0 -4.05 -8.0 -4.15 -7.95 -4.3 -7.15 -4.45 L-7.05 -4.6 -6.9 -4.85 -6.85 -5.05 Q-6.7 -5.15 -6.55 -5.55 -6.4 -5.9 -6.4 -6.15 L-6.35 -6.1 -5.95 -6.2 -5.95 -6.25 Q-6.0 -6.35 -6.0 -6.5 -6.0 -6.9 -5.55 -6.85 L-5.5 -6.85 -5.45 -6.95 -5.5 -7.05 -5.55 -7.2 Q-5.7 -7.55 -5.85 -7.65 -6.05 -7.75 -6.25 -7.75 L-6.5 -7.7 -6.65 -7.65 Q-7.15 -7.35 -7.65 -6.85 L-7.85 -6.65 -7.9 -7.05 -7.8 -7.45 Q-7.75 -8.0 -7.3 -8.4 -6.9 -8.8 -6.25 -8.8 L-6.2 -8.8 -6.0 -8.85 Q-5.65 -8.85 -5.15 -8.6 L-4.9 -8.25 -4.8 -8.15 -4.55 -7.75 -4.45 -7.5 -4.3 -6.9 -4.0 -6.9 -3.9 -6.8 -3.7 -6.9 Q-3.45 -6.95 -3.4 -6.8 -3.3 -6.85 -3.15 -6.85 -2.9 -6.9 -2.8 -6.8 -2.7 -6.9 -2.55 -6.9 -2.3 -6.9 -2.2 -6.8 L-1.95 -6.85 -1.65 -6.85 Q-1.55 -6.95 -1.4 -6.9 -1.2 -6.9 -1.1 -6.8 L-0.9 -6.9 Q-0.5 -7.1 -0.5 -6.7 -0.5 -6.6 -0.65 -6.4 -0.8 -6.2 -1.05 -6.15 -1.2 -6.15 -1.3 -6.2 L-1.35 -6.2 Q-1.55 -6.15 -1.65 -6.35 -1.8 -6.2 -2.0 -6.2 L-2.25 -6.2 Q-2.35 -6.15 -2.55 -6.1 -2.9 -6.05 -2.95 -6.35 -3.1 -6.25 -3.25 -6.25 -3.45 -6.2 -3.55 -6.35 -3.6 -6.3 -3.65 -6.3 -3.9 -6.25 -4.0 -6.3 -4.1 -6.2 -4.2 -6.15 -4.15 -6.1 -4.15 -6.05 L-4.0 -6.1 Q-3.6 -6.35 -3.5 -5.95 L-3.4 -6.0 Q-2.95 -6.2 -2.9 -5.75 L-2.7 -5.75 Q-2.4 -5.7 -2.25 -5.6 L-2.0 -5.65 Q-1.75 -5.7 -1.6 -5.6 L-1.4 -5.7 Q-1.05 -5.85 -0.95 -5.55 L-0.9 -5.6 Q-0.35 -5.8 -0.35 -5.4 -0.35 -5.3 -0.5 -5.1 -0.7 -4.9 -1.0 -4.85 -1.25 -4.8 -1.35 -4.9 L-1.5 -4.85 Q-1.75 -4.8 -1.85 -4.95 L-1.85 -5.0 -2.1 -4.95 Q-2.35 -4.95 -2.45 -5.05 -2.55 -5.0 -2.75 -5.0 -3.05 -4.95 -3.15 -5.15 L-3.4 -5.1 Q-3.7 -5.05 -3.8 -5.2 -3.9 -5.25 -3.9 -5.35 L-4.0 -5.3 -4.1 -5.3 Q-4.4 -5.3 -4.5 -5.5 L-4.75 -5.5 Q-4.9 -5.5 -5.0 -5.6 -5.2 -5.45 -5.4 -5.4 -5.55 -5.35 -5.6 -5.2 L-5.55 -5.15 -5.55 -5.0 -5.5 -4.85 -5.5 -4.7 -5.45 -4.7 Q-5.4 -4.8 -5.35 -4.75 L-5.25 -4.75 -5.25 -4.65 Q-5.2 -4.55 -5.2 -4.3 L-5.1 -3.65 -4.9 -2.9 -4.75 -2.7 Q-4.55 -2.5 -4.55 -2.35 L-4.45 -2.3 -4.15 -2.25 Q-4.05 -2.2 -4.0 -2.15 L-3.45 -2.5 -3.25 -2.65 -3.0 -2.85 -2.0 -3.7 Q-1.75 -3.95 -1.5 -3.15 L-1.4 -2.3 -1.4 -2.2 -1.45 -2.3 -1.6 -3.1 Q-1.8 -3.8 -2.0 -3.35 L-2.65 -2.75 -2.8 -2.65 Q-3.2 -2.35 -3.55 -2.2 L-3.75 -2.0 -3.9 -1.9 -3.95 -1.8 -3.9 -1.35 -3.8 -0.85 -3.75 -0.55 -3.7 -0.4 -3.6 -0.05 -3.35 0.8 -3.25 1.05 Q-3.15 1.35 -2.9 1.5 L-2.6 1.5 Q-2.4 1.4 -2.3 1.05 -2.2 0.8 -2.2 0.55 -2.2 0.05 -2.5 -0.3 -3.0 -1.0 -3.25 -1.5 L-3.25 -1.45 -2.9 -1.1 -2.35 -0.4 Q-2.1 -0.05 -2.1 0.55 L-2.1 0.85 -2.15 1.05 Q-2.25 1.35 -2.55 1.6 L-2.95 1.6 Q-3.2 1.4 -3.3 1.2 L-3.35 1.1 -3.45 0.7 -3.5 0.45 -3.55 0.3 -3.65 0.15 -3.9 -0.75 Q-4.15 -1.5 -4.15 -1.8 L-4.2 -1.85 Q-4.25 -1.95 -4.6 -2.1 -4.65 -1.7 -4.85 -0.85 L-5.1 0.15 -5.1 0.2 -5.2 0.5 -5.35 0.8 -5.35 0.85 Q-6.0 2.4 -6.0 3.1 L-6.0 3.25 -5.5 3.35 -4.85 3.4 Q-4.35 3.4 -3.8 3.15 L-3.35 3.0 Q-2.4 2.35 -2.05 1.9 -1.7 1.4 -1.5 0.9 -1.35 0.55 -1.25 0.2 L-1.2 -0.35 -1.2 -0.4 -1.25 -1.0 Q-1.25 -1.3 -1.35 -1.55 L-1.35 -1.65 -1.4 -1.8 -1.35 -1.9 -1.35 -2.0 M-6.25 -8.0 Q-5.8 -7.95 -5.4 -7.45 L-5.25 -7.15 -5.25 -7.0 -5.2 -6.85 -5.15 -6.8 -5.15 -6.75 -5.2 -6.75 -5.05 -6.6 Q-4.75 -6.65 -4.7 -6.35 L-4.55 -6.45 Q-4.5 -6.55 -4.5 -6.65 L-4.5 -6.8 Q-4.6 -7.25 -4.75 -7.6 L-4.8 -7.65 -4.9 -7.85 -4.9 -7.9 Q-5.25 -8.5 -5.7 -8.6 L-5.9 -8.6 -6.5 -8.55 -6.65 -8.55 -7.0 -8.35 Q-7.25 -8.1 -7.4 -7.85 L-7.55 -7.45 -7.6 -7.25 -7.45 -7.35 -7.4 -7.45 Q-7.15 -7.75 -6.8 -7.9 L-6.75 -7.9 -6.55 -7.95 -6.55 -8.0 -6.3 -8.0 -6.3 -8.05 -6.25 -8.0 M-5.85 -5.95 L-6.15 -5.9 -6.3 -5.7 -6.4 -5.35 -6.45 -5.15 -6.4 -5.1 -6.15 -5.15 -5.95 -5.2 -5.9 -5.2 -5.9 -5.25 -5.8 -5.25 -5.75 -5.3 -5.75 -5.4 Q-5.65 -5.6 -5.45 -5.6 L-5.3 -5.65 -5.25 -5.7 -5.1 -5.8 Q-5.4 -5.8 -5.5 -5.85 -5.6 -5.95 -5.6 -6.0 L-5.7 -6.0 -5.85 -5.95 M-7.15 -4.15 L-7.65 -4.0 -7.65 -3.85 Q-7.55 -3.6 -7.55 -3.35 -7.6 -3.1 -7.75 -2.5 -7.95 -1.85 -7.95 -1.6 -8.05 -0.6 -7.55 0.55 -7.0 1.8 -6.1 2.15 -5.95 1.6 -5.75 1.0 L-5.45 0.4 -5.0 -0.9 Q-4.95 -1.15 -4.9 -1.35 L-4.75 -2.1 Q-4.75 -2.15 -5.05 -2.8 L-5.15 -2.95 -5.15 -3.3 -5.25 -3.6 -5.35 -2.2 Q-5.45 -1.8 -5.55 -1.5 L-5.6 -1.5 -5.55 -1.7 Q-5.5 -2.15 -5.4 -4.35 L-5.5 -4.5 Q-5.65 -4.55 -7.15 -4.15 M-6.05 -5.05 Q-6.35 -5.0 -6.55 -4.9 -6.8 -4.8 -6.8 -4.65 L-6.8 -4.55 -6.85 -4.5 -6.7 -4.5 -6.45 -4.6 -6.45 -4.55 -6.4 -4.6 -6.1 -4.65 -5.75 -4.7 -5.75 -4.75 -5.8 -4.9 -5.75 -4.95 -5.8 -5.05 -5.8 -5.1 -5.85 -5.05 -6.05 -5.05 M-3.35 -6.7 L-3.4 -6.75 -3.45 -6.75 Q-3.5 -6.8 -3.7 -6.65 -3.9 -6.55 -3.9 -6.5 L-3.9 -6.4 -3.8 -6.35 -3.7 -6.35 Q-3.65 -6.4 -3.5 -6.5 -3.35 -6.6 -3.35 -6.7 M-2.9 -6.75 Q-3.0 -6.75 -3.2 -6.65 -3.4 -6.5 -3.4 -6.45 -3.4 -6.4 -3.3 -6.3 -3.1 -6.35 -3.0 -6.5 -2.9 -6.6 -2.9 -6.7 -2.9 -6.8 -2.9 -6.75 M-2.1 -5.15 Q-2.05 -5.15 -1.95 -5.25 -1.8 -5.35 -1.8 -5.45 -1.8 -5.85 -2.4 -5.25 -2.4 -5.1 -2.1 -5.15 M-2.5 -5.35 Q-2.45 -5.4 -2.45 -5.5 -2.45 -5.85 -3.2 -5.35 L-3.2 -5.25 Q-3.1 -5.2 -2.95 -5.2 L-2.95 -5.1 Q-2.9 -5.1 -2.8 -5.1 -2.65 -5.15 -2.55 -5.2 -2.5 -5.3 -2.5 -5.35 M-2.3 -6.75 Q-2.45 -6.8 -2.65 -6.65 -2.8 -6.55 -2.8 -6.45 L-2.8 -6.35 Q-2.85 -6.15 -2.65 -6.15 -2.6 -6.2 -2.4 -6.35 L-2.25 -6.6 -2.25 -6.7 -2.3 -6.75 M-2.05 -6.3 L-1.85 -6.45 Q-1.7 -6.6 -1.65 -6.7 -1.85 -6.85 -2.05 -6.7 -2.25 -6.55 -2.25 -6.4 -2.25 -6.25 -2.05 -6.3 M-0.55 -5.5 Q-0.55 -5.8 -0.9 -5.45 L-1.3 -5.05 -1.25 -5.0 -1.25 -4.95 -1.05 -4.95 -0.7 -5.2 Q-0.55 -5.35 -0.55 -5.5 M-1.05 -5.55 Q-1.05 -5.9 -1.4 -5.6 L-1.8 -5.15 Q-1.8 -5.0 -1.6 -5.05 -1.5 -5.05 -1.25 -5.25 -1.05 -5.45 -1.05 -5.55 M-1.2 -6.45 Q-1.1 -6.55 -1.1 -6.65 -1.1 -6.75 -1.15 -6.75 L-1.5 -6.6 Q-1.6 -6.55 -1.6 -6.45 L-1.6 -6.35 Q-1.55 -6.3 -1.35 -6.35 -1.3 -6.35 -1.2 -6.45 M-0.7 -6.5 Q-0.55 -6.65 -0.55 -6.75 -0.55 -7.0 -0.85 -6.75 -1.2 -6.45 -1.2 -6.35 L-1.05 -6.25 -0.7 -6.5 M-4.0 -6.7 Q-4.15 -6.75 -4.25 -6.65 -4.35 -6.55 -4.35 -6.5 L-4.15 -6.35 -4.0 -6.5 Q-3.95 -6.6 -3.95 -6.65 -3.95 -6.75 -4.0 -6.7 M-5.1 -6.0 L-5.1 -5.95 Q-5.1 -5.75 -4.65 -5.75 -4.55 -5.75 -4.45 -5.85 -4.35 -5.95 -4.35 -6.0 -4.35 -6.3 -4.6 -6.25 L-5.05 -6.05 -5.1 -6.0 M-5.2 -6.45 Q-5.55 -6.35 -5.55 -6.2 -5.55 -6.05 -5.35 -6.05 -5.15 -6.05 -5.0 -6.1 -4.85 -6.2 -4.85 -6.3 -4.85 -6.55 -5.2 -6.45 M-5.75 -6.3 Q-5.7 -6.3 -5.55 -6.45 -5.4 -6.6 -5.4 -6.65 -5.6 -7.0 -5.9 -6.45 -5.85 -6.3 -5.75 -6.3 M-3.1 -5.8 Q-3.1 -6.05 -3.45 -5.8 -3.8 -5.55 -3.8 -5.45 -3.8 -5.3 -3.5 -5.35 -3.4 -5.35 -3.25 -5.5 -3.1 -5.7 -3.1 -5.8 M-4.3 -5.5 L-4.1 -5.45 -4.0 -5.45 Q-3.85 -5.5 -3.75 -5.6 -3.6 -5.75 -3.6 -5.85 -3.6 -6.15 -4.0 -5.9 L-4.45 -5.55 Q-4.4 -5.55 -4.3 -5.5 M-4.65 -2.1 L-4.65 -2.05 -4.6 -2.1 -4.65 -2.1" fill="#000000" fill-rule="evenodd" stroke="none"/>
    <path d="M-1.35 -2.0 L-1.35 -1.9 -1.4 -1.8 -1.35 -1.65 -1.35 -1.55 -2.2 -1.6 -2.45 -1.8 -2.5 -1.65 -1.35 0.2 -1.3 0.25 -1.25 0.2 Q-1.35 0.55 -1.5 0.9 L-1.5 0.95 Q-2.15 1.85 -3.0 1.85 -4.0 1.85 -5.0 1.1 L-5.35 0.85 -5.35 0.8 -5.2 0.5 -5.1 0.2 -5.1 0.15 -4.85 -0.85 Q-4.65 -1.7 -4.6 -2.1 -4.25 -1.95 -4.2 -1.85 L-4.15 -1.8 Q-4.15 -1.5 -3.9 -0.75 L-3.65 0.15 -3.55 0.3 -3.5 0.45 -3.45 0.95 Q-3.4 1.15 -3.3 1.3 L-3.3 1.2 Q-3.2 1.4 -2.95 1.6 L-2.55 1.6 Q-2.25 1.35 -2.15 1.05 L-2.1 0.85 -2.1 0.55 Q-2.1 -0.05 -2.35 -0.4 L-2.9 -1.1 -3.0 -1.2 Q-3.35 -1.7 -3.6 -1.7 -3.85 -1.75 -3.9 -1.35 L-3.95 -1.8 -3.9 -1.9 -3.75 -2.0 -3.55 -2.2 Q-3.2 -2.35 -2.8 -2.65 L-2.65 -2.75 -2.0 -3.35 Q-1.8 -3.8 -1.6 -3.1 L-1.45 -2.3 -1.4 -2.2 -1.35 -2.0 M-3.6 -0.05 L-3.7 -0.4 -3.75 -0.55 -3.7 -0.5 -3.6 -0.05" fill="#676c28" fill-rule="evenodd" stroke="none"/>
    <path d="M-6.25 -8.0 L-5.9 -8.05 Q-5.65 -8.05 -5.4 -7.7 -5.15 -7.35 -5.15 -7.2 L-5.2 -6.85 -5.25 -7.0 -5.25 -7.15 -5.4 -7.45 Q-5.8 -7.95 -6.25 -8.0 M-4.5 -6.65 L-4.7 -7.0 -4.75 -7.15 -4.9 -7.4 -5.2 -7.85 Q-5.4 -8.5 -6.35 -8.3 -6.75 -8.25 -7.0 -8.05 -7.3 -7.9 -7.3 -7.75 -7.3 -7.65 -7.25 -7.65 L-7.2 -7.65 -6.9 -7.9 -7.0 -7.85 -6.65 -7.95 -6.55 -7.95 -6.75 -7.9 -6.8 -7.9 Q-7.15 -7.75 -7.4 -7.45 L-7.45 -7.35 -7.6 -7.25 -7.55 -7.45 -7.4 -7.85 Q-7.25 -8.1 -7.0 -8.35 L-6.65 -8.55 -6.5 -8.55 -5.9 -8.6 -5.7 -8.6 Q-5.25 -8.5 -4.9 -7.9 L-4.9 -7.85 -4.8 -7.65 -4.75 -7.6 Q-4.6 -7.25 -4.5 -6.8 L-4.5 -6.65 M-6.15 -5.15 L-6.4 -5.1 -6.45 -5.15 -6.4 -5.35 -6.3 -5.7 -6.15 -5.9 -5.85 -5.95 -5.75 -5.85 -6.0 -5.45 Q-6.15 -5.3 -6.15 -5.15 M-5.3 -5.65 L-5.45 -5.6 Q-5.65 -5.6 -5.75 -5.4 L-5.75 -5.3 -5.8 -5.25 -5.9 -5.25 -5.9 -5.2 -5.9 -5.25 Q-5.85 -5.5 -5.75 -5.55 -5.6 -5.65 -5.3 -5.65" fill="#cccccc" fill-rule="evenodd" stroke="none"/>
    <path d="M4.45 -7.7 Q4.6 -7.55 5.15 -7.4 5.75 -7.3 6.4 -7.3 6.85 -7.3 7.2 -7.45 L7.35 -7.5 7.85 -7.6 8.95 -7.7 9.0 -7.65 9.5 -7.55 9.55 -7.5 Q9.9 -7.3 10.35 -7.0 L10.7 -6.6 10.65 -6.4 Q10.55 -5.85 10.35 -5.6 10.2 -5.4 9.55 -4.9 9.2 -4.65 9.0 -4.45 L8.85 -4.45 8.85 -4.35 8.75 -4.2 8.8 -4.25 8.7 -4.2 Q8.5 -4.45 8.35 -4.4 8.35 -4.3 8.4 -4.1 L7.85 -3.95 7.6 -4.0 7.55 -4.1 Q7.5 -4.2 7.45 -4.25 7.4 -4.2 7.35 -4.05 L4.5 -4.55 4.1 -4.55 Q4.1 -4.6 4.1 -4.45 3.7 -4.5 3.55 -4.35 3.45 -5.05 3.45 -5.8 L3.8 -7.15 3.9 -7.45 Q4.2 -7.65 4.45 -7.7 M11.6 -4.15 L11.65 -4.05 11.45 -4.2 11.6 -4.15 M11.1 -4.3 L11.15 -4.25 11.15 -4.2 Q10.85 -4.3 10.55 -4.3 L10.4 -4.3 10.45 -4.4 10.45 -4.45 11.1 -4.3 M4.4 -4.45 L5.25 -4.4 6.6 -4.15 7.25 -3.95 7.35 -3.95 7.3 -3.8 7.35 -3.7 Q6.55 -3.9 5.25 -4.25 L4.4 -4.45 M7.5 -3.7 L7.6 -3.85 8.0 -3.8 Q8.05 -3.8 8.45 -4.0 8.55 -3.75 8.7 -3.7 L8.4 -3.6 7.5 -3.7 M8.85 -3.8 L8.85 -3.85 Q8.85 -4.0 8.75 -4.15 L8.8 -4.15 8.9 -4.15 Q8.95 -3.95 9.1 -3.95 9.25 -3.95 9.25 -4.1 L9.2 -4.25 Q9.95 -4.5 10.05 -4.5 L10.15 -4.5 Q10.2 -4.35 10.25 -4.25 10.0 -4.2 9.65 -4.05 9.3 -4.0 8.95 -3.85 L8.85 -3.8 M3.6 -4.2 L3.6 -4.2" fill="#a9943d" fill-rule="evenodd" stroke="none"/>
    <path d="M10.7 -6.6 Q11.0 -6.25 11.15 -5.85 L11.15 -5.8 Q11.5 -5.0 11.6 -4.2 L11.6 -4.15 11.45 -4.2 11.4 -4.2 11.35 -4.25 11.3 -4.45 Q11.25 -4.6 11.05 -4.8 L11.0 -4.75 11.1 -4.5 11.15 -4.35 10.9 -4.4 11.1 -4.3 10.45 -4.45 10.4 -4.6 10.4 -4.7 Q10.3 -4.9 10.1 -4.85 L10.15 -4.6 10.05 -4.65 9.15 -4.35 Q9.05 -4.45 9.0 -4.45 9.2 -4.65 9.55 -4.9 10.2 -5.4 10.35 -5.6 10.55 -5.85 10.65 -6.4 L10.7 -6.6 M11.15 -4.2 L11.1 -4.1 11.05 -3.9 Q11.05 -3.8 11.15 -3.7 L11.25 -3.9 11.35 -4.05 11.7 -3.7 11.65 -3.1 11.65 -3.0 Q11.65 -2.25 11.2 -1.5 10.55 -0.35 9.2 -0.4 L8.05 -0.4 7.6 -0.45 7.2 -0.45 6.2 -0.75 6.0 -0.75 5.95 -0.7 Q4.7 -1.25 4.05 -2.8 3.85 -3.2 3.75 -3.65 L3.65 -3.95 3.6 -4.15 3.6 -4.2 3.55 -4.35 Q3.7 -4.5 4.1 -4.45 L4.1 -4.4 4.15 -4.4 4.4 -4.45 5.25 -4.25 Q6.55 -3.9 7.35 -3.7 L7.45 -3.65 7.5 -3.7 8.4 -3.6 8.7 -3.7 8.75 -3.7 8.8 -3.75 8.85 -3.75 8.85 -3.8 8.95 -3.85 Q9.3 -4.0 9.65 -4.05 10.0 -4.2 10.25 -4.25 L10.3 -4.2 10.4 -4.3 10.55 -4.3 Q10.85 -4.3 11.15 -4.2 M8.8 -4.25 L8.75 -4.2 8.85 -4.35 8.85 -4.25 8.8 -4.25 M8.8 -4.15 L8.85 -4.2 8.9 -4.15 8.8 -4.15 M9.2 -4.25 L9.15 -4.3 9.6 -4.45 10.15 -4.55 10.15 -4.5 10.05 -4.5 Q9.95 -4.5 9.2 -4.25 M3.6 -4.2 L3.6 -4.2" fill="#926529" fill-rule="evenodd" stroke="none"/>
    <path d="M-0.7 -6.5 L-1.05 -6.25 -1.2 -6.35 Q-1.2 -6.45 -0.85 -6.75 -0.55 -7.0 -0.55 -6.75 -0.55 -6.65 -0.7 -6.5 M-1.2 -6.45 Q-1.3 -6.35 -1.35 -6.35 -1.55 -6.3 -1.6 -6.35 L-1.6 -6.45 Q-1.6 -6.55 -1.5 -6.6 L-1.15 -6.75 Q-1.1 -6.75 -1.1 -6.65 -1.1 -6.55 -1.2 -6.45 M-1.05 -5.55 Q-1.05 -5.45 -1.25 -5.25 -1.5 -5.05 -1.6 -5.05 -1.8 -5.0 -1.8 -5.15 L-1.4 -5.6 Q-1.05 -5.9 -1.05 -5.55 M-0.55 -5.5 Q-0.55 -5.35 -0.7 -5.2 L-1.05 -4.95 -1.25 -4.95 -1.25 -5.0 -1.3 -5.05 -0.9 -5.45 Q-0.55 -5.8 -0.55 -5.5 M-2.05 -6.3 Q-2.25 -6.25 -2.25 -6.4 -2.25 -6.55 -2.05 -6.7 -1.85 -6.85 -1.65 -6.7 -1.7 -6.6 -1.85 -6.45 L-2.05 -6.3 M-2.3 -6.75 L-2.25 -6.7 -2.25 -6.6 -2.4 -6.35 Q-2.6 -6.2 -2.65 -6.15 -2.85 -6.15 -2.8 -6.35 L-2.8 -6.45 Q-2.8 -6.55 -2.65 -6.65 -2.45 -6.8 -2.3 -6.75 M-2.5 -5.35 Q-2.5 -5.3 -2.55 -5.2 -2.65 -5.15 -2.8 -5.1 -2.9 -5.1 -2.95 -5.1 L-2.95 -5.2 Q-3.1 -5.2 -3.2 -5.25 L-3.2 -5.35 Q-2.45 -5.85 -2.45 -5.5 -2.45 -5.4 -2.5 -5.35 M-2.1 -5.15 Q-2.4 -5.1 -2.4 -5.25 -1.8 -5.85 -1.8 -5.45 -1.8 -5.35 -1.95 -5.25 -2.05 -5.15 -2.1 -5.15 M-2.9 -6.75 Q-2.9 -6.8 -2.9 -6.7 -2.9 -6.6 -3.0 -6.5 -3.1 -6.35 -3.3 -6.3 -3.4 -6.4 -3.4 -6.45 -3.4 -6.5 -3.2 -6.65 -3.0 -6.75 -2.9 -6.75 M-3.35 -6.7 Q-3.35 -6.6 -3.5 -6.5 -3.65 -6.4 -3.7 -6.35 L-3.8 -6.35 -3.9 -6.4 -3.9 -6.5 Q-3.9 -6.55 -3.7 -6.65 -3.5 -6.8 -3.45 -6.75 L-3.4 -6.75 -3.35 -6.7 M-4.0 -6.7 Q-3.95 -6.75 -3.95 -6.65 -3.95 -6.6 -4.0 -6.5 L-4.15 -6.35 -4.35 -6.5 Q-4.35 -6.55 -4.25 -6.65 -4.15 -6.75 -4.0 -6.7 M-4.3 -5.5 Q-4.4 -5.55 -4.45 -5.55 L-4.0 -5.9 Q-3.6 -6.15 -3.6 -5.85 -3.6 -5.75 -3.75 -5.6 -3.85 -5.5 -4.0 -5.45 L-4.1 -5.45 -4.3 -5.5 M-3.1 -5.8 Q-3.1 -5.7 -3.25 -5.5 -3.4 -5.35 -3.5 -5.35 -3.8 -5.3 -3.8 -5.45 -3.8 -5.55 -3.45 -5.8 -3.1 -6.05 -3.1 -5.8 M-5.75 -6.3 Q-5.85 -6.3 -5.9 -6.45 -5.6 -7.0 -5.4 -6.65 -5.4 -6.6 -5.55 -6.45 -5.7 -6.3 -5.75 -6.3 M-5.2 -6.45 Q-4.85 -6.55 -4.85 -6.3 -4.85 -6.2 -5.0 -6.1 -5.15 -6.05 -5.35 -6.05 -5.55 -6.05 -5.55 -6.2 -5.55 -6.35 -5.2 -6.45 M-5.1 -6.0 L-5.05 -6.05 -4.6 -6.25 Q-4.35 -6.3 -4.35 -6.0 -4.35 -5.95 -4.45 -5.85 -4.55 -5.75 -4.65 -5.75 -5.1 -5.75 -5.1 -5.95 L-5.1 -6.0" fill="#665224" fill-rule="evenodd" stroke="none"/>
    <path d="M-6.05 -5.05 L-6.1 -4.95 -6.15 -4.95 -6.35 -4.8 Q-6.4 -4.7 -6.4 -4.6 L-6.45 -4.55 -6.45 -4.6 -6.7 -4.5 -6.85 -4.5 -6.8 -4.55 -6.8 -4.65 Q-6.8 -4.8 -6.55 -4.9 -6.35 -5.0 -6.05 -5.05 M-6.1 -4.65 L-5.85 -4.65 -5.85 -4.75 Q-5.85 -4.95 -5.85 -5.05 L-5.8 -5.1 -5.8 -5.05 -5.75 -4.95 -5.8 -4.9 -5.75 -4.75 -5.75 -4.7 -6.1 -4.65" fill="#999999" fill-rule="evenodd" stroke="none"/>
    <path d="M-5.45 0.4 Q-7.15 -0.8 -7.15 -3.0 L-7.1 -3.75 -7.15 -4.15 Q-5.65 -4.55 -5.5 -4.5 L-5.4 -4.35 Q-5.5 -2.15 -5.55 -1.7 L-5.6 -1.5 -5.55 -1.5 Q-5.45 -1.8 -5.35 -2.2 L-5.25 -3.6 -5.15 -3.3 -5.15 -2.95 -5.05 -2.8 Q-4.75 -2.15 -4.75 -2.1 L-4.9 -1.35 Q-4.95 -1.15 -5.0 -0.9 L-5.45 0.4" fill="#cfd1c7" fill-rule="evenodd" stroke="none"/>
    <path d="M-5.45 0.4 L-5.75 1.0 Q-5.95 1.6 -6.1 2.15 -7.0 1.8 -7.55 0.55 -8.05 -0.6 -7.95 -1.6 -7.95 -1.85 -7.75 -2.5 -7.6 -3.1 -7.55 -3.35 -7.55 -3.6 -7.65 -3.85 L-7.65 -4.0 -7.15 -4.15 -7.1 -3.75 -7.15 -3.0 Q-7.15 -0.8 -5.45 0.4" fill="#a3af87" fill-rule="evenodd" stroke="none"/>
    <path d="M-1.35 -1.55 Q-1.25 -1.3 -1.25 -1.0 L-1.2 -0.4 -1.2 -0.35 -1.25 0.2 -1.3 0.25 -1.35 0.2 -2.5 -1.65 -2.45 -1.8 -2.2 -1.6 -1.35 -1.55 M-1.5 0.9 Q-1.7 1.4 -2.05 1.9 -2.4 2.35 -3.35 3.0 L-3.8 3.15 Q-4.35 3.4 -4.85 3.4 L-5.5 3.35 -6.0 3.25 -6.0 3.1 Q-6.0 2.4 -5.35 0.85 L-5.0 1.1 Q-4.0 1.85 -3.0 1.85 -2.15 1.85 -1.5 0.95 L-1.5 0.9 M-3.5 0.45 L-3.45 0.7 -3.35 1.1 -3.3 1.2 -3.3 1.3 Q-3.4 1.15 -3.45 0.95 L-3.5 0.45 M-2.1 0.85 L-2.1 0.55 -2.1 0.85 M-2.9 -1.1 L-3.25 -1.45 -3.25 -1.5 Q-3.0 -1.0 -2.5 -0.3 -2.2 0.05 -2.2 0.55 -2.2 0.8 -2.3 1.05 -2.4 1.4 -2.6 1.5 L-2.9 1.5 Q-3.15 1.35 -3.25 1.05 L-3.35 0.8 -3.6 -0.05 -3.7 -0.5 -3.75 -0.55 -3.8 -0.85 -3.9 -1.35 Q-3.85 -1.75 -3.6 -1.7 -3.35 -1.7 -3.0 -1.2 L-2.9 -1.1" fill="#425c1d" fill-rule="evenodd" stroke="none"/>
    <path d="M-5.2 -6.85 L-5.15 -7.2 Q-5.15 -7.35 -5.4 -7.7 -5.65 -8.05 -5.9 -8.05 L-6.25 -8.0 -6.3 -8.05 -6.3 -8.0 -6.55 -8.0 -6.55 -7.95 -6.65 -7.95 -7.0 -7.85 -6.9 -7.9 -7.2 -7.65 -7.25 -7.65 Q-7.3 -7.65 -7.3 -7.75 -7.3 -7.9 -7.0 -8.05 -6.75 -8.25 -6.35 -8.3 -5.4 -8.5 -5.2 -7.85 L-4.9 -7.4 -4.75 -7.15 -4.7 -7.0 -4.5 -6.65 Q-4.5 -6.55 -4.55 -6.45 L-4.7 -6.35 Q-4.75 -6.65 -5.05 -6.6 L-5.2 -6.75 -5.15 -6.75 -5.15 -6.8 -5.2 -6.85 M-6.15 -5.15 Q-6.15 -5.3 -6.0 -5.45 L-5.75 -5.85 -5.85 -5.95 -5.7 -6.0 -5.6 -6.0 Q-5.6 -5.95 -5.5 -5.85 -5.4 -5.8 -5.1 -5.8 L-5.25 -5.7 -5.3 -5.65 Q-5.6 -5.65 -5.75 -5.55 -5.85 -5.5 -5.9 -5.25 L-5.9 -5.2 -5.95 -5.2 -6.15 -5.15" fill="#8a8a8a" fill-rule="evenodd" stroke="none"/>
    <path d="M-6.4 -4.6 Q-6.4 -4.7 -6.35 -4.8 L-6.15 -4.95 -6.1 -4.95 -6.05 -5.05 -5.85 -5.05 Q-5.85 -4.95 -5.85 -4.75 L-5.85 -4.65 -6.1 -4.65 -6.4 -4.6" fill="#666666" fill-rule="evenodd" stroke="none"/>
  </g>
</svg>
