<?xml version="1.0" encoding="UTF-8" standalone="no"?>
<svg xmlns:ffdec="https://www.free-decompiler.com/flash" xmlns:xlink="http://www.w3.org/1999/xlink" ffdec:objectType="shape" height="12.6px" width="4.35px" xmlns="http://www.w3.org/2000/svg">
  <g transform="matrix(1.0, 0.0, 0.0, 1.0, 3.85, 4.25)">
    <path d="M-2.7 4.45 L-2.3 4.55 -1.9 4.6 -1.75 4.55 -1.75 4.65 Q-2.2 4.65 -2.4 5.25 L-2.45 5.45 -2.45 5.3 -2.5 5.25 Q-2.5 5.15 -2.6 5.15 L-2.6 5.3 -2.55 5.5 -2.55 5.7 -2.55 5.6 -2.7 5.45 Q-2.9 5.6 -3.05 6.1 -3.2 6.6 -3.2 6.9 -3.2 7.05 -3.0 7.25 L-3.05 7.3 Q-2.8 7.75 -2.4 7.75 L-2.4 7.8 -2.45 7.85 -2.5 7.85 Q-2.75 7.75 -3.0 7.6 L-3.4 7.2 -3.4 7.15 -3.35 7.05 -3.5 6.35 -3.5 6.25 -3.55 5.85 -3.6 5.7 -3.4 5.15 Q-3.25 4.8 -3.2 4.6 L-3.15 4.35 -3.1 4.35 -2.85 4.4 -2.7 4.45 M-1.7 4.6 L-1.65 4.55 -1.45 4.5 -1.35 4.45 -1.35 4.7 -1.35 4.65 -1.7 4.6 M-2.4 6.8 L-2.45 6.85 -2.5 6.8 -2.55 6.8 -2.6 6.75 -2.65 6.65 -2.65 6.6 -2.6 6.45 -2.55 6.25 -2.55 6.2 -2.55 6.25 -2.5 6.7 -2.4 6.8 M-2.8 7.1 L-2.75 7.15 -2.8 7.15 -2.8 7.1 M-1.4 7.95 Q-1.55 8.2 -1.6 8.2 L-2.05 8.05 -2.3 7.95 -2.35 7.95 -2.3 7.9 Q-2.25 7.9 -2.25 7.8 L-2.3 7.7 -2.25 7.6 Q-2.25 7.4 -2.4 7.25 L-2.75 7.0 -2.7 6.8 -2.65 6.85 Q-2.65 7.0 -2.4 7.25 L-2.25 7.4 Q-2.1 7.55 -1.9 7.6 L-1.95 7.65 -2.0 7.8 -1.85 7.65 -1.8 7.65 -1.8 7.75 Q-1.8 7.9 -1.8 7.95 L-1.4 7.95" fill="#f9bd91" fill-rule="evenodd" stroke="none"/>
    <path d="M0.2 -1.95 Q0.2 -1.65 0.0 -1.05 L-0.25 -1.55 -0.35 -1.7 -0.5 -1.85 -0.55 -1.8 Q-0.65 -1.85 -0.65 -1.55 L-0.6 -1.55 -0.7 -1.35 -0.75 -0.95 -1.6 -0.9 Q-1.9 -0.95 -2.1 -1.05 -2.4 -1.2 -2.4 -1.3 L-2.4 -1.4 -2.3 -1.65 Q-2.25 -2.2 -2.0 -2.8 L-2.05 -2.75 -2.1 -2.75 Q-2.2 -2.75 -2.35 -2.45 L-2.45 -2.2 -2.5 -2.1 -2.35 -2.8 -2.3 -2.85 -2.3 -2.95 -2.0 -3.3 -1.65 -3.75 -1.6 -3.75 -1.45 -3.85 -1.4 -3.9 -0.75 -3.95 -0.7 -3.95 -0.6 -3.9 Q-0.3 -3.8 -0.05 -3.2 0.2 -2.5 0.2 -1.95" fill="#895e32" fill-rule="evenodd" stroke="none"/>
    <path d="M-2.2 0.75 Q-2.25 1.05 -2.2 1.65 -2.25 2.0 -2.7 3.3 L-3.0 4.2 -3.1 4.1 -3.1 4.05 -3.2 3.7 -3.25 3.35 -3.3 3.1 -3.3 2.55 Q-3.3 2.2 -3.25 1.95 L-3.1 1.65 -3.0 1.5 -2.7 1.2 Q-2.4 1.0 -2.2 0.75" fill="#727d98" fill-rule="evenodd" stroke="none"/>
    <path d="M-2.2 0.75 L-2.1 0.6 Q-2.05 0.35 -1.95 0.25 L-1.9 -0.2 -1.8 -0.75 -0.75 -0.75 Q-0.7 -0.75 -0.65 -0.8 -0.6 -0.85 -0.6 -0.9 L-0.6 -1.0 -0.55 -1.35 -0.35 -0.95 Q-0.4 -0.65 -0.5 -0.2 -0.7 0.55 -0.7 0.7 L-0.75 0.7 -0.85 0.85 -0.95 0.85 -0.95 0.9 -1.0 0.9 -1.2 0.95 -1.25 0.95 -1.2 1.15 Q-0.8 1.15 -0.7 0.8 L-0.65 0.8 -0.7 2.3 Q-0.75 2.95 -1.0 3.6 L-1.3 4.15 -1.3 4.2 -1.35 4.25 -1.35 4.35 -1.5 4.4 -1.75 4.45 -2.25 4.45 -2.3 4.55 -2.7 4.45 -2.95 4.2 -3.0 4.2 -2.7 3.3 Q-2.25 2.0 -2.2 1.65 -2.25 1.05 -2.2 0.75" fill="#663e5c" fill-rule="evenodd" stroke="none"/>
    <path d="M-1.75 4.65 L-1.75 4.7 Q-1.75 4.9 -1.65 5.2 -1.55 5.5 -1.55 5.6 -1.55 5.9 -1.95 6.55 L-1.95 6.6 -1.9 6.6 Q-1.75 6.6 -1.45 5.6 -1.45 5.45 -1.6 5.15 -1.7 4.85 -1.7 4.7 L-1.7 4.6 -1.35 4.65 -1.35 4.7 -1.3 5.0 -1.25 5.1 -1.25 5.15 -1.15 5.7 Q-1.15 5.9 -1.35 6.25 L-1.45 6.5 -1.5 6.65 -1.55 6.75 -1.55 6.8 -1.7 6.85 -1.8 6.9 -1.95 6.9 -2.3 6.8 -2.4 6.8 -2.5 6.7 -2.55 6.25 -2.55 6.2 -2.5 6.15 -2.45 5.8 -2.4 5.65 -2.4 5.6 -2.45 5.5 -2.45 5.45 -2.4 5.25 Q-2.2 4.65 -1.75 4.65 M-2.55 5.7 Q-2.6 5.95 -2.85 6.9 -2.95 6.85 -3.05 6.95 L-2.85 7.1 -2.8 7.1 -2.8 7.15 -2.75 7.15 -2.65 7.2 -2.45 7.4 -2.4 7.55 -2.4 7.75 Q-2.8 7.75 -3.05 7.3 L-3.0 7.25 Q-3.2 7.05 -3.2 6.9 -3.2 6.6 -3.05 6.1 -2.9 5.6 -2.7 5.45 L-2.55 5.6 -2.55 5.7 M-1.4 7.95 L-1.8 7.95 Q-1.8 7.9 -1.8 7.75 L-1.8 7.65 -1.6 7.65 -1.3 7.7 -1.3 7.85 -1.4 7.95 M-2.45 6.95 L-2.35 6.9 -2.15 6.9 -2.0 6.95 -2.0 7.0 -1.95 7.0 -1.95 7.1 -1.9 7.25 -1.85 7.3 -1.85 7.35 -1.8 7.35 -1.8 7.4 -1.7 7.4 -1.65 7.35 -1.25 7.15 -0.9 6.95 Q-0.85 7.2 -0.85 7.3 -0.85 7.5 -0.95 7.65 L-1.15 7.8 -1.15 7.65 Q-1.15 7.6 -1.2 7.55 L-1.25 7.55 Q-1.85 7.45 -2.15 7.3 L-2.3 7.2 -2.45 7.0 -2.45 6.95 M-1.45 7.0 L-1.45 7.05 -1.4 7.05 -1.4 6.95 -1.35 6.95 -1.05 6.75 -1.0 6.75 -0.9 6.6 -0.75 6.5 Q-0.65 6.5 -0.55 6.55 L-0.5 6.65 -0.5 6.75 -0.65 7.0 -0.7 7.05 Q-0.7 6.9 -0.85 6.8 L-0.95 6.8 -1.25 7.0 -1.65 7.25 Q-1.75 7.25 -1.75 7.15 L-1.85 7.05 -1.7 6.95 -1.6 6.9 -1.5 6.95 -1.45 7.0" fill="#e7955f" fill-rule="evenodd" stroke="none"/>
    <path d="M0.5 -1.95 Q0.5 -1.55 0.45 -1.25 L0.4 -1.2 0.15 -0.7 Q0.15 -0.55 0.05 -0.55 -0.05 -0.55 -0.15 -0.65 L-0.2 -0.5 -0.3 -0.05 -0.4 0.3 -0.5 0.6 -0.5 2.75 Q-0.6 3.15 -0.9 3.85 L-1.15 4.35 -1.15 4.7 Q-1.15 4.95 -1.05 5.35 L-1.0 5.85 Q-1.0 6.05 -1.15 6.3 -1.25 6.5 -1.3 6.7 L-1.25 6.75 -0.95 6.45 Q-0.7 6.25 -0.5 6.4 -0.35 6.55 -0.35 6.7 L-0.6 7.25 -0.7 7.4 -0.75 7.4 Q-0.75 7.6 -0.8 7.65 -0.9 7.8 -1.25 8.05 L-1.3 8.1 -1.4 8.25 -1.45 8.3 -1.5 8.3 -1.6 8.35 -1.8 8.3 -2.1 8.25 Q-2.5 8.15 -2.55 8.1 L-2.6 8.05 -2.65 8.05 Q-3.0 8.05 -3.5 7.25 L-3.55 7.2 -3.6 7.1 Q-3.7 6.85 -3.85 5.8 L-3.65 5.25 Q-3.4 4.6 -3.4 4.5 L-3.35 4.35 Q-3.35 4.2 -3.45 3.7 L-3.55 3.3 -3.55 2.6 Q-3.5 2.2 -3.4 1.85 L-3.2 1.35 -3.2 1.3 -3.1 1.2 -2.65 0.9 Q-2.4 0.65 -2.3 0.45 -2.2 0.35 -2.15 0.1 -2.0 -0.15 -2.0 -0.4 -2.0 -0.6 -2.05 -0.65 L-2.4 -0.85 -2.55 -1.0 -2.7 -1.25 -2.65 -1.4 -2.65 -1.5 -2.7 -1.6 -2.7 -2.8 Q-2.55 -3.15 -2.1 -3.6 -1.7 -4.1 -1.55 -4.15 L-1.25 -4.2 Q-0.8 -4.3 -0.35 -4.0 0.1 -3.55 0.2 -3.3 0.4 -2.85 0.45 -2.6 L0.5 -1.95 M0.2 -1.95 Q0.2 -2.5 -0.05 -3.2 -0.3 -3.8 -0.6 -3.9 L-0.7 -3.95 -0.75 -3.95 -1.4 -3.9 -1.45 -3.85 -1.6 -3.75 -1.65 -3.75 -2.0 -3.3 -2.3 -2.95 -2.3 -2.85 -2.35 -2.8 -2.5 -2.1 -2.45 -2.2 -2.35 -2.45 Q-2.2 -2.75 -2.1 -2.75 L-2.05 -2.75 -2.0 -2.8 Q-2.25 -2.2 -2.3 -1.65 L-2.4 -1.4 -2.4 -1.3 Q-2.4 -1.2 -2.1 -1.05 -1.9 -0.95 -1.6 -0.9 L-0.75 -0.95 -0.7 -1.35 -0.6 -1.55 -0.65 -1.55 Q-0.65 -1.85 -0.55 -1.8 L-0.5 -1.85 -0.35 -1.7 -0.25 -1.55 0.0 -1.05 Q0.2 -1.65 0.2 -1.95 M-2.3 4.55 L-2.25 4.45 -1.75 4.45 -1.5 4.4 -1.35 4.35 -1.35 4.25 -1.3 4.2 -1.3 4.15 -1.0 3.6 Q-0.75 2.95 -0.7 2.3 L-0.65 0.8 -0.7 0.8 Q-0.8 1.15 -1.2 1.15 L-1.25 0.95 -1.2 0.95 -1.0 0.9 -0.95 0.9 -0.95 0.85 -0.85 0.85 -0.75 0.7 -0.7 0.7 Q-0.7 0.55 -0.5 -0.2 -0.4 -0.65 -0.35 -0.95 L-0.55 -1.35 -0.6 -1.0 -0.6 -0.9 Q-0.6 -0.85 -0.65 -0.8 -0.7 -0.75 -0.75 -0.75 L-1.8 -0.75 -1.9 -0.2 -1.95 0.25 Q-2.05 0.35 -2.1 0.6 L-2.2 0.75 Q-2.4 1.0 -2.7 1.2 L-3.0 1.5 -3.1 1.65 -3.25 1.95 Q-3.3 2.2 -3.3 2.55 L-3.3 3.1 -3.25 3.35 -3.2 3.7 -3.1 4.05 -3.1 4.1 -3.0 4.2 -2.95 4.2 -2.7 4.45 -2.85 4.4 -3.1 4.35 -3.15 4.35 -3.2 4.6 Q-3.25 4.8 -3.4 5.15 L-3.6 5.7 -3.55 5.85 -3.5 6.25 -3.5 6.35 -3.35 7.05 -3.4 7.15 -3.4 7.2 -3.0 7.6 Q-2.75 7.75 -2.5 7.85 L-2.45 7.85 -2.4 7.8 -2.4 7.75 -2.4 7.55 -2.45 7.4 -2.65 7.2 -2.75 7.15 -2.8 7.1 -2.85 7.1 -3.05 6.95 Q-2.95 6.85 -2.85 6.9 -2.6 5.95 -2.55 5.7 L-2.55 5.5 -2.6 5.3 -2.6 5.15 Q-2.5 5.15 -2.5 5.25 L-2.45 5.3 -2.45 5.45 -2.45 5.5 -2.4 5.6 -2.4 5.65 -2.45 5.8 -2.5 6.15 -2.55 6.2 -2.55 6.25 -2.6 6.45 -2.65 6.6 -2.65 6.65 -2.6 6.75 -2.55 6.8 -2.5 6.8 -2.45 6.85 -2.4 6.8 -2.3 6.8 -1.95 6.9 -1.8 6.9 -1.7 6.85 -1.55 6.8 -1.55 6.75 -1.5 6.65 -1.45 6.5 -1.35 6.25 Q-1.15 5.9 -1.15 5.7 L-1.25 5.15 -1.25 5.1 -1.3 5.0 -1.35 4.7 -1.35 4.45 -1.45 4.5 -1.65 4.55 -1.7 4.6 -1.7 4.7 Q-1.7 4.85 -1.6 5.15 -1.45 5.45 -1.45 5.6 -1.75 6.6 -1.9 6.6 L-1.95 6.6 -1.95 6.55 Q-1.55 5.9 -1.55 5.6 -1.55 5.5 -1.65 5.2 -1.75 4.9 -1.75 4.7 L-1.75 4.65 -1.75 4.55 -1.9 4.6 -2.3 4.55 M-1.8 7.65 L-1.85 7.65 -2.0 7.8 -1.95 7.65 -1.9 7.6 Q-2.1 7.55 -2.25 7.4 L-2.4 7.25 Q-2.65 7.0 -2.65 6.85 L-2.7 6.8 -2.75 7.0 -2.4 7.25 Q-2.25 7.4 -2.25 7.6 L-2.3 7.7 -2.25 7.8 Q-2.25 7.9 -2.3 7.9 L-2.35 7.95 -2.3 7.95 -2.05 8.05 -1.6 8.2 Q-1.55 8.2 -1.4 7.95 L-1.3 7.85 -1.3 7.7 -1.6 7.65 -1.8 7.65 M-1.45 7.0 L-1.5 6.95 -1.6 6.9 -1.7 6.95 -1.85 7.05 -1.75 7.15 Q-1.75 7.25 -1.65 7.25 L-1.25 7.0 -0.95 6.8 -0.85 6.8 Q-0.7 6.9 -0.7 7.05 L-0.65 7.0 -0.5 6.75 -0.5 6.65 -0.55 6.55 Q-0.65 6.5 -0.75 6.5 L-0.9 6.6 -1.0 6.75 -1.05 6.75 -1.35 6.95 -1.4 6.95 -1.4 7.05 -1.45 7.05 -1.45 7.0 M-2.45 6.95 L-2.45 7.0 -2.3 7.2 -2.15 7.3 Q-1.85 7.45 -1.25 7.55 L-1.2 7.55 Q-1.15 7.6 -1.15 7.65 L-1.15 7.8 -0.95 7.65 Q-0.85 7.5 -0.85 7.3 -0.85 7.2 -0.9 6.95 L-1.25 7.15 -1.65 7.35 -1.7 7.4 -1.8 7.4 -1.8 7.35 -1.85 7.35 -1.85 7.3 -1.9 7.25 -1.95 7.1 -1.95 7.0 -2.0 7.0 -2.0 6.95 -2.15 6.9 -2.35 6.9 -2.45 6.95" fill="#101010" fill-rule="evenodd" stroke="none"/>
  </g>
</svg>
