<?xml version="1.0" encoding="UTF-8" standalone="no"?>
<svg xmlns:ffdec="https://www.free-decompiler.com/flash" xmlns:xlink="http://www.w3.org/1999/xlink" ffdec:objectType="shape" height="14.15px" width="6.0px" xmlns="http://www.w3.org/2000/svg">
  <g transform="matrix(1.0, 0.0, 0.0, 1.0, 5.2, 5.7)">
    <path d="M-2.7 4.45 L-2.3 4.55 -1.75 4.65 -2.45 5.45 -2.55 5.7 -2.4 7.75 -2.7 4.45 M-1.7 4.6 L-1.35 4.7 -1.7 4.6 M-2.4 6.8 L-2.55 6.2 -2.4 6.8 M-2.8 7.1 L-2.75 7.15 -2.8 7.1 M-1.4 7.95 L-1.8 7.65 -1.4 7.95" fill="#f9bd91" fill-rule="evenodd" stroke="none"/>
    <path d="M-2.2 0.75 Q-2.25 1.05 -2.2 1.65 L-3.0 4.2 -3.1 1.65 -3.0 1.5 -2.7 1.2 Q-2.4 1.0 -2.2 0.75" fill="#727d98" fill-rule="evenodd" stroke="none"/>
    <path d="M-2.2 0.75 L-2.1 0.6 -1.95 0.25 -1.9 -0.2 -1.8 -0.75 -1.65 -0.75 -2.3 4.55 -2.7 4.45 -3.0 4.2 -2.2 1.65 Q-2.25 1.05 -2.2 0.75" fill="#663e5c" fill-rule="evenodd" stroke="none"/>
    <path d="M-1.75 4.65 L-1.7 4.6 -1.35 4.7 -2.4 6.8 -2.55 6.2 -2.45 5.45 -1.75 4.65 M-2.55 5.7 L-2.8 7.1 -2.75 7.15 -2.4 7.75 -2.55 5.7 M-1.4 7.95 L-1.8 7.65 -1.4 7.95 M-2.45 6.95 L-2.35 6.9 -2.3 6.9 -2.3 7.2 -2.45 6.95 M-1.45 7.0 L-0.5 6.75 -0.7 7.05 Q-0.7 6.9 -0.85 6.8 L-1.45 7.0" fill="#e7955f" fill-rule="evenodd" stroke="none"/>
    <path d="M0.5 -1.95 L-0.4 0.3 -0.5 0.65 -1.15 6.3 -2.1 8.25 Q-2.5 8.15 -2.55 8.1 L-3.4 1.85 -3.2 1.35 -3.2 1.3 -3.1 1.2 -2.65 0.9 Q-2.4 0.65 -2.3 0.45 -2.2 0.35 -2.15 0.1 -2.0 -0.15 -2.0 -0.4 L-0.35 -4.0 Q0.1 -3.55 0.2 -3.3 0.4 -2.85 0.45 -2.6 L0.5 -1.95 M-2.3 4.55 L-1.65 -0.75 -1.8 -0.75 -1.9 -0.2 -1.95 0.25 -2.1 0.6 -2.2 0.75 Q-2.4 1.0 -2.7 1.2 L-3.0 1.5 -3.1 1.65 -3.0 4.2 -2.7 4.45 -2.4 7.75 -2.75 7.15 -2.8 7.1 -2.55 5.7 -2.45 5.45 -2.55 6.2 -2.4 6.8 -1.35 4.7 -1.7 4.6 -1.75 4.65 -2.3 4.55 M-1.8 7.65 L-1.4 7.95 -1.8 7.65 M-1.45 7.0 L-0.85 6.8 Q-0.7 6.9 -0.7 7.05 L-0.5 6.75 -1.45 7.0 M-2.45 6.95 L-2.3 7.2 -2.3 6.9 -2.35 6.9 -2.45 6.95" fill="#101010" fill-rule="evenodd" stroke="none"/>
    <path d="M-0.2 -0.05 L0.0 -0.35 Q0.1 -0.5 0.3 -0.75 0.4 -1.0 0.45 -1.25 L0.45 -1.3 Q0.45 -1.75 0.2 -2.3 L-0.35 -3.4 Q-0.55 -3.8 -0.8 -4.1 L-1.1 -4.5 -1.4 -4.95 Q-1.5 -5.05 -1.8 -5.15 L-1.8 -5.2 -1.7 -5.2 -1.75 -5.25 -2.05 -5.4 -2.15 -5.45 -2.5 -5.45 -2.85 -5.3 -3.6 -4.85 Q-4.0 -4.5 -4.25 -4.05 -4.95 -3.05 -4.95 -2.1 -4.95 -1.6 -4.7 -1.15 L-4.55 -0.85 -4.5 -0.95 Q-4.4 -1.25 -4.25 -1.45 L-4.05 -1.8 -4.0 -1.5 -4.0 -1.45 -3.95 -1.45 Q-3.9 -1.15 -3.8 -0.8 L-3.65 -0.4 -3.6 -0.4 -3.6 -0.3 -3.55 -0.3 -3.55 -0.25 -3.5 -0.2 -3.4 0.0 -3.35 0.05 -3.05 0.5 -3.05 0.4 -3.0 0.35 Q-3.0 0.05 -2.95 -0.15 -2.85 -0.4 -2.65 -0.55 L-2.55 -0.55 Q-2.25 -0.8 -1.9 -0.65 L-1.8 -0.5 -1.75 -0.5 -1.75 -0.55 -1.55 -1.6 Q-2.0 -1.9 -2.6 -2.0 L-2.95 -2.05 Q-2.3 -2.15 -1.8 -2.0 L-1.55 -1.9 -0.95 -1.25 -0.6 -0.85 -0.35 -0.55 -0.35 -0.6 -0.3 -0.6 -0.25 -0.5 -0.2 -0.5 -0.2 -0.45 -0.15 -0.4 -0.1 -0.3 -0.15 -0.25 -0.2 -0.3 -0.2 -0.2 -0.25 -0.1 -0.3 0.05 -0.2 -0.05 M0.8 -1.2 Q0.7 -0.7 0.3 -0.15 L0.15 0.15 0.0 0.1 -0.2 0.3 -0.3 0.3 -0.4 0.45 -0.45 0.45 -0.5 0.6 -0.45 0.5 -0.5 1.4 Q0.0 1.6 0.2 1.8 0.4 2.0 0.4 2.35 0.4 2.7 0.1 3.35 L-0.05 3.6 -0.2 4.55 -0.25 4.55 Q-0.4 4.7 -0.7 4.85 L-0.9 4.9 -0.8 5.2 -0.7 5.7 Q-0.7 5.8 -0.85 6.15 -0.5 6.0 -0.3 6.25 L-0.25 6.25 Q-0.2 6.35 -0.2 6.5 L-0.2 6.55 Q-0.2 6.7 -0.25 6.85 -0.35 7.0 -0.35 7.2 L-0.55 7.55 -0.85 7.85 Q-1.3 8.45 -1.7 8.45 -2.0 8.45 -2.15 8.3 L-2.3 8.15 Q-2.3 8.3 -2.45 8.3 -2.65 8.3 -2.75 8.2 L-3.4 7.55 -3.7 7.1 -3.75 6.75 Q-3.95 6.25 -3.95 5.3 -3.95 5.1 -3.8 4.9 L-3.7 4.85 -3.7 4.8 Q-3.55 4.65 -3.45 4.55 L-3.55 4.4 -3.8 4.05 -3.7 3.75 Q-3.65 3.55 -3.65 3.45 -3.65 3.25 -3.75 3.0 -3.85 2.75 -3.85 2.55 L-3.85 2.35 Q-3.85 1.95 -3.35 1.7 L-2.9 1.5 -2.4 1.25 -2.2 0.85 -1.9 -0.05 -1.85 -0.1 -1.85 -0.3 -2.1 -0.35 -2.2 -0.3 Q-2.6 -0.15 -2.7 0.05 L-2.8 0.4 -2.9 0.8 -2.9 0.95 -2.95 0.95 -2.95 0.9 -3.05 0.85 Q-3.3 0.7 -3.55 0.3 L-3.8 -0.1 Q-4.15 -0.65 -4.15 -1.1 L-4.25 -0.7 -4.35 -0.5 -4.2 -0.15 -4.3 -0.05 -4.4 -0.2 -4.4 -0.1 -4.5 -0.05 -4.8 -0.5 Q-5.0 -0.8 -5.1 -1.15 -5.2 -1.4 -5.2 -1.7 L-5.2 -2.0 Q-5.2 -2.7 -5.05 -3.25 -4.9 -3.7 -4.7 -4.0 L-4.25 -4.55 Q-3.65 -5.3 -2.95 -5.5 L-2.55 -5.6 -2.4 -5.65 -2.4 -5.6 -2.35 -5.6 -2.35 -5.7 Q-1.65 -5.7 -1.0 -5.15 -0.3 -4.2 0.2 -3.05 0.65 -2.1 0.8 -1.2 M0.0 -3.3 L0.0 -3.3 M-1.95 -5.25 L-1.95 -5.25 M-1.6 -0.3 L-1.65 -0.2 Q-1.65 0.2 -2.05 0.95 L-2.15 1.15 Q-2.3 1.6 -2.4 1.95 L-2.45 2.35 -2.4 2.5 -2.3 2.9 -2.35 2.95 -1.9 3.05 -1.6 3.05 -1.35 2.95 -0.85 2.9 -0.85 2.85 -0.8 2.7 -0.75 1.9 Q-0.75 1.6 -0.75 1.25 L-0.95 1.35 -1.35 1.35 -1.4 1.25 Q-1.1 1.3 -0.8 1.15 L-0.75 1.15 -0.75 0.95 Q-0.75 0.45 -0.45 -0.15 L-0.35 -0.4 Q-0.7 -0.75 -1.1 -1.3 L-1.25 -1.4 -1.35 -1.5 -1.35 -1.3 Q-1.4 -0.9 -1.6 -0.35 L-1.6 -0.3 M-0.45 1.55 L-0.45 1.55 M-2.55 4.75 L-1.85 4.85 Q-1.4 4.85 -1.1 4.7 L-0.75 4.55 -0.8 4.6 -0.55 4.5 -0.4 4.2 -0.4 4.15 Q-0.4 3.9 -0.25 3.55 -0.2 3.4 -0.05 2.95 0.15 2.45 0.15 2.3 L0.15 2.2 Q0.1 2.0 -0.1 1.9 L-0.15 1.85 -0.35 1.7 -0.5 1.65 -0.5 2.25 -0.55 2.5 -0.55 2.55 -0.6 2.8 Q-0.2 2.55 -0.25 2.0 -0.15 1.9 -0.1 2.0 -0.05 2.1 -0.05 2.2 -0.05 2.5 -0.5 2.8 L-0.6 2.85 -0.6 2.9 -0.65 2.9 -0.7 2.95 -0.75 2.95 Q-1.05 3.1 -1.4 3.15 L-1.75 3.2 -1.8 3.15 -1.9 3.15 -2.2 3.15 Q-2.65 3.05 -2.9 2.85 L-3.05 2.75 -3.15 2.65 -3.15 2.6 Q-3.25 2.5 -3.25 2.4 L-3.25 2.25 -3.2 2.2 Q-3.15 2.15 -3.05 2.15 L-3.05 2.4 Q-3.05 2.5 -2.9 2.65 L-2.8 2.75 -2.8 2.7 -2.7 2.75 -2.7 2.8 -2.55 2.85 -2.6 2.7 -2.6 2.3 -2.65 2.1 Q-2.65 1.8 -2.55 1.55 L-3.3 2.0 -3.55 2.2 Q-3.6 2.3 -3.6 2.45 -3.6 2.55 -3.5 2.9 L-3.4 3.15 Q-3.35 3.2 -3.35 3.25 L-3.3 3.4 -3.3 3.5 -3.35 3.55 -3.4 3.55 -3.45 3.65 -3.55 3.95 -3.55 4.05 Q-3.45 4.2 -3.15 4.45 -2.9 4.65 -2.55 4.75 M-0.85 2.9 L-0.85 2.9 M-3.5 3.3 L-3.5 3.3 M-3.8 5.3 L-3.75 5.35 -3.75 5.25 -3.8 5.3 M-2.75 4.9 L-3.0 4.75 -3.0 4.8 -3.15 4.8 -3.3 4.75 -3.45 5.15 -3.6 5.45 -3.7 5.8 -3.6 6.35 -3.5 7.2 Q-3.3 7.3 -3.0 7.6 L-2.5 8.1 -2.45 7.95 -2.4 7.9 -2.4 7.8 -2.35 7.5 -2.4 7.5 Q-2.45 7.4 -2.5 7.3 L-2.6 7.25 -2.7 7.15 Q-3.0 6.85 -3.15 6.95 L-3.2 6.95 Q-3.1 6.75 -2.9 6.9 L-2.9 6.85 -2.8 6.85 -2.8 6.8 -2.9 6.45 -2.9 6.2 -2.9 6.1 -2.85 6.1 -2.7 6.7 -2.65 6.7 -2.7 6.75 -2.65 6.75 -2.65 6.7 -2.55 6.6 -2.5 6.65 Q-2.15 6.4 -1.95 6.1 -1.65 5.7 -1.75 5.3 L-1.7 5.3 -1.7 5.7 Q-1.7 6.0 -2.0 6.35 L-2.45 6.7 -2.4 6.8 -2.4 6.85 -2.3 6.8 -2.15 6.8 Q-2.0 6.75 -1.85 6.9 L-1.8 6.95 -1.65 6.85 -1.55 6.8 -1.55 6.75 Q-1.5 6.55 -1.3 6.35 L-1.2 6.25 -1.05 6.0 Q-1.0 5.8 -1.0 5.6 L-1.05 5.25 -1.1 5.0 -1.3 5.05 -1.55 5.05 -1.6 5.1 -1.75 5.1 -2.2 5.05 -2.25 5.05 -2.3 5.05 -2.75 4.9 M-2.65 6.85 L-2.6 7.1 -2.45 7.25 Q-2.25 7.45 -2.25 7.6 L-2.25 7.95 -2.05 8.05 -1.8 8.15 -1.65 8.1 Q-1.25 7.9 -1.15 7.8 -1.2 7.75 -1.3 7.7 L-1.35 7.7 -1.45 7.65 Q-1.85 7.6 -2.2 7.3 -2.4 7.15 -2.45 7.05 L-2.6 6.8 -2.65 6.85 M-2.3 6.9 L-2.35 6.85 -2.4 6.85 -2.35 6.95 -2.35 7.0 -2.25 7.05 -2.2 7.15 -1.95 7.35 -1.55 7.55 -1.4 7.55 -1.2 7.6 -1.05 7.7 -1.0 7.6 -0.75 7.45 -0.75 7.25 -0.95 6.95 -1.0 6.95 -1.25 7.1 -1.3 7.15 -1.35 7.15 Q-1.55 7.35 -1.55 7.45 L-1.6 7.35 -1.6 7.3 -1.65 7.35 -1.65 7.3 -1.95 7.05 Q-2.1 6.95 -2.15 6.95 -2.25 6.9 -2.3 6.9 M-0.7 7.0 L-0.6 6.9 -0.55 6.8 -0.45 6.65 -0.4 6.65 -0.65 6.4 -0.85 6.55 -0.9 6.55 -1.35 6.9 -1.35 6.95 -1.5 6.95 -1.75 7.05 -1.6 7.2 -1.55 7.2 -1.35 7.1 Q-1.25 7.05 -1.25 7.0 L-1.05 6.85 Q-0.9 6.8 -0.75 6.95 L-0.75 7.0 -0.7 7.05 -0.7 7.0" fill="#000000" fill-rule="evenodd" stroke="none"/>
    <path d="M-0.25 -0.1 L-0.2 -0.05 -0.3 0.05 -0.25 -0.1 M-2.2 5.05 L-2.25 5.05 -2.2 5.05" fill="#cccccc" fill-rule="evenodd" stroke="none"/>
    <path d="M-2.05 -5.4 Q-2.2 -5.15 -2.2 -4.55 -2.2 -3.45 -1.85 -2.15 L-1.8 -2.0 Q-2.3 -2.15 -2.95 -2.05 L-2.6 -2.0 Q-3.15 -2.0 -3.45 -1.7 -3.75 -1.4 -3.85 -0.95 L-3.8 -0.8 Q-3.9 -1.15 -3.95 -1.45 L-4.0 -1.45 -4.0 -1.5 -4.05 -1.8 -4.25 -1.45 Q-4.4 -1.25 -4.5 -0.95 L-4.55 -0.85 -4.7 -1.15 Q-4.95 -1.6 -4.95 -2.1 -4.95 -3.05 -4.25 -4.05 -4.0 -4.5 -3.6 -4.85 L-2.85 -5.3 -2.5 -5.45 -2.15 -5.45 -2.05 -5.4" fill="#666479" fill-rule="evenodd" stroke="none"/>
    <path d="M-2.05 -5.4 L-1.75 -5.25 -1.7 -5.2 -1.8 -5.2 -1.8 -5.15 Q-1.5 -5.05 -1.4 -4.95 L-1.1 -4.5 -0.8 -4.1 Q-0.55 -3.8 -0.35 -3.4 L0.2 -2.3 Q0.45 -1.75 0.45 -1.3 L0.45 -1.25 Q0.4 -1.0 0.3 -0.75 0.1 -0.5 0.0 -0.35 L-0.2 -0.05 -0.25 -0.1 -0.2 -0.2 -0.2 -0.3 -0.15 -0.25 -0.1 -0.3 -0.15 -0.4 -0.2 -0.45 -0.2 -0.5 -0.25 -0.5 -0.3 -0.6 -0.35 -0.6 -0.35 -0.55 -0.6 -0.85 -0.95 -1.25 -1.55 -1.9 -1.8 -2.0 -1.85 -2.15 Q-2.2 -3.45 -2.2 -4.55 -2.2 -5.15 -2.05 -5.4 M-3.8 -0.8 L-3.85 -0.95 Q-3.75 -1.4 -3.45 -1.7 -3.15 -2.0 -2.6 -2.0 -2.0 -1.9 -1.55 -1.6 L-1.75 -0.55 -1.75 -0.5 -1.8 -0.5 -1.9 -0.65 Q-2.25 -0.8 -2.55 -0.55 L-2.65 -0.55 Q-2.85 -0.4 -2.95 -0.15 -3.0 0.05 -3.0 0.35 L-3.05 0.4 -3.05 0.5 -3.35 0.05 -3.4 0.0 -3.5 -0.2 -3.55 -0.25 -3.55 -0.3 -3.6 -0.3 -3.6 -0.4 -3.65 -0.4 -3.8 -0.8 M-1.95 -5.25 L-1.95 -5.25" fill="#524f59" fill-rule="evenodd" stroke="none"/>
    <path d="M-1.6 -0.3 L-1.6 -0.35 Q-1.4 -0.9 -1.35 -1.3 L-1.35 -1.5 -1.25 -1.4 -1.1 -1.3 Q-0.7 -0.75 -0.35 -0.4 L-0.45 -0.15 Q-0.75 0.45 -0.75 0.95 L-0.75 1.15 -0.8 1.15 Q-1.1 1.3 -1.4 1.25 L-1.35 1.35 -0.95 1.35 -0.75 1.25 Q-0.75 1.6 -0.75 1.9 L-0.8 2.7 -0.85 2.85 -0.85 2.9 -1.35 2.95 -1.6 3.05 -1.9 3.05 -2.35 2.95 -2.3 2.9 -2.4 2.5 -2.45 2.35 -2.4 1.95 Q-2.3 1.6 -2.15 1.15 L-2.05 0.95 Q-1.65 0.2 -1.65 -0.2 L-1.6 -0.3" fill="#843d35" fill-rule="evenodd" stroke="none"/>
    <path d="M-1.9 3.15 L-1.8 3.15 -1.75 3.2 -1.4 3.15 Q-1.05 3.1 -0.75 2.95 L-0.7 2.95 -0.65 2.9 -0.6 2.9 -0.6 2.85 -0.5 2.8 Q-0.05 2.5 -0.05 2.2 -0.05 2.1 -0.1 2.0 -0.15 1.9 -0.25 2.0 -0.2 2.55 -0.6 2.8 L-0.55 2.55 -0.55 2.5 -0.5 2.25 -0.5 1.65 -0.35 1.7 -0.15 1.85 -0.1 1.9 Q0.1 2.0 0.15 2.2 L0.15 2.3 Q0.15 2.45 -0.05 2.95 -0.2 3.4 -0.25 3.55 -0.4 3.9 -0.4 4.15 L-0.4 4.2 -0.55 4.5 -0.8 4.6 -0.75 4.55 -1.1 4.7 Q-1.4 4.85 -1.85 4.85 L-2.55 4.75 -2.55 4.7 Q-2.55 4.4 -2.1 3.55 L-1.9 3.15 M-2.65 2.1 L-2.6 2.3 -2.6 2.7 -2.55 2.85 -2.7 2.8 -2.7 2.75 -2.8 2.7 -2.8 2.75 -2.9 2.65 Q-3.05 2.5 -3.05 2.4 L-3.05 2.15 Q-3.15 2.15 -3.2 2.2 -3.15 2.0 -2.95 2.0 L-2.65 2.1 M-3.15 2.6 L-3.15 2.65 -3.05 2.75 -2.9 2.85 Q-2.65 3.05 -2.2 3.15 -2.3 3.2 -2.5 3.2 -2.95 3.2 -3.1 2.8 L-3.15 2.6 M-2.9 6.2 L-3.05 5.25 Q-3.05 5.1 -2.95 4.95 L-2.85 4.85 -2.75 4.9 -2.3 5.05 -2.25 5.05 -2.2 5.05 -1.75 5.1 -1.6 5.1 -1.55 5.05 -1.3 5.05 -1.1 5.0 -1.05 5.25 -1.0 5.6 Q-1.0 5.8 -1.05 6.0 L-1.2 6.25 -1.3 6.35 Q-1.5 6.55 -1.55 6.75 L-1.55 6.8 -1.65 6.85 -1.8 6.95 -1.85 6.9 Q-2.0 6.75 -2.15 6.8 L-2.3 6.8 -2.4 6.85 -2.4 6.8 -2.45 6.7 -2.0 6.35 Q-1.7 6.0 -1.7 5.7 L-1.7 5.3 -1.75 5.3 Q-1.65 5.7 -1.95 6.1 -2.15 6.4 -2.5 6.65 L-2.55 6.6 -2.65 6.7 -2.65 6.75 -2.7 6.75 -2.65 6.7 -2.7 6.7 -2.85 6.1 -2.9 6.1 -2.9 6.2 M-2.45 7.95 L-2.5 7.95 Q-2.7 7.95 -2.75 7.7 L-2.75 7.5 Q-2.75 7.25 -2.6 7.25 L-2.5 7.3 Q-2.45 7.4 -2.4 7.5 L-2.35 7.5 -2.4 7.8 -2.4 7.9 -2.45 7.95 M-2.65 6.85 L-2.6 6.8 -2.45 7.05 Q-2.4 7.15 -2.2 7.3 -1.85 7.6 -1.45 7.65 L-1.35 7.7 -1.3 7.7 Q-1.2 7.75 -1.15 7.8 -1.25 7.9 -1.65 8.1 L-1.8 8.15 -2.05 8.05 -2.25 7.95 -2.25 7.6 Q-2.25 7.45 -2.45 7.25 L-2.6 7.1 -2.65 6.85 M-2.3 6.9 Q-2.25 6.9 -2.15 6.95 -2.1 6.95 -1.95 7.05 L-1.65 7.3 -1.65 7.35 -1.6 7.3 -1.6 7.35 -1.55 7.45 Q-1.55 7.35 -1.35 7.15 L-1.3 7.15 -1.25 7.1 -1.0 6.95 -0.95 6.95 -0.75 7.25 -0.75 7.45 -1.0 7.6 -1.05 7.7 -1.2 7.6 -1.4 7.55 -1.55 7.55 -1.95 7.35 -2.2 7.15 -2.25 7.05 -2.35 7.0 -2.35 6.95 -2.3 6.95 -2.3 6.9 M-0.75 7.0 L-0.75 6.95 Q-0.9 6.8 -1.05 6.85 L-1.25 7.0 Q-1.25 7.05 -1.35 7.1 L-1.55 7.2 -1.6 7.2 -1.75 7.05 -1.5 6.95 -1.35 6.95 -1.35 6.9 -0.9 6.55 -0.85 6.55 -0.65 6.4 -0.4 6.65 -0.45 6.65 -0.55 6.8 -0.6 6.9 -0.7 7.0 -0.75 7.0" fill="#804737" fill-rule="evenodd" stroke="none"/>
    <path d="M-1.9 3.15 L-2.1 3.55 Q-2.55 4.4 -2.55 4.7 L-2.55 4.75 Q-2.9 4.65 -3.15 4.45 -3.45 4.2 -3.55 4.05 L-3.55 3.95 -3.45 3.65 -3.4 3.55 -3.35 3.55 -3.3 3.5 -3.3 3.4 -3.35 3.25 Q-3.35 3.2 -3.4 3.15 L-3.5 2.9 Q-3.6 2.55 -3.6 2.45 -3.6 2.3 -3.55 2.2 L-3.3 2.0 -2.55 1.55 Q-2.65 1.8 -2.65 2.1 L-2.95 2.0 Q-3.15 2.0 -3.2 2.2 L-3.25 2.25 -3.25 2.4 Q-3.25 2.5 -3.15 2.6 L-3.1 2.8 Q-2.95 3.2 -2.5 3.2 -2.3 3.2 -2.2 3.15 L-1.9 3.15 M-2.75 4.9 L-2.85 4.85 -2.95 4.95 Q-3.05 5.1 -3.05 5.25 L-2.9 6.2 -2.9 6.45 -2.8 6.8 -2.8 6.85 -2.9 6.85 -2.9 6.9 Q-3.1 6.75 -3.2 6.95 L-3.15 6.95 Q-3.0 6.85 -2.7 7.15 L-2.6 7.25 Q-2.75 7.25 -2.75 7.5 L-2.75 7.7 Q-2.7 7.95 -2.5 7.95 L-2.45 7.95 -2.5 8.1 -3.0 7.6 Q-3.3 7.3 -3.5 7.2 L-3.6 6.35 -3.7 5.8 -3.6 5.45 -3.45 5.15 -3.3 4.75 -3.15 4.8 -3.0 4.8 -3.0 4.75 -2.75 4.9" fill="#895b56" fill-rule="evenodd" stroke="none"/>
  </g>
</svg>
