<?xml version="1.0" encoding="UTF-8" standalone="no"?>
<svg xmlns:ffdec="https://www.free-decompiler.com/flash" xmlns:xlink="http://www.w3.org/1999/xlink" ffdec:objectType="shape" height="13.5px" width="14.2px" xmlns="http://www.w3.org/2000/svg">
  <g transform="matrix(1.0, 0.0, 0.0, 1.0, 12.15, 13.05)">
    <path d="M-11.65 -12.6 L-11.75 -12.5 -11.0 -11.1 -9.95 -9.35 Q-9.85 -9.25 -9.8 -9.2 L-9.7 -9.4 Q-10.0 -9.65 -10.7 -10.8 L-11.55 -12.45 -11.6 -12.55 -11.65 -12.6 M-12.15 -12.4 L-12.1 -12.5 Q-12.05 -12.7 -11.95 -12.75 -11.85 -12.95 -11.55 -12.8 L-11.25 -12.55 -10.85 -12.8 Q-10.3 -13.0 -10.15 -13.05 -10.05 -12.95 -10.05 -12.55 -10.05 -12.2 -9.85 -12.0 L-8.95 -11.0 Q-8.6 -10.55 -8.35 -10.1 -8.1 -10.2 -7.5 -10.2 L-6.95 -10.1 Q-6.65 -10.0 -6.35 -9.95 -5.2 -9.65 -4.15 -10.05 L-3.75 -10.25 -3.7 -10.25 -3.5 -10.3 -2.95 -10.65 -2.95 -10.4 -3.0 -10.35 Q-3.0 -10.25 -3.0 -10.2 L-2.9 -10.15 -2.7 -10.15 -2.7 -10.1 -2.45 -10.05 Q-2.45 -9.75 -2.35 -9.35 L-2.3 -9.1 -2.25 -8.9 Q-2.2 -8.6 -2.1 -8.15 -1.9 -7.4 -1.65 -6.95 L-1.55 -6.85 -1.55 -6.8 Q-1.45 -6.4 -1.3 -5.5 L-1.75 -5.45 -2.25 -5.4 -3.95 -5.3 -5.0 -5.25 -5.1 -5.25 -5.6 -5.2 -8.1 -6.15 -8.8 -7.05 -8.85 -7.1 Q-10.3 -8.75 -10.3 -8.9 L-10.2 -9.0 Q-10.4 -9.35 -10.9 -10.3 -11.75 -11.9 -12.1 -12.35 L-12.05 -12.35 -12.1 -12.4 -12.15 -12.4 M-3.45 -10.05 Q-3.85 -9.75 -4.25 -9.7 L-4.85 -9.65 Q-5.8 -9.55 -7.05 -9.85 -7.75 -10.0 -8.35 -9.7 -8.55 -9.55 -8.7 -9.45 L-8.75 -9.4 Q-8.9 -9.35 -8.95 -9.25 L-8.95 -9.35 -8.9 -9.5 -8.9 -9.55 -8.95 -10.0 -9.05 -10.35 Q-9.25 -10.75 -9.8 -11.45 -10.35 -12.2 -10.35 -12.75 L-10.75 -12.55 Q-11.0 -12.4 -11.15 -12.4 L-11.2 -12.35 Q-11.25 -12.3 -11.3 -12.3 L-11.25 -12.2 -11.2 -12.15 -10.95 -11.5 Q-10.5 -10.5 -10.0 -10.05 L-10.0 -10.0 Q-9.75 -9.5 -9.5 -9.3 L-9.55 -9.2 -9.5 -9.1 -9.5 -9.05 -9.45 -9.05 Q-9.3 -9.1 -8.95 -9.0 -8.65 -8.85 -8.45 -8.7 L-8.45 -8.6 -8.65 -8.8 Q-8.8 -8.9 -8.9 -8.95 -9.1 -9.0 -9.3 -8.95 L-9.35 -8.95 -9.2 -8.85 -8.95 -8.65 -8.7 -8.6 -8.35 -8.6 -8.4 -8.7 Q-8.45 -8.75 -8.4 -8.85 L-8.4 -8.95 Q-7.4 -8.9 -5.45 -8.95 -3.7 -9.05 -2.65 -9.0 -2.65 -9.15 -2.7 -9.4 L-2.85 -9.9 -3.05 -9.9 Q-3.2 -9.9 -3.2 -10.15 L-3.2 -10.2 -3.25 -10.15 -3.45 -10.05 M-2.6 -8.7 L-2.65 -8.85 Q-3.7 -8.85 -5.15 -8.8 L-8.15 -8.7 -8.1 -8.65 -8.1 -8.55 Q-8.15 -8.45 -8.35 -8.4 L-9.0 -8.45 Q-9.2 -8.5 -9.45 -8.75 L-9.65 -9.0 -9.75 -9.15 -9.85 -9.0 -9.7 -8.6 -9.65 -8.55 -9.55 -8.35 -9.2 -7.9 -8.85 -7.5 -8.85 -7.45 Q-8.85 -7.35 -8.65 -7.2 L-8.55 -7.2 -8.2 -6.8 Q-7.95 -6.4 -7.55 -6.0 L-6.35 -6.0 -6.45 -6.15 -6.8 -6.75 -7.0 -7.1 -7.4 -7.75 -7.8 -8.4 -7.85 -8.45 Q-7.8 -8.5 -7.75 -8.5 L-7.4 -8.0 -6.85 -7.05 -6.75 -6.9 -6.0 -5.55 -3.1 -5.7 Q-2.1 -5.75 -1.6 -5.7 L-1.95 -6.8 -2.1 -7.3 -2.15 -7.5 -2.35 -8.0 -2.35 -8.1 -2.6 -8.7 M-10.0 -12.0 L-10.2 -12.5 -10.15 -12.25 Q-10.05 -11.9 -9.7 -11.6 L-10.0 -12.0 M-8.85 -10.15 L-8.85 -9.85 Q-8.8 -9.65 -8.75 -9.65 L-8.65 -9.65 -8.65 -9.7 -8.6 -9.7 -8.6 -9.8 Q-8.55 -9.95 -8.65 -10.05 -8.75 -10.15 -8.85 -10.15" fill="#111111" fill-rule="evenodd" stroke="none"/>
    <path d="M-11.65 -12.6 L-11.6 -12.55 -11.55 -12.45 -10.7 -10.8 Q-10.0 -9.65 -9.7 -9.4 L-9.8 -9.2 Q-9.85 -9.25 -9.95 -9.35 L-11.0 -11.1 -11.75 -12.5 -11.65 -12.6 M-9.7 -8.6 L-9.85 -9.0 -9.75 -9.15 -9.65 -9.0 -9.45 -8.75 Q-9.2 -8.5 -9.0 -8.45 L-8.35 -8.4 Q-8.15 -8.45 -8.1 -8.55 L-8.1 -8.65 -8.15 -8.7 -5.15 -8.8 Q-3.7 -8.85 -2.65 -8.85 L-2.6 -8.7 Q-3.9 -8.45 -5.95 -8.45 L-7.0 -8.4 -7.3 -8.3 Q-7.4 -8.45 -7.65 -8.45 L-7.7 -8.45 -7.4 -7.95 -7.4 -8.0 -7.75 -8.5 Q-7.8 -8.5 -7.85 -8.45 L-7.8 -8.4 -7.95 -8.3 Q-8.25 -8.1 -8.9 -8.1 -9.15 -8.1 -9.7 -8.6 M-7.4 -7.75 L-7.0 -7.1 -7.0 -6.35 -6.35 -6.0 -7.55 -6.0 -7.55 -7.35 -7.5 -7.45 -7.4 -7.75" fill="#4b8380" fill-rule="evenodd" stroke="none"/>
    <path d="M-3.45 -10.05 L-3.25 -10.15 -3.2 -10.2 -3.2 -10.15 Q-3.2 -9.9 -3.05 -9.9 L-2.85 -9.9 -2.7 -9.4 Q-2.65 -9.15 -2.65 -9.0 -3.7 -9.05 -5.45 -8.95 -7.4 -8.9 -8.4 -8.95 L-8.4 -8.85 Q-8.45 -8.75 -8.4 -8.7 L-8.35 -8.6 -8.7 -8.6 -8.95 -8.65 -9.2 -8.85 -9.35 -8.95 -9.3 -8.95 Q-9.1 -9.0 -8.9 -8.95 -8.8 -8.9 -8.65 -8.8 L-8.45 -8.6 -8.45 -8.7 Q-8.65 -8.85 -8.95 -9.0 -9.3 -9.1 -9.45 -9.05 L-9.5 -9.05 -9.5 -9.1 -9.55 -9.2 -9.5 -9.3 Q-9.75 -9.5 -10.0 -10.0 L-10.0 -10.05 Q-10.5 -10.5 -10.95 -11.5 L-11.2 -12.15 -11.25 -12.2 -11.3 -12.3 Q-11.25 -12.3 -11.2 -12.35 L-11.15 -12.4 Q-11.0 -12.4 -10.75 -12.55 L-10.35 -12.75 Q-10.35 -12.2 -9.8 -11.45 -9.25 -10.75 -9.05 -10.35 L-8.95 -10.0 -8.9 -9.55 -8.9 -9.5 -8.95 -9.35 -8.95 -9.25 Q-8.9 -9.35 -8.75 -9.4 L-8.7 -9.45 Q-8.55 -9.55 -8.35 -9.7 -7.75 -10.0 -7.05 -9.85 -5.8 -9.55 -4.85 -9.65 L-4.25 -9.7 Q-3.85 -9.75 -3.45 -10.05 M-10.0 -12.0 L-9.7 -11.6 Q-10.05 -11.9 -10.15 -12.25 L-10.2 -12.5 -10.0 -12.0 M-8.85 -10.15 Q-8.75 -10.15 -8.65 -10.05 -8.55 -9.95 -8.6 -9.8 L-8.6 -9.7 -8.65 -9.7 -8.65 -9.65 -8.75 -9.65 Q-8.8 -9.65 -8.85 -9.85 L-8.85 -10.15" fill="#ffffcc" fill-rule="evenodd" stroke="none"/>
    <path d="M-3.55 -8.0 L-2.95 -7.95 -2.65 -7.1 -2.3 -6.2 Q-2.9 -6.2 -4.1 -6.25 -5.0 -6.25 -5.4 -5.9 L-5.15 -5.85 -4.4 -5.9 -3.4 -6.0 Q-2.9 -6.1 -2.75 -5.9 -2.6 -5.8 -2.05 -6.1 L-2.55 -7.4 Q-2.75 -7.95 -2.85 -8.1 -2.95 -8.3 -3.2 -8.3 -4.05 -8.15 -5.15 -8.05 L-6.7 -8.05 -6.8 -7.95 Q-6.8 -7.8 -6.35 -7.1 L-6.1 -7.15 -6.6 -7.9 -6.45 -7.85 -5.15 -7.85 -4.2 -8.0 -3.55 -8.0 M-2.6 -8.7 L-2.35 -8.1 -2.35 -8.0 -2.15 -7.5 -2.1 -7.3 -1.95 -6.8 -1.6 -5.7 Q-2.1 -5.75 -3.1 -5.7 L-6.0 -5.55 -6.75 -6.9 -6.85 -7.05 -7.4 -8.0 -7.4 -7.95 -7.7 -8.45 -7.65 -8.45 Q-7.4 -8.45 -7.3 -8.3 L-7.0 -8.4 -5.95 -8.45 Q-3.9 -8.45 -2.6 -8.7 M-7.8 -8.4 L-7.4 -7.75 -7.5 -7.45 -7.6 -7.5 Q-7.8 -7.45 -7.95 -7.35 -8.05 -7.25 -8.1 -7.25 -8.2 -7.25 -8.55 -7.4 L-8.85 -7.5 Q-8.85 -7.55 -8.85 -7.5 L-9.2 -7.9 -9.55 -8.35 -9.65 -8.55 -9.7 -8.6 Q-9.15 -8.1 -8.9 -8.1 -8.25 -8.1 -7.95 -8.3 L-7.8 -8.4 M-7.0 -7.1 L-6.8 -6.75 -6.45 -6.15 -6.35 -6.0 -7.0 -6.35 -7.0 -7.1 M-7.55 -6.0 Q-7.95 -6.4 -8.2 -6.8 L-8.55 -7.2 Q-8.35 -7.1 -8.0 -7.1 -7.95 -7.1 -7.75 -7.2 L-7.55 -7.35 -7.55 -6.0 M-7.8 -8.05 L-7.9 -8.1 -8.1 -7.95 Q-8.25 -7.8 -8.65 -7.8 -8.85 -7.8 -9.2 -8.0 -9.05 -7.65 -8.3 -7.65 -8.15 -7.65 -8.0 -7.75 -7.8 -7.9 -7.8 -8.0 L-7.8 -8.05" fill="#216b74" fill-rule="evenodd" stroke="none"/>
    <path d="M-3.55 -8.0 L-4.2 -8.0 -5.15 -7.85 -6.45 -7.85 -6.6 -7.9 -6.1 -7.15 -6.35 -7.1 Q-6.8 -7.8 -6.8 -7.95 L-6.7 -8.05 -5.15 -8.05 Q-4.05 -8.15 -3.2 -8.3 -2.95 -8.3 -2.85 -8.1 -2.75 -7.95 -2.55 -7.4 L-2.05 -6.1 Q-2.6 -5.8 -2.75 -5.9 -2.9 -6.1 -3.4 -6.0 L-4.4 -5.9 -5.15 -5.85 -5.4 -5.9 Q-5.0 -6.25 -4.1 -6.25 -2.9 -6.2 -2.3 -6.2 L-2.65 -7.1 -2.95 -7.95 -3.55 -8.0 M-8.55 -7.2 L-8.65 -7.2 Q-8.85 -7.35 -8.85 -7.45 L-8.85 -7.5 Q-8.85 -7.55 -8.85 -7.5 L-8.55 -7.4 Q-8.2 -7.25 -8.1 -7.25 -8.05 -7.25 -7.95 -7.35 -7.8 -7.45 -7.6 -7.5 L-7.5 -7.45 -7.55 -7.35 -7.75 -7.2 Q-7.95 -7.1 -8.0 -7.1 -8.35 -7.1 -8.55 -7.2 M-7.8 -8.05 L-7.8 -8.0 Q-7.8 -7.9 -8.0 -7.75 -8.15 -7.65 -8.3 -7.65 -9.05 -7.65 -9.2 -8.0 -8.85 -7.8 -8.65 -7.8 -8.25 -7.8 -8.1 -7.95 L-7.9 -8.1 -7.8 -8.05" fill="#999933" fill-rule="evenodd" stroke="none"/>
    <path d="M1.75 -6.05 L1.8 -7.1 Q1.8 -7.45 1.65 -7.75 1.5 -8.05 1.15 -8.1 0.8 -7.85 0.55 -7.4 0.4 -7.15 0.0 -6.35 -0.45 -5.4 -1.05 -4.75 -1.6 -4.05 -2.6 -3.45 L-2.85 -3.2 -1.9 -1.75 -1.8 -1.6 -1.75 -1.6 -1.7 -1.5 -1.6 -1.4 -1.6 -1.35 -1.5 -1.25 Q-1.25 -1.05 -0.75 -0.7 -0.3 -0.35 0.1 -0.2 L0.4 0.0 0.45 0.0 Q0.75 0.1 0.85 0.1 1.35 0.1 1.55 -2.2 1.65 -3.35 1.65 -4.5 L1.75 -6.05 M-0.25 -2.95 L-0.3 -3.4 -0.55 -4.9 -0.55 -5.3 -0.5 -5.3 0.0 -3.1 0.1 -2.75 Q0.55 -0.8 0.55 -0.65 L0.5 -0.5 Q0.45 -0.35 0.35 -0.35 0.2 -0.35 -0.1 -1.85 L-0.25 -2.95 M-7.95 -6.2 L-8.05 -6.4 -8.0 -6.5 -8.0 -6.6 Q-8.0 -6.8 -7.9 -7.15 L-7.5 -8.05 -7.25 -8.6 -7.15 -8.65 -6.95 -8.7 -6.85 -8.7 -6.55 -8.5 -6.55 -8.4 -6.45 -8.25 -6.55 -7.95 -6.75 -7.4 Q-6.95 -6.9 -6.95 -6.8 L-6.95 -6.65 Q-6.9 -6.5 -6.8 -6.5 L-6.75 -6.5 Q-6.75 -6.65 -6.45 -7.15 L-6.1 -7.85 Q-5.85 -8.2 -5.6 -8.4 L-5.0 -8.35 -5.0 -8.3 Q-4.95 -8.25 -4.8 -8.15 -4.6 -8.0 -4.55 -7.8 L-4.65 -7.1 -4.65 -6.75 -4.7 -6.65 Q-4.85 -6.25 -5.05 -6.0 L-5.05 -5.75 -5.1 -5.5 -5.1 -5.45 -5.35 -4.95 -5.3 -4.9 -5.25 -4.65 -5.15 -4.75 -5.0 -4.45 -4.4 -3.7 Q-4.05 -3.3 -3.75 -3.0 L-3.3 -3.0 -3.2 -2.9 -3.1 -3.0 -3.15 -3.1 -3.15 -3.3 -3.1 -3.35 -2.15 -4.1 -1.65 -4.5 -1.2 -4.95 Q-0.55 -5.75 -0.1 -6.5 0.0 -6.6 0.05 -6.85 0.4 -7.4 0.8 -8.3 L1.25 -8.35 Q1.6 -8.45 1.8 -7.95 2.05 -7.5 2.05 -7.1 L1.95 -5.25 1.8 -3.3 Q1.75 -1.8 1.65 -1.0 1.5 0.45 1.05 0.45 0.45 0.45 0.1 0.2 L0.05 0.15 Q-0.65 0.1 -1.75 -1.25 L-1.85 -1.2 Q-2.1 -1.0 -2.5 -0.75 L-3.05 -0.4 -3.2 -0.3 -3.3 -0.2 -3.35 -0.2 -3.45 -0.1 -3.55 -0.15 -4.6 -1.3 Q-5.3 -2.1 -5.7 -2.6 -6.0 -2.85 -6.5 -3.45 -6.5 -3.5 -6.15 -3.7 L-6.25 -3.85 -6.4 -4.1 Q-6.55 -4.5 -6.85 -4.55 L-6.9 -4.55 Q-7.45 -4.6 -7.75 -5.0 -8.0 -5.25 -8.3 -5.8 -8.5 -6.3 -8.65 -6.75 -8.65 -7.4 -8.05 -6.35 -8.2 -6.5 -8.25 -6.5 L-8.05 -5.85 Q-7.8 -5.3 -7.55 -5.3 L-7.45 -5.25 Q-7.0 -5.0 -6.75 -4.85 -6.65 -4.8 -6.45 -4.65 -6.15 -4.3 -5.95 -3.95 L-5.9 -3.9 -5.7 -4.05 -5.45 -4.4 -5.35 -4.5 -5.5 -4.7 -5.55 -4.75 Q-5.7 -4.65 -5.9 -4.65 L-6.0 -4.65 -6.05 -4.7 -5.55 -5.2 Q-5.45 -5.3 -5.35 -5.4 L-5.35 -5.75 -5.4 -5.75 Q-5.55 -5.65 -5.6 -5.65 L-5.6 -5.7 Q-5.6 -5.85 -5.5 -5.95 L-5.45 -5.95 -5.45 -6.0 Q-5.25 -6.15 -5.1 -6.4 L-4.9 -6.95 -4.85 -7.35 -4.85 -7.45 -4.8 -7.7 -4.8 -7.8 -4.85 -7.9 -4.9 -7.85 -5.1 -7.85 -5.4 -7.1 Q-5.75 -6.25 -5.85 -6.1 L-5.9 -6.15 -5.9 -6.25 -5.65 -7.05 -5.2 -8.15 -5.25 -8.15 Q-5.3 -8.3 -5.5 -8.2 -5.75 -8.1 -5.75 -7.9 -5.95 -7.75 -6.15 -7.35 -6.5 -6.55 -6.7 -6.4 L-6.8 -6.3 -6.95 -6.35 -7.0 -6.35 -7.0 -6.4 Q-7.1 -6.4 -7.1 -6.5 L-6.95 -7.05 Q-6.85 -7.45 -6.8 -7.85 L-6.8 -7.95 -6.75 -8.2 -6.85 -8.3 -6.95 -8.45 -7.15 -8.45 Q-7.35 -8.05 -7.55 -7.4 L-7.55 -7.35 -7.6 -7.35 -7.75 -6.9 -7.8 -6.6 -7.75 -6.55 Q-7.75 -6.2 -7.2 -5.45 L-7.2 -5.4 -7.25 -5.4 -7.2 -5.3 -7.25 -5.3 -7.45 -5.5 -7.45 -5.55 Q-7.75 -5.9 -7.85 -6.1 L-7.95 -6.2 M-7.3 -8.0 L-7.35 -7.95 -7.35 -8.0 -7.3 -8.0 M-4.35 -3.3 L-4.45 -3.4 -5.15 -4.4 -5.55 -3.95 -5.85 -3.65 -5.95 -3.6 -6.1 -3.5 Q-5.6 -3.05 -4.6 -1.75 L-3.7 -0.6 -3.65 -0.65 -3.35 -0.5 -3.15 -0.65 -2.5 -1.1 -2.3 -1.25 -2.65 -1.55 -2.85 -1.8 Q-3.4 -2.4 -3.4 -2.6 L-3.45 -2.8 -3.5 -2.75 Q-3.5 -2.25 -3.55 -1.95 -3.55 -1.7 -3.65 -1.5 L-3.75 -1.3 -3.85 -1.15 Q-3.9 -1.35 -3.8 -1.65 L-3.65 -2.15 Q-3.65 -2.35 -3.8 -2.65 -4.1 -2.9 -4.35 -3.3 M-6.1 -3.4 L-6.1 -3.45 -6.15 -3.45 -6.1 -3.4 M-2.75 -2.55 L-2.75 -2.65 -2.9 -2.85 -3.05 -2.7 -3.15 -2.65 -3.2 -2.65 -3.25 -2.6 Q-3.2 -2.3 -2.8 -1.8 L-2.65 -1.6 -2.25 -1.25 -2.15 -1.35 -2.1 -1.3 -2.0 -1.45 -1.95 -1.5 -1.95 -1.55 -2.1 -1.7 Q-2.4 -2.1 -2.75 -2.55" fill="#111111" fill-rule="evenodd" stroke="none"/>
    <path d="M-1.5 -1.25 L-1.6 -1.35 -1.6 -1.4 -1.7 -1.5 -1.75 -1.6 -1.8 -1.6 -1.9 -1.75 -2.85 -3.2 -2.6 -3.45 Q-1.6 -4.05 -1.05 -4.75 -0.45 -5.4 0.0 -6.35 0.4 -7.15 0.55 -7.4 0.8 -7.85 1.15 -8.1 1.5 -8.05 1.65 -7.75 1.8 -7.45 1.8 -7.1 L1.75 -6.05 0.95 -4.65 -0.05 -3.25 0.0 -3.1 -0.5 -5.3 -0.55 -5.3 -0.55 -4.9 -0.3 -3.4 -0.25 -2.95 -1.25 -1.6 -1.5 -1.25" fill="#8d9537" fill-rule="evenodd" stroke="none"/>
    <path d="M-2.65 -1.55 L-2.55 -1.45 Q-2.7 -1.4 -2.75 -1.4 L-2.85 -1.55 Q-2.95 -1.7 -3.1 -1.7 -3.3 -1.7 -3.35 -1.55 L-3.45 -1.25 -3.65 -1.5 Q-3.55 -1.7 -3.55 -1.95 -3.5 -2.25 -3.5 -2.75 L-3.45 -2.8 -3.4 -2.6 Q-3.4 -2.4 -2.85 -1.8 L-2.65 -1.55 M-3.8 -1.65 L-4.2 -2.2 -4.4 -2.5 Q-4.3 -2.8 -4.3 -3.2 L-4.35 -3.3 Q-4.1 -2.9 -3.8 -2.65 -3.65 -2.35 -3.65 -2.15 L-3.8 -1.65 M-2.65 -1.6 L-2.8 -1.8 Q-3.2 -2.3 -3.25 -2.6 L-3.2 -2.65 -3.15 -2.65 -3.05 -2.7 -2.9 -2.85 -2.75 -2.65 -2.75 -2.55 -2.65 -1.6" fill="#e7e2ab" fill-rule="evenodd" stroke="none"/>
    <path d="M-2.65 -1.55 L-2.3 -1.25 -2.5 -1.1 -3.15 -0.65 -3.35 -0.5 -3.65 -0.65 -3.7 -0.6 -4.6 -1.75 Q-5.6 -3.05 -6.1 -3.5 L-5.95 -3.6 -5.85 -3.65 -5.55 -3.95 -5.15 -4.4 -4.45 -3.4 -4.35 -3.3 -4.3 -3.2 Q-4.3 -2.8 -4.4 -2.5 L-4.2 -2.2 -3.8 -1.65 Q-3.9 -1.35 -3.85 -1.15 L-3.75 -1.3 -3.65 -1.5 -3.45 -1.25 -3.35 -1.55 Q-3.3 -1.7 -3.1 -1.7 -2.95 -1.7 -2.85 -1.55 L-2.75 -1.4 Q-2.7 -1.4 -2.55 -1.45 L-2.65 -1.55 M-2.65 -1.6 L-2.75 -2.55 Q-2.4 -2.1 -2.1 -1.7 L-1.95 -1.55 -1.95 -1.5 -2.0 -1.45 -2.1 -1.3 -2.15 -1.35 -2.25 -1.25 -2.65 -1.6" fill="#a6b665" fill-rule="evenodd" stroke="none"/>
    <path d="M-1.5 -1.25 L-1.25 -1.6 -0.25 -2.95 -0.1 -1.85 Q0.2 -0.35 0.35 -0.35 0.45 -0.35 0.5 -0.5 L0.55 -0.65 Q0.55 -0.8 0.1 -2.75 L0.0 -3.1 -0.05 -3.25 0.95 -4.65 1.75 -6.05 1.65 -4.5 Q1.65 -3.35 1.55 -2.2 1.35 0.1 0.85 0.1 0.75 0.1 0.45 0.0 L0.4 0.0 0.1 -0.2 Q-0.3 -0.35 -0.75 -0.7 -1.25 -1.05 -1.5 -1.25" fill="#5e842b" fill-rule="evenodd" stroke="none"/>
    <path d="M-8.05 -6.35 L-7.95 -6.2 -7.85 -6.1 Q-7.75 -5.9 -7.45 -5.55 L-7.45 -5.5 -7.25 -5.3 -7.2 -5.3 -7.25 -5.4 -7.2 -5.4 -7.2 -5.45 Q-7.75 -6.2 -7.75 -6.55 L-7.8 -6.6 -7.75 -6.9 -7.6 -7.35 -7.55 -7.35 -7.55 -7.4 Q-7.35 -8.05 -7.15 -8.45 L-6.95 -8.45 -6.85 -8.3 -6.75 -8.2 -6.8 -7.95 -6.8 -7.85 Q-6.85 -7.45 -6.95 -7.05 L-7.1 -6.5 Q-7.1 -6.4 -7.0 -6.4 L-7.0 -6.35 -6.95 -6.35 -6.8 -6.3 -6.7 -6.4 Q-6.5 -6.55 -6.15 -7.35 -5.95 -7.75 -5.75 -7.9 -5.75 -8.1 -5.5 -8.2 -5.3 -8.3 -5.25 -8.15 L-5.2 -8.15 -5.65 -7.05 -5.9 -6.25 -5.9 -6.15 -5.85 -6.1 Q-5.75 -6.25 -5.4 -7.1 L-5.1 -7.85 -4.9 -7.85 -4.85 -7.9 -4.8 -7.8 -4.8 -7.7 -4.85 -7.45 -4.85 -7.35 -4.9 -6.95 -5.1 -6.4 Q-5.25 -6.15 -5.45 -6.0 L-5.45 -5.95 -5.5 -5.95 Q-5.6 -5.85 -5.6 -5.7 L-5.6 -5.65 Q-5.55 -5.65 -5.4 -5.75 L-5.35 -5.75 -5.35 -5.4 Q-5.45 -5.3 -5.55 -5.2 L-6.05 -4.7 -6.0 -4.65 -5.9 -4.65 Q-5.7 -4.65 -5.55 -4.75 L-5.5 -4.7 -5.35 -4.5 -5.45 -4.4 -5.7 -4.05 -5.9 -3.9 -5.95 -3.95 Q-6.15 -4.3 -6.45 -4.65 -6.65 -4.8 -6.75 -4.85 -7.0 -5.0 -7.45 -5.25 L-7.55 -5.3 Q-7.8 -5.3 -8.05 -5.85 L-8.25 -6.5 Q-8.2 -6.5 -8.05 -6.35 M-7.3 -8.0 L-7.35 -8.0 -7.35 -7.95 -7.3 -8.0" fill="#f9a755" fill-rule="evenodd" stroke="none"/>
  </g>
</svg>
