<?xml version="1.0" encoding="UTF-8" standalone="no"?>
<svg xmlns:ffdec="https://www.free-decompiler.com/flash" xmlns:xlink="http://www.w3.org/1999/xlink" ffdec:objectType="shape" height="40.5px" width="29.05px" xmlns="http://www.w3.org/2000/svg">
  <g transform="matrix(1.0, 0.0, 0.0, 1.0, 13.4, 17.85)">
    <path d="M10.9 -6.5 L10.8 -6.6 Q11.45 -7.25 12.0 -8.25 12.7 -9.55 12.7 -10.35 12.7 -11.2 12.0 -12.55 11.65 -13.15 11.5 -13.6 L8.85 -10.5 8.85 -10.55 6.85 -8.2 6.8 -8.25 Q7.6 -9.3 8.8 -10.75 L8.8 -10.8 Q10.45 -12.7 11.4 -13.85 11.25 -14.25 11.25 -14.5 11.25 -15.4 11.95 -16.25 12.6 -17.15 13.9 -17.85 13.9 -17.9 13.9 -17.7 L13.6 -16.1 Q13.25 -14.4 13.25 -13.75 13.25 -12.7 13.8 -11.5 14.35 -10.3 14.35 -10.15 14.35 -10.0 13.5 -8.05 12.65 -6.1 12.15 -5.15 L12.0 -5.35 Q12.1 -6.1 13.0 -7.95 14.1 -10.05 14.1 -10.15 14.1 -10.3 13.9 -10.65 L13.55 -11.45 Q12.95 -12.6 12.95 -13.7 12.95 -14.5 13.1 -15.65 L13.2 -16.0 Q13.3 -16.95 13.45 -17.3 L13.45 -17.35 12.4 -16.35 12.0 -15.9 Q11.5 -15.25 11.5 -14.5 11.5 -14.35 11.6 -14.15 L11.7 -13.85 Q11.85 -13.4 12.2 -12.7 L12.25 -12.65 12.25 -12.6 Q12.95 -11.25 12.95 -10.7 12.95 -9.35 12.15 -8.0 11.55 -6.95 10.9 -6.5 M15.5 22.65 L15.65 22.45 15.6 22.6 15.5 22.65 M-9.05 10.65 L-8.85 10.75 -10.55 12.95 -9.6 12.95 -8.6 12.9 Q-7.1 12.8 -6.55 12.55 -6.25 12.4 -6.0 12.3 L-6.0 12.2 -5.9 12.2 -5.75 12.15 -5.65 12.15 Q-5.5 12.15 -5.4 12.35 L-5.45 12.75 -5.65 14.05 -5.7 14.05 -6.15 14.4 -6.85 14.4 -7.85 14.2 Q-8.7 13.95 -9.05 14.05 -10.25 14.15 -11.5 15.55 -12.15 16.35 -12.65 17.1 -12.9 17.1 -13.4 15.4 -13.4 14.9 -11.2 13.05 -11.05 13.0 -10.75 12.95 L-9.05 10.65 M-5.4 -14.25 L-5.35 -14.35 -5.45 -14.05 -5.5 -14.05 -5.4 -14.25 M-10.35 13.2 L-10.45 13.2 -10.75 13.25 -11.0 13.25 -11.05 13.3 Q-11.25 13.35 -12.15 14.25 -13.15 15.15 -13.15 15.4 -13.15 15.55 -12.95 16.05 L-12.95 16.1 -12.9 16.15 -12.8 16.45 -12.65 16.7 -12.5 16.45 -12.4 16.3 -11.75 15.45 -11.5 15.15 Q-10.15 13.75 -8.9 13.75 -7.7 13.8 -6.7 14.15 L-6.25 14.15 -5.85 13.75 -5.65 12.4 -6.1 12.7 Q-6.65 13.0 -7.9 13.1 L-8.7 13.1 -9.85 13.15 -10.35 13.2" fill="#111111" fill-rule="evenodd" stroke="none"/>
    <path d="M12.2 -12.7 Q11.85 -13.4 11.7 -13.85 L11.6 -14.15 Q11.5 -14.35 11.5 -14.5 11.5 -15.25 12.0 -15.9 L12.4 -16.35 13.45 -17.35 13.45 -17.3 Q13.3 -16.95 13.2 -16.0 L12.9 -15.45 Q12.75 -14.7 12.6 -14.2 12.4 -13.6 12.1 -13.35 L12.2 -12.7 M-12.8 16.45 L-12.9 16.15 -12.95 16.1 -12.95 16.05 Q-13.15 15.55 -13.15 15.4 -13.15 15.15 -12.15 14.25 -11.25 13.35 -11.05 13.3 L-11.0 13.25 -10.75 13.25 -10.45 13.2 -10.35 13.2 Q-10.3 13.3 -10.3 13.5 -10.3 13.6 -10.85 14.2 L-11.55 15.05 -11.75 15.45 -12.4 16.3 -12.5 16.45 -12.8 16.45 M-9.85 13.15 L-8.7 13.1 -7.9 13.1 Q-7.9 13.3 -8.15 13.4 -8.55 13.6 -9.35 13.6 -9.75 13.6 -9.9 13.5 -9.95 13.45 -9.95 13.35 -9.95 13.2 -9.85 13.15" fill="#9a5a2c" fill-rule="evenodd" stroke="none"/>
    <path d="M12.0 -5.35 L11.6 -5.8 10.9 -6.5 Q11.55 -6.95 12.15 -8.0 12.95 -9.35 12.95 -10.7 12.95 -11.25 12.25 -12.6 L12.25 -12.65 12.2 -12.7 12.1 -13.35 Q12.4 -13.6 12.6 -14.2 12.75 -14.7 12.9 -15.45 L13.2 -16.0 13.1 -15.65 Q12.95 -14.5 12.95 -13.7 12.95 -12.6 13.55 -11.45 L13.9 -10.65 Q14.1 -10.3 14.1 -10.15 14.1 -10.05 13.0 -7.95 12.1 -6.1 12.0 -5.35 M-10.35 13.2 L-9.85 13.15 Q-9.95 13.2 -9.95 13.35 -9.95 13.45 -9.9 13.5 -9.75 13.6 -9.35 13.6 -8.55 13.6 -8.15 13.4 -7.9 13.3 -7.9 13.1 -6.65 13.0 -6.1 12.7 L-5.65 12.4 -5.85 13.75 -6.25 14.15 -6.7 14.15 Q-7.7 13.8 -8.9 13.75 -10.15 13.75 -11.5 15.15 L-11.75 15.45 -11.55 15.05 -10.85 14.2 Q-10.3 13.6 -10.3 13.5 -10.3 13.3 -10.35 13.2 M-12.5 16.45 L-12.65 16.7 -12.8 16.45 -12.5 16.45" fill="#97492f" fill-rule="evenodd" stroke="none"/>
  </g>
</svg>
