<?xml version="1.0" encoding="UTF-8" standalone="no"?>
<svg xmlns:ffdec="https://www.free-decompiler.com/flash" xmlns:xlink="http://www.w3.org/1999/xlink" ffdec:objectType="shape" height="21.7px" width="15.1px" xmlns="http://www.w3.org/2000/svg">
  <g transform="matrix(1.0, 0.0, 0.0, 1.0, 1.5, 21.2)">
    <path d="M11.95 -18.5 L12.2 -18.15 12.25 -18.05 12.35 -18.15 12.45 -18.05 12.5 -17.9 12.45 -17.8 12.75 -17.45 12.75 -17.4 12.8 -17.35 12.8 -17.25 12.4 -15.95 Q12.05 -14.65 12.05 -14.5 12.05 -13.85 12.15 -13.3 L12.25 -13.1 Q12.45 -12.65 12.7 -12.45 L13.6 -10.05 13.45 -9.9 Q13.1 -9.45 12.9 -9.1 L12.7 -8.9 12.75 -8.8 Q12.65 -8.65 12.65 -8.5 12.65 -8.3 12.9 -7.45 L13.2 -6.45 13.4 -5.6 Q13.3 -4.85 12.1 -4.0 10.9 -3.15 9.5 -2.9 L9.55 -2.9 Q9.55 -2.75 9.7 -2.4 L10.05 -2.05 10.05 -2.0 10.1 -2.0 10.15 -1.9 Q10.4 -1.65 10.6 -1.55 L10.7 -1.5 11.15 -1.5 11.35 -1.45 11.45 -1.4 Q11.75 -1.25 12.0 -0.95 12.4 -0.45 12.4 -0.05 L12.35 0.15 12.3 0.2 12.2 0.25 12.15 0.1 12.15 0.15 12.0 0.15 11.1 0.1 11.05 0.1 11.05 0.15 11.0 0.2 11.0 0.25 10.95 0.25 10.8 0.35 Q10.6 0.45 10.5 0.45 L9.75 0.45 Q9.45 0.45 9.25 0.4 L9.15 0.35 9.1 0.35 8.1 0.15 8.0 0.0 8.0 -0.35 Q8.0 -0.45 8.0 -0.55 8.0 -0.8 8.15 -1.55 8.3 -2.3 8.3 -2.6 L8.35 -2.8 8.15 -2.8 Q7.7 -2.8 7.25 -3.05 L7.1 -3.15 7.0 -3.15 6.9 -3.3 Q6.8 -3.4 6.8 -3.45 L6.85 -3.45 Q6.7 -3.75 6.5 -4.25 L6.25 -4.9 6.15 -4.6 6.15 -4.55 6.05 -4.2 Q5.95 -4.05 5.9 -3.9 L5.85 -3.8 5.85 -3.75 5.8 -3.75 5.7 -3.45 5.65 -3.4 5.55 -3.45 5.5 -3.45 5.15 -3.4 5.15 -3.25 Q5.15 -3.1 5.1 -2.95 L5.05 -2.8 5.25 -1.9 5.45 -1.25 5.8 -0.45 5.8 -0.35 5.75 -0.3 Q5.75 -0.25 5.7 -0.25 5.4 0.05 4.7 0.25 4.05 0.5 3.7 0.5 3.4 0.5 3.2 0.2 L2.95 -0.15 2.65 -0.15 2.45 -0.1 1.8 -0.1 1.7 -0.2 1.4 -0.2 Q1.35 -0.2 1.3 -0.25 L1.25 -0.4 Q1.25 -0.5 1.45 -0.9 1.65 -1.4 1.9 -1.75 2.6 -2.7 3.25 -2.05 L3.6 -2.1 3.7 -2.2 Q4.0 -2.5 4.0 -2.7 L4.05 -3.1 4.05 -3.4 Q3.7 -3.5 3.55 -3.65 L3.5 -3.65 Q3.2 -3.8 2.8 -4.3 2.55 -4.55 2.25 -5.05 1.65 -5.95 1.65 -6.4 L1.6 -6.5 1.65 -6.75 Q1.7 -7.05 1.8 -7.45 1.9 -7.75 2.0 -7.95 L2.05 -8.1 2.0 -8.3 Q1.75 -8.65 1.75 -8.7 L1.75 -8.75 Q1.6 -9.0 1.55 -9.2 1.55 -9.3 1.55 -9.85 1.55 -9.95 1.65 -11.0 1.65 -11.15 1.85 -12.3 2.05 -13.7 2.05 -14.75 L2.1 -14.95 2.05 -15.0 2.05 -15.05 2.1 -15.15 Q2.15 -15.55 2.25 -15.85 L2.3 -15.9 Q2.6 -16.65 3.05 -17.45 L3.75 -18.45 Q3.95 -18.8 4.3 -19.2 5.2 -20.35 6.45 -20.85 7.9 -21.45 9.15 -20.95 9.6 -20.75 9.95 -20.45 10.05 -20.35 10.2 -20.25 L10.3 -20.25 11.1 -19.35 11.95 -18.5 M11.85 -18.3 L11.55 -18.75 Q11.35 -18.95 11.2 -19.0 L11.15 -19.15 11.1 -19.15 11.0 -19.25 9.35 -20.65 Q8.6 -21.0 7.65 -21.0 6.1 -21.0 4.85 -19.6 L4.55 -19.15 3.7 -18.05 3.3 -17.4 3.25 -17.0 3.2 -16.8 3.2 -16.35 3.25 -15.8 Q3.45 -14.3 4.45 -12.65 L5.0 -11.9 5.05 -11.85 5.05 -11.8 5.1 -11.75 5.1 -11.7 Q5.15 -11.55 5.15 -11.4 L5.1 -11.15 5.1 -11.05 Q5.1 -10.65 5.0 -10.25 L6.35 -10.4 7.85 -10.6 7.85 -10.8 7.8 -11.25 Q7.8 -11.55 7.9 -11.7 8.1 -12.8 9.85 -15.1 10.7 -16.2 11.85 -17.55 L12.1 -18.05 11.85 -18.3 M12.35 -17.7 L12.05 -17.35 11.9 -17.15 Q10.5 -15.3 9.65 -14.2 9.15 -13.45 8.8 -12.85 L8.65 -12.6 Q8.3 -11.95 8.15 -11.35 L8.15 -11.25 8.1 -11.05 8.15 -10.6 8.15 -9.95 Q8.25 -9.2 8.3 -8.9 8.4 -8.5 8.9 -7.75 9.25 -7.25 9.45 -7.1 L9.65 -6.9 10.85 -7.9 Q12.45 -9.15 13.3 -10.15 13.15 -10.4 12.95 -11.1 L12.75 -12.05 12.45 -12.25 Q12.25 -12.45 12.05 -12.85 L11.95 -13.1 Q11.85 -13.5 11.85 -13.9 L11.85 -13.95 Q11.8 -14.25 11.8 -14.5 11.8 -14.75 11.95 -15.3 12.0 -15.75 12.15 -16.15 L12.3 -16.8 12.35 -16.85 12.45 -17.3 12.6 -17.5 12.4 -17.65 12.4 -17.7 12.35 -17.7 M5.1 -18.1 Q5.15 -18.05 5.2 -18.0 L5.15 -17.45 Q5.0 -16.4 5.0 -16.1 5.0 -15.1 5.45 -14.45 5.55 -14.4 5.6 -14.2 5.75 -14.0 5.95 -13.85 L6.0 -13.85 6.0 -14.05 6.1 -14.05 6.15 -13.85 6.4 -13.85 6.5 -13.95 6.45 -14.05 6.55 -14.0 8.75 -16.65 Q9.9 -18.15 10.2 -19.25 L10.3 -19.3 10.35 -19.25 Q10.3 -18.45 8.65 -16.25 7.35 -14.5 6.7 -13.9 L7.05 -13.55 Q7.45 -13.15 7.45 -13.05 L7.45 -12.6 Q7.4 -12.3 7.15 -12.3 6.6 -12.3 6.55 -12.95 L6.55 -13.75 6.4 -13.7 6.2 -13.7 6.3 -13.35 Q6.45 -12.95 6.45 -12.7 L6.4 -12.2 Q6.3 -11.75 6.1 -11.75 5.75 -11.75 5.7 -12.1 5.65 -12.3 5.65 -12.5 5.65 -12.65 5.75 -13.15 L5.85 -13.7 5.6 -14.0 5.6 -13.85 5.5 -13.15 Q5.45 -12.65 5.35 -12.5 5.15 -12.5 5.0 -12.8 4.85 -13.05 4.85 -13.2 4.85 -13.5 5.0 -13.7 5.2 -14.0 5.35 -14.35 5.15 -14.6 5.05 -14.85 4.9 -15.35 4.9 -16.1 4.9 -16.55 5.05 -17.55 L5.1 -18.1 M2.35 -14.55 Q2.35 -13.95 2.15 -12.65 L2.1 -12.35 2.1 -12.25 2.05 -11.8 2.0 -11.7 Q1.7 -10.45 1.7 -9.55 2.15 -7.65 3.05 -7.6 3.15 -7.55 3.3 -7.55 3.4 -7.8 4.1 -8.8 L4.25 -9.0 4.4 -9.45 Q4.7 -10.1 4.75 -10.7 4.9 -11.05 4.9 -11.25 L4.8 -11.65 4.7 -12.0 Q4.3 -12.45 3.95 -13.0 3.55 -13.5 3.35 -14.05 L3.25 -14.2 3.25 -14.35 3.15 -14.55 Q3.0 -15.1 3.0 -15.75 L2.95 -15.85 Q2.9 -16.1 2.9 -16.4 L2.9 -16.5 2.7 -16.05 Q2.6 -15.75 2.5 -15.45 L2.35 -14.75 2.35 -14.55 M2.65 -14.5 L2.65 -14.5 M10.7 -19.7 Q10.4 -20.1 10.05 -20.35 L9.8 -20.5 Q10.1 -20.3 10.45 -20.0 L10.7 -19.7 M7.3 -12.75 Q7.3 -13.05 7.15 -13.3 L6.6 -13.8 Q6.65 -13.7 6.65 -13.45 L6.65 -13.1 Q6.7 -12.6 7.25 -12.45 7.3 -12.6 7.3 -12.75 M5.95 -13.7 L6.0 -13.35 5.95 -12.85 5.8 -12.3 5.8 -11.95 5.85 -11.9 5.95 -11.9 Q6.15 -11.9 6.25 -12.15 L6.3 -12.45 Q6.3 -12.65 6.15 -13.25 L6.05 -13.7 5.95 -13.7 M7.55 -9.2 L7.45 -9.25 6.8 -9.45 Q5.5 -9.7 5.0 -9.7 L4.8 -9.7 4.6 -9.25 4.05 -8.4 4.0 -8.25 4.05 -8.15 4.0 -8.1 Q4.0 -7.85 4.35 -7.65 4.8 -7.35 5.8 -7.35 L7.6 -7.3 8.05 -7.3 8.1 -7.35 8.35 -7.35 8.45 -7.45 Q8.55 -7.45 8.6 -7.5 L8.65 -7.5 8.5 -7.85 Q8.3 -8.2 8.2 -8.6 L8.1 -9.05 7.9 -9.05 7.55 -9.2 M7.9 -10.35 L7.8 -10.4 6.85 -10.2 5.2 -10.1 4.95 -10.1 4.85 -9.8 Q6.15 -9.75 7.0 -9.55 7.6 -9.4 8.05 -9.15 7.9 -9.75 7.9 -10.35 M8.2 -7.3 L6.7 -7.25 4.75 -7.35 Q5.6 -6.85 6.7 -6.85 7.2 -6.85 7.5 -6.95 L8.2 -7.3 M5.4 -14.05 L5.1 -13.6 Q5.0 -13.35 5.0 -13.25 5.0 -13.1 5.05 -12.95 L5.25 -12.6 Q5.35 -12.85 5.4 -13.35 5.45 -13.75 5.4 -14.1 L5.4 -14.05 M5.55 -11.45 L5.55 -11.5 5.65 -11.5 5.55 -11.45 M2.1 -7.3 Q1.9 -6.75 1.9 -6.5 L1.9 -6.35 2.05 -6.1 2.05 -6.05 Q2.3 -5.55 2.6 -5.1 L2.75 -4.85 Q3.4 -3.85 4.3 -3.7 L4.9 -3.6 Q5.3 -3.6 5.45 -3.7 5.5 -3.7 5.55 -3.8 L5.8 -4.5 Q5.95 -5.05 6.1 -5.35 L6.15 -5.4 Q6.1 -5.6 6.2 -5.5 L6.25 -5.6 6.2 -5.7 5.85 -5.95 5.4 -6.4 Q5.55 -6.25 5.95 -6.05 L6.1 -5.95 6.3 -5.8 6.45 -5.65 Q6.5 -5.05 6.8 -4.5 6.9 -4.25 6.95 -4.1 7.0 -3.9 7.15 -3.75 7.55 -3.3 8.55 -3.3 9.2 -3.3 10.0 -3.5 L10.35 -3.6 Q10.65 -3.7 10.7 -3.8 L10.75 -3.8 11.05 -3.95 Q11.2 -4.0 11.4 -4.1 L11.65 -4.25 12.25 -4.6 Q12.5 -4.85 12.7 -5.15 L12.9 -5.5 12.95 -5.7 12.95 -5.95 Q12.8 -6.3 12.65 -7.05 12.55 -7.5 12.5 -7.95 L12.45 -8.3 12.4 -8.5 12.35 -8.45 11.9 -8.25 11.65 -8.05 Q10.75 -7.35 10.15 -7.0 L9.6 -6.55 9.5 -6.55 9.55 -6.5 9.5 -6.5 9.35 -6.55 9.35 -6.6 Q9.2 -6.75 9.05 -6.95 8.9 -7.05 8.8 -7.2 8.6 -7.05 8.1 -6.9 L7.35 -6.7 7.2 -6.6 6.9 -6.6 Q6.8 -6.55 6.65 -6.55 5.5 -6.55 4.45 -7.3 4.0 -7.6 3.8 -7.85 L3.6 -7.6 3.55 -7.5 3.5 -7.5 3.4 -7.3 3.2 -7.3 Q2.9 -7.3 2.35 -7.9 2.3 -7.7 2.1 -7.3 M4.6 -9.8 L4.6 -9.8 M4.55 -9.6 L4.55 -9.6 M5.0 -5.3 L5.0 -5.3 M1.65 -0.55 L1.6 -0.45 2.85 -0.4 3.0 -0.4 3.0 -0.45 3.05 -0.55 Q3.05 -0.65 3.15 -0.7 L3.15 -0.4 Q3.35 -0.35 3.45 -0.15 L3.6 0.1 4.05 0.1 4.85 -0.25 5.1 -0.35 5.05 -0.65 5.05 -0.7 Q5.05 -1.1 4.75 -1.3 4.65 -1.45 4.45 -1.45 L4.15 -1.5 Q3.75 -1.5 3.5 -1.25 3.35 -1.1 3.3 -0.85 L3.25 -1.3 Q3.15 -1.7 2.85 -1.75 L2.9 -1.85 2.6 -1.8 Q2.45 -1.7 2.3 -1.6 2.15 -1.45 2.0 -1.25 1.65 -0.75 1.65 -0.55 M4.85 -3.3 L4.85 -3.35 4.65 -3.35 4.35 -3.4 4.35 -3.25 Q4.5 -3.3 4.75 -3.05 L4.75 -3.15 4.85 -3.3 M4.75 -2.85 Q4.45 -3.05 4.35 -3.15 L4.3 -2.95 4.25 -2.65 4.25 -2.4 4.45 -2.4 4.9 -2.05 4.85 -2.25 4.8 -2.5 Q4.75 -2.65 4.75 -2.7 L4.75 -2.85 M4.85 -1.85 L4.4 -2.3 4.15 -2.3 Q4.1 -2.3 3.95 -2.2 3.8 -2.0 3.6 -1.9 L3.45 -1.75 3.2 -1.6 3.3 -1.15 3.45 -1.35 3.65 -1.45 Q3.8 -1.65 4.45 -1.7 4.85 -1.65 5.1 -1.1 5.25 -0.7 5.25 -0.4 L5.4 -0.45 5.4 -0.55 Q5.3 -0.85 5.15 -1.3 5.05 -1.6 5.0 -1.75 L4.85 -1.85 M8.75 -2.9 L8.75 -2.85 Q8.75 -2.3 8.55 -1.45 8.3 -0.5 8.25 0.0 L8.3 0.0 8.7 0.05 8.7 0.0 Q8.7 -0.45 8.95 -0.85 9.25 -1.2 9.6 -1.35 L9.65 -1.35 Q10.35 -1.45 10.6 -1.05 L10.65 -1.15 10.7 -1.15 10.45 -1.25 10.4 -1.3 Q9.8 -1.5 9.5 -2.2 9.35 -2.5 9.25 -2.85 L9.2 -3.0 8.75 -3.0 8.75 -2.9 M9.95 -1.2 L9.7 -1.25 Q9.2 -1.2 8.95 -0.7 8.75 -0.25 8.85 0.1 L8.95 0.1 9.25 0.2 Q9.4 0.25 9.8 0.25 L10.25 0.2 10.4 0.2 10.6 0.15 10.7 0.15 10.6 -0.05 10.5 -0.45 Q10.35 -0.85 10.1 -1.1 L10.05 -1.15 9.8 -1.2 9.75 -1.25 9.95 -1.2 M10.9 -1.1 Q10.8 -0.95 10.7 -0.8 10.8 -0.55 10.85 -0.1 L11.25 -0.1 Q11.7 -0.1 12.05 0.0 L12.1 0.0 12.1 -0.15 Q11.95 -0.6 11.8 -0.75 11.6 -1.0 11.15 -1.25 L11.05 -1.2 11.05 -1.15 Q11.05 -1.1 10.95 -1.1 L10.9 -1.1" fill="#000000" fill-rule="evenodd" stroke="none"/>
    <path d="M5.95 -13.7 L6.05 -13.7 6.15 -13.25 Q6.3 -12.65 6.3 -12.45 L6.25 -12.15 Q6.15 -11.9 5.95 -11.9 L5.85 -11.9 5.8 -11.95 5.8 -12.3 5.95 -12.85 6.0 -13.35 5.95 -13.7 M7.3 -12.75 Q7.3 -12.6 7.25 -12.45 6.7 -12.6 6.65 -13.1 L6.65 -13.45 Q6.65 -13.7 6.6 -13.8 L7.15 -13.3 Q7.3 -13.05 7.3 -12.75 M5.4 -14.05 L5.4 -14.1 Q5.45 -13.75 5.4 -13.35 5.35 -12.85 5.25 -12.6 L5.05 -12.95 Q5.0 -13.1 5.0 -13.25 5.0 -13.35 5.1 -13.6 L5.4 -14.05 M1.65 -0.55 Q1.65 -0.75 2.0 -1.25 2.15 -1.45 2.3 -1.6 2.45 -1.7 2.6 -1.8 L2.9 -1.85 2.85 -1.75 Q3.15 -1.7 3.25 -1.3 L3.3 -0.85 Q3.35 -1.1 3.5 -1.25 3.75 -1.5 4.15 -1.5 L4.45 -1.45 Q4.65 -1.45 4.75 -1.3 5.05 -1.1 5.05 -0.7 L5.05 -0.65 5.1 -0.35 4.85 -0.25 4.05 0.1 3.6 0.1 3.45 -0.15 Q3.35 -0.35 3.15 -0.4 L3.15 -0.7 Q3.05 -0.65 3.05 -0.55 L3.0 -0.45 3.0 -0.4 2.85 -0.4 1.6 -0.45 1.65 -0.55 M4.75 -2.85 L4.75 -2.7 Q4.75 -2.65 4.8 -2.5 L4.85 -2.25 4.9 -2.05 4.45 -2.4 4.25 -2.4 4.25 -2.65 4.3 -2.95 4.35 -3.15 Q4.45 -3.05 4.75 -2.85 M4.85 -3.3 L4.75 -3.15 4.75 -3.05 Q4.5 -3.3 4.35 -3.25 L4.35 -3.4 4.65 -3.35 4.85 -3.35 4.85 -3.3 M9.95 -1.2 L9.75 -1.25 9.8 -1.2 10.05 -1.15 10.1 -1.1 Q10.35 -0.85 10.5 -0.45 L10.6 -0.05 10.7 0.15 10.6 0.15 10.4 0.2 10.25 0.2 9.8 0.25 Q9.4 0.25 9.25 0.2 L8.95 0.1 8.85 0.1 Q8.75 -0.25 8.95 -0.7 9.2 -1.2 9.7 -1.25 L9.95 -1.2 M10.9 -1.1 L10.95 -1.1 Q11.05 -1.1 11.05 -1.15 L11.05 -1.2 11.15 -1.25 Q11.6 -1.0 11.8 -0.75 11.95 -0.6 12.1 -0.15 L12.1 0.0 12.05 0.0 Q11.7 -0.1 11.25 -0.1 L10.85 -0.1 Q10.8 -0.55 10.7 -0.8 10.8 -0.95 10.9 -1.1" fill="#ffffff" fill-rule="evenodd" stroke="none"/>
    <path d="M8.75 -2.9 L8.75 -3.0 9.2 -3.0 9.25 -2.85 Q9.35 -2.5 9.5 -2.2 9.8 -1.5 10.4 -1.3 L10.45 -1.25 10.7 -1.15 10.65 -1.15 10.6 -1.05 Q10.35 -1.45 9.65 -1.35 L9.6 -1.35 Q9.25 -1.2 8.95 -0.85 8.7 -0.45 8.7 0.0 L8.7 0.05 8.3 0.0 8.25 0.0 Q8.3 -0.5 8.55 -1.45 8.75 -2.3 8.75 -2.85 L8.75 -2.9 M4.85 -1.85 L5.0 -1.75 Q5.05 -1.6 5.15 -1.3 5.3 -0.85 5.4 -0.55 L5.4 -0.45 5.25 -0.4 Q5.25 -0.7 5.1 -1.1 4.85 -1.65 4.45 -1.7 3.8 -1.65 3.65 -1.45 L3.45 -1.35 3.3 -1.15 3.2 -1.6 3.45 -1.75 3.6 -1.9 Q3.8 -2.0 3.95 -2.2 4.1 -2.3 4.15 -2.3 L4.4 -2.3 4.85 -1.85" fill="#c4688f" fill-rule="evenodd" stroke="none"/>
    <path d="M12.35 -17.7 L12.4 -17.7 12.4 -17.65 12.6 -17.5 12.45 -17.3 12.35 -16.85 12.3 -16.8 12.15 -16.15 Q12.0 -15.75 11.95 -15.3 11.8 -14.75 11.8 -14.5 11.8 -14.25 11.85 -13.95 L11.85 -13.9 Q11.85 -13.5 11.95 -13.1 L12.05 -12.85 Q12.25 -12.45 12.45 -12.25 L12.75 -12.05 12.95 -11.1 Q13.15 -10.4 13.3 -10.15 12.45 -9.15 10.85 -7.9 L9.65 -6.9 9.45 -7.1 Q9.25 -7.25 8.9 -7.75 8.4 -8.5 8.3 -8.9 8.25 -9.2 8.15 -9.95 L8.15 -10.6 8.1 -11.05 8.15 -11.25 8.15 -11.35 Q8.3 -11.95 8.65 -12.6 L8.8 -12.85 Q9.15 -13.45 9.65 -14.2 10.5 -15.3 11.9 -17.15 L12.05 -17.35 12.35 -17.7 M2.35 -14.55 L2.35 -14.75 2.5 -15.45 Q2.6 -15.75 2.7 -16.05 L2.9 -16.5 2.9 -16.4 Q2.9 -16.1 2.95 -15.85 L3.0 -15.75 Q3.0 -15.1 3.15 -14.55 L3.25 -14.35 3.25 -14.2 3.35 -14.05 Q3.55 -13.5 3.95 -13.0 4.3 -12.45 4.7 -12.0 L4.8 -11.65 4.9 -11.25 Q4.9 -11.05 4.75 -10.7 4.7 -10.1 4.4 -9.45 L4.25 -9.0 4.1 -8.8 Q3.4 -7.8 3.3 -7.55 3.15 -7.55 3.05 -7.6 2.15 -7.65 1.7 -9.55 1.7 -10.45 2.0 -11.7 L2.05 -11.8 2.1 -12.25 2.1 -12.35 2.15 -12.65 Q2.35 -13.95 2.35 -14.55 M2.65 -14.5 L2.65 -14.5" fill="#505e69" fill-rule="evenodd" stroke="none"/>
    <path d="M2.1 -7.3 Q2.3 -7.7 2.35 -7.9 2.9 -7.3 3.2 -7.3 L3.4 -7.3 3.5 -7.5 3.55 -7.5 3.6 -7.6 3.8 -7.85 Q4.0 -7.6 4.45 -7.3 5.5 -6.55 6.65 -6.55 6.8 -6.55 6.9 -6.6 L7.2 -6.6 7.35 -6.7 8.1 -6.9 Q8.6 -7.05 8.8 -7.2 8.9 -7.05 9.05 -6.95 9.2 -6.75 9.35 -6.6 L9.35 -6.55 9.5 -6.5 9.55 -6.5 9.5 -6.55 9.6 -6.55 10.15 -7.0 Q10.75 -7.35 11.65 -8.05 L11.9 -8.25 12.35 -8.45 12.4 -8.5 12.45 -8.3 12.5 -7.95 Q12.55 -7.5 12.65 -7.05 12.8 -6.3 12.95 -5.95 L12.95 -5.7 12.9 -5.5 12.7 -5.15 Q12.5 -4.85 12.25 -4.6 L11.65 -4.25 11.4 -4.1 Q11.2 -4.0 11.05 -3.95 L10.75 -3.8 10.7 -3.8 Q10.65 -3.7 10.35 -3.6 L10.0 -3.5 Q9.2 -3.3 8.55 -3.3 7.55 -3.3 7.15 -3.75 7.0 -3.9 6.95 -4.1 6.9 -4.25 6.8 -4.5 6.5 -5.05 6.45 -5.65 L6.3 -5.8 6.1 -5.95 5.95 -6.05 Q5.55 -6.25 5.4 -6.4 L5.85 -5.95 6.2 -5.7 6.25 -5.6 6.2 -5.5 Q6.1 -5.6 6.15 -5.4 L6.1 -5.35 Q5.95 -5.05 5.8 -4.5 L5.55 -3.8 Q5.5 -3.7 5.45 -3.7 5.3 -3.6 4.9 -3.6 L4.3 -3.7 Q3.4 -3.85 2.75 -4.85 L2.6 -5.1 Q2.3 -5.55 2.05 -6.05 L2.05 -6.1 1.9 -6.35 1.9 -6.5 Q1.9 -6.75 2.1 -7.3 M5.0 -5.3 L5.0 -5.3" fill="#a93e23" fill-rule="evenodd" stroke="none"/>
    <path d="M7.9 -10.35 Q7.9 -9.75 8.05 -9.15 7.6 -9.4 7.0 -9.55 6.15 -9.75 4.85 -9.8 L4.95 -10.1 5.2 -10.1 6.85 -10.2 7.8 -10.4 7.9 -10.35 M7.55 -9.2 L7.9 -9.05 8.1 -9.05 8.2 -8.6 Q8.3 -8.2 8.5 -7.85 L8.65 -7.5 8.6 -7.5 Q8.55 -7.45 8.45 -7.45 L8.35 -7.35 8.1 -7.35 8.05 -7.3 7.6 -7.3 5.8 -7.35 Q4.8 -7.35 4.35 -7.65 4.0 -7.85 4.0 -8.1 L4.05 -8.15 4.0 -8.25 4.05 -8.4 4.6 -9.25 4.8 -9.7 5.0 -9.7 Q5.5 -9.7 6.8 -9.45 L7.45 -9.25 7.55 -9.2 M8.2 -7.3 L7.5 -6.95 Q7.2 -6.85 6.7 -6.85 5.6 -6.85 4.75 -7.35 L6.7 -7.25 8.2 -7.3" fill="#5bb152" fill-rule="evenodd" stroke="none"/>
    <path d="M11.85 -18.3 L12.1 -18.05 11.85 -17.55 Q10.7 -16.2 9.85 -15.1 8.1 -12.8 7.9 -11.7 7.8 -11.55 7.8 -11.25 L7.85 -10.8 7.85 -10.6 6.35 -10.4 5.0 -10.25 Q5.1 -10.65 5.1 -11.05 L5.1 -11.15 5.15 -11.4 Q5.15 -11.55 5.1 -11.7 L5.1 -11.75 5.05 -11.8 5.05 -11.85 5.0 -11.9 4.45 -12.65 Q3.45 -14.3 3.25 -15.8 L3.2 -16.35 3.2 -16.8 3.25 -17.0 3.3 -17.4 3.7 -18.05 4.55 -19.15 4.85 -19.6 Q6.1 -21.0 7.65 -21.0 8.6 -21.0 9.35 -20.65 L11.0 -19.25 11.1 -19.15 11.15 -19.15 11.2 -19.0 Q11.35 -18.95 11.55 -18.75 L11.85 -18.3 M5.1 -18.1 L5.05 -17.55 Q4.9 -16.55 4.9 -16.1 4.9 -15.35 5.05 -14.85 5.15 -14.6 5.35 -14.35 5.2 -14.0 5.0 -13.7 4.85 -13.5 4.85 -13.2 4.85 -13.05 5.0 -12.8 5.15 -12.5 5.35 -12.5 5.45 -12.65 5.5 -13.15 L5.6 -13.85 5.6 -14.0 5.85 -13.7 5.75 -13.15 Q5.65 -12.65 5.65 -12.5 5.65 -12.3 5.7 -12.1 5.75 -11.75 6.1 -11.75 6.3 -11.75 6.4 -12.2 L6.45 -12.7 Q6.45 -12.95 6.3 -13.35 L6.2 -13.7 6.4 -13.7 6.55 -13.75 6.55 -12.95 Q6.6 -12.3 7.15 -12.3 7.4 -12.3 7.45 -12.6 L7.45 -13.05 Q7.45 -13.15 7.05 -13.55 L6.7 -13.9 Q7.35 -14.5 8.65 -16.25 10.3 -18.45 10.35 -19.25 L10.3 -19.3 10.2 -19.25 Q9.9 -18.15 8.75 -16.65 L6.55 -14.0 6.45 -14.05 6.5 -13.95 6.4 -13.85 6.15 -13.85 6.1 -14.05 6.0 -14.05 6.0 -13.85 5.95 -13.85 Q5.75 -14.0 5.6 -14.2 5.55 -14.4 5.45 -14.45 5.0 -15.1 5.0 -16.1 5.0 -16.4 5.15 -17.45 L5.2 -18.0 Q5.15 -18.05 5.1 -18.1 M5.55 -11.45 L5.65 -11.5 5.55 -11.5 5.55 -11.45" fill="#d7a99d" fill-rule="evenodd" stroke="none"/>
  </g>
</svg>
