<?xml version="1.0" encoding="UTF-8" standalone="no"?>
<svg xmlns:ffdec="https://www.free-decompiler.com/flash" xmlns:xlink="http://www.w3.org/1999/xlink" ffdec:objectType="shape" height="20.65px" width="7.5px" xmlns="http://www.w3.org/2000/svg">
  <g transform="matrix(1.0, 0.0, 0.0, 1.0, -3.45, 19.8)">
    <path d="M7.05 -10.05 L7.05 -10.4 7.0 -10.8 Q6.95 -13.0 6.5 -14.7 6.0 -16.85 6.0 -18.7 6.0 -18.85 6.1 -19.0 5.55 -18.65 5.2 -18.05 4.95 -17.75 4.8 -17.3 4.7 -16.9 4.7 -16.25 L5.25 -14.9 5.75 -13.75 Q6.05 -12.5 6.05 -11.75 L6.0 -10.4 6.0 -10.2 5.95 -9.55 Q5.75 -7.85 5.35 -5.75 4.7 -2.2 4.7 -1.55 L4.7 -1.05 Q4.65 -0.5 4.65 -0.1 4.6 0.0 4.65 0.1 4.7 0.3 4.85 0.3 L5.25 0.4 5.75 0.45 5.75 0.4 Q5.85 -3.5 6.1 -4.7 L6.7 -7.15 Q7.05 -8.8 7.05 -9.75 L7.05 -10.05 M4.3 -16.3 Q4.3 -16.7 4.35 -16.9 4.45 -17.85 5.2 -18.6 6.0 -19.35 7.1 -19.65 8.2 -19.95 9.0 -19.65 9.7 -19.35 9.8 -18.7 L9.9 -18.55 10.2 -18.0 10.3 -17.75 10.5 -17.4 Q10.75 -16.85 10.85 -16.2 10.95 -15.75 10.95 -15.1 10.95 -14.05 10.75 -13.3 10.6 -12.85 10.3 -12.1 9.65 -10.6 9.65 -8.85 9.65 -6.85 9.25 -5.05 L9.25 -4.35 9.3 -2.85 Q9.3 -2.3 9.75 -1.05 L10.05 -0.15 10.2 0.15 9.65 0.45 9.4 0.55 8.35 0.75 7.7 0.85 5.8 0.85 5.15 0.7 4.3 0.5 4.1 0.4 Q3.45 0.2 3.45 0.0 L3.5 -0.25 Q3.55 -0.6 3.65 -1.05 L3.85 -1.6 Q3.85 -2.85 4.7 -6.05 L4.8 -6.35 4.8 -6.5 4.95 -6.9 Q5.4 -8.4 5.4 -8.95 L5.4 -9.2 5.5 -10.15 Q5.4 -10.85 5.05 -12.25 5.05 -13.7 4.9 -14.4 L4.75 -15.1 Q4.65 -15.55 4.5 -15.8 4.45 -16.0 4.3 -16.15 L4.3 -16.3 M4.85 -15.25 L4.85 -15.15 5.3 -13.1 5.55 -11.75 Q5.75 -10.8 5.75 -10.25 L5.75 -10.05 5.8 -10.05 5.8 -9.7 5.85 -10.75 Q5.85 -12.05 5.7 -13.1 5.5 -14.25 5.15 -14.9 L5.15 -14.75 4.95 -15.25 4.85 -15.25 M9.8 -18.0 L9.45 -18.5 9.05 -18.85 Q8.45 -19.45 8.0 -19.45 7.25 -19.45 6.65 -19.25 6.15 -18.45 6.15 -17.8 6.15 -16.6 6.65 -14.35 7.05 -12.55 7.15 -10.65 L7.15 -10.1 7.15 -9.75 Q7.15 -8.55 6.55 -6.15 5.95 -3.75 5.95 -2.55 L5.95 -2.35 Q5.9 -2.05 5.9 -1.5 5.9 -1.0 5.95 -0.5 6.0 0.5 6.25 0.5 L7.05 0.5 7.05 0.45 Q7.05 0.35 7.05 0.15 7.05 -1.7 7.7 -5.75 L8.3 -9.7 8.35 -9.85 8.35 -10.5 Q8.3 -11.65 8.2 -12.55 8.05 -13.65 8.05 -14.3 8.05 -15.2 8.3 -15.95 8.45 -16.3 8.6 -16.6 L8.75 -16.9 8.9 -17.1 9.1 -17.35 9.45 -17.65 Q9.35 -17.6 9.25 -17.5 9.5 -17.8 9.75 -17.9 L9.8 -17.95 9.8 -18.0 M8.7 -16.65 L8.55 -16.2 Q8.25 -15.25 8.25 -14.65 8.25 -13.55 8.4 -12.55 8.5 -11.7 8.55 -10.4 L8.55 -9.75 Q8.45 -9.05 8.1 -7.2 7.65 -4.95 7.65 -4.75 7.65 -4.5 7.45 -2.8 L7.35 -2.1 Q7.2 -1.0 7.2 -0.55 7.2 -0.25 7.35 0.1 L7.5 0.5 8.2 0.45 9.05 0.3 9.55 0.05 9.75 -0.1 9.5 -0.7 9.2 -1.25 9.1 -1.45 8.9 -2.5 8.85 -2.75 8.85 -4.35 9.0 -5.2 Q9.4 -7.4 9.4 -9.95 L9.45 -10.1 9.45 -10.3 9.5 -10.65 Q9.5 -10.95 9.7 -11.45 L10.05 -12.45 Q10.6 -14.1 10.6 -15.95 L10.6 -16.25 Q10.55 -16.5 10.55 -16.55 10.55 -16.85 10.2 -17.4 L10.1 -17.4 10.0 -17.45 9.95 -17.4 Q9.45 -17.4 9.25 -17.25 L8.95 -16.95 8.9 -16.95 8.75 -16.75 8.7 -16.65 M4.65 -2.35 Q4.85 -3.6 5.2 -5.45 5.6 -7.55 5.75 -9.0 L5.6 -8.1 5.45 -7.55 5.35 -7.25 5.35 -7.15 Q5.25 -6.6 5.1 -6.1 L4.95 -5.75 4.75 -5.0 Q4.5 -4.15 4.35 -2.7 L4.35 -2.6 4.25 -1.85 4.2 -1.55 Q3.95 -0.6 3.95 -0.3 3.95 -0.2 3.95 -0.1 L4.4 0.1 4.55 0.15 4.5 -0.55 Q4.5 -0.95 4.55 -1.5 L4.65 -2.35" fill="#111111" fill-rule="evenodd" stroke="none"/>
    <path d="M8.9 -16.95 L8.7 -16.65 8.75 -16.75 8.9 -16.95" fill="#bb2424" fill-rule="evenodd" stroke="none"/>
    <path d="M5.95 -9.55 L6.0 -10.2 6.0 -10.4 6.05 -11.75 Q6.05 -12.5 5.75 -13.75 L5.25 -14.9 4.7 -16.25 Q4.7 -16.9 4.8 -17.3 4.95 -17.75 5.2 -18.05 5.55 -18.65 6.1 -19.0 6.0 -18.85 6.0 -18.7 6.0 -16.85 6.5 -14.7 6.95 -13.0 7.0 -10.8 L7.05 -10.4 7.05 -10.05 7.0 -10.05 6.55 -9.95 Q6.15 -9.75 5.95 -9.55 M9.8 -18.0 L9.75 -17.9 Q9.5 -17.8 9.25 -17.5 9.35 -17.6 9.45 -17.65 L9.1 -17.35 8.9 -17.1 8.75 -16.9 8.6 -16.6 Q8.45 -16.3 8.3 -15.95 8.05 -15.2 8.05 -14.3 8.05 -13.65 8.2 -12.55 8.3 -11.65 8.35 -10.5 L8.35 -9.85 8.3 -9.7 8.15 -9.8 Q7.85 -9.95 7.55 -10.0 L7.15 -10.05 7.15 -10.1 7.15 -10.65 Q7.05 -12.55 6.65 -14.35 6.15 -16.6 6.15 -17.8 6.15 -18.45 6.65 -19.25 7.25 -19.45 8.0 -19.45 8.45 -19.45 9.05 -18.85 L9.45 -18.5 9.8 -18.0" fill="#b54d06" fill-rule="evenodd" stroke="none"/>
    <path d="M7.05 -10.05 L7.05 -9.75 Q7.05 -8.8 6.7 -7.15 L6.1 -4.7 Q5.85 -3.5 5.75 0.4 L5.75 0.45 5.25 0.4 4.85 0.3 Q4.7 0.3 4.65 0.1 4.6 0.0 4.65 -0.1 4.65 -0.5 4.7 -1.05 L4.7 -1.55 Q4.7 -2.2 5.35 -5.75 5.75 -7.85 5.95 -9.55 6.15 -9.75 6.55 -9.95 L7.0 -10.05 7.05 -10.05 M7.15 -10.1 L7.15 -10.05 7.55 -10.0 Q7.85 -9.95 8.15 -9.8 L8.3 -9.7 7.7 -5.75 Q7.05 -1.7 7.05 0.15 7.05 0.35 7.05 0.45 L7.05 0.5 6.25 0.5 Q6.0 0.5 5.95 -0.5 5.9 -1.0 5.9 -1.5 5.9 -2.05 5.95 -2.35 L5.95 -2.55 Q5.95 -3.75 6.55 -6.15 7.15 -8.55 7.15 -9.75 L7.15 -10.1" fill="#ff9933" fill-rule="evenodd" stroke="none"/>
    <path d="M8.55 -9.75 Q9.05 -9.2 9.05 -8.9 8.85 -7.85 8.7 -6.5 8.35 -4.15 8.35 -2.6 L8.2 -2.5 Q7.85 -2.3 7.35 -2.1 L7.45 -2.8 Q7.65 -4.5 7.65 -4.75 7.65 -4.95 8.1 -7.2 8.45 -9.05 8.55 -9.75 M4.35 -2.7 Q4.5 -4.15 4.75 -5.0 L4.95 -5.75 5.1 -6.1 Q5.25 -6.6 5.35 -7.15 L5.35 -7.25 5.45 -7.55 5.6 -8.1 5.75 -9.0 Q5.6 -7.55 5.2 -5.45 4.85 -3.6 4.65 -2.35 L4.5 -2.5 4.35 -2.7" fill="#c5521b" fill-rule="evenodd" stroke="none"/>
    <path d="M4.85 -15.25 L4.95 -15.25 5.15 -14.75 5.15 -14.9 Q5.5 -14.25 5.7 -13.1 5.85 -12.05 5.85 -10.75 L5.8 -9.7 5.8 -10.05 5.75 -10.05 5.75 -10.25 Q5.75 -10.8 5.55 -11.75 L5.3 -13.1 4.85 -15.15 4.85 -15.25 M8.55 -9.75 L8.55 -10.4 Q8.5 -11.7 8.4 -12.55 8.25 -13.55 8.25 -14.65 8.25 -15.25 8.55 -16.2 L8.7 -16.65 8.9 -16.95 8.95 -16.95 9.25 -17.25 Q9.45 -17.4 9.95 -17.4 L10.0 -17.45 10.1 -17.4 10.2 -17.4 Q10.55 -16.85 10.55 -16.55 10.55 -16.5 10.6 -16.25 L10.6 -15.95 Q10.6 -14.1 10.05 -12.45 L9.7 -11.45 Q9.5 -10.95 9.5 -10.65 L9.45 -10.3 9.45 -10.1 9.4 -9.95 Q9.4 -7.4 9.0 -5.2 L8.85 -4.35 8.85 -2.75 8.9 -2.5 9.1 -1.45 9.2 -1.25 9.5 -0.7 9.75 -0.1 9.55 0.05 9.05 0.3 8.2 0.45 7.5 0.5 7.35 0.1 Q7.2 -0.25 7.2 -0.55 7.2 -1.0 7.35 -2.1 7.85 -2.3 8.2 -2.5 L8.35 -2.6 Q8.35 -4.15 8.7 -6.5 8.85 -7.85 9.05 -8.9 9.05 -9.2 8.55 -9.75 M4.35 -2.7 L4.5 -2.5 4.65 -2.35 4.55 -1.5 Q4.5 -0.95 4.5 -0.55 L4.55 0.15 4.4 0.1 3.95 -0.1 Q3.95 -0.2 3.95 -0.3 3.95 -0.6 4.2 -1.55 L4.25 -1.85 4.35 -2.6 4.35 -2.7" fill="#973e24" fill-rule="evenodd" stroke="none"/>
  </g>
</svg>
