<?xml version="1.0" encoding="UTF-8" standalone="no"?>
<svg xmlns:ffdec="https://www.free-decompiler.com/flash" xmlns:xlink="http://www.w3.org/1999/xlink" ffdec:objectType="shape" height="24.15px" width="12.15px" xmlns="http://www.w3.org/2000/svg">
  <g transform="matrix(1.0, 0.0, 0.0, 1.0, -1.05, 21.5)">
    <path d="M11.9 -16.05 L12.05 -14.95 12.15 -13.05 12.15 -13.0 12.2 -12.1 Q12.25 -11.8 12.3 -11.5 12.4 -11.0 12.5 -10.65 L12.45 -10.8 12.35 -10.7 12.3 -10.65 Q11.9 -10.0 11.9 -9.85 L11.95 -9.65 11.7 -1.55 11.5 -1.25 Q11.1 -0.5 10.8 -0.25 10.8 -0.15 10.7 -0.1 L10.6 -0.1 10.55 -0.05 10.55 0.3 Q10.55 0.6 10.5 0.75 L10.5 0.8 Q10.7 0.95 10.85 1.35 L10.85 1.4 Q11.1 1.95 11.1 2.25 L11.1 2.6 10.75 2.65 Q9.75 2.65 9.45 2.0 L9.45 1.9 9.25 1.6 Q9.0 1.2 9.0 0.95 L8.9 0.3 8.8 -0.15 8.75 -0.3 8.65 -0.35 Q7.95 -0.85 7.7 -1.2 7.5 -1.5 7.5 -2.0 L7.05 -4.6 6.5 -5.1 5.85 -2.75 5.85 -2.35 5.75 -2.05 Q5.45 -1.35 5.2 -0.95 L5.05 -0.5 5.2 -0.05 Q5.4 0.45 5.4 0.65 5.4 0.8 5.0 0.95 4.65 1.1 4.35 1.1 L4.1 1.1 3.25 1.2 1.7 1.2 Q1.45 1.2 1.4 1.1 L1.4 1.0 Q1.4 0.8 2.0 0.45 2.55 0.05 2.95 -0.05 L3.1 -0.1 3.15 -0.35 3.15 -0.9 Q2.85 -1.15 2.45 -1.75 2.1 -2.25 1.8 -2.8 L1.85 -2.95 1.85 -3.0 Q1.85 -3.15 2.35 -4.85 L3.55 -14.2 4.25 -17.9 5.45 -19.25 5.6 -18.8 5.7 -18.6 5.8 -18.35 6.1 -17.55 6.1 -17.5 5.9 -17.75 5.75 -18.05 Q5.6 -18.25 5.55 -18.45 5.4 -18.7 5.35 -18.95 L5.25 -19.25 5.2 -19.0 5.15 -18.35 5.2 -18.0 5.2 -17.85 5.25 -17.45 5.3 -16.95 5.3 -16.9 5.45 -16.6 5.6 -16.45 5.95 -16.45 6.7 -17.05 6.95 -17.2 7.65 -17.85 7.85 -18.05 Q8.05 -18.3 8.55 -18.95 L8.85 -19.35 8.95 -19.45 Q8.8 -19.65 8.55 -20.1 L8.5 -20.2 Q8.3 -20.65 8.15 -21.15 8.4 -20.75 8.8 -20.25 L8.95 -20.1 10.6 -18.6 Q11.35 -18.1 11.65 -17.2 11.8 -16.75 11.9 -16.05 M5.3 -15.05 L5.15 -15.6 5.1 -15.95 Q4.9 -16.7 4.9 -17.15 L4.15 -16.9 Q4.15 -16.75 4.35 -16.0 L4.65 -14.85 5.8 -11.5 5.95 -11.1 Q6.25 -10.4 6.6 -9.9 7.25 -9.05 8.3 -8.5 7.85 -8.95 7.35 -9.8 6.65 -10.9 6.25 -12.0 L5.3 -15.05 M5.95 -16.25 L5.65 -16.25 Q5.5 -16.25 5.45 -16.3 L5.35 -16.35 5.6 -15.3 Q5.7 -15.5 6.0 -15.8 L6.5 -16.4 7.05 -16.95 Q6.35 -16.4 5.95 -16.25 M7.05 -16.95 L7.05 -16.95 M7.1 -9.0 Q6.15 -10.1 5.3 -12.1 L4.55 -14.25 4.3 -15.15 4.15 -15.65 Q4.1 -15.05 3.9 -14.4 L2.65 -9.2 2.8 -8.85 2.9 -8.7 3.3 -8.3 Q4.45 -7.25 6.1 -7.1 L6.25 -7.1 Q7.75 -7.1 9.0 -7.75 L8.0 -8.2 Q7.55 -8.5 7.1 -9.0 M6.95 -16.65 L6.6 -16.25 Q5.9 -15.55 5.6 -15.1 L5.7 -14.7 5.95 -14.65 6.35 -14.75 6.5 -14.8 6.65 -14.9 6.8 -15.15 Q6.9 -15.45 7.35 -16.7 7.55 -17.2 7.75 -17.6 L7.55 -17.45 7.7 -17.55 7.65 -17.5 7.6 -17.4 7.5 -17.3 7.5 -17.25 7.45 -17.25 6.95 -16.65 M9.5 -19.05 L9.15 -19.2 9.1 -19.1 8.95 -18.9 8.75 -18.7 8.2 -17.7 7.25 -15.8 7.1 -14.05 7.4 -14.15 6.8 -11.6 Q7.1 -10.95 7.5 -10.3 L7.6 -10.15 Q8.0 -9.5 8.5 -8.85 L10.25 -8.65 Q11.1 -9.5 12.05 -10.85 L11.9 -12.45 11.9 -12.85 11.6 -15.15 11.4 -16.25 Q11.3 -16.95 11.1 -17.4 L9.5 -17.55 Q9.0 -16.85 8.5 -15.9 L8.05 -15.15 7.95 -15.35 8.0 -15.4 8.55 -16.45 8.9 -17.1 Q9.3 -17.8 9.5 -18.1 L9.5 -19.05 M5.95 -14.55 L5.8 -14.35 5.95 -13.85 6.0 -13.85 6.45 -14.5 6.35 -14.6 5.95 -14.55 M10.7 -8.65 L10.6 -8.55 10.0 -8.1 8.4 -7.15 8.15 -7.05 6.9 -6.75 5.1 -6.95 3.15 -8.05 3.05 -8.15 3.05 -7.25 Q3.05 -6.85 2.9 -6.2 L2.65 -5.05 Q2.65 -4.8 2.3 -3.9 2.1 -3.15 2.05 -2.85 L2.15 -2.65 Q2.3 -2.4 2.8 -1.8 L2.9 -1.65 3.4 -1.05 3.5 -0.95 Q4.0 -0.6 4.5 -0.6 4.55 -0.6 4.65 -0.7 L4.9 -1.0 4.9 -1.05 Q5.0 -1.25 5.15 -1.35 L5.15 -1.45 5.55 -2.1 5.65 -2.3 5.6 -2.9 5.9 -6.0 6.0 -5.9 6.3 -5.65 Q6.7 -5.45 7.0 -5.15 L8.0 -1.45 8.4 -1.0 Q9.1 -0.35 10.35 -0.35 10.5 -0.35 10.65 -0.45 L10.7 -0.5 10.9 -0.75 11.4 -1.6 10.7 -8.65 M3.85 -0.45 L3.8 -0.45 Q3.7 -0.5 3.55 -0.6 L3.45 -0.65 3.45 -0.6 3.4 -0.1 Q3.6 -0.05 3.8 0.05 L3.95 0.15 4.5 0.2 4.7 0.15 4.75 0.1 4.75 -0.35 4.55 -0.2 4.55 -0.3 4.5 -0.3 Q4.15 -0.3 3.85 -0.45 M4.75 -0.35 L4.75 -0.35 M9.7 0.75 L9.85 0.75 10.15 0.7 10.3 0.7 10.3 -0.05 10.05 -0.05 9.35 -0.15 9.25 -0.2 9.05 -0.25 9.1 -0.15 9.05 -0.15 9.05 0.0 9.1 0.15 9.15 0.3 Q9.25 0.7 9.6 0.75 L9.7 0.75 M10.15 2.25 L10.45 2.35 10.5 2.35 10.9 2.4 10.9 2.2 Q10.9 2.0 10.65 1.45 L10.45 1.0 10.4 1.05 10.35 0.95 10.15 1.0 9.8 1.0 9.7 0.95 9.65 0.95 Q9.6 1.0 9.6 1.3 9.6 1.55 9.75 1.85 9.9 2.15 10.15 2.25 M9.15 0.75 Q9.15 1.0 9.35 1.35 L9.35 0.95 9.15 0.7 9.15 0.75 M4.8 0.85 L5.25 0.7 5.25 0.6 5.05 0.15 5.0 0.15 5.0 0.35 4.85 0.6 4.75 0.75 4.65 0.85 4.65 0.9 4.8 0.85 M4.55 0.7 Q4.65 0.5 4.75 0.25 4.65 0.3 4.5 0.3 L4.15 0.3 4.55 0.7 M4.3 0.85 L4.25 0.8 4.3 0.75 Q4.15 0.5 3.75 0.25 L3.7 0.25 3.1 0.25 Q2.85 0.25 2.6 0.4 L2.4 0.5 Q1.95 0.85 1.75 0.95 L2.55 0.95 3.35 0.95 4.25 0.9 4.3 0.85 4.3 0.85" fill="#000000" fill-rule="evenodd" stroke="none"/>
    <path d="M8.4 -7.15 L10.0 -8.1 10.6 -8.55 10.7 -8.65 8.0 -1.45 7.0 -5.15 7.15 -5.4 Q7.15 -5.7 6.55 -5.95 L7.1 -6.25 7.25 -6.25 8.4 -7.15 M2.9 -1.65 L2.8 -1.8 Q2.3 -2.4 2.15 -2.65 L2.05 -2.85 Q2.1 -3.15 2.3 -3.9 2.65 -4.8 2.65 -5.05 L2.9 -6.2 Q3.05 -6.85 3.05 -7.25 L3.05 -8.15 3.15 -8.05 5.1 -6.95 4.75 -5.0 Q4.5 -3.75 3.55 -2.45 L2.9 -1.65 M5.9 -6.0 L6.0 -5.9 5.9 -6.0" fill="#c2b17c" fill-rule="evenodd" stroke="none"/>
    <path d="M3.8 0.05 Q3.6 -0.05 3.4 -0.1 L3.45 -0.6 3.45 -0.65 3.55 -0.6 Q3.7 -0.5 3.8 -0.45 L3.85 -0.45 Q3.75 -0.3 3.75 -0.1 L3.8 0.05 M9.1 0.15 L9.35 0.45 Q9.5 0.65 9.7 0.75 L9.6 0.75 Q9.25 0.7 9.15 0.3 L9.1 0.15 M9.7 0.95 L9.7 1.1 9.95 1.9 10.15 2.25 Q9.9 2.15 9.75 1.85 9.6 1.55 9.6 1.3 9.6 1.0 9.65 0.95 L9.7 0.95 M9.15 0.75 L9.15 0.7 9.35 0.95 9.35 1.35 Q9.15 1.0 9.15 0.75 M5.05 0.15 L5.0 0.15 5.05 0.15 M4.75 0.75 L4.75 0.8 4.8 0.85 4.65 0.9 4.65 0.85 4.75 0.75 M3.7 0.25 L3.5 0.3 Q3.1 0.45 2.85 0.65 2.6 0.85 2.55 0.95 L1.75 0.95 Q1.95 0.85 2.4 0.5 L2.6 0.4 Q2.85 0.25 3.1 0.25 L3.7 0.25 M4.25 0.9 L4.3 0.85 4.3 0.85 4.25 0.9" fill="#660000" fill-rule="evenodd" stroke="none"/>
    <path d="M5.8 -11.5 L4.65 -14.85 4.35 -16.0 Q4.15 -16.75 4.15 -16.9 L4.9 -17.15 Q4.9 -16.7 5.1 -15.95 L5.15 -15.6 5.3 -15.05 5.8 -11.5 M2.65 -9.2 L3.9 -14.4 Q4.1 -15.05 4.15 -15.65 L4.3 -15.15 4.55 -14.25 5.3 -12.1 Q6.15 -10.1 7.1 -9.0 L6.3 -8.75 Q5.55 -8.6 4.95 -8.6 4.35 -8.6 3.5 -8.9 L2.65 -9.2 M7.95 -14.95 L7.95 -14.3 Q7.8 -13.45 7.2 -12.3 L6.8 -11.6 7.4 -14.15 7.95 -14.95" fill="#cc4839" fill-rule="evenodd" stroke="none"/>
    <path d="M5.8 -11.5 L5.3 -15.05 6.25 -12.0 Q6.65 -10.9 7.35 -9.8 7.85 -8.95 8.3 -8.5 7.25 -9.05 6.6 -9.9 6.25 -10.4 5.95 -11.1 L5.8 -11.5 M2.65 -9.2 L3.5 -8.9 Q4.35 -8.6 4.95 -8.6 5.55 -8.6 6.3 -8.75 L7.1 -9.0 Q7.55 -8.5 8.0 -8.2 L9.0 -7.75 Q7.75 -7.1 6.25 -7.1 L6.1 -7.1 Q4.45 -7.25 3.3 -8.3 L2.9 -8.7 2.8 -8.85 2.65 -9.2 M8.05 -15.15 L8.5 -15.9 Q9.0 -16.85 9.5 -17.55 L11.1 -17.4 Q11.3 -16.95 11.4 -16.25 L11.6 -15.15 11.9 -12.85 11.9 -12.45 12.05 -10.85 Q11.1 -9.5 10.25 -8.65 L8.5 -8.85 Q8.0 -9.5 7.6 -10.15 L7.5 -10.3 Q7.1 -10.95 6.8 -11.6 L7.2 -12.3 Q7.8 -13.45 7.95 -14.3 L7.95 -14.95 8.05 -15.15" fill="#9d3631" fill-rule="evenodd" stroke="none"/>
    <path d="M6.0 -15.8 L5.8 -16.0 Q5.8 -16.1 5.95 -16.25 6.35 -16.4 7.05 -16.95 L6.5 -16.4 6.0 -15.8 M5.95 -14.65 Q5.95 -14.75 5.95 -14.8 5.95 -14.85 6.35 -15.6 L6.95 -16.65 7.45 -17.25 7.5 -17.25 7.5 -17.3 7.6 -17.4 7.65 -17.5 7.7 -17.55 7.55 -17.45 7.75 -17.6 Q7.55 -17.2 7.35 -16.7 6.9 -15.45 6.8 -15.15 L6.65 -14.9 6.5 -14.8 6.35 -14.75 5.95 -14.65 M8.2 -17.7 L8.75 -18.7 8.95 -18.9 9.1 -19.1 9.15 -19.2 9.5 -19.05 Q9.4 -18.6 9.0 -17.3 L8.9 -17.1 8.55 -16.45 8.0 -15.4 7.6 -15.8 Q7.95 -16.75 8.05 -17.1 8.05 -17.3 8.2 -17.7 M5.8 -14.35 L5.95 -14.55 6.35 -14.6 6.45 -14.5 6.0 -13.85 5.95 -13.85 5.8 -14.35" fill="#554264" fill-rule="evenodd" stroke="none"/>
    <path d="M6.0 -15.8 Q5.7 -15.5 5.6 -15.3 L5.35 -16.35 5.45 -16.3 Q5.5 -16.25 5.65 -16.25 L5.95 -16.25 Q5.8 -16.1 5.8 -16.0 L6.0 -15.8 M7.05 -16.95 L7.05 -16.95 M5.95 -14.65 L5.7 -14.7 5.6 -15.1 Q5.9 -15.55 6.6 -16.25 L6.95 -16.65 6.35 -15.6 Q5.95 -14.85 5.95 -14.8 5.95 -14.75 5.95 -14.65 M8.2 -17.7 Q8.05 -17.3 8.05 -17.1 7.95 -16.75 7.6 -15.8 L7.1 -14.05 7.25 -15.8 8.2 -17.7 M8.9 -17.1 L9.0 -17.3 Q9.4 -18.6 9.5 -19.05 L9.5 -18.1 Q9.3 -17.8 8.9 -17.1 M5.8 -14.35 L5.95 -14.55 5.8 -14.35 M6.35 -14.6 L6.45 -14.5 6.35 -14.6 M6.0 -13.85 L5.95 -13.85 6.0 -13.85" fill="#605593" fill-rule="evenodd" stroke="none"/>
    <path d="M8.4 -7.15 L7.25 -6.25 7.1 -6.25 6.55 -5.95 Q7.15 -5.7 7.15 -5.4 L7.0 -5.15 Q6.7 -5.45 6.3 -5.65 L6.0 -5.9 5.9 -6.0 5.6 -2.9 5.65 -2.3 5.55 -2.1 5.15 -1.45 5.15 -1.35 Q5.0 -1.25 4.9 -1.05 L4.9 -1.0 4.65 -0.7 Q4.55 -0.6 4.5 -0.6 4.0 -0.6 3.5 -0.95 L3.4 -1.05 2.9 -1.65 3.55 -2.45 Q4.5 -3.75 4.75 -5.0 L5.1 -6.95 6.9 -6.75 8.15 -7.05 8.4 -7.15 M8.0 -1.45 L10.7 -8.65 11.4 -1.6 10.9 -0.75 10.7 -0.5 10.65 -0.45 Q10.5 -0.35 10.35 -0.35 9.1 -0.35 8.4 -1.0 L8.0 -1.45" fill="#9ea262" fill-rule="evenodd" stroke="none"/>
    <path d="M3.8 0.05 L3.75 -0.1 Q3.75 -0.3 3.85 -0.45 4.15 -0.3 4.5 -0.3 L4.55 -0.3 4.55 -0.2 4.75 -0.35 4.75 0.1 4.7 0.15 4.5 0.2 3.95 0.15 3.8 0.05 M9.1 0.15 L9.05 0.0 9.05 -0.15 9.1 -0.15 9.05 -0.25 9.25 -0.2 9.35 -0.15 10.05 -0.05 10.3 -0.05 10.3 0.7 10.15 0.7 9.85 0.75 9.7 0.75 Q9.5 0.65 9.35 0.45 L9.1 0.15 M9.7 0.95 L9.8 1.0 10.15 1.0 10.35 0.95 10.4 1.05 10.45 1.0 10.65 1.45 Q10.9 2.0 10.9 2.2 L10.9 2.4 10.5 2.35 10.45 2.35 10.15 2.25 9.95 1.9 9.7 1.1 9.7 0.95 M5.05 0.15 L5.25 0.6 5.25 0.7 4.8 0.85 4.75 0.8 4.75 0.75 4.85 0.6 5.0 0.35 5.0 0.15 5.05 0.15 M3.7 0.25 L3.75 0.25 Q4.15 0.5 4.3 0.75 L4.25 0.8 4.3 0.85 4.25 0.9 3.35 0.95 2.55 0.95 Q2.6 0.85 2.85 0.65 3.1 0.45 3.5 0.3 L3.7 0.25 M4.55 0.7 L4.15 0.3 4.5 0.3 Q4.65 0.3 4.75 0.25 4.65 0.5 4.55 0.7" fill="#370000" fill-rule="evenodd" stroke="none"/>
    <path d="M7.6 -15.8 L8.0 -15.4 7.95 -15.35 8.05 -15.15 7.95 -14.95 7.4 -14.15 7.1 -14.05 7.6 -15.8" fill="#e9b554" fill-rule="evenodd" stroke="none"/>
    <path d="M7.6 -6.4 L7.95 -6.95 7.55 -6.8 6.65 -6.85 6.3 -6.9 6.1 -6.9 5.3 -7.05 Q4.4 -7.25 3.9 -7.6 L3.55 -7.8 Q3.25 -8.05 2.9 -8.4 L2.9 -7.3 Q2.9 -6.95 3.25 -6.7 L3.55 -6.55 3.6 -6.55 Q4.4 -6.2 5.9 -6.2 6.8 -6.2 7.6 -6.4 M6.5 -5.15 L7.15 -5.15 7.6 -6.2 7.25 -6.1 6.45 -6.0 6.35 -6.0 5.15 -6.05 Q4.05 -6.15 3.45 -6.4 L4.25 -5.9 Q4.7 -5.65 5.1 -5.5 L5.2 -5.45 Q5.75 -5.25 6.4 -5.15 L6.5 -5.15 M2.85 -8.75 Q3.2 -8.35 3.8 -7.95 4.25 -7.6 4.75 -7.4 5.5 -7.15 6.55 -7.05 8.95 -7.15 10.65 -8.6 L11.75 -9.8 12.05 -10.25 Q11.9 -9.95 11.9 -9.85 L7.4 -2.5 Q5.35 -2.5 3.9 -3.15 3.4 -3.35 3.0 -3.6 2.8 -3.7 2.3 -4.15 1.7 -4.6 1.7 -4.65 1.7 -4.85 2.1 -5.65 L2.85 -8.75 M8.2 -4.95 L7.75 -4.95 Q5.4 -4.95 4.05 -5.7 3.7 -5.95 3.3 -6.3 L2.95 -6.6 2.55 -5.75 2.0 -4.75 Q2.55 -4.2 3.35 -3.7 L3.4 -3.7 3.45 -3.65 Q5.05 -2.9 7.15 -2.9 L8.2 -4.95" fill="#000000" fill-rule="evenodd" stroke="none"/>
    <path d="M7.95 -6.95 L7.6 -6.4 7.95 -6.95 M3.25 -6.7 Q2.9 -6.95 2.9 -7.3 L2.9 -8.4 Q3.25 -8.05 3.55 -7.8 L3.9 -7.6 Q4.4 -7.25 5.3 -7.05 L3.45 -6.85 3.15 -6.8 3.25 -6.7 M7.6 -6.2 L7.15 -5.15 6.5 -5.15 Q7.15 -5.2 7.5 -5.45 L7.6 -6.2 M5.1 -5.5 Q4.7 -5.65 4.25 -5.9 L3.45 -6.4 Q4.05 -6.15 5.15 -6.05 5.05 -5.95 5.05 -5.75 5.05 -5.6 5.1 -5.5" fill="#605593" fill-rule="evenodd" stroke="none"/>
    <path d="M3.45 -3.65 L3.4 -3.7 3.35 -3.7 Q2.55 -4.2 2.0 -4.75 L2.55 -5.75 2.95 -6.6 3.3 -6.3 Q3.7 -5.95 4.05 -5.7 5.4 -4.95 7.75 -4.95 L8.2 -4.95 7.35 -4.5 4.55 -4.05 Q3.65 -3.9 3.45 -3.65" fill="#cc4839" fill-rule="evenodd" stroke="none"/>
    <path d="M3.45 -3.65 Q3.65 -3.9 4.55 -4.05 L7.35 -4.5 8.2 -4.95 7.15 -2.9 Q5.05 -2.9 3.45 -3.65" fill="#9d3631" fill-rule="evenodd" stroke="none"/>
    <path d="M7.95 -6.95 L7.6 -6.4 Q6.8 -6.2 5.9 -6.2 4.4 -6.2 3.6 -6.55 L3.55 -6.55 3.25 -6.7 3.15 -6.8 3.45 -6.85 5.3 -7.05 6.1 -6.9 6.3 -6.9 6.65 -6.85 7.55 -6.8 7.95 -6.95 M7.6 -6.2 L7.5 -5.45 Q7.15 -5.2 6.5 -5.15 L6.4 -5.15 Q5.75 -5.25 5.2 -5.45 L5.1 -5.5 Q5.05 -5.6 5.05 -5.75 5.05 -5.95 5.15 -6.05 L6.35 -6.0 6.45 -6.0 7.25 -6.1 7.6 -6.2" fill="#554264" fill-rule="evenodd" stroke="none"/>
    <path d="M12.95 -2.7 Q12.8 -4.5 12.6 -5.9 12.4 -7.2 11.95 -8.85 11.45 -10.6 11.3 -11.5 11.05 -13.15 11.05 -15.35 11.05 -16.45 11.2 -17.35 11.35 -18.25 11.35 -18.6 11.35 -19.15 10.0 -20.2 L8.75 -21.1 8.65 -21.15 8.3 -21.3 8.25 -21.3 7.95 -21.15 7.8 -21.05 7.35 -20.85 7.25 -20.85 Q5.95 -20.3 5.8 -20.2 L4.9 -19.55 4.55 -19.25 4.0 -18.5 Q3.25 -17.45 3.2 -16.75 3.15 -16.2 2.95 -15.35 L2.65 -13.95 1.9 -11.4 Q1.25 -9.0 1.25 -8.3 1.25 -7.0 2.15 -5.1 L2.3 -4.8 Q2.6 -4.2 2.9 -3.7 L3.0 -3.55 Q2.75 -4.6 2.75 -5.5 L2.75 -9.05 Q3.1 -11.6 3.85 -13.95 L4.2 -15.5 4.4 -16.3 4.4 -16.45 4.7 -17.8 4.7 -17.9 Q4.7 -18.4 4.75 -18.75 L5.35 -19.5 Q5.75 -19.85 6.3 -20.15 L6.3 -20.2 6.4 -20.2 6.4 -20.25 6.5 -20.25 7.8 -20.7 8.2 -20.7 8.35 -20.65 8.55 -20.65 8.6 -20.6 8.95 -20.45 9.15 -20.3 Q9.3 -20.1 9.3 -19.8 L9.3 -19.35 9.3 -18.85 Q9.3 -18.2 9.2 -17.15 L9.05 -15.45 8.85 -13.65 8.65 -12.15 7.75 -7.5 Q7.05 -4.15 6.75 -2.3 L7.5 -1.95 Q8.7 -1.5 9.8 -1.5 L10.35 -1.55 Q11.45 -1.65 12.25 -2.15 12.65 -2.35 12.9 -2.6 L12.95 -2.65 12.95 -2.7 M3.3 -3.1 L3.3 -2.8 Q2.5 -3.7 1.9 -5.1 1.05 -6.95 1.05 -8.3 1.05 -9.2 1.65 -11.45 2.1 -13.1 2.4 -14.1 2.75 -15.0 3.0 -17.0 3.3 -18.25 4.05 -19.05 L4.45 -19.4 Q5.0 -19.9 5.85 -20.4 7.05 -21.15 8.3 -21.5 L8.4 -21.4 Q9.1 -21.3 10.3 -20.4 11.65 -19.35 11.65 -18.6 11.65 -18.3 11.5 -17.5 L11.35 -16.65 11.35 -14.2 Q11.5 -11.75 12.4 -8.3 13.2 -5.1 13.2 -2.8 L13.2 -2.55 13.1 -2.4 13.0 -2.2 12.95 -2.15 12.95 -2.35 Q12.75 -2.05 12.2 -1.75 11.1 -1.2 9.75 -1.2 8.55 -1.2 7.55 -1.6 7.1 -1.75 6.75 -1.95 L6.6 -2.25 Q6.45 -2.4 6.45 -2.55 6.55 -3.25 6.75 -4.3 L7.7 -8.75 Q9.1 -15.4 9.1 -18.85 L9.1 -19.4 9.05 -19.75 9.05 -19.9 8.9 -20.25 8.9 -20.3 8.7 -20.35 8.45 -20.4 Q7.2 -20.4 6.0 -19.6 5.35 -19.15 5.0 -18.7 L5.0 -18.6 Q5.0 -17.3 4.7 -15.95 4.55 -15.4 4.05 -13.65 3.05 -10.5 3.05 -7.45 L3.05 -6.2 3.05 -5.35 3.2 -4.35 3.25 -3.75 3.3 -3.3 3.3 -3.25 3.25 -3.15 3.3 -3.1" fill="#000000" fill-rule="evenodd" stroke="none"/>
    <path d="M3.3 -3.25 L3.3 -3.1 3.25 -3.15 3.3 -3.25" fill="#ffffff" fill-rule="evenodd" stroke="none"/>
    <path d="M3.05 -6.2 L3.25 -4.35 3.25 -3.75 3.2 -4.35 3.05 -5.35 3.05 -6.2" fill="#cc4839" fill-rule="evenodd" stroke="none"/>
    <path d="M3.2 -16.75 L3.25 -15.95 Q3.25 -15.0 2.7 -12.0 2.1 -9.05 2.1 -6.95 2.1 -5.95 2.25 -4.95 L2.3 -4.8 2.15 -5.1 Q1.25 -7.0 1.25 -8.3 1.25 -9.0 1.9 -11.4 L2.65 -13.95 2.95 -15.35 Q3.15 -16.2 3.2 -16.75 M4.2 -15.5 L4.4 -16.3 4.2 -15.5 M9.3 -19.35 Q10.55 -17.7 10.55 -16.75 L10.3 -14.85 Q10.0 -12.8 10.0 -11.75 10.0 -10.6 10.4 -8.25 10.75 -5.9 10.75 -4.75 10.75 -3.8 10.5 -2.85 10.25 -2.0 10.25 -1.85 10.25 -1.8 10.3 -1.7 L10.35 -1.55 9.8 -1.5 Q8.7 -1.5 7.5 -1.95 L6.75 -2.3 Q7.05 -4.15 7.75 -7.5 L8.65 -12.15 8.85 -13.65 9.05 -15.45 9.2 -17.15 Q9.3 -18.2 9.3 -18.85 L9.3 -19.35 M12.9 -2.6 L12.9 -2.65 12.95 -2.7 12.95 -2.65 12.9 -2.6" fill="#558ad9" fill-rule="evenodd" stroke="none"/>
    <path d="M3.2 -16.75 Q3.25 -17.45 4.0 -18.5 L4.55 -19.25 4.9 -19.55 5.8 -20.2 Q5.95 -20.3 7.25 -20.85 L7.35 -20.85 7.8 -21.05 7.95 -21.15 8.25 -21.3 8.3 -21.3 8.65 -21.15 8.75 -21.1 10.0 -20.2 Q11.35 -19.15 11.35 -18.6 11.35 -18.25 11.2 -17.35 11.05 -16.45 11.05 -15.35 11.05 -13.15 11.3 -11.5 11.45 -10.6 11.95 -8.85 12.4 -7.2 12.6 -5.9 12.8 -4.5 12.95 -2.7 L12.9 -2.65 12.9 -2.6 Q12.65 -2.35 12.25 -2.15 11.45 -1.65 10.35 -1.55 L10.3 -1.7 Q10.25 -1.8 10.25 -1.85 10.25 -2.0 10.5 -2.85 10.75 -3.8 10.75 -4.75 10.75 -5.9 10.4 -8.25 10.0 -10.6 10.0 -11.75 10.0 -12.8 10.3 -14.85 L10.55 -16.75 Q10.55 -17.7 9.3 -19.35 L9.3 -19.8 Q9.3 -20.1 9.15 -20.3 L8.95 -20.45 8.6 -20.6 8.55 -20.65 8.35 -20.65 8.2 -20.7 7.8 -20.7 6.5 -20.25 6.4 -20.25 6.4 -20.2 6.3 -20.2 6.3 -20.15 Q5.75 -19.85 5.35 -19.5 L4.75 -18.75 Q4.7 -18.4 4.7 -17.9 L4.7 -17.8 4.4 -16.45 4.4 -16.3 4.2 -15.5 3.85 -13.95 Q3.1 -11.6 2.75 -9.05 L2.75 -5.5 Q2.75 -4.6 3.0 -3.55 L2.9 -3.7 Q2.6 -4.2 2.3 -4.8 L2.25 -4.95 Q2.1 -5.95 2.1 -6.95 2.1 -9.05 2.7 -12.0 3.25 -15.0 3.25 -15.95 L3.2 -16.75" fill="#576ab5" fill-rule="evenodd" stroke="none"/>
    <path d="M4.55 -16.4 L4.35 -16.55 Q4.2 -16.15 4.15 -15.85 L4.15 -15.8 4.4 -16.0 4.65 -16.1 4.7 -16.1 4.65 -16.2 4.65 -16.25 4.55 -16.4 M5.0 -15.7 L4.75 -15.95 4.65 -15.95 4.5 -15.9 4.4 -15.8 4.15 -15.6 4.15 -15.55 4.1 -15.5 4.1 -15.35 4.15 -15.25 4.3 -14.85 4.35 -14.75 4.55 -14.3 4.75 -14.65 Q4.9 -14.9 5.1 -15.0 L5.15 -15.05 5.25 -15.0 5.3 -15.0 5.4 -14.95 5.3 -15.1 5.25 -15.2 5.25 -15.25 5.2 -15.35 5.15 -15.45 5.05 -15.6 5.0 -15.65 5.0 -15.7 M5.1 -15.05 L5.1 -15.0 5.15 -15.05 5.1 -15.05 M4.0 -15.7 Q3.95 -16.25 4.15 -16.6 4.4 -16.95 4.8 -16.1 5.15 -15.9 5.35 -15.5 L5.6 -14.9 5.95 -14.75 6.1 -14.7 6.3 -14.6 6.25 -14.65 Q6.25 -14.75 6.35 -14.75 L6.55 -14.75 Q6.65 -14.9 6.75 -15.1 L7.25 -15.85 Q7.35 -16.0 7.55 -15.8 L7.7 -16.15 7.95 -16.55 7.95 -16.6 Q8.45 -16.65 8.75 -16.35 8.95 -16.15 8.95 -15.8 9.0 -15.65 8.75 -15.25 8.45 -14.75 8.15 -14.7 8.1 -14.5 7.95 -14.25 7.8 -14.05 7.6 -13.85 L7.9 -13.7 Q8.1 -13.55 8.1 -13.35 8.1 -13.2 7.3 -11.95 6.65 -10.95 6.4 -10.75 L6.4 -10.7 Q6.5 -10.65 6.35 -10.65 5.65 -10.65 4.8 -11.45 4.05 -12.2 4.05 -12.65 4.05 -13.1 4.4 -13.95 L4.45 -14.1 4.25 -14.45 Q3.9 -15.05 3.9 -15.2 3.9 -15.4 3.95 -15.55 L4.0 -15.7 M4.85 -14.4 L4.8 -14.25 4.65 -13.9 4.6 -13.8 4.4 -13.3 4.4 -13.15 4.35 -13.15 4.35 -13.1 Q4.25 -12.75 4.25 -12.6 4.3 -12.2 5.0 -11.65 L5.1 -11.55 5.65 -11.25 5.85 -11.65 6.0 -12.0 6.55 -13.1 6.6 -13.25 6.65 -13.4 6.7 -13.4 6.7 -13.35 6.65 -13.1 6.65 -13.05 Q6.55 -12.7 6.3 -12.2 L5.75 -11.2 5.7 -11.2 6.0 -11.0 6.1 -10.95 6.2 -10.9 6.25 -10.85 6.75 -11.55 7.7 -13.0 7.65 -13.0 7.35 -13.05 7.15 -13.05 7.05 -13.1 6.95 -13.15 Q6.8 -13.2 6.7 -13.3 L6.85 -13.3 6.95 -13.3 7.35 -13.2 7.7 -13.15 7.75 -13.15 7.8 -13.2 7.7 -13.4 7.35 -13.7 7.25 -13.6 7.2 -13.6 7.2 -13.65 7.15 -13.65 Q6.95 -13.65 6.7 -14.0 L6.55 -14.2 6.5 -14.25 6.35 -14.35 6.15 -14.45 5.8 -14.6 5.75 -14.6 5.65 -14.65 5.75 -14.55 5.9 -14.35 6.2 -14.0 6.5 -13.5 6.45 -13.45 Q6.25 -13.65 5.9 -14.1 L5.7 -14.35 5.4 -14.75 Q5.2 -14.8 5.1 -14.85 5.0 -14.7 4.85 -14.4 M4.7 -12.95 Q4.7 -13.2 4.85 -13.45 L5.2 -14.2 5.25 -14.1 Q5.3 -14.0 5.6 -13.7 L6.0 -13.25 5.95 -12.9 5.9 -12.7 5.55 -11.95 5.5 -11.9 5.4 -11.9 Q5.3 -11.9 5.25 -11.95 L5.2 -11.95 5.1 -12.05 4.9 -12.3 Q4.75 -12.5 4.7 -12.75 L4.7 -12.95 M8.8 -15.8 Q8.8 -16.0 8.7 -16.15 L8.6 -16.25 Q8.4 -16.45 8.05 -16.5 L7.85 -16.2 7.6 -15.75 7.85 -15.45 7.9 -15.35 7.95 -15.3 8.0 -15.2 8.05 -15.15 8.1 -14.9 8.15 -14.85 8.45 -15.15 Q8.85 -15.55 8.8 -15.8 M7.7 -15.4 Q7.55 -15.6 7.3 -15.75 7.1 -15.5 6.9 -15.1 6.6 -14.65 6.6 -14.4 L6.65 -14.4 6.7 -14.25 6.8 -14.05 Q7.0 -13.75 7.2 -13.75 L7.35 -13.8 7.55 -14.0 7.8 -14.3 7.95 -14.55 7.95 -14.6 8.0 -14.8 Q8.0 -14.95 7.9 -15.1 L7.8 -15.3 7.7 -15.4 M5.2 -13.85 L5.15 -13.95 5.05 -13.8 4.9 -13.35 4.9 -13.3 4.85 -13.25 4.85 -13.2 Q4.75 -12.95 4.8 -12.75 L5.0 -12.35 Q5.2 -11.95 5.4 -12.0 5.45 -12.0 5.5 -12.1 5.1 -12.3 5.0 -12.9 L5.0 -13.0 5.05 -13.2 5.15 -13.45 Q5.25 -13.65 5.35 -13.75 L5.2 -13.85 M5.45 -13.65 Q5.25 -13.35 5.15 -13.2 5.1 -13.0 5.15 -12.75 5.15 -12.7 5.35 -12.4 L5.55 -12.15 5.75 -12.55 5.95 -13.05 Q5.95 -13.2 5.6 -13.55 L5.45 -13.65" fill="#000000" fill-rule="evenodd" stroke="none"/>
    <path d="M4.55 -16.4 L4.5 -16.4 Q4.25 -16.35 4.25 -16.2 4.25 -16.0 4.4 -16.0 L4.15 -15.8 4.15 -15.85 Q4.2 -16.15 4.35 -16.55 L4.55 -16.4 M4.65 -16.1 L4.7 -16.15 4.65 -16.2 4.7 -16.1 4.65 -16.1 M4.65 -15.95 L4.75 -15.95 5.0 -15.7 4.85 -15.85 4.65 -15.95 M5.3 -15.1 L5.4 -14.95 5.3 -15.0 5.3 -15.1 M4.75 -14.65 L4.55 -14.3 4.35 -14.75 4.3 -14.85 4.45 -14.85 Q4.55 -14.85 4.6 -14.95 L4.75 -14.65 M4.15 -15.25 L4.1 -15.35 4.1 -15.5 4.15 -15.55 4.15 -15.6 4.4 -15.8 4.35 -15.65 4.45 -15.35 4.4 -15.35 Q4.2 -15.4 4.15 -15.25 M4.4 -13.15 Q4.45 -12.95 4.6 -12.95 L4.7 -12.95 4.7 -12.75 Q4.75 -12.5 4.9 -12.3 L5.1 -12.05 Q4.9 -12.05 4.9 -11.85 L4.95 -11.75 4.95 -11.7 5.0 -11.7 5.15 -11.65 Q5.35 -11.65 5.35 -11.85 L5.35 -11.9 Q5.3 -11.9 5.25 -11.95 5.3 -11.9 5.4 -11.9 L5.35 -11.8 5.4 -11.65 Q5.45 -11.55 5.65 -11.55 5.7 -11.55 5.85 -11.65 L5.8 -11.65 5.85 -11.65 5.65 -11.25 5.1 -11.55 5.0 -11.65 Q4.3 -12.2 4.25 -12.6 4.25 -12.75 4.35 -13.1 L4.35 -13.15 4.4 -13.15 M5.25 -14.1 L5.25 -14.2 Q5.25 -14.8 4.85 -14.4 5.0 -14.7 5.1 -14.85 5.2 -14.8 5.4 -14.75 L5.7 -14.35 5.7 -14.3 Q5.85 -14.0 6.1 -13.65 L6.3 -13.4 5.95 -12.9 6.0 -13.25 5.6 -13.7 Q5.3 -14.0 5.25 -14.1 M5.75 -14.55 L5.65 -14.65 5.75 -14.6 5.75 -14.55 M7.15 -13.65 L7.2 -13.65 7.2 -13.6 7.15 -13.6 7.15 -13.65 M7.7 -13.4 L7.8 -13.2 7.75 -13.15 7.7 -13.15 7.7 -13.4 M7.65 -13.0 L7.7 -13.0 6.75 -11.55 6.25 -10.85 6.2 -10.9 6.1 -10.95 6.2 -10.95 Q6.35 -10.95 7.0 -12.0 L7.25 -12.35 7.6 -12.9 7.6 -12.95 7.65 -13.0 M6.0 -11.0 L5.7 -11.2 5.75 -11.2 6.3 -12.2 Q6.55 -12.7 6.65 -13.05 6.75 -13.15 6.85 -13.15 L6.9 -13.15 6.9 -13.05 Q6.9 -12.9 6.5 -12.15 6.15 -11.35 5.9 -11.15 L5.9 -11.15 6.0 -11.0 M8.4 -16.1 Q8.35 -16.25 8.2 -16.25 7.95 -16.25 7.95 -16.0 L7.95 -15.85 Q8.0 -15.8 8.05 -15.75 7.9 -15.55 7.9 -15.4 L7.9 -15.35 7.85 -15.45 7.6 -15.75 7.85 -16.2 8.05 -16.5 Q8.4 -16.45 8.6 -16.25 L8.7 -16.15 8.65 -16.2 Q8.55 -16.2 8.4 -16.1 M8.65 -15.45 Q8.8 -15.65 8.8 -15.8 8.85 -15.55 8.45 -15.15 L8.15 -14.85 8.1 -14.9 8.05 -15.15 8.0 -15.2 Q8.1 -15.1 8.25 -15.1 L8.3 -15.1 8.55 -15.3 8.65 -15.45 M7.95 -14.6 L7.95 -14.55 7.8 -14.3 7.55 -14.0 7.35 -13.8 7.2 -13.75 Q7.0 -13.75 6.8 -14.05 L6.7 -14.25 6.65 -14.4 6.6 -14.4 Q6.6 -14.65 6.9 -15.1 7.1 -15.5 7.3 -15.75 7.55 -15.6 7.7 -15.4 L7.6 -15.25 7.6 -15.2 7.3 -15.25 Q6.95 -15.05 6.95 -14.8 6.95 -14.65 7.15 -14.6 7.0 -14.4 7.0 -14.25 7.0 -14.2 7.0 -14.1 7.1 -14.0 7.3 -14.0 7.45 -14.0 7.6 -14.1 L7.75 -14.25 7.85 -14.4 7.95 -14.55 7.95 -14.6 M6.05 -11.8 L6.05 -11.75 Q6.2 -11.95 6.35 -12.35 L6.45 -12.5 6.25 -12.1 6.05 -11.8" fill="#f1d785" fill-rule="evenodd" stroke="none"/>
    <path d="M5.45 -13.65 L5.6 -13.55 Q5.95 -13.2 5.95 -13.05 L5.75 -12.55 5.55 -12.15 5.35 -12.4 Q5.15 -12.7 5.15 -12.75 5.1 -13.0 5.15 -13.2 5.25 -13.35 5.45 -13.65 M5.5 -12.6 Q5.7 -12.6 5.75 -12.7 5.8 -12.75 5.8 -12.95 5.8 -13.25 5.5 -13.25 5.25 -13.3 5.25 -13.0 5.2 -12.9 5.25 -12.8 5.3 -12.6 5.5 -12.6" fill="#339933" fill-rule="evenodd" stroke="none"/>
    <path d="M4.4 -16.0 Q4.25 -16.0 4.25 -16.2 4.25 -16.35 4.5 -16.4 L4.55 -16.4 4.65 -16.25 4.65 -16.2 4.7 -16.15 4.65 -16.1 4.4 -16.0 M4.65 -15.95 L4.85 -15.85 5.0 -15.7 4.9 -15.7 Q4.55 -15.85 4.55 -15.5 4.6 -15.4 4.65 -15.25 4.8 -15.0 5.0 -15.0 L5.1 -15.0 5.1 -15.05 5.25 -15.2 5.3 -15.1 5.3 -15.0 5.25 -15.0 5.15 -15.05 5.1 -15.0 Q4.9 -14.9 4.75 -14.65 L4.6 -14.95 4.55 -15.1 4.45 -15.35 4.35 -15.65 4.4 -15.8 4.5 -15.9 4.65 -15.95 M5.9 -14.1 Q6.25 -13.65 6.45 -13.45 L6.5 -13.5 6.2 -14.0 6.4 -14.0 Q6.5 -14.0 6.6 -14.1 L6.55 -14.2 6.7 -14.0 Q6.65 -13.9 6.65 -13.7 6.65 -13.55 6.85 -13.3 L6.7 -13.3 Q6.8 -13.2 6.95 -13.15 L7.05 -13.1 7.15 -13.0 Q6.95 -12.75 6.95 -12.65 L7.0 -12.5 Q7.05 -12.35 7.15 -12.35 L7.25 -12.35 7.0 -12.0 Q6.35 -10.95 6.2 -10.95 L6.1 -10.95 6.0 -11.0 5.9 -11.15 5.9 -11.15 Q6.15 -11.35 6.5 -12.15 6.9 -12.9 6.9 -13.05 L6.9 -13.15 6.85 -13.15 Q6.75 -13.15 6.65 -13.05 L6.65 -13.1 6.7 -13.35 6.7 -13.4 6.65 -13.4 6.6 -13.25 6.5 -13.25 Q6.35 -13.05 6.1 -12.6 5.8 -12.0 5.8 -11.8 5.8 -11.7 5.8 -11.65 L5.85 -11.65 Q5.7 -11.55 5.65 -11.55 5.45 -11.55 5.4 -11.65 L5.35 -11.8 5.4 -11.9 5.5 -11.9 5.55 -11.95 5.9 -12.7 5.95 -12.9 6.3 -13.4 6.1 -13.65 Q5.85 -14.0 5.7 -14.3 L5.7 -14.25 5.8 -14.2 5.9 -14.1 M8.05 -15.75 L8.4 -16.1 Q8.55 -16.2 8.65 -16.2 L8.7 -16.15 Q8.8 -16.0 8.8 -15.8 8.8 -15.65 8.65 -15.45 L8.65 -15.55 Q8.65 -15.95 8.25 -15.65 8.0 -15.5 7.9 -15.35 L7.9 -15.4 Q7.9 -15.55 8.05 -15.75 M7.6 -14.1 Q7.45 -14.0 7.3 -14.0 7.1 -14.0 7.0 -14.1 7.0 -14.2 7.0 -14.25 7.0 -14.4 7.15 -14.6 7.25 -14.85 7.6 -15.2 L7.6 -15.25 7.7 -15.4 7.8 -15.3 7.9 -15.1 7.85 -15.05 Q7.4 -14.75 7.4 -14.3 L7.45 -14.2 Q7.45 -14.15 7.6 -14.1 M5.05 -13.8 L5.15 -13.95 5.2 -13.85 5.1 -13.8 5.05 -13.8 M5.0 -13.0 L5.0 -12.9 Q5.1 -12.3 5.5 -12.1 5.45 -12.0 5.4 -12.0 5.2 -11.95 5.0 -12.35 L4.8 -12.75 Q4.75 -12.95 4.85 -13.2 L4.85 -13.1 Q4.9 -13.0 5.0 -13.0" fill="#e9b554" fill-rule="evenodd" stroke="none"/>
    <path d="M4.3 -14.85 L4.15 -15.25 Q4.2 -15.4 4.4 -15.35 L4.45 -15.35 4.55 -15.1 4.6 -14.95 Q4.55 -14.85 4.45 -14.85 L4.3 -14.85 M4.4 -13.15 L4.4 -13.3 4.6 -13.8 4.65 -13.9 4.8 -14.25 4.85 -14.4 Q5.25 -14.8 5.25 -14.2 L5.25 -14.1 5.2 -14.2 4.85 -13.45 Q4.7 -13.2 4.7 -12.95 L4.6 -12.95 Q4.45 -12.95 4.4 -13.15 M6.65 -13.05 L6.65 -13.1 6.65 -13.05 M6.6 -13.25 L6.55 -13.1 6.0 -12.0 5.85 -11.65 5.8 -11.65 Q5.8 -11.7 5.8 -11.8 5.8 -12.0 6.1 -12.6 6.35 -13.05 6.5 -13.25 L6.6 -13.25 M8.4 -16.1 L8.05 -15.75 Q8.0 -15.8 7.95 -15.85 L7.95 -16.0 Q7.95 -16.25 8.2 -16.25 8.35 -16.25 8.4 -16.1 M7.15 -14.6 Q6.95 -14.65 6.95 -14.8 6.95 -15.05 7.3 -15.25 L7.6 -15.2 Q7.25 -14.85 7.15 -14.6 M6.05 -11.8 L6.25 -12.1 6.45 -12.5 6.35 -12.35 Q6.2 -11.95 6.05 -11.75 L6.05 -11.8 M5.1 -12.05 L5.2 -11.95 5.25 -11.95 Q5.3 -11.9 5.35 -11.9 L5.35 -11.85 Q5.35 -11.65 5.15 -11.65 L5.0 -11.7 4.95 -11.7 4.95 -11.75 4.9 -11.85 Q4.9 -12.05 5.1 -12.05" fill="#fae6b8" fill-rule="evenodd" stroke="none"/>
    <path d="M5.0 -15.7 L5.0 -15.65 5.05 -15.6 4.95 -15.6 Q4.75 -15.55 4.75 -15.3 L4.75 -15.15 Q4.8 -15.1 5.0 -15.1 5.2 -15.1 5.2 -15.3 L5.2 -15.35 5.25 -15.25 5.25 -15.2 5.1 -15.05 5.15 -15.05 5.1 -15.0 5.0 -15.0 Q4.8 -15.0 4.65 -15.25 4.6 -15.4 4.55 -15.5 4.55 -15.85 4.9 -15.7 L5.0 -15.7 M6.7 -14.0 Q6.95 -13.65 7.15 -13.65 L7.15 -13.6 7.2 -13.6 7.25 -13.6 7.35 -13.7 7.7 -13.4 7.7 -13.15 7.35 -13.2 6.95 -13.3 6.85 -13.3 Q6.65 -13.55 6.65 -13.7 6.65 -13.9 6.7 -14.0 M7.05 -13.1 L7.15 -13.05 7.35 -13.05 7.65 -13.0 7.6 -12.95 7.6 -12.9 7.45 -12.9 Q7.3 -12.9 7.15 -13.0 L7.05 -13.1 M7.9 -15.35 Q8.0 -15.5 8.25 -15.65 8.65 -15.95 8.65 -15.55 L8.65 -15.45 8.55 -15.3 8.3 -15.1 8.25 -15.1 Q8.1 -15.1 8.0 -15.2 L7.95 -15.3 7.9 -15.35 M7.85 -14.4 L7.75 -14.25 7.6 -14.1 Q7.45 -14.15 7.45 -14.2 L7.4 -14.3 7.6 -14.3 Q7.7 -14.3 7.85 -14.4 M5.05 -13.2 L5.0 -13.0 Q4.9 -13.0 4.85 -13.1 L4.85 -13.2 5.05 -13.2" fill="#e1a448" fill-rule="evenodd" stroke="none"/>
    <path d="M5.05 -15.6 L5.15 -15.45 5.2 -15.35 5.2 -15.3 Q5.2 -15.1 5.0 -15.1 4.8 -15.1 4.75 -15.15 L4.75 -15.3 Q4.75 -15.55 4.95 -15.6 L5.05 -15.6 M5.7 -14.35 L5.9 -14.1 5.8 -14.2 5.7 -14.25 5.7 -14.3 5.7 -14.35 M6.2 -14.0 L5.9 -14.35 5.75 -14.55 5.75 -14.6 5.8 -14.6 6.15 -14.45 6.35 -14.35 6.5 -14.25 6.55 -14.2 6.6 -14.1 Q6.5 -14.0 6.4 -14.0 L6.2 -14.0 M7.95 -14.6 L7.95 -14.55 7.85 -14.4 Q7.7 -14.3 7.6 -14.3 L7.4 -14.3 Q7.4 -14.75 7.85 -15.05 L7.9 -15.1 Q8.0 -14.95 8.0 -14.8 L7.95 -14.6 M7.6 -12.9 L7.25 -12.35 7.15 -12.35 Q7.05 -12.35 7.0 -12.5 L6.95 -12.65 Q6.95 -12.75 7.15 -13.0 7.3 -12.9 7.45 -12.9 L7.6 -12.9 M5.05 -13.8 L5.1 -13.8 5.2 -13.85 5.35 -13.75 Q5.25 -13.65 5.15 -13.45 L5.05 -13.2 4.85 -13.2 4.85 -13.25 4.9 -13.3 4.9 -13.35 5.05 -13.8" fill="#dc9427" fill-rule="evenodd" stroke="none"/>
    <path d="M5.5 -12.6 Q5.3 -12.6 5.25 -12.8 5.2 -12.9 5.25 -13.0 5.25 -13.3 5.5 -13.25 5.8 -13.25 5.8 -12.95 5.8 -12.75 5.75 -12.7 5.7 -12.6 5.5 -12.6" fill="#7cd37c" fill-rule="evenodd" stroke="none"/>
  </g>
</svg>
