<?xml version="1.0" encoding="UTF-8" standalone="no"?>
<svg xmlns:ffdec="https://www.free-decompiler.com/flash" xmlns:xlink="http://www.w3.org/1999/xlink" ffdec:objectType="shape" height="21.95px" width="7.7px" xmlns="http://www.w3.org/2000/svg">
  <g transform="matrix(1.0, 0.0, 0.0, 1.0, -3.35, 20.3)">
    <path d="M5.95 1.05 Q5.0 0.9 4.2 0.4 L4.05 0.25 Q3.8 -0.1 3.8 -0.6 3.8 -2.6 4.2 -4.25 4.45 -5.05 4.8 -6.0 5.25 -7.3 5.35 -8.55 L5.4 -8.5 5.35 -8.6 5.4 -9.3 5.4 -9.7 5.4 -9.75 5.35 -10.2 5.35 -10.25 5.35 -10.4 5.25 -10.9 5.2 -11.2 5.3 -11.25 Q5.4 -11.0 5.55 -10.75 6.05 -10.2 6.9 -10.2 7.55 -10.2 8.65 -10.85 L8.9 -11.0 8.95 -10.7 8.9 -10.6 Q9.0 -10.5 9.0 -10.25 9.0 -9.05 8.0 -6.45 7.15 -4.35 6.55 -3.85 L6.6 -3.85 Q7.35 -3.85 8.4 -5.65 L8.8 -6.4 Q8.45 -3.7 8.1 -3.25 L7.9 -2.65 Q7.6 -1.95 7.15 -1.15 L7.15 -1.1 6.8 -0.5 6.75 -0.4 6.3 0.3 Q5.95 0.9 5.95 1.05" fill="#648caa" fill-rule="evenodd" stroke="none"/>
    <path d="M6.5 -15.1 Q6.2 -14.9 6.0 -14.9 5.35 -14.9 5.3 -16.2 5.25 -16.9 5.35 -18.25 L5.6 -18.5 Q5.55 -18.3 5.55 -18.05 5.5 -17.9 5.55 -17.75 5.65 -17.45 6.2 -17.45 6.7 -17.45 7.65 -18.1 8.35 -18.55 8.6 -18.85 8.2 -17.75 7.2 -16.5 6.25 -15.45 6.25 -15.35 L6.25 -15.2 Q6.3 -15.1 6.5 -15.1 M7.7 -13.4 L7.05 -13.4 7.0 -13.45 Q6.55 -13.5 6.35 -13.75 5.7 -14.1 5.15 -15.0 4.8 -15.7 4.6 -16.45 L4.45 -17.0 4.65 -17.3 5.1 -17.9 Q5.2 -17.6 5.2 -17.1 L5.2 -16.0 Q5.2 -15.55 5.35 -15.25 L5.45 -15.1 Q5.7 -14.75 6.25 -14.75 6.9 -14.75 8.1 -16.3 8.5 -16.75 8.75 -17.2 L8.1 -15.2 Q7.65 -13.85 7.65 -13.7 7.6 -13.6 7.65 -13.5 L7.7 -13.4 M9.3 -18.75 L9.35 -19.0 9.45 -18.9 9.3 -18.75 M10.2 -15.8 L9.85 -15.3 10.0 -15.5 10.15 -15.8 10.2 -15.8 M8.6 -12.7 L7.6 -12.7 Q6.15 -12.75 5.45 -13.65 5.3 -13.9 5.15 -14.2 5.25 -14.0 5.45 -13.85 L5.25 -14.05 5.05 -14.35 Q4.65 -14.9 4.4 -15.6 4.2 -16.1 4.2 -16.35 4.2 -16.5 4.35 -16.6 L4.75 -15.6 Q5.0 -14.95 5.25 -14.6 5.7 -13.8 6.25 -13.4 6.5 -13.25 6.75 -13.15 L6.65 -13.15 6.8 -13.1 7.3 -13.0 7.35 -13.05 Q7.7 -13.05 8.1 -13.3 L8.05 -13.25 Q8.05 -13.1 8.2 -12.95 8.35 -12.75 8.6 -12.7 M6.3 -13.15 L6.25 -13.2 6.2 -13.2 6.3 -13.15" fill="#844a4a" fill-rule="evenodd" stroke="none"/>
    <path d="M5.6 -18.5 L6.0 -18.85 6.05 -18.9 Q6.8 -19.4 7.95 -19.75 L8.15 -19.75 8.4 -19.7 8.5 -19.7 9.15 -19.15 9.2 -18.95 Q9.2 -18.6 8.95 -17.9 8.7 -17.25 8.5 -16.95 7.95 -16.3 7.35 -15.75 L7.25 -15.65 7.25 -15.6 6.6 -15.1 6.5 -15.1 Q6.3 -15.1 6.25 -15.2 L6.25 -15.35 Q6.25 -15.45 7.2 -16.5 8.2 -17.75 8.6 -18.85 8.35 -18.55 7.65 -18.1 6.7 -17.45 6.2 -17.45 5.65 -17.45 5.55 -17.75 5.5 -17.9 5.55 -18.05 5.55 -18.3 5.6 -18.5 M7.7 -13.4 L7.65 -13.5 Q7.6 -13.6 7.65 -13.7 7.65 -13.85 8.1 -15.2 L8.75 -17.2 Q9.25 -18.05 9.3 -18.75 L9.45 -18.9 9.75 -18.6 Q9.95 -18.45 10.2 -18.1 10.45 -17.7 10.55 -17.35 10.55 -17.3 10.55 -17.1 L10.6 -16.5 10.55 -16.25 Q10.45 -16.05 10.3 -15.95 L10.2 -15.8 10.15 -15.8 10.0 -15.5 9.85 -15.3 9.45 -14.8 Q8.7 -13.9 8.15 -13.6 7.95 -13.45 7.7 -13.4 M8.1 -13.3 L8.35 -13.45 Q8.5 -13.7 9.1 -14.3 L10.2 -15.55 10.5 -16.0 10.55 -16.05 10.55 -15.95 Q10.6 -16.05 10.6 -15.5 10.6 -15.2 10.5 -14.45 L10.45 -13.55 10.15 -13.3 10.05 -13.2 9.45 -13.0 8.6 -12.7 Q8.35 -12.75 8.2 -12.95 8.05 -13.1 8.05 -13.25 L8.1 -13.3" fill="#5a3232" fill-rule="evenodd" stroke="none"/>
    <path d="M5.2 -11.2 L5.15 -11.5 4.8 -13.45 4.55 -14.7 Q4.7 -14.4 4.85 -14.1 5.5 -13.1 6.35 -12.7 L6.3 -12.25 6.3 -11.85 Q6.3 -11.7 6.5 -11.1 6.75 -10.5 6.85 -10.4 L6.9 -10.5 6.65 -11.2 Q6.45 -11.75 6.45 -11.9 L6.5 -12.2 6.55 -12.55 6.55 -12.6 Q7.1 -12.35 7.7 -12.35 9.1 -12.35 10.1 -12.9 L10.5 -13.1 10.55 -12.8 10.6 -11.8 Q10.6 -10.55 10.55 -10.2 L10.5 -9.95 10.3 -6.45 Q10.1 -2.75 10.1 -2.0 L10.15 -0.85 10.15 -0.75 10.2 -0.55 10.2 -0.5 10.25 -0.25 10.2 -0.2 10.2 -0.4 10.15 -0.25 Q10.0 0.0 9.8 0.05 L9.8 0.1 9.6 0.3 9.55 0.25 Q9.2 0.45 8.85 0.65 L8.15 0.95 6.55 1.05 5.95 1.05 Q5.95 0.9 6.3 0.3 L6.75 -0.4 6.8 -0.5 7.15 -1.1 7.15 -1.15 Q7.6 -1.95 7.9 -2.65 L8.1 -3.25 Q8.45 -3.7 8.8 -6.4 L8.4 -5.65 Q7.35 -3.85 6.6 -3.85 L6.55 -3.85 Q7.15 -4.35 8.0 -6.45 9.0 -9.05 9.0 -10.25 9.0 -10.5 8.9 -10.6 L8.95 -10.7 8.9 -11.0 8.65 -10.85 Q7.55 -10.2 6.9 -10.2 6.05 -10.2 5.55 -10.75 5.4 -11.0 5.3 -11.25 L5.2 -11.2 M5.35 -8.55 L5.35 -8.6 5.4 -8.5 5.35 -8.55 M5.4 -9.7 L5.35 -10.25 5.35 -10.2 5.4 -9.75 5.4 -9.7" fill="#466171" fill-rule="evenodd" stroke="none"/>
    <path d="M4.6 -17.7 L4.8 -18.0 Q5.25 -18.6 6.3 -19.6 L6.45 -19.75 6.65 -19.9 6.9 -20.05 7.5 -20.2 8.0 -20.3 8.55 -20.2 9.55 -19.3 9.7 -19.2 10.55 -18.1 10.9 -17.65 10.95 -17.6 11.0 -16.7 11.0 -16.65 11.05 -15.75 Q11.05 -13.9 10.9 -12.8 L10.9 -10.9 Q10.85 -10.05 10.65 -6.35 10.5 -2.7 10.5 -2.0 10.5 -1.25 10.55 -0.8 L10.65 0.0 Q9.4 0.7 9.05 0.9 L7.35 1.65 6.5 1.65 Q5.3 1.4 4.05 0.6 L3.6 0.3 Q3.4 -0.75 3.35 -1.6 3.4 -2.7 3.6 -3.65 L4.35 -5.65 Q5.0 -7.45 5.0 -8.1 5.05 -8.45 5.05 -8.9 5.05 -9.9 4.9 -10.7 L4.55 -12.05 4.5 -12.95 Q4.35 -14.85 3.95 -16.0 L3.95 -16.55 4.55 -17.65 4.6 -17.7 M5.6 -18.5 L5.35 -18.25 Q5.25 -16.9 5.3 -16.2 5.35 -14.9 6.0 -14.9 6.2 -14.9 6.5 -15.1 L6.6 -15.1 7.25 -15.6 7.25 -15.65 7.35 -15.75 Q7.95 -16.3 8.5 -16.95 8.7 -17.25 8.95 -17.9 9.2 -18.6 9.2 -18.95 L9.15 -19.15 8.5 -19.7 8.4 -19.7 8.15 -19.75 7.95 -19.75 Q6.8 -19.4 6.05 -18.9 L6.0 -18.85 5.6 -18.5 M8.75 -17.2 Q8.5 -16.75 8.1 -16.3 6.9 -14.75 6.25 -14.75 5.7 -14.75 5.45 -15.1 L5.35 -15.25 Q5.2 -15.55 5.2 -16.0 L5.2 -17.1 Q5.2 -17.6 5.1 -17.9 L4.65 -17.3 4.45 -17.0 4.6 -16.45 Q4.8 -15.7 5.15 -15.0 5.7 -14.1 6.35 -13.75 6.55 -13.5 7.0 -13.45 L7.05 -13.4 7.7 -13.4 Q7.95 -13.45 8.15 -13.6 8.7 -13.9 9.45 -14.8 L9.85 -15.3 10.2 -15.8 10.3 -15.95 Q10.45 -16.05 10.55 -16.25 L10.6 -16.5 10.55 -17.1 Q10.55 -17.3 10.55 -17.35 10.45 -17.7 10.2 -18.1 9.95 -18.45 9.75 -18.6 L9.45 -18.9 9.35 -19.0 9.3 -18.75 Q9.25 -18.05 8.75 -17.2 M8.1 -13.3 Q7.7 -13.05 7.35 -13.05 L7.3 -13.0 6.8 -13.1 6.65 -13.15 6.75 -13.15 Q6.5 -13.25 6.25 -13.4 5.7 -13.8 5.25 -14.6 5.0 -14.95 4.75 -15.6 L4.35 -16.6 Q4.2 -16.5 4.2 -16.35 4.2 -16.1 4.4 -15.6 4.65 -14.9 5.05 -14.35 L5.25 -14.05 5.45 -13.85 Q5.25 -14.0 5.15 -14.2 5.3 -13.9 5.45 -13.65 6.15 -12.75 7.6 -12.7 L8.6 -12.7 9.45 -13.0 10.05 -13.2 10.15 -13.3 10.45 -13.55 10.5 -14.45 Q10.6 -15.2 10.6 -15.5 10.6 -16.05 10.55 -15.95 L10.55 -16.05 10.5 -16.0 10.2 -15.55 9.1 -14.3 Q8.5 -13.7 8.35 -13.45 L8.1 -13.3 M5.95 1.05 L6.55 1.05 8.15 0.95 8.85 0.65 Q9.2 0.45 9.55 0.25 L9.6 0.3 9.8 0.1 9.8 0.05 Q10.0 0.0 10.15 -0.25 L10.2 -0.4 10.2 -0.2 10.25 -0.25 10.2 -0.5 10.2 -0.55 10.15 -0.75 10.15 -0.85 10.1 -2.0 Q10.1 -2.75 10.3 -6.45 L10.5 -9.95 10.55 -10.2 Q10.6 -10.55 10.6 -11.8 L10.55 -12.8 10.5 -13.1 10.1 -12.9 Q9.1 -12.35 7.7 -12.35 7.1 -12.35 6.55 -12.6 L6.55 -12.55 6.5 -12.2 6.45 -11.9 Q6.45 -11.75 6.65 -11.2 L6.9 -10.5 6.85 -10.4 Q6.75 -10.5 6.5 -11.1 6.3 -11.7 6.3 -11.85 L6.3 -12.25 6.35 -12.7 Q5.5 -13.1 4.85 -14.1 4.7 -14.4 4.55 -14.7 L4.8 -13.45 5.15 -11.5 5.2 -11.2 5.25 -10.9 5.35 -10.4 5.35 -10.25 5.4 -9.7 5.4 -9.3 5.35 -8.6 5.35 -8.55 Q5.25 -7.3 4.8 -6.0 4.45 -5.05 4.2 -4.25 3.8 -2.6 3.8 -0.6 3.8 -0.1 4.05 0.25 L4.2 0.4 Q5.0 0.9 5.95 1.05 M6.3 -13.15 L6.2 -13.2 6.25 -13.2 6.3 -13.15" fill="#101010" fill-rule="evenodd" stroke="none"/>
  </g>
</svg>
