<?xml version="1.0" encoding="UTF-8" standalone="no"?>
<svg xmlns:ffdec="https://www.free-decompiler.com/flash" xmlns:xlink="http://www.w3.org/1999/xlink" ffdec:objectType="shape" height="22.4px" width="12.7px" xmlns="http://www.w3.org/2000/svg">
  <g transform="matrix(1.0, 0.0, 0.0, 1.0, -0.7, 20.55)">
    <path d="M7.6 -10.7 L11.35 -5.8 11.4 -5.15 Q11.4 -4.85 11.25 -3.8 11.05 -2.75 11.05 -2.45 11.05 -1.85 11.45 -1.05 11.75 -0.35 11.8 -0.05 L11.85 0.05 Q12.15 0.25 12.4 0.6 12.8 1.05 13.1 1.55 L13.1 1.6 13.15 1.6 13.15 1.75 13.0 1.75 12.05 1.85 Q9.95 1.85 9.35 1.5 9.1 1.35 9.05 1.0 L8.45 -1.55 8.4 -1.55 8.35 -2.05 8.15 -2.55 7.55 -3.85 6.3 -3.35 6.3 -3.2 6.15 -2.3 Q6.0 -1.45 6.0 -1.35 L6.0 -0.5 5.95 0.3 5.9 0.35 5.8 0.5 5.75 0.5 1.95 0.9 3.05 -0.8 2.95 -0.8 2.9 -0.85 2.95 -0.85 2.85 -0.9 2.85 -1.0 Q2.85 -1.4 3.95 -2.7 3.45 -3.45 3.45 -3.75 L4.0 -6.95 7.6 -10.7 M7.55 -10.55 L4.0 -2.6 5.95 -2.05 6.2 -3.7 8.0 -3.3 8.7 -1.1 11.6 -0.15 Q11.25 -0.9 11.15 -1.25 L10.95 -2.5 11.15 -4.3 11.25 -5.15 7.55 -10.55" fill="#000000" fill-rule="evenodd" stroke="none"/>
    <path d="M7.55 -10.55 L11.25 -5.15 11.15 -4.3 10.95 -2.5 11.15 -1.25 Q11.25 -0.9 11.6 -0.15 L8.7 -1.1 8.0 -3.3 6.2 -3.7 5.95 -2.05 4.0 -2.6 7.55 -10.55" fill="#ffffff" fill-rule="evenodd" stroke="none"/>
    <path d="M11.75 -18.5 L7.6 -19.45 6.95 -19.5 1.85 -15.2 2.4 -15.5 12.6 -13.5 11.75 -18.5 M8.0 -3.25 L8.6 -1.25 11.4 -0.5 Q11.85 -0.45 11.85 0.0 L11.8 0.15 9.1 1.05 9.0 1.05 Q9.0 1.1 9.0 1.0 L9.0 0.95 8.4 0.4 Q8.15 0.05 8.15 -0.2 8.15 -0.4 8.3 -0.7 8.45 -1.0 8.45 -1.25 8.45 -1.45 8.35 -1.85 L8.2 -2.35 7.85 -3.2 7.2 -3.2 6.0 -3.3 3.6 -4.1 3.45 -3.55 Q3.45 -3.45 3.95 -2.75 L2.95 -0.85 2.9 -0.8 3.2 -0.85 5.2 0.55 5.85 0.45 Q5.7 0.65 5.3 0.7 L4.95 0.8 4.0 0.9 3.9 1.0 3.9 0.9 3.3 0.95 1.55 0.95 Q0.7 0.85 0.7 0.45 0.7 0.0 1.8 -0.45 2.1 -0.55 2.8 -0.75 2.8 -0.9 2.85 -0.9 L3.3 -1.85 Q3.55 -2.35 3.85 -2.7 3.35 -3.4 3.35 -3.55 L3.35 -3.55 3.3 -3.75 Q3.3 -4.0 3.35 -4.25 L3.45 -4.85 3.5 -4.85 Q3.1 -5.3 2.8 -5.8 2.55 -6.3 2.55 -6.45 2.55 -6.55 2.9 -7.65 L3.35 -8.75 3.55 -9.3 3.35 -9.6 Q3.05 -9.95 3.05 -10.1 3.05 -10.2 3.3 -11.05 3.5 -11.85 3.6 -12.15 3.35 -12.35 3.15 -12.6 L2.9 -12.95 Q2.65 -13.2 2.55 -13.45 2.15 -14.2 2.15 -15.15 L2.15 -15.2 2.1 -14.85 2.1 -14.7 2.05 -14.3 Q1.75 -14.7 1.7 -15.4 L1.7 -15.7 Q1.7 -16.65 2.1 -17.4 L2.35 -17.85 Q3.25 -18.95 4.85 -19.2 L5.7 -19.35 6.05 -19.35 5.95 -19.4 Q5.65 -19.65 5.3 -19.75 5.3 -19.85 5.45 -19.9 5.6 -20.05 5.85 -20.05 6.2 -20.05 6.45 -19.85 L6.2 -20.45 6.2 -20.55 Q6.7 -20.45 6.95 -20.25 7.15 -20.05 7.15 -19.8 L7.15 -19.65 Q7.25 -19.75 7.4 -19.9 7.85 -20.15 8.25 -20.2 L8.25 -20.1 8.05 -19.9 7.8 -19.55 8.55 -19.65 Q11.1 -19.6 12.35 -18.05 12.85 -17.55 13.05 -17.05 13.2 -16.7 13.3 -16.35 13.4 -15.95 13.4 -15.35 L13.4 -14.65 13.35 -14.4 13.3 -14.1 13.15 -13.7 12.95 -13.3 12.9 -13.3 12.7 -13.0 12.35 -12.8 12.3 -12.8 12.4 -13.5 Q12.15 -13.15 11.35 -12.6 L11.3 -12.55 11.15 -12.45 11.25 -12.1 Q11.4 -11.7 11.5 -11.15 L11.6 -10.35 11.65 -10.15 Q11.7 -10.2 11.7 -10.1 L11.65 -10.05 Q11.6 -9.9 11.4 -9.7 11.7 -9.2 12.05 -8.45 L12.65 -7.2 12.7 -7.0 12.75 -6.9 12.7 -6.9 12.7 -6.85 Q12.7 -6.8 12.6 -6.6 12.35 -6.1 11.7 -5.45 11.25 -5.05 10.75 -4.7 L8.15 -3.4 8.0 -3.25 M3.55 -4.5 L3.6 -4.75 3.55 -4.75 3.55 -4.5 M2.7 -6.5 L2.7 -6.5" fill="#000000" fill-rule="evenodd" stroke="none"/>
    <path d="M11.75 -18.5 L12.6 -13.5 2.4 -15.5 1.85 -15.2 6.95 -19.5 7.6 -19.45 11.75 -18.5 M8.15 -3.4 L8.0 -3.25 8.15 -3.4" fill="#ffffff" fill-rule="evenodd" stroke="none"/>
    <path d="M9.65 -13.15 L9.5 -12.7 Q9.35 -12.2 9.15 -11.9 L9.2 -11.95 9.25 -11.9 9.25 -11.95 10.0 -12.2 Q10.45 -12.35 10.75 -12.5 L11.05 -12.65 11.1 -12.7 11.8 -13.2 12.3 -13.7 12.4 -13.9 12.35 -14.35 12.35 -14.9 12.5 -14.4 12.55 -14.1 12.6 -13.6 12.6 -13.1 12.7 -13.3 Q12.95 -13.65 13.1 -14.1 L13.15 -14.25 13.15 -14.4 13.25 -14.65 13.25 -15.45 13.15 -16.15 13.15 -16.25 13.1 -16.35 13.05 -16.6 12.95 -16.9 12.55 -17.55 12.4 -17.8 Q12.1 -18.2 11.75 -18.5 L11.7 -18.5 11.7 -18.55 11.65 -18.55 11.55 -18.65 11.5 -18.65 11.5 -18.7 11.4 -18.75 11.35 -18.8 11.3 -18.8 11.25 -18.85 11.2 -18.85 11.1 -18.9 11.1 -18.95 11.05 -18.95 Q10.4 -19.3 9.6 -19.45 L9.55 -19.45 9.25 -19.5 8.55 -19.5 7.65 -19.35 7.6 -19.35 7.6 -19.45 Q7.6 -19.55 7.75 -19.75 L8.05 -20.05 7.95 -20.0 7.55 -19.85 7.5 -19.8 7.4 -19.75 7.15 -19.5 7.1 -19.45 7.05 -19.4 7.05 -19.45 7.0 -19.45 6.95 -19.5 7.0 -19.8 Q7.0 -19.95 6.85 -20.15 L6.8 -20.15 6.65 -20.3 6.55 -20.35 6.4 -20.4 6.45 -20.25 6.5 -20.15 6.5 -20.1 6.55 -20.05 6.6 -19.9 6.65 -19.7 6.7 -19.55 6.65 -19.45 6.55 -19.55 6.45 -19.7 Q6.35 -19.8 6.2 -19.85 L5.95 -19.9 5.85 -19.9 5.65 -19.85 5.5 -19.8 Q5.75 -19.75 5.95 -19.6 L5.95 -19.65 6.35 -19.25 6.55 -18.85 6.3 -19.1 6.3 -19.15 6.05 -19.15 5.95 -19.1 5.55 -19.15 Q3.55 -19.05 2.5 -17.65 2.2 -17.25 2.0 -16.7 L1.95 -16.55 1.9 -16.3 Q1.8 -15.8 1.8 -15.55 L1.85 -15.25 1.85 -15.2 1.9 -15.0 Q1.95 -15.2 2.05 -15.5 L2.05 -15.6 2.2 -15.95 Q2.4 -16.5 2.6 -16.75 L2.8 -16.95 2.6 -16.5 2.45 -16.0 2.4 -15.5 Q2.4 -14.95 2.45 -14.45 2.5 -14.0 2.65 -13.65 3.1 -12.65 4.3 -12.15 L4.35 -12.15 4.35 -12.2 Q4.3 -12.3 4.25 -12.45 L4.25 -12.9 Q4.25 -13.45 4.45 -13.85 4.9 -14.65 5.05 -15.1 5.2 -15.5 5.35 -16.25 5.55 -16.9 6.05 -17.3 L5.6 -17.35 6.1 -17.4 6.15 -17.4 6.3 -17.4 Q7.4 -17.25 8.3 -16.55 8.85 -16.1 9.25 -15.45 9.45 -15.15 9.55 -14.75 L9.6 -14.7 9.6 -14.65 9.7 -14.15 9.7 -13.75 9.65 -13.2 9.65 -13.15 M13.3 -16.35 Q13.4 -15.95 13.4 -15.35 L13.4 -14.65 13.35 -14.4 13.3 -14.1 13.15 -13.7 12.95 -13.3 12.9 -13.3 12.7 -13.0 12.35 -12.8 12.3 -12.8 12.4 -13.5 Q12.15 -13.15 11.35 -12.6 L11.3 -12.55 11.15 -12.45 11.25 -12.1 Q11.4 -11.7 11.5 -11.15 L11.6 -10.35 11.65 -10.15 Q11.7 -10.2 11.7 -10.1 L11.65 -10.05 Q11.6 -9.9 11.4 -9.7 11.7 -9.2 12.05 -8.45 L12.65 -7.2 12.7 -7.0 12.75 -6.9 12.7 -6.9 12.7 -6.85 Q12.7 -6.8 12.6 -6.6 12.35 -6.1 11.7 -5.45 L11.4 -5.2 11.4 -5.15 Q11.4 -4.85 11.25 -3.8 11.05 -2.75 11.05 -2.45 11.05 -1.85 11.45 -1.05 L11.7 -0.4 Q11.85 -0.25 11.85 0.0 L11.85 0.05 Q12.15 0.25 12.4 0.6 12.8 1.05 13.1 1.55 L13.1 1.6 13.15 1.6 13.15 1.75 13.0 1.75 12.05 1.85 Q9.95 1.85 9.35 1.5 9.1 1.35 9.05 1.05 L9.0 1.05 Q9.0 1.1 9.0 1.0 8.85 0.9 8.6 0.6 L8.4 0.4 Q8.15 0.05 8.15 -0.2 8.15 -0.4 8.3 -0.7 8.45 -1.0 8.45 -1.25 L8.35 -1.85 8.2 -2.35 7.85 -3.2 7.2 -3.2 6.3 -3.25 6.3 -3.2 6.15 -2.3 Q6.0 -1.45 6.0 -1.35 L6.0 -0.5 5.95 0.3 5.9 0.35 5.85 0.45 5.8 0.5 Q5.65 0.65 5.3 0.7 L4.95 0.8 4.0 0.9 3.9 1.0 3.9 0.9 3.3 0.95 1.55 0.95 Q0.7 0.85 0.7 0.45 0.7 0.0 1.8 -0.45 2.1 -0.55 2.8 -0.75 2.8 -0.9 2.85 -0.9 L2.85 -1.0 Q2.85 -1.25 3.3 -1.9 3.55 -2.4 3.85 -2.7 3.35 -3.4 3.35 -3.55 L3.35 -3.55 3.3 -3.75 Q3.3 -4.0 3.35 -4.25 L3.45 -4.85 3.5 -4.85 Q3.1 -5.3 2.8 -5.8 2.55 -6.3 2.55 -6.45 2.55 -6.55 2.9 -7.65 L3.35 -8.75 3.55 -9.3 3.35 -9.6 Q3.05 -9.95 3.05 -10.1 3.05 -10.2 3.3 -11.05 3.5 -11.85 3.6 -12.15 3.35 -12.35 3.15 -12.6 L2.9 -12.95 Q2.65 -13.2 2.55 -13.45 2.15 -14.2 2.15 -15.15 L2.15 -15.2 2.1 -14.85 2.1 -14.7 2.05 -14.3 Q1.75 -14.7 1.7 -15.4 L1.7 -15.7 Q1.7 -16.65 2.1 -17.4 L2.35 -17.85 Q3.25 -18.95 4.85 -19.2 L5.7 -19.35 6.05 -19.35 5.95 -19.4 Q5.65 -19.65 5.3 -19.75 5.3 -19.85 5.45 -19.9 5.6 -20.05 5.85 -20.05 6.2 -20.05 6.45 -19.85 L6.2 -20.45 6.2 -20.55 Q6.7 -20.45 6.95 -20.25 7.15 -20.05 7.15 -19.8 L7.15 -19.65 Q7.25 -19.75 7.4 -19.9 7.85 -20.15 8.25 -20.2 L8.25 -20.1 8.05 -19.9 7.8 -19.55 8.55 -19.65 Q11.1 -19.6 12.35 -18.05 12.85 -17.55 13.05 -17.05 13.2 -16.7 13.3 -16.35 M5.65 -14.85 L5.6 -15.05 Q5.6 -15.3 5.6 -15.65 5.6 -16.05 5.6 -16.25 L5.6 -16.25 5.5 -15.6 Q5.4 -15.2 5.25 -14.95 L5.2 -14.85 5.15 -14.7 5.1 -14.65 5.1 -14.6 5.0 -14.15 Q4.85 -13.2 4.85 -12.9 4.85 -12.25 5.0 -11.75 L5.1 -11.45 5.3 -11.05 5.35 -11.05 5.4 -10.9 5.55 -10.65 5.65 -10.5 5.9 -10.65 6.2 -10.8 6.45 -10.9 7.05 -11.4 7.3 -11.55 Q7.85 -12.0 8.2 -12.35 L8.45 -12.6 8.45 -12.65 Q8.8 -13.1 9.1 -13.65 L9.45 -14.3 9.35 -14.7 Q9.3 -15.05 9.05 -15.45 L9.0 -15.5 8.85 -15.7 8.8 -15.8 Q8.75 -15.5 8.45 -15.1 8.2 -14.7 7.9 -14.5 7.75 -14.45 7.6 -14.45 L7.55 -14.45 7.55 -14.5 7.9 -14.7 8.05 -14.8 8.45 -15.2 8.5 -15.3 Q8.6 -15.5 8.7 -15.95 L8.55 -16.1 8.35 -16.25 Q8.15 -16.45 7.95 -16.5 L7.65 -16.7 Q7.3 -16.95 6.85 -17.05 L6.2 -17.25 6.15 -17.25 6.0 -17.1 5.85 -16.9 5.75 -16.6 5.75 -16.1 5.7 -15.7 5.7 -15.55 5.75 -15.35 5.75 -15.15 Q5.8 -14.25 6.15 -13.7 L6.1 -13.7 5.8 -14.0 5.75 -14.4 5.7 -14.6 5.7 -14.65 5.65 -14.8 5.65 -14.85 M6.15 -9.8 Q7.25 -10.05 8.15 -10.55 L8.4 -10.7 Q9.15 -11.15 9.8 -11.8 L9.1 -11.7 8.95 -11.75 8.9 -11.8 9.2 -12.45 Q9.5 -13.25 9.5 -13.45 L9.5 -13.8 9.15 -13.25 8.95 -13.0 8.9 -12.9 Q8.65 -12.55 8.4 -12.3 7.85 -11.7 7.1 -11.15 6.2 -10.45 5.7 -10.4 L5.75 -10.35 5.7 -10.3 6.05 -9.95 6.15 -9.8 M7.1 -9.0 Q7.9 -8.5 8.9 -8.25 L9.35 -8.45 10.5 -9.15 10.9 -9.45 11.2 -9.7 11.5 -10.0 Q11.4 -10.25 11.35 -10.8 L11.25 -11.2 11.25 -11.25 11.2 -11.45 11.0 -12.4 Q10.5 -12.05 10.0 -11.9 9.95 -11.55 8.55 -10.7 L8.55 -10.65 8.5 -10.65 8.35 -10.55 Q7.05 -9.8 6.25 -9.7 6.65 -9.3 7.1 -9.0 M7.85 -8.0 L8.4 -8.1 8.5 -8.1 Q7.6 -8.25 6.65 -9.1 6.35 -9.4 6.05 -9.7 L6.0 -9.75 5.95 -9.85 5.9 -9.85 5.85 -9.95 5.6 -10.25 5.55 -10.4 Q5.05 -11.1 4.85 -11.6 4.65 -12.15 4.65 -12.8 4.65 -13.3 4.8 -13.9 L4.8 -14.05 4.65 -13.65 Q4.45 -13.05 4.45 -12.4 4.45 -12.25 4.5 -12.1 L4.5 -11.95 4.45 -11.9 4.35 -11.9 4.3 -11.95 3.9 -12.0 4.0 -11.6 Q4.4 -10.65 5.15 -9.75 L5.4 -9.5 5.8 -9.15 Q6.5 -8.55 7.2 -8.2 7.55 -8.05 7.8 -8.0 L7.85 -8.0 M7.45 -7.95 L7.45 -7.95 M8.75 -8.0 L8.25 -7.9 8.55 -7.35 Q9.35 -6.05 10.85 -5.15 L11.2 -5.5 11.4 -5.65 Q11.95 -6.25 12.55 -7.05 L12.5 -7.15 Q12.2 -7.6 11.75 -8.45 11.3 -9.25 11.2 -9.55 L10.75 -9.1 10.15 -8.65 10.1 -8.65 10.0 -8.55 9.9 -8.55 9.9 -8.5 Q9.3 -8.2 8.75 -8.0 M3.5 -9.6 Q3.8 -9.2 4.25 -8.9 L4.55 -8.7 4.6 -8.65 Q5.7 -7.9 7.0 -7.9 L7.4 -7.95 Q6.75 -8.2 6.15 -8.65 5.7 -8.95 5.3 -9.4 L5.2 -9.5 4.9 -9.85 Q3.8 -11.2 3.75 -12.1 L3.5 -11.1 3.2 -10.15 Q3.2 -9.95 3.5 -9.65 L3.5 -9.6 M8.55 -7.05 Q8.3 -7.45 8.2 -7.85 L7.0 -7.75 Q5.65 -7.75 4.55 -8.45 L4.45 -8.55 4.1 -8.8 Q3.85 -9.0 3.65 -9.2 L3.45 -8.55 3.25 -7.8 Q3.15 -7.65 3.05 -7.1 2.95 -6.65 2.8 -6.4 L2.85 -6.4 Q2.95 -5.7 3.65 -4.95 L3.7 -4.85 3.85 -4.75 Q4.1 -4.5 4.4 -4.3 5.2 -3.7 6.2 -3.55 L6.3 -3.55 6.9 -3.5 7.7 -3.55 7.85 -3.6 Q9.2 -3.85 10.45 -4.85 L10.7 -5.05 Q10.4 -5.2 9.9 -5.6 9.4 -6.05 9.0 -6.45 L8.95 -6.5 Q8.75 -6.75 8.55 -7.05 M11.3 -9.6 L11.35 -9.6 11.3 -9.65 11.3 -9.6 M3.55 -4.7 L3.6 -4.75 3.55 -4.75 3.55 -4.7 M3.45 -3.55 L3.5 -3.45 3.45 -3.6 3.45 -3.55 M3.65 -4.4 L3.6 -4.1 3.55 -3.9 3.55 -3.75 Q3.55 -3.6 4.3 -2.4 L4.9 -1.45 5.15 -1.1 5.3 -0.95 5.2 -1.0 5.35 -0.8 Q5.25 -0.85 5.15 -1.0 4.95 -1.25 4.6 -1.7 L4.2 -2.25 3.95 -2.55 3.6 -2.05 3.55 -2.0 Q3.15 -1.35 2.95 -0.95 L3.4 -0.95 3.4 -1.0 3.55 -1.0 Q3.9 -1.0 4.15 -0.85 4.5 -0.75 4.75 -0.5 L5.0 -0.3 5.05 -0.3 5.1 -0.2 5.25 -0.1 5.75 0.3 5.5 0.2 Q5.6 0.3 5.75 0.35 L5.85 0.35 Q5.85 0.0 5.85 -0.5 5.85 -1.3 5.95 -2.05 L6.15 -3.25 6.0 -3.3 Q4.8 -3.4 3.7 -4.6 L3.65 -4.4 M2.75 -6.65 L2.75 -6.65 M3.15 0.0 L2.5 -0.45 2.05 -0.25 Q1.45 0.0 1.2 0.2 1.0 0.35 1.0 0.45 1.0 0.55 1.2 0.65 1.45 0.75 1.9 0.75 L3.8 0.75 3.6 0.45 3.45 0.5 3.4 0.45 3.55 0.35 3.4 0.2 Q3.2 0.25 3.0 0.3 L2.95 0.25 3.3 0.1 3.15 0.0 M4.15 -0.7 L3.55 -0.8 3.3 -0.8 2.9 -0.65 2.9 -0.6 2.85 -0.55 2.8 -0.6 2.6 -0.5 Q2.95 -0.4 3.35 0.0 L3.4 0.05 3.7 -0.1 3.5 0.15 3.65 0.3 Q3.75 0.25 3.85 0.25 L3.7 0.4 Q3.85 0.6 3.95 0.75 L4.05 0.7 5.1 0.5 5.55 0.4 4.85 -0.3 Q4.55 -0.55 4.25 -0.7 L4.15 -0.7 M2.95 -0.8 L2.95 -0.8 M10.9 -4.9 L11.0 -5.0 10.95 -5.0 10.9 -4.9 M11.05 -5.05 L11.05 -5.05 M9.7 -1.65 L9.8 -1.7 Q10.05 -1.8 10.45 -1.9 10.85 -2.0 11.0 -1.85 10.95 -2.15 10.95 -2.5 10.95 -2.85 11.15 -4.3 L11.25 -5.05 10.75 -4.7 Q10.5 -4.4 9.2 -3.85 8.55 -3.6 8.15 -3.4 8.0 -3.4 8.0 -3.3 L8.05 -3.25 8.05 -3.2 8.3 -2.65 8.25 -2.65 8.4 -2.35 8.4 -2.25 Q8.7 -1.45 8.7 -1.1 8.7 -0.75 8.5 -0.45 L8.4 -0.25 8.4 -0.2 8.45 0.05 8.7 0.45 9.0 0.75 9.0 0.85 Q9.1 0.65 9.45 0.4 9.7 0.15 10.05 -0.05 10.35 -0.25 10.6 -0.35 L10.8 -0.4 Q11.15 -0.5 11.4 -0.5 L11.45 -0.5 11.15 -1.25 11.0 -1.7 10.95 -1.75 Q10.8 -1.85 10.55 -1.85 L10.5 -1.85 Q10.2 -1.85 9.85 -1.6 L9.75 -1.55 9.65 -1.45 9.0 -0.8 8.95 -0.85 Q9.05 -1.05 9.25 -1.25 9.45 -1.45 9.7 -1.65 M10.85 -0.25 Q10.65 -0.2 10.45 -0.1 10.2 0.05 9.9 0.25 L9.8 0.35 Q9.6 0.5 9.2 0.95 L9.25 1.1 Q9.25 1.35 9.55 1.4 L10.0 1.5 9.95 1.45 Q9.95 1.3 10.25 1.1 L10.2 1.0 Q10.05 0.8 10.05 0.75 10.05 0.65 10.15 0.65 L10.35 0.85 10.4 0.95 10.55 0.85 Q10.45 0.75 10.45 0.7 10.55 0.65 10.65 0.75 10.8 0.7 10.95 0.6 11.6 0.3 12.0 0.45 L11.75 0.15 11.7 0.15 11.7 0.1 11.55 -0.1 11.5 -0.1 11.3 -0.2 11.1 -0.25 10.85 -0.25 M11.4 -0.3 L11.4 -0.3 M12.0 0.45 L12.0 0.45 M13.0 1.6 L12.25 0.75 12.1 0.5 12.05 0.5 Q11.45 0.5 10.9 0.8 L10.75 0.85 10.8 1.0 10.8 1.05 10.65 0.95 10.5 1.1 10.55 1.2 10.5 1.25 10.35 1.2 10.0 1.5 10.2 1.55 11.05 1.65 11.6 1.7 Q12.8 1.7 12.95 1.65 L13.0 1.65 13.05 1.65 13.0 1.6" fill="#000000" fill-rule="evenodd" stroke="none"/>
    <path d="M7.45 -7.95 L7.45 -7.95 M11.3 -9.6 L11.3 -9.65 11.35 -9.6 11.3 -9.6 M11.05 -5.05 L11.05 -5.05 M10.9 -4.9 L10.95 -5.0 11.0 -5.0 10.9 -4.9 M11.4 -0.3 L11.4 -0.3" fill="#ffffff" fill-rule="evenodd" stroke="none"/>
    <path d="M7.1 -9.0 Q6.65 -9.3 6.25 -9.7 7.05 -9.8 8.35 -10.55 L8.5 -10.65 7.55 -9.5 7.1 -9.0 M10.75 -11.4 L10.7 -11.45 10.85 -11.6 10.75 -11.4 M8.55 -7.35 L8.25 -7.9 8.75 -8.0 8.65 -7.75 8.55 -7.35 M6.15 -8.65 Q5.4 -8.65 5.0 -8.8 L4.3 -9.1 3.75 -9.5 Q3.6 -9.6 3.5 -9.6 L3.5 -9.65 Q3.2 -9.95 3.2 -10.15 L3.5 -11.1 3.75 -12.1 Q3.8 -11.2 4.9 -9.85 L5.2 -9.5 5.3 -9.4 Q5.7 -8.95 6.15 -8.65 M4.4 -4.3 Q4.1 -4.5 3.85 -4.75 L3.7 -4.85 3.65 -4.95 Q2.95 -5.7 2.85 -6.4 L2.8 -6.4 Q2.95 -6.65 3.05 -7.1 3.15 -7.65 3.25 -7.8 L3.45 -8.55 3.65 -9.2 Q3.85 -9.0 4.1 -8.8 L4.45 -8.55 4.55 -8.45 Q5.65 -7.75 7.0 -7.75 L8.2 -7.85 Q8.3 -7.45 8.55 -7.05 7.8 -6.15 7.4 -5.85 6.65 -5.2 5.9 -4.7 5.3 -4.35 4.4 -4.3" fill="#a25772" fill-rule="evenodd" stroke="none"/>
    <path d="M5.2 -14.85 L5.25 -14.9 5.35 -14.95 Q5.55 -15.0 5.65 -14.85 L5.65 -14.8 5.7 -14.65 5.7 -14.6 5.75 -14.4 5.8 -14.0 6.1 -13.7 6.15 -13.7 Q5.8 -14.25 5.75 -15.15 L5.75 -15.35 5.7 -15.55 5.7 -15.7 5.75 -16.1 5.75 -16.6 Q5.95 -16.45 6.1 -16.05 6.55 -15.6 7.0 -15.5 7.15 -15.45 7.15 -15.05 7.15 -14.55 7.05 -14.15 L7.0 -13.9 7.05 -13.9 Q7.35 -13.8 7.7 -13.65 L7.7 -13.5 Q7.55 -12.85 7.2 -12.4 6.9 -11.95 6.0 -11.1 L5.55 -10.65 5.4 -10.9 5.35 -11.05 5.35 -11.0 5.3 -11.05 5.1 -11.45 5.0 -11.75 Q4.85 -12.25 4.85 -12.9 4.85 -13.2 5.0 -14.15 L5.1 -14.6 5.1 -14.65 5.15 -14.7 5.2 -14.85" fill="#b84130" fill-rule="evenodd" stroke="none"/>
    <path d="M8.05 -20.05 L7.95 -20.0 8.05 -20.05 M7.55 -19.85 L7.55 -19.7 7.5 -19.5 Q7.4 -19.4 7.3 -19.35 L7.35 -19.35 Q7.85 -19.15 8.5 -18.75 8.95 -18.45 9.25 -18.15 9.5 -17.9 9.75 -17.55 10.25 -16.9 10.4 -16.35 10.55 -15.95 10.55 -15.25 10.55 -14.95 10.3 -14.15 10.0 -13.2 9.65 -13.15 L9.65 -13.2 9.7 -13.75 9.7 -14.15 9.6 -14.65 9.6 -14.7 9.55 -14.75 Q9.45 -15.15 9.25 -15.45 8.85 -16.1 8.3 -16.55 7.4 -17.25 6.3 -17.4 L6.15 -17.4 6.2 -17.4 Q6.15 -17.65 5.9 -17.55 5.55 -17.5 5.3 -17.1 L5.05 -16.6 4.8 -16.15 Q4.35 -15.35 4.05 -15.0 3.5 -14.4 2.65 -14.4 L2.45 -14.45 Q2.4 -14.95 2.4 -15.5 L2.45 -16.0 2.6 -16.5 2.8 -16.95 2.6 -16.75 Q2.6 -16.85 2.45 -16.8 2.3 -16.75 2.1 -16.55 L1.9 -16.3 1.95 -16.55 2.0 -16.7 Q2.2 -17.25 2.5 -17.65 3.55 -19.05 5.55 -19.15 L5.95 -19.1 6.05 -19.15 6.3 -19.15 6.3 -19.1 6.55 -18.85 6.35 -19.25 5.95 -19.65 5.95 -19.6 Q5.75 -19.75 5.5 -19.8 L5.65 -19.85 5.85 -19.9 5.95 -19.9 6.2 -19.85 Q6.35 -19.8 6.45 -19.7 L6.55 -19.55 6.65 -19.45 6.7 -19.55 6.65 -19.7 6.6 -19.9 6.55 -20.05 6.5 -20.1 6.5 -20.15 6.45 -20.25 6.4 -20.4 6.55 -20.35 6.65 -20.3 Q6.9 -20.0 6.9 -19.7 L6.9 -19.45 7.0 -19.45 7.05 -19.45 7.05 -19.4 7.1 -19.45 7.15 -19.5 7.4 -19.75 7.5 -19.8 7.55 -19.85 M4.35 -12.2 L4.35 -12.15 4.3 -12.15 4.35 -12.2 M2.2 -15.95 L2.05 -15.6 Q2.05 -15.75 2.15 -15.85 L2.15 -15.9 2.2 -15.95 M9.35 -16.25 L9.35 -16.25" fill="#f1ce9e" fill-rule="evenodd" stroke="none"/>
    <path d="M8.9 -12.9 Q8.7 -12.5 8.4 -12.1 7.8 -11.3 6.7 -10.3 L6.15 -9.8 6.05 -9.95 5.7 -10.3 5.75 -10.35 5.7 -10.4 Q6.2 -10.45 7.1 -11.15 7.85 -11.7 8.4 -12.3 8.65 -12.55 8.9 -12.9 M7.85 -8.0 L7.8 -8.0 Q7.55 -8.05 7.2 -8.2 6.5 -8.55 5.8 -9.15 L5.4 -9.5 5.15 -9.75 Q4.4 -10.65 4.0 -11.6 L3.9 -12.0 4.3 -11.95 4.35 -11.9 4.5 -11.45 Q4.75 -10.65 5.2 -10.1 5.6 -9.65 6.55 -8.85 7.3 -8.3 7.85 -8.0" fill="#ddaf44" fill-rule="evenodd" stroke="none"/>
    <path d="M5.15 -1.1 L4.9 -1.45 4.3 -2.4 Q3.55 -3.6 3.55 -3.75 L3.55 -3.9 3.6 -4.1 3.65 -4.4 3.8 -4.1 4.2 -3.45 4.7 -2.8 Q5.05 -2.35 5.1 -2.05 L5.15 -1.1 M4.15 -0.85 Q3.9 -1.0 3.55 -1.0 L3.4 -1.0 3.4 -0.95 2.95 -0.95 Q3.15 -1.35 3.55 -2.0 L3.6 -2.05 3.95 -2.55 4.2 -2.25 4.6 -1.7 4.55 -1.7 Q4.4 -1.55 4.35 -1.35 L4.2 -0.95 4.15 -0.85 M8.05 -3.2 Q8.25 -3.1 8.55 -3.0 9.5 -2.65 9.6 -2.5 9.65 -2.4 9.75 -1.9 L9.7 -1.65 Q9.45 -1.45 9.25 -1.25 9.05 -1.05 8.95 -0.85 L9.0 -0.8 9.65 -1.45 9.55 -1.0 9.2 0.0 Q8.95 0.65 8.95 0.7 L9.0 0.75 8.7 0.45 8.45 0.05 8.4 -0.2 8.4 -0.25 8.5 -0.45 Q8.7 -0.75 8.7 -1.1 8.7 -1.45 8.4 -2.25 L8.4 -2.35 8.25 -2.65 8.3 -2.65 8.05 -3.2" fill="#cd8c4b" fill-rule="evenodd" stroke="none"/>
    <path d="M1.2 0.2 Q1.45 0.0 2.05 -0.25 L2.5 -0.45 3.15 0.0 2.9 0.05 1.9 0.35 1.55 0.3 1.2 0.2 M3.35 0.0 Q2.95 -0.4 2.6 -0.5 L2.8 -0.6 2.85 -0.55 2.9 -0.6 2.9 -0.65 3.3 -0.8 3.55 -0.8 4.15 -0.7 Q3.65 -0.45 3.4 -0.3 L3.25 -0.1 3.35 0.0 M10.85 -0.25 L10.8 -0.25 10.75 -0.1 Q10.75 -0.05 10.85 0.15 L10.7 0.4 Q10.6 0.65 10.6 0.7 L10.65 0.75 Q10.55 0.65 10.45 0.7 10.45 0.75 10.55 0.85 L10.4 0.95 10.35 0.85 10.15 0.65 Q10.05 0.65 10.05 0.75 10.05 0.8 10.2 1.0 L10.25 1.1 Q9.95 1.3 9.95 1.45 L10.0 1.5 9.55 1.4 Q9.25 1.35 9.25 1.1 L9.2 0.95 Q9.6 0.5 9.8 0.35 L9.9 0.25 Q10.2 0.05 10.45 -0.1 10.65 -0.2 10.85 -0.25 M12.0 0.45 L12.0 0.45 M10.9 0.8 L10.95 0.9 11.05 1.05 Q11.05 1.1 10.9 1.2 10.8 1.35 10.8 1.45 10.8 1.55 11.05 1.65 L10.2 1.55 10.0 1.5 10.35 1.2 10.5 1.25 10.55 1.2 10.5 1.1 10.65 0.95 10.8 1.05 10.8 1.0 10.75 0.85 10.9 0.8 M13.0 1.65 L13.0 1.6 13.05 1.65 13.0 1.65" fill="#827b66" fill-rule="evenodd" stroke="none"/>
    <path d="M8.5 -10.65 L8.55 -10.65 8.55 -10.7 Q9.95 -11.55 10.0 -11.9 10.5 -12.05 11.0 -12.4 L11.2 -11.45 11.25 -11.25 11.25 -11.2 11.35 -10.8 Q11.4 -10.25 11.5 -10.0 L11.2 -9.7 10.9 -9.45 10.5 -9.15 9.35 -8.45 8.9 -8.25 Q7.9 -8.5 7.1 -9.0 L7.55 -9.5 8.5 -10.65 M10.75 -11.4 L10.85 -11.6 10.7 -11.45 10.75 -11.4 M8.55 -7.35 L8.65 -7.75 8.75 -8.0 Q9.3 -8.2 9.9 -8.5 L9.9 -8.55 10.0 -8.55 10.1 -8.65 10.15 -8.65 10.75 -9.1 11.2 -9.55 Q11.3 -9.25 11.75 -8.45 12.2 -7.6 12.5 -7.15 L12.55 -7.05 Q11.95 -6.25 11.4 -5.65 L11.2 -5.5 10.85 -5.15 Q9.35 -6.05 8.55 -7.35 M6.15 -8.65 Q6.75 -8.2 7.4 -7.95 L7.0 -7.9 Q5.7 -7.9 4.6 -8.65 L4.55 -8.7 4.25 -8.9 Q3.8 -9.2 3.5 -9.6 3.6 -9.6 3.75 -9.5 L4.3 -9.1 5.0 -8.8 Q5.4 -8.65 6.15 -8.65 M4.4 -4.3 Q5.3 -4.35 5.9 -4.7 6.65 -5.2 7.4 -5.85 7.8 -6.15 8.55 -7.05 8.75 -6.75 8.95 -6.5 L9.0 -6.45 Q9.4 -6.05 9.9 -5.6 10.4 -5.2 10.7 -5.05 L10.45 -4.85 Q9.2 -3.85 7.85 -3.6 L7.7 -3.55 6.9 -3.5 6.3 -3.55 6.2 -3.55 Q5.2 -3.7 4.4 -4.3" fill="#84556f" fill-rule="evenodd" stroke="none"/>
    <path d="M8.05 -20.05 L7.75 -19.75 Q7.6 -19.55 7.6 -19.45 L7.6 -19.35 7.65 -19.35 8.55 -19.5 9.25 -19.5 9.55 -19.45 9.6 -19.45 Q10.4 -19.3 11.05 -18.95 L11.1 -18.95 11.1 -18.9 11.2 -18.85 11.25 -18.85 11.3 -18.8 11.35 -18.8 11.4 -18.75 11.5 -18.7 11.5 -18.65 11.55 -18.65 11.65 -18.55 11.7 -18.55 11.7 -18.5 11.75 -18.5 Q12.1 -18.2 12.4 -17.8 L12.55 -17.55 12.95 -16.9 13.05 -16.6 13.1 -16.35 13.15 -16.25 13.15 -16.15 13.25 -15.45 13.25 -14.65 13.15 -14.4 13.15 -14.25 13.1 -14.1 Q12.95 -13.65 12.7 -13.3 L12.6 -13.1 12.6 -13.6 12.55 -14.1 12.5 -14.4 12.35 -14.9 12.35 -14.35 12.4 -13.9 12.3 -13.7 11.8 -13.2 11.1 -12.7 11.05 -12.65 10.75 -12.5 Q10.45 -12.35 10.0 -12.2 L9.25 -11.95 9.25 -11.9 9.2 -11.95 9.15 -11.9 Q9.35 -12.2 9.5 -12.7 L9.65 -13.15 Q10.0 -13.2 10.3 -14.15 10.55 -14.95 10.55 -15.25 10.55 -15.95 10.4 -16.35 10.25 -16.9 9.75 -17.55 9.5 -17.9 9.25 -18.15 8.95 -18.45 8.5 -18.75 7.85 -19.15 7.35 -19.35 L7.3 -19.35 Q7.4 -19.4 7.5 -19.5 L7.55 -19.7 7.55 -19.85 7.95 -20.0 8.05 -20.05 M6.15 -17.4 L6.1 -17.4 5.6 -17.35 6.05 -17.3 Q5.55 -16.9 5.35 -16.25 5.2 -15.5 5.05 -15.1 4.9 -14.65 4.45 -13.85 4.25 -13.45 4.25 -12.9 L4.25 -12.45 Q4.3 -12.3 4.35 -12.2 L4.3 -12.15 Q3.1 -12.65 2.65 -13.65 2.5 -14.0 2.45 -14.45 L2.65 -14.4 Q3.5 -14.4 4.05 -15.0 4.35 -15.35 4.8 -16.15 L5.05 -16.6 5.3 -17.1 Q5.55 -17.5 5.9 -17.55 6.15 -17.65 6.2 -17.4 L6.15 -17.4 M2.6 -16.75 Q2.4 -16.5 2.2 -15.95 L2.15 -15.9 2.15 -15.85 Q2.05 -15.75 2.05 -15.6 L2.05 -15.5 Q1.95 -15.2 1.9 -15.0 L1.85 -15.2 1.85 -15.25 1.8 -15.55 Q1.8 -15.8 1.9 -16.3 L2.1 -16.55 Q2.3 -16.75 2.45 -16.8 2.6 -16.85 2.6 -16.75 M6.65 -20.3 L6.8 -20.15 6.85 -20.15 Q7.0 -19.95 7.0 -19.8 L6.95 -19.5 7.0 -19.45 7.05 -19.45 7.0 -19.45 6.9 -19.45 6.9 -19.7 Q6.9 -20.0 6.65 -20.3 M7.1 -19.45 L7.15 -19.5 7.1 -19.45 M9.35 -16.25 L9.35 -16.25" fill="#eca282" fill-rule="evenodd" stroke="none"/>
    <path d="M8.9 -12.9 L8.95 -13.0 9.15 -13.25 9.5 -13.8 9.5 -13.45 Q9.5 -13.25 9.2 -12.45 L8.9 -11.8 8.95 -11.75 9.1 -11.7 9.8 -11.8 Q9.15 -11.15 8.4 -10.7 L8.15 -10.55 Q7.25 -10.05 6.15 -9.8 L6.7 -10.3 Q7.8 -11.3 8.4 -12.1 8.7 -12.5 8.9 -12.9 M4.35 -11.9 L4.45 -11.9 4.5 -11.95 4.5 -12.1 Q4.45 -12.25 4.45 -12.4 4.45 -13.05 4.65 -13.65 L4.8 -14.05 4.8 -13.9 Q4.65 -13.3 4.65 -12.8 4.65 -12.15 4.85 -11.6 5.05 -11.1 5.55 -10.4 L5.6 -10.25 5.85 -9.95 5.9 -9.85 5.95 -9.85 6.0 -9.75 6.05 -9.7 Q6.35 -9.4 6.65 -9.1 7.6 -8.25 8.5 -8.1 L8.4 -8.1 7.85 -8.0 Q7.3 -8.3 6.55 -8.85 5.6 -9.65 5.2 -10.1 4.75 -10.65 4.5 -11.45 L4.35 -11.9" fill="#dc8c45" fill-rule="evenodd" stroke="none"/>
    <path d="M5.15 -1.1 L5.1 -2.05 Q5.05 -2.35 4.7 -2.8 L4.2 -3.45 3.8 -4.1 3.65 -4.4 3.7 -4.6 Q4.8 -3.4 6.0 -3.3 L6.15 -3.25 5.95 -2.05 Q5.85 -1.3 5.85 -0.5 5.85 0.0 5.85 0.35 L5.75 0.35 Q5.6 0.3 5.5 0.2 L5.75 0.3 5.25 -0.1 5.1 -0.2 5.05 -0.3 5.0 -0.3 4.75 -0.5 Q4.5 -0.75 4.15 -0.85 L4.2 -0.95 4.35 -1.35 Q4.4 -1.55 4.55 -1.7 L4.6 -1.7 Q4.95 -1.25 5.15 -1.0 5.25 -0.85 5.35 -0.8 L5.2 -1.0 5.3 -0.95 5.15 -1.1 M8.05 -3.2 L8.05 -3.25 8.0 -3.3 Q8.0 -3.4 8.15 -3.4 8.55 -3.6 9.2 -3.85 10.5 -4.4 10.75 -4.7 L11.25 -5.05 11.15 -4.3 Q10.95 -2.85 10.95 -2.5 10.95 -2.15 11.0 -1.85 10.85 -2.0 10.45 -1.9 10.05 -1.8 9.8 -1.7 L9.7 -1.65 9.75 -1.9 Q9.65 -2.4 9.6 -2.5 9.5 -2.65 8.55 -3.0 8.25 -3.1 8.05 -3.2 M9.65 -1.45 L9.75 -1.55 9.85 -1.6 Q10.2 -1.85 10.5 -1.85 L10.55 -1.85 Q10.8 -1.85 10.95 -1.75 L11.0 -1.7 11.15 -1.25 11.45 -0.5 11.4 -0.5 Q11.15 -0.5 10.8 -0.4 L10.6 -0.35 Q10.35 -0.25 10.05 -0.05 9.7 0.15 9.45 0.4 9.1 0.65 9.0 0.85 L9.0 0.75 8.95 0.7 Q8.95 0.65 9.2 0.0 L9.55 -1.0 9.65 -1.45" fill="#cd6c4b" fill-rule="evenodd" stroke="none"/>
    <path d="M1.2 0.2 L1.55 0.3 1.9 0.35 2.9 0.05 3.15 0.0 3.3 0.1 2.95 0.25 3.0 0.3 Q3.2 0.25 3.4 0.2 L3.55 0.35 3.4 0.45 3.45 0.5 3.6 0.45 3.8 0.75 1.9 0.75 Q1.45 0.75 1.2 0.65 1.0 0.55 1.0 0.45 1.0 0.35 1.2 0.2 M3.35 0.0 L3.25 -0.1 3.4 -0.3 Q3.65 -0.45 4.15 -0.7 L4.25 -0.7 Q4.55 -0.55 4.85 -0.3 L5.55 0.4 5.1 0.5 4.05 0.7 3.95 0.75 Q3.85 0.6 3.7 0.4 L3.85 0.25 Q3.75 0.25 3.65 0.3 L3.5 0.15 3.7 -0.1 3.4 0.05 3.35 0.0 M10.65 0.75 L10.6 0.7 Q10.6 0.65 10.7 0.4 L10.85 0.15 Q10.75 -0.05 10.75 -0.1 L10.8 -0.25 10.85 -0.25 11.1 -0.25 11.3 -0.2 11.5 -0.1 11.55 -0.1 11.7 0.1 11.7 0.15 11.75 0.15 12.0 0.45 Q11.6 0.3 10.95 0.6 10.8 0.7 10.65 0.75 M10.9 0.8 Q11.45 0.5 12.05 0.5 L12.1 0.5 12.25 0.75 13.0 1.6 13.0 1.65 12.95 1.65 Q12.8 1.7 11.6 1.7 L11.05 1.65 Q10.8 1.55 10.8 1.45 10.8 1.35 10.9 1.2 11.05 1.1 11.05 1.05 L10.95 0.9 10.9 0.8" fill="#7a675f" fill-rule="evenodd" stroke="none"/>
    <path d="M5.2 -14.85 L5.25 -14.95 Q5.4 -15.2 5.5 -15.6 L5.6 -16.25 5.6 -16.25 Q5.6 -16.05 5.6 -15.65 5.6 -15.3 5.6 -15.05 L5.65 -14.85 Q5.55 -15.0 5.35 -14.95 L5.25 -14.9 5.2 -14.85 M5.75 -16.6 L5.85 -16.9 6.0 -17.1 6.15 -17.25 6.2 -17.25 6.85 -17.05 Q7.3 -16.95 7.65 -16.7 L7.95 -16.5 Q8.15 -16.45 8.35 -16.25 L8.55 -16.1 8.7 -15.95 Q8.6 -15.5 8.5 -15.3 L8.45 -15.2 8.05 -14.8 7.9 -14.7 7.55 -14.5 7.55 -14.45 7.6 -14.45 Q7.75 -14.45 7.9 -14.5 8.2 -14.7 8.45 -15.1 8.75 -15.5 8.8 -15.8 L8.85 -15.7 9.0 -15.5 9.05 -15.45 Q9.3 -15.05 9.35 -14.7 L9.45 -14.3 9.1 -13.65 Q8.8 -13.1 8.45 -12.65 L8.45 -12.6 8.2 -12.35 Q7.85 -12.0 7.3 -11.55 L7.05 -11.4 6.45 -10.9 6.2 -10.8 5.9 -10.65 5.65 -10.5 5.55 -10.65 6.0 -11.1 Q6.9 -11.95 7.2 -12.4 7.55 -12.85 7.7 -13.5 L7.7 -13.65 Q7.35 -13.8 7.05 -13.9 L7.0 -13.9 7.05 -14.15 Q7.15 -14.55 7.15 -15.05 7.15 -15.45 7.0 -15.5 6.55 -15.6 6.1 -16.05 5.95 -16.45 5.75 -16.6 M5.35 -11.05 L5.3 -11.05 5.35 -11.0 5.35 -11.05" fill="#a03d3d" fill-rule="evenodd" stroke="none"/>
  </g>
</svg>
