<?xml version="1.0" encoding="UTF-8" standalone="no"?>
<svg xmlns:ffdec="https://www.free-decompiler.com/flash" xmlns:xlink="http://www.w3.org/1999/xlink" ffdec:objectType="shape" height="18.95px" width="6.8px" xmlns="http://www.w3.org/2000/svg">
  <g transform="matrix(1.0, 0.0, 0.0, 1.0, -1.95, 16.65)">
    <path d="M3.7 -16.65 L3.7 -16.65 M4.55 -13.7 L5.2 -13.3 6.2 -12.4 6.45 -12.1 Q7.35 -11.0 7.35 -10.6 L7.35 -10.45 7.5 -10.2 7.7 -9.8 Q8.05 -9.3 8.05 -9.2 L8.0 -9.15 8.05 -9.05 8.1 -9.1 Q8.25 -9.25 8.4 -9.25 L8.2 -9.0 8.15 -8.95 8.5 -9.0 Q8.75 -9.0 8.75 -8.9 8.75 -8.8 8.75 -8.85 L8.55 -8.8 8.25 -8.8 8.1 -8.75 8.15 -8.7 8.3 -8.25 8.25 -8.2 8.25 -8.05 8.2 -8.05 8.05 -7.8 7.75 -7.45 Q7.65 -7.25 7.3 -7.1 7.1 -7.05 6.75 -6.9 L5.55 -6.9 5.6 -6.55 5.65 -6.05 5.65 -6.0 5.75 -6.05 6.15 -6.2 6.3 -6.25 6.3 -6.15 6.4 -5.95 Q6.4 -5.9 6.1 -5.6 L5.9 -5.4 6.1 -4.85 Q6.65 -3.95 7.0 -2.5 L7.05 -2.4 7.1 -2.25 Q7.5 -0.7 7.5 1.0 L7.45 1.15 7.45 1.75 7.4 1.95 7.35 2.0 Q7.15 2.2 6.85 2.3 L6.25 2.2 6.1 2.15 Q5.75 2.05 5.4 2.0 L5.1 1.95 4.25 1.8 3.85 1.7 Q3.35 1.55 2.95 1.5 L2.2 1.4 2.15 1.45 Q2.1 1.5 2.05 1.35 L2.05 1.3 2.25 1.25 3.15 1.25 3.9 1.4 3.95 1.4 Q4.4 1.45 4.95 1.6 L5.65 1.8 Q6.4 1.95 6.75 1.95 6.85 1.95 7.0 1.8 L7.05 1.8 7.05 1.75 7.2 1.65 7.2 1.35 7.15 0.8 7.15 0.75 7.1 0.3 Q7.05 -0.3 6.9 -0.95 L6.9 -1.0 6.85 -1.25 6.85 -1.35 6.7 -1.85 6.55 -2.35 6.4 -2.9 6.4 -2.95 6.35 -3.05 6.0 -4.0 5.6 -5.1 Q5.5 -5.1 5.35 -5.0 L5.3 -4.95 5.2 -5.0 5.2 -4.95 4.85 -4.95 4.75 -5.0 4.6 -5.0 4.5 -5.0 3.95 -5.1 3.85 -5.2 Q3.35 -5.35 3.25 -5.5 L3.05 -5.65 Q2.8 -5.85 2.7 -5.95 L2.65 -6.15 2.6 -6.2 Q2.6 -6.35 2.7 -6.7 2.7 -7.05 2.95 -7.5 3.05 -7.9 3.3 -8.15 L3.45 -8.3 3.45 -9.35 3.4 -9.45 Q3.2 -9.6 3.05 -9.8 L3.05 -9.9 2.95 -10.0 Q2.6 -10.55 2.6 -10.85 L2.7 -11.45 2.75 -11.55 Q2.85 -12.0 2.9 -12.15 L2.95 -12.45 2.95 -12.5 3.05 -13.1 3.25 -13.6 3.6 -13.85 4.3 -13.85 4.4 -13.75 4.45 -13.7 4.55 -13.7 M5.25 -9.95 Q5.7 -10.0 6.0 -9.95 L6.05 -9.95 Q6.35 -9.9 6.95 -9.7 L7.05 -9.6 Q7.3 -9.5 7.6 -9.3 L7.7 -9.15 Q7.7 -9.3 7.65 -9.45 L7.6 -9.5 7.55 -9.6 7.3 -9.95 7.3 -10.0 Q7.3 -10.1 6.9 -10.35 6.8 -10.55 6.3 -10.85 L5.95 -11.0 5.6 -11.3 Q5.2 -11.55 4.95 -11.55 L4.9 -11.55 4.55 -11.75 Q3.9 -12.05 3.4 -12.15 L3.25 -12.2 3.15 -12.25 Q3.05 -12.2 3.0 -11.9 2.9 -11.65 2.9 -11.5 L2.9 -11.45 Q2.85 -11.2 2.85 -11.05 L2.85 -11.0 Q2.85 -10.75 2.95 -10.55 3.05 -10.25 3.3 -9.95 L3.45 -9.7 3.6 -9.6 Q4.05 -9.25 4.05 -9.15 L4.05 -9.1 4.1 -9.15 4.2 -9.4 4.85 -10.2 5.15 -10.6 5.35 -10.65 5.45 -10.65 Q5.3 -10.6 5.25 -10.45 L5.1 -10.45 4.85 -10.1 4.7 -9.8 5.2 -9.9 5.25 -9.95 M6.75 -7.2 Q7.15 -7.2 7.5 -7.55 L7.75 -7.8 7.85 -7.95 7.9 -8.05 7.95 -8.25 7.95 -8.5 7.85 -8.7 7.45 -9.1 7.4 -9.1 Q7.1 -9.35 6.5 -9.6 L6.4 -9.65 6.35 -9.65 6.15 -9.7 5.95 -9.7 Q5.15 -9.9 4.65 -9.55 4.55 -9.5 4.5 -9.45 4.3 -9.2 4.25 -9.0 4.15 -8.9 4.15 -8.8 L3.8 -8.35 3.7 -8.15 2.95 -6.85 2.9 -6.6 Q2.9 -6.3 3.1 -6.0 L3.1 -5.95 3.6 -5.55 3.65 -5.5 3.7 -5.5 3.9 -5.4 4.1 -5.35 4.3 -5.2 5.2 -5.2 5.25 -5.15 Q5.4 -5.2 5.55 -5.3 5.7 -5.35 5.85 -5.55 L6.1 -5.75 6.15 -5.85 6.15 -5.95 6.1 -6.0 6.1 -5.95 6.1 -6.0 5.75 -5.95 Q5.5 -5.9 5.45 -5.85 L5.45 -5.75 5.25 -5.7 4.85 -5.9 4.85 -6.0 5.0 -6.55 5.25 -7.2 5.2 -7.4 5.25 -7.75 Q5.25 -8.15 5.05 -8.25 4.9 -8.55 4.6 -8.8 5.05 -8.9 5.25 -8.15 L5.35 -7.95 5.35 -7.9 5.65 -7.9 5.4 -7.8 5.35 -7.8 5.4 -7.6 Q5.45 -7.4 5.45 -7.25 L5.45 -7.15 5.5 -7.15 6.1 -7.1 6.7 -7.15 6.75 -7.2 M7.15 -10.35 L6.5 -11.4 5.6 -12.6 5.15 -13.0 Q4.85 -13.25 4.55 -13.3 L4.25 -13.45 4.2 -13.45 4.1 -13.5 3.9 -13.55 Q3.7 -13.55 3.55 -13.5 3.35 -13.3 3.25 -13.0 L3.2 -12.75 3.2 -12.45 Q3.65 -12.35 4.1 -12.15 4.45 -12.0 4.7 -11.85 L5.1 -11.7 5.85 -11.2 5.75 -11.25 5.7 -11.3 6.25 -10.95 Q6.9 -10.5 7.15 -10.3 L7.15 -10.35 M6.05 -7.95 L6.8 -8.05 6.75 -8.2 6.8 -8.3 6.9 -8.15 6.95 -8.1 7.1 -8.15 7.1 -8.3 7.2 -8.3 7.2 -8.2 7.35 -8.3 Q7.4 -8.35 7.45 -8.55 7.45 -8.7 7.65 -8.75 L7.7 -8.7 7.7 -8.6 7.6 -8.55 7.25 -8.0 7.25 -7.9 7.25 -7.85 Q7.25 -7.8 7.2 -7.8 L7.15 -7.8 7.15 -7.85 7.2 -7.9 7.2 -7.95 Q7.2 -8.05 7.1 -8.05 L6.95 -8.0 6.9 -7.95 Q6.95 -7.85 7.0 -7.85 L6.9 -7.85 6.85 -7.95 6.85 -7.9 6.85 -7.95 6.05 -7.95 M5.05 -13.1 Q5.0 -13.2 4.85 -13.35 4.65 -13.55 4.35 -13.5 L4.4 -13.4 Q4.65 -13.35 5.05 -13.1 L5.05 -13.1 M4.5 -9.55 L4.5 -9.55 M3.9 -8.95 L3.75 -9.1 3.75 -9.15 3.7 -9.15 3.65 -8.75 3.65 -8.55 3.9 -8.9 3.9 -8.95 M5.3 -6.25 L5.25 -6.35 5.25 -6.45 Q5.2 -6.15 5.05 -5.95 L5.1 -5.95 5.15 -5.9 5.2 -5.9 5.3 -5.95 5.35 -5.95 5.35 -6.0 5.3 -6.0 5.3 -6.25 M6.55 2.25 L6.55 2.25 M6.95 2.2 L6.95 2.2" fill="#111111" fill-rule="evenodd" stroke="none"/>
    <path d="M4.4 -13.75 L4.5 -13.75 4.55 -13.7 4.45 -13.7 4.4 -13.75" fill="#ceced0" fill-rule="evenodd" stroke="none"/>
    <path d="M3.7 -8.15 L3.8 -8.35 4.15 -8.8 Q4.15 -8.9 4.25 -9.0 4.3 -9.2 4.5 -9.45 4.55 -9.5 4.65 -9.55 5.15 -9.9 5.95 -9.7 L6.15 -9.7 6.35 -9.65 6.4 -9.65 6.5 -9.6 Q7.1 -9.35 7.4 -9.1 L7.45 -9.1 7.85 -8.7 7.95 -8.5 7.95 -8.25 7.9 -8.05 7.85 -7.95 7.75 -7.8 7.5 -7.55 Q7.15 -7.2 6.75 -7.2 6.55 -7.2 6.45 -7.35 6.35 -7.4 6.35 -7.55 6.35 -7.6 6.55 -7.7 L6.75 -7.75 Q6.85 -7.8 6.85 -7.9 L6.85 -7.95 6.9 -7.85 7.0 -7.85 7.15 -7.85 7.15 -7.8 7.2 -7.8 Q7.25 -7.8 7.25 -7.85 L7.25 -7.9 7.35 -7.9 Q7.7 -7.9 7.85 -8.55 7.85 -8.75 7.7 -8.6 L7.7 -8.7 7.65 -8.75 Q7.45 -8.7 7.45 -8.55 7.4 -8.35 7.35 -8.3 L7.2 -8.2 7.2 -8.3 7.1 -8.3 7.1 -8.15 6.95 -8.1 6.9 -8.15 6.8 -8.3 6.75 -8.2 6.8 -8.05 6.05 -7.95 6.0 -7.95 5.65 -7.9 5.35 -7.9 5.35 -7.95 5.25 -8.15 Q5.05 -8.9 4.6 -8.8 4.9 -8.55 5.05 -8.25 5.25 -8.15 5.25 -7.75 L5.2 -7.4 5.25 -7.2 5.0 -6.55 4.85 -6.0 4.85 -5.9 5.25 -5.7 5.45 -5.75 5.6 -5.7 Q5.8 -5.7 5.95 -5.8 L6.1 -5.95 6.1 -6.0 6.15 -5.95 6.15 -5.85 6.1 -5.75 5.85 -5.55 Q5.7 -5.35 5.55 -5.3 5.4 -5.2 5.25 -5.15 L5.2 -5.2 4.3 -5.2 4.1 -5.35 3.9 -5.4 3.7 -5.5 3.75 -5.65 3.8 -5.85 3.65 -6.35 Q3.5 -6.85 3.5 -6.95 3.5 -7.2 3.7 -8.05 L3.7 -8.15 M5.5 -7.15 L5.45 -7.15 5.5 -7.15 M5.35 -7.8 L5.4 -7.8 5.35 -7.8" fill="#8a6311" fill-rule="evenodd" stroke="none"/>
    <path d="M5.35 -10.65 L5.45 -10.65 5.35 -10.65 M5.25 -10.45 L5.15 -10.3 Q5.0 -10.2 5.0 -10.1 5.0 -10.05 5.1 -10.0 5.15 -9.95 5.2 -9.95 L5.25 -9.95 5.2 -9.9 4.7 -9.8 4.85 -10.1 5.1 -10.45 5.25 -10.45 M4.5 -9.55 L4.5 -9.55" fill="#333333" fill-rule="evenodd" stroke="none"/>
    <path d="M6.75 -7.2 L6.7 -7.15 6.1 -7.1 5.5 -7.15 5.45 -7.15 5.45 -7.25 Q5.45 -7.4 5.4 -7.6 L5.35 -7.8 5.4 -7.8 5.65 -7.9 6.0 -7.95 6.05 -7.95 6.85 -7.95 6.85 -7.9 Q6.85 -7.8 6.75 -7.75 L6.55 -7.7 Q6.35 -7.6 6.35 -7.55 6.35 -7.4 6.45 -7.35 6.55 -7.2 6.75 -7.2 M5.45 -5.75 L5.45 -5.85 Q5.5 -5.9 5.75 -5.95 L6.1 -6.0 6.1 -5.95 5.95 -5.8 Q5.8 -5.7 5.6 -5.7 L5.45 -5.75 M3.7 -5.5 L3.65 -5.5 3.6 -5.55 3.1 -5.95 3.1 -6.0 Q2.9 -6.3 2.9 -6.6 L2.95 -6.85 3.7 -8.15 3.7 -8.05 Q3.5 -7.2 3.5 -6.95 3.5 -6.85 3.65 -6.35 L3.8 -5.85 3.75 -5.65 3.7 -5.5 M7.0 -7.85 Q6.95 -7.85 6.9 -7.95 L6.95 -8.0 7.1 -8.05 Q7.2 -8.05 7.2 -7.95 L7.2 -7.9 7.15 -7.85 7.0 -7.85 M7.25 -7.9 L7.25 -8.0 7.6 -8.55 7.7 -8.6 Q7.85 -8.75 7.85 -8.55 7.7 -7.9 7.35 -7.9 L7.25 -7.9" fill="#583d0a" fill-rule="evenodd" stroke="none"/>
    <path d="M2.05 1.3 L1.95 0.95 2.0 0.95 Q2.0 0.9 2.3 -0.15 2.65 -1.25 2.7 -1.6 L2.85 -2.25 3.05 -2.9 Q3.1 -3.1 3.05 -3.55 L3.05 -3.85 Q3.05 -4.3 3.15 -4.9 3.2 -5.3 3.25 -5.5 3.35 -5.35 3.85 -5.2 L3.95 -5.1 4.5 -5.0 4.6 -5.0 Q4.5 -4.85 4.5 -4.55 L4.8 -4.2 3.95 -2.9 3.95 -2.7 Q4.1 -2.5 4.6 -2.5 L5.1 -2.55 Q5.3 -2.65 5.3 -2.85 5.3 -2.95 5.2 -3.0 5.1 -3.05 5.1 -3.15 L5.15 -3.25 Q5.25 -3.2 5.45 -3.2 L5.55 -3.2 5.55 -2.7 Q5.6 -2.2 6.3 -2.2 6.45 -2.2 6.55 -2.35 L6.7 -1.85 6.75 -1.75 6.65 -2.15 6.5 -2.1 Q6.45 -2.05 6.45 -1.95 L6.2 -1.95 6.2 -1.8 6.05 -1.75 5.95 -1.65 Q5.6 -2.1 5.25 -1.65 5.15 -1.45 5.05 -1.3 L5.05 -1.4 Q5.05 -1.8 4.7 -1.8 4.3 -1.75 4.3 -1.35 4.3 -1.25 4.3 -1.15 4.4 -1.05 4.6 -1.0 L4.6 -0.95 4.35 -0.9 4.3 -1.0 Q4.25 -1.25 4.0 -1.25 3.85 -1.25 3.6 -0.95 3.4 -0.65 3.4 -0.55 L3.4 -0.35 3.45 -0.35 3.65 -0.3 Q3.85 -0.3 3.95 -0.1 4.1 0.1 4.3 0.1 L4.7 -0.15 4.85 -0.15 Q4.8 0.25 5.15 0.4 5.45 0.55 5.45 0.85 5.45 1.2 5.55 1.55 L5.65 1.8 4.95 1.6 Q4.4 1.45 3.95 1.4 L3.9 1.4 3.15 1.25 2.25 1.25 2.05 1.3 M3.9 -8.95 L3.9 -8.9 3.65 -8.55 3.65 -8.75 3.7 -9.15 3.75 -9.15 3.75 -9.1 3.9 -8.95 M5.3 -6.25 L5.3 -6.0 5.35 -6.0 5.35 -5.95 5.3 -5.95 5.2 -5.9 5.15 -5.9 5.1 -5.95 5.05 -5.95 Q5.2 -6.15 5.25 -6.45 L5.25 -6.35 5.3 -6.25 M5.2 -4.95 L5.2 -5.0 5.3 -4.95 5.35 -5.0 Q5.5 -5.1 5.6 -5.1 L6.0 -4.0 5.95 -4.1 5.7 -4.45 Q5.65 -4.9 5.4 -4.8 L5.2 -4.95 M7.1 0.3 L7.15 0.75 7.1 0.55 7.15 0.4 7.1 0.3 M7.2 1.35 L7.2 1.65 7.05 1.75 7.1 1.6 7.2 1.35" fill="#5f2b07" fill-rule="evenodd" stroke="none"/>
    <path d="M7.15 -10.35 L7.15 -10.3 Q6.9 -10.5 6.25 -10.95 L5.7 -11.3 5.75 -11.25 5.85 -11.2 5.1 -11.7 4.7 -11.85 Q4.45 -12.0 4.1 -12.15 3.65 -12.35 3.2 -12.45 L3.2 -12.75 3.25 -13.0 Q3.35 -13.3 3.55 -13.5 3.7 -13.55 3.9 -13.55 L4.1 -13.5 4.2 -13.45 4.25 -13.45 4.55 -13.3 Q4.85 -13.25 5.15 -13.0 L5.6 -12.6 6.5 -11.4 7.15 -10.35 M5.05 -13.1 L5.05 -13.1 Q4.65 -13.35 4.4 -13.4 L4.35 -13.5 Q4.65 -13.55 4.85 -13.35 5.0 -13.2 5.05 -13.1" fill="#a4490d" fill-rule="evenodd" stroke="none"/>
    <path d="M4.9 -11.55 L4.95 -11.55 Q5.2 -11.55 5.6 -11.3 L5.95 -11.0 6.3 -10.85 Q6.8 -10.55 6.9 -10.35 7.3 -10.1 7.3 -10.0 L7.3 -9.95 7.55 -9.6 7.6 -9.5 7.65 -9.45 Q7.7 -9.3 7.7 -9.15 L7.6 -9.3 Q7.3 -9.5 7.05 -9.6 L6.95 -9.7 Q6.35 -9.9 6.05 -9.95 L6.0 -9.95 Q5.7 -10.0 5.25 -9.95 L5.2 -9.95 Q5.15 -9.95 5.1 -10.0 5.0 -10.05 5.0 -10.1 5.0 -10.2 5.15 -10.3 L5.25 -10.45 Q5.3 -10.6 5.45 -10.65 L5.35 -10.65 5.15 -10.6 5.1 -10.6 5.05 -10.65 5.05 -10.7 4.95 -10.8 4.85 -11.0 Q4.7 -11.25 4.7 -11.35 4.7 -11.6 4.9 -11.55" fill="#8d873f" fill-rule="evenodd" stroke="none"/>
    <path d="M4.9 -11.55 Q4.7 -11.6 4.7 -11.35 4.7 -11.25 4.85 -11.0 L4.95 -10.8 5.05 -10.7 5.05 -10.65 5.1 -10.6 5.15 -10.6 4.85 -10.2 4.2 -9.4 4.1 -9.15 4.05 -9.1 4.05 -9.15 Q4.05 -9.25 3.6 -9.6 L3.45 -9.7 3.3 -9.95 Q3.05 -10.25 2.95 -10.55 2.85 -10.75 2.85 -11.0 L2.85 -11.05 Q2.85 -11.2 2.9 -11.45 L2.9 -11.5 Q2.9 -11.65 3.0 -11.9 3.05 -12.2 3.15 -12.25 L3.25 -12.2 3.4 -12.15 Q3.9 -12.05 4.55 -11.75 L4.9 -11.55" fill="#4e4a23" fill-rule="evenodd" stroke="none"/>
    <path d="M4.6 -5.0 L4.75 -5.0 4.85 -4.95 5.2 -4.95 5.4 -4.8 Q5.65 -4.9 5.7 -4.45 L5.95 -4.1 6.0 -4.0 6.35 -3.05 6.4 -2.95 6.4 -2.9 6.55 -2.35 Q6.45 -2.2 6.3 -2.2 5.6 -2.2 5.55 -2.7 L5.55 -3.2 5.45 -3.2 Q5.25 -3.2 5.15 -3.25 L5.1 -3.15 Q5.1 -3.05 5.2 -3.0 5.3 -2.95 5.3 -2.85 5.3 -2.65 5.1 -2.55 L4.6 -2.5 Q4.1 -2.5 3.95 -2.7 L3.95 -2.9 4.8 -4.2 4.5 -4.55 Q4.5 -4.85 4.6 -5.0 M6.7 -1.85 L6.85 -1.35 6.85 -1.25 6.9 -1.0 6.9 -0.95 Q7.05 -0.3 7.1 0.3 L7.15 0.4 7.1 0.55 7.15 0.75 7.15 0.8 7.2 1.35 7.1 1.6 7.05 1.75 7.05 1.8 7.0 1.8 Q6.85 1.95 6.75 1.95 6.4 1.95 5.65 1.8 L5.55 1.55 Q5.45 1.2 5.45 0.85 5.45 0.55 5.15 0.4 4.8 0.25 4.85 -0.15 L4.7 -0.15 4.3 0.1 Q4.1 0.1 3.95 -0.1 3.85 -0.3 3.65 -0.3 L3.45 -0.35 3.4 -0.35 3.4 -0.55 Q3.4 -0.65 3.6 -0.95 3.85 -1.25 4.0 -1.25 4.25 -1.25 4.3 -1.0 L4.35 -0.9 4.6 -0.95 4.6 -1.0 Q4.4 -1.05 4.3 -1.15 4.3 -1.25 4.3 -1.35 4.3 -1.75 4.7 -1.8 5.05 -1.8 5.05 -1.4 L5.05 -1.3 Q5.15 -1.45 5.25 -1.65 5.6 -2.1 5.95 -1.65 L6.05 -1.75 6.2 -1.8 6.2 -1.95 6.45 -1.95 Q6.45 -2.05 6.5 -2.1 L6.65 -2.15 6.75 -1.75 6.7 -1.85" fill="#81390a" fill-rule="evenodd" stroke="none"/>
  </g>
</svg>
