<?xml version="1.0" encoding="UTF-8" standalone="no"?>
<svg xmlns:ffdec="https://www.free-decompiler.com/flash" xmlns:xlink="http://www.w3.org/1999/xlink" ffdec:objectType="shape" height="14.65px" width="11.5px" xmlns="http://www.w3.org/2000/svg">
  <g transform="matrix(1.0, 0.0, 0.0, 1.0, 5.25, 12.1)">
    <path d="M1.25 -10.0 L1.8 -9.3 Q2.35 -8.6 2.75 -8.3 3.65 -7.65 4.65 -6.35 5.95 -4.65 5.85 -3.55 L6.1 -2.7 Q6.3 -1.75 6.25 -1.0 6.25 -0.75 5.75 0.9 5.2 2.6 5.05 2.55 L3.65 2.3 2.4 2.05 Q0.8 1.95 -0.25 1.1 -0.65 0.8 -1.95 -0.85 -2.7 -1.8 -3.25 -2.65 -3.85 -3.65 -4.1 -4.3 -4.9 -5.6 -4.9 -6.05 L-4.9 -6.1 -4.95 -6.3 Q-4.9 -6.4 -5.0 -6.6 -5.05 -6.8 -5.05 -6.9 -5.05 -7.05 -5.1 -7.65 L-5.15 -8.4 -5.15 -8.6 Q-5.25 -9.1 -5.25 -9.45 -5.15 -10.3 -4.55 -11.1 -3.65 -12.2 -2.25 -12.1 -0.7 -12.0 0.55 -10.8 0.85 -10.6 1.25 -10.0 M1.0 -9.4 L0.3 -10.3 0.25 -10.35 Q-1.25 -11.5 -2.35 -11.55 L-2.85 -11.5 -3.4 -11.45 Q-3.5 -11.45 -4.05 -10.85 -4.55 -10.2 -4.6 -10.05 L-4.5 -9.15 -4.45 -8.3 Q-4.15 -7.6 -4.15 -7.25 -4.15 -7.1 -4.1 -6.95 L-3.9 -6.5 Q-3.6 -6.05 -2.95 -5.65 L-2.75 -5.5 Q-1.7 -4.85 -0.85 -4.8 -0.4 -4.75 0.65 -5.35 1.75 -6.0 1.9 -6.7 L1.9 -6.75 1.85 -7.25 Q1.8 -7.65 1.8 -7.75 1.85 -8.25 1.0 -9.4 M3.1 0.25 L3.2 0.25 3.75 0.1 3.8 0.05 Q4.15 -0.2 4.5 -0.6 5.05 -1.4 5.1 -1.95 5.1 -2.3 4.9 -3.05 L4.7 -3.85 Q4.75 -4.3 3.55 -6.3 L2.45 -8.2 1.9 -8.8 Q2.65 -7.25 2.6 -6.8 2.6 -6.7 2.2 -6.25 L1.45 -5.45 Q0.25 -4.2 -0.1 -4.2 L-0.4 -4.3 -0.75 -4.4 Q-1.5 -4.45 -2.55 -5.0 L-2.9 -5.25 -3.35 -5.5 Q-2.95 -4.75 -2.55 -4.1 L-2.45 -4.0 -2.45 -3.95 Q-1.8 -2.95 -1.1 -2.2 L-1.1 -2.15 Q-0.6 -1.6 -0.1 -1.2 L-0.05 -1.15 Q1.45 0.15 3.0 0.25 L3.1 0.25 M-1.7 -1.15 Q-0.7 0.2 0.1 0.75 1.6 1.8 4.1 1.95 4.7 2.0 4.95 1.65 5.1 1.4 5.15 0.8 L5.35 0.15 Q5.55 -0.4 5.6 -0.55 L5.6 -0.75 5.65 -0.9 5.7 -1.4 Q5.75 -2.15 5.45 -3.15 5.25 -3.8 4.8 -4.7 4.4 -5.55 3.8 -6.4 L4.35 -5.35 4.55 -4.9 Q4.95 -3.95 5.15 -3.35 5.5 -2.35 5.4 -1.55 L5.4 -1.35 5.1 -0.75 4.75 -0.5 4.0 0.1 Q3.55 0.45 3.1 0.65 L2.95 0.65 2.55 0.55 2.1 0.45 Q1.65 0.2 1.15 -0.15 L1.1 -0.15 1.0 -0.25 0.95 -0.25 0.95 -0.3 0.9 -0.3 0.85 -0.35 Q-0.05 -1.0 -1.0 -1.9 L-1.05 -1.95 -1.4 -2.3 Q-2.1 -3.0 -2.7 -3.7 -3.1 -4.25 -3.45 -4.75 L-3.5 -4.8 Q-3.65 -5.3 -3.9 -5.9 -4.45 -7.25 -4.65 -7.7 L-4.7 -7.55 Q-4.7 -7.5 -4.5 -7.0 L-4.4 -6.75 -4.45 -6.7 Q-4.35 -6.6 -4.3 -6.35 -4.35 -5.9 -4.0 -5.1 -3.75 -4.45 -3.45 -4.25 L-3.4 -4.1 -2.8 -2.95 Q-2.3 -1.95 -2.0 -1.55 L-1.7 -1.15" fill="#111111" fill-rule="evenodd" stroke="none"/>
    <path d="M-1.05 -1.95 L-1.0 -1.9 Q-0.05 -1.0 0.85 -0.35 L0.9 -0.3 0.95 -0.3 0.95 -0.25 1.0 -0.25 1.1 -0.15 1.15 -0.15 Q1.65 0.2 2.1 0.45 L2.55 0.55 2.95 0.65 3.1 0.65 Q3.55 0.45 4.0 0.1 L4.75 -0.5 5.1 -0.75 5.4 -1.35 5.4 -1.55 Q5.5 -2.35 5.15 -3.35 4.95 -3.95 4.55 -4.9 L4.35 -5.35 3.8 -6.4 Q4.4 -5.55 4.8 -4.7 5.25 -3.8 5.45 -3.15 5.75 -2.15 5.7 -1.4 L5.65 -0.9 5.6 -0.75 5.6 -0.55 Q5.55 -0.4 5.35 0.15 L5.15 0.8 Q5.1 1.4 4.95 1.65 4.7 2.0 4.1 1.95 1.6 1.8 0.1 0.75 -0.7 0.2 -1.7 -1.15 -1.45 -1.5 -1.05 -1.95" fill="#b74a26" fill-rule="evenodd" stroke="none"/>
    <path d="M-1.05 -1.95 Q-1.45 -1.5 -1.7 -1.15 L-2.0 -1.55 Q-2.3 -1.95 -2.8 -2.95 -2.9 -3.3 -2.9 -3.55 -2.85 -3.8 -2.85 -3.7 L-2.7 -3.7 Q-2.1 -3.0 -1.4 -2.3 L-1.05 -1.95" fill="#be8332" fill-rule="evenodd" stroke="none"/>
    <path d="M-2.8 -2.95 L-3.4 -4.1 -3.45 -4.25 Q-3.75 -4.45 -4.0 -5.1 -4.35 -5.9 -4.3 -6.35 -4.35 -6.6 -4.45 -6.7 L-4.4 -6.75 -4.5 -7.0 Q-4.7 -7.5 -4.7 -7.55 L-4.65 -7.7 Q-4.45 -7.25 -3.9 -5.9 -3.65 -5.3 -3.5 -4.8 L-3.45 -4.75 Q-3.1 -4.25 -2.7 -3.7 L-2.85 -3.7 Q-2.85 -3.8 -2.9 -3.55 -2.9 -3.3 -2.8 -2.95" fill="#e1ac3e" fill-rule="evenodd" stroke="none"/>
    <path d="M2.2 -6.25 Q3.05 -5.0 3.65 -3.75 4.3 -2.3 4.25 -1.6 4.25 -1.05 3.6 -0.35 L3.1 0.25 3.0 0.25 Q1.45 0.15 -0.05 -1.15 L-0.15 -1.25 Q-1.25 -2.5 -2.0 -3.9 L-2.55 -5.0 Q-1.5 -4.45 -0.75 -4.4 L-0.4 -4.3 -0.1 -4.2 Q0.25 -4.2 1.45 -5.45 L2.2 -6.25" fill="#254145" fill-rule="evenodd" stroke="none"/>
    <path d="M2.2 -6.25 Q2.6 -6.7 2.6 -6.8 2.65 -7.25 1.9 -8.8 L2.45 -8.2 3.55 -6.3 Q4.75 -4.3 4.7 -3.85 L4.9 -3.05 Q5.1 -2.3 5.1 -1.95 5.05 -1.4 4.5 -0.6 4.15 -0.2 3.8 0.05 L3.75 0.1 3.2 0.25 3.1 0.25 3.6 -0.35 Q4.25 -1.05 4.25 -1.6 4.3 -2.3 3.65 -3.75 3.05 -5.0 2.2 -6.25 M-0.05 -1.15 L-0.1 -1.2 Q-0.6 -1.6 -1.1 -2.15 L-1.1 -2.2 Q-1.8 -2.95 -2.45 -3.95 L-2.45 -4.0 -2.55 -4.1 Q-2.95 -4.75 -3.35 -5.5 L-2.9 -5.25 -2.55 -5.0 -2.0 -3.9 Q-1.25 -2.5 -0.15 -1.25 L-0.05 -1.15" fill="#6b2c16" fill-rule="evenodd" stroke="none"/>
    <path d="M1.0 -9.4 Q1.85 -8.25 1.8 -7.75 1.8 -7.65 1.85 -7.25 L1.9 -6.75 1.9 -6.7 Q1.75 -6.0 0.65 -5.35 -0.4 -4.75 -0.85 -4.8 -1.7 -4.85 -2.75 -5.5 L-2.95 -5.65 Q-3.6 -6.05 -3.9 -6.5 L-4.1 -6.95 Q-4.15 -7.1 -4.15 -7.25 -4.15 -7.6 -4.45 -8.3 L-4.5 -9.15 -4.6 -10.05 Q-4.55 -10.2 -4.05 -10.85 -3.5 -11.45 -3.4 -11.45 L-2.85 -11.5 -2.35 -11.55 Q-1.25 -11.5 0.25 -10.35 L0.3 -10.3 1.0 -9.4" fill="#394044" fill-rule="evenodd" stroke="none"/>
  </g>
</svg>
