<?xml version="1.0" encoding="UTF-8" standalone="no"?>
<svg xmlns:ffdec="https://www.free-decompiler.com/flash" xmlns:xlink="http://www.w3.org/1999/xlink" ffdec:objectType="shape" height="12.25px" width="16.45px" xmlns="http://www.w3.org/2000/svg">
  <g transform="matrix(1.0, 0.0, 0.0, 1.0, 3.7, 11.6)">
    <path d="M5.3 -4.7 L5.75 -5.15 Q6.3 -5.85 6.7 -6.6 L7.0 -7.25 7.05 -7.25 Q6.95 -6.85 6.8 -6.4 6.2 -4.8 4.15 -3.3 3.2 -2.55 2.25 -2.2 L2.05 -2.1 2.15 -2.1 Q1.75 -2.05 1.85 -1.9 L1.8 -1.85 Q1.8 -1.4 2.5 -1.4 L2.6 -1.45 2.85 -1.4 Q3.45 -1.4 4.5 -1.85 L4.7 -1.85 Q5.05 -1.85 6.05 -2.3 7.1 -2.75 8.15 -3.4 8.9 -3.85 9.45 -4.25 L9.5 -4.3 10.75 -5.7 Q10.85 -6.0 10.9 -6.25 L10.95 -6.5 10.7 -7.0 Q10.55 -7.3 10.45 -7.5 L10.3 -7.6 10.25 -7.65 10.15 -7.65 10.15 -7.7 Q8.85 -8.3 8.35 -8.55 L8.1 -8.65 Q6.6 -9.5 5.85 -9.85 4.5 -10.45 3.8 -10.45 L2.6 -10.6 1.95 -10.25 Q0.95 -9.7 0.3 -9.25 L-0.35 -8.65 -0.5 -8.55 -1.25 -7.8 -1.35 -7.65 -1.45 -7.6 -1.6 -7.4 -1.65 -7.35 -1.85 -7.1 -1.9 -7.05 -2.0 -6.95 Q-1.9 -6.65 -1.9 -6.35 L-1.9 -6.25 -1.55 -5.45 -1.05 -4.1 -0.95 -3.9 Q-0.4 -3.35 0.3 -2.75 L0.6 -2.5 0.95 -2.4 1.2 -2.3 1.3 -2.35 1.4 -2.25 1.5 -2.25 1.6 -2.3 2.7 -2.7 Q3.15 -2.9 3.7 -3.3 L4.3 -3.7 5.3 -4.7 M10.5 -8.0 Q10.6 -8.0 10.9 -7.85 L11.7 -7.45 Q12.65 -6.95 12.65 -6.85 12.75 -6.75 12.75 -6.65 12.75 -6.05 12.2 -5.25 11.4 -3.75 9.2 -2.05 7.9 -1.1 6.5 -0.4 5.8 -0.05 5.3 0.15 L5.25 0.15 Q4.6 0.4 3.45 0.5 L3.25 0.5 2.4 0.65 Q2.2 0.65 1.65 0.5 L1.6 0.5 Q0.9 0.45 0.6 0.35 0.25 0.15 -0.05 -0.15 -1.75 -1.1 -1.95 -2.6 -2.3 -3.3 -2.3 -4.1 L-2.25 -4.2 -2.3 -4.4 -2.2 -4.7 -2.05 -4.95 -2.1 -5.2 -2.3 -5.9 Q-2.3 -5.95 -2.3 -6.0 -2.3 -6.1 -2.45 -6.1 -2.8 -6.1 -3.25 -6.9 -3.7 -7.6 -3.7 -7.9 -3.7 -9.2 -1.9 -10.55 -1.25 -11.05 -0.55 -11.35 L-0.1 -11.6 Q1.65 -11.15 2.55 -11.15 L3.25 -11.1 3.3 -11.05 Q5.4 -10.55 7.95 -9.25 L10.35 -7.95 10.5 -8.0 M-0.7 -8.7 L-0.65 -8.75 Q-0.15 -9.25 0.35 -9.6 0.75 -10.05 1.25 -10.45 L1.55 -10.7 -0.3 -10.8 -0.35 -10.8 Q-0.85 -10.65 -1.2 -10.45 L-1.3 -10.4 -1.35 -10.35 -2.45 -9.6 Q-2.75 -9.3 -2.95 -8.95 -3.25 -8.45 -3.25 -7.85 L-3.25 -7.8 Q-3.25 -7.4 -2.8 -7.05 -2.65 -6.95 -2.45 -6.8 L-2.4 -6.8 -1.8 -7.6 -1.7 -7.8 -1.7 -7.7 -1.25 -8.2 -0.7 -8.7 M3.2 -4.75 Q3.3 -4.55 3.35 -4.3 2.4 -5.8 1.1 -6.15 -0.2 -6.3 -0.7 -6.6 L-1.1 -6.7 -1.05 -6.7 -1.25 -6.8 Q-1.6 -6.95 -1.65 -7.1 L-1.6 -7.15 -1.4 -7.2 -1.35 -7.2 -0.5 -7.0 -0.4 -6.95 -0.25 -6.95 0.8 -6.6 0.85 -6.55 1.6 -6.2 1.95 -6.0 Q2.9 -5.4 3.2 -4.75 M2.7 0.2 L2.85 0.2 3.25 0.15 Q5.0 0.15 7.05 -1.05 L7.05 -1.1 7.1 -1.1 Q8.0 -1.7 9.05 -2.5 L9.5 -2.9 Q10.5 -3.8 11.2 -4.65 12.05 -5.75 12.05 -6.35 L12.05 -6.45 Q12.05 -6.65 11.8 -6.85 L11.7 -6.95 Q11.6 -7.1 11.4 -7.1 11.35 -7.1 11.25 -7.05 11.15 -6.95 11.15 -6.85 11.15 -6.3 10.65 -5.4 L10.45 -5.1 9.8 -4.45 Q8.25 -3.05 7.3 -2.6 6.75 -2.35 4.9 -1.7 3.65 -1.3 3.0 -1.15 2.4 -1.15 1.95 -1.35 1.35 -1.6 0.1 -2.45 L-0.3 -2.75 -0.4 -2.9 -0.75 -3.35 Q-1.45 -4.0 -1.7 -4.3 L-1.75 -4.15 -1.75 -4.05 Q-1.65 -3.75 -1.65 -3.65 -1.65 -3.2 -1.55 -2.8 -1.4 -2.25 -1.05 -1.75 L-1.0 -1.6 -1.0 -1.65 -0.45 -1.05 Q-0.1 -0.75 0.3 -0.5 1.3 0.05 2.4 0.25 L2.7 0.2" fill="#111111" fill-rule="evenodd" stroke="none"/>
    <path d="M-2.45 -9.6 L-1.35 -10.35 -1.3 -10.4 -1.2 -10.45 Q-0.85 -10.65 -0.35 -10.8 L-0.3 -10.8 1.55 -10.7 1.25 -10.45 Q0.75 -10.05 0.35 -9.6 -0.15 -9.25 -0.65 -8.75 L-0.7 -8.7 -1.75 -9.3 -2.55 -9.5 -2.45 -9.6 M7.05 -1.05 L6.7 -1.8 Q5.8 -1.55 4.25 -1.1 2.6 -0.65 2.45 -0.65 2.3 -0.65 1.8 -1.0 1.15 -1.45 -0.15 -2.6 L-0.25 -2.7 -0.3 -2.7 -0.35 -2.8 -1.3 -3.65 -1.75 -4.15 -1.7 -4.3 Q-1.45 -4.0 -0.75 -3.35 L-0.4 -2.9 -0.3 -2.75 0.1 -2.45 Q1.35 -1.6 1.95 -1.35 2.4 -1.15 3.0 -1.15 3.65 -1.3 4.9 -1.7 6.75 -2.35 7.3 -2.6 8.25 -3.05 9.8 -4.45 L10.45 -5.1 10.65 -5.4 Q11.15 -6.3 11.15 -6.85 11.15 -6.95 11.25 -7.05 11.35 -7.1 11.4 -7.1 11.6 -7.1 11.7 -6.95 L11.8 -6.85 Q12.05 -6.65 12.05 -6.45 L12.05 -6.35 Q12.05 -5.75 11.2 -4.65 10.5 -3.8 9.5 -2.9 L9.05 -2.5 Q8.0 -1.7 7.1 -1.1 L7.05 -1.1 7.05 -1.05" fill="#b74a26" fill-rule="evenodd" stroke="none"/>
    <path d="M-2.45 -9.6 L-2.55 -9.5 -1.75 -9.3 -0.7 -8.7 -1.25 -8.2 -1.3 -8.2 Q-1.4 -8.2 -1.9 -7.8 -2.5 -7.8 -2.7 -8.1 -2.85 -8.35 -2.95 -8.8 L-2.95 -8.95 Q-2.75 -9.3 -2.45 -9.6 M-2.45 -6.8 Q-2.65 -6.95 -2.8 -7.05 -3.25 -7.4 -3.25 -7.8 L-3.1 -8.05 Q-2.95 -7.95 -2.7 -7.75 -2.4 -7.45 -2.4 -7.25 L-2.45 -6.95 -2.45 -6.8 M2.7 0.2 L2.8 0.2 2.75 0.15 2.1 0.1 Q1.9 0.05 1.5 -0.4 1.25 -0.75 0.95 -1.15 L1.1 -1.15 Q1.4 -1.0 1.8 -1.0 2.3 -0.65 2.45 -0.65 2.6 -0.65 4.25 -1.1 5.8 -1.55 6.7 -1.8 L7.05 -1.05 Q5.0 0.15 3.25 0.15 L2.85 0.2 2.7 0.2 M-1.3 -3.65 Q-1.25 -3.4 -0.85 -2.7 -0.4 -1.8 -0.35 -1.35 L-0.4 -1.35 -0.75 -1.6 -1.0 -1.75 -1.05 -1.75 Q-1.4 -2.25 -1.55 -2.8 -1.65 -3.2 -1.65 -3.65 -1.65 -3.75 -1.75 -4.05 L-1.75 -4.15 -1.3 -3.65" fill="#be8332" fill-rule="evenodd" stroke="none"/>
    <path d="M-1.25 -8.2 L-1.7 -7.7 -1.7 -7.8 -1.8 -7.6 -2.4 -6.8 -2.45 -6.8 -2.45 -6.95 -2.4 -7.25 Q-2.4 -7.45 -2.7 -7.75 -2.95 -7.95 -3.1 -8.05 L-3.25 -7.8 -3.25 -7.85 Q-3.25 -8.45 -2.95 -8.95 L-2.95 -8.8 Q-2.85 -8.35 -2.7 -8.1 -2.5 -7.8 -1.9 -7.8 -1.4 -8.2 -1.3 -8.2 L-1.25 -8.2 M1.8 -1.0 Q1.4 -1.0 1.1 -1.15 L0.95 -1.15 Q1.25 -0.75 1.5 -0.4 1.9 0.05 2.1 0.1 L2.75 0.15 2.8 0.2 2.7 0.2 2.4 0.25 Q1.3 0.05 0.3 -0.5 -0.1 -0.75 -0.45 -1.05 L-1.0 -1.65 -1.0 -1.6 -1.05 -1.75 -1.0 -1.75 -0.75 -1.6 -0.4 -1.35 -0.35 -1.35 Q-0.4 -1.8 -0.85 -2.7 -1.25 -3.4 -1.3 -3.65 L-0.35 -2.8 -0.3 -2.7 -0.25 -2.7 -0.15 -2.6 Q1.15 -1.45 1.8 -1.0" fill="#e1ac3e" fill-rule="evenodd" stroke="none"/>
    <path d="M6.8 -6.4 L6.85 -6.4 Q7.05 -6.05 7.05 -5.9 7.05 -5.3 5.85 -3.9 4.75 -2.55 4.2 -2.3 L4.25 -2.15 4.4 -2.15 Q4.5 -2.15 4.5 -2.25 4.5 -2.5 5.7 -2.95 L8.3 -3.85 Q8.9 -4.05 9.45 -4.25 8.9 -3.85 8.15 -3.4 7.1 -2.75 6.05 -2.3 5.05 -1.85 4.7 -1.85 L4.5 -1.85 Q3.45 -1.4 2.85 -1.4 L2.6 -1.45 2.5 -1.4 Q1.8 -1.4 1.8 -1.85 L1.85 -1.9 Q1.75 -2.05 2.15 -2.1 L2.05 -2.1 2.25 -2.2 Q3.2 -2.55 4.15 -3.3 6.2 -4.8 6.8 -6.4 M-1.35 -7.65 L0.85 -7.35 Q3.2 -6.65 4.5 -5.55 4.85 -5.2 5.15 -4.85 L5.3 -4.7 4.3 -3.7 3.7 -3.3 Q3.8 -3.4 3.8 -3.55 3.8 -4.15 3.2 -4.75 2.9 -5.4 1.95 -6.0 L1.6 -6.2 0.85 -6.55 0.8 -6.6 -0.25 -6.95 -0.4 -6.95 -0.65 -7.05 Q-1.45 -7.4 -1.6 -7.4 L-1.45 -7.6 -1.35 -7.65 M1.6 -2.3 L1.5 -2.25 1.4 -2.25 1.3 -2.35 1.2 -2.3 0.95 -2.4 0.6 -2.5 0.3 -2.75 Q-0.4 -3.35 -0.95 -3.9 L-1.05 -4.1 -1.55 -5.45 -1.9 -6.25 -1.9 -6.35 Q-1.9 -6.65 -2.0 -6.95 L-1.9 -7.05 Q-1.8 -6.95 -1.55 -6.8 -0.15 -5.85 0.05 -5.6 L1.05 -4.4 Q1.7 -3.6 1.95 -2.6 L1.65 -2.6 Q1.5 -2.5 1.5 -2.3 L1.5 -2.25 1.6 -2.3" fill="#6fa8a5" fill-rule="evenodd" stroke="none"/>
    <path d="M6.8 -6.4 Q6.95 -6.85 7.05 -7.25 L7.0 -7.25 6.7 -6.6 Q6.3 -5.85 5.75 -5.15 L5.3 -4.7 5.15 -4.85 Q4.85 -5.2 4.5 -5.55 3.2 -6.65 0.85 -7.35 L-1.35 -7.65 -1.25 -7.8 -0.5 -8.55 -0.35 -8.65 0.3 -9.25 Q0.95 -9.7 1.95 -10.25 L2.6 -10.6 3.8 -10.45 Q4.5 -10.45 5.85 -9.85 6.6 -9.5 8.1 -8.65 L8.35 -8.55 Q8.85 -8.3 10.15 -7.7 L10.15 -7.65 10.25 -7.65 10.3 -7.6 10.45 -7.5 Q10.55 -7.3 10.7 -7.0 L10.95 -6.5 10.9 -6.25 Q10.85 -6.0 10.75 -5.7 L9.5 -4.3 9.45 -4.25 Q8.9 -4.05 8.3 -3.85 L5.7 -2.95 Q4.5 -2.5 4.5 -2.25 4.5 -2.15 4.4 -2.15 L4.25 -2.15 4.2 -2.3 Q4.75 -2.55 5.85 -3.9 7.05 -5.3 7.05 -5.9 7.05 -6.05 6.85 -6.4 L6.8 -6.4 M3.7 -3.3 Q3.15 -2.9 2.7 -2.7 L1.6 -2.3 1.5 -2.25 1.5 -2.3 Q1.5 -2.5 1.65 -2.6 L1.95 -2.6 Q1.7 -3.6 1.05 -4.4 L0.05 -5.6 Q-0.15 -5.85 -1.55 -6.8 -1.8 -6.95 -1.9 -7.05 L-1.85 -7.1 -1.65 -7.35 -1.6 -7.4 Q-1.45 -7.4 -0.65 -7.05 L-0.4 -6.95 -0.5 -7.0 -1.35 -7.2 -1.4 -7.2 -1.6 -7.15 -1.65 -7.1 Q-1.6 -6.95 -1.25 -6.8 L-1.05 -6.7 -1.1 -6.7 -0.7 -6.6 Q-0.2 -6.3 1.1 -6.15 2.4 -5.8 3.35 -4.3 3.3 -4.55 3.2 -4.75 3.8 -4.15 3.8 -3.55 3.8 -3.4 3.7 -3.3" fill="#43767e" fill-rule="evenodd" stroke="none"/>
  </g>
</svg>
