<?xml version="1.0" encoding="UTF-8" standalone="no"?>
<svg xmlns:ffdec="https://www.free-decompiler.com/flash" xmlns:xlink="http://www.w3.org/1999/xlink" ffdec:objectType="shape" height="7.75px" width="6.25px" xmlns="http://www.w3.org/2000/svg">
  <g transform="matrix(1.0, 0.0, 0.0, 1.0, 2.2, 9.25)">
    <path d="M1.0 -8.7 L1.0 -8.55 Q1.0 -8.1 1.25 -7.1 L1.3 -6.8 1.25 -6.2 Q1.1 -5.45 1.1 -4.15 1.1 -4.0 1.2 -3.85 0.55 -3.25 -0.05 -3.25 L-0.25 -3.3 -0.25 -3.2 -0.2 -3.2 -0.05 -3.15 Q0.35 -3.15 1.3 -3.8 L1.35 -3.75 1.5 -3.95 1.85 -4.2 Q2.3 -4.55 2.6 -4.9 2.45 -4.1 2.4 -4.0 1.95 -3.05 0.45 -2.0 0.25 -2.0 0.1 -2.1 L-0.05 -2.15 -0.4 -2.75 -0.7 -3.2 Q-0.7 -3.95 -0.75 -4.25 L-0.8 -4.4 Q-0.8 -4.75 -1.05 -5.25 L-1.1 -5.4 Q-1.3 -5.95 -1.55 -6.35 L-1.55 -6.45 -1.6 -6.75 Q-1.6 -7.05 -1.35 -7.5 L-1.15 -7.85 -0.85 -8.05 Q0.2 -8.7 1.0 -8.7 M1.75 -4.45 L1.8 -4.5 1.7 -4.5 Q1.75 -4.5 1.8 -4.45 L1.75 -4.45" fill="#dad3a3" fill-rule="evenodd" stroke="none"/>
    <path d="M1.5 -3.95 L1.35 -3.75 1.3 -3.8 1.35 -3.85 1.5 -3.95" fill="#d0ae66" fill-rule="evenodd" stroke="none"/>
    <path d="M1.2 -3.85 Q1.1 -4.0 1.1 -4.15 1.1 -5.45 1.25 -6.2 L1.3 -6.8 1.25 -7.1 Q1.0 -8.1 1.0 -8.55 L1.0 -8.7 1.05 -8.7 Q1.25 -8.7 1.85 -8.45 L2.4 -8.2 2.55 -7.85 2.6 -7.65 2.75 -7.1 Q2.85 -6.8 2.85 -6.6 2.85 -6.4 2.95 -6.1 L2.95 -6.05 Q2.55 -5.45 2.1 -4.8 L2.05 -4.75 1.8 -4.45 Q1.75 -4.5 1.7 -4.5 L1.8 -4.5 1.75 -4.45 Q1.5 -4.1 1.2 -3.85 M0.45 -2.0 Q1.95 -3.05 2.4 -4.0 2.45 -4.1 2.6 -4.9 L2.9 -5.2 2.9 -5.25 Q3.0 -5.2 3.1 -5.2 L3.15 -5.2 3.2 -5.15 3.25 -5.05 3.35 -4.9 3.5 -4.75 3.55 -4.6 Q3.55 -4.3 3.15 -3.55 L3.0 -3.2 2.8 -2.95 Q2.5 -2.7 2.25 -2.5 1.45 -1.95 0.6 -1.95 L0.45 -2.0" fill="#cb9c56" fill-rule="evenodd" stroke="none"/>
    <path d="M1.2 -3.85 Q1.5 -4.1 1.75 -4.45 L1.8 -4.45 2.05 -4.75 2.1 -4.8 Q2.55 -5.45 2.95 -6.05 L2.95 -6.1 Q2.85 -6.4 2.85 -6.6 2.85 -6.8 2.75 -7.1 L2.6 -7.65 2.55 -7.85 2.4 -8.2 1.85 -8.45 Q1.25 -8.7 1.05 -8.7 L1.0 -8.7 Q0.2 -8.7 -0.85 -8.05 L-1.15 -7.85 -1.35 -7.5 Q-1.6 -7.05 -1.6 -6.75 L-1.55 -6.45 -1.55 -6.35 Q-1.3 -5.95 -1.1 -5.4 L-1.05 -5.25 Q-0.8 -4.75 -0.8 -4.4 L-0.75 -4.25 Q-0.7 -3.95 -0.7 -3.2 L-0.4 -2.75 -0.05 -2.15 0.1 -2.1 Q0.25 -2.0 0.45 -2.0 L0.6 -1.95 Q1.45 -1.95 2.25 -2.5 2.5 -2.7 2.8 -2.95 L3.0 -3.2 3.15 -3.55 Q3.55 -4.3 3.55 -4.6 L3.5 -4.75 3.35 -4.9 3.25 -5.05 3.2 -5.15 3.15 -5.2 3.1 -5.2 Q3.0 -5.2 2.9 -5.25 L2.9 -5.2 2.6 -4.9 Q2.3 -4.55 1.85 -4.2 L1.5 -3.95 1.35 -3.85 1.3 -3.8 Q0.35 -3.15 -0.05 -3.15 L-0.2 -3.2 -0.25 -3.2 -0.25 -3.3 -0.05 -3.25 Q0.55 -3.25 1.2 -3.85 M2.6 -8.75 Q3.0 -8.65 3.15 -8.0 3.2 -7.2 3.25 -7.05 L3.55 -6.05 3.8 -5.45 3.85 -5.35 Q4.05 -5.25 4.05 -5.1 L4.05 -4.65 Q4.05 -3.7 3.2 -2.7 2.1 -1.5 0.35 -1.5 0.2 -1.5 0.05 -1.55 L0.0 -1.55 Q-0.3 -1.55 -1.2 -3.05 L-1.2 -3.2 -1.15 -3.6 -1.05 -4.0 Q-1.05 -4.3 -1.2 -4.65 -1.35 -5.0 -1.7 -5.55 L-2.15 -6.25 -2.2 -6.75 Q-2.2 -7.1 -2.15 -7.45 -1.85 -7.8 -1.2 -8.3 0.15 -9.25 1.25 -9.25 1.85 -9.25 2.3 -8.95 L2.6 -8.75" fill="#101010" fill-rule="evenodd" stroke="none"/>
  </g>
</svg>
