<?xml version="1.0" encoding="UTF-8" standalone="no"?>
<svg xmlns:ffdec="https://www.free-decompiler.com/flash" xmlns:xlink="http://www.w3.org/1999/xlink" ffdec:objectType="shape" height="15.0px" width="17.1px" xmlns="http://www.w3.org/2000/svg">
  <g transform="matrix(1.0, 0.0, 0.0, 1.0, 3.85, -0.25)">
    <path d="M0.6 6.05 L0.5 6.0 Q0.9 6.3 1.2 6.7 L1.4 7.1 1.2 7.2 Q0.45 7.5 0.05 7.5 -0.15 7.5 -0.6 7.1 L-0.95 6.75 Q-1.0 6.6 -1.4 6.5 L-0.85 6.25 -0.5 6.05 0.2 6.0 0.6 6.05 M2.45 6.85 L1.7 5.9 2.45 6.85 M1.45 7.15 Q1.8 6.95 2.05 6.95 L2.3 7.0 2.7 7.0 3.1 7.15 3.6 7.35 3.75 8.55 3.15 8.05 Q2.9 7.95 2.65 7.95 L2.6 7.95 2.05 8.05 2.0 8.05 1.9 8.0 Q1.6 7.6 1.5 7.35 L1.45 7.15 M2.15 8.25 L2.35 8.2 Q2.85 8.2 3.2 8.35 L3.6 8.55 3.55 10.75 3.15 10.6 3.0 10.5 2.75 10.2 2.7 10.2 Q2.5 9.75 2.15 9.6 L1.4 9.45 1.05 9.4 0.85 9.3 1.55 9.8 1.45 9.8 0.95 9.55 Q0.7 9.45 0.65 9.35 L0.6 9.35 0.6 9.45 0.7 9.8 0.3 9.5 0.2 9.4 0.1 9.45 Q-0.15 9.45 -0.15 9.3 -0.15 9.2 0.0 9.15 L0.5 9.25 Q0.85 9.25 1.6 8.9 2.3 8.6 2.3 8.5 L2.25 8.35 2.15 8.25 M0.55 8.9 L0.2 9.0 0.15 8.95 0.0 8.95 Q-0.55 8.9 -1.2 8.6 L-1.6 8.4 -1.9 8.3 Q-1.75 8.05 -1.45 7.55 -1.45 7.5 -1.6 7.4 -1.8 7.3 -1.8 7.15 L-1.7 7.05 Q-1.7 7.1 -1.6 7.2 L-1.45 7.3 Q-1.3 7.3 -1.15 7.2 L-1.15 7.25 Q-1.25 7.95 -1.0 8.1 -0.8 8.2 0.2 8.75 L0.55 8.9" fill="#bec6a8" fill-rule="evenodd" stroke="none"/>
    <path d="M1.45 7.15 L1.5 7.35 Q1.6 7.6 1.9 8.0 L2.0 8.05 2.05 8.05 1.95 8.1 1.45 8.4 Q1.4 8.2 1.2 8.0 0.85 7.6 0.75 7.9 0.75 8.45 0.7 8.85 L0.55 8.9 0.2 8.75 Q-0.8 8.2 -1.0 8.1 -1.25 7.95 -1.15 7.25 L-1.15 7.2 -1.1 7.2 Q-0.95 7.05 -0.95 6.85 L-0.65 7.15 Q-0.15 7.6 0.3 7.6 0.45 7.6 1.1 7.3 L1.45 7.15 M3.75 8.55 L3.6 7.35 3.55 10.75 3.6 8.55 3.75 8.55 M3.1 7.15 L2.7 7.0 3.1 7.15 M3.0 10.5 L3.15 10.6 3.0 10.5 M0.0 9.15 L0.2 9.1 0.4 9.1 Q0.6 9.1 1.35 8.65 L1.4 8.65 1.45 8.6 1.5 8.6 Q1.9 8.35 2.15 8.25 L2.25 8.35 2.3 8.5 Q2.3 8.6 1.6 8.9 0.85 9.25 0.5 9.25 L0.0 9.15" fill="#e4e4d1" fill-rule="evenodd" stroke="none"/>
    <path d="M0.6 6.05 L1.05 6.05 Q1.55 6.05 1.65 5.9 L1.7 5.9 2.45 6.85 2.4 6.9 2.0 6.9 Q1.8 6.95 1.4 7.1 L1.2 6.7 Q0.9 6.3 0.5 6.0 L0.6 6.05" fill="#9aa87b" fill-rule="evenodd" stroke="none"/>
    <path d="M-1.25 6.75 L-1.5 6.75 -2.05 7.0 -2.1 7.0 -2.1 6.85 Q-2.3 6.8 -2.3 6.95 L-2.2 7.05 -2.15 7.0 -2.15 7.05 -2.2 7.1 Q-2.25 7.2 -2.35 7.25 L-2.3 7.25 Q-2.35 7.25 -2.4 7.2 L-2.4 7.15 -2.6 7.2 -2.6 7.15 Q-2.6 7.0 -2.7 7.0 -2.85 7.0 -2.85 7.15 L-2.85 7.2 -2.7 7.25 -2.65 7.25 Q-2.55 7.25 -2.55 7.3 L-2.8 7.4 -2.8 7.35 -2.75 7.25 -2.85 7.3 -2.95 7.4 -3.05 7.4 -3.2 7.35 -3.1 7.3 Q-3.05 7.3 -3.05 7.2 -3.05 7.1 -3.15 7.1 -3.3 7.1 -3.3 7.2 L-3.35 7.25 -3.55 7.15 -3.55 7.05 Q-3.55 6.95 -3.05 6.75 -2.7 6.6 -2.5 6.6 L-1.7 6.65 Q-1.35 6.65 -1.25 6.75" fill="#b0ba96" fill-rule="evenodd" stroke="none"/>
    <path d="M0.85 8.75 L0.9 8.7 0.85 8.05 Q1.0 8.1 1.2 8.35 L1.3 8.5 1.2 8.55 0.85 8.75" fill="#fdfec2" fill-rule="evenodd" stroke="none"/>
    <path d="M-0.55 5.9 L-0.7 5.6 0.55 5.15 1.3 5.65 1.15 5.8 0.5 5.85 0.1 5.75 -0.15 5.7 -0.55 5.9 M2.6 10.5 L2.2 10.55 Q1.7 10.55 1.3 9.95 L1.5 10.0 1.75 10.05 1.8 10.0 1.8 9.95 1.7 9.85 1.75 9.85 Q2.3 10.0 2.4 10.1 L2.55 10.35 2.6 10.5" fill="#3c4d45" fill-rule="evenodd" stroke="none"/>
    <path d="M1.7 5.9 L1.65 5.9 Q1.55 6.05 1.05 6.05 L0.6 6.05 0.2 6.0 -0.5 6.05 -0.85 6.25 -1.4 6.5 Q-1.0 6.6 -0.95 6.75 L-0.6 7.1 Q-0.15 7.5 0.05 7.5 0.45 7.5 1.2 7.2 L1.4 7.1 Q1.8 6.95 2.0 6.9 L2.4 6.9 2.45 6.85 1.7 5.9 M1.3 5.65 L6.25 10.15 2.6 10.5 2.55 10.35 2.4 10.1 Q2.3 10.0 1.75 9.85 L1.7 9.85 1.8 9.95 1.8 10.0 1.75 10.05 1.5 10.0 1.3 9.95 1.0 9.9 0.9 10.05 Q0.7 10.05 0.55 10.0 L0.5 9.95 Q0.45 9.95 0.2 9.75 L0.1 9.75 -0.05 9.7 -0.3 9.6 -0.35 9.55 -0.45 9.5 -0.4 9.15 -0.5 9.15 Q-0.7 9.15 -1.45 8.8 L-1.55 8.75 Q-1.95 8.7 -2.45 8.5 -3.05 8.2 -3.15 8.0 L-3.35 7.8 Q-3.8 7.3 -3.8 7.0 L-3.85 7.0 -3.8 6.9 -3.6 6.7 Q-3.35 6.55 -3.0 6.5 L-2.7 6.45 Q-2.55 6.35 -2.35 6.35 L-1.85 6.35 -0.55 5.9 -0.15 5.7 0.1 5.75 0.5 5.85 1.15 5.8 1.3 5.65 M2.7 7.0 L2.3 7.0 2.05 6.95 Q1.8 6.95 1.45 7.15 L1.1 7.3 Q0.45 7.6 0.3 7.6 -0.15 7.6 -0.65 7.15 L-0.95 6.85 Q-0.95 7.05 -1.1 7.2 L-1.15 7.2 Q-1.3 7.3 -1.45 7.3 L-1.6 7.2 Q-1.7 7.1 -1.7 7.05 L-1.8 7.15 Q-1.8 7.3 -1.6 7.4 -1.45 7.5 -1.45 7.55 -1.75 8.05 -1.9 8.3 L-1.6 8.4 -1.2 8.6 Q-0.55 8.9 0.0 8.95 L0.15 8.95 0.2 9.0 0.55 8.9 0.7 8.85 Q0.75 8.45 0.75 7.9 0.85 7.6 1.2 8.0 1.4 8.2 1.45 8.4 L1.95 8.1 2.05 8.05 2.6 7.95 2.65 7.95 Q2.9 7.95 3.15 8.05 L3.75 8.55 3.6 8.55 3.2 8.35 Q2.85 8.2 2.35 8.2 L2.15 8.25 Q1.9 8.35 1.5 8.6 L1.45 8.6 1.4 8.65 1.35 8.65 Q0.6 9.1 0.4 9.1 L0.2 9.1 0.0 9.15 Q-0.15 9.2 -0.15 9.3 -0.15 9.45 0.1 9.45 L0.2 9.4 0.3 9.5 0.7 9.8 0.6 9.45 0.6 9.35 0.65 9.35 Q0.7 9.45 0.95 9.55 L1.45 9.8 1.55 9.8 0.85 9.3 1.05 9.4 1.4 9.45 2.15 9.6 Q2.5 9.75 2.7 10.2 L2.75 10.2 3.0 10.5 3.15 10.6 3.55 10.75 3.6 7.35 3.1 7.15 2.7 7.0 M0.85 8.75 L1.2 8.55 1.3 8.5 1.2 8.35 Q1.0 8.1 0.85 8.05 L0.9 8.7 0.85 8.75 M0.75 9.7 L0.75 9.7 M-1.25 6.75 Q-1.35 6.65 -1.7 6.65 L-2.5 6.6 Q-2.7 6.6 -3.05 6.75 -3.55 6.95 -3.55 7.05 L-3.55 7.15 -3.5 7.15 -3.4 7.35 Q-3.25 7.6 -2.8 7.95 L-2.6 8.1 -2.3 8.25 -2.2 8.2 Q-1.95 8.15 -1.9 8.05 L-1.7 7.85 Q-1.65 7.8 -1.65 7.65 -1.65 7.6 -1.8 7.4 -1.9 7.15 -1.9 7.05 -1.9 7.0 -1.8 6.95 -1.7 6.9 -1.6 6.9 -1.45 6.9 -1.4 6.95 L-1.35 7.1 Q-1.15 7.0 -1.15 6.9 -1.15 6.8 -1.25 6.75" fill="#111111" fill-rule="evenodd" stroke="none"/>
    <path d="M-3.55 7.15 L-3.35 7.25 -3.3 7.2 Q-3.3 7.1 -3.15 7.1 -3.05 7.1 -3.05 7.2 -3.05 7.3 -3.1 7.3 L-3.2 7.35 -3.05 7.4 -2.95 7.4 -2.85 7.3 -2.75 7.25 -2.8 7.35 -2.8 7.4 -2.55 7.3 Q-2.55 7.25 -2.65 7.25 L-2.7 7.25 -2.85 7.2 -2.85 7.15 Q-2.85 7.0 -2.7 7.0 -2.6 7.0 -2.6 7.15 L-2.6 7.2 -2.4 7.15 -2.4 7.2 Q-2.35 7.25 -2.3 7.25 L-2.35 7.25 Q-2.25 7.2 -2.2 7.1 L-2.15 7.05 -2.15 7.0 -2.2 7.05 -2.3 6.95 Q-2.3 6.8 -2.1 6.85 L-2.1 7.0 -2.05 7.0 -1.5 6.75 -1.25 6.75 Q-1.15 6.8 -1.15 6.9 -1.15 7.0 -1.35 7.1 L-1.4 6.95 Q-1.45 6.9 -1.6 6.9 -1.7 6.9 -1.8 6.95 -1.9 7.0 -1.9 7.05 -1.9 7.15 -1.8 7.4 -1.65 7.6 -1.65 7.65 -1.65 7.8 -1.7 7.85 L-1.9 8.05 Q-1.95 8.15 -2.2 8.2 L-2.3 8.25 -2.6 8.1 -2.8 7.95 Q-3.25 7.6 -3.4 7.35 L-3.5 7.15 -3.55 7.15" fill="#434b32" fill-rule="evenodd" stroke="none"/>
    <path d="M7.05 5.2 L6.8 5.0 6.2 4.3 6.3 4.25 6.4 4.1 6.5 4.0 6.8 3.75 Q6.85 3.6 7.35 3.15 L7.45 3.05 7.35 3.1 Q7.75 2.65 8.25 2.5 L7.95 2.75 7.7 3.05 7.7 3.1 Q7.8 3.05 8.0 2.9 8.8 2.4 9.0 2.55 L9.1 2.5 8.95 2.6 8.45 3.0 8.55 3.0 9.9 2.9 9.95 2.9 10.4 2.85 10.45 2.85 11.0 2.75 11.05 2.75 11.75 2.7 12.25 2.65 12.4 2.65 11.0 3.7 9.5 4.55 Q8.25 5.15 7.45 5.35 7.5 5.25 7.6 5.1 L7.9 4.8 7.2 5.1 Q7.1 5.15 7.05 5.2 M4.1 3.3 L3.9 3.35 3.9 3.3 3.8 3.35 Q3.55 3.45 3.25 3.55 L3.3 3.45 3.5 3.25 3.45 3.1 3.5 2.9 Q3.55 2.7 3.5 2.45 3.6 2.55 3.7 2.65 L3.8 2.4 3.85 2.25 3.85 2.2 4.25 1.8 4.05 2.35 Q4.45 1.95 4.95 1.7 L6.55 0.9 6.5 0.95 6.35 1.25 Q6.0 1.55 5.6 2.1 L5.25 2.55 Q5.0 3.25 4.85 3.25 L4.75 3.2 4.75 3.25 4.5 3.25 4.8 2.7 Q4.5 2.9 4.1 3.3 M5.4 2.55 L5.5 2.3 Q5.6 2.15 6.0 1.7 L6.3 1.35 Q6.75 0.75 7.0 0.55 L7.05 0.6 7.05 0.65 Q7.05 0.75 6.5 1.45 L6.3 1.95 6.15 2.2 6.15 2.25 Q5.95 2.35 5.45 2.55 L5.4 2.55 M7.7 2.85 Q7.6 2.9 7.55 2.95 L7.6 2.95 7.7 2.85" fill="#bec6a8" fill-rule="evenodd" stroke="none"/>
    <path d="M4.9 8.2 L4.55 8.35 4.75 8.25 4.8 8.2 4.9 8.2 M4.25 8.5 L4.3 8.5 4.2 8.55 4.3 8.55 Q4.35 8.8 4.45 8.8 4.6 8.8 4.6 8.6 L4.6 8.4 4.95 8.25 Q5.0 8.5 5.1 8.5 5.3 8.5 5.3 8.35 L5.2 8.1 5.4 8.0 5.45 8.0 Q5.6 8.2 5.65 8.2 L5.75 8.15 5.8 8.0 5.75 7.85 6.15 7.65 Q6.2 7.85 6.25 7.85 6.4 7.8 6.4 7.65 L6.4 7.55 6.5 7.6 6.5 7.55 6.55 7.5 6.6 7.6 6.65 7.65 6.75 7.65 Q6.8 7.65 6.85 7.6 L6.9 7.5 6.85 7.35 7.1 7.2 7.15 7.4 7.2 7.45 7.25 7.45 Q7.4 7.45 7.4 7.3 L7.35 7.05 7.55 6.85 7.55 6.9 7.6 7.0 Q7.65 7.05 7.7 7.05 L7.8 7.0 Q7.85 7.0 7.85 6.9 7.85 6.75 7.75 6.6 L7.8 6.5 Q8.05 6.8 8.15 6.8 8.35 6.8 8.45 6.5 L8.45 5.85 8.5 5.9 Q8.8 6.15 8.85 6.4 L9.1 7.2 9.2 7.6 Q9.25 7.8 9.35 7.9 L9.4 7.95 9.5 8.1 9.5 8.2 9.45 8.65 Q9.4 9.1 9.25 9.5 8.95 10.1 8.3 10.95 9.1 10.45 9.5 9.95 L9.55 9.9 9.6 9.9 Q10.1 9.95 10.45 10.05 10.55 10.1 10.65 10.25 L10.7 10.3 10.5 10.35 Q9.85 10.4 9.15 10.75 8.55 10.85 8.15 11.25 L8.05 11.35 Q7.7 11.6 7.7 11.8 L7.7 11.75 7.4 12.25 6.45 13.4 5.9 14.05 6.05 14.0 5.75 14.15 Q5.25 14.35 5.1 14.35 4.25 14.35 3.8 13.65 L3.8 13.6 4.1 13.4 5.15 12.75 5.8 12.8 5.65 13.1 5.6 13.3 5.15 13.65 4.9 13.9 Q5.25 13.7 5.55 13.45 L5.9 13.1 Q6.15 12.8 6.3 12.55 L6.5 12.2 6.6 12.05 6.55 12.15 6.8 11.7 Q7.3 10.9 7.3 10.8 7.3 10.7 7.35 10.6 L7.7 10.1 7.7 10.05 7.75 10.0 7.95 9.7 Q8.1 9.45 8.1 9.25 L8.15 9.1 8.25 8.9 8.3 8.65 8.35 8.5 Q8.6 7.85 8.6 7.6 L8.6 7.55 8.6 7.45 8.55 7.4 8.55 7.15 Q8.4 7.45 8.15 7.75 L8.1 7.85 8.05 7.9 7.85 8.15 7.7 8.25 Q7.2 8.75 6.8 8.95 6.55 9.15 5.95 9.35 L5.9 9.4 Q5.8 9.4 5.6 9.45 L5.05 9.65 4.85 9.7 Q4.25 9.9 3.75 9.9 3.85 9.8 3.85 9.55 3.85 9.25 3.7 8.8 3.8 8.95 3.9 8.95 3.95 8.95 4.0 8.9 4.05 8.85 4.05 8.8 L4.0 8.6 4.25 8.5 M8.0 6.15 L8.0 6.1 8.1 6.2 Q8.1 6.3 8.05 6.3 8.0 6.3 7.8 6.15 L8.0 6.15 M4.05 9.35 L4.1 9.35 4.15 9.3 4.05 9.3 4.05 9.35" fill="#658175" fill-rule="evenodd" stroke="none"/>
    <path d="M6.15 2.25 L5.9 2.85 Q5.6 3.45 5.6 3.6 L5.6 3.65 5.5 3.6 5.45 3.6 5.4 3.55 5.25 3.5 5.2 3.45 5.1 3.45 5.3 3.05 5.4 2.55 5.45 2.55 Q5.95 2.35 6.15 2.25" fill="#e4e4d1" fill-rule="evenodd" stroke="none"/>
    <path d="M4.85 4.6 L4.9 4.8 4.85 4.75 4.55 4.75 4.7 4.95 4.4 5.05 4.3 5.0 Q4.05 4.85 4.05 5.0 L4.15 5.2 3.8 5.45 3.7 5.35 Q3.45 5.05 3.45 5.35 L3.55 5.6 3.1 5.7 2.9 5.5 Q2.65 5.35 2.65 5.6 L2.75 5.75 2.5 5.75 2.35 5.6 Q2.15 5.45 2.15 5.7 L2.2 5.8 2.0 5.6 Q1.4 5.2 0.9 4.95 L1.15 4.95 1.4 5.0 1.45 4.95 1.5 4.95 1.8 4.8 1.35 4.85 1.7 4.65 1.9 4.55 2.55 4.15 Q2.9 3.95 3.4 3.8 L3.6 3.7 3.75 3.65 3.85 3.65 4.1 3.6 4.45 3.55 4.65 3.55 5.05 3.65 Q5.25 3.75 5.45 3.85 L5.65 3.95 5.5 3.9 Q5.2 3.7 5.2 3.95 L5.35 4.1 5.3 4.1 5.25 4.15 5.2 4.15 Q4.9 4.0 4.9 4.2 L4.95 4.3 5.1 4.4 5.0 4.5 Q4.8 4.4 4.75 4.4 L4.8 4.5 4.85 4.6 M3.3 6.3 L3.3 6.3" fill="#3c4d45" fill-rule="evenodd" stroke="none"/>
    <path d="M5.85 4.0 L5.85 4.05 5.7 3.9 5.85 3.9 5.9 4.0 5.85 4.0 M6.35 7.4 L6.35 7.6 6.3 7.65 Q6.2 7.6 6.15 7.5 L6.1 7.3 6.15 7.25 Q6.2 7.2 6.25 7.25 L6.3 7.3 6.35 7.4 M5.2 8.05 L5.2 8.1 5.25 8.35 5.25 8.4 Q5.25 8.45 5.15 8.45 5.0 8.45 5.0 8.25 L4.95 7.95 5.0 7.85 Q5.05 7.85 5.15 7.95 L5.2 8.05 M3.2 6.0 Q3.15 6.05 3.05 6.05 3.0 6.05 2.9 5.8 2.8 5.6 2.75 5.55 2.8 5.55 3.0 5.7 L3.2 5.9 3.2 6.0 M7.1 6.65 Q7.2 6.65 7.3 6.95 L7.35 7.25 Q7.35 7.35 7.25 7.35 7.2 7.35 7.15 7.05 L7.1 6.8 7.1 6.65 M6.6 7.0 Q6.65 7.0 6.75 7.2 L6.8 7.5 Q6.8 7.55 6.75 7.55 6.65 7.55 6.65 7.5 L6.65 7.4 6.6 7.05 6.6 7.0 M7.4 6.45 Q7.4 6.25 7.6 6.5 7.8 6.7 7.8 6.85 7.8 6.95 7.75 6.95 L7.45 6.5 7.4 6.45 M1.45 4.7 L1.4 4.7 1.4 4.6 Q1.45 4.6 1.55 4.6 L1.55 4.65 1.45 4.7 M4.85 4.6 L4.8 4.5 Q4.85 4.45 5.0 4.55 5.2 4.65 5.2 4.75 L5.2 4.8 5.15 4.8 Q5.05 4.8 5.0 4.75 L4.85 4.6 M1.05 4.75 Q1.1 4.75 1.1 4.85 L1.05 4.9 0.95 4.85 Q0.95 4.75 1.05 4.75 M2.2 5.65 L2.25 5.65 Q2.3 5.65 2.4 5.8 2.5 5.9 2.5 5.95 L2.5 6.0 2.45 6.05 Q2.35 6.05 2.3 5.9 L2.2 5.7 2.2 5.65 M5.4 4.4 L5.35 4.45 Q5.05 4.3 5.05 4.15 5.1 4.1 5.25 4.25 L5.4 4.4 M5.7 4.2 L5.65 4.2 5.45 4.05 5.3 3.9 Q5.3 3.85 5.5 3.95 5.75 4.1 5.75 4.15 L5.7 4.2 M4.95 5.2 Q4.85 5.2 4.75 5.0 L4.65 4.8 Q4.65 4.6 4.85 4.8 5.05 4.95 5.05 5.05 L5.0 5.15 Q5.0 5.2 4.95 5.2 M4.2 5.1 Q4.25 5.1 4.4 5.15 4.5 5.25 4.5 5.3 4.5 5.4 4.45 5.35 4.5 5.4 4.4 5.4 4.35 5.4 4.25 5.25 L4.2 5.1 M3.9 5.8 L3.8 5.85 Q3.75 5.85 3.65 5.65 3.55 5.45 3.55 5.35 L3.55 5.3 Q3.9 5.55 3.9 5.7 L3.9 5.8 M5.3 7.5 Q5.45 7.5 5.6 7.7 5.75 7.9 5.75 7.95 L5.75 8.05 Q5.75 8.1 5.7 8.1 5.6 8.1 5.45 7.85 L5.3 7.6 5.3 7.5 M4.55 8.65 Q4.55 8.7 4.5 8.7 4.35 8.7 4.35 8.45 L4.35 8.15 4.45 8.15 4.6 8.6 4.55 8.65 M3.8 8.45 L3.95 8.75 3.95 8.85 3.9 8.85 Q3.85 8.85 3.75 8.7 L3.7 8.55 Q3.7 8.5 3.8 8.45" fill="#9eb4ab" fill-rule="evenodd" stroke="none"/>
    <path d="M12.4 2.65 L12.25 2.65 11.75 2.7 11.05 2.75 11.0 2.75 10.45 2.85 10.4 2.85 9.95 2.9 9.9 2.9 8.55 3.0 8.45 3.0 8.95 2.6 9.1 2.5 9.0 2.55 Q8.8 2.4 8.0 2.9 7.8 3.05 7.7 3.1 L7.7 3.05 7.95 2.75 8.25 2.5 Q7.75 2.65 7.35 3.1 L7.45 3.05 7.35 3.15 Q6.85 3.6 6.8 3.75 L6.5 4.0 6.4 4.1 6.3 4.25 6.2 4.3 6.8 5.0 7.05 5.2 7.25 5.4 7.5 5.55 7.6 5.6 Q7.75 5.65 7.8 5.7 L7.9 5.7 Q8.0 5.6 8.3 5.5 8.5 5.4 8.75 5.35 9.05 5.15 9.55 4.95 10.65 4.45 10.95 4.25 11.25 4.0 11.85 3.4 12.4 2.85 12.6 2.7 L12.65 2.7 12.4 2.65 M1.95 10.35 L2.1 10.35 Q2.45 10.3 2.75 10.2 L2.9 10.05 3.1 9.75 3.15 9.45 Q3.15 9.25 3.0 8.65 2.8 7.9 2.45 7.3 L2.4 7.15 2.1 6.75 1.7 6.25 1.65 6.2 Q1.35 5.95 1.05 5.75 0.5 5.4 0.1 5.45 -0.05 5.5 -0.1 5.55 L-0.1 5.5 -0.25 5.45 -0.35 5.5 -0.5 5.6 -0.45 5.75 Q-0.45 5.95 -0.6 6.0 L-0.95 6.15 -1.1 6.1 -1.1 5.9 Q-1.1 5.75 -1.05 5.6 -1.05 5.5 -0.95 5.35 L-0.95 5.3 Q-0.45 4.8 -0.05 4.7 L0.6 4.7 0.75 4.65 0.9 4.65 0.95 4.6 1.1 4.6 Q1.1 4.5 1.35 4.4 1.55 4.35 1.7 4.35 2.0 4.15 2.3 4.0 2.75 3.7 3.2 3.1 3.35 2.85 3.35 2.7 L3.2 2.3 Q3.2 2.25 3.25 2.2 L3.3 2.2 3.3 2.15 3.45 2.2 3.5 2.2 3.6 2.25 3.9 1.75 3.95 1.7 Q4.15 1.5 4.3 1.45 4.35 1.4 4.45 1.4 L4.5 1.35 4.5 1.4 4.6 1.4 4.65 1.5 4.6 1.6 4.9 1.45 5.25 1.25 5.2 1.3 Q5.7 1.0 6.3 0.65 7.7 -0.05 7.7 0.45 7.7 0.4 7.4 0.55 L7.0 1.05 Q6.5 1.65 6.35 2.1 6.3 2.3 6.15 3.05 L6.05 3.5 6.05 3.7 6.15 3.7 Q6.2 3.7 6.2 3.75 L6.25 3.8 6.65 3.5 Q6.85 3.2 7.2 2.95 7.4 2.75 8.0 2.45 8.7 2.1 8.7 2.3 L8.65 2.45 Q8.95 2.3 9.4 2.3 9.5 2.3 9.5 2.35 L9.5 2.4 Q9.5 2.5 9.4 2.6 L10.45 2.5 11.15 2.45 11.25 2.5 11.4 2.5 Q11.6 2.5 12.55 2.3 L13.1 2.3 13.2 2.25 13.25 2.4 13.15 2.5 13.2 2.55 13.15 2.6 12.8 2.9 12.6 3.05 12.5 3.15 11.25 4.2 Q10.8 4.6 9.9 5.1 9.2 5.45 8.85 5.6 9.1 6.0 9.25 6.5 L9.35 6.8 9.35 6.9 9.4 7.25 9.4 7.35 Q9.45 7.55 9.6 7.75 L9.8 8.0 9.9 8.1 9.9 8.15 9.95 8.15 Q10.2 8.4 10.2 8.5 L10.05 9.45 10.0 9.65 10.25 9.75 Q10.8 9.95 11.05 10.2 L11.2 10.25 11.45 10.3 Q11.75 10.45 11.75 10.8 11.75 11.0 11.65 11.0 L11.2 11.0 10.55 11.1 9.7 11.35 Q8.1 11.95 8.1 13.1 L8.2 13.5 Q8.2 13.7 6.85 14.5 5.55 15.25 5.35 15.25 5.25 15.25 4.65 14.95 4.1 14.6 4.05 14.6 L3.45 14.4 Q3.25 14.35 3.2 14.2 3.15 14.05 3.1 13.8 L3.05 13.8 3.0 13.5 Q3.0 13.2 2.7 12.65 L2.45 12.25 Q2.25 12.05 1.75 11.75 L1.2 11.45 Q1.2 11.05 1.5 10.85 L1.7 10.9 1.75 10.85 1.2 10.7 Q1.15 10.6 1.05 10.55 L1.0 10.5 Q0.85 10.35 0.6 9.95 0.6 9.5 1.2 9.9 L1.75 10.35 1.8 10.35 1.95 10.35 M4.5 3.25 L4.75 3.25 4.75 3.2 4.85 3.25 Q5.0 3.25 5.25 2.55 L5.6 2.1 Q6.0 1.55 6.35 1.25 L6.5 0.95 6.55 0.9 4.95 1.7 Q4.45 1.95 4.05 2.35 L4.25 1.8 3.85 2.2 3.85 2.25 3.8 2.4 3.7 2.65 Q3.6 2.55 3.5 2.45 3.55 2.7 3.5 2.9 L3.45 3.1 3.5 3.25 3.3 3.45 3.25 3.55 Q3.55 3.45 3.8 3.35 L3.9 3.3 3.9 3.35 4.1 3.3 4.15 3.3 4.5 3.25 M6.15 2.25 L6.15 2.2 6.3 1.95 6.5 1.45 Q7.05 0.75 7.05 0.65 L7.05 0.6 7.0 0.55 Q6.75 0.75 6.3 1.35 L6.0 1.7 Q5.6 2.15 5.5 2.3 L5.4 2.55 5.3 3.05 5.1 3.45 5.2 3.45 5.25 3.5 5.4 3.55 5.45 3.6 5.5 3.6 5.6 3.65 5.6 3.6 Q5.6 3.45 5.9 2.85 L6.15 2.25 M7.7 2.85 L7.6 2.95 7.55 2.95 Q7.6 2.9 7.7 2.85 M5.85 4.0 L5.9 4.0 5.85 3.9 5.7 3.9 5.85 4.05 5.85 4.0 M5.8 4.2 L5.85 4.15 5.85 4.1 5.75 4.1 5.8 4.2 M7.4 5.5 L7.35 5.5 6.8 5.15 6.3 4.65 6.15 4.35 6.05 4.2 Q5.95 4.2 5.9 4.3 L5.85 4.4 5.85 4.45 Q5.9 4.7 6.35 5.15 L6.45 5.3 Q7.15 6.0 7.7 6.0 7.95 6.0 8.0 5.9 L8.0 5.85 7.4 5.5 M7.35 6.35 L7.4 6.3 7.5 6.3 7.6 6.35 7.6 6.4 7.7 6.45 7.8 6.25 7.75 6.2 7.6 6.1 Q7.35 6.05 7.05 5.9 L6.9 5.8 6.8 5.75 6.75 5.75 6.35 5.4 Q5.75 4.85 5.75 4.45 L5.75 4.3 5.7 4.35 5.55 4.25 5.5 4.15 5.35 4.25 Q5.5 4.35 5.5 4.45 L5.45 4.55 5.4 4.6 5.25 4.5 5.15 4.4 5.1 4.5 5.05 4.55 Q5.25 4.7 5.3 4.75 L5.1 4.85 5.15 4.8 5.15 4.85 5.05 4.9 Q5.1 5.0 5.1 5.1 5.1 5.3 4.95 5.3 L4.75 5.0 4.45 5.15 Q4.55 5.25 4.55 5.35 L4.5 5.45 Q4.45 5.55 4.4 5.55 4.35 5.55 4.2 5.3 L3.85 5.55 Q3.95 5.65 3.95 5.8 3.95 6.0 3.8 6.0 3.7 6.0 3.55 5.65 L3.2 5.75 3.15 5.75 3.2 5.9 3.0 5.7 Q2.8 5.55 2.75 5.55 2.8 5.6 2.9 5.8 3.0 6.05 3.05 6.05 3.15 6.05 3.2 6.0 3.15 6.15 3.0 6.15 2.95 6.15 2.8 5.85 L2.55 5.85 2.6 6.0 2.55 6.1 2.5 6.15 2.6 6.2 Q2.85 6.6 3.0 6.95 L3.5 8.15 3.7 8.7 3.6 8.45 Q3.6 8.15 3.85 8.4 L4.0 8.6 4.05 8.8 Q4.05 8.85 4.0 8.9 3.95 8.95 3.9 8.95 3.8 8.95 3.7 8.8 3.85 9.25 3.85 9.55 3.85 9.8 3.75 9.9 3.65 10.1 3.3 10.4 L2.9 10.7 2.85 10.75 2.45 10.9 2.5 10.9 Q2.75 11.1 2.85 11.15 L3.1 11.2 3.9 11.65 3.7 11.6 Q4.2 11.75 5.0 11.75 5.4 11.75 5.8 11.65 L6.3 11.35 6.25 11.35 6.45 11.2 6.95 10.75 7.25 10.45 7.25 10.4 7.35 10.3 7.4 10.2 7.5 10.05 7.75 9.7 7.95 9.3 8.35 8.45 8.35 8.5 8.3 8.65 8.25 8.9 8.15 9.1 8.1 9.25 Q8.1 9.45 7.95 9.7 L7.75 10.0 7.7 10.05 7.7 10.1 7.35 10.6 Q7.3 10.7 7.3 10.8 7.3 10.9 6.8 11.7 L6.55 12.15 6.5 12.2 6.3 12.55 Q6.15 12.8 5.9 13.1 L5.55 13.45 Q5.25 13.7 4.9 13.9 L5.15 13.65 5.6 13.3 6.0 12.8 6.05 12.75 6.05 12.7 6.15 12.6 6.45 12.15 6.5 12.05 Q6.7 11.75 6.75 11.6 L6.8 11.5 Q7.0 11.2 7.0 11.0 L6.95 10.95 6.95 10.9 6.9 11.0 6.8 11.1 Q6.05 11.75 5.85 11.85 L5.75 11.9 5.65 11.9 4.5 11.8 3.7 11.65 3.5 11.55 Q3.15 11.45 2.85 11.3 L2.75 11.2 2.55 11.1 2.6 11.2 Q2.35 11.0 2.05 10.95 2.05 11.0 2.0 11.0 L1.95 11.1 Q2.4 11.3 2.8 11.6 L3.05 11.9 3.2 12.05 3.35 12.4 Q3.55 12.75 3.6 13.05 L3.65 13.2 3.65 13.25 Q3.7 13.4 3.8 13.6 L3.8 13.65 Q4.25 14.35 5.1 14.35 5.25 14.35 5.75 14.15 L6.05 14.0 6.35 13.85 6.85 13.5 7.05 13.35 7.35 12.75 7.45 12.4 7.7 11.9 7.7 11.8 Q7.7 11.6 8.05 11.35 8.3 11.1 8.85 10.85 L9.15 10.75 Q9.85 10.4 10.5 10.35 L10.7 10.3 10.65 10.25 Q10.55 10.1 10.45 10.05 10.1 9.95 9.6 9.9 L9.55 9.9 9.5 9.95 9.45 9.95 9.4 10.0 9.4 9.95 Q9.5 9.85 9.65 9.65 9.8 9.3 9.8 9.15 9.85 8.85 9.85 8.75 L9.85 8.6 9.75 8.45 9.5 8.1 9.4 7.95 9.35 7.9 Q9.25 7.8 9.2 7.6 L9.1 7.2 8.85 6.4 Q8.8 6.15 8.5 5.9 L8.45 5.85 8.35 5.7 Q8.3 5.75 8.25 5.75 L8.15 5.8 8.2 5.9 8.2 6.0 Q8.15 6.1 8.1 6.1 L8.2 6.25 8.15 6.3 8.15 6.35 Q8.1 6.4 8.05 6.4 8.0 6.4 7.9 6.35 L7.85 6.5 7.8 6.5 7.75 6.6 Q7.85 6.75 7.85 6.9 7.85 7.0 7.8 7.0 L7.7 7.05 Q7.65 7.05 7.6 7.0 L7.55 6.9 7.55 6.85 7.35 7.05 7.4 7.3 Q7.4 7.45 7.25 7.45 L7.2 7.45 7.15 7.4 7.1 7.2 6.85 7.35 6.9 7.5 6.85 7.6 Q6.8 7.65 6.75 7.65 L6.65 7.65 6.6 7.6 6.55 7.5 6.5 7.55 6.5 7.6 6.4 7.55 6.4 7.65 Q6.4 7.8 6.25 7.85 6.2 7.85 6.15 7.65 L5.75 7.85 5.8 8.0 5.75 8.15 5.65 8.2 Q5.6 8.2 5.45 8.0 L5.4 8.0 5.2 8.1 5.3 8.35 Q5.3 8.5 5.1 8.5 5.0 8.5 4.95 8.25 L4.6 8.4 4.6 8.6 Q4.6 8.8 4.45 8.8 4.35 8.8 4.3 8.55 L4.2 8.55 4.3 8.5 4.25 8.5 4.2 8.1 4.2 8.0 Q4.35 8.0 4.5 8.25 L4.55 8.35 4.9 8.2 4.9 8.15 4.85 7.85 Q4.85 7.55 5.05 7.85 L5.15 7.95 Q5.05 7.85 5.0 7.85 L4.95 7.95 5.0 8.25 Q5.0 8.45 5.15 8.45 5.25 8.45 5.25 8.4 L5.25 8.35 5.2 8.1 5.2 8.05 Q5.3 8.0 5.45 7.95 L5.4 7.9 Q5.25 7.65 5.25 7.6 5.25 7.3 5.55 7.55 L5.75 7.8 6.1 7.6 6.1 7.55 6.0 7.3 Q6.0 7.0 6.2 7.2 L6.25 7.25 Q6.2 7.2 6.15 7.25 L6.1 7.3 6.15 7.5 Q6.2 7.6 6.3 7.65 L6.35 7.6 6.35 7.4 6.35 7.45 6.45 7.4 6.5 7.4 6.6 7.3 6.55 7.25 6.55 6.95 Q6.6 6.95 6.65 6.95 6.75 6.95 6.8 7.15 L6.8 7.25 7.1 7.1 7.1 6.95 7.05 6.8 7.0 6.7 Q7.0 6.65 7.05 6.65 7.15 6.6 7.25 6.7 L7.3 6.9 7.35 6.95 7.55 6.75 7.45 6.6 7.35 6.5 7.35 6.35 M6.6 7.0 L6.6 7.05 6.65 7.4 6.65 7.5 Q6.65 7.55 6.75 7.55 6.8 7.55 6.8 7.5 L6.75 7.2 Q6.65 7.0 6.6 7.0 M7.1 6.65 L7.1 6.8 7.15 7.05 Q7.2 7.35 7.25 7.35 7.35 7.35 7.35 7.25 L7.3 6.95 Q7.2 6.65 7.1 6.65 M8.1 5.9 L8.05 6.0 8.1 6.0 8.1 5.9 M8.0 6.15 L7.8 6.15 Q8.0 6.3 8.05 6.3 8.1 6.3 8.1 6.2 L8.0 6.1 8.0 6.15 M1.45 4.7 L1.55 4.65 1.55 4.6 Q1.45 4.6 1.4 4.6 L1.4 4.7 1.45 4.7 M7.4 6.45 L7.45 6.5 7.75 6.95 Q7.8 6.95 7.8 6.85 7.8 6.7 7.6 6.5 7.4 6.25 7.4 6.45 M4.8 4.5 L4.75 4.4 Q4.8 4.4 5.0 4.5 L5.1 4.4 4.95 4.3 4.9 4.2 Q4.9 4.0 5.2 4.15 L5.25 4.15 5.3 4.1 5.35 4.1 5.2 3.95 Q5.2 3.7 5.5 3.9 L5.65 3.95 5.45 3.85 Q5.25 3.75 5.05 3.65 L4.65 3.55 4.45 3.55 4.1 3.6 3.85 3.65 3.75 3.65 3.6 3.7 3.4 3.8 Q2.9 3.95 2.55 4.15 L1.9 4.55 1.7 4.65 1.35 4.85 1.8 4.8 1.5 4.95 1.45 4.95 1.4 5.0 1.15 4.95 0.9 4.95 Q1.4 5.2 2.0 5.6 L2.2 5.8 2.15 5.7 Q2.15 5.45 2.35 5.6 L2.5 5.75 2.75 5.75 2.65 5.6 Q2.65 5.35 2.9 5.5 L3.1 5.7 3.55 5.6 3.45 5.35 Q3.45 5.05 3.7 5.35 L3.8 5.45 4.15 5.2 4.05 5.0 Q4.05 4.85 4.3 5.0 L4.4 5.05 4.7 4.95 4.55 4.75 4.85 4.75 4.9 4.8 4.85 4.6 5.0 4.75 Q5.05 4.8 5.15 4.8 L5.2 4.8 5.2 4.75 Q5.2 4.65 5.0 4.55 4.85 4.45 4.8 4.5 M2.2 5.65 L2.2 5.7 2.3 5.9 Q2.35 6.05 2.45 6.05 L2.5 6.0 2.5 5.95 Q2.5 5.9 2.4 5.8 2.3 5.65 2.25 5.65 L2.2 5.65 M1.05 4.75 Q0.95 4.75 0.95 4.85 L1.05 4.9 1.1 4.85 Q1.1 4.75 1.05 4.75 M3.55 9.85 Q3.7 9.65 3.7 9.45 L3.7 9.3 Q3.7 9.2 3.4 8.3 L2.9 7.1 Q2.55 6.45 2.15 6.0 1.5 5.35 0.35 4.95 -0.4 4.9 -0.7 5.25 L-0.8 5.4 Q-0.9 5.6 -0.9 5.85 L-0.9 5.9 -0.85 5.9 Q-0.7 5.9 -0.65 5.75 -0.6 5.65 -0.6 5.5 -0.6 5.45 -0.45 5.35 -0.25 5.2 -0.05 5.2 1.65 5.2 2.65 7.35 L3.2 8.8 3.35 9.2 3.35 9.25 Q3.3 9.65 3.1 10.0 L2.85 10.2 Q2.4 10.5 2.1 10.5 L1.5 10.4 1.25 10.05 Q1.0 9.75 0.85 9.75 L0.85 9.85 0.9 9.95 0.85 9.95 0.9 10.0 1.05 10.2 1.25 10.45 1.25 10.5 Q1.5 10.7 2.3 10.7 2.8 10.7 3.3 10.2 L3.35 10.15 3.55 9.85 M3.9 5.8 L3.9 5.7 Q3.9 5.55 3.55 5.3 L3.55 5.35 Q3.55 5.45 3.65 5.65 3.75 5.85 3.8 5.85 L3.9 5.8 M4.2 5.1 L4.25 5.25 Q4.35 5.4 4.4 5.4 4.5 5.4 4.45 5.35 4.5 5.4 4.5 5.3 4.5 5.25 4.4 5.15 4.25 5.1 4.2 5.1 M4.95 5.2 Q5.0 5.2 5.0 5.15 L5.05 5.05 Q5.05 4.95 4.85 4.8 4.65 4.6 4.65 4.8 L4.75 5.0 Q4.85 5.2 4.95 5.2 M5.7 4.2 L5.75 4.15 Q5.75 4.1 5.5 3.95 5.3 3.85 5.3 3.9 L5.45 4.05 5.65 4.2 5.7 4.2 M5.4 4.4 L5.25 4.25 Q5.1 4.1 5.05 4.15 5.05 4.3 5.35 4.45 L5.4 4.4 M5.3 7.5 L5.3 7.6 5.45 7.85 Q5.6 8.1 5.7 8.1 5.75 8.1 5.75 8.05 L5.75 7.95 Q5.75 7.9 5.6 7.7 5.45 7.5 5.3 7.5 M4.55 8.65 L4.6 8.6 4.45 8.15 4.35 8.15 4.35 8.45 Q4.35 8.7 4.5 8.7 4.55 8.7 4.55 8.65 M3.8 8.45 Q3.7 8.5 3.7 8.55 L3.75 8.7 Q3.85 8.85 3.9 8.85 L3.95 8.85 3.95 8.75 3.8 8.45 M8.55 7.4 L8.6 7.45 8.6 7.55 8.6 7.6 8.55 7.9 8.5 7.9 8.4 8.2 8.4 8.1 8.45 7.9 8.45 7.7 8.5 7.3 8.55 7.3 8.55 7.4 M3.45 13.5 Q3.35 13.3 3.25 12.9 L3.2 12.5 3.0 12.25 2.8 11.8 Q2.45 11.3 1.55 11.1 L1.5 11.15 1.5 11.35 Q2.0 11.45 2.5 11.95 2.9 12.4 2.95 12.8 L3.0 12.8 3.05 12.9 Q3.1 13.05 3.2 13.45 L3.25 13.6 3.25 13.65 3.3 13.85 3.35 13.95 3.35 14.0 3.4 14.0 3.4 14.05 3.45 14.1 3.45 14.05 3.65 14.2 3.7 14.2 4.15 14.45 Q4.45 14.65 4.7 14.75 L4.85 14.8 4.95 14.85 5.3 14.95 5.35 14.95 Q5.6 14.95 6.35 14.5 7.05 14.05 7.2 14.0 7.45 13.85 7.6 13.7 L7.65 13.7 7.8 13.6 7.85 13.55 7.9 13.4 7.9 12.7 8.1 12.35 Q8.3 11.9 8.9 11.5 L9.45 11.15 9.9 10.95 Q10.25 10.85 10.9 10.8 L10.95 10.75 11.45 10.75 11.5 10.65 11.5 10.6 Q11.45 10.35 10.8 10.45 10.15 10.35 9.45 10.75 8.8 10.9 8.25 11.4 8.0 11.65 7.85 11.9 7.5 12.5 7.45 13.05 L7.45 13.35 Q7.35 13.5 6.35 14.0 L5.2 14.55 4.85 14.5 4.5 14.35 4.0 14.0 Q3.85 13.9 3.7 13.8 L3.5 13.65 3.5 13.55 3.45 13.5 M6.4 7.5 L6.4 7.5" fill="#111111" fill-rule="evenodd" stroke="none"/>
    <path d="M5.85 4.4 L5.9 4.3 Q5.95 4.2 6.05 4.2 L6.15 4.35 6.3 4.65 6.8 5.15 7.35 5.5 7.4 5.5 Q7.35 5.6 7.3 5.6 6.6 5.35 6.35 5.15 5.9 4.7 5.85 4.45 L5.85 4.4 M3.55 9.85 L3.35 9.75 Q3.5 9.4 3.5 9.2 3.5 8.9 3.0 7.85 2.55 7.0 2.35 6.75 L2.0 6.1 Q1.75 5.7 1.45 5.5 0.4 5.0 -0.35 5.2 -0.65 5.25 -0.8 5.4 L-0.7 5.25 Q-0.4 4.9 0.35 4.95 1.5 5.35 2.15 6.0 2.55 6.45 2.9 7.1 L3.4 8.3 Q3.7 9.2 3.7 9.3 L3.7 9.45 Q3.7 9.65 3.55 9.85 M-0.9 5.85 L-0.9 5.9 -0.9 5.85 M3.25 13.6 Q3.35 13.5 3.4 13.5 L3.45 13.5 3.5 13.55 3.5 13.65 3.7 13.8 Q3.85 13.9 4.0 14.0 L4.5 14.35 4.85 14.5 5.2 14.55 6.35 14.0 Q7.35 13.5 7.45 13.35 L7.45 13.05 Q7.5 12.5 7.85 11.9 8.0 11.65 8.25 11.4 8.8 10.9 9.45 10.75 10.15 10.35 10.8 10.45 11.45 10.35 11.5 10.6 L11.45 10.55 10.75 10.7 Q9.4 11.0 9.1 11.15 8.5 11.45 8.2 11.85 8.0 12.1 7.8 12.55 7.7 12.8 7.75 13.25 7.7 13.6 7.0 13.95 L5.55 14.5 4.85 14.8 4.7 14.75 Q4.45 14.65 4.15 14.45 L3.7 14.2 3.65 14.2 3.45 14.05 3.45 14.1 3.4 14.05 3.4 14.0 3.35 14.0 3.35 13.95 3.3 13.85 3.25 13.65 3.25 13.6" fill="#e2df65" fill-rule="evenodd" stroke="none"/>
    <path d="M5.8 4.2 L5.75 4.1 5.85 4.1 5.85 4.15 5.8 4.2 M5.85 4.4 L5.85 4.45 5.85 4.4 M6.75 5.75 L6.8 5.75 Q7.1 6.2 7.35 6.35 L7.35 6.5 7.45 6.6 7.55 6.75 7.35 6.95 7.3 6.9 7.25 6.7 Q7.15 6.6 7.05 6.65 7.0 6.65 7.0 6.7 L7.05 6.8 7.1 6.95 7.1 7.1 6.8 7.25 6.8 7.15 Q6.75 6.95 6.65 6.95 6.6 6.95 6.55 6.95 L6.55 7.25 6.6 7.3 6.5 7.4 6.45 7.4 6.35 7.45 6.35 7.4 6.3 7.3 6.25 7.25 6.2 7.2 Q6.0 7.0 6.0 7.3 L6.1 7.55 6.1 7.6 5.75 7.8 5.55 7.55 Q5.25 7.3 5.25 7.6 5.25 7.65 5.4 7.9 L5.45 7.95 Q5.3 8.0 5.2 8.05 L5.15 7.95 5.05 7.85 Q4.85 7.55 4.85 7.85 L4.9 8.15 4.9 8.2 4.8 8.2 4.75 8.25 4.55 8.35 4.5 8.25 Q4.35 8.0 4.2 8.0 L4.2 8.1 4.25 8.5 4.0 8.6 3.85 8.4 Q3.6 8.15 3.6 8.45 L3.7 8.7 3.5 8.15 3.0 6.95 Q2.85 6.6 2.6 6.2 L2.5 6.15 2.55 6.1 2.6 6.0 2.55 5.85 2.8 5.85 Q2.95 6.15 3.0 6.15 3.15 6.15 3.2 6.0 L3.2 5.9 3.15 5.75 3.2 5.75 3.55 5.65 Q3.7 6.0 3.8 6.0 3.95 6.0 3.95 5.8 3.95 5.65 3.85 5.55 L4.2 5.3 Q4.35 5.55 4.4 5.55 4.45 5.55 4.5 5.45 L4.55 5.35 Q4.55 5.25 4.45 5.15 L4.75 5.0 4.95 5.3 Q5.1 5.3 5.1 5.1 5.1 5.0 5.05 4.9 L5.15 4.85 5.15 4.8 5.1 4.85 5.3 4.75 Q5.25 4.7 5.05 4.55 L5.1 4.5 5.15 4.4 5.25 4.5 5.4 4.6 5.45 4.55 5.5 4.45 Q5.5 4.35 5.35 4.25 L5.5 4.15 5.55 4.25 5.7 4.35 5.75 4.3 5.75 4.45 Q5.75 4.85 6.35 5.4 L6.75 5.75 M5.75 7.85 L6.15 7.65 5.75 7.85 M8.1 5.9 L8.1 6.0 8.05 6.0 8.1 5.9 M3.3 6.3 L3.3 6.3 M4.05 9.35 L4.05 9.3 4.15 9.3 4.1 9.35 4.05 9.35 M6.4 7.5 L6.4 7.5" fill="#1c9558" fill-rule="evenodd" stroke="none"/>
    <path d="M7.8 6.5 L7.85 6.5 7.9 6.35 Q8.0 6.4 8.05 6.4 8.1 6.4 8.15 6.35 L8.15 6.3 8.2 6.25 8.1 6.1 Q8.15 6.1 8.2 6.0 L8.2 5.9 8.15 5.8 8.25 5.75 Q8.3 5.75 8.35 5.7 L8.45 5.85 8.45 6.5 Q8.35 6.8 8.15 6.8 8.05 6.8 7.8 6.5 M9.5 8.1 L9.75 8.45 9.85 8.6 9.85 8.75 Q9.85 8.85 9.8 9.15 9.8 9.3 9.65 9.65 9.5 9.85 9.4 9.95 L9.4 10.0 9.45 9.95 9.5 9.95 Q9.1 10.45 8.3 10.95 8.95 10.1 9.25 9.5 9.4 9.1 9.45 8.65 L9.5 8.2 9.5 8.1 M9.15 10.75 L8.85 10.85 Q8.3 11.1 8.05 11.35 L8.15 11.25 Q8.55 10.85 9.15 10.75 M7.7 11.8 L7.7 11.9 7.45 12.4 7.35 12.75 7.05 13.35 6.85 13.5 6.35 13.85 6.05 14.0 5.9 14.05 6.45 13.4 7.4 12.25 7.7 11.75 7.7 11.8 M3.8 13.6 Q3.7 13.4 3.65 13.25 L3.65 13.2 3.6 13.05 Q3.55 12.75 3.35 12.4 L3.2 12.05 3.05 11.9 2.8 11.6 Q2.4 11.3 1.95 11.1 L2.0 11.0 Q2.05 11.0 2.05 10.95 2.35 11.0 2.6 11.2 L2.55 11.1 2.75 11.2 2.85 11.3 Q3.15 11.45 3.5 11.55 L3.7 11.65 4.5 11.8 5.65 11.9 5.75 11.9 5.85 11.85 Q6.05 11.75 6.8 11.1 L6.9 11.0 6.95 10.9 6.95 10.95 7.0 11.0 Q7.0 11.2 6.8 11.5 L6.75 11.6 Q6.7 11.75 6.5 12.05 L6.45 12.15 6.15 12.6 6.05 12.7 6.05 12.75 6.0 12.8 5.6 13.3 5.65 13.1 5.8 12.8 5.15 12.75 4.1 13.4 3.8 13.6 M6.5 12.2 L6.55 12.15 6.6 12.05 6.5 12.2 M8.35 8.5 L8.35 8.45 7.95 9.3 7.75 9.7 7.5 10.05 7.4 10.2 7.35 10.3 7.25 10.4 7.25 10.45 6.95 10.75 6.45 11.2 6.25 11.35 6.3 11.35 5.8 11.65 Q5.4 11.75 5.0 11.75 4.2 11.75 3.7 11.6 L3.9 11.65 3.1 11.2 2.85 11.15 Q2.75 11.1 2.5 10.9 L2.45 10.9 2.85 10.75 2.9 10.7 3.3 10.4 Q3.65 10.1 3.75 9.9 4.25 9.9 4.85 9.7 L5.05 9.65 5.6 9.45 Q5.8 9.4 5.9 9.4 L5.95 9.35 Q6.55 9.15 6.8 8.95 7.2 8.75 7.7 8.25 L7.85 8.15 8.05 7.9 8.1 7.85 8.15 7.75 Q8.4 7.45 8.55 7.15 L8.55 7.4 8.55 7.3 8.5 7.3 8.45 7.7 8.45 7.9 8.4 8.1 8.4 8.2 8.5 7.9 8.55 7.9 8.6 7.6 8.6 7.55 8.6 7.6 Q8.6 7.85 8.35 8.5" fill="#33594e" fill-rule="evenodd" stroke="none"/>
    <path d="M6.75 5.75 L6.8 5.75 6.9 5.8 7.05 5.9 Q7.35 6.05 7.6 6.1 L7.75 6.2 7.8 6.25 7.7 6.45 7.6 6.4 7.6 6.35 7.5 6.3 7.4 6.3 7.35 6.35 Q7.1 6.2 6.8 5.75 L6.75 5.75" fill="#13643c" fill-rule="evenodd" stroke="none"/>
    <path d="M1.8 10.35 L1.95 10.35 1.8 10.35 M6.35 5.15 Q6.6 5.35 7.3 5.6 7.35 5.6 7.4 5.5 L8.0 5.85 8.0 5.9 Q7.95 6.0 7.7 6.0 7.15 6.0 6.45 5.3 L6.35 5.15 M-0.8 5.4 Q-0.65 5.25 -0.35 5.2 0.4 5.0 1.45 5.5 1.75 5.7 2.0 6.1 L2.35 6.75 Q2.55 7.0 3.0 7.85 3.5 8.9 3.5 9.2 3.5 9.4 3.35 9.75 L3.55 9.85 3.35 10.15 3.3 10.2 Q2.8 10.7 2.3 10.7 1.5 10.7 1.25 10.5 L1.25 10.45 1.05 10.2 0.9 10.0 0.85 9.95 0.9 9.95 0.85 9.85 0.85 9.75 Q1.0 9.75 1.25 10.05 L1.5 10.4 2.1 10.5 Q2.4 10.5 2.85 10.2 L3.1 10.0 Q3.3 9.65 3.35 9.25 L3.35 9.2 3.2 8.8 2.65 7.35 Q1.65 5.2 -0.05 5.2 -0.25 5.2 -0.45 5.35 -0.6 5.45 -0.6 5.5 -0.6 5.65 -0.65 5.75 -0.7 5.9 -0.85 5.9 L-0.9 5.9 -0.9 5.85 Q-0.9 5.6 -0.8 5.4 M3.25 13.6 L3.2 13.45 Q3.1 13.05 3.05 12.9 L3.0 12.8 2.95 12.8 Q2.9 12.4 2.5 11.95 2.0 11.45 1.5 11.35 L1.5 11.15 1.55 11.1 Q2.45 11.3 2.8 11.8 L3.0 12.25 3.2 12.5 3.25 12.9 Q3.35 13.3 3.45 13.5 L3.4 13.5 Q3.35 13.5 3.25 13.6 M11.5 10.6 L11.5 10.65 11.45 10.75 10.95 10.75 10.9 10.8 Q10.25 10.85 9.9 10.95 L9.45 11.15 8.9 11.5 Q8.3 11.9 8.1 12.35 L7.9 12.7 7.9 13.4 7.85 13.55 7.8 13.6 7.65 13.7 7.6 13.7 Q7.45 13.85 7.2 14.0 7.05 14.05 6.35 14.5 5.6 14.95 5.35 14.95 L5.3 14.95 4.95 14.85 4.85 14.8 5.55 14.5 7.0 13.95 Q7.7 13.6 7.75 13.25 7.7 12.8 7.8 12.55 8.0 12.1 8.2 11.85 8.5 11.45 9.1 11.15 9.4 11.0 10.75 10.7 L11.45 10.55 11.5 10.6" fill="#b4be2e" fill-rule="evenodd" stroke="none"/>
    <path d="M7.05 5.2 Q7.1 5.15 7.2 5.1 L7.9 4.8 7.6 5.1 Q7.5 5.25 7.45 5.35 8.25 5.15 9.5 4.55 L11.0 3.7 12.4 2.65 12.65 2.7 12.6 2.7 Q12.4 2.85 11.85 3.4 11.25 4.0 10.95 4.25 10.65 4.45 9.55 4.95 9.05 5.15 8.75 5.35 8.5 5.4 8.3 5.5 8.0 5.6 7.9 5.7 L7.8 5.7 Q7.75 5.65 7.6 5.6 L7.5 5.55 7.25 5.4 7.05 5.2 M4.1 3.3 Q4.5 2.9 4.8 2.7 L4.5 3.25 4.15 3.3 4.1 3.3" fill="#9aa87b" fill-rule="evenodd" stroke="none"/>
  </g>
</svg>
