<?xml version="1.0" encoding="UTF-8" standalone="no"?>
<svg xmlns:ffdec="https://www.free-decompiler.com/flash" xmlns:xlink="http://www.w3.org/1999/xlink" ffdec:objectType="shape" height="17.25px" width="14.65px" xmlns="http://www.w3.org/2000/svg">
  <g transform="matrix(1.0, 0.0, 0.0, 1.0, 12.5, 16.3)">
    <path d="M-8.05 -6.0 L-8.35 -4.8 -8.7 -3.85 -9.1 -2.65 Q-9.4 -1.8 -9.35 -1.7 -9.35 -1.55 -9.75 -1.35 -10.3 -1.1 -11.15 -1.1 -11.3 -1.1 -11.4 -1.2 -11.3 -1.7 -11.2 -2.9 -11.1 -4.2 -11.1 -4.35 L-11.0 -5.35 Q-10.85 -6.35 -10.85 -6.6 -10.8 -6.6 -10.8 -6.55 L-10.55 -6.75 Q-10.4 -6.9 -10.2 -6.85 -8.9 -7.0 -8.35 -6.55 -8.1 -6.35 -8.05 -6.0 M-8.4 -6.15 L-8.6 -6.35 Q-8.85 -6.6 -9.5 -6.6 L-10.2 -6.5 -10.9 -4.4 Q-11.15 -3.05 -11.2 -1.45 L-11.15 -1.3 Q-11.2 -1.25 -11.1 -1.25 -9.8 -1.25 -9.5 -1.9 -9.45 -2.05 -9.3 -2.65 L-8.4 -6.15" fill="#111111" fill-rule="evenodd" stroke="none"/>
    <path d="M-8.4 -6.15 L-9.3 -2.65 Q-9.45 -2.05 -9.5 -1.9 -9.8 -1.25 -11.1 -1.25 -11.2 -1.25 -11.15 -1.3 L-11.2 -1.45 Q-11.15 -3.05 -10.9 -4.4 L-10.2 -6.5 -9.5 -6.6 Q-8.85 -6.6 -8.6 -6.35 L-8.4 -6.15" fill="#792c1e" fill-rule="evenodd" stroke="none"/>
    <path d="M1.8 -7.6 L1.8 -7.8 Q1.8 -8.35 1.75 -8.6 L1.7 -8.65 Q1.5 -9.3 0.85 -9.3 L0.45 -9.1 Q-0.15 -8.8 -0.8 -8.6 -1.35 -8.35 -2.05 -8.15 -2.65 -7.9 -3.2 -7.8 L-5.45 -7.65 -5.55 -7.65 -5.9 -7.7 -6.75 -7.75 -7.25 -7.8 -7.45 -7.55 -6.9 -7.25 -6.15 -6.85 Q-5.65 -6.6 -5.4 -6.5 L-5.5 -6.45 Q-5.55 -6.4 -5.65 -6.4 -5.7 -6.35 -5.8 -6.3 -5.9 -6.25 -6.0 -6.2 L-6.15 -6.05 -6.25 -6.0 -6.3 -5.95 Q-6.7 -5.6 -6.85 -5.4 L-7.0 -5.3 -7.2 -5.0 Q-7.5 -4.7 -7.55 -4.45 -7.7 -4.15 -7.75 -3.9 L-7.7 -3.95 -7.7 -3.9 Q-6.45 -4.7 -4.65 -5.35 -5.4 -4.3 -5.6 -3.4 -5.8 -2.9 -5.85 -2.45 L-5.85 -2.35 -5.85 -2.2 -5.65 -2.35 Q-4.9 -2.85 -4.35 -3.5 L-3.15 -4.5 -3.1 -4.55 Q-3.1 -4.6 -3.1 -4.45 -3.1 -4.35 -3.25 -3.7 -3.4 -3.0 -3.4 -2.65 -3.4 -2.2 -3.25 -1.8 -3.2 -1.55 -3.15 -1.35 L-3.0 -1.45 -1.4 -3.95 -1.25 -3.6 -1.05 -2.95 Q-0.5 -1.25 -0.15 -1.25 L-0.1 -1.2 -0.05 -1.25 Q0.05 -1.3 0.1 -1.4 L0.15 -1.55 Q1.05 -2.9 1.45 -4.5 1.8 -5.8 1.8 -7.6 M0.6 -9.55 Q0.9 -9.65 1.1 -9.65 1.85 -9.65 2.15 -8.2 2.15 -7.75 1.95 -6.1 L1.7 -4.45 Q1.6 -3.95 0.9 -2.45 0.2 -0.85 0.0 -0.85 -0.5 -0.85 -0.95 -1.8 -1.35 -2.6 -1.45 -3.4 L-2.15 -2.3 -2.55 -1.8 -3.2 -0.95 Q-3.25 -0.95 -3.45 -1.65 -3.65 -2.3 -3.65 -2.55 L-3.55 -3.85 Q-3.85 -3.5 -4.25 -3.15 L-4.5 -2.95 Q-4.55 -2.85 -4.65 -2.8 -5.3 -2.15 -5.85 -1.85 L-5.95 -1.75 -6.05 -1.8 -6.05 -1.9 Q-6.05 -2.8 -5.9 -3.4 -5.75 -4.2 -5.35 -4.8 -5.6 -4.7 -5.95 -4.5 -7.45 -3.75 -7.95 -3.25 L-8.1 -3.4 Q-8.1 -3.85 -7.75 -4.55 L-7.65 -4.75 -7.85 -4.65 -7.95 -4.65 -8.35 -4.45 -8.45 -4.1 -8.8 -3.85 Q-8.7 -3.25 -8.45 -0.55 -8.45 -0.2 -8.6 0.25 -8.85 0.95 -9.4 0.95 -10.8 0.95 -10.85 -1.35 L-10.8 -3.1 Q-10.8 -3.75 -10.95 -4.0 -11.2 -3.9 -11.3 -3.9 L-11.35 -3.9 -11.9 -3.95 Q-12.3 -4.5 -12.45 -5.2 -12.55 -5.5 -12.5 -5.9 L-12.5 -5.95 -12.45 -6.0 -12.35 -6.05 -12.3 -6.05 -11.9 -6.25 -11.25 -6.4 -10.35 -6.8 -7.1 -8.05 -6.45 -8.05 -5.7 -7.95 -5.1 -7.9 -3.5 -8.0 -2.8 -8.15 -2.75 -8.15 Q-2.1 -8.35 -1.5 -8.6 L-1.45 -8.6 Q-0.7 -8.8 0.55 -9.5 L0.6 -9.5 0.6 -9.55 M-8.9 -6.45 L-9.55 -6.75 -11.45 -6.2 -12.1 -5.95 -12.1 -5.9 -12.15 -5.65 -12.15 -5.6 -12.2 -5.45 -12.15 -5.2 -12.1 -5.0 Q-12.1 -4.8 -11.95 -4.6 L-11.7 -4.3 -11.7 -4.4 -11.85 -5.1 -11.95 -5.5 -11.8 -5.55 -11.75 -5.25 -11.6 -4.85 -11.6 -4.75 -11.55 -4.65 -11.5 -4.5 Q-11.35 -4.2 -11.3 -4.2 L-11.0 -4.25 -10.75 -4.3 -10.9 -4.8 -10.9 -5.05 -11.05 -5.7 -11.0 -5.7 -10.9 -5.75 -10.8 -5.15 -10.7 -4.85 -10.6 -4.65 -10.55 -4.45 Q-10.5 -4.35 -10.35 -4.3 L-10.15 -4.3 -10.0 -4.35 Q-9.9 -4.45 -9.75 -4.45 -9.65 -4.6 -9.65 -4.8 L-9.65 -4.85 -10.0 -4.5 -10.05 -4.55 -10.05 -4.65 -10.0 -4.8 -9.95 -4.9 -9.95 -4.95 Q-9.6 -5.3 -9.4 -5.3 L-9.35 -5.3 Q-9.3 -5.35 -9.3 -5.25 -9.3 -5.2 -9.4 -5.1 L-9.35 -4.6 Q-9.35 -4.3 -9.55 -4.2 L-9.65 -4.1 Q-9.65 -4.0 -9.55 -3.95 L-9.45 -3.85 -9.2 -3.85 Q-9.0 -4.0 -8.8 -4.3 L-8.7 -4.4 -8.6 -4.6 -8.6 -4.75 -8.5 -5.1 Q-8.5 -5.4 -8.6 -5.7 L-8.6 -5.8 -8.75 -6.3 -8.9 -6.45 M-7.45 -7.15 L-7.55 -6.55 -7.5 -6.35 -7.5 -6.3 Q-7.3 -6.3 -7.2 -6.15 L-7.2 -6.0 Q-7.2 -5.9 -7.35 -5.55 L-7.4 -5.45 -7.6 -5.0 -7.45 -5.05 -7.3 -5.25 Q-6.65 -6.15 -6.05 -6.45 -6.4 -6.6 -7.0 -7.0 L-7.3 -7.15 -7.45 -7.15 M-7.7 -6.35 L-8.4 -7.05 -9.2 -6.85 -8.8 -6.55 -8.75 -6.5 -8.6 -6.3 -8.55 -6.25 -8.4 -6.0 Q-8.3 -6.3 -7.8 -6.35 L-7.7 -6.35 M-8.35 -5.5 L-8.35 -5.4 -8.25 -5.4 Q-7.8 -5.4 -7.55 -5.6 L-7.5 -5.6 -7.35 -5.9 -7.35 -5.95 Q-7.35 -6.05 -7.45 -6.15 L-7.75 -6.2 Q-8.15 -6.2 -8.3 -5.85 L-8.3 -5.6 -8.35 -5.5 M-7.85 -5.25 L-8.3 -5.25 -8.35 -5.0 -8.45 -4.75 -8.4 -4.8 -8.4 -4.75 -8.15 -4.85 -7.75 -4.95 -7.75 -5.05 -7.65 -5.3 -7.85 -5.25 M-10.45 -4.1 L-10.5 -4.05 -10.65 -4.05 -10.6 -3.95 -10.75 -2.35 Q-10.75 -1.5 -10.6 -0.7 -10.35 0.8 -9.55 0.8 -8.95 0.8 -8.7 0.15 -8.6 -0.2 -8.6 -0.6 -8.6 -1.5 -8.7 -1.9 L-8.95 -3.65 -9.2 -3.5 Q-9.15 -3.2 -9.15 -2.95 L-9.05 -1.6 Q-9.05 -0.75 -9.05 -0.5 -9.1 0.45 -9.4 0.5 L-9.1 0.6 -9.4 0.65 Q-10.0 0.65 -10.25 -0.7 -10.4 -1.4 -10.4 -2.1 L-10.4 -3.0 Q-10.35 -3.3 -10.4 -3.9 L-10.3 -4.1 -10.45 -4.1 M-10.15 -4.05 Q-10.15 -3.85 -10.25 -3.5 L-10.35 -2.95 Q-10.35 -1.75 -10.25 -1.2 -10.1 -0.3 -9.75 0.15 L-9.7 0.15 -9.55 0.2 Q-9.1 0.2 -9.1 -0.35 -9.1 -0.8 -9.45 -3.6 L-9.6 -3.75 -9.95 -4.0 -10.15 -4.05" fill="#111111" fill-rule="evenodd" stroke="none"/>
    <path d="M-5.45 -7.65 L-3.2 -7.8 Q-2.65 -7.9 -2.05 -8.15 -1.35 -8.35 -0.8 -8.6 -0.15 -8.8 0.45 -9.1 L0.85 -9.3 Q1.5 -9.3 1.7 -8.65 L1.75 -8.6 Q1.8 -8.35 1.8 -7.8 L1.8 -7.6 1.15 -7.3 Q-1.0 -6.35 -2.65 -5.4 -5.1 -3.3 -5.85 -2.35 L-5.85 -2.45 Q-5.8 -2.9 -5.6 -3.4 -5.4 -4.3 -4.65 -5.35 -6.45 -4.7 -7.7 -3.9 L-7.7 -3.95 -7.75 -3.9 Q-7.7 -4.15 -7.55 -4.45 -7.5 -4.7 -7.2 -5.0 L-7.0 -5.3 -6.85 -5.4 Q-6.7 -5.6 -6.3 -5.95 L-6.25 -6.0 -6.15 -6.05 -6.0 -6.2 Q-5.9 -6.25 -5.8 -6.3 -5.7 -6.35 -5.65 -6.4 -5.55 -6.4 -5.5 -6.45 L-5.4 -6.5 Q-5.65 -6.6 -6.15 -6.85 -5.9 -7.0 -5.7 -7.15 -5.55 -7.35 -5.45 -7.65 M-7.45 -7.55 L-7.25 -7.8 -7.45 -7.55" fill="#ffffcc" fill-rule="evenodd" stroke="none"/>
    <path d="M1.8 -7.6 Q1.8 -5.8 1.45 -4.5 1.05 -2.9 0.15 -1.55 L0.1 -1.4 Q0.05 -1.3 -0.05 -1.25 L-0.1 -1.2 -0.15 -1.25 Q-0.5 -1.25 -1.05 -2.95 L-1.25 -3.6 -1.4 -3.95 -3.0 -1.45 -3.15 -1.35 Q-3.2 -1.55 -3.25 -1.8 -3.4 -2.2 -3.4 -2.65 -3.4 -3.0 -3.25 -3.7 -3.1 -4.35 -3.1 -4.45 -3.1 -4.6 -3.1 -4.55 L-3.15 -4.5 -4.35 -3.5 Q-4.9 -2.85 -5.65 -2.35 L-5.85 -2.2 -5.85 -2.35 Q-5.1 -3.3 -2.65 -5.4 -1.0 -6.35 1.15 -7.3 L1.8 -7.6 M-6.15 -6.85 L-6.9 -7.25 -7.45 -7.55 -7.25 -7.8 -6.75 -7.75 -5.9 -7.7 -5.55 -7.65 -5.45 -7.65 Q-5.55 -7.35 -5.7 -7.15 -5.9 -7.0 -6.15 -6.85" fill="#c8cf72" fill-rule="evenodd" stroke="none"/>
    <path d="M-12.15 -5.6 L-12.15 -5.65 -12.1 -5.9 -12.1 -5.95 -11.45 -6.2 -9.55 -6.75 -8.9 -6.45 -9.6 -6.4 Q-9.6 -6.2 -9.35 -6.05 -8.95 -5.85 -8.75 -5.65 L-8.75 -5.6 -8.7 -5.7 -9.1 -5.15 -9.3 -5.25 Q-9.3 -5.35 -9.35 -5.3 L-9.4 -5.3 -9.4 -5.5 Q-9.45 -5.9 -9.6 -6.0 L-9.8 -5.55 -10.2 -5.7 Q-10.2 -5.85 -10.35 -5.95 -10.6 -6.2 -10.8 -6.0 L-11.05 -5.75 -11.2 -5.8 -11.4 -5.85 Q-11.6 -5.85 -11.75 -5.7 L-11.95 -5.55 Q-12.05 -5.55 -12.15 -5.65 L-12.15 -5.6 M-7.55 -6.55 L-7.45 -7.15 -7.55 -6.55" fill="#684e1c" fill-rule="evenodd" stroke="none"/>
    <path d="M-12.15 -5.6 L-12.15 -5.65 Q-12.05 -5.55 -11.95 -5.55 L-11.75 -5.7 Q-11.6 -5.85 -11.4 -5.85 L-11.2 -5.8 -11.05 -5.75 -10.8 -6.0 Q-10.6 -6.2 -10.35 -5.95 -10.2 -5.85 -10.2 -5.7 L-9.8 -5.55 -9.6 -6.0 Q-9.45 -5.9 -9.4 -5.5 L-9.4 -5.3 Q-9.6 -5.3 -9.95 -4.95 L-9.95 -4.9 -10.0 -4.8 -10.05 -4.65 -10.05 -4.55 -10.0 -4.5 -9.65 -4.85 -9.65 -4.8 Q-9.65 -4.6 -9.75 -4.45 -9.9 -4.45 -10.0 -4.35 L-10.15 -4.3 -10.35 -4.3 Q-10.5 -4.35 -10.55 -4.45 L-10.6 -4.65 -10.7 -4.85 -10.8 -5.15 -10.9 -5.75 -11.0 -5.7 -11.05 -5.7 -10.9 -5.05 -10.9 -4.8 -10.75 -4.3 -11.0 -4.25 -11.3 -4.2 Q-11.35 -4.2 -11.5 -4.5 L-11.55 -4.65 -11.6 -4.75 -11.6 -4.85 -11.75 -5.25 -11.8 -5.55 -11.95 -5.5 -11.85 -5.1 -11.7 -4.4 -11.7 -4.3 -11.95 -4.6 Q-12.1 -4.8 -12.1 -5.0 L-12.15 -5.2 -12.2 -5.45 -12.15 -5.6 M-9.3 -5.25 L-9.1 -5.15 -8.7 -5.7 -8.75 -5.6 -8.75 -5.65 Q-8.95 -5.85 -9.35 -6.05 -9.6 -6.2 -9.6 -6.4 L-8.9 -6.45 -8.75 -6.3 -8.6 -5.8 -8.6 -5.7 Q-8.5 -5.4 -8.5 -5.1 L-8.6 -4.75 -8.6 -4.6 -8.7 -4.4 -8.8 -4.3 Q-9.0 -4.0 -9.2 -3.85 L-9.45 -3.85 -9.55 -3.95 Q-9.65 -4.0 -9.65 -4.1 L-9.55 -4.2 Q-9.35 -4.3 -9.35 -4.6 L-9.4 -5.1 Q-9.3 -5.2 -9.3 -5.25 M-7.55 -6.55 L-7.45 -7.15 -7.3 -7.15 -7.0 -7.0 Q-6.4 -6.6 -6.05 -6.45 -6.65 -6.15 -7.3 -5.25 L-7.45 -5.05 -7.6 -5.0 -7.4 -5.45 -7.35 -5.55 Q-7.2 -5.9 -7.2 -6.0 L-7.2 -6.15 Q-7.3 -6.3 -7.5 -6.3 L-7.5 -6.35 -7.55 -6.55 M-10.45 -4.1 L-10.3 -4.1 -10.4 -3.9 Q-10.35 -3.3 -10.4 -3.0 L-10.4 -2.1 Q-10.4 -1.4 -10.25 -0.7 -10.0 0.65 -9.4 0.65 L-9.1 0.6 -9.4 0.5 Q-9.1 0.45 -9.05 -0.5 -9.05 -0.75 -9.05 -1.6 L-9.15 -2.95 Q-9.15 -3.2 -9.2 -3.5 L-8.95 -3.65 -8.7 -1.9 Q-8.6 -1.5 -8.6 -0.6 -8.6 -0.2 -8.7 0.15 -8.95 0.8 -9.55 0.8 -10.35 0.8 -10.6 -0.7 -10.75 -1.5 -10.75 -2.35 L-10.6 -3.95 -10.65 -4.05 -10.5 -4.05 -10.45 -4.1 M-7.85 -5.25 L-7.65 -5.3 -7.75 -5.05 -7.75 -4.95 -8.15 -4.85 -8.4 -4.75 -8.4 -4.8 -8.45 -4.75 -8.35 -5.0 -8.3 -5.25 -7.85 -5.25 M-8.35 -5.5 L-8.3 -5.6 -8.3 -5.85 Q-8.15 -6.2 -7.75 -6.2 L-7.45 -6.15 Q-7.35 -6.05 -7.35 -5.95 L-7.35 -5.9 -7.5 -5.6 -7.55 -5.6 Q-7.8 -5.4 -8.25 -5.4 L-8.35 -5.4 -8.35 -5.5 M-7.7 -6.35 L-7.8 -6.35 Q-8.3 -6.3 -8.4 -6.0 L-8.55 -6.25 -8.6 -6.3 -8.75 -6.5 -8.8 -6.55 -9.2 -6.85 -8.4 -7.05 -7.7 -6.35" fill="#4e2714" fill-rule="evenodd" stroke="none"/>
    <path d="M-6.25 -12.75 L-6.2 -12.75 -6.25 -12.85 -6.45 -13.65 -6.7 -14.55 Q-6.8 -15.2 -7.4 -15.6 -7.6 -15.75 -7.9 -15.85 L-8.0 -15.85 Q-8.5 -16.1 -8.85 -16.0 L-9.6 -16.0 Q-9.95 -15.85 -10.1 -15.6 L-10.1 -15.55 Q-10.2 -15.4 -10.2 -15.1 -10.2 -15.0 -10.0 -14.9 L-9.65 -14.75 -9.4 -14.6 -9.25 -14.5 Q-9.15 -14.4 -9.15 -14.3 L-9.15 -14.25 -9.25 -14.2 Q-9.35 -14.15 -9.4 -14.15 L-9.45 -14.15 Q-9.4 -14.0 -9.4 -13.85 L-9.35 -13.75 -9.4 -13.6 Q-9.4 -13.35 -9.55 -13.1 L-9.4 -13.0 -9.25 -12.95 Q-8.85 -12.95 -8.7 -12.4 L-8.7 -12.25 -8.65 -11.8 Q-8.65 -11.6 -8.75 -11.15 -8.9 -10.5 -9.25 -9.3 L-9.8 -7.35 -9.7 -7.3 -9.65 -7.3 -9.65 -7.35 -9.7 -7.4 Q-9.65 -7.3 -9.5 -7.3 -9.25 -7.3 -9.0 -7.45 -8.9 -7.45 -8.75 -7.6 L-8.75 -7.55 -8.8 -7.55 Q-8.85 -7.5 -8.95 -7.45 L-9.0 -7.4 -8.85 -7.25 -8.8 -7.25 -8.85 -7.35 -8.8 -7.35 Q-8.5 -7.35 -8.05 -7.8 L-7.8 -8.1 -7.8 -8.0 Q-8.05 -7.75 -8.05 -7.65 L-8.05 -7.6 -7.95 -7.6 Q-7.65 -7.6 -7.35 -7.95 -7.4 -7.8 -7.55 -7.65 L-7.35 -7.8 -7.0 -8.15 -7.0 -8.25 Q-6.95 -8.4 -6.5 -9.15 -6.2 -9.75 -6.05 -10.3 L-6.0 -10.6 -6.0 -10.85 -6.1 -11.65 -6.1 -11.9 -6.15 -12.0 -6.15 -12.05 -6.25 -12.75 M-9.5 -15.4 L-9.5 -15.45 -8.6 -15.4 Q-8.55 -15.3 -8.55 -15.15 L-8.55 -15.0 -8.65 -14.8 Q-8.85 -14.6 -9.1 -14.6 L-9.3 -14.65 Q-9.45 -14.7 -9.55 -14.85 -9.6 -14.95 -9.6 -15.05 -9.6 -15.3 -9.5 -15.4 M-10.2 -15.45 L-10.1 -15.75 -9.95 -15.9 Q-11.05 -15.7 -11.25 -14.85 L-11.25 -14.8 -11.05 -14.8 -10.4 -14.75 Q-9.85 -14.65 -9.6 -14.35 L-9.25 -14.35 -9.25 -14.4 Q-9.3 -14.55 -9.75 -14.65 -10.2 -14.75 -10.25 -15.05 L-10.25 -15.1 -10.2 -15.45 M-11.2 -14.6 L-11.4 -14.6 Q-11.55 -14.6 -11.5 -14.75 -11.5 -14.95 -11.25 -15.25 -10.9 -15.65 -10.45 -15.9 -9.2 -16.55 -7.75 -16.1 L-7.55 -16.05 -7.5 -16.05 -7.45 -16.0 -6.95 -15.7 Q-6.75 -15.6 -6.7 -15.4 L-6.4 -14.85 -6.35 -14.65 Q-6.3 -14.2 -6.25 -14.05 -6.1 -13.75 -6.0 -13.3 -5.7 -13.1 -5.5 -12.65 -5.3 -12.2 -5.3 -11.75 -5.3 -10.95 -5.8 -9.7 -6.15 -8.85 -6.5 -8.35 -6.65 -7.95 -7.35 -7.45 -7.3 -7.4 -7.3 -7.25 L-7.25 -7.0 Q-7.25 -6.75 -7.35 -6.6 L-7.75 -6.15 -7.8 -6.2 Q-7.9 -6.25 -7.9 -6.3 L-7.9 -6.35 Q-8.05 -6.1 -8.3 -6.1 L-8.35 -6.1 Q-8.35 -6.3 -8.45 -6.6 L-8.6 -6.85 -8.7 -6.8 Q-8.7 -6.65 -8.8 -6.35 -8.9 -6.0 -9.1 -6.0 -9.15 -6.0 -9.3 -6.15 L-9.35 -6.2 Q-9.5 -5.95 -9.85 -5.95 -10.0 -5.95 -10.1 -6.2 L-10.2 -6.55 -10.45 -6.5 -10.8 -6.45 -10.85 -6.45 -10.85 -6.4 -10.95 -6.4 Q-11.05 -6.4 -11.05 -6.55 L-11.0 -7.5 -10.95 -7.95 -10.95 -10.15 Q-10.95 -10.55 -10.85 -11.35 L-10.8 -11.4 Q-10.8 -11.85 -10.65 -12.2 L-10.6 -12.35 -10.55 -12.35 Q-10.4 -12.6 -10.2 -12.8 L-9.75 -13.2 Q-9.55 -13.4 -9.55 -13.6 -9.55 -14.3 -10.5 -14.5 L-11.1 -14.6 -11.2 -14.6 M-9.15 -15.35 Q-9.35 -15.35 -9.35 -15.15 L-9.35 -15.05 Q-9.3 -14.95 -9.15 -14.95 L-9.0 -15.0 Q-8.9 -15.05 -8.9 -15.15 -8.9 -15.35 -9.15 -15.35 M-5.9 -10.9 L-6.05 -9.85 -6.1 -9.7 -5.9 -10.1 Q-5.85 -10.3 -5.75 -10.8 L-5.65 -11.15 Q-5.55 -11.45 -5.55 -11.7 L-5.55 -11.8 Q-5.6 -12.15 -5.7 -12.35 -5.8 -12.7 -5.95 -12.85 L-6.0 -12.85 -6.0 -12.7 Q-6.0 -12.4 -5.95 -11.8 L-5.9 -11.5 -5.9 -10.9 M-8.75 -12.25 Q-8.75 -12.4 -8.85 -12.55 -9.05 -12.85 -9.35 -12.85 L-9.45 -12.9 -9.6 -12.95 -9.6 -13.05 -10.05 -12.6 Q-10.4 -12.3 -10.55 -11.95 L-10.65 -11.3 Q-10.75 -10.4 -10.75 -9.95 -10.75 -9.15 -10.8 -8.35 L-10.8 -6.95 -10.85 -6.6 Q-10.55 -6.6 -10.45 -6.7 L-10.4 -6.7 Q-10.25 -6.7 -10.1 -6.95 L-10.1 -6.9 -10.15 -6.85 -10.1 -6.8 Q-10.1 -6.7 -10.0 -6.7 L-9.9 -6.55 -9.9 -6.5 Q-9.9 -6.25 -9.85 -6.15 -9.75 -6.15 -9.7 -6.2 -9.55 -6.2 -9.45 -6.4 -9.45 -6.5 -9.45 -6.65 L-9.45 -6.85 -9.5 -7.0 -9.55 -7.1 Q-9.65 -7.15 -9.75 -7.2 L-10.0 -7.15 -9.95 -7.2 -9.9 -7.35 -9.85 -7.35 -9.3 -9.45 Q-8.7 -11.65 -8.7 -12.05 L-8.75 -12.25 M-9.1 -7.25 L-9.2 -7.25 -9.35 -7.2 -9.4 -7.2 -9.4 -7.05 -9.3 -6.75 -9.35 -6.75 -9.35 -6.65 -9.35 -6.5 -9.2 -6.4 -9.1 -6.25 Q-9.05 -6.3 -8.95 -6.55 L-8.85 -6.8 -8.9 -6.8 -8.85 -6.85 Q-8.85 -6.95 -8.95 -7.05 L-8.95 -7.1 -9.1 -7.25 M-8.5 -7.15 Q-8.5 -7.05 -8.4 -6.75 L-8.25 -6.5 -8.25 -6.3 -8.2 -6.3 -8.2 -6.25 -8.15 -6.25 Q-8.05 -6.25 -7.95 -6.55 -7.85 -6.75 -7.85 -6.9 -7.85 -7.2 -8.15 -7.4 L-8.2 -7.4 Q-8.35 -7.3 -8.5 -7.25 L-8.55 -7.2 -8.5 -7.2 -8.5 -7.15 M-7.85 -7.4 L-7.75 -7.1 -7.7 -6.95 -7.7 -6.85 -7.75 -6.85 -7.8 -6.75 -7.75 -6.75 -7.75 -6.65 -7.8 -6.5 -7.8 -6.4 -7.75 -6.4 -7.45 -6.7 Q-7.4 -6.8 -7.4 -6.9 L-7.4 -6.95 Q-7.4 -7.05 -7.5 -7.25 L-7.65 -7.5 -7.7 -7.5 Q-7.8 -7.45 -7.85 -7.45 L-7.85 -7.4" fill="#111111" fill-rule="evenodd" stroke="none"/>
    <path d="M-10.05 -15.05 L-10.05 -15.2 Q-10.05 -15.3 -9.85 -15.45 L-9.5 -15.4 Q-9.6 -15.3 -9.6 -15.05 L-10.05 -15.05 M-8.75 -14.0 L-8.7 -13.95 -9.05 -13.7 -9.2 -13.6 -9.2 -13.65 -9.4 -14.0 -9.4 -13.85 Q-9.4 -14.0 -9.45 -14.15 L-9.4 -14.15 Q-9.35 -14.15 -9.25 -14.2 L-9.15 -14.25 -9.05 -14.15 -8.75 -14.0 M-6.05 -10.3 Q-6.2 -9.75 -6.5 -9.15 -6.95 -8.4 -7.0 -8.25 L-7.0 -8.15 -7.35 -7.8 -7.55 -7.65 Q-7.4 -7.8 -7.35 -7.95 -7.65 -7.6 -7.95 -7.6 L-8.05 -7.6 -8.05 -7.65 Q-8.05 -7.75 -7.8 -8.0 L-7.8 -8.1 -8.05 -7.8 Q-8.5 -7.35 -8.8 -7.35 L-8.85 -7.35 -8.8 -7.25 -8.85 -7.25 -9.0 -7.4 -8.95 -7.45 Q-8.85 -7.5 -8.8 -7.55 L-8.75 -7.55 -8.75 -7.6 Q-8.9 -7.45 -9.0 -7.45 -9.25 -7.3 -9.5 -7.3 -9.65 -7.3 -9.7 -7.4 L-9.65 -7.35 -9.65 -7.3 -9.7 -7.3 -9.8 -7.35 -9.25 -9.3 Q-8.9 -10.5 -8.75 -11.15 -8.75 -10.7 -8.85 -10.3 L-9.05 -8.85 -8.85 -8.75 -8.45 -9.15 -8.35 -8.95 -8.45 -8.65 -8.15 -8.7 -8.1 -8.75 Q-7.55 -9.35 -7.55 -8.95 L-7.6 -8.85 Q-7.0 -9.05 -6.55 -9.6 -6.3 -9.9 -6.1 -10.3 L-6.05 -10.3 M-7.85 -10.85 L-7.8 -10.75 -7.8 -10.7 -7.9 -10.6 -8.0 -10.65 -8.0 -10.75 Q-8.0 -10.8 -7.9 -10.9 L-7.85 -10.85 M-7.0 -11.6 L-6.85 -11.5 -6.9 -11.45 -7.05 -11.45 -7.05 -11.5 Q-7.05 -11.6 -7.0 -11.6 M-6.4 -10.25 L-6.5 -10.1 Q-6.6 -10.15 -6.65 -10.2 L-6.65 -10.3 Q-6.65 -10.35 -6.5 -10.5 L-6.35 -10.35 Q-6.35 -10.3 -6.4 -10.25 M-7.15 -9.6 L-7.0 -9.8 -6.85 -9.65 -6.9 -9.45 Q-6.95 -9.3 -7.1 -9.3 L-7.15 -9.3 -7.2 -9.35 -7.2 -9.45 -7.15 -9.6 M-7.85 -9.75 L-7.85 -9.65 -7.9 -9.5 -8.0 -9.45 Q-8.15 -9.45 -8.1 -9.65 L-8.1 -9.8 Q-8.05 -9.9 -7.85 -9.85 L-7.85 -9.75 M-7.3 -10.05 L-7.4 -9.95 Q-7.5 -10.05 -7.5 -10.1 -7.5 -10.2 -7.35 -10.3 -7.25 -10.2 -7.25 -10.15 L-7.3 -10.05 M-9.45 -14.15 L-9.45 -14.15" fill="#c8cf72" fill-rule="evenodd" stroke="none"/>
    <path d="M-10.0 -14.9 L-10.05 -15.05 -9.6 -15.05 Q-9.6 -14.95 -9.55 -14.85 -9.45 -14.7 -9.3 -14.65 L-9.4 -14.6 -9.65 -14.75 -10.0 -14.9 M-8.7 -13.95 L-8.45 -13.75 Q-8.25 -13.6 -7.95 -13.6 -7.6 -13.6 -7.5 -13.85 -7.5 -13.95 -7.45 -14.05 -7.35 -14.25 -7.1 -14.25 -6.7 -14.25 -6.4 -13.5 L-6.25 -12.75 -6.15 -12.05 -6.1 -11.4 Q-6.1 -11.1 -6.0 -10.85 L-6.0 -10.6 -6.05 -10.3 -6.1 -10.3 Q-6.3 -9.9 -6.55 -9.6 -7.0 -9.05 -7.6 -8.85 L-7.55 -8.95 Q-7.55 -9.35 -8.1 -8.75 L-8.15 -8.7 -8.45 -8.65 -8.35 -8.95 -8.45 -9.15 -8.85 -8.75 -9.05 -8.85 -8.85 -10.3 Q-8.75 -10.7 -8.75 -11.15 -8.65 -11.6 -8.65 -11.8 L-8.7 -12.25 Q-8.7 -12.8 -9.1 -13.4 L-9.2 -13.6 -9.05 -13.7 -8.7 -13.95 M-7.0 -11.6 Q-7.05 -11.6 -7.05 -11.5 L-7.05 -11.45 -6.9 -11.45 -6.85 -11.5 -7.0 -11.6 M-7.85 -10.85 L-7.9 -10.9 Q-8.0 -10.8 -8.0 -10.75 L-8.0 -10.65 -7.9 -10.6 -7.8 -10.7 -7.8 -10.75 -7.85 -10.85 M-7.3 -10.05 L-7.25 -10.15 Q-7.25 -10.2 -7.35 -10.3 -7.5 -10.2 -7.5 -10.1 -7.5 -10.05 -7.4 -9.95 L-7.3 -10.05 M-7.85 -9.75 L-7.85 -9.85 Q-8.05 -9.9 -8.1 -9.8 L-8.1 -9.65 Q-8.15 -9.45 -8.0 -9.45 L-7.9 -9.5 -7.85 -9.65 -7.85 -9.75 M-7.15 -9.6 L-7.2 -9.45 -7.2 -9.35 -7.15 -9.3 -7.1 -9.3 Q-6.95 -9.3 -6.9 -9.45 L-6.85 -9.65 -7.0 -9.8 -7.15 -9.6 M-6.4 -10.25 Q-6.35 -10.3 -6.35 -10.35 L-6.5 -10.5 Q-6.65 -10.35 -6.65 -10.3 L-6.65 -10.2 Q-6.6 -10.15 -6.5 -10.1 L-6.4 -10.25" fill="#ffffcc" fill-rule="evenodd" stroke="none"/>
    <path d="M-10.2 -15.45 Q-10.45 -15.3 -10.45 -15.15 L-10.45 -15.05 -10.25 -15.05 Q-10.2 -14.75 -9.75 -14.65 -9.3 -14.55 -9.25 -14.4 L-9.3 -14.45 -9.75 -14.55 Q-10.05 -14.65 -10.5 -14.9 -10.65 -15.0 -11.25 -14.85 -11.05 -15.7 -9.95 -15.9 L-10.1 -15.75 -10.2 -15.45 M-10.0 -7.15 L-9.75 -7.2 Q-9.65 -7.15 -9.55 -7.1 L-9.55 -7.05 -9.6 -6.75 Q-9.7 -6.6 -9.9 -6.5 L-9.9 -6.55 -10.0 -6.7 Q-10.1 -6.7 -10.1 -6.8 L-10.15 -6.85 -10.1 -6.9 -10.1 -6.95 Q-10.05 -7.1 -10.0 -7.15 M-9.1 -7.25 L-9.15 -7.25 Q-9.1 -7.1 -9.1 -7.0 -9.1 -6.8 -9.35 -6.65 L-9.35 -6.75 -9.3 -6.75 -9.4 -7.05 -9.4 -7.2 -9.35 -7.2 -9.2 -7.25 -9.1 -7.25 M-8.5 -7.15 L-8.5 -7.05 -8.25 -7.1 -8.1 -6.7 -8.2 -6.5 -8.25 -6.45 -8.25 -6.5 -8.4 -6.75 Q-8.5 -7.05 -8.5 -7.15 M-7.75 -7.1 L-7.85 -7.4 Q-7.75 -7.25 -7.75 -7.1" fill="#fee378" fill-rule="evenodd" stroke="none"/>
    <path d="M-10.0 -14.9 Q-10.2 -15.0 -10.2 -15.1 -10.2 -15.4 -10.1 -15.55 L-10.1 -15.6 Q-9.95 -15.85 -9.6 -16.0 L-8.85 -16.0 Q-8.5 -16.1 -8.0 -15.85 L-7.9 -15.85 Q-7.6 -15.75 -7.4 -15.6 -6.8 -15.2 -6.7 -14.55 L-6.45 -13.65 -6.25 -12.85 -6.2 -12.75 -6.25 -12.75 -6.4 -13.5 Q-6.7 -14.25 -7.1 -14.25 -7.35 -14.25 -7.45 -14.05 -7.5 -13.95 -7.5 -13.85 -7.6 -13.6 -7.95 -13.6 -8.25 -13.6 -8.45 -13.75 L-8.7 -13.95 -8.75 -14.0 Q-8.65 -14.0 -8.6 -14.1 L-8.55 -14.2 Q-8.55 -14.45 -9.1 -14.5 L-9.25 -14.5 -9.4 -14.6 -9.3 -14.65 -9.1 -14.6 Q-8.85 -14.6 -8.65 -14.8 L-8.55 -15.0 Q-8.15 -15.2 -8.1 -15.35 L-8.6 -15.4 -9.5 -15.45 -9.5 -15.4 -9.85 -15.45 Q-10.05 -15.3 -10.05 -15.2 L-10.05 -15.05 -10.0 -14.9 M-6.15 -12.05 L-6.15 -12.0 -6.1 -11.9 -6.1 -11.65 -6.0 -10.85 Q-6.1 -11.1 -6.1 -11.4 L-6.15 -12.05 M-8.7 -12.25 L-8.7 -12.4 Q-8.85 -12.95 -9.25 -12.95 L-9.4 -13.0 -9.55 -13.1 Q-9.4 -13.35 -9.4 -13.6 L-9.4 -13.5 -9.35 -13.5 -9.2 -13.65 -9.2 -13.6 -9.1 -13.4 Q-8.7 -12.8 -8.7 -12.25 M-5.55 -11.8 L-5.65 -11.55 -5.9 -10.95 -5.9 -10.9 -5.9 -11.5 -5.95 -11.8 Q-6.0 -12.4 -6.0 -12.7 L-6.0 -12.85 -5.95 -12.85 Q-5.8 -12.7 -5.7 -12.35 -5.6 -12.15 -5.55 -11.8 M-10.8 -6.95 L-10.8 -8.35 Q-10.75 -9.15 -10.75 -9.95 -10.75 -10.4 -10.65 -11.3 L-10.55 -11.95 Q-10.4 -12.3 -10.05 -12.6 L-9.6 -13.05 -9.6 -12.95 -9.45 -12.9 -9.35 -12.85 Q-9.05 -12.85 -8.85 -12.55 -8.75 -12.4 -8.75 -12.25 L-8.75 -12.05 -9.05 -10.9 Q-9.25 -10.15 -9.4 -9.75 L-9.65 -9.1 -9.65 -9.25 Q-9.65 -9.6 -9.55 -10.35 L-9.45 -11.15 Q-9.45 -11.25 -9.45 -11.3 L-9.6 -10.9 -9.7 -10.4 -9.95 -9.4 -10.25 -8.4 -10.5 -7.5 -10.4 -7.6 -10.8 -6.95 M-9.45 -14.15 L-9.45 -14.15" fill="#98512e" fill-rule="evenodd" stroke="none"/>
    <path d="M-9.15 -15.35 Q-8.9 -15.35 -8.9 -15.15 -8.9 -15.05 -9.0 -15.0 L-9.15 -14.95 Q-9.3 -14.95 -9.35 -15.05 L-9.35 -15.15 Q-9.35 -15.35 -9.15 -15.35" fill="#ffffff" fill-rule="evenodd" stroke="none"/>
    <path d="M-8.6 -15.4 L-8.1 -15.35 Q-8.15 -15.2 -8.55 -15.0 L-8.55 -15.15 Q-8.55 -15.3 -8.6 -15.4 M-9.25 -14.5 L-9.1 -14.5 Q-8.55 -14.45 -8.55 -14.2 L-8.6 -14.1 Q-8.65 -14.0 -8.75 -14.0 L-9.05 -14.15 -9.15 -14.25 -9.15 -14.3 Q-9.15 -14.4 -9.25 -14.5 M-9.4 -13.6 L-9.35 -13.75 -9.4 -13.85 -9.4 -14.0 -9.2 -13.65 -9.35 -13.5 -9.4 -13.5 -9.4 -13.6 M-5.55 -11.8 L-5.55 -11.7 Q-5.55 -11.45 -5.65 -11.15 L-5.75 -10.8 Q-5.85 -10.3 -5.9 -10.1 L-6.1 -9.7 -6.05 -9.85 -5.9 -10.9 -5.9 -10.95 -5.65 -11.55 -5.55 -11.8 M-10.8 -6.95 L-10.4 -7.6 -10.5 -7.5 -10.25 -8.4 -9.95 -9.4 -9.7 -10.4 -9.6 -10.9 -9.45 -11.3 Q-9.45 -11.25 -9.45 -11.15 L-9.55 -10.35 Q-9.65 -9.6 -9.65 -9.25 L-9.65 -9.1 -9.4 -9.75 Q-9.25 -10.15 -9.05 -10.9 L-8.75 -12.05 -8.75 -12.25 -8.7 -12.05 Q-8.7 -11.65 -9.3 -9.45 L-9.85 -7.35 -9.9 -7.35 -9.95 -7.2 -10.0 -7.15 Q-10.05 -7.1 -10.1 -6.95 -10.25 -6.7 -10.4 -6.7 L-10.45 -6.7 Q-10.55 -6.6 -10.85 -6.6 L-10.8 -6.95" fill="#792c1e" fill-rule="evenodd" stroke="none"/>
    <path d="M-10.25 -15.05 L-10.45 -15.05 -10.45 -15.15 Q-10.45 -15.3 -10.2 -15.45 L-10.25 -15.1 -10.25 -15.05 M-11.25 -14.85 Q-10.65 -15.0 -10.5 -14.9 -10.05 -14.65 -9.75 -14.55 L-9.3 -14.45 -9.25 -14.4 -9.25 -14.35 -9.6 -14.35 Q-9.85 -14.65 -10.4 -14.75 L-11.05 -14.8 -11.25 -14.8 -11.25 -14.85 M-9.55 -7.1 L-9.5 -7.0 -9.45 -6.85 -9.45 -6.65 Q-9.45 -6.5 -9.45 -6.4 -9.55 -6.2 -9.7 -6.2 -9.75 -6.15 -9.85 -6.15 -9.9 -6.25 -9.9 -6.5 -9.7 -6.6 -9.6 -6.75 L-9.55 -7.05 -9.55 -7.1 M-9.35 -6.65 Q-9.1 -6.8 -9.1 -7.0 -9.1 -7.1 -9.15 -7.25 L-9.1 -7.25 -8.95 -7.1 -8.95 -7.05 Q-8.85 -6.95 -8.85 -6.85 L-8.9 -6.8 -8.85 -6.8 -8.95 -6.55 Q-9.05 -6.3 -9.1 -6.25 L-9.2 -6.4 -9.35 -6.5 -9.35 -6.65 M-8.25 -6.45 L-8.2 -6.5 -8.1 -6.7 -8.25 -7.1 -8.5 -7.05 -8.5 -7.15 -8.5 -7.2 -8.55 -7.2 -8.5 -7.25 Q-8.35 -7.3 -8.2 -7.4 L-8.15 -7.4 Q-7.85 -7.2 -7.85 -6.9 -7.85 -6.75 -7.95 -6.55 -8.05 -6.25 -8.15 -6.25 L-8.2 -6.25 -8.2 -6.3 -8.2 -6.35 -8.25 -6.45 M-7.85 -7.4 L-7.85 -7.45 Q-7.8 -7.45 -7.7 -7.5 L-7.65 -7.5 -7.5 -7.25 Q-7.4 -7.05 -7.4 -6.95 L-7.4 -6.9 Q-7.4 -6.8 -7.45 -6.7 L-7.75 -6.4 -7.8 -6.4 -7.8 -6.5 -7.75 -6.65 -7.75 -6.75 -7.8 -6.75 -7.75 -6.85 -7.7 -6.85 -7.7 -6.95 -7.75 -7.1 Q-7.75 -7.25 -7.85 -7.4" fill="#fa9f3d" fill-rule="evenodd" stroke="none"/>
  </g>
</svg>
