<?xml version="1.0" encoding="UTF-8" standalone="no"?>
<svg xmlns:ffdec="https://www.free-decompiler.com/flash" xmlns:xlink="http://www.w3.org/1999/xlink" ffdec:objectType="shape" height="13.05px" width="9.35px" xmlns="http://www.w3.org/2000/svg">
  <g transform="matrix(1.0, 0.0, 0.0, 1.0, 7.2, 8.35)">
    <path d="M-1.95 -7.9 L-2.15 -7.75 -1.9 -8.0 Q-1.3 -8.45 -0.85 -8.3 -0.5 -8.25 -0.2 -7.9 0.15 -7.45 0.15 -6.85 L0.5 -5.85 Q0.8 -5.15 0.85 -4.85 0.95 -4.2 1.55 -3.35 1.85 -2.9 2.1 -2.55 L2.15 -2.3 2.1 -2.15 2.1 -2.05 Q2.1 -1.75 2.05 -1.45 L2.0 -1.25 2.05 -1.25 Q1.95 -0.6 1.75 -0.3 1.15 0.7 0.0 2.05 L-1.0 3.3 -1.6 3.7 -1.75 3.9 -1.8 4.0 -1.95 4.15 -2.0 4.25 -2.05 4.2 -2.1 4.25 -2.15 4.25 Q-2.15 4.3 -2.3 4.35 -2.9 4.45 -3.6 2.95 L-3.75 2.6 -4.05 2.85 -4.9 3.8 Q-5.55 4.45 -5.75 4.45 L-5.85 4.45 Q-6.1 4.7 -6.3 4.7 -6.9 4.7 -7.05 4.35 -7.1 4.2 -7.1 4.0 -7.1 3.85 -7.0 3.75 L-6.95 3.7 -7.05 3.6 Q-7.2 3.35 -7.2 3.2 -7.2 3.05 -6.7 2.25 -6.25 1.5 -6.2 0.9 -6.55 0.8 -6.8 0.55 -7.15 0.25 -7.15 0.0 L-7.1 -0.25 Q-7.0 -0.45 -6.8 -0.45 L-6.55 -0.35 -6.3 -0.3 Q-6.0 -0.3 -5.85 -0.4 L-5.85 -0.45 -5.75 -0.4 -5.45 -0.75 Q-5.2 -1.0 -5.1 -1.25 -4.95 -1.7 -4.55 -1.85 L-4.6 -1.9 -4.6 -1.85 Q-4.55 -2.05 -4.15 -2.2 L-3.95 -2.25 Q-3.7 -2.4 -3.35 -2.45 L-3.15 -2.45 -2.9 -2.5 -2.1 -2.9 -1.95 -2.95 -2.0 -3.0 Q-2.1 -3.05 -2.1 -3.25 L-2.05 -4.5 Q-2.1 -4.9 -2.55 -5.2 -2.8 -5.35 -2.9 -5.55 -3.05 -5.55 -3.2 -5.85 -3.2 -5.95 -3.15 -6.05 L-3.1 -6.25 -3.1 -6.3 -3.1 -6.4 -3.05 -6.5 -3.05 -6.55 -2.75 -7.1 Q-2.9 -6.8 -3.0 -6.45 L-2.95 -6.5 -2.95 -6.3 -2.9 -6.2 -2.9 -6.1 Q-2.9 -5.9 -2.8 -5.7 L-2.75 -5.7 -2.75 -5.65 Q-2.65 -5.5 -2.45 -5.4 L-2.25 -5.1 Q-1.65 -4.15 -1.65 -3.95 -1.6 -3.8 -1.65 -3.5 L-1.65 -3.05 Q-1.5 -2.95 -1.2 -2.85 L-0.85 -2.8 -0.4 -2.7 0.5 -2.6 1.2 -2.5 1.25 -2.4 1.2 -2.35 1.4 -2.25 1.5 -2.15 1.5 -2.0 1.55 -1.8 1.5 -1.8 Q1.5 -1.75 1.4 -1.75 L1.0 -1.7 0.8 -1.65 0.6 -1.65 Q-0.2 -1.65 -0.75 -2.0 -1.0 -2.1 -1.15 -2.3 L-1.25 -2.45 -1.3 -2.45 -1.3 -2.55 Q-0.45 -1.85 0.35 -1.75 L1.2 -1.9 1.25 -1.9 1.25 -1.95 0.85 -2.35 -0.6 -2.6 -0.8 -2.65 Q-1.15 -2.65 -1.5 -2.6 L-1.55 -2.6 -1.65 -2.65 Q-1.95 -2.5 -2.35 -2.4 -1.85 -2.15 -1.45 -1.4 -1.2 -1.0 -1.05 -0.6 L-1.05 -0.55 -0.85 -0.05 -0.85 0.1 -0.7 0.7 Q-0.7 0.85 -0.7 1.0 L-0.55 0.75 -0.2 0.0 -0.25 0.2 0.05 -0.3 -0.45 0.8 -0.6 1.2 -0.7 1.45 -0.8 1.65 -0.75 2.25 -0.75 2.5 -0.55 2.3 -0.25 2.05 Q0.45 0.9 0.85 0.35 1.4 -0.35 1.6 -0.9 L1.6 -1.35 1.65 -1.55 1.65 -1.85 1.7 -2.2 1.75 -2.35 0.55 -5.1 0.45 -5.35 0.35 -5.5 0.15 -5.85 -0.2 -6.7 Q-0.3 -6.95 -0.4 -7.55 L-0.45 -7.65 Q-0.55 -7.9 -0.85 -8.0 L-1.2 -8.1 -1.5 -8.05 Q-1.75 -8.0 -1.95 -7.9 M-3.4 -1.2 L-3.6 -1.3 -3.65 -1.35 -3.85 -1.4 -3.9 -1.35 -4.0 -1.35 Q-4.1 -1.35 -4.15 -1.4 -4.2 -1.45 -4.3 -1.45 -4.9 -1.45 -5.2 -0.8 L-5.4 -0.35 -5.45 -0.2 Q-5.5 -0.2 -5.5 -0.15 -5.6 0.05 -5.75 0.05 L-6.05 -0.05 Q-6.3 -0.15 -6.5 -0.15 -6.75 -0.15 -6.85 0.1 L-6.8 0.2 -6.7 0.45 -6.65 0.45 Q-6.45 0.7 -6.15 0.7 L-5.8 0.65 -5.6 0.6 -5.35 0.4 -5.2 0.25 -5.2 0.3 -5.05 0.15 -4.85 0.0 -4.8 0.0 Q-4.7 0.0 -4.5 0.1 L-4.45 0.1 -4.2 0.15 Q-3.95 0.15 -3.65 -0.05 -3.25 -0.25 -3.25 -0.5 L-3.2 -0.4 -3.3 -0.25 Q-3.45 -0.15 -3.7 0.05 L-4.05 0.3 -4.25 0.4 Q-4.35 0.4 -4.5 0.25 L-4.55 0.25 -4.65 0.2 -4.7 0.25 -4.7 0.3 Q-4.85 0.35 -5.1 0.5 -5.45 0.75 -5.75 1.05 L-5.9 1.05 -5.9 1.1 -6.9 3.4 Q-6.9 3.55 -6.8 3.6 L-6.65 3.6 -6.5 3.6 Q-6.35 3.6 -5.6 2.45 L-5.5 2.1 Q-5.25 1.2 -4.75 1.0 L-4.7 1.05 Q-5.2 1.4 -5.4 2.15 L-5.4 2.35 -5.75 3.2 -5.8 3.35 -5.85 3.45 -5.85 3.4 Q-6.15 3.95 -6.5 3.95 L-6.7 3.95 -6.8 4.15 Q-6.8 4.3 -6.55 4.45 -5.8 4.45 -5.2 3.05 L-4.7 1.95 Q-4.4 1.4 -4.1 1.2 L-4.1 1.25 Q-4.05 1.3 -4.05 1.35 L-4.85 2.65 Q-5.6 3.8 -5.65 4.05 L-5.25 3.75 Q-4.5 3.05 -4.05 2.55 L-3.85 2.3 -3.85 2.25 Q-3.65 2.2 -3.5 1.9 L-3.1 1.5 Q-2.75 1.15 -2.55 1.05 L-2.65 0.85 -2.95 -0.45 -2.95 -0.55 -3.05 -0.7 -3.1 -0.85 -3.1 -0.9 -3.4 -1.2 M-0.3 -5.8 L-0.3 -5.6 Q-0.3 -5.2 -0.45 -4.8 -0.7 -3.9 -1.3 -3.2 L-1.4 -3.1 -1.45 -3.1 -1.35 -3.25 Q-1.05 -3.6 -0.85 -4.35 L-0.8 -4.4 -0.7 -5.0 Q-0.4 -6.3 -0.35 -6.4 L-0.35 -6.35 Q-0.3 -6.1 -0.3 -5.8 M-1.0 -0.25 Q-1.15 -0.75 -1.4 -1.25 -1.95 -2.45 -2.75 -2.3 L-2.95 -2.25 -3.8 -1.9 -3.5 -1.65 -3.45 -1.65 Q-3.2 -1.4 -3.1 -1.1 L-3.0 -1.05 Q-2.75 -0.65 -2.65 -0.3 L-2.5 0.1 -2.35 0.65 -2.25 1.05 -2.05 1.9 Q-1.9 2.65 -1.9 3.25 L-1.85 3.55 -1.7 3.3 Q-1.5 2.75 -1.1 1.85 L-0.9 1.45 -0.85 0.5 -0.85 0.3 -1.0 -0.25 M-2.05 3.05 Q-2.2 2.45 -2.45 1.45 L-3.1 2.05 -3.45 2.35 -3.25 2.85 Q-3.0 3.3 -2.55 3.75 L-2.3 3.95 Q-2.05 3.75 -2.05 3.25 L-2.05 3.05 M-0.95 2.05 L-1.25 2.8 -1.3 3.0 -1.0 2.7 -1.0 2.4 -0.95 2.05" fill="#111111" fill-rule="evenodd" stroke="none"/>
    <path d="M-6.8 0.2 L-6.85 0.1 Q-6.75 -0.15 -6.5 -0.15 -6.3 -0.15 -6.05 -0.05 L-5.75 0.05 Q-5.6 0.05 -5.5 -0.15 -5.5 -0.2 -5.45 -0.2 L-5.4 -0.35 -5.2 -0.8 Q-4.9 -1.45 -4.3 -1.45 -4.2 -1.45 -4.15 -1.4 -4.1 -1.35 -4.0 -1.35 L-3.9 -1.35 -3.85 -1.4 -3.65 -1.35 -3.6 -1.3 -3.4 -1.2 -3.75 -0.8 Q-3.85 -0.7 -4.25 -0.55 -4.6 -0.4 -4.75 -0.25 L-5.05 0.15 -5.2 0.25 -5.35 0.4 Q-5.45 0.5 -5.55 0.5 L-6.0 0.3 Q-6.45 0.1 -6.6 0.1 -6.75 0.1 -6.85 0.15 L-6.8 0.2 M-6.65 3.6 L-6.8 3.6 Q-6.9 3.55 -6.9 3.4 L-5.9 1.1 -5.4 1.1 Q-5.55 1.6 -6.15 2.7 L-6.65 3.6" fill="#c7a36d" fill-rule="evenodd" stroke="none"/>
    <path d="M-6.8 0.2 L-6.85 0.15 Q-6.75 0.1 -6.6 0.1 -6.45 0.1 -6.0 0.3 L-5.55 0.5 Q-5.45 0.5 -5.35 0.4 L-5.6 0.6 -5.8 0.65 -6.15 0.7 Q-6.45 0.7 -6.65 0.45 L-6.7 0.45 -6.8 0.2 M-5.2 0.25 L-5.05 0.15 -4.75 -0.25 Q-4.6 -0.4 -4.25 -0.55 -3.85 -0.7 -3.75 -0.8 L-3.4 -1.2 -3.1 -0.9 -3.1 -0.85 -3.05 -0.7 -2.95 -0.55 -2.95 -0.45 -2.65 0.85 -2.55 1.05 Q-2.75 1.15 -3.1 1.5 L-3.5 1.9 Q-3.65 2.2 -3.85 2.25 L-3.85 2.3 -4.05 2.55 Q-4.5 3.05 -5.25 3.75 L-5.65 4.05 Q-5.6 3.8 -4.85 2.65 L-4.05 1.35 Q-4.05 1.3 -4.1 1.25 L-4.1 1.2 Q-4.4 1.4 -4.7 1.95 L-5.2 3.05 Q-5.8 4.45 -6.55 4.45 -6.8 4.3 -6.8 4.15 L-6.7 3.95 -6.5 3.95 Q-6.15 3.95 -5.85 3.4 L-5.85 3.45 -5.8 3.35 -5.75 3.2 -5.4 2.35 -5.4 2.15 Q-5.2 1.4 -4.7 1.05 L-4.75 1.0 Q-5.25 1.2 -5.5 2.1 L-5.6 2.45 Q-6.35 3.6 -6.5 3.6 L-6.65 3.6 -6.15 2.7 Q-5.55 1.6 -5.4 1.1 L-5.9 1.1 -5.9 1.05 -5.75 1.05 Q-5.45 0.75 -5.1 0.5 -4.85 0.35 -4.7 0.3 L-4.7 0.25 -4.65 0.2 -4.55 0.25 -4.5 0.25 Q-4.35 0.4 -4.25 0.4 L-4.05 0.3 -3.7 0.05 Q-3.45 -0.15 -3.3 -0.25 L-3.2 -0.4 -3.25 -0.5 Q-3.25 -0.25 -3.65 -0.05 -3.95 0.15 -4.2 0.15 L-4.45 0.1 -4.5 0.1 Q-4.7 0.0 -4.8 0.0 L-4.85 0.0 -5.05 0.15 -5.2 0.3 -5.2 0.25" fill="#a9854f" fill-rule="evenodd" stroke="none"/>
    <path d="M-2.35 0.65 L-2.5 0.1 -2.65 -0.3 Q-2.75 -0.65 -3.0 -1.05 L-3.1 -1.1 Q-3.2 -1.4 -3.45 -1.65 L-3.5 -1.65 -3.8 -1.9 -2.95 -2.25 -2.75 -2.3 Q-1.95 -2.45 -1.4 -1.25 -1.15 -0.75 -1.0 -0.25 L-1.05 -0.45 -1.5 -0.1 -2.35 0.65" fill="#b00000" fill-rule="evenodd" stroke="none"/>
    <path d="M-2.35 0.65 L-1.5 -0.1 -1.05 -0.45 -1.0 -0.25 -0.85 0.3 -0.85 0.5 -0.9 1.45 -1.1 1.85 Q-1.5 2.75 -1.7 3.3 L-1.85 3.55 -1.9 3.25 Q-1.9 2.65 -2.05 1.9 L-2.25 1.05 -2.35 0.65 M-0.95 2.05 L-1.0 2.4 -1.0 2.7 -1.3 3.0 -1.25 2.8 -0.95 2.05 M-2.05 3.05 L-2.05 3.25 Q-2.05 3.75 -2.3 3.95 L-2.55 3.75 Q-3.0 3.3 -3.25 2.85 L-3.45 2.35 -3.1 2.05 -2.45 1.45 Q-2.2 2.45 -2.05 3.05" fill="#600000" fill-rule="evenodd" stroke="none"/>
    <path d="M-0.85 0.1 L-0.85 -0.05 -0.85 0.1 M-1.05 -0.6 Q-1.2 -1.0 -1.45 -1.4 -1.85 -2.15 -2.35 -2.4 -1.95 -2.5 -1.65 -2.65 L-1.55 -2.6 -1.5 -2.6 -1.45 -2.55 -1.45 -2.5 -1.15 -2.3 Q-1.0 -2.1 -0.75 -2.0 -0.2 -1.65 0.6 -1.65 L0.8 -1.65 0.95 -1.7 0.85 -1.55 0.45 -1.3 Q0.3 -1.25 0.05 -1.15 L-0.15 -1.25 -0.4 -1.05 -1.05 -0.6 M-3.1 -6.3 L-3.1 -6.25 -3.1 -6.3" fill="#80c0f0" fill-rule="evenodd" stroke="none"/>
    <path d="M-1.95 -7.9 Q-1.75 -8.0 -1.5 -8.05 L-1.2 -8.1 -0.85 -8.0 Q-0.55 -7.9 -0.45 -7.65 L-0.4 -7.55 Q-0.3 -6.95 -0.2 -6.7 L0.15 -5.85 0.35 -5.5 0.45 -5.35 0.55 -5.1 1.75 -2.35 1.7 -2.2 1.65 -1.85 1.65 -1.55 1.6 -1.35 1.6 -0.9 Q1.4 -0.35 0.85 0.35 0.45 0.9 -0.25 2.05 L-0.55 2.3 -0.75 2.5 -0.75 2.25 -0.8 1.65 -0.7 1.45 -0.6 1.2 -0.45 0.8 0.05 -0.3 -0.25 0.2 -0.2 0.0 -0.55 0.75 -0.7 1.0 Q-0.7 0.85 -0.7 0.7 L-0.85 0.1 -0.85 -0.05 -1.05 -0.55 -1.05 -0.6 -0.4 -1.05 -0.15 -1.25 0.05 -1.15 Q0.3 -1.25 0.45 -1.3 L0.85 -1.55 0.95 -1.7 0.8 -1.65 1.0 -1.7 1.4 -1.75 Q1.5 -1.75 1.5 -1.8 L1.55 -1.8 1.5 -2.0 1.5 -2.15 1.4 -2.25 1.2 -2.35 1.25 -2.4 1.2 -2.5 0.5 -2.6 -0.4 -2.7 -0.85 -2.8 -1.2 -2.85 Q-1.5 -2.95 -1.65 -3.05 L-1.65 -3.5 Q-1.6 -3.8 -1.65 -3.95 -1.65 -4.15 -2.25 -5.1 L-2.45 -5.4 Q-2.65 -5.5 -2.75 -5.65 L-2.75 -5.7 -2.8 -5.7 Q-2.9 -5.9 -2.9 -6.1 L-2.9 -6.2 -2.95 -6.3 -2.95 -6.5 -3.0 -6.45 Q-2.9 -6.8 -2.75 -7.1 L-3.05 -6.55 -3.05 -6.5 Q-2.9 -7.15 -2.1 -7.8 L-1.95 -7.9 M-1.5 -2.6 Q-1.15 -2.65 -0.8 -2.65 L-0.6 -2.6 0.85 -2.35 1.25 -1.95 1.25 -1.9 1.2 -1.9 0.35 -1.75 Q-0.45 -1.85 -1.3 -2.55 L-1.3 -2.45 -1.25 -2.45 -1.15 -2.3 -1.45 -2.5 -1.45 -2.55 -1.5 -2.6 M-0.3 -5.8 Q-0.3 -6.1 -0.35 -6.35 L-0.35 -6.4 Q-0.4 -6.3 -0.7 -5.0 L-0.8 -4.4 -0.85 -4.35 Q-1.05 -3.6 -1.35 -3.25 L-1.45 -3.1 -1.4 -3.1 -1.3 -3.2 Q-0.7 -3.9 -0.45 -4.8 -0.3 -5.2 -0.3 -5.6 L-0.3 -5.8" fill="#0070e0" fill-rule="evenodd" stroke="none"/>
  </g>
</svg>
