<?xml version="1.0" encoding="UTF-8" standalone="no"?>
<svg xmlns:ffdec="https://www.free-decompiler.com/flash" xmlns:xlink="http://www.w3.org/1999/xlink" ffdec:objectType="shape" height="13.75px" width="17.8px" xmlns="http://www.w3.org/2000/svg">
  <g transform="matrix(1.0, 0.0, 0.0, 1.0, 8.05, 8.25)">
    <path d="M4.0 -7.05 L4.05 -6.7 4.1 -6.6 4.1 -6.65 4.05 -6.7 Q4.0 -6.75 4.0 -7.05 M4.7 -6.4 L4.7 -6.55 4.75 -6.4 4.7 -6.4 M4.6 -5.2 L4.7 -5.05 4.6 -5.2 M4.9 -5.4 L4.95 -5.5 4.95 -5.45 4.9 -5.4 M5.2 -4.65 L5.25 -4.6 5.25 -4.45 Q5.25 -4.25 5.15 -3.95 5.05 -3.75 4.95 -3.65 L4.9 -3.65 4.85 -3.6 4.9 -3.65 Q4.9 -3.85 5.0 -4.1 5.2 -4.45 5.2 -4.6 L5.2 -4.65 M4.45 -3.85 L4.45 -3.7 Q4.45 -3.75 4.45 -3.85 M5.3 -4.75 L5.25 -4.85 5.2 -5.0 5.75 -4.5 Q5.95 -4.35 5.95 -4.2 5.95 -3.9 5.8 -3.85 L5.55 -4.1 5.5 -4.35 5.5 -4.55 5.45 -4.55 5.4 -4.75 5.3 -4.75 M3.55 -2.65 L3.55 -2.55 3.55 -2.65 M3.85 -2.35 L3.9 -2.35 4.05 -2.45 4.05 -2.5 4.0 -2.35 3.85 -2.35 M4.3 -3.1 L4.3 -3.3 4.35 -3.25 4.3 -3.1 M-6.0 -1.6 L-5.85 -1.75 -5.8 -1.75 Q-5.9 -1.45 -5.95 -0.95 -6.15 -1.15 -6.15 -1.35 -6.15 -1.45 -6.0 -1.6 M-4.15 -5.15 L-4.25 -4.9 -4.25 -4.85 -4.25 -4.9 -4.35 -4.95 -4.35 -5.0 -4.3 -5.05 -4.15 -5.15 M-5.45 -1.5 L-5.45 -1.45 Q-5.45 -1.2 -5.35 -1.1 L-4.9 -0.6 -4.9 -0.65 Q-4.9 -0.5 -4.95 -0.3 -5.0 -0.05 -5.1 -0.05 -5.25 -0.05 -5.35 -0.15 -5.6 -0.15 -5.65 -0.25 L-5.65 -0.35 -5.75 -0.45 -5.8 -0.85 Q-5.8 -1.3 -5.6 -1.45 L-5.45 -1.5" fill="#af3c14" fill-rule="evenodd" stroke="none"/>
    <path d="M-7.3 -3.65 L-7.1 -3.1 Q-6.8 -2.4 -6.8 -2.1 L-6.8 -1.9 -6.85 -1.95 -7.65 -2.95 -7.7 -3.05 -7.4 -3.45 -7.3 -3.65 M-6.0 -4.9 L-5.9 -5.0 -5.9 -5.05 Q-5.75 -5.3 -5.6 -5.45 L-5.3 -5.5 Q-5.15 -5.15 -5.15 -4.3 L-5.15 -3.55 Q-5.15 -3.5 -5.2 -3.5 L-5.45 -3.85 -5.9 -4.4 -6.0 -4.6 -6.0 -4.9 M-6.35 -4.45 Q-6.2 -4.2 -6.1 -3.65 L-5.85 -2.65 Q-5.85 -2.5 -5.9 -2.4 L-6.0 -2.5 -6.3 -2.9 Q-6.65 -3.45 -6.85 -3.85 L-6.85 -4.0 -6.8 -4.0 -6.65 -4.15 -6.5 -4.25 -6.4 -4.35 -6.35 -4.45 M-4.2 -4.0 L-4.05 -4.0 Q-3.9 -4.0 -3.8 -4.1 L-3.8 -4.05 Q-3.8 -3.8 -4.15 -2.95 -4.6 -2.0 -4.95 -2.0 -5.05 -2.0 -5.2 -2.1 L-5.3 -2.3 -5.3 -2.4 -5.25 -2.4 -5.25 -2.45 -4.95 -3.0 -4.9 -3.05 -4.9 -3.1 -4.7 -3.35 -4.2 -4.0" fill="#875f3a" fill-rule="evenodd" stroke="none"/>
    <path d="M0.85 -5.75 L1.2 -5.4 1.35 -4.95 1.4 -4.75 Q1.75 -3.2 1.75 -2.55 1.75 -1.25 0.95 0.3 L0.35 1.35 Q0.25 1.6 0.2 1.8 L0.2 1.85 Q0.15 0.55 -0.45 -0.75 -1.1 -2.25 -2.2 -2.9 L-2.15 -2.95 -2.1 -2.95 -2.1 -3.0 -2.05 -3.05 -2.05 -2.95 -2.0 -2.95 Q-1.15 -2.9 -0.6 -2.25 L0.0 -1.35 0.05 -1.4 0.05 -1.5 Q0.05 -2.05 -1.0 -2.95 -1.75 -3.55 -1.95 -3.4 L-1.9 -3.65 -1.95 -4.15 -2.0 -4.4 -2.0 -5.0 Q-1.95 -5.35 -1.8 -5.7 L-1.8 -5.75 -1.05 -6.55 -0.65 -6.6 Q0.0 -6.6 0.85 -5.75 M0.1 2.0 L0.05 2.05 0.1 2.2 0.1 2.35 0.05 2.65 -0.25 3.35 -0.35 3.55 Q-0.6 3.9 -1.15 4.3 L-1.35 4.45 -1.6 4.55 -1.7 4.6 -2.3 4.6 Q-3.25 3.7 -3.7 2.35 L-3.8 2.0 -4.0 0.9 -4.0 0.85 -3.95 0.9 -3.9 0.9 -3.65 1.95 Q-3.5 2.5 -3.35 2.95 -3.45 2.65 -3.5 2.2 L-3.7 0.8 Q-3.45 0.95 -3.2 0.95 L-3.0 0.85 Q-2.35 1.1 -1.6 1.15 L-1.5 1.7 Q-1.55 2.3 -1.8 3.05 L-1.95 3.55 Q-2.2 3.9 -2.5 3.9 -2.75 3.9 -2.95 3.7 -2.6 4.2 -2.15 4.2 -1.85 4.2 -1.6 3.3 -1.5 3.0 -1.45 2.75 L-1.4 2.2 -1.35 2.15 -1.35 1.15 -1.4 0.7 Q-1.45 0.05 -1.65 -0.75 -1.85 -1.5 -2.05 -2.1 L-2.1 -2.2 Q-2.1 -2.45 -2.3 -2.65 L-2.35 -2.7 -2.35 -2.75 Q-1.2 -2.1 -0.55 -0.6 0.05 0.75 0.1 2.0 M-1.65 0.65 L-1.65 0.7 -2.55 0.65 -2.2 0.45 -1.75 0.1 -1.65 0.65" fill="#41495f" fill-rule="evenodd" stroke="none"/>
    <path d="M-7.3 -3.65 L-7.2 -3.65 -7.05 -3.8 Q-7.05 -3.7 -6.6 -3.0 -6.25 -2.45 -6.15 -2.2 -6.2 -2.05 -6.35 -1.85 L-6.35 -1.8 -6.55 -1.65 -6.8 -1.9 -6.8 -2.1 Q-6.8 -2.4 -7.1 -3.1 L-7.3 -3.65 M-7.65 -2.95 L-7.75 -3.0 -7.7 -3.05 -7.65 -2.95 M-6.0 -4.9 L-6.0 -4.6 -6.1 -4.7 -6.05 -4.75 -6.05 -4.85 -6.0 -4.9 M-5.2 -3.5 Q-5.15 -3.5 -5.15 -3.55 L-5.15 -4.3 Q-5.15 -5.15 -5.3 -5.5 L-5.2 -5.5 -5.15 -5.4 -4.8 -4.55 -4.6 -3.95 -5.05 -3.3 -5.2 -3.5 M-6.35 -4.45 L-6.3 -4.55 Q-6.15 -4.3 -5.75 -3.85 L-5.45 -3.45 -5.45 -3.55 -5.15 -3.15 Q-5.5 -2.6 -5.6 -2.2 L-5.7 -2.2 Q-5.8 -2.25 -6.0 -2.5 L-5.9 -2.4 Q-5.85 -2.5 -5.85 -2.65 L-6.1 -3.65 Q-6.2 -4.2 -6.35 -4.45 M-6.85 -3.85 L-6.9 -3.95 -6.85 -4.0 -6.85 -3.85 M-6.3 -1.35 L-6.25 -1.4 -6.25 -1.2 Q-6.3 -1.25 -6.3 -1.35 M-4.75 -4.9 L-4.75 -4.9 M-4.2 -4.0 L-4.7 -3.35 -4.9 -3.1 -4.3 -4.0 -4.2 -4.0 M-5.3 -2.4 L-5.3 -2.3 -5.2 -2.1 Q-5.05 -2.0 -4.95 -2.0 -4.6 -2.0 -4.15 -2.95 -3.8 -3.8 -3.8 -4.05 L-3.8 -4.1 -3.5 -3.95 -3.45 -3.9 -3.3 -3.55 -3.3 -3.35 Q-3.3 -3.15 -3.35 -3.0 L-3.4 -2.95 -3.4 -2.9 -3.8 -2.6 Q-3.7 -2.75 -3.65 -2.9 L-3.7 -3.0 -3.75 -3.0 -3.85 -2.7 Q-4.0 -2.45 -4.1 -2.45 L-4.15 -2.45 -4.15 -2.4 -4.3 -2.25 Q-4.55 -2.1 -4.9 -1.95 L-5.2 -1.9 Q-5.3 -1.95 -5.3 -2.05 L-5.35 -2.1 -5.35 -2.15 -5.3 -2.4 M-3.9 -2.05 L-3.7 -2.2 -3.95 -1.65 Q-4.2 -1.1 -4.6 -0.9 -4.65 -1.1 -4.8 -1.3 L-4.7 -1.35 -4.5 -1.6 -3.9 -2.05 M-3.05 -2.7 Q-2.9 -2.5 -2.7 -2.5 L-2.6 -2.5 -2.5 -2.45 -2.45 -2.5 -2.45 -2.45 -2.0 -1.1 -1.9 -0.7 -1.85 -0.4 -2.05 -0.15 -2.05 -0.1 Q-2.05 0.05 -2.45 0.3 L-2.5 0.35 -3.3 0.45 -3.65 0.45 Q-3.9 0.35 -4.1 0.2 L-4.5 -0.2 -4.55 -0.3 -4.55 -0.65 Q-4.1 -1.1 -3.75 -1.6 -3.4 -2.1 -3.3 -2.5 L-3.15 -2.65 -3.1 -2.55 -3.1 -2.6 -3.05 -2.6 -3.05 -2.7 M-4.9 -0.8 L-5.0 -0.9 -5.0 -0.95 -4.95 -0.95 -4.95 -0.9 -4.85 -0.8 -4.9 -0.8" fill="#693629" fill-rule="evenodd" stroke="none"/>
    <path d="M4.95 -3.65 Q5.05 -3.75 5.15 -3.95 L5.05 -3.75 4.95 -3.65 M5.0 -3.35 Q5.2 -3.45 5.3 -3.7 L5.3 -3.75 5.4 -3.65 5.8 -3.6 5.9 -3.5 5.8 -3.4 6.0 -3.2 6.15 -3.1 Q6.25 -2.85 6.55 -2.6 L6.55 -2.55 Q6.6 -2.3 6.6 -1.9 6.55 -1.4 6.7 -1.05 L6.0 -1.55 5.85 -1.6 5.9 -1.9 Q5.9 -2.25 5.55 -2.7 L5.0 -3.35 M5.8 -1.45 L6.0 -1.3 Q6.65 -0.75 7.5 0.1 L7.55 0.15 Q7.8 0.65 7.95 1.3 L8.0 1.7 Q7.95 1.85 7.9 1.95 7.8 1.95 7.7 2.0 7.75 2.1 7.9 2.15 L8.0 2.35 8.05 2.55 Q8.05 2.75 7.95 2.8 7.55 2.3 7.2 1.6 L6.75 0.4 Q6.2 -1.0 5.3 -1.65 5.4 -1.65 5.5 -1.6 L5.75 -1.45 5.8 -1.45 M7.45 4.3 L7.3 4.45 7.4 4.35 7.4 4.3 7.45 4.3 M6.25 3.35 L6.3 3.2 6.35 3.15 6.35 3.3 6.25 3.35 M6.4 3.05 L6.35 3.05 6.4 3.0 6.4 3.05 M4.65 -3.45 L4.65 -3.45 M8.95 0.95 L9.05 1.2 8.9 1.05 8.95 0.95 M8.1 1.8 L8.0 1.35 Q7.85 0.65 7.7 0.3 8.5 1.1 9.2 1.55 L9.25 1.75 Q8.95 1.6 8.25 1.5 8.15 1.6 8.1 1.8 M9.45 2.55 L9.45 2.6 Q9.45 2.85 9.4 3.1 L9.35 2.65 9.45 2.55 M8.05 3.8 L8.1 3.75 8.1 3.65 8.1 3.7 8.15 3.8 8.25 3.75 8.05 3.8 M6.4 1.1 Q6.5 1.3 6.5 1.4 L6.5 1.5 6.4 1.1 M5.35 4.35 L5.35 4.35" fill="#d7b179" fill-rule="evenodd" stroke="none"/>
    <path d="M6.5 1.6 L6.5 1.75 Q6.5 2.35 6.2 2.95 L6.15 2.95 6.15 2.85 Q6.15 2.5 5.65 1.35 L5.0 0.15 Q4.75 -0.5 4.4 -0.9 L4.4 -0.95 4.6 -0.9 4.8 -0.8 4.7 -0.55 4.8 -0.45 4.8 -0.5 4.85 -0.75 Q5.15 -0.55 5.5 -0.2 5.8 0.05 6.0 0.35 L6.0 0.1 6.15 0.4 6.4 1.1 6.5 1.5 6.5 1.6 M6.15 3.05 L6.15 3.1 6.15 3.05 M5.75 3.75 L5.65 3.9 5.7 3.8 5.75 3.75 M3.65 -0.5 L3.7 -0.6 3.7 -0.4 3.65 -0.5 M4.3 -1.0 L4.35 -1.0 4.35 -0.95 4.3 -1.0 M5.65 -0.5 L5.35 -0.75 4.9 -1.0 4.9 -1.05 Q5.15 -1.0 5.35 -0.8 L5.65 -0.5 M4.85 -1.1 L4.8 -1.0 4.65 -1.1 4.55 -1.15 4.85 -1.1 M7.0 -1.05 Q6.9 -1.45 6.85 -2.15 L6.85 -2.3 6.95 -2.2 7.15 -1.95 Q7.9 -0.9 8.4 -0.05 L8.1 -0.35 7.05 -1.2 7.0 -1.05" fill="#848745" fill-rule="evenodd" stroke="none"/>
    <path d="M4.15 -6.3 L4.25 -6.25 Q4.2 -6.2 4.15 -6.1 L4.15 -5.85 4.25 -5.3 Q4.35 -5.1 4.45 -4.95 L3.45 -5.0 3.35 -5.1 Q3.55 -5.55 3.85 -6.05 L4.15 -6.3 M5.0 -3.35 L5.55 -2.7 Q5.9 -2.25 5.9 -1.9 L5.85 -1.6 5.25 -1.9 5.25 -1.8 5.8 -1.45 5.75 -1.45 5.5 -1.6 Q5.4 -1.65 5.3 -1.65 6.2 -1.0 6.75 0.4 L7.2 1.6 Q7.55 2.3 7.95 2.8 8.05 2.75 8.05 2.55 L8.0 2.35 7.9 2.15 8.1 2.25 8.1 2.9 7.95 2.8 Q7.55 2.4 7.35 2.3 7.3 2.35 7.3 2.4 7.4 2.75 7.9 3.15 L8.05 3.3 7.95 3.7 Q7.9 3.9 7.5 4.25 L7.45 4.3 7.4 4.3 7.4 4.35 7.3 4.45 7.2 4.45 6.15 4.5 5.95 4.5 5.65 4.45 5.65 4.4 5.9 4.05 6.0 4.0 6.15 4.15 6.2 4.1 Q6.15 3.95 6.05 3.8 L6.15 3.55 6.25 3.35 6.35 3.3 6.35 3.15 6.85 3.35 6.85 3.3 6.4 3.05 6.4 3.0 6.4 2.95 Q6.6 2.25 6.6 1.75 L6.55 1.45 6.55 1.5 6.5 1.6 6.5 1.5 6.5 1.4 Q6.5 1.3 6.4 1.1 L6.15 0.4 6.0 0.1 6.0 -0.15 5.65 -0.5 5.35 -0.8 Q5.15 -1.0 4.9 -1.05 L5.0 -1.45 5.0 -1.55 Q4.95 -1.5 4.85 -1.1 L4.55 -1.15 4.5 -1.15 4.5 -1.2 Q4.65 -1.6 4.65 -1.7 4.6 -1.65 4.5 -1.4 L4.4 -1.2 Q4.1 -1.35 3.7 -1.45 L4.1 -2.15 Q4.4 -2.7 4.5 -3.3 4.6 -3.25 4.75 -3.25 4.9 -3.25 5.0 -3.35 M8.0 1.7 L8.05 1.95 7.9 1.95 Q7.95 1.85 8.0 1.7 M3.7 -1.4 Q3.8 -1.25 4.0 -1.2 3.1 -0.2 2.65 0.35 L2.45 0.65 2.4 0.75 Q2.3 0.95 2.2 1.15 L2.2 1.05 2.25 1.0 2.3 0.8 2.45 0.55 2.65 0.15 3.2 -0.65 3.7 -1.4 M9.25 1.75 L9.3 1.9 9.4 2.35 9.45 2.4 9.45 2.55 9.35 2.65 9.4 3.1 9.35 3.15 9.2 3.65 9.05 4.0 8.8 4.25 8.45 4.4 7.65 4.45 Q7.95 4.15 8.05 3.8 L8.25 3.75 8.15 3.8 8.1 3.7 8.1 3.65 8.15 3.45 8.2 3.4 Q8.35 3.5 8.45 3.5 L8.6 3.5 8.6 3.45 8.2 3.05 8.25 2.55 8.2 2.3 8.35 2.3 8.9 2.5 8.95 2.45 9.0 2.45 9.0 2.4 8.85 2.25 8.45 2.05 8.35 2.05 8.15 2.0 8.1 1.8 Q8.15 1.6 8.25 1.5 8.95 1.6 9.25 1.75 M8.75 2.2 L8.75 2.2" fill="#bc6d3f" fill-rule="evenodd" stroke="none"/>
    <path d="M6.15 2.95 L5.95 2.85 5.95 2.9 5.9 2.95 6.15 3.05 6.15 3.1 6.05 3.25 5.9 3.55 5.6 3.3 5.6 3.25 Q5.55 3.25 5.55 3.35 5.55 3.5 5.75 3.75 L5.7 3.8 5.65 3.9 Q5.2 4.2 4.6 4.3 L3.6 4.05 3.1 3.85 2.95 3.75 2.45 3.35 2.4 3.3 Q2.25 2.9 2.25 2.4 2.25 1.75 2.45 1.2 L2.65 0.8 3.65 -0.5 3.7 -0.4 3.7 -0.6 3.95 -0.9 Q4.1 -1.05 4.3 -1.0 L4.35 -0.95 4.35 -0.9 Q4.35 -0.7 4.35 -0.6 L4.4 -0.65 Q4.4 -0.75 4.4 -0.9 4.75 -0.5 5.0 0.15 L5.65 1.35 Q6.15 2.5 6.15 2.85 L6.15 2.95 M4.3 -0.1 Q4.0 -0.25 3.8 -0.2 3.55 -0.05 3.55 0.3 L3.6 0.5 3.8 0.3 Q3.95 0.15 4.25 0.15 4.65 0.15 4.85 0.75 L4.95 1.55 5.0 1.55 5.05 1.1 Q5.05 0.25 4.3 -0.1 M7.0 -1.05 L7.05 -1.2 8.1 -0.35 8.4 -0.05 Q8.7 0.5 8.95 0.95 L8.9 1.05 8.7 0.85 7.65 -0.25 7.05 -0.75 7.0 -1.05 M5.2 2.35 L5.2 2.0 5.0 2.0 Q4.85 2.05 4.85 2.3 4.85 2.4 4.9 2.55 4.95 2.7 5.05 2.8 L5.2 2.7 5.2 2.35 M3.7 0.7 Q3.7 1.0 3.7 1.6 3.7 2.3 3.7 2.5 3.8 3.05 4.1 3.4 L4.15 3.35 4.15 3.2 Q4.15 2.8 4.05 2.25 3.85 1.35 3.75 0.7 L3.7 0.7 M3.15 1.45 L3.1 1.45 Q3.05 1.55 3.05 1.7 L3.1 1.85 3.15 1.9 3.2 1.8 Q3.2 1.6 3.15 1.45" fill="#62603e" fill-rule="evenodd" stroke="none"/>
    <path d="M4.0 -7.05 L4.0 -7.1 4.1 -7.5 4.3 -7.4 4.45 -7.05 4.7 -6.55 4.7 -6.4 Q4.35 -6.45 4.2 -6.55 L4.2 -6.6 4.1 -6.6 4.05 -6.7 4.0 -7.05 M4.6 -5.2 L4.5 -5.4 4.35 -5.8 Q4.35 -5.9 4.4 -5.95 L4.65 -6.2 4.8 -6.2 4.85 -6.0 4.95 -5.5 4.9 -5.4 4.7 -5.05 4.6 -5.2 M4.0 -3.6 L3.95 -3.75 Q4.0 -3.9 4.15 -4.05 L4.4 -4.3 4.35 -4.15 4.3 -3.85 Q4.3 -3.75 4.35 -3.6 L4.0 -3.6 M5.2 -4.65 L5.2 -4.6 Q5.2 -4.45 5.0 -4.1 4.9 -3.85 4.9 -3.65 L4.85 -3.6 4.8 -3.6 Q4.65 -3.6 4.7 -3.65 L4.65 -3.75 Q4.6 -3.8 4.6 -3.9 4.6 -4.1 4.75 -4.35 L5.05 -4.8 4.95 -4.8 5.05 -4.85 5.1 -4.85 5.2 -4.65 M3.55 -2.65 L3.55 -2.75 3.65 -2.85 3.9 -3.25 3.95 -3.35 4.05 -3.35 4.2 -3.3 4.3 -3.3 4.3 -3.1 4.15 -2.7 4.05 -2.5 4.05 -2.45 3.9 -2.35 3.85 -2.35 3.85 -2.3 3.8 -2.3 3.55 -2.55 3.55 -2.65 M-4.15 -5.15 L-4.15 -5.2 -3.65 -5.7 -3.6 -5.2 Q-3.55 -4.8 -3.85 -4.65 L-4.25 -4.85 -4.25 -4.9 -4.15 -5.15 M-4.4 -4.9 L-4.3 -4.8 Q-4.25 -4.75 -4.25 -4.65 -4.25 -4.55 -4.3 -4.5 L-4.35 -4.4 Q-4.55 -4.4 -4.6 -4.5 L-4.6 -4.65 Q-4.6 -4.85 -4.5 -4.9 L-4.4 -4.9 M-4.95 -0.9 L-4.95 -0.95 -5.0 -0.95 -5.0 -0.9 -4.9 -0.8 -4.9 -0.65 -4.9 -0.6 -5.35 -1.1 Q-5.45 -1.2 -5.45 -1.45 L-5.45 -1.5 -5.4 -1.5 Q-5.15 -1.45 -5.05 -1.2 -4.95 -1.05 -4.9 -0.85 L-4.95 -0.9" fill="#76280e" fill-rule="evenodd" stroke="none"/>
    <path d="M3.8 -8.15 L3.85 -8.25 Q4.2 -8.2 4.55 -7.85 L4.6 -7.8 4.8 -7.65 Q5.05 -7.2 5.2 -6.6 5.3 -6.15 5.35 -5.35 L5.9 -5.2 6.15 -4.7 6.3 -4.45 6.35 -4.2 Q6.35 -3.9 6.3 -3.85 L6.2 -3.7 Q6.5 -3.15 7.3 -2.35 8.6 -1.05 8.85 -0.7 9.3 0.05 9.55 0.95 9.75 1.75 9.75 2.55 L9.75 3.55 9.65 3.95 8.95 4.5 8.5 4.95 7.5 5.05 6.7 5.05 5.9 5.0 5.25 4.95 5.2 4.95 Q4.05 4.9 3.0 4.3 2.25 3.9 2.05 3.6 1.95 3.5 1.95 3.4 L1.95 3.35 Q1.9 3.0 1.9 2.4 1.9 1.7 1.9 1.4 L1.9 1.35 Q1.8 1.25 1.8 1.0 1.8 0.5 2.65 -0.65 L3.55 -1.8 Q3.3 -2.0 3.25 -2.1 3.2 -2.2 3.2 -2.6 3.2 -3.0 3.3 -3.15 L3.5 -3.45 Q3.45 -3.6 3.45 -3.75 L3.45 -3.9 Q3.6 -4.05 3.6 -4.25 3.6 -4.7 2.9 -4.75 L2.9 -4.9 Q2.9 -5.35 3.25 -5.85 L3.55 -6.3 Q3.5 -6.4 3.5 -6.55 3.5 -6.85 3.65 -7.45 3.7 -7.75 3.8 -7.95 L3.8 -8.15 M4.7 -6.55 L4.45 -7.05 4.3 -7.4 4.1 -7.5 4.0 -7.1 4.0 -7.05 Q4.0 -6.75 4.05 -6.7 L4.1 -6.65 4.1 -6.6 4.2 -6.6 4.2 -6.55 Q4.35 -6.45 4.7 -6.4 L4.75 -6.4 4.7 -6.55 M4.95 -5.5 L4.85 -6.0 4.8 -6.2 4.65 -6.2 4.4 -5.95 Q4.35 -5.9 4.35 -5.8 L4.5 -5.4 4.6 -5.2 4.7 -5.05 4.9 -5.4 4.95 -5.45 4.95 -5.5 M4.15 -6.3 L3.85 -6.05 Q3.55 -5.55 3.35 -5.1 L3.45 -5.0 4.45 -4.95 Q4.35 -5.1 4.25 -5.3 L4.15 -5.85 4.15 -6.1 Q4.2 -6.2 4.25 -6.25 L4.15 -6.3 M4.1 -4.65 L4.1 -4.65 M4.0 -3.6 L4.35 -3.6 Q4.3 -3.75 4.3 -3.85 L4.35 -4.15 4.4 -4.3 4.15 -4.05 Q4.0 -3.9 3.95 -3.75 L4.0 -3.6 M5.2 -5.05 L5.2 -5.05 M5.15 -3.95 Q5.25 -4.25 5.25 -4.45 L5.25 -4.6 5.2 -4.65 5.1 -4.85 5.05 -4.85 4.95 -4.8 5.05 -4.8 4.75 -4.35 Q4.6 -4.1 4.6 -3.9 4.6 -3.8 4.65 -3.75 L4.7 -3.65 Q4.65 -3.6 4.8 -3.6 L4.85 -3.6 4.9 -3.65 4.95 -3.65 5.05 -3.75 5.15 -3.95 M5.3 -4.75 L5.4 -4.75 5.45 -4.55 5.5 -4.55 5.5 -4.35 5.55 -4.1 5.8 -3.85 Q5.95 -3.9 5.95 -4.2 5.95 -4.35 5.75 -4.5 L5.2 -5.0 5.25 -4.85 5.3 -4.75 M4.45 -3.85 Q4.45 -3.75 4.45 -3.7 L4.45 -3.85 M5.85 -1.6 L6.0 -1.55 6.7 -1.05 Q6.55 -1.4 6.6 -1.9 6.6 -2.3 6.55 -2.55 L6.55 -2.6 Q6.25 -2.85 6.15 -3.1 L6.0 -3.2 5.8 -3.4 5.9 -3.5 5.8 -3.6 5.4 -3.65 5.3 -3.75 5.3 -3.7 Q5.2 -3.45 5.0 -3.35 4.9 -3.25 4.75 -3.25 4.6 -3.25 4.5 -3.3 4.4 -2.7 4.1 -2.15 L3.7 -1.45 Q4.1 -1.35 4.4 -1.2 L4.5 -1.4 Q4.6 -1.65 4.65 -1.7 4.65 -1.6 4.5 -1.2 L4.5 -1.15 4.55 -1.15 4.65 -1.1 4.8 -1.0 4.85 -1.1 Q4.95 -1.5 5.0 -1.55 L5.0 -1.45 4.9 -1.05 4.9 -1.0 5.35 -0.75 5.65 -0.5 6.0 -0.15 6.0 0.1 6.0 0.35 Q5.8 0.05 5.5 -0.2 5.15 -0.55 4.85 -0.75 L4.8 -0.5 4.8 -0.45 4.7 -0.55 4.8 -0.8 4.6 -0.9 4.4 -0.95 4.4 -0.9 Q4.4 -0.75 4.4 -0.65 L4.35 -0.6 Q4.35 -0.7 4.35 -0.9 L4.35 -0.95 4.35 -1.0 4.3 -1.0 Q4.1 -1.05 3.95 -0.9 L3.7 -0.6 3.65 -0.5 2.65 0.8 2.45 1.2 Q2.25 1.75 2.25 2.4 2.25 2.9 2.4 3.3 L2.45 3.35 2.95 3.75 3.1 3.85 3.6 4.05 4.6 4.3 Q5.2 4.2 5.65 3.9 L5.75 3.75 Q5.55 3.5 5.55 3.35 5.55 3.25 5.6 3.25 L5.6 3.3 5.9 3.55 6.05 3.25 6.15 3.1 6.15 3.05 5.9 2.95 5.95 2.9 5.95 2.85 6.15 2.95 6.2 2.95 Q6.5 2.35 6.5 1.75 L6.5 1.6 6.55 1.5 6.55 1.45 6.6 1.75 Q6.6 2.25 6.4 2.95 L6.4 3.0 6.35 3.05 6.4 3.05 6.85 3.3 6.85 3.35 6.35 3.15 6.3 3.2 6.25 3.35 6.15 3.55 6.05 3.8 Q6.15 3.95 6.2 4.1 L6.15 4.15 6.0 4.0 5.9 4.05 5.65 4.4 5.65 4.45 5.95 4.5 6.15 4.5 7.2 4.45 7.3 4.45 7.45 4.3 7.5 4.25 Q7.9 3.9 7.95 3.7 L8.05 3.3 7.9 3.15 Q7.4 2.75 7.3 2.4 7.3 2.35 7.35 2.3 7.55 2.4 7.95 2.8 L8.1 2.9 8.1 2.25 7.9 2.15 Q7.75 2.1 7.7 2.0 7.8 1.95 7.9 1.95 L8.05 1.95 8.0 1.7 7.95 1.3 Q7.8 0.65 7.55 0.15 L7.5 0.1 Q6.65 -0.75 6.0 -1.3 L5.8 -1.45 5.25 -1.8 5.25 -1.9 5.85 -1.6 M-6.55 -1.3 L-6.7 -1.45 -7.25 -2.05 Q-8.05 -2.95 -8.05 -3.2 L-8.05 -3.3 -8.0 -3.35 -8.0 -3.3 Q-7.95 -3.7 -7.6 -4.0 -7.45 -4.15 -7.35 -4.15 -7.25 -4.45 -6.8 -4.85 -6.55 -5.1 -6.4 -5.1 L-6.15 -5.35 -6.05 -5.55 -5.5 -6.1 -5.5 -6.05 -5.45 -6.05 -5.25 -5.9 -5.2 -5.9 Q-5.0 -5.55 -4.75 -5.4 L-4.65 -5.3 Q-4.5 -5.6 -4.1 -6.0 -3.5 -6.6 -3.45 -6.1 -3.3 -5.65 -3.3 -5.3 -3.3 -5.0 -3.5 -4.6 L-3.55 -4.5 Q-3.3 -4.35 -3.15 -4.0 -3.0 -3.7 -3.0 -3.35 L-3.05 -3.1 Q-3.05 -2.9 -2.75 -2.9 -2.55 -2.9 -2.55 -3.1 L-2.55 -3.3 -2.4 -3.65 Q-2.25 -4.05 -2.25 -4.7 L-2.1 -5.5 -1.9 -6.1 Q-1.8 -6.4 -1.45 -6.6 -0.85 -6.95 -0.2 -7.05 -0.1 -7.0 0.05 -6.9 L0.0 -6.95 0.2 -6.8 0.5 -6.65 0.65 -6.4 1.45 -5.5 1.65 -4.7 Q1.9 -3.65 2.05 -2.7 L2.05 -2.65 Q2.05 -2.1 1.95 -1.55 1.85 -0.75 1.65 -0.15 1.35 0.75 0.45 2.15 L0.45 2.2 Q0.45 2.35 0.3 2.8 0.1 3.4 -0.15 3.95 -1.0 5.5 -2.05 5.5 -2.95 5.5 -3.75 3.05 -4.15 1.9 -4.35 0.7 L-4.4 0.65 Q-4.4 0.35 -4.75 0.1 -4.85 0.2 -5.0 0.2 -5.65 0.2 -5.9 -0.3 L-5.95 -0.5 -6.25 -0.85 Q-6.45 -1.05 -6.55 -1.25 L-6.55 -1.3 M0.85 -5.75 Q0.0 -6.6 -0.65 -6.6 L-1.05 -6.55 -1.8 -5.75 -1.8 -5.7 Q-1.95 -5.35 -2.0 -5.0 L-2.0 -4.4 -1.95 -4.15 -1.9 -3.65 -1.95 -3.4 Q-1.75 -3.55 -1.0 -2.95 0.05 -2.05 0.05 -1.5 L0.05 -1.4 0.0 -1.35 -0.6 -2.25 Q-1.15 -2.9 -2.0 -2.95 L-2.05 -2.95 -2.05 -3.05 -2.1 -3.0 -2.1 -2.95 -2.15 -2.95 -2.2 -2.9 Q-1.1 -2.25 -0.45 -0.75 0.15 0.55 0.2 1.85 L0.2 1.8 Q0.25 1.6 0.35 1.35 L0.95 0.3 Q1.75 -1.25 1.75 -2.55 1.75 -3.2 1.4 -4.75 L1.35 -4.95 1.2 -5.4 0.85 -5.75 M4.65 -3.45 L4.65 -3.45 M4.3 -3.3 L4.2 -3.3 4.05 -3.35 3.95 -3.35 3.9 -3.25 3.65 -2.85 3.55 -2.75 3.55 -2.65 3.55 -2.55 3.8 -2.3 3.85 -2.3 3.85 -2.35 4.0 -2.35 4.05 -2.5 4.15 -2.7 4.3 -3.1 4.35 -3.25 4.3 -3.3 M3.85 -2.05 L3.85 -2.05 M3.7 -1.4 L3.2 -0.65 2.65 0.15 2.45 0.55 2.3 0.8 2.25 1.0 2.2 1.05 2.2 1.15 Q2.3 0.95 2.4 0.75 L2.45 0.65 2.65 0.35 Q3.1 -0.2 4.0 -1.2 3.8 -1.25 3.7 -1.4 M4.3 -0.1 Q5.05 0.25 5.05 1.1 L5.0 1.55 4.95 1.55 4.85 0.75 Q4.65 0.15 4.25 0.15 3.95 0.15 3.8 0.3 L3.6 0.5 3.55 0.3 Q3.55 -0.05 3.8 -0.2 4.0 -0.25 4.3 -0.1 M8.4 -0.05 Q7.9 -0.9 7.15 -1.95 L6.95 -2.2 6.85 -2.3 6.85 -2.15 Q6.9 -1.45 7.0 -1.05 L7.05 -0.75 7.65 -0.25 8.7 0.85 8.9 1.05 9.05 1.2 8.95 0.95 Q8.7 0.5 8.4 -0.05 M9.25 1.75 L9.2 1.55 Q8.5 1.1 7.7 0.3 7.85 0.65 8.0 1.35 L8.1 1.8 8.15 2.0 8.35 2.05 8.45 2.05 8.85 2.25 9.0 2.4 9.0 2.45 8.95 2.45 8.9 2.5 8.35 2.3 8.2 2.3 8.25 2.55 8.2 3.05 8.6 3.45 8.6 3.5 8.45 3.5 Q8.35 3.5 8.2 3.4 L8.15 3.45 8.1 3.65 8.1 3.75 8.05 3.8 Q7.95 4.15 7.65 4.45 L8.45 4.4 8.8 4.25 9.05 4.0 9.2 3.65 9.35 3.15 9.4 3.1 Q9.45 2.85 9.45 2.6 L9.45 2.55 9.45 2.4 9.4 2.35 9.3 1.9 9.25 1.75 M8.75 2.2 L8.75 2.2 M3.15 1.45 Q3.2 1.6 3.2 1.8 L3.15 1.9 3.1 1.85 3.05 1.7 Q3.05 1.55 3.1 1.45 L3.15 1.45 M3.7 0.7 L3.75 0.7 Q3.85 1.35 4.05 2.25 4.15 2.8 4.15 3.2 L4.15 3.35 4.1 3.4 Q3.8 3.05 3.7 2.5 3.7 2.3 3.7 1.6 3.7 1.0 3.7 0.7 M5.2 2.35 L5.2 2.7 5.05 2.8 Q4.95 2.7 4.9 2.55 4.85 2.4 4.85 2.3 4.85 2.05 5.0 2.0 L5.2 2.0 5.2 2.35 M0.1 2.0 Q0.05 0.75 -0.55 -0.6 -1.2 -2.1 -2.35 -2.75 L-2.35 -2.7 -2.3 -2.65 Q-2.1 -2.45 -2.1 -2.2 L-2.05 -2.1 Q-1.85 -1.5 -1.65 -0.75 -1.45 0.05 -1.4 0.7 L-1.35 1.15 -1.35 2.15 -1.4 2.2 -1.45 2.75 Q-1.5 3.0 -1.6 3.3 -1.85 4.2 -2.15 4.2 -2.6 4.2 -2.95 3.7 -2.75 3.9 -2.5 3.9 -2.2 3.9 -1.95 3.55 L-1.8 3.05 Q-1.55 2.3 -1.5 1.7 L-1.6 1.15 Q-2.35 1.1 -3.0 0.85 L-3.2 0.95 Q-3.45 0.95 -3.7 0.8 L-3.5 2.2 Q-3.45 2.65 -3.35 2.95 -3.5 2.5 -3.65 1.95 L-3.9 0.9 -3.95 0.9 -4.0 0.85 -4.0 0.9 -3.8 2.0 -3.7 2.35 Q-3.25 3.7 -2.3 4.6 L-1.7 4.6 -1.6 4.55 -1.35 4.45 -1.15 4.3 Q-0.6 3.9 -0.35 3.55 L-0.25 3.35 0.05 2.65 0.1 2.35 0.1 2.2 0.05 2.05 0.1 2.0 M5.35 4.35 L5.35 4.35 M-6.8 -1.9 L-6.55 -1.65 -6.35 -1.8 -6.35 -1.85 Q-6.2 -2.05 -6.15 -2.2 -6.25 -2.45 -6.6 -3.0 -7.05 -3.7 -7.05 -3.8 L-7.2 -3.65 -7.3 -3.65 -7.4 -3.45 -7.7 -3.05 -7.75 -3.0 -7.65 -2.95 -6.85 -1.95 -6.8 -1.9 M-5.3 -5.5 L-5.6 -5.45 Q-5.75 -5.3 -5.9 -5.05 L-5.9 -5.0 -6.0 -4.9 -6.05 -4.85 -6.1 -4.7 -6.0 -4.6 -5.9 -4.4 -5.45 -3.85 -5.2 -3.5 -5.05 -3.3 -4.6 -3.95 -4.8 -4.55 -5.15 -5.4 -5.2 -5.5 -5.3 -5.5 M-6.0 -2.5 Q-5.8 -2.25 -5.7 -2.2 L-5.6 -2.2 Q-5.5 -2.6 -5.15 -3.15 L-5.45 -3.55 -5.45 -3.45 -5.75 -3.85 Q-6.15 -4.3 -6.3 -4.55 L-6.35 -4.45 -6.4 -4.35 -6.5 -4.25 -6.65 -4.15 -6.8 -4.0 -6.85 -4.0 -6.9 -3.95 -6.85 -3.85 Q-6.65 -3.45 -6.3 -2.9 L-6.0 -2.5 M-6.0 -1.6 Q-6.15 -1.45 -6.15 -1.35 -6.15 -1.15 -5.95 -0.95 -5.9 -1.45 -5.8 -1.75 L-5.85 -1.75 -6.0 -1.6 M-6.3 -1.35 Q-6.3 -1.25 -6.25 -1.2 L-6.25 -1.4 -6.3 -1.35 M-4.25 -4.85 L-3.85 -4.65 Q-3.55 -4.8 -3.6 -5.2 L-3.65 -5.7 -4.15 -5.2 -4.15 -5.15 -4.3 -5.05 -4.35 -5.0 -4.35 -4.95 -4.25 -4.9 -4.25 -4.85 M-4.4 -4.9 L-4.5 -4.9 Q-4.6 -4.85 -4.6 -4.65 L-4.6 -4.5 Q-4.55 -4.4 -4.35 -4.4 L-4.3 -4.5 Q-4.25 -4.55 -4.25 -4.65 -4.25 -4.75 -4.3 -4.8 L-4.4 -4.9 M-4.75 -4.9 L-4.75 -4.9 M-3.8 -4.1 Q-3.9 -4.0 -4.05 -4.0 L-4.2 -4.0 -4.3 -4.0 -4.9 -3.1 -4.9 -3.05 -4.95 -3.0 -5.25 -2.45 -5.25 -2.4 -5.3 -2.4 -5.35 -2.15 -5.35 -2.1 -5.3 -2.05 Q-5.3 -1.95 -5.2 -1.9 L-4.9 -1.95 Q-4.55 -2.1 -4.3 -2.25 L-4.15 -2.4 -4.15 -2.45 -4.1 -2.45 Q-4.0 -2.45 -3.85 -2.7 L-3.75 -3.0 -3.7 -3.0 -3.65 -2.9 Q-3.7 -2.75 -3.8 -2.6 L-3.4 -2.9 -3.4 -2.95 -3.35 -3.0 Q-3.3 -3.15 -3.3 -3.35 L-3.3 -3.55 -3.45 -3.9 -3.5 -3.95 -3.8 -4.1 M-3.05 -2.7 L-3.05 -2.6 -3.1 -2.6 -3.1 -2.55 -3.15 -2.65 -3.3 -2.5 Q-3.4 -2.1 -3.75 -1.6 -4.1 -1.1 -4.55 -0.65 L-4.55 -0.3 -4.5 -0.2 -4.1 0.2 Q-3.9 0.35 -3.65 0.45 L-3.3 0.45 -2.5 0.35 -2.45 0.3 Q-2.05 0.05 -2.05 -0.1 L-2.05 -0.15 -1.85 -0.4 -1.9 -0.7 -2.0 -1.1 -2.45 -2.45 -2.45 -2.5 -2.5 -2.45 -2.6 -2.5 -2.7 -2.5 Q-2.9 -2.5 -3.05 -2.7 M-3.9 -2.05 L-4.5 -1.6 -4.7 -1.35 -4.8 -1.3 Q-4.65 -1.1 -4.6 -0.9 -4.2 -1.1 -3.95 -1.65 L-3.7 -2.2 -3.9 -2.05 M-4.9 -0.8 L-4.85 -0.8 -4.95 -0.9 -4.9 -0.85 Q-4.95 -1.05 -5.05 -1.2 -5.15 -1.45 -5.4 -1.5 L-5.45 -1.5 -5.6 -1.45 Q-5.8 -1.3 -5.8 -0.85 L-5.75 -0.45 -5.65 -0.35 -5.65 -0.25 Q-5.6 -0.15 -5.35 -0.15 -5.25 -0.05 -5.1 -0.05 -5.0 -0.05 -4.95 -0.3 -4.9 -0.5 -4.9 -0.65 L-4.9 -0.8 M-1.85 -0.15 L-1.85 -0.15 M-1.65 0.65 L-1.75 0.1 -2.2 0.45 -2.55 0.65 -1.65 0.7 -1.65 0.65" fill="#101010" fill-rule="evenodd" stroke="none"/>
  </g>
</svg>
