<?xml version="1.0" encoding="UTF-8" standalone="no"?>
<svg xmlns:ffdec="https://www.free-decompiler.com/flash" xmlns:xlink="http://www.w3.org/1999/xlink" ffdec:objectType="shape" height="13.1px" width="9.15px" xmlns="http://www.w3.org/2000/svg">
  <g transform="matrix(1.0, 0.0, 0.0, 1.0, 7.45, 12.4)">
    <path d="M0.15 -9.4 Q0.5 -9.15 0.6 -9.0 L0.75 -8.7 0.8 -8.5 Q1.1 -7.65 1.05 -7.3 1.05 -6.45 1.15 -6.05 L1.3 -5.7 1.35 -5.55 1.55 -5.05 1.7 -4.75 Q1.7 -4.45 1.6 -4.15 1.35 -3.1 -0.05 -2.9 L-0.1 -2.55 -0.1 -2.3 Q-0.1 -2.2 -0.25 -2.15 L-0.35 -2.15 -3.9 -5.35 Q-3.95 -5.85 -3.8 -6.35 -3.6 -6.75 -3.25 -7.0 -3.15 -7.1 -3.0 -7.15 -2.8 -7.25 -2.65 -7.35 L-2.25 -7.6 Q-2.15 -7.65 -2.1 -7.7 L-1.85 -7.9 -1.6 -8.15 Q-1.45 -8.3 -1.3 -8.55 -0.95 -9.15 -0.5 -9.3 L-0.5 -9.35 0.05 -9.4 0.15 -9.4 M0.85 -7.55 L0.85 -7.65 Q0.85 -8.1 0.75 -8.45 0.6 -8.85 0.35 -9.1 0.2 -9.25 0.1 -9.35 -0.15 -9.25 -0.4 -9.1 L-0.65 -8.9 -1.55 -8.0 Q-1.65 -7.8 -1.75 -7.7 L-1.8 -7.65 -1.95 -7.55 -1.95 -7.5 -2.0 -7.45 -2.15 -7.35 -2.15 -7.3 Q-2.45 -7.1 -2.9 -6.8 L-3.2 -6.6 Q-3.4 -6.4 -3.5 -6.2 -3.7 -5.8 -3.65 -5.4 L-3.55 -5.1 -0.35 -2.85 -0.45 -3.4 0.05 -3.25 0.7 -3.5 0.85 -3.55 0.95 -3.65 1.0 -3.65 1.0 -3.7 1.15 -3.85 1.25 -4.0 1.35 -4.2 Q1.35 -4.4 1.35 -4.6 L1.35 -4.65 1.2 -5.15 1.0 -5.7 Q0.4 -6.95 0.35 -7.25 0.55 -6.75 0.95 -6.1 0.9 -6.25 0.9 -6.3 L0.95 -6.5 0.9 -6.85 0.85 -7.55 M1.3 -5.55 L1.3 -5.55" fill="#111111" fill-rule="evenodd" stroke="none"/>
    <path d="M1.3 -5.55 L1.3 -5.55" fill="#cc6666" fill-rule="evenodd" stroke="none"/>
    <path d="M-0.65 -8.9 L-0.4 -9.1 Q-0.15 -9.25 0.1 -9.35 0.2 -9.25 0.35 -9.1 0.6 -8.85 0.75 -8.45 0.85 -8.1 0.85 -7.65 L0.85 -7.55 0.7 -7.85 Q0.5 -8.25 0.25 -8.5 0.0 -8.7 -0.65 -8.9 M1.2 -5.15 L1.35 -4.65 1.35 -4.6 Q1.35 -4.4 1.35 -4.2 L1.25 -4.0 1.15 -3.85 1.0 -3.7 1.0 -3.65 0.95 -3.65 0.85 -3.55 0.7 -3.5 0.05 -3.25 -0.45 -3.4 -0.35 -2.85 -3.55 -5.1 -0.85 -5.05 Q0.0 -4.65 0.6 -4.65 L0.8 -4.65 Q1.05 -4.8 1.2 -5.15" fill="#c8cf72" fill-rule="evenodd" stroke="none"/>
    <path d="M0.85 -7.55 L0.9 -6.85 0.95 -6.5 0.9 -6.3 Q0.9 -6.25 0.95 -6.1 0.55 -6.75 0.35 -7.25 0.4 -6.95 1.0 -5.7 L1.2 -5.15 Q1.05 -4.8 0.8 -4.65 L0.6 -4.65 Q0.0 -4.65 -0.85 -5.05 L-3.55 -5.1 -3.65 -5.4 Q-3.7 -5.8 -3.5 -6.2 -3.4 -6.4 -3.2 -6.6 L-2.9 -6.8 Q-2.45 -7.1 -2.15 -7.3 L-2.15 -7.35 -2.0 -7.45 -1.95 -7.5 -1.95 -7.55 -1.8 -7.65 -1.75 -7.7 Q-1.65 -7.8 -1.55 -8.0 L-0.65 -8.9 Q0.0 -8.7 0.25 -8.5 0.5 -8.25 0.7 -7.85 L0.85 -7.55 M-0.45 -3.4 L-0.35 -2.85 -0.45 -3.4" fill="#ffffcc" fill-rule="evenodd" stroke="none"/>
    <path d="M-4.9 -8.0 L-4.9 -7.2 Q-4.85 -6.85 -4.6 -6.5 L-4.5 -6.35 -4.2 -6.15 -3.95 -6.05 -3.9 -6.1 -3.75 -6.05 Q-3.25 -6.25 -2.3 -5.85 L-2.2 -5.8 Q-1.25 -5.95 -0.55 -5.75 0.0 -5.65 0.05 -5.45 L0.05 -5.3 Q0.25 -4.0 0.05 -3.1 -0.25 -1.95 -1.05 -1.35 -1.05 -0.55 -2.4 -0.3 L-2.6 -0.2 Q-2.65 0.05 -3.35 0.35 -4.05 0.7 -4.5 0.7 -5.1 0.7 -5.7 -0.1 -6.2 -0.75 -6.2 -1.1 L-6.1 -1.45 -6.0 -1.7 Q-6.1 -1.85 -6.15 -2.15 -6.2 -2.7 -6.05 -2.8 -6.3 -3.3 -6.4 -3.8 L-6.45 -4.0 -6.45 -4.15 -6.4 -4.2 Q-6.3 -4.35 -5.85 -4.6 -5.65 -4.8 -4.7 -5.2 L-4.65 -5.2 -4.55 -5.35 -4.4 -5.55 Q-4.95 -5.8 -5.2 -6.05 -5.45 -6.4 -5.5 -6.55 L-5.55 -7.0 Q-5.6 -7.45 -5.55 -7.8 L-6.0 -7.65 Q-6.65 -7.4 -6.65 -6.9 L-6.6 -6.6 -6.65 -6.6 Q-6.65 -6.55 -6.7 -6.55 -7.05 -6.5 -7.45 -7.45 -7.5 -7.85 -7.4 -8.0 -7.15 -8.35 -6.85 -8.9 -6.5 -9.4 -5.95 -8.95 L-5.3 -8.3 Q-5.15 -8.55 -4.9 -8.75 L-4.3 -9.2 Q-4.1 -9.4 -4.1 -9.65 -4.15 -9.9 -4.35 -10.25 L-4.4 -10.3 -4.4 -10.25 Q-4.45 -9.95 -4.65 -9.95 L-4.9 -10.25 Q-5.05 -9.85 -5.25 -9.85 -5.45 -9.8 -5.5 -10.05 L-5.5 -10.25 -5.7 -10.2 Q-5.9 -10.15 -5.95 -10.4 -5.95 -10.55 -5.85 -10.65 L-5.9 -10.7 Q-6.15 -10.9 -6.15 -10.95 -6.2 -11.25 -5.9 -11.25 L-5.85 -11.25 -5.9 -11.4 Q-6.0 -12.0 -5.5 -11.65 L-5.45 -11.6 -5.45 -11.65 -5.6 -11.85 -5.45 -12.1 Q-5.25 -12.25 -5.1 -12.25 L-5.05 -11.95 Q-4.95 -12.15 -4.8 -12.3 -4.45 -12.55 -4.4 -12.15 -4.35 -12.05 -4.45 -11.9 -4.0 -12.3 -3.9 -11.7 L-4.0 -11.55 Q-3.7 -11.6 -3.65 -11.35 -3.65 -11.3 -3.85 -11.15 L-4.0 -11.05 Q-3.9 -10.95 -3.85 -10.75 L-3.85 -10.6 Q-3.95 -10.55 -4.0 -10.5 L-3.8 -10.15 -3.7 -10.3 Q-3.7 -10.45 -3.5 -10.5 -3.35 -10.4 -3.05 -10.25 -2.65 -10.1 -2.3 -10.05 -2.25 -9.85 -2.25 -9.7 -2.2 -9.55 -2.2 -9.3 L-2.25 -9.3 Q-2.3 -8.85 -2.55 -8.85 L-2.75 -9.3 Q-2.95 -9.7 -3.15 -9.7 L-3.35 -9.55 Q-3.45 -9.45 -3.55 -9.4 L-3.6 -9.4 Q-3.6 -9.0 -3.8 -8.8 -3.9 -8.65 -4.35 -8.45 -4.7 -8.3 -4.85 -8.1 L-4.75 -8.4 -4.7 -8.45 -4.45 -8.65 Q-4.1 -8.85 -3.95 -9.0 -3.85 -9.15 -3.8 -9.4 L-3.85 -9.5 -3.85 -9.7 -3.8 -9.6 -3.75 -9.6 -3.65 -9.6 -3.5 -9.75 -3.5 -9.8 -3.25 -9.85 Q-3.05 -9.85 -2.9 -9.75 -3.1 -10.05 -3.35 -10.2 L-3.4 -10.2 -3.55 -10.05 -3.55 -10.0 -3.7 -9.9 -3.8 -9.75 -3.8 -9.7 -3.85 -9.75 Q-3.85 -9.9 -4.05 -10.3 L-4.2 -10.5 -4.35 -10.5 -4.25 -10.35 Q-4.05 -10.0 -4.05 -9.95 -4.0 -9.85 -4.0 -9.5 L-4.0 -9.45 -4.05 -9.05 Q-4.9 -8.95 -5.25 -8.05 -5.45 -7.4 -5.35 -6.8 -5.3 -6.55 -5.25 -6.5 -5.25 -6.35 -5.0 -6.15 L-4.7 -5.95 -4.65 -5.9 Q-4.05 -5.55 -3.8 -5.55 L-3.75 -5.5 -3.65 -5.55 -3.6 -5.65 -3.65 -5.65 -4.55 -6.2 -4.65 -6.25 Q-5.0 -6.45 -5.05 -6.8 L-5.05 -7.05 -5.05 -7.35 -5.0 -7.5 -5.0 -7.65 -4.9 -8.0 M-4.7 -12.25 Q-4.8 -12.25 -4.85 -11.95 L-4.95 -11.5 -4.95 -11.4 Q-4.9 -11.45 -4.85 -11.5 -4.8 -11.55 -4.7 -11.65 L-4.6 -11.85 Q-4.5 -12.1 -4.5 -12.15 -4.5 -12.25 -4.7 -12.25 M-5.2 -12.15 L-5.4 -12.0 -5.45 -11.85 -5.3 -11.65 -5.2 -11.45 Q-5.15 -11.4 -5.05 -11.4 L-5.2 -12.1 -5.2 -12.15 M-5.1 -10.75 Q-5.35 -10.75 -5.35 -11.0 -5.4 -11.25 -5.2 -11.35 L-5.3 -11.4 -5.75 -11.7 Q-5.85 -11.55 -5.8 -11.45 -5.8 -11.4 -5.65 -11.2 L-5.6 -11.15 Q-5.95 -11.2 -6.0 -11.0 -5.95 -10.9 -5.65 -10.8 L-5.6 -10.8 Q-5.8 -10.7 -5.75 -10.5 L-5.75 -10.4 -5.65 -10.4 -5.4 -10.55 Q-5.45 -10.4 -5.45 -10.25 -5.4 -10.05 -5.25 -10.1 -5.2 -10.1 -5.05 -10.35 L-4.95 -10.55 -4.75 -10.35 -4.7 -10.25 -4.6 -10.3 -4.6 -10.5 -4.65 -10.65 -4.3 -10.65 -4.2 -10.8 Q-4.3 -10.9 -4.45 -10.95 L-4.45 -11.0 -4.4 -11.0 -4.4 -11.05 Q-4.35 -11.05 -4.25 -11.1 -4.0 -11.2 -3.95 -11.3 -4.1 -11.45 -4.25 -11.4 -4.1 -11.7 -4.1 -11.8 L-4.15 -11.85 Q-4.35 -11.85 -4.55 -11.6 L-4.75 -11.35 Q-4.65 -11.3 -4.6 -11.15 L-4.65 -11.05 -4.65 -10.95 -4.7 -10.95 Q-4.85 -10.95 -4.85 -10.8 L-5.1 -10.75 M-5.25 -11.05 L-5.2 -10.95 Q-5.15 -10.85 -5.0 -10.85 -4.9 -10.9 -4.8 -11.0 -4.75 -11.05 -4.75 -11.15 -4.75 -11.35 -5.0 -11.3 -5.25 -11.25 -5.25 -11.05 M-2.9 -9.85 Q-2.7 -9.6 -2.6 -9.3 L-2.45 -9.1 -2.4 -9.3 -2.4 -9.45 Q-2.35 -9.7 -2.35 -9.85 L-2.75 -10.05 -3.25 -10.2 -2.9 -9.85 M-5.4 -8.1 L-5.4 -8.2 -5.45 -8.15 -5.55 -8.25 -5.7 -8.25 -5.7 -8.3 -5.85 -8.3 -5.95 -8.25 Q-6.25 -8.25 -6.45 -8.1 -6.6 -8.0 -6.65 -7.85 L-6.7 -7.85 Q-6.85 -7.7 -6.8 -7.55 L-6.85 -7.55 -6.85 -7.45 -6.8 -7.45 -6.8 -7.35 -6.65 -7.55 Q-6.45 -7.8 -6.0 -7.85 -5.7 -7.85 -5.6 -8.0 -5.5 -8.1 -5.4 -8.1 M-6.1 -8.85 Q-6.25 -8.95 -6.4 -8.95 -6.65 -8.9 -7.0 -8.3 L-7.2 -8.0 -7.35 -7.7 -7.35 -7.6 -7.25 -7.3 -7.2 -7.2 -6.9 -6.9 -6.85 -6.9 -6.95 -7.1 -6.9 -7.15 -6.95 -7.35 Q-7.0 -7.5 -6.95 -7.65 L-6.75 -7.9 -6.5 -8.25 -6.0 -8.35 -5.9 -8.4 -5.65 -8.4 -5.8 -8.55 Q-5.95 -8.75 -6.1 -8.85 M-5.15 -4.4 L-5.15 -4.45 Q-4.8 -4.75 -4.8 -4.8 L-4.75 -4.95 -4.9 -4.9 -4.85 -4.9 Q-5.7 -4.55 -6.05 -4.25 -6.25 -4.0 -6.25 -3.8 L-6.25 -3.75 Q-6.25 -3.6 -6.15 -3.5 L-6.15 -3.35 -5.95 -2.95 -5.95 -2.9 -5.85 -2.8 Q-5.75 -2.8 -5.55 -2.65 -5.3 -2.45 -5.05 -2.1 -4.8 -1.8 -4.8 -1.65 -4.75 -1.6 -4.85 -1.55 -4.65 -1.35 -4.4 -1.25 -4.3 -1.35 -4.15 -1.5 L-3.9 -1.9 Q-3.8 -2.05 -3.2 -1.9 L-3.15 -1.9 -3.05 -2.0 -2.75 -2.05 Q-2.4 -2.05 -2.1 -2.2 L-2.05 -2.2 Q-1.9 -2.2 -1.9 -2.1 L-1.75 -2.1 Q-1.6 -2.15 -1.4 -2.25 -1.3 -2.25 -1.25 -2.15 -1.2 -2.1 -1.1 -1.75 -0.65 -2.15 -0.35 -2.75 0.1 -3.7 -0.05 -4.5 L-0.1 -4.7 -0.15 -5.05 -0.2 -5.1 -0.1 -5.2 Q-0.15 -5.3 -0.2 -5.35 L-0.15 -5.4 -0.2 -5.4 -0.4 -5.5 -1.75 -5.55 -1.4 -5.35 -1.25 -5.2 -1.15 -5.2 -0.95 -5.05 -0.85 -5.05 -0.85 -5.0 -0.75 -5.05 -0.65 -5.15 -0.55 -5.2 Q-0.5 -5.25 -0.5 -5.15 -0.45 -4.8 -1.5 -4.4 -2.45 -4.05 -4.25 -3.65 L-5.15 -3.65 -5.6 -3.7 Q-5.8 -3.75 -6.05 -3.85 L-6.05 -4.0 Q-5.95 -3.9 -5.85 -3.85 L-5.5 -3.85 Q-5.45 -3.85 -5.3 -4.2 L-5.15 -4.4 M-5.6 -1.95 L-5.7 -2.05 -5.75 -2.15 -5.85 -2.25 -5.85 -2.3 -5.9 -2.2 Q-5.9 -2.1 -5.9 -1.9 -5.85 -1.75 -5.7 -1.65 -5.5 -1.45 -5.3 -1.5 L-5.15 -1.6 -5.2 -1.65 -5.35 -1.65 -5.6 -1.95 M-5.35 -0.7 L-5.45 -0.85 Q-5.65 -1.1 -5.65 -1.2 L-5.9 -1.55 -5.95 -1.4 -6.05 -1.2 Q-6.05 -0.85 -5.7 -0.35 L-5.6 -0.25 Q-5.1 0.45 -4.25 0.45 -4.0 0.45 -3.4 0.05 L-3.1 -0.1 -3.85 -0.1 Q-3.9 -0.05 -3.95 -0.05 -4.15 0.0 -4.55 -0.2 L-5.2 -0.5 Q-5.3 -0.55 -5.35 -0.7 M-1.35 -4.7 L-1.3 -4.75 Q-1.25 -4.75 -1.2 -4.75 L-1.15 -4.8 -1.2 -4.9 Q-1.2 -5.05 -1.4 -5.1 -1.55 -5.4 -1.95 -5.55 -2.25 -5.75 -2.65 -5.8 -2.95 -6.0 -3.15 -5.95 L-3.55 -5.85 -3.55 -5.8 Q-3.45 -5.7 -3.45 -5.65 L-3.45 -5.5 -3.45 -5.45 Q-3.5 -5.3 -3.65 -5.3 L-3.95 -5.35 -4.3 -5.5 Q-4.6 -5.2 -4.55 -4.75 L-4.55 -4.7 -4.9 -4.35 -5.05 -4.1 Q-5.2 -3.85 -5.3 -3.75 -4.95 -3.7 -4.5 -3.75 L-3.65 -3.85 Q-2.9 -4.0 -2.25 -4.2 -1.85 -4.35 -1.5 -4.55 L-1.3 -4.7 -1.35 -4.7 M-5.45 -3.75 L-5.45 -3.8 -5.5 -3.75 -5.45 -3.75 M-5.05 -1.75 L-5.15 -1.9 -5.45 -2.3 -5.45 -2.35 Q-5.55 -2.5 -5.7 -2.55 L-5.75 -2.55 Q-5.9 -2.6 -5.9 -2.4 -5.8 -2.35 -5.55 -1.95 -5.45 -1.75 -5.1 -1.75 L-5.05 -1.75 M-5.0 -1.4 Q-5.2 -1.25 -5.25 -1.25 L-5.3 -1.25 -5.1 -1.1 Q-4.7 -0.8 -4.35 -0.8 -4.15 -0.85 -4.05 -0.9 L-3.45 -1.65 -3.5 -1.65 -3.7 -1.7 -3.75 -1.7 -3.8 -1.55 Q-3.9 -1.5 -4.1 -1.25 -4.3 -1.1 -4.35 -0.95 L-4.45 -0.95 Q-4.65 -0.95 -5.05 -1.2 -5.1 -1.3 -5.05 -1.2 L-4.8 -1.2 -4.6 -1.15 -4.55 -1.2 -4.95 -1.45 -5.0 -1.4 M-3.6 -1.3 L-3.9 -1.0 -4.05 -0.8 -4.4 -0.75 Q-4.8 -0.75 -5.15 -0.95 -5.4 -1.1 -5.45 -1.3 L-5.6 -1.35 Q-5.55 -1.3 -5.5 -1.15 L-5.4 -1.0 Q-5.3 -0.8 -5.05 -0.65 L-3.9 -0.6 Q-3.75 -0.6 -3.5 -0.85 L-3.35 -1.0 -3.3 -1.1 -3.1 -1.35 -3.05 -1.4 -3.1 -1.5 -3.1 -1.6 -3.35 -1.6 Q-3.4 -1.5 -3.6 -1.3 M-3.15 -1.0 L-3.3 -0.8 -3.35 -0.85 -3.7 -0.5 Q-3.0 -0.75 -2.8 -1.15 -2.65 -1.45 -2.7 -1.8 L-2.75 -1.8 Q-2.9 -1.85 -2.85 -1.65 L-2.8 -1.55 -3.0 -1.2 -3.15 -1.0 M-2.6 -1.65 Q-2.65 -1.4 -2.75 -1.1 -3.0 -0.65 -3.45 -0.5 L-3.8 -0.45 -4.45 -0.45 -4.1 -0.4 -3.9 -0.35 -3.75 -0.35 -3.75 -0.3 Q-3.4 -0.3 -3.1 -0.35 -2.55 -0.4 -2.3 -0.9 L-2.35 -0.9 -2.25 -1.05 Q-2.1 -1.3 -2.15 -1.45 L-2.1 -1.7 -2.1 -1.95 -2.6 -1.8 -2.6 -1.65 M-1.4 -1.85 L-1.45 -2.0 Q-1.75 -1.8 -1.85 -1.8 -1.85 -1.6 -1.9 -1.4 L-1.95 -1.35 -2.1 -0.9 -2.1 -0.85 -2.2 -0.6 -1.85 -0.75 Q-1.55 -0.85 -1.45 -1.1 -1.35 -1.15 -1.35 -1.3 -1.3 -1.4 -1.35 -1.55 L-1.3 -1.55 -1.4 -1.85" fill="#111111" fill-rule="evenodd" stroke="none"/>
    <path d="M-5.9 -1.9 Q-5.9 -2.1 -5.9 -2.2 L-5.85 -2.3 -5.85 -2.25 -5.75 -2.15 -5.7 -2.05 -5.6 -1.95 -5.9 -1.9 M-3.1 -1.35 Q-3.15 -1.4 -3.3 -1.4 L-3.6 -1.3 Q-3.4 -1.5 -3.35 -1.6 L-3.1 -1.6 -3.1 -1.5 -3.05 -1.4 -3.1 -1.35 M-2.1 -1.7 L-2.1 -1.75 -2.6 -1.65 -2.6 -1.8 -2.1 -1.95 -2.1 -1.7 M-1.9 -1.4 Q-1.85 -1.6 -1.85 -1.8 -1.75 -1.8 -1.45 -2.0 L-1.4 -1.85 -1.9 -1.4" fill="#ffffcc" fill-rule="evenodd" stroke="none"/>
    <path d="M-5.6 -1.95 L-5.35 -1.65 -5.2 -1.65 -5.15 -1.6 -5.3 -1.5 Q-5.5 -1.45 -5.7 -1.65 -5.85 -1.75 -5.9 -1.9 L-5.6 -1.95 M-5.7 -0.35 Q-6.05 -0.85 -6.05 -1.2 L-5.95 -1.4 -5.9 -1.55 -5.65 -1.2 Q-5.65 -1.1 -5.45 -0.85 L-5.35 -0.7 -5.45 -0.8 -5.6 -0.55 -5.7 -0.35 M-5.55 -1.95 Q-5.8 -2.35 -5.9 -2.4 -5.9 -2.6 -5.75 -2.55 L-5.7 -2.55 Q-5.55 -2.5 -5.45 -2.35 L-5.45 -2.3 Q-5.45 -2.2 -5.5 -2.1 L-5.55 -1.95 M-3.1 -1.35 L-3.3 -1.1 -3.35 -1.0 -3.5 -0.85 Q-3.75 -0.6 -3.9 -0.6 L-5.05 -0.65 Q-5.3 -0.8 -5.4 -1.0 L-5.5 -1.15 Q-5.55 -1.3 -5.6 -1.35 L-5.45 -1.3 Q-5.4 -1.1 -5.15 -0.95 -4.8 -0.75 -4.4 -0.75 L-4.05 -0.8 -3.9 -1.0 -3.6 -1.3 -3.3 -1.4 Q-3.15 -1.4 -3.1 -1.35 M-2.1 -1.7 L-2.15 -1.45 Q-2.1 -1.3 -2.25 -1.05 L-2.35 -0.9 -2.3 -0.9 Q-2.55 -0.4 -3.1 -0.35 -3.4 -0.3 -3.75 -0.3 L-3.75 -0.35 -3.9 -0.35 -4.1 -0.4 -4.45 -0.45 -3.8 -0.45 -3.45 -0.5 Q-3.0 -0.65 -2.75 -1.1 -2.65 -1.4 -2.6 -1.65 L-2.1 -1.75 -2.1 -1.7 M-1.9 -1.4 L-1.4 -1.85 -1.3 -1.55 -1.35 -1.55 Q-1.3 -1.4 -1.35 -1.3 -1.35 -1.15 -1.45 -1.1 -1.55 -0.85 -1.85 -0.75 L-2.2 -0.6 -2.1 -0.85 -2.1 -0.9 -1.95 -1.35 -1.9 -1.4" fill="#c8cf72" fill-rule="evenodd" stroke="none"/>
    <path d="M-5.7 -0.35 L-5.6 -0.55 -5.45 -0.8 -5.35 -0.7 Q-5.3 -0.55 -5.2 -0.5 L-4.55 -0.2 Q-4.15 0.0 -3.95 -0.05 -3.9 -0.05 -3.85 -0.1 L-3.1 -0.1 -3.4 0.05 Q-4.0 0.45 -4.25 0.45 -5.1 0.45 -5.6 -0.25 L-5.7 -0.35 M-5.45 -2.35 L-5.45 -2.3 -5.15 -1.9 -5.05 -1.75 -5.1 -1.75 Q-5.45 -1.75 -5.55 -1.95 L-5.5 -2.1 Q-5.45 -2.2 -5.45 -2.3 L-5.45 -2.35 M-5.0 -1.4 L-4.95 -1.45 -4.55 -1.2 -4.6 -1.15 -4.8 -1.2 -5.05 -1.2 Q-5.1 -1.3 -5.05 -1.2 -4.65 -0.95 -4.45 -0.95 L-4.35 -0.95 Q-4.3 -1.1 -4.1 -1.25 -3.9 -1.5 -3.8 -1.55 L-3.75 -1.7 -3.7 -1.7 -3.5 -1.65 -3.45 -1.65 -4.05 -0.9 Q-4.15 -0.85 -4.35 -0.8 -4.7 -0.8 -5.1 -1.1 L-5.3 -1.25 -5.25 -1.25 Q-5.2 -1.25 -5.0 -1.4 M-3.15 -1.0 L-3.0 -1.2 -2.8 -1.55 -2.85 -1.65 Q-2.9 -1.85 -2.75 -1.8 L-2.7 -1.8 Q-2.65 -1.45 -2.8 -1.15 -3.0 -0.75 -3.7 -0.5 L-3.35 -0.85 -3.3 -0.8 -3.15 -1.0" fill="#9aa237" fill-rule="evenodd" stroke="none"/>
    <path d="M-5.05 -7.05 L-5.05 -6.8 Q-5.0 -6.45 -4.65 -6.25 L-4.55 -6.2 -3.65 -5.65 -3.6 -5.65 -3.65 -5.55 -4.75 -6.05 -5.0 -6.15 Q-5.25 -6.35 -5.25 -6.5 -5.3 -6.55 -5.35 -6.8 -5.45 -7.4 -5.25 -8.05 -4.9 -8.95 -4.05 -9.05 L-4.0 -9.45 -4.0 -9.5 Q-3.9 -9.55 -3.8 -9.7 L-3.75 -9.6 -3.8 -9.6 -3.85 -9.7 -3.85 -9.5 -3.8 -9.4 Q-3.85 -9.15 -3.95 -9.0 -4.1 -8.85 -4.45 -8.65 L-4.7 -8.45 -4.85 -8.3 Q-5.1 -8.05 -5.1 -7.5 -5.1 -7.25 -5.05 -7.05 M-2.9 -9.85 L-3.25 -10.2 -2.75 -10.05 -2.35 -9.85 Q-2.35 -9.7 -2.4 -9.45 L-2.4 -9.3 -2.45 -9.1 -2.6 -9.3 Q-2.7 -9.6 -2.9 -9.85 M-7.25 -7.3 L-7.35 -7.6 -7.35 -7.7 -7.2 -8.0 -7.0 -8.3 Q-6.65 -8.9 -6.4 -8.95 -6.25 -8.95 -6.1 -8.85 L-6.35 -8.75 Q-7.2 -8.4 -7.25 -7.3" fill="#99cc33" fill-rule="evenodd" stroke="none"/>
    <path d="M-5.2 -12.15 L-5.2 -12.1 -5.05 -11.4 Q-5.15 -11.4 -5.2 -11.45 L-5.3 -11.65 -5.45 -11.85 -5.4 -12.0 -5.2 -12.15 M-4.7 -12.25 Q-4.5 -12.25 -4.5 -12.15 -4.5 -12.1 -4.6 -11.85 L-4.7 -11.65 Q-4.8 -11.55 -4.85 -11.5 -4.9 -11.45 -4.95 -11.4 L-4.95 -11.5 -4.85 -11.95 Q-4.8 -12.25 -4.7 -12.25 M-5.1 -10.75 L-4.85 -10.8 Q-4.85 -10.95 -4.7 -10.95 L-4.65 -10.95 -4.65 -11.05 -4.6 -11.15 Q-4.65 -11.3 -4.75 -11.35 L-4.55 -11.6 Q-4.35 -11.85 -4.15 -11.85 L-4.1 -11.8 Q-4.1 -11.7 -4.25 -11.4 -4.1 -11.45 -3.95 -11.3 -4.0 -11.2 -4.25 -11.1 -4.35 -11.05 -4.4 -11.05 L-4.4 -11.0 -4.45 -11.0 -4.45 -10.95 Q-4.3 -10.9 -4.2 -10.8 L-4.3 -10.65 -4.65 -10.65 -4.6 -10.5 -4.6 -10.3 -4.7 -10.25 -4.75 -10.35 -4.95 -10.55 -5.05 -10.35 Q-5.2 -10.1 -5.25 -10.1 -5.4 -10.05 -5.45 -10.25 -5.45 -10.4 -5.4 -10.55 L-5.65 -10.4 -5.75 -10.4 -5.75 -10.5 Q-5.8 -10.7 -5.6 -10.8 L-5.65 -10.8 Q-5.95 -10.9 -6.0 -11.0 -5.95 -11.2 -5.6 -11.15 L-5.65 -11.2 Q-5.8 -11.4 -5.8 -11.45 -5.85 -11.55 -5.75 -11.7 L-5.3 -11.4 -5.2 -11.35 Q-5.4 -11.25 -5.35 -11.0 -5.35 -10.75 -5.1 -10.75" fill="#ffffff" fill-rule="evenodd" stroke="none"/>
    <path d="M-5.25 -11.05 Q-5.25 -11.25 -5.0 -11.3 -4.75 -11.35 -4.75 -11.15 -4.75 -11.05 -4.8 -11.0 -4.9 -10.9 -5.0 -10.85 -5.15 -10.85 -5.2 -10.95 L-5.25 -11.05" fill="#ffcc66" fill-rule="evenodd" stroke="none"/>
    <path d="M-2.8 -5.45 L-2.8 -5.4 -2.75 -5.35 -2.7 -5.35 Q-2.6 -5.35 -2.6 -5.4 L-2.6 -5.5 -2.75 -5.55 Q-2.8 -5.5 -2.8 -5.45 M-3.45 -5.5 L-3.45 -5.65 Q-3.45 -5.7 -3.55 -5.8 L-3.55 -5.85 -3.15 -5.95 Q-2.95 -6.0 -2.65 -5.8 -2.25 -5.75 -1.95 -5.55 -1.55 -5.4 -1.4 -5.1 -1.2 -5.05 -1.2 -4.9 L-1.15 -4.8 -1.2 -4.75 Q-1.25 -4.75 -1.3 -4.75 L-1.35 -4.7 -1.55 -4.7 -2.15 -4.5 -2.45 -4.55 Q-2.35 -4.55 -2.3 -4.6 L-2.2 -4.75 -2.1 -4.75 Q-2.0 -4.75 -1.9 -4.85 -1.8 -4.9 -1.8 -5.0 L-1.85 -5.05 Q-1.9 -5.15 -2.0 -5.15 L-2.3 -5.2 -2.6 -5.2 Q-2.55 -5.05 -2.4 -4.9 L-2.35 -4.85 -2.5 -4.8 -2.8 -4.8 Q-2.9 -4.8 -3.05 -4.85 -2.95 -5.05 -2.95 -5.2 L-2.95 -5.25 -3.0 -5.25 Q-3.1 -5.2 -3.55 -5.0 L-3.6 -4.95 -3.65 -5.1 -3.55 -5.2 Q-3.45 -5.35 -3.45 -5.45 L-3.45 -5.5 M-5.05 -4.1 L-4.9 -4.35 -4.55 -4.7 -4.55 -4.75 Q-4.6 -5.2 -4.3 -5.5 L-3.95 -5.35 Q-3.95 -5.25 -4.0 -5.0 L-4.15 -5.0 Q-4.35 -4.9 -4.35 -4.8 L-4.3 -4.75 -4.15 -4.7 -4.1 -4.7 -4.15 -4.6 -4.25 -4.35 Q-4.7 -4.65 -4.7 -4.4 -4.7 -4.3 -4.55 -4.1 L-4.45 -4.0 Q-4.55 -3.9 -4.65 -3.9 -4.9 -3.9 -5.05 -4.1 M-2.7 -4.55 L-2.8 -4.5 -3.2 -4.5 -3.35 -4.55 -3.1 -4.8 -3.15 -4.85 Q-3.1 -4.75 -3.05 -4.65 -2.9 -4.55 -2.7 -4.55 M-3.15 -4.05 L-3.55 -4.05 -3.55 -4.15 -3.45 -4.15 Q-3.35 -4.15 -3.2 -4.25 L-3.15 -4.05" fill="#666633" fill-rule="evenodd" stroke="none"/>
    <path d="M-6.25 -3.75 L-6.25 -3.8 Q-6.25 -4.0 -6.05 -4.25 -5.7 -4.55 -4.85 -4.9 L-4.9 -4.9 -4.75 -4.95 -4.8 -4.8 Q-4.8 -4.75 -5.15 -4.45 L-5.15 -4.4 Q-5.85 -4.1 -5.85 -3.9 L-5.85 -3.85 Q-5.95 -3.9 -6.05 -4.0 L-6.05 -3.85 Q-5.8 -3.75 -5.6 -3.7 L-5.15 -3.65 -4.25 -3.65 Q-2.45 -4.05 -1.5 -4.4 -0.45 -4.8 -0.5 -5.15 -0.5 -5.25 -0.55 -5.2 L-0.65 -5.15 Q-1.0 -5.35 -1.4 -5.35 L-1.75 -5.55 -0.4 -5.5 -0.2 -5.4 -0.2 -5.35 Q-0.15 -5.3 -0.1 -5.2 L-0.2 -5.1 -0.15 -5.05 Q-0.3 -4.9 -0.5 -4.7 -0.75 -4.4 -1.15 -4.25 L-1.15 -4.2 -1.35 -4.1 Q-2.7 -3.35 -4.8 -3.35 -6.15 -3.35 -6.25 -3.75 M-0.75 -5.05 L-0.85 -5.0 -0.85 -5.05 -0.75 -5.05" fill="#88c4e3" fill-rule="evenodd" stroke="none"/>
    <path d="M-5.15 -4.4 L-5.3 -4.2 Q-5.45 -3.85 -5.5 -3.85 L-5.85 -3.85 -5.85 -3.9 Q-5.85 -4.1 -5.15 -4.4 M-0.65 -5.15 L-0.75 -5.05 -0.85 -5.05 -0.95 -5.05 -1.15 -5.2 -1.25 -5.2 -1.4 -5.35 Q-1.0 -5.35 -0.65 -5.15 M-0.2 -5.4 L-0.15 -5.4 -0.2 -5.35 -0.2 -5.4 M-0.15 -5.05 L-0.1 -4.7 -0.05 -4.5 Q0.1 -3.7 -0.35 -2.75 -0.65 -2.15 -1.1 -1.75 -1.2 -2.1 -1.25 -2.15 -1.3 -2.25 -1.4 -2.25 -1.6 -2.15 -1.75 -2.1 L-1.9 -2.1 Q-1.9 -2.2 -2.05 -2.2 L-2.1 -2.2 Q-2.4 -2.05 -2.75 -2.05 L-3.05 -2.0 -3.15 -1.9 -3.2 -1.9 Q-3.8 -2.05 -3.9 -1.9 L-4.15 -1.5 Q-4.3 -1.35 -4.4 -1.25 -4.65 -1.35 -4.85 -1.55 -4.75 -1.6 -4.8 -1.65 -4.8 -1.8 -5.05 -2.1 -5.3 -2.45 -5.55 -2.65 -5.75 -2.8 -5.85 -2.8 L-5.95 -2.9 -5.95 -2.95 -6.15 -3.35 -6.15 -3.5 Q-6.25 -3.6 -6.25 -3.75 -6.15 -3.35 -4.8 -3.35 -2.7 -3.35 -1.35 -4.1 L-1.15 -4.2 -1.15 -4.25 Q-0.75 -4.4 -0.5 -4.7 -0.3 -4.9 -0.15 -5.05" fill="#5673d6" fill-rule="evenodd" stroke="none"/>
    <path d="M-4.9 -8.0 L-5.0 -7.65 -5.0 -7.5 -5.05 -7.35 -5.05 -7.05 Q-5.1 -7.25 -5.1 -7.5 -5.1 -8.05 -4.85 -8.3 L-4.7 -8.45 -4.75 -8.4 -4.85 -8.1 -4.9 -8.0 M-3.65 -5.55 L-3.75 -5.5 -3.8 -5.55 Q-4.05 -5.55 -4.65 -5.9 L-4.7 -5.95 -5.0 -6.15 -4.75 -6.05 -3.65 -5.55 M-4.0 -9.5 Q-4.0 -9.85 -4.05 -9.95 -4.05 -10.0 -4.25 -10.35 L-4.35 -10.5 -4.2 -10.5 -4.05 -10.3 Q-3.85 -9.9 -3.85 -9.75 L-3.8 -9.7 -3.8 -9.75 -3.7 -9.9 -3.55 -10.0 -3.55 -10.05 -3.4 -10.2 -3.35 -10.2 Q-3.1 -10.05 -2.9 -9.75 -3.05 -9.85 -3.25 -9.85 L-3.5 -9.8 -3.5 -9.75 -3.65 -9.6 -3.75 -9.6 -3.8 -9.7 Q-3.9 -9.55 -4.0 -9.5 M-5.4 -8.1 Q-5.5 -8.1 -5.6 -8.0 -5.7 -7.85 -6.0 -7.85 -6.45 -7.8 -6.65 -7.55 L-6.8 -7.35 -6.8 -7.45 -6.85 -7.45 -6.85 -7.55 -6.8 -7.55 Q-6.85 -7.7 -6.7 -7.85 L-6.65 -7.85 Q-6.6 -8.0 -6.45 -8.1 -6.25 -8.25 -5.95 -8.25 L-5.85 -8.3 -5.7 -8.3 -5.7 -8.25 -5.55 -8.25 -5.45 -8.15 -5.4 -8.2 -5.4 -8.1 M-6.1 -8.85 Q-5.95 -8.75 -5.8 -8.55 L-5.65 -8.4 -5.9 -8.4 -6.0 -8.35 -6.5 -8.25 -6.75 -7.9 -6.95 -7.65 Q-7.0 -7.5 -6.95 -7.35 L-6.9 -7.15 -6.95 -7.1 -6.85 -6.9 -6.9 -6.9 -7.2 -7.2 -7.25 -7.3 Q-7.2 -8.4 -6.35 -8.75 L-6.1 -8.85" fill="#5bb72f" fill-rule="evenodd" stroke="none"/>
    <path d="M-2.8 -5.45 Q-2.8 -5.5 -2.75 -5.55 L-2.6 -5.5 -2.6 -5.4 Q-2.6 -5.35 -2.7 -5.35 L-2.75 -5.35 -2.8 -5.4 -2.8 -5.45 M-3.45 -5.5 L-3.45 -5.45 Q-3.45 -5.35 -3.55 -5.2 L-3.65 -5.1 -3.6 -4.95 -3.55 -5.0 Q-3.1 -5.2 -3.0 -5.25 L-2.95 -5.25 -2.95 -5.2 Q-2.95 -5.05 -3.05 -4.85 -2.9 -4.8 -2.8 -4.8 L-2.5 -4.8 -2.35 -4.85 -2.4 -4.9 Q-2.55 -5.05 -2.6 -5.2 L-2.3 -5.2 -2.0 -5.15 Q-1.9 -5.15 -1.85 -5.05 L-1.8 -5.0 Q-1.8 -4.9 -1.9 -4.85 -2.0 -4.75 -2.1 -4.75 L-2.2 -4.75 -2.3 -4.6 Q-2.35 -4.55 -2.45 -4.55 L-2.15 -4.5 -1.55 -4.7 -1.35 -4.7 -1.3 -4.7 -1.5 -4.55 Q-1.85 -4.35 -2.25 -4.2 -2.9 -4.0 -3.65 -3.85 L-4.5 -3.75 Q-4.95 -3.7 -5.3 -3.75 -5.2 -3.85 -5.05 -4.1 -4.9 -3.9 -4.65 -3.9 -4.55 -3.9 -4.45 -4.0 L-4.55 -4.1 Q-4.7 -4.3 -4.7 -4.4 -4.7 -4.65 -4.25 -4.35 L-4.15 -4.6 -4.1 -4.7 -4.15 -4.7 -4.3 -4.75 -4.35 -4.8 Q-4.35 -4.9 -4.15 -5.0 L-4.0 -5.0 Q-3.95 -5.25 -3.95 -5.35 L-3.65 -5.3 Q-3.5 -5.3 -3.45 -5.45 L-3.45 -5.5 M-2.7 -4.55 Q-2.9 -4.55 -3.05 -4.65 -3.1 -4.75 -3.15 -4.85 L-3.1 -4.8 -3.35 -4.55 -3.2 -4.5 -2.8 -4.5 -2.7 -4.55 M-3.15 -4.05 L-3.2 -4.25 Q-3.35 -4.15 -3.45 -4.15 L-3.55 -4.15 -3.55 -4.05 -3.15 -4.05" fill="#404e27" fill-rule="evenodd" stroke="none"/>
  </g>
</svg>
