<?xml version="1.0" encoding="UTF-8" standalone="no"?>
<svg xmlns:ffdec="https://www.free-decompiler.com/flash" xmlns:xlink="http://www.w3.org/1999/xlink" ffdec:objectType="shape" height="8.75px" width="5.8px" xmlns="http://www.w3.org/2000/svg">
  <g transform="matrix(1.0, 0.0, 0.0, 1.0, 5.95, 7.0)">
    <path d="M-2.35 -1.65 Q-2.1 -1.75 -1.9 -1.65 -1.7 -1.55 -1.6 -1.35 L-1.55 -1.25 -0.9 -1.3 -0.85 -1.3 -0.65 -1.35 -0.6 -1.4 -0.75 -2.05 Q-0.95 -2.75 -0.9 -2.85 L-0.9 -3.65 Q-0.9 -4.35 -0.85 -4.55 L-0.85 -4.4 -0.75 -3.85 Q-0.75 -3.25 -0.6 -2.55 L-0.4 -3.55 -0.3 -4.35 Q-0.2 -4.8 -0.2 -5.25 L-0.2 -5.3 -0.3 -5.8 Q-0.3 -6.0 -0.55 -6.35 L-0.65 -6.5 -0.65 -6.55 Q-0.75 -6.65 -0.95 -6.7 L-1.1 -6.65 Q-1.35 -6.05 -2.85 -4.75 L-2.9 -4.75 -3.35 -4.35 -3.4 -4.3 Q-4.65 -3.3 -5.35 -3.0 L-5.2 -2.9 -5.05 -2.75 -4.9 -2.65 -4.4 -2.65 Q-3.9 -3.2 -3.35 -2.9 -2.95 -2.7 -2.75 -2.25 -2.7 -2.15 -2.65 -1.8 L-2.6 -1.45 -2.35 -1.65 M-0.7 -6.95 L-0.7 -6.9 Q-0.1 -6.4 -0.15 -5.15 L-0.25 -3.75 -0.25 -3.55 -0.35 -3.15 -0.35 -2.6 -0.4 -2.35 -0.4 -1.9 -0.45 -1.65 -0.35 -1.3 -0.4 -1.2 Q-1.1 -1.15 -1.4 -0.9 L-1.55 -0.95 -1.6 -0.65 Q-1.75 -0.05 -2.3 0.2 L-2.35 0.25 -2.55 0.1 -2.6 0.1 -2.6 0.05 -2.65 -0.15 -2.85 0.0 -2.8 0.0 Q-3.05 0.0 -3.05 0.3 L-3.05 0.25 -3.1 0.4 Q-3.1 0.5 -3.1 0.55 -3.15 0.75 -3.35 0.95 -3.3 1.0 -3.3 1.1 -3.35 1.3 -3.65 1.5 -4.0 1.75 -4.5 1.75 L-4.65 1.65 Q-5.5 1.6 -5.8 1.05 -6.0 0.65 -5.95 0.15 L-5.9 -0.35 -5.7 -0.65 -5.7 -0.7 -5.75 -0.85 Q-5.8 -0.95 -5.75 -1.15 L-5.75 -1.25 Q-5.55 -2.25 -5.1 -2.55 -5.7 -2.95 -5.9 -3.15 -5.25 -3.35 -4.5 -3.75 -3.9 -4.15 -2.8 -5.05 -2.0 -5.75 -1.05 -6.75 L-0.8 -7.0 -0.75 -6.95 -0.7 -6.95 M-4.05 -1.55 L-3.8 -1.05 -3.6 -0.75 -3.6 -0.7 -3.55 -0.6 -3.4 -0.6 Q-3.3 -0.7 -3.35 -1.0 L-3.4 -1.05 -3.4 -1.4 -3.55 -1.7 -3.6 -1.85 -3.75 -2.0 -4.05 -2.25 Q-4.25 -2.4 -4.45 -2.45 L-4.8 -2.4 -4.85 -2.35 -4.9 -2.25 -4.9 -2.05 Q-4.5 -2.2 -4.05 -1.55 M-3.0 -2.3 L-3.1 -2.45 -3.35 -2.65 Q-3.45 -2.8 -3.9 -2.65 L-4.2 -2.6 Q-3.65 -2.35 -3.4 -1.8 L-3.3 -1.65 -3.25 -1.4 -3.2 -1.35 -3.2 -1.15 Q-3.15 -1.1 -3.1 -1.05 L-3.05 -0.95 -3.05 -0.85 -3.0 -0.75 -2.9 -0.8 -2.85 -0.8 -2.8 -1.05 -2.8 -1.55 Q-2.85 -2.05 -2.9 -2.2 L-2.95 -2.3 -3.0 -2.3 M-5.0 -2.0 Q-5.05 -2.1 -5.0 -2.3 -5.15 -2.15 -5.35 -1.75 L-5.35 -1.65 Q-5.2 -1.9 -5.0 -2.0 M-3.85 -0.75 L-4.0 -1.15 Q-4.15 -1.5 -4.3 -1.6 -4.55 -1.8 -4.85 -1.7 L-4.85 -1.55 Q-4.9 -1.4 -4.85 -1.3 L-4.8 -1.25 -4.7 -1.15 -4.25 -0.75 Q-3.9 -0.4 -3.65 -0.3 L-3.85 -0.75 M-5.0 -1.3 L-5.05 -1.45 -5.05 -1.65 -5.25 -1.55 -5.45 -1.15 -5.4 -0.9 -5.4 -0.85 -5.35 -0.8 -5.3 -0.5 -5.15 -0.2 -5.0 0.0 -4.95 0.1 -4.65 0.6 Q-4.65 0.65 -4.7 0.7 L-4.75 0.7 -4.75 0.95 Q-4.75 1.15 -4.6 1.25 L-4.45 1.2 -4.35 1.2 Q-3.5 0.9 -3.4 0.5 L-3.35 0.15 -3.35 0.0 -3.3 -0.05 -3.25 -0.05 -2.65 -0.35 -2.65 -0.65 Q-2.7 -0.55 -2.85 -0.45 L-2.95 -0.45 -3.1 -0.65 -3.15 -0.75 Q-3.15 -0.55 -3.35 -0.45 L-3.5 -0.5 -3.55 -0.5 Q-3.4 -0.1 -3.6 0.0 -3.65 0.05 -4.05 -0.25 -4.4 -0.5 -4.45 -0.6 L-5.05 -0.6 Q-4.9 -0.75 -4.6 -0.75 L-4.65 -0.85 -4.75 -1.0 -4.9 -1.05 -4.95 -1.2 -5.0 -1.3 M-4.95 0.45 L-5.0 0.4 -5.25 0.0 -5.35 -0.1 -5.55 -0.45 -5.6 -0.4 Q-5.8 -0.1 -5.8 0.15 -5.8 0.45 -5.8 0.65 L-5.7 0.9 Q-5.5 1.15 -4.9 1.35 L-4.9 1.3 -4.9 1.15 Q-5.0 0.95 -5.0 0.8 -5.0 0.7 -4.95 0.6 L-4.9 0.6 -4.9 0.55 -4.95 0.45 M-2.45 -0.2 L-2.4 -0.1 Q-2.4 0.0 -2.35 -0.05 L-2.35 -0.1 Q-1.75 -0.7 -1.75 -1.05 -1.7 -1.15 -1.75 -1.25 L-1.9 -1.45 Q-2.05 -1.65 -2.2 -1.4 L-2.3 -1.35 -2.45 -1.15 -2.45 -1.1 Q-2.55 -0.7 -2.45 -0.5 L-2.45 -0.2 M-4.25 1.6 Q-3.65 1.55 -3.5 1.25 L-3.5 1.1 -3.9 1.35 Q-4.15 1.45 -4.4 1.55 L-4.25 1.55 -4.25 1.6" fill="#111111" fill-rule="evenodd" stroke="none"/>
    <path d="M-4.05 -1.55 Q-4.1 -1.7 -4.05 -1.85 L-3.9 -1.95 -3.85 -2.0 -3.75 -2.0 -3.6 -1.85 -3.55 -1.7 -3.4 -1.4 -3.4 -1.05 -3.35 -1.0 Q-3.3 -0.7 -3.4 -0.6 L-3.55 -0.6 -3.6 -0.7 -3.6 -0.75 -3.8 -1.05 -4.05 -1.55 M-3.0 -2.3 L-2.95 -2.3 -2.9 -2.2 Q-2.85 -2.05 -2.8 -1.55 L-2.8 -1.05 -2.85 -0.8 -2.9 -0.8 -3.0 -0.75 -3.05 -0.85 -3.05 -0.95 -3.1 -1.05 Q-3.15 -1.1 -3.2 -1.15 L-3.2 -1.35 -3.25 -1.4 -3.25 -1.7 Q-3.45 -2.25 -3.1 -2.3 L-3.0 -2.3 M-3.85 -0.75 L-3.65 -0.3 Q-3.9 -0.4 -4.25 -0.75 L-4.7 -1.15 -4.8 -1.25 Q-4.15 -1.05 -3.85 -0.75 M-2.45 -0.2 L-2.05 -1.1 -1.95 -1.25 -1.9 -1.45 -1.75 -1.25 Q-1.7 -1.15 -1.75 -1.05 -1.75 -0.7 -2.35 -0.1 L-2.35 -0.05 Q-2.4 0.0 -2.4 -0.1 L-2.45 -0.2" fill="#f1a678" fill-rule="evenodd" stroke="none"/>
    <path d="M-3.75 -2.0 L-3.85 -2.0 -3.9 -1.95 -4.05 -1.85 Q-4.1 -1.7 -4.05 -1.55 -4.5 -2.2 -4.9 -2.05 L-4.9 -2.25 -4.85 -2.35 -4.8 -2.4 -4.45 -2.45 Q-4.25 -2.4 -4.05 -2.25 L-3.75 -2.0 M-3.25 -1.4 L-3.3 -1.65 -3.4 -1.8 Q-3.65 -2.35 -4.2 -2.6 L-3.9 -2.65 Q-3.45 -2.8 -3.35 -2.65 L-3.1 -2.45 -3.0 -2.3 -3.1 -2.3 Q-3.45 -2.25 -3.25 -1.7 L-3.25 -1.4 M-4.8 -1.25 L-4.85 -1.3 Q-4.9 -1.4 -4.85 -1.55 L-4.85 -1.7 Q-4.55 -1.8 -4.3 -1.6 -4.15 -1.5 -4.0 -1.15 L-3.85 -0.75 Q-4.15 -1.05 -4.8 -1.25 M-1.9 -1.45 L-1.95 -1.25 -2.05 -1.1 -2.45 -0.2 -2.45 -0.5 Q-2.55 -0.7 -2.45 -1.1 L-2.45 -1.15 -2.3 -1.35 -2.2 -1.4 Q-2.05 -1.65 -1.9 -1.45" fill="#fae2d1" fill-rule="evenodd" stroke="none"/>
    <path d="M-5.0 -2.0 Q-5.2 -1.9 -5.35 -1.65 L-5.35 -1.75 Q-5.15 -2.15 -5.0 -2.3 -5.05 -2.1 -5.0 -2.0 M-5.3 -0.5 L-5.35 -0.8 -5.4 -0.85 -5.4 -0.9 -5.45 -1.15 -5.25 -1.55 -5.05 -1.65 -5.05 -1.45 -5.0 -1.3 -5.1 -1.0 -5.3 -0.5" fill="#cdc198" fill-rule="evenodd" stroke="none"/>
    <path d="M-5.0 -1.3 L-4.95 -1.2 -4.9 -1.05 -4.75 -1.0 -4.65 -0.85 -4.6 -0.75 Q-4.9 -0.75 -5.05 -0.6 L-4.45 -0.6 Q-4.4 -0.5 -4.05 -0.25 -3.65 0.05 -3.6 0.0 -3.4 -0.1 -3.55 -0.5 L-3.5 -0.5 -3.35 -0.45 Q-3.15 -0.55 -3.15 -0.75 L-3.1 -0.65 -2.95 -0.45 -2.85 -0.45 Q-2.7 -0.55 -2.65 -0.65 L-2.65 -0.35 -3.25 -0.05 -3.3 -0.05 -3.35 0.0 -3.35 0.15 -3.4 0.5 Q-3.5 0.9 -4.35 1.2 L-4.45 1.2 -4.6 1.25 Q-4.75 1.15 -4.75 0.95 L-4.75 0.7 -4.7 0.7 Q-4.65 0.65 -4.65 0.6 L-4.95 0.1 -5.0 0.0 -5.15 -0.2 -5.3 -0.5 -5.1 -1.0 -5.0 -1.3 M-4.9 1.15 L-4.9 1.3 -4.9 1.15" fill="#999966" fill-rule="evenodd" stroke="none"/>
    <path d="M-2.35 -1.65 L-2.6 -1.45 -2.65 -1.8 Q-2.7 -2.15 -2.75 -2.25 -2.95 -2.7 -3.35 -2.9 -3.9 -3.2 -4.4 -2.65 L-4.9 -2.65 -5.05 -2.75 -5.2 -2.9 -5.35 -3.0 Q-4.65 -3.3 -3.4 -4.3 -2.85 -3.55 -2.55 -2.7 L-2.35 -1.65 M-4.95 0.45 L-4.9 0.55 -4.9 0.6 -4.95 0.6 Q-5.0 0.7 -5.0 0.8 -5.0 0.95 -4.9 1.15 L-4.9 1.3 -4.9 1.35 Q-5.5 1.15 -5.7 0.9 L-5.8 0.65 Q-5.4 0.6 -4.95 0.45 M-4.25 1.6 L-4.25 1.55 -4.4 1.55 Q-4.15 1.45 -3.9 1.35 L-3.5 1.1 -3.5 1.25 Q-3.65 1.55 -4.25 1.6" fill="#9e8bc2" fill-rule="evenodd" stroke="none"/>
    <path d="M-3.4 -4.3 L-3.35 -4.35 -2.9 -4.75 -2.85 -4.75 Q-1.35 -6.05 -1.1 -6.65 L-0.95 -6.7 Q-0.75 -6.65 -0.65 -6.55 L-0.65 -6.5 -0.55 -6.35 Q-0.3 -6.0 -0.3 -5.8 L-0.2 -5.3 -0.2 -5.25 Q-0.2 -4.8 -0.3 -4.35 L-0.4 -3.55 -0.6 -2.55 Q-0.75 -3.25 -0.75 -3.85 L-0.85 -4.4 -0.85 -4.55 Q-0.9 -4.35 -0.9 -3.65 L-0.9 -2.85 Q-0.95 -2.75 -0.75 -2.05 L-0.6 -1.4 -0.65 -1.35 -0.85 -1.3 -0.9 -1.3 -1.55 -1.25 -1.6 -1.35 Q-1.7 -1.55 -1.9 -1.65 -2.1 -1.75 -2.35 -1.65 L-2.55 -2.7 Q-2.85 -3.55 -3.4 -4.3" fill="#5454bc" fill-rule="evenodd" stroke="none"/>
    <path d="M-5.8 0.65 Q-5.8 0.45 -5.8 0.15 -5.8 -0.1 -5.6 -0.4 L-5.55 -0.45 -5.35 -0.1 -5.25 0.0 -5.0 0.4 -4.95 0.45 Q-5.4 0.6 -5.8 0.65" fill="#cfb8de" fill-rule="evenodd" stroke="none"/>
  </g>
</svg>
