<?xml version="1.0" encoding="UTF-8" standalone="no"?>
<svg xmlns:ffdec="https://www.free-decompiler.com/flash" xmlns:xlink="http://www.w3.org/1999/xlink" ffdec:objectType="shape" height="23.55px" width="11.95px" xmlns="http://www.w3.org/2000/svg">
  <g transform="matrix(1.0, 0.0, 0.0, 1.0, 10.6, 7.45)">
    <path d="M-4.1 2.25 L-4.1 1.5 -4.15 1.2 -4.2 1.15 -4.2 0.15 -4.35 -0.35 -4.4 -0.5 Q-3.95 -0.8 -3.7 -0.8 L-3.4 -0.85 -3.15 -1.15 -3.1 -1.2 Q-3.1 -1.6 -3.2 -1.95 -3.3 -2.35 -3.4 -2.5 L-4.1 -2.4 -4.7 -1.95 -4.85 -1.85 -4.85 -1.9 -4.9 -2.0 Q-5.05 -2.15 -5.05 -2.2 -5.05 -2.25 -4.75 -2.4 -4.45 -2.6 -4.1 -2.75 -3.55 -2.9 -3.15 -2.85 L-2.9 -2.9 -3.05 -2.85 Q-2.9 -2.85 -2.7 -2.75 L-2.5 -2.8 -2.35 -2.8 -2.25 -2.85 Q-1.95 -2.35 -1.85 -1.65 -1.7 -0.65 -1.4 -0.3 -1.5 -0.75 -1.55 -1.9 -1.7 -2.8 -2.4 -3.15 L-2.4 -3.25 -2.45 -3.65 Q-2.35 -4.7 -2.1 -5.75 -1.85 -6.4 -1.45 -7.0 L-1.25 -7.0 -1.15 -7.05 Q-0.5 -6.9 -0.1 -6.65 L-0.1 -6.65 Q-0.25 -6.55 -0.65 -5.95 -1.4 -4.7 -1.4 -4.35 -1.4 -4.25 -1.0 -3.25 -0.75 -2.65 -0.6 -2.35 L-0.6 -2.5 -0.75 -0.95 -0.75 -0.9 Q-0.75 -0.75 -0.6 -0.65 L-0.8 -0.45 Q-0.85 -0.65 -1.0 -0.75 L-1.1 -0.75 -1.15 -0.7 -1.15 -0.6 -1.05 -0.2 Q-2.1 0.55 -3.8 1.2 L-3.8 1.3 -2.95 1.1 Q-3.7 1.65 -4.1 2.25 M0.4 -6.2 L0.45 -6.1 0.45 -6.0 0.45 -6.15 0.4 -6.2 M-1.4 2.1 L-1.55 2.25 -1.95 2.6 -2.05 2.65 -1.4 2.1 M-3.6 -2.45 Q-3.4 -2.45 -3.35 -2.05 -3.3 -1.8 -3.3 -1.55 -3.3 -1.25 -3.5 -1.1 -3.65 -1.0 -4.1 -0.85 L-4.4 -0.7 -4.45 -0.7 -4.5 -0.95 Q-4.65 -1.4 -4.75 -1.7 L-4.65 -1.75 Q-3.8 -2.45 -3.6 -2.45" fill="#4e6987" fill-rule="evenodd" stroke="none"/>
    <path d="M-0.1 -6.65 L0.15 -6.45 0.25 -6.4 0.25 -6.35 0.4 -6.2 0.45 -6.15 0.45 -6.0 0.45 -5.9 0.65 -4.65 0.55 -3.45 0.55 -3.1 0.45 -2.65 0.45 -2.45 Q0.35 -2.1 0.25 -1.85 0.05 -1.3 -0.4 -0.8 -0.6 -1.0 -0.7 -1.05 L-0.75 -0.95 -0.7 -0.9 -0.6 -0.65 Q-0.75 -0.75 -0.75 -0.9 L-0.75 -0.95 -0.6 -2.5 -0.6 -2.35 Q-0.75 -2.65 -1.0 -3.25 -1.4 -4.25 -1.4 -4.35 -1.4 -4.7 -0.65 -5.95 -0.25 -6.55 -0.1 -6.65 L-0.1 -6.65 M-2.95 1.1 L-2.9 1.05 -1.45 0.35 -1.4 0.35 -1.4 0.3 -1.35 0.3 -1.3 0.25 -1.25 0.25 -1.15 0.15 -1.1 0.15 -1.1 0.1 -1.0 0.05 Q-0.85 0.5 -0.7 0.6 L-0.7 -0.1 -0.75 -0.2 -0.45 -0.45 -0.45 -0.4 Q-0.25 -0.05 -0.1 0.05 L-0.1 -0.1 Q-0.1 -0.3 -0.3 -0.6 L-0.3 -0.65 Q-0.05 -0.95 0.15 -1.3 0.65 -2.15 0.8 -3.1 L0.85 -2.0 0.7 -0.55 -0.7 1.35 -1.35 2.05 -1.4 2.1 -2.05 2.65 -3.05 3.3 Q-3.7 3.75 -4.1 4.1 L-4.2 4.15 -4.15 4.1 -4.1 3.55 -4.05 2.9 -4.1 2.5 -4.1 2.25 Q-3.7 1.65 -2.95 1.1 M-4.7 1.3 L-4.55 1.2 -4.55 1.35 -4.5 1.65 -4.5 1.75 -4.45 1.9 -4.45 2.6 Q-4.4 3.1 -4.45 3.35 -4.55 3.65 -4.75 4.0 -5.0 3.75 -5.2 3.45 L-5.25 3.35 -5.25 2.3 -5.3 1.9 -5.3 1.8 Q-4.85 1.45 -4.7 1.3 M-5.3 1.55 L-5.3 1.5 -5.35 1.6 -5.35 1.55 -5.3 1.55 M-5.25 1.55 L-5.25 1.55" fill="#41495f" fill-rule="evenodd" stroke="none"/>
    <path d="M-10.2 0.05 L-10.2 0.1 -10.1 0.1 -10.15 -0.05 Q-9.95 -0.3 -9.6 -0.6 L-9.45 -0.75 -9.5 -0.6 -9.5 -0.45 -9.45 -0.4 -9.35 -0.4 Q-8.8 -0.4 -8.55 -0.55 L-8.45 -0.65 -8.35 -0.7 -8.25 -0.8 -8.15 -0.85 -8.25 -0.75 -8.0 -0.7 -7.5 -1.25 Q-7.2 -1.6 -6.8 -1.7 L-6.55 -1.35 -6.5 -1.25 Q-6.25 -1.05 -6.05 -0.55 L-6.1 -0.65 -6.2 -0.45 -6.4 0.3 Q-6.75 1.4 -7.65 1.4 -8.15 1.4 -8.85 0.95 L-9.5 0.55 Q-9.75 0.05 -9.9 -0.2 -9.95 -0.2 -9.95 0.0 -9.95 0.35 -9.85 0.75 L-9.9 0.65 Q-9.95 0.7 -10.0 0.85 L-10.25 0.05 -10.2 0.1 -10.2 0.05 M-6.0 1.85 L-6.35 2.25 -6.4 2.25 -6.0 1.85 M-7.15 -1.8 L-7.05 -1.8 Q-7.05 -1.9 -7.1 -2.0 L-6.95 -1.85 -7.15 -1.8 M-5.65 0.1 L-5.75 -0.45 Q-5.85 -0.85 -6.05 -1.05 L-5.85 -1.15 Q-5.7 -0.9 -5.5 -0.35 L-5.5 -0.4 -5.65 0.1 M-8.1 -0.95 L-8.15 -0.85 -8.15 -0.9 -8.1 -0.95 M-4.9 0.85 L-4.95 0.85 -4.95 0.7 -4.95 0.8 -4.9 0.85 M-5.3 -0.85 L-5.5 -1.25 -5.35 -1.2 -5.25 -1.3 -5.3 -0.85 M-8.05 3.1 L-8.05 3.1" fill="#875f3a" fill-rule="evenodd" stroke="none"/>
    <path d="M-1.15 15.95 L-1.2 16.1 -1.15 15.8 -1.15 15.95" fill="#d7b179" fill-rule="evenodd" stroke="none"/>
    <path d="M-6.85 3.05 L-6.9 3.05 -6.9 3.0 -6.85 3.05 M-8.5 -1.7 L-8.65 -1.75 -8.7 -1.7 -8.75 -1.45 -8.75 -1.25 Q-8.85 -1.25 -8.85 -1.3 L-9.1 -1.3 Q-9.25 -1.45 -9.25 -1.5 -9.25 -1.7 -9.25 -1.6 L-9.15 -1.7 -8.75 -1.75 Q-8.6 -1.75 -8.5 -1.7" fill="#af3c14" fill-rule="evenodd" stroke="none"/>
    <path d="M-10.25 0.05 L-10.3 -0.15 -10.35 -0.3 Q-10.25 -0.55 -9.95 -0.8 L-9.8 -0.95 -9.6 -0.9 Q-9.75 -0.85 -9.9 -0.75 -10.2 -0.55 -10.2 -0.3 L-10.2 0.05 -10.2 0.1 -10.25 0.05 M-10.15 -0.05 Q-10.1 -0.25 -9.95 -0.45 -9.7 -0.8 -9.35 -0.85 L-9.3 -0.85 Q-9.2 -0.75 -9.05 -0.7 L-9.35 -0.55 -9.3 -0.5 -9.1 -0.45 Q-8.8 -0.45 -8.45 -0.65 L-8.55 -0.55 Q-8.8 -0.4 -9.35 -0.4 L-9.45 -0.4 -9.5 -0.45 -9.5 -0.6 -9.45 -0.75 -9.6 -0.6 Q-9.95 -0.3 -10.15 -0.05 M-6.05 -0.55 L-6.0 -0.4 Q-5.75 0.35 -5.75 0.75 -5.75 0.9 -5.85 1.15 L-5.8 1.35 Q-5.8 1.55 -6.0 1.85 L-6.4 2.25 -6.5 2.3 -6.85 2.5 -7.55 2.85 -8.5 2.95 Q-8.85 2.4 -9.15 1.45 L-9.2 1.35 -9.5 0.55 -8.85 0.95 Q-8.15 1.4 -7.65 1.4 -6.75 1.4 -6.4 0.3 L-6.2 -0.45 -6.1 -0.65 -6.05 -0.55 M-9.85 0.75 Q-9.75 1.25 -9.5 1.75 L-9.35 2.0 -9.25 2.2 -8.9 2.75 -8.85 2.8 -8.85 2.85 -8.75 2.95 -9.25 2.55 Q-9.5 2.35 -9.6 2.1 -9.85 1.7 -9.9 1.1 L-9.9 1.05 -9.95 0.9 -10.0 0.85 Q-9.95 0.7 -9.9 0.65 L-9.85 0.75 M-8.7 -0.8 L-8.7 -0.8 M-8.1 -0.95 L-8.1 -1.15 -7.9 -1.45 Q-7.6 -1.85 -7.45 -2.15 L-7.15 -2.05 -7.1 -2.05 -7.1 -2.0 Q-7.05 -1.9 -7.05 -1.8 L-7.15 -1.8 -7.35 -1.65 -7.4 -1.6 Q-7.7 -1.35 -8.1 -0.95 M-5.65 0.1 L-5.5 -0.4 -5.5 -0.35 -5.45 -0.25 Q-5.2 0.55 -5.2 0.75 -5.2 0.9 -5.25 1.1 L-5.3 1.15 -5.6 1.35 Q-5.6 1.15 -5.6 0.8 -5.6 0.45 -5.65 0.1 M-5.25 -1.3 L-5.15 -1.45 -5.1 -1.45 -5.1 -1.4 -5.05 -1.4 -5.05 -1.35 -4.9 -0.7 Q-4.6 0.35 -4.6 0.4 L-4.6 0.6 -4.7 0.65 -4.75 0.65 -4.9 0.85 -4.95 0.8 -4.95 0.7 -5.1 -0.05 -5.1 -0.15 -5.15 -0.35 Q-5.25 -0.65 -5.3 -0.85 L-5.25 -1.3" fill="#693629" fill-rule="evenodd" stroke="none"/>
    <path d="M-8.75 -1.25 L-8.75 -1.45 -8.7 -1.7 -8.65 -1.75 -8.5 -1.7 Q-8.45 -1.65 -8.4 -1.6 L-8.4 -1.5 -8.35 -1.5 -8.35 -1.4 Q-8.5 -1.25 -8.7 -1.25 L-8.75 -1.25" fill="#76280e" fill-rule="evenodd" stroke="none"/>
    <path d="M-6.9 3.05 L-6.95 3.05 Q-7.0 3.1 -7.1 3.15 L-7.25 3.2 -7.45 3.2 -7.5 3.25 -7.65 3.3 -7.9 3.3 -8.2 3.35 -8.55 3.3 -8.55 3.35 -8.65 3.3 -8.75 3.2 Q-8.9 3.15 -9.6 2.5 L-9.7 2.35 -9.75 2.3 -10.0 2.1 -10.05 2.15 -10.2 1.7 -10.25 1.4 -10.3 1.4 -10.3 0.7 Q-10.3 0.5 -10.4 0.25 L-10.45 0.2 -10.55 0.0 -10.55 -0.1 -10.6 -0.15 -10.6 -0.4 Q-10.6 -0.7 -10.5 -0.9 L-10.1 -1.1 -9.65 -1.3 -9.45 -1.3 -9.45 -1.5 Q-9.45 -1.95 -9.25 -2.2 -9.1 -2.4 -8.8 -2.35 -8.55 -2.3 -8.35 -2.0 -8.25 -1.85 -8.2 -1.65 L-8.2 -1.7 -8.15 -1.9 -7.8 -2.25 -7.7 -2.4 -7.3 -2.5 -7.2 -2.5 -7.1 -2.45 -7.05 -2.4 -7.0 -2.4 -6.55 -1.95 -6.1 -1.55 Q-6.0 -1.55 -5.85 -1.6 -5.8 -1.65 -5.8 -1.75 L-5.85 -1.85 -5.8 -2.2 -5.8 -2.25 Q-5.65 -2.3 -4.95 -2.65 L-4.55 -2.9 -4.4 -2.9 -3.5 -3.05 -3.3 -3.1 -2.85 -3.1 -2.7 -3.15 -2.75 -3.55 -2.65 -5.15 -2.6 -5.15 -2.55 -5.4 -2.25 -6.2 -1.9 -6.75 -1.45 -7.35 Q-1.1 -7.55 -0.5 -7.35 -0.15 -7.25 0.1 -7.05 L0.3 -6.9 0.45 -6.7 0.8 -5.95 0.8 -5.7 0.95 -5.3 Q1.35 -3.8 1.35 -1.95 L1.3 -0.8 1.05 -0.35 0.8 0.0 Q-0.45 1.5 -1.1 2.1 -2.0 3.0 -3.3 4.1 L-3.9 4.55 -3.95 4.6 -4.2 4.8 -4.25 4.85 -4.5 4.8 -4.65 4.75 -4.65 4.6 -4.95 4.6 -5.0 4.55 Q-5.25 4.4 -5.45 4.1 L-5.5 4.0 -5.6 3.85 -5.75 2.9 -5.65 2.8 -5.65 2.25 -5.7 2.25 Q-6.0 2.55 -6.55 2.85 L-6.65 2.9 -6.6 2.9 -6.6 2.95 -6.7 2.95 -6.8 2.95 -6.75 3.0 -6.85 3.05 -6.9 3.0 -6.9 3.05 M-10.2 0.05 L-10.2 -0.3 Q-10.2 -0.55 -9.9 -0.75 -9.75 -0.85 -9.6 -0.9 L-9.8 -0.95 -9.95 -0.8 Q-10.25 -0.55 -10.35 -0.3 L-10.3 -0.15 -10.25 0.05 -10.0 0.85 -9.95 0.9 -9.9 1.05 -9.9 1.1 Q-9.85 1.7 -9.6 2.1 -9.5 2.35 -9.25 2.55 L-8.75 2.95 -8.85 2.85 -8.85 2.8 -8.9 2.75 -9.25 2.2 -9.35 2.0 -9.5 1.75 Q-9.75 1.25 -9.85 0.75 -9.95 0.35 -9.95 0.0 -9.95 -0.2 -9.9 -0.2 -9.75 0.05 -9.5 0.55 L-9.2 1.35 -9.15 1.45 Q-8.85 2.4 -8.5 2.95 L-7.55 2.85 -6.85 2.5 -6.5 2.3 -6.4 2.25 -6.35 2.25 -6.0 1.85 Q-5.8 1.55 -5.8 1.35 L-5.85 1.15 Q-5.75 0.9 -5.75 0.75 -5.75 0.35 -6.0 -0.4 L-6.05 -0.55 Q-6.25 -1.05 -6.5 -1.25 L-6.55 -1.35 -6.8 -1.7 Q-7.2 -1.6 -7.5 -1.25 L-8.0 -0.7 -8.25 -0.75 -8.15 -0.85 -8.25 -0.8 -8.35 -0.7 -8.45 -0.65 Q-8.8 -0.45 -9.1 -0.45 L-9.3 -0.5 -9.35 -0.55 -9.05 -0.7 Q-9.2 -0.75 -9.3 -0.85 L-9.35 -0.85 Q-9.7 -0.8 -9.95 -0.45 -10.1 -0.25 -10.15 -0.05 L-10.1 0.1 -10.2 0.1 -10.2 0.05 M-8.5 -1.7 Q-8.6 -1.75 -8.75 -1.75 L-9.15 -1.7 -9.25 -1.6 Q-9.25 -1.7 -9.25 -1.5 -9.25 -1.45 -9.1 -1.3 L-8.85 -1.3 Q-8.85 -1.25 -8.75 -1.25 L-8.7 -1.25 Q-8.5 -1.25 -8.35 -1.4 L-8.35 -1.5 -8.4 -1.5 -8.4 -1.6 Q-8.45 -1.65 -8.5 -1.7 M-8.7 -0.8 L-8.7 -0.8 M-7.1 -2.0 L-7.1 -2.05 -7.15 -2.05 -7.45 -2.15 Q-7.6 -1.85 -7.9 -1.45 L-8.1 -1.15 -8.1 -0.95 Q-7.7 -1.35 -7.4 -1.6 L-7.35 -1.65 -7.15 -1.8 -6.95 -1.85 -7.1 -2.0 M-8.1 -0.95 L-8.15 -0.9 -8.15 -0.85 -8.1 -0.95 M-5.5 -0.35 Q-5.7 -0.9 -5.85 -1.15 L-6.05 -1.05 Q-5.85 -0.85 -5.75 -0.45 L-5.65 0.1 Q-5.6 0.45 -5.6 0.8 -5.6 1.15 -5.6 1.35 L-5.3 1.15 -5.25 1.1 Q-5.2 0.9 -5.2 0.75 -5.2 0.55 -5.45 -0.25 L-5.5 -0.35 M-0.1 -6.65 Q-0.5 -6.9 -1.15 -7.05 L-1.25 -7.0 -1.45 -7.0 Q-1.85 -6.4 -2.1 -5.75 -2.35 -4.7 -2.45 -3.65 L-2.4 -3.25 -2.4 -3.15 Q-1.7 -2.8 -1.55 -1.9 -1.5 -0.75 -1.4 -0.3 -1.7 -0.65 -1.85 -1.65 -1.95 -2.35 -2.25 -2.85 L-2.35 -2.8 -2.5 -2.8 -2.7 -2.75 Q-2.9 -2.85 -3.05 -2.85 L-2.9 -2.9 -3.15 -2.85 Q-3.55 -2.9 -4.1 -2.75 -4.45 -2.6 -4.75 -2.4 -5.05 -2.25 -5.05 -2.2 -5.05 -2.15 -4.9 -2.0 L-4.85 -1.9 -4.85 -1.85 -4.7 -1.95 -4.1 -2.4 -3.4 -2.5 Q-3.3 -2.35 -3.2 -1.95 -3.1 -1.6 -3.1 -1.2 L-3.15 -1.15 -3.4 -0.85 -3.7 -0.8 Q-3.95 -0.8 -4.4 -0.5 L-4.35 -0.35 -4.2 0.15 -4.2 1.15 -4.15 1.2 -4.1 1.5 -4.1 2.25 -4.1 2.5 -4.05 2.9 -4.1 3.55 -4.15 4.1 -4.2 4.15 -4.1 4.1 Q-3.7 3.75 -3.05 3.3 L-2.05 2.65 -1.95 2.6 -1.55 2.25 -1.4 2.1 -1.35 2.05 -0.7 1.35 0.7 -0.55 0.85 -2.0 0.8 -3.1 Q0.65 -2.15 0.15 -1.3 -0.05 -0.95 -0.3 -0.65 L-0.3 -0.6 Q-0.1 -0.3 -0.1 -0.1 L-0.1 0.05 Q-0.25 -0.05 -0.45 -0.4 L-0.45 -0.45 -0.75 -0.2 -0.7 -0.1 -0.7 0.6 Q-0.85 0.5 -1.0 0.05 L-1.1 0.1 -1.1 0.15 -1.15 0.15 -1.25 0.25 -1.3 0.25 -1.35 0.3 -1.4 0.3 -1.4 0.35 -1.45 0.35 -2.9 1.05 -2.95 1.1 -3.8 1.3 -3.8 1.2 Q-2.1 0.55 -1.05 -0.2 L-1.15 -0.6 -1.15 -0.7 -1.1 -0.75 -1.0 -0.75 Q-0.85 -0.65 -0.8 -0.45 L-0.6 -0.65 -0.7 -0.9 -0.75 -0.95 -0.7 -1.05 Q-0.6 -1.0 -0.4 -0.8 0.05 -1.3 0.25 -1.85 0.35 -2.1 0.45 -2.45 L0.45 -2.65 0.55 -3.1 0.55 -3.45 0.65 -4.65 0.45 -5.9 0.45 -6.0 0.45 -6.1 0.4 -6.2 0.25 -6.35 0.25 -6.4 0.15 -6.45 -0.1 -6.65 M-3.6 -2.45 Q-3.8 -2.45 -4.65 -1.75 L-4.75 -1.7 Q-4.65 -1.4 -4.5 -0.95 L-4.45 -0.7 -4.4 -0.7 -4.1 -0.85 Q-3.65 -1.0 -3.5 -1.1 -3.3 -1.25 -3.3 -1.55 -3.3 -1.8 -3.35 -2.05 -3.4 -2.45 -3.6 -2.45 M-4.9 0.85 L-4.75 0.65 -4.7 0.65 -4.6 0.6 -4.6 0.4 Q-4.6 0.35 -4.9 -0.7 L-5.05 -1.35 -5.05 -1.4 -5.1 -1.4 -5.1 -1.45 -5.15 -1.45 -5.25 -1.3 -5.35 -1.2 -5.5 -1.25 -5.3 -0.85 Q-5.25 -0.65 -5.15 -0.35 L-5.1 -0.15 -5.1 -0.05 -4.95 0.7 -4.95 0.85 -4.9 0.85 M-2.7 -2.9 L-2.7 -2.9 M1.25 -0.6 L1.05 -0.35 1.2 -0.6 1.25 -0.6 M-5.25 1.55 L-5.25 1.55 M-5.3 1.55 L-5.35 1.55 -5.35 1.6 -5.3 1.5 -5.3 1.55 M-4.7 1.3 Q-4.85 1.45 -5.3 1.8 L-5.3 1.9 -5.25 2.3 -5.25 3.35 -5.2 3.45 Q-5.0 3.75 -4.75 4.0 -4.55 3.65 -4.45 3.35 -4.4 3.1 -4.45 2.6 L-4.45 1.9 -4.5 1.75 -4.5 1.65 -4.55 1.35 -4.55 1.2 -4.7 1.3 M-5.55 2.05 L-5.55 2.05 M-8.05 3.1 L-8.05 3.1" fill="#101010" fill-rule="evenodd" stroke="none"/>
  </g>
</svg>
