<?xml version="1.0" encoding="UTF-8" standalone="no"?>
<svg xmlns:ffdec="https://www.free-decompiler.com/flash" xmlns:xlink="http://www.w3.org/1999/xlink" ffdec:objectType="shape" height="8.7px" width="8.0px" xmlns="http://www.w3.org/2000/svg">
  <g transform="matrix(1.0, 0.0, 0.0, 1.0, 3.95, 8.05)">
    <path d="M0.9 -7.5 Q1.7 -7.1 2.2 -7.0 L4.0 -7.05 4.05 -6.95 Q4.1 -6.85 3.45 -5.65 L3.0 -4.95 2.75 -4.45 2.75 -4.4 Q2.75 -4.2 2.2 -3.7 L2.3 -3.6 Q2.35 -3.45 2.6 -3.1 2.7 -2.95 2.85 -2.8 L2.85 -2.75 2.9 -2.5 2.9 -2.25 2.45 -1.45 2.15 -1.0 Q1.75 -0.6 0.6 0.45 L0.5 0.4 0.2 0.4 Q0.1 0.45 -0.1 0.5 -0.45 0.65 -0.85 0.65 -1.6 0.65 -1.8 0.3 L-1.9 0.15 -2.1 -0.1 -2.55 -0.1 -2.5 0.05 Q-2.5 0.2 -2.55 0.3 -2.65 0.4 -2.7 0.4 -3.25 0.4 -3.65 -0.1 -3.95 -0.45 -3.95 -0.7 -3.95 -0.95 -3.85 -1.1 -3.7 -1.3 -3.45 -1.3 L-3.15 -1.25 -3.25 -1.6 Q-3.35 -2.0 -3.35 -2.1 -3.35 -2.55 -3.1 -2.95 -2.75 -3.5 -2.05 -3.2 L-2.0 -3.3 Q-1.25 -3.9 -0.25 -2.6 L-0.25 -2.5 Q-0.15 -2.35 -0.1 -2.25 L-0.1 -2.1 Q-0.1 -1.85 -0.1 -1.65 L0.05 -1.85 0.3 -2.15 0.45 -2.45 0.45 -2.5 0.15 -2.35 Q0.05 -2.3 0.0 -2.3 L-0.1 -2.45 -0.2 -2.8 -0.3 -3.0 -0.55 -3.4 -0.9 -4.1 -1.15 -4.45 -1.25 -4.6 -1.95 -5.8 Q-2.5 -6.95 -2.2 -7.7 L-2.25 -7.75 -2.2 -7.75 -2.1 -7.9 Q-1.5 -8.1 -0.65 -8.0 L-0.2 -7.95 0.05 -7.9 0.0 -7.85 Q0.35 -7.75 0.9 -7.5 M1.1 -7.15 L1.05 -7.2 0.85 -7.25 0.85 -7.3 Q0.1 -7.65 -0.35 -7.75 L-0.75 -7.8 -1.35 -7.8 -1.85 -7.6 Q-2.05 -7.5 -2.1 -7.35 L-2.1 -7.15 Q-2.15 -6.65 -2.1 -6.5 L-1.95 -6.0 -1.9 -5.95 -1.75 -5.6 -1.5 -5.15 -1.0 -4.5 -0.4 -3.7 Q-0.6 -4.4 -0.85 -4.95 L-1.0 -5.45 -1.05 -5.65 -1.05 -5.6 -0.65 -4.85 -0.3 -4.1 Q-0.25 -4.05 -0.1 -3.35 L0.05 -2.65 0.3 -2.65 0.35 -2.7 Q1.05 -2.9 1.75 -3.55 L2.2 -4.0 Q2.6 -4.6 3.0 -5.4 L3.15 -5.6 Q3.55 -6.3 3.7 -6.7 L3.7 -6.75 Q2.8 -6.6 2.05 -6.8 1.65 -6.9 1.1 -7.15 M0.4 -0.5 L0.45 -0.4 Q0.65 -0.1 0.7 0.15 L1.55 -0.65 2.05 -1.2 Q2.15 -1.35 2.35 -1.7 L2.55 -2.0 2.6 -2.35 2.6 -2.5 2.55 -2.6 2.5 -2.75 2.5 -2.8 Q2.35 -3.15 2.15 -3.4 L2.05 -3.55 1.85 -3.35 1.7 -3.25 1.65 -3.2 1.6 -3.2 Q1.45 -3.1 1.25 -2.95 L1.25 -2.9 1.05 -2.7 0.7 -2.2 Q0.15 -1.3 -0.15 -1.2 L-0.2 -1.15 Q-0.2 -1.05 -0.15 -0.95 L-0.1 -0.85 Q0.05 -0.85 0.15 -0.75 L0.25 -0.65 0.3 -0.65 0.4 -0.5 M-0.95 -2.3 L-0.95 -2.05 -1.05 -1.9 -1.05 -1.75 -1.1 -1.6 Q-0.8 -1.75 -0.65 -1.7 -0.65 -1.65 -0.95 -1.5 L-1.15 -1.4 Q-1.15 -1.25 -1.35 -0.85 -1.55 -0.4 -1.65 -0.4 -1.85 -0.4 -1.9 -0.85 L-1.95 -0.8 Q-2.0 -0.75 -2.1 -0.75 -2.25 -0.75 -2.35 -0.9 L-2.4 -0.55 -2.4 -0.5 -2.5 -0.5 Q-2.65 -0.5 -2.75 -0.55 L-2.6 -0.3 -2.5 -0.3 -1.95 -0.35 -1.9 -0.3 -1.85 -0.3 -1.8 -0.2 -1.8 -0.15 -1.6 0.1 Q-1.35 0.4 -0.5 0.3 L-0.4 0.25 0.05 0.1 0.15 0.1 0.15 0.15 0.2 0.15 0.25 0.25 Q0.35 0.2 0.5 0.15 L0.35 -0.15 Q0.25 -0.35 0.25 -0.45 0.25 -0.5 0.05 -0.6 L-0.1 -0.7 -0.25 -0.7 -0.25 -0.4 -0.35 -0.35 -0.4 -0.35 -0.45 -0.4 -0.4 -1.0 -0.4 -1.1 -0.35 -1.35 -0.35 -1.7 -0.4 -2.0 -0.4 -2.05 -0.45 -2.15 -0.5 -2.35 -0.85 -2.6 -1.05 -2.65 -1.0 -2.45 -0.95 -2.3 M-3.15 -2.2 L-3.15 -2.1 Q-3.15 -1.95 -3.0 -1.45 L-2.75 -1.05 Q-2.7 -0.85 -2.6 -0.85 L-2.5 -0.85 -2.5 -0.95 -2.55 -1.15 -2.5 -1.3 -2.5 -1.35 -2.55 -1.55 -2.6 -2.0 Q-2.6 -2.6 -2.2 -3.1 L-2.55 -3.0 Q-2.95 -2.9 -3.0 -2.75 L-3.1 -2.4 -3.15 -2.2 M-2.75 -0.1 Q-2.75 -0.2 -2.85 -0.3 -2.85 -0.55 -3.1 -0.85 -3.3 -1.1 -3.45 -1.05 -3.7 -1.2 -3.75 -0.9 L-3.8 -0.7 Q-3.8 -0.3 -2.8 0.1 L-2.75 0.1 Q-2.75 0.15 -2.75 0.05 L-2.75 -0.1 M-0.85 -2.85 Q-1.15 -3.15 -1.35 -3.2 -1.25 -3.05 -1.25 -2.95 -1.05 -2.9 -0.8 -2.8 L-0.85 -2.85 M-1.9 -2.05 Q-1.8 -2.85 -1.35 -2.9 L-1.35 -2.95 Q-1.35 -3.0 -1.45 -3.1 L-1.6 -3.2 Q-1.95 -3.15 -2.2 -2.7 L-2.35 -2.35 -2.4 -1.95 Q-2.4 -1.65 -2.35 -1.45 L-2.25 -1.25 -2.25 -1.2 Q-2.2 -0.9 -2.05 -0.9 -2.0 -0.9 -1.95 -0.95 L-1.95 -1.5 -1.9 -2.05 M-1.1 -2.15 L-1.1 -2.2 Q-1.1 -2.3 -1.2 -2.45 L-1.3 -2.6 Q-1.55 -2.5 -1.7 -2.25 -1.8 -2.05 -1.8 -1.65 L-1.75 -1.25 -1.7 -0.75 Q-1.55 -0.95 -1.4 -1.4 L-1.15 -2.0 -1.1 -2.15" fill="#111111" fill-rule="evenodd" stroke="none"/>
    <path d="M-2.55 -1.55 L-2.5 -1.35 -2.5 -1.3 -2.55 -1.15 -2.5 -0.95 -2.5 -0.85 -2.6 -0.85 Q-2.7 -0.85 -2.75 -1.05 L-3.0 -1.45 Q-3.15 -1.95 -3.15 -2.1 L-3.15 -2.2 -3.05 -2.3 Q-2.75 -2.4 -2.65 -1.8 L-2.55 -1.55 M-3.75 -0.9 L-3.1 -0.4 -2.75 -0.1 -2.75 0.05 Q-2.75 0.15 -2.75 0.1 L-2.8 0.1 Q-3.8 -0.3 -3.8 -0.7 L-3.75 -0.9 M-2.35 -2.35 L-2.2 -2.35 Q-1.95 -2.35 -1.9 -2.05 L-1.95 -1.5 -1.95 -0.95 Q-2.0 -0.9 -2.05 -0.9 -2.2 -0.9 -2.25 -1.2 L-2.25 -1.25 -2.35 -1.45 Q-2.4 -1.65 -2.4 -1.95 L-2.35 -2.35 M-1.75 -1.25 Q-1.6 -1.7 -1.1 -2.15 L-1.15 -2.0 -1.4 -1.4 Q-1.55 -0.95 -1.7 -0.75 L-1.75 -1.25" fill="#f1a678" fill-rule="evenodd" stroke="none"/>
    <path d="M-2.55 -1.55 L-2.65 -1.8 Q-2.75 -2.4 -3.05 -2.3 L-3.15 -2.2 -3.1 -2.4 -3.0 -2.75 Q-2.95 -2.9 -2.55 -3.0 L-2.2 -3.1 Q-2.6 -2.6 -2.6 -2.0 L-2.55 -1.55 M-2.75 -0.1 L-3.1 -0.4 -3.75 -0.9 Q-3.7 -1.2 -3.45 -1.05 -3.3 -1.1 -3.1 -0.85 -2.85 -0.55 -2.85 -0.3 -2.75 -0.2 -2.75 -0.1 M-2.35 -2.35 L-2.2 -2.7 Q-1.95 -3.15 -1.6 -3.2 L-1.45 -3.1 Q-1.35 -3.0 -1.35 -2.95 L-1.35 -2.9 Q-1.8 -2.85 -1.9 -2.05 -1.95 -2.35 -2.2 -2.35 L-2.35 -2.35 M-1.75 -1.25 L-1.8 -1.65 Q-1.8 -2.05 -1.7 -2.25 -1.55 -2.5 -1.3 -2.6 L-1.2 -2.45 Q-1.1 -2.3 -1.1 -2.2 L-1.1 -2.15 Q-1.6 -1.7 -1.75 -1.25" fill="#fae2d1" fill-rule="evenodd" stroke="none"/>
    <path d="M-1.75 -5.6 L-1.45 -5.85 -0.75 -6.55 Q-0.4 -6.75 0.95 -7.1 L1.1 -7.15 Q1.65 -6.9 2.05 -6.8 2.8 -6.6 3.7 -6.75 L3.7 -6.7 Q3.55 -6.3 3.15 -5.6 L3.0 -5.4 Q2.6 -4.6 2.2 -4.0 L1.75 -3.55 Q1.05 -2.9 0.35 -2.7 L0.3 -2.65 0.05 -2.65 -0.1 -3.35 Q-0.25 -4.05 -0.3 -4.1 L-0.65 -4.85 -1.05 -5.6 -1.05 -5.65 -1.0 -5.45 -0.85 -4.95 Q-0.6 -4.4 -0.4 -3.7 L-1.0 -4.5 -1.5 -5.15 -1.75 -5.6 M1.05 -2.7 L1.25 -2.9 1.25 -2.95 Q1.45 -3.1 1.6 -3.2 L1.65 -3.2 1.7 -3.25 1.85 -3.35 2.05 -3.55 2.15 -3.4 Q2.35 -3.15 2.5 -2.8 L2.5 -2.75 2.55 -2.6 2.6 -2.5 2.6 -2.35 2.55 -2.0 2.35 -1.7 Q2.15 -1.35 2.05 -1.2 L1.55 -0.65 0.7 0.15 Q0.65 -0.1 0.45 -0.4 L0.4 -0.5 Q0.7 -0.7 1.1 -1.15 1.85 -1.9 1.85 -2.05 1.85 -2.25 1.7 -2.35 1.6 -2.7 1.05 -2.7" fill="#9e8bc2" fill-rule="evenodd" stroke="none"/>
    <path d="M-0.35 -1.7 L-0.35 -1.35 -0.4 -1.1 -0.4 -1.0 -0.45 -0.4 -0.4 -0.35 -0.35 -0.35 -0.25 -0.4 -0.25 -0.7 -0.1 -0.7 0.05 -0.6 Q0.25 -0.5 0.25 -0.45 0.25 -0.35 0.35 -0.15 L0.5 0.15 Q0.35 0.2 0.25 0.25 L0.2 0.15 0.15 0.15 0.15 0.1 0.05 0.1 -0.4 0.25 -0.5 0.3 Q-1.35 0.4 -1.6 0.1 L-1.8 -0.15 -1.8 -0.2 -1.85 -0.3 -1.9 -0.3 -1.95 -0.35 -2.5 -0.3 -2.6 -0.3 -2.75 -0.55 Q-2.65 -0.5 -2.5 -0.5 L-2.4 -0.5 -2.4 -0.55 -2.35 -0.9 Q-2.25 -0.75 -2.1 -0.75 -2.0 -0.75 -1.95 -0.8 L-1.9 -0.85 Q-1.85 -0.4 -1.65 -0.4 -1.55 -0.4 -1.35 -0.85 -1.15 -1.25 -1.15 -1.4 L-0.95 -1.5 Q-0.65 -1.65 -0.65 -1.7 -0.8 -1.75 -1.1 -1.6 L-1.05 -1.75 -1.05 -1.9 -0.95 -2.05 -0.95 -2.3 -0.75 -2.05 -0.35 -1.7" fill="#999966" fill-rule="evenodd" stroke="none"/>
    <path d="M-0.35 -1.7 L-0.75 -2.05 -0.95 -2.3 -1.0 -2.45 -1.05 -2.65 -0.85 -2.6 -0.5 -2.35 -0.45 -2.15 -0.4 -2.05 -0.4 -2.0 -0.35 -1.7 M-0.85 -2.85 L-0.8 -2.8 Q-1.05 -2.9 -1.25 -2.95 -1.25 -3.05 -1.35 -3.2 -1.15 -3.15 -0.85 -2.85" fill="#cdc198" fill-rule="evenodd" stroke="none"/>
    <path d="M1.1 -7.15 L0.95 -7.1 Q-0.4 -6.75 -0.75 -6.55 L-1.45 -5.85 -1.75 -5.6 -1.9 -5.95 -1.95 -6.0 -2.1 -6.5 Q-2.15 -6.65 -2.1 -7.15 L-2.1 -7.35 Q-2.05 -7.5 -1.85 -7.6 L-1.35 -7.8 -0.75 -7.8 -0.35 -7.75 Q0.1 -7.65 0.85 -7.3 L0.85 -7.25 1.05 -7.2 1.1 -7.15" fill="#5454bc" fill-rule="evenodd" stroke="none"/>
    <path d="M1.05 -2.7 Q1.6 -2.7 1.7 -2.35 1.85 -2.25 1.85 -2.05 1.85 -1.9 1.1 -1.15 0.7 -0.7 0.4 -0.5 L0.3 -0.65 0.25 -0.65 0.15 -0.75 Q0.05 -0.85 -0.1 -0.85 L-0.15 -0.95 Q-0.2 -1.05 -0.2 -1.15 L-0.15 -1.2 Q0.15 -1.3 0.7 -2.2 L1.05 -2.7" fill="#cfb8de" fill-rule="evenodd" stroke="none"/>
  </g>
</svg>
