<?xml version="1.0" encoding="UTF-8" standalone="no"?>
<svg xmlns:ffdec="https://www.free-decompiler.com/flash" xmlns:xlink="http://www.w3.org/1999/xlink" ffdec:objectType="shape" height="7.85px" width="8.25px" xmlns="http://www.w3.org/2000/svg">
  <g transform="matrix(1.0, 0.0, 0.0, 1.0, 4.5, 8.6)">
    <path d="M2.25 -7.6 Q2.0 -6.15 0.4 -4.1 -0.05 -3.5 -0.9 -2.55 L-1.55 -1.75 -1.35 -1.6 -1.1 -1.55 -0.85 -1.55 Q-0.4 -1.8 0.25 -2.4 L0.65 -2.75 1.25 -3.45 Q2.9 -5.35 3.0 -6.25 3.0 -6.4 2.8 -7.05 L2.75 -7.35 Q2.55 -7.4 2.25 -7.6 M2.75 -8.4 Q3.1 -8.2 3.2 -7.95 3.4 -7.65 3.55 -7.05 L3.75 -5.9 Q3.7 -5.45 3.45 -5.05 3.25 -4.7 3.25 -4.65 L3.45 -4.2 Q3.35 -3.5 2.65 -3.15 2.3 -2.9 1.95 -2.9 L1.75 -2.65 1.4 -2.25 Q1.45 -2.2 1.45 -2.15 1.4 -1.55 0.8 -1.1 0.25 -0.75 -0.2 -0.75 -1.0 -0.85 -1.75 -1.4 -2.55 -1.95 -2.75 -1.95 L-3.35 -1.85 Q-3.85 -1.9 -4.5 -2.9 -4.45 -3.3 -4.1 -4.3 L-4.05 -4.4 -4.05 -4.5 Q-3.9 -4.85 -3.75 -5.15 -3.7 -6.25 -1.6 -7.45 0.55 -8.75 2.15 -8.6 2.45 -8.55 2.75 -8.4 M1.55 -8.0 Q-0.05 -8.15 -1.45 -6.95 -2.4 -5.95 -3.1 -5.4 -3.15 -5.3 -3.25 -5.15 L-3.55 -4.75 -3.75 -4.25 -3.75 -4.1 Q-3.75 -4.0 -3.7 -3.9 -3.65 -3.8 -3.65 -3.7 -3.65 -3.4 -3.2 -2.95 -2.85 -2.6 -2.75 -2.35 L-2.6 -2.4 -2.6 -2.35 -2.5 -2.35 Q-2.4 -2.35 -2.2 -2.15 L-2.1 -2.05 -1.9 -1.95 -0.75 -3.1 Q0.0 -3.85 0.4 -4.4 1.65 -5.95 1.9 -7.85 1.65 -8.0 1.55 -8.0 M3.2 -6.05 Q3.0 -5.55 2.5 -4.8 2.05 -4.15 1.5 -3.5 L1.5 -3.35 Q1.2 -3.1 0.9 -2.75 L0.55 -2.25 Q0.4 -2.1 0.2 -1.95 -0.45 -1.5 -0.9 -1.3 -0.5 -1.15 -0.2 -1.15 0.4 -1.05 0.65 -1.5 0.75 -1.65 0.8 -2.0 L1.0 -2.3 Q1.05 -2.65 1.35 -2.9 L1.6 -3.1 1.65 -3.1 1.85 -3.3 Q2.25 -3.3 2.45 -3.45 2.75 -3.6 2.8 -4.15 L2.75 -4.4 Q2.65 -4.6 2.65 -4.65 2.7 -4.8 2.95 -5.3 3.15 -5.75 3.2 -5.95 L3.2 -6.05 M-3.6 -3.45 L-3.9 -3.95 Q-4.0 -3.5 -4.05 -2.9 -4.1 -2.4 -3.35 -2.35 L-3.1 -2.35 -3.6 -3.45" fill="#111111" fill-rule="evenodd" stroke="none"/>
    <path d="M2.25 -7.6 Q2.55 -7.4 2.75 -7.35 L2.8 -7.05 Q3.0 -6.4 3.0 -6.25 2.9 -5.35 1.25 -3.45 L0.65 -2.75 0.25 -2.4 Q-0.4 -1.8 -0.85 -1.55 L-1.1 -1.55 -1.35 -1.6 -1.55 -1.75 -0.9 -2.55 Q-0.05 -3.5 0.4 -4.1 2.0 -6.15 2.25 -7.6 M-3.6 -3.45 L-3.1 -2.35 -3.35 -2.35 Q-4.1 -2.4 -4.05 -2.9 -4.0 -3.5 -3.9 -3.95 L-3.6 -3.45 M3.2 -6.05 L3.2 -5.95 Q3.15 -5.75 2.95 -5.3 2.7 -4.8 2.65 -4.65 2.65 -4.6 2.75 -4.4 L2.8 -4.15 Q2.75 -3.6 2.45 -3.45 2.25 -3.3 1.85 -3.3 L1.65 -3.1 1.6 -3.1 1.35 -2.9 Q1.05 -2.65 1.0 -2.3 L0.8 -2.0 Q0.75 -1.65 0.65 -1.5 0.4 -1.05 -0.2 -1.15 -0.5 -1.15 -0.9 -1.3 -0.45 -1.5 0.2 -1.95 0.4 -2.1 0.55 -2.25 L0.9 -2.75 Q1.2 -3.1 1.5 -3.35 L1.5 -3.5 Q2.05 -4.15 2.5 -4.8 3.0 -5.55 3.2 -6.05 M1.55 -8.0 Q1.65 -8.0 1.9 -7.85 1.65 -5.95 0.4 -4.4 0.0 -3.85 -0.75 -3.1 L-1.9 -1.95 -2.1 -2.05 -2.2 -2.15 Q-2.4 -2.35 -2.5 -2.35 L-2.6 -2.35 -2.6 -2.4 -2.75 -2.35 Q-2.85 -2.6 -3.2 -2.95 -3.65 -3.4 -3.65 -3.7 -3.65 -3.8 -3.7 -3.9 -3.75 -4.0 -3.75 -4.1 L-3.75 -4.25 -3.55 -4.75 -3.25 -5.15 Q-3.15 -5.3 -3.1 -5.4 -2.4 -5.95 -1.45 -6.95 -0.05 -8.15 1.55 -8.0" fill="#cec79f" fill-rule="evenodd" stroke="none"/>
  </g>
</svg>
