<?xml version="1.0" encoding="UTF-8" standalone="no"?>
<svg xmlns:ffdec="https://www.free-decompiler.com/flash" xmlns:xlink="http://www.w3.org/1999/xlink" ffdec:objectType="shape" height="12.9px" width="10.1px" xmlns="http://www.w3.org/2000/svg">
  <g transform="matrix(1.0, 0.0, 0.0, 1.0, 3.4, 8.85)">
    <path d="M-0.2 -1.45 Q0.15 -1.55 0.6 -1.75 L0.8 -1.85 1.05 -2.0 1.3 -2.1 1.3 -1.75 1.35 -1.7 1.35 -1.6 1.4 -1.55 1.55 -1.35 1.7 -1.05 1.55 -0.85 1.45 -0.75 1.15 -0.3 0.85 -0.05 Q0.6 0.15 0.2 0.75 0.15 0.25 0.05 -0.2 L-0.2 -1.45 M0.35 1.0 L0.65 0.55 0.85 0.35 1.25 -0.15 1.3 -0.15 Q1.4 -0.25 1.75 -0.45 L1.95 -0.3 Q2.05 -0.05 2.25 0.15 2.45 0.45 2.65 0.45 L3.6 1.15 Q3.3 1.3 2.95 1.6 2.4 2.05 2.1 2.4 L2.15 2.35 1.5 1.9 Q1.1 1.65 0.5 1.15 L0.35 1.0 M4.55 3.3 L4.15 3.15 2.9 2.65 2.8 2.6 3.1 2.1 Q3.45 1.7 3.85 1.4 L4.8 2.6 5.1 2.9 4.85 3.15 4.65 3.3 4.55 3.3" fill="#666633" fill-rule="evenodd" stroke="none"/>
    <path d="M2.0 -3.55 Q2.2 -3.6 2.4 -3.75 L2.55 -3.95 2.8 -4.1 3.05 -4.35 3.1 -4.35 3.25 -4.15 3.3 -4.0 3.35 -3.9 3.35 -3.8 3.4 -3.45 3.4 -3.15 Q3.25 -2.95 2.65 -2.95 L2.3 -3.05 2.4 -3.05 Q3.05 -3.35 3.05 -3.5 L3.05 -3.6 2.0 -3.55 M-0.1 -5.1 L0.4 -5.0 0.7 -5.25 0.8 -5.3 Q0.75 -5.15 1.1 -4.9 L1.15 -4.4 1.1 -4.4 1.1 -4.35 Q1.1 -3.85 0.2 -3.8 L-0.35 -3.75 -0.5 -3.75 -0.55 -4.2 -0.65 -4.6 -0.6 -4.65 Q-0.5 -4.75 0.05 -5.05 L-0.1 -5.1 M-0.5 -3.0 L-0.4 -3.1 0.15 -3.45 0.75 -3.65 1.15 -3.65 1.15 -3.6 1.2 -2.95 1.2 -2.9 1.1 -2.55 0.95 -2.35 0.25 -2.0 -0.35 -1.8 -0.45 -2.8 -0.5 -3.0 M1.35 -4.05 L1.4 -4.0 Q1.5 -3.85 1.6 -3.85 L1.7 -3.85 1.75 -3.8 Q1.75 -3.7 1.55 -3.55 L1.4 -3.4 1.35 -3.65 1.35 -4.05 M1.6 -2.5 Q1.6 -2.65 1.65 -2.8 L1.75 -2.8 Q1.9 -2.7 2.0 -2.65 L2.05 -2.6 2.05 -2.55 2.15 -2.55 2.25 -2.5 2.6 -2.25 2.9 -2.1 2.65 -1.9 2.35 -2.0 1.6 -2.5 M-0.55 -3.35 L-0.6 -3.45 -0.65 -3.45 -0.4 -3.45 -0.55 -3.35" fill="#dad3a3" fill-rule="evenodd" stroke="none"/>
    <path d="M0.55 -7.7 L0.55 -7.65 0.75 -7.4 0.75 -7.35 0.85 -6.6 0.9 -6.3 0.85 -6.25 0.85 -6.2 Q0.85 -5.9 0.55 -5.7 0.25 -5.45 -0.45 -5.45 -1.45 -5.45 -2.05 -5.9 L-2.2 -6.0 -2.75 -6.65 -2.8 -6.85 -2.8 -7.2 -2.75 -7.55 -2.65 -7.7 -2.6 -7.75 -1.4 -7.75 -1.1 -7.8 -1.0 -7.8 -0.95 -7.75 -0.9 -7.8 -0.8 -7.8 -0.1 -7.85 0.1 -7.85 Q0.25 -7.75 0.4 -7.75 L0.55 -7.7 M2.0 -3.55 L3.05 -3.6 3.05 -3.5 Q3.05 -3.35 2.4 -3.05 L2.3 -3.05 2.15 -3.05 Q2.05 -3.3 1.8 -3.35 L1.8 -3.4 1.85 -3.4 2.0 -3.55 M-0.1 -5.1 L0.05 -5.05 Q-0.5 -4.75 -0.6 -4.65 L-0.65 -4.6 -0.55 -4.2 -0.5 -3.75 -1.4 -3.8 Q-1.65 -3.85 -1.75 -3.95 L-1.8 -3.95 -1.9 -4.4 -1.85 -4.45 -1.85 -4.55 -2.0 -4.95 -2.0 -5.05 -2.05 -5.15 -2.3 -5.55 -2.35 -5.6 -2.3 -5.6 -2.25 -5.55 Q-2.2 -5.55 -2.2 -5.5 -2.0 -5.4 -1.7 -5.35 L-1.65 -5.3 -1.4 -5.3 -0.8 -5.25 -0.7 -5.25 -0.1 -5.1 M-0.5 -3.0 L-0.45 -2.8 -0.35 -1.8 -1.05 -1.55 -1.15 -2.0 -1.25 -2.35 Q-1.3 -2.45 -0.5 -3.0 M1.6 -2.5 L2.35 -2.0 2.65 -1.9 2.2 -1.7 1.85 -1.6 Q1.7 -1.85 1.7 -1.9 L1.7 -2.2 Q1.6 -2.4 1.6 -2.5 M2.05 -1.9 L2.05 -1.9 M-0.55 -3.35 L-0.75 -3.2 -1.35 -2.8 -1.45 -3.35 -1.5 -3.5 -1.5 -3.6 -1.55 -3.7 -1.45 -3.7 -1.45 -3.65 Q-1.2 -3.55 -1.05 -3.55 L-1.0 -3.5 -0.95 -3.5 -0.65 -3.45 -0.6 -3.45 -0.55 -3.35" fill="#cb9c56" fill-rule="evenodd" stroke="none"/>
    <path d="M-0.2 -1.45 L0.05 -0.2 Q0.15 0.25 0.2 0.75 L0.1 0.85 -0.1 1.15 -0.2 1.25 -0.1 1.05 -0.5 1.55 -0.6 1.55 -0.65 1.45 -0.65 0.65 -0.75 -0.35 Q-0.75 -0.55 -0.8 -0.75 L-0.8 -1.1 -0.85 -1.15 -0.85 -1.25 Q-0.8 -1.25 -0.7 -1.3 L-0.2 -1.45 M0.35 1.0 L0.5 1.15 Q1.1 1.65 1.5 1.9 L2.15 2.35 2.1 2.4 1.9 2.65 1.9 2.7 1.35 2.5 0.9 2.35 Q0.2 2.1 -0.1 2.05 L-0.1 1.9 0.2 1.2 0.35 1.0 M4.55 3.3 L3.8 3.35 3.65 3.35 Q3.4 3.35 2.65 3.1 L2.6 3.05 2.6 2.95 2.8 2.6 2.9 2.65 4.15 3.15 4.55 3.3" fill="#5c4923" fill-rule="evenodd" stroke="none"/>
    <path d="M1.1 -8.8 Q1.3 -9.0 1.3 -8.6 1.3 -8.05 1.4 -7.9 1.45 -7.7 1.45 -7.2 L1.5 -6.65 1.5 -5.6 1.55 -5.3 1.65 -4.65 Q1.65 -4.6 1.8 -4.4 L1.9 -4.2 2.05 -4.25 2.4 -4.35 2.95 -4.9 3.0 -4.9 3.1 -4.8 Q3.4 -4.75 3.6 -4.4 L3.75 -4.1 3.8 -4.05 Q3.9 -3.85 3.9 -3.7 L3.8 -3.1 Q3.75 -2.75 3.65 -2.7 L3.5 -2.5 3.45 -2.45 Q3.45 -2.4 3.5 -2.35 3.55 -2.35 3.55 -2.25 3.55 -2.15 3.5 -2.1 L3.45 -2.05 Q3.5 -1.7 3.05 -1.35 L2.25 -0.95 2.4 -0.7 2.4 -0.6 2.8 -0.3 3.55 0.45 3.65 0.5 3.9 0.65 3.95 0.7 4.1 0.8 4.2 0.9 4.65 1.3 5.0 1.65 5.3 1.9 Q6.35 2.7 6.5 2.95 6.7 3.05 6.7 3.2 6.7 3.45 6.4 3.65 6.2 3.8 5.9 3.85 L5.75 3.95 Q5.5 4.05 4.7 4.05 2.7 4.05 2.05 3.75 1.65 3.35 1.2 3.2 L0.4 2.95 -0.15 2.8 -0.45 2.7 Q-1.4 2.4 -1.4 2.25 L-1.3 2.0 -1.35 1.7 -1.3 0.95 -1.35 0.45 -1.4 -0.1 Q-1.4 -0.3 -1.5 -0.65 -1.65 -0.85 -1.85 -1.3 L-2.1 -2.05 -2.1 -2.25 Q-2.2 -2.35 -2.3 -2.6 -2.4 -2.85 -2.45 -3.15 L-2.4 -3.35 Q-2.5 -3.4 -2.55 -3.55 -2.6 -3.7 -2.55 -3.85 L-2.6 -4.2 -2.7 -4.55 Q-2.7 -4.8 -3.05 -5.2 -3.4 -5.6 -3.4 -5.9 L-3.35 -6.2 -3.3 -6.45 -3.15 -7.35 -3.15 -7.7 Q-3.15 -8.05 -3.0 -8.3 -2.95 -8.4 -2.9 -8.35 L-2.8 -8.4 -1.25 -8.15 -0.95 -8.1 -0.65 -8.1 0.1 -8.15 Q0.3 -8.3 0.6 -8.4 L0.9 -8.5 Q0.9 -8.7 1.1 -8.8 M0.55 -7.7 L0.4 -7.75 Q0.25 -7.75 0.1 -7.85 L-0.1 -7.85 -0.8 -7.8 -0.9 -7.8 -0.95 -7.75 -1.0 -7.8 -1.1 -7.8 -1.4 -7.75 -2.6 -7.75 -2.65 -7.7 -2.75 -7.55 -2.8 -7.2 -2.8 -6.85 -2.75 -6.65 -2.2 -6.0 -2.05 -5.9 Q-1.45 -5.45 -0.45 -5.45 0.25 -5.45 0.55 -5.7 0.85 -5.9 0.85 -6.2 L0.85 -6.25 0.9 -6.3 0.85 -6.6 0.75 -7.35 0.75 -7.4 0.55 -7.65 0.55 -7.7 M2.3 -3.05 L2.65 -2.95 Q3.25 -2.95 3.4 -3.15 L3.4 -3.45 3.35 -3.8 3.35 -3.9 3.3 -4.0 3.25 -4.15 3.1 -4.35 3.05 -4.35 2.8 -4.1 2.55 -3.95 2.4 -3.75 Q2.2 -3.6 2.0 -3.55 L1.85 -3.4 1.8 -3.4 1.8 -3.35 Q2.05 -3.3 2.15 -3.05 L2.3 -3.05 M-0.5 -3.75 L-0.35 -3.75 0.2 -3.8 Q1.1 -3.85 1.1 -4.35 L1.1 -4.4 1.15 -4.4 1.1 -4.9 Q0.75 -5.15 0.8 -5.3 L0.7 -5.25 0.4 -5.0 -0.1 -5.1 -0.7 -5.25 -0.8 -5.25 -1.4 -5.3 -1.65 -5.3 -1.7 -5.35 Q-2.0 -5.4 -2.2 -5.5 -2.2 -5.55 -2.25 -5.55 L-2.3 -5.6 -2.35 -5.6 -2.3 -5.55 -2.05 -5.15 -2.0 -5.05 -2.0 -4.95 -1.85 -4.55 -1.85 -4.45 -1.9 -4.4 -1.8 -3.95 -1.75 -3.95 Q-1.65 -3.85 -1.4 -3.8 L-0.5 -3.75 M1.35 -4.05 L1.35 -3.65 1.4 -3.4 1.55 -3.55 Q1.75 -3.7 1.75 -3.8 L1.7 -3.85 1.6 -3.85 Q1.5 -3.85 1.4 -4.0 L1.35 -4.05 M-0.35 -1.8 L0.25 -2.0 0.95 -2.35 1.1 -2.55 1.2 -2.9 1.2 -2.95 1.15 -3.6 1.15 -3.65 0.75 -3.65 0.15 -3.45 -0.4 -3.1 -0.5 -3.0 Q-1.3 -2.45 -1.25 -2.35 L-1.15 -2.0 -1.05 -1.55 -0.35 -1.8 M2.65 -1.9 L2.9 -2.1 2.6 -2.25 2.25 -2.5 2.15 -2.55 2.05 -2.55 2.05 -2.6 2.0 -2.65 Q1.9 -2.7 1.75 -2.8 L1.65 -2.8 Q1.6 -2.65 1.6 -2.5 1.6 -2.4 1.7 -2.2 L1.7 -1.9 Q1.7 -1.85 1.85 -1.6 L2.2 -1.7 2.65 -1.9 M2.05 -1.9 L2.05 -1.9 M0.2 0.75 Q0.6 0.15 0.85 -0.05 L1.15 -0.3 1.45 -0.75 1.55 -0.85 1.7 -1.05 1.55 -1.35 1.4 -1.55 1.35 -1.6 1.35 -1.7 1.3 -1.75 1.3 -2.1 1.05 -2.0 0.8 -1.85 0.6 -1.75 Q0.15 -1.55 -0.2 -1.45 L-0.7 -1.3 Q-0.8 -1.25 -0.85 -1.25 L-0.85 -1.15 -0.8 -1.1 -0.8 -0.75 Q-0.75 -0.55 -0.75 -0.35 L-0.65 0.65 -0.65 1.45 -0.6 1.55 -0.5 1.55 -0.1 1.05 -0.2 1.25 -0.1 1.15 0.1 0.85 0.2 0.75 M2.1 2.4 Q2.4 2.05 2.95 1.6 3.3 1.3 3.6 1.15 L2.65 0.45 Q2.45 0.45 2.25 0.15 2.05 -0.05 1.95 -0.3 L1.75 -0.45 Q1.4 -0.25 1.3 -0.15 L1.25 -0.15 0.85 0.35 0.65 0.55 0.35 1.0 0.2 1.2 -0.1 1.9 -0.1 2.05 Q0.2 2.1 0.9 2.35 L1.35 2.5 1.9 2.7 1.9 2.65 2.1 2.4 M2.8 2.6 L2.6 2.95 2.6 3.05 2.65 3.1 Q3.4 3.35 3.65 3.35 L3.8 3.35 4.55 3.3 4.65 3.3 4.85 3.15 5.1 2.9 4.8 2.6 3.85 1.4 Q3.45 1.7 3.1 2.1 L2.8 2.6 M5.25 3.2 L5.35 3.15 5.3 3.15 5.25 3.2 M-2.85 -8.15 L-2.85 -8.15 M-0.65 -3.45 L-0.95 -3.5 -1.0 -3.5 -1.05 -3.55 Q-1.2 -3.55 -1.45 -3.65 L-1.45 -3.7 -1.55 -3.7 -1.5 -3.6 -1.5 -3.5 -1.45 -3.35 -1.35 -2.8 -0.75 -3.2 -0.55 -3.35 -0.4 -3.45 -0.65 -3.45" fill="#101010" fill-rule="evenodd" stroke="none"/>
  </g>
</svg>
