<?xml version="1.0" encoding="UTF-8" standalone="no"?>
<svg xmlns:ffdec="https://www.free-decompiler.com/flash" xmlns:xlink="http://www.w3.org/1999/xlink" ffdec:objectType="shape" height="12.1px" width="9.2px" xmlns="http://www.w3.org/2000/svg">
  <g transform="matrix(1.0, 0.0, 0.0, 1.0, 4.7, 8.8)">
    <path d="M-0.2 -0.4 L0.05 -0.4 Q0.6 -0.4 1.0 -0.2 1.65 0.2 1.9 0.25 L0.75 1.05 0.25 0.7 Q-0.4 0.25 -0.7 0.15 -0.45 -0.05 -0.2 -0.4 M-2.1 2.55 L-3.3 2.55 Q-3.35 2.55 -3.35 2.45 -3.35 2.15 -2.75 1.85 L-2.15 1.35 -1.15 0.55 -0.85 0.5 -0.65 0.5 Q-0.15 0.8 0.1 1.2 L0.35 1.6 0.3 1.55 Q-0.9 2.1 -2.1 2.55" fill="#666633" fill-rule="evenodd" stroke="none"/>
    <path d="M0.15 -7.5 L0.1 -7.85 0.25 -7.9 0.35 -7.95 0.95 -8.2 Q2.15 -8.45 2.85 -8.45 L2.95 -8.45 3.4 -8.4 3.5 -8.25 Q3.25 -8.2 2.55 -7.85 1.75 -7.4 1.55 -7.2 L1.25 -7.1 0.45 -6.9 0.2 -6.9 Q0.2 -7.0 0.2 -7.1 L0.15 -7.5 M3.65 -7.2 L3.55 -6.45 3.5 -6.1 3.5 -5.95 Q3.5 -5.55 3.25 -5.3 L3.15 -5.15 3.1 -5.1 3.1 -5.05 3.05 -5.05 2.9 -5.0 Q2.55 -4.85 2.05 -4.85 L1.6 -4.85 Q1.25 -4.85 1.15 -5.0 L1.1 -5.05 0.95 -5.05 0.9 -5.15 0.95 -5.15 0.95 -5.2 Q0.95 -5.35 0.7 -5.85 L0.7 -5.95 Q0.7 -6.05 0.6 -6.1 L0.55 -6.15 Q0.55 -6.25 0.45 -6.4 L0.4 -6.5 Q0.55 -6.55 0.7 -6.6 L1.2 -6.75 1.6 -6.85 1.65 -6.85 Q1.7 -6.85 1.9 -6.95 L2.1 -7.0 2.45 -7.15 3.1 -7.35 Q3.55 -7.5 3.75 -7.65 L3.7 -7.5 3.65 -7.3 3.65 -7.2 M3.15 -4.95 L3.1 -4.95 Q3.15 -4.75 3.15 -4.65 L3.15 -4.5 3.2 -4.5 3.15 -4.25 2.85 -4.1 2.6 -3.95 2.55 -3.9 2.35 -3.85 2.1 -3.8 2.05 -3.75 1.7 -3.65 1.45 -3.65 0.8 -3.8 0.8 -4.3 Q0.75 -4.4 0.8 -4.5 L0.8 -4.9 Q0.85 -4.8 1.05 -4.75 L2.25 -4.65 Q2.3 -4.65 2.35 -4.7 L2.5 -4.65 2.6 -4.65 Q2.7 -4.65 2.85 -4.75 2.95 -4.8 3.0 -4.85 L3.1 -4.95 3.15 -4.95" fill="#cb9c56" fill-rule="evenodd" stroke="none"/>
    <path d="M2.9 -3.7 L3.05 -3.7 3.05 -3.2 3.1 -2.75 3.1 -2.25 Q3.1 -1.9 3.1 -1.7 L3.05 -1.75 3.0 -1.85 3.05 -1.6 3.0 -1.35 Q3.0 -1.25 2.8 -1.15 L2.75 -1.25 2.15 -1.55 2.0 -1.6 1.9 -1.7 Q1.7 -1.8 1.5 -1.9 L1.45 -1.9 Q1.2 -2.05 1.05 -2.05 L1.05 -2.45 1.1 -2.5 1.1 -2.7 1.15 -3.1 1.15 -3.15 1.3 -3.15 Q1.6 -3.15 1.75 -3.25 L1.85 -3.25 Q2.0 -3.3 2.35 -3.5 L2.6 -3.7 2.9 -3.7 M-0.2 -0.4 L-0.05 -0.65 0.55 -1.3 0.55 -1.35 0.7 -1.5 0.95 -1.8 1.0 -1.85 1.0 -1.9 1.05 -1.9 1.3 -1.8 Q1.75 -1.5 1.9 -1.5 2.05 -1.4 2.35 -1.3 L2.75 -1.05 Q2.85 -0.95 3.0 -0.9 L3.2 -0.75 3.25 -0.7 3.25 -0.6 Q3.4 -0.5 3.5 -0.2 L3.55 0.05 Q3.55 0.15 3.65 0.4 L3.6 0.5 3.5 0.65 3.45 0.8 3.1 1.0 2.35 1.35 Q2.2 1.4 2.05 1.45 1.95 1.55 1.55 1.7 L1.35 1.7 Q1.2 1.4 0.75 1.05 L1.9 0.25 Q1.65 0.2 1.0 -0.2 0.6 -0.4 0.05 -0.4 L-0.2 -0.4 M-2.1 2.55 Q-0.9 2.1 0.3 1.55 L0.35 1.6 0.45 1.75 0.6 2.0 0.15 2.1 -0.2 2.2 -0.85 2.4 -1.3 2.4 -2.1 2.55" fill="#5c4923" fill-rule="evenodd" stroke="none"/>
    <path d="M0.95 -8.5 L1.35 -8.6 2.65 -8.75 Q4.25 -8.85 4.25 -8.1 L4.2 -8.0 Q4.25 -7.85 4.25 -7.7 L4.2 -6.95 4.1 -5.85 Q4.1 -5.7 3.95 -5.4 L3.85 -5.2 Q3.95 -4.9 3.95 -4.05 3.95 -3.95 3.7 -3.75 L3.6 -3.65 3.6 -3.35 3.55 -2.55 Q3.55 -1.55 4.05 -0.35 L4.5 0.85 Q4.5 1.05 4.3 1.2 4.1 1.3 3.85 1.35 3.7 1.45 3.55 1.55 L2.75 1.85 Q2.0 2.1 1.9 2.1 L1.65 2.2 Q1.25 2.4 0.25 2.75 L-0.35 2.95 -0.6 3.05 Q-1.3 3.3 -1.85 3.3 -3.2 3.3 -4.0 3.1 -4.7 2.95 -4.7 2.75 -4.7 2.6 -4.0 2.05 L-2.4 0.8 -1.4 0.05 -0.45 -1.2 0.2 -1.95 0.3 -2.2 Q0.5 -2.7 0.5 -2.9 0.5 -3.05 0.25 -3.25 -0.05 -3.5 -0.05 -3.65 L0.05 -4.05 Q0.15 -4.45 0.15 -4.6 L0.1 -5.1 Q0.0 -5.5 0.0 -5.6 L0.05 -5.95 0.05 -6.0 -0.05 -6.15 Q-0.35 -6.55 -0.45 -6.85 L-0.5 -7.35 -0.5 -7.85 Q-0.4 -8.1 -0.15 -8.15 0.0 -8.2 0.05 -8.25 L0.25 -8.35 Q0.65 -8.5 0.7 -8.45 L0.85 -8.5 0.95 -8.5 M0.15 -7.5 L0.2 -7.1 Q0.2 -7.0 0.2 -6.9 L0.45 -6.9 1.25 -7.1 1.55 -7.2 Q1.75 -7.4 2.55 -7.85 3.25 -8.2 3.5 -8.25 L3.4 -8.4 2.95 -8.45 2.85 -8.45 Q2.15 -8.45 0.95 -8.2 L0.35 -7.95 0.25 -7.9 0.1 -7.85 0.15 -7.5 M3.65 -7.2 L3.65 -7.3 3.7 -7.5 3.75 -7.65 Q3.55 -7.5 3.1 -7.35 L2.45 -7.15 2.1 -7.0 1.9 -6.95 Q1.7 -6.85 1.65 -6.85 L1.6 -6.85 1.2 -6.75 0.7 -6.6 Q0.55 -6.55 0.4 -6.5 L0.45 -6.4 Q0.55 -6.25 0.55 -6.15 L0.6 -6.1 Q0.7 -6.05 0.7 -5.95 L0.7 -5.85 Q0.95 -5.35 0.95 -5.2 L0.95 -5.15 0.9 -5.15 0.95 -5.05 1.1 -5.05 1.15 -5.0 Q1.25 -4.85 1.6 -4.85 L2.05 -4.85 Q2.55 -4.85 2.9 -5.0 L3.05 -5.05 3.1 -5.05 3.1 -5.1 3.15 -5.15 3.25 -5.3 Q3.5 -5.55 3.5 -5.95 L3.5 -6.1 3.55 -6.45 3.65 -7.2 M3.15 -4.95 L3.1 -4.95 3.0 -4.85 Q2.95 -4.8 2.85 -4.75 2.7 -4.65 2.6 -4.65 L2.5 -4.65 2.35 -4.7 Q2.3 -4.65 2.25 -4.65 L1.05 -4.75 Q0.85 -4.8 0.8 -4.9 L0.8 -4.5 Q0.75 -4.4 0.8 -4.3 L0.8 -3.8 1.45 -3.65 1.7 -3.65 2.05 -3.75 2.1 -3.8 2.35 -3.85 2.55 -3.9 2.6 -3.95 2.85 -4.1 3.15 -4.25 3.2 -4.5 3.15 -4.5 3.15 -4.65 Q3.15 -4.75 3.1 -4.95 L3.15 -4.95 M2.9 -3.7 L2.6 -3.7 2.35 -3.5 Q2.0 -3.3 1.85 -3.25 L1.75 -3.25 Q1.6 -3.15 1.3 -3.15 L1.15 -3.15 1.15 -3.1 1.1 -2.7 1.1 -2.5 1.05 -2.45 1.05 -2.05 Q1.2 -2.05 1.45 -1.9 L1.5 -1.9 Q1.7 -1.8 1.9 -1.7 L2.0 -1.6 2.15 -1.55 2.75 -1.25 2.8 -1.15 Q3.0 -1.25 3.0 -1.35 L3.05 -1.6 3.0 -1.85 3.05 -1.75 3.1 -1.7 Q3.1 -1.9 3.1 -2.25 L3.1 -2.75 3.05 -3.2 3.05 -3.7 2.9 -3.7 M0.75 1.05 Q1.2 1.4 1.35 1.7 L1.55 1.7 Q1.95 1.55 2.05 1.45 2.2 1.4 2.35 1.35 L3.1 1.0 3.45 0.8 3.5 0.65 3.6 0.5 3.65 0.4 Q3.55 0.15 3.55 0.05 L3.5 -0.2 Q3.4 -0.5 3.25 -0.6 L3.25 -0.7 3.2 -0.75 3.0 -0.9 Q2.85 -0.95 2.75 -1.05 L2.35 -1.3 Q2.05 -1.4 1.9 -1.5 1.75 -1.5 1.3 -1.8 L1.05 -1.9 1.0 -1.9 1.0 -1.85 0.95 -1.8 0.7 -1.5 0.55 -1.35 0.55 -1.3 -0.05 -0.65 -0.2 -0.4 Q-0.45 -0.05 -0.7 0.15 -0.4 0.25 0.25 0.7 L0.75 1.05 M0.35 1.6 L0.1 1.2 Q-0.15 0.8 -0.65 0.5 L-0.85 0.5 -1.15 0.55 -2.15 1.35 -2.75 1.85 Q-3.35 2.15 -3.35 2.45 -3.35 2.55 -3.3 2.55 L-2.1 2.55 -1.3 2.4 -0.85 2.4 -0.2 2.2 0.15 2.1 0.6 2.0 0.45 1.75 0.35 1.6 M1.05 1.8 L1.05 1.8" fill="#101010" fill-rule="evenodd" stroke="none"/>
  </g>
</svg>
