<?xml version="1.0" encoding="UTF-8" standalone="no"?>
<svg xmlns:ffdec="https://www.free-decompiler.com/flash" xmlns:xlink="http://www.w3.org/1999/xlink" ffdec:objectType="shape" height="17.7px" width="21.3px" xmlns="http://www.w3.org/2000/svg">
  <g transform="matrix(1.0, 0.0, 0.0, 1.0, -8.25, 20.45)">
    <path d="M14.1 -2.85 L13.85 -2.8 13.6 -2.85 14.1 -2.85 M11.4 -11.65 L11.45 -11.65 Q11.75 -11.8 11.9 -11.9 L12.05 -11.75 Q12.2 -11.65 12.35 -11.65 L12.5 -11.7 12.55 -11.8 Q12.45 -12.0 12.2 -12.25 L12.45 -12.15 13.3 -12.15 13.55 -11.8 13.6 -11.85 13.5 -12.15 14.35 -12.15 14.35 -11.95 14.8 -11.95 Q14.65 -11.8 14.65 -11.6 L14.7 -11.55 Q14.4 -11.4 14.4 -10.85 14.05 -10.9 14.05 -10.25 14.2 -9.95 14.5 -9.55 15.15 -8.75 15.75 -8.75 L16.0 -8.8 Q16.15 -8.9 16.15 -9.05 L16.05 -9.1 16.5 -9.05 Q16.85 -9.05 17.2 -9.75 L17.2 -9.8 17.3 -9.7 Q17.4 -9.7 17.4 -9.75 L17.55 -9.65 Q18.0 -9.65 18.4 -9.4 L17.8 -9.3 Q17.25 -9.1 16.85 -8.75 16.45 -8.4 16.45 -7.95 16.45 -7.75 16.5 -7.6 16.65 -7.3 17.1 -7.3 17.85 -7.3 18.55 -8.0 18.9 -8.35 19.05 -8.6 L19.25 -8.15 19.6 -7.05 Q19.75 -6.6 19.9 -6.6 20.4 -6.6 20.65 -7.3 20.9 -8.1 20.95 -8.1 L21.0 -8.05 Q20.85 -7.6 20.85 -7.35 20.85 -7.1 21.2 -6.95 L21.6 -6.9 Q21.6 -6.65 21.65 -6.1 L21.7 -5.45 Q21.6 -5.25 21.6 -5.05 21.55 -4.7 22.0 -4.7 22.35 -4.7 22.75 -4.95 L22.65 -4.85 Q22.35 -4.7 22.05 -4.65 21.95 -4.55 21.65 -4.55 20.75 -4.55 20.25 -4.85 L20.2 -4.9 19.85 -4.9 19.7 -4.6 Q19.4 -4.45 19.1 -4.2 L18.45 -3.8 Q18.1 -3.6 17.45 -3.5 L16.0 -3.25 Q16.15 -3.35 16.15 -3.55 16.15 -3.8 14.1 -4.1 12.05 -4.35 12.05 -4.05 12.05 -3.95 12.1 -3.9 11.95 -3.95 11.85 -4.0 11.4 -4.3 10.8 -5.1 L10.75 -5.1 10.7 -5.25 10.65 -5.25 Q10.55 -5.65 10.45 -6.05 10.35 -6.35 10.3 -6.65 10.2 -7.15 10.2 -7.7 10.15 -8.25 10.2 -8.8 L10.2 -8.85 10.25 -8.7 Q10.4 -8.3 10.7 -8.3 11.0 -8.3 11.05 -8.6 L11.05 -9.3 11.35 -9.25 11.4 -9.25 11.35 -9.15 Q11.15 -8.7 11.15 -8.05 11.15 -7.75 11.2 -7.45 L11.25 -7.35 11.25 -7.3 11.35 -7.1 Q11.45 -6.85 11.7 -6.85 11.85 -6.85 11.85 -6.9 L11.85 -7.05 11.85 -7.0 12.05 -6.95 Q12.2 -6.65 12.6 -6.65 L12.65 -6.65 Q12.95 -6.65 13.15 -6.9 L13.6 -6.9 13.7 -6.95 Q13.9 -6.7 14.15 -6.65 L14.2 -6.65 Q14.45 -6.65 14.65 -7.35 L14.85 -8.05 14.75 -8.05 14.75 -8.3 14.75 -8.35 Q14.7 -8.65 14.65 -8.9 L14.55 -9.05 Q14.45 -9.35 14.2 -9.6 13.95 -9.9 13.6 -10.05 L13.75 -10.05 13.75 -10.15 Q13.65 -10.25 13.5 -10.75 L13.25 -11.35 12.95 -11.0 12.85 -11.3 12.8 -11.3 12.8 -10.95 12.75 -11.1 12.75 -11.05 12.8 -10.8 12.75 -10.7 12.4 -11.1 12.1 -11.4 11.7 -11.55 11.4 -11.65 M10.4 -11.35 L10.55 -11.35 Q10.45 -11.15 10.45 -11.05 10.45 -10.95 10.55 -10.8 L10.35 -10.75 10.4 -11.35 M14.2 -6.9 L14.15 -6.85 14.2 -6.9 M10.25 -10.05 Q10.3 -9.9 10.4 -9.75 L10.45 -9.7 Q10.3 -9.7 10.25 -9.6 L10.2 -9.65 10.2 -9.7 Q10.2 -9.9 10.25 -10.05 M9.75 -9.85 Q9.9 -9.85 9.95 -9.65 L9.95 -9.55 9.75 -9.85 M9.25 -9.15 L9.2 -9.05 9.2 -8.95 9.3 -8.95 Q9.45 -8.05 9.75 -8.05 9.85 -8.05 9.95 -8.15 L9.95 -6.75 Q9.95 -6.5 10.05 -6.15 L10.05 -6.0 10.0 -6.05 Q9.45 -6.3 9.35 -6.45 9.25 -6.5 8.9 -7.1 L8.7 -7.35 Q8.65 -7.6 8.65 -7.9 L8.7 -8.2 8.7 -8.3 8.75 -8.55 9.0 -9.3 9.05 -9.4 9.25 -9.65 9.2 -9.6 9.25 -9.15 M10.85 -7.95 Q10.6 -8.0 10.5 -7.95 10.4 -7.9 10.4 -7.7 10.4 -7.65 10.65 -7.4 10.75 -7.4 10.85 -7.5 L10.9 -7.5 10.9 -7.75 10.85 -7.9 10.85 -7.95 M11.4 -5.55 L11.45 -5.55 Q11.75 -5.7 11.8 -5.8 11.95 -5.85 13.4 -5.85 14.0 -5.85 15.1 -5.3 16.05 -4.9 16.45 -4.55 L16.5 -4.65 Q15.5 -6.0 12.45 -6.0 L11.65 -5.85 Q11.35 -5.8 11.35 -5.65 11.35 -5.55 11.4 -5.55 M19.45 -11.9 L19.45 -11.9 M18.05 -12.15 Q17.85 -12.3 17.6 -12.3 L18.35 -12.35 18.05 -12.15 M14.55 -12.15 L14.4 -12.15 14.55 -12.15 M17.25 -6.35 L17.25 -6.05 17.4 -6.05 17.7 -6.0 Q18.0 -6.0 18.05 -6.1 18.1 -6.15 18.1 -6.35 18.1 -6.8 17.7 -6.85 17.25 -6.85 17.25 -6.35 M11.7 -3.75 L11.95 -3.6 12.1 -3.45 Q11.85 -3.6 11.7 -3.75 M19.5 -6.25 L19.5 -6.55 Q19.45 -6.8 19.15 -6.8 18.95 -6.8 18.6 -6.25 18.25 -5.65 18.25 -5.45 L18.25 -5.15 18.4 -5.15 18.7 -5.1 Q19.5 -5.1 19.5 -6.25" fill="#f4c49f" fill-rule="evenodd" stroke="none"/>
    <path d="M13.95 -16.25 Q13.95 -17.15 13.2 -16.5 12.9 -16.25 12.65 -15.9 12.4 -15.6 12.4 -15.55 12.4 -15.4 12.45 -15.3 12.5 -15.3 12.6 -15.25 L13.3 -15.25 Q13.55 -15.35 13.75 -15.75 13.95 -16.1 13.95 -16.25 M10.1 -12.95 L11.05 -14.35 12.3 -16.15 12.8 -17.0 13.25 -17.6 Q13.6 -17.95 14.0 -18.2 15.95 -19.4 20.8 -19.85 L20.85 -19.8 20.9 -19.7 20.9 -19.75 20.75 -19.75 Q21.1 -19.6 21.35 -18.75 L21.45 -18.3 21.6 -18.15 21.6 -17.3 21.55 -17.25 21.5 -17.25 Q21.45 -17.1 21.3 -17.05 L21.35 -16.9 21.1 -17.05 20.9 -17.05 20.85 -17.1 20.85 -17.15 20.55 -17.25 Q19.7 -17.6 19.25 -17.55 L19.15 -17.55 19.45 -16.95 Q20.1 -15.65 21.4 -12.75 L21.4 -12.6 21.35 -12.5 21.3 -12.5 21.3 -12.25 21.25 -12.2 21.05 -12.15 21.0 -12.2 21.0 -12.15 20.95 -12.1 Q20.9 -12.05 20.75 -12.05 20.65 -12.05 17.25 -13.65 L15.45 -14.5 13.7 -14.5 Q12.0 -14.3 10.3 -13.1 L10.1 -12.95 M23.75 -12.55 L23.85 -11.85 Q23.75 -12.05 23.75 -12.15 L23.75 -12.55 M23.95 -10.75 L23.95 -10.6 23.85 -10.6 23.85 -10.55 23.65 -10.55 Q23.85 -10.6 23.95 -10.75 M18.3 -16.3 Q18.0 -16.35 17.8 -16.1 17.55 -15.75 17.55 -15.15 L17.55 -14.7 Q17.65 -14.35 18.0 -14.25 L18.7 -14.25 Q18.9 -14.4 19.0 -14.55 19.0 -14.6 19.0 -14.8 19.0 -15.4 18.8 -15.85 18.6 -16.2 18.3 -16.3 M17.2 -17.3 Q17.05 -17.25 17.05 -17.1 17.05 -16.95 17.1 -16.9 L17.3 -16.85 Q17.45 -16.85 17.5 -17.0 L17.55 -16.95 17.55 -17.1 Q17.55 -17.25 17.5 -17.25 L17.2 -17.3" fill="#d1d0af" fill-rule="evenodd" stroke="none"/>
    <path d="M19.15 -10.65 Q19.5 -10.6 20.0 -10.15 20.45 -9.8 20.8 -9.35 L20.8 -9.25 20.7 -9.15 Q20.6 -8.85 20.55 -8.65 L20.55 -8.7 Q20.05 -8.85 19.6 -9.65 19.25 -10.2 19.15 -10.65 M24.5 -16.0 L24.45 -16.25 Q24.45 -16.4 24.35 -16.55 L24.45 -16.65 Q24.75 -16.8 25.25 -17.3 L25.75 -17.8 25.9 -17.85 26.05 -17.85 Q26.4 -17.9 26.7 -17.75 27.25 -17.7 27.75 -17.45 L28.0 -17.3 Q28.35 -16.9 28.5 -16.2 L28.8 -15.3 Q28.5 -15.2 28.4 -15.0 L28.3 -14.8 Q28.25 -15.6 27.95 -16.15 27.05 -17.0 26.1 -16.35 L25.9 -16.2 25.75 -16.1 Q25.6 -16.25 25.1 -16.2 24.65 -16.15 24.5 -16.0 M27.65 -12.55 L27.65 -12.55 M28.15 -14.45 L27.75 -14.45 Q27.7 -14.45 27.65 -14.4 27.6 -14.35 27.55 -14.35 L26.4 -15.85 26.2 -16.1 Q26.75 -16.3 27.4 -16.3 27.8 -16.3 28.0 -15.5 28.15 -15.05 28.15 -14.6 L28.15 -14.45" fill="#9a552c" fill-rule="evenodd" stroke="none"/>
    <path d="M10.45 -9.7 L10.6 -9.75 Q11.0 -9.75 11.05 -9.4 L11.05 -9.3 11.05 -8.6 Q11.0 -8.3 10.7 -8.3 10.4 -8.3 10.25 -8.7 L10.2 -8.85 10.25 -9.05 10.25 -9.6 Q10.3 -9.7 10.45 -9.7 M19.05 -8.6 Q18.9 -8.35 18.55 -8.0 17.85 -7.3 17.1 -7.3 16.65 -7.3 16.5 -7.6 16.45 -7.75 16.45 -7.95 16.45 -8.4 16.85 -8.75 17.25 -9.1 17.8 -9.3 L18.4 -9.4 18.65 -9.4 18.7 -9.35 Q19.1 -9.25 19.1 -8.85 L19.05 -8.6" fill="#eb865a" fill-rule="evenodd" stroke="none"/>
    <path d="M23.75 -16.85 Q24.35 -16.15 24.35 -15.6 L24.3 -15.35 24.3 -15.25 24.4 -14.95 24.15 -15.3 Q24.1 -15.3 23.95 -15.45 23.7 -16.1 23.4 -16.55 L23.3 -16.75 23.2 -16.9 23.2 -16.95 Q23.2 -17.2 23.4 -17.15 23.55 -17.1 23.75 -16.85" fill="#c54b23" fill-rule="evenodd" stroke="none"/>
    <path d="M10.9 -10.8 Q10.95 -10.8 11.05 -10.9 L11.05 -10.85 Q11.05 -10.7 11.1 -10.5 11.25 -10.1 11.65 -10.1 12.0 -10.1 12.15 -10.4 L12.2 -10.65 12.3 -10.5 12.45 -10.25 12.5 -10.25 12.45 -10.2 12.25 -10.1 Q12.1 -10.05 11.95 -9.95 L11.9 -9.95 11.65 -9.75 Q11.45 -9.8 11.3 -9.95 11.0 -10.05 10.9 -10.3 10.85 -10.55 10.9 -10.75 L10.9 -10.8 M14.8 -10.65 L14.95 -10.65 14.95 -10.55 Q14.95 -10.3 15.05 -10.1 15.25 -9.65 15.8 -9.65 L15.9 -9.65 15.95 -9.7 16.0 -9.65 Q16.3 -9.75 16.4 -10.05 L16.55 -9.95 Q16.8 -9.7 16.95 -9.65 L16.95 -9.6 Q16.8 -9.4 16.55 -9.25 L16.1 -9.2 Q15.4 -9.2 15.05 -9.95 14.85 -10.3 14.8 -10.65" fill="#ffffff" fill-rule="evenodd" stroke="none"/>
    <path d="M11.4 -11.65 L11.35 -11.65 10.9 -11.75 Q10.75 -11.7 10.6 -11.4 L10.55 -11.35 10.4 -11.35 10.4 -11.95 10.45 -12.1 10.55 -12.2 Q11.35 -12.3 11.75 -12.0 L11.8 -12.0 11.8 -11.95 11.9 -11.9 Q11.75 -11.8 11.45 -11.65 L11.4 -11.65 M10.55 -10.8 L10.55 -10.7 10.6 -10.65 10.7 -10.5 10.75 -10.45 10.75 -10.4 10.85 -10.25 10.85 -10.2 Q11.05 -9.85 11.6 -9.65 L11.5 -9.5 11.4 -9.25 11.35 -9.25 11.05 -9.3 11.05 -9.4 Q11.0 -9.75 10.6 -9.75 L10.45 -9.7 10.4 -9.75 Q10.3 -9.9 10.25 -10.05 L10.25 -10.2 10.3 -10.6 10.3 -10.65 10.35 -10.75 10.55 -10.8 M13.15 -6.9 L13.2 -6.95 13.2 -7.05 13.25 -7.05 13.35 -7.45 13.4 -7.5 Q13.45 -7.3 13.6 -7.05 L13.7 -6.95 13.6 -6.9 13.15 -6.9 M13.05 -7.45 L13.0 -7.35 12.95 -7.35 12.95 -7.3 12.95 -7.4 13.0 -7.4 13.05 -7.45 M12.7 -10.1 L12.85 -10.15 12.85 -10.2 12.9 -10.25 12.85 -10.4 12.9 -10.5 12.95 -10.55 12.95 -11.0 13.25 -11.35 13.5 -10.75 Q13.65 -10.25 13.75 -10.15 L13.75 -10.05 13.6 -10.05 13.2 -10.05 13.0 -10.0 12.95 -9.95 12.7 -10.1 M12.8 -10.8 L12.75 -10.65 12.75 -10.7 12.8 -10.8 M9.25 -9.65 L9.4 -9.75 9.45 -9.8 Q9.65 -9.9 9.75 -9.85 L9.95 -9.55 9.95 -9.55 Q9.65 -9.9 9.25 -9.15 L9.2 -9.6 9.25 -9.65 M9.3 -8.95 Q9.4 -9.0 9.5 -9.2 9.65 -9.4 9.8 -9.45 L9.9 -9.0 9.85 -8.85 Q9.95 -8.7 9.95 -8.55 L9.95 -8.15 Q9.85 -8.05 9.75 -8.05 9.45 -8.05 9.3 -8.95 M12.1 -3.9 Q12.05 -3.95 12.05 -4.05 12.05 -4.35 14.1 -4.1 16.15 -3.8 16.15 -3.55 16.15 -3.35 16.0 -3.25 L15.8 -3.25 14.9 -3.15 14.75 -3.15 Q13.1 -3.3 12.1 -3.9 M22.75 -4.95 Q22.35 -4.7 22.0 -4.7 21.55 -4.7 21.6 -5.05 21.6 -5.25 21.7 -5.45 L21.65 -6.1 Q21.6 -6.65 21.6 -6.9 L21.2 -6.95 Q20.85 -7.1 20.85 -7.35 20.85 -7.6 21.0 -8.05 L20.95 -8.1 Q20.9 -8.1 20.65 -7.3 20.4 -6.6 19.9 -6.6 19.75 -6.6 19.6 -7.05 L19.25 -8.15 19.05 -8.6 19.1 -8.85 Q19.1 -9.25 18.7 -9.35 L18.65 -9.4 18.4 -9.4 Q18.0 -9.65 17.55 -9.65 L17.4 -9.75 17.35 -9.85 17.35 -9.95 Q17.05 -10.35 16.6 -10.75 L16.45 -10.85 16.35 -10.9 Q15.9 -11.25 15.5 -11.4 15.0 -11.65 14.7 -11.55 L14.65 -11.6 Q14.65 -11.8 14.8 -11.95 L16.0 -11.95 Q16.25 -11.85 16.8 -11.7 L16.85 -11.7 17.2 -11.65 17.3 -11.6 17.6 -11.6 18.3 -11.5 18.35 -11.5 18.4 -11.55 18.4 -11.7 Q18.4 -11.85 18.15 -12.05 L18.05 -12.15 18.35 -12.35 18.5 -12.35 18.55 -12.45 18.95 -12.25 Q19.1 -12.15 19.4 -11.95 L19.45 -11.9 Q19.15 -11.65 19.05 -11.55 18.95 -11.4 18.95 -11.0 19.1 -10.3 19.35 -9.65 19.9 -8.3 20.5 -8.3 20.65 -8.3 20.6 -8.35 L20.6 -8.35 20.75 -8.35 20.95 -8.9 21.45 -9.6 Q21.7 -9.95 22.05 -10.2 L22.1 -10.25 Q23.45 -10.75 24.25 -10.15 L24.6 -9.8 24.6 -9.75 Q24.8 -8.85 24.8 -8.5 24.8 -7.85 23.7 -6.25 L22.75 -4.95 M16.05 -9.1 L16.15 -9.05 Q16.15 -8.9 16.0 -8.8 L15.75 -8.75 Q15.15 -8.75 14.5 -9.55 14.2 -9.95 14.05 -10.25 14.05 -10.9 14.4 -10.85 L14.4 -10.8 Q14.4 -10.7 14.45 -10.7 L14.45 -10.65 Q14.45 -10.4 14.5 -10.35 L14.8 -10.05 14.85 -9.9 14.9 -9.9 Q15.0 -9.6 15.25 -9.45 L15.3 -9.4 15.3 -9.35 15.35 -9.35 Q15.65 -9.15 16.05 -9.1 M14.35 -12.15 L13.5 -12.15 13.5 -12.3 13.4 -12.75 Q13.3 -12.7 13.25 -12.6 L13.25 -12.45 Q13.25 -12.2 13.3 -12.15 L12.45 -12.15 12.2 -12.25 11.8 -12.6 11.55 -12.8 Q12.6 -13.25 14.05 -13.25 15.6 -13.25 17.0 -12.9 L16.35 -12.8 Q16.15 -12.75 15.4 -12.45 14.8 -12.2 14.55 -12.15 L14.4 -12.15 14.35 -12.15 M21.2 -6.95 L21.3 -6.95 21.35 -7.1 21.35 -7.0 21.6 -7.35 Q21.9 -7.7 22.3 -7.7 22.45 -7.7 22.6 -7.2 22.75 -6.8 22.75 -6.65 22.75 -6.4 22.35 -6.05 L21.95 -5.65 21.95 -5.55 Q22.4 -5.65 22.7 -6.05 22.9 -6.4 22.9 -6.65 22.9 -6.9 22.75 -7.3 22.5 -7.85 22.1 -7.85 21.95 -7.85 21.7 -7.65 L21.5 -7.4 21.8 -8.25 Q22.05 -8.95 22.45 -9.4 22.85 -9.6 23.4 -9.7 23.8 -9.4 24.0 -8.75 24.15 -8.1 24.25 -7.85 L24.3 -7.9 24.3 -8.2 Q24.3 -8.65 24.15 -9.1 23.95 -9.55 23.5 -9.9 23.05 -10.15 22.45 -9.65 22.3 -9.4 22.1 -9.05 L21.85 -8.6 21.75 -8.45 Q21.2 -7.35 21.2 -7.05 L21.2 -6.95" fill="#e7955f" fill-rule="evenodd" stroke="none"/>
    <path d="M25.75 -16.1 L25.4 -15.8 Q24.95 -15.5 24.7 -15.5 L24.6 -15.5 24.5 -15.95 24.5 -16.0 Q24.65 -16.15 25.1 -16.2 25.6 -16.25 25.75 -16.1" fill="#7a412e" fill-rule="evenodd" stroke="none"/>
    <path d="M9.95 -11.0 L10.0 -11.0 9.95 -10.85 9.95 -10.2 9.8 -10.25 9.55 -10.3 9.55 -10.4 9.6 -10.45 9.55 -10.45 Q9.6 -10.75 9.95 -11.0 M11.25 -12.65 L11.4 -12.7 Q11.85 -12.45 12.3 -11.9 L11.8 -12.1 Q11.35 -12.25 10.7 -12.3 L10.8 -12.35 11.35 -12.4 11.4 -12.5 11.25 -12.65 M17.65 -12.75 L18.3 -12.5 17.35 -12.5 17.25 -12.4 Q17.2 -12.35 17.2 -12.3 17.4 -12.2 17.85 -12.0 18.1 -11.85 18.25 -11.7 L17.75 -11.7 17.15 -11.85 Q16.4 -12.05 15.55 -12.05 L15.1 -12.0 15.05 -11.95 15.0 -12.0 14.9 -12.05 15.0 -12.1 Q15.45 -12.3 15.55 -12.35 16.4 -12.75 17.3 -12.75 L17.65 -12.75 M19.15 -10.65 L19.15 -10.9 19.1 -11.0 19.2 -11.4 Q19.3 -11.8 19.6 -11.8 L19.7 -11.8 Q20.2 -11.5 21.0 -11.1 L21.9 -10.55 21.8 -10.5 Q21.5 -10.3 21.25 -10.0 L21.2 -9.9 21.1 -9.8 20.8 -9.35 Q20.45 -9.8 20.0 -10.15 19.5 -10.6 19.15 -10.65 M28.8 -15.3 Q29.0 -14.7 29.05 -14.4 28.95 -14.05 28.8 -13.65 28.45 -12.85 27.65 -12.55 27.95 -12.85 28.15 -13.45 28.3 -14.1 28.3 -14.6 L28.3 -14.8 28.4 -15.0 Q28.5 -15.2 28.8 -15.3 M28.15 -14.45 L28.1 -14.35 27.9 -13.55 Q27.6 -12.75 27.4 -12.5 L27.5 -12.45 Q27.15 -12.35 26.75 -12.35 26.5 -12.55 25.9 -13.25 L25.9 -13.3 25.4 -13.85 Q25.0 -14.35 24.75 -14.6 L24.65 -15.35 24.95 -15.3 Q25.05 -15.3 25.6 -15.8 L25.7 -15.9 25.75 -15.9 25.85 -15.95 25.9 -15.95 Q26.05 -16.05 26.2 -16.1 L26.4 -15.85 27.55 -14.35 Q27.6 -14.35 27.65 -14.4 27.7 -14.45 27.75 -14.45 L28.15 -14.45" fill="#763125" fill-rule="evenodd" stroke="none"/>
    <path d="M10.1 -12.95 L10.3 -13.1 Q12.0 -14.3 13.7 -14.5 L15.45 -14.5 17.25 -13.65 Q20.65 -12.05 20.75 -12.05 20.9 -12.05 20.95 -12.1 L21.0 -12.15 21.0 -12.2 21.05 -12.15 21.25 -12.2 21.3 -12.25 21.3 -12.5 21.35 -12.5 21.4 -12.6 21.4 -12.75 Q20.1 -15.65 19.45 -16.95 L19.15 -17.55 19.25 -17.55 Q19.7 -17.6 20.55 -17.25 L20.85 -17.15 20.85 -17.1 20.9 -17.05 21.1 -17.05 21.35 -16.9 21.3 -17.05 Q21.45 -17.1 21.5 -17.25 L21.55 -17.25 21.6 -17.3 21.6 -18.15 21.45 -18.3 21.35 -18.75 Q21.1 -19.6 20.75 -19.75 L20.9 -19.75 20.9 -19.7 20.95 -19.65 21.7 -18.5 21.7 -18.45 Q22.15 -17.75 22.3 -17.35 L22.35 -17.25 22.4 -17.25 22.5 -16.95 22.6 -16.8 Q23.15 -15.8 23.4 -14.6 23.6 -13.7 23.75 -12.55 L23.75 -12.15 Q23.75 -12.05 23.85 -11.85 L23.85 -11.5 23.9 -11.4 23.05 -13.45 Q22.35 -15.0 21.5 -16.0 L21.45 -16.0 21.35 -15.95 Q22.05 -14.7 22.85 -13.2 L23.9 -11.0 23.5 -11.5 Q23.05 -12.1 22.55 -12.5 L21.7 -13.5 Q21.45 -13.85 21.15 -14.1 L21.85 -13.25 Q23.2 -11.85 23.95 -10.75 23.85 -10.6 23.65 -10.55 L23.2 -10.7 23.15 -10.75 23.15 -10.8 22.95 -10.8 22.9 -10.85 22.05 -11.15 Q21.7 -11.3 21.35 -11.45 L20.2 -12.1 19.4 -12.45 19.2 -12.55 Q18.15 -13.05 18.05 -13.1 L17.55 -13.2 17.0 -13.35 16.9 -13.35 16.1 -13.5 15.05 -13.6 Q14.4 -13.65 13.7 -13.6 12.9 -13.75 11.9 -13.3 11.45 -13.2 11.15 -13.05 L10.7 -12.75 10.6 -12.65 9.8 -11.65 9.4 -10.95 9.3 -10.95 Q9.25 -11.0 9.25 -11.1 9.25 -11.2 9.3 -11.4 9.3 -11.7 10.1 -12.95 M23.55 -15.5 L23.9 -14.85 24.75 -13.2 25.1 -12.4 Q25.1 -12.1 24.85 -11.3 L24.85 -11.5 Q24.8 -11.2 24.65 -11.1 L24.55 -10.7 24.45 -10.5 24.25 -11.75 23.95 -13.2 Q23.75 -14.25 23.6 -15.3 L23.6 -15.35 23.55 -15.5" fill="#979f5b" fill-rule="evenodd" stroke="none"/>
    <path d="M11.85 -7.05 L11.85 -7.55 11.9 -7.45 Q11.95 -7.25 12.0 -7.05 L12.05 -6.95 11.85 -7.0 11.85 -7.05 M14.75 -8.05 L14.7 -8.05 14.75 -8.3 14.75 -8.05 M12.2 -7.3 L11.95 -7.8 11.9 -7.75 11.85 -7.8 11.75 -7.65 11.65 -7.65 11.65 -7.45 11.6 -7.4 11.55 -7.2 11.55 -7.1 11.5 -7.35 Q11.4 -7.65 11.4 -7.75 L11.4 -8.2 11.65 -8.2 Q11.75 -8.2 12.4 -9.05 13.1 -9.85 13.1 -9.9 L13.1 -10.0 13.0 -10.0 13.2 -10.05 13.6 -10.05 Q13.95 -9.9 14.2 -9.6 14.45 -9.35 14.55 -9.05 L14.3 -9.05 Q13.85 -8.85 13.8 -8.15 13.4 -8.2 12.7 -7.7 12.35 -7.45 12.2 -7.3" fill="#e79376" fill-rule="evenodd" stroke="none"/>
    <path d="M14.7 -8.05 L14.55 -8.1 14.45 -7.7 14.25 -7.05 14.2 -6.9 14.15 -6.85 14.1 -6.85 13.9 -7.0 13.8 -7.15 Q13.7 -7.25 13.65 -7.4 L13.55 -7.75 13.5 -8.0 Q13.45 -7.95 13.4 -7.9 L13.35 -8.0 13.3 -7.85 13.25 -7.8 13.05 -7.45 13.0 -7.4 12.95 -7.4 12.95 -7.3 12.9 -7.15 Q12.7 -6.85 12.5 -6.8 L12.4 -6.9 12.4 -6.95 12.35 -7.0 12.25 -7.2 12.2 -7.25 12.2 -7.3 Q12.35 -7.45 12.7 -7.7 13.4 -8.2 13.8 -8.15 13.85 -8.85 14.3 -9.05 L14.55 -9.05 14.65 -8.9 Q14.7 -8.65 14.75 -8.35 L14.75 -8.3 14.7 -8.05" fill="#bf563c" fill-rule="evenodd" stroke="none"/>
    <path d="M11.4 -8.2 Q11.55 -9.15 12.2 -9.75 L12.5 -10.0 12.55 -10.05 12.7 -10.1 12.95 -9.95 13.0 -10.0 13.1 -10.0 13.1 -9.9 Q13.1 -9.85 12.4 -9.05 11.75 -8.2 11.65 -8.2 L11.4 -8.2" fill="#f2ccb3" fill-rule="evenodd" stroke="none"/>
    <path d="M17.25 -6.35 Q17.25 -6.85 17.7 -6.85 18.1 -6.8 18.1 -6.35 18.1 -6.15 18.05 -6.1 18.0 -6.0 17.7 -6.0 L17.4 -6.05 17.25 -6.05 17.25 -6.35 M19.5 -6.25 Q19.5 -5.1 18.7 -5.1 L18.4 -5.15 18.25 -5.15 18.25 -5.45 Q18.25 -5.65 18.6 -6.25 18.95 -6.8 19.15 -6.8 19.45 -6.8 19.5 -6.55 L19.5 -6.25" fill="#794d1c" fill-rule="evenodd" stroke="none"/>
    <path d="M13.95 -16.25 Q13.95 -16.1 13.75 -15.75 13.55 -15.35 13.3 -15.25 L12.6 -15.25 Q12.5 -15.3 12.45 -15.3 12.4 -15.4 12.4 -15.55 12.4 -15.6 12.65 -15.9 12.9 -16.25 13.2 -16.5 13.95 -17.15 13.95 -16.25 M17.2 -17.3 L17.5 -17.25 Q17.55 -17.25 17.55 -17.1 L17.55 -16.95 17.5 -17.0 Q17.45 -16.85 17.3 -16.85 L17.1 -16.9 Q17.05 -16.95 17.05 -17.1 17.05 -17.25 17.2 -17.3 M18.3 -16.3 Q18.6 -16.2 18.8 -15.85 19.0 -15.4 19.0 -14.8 19.0 -14.6 19.0 -14.55 18.9 -14.4 18.7 -14.25 L18.0 -14.25 Q17.65 -14.35 17.55 -14.7 L17.55 -15.15 Q17.55 -15.75 17.8 -16.1 18.0 -16.35 18.3 -16.3 M10.85 -7.95 L10.85 -7.9 10.9 -7.75 10.9 -7.5 10.85 -7.5 Q10.75 -7.4 10.65 -7.4 10.4 -7.65 10.4 -7.7 10.4 -7.9 10.5 -7.95 10.6 -8.0 10.85 -7.95" fill="#563714" fill-rule="evenodd" stroke="none"/>
    <path d="M11.05 -10.9 Q10.95 -10.8 10.9 -10.8 L10.9 -11.1 Q11.0 -11.2 11.15 -11.25 11.05 -11.15 11.05 -10.9 M12.5 -10.25 L12.45 -10.25 12.3 -10.5 12.2 -10.65 12.25 -10.8 12.25 -10.85 Q12.45 -10.6 12.6 -10.35 L12.5 -10.25 M14.8 -10.65 L14.8 -10.95 14.95 -11.1 15.15 -11.1 Q15.0 -10.95 14.95 -10.65 L14.8 -10.65 M16.4 -10.05 Q16.5 -10.25 16.5 -10.4 L16.5 -10.4 16.6 -10.35 17.05 -9.9 17.05 -9.85 16.95 -9.65 Q16.8 -9.7 16.55 -9.95 L16.4 -10.05" fill="#cdd1d9" fill-rule="evenodd" stroke="none"/>
    <path d="M13.85 -2.8 L13.5 -2.8 Q12.35 -3.2 11.55 -3.7 10.85 -4.2 10.45 -4.8 L10.3 -5.15 10.2 -5.25 10.05 -5.5 9.9 -5.45 9.15 -6.2 Q8.35 -7.0 8.35 -7.3 L8.4 -7.35 8.3 -7.35 Q8.25 -7.45 8.25 -7.55 L8.25 -7.8 Q8.25 -8.5 8.5 -9.3 8.7 -10.05 9.1 -10.5 L8.95 -10.6 Q8.75 -10.9 8.75 -11.05 8.75 -11.65 10.65 -14.65 12.3 -17.25 13.1 -18.25 L12.95 -18.0 Q13.3 -18.4 13.7 -18.7 L13.8 -18.7 Q15.8 -20.05 20.85 -20.45 L21.85 -19.0 Q22.85 -17.6 23.0 -17.6 L23.15 -17.6 23.5 -17.4 Q24.05 -17.0 24.2 -17.0 L24.35 -17.05 24.4 -17.05 24.4 -17.15 Q24.45 -17.15 24.5 -17.2 24.95 -17.45 25.5 -18.05 L25.9 -18.55 26.05 -18.8 26.1 -18.8 26.15 -18.9 26.3 -18.85 Q26.7 -18.9 26.35 -18.45 26.95 -18.6 27.5 -18.35 27.95 -18.05 28.4 -17.4 28.6 -17.05 28.8 -16.6 29.0 -16.15 29.1 -15.8 L29.55 -13.85 Q29.4 -13.5 29.0 -13.0 28.2 -12.25 26.85 -11.8 L26.35 -12.3 25.9 -12.8 25.85 -12.85 Q25.25 -13.7 24.8 -14.0 24.75 -14.0 24.75 -13.85 L25.6 -12.45 Q25.6 -12.3 25.5 -12.05 L25.1 -10.85 Q24.9 -10.4 24.85 -10.15 L24.85 -10.1 Q25.0 -9.9 25.15 -9.5 25.35 -8.85 25.35 -8.35 25.35 -7.7 24.4 -6.2 23.45 -4.65 22.85 -4.55 L22.75 -4.55 21.85 -4.15 21.85 -4.1 20.9 -4.1 Q20.5 -4.25 20.1 -4.2 L20.1 -4.25 18.9 -3.65 Q17.1 -2.75 16.2 -2.75 L15.05 -2.8 14.1 -2.85 13.6 -2.85 13.85 -2.8 M20.9 -19.7 L20.85 -19.8 20.8 -19.85 Q15.95 -19.4 14.0 -18.2 13.6 -17.95 13.25 -17.6 L12.8 -17.0 12.3 -16.15 11.05 -14.35 10.1 -12.95 Q9.3 -11.7 9.3 -11.4 9.25 -11.2 9.25 -11.1 9.25 -11.0 9.3 -10.95 L9.4 -10.95 9.8 -11.65 10.6 -12.65 10.7 -12.75 11.15 -13.05 Q11.45 -13.2 11.9 -13.3 12.9 -13.75 13.7 -13.6 14.4 -13.65 15.05 -13.6 L16.1 -13.5 16.9 -13.35 17.0 -13.35 17.55 -13.2 18.05 -13.1 Q18.15 -13.05 19.2 -12.55 L19.4 -12.45 20.2 -12.1 21.35 -11.45 Q21.7 -11.3 22.05 -11.15 L22.9 -10.85 22.95 -10.8 23.15 -10.8 23.15 -10.75 23.2 -10.7 23.65 -10.55 23.85 -10.55 23.85 -10.6 23.95 -10.6 23.95 -10.75 Q23.2 -11.85 21.85 -13.25 L21.15 -14.1 Q21.45 -13.85 21.7 -13.5 L22.55 -12.5 Q23.05 -12.1 23.5 -11.5 L23.9 -11.0 22.85 -13.2 Q22.05 -14.7 21.35 -15.95 L21.45 -16.0 21.5 -16.0 Q22.35 -15.0 23.05 -13.45 L23.9 -11.4 23.85 -11.5 23.85 -11.85 23.75 -12.55 Q23.6 -13.7 23.4 -14.6 23.15 -15.8 22.6 -16.8 L22.5 -16.95 22.4 -17.25 22.35 -17.25 22.3 -17.35 Q22.15 -17.75 21.7 -18.45 L21.7 -18.5 20.95 -19.65 20.9 -19.7 M11.25 -12.65 L11.4 -12.5 11.35 -12.4 10.8 -12.35 10.7 -12.3 Q11.35 -12.25 11.8 -12.1 L12.3 -11.9 Q11.85 -12.45 11.4 -12.7 L11.25 -12.65 M9.95 -11.0 Q9.6 -10.75 9.55 -10.45 L9.6 -10.45 9.55 -10.4 9.55 -10.3 9.8 -10.25 9.95 -10.2 9.95 -10.85 10.0 -11.0 9.95 -11.0 M9.95 -11.3 L9.95 -11.3 M10.55 -11.35 L10.6 -11.4 Q10.75 -11.7 10.9 -11.75 L11.35 -11.65 11.4 -11.65 11.7 -11.55 12.1 -11.4 12.4 -11.1 12.75 -10.7 12.75 -10.65 12.8 -10.8 12.75 -11.05 12.75 -11.1 12.8 -10.95 12.8 -11.3 12.85 -11.3 12.95 -11.0 12.95 -10.55 12.9 -10.5 12.85 -10.4 12.9 -10.25 12.85 -10.2 12.85 -10.15 12.7 -10.1 12.55 -10.05 12.5 -10.0 12.2 -9.75 Q11.55 -9.15 11.4 -8.2 L11.4 -7.75 Q11.4 -7.65 11.5 -7.35 L11.55 -7.1 11.55 -7.2 11.6 -7.4 11.65 -7.45 11.65 -7.65 11.75 -7.65 11.85 -7.8 11.9 -7.75 11.95 -7.8 12.2 -7.3 12.2 -7.25 12.25 -7.2 12.35 -7.0 12.4 -6.95 12.4 -6.9 12.5 -6.8 Q12.7 -6.85 12.9 -7.15 L12.95 -7.3 12.95 -7.35 13.0 -7.35 13.05 -7.45 13.25 -7.8 13.3 -7.85 13.35 -8.0 13.4 -7.9 Q13.45 -7.95 13.5 -8.0 L13.55 -7.75 13.65 -7.4 Q13.7 -7.25 13.8 -7.15 L13.9 -7.0 14.1 -6.85 14.15 -6.85 14.2 -6.9 14.25 -7.05 14.45 -7.7 14.55 -8.1 14.7 -8.05 14.75 -8.05 14.85 -8.05 14.65 -7.35 Q14.45 -6.65 14.2 -6.65 L14.15 -6.65 Q13.9 -6.7 13.7 -6.95 L13.6 -7.05 Q13.45 -7.3 13.4 -7.5 L13.35 -7.45 13.25 -7.05 13.2 -7.05 13.2 -6.95 13.15 -6.9 Q12.95 -6.65 12.65 -6.65 L12.6 -6.65 Q12.2 -6.65 12.05 -6.95 L12.0 -7.05 Q11.95 -7.25 11.9 -7.45 L11.85 -7.55 11.85 -7.05 11.85 -6.9 Q11.85 -6.85 11.7 -6.85 11.45 -6.85 11.35 -7.1 L11.25 -7.3 11.25 -7.35 11.2 -7.45 Q11.15 -7.75 11.15 -8.05 11.15 -8.7 11.35 -9.15 L11.4 -9.25 11.5 -9.5 11.6 -9.65 Q11.05 -9.85 10.85 -10.2 L10.85 -10.25 10.75 -10.4 10.75 -10.45 10.7 -10.5 10.6 -10.65 10.55 -10.7 10.55 -10.8 Q10.45 -10.95 10.45 -11.05 10.45 -11.15 10.55 -11.35 M11.9 -11.9 L11.8 -11.95 11.8 -12.0 11.75 -12.0 Q11.35 -12.3 10.55 -12.2 L10.45 -12.1 10.4 -11.95 10.4 -11.35 10.35 -10.75 10.3 -10.65 10.3 -10.6 10.25 -10.2 10.25 -10.05 Q10.2 -9.9 10.2 -9.7 L10.2 -9.65 10.25 -9.6 10.25 -9.05 10.2 -8.85 10.2 -8.8 Q10.15 -8.25 10.2 -7.7 10.2 -7.15 10.3 -6.65 10.35 -6.35 10.45 -6.05 10.55 -5.65 10.65 -5.25 L10.7 -5.25 10.75 -5.1 10.8 -5.1 Q11.4 -4.3 11.85 -4.0 11.95 -3.95 12.1 -3.9 13.1 -3.3 14.75 -3.15 L14.9 -3.15 15.8 -3.25 16.0 -3.25 17.45 -3.5 Q18.1 -3.6 18.45 -3.8 L19.1 -4.2 Q19.4 -4.45 19.7 -4.6 L19.85 -4.9 20.2 -4.9 20.25 -4.85 Q20.75 -4.55 21.65 -4.55 21.95 -4.55 22.05 -4.65 22.35 -4.7 22.65 -4.85 L22.75 -4.95 23.7 -6.25 Q24.8 -7.85 24.8 -8.5 24.8 -8.85 24.6 -9.75 L24.6 -9.8 24.25 -10.15 Q23.45 -10.75 22.1 -10.25 L22.05 -10.2 Q21.7 -9.95 21.45 -9.6 L20.95 -8.9 20.75 -8.35 20.6 -8.35 20.6 -8.35 Q20.65 -8.3 20.5 -8.3 19.9 -8.3 19.35 -9.65 19.1 -10.3 18.95 -11.0 18.95 -11.4 19.05 -11.55 19.15 -11.65 19.45 -11.9 L19.4 -11.95 Q19.1 -12.15 18.95 -12.25 L18.55 -12.45 18.5 -12.35 18.35 -12.35 17.6 -12.3 Q17.85 -12.3 18.05 -12.15 L18.15 -12.05 Q18.4 -11.85 18.4 -11.7 L18.4 -11.55 18.35 -11.5 18.3 -11.5 17.6 -11.6 17.3 -11.6 17.2 -11.65 16.85 -11.7 16.8 -11.7 Q16.25 -11.85 16.0 -11.95 L14.8 -11.95 14.35 -11.95 14.35 -12.15 14.4 -12.15 14.55 -12.15 Q14.8 -12.2 15.4 -12.45 16.15 -12.75 16.35 -12.8 L17.0 -12.9 Q15.6 -13.25 14.05 -13.25 12.6 -13.25 11.55 -12.8 L11.8 -12.6 12.2 -12.25 Q12.45 -12.0 12.55 -11.8 L12.5 -11.7 12.35 -11.65 Q12.2 -11.65 12.05 -11.75 L11.9 -11.9 M11.05 -10.9 Q11.05 -11.15 11.15 -11.25 11.0 -11.2 10.9 -11.1 L10.9 -10.8 10.9 -10.75 Q10.85 -10.55 10.9 -10.3 11.0 -10.05 11.3 -9.95 11.45 -9.8 11.65 -9.75 L11.9 -9.95 11.95 -9.95 Q12.1 -10.05 12.25 -10.1 L12.45 -10.2 12.5 -10.25 12.6 -10.35 Q12.45 -10.6 12.25 -10.85 L12.25 -10.8 12.2 -10.65 12.15 -10.4 Q12.0 -10.1 11.65 -10.1 11.25 -10.1 11.1 -10.5 11.05 -10.7 11.05 -10.85 L11.05 -10.9 M9.75 -9.85 Q9.65 -9.9 9.45 -9.8 L9.4 -9.75 9.25 -9.65 9.05 -9.4 9.0 -9.3 8.75 -8.55 8.7 -8.3 8.7 -8.2 8.65 -7.9 Q8.65 -7.6 8.7 -7.35 L8.9 -7.1 Q9.25 -6.5 9.35 -6.45 9.45 -6.3 10.0 -6.05 L10.05 -6.0 10.05 -6.15 Q9.95 -6.5 9.95 -6.75 L9.95 -8.15 9.95 -8.55 Q9.95 -8.7 9.85 -8.85 L9.9 -9.0 9.8 -9.45 Q9.65 -9.4 9.5 -9.2 9.4 -9.0 9.3 -8.95 L9.2 -8.95 9.2 -9.05 9.25 -9.15 Q9.65 -9.9 9.95 -9.55 L9.95 -9.55 9.95 -9.65 Q9.9 -9.85 9.75 -9.85 M11.3 -8.3 L11.35 -8.6 11.35 -8.6 Q11.3 -8.5 11.3 -8.3 M17.4 -9.75 Q17.4 -9.7 17.3 -9.7 L17.2 -9.8 17.2 -9.75 Q16.85 -9.05 16.5 -9.05 L16.05 -9.1 Q15.65 -9.15 15.35 -9.35 L15.3 -9.35 15.3 -9.4 15.25 -9.45 Q15.0 -9.6 14.9 -9.9 L14.85 -9.9 14.8 -10.05 14.5 -10.35 Q14.45 -10.4 14.45 -10.65 L14.45 -10.7 Q14.4 -10.7 14.4 -10.8 L14.4 -10.85 Q14.4 -11.4 14.7 -11.55 15.0 -11.65 15.5 -11.4 15.9 -11.25 16.35 -10.9 L16.45 -10.85 16.6 -10.75 Q17.05 -10.35 17.35 -9.95 L17.35 -9.85 17.4 -9.75 M13.5 -12.15 L13.6 -11.85 13.55 -11.8 13.3 -12.15 Q13.25 -12.2 13.25 -12.45 L13.25 -12.6 Q13.3 -12.7 13.4 -12.75 L13.5 -12.3 13.5 -12.15 M11.4 -5.55 Q11.35 -5.55 11.35 -5.65 11.35 -5.8 11.65 -5.85 L12.45 -6.0 Q15.5 -6.0 16.5 -4.65 L16.45 -4.55 Q16.05 -4.9 15.1 -5.3 14.0 -5.85 13.4 -5.85 11.95 -5.85 11.8 -5.8 11.75 -5.7 11.45 -5.55 L11.4 -5.55 M10.8 -4.55 L10.8 -4.55 M17.65 -12.75 L17.3 -12.75 Q16.4 -12.75 15.55 -12.35 15.45 -12.3 15.0 -12.1 L14.9 -12.05 15.0 -12.0 15.05 -11.95 15.1 -12.0 15.55 -12.05 Q16.4 -12.05 17.15 -11.85 L17.75 -11.7 18.25 -11.7 Q18.1 -11.85 17.85 -12.0 17.4 -12.2 17.2 -12.3 17.2 -12.35 17.25 -12.4 L17.35 -12.5 18.3 -12.5 17.65 -12.75 M19.45 -11.9 L19.45 -11.9 M20.8 -9.35 L21.1 -9.8 21.2 -9.9 21.25 -10.0 Q21.5 -10.3 21.8 -10.5 L21.9 -10.55 21.0 -11.1 Q20.2 -11.5 19.7 -11.8 L19.6 -11.8 Q19.3 -11.8 19.2 -11.4 L19.1 -11.0 19.15 -10.9 19.15 -10.65 Q19.25 -10.2 19.6 -9.65 20.05 -8.85 20.55 -8.7 L20.55 -8.65 Q20.6 -8.85 20.7 -9.15 L20.8 -9.25 20.8 -9.35 M21.2 -6.95 L21.2 -7.05 Q21.2 -7.35 21.75 -8.45 L21.85 -8.6 22.1 -9.05 Q22.3 -9.4 22.45 -9.65 23.05 -10.15 23.5 -9.9 23.95 -9.55 24.15 -9.1 24.3 -8.65 24.3 -8.2 L24.3 -7.9 24.25 -7.85 Q24.15 -8.1 24.0 -8.75 23.8 -9.4 23.4 -9.7 22.85 -9.6 22.45 -9.4 22.05 -8.95 21.8 -8.25 L21.5 -7.4 21.7 -7.65 Q21.95 -7.85 22.1 -7.85 22.5 -7.85 22.75 -7.3 22.9 -6.9 22.9 -6.65 22.9 -6.4 22.7 -6.05 22.4 -5.65 21.95 -5.55 L21.95 -5.65 22.35 -6.05 Q22.75 -6.4 22.75 -6.65 22.75 -6.8 22.6 -7.2 22.45 -7.7 22.3 -7.7 21.9 -7.7 21.6 -7.35 L21.35 -7.0 21.35 -7.1 21.3 -6.95 21.2 -6.95 M14.95 -10.65 Q15.0 -10.95 15.15 -11.1 L14.95 -11.1 14.8 -10.95 14.8 -10.65 Q14.85 -10.3 15.05 -9.95 15.4 -9.2 16.1 -9.2 L16.55 -9.25 Q16.8 -9.4 16.95 -9.6 L16.95 -9.65 17.05 -9.85 17.05 -9.9 16.6 -10.35 16.5 -10.4 16.5 -10.4 Q16.5 -10.25 16.4 -10.05 16.3 -9.75 16.0 -9.65 L15.95 -9.7 15.9 -9.65 15.8 -9.65 Q15.25 -9.65 15.05 -10.1 14.95 -10.3 14.95 -10.55 L14.95 -10.65 M15.35 -11.3 L15.3 -11.3 15.45 -11.25 15.35 -11.3 M16.2 -10.65 L16.25 -10.65 16.3 -10.6 16.2 -10.65 M11.7 -3.75 Q11.85 -3.6 12.1 -3.45 L11.95 -3.6 11.7 -3.75 M28.8 -15.3 L28.5 -16.2 Q28.35 -16.9 28.0 -17.3 L27.75 -17.45 Q27.25 -17.7 26.7 -17.75 26.4 -17.9 26.05 -17.85 L25.9 -17.85 25.75 -17.8 25.25 -17.3 Q24.75 -16.8 24.45 -16.65 L24.35 -16.55 Q24.45 -16.4 24.45 -16.25 L24.5 -16.0 24.5 -15.95 24.6 -15.5 24.7 -15.5 Q24.95 -15.5 25.4 -15.8 L25.75 -16.1 25.9 -16.2 26.1 -16.35 Q27.05 -17.0 27.95 -16.15 28.25 -15.6 28.3 -14.8 L28.3 -14.6 Q28.3 -14.1 28.15 -13.45 27.95 -12.85 27.65 -12.55 28.45 -12.85 28.8 -13.65 28.95 -14.05 29.05 -14.4 29.0 -14.7 28.8 -15.3 M27.65 -12.55 L27.65 -12.55 M26.2 -16.1 Q26.05 -16.05 25.9 -15.95 L25.85 -15.95 25.75 -15.9 25.7 -15.9 25.6 -15.8 Q25.05 -15.3 24.95 -15.3 L24.65 -15.35 24.75 -14.6 Q25.0 -14.35 25.4 -13.85 L25.9 -13.3 25.9 -13.25 Q26.5 -12.55 26.75 -12.35 27.15 -12.35 27.5 -12.45 L27.4 -12.5 Q27.6 -12.75 27.9 -13.55 L28.1 -14.35 28.15 -14.45 28.15 -14.6 Q28.15 -15.05 28.0 -15.5 27.8 -16.3 27.4 -16.3 26.75 -16.3 26.2 -16.1 M23.75 -16.85 Q23.55 -17.1 23.4 -17.15 23.2 -17.2 23.2 -16.95 L23.2 -16.9 23.3 -16.75 23.4 -16.55 Q23.7 -16.1 23.95 -15.45 24.1 -15.3 24.15 -15.3 L24.4 -14.95 24.3 -15.25 24.3 -15.35 24.35 -15.6 Q24.35 -16.15 23.75 -16.85 M23.55 -15.5 L23.6 -15.35 23.6 -15.3 Q23.75 -14.25 23.95 -13.2 L24.25 -11.75 24.45 -10.5 24.55 -10.7 24.65 -11.1 Q24.8 -11.2 24.85 -11.5 L24.85 -11.3 Q25.1 -12.1 25.1 -12.4 L24.75 -13.2 23.9 -14.85 23.55 -15.5 M25.35 -11.95 L25.35 -12.0 25.3 -11.85 25.35 -11.95" fill="#101010" fill-rule="evenodd" stroke="none"/>
  </g>
</svg>
