<?xml version="1.0" encoding="UTF-8" standalone="no"?>
<svg xmlns:ffdec="https://www.free-decompiler.com/flash" xmlns:xlink="http://www.w3.org/1999/xlink" ffdec:objectType="shape" height="23.65px" width="16.85px" xmlns="http://www.w3.org/2000/svg">
  <g transform="matrix(1.0, 0.0, 0.0, 1.0, -6.8, 26.25)">
    <path d="M16.7 -10.45 Q16.55 -9.75 16.55 -9.55 L16.65 -8.45 16.75 -8.5 Q16.95 -8.45 16.95 -8.25 16.95 -7.95 16.95 -7.85 L17.15 -7.1 17.25 -6.85 17.2 -6.6 17.2 -6.4 17.15 -6.35 17.3 -6.25 Q17.65 -5.95 17.95 -5.55 18.2 -5.15 18.2 -5.0 L18.2 -4.65 17.85 -4.3 17.65 -4.3 Q17.25 -4.35 16.9 -4.75 16.75 -4.9 16.65 -5.1 L16.5 -5.55 Q16.2 -5.25 15.9 -5.1 15.95 -4.9 15.95 -4.65 15.95 -4.1 15.85 -3.55 15.6 -2.6 15.05 -2.6 14.7 -2.6 14.5 -3.15 14.45 -3.25 14.4 -3.4 14.35 -3.7 14.35 -4.05 14.35 -4.55 14.4 -4.7 13.55 -4.85 12.6 -5.8 L12.55 -5.55 Q12.5 -5.25 12.4 -5.0 12.1 -4.3 11.45 -4.3 11.3 -4.3 11.3 -4.4 L11.3 -4.45 11.25 -4.5 11.25 -4.55 11.2 -4.6 11.15 -4.8 Q11.15 -5.2 11.45 -5.8 11.7 -6.35 12.0 -6.5 L11.65 -6.95 11.4 -7.35 12.05 -8.4 12.1 -8.5 12.15 -8.55 12.65 -8.55 13.1 -9.85 12.6 -9.7 12.45 -9.7 12.4 -9.75 Q11.9 -9.9 11.3 -10.35 L10.9 -10.65 10.9 -10.6 Q10.9 -10.45 10.35 -10.1 L10.3 -10.15 Q10.25 -10.15 10.25 -10.25 10.25 -10.3 10.35 -10.4 L10.6 -10.65 Q10.0 -10.7 9.3 -11.3 8.5 -11.95 8.5 -12.3 L8.5 -12.55 8.55 -12.6 Q8.55 -13.05 8.7 -13.45 L8.8 -13.65 8.75 -13.65 Q8.2 -13.65 7.7 -14.0 7.3 -14.3 7.3 -14.5 7.3 -14.6 7.3 -14.55 7.4 -14.6 7.6 -14.45 L7.9 -14.1 Q8.2 -14.0 8.3 -13.95 7.85 -14.25 7.5 -15.0 7.3 -15.55 7.2 -16.1 L7.15 -16.1 7.15 -16.35 7.45 -16.35 8.25 -16.75 8.15 -17.0 8.15 -17.05 Q8.15 -17.25 7.4 -18.65 6.95 -19.55 6.8 -20.5 L6.8 -20.95 Q6.8 -23.0 9.5 -24.25 10.45 -24.7 11.6 -24.95 12.55 -25.15 13.05 -25.15 L13.2 -25.1 13.75 -25.1 Q13.8 -25.2 14.0 -25.2 L13.95 -25.25 Q13.45 -25.9 13.0 -25.95 L13.0 -26.25 Q13.85 -26.15 14.25 -25.65 14.35 -25.4 14.45 -25.2 L14.55 -25.2 14.5 -25.3 Q14.4 -25.6 14.4 -25.7 14.4 -25.95 14.6 -26.1 14.65 -26.05 14.75 -25.7 L14.8 -25.35 14.8 -25.2 15.1 -25.2 Q18.2 -25.2 19.45 -24.3 20.1 -23.85 20.3 -23.75 21.05 -23.75 21.4 -24.5 21.55 -24.75 21.65 -25.35 21.9 -25.55 22.2 -25.95 L22.25 -25.85 Q22.6 -25.45 22.95 -24.85 23.4 -23.75 23.55 -22.9 23.65 -22.25 23.65 -21.05 23.65 -20.55 23.35 -19.15 23.05 -17.75 22.9 -17.45 22.45 -16.65 21.25 -15.25 L21.2 -15.15 Q20.95 -14.6 20.7 -14.3 L20.75 -14.0 20.75 -13.8 Q20.75 -13.0 20.5 -12.35 20.35 -11.9 20.05 -11.6 19.65 -10.95 19.0 -10.95 L18.6 -10.95 Q18.45 -11.0 18.4 -11.05 L18.2 -11.15 17.9 -10.65 17.8 -10.5 17.45 -10.5 17.55 -10.7 17.95 -11.4 17.85 -11.85 17.75 -12.15 17.65 -12.3 Q17.5 -12.25 17.4 -11.7 17.3 -11.25 17.3 -11.0 17.3 -10.8 17.35 -10.65 L17.35 -10.5 16.95 -10.5 16.9 -10.9 16.95 -11.35 17.0 -11.55 16.7 -10.45 M17.0 -11.55 L17.0 -11.55 M20.05 -23.3 L20.0 -23.35 19.3 -23.8 19.3 -23.85 19.25 -23.85 18.85 -24.05 Q18.45 -24.3 18.0 -24.4 L17.1 -24.65 16.9 -24.65 16.85 -24.55 16.7 -24.55 16.8 -24.4 17.7 -23.6 18.15 -23.15 18.3 -22.95 18.95 -22.35 Q19.25 -22.1 19.45 -21.8 19.75 -21.4 19.95 -20.95 L20.05 -20.7 Q20.5 -19.75 20.5 -19.0 L20.6 -17.45 Q20.6 -16.45 20.35 -15.5 L20.15 -14.9 20.2 -15.0 20.3 -15.05 20.35 -15.15 20.5 -15.25 20.55 -15.35 20.6 -15.35 20.9 -15.65 Q20.25 -14.35 19.25 -13.75 L19.4 -13.75 Q19.55 -13.8 19.7 -13.9 L19.5 -13.5 Q18.8 -12.45 17.95 -12.2 17.95 -11.6 18.3 -11.5 18.5 -11.3 18.95 -11.3 L19.15 -11.3 Q19.45 -11.35 19.65 -11.5 L19.75 -11.65 19.95 -11.85 Q20.25 -12.45 20.3 -12.8 L20.45 -13.65 20.45 -13.8 20.4 -14.15 20.35 -14.25 Q20.05 -13.9 19.95 -13.9 L19.85 -13.95 19.8 -13.95 Q20.65 -14.5 21.15 -15.8 L21.25 -16.05 21.35 -16.2 21.85 -16.8 Q23.0 -18.35 23.0 -19.85 23.0 -20.0 23.15 -20.95 23.15 -22.35 23.0 -22.9 22.9 -23.5 22.2 -25.2 22.05 -24.6 21.65 -24.05 21.4 -23.7 21.1 -23.5 L21.85 -23.4 22.1 -23.4 22.25 -23.3 22.2 -23.2 22.1 -23.05 21.95 -22.95 Q21.75 -22.85 21.35 -22.85 L21.0 -22.9 20.85 -22.95 Q20.55 -23.0 20.25 -23.15 L20.2 -23.2 20.05 -23.3 M18.9 -21.85 L18.85 -21.85 18.75 -22.0 18.15 -22.55 17.4 -23.3 16.95 -23.7 16.2 -24.45 16.05 -24.55 15.15 -24.55 14.15 -24.65 13.8 -24.65 13.35 -24.7 Q13.1 -24.6 12.6 -24.55 L12.4 -24.5 11.45 -24.4 10.85 -24.15 10.4 -24.0 10.2 -23.9 9.3 -23.55 9.15 -23.45 Q8.5 -23.15 8.2 -22.9 7.9 -22.65 7.7 -22.45 7.3 -21.95 7.3 -21.4 L7.3 -21.35 7.3 -21.0 Q7.35 -20.65 7.4 -20.25 L7.4 -20.2 Q7.55 -19.45 7.9 -18.6 L8.15 -18.2 8.45 -17.6 8.45 -17.8 8.4 -18.05 8.4 -18.5 8.45 -18.55 8.45 -18.95 8.5 -19.05 Q8.6 -19.5 8.75 -19.9 L9.0 -20.4 Q9.05 -20.85 9.25 -21.2 9.2 -21.0 9.2 -20.8 9.2 -20.45 9.25 -20.1 L9.25 -19.9 Q9.25 -19.4 9.45 -18.95 L9.65 -18.65 9.7 -18.55 9.75 -18.5 10.05 -18.15 10.15 -18.1 10.25 -17.95 10.75 -17.6 Q11.05 -17.4 11.4 -17.25 L11.45 -17.25 Q11.0 -17.7 10.65 -18.5 L10.6 -18.6 10.5 -18.9 10.45 -19.0 Q10.35 -19.15 10.3 -19.55 10.2 -19.9 10.15 -20.2 10.35 -19.7 10.6 -19.25 L10.65 -19.15 Q10.85 -18.75 11.4 -18.05 L11.5 -17.95 11.8 -17.55 12.1 -17.25 12.15 -17.15 12.5 -16.95 12.85 -16.9 13.0 -16.85 Q12.8 -17.05 12.7 -17.45 12.65 -17.55 12.65 -17.75 L12.65 -17.8 12.6 -17.9 12.55 -18.2 Q12.5 -18.6 12.5 -19.0 L12.5 -19.35 12.55 -19.75 12.6 -20.0 12.6 -20.1 12.65 -20.15 12.7 -20.2 Q12.5 -20.8 12.5 -21.05 12.5 -21.15 12.65 -21.2 12.75 -21.0 13.05 -19.95 L13.05 -19.9 13.1 -19.85 13.15 -19.7 13.75 -18.7 13.85 -18.5 13.9 -18.5 14.6 -18.0 Q15.1 -17.9 15.8 -17.35 16.55 -16.75 17.0 -16.2 17.0 -16.15 16.95 -16.15 17.05 -16.0 17.05 -15.9 L17.05 -15.75 16.95 -15.75 16.65 -15.95 16.0 -16.45 15.85 -16.35 Q15.1 -15.9 14.5 -15.9 L14.45 -15.9 14.05 -15.95 13.9 -15.95 13.6 -16.05 13.55 -16.1 Q13.35 -16.2 13.3 -16.3 L13.25 -16.3 13.05 -16.45 13.1 -16.5 13.05 -16.55 12.95 -16.5 12.9 -16.5 12.75 -16.55 12.55 -16.55 12.05 -16.65 11.65 -16.65 11.7 -16.55 11.55 -16.6 11.5 -16.55 11.5 -16.65 11.1 -16.75 Q11.25 -16.55 11.35 -16.35 L11.4 -16.15 11.4 -16.05 11.35 -16.05 11.25 -16.05 Q10.9 -15.55 10.35 -15.5 10.65 -15.6 11.0 -15.9 L11.1 -16.05 10.45 -16.0 Q9.85 -16.0 9.4 -16.5 L9.35 -16.5 Q9.2 -16.7 9.1 -16.85 L9.05 -17.0 9.1 -16.05 9.15 -15.6 Q9.15 -15.2 9.2 -14.85 L9.25 -14.35 9.3 -14.1 9.3 -13.95 Q9.35 -13.75 9.45 -13.55 L9.5 -13.25 9.55 -13.15 9.55 -13.1 9.6 -13.0 Q9.95 -12.4 10.55 -11.8 11.35 -10.9 12.6 -10.05 L12.9 -10.15 13.2 -10.3 13.5 -10.4 Q13.55 -10.5 13.65 -10.45 15.0 -11.0 16.7 -11.95 L16.7 -11.9 16.75 -11.9 Q16.85 -12.3 17.05 -12.5 L17.25 -12.65 Q17.3 -12.7 17.3 -12.55 L17.3 -12.5 17.4 -12.5 17.5 -12.6 Q17.65 -12.9 17.85 -12.85 L17.9 -12.65 18.45 -13.15 Q19.2 -13.9 19.6 -14.75 19.8 -15.2 19.95 -15.65 20.1 -16.45 20.1 -17.4 L20.05 -19.15 20.05 -19.3 19.95 -19.6 Q19.8 -20.1 19.6 -20.65 19.35 -21.1 19.05 -21.55 L19.05 -21.6 18.9 -21.85 M12.9 -18.75 Q12.9 -18.2 13.0 -17.95 13.0 -17.9 13.0 -17.85 13.15 -18.0 13.45 -18.2 L13.6 -18.25 13.55 -18.3 Q13.35 -18.45 12.95 -19.4 L12.9 -18.75 M13.35 -17.0 L13.4 -17.0 Q13.55 -17.15 13.9 -17.35 14.25 -17.55 14.45 -17.65 L14.1 -17.9 Q13.5 -17.7 13.15 -17.5 L13.35 -17.0 M14.3 -16.55 L14.35 -16.5 14.45 -16.45 Q14.55 -16.5 14.55 -16.6 L14.5 -16.65 Q14.35 -16.7 14.25 -16.65 L14.3 -16.55 M12.7 -16.45 Q13.15 -15.85 14.0 -15.5 13.35 -15.55 13.0 -15.85 12.9 -16.0 12.75 -16.2 L12.65 -16.3 12.6 -16.4 Q12.6 -16.45 12.7 -16.45 M16.45 -15.35 L16.5 -15.5 16.65 -15.8 16.45 -15.35 M11.25 -13.9 L11.1 -13.9 11.1 -14.0 Q11.1 -14.15 11.3 -14.8 11.45 -15.4 11.4 -15.75 L11.5 -15.75 11.6 -15.55 11.65 -15.25 11.6 -14.95 11.5 -14.6 11.3 -14.1 11.95 -14.0 Q12.05 -14.0 12.1 -13.95 L12.05 -13.9 11.95 -13.85 11.9 -13.85 11.25 -13.9 M14.65 -16.8 L14.7 -16.6 Q14.7 -16.45 14.55 -16.3 14.5 -16.2 14.35 -16.15 14.9 -16.15 15.5 -16.4 L15.5 -16.45 Q15.25 -16.5 15.05 -16.65 14.8 -16.75 14.7 -16.85 L14.65 -16.8 M20.4 -18.05 L20.5 -18.65 Q20.5 -20.0 19.65 -21.0 20.25 -20.0 20.25 -19.35 L20.25 -19.3 Q20.4 -18.8 20.4 -18.3 L20.35 -18.05 20.4 -18.05 M9.0 -18.75 L9.0 -18.7 9.05 -18.55 9.0 -18.5 9.2 -18.45 9.05 -18.75 9.05 -18.8 9.0 -18.75 M9.8 -17.6 Q9.65 -17.8 9.5 -18.0 9.2 -18.2 8.95 -18.3 L8.95 -18.15 Q8.95 -17.9 9.0 -17.65 9.3 -17.7 9.75 -17.55 L9.95 -17.45 9.8 -17.6 M8.15 -16.2 L7.65 -16.2 7.55 -16.15 7.75 -15.8 7.8 -15.6 8.0 -15.3 8.05 -15.15 Q8.35 -14.8 8.75 -14.45 L8.7 -15.2 8.7 -15.25 8.6 -16.4 8.45 -16.3 Q8.35 -16.25 8.15 -16.2 M10.3 -16.45 L10.25 -16.3 10.9 -16.3 10.35 -16.65 10.2 -16.75 Q10.3 -16.6 10.3 -16.45 M9.05 -17.25 L9.05 -17.25 M9.95 -16.6 Q10.1 -16.6 10.1 -16.65 L10.05 -16.75 Q9.95 -16.75 9.85 -16.65 L9.95 -16.6 M9.1 -12.85 L9.0 -13.05 8.95 -12.85 8.9 -12.65 Q8.9 -12.45 8.95 -12.3 L8.95 -12.25 Q8.95 -12.2 9.05 -12.05 L9.1 -12.0 9.25 -11.8 9.3 -11.75 9.5 -11.6 9.6 -11.5 9.65 -11.45 Q10.05 -11.1 10.3 -11.05 L10.4 -11.05 Q10.45 -11.05 10.5 -11.1 10.2 -11.35 9.95 -11.7 L9.9 -11.75 9.5 -12.3 Q9.25 -12.6 9.1 -12.85 M12.25 -6.15 L12.15 -6.3 12.0 -6.2 11.95 -6.1 11.85 -6.0 Q11.35 -5.5 11.35 -4.9 L11.35 -4.7 Q11.4 -4.6 11.55 -4.6 11.65 -4.6 11.8 -4.7 12.05 -4.9 12.15 -5.35 12.35 -5.8 12.35 -5.95 L12.35 -6.0 12.4 -6.05 12.25 -6.15 M15.05 -7.7 L15.05 -7.75 15.1 -7.75 Q15.3 -7.85 15.65 -8.0 L16.2 -8.25 16.2 -8.3 16.25 -8.3 16.4 -8.35 16.35 -8.6 Q16.25 -9.2 16.25 -9.55 16.25 -9.75 16.4 -10.45 L16.5 -11.1 16.55 -11.3 16.6 -11.45 16.5 -11.4 Q16.15 -11.1 15.5 -10.8 L15.25 -10.65 15.1 -10.55 14.5 -10.2 13.45 -10.0 Q13.45 -9.7 13.2 -9.05 L13.05 -8.7 Q13.0 -8.6 13.0 -8.55 L12.95 -8.55 12.9 -8.5 12.8 -8.35 13.35 -8.1 Q13.8 -7.95 14.2 -7.85 L15.0 -7.7 15.05 -7.7 M12.25 -7.0 L12.3 -6.95 12.45 -6.75 12.55 -6.7 12.5 -6.7 12.95 -6.35 Q13.25 -6.1 13.55 -5.9 L13.85 -5.75 13.9 -5.75 13.95 -5.7 14.05 -5.65 14.1 -5.65 14.3 -5.6 14.95 -5.5 15.0 -5.5 15.25 -5.6 15.45 -5.6 15.75 -5.75 Q16.0 -5.9 16.2 -6.15 16.55 -6.6 16.65 -7.0 L16.5 -7.4 16.3 -7.9 16.05 -7.8 15.7 -7.65 15.25 -7.55 15.05 -7.5 14.7 -7.45 14.35 -7.5 14.2 -7.5 Q13.6 -7.55 13.1 -7.8 13.0 -7.85 12.85 -7.95 L12.55 -8.2 12.45 -8.0 12.35 -7.85 Q12.15 -7.5 11.95 -7.4 L12.1 -7.2 12.15 -7.15 12.25 -7.0 M13.45 -7.9 L13.35 -7.95 13.65 -7.85 13.45 -7.9 M17.95 -4.65 Q18.0 -4.7 18.0 -4.8 18.0 -5.2 17.3 -5.85 L16.95 -6.1 16.95 -6.05 16.65 -5.7 16.65 -5.65 16.85 -5.1 Q17.2 -4.55 17.7 -4.55 17.9 -4.55 17.95 -4.65 M15.5 -4.9 L15.5 -4.95 15.1 -4.85 Q15.0 -4.75 14.85 -4.7 14.7 -4.4 14.7 -3.9 L14.7 -3.7 Q14.65 -3.45 14.7 -3.25 14.75 -3.05 14.85 -2.95 L14.9 -2.95 Q14.95 -2.85 15.05 -2.85 L15.3 -2.85 Q15.4 -2.9 15.5 -3.0 L15.6 -3.3 15.65 -3.35 15.65 -3.5 Q15.7 -3.8 15.7 -4.25 15.7 -4.65 15.55 -4.85 L15.5 -4.9 M17.9 -6.1 L17.9 -6.1" fill="#101010" fill-rule="evenodd" stroke="none"/>
    <path d="M20.05 -23.3 L20.2 -23.2 Q20.1 -23.1 20.0 -23.05 L20.05 -23.3 M20.35 -15.15 L20.3 -15.05 20.3 -15.1 20.35 -15.15 M18.15 -23.15 L17.7 -23.6 16.8 -24.4 16.7 -24.55 16.85 -24.55 16.9 -24.65 17.1 -24.65 18.0 -24.4 Q18.45 -24.3 18.85 -24.05 L18.5 -23.7 Q18.3 -23.35 18.15 -23.15" fill="#944360" fill-rule="evenodd" stroke="none"/>
    <path d="M17.45 -10.5 L17.35 -10.5 17.35 -10.65 Q17.3 -10.8 17.3 -11.0 17.3 -11.25 17.4 -11.7 17.5 -12.25 17.65 -12.3 L17.75 -12.15 17.85 -11.85 17.95 -11.4 17.55 -10.7 17.45 -10.5 M13.05 -19.95 Q12.75 -21.0 12.65 -21.2 12.5 -21.15 12.5 -21.05 12.5 -20.8 12.7 -20.2 L12.65 -20.15 12.6 -20.1 12.6 -20.0 12.55 -19.75 12.1 -19.55 Q11.4 -19.05 11.4 -18.1 L11.4 -18.05 Q10.85 -18.75 10.65 -19.15 L10.6 -19.25 Q10.35 -19.7 10.15 -20.2 10.2 -19.9 10.3 -19.55 10.35 -19.15 10.45 -19.0 L10.5 -18.9 10.6 -18.6 Q10.15 -18.75 10.15 -18.1 L10.05 -18.15 9.75 -18.5 9.7 -18.55 9.65 -18.65 9.45 -18.95 Q9.25 -19.4 9.25 -19.9 L9.25 -20.1 Q9.2 -20.45 9.2 -20.8 9.2 -21.0 9.25 -21.2 9.05 -20.85 9.0 -20.4 L8.75 -19.9 Q8.6 -19.5 8.5 -19.05 L8.45 -18.95 8.45 -18.55 8.4 -18.6 Q8.1 -18.7 7.9 -18.6 7.55 -19.45 7.4 -20.2 L7.4 -20.25 Q7.35 -20.65 7.3 -21.0 L7.3 -21.35 7.4 -21.75 7.45 -21.8 7.45 -21.7 Q7.45 -21.5 7.5 -21.35 7.7 -21.0 8.15 -21.0 8.2 -21.0 8.7 -21.3 L9.05 -21.75 Q9.75 -22.55 10.0 -22.65 L9.45 -21.75 9.65 -21.95 Q11.15 -22.9 11.9 -22.9 12.0 -22.9 12.6 -22.7 L13.15 -22.5 13.5 -23.05 Q13.95 -23.55 14.25 -23.65 14.25 -23.35 13.8 -22.7 L13.65 -22.5 Q14.55 -22.55 15.1 -22.8 15.6 -23.1 15.6 -23.45 15.6 -23.6 14.35 -23.85 L12.65 -24.05 12.65 -24.0 Q12.65 -23.85 11.65 -22.85 11.15 -22.8 10.55 -22.45 L10.95 -22.95 Q11.55 -23.65 12.15 -24.05 L11.55 -24.05 10.55 -24.0 10.7 -24.05 10.9 -24.1 11.4 -24.2 Q12.7 -24.6 13.8 -24.65 L14.15 -24.65 15.15 -24.55 Q15.75 -24.4 16.3 -24.1 16.0 -23.75 16.0 -22.95 16.0 -21.65 15.3 -20.95 14.8 -20.5 13.7 -20.15 L13.05 -19.95 M7.75 -15.8 Q7.85 -15.75 8.0 -15.75 L8.0 -15.3 7.8 -15.6 7.75 -15.8 M8.25 -15.9 L8.25 -16.0 8.15 -16.2 Q8.35 -16.25 8.45 -16.3 L8.6 -16.4 8.7 -15.25 8.7 -15.2 8.4 -15.7 8.25 -15.9 M9.1 -12.85 L8.95 -12.85 9.0 -13.05 9.1 -12.85 M9.1 -12.0 Q9.4 -12.15 9.5 -12.3 L9.9 -11.75 Q9.65 -11.75 9.6 -11.5 L9.5 -11.6 9.3 -11.75 9.25 -11.8 9.1 -12.0" fill="#df9034" fill-rule="evenodd" stroke="none"/>
    <path d="M16.95 -10.5 L16.7 -10.45 17.0 -11.55 16.95 -11.35 16.9 -10.9 16.95 -10.5 M17.05 -12.5 Q16.85 -12.3 16.75 -11.9 L16.7 -11.9 16.7 -11.95 Q15.0 -11.0 13.65 -10.45 13.55 -10.5 13.5 -10.4 L13.2 -10.3 12.9 -10.15 13.65 -10.75 Q14.6 -11.55 14.9 -12.35 15.05 -12.75 15.2 -12.95 15.8 -12.45 16.85 -12.45 L17.0 -12.5 17.05 -12.5 M9.1 -16.05 L9.05 -17.0 9.1 -16.85 Q9.2 -16.7 9.35 -16.5 L9.4 -16.5 Q9.85 -16.0 10.45 -16.0 L11.1 -16.05 11.0 -15.9 Q10.65 -15.6 10.35 -15.5 10.9 -15.55 11.25 -16.05 L11.35 -16.05 11.35 -16.0 Q11.35 -15.8 11.05 -15.55 10.8 -15.3 10.45 -15.3 L10.0 -15.4 Q10.2 -15.05 10.2 -14.75 10.2 -14.5 9.95 -14.5 9.6 -14.5 9.45 -15.0 9.35 -15.25 9.35 -15.45 9.35 -15.65 9.4 -15.75 L9.1 -16.05 M11.4 -16.15 L11.35 -16.35 Q11.25 -16.55 11.1 -16.75 L11.5 -16.65 11.5 -16.55 11.55 -16.6 11.7 -16.55 11.65 -16.65 12.05 -16.65 12.55 -16.55 12.75 -16.55 12.9 -16.5 12.95 -16.5 13.05 -16.55 13.1 -16.5 13.05 -16.45 13.25 -16.3 13.3 -16.3 Q13.35 -16.2 13.55 -16.1 L13.6 -16.05 13.9 -15.95 14.05 -15.95 14.45 -15.9 14.5 -15.9 Q15.1 -15.9 15.85 -16.35 L16.0 -16.45 16.65 -15.95 16.65 -15.8 16.5 -15.5 16.45 -15.35 16.2 -14.9 Q16.05 -14.75 15.65 -14.45 L15.6 -14.45 Q15.15 -14.2 14.5 -14.15 L14.3 -14.3 13.7 -15.0 Q13.1 -15.5 12.9 -15.7 12.8 -15.85 12.7 -16.0 L12.75 -15.9 Q11.9 -15.95 11.4 -16.15 M12.9 -18.75 L12.95 -19.4 Q13.35 -18.45 13.55 -18.3 L13.6 -18.25 13.45 -18.2 Q13.15 -18.0 13.0 -17.85 13.0 -17.9 13.0 -17.95 12.9 -18.2 12.9 -18.75 M13.35 -17.0 L13.15 -17.5 Q13.5 -17.7 14.1 -17.9 L14.45 -17.65 Q14.25 -17.55 13.9 -17.35 13.55 -17.15 13.4 -17.0 L13.35 -17.0 M12.7 -16.45 Q12.6 -16.45 12.6 -16.4 L12.65 -16.3 12.75 -16.2 Q12.9 -16.0 13.0 -15.85 13.35 -15.55 14.0 -15.5 13.15 -15.85 12.7 -16.45 M11.6 -14.95 L11.75 -14.9 Q11.95 -14.8 12.1 -14.55 12.25 -14.35 12.25 -14.2 12.25 -14.05 12.1 -13.95 12.05 -14.0 11.95 -14.0 L11.3 -14.1 11.5 -14.6 11.6 -14.95 M9.05 -18.75 L9.2 -18.45 9.0 -18.5 9.05 -18.55 9.0 -18.7 9.0 -18.75 9.05 -18.75 M9.75 -17.55 Q9.3 -17.7 9.0 -17.65 8.95 -17.9 8.95 -18.15 L8.95 -18.3 Q9.2 -18.2 9.5 -18.0 9.65 -17.8 9.8 -17.6 L9.75 -17.55 M14.5 -10.2 L15.1 -10.55 15.25 -10.65 15.5 -10.8 Q16.15 -11.1 16.5 -11.4 L16.6 -11.45 16.55 -11.3 16.5 -11.1 16.4 -10.45 Q16.25 -9.75 16.25 -9.55 16.25 -9.2 16.35 -8.6 L16.4 -8.35 16.25 -8.3 16.2 -8.3 16.2 -8.25 15.65 -8.0 Q15.3 -7.85 15.1 -7.75 L15.05 -7.75 15.05 -7.7 Q14.75 -7.9 14.75 -8.0 L14.8 -9.0 14.9 -10.25 14.5 -10.2" fill="#e2924d" fill-rule="evenodd" stroke="none"/>
    <path d="M14.3 -16.55 L14.25 -16.65 Q14.35 -16.7 14.5 -16.65 L14.55 -16.6 Q14.55 -16.5 14.45 -16.45 L14.35 -16.5 14.3 -16.55 M14.65 -16.8 L14.7 -16.85 Q14.8 -16.75 15.05 -16.65 15.25 -16.5 15.5 -16.45 L15.5 -16.4 Q14.9 -16.15 14.35 -16.15 14.5 -16.2 14.55 -16.3 14.7 -16.45 14.7 -16.6 L14.65 -16.8 M10.3 -16.45 Q10.3 -16.6 10.2 -16.75 L10.35 -16.65 10.9 -16.3 10.25 -16.3 10.3 -16.45 M9.95 -16.6 L9.85 -16.65 Q9.95 -16.75 10.05 -16.75 L10.1 -16.65 Q10.1 -16.6 9.95 -16.6" fill="#ffffff" fill-rule="evenodd" stroke="none"/>
    <path d="M17.0 -11.55 L17.0 -11.55 M12.9 -10.15 L12.6 -10.05 Q11.35 -10.9 10.55 -11.8 9.95 -12.4 9.6 -13.0 L9.55 -13.1 9.55 -13.15 9.5 -13.25 9.45 -13.55 Q9.35 -13.75 9.3 -13.95 L9.3 -14.1 9.25 -14.35 9.2 -14.85 Q9.15 -15.2 9.15 -15.6 L9.1 -16.05 9.4 -15.75 Q9.35 -15.65 9.35 -15.45 9.35 -15.25 9.45 -15.0 9.6 -14.5 9.95 -14.5 10.2 -14.5 10.2 -14.75 10.2 -15.05 10.0 -15.4 L10.45 -15.3 Q10.8 -15.3 11.05 -15.55 11.35 -15.8 11.35 -16.0 L11.35 -16.05 11.4 -16.05 11.4 -16.15 Q11.9 -15.95 12.75 -15.9 L12.7 -16.0 Q12.8 -15.85 12.9 -15.7 13.1 -15.5 13.7 -15.0 L14.3 -14.3 14.5 -14.15 14.4 -14.1 14.45 -14.1 14.35 -14.05 Q14.65 -13.5 15.0 -13.1 L15.2 -12.95 Q15.05 -12.75 14.9 -12.35 14.6 -11.55 13.65 -10.75 L12.9 -10.15 M13.9 -15.95 L14.05 -15.95 13.9 -15.95 M11.6 -14.95 L11.65 -15.25 11.6 -15.55 11.5 -15.75 11.4 -15.75 Q11.45 -15.4 11.3 -14.8 11.1 -14.15 11.1 -14.0 L11.1 -13.9 11.25 -13.9 Q11.35 -13.8 11.45 -13.8 11.75 -13.8 11.95 -13.85 L12.05 -13.9 12.1 -13.95 Q12.25 -14.05 12.25 -14.2 12.25 -14.35 12.1 -14.55 11.95 -14.8 11.75 -14.9 L11.6 -14.95 M9.0 -18.75 L9.05 -18.8 9.05 -18.75 9.0 -18.75 M9.8 -17.6 L9.95 -17.45 9.75 -17.55 9.8 -17.6 M9.05 -17.25 L9.05 -17.25 M11.25 -12.45 L12.75 -12.55 12.9 -12.55 13.9 -12.8 Q14.2 -12.95 14.4 -13.15 L14.45 -13.25 14.55 -13.35 14.15 -13.15 14.1 -13.1 14.05 -13.1 13.7 -13.0 13.55 -12.95 13.45 -12.95 12.75 -12.9 Q11.95 -12.9 11.25 -12.7 L10.9 -12.6 11.25 -12.45 M15.05 -7.7 L15.0 -7.7 14.2 -7.85 Q13.8 -7.95 13.35 -8.1 L12.8 -8.35 12.9 -8.5 12.95 -8.55 13.0 -8.55 Q13.0 -8.6 13.05 -8.7 L13.2 -9.05 Q13.45 -9.7 13.45 -10.0 L14.5 -10.2 14.9 -10.25 14.8 -9.0 14.75 -8.0 Q14.75 -7.9 15.05 -7.7" fill="#eeb884" fill-rule="evenodd" stroke="none"/>
    <path d="M19.15 -11.3 L18.95 -11.3 Q18.5 -11.3 18.3 -11.5 17.95 -11.6 17.95 -12.2 18.8 -12.45 19.5 -13.5 L19.65 -13.65 19.85 -13.95 Q19.95 -13.6 19.95 -13.15 19.95 -12.7 19.75 -12.1 19.5 -11.5 19.15 -11.3 M11.35 -4.7 L11.35 -4.9 Q11.35 -5.5 11.85 -6.0 L11.95 -6.1 12.0 -6.2 12.15 -6.3 12.25 -6.15 12.25 -6.1 Q12.25 -6.0 11.9 -5.35 11.55 -4.8 11.35 -4.7 M13.55 -5.9 L13.55 -6.15 Q13.0 -6.4 12.75 -6.7 12.45 -6.95 12.45 -7.15 12.45 -7.6 12.75 -7.85 L12.85 -7.95 Q13.0 -7.85 13.1 -7.8 13.6 -7.55 14.2 -7.5 L14.35 -7.5 14.4 -7.35 14.4 -7.3 Q14.2 -6.3 14.05 -5.9 L13.95 -5.7 13.9 -5.75 13.85 -5.75 13.55 -5.9 M17.95 -4.65 Q17.9 -4.55 17.7 -4.55 17.2 -4.55 16.85 -5.1 L16.65 -5.65 16.65 -5.7 16.95 -6.05 Q17.1 -5.9 17.35 -5.55 L17.95 -4.65 M14.85 -4.7 Q15.0 -4.75 15.1 -4.85 L15.5 -4.95 15.5 -4.9 15.55 -4.55 15.6 -3.6 15.65 -3.35 15.6 -3.3 15.5 -3.0 Q15.4 -2.9 15.3 -2.85 L15.05 -2.85 Q14.95 -2.85 14.9 -2.95 14.85 -3.15 14.8 -3.4 14.75 -3.9 14.8 -4.4 14.8 -4.55 14.85 -4.7" fill="#efe7cf" fill-rule="evenodd" stroke="none"/>
    <path d="M19.85 -13.95 L19.95 -13.9 Q20.05 -13.9 20.35 -14.25 L20.4 -14.15 20.45 -13.8 20.45 -13.65 20.3 -12.8 Q20.25 -12.45 19.95 -11.85 L19.75 -11.65 19.65 -11.5 Q19.45 -11.35 19.15 -11.3 19.5 -11.5 19.75 -12.1 19.95 -12.7 19.95 -13.15 19.95 -13.6 19.85 -13.95 M12.25 -6.15 L12.4 -6.05 12.35 -6.0 12.35 -5.95 Q12.35 -5.8 12.15 -5.35 12.05 -4.9 11.8 -4.7 11.65 -4.6 11.55 -4.6 11.4 -4.6 11.35 -4.7 11.55 -4.8 11.9 -5.35 12.25 -6.0 12.25 -6.1 L12.25 -6.15 M12.25 -7.0 L12.4 -7.2 Q12.5 -7.4 12.5 -7.6 L12.5 -7.9 12.45 -8.0 12.55 -8.2 12.85 -7.95 12.75 -7.85 Q12.45 -7.6 12.45 -7.15 12.45 -6.95 12.75 -6.7 13.0 -6.4 13.55 -6.15 L13.55 -5.9 Q13.25 -6.1 12.95 -6.35 L12.5 -6.7 12.55 -6.7 12.45 -6.75 12.3 -6.95 12.25 -7.0 M12.35 -7.85 Q12.35 -7.7 12.25 -7.4 L12.15 -7.15 12.1 -7.2 11.95 -7.4 Q12.15 -7.5 12.35 -7.85 M14.4 -7.35 L14.35 -7.5 14.7 -7.45 15.05 -7.5 15.25 -7.55 Q15.1 -7.1 15.1 -6.45 15.05 -6.1 15.15 -5.85 L15.25 -5.6 15.0 -5.5 14.95 -5.5 14.3 -5.6 14.35 -6.3 14.45 -7.4 14.4 -7.35 M14.05 -5.9 L14.05 -5.65 13.95 -5.7 14.05 -5.9 M16.95 -6.05 L16.95 -6.1 17.3 -5.85 Q18.0 -5.2 18.0 -4.8 18.0 -4.7 17.95 -4.65 L17.35 -5.55 Q17.1 -5.9 16.95 -6.05 M15.5 -4.9 L15.55 -4.85 Q15.7 -4.65 15.7 -4.25 15.7 -3.8 15.65 -3.5 L15.65 -3.35 15.6 -3.6 15.55 -4.55 15.5 -4.9 M14.9 -2.95 L14.85 -2.95 Q14.75 -3.05 14.7 -3.25 14.65 -3.45 14.7 -3.7 L14.7 -3.9 Q14.7 -4.4 14.85 -4.7 14.8 -4.55 14.8 -4.4 14.75 -3.9 14.8 -3.4 14.85 -3.15 14.9 -2.95" fill="#ecc754" fill-rule="evenodd" stroke="none"/>
    <path d="M12.45 -8.0 L12.5 -7.9 12.5 -7.6 Q12.5 -7.4 12.4 -7.2 L12.25 -7.0 12.15 -7.15 12.25 -7.4 Q12.35 -7.7 12.35 -7.85 L12.45 -8.0 M14.4 -7.35 L14.45 -7.4 14.35 -6.3 14.3 -5.6 14.1 -5.65 14.05 -5.65 14.05 -5.9 Q14.2 -6.3 14.4 -7.3 L14.4 -7.35 M15.25 -5.6 L15.15 -5.85 Q15.05 -6.1 15.1 -6.45 15.1 -7.1 15.25 -7.55 L15.7 -7.65 16.05 -7.8 16.3 -7.9 16.5 -7.4 16.65 -7.0 Q16.55 -6.6 16.2 -6.15 16.0 -5.9 15.75 -5.75 L15.45 -5.6 15.25 -5.6" fill="#d07837" fill-rule="evenodd" stroke="none"/>
    <path d="M21.25 -16.05 L21.15 -15.8 Q20.65 -14.5 19.8 -13.95 L19.85 -13.95 19.65 -13.65 19.5 -13.5 19.7 -13.9 Q19.55 -13.8 19.4 -13.75 L19.25 -13.75 Q20.25 -14.35 20.9 -15.65 L20.9 -15.7 Q21.4 -16.85 21.4 -17.8 21.4 -19.6 20.95 -20.7 L21.0 -20.8 Q21.45 -20.05 21.55 -19.45 21.6 -19.2 21.6 -18.15 21.6 -17.15 21.25 -16.05 M20.3 -15.05 L20.2 -15.0 20.15 -14.9 20.35 -15.5 20.35 -15.45 20.3 -15.1 20.3 -15.05 M19.95 -20.95 Q19.75 -21.4 19.45 -21.8 L19.7 -21.6 Q19.85 -21.45 19.95 -20.95 M18.15 -22.55 L18.75 -22.0 18.85 -21.85 18.9 -21.85 18.8 -21.95 18.6 -22.1 18.55 -22.1 18.45 -22.2 18.15 -22.55 M19.05 -21.6 L19.05 -21.55 Q19.35 -21.1 19.6 -20.65 L19.5 -20.7 Q18.7 -21.8 16.65 -23.25 18.2 -22.3 19.05 -21.6 M19.95 -19.6 L20.05 -19.3 20.05 -19.15 20.1 -17.4 Q20.1 -16.45 19.95 -15.65 L19.95 -15.85 20.0 -16.6 20.05 -16.8 20.05 -17.0 20.0 -19.35 19.95 -19.6 M18.45 -13.15 L17.9 -12.65 17.85 -12.85 Q17.65 -12.9 17.5 -12.6 L17.4 -12.5 17.3 -12.5 17.3 -12.55 Q17.3 -12.7 17.25 -12.65 L17.05 -12.5 17.0 -12.5 16.85 -12.45 Q15.8 -12.45 15.2 -12.95 L15.0 -13.1 Q14.65 -13.5 14.35 -14.05 L14.45 -14.1 14.4 -14.1 14.5 -14.15 Q15.15 -14.2 15.6 -14.45 L15.65 -14.45 Q16.05 -14.75 16.2 -14.9 L16.45 -15.35 16.65 -15.8 16.65 -15.95 16.95 -15.75 17.05 -15.75 17.05 -15.9 Q17.05 -16.0 16.95 -16.15 17.0 -16.15 17.0 -16.2 16.55 -16.75 15.8 -17.35 15.1 -17.9 14.6 -18.0 L13.9 -18.5 13.85 -18.5 13.75 -18.7 14.25 -18.45 Q16.05 -17.55 16.8 -16.55 17.0 -16.3 17.15 -16.0 L17.15 -15.9 17.1 -15.75 16.3 -14.85 15.5 -13.85 15.4 -13.85 15.1 -13.9 14.85 -13.85 15.1 -13.5 Q16.05 -12.8 17.15 -12.8 L17.25 -12.8 17.6 -12.9 17.7 -12.9 18.1 -13.05 18.45 -13.15 M12.65 -20.15 L12.6 -20.1 12.65 -20.15 M7.3 -21.35 L7.3 -21.4 Q7.3 -21.95 7.7 -22.45 7.9 -22.65 8.2 -22.9 8.05 -22.8 8.0 -22.65 7.75 -22.4 7.55 -22.05 L7.5 -21.9 7.45 -21.8 7.4 -21.75 7.3 -21.35 M10.2 -23.9 L10.4 -24.0 10.85 -24.15 11.45 -24.4 12.4 -24.5 12.6 -24.55 Q13.1 -24.6 13.35 -24.7 L13.8 -24.65 Q12.7 -24.6 11.4 -24.2 L10.9 -24.1 10.7 -24.05 10.55 -24.0 10.2 -23.9 M15.15 -24.55 L16.05 -24.55 16.2 -24.45 16.95 -23.7 16.3 -24.1 Q15.75 -24.4 15.15 -24.55 M20.4 -18.05 L20.35 -18.05 20.4 -18.3 Q20.4 -18.8 20.25 -19.3 L20.25 -19.35 Q20.25 -20.0 19.65 -21.0 20.5 -20.0 20.5 -18.65 L20.4 -18.05" fill="#000000" fill-rule="evenodd" stroke="none"/>
    <path d="M11.95 -13.85 Q11.75 -13.8 11.45 -13.8 11.35 -13.8 11.25 -13.9 L11.9 -13.85 11.95 -13.85" fill="#d88f7a" fill-rule="evenodd" stroke="none"/>
    <path d="M18.9 -21.85 L19.05 -21.6 Q18.2 -22.3 16.65 -23.25 18.7 -21.8 19.5 -20.7 L19.6 -20.65 Q19.8 -20.1 19.95 -19.6 L20.0 -19.35 20.05 -17.0 20.05 -16.8 20.0 -16.6 19.95 -15.85 19.95 -15.65 Q19.8 -15.2 19.6 -14.75 19.2 -13.9 18.45 -13.15 L18.1 -13.05 17.7 -12.9 17.6 -12.9 17.25 -12.8 17.15 -12.8 Q16.05 -12.8 15.1 -13.5 L14.85 -13.85 15.1 -13.9 15.4 -13.85 15.5 -13.85 16.3 -14.85 17.1 -15.75 17.15 -15.9 17.15 -16.0 Q17.0 -16.3 16.8 -16.55 16.05 -17.55 14.25 -18.45 L13.75 -18.7 13.15 -19.7 13.1 -19.85 13.05 -19.9 13.05 -19.95 13.7 -20.15 Q14.8 -20.5 15.3 -20.95 16.0 -21.65 16.0 -22.95 16.0 -23.75 16.3 -24.1 L16.95 -23.7 17.4 -23.3 18.15 -22.55 18.45 -22.2 18.55 -22.1 18.6 -22.1 18.8 -21.95 18.9 -21.85 M12.55 -19.75 L12.5 -19.35 12.5 -19.0 Q12.5 -18.6 12.55 -18.2 L12.6 -17.9 12.65 -17.8 12.65 -17.75 Q12.65 -17.55 12.7 -17.45 12.8 -17.05 13.0 -16.85 L12.85 -16.9 12.5 -16.95 12.15 -17.15 12.1 -17.25 11.8 -17.55 11.5 -17.95 11.4 -18.05 11.4 -18.1 Q11.4 -19.05 12.1 -19.55 L12.55 -19.75 M10.6 -18.6 L10.65 -18.5 Q11.0 -17.7 11.45 -17.25 L11.4 -17.25 Q11.05 -17.4 10.75 -17.6 L10.25 -17.95 10.15 -18.1 Q10.15 -18.75 10.6 -18.6 M8.45 -18.55 L8.4 -18.5 8.4 -18.05 8.45 -17.8 8.45 -17.6 8.15 -18.2 7.9 -18.6 Q8.1 -18.7 8.4 -18.6 L8.45 -18.55 M8.0 -15.75 L8.1 -15.95 8.15 -15.95 8.25 -15.9 8.4 -15.7 8.7 -15.2 8.75 -14.45 Q8.35 -14.8 8.05 -15.15 L8.0 -15.3 8.0 -15.75 M9.6 -11.5 Q9.65 -11.75 9.9 -11.75 L9.95 -11.7 Q10.2 -11.35 10.5 -11.1 10.45 -11.05 10.4 -11.05 L10.3 -11.05 Q10.05 -11.1 9.65 -11.45 L9.6 -11.5" fill="#cb6527" fill-rule="evenodd" stroke="none"/>
    <path d="M18.85 -24.05 L19.25 -23.85 19.3 -23.85 19.3 -23.8 20.0 -23.35 20.05 -23.3 20.0 -23.05 Q20.1 -23.1 20.2 -23.2 L20.25 -23.15 Q20.55 -23.0 20.85 -22.95 L21.0 -22.9 21.35 -22.85 Q21.75 -22.85 21.95 -22.95 L22.1 -23.05 22.2 -23.2 22.25 -23.3 22.1 -23.4 21.85 -23.4 21.1 -23.5 Q21.4 -23.7 21.65 -24.05 22.05 -24.6 22.2 -25.2 22.9 -23.5 23.0 -22.9 23.15 -22.35 23.15 -20.95 23.0 -20.0 23.0 -19.85 23.0 -18.35 21.85 -16.8 L21.35 -16.2 21.25 -16.05 Q21.6 -17.15 21.6 -18.15 21.6 -19.2 21.55 -19.45 21.45 -20.05 21.0 -20.8 L20.95 -20.7 Q21.4 -19.6 21.4 -17.8 21.4 -16.85 20.9 -15.7 L20.9 -15.65 20.6 -15.35 20.55 -15.35 20.5 -15.25 20.35 -15.15 20.3 -15.1 20.35 -15.45 20.35 -15.5 Q20.6 -16.45 20.6 -17.45 L20.5 -19.0 Q20.5 -19.75 20.05 -20.7 L19.95 -20.95 Q19.85 -21.45 19.7 -21.6 L19.45 -21.8 Q19.25 -22.1 18.95 -22.35 L18.3 -22.95 18.15 -23.15 Q18.3 -23.35 18.5 -23.7 L18.85 -24.05" fill="#793e4d" fill-rule="evenodd" stroke="none"/>
    <path d="M11.25 -12.45 L10.9 -12.6 11.25 -12.7 Q11.95 -12.9 12.75 -12.9 L13.45 -12.95 13.55 -12.95 13.7 -13.0 14.05 -13.1 14.1 -13.1 14.15 -13.15 14.55 -13.35 14.45 -13.25 14.4 -13.15 Q14.2 -12.95 13.9 -12.8 L12.9 -12.55 12.75 -12.55 11.25 -12.45" fill="#502933" fill-rule="evenodd" stroke="none"/>
    <path d="M8.2 -22.9 Q8.5 -23.15 9.15 -23.45 L9.3 -23.55 10.2 -23.9 10.55 -24.0 11.55 -24.05 12.15 -24.05 Q11.55 -23.65 10.95 -22.95 L10.55 -22.45 Q11.15 -22.8 11.65 -22.85 12.65 -23.85 12.65 -24.0 L12.65 -24.05 14.35 -23.85 Q15.6 -23.6 15.6 -23.45 15.6 -23.1 15.1 -22.8 14.55 -22.55 13.65 -22.5 L13.8 -22.7 Q14.25 -23.35 14.25 -23.65 13.95 -23.55 13.5 -23.05 L13.15 -22.5 12.6 -22.7 Q12.0 -22.9 11.9 -22.9 11.15 -22.9 9.65 -21.95 L9.45 -21.75 10.0 -22.65 Q9.75 -22.55 9.05 -21.75 L8.7 -21.3 Q8.2 -21.0 8.15 -21.0 7.7 -21.0 7.5 -21.35 7.45 -21.5 7.45 -21.7 L7.45 -21.8 7.5 -21.9 7.55 -22.05 Q7.75 -22.4 8.0 -22.65 8.05 -22.8 8.2 -22.9 M7.75 -15.8 L7.55 -16.15 7.65 -16.2 8.15 -16.2 8.25 -16.0 8.25 -15.9 8.15 -15.95 8.1 -15.95 8.0 -15.75 Q7.85 -15.75 7.75 -15.8 M8.95 -12.85 L9.1 -12.85 Q9.25 -12.6 9.5 -12.3 9.4 -12.15 9.1 -12.0 L9.05 -12.05 Q8.95 -12.2 8.95 -12.25 L8.95 -12.3 Q8.9 -12.45 8.9 -12.65 L8.95 -12.85" fill="#f1cd96" fill-rule="evenodd" stroke="none"/>
  </g>
</svg>
