<?xml version="1.0" encoding="UTF-8" standalone="no"?>
<svg xmlns:ffdec="https://www.free-decompiler.com/flash" xmlns:xlink="http://www.w3.org/1999/xlink" ffdec:objectType="shape" height="11.15px" width="17.35px" xmlns="http://www.w3.org/2000/svg">
  <g transform="matrix(1.0, 0.0, 0.0, 1.0, -9.5, 14.45)">
    <path d="M19.75 -13.65 L19.35 -13.85 19.3 -13.9 19.25 -13.9 19.0 -14.0 18.55 -14.15 18.3 -14.2 16.95 -14.2 Q15.45 -14.05 14.25 -13.15 13.65 -12.65 13.2 -12.1 L13.05 -11.9 13.2 -11.7 13.6 -11.15 13.9 -10.75 14.4 -10.15 14.45 -10.2 14.45 -10.15 Q14.9 -9.65 15.25 -9.4 L15.7 -9.15 15.75 -9.1 Q16.2 -8.9 16.55 -8.75 L16.65 -8.7 16.9 -8.65 17.5 -8.55 17.6 -8.55 17.75 -8.5 18.55 -8.4 19.65 -8.15 19.8 -8.1 Q20.7 -7.95 21.35 -7.95 L21.45 -7.85 21.5 -7.9 21.6 -7.8 21.6 -7.95 21.65 -8.15 21.75 -8.65 Q21.85 -9.1 21.85 -9.45 21.85 -11.05 21.25 -12.1 20.75 -13.1 19.75 -13.65 M18.15 -14.45 Q20.5 -13.95 21.45 -12.2 22.05 -11.1 22.05 -9.45 L22.0 -8.8 22.2 -8.8 22.5 -8.65 22.6 -8.65 Q22.65 -8.8 23.15 -9.2 L23.4 -9.45 23.85 -9.8 Q24.4 -10.1 25.2 -9.75 L25.8 -9.5 Q26.1 -9.35 26.2 -9.35 26.45 -9.35 26.85 -9.5 L26.85 -9.6 Q26.75 -9.2 26.75 -8.75 L26.6 -8.3 Q26.05 -7.15 25.1 -7.15 24.25 -7.15 23.75 -7.5 23.95 -7.3 24.2 -6.75 24.5 -6.15 24.75 -5.85 25.05 -5.5 25.5 -5.25 L25.7 -5.3 25.55 -4.85 25.2 -4.75 Q24.75 -4.6 24.35 -4.6 23.45 -4.6 23.0 -5.15 L22.85 -5.35 22.9 -5.5 Q22.9 -5.85 22.75 -6.15 L22.8 -6.65 22.8 -7.0 Q22.75 -7.15 22.7 -7.3 L22.65 -7.25 22.7 -7.2 22.65 -7.2 22.35 -7.0 22.3 -7.0 Q22.5 -6.7 22.55 -6.4 L22.3 -6.7 Q22.45 -6.4 22.45 -6.15 22.45 -5.95 22.3 -5.8 22.25 -5.85 21.85 -6.1 L21.35 -6.45 21.35 -6.4 21.4 -6.35 Q21.8 -6.05 21.85 -5.85 L21.75 -5.75 21.75 -5.8 21.65 -5.7 21.35 -5.35 Q20.95 -5.0 20.6 -5.0 L20.4 -5.0 20.25 -4.95 19.75 -4.95 Q19.5 -4.95 19.25 -5.05 L18.85 -5.2 18.8 -5.0 18.85 -4.9 19.25 -4.45 19.25 -4.4 19.1 -4.35 Q18.75 -4.35 18.4 -4.55 18.1 -4.25 17.5 -3.85 16.75 -3.35 16.45 -3.35 L15.9 -3.35 Q15.85 -3.3 15.75 -3.3 14.2 -3.75 13.35 -4.55 L13.2 -4.7 12.95 -5.0 12.85 -5.0 12.85 -4.95 12.75 -5.05 12.65 -5.05 12.6 -5.1 Q12.05 -5.3 11.45 -6.1 11.15 -6.4 10.9 -6.75 10.6 -7.15 10.5 -7.55 L10.45 -7.55 Q10.2 -8.0 10.2 -8.05 10.2 -8.85 10.65 -9.6 L10.85 -9.9 11.15 -10.3 10.75 -10.25 9.95 -10.2 9.5 -10.2 Q9.5 -10.15 9.5 -10.3 9.5 -10.45 10.4 -11.0 L10.5 -11.05 10.85 -11.3 Q11.25 -11.55 11.6 -11.55 L11.7 -11.55 11.3 -11.7 Q10.95 -11.85 10.6 -12.05 L10.25 -12.45 10.45 -12.5 Q10.9 -12.65 11.85 -12.6 12.45 -12.4 12.9 -12.0 13.35 -12.7 14.15 -13.3 15.5 -14.35 16.95 -14.45 L18.15 -14.45 M13.5 -11.0 L13.3 -11.2 13.3 -11.25 13.1 -11.5 12.75 -11.85 Q12.05 -12.35 10.95 -12.35 L10.6 -12.3 11.1 -12.05 Q11.75 -11.75 11.95 -11.5 L11.95 -11.45 11.9 -11.45 11.45 -11.4 10.95 -11.15 10.55 -10.9 9.85 -10.4 11.25 -10.45 11.25 -10.4 11.4 -10.55 11.7 -10.75 12.05 -10.9 12.15 -10.75 11.8 -10.5 Q11.45 -10.2 11.1 -9.75 L11.0 -9.6 Q10.6 -9.0 10.5 -8.45 L10.5 -8.4 Q10.5 -7.9 10.75 -7.35 L10.75 -7.3 Q10.95 -6.95 11.35 -6.6 11.75 -6.2 12.6 -5.5 L12.55 -6.1 Q12.55 -6.45 12.65 -6.85 L12.65 -7.05 12.7 -7.05 Q12.8 -7.65 13.1 -8.3 13.65 -9.5 14.2 -10.0 L13.95 -10.4 13.6 -10.85 13.55 -10.85 13.55 -10.9 13.5 -11.0 M18.0 -6.55 Q18.35 -6.0 18.5 -5.85 18.8 -5.55 19.1 -5.4 19.35 -5.3 19.6 -5.25 L19.75 -5.2 19.75 -5.25 19.9 -5.2 20.25 -5.25 20.65 -5.3 Q20.85 -5.4 21.05 -5.5 L21.4 -5.7 21.6 -5.9 Q21.4 -5.95 21.25 -6.15 L21.2 -6.25 Q20.95 -6.45 20.9 -6.6 L20.9 -6.75 21.0 -6.75 Q21.25 -6.75 21.7 -6.45 L22.25 -6.05 Q22.0 -7.05 21.3 -7.55 L21.6 -7.55 21.55 -7.6 21.45 -7.65 19.4 -8.05 18.5 -8.15 Q17.7 -8.25 17.0 -8.45 L16.65 -8.5 16.6 -8.45 16.6 -8.4 16.5 -8.45 16.6 -8.1 16.6 -8.15 Q16.6 -7.75 16.75 -7.35 L16.8 -7.1 17.0 -6.65 17.15 -6.35 17.15 -6.3 17.2 -6.35 17.2 -6.3 Q17.4 -5.95 17.7 -5.6 18.05 -5.25 18.5 -4.95 18.25 -5.25 18.1 -5.5 L18.1 -5.55 18.05 -5.55 Q17.85 -5.9 17.8 -6.2 L17.75 -6.45 17.75 -6.5 17.8 -6.5 17.8 -6.6 17.85 -6.6 Q17.85 -6.65 17.95 -6.65 L18.0 -6.55 M22.85 -8.7 L22.75 -8.6 22.75 -8.55 22.8 -8.55 23.05 -8.45 Q23.4 -8.25 23.8 -7.85 24.0 -7.7 24.15 -7.6 24.5 -7.45 24.8 -7.45 26.0 -7.45 26.5 -8.45 L26.75 -9.1 26.75 -9.15 26.7 -9.15 26.5 -9.1 Q26.05 -9.1 25.6 -9.3 L25.6 -9.35 25.35 -9.45 Q25.0 -9.6 24.75 -9.65 L24.45 -9.7 24.0 -9.65 Q23.65 -9.5 23.25 -9.15 L22.85 -8.7 M22.2 -7.2 L22.45 -7.4 Q22.55 -7.6 22.55 -7.95 L22.5 -8.4 Q22.45 -8.45 22.35 -8.5 L22.2 -8.5 21.95 -8.45 21.9 -8.4 21.95 -8.35 21.85 -8.05 21.85 -8.0 21.8 -7.9 21.7 -7.8 21.65 -7.75 21.7 -7.7 22.15 -7.2 22.2 -7.15 22.2 -7.2 M22.75 -8.05 L22.85 -8.1 22.8 -8.1 Q22.75 -8.15 22.7 -8.15 L22.75 -8.05 22.75 -7.9 Q22.75 -7.7 22.7 -7.55 L22.7 -7.45 22.95 -7.2 22.95 -6.6 22.95 -6.2 22.9 -5.8 Q22.9 -5.5 23.2 -5.25 23.6 -4.8 24.35 -4.8 L24.6 -4.85 Q25.05 -4.85 25.25 -5.0 L25.3 -5.05 25.1 -5.2 Q24.85 -5.35 24.55 -5.7 24.45 -5.85 24.0 -6.55 L23.75 -7.15 23.25 -7.75 Q23.05 -7.9 22.75 -8.05 M11.75 -12.4 L12.3 -12.15 12.45 -12.1 Q12.15 -12.3 11.8 -12.4 L11.75 -12.4 M16.25 -8.55 Q15.65 -8.85 15.2 -9.15 15.0 -9.25 14.9 -9.35 14.6 -9.6 14.3 -9.95 L13.8 -9.25 13.6 -8.9 13.4 -8.4 Q13.5 -8.35 13.7 -8.05 14.0 -7.65 14.0 -7.45 L14.05 -7.3 14.1 -6.95 14.1 -6.9 Q14.05 -6.6 13.95 -6.35 L13.95 -6.3 Q13.85 -6.05 13.7 -5.8 L13.65 -5.75 13.6 -5.65 13.55 -5.7 13.6 -5.75 13.65 -5.85 13.65 -5.9 13.7 -5.95 13.85 -6.25 13.9 -6.35 Q14.0 -6.6 14.0 -6.95 L14.0 -7.05 13.95 -7.25 13.95 -7.3 13.85 -7.45 13.8 -7.45 13.8 -7.5 13.7 -7.45 13.65 -7.45 13.7 -7.35 13.7 -7.3 13.65 -7.2 Q13.55 -7.05 13.4 -7.05 13.25 -7.05 13.15 -7.2 L13.15 -7.15 Q13.25 -6.95 13.45 -6.85 L13.55 -6.85 13.6 -6.8 13.9 -6.85 Q13.9 -6.9 13.9 -6.85 L13.9 -6.75 13.55 -6.75 Q13.2 -6.8 13.05 -7.2 L13.05 -7.25 13.0 -7.25 13.0 -7.35 12.95 -7.2 12.95 -7.15 12.9 -7.15 12.9 -7.1 12.95 -6.75 12.95 -6.65 13.0 -6.05 13.05 -5.55 Q13.15 -5.2 13.4 -4.95 L13.5 -4.85 Q13.65 -4.7 13.8 -4.55 L14.2 -4.25 14.35 -4.1 Q14.65 -3.95 15.05 -3.75 L15.85 -3.55 Q16.75 -3.5 17.45 -4.0 L18.3 -4.6 Q18.05 -4.8 17.75 -5.1 17.45 -5.45 17.15 -5.95 L17.05 -6.15 Q16.9 -6.05 16.65 -6.05 16.1 -6.05 15.8 -6.5 L15.75 -6.65 Q15.65 -6.75 15.6 -6.85 15.55 -7.0 15.55 -7.15 L15.6 -7.2 15.4 -7.2 15.4 -7.25 15.35 -7.25 15.35 -7.3 15.4 -7.4 15.8 -7.55 16.45 -7.5 16.5 -7.5 16.55 -7.5 16.55 -7.55 16.5 -7.55 16.45 -7.85 16.4 -7.85 16.35 -7.9 16.3 -7.85 16.3 -7.9 16.2 -7.85 15.6 -7.65 Q15.1 -7.5 14.9 -7.35 14.85 -7.4 14.85 -7.5 L14.8 -7.55 14.9 -7.55 15.55 -7.9 Q16.1 -8.2 16.35 -8.2 L16.35 -8.45 16.35 -8.5 16.25 -8.55 M15.8 -4.35 L16.1 -4.3 16.0 -4.3 16.25 -4.2 16.3 -4.2 16.45 -4.15 16.45 -4.1 16.3 -4.15 16.2 -4.2 15.95 -4.3 15.85 -4.3 15.8 -4.35 15.0 -4.5 14.95 -4.5 14.45 -4.55 Q14.1 -4.65 13.85 -4.75 L13.85 -4.8 13.95 -4.8 13.9 -4.85 14.95 -4.6 15.8 -4.35 M14.25 -10.0 L14.25 -10.0 M16.75 -6.8 L16.7 -6.95 16.65 -7.15 16.6 -7.2 16.55 -7.2 16.6 -7.15 16.7 -6.8 16.7 -6.75 Q16.7 -6.6 16.6 -6.55 L16.45 -6.4 16.3 -6.4 Q16.15 -6.4 16.0 -6.45 L15.9 -6.5 16.1 -6.35 Q16.4 -6.15 16.65 -6.15 16.85 -6.15 17.0 -6.2 16.85 -6.45 16.75 -6.8 M15.95 -5.95 L15.7 -6.1 15.75 -6.1 16.25 -5.85 Q16.1 -5.85 15.95 -5.95 M14.45 -5.55 L14.55 -5.55 14.45 -5.5 13.75 -5.4 13.7 -5.45 Q13.6 -5.5 13.6 -5.55 L13.65 -5.6 13.75 -5.55 13.75 -5.5 13.95 -5.5 14.35 -5.55 14.45 -5.55 M13.65 -6.45 Q13.8 -6.55 13.9 -6.55 L13.7 -6.4 13.5 -6.2 13.45 -6.2 13.65 -6.45 M12.65 -5.55 L12.65 -5.55 M13.15 -5.2 L13.1 -5.3 13.1 -5.25 13.15 -5.2 M18.4 -5.55 L18.3 -5.6 18.35 -5.5 18.7 -5.1 Q18.7 -5.15 18.8 -5.2 18.6 -5.35 18.4 -5.55 M18.5 -4.95 L18.5 -4.95 M18.85 -4.6 L18.8 -4.65 18.9 -4.6 18.85 -4.6 M24.5 -5.85 Q24.7 -5.55 24.9 -5.4 24.65 -5.7 24.35 -6.15 L24.5 -5.85" fill="#000000" fill-rule="evenodd" stroke="none"/>
    <path d="M10.75 -7.35 Q10.5 -7.9 10.5 -8.4 L10.5 -8.45 Q10.6 -9.0 11.0 -9.6 L11.1 -9.75 Q11.45 -10.2 11.8 -10.5 L12.15 -10.75 12.05 -10.9 11.7 -10.75 11.4 -10.55 11.25 -10.4 11.25 -10.45 9.85 -10.4 10.55 -10.9 10.95 -11.15 11.45 -11.4 11.9 -11.45 11.95 -11.45 11.95 -11.5 Q11.75 -11.75 11.1 -12.05 L10.6 -12.3 10.95 -12.35 Q12.05 -12.35 12.75 -11.85 L13.1 -11.5 13.3 -11.25 13.3 -11.2 13.5 -11.0 Q13.4 -10.85 13.35 -10.7 L13.15 -10.1 Q13.05 -9.7 12.9 -9.45 L12.5 -8.85 Q12.25 -8.5 11.95 -8.2 11.5 -7.75 10.9 -7.5 10.8 -7.45 10.75 -7.35 M18.5 -8.15 L18.75 -8.0 19.2 -7.55 Q19.2 -7.35 19.0 -7.2 L19.15 -7.15 18.95 -7.0 Q18.75 -6.85 18.5 -6.75 L18.4 -6.7 18.75 -6.5 Q19.4 -6.15 19.6 -5.95 L19.5 -5.85 Q19.4 -5.75 19.2 -5.75 18.65 -5.75 18.3 -6.15 18.15 -6.35 18.05 -6.55 L18.0 -6.55 17.95 -6.65 Q17.85 -6.65 17.85 -6.6 L17.8 -6.6 17.8 -6.5 17.75 -6.5 17.75 -6.45 17.8 -6.2 Q17.85 -5.9 18.05 -5.55 L18.1 -5.55 18.1 -5.5 Q18.25 -5.25 18.5 -4.95 18.05 -5.25 17.7 -5.6 17.4 -5.95 17.2 -6.3 L17.2 -6.35 17.15 -6.3 17.15 -6.35 17.0 -6.65 16.8 -7.1 16.75 -7.35 Q16.6 -7.75 16.6 -8.15 L16.6 -8.1 16.5 -8.45 16.6 -8.4 16.6 -8.45 16.65 -8.5 17.0 -8.45 Q17.7 -8.25 18.5 -8.15" fill="#9a552c" fill-rule="evenodd" stroke="none"/>
    <path d="M19.8 -8.1 L19.65 -8.15 19.75 -8.15 19.8 -8.1 M16.65 -8.7 L16.55 -8.75 16.65 -8.75 16.65 -8.7 M23.05 -8.45 L22.8 -8.55 22.75 -8.55 22.75 -8.6 22.85 -8.7 22.85 -8.65 Q22.95 -8.5 23.2 -8.5 L23.05 -8.45 M26.7 -9.15 L26.75 -9.15 26.75 -9.1 26.7 -9.15 M21.7 -7.8 L21.7 -7.7 21.65 -7.75 21.7 -7.8 M22.15 -7.2 L22.2 -7.2 22.2 -7.15 22.15 -7.2" fill="#be4729" fill-rule="evenodd" stroke="none"/>
    <path d="M13.6 -8.9 Q13.75 -8.7 14.15 -8.5 14.9 -8.15 15.0 -8.0 14.85 -7.75 14.8 -7.6 L14.8 -7.25 Q14.8 -6.75 15.05 -6.3 15.5 -5.55 16.4 -5.55 L16.4 -5.2 Q16.2 -4.85 15.85 -4.45 L15.8 -4.35 Q15.7 -4.15 15.7 -3.95 15.7 -3.75 15.8 -3.6 L15.85 -3.55 15.05 -3.75 Q14.65 -3.95 14.35 -4.1 L14.2 -4.25 13.8 -4.55 Q13.65 -4.7 13.5 -4.85 L13.4 -4.95 Q13.15 -5.2 13.05 -5.55 L13.0 -6.05 12.95 -6.65 12.95 -6.75 13.05 -6.55 Q13.3 -6.15 13.55 -6.15 L13.85 -6.25 13.85 -6.2 13.7 -6.05 13.7 -5.95 13.65 -5.9 Q13.6 -5.85 13.6 -5.75 L13.55 -5.7 13.6 -5.65 13.6 -5.6 13.65 -5.6 13.6 -5.55 Q13.6 -5.5 13.7 -5.45 L13.75 -5.4 14.45 -5.5 14.55 -5.55 14.45 -5.55 14.5 -5.6 Q14.65 -5.7 14.65 -5.85 L14.6 -5.95 14.65 -6.0 14.65 -6.2 Q14.65 -6.3 14.55 -6.5 L14.45 -6.7 14.45 -6.8 14.4 -6.95 14.2 -6.95 14.15 -6.9 14.1 -6.9 14.1 -6.95 14.05 -7.3 14.0 -7.45 Q14.0 -7.65 13.7 -8.05 13.5 -8.35 13.4 -8.4 L13.6 -8.9 M16.5 -7.5 L16.55 -7.55 16.55 -7.5 16.5 -7.5 M16.35 -8.45 L16.25 -8.55 16.35 -8.5 16.35 -8.45 M12.95 -7.2 L13.0 -7.35 13.0 -7.25 12.95 -7.25 12.95 -7.2 M13.65 -7.45 L13.7 -7.45 13.65 -7.45 M13.8 -7.5 L13.8 -7.45 13.8 -7.5 M14.0 -7.05 L14.0 -6.95 14.0 -7.05 M14.15 -6.7 L14.15 -6.65 14.2 -6.65 14.15 -6.55 14.15 -6.7 M15.8 -4.35 L14.95 -4.6 13.9 -4.85 13.95 -4.8 13.85 -4.8 13.85 -4.75 Q14.1 -4.65 14.45 -4.55 L14.95 -4.5 15.0 -4.5 15.8 -4.35 M13.75 -5.55 L13.85 -5.5 13.95 -5.5 13.75 -5.5 13.75 -5.55" fill="#f4c49f" fill-rule="evenodd" stroke="none"/>
    <path d="M13.9 -6.85 Q13.9 -6.9 13.9 -6.85 L13.6 -6.8 13.55 -6.85 13.45 -6.85 Q13.25 -6.95 13.15 -7.15 L13.15 -7.2 Q13.25 -7.05 13.4 -7.05 13.55 -7.05 13.65 -7.2 L13.7 -7.3 13.95 -7.3 13.95 -7.25 14.0 -7.05 14.0 -6.95 Q13.95 -6.85 13.9 -6.85 M16.7 -6.8 L16.75 -6.8 Q16.85 -6.45 17.0 -6.2 16.85 -6.15 16.65 -6.15 16.4 -6.15 16.1 -6.35 L15.9 -6.5 16.0 -6.45 Q16.15 -6.4 16.3 -6.4 L16.45 -6.4 16.6 -6.55 Q16.7 -6.6 16.7 -6.75 L16.7 -6.8" fill="#ffffff" fill-rule="evenodd" stroke="none"/>
    <path d="M10.75 -7.35 Q10.8 -7.45 10.9 -7.5 11.5 -7.75 11.95 -8.2 12.25 -8.5 12.5 -8.85 L12.9 -9.45 Q13.05 -9.7 13.15 -10.1 L13.35 -10.7 Q13.4 -10.85 13.5 -11.0 L13.55 -10.9 13.55 -10.85 13.6 -10.85 13.95 -10.4 14.2 -10.0 Q13.65 -9.5 13.1 -8.3 12.8 -7.65 12.7 -7.05 L12.65 -7.05 12.65 -6.85 Q12.55 -6.45 12.55 -6.1 L12.6 -5.5 Q11.75 -6.2 11.35 -6.6 10.95 -6.95 10.75 -7.3 L10.75 -7.35 M18.0 -6.55 L18.05 -6.55 Q18.15 -6.35 18.3 -6.15 18.65 -5.75 19.2 -5.75 19.4 -5.75 19.5 -5.85 L19.6 -5.95 Q19.4 -6.15 18.75 -6.5 L18.4 -6.7 18.5 -6.75 Q18.75 -6.85 18.95 -7.0 L19.15 -7.15 19.0 -7.2 Q19.2 -7.35 19.2 -7.55 L18.75 -8.0 18.5 -8.15 19.4 -8.05 21.45 -7.65 21.55 -7.6 21.6 -7.55 21.3 -7.55 Q22.0 -7.05 22.25 -6.05 L21.7 -6.45 Q21.25 -6.75 21.0 -6.75 L20.9 -6.75 20.9 -6.6 Q20.95 -6.45 21.2 -6.25 L21.25 -6.15 Q21.4 -5.95 21.6 -5.9 L21.4 -5.7 21.05 -5.5 Q20.85 -5.4 20.65 -5.3 L20.25 -5.25 19.9 -5.2 19.75 -5.25 19.75 -5.2 19.6 -5.25 Q19.35 -5.3 19.1 -5.4 18.8 -5.55 18.5 -5.85 18.35 -6.0 18.0 -6.55 M18.5 -4.95 L18.5 -4.95" fill="#78372e" fill-rule="evenodd" stroke="none"/>
    <path d="M13.6 -8.9 L13.8 -9.25 14.3 -9.95 Q14.6 -9.6 14.9 -9.35 15.0 -9.25 15.2 -9.15 15.65 -8.85 16.25 -8.55 L16.35 -8.45 16.35 -8.2 Q16.1 -8.2 15.55 -7.9 L14.9 -7.55 14.8 -7.55 14.85 -7.5 Q14.85 -7.4 14.9 -7.35 15.1 -7.5 15.6 -7.65 L16.2 -7.85 16.3 -7.9 16.3 -7.85 16.35 -7.9 16.4 -7.85 16.45 -7.85 16.5 -7.55 16.55 -7.55 16.5 -7.5 16.45 -7.5 15.8 -7.55 15.4 -7.4 15.35 -7.3 15.35 -7.25 15.4 -7.25 15.4 -7.2 15.6 -7.2 15.55 -7.15 Q15.55 -7.0 15.6 -6.85 15.65 -6.75 15.75 -6.65 L15.8 -6.5 Q16.1 -6.05 16.65 -6.05 16.9 -6.05 17.05 -6.15 L17.15 -5.95 Q17.45 -5.45 17.75 -5.1 18.05 -4.8 18.3 -4.6 L17.45 -4.0 Q16.75 -3.5 15.85 -3.55 L15.8 -3.6 Q15.7 -3.75 15.7 -3.95 15.7 -4.15 15.8 -4.35 L15.85 -4.45 Q16.2 -4.85 16.4 -5.2 L16.4 -5.55 Q15.5 -5.55 15.05 -6.3 14.8 -6.75 14.8 -7.25 L14.8 -7.6 Q14.85 -7.75 15.0 -8.0 14.9 -8.15 14.15 -8.5 13.75 -8.7 13.6 -8.9 M15.8 -4.35 L15.85 -4.3 15.95 -4.3 16.2 -4.2 16.3 -4.15 16.45 -4.1 16.45 -4.15 16.3 -4.2 16.25 -4.2 16.0 -4.3 16.1 -4.3 15.8 -4.35 M12.95 -7.2 L12.95 -7.25 13.0 -7.25 13.05 -7.25 13.05 -7.2 Q13.2 -6.8 13.55 -6.75 L13.9 -6.75 13.9 -6.85 Q13.95 -6.85 14.0 -6.95 14.0 -6.6 13.9 -6.35 L13.85 -6.25 13.55 -6.15 Q13.3 -6.15 13.05 -6.55 L12.95 -6.75 12.9 -7.1 12.9 -7.15 12.95 -7.15 12.95 -7.2 M13.95 -6.3 L13.95 -6.35 Q14.05 -6.6 14.1 -6.9 L14.15 -6.9 14.15 -6.7 14.15 -6.55 14.05 -6.45 13.95 -6.3 M15.95 -5.95 Q16.1 -5.85 16.25 -5.85 L15.75 -6.1 15.7 -6.1 15.95 -5.95 M13.65 -6.45 L13.45 -6.2 13.5 -6.2 13.7 -6.4 13.9 -6.55 Q13.8 -6.55 13.65 -6.45 M18.35 -5.5 L18.4 -5.55 Q18.6 -5.35 18.8 -5.2 18.7 -5.15 18.7 -5.1 L18.35 -5.5" fill="#e7955f" fill-rule="evenodd" stroke="none"/>
    <path d="M13.85 -6.25 L13.7 -5.95 13.7 -6.05 13.85 -6.2 13.85 -6.25" fill="#e48776" fill-rule="evenodd" stroke="none"/>
    <path d="M13.65 -5.9 L13.65 -5.85 13.6 -5.75 Q13.6 -5.85 13.65 -5.9 M13.6 -5.65 L13.65 -5.75 13.7 -5.8 Q13.85 -6.05 13.95 -6.3 L14.05 -6.45 14.15 -6.55 14.2 -6.65 14.15 -6.65 14.15 -6.7 14.15 -6.9 14.2 -6.95 14.4 -6.95 14.45 -6.8 14.45 -6.7 14.55 -6.5 Q14.65 -6.3 14.65 -6.2 L14.65 -6.0 14.6 -5.95 14.65 -5.85 Q14.65 -5.7 14.5 -5.6 L14.45 -5.55 14.35 -5.55 13.95 -5.5 13.85 -5.5 13.75 -5.55 13.65 -5.6 13.6 -5.6 13.6 -5.65" fill="#e48556" fill-rule="evenodd" stroke="none"/>
    <path d="M13.7 -7.3 L13.7 -7.35 13.65 -7.45 13.7 -7.45 13.8 -7.5 13.8 -7.45 13.85 -7.45 13.95 -7.3 13.7 -7.3 M16.7 -6.8 L16.6 -7.15 16.55 -7.2 16.6 -7.2 16.65 -7.15 16.7 -6.95 16.75 -6.8 16.7 -6.8" fill="#c7b7af" fill-rule="evenodd" stroke="none"/>
    <path d="M13.2 -12.1 Q13.65 -12.65 14.25 -13.15 15.45 -14.05 16.95 -14.2 L18.3 -14.2 18.55 -14.15 19.0 -14.0 19.25 -13.9 19.3 -13.9 19.35 -13.85 19.75 -13.65 Q19.85 -13.4 19.85 -12.85 19.85 -12.15 19.25 -11.3 18.35 -9.95 16.65 -9.95 16.4 -9.95 16.3 -10.1 L16.1 -10.1 Q15.35 -10.1 14.65 -10.4 L13.65 -11.7 Q13.35 -12.1 13.2 -12.1 M22.95 -6.6 L23.35 -6.1 Q24.05 -5.15 24.6 -4.85 L24.35 -4.8 Q23.6 -4.8 23.2 -5.25 22.9 -5.5 22.9 -5.8 L22.95 -6.2 22.95 -6.6 M23.25 -8.5 L23.8 -8.8 24.35 -9.15 Q24.4 -9.0 24.5 -8.85 24.85 -8.5 25.5 -8.45 L25.45 -8.35 Q24.8 -7.95 24.75 -7.95 24.35 -7.95 23.95 -8.25 23.5 -8.5 23.25 -8.5" fill="#b4ac83" fill-rule="evenodd" stroke="none"/>
    <path d="M19.75 -13.65 Q20.75 -13.1 21.25 -12.1 21.85 -11.05 21.85 -9.45 21.85 -9.1 21.75 -8.65 L21.65 -8.15 21.6 -7.95 21.6 -7.8 21.5 -7.9 21.45 -7.85 21.35 -7.95 Q20.7 -7.95 19.8 -8.1 L19.75 -8.15 19.65 -8.15 18.55 -8.4 17.75 -8.5 17.6 -8.55 17.5 -8.55 16.9 -8.65 16.65 -8.7 16.65 -8.75 16.55 -8.75 Q16.2 -8.9 15.75 -9.1 L15.7 -9.15 15.25 -9.4 Q14.9 -9.65 14.45 -10.15 L14.45 -10.2 14.4 -10.15 13.9 -10.75 13.6 -11.15 13.2 -11.7 13.05 -11.9 13.2 -12.1 Q13.35 -12.1 13.65 -11.7 L14.65 -10.4 Q15.35 -10.1 16.1 -10.1 L16.3 -10.1 Q16.4 -9.95 16.65 -9.95 18.35 -9.95 19.25 -11.3 19.85 -12.15 19.85 -12.85 19.85 -13.4 19.75 -13.65 M23.05 -8.45 L23.2 -8.5 Q22.95 -8.5 22.85 -8.65 L22.85 -8.7 23.25 -9.15 Q23.65 -9.5 24.0 -9.65 L24.45 -9.7 24.75 -9.65 Q25.0 -9.6 25.35 -9.45 L25.6 -9.35 25.6 -9.3 Q26.05 -9.1 26.5 -9.1 L26.7 -9.15 26.75 -9.1 26.5 -8.45 Q26.0 -7.45 24.8 -7.45 24.5 -7.45 24.15 -7.6 24.0 -7.7 23.8 -7.85 23.4 -8.25 23.05 -8.45 M21.7 -7.8 L21.8 -7.9 21.85 -8.0 21.85 -8.05 21.95 -8.35 21.9 -8.4 21.95 -8.45 22.2 -8.5 22.35 -8.5 Q22.45 -8.45 22.5 -8.4 L22.55 -7.95 Q22.55 -7.6 22.45 -7.4 L22.2 -7.2 22.15 -7.2 21.7 -7.7 21.7 -7.8 M22.95 -6.6 L22.95 -7.2 22.7 -7.45 22.7 -7.55 Q22.75 -7.7 22.75 -7.9 L22.75 -8.05 Q23.05 -7.9 23.25 -7.75 L23.75 -7.15 24.0 -6.55 Q24.45 -5.85 24.55 -5.7 24.85 -5.35 25.1 -5.2 L25.3 -5.05 25.25 -5.0 Q25.05 -4.85 24.6 -4.85 24.05 -5.15 23.35 -6.1 L22.95 -6.6 M23.25 -8.5 Q23.5 -8.5 23.95 -8.25 24.35 -7.95 24.75 -7.95 24.8 -7.95 25.45 -8.35 L25.5 -8.45 Q24.85 -8.5 24.5 -8.85 24.4 -9.0 24.35 -9.15 L23.8 -8.8 23.25 -8.5" fill="#9a967e" fill-rule="evenodd" stroke="none"/>
  </g>
</svg>
