<?xml version="1.0" encoding="UTF-8" standalone="no"?>
<svg xmlns:ffdec="https://www.free-decompiler.com/flash" xmlns:xlink="http://www.w3.org/1999/xlink" ffdec:objectType="shape" height="28.35px" width="17.45px" xmlns="http://www.w3.org/2000/svg">
  <g transform="matrix(1.0, 0.0, 0.0, 1.0, -9.4, 31.0)">
    <path d="M21.45 -21.85 L10.7 -5.45 10.95 -3.95 Q11.0 -5.25 11.5 -6.4 L12.6 -7.55 11.35 -4.5 Q11.25 -3.5 11.05 -3.05 10.85 -3.35 10.5 -5.05 L10.9 -11.2 21.45 -21.85" fill="#101010" fill-rule="evenodd" stroke="none"/>
    <path d="M10.7 -14.7 L11.35 -11.95 10.7 -14.7 M10.3 -17.95 L10.25 -17.6 10.3 -17.95 M19.8 -17.1 L20.25 -16.35 19.8 -17.1" fill="#999999" fill-rule="evenodd" stroke="none"/>
    <path d="M10.9 -9.6 L12.4 -23.2 12.65 -23.5 12.9 -23.75 Q13.35 -24.25 14.05 -24.55 L17.0 -25.35 17.55 -25.4 19.05 -25.5 Q21.85 -25.45 23.3 -24.05 L24.35 -22.3 24.8 -19.15 25.05 -17.3 Q25.2 -16.0 25.2 -15.4 25.2 -14.1 25.0 -13.35 24.9 -12.85 24.7 -12.35 L10.35 -16.85 10.7 -14.7 11.35 -11.95 10.95 -9.65 10.9 -9.6 M20.25 -16.35 L10.3 -17.95 10.25 -17.6 19.45 -17.2 19.8 -17.1 20.25 -16.35 M12.9 -8.7 L17.5 -2.9 17.45 -2.75 17.45 -2.7 Q17.4 -2.65 17.3 -2.65 17.15 -2.65 16.55 -3.85 L13.8 -7.8 12.9 -8.7" fill="#101010" fill-rule="evenodd" stroke="none"/>
    <path d="M10.95 -9.65 L10.9 -9.6 10.95 -9.65 M10.3 -17.95 L20.25 -16.35 19.8 -17.1 19.45 -17.2 10.25 -17.6 10.3 -17.95" fill="#bdc2ce" fill-rule="evenodd" stroke="none"/>
    <path d="M16.45 -29.25 L13.4 -23.8 Q13.4 -26.05 13.85 -27.6 14.5 -29.7 16.05 -30.95 16.35 -31.15 16.45 -30.4 L16.45 -29.25 M21.05 -22.15 L26.25 -24.75 Q26.5 -25.9 26.55 -26.4 24.95 -25.0 23.55 -24.05 L21.05 -22.15 M21.25 -23.15 L23.25 -24.35 24.7 -25.45 Q25.2 -25.8 26.15 -26.75 26.85 -27.3 26.85 -26.2 26.85 -25.1 26.45 -23.65 L21.25 -23.15 M12.55 -23.45 L12.55 -23.2 9.7 -26.1 Q9.85 -26.3 10.35 -25.65 11.15 -24.45 11.35 -24.2 12.0 -23.5 12.55 -23.45" fill="#101010" fill-rule="evenodd" stroke="none"/>
    <path d="M21.05 -22.15 L23.55 -24.05 Q24.95 -25.0 26.55 -26.4 26.5 -25.9 26.25 -24.75 L21.05 -22.15" fill="#bdc2ce" fill-rule="evenodd" stroke="none"/>
    <path d="M16.1 -30.95 L16.1 -30.85 16.2 -30.5 Q16.5 -29.4 16.85 -27.6 L17.15 -26.05 17.2 -26.05 17.2 -26.0 17.25 -25.6 Q17.3 -25.55 17.4 -25.5 L17.4 -25.4 17.55 -25.4 19.05 -25.5 Q21.55 -25.45 23.0 -24.3 L23.9 -24.85 24.7 -25.45 25.5 -26.1 Q25.9 -26.55 26.3 -27.0 L26.45 -26.6 26.6 -26.0 26.55 -25.65 26.6 -24.5 Q26.6 -23.35 25.95 -21.75 L25.8 -21.25 Q25.35 -20.1 24.75 -19.3 L24.75 -19.25 Q24.75 -18.5 24.8 -17.8 24.9 -17.1 24.9 -15.9 24.9 -14.25 24.8 -12.7 L24.85 -12.3 24.8 -12.1 24.75 -11.95 24.75 -11.85 Q24.45 -11.25 23.9 -10.7 L23.8 -10.65 Q23.05 -9.85 21.65 -8.75 L18.6 -6.55 18.6 -6.25 Q18.6 -5.3 18.4 -4.6 18.2 -3.95 17.65 -3.05 L17.6 -2.9 17.35 -2.65 17.3 -2.65 Q17.15 -2.65 16.65 -3.65 L16.0 -4.65 15.55 -4.45 Q14.8 -4.2 13.95 -4.2 13.25 -4.2 12.75 -5.35 L12.45 -6.1 12.5 -6.45 12.5 -6.55 12.45 -6.7 12.4 -6.8 Q12.05 -6.2 11.95 -5.95 L11.6 -4.85 Q11.4 -4.3 11.25 -3.95 L11.2 -3.6 11.1 -3.75 11.05 -3.8 Q11.0 -3.85 11.0 -3.95 L10.9 -4.1 Q10.3 -5.25 10.15 -5.65 10.05 -6.3 10.0 -7.0 10.0 -8.2 10.4 -9.2 L10.45 -9.2 10.45 -9.5 Q10.45 -9.8 9.8 -11.4 L9.75 -11.45 9.85 -15.1 Q9.85 -16.5 9.7 -17.65 9.8 -18.35 10.3 -19.65 9.95 -20.0 9.7 -21.25 9.5 -22.05 9.4 -22.9 L9.4 -25.6 9.5 -26.2 10.05 -25.95 10.35 -25.65 10.4 -25.5 10.75 -25.1 10.9 -24.95 Q11.85 -24.0 12.55 -23.45 L12.55 -23.4 12.9 -23.75 13.4 -24.15 Q13.45 -26.2 13.85 -27.6 14.5 -29.7 16.05 -30.95 L16.1 -30.95 M16.0 -30.4 L15.95 -30.35 Q14.7 -28.55 14.2 -27.0 13.85 -25.85 13.75 -24.4 L13.75 -23.8 Q13.75 -23.35 13.75 -23.05 L13.8 -22.95 13.85 -22.7 Q13.9 -22.5 14.0 -22.35 L14.1 -22.2 14.3 -22.0 Q14.2 -22.25 14.2 -22.7 L14.25 -23.25 14.35 -24.0 14.4 -24.0 14.4 -23.5 14.35 -23.05 Q14.35 -22.4 14.55 -21.85 L14.55 -21.8 14.6 -21.8 Q15.7 -21.65 16.5 -22.55 17.2 -23.2 17.2 -23.6 17.2 -23.9 17.1 -24.5 L16.5 -27.15 Q16.1 -28.95 16.05 -30.15 L16.0 -30.4 M20.9 -24.85 Q20.05 -25.05 19.05 -25.05 L17.6 -25.0 Q17.8 -24.65 18.0 -24.0 L18.15 -23.7 18.25 -23.35 Q18.45 -22.75 18.45 -22.55 L18.4 -22.4 18.35 -22.45 18.3 -22.05 18.05 -21.35 Q17.75 -20.7 17.2 -19.75 L17.2 -19.7 17.15 -19.6 17.05 -19.45 17.05 -19.4 16.85 -19.1 16.05 -17.8 15.6 -17.1 14.8 -15.65 14.7 -15.45 14.25 -14.35 13.7 -13.25 13.7 -13.2 13.65 -13.05 Q13.4 -12.35 13.2 -11.75 L13.15 -11.85 Q13.2 -12.3 13.35 -12.9 13.5 -13.3 13.7 -13.75 14.05 -15.35 15.5 -17.85 L16.65 -19.7 16.9 -20.15 Q17.7 -21.45 18.1 -22.2 L18.1 -22.15 18.15 -22.25 18.15 -22.3 18.2 -22.5 18.2 -22.6 Q18.0 -22.95 17.65 -23.75 L17.55 -24.0 17.55 -23.7 Q17.5 -23.55 17.45 -23.3 L17.15 -22.75 17.1 -22.75 17.0 -22.55 Q16.25 -21.5 14.85 -21.5 L14.55 -21.5 14.35 -20.65 14.0 -19.05 13.5 -16.9 13.2 -15.7 Q13.2 -16.6 13.35 -17.65 13.45 -18.2 13.6 -18.85 13.85 -19.75 14.1 -20.6 L14.4 -21.55 14.35 -21.55 Q14.1 -21.65 13.9 -21.8 L13.65 -21.35 13.65 -21.3 13.25 -20.0 12.95 -19.05 12.95 -19.0 Q12.7 -17.85 12.7 -16.45 12.7 -14.9 12.9 -13.15 L12.95 -12.85 12.95 -12.75 13.0 -12.6 13.05 -12.15 13.05 -12.05 13.1 -11.7 13.1 -11.65 13.05 -11.95 12.7 -13.25 12.55 -13.85 12.5 -13.9 Q12.4 -15.05 12.4 -16.0 L12.4 -16.4 Q12.4 -17.55 12.55 -18.5 L12.55 -18.65 12.7 -19.25 Q12.8 -19.75 12.95 -20.2 L12.95 -20.3 Q13.15 -20.95 13.25 -21.65 13.35 -22.5 13.35 -23.4 L13.35 -23.6 12.95 -23.2 12.6 -22.7 Q12.25 -22.3 11.95 -21.7 L11.5 -20.75 11.2 -20.1 10.95 -19.5 10.95 -19.35 10.9 -19.3 10.45 -18.2 10.3 -17.95 10.2 -17.65 10.25 -17.6 10.3 -17.55 10.45 -17.45 10.5 -17.35 10.55 -17.35 10.75 -17.1 10.75 -17.05 10.85 -16.95 Q11.75 -16.05 12.2 -14.55 12.4 -14.0 12.65 -12.7 L12.85 -11.9 12.9 -11.75 12.95 -11.55 13.0 -11.5 13.15 -11.15 13.55 -11.85 13.65 -12.05 13.8 -12.3 14.0 -12.7 Q14.7 -13.8 15.0 -14.25 15.3 -14.7 15.7 -15.05 16.45 -15.8 17.6 -16.4 L18.15 -16.65 19.3 -17.1 19.45 -17.2 19.6 -17.2 Q19.6 -17.3 19.75 -17.25 L19.8 -17.25 Q20.1 -17.5 20.35 -17.8 20.75 -18.35 20.8 -18.9 20.6 -19.3 20.55 -19.65 L20.55 -19.7 20.5 -19.85 Q20.4 -20.4 20.4 -21.05 20.4 -21.85 20.65 -22.45 20.75 -22.75 21.0 -23.55 21.35 -24.5 21.5 -24.65 L20.9 -24.85 M17.55 -24.0 L17.55 -24.0 M21.7 -24.6 Q21.65 -24.3 21.35 -23.65 L21.2 -23.2 21.2 -23.15 Q21.6 -23.55 22.35 -23.95 L22.65 -24.1 Q22.2 -24.4 21.7 -24.6 M24.15 -24.5 L23.55 -24.05 23.4 -24.0 23.05 -23.8 21.8 -23.0 21.5 -22.75 Q21.15 -22.45 21.05 -22.15 20.85 -21.65 20.85 -20.35 L20.85 -19.95 Q20.95 -19.45 21.15 -18.9 L21.15 -18.85 21.3 -18.65 21.35 -18.65 21.45 -18.6 21.45 -18.55 Q21.65 -18.45 21.85 -18.4 L22.1 -18.4 22.6 -18.5 22.75 -18.55 23.1 -18.8 Q23.55 -19.2 24.05 -19.7 L24.35 -20.0 24.6 -20.45 24.9 -20.95 25.4 -22.05 Q25.7 -22.85 25.95 -23.75 L26.25 -25.25 26.25 -25.55 26.2 -26.1 25.5 -25.5 24.15 -24.5 M11.95 -22.85 Q12.1 -23.05 12.25 -23.2 12.2 -23.2 12.1 -23.25 11.85 -23.35 11.6 -23.55 L11.55 -23.6 Q11.25 -23.8 10.95 -24.15 L10.9 -24.2 10.5 -24.7 10.3 -24.9 9.95 -25.35 9.9 -25.25 9.9 -24.4 Q9.9 -23.4 10.05 -22.35 L10.1 -21.9 Q10.3 -21.0 10.6 -20.4 11.0 -21.4 11.3 -21.95 11.5 -22.3 11.65 -22.45 L11.95 -22.85 M12.0 -14.25 L11.9 -14.55 Q11.8 -14.5 11.65 -14.5 11.25 -14.5 11.05 -14.9 10.95 -15.1 10.95 -15.35 10.95 -15.6 11.1 -15.75 L10.95 -15.9 10.8 -15.6 Q10.85 -15.1 10.95 -14.9 11.2 -14.35 12.0 -14.15 L12.0 -14.25 M15.85 -14.3 L16.1 -14.1 16.3 -13.95 16.55 -13.85 16.6 -13.8 16.75 -13.75 Q17.85 -13.75 18.45 -14.15 18.8 -14.65 18.95 -15.15 19.05 -15.45 19.1 -15.75 L19.05 -15.8 18.8 -15.85 18.65 -15.85 17.65 -15.75 Q17.65 -15.7 17.7 -15.7 17.95 -15.5 17.95 -15.25 17.95 -15.05 17.85 -14.9 17.8 -14.7 17.7 -14.5 17.45 -14.05 16.9 -14.05 L16.8 -14.05 Q16.35 -14.1 16.2 -14.45 L16.15 -14.6 15.85 -14.3 M15.85 -14.2 L15.85 -14.25 Q14.9 -13.25 14.1 -12.0 L13.85 -11.65 Q13.55 -11.1 13.3 -10.7 L13.25 -10.65 13.2 -10.5 13.2 -10.55 13.15 -10.55 Q13.0 -10.65 12.85 -10.85 12.7 -11.05 12.7 -11.1 L12.75 -11.25 Q12.6 -11.7 12.45 -12.45 L12.35 -12.15 12.1 -11.7 Q12.1 -11.6 12.5 -10.85 L13.05 -9.75 13.05 -9.7 Q13.2 -9.9 14.0 -10.45 L14.3 -10.65 15.6 -11.5 Q15.45 -11.65 15.15 -12.0 L14.85 -12.45 14.7 -12.7 14.9 -12.7 Q15.15 -12.7 15.35 -12.35 L15.85 -11.6 15.9 -11.6 15.95 -11.45 15.75 -11.3 16.0 -11.15 Q16.65 -10.95 17.45 -9.35 L17.5 -9.3 17.55 -9.2 Q17.95 -8.45 18.15 -7.75 L18.25 -7.4 18.3 -7.35 18.3 -7.4 Q18.55 -7.75 19.0 -8.25 L18.85 -8.7 18.7 -9.3 Q18.5 -10.0 18.5 -10.35 18.5 -10.6 18.7 -11.05 18.4 -10.65 18.2 -10.1 L18.15 -10.15 Q18.15 -10.2 18.15 -10.3 18.15 -11.0 18.8 -11.6 L18.85 -11.6 19.2 -11.9 19.45 -12.3 19.75 -12.7 20.15 -13.35 Q20.3 -13.85 20.3 -14.2 L20.3 -14.5 20.2 -14.75 20.15 -14.9 19.55 -15.4 19.4 -15.6 Q19.3 -14.35 18.35 -13.8 L18.35 -13.85 Q18.0 -13.55 17.55 -13.55 L17.0 -13.55 17.65 -13.25 17.6 -13.15 17.4 -13.1 Q16.95 -13.1 16.45 -13.45 16.0 -13.8 15.95 -14.15 L15.85 -14.2 M20.9 -18.25 L20.75 -18.0 20.4 -17.55 19.9 -17.1 19.9 -17.05 20.15 -16.65 20.2 -16.55 Q20.65 -15.65 20.75 -14.8 20.85 -14.4 20.85 -14.05 20.85 -13.65 20.5 -13.0 L20.25 -12.6 19.9 -12.1 19.85 -12.05 Q19.25 -11.25 19.0 -10.75 L18.9 -10.4 18.9 -10.35 Q18.9 -10.15 19.0 -9.65 L19.05 -9.55 19.3 -8.75 19.35 -8.6 19.5 -8.05 19.55 -8.0 20.0 -8.3 20.3 -8.7 21.0 -9.6 Q21.3 -10.05 21.5 -10.5 L21.65 -10.8 21.9 -11.4 Q22.2 -12.35 22.2 -13.4 22.2 -13.8 22.05 -14.45 21.85 -15.55 21.35 -17.4 L21.25 -17.7 21.0 -18.5 20.9 -18.25 M21.8 -17.9 L21.75 -17.9 21.7 -17.95 Q21.5 -17.95 21.35 -18.1 L21.5 -17.55 Q22.35 -14.65 22.35 -13.45 L22.35 -12.85 Q22.25 -11.5 21.75 -10.55 L21.6 -10.3 Q21.15 -9.55 20.2 -8.5 L20.7 -8.85 21.8 -9.7 22.0 -9.9 23.25 -11.05 23.55 -11.35 23.7 -11.6 Q24.15 -12.15 24.4 -12.95 24.35 -13.45 24.3 -13.95 L24.3 -15.25 Q23.8 -16.05 23.05 -17.0 L22.6 -17.55 22.3 -17.9 21.8 -17.9 M23.15 -18.1 L22.5 -17.95 22.6 -17.85 22.8 -17.55 23.0 -17.35 24.15 -15.9 24.3 -15.7 24.3 -18.1 24.35 -18.85 Q23.8 -18.35 23.15 -18.1 M10.35 -16.85 L10.3 -16.95 10.3 -16.9 10.35 -16.85 M11.35 -11.05 L11.3 -11.2 Q11.1 -11.65 10.9 -12.35 L10.85 -12.5 10.8 -12.8 10.65 -13.4 10.55 -13.75 10.5 -13.95 Q10.45 -15.25 10.3 -16.55 L10.2 -16.55 Q10.15 -15.95 10.15 -15.45 10.2 -14.6 10.25 -13.95 L10.2 -13.6 10.25 -13.1 10.2 -12.7 10.15 -12.45 Q10.15 -11.9 10.5 -11.0 L10.55 -10.75 10.8 -10.0 11.05 -10.4 11.2 -10.65 11.3 -10.75 11.35 -10.85 11.4 -10.9 11.35 -11.05 M10.7 -14.8 L10.65 -14.95 10.7 -14.75 10.7 -14.7 10.9 -13.7 Q11.1 -12.75 11.35 -11.95 L11.4 -11.7 11.6 -11.1 11.6 -11.0 11.95 -11.35 11.8 -11.7 Q11.8 -11.9 11.95 -12.15 L11.95 -12.2 12.0 -12.25 Q12.15 -12.7 12.35 -12.85 L12.3 -13.1 12.05 -13.95 Q12.05 -13.85 11.95 -13.7 11.75 -13.5 11.5 -13.5 11.6 -13.7 11.75 -13.9 L11.8 -13.95 11.5 -13.95 Q11.1 -14.1 10.85 -14.55 L10.75 -14.75 10.7 -14.8 M12.15 -13.0 L12.1 -13.0 Q11.95 -12.85 11.7 -12.85 11.3 -12.85 11.2 -12.95 L11.15 -13.0 11.25 -13.0 11.35 -13.0 11.85 -13.1 12.25 -13.1 12.15 -13.0 M15.15 -10.85 L13.2 -9.4 12.95 -9.5 12.1 -11.05 11.95 -10.7 11.65 -10.3 11.7 -10.3 11.6 -10.2 11.35 -9.85 Q11.15 -9.5 11.05 -9.2 L10.95 -9.05 Q10.65 -8.35 10.65 -8.05 L10.65 -8.0 Q10.55 -7.55 10.55 -7.05 10.55 -6.6 10.65 -5.75 L10.7 -5.45 10.8 -5.15 11.0 -4.5 Q11.15 -5.5 11.5 -6.4 L11.5 -6.45 11.55 -6.5 11.55 -6.55 12.55 -8.15 12.9 -8.55 12.75 -8.8 Q13.2 -8.35 13.7 -8.25 14.3 -7.85 14.9 -7.35 L15.3 -7.05 15.55 -6.7 16.25 -5.65 Q16.8 -4.7 17.25 -3.6 L17.35 -3.3 17.5 -3.75 17.85 -4.7 17.95 -5.35 17.95 -6.1 Q17.95 -7.85 16.8 -9.55 L16.0 -10.6 Q15.65 -11.1 15.65 -11.25 L15.15 -10.85 M16.75 -12.75 Q17.1 -12.65 17.5 -12.6 L17.7 -12.55 17.5 -12.5 17.25 -12.5 Q16.55 -12.55 16.05 -12.85 15.75 -13.0 15.6 -13.15 15.55 -13.25 15.5 -13.35 L15.6 -13.4 16.3 -12.95 Q16.5 -12.85 16.75 -12.75 M14.75 -6.4 L13.85 -7.55 13.2 -8.2 12.7 -7.35 13.05 -6.4 13.05 -6.15 Q13.1 -5.95 13.15 -5.8 L13.2 -5.7 Q13.45 -5.05 14.4 -5.05 15.05 -5.05 15.6 -5.25 L14.75 -6.4" fill="#101010" fill-rule="evenodd" stroke="none"/>
    <path d="M16.0 -30.4 L16.05 -30.15 Q16.1 -28.95 16.5 -27.15 L17.1 -24.5 Q17.2 -23.9 17.2 -23.6 17.2 -23.2 16.5 -22.55 15.7 -21.65 14.6 -21.8 L14.55 -21.8 14.55 -21.85 Q14.35 -22.4 14.35 -23.05 L14.4 -23.5 14.4 -24.0 14.35 -24.0 14.25 -23.25 14.2 -22.7 Q14.2 -22.25 14.3 -22.0 L14.1 -22.2 14.0 -22.35 Q13.9 -22.5 13.85 -22.7 L13.8 -22.95 13.75 -23.05 Q13.75 -23.35 13.75 -23.8 L13.75 -24.4 Q13.85 -25.85 14.2 -27.0 14.7 -28.55 15.95 -30.35 L16.0 -30.4 M15.45 -29.0 Q15.45 -29.35 15.3 -29.2 15.1 -29.05 14.9 -28.55 14.3 -27.35 14.3 -26.25 14.25 -26.05 14.3 -25.9 14.35 -25.55 14.55 -25.55 15.45 -28.8 15.45 -29.0 M18.3 -22.05 L18.35 -22.45 18.4 -22.4 18.45 -22.55 Q18.45 -22.75 18.25 -23.35 L18.15 -23.7 18.0 -24.0 Q17.8 -24.65 17.6 -25.0 L19.05 -25.05 Q20.05 -25.05 20.9 -24.85 20.6 -24.5 20.35 -24.05 20.05 -23.6 20.0 -23.4 19.95 -23.05 19.8 -22.25 19.7 -21.35 19.7 -20.95 19.65 -20.65 19.7 -20.35 19.75 -20.1 19.85 -20.0 L19.7 -19.65 Q19.3 -19.15 18.3 -18.3 17.7 -17.75 16.95 -17.25 17.2 -16.65 17.2 -16.55 L17.2 -16.4 17.15 -16.35 Q17.0 -16.55 16.8 -17.1 L16.55 -16.95 Q15.45 -16.15 14.25 -14.35 L14.7 -15.45 14.8 -15.65 15.6 -17.1 16.05 -17.8 16.85 -19.1 16.8 -19.05 Q16.8 -18.95 16.85 -18.85 17.0 -18.65 17.3 -18.65 17.7 -18.65 18.2 -19.6 L18.2 -19.75 18.2 -19.5 Q18.2 -19.45 18.45 -19.25 18.6 -19.3 18.8 -19.65 19.0 -19.9 19.0 -20.0 19.0 -20.6 18.6 -20.3 L18.45 -20.2 Q18.75 -20.85 19.1 -21.7 19.1 -22.45 18.8 -22.55 18.55 -22.6 18.3 -22.05 M10.5 -17.35 L10.45 -17.45 10.45 -17.45 10.5 -17.35 M10.3 -17.95 L10.45 -18.2 10.9 -19.3 10.95 -19.35 10.95 -19.5 11.2 -20.1 11.5 -20.75 11.95 -21.7 Q12.25 -22.3 12.6 -22.7 L12.95 -23.2 13.35 -23.6 13.35 -23.4 Q13.35 -22.5 13.25 -21.65 L13.15 -21.45 Q12.15 -19.65 11.6 -17.25 L11.25 -17.75 Q10.95 -18.1 10.65 -18.1 10.45 -18.1 10.35 -18.0 L10.35 -17.95 10.3 -17.9 10.3 -17.95 M13.05 -12.05 L13.05 -12.15 13.0 -12.6 Q13.05 -12.45 13.15 -12.4 L13.25 -12.55 13.05 -12.05 M12.95 -12.85 L12.9 -13.15 Q12.7 -14.9 12.7 -16.45 12.7 -17.85 12.95 -19.0 13.0 -18.75 13.2 -18.75 13.3 -18.75 13.4 -18.85 13.45 -18.95 13.45 -19.05 L13.4 -19.55 Q13.4 -19.85 13.45 -20.0 13.6 -20.35 14.1 -20.55 L14.1 -20.6 Q13.85 -19.75 13.6 -18.85 13.45 -18.2 13.35 -17.65 13.2 -16.6 13.2 -15.7 L13.5 -16.9 14.0 -19.05 14.35 -20.65 15.05 -20.8 Q15.85 -20.95 16.7 -21.55 L17.1 -21.8 Q16.95 -21.35 16.55 -20.65 15.8 -19.6 15.55 -19.1 14.75 -17.65 14.05 -16.15 12.95 -13.75 12.95 -12.9 L12.95 -12.85 M13.65 -21.35 L13.9 -21.8 Q14.1 -21.65 14.35 -21.55 13.95 -21.5 13.65 -21.35 M17.55 -24.0 L17.55 -24.0 M18.2 -22.6 L18.2 -22.5 18.15 -22.3 18.15 -22.25 18.1 -22.15 18.1 -22.2 Q17.7 -21.45 16.9 -20.15 L16.65 -19.7 Q17.4 -21.2 17.65 -21.6 18.0 -22.25 18.15 -22.3 L18.2 -22.6 M18.05 -21.35 L18.0 -21.25 Q17.9 -20.85 17.35 -19.95 L17.2 -19.75 Q17.75 -20.7 18.05 -21.35 M21.5 -22.75 Q21.0 -22.1 21.0 -21.4 21.05 -21.05 21.15 -20.75 21.35 -20.1 21.7 -20.1 22.15 -20.1 22.15 -20.95 22.2 -22.05 22.25 -22.25 L22.4 -22.4 22.35 -22.3 Q22.35 -22.05 22.55 -22.05 22.7 -22.05 22.8 -22.2 22.95 -22.35 22.95 -22.5 L22.9 -22.65 22.9 -22.7 Q22.7 -22.7 22.55 -22.6 L23.25 -23.3 Q24.15 -24.2 24.15 -24.45 L24.15 -24.5 25.5 -25.5 25.1 -24.55 24.7 -23.45 Q24.35 -22.45 23.05 -20.8 21.9 -19.25 21.9 -19.2 L22.1 -18.85 Q22.3 -18.55 22.6 -18.5 L22.1 -18.4 21.85 -18.4 Q21.65 -18.45 21.45 -18.55 L21.45 -18.6 21.35 -18.65 21.3 -18.65 21.15 -18.85 21.15 -18.9 Q20.95 -19.45 20.85 -19.95 L20.85 -20.35 Q20.85 -21.65 21.05 -22.15 21.15 -22.45 21.5 -22.75 M24.9 -20.95 L24.6 -20.45 24.35 -20.0 24.05 -19.7 Q23.55 -19.2 23.1 -18.8 L23.0 -18.9 Q22.95 -18.95 22.95 -19.05 L23.9 -20.1 Q24.45 -20.65 24.9 -20.95 M16.4 -25.8 L16.6 -24.3 16.75 -23.25 Q16.8 -23.4 16.85 -23.6 16.95 -23.95 16.85 -24.45 16.85 -25.6 16.4 -27.65 15.9 -30.05 15.45 -28.55 15.2 -27.55 15.2 -25.45 L15.3 -23.4 Q15.3 -23.25 15.35 -23.15 15.45 -22.9 15.85 -22.9 L16.25 -22.95 16.2 -23.25 Q16.2 -23.65 16.2 -24.05 L16.25 -25.8 16.4 -25.8 M14.4 -25.05 L14.3 -25.05 Q14.15 -24.95 14.1 -24.85 14.05 -24.8 14.05 -24.65 14.05 -24.5 14.1 -24.3 14.15 -24.05 14.2 -23.9 L14.35 -24.4 14.45 -24.95 Q14.45 -25.05 14.4 -25.05 M11.55 -23.6 L11.6 -23.55 Q11.85 -23.35 12.1 -23.25 12.2 -23.2 12.25 -23.2 12.1 -23.05 11.95 -22.85 L11.75 -23.2 11.55 -23.6 M11.3 -21.95 Q11.0 -21.4 10.6 -20.4 10.3 -21.0 10.1 -21.9 L10.05 -22.35 Q10.25 -21.6 10.55 -21.6 10.7 -21.6 10.7 -21.65 L10.7 -21.75 Q10.4 -22.4 10.2 -23.55 10.05 -24.8 9.9 -25.25 L9.95 -25.35 10.3 -24.9 Q10.15 -24.85 10.15 -24.35 10.3 -23.75 10.55 -23.15 10.9 -22.1 11.3 -21.95 M15.0 -20.5 L14.85 -20.65 Q14.8 -20.6 14.6 -20.05 14.35 -19.5 14.35 -19.35 14.35 -19.25 14.4 -19.2 L14.5 -19.2 14.8 -19.75 Q15.0 -20.2 15.0 -20.3 L15.0 -20.5 M13.35 -17.7 Q13.35 -18.05 13.15 -18.1 12.95 -18.1 12.95 -17.7 L12.95 -17.5 Q12.95 -17.35 13.15 -17.35 L13.3 -17.4 13.3 -17.45 13.35 -17.7 M11.65 -19.6 Q12.25 -20.75 12.25 -20.95 12.25 -21.15 12.1 -21.35 11.9 -21.25 11.4 -20.25 10.85 -19.2 10.85 -18.85 L10.85 -18.65 Q10.9 -18.5 11.05 -18.5 11.1 -18.5 11.65 -19.6 M12.95 -15.75 L12.85 -15.7 12.85 -15.55 Q12.95 -14.8 13.05 -14.75 13.1 -14.75 13.1 -14.8 L13.05 -15.3 Q13.0 -15.55 12.95 -15.75 M20.9 -18.25 L20.95 -18.25 21.25 -17.7 21.35 -17.4 Q21.85 -15.55 22.05 -14.45 22.05 -12.55 21.9 -11.8 21.85 -11.3 21.65 -10.8 L21.5 -10.5 Q21.3 -10.05 21.0 -9.6 L20.3 -8.7 Q20.6 -9.4 21.0 -10.4 21.55 -11.95 21.55 -12.5 L21.5 -15.2 Q21.5 -15.65 21.1 -16.75 L20.7 -17.85 20.75 -18.0 20.9 -18.25 M23.55 -11.35 Q23.25 -11.4 23.2 -11.6 23.15 -11.75 23.15 -11.95 23.15 -12.35 23.4 -13.15 23.6 -13.95 23.6 -14.5 23.6 -15.15 23.7 -15.4 23.35 -15.7 22.8 -16.4 21.8 -17.65 21.8 -17.75 L21.8 -17.9 22.3 -17.9 22.6 -17.55 23.05 -17.0 Q23.8 -16.05 24.3 -15.25 L24.3 -13.95 Q24.35 -13.45 24.4 -12.95 24.15 -12.15 23.7 -11.6 L23.55 -11.35 M24.15 -15.9 L24.1 -16.45 Q23.85 -16.65 23.45 -17.45 L23.15 -18.1 Q23.8 -18.35 24.35 -18.85 L24.3 -18.1 24.3 -15.7 24.15 -15.9 M18.05 -18.5 L18.0 -18.65 Q17.7 -18.7 17.7 -18.45 17.7 -18.4 17.85 -18.25 17.95 -18.25 18.0 -18.3 L18.05 -18.5 M19.0 -9.65 L19.5 -10.15 20.05 -10.6 20.4 -11.15 Q20.65 -11.5 20.8 -11.55 20.7 -11.05 20.15 -10.5 19.75 -10.0 19.05 -9.55 L19.0 -9.65 M17.7 -16.85 L17.7 -16.8 Q17.5 -16.8 17.5 -17.0 L17.5 -17.15 17.6 -17.2 Q17.7 -16.95 17.7 -16.85 M10.7 -21.25 L10.55 -21.35 10.45 -21.35 Q10.4 -21.3 10.4 -21.2 10.4 -21.05 10.45 -21.0 L10.55 -21.0 Q10.65 -21.0 10.7 -21.1 L10.7 -21.25 M10.75 -18.1 L10.8 -18.1 Q10.85 -17.85 11.05 -17.35 L11.35 -16.6 11.3 -16.55 Q11.05 -16.9 10.9 -17.3 10.7 -17.75 10.7 -18.1 L10.75 -18.1 M11.35 -11.05 L11.4 -10.9 11.35 -10.85 11.35 -11.05 M11.05 -10.4 L10.8 -10.0 10.55 -10.75 10.5 -11.0 Q10.15 -11.9 10.15 -12.45 L10.2 -12.7 10.3 -12.3 Q10.7 -10.45 11.05 -10.4 M19.85 -11.05 Q19.95 -11.0 20.05 -10.9 L20.0 -10.8 19.85 -10.7 Q19.75 -10.7 19.7 -10.75 L19.7 -10.85 Q19.7 -11.0 19.75 -11.0 L19.85 -11.05" fill="#bdc2ce" fill-rule="evenodd" stroke="none"/>
    <path d="M10.25 -17.6 L10.2 -17.65 10.3 -17.95 10.3 -17.9 10.3 -17.8 10.25 -17.6 M19.9 -17.1 L19.95 -17.05 20.15 -16.65 19.9 -17.05 19.9 -17.1 M10.35 -16.85 L10.3 -16.9 10.3 -16.95 10.35 -16.85 M11.35 -11.95 Q11.1 -12.75 10.9 -13.7 L10.7 -14.7 10.9 -14.05 11.1 -13.2 Q11.25 -12.55 11.35 -11.95" fill="#999999" fill-rule="evenodd" stroke="none"/>
    <path d="M14.1 -12.0 Q13.95 -11.05 13.95 -10.75 13.9 -10.65 13.95 -10.5 L14.0 -10.45 Q13.2 -9.9 13.05 -9.7 L13.05 -9.75 12.5 -10.85 Q12.1 -11.6 12.1 -11.7 L12.35 -12.15 12.45 -12.45 Q12.6 -11.7 12.75 -11.25 L12.7 -11.1 Q12.7 -11.05 12.85 -10.85 13.0 -10.65 13.15 -10.55 L13.2 -10.55 13.2 -10.5 13.25 -10.65 13.3 -10.7 Q13.55 -11.1 13.85 -11.65 L14.1 -12.0 M15.9 -11.6 L15.95 -11.55 15.65 -12.05 15.75 -11.95 16.15 -11.7 Q17.05 -11.25 17.3 -10.85 17.35 -10.8 17.45 -10.2 17.45 -9.75 17.5 -9.3 L17.45 -9.35 Q16.65 -10.95 16.0 -11.15 L15.75 -11.3 15.95 -11.45 15.9 -11.6 M18.25 -7.4 L18.3 -7.4 18.3 -7.35 18.25 -7.4 M18.85 -11.6 L18.85 -11.8 18.9 -11.85 18.75 -11.9 19.05 -11.85 19.1 -11.85 19.2 -11.9 18.85 -11.6 M10.7 -14.75 L10.65 -14.95 10.7 -14.8 10.7 -14.75 M12.3 -13.1 L12.35 -12.85 Q12.15 -12.7 12.0 -12.25 L11.95 -12.2 11.95 -12.15 Q11.8 -11.9 11.8 -11.7 L11.95 -11.35 11.6 -11.0 11.6 -11.1 11.4 -11.7 11.35 -11.95 Q11.25 -12.55 11.1 -13.2 L11.1 -13.1 Q11.2 -13.05 11.25 -13.0 L11.15 -13.0 11.2 -12.95 Q11.3 -12.85 11.7 -12.85 11.95 -12.85 12.1 -13.0 L12.15 -13.0 12.3 -13.1 M16.3 -12.95 L16.55 -12.85 16.75 -12.75 Q16.5 -12.85 16.3 -12.95 M13.05 -6.15 L13.05 -6.4 12.7 -7.35 13.2 -8.2 13.85 -7.55 14.75 -6.4 Q14.25 -6.2 14.05 -6.2 L13.1 -6.25 13.05 -6.25 13.05 -6.15" fill="#f4c49f" fill-rule="evenodd" stroke="none"/>
    <path d="M12.0 -14.25 L12.0 -14.15 Q11.2 -14.35 10.95 -14.9 10.85 -15.1 10.8 -15.6 L10.95 -15.9 11.1 -15.75 Q10.95 -15.6 10.95 -15.35 10.95 -15.1 11.05 -14.9 11.25 -14.5 11.65 -14.5 11.8 -14.5 11.9 -14.55 L12.0 -14.25 M15.85 -14.3 L16.15 -14.6 16.2 -14.45 Q16.35 -14.1 16.8 -14.05 L16.9 -14.05 Q17.45 -14.05 17.7 -14.5 17.8 -14.7 17.85 -14.9 17.95 -15.05 17.95 -15.25 17.95 -15.5 17.7 -15.7 17.65 -15.7 17.65 -15.75 L18.65 -15.85 18.8 -15.85 19.05 -15.8 19.1 -15.75 Q19.05 -15.45 18.95 -15.15 18.8 -14.65 18.45 -14.15 17.85 -13.75 16.75 -13.75 L16.6 -13.8 16.55 -13.85 16.3 -13.95 16.1 -14.1 15.85 -14.3 M15.95 -14.15 L15.9 -14.2 15.85 -14.2 15.95 -14.15" fill="#ffffff" fill-rule="evenodd" stroke="none"/>
    <path d="M10.65 -5.75 Q10.55 -6.6 10.55 -7.05 10.55 -7.55 10.65 -8.0 L10.65 -8.05 Q10.65 -8.35 10.95 -9.05 L11.05 -9.2 Q11.15 -9.5 11.35 -9.85 L11.6 -10.2 11.7 -10.3 11.65 -10.3 11.95 -10.7 12.1 -11.05 12.95 -9.5 13.2 -9.4 15.15 -10.85 15.15 -10.7 Q15.15 -10.35 15.55 -8.8 L15.9 -7.25 15.8 -7.5 Q14.9 -9.4 14.9 -8.65 14.9 -8.45 15.5 -6.85 L15.55 -6.7 15.3 -7.05 14.9 -7.35 Q14.3 -7.85 13.7 -8.25 13.2 -8.35 12.75 -8.8 L12.9 -8.55 12.55 -8.15 12.6 -8.25 12.7 -8.4 Q12.7 -9.0 12.4 -8.9 12.1 -8.85 11.7 -8.25 10.75 -6.95 10.65 -5.75" fill="#bc6547" fill-rule="evenodd" stroke="none"/>
    <path d="M18.45 -20.2 L18.6 -20.3 Q19.0 -20.6 19.0 -20.0 19.0 -19.9 18.8 -19.65 18.6 -19.3 18.45 -19.25 18.2 -19.45 18.2 -19.5 L18.2 -19.75 18.3 -20.0 18.4 -20.1 18.45 -20.2 M14.25 -14.35 Q15.45 -16.15 16.55 -16.95 L16.8 -17.1 Q17.0 -16.55 17.15 -16.35 L17.2 -16.4 17.2 -16.55 Q17.2 -16.65 16.95 -17.25 17.7 -17.75 18.3 -18.3 19.3 -19.15 19.7 -19.65 L19.85 -20.0 Q19.75 -20.1 19.7 -20.35 19.65 -20.65 19.7 -20.95 19.7 -21.35 19.8 -22.25 19.95 -23.05 20.0 -23.4 20.05 -23.6 20.35 -24.05 20.6 -24.5 20.9 -24.85 L21.5 -24.65 Q21.35 -24.5 21.0 -23.55 20.75 -22.75 20.65 -22.45 20.4 -21.85 20.4 -21.05 20.4 -20.4 20.5 -19.85 L20.55 -19.7 20.55 -19.65 Q20.6 -19.3 20.8 -18.9 20.75 -18.35 20.35 -17.8 20.1 -17.5 19.8 -17.25 L19.75 -17.25 Q19.6 -17.3 19.6 -17.2 L19.45 -17.2 19.3 -17.1 18.15 -16.65 17.6 -16.4 Q16.45 -15.8 15.7 -15.05 15.3 -14.7 15.0 -14.25 14.7 -13.8 14.0 -12.7 L13.8 -12.3 13.65 -12.05 13.55 -11.85 13.15 -11.15 13.0 -11.5 12.95 -11.55 12.9 -11.75 12.85 -11.9 12.65 -12.7 Q12.4 -14.0 12.2 -14.55 11.75 -16.05 10.85 -16.95 L10.75 -17.05 10.75 -17.1 10.55 -17.35 10.5 -17.35 10.45 -17.45 10.45 -17.45 10.3 -17.55 10.25 -17.6 10.3 -17.8 10.3 -17.9 10.35 -17.95 10.35 -18.0 Q10.45 -18.1 10.65 -18.1 10.95 -18.1 11.25 -17.75 L11.6 -17.25 Q12.15 -19.65 13.15 -21.45 L13.25 -21.65 Q13.15 -20.95 12.95 -20.3 L12.95 -20.2 Q12.8 -19.75 12.7 -19.25 L12.55 -18.65 12.55 -18.5 Q12.4 -17.55 12.4 -16.4 L12.4 -16.0 Q12.4 -15.05 12.5 -13.9 L12.55 -13.85 12.7 -13.25 13.05 -11.95 13.1 -11.65 13.1 -11.7 13.05 -12.05 13.25 -12.55 13.15 -12.4 Q13.05 -12.45 13.0 -12.6 L12.95 -12.75 12.95 -12.85 12.95 -12.9 Q12.95 -13.75 14.05 -16.15 14.75 -17.65 15.55 -19.1 15.8 -19.6 16.55 -20.65 16.95 -21.35 17.1 -21.8 17.15 -22.05 17.15 -22.2 L17.1 -22.75 17.15 -22.75 17.45 -23.3 Q17.5 -23.55 17.55 -23.7 L17.55 -24.0 17.65 -23.75 Q18.0 -22.95 18.2 -22.6 L18.15 -22.3 Q18.0 -22.25 17.65 -21.6 17.4 -21.2 16.65 -19.7 L15.5 -17.85 Q14.05 -15.35 13.7 -13.75 13.5 -13.3 13.35 -12.9 13.2 -12.3 13.15 -11.85 L13.2 -11.75 Q13.4 -12.35 13.65 -13.05 L13.7 -13.2 13.7 -13.25 14.25 -14.35 M21.7 -24.6 Q22.2 -24.4 22.65 -24.1 L22.35 -23.95 Q21.6 -23.55 21.2 -23.15 L21.2 -23.2 21.35 -23.65 Q21.65 -24.3 21.7 -24.6 M22.4 -22.4 L22.45 -22.5 22.55 -22.6 Q22.7 -22.7 22.9 -22.7 L22.9 -22.65 22.95 -22.5 Q22.95 -22.35 22.8 -22.2 22.7 -22.05 22.55 -22.05 22.35 -22.05 22.35 -22.3 L22.4 -22.4 M25.5 -25.5 L26.2 -26.1 26.25 -25.55 26.25 -25.25 25.95 -23.75 Q25.7 -22.85 25.4 -22.05 L24.9 -20.95 Q24.45 -20.65 23.9 -20.1 L22.95 -19.05 Q22.95 -18.95 23.0 -18.9 L23.1 -18.8 22.75 -18.55 22.6 -18.5 Q22.3 -18.55 22.1 -18.85 L21.9 -19.2 Q21.9 -19.25 23.05 -20.8 24.35 -22.45 24.7 -23.45 L25.1 -24.55 25.5 -25.5 M22.4 -22.9 Q23.0 -23.45 23.45 -23.6 23.05 -23.35 22.5 -22.75 21.95 -22.15 21.7 -22.0 21.8 -22.35 22.4 -22.9 M16.4 -25.8 L16.25 -25.8 16.2 -24.05 Q16.2 -23.65 16.2 -23.25 L16.25 -22.95 15.85 -22.9 Q15.45 -22.9 15.35 -23.15 15.3 -23.25 15.3 -23.4 L15.2 -25.45 Q15.2 -27.55 15.45 -28.55 15.9 -30.05 16.4 -27.65 16.85 -25.6 16.85 -24.45 16.95 -23.95 16.85 -23.6 16.8 -23.4 16.75 -23.25 L16.6 -24.3 16.4 -25.8 M14.4 -25.05 Q14.45 -25.05 14.45 -24.95 L14.35 -24.4 14.2 -23.9 Q14.15 -24.05 14.1 -24.3 14.05 -24.5 14.05 -24.65 14.05 -24.8 14.1 -24.85 14.15 -24.95 14.3 -25.05 L14.4 -25.05 M11.55 -23.6 L11.75 -23.2 11.95 -22.85 11.65 -22.45 Q11.5 -22.3 11.3 -21.95 10.9 -22.1 10.55 -23.15 10.3 -23.75 10.15 -24.35 10.15 -24.85 10.3 -24.9 L10.5 -24.7 10.9 -24.2 10.95 -24.15 Q11.25 -23.8 11.55 -23.6 M15.0 -20.5 L15.0 -20.3 Q15.0 -20.2 14.8 -19.75 L14.5 -19.2 14.4 -19.2 Q14.35 -19.25 14.35 -19.35 14.35 -19.5 14.6 -20.05 14.8 -20.6 14.85 -20.65 L15.0 -20.5 M21.25 -17.7 L20.95 -18.25 20.9 -18.25 21.0 -18.5 21.25 -17.7 M20.75 -18.0 L20.7 -17.85 21.1 -16.75 Q21.5 -15.65 21.5 -15.2 L21.55 -12.5 Q21.55 -11.95 21.0 -10.4 20.6 -9.4 20.3 -8.7 L20.0 -8.3 19.55 -8.0 19.5 -8.05 19.35 -8.6 19.3 -8.75 19.05 -9.55 Q19.75 -10.0 20.15 -10.5 20.7 -11.05 20.8 -11.55 20.65 -11.5 20.4 -11.15 L20.05 -10.6 19.5 -10.15 19.0 -9.65 Q18.9 -10.15 18.9 -10.35 L18.9 -10.4 19.0 -10.75 Q19.25 -11.25 19.85 -12.05 L19.9 -12.1 20.25 -12.6 20.5 -13.0 Q20.85 -13.65 20.85 -14.05 20.85 -14.4 20.75 -14.8 20.65 -15.65 20.2 -16.55 L20.15 -16.65 19.95 -17.05 19.9 -17.1 20.4 -17.55 20.75 -18.0 M21.65 -10.8 Q21.85 -11.3 21.9 -11.8 22.05 -12.55 22.05 -14.45 22.2 -13.8 22.2 -13.4 22.2 -12.35 21.9 -11.4 L21.65 -10.8 M23.55 -11.35 L23.25 -11.05 22.0 -9.9 21.8 -9.7 20.7 -8.85 20.2 -8.5 Q21.15 -9.55 21.6 -10.3 L21.75 -10.55 Q22.25 -11.5 22.35 -12.85 L22.35 -13.45 Q22.35 -14.65 21.5 -17.55 L21.35 -18.1 Q21.5 -17.95 21.7 -17.95 L21.75 -17.9 21.8 -17.9 21.8 -17.75 Q21.8 -17.65 22.8 -16.4 23.35 -15.7 23.7 -15.4 23.6 -15.15 23.6 -14.5 23.6 -13.95 23.4 -13.15 23.15 -12.35 23.15 -11.95 23.15 -11.75 23.2 -11.6 23.25 -11.4 23.55 -11.35 M24.15 -15.9 L23.0 -17.35 22.8 -17.55 22.6 -17.85 22.5 -17.95 23.15 -18.1 23.45 -17.45 Q23.85 -16.65 24.1 -16.45 L24.15 -15.9 M18.05 -18.5 L18.0 -18.3 Q17.95 -18.25 17.85 -18.25 17.7 -18.4 17.7 -18.45 17.7 -18.7 18.0 -18.65 L18.05 -18.5 M17.7 -16.85 Q17.7 -16.95 17.6 -17.2 L17.5 -17.15 17.5 -17.0 Q17.5 -16.8 17.7 -16.8 L17.7 -16.85 M10.7 -21.25 L10.7 -21.1 Q10.65 -21.0 10.55 -21.0 L10.45 -21.0 Q10.4 -21.05 10.4 -21.2 10.4 -21.3 10.45 -21.35 L10.55 -21.35 10.7 -21.25 M10.75 -18.1 L10.7 -18.1 Q10.7 -17.75 10.9 -17.3 11.05 -16.9 11.3 -16.55 L11.35 -16.6 11.05 -17.35 Q10.85 -17.85 10.8 -18.1 L10.75 -18.1 M10.2 -12.7 L10.25 -13.1 10.2 -13.6 10.25 -13.95 Q10.2 -14.6 10.15 -15.45 10.15 -15.95 10.2 -16.55 L10.3 -16.55 Q10.45 -15.25 10.5 -13.95 L10.55 -13.75 10.65 -13.4 10.8 -12.8 10.85 -12.5 10.9 -12.35 Q11.1 -11.65 11.3 -11.2 L11.35 -11.05 11.35 -10.85 11.3 -10.75 11.2 -10.65 11.05 -10.4 Q10.7 -10.45 10.3 -12.3 L10.2 -12.7 M19.85 -11.05 L19.75 -11.0 Q19.7 -11.0 19.7 -10.85 L19.7 -10.75 Q19.75 -10.7 19.85 -10.7 L20.0 -10.8 20.05 -10.9 Q19.95 -11.0 19.85 -11.05" fill="#8b999e" fill-rule="evenodd" stroke="none"/>
    <path d="M15.45 -29.0 Q15.45 -28.8 14.55 -25.55 14.35 -25.55 14.3 -25.9 14.25 -26.05 14.3 -26.25 14.3 -27.35 14.9 -28.55 15.1 -29.05 15.3 -29.2 15.45 -29.35 15.45 -29.0 M18.3 -22.05 Q18.55 -22.6 18.8 -22.55 19.1 -22.45 19.1 -21.7 18.75 -20.85 18.45 -20.2 L18.4 -20.1 18.3 -20.0 18.2 -19.75 18.2 -19.6 Q17.7 -18.65 17.3 -18.65 17.0 -18.65 16.85 -18.85 16.8 -18.95 16.8 -19.05 L16.85 -19.1 17.05 -19.4 17.05 -19.45 17.15 -19.6 17.2 -19.7 17.2 -19.75 17.35 -19.95 Q17.9 -20.85 18.0 -21.25 L18.05 -21.35 18.3 -22.05 M12.95 -19.0 L12.95 -19.05 13.25 -20.0 13.65 -21.3 13.65 -21.35 Q13.95 -21.5 14.35 -21.55 L14.4 -21.55 14.1 -20.6 14.1 -20.55 Q13.6 -20.35 13.45 -20.0 13.4 -19.85 13.4 -19.55 L13.45 -19.05 Q13.45 -18.95 13.4 -18.85 13.3 -18.75 13.2 -18.75 13.0 -18.75 12.95 -19.0 M14.35 -20.65 L14.55 -21.5 14.85 -21.5 Q16.25 -21.5 17.0 -22.55 L17.1 -22.75 17.15 -22.2 Q17.15 -22.05 17.1 -21.8 L16.7 -21.55 Q15.85 -20.95 15.05 -20.8 L14.35 -20.65 M21.5 -22.75 L21.8 -23.0 23.05 -23.8 23.4 -24.0 23.55 -24.05 24.15 -24.5 24.15 -24.45 Q24.15 -24.2 23.25 -23.3 L22.55 -22.6 22.45 -22.5 22.4 -22.4 22.25 -22.25 Q22.2 -22.05 22.15 -20.95 22.15 -20.1 21.7 -20.1 21.35 -20.1 21.15 -20.75 21.05 -21.05 21.0 -21.4 21.0 -22.1 21.5 -22.75 M22.4 -22.9 Q21.8 -22.35 21.7 -22.0 21.95 -22.15 22.5 -22.75 23.05 -23.35 23.45 -23.6 23.0 -23.45 22.4 -22.9 M10.05 -22.35 Q9.9 -23.4 9.9 -24.4 L9.9 -25.25 Q10.05 -24.8 10.2 -23.55 10.4 -22.4 10.7 -21.75 L10.7 -21.65 Q10.7 -21.6 10.55 -21.6 10.25 -21.6 10.05 -22.35 M11.65 -19.6 Q11.1 -18.5 11.05 -18.5 10.9 -18.5 10.85 -18.65 L10.85 -18.85 Q10.85 -19.2 11.4 -20.25 11.9 -21.25 12.1 -21.35 12.25 -21.15 12.25 -20.95 12.25 -20.75 11.65 -19.6 M13.35 -17.7 L13.3 -17.45 13.3 -17.4 13.15 -17.35 Q12.95 -17.35 12.95 -17.5 L12.95 -17.7 Q12.95 -18.1 13.15 -18.1 13.35 -18.05 13.35 -17.7 M12.95 -15.75 Q13.0 -15.55 13.05 -15.3 L13.1 -14.8 Q13.1 -14.75 13.05 -14.75 12.95 -14.8 12.85 -15.55 L12.85 -15.7 12.95 -15.75" fill="#e6e9ec" fill-rule="evenodd" stroke="none"/>
    <path d="M14.1 -12.0 Q14.9 -13.25 15.85 -14.25 L15.85 -14.2 15.9 -14.2 15.95 -14.15 Q16.0 -13.8 16.45 -13.45 16.95 -13.1 17.4 -13.1 L17.6 -13.15 17.65 -13.25 17.0 -13.55 17.55 -13.55 Q18.0 -13.55 18.35 -13.85 L18.35 -13.8 Q19.3 -14.35 19.4 -15.6 L19.55 -15.4 20.15 -14.9 20.2 -14.75 20.3 -14.5 20.3 -14.2 Q20.3 -13.85 20.15 -13.35 L19.75 -12.7 19.45 -12.3 19.2 -11.9 19.1 -11.85 19.05 -11.85 18.75 -11.9 18.9 -11.85 18.85 -11.8 18.85 -11.6 18.8 -11.6 Q18.15 -11.0 18.15 -10.3 18.15 -10.2 18.15 -10.15 L18.2 -10.1 Q18.4 -10.65 18.7 -11.05 18.5 -10.6 18.5 -10.35 18.5 -10.0 18.7 -9.3 L18.85 -8.7 19.0 -8.25 Q18.55 -7.75 18.3 -7.4 L18.25 -7.4 18.15 -7.75 Q17.95 -8.45 17.55 -9.2 L17.5 -9.3 Q17.45 -9.75 17.45 -10.2 17.35 -10.8 17.3 -10.85 17.05 -11.25 16.15 -11.7 L15.75 -11.95 15.65 -12.05 15.95 -11.55 15.9 -11.6 15.85 -11.6 15.35 -12.35 Q15.15 -12.7 14.9 -12.7 L14.7 -12.7 14.85 -12.45 15.15 -12.0 Q15.45 -11.65 15.6 -11.5 L14.3 -10.65 14.0 -10.45 13.95 -10.5 Q13.9 -10.65 13.95 -10.75 13.95 -11.05 14.1 -12.0 M10.7 -14.75 L10.7 -14.8 10.75 -14.75 10.85 -14.55 Q11.1 -14.1 11.5 -13.95 L11.8 -13.95 11.75 -13.9 Q11.6 -13.7 11.5 -13.5 11.75 -13.5 11.95 -13.7 12.05 -13.85 12.05 -13.95 L12.3 -13.1 12.15 -13.0 12.25 -13.1 11.85 -13.1 11.35 -13.0 11.25 -13.0 Q11.2 -13.05 11.1 -13.1 L11.1 -13.2 10.9 -14.05 10.7 -14.7 10.7 -14.75 M16.3 -12.95 L15.6 -13.4 15.5 -13.35 Q15.55 -13.25 15.6 -13.15 15.75 -13.0 16.05 -12.85 16.55 -12.55 17.25 -12.5 L17.5 -12.5 17.7 -12.55 17.5 -12.6 Q17.1 -12.65 16.75 -12.75 L16.55 -12.85 16.3 -12.95 M13.05 -6.15 L13.05 -6.25 13.1 -6.25 14.05 -6.2 Q14.25 -6.2 14.75 -6.4 L15.6 -5.25 Q15.05 -5.05 14.4 -5.05 13.45 -5.05 13.2 -5.7 L13.15 -5.8 Q13.1 -5.95 13.05 -6.15" fill="#e9a370" fill-rule="evenodd" stroke="none"/>
    <path d="M15.15 -10.85 L15.65 -11.25 Q15.65 -11.1 16.0 -10.6 L16.8 -9.55 Q17.95 -7.85 17.95 -6.1 L17.95 -5.35 17.85 -4.7 17.5 -3.75 17.35 -3.3 17.25 -3.6 Q16.8 -4.7 16.25 -5.65 L15.55 -6.7 15.5 -6.85 Q14.9 -8.45 14.9 -8.65 14.9 -9.4 15.8 -7.5 L15.9 -7.25 15.55 -8.8 Q15.15 -10.35 15.15 -10.7 L15.15 -10.85 M12.55 -8.15 L11.55 -6.55 11.55 -6.5 11.5 -6.45 11.5 -6.4 Q11.15 -5.5 11.0 -4.5 L10.8 -5.15 10.7 -5.45 10.65 -5.75 Q10.75 -6.95 11.7 -8.25 12.1 -8.85 12.4 -8.9 12.7 -9.0 12.7 -8.4 L12.6 -8.25 12.55 -8.15" fill="#9a5138" fill-rule="evenodd" stroke="none"/>
  </g>
</svg>
