<?xml version="1.0" encoding="UTF-8" standalone="no"?>
<svg xmlns:ffdec="https://www.free-decompiler.com/flash" xmlns:xlink="http://www.w3.org/1999/xlink" ffdec:objectType="shape" height="20.25px" width="16.2px" xmlns="http://www.w3.org/2000/svg">
  <g transform="matrix(1.0, 0.0, 0.0, 1.0, -10.05, 21.85)">
    <path d="M12.35 -13.55 L12.1 -13.55 12.1 -13.6 11.9 -13.6 11.8 -13.65 Q11.75 -13.65 11.75 -13.8 11.75 -14.35 12.2 -14.95 12.6 -15.5 13.15 -15.7 L13.3 -15.75 12.85 -17.95 13.25 -19.5 Q13.9 -20.3 15.35 -19.2 15.3 -19.6 15.1 -20.0 14.6 -20.95 13.65 -20.95 14.5 -21.3 15.15 -20.45 15.45 -20.0 15.55 -19.65 L15.9 -20.3 Q16.4 -21.0 17.5 -21.5 18.15 -21.6 18.55 -21.25 L19.7 -19.6 25.0 -18.15 Q25.4 -17.9 25.55 -17.5 L25.75 -16.8 26.15 -15.45 Q26.25 -14.9 26.25 -14.2 26.25 -13.6 25.9 -12.45 L25.55 -11.25 25.75 -9.95 Q25.75 -9.2 25.3 -7.95 24.6 -6.15 23.35 -6.15 22.7 -6.15 21.85 -6.85 21.65 -6.6 21.15 -6.3 20.45 -5.9 20.25 -5.9 L20.15 -5.9 20.15 -5.95 20.1 -5.95 20.15 -6.0 19.95 -6.45 19.9 -6.7 19.15 -6.2 19.2 -5.6 Q19.2 -5.25 19.05 -5.0 L18.4 -6.0 18.25 -6.2 18.3 -5.5 Q18.3 -4.4 17.8 -3.4 17.1 -2.05 15.65 -1.7 L15.35 -1.7 15.35 -1.85 15.4 -2.65 15.45 -2.95 15.4 -2.8 Q15.35 -3.75 15.25 -4.4 L13.55 -3.5 12.8 -3.9 12.85 -4.85 12.4 -3.95 Q11.8 -2.8 11.65 -1.85 11.7 -1.8 11.55 -1.8 11.1 -1.8 10.85 -3.35 10.75 -4.15 10.7 -4.9 L10.7 -5.7 Q10.75 -6.2 10.95 -6.5 L10.95 -6.55 Q10.75 -6.25 10.65 -5.85 L10.55 -5.2 10.45 -5.15 Q10.25 -5.3 10.2 -5.6 L10.2 -6.1 10.65 -8.4 12.25 -10.25 12.35 -10.55 11.85 -12.25 12.4 -12.8 Q12.15 -12.5 12.15 -12.3 12.15 -11.9 12.35 -11.45 12.45 -11.25 12.5 -11.0 12.75 -11.65 13.3 -12.35 L12.95 -12.65 12.85 -13.5 12.35 -13.6 12.35 -13.55 M12.6 -12.9 L12.6 -13.05 12.65 -13.0 12.65 -12.95 Q12.7 -12.9 12.6 -12.9 M20.55 -14.2 Q20.35 -14.8 20.35 -15.3 L20.3 -17.4 Q20.2 -18.5 19.65 -19.3 L18.05 -21.25 17.45 -21.25 Q16.45 -20.75 16.0 -20.1 15.75 -19.7 15.7 -19.2 L15.7 -18.55 15.75 -18.45 15.9 -18.5 16.1 -18.5 Q16.7 -18.55 17.45 -18.3 18.2 -18.1 18.65 -17.8 L18.55 -18.0 Q18.15 -19.25 17.4 -20.4 L17.35 -20.4 Q16.85 -20.4 16.55 -20.05 L16.45 -19.85 16.4 -19.75 16.25 -19.6 16.25 -19.55 16.2 -19.6 16.2 -19.8 Q16.3 -20.05 16.8 -20.4 17.4 -20.85 17.7 -20.4 L17.75 -20.35 18.1 -19.8 18.15 -19.75 19.15 -17.5 19.2 -16.95 19.25 -15.75 19.25 -15.6 Q19.3 -14.95 19.35 -14.5 19.5 -13.95 19.7 -13.45 L19.8 -13.25 19.85 -13.1 Q20.6 -11.85 22.4 -10.9 L22.85 -10.9 22.85 -10.95 22.9 -10.95 22.9 -10.9 23.15 -11.05 23.2 -11.1 23.1 -11.1 Q21.8 -11.15 21.0 -12.95 20.7 -13.65 20.55 -14.2 M15.4 -18.55 L15.4 -18.9 14.85 -19.2 Q14.15 -19.5 13.8 -19.5 L13.7 -19.5 Q13.35 -19.45 13.2 -18.75 L13.1 -17.95 Q13.1 -17.65 13.25 -17.15 L13.35 -16.6 13.45 -16.2 13.65 -16.65 14.0 -17.45 14.05 -17.5 14.05 -17.55 14.1 -17.55 14.1 -17.6 14.15 -17.65 14.15 -17.7 14.2 -17.7 15.15 -18.3 15.45 -18.4 15.45 -18.55 15.4 -18.55 M21.8 -9.7 L20.5 -8.7 Q20.25 -8.9 20.25 -9.0 20.25 -9.35 20.5 -10.3 L20.75 -11.35 20.75 -11.4 20.4 -11.75 Q19.65 -12.55 19.45 -13.0 19.25 -13.6 19.1 -14.25 19.0 -14.8 19.0 -15.25 L18.95 -15.45 18.95 -16.4 18.8 -17.1 18.45 -17.45 Q17.95 -17.8 17.0 -18.0 L16.8 -18.05 15.9 -18.05 14.95 -18.0 Q14.55 -17.85 14.3 -17.5 L14.2 -17.3 13.55 -15.85 13.55 -15.8 14.1 -15.65 14.5 -14.6 14.55 -14.4 14.75 -14.85 Q15.2 -15.9 15.5 -15.95 14.6 -14.45 14.5 -13.25 L14.5 -12.85 14.45 -12.8 Q14.35 -12.95 14.35 -13.25 L13.6 -12.4 13.6 -12.35 13.55 -12.3 13.5 -12.3 Q12.8 -11.35 12.55 -10.4 L12.55 -10.3 Q12.45 -9.85 12.45 -9.4 12.45 -9.25 12.6 -8.65 12.75 -8.05 12.85 -7.95 L12.9 -7.95 Q13.45 -8.55 14.05 -9.0 14.45 -9.35 14.8 -9.55 L15.25 -9.8 15.55 -9.95 15.7 -10.05 15.9 -10.15 15.85 -10.4 15.8 -10.75 Q15.65 -11.35 15.45 -11.7 14.9 -11.5 14.75 -11.25 L14.65 -10.75 14.5 -10.7 14.4 -10.7 14.4 -10.8 Q14.4 -10.9 14.5 -11.15 14.65 -11.45 14.85 -11.65 15.35 -12.25 15.8 -11.5 L16.0 -10.8 16.2 -10.2 16.25 -10.1 16.25 -10.05 16.3 -9.95 16.25 -9.95 Q16.25 -9.9 16.2 -9.85 L16.15 -9.8 18.15 -8.75 18.4 -8.45 19.1 -6.5 19.5 -6.85 21.2 -8.45 21.15 -8.2 21.3 -8.05 21.3 -8.0 22.0 -7.15 23.1 -6.45 Q24.4 -6.45 25.1 -8.15 25.45 -9.05 25.5 -9.95 25.5 -10.35 25.4 -10.65 L25.4 -10.75 25.35 -10.8 25.25 -11.0 25.15 -11.05 Q25.0 -11.25 24.8 -11.3 L24.2 -11.25 Q23.9 -11.25 23.6 -11.1 23.0 -10.85 22.45 -10.25 L22.2 -9.95 22.0 -9.6 21.95 -9.5 21.85 -9.25 21.7 -8.95 21.6 -8.95 21.6 -9.1 Q21.6 -9.35 21.75 -9.65 L21.8 -9.7 M17.25 -15.3 L17.4 -15.25 17.5 -15.1 Q18.35 -14.5 18.75 -13.5 19.1 -12.75 19.1 -11.8 19.1 -11.45 18.95 -10.95 19.0 -10.95 18.9 -10.95 L18.85 -10.95 Q18.6 -10.95 18.35 -11.2 L18.25 -11.35 17.95 -10.9 Q17.8 -10.75 17.65 -10.75 16.7 -10.75 16.2 -11.6 L16.05 -11.9 Q15.95 -12.2 15.9 -12.5 L15.9 -12.65 15.15 -12.75 15.05 -12.7 15.05 -12.6 15.15 -12.55 15.6 -12.1 Q15.35 -12.15 15.15 -12.35 14.95 -12.5 14.8 -12.8 L14.95 -12.7 14.85 -13.05 15.9 -14.55 Q16.5 -15.2 16.95 -15.3 L17.25 -15.3 M17.25 -9.9 L17.55 -9.85 Q18.3 -9.85 18.55 -10.15 L18.7 -10.35 Q18.75 -10.4 18.8 -10.4 L18.85 -10.4 18.85 -10.35 18.75 -10.2 18.55 -9.95 18.3 -9.75 Q18.15 -9.7 18.0 -9.7 L17.9 -9.7 Q17.55 -9.7 17.25 -9.8 16.85 -9.95 16.5 -10.35 16.15 -10.8 16.15 -11.05 L16.15 -11.25 16.2 -11.25 16.55 -10.45 Q16.85 -10.0 17.25 -9.9 M23.6 -10.7 L24.0 -10.8 24.25 -10.75 24.4 -10.7 Q24.75 -10.6 24.9 -10.5 24.9 -10.25 24.85 -10.15 L24.85 -10.0 24.8 -10.15 24.7 -10.25 Q24.25 -10.6 23.85 -10.6 L23.8 -10.55 23.7 -10.5 Q23.4 -10.35 23.15 -9.8 L22.7 -8.8 22.65 -8.7 22.6 -8.55 22.6 -8.5 22.95 -8.9 23.1 -9.05 Q23.35 -9.25 23.5 -9.25 24.1 -9.25 24.2 -8.9 L24.2 -8.55 Q24.2 -8.15 24.15 -7.9 24.05 -7.65 23.7 -7.3 L23.65 -7.35 Q23.6 -7.35 23.6 -7.4 23.9 -7.75 23.95 -8.0 24.05 -8.2 24.05 -8.55 L24.05 -8.85 Q24.0 -9.05 23.7 -9.05 23.2 -9.05 22.9 -8.65 L22.65 -8.25 22.4 -8.25 Q22.3 -8.3 22.3 -8.4 22.3 -8.6 22.65 -9.25 L22.7 -9.35 22.9 -9.7 23.05 -10.0 23.25 -10.35 23.3 -10.45 23.45 -10.65 23.6 -10.7 M13.35 -13.6 L13.45 -13.55 14.0 -13.25 14.05 -13.3 14.3 -14.45 14.15 -14.8 Q13.85 -15.35 13.5 -15.45 L13.45 -15.45 13.35 -15.55 12.8 -15.05 Q12.45 -14.65 12.1 -13.9 12.95 -13.8 13.35 -13.6 M17.75 -12.25 L18.7 -11.4 Q18.8 -11.5 18.8 -11.75 18.8 -12.15 18.6 -12.9 18.35 -13.85 18.0 -14.35 17.6 -14.9 17.2 -14.9 16.8 -14.85 16.45 -14.65 L16.15 -14.4 Q15.7 -13.95 15.2 -13.05 16.95 -12.85 17.65 -12.35 L17.75 -12.25 M22.95 -18.4 L22.65 -18.45 22.2 -18.55 Q20.8 -18.85 20.25 -19.0 L20.6 -18.7 Q21.35 -18.0 21.6 -17.7 22.1 -17.0 22.45 -15.9 L22.5 -15.85 22.65 -15.2 22.65 -15.15 Q22.8 -14.5 22.8 -13.95 22.8 -13.2 22.7 -12.65 L22.65 -12.55 Q22.6 -12.65 22.6 -12.9 L22.6 -13.4 22.55 -14.3 22.45 -15.1 22.45 -15.15 22.35 -15.55 22.3 -15.7 22.25 -15.75 22.2 -15.9 Q21.9 -16.75 21.25 -17.55 L20.1 -18.8 Q20.4 -18.25 20.5 -17.6 20.55 -17.15 20.5 -16.5 L20.5 -14.75 Q20.6 -13.8 20.95 -13.15 21.4 -12.35 22.35 -11.7 22.8 -11.4 23.3 -11.15 L23.4 -11.25 23.45 -11.2 23.55 -11.3 23.65 -11.35 24.1 -11.5 24.3 -12.2 Q24.6 -13.2 24.6 -14.15 24.6 -15.55 24.25 -16.5 23.9 -17.55 23.15 -18.35 L23.05 -18.35 22.95 -18.4 M13.55 -8.1 L13.05 -7.75 13.0 -7.6 12.9 -7.65 12.9 -7.6 12.85 -7.65 Q12.55 -7.8 12.35 -8.4 12.2 -8.95 12.2 -9.4 12.2 -9.7 12.2 -10.0 L12.15 -9.9 11.6 -9.35 Q10.7 -8.3 10.45 -6.5 L10.45 -6.0 Q10.65 -6.95 11.6 -7.45 11.65 -7.5 11.65 -7.35 L11.3 -6.5 Q10.9 -5.7 10.9 -4.9 L10.95 -4.5 Q10.95 -4.1 11.05 -3.55 11.25 -2.7 11.5 -2.3 L11.5 -2.35 Q11.7 -3.35 11.9 -3.8 12.25 -4.6 12.9 -5.2 L13.2 -7.25 Q12.7 -7.05 12.45 -6.4 L12.7 -7.2 12.7 -7.35 Q12.9 -7.5 13.2 -7.5 L13.35 -7.45 13.45 -7.45 13.45 -7.4 Q14.55 -7.25 15.2 -5.2 L15.6 -3.65 15.55 -2.0 Q16.85 -2.2 17.55 -3.55 L18.05 -5.55 17.75 -7.4 Q18.05 -7.25 18.2 -6.7 L18.25 -6.6 Q18.7 -6.05 18.95 -5.6 L18.95 -5.65 18.8 -6.7 Q18.7 -7.35 18.5 -7.8 18.1 -8.75 16.8 -9.4 L16.3 -9.55 16.1 -9.6 16.05 -9.6 Q16.0 -9.7 15.85 -9.7 L15.75 -9.75 15.65 -9.65 15.6 -9.65 14.45 -8.8 13.55 -8.1 M22.4 -10.6 L22.3 -10.6 Q21.6 -10.7 20.95 -11.2 L20.95 -11.1 Q20.95 -10.85 20.9 -10.5 L20.85 -10.15 20.7 -9.2 20.7 -9.15 21.8 -10.1 21.9 -10.15 22.3 -10.5 22.45 -10.6 22.4 -10.6 M18.0 -11.2 L18.15 -11.4 17.75 -11.85 17.3 -12.2 16.75 -11.85 Q16.45 -11.85 16.35 -12.15 16.3 -12.3 16.35 -12.4 16.35 -12.5 16.35 -12.55 L16.1 -12.65 16.1 -12.5 Q16.1 -12.15 16.35 -11.7 16.7 -11.2 17.1 -11.0 L17.55 -11.0 Q17.75 -11.0 18.0 -11.2 M21.0 -7.9 Q20.7 -7.45 20.25 -7.0 L20.1 -6.9 20.2 -6.65 20.35 -6.2 20.45 -6.25 Q20.7 -6.5 20.9 -6.9 L21.25 -7.5 Q21.05 -7.7 21.0 -7.9 M13.05 -4.45 L13.05 -4.35 Q13.05 -3.95 13.25 -3.75 L13.8 -3.75 Q14.3 -3.95 14.65 -4.25 14.95 -4.55 15.2 -4.65 L14.8 -5.65 Q14.35 -6.45 13.5 -7.05 L13.5 -6.95 13.3 -5.8 Q13.05 -4.75 13.05 -4.45 M21.7 -7.0 L21.4 -7.3 Q21.25 -7.05 21.0 -6.7 L20.85 -6.5 21.25 -6.75 21.7 -7.0 M23.6 -18.25 L23.35 -18.3 23.7 -17.95 Q24.75 -16.7 24.75 -14.15 24.75 -13.2 24.65 -12.7 24.6 -12.3 24.3 -11.6 24.75 -11.7 25.1 -11.6 L25.3 -11.5 26.0 -14.2 Q26.0 -15.1 25.65 -16.2 25.3 -17.5 24.7 -17.95 L23.6 -18.25" fill="#000000" fill-rule="evenodd" stroke="none"/>
    <path d="M12.4 -12.8 L12.45 -12.75 12.55 -12.75 Q12.7 -12.65 12.85 -12.65 L12.95 -12.65 13.3 -12.35 Q12.75 -11.65 12.5 -11.0 12.45 -11.25 12.35 -11.45 12.15 -11.9 12.15 -12.3 12.15 -12.5 12.4 -12.8 M14.3 -17.5 L14.75 -17.45 Q15.75 -17.4 16.45 -16.65 L16.85 -15.8 Q17.0 -15.5 17.2 -15.3 L17.25 -15.3 16.95 -15.3 Q16.5 -15.2 15.9 -14.55 L14.85 -13.05 14.75 -13.15 14.5 -13.25 Q14.6 -14.45 15.5 -15.95 15.2 -15.9 14.75 -14.85 L14.55 -14.4 14.5 -14.6 14.1 -15.65 13.55 -15.8 13.55 -15.85 14.2 -17.3 14.3 -17.5 M17.95 -10.9 Q17.85 -10.7 17.6 -10.45 17.25 -10.1 17.25 -9.9 16.85 -10.0 16.55 -10.45 L16.2 -11.25 16.15 -11.25 16.15 -11.05 Q16.15 -10.8 16.5 -10.35 16.85 -9.95 17.25 -9.8 L17.3 -9.7 Q17.4 -9.5 17.75 -9.5 18.0 -9.5 18.2 -9.6 L18.3 -9.75 18.55 -9.95 18.75 -10.2 18.85 -10.35 18.85 -10.4 19.05 -10.55 Q19.5 -10.95 19.8 -10.9 20.15 -10.9 20.15 -10.25 20.15 -9.95 19.65 -9.25 19.1 -8.45 18.5 -8.45 L18.4 -8.45 18.15 -8.75 16.15 -9.8 16.2 -9.85 Q16.25 -9.9 16.25 -9.95 L16.3 -9.95 16.25 -10.05 16.25 -10.1 16.2 -10.2 16.0 -10.8 16.05 -10.9 Q16.05 -11.4 15.85 -11.85 15.95 -11.85 16.05 -11.9 L16.2 -11.6 Q16.7 -10.75 17.65 -10.75 17.8 -10.75 17.95 -10.9 M21.3 -8.05 L21.3 -8.0 21.3 -8.05 M23.6 -11.1 Q23.65 -11.0 23.65 -10.8 L23.6 -10.7 23.45 -10.65 23.3 -10.45 23.25 -10.35 23.05 -10.0 22.9 -9.7 22.7 -9.35 22.65 -9.25 Q22.25 -8.7 22.15 -8.7 21.9 -8.7 21.8 -9.0 L21.75 -9.1 21.85 -9.25 21.95 -9.5 22.0 -9.6 22.2 -9.95 22.45 -10.25 Q23.0 -10.85 23.6 -11.1 M22.7 -8.8 L23.1 -9.05 22.95 -8.9 22.6 -8.5 22.6 -8.55 22.65 -8.7 22.7 -8.8 M23.7 -9.05 Q23.8 -8.9 23.8 -8.7 23.8 -8.55 23.45 -8.15 23.1 -7.65 22.9 -7.65 22.55 -7.65 22.45 -7.95 22.4 -8.1 22.4 -8.25 L22.65 -8.25 22.9 -8.65 Q23.2 -9.05 23.7 -9.05 M21.75 -9.65 L21.8 -9.7 21.75 -9.65 M13.6 -12.35 L13.8 -11.85 Q14.2 -11.05 14.2 -10.4 14.2 -10.2 13.5 -9.55 12.75 -8.9 12.75 -8.45 12.75 -8.3 12.8 -8.15 L12.9 -7.95 12.85 -7.95 Q12.75 -8.05 12.6 -8.65 12.45 -9.25 12.45 -9.4 12.45 -9.85 12.55 -10.3 L12.55 -10.4 Q12.8 -11.35 13.5 -12.3 L13.55 -12.3 13.6 -12.35 M15.7 -10.05 L15.85 -10.35 15.85 -10.4 15.9 -10.15 15.7 -10.05 M14.8 -5.65 Q14.45 -5.45 14.15 -5.15 13.65 -4.65 13.05 -4.45 13.05 -4.75 13.3 -5.8 L13.5 -6.95 13.5 -7.05 Q14.35 -6.45 14.8 -5.65 M24.25 -10.9 L24.2 -10.95 24.2 -11.05 Q24.2 -11.2 24.3 -11.25 L24.65 -11.25 24.65 -11.2 24.7 -11.05 Q24.7 -10.85 24.45 -10.85 L24.25 -10.9" fill="#cd9e74" fill-rule="evenodd" stroke="none"/>
    <path d="M12.55 -12.75 Q12.55 -12.8 12.6 -12.8 L12.6 -12.9 Q12.7 -12.9 12.65 -12.95 L12.65 -13.0 12.6 -13.05 12.35 -13.55 12.35 -13.6 12.85 -13.5 12.95 -12.65 12.85 -12.65 Q12.7 -12.65 12.55 -12.75 M14.3 -17.5 Q14.55 -17.85 14.95 -18.0 L15.9 -18.05 16.8 -18.05 17.0 -18.0 Q17.95 -17.8 18.45 -17.45 L18.8 -17.1 18.95 -16.4 18.95 -15.45 19.0 -15.25 Q19.0 -14.8 19.1 -14.25 19.25 -13.6 19.45 -13.0 19.65 -12.55 20.4 -11.75 L20.75 -11.4 20.75 -11.35 20.5 -10.3 Q20.25 -9.35 20.25 -9.0 20.25 -8.9 20.5 -8.7 L21.8 -9.7 21.75 -9.65 Q21.6 -9.35 21.6 -9.1 L21.6 -8.95 21.7 -8.95 21.85 -9.25 21.75 -9.1 21.8 -9.0 Q21.9 -8.7 22.15 -8.7 22.25 -8.7 22.65 -9.25 22.3 -8.6 22.3 -8.4 22.3 -8.3 22.4 -8.25 22.4 -8.1 22.45 -7.95 22.55 -7.65 22.9 -7.65 23.1 -7.65 23.45 -8.15 23.8 -8.55 23.8 -8.7 23.8 -8.9 23.7 -9.05 24.0 -9.05 24.05 -8.85 L24.05 -8.55 Q24.05 -8.2 23.95 -8.0 23.9 -7.75 23.6 -7.4 23.6 -7.35 23.65 -7.35 L23.7 -7.3 Q24.05 -7.65 24.15 -7.9 24.2 -8.15 24.2 -8.55 L24.2 -8.9 Q24.1 -9.25 23.5 -9.25 23.35 -9.25 23.1 -9.05 L22.7 -8.8 23.15 -9.8 Q23.4 -10.35 23.7 -10.5 L23.8 -10.55 23.85 -10.6 Q24.25 -10.6 24.7 -10.25 L24.8 -10.15 24.85 -10.0 24.85 -10.15 Q24.9 -10.25 24.9 -10.5 24.75 -10.6 24.4 -10.7 L24.25 -10.75 24.0 -10.8 23.6 -10.7 23.65 -10.8 Q23.65 -11.0 23.6 -11.1 23.9 -11.25 24.2 -11.25 L24.8 -11.3 Q25.0 -11.25 25.15 -11.05 L25.25 -11.0 25.35 -10.8 25.4 -10.75 25.4 -10.65 Q25.5 -10.35 25.5 -9.95 25.45 -9.05 25.1 -8.15 24.4 -6.45 23.1 -6.45 L22.0 -7.15 21.3 -8.0 21.3 -8.05 21.15 -8.2 21.2 -8.45 19.5 -6.85 19.1 -6.5 18.4 -8.45 18.5 -8.45 Q19.1 -8.45 19.65 -9.25 20.15 -9.95 20.15 -10.25 20.15 -10.9 19.8 -10.9 19.5 -10.95 19.05 -10.55 L18.85 -10.4 18.8 -10.4 Q18.75 -10.4 18.7 -10.35 L18.55 -10.15 Q18.3 -9.85 17.55 -9.85 L17.25 -9.9 Q17.25 -10.1 17.6 -10.45 17.85 -10.7 17.95 -10.9 L18.25 -11.35 18.35 -11.2 Q18.6 -10.95 18.85 -10.95 L18.9 -10.95 Q19.0 -10.95 18.95 -10.95 19.1 -11.45 19.1 -11.8 19.1 -12.75 18.75 -13.5 18.35 -14.5 17.5 -15.1 L17.4 -15.25 17.25 -15.3 17.2 -15.3 Q17.0 -15.5 16.85 -15.8 L16.45 -16.65 Q15.75 -17.4 14.75 -17.45 L14.3 -17.5 M14.5 -13.25 L14.75 -13.15 14.85 -13.05 14.95 -12.7 14.8 -12.8 Q14.95 -12.5 15.15 -12.35 15.35 -12.15 15.6 -12.1 L15.15 -12.55 15.05 -12.6 15.05 -12.7 15.15 -12.75 15.9 -12.65 15.9 -12.5 Q15.95 -12.2 16.05 -11.9 15.95 -11.85 15.85 -11.85 16.05 -11.4 16.05 -10.9 L16.0 -10.8 15.8 -11.5 Q15.35 -12.25 14.85 -11.65 14.65 -11.45 14.5 -11.15 14.4 -10.9 14.4 -10.8 L14.4 -10.7 14.5 -10.7 14.65 -10.75 14.75 -11.25 Q14.9 -11.5 15.45 -11.7 15.65 -11.35 15.8 -10.75 L15.85 -10.4 15.85 -10.35 15.7 -10.05 15.55 -9.95 15.25 -9.8 14.8 -9.55 Q14.45 -9.35 14.05 -9.0 13.45 -8.55 12.9 -7.95 L12.8 -8.15 Q12.75 -8.3 12.75 -8.45 12.75 -8.9 13.5 -9.55 14.2 -10.2 14.2 -10.4 14.2 -11.05 13.8 -11.85 L13.6 -12.35 13.6 -12.4 14.35 -13.25 Q14.35 -12.95 14.45 -12.8 L14.5 -12.85 14.5 -13.25 M18.3 -9.75 L18.2 -9.6 Q18.0 -9.5 17.75 -9.5 17.4 -9.5 17.3 -9.7 L17.25 -9.8 Q17.55 -9.7 17.9 -9.7 L18.0 -9.7 Q18.15 -9.7 18.3 -9.75 M14.8 -5.65 L15.2 -4.65 Q14.95 -4.55 14.65 -4.25 14.3 -3.95 13.8 -3.75 L13.25 -3.75 Q13.05 -3.95 13.05 -4.35 L13.05 -4.45 Q13.65 -4.65 14.15 -5.15 14.45 -5.45 14.8 -5.65 M24.25 -10.9 L24.45 -10.85 Q24.7 -10.85 24.7 -11.05 L24.65 -11.2 24.65 -11.25 24.3 -11.25 Q24.2 -11.2 24.2 -11.05 L24.2 -10.95 24.25 -10.9" fill="#ba805c" fill-rule="evenodd" stroke="none"/>
    <path d="M18.0 -11.2 Q17.75 -11.0 17.55 -11.0 L17.1 -11.0 Q16.7 -11.2 16.35 -11.7 16.1 -12.15 16.1 -12.5 L16.1 -12.65 16.35 -12.55 Q16.35 -12.5 16.35 -12.4 16.3 -12.3 16.35 -12.15 16.45 -11.85 16.75 -11.85 L17.3 -12.2 17.75 -11.85 18.15 -11.4 18.0 -11.2" fill="#ffffff" fill-rule="evenodd" stroke="none"/>
    <path d="M15.7 -18.55 L15.7 -19.2 Q15.75 -19.7 16.0 -20.1 16.45 -20.75 17.45 -21.25 L18.05 -21.25 19.65 -19.3 Q20.2 -18.5 20.3 -17.4 L20.35 -15.3 Q20.35 -14.8 20.55 -14.2 L20.5 -14.25 Q20.45 -14.4 20.35 -15.0 20.3 -15.4 20.25 -15.6 L20.3 -15.0 Q20.45 -14.3 20.45 -13.95 20.45 -13.25 20.05 -13.25 L19.8 -13.25 19.7 -13.45 Q19.5 -13.95 19.35 -14.5 19.3 -14.95 19.25 -15.6 L19.25 -15.75 19.2 -16.95 19.15 -17.5 18.15 -19.75 17.75 -20.35 17.7 -20.4 Q17.4 -20.85 16.8 -20.4 16.3 -20.05 16.2 -19.8 L16.2 -19.6 16.25 -19.55 16.25 -19.6 16.4 -19.75 16.45 -19.85 16.35 -19.25 Q16.25 -18.7 16.1 -18.5 L15.9 -18.5 15.75 -18.45 15.7 -18.55 M23.1 -11.1 L23.2 -11.1 23.15 -11.05 23.1 -11.1 M13.7 -19.5 L13.7 -19.35 Q13.7 -19.25 13.75 -19.15 L13.85 -18.95 Q13.85 -18.3 13.45 -17.55 L13.25 -17.15 Q13.1 -17.65 13.1 -17.95 L13.2 -18.75 Q13.35 -19.45 13.7 -19.5 M15.15 -18.3 L15.25 -18.35 15.4 -18.55 15.45 -18.55 15.45 -18.4 15.15 -18.3 M12.8 -15.05 L12.7 -14.95 12.85 -14.75 Q13.25 -14.3 13.35 -14.1 L13.35 -13.6 Q12.95 -13.8 12.1 -13.9 12.45 -14.65 12.8 -15.05 M16.15 -14.4 L16.75 -13.75 Q17.45 -13.05 17.6 -12.65 L17.75 -12.25 17.65 -12.35 Q16.95 -12.85 15.2 -13.05 15.7 -13.95 16.15 -14.4 M22.65 -15.15 L22.65 -15.2 22.5 -15.85 22.45 -15.9 Q22.1 -17.0 21.6 -17.7 21.35 -18.0 20.6 -18.7 L20.25 -19.0 Q20.8 -18.85 22.2 -18.55 L22.65 -18.45 22.95 -18.4 22.9 -18.25 Q22.9 -18.15 23.0 -17.9 L23.05 -17.6 Q23.05 -17.2 22.65 -15.15 M20.95 -13.15 Q20.6 -13.8 20.5 -14.75 L20.5 -16.5 Q20.55 -17.15 20.5 -17.6 20.4 -18.25 20.1 -18.8 L21.25 -17.55 Q21.9 -16.75 22.2 -15.9 L22.25 -15.75 22.3 -15.7 22.35 -15.55 22.45 -15.15 22.45 -15.1 Q22.35 -14.75 22.2 -14.3 21.75 -13.15 21.0 -13.15 L20.95 -13.15 M10.95 -4.5 L10.9 -4.9 Q10.9 -5.7 11.3 -6.5 L11.65 -7.35 Q11.65 -7.5 11.6 -7.45 10.65 -6.95 10.45 -6.0 L10.45 -6.5 Q10.7 -8.3 11.6 -9.35 L12.15 -9.9 12.2 -10.0 Q12.2 -9.7 12.2 -9.4 12.2 -8.95 12.35 -8.4 12.55 -7.8 12.85 -7.65 L12.9 -7.6 12.9 -7.65 13.0 -7.6 13.05 -7.75 13.55 -8.1 Q13.65 -8.0 13.9 -8.0 14.2 -8.0 15.3 -8.55 L15.8 -8.8 15.8 -8.85 15.85 -8.5 Q16.15 -7.35 16.15 -6.35 16.15 -5.35 15.6 -3.65 L15.2 -5.2 Q14.55 -7.25 13.45 -7.4 L13.45 -7.45 13.35 -7.45 13.2 -7.5 Q12.9 -7.5 12.7 -7.35 L12.7 -7.2 12.7 -7.3 Q12.4 -7.15 12.05 -6.7 11.5 -6.0 11.15 -5.1 L10.95 -4.5 M11.5 -2.3 L11.5 -2.35 11.5 -2.3 M22.45 -10.6 L22.4 -10.6 22.45 -10.6 M23.7 -17.95 L23.35 -18.3 23.6 -18.25 23.7 -17.95" fill="#bda788" fill-rule="evenodd" stroke="none"/>
    <path d="M15.7 -18.55 L15.75 -18.45 15.7 -18.55 M16.1 -18.5 Q16.25 -18.7 16.35 -19.25 L16.45 -19.85 16.55 -20.05 Q16.85 -20.4 17.35 -20.4 L17.4 -20.4 Q18.15 -19.25 18.55 -18.0 L18.65 -17.8 Q18.2 -18.1 17.45 -18.3 16.7 -18.55 16.1 -18.5 M17.75 -20.35 L18.15 -19.75 18.1 -19.8 17.75 -20.35 M19.8 -13.25 L20.05 -13.25 Q20.45 -13.25 20.45 -13.95 20.45 -14.3 20.3 -15.0 L20.25 -15.6 Q20.3 -15.4 20.35 -15.0 20.45 -14.4 20.5 -14.25 L20.55 -14.2 Q20.7 -13.65 21.0 -12.95 21.8 -11.15 23.1 -11.1 L23.15 -11.05 22.9 -10.9 22.9 -10.95 22.85 -10.95 22.85 -10.9 22.4 -10.9 Q20.6 -11.85 19.85 -13.1 L19.8 -13.25 M13.7 -19.5 L13.8 -19.5 Q14.15 -19.5 14.85 -19.2 L15.4 -18.9 15.4 -18.55 15.25 -18.35 15.15 -18.3 14.2 -17.7 14.15 -17.7 14.15 -17.65 14.1 -17.6 14.1 -17.55 14.05 -17.55 14.05 -17.5 14.0 -17.45 13.65 -16.65 13.45 -16.2 13.35 -16.6 13.25 -17.15 13.45 -17.55 Q13.85 -18.3 13.85 -18.95 L13.75 -19.15 Q13.7 -19.25 13.7 -19.35 L13.7 -19.5 M13.35 -13.6 L13.35 -14.1 Q13.25 -14.3 12.85 -14.75 L12.7 -14.95 12.8 -15.05 13.35 -15.55 13.45 -15.45 13.5 -15.45 Q13.85 -15.35 14.15 -14.8 L14.3 -14.45 14.05 -13.3 14.0 -13.25 13.45 -13.55 13.35 -13.6 M16.15 -14.4 L16.45 -14.65 Q16.8 -14.85 17.2 -14.9 17.6 -14.9 18.0 -14.35 18.35 -13.85 18.6 -12.9 18.8 -12.15 18.8 -11.75 18.8 -11.5 18.7 -11.4 L17.75 -12.25 17.6 -12.65 Q17.45 -13.05 16.75 -13.75 L16.15 -14.4 M22.65 -15.15 Q23.05 -17.2 23.05 -17.6 L23.0 -17.9 Q22.9 -18.15 22.9 -18.25 L22.95 -18.4 23.05 -18.35 23.15 -18.35 Q23.9 -17.55 24.25 -16.5 24.6 -15.55 24.6 -14.15 24.6 -13.2 24.3 -12.2 L24.1 -11.5 23.65 -11.35 23.55 -11.3 23.45 -11.2 23.4 -11.25 23.3 -11.15 Q22.8 -11.4 22.35 -11.7 21.4 -12.35 20.95 -13.15 L21.0 -13.15 Q21.75 -13.15 22.2 -14.3 22.35 -14.75 22.45 -15.1 L22.55 -14.3 22.6 -13.4 22.6 -12.9 Q22.6 -12.65 22.65 -12.55 L22.7 -12.65 Q22.8 -13.2 22.8 -13.95 22.8 -14.5 22.65 -15.15 M10.95 -4.5 L11.15 -5.1 Q11.5 -6.0 12.05 -6.7 12.4 -7.15 12.7 -7.3 L12.7 -7.2 12.45 -6.4 Q12.7 -7.05 13.2 -7.25 L12.9 -5.2 Q12.25 -4.6 11.9 -3.8 11.7 -3.35 11.5 -2.35 L11.5 -2.3 Q11.25 -2.7 11.05 -3.55 10.95 -4.1 10.95 -4.5 M15.6 -3.65 Q16.15 -5.35 16.15 -6.35 16.15 -7.35 15.85 -8.5 L15.8 -8.85 15.8 -8.8 15.3 -8.55 Q14.2 -8.0 13.9 -8.0 13.65 -8.0 13.55 -8.1 L14.45 -8.8 15.6 -9.65 15.65 -9.65 15.75 -9.75 15.85 -9.7 Q16.0 -9.7 16.05 -9.6 L16.1 -9.6 16.3 -9.55 16.8 -9.4 Q18.1 -8.75 18.5 -7.8 18.7 -7.35 18.8 -6.7 L18.95 -5.65 18.95 -5.6 Q18.7 -6.05 18.25 -6.6 L18.2 -6.7 Q18.05 -7.25 17.75 -7.4 L18.05 -5.55 17.55 -3.55 Q16.85 -2.2 15.55 -2.0 L15.6 -3.65 M22.45 -10.6 L22.3 -10.5 21.9 -10.15 21.8 -10.1 20.7 -9.15 20.7 -9.2 20.85 -10.15 20.9 -10.5 Q20.95 -10.85 20.95 -11.1 L20.95 -11.2 Q21.6 -10.7 22.3 -10.6 L22.4 -10.6 22.45 -10.6 M21.0 -7.9 Q21.05 -7.7 21.25 -7.5 L20.9 -6.9 Q20.7 -6.5 20.45 -6.25 L20.35 -6.2 20.2 -6.65 20.1 -6.9 20.25 -7.0 Q20.7 -7.45 21.0 -7.9 M21.7 -7.0 L21.25 -6.75 20.85 -6.5 21.0 -6.7 Q21.25 -7.05 21.4 -7.3 L21.7 -7.0 M23.7 -17.95 L23.6 -18.25 24.7 -17.95 Q25.3 -17.5 25.65 -16.2 26.0 -15.1 26.0 -14.2 L25.3 -11.5 25.1 -11.6 Q24.75 -11.7 24.3 -11.6 24.6 -12.3 24.65 -12.7 24.75 -13.2 24.75 -14.15 24.75 -16.7 23.7 -17.95" fill="#a28359" fill-rule="evenodd" stroke="none"/>
    <path d="M18.05 -21.5 L18.05 -21.5 M18.1 -21.2 L17.8 -21.5 17.6 -21.5 Q16.9 -21.2 16.3 -20.55 15.6 -19.85 15.6 -19.4 L15.6 -19.2 15.65 -19.2 15.6 -19.15 15.7 -18.85 15.75 -18.35 15.75 -18.3 15.7 -18.25 Q15.55 -18.35 15.4 -18.85 L15.35 -19.15 15.0 -19.45 Q14.45 -19.85 13.9 -19.85 13.35 -19.85 13.15 -18.85 L13.1 -17.85 Q13.1 -17.3 13.2 -16.75 L13.35 -16.1 13.45 -15.85 Q14.55 -16.1 14.55 -14.25 L14.5 -13.75 14.45 -13.1 14.35 -13.0 14.3 -13.05 14.0 -12.7 Q13.55 -12.25 13.35 -12.25 13.05 -12.25 12.75 -12.8 L12.7 -13.0 12.35 -12.6 11.95 -12.2 Q12.0 -11.8 12.55 -10.4 12.55 -10.3 12.45 -10.25 L12.15 -9.95 Q11.7 -9.45 11.45 -9.1 10.35 -7.75 10.35 -6.35 L10.35 -5.95 Q10.4 -5.65 10.55 -5.45 L10.55 -5.35 Q10.5 -5.3 10.4 -5.3 10.15 -5.3 10.05 -5.8 10.05 -6.1 10.05 -6.35 10.05 -7.6 10.55 -8.55 11.15 -9.8 12.35 -10.4 12.15 -10.7 12.0 -11.2 11.7 -11.85 11.7 -12.25 11.7 -12.55 11.9 -12.75 L12.1 -12.85 12.15 -13.0 12.4 -13.35 Q12.15 -13.55 12.0 -13.7 12.2 -13.7 12.4 -13.6 L12.55 -13.5 Q12.6 -13.95 13.0 -13.75 L13.05 -13.75 Q13.3 -13.7 13.4 -13.55 13.6 -13.5 13.65 -13.35 L13.95 -13.35 14.0 -13.3 14.0 -13.15 14.1 -13.15 Q14.2 -13.15 14.2 -13.25 L14.25 -13.3 14.25 -13.6 14.3 -13.7 14.3 -14.1 Q14.3 -14.3 14.2 -14.55 L14.2 -14.65 14.15 -14.8 Q13.95 -15.6 13.65 -15.6 L13.55 -15.6 Q13.6 -15.55 13.4 -15.55 L13.4 -15.5 Q13.3 -15.55 13.3 -15.45 L13.2 -15.4 12.8 -15.1 12.2 -14.5 Q12.15 -14.5 12.15 -14.6 12.15 -14.85 12.5 -15.25 12.8 -15.55 13.15 -15.7 12.95 -16.0 12.85 -16.7 12.8 -17.25 12.8 -17.85 12.8 -19.2 13.2 -19.8 13.85 -20.7 15.35 -19.45 15.35 -20.05 16.1 -20.85 17.0 -21.85 18.1 -21.85 18.5 -21.5 19.05 -20.6 L19.35 -20.1 Q20.3 -19.35 21.9 -19.05 L23.75 -18.75 Q24.65 -18.55 25.05 -18.15 25.75 -17.4 26.05 -16.25 26.2 -15.5 26.2 -14.35 26.2 -13.5 26.05 -12.65 25.85 -11.65 25.5 -11.3 25.7 -11.1 25.8 -10.7 25.9 -10.25 25.9 -9.45 25.9 -8.65 25.5 -7.7 24.85 -6.25 23.5 -6.25 22.55 -6.25 21.75 -7.05 21.15 -7.85 21.0 -7.85 20.8 -7.85 20.1 -7.15 19.45 -6.5 19.15 -6.25 L19.15 -5.35 Q19.1 -5.35 19.05 -5.3 18.95 -5.6 18.8 -6.45 18.7 -7.25 18.5 -7.7 17.95 -9.15 15.75 -9.85 17.65 -9.75 18.55 -8.35 19.0 -7.6 19.1 -6.7 L19.9 -7.4 Q20.85 -8.2 21.0 -8.2 21.2 -8.2 21.45 -7.95 L21.9 -7.4 Q22.6 -6.6 23.5 -6.6 24.8 -6.6 25.35 -8.05 25.6 -8.75 25.6 -9.45 L25.45 -10.85 Q25.45 -10.9 25.2 -11.15 L24.95 -11.45 25.25 -11.45 25.55 -12.55 Q25.85 -13.8 25.85 -14.35 25.85 -15.5 25.65 -16.25 25.35 -17.5 24.6 -18.05 24.05 -18.45 23.2 -18.5 L21.5 -18.7 Q21.25 -18.75 20.65 -18.95 20.2 -19.1 20.0 -19.25 L20.0 -19.2 20.05 -19.1 20.05 -19.0 19.95 -18.9 19.9 -18.95 Q19.5 -19.4 18.85 -20.2 L18.1 -21.2 M15.4 -18.4 Q15.2 -18.15 14.6 -17.7 14.2 -17.4 14.15 -17.2 L14.1 -17.2 Q14.05 -17.25 14.05 -17.35 14.05 -17.55 14.55 -18.0 15.05 -18.4 15.35 -18.45 L15.4 -18.4 M16.95 -15.15 L17.4 -15.15 17.4 -15.05 Q17.7 -14.9 17.95 -14.6 18.45 -14.0 18.85 -12.9 19.15 -11.95 19.15 -11.4 L19.15 -11.05 19.05 -11.0 19.1 -10.95 19.0 -10.85 18.5 -11.45 18.65 -11.15 Q18.6 -11.05 18.5 -11.0 L17.7 -11.95 17.45 -12.25 Q17.4 -11.75 16.9 -11.75 16.5 -11.75 16.4 -12.1 16.35 -12.25 16.35 -12.45 16.35 -12.7 16.6 -12.75 L16.45 -12.75 15.7 -12.7 14.9 -12.6 14.8 -12.7 14.8 -12.9 Q14.8 -13.5 15.7 -14.4 L15.85 -14.55 Q16.4 -15.2 16.95 -15.15 M11.25 -6.9 Q11.0 -6.1 10.95 -5.6 10.95 -5.4 10.95 -4.5 10.95 -3.6 11.0 -3.45 11.05 -3.15 11.7 -2.05 11.75 -2.0 11.55 -2.0 11.1 -2.0 10.85 -3.25 10.75 -3.9 10.75 -4.5 10.75 -5.5 10.75 -5.75 10.85 -6.4 11.2 -7.0 L11.25 -6.9 M17.6 -12.45 L17.85 -12.3 Q18.3 -11.95 19.05 -11.0 18.95 -11.25 18.8 -12.05 18.6 -12.9 18.45 -13.35 17.95 -14.9 16.95 -14.9 16.35 -14.9 15.7 -14.05 L15.1 -13.1 15.0 -12.9 15.0 -12.85 15.6 -12.95 15.8 -12.95 15.25 -13.05 Q16.4 -13.1 17.25 -12.65 L17.55 -12.5 17.6 -12.45 M17.5 -7.95 Q17.9 -8.0 18.05 -6.95 L18.15 -6.15 18.25 -6.25 18.3 -6.25 18.45 -6.3 Q18.45 -6.25 18.5 -6.25 L18.5 -6.1 18.45 -5.95 18.35 -5.85 18.2 -5.8 18.2 -5.6 Q18.2 -4.65 17.6 -3.3 16.8 -1.6 15.6 -1.6 L15.45 -1.65 15.4 -1.7 15.55 -1.75 15.4 -1.75 15.4 -1.9 15.45 -2.3 15.55 -2.7 Q15.55 -3.45 15.3 -4.3 15.15 -4.25 14.9 -4.1 L14.5 -3.85 Q13.65 -3.45 13.15 -3.45 12.7 -3.45 12.6 -3.8 12.55 -3.95 12.55 -4.15 12.55 -4.5 12.85 -5.9 13.15 -7.2 13.2 -7.4 L13.35 -7.35 Q13.4 -7.35 13.4 -7.25 L13.4 -7.1 13.15 -5.85 Q12.85 -4.6 12.85 -4.25 L12.85 -3.95 12.9 -3.85 13.5 -3.85 Q13.75 -3.85 14.15 -4.0 L14.45 -4.15 15.2 -4.6 15.05 -5.0 Q14.55 -6.3 13.75 -7.2 14.8 -6.5 15.35 -5.15 15.8 -4.05 15.8 -2.75 15.8 -2.55 15.7 -1.85 16.75 -2.4 17.35 -3.45 17.9 -4.45 17.9 -5.6 17.9 -6.0 17.75 -6.8 17.6 -7.55 17.45 -7.85 L17.5 -7.95 M13.6 -12.85 Q13.55 -12.8 13.45 -12.8 13.25 -12.8 13.1 -12.95 L13.05 -13.15 Q12.95 -13.3 12.9 -13.45 L12.9 -13.5 12.75 -13.5 Q12.75 -12.85 13.1 -12.65 L13.15 -12.65 Q13.25 -12.5 13.3 -12.5 L13.65 -12.7 13.95 -12.95 13.9 -13.0 13.85 -12.95 Q13.75 -12.85 13.7 -12.85 L13.6 -12.85" fill="#000000" fill-rule="evenodd" stroke="none"/>
    <path d="M13.6 -12.85 L13.7 -12.85 Q13.75 -12.85 13.85 -12.95 L13.9 -13.0 13.95 -12.95 13.65 -12.7 13.3 -12.5 Q13.25 -12.5 13.15 -12.65 L13.1 -12.65 Q12.75 -12.85 12.75 -13.5 L12.9 -13.5 12.9 -13.45 Q12.95 -13.3 13.05 -13.15 L13.1 -12.95 Q13.25 -12.8 13.45 -12.8 13.55 -12.8 13.6 -12.85" fill="#ffffff" fill-rule="evenodd" stroke="none"/>
    <path d="M19.9 -18.95 Q20.0 -18.75 19.9 -18.6 L20.05 -18.4 19.95 -18.2 19.95 -17.85 19.9 -17.8 19.8 -17.8 19.75 -17.9 Q19.6 -18.1 18.75 -19.65 L18.5 -20.15 18.4 -20.25 Q17.95 -20.8 17.9 -20.9 L17.85 -20.9 17.65 -20.85 Q18.45 -19.65 19.0 -18.4 19.7 -16.7 19.6 -15.5 L19.55 -15.4 Q19.3 -15.8 19.15 -16.75 19.0 -17.7 18.75 -18.2 18.5 -18.65 18.1 -19.6 L17.6 -20.85 Q17.5 -20.8 17.45 -20.75 L17.3 -20.8 Q17.25 -20.85 17.25 -20.95 17.25 -21.25 17.7 -21.25 L18.1 -21.2 18.85 -20.2 Q19.5 -19.4 19.9 -18.95" fill="#bda788" fill-rule="evenodd" stroke="none"/>
    <path d="M13.95 -13.35 L13.95 -13.5 Q13.85 -13.7 13.85 -14.15 13.9 -14.75 13.7 -14.95 13.4 -14.95 13.3 -14.9 L13.2 -14.8 Q13.15 -14.8 13.15 -14.85 13.1 -14.85 13.1 -15.0 13.1 -15.25 13.2 -15.4 L13.3 -15.45 Q13.3 -15.55 13.4 -15.5 L13.7 -15.35 Q14.05 -15.1 14.2 -14.65 L14.2 -14.55 Q14.3 -14.3 14.3 -14.1 L14.3 -13.7 14.25 -13.6 14.15 -13.3 14.0 -13.3 13.95 -13.35" fill="#a28359" fill-rule="evenodd" stroke="none"/>
  </g>
</svg>
