<?xml version="1.0" encoding="UTF-8" standalone="no"?>
<svg xmlns:ffdec="https://www.free-decompiler.com/flash" xmlns:xlink="http://www.w3.org/1999/xlink" ffdec:objectType="shape" height="16.0px" width="16.95px" xmlns="http://www.w3.org/2000/svg">
  <g transform="matrix(1.0, 0.0, 0.0, 1.0, -11.5, 20.7)">
    <path d="M17.75 -17.8 Q17.1 -18.0 16.25 -18.0 L16.15 -18.0 Q15.3 -17.7 14.6 -17.2 L14.35 -16.95 Q13.85 -16.4 13.55 -15.8 L13.55 -15.75 Q13.85 -15.6 14.05 -15.15 L14.25 -14.65 14.3 -14.55 14.4 -14.3 14.4 -14.25 14.55 -13.9 14.55 -13.8 14.5 -13.7 14.45 -13.7 14.5 -13.25 Q14.5 -12.95 14.4 -12.65 14.4 -12.2 13.65 -11.5 12.9 -10.8 12.9 -10.45 12.9 -10.35 13.0 -10.25 13.1 -10.1 13.3 -9.85 L14.1 -9.2 14.1 -9.15 14.1 -9.05 Q13.35 -9.05 12.95 -9.6 12.65 -10.05 12.65 -10.45 12.65 -10.85 12.9 -11.15 L13.35 -11.6 Q13.6 -11.8 13.8 -12.0 13.4 -12.1 13.2 -12.6 L13.15 -12.8 13.1 -12.8 12.9 -12.4 12.6 -12.05 Q12.05 -11.4 12.05 -10.65 12.05 -10.45 12.35 -9.15 L12.5 -8.5 12.7 -8.05 12.85 -7.7 13.45 -6.45 Q13.7 -5.95 14.05 -5.5 L14.1 -5.45 14.45 -5.2 Q16.2 -5.55 17.4 -5.95 17.95 -6.05 19.45 -6.7 L20.15 -7.0 20.55 -7.2 20.65 -7.15 20.7 -7.15 20.75 -7.1 21.35 -6.7 Q21.9 -6.25 22.45 -6.2 23.55 -6.4 24.15 -7.5 L24.3 -7.9 Q24.5 -8.45 24.5 -9.0 24.5 -9.3 24.45 -9.45 24.3 -9.85 23.95 -9.95 23.85 -10.15 23.55 -10.15 L23.45 -10.15 23.2 -10.05 Q22.35 -9.75 22.0 -9.55 21.75 -9.35 21.5 -8.95 L21.05 -8.4 21.0 -8.5 Q21.0 -8.8 21.25 -9.1 L21.25 -9.15 20.3 -10.55 Q19.9 -11.2 19.65 -11.65 19.4 -12.15 19.4 -12.4 19.4 -12.5 19.45 -12.5 L19.5 -12.55 Q19.55 -12.85 19.85 -13.7 20.25 -14.75 20.25 -15.1 20.25 -15.4 20.15 -15.7 L19.9 -16.2 Q19.75 -16.5 19.5 -16.75 18.8 -17.5 17.75 -17.8 M15.85 -6.7 L15.75 -6.75 15.65 -6.75 15.5 -6.8 14.95 -6.75 Q14.0 -6.75 13.4 -7.4 13.2 -7.6 13.05 -7.85 12.95 -8.05 12.95 -8.1 12.95 -8.2 12.95 -8.25 L13.0 -8.25 13.15 -8.15 Q13.55 -8.1 14.65 -7.6 15.85 -7.05 16.1 -6.9 L16.1 -6.85 16.15 -6.75 Q16.2 -6.7 16.0 -6.7 L15.85 -6.7 M18.55 -10.75 Q18.55 -10.6 18.45 -10.55 18.3 -10.45 17.9 -10.45 16.8 -10.45 16.25 -11.25 16.05 -11.5 15.95 -11.8 15.9 -11.95 15.9 -12.05 L15.9 -12.25 15.7 -12.4 15.35 -12.75 15.3 -12.85 15.35 -12.85 Q15.35 -13.3 15.95 -13.15 L16.05 -13.25 16.15 -13.3 Q16.5 -13.65 16.75 -13.7 L16.8 -13.75 17.0 -13.75 16.85 -13.9 Q16.35 -14.3 15.95 -14.3 15.65 -14.3 15.5 -14.1 L15.35 -13.9 15.3 -13.9 15.3 -14.15 15.3 -14.2 Q15.25 -14.2 15.25 -14.35 15.25 -15.25 16.4 -14.65 16.85 -14.45 17.6 -13.85 L17.8 -13.7 18.5 -12.8 Q18.75 -12.3 18.9 -11.85 L18.7 -12.0 18.35 -12.35 17.65 -13.15 17.35 -13.45 17.25 -13.5 Q16.8 -13.5 16.35 -13.25 L16.15 -13.15 16.15 -13.1 16.2 -13.1 16.5 -13.0 Q17.15 -12.7 17.65 -12.3 L17.75 -12.2 18.15 -11.85 18.2 -11.75 18.35 -11.55 18.4 -11.5 18.25 -11.55 18.35 -11.45 Q18.55 -11.15 18.6 -10.95 L18.65 -10.9 18.6 -10.75 18.55 -10.8 18.55 -10.75 M12.6 -14.2 L12.6 -15.1 Q12.6 -15.55 12.9 -16.1 13.25 -16.75 13.9 -17.3 15.5 -18.75 18.0 -18.9 18.9 -18.95 19.9 -18.7 20.8 -18.65 21.2 -18.5 L21.6 -18.3 21.8 -18.25 Q22.3 -18.25 23.25 -17.55 L23.8 -17.05 23.8 -17.15 23.75 -17.7 Q23.75 -18.65 24.1 -19.3 24.25 -19.8 24.55 -20.15 25.2 -20.95 26.15 -20.6 27.1 -20.3 27.75 -19.15 28.45 -17.85 28.45 -16.2 L28.45 -15.65 Q28.4 -15.35 28.25 -15.2 L28.15 -14.85 Q27.75 -13.65 26.45 -13.65 25.9 -13.65 25.35 -14.05 L25.3 -14.1 Q25.5 -13.3 25.5 -12.9 25.5 -12.2 25.05 -11.3 24.75 -10.6 24.4 -10.3 24.85 -10.0 24.85 -9.15 L24.85 -8.85 Q24.85 -8.5 24.75 -8.1 L24.5 -7.35 Q23.9 -5.85 22.5 -5.85 L22.2 -5.85 Q21.35 -5.85 20.95 -6.45 L20.45 -6.8 19.05 -6.15 18.3 -5.8 Q17.95 -5.65 17.3 -5.5 16.3 -5.1 15.2 -4.75 L14.5 -4.75 Q14.5 -4.7 14.35 -4.7 13.85 -4.7 13.2 -5.85 12.75 -6.5 12.3 -7.4 11.5 -9.15 11.5 -10.35 11.5 -11.25 11.95 -11.85 12.4 -12.45 12.7 -13.15 12.65 -13.3 12.65 -13.65 L12.5 -13.7 12.35 -14.1 12.55 -14.2 12.6 -14.2 M14.05 -14.35 L14.0 -14.5 13.8 -14.65 Q13.55 -14.85 13.35 -14.85 L13.2 -14.85 Q13.15 -14.5 13.1 -14.1 L13.3 -14.0 13.35 -14.05 Q13.7 -14.25 14.05 -14.3 L14.1 -14.3 14.1 -14.35 14.05 -14.35 M20.0 -18.1 L19.55 -18.25 18.45 -18.35 18.0 -18.35 Q18.7 -18.05 19.4 -17.35 19.9 -16.85 20.25 -16.25 20.6 -15.65 20.6 -15.35 20.6 -14.1 20.25 -13.3 L20.65 -13.8 Q21.65 -14.9 21.65 -15.95 L21.65 -16.05 Q21.65 -16.55 21.35 -17.0 L21.05 -17.4 Q20.6 -17.85 20.0 -18.1 M20.25 -11.5 L20.3 -11.45 20.3 -11.35 20.45 -11.1 20.55 -10.95 20.6 -10.9 21.2 -10.0 21.25 -9.95 Q21.25 -10.3 21.65 -10.95 L22.55 -12.45 22.55 -12.5 Q22.85 -13.05 23.1 -13.55 L23.3 -13.95 23.35 -14.1 23.45 -14.3 23.45 -14.35 23.5 -14.4 23.55 -14.6 23.8 -15.8 23.85 -15.9 23.85 -16.1 Q23.45 -16.55 22.8 -17.05 L22.25 -17.35 22.2 -17.35 22.1 -17.4 21.05 -17.85 21.3 -17.65 Q21.95 -16.9 21.95 -15.95 21.95 -14.8 20.95 -13.65 L20.3 -12.85 Q20.0 -12.45 20.0 -12.15 20.0 -12.0 20.05 -11.8 L20.25 -11.5 M24.35 -15.45 L24.1 -15.8 24.05 -15.85 Q24.0 -14.55 22.75 -12.55 22.05 -11.4 21.9 -11.05 L21.65 -10.6 21.6 -10.45 21.55 -10.15 21.5 -10.0 21.5 -9.7 21.45 -9.6 21.45 -9.55 21.5 -9.35 21.95 -9.75 Q22.7 -10.3 23.45 -10.4 L23.75 -10.45 23.9 -10.7 24.35 -11.3 Q24.95 -12.3 24.95 -13.2 24.95 -13.6 24.85 -13.95 L24.85 -14.15 Q24.7 -14.85 24.35 -15.45 M18.5 -10.85 L17.45 -11.85 17.3 -11.95 16.95 -12.15 Q17.2 -11.85 17.2 -11.6 L17.15 -11.35 Q17.1 -11.25 16.9 -11.25 16.5 -11.25 16.2 -11.8 L16.1 -12.0 Q16.2 -11.6 16.45 -11.3 17.05 -10.5 18.5 -10.8 L18.5 -10.85 M22.3 -8.2 L22.8 -8.2 Q22.95 -8.05 23.0 -7.95 L23.0 -7.65 Q23.0 -7.4 22.85 -7.1 22.7 -6.75 22.45 -6.55 L22.35 -6.55 Q22.3 -6.6 22.3 -6.7 22.3 -6.75 22.55 -7.1 22.8 -7.4 22.8 -7.65 L22.75 -7.85 22.7 -8.0 Q22.3 -8.0 22.1 -7.8 L21.9 -7.55 21.85 -7.6 21.85 -7.75 Q21.85 -8.45 22.15 -8.95 22.7 -9.75 23.9 -9.35 L23.9 -9.3 22.95 -9.3 Q22.5 -9.1 22.35 -8.7 22.25 -8.55 22.15 -8.1 L22.3 -8.2 M17.0 -11.85 L16.95 -12.05 16.65 -12.05 Q16.65 -12.0 16.65 -11.85 16.65 -11.8 16.8 -11.65 L16.95 -11.7 17.0 -11.85 M13.95 -13.35 L13.95 -13.3 14.15 -12.95 14.25 -13.0 14.3 -12.9 14.35 -13.25 14.25 -14.0 13.9 -14.0 Q13.65 -13.95 13.5 -13.85 13.7 -13.7 13.85 -13.45 L13.95 -13.35 M13.5 -13.15 Q13.45 -13.1 13.45 -13.0 13.45 -12.9 13.5 -12.85 L13.7 -12.85 13.75 -13.0 13.6 -13.15 13.5 -13.15 M13.45 -12.6 Q13.6 -12.35 13.9 -12.2 14.05 -12.45 14.1 -12.8 L14.0 -12.8 13.85 -12.85 13.85 -12.6 13.8 -12.55 13.7 -12.55 Q13.55 -12.55 13.45 -12.6 M13.5 -7.55 Q13.85 -7.15 14.9 -7.05 L14.45 -7.3 Q13.65 -7.7 13.25 -7.95 13.4 -7.65 13.5 -7.55 M26.3 -20.25 Q25.1 -20.25 24.5 -19.25 24.4 -18.95 24.3 -18.6 24.15 -18.05 24.1 -17.4 L24.05 -17.3 Q24.05 -17.05 24.1 -16.8 24.35 -16.5 24.5 -16.25 L24.5 -16.55 Q24.5 -17.45 25.1 -18.55 25.7 -19.75 26.5 -20.2 L26.45 -20.25 26.3 -20.25 M27.4 -18.8 L27.15 -19.4 Q26.85 -19.9 26.55 -20.2 25.55 -19.2 25.1 -18.0 L24.95 -17.6 24.95 -17.55 24.9 -17.45 Q24.75 -16.8 24.65 -16.05 L24.65 -15.95 Q24.8 -15.7 24.95 -15.25 L25.1 -14.9 25.15 -15.15 25.2 -15.2 25.7 -16.6 Q25.75 -16.85 25.95 -17.15 L26.05 -17.25 25.9 -17.0 25.8 -16.55 25.7 -16.3 25.5 -15.55 25.4 -15.1 25.2 -14.5 25.5 -14.35 Q26.05 -14.0 26.4 -14.0 L26.45 -14.0 Q27.1 -14.0 27.5 -14.45 L27.75 -14.8 Q27.95 -15.1 28.0 -15.45 L28.0 -16.35 27.85 -17.4 27.85 -17.45 27.75 -17.85 27.65 -18.2 27.6 -18.3 27.5 -18.3 Q27.2 -18.3 26.95 -18.2 27.3 -18.5 27.5 -18.6 L27.4 -18.8" fill="#000000" fill-rule="evenodd" stroke="none"/>
    <path d="M13.0 -10.25 Q12.9 -10.35 12.9 -10.45 12.9 -10.8 13.65 -11.5 14.4 -12.2 14.4 -12.65 14.5 -12.95 14.5 -13.25 L14.45 -13.7 14.5 -13.7 14.55 -13.8 14.55 -13.9 14.4 -14.25 14.4 -14.3 14.3 -14.55 14.25 -14.65 14.05 -15.15 Q13.85 -15.6 13.55 -15.75 L13.55 -15.8 Q13.85 -16.4 14.35 -16.95 L14.6 -17.2 Q15.3 -17.7 16.15 -18.0 L16.25 -18.0 Q17.1 -18.0 17.75 -17.8 L17.75 -17.7 18.0 -17.1 Q18.2 -16.5 18.2 -15.85 18.2 -15.25 17.9 -14.75 17.65 -14.25 17.6 -13.85 16.85 -14.45 16.4 -14.65 15.25 -15.25 15.25 -14.35 15.25 -14.2 15.3 -14.2 L15.3 -14.15 15.3 -13.95 Q15.3 -13.8 15.35 -13.6 15.5 -13.3 15.7 -13.25 L15.8 -13.2 16.05 -13.25 15.95 -13.15 Q15.35 -13.3 15.35 -12.85 L15.3 -12.85 15.35 -12.75 15.7 -12.4 15.9 -12.25 15.9 -12.05 Q15.9 -11.95 15.95 -11.8 16.05 -11.5 16.25 -11.25 16.8 -10.45 17.9 -10.45 18.3 -10.45 18.45 -10.55 18.55 -10.6 18.55 -10.75 L18.55 -10.7 Q18.75 -10.55 18.9 -10.55 19.05 -10.55 19.15 -10.6 18.95 -9.75 18.45 -9.15 L18.2 -8.85 Q17.4 -7.85 16.1 -6.9 15.85 -7.05 14.65 -7.6 13.55 -8.1 13.15 -8.15 L13.0 -8.25 12.95 -8.25 Q12.95 -8.2 12.95 -8.1 12.95 -8.05 13.05 -7.85 13.2 -7.6 13.4 -7.4 14.0 -6.75 14.95 -6.75 L15.5 -6.8 15.65 -6.75 15.75 -6.75 15.85 -6.7 15.45 -6.45 14.35 -5.65 14.1 -5.45 14.05 -5.5 Q13.7 -5.95 13.45 -6.45 L12.85 -7.7 12.7 -8.05 12.5 -8.5 12.35 -9.15 Q12.05 -10.45 12.05 -10.65 12.05 -11.4 12.6 -12.05 L12.9 -12.4 13.1 -12.8 13.15 -12.8 13.2 -12.6 Q13.4 -12.1 13.8 -12.0 13.6 -11.8 13.35 -11.6 L12.9 -11.15 Q12.65 -10.85 12.65 -10.45 12.65 -10.05 12.95 -9.6 13.35 -9.05 14.1 -9.05 L14.1 -9.15 14.3 -9.15 Q14.7 -9.15 14.7 -9.5 14.7 -9.75 13.8 -10.2 13.1 -10.55 13.0 -10.25 M14.05 -14.3 L14.05 -14.35 14.1 -14.35 14.1 -14.3 14.05 -14.3 M16.15 -13.15 L16.2 -13.1 16.15 -13.1 16.15 -13.15 M17.65 -12.3 L17.75 -12.2 17.65 -12.3 M16.8 -13.75 L16.85 -13.9 17.0 -13.75 16.8 -13.75 M13.85 -13.45 L13.9 -13.5 13.9 -13.4 13.95 -13.35 13.85 -13.45" fill="#92602e" fill-rule="evenodd" stroke="none"/>
    <path d="M13.0 -10.25 Q13.1 -10.55 13.8 -10.2 14.7 -9.75 14.7 -9.5 14.7 -9.15 14.3 -9.15 L14.1 -9.15 14.1 -9.2 13.3 -9.85 Q13.1 -10.1 13.0 -10.25 M14.1 -5.45 L14.35 -5.65 15.45 -6.45 15.85 -6.7 16.0 -6.7 Q16.2 -6.7 16.15 -6.75 L16.1 -6.85 16.1 -6.9 Q17.4 -7.85 18.2 -8.85 L18.45 -9.15 Q18.95 -9.75 19.15 -10.6 19.05 -10.55 18.9 -10.55 18.75 -10.55 18.55 -10.7 L18.55 -10.75 18.55 -10.8 18.6 -10.75 18.65 -10.9 18.6 -10.95 Q18.55 -11.15 18.35 -11.45 L18.25 -11.55 18.4 -11.5 18.35 -11.55 18.2 -11.75 18.15 -11.85 17.75 -12.2 17.65 -12.3 Q17.15 -12.7 16.5 -13.0 L16.2 -13.1 16.15 -13.15 16.35 -13.25 Q16.8 -13.5 17.25 -13.5 L17.35 -13.45 17.65 -13.15 18.35 -12.35 18.7 -12.0 18.9 -11.85 Q18.75 -12.3 18.5 -12.8 L17.8 -13.7 17.6 -13.85 Q17.65 -14.25 17.9 -14.75 18.2 -15.25 18.2 -15.85 18.2 -16.5 18.0 -17.1 L17.75 -17.7 17.75 -17.8 Q18.8 -17.5 19.5 -16.75 19.75 -16.5 19.9 -16.2 L20.15 -15.7 Q20.25 -15.4 20.25 -15.1 20.25 -14.75 19.85 -13.7 19.55 -12.85 19.5 -12.55 L19.45 -12.5 Q19.4 -12.5 19.4 -12.4 19.4 -12.15 19.65 -11.65 19.9 -11.2 20.3 -10.55 L21.25 -9.15 21.25 -9.1 Q21.0 -8.8 21.0 -8.5 L21.05 -8.4 21.5 -8.95 Q21.75 -9.35 22.0 -9.55 22.35 -9.75 23.2 -10.05 L23.45 -10.15 23.55 -10.15 Q23.85 -10.15 23.95 -9.95 24.3 -9.85 24.45 -9.45 24.5 -9.3 24.5 -9.0 24.5 -8.45 24.3 -7.9 L24.15 -7.5 Q23.55 -6.4 22.45 -6.2 21.9 -6.25 21.35 -6.7 L20.75 -7.1 20.7 -7.15 20.65 -7.15 20.55 -7.2 20.15 -7.0 19.45 -6.7 Q17.95 -6.05 17.4 -5.95 16.2 -5.55 14.45 -5.2 L14.1 -5.45 M16.05 -13.25 L15.8 -13.2 15.7 -13.25 Q15.5 -13.3 15.35 -13.6 15.3 -13.8 15.3 -13.95 L15.3 -14.15 15.3 -13.9 15.35 -13.9 15.5 -14.1 Q15.65 -14.3 15.95 -14.3 16.35 -14.3 16.85 -13.9 L16.8 -13.75 16.75 -13.7 Q16.5 -13.65 16.15 -13.3 L16.05 -13.25 M14.05 -14.3 Q13.7 -14.25 13.35 -14.05 L13.3 -14.0 13.1 -14.1 Q13.15 -14.5 13.2 -14.85 L13.35 -14.85 Q13.55 -14.85 13.8 -14.65 L14.0 -14.5 14.05 -14.35 14.05 -14.3 M22.3 -8.2 L22.15 -8.1 Q22.25 -8.55 22.35 -8.7 22.5 -9.1 22.95 -9.3 L23.9 -9.3 23.9 -9.35 Q22.7 -9.75 22.15 -8.95 21.85 -8.45 21.85 -7.75 L21.85 -7.6 21.9 -7.55 22.1 -7.8 Q22.3 -8.0 22.7 -8.0 L22.75 -7.85 22.8 -7.65 Q22.8 -7.4 22.55 -7.1 22.3 -6.75 22.3 -6.7 22.3 -6.6 22.35 -6.55 L22.45 -6.55 Q22.7 -6.75 22.85 -7.1 23.0 -7.4 23.0 -7.65 L23.0 -7.95 Q22.95 -8.05 22.8 -8.2 L22.3 -8.2 M13.85 -13.45 Q13.7 -13.7 13.5 -13.85 13.65 -13.95 13.9 -14.0 L14.25 -14.0 14.35 -13.25 14.3 -12.9 14.25 -13.0 14.15 -12.95 13.95 -13.3 13.95 -13.35 13.9 -13.4 13.9 -13.5 13.85 -13.45 M13.5 -7.55 Q13.4 -7.65 13.25 -7.95 13.65 -7.7 14.45 -7.3 L14.9 -7.05 Q13.85 -7.15 13.5 -7.55" fill="#6a4615" fill-rule="evenodd" stroke="none"/>
    <path d="M20.65 -13.8 L20.25 -13.3 Q20.6 -14.1 20.6 -15.35 20.6 -15.65 20.25 -16.25 19.9 -16.85 19.4 -17.35 18.7 -18.05 18.0 -18.35 L18.45 -18.35 19.55 -18.25 20.0 -18.1 19.95 -17.8 20.4 -16.9 Q20.8 -16.0 20.8 -15.35 L20.6 -14.1 Q20.6 -13.95 20.65 -13.8 M21.35 -17.0 Q21.65 -16.55 21.65 -16.05 21.6 -16.45 21.4 -16.75 L21.35 -17.0 M22.1 -17.4 Q22.1 -17.15 22.4 -16.9 22.75 -16.6 22.75 -16.3 22.75 -15.45 21.5 -13.85 L20.6 -12.7 Q20.2 -12.1 20.2 -11.7 L20.25 -11.5 20.05 -11.8 Q20.0 -12.0 20.0 -12.15 20.0 -12.45 20.3 -12.85 L20.95 -13.65 Q21.95 -14.8 21.95 -15.95 21.95 -16.9 21.3 -17.65 L21.05 -17.85 22.1 -17.4 M21.65 -10.6 L21.9 -11.05 Q22.05 -11.4 22.75 -12.55 24.0 -14.55 24.05 -15.85 L24.1 -15.8 24.35 -15.45 24.3 -15.35 Q23.9 -14.05 23.55 -13.45 23.25 -12.8 22.05 -11.15 L21.65 -10.6 M26.3 -20.25 L26.45 -20.25 26.5 -20.2 Q25.7 -19.75 25.1 -18.55 24.5 -17.45 24.5 -16.55 L24.5 -16.25 Q24.35 -16.5 24.1 -16.8 24.05 -17.05 24.05 -17.3 L24.1 -17.4 Q24.15 -18.05 24.3 -18.6 24.4 -18.95 24.5 -19.25 25.1 -20.25 26.3 -20.25 M27.15 -19.4 Q26.7 -19.45 26.15 -19.05 25.3 -18.45 24.95 -17.6 L25.1 -18.0 Q25.55 -19.2 26.55 -20.2 26.85 -19.9 27.15 -19.4 M24.95 -15.25 L25.2 -15.2 25.15 -15.15 25.1 -14.9 24.95 -15.25 M25.95 -17.15 Q26.25 -17.8 26.95 -18.45 L27.4 -18.8 27.5 -18.6 Q27.3 -18.5 26.95 -18.2 27.2 -18.3 27.5 -18.3 L27.6 -18.3 27.65 -18.2 27.75 -17.85 Q27.45 -17.85 27.05 -17.5 26.6 -17.05 26.25 -16.35 25.85 -15.6 25.85 -14.9 25.85 -14.65 25.95 -14.45 26.1 -14.1 26.45 -14.0 L26.4 -14.0 Q26.05 -14.0 25.5 -14.35 L25.2 -14.5 25.4 -15.1 25.5 -15.55 25.45 -15.35 Q25.65 -15.5 25.75 -16.0 L25.9 -17.0 26.05 -17.25 25.95 -17.15 M28.0 -15.45 Q27.95 -15.1 27.75 -14.8 L27.5 -14.45 Q27.75 -14.75 27.95 -15.3 L28.0 -15.45" fill="#4a2411" fill-rule="evenodd" stroke="none"/>
    <path d="M20.65 -13.8 Q20.6 -13.95 20.6 -14.1 L20.8 -15.35 Q20.8 -16.0 20.4 -16.9 L19.95 -17.8 20.0 -18.1 Q20.6 -17.85 21.05 -17.4 L21.35 -17.0 21.4 -16.75 Q21.6 -16.45 21.65 -16.05 L21.65 -15.95 Q21.65 -14.9 20.65 -13.8 M22.1 -17.4 L22.2 -17.35 22.25 -17.35 22.8 -17.05 Q23.45 -16.55 23.85 -16.1 L23.85 -15.9 23.8 -15.8 23.55 -14.6 23.5 -14.4 23.45 -14.35 23.45 -14.3 23.35 -14.1 23.3 -13.95 23.1 -13.55 Q22.85 -13.05 22.55 -12.5 L22.55 -12.45 21.65 -10.95 Q21.25 -10.3 21.25 -9.95 L21.2 -10.0 20.6 -10.9 20.55 -10.95 20.45 -11.1 20.3 -11.35 20.3 -11.45 20.25 -11.5 20.2 -11.7 Q20.2 -12.1 20.6 -12.7 L21.5 -13.85 Q22.75 -15.45 22.75 -16.3 22.75 -16.6 22.4 -16.9 22.1 -17.15 22.1 -17.4 M21.65 -10.6 L22.05 -11.15 Q23.25 -12.8 23.55 -13.45 23.9 -14.05 24.3 -15.35 L24.35 -15.45 Q24.7 -14.85 24.85 -14.15 L24.85 -13.95 Q24.95 -13.6 24.95 -13.2 24.95 -12.3 24.35 -11.3 L23.9 -10.7 23.75 -10.45 23.45 -10.4 Q22.7 -10.3 21.95 -9.75 L21.5 -9.35 21.45 -9.55 21.45 -9.6 21.5 -9.7 21.5 -10.0 21.55 -10.15 21.6 -10.45 21.65 -10.6 M27.15 -19.4 L27.4 -18.8 26.95 -18.45 Q26.25 -17.8 25.95 -17.15 25.75 -16.85 25.7 -16.6 L25.2 -15.2 24.95 -15.25 Q24.8 -15.7 24.65 -15.95 L24.65 -16.05 Q24.75 -16.8 24.9 -17.45 L24.95 -17.55 24.95 -17.6 Q25.3 -18.45 26.15 -19.05 26.7 -19.45 27.15 -19.4 M27.75 -17.85 L27.85 -17.45 27.85 -17.4 28.0 -16.35 28.0 -15.45 27.95 -15.3 Q27.75 -14.75 27.5 -14.45 27.1 -14.0 26.45 -14.0 26.1 -14.1 25.95 -14.45 25.85 -14.65 25.85 -14.9 25.85 -15.6 26.25 -16.35 26.6 -17.05 27.05 -17.5 27.45 -17.85 27.75 -17.85 M25.5 -15.55 L25.7 -16.3 25.8 -16.55 25.9 -17.0 25.75 -16.0 Q25.65 -15.5 25.45 -15.35 L25.5 -15.55" fill="#32180c" fill-rule="evenodd" stroke="none"/>
    <path d="M18.5 -10.85 L18.5 -10.8 Q17.05 -10.5 16.45 -11.3 16.2 -11.6 16.1 -12.0 L16.2 -11.8 Q16.5 -11.25 16.9 -11.25 17.1 -11.25 17.15 -11.35 L17.2 -11.6 Q17.2 -11.85 16.95 -12.15 L17.3 -11.95 17.45 -11.85 18.5 -10.85 M17.0 -11.85 L16.95 -11.7 16.8 -11.65 Q16.65 -11.8 16.65 -11.85 16.65 -12.0 16.65 -12.05 L16.95 -12.05 17.0 -11.85 M13.5 -13.15 L13.6 -13.15 13.75 -13.0 13.7 -12.85 13.5 -12.85 Q13.45 -12.9 13.45 -13.0 13.45 -13.1 13.5 -13.15 M13.45 -12.6 Q13.55 -12.55 13.7 -12.55 L13.8 -12.55 13.85 -12.6 13.85 -12.85 14.0 -12.8 14.1 -12.8 Q14.05 -12.45 13.9 -12.2 13.6 -12.35 13.45 -12.6" fill="#d4d4d4" fill-rule="evenodd" stroke="none"/>
    <path d="M14.0 -14.5 Q14.35 -14.0 14.35 -13.3 L14.3 -13.05 Q14.5 -13.05 14.85 -12.85 15.25 -12.55 15.55 -12.25 15.6 -13.0 16.1 -13.55 16.6 -14.15 17.35 -14.2 18.05 -14.25 18.6 -13.7 19.15 -13.05 19.15 -11.8 19.15 -11.45 19.0 -11.05 19.25 -10.9 20.4 -10.5 21.65 -10.0 21.8 -9.7 L21.75 -9.65 Q20.85 -9.85 19.95 -10.2 19.05 -10.6 18.95 -10.85 L18.8 -10.5 Q18.25 -9.5 17.2 -9.5 16.1 -9.5 15.7 -10.7 15.5 -11.3 15.5 -11.9 L15.5 -12.0 15.3 -12.3 Q15.0 -12.8 14.75 -12.8 14.4 -12.8 14.25 -12.6 L14.1 -12.2 Q13.75 -11.3 13.1 -11.3 12.45 -11.3 12.2 -12.1 12.05 -12.55 12.05 -13.0 12.05 -13.95 12.4 -14.45 12.7 -14.95 13.2 -14.9 13.65 -14.9 14.0 -14.5 M13.2 -14.65 Q12.8 -14.7 12.55 -14.3 12.3 -13.85 12.3 -13.0 12.3 -12.6 12.4 -12.25 12.65 -11.55 13.15 -11.55 13.55 -11.55 13.9 -12.35 L14.0 -12.65 14.1 -12.9 14.1 -13.1 Q14.1 -13.75 13.85 -14.2 13.55 -14.6 13.2 -14.65 M18.05 -13.85 Q16.55 -14.0 16.05 -13.1 15.8 -12.7 15.8 -11.9 L15.8 -11.8 Q15.8 -11.2 15.95 -10.8 16.35 -9.8 17.5 -9.8 18.25 -9.8 18.65 -10.8 18.8 -11.3 18.85 -11.8 L18.85 -12.0 Q18.85 -12.2 18.75 -12.55 18.7 -12.9 18.6 -13.2 18.4 -13.65 18.1 -13.75 L18.05 -13.8 18.05 -13.85" fill="#000000" fill-rule="evenodd" stroke="none"/>
    <path d="M12.65 -14.1 Q12.55 -13.9 12.55 -13.6 12.5 -13.5 12.55 -13.45 12.6 -13.3 12.8 -13.3 12.85 -13.3 13.05 -13.7 13.3 -14.1 13.3 -14.15 13.3 -14.35 13.15 -14.4 13.05 -14.45 12.9 -14.35 L12.8 -14.25 Q12.7 -14.25 12.65 -14.1 M18.05 -13.85 L18.05 -13.8 18.1 -13.75 Q18.4 -13.65 18.6 -13.2 18.7 -12.9 18.75 -12.55 18.85 -12.2 18.85 -12.0 L18.85 -11.8 Q18.8 -11.3 18.65 -10.8 18.25 -9.8 17.5 -9.8 16.35 -9.8 15.95 -10.8 15.8 -11.2 15.8 -11.8 L15.8 -11.9 Q15.8 -12.7 16.05 -13.1 16.55 -14.0 18.05 -13.85 M13.2 -14.65 Q13.55 -14.6 13.85 -14.2 14.1 -13.75 14.1 -13.1 L14.1 -12.9 14.0 -12.65 13.9 -12.35 Q13.55 -11.55 13.15 -11.55 12.65 -11.55 12.4 -12.25 12.3 -12.6 12.3 -13.0 12.3 -13.85 12.55 -14.3 12.8 -14.7 13.2 -14.65 M16.25 -12.8 L16.2 -12.7 Q16.2 -12.4 16.45 -12.4 17.55 -13.2 17.55 -13.35 17.55 -13.8 16.95 -13.4 L16.9 -13.4 Q16.35 -13.05 16.25 -12.8" fill="#cbd2ed" fill-opacity="0.44705883" fill-rule="evenodd" stroke="none"/>
    <path d="M12.65 -14.1 L12.65 -14.05 Q12.65 -13.95 12.7 -13.9 L12.8 -13.85 12.9 -14.0 Q12.95 -14.1 12.95 -14.15 L12.95 -14.25 12.9 -14.3 12.8 -14.25 12.9 -14.35 Q13.05 -14.45 13.15 -14.4 13.3 -14.35 13.3 -14.15 13.3 -14.1 13.05 -13.7 12.85 -13.3 12.8 -13.3 12.6 -13.3 12.55 -13.45 12.5 -13.5 12.55 -13.6 12.55 -13.9 12.65 -14.1 M16.25 -12.8 Q16.35 -12.65 16.55 -12.65 16.7 -12.65 16.9 -12.8 17.1 -13.0 17.1 -13.1 17.1 -13.35 16.95 -13.4 17.55 -13.8 17.55 -13.35 17.55 -13.2 16.45 -12.4 16.2 -12.4 16.2 -12.7 L16.25 -12.8" fill="#c9c9c9" fill-opacity="0.64705884" fill-rule="evenodd" stroke="none"/>
    <path d="M12.8 -14.25 L12.9 -14.3 12.95 -14.25 12.95 -14.15 Q12.95 -14.1 12.9 -14.0 L12.8 -13.85 12.7 -13.9 Q12.65 -13.95 12.65 -14.05 L12.65 -14.1 Q12.7 -14.25 12.8 -14.25 M16.95 -13.4 Q17.1 -13.35 17.1 -13.1 17.1 -13.0 16.9 -12.8 16.7 -12.65 16.55 -12.65 16.35 -12.65 16.25 -12.8 16.35 -13.05 16.9 -13.4 L16.95 -13.4" fill="#ffffff" fill-rule="evenodd" stroke="none"/>
  </g>
</svg>
