<?xml version="1.0" encoding="UTF-8" standalone="no"?>
<svg xmlns:ffdec="https://www.free-decompiler.com/flash" xmlns:xlink="http://www.w3.org/1999/xlink" ffdec:objectType="shape" height="17.65px" width="22.4px" xmlns="http://www.w3.org/2000/svg">
  <g transform="matrix(1.0, 0.0, 0.0, 1.0, -8.5, 17.9)">
    <path d="M20.5 -17.15 L15.85 -16.8 14.6 -16.9 14.45 -16.95 13.35 -17.15 12.8 -17.15 12.75 -17.0 Q12.65 -16.75 12.55 -16.15 L12.5 -16.0 Q12.3 -15.05 12.3 -14.8 12.3 -14.25 12.35 -14.1 12.4 -13.95 12.5 -13.6 L12.65 -13.6 13.9 -13.5 15.45 -13.3 Q15.0 -13.45 14.4 -13.75 L14.1 -13.95 13.95 -14.0 13.9 -14.05 13.45 -14.25 14.0 -14.25 14.15 -14.15 14.45 -14.05 Q15.35 -13.5 15.75 -13.4 L17.3 -13.1 18.75 -12.85 19.1 -12.6 Q20.15 -12.1 20.95 -11.95 L20.95 -11.9 21.35 -11.85 21.5 -11.85 21.7 -11.9 22.0 -12.0 22.55 -12.1 23.0 -12.35 23.1 -12.55 23.2 -12.8 23.2 -12.85 23.35 -13.65 Q23.3 -14.0 23.0 -14.55 L22.4 -15.5 Q21.9 -16.25 21.55 -16.65 21.45 -16.7 21.4 -16.8 L21.25 -16.95 21.2 -17.05 Q21.05 -17.15 20.75 -17.15 L20.5 -17.15 M18.55 -15.85 Q18.2 -15.9 17.75 -16.05 L17.0 -16.3 17.05 -16.35 18.8 -16.0 19.65 -15.85 18.55 -15.85 M13.35 -17.55 L14.6 -17.35 17.4 -17.35 18.65 -17.5 19.9 -17.6 Q20.85 -17.6 21.25 -17.45 L21.3 -17.45 Q21.5 -17.35 21.75 -17.05 L21.9 -16.8 Q22.45 -16.3 23.0 -15.55 23.8 -14.35 23.9 -13.65 23.4 -12.95 23.4 -12.5 23.4 -12.4 23.45 -12.3 23.55 -12.15 23.75 -12.15 L23.85 -12.15 Q24.25 -11.75 24.7 -11.15 25.25 -11.15 25.65 -11.6 L25.75 -11.75 26.0 -11.95 26.25 -12.2 26.35 -12.2 26.4 -12.1 26.4 -12.0 Q26.5 -11.85 26.55 -11.55 26.55 -11.2 26.4 -10.9 L26.1 -10.55 Q25.6 -10.0 25.6 -9.95 L26.05 -8.6 26.1 -8.35 Q26.1 -7.45 24.8 -6.7 24.4 -6.35 23.95 -6.25 L23.95 -6.2 23.4 -6.2 Q22.7 -5.4 21.5 -5.4 L20.5 -5.5 20.5 -5.55 Q20.45 -5.55 20.45 -5.65 L20.8 -6.05 Q21.15 -6.4 21.15 -6.7 L21.15 -7.0 20.85 -7.4 Q20.75 -6.35 19.85 -5.3 L18.55 -4.05 18.2 -3.4 Q17.9 -2.95 17.8 -2.35 17.6 -1.95 17.6 -1.05 L17.65 -0.8 17.6 -0.8 17.6 -0.5 Q17.6 -0.45 17.5 -0.45 17.1 -0.45 16.7 -0.9 16.35 -1.25 16.35 -1.4 L16.35 -1.45 16.25 -1.35 16.05 -1.0 15.65 -0.35 15.6 -0.4 15.55 -0.25 Q14.85 -0.3 14.35 -1.3 14.05 -1.8 13.95 -2.2 L14.05 -2.6 14.0 -2.7 13.9 -2.5 Q13.6 -2.0 13.6 -1.55 L13.5 -1.5 13.45 -1.5 Q13.25 -1.5 13.05 -2.15 12.9 -2.45 12.85 -2.8 12.85 -3.3 13.1 -3.75 13.25 -4.1 13.5 -4.25 L13.5 -4.3 13.6 -4.4 Q13.65 -4.5 13.75 -4.55 L13.8 -4.65 13.9 -4.9 13.95 -5.05 Q13.6 -5.05 13.4 -5.35 L13.3 -5.3 13.15 -5.2 12.45 -4.95 Q11.5 -4.4 10.95 -4.25 L10.7 -4.6 10.7 -4.8 10.75 -4.9 Q10.75 -5.0 11.05 -5.4 10.5 -5.5 10.05 -6.2 9.65 -6.8 9.65 -7.15 9.65 -7.35 9.7 -7.75 L9.7 -7.9 9.75 -8.2 Q9.75 -8.35 9.85 -8.55 L9.8 -8.6 9.4 -8.05 8.8 -7.15 Q8.7 -7.15 8.65 -7.2 L8.65 -7.35 Q8.55 -7.5 8.5 -7.75 L8.5 -8.2 Q8.5 -8.85 8.75 -9.4 9.0 -9.85 9.35 -10.05 L11.5 -10.25 11.65 -10.4 Q11.7 -10.5 11.7 -10.65 L11.9 -10.85 11.6 -11.0 Q11.45 -11.0 10.35 -11.6 9.9 -11.85 9.6 -12.0 L9.15 -12.2 9.1 -12.3 9.4 -12.6 9.6 -12.65 Q10.2 -13.1 12.05 -13.45 L12.1 -13.4 12.2 -13.4 Q12.05 -13.6 11.95 -14.0 11.85 -14.35 11.8 -14.7 L11.8 -14.85 Q12.0 -15.9 12.45 -16.9 L12.75 -17.45 12.85 -17.45 12.9 -17.5 12.85 -17.55 13.0 -17.55 13.05 -17.6 13.05 -17.55 13.35 -17.55 M17.1 -15.95 L15.55 -16.2 13.65 -16.55 15.4 -16.4 Q15.95 -16.3 17.1 -15.95 M9.75 -12.3 L10.85 -11.8 Q11.3 -11.65 11.7 -11.55 L11.85 -11.75 Q12.25 -12.1 12.6 -12.05 12.6 -12.2 12.8 -12.55 L12.6 -12.6 11.65 -12.6 10.55 -12.5 9.9 -12.35 9.75 -12.3 M12.0 -10.3 L11.85 -10.1 Q11.75 -10.05 11.6 -10.0 L11.6 -9.95 11.3 -9.9 10.6 -9.85 Q9.85 -9.8 9.5 -9.6 L9.2 -9.35 Q9.0 -9.05 8.9 -8.75 8.8 -8.5 8.75 -8.25 L8.75 -7.65 9.0 -7.95 9.25 -8.45 Q9.65 -9.0 10.35 -9.3 L10.4 -9.3 10.45 -9.15 10.35 -8.85 10.2 -8.5 10.05 -8.0 10.0 -7.55 10.0 -7.45 10.15 -6.9 10.15 -6.85 Q10.25 -6.65 10.35 -6.5 L10.5 -6.4 10.85 -6.1 10.9 -6.05 10.9 -6.2 10.85 -6.4 Q10.85 -6.6 10.95 -6.75 L11.0 -6.9 Q11.05 -7.0 11.1 -7.05 11.2 -7.0 11.2 -6.9 L11.2 -6.75 11.15 -6.7 Q11.15 -6.5 11.35 -6.15 L11.35 -6.1 11.45 -5.95 11.65 -6.15 Q11.85 -6.25 12.05 -6.5 L12.35 -6.85 12.75 -7.5 Q12.3 -8.85 12.1 -10.4 L12.05 -10.6 12.0 -10.4 12.0 -10.3 M11.05 -6.25 L11.1 -5.9 11.3 -5.7 11.15 -6.0 11.05 -6.3 11.05 -6.25 M13.35 -7.55 L12.9 -6.85 12.4 -6.25 11.55 -5.4 11.3 -5.1 11.25 -5.1 11.1 -4.95 11.05 -4.85 11.05 -4.75 11.1 -4.75 11.1 -4.7 11.15 -4.7 11.2 -4.7 Q11.55 -4.7 13.2 -5.8 L13.2 -5.85 13.4 -5.95 13.45 -6.0 13.6 -6.1 13.7 -6.15 14.15 -6.45 14.4 -6.65 15.9 -8.05 16.0 -8.0 16.3 -7.6 Q16.35 -7.55 16.45 -7.5 17.15 -7.15 17.55 -6.85 L17.6 -6.8 17.7 -6.75 18.05 -6.45 18.3 -6.1 18.35 -6.05 18.35 -5.95 18.45 -5.75 18.65 -5.35 18.65 -5.3 18.7 -5.15 18.7 -4.6 19.8 -5.85 20.15 -6.3 Q20.45 -6.85 20.5 -7.4 L20.5 -7.75 20.55 -7.75 20.2 -8.2 Q20.05 -8.0 20.0 -7.7 20.0 -7.15 19.9 -6.9 L19.85 -6.9 19.7 -7.1 Q19.5 -7.25 19.35 -7.45 19.2 -7.65 19.1 -7.9 L19.0 -8.1 Q18.9 -8.45 18.9 -8.8 L18.95 -9.1 Q19.05 -9.25 19.15 -9.4 L19.55 -9.95 19.8 -10.35 Q19.85 -10.6 19.8 -11.0 L19.8 -11.05 19.5 -11.05 Q19.35 -11.15 18.85 -11.1 L18.15 -10.95 17.95 -10.85 17.45 -10.7 17.4 -10.7 17.25 -10.6 17.35 -10.55 17.45 -10.55 17.5 -10.5 18.05 -10.05 18.05 -10.0 17.95 -10.0 Q17.8 -10.1 17.65 -10.15 L17.65 -10.1 17.6 -10.05 17.65 -9.95 17.7 -9.75 17.7 -9.5 17.55 -9.2 17.4 -9.05 Q17.3 -8.9 17.1 -8.85 L16.8 -8.8 Q15.85 -8.8 15.35 -9.3 15.2 -9.45 15.05 -9.7 L14.9 -9.6 Q15.1 -9.3 15.6 -8.95 16.2 -8.55 16.7 -8.45 L16.85 -8.45 16.8 -8.25 16.65 -8.3 Q16.3 -8.3 15.95 -8.5 L15.85 -8.55 15.65 -8.75 Q15.3 -9.15 15.0 -9.3 L14.95 -9.35 14.95 -9.4 14.85 -9.55 14.8 -9.55 14.7 -9.5 14.65 -9.45 14.45 -9.45 Q14.3 -9.4 14.15 -9.3 L14.15 -9.25 14.0 -8.9 13.9 -8.65 13.7 -8.3 13.5 -7.85 13.35 -7.55 M14.8 -12.45 L15.5 -12.1 Q15.9 -11.9 16.3 -11.75 L16.35 -11.7 17.5 -11.45 17.7 -11.4 Q19.6 -11.4 20.9 -11.6 L20.8 -11.65 Q20.7 -11.7 20.65 -11.75 18.6 -12.3 18.0 -12.55 L17.9 -12.55 17.5 -12.65 16.5 -12.8 16.4 -12.8 15.35 -12.95 13.5 -13.2 13.25 -13.25 12.8 -13.25 12.75 -13.3 Q12.45 -13.3 12.4 -13.2 11.9 -13.15 11.2 -12.85 L11.65 -12.9 12.6 -12.85 12.75 -12.9 Q13.8 -12.85 14.8 -12.45 M23.55 -11.8 Q23.3 -12.0 22.95 -11.95 L22.3 -11.45 Q21.65 -11.0 21.25 -10.9 L21.2 -11.0 21.75 -11.4 20.7 -11.2 20.2 -11.1 20.2 -11.0 Q20.25 -10.85 20.25 -10.65 20.25 -10.45 19.95 -10.05 L19.75 -9.65 Q19.35 -9.05 19.35 -8.8 L19.35 -8.7 Q19.4 -8.3 19.75 -7.6 19.75 -7.9 19.95 -8.25 L20.0 -8.35 Q19.85 -8.55 19.85 -8.7 19.85 -8.85 19.95 -8.95 L20.4 -8.3 21.2 -7.5 21.3 -7.45 21.3 -7.4 Q21.4 -7.35 21.45 -7.25 21.55 -7.05 21.55 -6.65 21.55 -6.35 21.3 -5.95 L21.1 -5.75 21.05 -5.75 21.7 -5.9 21.9 -5.85 Q22.8 -5.85 23.35 -6.65 L23.65 -7.35 23.95 -8.0 24.05 -8.3 24.05 -8.2 24.15 -8.4 24.2 -8.25 Q24.2 -8.0 24.1 -7.7 L24.1 -7.65 24.05 -7.45 Q23.85 -6.95 23.85 -6.9 L23.85 -6.8 23.75 -6.6 23.75 -6.55 Q24.1 -6.7 24.35 -6.85 L24.75 -7.1 25.3 -7.55 Q25.65 -8.0 25.75 -8.5 25.7 -8.8 25.45 -9.3 25.2 -9.95 25.2 -10.1 L25.2 -10.25 25.15 -10.3 25.2 -10.4 25.2 -10.45 25.35 -10.45 25.5 -10.5 25.5 -10.45 25.7 -10.5 Q26.1 -10.95 26.15 -11.15 26.2 -11.35 26.15 -11.8 26.15 -11.55 25.65 -11.2 L25.6 -11.15 Q25.25 -10.9 24.8 -10.85 L24.45 -10.8 Q24.2 -10.8 24.1 -11.0 L23.95 -11.4 Q23.85 -11.75 23.55 -11.8 M15.5 -10.25 L16.0 -10.45 Q17.1 -10.9 17.8 -11.05 L17.55 -11.15 Q16.6 -11.2 15.85 -11.45 L15.5 -11.1 15.15 -10.85 14.7 -10.35 14.6 -10.2 14.4 -10.15 14.2 -10.15 14.1 -10.15 14.0 -10.25 13.85 -10.3 13.75 -10.4 13.6 -10.7 13.5 -10.8 Q13.1 -11.35 12.85 -11.6 12.65 -11.8 12.5 -11.8 L12.45 -11.8 12.2 -11.65 12.1 -11.55 12.05 -11.45 11.9 -11.25 12.2 -11.1 12.25 -11.05 12.45 -10.95 13.05 -10.55 13.1 -10.45 13.2 -10.4 13.45 -10.2 14.0 -9.75 14.15 -9.6 Q14.25 -9.7 14.45 -9.8 L14.6 -9.85 14.9 -10.0 15.5 -10.25 M18.35 -11.05 L18.25 -11.0 18.4 -11.05 18.35 -11.05 M15.55 -9.4 Q16.0 -9.0 16.5 -9.0 17.35 -9.0 17.5 -9.55 17.55 -9.8 17.45 -10.1 16.85 -10.35 16.75 -10.45 L16.25 -10.2 16.1 -10.15 15.85 -10.15 Q15.75 -10.2 15.6 -10.2 15.2 -10.2 15.2 -9.75 15.15 -9.65 15.2 -9.55 15.25 -9.4 15.5 -9.4 L15.55 -9.4 M15.4 -11.45 L15.55 -11.55 15.4 -11.6 Q14.9 -12.1 14.6 -12.25 14.05 -12.5 13.1 -12.55 L13.1 -12.5 13.05 -12.5 13.05 -12.45 12.9 -12.2 12.8 -12.0 12.9 -11.9 13.0 -11.85 13.1 -11.75 13.35 -11.55 13.65 -11.15 13.85 -10.9 14.15 -10.55 14.15 -10.6 Q14.2 -10.5 14.25 -10.5 L14.3 -10.5 14.3 -10.45 14.5 -10.55 14.7 -10.8 14.75 -10.85 15.0 -11.05 15.2 -11.25 15.2 -11.3 15.25 -11.3 15.3 -11.35 15.3 -11.4 15.35 -11.35 15.4 -11.45 M13.45 -9.7 Q13.45 -9.95 13.4 -10.05 L13.25 -10.05 13.2 -10.15 12.85 -10.15 Q12.85 -10.25 12.85 -10.0 L12.85 -9.65 Q12.85 -9.5 12.9 -9.4 13.0 -9.25 13.35 -8.95 L13.55 -8.95 13.6 -9.15 13.75 -9.45 13.45 -9.7 M12.9 -9.6 Q12.95 -9.5 13.15 -9.35 12.95 -9.35 12.9 -9.5 L12.9 -9.6 M12.4 -10.45 L12.5 -10.2 12.5 -9.75 Q12.6 -9.25 12.65 -9.0 L12.95 -7.85 13.35 -8.55 13.45 -8.8 13.2 -8.9 Q13.15 -9.0 13.0 -9.05 12.9 -9.1 12.85 -9.2 12.65 -9.4 12.65 -9.75 L12.65 -9.8 12.7 -10.1 12.7 -10.15 Q12.7 -10.25 12.75 -10.3 L12.6 -10.45 12.35 -10.65 12.4 -10.45 M15.9 -1.35 L16.15 -1.6 16.35 -1.85 16.3 -1.85 16.35 -1.9 16.35 -2.0 Q16.35 -2.25 16.4 -2.45 L16.45 -2.25 Q16.5 -1.9 16.6 -1.7 L16.65 -1.45 16.75 -1.2 Q17.0 -0.9 17.2 -0.9 17.25 -1.85 17.3 -2.05 17.35 -2.35 17.45 -2.6 17.65 -2.85 17.85 -3.2 18.15 -3.7 18.2 -4.15 L18.25 -4.3 18.35 -4.9 Q18.35 -5.7 17.6 -6.4 L17.25 -6.7 16.6 -7.15 16.2 -7.45 16.05 -7.5 Q15.85 -7.2 13.85 -5.8 L13.45 -5.55 13.55 -5.6 13.6 -5.55 13.6 -5.5 13.65 -5.45 13.75 -5.4 Q13.95 -5.55 14.35 -5.7 14.85 -5.95 15.4 -6.0 L16.3 -6.05 16.55 -6.1 16.8 -6.1 17.35 -6.1 17.5 -5.95 16.95 -5.9 16.6 -5.9 15.6 -5.75 15.0 -5.7 14.45 -5.55 Q14.15 -5.5 14.0 -5.4 L13.9 -5.3 14.05 -5.25 14.1 -5.25 14.1 -5.2 14.15 -5.15 14.15 -5.1 14.2 -5.0 14.2 -4.85 14.3 -4.7 14.35 -4.65 14.7 -4.05 14.7 -4.0 14.85 -3.7 Q14.7 -3.8 14.45 -4.1 14.3 -4.2 14.2 -4.45 L14.1 -4.4 14.1 -4.35 14.05 -4.3 Q13.15 -3.8 13.15 -2.8 13.15 -2.65 13.25 -2.4 L13.4 -2.0 Q13.4 -2.3 13.6 -2.55 13.75 -2.85 14.0 -3.0 L14.0 -3.05 Q14.0 -3.35 14.0 -3.45 14.05 -3.7 14.15 -3.75 L14.2 -3.7 14.2 -3.1 Q14.2 -3.2 14.2 -3.05 L14.2 -3.0 Q14.35 -2.2 14.45 -1.95 14.8 -1.05 15.55 -0.55 L15.55 -0.6 Q15.5 -0.85 15.9 -1.35" fill="#000000" fill-rule="evenodd" stroke="none"/>
    <path d="M18.35 -11.05 L18.4 -11.05 18.25 -11.0 18.35 -11.05 M16.1 -10.15 L16.25 -10.2 16.75 -10.45 Q16.85 -10.35 17.45 -10.1 17.55 -9.8 17.5 -9.55 17.35 -9.0 16.5 -9.0 16.0 -9.0 15.55 -9.4 L15.65 -9.4 Q15.75 -9.35 15.95 -9.35 16.4 -9.35 16.4 -9.7 16.4 -10.1 16.1 -10.15 M13.45 -9.7 L13.75 -9.45 13.6 -9.15 13.55 -8.95 13.35 -8.95 Q13.0 -9.25 12.9 -9.4 12.85 -9.5 12.85 -9.65 L12.9 -9.6 12.9 -9.5 Q12.95 -9.35 13.15 -9.35 L13.2 -9.3 13.35 -9.35 13.4 -9.5 13.45 -9.7" fill="#ffffff" fill-rule="evenodd" stroke="none"/>
    <path d="M11.1 -4.95 L11.15 -4.7 11.1 -4.7 11.1 -4.75 11.05 -4.75 11.05 -4.85 11.1 -4.95 M14.7 -9.5 L14.8 -9.55 14.85 -9.55 14.95 -9.4 14.7 -9.5 M17.35 -10.55 L17.25 -10.6 17.4 -10.7 17.35 -10.55 M20.5 -7.75 L20.5 -7.4 Q20.45 -6.85 20.15 -6.3 L20.5 -7.75 M15.4 -11.6 L15.55 -11.55 15.4 -11.45 15.3 -11.55 15.4 -11.55 15.4 -11.6 M13.05 -12.45 L13.05 -12.5 13.1 -12.5 13.05 -12.45" fill="#cc8f6a" fill-rule="evenodd" stroke="none"/>
    <path d="M17.45 -10.55 L17.35 -10.55 17.4 -10.7 17.45 -10.7 17.45 -10.55 M12.9 -11.9 L12.8 -12.0 12.9 -12.2 Q12.9 -12.05 12.9 -11.9 M12.6 -10.45 L12.4 -10.45 12.35 -10.65 12.6 -10.45" fill="#cf7d4b" fill-rule="evenodd" stroke="none"/>
    <path d="M12.0 -10.4 L12.05 -10.6 12.1 -10.4 12.0 -10.4" fill="#792f24" fill-rule="evenodd" stroke="none"/>
    <path d="M11.3 -9.9 L11.25 -9.85 11.2 -9.85 11.3 -9.9 M12.2 -11.1 L11.9 -11.25 12.05 -11.45 12.1 -11.55 12.1 -11.35 12.2 -11.1 M12.45 -11.8 L12.5 -11.8 Q12.65 -11.8 12.85 -11.6 12.6 -11.75 12.45 -11.8 M14.2 -4.85 L14.2 -5.0 14.15 -5.1 14.15 -5.15 14.1 -5.2 14.1 -5.25 14.05 -5.25 13.9 -5.3 14.0 -5.4 Q14.15 -5.5 14.45 -5.55 L15.0 -5.7 14.2 -4.85 M16.0 -4.25 Q15.8 -3.9 15.6 -3.7 L15.95 -4.2 16.0 -4.25" fill="#59606a" fill-rule="evenodd" stroke="none"/>
    <path d="M13.9 -8.65 L14.0 -8.9 14.15 -9.25 14.15 -9.3 Q14.3 -9.4 14.45 -9.45 L14.65 -9.45 14.7 -9.5 14.95 -9.4 14.95 -9.35 15.0 -9.3 Q15.3 -9.15 15.65 -8.75 L15.85 -8.55 15.95 -8.5 Q16.3 -8.3 16.65 -8.3 L16.8 -8.25 16.85 -8.45 16.7 -8.45 Q16.2 -8.55 15.6 -8.95 15.1 -9.3 14.9 -9.6 L15.05 -9.7 Q15.2 -9.45 15.35 -9.3 15.85 -8.8 16.8 -8.8 L17.1 -8.85 Q17.3 -8.9 17.4 -9.05 L17.55 -9.2 17.7 -9.5 17.7 -9.75 17.65 -9.95 17.6 -10.05 17.65 -10.1 17.65 -10.15 Q17.8 -10.1 17.95 -10.0 L18.05 -10.0 18.05 -10.05 17.5 -10.5 17.45 -10.55 17.45 -10.7 17.95 -10.85 18.15 -10.95 18.85 -11.1 Q19.35 -11.15 19.5 -11.05 L19.8 -11.05 19.8 -11.0 Q19.85 -10.6 19.8 -10.35 L19.55 -9.95 19.15 -9.4 Q19.05 -9.25 18.95 -9.1 L18.9 -8.8 Q18.9 -8.45 19.0 -8.1 L19.1 -7.9 Q19.2 -7.65 19.35 -7.45 19.5 -7.25 19.7 -7.1 L19.85 -6.9 19.9 -6.9 Q20.0 -7.15 20.0 -7.7 20.05 -8.0 20.2 -8.2 L20.55 -7.75 20.5 -7.75 20.15 -6.3 19.8 -5.85 18.7 -4.6 18.7 -5.15 18.65 -5.3 18.65 -5.35 18.45 -5.75 Q18.6 -6.2 18.6 -6.45 18.6 -6.9 18.45 -7.75 L18.4 -7.95 18.4 -8.1 18.3 -8.7 Q18.05 -8.55 17.85 -8.4 L17.8 -8.4 17.65 -8.3 17.45 -8.25 Q16.9 -8.0 16.35 -8.0 L15.9 -8.05 14.4 -6.65 14.2 -7.25 14.3 -7.4 14.6 -7.95 Q14.6 -8.1 14.15 -8.45 L13.9 -8.65 M15.4 -11.6 L15.4 -11.55 15.3 -11.55 15.4 -11.45 15.35 -11.35 15.3 -11.4 15.3 -11.35 15.25 -11.3 15.2 -11.3 15.2 -11.25 15.0 -11.05 14.75 -10.85 14.75 -10.9 Q14.75 -11.25 14.2 -11.35 13.75 -11.45 13.65 -11.15 L13.35 -11.55 13.1 -11.75 13.0 -11.85 12.9 -11.9 Q12.9 -12.05 12.9 -12.2 L13.05 -12.45 13.1 -12.5 13.1 -12.55 Q14.05 -12.5 14.6 -12.25 14.9 -12.1 15.4 -11.6 M12.6 -10.45 L12.75 -10.3 Q12.7 -10.25 12.7 -10.15 L12.7 -10.1 12.65 -9.8 12.65 -9.75 Q12.65 -9.4 12.85 -9.2 12.9 -9.1 13.0 -9.05 13.15 -9.0 13.2 -8.9 L13.45 -8.8 13.35 -8.55 12.95 -7.85 12.65 -9.0 Q12.6 -9.25 12.5 -9.75 L12.5 -10.2 12.4 -10.45 12.6 -10.45" fill="#d18252" fill-rule="evenodd" stroke="none"/>
    <path d="M16.1 -10.15 Q16.4 -10.1 16.4 -9.7 16.4 -9.35 15.95 -9.35 15.75 -9.35 15.65 -9.4 L15.55 -9.4 15.5 -9.4 Q15.25 -9.4 15.2 -9.55 15.15 -9.65 15.2 -9.75 15.2 -10.2 15.6 -10.2 15.75 -10.2 15.85 -10.15 L16.1 -10.15 M12.85 -9.65 L12.85 -10.0 Q12.85 -10.25 12.85 -10.15 L13.2 -10.15 13.25 -10.05 13.4 -10.05 Q13.45 -9.95 13.45 -9.7 L13.4 -9.5 13.35 -9.35 13.2 -9.3 13.15 -9.35 Q12.95 -9.5 12.9 -9.6 L12.85 -9.65" fill="#040404" fill-rule="evenodd" stroke="none"/>
    <path d="M12.0 -10.3 L12.0 -10.4 12.1 -10.4 Q12.3 -8.85 12.75 -7.5 L12.35 -6.85 12.05 -6.5 Q11.85 -6.25 11.65 -6.15 L11.45 -5.95 11.35 -6.1 11.35 -6.15 Q11.15 -6.5 11.15 -6.7 L11.2 -6.75 11.2 -6.9 Q11.2 -7.0 11.1 -7.05 11.05 -7.0 11.0 -6.9 L10.95 -6.75 Q10.85 -6.6 10.85 -6.4 L10.9 -6.2 10.9 -6.05 10.85 -6.1 10.5 -6.4 10.35 -6.5 Q10.25 -6.65 10.15 -6.85 10.25 -6.85 10.3 -6.9 L10.35 -6.95 Q10.35 -7.35 11.2 -8.6 12.05 -9.8 12.05 -10.1 12.05 -10.25 12.0 -10.3 M21.3 -7.45 L21.7 -8.0 Q22.2 -8.75 22.5 -9.5 22.4 -8.85 22.8 -8.85 23.15 -8.85 23.4 -9.45 23.55 -9.85 23.55 -10.15 23.55 -11.1 23.0 -11.5 L22.9 -11.55 Q23.05 -11.8 23.45 -11.8 L23.55 -11.8 Q23.85 -11.75 23.95 -11.4 L24.1 -11.0 Q24.2 -10.8 24.45 -10.8 L24.8 -10.85 Q25.25 -10.9 25.6 -11.15 L25.65 -11.2 Q26.15 -11.55 26.15 -11.8 26.2 -11.35 26.15 -11.15 26.1 -10.95 25.7 -10.5 L25.5 -10.45 25.5 -10.5 25.35 -10.45 25.2 -10.45 25.2 -10.4 25.15 -10.3 25.2 -10.25 25.2 -10.1 Q25.2 -9.95 25.45 -9.3 25.7 -8.8 25.75 -8.5 25.65 -8.0 25.3 -7.55 L24.75 -7.1 24.35 -6.85 Q24.1 -6.7 23.75 -6.55 L23.75 -6.6 23.85 -6.8 23.85 -6.9 Q23.85 -6.95 24.05 -7.45 L24.1 -7.65 24.1 -7.7 Q24.2 -8.0 24.2 -8.25 L24.15 -8.4 24.05 -8.2 24.05 -8.3 23.95 -8.0 23.65 -7.35 23.35 -6.65 Q22.8 -5.85 21.9 -5.85 L21.7 -5.9 21.05 -5.75 21.1 -5.75 21.3 -5.95 Q21.55 -6.35 21.55 -6.65 21.55 -7.05 21.45 -7.25 21.4 -7.35 21.3 -7.4 L21.3 -7.45 M15.5 -11.1 L15.85 -11.45 Q16.6 -11.2 17.55 -11.15 L17.8 -11.05 Q17.1 -10.9 16.0 -10.45 L15.5 -10.25 Q15.85 -10.55 15.85 -10.7 15.85 -11.1 15.5 -11.1 M14.6 -9.85 L14.45 -9.8 Q14.25 -9.7 14.15 -9.6 L14.0 -9.75 13.45 -10.2 13.2 -10.4 13.1 -10.45 Q13.3 -10.5 13.45 -10.6 L13.6 -10.7 13.75 -10.4 13.85 -10.3 14.0 -10.25 14.1 -10.15 14.2 -10.15 Q14.2 -10.0 14.35 -9.95 14.45 -9.9 14.6 -9.85 M15.4 -6.0 Q14.85 -5.95 14.35 -5.7 13.95 -5.55 13.75 -5.4 L13.65 -5.45 13.6 -5.5 13.6 -5.55 13.55 -5.6 13.45 -5.55 13.85 -5.8 Q15.85 -7.2 16.05 -7.5 L16.2 -7.45 16.6 -7.15 17.25 -6.7 17.6 -6.4 Q18.35 -5.7 18.35 -4.9 L18.25 -4.3 18.2 -4.15 Q18.15 -3.7 17.85 -3.2 17.65 -2.85 17.45 -2.6 17.35 -2.35 17.3 -2.05 17.25 -1.85 17.2 -0.9 17.0 -0.9 16.75 -1.2 L16.65 -1.45 16.6 -1.7 Q16.5 -1.9 16.45 -2.25 L16.4 -2.45 Q16.35 -2.25 16.35 -2.0 L16.35 -1.9 16.3 -1.85 16.35 -1.85 16.15 -1.6 15.9 -1.35 15.9 -1.95 Q15.95 -2.35 16.15 -2.55 16.5 -2.95 16.9 -3.7 17.3 -4.5 17.3 -4.95 17.3 -5.5 16.95 -5.9 L17.5 -5.95 17.35 -6.1 16.8 -6.1 Q16.65 -6.25 16.55 -6.15 16.3 -6.7 15.4 -6.0" fill="#3c4046" fill-rule="evenodd" stroke="none"/>
    <path d="M11.3 -9.9 L11.2 -9.85 11.25 -9.85 11.3 -9.9 11.6 -9.95 11.6 -10.0 Q11.75 -10.05 11.85 -10.1 L12.0 -10.3 Q12.05 -10.25 12.05 -10.1 12.05 -9.8 11.2 -8.6 10.35 -7.35 10.35 -6.95 L10.3 -6.9 Q10.25 -6.85 10.15 -6.85 L10.15 -6.9 10.0 -7.45 10.0 -7.55 10.05 -8.0 10.2 -8.5 10.35 -8.85 10.45 -9.15 10.4 -9.3 10.35 -9.3 Q9.65 -9.0 9.25 -8.45 L9.0 -7.95 8.75 -7.65 8.75 -8.25 Q8.8 -8.5 8.9 -8.75 9.0 -9.05 9.2 -9.35 L9.5 -9.6 Q9.85 -9.8 10.6 -9.85 L11.3 -9.9 M21.3 -7.45 L21.2 -7.5 20.4 -8.3 19.95 -8.95 Q19.85 -8.85 19.85 -8.7 19.85 -8.55 20.0 -8.35 L19.95 -8.25 Q19.75 -7.9 19.75 -7.6 19.4 -8.3 19.35 -8.7 L19.35 -8.8 Q19.35 -9.05 19.75 -9.65 L19.95 -10.05 Q20.25 -10.45 20.25 -10.65 20.25 -10.85 20.2 -11.0 L20.2 -11.1 20.7 -11.2 21.75 -11.4 21.2 -11.0 21.25 -10.9 Q21.65 -11.0 22.3 -11.45 L22.95 -11.95 Q23.3 -12.0 23.55 -11.8 L23.45 -11.8 Q23.05 -11.8 22.9 -11.55 L23.0 -11.5 Q23.55 -11.1 23.55 -10.15 23.55 -9.85 23.4 -9.45 23.15 -8.85 22.8 -8.85 22.4 -8.85 22.5 -9.5 22.2 -8.75 21.7 -8.0 L21.3 -7.45 M15.5 -11.1 Q15.85 -11.1 15.85 -10.7 15.85 -10.55 15.5 -10.25 L14.9 -10.0 14.6 -9.85 Q14.45 -9.9 14.35 -9.95 14.2 -10.0 14.2 -10.15 L14.4 -10.15 14.6 -10.2 14.7 -10.35 15.15 -10.85 15.5 -11.1 M13.1 -10.45 L13.05 -10.55 12.45 -10.95 12.25 -11.05 12.2 -11.1 12.1 -11.35 12.1 -11.55 12.2 -11.65 12.45 -11.8 Q12.6 -11.75 12.85 -11.6 13.1 -11.35 13.5 -10.8 L13.6 -10.7 13.45 -10.6 Q13.3 -10.5 13.1 -10.45 M15.4 -6.0 Q16.3 -6.7 16.55 -6.15 16.65 -6.25 16.8 -6.1 L16.55 -6.1 16.3 -6.05 15.4 -6.0 M16.95 -5.9 Q17.3 -5.5 17.3 -4.95 17.3 -4.5 16.9 -3.7 16.5 -2.95 16.15 -2.55 15.95 -2.35 15.9 -1.95 L15.9 -1.35 Q15.5 -0.85 15.55 -0.6 L15.55 -0.55 Q14.8 -1.05 14.45 -1.95 14.35 -2.2 14.2 -3.0 L14.2 -3.05 Q14.2 -3.2 14.2 -3.1 L14.2 -3.7 14.15 -3.75 Q14.05 -3.7 14.0 -3.45 14.0 -3.35 14.0 -3.05 L14.0 -3.0 Q13.75 -2.85 13.6 -2.55 13.4 -2.3 13.4 -2.0 L13.25 -2.4 Q13.15 -2.65 13.15 -2.8 13.15 -3.8 14.05 -4.3 L14.1 -4.35 14.1 -4.4 14.2 -4.45 Q14.3 -4.2 14.45 -4.1 14.7 -3.8 14.85 -3.7 L14.7 -4.0 14.7 -4.05 14.35 -4.65 14.3 -4.7 14.2 -4.85 15.0 -5.7 15.6 -5.75 16.6 -5.9 16.95 -5.9 M16.0 -4.25 L15.95 -4.2 15.6 -3.7 Q15.8 -3.9 16.0 -4.25" fill="#525761" fill-rule="evenodd" stroke="none"/>
    <path d="M14.15 -6.45 L13.65 -7.05 13.35 -7.55 13.5 -7.85 13.7 -8.3 13.9 -8.65 14.15 -8.45 Q14.6 -8.1 14.6 -7.95 L14.3 -7.4 14.2 -7.25 14.4 -6.65 14.15 -6.45 M18.45 -5.75 L18.35 -5.95 18.35 -6.05 18.3 -6.1 18.05 -6.45 17.7 -6.75 17.6 -6.8 17.55 -6.85 Q17.15 -7.15 16.45 -7.5 16.35 -7.55 16.3 -7.6 L16.0 -8.0 15.9 -8.05 16.35 -8.0 Q16.9 -8.0 17.45 -8.25 17.15 -8.0 17.15 -7.6 L17.2 -7.4 Q17.25 -7.2 17.65 -7.2 18.05 -7.2 18.25 -7.5 18.4 -7.75 18.4 -7.95 L18.45 -7.75 Q18.6 -6.9 18.6 -6.45 18.6 -6.2 18.45 -5.75 M17.85 -8.4 Q18.05 -8.55 18.3 -8.7 L18.4 -8.1 18.35 -8.25 Q18.25 -8.5 17.85 -8.4 M14.75 -10.85 L14.7 -10.8 14.5 -10.55 14.3 -10.45 14.3 -10.5 14.25 -10.5 Q14.2 -10.5 14.15 -10.6 L14.15 -10.55 13.85 -10.9 13.65 -11.15 Q13.75 -11.45 14.2 -11.35 14.75 -11.25 14.75 -10.9 L14.75 -10.85" fill="#dda27d" fill-rule="evenodd" stroke="none"/>
    <path d="M12.65 -13.6 L12.5 -13.6 Q12.4 -13.95 12.35 -14.1 12.3 -14.25 12.3 -14.8 12.3 -15.05 12.5 -16.0 L12.55 -16.15 Q12.65 -16.75 12.75 -17.0 L12.8 -17.15 13.35 -17.15 14.45 -16.95 14.6 -16.9 15.85 -16.8 20.5 -17.15 Q20.05 -16.9 19.4 -16.45 L18.8 -16.0 17.05 -16.35 17.0 -16.3 17.75 -16.05 Q18.2 -15.9 18.55 -15.85 17.95 -15.45 17.5 -15.25 16.45 -14.8 14.75 -14.55 14.25 -14.5 14.1 -14.35 L14.0 -14.3 Q13.8 -14.45 13.4 -14.45 12.6 -14.35 12.6 -13.8 12.6 -13.7 12.65 -13.6 M17.1 -15.95 Q15.95 -16.3 15.4 -16.4 L13.65 -16.55 15.55 -16.2 17.1 -15.95 M16.4 -12.8 L15.65 -12.8 Q15.15 -12.85 14.95 -12.7 14.85 -12.65 14.8 -12.45 13.8 -12.85 12.75 -12.9 L12.6 -12.85 11.65 -12.9 11.2 -12.85 Q11.9 -13.15 12.4 -13.2 12.45 -13.3 12.75 -13.3 L12.8 -13.25 13.25 -13.25 13.5 -13.2 15.35 -12.95 16.4 -12.8" fill="#6a536c" fill-rule="evenodd" stroke="none"/>
    <path d="M12.65 -13.6 Q12.6 -13.7 12.6 -13.8 12.6 -14.35 13.4 -14.45 13.8 -14.45 14.0 -14.3 L14.1 -14.35 Q14.25 -14.5 14.75 -14.55 16.45 -14.8 17.5 -15.25 17.95 -15.45 18.55 -15.85 L19.65 -15.85 18.8 -16.0 19.4 -16.45 Q20.05 -16.9 20.5 -17.15 L20.75 -17.15 Q21.05 -17.15 21.2 -17.05 L21.25 -16.95 21.4 -16.8 Q21.45 -16.7 21.55 -16.65 21.9 -16.25 22.4 -15.5 L23.0 -14.55 Q23.3 -14.0 23.35 -13.65 L23.2 -12.85 23.2 -12.8 23.1 -12.55 23.0 -12.35 22.55 -12.1 22.0 -12.0 21.7 -11.9 21.5 -11.85 21.35 -11.85 20.95 -11.9 20.95 -11.95 Q20.15 -12.1 19.1 -12.6 L18.75 -12.85 17.3 -13.1 15.75 -13.4 Q15.35 -13.5 14.45 -14.05 L14.15 -14.15 14.0 -14.25 13.45 -14.25 13.9 -14.05 13.95 -14.0 14.1 -13.95 14.4 -13.75 Q15.0 -13.45 15.45 -13.3 L13.9 -13.5 12.65 -13.6 M16.4 -12.8 L16.5 -12.8 17.5 -12.65 17.9 -12.55 18.0 -12.55 Q18.6 -12.3 20.65 -11.75 20.7 -11.7 20.8 -11.65 L20.9 -11.6 Q19.6 -11.4 17.7 -11.4 L17.5 -11.45 16.35 -11.7 16.3 -11.75 Q15.9 -11.9 15.5 -12.1 L14.8 -12.45 Q14.85 -12.65 14.95 -12.7 15.15 -12.85 15.65 -12.8 L16.4 -12.8" fill="#5a4156" fill-rule="evenodd" stroke="none"/>
    <path d="M9.75 -12.3 L9.9 -12.35 10.55 -12.5 11.65 -12.6 12.6 -12.6 12.8 -12.55 Q12.6 -12.2 12.6 -12.05 12.25 -12.1 11.85 -11.75 L11.7 -11.55 Q11.3 -11.65 10.85 -11.8 L9.75 -12.3" fill="#4a3547" fill-rule="evenodd" stroke="none"/>
    <path d="M11.1 -4.95 L11.25 -5.1 11.3 -5.1 11.55 -5.4 12.4 -6.25 12.9 -6.85 13.35 -7.55 13.65 -7.05 14.15 -6.45 13.7 -6.15 13.6 -6.1 13.45 -6.0 13.4 -5.95 13.2 -5.85 13.2 -5.8 Q11.55 -4.7 11.2 -4.7 L11.15 -4.7 11.1 -4.95 M17.85 -8.4 Q18.25 -8.5 18.35 -8.25 L18.4 -8.1 18.4 -7.95 Q18.4 -7.75 18.25 -7.5 18.05 -7.2 17.65 -7.2 17.25 -7.2 17.2 -7.4 L17.15 -7.6 Q17.15 -8.0 17.45 -8.25 L17.65 -8.3 17.8 -8.4 17.85 -8.4" fill="#ce6d51" fill-rule="evenodd" stroke="none"/>
    <path d="M12.65 -8.95 Q12.9 -8.8 13.15 -8.45 L13.25 -8.6 Q13.45 -8.8 13.75 -8.65 14.05 -8.55 14.3 -8.25 14.4 -8.45 14.5 -8.6 14.8 -8.9 15.2 -8.9 15.65 -8.85 15.95 -8.5 16.25 -8.15 16.25 -7.65 16.25 -7.25 16.1 -6.85 15.8 -6.15 15.1 -6.15 14.55 -6.15 14.3 -6.8 14.2 -7.15 14.2 -7.55 L14.2 -7.75 14.1 -8.05 Q13.9 -8.55 13.7 -8.55 13.35 -8.55 13.3 -8.2 13.4 -7.95 13.4 -7.7 13.4 -7.45 13.2 -7.1 13.0 -6.65 12.65 -6.65 12.2 -6.65 12.0 -7.2 11.9 -7.5 11.9 -7.8 11.9 -8.6 12.1 -8.85 12.3 -9.1 12.65 -8.95 M12.9 -8.55 Q12.75 -8.65 12.65 -8.7 L12.6 -8.7 Q12.1 -8.75 12.1 -7.8 12.15 -7.6 12.25 -7.3 L12.3 -7.15 Q12.45 -6.9 12.6 -6.9 12.95 -6.9 13.05 -7.55 L13.1 -7.55 13.05 -7.65 13.0 -7.95 Q13.0 -8.15 13.05 -8.35 L13.0 -8.45 12.9 -8.55 M15.45 -8.5 L15.4 -8.55 15.35 -8.55 15.3 -8.6 15.15 -8.6 Q14.9 -8.65 14.75 -8.45 14.55 -8.2 14.5 -7.75 L14.5 -7.4 14.5 -7.35 Q14.5 -7.2 14.6 -7.05 L14.6 -6.9 14.65 -6.9 14.7 -6.75 Q14.85 -6.45 15.15 -6.45 15.6 -6.45 15.85 -6.95 16.0 -7.2 16.05 -7.45 16.05 -7.9 15.8 -8.2 15.65 -8.4 15.45 -8.5" fill="#000000" fill-rule="evenodd" stroke="none"/>
    <path d="M12.6 -8.7 L12.5 -8.5 12.1 -7.8 Q12.1 -8.75 12.6 -8.7 M12.3 -7.15 Q12.55 -7.35 12.7 -7.7 12.9 -8.1 12.9 -8.35 L12.9 -8.55 13.0 -8.45 13.05 -8.35 Q13.0 -8.15 13.0 -7.95 L13.05 -7.65 13.1 -7.55 13.05 -7.55 Q12.95 -6.9 12.6 -6.9 12.45 -6.9 12.3 -7.15 M15.45 -8.5 Q15.65 -8.4 15.8 -8.2 16.05 -7.9 16.05 -7.45 16.0 -7.2 15.85 -6.95 15.6 -6.45 15.15 -6.45 14.85 -6.45 14.7 -6.75 L14.75 -6.65 Q14.95 -6.75 15.2 -7.45 15.45 -8.2 15.45 -8.4 L15.45 -8.5 M14.5 -7.4 L14.5 -7.75 Q14.55 -8.2 14.75 -8.45 14.9 -8.65 15.15 -8.6 L15.1 -8.6 14.95 -8.35 Q14.6 -7.8 14.5 -7.4" fill="#a0c2c1" fill-rule="evenodd" stroke="none"/>
    <path d="M12.6 -8.7 L12.65 -8.7 Q12.75 -8.65 12.9 -8.55 L12.9 -8.35 Q12.9 -8.1 12.7 -7.7 12.55 -7.35 12.3 -7.15 L12.25 -7.3 Q12.15 -7.6 12.1 -7.8 L12.5 -8.5 12.6 -8.7 M15.15 -8.6 L15.3 -8.6 15.35 -8.55 15.4 -8.55 15.45 -8.5 15.45 -8.4 Q15.45 -8.2 15.2 -7.45 14.95 -6.75 14.75 -6.65 L14.7 -6.75 14.65 -6.9 14.6 -6.9 14.6 -7.05 Q14.5 -7.2 14.5 -7.35 L14.5 -7.4 Q14.6 -7.8 14.95 -8.35 L15.1 -8.6 15.15 -8.6" fill="#dce9e9" fill-rule="evenodd" stroke="none"/>
    <path d="M22.8 -16.45 L22.85 -16.45 22.85 -16.5 Q24.55 -18.15 27.45 -17.9 L27.95 -17.9 28.0 -17.8 28.35 -17.75 28.3 -17.45 Q27.9 -17.45 27.1 -17.25 L26.9 -17.2 26.5 -17.05 26.85 -17.05 Q28.85 -17.05 29.9 -15.0 30.5 -13.9 30.9 -12.3 L30.9 -12.2 Q30.9 -12.15 30.75 -12.15 30.05 -12.65 29.0 -13.15 26.95 -14.1 25.0 -14.1 23.7 -14.1 22.15 -13.6 21.3 -13.35 20.75 -13.05 L21.05 -12.45 21.05 -12.4 Q21.05 -12.35 20.9 -12.35 20.7 -12.35 20.4 -13.05 20.1 -13.7 20.1 -13.85 L20.1 -14.0 20.3 -14.0 20.6 -13.4 Q21.0 -13.85 21.5 -14.7 22.05 -15.7 22.45 -16.15 L22.8 -16.45 M25.7 -17.55 Q23.9 -17.15 22.3 -15.35 L22.0 -15.05 21.4 -14.2 21.1 -13.8 21.0 -13.65 Q22.0 -14.1 25.0 -14.4 26.2 -14.4 28.1 -13.8 29.25 -13.45 30.3 -12.95 29.8 -14.3 29.3 -15.0 28.75 -15.85 27.65 -16.45 L26.8 -16.9 26.5 -17.0 26.35 -16.95 Q26.8 -16.9 27.2 -16.65 L27.15 -16.6 Q26.6 -16.9 26.45 -16.9 L26.1 -16.85 26.05 -16.85 Q25.15 -16.7 23.95 -15.95 L22.9 -15.25 22.8 -15.2 Q22.35 -14.9 22.15 -14.85 L22.55 -15.15 Q23.9 -16.2 24.35 -16.45 24.85 -16.7 25.25 -16.85 25.65 -16.95 26.0 -17.0 26.0 -17.2 26.8 -17.55 L27.0 -17.6 27.1 -17.65 27.0 -17.65 26.7 -17.65 25.8 -17.55 25.7 -17.55" fill="#000000" fill-rule="evenodd" stroke="none"/>
    <path d="M22.0 -15.05 L22.3 -15.35 Q23.9 -17.15 25.7 -17.55 25.5 -17.35 25.25 -17.1 25.25 -16.95 25.25 -16.85 24.85 -16.7 24.35 -16.45 23.9 -16.2 22.55 -15.15 L22.0 -15.05 M27.0 -17.65 L27.1 -17.65 27.0 -17.6 27.0 -17.65 M22.8 -15.2 L22.9 -15.25 23.95 -15.95 Q25.15 -16.7 26.05 -16.85 L26.1 -16.85 26.45 -16.9 Q26.6 -16.9 27.15 -16.6 L27.2 -16.65 Q26.8 -16.9 26.35 -16.95 L26.5 -17.0 26.8 -16.9 27.65 -16.45 26.05 -16.0 Q24.15 -15.4 23.95 -15.4 L22.8 -15.2" fill="#cb5638" fill-rule="evenodd" stroke="none"/>
    <path d="M22.0 -15.05 L22.55 -15.15 22.15 -14.85 Q22.35 -14.9 22.8 -15.2 L23.95 -15.4 Q24.15 -15.4 26.05 -16.0 L27.65 -16.45 Q28.75 -15.85 29.3 -15.0 29.8 -14.3 30.3 -12.95 29.25 -13.45 28.1 -13.8 26.2 -14.4 25.0 -14.4 22.0 -14.1 21.0 -13.65 L21.1 -13.8 21.4 -14.2 22.0 -15.05 M25.25 -16.85 Q25.25 -16.95 25.25 -17.1 25.5 -17.35 25.7 -17.55 L25.8 -17.55 26.7 -17.65 27.0 -17.65 27.0 -17.6 26.8 -17.55 Q26.0 -17.2 26.0 -17.0 25.65 -16.95 25.25 -16.85" fill="#8e4133" fill-rule="evenodd" stroke="none"/>
  </g>
</svg>
