<?xml version="1.0" encoding="UTF-8" standalone="no"?>
<svg xmlns:ffdec="https://www.free-decompiler.com/flash" xmlns:xlink="http://www.w3.org/1999/xlink" ffdec:objectType="shape" height="28.1px" width="22.75px" xmlns="http://www.w3.org/2000/svg">
  <g transform="matrix(1.0, 0.0, 0.0, 1.0, -3.65, 32.4)">
    <path d="M10.25 -19.45 L10.75 -20.15 10.85 -20.1 10.8 -20.1 10.6 -19.9 10.15 -19.25 10.25 -19.45 M11.9 -19.45 L12.4 -19.15 12.25 -19.15 12.25 -19.2 11.85 -19.3 11.9 -19.45 M14.1 -18.7 L14.3 -18.7 14.25 -18.65 14.1 -18.7 M14.4 -18.95 Q14.3 -18.9 14.15 -18.85 L14.2 -18.95 14.2 -19.15 Q14.3 -19.0 14.4 -18.95 M13.1 -22.2 L13.0 -22.25 13.05 -22.3 13.1 -22.2 M20.2 -16.95 L20.25 -16.8 20.65 -16.1 20.6 -16.0 20.65 -15.95 20.65 -16.05 21.0 -15.15 21.25 -14.5 Q20.95 -14.5 20.75 -14.7 20.9 -14.5 21.05 -14.45 L21.25 -14.45 21.75 -13.05 Q22.45 -11.4 23.15 -10.8 L23.1 -10.55 Q21.95 -10.65 21.25 -11.15 20.9 -11.45 20.7 -11.95 L20.4 -12.45 Q20.4 -13.25 19.85 -13.75 L19.6 -13.9 Q19.2 -14.35 18.55 -14.65 18.0 -14.9 17.4 -14.95 L17.35 -15.0 17.5 -15.2 17.45 -15.2 17.35 -15.15 17.35 -15.2 17.2 -15.2 17.25 -15.25 16.85 -15.65 Q16.65 -15.85 16.5 -16.0 L16.2 -16.8 16.25 -16.7 16.2 -16.85 16.35 -16.65 16.35 -16.55 Q16.35 -16.4 16.5 -16.25 16.6 -16.1 16.8 -15.95 17.45 -15.4 19.05 -15.4 L19.2 -15.5 Q19.75 -15.55 20.0 -15.8 20.35 -16.05 20.35 -16.6 L20.2 -16.95 M12.6 -15.35 L12.5 -15.35 12.6 -15.15 12.4 -15.2 Q11.95 -15.2 11.2 -15.0 L10.85 -14.85 Q10.45 -14.8 10.15 -14.6 9.3 -14.25 8.9 -13.65 L8.8 -13.65 8.65 -13.2 8.6 -13.2 8.6 -13.15 Q8.5 -12.95 8.5 -12.65 L8.4 -12.55 Q8.15 -12.05 7.7 -11.75 7.55 -11.65 7.35 -11.6 7.35 -11.8 7.3 -11.8 L7.2 -11.85 Q7.3 -12.7 7.65 -13.8 L7.75 -13.9 7.95 -14.35 8.0 -14.55 8.2 -15.05 8.65 -16.0 9.0 -16.75 9.25 -17.25 Q9.35 -17.05 9.6 -17.0 L9.85 -17.0 Q10.6 -17.0 11.2 -17.85 11.3 -17.65 11.4 -17.5 11.65 -17.15 12.05 -17.0 L11.65 -16.65 Q11.0 -16.2 11.0 -16.0 L11.5 -15.75 Q12.0 -15.5 12.1 -15.5 12.15 -15.5 13.15 -16.2 L13.55 -16.5 13.45 -16.25 Q13.35 -16.25 13.1 -16.05 L12.6 -15.45 12.6 -15.35 M9.6 -17.0 L9.5 -16.8 9.45 -16.75 9.35 -16.6 9.5 -16.8 9.6 -17.0 M9.25 -16.3 Q9.2 -16.1 9.2 -15.9 9.2 -15.8 9.3 -15.55 L9.25 -15.7 9.35 -15.7 Q9.25 -15.9 9.25 -16.1 L9.25 -16.3 M8.9 -14.6 L8.95 -14.6 9.0 -14.7 8.9 -14.6 M8.1 -13.6 L8.1 -13.55 8.15 -13.3 8.25 -13.6 8.1 -13.6 M8.1 -8.2 L8.25 -8.2 8.45 -8.3 8.5 -8.3 8.95 -8.3 Q9.0 -8.3 9.35 -8.45 L10.2 -8.8 10.45 -8.9 10.95 -9.0 Q11.35 -9.05 11.55 -8.9 L11.6 -9.0 Q11.95 -9.65 13.0 -10.25 13.9 -10.75 15.35 -11.2 L15.85 -9.35 15.9 -9.45 Q16.1 -9.35 16.2 -9.3 L16.25 -9.2 16.35 -9.2 16.0 -9.95 Q15.85 -10.4 15.85 -10.65 15.85 -10.8 15.95 -10.85 L16.1 -10.85 16.15 -10.85 Q16.35 -10.5 17.25 -9.2 L17.35 -9.05 17.4 -9.0 17.5 -8.8 17.55 -8.8 17.7 -8.75 18.15 -8.4 Q19.65 -7.35 21.75 -7.35 L22.1 -7.4 21.95 -7.1 21.45 -6.7 Q20.95 -6.25 20.05 -5.8 19.75 -5.65 19.5 -5.55 18.5 -4.95 17.6 -4.95 L17.05 -4.95 17.0 -4.9 16.05 -4.85 Q14.9 -4.85 13.5 -5.15 12.1 -5.2 10.1 -6.55 9.4 -7.05 8.8 -7.6 L8.55 -7.85 8.15 -8.1 8.1 -8.1 8.1 -8.2 M19.05 -7.4 L19.3 -7.35 19.05 -7.45 19.05 -7.4 M16.1 -6.5 Q15.7 -6.3 14.95 -6.3 L14.15 -6.35 Q13.5 -6.4 12.95 -6.65 12.65 -6.75 12.4 -6.95 11.8 -7.3 11.65 -7.55 11.65 -7.2 12.3 -6.7 13.2 -5.95 14.55 -5.95 15.15 -5.95 15.7 -6.15 16.15 -6.35 16.2 -6.55 L16.1 -6.5" fill="#fccd9e" fill-rule="evenodd" stroke="none"/>
    <path d="M14.35 -23.1 L14.4 -23.15 14.8 -22.5 14.95 -22.3 15.0 -22.25 Q14.65 -22.6 14.5 -22.85 L14.35 -23.1 M13.9 -19.6 L13.9 -19.5 13.75 -19.6 13.9 -19.6 M12.15 -19.9 L12.05 -19.95 11.25 -20.5 11.15 -20.55 11.15 -20.6 12.15 -19.9 M11.6 -21.05 L11.7 -21.1 11.75 -21.0 11.6 -21.05 M9.8 -14.0 L9.35 -13.45 Q9.55 -13.85 9.8 -14.0 M9.3 -8.85 L9.35 -8.95 9.6 -9.4 9.8 -9.8 Q9.65 -9.8 9.55 -9.9 9.55 -9.95 9.5 -10.0 L9.5 -10.1 9.6 -10.15 Q9.7 -10.25 9.7 -10.4 9.7 -10.55 9.6 -10.55 9.65 -10.8 9.85 -11.2 L9.95 -11.4 10.0 -11.45 10.3 -12.0 10.7 -12.6 10.75 -12.65 Q11.1 -13.15 11.35 -13.35 L11.25 -13.4 11.2 -13.4 11.05 -13.35 10.9 -13.35 10.7 -13.3 10.4 -13.25 10.25 -13.25 Q10.4 -13.3 11.1 -13.7 11.85 -14.15 12.2 -14.15 L12.75 -14.15 Q12.9 -14.2 12.9 -14.45 L12.9 -14.65 13.15 -14.5 Q13.3 -14.4 13.4 -14.25 L13.8 -13.95 14.35 -13.45 14.5 -13.45 15.5 -14.0 Q16.7 -14.6 17.0 -14.6 L17.1 -14.7 Q17.8 -14.55 18.35 -14.35 18.2 -14.3 18.2 -14.0 L18.65 -13.35 Q19.1 -12.75 19.2 -12.4 L18.55 -12.85 Q18.05 -13.1 17.65 -13.1 L17.4 -13.05 Q17.65 -12.9 18.1 -12.35 18.5 -11.85 18.85 -11.25 L19.2 -10.7 19.15 -10.4 Q19.05 -10.25 18.9 -10.25 18.8 -10.25 17.9 -11.45 L17.65 -11.75 17.7 -11.65 18.0 -11.1 Q18.25 -10.95 18.55 -10.0 L18.7 -9.55 18.4 -9.75 Q18.35 -9.7 18.35 -9.55 L18.55 -9.15 Q18.65 -8.95 18.65 -8.8 18.65 -8.65 18.8 -8.45 18.4 -8.65 18.1 -8.85 L17.85 -9.0 17.6 -9.2 Q17.5 -9.4 17.4 -9.65 L17.35 -9.8 17.1 -10.45 17.05 -10.45 16.95 -10.7 16.75 -11.1 16.75 -11.15 16.3 -12.2 Q15.8 -12.75 14.7 -12.6 13.5 -12.45 12.7 -11.9 12.25 -11.6 11.85 -11.2 L11.5 -10.8 11.3 -10.55 11.2 -10.45 11.1 -10.3 11.05 -10.2 10.8 -9.75 10.75 -9.75 10.7 -9.6 10.45 -9.45 10.45 -9.4 10.35 -9.35 10.3 -9.3 10.4 -9.5 10.55 -9.85 10.65 -10.1 10.85 -10.5 11.1 -11.15 10.95 -10.95 10.8 -10.5 10.65 -10.2 10.65 -10.1 10.35 -9.55 10.25 -9.25 10.05 -9.15 10.0 -9.1 9.6 -8.95 9.55 -8.9 9.3 -8.85" fill="#9a7e61" fill-rule="evenodd" stroke="none"/>
    <path d="M20.65 -16.1 L20.65 -16.05 20.65 -15.95 20.6 -16.0 20.65 -16.1 M21.25 -14.5 L21.25 -14.45 21.05 -14.45 Q20.9 -14.5 20.75 -14.7 20.95 -14.5 21.25 -14.5 M9.6 -17.0 L9.5 -16.8 9.35 -16.6 9.45 -16.75 9.5 -16.8 9.6 -17.0 Q9.75 -17.15 9.9 -17.25 10.1 -17.35 10.2 -17.35 L10.35 -17.3 10.2 -17.3 10.0 -17.25 Q9.8 -17.2 9.6 -17.0 M21.5 -14.5 L21.55 -14.5 21.6 -14.45 21.55 -14.45 21.5 -14.5 M9.25 -16.3 L9.25 -16.1 Q9.25 -15.9 9.35 -15.7 L9.25 -15.7 9.3 -15.55 Q9.2 -15.8 9.2 -15.9 9.2 -16.1 9.25 -16.3" fill="#faa77e" fill-rule="evenodd" stroke="none"/>
    <path d="M10.85 -20.1 L11.65 -19.6 11.75 -19.55 11.9 -19.45 11.85 -19.3 12.25 -19.2 12.25 -19.15 12.4 -19.15 Q13.5 -18.6 13.95 -18.6 L14.1 -18.6 14.1 -18.7 14.25 -18.65 14.3 -18.7 14.45 -18.7 Q14.75 -18.95 14.95 -20.4 14.95 -20.7 14.9 -20.8 L14.8 -20.8 14.8 -19.7 Q14.7 -19.15 14.4 -18.95 14.3 -19.0 14.2 -19.15 L14.2 -20.25 Q14.05 -21.4 13.5 -21.9 L13.45 -21.95 13.3 -22.05 13.1 -22.15 13.1 -22.2 13.05 -22.3 Q13.65 -22.7 14.35 -23.1 L14.5 -22.85 Q14.65 -22.6 15.0 -22.25 15.8 -21.1 16.45 -21.1 16.95 -21.1 17.4 -21.3 L18.6 -20.55 18.45 -20.55 Q17.35 -20.25 16.55 -19.9 15.8 -19.6 15.55 -19.3 L15.6 -19.55 15.6 -19.6 15.65 -20.3 15.65 -20.75 15.6 -20.8 15.45 -20.8 15.45 -20.15 15.4 -20.1 15.4 -19.7 15.35 -19.7 15.3 -19.1 15.3 -18.5 15.35 -18.4 15.45 -18.45 15.45 -18.55 15.5 -18.5 15.55 -18.5 15.55 -18.4 Q15.55 -18.35 15.9 -18.3 L16.4 -18.25 18.45 -18.35 19.55 -18.45 19.55 -18.4 19.6 -18.4 19.7 -18.05 Q19.95 -17.4 20.2 -16.95 L20.35 -16.6 Q20.35 -16.05 20.0 -15.8 19.75 -15.55 19.2 -15.5 L19.45 -15.65 19.35 -15.7 19.3 -15.7 Q18.35 -15.55 17.7 -15.7 17.2 -15.8 16.8 -16.05 L16.5 -16.25 Q16.35 -16.4 16.35 -16.55 L16.35 -16.65 16.2 -16.85 16.15 -16.9 Q15.95 -17.4 15.7 -17.6 L15.7 -17.45 15.7 -17.4 15.75 -17.4 15.55 -17.45 15.3 -17.55 15.15 -17.55 Q14.65 -17.55 14.45 -17.8 L14.35 -17.65 Q14.15 -17.25 14.1 -17.0 L14.1 -16.95 14.0 -16.8 14.05 -17.0 14.35 -17.8 14.35 -18.15 14.3 -18.15 14.3 -18.0 Q14.3 -17.75 13.95 -17.35 L13.9 -17.25 13.55 -16.5 13.15 -16.2 Q12.15 -15.5 12.1 -15.5 12.0 -15.5 11.5 -15.75 L11.0 -16.0 Q11.0 -16.2 11.65 -16.65 L12.05 -17.0 Q11.65 -17.15 11.4 -17.5 11.3 -17.65 11.2 -17.85 10.6 -17.0 9.85 -17.0 L9.6 -17.0 Q9.35 -17.05 9.25 -17.25 L9.3 -17.4 9.9 -18.75 9.9 -18.85 10.1 -19.25 10.15 -19.25 10.6 -19.9 10.8 -20.1 10.85 -20.1 M15.1 -19.5 L15.15 -19.5 15.15 -19.7 15.1 -19.5 M13.9 -17.5 L13.85 -17.65 13.7 -17.7 13.35 -17.45 Q13.0 -17.25 12.65 -17.25 12.35 -17.25 11.75 -17.85 11.3 -18.25 11.3 -18.0 11.4 -17.7 11.6 -17.45 12.05 -16.9 12.65 -16.9 12.95 -16.9 13.45 -17.15 13.9 -17.4 13.9 -17.5 M12.5 -16.85 L12.25 -16.75 Q11.4 -16.35 11.25 -16.1 L11.3 -16.05 12.45 -16.6 12.9 -16.8 12.75 -16.8 12.5 -16.85 M17.0 -17.25 Q16.9 -17.3 16.75 -17.2 16.8 -16.9 17.05 -16.7 17.45 -16.25 18.2 -16.25 18.6 -16.25 19.15 -16.55 19.6 -16.75 19.65 -16.95 L19.6 -16.95 19.55 -17.0 19.55 -17.15 19.45 -17.15 Q19.35 -17.15 19.1 -16.9 18.85 -16.65 18.2 -16.65 17.55 -16.65 17.2 -17.05 L17.0 -17.25 M9.6 -17.0 Q9.8 -17.2 10.0 -17.25 L10.2 -17.3 10.35 -17.3 10.2 -17.35 Q10.1 -17.35 9.9 -17.25 9.75 -17.15 9.6 -17.0 M8.9 -14.6 L9.0 -14.7 8.95 -14.6 8.9 -14.6 M8.1 -13.6 L8.25 -13.6 8.15 -13.3 8.1 -13.55 8.1 -13.6 M16.1 -10.85 L15.95 -10.85 Q15.85 -10.8 15.85 -10.65 15.85 -10.4 16.0 -9.95 L16.35 -9.2 16.25 -9.2 16.2 -9.3 Q16.1 -9.35 15.9 -9.45 L15.85 -9.35 15.35 -11.2 Q13.9 -10.75 13.0 -10.25 11.95 -9.65 11.6 -9.0 L11.55 -8.9 Q11.35 -9.05 10.95 -9.0 L11.05 -9.15 11.6 -9.95 Q12.0 -10.5 12.45 -10.9 13.7 -12.15 15.0 -12.15 15.3 -12.15 15.7 -11.95 15.85 -11.9 15.95 -11.9 15.95 -11.55 16.1 -10.85" fill="#ecac66" fill-rule="evenodd" stroke="none"/>
    <path d="M11.7 -21.1 L11.75 -21.15 12.55 -21.9 12.65 -21.9 12.7 -21.95 Q12.95 -21.85 13.15 -21.55 13.55 -21.15 13.8 -20.4 L13.8 -20.35 13.9 -19.65 13.9 -19.6 13.75 -19.6 13.9 -19.5 13.9 -19.3 13.8 -19.25 13.8 -19.15 Q13.8 -19.1 13.6 -19.1 L13.5 -19.1 Q12.95 -19.4 12.15 -19.9 L11.15 -20.6 11.6 -21.05 11.75 -21.0 11.7 -21.1 M14.8 -22.9 L16.55 -21.85 16.4 -21.5 16.4 -21.35 16.5 -21.35 16.45 -21.3 16.35 -21.3 Q15.85 -21.3 14.95 -22.7 L14.8 -22.9 M16.9 -21.6 L17.15 -21.45 16.75 -21.35 16.8 -21.4 16.9 -21.6 M17.25 -19.9 Q17.95 -20.25 18.8 -20.3 L19.0 -20.0 19.15 -19.55 19.35 -19.05 19.1 -19.0 18.8 -18.95 18.55 -18.95 18.45 -18.9 18.25 -18.9 16.3 -18.7 Q15.75 -18.75 15.65 -18.85 L15.75 -18.9 15.75 -18.95 Q15.75 -19.05 15.85 -19.1 L16.1 -19.3 Q16.25 -19.55 17.1 -19.8 L17.25 -19.9 M9.8 -14.0 L9.85 -14.05 9.9 -14.05 Q10.1 -14.2 10.35 -14.3 L10.55 -14.35 Q10.85 -14.5 11.35 -14.65 12.25 -14.85 12.75 -14.7 L12.8 -14.75 12.9 -14.65 12.9 -14.45 Q12.9 -14.2 12.75 -14.15 L12.2 -14.15 Q11.85 -14.15 11.1 -13.7 10.4 -13.3 10.25 -13.25 L10.4 -13.25 10.7 -13.3 10.9 -13.35 11.05 -13.35 11.2 -13.4 11.25 -13.4 11.35 -13.35 Q11.1 -13.15 10.75 -12.65 L10.7 -12.6 10.3 -12.0 10.0 -11.45 9.95 -11.4 9.85 -11.2 Q9.65 -10.8 9.6 -10.55 9.7 -10.55 9.7 -10.4 9.7 -10.25 9.6 -10.15 L9.5 -10.1 9.5 -10.0 Q9.55 -9.95 9.55 -9.9 9.65 -9.8 9.8 -9.8 L9.6 -9.4 9.35 -8.95 9.3 -8.85 8.5 -8.7 8.5 -8.75 8.45 -8.8 Q7.6 -8.9 6.9 -9.05 6.3 -9.3 6.0 -9.4 4.35 -10.25 4.2 -11.4 L5.0 -11.15 5.6 -11.15 6.4 -11.05 6.4 -11.0 6.6 -11.1 6.9 -11.2 7.15 -11.3 Q7.25 -11.3 7.25 -11.35 7.95 -11.65 8.3 -11.9 L8.45 -12.1 8.45 -12.0 8.95 -12.45 9.0 -12.7 9.05 -12.8 Q9.1 -13.05 9.25 -13.25 L9.35 -13.45 9.8 -14.0 M18.35 -14.35 L18.85 -14.15 19.35 -13.85 19.45 -13.75 19.65 -13.45 19.65 -13.4 Q19.6 -13.3 19.6 -13.05 19.6 -12.25 20.3 -11.35 21.25 -10.15 23.0 -9.95 L22.95 -9.9 23.6 -9.8 23.6 -9.9 24.45 -9.85 Q24.95 -9.85 25.35 -10.0 L23.8 -8.7 23.1 -8.1 22.7 -8.0 22.65 -8.05 22.45 -8.0 22.35 -8.0 22.35 -7.95 21.8 -7.85 21.1 -7.8 Q20.3 -7.9 19.3 -8.25 L18.8 -8.45 Q18.65 -8.65 18.65 -8.8 18.65 -8.95 18.55 -9.15 L18.35 -9.55 Q18.35 -9.7 18.4 -9.75 L18.7 -9.55 18.55 -10.0 Q18.25 -10.95 18.0 -11.1 L17.7 -11.65 17.65 -11.75 17.9 -11.45 Q18.8 -10.25 18.9 -10.25 19.05 -10.25 19.15 -10.4 L19.2 -10.7 18.85 -11.25 Q18.5 -11.85 18.1 -12.35 17.65 -12.9 17.4 -13.05 L17.65 -13.1 Q18.05 -13.1 18.55 -12.85 L19.2 -12.4 Q19.1 -12.75 18.65 -13.35 L18.2 -14.0 Q18.2 -14.3 18.35 -14.35 M10.3 -9.3 L10.25 -9.25 10.35 -9.55 10.65 -10.1 10.65 -10.2 10.8 -10.5 10.95 -10.95 11.1 -11.15 10.85 -10.5 10.65 -10.1 10.55 -9.85 10.4 -9.5 10.3 -9.3 M17.55 -8.8 L17.5 -8.8 17.4 -9.0 17.55 -8.8" fill="#594837" fill-rule="evenodd" stroke="none"/>
    <path d="M16.7 -15.05 Q15.9 -14.6 14.75 -13.85 L14.5 -13.75 14.45 -13.75 Q14.25 -13.8 13.55 -14.55 13.15 -15.0 12.9 -15.2 L12.8 -15.3 13.15 -15.6 13.25 -15.7 13.15 -15.4 Q13.15 -15.3 13.2 -15.25 L13.2 -15.3 13.3 -15.3 13.85 -16.5 14.0 -16.8 14.1 -16.95 14.1 -16.9 Q13.8 -16.15 13.8 -15.35 13.8 -15.2 13.8 -15.1 13.85 -14.8 14.05 -14.8 14.1 -14.8 14.4 -15.95 14.65 -17.1 14.65 -17.2 14.65 -17.65 14.5 -17.6 14.4 -17.6 14.25 -17.25 L14.1 -17.0 Q14.15 -17.25 14.35 -17.65 L14.45 -17.8 Q14.65 -17.55 15.15 -17.55 L15.3 -17.55 15.55 -17.45 Q15.5 -17.35 15.5 -17.15 15.5 -16.55 15.75 -16.0 16.1 -15.25 16.7 -15.05 M15.7 -17.4 L15.7 -17.45 15.7 -17.4 M16.15 -16.9 L16.2 -16.85 16.15 -16.9 M16.2 -16.8 L16.2 -16.85 16.25 -16.7 16.2 -16.8" fill="#e79376" fill-rule="evenodd" stroke="none"/>
    <path d="M17.2 -15.2 Q17.1 -15.2 16.95 -15.1 L16.9 -15.15 16.7 -15.05 Q16.1 -15.25 15.75 -16.0 15.5 -16.55 15.5 -17.15 15.5 -17.35 15.55 -17.45 L15.75 -17.4 15.7 -17.4 15.75 -17.35 16.0 -16.8 16.0 -16.7 16.45 -15.85 16.55 -15.9 16.5 -16.0 Q16.65 -15.85 16.85 -15.65 L17.25 -15.25 17.2 -15.2 M12.8 -15.3 L12.7 -15.35 12.7 -15.3 12.6 -15.35 12.6 -15.45 13.1 -16.05 Q13.35 -16.25 13.45 -16.25 L13.25 -15.7 13.15 -15.6 12.8 -15.3" fill="#bf563c" fill-rule="evenodd" stroke="none"/>
    <path d="M14.1 -16.95 L14.1 -17.0 14.25 -17.25 Q14.4 -17.6 14.5 -17.6 14.65 -17.65 14.65 -17.2 14.65 -17.1 14.4 -15.95 14.1 -14.8 14.05 -14.8 13.85 -14.8 13.8 -15.1 13.8 -15.2 13.8 -15.35 13.8 -16.15 14.1 -16.9 L14.1 -16.95" fill="#f2ccb3" fill-rule="evenodd" stroke="none"/>
    <path d="M17.75 -30.8 Q17.4 -30.4 16.95 -30.15 L16.8 -30.05 17.75 -30.8 M18.55 -30.75 Q18.65 -31.45 19.15 -31.05 L19.2 -31.1 19.55 -30.55 Q20.0 -29.95 20.55 -28.8 20.45 -28.75 20.45 -28.4 20.45 -28.65 22.65 -22.85 22.65 -22.5 22.85 -21.75 L23.05 -20.95 Q23.05 -20.75 22.85 -19.8 L22.6 -18.9 22.6 -18.95 Q22.15 -20.6 21.6 -22.1 20.85 -24.2 20.35 -24.2 20.2 -24.2 20.05 -24.15 19.9 -24.0 19.9 -23.8 19.9 -23.65 19.95 -23.6 L19.95 -23.4 Q19.8 -23.25 19.7 -23.0 19.6 -22.75 19.6 -22.65 19.6 -22.15 19.7 -21.75 L19.8 -21.5 18.85 -22.5 Q17.55 -23.85 16.95 -24.25 16.35 -24.65 15.35 -24.95 13.9 -25.35 13.35 -24.7 L12.45 -23.75 11.6 -22.85 8.05 -18.8 Q6.25 -16.75 5.6 -15.9 L5.65 -15.8 5.6 -16.1 5.6 -16.4 Q5.9 -17.1 6.8 -18.75 L7.1 -19.4 Q7.85 -20.9 8.85 -22.35 L9.35 -23.2 9.35 -23.15 9.85 -23.8 9.85 -23.85 9.8 -23.85 9.95 -24.0 Q10.4 -24.6 11.4 -26.0 12.35 -27.2 13.45 -27.75 14.8 -28.4 16.95 -29.4 L17.6 -29.8 18.2 -28.8 Q19.05 -27.55 19.1 -27.55 19.45 -27.55 19.5 -27.8 L19.55 -28.25 Q19.55 -28.8 19.45 -29.05 19.1 -29.85 19.0 -30.25 18.85 -30.65 18.55 -30.75 M25.3 -15.25 L25.3 -15.2 25.15 -14.8 Q25.05 -14.6 24.9 -14.35 25.15 -14.8 25.3 -15.25 M12.1 -21.95 Q11.0 -20.65 10.45 -19.75 L10.45 -19.8 11.05 -20.75 Q11.65 -21.7 12.1 -21.95 M7.2 -14.35 L7.2 -14.2 7.15 -14.25 7.2 -14.35 M18.95 -20.75 L19.0 -20.7 19.3 -20.5 19.25 -20.45 18.95 -20.75 M19.25 -20.35 L19.15 -20.0 19.0 -20.3 18.95 -20.35 19.25 -20.35 M7.6 -21.3 L7.1 -20.4 7.05 -20.4 7.5 -21.2 7.6 -21.35 7.6 -21.3 M6.8 -19.8 L5.95 -18.25 5.95 -18.35 6.65 -19.7 6.8 -19.8" fill="#af481d" fill-rule="evenodd" stroke="none"/>
    <path d="M18.55 -30.75 Q18.85 -30.65 19.0 -30.25 19.1 -29.85 19.45 -29.05 19.55 -28.8 19.55 -28.25 L19.5 -27.8 Q19.45 -27.55 19.1 -27.55 19.05 -27.55 18.2 -28.8 L17.6 -29.8 17.65 -29.8 18.5 -30.4 Q18.5 -30.6 18.55 -30.75 M5.65 -15.8 L5.6 -15.9 Q6.25 -16.75 8.05 -18.8 L11.6 -22.85 12.45 -23.75 13.35 -24.7 Q13.9 -25.35 15.35 -24.95 16.35 -24.65 16.95 -24.25 17.55 -23.85 18.85 -22.5 L19.8 -21.5 19.7 -21.75 Q19.6 -22.15 19.6 -22.65 19.6 -22.75 19.7 -23.0 19.8 -23.25 19.95 -23.4 L19.95 -23.35 Q19.95 -23.45 20.35 -22.55 20.85 -21.5 21.1 -20.65 L21.5 -19.2 21.9 -17.8 Q22.15 -16.9 22.6 -15.0 23.0 -13.35 23.25 -12.45 L23.25 -11.55 Q22.85 -12.05 22.5 -12.6 L22.05 -13.3 21.75 -14.0 21.55 -14.45 21.6 -14.45 21.55 -14.5 21.5 -14.5 21.45 -14.65 Q21.1 -15.15 20.75 -16.1 20.5 -16.85 20.2 -18.0 L19.95 -18.55 20.05 -18.55 19.9 -19.1 19.7 -19.1 19.4 -19.6 19.15 -20.0 19.25 -20.35 19.35 -20.35 19.25 -20.45 19.3 -20.5 19.0 -20.7 18.95 -20.75 18.15 -21.6 18.1 -21.7 16.1 -23.75 Q15.65 -24.0 15.0 -24.0 14.0 -23.4 13.2 -23.2 L12.7 -22.65 12.1 -21.95 Q11.65 -21.7 11.05 -20.75 L10.45 -19.8 10.45 -19.75 10.25 -19.45 10.15 -19.25 10.1 -19.25 9.9 -18.85 9.85 -18.95 9.85 -18.9 Q9.6 -18.85 8.15 -15.95 L7.95 -15.55 7.35 -14.7 7.25 -14.45 7.25 -14.35 7.2 -14.35 7.15 -14.25 Q7.0 -14.2 6.8 -14.2 L6.75 -14.2 6.55 -14.15 Q6.0 -14.15 5.75 -15.1 L5.7 -15.25 5.7 -15.35 5.65 -15.8 M19.95 -23.6 Q19.9 -23.65 19.9 -23.8 19.9 -24.0 20.05 -24.15 20.2 -24.2 20.35 -24.2 20.85 -24.2 21.6 -22.1 22.15 -20.6 22.6 -18.95 L22.6 -18.9 22.85 -19.8 Q23.05 -20.75 23.05 -20.95 L22.85 -21.75 Q22.65 -22.5 22.65 -22.85 20.45 -28.65 20.45 -28.4 20.45 -28.75 20.55 -28.8 L20.75 -28.45 21.1 -27.85 Q21.9 -26.3 22.55 -24.55 L22.95 -23.65 23.3 -22.75 Q23.4 -22.3 24.2 -20.5 25.05 -18.45 25.1 -18.0 L25.3 -15.5 25.3 -15.25 Q25.15 -14.8 24.9 -14.35 L24.85 -14.3 24.35 -13.85 24.35 -13.8 24.3 -13.8 24.25 -13.75 24.25 -13.7 23.75 -13.3 23.65 -13.85 23.55 -14.5 23.55 -14.55 23.5 -14.95 Q23.25 -15.2 23.1 -15.55 L23.0 -15.95 22.3 -18.6 Q21.6 -21.25 20.75 -22.9 20.4 -23.65 20.15 -23.75 20.0 -23.9 19.95 -23.6" fill="#872710" fill-rule="evenodd" stroke="none"/>
    <path d="M17.75 -30.8 L17.95 -30.95 18.55 -31.5 18.7 -31.45 Q18.55 -31.5 18.5 -31.55 18.35 -31.65 18.1 -31.7 L18.1 -31.95 18.4 -31.85 18.8 -31.7 Q18.65 -32.0 18.65 -32.3 L18.7 -32.4 Q18.95 -32.35 19.2 -31.95 L19.4 -31.6 19.55 -31.5 Q22.25 -27.9 23.7 -22.95 L23.75 -22.8 Q24.15 -22.4 24.45 -21.6 L24.85 -20.55 Q25.05 -19.95 25.25 -19.6 25.65 -18.85 25.75 -17.7 25.85 -16.05 25.95 -15.7 L25.95 -15.05 25.8 -14.9 Q25.8 -14.65 25.6 -14.2 L25.55 -13.85 25.35 -13.75 25.1 -13.5 Q24.7 -13.05 24.35 -12.85 L23.75 -12.4 23.8 -12.15 23.95 -12.15 23.85 -12.05 23.9 -11.85 23.85 -11.3 23.85 -11.25 23.8 -10.9 24.0 -10.9 Q24.1 -10.85 24.25 -10.8 L25.1 -10.8 25.3 -10.9 25.0 -10.6 24.5 -10.55 25.0 -10.5 Q25.65 -10.5 26.4 -10.85 26.05 -10.3 25.45 -9.55 L24.85 -8.7 Q23.35 -7.35 22.85 -7.2 L22.85 -7.15 22.75 -6.95 22.45 -6.75 Q22.35 -6.5 21.5 -6.1 L21.1 -5.8 Q19.7 -4.85 18.4 -4.65 L17.8 -4.4 17.65 -4.5 Q17.0 -4.3 16.1 -4.3 13.9 -4.3 11.4 -5.25 10.8 -5.5 10.25 -5.75 9.5 -6.1 8.65 -6.85 8.1 -7.3 7.6 -7.8 L7.25 -8.2 7.0 -8.25 7.1 -8.35 Q5.75 -8.5 4.65 -9.6 4.2 -10.1 3.9 -10.65 3.65 -11.2 3.65 -11.5 3.65 -11.8 3.65 -12.05 L4.25 -11.9 Q4.7 -11.75 5.7 -11.7 L5.8 -11.75 5.85 -11.75 6.45 -11.8 6.55 -13.0 Q6.2 -13.05 5.95 -13.25 L5.9 -13.3 Q5.8 -13.4 5.65 -13.8 L5.2 -13.85 4.45 -14.0 4.45 -14.2 4.55 -14.25 5.4 -14.4 Q5.1 -15.05 5.05 -15.45 4.95 -15.85 4.95 -15.95 4.95 -16.15 5.2 -16.7 5.3 -17.15 5.45 -17.65 5.95 -18.6 6.75 -20.3 L7.75 -21.9 9.65 -24.65 9.85 -25.05 10.75 -26.15 10.95 -26.35 10.85 -26.3 Q10.25 -26.05 9.95 -25.95 L9.25 -25.45 9.25 -25.4 Q9.2 -25.4 9.2 -25.6 9.2 -25.75 9.65 -26.1 9.9 -26.5 12.0 -27.55 L12.1 -27.6 12.25 -27.75 Q12.4 -27.75 12.7 -27.9 13.15 -28.05 13.85 -28.45 L14.2 -28.65 Q15.1 -29.1 16.4 -29.85 L16.8 -30.05 16.95 -30.15 Q17.4 -30.4 17.75 -30.8 M20.55 -28.8 Q20.0 -29.95 19.55 -30.55 L19.2 -31.1 19.15 -31.05 Q18.65 -31.45 18.55 -30.75 18.5 -30.6 18.5 -30.4 L17.65 -29.8 17.6 -29.8 16.95 -29.4 Q14.8 -28.4 13.45 -27.75 12.35 -27.2 11.4 -26.0 10.4 -24.6 9.95 -24.0 L9.8 -23.85 9.85 -23.85 9.85 -23.8 9.35 -23.15 9.35 -23.2 8.85 -22.35 Q7.85 -20.9 7.1 -19.4 L6.8 -18.75 Q5.9 -17.1 5.6 -16.4 L5.6 -16.1 5.65 -15.8 5.7 -15.35 5.7 -15.25 5.75 -15.1 Q6.0 -14.15 6.55 -14.15 L6.75 -14.2 6.8 -14.2 Q7.0 -14.2 7.15 -14.25 L7.2 -14.2 7.2 -14.35 7.25 -14.35 7.25 -14.45 7.35 -14.7 7.95 -15.55 8.15 -15.95 Q9.6 -18.85 9.85 -18.9 L9.85 -18.95 9.9 -18.85 9.9 -18.75 9.3 -17.4 9.25 -17.25 9.0 -16.75 8.65 -16.0 8.2 -15.05 8.0 -14.55 7.95 -14.35 7.75 -13.9 7.65 -13.8 Q7.3 -12.7 7.2 -11.85 L7.3 -11.8 Q7.35 -11.8 7.35 -11.6 7.55 -11.65 7.7 -11.75 8.15 -12.05 8.4 -12.55 L8.5 -12.65 Q8.5 -12.95 8.6 -13.15 L8.6 -13.2 8.65 -13.2 8.8 -13.65 8.9 -13.65 Q9.3 -14.25 10.15 -14.6 10.45 -14.8 10.85 -14.85 L11.2 -15.0 Q11.95 -15.2 12.4 -15.2 L12.6 -15.15 12.5 -15.35 12.6 -15.35 12.7 -15.3 12.7 -15.35 12.8 -15.3 12.9 -15.2 Q13.15 -15.0 13.55 -14.55 14.25 -13.8 14.45 -13.75 L14.5 -13.75 14.75 -13.85 Q15.9 -14.6 16.7 -15.05 L16.9 -15.15 16.95 -15.1 Q17.1 -15.2 17.2 -15.2 L17.35 -15.2 17.35 -15.15 17.45 -15.2 17.5 -15.2 17.35 -15.0 17.4 -14.95 Q18.0 -14.9 18.55 -14.65 19.2 -14.35 19.6 -13.9 L19.85 -13.75 Q20.4 -13.25 20.4 -12.45 L20.7 -11.95 Q20.9 -11.45 21.25 -11.15 21.95 -10.65 23.1 -10.55 L23.15 -10.8 Q22.45 -11.4 21.75 -13.05 L21.25 -14.45 21.25 -14.5 21.0 -15.15 20.65 -16.05 20.65 -16.1 20.25 -16.8 20.2 -16.95 Q19.95 -17.4 19.7 -18.05 L19.6 -18.4 19.55 -18.4 19.55 -18.45 18.45 -18.35 16.4 -18.25 15.9 -18.3 Q15.55 -18.35 15.55 -18.4 L15.55 -18.5 15.5 -18.5 15.45 -18.55 15.45 -18.45 15.35 -18.4 15.3 -18.5 15.3 -19.1 15.35 -19.7 15.4 -19.7 15.4 -20.1 15.45 -20.15 15.45 -20.8 15.6 -20.8 15.65 -20.75 15.65 -20.3 15.6 -19.6 15.6 -19.55 15.55 -19.3 Q15.8 -19.6 16.55 -19.9 17.35 -20.25 18.45 -20.55 L18.6 -20.55 17.4 -21.3 Q16.95 -21.1 16.45 -21.1 15.8 -21.1 15.0 -22.25 L14.95 -22.3 14.8 -22.5 14.4 -23.15 14.35 -23.1 Q13.65 -22.7 13.05 -22.3 L13.0 -22.25 13.1 -22.2 13.1 -22.15 13.3 -22.05 13.45 -21.95 13.5 -21.9 Q14.05 -21.4 14.2 -20.25 L14.2 -19.15 14.2 -18.95 14.15 -18.85 Q14.3 -18.9 14.4 -18.95 14.7 -19.15 14.8 -19.7 L14.8 -20.8 14.9 -20.8 Q14.95 -20.7 14.95 -20.4 14.75 -18.95 14.45 -18.7 L14.3 -18.7 14.1 -18.7 14.1 -18.6 13.95 -18.6 Q13.5 -18.6 12.4 -19.15 L11.9 -19.45 11.75 -19.55 11.65 -19.6 10.85 -20.1 10.75 -20.15 10.25 -19.45 10.45 -19.75 Q11.0 -20.65 12.1 -21.95 L12.7 -22.65 13.2 -23.2 Q14.0 -23.4 15.0 -24.0 15.65 -24.0 16.1 -23.75 L18.1 -21.7 18.15 -21.6 18.95 -20.75 19.25 -20.45 19.35 -20.35 19.25 -20.35 18.95 -20.35 19.0 -20.3 19.15 -20.0 19.4 -19.6 19.7 -19.1 19.9 -19.1 20.05 -18.55 19.95 -18.55 20.2 -18.0 Q20.5 -16.85 20.75 -16.1 21.1 -15.15 21.45 -14.65 L21.5 -14.5 21.55 -14.45 21.75 -14.0 22.05 -13.3 22.5 -12.6 Q22.85 -12.05 23.25 -11.55 L23.25 -12.45 Q23.0 -13.35 22.6 -15.0 22.15 -16.9 21.9 -17.8 L21.5 -19.2 21.1 -20.65 Q20.85 -21.5 20.35 -22.55 19.95 -23.45 19.95 -23.35 L19.95 -23.4 19.95 -23.6 Q20.0 -23.9 20.15 -23.75 20.4 -23.65 20.75 -22.9 21.6 -21.25 22.3 -18.6 L23.0 -15.95 23.1 -15.55 Q23.25 -15.2 23.5 -14.95 L23.55 -14.55 23.55 -14.5 23.65 -13.85 23.75 -13.3 24.25 -13.7 24.25 -13.75 24.3 -13.8 24.35 -13.8 24.35 -13.85 24.85 -14.3 24.9 -14.35 Q25.05 -14.6 25.15 -14.8 L25.3 -15.2 25.3 -15.25 25.3 -15.5 25.1 -18.0 Q25.05 -18.45 24.2 -20.5 23.4 -22.3 23.3 -22.75 L22.95 -23.65 22.55 -24.55 Q21.9 -26.3 21.1 -27.85 L20.75 -28.45 20.55 -28.8 M13.9 -19.6 L13.9 -19.65 13.8 -20.35 13.8 -20.4 Q13.55 -21.15 13.15 -21.55 12.95 -21.85 12.7 -21.95 L12.65 -21.9 12.55 -21.9 11.75 -21.15 11.7 -21.1 11.6 -21.05 11.15 -20.6 11.15 -20.55 11.25 -20.5 12.05 -19.95 12.15 -19.9 Q12.95 -19.4 13.5 -19.1 L13.6 -19.1 Q13.8 -19.1 13.8 -19.15 L13.8 -19.25 13.9 -19.3 13.9 -19.5 13.9 -19.6 M14.8 -22.9 L14.95 -22.7 Q15.85 -21.3 16.35 -21.3 L16.45 -21.3 16.5 -21.35 16.4 -21.35 16.4 -21.5 16.55 -21.85 14.8 -22.9 M16.9 -21.6 L16.8 -21.4 16.75 -21.35 17.15 -21.45 16.9 -21.6 M17.25 -19.9 L17.1 -19.8 Q16.25 -19.55 16.1 -19.3 L15.85 -19.1 Q15.75 -19.05 15.75 -18.95 L15.75 -18.9 15.65 -18.85 Q15.75 -18.75 16.3 -18.7 L18.25 -18.9 18.45 -18.9 18.55 -18.95 18.8 -18.95 19.1 -19.0 19.35 -19.05 19.15 -19.55 19.0 -20.0 18.8 -20.3 Q17.95 -20.25 17.25 -19.9 M15.1 -19.5 L15.15 -19.7 15.15 -19.5 15.1 -19.5 M13.55 -16.5 L13.9 -17.25 13.95 -17.35 Q14.3 -17.75 14.3 -18.0 L14.3 -18.15 14.35 -18.15 14.35 -17.8 14.05 -17.0 14.0 -16.8 13.85 -16.5 13.3 -15.3 13.2 -15.3 13.2 -15.25 Q13.15 -15.3 13.15 -15.4 L13.25 -15.7 13.45 -16.25 13.55 -16.5 M15.7 -17.45 L15.7 -17.6 Q15.95 -17.4 16.15 -16.9 L16.2 -16.85 16.2 -16.8 16.5 -16.0 16.55 -15.9 16.45 -15.85 16.0 -16.7 16.0 -16.8 15.75 -17.35 15.7 -17.4 15.7 -17.45 M16.5 -16.25 L16.8 -16.05 Q17.2 -15.8 17.7 -15.7 18.35 -15.55 19.3 -15.7 L19.35 -15.7 19.45 -15.65 19.2 -15.5 19.05 -15.4 Q17.45 -15.4 16.8 -15.95 16.6 -16.1 16.5 -16.25 M13.9 -17.5 Q13.9 -17.4 13.45 -17.15 12.95 -16.9 12.65 -16.9 12.05 -16.9 11.6 -17.45 11.4 -17.7 11.3 -18.0 11.3 -18.25 11.75 -17.85 12.35 -17.25 12.65 -17.25 13.0 -17.25 13.35 -17.45 L13.7 -17.7 13.85 -17.65 13.9 -17.5 M12.5 -16.85 L12.75 -16.8 12.9 -16.8 12.45 -16.6 11.3 -16.05 11.25 -16.1 Q11.4 -16.35 12.25 -16.75 L12.5 -16.85 M12.9 -14.65 L12.8 -14.75 12.75 -14.7 Q12.25 -14.85 11.35 -14.65 10.85 -14.5 10.55 -14.35 L10.35 -14.3 Q10.1 -14.2 9.9 -14.05 L9.85 -14.05 9.8 -14.0 Q9.55 -13.85 9.35 -13.45 L9.25 -13.25 Q9.1 -13.05 9.05 -12.8 L9.0 -12.7 8.95 -12.45 8.45 -12.0 8.45 -12.1 8.3 -11.9 Q7.95 -11.65 7.25 -11.35 7.25 -11.3 7.15 -11.3 L6.9 -11.2 6.6 -11.1 6.4 -11.0 6.4 -11.05 5.6 -11.15 5.0 -11.15 4.2 -11.4 Q4.35 -10.25 6.0 -9.4 6.3 -9.3 6.9 -9.05 7.6 -8.9 8.45 -8.8 L8.5 -8.75 8.5 -8.7 9.3 -8.85 9.55 -8.9 9.6 -8.95 10.0 -9.1 10.05 -9.15 10.25 -9.25 10.3 -9.3 10.35 -9.35 10.45 -9.4 10.45 -9.45 10.7 -9.6 10.75 -9.75 10.8 -9.75 11.05 -10.2 11.1 -10.3 11.2 -10.45 11.3 -10.55 11.5 -10.8 11.85 -11.2 Q12.25 -11.6 12.7 -11.9 13.5 -12.45 14.7 -12.6 15.8 -12.75 16.3 -12.2 L16.75 -11.15 16.75 -11.1 16.95 -10.7 17.05 -10.45 17.1 -10.45 17.35 -9.8 17.4 -9.65 Q17.5 -9.4 17.6 -9.2 L17.85 -9.0 18.1 -8.85 Q18.4 -8.65 18.8 -8.45 L19.3 -8.25 Q20.3 -7.9 21.1 -7.8 L21.8 -7.85 22.35 -7.95 22.35 -8.0 22.45 -8.0 22.65 -8.05 22.7 -8.0 23.1 -8.1 23.8 -8.7 25.35 -10.0 Q24.95 -9.85 24.45 -9.85 L23.6 -9.9 23.6 -9.8 22.95 -9.9 23.0 -9.95 Q21.25 -10.15 20.3 -11.35 19.6 -12.25 19.6 -13.05 19.6 -13.3 19.65 -13.4 L19.65 -13.45 19.45 -13.75 19.35 -13.85 18.85 -14.15 18.35 -14.35 Q17.8 -14.55 17.1 -14.7 L17.0 -14.6 Q16.7 -14.6 15.5 -14.0 L14.5 -13.45 14.35 -13.45 13.8 -13.95 13.4 -14.25 Q13.3 -14.4 13.15 -14.5 L12.9 -14.65 M17.0 -17.25 L17.2 -17.05 Q17.55 -16.65 18.2 -16.65 18.85 -16.65 19.1 -16.9 19.35 -17.15 19.45 -17.15 L19.55 -17.15 19.55 -17.0 19.6 -16.95 19.65 -16.95 Q19.6 -16.75 19.15 -16.55 18.6 -16.25 18.2 -16.25 17.45 -16.25 17.05 -16.7 16.8 -16.9 16.75 -17.2 16.9 -17.3 17.0 -17.25 M7.6 -21.3 L7.6 -21.35 7.5 -21.2 7.05 -20.4 7.1 -20.4 7.6 -21.3 M6.8 -19.8 L6.65 -19.7 5.95 -18.35 5.95 -18.25 6.8 -19.8 M6.0 -13.1 L5.95 -13.25 6.0 -13.2 6.0 -13.1 M8.5 -8.3 L8.45 -8.3 8.25 -8.2 8.1 -8.2 7.95 -8.2 Q8.05 -8.15 8.15 -8.1 L8.55 -7.85 8.8 -7.6 Q9.4 -7.05 10.1 -6.55 12.1 -5.2 13.5 -5.15 14.9 -4.85 16.05 -4.85 L17.0 -4.9 17.05 -4.95 17.6 -4.95 Q18.5 -4.95 19.5 -5.55 19.75 -5.65 20.05 -5.8 20.95 -6.25 21.45 -6.7 L21.95 -7.1 22.1 -7.4 21.75 -7.35 Q19.65 -7.35 18.15 -8.4 L17.7 -8.75 17.55 -8.8 17.4 -9.0 17.35 -9.05 17.25 -9.2 Q16.35 -10.5 16.15 -10.85 L16.1 -10.85 Q15.95 -11.55 15.95 -11.9 15.85 -11.9 15.7 -11.95 15.3 -12.15 15.0 -12.15 13.7 -12.15 12.45 -10.9 12.0 -10.5 11.6 -9.95 L11.05 -9.15 10.95 -9.0 10.45 -8.9 10.2 -8.8 9.35 -8.45 9.0 -8.35 8.5 -8.35 8.5 -8.3 M16.1 -6.5 L16.2 -6.55 Q16.15 -6.35 15.7 -6.15 15.15 -5.95 14.55 -5.95 13.2 -5.95 12.3 -6.7 11.65 -7.2 11.65 -7.55 11.8 -7.3 12.4 -6.95 12.65 -6.75 12.95 -6.65 13.5 -6.4 14.15 -6.35 L14.95 -6.3 Q15.7 -6.3 16.1 -6.5" fill="#101010" fill-rule="evenodd" stroke="none"/>
  </g>
</svg>
