<?xml version="1.0" encoding="UTF-8" standalone="no"?>
<svg xmlns:ffdec="https://www.free-decompiler.com/flash" xmlns:xlink="http://www.w3.org/1999/xlink" ffdec:objectType="shape" height="20.05px" width="17.35px" xmlns="http://www.w3.org/2000/svg">
  <g transform="matrix(1.0, 0.0, 0.0, 1.0, -9.65, 27.0)">
    <path d="M12.15 -22.85 Q12.25 -22.8 12.35 -22.8 L13.2 -22.8 13.2 -22.9 13.35 -22.85 14.2 -23.1 Q15.7 -23.3 17.35 -23.8 18.35 -24.1 19.1 -24.4 19.45 -24.75 20.0 -25.15 21.4 -26.1 22.25 -26.0 L22.35 -25.95 22.4 -25.95 Q22.85 -25.8 23.55 -25.25 23.35 -25.0 23.1 -24.6 22.5 -23.6 21.9 -22.1 L21.85 -21.95 22.2 -21.1 22.75 -19.7 Q23.2 -18.6 23.9 -16.65 24.65 -14.6 24.65 -14.45 24.65 -14.1 24.4 -13.75 24.1 -13.25 23.5 -13.2 23.55 -13.05 23.55 -12.8 23.55 -12.6 22.25 -11.05 21.2 -9.8 20.8 -9.55 20.3 -8.9 19.95 -8.9 L19.75 -8.95 20.3 -9.8 20.35 -9.85 20.35 -9.9 20.7 -10.85 Q21.05 -11.9 21.15 -12.75 L21.2 -12.8 21.4 -13.3 21.4 -13.5 21.65 -13.65 21.75 -13.55 Q22.2 -13.4 22.55 -13.3 L22.6 -13.25 22.65 -13.25 22.65 -13.2 22.6 -12.95 22.9 -13.2 23.3 -13.2 23.35 -13.25 23.35 -13.35 Q22.55 -13.55 21.85 -13.9 21.5 -14.05 21.15 -14.25 L20.4 -14.8 Q19.35 -15.5 18.8 -15.9 L18.45 -16.2 18.4 -16.2 18.3 -16.35 18.0 -16.5 17.95 -16.55 17.3 -17.1 Q16.75 -17.55 16.35 -17.95 L16.25 -18.1 16.05 -18.4 15.55 -19.1 15.1 -19.55 Q14.85 -20.0 14.65 -20.5 L14.6 -20.55 14.5 -20.8 14.45 -21.05 14.4 -21.0 14.15 -21.75 14.1 -21.85 14.05 -21.9 13.45 -22.3 13.25 -22.45 Q13.05 -22.35 12.85 -22.05 L12.75 -21.9 12.7 -21.85 12.7 -21.8 12.6 -21.65 12.3 -21.85 Q12.0 -22.0 12.0 -22.15 L12.0 -22.5 12.05 -22.75 12.05 -22.9 12.1 -22.9 12.15 -22.85 M13.85 -21.1 L13.95 -20.9 13.85 -20.9 13.9 -21.0 13.85 -21.1 M22.65 -13.25 L22.7 -13.25 22.65 -13.25 M22.7 -13.25 L22.8 -13.2 22.75 -13.2 22.7 -13.25" fill="#af481d" fill-rule="evenodd" stroke="none"/>
    <path d="M12.15 -22.85 L12.1 -22.9 12.05 -22.9 12.1 -22.9 12.15 -22.85 M12.0 -22.5 L12.0 -22.15 Q12.0 -22.0 12.3 -21.85 L12.6 -21.65 12.7 -21.8 Q12.55 -21.55 12.45 -21.25 12.25 -20.8 12.25 -20.6 12.25 -20.4 12.3 -20.35 L12.35 -20.4 12.5 -20.4 Q12.55 -20.3 12.7 -20.2 L12.05 -19.85 Q11.95 -19.8 11.85 -19.75 L11.8 -20.15 11.8 -20.2 11.7 -20.95 Q11.75 -21.35 11.9 -22.0 L12.0 -22.5 M15.1 -19.55 L15.55 -19.1 16.05 -18.4 16.25 -18.1 Q15.75 -18.65 15.35 -19.15 L15.1 -19.55 M17.95 -16.55 L18.0 -16.5 18.3 -16.35 18.4 -16.2 17.95 -16.55 M22.9 -13.2 L22.6 -12.95 22.65 -13.2 22.65 -13.25 22.7 -13.25 22.75 -13.2 22.9 -13.2 M21.75 -13.55 L21.65 -13.65 21.4 -13.5 21.4 -13.7 21.45 -13.75 21.55 -13.7 21.6 -13.65 21.75 -13.55 M19.75 -8.95 L19.95 -8.9 Q20.3 -8.9 20.8 -9.55 21.2 -9.8 22.25 -11.05 23.55 -12.6 23.55 -12.8 23.55 -13.05 23.5 -13.2 24.1 -13.25 24.4 -13.75 24.65 -14.1 24.65 -14.45 24.65 -14.6 23.9 -16.65 23.2 -18.6 22.75 -19.7 L22.2 -21.1 21.85 -21.95 21.9 -22.1 Q22.5 -23.6 23.1 -24.6 23.35 -25.0 23.55 -25.25 L23.8 -25.05 24.45 -24.4 Q24.95 -23.9 25.4 -23.35 L25.45 -23.3 25.45 -23.25 Q26.15 -22.35 26.15 -22.05 L26.15 -21.95 26.2 -21.85 26.25 -21.25 Q26.25 -20.7 26.2 -20.35 L26.2 -13.8 Q25.9 -13.4 25.2 -12.75 L24.8 -12.4 24.55 -12.2 24.0 -11.85 Q23.35 -11.35 22.9 -10.95 L22.8 -10.85 Q22.5 -10.55 22.25 -10.3 21.0 -8.7 19.9 -7.95 19.5 -7.75 19.1 -7.55 L18.6 -7.4 Q18.35 -7.65 18.25 -7.9 L18.35 -7.85 Q18.55 -8.0 18.85 -8.05 L19.0 -8.1 19.1 -8.1 19.2 -8.2 19.4 -8.45 19.45 -8.5 19.4 -8.5 19.7 -8.8 19.75 -8.95" fill="#872710" fill-rule="evenodd" stroke="none"/>
    <path d="M12.7 -20.2 Q12.55 -20.3 12.5 -20.4 L12.55 -20.45 12.6 -20.45 Q12.55 -20.55 12.55 -20.65 12.55 -20.95 12.75 -21.35 12.9 -21.7 13.15 -21.85 13.3 -22.0 13.5 -22.1 L13.5 -22.0 13.55 -21.85 13.85 -21.1 13.9 -21.0 13.85 -20.9 13.65 -20.8 12.7 -20.2" fill="#632212" fill-rule="evenodd" stroke="none"/>
    <path d="M14.0 -20.55 L14.1 -20.6 14.2 -20.4 14.0 -20.55 M18.65 -15.3 L18.8 -15.25 18.7 -15.25 18.7 -15.15 18.65 -15.3 M13.05 -9.75 Q12.9 -9.85 12.85 -10.0 12.6 -10.35 12.45 -10.8 12.2 -11.55 12.35 -12.4 12.35 -13.35 12.35 -13.55 L12.45 -13.85 Q12.6 -14.5 13.1 -14.55 L13.35 -14.55 13.4 -14.5 13.55 -14.55 13.55 -14.6 Q14.75 -14.6 16.05 -14.1 L16.25 -14.0 16.25 -13.95 16.85 -13.8 Q16.95 -13.45 16.95 -13.15 16.95 -12.1 16.3 -11.25 15.3 -9.8 13.1 -9.75 L13.05 -9.75 M16.85 -13.95 L16.55 -14.1 Q16.35 -14.2 16.15 -14.35 L15.55 -14.55 Q14.3 -14.95 13.6 -14.9 L13.65 -15.05 13.55 -15.25 13.55 -15.3 13.6 -15.45 13.5 -15.5 13.5 -15.65 Q13.95 -15.7 14.25 -15.85 14.7 -16.1 14.7 -16.45 L14.7 -16.6 14.9 -16.7 15.1 -16.75 15.15 -16.95 15.1 -17.1 Q14.9 -17.2 14.7 -17.15 14.5 -17.15 14.45 -16.95 L14.3 -16.95 Q12.85 -16.7 11.8 -16.7 L10.85 -16.8 Q10.5 -17.0 10.4 -17.0 10.25 -17.0 10.25 -16.8 10.25 -16.65 10.5 -16.4 10.3 -16.45 10.25 -16.75 10.25 -16.9 10.25 -17.1 10.25 -17.7 11.5 -18.95 12.7 -20.15 13.5 -20.35 L13.55 -20.3 13.55 -20.25 13.35 -20.1 13.35 -20.0 Q13.35 -19.95 13.9 -19.2 L15.15 -17.5 Q16.5 -15.45 16.85 -13.95 M13.3 -19.95 Q13.2 -19.95 13.05 -19.85 L12.05 -19.05 Q10.75 -17.95 10.6 -17.3 L10.85 -17.25 Q11.35 -17.25 12.4 -18.3 13.35 -19.3 13.35 -19.7 L13.35 -19.9 13.3 -19.95" fill="#f9bd91" fill-rule="evenodd" stroke="none"/>
    <path d="M14.0 -20.55 L14.2 -20.4 Q15.45 -17.85 17.65 -16.0 L17.7 -15.95 17.85 -15.85 18.05 -15.65 18.15 -15.6 18.25 -15.5 18.3 -15.5 18.45 -15.35 18.65 -15.3 18.7 -15.15 Q18.7 -14.85 18.55 -14.45 18.55 -13.8 18.3 -13.25 18.1 -12.7 17.65 -12.2 L17.65 -12.1 17.7 -12.15 18.2 -12.1 18.5 -12.2 18.5 -12.25 Q18.7 -12.25 18.8 -12.35 L18.85 -12.4 18.95 -12.45 18.95 -12.4 18.9 -11.3 18.9 -11.2 Q18.7 -10.95 18.35 -10.6 17.85 -10.25 17.45 -10.1 16.45 -9.4 13.85 -9.3 L13.75 -9.3 Q13.3 -9.45 13.05 -9.75 L13.1 -9.75 Q15.3 -9.8 16.3 -11.25 16.95 -12.1 16.95 -13.15 16.95 -13.45 16.85 -13.8 L17.0 -13.75 17.45 -13.55 17.45 -13.6 Q17.3 -13.75 16.9 -13.95 L16.85 -13.95 Q16.5 -15.45 15.15 -17.5 L13.9 -19.2 Q13.35 -19.95 13.35 -20.0 L13.35 -20.1 13.55 -20.25 13.55 -20.3 14.0 -20.55 M13.5 -15.65 L13.3 -15.9 12.3 -15.95 11.9 -15.9 11.7 -15.95 11.6 -16.0 Q11.0 -16.0 10.6 -16.35 L10.5 -16.4 Q10.25 -16.65 10.25 -16.8 10.25 -17.0 10.4 -17.0 10.5 -17.0 10.85 -16.8 L11.8 -16.7 Q12.85 -16.7 14.3 -16.95 L14.45 -16.95 14.45 -16.7 14.5 -16.6 14.7 -16.6 14.7 -16.45 Q14.7 -16.1 14.25 -15.85 13.95 -15.7 13.5 -15.65 M20.15 -10.5 L20.15 -10.55 20.45 -11.05 Q20.25 -10.45 20.0 -9.95 19.5 -9.05 19.05 -8.55 19.05 -8.45 19.05 -8.4 L18.85 -8.35 Q18.65 -8.9 17.75 -9.0 L17.7 -9.0 Q17.45 -9.15 17.05 -9.25 L17.7 -9.7 18.1 -9.9 18.75 -10.4 18.7 -9.95 18.7 -8.95 19.05 -8.9 19.45 -9.55 20.15 -10.5" fill="#e7955f" fill-rule="evenodd" stroke="none"/>
    <path d="M13.3 -19.95 L13.35 -19.9 13.35 -19.7 Q13.35 -19.3 12.4 -18.3 11.35 -17.25 10.85 -17.25 L10.6 -17.3 Q10.75 -17.95 12.05 -19.05 L13.05 -19.85 Q13.2 -19.95 13.3 -19.95" fill="#fde3d0" fill-rule="evenodd" stroke="none"/>
    <path d="M19.0 -14.5 L19.05 -15.05 19.25 -14.85 19.4 -14.75 Q20.1 -14.3 20.9 -13.95 L20.85 -13.85 Q20.9 -12.95 20.55 -12.0 20.3 -11.5 20.0 -10.9 L19.65 -10.3 19.75 -11.05 Q20.0 -12.35 20.0 -12.8 20.0 -12.95 19.9 -12.95 L19.75 -12.95 19.75 -13.0 Q19.75 -13.15 19.4 -13.6 19.0 -14.0 19.0 -14.3 19.0 -14.4 19.0 -14.5 M19.3 -9.8 L19.15 -9.65 19.2 -10.65 19.2 -10.85 19.25 -10.9 Q19.2 -11.0 19.2 -11.15 L19.4 -11.8 19.35 -11.75 Q19.25 -11.05 19.25 -9.95 L19.3 -9.8" fill="#c97d45" fill-rule="evenodd" stroke="none"/>
    <path d="M19.65 -10.3 L19.6 -10.25 19.6 -10.2 19.4 -10.0 19.3 -9.8 19.25 -9.95 Q19.25 -11.05 19.35 -11.75 L19.4 -11.8 19.2 -11.15 19.25 -12.3 19.3 -12.35 Q19.2 -12.8 19.2 -13.45 L19.2 -13.4 19.15 -13.35 19.05 -13.2 18.9 -12.9 18.65 -12.75 18.5 -12.65 18.2 -12.5 18.1 -12.5 Q18.85 -13.6 19.0 -14.5 19.0 -14.4 19.0 -14.3 19.0 -14.0 19.4 -13.6 19.75 -13.15 19.75 -13.0 L19.75 -12.95 19.9 -12.95 Q20.0 -12.95 20.0 -12.8 20.0 -12.35 19.75 -11.05 L19.65 -10.3" fill="#e7c067" fill-rule="evenodd" stroke="none"/>
    <path d="M22.1 -27.0 Q22.9 -26.85 24.1 -25.95 25.25 -25.1 26.1 -24.1 L26.55 -23.5 26.8 -22.4 26.8 -17.55 27.0 -14.85 27.0 -14.15 26.45 -12.95 25.85 -12.5 Q25.25 -11.8 23.5 -10.5 L22.65 -9.7 Q22.1 -8.95 21.3 -8.3 19.8 -6.95 18.4 -6.95 18.15 -6.95 18.1 -7.05 L18.1 -7.1 Q17.85 -7.25 17.75 -7.7 17.7 -7.95 17.7 -8.15 17.25 -8.35 16.7 -8.5 15.7 -8.65 14.1 -8.7 L14.0 -8.65 13.9 -8.7 Q13.55 -8.75 13.15 -8.95 12.75 -9.2 12.55 -9.5 12.0 -10.25 11.85 -10.55 11.8 -10.8 11.8 -11.55 L11.85 -12.85 Q11.95 -13.75 12.15 -14.25 L12.2 -14.7 12.55 -14.85 Q13.05 -14.85 13.05 -15.25 L13.05 -15.4 13.0 -15.45 Q11.35 -15.5 10.25 -16.1 L9.7 -16.4 Q9.65 -16.6 9.65 -16.9 9.65 -17.45 10.3 -18.4 L11.25 -19.4 11.15 -21.1 Q11.15 -22.1 11.2 -22.35 11.25 -22.85 11.5 -23.1 L11.5 -23.15 11.55 -23.2 11.6 -23.3 11.75 -23.25 11.85 -23.3 11.85 -23.25 11.95 -23.25 Q14.5 -23.25 18.15 -24.95 L18.75 -25.2 18.9 -25.25 Q20.75 -26.0 21.55 -26.85 L21.75 -27.0 22.1 -27.0 M23.55 -25.25 Q22.85 -25.8 22.4 -25.95 L22.35 -25.95 22.25 -26.0 Q21.4 -26.1 20.0 -25.15 19.45 -24.75 19.1 -24.4 18.35 -24.1 17.35 -23.8 15.7 -23.3 14.2 -23.1 L13.35 -22.85 13.2 -22.9 13.2 -22.8 12.35 -22.8 Q12.25 -22.8 12.15 -22.85 L12.1 -22.9 12.05 -22.9 12.05 -22.75 12.0 -22.5 11.9 -22.0 Q11.75 -21.35 11.7 -20.95 L11.8 -20.2 11.8 -20.15 11.85 -19.75 Q11.95 -19.8 12.05 -19.85 L12.7 -20.2 13.65 -20.8 13.85 -20.9 13.95 -20.9 13.85 -21.1 13.55 -21.85 13.5 -22.0 13.5 -22.1 Q13.3 -22.0 13.15 -21.85 12.9 -21.7 12.75 -21.35 12.55 -20.95 12.55 -20.65 12.55 -20.55 12.6 -20.45 L12.55 -20.45 12.5 -20.4 12.35 -20.4 12.3 -20.35 Q12.25 -20.4 12.25 -20.6 12.25 -20.8 12.45 -21.25 12.55 -21.55 12.7 -21.8 L12.7 -21.85 12.75 -21.9 12.85 -22.05 Q13.05 -22.35 13.25 -22.45 L13.45 -22.3 14.05 -21.9 14.1 -21.85 14.15 -21.75 14.4 -21.0 14.45 -21.05 14.5 -20.8 14.6 -20.55 14.65 -20.5 Q14.85 -20.0 15.1 -19.55 L15.35 -19.15 Q15.75 -18.65 16.25 -18.1 L16.35 -17.95 Q16.75 -17.55 17.3 -17.1 L17.95 -16.55 18.4 -16.2 18.45 -16.2 18.8 -15.9 Q19.35 -15.5 20.4 -14.8 L21.15 -14.25 Q21.5 -14.05 21.85 -13.9 22.55 -13.55 23.35 -13.35 L23.35 -13.25 23.3 -13.2 22.9 -13.2 22.75 -13.2 22.8 -13.2 22.7 -13.25 22.65 -13.25 22.6 -13.25 22.55 -13.3 Q22.2 -13.4 21.75 -13.55 L21.6 -13.65 21.55 -13.7 21.45 -13.75 21.4 -13.7 21.4 -13.5 21.4 -13.3 21.2 -12.8 21.15 -12.75 Q21.05 -11.9 20.7 -10.85 L20.35 -9.9 20.35 -9.85 20.3 -9.8 19.75 -8.95 19.7 -8.8 19.4 -8.5 19.45 -8.5 19.4 -8.45 19.2 -8.2 19.1 -8.1 19.0 -8.1 18.85 -8.05 Q18.55 -8.0 18.35 -7.85 L18.25 -7.9 Q18.35 -7.65 18.6 -7.4 L19.1 -7.55 Q19.5 -7.75 19.9 -7.95 21.0 -8.7 22.25 -10.3 22.5 -10.55 22.8 -10.85 L22.9 -10.95 Q23.35 -11.35 24.0 -11.85 L24.55 -12.2 24.8 -12.4 25.2 -12.75 Q25.9 -13.4 26.2 -13.8 L26.2 -20.35 Q26.25 -20.7 26.25 -21.25 L26.2 -21.85 26.15 -21.95 26.15 -22.05 Q26.15 -22.35 25.45 -23.25 L25.45 -23.3 25.4 -23.35 Q24.95 -23.9 24.45 -24.4 L23.8 -25.05 23.55 -25.25 M19.4 -8.5 L19.4 -8.5 M14.2 -20.4 L14.1 -20.6 14.0 -20.55 13.55 -20.3 13.5 -20.35 Q12.7 -20.15 11.5 -18.95 10.25 -17.7 10.25 -17.1 10.25 -16.9 10.25 -16.75 10.3 -16.45 10.5 -16.4 L10.6 -16.35 Q11.0 -16.0 11.6 -16.0 L11.7 -15.95 11.9 -15.9 12.3 -15.95 13.3 -15.9 13.5 -15.65 13.5 -15.5 13.6 -15.45 13.55 -15.3 13.55 -15.25 13.65 -15.05 13.6 -14.9 Q14.3 -14.95 15.55 -14.55 L16.15 -14.35 Q16.35 -14.2 16.55 -14.1 L16.85 -13.95 16.9 -13.95 Q17.3 -13.75 17.45 -13.6 L17.45 -13.55 17.0 -13.75 16.85 -13.8 16.25 -13.95 16.25 -14.0 16.05 -14.1 Q14.75 -14.6 13.55 -14.6 L13.55 -14.55 13.4 -14.5 13.35 -14.55 13.1 -14.55 Q12.6 -14.5 12.45 -13.85 L12.35 -13.55 Q12.35 -13.35 12.35 -12.4 12.2 -11.55 12.45 -10.8 12.6 -10.35 12.85 -10.0 12.9 -9.85 13.05 -9.75 13.3 -9.45 13.75 -9.3 L13.85 -9.3 Q16.45 -9.4 17.45 -10.1 17.85 -10.25 18.35 -10.6 18.7 -10.95 18.9 -11.2 L18.9 -11.3 18.95 -12.4 18.95 -12.45 18.85 -12.4 18.8 -12.35 Q18.7 -12.25 18.5 -12.25 L18.5 -12.2 18.2 -12.1 17.7 -12.15 17.65 -12.1 17.65 -12.2 Q18.1 -12.7 18.3 -13.25 18.55 -13.8 18.55 -14.45 18.7 -14.85 18.7 -15.15 L18.7 -15.25 18.8 -15.25 18.65 -15.3 18.45 -15.35 18.3 -15.5 18.25 -15.5 18.15 -15.6 18.05 -15.65 17.85 -15.85 17.7 -15.95 17.65 -16.0 Q15.45 -17.85 14.2 -20.4 M14.7 -16.6 L14.5 -16.6 14.45 -16.7 14.45 -16.95 Q14.5 -17.15 14.7 -17.15 14.9 -17.2 15.1 -17.1 L15.15 -16.95 15.1 -16.75 14.9 -16.7 14.7 -16.6 M19.65 -10.3 L20.0 -10.9 Q20.3 -11.5 20.55 -12.0 20.9 -12.95 20.85 -13.85 L20.9 -13.95 Q20.1 -14.3 19.4 -14.75 L19.25 -14.85 19.05 -15.05 19.0 -14.5 Q18.85 -13.6 18.1 -12.5 L18.2 -12.5 18.5 -12.65 18.65 -12.75 18.9 -12.9 19.05 -13.2 19.15 -13.35 19.2 -13.4 19.2 -13.45 Q19.2 -12.8 19.3 -12.35 L19.25 -12.3 19.2 -11.15 Q19.2 -11.0 19.25 -10.9 L19.2 -10.85 19.2 -10.65 19.15 -9.65 19.3 -9.8 19.4 -10.0 19.6 -10.2 19.6 -10.25 19.65 -10.3 M20.15 -10.5 L19.45 -9.55 19.05 -8.9 18.7 -8.95 18.7 -9.95 18.75 -10.4 18.1 -9.9 17.7 -9.7 17.05 -9.25 Q17.45 -9.15 17.7 -9.0 L17.75 -9.0 Q18.65 -8.9 18.85 -8.35 L19.05 -8.4 Q19.05 -8.45 19.05 -8.55 19.5 -9.05 20.0 -9.95 20.25 -10.45 20.45 -11.05 L20.15 -10.55 20.15 -10.5" fill="#101010" fill-rule="evenodd" stroke="none"/>
  </g>
</svg>
