<?xml version="1.0" encoding="UTF-8" standalone="no"?>
<svg xmlns:ffdec="https://www.free-decompiler.com/flash" xmlns:xlink="http://www.w3.org/1999/xlink" ffdec:objectType="shape" height="22.05px" width="19.45px" xmlns="http://www.w3.org/2000/svg">
  <g transform="matrix(1.0, 0.0, 0.0, 1.0, -7.6, 26.2)">
    <path d="M14.0 -14.7 Q14.25 -14.4 14.95 -14.4 L15.1 -14.4 15.05 -14.7 Q15.05 -15.0 15.2 -15.2 15.4 -15.05 15.55 -14.8 15.7 -14.6 15.7 -14.45 L16.45 -14.5 16.8 -14.4 Q17.25 -14.15 17.85 -14.05 L18.15 -14.1 18.8 -14.1 18.8 -14.15 Q18.95 -14.15 18.9 -14.2 L18.8 -14.35 18.35 -14.35 18.25 -14.4 18.25 -14.35 Q17.5 -14.45 17.05 -14.6 L17.3 -14.65 Q17.05 -14.7 16.8 -14.8 16.45 -14.95 16.2 -15.15 16.4 -15.4 17.0 -15.35 L19.05 -15.1 20.2 -15.2 Q20.05 -14.7 19.45 -13.9 L18.5 -12.7 18.45 -12.75 Q18.5 -12.4 18.6 -12.25 L18.7 -12.15 18.6 -12.15 18.0 -12.25 17.8 -12.25 17.65 -12.15 Q17.4 -12.0 17.05 -12.0 L16.55 -12.0 16.45 -11.95 Q15.8 -11.65 15.0 -11.15 L14.2 -10.6 13.95 -10.6 Q13.75 -10.8 13.45 -11.25 L13.4 -11.4 13.45 -11.35 13.55 -11.45 13.55 -11.55 13.65 -11.6 Q13.75 -11.7 13.75 -11.8 L13.7 -12.15 Q13.6 -12.35 13.6 -12.45 13.7 -12.6 13.7 -12.75 13.7 -12.95 13.65 -13.1 13.7 -13.8 14.0 -14.7 M21.6 -9.2 Q21.6 -9.7 21.35 -10.15 21.15 -10.6 20.85 -10.8 21.05 -11.0 21.05 -11.25 21.05 -11.4 21.9 -14.4 22.0 -14.3 22.15 -14.3 21.95 -13.9 21.95 -13.65 L21.95 -13.1 22.1 -13.15 22.1 -13.1 22.2 -13.2 22.4 -13.2 22.55 -12.95 Q22.95 -12.35 23.6 -12.15 L23.55 -12.3 23.6 -11.9 Q23.6 -11.55 23.0 -11.15 22.4 -10.7 22.4 -10.65 L22.4 -10.55 22.45 -10.5 Q22.75 -10.7 23.2 -10.95 L23.8 -11.3 Q23.9 -11.5 23.95 -11.7 L23.95 -12.1 24.2 -12.1 Q24.55 -12.1 25.05 -13.3 L25.4 -14.15 Q26.05 -13.45 26.35 -13.45 L26.4 -13.45 26.3 -13.2 Q26.05 -12.4 25.7 -11.7 25.1 -10.5 24.5 -9.95 24.4 -9.7 23.95 -9.5 23.3 -9.2 22.25 -9.2 L21.6 -9.2 M22.35 -16.1 L22.5 -16.6 22.5 -16.15 22.35 -16.1 M22.4 -18.85 L22.3 -18.9 22.35 -18.9 22.4 -18.85 M10.8 -10.8 Q10.8 -10.65 10.9 -10.55 L10.9 -10.35 Q10.75 -10.0 10.7 -9.7 L10.75 -9.65 10.65 -9.55 10.65 -9.45 10.6 -9.35 10.4 -9.45 10.35 -9.45 Q10.0 -9.5 9.75 -9.6 8.8 -9.9 8.3 -11.05 8.0 -11.85 8.0 -12.7 L8.0 -12.8 7.95 -13.2 8.05 -13.85 8.05 -13.95 8.1 -14.0 Q8.15 -14.25 8.25 -14.4 8.5 -14.8 9.05 -14.95 L9.15 -15.05 9.35 -15.05 9.7 -15.15 10.5 -15.1 10.65 -15.1 10.7 -15.05 Q10.6 -14.75 10.6 -14.35 10.55 -14.15 10.55 -14.0 10.5 -13.75 10.6 -13.55 L10.35 -13.7 Q10.25 -14.05 10.2 -14.2 10.05 -14.75 9.3 -14.5 L9.15 -14.5 Q8.9 -14.35 8.75 -14.1 L8.65 -14.0 8.65 -13.85 Q8.8 -14.0 9.1 -14.2 9.6 -14.4 9.7 -14.25 9.8 -14.25 9.95 -13.75 L9.9 -13.85 Q9.5 -13.9 9.2 -13.5 8.8 -13.0 8.8 -12.05 8.8 -11.75 8.9 -11.4 9.1 -10.75 9.7 -10.65 9.85 -10.5 10.0 -10.45 L9.9 -10.6 10.05 -10.6 Q10.5 -10.6 10.8 -10.8 M11.1 -11.5 L11.45 -11.4 Q11.3 -11.2 11.15 -10.95 L11.05 -10.75 11.1 -11.5 M11.45 -12.95 L11.2 -12.75 11.1 -12.7 11.05 -13.05 11.3 -13.0 Q11.35 -12.95 11.45 -12.95 M13.1 -11.9 L13.05 -11.95 13.1 -11.9 M17.9 -12.95 Q17.7 -13.05 17.4 -13.05 16.85 -13.1 16.55 -13.4 L16.4 -13.65 Q16.25 -13.85 16.1 -13.8 16.25 -13.3 16.45 -13.1 16.65 -12.95 16.95 -12.8 L17.1 -12.85 17.9 -12.95 M14.5 -13.2 L14.5 -13.85 Q14.45 -14.25 14.25 -14.5 14.05 -14.35 13.9 -13.45 13.8 -12.7 13.8 -12.35 13.8 -11.75 14.0 -11.55 14.35 -11.7 14.45 -12.35 L14.5 -13.2 M14.1 -5.9 L13.85 -6.1 13.8 -6.15 Q13.4 -6.5 13.4 -6.7 13.7 -7.15 14.2 -7.65 14.55 -8.0 14.9 -8.3 15.5 -7.95 16.25 -6.8 L16.1 -6.85 Q15.3 -6.85 14.75 -6.65 14.15 -6.45 14.15 -6.1 14.1 -6.1 14.1 -6.0 L14.1 -5.9" fill="#f9bd91" fill-rule="evenodd" stroke="none"/>
    <path d="M13.1 -16.1 L13.8 -15.85 13.8 -15.6 Q13.8 -15.55 13.75 -15.55 13.75 -15.2 13.25 -14.3 12.75 -13.4 12.45 -13.25 L12.4 -13.25 12.25 -13.2 11.7 -13.35 11.1 -13.5 11.05 -13.5 11.0 -13.55 Q10.9 -13.65 10.9 -14.0 10.9 -14.4 11.4 -15.1 L11.9 -15.6 12.35 -15.95 12.65 -16.05 12.7 -16.05 Q12.9 -16.1 13.1 -16.1" fill="#40372f" fill-rule="evenodd" stroke="none"/>
    <path d="M11.75 -6.65 L11.45 -7.2 11.1 -8.15 11.15 -8.2 11.1 -8.45 11.05 -8.55 11.05 -8.95 11.0 -9.3 Q11.1 -10.15 11.9 -11.1 L12.65 -11.95 Q12.75 -11.55 12.95 -11.15 13.35 -10.25 13.8 -10.25 L13.85 -10.25 14.85 -10.65 14.75 -10.6 Q14.75 -10.4 14.85 -10.35 L15.1 -10.25 Q15.8 -10.4 17.05 -11.1 L17.2 -11.2 17.45 -11.35 17.55 -11.4 17.7 -11.25 Q18.85 -10.9 19.5 -8.7 L19.5 -7.7 19.4 -7.6 Q19.3 -7.55 19.1 -7.55 18.8 -7.55 18.65 -7.7 L18.65 -7.25 Q18.65 -6.6 18.55 -6.25 18.35 -5.65 17.7 -5.65 L17.55 -5.65 17.45 -5.75 17.15 -6.4 17.05 -6.6 Q16.6 -7.45 15.95 -8.1 15.5 -8.5 15.15 -8.65 L15.15 -8.7 15.0 -8.7 14.95 -8.75 14.95 -8.7 Q14.75 -8.7 14.75 -8.55 L14.75 -8.6 Q14.75 -8.8 14.65 -8.85 14.5 -8.85 14.4 -8.9 13.95 -8.7 12.95 -7.9 11.75 -7.05 11.75 -6.75 L11.75 -6.65 M13.45 -11.25 L13.45 -11.2 13.4 -11.3 13.3 -11.45 13.25 -11.5 13.15 -11.75 13.25 -11.65 13.4 -11.4 13.45 -11.25 M19.75 -11.6 L19.8 -11.45 19.75 -11.6 M20.3 -9.25 L20.25 -8.6 20.3 -9.25 M12.25 -6.2 L12.4 -6.15 12.35 -6.1 12.25 -6.2" fill="#c1d3b6" fill-rule="evenodd" stroke="none"/>
    <path d="M11.85 -21.5 L11.8 -21.55 11.8 -21.8 11.85 -22.0 12.2 -23.7 Q12.45 -23.95 13.0 -24.2 L13.1 -24.25 13.15 -24.3 14.15 -24.85 Q14.7 -25.15 15.25 -25.3 16.3 -25.6 17.65 -25.6 L18.05 -25.55 19.45 -25.35 Q20.15 -25.2 20.75 -24.85 L21.05 -24.7 21.15 -24.6 21.35 -24.5 21.45 -24.4 21.05 -24.35 Q21.05 -24.25 20.85 -24.0 L20.5 -23.5 Q19.9 -22.65 19.85 -21.8 19.85 -21.0 18.55 -20.5 17.6 -20.1 16.2 -20.0 L13.8 -20.0 13.0 -20.25 12.9 -20.25 12.25 -20.3 Q12.1 -20.3 11.9 -20.7 L11.8 -21.0 Q11.8 -21.3 11.9 -21.55 L11.85 -21.5 M22.15 -23.45 L22.15 -23.4 Q22.25 -23.35 22.25 -23.25 L22.25 -23.2 22.3 -23.2 22.3 -22.6 Q22.25 -23.1 22.15 -23.45" fill="#a33d1f" fill-rule="evenodd" stroke="none"/>
    <path d="M11.85 -21.5 L11.9 -21.55 Q11.8 -21.3 11.8 -21.0 L11.9 -20.7 Q12.1 -20.3 12.25 -20.3 L12.9 -20.25 13.0 -20.25 13.8 -20.0 16.2 -20.0 Q17.6 -20.1 18.55 -20.5 19.85 -21.0 19.85 -21.8 19.9 -22.65 20.5 -23.5 L20.85 -24.0 Q21.05 -24.25 21.05 -24.35 L21.45 -24.4 21.6 -24.2 22.15 -23.45 Q22.25 -23.1 22.3 -22.6 L22.3 -19.7 22.25 -19.7 Q22.25 -19.55 22.15 -19.45 L21.7 -19.4 21.6 -19.35 20.25 -19.15 17.95 -19.15 16.25 -19.0 Q14.0 -19.0 13.0 -19.2 L11.85 -19.6 11.85 -19.65 11.8 -19.7 Q11.5 -19.8 11.5 -19.85 11.5 -20.1 11.6 -20.7 11.7 -21.3 11.85 -21.5" fill="#783423" fill-rule="evenodd" stroke="none"/>
    <path d="M14.0 -14.7 L14.0 -14.8 14.35 -15.95 Q14.45 -15.95 14.5 -16.25 15.15 -17.05 16.1 -17.9 L17.8 -18.4 18.25 -18.4 Q19.55 -18.4 21.0 -18.6 21.9 -18.75 22.25 -18.9 L22.3 -18.9 22.4 -18.85 22.4 -18.75 Q22.4 -18.15 22.45 -17.5 L22.45 -17.05 22.5 -16.6 22.35 -16.1 21.9 -15.8 Q21.1 -15.1 21.1 -14.75 L21.5 -15.05 21.65 -15.15 22.1 -15.6 22.2 -15.65 22.25 -15.7 Q22.85 -16.15 23.3 -16.15 L23.45 -16.2 23.75 -16.25 23.85 -16.25 Q24.4 -16.25 24.85 -16.05 L24.9 -16.0 Q25.5 -15.8 25.9 -15.25 26.35 -14.7 26.45 -14.25 26.55 -14.15 26.55 -14.0 26.55 -13.9 26.4 -13.45 L26.35 -13.45 Q26.05 -13.45 25.4 -14.15 L25.05 -13.3 Q24.55 -12.1 24.2 -12.1 L23.95 -12.1 Q23.85 -12.8 23.05 -13.35 22.7 -13.55 22.4 -13.55 L22.25 -13.55 22.7 -14.55 Q23.05 -15.2 23.4 -15.4 23.6 -15.5 23.8 -15.5 L23.95 -15.45 Q24.15 -15.55 24.65 -15.1 L25.2 -14.55 25.25 -14.55 25.2 -14.7 24.75 -15.6 24.75 -15.65 Q24.1 -16.15 23.2 -15.55 L23.05 -15.4 22.85 -15.25 22.7 -15.1 22.6 -14.95 22.3 -14.55 22.2 -14.35 22.15 -14.3 Q22.0 -14.3 21.9 -14.4 21.05 -11.4 21.05 -11.25 21.05 -11.0 20.85 -10.8 21.15 -10.6 21.35 -10.15 21.6 -9.7 21.6 -9.2 L21.55 -9.2 21.35 -9.25 Q21.2 -9.2 21.0 -8.95 L21.05 -9.35 Q21.05 -10.2 20.5 -11.15 L20.2 -11.55 20.2 -11.6 20.25 -11.65 20.25 -11.7 20.3 -11.6 20.7 -11.15 Q20.75 -11.2 20.75 -11.3 L20.5 -11.6 20.2 -11.9 19.9 -12.0 19.6 -12.05 19.1 -12.1 19.05 -12.1 18.85 -12.15 18.85 -12.1 18.7 -12.15 18.6 -12.25 Q18.5 -12.4 18.45 -12.75 L18.5 -12.7 19.45 -13.9 Q20.05 -14.7 20.2 -15.2 L19.05 -15.1 17.0 -15.35 Q16.4 -15.4 16.2 -15.15 16.45 -14.95 16.8 -14.8 17.05 -14.7 17.3 -14.65 L17.05 -14.6 16.95 -14.6 16.7 -14.7 Q16.45 -14.8 16.3 -14.95 L16.25 -15.0 16.1 -15.1 Q15.9 -15.3 15.85 -15.45 L15.55 -15.5 15.75 -15.15 Q15.9 -14.9 16.15 -14.7 16.3 -14.6 16.45 -14.5 L15.7 -14.45 Q15.7 -14.6 15.55 -14.8 L15.45 -15.0 Q15.3 -15.3 15.3 -15.45 L15.45 -15.65 15.6 -15.8 15.75 -15.8 Q15.6 -15.9 15.5 -15.95 L15.25 -15.85 Q15.15 -15.6 15.15 -15.45 15.15 -15.35 15.2 -15.2 15.05 -15.0 15.05 -14.7 L15.1 -14.4 14.95 -14.4 Q14.25 -14.4 14.0 -14.7 M11.25 -17.0 L12.25 -18.9 14.55 -18.45 16.15 -18.45 Q15.7 -18.15 15.25 -17.7 L14.65 -17.15 14.6 -17.15 14.6 -17.85 14.55 -17.75 14.35 -17.5 14.35 -17.3 14.25 -16.65 14.15 -16.5 Q13.5 -17.1 12.2 -16.3 L11.9 -16.05 11.55 -15.8 11.15 -15.55 11.15 -16.05 11.25 -17.0 M17.2 -17.65 L16.5 -17.15 18.95 -17.75 Q18.0 -18.0 17.2 -17.65 M21.95 -16.5 L21.75 -16.5 Q21.65 -16.5 21.65 -16.4 21.65 -16.3 21.7 -16.25 L21.8 -16.2 21.95 -16.25 22.0 -16.4 21.95 -16.5 M21.5 -18.2 Q21.5 -18.1 21.7 -17.95 L21.85 -18.05 21.85 -18.3 21.8 -18.35 21.55 -18.35 21.5 -18.3 21.5 -18.2 M21.0 -17.3 L20.75 -17.35 20.7 -17.15 Q20.7 -17.1 20.85 -16.95 20.95 -16.95 21.0 -17.0 L21.05 -17.05 21.05 -17.2 21.0 -17.3 M10.8 -10.8 Q10.5 -10.6 10.05 -10.6 L9.9 -10.6 9.85 -10.85 Q9.75 -11.15 9.75 -11.5 9.75 -11.95 9.8 -12.1 9.9 -12.3 10.05 -12.35 10.15 -12.45 10.35 -12.6 L10.45 -12.45 Q10.5 -12.4 10.55 -12.4 L10.65 -12.4 10.7 -12.25 10.7 -11.35 Q10.7 -11.0 10.8 -10.8 M9.7 -10.65 Q9.1 -10.75 8.9 -11.4 8.8 -11.75 8.8 -12.05 8.8 -13.0 9.2 -13.5 9.5 -13.9 9.9 -13.85 L9.95 -13.75 10.1 -13.4 Q10.15 -13.1 10.25 -12.9 L10.2 -12.85 Q9.85 -12.9 9.65 -12.5 9.45 -12.15 9.45 -11.65 9.45 -11.4 9.45 -11.25 L9.45 -11.05 Q9.5 -10.7 9.7 -10.65 M10.35 -13.7 L10.6 -13.55 10.7 -13.35 Q10.6 -13.3 10.6 -13.15 L10.5 -13.35 10.4 -13.7 10.35 -13.7 M11.1 -11.5 L11.1 -12.7 11.2 -12.75 11.45 -12.95 Q11.85 -12.8 12.55 -12.8 12.9 -12.8 13.3 -13.3 13.25 -12.9 13.25 -12.45 L13.25 -12.3 13.2 -12.3 Q13.05 -12.25 13.05 -12.0 L13.05 -11.95 12.95 -12.05 13.0 -12.05 13.0 -12.1 12.8 -12.3 Q12.25 -12.4 11.9 -12.2 11.7 -12.1 11.6 -11.95 L11.65 -11.9 Q11.75 -11.9 11.9 -12.0 L12.05 -12.1 Q11.75 -11.85 11.45 -11.4 L11.1 -11.5 M23.55 -12.3 L23.6 -12.15 Q22.95 -12.35 22.55 -12.95 L22.4 -13.2 Q23.1 -13.3 23.4 -12.7 L23.55 -12.3 M20.7 -9.6 L20.65 -9.6 20.65 -9.65 20.7 -9.6 M13.6 -12.45 L13.6 -12.5 13.65 -13.1 Q13.7 -12.95 13.7 -12.75 13.7 -12.6 13.6 -12.45 M14.1 -5.9 L14.1 -6.0 Q14.1 -6.1 14.15 -6.1 14.15 -6.45 14.75 -6.65 15.3 -6.85 16.1 -6.85 L16.25 -6.8 16.65 -6.3 17.2 -5.45 16.3 -5.4 15.15 -5.4 Q14.65 -5.55 14.1 -5.9" fill="#e7955f" fill-rule="evenodd" stroke="none"/>
    <path d="M11.75 -6.65 L11.75 -6.75 Q11.75 -7.05 12.95 -7.9 13.95 -8.7 14.4 -8.9 14.5 -8.85 14.65 -8.85 14.75 -8.8 14.75 -8.6 L14.75 -8.55 14.55 -8.45 14.5 -8.4 14.45 -8.45 14.35 -8.45 13.95 -8.0 Q13.5 -7.7 13.1 -7.15 L12.8 -6.7 12.55 -6.35 12.4 -6.15 12.25 -6.2 11.75 -6.65 M17.55 -5.65 L17.7 -5.65 Q18.35 -5.65 18.55 -6.25 18.65 -6.6 18.65 -7.25 L18.65 -7.7 Q18.8 -7.55 19.1 -7.55 19.3 -7.55 19.4 -7.6 L19.5 -7.7 19.5 -8.7 Q18.85 -10.9 17.7 -11.25 L17.55 -11.4 17.45 -11.35 17.2 -11.2 17.05 -11.1 Q15.8 -10.4 15.1 -10.25 L14.85 -10.35 Q14.75 -10.4 14.75 -10.6 L14.85 -10.65 15.7 -11.0 15.75 -11.0 15.8 -11.05 15.85 -11.05 Q17.05 -11.75 17.05 -12.0 17.4 -12.0 17.65 -12.15 L17.95 -12.15 18.15 -12.1 18.25 -12.1 18.45 -12.05 18.9 -11.9 Q19.2 -11.8 19.45 -11.65 L19.6 -11.65 19.75 -11.6 19.8 -11.45 19.95 -11.1 19.95 -11.05 20.1 -10.75 20.25 -10.15 20.3 -9.25 20.25 -8.6 18.15 -4.95 18.0 -4.9 Q17.95 -4.95 17.8 -5.15 17.65 -5.4 17.65 -5.5 L17.55 -5.6 17.55 -5.65 M12.75 -5.8 L12.8 -5.85 12.75 -5.75 12.7 -5.7 12.7 -5.65 12.75 -5.8" fill="#8a8860" fill-rule="evenodd" stroke="none"/>
    <path d="M13.05 -11.95 L13.05 -12.0 Q13.05 -12.25 13.2 -12.3 L13.25 -12.3 Q13.45 -12.15 13.5 -12.0 L13.55 -11.65 13.55 -11.55 13.55 -11.45 13.45 -11.35 13.4 -11.4 13.25 -11.65 13.15 -11.75 13.1 -11.9 13.05 -11.95 M14.5 -13.2 L14.45 -12.35 Q14.35 -11.7 14.0 -11.55 13.8 -11.75 13.8 -12.35 13.8 -12.7 13.9 -13.45 14.05 -14.35 14.25 -14.5 14.45 -14.25 14.5 -13.85 L14.5 -13.2" fill="#fde3d0" fill-rule="evenodd" stroke="none"/>
    <path d="M21.9 -24.85 Q22.6 -24.1 22.95 -23.5 23.0 -22.65 23.1 -21.75 L23.1 -19.65 23.15 -19.65 23.1 -19.45 23.1 -16.65 23.15 -16.6 23.3 -16.6 Q23.4 -16.6 23.45 -16.65 L23.8 -16.65 Q25.0 -16.75 25.55 -16.45 25.75 -16.35 25.85 -16.2 26.0 -16.1 26.3 -15.7 27.05 -14.6 27.05 -13.95 L27.05 -13.7 Q27.05 -13.6 26.8 -12.95 26.5 -12.15 26.1 -11.45 25.25 -9.7 24.5 -9.35 24.15 -9.15 23.35 -8.8 22.6 -8.8 22.05 -8.65 21.55 -8.5 21.55 -8.35 21.1 -8.15 20.7 -7.45 L20.25 -6.55 20.05 -6.2 20.05 -6.15 19.9 -6.0 Q19.0 -4.45 18.35 -4.3 L18.2 -4.15 18.1 -4.15 17.75 -4.6 Q17.4 -4.9 17.3 -4.75 L16.2 -4.65 Q14.55 -4.65 13.5 -5.6 13.25 -5.8 13.1 -6.05 12.75 -5.55 12.55 -5.35 12.5 -5.3 12.45 -5.3 L12.4 -5.3 12.4 -5.25 12.35 -5.3 12.3 -5.3 12.05 -5.35 Q11.55 -5.95 11.35 -6.35 10.9 -7.2 10.7 -7.85 L10.6 -8.05 Q10.5 -8.4 10.45 -8.75 L10.45 -8.8 10.4 -8.8 10.45 -8.85 10.25 -8.95 Q8.8 -9.05 8.15 -10.5 L8.1 -10.65 8.0 -10.8 7.65 -11.85 Q7.65 -12.15 7.6 -12.45 L7.6 -13.2 7.8 -14.15 7.85 -14.4 7.95 -14.75 8.0 -14.8 Q8.1 -14.8 8.15 -14.9 L8.45 -15.1 Q9.3 -15.7 10.1 -15.7 L10.25 -15.7 Q10.4 -15.55 10.55 -15.55 L10.75 -15.7 11.45 -21.85 Q11.5 -22.65 11.5 -23.5 L11.9 -24.1 Q12.05 -24.2 12.2 -24.3 L12.25 -24.25 12.25 -24.3 Q12.8 -24.75 13.9 -25.25 14.8 -25.7 15.5 -25.8 L15.6 -25.85 Q15.9 -26.1 16.95 -26.15 18.95 -26.25 20.05 -25.95 L20.2 -25.9 20.5 -25.75 20.65 -25.7 Q20.75 -25.7 20.95 -25.6 21.35 -25.45 21.9 -24.85 M21.45 -24.4 L21.35 -24.5 21.15 -24.6 21.05 -24.7 20.75 -24.85 Q20.15 -25.2 19.45 -25.35 L18.05 -25.55 17.65 -25.6 Q16.3 -25.6 15.25 -25.3 14.7 -25.15 14.15 -24.85 L13.15 -24.3 13.1 -24.25 13.0 -24.2 Q12.45 -23.95 12.2 -23.7 L11.85 -22.0 11.8 -21.8 11.8 -21.55 11.85 -21.5 Q11.7 -21.3 11.6 -20.7 11.5 -20.1 11.5 -19.85 11.5 -19.8 11.8 -19.7 L11.85 -19.65 11.85 -19.6 13.0 -19.2 Q14.0 -19.0 16.25 -19.0 L17.95 -19.15 20.25 -19.15 21.6 -19.35 21.7 -19.4 22.15 -19.45 Q22.25 -19.55 22.25 -19.7 L22.3 -19.7 22.3 -22.6 22.3 -23.2 22.25 -23.2 22.25 -23.25 Q22.25 -23.35 22.15 -23.4 L22.15 -23.45 21.6 -24.2 21.45 -24.4 M22.3 -18.9 L22.25 -18.9 Q21.9 -18.75 21.0 -18.6 19.55 -18.4 18.25 -18.4 L17.8 -18.4 16.1 -17.9 Q15.15 -17.05 14.5 -16.25 14.45 -15.95 14.35 -15.95 L14.0 -14.8 14.0 -14.7 Q13.7 -13.8 13.65 -13.1 L13.6 -12.5 13.6 -12.45 Q13.6 -12.35 13.7 -12.15 L13.75 -11.8 Q13.75 -11.7 13.65 -11.6 L13.55 -11.55 13.55 -11.65 13.5 -12.0 Q13.45 -12.15 13.25 -12.3 L13.25 -12.45 Q13.25 -12.9 13.3 -13.3 12.9 -12.8 12.55 -12.8 11.85 -12.8 11.45 -12.95 11.35 -12.95 11.3 -13.0 L11.05 -13.05 11.1 -12.7 11.1 -11.5 11.05 -10.75 11.15 -10.95 Q11.3 -11.2 11.45 -11.4 11.75 -11.85 12.05 -12.1 L11.9 -12.0 Q11.75 -11.9 11.65 -11.9 L11.6 -11.95 Q11.7 -12.1 11.9 -12.2 12.25 -12.4 12.8 -12.3 L13.0 -12.1 13.0 -12.05 12.95 -12.05 13.05 -11.95 13.1 -11.9 13.15 -11.75 13.25 -11.5 13.3 -11.45 13.4 -11.3 13.45 -11.2 13.45 -11.25 Q13.75 -10.8 13.95 -10.6 L14.2 -10.6 15.0 -11.15 Q15.8 -11.65 16.45 -11.95 L16.55 -12.0 17.05 -12.0 Q17.05 -11.75 15.85 -11.05 L15.8 -11.05 15.75 -11.0 15.7 -11.0 14.85 -10.65 13.85 -10.25 13.8 -10.25 Q13.35 -10.25 12.95 -11.15 12.75 -11.55 12.65 -11.95 L11.9 -11.1 Q11.1 -10.15 11.0 -9.3 L11.05 -8.95 11.05 -8.55 11.1 -8.45 11.15 -8.2 11.1 -8.15 11.45 -7.2 11.75 -6.65 12.25 -6.2 12.35 -6.1 12.4 -6.15 12.55 -6.35 12.8 -6.7 13.1 -7.15 Q13.5 -7.7 13.95 -8.0 L14.35 -8.45 14.45 -8.45 14.5 -8.4 14.55 -8.45 14.75 -8.55 Q14.75 -8.7 14.95 -8.7 L14.95 -8.75 15.0 -8.7 15.15 -8.7 15.15 -8.65 Q15.5 -8.5 15.95 -8.1 16.6 -7.45 17.05 -6.6 L17.15 -6.4 17.45 -5.75 17.55 -5.65 17.55 -5.6 17.65 -5.5 Q17.65 -5.4 17.8 -5.15 17.95 -4.95 18.0 -4.9 L18.15 -4.95 20.25 -8.6 20.3 -9.25 20.25 -10.15 20.1 -10.75 19.95 -11.05 19.95 -11.1 19.8 -11.45 19.75 -11.6 19.6 -11.65 19.45 -11.65 Q19.2 -11.8 18.9 -11.9 L18.45 -12.05 18.25 -12.1 18.15 -12.1 17.95 -12.15 17.65 -12.15 17.8 -12.25 18.0 -12.25 18.6 -12.15 18.7 -12.15 18.85 -12.1 18.85 -12.15 19.05 -12.1 19.1 -12.1 19.6 -12.05 19.9 -12.0 20.2 -11.9 20.5 -11.6 20.75 -11.3 Q20.75 -11.2 20.7 -11.15 L20.3 -11.6 20.25 -11.7 20.25 -11.65 20.2 -11.6 20.2 -11.55 20.5 -11.15 Q21.05 -10.2 21.05 -9.35 L21.0 -8.95 Q21.2 -9.2 21.35 -9.25 L21.55 -9.2 21.6 -9.2 22.25 -9.2 Q23.3 -9.2 23.95 -9.5 24.4 -9.7 24.5 -9.95 25.1 -10.5 25.7 -11.7 26.05 -12.4 26.3 -13.2 L26.4 -13.45 Q26.55 -13.9 26.55 -14.0 26.55 -14.15 26.45 -14.25 26.35 -14.7 25.9 -15.25 25.5 -15.8 24.9 -16.0 L24.85 -16.05 Q24.4 -16.25 23.85 -16.25 L23.75 -16.25 23.45 -16.2 23.3 -16.15 Q22.85 -16.15 22.25 -15.7 L22.2 -15.65 22.1 -15.6 21.65 -15.15 21.5 -15.05 21.1 -14.75 Q21.1 -15.1 21.9 -15.8 L22.35 -16.1 22.5 -16.15 22.5 -16.6 22.45 -17.05 22.45 -17.5 Q22.4 -18.15 22.4 -18.75 L22.4 -18.85 22.35 -18.9 22.3 -18.9 M15.2 -15.2 Q15.15 -15.35 15.15 -15.45 15.15 -15.6 15.25 -15.85 L15.5 -15.95 Q15.6 -15.9 15.75 -15.8 L15.6 -15.8 15.45 -15.65 15.3 -15.45 Q15.3 -15.3 15.45 -15.0 L15.55 -14.8 Q15.4 -15.05 15.2 -15.2 M16.45 -14.5 Q16.3 -14.6 16.15 -14.7 15.9 -14.9 15.75 -15.15 L15.55 -15.5 15.85 -15.45 Q15.9 -15.3 16.1 -15.1 L16.25 -15.0 16.3 -14.95 Q16.45 -14.8 16.7 -14.7 L16.95 -14.6 17.05 -14.6 Q17.5 -14.45 18.25 -14.35 L18.25 -14.4 18.35 -14.35 18.8 -14.35 18.9 -14.2 Q18.95 -14.15 18.8 -14.15 L18.8 -14.1 18.15 -14.1 17.85 -14.05 Q17.25 -14.15 16.8 -14.4 L16.45 -14.5 M22.15 -14.3 L22.2 -14.35 22.3 -14.55 22.6 -14.95 22.7 -15.1 22.85 -15.25 23.05 -15.4 23.2 -15.55 Q24.1 -16.15 24.75 -15.65 L24.75 -15.6 25.2 -14.7 25.25 -14.55 25.2 -14.55 24.65 -15.1 Q24.15 -15.55 23.95 -15.45 L23.8 -15.5 Q23.6 -15.5 23.4 -15.4 23.05 -15.2 22.7 -14.55 L22.25 -13.55 22.4 -13.55 Q22.7 -13.55 23.05 -13.35 23.85 -12.8 23.95 -12.1 L23.95 -11.7 Q23.9 -11.5 23.8 -11.3 L23.2 -10.95 Q22.75 -10.7 22.45 -10.5 L22.4 -10.55 22.4 -10.65 Q22.4 -10.7 23.0 -11.15 23.6 -11.55 23.6 -11.9 L23.55 -12.3 23.4 -12.7 Q23.1 -13.3 22.4 -13.2 L22.2 -13.2 22.1 -13.1 22.1 -13.15 21.95 -13.1 21.95 -13.65 Q21.95 -13.9 22.15 -14.3 M11.25 -17.0 L11.15 -16.05 11.15 -15.55 11.55 -15.8 11.9 -16.05 12.2 -16.3 Q13.5 -17.1 14.15 -16.5 L14.25 -16.65 14.35 -17.3 14.35 -17.5 14.55 -17.75 14.6 -17.85 14.6 -17.15 14.65 -17.15 15.25 -17.7 Q15.7 -18.15 16.15 -18.45 L14.55 -18.45 12.25 -18.9 11.25 -17.0 M13.1 -16.1 Q12.9 -16.1 12.7 -16.05 L12.65 -16.05 12.35 -15.95 11.9 -15.6 11.4 -15.1 Q10.9 -14.4 10.9 -14.0 10.9 -13.65 11.0 -13.55 L11.05 -13.5 11.1 -13.5 11.7 -13.35 12.25 -13.2 12.4 -13.25 12.45 -13.25 Q12.75 -13.4 13.25 -14.3 13.75 -15.2 13.75 -15.55 13.8 -15.55 13.8 -15.6 L13.8 -15.85 13.1 -16.1 M17.2 -17.65 Q18.0 -18.0 18.95 -17.75 L16.5 -17.15 17.2 -17.65 M21.5 -18.2 L21.5 -18.3 21.55 -18.35 21.8 -18.35 21.85 -18.3 21.85 -18.05 21.7 -17.95 Q21.5 -18.1 21.5 -18.2 M21.95 -16.5 L22.0 -16.4 21.95 -16.25 21.8 -16.2 21.7 -16.25 Q21.65 -16.3 21.65 -16.4 21.65 -16.5 21.75 -16.5 L21.95 -16.5 M21.0 -17.3 L21.05 -17.2 21.05 -17.05 21.0 -17.0 Q20.95 -16.95 20.85 -16.95 20.7 -17.1 20.7 -17.15 L20.75 -17.35 21.0 -17.3 M10.6 -13.55 Q10.5 -13.75 10.55 -14.0 10.55 -14.15 10.6 -14.35 10.6 -14.75 10.7 -15.05 L10.65 -15.1 10.5 -15.1 9.7 -15.15 9.35 -15.05 9.15 -15.05 9.05 -14.95 Q8.5 -14.8 8.25 -14.4 8.15 -14.25 8.1 -14.0 L8.05 -13.95 8.05 -13.85 7.95 -13.2 8.0 -12.8 8.0 -12.7 Q8.0 -11.85 8.3 -11.05 8.8 -9.9 9.75 -9.6 10.0 -9.5 10.35 -9.45 L10.4 -9.45 10.6 -9.35 10.65 -9.45 10.65 -9.55 10.75 -9.65 10.7 -9.7 Q10.75 -10.0 10.9 -10.35 L10.9 -10.55 Q10.8 -10.65 10.8 -10.8 10.7 -11.0 10.7 -11.35 L10.7 -12.25 10.65 -12.4 10.55 -12.4 Q10.5 -12.4 10.45 -12.45 L10.35 -12.6 Q10.15 -12.45 10.05 -12.35 9.9 -12.3 9.8 -12.1 9.75 -11.95 9.75 -11.5 9.75 -11.15 9.85 -10.85 L9.9 -10.6 10.0 -10.45 Q9.85 -10.5 9.7 -10.65 9.5 -10.7 9.45 -11.05 L9.45 -11.25 Q9.45 -11.4 9.45 -11.65 9.45 -12.15 9.65 -12.5 9.85 -12.9 10.2 -12.85 L10.25 -12.9 Q10.15 -13.1 10.1 -13.4 L9.95 -13.75 Q9.8 -14.25 9.7 -14.25 9.6 -14.4 9.1 -14.2 8.8 -14.0 8.65 -13.85 L8.65 -14.0 8.75 -14.1 Q8.9 -14.35 9.15 -14.5 L9.3 -14.5 Q10.05 -14.75 10.2 -14.2 10.25 -14.05 10.35 -13.7 L10.4 -13.7 10.5 -13.35 10.6 -13.15 Q10.6 -13.3 10.7 -13.35 L10.6 -13.55 M17.9 -12.95 L17.1 -12.85 16.95 -12.8 Q16.65 -12.95 16.45 -13.1 16.25 -13.3 16.1 -13.8 16.25 -13.85 16.4 -13.65 L16.55 -13.4 Q16.85 -13.1 17.4 -13.05 17.7 -13.05 17.9 -12.95 M20.05 -11.85 L19.95 -11.95 19.95 -11.9 20.05 -11.85 M20.7 -9.6 L20.65 -9.65 20.65 -9.6 20.7 -9.6 M16.25 -6.8 Q15.5 -7.95 14.9 -8.3 14.55 -8.0 14.2 -7.65 13.7 -7.15 13.4 -6.7 13.4 -6.5 13.8 -6.15 L13.85 -6.1 14.1 -5.9 Q14.65 -5.55 15.15 -5.4 L16.3 -5.4 17.2 -5.45 16.65 -6.3 16.25 -6.8 M12.75 -5.8 L12.7 -5.65 12.7 -5.7 12.75 -5.75 12.8 -5.85 12.75 -5.8" fill="#101010" fill-rule="evenodd" stroke="none"/>
    <path d="M15.95 -16.85 Q16.05 -17.2 16.25 -17.5 L16.25 -17.55 16.4 -17.75 16.75 -18.35 17.0 -18.5 17.15 -18.55 17.6 -18.6 17.6 -18.4 17.25 -17.85 17.2 -17.8 Q17.1 -17.7 17.1 -17.6 L17.05 -17.45 17.05 -17.3 17.1 -17.3 17.15 -17.35 17.35 -17.5 17.35 -17.55 17.4 -17.6 17.45 -17.6 Q17.5 -17.6 17.6 -17.65 L17.65 -17.75 17.7 -17.75 17.8 -17.8 17.95 -17.9 Q18.45 -18.1 18.75 -18.15 L18.95 -18.2 Q19.6 -18.2 19.95 -18.0 L19.85 -18.05 19.65 -17.9 Q19.5 -17.7 19.0 -17.0 L18.5 -16.3 Q18.25 -16.3 17.45 -16.6 16.6 -16.9 16.15 -16.9 L15.95 -16.85 M10.8 -16.6 L10.75 -16.75 10.6 -17.15 Q10.55 -17.45 10.55 -17.85 L10.55 -18.05 10.7 -18.55 10.7 -18.6 Q10.75 -18.7 10.8 -18.8 L10.95 -18.9 Q11.1 -19.1 11.45 -19.25 11.75 -19.4 12.0 -19.3 L12.2 -19.2 12.55 -18.85 12.6 -18.85 12.8 -18.65 12.9 -18.5 13.35 -17.75 Q12.8 -17.8 11.75 -17.25 11.05 -16.9 10.8 -16.6 M13.65 -16.7 L13.65 -16.7 M16.05 -16.45 L16.1 -16.4 16.2 -16.4 16.1 -16.4 16.05 -16.45 M15.7 -16.55 L15.7 -16.5 15.65 -16.5 15.7 -16.55 15.65 -16.6 15.7 -16.6 15.7 -16.55" fill="#c1d3b6" fill-rule="evenodd" stroke="none"/>
    <path d="M15.95 -16.85 L16.15 -16.9 Q16.6 -16.9 17.45 -16.6 18.25 -16.3 18.5 -16.3 L19.0 -17.0 Q19.5 -17.7 19.65 -17.9 L19.85 -18.05 19.95 -18.0 20.15 -17.9 20.2 -17.85 20.35 -17.45 20.45 -16.8 Q20.4 -16.3 20.25 -15.75 20.1 -15.25 19.85 -14.8 L19.8 -14.7 19.7 -14.75 19.1 -15.15 19.05 -15.2 19.0 -15.2 18.95 -15.25 Q18.55 -15.55 17.85 -15.85 L17.7 -15.95 Q17.15 -16.2 16.65 -16.3 L16.2 -16.4 16.1 -16.4 16.05 -16.45 15.85 -16.45 15.85 -16.5 15.9 -16.7 15.95 -16.85 M12.8 -18.65 L12.9 -18.6 12.5 -19.3 Q12.5 -19.7 12.95 -19.2 L13.05 -19.15 13.2 -19.05 13.45 -18.65 13.5 -18.6 13.75 -18.2 13.9 -17.9 13.9 -17.8 13.95 -17.75 Q14.05 -17.45 14.05 -17.15 L14.05 -17.0 Q14.05 -16.95 13.95 -16.95 L13.8 -16.95 13.8 -16.9 Q13.05 -16.95 12.05 -16.65 11.2 -16.4 11.05 -16.2 L11.0 -16.2 10.9 -16.4 10.9 -16.45 10.85 -16.5 10.85 -16.55 10.8 -16.6 Q11.05 -16.9 11.75 -17.25 12.8 -17.8 13.35 -17.75 L12.9 -18.5 12.8 -18.65 M18.2 -4.8 L18.1 -4.8 Q18.1 -5.0 18.2 -5.15 L18.3 -5.3 18.35 -5.3 18.95 -6.45 19.8 -7.95 Q19.9 -8.6 19.9 -9.25 L19.85 -10.1 Q19.8 -10.65 19.55 -11.0 L19.6 -11.05 Q20.1 -10.75 20.3 -10.0 20.45 -9.5 20.45 -8.85 L20.45 -8.45 Q20.4 -8.0 20.2 -7.45 L20.15 -7.35 19.85 -6.8 Q19.55 -6.25 19.1 -5.75 L18.7 -5.35 18.45 -5.0 18.45 -4.9 18.35 -4.85 18.3 -4.8 18.2 -4.8 M20.05 -9.75 Q20.1 -9.1 20.0 -8.4 L20.1 -8.6 20.25 -8.6 20.2 -9.15 20.05 -9.75" fill="#8a8860" fill-rule="evenodd" stroke="none"/>
    <path d="M11.6 -23.45 L11.65 -23.45 11.7 -23.4 11.7 -23.35 Q11.75 -23.25 11.75 -22.95 L11.65 -21.6 11.6 -21.25 11.55 -21.1 11.4 -19.6 11.65 -19.65 11.85 -19.65 12.0 -19.6 Q12.05 -19.55 12.1 -19.55 12.2 -19.55 12.25 -19.6 L12.3 -19.7 12.3 -19.8 Q12.4 -19.95 12.6 -19.85 L12.7 -19.8 Q13.2 -19.4 13.65 -18.8 L13.95 -18.4 Q14.05 -18.15 14.2 -17.8 L14.25 -17.7 14.3 -17.45 14.45 -16.95 14.5 -16.55 Q14.0 -16.75 12.6 -16.4 11.75 -16.2 11.1 -15.9 L11.05 -15.85 10.95 -15.8 10.9 -15.9 10.9 -15.85 10.95 -15.7 10.9 -15.6 10.9 -15.55 10.85 -15.55 10.75 -15.45 10.7 -15.5 10.65 -15.45 Q10.55 -15.4 10.7 -15.35 10.45 -15.25 10.35 -15.4 L10.25 -15.65 10.6 -15.65 10.6 -15.8 Q10.6 -16.0 10.65 -16.1 L10.5 -16.55 Q10.2 -17.15 10.2 -17.8 L10.2 -18.2 10.25 -18.2 10.25 -18.3 Q10.25 -18.85 10.3 -19.0 10.5 -19.35 11.05 -19.5 L11.05 -19.7 Q11.05 -20.1 11.2 -21.45 L11.45 -22.9 11.45 -23.45 11.6 -23.45 M17.45 -17.6 L17.4 -17.6 17.35 -17.55 17.35 -17.5 17.15 -17.35 17.1 -17.3 17.05 -17.3 17.05 -17.45 17.1 -17.6 Q17.1 -17.7 17.2 -17.8 L17.25 -17.85 17.6 -18.4 17.6 -18.6 17.15 -18.55 17.0 -18.5 16.75 -18.35 16.4 -17.75 16.25 -17.55 16.25 -17.5 Q16.05 -17.2 15.95 -16.85 L15.9 -16.7 15.85 -16.5 15.85 -16.45 16.05 -16.45 16.1 -16.4 16.2 -16.4 16.65 -16.3 Q17.15 -16.2 17.7 -15.95 L17.85 -15.85 Q18.55 -15.55 18.95 -15.25 L19.0 -15.2 19.05 -15.2 19.1 -15.15 19.7 -14.75 19.8 -14.7 19.85 -14.8 Q20.1 -15.25 20.25 -15.75 20.4 -16.3 20.45 -16.8 L20.35 -17.45 20.2 -17.85 20.15 -17.9 19.95 -18.0 Q19.6 -18.2 18.95 -18.2 L18.75 -18.15 Q18.45 -18.1 17.95 -17.9 L17.8 -17.8 17.7 -17.75 17.65 -17.75 17.45 -17.6 M17.1 -19.0 Q17.4 -19.15 17.7 -19.2 L17.8 -19.2 17.95 -19.05 17.95 -18.85 Q18.05 -18.7 18.0 -18.65 L18.0 -18.15 Q18.4 -18.35 18.95 -18.7 L19.75 -18.8 Q20.1 -18.7 20.4 -18.5 L20.6 -18.3 Q20.8 -17.8 20.8 -17.3 20.8 -16.0 20.3 -14.7 L20.15 -14.4 18.95 -15.05 Q17.3 -15.85 16.35 -16.05 L15.95 -16.15 15.45 -16.25 Q15.55 -17.1 15.65 -17.3 16.0 -18.0 16.4 -18.5 L16.7 -18.75 16.75 -18.8 Q16.9 -18.9 17.1 -19.0 M12.8 -18.65 L12.6 -18.85 12.55 -18.85 12.2 -19.2 12.0 -19.3 Q11.75 -19.4 11.45 -19.25 11.1 -19.1 10.95 -18.9 L10.8 -18.8 Q10.75 -18.7 10.7 -18.6 L10.7 -18.55 10.55 -18.05 10.55 -17.85 Q10.55 -17.45 10.6 -17.15 L10.75 -16.75 10.8 -16.6 10.85 -16.55 10.85 -16.5 10.9 -16.45 10.9 -16.4 11.0 -16.2 11.05 -16.2 Q11.2 -16.4 12.05 -16.65 13.05 -16.95 13.8 -16.9 L13.8 -16.95 13.95 -16.95 Q14.05 -16.95 14.05 -17.0 L14.05 -17.15 Q14.05 -17.45 13.95 -17.75 L13.9 -17.8 13.9 -17.9 13.75 -18.2 13.5 -18.6 13.45 -18.65 13.2 -19.05 13.05 -19.15 12.95 -19.2 Q12.5 -19.7 12.5 -19.3 L12.9 -18.6 12.8 -18.65 M13.65 -16.7 L13.65 -16.7 M15.65 -16.6 L15.7 -16.55 15.7 -16.6 15.65 -16.6 M15.7 -16.55 L15.65 -16.5 15.7 -16.5 15.7 -16.55 M22.8 -18.35 L22.8 -17.6 Q22.8 -17.5 22.9 -17.5 23.0 -17.5 23.0 -17.45 23.0 -17.15 22.85 -16.75 L22.75 -16.45 23.05 -16.6 23.1 -16.55 Q22.8 -16.2 22.1 -15.6 L21.2 -14.8 21.1 -14.9 21.4 -15.25 Q21.4 -15.45 22.5 -16.4 22.5 -16.7 22.6 -17.3 22.7 -18.0 22.7 -18.5 L22.65 -18.9 Q22.65 -19.15 22.45 -19.3 22.5 -19.4 22.55 -19.4 L22.85 -19.45 22.8 -18.35 M10.8 -8.8 L10.9 -8.85 Q11.2 -7.85 11.45 -7.35 11.8 -6.55 12.5 -5.95 L12.5 -5.8 Q12.6 -5.75 12.4 -5.75 12.0 -5.75 11.45 -6.85 L10.8 -8.45 10.8 -8.8 M20.45 -8.45 L20.5 -8.6 Q20.55 -8.95 20.6 -9.35 L20.7 -9.35 Q20.75 -9.25 20.75 -9.0 L20.75 -8.75 20.7 -8.5 Q20.5 -7.8 19.95 -6.75 19.2 -5.3 18.5 -4.8 L18.45 -4.9 Q18.25 -4.65 18.15 -4.55 18.1 -4.55 18.1 -4.65 L18.2 -4.8 18.3 -4.8 18.35 -4.85 18.45 -4.9 18.45 -5.0 18.7 -5.35 19.1 -5.75 19.5 -6.25 19.85 -6.8 20.15 -7.35 20.2 -7.45 Q20.4 -8.0 20.45 -8.45 M20.95 -8.55 L20.95 -8.4 Q20.95 -8.1 20.0 -6.25 18.95 -4.2 18.35 -4.2 17.65 -4.2 17.2 -5.2 16.95 -5.75 16.7 -6.65 L16.7 -6.7 16.8 -6.7 17.45 -5.65 Q17.85 -5.0 18.0 -4.45 L18.05 -4.4 18.2 -4.4 Q19.05 -4.4 19.85 -5.95 20.25 -6.8 20.75 -8.55 L20.95 -8.55" fill="#101010" fill-rule="evenodd" stroke="none"/>
  </g>
</svg>
