<?xml version="1.0" encoding="UTF-8" standalone="no"?>
<svg xmlns:ffdec="https://www.free-decompiler.com/flash" xmlns:xlink="http://www.w3.org/1999/xlink" ffdec:objectType="shape" height="27.15px" width="21.9px" xmlns="http://www.w3.org/2000/svg">
  <g transform="matrix(1.0, 0.0, 0.0, 1.0, -5.55, 28.6)">
    <path d="M20.25 -28.55 L20.2 -28.6 20.25 -28.6 20.25 -28.55 M20.95 -26.55 L20.1 -25.45 Q19.65 -24.85 19.2 -24.4 L19.25 -24.4 Q19.25 -24.35 19.15 -24.35 L19.1 -24.3 Q20.1 -24.2 20.95 -23.75 L20.95 -24.4 Q20.95 -25.1 21.0 -25.4 L21.0 -25.55 21.05 -26.5 21.05 -26.65 20.95 -26.55 M21.4 -27.35 L21.5 -27.25 21.5 -27.15 21.55 -27.0 21.45 -23.65 21.45 -23.55 Q22.5 -23.05 23.45 -21.95 24.3 -20.9 24.6 -19.85 L24.7 -19.9 Q25.5 -20.1 26.7 -20.1 L26.7 -19.9 Q26.7 -19.85 25.95 -18.6 L25.3 -17.6 Q25.6 -16.85 25.8 -16.0 26.1 -14.8 26.1 -13.7 L26.15 -13.45 Q26.15 -13.3 26.05 -13.15 25.8 -12.85 24.65 -12.8 L24.8 -12.5 Q25.25 -11.7 25.55 -10.85 L25.95 -11.05 Q26.5 -11.25 26.75 -11.25 L26.8 -11.2 Q26.6 -11.0 26.1 -10.8 L25.6 -10.65 25.65 -10.4 26.0 -10.45 Q26.45 -10.5 26.9 -10.25 L27.2 -9.95 Q27.4 -9.8 27.45 -9.7 L26.9 -10.0 Q26.4 -10.3 25.75 -10.2 L25.7 -10.2 Q26.05 -8.9 26.05 -7.35 26.0 -6.25 25.85 -5.65 L25.85 -5.6 25.75 -5.25 Q24.9 -4.85 23.85 -4.85 L22.35 -5.0 22.5 -5.3 22.6 -5.45 22.65 -5.8 22.55 -6.25 22.5 -6.5 Q22.35 -6.2 21.95 -5.75 21.65 -5.35 21.5 -5.25 L21.45 -5.15 Q21.4 -5.1 21.3 -5.1 21.1 -5.1 20.9 -5.6 L20.65 -6.15 20.55 -6.1 20.5 -6.05 Q20.5 -5.85 20.8 -5.15 L20.8 -5.1 Q21.1 -4.5 21.1 -4.3 L21.15 -4.15 21.15 -4.05 21.0 -3.95 21.0 -3.9 20.8 -3.85 20.1 -3.4 Q19.4 -2.95 18.85 -2.4 L18.55 -2.05 18.35 -1.7 18.35 -1.6 18.3 -1.55 18.3 -1.65 18.2 -1.45 18.1 -1.65 Q18.0 -1.7 17.95 -1.75 L17.95 -1.8 Q17.7 -2.1 17.55 -3.0 17.45 -3.65 17.45 -4.1 L17.45 -4.25 Q16.9 -3.85 14.9 -2.9 12.1 -1.6 11.4 -1.6 L11.2 -1.6 Q10.55 -1.6 8.9 -2.95 7.5 -4.1 7.3 -4.4 6.8 -5.0 6.45 -6.0 6.05 -7.0 6.05 -7.65 6.05 -8.65 6.3 -9.1 L6.4 -9.2 5.6 -9.0 5.55 -9.05 5.55 -9.15 Q5.55 -9.35 6.15 -9.5 L6.7 -9.6 6.95 -9.85 6.65 -10.1 Q6.4 -10.35 6.45 -10.55 6.55 -10.6 6.8 -10.25 L7.05 -9.95 7.15 -10.1 7.85 -11.05 Q7.85 -11.8 8.05 -12.2 8.25 -12.65 8.65 -12.95 L8.5 -13.0 8.0 -12.4 Q7.5 -11.85 7.4 -11.85 7.1 -11.85 7.1 -12.35 7.1 -12.65 7.15 -12.9 L7.05 -14.7 Q7.05 -15.25 7.2 -16.05 7.4 -16.9 7.7 -17.25 L8.25 -18.0 Q8.6 -18.35 8.8 -18.4 9.3 -18.45 9.45 -17.0 L9.8 -17.25 10.05 -17.45 9.7 -17.8 Q9.3 -18.25 9.3 -18.35 9.3 -19.05 11.0 -21.6 10.65 -22.45 10.65 -23.0 L10.65 -23.35 10.7 -23.4 10.65 -23.4 10.7 -23.55 10.7 -23.75 10.85 -23.7 Q11.0 -23.7 11.3 -23.5 L11.65 -23.25 12.35 -22.65 Q12.95 -23.1 14.75 -23.75 17.3 -24.6 18.85 -24.6 L19.2 -25.15 Q19.6 -25.75 20.15 -26.35 21.05 -27.35 21.4 -27.3 L21.4 -27.35 M18.15 -24.05 Q15.7 -23.75 13.9 -22.95 L13.1 -22.55 13.0 -22.45 Q12.15 -21.9 11.3 -21.2 L11.15 -21.05 11.1 -20.95 10.5 -20.15 Q10.15 -19.5 9.95 -19.1 9.9 -18.8 9.9 -18.6 11.15 -18.7 13.0 -18.25 13.0 -18.35 13.1 -18.25 L13.95 -18.0 14.6 -17.8 16.2 -17.3 17.7 -16.75 Q18.65 -16.5 20.15 -15.9 L20.15 -15.95 20.45 -15.8 Q20.7 -15.7 20.95 -15.6 21.75 -15.25 22.4 -15.0 24.1 -14.35 25.45 -13.7 L25.45 -13.7 25.55 -13.75 25.6 -13.75 25.35 -15.0 25.4 -15.05 Q25.25 -16.3 24.9 -17.45 L24.9 -17.55 Q24.6 -18.55 24.2 -19.45 L24.15 -19.5 24.1 -19.5 24.1 -19.65 Q23.7 -20.5 23.15 -21.25 22.65 -21.95 22.25 -22.3 22.1 -22.55 21.6 -22.95 20.9 -23.45 20.3 -23.55 19.4 -24.0 18.7 -23.95 L18.15 -24.05 M11.85 -22.6 L11.45 -22.9 11.1 -23.2 11.25 -22.6 11.35 -22.1 11.45 -21.75 11.6 -21.85 12.1 -22.25 12.15 -22.35 Q12.0 -22.45 11.85 -22.6 M16.7 -22.5 Q16.5 -22.4 15.9 -21.95 15.2 -21.4 15.2 -21.3 15.2 -21.0 15.3 -20.7 15.45 -20.3 15.8 -20.15 L16.4 -20.15 Q16.95 -20.15 16.95 -20.65 16.95 -20.9 16.8 -21.5 16.7 -22.1 16.7 -22.5 M16.85 -22.65 Q17.1 -21.65 17.1 -20.85 17.1 -19.95 16.35 -19.95 15.4 -19.95 15.15 -20.65 15.0 -21.0 15.0 -21.35 15.0 -21.45 15.75 -22.05 16.55 -22.65 16.85 -22.65 M12.1 -18.2 L11.9 -18.2 11.85 -18.1 Q11.85 -17.95 12.0 -17.7 L12.0 -17.65 12.05 -17.65 12.25 -17.6 12.7 -17.6 12.9 -17.7 Q12.95 -17.8 12.95 -17.85 12.95 -18.0 12.85 -18.05 L12.1 -18.2 M11.7 -18.25 L11.1 -18.35 Q11.15 -18.25 11.2 -18.1 L11.2 -18.05 11.15 -18.05 Q11.15 -17.95 10.45 -17.2 L10.2 -16.95 10.15 -16.95 9.85 -16.75 Q9.6 -16.55 9.6 -16.4 L9.55 -16.4 9.6 -16.35 9.6 -16.3 9.7 -16.2 9.7 -16.3 9.75 -16.3 10.05 -16.55 10.2 -16.7 10.3 -16.7 Q10.95 -16.85 11.65 -16.4 L11.75 -16.55 11.85 -16.65 11.9 -16.75 11.95 -16.8 Q12.1 -17.05 12.25 -17.1 L12.35 -17.2 12.35 -17.25 12.45 -17.25 12.55 -17.3 12.6 -17.25 12.95 -17.35 13.15 -17.35 13.1 -17.55 12.6 -17.35 11.85 -17.25 11.15 -17.2 11.05 -17.25 Q11.3 -17.5 11.95 -17.65 11.8 -17.65 11.75 -17.85 11.7 -17.9 11.7 -18.1 L11.7 -18.25 M13.35 -17.95 L13.25 -17.95 13.3 -17.9 Q13.4 -17.55 13.4 -17.3 13.4 -17.15 13.35 -17.15 L13.1 -17.15 Q13.65 -15.9 13.65 -15.75 L13.65 -15.65 13.55 -15.75 Q13.5 -16.3 13.25 -16.65 13.15 -16.8 13.0 -16.9 L12.8 -17.05 Q12.45 -17.1 12.15 -16.7 11.95 -16.4 11.95 -16.3 L11.85 -16.2 11.95 -16.1 12.4 -15.5 12.8 -14.5 12.95 -14.05 12.9 -14.0 12.5 -14.8 12.35 -15.05 12.25 -15.25 Q11.95 -15.7 11.4 -16.05 11.3 -16.05 11.15 -16.1 L11.05 -16.15 10.8 -16.2 10.15 -16.2 10.05 -16.15 Q9.95 -16.0 9.85 -15.9 L10.1 -15.45 10.2 -15.45 10.3 -15.2 10.4 -15.05 10.75 -14.5 10.85 -14.3 Q12.05 -12.35 12.1 -11.1 L12.25 -11.1 Q12.55 -11.1 13.3 -11.4 13.2 -11.55 13.2 -11.8 13.2 -12.3 13.4 -13.0 13.55 -13.65 13.55 -14.5 14.05 -14.25 14.3 -13.65 14.45 -13.9 14.85 -14.05 15.5 -14.25 15.65 -13.65 L15.95 -12.75 Q16.0 -12.9 16.3 -13.35 16.65 -13.85 16.8 -13.85 17.05 -13.9 17.2 -13.45 L17.3 -12.95 Q18.5 -12.9 18.85 -12.55 19.0 -12.45 19.1 -12.2 L19.1 -12.15 19.35 -11.75 19.9 -11.0 19.85 -10.95 Q19.4 -11.5 18.9 -12.2 L18.8 -12.25 Q18.4 -12.45 17.85 -12.6 16.65 -12.8 15.8 -12.4 L15.55 -12.3 Q15.2 -12.2 14.75 -12.0 L14.7 -12.0 Q14.7 -11.95 14.55 -11.9 L14.55 -11.95 Q13.95 -11.65 13.45 -11.35 L13.15 -11.25 12.85 -11.1 Q11.8 -10.75 11.7 -10.75 11.3 -10.75 11.2 -10.8 L11.2 -10.85 Q10.65 -11.35 10.15 -12.0 9.85 -12.5 9.5 -12.85 L9.4 -12.9 9.35 -12.8 9.2 -12.75 Q9.1 -12.6 8.8 -12.4 L8.55 -12.2 8.5 -12.15 8.45 -12.0 8.3 -11.8 8.25 -11.7 Q8.2 -11.15 8.2 -10.45 L8.15 -10.4 Q8.15 -10.35 8.1 -10.35 8.1 -9.55 8.4 -8.95 8.5 -8.7 8.65 -8.5 8.75 -8.4 8.9 -8.35 L8.95 -8.25 9.15 -8.25 9.2 -8.05 9.2 -7.95 Q9.5 -7.65 9.9 -7.45 L9.55 -7.5 9.75 -7.35 9.65 -7.4 Q10.65 -6.6 12.65 -6.6 14.5 -6.6 16.35 -7.7 L16.1 -7.45 Q15.75 -7.25 15.45 -7.1 14.05 -6.45 12.65 -6.45 10.4 -6.45 9.4 -7.5 L9.2 -7.05 Q8.95 -6.55 8.85 -6.2 L8.7 -6.15 Q8.6 -6.4 8.6 -6.65 8.6 -6.85 8.85 -7.25 9.05 -7.55 9.2 -7.65 L8.85 -7.95 Q8.8 -7.9 8.4 -7.7 L7.9 -7.5 7.8 -7.5 Q7.75 -7.55 7.75 -7.65 7.75 -7.8 8.3 -8.05 8.5 -8.1 8.65 -8.15 8.35 -8.5 8.15 -8.85 7.85 -9.45 7.85 -10.3 L7.25 -9.65 Q6.8 -9.2 6.6 -8.8 6.5 -8.5 6.45 -8.2 L6.45 -8.15 Q6.45 -7.35 6.65 -6.6 7.1 -5.4 8.35 -4.05 8.75 -3.65 9.1 -3.3 9.9 -2.65 10.95 -2.1 L11.25 -2.1 12.25 -2.2 Q13.4 -2.7 14.65 -3.25 L15.85 -3.85 15.9 -3.85 16.05 -3.95 16.1 -3.95 17.5 -4.75 Q17.65 -5.7 18.15 -6.95 18.45 -7.65 19.15 -8.95 L19.7 -10.05 19.7 -10.05 Q20.0 -10.65 20.15 -11.1 L20.15 -11.15 19.8 -11.95 Q19.5 -12.65 19.05 -13.2 19.45 -13.15 19.85 -12.55 20.15 -12.15 20.3 -11.75 L20.45 -12.35 20.5 -12.85 20.4 -14.65 20.35 -14.9 20.35 -15.1 20.25 -15.45 20.2 -15.55 Q19.8 -15.7 18.55 -16.15 L16.85 -16.7 Q16.65 -16.4 16.05 -16.0 15.9 -16.0 15.85 -16.05 L15.55 -16.1 15.5 -16.1 Q15.2 -16.25 15.0 -16.5 14.55 -16.95 14.55 -17.25 14.55 -17.4 14.65 -17.55 L14.45 -17.6 14.25 -17.4 14.2 -17.4 14.2 -17.35 14.15 -17.3 14.1 -17.55 14.25 -17.65 14.15 -17.7 13.85 -17.8 13.75 -17.85 13.4 -17.95 13.35 -17.95 M13.8 -14.25 L13.75 -14.25 Q13.75 -13.8 13.55 -12.9 13.35 -11.95 13.4 -11.45 L13.65 -11.55 13.9 -11.75 Q14.45 -11.8 14.45 -12.8 14.45 -13.15 14.35 -13.45 14.3 -13.6 14.2 -13.75 L14.0 -13.9 13.95 -14.0 13.8 -14.2 13.8 -14.25 M15.95 -17.0 L15.8 -17.05 Q15.75 -16.95 15.5 -16.95 15.25 -16.95 15.2 -17.05 15.15 -17.05 15.1 -17.1 L15.1 -17.2 15.05 -17.3 15.05 -17.35 15.1 -17.35 14.7 -17.5 14.65 -17.4 Q14.65 -17.0 15.1 -16.55 15.45 -16.2 15.9 -16.1 16.2 -16.25 16.55 -16.55 L16.75 -16.75 15.95 -17.0 M16.55 -15.5 L16.4 -15.55 17.1 -16.0 17.7 -16.35 Q17.55 -16.1 17.15 -15.8 16.75 -15.5 16.55 -15.5 M15.05 -15.75 Q15.95 -14.8 16.75 -14.8 17.3 -14.8 17.65 -15.35 17.85 -15.6 17.95 -15.9 L18.0 -15.9 18.0 -15.8 Q18.1 -15.65 17.7 -15.2 17.3 -14.7 16.85 -14.7 15.3 -14.7 14.1 -16.8 L14.5 -16.45 15.05 -15.75 M21.75 -19.7 Q21.15 -19.25 21.15 -18.95 21.15 -18.7 21.4 -18.4 21.65 -17.95 22.1 -17.95 22.65 -17.95 22.85 -18.45 22.95 -18.65 22.9 -18.95 22.9 -19.15 22.7 -20.4 L21.75 -19.7 M20.95 -19.25 Q22.35 -20.9 22.85 -20.35 23.1 -20.05 23.1 -18.9 23.1 -18.5 23.0 -18.3 22.85 -17.75 22.4 -17.75 21.5 -17.75 21.15 -18.35 20.9 -18.85 21.1 -19.15 L21.0 -19.15 20.95 -19.25 M20.75 -14.95 Q20.9 -14.3 20.9 -14.05 20.9 -13.4 20.8 -12.7 L20.85 -12.25 Q20.85 -11.5 20.35 -10.45 L19.35 -8.5 Q18.3 -6.65 18.0 -5.3 L17.95 -5.15 17.9 -4.7 17.95 -4.0 Q18.0 -3.5 18.1 -2.9 L18.25 -2.4 Q18.4 -2.55 18.7 -2.8 L19.35 -3.45 Q19.65 -3.65 20.05 -3.85 L20.6 -4.0 20.8 -4.15 20.45 -4.95 Q20.2 -5.7 20.2 -5.85 L20.2 -6.15 Q20.2 -6.55 20.55 -6.5 L20.75 -6.45 20.8 -6.5 20.9 -6.45 21.05 -6.45 21.0 -6.4 Q21.1 -6.35 21.15 -6.1 L21.25 -5.7 21.35 -5.5 21.5 -5.65 21.65 -5.95 Q21.95 -6.5 22.2 -6.8 23.05 -7.75 23.05 -5.75 23.05 -5.4 22.95 -5.25 L22.9 -5.1 23.75 -5.2 24.3 -5.25 24.9 -5.35 Q25.1 -5.45 25.35 -5.6 L25.45 -6.3 25.55 -6.8 25.5 -7.65 Q25.5 -8.85 25.35 -9.6 25.1 -10.7 24.6 -11.8 24.3 -12.45 23.9 -13.0 23.45 -13.65 23.3 -13.9 23.1 -14.2 23.05 -14.45 21.55 -15.05 20.55 -15.55 L20.75 -14.95 M11.15 -21.85 L11.15 -21.85 M9.95 -18.3 L9.9 -18.25 10.1 -18.1 10.4 -17.75 10.35 -17.7 10.4 -17.6 10.5 -17.7 Q10.7 -17.9 10.75 -18.1 L10.75 -18.25 10.0 -18.25 9.95 -18.3 M10.3 -18.65 L10.3 -18.65 M7.6 -16.0 L7.5 -15.25 7.5 -14.1 Q7.55 -13.1 7.55 -12.55 L8.0 -13.05 Q8.3 -13.45 8.55 -13.45 8.75 -13.45 8.95 -13.35 L8.9 -13.35 Q9.85 -13.05 10.45 -12.3 L11.05 -11.35 Q11.35 -11.05 11.55 -10.95 L11.8 -10.95 11.85 -11.0 11.85 -11.1 11.9 -11.35 11.6 -12.15 11.2 -13.05 10.45 -14.55 9.55 -15.75 9.45 -15.85 9.35 -16.0 Q9.05 -16.45 9.0 -16.8 8.95 -16.9 8.95 -17.05 L8.9 -17.3 8.9 -17.35 8.75 -17.65 8.6 -17.75 Q8.1 -17.1 7.75 -16.35 L7.6 -16.0 M7.7 -14.2 Q7.7 -14.35 7.75 -14.4 7.8 -14.5 8.1 -14.65 L8.3 -14.55 Q8.35 -14.5 8.35 -14.3 L8.35 -14.1 Q8.35 -14.0 8.3 -13.9 8.2 -13.75 8.05 -13.75 7.8 -13.75 7.75 -13.9 L7.7 -14.1 7.7 -14.2 M10.1 -14.4 Q10.5 -14.05 10.5 -13.75 L10.5 -13.6 10.4 -13.5 10.35 -13.5 10.3 -13.45 Q10.3 -13.35 10.25 -13.35 L10.2 -13.3 Q10.2 -13.25 10.0 -13.25 9.8 -13.25 9.65 -13.4 9.5 -13.5 9.4 -13.7 9.3 -13.85 9.25 -14.05 L9.25 -14.1 Q9.1 -14.45 9.15 -14.8 9.7 -14.85 10.1 -14.4 M11.5 -10.75 L11.65 -10.75 11.55 -10.8 11.45 -10.9 11.4 -10.9 11.5 -10.75 M7.35 -10.75 Q7.4 -10.65 7.4 -10.5 7.4 -10.4 7.25 -10.4 L7.25 -10.75 7.35 -10.75 M14.6 -13.5 L14.6 -13.4 Q14.5 -13.2 14.5 -12.75 14.6 -12.35 14.65 -12.15 15.15 -12.35 15.8 -12.55 L15.65 -12.8 15.65 -13.05 Q15.75 -13.85 15.15 -13.95 14.95 -14.0 14.75 -13.85 14.6 -13.75 14.6 -13.5 M16.95 -13.6 L16.75 -13.6 16.75 -13.65 16.4 -13.15 Q16.15 -12.75 16.0 -12.65 L16.1 -12.65 Q16.65 -12.9 16.85 -12.9 L16.85 -12.95 17.1 -12.95 17.15 -13.0 17.15 -13.25 Q17.15 -13.5 16.95 -13.6 M14.65 -5.95 Q13.6 -5.65 12.9 -5.65 L12.45 -5.7 Q12.1 -5.7 12.1 -5.75 12.95 -5.75 14.35 -6.05 L15.85 -6.35 Q15.55 -6.15 14.65 -5.95 M24.45 -19.45 L24.95 -18.2 25.0 -18.25 25.05 -18.15 Q25.2 -18.4 25.45 -18.75 L26.15 -19.7 25.0 -19.55 24.45 -19.45 M25.65 -17.95 L25.65 -17.95 M25.15 -13.55 L23.75 -14.15 24.05 -13.75 24.15 -13.7 24.1 -13.65 24.35 -13.3 24.75 -13.45 25.05 -13.55 25.15 -13.55" fill="#000000" fill-rule="evenodd" stroke="none"/>
    <path d="M15.95 -17.0 L16.75 -16.75 16.55 -16.55 Q16.2 -16.25 15.9 -16.1 15.45 -16.2 15.1 -16.55 14.65 -17.0 14.65 -17.4 L14.7 -17.5 15.1 -17.35 15.05 -17.35 15.05 -17.3 15.1 -17.2 15.1 -17.1 Q15.15 -17.05 15.2 -17.05 15.25 -16.95 15.5 -16.95 15.75 -16.95 15.8 -17.05 L15.95 -17.0 M13.8 -14.25 L13.8 -14.2 13.95 -14.0 14.0 -13.9 14.2 -13.75 Q14.3 -13.6 14.35 -13.45 14.45 -13.15 14.45 -12.8 14.45 -11.8 13.9 -11.75 L13.65 -11.55 13.4 -11.45 Q13.35 -11.95 13.55 -12.9 13.75 -13.8 13.75 -14.25 L13.8 -14.25 M16.95 -13.6 Q17.15 -13.5 17.15 -13.25 L17.15 -13.0 17.1 -12.95 16.85 -12.95 16.85 -12.9 Q16.65 -12.9 16.1 -12.65 L16.0 -12.65 Q16.15 -12.75 16.4 -13.15 L16.75 -13.65 16.75 -13.6 16.95 -13.6 M14.6 -13.5 Q14.6 -13.75 14.75 -13.85 14.95 -14.0 15.15 -13.95 15.75 -13.85 15.65 -13.05 L15.65 -12.8 15.8 -12.55 Q15.15 -12.35 14.65 -12.15 14.6 -12.35 14.5 -12.75 14.5 -13.2 14.6 -13.4 L14.6 -13.5" fill="#ffffff" fill-rule="evenodd" stroke="none"/>
    <path d="M20.95 -26.55 L21.05 -26.65 21.05 -26.5 21.0 -25.55 21.0 -25.4 Q20.95 -25.1 20.95 -24.4 L20.95 -23.75 Q20.1 -24.2 19.1 -24.3 L19.15 -24.35 Q19.25 -24.35 19.25 -24.4 L19.2 -24.4 Q19.65 -24.85 20.1 -25.45 L20.95 -26.55 M16.7 -22.5 Q16.7 -22.1 16.8 -21.5 16.95 -20.9 16.95 -20.65 16.95 -20.15 16.4 -20.15 L15.8 -20.15 Q15.45 -20.3 15.3 -20.7 15.2 -21.0 15.2 -21.3 15.2 -21.4 15.9 -21.95 16.5 -22.4 16.7 -22.5 M11.85 -22.6 Q12.0 -22.45 12.15 -22.35 L12.1 -22.25 11.6 -21.85 11.45 -21.75 11.35 -22.1 11.25 -22.6 11.1 -23.2 11.45 -22.9 11.85 -22.6 M21.75 -19.7 L22.7 -20.4 Q22.9 -19.15 22.9 -18.95 22.95 -18.65 22.85 -18.45 22.65 -17.95 22.1 -17.95 21.65 -17.95 21.4 -18.4 21.15 -18.7 21.15 -18.95 21.15 -19.25 21.75 -19.7 M24.45 -19.45 L25.0 -19.55 26.15 -19.7 25.45 -18.75 Q25.2 -18.4 25.05 -18.15 L25.0 -18.25 24.95 -18.2 24.45 -19.45" fill="#999382" fill-rule="evenodd" stroke="none"/>
    <path d="M12.1 -18.2 L12.85 -18.05 Q12.95 -18.0 12.95 -17.85 12.95 -17.8 12.9 -17.7 L12.7 -17.6 12.25 -17.6 12.05 -17.65 12.0 -17.65 12.0 -17.7 Q11.85 -17.95 11.85 -18.1 L11.9 -18.2 12.1 -18.2" fill="#abefef" fill-rule="evenodd" stroke="none"/>
    <path d="M11.7 -18.25 L11.7 -18.1 Q11.7 -17.9 11.75 -17.85 11.8 -17.65 11.95 -17.65 11.3 -17.5 11.05 -17.25 L11.15 -17.2 11.85 -17.25 12.6 -17.35 13.1 -17.55 13.15 -17.35 12.95 -17.35 12.6 -17.25 12.55 -17.3 12.45 -17.25 12.35 -17.25 12.35 -17.2 12.25 -17.1 Q12.1 -17.05 11.95 -16.8 L11.9 -16.75 11.85 -16.65 11.75 -16.55 11.65 -16.4 Q10.95 -16.85 10.3 -16.7 L10.2 -16.7 10.05 -16.55 9.75 -16.3 9.7 -16.3 9.7 -16.2 9.6 -16.3 9.6 -16.35 9.55 -16.4 9.6 -16.4 Q9.6 -16.55 9.85 -16.75 L10.15 -16.95 10.2 -16.95 10.45 -17.2 Q11.15 -17.95 11.15 -18.05 L11.2 -18.05 11.2 -18.1 Q11.15 -18.25 11.1 -18.35 L11.7 -18.25 M13.35 -17.95 L13.4 -17.95 13.75 -17.85 13.85 -17.8 14.15 -17.7 14.25 -17.65 14.1 -17.55 14.15 -17.3 14.2 -17.35 14.2 -17.4 14.25 -17.4 14.45 -17.6 14.65 -17.55 Q14.55 -17.4 14.55 -17.25 14.55 -16.95 15.0 -16.5 15.2 -16.25 15.5 -16.1 L15.55 -16.1 15.85 -16.05 Q15.9 -16.0 16.05 -16.0 16.65 -16.4 16.85 -16.7 L18.55 -16.15 Q19.8 -15.7 20.2 -15.55 L20.25 -15.45 20.35 -15.1 20.35 -14.9 20.4 -14.65 20.5 -12.85 20.45 -12.35 20.3 -11.75 Q20.15 -12.15 19.85 -12.55 19.45 -13.15 19.05 -13.2 19.5 -12.65 19.8 -11.95 L20.15 -11.15 20.15 -11.1 Q20.0 -10.65 19.7 -10.05 L19.7 -10.05 19.15 -8.95 Q18.45 -7.65 18.15 -6.95 17.65 -5.7 17.5 -4.75 L16.1 -3.95 16.05 -3.95 15.9 -3.85 15.85 -3.85 14.65 -3.25 Q13.4 -2.7 12.25 -2.2 L11.25 -2.1 10.95 -2.1 Q9.9 -2.65 9.1 -3.3 8.75 -3.65 8.35 -4.05 7.1 -5.4 6.65 -6.6 6.45 -7.35 6.45 -8.15 L6.45 -8.2 Q6.5 -8.5 6.6 -8.8 6.8 -9.2 7.25 -9.65 L7.85 -10.3 Q7.85 -9.45 8.15 -8.85 8.35 -8.5 8.65 -8.15 8.5 -8.1 8.3 -8.05 7.75 -7.8 7.75 -7.65 7.75 -7.55 7.8 -7.5 L7.9 -7.5 8.4 -7.7 Q8.8 -7.9 8.85 -7.95 L9.2 -7.65 Q9.05 -7.55 8.85 -7.25 8.6 -6.85 8.6 -6.65 8.6 -6.4 8.7 -6.15 L8.85 -6.2 Q8.95 -6.55 9.2 -7.05 L9.4 -7.5 Q10.4 -6.45 12.65 -6.45 14.05 -6.45 15.45 -7.1 15.75 -7.25 16.1 -7.45 L16.35 -7.7 Q14.5 -6.6 12.65 -6.6 10.65 -6.6 9.65 -7.4 L9.75 -7.35 9.55 -7.5 9.9 -7.45 Q9.5 -7.65 9.2 -7.95 L9.2 -8.05 9.15 -8.25 8.95 -8.25 8.9 -8.35 Q8.75 -8.4 8.65 -8.5 8.5 -8.7 8.4 -8.95 8.1 -9.55 8.1 -10.35 8.15 -10.35 8.15 -10.4 L8.2 -10.45 Q8.2 -11.15 8.25 -11.7 L8.3 -11.8 8.45 -12.0 8.5 -12.15 8.55 -12.2 8.8 -12.4 Q9.1 -12.6 9.2 -12.75 L9.35 -12.8 9.4 -12.9 9.5 -12.85 Q9.85 -12.5 10.15 -12.0 10.65 -11.35 11.2 -10.85 L11.2 -10.8 Q11.3 -10.75 11.7 -10.75 11.8 -10.75 12.85 -11.1 L13.15 -11.25 13.45 -11.35 Q13.95 -11.65 14.55 -11.95 L14.55 -11.9 Q14.7 -11.95 14.7 -12.0 L14.75 -12.0 Q15.2 -12.2 15.55 -12.3 L15.8 -12.4 Q16.65 -12.8 17.85 -12.6 18.4 -12.45 18.8 -12.25 L18.9 -12.2 Q19.4 -11.5 19.85 -10.95 L19.9 -11.0 19.35 -11.75 19.1 -12.15 19.1 -12.2 Q19.0 -12.45 18.85 -12.55 18.5 -12.9 17.3 -12.95 L17.2 -13.45 Q17.05 -13.9 16.8 -13.85 16.65 -13.85 16.3 -13.35 16.0 -12.9 15.95 -12.75 L15.65 -13.65 Q15.5 -14.25 14.85 -14.05 14.45 -13.9 14.3 -13.65 14.05 -14.25 13.55 -14.5 13.55 -13.65 13.4 -13.0 13.2 -12.3 13.2 -11.8 13.2 -11.55 13.3 -11.4 12.55 -11.1 12.25 -11.1 L12.1 -11.1 Q12.05 -12.35 10.85 -14.3 L10.75 -14.5 10.4 -15.05 10.3 -15.2 10.2 -15.45 10.1 -15.45 9.85 -15.9 Q9.95 -16.0 10.05 -16.15 L10.15 -16.2 10.8 -16.2 11.05 -16.15 11.15 -16.1 Q11.3 -16.05 11.4 -16.05 11.95 -15.7 12.25 -15.25 L12.35 -15.05 12.5 -14.8 12.9 -14.0 12.95 -14.05 12.8 -14.5 12.4 -15.5 11.95 -16.1 11.85 -16.2 11.95 -16.3 Q11.95 -16.4 12.15 -16.7 12.45 -17.1 12.8 -17.05 L13.0 -16.9 Q13.15 -16.8 13.25 -16.65 13.5 -16.3 13.55 -15.75 L13.65 -15.65 13.65 -15.75 Q13.65 -15.9 13.1 -17.15 L13.35 -17.15 Q13.4 -17.15 13.4 -17.3 13.4 -17.55 13.3 -17.9 L13.25 -17.95 13.35 -17.95 M15.05 -15.75 L14.5 -16.45 14.1 -16.8 Q15.3 -14.7 16.85 -14.7 17.3 -14.7 17.7 -15.2 18.1 -15.65 18.0 -15.8 L18.0 -15.9 17.95 -15.9 Q17.85 -15.6 17.65 -15.35 17.3 -14.8 16.75 -14.8 15.95 -14.8 15.05 -15.75 M16.55 -15.5 Q16.75 -15.5 17.15 -15.8 17.55 -16.1 17.7 -16.35 L17.1 -16.0 16.4 -15.55 16.55 -15.5 M14.65 -5.95 Q15.55 -6.15 15.85 -6.35 L14.35 -6.05 Q12.95 -5.75 12.1 -5.75 12.1 -5.7 12.45 -5.7 L12.9 -5.65 Q13.6 -5.65 14.65 -5.95" fill="#d7a99d" fill-rule="evenodd" stroke="none"/>
    <path d="M18.15 -24.05 L18.7 -23.95 Q19.4 -24.0 20.3 -23.55 20.9 -23.45 21.6 -22.95 22.1 -22.55 22.25 -22.3 22.65 -21.95 23.15 -21.25 23.7 -20.5 24.1 -19.65 L24.1 -19.5 24.15 -19.5 24.2 -19.45 Q24.6 -18.55 24.9 -17.55 L24.9 -17.45 Q25.25 -16.3 25.4 -15.05 L25.35 -15.0 25.6 -13.75 25.55 -13.75 25.45 -13.7 25.45 -13.7 Q24.1 -14.35 22.4 -15.0 21.75 -15.25 20.95 -15.6 20.7 -15.7 20.45 -15.8 L20.15 -15.95 20.15 -15.9 Q18.65 -16.5 17.7 -16.75 L16.2 -17.3 14.6 -17.8 13.95 -18.0 13.1 -18.25 Q13.0 -18.35 13.0 -18.25 11.15 -18.7 9.9 -18.6 9.9 -18.8 9.95 -19.1 10.15 -19.5 10.5 -20.15 L11.1 -20.95 11.15 -21.05 11.3 -21.2 Q12.15 -21.9 13.0 -22.45 L13.1 -22.55 13.9 -22.95 Q15.7 -23.75 18.15 -24.05 M16.85 -22.65 Q16.55 -22.65 15.75 -22.05 15.0 -21.45 15.0 -21.35 15.0 -21.0 15.15 -20.65 15.4 -19.95 16.35 -19.95 17.1 -19.95 17.1 -20.85 17.1 -21.65 16.85 -22.65 M20.95 -19.25 L21.0 -19.15 21.1 -19.15 Q20.9 -18.85 21.15 -18.35 21.5 -17.75 22.4 -17.75 22.85 -17.75 23.0 -18.3 23.1 -18.5 23.1 -18.9 23.1 -20.05 22.85 -20.35 22.35 -20.9 20.95 -19.25 M10.3 -18.65 L10.3 -18.65" fill="#8e463e" fill-rule="evenodd" stroke="none"/>
    <path d="M9.95 -18.3 L10.0 -18.25 10.75 -18.25 10.75 -18.1 Q10.7 -17.9 10.5 -17.7 L10.4 -17.6 10.35 -17.7 10.4 -17.75 10.1 -18.1 9.9 -18.25 9.95 -18.3 M25.15 -13.55 L25.05 -13.55 24.75 -13.45 24.35 -13.3 24.1 -13.65 24.15 -13.7 24.05 -13.75 23.75 -14.15 25.15 -13.55" fill="#69342e" fill-rule="evenodd" stroke="none"/>
    <path d="M20.75 -14.95 L20.55 -15.55 Q21.55 -15.05 23.05 -14.45 23.1 -14.2 23.3 -13.9 23.45 -13.65 23.9 -13.0 24.3 -12.45 24.6 -11.8 25.1 -10.7 25.35 -9.6 25.5 -8.85 25.5 -7.65 L25.55 -6.8 25.45 -6.3 25.35 -5.6 Q25.1 -5.45 24.9 -5.35 L24.3 -5.25 23.75 -5.2 22.9 -5.1 22.95 -5.25 Q23.05 -5.4 23.05 -5.75 23.05 -7.75 22.2 -6.8 21.95 -6.5 21.65 -5.95 L21.5 -5.65 21.35 -5.5 21.25 -5.7 21.15 -6.1 Q21.1 -6.35 21.0 -6.4 L21.05 -6.45 20.9 -6.45 20.8 -6.5 20.75 -6.45 20.55 -6.5 Q20.2 -6.55 20.2 -6.15 L20.2 -5.85 Q20.2 -5.7 20.45 -4.95 L20.8 -4.15 20.6 -4.0 20.05 -3.85 Q19.65 -3.65 19.35 -3.45 L18.7 -2.8 Q18.4 -2.55 18.25 -2.4 L18.1 -2.9 Q18.0 -3.5 17.95 -4.0 L17.9 -4.7 17.95 -5.15 18.0 -5.3 Q18.3 -6.65 19.35 -8.5 L20.35 -10.45 Q20.85 -11.5 20.85 -12.25 L20.8 -12.7 Q20.9 -13.4 20.9 -14.05 20.9 -14.3 20.75 -14.95 M10.1 -14.4 Q9.7 -14.85 9.15 -14.8 9.1 -14.45 9.25 -14.1 L9.25 -14.05 Q9.3 -13.85 9.4 -13.7 9.5 -13.5 9.65 -13.4 9.8 -13.25 10.0 -13.25 10.2 -13.25 10.2 -13.3 L10.25 -13.35 Q10.3 -13.35 10.3 -13.45 L10.35 -13.5 10.4 -13.5 10.5 -13.6 10.5 -13.75 Q10.5 -14.05 10.1 -14.4 M7.7 -14.2 L7.7 -14.1 7.75 -13.9 Q7.8 -13.75 8.05 -13.75 8.2 -13.75 8.3 -13.9 8.35 -14.0 8.35 -14.1 L8.35 -14.3 Q8.35 -14.5 8.3 -14.55 L8.1 -14.65 Q7.8 -14.5 7.75 -14.4 7.7 -14.35 7.7 -14.2 M7.6 -16.0 L7.75 -16.35 Q8.1 -17.1 8.6 -17.75 L8.75 -17.65 8.9 -17.35 8.9 -17.3 8.95 -17.05 Q8.95 -16.9 9.0 -16.8 9.05 -16.45 9.35 -16.0 L9.45 -15.85 9.55 -15.75 10.45 -14.55 11.2 -13.05 11.6 -12.15 11.9 -11.35 11.85 -11.1 11.85 -11.0 11.8 -10.95 11.55 -10.95 Q11.35 -11.05 11.05 -11.35 L10.45 -12.3 Q9.85 -13.05 8.9 -13.35 L8.95 -13.35 Q8.75 -13.45 8.55 -13.45 8.3 -13.45 8.0 -13.05 L7.55 -12.55 Q7.55 -13.1 7.5 -14.1 L7.5 -15.25 7.6 -16.0" fill="#d68b7e" fill-rule="evenodd" stroke="none"/>
  </g>
</svg>
