<?xml version="1.0" encoding="UTF-8" standalone="no"?>
<svg xmlns:ffdec="https://www.free-decompiler.com/flash" xmlns:xlink="http://www.w3.org/1999/xlink" ffdec:objectType="shape" height="30.7px" width="26.65px" xmlns="http://www.w3.org/2000/svg">
  <g transform="matrix(1.0, 0.0, 0.0, 1.0, -5.9, 29.65)">
    <path d="M15.55 -10.5 L15.45 -10.5 15.45 -10.55 15.55 -10.5" fill="#d88547" fill-rule="evenodd" stroke="none"/>
    <path d="M12.45 -26.0 L12.55 -26.0 12.55 -25.95 12.45 -26.0 M12.5 -25.3 L12.5 -25.15 12.35 -25.35 12.4 -25.3 12.5 -25.3 M11.8 -25.9 L11.75 -25.9 11.8 -25.95 11.8 -25.9 M12.35 -22.35 L12.35 -22.15 12.2 -22.15 12.35 -22.35 M10.65 -22.05 L10.55 -22.0 10.5 -22.05 10.55 -22.2 Q10.55 -22.1 10.55 -22.0 L10.65 -22.05 M11.2 -4.3 L11.35 -4.6 11.55 -5.1 11.65 -5.4 11.75 -6.15 11.75 -8.6 12.05 -10.6 12.1 -10.95 12.15 -11.1 12.5 -11.1 12.65 -10.9 Q12.9 -10.5 13.3 -10.35 L13.3 -10.3 Q14.0 -9.0 15.0 -9.0 15.05 -9.0 15.35 -9.15 L15.3 -9.25 Q15.05 -9.1 14.85 -9.1 14.05 -9.1 13.45 -10.2 L13.4 -10.3 Q13.65 -10.2 14.0 -10.2 14.4 -10.2 14.65 -10.45 14.75 -10.55 14.8 -10.7 15.1 -10.6 15.45 -10.55 L15.45 -10.5 15.55 -10.5 15.85 -10.5 16.4 -10.55 Q16.85 -10.6 17.3 -10.75 L17.3 -10.8 17.5 -11.0 17.5 -11.05 Q17.8 -10.8 18.2 -10.8 19.0 -10.8 19.95 -11.6 L20.05 -11.65 Q20.05 -11.3 20.2 -10.55 20.1 -10.3 20.0 -10.2 L20.0 -10.15 19.95 -10.15 19.7 -10.25 19.7 -10.2 19.65 -10.2 Q19.55 -10.15 19.45 -9.85 19.35 -9.5 19.35 -9.2 L19.4 -9.05 18.9 -8.3 18.85 -8.45 18.75 -8.65 18.45 -9.2 18.5 -9.35 18.4 -9.3 18.35 -9.35 Q18.2 -9.3 18.15 -8.95 L18.15 -8.45 Q18.15 -7.85 18.15 -7.65 18.2 -7.5 18.2 -7.4 L18.25 -7.3 18.1 -7.1 18.25 -7.2 17.85 -6.75 16.95 -5.75 16.9 -5.75 16.9 -5.7 Q15.95 -4.75 14.7 -3.65 13.65 -2.8 12.4 -1.85 11.9 -1.7 11.25 -1.7 10.2 -1.7 9.4 -2.15 L9.35 -2.2 Q9.75 -2.35 10.15 -2.6 10.75 -3.0 10.75 -3.35 L10.75 -3.5 10.85 -3.55 10.9 -3.55 10.95 -3.65 11.2 -4.3 M10.45 -12.1 L10.55 -12.05 10.5 -12.0 10.45 -12.05 10.45 -12.1 M10.45 -11.2 L10.2 -11.15 10.15 -11.2 10.45 -11.2 M9.95 -11.3 L10.05 -11.2 Q10.2 -11.0 10.5 -11.0 L10.4 -10.75 Q10.2 -10.6 10.05 -10.6 L9.9 -10.6 9.85 -10.65 9.85 -10.55 Q9.9 -10.45 10.1 -10.45 L10.25 -10.5 9.7 -9.6 9.65 -9.6 9.5 -10.3 Q9.3 -11.45 9.3 -11.75 L9.35 -11.85 9.45 -11.95 9.45 -12.0 9.55 -12.2 Q9.55 -12.0 9.65 -11.8 9.75 -11.45 9.95 -11.3 M9.9 -13.05 L10.0 -13.1 9.95 -13.0 9.9 -13.05 M9.15 -11.45 L9.15 -11.45 M8.85 -2.95 L8.8 -2.9 8.75 -2.9 8.7 -2.95 8.85 -2.95 M19.8 -6.4 Q19.2 -4.75 17.95 -2.9 17.45 -2.15 16.3 -0.65 L15.8 0.05 Q15.15 -0.15 14.9 -0.65 14.75 -0.8 14.65 -0.95 14.55 -1.1 14.5 -1.25 14.45 -1.45 14.45 -1.7 L14.45 -2.15 14.7 -2.4 15.1 -2.9 15.55 -3.35 Q16.45 -4.05 17.65 -4.9 L17.8 -5.0 17.85 -5.0 18.4 -5.4 19.8 -6.4 M20.35 -8.95 Q20.3 -7.9 19.9 -6.7 L19.6 -6.45 Q17.95 -5.6 16.6 -4.5 L16.2 -4.2 15.4 -3.45 15.25 -3.3 15.2 -3.3 15.15 -3.25 15.1 -3.25 13.9 -2.4 13.65 -2.25 14.3 -2.8 14.85 -3.4 15.75 -4.3 16.15 -4.65 16.5 -4.9 16.55 -5.0 17.0 -5.4 17.25 -5.65 17.5 -5.95 17.7 -6.15 18.05 -6.45 18.05 -6.4 18.1 -6.45 18.1 -6.5 18.3 -6.65 18.6 -6.95 19.15 -7.6 20.2 -8.65 20.35 -8.95 M13.6 -13.15 L13.6 -13.1 13.6 -13.15 M12.75 -5.2 Q12.6 -5.25 12.55 -5.2 12.55 -5.05 12.6 -5.0 L12.7 -5.0 Q12.75 -5.1 12.75 -5.2 M13.0 -6.85 Q12.95 -6.95 12.85 -7.0 12.75 -6.95 12.75 -6.8 12.8 -6.75 12.9 -6.75 12.95 -6.75 13.0 -6.85 M14.1 -5.75 L14.3 -5.65 Q14.4 -5.65 14.45 -5.7 L14.25 -5.9 Q14.1 -5.9 14.1 -5.75 M14.6 -2.6 L14.65 -2.6 14.6 -2.55 14.6 -2.6 M27.9 -26.15 Q27.95 -26.05 28.15 -26.0 L28.35 -25.9 28.4 -25.95 28.3 -25.85 28.3 -25.8 28.95 -25.75 Q30.0 -25.7 30.65 -25.2 L31.2 -24.65 30.65 -24.9 Q29.9 -25.2 29.4 -25.15 28.95 -25.15 28.9 -24.85 L28.8 -24.85 Q29.2 -24.65 29.5 -24.3 L29.6 -24.25 Q30.3 -23.65 30.7 -22.05 L30.75 -21.75 Q31.25 -20.15 31.25 -18.8 L31.2 -17.9 31.1 -17.65 30.95 -17.2 30.75 -16.75 30.6 -16.15 30.55 -16.05 30.5 -16.4 Q30.45 -16.4 30.45 -16.6 L30.45 -16.65 30.25 -17.5 Q29.9 -19.15 29.65 -19.6 L29.5 -19.85 29.5 -19.9 Q29.3 -20.6 29.15 -21.0 28.55 -22.5 27.55 -22.5 28.55 -21.85 29.15 -20.25 L29.1 -20.3 28.9 -20.55 27.95 -21.55 Q27.45 -21.85 26.6 -21.05 25.8 -20.35 25.8 -20.2 L26.0 -20.0 Q25.45 -19.95 24.65 -19.4 24.15 -19.05 23.75 -18.65 L23.55 -18.45 23.55 -18.6 23.5 -19.05 Q23.8 -21.25 24.85 -23.1 25.3 -23.9 25.95 -24.65 26.75 -25.4 27.9 -26.15 M29.9 -14.95 L29.9 -14.8 29.85 -14.6 29.85 -14.85 Q29.7 -14.9 29.6 -15.15 29.75 -15.0 29.9 -14.95 M28.55 -16.9 L28.65 -16.75 28.45 -16.85 28.55 -16.9 M26.05 -17.7 L26.0 -17.7 26.0 -17.75 26.05 -17.7" fill="#f7d2ae" fill-rule="evenodd" stroke="none"/>
    <path d="M17.9 -23.95 L17.1 -23.5 Q16.2 -22.9 15.45 -22.2 14.75 -21.55 14.7 -21.25 L14.75 -21.25 Q13.95 -21.15 13.15 -20.9 L13.15 -21.0 13.05 -20.9 Q12.9 -20.9 12.85 -21.0 12.8 -21.05 12.8 -21.15 L12.95 -21.65 12.9 -21.7 Q13.0 -23.35 13.25 -24.45 13.8 -27.1 15.15 -27.3 L15.3 -27.3 Q15.4 -27.3 15.5 -27.25 15.65 -27.15 15.7 -27.15 L15.85 -27.2 15.9 -27.2 15.95 -27.25 Q16.45 -26.5 16.85 -25.85 17.45 -24.7 17.9 -23.95 M22.55 -21.8 L22.65 -22.5 22.75 -22.8 Q22.9 -23.35 23.15 -23.7 L23.2 -23.75 23.9 -24.65 Q24.7 -25.55 25.45 -26.1 25.8 -26.4 26.35 -26.7 L26.1 -26.45 Q25.55 -25.8 25.15 -25.1 L25.0 -24.7 Q24.85 -24.65 24.7 -24.45 L23.6 -22.85 Q23.15 -22.15 22.55 -21.8 M13.15 -19.85 L13.2 -19.8 13.15 -19.7 13.15 -19.85 M9.45 -13.0 L9.6 -13.1 9.6 -13.15 9.45 -13.0 M15.25 -13.4 L15.55 -13.25 Q15.85 -13.05 16.15 -12.9 15.65 -13.1 15.25 -13.4 M11.9 -15.45 L11.85 -15.35 12.3 -14.7 12.35 -14.8 Q12.05 -14.4 12.05 -13.9 12.05 -13.55 12.05 -13.3 L12.05 -13.2 Q12.05 -12.65 12.4 -12.4 L12.45 -12.35 Q12.55 -12.3 12.65 -12.3 L12.65 -12.35 12.45 -12.55 Q12.25 -12.85 12.25 -13.2 12.25 -13.55 12.3 -13.9 L12.45 -14.4 12.45 -14.5 Q12.75 -14.15 13.05 -13.9 L12.5 -13.25 12.5 -13.45 12.45 -13.45 12.4 -13.35 Q12.35 -13.3 12.35 -13.2 12.35 -13.15 12.4 -13.1 L12.45 -13.05 Q12.55 -12.95 12.7 -12.9 L12.8 -12.9 13.05 -12.95 Q12.9 -12.7 12.9 -12.45 12.9 -11.95 13.2 -11.55 L12.95 -11.4 12.85 -11.75 12.8 -11.75 12.8 -11.7 12.9 -11.35 12.85 -11.3 Q12.65 -11.2 12.5 -11.1 L12.15 -11.1 12.1 -10.95 12.05 -10.6 11.75 -8.6 11.75 -6.15 11.65 -5.4 11.55 -5.1 11.35 -4.6 11.2 -4.3 11.15 -4.6 Q11.05 -5.0 10.7 -5.65 L10.55 -6.05 Q10.1 -6.75 9.8 -6.95 8.9 -7.45 8.45 -7.05 L8.35 -6.95 8.5 -7.05 Q8.3 -6.95 8.1 -6.7 L8.1 -6.75 7.95 -6.6 7.75 -6.45 9.7 -9.1 9.75 -9.1 9.75 -9.15 9.8 -9.2 Q10.55 -10.3 11.0 -11.1 L11.2 -11.5 11.25 -11.55 11.25 -11.6 11.35 -11.85 11.35 -11.9 11.5 -13.15 11.55 -13.65 11.5 -13.7 11.5 -13.8 11.35 -14.4 11.25 -14.65 11.35 -14.75 11.55 -15.0 11.6 -15.1 11.9 -15.45 M11.85 -15.75 L11.8 -15.7 11.9 -15.75 11.75 -15.6 11.85 -15.75 M21.2 -14.8 L21.5 -14.95 21.2 -14.8 M10.3 -12.25 L10.35 -12.15 10.45 -12.1 10.45 -12.05 Q10.35 -12.1 10.3 -12.25 M9.7 -9.6 L9.65 -9.55 9.65 -9.6 9.7 -9.6 M11.55 -10.2 L11.55 -10.2 M6.55 -4.8 L6.6 -4.65 6.55 -4.75 6.55 -4.8 M10.75 -3.55 L10.85 -3.55 10.75 -3.5 10.7 -3.45 10.75 -3.55 M17.5 -11.0 L17.3 -10.8 17.3 -10.75 Q16.85 -10.6 16.4 -10.55 L16.75 -10.65 17.2 -10.85 17.35 -10.9 17.5 -11.0 M11.7 -10.85 L11.7 -10.75 11.65 -10.6 11.7 -10.85" fill="#d69129" fill-rule="evenodd" stroke="none"/>
    <path d="M10.55 -13.75 Q10.7 -13.35 10.7 -13.2 L10.65 -12.4 10.55 -12.4 10.5 -12.35 Q10.3 -12.45 10.25 -12.65 10.25 -12.75 10.25 -13.0 L10.25 -13.45 10.3 -13.55 10.4 -13.6 10.4 -13.65 10.55 -13.75 M19.55 -9.35 Q19.55 -9.75 19.8 -9.95 20.1 -10.15 20.1 -9.75 L20.1 -8.95 20.0 -8.85 19.85 -8.65 19.8 -8.6 19.75 -8.65 19.7 -8.75 19.7 -8.8 19.6 -8.95 19.55 -9.05 19.55 -9.35 M18.45 -8.95 L18.55 -8.6 18.65 -8.4 Q18.7 -8.25 18.8 -8.1 L18.75 -7.5 18.5 -7.25 Q18.4 -7.5 18.3 -7.95 L18.25 -8.15 18.25 -9.0 Q18.3 -9.15 18.35 -9.2 L18.4 -9.1 18.45 -8.95 M18.6 -7.15 L18.6 -7.15 M14.25 -12.7 L14.2 -12.65 Q14.05 -12.5 14.0 -12.5 13.8 -12.6 13.75 -12.75 L13.7 -12.85 Q13.7 -13.1 13.75 -13.2 L13.95 -13.25 14.15 -13.2 14.25 -13.35 14.4 -13.4 14.45 -13.45 14.6 -13.45 14.7 -13.35 14.45 -13.0 14.35 -12.85 14.4 -12.8 14.35 -12.8 Q14.25 -12.75 14.25 -12.7" fill="#ffffff" fill-rule="evenodd" stroke="none"/>
    <path d="M10.55 -13.75 L10.6 -13.75 10.8 -13.65 11.0 -13.6 Q11.15 -13.5 11.3 -13.45 L11.4 -13.4 Q11.3 -13.35 11.3 -13.1 L11.35 -13.0 Q11.2 -12.5 11.0 -12.0 L10.8 -12.0 10.55 -12.05 10.45 -12.1 10.35 -12.15 10.3 -12.25 10.25 -12.35 Q10.15 -12.6 10.15 -12.85 10.15 -13.2 10.15 -13.3 L10.2 -13.4 10.25 -13.45 10.25 -13.0 Q10.25 -12.75 10.25 -12.65 10.3 -12.45 10.5 -12.35 L10.55 -12.4 10.65 -12.4 10.7 -13.2 Q10.7 -13.35 10.55 -13.75 M10.8 -12.85 L10.8 -12.55 11.1 -12.55 11.2 -12.65 11.15 -12.8 10.95 -12.9 10.8 -12.85 M14.0 -12.05 Q13.75 -12.3 13.7 -12.5 13.7 -12.65 13.7 -13.05 L13.6 -13.1 13.6 -13.15 13.7 -13.15 13.75 -13.2 Q13.7 -13.1 13.7 -12.85 L13.75 -12.75 Q13.8 -12.6 14.0 -12.5 14.05 -12.5 14.2 -12.65 L14.25 -12.7 14.2 -12.6 14.25 -12.5 Q14.35 -12.35 14.55 -12.35 14.7 -12.35 14.75 -12.4 L14.8 -12.5 14.75 -12.6 Q14.5 -12.8 14.35 -12.8 L14.4 -12.8 14.35 -12.85 14.45 -13.0 14.7 -13.35 Q15.7 -12.4 16.8 -12.25 L16.65 -12.05 Q16.25 -11.65 15.3 -11.65 14.55 -11.65 14.0 -12.05 M14.25 -13.35 L14.15 -13.2 13.95 -13.25 14.25 -13.35" fill="#ffff66" fill-rule="evenodd" stroke="none"/>
    <path d="M20.5 -20.45 Q20.1 -20.65 19.7 -20.75 19.25 -21.0 19.1 -21.05 18.55 -21.2 17.7 -21.2 L17.3 -21.25 17.7 -21.45 18.1 -21.55 18.1 -21.6 17.95 -21.6 18.25 -21.8 19.0 -22.15 19.1 -22.2 19.65 -22.25 Q20.05 -22.25 20.5 -22.0 20.1 -21.65 20.1 -21.6 20.1 -21.45 20.15 -21.45 L20.3 -21.5 20.6 -21.8 Q20.45 -21.4 20.45 -20.7 L20.5 -20.45 M21.2 -22.45 L21.2 -22.5 Q21.0 -22.5 20.55 -22.1 L20.5 -22.05 Q19.9 -22.35 19.25 -22.3 L19.45 -22.35 19.55 -22.35 20.2 -22.6 Q20.9 -22.85 21.05 -22.85 L21.45 -22.9 21.35 -22.8 21.2 -22.45 M22.2 -20.8 L22.2 -20.45 21.95 -20.75 22.2 -20.8 M21.05 -21.95 L20.9 -21.85 20.75 -21.95 21.15 -22.3 21.05 -21.95 M25.2 -13.35 L25.0 -13.6 25.0 -13.65 25.0 -13.7 25.05 -13.75 25.05 -13.6 25.0 -13.65 25.2 -13.35 M21.5 -4.9 L21.55 -4.95 21.55 -5.0 21.7 -5.15 Q22.4 -6.2 23.2 -7.15 L23.35 -7.3 23.9 -7.9 Q25.25 -9.35 26.15 -10.0 L26.15 -10.2 26.2 -10.25 26.15 -10.3 26.1 -10.55 Q26.4 -9.8 26.8 -9.7 26.35 -9.3 25.7 -8.2 L25.7 -8.15 Q25.25 -7.4 24.9 -7.0 26.3 -7.7 27.15 -7.6 26.5 -6.8 24.5 -5.45 L22.4 -4.0 22.3 -3.95 21.4 -3.6 21.25 -3.75 21.3 -3.8 21.55 -4.05 22.0 -4.6 Q22.05 -4.8 22.5 -5.2 L22.85 -5.7 Q23.35 -6.35 23.35 -6.55 23.35 -6.7 23.3 -6.6 22.6 -5.95 21.75 -5.05 L21.5 -4.9 M25.6 -13.2 L25.35 -13.4 25.6 -13.3 25.6 -13.2 M27.95 -14.1 L27.9 -14.4 27.95 -14.4 27.95 -14.45 27.9 -14.45 27.9 -14.5 28.05 -14.5 28.1 -14.4 28.1 -14.45 28.2 -14.0 28.15 -14.1 27.95 -14.1 M28.3 -13.35 L28.4 -13.05 Q28.2 -13.3 28.0 -13.3 L28.0 -13.4 28.1 -13.3 28.3 -13.35 M29.35 -9.9 L29.35 -9.85 29.15 -9.75 Q29.05 -9.7 28.9 -9.7 L28.95 -9.9 28.95 -10.0 Q29.05 -9.9 29.2 -9.85 L29.35 -9.9 M28.85 -8.9 L29.0 -8.9 28.95 -8.7 29.0 -8.65 28.85 -8.45 28.85 -8.75 Q28.9 -8.8 28.85 -8.8 L28.85 -8.9 M26.1 -9.45 L25.95 -9.3 26.1 -9.4 26.1 -9.45" fill="#4e6987" fill-rule="evenodd" stroke="none"/>
    <path d="M13.9 -14.3 Q13.7 -14.25 13.55 -14.1 12.9 -13.75 12.9 -13.5 L12.9 -13.45 12.75 -13.25 12.9 -13.4 Q12.95 -13.25 13.0 -13.25 L13.1 -13.2 12.7 -13.1 Q12.6 -13.1 12.55 -13.1 L12.5 -13.15 12.5 -13.2 Q12.75 -13.4 13.1 -13.8 L13.65 -14.6 13.9 -14.3 M11.15 -14.25 L11.05 -14.4 11.1 -14.45 11.15 -14.25 M11.15 -14.05 L11.3 -13.8 11.35 -13.65 10.75 -13.95 10.7 -13.95 10.8 -14.1 10.95 -14.25 10.95 -14.3 11.0 -14.25 11.1 -14.1 11.15 -14.05" fill="#84591a" fill-rule="evenodd" stroke="none"/>
    <path d="M31.25 -27.75 L31.35 -26.9 31.35 -24.7 31.1 -24.95 31.15 -25.0 31.2 -24.95 31.05 -25.05 30.95 -25.1 Q30.1 -25.8 28.55 -26.05 L28.4 -25.95 28.35 -25.9 28.15 -26.0 Q27.95 -26.05 27.9 -26.15 29.3 -27.05 31.15 -27.85 L31.25 -27.75 M30.9 -24.0 L31.4 -23.6 Q31.3 -23.2 31.05 -22.5 L31.05 -22.4 Q30.7 -23.55 30.15 -24.2 L30.9 -24.0" fill="#efab8d" fill-rule="evenodd" stroke="none"/>
    <path d="M13.65 -20.5 L13.55 -20.5 Q13.35 -20.3 13.15 -20.05 L13.1 -20.3 13.1 -20.35 13.65 -20.5 M18.3 -20.75 L18.35 -20.85 19.0 -20.65 18.3 -20.75 M13.1 -15.5 L12.65 -16.0 12.75 -16.0 12.95 -15.9 13.1 -15.5 M11.9 -15.75 L11.8 -15.7 11.85 -15.75 11.9 -15.75 M22.75 -16.95 L22.75 -17.15 22.9 -17.2 22.95 -17.2 22.75 -16.95" fill="#807537" fill-rule="evenodd" stroke="none"/>
    <path d="M12.7 -20.15 L12.8 -20.05 Q12.95 -19.8 12.95 -19.65 L12.95 -19.5 Q11.2 -19.25 10.0 -18.25 L11.3 -19.65 Q12.1 -20.15 12.55 -20.1 L12.55 -20.15 12.7 -20.15 M12.15 -19.65 L12.1 -19.65 12.1 -19.6 12.15 -19.65 M13.65 -17.8 Q13.75 -18.35 14.05 -18.8 15.05 -20.25 17.5 -20.25 18.4 -20.15 19.05 -19.95 L19.0 -19.9 18.15 -19.95 Q16.15 -20.05 15.15 -18.85 14.45 -17.9 14.45 -16.6 14.45 -15.9 14.65 -15.5 L14.85 -15.2 14.65 -14.9 Q14.35 -15.1 14.15 -15.35 13.9 -15.7 13.75 -16.15 L14.0 -15.8 Q13.6 -16.55 13.6 -17.35 L13.6 -17.45 13.65 -17.8 M14.9 -15.1 Q15.1 -14.85 15.45 -14.5 15.2 -14.6 15.0 -14.75 L15.2 -14.55 14.75 -14.8 14.9 -15.1 M9.55 -17.85 Q8.25 -16.45 8.0 -15.95 L8.0 -16.15 Q8.05 -16.45 8.15 -16.75 8.45 -17.35 8.9 -17.75 9.3 -18.25 10.4 -19.05 L11.2 -19.6 Q10.7 -19.15 9.55 -17.85 M8.5 -15.15 L8.4 -15.15 Q8.25 -15.3 8.15 -15.45 L8.05 -15.65 Q8.3 -16.15 8.7 -16.65 8.45 -16.15 8.45 -15.6 8.45 -15.5 8.55 -15.25 L8.5 -15.15 M25.85 -17.1 L25.95 -17.1 26.45 -17.0 26.8 -16.95 27.5 -16.65 Q27.5 -16.25 27.4 -15.7 L27.25 -14.9 25.7 -15.15 25.8 -15.95 Q25.85 -16.5 25.85 -16.9 L25.85 -17.1" fill="#663333" fill-rule="evenodd" stroke="none"/>
    <path d="M15.15 -27.3 L15.35 -27.35 15.65 -27.3 Q14.95 -27.65 14.35 -27.15 13.95 -26.8 13.65 -26.1 13.2 -25.15 12.95 -23.6 L12.85 -23.1 12.9 -23.75 12.9 -25.15 13.0 -25.8 Q13.05 -26.25 13.25 -26.65 13.4 -27.15 13.65 -27.6 L13.7 -27.8 Q14.2 -28.55 14.75 -28.75 L15.25 -28.15 15.35 -28.0 15.95 -27.25 15.9 -27.2 15.85 -27.2 15.7 -27.15 Q15.65 -27.15 15.5 -27.25 15.4 -27.3 15.3 -27.3 L15.15 -27.3 M26.35 -26.7 Q26.95 -27.1 27.8 -27.4 L27.4 -27.1 Q26.25 -26.25 25.6 -25.4 26.0 -26.05 26.6 -26.75 26.05 -26.45 25.4 -25.45 L25.15 -24.95 Q24.9 -24.5 24.85 -24.2 L24.85 -24.25 Q24.85 -24.35 24.9 -24.55 L25.0 -24.7 25.15 -25.1 Q25.55 -25.8 26.1 -26.45 L26.35 -26.7 M29.8 -27.85 L29.9 -27.85 29.8 -27.8 29.8 -27.85 M25.1 -24.05 L25.05 -24.05 24.95 -23.85 25.05 -24.2 25.0 -24.1 25.1 -24.05" fill="#895c1b" fill-rule="evenodd" stroke="none"/>
    <path d="M8.5 -7.05 L8.35 -6.95 8.45 -7.05 Q8.9 -7.45 9.8 -6.95 10.1 -6.75 10.55 -6.05 L10.7 -5.65 Q11.05 -5.0 11.15 -4.6 L11.2 -4.3 10.95 -3.65 10.9 -3.55 10.85 -3.55 10.75 -3.55 Q10.85 -3.75 10.85 -3.9 L10.7 -3.75 10.7 -3.85 10.7 -3.9 10.65 -4.2 Q10.5 -4.45 10.25 -4.45 9.75 -4.45 9.7 -3.9 9.7 -3.3 9.65 -3.15 L9.65 -3.1 8.25 -3.05 Q8.05 -3.05 7.85 -3.15 L7.2 -3.7 7.0 -3.95 6.95 -4.0 6.65 -4.5 6.6 -4.65 6.55 -4.8 6.6 -4.85 6.6 -4.9 Q6.65 -4.65 6.75 -4.45 7.0 -4.1 7.75 -4.1 L7.8 -4.15 Q7.75 -4.15 7.75 -4.25 7.75 -4.45 8.3 -4.9 L8.55 -5.1 8.05 -5.05 7.5 -5.0 Q7.3 -5.0 7.15 -5.05 L6.9 -5.2 6.9 -5.15 6.85 -5.1 6.9 -5.0 6.65 -4.95 6.65 -4.9 6.65 -5.0 7.65 -5.85 Q8.45 -6.5 8.95 -6.8 L8.85 -6.8 9.4 -6.9 Q9.75 -6.9 10.25 -6.15 10.75 -5.45 10.8 -4.95 L10.9 -4.95 10.95 -5.0 10.95 -5.15 Q10.4 -6.25 9.85 -6.75 9.75 -6.9 9.6 -7.0 9.05 -7.35 8.5 -7.05 M10.45 -4.2 L10.4 -4.25 10.1 -4.3 10.05 -4.25 10.3 -4.3 10.45 -4.2 M9.8 -3.7 L9.85 -3.55 10.0 -3.5 10.35 -3.45 10.4 -3.45 10.2 -3.2 10.25 -3.3 10.0 -3.2 9.8 -3.15 9.8 -3.7" fill="#473016" fill-rule="evenodd" stroke="none"/>
    <path d="M10.7 -3.85 L10.7 -3.75 10.4 -3.45 10.35 -3.45 10.0 -3.5 9.85 -3.55 9.8 -3.7 9.8 -3.75 Q9.8 -4.15 10.05 -4.25 L10.1 -4.3 10.4 -4.25 10.45 -4.2 10.5 -4.1 10.65 -3.85 10.7 -3.85 M10.75 -3.5 L10.75 -3.35 Q10.75 -3.0 10.15 -2.6 9.75 -2.35 9.35 -2.2 8.9 -2.5 8.75 -2.85 L8.8 -2.85 8.8 -2.9 8.85 -2.95 9.7 -2.95 Q9.75 -3.0 9.8 -3.15 L10.0 -3.2 10.25 -3.3 10.2 -3.2 10.15 -3.15 10.55 -3.3 10.7 -3.45 10.75 -3.5 M19.5 -11.6 L19.6 -11.7 19.75 -11.8 19.65 -11.7 19.5 -11.6" fill="#d37c47" fill-rule="evenodd" stroke="none"/>
    <path d="M17.9 -23.95 L17.9 -23.9 Q18.5 -22.95 18.85 -22.65 17.35 -21.95 17.0 -21.55 L15.25 -21.3 14.8 -21.25 14.75 -21.25 14.7 -21.25 Q14.75 -21.55 15.45 -22.2 16.2 -22.9 17.1 -23.5 L17.9 -23.95 M24.85 -24.2 Q24.8 -24.05 24.8 -23.9 L24.8 -23.65 Q24.4 -23.0 24.05 -22.3 23.8 -21.8 23.6 -21.25 23.3 -20.45 23.15 -19.85 L23.2 -19.25 23.3 -18.45 23.3 -17.65 Q22.9 -18.2 22.7 -19.3 22.55 -20.35 22.55 -21.45 L22.55 -21.8 Q23.15 -22.15 23.6 -22.85 L24.7 -24.45 Q24.85 -24.65 25.0 -24.7 L24.9 -24.55 Q24.85 -24.35 24.85 -24.25 L24.85 -24.2 M11.9 -15.45 L12.35 -15.9 12.35 -15.95 12.4 -15.95 12.65 -16.0 13.1 -15.5 Q13.35 -15.05 13.65 -14.6 L13.05 -13.9 Q12.75 -14.15 12.45 -14.5 12.65 -15.0 12.95 -15.45 12.65 -15.25 12.45 -14.9 L12.35 -14.8 12.3 -14.7 11.85 -15.35 11.9 -15.45 M13.2 -11.55 Q12.9 -11.95 12.9 -12.45 12.9 -12.7 13.05 -12.95 L13.3 -13.05 13.45 -13.05 13.5 -13.1 Q13.5 -13.15 13.6 -13.1 L13.7 -13.05 Q13.7 -12.65 13.7 -12.5 13.75 -12.3 14.0 -12.05 L14.1 -11.95 14.3 -11.8 14.3 -11.75 Q14.85 -11.5 15.55 -11.5 16.2 -11.5 16.65 -11.9 16.85 -12.05 16.95 -12.25 L17.2 -12.25 Q17.5 -12.25 17.95 -12.35 L18.6 -12.4 18.25 -11.9 18.15 -11.75 17.65 -11.2 17.5 -11.05 17.5 -11.0 17.35 -10.9 16.95 -10.9 16.7 -10.8 16.6 -10.8 16.3 -10.75 16.25 -10.75 15.85 -10.7 15.15 -10.8 Q14.8 -10.85 14.55 -11.0 L14.55 -11.05 Q14.15 -11.25 14.0 -11.55 L13.95 -11.55 Q13.85 -11.55 13.8 -11.65 L13.8 -11.55 13.85 -11.45 Q13.65 -11.55 13.4 -11.55 L13.2 -11.55 M10.55 -12.05 L10.8 -12.0 11.0 -12.0 10.95 -11.95 10.65 -11.25 10.45 -11.2 10.15 -11.2 10.0 -11.45 Q9.95 -11.6 9.95 -11.4 9.95 -11.35 9.95 -11.3 9.75 -11.45 9.65 -11.8 9.55 -12.0 9.55 -12.2 9.65 -12.45 9.65 -12.55 L9.65 -12.65 9.8 -12.9 9.9 -13.05 9.95 -13.0 9.95 -12.85 10.0 -12.65 10.0 -12.55 10.05 -12.35 10.1 -12.2 Q10.25 -11.9 10.45 -11.9 10.65 -11.9 10.65 -11.95 10.55 -11.95 10.5 -12.0 L10.55 -12.05 M16.75 -10.65 L16.8 -10.65 17.2 -10.85 16.75 -10.65" fill="#994a33" fill-rule="evenodd" stroke="none"/>
    <path d="M13.65 -20.5 Q15.25 -20.9 17.05 -20.9 L18.0 -20.9 18.35 -20.85 18.3 -20.75 18.0 -20.6 Q17.55 -20.65 17.05 -20.6 15.5 -20.45 14.45 -19.65 13.25 -18.75 13.25 -17.25 13.25 -16.4 13.55 -15.7 L13.8 -15.3 Q14.05 -14.85 14.45 -14.55 L14.4 -14.45 14.5 -14.45 14.55 -14.5 Q15.3 -13.95 16.5 -13.8 L17.3 -13.75 17.65 -13.75 18.1 -13.55 Q18.5 -13.25 18.5 -13.05 18.5 -12.7 18.35 -12.65 L17.8 -12.55 17.65 -12.55 16.9 -12.65 Q16.5 -12.75 16.15 -12.9 15.85 -13.05 15.55 -13.25 L15.25 -13.4 Q14.95 -13.6 14.7 -13.85 L14.3 -14.25 14.25 -14.35 13.9 -14.9 13.4 -15.65 12.9 -16.3 12.3 -16.3 Q11.15 -15.55 10.3 -14.2 L10.3 -14.15 10.25 -14.1 10.25 -14.05 10.2 -14.0 10.1 -13.95 10.1 -13.85 10.0 -13.65 10.0 -13.6 9.95 -13.55 9.95 -13.5 9.6 -13.15 9.6 -13.1 9.45 -13.0 Q9.4 -13.1 9.1 -13.5 L9.05 -13.5 8.85 -13.7 8.85 -13.75 8.95 -13.9 8.7 -13.95 8.55 -14.1 Q8.15 -14.7 8.05 -15.3 8.2 -15.1 8.4 -14.95 L8.35 -14.85 8.4 -14.85 8.45 -14.95 Q8.55 -14.9 8.7 -14.85 L8.75 -14.85 9.1 -14.8 9.2 -14.8 9.55 -14.85 9.6 -14.85 9.7 -14.9 10.0 -15.15 Q10.85 -15.9 11.3 -16.3 12.95 -17.95 13.15 -19.7 L13.2 -19.8 13.15 -19.85 13.15 -20.05 Q13.35 -20.3 13.55 -20.5 L13.65 -20.5 M18.3 -20.75 L18.3 -20.75 M14.25 -19.95 L14.3 -19.95 14.3 -20.0 14.25 -19.95 M13.95 -19.75 L13.85 -19.9 Q13.45 -19.55 12.95 -18.5 12.45 -17.4 12.45 -16.75 L12.45 -16.65 12.55 -16.65 Q12.65 -17.4 13.0 -18.2 13.35 -19.05 13.95 -19.75 M13.0 -16.9 L13.0 -16.9 M12.2 -16.75 L12.45 -17.05 12.15 -16.7 12.2 -16.7 12.2 -16.75 M22.75 -16.95 L22.95 -17.2 23.05 -17.2 23.05 -17.15 Q23.2 -17.2 23.25 -17.25 L24.3 -17.25 Q24.0 -16.65 23.6 -16.05 L23.2 -15.4 22.3 -15.25 22.3 -15.3 22.35 -15.3 22.45 -15.4 Q22.45 -15.55 22.6 -16.15 22.75 -16.8 22.75 -16.95 M8.3 -14.85 L8.3 -14.85" fill="#ccac6a" fill-rule="evenodd" stroke="none"/>
    <path d="M6.65 -4.9 L6.65 -4.95 6.9 -5.0 6.85 -5.1 6.9 -5.15 6.9 -5.2 7.15 -5.05 Q7.3 -5.0 7.5 -5.0 L8.05 -5.05 8.55 -5.1 8.3 -4.9 Q7.75 -4.45 7.75 -4.25 7.75 -4.15 7.8 -4.15 L7.75 -4.1 Q7.0 -4.1 6.75 -4.45 6.65 -4.65 6.6 -4.9 L6.65 -4.9" fill="#cdad8d" fill-rule="evenodd" stroke="none"/>
    <path d="M19.55 -9.35 L19.55 -9.5 19.6 -9.75 Q19.7 -9.95 19.85 -10.1 L20.45 -9.75 Q20.35 -9.35 20.1 -8.95 L20.1 -9.75 Q20.1 -10.15 19.8 -9.95 19.55 -9.75 19.55 -9.35 M19.8 -8.6 L19.8 -8.6 M18.8 -8.1 L19.0 -7.8 19.0 -7.75 18.75 -7.5 18.8 -8.1 M18.5 -7.25 L18.4 -7.15 Q18.35 -7.25 18.3 -7.45 L18.25 -7.9 18.25 -8.15 18.3 -7.95 Q18.4 -7.5 18.5 -7.25" fill="#9f9f9f" fill-rule="evenodd" stroke="none"/>
    <path d="M8.7 -13.95 L8.95 -13.9 8.85 -13.75 8.75 -13.85 8.7 -13.95 M10.1 -13.85 L10.1 -13.95 10.2 -14.0 10.1 -13.85 M17.65 -12.55 L17.8 -12.55 18.35 -12.65 Q18.5 -12.7 18.5 -13.05 18.5 -13.25 18.1 -13.55 L17.65 -13.75 Q18.2 -13.8 18.55 -13.9 18.55 -13.85 18.55 -13.9 L18.6 -13.9 Q18.9 -14.0 19.4 -14.35 L19.65 -14.6 19.8 -14.65 Q19.45 -14.35 19.0 -14.1 L19.05 -14.05 Q20.25 -14.7 20.8 -15.55 20.95 -15.8 21.05 -16.1 21.2 -16.35 21.2 -16.55 L21.2 -17.2 Q21.2 -17.85 21.05 -18.55 20.85 -19.25 20.55 -19.4 20.25 -19.85 19.65 -20.15 18.9 -20.5 18.0 -20.6 L18.3 -20.75 Q19.2 -20.55 19.75 -20.3 L20.25 -20.1 Q20.65 -19.85 21.0 -19.5 22.3 -18.35 22.3 -16.8 22.3 -16.45 22.15 -15.7 L22.0 -15.15 21.5 -14.95 21.2 -14.8 Q20.35 -14.3 19.45 -13.4 19.1 -13.05 18.8 -12.65 L18.5 -12.6 Q18.05 -12.55 17.65 -12.55 M24.3 -17.25 L24.95 -17.25 25.5 -17.15 25.5 -17.1 25.55 -16.9 25.45 -16.3 Q25.3 -15.85 25.3 -15.5 L25.35 -15.4 25.3 -15.35 Q24.45 -15.7 23.4 -15.45 L23.2 -15.4 23.6 -16.05 Q24.0 -16.65 24.3 -17.25 M22.0 -17.15 L21.95 -17.15 22.0 -17.1 22.0 -17.15 M27.65 -16.5 L28.0 -14.75 27.45 -14.85 27.6 -15.55 Q27.65 -15.95 27.65 -16.5" fill="#955935" fill-rule="evenodd" stroke="none"/>
    <path d="M27.8 -27.4 L28.15 -27.55 28.45 -27.65 29.8 -27.85 29.8 -27.8 29.65 -27.75 25.55 -24.75 25.5 -24.6 25.35 -24.45 25.1 -24.05 25.0 -24.1 25.05 -24.2 25.4 -25.0 25.6 -25.4 Q26.25 -26.25 27.4 -27.1 L27.8 -27.4 M13.9 -14.3 L13.9 -14.25 Q13.7 -14.1 13.4 -13.9 13.1 -13.65 12.9 -13.45 L12.9 -13.5 Q12.9 -13.75 13.55 -14.1 13.7 -14.25 13.9 -14.3 M12.9 -13.4 Q13.1 -13.5 13.45 -13.75 L14.0 -14.15 14.0 -14.1 14.35 -13.7 14.3 -13.7 13.15 -13.2 13.1 -13.2 13.0 -13.25 Q12.95 -13.25 12.9 -13.4 M11.15 -14.25 L11.25 -14.2 Q11.25 -14.1 11.15 -14.05 L11.1 -14.1 11.0 -14.25 11.15 -14.25 M10.8 -14.1 Q10.8 -14.2 10.8 -14.25 L10.95 -14.25 10.8 -14.1" fill="#5f4012" fill-rule="evenodd" stroke="none"/>
    <path d="M20.5 -20.45 L20.45 -20.7 Q20.45 -21.4 20.6 -21.8 L20.7 -21.9 20.85 -21.8 Q20.6 -21.55 20.6 -21.45 20.6 -21.3 20.65 -21.35 L20.8 -21.3 21.1 -21.55 21.35 -21.3 Q21.9 -20.7 22.25 -19.95 22.3 -19.5 22.4 -19.05 L22.45 -18.8 Q22.05 -19.3 21.6 -19.7 L21.5 -19.8 Q21.05 -20.15 20.5 -20.45 M21.2 -22.45 L21.35 -22.8 21.45 -22.9 22.3 -23.05 22.3 -22.8 Q22.2 -22.2 22.2 -21.45 L22.2 -20.8 21.95 -20.75 21.85 -20.9 Q21.5 -21.35 21.2 -21.6 L21.25 -21.7 21.7 -22.05 21.6 -22.15 Q21.35 -22.15 21.05 -21.95 L21.15 -22.3 21.25 -22.4 21.2 -22.45 M21.5 -4.9 L21.75 -5.05 21.25 -4.5 21.4 -4.75 21.5 -4.9 M21.3 -3.8 L21.25 -3.75 21.4 -3.6 21.0 -3.4 21.3 -3.8 M22.4 -4.0 L24.5 -5.45 Q26.5 -6.8 27.15 -7.6 26.3 -7.7 24.9 -7.0 25.25 -7.4 25.7 -8.15 L25.7 -8.2 Q26.35 -9.3 26.8 -9.7 26.4 -9.8 26.1 -10.55 L26.1 -10.6 Q26.05 -10.95 25.95 -11.45 L25.8 -11.85 25.9 -11.75 26.3 -11.3 26.35 -11.15 26.45 -11.15 26.55 -11.05 26.6 -11.1 26.45 -11.55 Q26.3 -12.15 26.15 -12.45 25.9 -12.9 25.6 -13.2 L25.6 -13.3 26.0 -13.05 Q26.65 -12.7 26.9 -12.6 L27.0 -12.55 27.0 -12.5 27.1 -12.45 27.1 -12.2 27.25 -12.25 27.45 -12.1 Q27.5 -12.1 27.5 -12.2 L27.55 -12.15 27.55 -12.25 Q27.55 -12.4 27.4 -12.8 L27.3 -12.9 27.15 -13.25 27.1 -13.35 Q26.85 -14.0 26.45 -14.5 L26.25 -14.7 26.3 -14.7 26.65 -14.65 27.2 -14.5 27.2 -14.35 Q27.25 -14.25 27.3 -14.2 L27.35 -14.25 27.4 -14.45 27.4 -14.35 Q27.35 -14.4 27.35 -14.45 27.35 -14.55 27.4 -14.6 L27.75 -14.6 27.8 -14.45 27.75 -14.25 27.7 -14.25 27.7 -13.35 Q27.7 -12.5 27.85 -12.1 L27.9 -12.05 27.8 -11.85 27.75 -11.7 27.95 -11.45 27.95 -11.65 Q27.95 -11.8 27.9 -11.7 L27.95 -11.9 28.05 -11.7 Q28.25 -11.35 28.45 -10.2 L28.3 -10.1 28.25 -10.05 28.25 -9.65 Q28.35 -9.75 28.55 -9.85 L28.55 -9.6 28.3 -9.6 28.3 -9.5 Q28.3 -9.45 28.6 -9.45 L28.7 -9.05 28.65 -8.2 27.6 -6.8 27.3 -6.6 26.45 -5.75 Q24.6 -4.1 23.7 -4.1 L23.45 -4.1 Q23.1 -3.95 22.75 -3.95 L22.4 -4.0 M27.65 -14.55 L27.65 -14.55 M28.2 -14.0 L28.25 -13.75 28.3 -13.35 28.1 -13.3 28.0 -13.4 28.0 -13.5 27.95 -14.1 28.15 -14.1 28.2 -14.0 M28.4 -13.05 L28.45 -12.9 Q28.55 -12.55 28.65 -12.25 L29.1 -11.05 29.2 -10.85 28.8 -10.55 28.6 -10.9 28.6 -10.95 28.4 -11.4 28.25 -11.7 Q28.15 -11.95 28.1 -12.25 L28.15 -12.45 28.15 -12.7 28.05 -12.45 Q28.0 -12.8 28.0 -13.3 28.2 -13.3 28.4 -13.05 M29.35 -9.9 L29.2 -9.85 Q29.05 -9.9 28.95 -10.0 L28.95 -10.1 29.3 -10.3 29.35 -9.9 M29.0 -8.9 L28.85 -8.9 28.85 -9.0 28.9 -9.35 28.9 -9.45 Q29.1 -9.5 29.3 -9.65 L29.35 -9.7 Q29.3 -9.5 29.15 -9.2 L29.0 -8.9" fill="#41495f" fill-rule="evenodd" stroke="none"/>
    <path d="M15.95 -18.95 L15.15 -18.0 Q15.45 -18.55 15.95 -18.95 M12.3 -19.05 L12.1 -18.7 11.9 -18.4 Q11.9 -18.7 11.85 -18.85 L12.3 -19.05 M11.65 -17.8 L11.65 -17.6 Q11.65 -17.35 11.8 -17.1 L11.9 -17.2 Q11.55 -16.8 11.05 -16.35 10.7 -16.0 9.95 -15.4 L10.75 -16.45 Q11.35 -17.3 11.65 -17.8 M9.25 -16.8 Q9.4 -17.0 9.55 -17.2 L9.85 -17.55 9.25 -16.8 M15.65 -14.45 L15.55 -14.5 15.35 -14.9 Q16.0 -16.15 17.95 -18.25 L19.25 -19.75 19.7 -19.6 19.95 -19.4 20.05 -19.35 20.25 -19.1 Q20.55 -18.75 20.75 -18.25 L20.8 -18.05 19.3 -16.0 Q18.25 -14.6 18.05 -14.2 L17.4 -14.15 17.2 -14.15 Q17.65 -14.75 18.35 -15.75 20.1 -18.3 20.1 -18.5 20.1 -20.55 17.75 -17.5 17.0 -16.5 16.1 -15.2 L15.65 -14.45" fill="#c2d1d8" fill-rule="evenodd" stroke="none"/>
    <path d="M15.15 -18.0 L15.95 -18.95 Q16.85 -19.6 18.55 -19.8 L18.9 -19.8 Q17.55 -18.65 16.45 -17.35 15.65 -16.45 15.1 -15.6 14.85 -16.15 14.85 -16.6 14.85 -17.4 15.15 -18.0 M11.9 -18.4 L11.9 -18.35 Q11.9 -18.2 11.65 -17.8 11.35 -17.3 10.75 -16.45 L9.95 -15.4 9.9 -15.4 9.8 -15.35 Q9.5 -15.1 9.2 -15.1 L9.05 -15.1 8.95 -15.15 8.9 -15.2 8.85 -15.2 Q8.9 -16.1 9.25 -16.8 L9.85 -17.55 Q10.55 -18.3 11.85 -18.85 11.9 -18.7 11.9 -18.4 M15.65 -14.45 L16.1 -15.2 Q17.0 -16.5 17.75 -17.5 20.1 -20.55 20.1 -18.5 20.1 -18.3 18.35 -15.75 17.65 -14.75 17.2 -14.15 16.3 -14.2 15.65 -14.45 M16.6 -15.35 L16.65 -15.35 18.0 -16.75 Q18.9 -17.7 19.3 -18.25 L17.95 -16.85 Q17.0 -15.9 16.6 -15.35 M10.5 -16.2 L11.05 -17.05 Q11.45 -17.6 11.6 -17.95 L10.8 -16.95 10.45 -16.4 Q10.45 -16.3 10.45 -16.25 L10.5 -16.2" fill="#f0ede1" fill-rule="evenodd" stroke="none"/>
    <path d="M12.3 -19.05 L12.9 -19.25 12.85 -19.05 12.85 -18.9 11.9 -17.2 11.8 -17.1 Q11.65 -17.35 11.65 -17.6 L11.65 -17.8 Q11.9 -18.2 11.9 -18.35 L11.9 -18.4 12.1 -18.7 12.3 -19.05 M18.05 -14.2 Q18.25 -14.6 19.3 -16.0 L20.8 -18.05 20.9 -17.5 20.9 -17.15 Q20.9 -16.6 20.75 -16.1 L20.3 -15.55 Q19.85 -15.05 19.25 -14.65 L19.1 -14.55 18.9 -14.45 18.7 -14.3 18.65 -14.3 18.25 -14.2 18.05 -14.2 M19.25 -19.75 L17.95 -18.25 Q16.0 -16.15 15.35 -14.9 L15.15 -15.45 Q15.8 -16.45 16.5 -17.3 17.65 -18.65 19.05 -19.75 L19.25 -19.75" fill="#636574" fill-rule="evenodd" stroke="none"/>
    <path d="M31.8 -28.6 L31.8 -28.65 32.0 -27.85 31.95 -26.95 Q31.95 -26.2 32.05 -25.45 L32.0 -24.65 Q31.95 -24.55 31.95 -24.35 31.95 -24.25 32.1 -23.85 L32.05 -23.85 32.0 -23.9 32.35 -23.15 32.55 -22.55 32.25 -22.6 32.1 -22.6 32.05 -22.65 31.75 -22.7 31.5 -21.75 31.3 -21.1 Q31.45 -20.1 31.45 -18.9 31.45 -17.25 31.35 -16.95 31.3 -16.75 31.0 -16.15 30.75 -15.05 30.1 -14.25 30.0 -13.65 29.75 -13.65 L29.7 -13.6 29.7 -13.8 Q29.55 -14.3 29.45 -14.85 29.2 -14.9 28.8 -15.3 L28.8 -14.75 Q28.8 -14.3 28.95 -13.95 L29.65 -12.25 30.05 -11.15 30.1 -11.2 Q30.15 -11.1 30.1 -11.0 L30.1 -10.85 Q30.15 -10.2 30.1 -9.55 29.95 -8.55 29.5 -8.4 29.25 -8.0 28.4 -6.9 L27.8 -6.15 Q27.05 -5.25 26.75 -5.05 L26.6 -4.95 26.05 -4.6 Q25.0 -3.9 23.2 -3.5 L21.65 -3.15 Q21.25 -3.05 20.95 -2.95 L20.7 -2.85 20.6 -2.75 Q20.3 -2.6 20.2 -2.35 L19.85 -1.9 18.85 -0.7 Q18.35 -0.2 17.7 0.3 L17.7 0.25 17.55 0.35 17.6 0.35 16.95 0.75 16.35 1.05 Q14.85 0.75 14.2 -0.3 L14.15 -0.4 Q14.15 -1.45 14.0 -1.95 L13.65 -1.6 13.5 -1.5 Q13.4 -1.45 13.25 -1.45 L10.95 -1.2 Q9.9 -1.35 9.1 -1.9 L8.95 -2.0 8.55 -1.95 Q7.45 -1.95 6.55 -3.3 L6.3 -3.75 Q6.05 -4.2 5.9 -4.65 5.9 -5.0 6.15 -5.35 L6.3 -5.55 Q6.45 -5.65 6.6 -5.7 8.45 -8.75 9.05 -9.25 8.8 -9.6 8.6 -10.55 L8.5 -11.35 8.2 -11.1 8.0 -11.1 7.95 -11.15 Q7.95 -11.2 7.95 -11.3 7.95 -11.45 8.2 -11.75 7.95 -11.75 7.9 -11.9 7.85 -11.95 7.85 -12.05 L8.1 -12.35 8.6 -12.85 8.45 -12.95 Q7.9 -14.05 7.7 -14.45 7.3 -15.3 7.2 -15.9 L7.15 -16.3 Q7.4 -16.95 8.0 -17.7 8.8 -18.65 10.1 -19.45 L10.65 -19.8 10.55 -19.75 Q11.0 -20.05 11.5 -20.3 L12.3 -20.6 12.5 -20.65 12.55 -20.7 12.55 -20.8 Q12.5 -21.1 12.35 -21.25 L12.35 -21.4 12.25 -21.4 Q11.95 -21.85 10.6 -21.5 10.15 -21.4 9.75 -21.2 L9.65 -21.3 Q9.6 -21.35 9.6 -21.5 9.6 -21.7 9.65 -21.9 9.9 -22.6 10.45 -23.3 10.7 -23.6 11.15 -24.05 11.4 -24.3 11.45 -24.4 L11.8 -24.65 Q11.2 -24.7 9.8 -24.6 L9.6 -24.7 Q10.7 -25.05 11.7 -24.9 L11.95 -24.85 11.45 -25.3 Q10.55 -26.15 10.55 -26.0 10.55 -26.3 10.75 -26.35 10.8 -26.5 11.05 -26.55 L12.6 -26.65 12.65 -26.9 Q12.7 -27.8 13.9 -28.95 L14.25 -29.3 14.95 -29.65 Q15.05 -29.6 15.1 -29.45 L15.35 -29.25 Q16.3 -28.4 17.45 -26.45 17.75 -25.9 18.75 -24.3 L19.55 -23.0 19.8 -23.15 Q20.3 -23.4 20.95 -23.55 L20.9 -23.75 Q20.75 -24.2 20.4 -24.35 20.8 -24.35 21.05 -23.85 L21.15 -23.6 21.7 -23.75 21.65 -23.9 Q21.6 -24.15 21.55 -24.35 21.55 -24.6 21.7 -24.6 21.85 -24.4 21.9 -24.0 L21.9 -23.8 22.65 -23.85 Q22.85 -24.75 24.05 -25.8 25.3 -26.85 27.25 -27.75 29.05 -28.6 30.4 -28.8 31.6 -29.0 31.8 -28.6 M14.65 -28.9 L14.6 -28.95 14.5 -28.8 14.65 -28.9 M14.75 -21.25 L14.8 -21.25 15.25 -21.3 17.0 -21.55 Q17.35 -21.95 18.85 -22.65 18.5 -22.95 17.9 -23.9 L17.9 -23.95 Q17.45 -24.7 16.85 -25.85 16.45 -26.5 15.95 -27.25 L15.35 -28.0 15.25 -28.15 14.75 -28.75 Q14.2 -28.55 13.7 -27.8 L13.65 -27.6 Q13.4 -27.15 13.25 -26.65 13.05 -26.25 13.0 -25.8 L12.9 -25.15 12.9 -23.75 12.85 -23.1 12.95 -23.6 Q13.2 -25.15 13.65 -26.1 13.95 -26.8 14.35 -27.15 14.95 -27.65 15.65 -27.3 L15.35 -27.35 15.15 -27.3 Q13.8 -27.1 13.25 -24.45 13.0 -23.35 12.9 -21.7 L12.95 -21.65 12.8 -21.15 Q12.8 -21.05 12.85 -21.0 12.9 -20.9 13.05 -20.9 L13.15 -21.0 13.15 -20.9 Q13.95 -21.15 14.75 -21.25 M20.6 -21.8 L20.3 -21.5 20.15 -21.45 Q20.1 -21.45 20.1 -21.6 20.1 -21.65 20.5 -22.0 20.05 -22.25 19.65 -22.25 L19.1 -22.2 19.0 -22.15 18.25 -21.8 17.95 -21.6 18.1 -21.6 18.1 -21.55 17.7 -21.45 17.3 -21.25 17.7 -21.2 Q18.55 -21.2 19.1 -21.05 19.25 -21.0 19.7 -20.75 20.1 -20.65 20.5 -20.45 21.05 -20.15 21.5 -19.8 L21.6 -19.7 Q22.05 -19.3 22.45 -18.8 L22.4 -19.05 Q22.3 -19.5 22.25 -19.95 21.9 -20.7 21.35 -21.3 L21.1 -21.55 20.8 -21.3 20.65 -21.35 Q20.6 -21.3 20.6 -21.45 20.6 -21.55 20.85 -21.8 L20.7 -21.9 20.6 -21.8 M21.45 -22.9 L21.05 -22.85 Q20.9 -22.85 20.2 -22.6 L19.55 -22.35 19.45 -22.35 19.25 -22.3 Q19.9 -22.35 20.5 -22.05 L20.55 -22.1 Q21.0 -22.5 21.2 -22.5 L21.2 -22.45 21.25 -22.4 21.15 -22.3 20.75 -21.95 20.9 -21.85 21.05 -21.95 Q21.35 -22.15 21.6 -22.15 L21.7 -22.05 21.25 -21.7 21.2 -21.6 Q21.5 -21.35 21.85 -20.9 L21.95 -20.75 22.2 -20.45 22.2 -20.8 22.2 -21.45 Q22.2 -22.2 22.3 -22.8 L22.3 -23.05 21.45 -22.9 M22.55 -21.8 L22.55 -21.45 Q22.55 -20.35 22.7 -19.3 22.9 -18.2 23.3 -17.65 L23.3 -18.45 23.2 -19.25 23.15 -19.85 Q23.3 -20.45 23.6 -21.25 23.8 -21.8 24.05 -22.3 24.4 -23.0 24.8 -23.65 L24.8 -23.9 Q24.8 -24.05 24.85 -24.2 24.9 -24.5 25.15 -24.95 L25.4 -25.45 Q26.05 -26.45 26.6 -26.75 26.0 -26.05 25.6 -25.4 L25.4 -25.0 25.05 -24.2 24.95 -23.85 25.05 -24.05 25.1 -24.05 25.35 -24.45 25.5 -24.6 25.55 -24.75 29.65 -27.75 29.8 -27.8 29.9 -27.85 29.8 -27.85 28.45 -27.65 28.15 -27.55 27.8 -27.4 Q26.95 -27.1 26.35 -26.7 25.8 -26.4 25.45 -26.1 24.7 -25.55 23.9 -24.65 L23.2 -23.75 23.15 -23.7 Q22.9 -23.35 22.75 -22.8 L22.65 -22.5 22.55 -21.8 M12.55 -25.95 L12.55 -26.0 12.45 -26.0 12.4 -26.0 11.8 -25.95 11.75 -25.9 11.8 -25.9 12.3 -25.45 12.35 -25.35 12.5 -25.15 12.5 -25.3 12.55 -25.35 12.55 -25.95 M12.35 -22.35 Q12.35 -22.95 12.45 -24.15 L12.4 -24.25 12.4 -24.4 12.35 -24.45 12.25 -24.35 Q11.9 -24.15 11.45 -23.65 11.2 -23.35 11.1 -23.15 L11.0 -23.05 11.0 -23.0 10.55 -22.2 10.5 -22.05 10.55 -22.0 10.65 -22.05 11.05 -22.1 11.5 -22.15 12.2 -22.15 12.35 -22.15 12.35 -22.35 M15.95 -18.95 Q15.45 -18.55 15.15 -18.0 14.85 -17.4 14.85 -16.6 14.85 -16.15 15.1 -15.6 15.65 -16.45 16.45 -17.35 17.55 -18.65 18.9 -19.8 L18.55 -19.8 Q16.85 -19.6 15.95 -18.95 M18.35 -20.85 L18.0 -20.9 17.05 -20.9 Q15.25 -20.9 13.65 -20.5 L13.1 -20.35 13.1 -20.3 13.15 -20.05 13.15 -19.85 13.15 -19.7 Q12.95 -17.95 11.3 -16.3 10.85 -15.9 10.0 -15.15 L9.7 -14.9 9.6 -14.85 9.55 -14.85 9.2 -14.8 9.1 -14.8 8.75 -14.85 8.7 -14.85 Q8.55 -14.9 8.45 -14.95 L8.4 -14.85 8.35 -14.85 8.4 -14.95 Q8.2 -15.1 8.05 -15.3 8.15 -14.7 8.55 -14.1 L8.7 -13.95 8.75 -13.85 8.85 -13.75 8.85 -13.7 9.05 -13.5 9.1 -13.5 Q9.4 -13.1 9.45 -13.0 L9.6 -13.15 9.95 -13.5 9.95 -13.55 10.0 -13.6 10.0 -13.65 10.1 -13.85 10.2 -14.0 10.25 -14.05 10.25 -14.1 10.3 -14.15 10.3 -14.2 Q11.15 -15.55 12.3 -16.3 L12.9 -16.3 13.4 -15.65 13.9 -14.9 14.25 -14.35 14.3 -14.25 14.7 -13.85 Q14.95 -13.6 15.25 -13.4 15.65 -13.1 16.15 -12.9 16.5 -12.75 16.9 -12.65 L17.65 -12.55 Q18.05 -12.55 18.5 -12.6 L18.8 -12.65 Q19.1 -13.05 19.45 -13.4 20.35 -14.3 21.2 -14.8 L21.5 -14.95 22.0 -15.15 22.15 -15.7 Q22.3 -16.45 22.3 -16.8 22.3 -18.35 21.0 -19.5 20.65 -19.85 20.25 -20.1 L19.75 -20.3 Q19.2 -20.55 18.3 -20.75 L18.3 -20.75 19.0 -20.65 18.35 -20.85 M17.65 -13.75 L17.3 -13.75 16.5 -13.8 Q15.3 -13.95 14.55 -14.5 L14.5 -14.45 14.4 -14.45 14.45 -14.55 Q14.05 -14.85 13.8 -15.3 L13.55 -15.7 Q13.25 -16.4 13.25 -17.25 13.25 -18.75 14.45 -19.65 15.5 -20.45 17.05 -20.6 17.55 -20.65 18.0 -20.6 18.9 -20.5 19.65 -20.15 20.25 -19.85 20.55 -19.4 20.85 -19.25 21.05 -18.55 21.2 -17.85 21.2 -17.2 L21.2 -16.55 Q21.2 -16.35 21.05 -16.1 20.95 -15.8 20.8 -15.55 20.25 -14.7 19.05 -14.05 L19.0 -14.1 Q19.45 -14.35 19.8 -14.65 L19.65 -14.6 19.4 -14.35 Q18.9 -14.0 18.6 -13.9 L18.55 -13.9 Q18.55 -13.85 18.55 -13.9 18.2 -13.8 17.65 -13.75 M14.25 -19.95 L14.3 -20.0 14.3 -19.95 14.25 -19.95 M13.95 -19.75 Q13.35 -19.05 13.0 -18.2 12.65 -17.4 12.55 -16.65 L12.45 -16.65 12.45 -16.75 Q12.45 -17.4 12.95 -18.5 13.45 -19.55 13.85 -19.9 L13.95 -19.75 M12.15 -19.65 L12.1 -19.6 12.1 -19.65 12.15 -19.65 M12.7 -20.15 L12.55 -20.15 12.55 -20.1 Q12.1 -20.15 11.3 -19.65 L10.0 -18.25 Q11.2 -19.25 12.95 -19.5 L12.95 -19.65 Q12.95 -19.8 12.8 -20.05 L12.7 -20.15 M11.9 -17.2 L12.85 -18.9 12.85 -19.05 12.9 -19.25 12.3 -19.05 11.85 -18.85 Q10.55 -18.3 9.85 -17.55 L9.55 -17.2 Q9.4 -17.0 9.25 -16.8 8.9 -16.1 8.85 -15.2 L8.9 -15.2 8.95 -15.15 9.05 -15.1 9.2 -15.1 Q9.5 -15.1 9.8 -15.35 L9.9 -15.4 9.95 -15.4 Q10.7 -16.0 11.05 -16.35 11.55 -16.8 11.9 -17.2 M13.65 -17.8 L13.6 -17.45 13.6 -17.35 Q13.6 -16.55 14.0 -15.8 L13.75 -16.15 Q13.9 -15.7 14.15 -15.35 14.35 -15.1 14.65 -14.9 L14.85 -15.2 14.65 -15.5 Q14.45 -15.9 14.45 -16.6 14.45 -17.9 15.15 -18.85 16.15 -20.05 18.15 -19.95 L19.0 -19.9 19.05 -19.95 Q18.4 -20.15 17.5 -20.25 15.05 -20.25 14.05 -18.8 13.75 -18.35 13.65 -17.8 M13.0 -16.9 L13.0 -16.9 M12.2 -16.75 L12.2 -16.7 12.15 -16.7 12.45 -17.05 12.2 -16.75 M12.65 -16.0 L12.4 -15.95 12.35 -15.95 12.35 -15.9 11.9 -15.45 11.6 -15.1 11.55 -15.0 11.35 -14.75 11.25 -14.65 11.35 -14.4 11.5 -13.8 11.5 -13.7 11.55 -13.65 11.5 -13.15 11.35 -11.9 11.35 -11.85 11.25 -11.6 11.25 -11.55 11.2 -11.5 11.0 -11.1 Q10.55 -10.3 9.8 -9.2 L9.75 -9.15 9.75 -9.1 9.7 -9.1 7.75 -6.45 7.95 -6.6 8.1 -6.75 8.1 -6.7 Q8.3 -6.95 8.5 -7.05 9.05 -7.35 9.6 -7.0 9.75 -6.9 9.85 -6.75 10.4 -6.25 10.95 -5.15 L10.95 -5.0 10.9 -4.95 10.8 -4.95 Q10.75 -5.45 10.25 -6.15 9.75 -6.9 9.4 -6.9 L8.85 -6.8 8.95 -6.8 Q8.45 -6.5 7.65 -5.85 L6.65 -5.0 6.65 -4.9 6.6 -4.9 6.6 -4.85 6.55 -4.8 6.55 -4.75 6.6 -4.65 6.65 -4.5 6.95 -4.0 7.0 -3.95 7.2 -3.7 7.85 -3.15 Q8.05 -3.05 8.25 -3.05 L9.65 -3.1 9.65 -3.15 Q9.7 -3.3 9.7 -3.9 9.75 -4.45 10.25 -4.45 10.5 -4.45 10.65 -4.2 L10.7 -3.9 10.7 -3.85 10.65 -3.85 10.5 -4.1 10.45 -4.2 10.3 -4.3 10.05 -4.25 Q9.8 -4.15 9.8 -3.75 L9.8 -3.7 9.8 -3.15 Q9.75 -3.0 9.7 -2.95 L8.85 -2.95 8.7 -2.95 8.75 -2.9 8.8 -2.9 8.8 -2.85 8.75 -2.85 Q8.9 -2.5 9.35 -2.2 L9.4 -2.15 Q10.2 -1.7 11.25 -1.7 11.9 -1.7 12.4 -1.85 13.65 -2.8 14.7 -3.65 15.95 -4.75 16.9 -5.7 L16.9 -5.75 16.95 -5.75 17.85 -6.75 18.25 -7.2 18.1 -7.1 18.25 -7.3 18.2 -7.4 Q18.2 -7.5 18.15 -7.65 18.15 -7.85 18.15 -8.45 L18.15 -8.95 Q18.2 -9.3 18.35 -9.35 L18.4 -9.3 18.5 -9.35 18.45 -9.2 18.75 -8.65 18.85 -8.45 18.9 -8.3 19.4 -9.05 19.35 -9.2 Q19.35 -9.5 19.45 -9.85 19.55 -10.15 19.65 -10.2 L19.7 -10.2 19.7 -10.25 19.95 -10.15 20.0 -10.15 20.0 -10.2 Q20.1 -10.3 20.2 -10.55 L20.2 -10.6 20.3 -10.8 20.3 -10.85 Q20.5 -11.2 20.55 -11.4 L20.55 -11.45 20.5 -11.6 20.45 -12.0 20.45 -12.05 20.4 -12.2 20.2 -12.05 20.2 -12.0 19.45 -11.5 19.4 -11.5 19.5 -11.6 19.65 -11.7 19.75 -11.8 19.85 -11.9 19.95 -11.95 20.35 -12.2 20.85 -12.6 Q21.2 -12.7 21.55 -12.6 L21.6 -12.5 21.4 -12.55 Q21.0 -12.55 20.6 -12.3 L20.6 -12.2 20.65 -12.1 20.65 -12.05 20.7 -11.85 20.75 -10.25 20.7 -9.8 20.7 -9.75 20.65 -9.7 20.35 -8.95 20.2 -8.65 19.15 -7.6 18.6 -6.95 18.3 -6.65 18.1 -6.5 18.1 -6.45 18.05 -6.4 18.05 -6.45 17.7 -6.15 17.5 -5.95 17.25 -5.65 17.0 -5.4 16.55 -5.0 16.5 -4.9 16.15 -4.65 15.75 -4.3 14.85 -3.4 14.3 -2.8 13.65 -2.25 13.9 -2.4 15.1 -3.25 15.15 -3.25 15.2 -3.3 15.25 -3.3 15.4 -3.45 16.2 -4.2 16.6 -4.5 Q17.95 -5.6 19.6 -6.45 L19.9 -6.7 19.95 -6.7 20.65 -7.15 20.7 -7.2 Q21.4 -7.75 22.0 -8.55 22.3 -9.0 22.45 -9.35 L22.55 -9.7 22.6 -9.8 22.6 -10.3 22.55 -11.0 22.5 -11.2 Q22.4 -11.75 22.15 -12.4 L21.9 -13.0 Q21.95 -13.1 22.05 -13.1 L22.25 -12.8 22.55 -12.4 22.8 -11.75 Q22.95 -11.15 22.95 -10.45 22.95 -10.15 22.9 -9.85 22.75 -9.1 22.2 -8.4 21.7 -7.75 20.75 -6.95 L19.8 -6.4 18.4 -5.4 17.85 -5.0 17.8 -5.0 17.65 -4.9 Q16.45 -4.05 15.55 -3.35 L15.1 -2.9 14.7 -2.4 14.45 -2.15 14.45 -1.7 Q14.45 -1.45 14.5 -1.25 14.55 -1.1 14.65 -0.95 14.75 -0.8 14.9 -0.65 15.15 -0.15 15.8 0.05 16.15 0.2 16.65 0.25 L17.3 0.3 Q17.6 0.25 17.8 0.15 L17.95 0.0 18.45 -0.7 18.5 -0.75 18.65 -1.0 18.7 -1.05 18.75 -1.15 19.05 -1.55 Q19.4 -2.8 20.75 -4.75 21.25 -5.45 21.85 -6.2 23.05 -7.75 24.25 -8.9 L25.2 -9.75 25.8 -10.2 25.8 -10.5 Q25.75 -11.15 25.5 -12.05 L25.5 -12.1 25.55 -12.1 25.5 -12.25 25.75 -12.25 25.8 -12.2 25.85 -12.1 26.05 -11.9 Q25.75 -12.65 25.2 -13.35 L25.0 -13.65 25.05 -13.6 25.05 -13.75 Q25.2 -13.9 25.8 -13.6 26.4 -13.25 26.9 -12.8 L26.65 -13.55 Q26.45 -13.9 26.2 -14.2 25.65 -14.6 24.6 -14.9 L23.2 -14.95 Q22.45 -14.85 21.35 -14.25 L20.85 -13.95 Q20.3 -13.65 19.65 -13.15 19.0 -12.6 18.15 -11.75 L18.25 -11.9 18.6 -12.4 17.95 -12.35 Q17.5 -12.25 17.2 -12.25 L16.95 -12.25 Q16.85 -12.05 16.65 -11.9 16.2 -11.5 15.55 -11.5 14.85 -11.5 14.3 -11.75 L14.3 -11.8 14.1 -11.95 14.0 -12.05 Q14.55 -11.65 15.3 -11.65 16.25 -11.65 16.65 -12.05 L16.8 -12.25 Q15.7 -12.4 14.7 -13.35 L14.6 -13.45 14.45 -13.45 14.4 -13.4 14.25 -13.35 13.95 -13.25 13.75 -13.2 13.7 -13.15 13.6 -13.15 13.6 -13.1 Q13.5 -13.15 13.5 -13.1 L13.45 -13.05 13.3 -13.05 13.05 -12.95 12.8 -12.9 12.7 -12.9 Q12.55 -12.95 12.45 -13.05 L12.4 -13.1 Q12.35 -13.15 12.35 -13.2 12.35 -13.3 12.4 -13.35 L12.45 -13.45 12.5 -13.45 12.5 -13.25 13.05 -13.9 13.65 -14.6 Q13.35 -15.05 13.1 -15.5 L12.95 -15.9 12.75 -16.0 12.65 -16.0 M12.35 -14.8 L12.45 -14.9 Q12.65 -15.25 12.95 -15.45 12.65 -15.0 12.45 -14.5 L12.45 -14.4 12.3 -13.9 Q12.25 -13.55 12.25 -13.2 12.25 -12.85 12.45 -12.55 L12.65 -12.35 12.65 -12.3 Q12.55 -12.3 12.45 -12.35 L12.4 -12.4 Q12.05 -12.65 12.05 -13.2 L12.05 -13.3 Q12.05 -13.55 12.05 -13.9 12.05 -14.4 12.35 -14.8 M11.9 -15.75 L11.85 -15.75 11.75 -15.6 11.9 -15.75 M12.9 -11.35 L12.8 -11.7 12.8 -11.75 12.85 -11.75 12.95 -11.4 Q13.2 -10.75 13.4 -10.3 L13.45 -10.2 Q14.05 -9.1 14.85 -9.1 15.05 -9.1 15.3 -9.25 L15.35 -9.15 Q15.05 -9.0 15.0 -9.0 14.0 -9.0 13.3 -10.3 L13.3 -10.35 13.2 -10.55 Q13.05 -10.9 12.95 -11.25 L12.9 -11.35 M12.9 -13.45 Q13.1 -13.65 13.4 -13.9 13.7 -14.1 13.9 -14.25 L13.9 -14.3 13.65 -14.6 13.1 -13.8 Q12.75 -13.4 12.5 -13.2 L12.5 -13.15 12.55 -13.1 Q12.6 -13.1 12.7 -13.1 L13.1 -13.2 13.15 -13.2 14.3 -13.7 14.35 -13.7 14.0 -14.1 14.0 -14.15 13.45 -13.75 Q13.1 -13.5 12.9 -13.4 L12.75 -13.25 12.9 -13.45 M15.35 -14.9 L15.55 -14.5 15.65 -14.45 Q16.3 -14.2 17.2 -14.15 L17.4 -14.15 18.05 -14.2 18.25 -14.2 18.65 -14.3 18.7 -14.3 18.9 -14.45 19.1 -14.55 19.25 -14.65 Q19.85 -15.05 20.3 -15.55 L20.75 -16.1 Q20.9 -16.6 20.9 -17.15 L20.9 -17.5 20.8 -18.05 20.75 -18.25 Q20.55 -18.75 20.25 -19.1 L20.05 -19.35 19.95 -19.4 19.7 -19.6 19.25 -19.75 19.05 -19.75 Q17.65 -18.65 16.5 -17.3 15.8 -16.45 15.15 -15.45 L15.35 -14.9 M14.9 -15.1 L14.75 -14.8 15.2 -14.55 15.0 -14.75 Q15.2 -14.6 15.45 -14.5 15.1 -14.85 14.9 -15.1 M16.6 -15.35 Q17.0 -15.9 17.95 -16.85 L19.3 -18.25 Q18.9 -17.7 18.0 -16.75 L16.65 -15.35 16.6 -15.35 M19.2 -19.85 L19.35 -19.8 19.2 -19.9 19.2 -19.85 M22.95 -17.2 L22.9 -17.2 22.75 -17.15 22.75 -16.95 Q22.75 -16.8 22.6 -16.15 22.45 -15.55 22.45 -15.4 L22.35 -15.3 22.3 -15.3 22.3 -15.25 23.2 -15.4 23.4 -15.45 Q24.45 -15.7 25.3 -15.35 L25.35 -15.4 25.3 -15.5 Q25.3 -15.85 25.45 -16.3 L25.55 -16.9 25.5 -17.1 25.5 -17.15 24.95 -17.25 24.3 -17.25 23.25 -17.25 Q23.2 -17.2 23.05 -17.15 L23.05 -17.2 22.95 -17.2 M22.0 -17.15 L22.0 -17.1 21.95 -17.15 22.0 -17.15 M9.55 -17.85 Q10.7 -19.15 11.2 -19.6 L10.4 -19.05 Q9.3 -18.25 8.9 -17.75 8.45 -17.35 8.15 -16.75 8.05 -16.45 8.0 -16.15 L8.0 -15.95 Q8.25 -16.45 9.55 -17.85 M8.6 -15.15 L8.6 -15.15 M8.5 -15.15 L8.55 -15.25 Q8.45 -15.5 8.45 -15.6 8.45 -16.15 8.7 -16.65 8.3 -16.15 8.05 -15.65 L8.15 -15.45 Q8.25 -15.3 8.4 -15.15 L8.5 -15.15 M8.3 -14.85 L8.3 -14.85 M10.5 -16.2 L10.45 -16.25 Q10.45 -16.3 10.45 -16.4 L10.8 -16.95 11.6 -17.95 Q11.45 -17.6 11.05 -17.05 L10.5 -16.2 M11.15 -14.25 L11.1 -14.45 11.05 -14.4 11.15 -14.25 11.0 -14.25 10.95 -14.3 10.95 -14.25 10.8 -14.25 Q10.8 -14.2 10.8 -14.1 L10.7 -13.95 10.75 -13.95 11.35 -13.65 11.3 -13.8 11.15 -14.05 Q11.25 -14.1 11.25 -14.2 L11.15 -14.25 M11.0 -12.0 Q11.2 -12.5 11.35 -13.0 L11.3 -13.1 Q11.3 -13.35 11.4 -13.4 L11.3 -13.45 Q11.15 -13.5 11.0 -13.6 L10.8 -13.65 10.6 -13.75 10.55 -13.75 10.4 -13.65 10.4 -13.6 10.3 -13.55 10.25 -13.45 10.2 -13.4 10.15 -13.3 Q10.15 -13.2 10.15 -12.85 10.15 -12.6 10.25 -12.35 L10.3 -12.25 Q10.35 -12.1 10.45 -12.05 L10.5 -12.0 Q10.55 -11.95 10.65 -11.95 10.65 -11.9 10.45 -11.9 10.25 -11.9 10.1 -12.2 L10.05 -12.35 10.0 -12.55 10.0 -12.65 9.95 -12.85 9.95 -13.0 10.0 -13.1 9.9 -13.05 9.8 -12.9 9.65 -12.65 9.65 -12.55 Q9.65 -12.45 9.55 -12.2 L9.45 -12.0 9.45 -11.95 9.35 -11.85 9.3 -11.75 Q9.3 -11.45 9.5 -10.3 L9.65 -9.6 9.65 -9.55 9.7 -9.6 10.25 -10.5 10.1 -10.45 Q9.9 -10.45 9.85 -10.55 L9.85 -10.65 9.9 -10.6 10.05 -10.6 Q10.2 -10.6 10.4 -10.75 L10.5 -11.0 Q10.2 -11.0 10.05 -11.2 L9.95 -11.3 Q9.95 -11.35 9.95 -11.4 9.95 -11.6 10.0 -11.45 L10.15 -11.2 10.2 -11.15 10.45 -11.2 10.65 -11.25 10.95 -11.95 11.0 -12.0 M10.8 -12.85 L10.95 -12.9 11.15 -12.8 11.2 -12.65 11.1 -12.55 10.8 -12.55 10.8 -12.85 M9.15 -11.45 L9.15 -11.45 M11.55 -10.2 L11.55 -10.2 M10.7 -3.75 L10.85 -3.9 Q10.85 -3.75 10.75 -3.55 L10.7 -3.45 10.55 -3.3 10.15 -3.15 10.2 -3.2 10.4 -3.45 10.7 -3.75 M16.4 -10.55 L15.85 -10.5 15.55 -10.5 15.45 -10.55 Q15.1 -10.6 14.8 -10.7 L14.4 -10.9 Q14.0 -11.2 13.85 -11.45 L13.8 -11.55 13.8 -11.65 Q13.85 -11.55 13.95 -11.55 L14.0 -11.55 Q14.15 -11.25 14.55 -11.05 L14.55 -11.0 Q14.8 -10.85 15.15 -10.8 L15.85 -10.7 16.25 -10.75 16.3 -10.75 16.6 -10.8 16.7 -10.8 16.95 -10.9 17.35 -10.9 17.2 -10.85 16.8 -10.65 16.75 -10.65 16.4 -10.55 M21.9 -13.65 L21.9 -13.65 M23.0 -12.45 L23.0 -12.45 M20.1 -8.95 Q20.35 -9.35 20.45 -9.75 L19.85 -10.1 Q19.7 -9.95 19.6 -9.75 L19.55 -9.5 19.55 -9.35 19.55 -9.05 19.6 -8.95 19.7 -8.8 19.7 -8.75 19.75 -8.65 19.8 -8.6 19.85 -8.65 20.0 -8.85 20.1 -8.95 M19.8 -8.6 L19.8 -8.6 M18.45 -8.95 L18.4 -9.15 18.4 -9.1 18.35 -9.2 Q18.3 -9.15 18.25 -9.0 L18.25 -8.15 18.25 -7.9 18.3 -7.45 Q18.35 -7.25 18.4 -7.15 L18.5 -7.25 18.75 -7.5 19.0 -7.75 19.0 -7.8 18.8 -8.1 Q18.7 -8.25 18.65 -8.4 L18.55 -8.6 18.45 -8.95 M18.6 -7.15 L18.6 -7.15 18.6 -7.15 M19.9 -8.35 L20.15 -8.7 19.9 -8.4 19.9 -8.35 M20.4 -9.1 L20.45 -9.15 20.4 -9.15 20.4 -9.1 M14.35 -12.8 Q14.5 -12.8 14.75 -12.6 L14.8 -12.5 14.75 -12.4 Q14.7 -12.35 14.55 -12.35 14.35 -12.35 14.25 -12.5 L14.2 -12.6 14.25 -12.7 Q14.25 -12.75 14.35 -12.8 M11.7 -10.85 L11.65 -10.6 11.7 -10.75 11.7 -10.85 M14.1 -5.75 Q14.1 -5.9 14.25 -5.9 L14.45 -5.7 Q14.4 -5.65 14.3 -5.65 L14.1 -5.75 M13.0 -6.85 Q12.95 -6.75 12.9 -6.75 12.8 -6.75 12.75 -6.8 12.75 -6.95 12.85 -7.0 12.95 -6.95 13.0 -6.85 M12.75 -5.2 Q12.75 -5.1 12.7 -5.0 L12.6 -5.0 Q12.55 -5.05 12.55 -5.2 12.6 -5.25 12.75 -5.2 M14.6 -2.6 L14.6 -2.55 14.65 -2.6 14.6 -2.6 M26.1 -10.55 L26.15 -10.3 26.2 -10.25 26.15 -10.2 26.15 -10.0 Q25.25 -9.35 23.9 -7.9 L23.35 -7.3 23.2 -7.15 Q22.4 -6.2 21.7 -5.15 L21.55 -5.0 21.55 -4.95 21.5 -4.9 21.4 -4.75 21.25 -4.5 21.75 -5.05 Q22.6 -5.95 23.3 -6.6 23.35 -6.7 23.35 -6.55 23.35 -6.35 22.85 -5.7 L22.5 -5.2 Q22.05 -4.8 22.0 -4.6 L21.55 -4.05 21.3 -3.8 21.0 -3.4 21.4 -3.6 22.3 -3.95 22.4 -4.0 22.75 -3.95 Q23.1 -3.95 23.45 -4.1 L23.7 -4.1 Q24.6 -4.1 26.45 -5.75 L27.3 -6.6 27.6 -6.8 28.65 -8.2 28.7 -9.05 28.6 -9.45 Q28.3 -9.45 28.3 -9.5 L28.3 -9.6 28.55 -9.6 28.55 -9.85 Q28.35 -9.75 28.25 -9.65 L28.25 -10.05 28.3 -10.1 28.45 -10.2 Q28.25 -11.35 28.05 -11.7 L27.95 -11.9 27.9 -11.7 Q27.95 -11.8 27.95 -11.65 L27.95 -11.45 27.75 -11.7 27.8 -11.85 27.9 -12.05 27.85 -12.1 Q27.7 -12.5 27.7 -13.35 L27.7 -14.25 27.75 -14.25 27.8 -14.45 27.75 -14.6 27.4 -14.6 Q27.35 -14.55 27.35 -14.45 27.35 -14.4 27.4 -14.35 L27.4 -14.45 27.35 -14.25 27.3 -14.2 Q27.25 -14.25 27.2 -14.35 L27.2 -14.5 26.65 -14.65 26.3 -14.7 26.25 -14.7 26.45 -14.5 Q26.85 -14.0 27.1 -13.35 L27.15 -13.25 27.3 -12.9 27.4 -12.8 Q27.55 -12.4 27.55 -12.25 L27.55 -12.15 27.5 -12.2 Q27.5 -12.1 27.45 -12.1 L27.25 -12.25 27.1 -12.2 27.1 -12.45 27.0 -12.5 27.0 -12.55 26.9 -12.6 Q26.65 -12.7 26.0 -13.05 L25.6 -13.3 25.35 -13.4 25.6 -13.2 Q25.9 -12.9 26.15 -12.45 26.3 -12.15 26.45 -11.55 L26.6 -11.1 26.55 -11.05 26.45 -11.15 26.35 -11.15 26.3 -11.3 25.9 -11.75 25.8 -11.85 25.95 -11.45 Q26.05 -10.95 26.1 -10.6 L26.1 -10.55 M31.1 -24.95 L31.35 -24.7 31.35 -26.9 31.25 -27.75 31.25 -27.85 31.15 -27.85 Q29.3 -27.05 27.9 -26.15 26.75 -25.4 25.95 -24.65 25.3 -23.9 24.85 -23.1 23.8 -21.25 23.5 -19.05 L23.55 -18.6 23.55 -18.45 23.55 -17.7 24.55 -17.75 25.95 -17.75 26.0 -17.7 26.05 -17.7 26.65 -17.6 Q27.25 -17.45 27.85 -17.15 L27.95 -17.1 28.2 -17.0 28.25 -16.95 28.45 -16.85 28.65 -16.75 28.55 -16.9 28.25 -17.5 28.2 -17.5 27.6 -18.6 27.05 -19.35 Q27.7 -18.9 28.05 -18.7 L28.1 -18.6 28.15 -18.55 28.15 -18.5 28.2 -18.5 Q28.55 -18.0 28.8 -17.4 L29.0 -17.0 29.0 -16.9 28.9 -17.6 29.0 -17.2 Q29.3 -15.7 29.6 -15.15 29.7 -14.9 29.85 -14.85 L29.85 -14.6 29.9 -14.8 29.9 -14.95 29.95 -15.6 Q29.95 -17.8 29.35 -19.65 L29.15 -20.25 Q28.55 -21.85 27.55 -22.5 28.55 -22.5 29.15 -21.0 29.3 -20.6 29.5 -19.9 L29.5 -19.85 29.5 -19.8 Q29.6 -19.4 29.65 -19.25 L29.7 -19.25 29.7 -19.2 Q29.8 -18.9 30.0 -17.55 30.2 -16.15 30.2 -15.55 L30.2 -15.35 30.55 -16.05 30.6 -16.15 30.75 -16.75 30.95 -17.2 31.1 -17.65 31.2 -17.9 31.25 -18.8 Q31.25 -20.15 30.75 -21.75 L30.7 -22.05 Q30.3 -23.65 29.6 -24.25 L29.5 -24.3 Q29.2 -24.65 28.8 -24.85 L28.9 -24.85 Q29.25 -24.8 29.55 -24.65 L29.7 -24.65 Q30.15 -24.65 31.4 -23.75 L32.15 -23.15 31.9 -23.75 31.65 -24.15 Q31.15 -24.45 30.55 -24.7 L30.1 -24.85 Q30.75 -24.8 31.35 -24.45 L31.25 -24.6 31.2 -24.65 30.65 -25.2 Q30.0 -25.7 28.95 -25.75 L28.3 -25.8 28.3 -25.85 28.4 -25.95 28.55 -26.05 Q30.1 -25.8 30.95 -25.1 L31.05 -25.05 31.1 -24.95 M31.25 -28.0 L31.25 -28.0 M30.9 -24.0 L30.15 -24.2 Q30.7 -23.55 31.05 -22.4 L31.05 -22.5 Q31.3 -23.2 31.4 -23.6 L30.9 -24.0 M25.85 -17.1 L25.85 -16.9 Q25.85 -16.5 25.8 -15.95 L25.7 -15.15 27.25 -14.9 27.4 -15.7 Q27.5 -16.25 27.5 -16.65 L26.8 -16.95 26.45 -17.0 25.95 -17.1 25.85 -17.1 M28.2 -14.0 L28.1 -14.45 28.1 -14.4 28.05 -14.5 27.9 -14.5 27.9 -14.45 27.95 -14.45 27.95 -14.4 27.9 -14.4 27.95 -14.1 28.0 -13.5 28.0 -13.4 28.0 -13.3 Q28.0 -12.8 28.05 -12.45 L28.15 -12.7 28.15 -12.45 28.1 -12.25 Q28.15 -11.95 28.25 -11.7 L28.4 -11.4 28.6 -10.95 28.6 -10.9 28.8 -10.55 29.2 -10.85 29.1 -11.05 28.65 -12.25 Q28.55 -12.55 28.45 -12.9 L28.4 -13.05 28.3 -13.35 28.25 -13.75 28.2 -14.0 M27.65 -16.5 Q27.65 -15.95 27.6 -15.55 L27.45 -14.85 28.0 -14.75 27.65 -16.5 M28.95 -10.0 L28.95 -9.9 28.9 -9.7 Q29.05 -9.7 29.15 -9.75 L29.35 -9.85 29.35 -9.9 29.3 -10.3 28.95 -10.1 28.95 -10.0 M29.0 -8.9 L29.15 -9.2 Q29.3 -9.5 29.35 -9.7 L29.3 -9.65 Q29.1 -9.5 28.9 -9.45 L28.9 -9.35 28.85 -9.0 28.85 -8.9 28.85 -8.8 Q28.9 -8.8 28.85 -8.75 L28.85 -8.45 29.0 -8.65 28.95 -8.7 29.0 -8.9 M26.1 -9.45 L26.1 -9.4 25.95 -9.3 26.1 -9.45 M24.45 -3.9 Q25.3 -4.2 25.9 -4.55 25.2 -4.2 24.45 -3.9" fill="#101010" fill-rule="evenodd" stroke="none"/>
    <path d="M12.45 -26.0 L12.55 -25.95 12.55 -25.35 12.5 -25.3 12.4 -25.3 12.35 -25.35 12.3 -25.45 11.8 -25.9 11.8 -25.95 12.4 -26.0 12.45 -26.0 M10.55 -22.2 L11.0 -23.0 11.0 -23.05 11.1 -23.15 Q11.2 -23.35 11.45 -23.65 11.9 -24.15 12.25 -24.35 L12.35 -24.45 12.4 -24.4 12.4 -24.25 12.45 -24.15 Q12.35 -22.95 12.35 -22.35 L12.2 -22.15 11.5 -22.15 11.05 -22.1 10.65 -22.05 10.55 -22.0 Q10.55 -22.1 10.55 -22.2 M12.5 -11.1 Q12.65 -11.2 12.85 -11.3 L12.9 -11.35 12.95 -11.25 Q13.05 -10.9 13.2 -10.55 L13.3 -10.35 Q12.9 -10.5 12.65 -10.9 L12.5 -11.1 M12.95 -11.4 L13.2 -11.55 13.4 -11.55 Q13.65 -11.55 13.85 -11.45 14.0 -11.2 14.4 -10.9 L14.8 -10.7 Q14.75 -10.55 14.65 -10.45 14.4 -10.2 14.0 -10.2 13.65 -10.2 13.4 -10.3 13.2 -10.75 12.95 -11.4 M20.2 -10.55 Q20.05 -11.3 20.05 -11.65 L19.95 -11.6 Q19.0 -10.8 18.2 -10.8 17.8 -10.8 17.5 -11.05 L17.65 -11.2 18.15 -11.75 Q19.0 -12.6 19.65 -13.15 20.3 -13.65 20.85 -13.95 L21.35 -14.25 Q22.45 -14.85 23.2 -14.95 L24.6 -14.9 Q25.65 -14.6 26.2 -14.2 26.45 -13.9 26.65 -13.55 L26.9 -12.8 Q26.4 -13.25 25.8 -13.6 25.2 -13.9 25.05 -13.75 L25.0 -13.7 25.0 -13.65 25.0 -13.6 25.2 -13.35 Q25.75 -12.65 26.05 -11.9 L25.85 -12.1 25.8 -12.2 25.75 -12.25 25.5 -12.25 25.55 -12.1 25.5 -12.1 25.5 -12.05 Q25.75 -11.15 25.8 -10.5 L25.8 -10.2 25.2 -9.75 24.25 -8.9 Q23.05 -7.75 21.85 -6.2 21.25 -5.45 20.75 -4.75 19.4 -2.8 19.05 -1.55 L18.75 -1.15 18.7 -1.05 18.65 -1.0 18.5 -0.75 18.45 -0.7 17.95 0.0 17.8 0.15 Q17.6 0.25 17.3 0.3 L16.65 0.25 Q16.15 0.2 15.8 0.05 L16.3 -0.65 Q17.45 -2.15 17.95 -2.9 19.2 -4.75 19.8 -6.4 L20.75 -6.95 Q21.7 -7.75 22.2 -8.4 22.75 -9.1 22.9 -9.85 22.95 -10.15 22.95 -10.45 22.95 -11.15 22.8 -11.75 L22.55 -12.4 22.25 -12.8 22.05 -13.1 Q21.95 -13.1 21.9 -13.0 L22.15 -12.4 Q22.4 -11.75 22.5 -11.2 L22.55 -11.0 22.6 -10.3 22.6 -9.8 22.55 -9.7 22.45 -9.35 Q22.3 -9.0 22.0 -8.55 21.4 -7.75 20.7 -7.2 L20.65 -7.15 19.95 -6.7 19.9 -6.7 Q20.3 -7.9 20.35 -8.95 L20.65 -9.7 20.7 -9.75 20.7 -9.8 20.75 -10.25 20.7 -11.85 20.65 -12.05 20.65 -12.1 20.6 -12.2 20.6 -12.3 Q21.0 -12.55 21.4 -12.55 L21.6 -12.5 21.55 -12.6 Q21.2 -12.7 20.85 -12.6 L20.35 -12.2 19.95 -11.95 19.85 -11.9 19.75 -11.8 19.6 -11.7 19.5 -11.6 19.4 -11.5 19.45 -11.5 20.2 -12.0 20.2 -12.05 20.4 -12.2 20.45 -12.05 20.45 -12.0 20.5 -11.6 20.55 -11.45 20.55 -11.4 Q20.5 -11.2 20.3 -10.85 L20.3 -10.8 20.2 -10.6 20.2 -10.55 M21.9 -13.65 L21.9 -13.65 M23.0 -12.45 L23.0 -12.45 M28.9 -24.85 Q28.95 -25.15 29.4 -25.15 29.9 -25.2 30.65 -24.9 L31.2 -24.65 31.25 -24.6 31.35 -24.45 Q30.75 -24.8 30.1 -24.85 L30.55 -24.7 Q31.15 -24.45 31.65 -24.15 L31.9 -23.75 32.15 -23.15 31.4 -23.75 Q30.15 -24.65 29.7 -24.65 L29.55 -24.65 Q29.25 -24.8 28.9 -24.85 M30.55 -16.05 L30.2 -15.35 30.2 -15.55 Q30.2 -16.15 30.0 -17.55 29.8 -18.9 29.7 -19.2 L29.7 -19.25 29.65 -19.25 Q29.6 -19.4 29.5 -19.8 L29.5 -19.85 29.65 -19.6 Q29.9 -19.15 30.25 -17.5 L30.45 -16.65 30.45 -16.6 Q30.45 -16.4 30.5 -16.4 L30.55 -16.05 M29.15 -20.25 L29.35 -19.65 Q29.95 -17.8 29.95 -15.6 L29.9 -14.95 Q29.75 -15.0 29.6 -15.15 29.3 -15.7 29.0 -17.2 L28.9 -17.6 29.0 -16.9 29.0 -17.0 28.8 -17.4 Q28.55 -18.0 28.2 -18.5 L28.15 -18.5 28.15 -18.55 28.1 -18.6 28.05 -18.7 Q27.7 -18.9 27.05 -19.35 L27.6 -18.6 28.2 -17.5 28.25 -17.5 28.55 -16.9 28.45 -16.85 28.25 -16.95 28.2 -17.0 27.95 -17.1 27.85 -17.15 Q27.25 -17.45 26.65 -17.6 L26.05 -17.7 26.0 -17.75 26.0 -17.7 25.95 -17.75 24.55 -17.75 23.55 -17.7 23.55 -18.45 23.75 -18.65 Q24.15 -19.05 24.65 -19.4 25.45 -19.95 26.0 -20.0 L25.8 -20.2 Q25.8 -20.35 26.6 -21.05 27.45 -21.85 27.95 -21.55 L28.9 -20.55 29.1 -20.3 29.15 -20.25" fill="#f0aa88" fill-rule="evenodd" stroke="none"/>
  </g>
</svg>
