<?xml version="1.0" encoding="UTF-8" standalone="no"?>
<svg xmlns:ffdec="https://www.free-decompiler.com/flash" xmlns:xlink="http://www.w3.org/1999/xlink" ffdec:objectType="shape" height="21.2px" width="18.5px" xmlns="http://www.w3.org/2000/svg">
  <g transform="matrix(1.0, 0.0, 0.0, 1.0, -7.3, 23.5)">
    <path d="M12.15 -3.55 L12.05 -3.6 Q11.55 -4.1 10.85 -4.5 L10.0 -5.0 9.85 -5.5 9.7 -5.8 Q9.3 -6.2 8.4 -7.35 7.3 -8.95 7.3 -9.05 7.35 -9.65 7.8 -10.5 L8.35 -12.0 Q8.7 -13.05 8.9 -13.75 L8.95 -14.05 Q9.0 -14.75 8.9 -15.45 8.4 -16.75 8.3 -17.25 L8.2 -17.3 8.2 -17.85 Q8.25 -18.35 8.45 -18.9 8.6 -19.3 8.8 -19.45 L8.85 -19.55 9.9 -19.6 Q11.4 -19.75 12.9 -20.6 L13.05 -20.75 13.75 -21.2 13.95 -21.45 15.2 -22.45 Q15.5 -22.65 16.9 -23.5 L16.95 -23.5 16.95 -23.45 Q18.6 -23.35 20.9 -22.0 L21.55 -21.55 Q22.25 -21.2 23.8 -19.5 25.85 -17.4 25.8 -16.7 25.8 -16.5 25.75 -16.5 25.7 -16.35 25.45 -16.1 L25.35 -16.0 25.3 -16.0 Q24.8 -15.55 24.15 -15.55 L24.1 -15.5 Q23.95 -15.3 23.8 -15.1 L23.7 -14.9 Q23.65 -14.55 23.35 -14.1 23.2 -13.8 22.95 -13.6 L23.2 -13.1 Q23.4 -12.65 23.45 -12.3 L23.5 -12.3 23.5 -12.15 23.45 -12.15 23.45 -12.1 23.4 -12.05 23.45 -12.05 23.45 -11.85 Q23.35 -10.85 23.4 -10.4 23.4 -9.85 23.4 -8.8 23.65 -7.65 23.6 -7.3 23.6 -7.0 22.7 -6.3 L22.4 -6.05 22.05 -6.05 21.9 -6.2 Q21.8 -6.25 21.75 -6.25 L21.75 -6.3 21.65 -6.3 21.65 -6.35 21.1 -6.5 20.6 -6.45 Q19.8 -6.2 18.5 -5.1 L17.55 -4.05 Q16.0 -2.3 15.85 -2.3 15.75 -2.3 15.75 -2.35 L15.8 -2.4 Q15.35 -2.6 15.05 -2.9 L14.65 -3.4 14.5 -3.65 14.5 -3.7 14.3 -4.1 14.25 -4.25 14.2 -4.2 Q14.05 -4.0 13.65 -3.65 13.2 -3.35 12.8 -3.2 L12.5 -3.15 12.4 -3.3 Q12.95 -3.45 13.35 -3.7 L13.4 -3.7 13.4 -3.75 13.45 -3.75 13.55 -3.9 13.7 -4.0 13.75 -4.1 13.85 -4.15 14.15 -4.55 14.05 -4.85 Q14.0 -5.1 13.95 -5.35 L14.0 -5.3 13.9 -5.95 13.85 -6.25 13.7 -7.05 13.6 -7.5 Q13.1 -7.35 12.2 -7.35 L11.95 -7.35 11.45 -7.35 11.0 -7.45 Q10.8 -7.5 10.65 -7.55 10.45 -7.6 10.3 -7.7 10.05 -7.85 9.65 -8.1 L9.7 -8.0 Q9.5 -8.3 9.45 -7.65 9.45 -7.25 9.75 -6.3 L10.05 -5.7 10.0 -5.7 10.15 -5.45 10.4 -5.15 10.4 -5.1 Q10.6 -4.95 10.8 -4.85 11.0 -4.65 11.25 -4.5 L11.45 -4.4 Q12.05 -4.1 12.9 -3.85 L12.85 -3.8 13.1 -3.75 Q13.05 -3.65 12.85 -3.65 L12.7 -3.6 Q12.6 -3.5 12.4 -3.5 L12.15 -3.55 M22.95 -8.75 L22.85 -9.45 22.95 -10.45 Q23.0 -11.45 22.85 -12.4 L22.65 -12.9 22.5 -13.3 22.45 -13.45 22.15 -14.05 22.1 -14.05 20.6 -16.45 20.15 -17.1 Q19.2 -18.35 17.85 -19.25 17.9 -19.3 18.0 -19.3 L18.05 -19.3 Q20.15 -17.8 21.3 -16.0 21.65 -15.45 22.15 -14.65 L22.35 -14.25 Q22.2 -14.75 22.0 -15.5 21.6 -17.3 21.65 -17.95 L21.75 -17.7 22.05 -17.05 22.15 -16.6 22.25 -15.9 Q22.3 -15.5 22.4 -15.25 L22.65 -13.9 23.55 -15.3 23.6 -15.45 23.65 -15.7 Q23.75 -15.95 23.95 -16.15 24.05 -16.25 24.65 -16.35 24.8 -16.4 24.95 -16.45 25.35 -16.55 25.35 -16.8 25.35 -16.95 25.3 -17.15 25.0 -17.4 24.35 -18.2 24.2 -18.5 23.9 -18.8 23.2 -19.55 22.65 -20.05 21.9 -20.7 20.1 -21.75 L19.45 -22.1 17.95 -22.55 17.4 -22.65 17.2 -22.65 Q16.5 -22.5 15.9 -22.2 L15.6 -22.0 13.95 -20.65 13.8 -20.55 Q13.2 -20.2 12.6 -19.9 12.05 -19.6 11.55 -19.4 L11.45 -19.35 11.25 -19.3 11.2 -19.25 9.9 -19.0 9.8 -19.0 9.35 -18.95 9.25 -19.0 9.2 -18.95 9.05 -18.65 9.0 -18.2 Q9.0 -18.05 9.05 -17.65 L9.05 -17.45 9.1 -17.15 9.2 -16.65 9.3 -16.05 9.3 -16.0 9.3 -15.8 9.4 -15.25 Q9.45 -14.65 9.4 -13.95 L9.4 -13.65 Q9.25 -12.55 8.7 -11.1 L8.6 -10.95 8.55 -10.75 8.5 -10.65 8.3 -10.2 7.9 -9.2 7.9 -9.3 Q7.85 -9.15 7.85 -9.05 L8.0 -8.75 Q8.25 -8.4 8.9 -7.65 L9.35 -7.1 9.35 -7.25 Q9.25 -8.05 9.3 -8.5 L9.25 -8.55 9.3 -8.6 Q9.3 -8.7 9.35 -8.7 L9.45 -8.65 9.45 -8.6 9.75 -8.35 10.1 -8.15 Q10.75 -7.75 11.7 -7.7 12.3 -7.65 13.05 -7.85 L13.55 -7.95 13.5 -8.55 Q13.5 -8.9 13.5 -9.25 L13.55 -10.5 13.5 -11.45 Q13.05 -12.55 12.1 -13.95 L11.55 -14.75 10.6 -16.25 Q10.0 -17.25 9.65 -17.85 L9.6 -17.75 9.6 -17.7 9.45 -17.5 Q9.45 -17.1 9.7 -15.75 L9.65 -15.75 Q9.4 -16.4 9.3 -16.85 9.25 -17.2 9.25 -17.45 9.2 -17.5 9.2 -17.55 L9.45 -18.1 9.45 -18.25 9.5 -18.2 Q9.6 -18.35 9.7 -18.3 L9.75 -18.3 9.75 -18.25 9.8 -18.2 9.8 -18.15 9.9 -18.0 10.2 -17.45 10.75 -16.7 11.8 -15.0 13.1 -13.1 13.95 -11.8 Q14.1 -11.75 14.05 -11.65 L13.85 -8.55 Q13.9 -8.0 14.0 -7.35 L14.05 -7.0 14.05 -6.95 14.15 -6.4 Q14.25 -5.85 14.4 -5.45 14.6 -4.85 14.85 -4.3 L14.95 -4.1 15.05 -3.85 15.2 -3.65 15.45 -3.35 15.6 -3.15 15.8 -3.0 15.8 -2.95 16.0 -2.9 Q16.25 -3.35 16.9 -4.15 L17.25 -4.55 17.4 -4.75 17.95 -5.4 18.15 -5.65 18.65 -6.15 Q20.45 -8.15 22.0 -7.75 L21.95 -7.65 Q20.25 -7.3 19.15 -6.25 L18.9 -6.0 18.95 -6.0 Q19.1 -6.15 19.25 -6.25 L20.6 -6.75 Q21.65 -7.0 21.9 -6.5 L21.95 -6.5 22.05 -6.4 22.35 -6.6 22.35 -6.65 22.4 -6.65 22.75 -7.0 22.8 -7.0 22.8 -7.05 Q23.0 -7.25 23.1 -7.55 L22.95 -8.75 M8.55 -18.05 L8.55 -18.05 M9.45 -19.4 L9.45 -19.35 9.5 -19.4 9.45 -19.4 M22.35 -20.6 L22.25 -20.75 21.95 -20.95 22.35 -20.6 M23.05 -12.9 L23.1 -12.7 23.15 -12.6 23.15 -12.65 23.05 -12.9 M23.3 -7.6 L23.3 -7.6" fill="#000000" fill-rule="evenodd" stroke="none"/>
    <path d="M9.3 -16.85 Q9.4 -16.4 9.65 -15.75 L9.7 -15.75 Q9.45 -17.1 9.45 -17.5 L9.6 -17.7 9.6 -17.75 9.65 -17.85 Q10.0 -17.25 10.6 -16.25 L11.55 -14.75 12.1 -13.95 Q13.05 -12.55 13.5 -11.45 L13.55 -10.5 13.5 -9.25 Q13.5 -8.9 13.5 -8.55 L13.55 -7.95 13.05 -7.85 Q12.3 -7.65 11.7 -7.7 10.75 -7.75 10.1 -8.15 L9.75 -8.35 9.45 -8.6 9.45 -8.65 9.35 -8.7 Q9.3 -8.7 9.3 -8.6 L9.25 -8.55 9.3 -8.5 Q9.25 -8.05 9.35 -7.25 L9.35 -7.1 8.9 -7.65 Q8.25 -8.4 8.0 -8.75 L7.85 -9.05 Q7.85 -9.15 7.9 -9.3 L7.9 -9.2 8.3 -10.2 8.5 -10.65 8.55 -10.75 8.6 -10.95 8.7 -11.1 Q9.25 -12.55 9.4 -13.65 L9.4 -13.95 Q9.45 -14.65 9.4 -15.25 9.45 -15.55 9.4 -16.1 L9.35 -16.35 9.3 -16.85" fill="#382c30" fill-rule="evenodd" stroke="none"/>
    <path d="M13.7 -4.0 L13.55 -3.9 13.45 -3.75 13.4 -3.75 13.5 -3.85 13.7 -4.0" fill="#cccccc" fill-rule="evenodd" stroke="none"/>
    <path d="M11.95 -7.35 L12.2 -7.35 Q13.1 -7.35 13.6 -7.5 L13.7 -7.05 13.85 -6.25 13.9 -5.95 14.0 -5.3 13.95 -5.35 Q14.0 -5.1 14.05 -4.85 L14.05 -4.6 13.9 -4.3 13.95 -4.35 Q13.25 -5.7 12.5 -6.75 L12.05 -7.35 11.95 -7.35 M11.55 -19.4 Q12.05 -19.6 12.6 -19.9 13.2 -20.2 13.8 -20.55 L13.95 -20.65 15.6 -22.0 15.9 -22.2 Q16.5 -22.5 17.2 -22.65 L17.4 -22.65 17.95 -22.55 19.45 -22.1 20.1 -21.75 Q21.9 -20.7 22.65 -20.05 23.2 -19.55 23.9 -18.8 24.2 -18.5 24.35 -18.2 25.0 -17.4 25.3 -17.15 25.35 -16.95 25.35 -16.8 25.35 -16.55 24.95 -16.45 24.8 -16.4 24.65 -16.35 24.05 -16.25 23.95 -16.15 23.75 -15.95 23.65 -15.7 L23.6 -15.45 23.55 -15.3 22.65 -13.9 22.4 -15.25 Q22.3 -15.5 22.25 -15.9 L22.15 -16.6 22.05 -17.05 21.75 -17.7 21.65 -17.95 Q21.6 -17.3 22.0 -15.5 22.2 -14.75 22.35 -14.25 L22.15 -14.65 Q21.65 -15.45 21.3 -16.0 20.15 -17.8 18.05 -19.3 L18.0 -19.3 Q17.9 -19.3 17.85 -19.25 19.2 -18.35 20.15 -17.1 L20.6 -16.45 22.1 -14.05 22.15 -14.05 22.45 -13.45 22.5 -13.3 22.65 -12.9 22.85 -12.4 Q23.0 -11.45 22.95 -10.45 L22.85 -9.45 22.95 -8.75 21.1 -8.85 Q19.6 -8.8 18.25 -8.35 L18.95 -11.0 Q19.05 -12.3 18.75 -12.85 18.55 -13.35 17.5 -15.1 17.25 -14.45 17.1 -13.6 L17.05 -12.45 17.15 -12.5 Q17.3 -12.6 17.4 -12.3 17.5 -12.0 17.45 -11.35 17.35 -10.2 16.95 -10.2 16.85 -10.25 16.8 -10.25 16.55 -8.85 16.25 -8.45 16.1 -8.8 16.15 -9.3 L16.35 -10.15 16.35 -10.65 16.3 -10.85 Q15.55 -12.5 14.75 -14.1 L14.2 -14.7 12.85 -16.35 Q11.95 -17.05 11.15 -17.75 10.15 -18.55 9.8 -19.0 L9.9 -19.0 11.2 -19.25 11.25 -19.3 11.45 -19.35 12.25 -18.75 11.55 -19.4 M22.35 -6.6 L22.05 -6.4 21.95 -6.5 22.35 -6.6 M19.25 -6.25 Q19.1 -6.15 18.95 -6.0 L18.9 -6.0 19.15 -6.25 19.2 -6.2 19.25 -6.25 M17.25 -4.55 L16.9 -4.15 16.95 -4.25 17.2 -4.55 17.25 -4.55 M9.4 -15.25 L9.3 -15.8 9.3 -16.0 9.4 -16.1 Q9.45 -15.55 9.4 -15.25" fill="#464e59" fill-rule="evenodd" stroke="none"/>
    <path d="M12.4 -3.3 L12.15 -3.55 12.4 -3.5 Q12.6 -3.5 12.7 -3.6 L12.85 -3.65 Q13.05 -3.65 13.1 -3.75 L12.85 -3.8 12.9 -3.85 Q12.05 -4.1 11.45 -4.4 L11.25 -4.5 Q11.0 -4.65 10.8 -4.85 10.6 -4.95 10.4 -5.1 L10.4 -5.15 10.15 -5.45 10.0 -5.7 10.05 -5.7 9.75 -6.3 Q9.45 -7.25 9.45 -7.65 9.5 -8.3 9.7 -8.0 L9.65 -8.1 Q10.05 -7.85 10.3 -7.7 10.45 -7.6 10.65 -7.55 10.8 -7.5 11.0 -7.45 L11.45 -7.35 11.95 -7.35 12.05 -7.35 12.5 -6.75 Q13.25 -5.7 13.95 -4.35 L13.9 -4.3 14.05 -4.6 14.05 -4.85 14.15 -4.55 13.85 -4.15 13.75 -4.1 13.7 -4.0 13.5 -3.85 13.4 -3.75 13.4 -3.7 13.35 -3.7 Q12.95 -3.45 12.4 -3.3 M22.95 -8.75 L23.1 -7.55 Q23.0 -7.25 22.8 -7.05 L22.8 -7.0 22.75 -7.0 22.4 -6.65 22.35 -6.65 22.35 -6.6 21.95 -6.5 21.9 -6.5 Q21.65 -7.0 20.6 -6.75 L19.25 -6.25 19.2 -6.2 19.15 -6.25 Q20.25 -7.3 21.95 -7.65 L22.0 -7.75 Q20.45 -8.15 18.65 -6.15 L18.15 -5.65 17.95 -5.4 17.4 -4.75 17.25 -4.55 17.2 -4.55 16.95 -4.25 16.9 -4.15 Q16.25 -3.35 16.0 -2.9 L15.8 -2.95 15.8 -3.0 15.6 -3.15 15.45 -3.35 15.2 -3.65 15.05 -3.85 14.95 -4.1 14.85 -4.3 Q14.6 -4.85 14.4 -5.45 14.25 -5.85 14.15 -6.4 L14.05 -6.95 14.05 -7.0 14.0 -7.35 Q13.9 -8.0 13.85 -8.55 L14.05 -11.65 Q14.1 -11.75 13.95 -11.8 L13.1 -13.1 11.8 -15.0 10.75 -16.7 10.2 -17.45 9.9 -18.0 9.8 -18.15 9.8 -18.2 9.75 -18.25 9.75 -18.3 9.7 -18.3 Q9.6 -18.35 9.5 -18.2 L9.45 -18.25 9.45 -18.1 9.2 -17.55 Q9.2 -17.5 9.25 -17.45 9.25 -17.2 9.3 -16.85 L9.35 -16.35 9.4 -16.1 9.3 -16.0 9.3 -16.05 9.2 -16.65 9.1 -17.15 9.05 -17.45 9.05 -17.65 Q9.0 -18.05 9.0 -18.2 L9.05 -18.65 9.2 -18.95 9.25 -19.0 9.35 -18.95 9.8 -19.0 Q10.15 -18.55 11.15 -17.75 11.95 -17.05 12.85 -16.35 L14.2 -14.7 14.75 -14.1 Q15.55 -12.5 16.3 -10.85 L16.35 -10.65 16.35 -10.15 16.15 -9.3 Q16.1 -8.8 16.25 -8.45 16.55 -8.85 16.8 -10.25 16.85 -10.25 16.95 -10.2 17.35 -10.2 17.45 -11.35 17.5 -12.0 17.4 -12.3 17.3 -12.6 17.15 -12.5 L17.05 -12.45 17.1 -13.6 Q17.25 -14.45 17.5 -15.1 18.55 -13.35 18.75 -12.85 19.05 -12.3 18.95 -11.0 L18.25 -8.35 Q19.6 -8.8 21.1 -8.85 L22.95 -8.75 M11.45 -19.35 L11.55 -19.4 12.25 -18.75 11.45 -19.35" fill="#3a4749" fill-rule="evenodd" stroke="none"/>
  </g>
</svg>
