<?xml version="1.0" encoding="UTF-8" standalone="no"?>
<svg xmlns:ffdec="https://www.free-decompiler.com/flash" xmlns:xlink="http://www.w3.org/1999/xlink" ffdec:objectType="shape" height="30.1px" width="30.25px" xmlns="http://www.w3.org/2000/svg">
  <g transform="matrix(1.0, 0.0, 0.0, 1.0, -3.2, 23.85)">
    <path d="M10.0 -14.95 L11.8 -15.25 11.85 -15.3 Q12.25 -15.55 12.4 -15.85 L12.6 -16.1 Q13.0 -16.55 13.4 -16.7 L13.3 -16.95 13.3 -17.0 13.15 -17.45 12.9 -18.05 12.9 -18.15 Q12.9 -18.5 12.6 -19.1 L12.5 -19.2 Q12.2 -19.75 11.75 -19.85 L11.4 -19.85 10.65 -19.95 Q10.65 -19.85 10.55 -19.8 L10.3 -19.7 10.75 -19.55 11.45 -19.6 Q10.55 -19.15 10.05 -18.35 L9.9 -18.1 9.75 -17.7 9.6 -16.55 Q9.5 -15.45 9.65 -15.2 L9.6 -15.15 Q9.65 -15.0 9.75 -14.9 L10.0 -14.95 M13.15 -19.4 L13.4 -19.05 Q13.6 -18.7 13.95 -17.25 L13.95 -17.15 14.0 -16.95 14.05 -16.95 14.3 -16.85 14.3 -16.95 Q14.45 -16.75 14.85 -16.75 L14.9 -16.75 14.95 -16.65 14.9 -16.6 15.15 -16.6 Q15.4 -16.75 15.75 -16.9 16.1 -17.05 16.45 -17.1 16.6 -17.9 17.35 -19.15 18.35 -20.9 18.95 -20.95 L19.05 -20.85 Q18.2 -19.85 17.6 -18.7 L18.35 -19.6 Q19.75 -21.75 22.15 -20.8 23.05 -20.4 23.75 -19.75 24.4 -19.1 24.4 -18.65 L24.4 -18.45 24.35 -18.45 Q24.3 -18.4 23.75 -18.45 L22.5 -18.6 Q23.2 -17.3 23.35 -16.8 23.7 -16.7 24.15 -16.3 L24.5 -15.9 24.85 -16.4 Q25.6 -17.35 26.8 -18.0 25.55 -16.75 25.0 -15.85 L24.8 -15.5 24.85 -15.5 Q25.4 -16.05 26.1 -16.5 L26.95 -17.05 Q28.4 -17.05 29.55 -18.45 30.5 -19.65 30.5 -20.5 L30.5 -20.6 30.7 -21.45 30.5 -22.8 30.35 -23.85 30.45 -23.75 Q31.7 -22.9 32.55 -21.5 33.35 -19.65 33.35 -18.25 33.35 -18.0 32.4 -16.05 L32.35 -15.95 32.3 -15.9 32.2 -15.75 31.65 -14.65 31.25 -13.9 30.65 -13.2 Q29.7 -11.95 29.55 -11.1 L29.45 -10.95 29.55 -10.95 29.55 -10.85 Q29.55 -10.6 29.55 -10.55 29.6 -10.4 29.75 -10.3 L29.95 -10.05 Q30.2 -9.1 31.8 -7.8 L32.6 -7.1 Q33.0 -6.6 33.15 -6.2 33.45 -5.45 33.45 -4.25 33.45 -3.35 32.9 -2.05 L32.6 -1.3 31.75 0.25 Q31.6 -0.4 31.3 -1.8 L31.1 -2.6 30.9 -2.7 Q30.85 -2.75 30.85 -3.0 L30.7 -3.25 Q30.6 -2.4 30.35 -1.4 29.9 0.45 29.05 2.05 27.7 4.55 25.85 5.6 25.05 5.8 24.1 6.1 L23.85 6.15 23.55 6.25 22.85 6.25 22.55 6.15 22.5 5.6 22.45 5.6 22.45 5.55 Q22.4 5.5 22.4 5.3 L22.4 4.5 22.45 3.65 22.5 3.0 22.7 0.7 Q22.85 -1.45 22.65 -3.0 22.45 -2.7 22.2 -2.05 22.1 -1.65 21.95 -1.0 21.3 0.9 20.95 1.95 L20.85 1.85 Q20.5 1.55 19.95 0.65 L19.85 0.5 Q19.5 -0.2 19.25 -0.8 L19.25 -0.85 Q18.85 -1.65 18.8 -2.1 L18.75 -2.0 18.45 -2.6 18.35 -2.9 18.3 -3.1 18.35 -3.1 Q18.3 -3.55 18.3 -4.0 18.0 -3.75 17.2 -3.5 L16.85 -3.4 16.85 -3.3 Q15.55 -2.7 14.8 -2.7 L12.3 -2.8 12.2 -2.8 Q12.05 -2.75 11.95 -2.7 L11.7 -2.85 Q11.5 -2.75 11.4 -2.4 L11.3 -2.0 Q11.0 -1.05 11.0 -0.55 11.4 2.0 11.55 2.6 L11.5 2.9 11.5 2.95 11.2 3.0 Q10.5 3.0 10.0 1.8 L9.7 1.0 9.5 0.5 9.35 0.9 Q9.25 1.6 9.2 2.55 L9.15 3.2 9.2 3.85 Q9.3 4.5 9.4 5.0 L9.4 5.7 9.35 5.8 Q9.3 5.85 9.1 5.85 8.6 5.85 8.15 5.7 L8.2 5.8 8.15 5.9 7.85 5.6 Q6.6 5.0 5.8 3.05 L5.65 2.8 5.55 2.4 Q5.0 0.7 4.85 -1.05 4.85 -1.8 4.85 -2.1 L4.8 -2.6 4.8 -2.9 Q4.4 -2.4 4.25 -2.1 3.9 -1.6 3.75 -1.1 L3.65 -1.15 Q3.35 -1.15 3.2 -1.45 L3.2 -1.55 Q3.2 -3.3 3.75 -5.2 4.05 -5.8 4.45 -6.4 5.45 -7.85 6.55 -8.8 L6.15 -8.8 Q4.75 -8.8 4.3 -9.5 4.2 -9.7 4.15 -10.15 4.1 -10.4 4.1 -10.6 4.1 -12.75 5.9 -13.9 6.35 -14.2 6.85 -14.4 6.0 -15.45 5.9 -15.65 5.8 -15.9 5.8 -16.3 L5.8 -17.4 Q5.8 -19.35 6.2 -20.25 6.55 -21.0 8.35 -23.25 8.35 -22.75 8.35 -21.9 8.3 -21.2 8.35 -20.6 8.4 -19.45 8.75 -19.35 8.9 -18.8 9.1 -18.2 L9.25 -17.9 Q9.4 -18.2 9.55 -18.5 9.75 -18.85 10.0 -19.1 9.65 -18.9 9.55 -18.85 L9.5 -18.85 Q9.45 -18.85 9.45 -19.05 9.45 -19.5 9.85 -19.9 10.3 -20.35 10.9 -20.45 11.65 -20.6 12.25 -20.25 11.75 -21.2 11.0 -21.6 12.25 -21.55 12.85 -20.35 13.0 -20.0 13.15 -19.4 M13.55 -16.25 L13.5 -16.4 12.65 -15.55 12.9 -15.45 Q12.9 -15.3 12.95 -15.25 L13.0 -15.2 13.7 -15.2 13.85 -15.3 13.95 -15.6 Q14.1 -16.05 14.25 -16.3 13.85 -16.4 13.55 -16.25 M14.55 -15.2 Q14.6 -15.4 14.7 -15.7 L14.85 -16.1 14.65 -16.2 14.55 -16.2 14.45 -16.0 14.55 -16.05 14.35 -15.85 14.25 -15.55 14.25 -15.2 14.3 -15.15 14.4 -15.1 14.35 -15.0 14.25 -14.9 14.3 -14.85 14.45 -14.8 14.5 -14.8 14.5 -14.9 14.55 -15.2 M14.0 -14.55 L13.95 -14.6 13.8 -14.65 13.7 -14.65 13.45 -14.75 11.3 -14.7 11.1 -14.7 11.05 -14.75 10.25 -14.55 9.5 -14.35 9.3 -14.3 9.25 -14.25 Q7.2 -13.7 6.2 -13.25 L5.85 -13.0 Q5.05 -12.35 4.75 -11.55 L4.65 -11.2 Q4.55 -10.55 4.7 -9.85 L4.7 -9.75 4.75 -9.7 4.75 -9.65 4.8 -9.6 Q4.85 -9.55 5.15 -9.55 L6.15 -9.55 7.3 -9.5 7.5 -9.5 8.8 -9.4 9.35 -9.3 9.85 -9.25 10.7 -9.05 Q11.25 -8.95 11.7 -8.65 L11.8 -8.6 12.05 -8.35 12.45 -8.0 12.7 -7.75 13.55 -7.75 13.65 -7.65 14.5 -7.45 14.65 -7.45 15.3 -7.25 15.6 -7.15 15.85 -7.15 Q17.35 -7.15 18.3 -7.85 L18.1 -7.4 Q17.7 -7.1 17.35 -6.95 L17.15 -6.85 17.1 -6.85 16.85 -6.75 16.3 -6.75 Q15.35 -6.8 14.6 -7.1 L14.3 -7.2 14.2 -7.25 13.3 -7.35 13.05 -7.35 12.75 -7.3 12.7 -7.3 12.35 -7.35 11.9 -7.3 11.6 -7.25 11.55 -7.1 10.75 -4.4 Q10.75 -4.25 10.85 -4.1 11.05 -3.95 11.55 -3.75 11.65 -3.7 11.8 -3.65 L11.85 -3.6 Q11.9 -3.65 11.9 -3.6 L11.95 -3.6 12.0 -3.55 Q12.45 -3.4 13.05 -3.4 L13.55 -3.45 13.6 -3.45 14.5 -3.5 15.5 -3.65 15.7 -3.7 15.75 -3.7 16.55 -3.9 Q16.9 -4.0 18.25 -4.55 L18.3 -4.6 Q18.4 -6.45 19.25 -8.3 L19.35 -8.55 19.2 -8.4 19.75 -9.5 19.8 -9.45 20.15 -10.0 20.2 -10.1 20.45 -10.45 20.5 -10.5 20.6 -10.7 Q20.6 -11.05 20.6 -11.75 20.6 -12.3 20.35 -13.05 L20.75 -13.0 20.75 -12.95 20.8 -12.75 Q20.9 -12.25 20.9 -11.65 L20.9 -11.2 21.0 -11.35 21.15 -11.55 21.2 -11.6 21.9 -12.6 Q21.65 -12.85 21.3 -13.3 L21.2 -13.4 20.5 -14.35 Q20.05 -14.45 19.4 -14.55 L18.6 -14.55 17.6 -14.6 16.85 -14.6 Q16.4 -14.25 16.15 -13.75 L16.1 -13.5 16.15 -13.5 16.05 -13.35 Q17.0 -13.3 18.15 -12.55 L18.25 -12.45 18.7 -12.2 18.75 -12.15 18.95 -12.0 19.0 -11.95 19.2 -11.8 19.3 -11.7 Q19.65 -11.35 19.95 -10.95 L19.9 -10.8 19.95 -10.8 Q20.0 -10.75 19.95 -10.75 L20.0 -10.65 20.05 -10.6 20.0 -10.5 19.9 -10.6 19.65 -10.8 19.65 -10.75 Q19.65 -10.7 19.55 -10.6 L19.55 -10.55 19.4 -10.45 19.25 -10.4 19.25 -10.35 19.05 -10.25 19.0 -10.25 Q18.7 -10.15 18.5 -10.15 L18.2 -10.15 18.0 -10.2 17.85 -10.25 17.8 -10.25 17.55 -10.2 17.2 -10.45 16.55 -11.25 16.45 -11.35 Q16.35 -11.45 16.2 -11.6 L16.05 -11.8 16.05 -11.85 15.95 -11.9 16.0 -11.55 16.0 -11.35 16.1 -11.0 16.1 -10.95 16.25 -10.55 Q16.7 -9.4 18.2 -8.85 L18.4 -8.8 18.05 -8.7 Q17.45 -8.8 16.95 -9.1 16.6 -9.35 16.35 -9.65 L16.2 -9.85 16.15 -9.9 15.9 -10.4 15.7 -11.35 15.7 -11.45 15.75 -11.75 15.75 -12.65 Q15.7 -12.7 15.6 -12.75 L15.4 -13.2 15.5 -13.2 15.55 -13.3 15.5 -13.3 15.6 -13.35 15.7 -13.55 Q15.8 -13.8 16.05 -14.1 16.25 -14.45 16.5 -14.6 L16.05 -14.65 Q16.0 -14.55 15.8 -14.55 L15.7 -14.55 15.6 -14.6 15.6 -14.65 15.5 -14.75 15.5 -15.0 Q15.5 -15.2 15.55 -15.4 15.65 -15.7 15.8 -16.05 L16.05 -16.45 16.0 -16.45 15.75 -16.3 15.7 -16.25 15.6 -16.25 15.5 -16.2 Q15.35 -16.15 15.25 -16.05 L15.25 -16.0 Q15.1 -15.9 15.05 -15.7 14.9 -15.1 14.8 -15.05 L14.8 -14.2 14.7 -14.2 14.8 -14.05 14.8 -13.9 14.85 -13.9 14.85 -13.85 Q15.15 -13.25 15.15 -12.8 L15.1 -12.7 Q14.8 -12.9 14.45 -13.65 14.2 -14.25 14.0 -14.55 M11.8 -9.95 L11.9 -10.0 12.05 -10.0 Q12.7 -10.1 13.3 -9.75 L13.7 -9.5 14.25 -8.95 14.1 -8.8 13.55 -9.1 Q12.85 -9.4 11.65 -9.9 L11.8 -9.95 M13.9 -11.4 Q13.55 -11.7 13.05 -11.7 L12.75 -11.7 12.7 -11.75 12.4 -11.5 Q12.05 -11.2 11.8 -11.1 L11.75 -11.2 11.85 -11.3 12.2 -11.7 Q12.55 -12.0 12.85 -12.05 L12.95 -11.95 Q13.4 -12.1 13.75 -12.0 14.25 -11.9 14.55 -11.25 L14.65 -11.0 Q14.8 -10.55 14.8 -9.95 L14.8 -9.6 Q14.8 -9.05 14.75 -8.7 L14.5 -8.7 14.5 -9.3 Q14.5 -9.9 14.45 -10.3 L14.3 -10.8 Q14.15 -11.2 13.9 -11.4 M20.25 -20.3 Q19.8 -20.1 19.35 -19.75 18.25 -18.7 17.55 -17.75 17.1 -17.15 16.8 -16.55 L16.75 -16.45 16.7 -16.45 Q16.45 -15.9 16.3 -15.45 L16.3 -15.35 16.2 -15.15 16.75 -15.15 18.5 -15.15 18.6 -15.1 18.9 -15.15 20.5 -15.05 20.55 -15.0 20.6 -15.0 20.8 -14.8 20.85 -14.8 20.85 -14.75 20.9 -14.7 21.4 -14.25 21.6 -14.0 21.75 -13.8 21.85 -13.7 22.45 -13.05 22.55 -13.05 Q22.65 -13.2 22.75 -13.45 22.85 -13.65 23.0 -13.8 L23.0 -14.3 Q23.0 -14.85 22.85 -15.5 22.75 -16.6 22.3 -17.75 L22.25 -17.9 21.95 -18.45 21.7 -18.8 21.55 -19.0 21.55 -19.05 21.35 -19.3 Q21.4 -19.3 21.45 -19.35 L21.75 -19.4 22.45 -19.15 Q23.05 -18.95 23.5 -18.9 L23.75 -18.9 23.6 -19.05 Q21.8 -20.55 20.35 -20.35 L20.25 -20.3 M15.1 -16.2 L15.1 -16.2 M14.5 -14.8 L14.35 -14.8 Q14.45 -14.7 14.5 -14.65 L14.5 -14.8 M16.15 -15.05 L16.15 -15.05 M22.65 -17.15 L22.7 -17.05 22.65 -17.2 22.65 -17.15 M7.9 -21.4 L7.95 -21.65 7.7 -21.3 7.5 -21.05 7.4 -20.85 Q7.1 -20.4 6.95 -20.0 L6.8 -19.65 7.05 -19.85 7.15 -19.9 Q7.35 -20.05 7.55 -20.1 L7.9 -20.15 7.85 -20.55 7.9 -20.8 7.9 -21.4 M7.95 -20.05 L7.95 -20.1 7.8 -20.0 Q7.9 -19.95 7.95 -19.9 L7.95 -20.05 M8.05 -19.45 L8.0 -19.7 Q7.9 -19.9 7.65 -19.9 L7.3 -19.65 7.1 -19.55 6.95 -19.45 6.9 -19.4 Q6.65 -19.0 6.6 -18.8 L6.55 -18.1 6.6 -17.85 Q6.6 -17.2 6.7 -16.6 L7.15 -17.2 Q7.65 -17.7 8.05 -17.95 8.25 -18.05 8.45 -18.1 L8.3 -18.75 8.05 -19.45 M7.5 -17.1 L7.3 -16.85 7.1 -16.5 6.9 -16.2 Q6.9 -16.0 6.9 -15.8 L7.0 -15.5 7.35 -14.7 7.4 -14.6 8.15 -14.85 8.55 -15.25 8.75 -15.4 8.95 -15.6 8.9 -15.75 Q8.9 -15.9 9.0 -16.2 L9.0 -16.55 Q8.75 -17.0 8.6 -17.6 L8.25 -17.5 Q7.9 -17.4 7.6 -17.25 L7.5 -17.1 M9.1 -15.25 L8.85 -15.0 9.3 -15.1 Q9.15 -15.15 9.1 -15.25 M10.9 -8.45 Q9.95 -8.75 8.05 -8.8 L7.75 -8.8 7.6 -8.7 7.4 -8.6 Q6.35 -7.8 5.65 -6.85 5.2 -6.3 4.9 -5.75 4.55 -5.15 4.25 -4.45 L4.25 -4.4 Q4.05 -3.25 3.9 -2.6 L4.6 -3.45 4.9 -3.75 5.15 -3.95 Q5.25 -4.45 5.35 -4.85 5.95 -6.65 7.1 -7.35 6.0 -5.25 5.75 -4.4 L5.65 -4.05 Q5.55 -3.25 5.55 -2.1 5.6 -0.95 5.75 0.2 L5.85 1.3 5.85 1.35 6.05 1.85 Q6.4 3.3 7.0 3.5 7.65 4.35 8.6 5.0 L8.55 4.7 Q8.5 4.15 8.5 3.95 8.5 3.7 8.55 3.25 L8.5 2.95 Q8.5 2.6 8.65 1.9 L8.9 0.85 9.25 -0.2 9.2 -0.35 Q8.85 -1.45 8.85 -2.8 L8.85 -3.45 Q8.85 -3.75 8.95 -3.95 9.0 -4.1 9.15 -4.2 L9.25 -3.6 Q9.55 -1.8 9.8 -0.8 10.1 0.45 10.55 1.5 L10.6 1.3 10.5 0.4 10.5 0.25 10.45 -0.2 10.45 -0.95 Q10.55 -2.15 11.05 -3.0 10.95 -3.15 10.6 -3.45 10.1 -3.85 10.1 -4.25 10.1 -4.75 10.5 -5.9 10.6 -6.35 10.75 -6.7 11.1 -7.5 11.5 -7.7 L11.45 -8.15 Q11.25 -8.3 10.9 -8.45 M27.1 -10.3 L26.8 -10.65 Q25.8 -11.7 25.4 -12.8 24.55 -14.1 24.2 -14.4 23.45 -15.25 23.45 -14.0 L23.45 -13.7 23.0 -12.8 Q22.65 -12.3 22.4 -12.3 L22.35 -12.3 21.5 -11.1 Q20.75 -9.85 20.2 -8.7 19.45 -7.05 19.25 -5.55 19.15 -5.0 19.15 -4.45 L19.15 -4.3 Q19.15 -3.55 19.3 -2.75 L19.3 -2.6 Q19.8 -1.15 20.75 0.25 L20.85 0.4 20.85 0.25 Q21.3 -0.6 21.55 -2.0 21.95 -4.0 22.45 -4.85 L23.4 -6.4 24.05 -7.5 24.2 -7.8 24.35 -8.05 24.9 -9.0 24.5 -7.9 24.4 -7.7 24.2 -7.15 23.95 -6.6 23.85 -6.3 23.25 -4.8 22.95 -3.95 Q23.15 -3.25 23.25 -2.15 L23.25 0.5 23.25 0.9 23.2 2.85 23.2 3.2 23.15 3.55 23.15 3.75 23.1 5.3 23.1 5.35 23.1 5.4 23.15 5.45 23.25 5.55 23.6 5.1 Q24.4 4.25 24.95 3.45 25.95 1.95 26.45 0.25 26.75 -0.35 27.0 -0.95 L27.25 -1.65 Q27.05 -0.15 26.15 1.9 25.05 4.55 23.75 5.6 L24.4 5.5 Q26.95 4.95 28.7 1.2 L28.75 1.05 29.35 -0.35 29.35 -0.45 29.6 -1.15 29.7 -1.55 Q29.95 -2.35 30.1 -3.2 30.25 -3.95 30.3 -4.6 L30.35 -4.6 30.35 -5.1 Q30.35 -5.35 30.25 -6.1 L30.1 -7.3 Q30.5 -6.65 31.0 -5.5 31.6 -4.25 32.05 -2.9 L32.3 -2.15 32.55 -2.95 Q32.85 -3.85 32.85 -4.25 32.85 -5.55 31.35 -7.4 L30.8 -8.0 29.4 -9.5 29.3 -9.6 Q29.0 -9.95 28.9 -10.15 L28.8 -10.2 Q28.35 -10.25 27.95 -10.4 27.65 -10.5 27.4 -10.65 L27.35 -10.7 27.45 -10.55 27.95 -9.95 27.25 -10.55 Q28.15 -9.45 29.3 -8.85 L29.1 -9.0 29.05 -9.05 28.95 -9.1 Q29.2 -8.95 29.5 -8.8 L29.35 -8.8 29.3 -8.85 29.25 -8.85 29.15 -8.9 29.1 -8.9 29.0 -8.95 28.85 -9.05 28.8 -9.1 28.75 -9.1 28.7 -9.15 Q27.85 -9.65 27.1 -10.3 M27.25 -10.55 L27.25 -10.55 M17.45 -11.95 Q17.3 -11.75 17.1 -11.75 L16.95 -11.75 Q16.75 -11.8 16.7 -12.0 16.65 -12.1 16.65 -12.2 L16.65 -12.25 Q16.65 -12.65 16.95 -12.65 16.5 -12.85 16.35 -12.75 L16.25 -12.75 16.3 -12.65 Q16.25 -12.55 16.25 -12.45 L16.45 -12.0 16.5 -11.9 16.55 -11.75 16.8 -11.4 Q17.15 -10.85 17.55 -10.6 L17.8 -10.35 18.25 -10.35 18.45 -10.4 Q18.85 -10.45 19.2 -10.6 19.45 -10.75 19.55 -10.9 L19.35 -11.1 18.2 -11.8 17.55 -12.3 17.55 -12.2 Q17.55 -12.1 17.45 -11.95 M19.6 -9.05 L19.55 -9.1 19.55 -9.0 19.6 -9.05 M32.3 -17.85 L32.3 -19.15 Q32.15 -19.95 31.75 -21.3 L31.5 -21.95 31.35 -22.25 31.4 -21.9 Q31.4 -21.15 31.25 -20.55 31.05 -19.75 30.7 -19.05 L30.75 -18.85 30.95 -18.65 32.05 -17.55 32.2 -17.35 32.25 -17.4 32.3 -17.85 M24.15 -15.05 Q24.2 -15.25 24.3 -15.45 L23.8 -15.9 23.45 -16.3 23.45 -15.35 Q23.65 -15.15 23.8 -15.1 L24.15 -15.05 M24.45 -14.45 L24.4 -14.45 24.5 -14.4 24.45 -14.5 24.45 -14.45 M27.85 -16.45 L27.8 -16.4 27.6 -16.3 Q26.85 -15.85 25.85 -15.35 L25.3 -14.9 24.85 -14.5 25.1 -14.0 25.35 -13.65 25.55 -13.4 25.6 -13.4 Q25.85 -13.1 26.15 -12.6 L26.4 -12.45 Q27.2 -11.7 28.5 -11.15 L29.05 -11.8 Q28.35 -11.95 27.9 -12.45 27.5 -12.9 27.5 -13.25 27.5 -14.55 27.75 -15.5 27.85 -15.85 28.0 -16.2 L28.15 -16.6 27.85 -16.45 M26.3 -14.1 L26.25 -14.1 Q26.4 -14.35 26.65 -14.65 27.0 -15.05 27.15 -15.05 L26.9 -14.65 26.7 -14.45 Q26.45 -14.15 26.3 -14.1 M29.65 -17.8 L28.85 -17.15 28.55 -16.2 28.4 -15.85 Q28.15 -15.15 28.05 -14.45 28.0 -14.05 27.95 -13.7 28.05 -13.4 28.2 -13.15 28.45 -12.75 28.8 -12.55 29.05 -12.45 29.35 -12.45 L29.5 -12.45 29.6 -12.6 29.75 -12.85 30.65 -14.45 31.9 -16.75 Q31.5 -17.0 31.05 -17.6 30.85 -17.9 30.65 -18.2 L30.4 -18.65 30.2 -18.4 29.9 -18.05 29.65 -17.8 M27.05 -14.55 Q27.05 -14.45 26.95 -14.15 L26.8 -13.75 26.75 -13.75 Q26.7 -13.85 26.7 -13.95 26.7 -14.1 26.75 -14.25 26.85 -14.5 27.05 -14.55 M29.25 -12.2 L29.35 -12.15 29.35 -12.2 29.25 -12.2 M10.3 1.85 L10.35 1.85 10.25 1.7 10.3 1.85" fill="#000000" fill-rule="evenodd" stroke="none"/>
    <path d="M11.75 -19.85 Q12.2 -19.75 12.5 -19.2 L12.6 -19.1 Q12.9 -18.5 12.9 -18.15 L12.9 -18.05 13.15 -17.45 13.3 -17.0 13.3 -16.95 13.4 -16.7 Q13.0 -16.55 12.6 -16.1 L12.4 -15.85 Q12.25 -15.55 11.85 -15.3 L11.8 -15.25 10.0 -14.95 10.7 -15.65 Q11.6 -16.6 11.9 -17.3 L11.8 -18.85 11.75 -19.85 M13.55 -16.25 L13.25 -16.1 Q12.9 -15.8 12.9 -15.55 L12.9 -15.45 12.65 -15.55 13.5 -16.4 13.55 -16.25 M16.75 -15.15 Q17.6 -15.5 18.25 -15.9 20.75 -17.35 20.75 -19.4 20.75 -19.55 20.5 -19.85 20.25 -20.15 20.25 -20.25 L20.25 -20.3 20.35 -20.35 Q21.8 -20.55 23.6 -19.05 L23.5 -18.9 Q23.05 -18.95 22.45 -19.15 L21.75 -19.4 21.45 -19.35 Q21.4 -19.3 21.35 -19.3 L21.55 -19.05 21.55 -19.0 21.7 -18.8 21.95 -18.45 22.25 -17.9 22.3 -17.75 Q22.75 -16.6 22.85 -15.5 23.0 -14.85 23.0 -14.3 L23.0 -13.8 Q22.85 -13.65 22.75 -13.45 22.65 -13.2 22.55 -13.05 L22.45 -13.05 21.85 -13.7 21.75 -13.8 21.9 -13.75 Q21.9 -13.9 21.75 -14.25 21.7 -14.3 21.45 -14.15 L21.4 -14.25 20.9 -14.7 20.85 -14.75 20.85 -14.8 20.8 -14.8 20.6 -15.0 20.55 -15.0 20.5 -15.05 18.9 -15.15 18.6 -15.1 18.5 -15.15 16.75 -15.15 M16.15 -15.05 L16.15 -15.05 M22.65 -17.15 L22.65 -17.2 22.7 -17.05 22.65 -17.15 M5.75 0.2 L6.1 0.9 Q6.55 0.05 7.1 -1.5 7.7 -3.3 7.95 -3.85 8.3 -4.5 9.7 -6.6 L10.9 -8.45 Q11.25 -8.3 11.45 -8.15 L11.5 -7.7 Q11.1 -7.5 10.75 -6.7 10.6 -6.35 10.5 -5.9 10.1 -4.75 10.1 -4.25 10.1 -3.85 10.6 -3.45 10.95 -3.15 11.05 -3.0 10.55 -2.15 10.45 -0.95 L10.45 -0.2 10.5 0.25 10.5 0.4 10.6 1.3 10.55 1.5 Q10.1 0.45 9.8 -0.8 9.55 -1.8 9.25 -3.6 9.4 -3.75 9.6 -4.55 9.85 -5.45 9.85 -5.7 9.85 -6.05 9.7 -6.1 9.55 -6.1 9.3 -5.9 8.75 -5.35 8.75 -4.7 8.75 -4.5 8.85 -4.2 8.9 -4.05 8.95 -3.95 8.85 -3.75 8.85 -3.45 L8.85 -2.8 Q8.85 -1.45 9.2 -0.35 L9.25 -0.2 8.9 0.85 8.65 1.9 Q8.5 2.6 8.5 2.95 L8.55 3.25 Q8.5 3.7 8.5 3.95 8.5 4.15 8.55 4.7 L8.6 5.0 Q7.65 4.35 7.0 3.5 6.4 3.3 6.05 1.85 L5.85 1.35 5.85 1.3 5.75 0.2 M19.25 -5.55 Q20.85 -5.85 22.15 -6.7 22.3 -6.75 23.4 -8.15 24.3 -9.05 24.45 -8.15 L24.35 -8.05 24.2 -7.8 24.05 -7.5 23.4 -6.4 22.45 -4.85 Q21.95 -4.0 21.55 -2.0 21.3 -0.6 20.85 0.25 L20.75 0.25 Q19.8 -1.15 19.3 -2.6 L19.3 -2.75 Q19.15 -3.55 19.15 -4.3 L19.15 -4.45 Q19.15 -5.0 19.25 -5.55 M24.4 -7.7 L24.45 -7.75 Q24.35 -7.3 23.85 -6.3 L23.95 -6.6 24.2 -7.15 24.4 -7.7 M23.25 0.5 Q24.05 -0.9 24.55 -1.9 26.7 -6.2 26.7 -9.65 26.7 -10.05 27.05 -10.4 L27.1 -10.3 Q27.85 -9.65 28.7 -9.15 L28.75 -9.1 28.8 -9.1 28.85 -9.05 29.0 -8.95 29.1 -8.9 29.15 -8.9 29.25 -8.85 29.3 -8.85 29.35 -8.8 29.5 -8.8 Q29.2 -8.95 28.95 -9.1 L29.05 -9.05 29.1 -9.0 29.3 -8.85 Q28.15 -9.45 27.25 -10.55 L27.95 -9.95 27.45 -10.55 27.4 -10.65 Q27.65 -10.5 27.95 -10.4 28.35 -10.25 28.8 -10.2 L28.9 -10.15 Q29.0 -9.95 29.3 -9.6 L29.4 -9.5 30.8 -8.0 31.35 -7.4 Q32.85 -5.55 32.85 -4.25 32.85 -3.85 32.55 -2.95 L32.3 -2.15 32.05 -2.9 Q31.6 -4.25 31.0 -5.5 30.5 -6.65 30.1 -7.3 L30.25 -6.1 Q30.35 -5.35 30.35 -5.1 L30.35 -4.6 30.3 -4.6 Q30.05 -3.65 29.6 -1.55 L29.35 -0.45 29.35 -0.35 28.75 1.05 28.7 1.2 Q26.95 4.95 24.4 5.5 L23.75 5.6 Q25.05 4.55 26.15 1.9 27.05 -0.15 27.25 -1.65 L27.0 -0.95 Q26.75 -0.35 26.45 0.25 25.95 1.95 24.95 3.45 24.4 4.25 23.6 5.1 L23.25 5.55 23.15 5.45 23.1 5.35 23.1 5.3 23.15 3.75 23.15 3.55 23.2 3.2 23.2 2.85 23.25 0.9 23.25 0.5 M24.45 -14.45 L24.45 -14.5 24.5 -14.4 24.4 -14.45 24.45 -14.45 M10.3 1.85 L10.25 1.7 10.35 1.85 10.3 1.85" fill="#c8c0a6" fill-rule="evenodd" stroke="none"/>
    <path d="M14.45 -14.8 L14.3 -14.85 14.25 -14.9 14.35 -15.0 14.35 -14.95 14.4 -14.85 14.45 -14.8 M15.1 -16.2 L15.1 -16.2 M14.5 -14.8 L14.5 -14.65 Q14.45 -14.7 14.35 -14.8 L14.5 -14.8" fill="#bfc278" fill-rule="evenodd" stroke="none"/>
    <path d="M14.4 -15.1 L14.45 -15.15 14.55 -15.2 14.5 -14.9 14.5 -14.8 14.45 -14.8 14.4 -14.85 14.35 -14.95 14.35 -15.0 14.4 -15.1 M19.55 -10.55 L19.55 -10.6 Q19.65 -10.7 19.65 -10.75 L19.65 -10.8 19.9 -10.6 19.8 -10.65 Q19.65 -10.65 19.55 -10.55 M15.55 -16.15 L15.55 -16.15" fill="#7c8455" fill-rule="evenodd" stroke="none"/>
    <path d="M14.8 -14.05 L14.7 -14.2 14.8 -14.2 14.8 -14.05 M15.5 -16.2 L15.6 -16.25 15.7 -16.25 15.75 -16.3 16.0 -16.45 16.05 -16.45 15.8 -16.05 15.75 -16.15 15.55 -16.15 15.45 -16.1 15.5 -16.2 M15.7 -13.55 L15.6 -13.35 15.5 -13.3 15.55 -13.3 15.5 -13.2 15.4 -13.2 15.2 -13.55 15.7 -13.55 M13.8 -14.15 L13.75 -14.15 13.8 -14.2 13.8 -14.15 M15.55 -16.15 L15.55 -16.15" fill="#9e9b54" fill-rule="evenodd" stroke="none"/>
    <path d="M15.25 -16.0 L15.25 -16.05 Q15.35 -16.15 15.5 -16.2 L15.45 -16.1 Q15.35 -16.1 15.25 -16.0 M19.2 -8.4 L19.35 -8.55 19.25 -8.3 19.2 -8.4 M19.6 -9.05 L19.55 -9.0 19.55 -9.1 19.6 -9.05" fill="#96a251" fill-rule="evenodd" stroke="none"/>
    <path d="M7.7 -21.3 L7.95 -21.5 7.9 -21.4 7.9 -20.8 7.85 -20.55 7.9 -20.15 7.55 -20.1 7.5 -20.25 7.45 -20.5 7.45 -20.8 7.5 -21.0 7.5 -21.05 7.7 -21.3 M7.8 -20.0 L7.95 -20.1 7.95 -20.05 7.85 -20.0 7.8 -20.0 M8.05 -17.95 L7.95 -18.35 Q7.85 -18.95 7.85 -19.15 7.85 -19.35 8.05 -19.55 L8.05 -19.45 8.3 -18.75 8.45 -18.1 Q8.25 -18.05 8.05 -17.95 M8.25 -17.5 L8.6 -17.6 Q8.75 -17.0 9.0 -16.55 L9.0 -16.2 Q8.9 -15.9 8.9 -15.75 L8.95 -15.6 8.75 -15.4 8.55 -15.25 Q8.35 -15.55 8.25 -15.9 8.05 -16.35 8.05 -16.8 8.05 -17.25 8.25 -17.5 M9.1 -15.25 Q9.15 -15.15 9.3 -15.1 L8.85 -15.0 9.1 -15.25 M31.25 -20.55 Q31.4 -21.15 31.4 -21.9 L31.35 -22.25 31.5 -21.95 31.75 -21.3 Q32.15 -19.95 32.3 -19.15 L32.3 -17.85 32.05 -17.55 30.95 -18.65 30.95 -18.7 31.15 -19.4 Q31.25 -19.9 31.25 -20.3 L31.25 -20.55 M27.5 -15.3 Q27.65 -15.95 28.0 -16.2 27.85 -15.85 27.75 -15.5 27.5 -14.55 27.5 -13.25 27.5 -12.9 27.9 -12.45 28.35 -11.95 29.05 -11.8 L28.5 -11.15 Q27.2 -11.7 26.4 -12.45 27.1 -13.0 27.15 -13.45 L27.4 -15.05 27.5 -15.3 M28.05 -14.45 Q28.35 -14.75 29.1 -15.3 30.65 -16.5 30.55 -18.2 L30.65 -18.2 Q30.85 -17.9 31.05 -17.6 31.5 -17.0 31.9 -16.75 L30.65 -14.45 29.75 -12.85 29.5 -12.6 29.6 -12.6 29.5 -12.45 29.35 -12.45 Q29.05 -12.45 28.8 -12.55 28.45 -12.75 28.2 -13.15 28.05 -13.4 27.95 -13.7 28.0 -14.05 28.05 -14.45" fill="#655e56" fill-rule="evenodd" stroke="none"/>
    <path d="M7.9 -21.4 L7.95 -21.5 7.7 -21.3 7.95 -21.65 7.9 -21.4 M7.5 -21.05 L7.5 -21.0 7.45 -20.8 7.4 -20.85 7.5 -21.05 M6.95 -20.0 L7.15 -19.9 7.05 -19.85 6.8 -19.65 6.95 -20.0 M7.8 -20.0 L7.85 -20.0 7.95 -20.05 7.95 -19.9 Q7.9 -19.95 7.8 -20.0 M7.3 -19.65 L7.65 -19.9 Q7.9 -19.9 8.0 -19.7 L8.05 -19.45 8.05 -19.55 Q7.85 -19.35 7.85 -19.15 7.85 -18.95 7.95 -18.35 L8.05 -17.95 Q7.65 -17.7 7.15 -17.2 L6.7 -16.6 Q6.6 -17.2 6.6 -17.85 L6.7 -17.65 Q6.85 -17.75 7.1 -18.5 7.4 -19.2 7.4 -19.4 7.4 -19.6 7.3 -19.65 M7.1 -16.5 Q7.05 -16.35 7.05 -16.15 7.05 -15.8 7.4 -15.5 7.75 -16.15 7.75 -16.65 7.75 -16.9 7.65 -16.95 7.65 -17.0 7.5 -17.1 L7.6 -17.25 Q7.9 -17.4 8.25 -17.5 8.05 -17.25 8.05 -16.8 8.05 -16.35 8.25 -15.9 8.35 -15.55 8.55 -15.25 L8.15 -14.85 7.4 -14.6 7.35 -14.7 7.0 -15.5 6.9 -15.8 Q6.9 -16.0 6.9 -16.2 L7.1 -16.5 M31.25 -20.55 L31.25 -20.3 Q31.25 -19.9 31.15 -19.4 L30.95 -18.7 30.95 -18.65 30.75 -18.85 30.7 -19.05 Q31.05 -19.75 31.25 -20.55 M32.05 -17.55 L32.3 -17.85 32.25 -17.4 32.2 -17.35 32.05 -17.55 M25.6 -13.4 L26.3 -14.1 Q26.45 -14.15 26.7 -14.45 L26.9 -14.65 27.5 -15.3 27.4 -15.05 27.15 -13.45 Q27.1 -13.0 26.4 -12.45 L26.15 -12.6 Q25.85 -13.1 25.6 -13.4 M28.0 -16.2 Q27.95 -16.35 27.85 -16.45 L28.15 -16.6 28.0 -16.2 M28.55 -16.2 L28.8 -16.15 Q29.2 -16.15 29.65 -16.6 30.0 -17.05 30.0 -17.3 30.0 -17.7 29.75 -17.8 L29.65 -17.8 29.9 -18.05 30.2 -18.4 30.4 -18.65 30.65 -18.2 30.55 -18.2 Q30.65 -16.5 29.1 -15.3 28.35 -14.75 28.05 -14.45 28.15 -15.15 28.4 -15.85 L28.55 -16.2 M27.05 -14.55 Q26.85 -14.5 26.75 -14.25 26.7 -14.1 26.7 -13.95 26.7 -13.85 26.75 -13.75 L26.8 -13.75 26.95 -14.15 Q27.05 -14.45 27.05 -14.55 M29.75 -12.85 L29.6 -12.6 29.5 -12.6 29.75 -12.85 M29.25 -12.2 L29.35 -12.2 29.35 -12.15 29.25 -12.2" fill="#817c6b" fill-rule="evenodd" stroke="none"/>
    <path d="M7.45 -20.8 L7.45 -20.5 7.5 -20.25 7.55 -20.1 Q7.35 -20.05 7.15 -19.9 L6.95 -20.0 Q7.1 -20.4 7.4 -20.85 L7.45 -20.8 M7.3 -19.65 Q7.4 -19.6 7.4 -19.4 7.4 -19.2 7.1 -18.5 6.85 -17.75 6.7 -17.65 L6.6 -17.85 6.55 -18.1 6.6 -18.8 Q6.65 -19.0 6.9 -19.4 L6.95 -19.45 7.1 -19.55 7.3 -19.65 M7.1 -16.5 L7.3 -16.85 7.5 -17.1 Q7.65 -17.0 7.65 -16.95 7.75 -16.9 7.75 -16.65 7.75 -16.15 7.4 -15.5 7.05 -15.8 7.05 -16.15 7.05 -16.35 7.1 -16.5 M25.6 -13.4 L25.55 -13.4 25.35 -13.65 25.1 -14.0 24.85 -14.5 25.3 -14.9 25.85 -15.35 Q26.85 -15.85 27.6 -16.3 L27.8 -16.4 27.85 -16.45 Q27.95 -16.35 28.0 -16.2 27.65 -15.95 27.5 -15.3 L26.9 -14.65 27.15 -15.05 Q27.0 -15.05 26.65 -14.65 26.4 -14.35 26.25 -14.1 L26.3 -14.1 25.6 -13.4 M29.65 -17.8 L29.75 -17.8 Q30.0 -17.7 30.0 -17.3 30.0 -17.05 29.65 -16.6 29.2 -16.15 28.8 -16.15 L28.55 -16.2 28.85 -17.15 29.65 -17.8" fill="#ab9f94" fill-rule="evenodd" stroke="none"/>
    <path d="M17.45 -11.95 Q17.55 -12.1 17.55 -12.2 L17.55 -12.3 18.2 -11.8 19.35 -11.1 19.55 -10.9 Q19.45 -10.75 19.2 -10.6 18.85 -10.45 18.45 -10.4 L18.25 -10.35 17.8 -10.35 17.55 -10.6 Q17.15 -10.85 16.8 -11.4 L16.55 -11.75 16.5 -11.9 16.45 -12.0 16.25 -12.45 Q16.25 -12.55 16.3 -12.65 L16.25 -12.75 16.35 -12.75 Q16.5 -12.85 16.95 -12.65 16.65 -12.65 16.65 -12.25 L16.65 -12.2 Q16.65 -12.1 16.7 -12.0 16.75 -11.8 16.95 -11.75 L17.1 -11.75 Q17.3 -11.75 17.45 -11.95" fill="#ffffff" fill-rule="evenodd" stroke="none"/>
    <path d="M12.9 -15.45 L12.9 -15.55 Q12.9 -15.8 13.25 -16.1 L13.55 -16.25 Q13.85 -16.4 14.25 -16.3 14.1 -16.05 13.95 -15.6 L13.85 -15.3 13.7 -15.2 13.0 -15.2 12.95 -15.25 Q12.9 -15.3 12.9 -15.45 M7.3 -9.5 L6.15 -9.55 5.15 -9.55 Q4.85 -9.55 4.8 -9.6 L4.75 -9.65 4.75 -9.7 4.7 -9.75 4.7 -9.85 Q4.55 -10.55 4.65 -11.2 L4.75 -11.55 Q5.05 -12.35 5.85 -13.0 L6.2 -13.25 Q7.2 -13.7 9.25 -14.25 L9.3 -14.3 9.5 -14.35 10.25 -14.55 11.05 -14.75 11.1 -14.7 11.3 -14.7 13.45 -14.75 13.7 -14.65 13.8 -14.65 13.95 -14.6 14.0 -14.55 Q14.15 -14.25 14.15 -13.8 14.15 -13.1 13.25 -12.3 L13.15 -12.2 13.5 -12.15 Q13.65 -12.1 13.75 -12.0 13.4 -12.1 12.95 -11.95 L12.85 -12.05 Q12.55 -12.0 12.2 -11.7 L11.85 -11.3 11.75 -11.2 11.8 -11.1 Q12.05 -11.2 12.4 -11.5 L12.7 -11.75 12.75 -11.7 13.05 -11.7 Q13.55 -11.7 13.9 -11.4 13.65 -10.95 12.05 -10.0 L11.9 -10.0 11.8 -9.95 Q11.55 -10.05 11.4 -10.4 11.25 -10.75 11.25 -10.9 L11.25 -11.0 11.4 -11.05 11.0 -10.85 Q9.0 -9.9 7.3 -9.5 M15.75 -11.75 L15.7 -11.45 15.7 -11.35 15.9 -10.4 16.15 -9.9 16.2 -9.85 16.35 -9.65 Q16.6 -9.35 16.95 -9.1 L17.05 -9.05 Q16.5 -9.35 16.1 -9.95 15.75 -10.5 15.65 -11.05 15.65 -11.5 15.75 -11.75 M18.2 -8.85 Q16.7 -9.4 16.25 -10.55 L16.1 -10.95 16.1 -11.0 16.0 -11.35 16.0 -11.55 15.95 -11.9 16.05 -11.85 16.05 -11.8 16.2 -11.6 Q16.35 -11.45 16.45 -11.35 L16.55 -11.25 17.2 -10.45 17.55 -10.2 17.8 -10.25 17.85 -10.25 18.0 -10.2 18.2 -10.15 18.25 -10.15 Q18.7 -9.5 18.7 -9.45 18.7 -9.2 18.55 -9.05 18.45 -8.9 18.2 -8.85 M18.7 -12.2 L18.25 -12.45 18.15 -12.55 Q17.0 -13.3 16.05 -13.35 L16.15 -13.5 16.1 -13.5 16.15 -13.75 Q16.4 -14.25 16.85 -14.6 L17.6 -14.6 17.6 -14.45 Q17.6 -14.05 18.05 -13.4 18.55 -12.65 18.65 -12.25 L18.7 -12.2 M21.2 -11.6 L21.15 -11.55 21.2 -11.65 21.15 -11.6 21.2 -11.6 M14.5 -3.5 L13.6 -3.45 13.55 -3.45 13.05 -3.4 Q12.45 -3.4 12.0 -3.55 L11.95 -3.6 11.9 -3.6 Q11.9 -3.65 11.85 -3.6 L11.8 -3.65 Q11.65 -3.7 11.55 -3.75 11.05 -3.95 10.85 -4.1 10.75 -4.25 10.75 -4.4 L11.55 -7.1 11.6 -7.25 11.9 -7.3 12.35 -7.35 12.7 -7.3 Q13.05 -7.0 13.65 -7.0 13.95 -7.0 14.2 -7.1 14.6 -6.7 15.55 -6.7 L16.3 -6.75 16.85 -6.75 17.1 -6.85 Q17.0 -6.35 16.6 -5.95 16.35 -5.65 15.7 -5.25 15.05 -4.85 14.85 -4.65 14.45 -4.25 14.45 -3.8 14.45 -3.65 14.5 -3.5 M11.7 -8.65 Q11.25 -8.95 10.7 -9.05 L9.85 -9.25 10.15 -9.25 Q10.95 -9.25 11.45 -8.9 L11.7 -8.65 M13.8 -14.15 L13.8 -14.2 13.75 -14.15 13.8 -14.15 M8.25 -13.15 L8.2 -13.2 Q7.25 -13.3 6.85 -13.05 6.45 -12.85 6.45 -12.3 6.45 -12.15 6.45 -12.05 6.55 -11.85 6.8 -11.8 7.2 -11.95 7.7 -12.25 8.3 -12.65 8.3 -12.9 8.3 -13.1 8.25 -13.15 M11.05 -12.0 L11.55 -11.9 Q11.8 -11.9 12.1 -12.2 12.5 -12.5 12.5 -12.8 12.5 -13.15 12.45 -13.1 12.0 -13.2 11.5 -12.9 11.0 -12.65 11.0 -12.35 11.0 -12.15 11.05 -12.1 L11.05 -12.0 M9.35 -13.15 L9.25 -13.35 Q9.0 -13.45 8.85 -13.4 L8.6 -13.2 Q8.7 -13.0 8.95 -12.9 9.2 -12.95 9.35 -13.15 M18.9 -13.8 Q18.95 -13.8 18.95 -13.6 L18.95 -13.4 18.9 -13.45 18.85 -13.3 Q18.8 -13.25 18.6 -13.25 18.4 -13.25 18.35 -13.3 L18.25 -13.4 18.25 -13.35 Q18.2 -13.35 18.2 -13.55 18.2 -13.8 18.5 -13.9 L18.9 -13.85 18.9 -13.8 M14.45 -11.9 Q14.25 -11.9 14.05 -12.05 L13.8 -12.25 13.75 -12.4 Q14.0 -12.6 14.25 -12.55 14.6 -12.55 14.8 -12.2 L14.75 -12.0 Q14.7 -11.9 14.45 -11.9 M15.75 -4.45 L15.5 -4.2 15.2 -4.2 15.15 -4.25 Q15.1 -4.3 15.1 -4.55 L15.3 -4.6 Q15.5 -4.65 15.5 -4.95 15.7 -4.85 15.8 -4.7 15.8 -4.6 15.75 -4.45 M16.4 -4.85 L16.3 -4.7 Q16.25 -4.65 16.15 -4.65 L16.0 -4.65 Q15.95 -4.65 15.95 -4.85 15.95 -5.2 15.95 -5.1 L16.1 -5.1 16.35 -5.05 16.4 -4.85 M12.4 -4.9 Q12.35 -4.7 12.4 -4.55 12.5 -4.25 12.9 -4.25 13.1 -4.25 13.15 -4.3 L13.25 -4.35 13.3 -4.95 Q13.3 -5.7 12.85 -5.65 12.4 -5.55 12.4 -4.9" fill="#c5d169" fill-rule="evenodd" stroke="none"/>
    <path d="M12.7 -7.3 L12.75 -7.3 13.05 -7.35 13.3 -7.35 14.2 -7.25 14.3 -7.2 14.6 -7.1 Q15.35 -6.8 16.3 -6.75 L15.55 -6.7 Q14.6 -6.7 14.2 -7.1 13.95 -7.0 13.65 -7.0 13.05 -7.0 12.7 -7.3" fill="#adb342" fill-rule="evenodd" stroke="none"/>
    <path d="M14.4 -15.1 L14.3 -15.15 14.25 -15.2 14.25 -15.55 14.35 -15.85 14.55 -16.05 14.45 -16.0 14.55 -16.2 14.65 -16.2 14.85 -16.1 14.7 -15.7 Q14.6 -15.4 14.55 -15.2 L14.45 -15.15 14.4 -15.1 M14.0 -14.55 Q14.2 -14.25 14.45 -13.65 14.8 -12.9 15.1 -12.7 L15.15 -12.8 Q15.15 -13.25 14.85 -13.85 L14.85 -13.9 14.8 -13.9 14.8 -14.05 14.8 -14.2 14.8 -15.05 Q14.9 -15.1 15.05 -15.7 15.1 -15.9 15.25 -16.0 15.35 -16.1 15.45 -16.1 L15.55 -16.15 15.75 -16.15 15.8 -16.05 Q15.65 -15.7 15.55 -15.4 15.5 -15.2 15.5 -15.0 L15.5 -14.75 15.6 -14.65 15.6 -14.6 15.7 -14.55 15.8 -14.55 Q16.0 -14.55 16.05 -14.65 L16.5 -14.6 Q16.25 -14.45 16.05 -14.1 15.8 -13.8 15.7 -13.55 L15.2 -13.55 15.4 -13.2 15.6 -12.75 Q15.7 -12.7 15.75 -12.65 L15.75 -11.75 Q15.65 -11.5 15.65 -11.05 15.75 -10.5 16.1 -9.95 16.5 -9.35 17.05 -9.05 L16.95 -9.1 Q17.45 -8.8 18.05 -8.7 L18.4 -8.8 18.2 -8.85 Q18.45 -8.9 18.55 -9.05 18.7 -9.2 18.7 -9.45 18.7 -9.5 18.25 -10.15 L18.2 -10.15 18.5 -10.15 Q18.7 -10.15 19.0 -10.25 L19.05 -10.25 19.25 -10.35 19.25 -10.4 19.4 -10.45 19.55 -10.55 Q19.65 -10.65 19.8 -10.65 L19.9 -10.6 20.0 -10.5 20.05 -10.6 20.0 -10.65 19.95 -10.75 Q20.0 -10.75 19.95 -10.8 L19.9 -10.8 19.95 -10.95 Q19.65 -11.35 19.3 -11.7 L19.2 -11.8 19.0 -11.95 18.95 -12.0 18.75 -12.15 18.7 -12.2 18.65 -12.25 Q18.55 -12.65 18.05 -13.4 17.6 -14.05 17.6 -14.45 L17.6 -14.6 18.6 -14.55 19.4 -14.55 Q20.05 -14.45 20.5 -14.35 L21.2 -13.4 21.3 -13.3 Q21.65 -12.85 21.9 -12.6 L21.2 -11.6 21.15 -11.6 21.2 -11.65 21.15 -11.55 21.0 -11.35 20.9 -11.2 20.9 -11.65 Q20.9 -12.25 20.8 -12.75 L20.75 -12.95 20.75 -13.0 20.35 -13.05 Q20.6 -12.3 20.6 -11.75 20.6 -11.05 20.6 -10.7 L20.5 -10.5 20.45 -10.45 20.2 -10.1 20.15 -10.0 19.8 -9.45 19.75 -9.5 19.2 -8.4 19.25 -8.3 Q18.4 -6.45 18.3 -4.6 L18.25 -4.55 Q16.9 -4.0 16.55 -3.9 L15.75 -3.7 15.7 -3.7 15.5 -3.65 14.5 -3.5 Q14.45 -3.65 14.45 -3.8 14.45 -4.25 14.85 -4.65 15.05 -4.85 15.7 -5.25 16.35 -5.65 16.6 -5.95 17.0 -6.35 17.1 -6.85 L17.15 -6.85 17.35 -6.95 Q17.7 -7.1 18.1 -7.4 L18.3 -7.85 Q17.35 -7.15 15.85 -7.15 L15.6 -7.15 15.3 -7.25 14.65 -7.45 14.5 -7.45 13.65 -7.65 13.55 -7.75 12.7 -7.75 12.45 -8.0 12.05 -8.35 11.8 -8.6 11.7 -8.65 11.45 -8.9 Q10.95 -9.25 10.15 -9.25 L9.85 -9.25 9.35 -9.3 8.8 -9.4 7.5 -9.5 7.3 -9.5 Q9.0 -9.9 11.0 -10.85 L11.4 -11.05 11.25 -11.0 11.25 -10.9 Q11.25 -10.75 11.4 -10.4 11.55 -10.05 11.8 -9.95 L11.65 -9.9 Q12.85 -9.4 13.55 -9.1 L14.1 -8.8 14.25 -8.95 13.7 -9.5 13.3 -9.75 Q12.7 -10.1 12.05 -10.0 13.65 -10.95 13.9 -11.4 14.15 -11.2 14.3 -10.8 L14.45 -10.3 Q14.5 -9.9 14.5 -9.3 L14.5 -8.7 14.75 -8.7 Q14.8 -9.05 14.8 -9.6 L14.8 -9.95 Q14.8 -10.55 14.65 -11.0 L14.55 -11.25 Q14.25 -11.9 13.75 -12.0 13.65 -12.1 13.5 -12.15 L13.15 -12.2 13.25 -12.3 Q14.15 -13.1 14.15 -13.8 14.15 -14.25 14.0 -14.55 M9.35 -13.15 Q9.2 -12.95 8.95 -12.9 8.7 -13.0 8.6 -13.2 L8.85 -13.4 Q9.0 -13.45 9.25 -13.35 L9.35 -13.15 M11.05 -12.0 L11.05 -12.1 Q11.0 -12.15 11.0 -12.35 11.0 -12.65 11.5 -12.9 12.0 -13.2 12.45 -13.1 12.5 -13.15 12.5 -12.8 12.5 -12.5 12.1 -12.2 11.8 -11.9 11.55 -11.9 L11.05 -12.0 M8.25 -13.15 Q8.3 -13.1 8.3 -12.9 8.3 -12.65 7.7 -12.25 7.2 -11.95 6.8 -11.8 6.55 -11.85 6.45 -12.05 6.45 -12.15 6.45 -12.3 6.45 -12.85 6.85 -13.05 7.25 -13.3 8.2 -13.2 L8.25 -13.15 M18.9 -13.8 L18.9 -13.85 18.5 -13.9 Q18.2 -13.8 18.2 -13.55 18.2 -13.35 18.25 -13.35 L18.25 -13.4 18.35 -13.3 Q18.4 -13.25 18.6 -13.25 18.8 -13.25 18.85 -13.3 L18.9 -13.45 18.95 -13.4 18.95 -13.6 Q18.95 -13.8 18.9 -13.8 M14.45 -11.9 Q14.7 -11.9 14.75 -12.0 L14.8 -12.2 Q14.6 -12.55 14.25 -12.55 14.0 -12.6 13.75 -12.4 L13.8 -12.25 14.05 -12.05 Q14.25 -11.9 14.45 -11.9 M16.4 -4.85 L16.35 -5.05 16.1 -5.1 15.95 -5.1 Q15.95 -5.2 15.95 -4.85 15.95 -4.65 16.0 -4.65 L16.15 -4.65 Q16.25 -4.65 16.3 -4.7 L16.4 -4.85 M15.75 -4.45 Q15.8 -4.6 15.8 -4.7 15.7 -4.85 15.5 -4.95 15.5 -4.65 15.3 -4.6 L15.1 -4.55 Q15.1 -4.3 15.15 -4.25 L15.2 -4.2 15.5 -4.2 15.75 -4.45 M12.4 -4.9 Q12.4 -5.55 12.85 -5.65 13.3 -5.7 13.3 -4.95 L13.25 -4.35 13.15 -4.3 Q13.1 -4.25 12.9 -4.25 12.5 -4.25 12.4 -4.55 12.35 -4.7 12.4 -4.9 M24.15 -15.05 L23.8 -15.1 Q23.65 -15.15 23.45 -15.35 L23.45 -16.3 23.8 -15.9 24.3 -15.45 Q24.2 -15.25 24.15 -15.05" fill="#a7ac40" fill-rule="evenodd" stroke="none"/>
    <path d="M10.0 -14.95 L9.75 -14.9 Q9.65 -15.0 9.6 -15.15 L9.65 -15.2 Q9.5 -15.45 9.6 -16.55 L9.75 -17.7 9.9 -18.1 10.05 -18.35 Q10.55 -19.15 11.45 -19.6 L10.75 -19.55 10.3 -19.7 10.55 -19.8 Q10.65 -19.85 10.65 -19.95 L11.4 -19.85 11.75 -19.85 11.8 -18.85 11.9 -17.3 Q11.6 -16.6 10.7 -15.65 L10.0 -14.95 M16.75 -15.15 L16.2 -15.15 16.3 -15.35 16.3 -15.45 Q16.45 -15.9 16.7 -16.45 L16.75 -16.45 16.8 -16.55 Q17.1 -17.15 17.55 -17.75 18.25 -18.7 19.35 -19.75 19.8 -20.1 20.25 -20.3 L20.25 -20.25 Q20.25 -20.15 20.5 -19.85 20.75 -19.55 20.75 -19.4 20.75 -17.35 18.25 -15.9 17.6 -15.5 16.75 -15.15 M23.6 -19.05 L23.75 -18.9 23.5 -18.9 23.6 -19.05 M21.75 -13.8 L21.6 -14.0 21.4 -14.25 21.45 -14.15 Q21.7 -14.3 21.75 -14.25 21.9 -13.9 21.9 -13.75 L21.75 -13.8 M5.75 0.2 Q5.6 -0.95 5.55 -2.1 5.55 -3.25 5.65 -4.05 L5.75 -4.4 Q6.0 -5.25 7.1 -7.35 5.95 -6.65 5.35 -4.85 5.25 -4.45 5.15 -3.95 L4.9 -3.75 4.6 -3.45 3.9 -2.6 Q4.05 -3.25 4.25 -4.4 L4.25 -4.45 Q4.55 -5.15 4.9 -5.75 5.2 -6.3 5.65 -6.85 6.35 -7.8 7.4 -8.6 L7.6 -8.7 7.75 -8.8 8.05 -8.8 Q9.95 -8.75 10.9 -8.45 L9.7 -6.6 Q8.3 -4.5 7.95 -3.85 7.7 -3.3 7.1 -1.5 6.55 0.05 6.1 0.9 L5.75 0.2 M9.25 -3.6 L9.15 -4.2 Q9.0 -4.1 8.95 -3.95 8.9 -4.05 8.85 -4.2 8.75 -4.5 8.75 -4.7 8.75 -5.35 9.3 -5.9 9.55 -6.1 9.7 -6.1 9.85 -6.05 9.85 -5.7 9.85 -5.45 9.6 -4.55 9.4 -3.75 9.25 -3.6 M19.25 -5.55 Q19.45 -7.05 20.2 -8.7 20.75 -9.85 21.5 -11.1 L22.35 -12.3 22.4 -12.3 Q22.65 -12.3 23.0 -12.8 L23.45 -13.7 23.45 -14.0 Q23.45 -15.25 24.2 -14.4 24.55 -14.1 25.4 -12.8 25.8 -11.7 26.8 -10.65 L27.1 -10.3 27.05 -10.4 Q26.7 -10.05 26.7 -9.65 26.7 -6.2 24.55 -1.9 24.05 -0.9 23.25 0.5 L23.25 -2.15 Q23.15 -3.25 22.95 -3.95 L23.25 -4.8 23.85 -6.3 Q24.35 -7.3 24.45 -7.75 L24.4 -7.7 24.5 -7.9 24.9 -9.0 24.35 -8.05 24.45 -8.15 Q24.3 -9.05 23.4 -8.15 22.3 -6.75 22.15 -6.7 20.85 -5.85 19.25 -5.55 M27.25 -10.55 L27.25 -10.55 M27.45 -10.55 L27.35 -10.7 27.4 -10.65 27.45 -10.55 M30.3 -4.6 Q30.25 -3.95 30.1 -3.2 29.95 -2.35 29.7 -1.55 L29.6 -1.15 29.35 -0.45 29.35 -0.35 29.35 -0.45 29.6 -1.55 Q30.05 -3.65 30.3 -4.6 M23.15 5.45 L23.1 5.4 23.1 5.35 23.15 5.45 M20.75 0.25 L20.85 0.25 20.85 0.4 20.75 0.25" fill="#e2d7b4" fill-rule="evenodd" stroke="none"/>
  </g>
</svg>
