<?xml version="1.0" encoding="UTF-8" standalone="no"?>
<svg xmlns:ffdec="https://www.free-decompiler.com/flash" xmlns:xlink="http://www.w3.org/1999/xlink" ffdec:objectType="shape" height="27.25px" width="22.0px" xmlns="http://www.w3.org/2000/svg">
  <g transform="matrix(1.0, 0.0, 0.0, 1.0, -8.85, 23.2)">
    <path d="M12.8 -23.15 Q12.95 -23.2 13.3 -22.7 L14.1 -21.35 14.25 -21.05 14.35 -20.95 Q15.05 -19.95 15.4 -19.2 L16.1 -19.85 Q16.7 -20.3 17.1 -20.5 17.55 -20.65 17.55 -20.35 17.55 -20.15 17.05 -19.45 L17.0 -19.35 17.2 -19.5 Q17.45 -19.6 17.7 -19.7 L17.95 -19.8 Q18.3 -20.0 18.8 -20.1 19.8 -20.45 20.55 -20.35 22.5 -20.4 23.1 -20.2 L23.15 -20.2 Q25.2 -22.2 26.45 -22.9 L26.45 -22.55 26.4 -22.1 26.4 -21.85 Q26.4 -20.85 25.8 -18.85 26.4 -18.5 27.05 -17.8 L27.3 -17.55 27.85 -16.95 28.05 -16.7 Q28.2 -16.7 28.25 -16.6 L28.25 -16.5 Q30.85 -18.5 30.85 -17.55 30.85 -17.15 30.15 -15.5 L29.75 -14.5 29.85 -14.3 Q30.25 -13.2 30.4 -11.85 30.75 -9.55 30.75 -8.4 30.75 -8.1 30.6 -7.25 30.6 -5.85 30.2 -4.55 30.0 -3.7 29.25 -2.45 28.45 -1.05 28.05 -1.05 27.9 -1.05 27.8 -1.15 27.6 -1.3 27.55 -1.8 27.5 -2.2 27.45 -2.85 L27.1 -3.7 27.0 -4.0 26.7 -3.35 26.6 -3.05 Q26.25 -1.9 25.9 -1.5 25.45 -0.6 24.9 0.25 24.95 0.3 24.8 0.3 L24.7 0.3 24.7 0.35 24.65 0.3 24.6 0.3 Q24.55 0.3 24.5 0.1 24.4 0.1 24.35 0.0 L24.35 -0.1 24.45 -0.3 24.35 -1.8 Q24.2 -4.3 23.6 -6.75 23.45 -6.5 23.2 -6.2 22.85 -5.8 22.45 -5.4 21.95 -4.9 21.35 -4.4 L20.85 -4.1 20.85 -4.15 Q20.0 -3.65 19.05 -3.35 17.3 -2.6 15.55 -2.65 L14.15 -2.65 13.65 -1.8 Q13.1 -1.0 12.9 -0.75 L12.9 -0.6 12.8 -0.7 12.75 -0.65 Q12.35 -0.65 12.1 -1.9 L11.8 -0.25 11.75 -0.2 Q11.7 0.1 11.55 0.1 10.9 0.1 10.5 -2.0 10.3 -3.05 10.2 -4.15 L10.25 -5.8 10.05 -5.4 Q9.85 -4.55 9.8 -4.2 L9.7 -4.35 Q9.45 -4.45 9.3 -5.55 9.15 -6.15 9.1 -6.75 9.1 -7.15 9.2 -7.65 9.25 -9.35 9.85 -11.15 L10.0 -11.5 10.1 -11.95 Q10.0 -12.35 9.8 -13.05 L9.45 -12.7 9.35 -12.75 Q9.3 -12.75 9.3 -12.85 L9.25 -12.85 9.3 -12.9 Q9.3 -13.25 9.6 -13.85 L9.5 -14.3 Q8.85 -16.95 8.85 -17.5 8.85 -17.7 8.9 -17.75 L8.9 -17.8 8.95 -17.85 Q9.0 -17.9 9.1 -17.9 9.4 -17.85 9.95 -17.45 L10.5 -17.0 10.95 -16.55 11.2 -16.7 11.7 -16.95 11.7 -17.8 Q11.7 -18.95 12.1 -20.8 12.45 -22.65 12.8 -23.2 L12.8 -23.15 M12.65 -19.85 L12.95 -19.85 Q13.35 -19.9 13.6 -20.15 L13.7 -20.25 13.75 -20.3 13.95 -20.6 13.55 -21.35 13.45 -21.5 12.9 -22.3 12.65 -21.25 12.45 -20.05 Q12.5 -19.9 12.65 -19.85 M24.95 -13.95 L24.85 -14.0 Q24.75 -14.05 24.65 -14.15 L24.0 -14.7 23.9 -14.8 Q23.2 -15.55 21.95 -15.5 L22.0 -15.65 22.65 -16.15 Q22.85 -16.3 23.05 -16.35 L23.0 -16.35 22.85 -16.4 22.75 -16.4 21.4 -16.45 20.4 -16.3 20.2 -16.2 19.75 -16.15 19.75 -16.35 19.9 -16.75 19.95 -16.8 21.1 -18.05 21.95 -19.0 22.65 -19.7 21.95 -19.9 Q20.05 -19.85 18.5 -19.45 17.65 -19.15 16.9 -18.7 16.4 -18.35 15.9 -17.85 15.5 -17.5 15.4 -17.5 L15.3 -17.5 15.25 -17.55 15.25 -17.6 Q15.2 -17.65 15.2 -17.7 15.2 -17.9 15.75 -18.35 L16.0 -18.55 16.35 -19.1 16.65 -19.5 16.5 -19.45 16.05 -19.1 15.75 -18.85 15.5 -18.6 15.45 -18.6 15.35 -18.45 14.8 -17.85 14.85 -17.8 Q14.85 -17.75 14.7 -17.75 14.2 -17.75 14.15 -18.55 L14.15 -18.95 Q14.15 -19.15 14.15 -19.4 L14.15 -19.5 13.9 -19.25 Q13.4 -18.45 13.1 -17.95 12.85 -17.3 12.75 -16.7 L12.7 -16.6 Q12.65 -16.3 12.7 -16.0 12.65 -16.05 12.6 -16.15 L12.6 -16.1 12.5 -16.05 Q12.4 -16.1 12.35 -16.3 12.3 -16.45 12.3 -16.6 12.1 -16.5 11.8 -16.5 11.4 -16.5 11.25 -16.35 L10.9 -16.15 10.8 -16.05 11.0 -16.1 11.6 -16.1 11.8 -16.15 11.85 -16.15 Q11.85 -16.1 11.85 -16.05 L11.8 -16.0 11.8 -15.95 Q11.45 -15.65 10.8 -14.95 9.85 -13.9 9.85 -13.65 9.75 -13.55 9.75 -13.45 9.75 -13.35 9.8 -13.35 L9.85 -13.3 Q10.05 -13.45 10.4 -13.6 11.3 -14.05 11.9 -14.05 L11.9 -14.0 11.3 -13.7 11.15 -13.35 Q11.15 -12.95 10.9 -12.2 L10.35 -10.6 Q9.85 -9.25 9.65 -8.2 L9.6 -6.55 9.6 -5.9 9.7 -5.65 9.9 -6.15 10.0 -6.3 Q10.05 -6.45 10.1 -6.6 L10.25 -6.9 Q10.3 -7.05 10.35 -7.15 L10.35 -7.05 10.4 -7.1 Q10.65 -6.35 10.65 -6.1 L10.55 -5.8 10.55 -5.4 10.6 -4.5 10.6 -3.9 10.65 -3.8 10.7 -3.85 Q10.65 -3.8 10.65 -3.7 10.65 -3.55 10.8 -3.05 L11.05 -2.1 11.35 -1.05 11.65 -2.25 Q11.75 -2.9 11.9 -3.45 L11.9 -4.3 Q11.9 -4.5 11.95 -4.65 L12.05 -4.85 12.05 -4.8 12.1 -4.85 Q12.3 -4.7 12.25 -4.6 L12.15 -4.4 12.15 -4.25 12.2 -4.2 12.2 -4.1 Q12.2 -3.35 12.3 -3.0 L12.45 -2.45 12.85 -1.45 13.05 -1.7 Q13.15 -1.95 13.35 -2.15 L13.4 -2.2 13.75 -2.7 13.8 -2.75 13.85 -2.75 Q12.85 -3.1 12.6 -3.4 12.45 -3.6 12.45 -4.25 L12.45 -4.8 12.5 -4.9 Q12.1 -5.0 11.6 -5.5 11.2 -5.95 10.9 -6.45 10.65 -6.9 10.55 -7.25 10.4 -7.65 10.4 -8.1 10.4 -8.9 10.9 -10.2 11.4 -11.55 12.25 -12.9 L12.45 -13.25 12.4 -13.3 Q12.4 -13.9 12.55 -14.5 L12.55 -14.55 12.6 -14.85 12.65 -14.85 Q12.7 -15.3 12.9 -15.8 13.25 -16.5 13.75 -16.9 L13.8 -16.9 13.8 -16.75 Q13.8 -16.7 13.35 -15.85 L13.05 -15.25 12.85 -14.6 12.85 -14.55 12.8 -14.35 12.8 -14.15 12.75 -14.15 12.7 -13.7 12.7 -13.65 13.1 -14.2 13.15 -14.25 13.3 -14.45 13.15 -14.65 13.15 -14.8 13.5 -14.75 Q14.9 -16.45 16.4 -16.95 L16.5 -17.05 16.6 -17.0 16.65 -16.95 16.65 -17.0 16.7 -16.9 Q16.9 -16.8 17.05 -16.4 L17.1 -16.35 17.25 -15.85 17.3 -16.55 Q17.3 -16.7 17.1 -17.25 L16.95 -17.7 Q16.9 -17.85 16.9 -17.9 17.15 -17.75 17.3 -17.55 17.45 -17.35 17.55 -17.05 L17.6 -17.0 18.1 -16.3 Q18.6 -15.55 18.65 -15.3 L18.7 -15.4 18.9 -15.9 Q19.25 -16.6 19.25 -16.75 L19.2 -16.95 Q19.15 -17.3 18.9 -17.75 L18.55 -18.3 Q18.55 -18.8 19.0 -18.1 L19.3 -17.5 Q19.4 -17.4 19.45 -17.15 19.55 -16.9 19.55 -16.75 L19.5 -16.4 19.45 -16.2 19.5 -16.1 19.45 -16.1 19.45 -16.0 19.3 -15.65 19.6 -15.35 19.65 -15.35 Q20.1 -14.95 20.65 -14.25 22.05 -12.5 23.05 -10.35 L23.15 -10.1 Q24.05 -8.35 24.65 -6.6 L24.75 -6.2 24.9 -5.15 25.0 -4.15 25.0 -4.1 24.9 -4.45 25.0 -3.7 25.0 -3.1 25.05 -2.95 25.05 -1.25 Q25.55 -2.05 26.0 -2.85 L26.45 -3.75 Q27.2 -5.65 27.5 -7.2 L27.5 -7.35 27.55 -7.55 27.6 -8.15 27.6 -10.15 27.4 -11.75 27.4 -11.8 Q27.25 -12.6 27.0 -13.4 L26.9 -13.7 Q26.6 -14.85 26.2 -15.7 L26.3 -15.6 26.15 -15.9 25.8 -16.35 Q25.8 -16.5 25.8 -16.4 26.35 -16.05 26.75 -15.3 27.35 -15.8 27.85 -16.2 L27.0 -17.25 Q26.3 -18.05 25.7 -18.5 L25.6 -18.1 25.4 -17.35 Q25.35 -17.2 25.35 -17.05 L25.3 -17.05 25.25 -16.85 25.25 -16.75 24.75 -15.0 24.75 -14.95 24.65 -14.55 24.85 -14.25 Q25.05 -14.1 25.3 -14.0 L25.3 -13.9 Q25.5 -13.9 25.15 -13.9 25.05 -13.9 24.95 -13.95 M14.45 -19.65 Q14.45 -19.3 14.55 -19.0 L14.7 -18.4 14.75 -18.4 Q14.85 -18.6 15.05 -18.85 L14.85 -19.1 14.7 -19.35 14.65 -19.55 14.5 -19.8 14.45 -19.65 M13.45 -19.75 Q13.25 -19.65 13.0 -19.65 12.55 -19.65 12.4 -19.8 L12.35 -19.6 12.35 -19.45 12.35 -19.4 12.25 -18.25 12.25 -18.05 12.2 -17.7 12.35 -17.55 12.4 -17.55 12.5 -17.55 12.55 -17.7 Q12.7 -18.1 12.95 -18.65 13.25 -19.2 13.5 -19.5 13.95 -20.0 14.3 -19.95 L14.35 -19.95 14.3 -20.05 14.05 -20.45 13.8 -20.05 Q13.6 -19.85 13.45 -19.75 M16.15 -16.45 L15.4 -15.85 15.0 -15.45 14.05 -14.45 14.3 -14.15 15.0 -13.45 15.0 -13.5 14.95 -13.5 Q14.95 -13.55 14.95 -13.6 14.95 -13.7 15.15 -14.15 15.35 -14.65 15.55 -14.8 L15.55 -14.75 15.65 -14.9 15.7 -14.85 15.75 -14.85 15.8 -14.8 15.7 -14.65 15.3 -13.9 15.3 -13.85 15.2 -13.6 15.25 -13.45 15.3 -13.15 Q15.3 -13.1 15.15 -13.0 15.1 -12.9 15.05 -12.85 L15.0 -12.75 14.55 -12.65 Q13.8 -12.15 13.15 -11.25 L12.35 -10.25 12.25 -10.1 Q12.1 -9.85 12.05 -9.6 L12.1 -9.6 12.1 -9.5 Q12.1 -9.1 12.55 -8.05 13.05 -6.85 13.6 -6.75 L13.95 -7.1 14.0 -7.05 14.4 -7.4 14.65 -7.6 Q15.0 -8.0 15.15 -8.3 15.3 -8.6 15.6 -9.35 15.9 -9.95 16.45 -10.2 L16.5 -10.2 16.5 -10.25 16.55 -10.25 16.6 -10.3 Q16.95 -10.05 17.2 -9.55 L17.35 -9.35 17.4 -9.25 17.95 -8.4 18.3 -9.0 Q18.7 -9.7 18.7 -10.1 18.7 -10.35 18.55 -10.55 L17.75 -10.95 17.65 -11.0 17.45 -11.05 Q17.3 -11.1 17.25 -11.2 L17.05 -11.3 17.0 -11.35 17.25 -11.3 Q17.25 -11.4 17.5 -11.4 17.8 -11.35 18.15 -11.25 18.75 -10.95 18.95 -10.55 L19.05 -10.45 19.05 -10.25 Q19.1 -9.6 19.0 -9.3 L18.8 -8.85 18.7 -8.75 18.2 -8.2 18.15 -8.1 18.1 -8.05 18.05 -8.0 18.0 -8.0 Q17.9 -8.0 17.8 -8.1 17.6 -8.2 17.4 -8.6 L17.25 -8.85 16.6 -9.95 16.55 -9.9 16.25 -9.55 Q15.95 -9.1 15.7 -8.65 L15.45 -8.15 15.45 -8.1 Q15.2 -7.6 14.7 -7.05 L14.55 -6.9 14.6 -6.6 14.65 -6.5 14.75 -6.5 14.75 -6.55 Q15.85 -6.9 17.0 -6.3 L17.1 -6.3 Q17.1 -6.45 17.25 -6.6 17.3 -6.75 17.4 -6.9 17.6 -7.1 17.8 -6.95 17.95 -6.85 18.1 -6.55 L18.75 -5.15 18.8 -5.15 Q18.9 -5.0 18.95 -4.8 L19.05 -4.7 19.0 -4.6 18.75 -4.85 18.7 -4.85 Q18.65 -4.85 18.5 -5.05 L17.85 -5.5 Q17.45 -5.7 17.1 -5.9 16.25 -6.25 15.4 -6.25 14.55 -6.25 13.7 -5.45 L13.55 -5.3 13.55 -5.25 13.5 -5.25 13.2 -4.9 Q12.95 -4.55 12.95 -4.2 L12.95 -4.1 Q13.0 -3.85 13.2 -3.6 13.4 -3.4 13.6 -3.3 13.95 -3.15 14.55 -3.15 L15.35 -3.15 16.65 -3.3 Q17.55 -3.5 18.5 -3.85 L19.15 -4.05 Q20.05 -4.4 20.65 -4.7 L21.5 -5.3 Q21.85 -5.6 22.3 -6.0 L22.7 -6.4 Q23.15 -7.0 23.4 -7.5 L23.35 -7.65 Q23.05 -8.75 22.55 -9.9 L22.45 -9.75 Q22.25 -9.2 21.95 -9.2 21.0 -9.2 20.75 -9.65 20.7 -9.8 20.7 -10.0 L20.75 -10.15 Q20.75 -10.6 21.05 -10.85 L21.2 -10.95 Q21.4 -11.05 21.7 -11.05 L22.0 -10.95 21.35 -12.15 20.95 -12.75 20.65 -13.15 19.7 -14.5 19.05 -15.2 18.85 -14.95 18.8 -14.9 18.75 -14.9 18.7 -14.85 18.55 -14.8 18.45 -14.8 Q18.4 -14.8 18.0 -15.65 17.8 -15.85 17.7 -16.3 L17.65 -16.3 Q17.65 -15.15 17.35 -14.55 17.15 -14.95 16.95 -15.6 L16.7 -16.5 16.55 -16.7 16.2 -16.5 16.15 -16.45 M16.15 -14.55 Q16.2 -14.7 16.3 -14.7 L16.35 -14.7 16.35 -14.5 16.2 -14.2 16.2 -14.1 16.15 -13.9 16.15 -13.3 16.2 -13.2 16.25 -13.25 16.45 -13.35 16.55 -13.45 Q17.0 -13.8 17.8 -14.2 L18.45 -14.55 18.5 -14.55 18.6 -14.6 18.6 -14.55 18.85 -14.5 Q19.2 -14.4 19.5 -14.25 L19.65 -14.2 19.75 -14.15 19.9 -14.05 19.7 -13.95 19.25 -13.9 18.95 -14.05 18.6 -14.15 18.5 -14.15 18.55 -14.1 Q18.75 -14.0 19.0 -13.6 L18.9 -13.7 19.2 -13.1 19.1 -12.95 Q18.9 -13.4 18.7 -13.6 18.6 -13.75 18.45 -13.8 18.2 -13.9 17.75 -13.75 17.7 -13.75 17.65 -13.75 L17.5 -13.7 17.7 -13.65 18.35 -13.45 18.4 -13.4 18.4 -13.35 18.6 -13.25 19.6 -12.55 Q19.7 -12.9 19.65 -13.25 19.9 -13.4 19.9 -12.95 19.9 -12.6 19.7 -12.25 L19.6 -12.1 19.45 -11.85 19.3 -11.65 19.15 -11.55 Q18.85 -11.3 18.5 -11.3 18.4 -11.3 18.4 -11.35 L18.35 -11.4 Q19.05 -11.65 19.4 -12.2 L19.55 -12.35 19.6 -12.55 Q19.4 -12.6 19.2 -12.7 L18.9 -12.9 18.75 -12.95 18.5 -13.1 18.35 -13.15 18.3 -13.15 17.95 -13.25 18.0 -13.05 Q18.0 -13.0 17.9 -12.85 17.8 -12.65 17.6 -12.65 17.3 -12.65 17.25 -12.9 L17.25 -12.95 Q17.2 -13.0 17.2 -13.1 L17.2 -13.2 17.25 -13.25 17.25 -13.25 Q17.3 -13.35 17.35 -13.4 L17.3 -13.4 17.15 -13.3 Q17.0 -13.15 16.9 -13.15 L16.85 -13.15 16.8 -13.2 16.75 -13.2 16.75 -13.25 16.5 -13.1 16.4 -13.05 16.25 -12.95 16.25 -12.9 Q16.2 -12.9 16.15 -12.85 15.95 -13.05 15.9 -13.25 L15.9 -13.55 Q15.9 -13.75 16.0 -14.15 16.05 -14.4 16.15 -14.55 M20.35 -18.25 L20.25 -18.3 20.3 -18.3 20.35 -18.25 M20.95 -16.7 Q22.15 -16.95 22.8 -16.65 L23.05 -16.6 Q23.35 -16.5 23.55 -16.35 L23.65 -16.25 Q23.4 -16.05 22.95 -15.9 L22.8 -15.85 22.65 -15.75 22.8 -15.7 Q23.65 -15.45 24.1 -15.05 24.15 -15.6 24.55 -16.95 L24.05 -16.9 Q23.6 -16.9 23.2 -17.05 22.75 -17.25 22.4 -17.65 22.25 -17.9 22.1 -18.2 L21.95 -18.05 20.7 -16.85 21.0 -16.85 20.7 -16.65 20.8 -16.65 20.95 -16.7 M22.6 -18.7 L22.25 -18.35 Q22.35 -18.05 22.45 -17.85 22.75 -17.35 23.6 -17.2 L24.15 -17.15 24.25 -17.15 24.65 -17.2 25.2 -18.95 25.3 -19.35 25.2 -19.35 Q24.8 -19.35 24.55 -19.5 24.3 -19.65 24.15 -19.9 24.1 -20.0 24.05 -20.15 L23.5 -19.65 23.4 -19.55 22.6 -18.7 M23.65 -18.05 L23.6 -18.1 23.65 -18.1 23.7 -18.2 23.65 -18.05 M19.6 -17.9 L19.6 -17.9 M20.0 -16.45 L20.1 -16.55 19.95 -16.45 20.0 -16.45 M18.5 -15.2 L18.5 -15.15 18.55 -15.15 18.5 -15.2 M22.9 -15.5 L22.75 -15.55 22.75 -15.5 22.9 -15.5 M10.45 -16.1 Q10.45 -16.2 10.65 -16.3 L9.6 -17.2 9.35 -17.4 9.45 -17.15 9.6 -16.15 9.75 -15.25 9.95 -14.45 9.95 -14.4 10.15 -14.75 Q10.5 -15.25 10.8 -15.55 L10.75 -15.7 10.4 -15.65 10.2 -15.6 10.2 -15.65 Q10.15 -15.65 10.15 -15.75 10.15 -15.8 10.35 -15.95 L10.45 -16.1 M11.0 -15.75 L10.9 -15.7 10.95 -15.7 11.0 -15.75 M10.4 -12.5 L10.8 -13.35 10.85 -13.5 10.25 -13.25 10.4 -12.5 M10.2 -12.3 L10.2 -12.3 M12.65 -12.65 Q12.35 -12.2 12.05 -11.5 L11.7 -10.85 11.55 -10.4 11.3 -9.75 11.25 -9.55 11.25 -9.35 11.15 -9.05 Q11.1 -8.7 11.05 -8.3 11.05 -7.45 11.9 -6.4 12.35 -5.85 13.1 -5.2 L13.2 -5.25 13.95 -6.0 14.0 -6.1 Q14.15 -6.25 14.3 -6.35 L14.4 -6.4 14.4 -6.45 14.3 -6.65 Q13.95 -6.4 13.65 -6.2 L13.65 -6.15 13.6 -6.15 13.5 -6.1 Q12.65 -6.1 12.05 -7.7 11.7 -8.5 11.55 -9.3 11.55 -9.9 12.35 -10.95 L12.5 -11.15 12.75 -11.45 12.8 -11.5 12.95 -11.7 13.05 -11.85 Q13.0 -11.9 12.9 -12.0 12.8 -12.15 12.8 -12.25 L12.9 -12.85 12.95 -12.85 13.0 -12.8 13.1 -12.85 13.05 -12.4 Q13.05 -12.35 13.1 -12.2 L13.2 -12.0 13.2 -11.95 13.65 -12.45 Q13.45 -12.55 13.4 -12.65 13.35 -12.7 13.35 -12.9 13.35 -13.05 13.45 -13.1 L13.45 -13.3 13.35 -13.25 13.25 -13.25 Q13.2 -13.3 13.2 -13.4 12.95 -13.15 12.65 -12.65 M21.7 -10.8 Q21.4 -10.7 21.15 -10.55 20.9 -10.35 20.9 -10.15 20.9 -9.9 21.05 -9.65 21.2 -9.35 21.3 -9.35 22.1 -9.35 22.35 -9.85 L22.45 -10.05 22.1 -10.8 Q21.95 -10.8 21.7 -10.8 M18.9 -12.7 L18.95 -12.65 18.5 -12.3 18.35 -12.2 18.3 -12.1 18.25 -12.1 Q18.2 -12.05 18.15 -12.0 L18.05 -12.0 18.05 -11.95 Q18.1 -11.95 17.95 -11.95 17.45 -11.95 17.2 -12.15 17.1 -12.2 17.0 -12.3 L17.0 -12.35 16.95 -12.4 16.7 -12.8 16.7 -12.9 16.8 -12.9 16.85 -12.8 16.9 -12.85 17.15 -12.5 Q17.45 -12.2 17.9 -12.2 18.05 -12.2 18.3 -12.3 L18.5 -12.4 Q18.8 -12.65 18.9 -12.7 M17.75 -12.9 Q17.85 -12.95 17.85 -13.05 17.85 -13.3 17.45 -13.3 L17.45 -12.9 17.5 -12.9 17.65 -12.85 Q17.7 -12.85 17.75 -12.9 M19.65 -8.4 L20.1 -7.1 20.5 -5.7 20.4 -5.65 19.95 -6.95 19.45 -8.35 19.65 -8.4 M16.25 -13.1 L16.25 -13.1 M16.05 -12.65 L16.1 -12.65 Q16.2 -12.5 16.45 -12.3 L16.95 -11.8 16.9 -11.8 16.75 -11.85 16.7 -11.85 Q16.55 -11.9 16.4 -12.0 L16.35 -12.05 16.25 -12.2 16.2 -12.35 16.05 -12.65 M14.55 -13.6 L14.5 -13.7 14.35 -13.85 14.3 -13.85 Q14.1 -14.0 13.95 -14.0 13.8 -13.85 13.7 -13.65 L14.05 -13.6 14.35 -13.6 14.6 -13.55 14.55 -13.6 M13.8 -13.3 L13.6 -13.3 13.55 -12.85 Q13.55 -12.8 13.65 -12.7 L13.75 -12.55 Q14.35 -13.05 14.85 -13.15 L14.9 -13.2 14.6 -13.2 Q14.6 -13.05 14.3 -12.95 14.05 -12.95 14.0 -13.1 L14.0 -13.25 13.8 -13.3 M13.4 -13.6 L13.55 -13.6 13.6 -13.8 13.8 -14.0 13.7 -14.05 13.4 -13.6 M14.85 -6.5 L14.85 -6.5 M15.65 -4.7 L15.3 -4.4 Q15.1 -4.25 15.1 -4.2 15.1 -4.0 15.3 -3.75 15.45 -3.45 15.7 -3.45 16.3 -3.45 16.45 -3.75 16.55 -3.9 16.5 -4.1 16.5 -4.3 16.45 -4.35 L16.4 -4.4 Q16.3 -4.5 15.95 -4.55 L15.9 -4.6 15.75 -4.65 15.65 -4.65 15.65 -4.7 M15.35 -3.4 Q15.2 -3.5 15.1 -3.7 L14.95 -4.15 Q14.95 -4.4 15.15 -4.55 15.35 -4.75 15.65 -4.75 L15.75 -4.75 16.25 -4.7 Q16.45 -4.65 16.55 -4.5 L16.6 -4.45 Q16.7 -4.3 16.65 -4.15 16.65 -3.85 16.55 -3.65 16.3 -3.3 15.8 -3.3 L15.65 -3.3 Q15.5 -3.3 15.35 -3.4 M17.6 -6.6 L17.35 -6.15 17.55 -6.0 17.95 -5.8 18.2 -5.65 Q17.85 -6.3 17.7 -6.75 L17.6 -6.6 M25.9 -21.75 L25.9 -21.8 25.1 -21.0 24.25 -20.3 24.2 -20.25 24.25 -20.2 24.3 -20.05 24.3 -20.0 Q24.4 -19.9 24.5 -19.85 24.8 -19.6 25.35 -19.5 L25.8 -21.3 25.9 -21.75 M28.8 -13.7 L28.95 -14.05 29.65 -15.7 Q30.0 -16.65 30.3 -17.3 L29.55 -16.9 Q28.25 -15.95 27.0 -14.9 L26.95 -14.85 27.25 -14.2 Q27.35 -14.4 27.55 -14.65 L27.8 -15.05 27.9 -15.15 27.95 -15.15 Q28.45 -15.75 29.05 -16.15 28.8 -15.7 28.25 -15.0 L28.05 -14.8 27.5 -14.15 27.4 -14.05 27.35 -13.95 27.4 -13.65 27.65 -12.8 27.65 -12.65 Q27.85 -12.15 27.95 -11.5 L27.95 -11.4 28.0 -11.45 28.0 -11.5 28.15 -11.9 Q28.4 -12.65 28.8 -13.7 M29.65 -12.35 L29.35 -13.7 Q29.2 -13.3 28.8 -11.95 28.45 -10.85 28.0 -10.2 L28.05 -9.35 28.0 -9.5 28.0 -9.1 Q28.0 -8.2 27.85 -7.25 L27.85 -7.05 Q27.75 -6.35 27.35 -5.05 L27.6 -4.45 28.0 -3.25 28.0 -3.3 Q28.2 -2.6 28.35 -2.4 L28.35 -2.35 28.5 -2.6 Q29.3 -3.85 29.6 -4.7 L29.7 -5.1 29.75 -5.4 29.95 -6.55 30.0 -7.0 Q30.05 -7.6 30.05 -8.25 30.05 -9.25 30.0 -10.05 L29.9 -11.2 29.65 -12.35 M29.0 -9.2 L29.0 -9.2 M13.35 4.0 L13.4 4.05 13.2 3.95 13.35 4.0" fill="#000000" fill-rule="evenodd" stroke="none"/>
    <path d="M12.4 -17.55 L12.35 -17.55 12.2 -17.7 12.25 -18.05 12.25 -17.9 Q12.3 -17.7 12.4 -17.55 M18.5 -15.2 L18.55 -15.15 18.5 -15.15 18.5 -15.2 M22.8 -15.85 L22.8 -15.7 22.65 -15.75 22.8 -15.85 M22.9 -15.5 L22.75 -15.5 22.75 -15.55 22.9 -15.5 M14.35 -13.6 L14.55 -13.55 14.55 -13.6 14.6 -13.55 14.35 -13.6 M14.0 -13.25 L13.8 -13.3 14.0 -13.25 M28.0 -11.45 L27.95 -11.4 27.95 -11.5 28.0 -11.45 M27.4 -13.65 L27.35 -13.95 27.4 -14.05 27.4 -13.65" fill="#cccccc" fill-rule="evenodd" stroke="none"/>
    <path d="M18.3 -13.15 L18.35 -13.15 18.3 -13.1 18.3 -13.15 M27.55 -14.65 L27.6 -14.85 Q27.75 -15.15 27.95 -15.15 L27.9 -15.15 27.8 -15.05 27.55 -14.65" fill="#a7a7a7" fill-rule="evenodd" stroke="none"/>
    <path d="M17.6 -6.6 L17.7 -6.75 Q17.85 -6.3 18.2 -5.65 L17.95 -5.8 17.55 -6.0 17.35 -6.15 17.6 -6.6" fill="#ffffff" fill-rule="evenodd" stroke="none"/>
    <path d="M12.85 -14.55 Q13.0 -14.5 13.1 -14.2 L12.7 -13.65 12.7 -13.7 12.75 -14.15 12.8 -14.15 12.8 -14.35 12.85 -14.55 M17.3 -17.55 Q17.55 -17.4 17.6 -17.05 L17.6 -17.0 17.55 -17.05 Q17.45 -17.35 17.3 -17.55" fill="#ce9e82" fill-rule="evenodd" stroke="none"/>
    <path d="M11.0 -15.75 L10.95 -15.7 10.9 -15.7 11.0 -15.75 M14.85 -6.5 L14.85 -6.5" fill="#bdc58b" fill-rule="evenodd" stroke="none"/>
    <path d="M13.4 -13.6 L13.7 -14.05 13.8 -14.0 13.6 -13.8 13.55 -13.6 13.4 -13.6" fill="#a39a61" fill-rule="evenodd" stroke="none"/>
    <path d="M17.75 -12.9 Q17.7 -12.85 17.65 -12.85 L17.5 -12.9 17.45 -12.9 17.45 -13.3 Q17.85 -13.3 17.85 -13.05 17.85 -12.95 17.75 -12.9" fill="#d85e4b" fill-rule="evenodd" stroke="none"/>
    <path d="M12.95 -19.85 L13.0 -20.95 13.0 -21.5 Q12.95 -21.8 12.85 -21.95 12.75 -21.85 12.7 -21.15 12.6 -20.45 12.6 -20.1 L12.65 -19.9 12.65 -19.85 Q12.5 -19.9 12.45 -20.05 L12.65 -21.25 12.9 -22.3 13.45 -21.5 13.55 -20.95 13.7 -20.25 13.6 -20.15 Q13.35 -19.9 12.95 -19.85 M13.45 -19.75 L13.5 -19.5 Q13.25 -19.2 12.95 -18.65 12.7 -18.1 12.55 -17.7 12.35 -18.05 12.45 -18.6 L12.7 -19.5 Q12.7 -19.6 12.65 -19.6 L12.55 -19.65 Q12.45 -19.6 12.35 -19.45 L12.35 -19.6 12.4 -19.8 Q12.55 -19.65 13.0 -19.65 13.25 -19.65 13.45 -19.75 M20.95 -16.7 Q22.1 -17.65 22.1 -17.9 L22.1 -18.05 21.95 -18.05 22.1 -18.2 Q22.25 -17.9 22.4 -17.65 22.75 -17.25 23.2 -17.05 L23.15 -17.0 Q23.0 -16.8 22.95 -16.6 L23.05 -16.6 22.8 -16.65 Q22.15 -16.95 20.95 -16.7 M22.6 -18.7 Q22.4 -18.4 22.4 -18.25 22.4 -18.2 22.45 -18.1 22.5 -18.0 22.6 -18.0 22.75 -18.0 23.3 -18.7 23.85 -19.45 23.85 -19.6 L23.85 -19.7 23.8 -19.7 Q23.7 -19.75 23.5 -19.65 L24.05 -20.15 Q24.1 -20.0 24.15 -19.9 24.3 -19.65 24.55 -19.5 24.15 -19.15 23.9 -18.65 23.75 -18.4 23.65 -18.1 23.55 -17.75 23.55 -17.45 L23.5 -17.25 23.6 -17.2 Q22.75 -17.35 22.45 -17.85 22.35 -18.05 22.25 -18.35 L22.6 -18.7 M23.65 -18.05 L23.65 -18.1 23.6 -18.1 23.65 -18.05 M24.25 -20.3 L24.25 -20.2 24.2 -20.25 24.25 -20.3 M24.3 -20.0 L24.4 -20.0 25.25 -20.95 Q25.8 -21.55 25.9 -21.75 L25.8 -21.3 25.1 -20.35 24.6 -19.75 24.5 -19.85 Q24.4 -19.9 24.3 -20.0" fill="#e9cc98" fill-rule="evenodd" stroke="none"/>
    <path d="M13.7 -20.25 L13.55 -20.95 13.45 -21.5 13.55 -21.35 13.95 -20.6 13.75 -20.3 13.7 -20.25 M14.45 -19.65 L14.5 -19.8 14.65 -19.55 14.7 -19.35 14.85 -19.1 15.05 -18.85 Q14.85 -18.6 14.75 -18.4 L14.7 -18.4 14.55 -19.0 Q14.45 -19.3 14.45 -19.65 M13.5 -19.5 L13.45 -19.75 Q13.6 -19.85 13.8 -20.05 L14.05 -20.45 14.3 -20.05 14.35 -19.95 14.3 -19.95 Q13.95 -20.0 13.5 -19.5 M23.05 -16.6 L22.95 -16.6 Q23.0 -16.8 23.15 -17.0 L23.2 -17.05 Q23.6 -16.9 24.05 -16.9 L24.55 -16.95 Q24.15 -15.6 24.1 -15.05 23.65 -15.45 22.8 -15.7 L22.8 -15.85 22.95 -15.9 Q23.4 -16.05 23.65 -16.25 L23.55 -16.35 Q23.35 -16.5 23.05 -16.6 M23.6 -17.2 L23.5 -17.25 23.55 -17.45 Q23.55 -17.75 23.65 -18.1 L23.65 -18.05 23.7 -18.2 23.65 -18.1 Q23.75 -18.4 23.9 -18.65 24.15 -19.15 24.55 -19.5 24.8 -19.35 25.2 -19.35 L25.3 -19.35 25.2 -18.95 24.65 -17.2 24.25 -17.15 24.15 -17.15 23.6 -17.2 M25.8 -21.3 L25.35 -19.5 Q24.8 -19.6 24.5 -19.85 L24.6 -19.75 25.1 -20.35 25.8 -21.3" fill="#d5b05e" fill-rule="evenodd" stroke="none"/>
    <path d="M12.65 -19.85 L12.65 -19.9 12.6 -20.1 Q12.6 -20.45 12.7 -21.15 12.75 -21.85 12.85 -21.95 12.95 -21.8 13.0 -21.5 L13.0 -20.95 12.95 -19.85 12.65 -19.85 M12.35 -19.45 Q12.45 -19.6 12.55 -19.65 L12.65 -19.6 Q12.7 -19.6 12.7 -19.5 L12.45 -18.6 Q12.35 -18.05 12.55 -17.7 L12.5 -17.55 12.4 -17.55 Q12.3 -17.7 12.25 -17.9 L12.25 -18.05 12.25 -18.25 12.35 -19.4 12.35 -19.45 M21.95 -18.05 L22.1 -18.05 22.1 -17.9 Q22.1 -17.65 20.95 -16.7 L20.8 -16.65 20.7 -16.65 21.0 -16.85 20.7 -16.85 21.95 -18.05 M23.5 -19.65 Q23.7 -19.75 23.8 -19.7 L23.85 -19.7 23.85 -19.6 Q23.85 -19.45 23.3 -18.7 22.75 -18.0 22.6 -18.0 22.5 -18.0 22.45 -18.1 22.4 -18.2 22.4 -18.25 22.4 -18.4 22.6 -18.7 L23.4 -19.55 23.5 -19.65 M24.25 -20.3 L25.1 -21.0 25.9 -21.8 25.9 -21.75 Q25.8 -21.55 25.25 -20.95 L24.4 -20.0 24.3 -20.0 24.3 -20.05 24.25 -20.2 24.25 -20.3" fill="#ebe996" fill-rule="evenodd" stroke="none"/>
    <path d="M15.75 -14.85 L15.7 -14.85 15.65 -14.9 15.55 -14.75 15.55 -14.8 Q15.35 -14.65 15.15 -14.15 14.95 -13.7 14.95 -13.6 14.95 -13.55 14.95 -13.5 L15.0 -13.5 15.0 -13.45 14.3 -14.15 14.05 -14.45 15.0 -15.45 15.4 -15.85 16.15 -16.45 16.1 -16.4 Q16.1 -16.1 16.35 -15.55 L16.55 -14.85 16.25 -13.95 16.2 -14.2 16.35 -14.5 16.35 -14.7 16.3 -14.7 Q16.2 -14.7 16.15 -14.55 16.0 -14.85 15.75 -14.85 M20.95 -12.75 L21.35 -12.15 21.35 -11.75 Q21.35 -11.4 21.2 -10.95 L21.05 -10.85 Q20.75 -10.6 20.75 -10.15 L20.7 -10.0 Q20.35 -9.55 19.95 -9.55 19.5 -9.55 19.15 -10.15 L18.95 -10.75 Q18.95 -11.15 19.15 -11.55 L19.3 -11.65 19.45 -11.85 19.6 -12.1 19.7 -12.25 20.15 -12.6 Q20.6 -12.85 20.95 -12.75 M15.35 -3.15 L14.55 -3.15 Q13.95 -3.15 13.6 -3.3 13.4 -3.4 13.2 -3.6 13.0 -3.85 12.95 -4.1 L12.95 -4.2 Q12.95 -4.55 13.2 -4.9 L13.5 -5.25 13.55 -5.25 13.55 -5.3 13.7 -5.45 Q14.55 -6.25 15.4 -6.25 16.25 -6.25 17.1 -5.9 L16.45 -5.1 16.15 -4.7 16.25 -4.7 15.75 -4.75 15.65 -4.75 Q15.35 -4.75 15.15 -4.55 14.95 -4.4 14.95 -4.15 L15.1 -3.7 Q15.2 -3.5 15.35 -3.4 L15.3 -3.5 15.3 -3.35 15.35 -3.15 M17.8 -6.95 Q17.6 -7.1 17.4 -6.9 17.3 -6.75 17.25 -6.6 17.1 -6.45 17.1 -6.3 L17.0 -6.3 Q15.85 -6.9 14.75 -6.55 L14.75 -6.5 14.65 -6.5 14.6 -6.6 14.55 -6.9 14.7 -7.05 Q15.2 -7.6 15.45 -8.1 L15.45 -8.15 15.7 -8.65 Q15.95 -9.1 16.25 -9.55 L16.55 -9.9 16.6 -9.95 17.25 -8.85 17.4 -8.6 Q17.6 -8.2 17.8 -8.1 17.9 -8.0 18.0 -8.0 L18.05 -8.0 18.1 -8.05 18.05 -7.5 17.8 -6.95 M17.65 -11.0 L17.75 -10.95 17.6 -10.75 Q17.4 -10.25 17.4 -9.6 L17.35 -9.35 17.2 -9.55 Q16.95 -10.05 16.6 -10.3 L16.55 -10.25 16.5 -10.25 16.5 -10.2 16.45 -10.2 Q15.9 -9.95 15.6 -9.35 15.3 -8.6 15.15 -8.3 15.0 -8.0 14.65 -7.6 L14.4 -7.4 14.0 -7.05 13.95 -7.1 13.6 -6.75 Q13.05 -6.85 12.55 -8.05 12.1 -9.1 12.1 -9.5 L12.1 -9.6 12.05 -9.6 Q12.1 -9.85 12.25 -10.1 L12.35 -10.25 13.15 -11.25 Q13.8 -12.15 14.55 -12.65 L15.0 -12.75 15.05 -12.85 Q15.1 -12.9 15.15 -13.0 15.3 -13.1 15.3 -13.15 L15.25 -13.45 15.2 -13.6 15.3 -13.85 15.3 -13.75 Q15.25 -13.6 15.3 -13.4 L15.45 -13.35 Q15.4 -13.15 15.4 -12.9 15.45 -12.3 15.6 -11.75 16.0 -10.7 16.85 -10.7 17.45 -10.7 17.65 -11.0 M10.45 -16.1 L10.35 -15.95 Q10.15 -15.8 10.15 -15.75 10.15 -15.65 10.2 -15.65 L10.2 -15.6 10.4 -15.65 10.75 -15.7 10.8 -15.55 Q10.5 -15.25 10.15 -14.75 L9.95 -14.4 9.95 -14.45 9.75 -15.25 9.6 -16.15 9.45 -17.15 9.35 -17.4 9.6 -17.2 10.65 -16.3 Q10.45 -16.2 10.45 -16.1 M10.4 -12.5 L10.25 -13.25 10.85 -13.5 10.8 -13.35 10.4 -12.5 M12.95 -11.7 L12.8 -11.5 12.75 -11.45 12.5 -11.15 12.35 -10.95 Q11.55 -9.9 11.55 -9.3 11.7 -8.5 12.05 -7.7 12.65 -6.1 13.5 -6.1 L13.6 -6.15 13.65 -6.15 13.65 -6.2 Q13.95 -6.4 14.3 -6.65 L14.4 -6.45 14.4 -6.4 14.3 -6.35 Q14.15 -6.25 14.0 -6.1 L13.95 -6.0 13.2 -5.25 13.1 -5.2 Q12.35 -5.85 11.9 -6.4 11.05 -7.45 11.05 -8.3 11.1 -8.7 11.15 -9.05 L11.25 -9.35 11.25 -9.55 11.3 -9.75 11.55 -10.4 11.7 -10.85 12.05 -11.5 Q12.35 -12.2 12.65 -12.65 L12.65 -12.5 Q12.6 -12.3 12.65 -12.1 12.75 -11.8 12.95 -11.7 M27.55 -14.65 Q27.35 -14.4 27.25 -14.2 L26.95 -14.85 27.0 -14.9 Q28.25 -15.95 29.55 -16.9 L30.3 -17.3 Q30.0 -16.65 29.65 -15.7 L28.95 -14.05 28.8 -13.7 28.7 -14.15 Q28.5 -14.8 28.25 -15.0 28.8 -15.7 29.05 -16.15 28.45 -15.75 27.95 -15.15 27.75 -15.15 27.6 -14.85 L27.55 -14.65" fill="#cbada3" fill-rule="evenodd" stroke="none"/>
    <path d="M15.75 -14.85 Q16.0 -14.85 16.15 -14.55 16.05 -14.4 16.0 -14.15 15.9 -13.75 15.9 -13.55 L15.9 -13.25 Q15.95 -13.05 16.15 -12.85 16.2 -12.9 16.25 -12.9 L16.25 -12.95 16.4 -13.05 16.5 -13.1 16.75 -13.25 16.75 -13.2 16.8 -13.2 16.85 -13.15 16.85 -12.95 Q16.85 -12.9 16.85 -12.8 L16.8 -12.9 16.7 -12.9 16.7 -12.8 16.95 -12.4 17.0 -12.35 17.0 -12.3 Q17.1 -12.2 17.2 -12.15 17.45 -11.95 17.95 -11.95 18.1 -11.95 18.05 -11.95 L18.05 -12.0 18.15 -12.0 Q18.2 -12.05 18.25 -12.1 L18.3 -12.1 18.35 -12.2 18.5 -12.3 18.95 -12.65 18.9 -12.7 18.9 -12.9 19.2 -12.7 Q19.4 -12.6 19.6 -12.55 L19.55 -12.35 19.4 -12.2 Q19.05 -11.65 18.35 -11.4 L18.4 -11.35 Q18.4 -11.3 18.5 -11.3 18.85 -11.3 19.15 -11.55 18.95 -11.15 18.95 -10.75 L19.15 -10.15 Q19.5 -9.55 19.95 -9.55 20.35 -9.55 20.7 -10.0 20.7 -9.8 20.75 -9.65 21.0 -9.2 21.95 -9.2 22.25 -9.2 22.45 -9.75 L22.55 -9.9 Q23.05 -8.75 23.35 -7.65 L23.4 -7.5 Q23.15 -7.0 22.7 -6.4 L22.3 -6.0 Q21.85 -5.6 21.5 -5.3 L20.65 -4.7 Q20.05 -4.4 19.15 -4.05 L18.5 -3.85 Q17.55 -3.5 16.65 -3.3 L15.35 -3.15 15.3 -3.35 15.3 -3.5 15.35 -3.4 Q15.5 -3.3 15.65 -3.3 L15.8 -3.3 Q16.3 -3.3 16.55 -3.65 16.65 -3.85 16.65 -4.15 16.7 -4.3 16.6 -4.45 L16.55 -4.5 Q16.45 -4.65 16.25 -4.7 L16.15 -4.7 16.45 -5.1 17.1 -5.9 Q17.45 -5.7 17.85 -5.5 L18.5 -5.05 Q18.65 -4.85 18.7 -4.85 L18.75 -4.85 19.0 -4.6 19.05 -4.7 18.95 -4.8 Q18.9 -5.0 18.8 -5.15 L18.75 -5.15 18.1 -6.55 Q17.95 -6.85 17.8 -6.95 L18.05 -7.5 18.1 -8.05 18.15 -8.1 18.2 -8.2 18.7 -8.75 18.8 -8.85 19.0 -9.3 Q19.1 -9.6 19.05 -10.25 L19.05 -10.45 18.95 -10.55 Q18.75 -10.95 18.15 -11.25 17.8 -11.35 17.5 -11.4 17.25 -11.4 17.25 -11.3 L17.0 -11.35 17.05 -11.3 17.25 -11.2 Q17.3 -11.1 17.45 -11.05 L17.65 -11.0 Q17.45 -10.7 16.85 -10.7 16.0 -10.7 15.6 -11.75 15.45 -12.3 15.4 -12.9 15.4 -13.15 15.45 -13.35 L15.3 -13.4 Q15.25 -13.6 15.3 -13.75 L15.3 -13.85 15.3 -13.9 15.7 -14.65 15.8 -14.8 15.75 -14.85 M16.2 -14.2 L16.25 -13.95 16.55 -14.85 16.35 -15.55 Q16.1 -16.1 16.1 -16.4 L16.15 -16.45 16.2 -16.5 16.55 -16.7 16.7 -16.5 16.95 -15.6 Q17.15 -14.95 17.35 -14.55 17.65 -15.15 17.65 -16.3 L17.7 -16.3 Q17.8 -15.85 18.0 -15.65 18.4 -14.8 18.45 -14.8 L18.55 -14.8 18.7 -14.85 18.75 -14.9 18.8 -14.9 18.85 -14.95 19.05 -15.2 19.7 -14.5 20.65 -13.15 20.95 -12.75 Q20.6 -12.85 20.15 -12.6 L19.7 -12.25 Q19.9 -12.6 19.9 -12.95 19.9 -13.4 19.65 -13.25 19.7 -12.9 19.6 -12.55 L18.6 -13.25 18.4 -13.35 18.4 -13.4 18.35 -13.45 17.7 -13.65 17.5 -13.7 17.65 -13.75 Q17.7 -13.75 17.75 -13.75 18.2 -13.9 18.45 -13.8 18.6 -13.75 18.7 -13.6 18.9 -13.4 19.1 -12.95 L19.2 -13.1 18.9 -13.7 19.0 -13.6 Q18.75 -14.0 18.55 -14.1 L18.5 -14.15 18.6 -14.15 18.95 -14.05 19.25 -13.9 19.7 -13.95 19.9 -14.05 19.75 -14.15 19.65 -14.2 19.5 -14.25 Q19.2 -14.4 18.85 -14.5 L18.6 -14.55 18.6 -14.6 18.5 -14.55 18.45 -14.55 17.8 -14.2 Q17.0 -13.8 16.55 -13.45 L16.45 -13.35 16.25 -13.25 16.2 -13.2 16.15 -13.3 16.15 -13.9 16.2 -14.1 16.2 -14.2 M21.35 -12.15 L22.0 -10.95 21.7 -11.05 Q21.4 -11.05 21.2 -10.95 21.35 -11.4 21.35 -11.75 L21.35 -12.15 M17.75 -10.95 L18.55 -10.55 Q18.7 -10.35 18.7 -10.1 18.7 -9.7 18.3 -9.0 L17.95 -8.4 17.4 -9.25 17.35 -9.35 17.4 -9.6 Q17.4 -10.25 17.6 -10.75 L17.75 -10.95 M12.95 -11.7 Q12.75 -11.8 12.65 -12.1 12.6 -12.3 12.65 -12.5 L12.65 -12.65 Q12.95 -13.15 13.2 -13.4 13.2 -13.3 13.25 -13.25 L13.35 -13.25 13.45 -13.3 13.45 -13.1 Q13.35 -13.05 13.35 -12.9 13.35 -12.7 13.4 -12.65 13.45 -12.55 13.65 -12.45 L13.2 -11.95 13.2 -12.0 13.1 -12.2 Q13.05 -12.35 13.05 -12.4 L13.1 -12.85 13.0 -12.8 12.95 -12.85 12.9 -12.85 12.8 -12.25 Q12.8 -12.15 12.9 -12.0 13.0 -11.9 13.05 -11.85 L12.95 -11.7 M19.65 -8.4 L19.45 -8.35 19.95 -6.95 20.4 -5.65 20.5 -5.7 20.1 -7.1 19.65 -8.4 M16.05 -12.65 L16.2 -12.35 16.25 -12.2 16.35 -12.05 16.4 -12.0 Q16.55 -11.9 16.7 -11.85 L16.75 -11.85 16.9 -11.8 16.95 -11.8 16.45 -12.3 Q16.2 -12.5 16.1 -12.65 L16.05 -12.65 M14.35 -13.6 L14.05 -13.6 13.7 -13.65 Q13.8 -13.85 13.95 -14.0 14.1 -14.0 14.3 -13.85 L14.35 -13.85 14.5 -13.7 14.55 -13.6 14.55 -13.55 14.35 -13.6 M28.25 -15.0 Q28.5 -14.8 28.7 -14.15 L28.8 -13.7 Q28.4 -12.65 28.15 -11.9 L28.0 -11.5 28.0 -11.45 27.95 -11.5 Q27.85 -12.15 27.65 -12.65 L27.65 -12.8 27.4 -13.65 27.4 -14.05 27.5 -14.15 28.05 -14.8 28.25 -15.0" fill="#b38677" fill-rule="evenodd" stroke="none"/>
    <path d="M18.9 -12.9 L18.9 -12.7 Q18.8 -12.65 18.5 -12.4 L18.3 -12.3 Q18.05 -12.2 17.9 -12.2 17.45 -12.2 17.15 -12.5 L16.9 -12.85 16.85 -12.8 Q16.85 -12.9 16.85 -12.95 L16.85 -13.15 16.9 -13.15 Q17.0 -13.15 17.15 -13.3 L17.3 -13.4 17.35 -13.4 Q17.3 -13.35 17.25 -13.25 L17.25 -13.25 17.2 -13.2 17.2 -13.1 Q17.2 -13.0 17.25 -12.95 L17.25 -12.9 Q17.3 -12.65 17.6 -12.65 17.8 -12.65 17.9 -12.85 18.0 -13.0 18.0 -13.05 L17.95 -13.25 18.3 -13.15 18.3 -13.1 18.35 -13.15 18.5 -13.1 18.75 -12.95 18.9 -12.9 M14.0 -13.25 L14.0 -13.1 Q14.05 -12.95 14.3 -12.95 14.6 -13.05 14.6 -13.2 L14.9 -13.2 14.85 -13.15 Q14.35 -13.05 13.75 -12.55 L13.65 -12.7 Q13.55 -12.8 13.55 -12.85 L13.6 -13.3 13.8 -13.3 14.0 -13.25" fill="#f1c7bc" fill-rule="evenodd" stroke="none"/>
    <path d="M11.9 -14.05 Q11.3 -14.05 10.4 -13.6 10.05 -13.45 9.85 -13.3 L9.8 -13.35 Q9.75 -13.35 9.75 -13.45 9.75 -13.55 9.85 -13.65 9.85 -13.9 10.8 -14.95 11.45 -15.65 11.8 -15.95 L11.8 -16.0 11.85 -16.05 Q11.85 -16.1 11.85 -16.15 L11.8 -16.15 11.6 -16.1 11.0 -16.1 10.8 -16.05 10.9 -16.15 11.25 -16.35 Q11.4 -16.5 11.8 -16.5 12.1 -16.5 12.3 -16.6 12.3 -16.45 12.35 -16.3 12.4 -16.1 12.5 -16.05 L12.6 -16.1 12.6 -16.15 Q12.65 -16.05 12.7 -16.0 12.65 -16.3 12.7 -16.6 L12.75 -16.7 Q12.85 -17.3 13.1 -17.95 13.4 -18.45 13.9 -19.25 L14.15 -19.5 14.15 -19.4 Q14.15 -19.15 14.15 -18.95 L14.15 -18.55 Q14.2 -17.75 14.7 -17.75 14.85 -17.75 14.85 -17.8 L14.8 -17.85 15.35 -18.45 15.45 -18.6 15.5 -18.6 15.75 -18.85 16.05 -19.1 16.5 -19.45 16.65 -19.5 16.35 -19.1 16.0 -18.55 15.75 -18.35 Q15.2 -17.9 15.2 -17.7 15.2 -17.65 15.25 -17.6 L15.25 -17.55 15.3 -17.5 15.4 -17.5 Q15.5 -17.5 15.9 -17.85 16.4 -18.35 16.9 -18.7 17.65 -19.15 18.5 -19.45 20.05 -19.85 21.95 -19.9 L22.65 -19.7 21.95 -19.0 21.1 -18.05 19.95 -16.8 19.9 -16.75 19.75 -16.35 19.75 -16.15 20.2 -16.2 20.4 -16.3 21.4 -16.45 22.75 -16.4 22.85 -16.4 23.0 -16.35 23.05 -16.35 Q22.85 -16.3 22.65 -16.15 L22.0 -15.65 21.95 -15.5 Q23.2 -15.55 23.9 -14.8 L24.0 -14.7 24.65 -14.15 Q24.75 -14.05 24.85 -14.0 L24.95 -13.95 Q25.1 -13.0 25.1 -12.3 25.1 -9.4 24.65 -6.6 24.05 -8.35 23.15 -10.1 L23.05 -10.35 Q22.05 -12.5 20.65 -14.25 20.1 -14.95 19.65 -15.35 19.7 -15.55 19.7 -15.75 19.7 -16.0 19.5 -16.4 L19.55 -16.75 Q19.55 -16.9 19.45 -17.15 19.4 -17.4 19.3 -17.5 L19.0 -18.1 Q18.55 -18.8 18.55 -18.3 L18.9 -17.75 Q19.15 -17.3 19.2 -16.95 18.95 -17.4 18.6 -17.75 18.15 -18.25 17.85 -18.25 17.5 -18.3 17.5 -17.65 L18.15 -16.35 Q18.5 -15.75 18.7 -15.4 L18.65 -15.3 Q18.6 -15.55 18.1 -16.3 L17.6 -17.0 17.6 -17.05 Q17.55 -17.4 17.3 -17.55 17.15 -17.75 16.9 -17.9 16.9 -17.85 16.95 -17.7 L16.65 -17.7 16.6 -17.6 16.6 -17.4 Q16.6 -17.25 16.7 -16.9 L16.65 -17.0 16.65 -16.95 16.6 -17.0 16.5 -17.05 16.4 -16.95 Q14.9 -16.45 13.5 -14.75 L13.15 -14.8 13.15 -14.65 13.3 -14.45 13.15 -14.25 13.1 -14.2 Q13.0 -14.5 12.85 -14.55 L12.85 -14.6 13.05 -15.25 13.35 -15.85 Q13.8 -16.7 13.8 -16.75 L13.8 -16.9 13.75 -16.9 Q13.25 -16.5 12.9 -15.8 12.7 -15.3 12.65 -14.85 L12.6 -14.85 12.55 -14.55 12.55 -14.5 12.45 -14.5 Q12.2 -14.35 11.9 -14.05 M20.35 -18.25 L20.3 -18.3 20.25 -18.3 20.35 -18.25 M19.6 -17.9 L19.6 -17.9" fill="#f4ebe1" fill-rule="evenodd" stroke="none"/>
    <path d="M11.9 -14.05 Q12.2 -14.35 12.45 -14.5 L12.55 -14.5 Q12.4 -13.9 12.4 -13.3 L12.45 -13.25 12.25 -12.9 Q11.4 -11.55 10.9 -10.2 10.4 -8.9 10.4 -8.1 10.4 -7.65 10.55 -7.25 10.65 -6.9 10.9 -6.45 11.2 -5.95 11.6 -5.5 12.1 -5.0 12.5 -4.9 L12.45 -4.8 12.45 -4.25 Q12.45 -3.6 12.6 -3.4 12.85 -3.1 13.85 -2.75 L13.8 -2.75 13.75 -2.7 13.4 -2.2 13.35 -2.15 Q13.15 -1.95 13.05 -1.7 L12.85 -1.45 12.45 -2.45 12.3 -3.0 Q12.2 -3.35 12.2 -4.1 L12.2 -4.2 12.15 -4.25 12.15 -4.4 12.25 -4.6 Q12.3 -4.7 12.1 -4.85 L12.05 -4.8 12.05 -4.85 11.95 -4.65 Q11.9 -4.5 11.9 -4.3 L11.9 -3.45 Q11.75 -2.9 11.65 -2.25 L11.35 -1.05 11.05 -2.1 10.8 -3.05 Q10.65 -3.55 10.65 -3.7 10.65 -3.8 10.7 -3.85 L10.65 -3.8 10.6 -3.9 10.6 -4.5 10.55 -5.4 10.55 -5.8 10.65 -6.1 Q10.65 -6.35 10.4 -7.1 L10.35 -7.05 10.35 -7.15 Q10.3 -7.05 10.25 -6.9 L10.1 -6.6 Q10.05 -6.45 10.0 -6.3 L9.9 -6.15 9.7 -5.65 9.6 -5.9 9.6 -6.55 9.65 -8.2 Q9.85 -9.25 10.35 -10.6 L10.9 -12.2 Q11.15 -12.95 11.15 -13.35 L11.3 -13.7 11.9 -14.0 11.9 -14.05 M16.7 -16.9 Q16.6 -17.25 16.6 -17.4 L16.6 -17.6 16.65 -17.7 16.95 -17.7 17.1 -17.25 Q17.3 -16.7 17.3 -16.55 L17.25 -15.85 17.1 -16.35 17.05 -16.4 Q16.9 -16.8 16.7 -16.9 M18.7 -15.4 Q18.5 -15.75 18.15 -16.35 L17.5 -17.65 Q17.5 -18.3 17.85 -18.25 18.15 -18.25 18.6 -17.75 18.95 -17.4 19.2 -16.95 L19.25 -16.75 Q19.25 -16.6 18.9 -15.9 L18.7 -15.4 M19.5 -16.4 Q19.7 -16.0 19.7 -15.75 19.7 -15.55 19.65 -15.35 L19.6 -15.35 19.3 -15.65 19.45 -16.0 19.45 -16.1 19.5 -16.1 19.45 -16.2 19.5 -16.4 M24.65 -6.6 Q25.1 -9.4 25.1 -12.3 25.1 -13.0 24.95 -13.95 25.05 -13.9 25.15 -13.9 25.5 -13.9 25.3 -13.9 L25.3 -14.0 Q25.05 -14.1 24.85 -14.25 L24.65 -14.55 24.75 -14.95 24.75 -15.0 25.25 -16.75 25.25 -16.85 25.3 -17.05 25.35 -17.05 Q25.35 -17.2 25.4 -17.35 L25.6 -18.1 25.7 -18.5 Q26.3 -18.05 27.0 -17.25 L27.85 -16.2 Q27.35 -15.8 26.75 -15.3 26.35 -16.05 25.8 -16.4 25.8 -16.5 25.8 -16.35 L26.15 -15.9 26.3 -15.6 26.2 -15.7 Q26.6 -14.85 26.9 -13.7 L27.0 -13.4 Q27.25 -12.6 27.4 -11.8 L27.4 -11.75 27.6 -10.15 27.6 -8.15 27.55 -7.55 27.5 -7.35 27.5 -7.2 Q27.2 -5.65 26.45 -3.75 L26.0 -2.85 Q25.55 -2.05 25.05 -1.25 L25.05 -2.95 25.0 -3.1 25.0 -3.7 24.9 -4.45 25.0 -4.1 25.0 -4.15 24.9 -5.15 24.75 -6.2 24.65 -6.6 M29.65 -12.35 L29.9 -11.2 30.0 -10.05 Q30.05 -9.25 30.05 -8.25 30.05 -7.6 30.0 -7.0 L29.95 -6.55 29.75 -5.4 29.7 -5.1 29.6 -4.7 Q29.3 -3.85 28.5 -2.6 L28.35 -2.35 28.35 -2.4 Q28.2 -2.6 28.0 -3.3 L28.0 -3.25 27.6 -4.45 27.35 -5.05 Q27.75 -6.35 27.85 -7.05 L27.85 -7.25 Q28.0 -8.2 28.0 -9.1 L28.0 -9.5 28.05 -9.35 28.0 -10.2 Q28.45 -10.85 28.8 -11.95 29.2 -13.3 29.35 -13.7 L29.65 -12.35 M29.0 -9.2 L29.0 -9.2" fill="#e8d5bf" fill-rule="evenodd" stroke="none"/>
    <path d="M21.7 -10.8 Q21.95 -10.8 22.1 -10.8 L22.45 -10.05 22.35 -9.85 Q22.1 -9.35 21.3 -9.35 21.2 -9.35 21.05 -9.65 20.9 -9.9 20.9 -10.15 20.9 -10.35 21.15 -10.55 21.4 -10.7 21.7 -10.8 M15.65 -4.7 L15.65 -4.65 15.75 -4.65 15.9 -4.6 15.95 -4.55 Q16.3 -4.5 16.4 -4.4 L16.45 -4.35 Q16.5 -4.3 16.5 -4.1 16.55 -3.9 16.45 -3.75 16.3 -3.45 15.7 -3.45 15.45 -3.45 15.3 -3.75 15.1 -4.0 15.1 -4.2 15.1 -4.25 15.3 -4.4 L15.65 -4.7" fill="#6c6671" fill-rule="evenodd" stroke="none"/>
  </g>
</svg>
