<?xml version="1.0" encoding="UTF-8" standalone="no"?>
<svg xmlns:ffdec="https://www.free-decompiler.com/flash" xmlns:xlink="http://www.w3.org/1999/xlink" ffdec:objectType="shape" height="22.9px" width="30.15px" xmlns="http://www.w3.org/2000/svg">
  <g transform="matrix(1.0, 0.0, 0.0, 1.0, -1.9, 23.15)">
    <path d="M13.75 -18.3 L13.35 -18.05 13.95 -18.35 Q16.4 -19.3 17.6 -19.3 L17.85 -19.3 Q18.75 -19.2 19.5 -18.95 20.35 -18.4 20.95 -17.65 21.95 -16.45 21.95 -15.3 21.95 -14.55 21.55 -13.7 21.1 -12.8 20.3 -12.6 20.55 -12.35 20.75 -12.0 21.15 -11.3 21.15 -10.35 21.15 -9.6 21.1 -9.35 20.85 -8.5 20.1 -8.5 19.85 -8.5 19.6 -8.65 L19.95 -8.65 Q20.0 -8.7 20.0 -8.8 L19.75 -8.85 19.85 -8.85 19.85 -8.9 19.85 -8.95 19.8 -9.1 19.95 -9.0 Q19.8 -9.25 19.8 -9.35 L19.9 -9.55 Q19.6 -9.8 19.4 -10.1 L19.4 -10.15 Q19.3 -10.55 19.25 -11.05 19.25 -11.9 19.15 -12.2 L18.95 -12.6 18.95 -12.65 18.9 -12.75 18.85 -12.8 18.85 -12.9 19.0 -12.95 19.15 -12.6 19.15 -12.55 19.25 -12.55 19.3 -12.6 19.3 -12.7 Q19.3 -13.2 19.1 -13.65 18.95 -13.9 18.75 -14.15 18.5 -14.4 18.2 -14.55 L18.05 -14.65 17.75 -14.9 17.6 -14.95 17.95 -14.85 18.05 -14.85 18.05 -14.95 Q18.0 -15.25 17.5 -15.4 17.05 -15.5 16.5 -15.35 L16.1 -15.3 16.5 -15.45 16.4 -15.55 16.15 -15.55 Q14.5 -14.85 13.95 -13.75 L13.9 -13.8 Q13.7 -13.75 13.4 -13.3 13.15 -12.9 12.95 -12.35 12.75 -11.8 12.75 -11.6 12.75 -11.4 13.0 -10.75 L12.35 -10.15 12.35 -10.2 12.25 -10.05 Q11.85 -9.75 11.5 -9.35 L10.9 -8.75 Q9.95 -7.7 9.45 -6.9 9.5 -7.15 9.5 -7.35 9.5 -7.7 9.25 -8.15 9.0 -8.55 8.75 -8.8 L8.85 -8.9 Q9.35 -9.2 9.9 -9.55 L10.15 -9.7 10.4 -9.9 10.95 -10.3 11.45 -10.8 11.65 -10.95 11.8 -11.1 11.85 -11.3 Q11.85 -11.35 11.7 -11.5 L11.6 -11.85 Q11.7 -11.9 11.8 -12.1 11.8 -11.75 11.85 -11.5 L11.9 -11.5 Q11.9 -12.3 12.2 -13.3 12.45 -14.05 12.9 -15.05 12.5 -14.7 12.15 -13.75 L12.15 -13.7 12.2 -14.3 12.2 -14.4 12.25 -14.7 12.3 -14.9 Q11.8 -15.8 10.8 -16.0 L10.8 -15.9 10.85 -15.8 10.6 -15.75 10.45 -15.75 10.6 -16.1 Q10.65 -16.05 10.8 -16.05 11.15 -16.05 11.9 -16.85 L12.1 -17.05 12.2 -17.05 12.7 -17.2 Q13.2 -17.35 13.85 -17.35 14.9 -17.35 16.4 -16.6 L17.4 -16.15 Q17.9 -15.9 18.15 -15.9 L18.4 -15.85 18.55 -15.8 18.45 -15.9 16.9 -16.7 Q15.9 -17.15 14.95 -17.45 14.45 -17.5 13.35 -17.4 12.65 -17.35 12.35 -17.25 L12.75 -17.75 Q13.25 -18.05 13.75 -18.3 M30.95 -14.6 Q30.6 -13.5 29.75 -12.1 L30.95 -14.6 M27.25 -8.7 L27.15 -8.6 27.2 -8.7 27.25 -8.7 M15.9 -5.25 Q16.3 -5.7 16.65 -6.15 17.2 -6.9 17.2 -7.15 L17.2 -7.35 17.6 -7.55 18.6 -7.65 Q18.7 -7.65 18.75 -7.6 18.85 -7.5 18.9 -7.5 19.1 -7.5 19.15 -7.6 L19.15 -7.65 Q18.4 -7.95 18.1 -8.0 17.7 -8.05 17.4 -7.75 L17.35 -7.7 17.3 -7.7 Q17.05 -7.6 17.0 -7.5 16.55 -7.1 16.0 -6.4 L15.45 -5.7 15.45 -5.75 15.4 -5.75 15.4 -5.8 15.3 -5.85 15.55 -6.15 Q15.65 -6.2 15.65 -6.3 L15.05 -6.85 14.15 -7.5 Q13.8 -7.7 13.6 -7.95 L13.55 -8.1 Q13.45 -8.25 13.35 -8.55 L13.35 -8.85 Q13.35 -9.25 13.4 -9.45 13.35 -9.45 13.3 -9.35 13.3 -9.75 13.25 -10.0 L13.15 -10.2 Q13.0 -10.5 12.6 -10.35 L13.0 -10.75 13.1 -10.55 Q13.4 -9.85 13.7 -9.65 13.8 -9.4 14.05 -9.1 14.05 -8.75 14.45 -8.25 15.0 -7.65 15.85 -7.65 L16.05 -7.7 16.2 -7.65 16.55 -7.65 Q17.15 -7.65 17.75 -8.1 L17.8 -8.15 Q18.1 -8.4 18.25 -8.6 L18.3 -8.75 18.3 -8.8 18.25 -8.9 18.55 -8.9 Q18.75 -8.8 18.9 -8.75 19.2 -8.05 19.5 -7.7 18.15 -6.3 16.15 -5.15 16.1 -5.3 15.9 -5.25 M7.45 -2.8 L7.1 -2.95 6.9 -3.15 7.1 -3.05 Q7.2 -3.0 7.35 -2.95 L7.45 -2.8 M5.55 -4.7 L5.45 -4.85 5.55 -4.85 5.5 -4.85 5.55 -4.75 5.55 -4.7 M5.4 -5.0 Q5.25 -5.05 5.05 -5.2 L5.5 -5.25 Q5.35 -5.15 5.35 -5.05 L5.4 -5.0 M3.9 -6.6 L3.9 -6.55 3.9 -6.6 M3.65 -6.45 L3.6 -6.5 3.65 -6.45 M7.4 -6.2 L7.4 -6.15 7.25 -6.2 7.4 -6.2 M6.6 -8.2 L6.55 -8.25 6.6 -8.2 M9.55 -12.15 L9.5 -12.1 Q9.5 -12.05 9.6 -12.05 L9.65 -12.05 9.6 -12.0 Q9.4 -12.0 9.3 -12.1 L9.3 -11.95 9.2 -12.2 9.2 -12.15 9.55 -12.15 M10.35 -15.35 L10.35 -15.4 10.7 -15.4 Q10.9 -15.4 11.35 -15.1 L11.55 -14.95 11.5 -14.95 11.15 -15.2 11.05 -15.25 Q10.7 -15.45 10.35 -15.35 M11.8 -15.1 L11.5 -15.4 11.8 -15.15 11.85 -15.1 11.8 -15.1 M14.0 -18.1 L14.0 -18.05 Q16.65 -17.05 17.25 -17.15 16.9 -17.35 15.65 -17.75 14.3 -18.2 14.0 -18.1 M14.85 -11.9 L15.0 -11.95 15.15 -11.9 15.2 -11.85 15.1 -11.85 14.85 -11.9 M14.0 -10.9 Q14.05 -11.1 14.2 -11.25 L14.15 -11.05 14.1 -11.05 14.1 -11.0 14.0 -10.9 M15.25 -11.3 L14.95 -11.4 15.0 -11.5 15.1 -11.45 15.05 -11.5 Q15.45 -11.45 15.8 -11.25 15.45 -11.4 15.1 -11.4 L15.25 -11.3 M17.8 -9.8 L17.75 -9.75 17.85 -9.6 17.7 -9.75 17.35 -10.15 17.45 -10.05 17.75 -9.8 17.8 -9.8 M10.85 -12.4 L10.8 -12.45 10.85 -12.5 10.85 -12.45 10.85 -12.4 M10.1 -11.65 L10.1 -11.7 10.1 -11.65 M10.7 -10.35 L10.7 -10.35 M9.35 -6.65 Q9.75 -7.2 10.4 -7.95 L10.3 -7.75 Q10.1 -7.35 9.45 -6.55 L9.05 -6.05 9.25 -6.4 9.35 -6.65 M9.4 -9.75 L9.45 -9.7 9.5 -9.65 9.4 -9.65 9.45 -9.7 9.4 -9.65 9.4 -9.75 M9.15 -9.25 L9.25 -9.3 9.15 -9.2 9.15 -9.25 M9.3 -9.45 L9.35 -9.55 9.45 -9.55 9.3 -9.45 M9.95 -4.2 Q10.05 -4.3 10.1 -4.3 L10.15 -4.25 10.0 -4.2 9.95 -4.2 M12.25 -11.3 Q12.25 -11.15 12.3 -11.05 12.6 -12.6 12.95 -13.55 13.4 -15.0 14.15 -16.1 13.6 -15.65 12.9 -13.95 12.25 -12.25 12.25 -11.3 M14.7 -8.55 L15.5 -7.95 Q15.05 -8.1 14.75 -8.45 L14.7 -8.55" fill="#9aa87b" fill-rule="evenodd" stroke="none"/>
    <path d="M10.7 -10.35 L10.3 -10.05 10.2 -10.15 9.95 -10.5 9.85 -10.75 9.8 -10.85 9.9 -11.3 9.95 -11.7 10.1 -11.7 10.1 -11.65 10.0 -11.5 Q9.95 -11.4 9.95 -11.2 L9.95 -11.15 Q10.0 -11.0 10.1 -10.75 10.2 -10.55 10.35 -10.5 10.45 -10.35 10.65 -10.35 L10.7 -10.35 M11.1 -11.0 L11.15 -11.1 Q11.25 -11.15 11.4 -11.15 L11.35 -10.95 11.25 -10.85 11.25 -10.8 11.15 -10.85 11.1 -10.85 11.1 -11.0 M11.25 -2.25 L11.2 -2.25 Q11.25 -2.1 11.3 -1.5 11.35 -0.95 11.45 -0.7 L11.5 -0.7 Q11.4 -1.0 11.35 -1.5 11.3 -2.05 11.25 -2.25 M10.55 -2.25 L11.45 -2.55 11.85 -2.75 11.95 -2.55 Q11.8 -1.95 11.8 -1.35 L11.8 -0.95 11.85 -0.8 Q11.75 -0.7 11.65 -0.7 L11.65 -0.65 11.45 -0.65 10.55 -2.2 10.55 -2.25 M6.35 -1.9 L6.3 -2.1 6.65 -1.95 6.4 -1.5 6.35 -1.55 6.4 -1.55 6.4 -1.65 6.35 -1.9 M6.25 -2.1 L6.25 -1.85 6.35 -1.55 Q6.2 -1.7 6.0 -2.1 L5.9 -2.35 5.95 -2.3 6.25 -2.1 M14.65 -11.0 L14.65 -10.95 14.85 -10.85 14.7 -10.75 Q14.5 -10.5 14.5 -10.05 14.5 -9.85 14.55 -9.7 14.7 -9.35 15.15 -9.35 L15.4 -9.35 15.6 -9.3 Q15.7 -9.3 16.05 -9.55 L16.3 -9.75 16.4 -9.55 16.65 -9.25 16.75 -9.15 Q16.7 -9.05 16.6 -8.95 16.25 -8.8 15.65 -8.8 15.45 -8.8 14.95 -9.1 L14.55 -9.3 14.55 -9.35 Q14.35 -9.65 14.35 -10.1 L14.35 -10.35 Q14.4 -10.65 14.55 -10.9 L14.6 -11.0 14.65 -11.0 M15.95 -10.15 L15.95 -10.2 16.05 -10.1 15.95 -10.15" fill="#ffffff" fill-rule="evenodd" stroke="none"/>
    <path d="M22.65 -11.55 L22.85 -11.8 22.85 -11.75 Q22.85 -11.55 22.85 -11.4 L22.65 -11.4 22.6 -11.45 22.65 -11.55 M31.05 -18.25 L31.15 -17.45 31.3 -16.85 31.3 -16.3 Q31.3 -15.55 30.95 -14.6 L29.75 -12.1 29.5 -11.7 29.4 -11.6 29.4 -11.55 28.95 -10.9 Q28.05 -9.6 27.25 -8.7 L27.2 -8.7 27.15 -8.6 27.05 -8.5 26.7 -8.2 26.65 -8.2 26.55 -8.25 Q26.5 -8.3 26.5 -8.45 L26.5 -8.7 Q26.5 -8.85 26.0 -9.4 L26.1 -9.4 26.05 -9.4 26.15 -9.3 26.4 -9.55 Q27.7 -10.25 28.2 -12.4 28.45 -13.5 28.5 -15.0 L28.5 -16.95 Q30.05 -16.95 30.7 -17.5 31.0 -17.8 31.05 -18.15 L31.05 -18.25 M12.85 -2.7 L12.5 -2.6 12.55 -2.7 12.7 -2.65 12.8 -2.7 12.85 -2.7 M14.5 -4.05 L15.1 -4.5 15.9 -5.25 Q16.1 -5.3 16.15 -5.15 L16.2 -5.0 Q16.2 -4.9 15.9 -4.5 L15.7 -4.25 Q15.35 -4.35 14.5 -4.05 M15.45 -5.7 L15.4 -5.6 15.4 -5.65 15.45 -5.7 15.45 -5.75 15.45 -5.7 M6.9 -3.15 L6.5 -3.45 Q6.3 -3.65 6.2 -3.9 L5.6 -4.65 5.55 -4.7 5.55 -4.75 5.5 -4.85 5.55 -4.85 5.55 -4.9 5.5 -5.0 5.4 -5.0 5.35 -5.05 Q5.35 -5.15 5.5 -5.25 5.7 -5.4 6.3 -5.55 L6.75 -5.65 6.95 -5.7 7.05 -5.65 7.2 -5.65 7.35 -5.7 7.45 -5.7 7.45 -5.75 7.8 -5.65 Q8.05 -5.5 8.15 -5.5 8.4 -5.5 8.75 -5.8 L8.8 -5.85 9.05 -6.05 9.45 -6.55 Q10.1 -7.35 10.3 -7.75 L10.4 -7.95 11.0 -8.55 11.05 -8.65 12.45 -10.2 12.6 -10.35 Q13.0 -10.5 13.15 -10.2 L13.25 -10.0 Q13.3 -9.75 13.3 -9.35 L13.25 -8.9 13.25 -8.8 Q13.25 -8.25 13.35 -8.0 13.45 -7.85 13.6 -7.7 L12.8 -6.45 Q10.85 -3.55 9.55 -3.55 9.25 -3.55 9.0 -3.65 L8.3 -3.4 Q7.65 -3.2 7.4 -3.0 L7.35 -2.95 Q7.2 -3.0 7.1 -3.05 L6.9 -3.15 M11.0 -12.7 L11.0 -12.75 10.85 -12.75 Q10.6 -12.9 10.25 -12.95 L10.25 -12.85 10.4 -12.75 10.05 -12.5 9.6 -12.15 Q9.25 -12.2 9.1 -12.45 L9.1 -12.55 Q9.05 -12.75 9.05 -12.95 L9.05 -13.2 9.1 -13.55 Q9.2 -14.0 9.35 -14.35 L9.4 -14.5 9.5 -14.6 9.45 -14.5 9.6 -14.7 9.7 -14.85 10.25 -15.3 10.3 -15.35 10.35 -15.35 Q10.7 -15.45 11.05 -15.25 L11.15 -15.2 11.5 -14.95 11.55 -14.95 11.85 -14.75 11.9 -14.5 Q11.9 -14.0 11.4 -13.2 11.2 -12.9 11.0 -12.7 M14.85 -11.9 L14.75 -11.9 14.5 -11.8 Q14.2 -12.0 14.1 -12.1 L14.05 -12.1 Q13.95 -12.25 13.95 -12.6 L13.95 -12.65 14.0 -12.8 14.0 -12.9 Q14.05 -13.45 14.45 -13.95 L14.5 -14.05 14.55 -14.1 Q14.8 -14.4 15.1 -14.65 L15.05 -14.55 Q15.05 -14.45 15.1 -14.45 L15.2 -14.4 15.9 -14.85 Q16.4 -15.1 16.9 -15.1 L16.95 -15.1 17.5 -14.95 17.4 -14.85 17.35 -14.85 16.8 -14.9 Q15.7 -15.0 15.7 -14.5 L15.7 -14.4 Q15.7 -14.35 15.75 -14.35 L15.8 -14.35 16.15 -14.55 Q16.5 -14.7 17.2 -14.7 L17.35 -14.7 Q17.85 -14.6 18.25 -14.25 L18.25 -14.2 18.3 -14.2 18.3 -14.15 18.35 -14.1 Q18.4 -13.85 18.4 -13.55 L18.4 -13.4 18.2 -13.5 18.15 -13.5 18.15 -13.4 18.3 -13.15 18.3 -13.1 18.35 -13.05 Q18.2 -12.6 17.85 -12.2 17.2 -11.5 16.1 -11.4 L16.0 -11.5 Q15.9 -11.6 15.7 -11.7 L15.2 -11.85 15.15 -11.9 15.0 -11.95 14.85 -11.9 M13.6 -10.1 L13.6 -10.0 13.7 -10.0 Q13.8 -10.25 13.95 -10.8 L13.95 -10.85 14.0 -10.9 14.1 -11.0 14.1 -10.95 Q14.15 -10.85 14.25 -10.8 L14.35 -10.7 Q14.25 -10.45 14.25 -10.1 L14.25 -9.85 Q14.3 -9.6 14.4 -9.4 14.45 -9.15 14.75 -8.9 15.05 -8.65 15.4 -8.55 L15.45 -8.55 Q15.55 -8.5 15.7 -8.5 L15.95 -8.5 16.1 -8.55 16.1 -8.15 Q16.1 -7.85 16.2 -7.65 L16.05 -7.7 16.1 -7.75 Q15.75 -7.8 15.5 -7.95 L14.7 -8.55 14.15 -9.3 14.1 -9.25 Q14.05 -9.25 14.05 -9.15 L14.05 -9.1 Q13.8 -9.4 13.7 -9.65 13.6 -9.85 13.6 -10.1 L13.6 -10.1 M19.75 -8.85 L19.4 -8.9 19.85 -8.9 19.85 -8.85 19.75 -8.85 M19.4 -10.15 L19.4 -10.1 19.4 -10.15 M10.85 -12.4 L10.85 -12.45 10.95 -12.4 10.85 -12.4 M10.6 -12.15 L10.7 -12.05 10.55 -12.1 10.6 -12.15 M11.4 -11.7 L11.4 -11.7 M10.4 -12.15 L10.35 -12.15 10.45 -12.2 10.4 -12.15 M12.35 -10.15 L11.8 -9.6 11.55 -9.4 11.5 -9.35 Q11.85 -9.75 12.25 -10.05 L12.35 -10.2 12.35 -10.15 M9.4 -9.75 L9.65 -10.35 9.65 -10.4 9.7 -10.35 Q9.85 -9.95 10.0 -9.85 L9.9 -9.8 9.65 -9.65 9.5 -9.65 9.45 -9.7 9.4 -9.75 M9.45 -9.7 L9.45 -9.7 M9.9 -6.45 L9.9 -6.35 Q9.9 -6.3 10.1 -6.15 L10.1 -6.4 9.9 -6.45 M9.8 -4.2 L9.8 -4.25 9.85 -4.4 Q9.85 -4.55 9.8 -4.5 L9.7 -4.35 Q9.65 -4.25 9.65 -4.2 L9.8 -4.2 M8.75 -5.15 L9.0 -5.15 9.0 -5.2 Q9.0 -5.25 8.8 -5.25 L8.75 -5.15 M9.95 -4.2 L10.0 -4.2 10.15 -4.25 10.1 -4.3 Q10.05 -4.3 9.95 -4.2 M13.35 -8.55 Q13.45 -8.25 13.55 -8.1 L13.6 -7.95 13.65 -7.9 13.6 -7.8 Q13.5 -7.9 13.45 -8.05 13.4 -8.2 13.35 -8.55 M20.75 -3.55 L21.0 -3.55 Q22.0 -3.7 22.8 -4.05 L22.7 -4.0 22.95 -4.0 Q22.6 -3.6 22.6 -3.55 22.6 -3.45 22.6 -3.4 L22.7 -3.4 22.9 -3.6 23.1 -3.65 Q22.45 -2.45 22.35 -2.3 22.05 -1.75 21.7 -1.3 20.5 -1.7 18.65 -2.6 L17.55 -3.1 20.6 -3.9 22.4 -4.4 22.3 -4.3 Q21.6 -4.0 20.75 -3.7 L20.75 -3.55" fill="#c2caae" fill-rule="evenodd" stroke="none"/>
    <path d="M5.05 -5.2 L4.75 -5.4 4.9 -5.45 4.95 -5.45 5.0 -5.55 5.1 -5.9 5.7 -5.95 5.85 -5.95 6.0 -5.9 6.95 -5.7 6.75 -5.65 6.3 -5.55 Q5.7 -5.4 5.5 -5.25 L5.05 -5.2 M7.55 -5.9 L7.6 -5.95 7.65 -6.1 Q7.7 -6.3 7.75 -6.5 L7.8 -6.95 Q7.65 -7.15 7.4 -7.45 7.05 -7.85 6.6 -8.2 L6.55 -8.25 6.75 -8.25 7.3 -8.3 7.6 -8.35 7.8 -8.15 Q8.35 -7.6 8.35 -7.0 8.35 -6.8 8.25 -6.4 8.1 -5.85 7.8 -5.8 L7.75 -5.8 Q7.65 -5.8 7.55 -5.9" fill="#5b6644" fill-rule="evenodd" stroke="none"/>
    <path d="M3.0 -7.15 L2.9 -7.3 2.85 -7.3 Q2.85 -7.4 2.9 -7.5 L2.95 -7.6 Q3.05 -7.7 3.3 -7.7 3.5 -7.65 3.6 -7.55 L3.55 -7.2 3.55 -7.05 3.5 -7.05 Q3.3 -7.05 3.25 -7.3 L3.15 -7.2 3.05 -7.15 3.0 -7.15 M3.7 -7.05 L3.7 -7.25 3.75 -7.35 3.75 -7.4 Q3.9 -7.65 4.45 -7.5 4.9 -7.35 5.8 -7.05 L5.85 -7.0 5.9 -6.9 Q5.9 -6.7 5.5 -6.7 5.0 -6.7 4.6 -6.95 L4.25 -7.2 Q4.15 -7.2 4.0 -7.1 L3.85 -7.0 3.75 -7.0 Q3.7 -7.0 3.7 -7.05 M7.6 -8.35 L7.8 -8.35 7.9 -8.4 8.15 -8.1 Q8.75 -7.3 8.75 -6.5 8.75 -6.4 8.5 -6.0 L8.45 -5.9 8.4 -5.85 8.25 -5.9 8.1 -5.85 8.0 -5.75 8.0 -5.7 8.05 -5.6 Q7.85 -5.6 7.8 -5.75 7.75 -5.75 7.75 -5.8 L7.8 -5.8 Q8.1 -5.85 8.25 -6.4 8.35 -6.8 8.35 -7.0 8.35 -7.6 7.8 -8.15 L7.6 -8.35" fill="#b0ba96" fill-rule="evenodd" stroke="none"/>
    <path d="M7.45 -5.75 L7.55 -5.9 Q7.65 -5.8 7.75 -5.8 7.75 -5.75 7.8 -5.75 7.85 -5.6 8.05 -5.6 L8.0 -5.7 8.0 -5.75 8.1 -5.85 8.25 -5.9 8.4 -5.85 8.45 -5.9 8.5 -6.0 Q8.75 -6.4 8.75 -6.5 8.75 -7.3 8.15 -8.1 L7.9 -8.4 8.2 -8.5 8.75 -8.8 Q9.0 -8.55 9.25 -8.15 9.5 -7.7 9.5 -7.35 9.5 -7.15 9.45 -6.9 L9.2 -6.5 9.25 -6.5 9.35 -6.65 9.25 -6.4 9.05 -6.05 8.8 -5.85 8.75 -5.8 Q8.4 -5.5 8.15 -5.5 8.05 -5.5 7.8 -5.65 L7.45 -5.75" fill="#bec6a8" fill-rule="evenodd" stroke="none"/>
    <path d="M4.75 -5.4 L4.7 -5.45 Q4.3 -6.15 4.05 -6.85 L3.95 -6.85 3.9 -6.65 3.9 -6.6 3.9 -6.55 Q3.9 -6.35 4.1 -6.0 L3.65 -6.45 3.6 -6.5 3.55 -6.55 3.0 -7.15 3.05 -7.15 3.15 -7.2 3.25 -7.3 Q3.3 -7.05 3.5 -7.05 L3.55 -7.05 3.55 -6.7 3.6 -6.7 3.7 -7.05 Q3.7 -7.0 3.75 -7.0 L3.85 -7.0 4.0 -7.1 Q4.15 -7.2 4.25 -7.2 L4.6 -6.95 Q5.0 -6.7 5.5 -6.7 5.9 -6.7 5.9 -6.9 L5.85 -7.0 5.8 -7.05 Q4.9 -7.35 4.45 -7.5 3.9 -7.65 3.75 -7.4 L3.75 -7.45 3.9 -7.65 Q4.25 -8.2 4.55 -8.75 L4.6 -8.75 Q5.4 -8.75 6.6 -7.7 7.25 -7.2 7.55 -6.8 L7.55 -6.75 7.5 -6.4 7.4 -6.2 7.25 -6.2 7.15 -6.25 6.55 -6.45 Q5.7 -6.65 4.85 -6.45 L4.85 -6.35 Q4.85 -6.15 4.8 -5.95 L4.8 -5.8 Q4.8 -5.7 4.85 -5.6 L4.85 -5.45 4.9 -5.45 4.75 -5.4 M2.85 -7.3 L2.85 -7.35 2.9 -7.5 Q2.85 -7.4 2.85 -7.3 M2.95 -7.6 L3.35 -8.05 3.7 -8.4 3.9 -8.5 Q4.05 -8.6 4.2 -8.7 3.7 -8.15 3.65 -7.65 L3.65 -7.55 3.6 -7.55 Q3.5 -7.65 3.3 -7.7 3.05 -7.7 2.95 -7.6 M5.0 -5.55 L5.0 -5.8 5.05 -5.9 5.1 -5.9 5.0 -5.55" fill="#434b32" fill-rule="evenodd" stroke="none"/>
    <path d="M10.75 -10.85 L10.55 -10.8 Q10.25 -10.8 10.15 -11.0 10.15 -11.05 10.15 -11.2 10.15 -11.55 10.5 -11.55 L10.5 -11.45 10.25 -11.4 10.25 -11.1 10.3 -11.0 Q10.35 -11.0 10.4 -10.95 L10.5 -11.0 Q10.6 -10.85 10.75 -10.85 M15.4 -9.75 Q15.3 -9.7 15.15 -9.7 14.75 -9.7 14.7 -9.9 L14.65 -10.1 Q14.65 -10.6 15.05 -10.6 L15.05 -10.55 Q15.05 -10.5 15.1 -10.4 L15.05 -10.4 Q14.95 -10.3 14.95 -10.2 L14.9 -10.1 Q14.9 -10.05 15.0 -9.9 L15.1 -10.05 15.15 -10.2 15.2 -10.1 15.15 -9.95 Q15.15 -9.85 15.15 -9.8 L15.2 -9.75 15.4 -9.75" fill="#ff6640" fill-rule="evenodd" stroke="none"/>
    <path d="M10.5 -11.55 L10.55 -11.55 Q10.95 -11.55 10.95 -11.15 10.95 -10.95 10.85 -10.9 L10.75 -10.85 Q10.6 -10.85 10.5 -11.0 L10.5 -11.05 Q10.45 -11.15 10.5 -11.25 L10.5 -11.45 10.5 -11.55 M15.05 -10.6 L15.1 -10.6 Q15.5 -10.6 15.55 -10.1 L15.55 -10.0 15.45 -9.8 15.4 -9.75 15.2 -9.75 15.15 -9.8 Q15.15 -9.85 15.15 -9.95 L15.2 -10.1 15.15 -10.2 15.15 -10.25 15.1 -10.3 15.1 -10.4 Q15.05 -10.5 15.05 -10.55 L15.05 -10.6" fill="#bf0039" fill-rule="evenodd" stroke="none"/>
    <path d="M22.5 -11.8 L22.5 -11.75 22.45 -11.75 22.5 -11.8 M23.15 -12.75 L23.2 -13.0 23.3 -13.0 23.25 -13.0 23.15 -12.75" fill="#e4e4d1" fill-rule="evenodd" stroke="none"/>
    <path d="M11.5 -18.0 L11.55 -17.95 13.25 -19.6 Q14.45 -20.6 15.4 -20.75 15.45 -20.4 15.55 -20.1 15.7 -19.5 15.9 -19.3 15.05 -19.0 14.05 -18.5 L13.75 -18.3 Q13.25 -18.05 12.75 -17.75 L12.35 -17.25 Q12.1 -17.2 12.1 -17.1 L12.1 -17.05 11.9 -16.85 Q11.15 -16.05 10.8 -16.05 10.65 -16.05 10.6 -16.1 10.95 -17.05 11.5 -18.0 M19.5 -18.95 Q20.7 -18.55 21.65 -17.8 L21.7 -17.8 21.85 -17.65 21.9 -17.65 Q21.85 -17.85 21.4 -18.5 L21.2 -18.85 Q22.05 -18.2 22.45 -17.8 21.65 -17.45 21.55 -17.15 L21.55 -17.1 21.7 -16.95 Q22.15 -17.1 24.0 -17.7 L24.95 -18.05 Q24.1 -17.6 23.2 -16.35 L23.1 -16.15 Q22.15 -14.65 22.1 -13.75 L22.1 -13.7 Q22.1 -13.4 22.15 -13.25 L22.3 -13.25 22.3 -13.55 22.3 -12.8 22.35 -12.7 22.5 -12.7 22.45 -12.4 22.5 -12.2 22.5 -11.8 22.45 -11.75 22.5 -11.75 22.55 -11.7 22.55 -11.45 22.65 -11.55 22.6 -11.45 22.65 -11.4 22.85 -11.4 22.95 -11.35 23.8 -11.3 Q24.1 -11.3 24.4 -11.05 L24.9 -10.65 25.2 -10.25 Q25.25 -10.15 25.95 -9.5 L26.0 -9.4 Q26.5 -8.85 26.5 -8.7 L26.5 -8.45 Q26.5 -8.3 26.55 -8.25 L26.65 -8.2 26.7 -8.2 26.65 -8.15 26.7 -8.15 26.7 -7.95 26.65 -8.1 26.45 -7.95 26.35 -7.85 26.3 -7.6 26.4 -7.0 26.45 -6.9 Q26.45 -5.7 24.85 -4.75 L24.6 -4.55 24.25 -4.45 23.85 -4.25 23.9 -4.45 23.9 -4.5 24.1 -4.8 24.35 -5.1 24.8 -5.65 25.0 -5.95 Q25.25 -6.45 25.35 -6.9 L25.15 -6.65 Q24.5 -5.95 24.15 -5.7 23.65 -5.2 23.05 -4.9 22.9 -4.95 22.8 -5.05 L22.75 -5.05 22.7 -5.1 22.5 -5.05 22.45 -5.05 22.45 -5.1 22.35 -5.1 Q21.4 -5.15 19.95 -4.9 17.95 -4.55 16.05 -3.8 L15.9 -3.75 14.75 -3.35 15.0 -3.55 15.05 -3.65 15.15 -3.7 15.7 -4.25 15.9 -4.5 Q16.2 -4.9 16.2 -5.0 L16.15 -5.15 Q18.15 -6.3 19.5 -7.7 19.2 -8.05 18.9 -8.75 L19.15 -8.65 19.6 -8.65 Q19.85 -8.5 20.1 -8.5 20.85 -8.5 21.1 -9.35 21.15 -9.6 21.15 -10.35 21.15 -11.3 20.75 -12.0 20.55 -12.35 20.3 -12.6 21.1 -12.8 21.55 -13.7 21.95 -14.55 21.95 -15.3 21.95 -16.45 20.95 -17.65 20.35 -18.4 19.5 -18.95 M26.9 -18.5 L27.1 -18.55 26.6 -18.3 26.7 -18.35 26.9 -18.5 M13.95 -13.75 L13.85 -13.5 13.8 -13.45 Q13.65 -13.15 13.65 -12.7 13.65 -12.35 13.75 -12.15 L13.8 -12.05 Q13.95 -11.65 14.3 -11.55 L14.3 -11.5 14.1 -11.45 14.15 -11.4 Q14.0 -11.25 13.9 -11.05 13.6 -10.55 13.6 -10.2 L13.6 -10.1 13.6 -10.1 Q13.6 -9.85 13.7 -9.65 13.4 -9.85 13.1 -10.55 L13.0 -10.75 13.0 -10.75 Q12.75 -11.4 12.75 -11.6 12.75 -11.8 12.95 -12.35 13.15 -12.9 13.4 -13.3 13.7 -13.75 13.9 -13.8 L13.95 -13.75 M18.85 -12.8 L18.9 -12.75 18.85 -12.8 M20.45 -7.9 L20.35 -8.4 20.3 -8.35 Q20.5 -7.85 20.1 -7.15 19.75 -6.65 18.95 -6.0 19.4 -6.1 19.95 -6.85 20.45 -7.55 20.45 -7.9 M13.95 -11.55 L14.05 -11.55 Q13.9 -11.6 13.7 -11.8 L13.4 -12.1 13.3 -12.1 Q13.3 -11.95 13.5 -11.75 13.65 -11.55 13.95 -11.55" fill="#788659" fill-rule="evenodd" stroke="none"/>
    <path d="M22.85 -11.8 L23.0 -11.85 23.0 -11.9 23.1 -12.0 23.25 -12.1 23.4 -12.15 23.55 -12.25 Q24.55 -12.7 25.3 -12.7 L25.8 -12.6 26.3 -12.55 26.45 -12.55 26.45 -12.6 Q26.2 -13.15 24.8 -12.9 L24.75 -12.9 24.3 -12.75 24.15 -12.75 23.85 -12.65 23.8 -12.6 23.65 -12.6 23.15 -12.35 23.1 -12.35 Q23.1 -12.55 23.15 -12.75 L23.25 -13.0 23.3 -13.0 23.35 -13.0 23.7 -13.35 23.75 -13.35 23.75 -13.4 23.85 -13.55 Q24.05 -13.65 24.25 -13.75 24.3 -13.9 24.45 -13.95 24.65 -14.1 25.2 -14.2 L26.65 -14.25 27.65 -14.05 27.55 -14.1 Q27.15 -14.35 26.1 -14.35 L25.4 -14.35 Q24.9 -14.3 24.55 -14.2 L24.3 -14.1 Q23.7 -13.65 23.3 -13.4 L23.55 -14.1 Q23.85 -14.85 24.3 -15.45 24.65 -15.85 25.05 -16.25 L26.05 -16.95 Q28.3 -18.4 30.65 -18.4 30.95 -18.4 31.05 -18.3 L31.05 -18.25 31.05 -18.15 Q31.0 -17.8 30.7 -17.5 30.05 -16.95 28.5 -16.95 L28.5 -15.0 Q28.45 -13.5 28.2 -12.4 27.7 -10.25 26.4 -9.55 L27.1 -10.4 Q27.3 -11.1 27.4 -11.85 27.4 -12.5 27.3 -12.75 27.2 -12.95 27.05 -13.05 L27.15 -12.65 27.15 -12.2 Q27.15 -11.9 27.05 -11.5 27.0 -10.7 26.45 -9.85 L26.1 -9.4 26.0 -9.4 25.95 -9.5 Q25.25 -10.15 25.2 -10.25 L24.9 -10.65 24.4 -11.05 Q24.1 -11.3 23.8 -11.3 L22.95 -11.35 22.85 -11.4 Q22.85 -11.55 22.85 -11.75 L22.85 -11.8 M14.75 -3.35 L13.55 -2.9 13.4 -2.9 13.25 -2.8 12.85 -2.7 12.8 -2.7 12.7 -2.65 12.55 -2.7 12.55 -2.85 12.6 -2.9 12.6 -2.95 12.7 -3.0 Q13.6 -3.4 14.5 -4.05 15.35 -4.35 15.7 -4.25 L15.15 -3.7 15.05 -3.65 15.0 -3.55 14.75 -3.35 M15.4 -5.6 L14.8 -5.0 14.8 -4.95 Q14.25 -4.5 13.6 -4.1 L13.5 -4.05 12.95 -3.8 Q11.35 -3.05 9.0 -2.6 L8.25 -2.6 8.25 -2.65 7.9 -2.65 7.85 -2.7 7.7 -2.75 7.5 -2.8 7.45 -2.8 7.35 -2.95 7.4 -3.0 Q7.65 -3.2 8.3 -3.4 L9.0 -3.65 Q9.25 -3.55 9.55 -3.55 10.85 -3.55 12.8 -6.45 L13.6 -7.7 Q13.8 -7.5 14.15 -7.25 13.8 -7.5 13.6 -7.8 L13.65 -7.9 13.6 -7.95 Q13.8 -7.7 14.15 -7.5 L15.05 -6.85 15.65 -6.3 Q15.65 -6.2 15.55 -6.15 L15.3 -5.85 15.4 -5.8 15.4 -5.75 15.45 -5.75 15.45 -5.7 15.4 -5.65 15.4 -5.6 M11.6 -11.85 L11.55 -11.95 11.5 -12.0 11.5 -12.05 11.6 -12.05 11.45 -12.1 11.3 -12.35 10.95 -12.65 11.0 -12.7 Q11.2 -12.9 11.4 -13.2 11.9 -14.0 11.9 -14.5 L11.85 -14.75 Q12.0 -14.75 11.95 -14.75 L11.95 -14.85 11.8 -15.1 11.85 -15.1 12.05 -14.8 12.15 -14.45 12.2 -14.4 12.2 -14.3 12.15 -13.7 Q11.9 -13.1 11.85 -12.65 L11.8 -12.25 11.8 -12.1 Q11.7 -11.9 11.6 -11.85 M9.6 -12.15 L9.55 -12.15 9.2 -12.15 9.2 -12.2 Q9.15 -12.3 9.1 -12.45 9.25 -12.2 9.6 -12.15 M16.1 -11.4 Q17.2 -11.5 17.85 -12.2 18.2 -12.6 18.35 -13.05 L18.4 -12.95 Q18.65 -12.55 18.7 -11.95 L18.8 -10.6 Q18.85 -10.0 19.05 -9.7 L19.05 -9.6 Q19.25 -9.35 19.6 -9.3 L19.8 -9.1 19.85 -8.95 19.85 -8.9 19.4 -8.9 Q19.0 -9.0 18.65 -9.15 L18.6 -9.15 18.6 -9.2 18.55 -9.2 18.5 -9.25 18.45 -9.25 18.4 -9.3 Q17.95 -9.75 17.8 -9.8 L17.75 -9.8 17.45 -10.05 17.35 -10.15 16.95 -10.6 16.5 -11.05 16.1 -11.4 M18.4 -13.4 L18.4 -13.55 Q18.4 -13.85 18.35 -14.1 L18.65 -13.6 19.0 -12.95 18.85 -12.9 18.5 -13.25 18.5 -13.3 18.4 -13.4 M17.4 -14.85 L17.5 -14.95 17.6 -14.95 17.75 -14.9 18.05 -14.65 18.2 -14.55 18.0 -14.65 Q17.75 -14.75 17.45 -14.85 L17.4 -14.85 M14.15 -11.05 L14.1 -11.0 14.1 -10.95 14.1 -11.0 14.1 -11.05 14.15 -11.05 M14.25 -10.8 L14.3 -10.8 14.35 -10.75 14.35 -10.7 14.25 -10.8 M16.1 -8.55 Q16.6 -8.6 16.95 -8.95 17.15 -8.75 17.35 -8.75 17.5 -8.75 17.45 -8.8 L17.15 -9.15 Q17.25 -9.35 17.25 -9.5 L17.25 -9.6 17.15 -9.6 17.1 -9.55 17.1 -9.6 Q16.9 -10.25 15.75 -11.0 L15.25 -11.3 15.1 -11.4 Q15.45 -11.4 15.8 -11.25 16.45 -10.9 17.0 -10.2 L17.65 -9.3 17.85 -9.1 Q18.05 -8.95 18.25 -8.9 L18.3 -8.8 18.3 -8.75 18.25 -8.6 Q18.1 -8.4 17.8 -8.15 L17.75 -8.1 Q17.15 -7.65 16.55 -7.65 L16.2 -7.65 Q16.1 -7.85 16.1 -8.15 L16.1 -8.55 M10.6 -12.15 L10.65 -12.2 10.8 -12.3 11.05 -12.3 11.15 -12.15 Q11.35 -11.95 11.4 -11.7 11.15 -11.9 10.8 -12.0 L10.7 -12.05 10.6 -12.15 M24.1 -12.1 L24.1 -11.85 Q25.15 -11.7 25.65 -11.0 25.9 -10.65 26.2 -9.8 L26.25 -9.85 26.3 -9.85 26.35 -10.2 Q26.35 -10.8 25.75 -11.35 25.1 -12.05 24.1 -12.1" fill="#9eab7e" fill-rule="evenodd" stroke="none"/>
    <path d="M11.5 -18.0 Q11.95 -18.85 12.65 -19.7 L13.2 -20.5 14.3 -21.45 Q14.95 -22.0 15.2 -22.15 L15.35 -21.05 15.4 -20.75 Q14.45 -20.6 13.25 -19.6 L11.55 -17.95 11.5 -18.0 M22.3 -13.55 L22.35 -13.6 Q22.5 -14.8 23.0 -15.7 23.25 -16.15 23.55 -16.55 L23.8 -16.85 23.85 -16.9 24.95 -17.95 25.15 -18.1 25.7 -18.25 25.9 -18.3 26.15 -18.4 26.9 -18.5 26.7 -18.35 26.6 -18.3 26.25 -18.05 26.15 -18.0 25.95 -17.85 25.0 -17.15 Q24.3 -16.55 23.8 -15.8 22.9 -14.7 22.6 -13.45 L22.55 -13.35 Q22.5 -13.0 22.5 -12.7 L22.35 -12.7 22.3 -12.8 22.3 -13.55" fill="#555f3f" fill-rule="evenodd" stroke="none"/>
    <path d="M15.7 -22.7 Q15.7 -22.25 16.05 -20.9 L16.15 -20.55 16.55 -19.7 17.15 -19.8 17.6 -19.8 18.0 -19.75 Q17.3 -20.05 17.3 -20.35 17.3 -20.9 19.45 -19.7 L20.35 -19.25 20.35 -19.3 Q20.35 -19.35 20.5 -19.35 20.65 -19.35 20.8 -19.2 L20.85 -19.2 20.25 -19.55 20.2 -19.65 20.8 -19.65 Q21.4 -19.35 22.1 -18.8 L23.0 -18.05 23.05 -18.05 23.2 -18.1 22.8 -19.0 Q22.8 -19.15 22.85 -19.1 23.3 -18.95 23.65 -18.3 24.8 -18.65 26.35 -19.0 28.2 -19.4 29.65 -19.55 31.05 -19.7 31.15 -19.45 L31.2 -19.5 Q31.35 -19.35 31.5 -19.0 L31.55 -18.95 Q31.7 -18.7 31.8 -18.4 L31.9 -18.05 Q32.05 -17.5 32.05 -17.0 32.05 -15.95 31.75 -14.7 31.35 -13.35 30.8 -12.5 29.9 -11.15 28.6 -9.8 27.85 -8.95 27.35 -8.55 27.5 -8.35 27.55 -8.1 L27.55 -6.95 Q27.55 -5.8 26.2 -4.35 24.95 -2.95 24.2 -2.95 24.0 -2.95 23.9 -3.1 23.85 -3.2 23.85 -3.3 L24.1 -3.5 24.1 -3.55 24.5 -3.95 Q24.0 -3.7 23.6 -3.65 L23.5 -3.5 Q23.05 -2.55 22.45 -1.7 L22.3 -1.5 21.65 -0.7 Q21.6 -0.7 21.1 -0.9 L20.5 -1.1 Q20.05 -1.35 19.05 -1.95 18.1 -2.6 17.6 -2.8 L17.15 -2.95 16.65 -2.8 16.7 -2.8 Q16.55 -2.8 16.5 -2.7 L16.45 -2.75 14.8 -2.15 12.8 -1.45 Q12.55 -1.45 12.5 -1.55 L12.5 -1.6 12.35 -1.55 12.25 -1.2 12.25 -1.15 Q12.1 -0.45 11.85 -0.25 11.3 -0.6 11.15 -0.85 10.8 -1.45 10.3 -1.4 L10.3 -1.45 9.9 -1.45 Q8.2 -1.45 7.1 -1.8 6.8 -1.05 6.55 -1.05 6.0 -1.05 5.5 -1.9 5.25 -2.35 5.1 -2.75 5.1 -3.05 5.15 -3.2 L5.1 -3.25 Q4.7 -3.7 3.85 -4.5 3.25 -5.0 3.25 -5.15 3.25 -5.35 3.3 -5.45 L3.2 -5.6 Q2.2 -6.8 1.9 -7.55 L1.9 -7.7 1.95 -7.7 Q2.0 -7.8 2.15 -7.95 2.2 -8.1 2.3 -8.05 L2.9 -8.5 Q3.95 -9.15 4.8 -9.15 L5.5 -9.1 6.15 -9.0 7.45 -9.1 7.65 -9.15 Q8.25 -9.55 8.75 -10.3 8.95 -10.7 9.15 -11.25 8.55 -12.05 8.55 -13.4 8.55 -14.0 8.9 -14.55 9.15 -14.9 9.5 -15.2 L9.45 -15.15 9.15 -15.05 8.95 -15.2 8.95 -15.25 Q9.15 -15.3 9.35 -15.45 L9.5 -15.6 9.6 -15.6 9.75 -15.65 9.8 -15.85 Q9.8 -16.3 10.4 -17.5 10.7 -18.0 11.0 -18.6 11.6 -19.6 12.25 -20.55 12.7 -21.15 13.15 -21.65 14.3 -23.05 14.9 -23.05 15.5 -23.3 15.7 -22.7 M15.4 -20.75 L15.35 -21.05 15.2 -22.15 Q14.95 -22.0 14.3 -21.45 L13.2 -20.5 12.65 -19.7 Q11.95 -18.85 11.5 -18.0 10.95 -17.05 10.6 -16.1 L10.45 -15.75 10.6 -15.75 10.85 -15.8 10.8 -15.9 10.8 -16.0 Q11.8 -15.8 12.3 -14.9 L12.25 -14.7 12.2 -14.4 12.15 -14.45 12.05 -14.8 11.85 -15.1 11.8 -15.15 11.5 -15.4 11.8 -15.1 11.95 -14.85 11.95 -14.75 Q12.0 -14.75 11.85 -14.75 L11.55 -14.95 11.35 -15.1 Q10.9 -15.4 10.7 -15.4 L10.35 -15.4 10.35 -15.35 10.3 -15.35 10.25 -15.3 9.7 -14.85 9.6 -14.7 9.45 -14.5 9.5 -14.6 9.4 -14.5 9.35 -14.35 Q9.2 -14.0 9.1 -13.55 L9.05 -13.2 9.05 -12.95 Q9.05 -12.75 9.1 -12.55 L9.1 -12.45 Q9.15 -12.3 9.2 -12.2 L9.3 -11.95 9.3 -12.1 Q9.4 -12.0 9.6 -12.0 L9.65 -12.05 9.6 -12.05 Q9.5 -12.05 9.5 -12.1 L9.55 -12.15 9.6 -12.15 10.05 -12.5 10.4 -12.75 10.25 -12.85 10.25 -12.95 Q10.6 -12.9 10.85 -12.75 L11.0 -12.75 11.0 -12.7 10.95 -12.65 11.3 -12.35 11.45 -12.1 11.6 -12.05 11.5 -12.05 11.5 -12.0 11.55 -11.95 11.6 -11.85 11.7 -11.5 Q11.85 -11.35 11.85 -11.3 L11.8 -11.1 11.65 -10.95 11.45 -10.8 10.95 -10.3 10.4 -9.9 10.15 -9.7 9.9 -9.55 Q9.35 -9.2 8.85 -8.9 L8.75 -8.8 8.2 -8.5 7.9 -8.4 7.8 -8.35 7.6 -8.35 7.3 -8.3 6.75 -8.25 6.55 -8.25 6.6 -8.2 Q7.05 -7.85 7.4 -7.45 7.65 -7.15 7.8 -6.95 L7.75 -6.5 Q7.7 -6.3 7.65 -6.1 L7.6 -5.95 7.55 -5.9 7.45 -5.75 7.45 -5.7 7.35 -5.7 7.2 -5.65 7.05 -5.65 6.95 -5.7 6.0 -5.9 5.85 -5.95 5.7 -5.95 5.1 -5.9 5.05 -5.9 5.0 -5.8 5.0 -5.55 4.95 -5.45 4.9 -5.45 4.85 -5.45 4.85 -5.6 Q4.8 -5.7 4.8 -5.8 L4.8 -5.95 Q4.85 -6.15 4.85 -6.35 L4.85 -6.45 Q5.7 -6.65 6.55 -6.45 L7.15 -6.25 7.25 -6.2 7.4 -6.15 7.4 -6.2 7.5 -6.4 7.55 -6.75 7.55 -6.8 Q7.25 -7.2 6.6 -7.7 5.4 -8.75 4.6 -8.75 L4.55 -8.75 Q4.25 -8.2 3.9 -7.65 L3.75 -7.45 3.75 -7.4 3.75 -7.35 3.7 -7.25 3.7 -7.05 3.6 -6.7 3.55 -6.7 3.55 -7.05 3.55 -7.2 3.6 -7.55 3.65 -7.55 3.65 -7.65 Q3.7 -8.15 4.2 -8.7 4.05 -8.6 3.9 -8.5 L3.7 -8.4 3.35 -8.05 2.95 -7.6 2.9 -7.5 2.85 -7.35 2.85 -7.3 2.9 -7.3 3.0 -7.15 3.55 -6.55 3.6 -6.5 3.65 -6.45 4.1 -6.0 Q3.9 -6.35 3.9 -6.55 L3.9 -6.6 3.9 -6.65 3.95 -6.85 4.05 -6.85 Q4.3 -6.15 4.7 -5.45 L4.75 -5.4 5.05 -5.2 Q5.25 -5.05 5.4 -5.0 L5.5 -5.0 5.55 -4.9 5.55 -4.85 5.45 -4.85 5.55 -4.7 5.6 -4.65 6.2 -3.9 Q6.3 -3.65 6.5 -3.45 L6.9 -3.15 7.1 -2.95 7.45 -2.8 7.5 -2.8 7.7 -2.75 7.85 -2.7 7.9 -2.65 8.25 -2.65 8.25 -2.6 9.0 -2.6 Q11.35 -3.05 12.95 -3.8 L13.5 -4.05 13.6 -4.1 Q14.25 -4.5 14.8 -4.95 L14.8 -5.0 15.4 -5.6 15.45 -5.7 16.0 -6.4 Q16.55 -7.1 17.0 -7.5 17.05 -7.6 17.3 -7.7 L17.35 -7.7 17.4 -7.75 Q17.7 -8.05 18.1 -8.0 18.4 -7.95 19.15 -7.65 L19.15 -7.6 Q19.1 -7.5 18.9 -7.5 18.85 -7.5 18.75 -7.6 18.7 -7.65 18.6 -7.65 L17.6 -7.55 17.2 -7.35 17.2 -7.15 Q17.2 -6.9 16.65 -6.15 16.3 -5.7 15.9 -5.25 L15.1 -4.5 14.5 -4.05 Q13.6 -3.4 12.7 -3.0 L12.6 -2.95 12.6 -2.9 12.55 -2.85 12.55 -2.7 12.5 -2.6 12.85 -2.7 13.25 -2.8 13.4 -2.9 13.55 -2.9 14.75 -3.35 15.9 -3.75 16.05 -3.8 Q17.95 -4.55 19.95 -4.9 21.4 -5.15 22.35 -5.1 L22.45 -5.1 22.45 -5.05 22.5 -5.05 22.7 -5.1 22.75 -5.05 22.8 -5.05 Q22.9 -4.95 23.05 -4.9 23.65 -5.2 24.15 -5.7 24.5 -5.95 25.15 -6.65 L25.35 -6.9 Q25.25 -6.45 25.0 -5.95 L24.8 -5.65 24.35 -5.1 24.1 -4.8 23.9 -4.5 23.9 -4.45 23.85 -4.25 24.25 -4.45 24.6 -4.55 24.85 -4.75 Q26.45 -5.7 26.45 -6.9 L26.4 -7.0 26.3 -7.6 26.35 -7.85 26.45 -7.95 26.65 -8.1 26.7 -7.95 26.7 -8.15 26.65 -8.15 26.7 -8.2 27.05 -8.5 27.15 -8.6 27.25 -8.7 Q28.05 -9.6 28.95 -10.9 L29.4 -11.55 29.4 -11.6 29.5 -11.7 29.75 -12.1 Q30.6 -13.5 30.95 -14.6 31.3 -15.55 31.3 -16.3 L31.3 -16.85 31.15 -17.45 31.05 -18.25 31.05 -18.3 Q30.95 -18.4 30.65 -18.4 28.3 -18.4 26.05 -16.95 L25.05 -16.25 Q24.65 -15.85 24.3 -15.45 23.85 -14.85 23.55 -14.1 L23.3 -13.4 Q23.7 -13.65 24.3 -14.1 L24.55 -14.2 Q24.9 -14.3 25.4 -14.35 L26.1 -14.35 Q27.15 -14.35 27.55 -14.1 L27.65 -14.05 26.65 -14.25 25.2 -14.2 Q24.65 -14.1 24.45 -13.95 24.3 -13.9 24.25 -13.75 24.05 -13.65 23.85 -13.55 L23.75 -13.4 23.75 -13.35 23.7 -13.35 23.35 -13.0 23.3 -13.0 23.2 -13.0 23.15 -12.75 Q23.1 -12.55 23.1 -12.35 L23.15 -12.35 23.65 -12.6 23.8 -12.6 23.85 -12.65 24.15 -12.75 24.3 -12.75 24.75 -12.9 24.8 -12.9 Q26.2 -13.15 26.45 -12.6 L26.45 -12.55 26.3 -12.55 25.8 -12.6 25.3 -12.7 Q24.55 -12.7 23.55 -12.25 L23.4 -12.15 23.25 -12.1 23.1 -12.0 23.0 -11.9 23.0 -11.85 22.85 -11.8 22.65 -11.55 22.55 -11.45 22.55 -11.7 22.5 -11.75 22.5 -11.8 22.5 -12.2 22.45 -12.4 22.5 -12.7 Q22.5 -13.0 22.55 -13.35 L22.6 -13.45 Q22.9 -14.7 23.8 -15.8 24.3 -16.55 25.0 -17.15 L25.95 -17.85 26.15 -18.0 26.25 -18.05 26.6 -18.3 27.1 -18.55 26.9 -18.5 26.15 -18.4 25.9 -18.3 25.7 -18.25 25.15 -18.1 24.95 -17.95 23.85 -16.9 23.8 -16.85 23.55 -16.55 Q23.25 -16.15 23.0 -15.7 22.5 -14.8 22.35 -13.6 L22.3 -13.55 22.3 -13.25 22.15 -13.25 Q22.1 -13.4 22.1 -13.7 L22.1 -13.75 Q22.15 -14.65 23.1 -16.15 L23.2 -16.35 Q24.1 -17.6 24.95 -18.05 L24.0 -17.7 Q22.15 -17.1 21.7 -16.95 L21.55 -17.1 21.55 -17.15 Q21.65 -17.45 22.45 -17.8 22.05 -18.2 21.2 -18.85 L21.4 -18.5 Q21.85 -17.85 21.9 -17.65 L21.85 -17.65 21.7 -17.8 21.65 -17.8 Q20.7 -18.55 19.5 -18.95 18.75 -19.2 17.85 -19.3 L17.6 -19.3 Q16.4 -19.3 13.95 -18.35 L13.35 -18.05 13.75 -18.3 14.05 -18.5 Q15.05 -19.0 15.9 -19.3 15.7 -19.5 15.55 -20.1 15.45 -20.4 15.4 -20.75 M12.35 -17.25 Q12.65 -17.35 13.35 -17.4 14.45 -17.5 14.95 -17.45 15.9 -17.15 16.9 -16.7 L18.45 -15.9 18.55 -15.8 18.4 -15.85 18.15 -15.9 Q17.9 -15.9 17.4 -16.15 L16.4 -16.6 Q14.9 -17.35 13.85 -17.35 13.2 -17.35 12.7 -17.2 L12.2 -17.05 12.1 -17.05 12.1 -17.1 Q12.1 -17.2 12.35 -17.25 M14.0 -18.1 Q14.3 -18.2 15.65 -17.75 16.9 -17.35 17.25 -17.15 16.65 -17.05 14.0 -18.05 L14.0 -18.1 M12.15 -13.7 L12.15 -13.75 Q12.5 -14.7 12.9 -15.05 12.45 -14.05 12.2 -13.3 11.9 -12.3 11.9 -11.5 L11.85 -11.5 Q11.8 -11.75 11.8 -12.1 L11.8 -12.25 11.85 -12.65 Q11.9 -13.1 12.15 -13.7 M17.5 -14.95 L16.95 -15.1 16.9 -15.1 Q16.4 -15.1 15.9 -14.85 L15.2 -14.4 15.1 -14.45 Q15.05 -14.45 15.05 -14.55 L15.1 -14.65 Q14.8 -14.4 14.55 -14.1 L14.5 -14.05 14.45 -13.95 Q14.05 -13.45 14.0 -12.9 L14.0 -12.8 13.95 -12.65 13.95 -12.6 Q13.95 -12.25 14.05 -12.1 L14.1 -12.1 Q14.2 -12.0 14.5 -11.8 L14.75 -11.9 14.85 -11.9 15.1 -11.85 15.2 -11.85 15.7 -11.7 Q15.9 -11.6 16.0 -11.5 L16.1 -11.4 16.5 -11.05 16.95 -10.6 17.35 -10.15 17.7 -9.75 17.85 -9.6 17.75 -9.75 17.8 -9.8 Q17.95 -9.75 18.4 -9.3 L18.45 -9.25 18.5 -9.25 18.55 -9.2 18.6 -9.2 18.6 -9.15 18.65 -9.15 Q19.0 -9.0 19.4 -8.9 L19.75 -8.85 20.0 -8.8 Q20.0 -8.7 19.95 -8.65 L19.6 -8.65 19.15 -8.65 18.9 -8.75 Q18.75 -8.8 18.55 -8.9 L18.25 -8.9 Q18.05 -8.95 17.85 -9.1 L17.65 -9.3 17.0 -10.2 Q16.45 -10.9 15.8 -11.25 15.45 -11.45 15.05 -11.5 L15.1 -11.45 15.0 -11.5 14.95 -11.4 15.25 -11.3 15.75 -11.0 Q16.9 -10.25 17.1 -9.6 L17.1 -9.55 17.15 -9.6 17.25 -9.6 17.25 -9.5 Q17.25 -9.35 17.15 -9.15 L17.45 -8.8 Q17.5 -8.75 17.35 -8.75 17.15 -8.75 16.95 -8.95 16.6 -8.6 16.1 -8.55 L15.95 -8.5 15.7 -8.5 Q15.55 -8.5 15.45 -8.55 L15.4 -8.55 Q15.05 -8.65 14.75 -8.9 14.45 -9.15 14.4 -9.4 14.3 -9.6 14.25 -9.85 L14.25 -10.1 Q14.25 -10.45 14.35 -10.7 L14.35 -10.75 14.3 -10.8 14.25 -10.8 Q14.15 -10.85 14.1 -10.95 L14.1 -11.0 14.15 -11.05 14.2 -11.25 Q14.05 -11.1 14.0 -10.9 L13.95 -10.85 13.95 -10.8 Q13.8 -10.25 13.7 -10.0 L13.6 -10.0 13.6 -10.1 13.6 -10.2 Q13.6 -10.55 13.9 -11.05 14.0 -11.25 14.15 -11.4 L14.1 -11.45 14.3 -11.5 14.3 -11.55 Q13.95 -11.65 13.8 -12.05 L13.75 -12.15 Q13.65 -12.35 13.65 -12.7 13.65 -13.15 13.8 -13.45 L13.85 -13.5 13.95 -13.75 Q14.5 -14.85 16.15 -15.55 L16.4 -15.55 16.5 -15.45 16.1 -15.3 16.5 -15.35 Q17.05 -15.5 17.5 -15.4 18.0 -15.25 18.05 -14.95 L18.05 -14.85 17.95 -14.85 17.6 -14.95 17.5 -14.95 M18.35 -13.05 L18.3 -13.1 18.3 -13.15 18.15 -13.4 18.15 -13.5 18.2 -13.5 18.4 -13.4 18.5 -13.3 18.5 -13.25 18.85 -12.9 18.85 -12.8 18.9 -12.75 18.95 -12.65 18.95 -12.6 19.15 -12.2 Q19.25 -11.9 19.25 -11.05 19.3 -10.55 19.4 -10.15 L19.4 -10.1 Q19.6 -9.8 19.9 -9.55 L19.8 -9.35 Q19.8 -9.25 19.95 -9.0 L19.8 -9.1 19.6 -9.3 Q19.25 -9.35 19.05 -9.6 L19.05 -9.7 Q18.85 -10.0 18.8 -10.6 L18.7 -11.95 Q18.65 -12.55 18.4 -12.95 L18.35 -13.05 M18.35 -14.1 L18.3 -14.15 18.3 -14.2 18.25 -14.2 18.25 -14.25 Q17.85 -14.6 17.35 -14.7 L17.2 -14.7 Q16.5 -14.7 16.15 -14.55 L15.8 -14.35 15.75 -14.35 Q15.7 -14.35 15.7 -14.4 L15.7 -14.5 Q15.7 -15.0 16.8 -14.9 L17.35 -14.85 17.4 -14.85 17.45 -14.85 Q17.75 -14.75 18.0 -14.65 L18.2 -14.55 Q18.5 -14.4 18.75 -14.15 18.95 -13.9 19.1 -13.65 19.3 -13.2 19.3 -12.7 L19.3 -12.6 19.25 -12.55 19.15 -12.55 19.15 -12.6 19.0 -12.95 18.65 -13.6 18.35 -14.1 M10.85 -12.45 L10.85 -12.5 10.8 -12.45 10.85 -12.4 10.95 -12.4 10.85 -12.45 M10.1 -11.7 L9.95 -11.7 9.9 -11.3 9.8 -10.85 9.85 -10.75 9.95 -10.5 10.2 -10.15 10.3 -10.05 10.7 -10.35 10.65 -10.35 Q10.45 -10.35 10.35 -10.5 10.2 -10.55 10.1 -10.75 10.0 -11.0 9.95 -11.15 L9.95 -11.2 Q9.95 -11.4 10.0 -11.5 L10.1 -11.65 10.1 -11.7 M11.4 -11.7 Q11.35 -11.95 11.15 -12.15 L11.05 -12.3 10.8 -12.3 10.65 -12.2 10.6 -12.15 10.55 -12.1 10.7 -12.05 10.8 -12.0 Q11.15 -11.9 11.4 -11.7 L11.4 -11.7 M10.4 -12.15 L10.45 -12.2 10.35 -12.15 10.4 -12.15 M10.75 -10.85 L10.85 -10.9 Q10.95 -10.95 10.95 -11.15 10.95 -11.55 10.55 -11.55 L10.5 -11.55 Q10.15 -11.55 10.15 -11.2 10.15 -11.05 10.15 -11.0 10.25 -10.8 10.55 -10.8 L10.75 -10.85 M10.5 -11.45 L10.5 -11.25 Q10.45 -11.15 10.5 -11.05 L10.5 -11.0 10.4 -10.95 Q10.35 -11.0 10.3 -11.0 L10.25 -11.1 10.25 -11.4 10.5 -11.45 M11.1 -11.0 L11.1 -10.85 11.15 -10.85 11.25 -10.8 11.25 -10.85 11.35 -10.95 11.4 -11.15 Q11.25 -11.15 11.15 -11.1 L11.1 -11.0 M10.7 -10.35 L10.7 -10.35 M11.5 -9.35 L11.55 -9.4 11.8 -9.6 12.35 -10.15 13.0 -10.75 12.6 -10.35 12.45 -10.2 11.05 -8.65 11.0 -8.55 10.4 -7.95 Q9.75 -7.2 9.35 -6.65 L9.25 -6.5 9.2 -6.5 9.45 -6.9 Q9.95 -7.7 10.9 -8.75 L11.5 -9.35 M13.0 -10.75 L13.0 -10.75 M9.5 -9.65 L9.65 -9.65 9.9 -9.8 10.0 -9.85 Q9.85 -9.95 9.7 -10.35 L9.65 -10.4 9.65 -10.35 9.4 -9.75 9.4 -9.65 9.45 -9.7 9.45 -9.7 9.4 -9.65 9.5 -9.65 M9.3 -9.45 L9.45 -9.55 9.35 -9.55 9.3 -9.45 M9.15 -9.25 L9.15 -9.2 9.25 -9.3 9.15 -9.25 M9.9 -6.45 L10.1 -6.4 10.1 -6.15 Q9.9 -6.3 9.9 -6.35 L9.9 -6.45 M8.75 -5.15 L8.8 -5.25 Q9.0 -5.25 9.0 -5.2 L9.0 -5.15 8.75 -5.15 M9.8 -4.2 L9.65 -4.2 Q9.65 -4.25 9.7 -4.35 L9.8 -4.5 Q9.85 -4.55 9.85 -4.4 L9.8 -4.25 9.8 -4.2 M13.6 -7.7 Q13.45 -7.85 13.35 -8.0 13.25 -8.25 13.25 -8.8 L13.25 -8.9 13.3 -9.35 Q13.35 -9.45 13.4 -9.45 13.35 -9.25 13.35 -8.85 L13.35 -8.55 Q13.4 -8.2 13.45 -8.05 13.5 -7.9 13.6 -7.8 13.8 -7.5 14.15 -7.25 13.8 -7.5 13.6 -7.7 M5.8 -3.3 L5.8 -3.35 6.05 -3.1 5.8 -3.3 M6.25 -2.1 L5.95 -2.3 5.9 -2.35 6.0 -2.1 Q6.2 -1.7 6.35 -1.55 L6.25 -1.85 6.25 -2.1 M6.35 -1.9 L6.4 -1.65 6.4 -1.55 6.35 -1.55 6.4 -1.5 6.65 -1.95 6.3 -2.1 6.35 -1.9 M10.55 -2.25 L10.55 -2.2 11.45 -0.65 11.65 -0.65 11.65 -0.7 Q11.75 -0.7 11.85 -0.8 L11.8 -0.95 11.8 -1.35 Q11.8 -1.95 11.95 -2.55 L11.85 -2.75 11.45 -2.55 10.55 -2.25 M11.25 -2.25 Q11.3 -2.05 11.35 -1.5 11.4 -1.0 11.5 -0.7 L11.45 -0.7 Q11.35 -0.95 11.3 -1.5 11.25 -2.1 11.2 -2.25 L11.25 -2.25 M26.1 -9.4 L26.45 -9.85 Q27.0 -10.7 27.05 -11.5 27.15 -11.9 27.15 -12.2 L27.15 -12.65 27.05 -13.05 Q27.2 -12.95 27.3 -12.75 27.4 -12.5 27.4 -11.85 27.3 -11.1 27.1 -10.4 L26.4 -9.55 26.15 -9.3 26.05 -9.4 26.1 -9.4 M20.45 -7.9 Q20.45 -7.55 19.95 -6.85 19.4 -6.1 18.95 -6.0 19.75 -6.65 20.1 -7.15 20.5 -7.85 20.3 -8.35 L20.35 -8.4 20.45 -7.9 M14.65 -11.0 L14.6 -11.0 14.55 -10.9 Q14.4 -10.65 14.35 -10.35 L14.35 -10.1 Q14.35 -9.65 14.55 -9.35 L14.55 -9.3 14.95 -9.1 Q15.45 -8.8 15.65 -8.8 16.25 -8.8 16.6 -8.95 16.7 -9.05 16.75 -9.15 L16.65 -9.25 16.4 -9.55 16.3 -9.75 16.05 -9.55 Q15.7 -9.3 15.6 -9.3 L15.4 -9.35 15.15 -9.35 Q14.7 -9.35 14.55 -9.7 14.5 -9.85 14.5 -10.05 14.5 -10.5 14.7 -10.75 L14.85 -10.85 14.65 -10.95 14.65 -11.0 M15.4 -9.75 L15.45 -9.8 15.55 -10.0 15.55 -10.1 Q15.5 -10.6 15.1 -10.6 L15.05 -10.6 Q14.65 -10.6 14.65 -10.1 L14.7 -9.9 Q14.75 -9.7 15.15 -9.7 15.3 -9.7 15.4 -9.75 M15.1 -10.4 L15.1 -10.3 15.15 -10.25 15.15 -10.2 15.1 -10.05 15.0 -9.9 Q14.9 -10.05 14.9 -10.1 L14.95 -10.2 Q14.95 -10.3 15.05 -10.4 L15.1 -10.4 M12.25 -11.3 Q12.25 -12.25 12.9 -13.95 13.6 -15.65 14.15 -16.1 13.4 -15.0 12.95 -13.55 12.6 -12.6 12.3 -11.05 12.25 -11.15 12.25 -11.3 M13.95 -11.55 Q13.65 -11.55 13.5 -11.75 13.3 -11.95 13.3 -12.1 L13.4 -12.1 13.7 -11.8 Q13.9 -11.6 14.05 -11.55 L13.95 -11.55 M14.05 -9.1 L14.05 -9.15 Q14.05 -9.25 14.1 -9.25 L14.15 -9.3 14.7 -8.55 14.75 -8.45 Q15.05 -8.1 15.5 -7.95 15.75 -7.8 16.1 -7.75 L16.05 -7.7 15.85 -7.65 Q15.0 -7.65 14.45 -8.25 14.05 -8.75 14.05 -9.1 M16.05 -10.1 L15.95 -10.2 15.95 -10.15 15.85 -10.15 15.75 -10.1 15.7 -10.1 Q15.65 -10.0 15.65 -9.9 L15.65 -9.8 15.7 -9.7 15.75 -9.65 16.0 -9.9 16.05 -10.1 M16.1 -9.95 L16.1 -9.95 M12.0 -2.7 L12.0 -2.7 M20.75 -3.55 L20.75 -3.7 Q21.6 -4.0 22.3 -4.3 L22.4 -4.4 20.6 -3.9 17.55 -3.1 18.65 -2.6 Q20.5 -1.7 21.7 -1.3 22.05 -1.75 22.35 -2.3 22.45 -2.45 23.1 -3.65 L22.9 -3.6 22.7 -3.4 22.6 -3.4 Q22.6 -3.45 22.6 -3.55 22.6 -3.6 22.95 -4.0 L22.7 -4.0 22.8 -4.05 Q22.0 -3.7 21.0 -3.55 L20.75 -3.55 M30.85 -18.9 L30.85 -18.9 M24.1 -12.1 Q25.1 -12.05 25.75 -11.35 26.35 -10.8 26.35 -10.2 L26.3 -9.85 26.25 -9.85 26.2 -9.8 Q25.9 -10.65 25.65 -11.0 25.15 -11.7 24.1 -11.85 L24.1 -12.1" fill="#101010" fill-rule="evenodd" stroke="none"/>
  </g>
</svg>
