<?xml version="1.0" encoding="UTF-8" standalone="no"?>
<svg xmlns:ffdec="https://www.free-decompiler.com/flash" xmlns:xlink="http://www.w3.org/1999/xlink" ffdec:objectType="shape" height="19.4px" width="18.1px" xmlns="http://www.w3.org/2000/svg">
  <g transform="matrix(1.0, 0.0, 0.0, 1.0, -6.65, 24.05)">
    <path d="M21.0 -23.25 Q20.5 -23.0 19.7 -22.65 18.75 -22.2 17.8 -21.85 16.2 -21.2 13.5 -20.8 L12.25 -20.65 12.1 -20.6 12.2 -20.6 12.25 -20.55 12.55 -20.4 Q13.6 -19.95 15.05 -18.7 L17.85 -16.2 Q18.8 -15.3 19.35 -14.2 L19.4 -14.1 19.55 -13.85 Q20.0 -12.65 20.0 -11.4 20.0 -11.2 19.7 -10.25 L19.6 -9.85 Q19.45 -9.3 19.2 -8.6 19.1 -7.9 18.5 -6.65 L18.45 -6.6 18.4 -6.4 19.25 -6.9 Q20.35 -7.9 20.85 -8.45 22.2 -10.0 22.2 -11.3 L22.2 -11.35 22.4 -11.95 22.45 -11.3 Q22.45 -10.5 22.15 -9.9 21.9 -9.45 21.05 -8.4 L20.25 -7.45 20.4 -7.5 Q21.1 -7.95 22.45 -8.6 23.55 -9.2 23.8 -9.7 24.0 -10.15 24.15 -12.3 24.3 -14.0 24.3 -14.7 24.3 -17.0 23.7 -19.2 23.0 -21.65 21.6 -23.65 L21.55 -23.6 21.0 -23.25 M22.5 -23.15 L22.95 -22.15 Q24.05 -19.85 24.4 -18.3 24.75 -16.9 24.75 -14.7 24.75 -13.85 24.6 -12.1 24.4 -9.85 24.15 -9.5 23.8 -9.0 22.75 -8.35 21.4 -7.6 20.7 -7.15 20.05 -6.7 19.0 -6.1 L18.4 -5.75 17.8 -5.45 Q17.7 -5.3 17.35 -5.05 16.8 -4.65 16.2 -4.65 15.75 -4.65 15.4 -4.8 L15.35 -4.8 Q15.15 -4.9 14.8 -4.95 14.5 -5.0 14.15 -5.1 12.0 -5.4 10.25 -7.35 9.55 -8.1 8.95 -9.1 L8.3 -10.2 Q7.35 -11.75 6.95 -13.0 6.65 -14.05 6.65 -15.6 6.65 -17.35 7.15 -18.4 8.0 -20.2 10.35 -20.7 L10.45 -20.7 19.2 -22.7 Q19.8 -22.85 20.8 -23.6 21.6 -24.2 21.9 -24.0 22.2 -23.8 22.5 -23.15 M17.3 -11.8 Q17.05 -11.95 16.65 -12.25 16.05 -12.75 15.6 -13.2 15.3 -13.5 15.0 -14.0 L14.85 -14.25 15.5 -13.55 Q16.9 -12.3 17.85 -12.2 17.95 -12.15 18.05 -12.15 L18.65 -12.15 19.25 -12.2 19.5 -12.3 19.55 -12.3 19.55 -12.45 19.6 -12.45 Q19.45 -13.15 19.15 -13.8 18.7 -14.8 17.7 -15.8 16.95 -16.6 15.4 -17.9 L15.15 -18.05 Q14.9 -18.2 14.5 -18.5 L12.9 -19.7 12.35 -20.05 Q12.25 -20.1 12.1 -20.2 L11.95 -20.3 11.8 -20.25 11.75 -20.2 Q11.6 -20.15 11.5 -20.1 9.65 -19.45 8.95 -18.45 8.45 -17.7 8.45 -16.5 L8.45 -16.4 Q8.5 -16.15 8.55 -15.85 8.7 -15.2 9.15 -14.45 L9.3 -14.2 Q10.05 -13.0 11.0 -12.55 L11.05 -12.5 11.15 -12.45 11.2 -12.4 Q12.0 -11.85 12.6 -11.8 L12.65 -11.75 12.85 -11.7 12.95 -11.65 12.9 -11.7 13.05 -11.65 13.0 -11.7 12.9 -11.7 Q12.2 -12.1 11.6 -14.05 L11.6 -14.1 11.4 -14.7 11.4 -14.8 Q11.8 -14.3 12.65 -13.7 13.05 -13.3 13.45 -13.0 L13.65 -12.9 Q14.3 -12.5 15.45 -12.2 L15.5 -12.2 15.55 -12.15 17.05 -11.8 17.65 -11.65 Q17.5 -11.7 17.3 -11.8 M10.9 -20.35 Q8.3 -20.15 7.45 -18.05 7.1 -17.3 7.05 -16.35 L7.05 -15.6 Q7.05 -14.45 7.45 -13.05 7.9 -11.45 8.75 -10.05 9.85 -8.2 11.45 -7.0 L11.25 -7.25 Q11.0 -7.7 10.75 -8.25 10.6 -8.8 10.5 -9.3 L10.45 -9.7 Q9.1 -11.1 8.9 -11.4 8.0 -12.55 8.0 -13.6 8.0 -14.2 8.05 -14.4 8.15 -14.6 8.4 -14.9 7.95 -15.75 7.95 -16.55 7.95 -17.75 8.9 -18.8 9.45 -19.4 10.25 -19.95 L10.9 -20.35 M8.45 -16.85 L8.45 -16.75 Q8.45 -17.05 8.5 -17.35 8.45 -17.1 8.45 -16.85 M8.6 -14.55 L8.55 -14.4 8.4 -14.1 Q8.3 -13.8 8.3 -13.6 L8.3 -13.55 Q8.35 -12.75 8.9 -11.9 L9.1 -11.65 9.2 -11.5 9.7 -10.9 10.4 -10.15 Q10.4 -10.65 10.4 -11.35 10.35 -11.8 10.25 -12.2 10.05 -12.25 10.05 -12.3 L10.15 -12.35 10.1 -12.35 10.2 -12.45 10.0 -12.95 9.7 -13.25 Q9.1 -13.85 8.7 -14.45 L8.6 -14.55 M10.5 -12.55 L10.5 -12.55 M11.0 -11.6 Q11.1 -11.4 11.3 -11.15 11.7 -10.55 12.4 -10.55 L12.6 -10.65 12.85 -10.75 13.05 -11.05 13.2 -11.25 13.1 -11.4 12.7 -11.45 12.65 -11.35 12.6 -11.3 Q12.5 -11.2 12.25 -11.2 11.65 -11.2 11.4 -11.55 L11.35 -11.6 Q11.3 -11.75 11.25 -11.85 L11.0 -11.95 10.95 -11.85 Q10.95 -11.75 11.0 -11.6 M10.75 -11.95 L10.75 -12.05 10.6 -12.1 Q10.7 -11.6 10.8 -11.0 L10.85 -10.5 10.9 -10.35 11.0 -9.75 11.05 -9.4 11.05 -9.25 11.15 -8.8 Q11.5 -7.55 12.4 -6.75 13.1 -6.1 14.25 -5.6 L14.0 -5.85 14.45 -5.55 Q14.75 -5.4 14.95 -5.3 15.35 -5.05 15.85 -4.95 L16.2 -4.95 Q16.6 -4.95 17.1 -5.15 17.65 -5.65 18.05 -6.3 18.3 -6.8 18.55 -7.65 18.75 -8.35 18.9 -8.9 L19.0 -9.25 19.35 -10.9 19.5 -12.05 19.45 -12.0 Q19.35 -11.95 19.2 -11.95 L19.1 -11.9 18.95 -11.9 18.75 -11.9 18.65 -11.7 Q18.65 -11.5 18.45 -11.15 L18.35 -11.0 18.3 -10.95 18.25 -10.95 Q18.0 -10.65 17.75 -10.45 17.4 -10.3 17.0 -10.3 16.0 -10.3 15.35 -11.1 14.95 -11.55 14.85 -11.9 L14.65 -11.95 Q14.75 -11.55 14.9 -11.3 L15.0 -11.15 15.0 -11.1 Q15.3 -10.7 15.7 -10.5 15.75 -10.45 15.8 -10.4 16.45 -10.1 17.35 -10.1 17.5 -10.1 17.6 -10.15 17.75 -10.25 17.9 -10.25 L18.1 -10.2 Q17.75 -9.9 17.0 -9.9 16.6 -9.9 16.2 -10.05 L16.1 -10.05 15.8 -10.25 15.6 -10.35 15.35 -10.6 15.1 -10.8 15.1 -10.85 15.05 -10.9 Q14.7 -11.3 14.55 -11.55 14.4 -11.8 14.4 -11.95 L14.3 -11.95 14.3 -12.05 Q14.2 -12.05 14.2 -12.1 L14.15 -12.2 Q14.15 -12.3 14.2 -12.3 L14.2 -12.35 13.85 -12.55 Q12.7 -13.1 12.15 -13.8 L12.05 -13.85 12.1 -13.75 Q12.25 -13.4 12.4 -13.1 L12.4 -13.05 Q12.4 -12.9 12.75 -12.35 L12.85 -12.3 12.9 -12.3 13.2 -12.0 13.25 -11.85 13.3 -11.85 13.45 -11.4 13.65 -11.0 13.65 -10.8 13.6 -10.4 13.45 -9.85 Q13.25 -9.05 13.25 -8.8 13.25 -7.7 14.5 -7.65 L14.5 -7.6 Q14.45 -7.5 14.3 -7.5 13.45 -7.5 13.2 -8.1 13.1 -8.35 13.1 -8.8 13.1 -9.2 13.3 -9.85 L13.35 -10.1 13.4 -10.25 13.45 -10.7 13.45 -11.05 13.3 -11.3 Q13.25 -11.05 12.85 -10.55 L12.45 -10.15 Q12.3 -10.0 12.1 -9.95 11.95 -9.9 11.75 -9.9 11.65 -9.9 11.55 -9.95 L11.55 -10.05 11.6 -10.0 11.75 -10.0 Q12.1 -10.0 12.45 -10.3 L12.65 -10.5 12.4 -10.4 12.1 -10.4 Q11.8 -10.4 11.6 -10.55 11.4 -10.65 11.3 -10.8 11.15 -10.95 11.05 -11.1 L11.0 -11.2 Q10.85 -11.5 10.8 -11.7 L10.8 -11.75 10.75 -11.75 Q10.75 -11.8 10.75 -11.85 L10.75 -11.95 M11.05 -10.8 L11.2 -10.45 Q11.3 -10.25 11.45 -10.15 L11.4 -10.1 Q11.3 -10.1 11.1 -10.35 10.95 -10.55 10.95 -10.65 10.95 -10.8 11.05 -10.8 M10.7 -9.85 L10.7 -9.85 M17.85 -11.8 L18.2 -11.55 18.15 -11.45 18.1 -11.4 17.2 -11.4 Q17.15 -11.35 17.05 -11.25 L17.0 -11.25 Q16.85 -11.15 16.55 -11.15 16.15 -11.15 15.9 -11.35 L15.6 -11.55 15.6 -11.6 15.5 -11.8 15.45 -11.8 15.45 -11.85 15.05 -11.85 Q15.15 -11.6 15.35 -11.3 15.9 -10.5 16.75 -10.5 17.6 -10.5 18.05 -11.0 L18.15 -11.1 Q18.4 -11.4 18.45 -11.65 L17.95 -11.8 17.85 -11.8 M17.1 -12.3 L17.1 -12.3 M15.75 -8.25 Q15.65 -8.2 15.3 -8.05 14.95 -7.9 14.75 -7.85 L14.75 -7.9 14.7 -7.95 Q14.7 -8.1 15.15 -8.2 L15.75 -8.25 M16.9 -7.35 L17.25 -7.3 Q17.3 -7.4 17.5 -7.25 L17.8 -7.0 17.7 -6.75 Q17.55 -6.8 17.45 -6.95 L17.3 -7.1 16.8 -7.15 16.75 -7.15 Q16.15 -7.15 14.9 -6.85 L13.45 -6.45 Q13.25 -6.45 13.2 -6.5 13.9 -6.65 15.7 -7.2 16.45 -7.35 16.9 -7.35" fill="#101010" fill-rule="evenodd" stroke="none"/>
    <path d="M10.5 -12.55 L10.5 -12.55 M11.0 -11.6 Q10.95 -11.75 10.95 -11.85 L11.0 -11.95 11.25 -11.85 Q11.3 -11.75 11.35 -11.6 L11.4 -11.55 Q11.65 -11.2 12.25 -11.2 12.5 -11.2 12.6 -11.3 L12.65 -11.35 12.7 -11.45 13.1 -11.4 13.2 -11.25 13.05 -11.05 12.85 -10.75 12.6 -10.65 12.4 -10.55 Q11.7 -10.55 11.3 -11.15 11.1 -11.4 11.0 -11.6 M17.85 -11.8 L17.95 -11.8 18.45 -11.65 Q18.4 -11.4 18.15 -11.1 L18.05 -11.0 Q17.6 -10.5 16.75 -10.5 15.9 -10.5 15.35 -11.3 15.15 -11.6 15.05 -11.85 L15.45 -11.85 15.45 -11.8 15.5 -11.8 15.6 -11.6 15.6 -11.55 15.9 -11.35 Q16.15 -11.15 16.55 -11.15 16.85 -11.15 17.0 -11.25 L17.05 -11.25 Q17.15 -11.35 17.2 -11.4 L18.1 -11.4 18.15 -11.45 18.2 -11.55 17.85 -11.8 M17.1 -12.3 L17.1 -12.3" fill="#ffffff" fill-rule="evenodd" stroke="none"/>
    <path d="M19.35 -14.2 Q18.8 -15.3 17.85 -16.2 L15.05 -18.7 Q13.6 -19.95 12.55 -20.4 L12.25 -20.55 12.2 -20.6 12.1 -20.6 12.25 -20.65 13.5 -20.8 Q16.2 -21.2 17.8 -21.85 18.75 -22.2 19.7 -22.65 20.5 -23.0 21.0 -23.25 L20.9 -23.2 Q20.9 -22.95 21.0 -22.5 21.15 -22.0 21.15 -21.8 21.15 -20.5 20.9 -19.65 20.8 -19.15 20.4 -18.25 19.6 -16.6 19.35 -14.2 M10.7 -9.85 L10.7 -9.85" fill="#af481d" fill-rule="evenodd" stroke="none"/>
    <path d="M13.35 -10.1 L13.3 -9.85 Q13.1 -9.2 13.1 -8.8 13.1 -8.35 13.2 -8.1 13.45 -7.5 14.3 -7.5 14.45 -7.5 14.5 -7.6 L14.5 -7.65 Q13.25 -7.7 13.25 -8.8 13.25 -9.05 13.45 -9.85 L13.6 -10.4 13.7 -10.65 Q14.7 -9.3 15.55 -9.3 15.95 -9.3 16.15 -9.45 16.3 -9.55 16.35 -9.7 L16.85 -9.45 Q17.4 -9.25 17.4 -9.2 17.4 -8.65 16.9 -7.35 16.45 -7.35 15.7 -7.2 13.9 -6.65 13.2 -6.5 13.25 -6.45 13.45 -6.45 L14.9 -6.85 Q16.15 -7.15 16.75 -7.15 L16.8 -7.15 16.65 -6.75 15.85 -4.95 Q15.35 -5.05 14.95 -5.3 14.75 -5.4 14.45 -5.55 L14.0 -5.85 14.25 -5.6 Q13.1 -6.1 12.4 -6.75 11.5 -7.55 11.15 -8.8 L11.05 -9.25 11.05 -9.4 11.0 -9.75 Q11.4 -9.45 11.95 -9.45 12.6 -9.45 13.2 -9.95 L13.35 -10.1 M12.1 -13.75 L12.05 -13.85 12.15 -13.8 12.1 -13.75 M15.75 -8.25 L15.15 -8.2 Q14.7 -8.1 14.7 -7.95 L14.75 -7.9 14.75 -7.85 Q14.95 -7.9 15.3 -8.05 15.65 -8.2 15.75 -8.25" fill="#f9bd91" fill-rule="evenodd" stroke="none"/>
    <path d="M8.55 -15.85 Q8.8 -15.15 9.15 -14.45 8.7 -15.2 8.55 -15.85 M12.9 -11.7 L13.0 -11.7 13.05 -11.65 12.9 -11.7 12.95 -11.65 12.85 -11.7 12.9 -11.7" fill="#b18d49" fill-rule="evenodd" stroke="none"/>
    <path d="M10.9 -20.35 L10.25 -19.95 Q9.45 -19.4 8.9 -18.8 7.95 -17.75 7.95 -16.55 7.95 -15.75 8.4 -14.9 8.15 -14.6 8.05 -14.4 8.0 -14.2 8.0 -13.6 8.0 -12.55 8.9 -11.4 9.1 -11.1 10.45 -9.7 L10.5 -9.3 Q10.6 -8.8 10.75 -8.25 11.0 -7.7 11.25 -7.25 L11.45 -7.0 Q9.85 -8.2 8.75 -10.05 7.9 -11.45 7.45 -13.05 7.05 -14.45 7.05 -15.6 L7.05 -16.35 Q7.1 -17.3 7.45 -18.05 8.3 -20.15 10.9 -20.35" fill="#6b1f16" fill-rule="evenodd" stroke="none"/>
    <path d="M19.35 -14.2 Q19.6 -16.6 20.4 -18.25 20.8 -19.15 20.9 -19.65 21.15 -20.5 21.15 -21.8 21.15 -22.0 21.0 -22.5 20.9 -22.95 20.9 -23.2 L21.0 -23.25 21.55 -23.6 21.6 -23.65 Q23.0 -21.65 23.7 -19.2 24.3 -17.0 24.3 -14.7 24.3 -14.0 24.15 -12.3 24.0 -10.15 23.8 -9.7 23.55 -9.2 22.45 -8.6 21.1 -7.95 20.4 -7.5 L20.25 -7.45 21.05 -8.4 Q21.9 -9.45 22.15 -9.9 22.45 -10.5 22.45 -11.3 L22.4 -11.95 22.2 -11.35 22.2 -11.3 Q22.2 -10.0 20.85 -8.45 20.35 -7.9 19.25 -6.9 L18.4 -6.4 18.45 -6.6 18.5 -6.65 Q19.1 -7.9 19.2 -8.6 19.45 -9.3 19.6 -9.85 L19.7 -10.25 Q20.0 -11.2 20.0 -11.4 20.0 -12.65 19.55 -13.85 L19.4 -14.1 19.35 -14.2" fill="#9a3218" fill-rule="evenodd" stroke="none"/>
    <path d="M12.9 -19.7 Q12.9 -19.55 12.9 -19.4 12.9 -19.25 13.15 -18.95 L13.75 -18.3 Q14.65 -17.2 14.65 -15.25 14.65 -14.4 14.05 -13.7 L13.6 -13.25 13.45 -13.0 Q13.05 -13.3 12.65 -13.7 11.8 -14.3 11.4 -14.8 L11.4 -14.7 11.4 -14.75 Q11.1 -14.95 11.1 -14.2 L11.0 -13.3 10.95 -12.7 Q10.95 -12.65 11.0 -12.55 10.05 -13.0 9.3 -14.2 L9.15 -14.45 Q8.8 -15.15 8.55 -15.85 8.5 -16.15 8.45 -16.4 L8.45 -16.5 Q8.45 -17.7 8.95 -18.45 9.65 -19.45 11.5 -20.1 11.6 -20.15 11.75 -20.2 L11.8 -20.25 11.95 -20.3 12.1 -20.2 Q12.25 -20.1 12.35 -20.05 L12.9 -19.7 M17.05 -11.8 L17.2 -11.75 17.3 -11.8 Q17.5 -11.7 17.65 -11.65 L17.05 -11.8 M8.4 -14.1 Q8.4 -13.8 8.65 -13.0 8.9 -12.2 8.9 -12.0 L8.9 -11.9 Q8.35 -12.75 8.3 -13.55 L8.3 -13.6 Q8.3 -13.8 8.4 -14.1" fill="#cda043" fill-rule="evenodd" stroke="none"/>
    <path d="M12.9 -19.7 L14.5 -18.5 Q14.9 -18.2 15.15 -18.05 L15.4 -17.9 Q16.95 -16.6 17.7 -15.8 18.7 -14.8 19.15 -13.8 19.45 -13.15 19.6 -12.45 L19.55 -12.45 19.55 -12.3 19.5 -12.3 19.25 -12.2 18.65 -12.15 18.05 -12.15 Q17.95 -12.15 17.85 -12.2 16.9 -12.3 15.5 -13.55 L14.85 -14.25 15.0 -14.0 Q15.3 -13.5 15.6 -13.2 16.05 -12.75 16.65 -12.25 17.05 -11.95 17.3 -11.8 L17.2 -11.75 17.05 -11.8 15.55 -12.15 15.5 -12.2 15.45 -12.2 Q14.3 -12.5 13.65 -12.9 L13.45 -13.0 13.6 -13.25 14.05 -13.7 Q14.65 -14.4 14.65 -15.25 14.65 -17.2 13.75 -18.3 L13.15 -18.95 Q12.9 -19.25 12.9 -19.4 12.9 -19.55 12.9 -19.7 M11.0 -12.55 Q10.95 -12.65 10.95 -12.7 L11.0 -13.3 11.1 -14.2 Q11.1 -14.95 11.4 -14.75 L11.4 -14.7 11.6 -14.1 11.6 -14.05 Q12.2 -12.1 12.9 -11.7 L12.85 -11.7 12.65 -11.75 12.6 -11.8 Q12.0 -11.85 11.2 -12.4 L11.15 -12.45 11.05 -12.5 11.0 -12.55 M8.4 -14.1 L8.55 -14.4 8.6 -14.55 8.7 -14.45 Q9.1 -13.85 9.7 -13.25 L10.0 -12.95 10.2 -12.45 10.1 -12.35 10.15 -12.35 10.05 -12.3 Q10.05 -12.25 10.25 -12.2 10.35 -11.8 10.4 -11.35 10.4 -10.65 10.4 -10.15 L9.7 -10.9 9.2 -11.5 9.1 -11.65 8.9 -11.9 8.9 -12.0 Q8.9 -12.2 8.65 -13.0 8.4 -13.8 8.4 -14.1" fill="#cd7d43" fill-rule="evenodd" stroke="none"/>
    <path d="M10.75 -12.05 L10.75 -11.95 10.75 -12.05 M11.0 -11.2 L11.05 -11.1 Q11.15 -10.95 11.3 -10.8 L11.25 -10.85 Q11.1 -11.0 11.0 -11.2 M12.4 -10.4 L12.65 -10.5 12.45 -10.3 12.45 -10.35 12.4 -10.4 M11.55 -10.05 L11.55 -9.95 Q11.65 -9.9 11.75 -9.9 11.95 -9.9 12.1 -9.95 L12.35 -10.0 Q12.45 -10.05 12.45 -10.15 L12.85 -10.55 Q13.25 -11.05 13.3 -11.3 L13.45 -11.05 13.45 -10.7 13.4 -10.25 13.35 -10.1 13.2 -9.95 Q12.6 -9.45 11.95 -9.45 11.4 -9.45 11.0 -9.75 L10.9 -10.35 Q11.15 -10.05 11.55 -9.95 L11.55 -10.05 M13.6 -10.4 L13.65 -10.8 13.65 -11.0 13.45 -11.4 13.3 -11.85 13.25 -11.85 13.2 -12.0 12.9 -12.3 12.85 -12.3 12.75 -12.35 Q12.4 -12.9 12.4 -13.05 L12.4 -13.1 Q12.25 -13.4 12.1 -13.75 L12.15 -13.8 Q12.7 -13.1 13.85 -12.55 L14.2 -12.35 14.2 -12.3 Q14.15 -12.3 14.15 -12.2 L14.2 -12.1 Q14.2 -12.05 14.3 -12.05 L14.3 -11.95 14.4 -11.95 Q14.4 -11.8 14.55 -11.55 14.7 -11.3 15.05 -10.9 L15.1 -10.85 15.1 -10.8 15.35 -10.6 15.6 -10.35 15.8 -10.25 16.1 -10.05 16.2 -10.05 Q16.75 -9.8 17.35 -9.8 18.3 -9.8 18.9 -10.55 19.35 -11.1 19.35 -11.45 L19.3 -11.75 19.2 -11.95 Q19.35 -11.95 19.45 -12.0 L19.5 -12.05 19.35 -10.9 19.0 -9.25 18.9 -8.9 Q18.75 -8.35 18.55 -7.65 18.3 -6.8 18.05 -6.3 17.65 -5.65 17.1 -5.15 16.6 -4.95 16.2 -4.95 L15.85 -4.95 16.65 -6.75 16.8 -7.15 17.3 -7.1 17.45 -6.95 Q17.55 -6.8 17.7 -6.75 L17.8 -7.0 17.5 -7.25 Q17.3 -7.4 17.25 -7.3 L16.9 -7.35 Q17.4 -8.65 17.4 -9.2 17.4 -9.25 16.85 -9.45 L16.35 -9.7 Q16.3 -9.55 16.15 -9.45 15.95 -9.3 15.55 -9.3 14.7 -9.3 13.7 -10.65 L13.6 -10.4 M17.75 -10.45 Q18.0 -10.65 18.25 -10.95 L18.3 -10.95 17.95 -10.5 17.75 -10.45 M18.45 -11.15 Q18.65 -11.5 18.65 -11.7 L18.75 -11.9 18.95 -11.9 18.45 -11.15" fill="#e7955f" fill-rule="evenodd" stroke="none"/>
    <path d="M10.75 -12.05 L10.75 -11.95 10.75 -11.85 Q10.75 -11.8 10.75 -11.75 L10.8 -11.75 10.8 -11.7 Q10.85 -11.5 11.0 -11.2 11.1 -11.0 11.25 -10.85 L11.3 -10.8 Q11.4 -10.65 11.6 -10.55 11.8 -10.4 12.1 -10.4 L12.4 -10.4 12.45 -10.35 12.45 -10.3 Q12.1 -10.0 11.75 -10.0 L11.6 -10.0 11.55 -10.05 11.55 -9.95 Q11.15 -10.05 10.9 -10.35 L10.85 -10.5 10.8 -11.0 Q10.7 -11.6 10.6 -12.1 L10.75 -12.05 M12.1 -9.95 Q12.3 -10.0 12.45 -10.15 12.45 -10.05 12.35 -10.0 L12.1 -9.95 M16.2 -10.05 Q16.6 -9.9 17.0 -9.9 17.75 -9.9 18.1 -10.2 L17.9 -10.25 Q17.75 -10.25 17.6 -10.15 17.5 -10.1 17.35 -10.1 16.45 -10.1 15.8 -10.4 15.75 -10.45 15.7 -10.5 15.3 -10.7 15.0 -11.1 L15.0 -11.15 14.9 -11.3 Q14.75 -11.55 14.65 -11.95 L14.85 -11.9 Q14.95 -11.55 15.35 -11.1 16.0 -10.3 17.0 -10.3 17.4 -10.3 17.75 -10.45 L17.95 -10.5 18.3 -10.95 18.35 -11.0 18.45 -11.15 18.95 -11.9 19.1 -11.9 19.2 -11.95 19.3 -11.75 19.35 -11.45 Q19.35 -11.1 18.9 -10.55 18.3 -9.8 17.35 -9.8 16.75 -9.8 16.2 -10.05 M11.05 -10.8 Q10.95 -10.8 10.95 -10.65 10.95 -10.55 11.1 -10.35 11.3 -10.1 11.4 -10.1 L11.45 -10.15 Q11.3 -10.25 11.2 -10.45 L11.05 -10.8" fill="#de7a50" fill-rule="evenodd" stroke="none"/>
  </g>
</svg>
