<?xml version="1.0" encoding="UTF-8" standalone="no"?>
<svg xmlns:ffdec="https://www.free-decompiler.com/flash" xmlns:xlink="http://www.w3.org/1999/xlink" ffdec:objectType="shape" height="19.7px" width="18.9px" xmlns="http://www.w3.org/2000/svg">
  <g transform="matrix(1.0, 0.0, 0.0, 1.0, -9.6, 24.1)">
    <path d="M22.35 -14.35 L22.3 -14.5 Q20.4 -17.1 19.2 -18.9 L19.1 -19.0 Q17.7 -20.6 16.5 -21.45 L16.5 -21.5 16.65 -21.5 Q16.8 -21.5 16.8 -21.55 L16.8 -21.6 17.65 -21.85 17.95 -21.9 17.95 -21.85 18.4 -21.95 19.25 -22.05 19.45 -22.1 20.8 -22.25 22.55 -22.25 23.0 -22.3 23.05 -22.3 23.3 -22.35 23.5 -21.65 Q23.95 -20.05 23.95 -18.45 L24.0 -17.55 Q24.0 -17.3 23.9 -17.15 23.45 -16.6 22.7 -15.3 22.55 -15.05 22.3 -14.45 L22.35 -14.35" fill="#af481d" fill-rule="evenodd" stroke="none"/>
    <path d="M19.15 -13.9 L18.8 -13.95 19.05 -14.0 19.15 -13.9 M18.35 -14.05 Q17.8 -14.15 17.5 -14.25 16.6 -14.5 15.25 -15.55 L15.2 -15.5 Q15.2 -15.1 16.0 -14.65 L15.95 -14.55 15.75 -14.0 15.7 -13.0 15.65 -12.95 Q15.35 -13.1 15.05 -13.3 14.2 -14.15 13.65 -15.3 13.3 -16.0 12.8 -17.35 L12.7 -17.3 12.65 -17.15 Q12.7 -16.4 13.0 -15.65 L12.9 -15.6 12.45 -15.25 12.4 -15.25 12.35 -15.2 12.2 -15.1 12.15 -15.1 12.15 -15.05 12.1 -15.0 Q11.8 -14.8 11.7 -14.8 L11.7 -14.75 11.55 -14.65 11.45 -14.7 Q11.2 -14.9 11.0 -15.15 10.9 -15.4 10.85 -15.75 10.75 -16.25 10.7 -16.8 10.7 -17.75 11.3 -18.65 L11.65 -19.0 Q12.15 -19.5 12.55 -19.8 13.2 -20.3 14.1 -20.65 L14.05 -20.65 12.95 -19.95 Q11.25 -18.7 11.25 -18.1 11.25 -17.8 11.35 -17.75 L11.65 -17.7 Q12.1 -17.85 12.4 -18.0 12.8 -18.25 13.2 -18.6 13.1 -18.3 13.45 -17.75 13.55 -18.5 13.95 -19.4 14.4 -20.4 14.95 -20.8 L14.95 -20.85 Q14.95 -20.95 15.05 -21.0 L15.15 -21.05 15.2 -21.1 15.3 -21.05 15.35 -21.05 15.45 -21.0 15.45 -20.95 15.75 -20.95 15.75 -20.9 15.55 -20.8 15.55 -20.75 15.45 -20.65 15.3 -20.45 15.25 -20.45 15.25 -20.4 15.2 -20.4 15.2 -20.35 15.15 -20.3 15.1 -20.2 15.0 -20.05 14.85 -19.65 14.65 -19.2 14.6 -19.05 Q14.5 -18.6 14.45 -18.1 L14.45 -17.6 14.4 -17.05 14.45 -16.75 14.45 -16.6 Q14.65 -16.35 15.05 -16.35 15.6 -16.35 15.75 -16.8 15.8 -16.95 15.8 -17.35 16.4 -16.1 16.9 -15.35 17.65 -14.3 18.35 -14.05" fill="#be782c" fill-rule="evenodd" stroke="none"/>
    <path d="M12.2 -11.35 Q12.7 -10.75 13.5 -10.75 13.75 -10.75 13.95 -10.85 L14.0 -10.95 13.65 -10.0 13.65 -9.85 13.7 -9.8 13.65 -9.7 13.75 -9.65 13.8 -9.75 14.1 -10.15 14.1 -10.2 Q14.3 -10.6 14.45 -11.0 L14.55 -11.55 14.6 -11.7 14.7 -11.95 14.7 -11.9 Q15.2 -11.25 15.6 -10.9 15.75 -10.75 16.45 -10.4 L17.35 -9.95 Q17.55 -9.85 18.5 -9.6 19.3 -9.4 19.55 -9.05 20.4 -7.95 20.4 -6.4 L19.8 -5.55 19.75 -5.5 19.4 -5.1 19.25 -4.95 Q17.2 -5.05 15.9 -5.4 14.65 -5.95 13.9 -6.55 13.15 -6.9 12.7 -8.05 12.5 -8.3 12.35 -8.9 12.3 -9.2 12.25 -9.5 L12.2 -9.8 12.2 -11.35 M13.7 -9.2 L13.65 -9.2 Q13.65 -9.15 13.65 -9.0 L13.9 -8.85 13.9 -8.85 Q14.1 -8.6 14.45 -8.6 14.7 -8.6 14.85 -8.7 14.95 -8.8 14.95 -8.95 14.95 -9.35 14.35 -9.5 13.75 -9.6 13.7 -9.2 M15.8 -7.3 L15.8 -7.25 Q15.25 -7.2 14.85 -7.05 14.55 -6.95 14.45 -6.8 14.5 -6.7 14.75 -6.7 L15.1 -6.8 15.7 -6.95 17.85 -6.95 19.55 -6.65 19.8 -6.7 19.8 -6.75 Q19.7 -6.9 19.2 -7.0 L17.8 -7.3 15.8 -7.3" fill="#f9bd91" fill-rule="evenodd" stroke="none"/>
    <path d="M14.1 -12.45 L14.0 -11.95 13.95 -11.9 13.55 -11.65 13.5 -11.6 Q13.2 -11.65 13.0 -11.85 L12.85 -12.0 12.75 -12.2 12.7 -12.25 12.7 -12.3 Q12.9 -11.9 13.3 -11.9 13.55 -11.9 13.65 -12.05 L13.45 -12.2 Q13.3 -12.4 13.3 -12.45 13.3 -12.55 13.3 -12.6 L13.35 -12.6 Q13.45 -12.6 13.7 -12.45 L13.8 -12.35 13.95 -12.6 14.05 -12.6 14.05 -12.5 14.1 -12.45 M17.3 -12.75 L17.55 -12.75 17.5 -12.7 Q17.3 -12.5 17.3 -12.05 17.25 -11.65 17.4 -11.35 17.65 -10.65 18.35 -10.65 18.5 -10.65 18.6 -10.75 18.85 -10.85 19.0 -11.15 18.9 -11.2 18.85 -11.25 L18.6 -11.5 Q18.7 -11.7 18.9 -11.6 L19.15 -11.55 Q19.2 -11.8 19.2 -12.0 L19.25 -11.95 Q19.55 -11.7 19.7 -11.45 L19.75 -11.35 19.85 -11.2 19.85 -11.15 Q19.85 -10.9 19.9 -10.7 19.55 -10.35 18.9 -10.25 18.6 -10.15 18.35 -10.1 17.6 -10.25 17.35 -11.0 17.25 -11.25 17.2 -11.6 L17.2 -11.75 17.15 -12.0 17.15 -12.05 Q17.15 -12.5 17.3 -12.75" fill="#ffffff" fill-rule="evenodd" stroke="none"/>
    <path d="M17.1 -20.2 L17.2 -20.1 Q18.3 -19.1 19.45 -17.65 20.7 -16.05 21.5 -14.65 L21.9 -13.85 20.4 -13.8 20.3 -13.85 20.2 -13.85 20.3 -13.8 20.25 -13.8 19.15 -13.9 19.05 -14.0 18.8 -13.95 18.35 -14.05 Q17.65 -14.3 16.9 -15.35 16.4 -16.1 15.8 -17.35 15.8 -16.95 15.75 -16.8 15.6 -16.35 15.05 -16.35 14.65 -16.35 14.45 -16.6 L14.45 -16.75 14.4 -17.05 14.45 -17.6 14.75 -17.55 Q15.4 -17.9 15.95 -18.8 16.5 -19.75 17.1 -20.2 M15.2 -21.1 L15.35 -21.15 15.3 -21.05 15.2 -21.1 15.15 -21.05 15.2 -21.1 M15.45 -21.0 L15.6 -21.15 15.65 -21.15 15.7 -21.1 Q15.85 -21.1 16.05 -20.95 L15.85 -20.95 15.6 -21.0 15.45 -21.0 15.45 -20.95 15.45 -21.0" fill="#aa621a" fill-rule="evenodd" stroke="none"/>
    <path d="M16.05 -20.95 L16.1 -20.95 16.65 -20.55 16.7 -20.55 16.7 -20.5 16.75 -20.5 16.8 -20.45 17.1 -20.2 Q16.5 -19.75 15.95 -18.8 15.4 -17.9 14.75 -17.55 L14.45 -17.6 14.45 -18.1 Q14.5 -18.6 14.6 -19.05 L14.65 -19.2 14.85 -19.65 15.0 -20.05 15.1 -20.2 15.15 -20.3 15.2 -20.35 15.2 -20.4 15.25 -20.4 15.25 -20.45 15.3 -20.45 15.45 -20.65 15.55 -20.75 15.55 -20.8 15.75 -20.9 15.75 -20.95 15.45 -20.95 15.45 -21.0 15.6 -21.0 15.85 -20.95 16.05 -20.95 M14.1 -20.65 L14.15 -20.7 Q14.7 -21.0 15.2 -21.1 L15.15 -21.05 15.05 -21.0 Q14.95 -20.95 14.95 -20.85 L14.95 -20.8 Q14.4 -20.4 13.95 -19.4 13.55 -18.5 13.45 -17.75 13.1 -18.3 13.2 -18.6 12.8 -18.25 12.4 -18.0 12.1 -17.85 11.65 -17.7 L11.35 -17.75 Q11.25 -17.8 11.25 -18.1 11.25 -18.7 12.95 -19.95 L14.05 -20.65 14.1 -20.65" fill="#efc89c" fill-rule="evenodd" stroke="none"/>
    <path d="M10.95 -14.65 L11.1 -14.4 11.1 -14.25 11.2 -14.3 Q11.45 -14.05 11.7 -14.05 L11.75 -13.75 11.75 -13.25 Q11.7 -12.8 11.7 -12.35 L11.75 -11.8 11.7 -11.9 11.6 -12.2 Q11.15 -13.6 10.95 -14.65" fill="#872710" fill-rule="evenodd" stroke="none"/>
    <path d="M14.1 -12.45 L14.1 -12.75 14.05 -13.0 13.95 -13.2 13.9 -13.35 13.65 -13.85 13.3 -14.4 Q13.05 -14.5 12.8 -14.45 L12.65 -14.45 12.4 -14.4 12.4 -14.5 Q12.65 -14.6 12.95 -14.9 L13.05 -15.0 13.2 -14.9 Q13.3 -14.8 13.4 -14.75 L13.4 -14.7 13.45 -14.6 13.5 -14.6 13.8 -13.9 13.9 -13.95 14.1 -13.5 14.25 -13.2 14.3 -13.05 14.4 -12.8 14.4 -12.6 14.35 -12.35 Q14.3 -11.75 14.05 -11.05 L14.0 -10.95 13.95 -10.85 Q13.75 -10.75 13.5 -10.75 12.7 -10.75 12.2 -11.35 L12.2 -12.1 12.3 -13.4 12.35 -13.75 12.4 -13.75 12.4 -13.45 Q12.4 -13.15 12.5 -12.8 L12.5 -12.7 Q12.6 -12.5 12.7 -12.3 L12.7 -12.25 12.75 -12.2 12.85 -12.0 13.0 -11.85 Q13.2 -11.65 13.5 -11.6 L13.35 -11.55 Q13.4 -11.45 13.7 -11.45 L13.85 -11.5 14.0 -11.95 14.1 -12.45 M14.55 -11.55 L14.6 -11.65 14.6 -12.1 14.65 -12.35 14.6 -12.6 14.6 -12.95 14.8 -12.75 Q15.25 -12.4 15.75 -12.4 L16.0 -12.45 Q16.0 -12.5 16.05 -12.5 L16.05 -12.65 16.1 -12.6 16.15 -12.7 16.15 -13.85 16.1 -14.1 16.05 -14.25 16.25 -14.15 Q16.35 -14.05 16.5 -14.0 L16.5 -13.85 Q16.45 -13.75 16.45 -13.65 16.45 -13.55 16.5 -13.5 L16.55 -13.5 Q16.55 -13.4 16.6 -13.4 L16.65 -13.4 16.95 -13.65 17.3 -13.8 Q18.15 -13.5 19.25 -13.4 L19.3 -13.35 20.8 -13.2 21.3 -13.25 21.75 -13.2 22.15 -13.2 Q22.4 -12.55 22.4 -12.0 L22.4 -11.9 22.35 -11.25 22.3 -11.1 Q22.15 -10.0 21.6 -8.6 21.25 -7.85 20.75 -7.0 L20.75 -6.95 20.5 -6.55 20.4 -6.4 Q20.4 -7.95 19.55 -9.05 19.3 -9.4 18.5 -9.6 17.55 -9.85 17.35 -9.95 L16.45 -10.4 Q15.75 -10.75 15.6 -10.9 15.2 -11.25 14.7 -11.9 L14.7 -11.95 14.6 -11.7 14.55 -11.55 M18.35 -10.1 L18.3 -10.1 19.1 -10.05 Q19.75 -10.05 20.1 -10.65 L20.15 -10.65 20.15 -11.1 20.1 -11.2 20.1 -11.75 19.95 -12.2 19.8 -12.5 19.8 -12.45 19.65 -12.6 Q19.3 -12.9 18.95 -13.15 L18.65 -13.3 18.25 -13.35 17.65 -13.25 17.5 -13.25 16.8 -12.85 16.75 -12.8 Q16.75 -12.7 16.8 -12.7 L16.85 -12.75 16.9 -12.7 17.0 -12.7 17.15 -12.75 17.3 -12.75 Q17.15 -12.5 17.15 -12.05 L17.15 -12.0 17.2 -11.75 17.2 -11.6 Q17.25 -11.25 17.35 -11.0 17.6 -10.25 18.35 -10.1 M13.7 -9.2 Q13.75 -9.6 14.35 -9.5 14.95 -9.35 14.95 -8.95 14.95 -8.8 14.85 -8.7 14.7 -8.6 14.45 -8.6 14.1 -8.6 13.9 -8.85 L13.9 -8.85 14.0 -8.8 14.0 -8.75 14.05 -8.75 14.1 -8.7 Q14.3 -8.6 14.45 -8.6 14.5 -8.65 14.55 -8.7 L14.55 -8.75 Q14.45 -8.85 14.1 -9.0 L13.7 -9.2" fill="#e7955f" fill-rule="evenodd" stroke="none"/>
    <path d="M19.75 -22.8 L21.35 -22.8 Q22.5 -22.75 24.3 -23.55 25.05 -23.85 25.5 -24.1 L26.05 -23.4 26.1 -23.4 Q26.6 -22.35 26.7 -21.85 L27.1 -20.35 27.5 -18.8 Q27.75 -17.75 28.05 -16.05 28.5 -13.65 28.5 -12.85 28.5 -12.25 28.45 -11.7 L28.2 -11.25 Q27.55 -10.3 27.1 -9.75 26.3 -8.85 25.35 -8.25 23.25 -6.95 21.2 -5.55 L20.35 -4.95 19.7 -4.8 18.75 -4.45 18.7 -4.45 18.2 -4.4 Q16.4 -4.6 15.1 -5.2 13.25 -5.8 12.4 -7.2 11.7 -8.35 11.7 -10.35 L11.7 -10.7 Q11.05 -11.95 10.55 -13.6 10.3 -14.4 10.15 -15.15 9.8 -16.4 9.75 -17.2 9.6 -17.75 9.6 -17.95 L9.6 -18.15 Q9.85 -18.9 10.95 -19.8 12.05 -20.65 13.65 -21.45 14.45 -21.7 15.35 -21.95 L19.35 -22.75 19.55 -22.75 19.75 -22.8 M23.3 -22.35 L23.05 -22.3 23.0 -22.3 22.55 -22.25 20.8 -22.25 19.45 -22.1 19.25 -22.05 18.4 -21.95 17.95 -21.85 17.95 -21.9 17.65 -21.85 16.8 -21.6 16.8 -21.55 Q16.8 -21.5 16.65 -21.5 L16.5 -21.5 16.5 -21.45 Q17.7 -20.6 19.1 -19.0 L19.2 -18.9 Q20.4 -17.1 22.3 -14.5 L22.35 -14.35 22.65 -13.6 22.7 -13.55 22.7 -13.45 Q22.9 -12.75 22.9 -12.2 22.9 -11.65 22.65 -10.65 L22.45 -9.7 Q22.3 -8.5 21.75 -7.4 L21.45 -6.8 21.4 -6.65 21.35 -6.6 20.95 -5.95 21.05 -5.85 20.9 -5.65 21.35 -5.95 Q23.25 -7.35 24.1 -8.55 24.4 -8.9 24.6 -9.5 L25.0 -10.45 Q25.1 -10.7 25.1 -11.45 25.1 -12.15 25.3 -12.35 25.45 -11.95 25.45 -11.35 25.45 -9.65 24.0 -7.95 23.6 -7.5 23.15 -7.05 24.4 -7.85 24.85 -8.2 25.6 -8.75 26.45 -9.75 L27.5 -11.0 Q27.65 -11.3 27.75 -11.65 28.1 -12.65 28.1 -13.9 L28.05 -14.4 27.85 -15.45 27.4 -17.95 Q27.15 -19.4 26.25 -21.3 L25.65 -22.6 25.55 -22.75 Q25.45 -22.8 25.3 -22.85 L25.05 -23.0 Q24.7 -22.85 24.15 -22.6 L23.85 -22.45 Q23.5 -22.5 23.4 -22.35 L23.3 -22.35 M17.1 -20.2 L16.8 -20.45 16.75 -20.5 16.7 -20.5 16.7 -20.55 16.65 -20.55 16.1 -20.95 16.05 -20.95 Q15.85 -21.1 15.7 -21.1 L15.65 -21.15 15.6 -21.15 15.45 -21.0 15.35 -21.05 15.3 -21.05 15.35 -21.15 15.2 -21.1 Q14.7 -21.0 14.15 -20.7 L14.1 -20.65 Q13.2 -20.3 12.55 -19.8 12.15 -19.5 11.65 -19.0 L11.3 -18.65 Q10.7 -17.75 10.7 -16.8 10.75 -16.25 10.85 -15.75 10.9 -15.4 11.0 -15.15 11.2 -14.9 11.45 -14.7 L11.55 -14.65 11.7 -14.75 11.7 -14.8 Q11.8 -14.8 12.1 -15.0 L12.15 -15.05 12.15 -15.1 12.2 -15.1 12.35 -15.2 12.4 -15.25 12.45 -15.25 12.9 -15.6 13.0 -15.65 Q12.7 -16.4 12.65 -17.15 L12.7 -17.3 12.8 -17.35 Q13.3 -16.0 13.65 -15.3 14.2 -14.15 15.05 -13.3 15.35 -13.1 15.65 -12.95 L15.7 -13.0 15.75 -14.0 15.95 -14.55 16.0 -14.65 Q15.2 -15.1 15.2 -15.5 L15.25 -15.55 Q16.6 -14.5 17.5 -14.25 17.8 -14.15 18.35 -14.05 L18.8 -13.95 19.15 -13.9 20.25 -13.8 20.3 -13.8 20.2 -13.85 20.3 -13.85 20.4 -13.8 21.9 -13.85 21.5 -14.65 Q20.7 -16.05 19.45 -17.65 18.3 -19.1 17.2 -20.1 L17.1 -20.2 M14.0 -10.95 L14.05 -11.05 Q14.3 -11.75 14.35 -12.35 L14.4 -12.6 14.4 -12.8 14.3 -13.05 14.25 -13.2 14.1 -13.5 13.9 -13.95 13.8 -13.9 13.5 -14.6 13.45 -14.6 13.4 -14.7 13.4 -14.75 Q13.3 -14.8 13.2 -14.9 L13.05 -15.0 12.95 -14.9 Q12.65 -14.6 12.4 -14.5 L12.4 -14.4 12.65 -14.45 12.8 -14.45 Q13.05 -14.5 13.3 -14.4 L13.65 -13.85 13.9 -13.35 13.95 -13.2 14.05 -13.0 14.1 -12.75 14.1 -12.45 14.05 -12.5 14.05 -12.6 13.95 -12.6 13.8 -12.35 13.7 -12.45 Q13.45 -12.6 13.35 -12.6 L13.3 -12.6 Q13.3 -12.55 13.3 -12.45 13.3 -12.4 13.45 -12.2 L13.65 -12.05 Q13.55 -11.9 13.3 -11.9 12.9 -11.9 12.7 -12.3 12.6 -12.5 12.5 -12.7 L12.5 -12.8 Q12.4 -13.15 12.4 -13.45 L12.4 -13.75 12.35 -13.75 12.3 -13.4 12.2 -12.1 12.2 -11.35 12.2 -9.8 12.25 -9.5 Q12.3 -9.2 12.35 -8.9 12.5 -8.3 12.7 -8.05 13.15 -6.9 13.9 -6.55 14.65 -5.95 15.9 -5.4 17.2 -5.05 19.25 -4.95 L19.4 -5.1 19.75 -5.5 19.8 -5.55 20.4 -6.4 20.5 -6.55 20.75 -6.95 20.75 -7.0 Q21.25 -7.85 21.6 -8.6 22.15 -10.0 22.3 -11.1 L22.35 -11.25 22.4 -11.9 22.4 -12.0 Q22.4 -12.55 22.15 -13.2 L21.75 -13.2 21.3 -13.25 20.8 -13.2 19.3 -13.35 19.25 -13.4 Q18.15 -13.5 17.3 -13.8 L16.95 -13.65 16.65 -13.4 16.6 -13.4 Q16.55 -13.4 16.55 -13.5 L16.5 -13.5 Q16.45 -13.55 16.45 -13.65 16.45 -13.75 16.5 -13.85 L16.5 -14.0 Q16.35 -14.05 16.25 -14.15 L16.05 -14.25 16.1 -14.1 16.15 -13.85 16.15 -12.7 16.1 -12.6 16.05 -12.65 16.05 -12.5 Q16.0 -12.5 16.0 -12.45 L15.75 -12.4 Q15.25 -12.4 14.8 -12.75 L14.6 -12.95 14.6 -12.6 14.65 -12.35 14.6 -12.1 14.6 -11.65 14.55 -11.55 14.45 -11.0 Q14.3 -10.6 14.1 -10.2 L14.1 -10.15 13.8 -9.75 13.75 -9.65 13.65 -9.7 13.7 -9.8 13.65 -9.85 13.65 -10.0 14.0 -10.95 M14.0 -11.95 L13.85 -11.5 13.7 -11.45 Q13.4 -11.45 13.35 -11.55 L13.5 -11.6 13.55 -11.65 13.95 -11.9 14.0 -11.95 M10.95 -14.65 Q11.15 -13.6 11.6 -12.2 L11.7 -11.9 11.75 -11.8 11.7 -12.35 Q11.7 -12.8 11.75 -13.25 L11.75 -13.75 11.7 -14.05 Q11.45 -14.05 11.2 -14.3 L11.1 -14.25 11.1 -14.4 10.95 -14.65 M22.0 -13.6 L21.65 -13.55 21.85 -13.55 22.0 -13.6 M17.3 -12.75 L17.15 -12.75 17.0 -12.7 16.9 -12.7 16.85 -12.75 16.8 -12.7 Q16.75 -12.7 16.75 -12.8 L16.8 -12.85 17.5 -13.25 17.65 -13.25 18.25 -13.35 18.65 -13.3 18.95 -13.15 Q19.3 -12.9 19.65 -12.6 L19.8 -12.45 19.8 -12.5 19.95 -12.2 20.1 -11.75 20.1 -11.2 20.15 -11.1 20.15 -10.65 20.1 -10.65 Q19.75 -10.05 19.1 -10.05 L18.3 -10.1 18.35 -10.1 Q18.6 -10.15 18.9 -10.25 19.55 -10.35 19.9 -10.7 19.85 -10.9 19.85 -11.15 L19.85 -11.2 19.75 -11.35 19.7 -11.45 Q19.55 -11.7 19.25 -11.95 L19.2 -12.0 Q19.2 -11.8 19.15 -11.55 L18.9 -11.6 Q18.7 -11.7 18.6 -11.5 L18.85 -11.25 Q18.9 -11.2 19.0 -11.15 18.85 -10.85 18.6 -10.75 18.5 -10.65 18.35 -10.65 17.65 -10.65 17.4 -11.35 17.25 -11.65 17.3 -12.05 17.3 -12.5 17.5 -12.7 L17.55 -12.75 17.3 -12.75 M17.5 -13.9 L17.45 -13.85 17.5 -13.85 17.5 -13.9 M13.9 -8.85 L13.65 -9.0 Q13.65 -9.15 13.65 -9.2 L13.7 -9.2 14.1 -9.0 Q14.45 -8.85 14.55 -8.75 L14.55 -8.7 Q14.5 -8.65 14.45 -8.6 14.3 -8.6 14.1 -8.7 L14.05 -8.75 14.0 -8.75 14.0 -8.8 13.9 -8.85 M15.8 -7.3 L17.8 -7.3 19.2 -7.0 Q19.7 -6.9 19.8 -6.75 L19.8 -6.7 19.55 -6.65 17.85 -6.95 15.7 -6.95 15.1 -6.8 14.75 -6.7 Q14.5 -6.7 14.45 -6.8 14.55 -6.95 14.85 -7.05 15.25 -7.2 15.8 -7.25 L15.8 -7.3" fill="#101010" fill-rule="evenodd" stroke="none"/>
    <path d="M23.3 -22.35 L23.4 -22.35 Q23.5 -22.5 23.85 -22.45 L24.15 -22.6 Q24.7 -22.85 25.05 -23.0 L25.3 -22.85 Q25.45 -22.8 25.55 -22.75 L25.65 -22.6 26.25 -21.3 Q27.15 -19.4 27.4 -17.95 L27.85 -15.45 28.05 -14.4 28.1 -13.9 Q28.1 -12.65 27.75 -11.65 27.65 -11.3 27.5 -11.0 L26.45 -9.75 Q25.6 -8.75 24.85 -8.2 24.4 -7.85 23.15 -7.05 23.6 -7.5 24.0 -7.95 25.45 -9.65 25.45 -11.35 25.45 -11.95 25.3 -12.35 25.1 -12.15 25.1 -11.45 25.1 -10.7 25.0 -10.45 L24.6 -9.5 Q24.4 -8.9 24.1 -8.55 23.25 -7.35 21.35 -5.95 L20.9 -5.65 21.05 -5.85 20.95 -5.95 21.35 -6.6 21.4 -6.65 21.45 -6.8 21.75 -7.4 Q22.3 -8.5 22.45 -9.7 L22.65 -10.65 Q22.9 -11.65 22.9 -12.2 22.9 -12.75 22.7 -13.45 L22.7 -13.55 22.65 -13.6 22.35 -14.35 22.3 -14.45 Q22.55 -15.05 22.7 -15.3 23.45 -16.6 23.9 -17.15 24.0 -17.3 24.0 -17.55 L23.95 -18.45 Q23.95 -20.05 23.5 -21.65 L23.3 -22.35" fill="#9a3218" fill-rule="evenodd" stroke="none"/>
  </g>
</svg>
