<?xml version="1.0" encoding="UTF-8" standalone="no"?>
<svg xmlns:ffdec="https://www.free-decompiler.com/flash" xmlns:xlink="http://www.w3.org/1999/xlink" ffdec:objectType="shape" height="32.3px" width="27.35px" xmlns="http://www.w3.org/2000/svg">
  <g transform="matrix(1.0, 0.0, 0.0, 1.0, -3.65, 29.05)">
    <path d="M18.65 3.1 L18.6 3.25 Q17.85 3.25 17.4 2.5 L17.4 2.15 Q17.3 2.05 17.05 0.95 16.75 -0.15 16.75 -0.5 16.75 -0.65 17.15 -1.65 17.55 -2.65 17.55 -3.05 17.55 -3.75 16.9 -4.4 16.75 -5.15 15.45 -5.45 L15.25 -5.55 14.1 -5.55 13.35 -5.5 13.0 -5.25 Q12.6 -5.15 11.95 -4.55 L11.2 -3.8 Q10.35 -3.7 9.85 -2.95 9.35 -2.25 9.35 -1.55 L9.35 -1.3 9.3 -0.6 9.35 -0.45 Q9.05 -0.15 8.85 0.35 L8.85 0.1 8.75 0.25 Q8.3 1.3 7.75 2.05 L7.55 2.5 7.5 2.6 7.5 2.65 7.3 2.65 7.2 2.7 7.2 2.65 Q6.75 2.5 6.6 1.25 6.4 0.45 6.3 -0.65 6.15 -2.5 6.3 -3.75 L6.05 -3.8 Q5.75 -3.8 5.45 -4.1 L5.15 -4.45 Q4.8 -4.65 4.3 -4.7 L3.85 -4.75 3.65 -4.8 3.65 -5.0 3.75 -5.2 3.85 -5.5 4.0 -5.9 Q4.1 -6.35 4.0 -6.75 4.0 -7.15 3.9 -7.55 L4.35 -7.9 4.45 -7.95 4.9 -7.35 Q5.2 -6.95 5.5 -6.7 L5.5 -6.15 Q5.5 -5.8 5.6 -5.75 6.4 -5.6 7.4 -5.95 L7.55 -5.95 Q8.1 -5.95 8.4 -6.1 L8.8 -6.45 8.85 -6.4 Q8.95 -6.6 8.95 -6.8 L8.95 -6.95 8.9 -7.3 Q8.9 -7.6 8.9 -7.7 8.95 -7.9 9.4 -8.2 9.8 -8.5 9.9 -8.7 L9.85 -8.65 9.7 -8.7 Q9.65 -8.7 9.65 -8.85 L9.7 -9.0 10.05 -9.7 10.1 -9.75 10.1 -9.9 10.2 -10.6 Q10.35 -10.7 10.45 -10.85 L10.5 -10.9 10.5 -11.0 9.95 -12.05 Q9.5 -12.95 8.95 -13.5 L8.3 -14.1 Q7.8 -14.75 7.15 -15.3 L7.0 -15.5 Q6.8 -15.7 6.5 -15.85 L6.3 -15.95 6.25 -16.1 Q6.25 -16.9 6.45 -17.05 L6.55 -17.25 6.85 -18.15 6.9 -18.6 Q6.9 -18.8 6.9 -18.7 L7.05 -18.75 7.05 -18.7 7.15 -18.95 Q7.25 -18.85 7.35 -18.6 L7.4 -18.45 7.5 -18.3 7.65 -18.0 Q7.95 -17.65 8.65 -17.5 L8.65 -17.45 8.9 -17.55 8.9 -17.65 Q9.5 -17.85 9.8 -18.9 10.0 -19.45 10.05 -20.05 10.3 -20.1 10.55 -20.5 L10.65 -20.45 Q10.85 -20.3 11.1 -19.9 11.35 -19.55 11.4 -19.55 L11.75 -19.6 12.25 -19.65 12.5 -19.55 12.35 -20.0 12.2 -20.25 Q12.15 -20.65 11.75 -21.2 11.9 -21.65 12.5 -22.2 13.25 -22.25 14.25 -23.4 14.9 -24.15 15.1 -24.55 L15.1 -24.6 Q15.9 -25.4 16.3 -25.6 L16.35 -25.6 Q16.7 -25.75 16.9 -25.5 17.25 -25.35 17.1 -24.3 L17.25 -24.35 17.45 -24.35 Q17.45 -24.8 17.55 -25.65 17.7 -25.9 17.85 -26.35 L18.0 -27.45 Q18.35 -28.25 18.5 -29.0 L18.5 -29.05 18.85 -28.35 19.75 -26.2 20.4 -23.95 20.5 -23.45 Q20.45 -23.15 20.45 -22.8 20.4 -22.4 20.5 -22.05 20.6 -21.45 20.9 -21.35 L20.9 -21.3 21.15 -21.3 Q21.3 -21.3 21.4 -21.35 21.55 -21.4 21.65 -21.65 21.75 -21.85 21.75 -22.0 L22.2 -22.5 Q22.5 -23.0 23.05 -24.2 23.15 -24.4 23.3 -24.5 L23.4 -24.5 23.6 -24.45 23.7 -24.4 Q23.95 -24.25 24.25 -23.7 24.55 -23.15 24.75 -22.55 24.95 -21.9 24.9 -21.6 24.85 -21.35 24.7 -20.95 L24.55 -20.8 Q23.6 -19.95 23.6 -19.1 L23.6 -19.05 23.45 -18.8 Q23.45 -18.75 23.55 -18.2 L23.65 -17.85 23.8 -17.95 24.0 -18.2 Q24.5 -18.75 24.7 -17.9 L24.8 -17.65 24.8 -17.5 Q24.85 -17.05 24.95 -16.95 25.35 -16.35 28.35 -16.35 L28.4 -16.35 28.45 -16.3 Q28.7 -16.4 28.95 -16.55 L29.0 -16.55 29.1 -16.6 29.15 -16.65 Q29.5 -16.9 29.7 -17.15 L29.75 -17.25 30.45 -17.8 30.85 -18.2 Q30.9 -17.75 31.0 -17.35 L30.85 -16.8 30.75 -16.7 Q30.05 -15.6 30.0 -14.6 L29.9 -14.45 29.4 -13.8 29.05 -13.7 Q28.3 -13.55 27.4 -13.2 L27.4 -13.15 Q26.4 -12.75 25.7 -12.3 25.25 -12.05 25.1 -11.8 23.85 -11.2 23.25 -10.75 L23.05 -10.55 22.95 -10.5 Q22.7 -10.3 22.65 -10.05 L22.65 -9.8 Q22.6 -9.4 22.6 -8.8 22.35 -8.6 22.05 -8.3 21.5 -7.7 21.3 -6.8 L21.25 -6.6 21.15 -6.1 21.1 -5.45 21.0 -4.3 20.95 -3.15 Q20.9 -2.45 20.8 -2.0 20.75 -1.65 20.35 -0.9 L20.2 -0.45 20.0 0.0 19.95 0.15 19.9 0.25 19.9 0.3 19.45 1.4 18.65 3.1 M19.0 -26.55 L18.8 -27.3 18.65 -27.65 18.55 -27.9 18.55 -27.65 Q18.45 -27.6 18.45 -27.0 L18.45 -26.85 Q18.15 -26.35 17.75 -24.9 L17.45 -23.7 17.0 -23.7 16.85 -23.75 Q16.8 -24.25 16.65 -24.35 L16.5 -24.4 16.4 -24.95 16.35 -24.9 16.3 -24.85 15.9 -24.35 Q15.3 -23.8 14.4 -23.05 L14.1 -22.7 Q13.95 -22.65 13.75 -22.55 13.3 -22.3 13.05 -21.9 12.45 -21.35 12.15 -21.0 12.85 -20.4 13.05 -19.75 L13.1 -19.4 13.15 -19.6 13.2 -19.45 13.1 -19.0 Q13.1 -18.95 13.1 -18.5 L13.05 -18.5 13.05 -18.45 13.05 -18.35 13.0 -18.3 13.05 -17.95 13.05 -17.9 13.0 -17.85 12.95 -17.85 Q12.8 -17.9 12.65 -18.05 L12.55 -18.1 Q12.5 -18.4 11.95 -18.75 L11.9 -18.85 11.85 -18.9 11.7 -18.9 Q11.3 -19.05 11.3 -18.6 11.35 -18.4 11.5 -18.2 L11.7 -17.95 11.7 -17.9 11.4 -18.25 11.45 -18.15 11.35 -18.3 11.0 -18.75 Q10.85 -18.9 10.6 -19.2 10.4 -19.5 10.25 -19.75 10.25 -19.1 10.35 -17.9 10.4 -16.9 10.4 -16.35 10.5 -16.1 10.65 -15.9 10.95 -15.95 11.3 -15.85 11.5 -15.6 12.0 -15.2 L12.55 -14.8 12.7 -14.7 12.75 -14.7 12.7 -14.5 12.7 -14.4 12.75 -14.3 12.75 -14.25 13.05 -13.7 13.1 -13.65 13.4 -13.1 13.45 -12.9 13.55 -12.55 13.6 -12.25 13.65 -12.2 13.7 -12.2 Q13.9 -12.15 14.1 -12.3 L14.25 -12.45 14.3 -12.45 14.4 -12.6 14.45 -12.6 14.5 -12.7 14.55 -13.05 14.4 -13.5 Q14.3 -13.95 14.35 -14.05 L14.65 -14.35 14.6 -14.4 14.7 -14.35 14.8 -14.45 14.7 -14.6 14.7 -14.65 Q14.8 -14.55 14.9 -14.55 L15.2 -14.85 16.0 -15.5 16.75 -16.1 17.2 -16.6 Q17.4 -16.85 17.65 -16.95 18.05 -17.2 18.95 -17.1 19.4 -17.15 19.75 -17.0 L19.95 -16.95 19.55 -19.2 Q19.3 -20.4 19.05 -20.65 L18.95 -20.65 Q18.8 -20.55 18.6 -20.45 L18.55 -20.45 Q18.35 -20.5 18.0 -20.3 L17.85 -20.25 17.65 -20.05 17.4 -19.85 17.2 -19.5 16.9 -19.05 16.5 -18.55 16.15 -18.15 16.15 -18.25 16.35 -18.6 Q16.9 -19.45 16.9 -19.7 L17.0 -19.9 17.2 -20.25 17.6 -20.65 17.7 -20.7 17.7 -20.75 Q18.25 -21.65 18.45 -22.1 18.5 -22.25 18.9 -22.6 L18.95 -22.6 18.95 -22.65 19.1 -22.8 19.7 -23.35 Q19.75 -23.7 19.7 -24.2 L19.65 -24.6 Q19.65 -24.9 19.5 -25.35 19.35 -25.7 19.2 -25.85 L19.1 -26.15 19.05 -26.15 19.05 -26.3 19.05 -26.35 19.0 -26.55 M20.6 -20.9 L20.5 -20.9 Q20.4 -20.9 20.1 -22.45 L19.95 -23.15 19.9 -23.5 19.9 -23.35 19.8 -23.2 19.25 -22.6 18.6 -22.0 18.45 -21.75 Q18.25 -21.45 18.2 -21.3 L17.95 -20.85 Q18.15 -20.95 18.35 -20.95 L18.4 -20.95 18.45 -21.0 Q19.0 -21.25 19.1 -21.05 L19.15 -21.05 19.35 -20.75 19.35 -20.7 19.55 -20.35 19.6 -20.3 Q19.9 -19.65 20.15 -18.55 20.25 -17.9 20.3 -17.2 20.35 -16.6 20.35 -16.5 L20.3 -16.4 20.3 -16.35 20.25 -16.3 20.1 -16.35 20.1 -16.4 19.9 -16.4 19.7 -16.55 19.55 -16.55 19.45 -16.6 18.75 -16.55 18.5 -16.55 18.1 -16.45 Q17.95 -16.4 17.85 -16.35 L17.9 -16.3 Q18.25 -16.1 18.35 -15.9 18.35 -15.75 18.4 -15.75 L18.4 -15.7 18.45 -15.65 Q18.45 -15.4 18.35 -15.2 18.25 -14.95 18.1 -14.95 18.0 -14.75 17.8 -14.6 17.5 -14.35 17.05 -14.15 L16.85 -14.05 16.6 -14.0 16.2 -13.9 16.0 -13.9 15.75 -13.95 Q15.55 -14.05 15.5 -14.2 L15.45 -14.3 Q15.45 -14.35 15.45 -14.45 L15.35 -14.4 15.3 -14.45 14.85 -14.15 14.8 -14.0 Q14.7 -14.1 14.65 -14.0 14.65 -13.9 14.7 -13.6 L14.75 -13.3 Q14.8 -13.1 14.9 -12.95 L14.85 -12.85 Q14.8 -12.5 14.7 -12.4 L14.65 -12.35 Q14.4 -12.1 13.75 -11.9 L13.65 -11.8 Q13.65 -11.85 13.6 -11.85 L13.4 -11.8 13.3 -12.15 13.2 -12.35 13.1 -12.65 12.85 -13.1 12.75 -12.95 12.5 -12.75 12.35 -12.7 11.45 -12.6 11.45 -12.7 11.4 -12.85 Q11.75 -12.8 12.0 -12.85 12.35 -12.9 12.55 -13.15 L12.65 -13.3 12.15 -13.35 Q11.8 -13.45 11.65 -13.8 L11.6 -13.9 11.5 -14.15 11.5 -14.2 11.45 -14.2 Q11.35 -14.2 11.25 -14.45 L11.25 -14.6 11.25 -14.7 Q11.25 -15.0 11.5 -15.25 L11.45 -15.25 11.4 -15.3 11.3 -15.35 11.25 -15.35 10.65 -15.5 10.6 -15.5 10.5 -15.55 10.4 -15.65 10.3 -15.65 Q10.15 -15.85 10.05 -16.2 L10.0 -16.3 9.95 -16.5 9.9 -16.9 Q9.85 -17.2 9.8 -17.5 L9.8 -17.55 9.75 -17.5 9.75 -17.45 Q9.55 -17.2 9.25 -17.2 L9.25 -17.15 9.2 -17.15 9.2 -17.1 9.05 -17.1 8.8 -17.1 8.45 -17.05 8.35 -17.05 Q7.65 -17.05 7.3 -17.6 L7.2 -17.75 7.1 -17.1 6.9 -16.25 Q6.9 -16.2 7.55 -15.7 L7.95 -15.35 8.75 -14.65 8.9 -14.45 9.5 -13.8 Q10.0 -13.25 10.3 -12.7 10.5 -12.65 10.65 -12.3 L10.65 -12.25 10.75 -12.1 Q10.85 -11.75 10.85 -11.5 L10.85 -11.25 10.9 -10.95 Q10.9 -10.3 10.7 -9.8 10.55 -9.4 10.3 -9.15 10.4 -8.95 10.4 -8.8 10.35 -8.6 10.15 -8.35 L10.05 -8.25 Q9.8 -8.0 9.5 -7.8 L9.45 -7.8 9.4 -7.6 9.4 -7.5 Q9.45 -7.3 9.45 -7.2 L9.35 -6.85 9.3 -6.55 9.2 -6.3 8.95 -6.1 8.85 -5.95 Q8.75 -5.7 8.4 -5.35 L7.8 -4.8 7.8 -4.75 7.4 -4.35 Q7.05 -3.95 7.0 -3.7 L7.05 -3.45 Q7.1 -3.25 7.05 -3.15 L6.95 -2.75 6.95 -2.65 6.8 -1.8 Q6.75 -1.35 6.9 -1.0 L7.2 0.25 7.3 0.7 7.45 1.55 8.0 0.3 8.5 -0.9 8.65 -1.85 Q8.8 -2.5 9.3 -3.1 L9.3 -3.15 9.35 -3.15 9.55 -3.4 9.7 -3.6 9.85 -3.65 9.95 -3.65 10.0 -3.85 Q10.35 -4.15 10.8 -4.4 11.3 -4.7 11.85 -4.95 L11.9 -5.0 12.1 -5.1 12.15 -5.15 12.25 -5.4 Q12.35 -5.4 12.85 -5.6 L12.8 -5.6 12.8 -5.7 12.8 -5.75 Q12.8 -6.0 13.25 -6.05 L13.65 -6.1 13.95 -6.1 14.45 -6.05 14.45 -6.1 15.15 -5.95 15.45 -5.85 15.5 -5.8 Q16.65 -5.45 17.35 -4.85 17.95 -4.3 18.15 -3.65 18.2 -3.4 18.2 -3.1 18.2 -2.2 17.7 -1.25 L17.6 -1.05 17.3 -0.45 17.3 -0.4 17.55 0.75 17.75 1.65 17.9 1.95 18.05 2.15 Q18.3 2.4 18.55 2.6 L19.1 0.75 Q19.4 -0.1 19.75 -0.7 L20.05 -1.55 Q20.5 -2.7 20.5 -2.95 L20.5 -3.25 Q20.5 -4.55 20.75 -5.7 20.7 -6.65 21.25 -7.95 L21.45 -8.45 Q21.75 -9.1 22.2 -9.85 L22.2 -9.9 22.1 -9.95 Q22.05 -9.95 22.1 -10.1 L22.1 -10.25 22.15 -10.25 Q22.2 -10.6 22.4 -10.9 L22.7 -11.35 Q23.35 -12.0 24.45 -12.35 L24.9 -12.45 25.1 -12.55 25.2 -12.55 Q25.65 -12.65 26.15 -12.95 L27.0 -13.45 27.05 -13.5 27.3 -13.6 28.25 -13.95 28.9 -14.25 29.2 -14.35 Q29.25 -14.3 29.3 -14.3 L29.5 -14.4 29.65 -15.0 29.65 -15.05 29.85 -15.65 29.85 -15.75 29.8 -15.8 29.85 -15.85 30.1 -16.4 Q30.35 -16.95 30.35 -17.05 L30.35 -17.1 30.3 -17.15 30.05 -16.95 Q29.9 -16.85 29.65 -16.55 L29.45 -16.25 29.4 -16.25 Q28.7 -15.85 27.85 -15.75 27.05 -15.65 26.0 -15.9 25.95 -16.05 25.85 -16.05 L25.6 -15.9 Q25.1 -16.0 24.75 -16.6 L24.65 -16.7 Q24.4 -17.0 24.3 -17.4 L24.3 -17.65 24.3 -17.7 24.25 -17.65 24.15 -17.7 Q23.95 -17.65 23.55 -17.05 L23.45 -17.0 23.3 -16.9 23.2 -16.9 Q23.05 -16.9 22.95 -16.75 L22.85 -16.7 22.6 -16.4 22.65 -16.7 22.8 -16.95 Q23.0 -17.25 23.2 -17.45 23.15 -17.55 23.1 -18.1 L23.1 -18.15 23.0 -18.35 Q22.95 -18.55 22.95 -19.0 L22.95 -19.3 Q22.7 -19.4 22.45 -19.7 L22.4 -19.75 22.35 -19.75 22.35 -19.8 22.25 -20.0 22.15 -20.4 22.2 -20.55 22.35 -20.5 22.35 -20.45 Q22.35 -20.35 22.45 -20.25 22.5 -20.1 22.65 -20.0 L22.7 -19.95 22.7 -19.9 22.75 -19.9 22.8 -19.85 23.0 -19.5 Q23.1 -19.75 23.35 -19.8 L23.45 -19.8 23.7 -20.25 Q24.35 -21.2 24.45 -21.65 L24.45 -21.95 Q24.45 -22.45 24.05 -23.2 23.6 -24.0 23.3 -23.85 23.05 -23.75 22.85 -23.0 L22.8 -22.8 22.75 -22.65 22.75 -22.75 22.8 -22.85 22.4 -22.25 Q21.4 -20.9 20.8 -20.9 L20.6 -20.9 M12.9 -18.05 L12.9 -18.1 12.85 -18.1 12.9 -18.05 M11.85 -14.95 L11.7 -14.75 11.7 -14.65 11.65 -14.45 11.65 -14.1 Q11.8 -13.7 12.25 -13.6 L12.55 -13.6 Q12.6 -13.65 12.6 -13.8 12.65 -14.0 12.55 -14.3 12.4 -14.6 12.25 -14.8 12.05 -15.0 11.9 -14.95 L11.85 -14.95 M12.2 -14.5 Q12.55 -14.4 12.55 -14.05 L12.55 -13.85 Q12.5 -13.75 12.25 -13.75 12.0 -13.75 11.9 -13.95 11.8 -14.1 11.8 -14.2 11.8 -14.65 12.2 -14.5 M14.65 -16.45 L14.8 -16.65 14.7 -16.45 14.65 -16.45 M15.45 -13.25 Q15.35 -13.3 15.3 -13.4 L15.5 -13.35 15.55 -13.3 15.75 -13.2 15.8 -13.2 16.1 -13.05 16.15 -13.05 16.3 -12.95 Q16.25 -12.9 16.05 -12.95 15.7 -13.0 15.5 -13.2 L15.45 -13.25 M15.65 -14.35 L15.65 -14.3 Q15.75 -14.15 16.05 -14.05 L16.3 -14.05 Q17.25 -14.25 17.7 -14.75 L17.8 -14.85 17.9 -15.05 Q17.95 -15.5 17.7 -15.6 L17.5 -15.65 17.4 -15.7 Q17.1 -15.7 16.7 -15.5 15.7 -15.05 15.65 -14.45 L15.65 -14.35 M16.45 -14.15 L16.4 -14.15 Q16.05 -14.2 15.9 -14.4 15.85 -14.55 15.85 -14.65 15.85 -15.15 16.4 -15.05 16.9 -14.9 16.9 -14.55 16.9 -14.15 16.45 -14.15 M7.1 -4.8 L7.3 -5.0 7.95 -5.6 7.9 -5.6 7.3 -5.45 7.2 -5.45 6.8 -5.4 6.3 -5.3 6.3 -5.25 6.15 -5.2 6.05 -5.15 5.15 -5.35 Q5.05 -5.55 5.0 -5.8 L4.9 -6.25 Q4.85 -6.75 4.75 -6.95 4.6 -7.35 4.25 -7.5 L4.25 -7.45 4.3 -7.35 4.25 -7.35 4.2 -7.2 4.35 -6.7 Q4.5 -6.15 4.4 -5.7 4.2 -5.45 4.25 -5.25 4.35 -5.0 4.85 -4.85 5.15 -4.7 5.6 -4.6 L5.9 -4.6 6.0 -4.55 6.0 -4.5 Q6.1 -4.25 6.45 -4.15 L6.5 -4.1 7.1 -4.8 M25.1 -13.75 L25.05 -13.75 25.05 -13.8 25.1 -13.75 M17.9 -10.9 L17.8 -10.9 17.65 -10.95 16.65 -11.1 Q15.5 -11.15 14.5 -10.85 L13.75 -10.7 Q13.45 -10.6 13.05 -10.3 L12.65 -10.1 12.6 -10.0 12.4 -9.9 12.3 -9.85 12.85 -10.7 Q13.2 -11.0 13.45 -11.15 14.35 -11.65 15.85 -11.45 L16.65 -11.35 17.6 -11.15 17.75 -11.1 Q17.95 -11.0 18.05 -10.85 L17.95 -10.85 17.9 -10.9 M14.35 -13.0 L14.35 -13.0 M12.05 -6.6 L12.1 -6.6 12.15 -6.5 12.05 -6.6" fill="#000000" fill-rule="evenodd" stroke="none"/>
    <path d="M21.3 -6.8 L21.15 -6.1 21.25 -6.6 21.3 -6.8 M19.8 -23.2 Q19.6 -22.6 19.3 -20.85 L19.35 -20.75 19.15 -21.05 19.1 -21.05 Q19.0 -21.25 18.45 -21.0 L18.75 -21.5 Q19.1 -22.05 19.1 -22.1 19.1 -22.6 18.65 -22.0 L18.45 -21.75 18.6 -22.0 19.25 -22.6 19.8 -23.2 M20.3 -16.4 L20.55 -16.4 20.55 -16.0 20.65 -16.1 20.6 -16.35 Q20.5 -16.75 20.5 -16.9 20.5 -17.1 20.5 -17.0 20.9 -17.1 21.0 -16.55 L21.05 -16.0 21.1 -15.9 Q21.45 -15.45 21.45 -15.25 21.45 -14.95 21.3 -14.5 21.1 -13.8 20.8 -13.8 20.45 -13.8 20.25 -13.95 L20.25 -13.9 Q20.05 -13.3 19.8 -12.95 19.5 -12.6 18.7 -12.3 18.55 -12.25 18.45 -12.15 18.15 -12.3 17.8 -12.3 L17.8 -12.25 17.65 -12.4 17.65 -11.95 17.75 -11.85 Q18.6 -11.2 18.6 -11.0 L18.6 -10.8 18.5 -10.5 Q18.4 -10.25 18.2 -10.15 18.15 -9.8 17.85 -9.5 L16.7 -8.6 16.45 -7.9 15.05 -7.75 14.65 -7.7 14.8 -8.35 Q14.85 -8.2 14.9 -8.1 15.0 -8.2 15.15 -8.65 15.3 -9.05 15.3 -9.25 15.3 -9.6 15.05 -9.2 L14.85 -8.85 14.9 -9.0 14.9 -9.4 15.2 -9.55 Q15.7 -9.85 15.75 -10.1 L15.45 -10.25 15.2 -10.35 Q15.3 -10.4 15.3 -10.5 15.3 -10.8 14.15 -10.55 13.0 -10.3 13.0 -9.95 13.0 -9.9 13.05 -9.85 13.1 -9.85 13.2 -9.85 L13.3 -9.85 Q13.05 -9.7 12.95 -9.55 L13.0 -9.45 14.0 -9.35 Q14.0 -9.3 14.45 -9.3 L14.8 -9.35 14.8 -9.3 14.7 -8.4 14.6 -7.7 14.0 -7.6 14.0 -7.65 Q14.0 -8.3 13.65 -8.15 L13.65 -8.25 13.55 -8.3 13.2 -7.85 12.95 -7.5 12.8 -7.5 10.95 -7.65 10.75 -7.6 11.1 -8.3 Q11.15 -8.15 11.25 -8.15 11.35 -8.15 11.9 -9.3 12.45 -10.4 12.45 -10.5 12.45 -11.05 12.1 -10.55 L12.1 -10.65 12.2 -10.95 12.4 -11.35 12.4 -11.7 12.35 -12.0 12.3 -11.7 Q12.25 -11.25 12.05 -10.85 L12.05 -10.65 12.0 -10.65 Q11.75 -10.25 11.25 -9.15 L11.15 -8.95 10.9 -8.4 10.55 -7.55 10.45 -7.2 Q10.45 -7.15 10.5 -7.0 10.5 -6.65 10.85 -6.45 L11.05 -6.3 11.15 -6.2 Q11.05 -6.0 11.15 -5.65 L10.95 -5.6 Q10.4 -5.35 9.95 -5.0 L10.0 -4.6 10.0 -4.15 9.95 -4.0 10.0 -3.85 9.95 -3.65 9.85 -3.65 9.7 -3.6 Q9.55 -3.6 9.45 -4.0 L9.4 -4.15 9.3 -4.3 9.25 -4.25 9.2 -4.35 Q8.9 -4.8 8.4 -4.65 8.2 -4.55 8.1 -4.5 L8.65 -4.35 Q9.1 -4.2 9.2 -4.0 L9.2 -3.95 9.25 -3.9 Q9.05 -3.9 8.75 -3.7 7.9 -3.1 7.55 -1.5 L7.2 0.25 6.9 -1.0 Q6.75 -1.35 6.8 -1.8 L6.95 -2.65 6.95 -2.75 7.05 -3.15 Q7.1 -3.25 7.05 -3.45 L7.0 -3.7 Q7.05 -3.95 7.4 -4.35 L7.8 -4.75 7.8 -4.8 8.4 -5.35 8.65 -5.45 Q9.1 -5.6 9.6 -5.65 9.8 -6.0 9.8 -6.4 L10.0 -7.05 Q10.25 -7.65 10.25 -7.8 10.25 -8.1 10.15 -8.05 L10.15 -8.35 Q10.35 -8.6 10.4 -8.8 L10.7 -9.25 11.05 -9.8 11.1 -9.8 Q11.5 -10.6 11.5 -10.8 11.55 -11.05 11.45 -11.2 L11.35 -11.2 11.25 -10.85 11.2 -11.6 11.25 -11.55 Q11.45 -11.55 11.45 -11.7 L11.5 -11.85 Q11.5 -12.25 11.25 -12.5 L11.2 -12.4 11.1 -12.35 11.15 -12.3 11.15 -11.75 10.85 -12.4 10.4 -13.4 Q10.4 -14.15 10.9 -13.3 L10.9 -13.5 10.95 -13.25 11.0 -13.25 Q11.2 -13.0 11.5 -13.0 11.55 -13.0 11.6 -13.05 11.65 -13.1 11.65 -13.15 L11.35 -13.6 Q11.05 -14.05 11.05 -14.2 11.05 -15.0 10.9 -14.85 L10.95 -14.95 11.05 -14.85 Q11.1 -14.7 11.2 -14.65 L11.25 -14.6 11.25 -14.45 Q11.35 -14.2 11.45 -14.2 L11.5 -14.2 11.5 -14.15 11.6 -13.9 11.65 -13.8 Q11.8 -13.45 12.15 -13.35 L12.65 -13.3 12.55 -13.15 Q12.35 -12.9 12.0 -12.85 11.75 -12.8 11.4 -12.85 L11.45 -12.7 11.45 -12.6 12.35 -12.7 12.35 -12.6 Q12.4 -12.45 12.55 -12.4 L12.6 -12.4 12.65 -12.35 12.75 -12.3 12.8 -12.3 Q13.0 -12.2 13.1 -12.15 L13.3 -12.15 13.4 -11.8 13.6 -11.85 Q13.65 -11.85 13.65 -11.8 L13.75 -11.9 Q14.4 -12.1 14.65 -12.35 L14.7 -12.4 Q14.8 -12.5 14.85 -12.85 L15.15 -13.3 15.45 -13.25 15.5 -13.2 Q15.7 -13.0 16.05 -12.95 16.25 -12.9 16.3 -12.95 L16.15 -13.05 16.1 -13.05 15.8 -13.2 16.25 -13.15 Q16.05 -13.25 15.85 -13.35 15.55 -13.5 15.4 -13.7 L15.55 -13.95 15.75 -13.9 15.75 -13.95 16.0 -13.9 16.2 -13.9 Q15.8 -13.75 15.8 -13.65 15.8 -13.4 16.2 -13.4 16.55 -13.4 17.0 -13.6 17.4 -13.8 17.4 -13.95 17.4 -14.15 16.85 -14.05 L17.05 -14.15 Q17.5 -14.35 17.8 -14.6 18.0 -14.75 18.1 -14.95 18.25 -14.95 18.35 -15.2 18.45 -15.4 18.45 -15.65 L18.55 -15.65 18.4 -15.7 18.4 -15.75 Q18.35 -15.75 18.35 -15.9 L18.35 -16.05 18.4 -16.1 Q18.55 -16.1 18.65 -16.05 18.8 -15.95 18.75 -15.8 L18.7 -15.75 18.8 -15.8 18.85 -15.8 Q18.9 -15.65 18.95 -15.4 L18.9 -15.0 18.9 -14.95 Q18.75 -14.35 18.4 -13.8 18.0 -13.45 17.25 -13.45 L17.55 -13.35 Q17.9 -13.35 18.15 -13.5 L18.1 -13.3 18.2 -13.4 Q18.8 -14.0 19.05 -14.1 L19.2 -13.95 Q19.25 -13.9 19.25 -13.75 19.25 -13.55 18.7 -13.05 18.35 -12.75 18.15 -12.65 18.3 -12.6 18.45 -12.7 L18.45 -12.55 18.5 -12.5 Q19.35 -12.95 19.7 -13.7 19.8 -13.95 19.9 -14.4 L20.0 -14.9 20.05 -15.05 Q20.05 -15.2 20.0 -15.4 L20.0 -15.65 Q19.95 -15.95 19.75 -16.1 L19.6 -16.4 Q19.6 -16.5 19.6 -16.55 19.75 -16.35 19.95 -16.35 L20.1 -16.35 20.25 -16.3 20.3 -16.35 20.3 -16.4 M18.9 -9.45 L18.95 -9.6 19.35 -10.65 Q19.65 -10.95 19.8 -11.15 L19.85 -11.2 19.9 -11.2 Q20.2 -11.2 20.45 -11.35 L20.2 -10.95 Q20.2 -10.85 20.25 -10.85 20.5 -11.15 20.85 -11.4 L21.25 -11.7 21.65 -12.25 Q22.0 -12.8 22.2 -13.7 L22.55 -15.1 Q22.7 -15.65 22.95 -16.05 L23.0 -16.2 Q22.95 -16.25 22.9 -16.35 L22.9 -16.5 Q22.9 -16.65 22.95 -16.75 23.05 -16.9 23.2 -16.9 23.3 -16.9 23.35 -16.85 L23.3 -16.9 23.45 -17.0 23.55 -17.05 Q23.95 -17.65 24.15 -17.7 L24.25 -17.65 24.3 -17.65 24.3 -17.4 23.85 -16.8 23.45 -16.2 23.25 -15.65 23.15 -15.3 23.15 -15.65 23.05 -15.65 22.7 -14.3 22.6 -13.9 21.9 -12.15 Q22.25 -12.35 22.25 -11.85 L22.15 -11.35 22.1 -10.9 Q22.1 -10.4 21.7 -9.9 21.2 -9.2 20.35 -9.2 L20.3 -9.2 20.3 -8.55 20.4 -8.5 Q20.55 -8.55 20.8 -8.4 21.05 -8.25 21.25 -7.95 20.7 -6.65 20.75 -5.7 20.5 -4.55 20.5 -3.25 20.1 -2.45 19.75 -2.45 L19.7 -2.45 19.4 -1.45 Q18.9 0.1 18.25 0.1 18.0 0.1 17.8 -0.05 L17.9 1.0 18.05 2.15 17.9 1.95 Q17.8 1.6 17.6 0.7 L17.5 0.1 17.4 -0.6 17.6 -1.05 17.7 -1.25 Q18.2 -2.2 18.2 -3.1 18.2 -3.4 18.15 -3.65 18.2 -4.2 17.8 -4.6 17.35 -5.05 16.15 -5.6 L15.4 -5.95 15.65 -6.0 15.95 -5.9 15.8 -6.0 Q16.65 -6.15 17.3 -6.45 17.65 -6.6 17.85 -6.75 L17.9 -6.7 Q17.5 -6.25 17.5 -6.1 L17.55 -6.0 Q17.55 -5.9 17.7 -5.9 18.1 -5.9 18.9 -7.85 19.65 -9.75 19.65 -10.6 19.65 -11.2 19.25 -10.35 L18.75 -9.05 18.9 -9.45 M22.35 -19.8 L22.45 -19.35 Q22.45 -19.2 22.35 -19.15 22.25 -19.05 22.1 -19.05 L22.0 -19.05 22.05 -18.9 22.05 -18.7 Q22.05 -18.35 21.7 -17.95 21.35 -17.45 20.9 -17.45 20.45 -17.45 20.3 -17.8 20.3 -17.95 20.3 -18.15 L20.35 -18.3 20.3 -18.3 20.3 -18.6 Q20.3 -19.4 20.6 -20.85 L20.6 -20.9 20.8 -20.9 Q21.4 -20.9 22.4 -22.25 L22.8 -22.85 22.75 -22.75 22.75 -22.65 Q22.7 -22.5 22.7 -22.3 22.7 -22.2 22.75 -22.05 L22.75 -21.9 Q22.75 -21.55 22.8 -21.3 23.0 -20.9 23.45 -20.85 L23.45 -20.75 Q23.45 -20.45 23.35 -20.25 23.2 -19.95 22.9 -19.95 22.75 -19.95 22.65 -20.0 22.5 -20.1 22.45 -20.25 22.35 -20.35 22.35 -20.45 L22.35 -20.5 22.2 -20.55 22.15 -20.4 22.25 -20.0 22.35 -19.8 M18.2 -21.3 L18.2 -21.2 Q18.15 -21.1 18.2 -21.05 18.25 -21.0 18.35 -20.95 18.15 -20.95 17.95 -20.85 L18.2 -21.3 M19.05 -21.7 Q18.85 -21.65 18.85 -21.55 L18.85 -21.45 Q18.9 -21.4 19.0 -21.4 L19.15 -21.4 19.15 -21.45 19.2 -21.45 19.2 -21.55 Q19.2 -21.75 19.05 -21.7 M22.2 -21.45 Q22.05 -21.45 22.0 -21.35 22.2 -21.4 22.2 -21.1 22.25 -21.1 22.35 -21.1 L22.4 -21.25 Q22.4 -21.4 22.2 -21.45 M21.65 -21.1 L21.6 -21.0 21.6 -20.95 21.7 -21.05 21.65 -21.1 M21.5 -20.85 Q21.5 -21.1 21.35 -21.05 21.2 -21.0 21.0 -20.75 20.55 -20.05 20.55 -19.45 20.55 -19.35 20.55 -19.3 20.6 -19.15 20.8 -19.15 L20.85 -19.15 Q20.9 -19.15 20.95 -19.2 21.2 -19.45 21.45 -20.55 L21.45 -20.65 21.5 -20.85 M17.8 -14.45 Q17.6 -14.4 17.6 -14.25 17.6 -14.2 17.65 -14.15 17.7 -14.05 17.8 -14.05 17.9 -14.05 17.95 -14.1 18.0 -14.2 18.0 -14.25 18.0 -14.45 17.8 -14.45 M9.05 -17.1 Q8.75 -17.0 8.55 -16.7 8.35 -16.4 8.35 -16.05 L8.35 -15.8 8.5 -15.7 8.65 -15.75 Q8.6 -16.1 8.85 -16.5 L9.3 -17.05 9.3 -17.2 9.25 -17.15 9.25 -17.2 Q9.55 -17.2 9.75 -17.45 L9.8 -17.2 9.8 -16.65 9.9 -16.35 Q9.95 -16.35 10.0 -16.3 L10.05 -16.2 Q10.15 -15.85 10.3 -15.65 L10.4 -15.65 10.5 -15.55 10.6 -15.5 10.65 -15.5 10.7 -15.4 10.9 -15.35 10.95 -15.2 10.85 -15.1 10.85 -14.95 10.8 -14.85 10.8 -14.9 10.7 -14.75 10.65 -14.65 Q10.65 -14.4 10.5 -14.2 10.4 -14.0 10.15 -14.0 9.8 -14.0 9.75 -14.4 L9.75 -14.65 9.45 -14.85 Q9.25 -14.95 8.95 -15.05 8.15 -15.4 7.95 -15.35 L7.55 -15.7 Q6.9 -16.2 6.9 -16.25 L7.1 -17.1 7.2 -17.75 7.3 -17.6 Q7.65 -17.05 8.35 -17.05 L8.45 -17.05 8.8 -17.1 9.05 -17.1 M9.8 -17.55 L9.8 -17.5 9.8 -17.55 M9.2 -16.4 Q9.2 -16.3 9.2 -16.25 9.25 -16.25 9.35 -16.2 9.45 -16.2 9.55 -16.4 L9.65 -16.6 Q9.65 -16.75 9.6 -16.75 L9.4 -16.75 9.25 -16.55 9.2 -16.4 M10.65 -12.25 L10.7 -12.25 10.75 -12.15 10.75 -12.1 10.65 -12.25 M10.05 -8.0 Q9.85 -7.8 9.8 -7.55 9.7 -7.1 9.55 -6.8 9.5 -6.75 9.3 -6.55 L9.35 -6.85 9.45 -7.2 Q9.45 -7.3 9.4 -7.5 L9.4 -7.6 9.45 -7.8 9.5 -7.8 Q9.8 -8.0 10.05 -8.25 L10.05 -8.0 M4.85 -4.85 Q4.35 -5.0 4.25 -5.25 4.2 -5.45 4.4 -5.7 4.5 -6.15 4.35 -6.7 L4.2 -7.2 4.25 -7.35 4.3 -7.35 4.25 -7.45 4.25 -7.5 Q4.6 -7.35 4.75 -6.95 4.85 -6.75 4.9 -6.25 L5.0 -5.8 Q5.05 -5.55 5.15 -5.35 L6.05 -5.15 6.15 -5.2 6.3 -5.25 6.3 -5.3 6.8 -5.4 7.2 -5.45 7.3 -5.45 7.9 -5.6 7.95 -5.6 7.3 -5.0 7.1 -4.8 4.85 -4.85 M10.5 -6.0 Q10.5 -6.2 10.25 -6.15 9.95 -6.05 9.95 -5.85 L9.95 -5.75 Q10.0 -5.65 10.15 -5.65 10.25 -5.65 10.4 -5.8 10.5 -5.9 10.5 -6.0 M9.5 -3.4 L9.55 -3.4 9.35 -3.15 9.4 -3.4 9.45 -3.35 9.5 -3.4 M7.65 -4.35 Q7.25 -4.05 7.25 -3.7 7.25 -3.5 7.15 -3.25 7.05 -2.95 7.05 -2.8 7.05 -2.65 7.05 -2.55 7.1 -2.35 7.3 -2.35 8.1 -4.15 8.1 -4.2 8.1 -4.7 7.65 -4.35 M7.1 -1.95 Q6.85 -2.0 6.85 -1.8 L6.9 -1.7 Q6.9 -1.6 7.1 -1.6 7.15 -1.6 7.2 -1.65 7.3 -1.7 7.3 -1.8 7.3 -1.95 7.1 -1.95 M23.35 -13.75 Q22.85 -12.55 22.55 -12.3 L22.45 -12.3 Q22.4 -12.3 22.4 -12.4 22.4 -12.55 22.7 -13.4 L23.1 -14.55 Q23.35 -15.45 23.6 -15.8 23.75 -15.95 23.8 -15.9 L23.85 -15.9 Q23.9 -15.75 23.9 -15.35 23.9 -15.15 23.55 -14.2 L23.4 -13.85 23.35 -13.75 M29.45 -16.25 Q29.3 -16.05 29.2 -15.8 L29.1 -15.65 Q28.9 -15.3 28.9 -15.15 L28.9 -15.1 28.65 -15.0 28.75 -15.0 Q28.2 -14.95 27.0 -14.5 26.1 -14.2 25.7 -13.95 L25.4 -13.85 25.4 -13.95 Q25.5 -14.05 25.5 -14.25 25.5 -14.4 25.4 -14.4 L25.4 -14.45 25.65 -14.9 Q26.0 -15.6 26.0 -15.8 L26.0 -15.9 Q27.05 -15.65 27.85 -15.75 28.7 -15.85 29.4 -16.25 L29.45 -16.25 M17.9 -13.15 L17.9 -13.15 M18.05 -10.85 Q17.95 -11.0 17.75 -11.1 L17.6 -11.15 16.65 -11.35 15.85 -11.45 Q14.35 -11.65 13.45 -11.15 13.2 -11.0 12.85 -10.7 L12.3 -9.85 12.4 -9.9 12.6 -10.0 12.65 -10.1 13.05 -10.3 Q13.45 -10.6 13.75 -10.7 L14.5 -10.85 Q15.5 -11.15 16.65 -11.1 L17.65 -10.95 17.8 -10.9 17.9 -10.9 18.1 -10.8 18.05 -10.85 M18.9 -11.7 L18.85 -11.75 18.85 -11.7 Q18.8 -11.7 18.8 -11.85 18.8 -11.95 19.4 -12.3 20.0 -12.65 20.15 -12.65 20.15 -12.35 19.7 -12.0 19.25 -11.7 19.05 -11.7 L18.9 -11.7 M11.95 -11.85 Q11.95 -12.0 11.75 -12.0 11.6 -11.95 11.6 -11.8 L11.6 -11.7 11.65 -11.65 11.7 -11.65 Q11.8 -11.65 11.85 -11.75 L11.95 -11.85 M12.95 -8.35 Q12.85 -7.85 12.75 -7.65 12.75 -7.6 12.85 -7.6 L12.95 -7.75 13.05 -8.15 13.0 -8.3 12.95 -8.35 M15.85 -8.9 Q15.85 -9.4 15.7 -9.3 15.5 -9.2 15.5 -8.7 L15.5 -8.65 Q15.55 -8.55 15.65 -8.55 15.85 -8.55 15.85 -8.9 M14.8 -7.2 L15.35 -7.15 15.45 -7.15 15.55 -7.05 Q15.6 -6.95 15.55 -6.9 L14.7 -6.9 14.65 -7.05 14.65 -7.15 Q14.7 -7.2 14.8 -7.2 M13.25 -6.4 L13.2 -6.35 Q13.15 -6.3 13.1 -6.3 12.95 -6.35 12.9 -6.4 12.95 -6.5 13.05 -6.5 L13.2 -6.55 13.25 -6.4 M19.9 -6.3 Q19.85 -6.5 19.6 -6.6 19.6 -6.65 19.6 -6.45 19.6 -6.2 19.7 -5.0 L19.8 -5.0 Q19.95 -5.25 19.95 -5.8 L19.9 -6.3 M19.15 -6.6 Q19.15 -7.1 18.85 -6.6 18.5 -6.1 18.5 -5.75 18.5 -5.6 18.55 -5.5 18.6 -5.25 18.8 -5.25 18.85 -5.25 18.85 -5.3 L18.9 -5.3 Q18.9 -5.45 19.0 -5.95 L19.15 -6.6 M25.75 -14.75 Q25.75 -14.7 25.75 -14.65 25.8 -14.5 25.95 -14.5 L26.0 -14.5 Q26.15 -14.55 26.3 -14.85 26.4 -15.15 26.4 -15.3 26.4 -15.7 26.05 -15.4 25.75 -15.1 25.75 -14.75" fill="#c07129" fill-rule="evenodd" stroke="none"/>
    <path d="M11.85 -14.95 L11.9 -14.95 Q12.05 -15.0 12.25 -14.8 12.4 -14.6 12.55 -14.3 12.65 -14.0 12.6 -13.8 12.6 -13.65 12.55 -13.6 L12.25 -13.6 Q11.8 -13.7 11.65 -14.1 L11.65 -14.45 11.7 -14.65 11.7 -14.75 11.85 -14.95 M12.2 -14.5 Q11.8 -14.65 11.8 -14.2 11.8 -14.1 11.9 -13.95 12.0 -13.75 12.25 -13.75 12.5 -13.75 12.55 -13.85 L12.55 -14.05 Q12.55 -14.4 12.2 -14.5 M15.65 -14.35 L15.65 -14.45 Q15.7 -15.05 16.7 -15.5 17.1 -15.7 17.4 -15.7 L17.5 -15.65 17.7 -15.6 Q17.95 -15.5 17.9 -15.05 L17.8 -14.85 17.7 -14.75 Q17.25 -14.25 16.3 -14.05 L16.05 -14.05 Q15.75 -14.15 15.65 -14.3 L15.65 -14.35 M16.45 -14.15 Q16.9 -14.15 16.9 -14.55 16.9 -14.9 16.4 -15.05 15.85 -15.15 15.85 -14.65 15.85 -14.55 15.9 -14.4 16.05 -14.2 16.4 -14.15 L16.45 -14.15" fill="#ffffb3" fill-rule="evenodd" stroke="none"/>
    <path d="M18.65 -27.65 L18.8 -27.3 19.0 -26.55 19.05 -26.3 19.05 -26.15 19.1 -25.95 18.85 -26.0 18.85 -25.8 Q18.85 -25.7 18.95 -25.6 19.0 -25.5 19.0 -25.4 19.0 -24.9 18.7 -23.9 L18.5 -23.2 Q18.25 -22.55 18.25 -22.3 18.25 -22.2 18.3 -22.1 L18.35 -22.05 18.5 -22.4 18.6 -22.35 18.9 -22.6 Q18.5 -22.25 18.45 -22.1 18.25 -21.65 17.7 -20.75 L17.7 -20.7 17.6 -20.65 17.6 -20.7 17.65 -20.9 Q17.4 -20.6 17.25 -20.6 16.95 -20.6 16.9 -20.85 16.85 -20.95 16.9 -21.1 16.9 -21.55 17.25 -22.6 17.3 -23.1 17.45 -23.7 L17.75 -24.9 Q18.15 -26.35 18.45 -26.85 L18.45 -27.0 Q18.45 -27.6 18.55 -27.65 L18.6 -27.7 18.65 -27.65 M16.15 -18.15 L16.5 -18.55 16.9 -19.05 17.2 -19.5 17.4 -19.85 17.65 -20.05 17.85 -20.25 18.0 -20.3 Q18.35 -20.5 18.55 -20.45 18.85 -20.3 18.85 -19.5 18.85 -19.2 18.65 -18.6 18.4 -17.75 18.05 -17.75 L17.95 -17.75 Q17.6 -17.4 16.7 -16.55 15.3 -15.3 15.2 -14.95 L15.2 -14.85 14.9 -14.55 Q14.8 -14.55 14.7 -14.65 L14.7 -14.6 Q14.6 -14.6 14.5 -14.5 14.05 -14.15 13.95 -13.6 L13.75 -14.25 13.55 -14.15 13.8 -13.25 Q14.0 -12.75 14.15 -12.5 L14.15 -12.55 Q14.2 -12.45 14.3 -12.45 L14.25 -12.45 14.1 -12.3 Q13.9 -12.15 13.7 -12.2 L13.65 -12.2 13.6 -12.25 13.55 -12.55 13.45 -12.9 13.4 -13.1 13.1 -13.65 13.2 -13.6 13.35 -13.65 13.4 -13.75 13.3 -13.9 13.4 -14.0 Q13.35 -14.25 13.25 -15.55 13.2 -16.5 12.95 -17.0 12.75 -16.85 12.7 -16.35 L12.7 -15.95 12.5 -16.75 Q12.15 -17.65 11.8 -18.0 L11.7 -18.0 Q12.05 -17.55 12.35 -16.75 12.65 -15.95 12.65 -15.55 L12.6 -15.2 Q12.55 -14.95 12.55 -14.8 L12.0 -15.2 Q11.5 -15.6 11.3 -15.85 10.95 -15.95 10.65 -15.9 10.5 -16.1 10.4 -16.35 10.4 -16.9 10.35 -17.9 10.25 -19.1 10.25 -19.75 10.4 -19.5 10.6 -19.2 10.85 -18.9 11.0 -18.75 L11.35 -18.3 11.45 -18.15 11.4 -18.25 11.7 -17.9 11.7 -17.95 11.5 -18.2 Q11.35 -18.4 11.3 -18.6 11.3 -19.05 11.7 -18.9 L11.9 -18.75 11.95 -18.75 Q12.5 -18.4 12.55 -18.1 L12.65 -18.05 Q12.8 -17.9 12.95 -17.85 L13.0 -17.85 13.05 -17.9 13.05 -17.0 13.2 -16.65 Q13.3 -16.4 13.55 -16.35 13.25 -16.6 13.2 -17.0 13.15 -17.2 13.15 -17.7 13.15 -18.25 13.2 -18.5 L13.1 -18.5 Q13.1 -18.95 13.1 -19.0 L13.2 -19.45 13.15 -19.6 13.1 -19.4 13.05 -19.75 Q12.85 -20.4 12.15 -21.0 12.45 -21.35 13.05 -21.9 13.3 -22.3 13.75 -22.55 13.95 -22.65 14.1 -22.7 L14.4 -23.05 Q15.3 -23.8 15.9 -24.35 L15.8 -24.2 15.45 -23.2 Q15.45 -23.1 15.3 -22.5 15.3 -22.25 15.3 -21.95 15.3 -21.75 15.35 -21.65 L15.35 -21.55 15.6 -20.95 15.85 -20.5 15.9 -20.25 15.9 -20.05 16.0 -20.05 16.1 -19.6 16.1 -19.5 Q16.0 -19.25 15.55 -18.3 L15.4 -18.15 Q14.75 -17.35 14.75 -17.1 L14.75 -17.05 Q13.8 -16.05 13.8 -15.65 13.8 -15.45 14.0 -14.5 L14.05 -14.5 Q14.05 -16.15 15.1 -17.0 L15.8 -17.55 Q16.15 -17.8 16.15 -18.05 L16.15 -18.15 M12.75 -14.25 L12.75 -14.3 12.7 -14.4 12.7 -14.5 Q12.75 -14.4 12.75 -14.25 M12.7 -14.7 L12.55 -14.8 12.65 -14.85 12.7 -15.1 12.7 -14.7 M13.05 -17.95 L13.0 -18.3 13.05 -18.35 13.05 -18.45 13.05 -17.95 M16.35 -24.9 L16.4 -24.95 16.35 -24.9 M18.5 -25.85 Q18.3 -25.6 18.15 -25.05 17.6 -23.5 17.6 -22.0 17.6 -21.85 17.65 -21.85 L17.8 -21.8 Q17.9 -22.0 18.25 -23.65 18.65 -25.45 18.65 -25.9 18.65 -26.15 18.5 -25.85 M15.0 -21.5 L15.0 -21.65 14.95 -21.7 13.65 -21.35 Q12.85 -21.15 12.85 -20.95 12.85 -20.8 12.85 -20.75 L12.9 -20.7 13.35 -20.6 Q13.75 -20.6 14.4 -20.95 15.0 -21.25 15.0 -21.5 M14.8 -19.8 Q14.55 -19.75 14.0 -19.3 13.55 -18.85 13.55 -18.75 13.55 -18.7 13.6 -18.6 L13.75 -18.45 Q14.1 -18.65 14.4 -18.95 14.85 -19.4 14.85 -19.7 L14.8 -19.8 M14.25 -20.3 L14.25 -20.35 13.7 -20.3 Q13.4 -20.2 13.4 -20.0 L13.6 -19.75 Q13.85 -19.75 14.05 -19.9 14.3 -20.0 14.3 -20.15 L14.25 -20.3 M16.7 -18.05 Q16.55 -18.05 16.25 -17.75 15.9 -17.45 15.9 -17.25 15.9 -17.15 15.95 -17.15 L16.0 -17.1 Q16.15 -17.2 16.45 -17.55 16.75 -17.9 16.7 -18.05 M12.0 -16.15 Q12.0 -16.35 11.55 -16.75 11.1 -17.2 11.1 -17.4 L11.15 -18.1 Q11.1 -18.6 10.6 -18.45 L10.6 -16.75 Q10.75 -16.55 11.1 -16.25 11.5 -15.9 11.7 -15.9 11.8 -15.9 11.9 -15.95 L11.95 -16.0 12.0 -16.0 12.0 -16.15 M14.4 -15.5 L14.7 -15.45 Q14.85 -15.5 15.3 -15.9 15.8 -16.4 15.8 -16.6 L15.75 -16.75 15.75 -16.8 Q15.3 -16.85 14.85 -16.35 14.35 -15.95 14.35 -15.65 L14.4 -15.5 M14.65 -16.45 L14.7 -16.45 14.8 -16.65 14.65 -16.45" fill="#b18d56" fill-rule="evenodd" stroke="none"/>
    <path d="M19.0 -26.55 L19.05 -26.35 19.05 -26.3 19.0 -26.55 M19.05 -26.15 L19.1 -26.15 19.2 -25.85 Q19.35 -25.7 19.5 -25.35 19.65 -24.9 19.65 -24.6 L19.7 -24.2 Q19.75 -23.7 19.7 -23.35 L19.1 -22.8 18.95 -22.65 18.95 -22.6 18.9 -22.6 18.6 -22.35 18.5 -22.4 18.7 -23.25 18.95 -24.25 18.75 -23.8 18.5 -23.2 18.7 -23.9 Q19.0 -24.9 19.0 -25.4 19.0 -25.5 18.95 -25.6 18.85 -25.7 18.85 -25.8 L18.85 -26.0 19.1 -25.95 19.05 -26.15 M17.6 -20.65 L17.2 -20.25 17.0 -19.9 16.9 -19.7 Q16.9 -19.45 16.35 -18.6 L16.15 -18.25 16.1 -18.3 15.55 -17.75 15.85 -18.25 Q16.35 -19.05 16.35 -19.6 16.35 -19.95 16.15 -20.5 15.95 -21.15 15.8 -21.2 L15.75 -21.15 15.75 -21.0 Q15.75 -20.85 15.85 -20.5 L15.6 -20.95 15.35 -21.55 15.35 -21.65 Q15.3 -21.75 15.3 -21.95 15.3 -22.25 15.3 -22.5 15.45 -23.1 15.45 -23.2 L15.8 -24.2 15.9 -24.35 16.3 -24.85 16.35 -24.9 16.4 -24.95 16.5 -24.4 16.65 -24.35 Q16.8 -24.25 16.85 -23.75 L17.0 -23.7 17.45 -23.7 Q17.3 -23.1 17.25 -22.6 16.9 -21.55 16.9 -21.1 16.85 -20.95 16.9 -20.85 16.95 -20.6 17.25 -20.6 17.4 -20.6 17.65 -20.9 L17.6 -20.7 17.6 -20.65 M18.55 -20.45 L18.6 -20.45 Q18.8 -20.55 18.95 -20.65 L19.05 -20.65 Q19.3 -20.4 19.55 -19.2 L19.95 -16.95 19.75 -17.0 Q19.4 -17.15 18.95 -17.1 18.05 -17.2 17.65 -16.95 17.4 -16.85 17.2 -16.6 L16.75 -16.1 16.0 -15.5 15.2 -14.85 15.2 -14.95 Q15.3 -15.3 16.7 -16.55 17.6 -17.4 17.95 -17.75 L18.05 -17.75 Q18.4 -17.75 18.65 -18.6 18.85 -19.2 18.85 -19.5 18.85 -20.3 18.55 -20.45 M14.7 -14.6 L14.8 -14.45 14.7 -14.35 14.6 -14.4 14.65 -14.35 14.35 -14.05 Q14.3 -13.95 14.4 -13.5 L14.55 -13.05 14.5 -12.7 14.45 -12.6 14.4 -12.6 14.3 -12.45 Q14.2 -12.45 14.15 -12.55 L14.15 -12.6 Q14.15 -12.8 14.0 -13.4 L13.95 -13.6 Q14.05 -14.15 14.5 -14.5 14.6 -14.6 14.7 -14.6 M11.7 -18.9 L11.85 -18.9 11.9 -18.85 11.95 -18.75 11.9 -18.75 11.7 -18.9 M18.55 -27.65 L18.55 -27.9 18.65 -27.65 18.6 -27.7 18.55 -27.65 M16.0 -20.05 L15.9 -20.05 15.9 -20.25 16.0 -20.05 M15.55 -18.3 Q16.0 -19.25 16.1 -19.5 16.05 -19.0 15.55 -18.3 M14.35 -13.0 L14.35 -13.0" fill="#94552c" fill-rule="evenodd" stroke="none"/>
    <path d="M18.9 -14.95 L18.85 -14.7 Q18.75 -14.2 18.5 -13.95 L18.4 -13.8 Q18.75 -14.35 18.9 -14.95 M10.85 -6.45 Q10.5 -6.65 10.5 -7.0 L10.6 -6.85 10.55 -6.8 Q10.65 -6.65 10.85 -6.45 M9.5 -3.4 L9.55 -3.45 9.5 -3.7 9.4 -3.9 9.3 -4.2 9.25 -4.25 9.3 -4.3 9.4 -4.15 9.45 -4.0 Q9.55 -3.6 9.7 -3.6 L9.55 -3.4 9.5 -3.4 M23.8 -15.9 L23.9 -16.2 23.85 -15.95 23.85 -15.9 23.8 -15.9 M23.55 -14.2 L23.5 -14.15 23.35 -13.5 23.35 -13.6 Q23.35 -13.7 23.35 -13.75 L23.4 -13.85 23.55 -14.2 M13.3 -12.15 L13.1 -12.15 Q13.0 -12.2 12.8 -12.3 L12.75 -12.3 13.1 -12.35 13.2 -12.35 13.3 -12.15 M12.0 -10.3 L12.0 -10.2 11.9 -10.0 12.0 -10.3" fill="#a25611" fill-rule="evenodd" stroke="none"/>
    <path d="M19.45 1.4 L18.75 3.1 18.65 3.1 19.45 1.4 M19.8 -23.2 L19.9 -23.35 19.9 -23.5 19.95 -23.15 20.1 -22.45 Q20.4 -20.9 20.5 -20.9 L20.6 -20.9 20.6 -20.85 Q20.3 -19.4 20.3 -18.6 L20.3 -18.3 20.35 -18.3 20.3 -18.15 Q20.3 -17.95 20.3 -17.8 20.45 -17.45 20.9 -17.45 21.35 -17.45 21.7 -17.95 22.05 -18.35 22.05 -18.7 22.25 -18.55 22.5 -18.5 22.65 -18.45 22.7 -18.5 L22.75 -18.6 22.75 -18.65 22.65 -18.65 22.15 -18.85 22.05 -18.9 22.0 -19.05 22.1 -19.05 Q22.25 -19.05 22.35 -19.15 22.45 -19.2 22.45 -19.35 L22.35 -19.8 22.35 -19.75 22.4 -19.75 22.45 -19.7 Q22.7 -19.4 22.95 -19.3 L22.95 -19.0 Q22.95 -18.55 23.0 -18.35 L23.1 -18.15 23.1 -18.1 Q23.15 -17.55 23.2 -17.45 23.0 -17.25 22.8 -16.95 L22.65 -16.7 22.6 -16.4 Q22.45 -15.2 22.1 -14.05 21.4 -11.85 20.45 -11.35 20.2 -11.2 19.9 -11.2 L19.85 -11.2 19.8 -11.15 Q19.65 -10.95 19.35 -10.65 L18.95 -9.6 18.9 -9.45 19.1 -10.15 Q18.55 -9.6 18.25 -8.6 18.15 -8.1 18.0 -7.15 17.4 -6.8 16.15 -6.45 15.15 -6.2 14.1 -6.1 L13.65 -6.55 Q13.15 -7.15 13.15 -7.25 13.15 -7.4 13.4 -7.65 13.65 -7.9 13.65 -8.1 L13.65 -8.15 Q14.0 -8.3 14.0 -7.65 L14.0 -7.6 14.6 -7.7 14.55 -7.5 14.6 -7.5 14.65 -7.7 15.05 -7.75 16.45 -7.9 16.7 -8.6 17.85 -9.5 Q18.15 -9.8 18.2 -10.15 18.4 -10.25 18.5 -10.5 L18.6 -10.8 18.6 -11.0 Q18.6 -11.2 17.75 -11.85 L17.65 -11.95 17.65 -12.4 17.8 -12.25 17.8 -12.3 Q18.15 -12.3 18.45 -12.15 18.55 -12.25 18.7 -12.3 19.5 -12.6 19.8 -12.95 20.05 -13.3 20.25 -13.9 L20.25 -13.95 Q20.45 -13.8 20.8 -13.8 21.1 -13.8 21.3 -14.5 21.45 -14.95 21.45 -15.25 21.45 -15.45 21.1 -15.9 L21.05 -16.0 21.0 -16.55 Q20.9 -17.1 20.5 -17.0 20.5 -17.1 20.5 -16.9 20.5 -16.75 20.6 -16.35 L20.65 -16.1 20.55 -16.0 20.55 -16.4 20.3 -16.4 20.35 -16.5 Q20.35 -16.6 20.3 -17.2 20.25 -17.9 20.15 -18.55 19.9 -19.65 19.6 -20.3 L19.55 -20.35 19.35 -20.7 19.35 -20.75 19.3 -20.85 Q19.6 -22.6 19.8 -23.2 M22.75 -22.65 L22.8 -22.8 22.85 -23.0 Q23.05 -23.75 23.3 -23.85 23.6 -24.0 24.05 -23.2 24.45 -22.45 24.45 -21.95 L24.45 -21.65 Q24.35 -21.2 23.7 -20.25 L23.45 -19.8 23.35 -19.8 Q23.1 -19.75 23.0 -19.5 L22.8 -19.85 22.75 -19.9 22.7 -19.9 22.7 -19.95 22.65 -20.0 Q22.75 -19.95 22.9 -19.95 23.2 -19.95 23.35 -20.25 23.45 -20.45 23.45 -20.75 L23.45 -20.85 Q23.0 -20.9 22.8 -21.3 22.75 -21.55 22.75 -21.9 L22.75 -22.05 Q22.7 -22.2 22.7 -22.3 22.7 -22.5 22.75 -22.65 M14.85 -12.85 L14.9 -12.95 Q14.8 -13.1 14.75 -13.3 L14.7 -13.6 Q14.65 -13.9 14.65 -14.0 14.7 -14.1 14.8 -14.0 L14.85 -14.15 15.3 -14.45 15.35 -14.4 15.45 -14.45 Q15.45 -14.35 15.45 -14.3 L15.5 -14.2 Q15.55 -14.05 15.75 -13.95 L15.75 -13.9 15.55 -13.95 15.4 -13.7 Q15.55 -13.5 15.85 -13.35 16.05 -13.25 16.25 -13.15 L15.8 -13.2 15.75 -13.2 15.55 -13.3 15.5 -13.35 15.3 -13.4 Q15.35 -13.3 15.45 -13.25 L15.15 -13.3 14.85 -12.85 M18.45 -15.65 L18.4 -15.7 18.55 -15.65 18.45 -15.65 M18.35 -15.9 Q18.25 -16.1 17.9 -16.3 L17.85 -16.35 Q17.95 -16.4 18.1 -16.45 L18.5 -16.55 18.75 -16.55 19.45 -16.6 19.55 -16.55 19.7 -16.55 19.9 -16.4 20.1 -16.4 20.1 -16.35 19.95 -16.35 Q19.75 -16.35 19.6 -16.55 19.6 -16.5 19.6 -16.4 L19.75 -16.1 Q19.95 -15.95 20.0 -15.65 L20.0 -15.4 20.0 -14.9 19.9 -14.4 Q19.8 -14.1 19.6 -13.75 19.35 -13.3 19.0 -13.1 18.75 -12.85 18.45 -12.7 18.3 -12.6 18.15 -12.65 18.35 -12.75 18.7 -13.05 19.25 -13.55 19.25 -13.75 19.25 -13.9 19.2 -13.95 L19.05 -14.1 Q18.8 -14.0 18.2 -13.4 L18.1 -13.3 18.15 -13.5 18.2 -13.5 18.35 -13.55 18.95 -14.6 19.0 -15.35 19.0 -15.55 18.9 -16.0 18.85 -16.25 18.8 -16.3 18.3 -16.4 18.2 -16.35 18.2 -16.25 18.25 -16.2 18.3 -16.2 Q18.6 -16.15 18.75 -15.95 L18.85 -15.8 18.8 -15.8 18.7 -15.75 18.75 -15.8 Q18.8 -15.95 18.65 -16.05 18.55 -16.1 18.4 -16.1 L18.35 -16.05 18.35 -15.9 M21.25 -7.95 Q21.05 -8.25 20.8 -8.4 20.55 -8.55 20.4 -8.5 L20.3 -8.55 20.3 -9.2 20.35 -9.2 Q21.2 -9.2 21.7 -9.9 22.1 -10.4 22.1 -10.9 L22.15 -11.35 22.25 -11.85 Q22.25 -12.35 21.9 -12.15 L22.6 -13.9 22.7 -14.3 23.05 -15.65 23.15 -15.65 23.15 -15.3 23.25 -15.65 23.45 -16.2 23.85 -16.8 24.3 -17.4 Q24.4 -17.0 24.65 -16.7 L24.75 -16.6 Q25.1 -16.0 25.6 -15.9 L25.45 -15.75 Q24.85 -15.1 24.85 -14.5 L24.85 -14.45 24.95 -14.15 25.05 -13.8 25.05 -13.75 25.1 -13.75 25.4 -13.85 25.7 -13.95 Q26.1 -14.2 27.0 -14.5 28.2 -14.95 28.75 -15.0 L28.65 -15.0 28.9 -15.1 28.9 -15.15 Q28.9 -15.3 29.1 -15.65 L29.2 -15.8 Q29.3 -16.05 29.45 -16.25 L29.65 -16.55 Q29.9 -16.85 30.05 -16.95 L30.3 -17.15 30.35 -17.1 30.35 -17.05 Q30.35 -16.95 30.1 -16.4 L29.85 -15.85 29.8 -15.8 29.85 -15.75 29.85 -15.65 29.65 -15.05 29.65 -15.0 29.5 -14.4 29.3 -14.3 Q29.25 -14.3 29.2 -14.35 L28.9 -14.25 28.25 -13.95 27.3 -13.6 27.05 -13.5 27.0 -13.45 26.15 -12.95 Q25.65 -12.65 25.2 -12.55 L25.1 -12.55 24.9 -12.45 24.45 -12.35 Q23.35 -12.0 22.7 -11.35 L22.4 -10.9 Q22.2 -10.6 22.15 -10.25 L22.1 -10.25 22.1 -10.1 Q22.05 -9.95 22.1 -9.95 L22.2 -9.9 22.2 -9.85 Q21.75 -9.1 21.45 -8.45 L21.25 -7.95 M24.3 -17.65 L24.25 -17.65 24.3 -17.7 24.3 -17.65 M7.95 -15.35 Q8.15 -15.4 8.95 -15.05 9.25 -14.95 9.45 -14.85 L9.75 -14.65 9.75 -14.4 Q9.8 -14.0 10.15 -14.0 10.4 -14.0 10.5 -14.2 10.65 -14.4 10.65 -14.65 L10.7 -14.75 10.8 -14.9 10.8 -14.85 10.8 -14.8 10.75 -14.75 10.7 -14.6 10.75 -14.45 Q10.75 -14.35 10.65 -14.3 L10.6 -14.15 10.65 -14.15 10.65 -14.1 10.85 -13.55 10.9 -13.5 10.9 -13.3 Q10.4 -14.15 10.4 -13.4 L10.85 -12.4 11.15 -11.75 11.2 -11.6 11.25 -10.85 Q11.25 -10.4 11.1 -10.1 L11.0 -9.9 11.0 -9.8 11.05 -9.8 10.7 -9.25 10.4 -8.8 Q10.4 -8.95 10.3 -9.15 10.55 -9.4 10.7 -9.8 10.9 -10.3 10.9 -10.95 L10.85 -11.25 10.85 -11.5 Q10.85 -11.75 10.75 -12.1 L10.75 -12.15 10.7 -12.25 10.65 -12.25 10.65 -12.3 Q10.5 -12.65 10.3 -12.7 10.0 -13.25 9.5 -13.8 L8.9 -14.45 8.75 -14.65 7.95 -15.35 M10.85 -14.95 L10.85 -15.1 10.95 -15.2 10.9 -15.35 10.7 -15.4 10.65 -15.5 11.25 -15.35 11.3 -15.35 11.4 -15.3 11.45 -15.25 11.5 -15.25 Q11.25 -15.0 11.25 -14.7 L11.25 -14.6 11.2 -14.65 Q11.1 -14.7 11.05 -14.85 L10.95 -14.95 10.85 -14.95 M10.0 -16.3 Q9.95 -16.35 9.9 -16.35 L9.8 -16.65 9.8 -17.2 9.75 -17.45 9.75 -17.5 9.8 -17.55 9.8 -17.5 Q9.85 -17.2 9.9 -16.9 L9.95 -16.5 10.0 -16.3 M10.75 -7.6 L10.95 -7.65 12.8 -7.5 12.95 -7.5 12.9 -7.3 Q12.9 -6.9 13.95 -6.1 L13.65 -6.1 13.25 -6.05 13.05 -6.05 12.0 -6.2 Q11.75 -6.35 11.4 -6.55 10.85 -6.9 10.65 -6.9 L10.6 -6.9 Q10.55 -7.05 10.55 -7.15 L10.75 -7.6 M10.05 -8.0 L10.05 -8.25 10.15 -8.35 10.15 -8.05 10.15 -7.9 10.05 -7.9 10.05 -8.0 M4.85 -4.85 L7.1 -4.8 6.5 -4.1 6.45 -4.15 Q6.1 -4.25 6.0 -4.5 L6.0 -4.55 5.9 -4.6 5.6 -4.6 Q5.15 -4.7 4.85 -4.85 M10.0 -3.85 L9.95 -4.0 10.0 -4.15 10.0 -4.6 9.95 -5.0 Q10.4 -5.35 10.95 -5.6 L11.15 -5.65 Q11.05 -6.0 11.15 -6.2 11.45 -6.05 11.7 -5.95 L11.75 -5.9 Q12.1 -5.7 12.8 -5.7 L12.8 -5.6 12.85 -5.6 Q12.35 -5.4 12.25 -5.4 L12.15 -5.15 12.1 -5.1 11.9 -5.0 11.85 -4.95 Q11.3 -4.7 10.8 -4.4 10.35 -4.15 10.0 -3.85 M9.2 -4.0 L9.25 -3.95 9.4 -3.5 9.4 -3.4 9.35 -3.15 9.3 -3.15 9.3 -3.1 Q8.8 -2.5 8.65 -1.85 L8.5 -0.9 8.0 0.3 7.45 1.55 7.3 0.7 7.2 0.25 7.55 -1.5 Q7.9 -3.1 8.75 -3.7 9.05 -3.9 9.25 -3.9 L9.2 -3.95 9.2 -4.0 M23.8 -15.9 Q23.75 -15.95 23.6 -15.8 23.35 -15.45 23.1 -14.55 L22.7 -13.4 Q22.4 -12.55 22.4 -12.4 22.4 -12.3 22.45 -12.3 L22.55 -12.3 Q22.85 -12.55 23.35 -13.75 23.35 -13.7 23.35 -13.6 L23.35 -13.5 23.5 -14.15 23.55 -14.2 Q23.9 -15.15 23.9 -15.35 23.9 -15.75 23.85 -15.9 L23.85 -15.95 23.9 -16.2 23.8 -15.9 M17.9 -13.15 L17.9 -13.15 M17.9 -10.9 L17.95 -10.85 18.05 -10.85 18.1 -10.8 17.9 -10.9 M18.9 -11.7 L19.05 -11.7 Q19.25 -11.7 19.7 -12.0 20.15 -12.35 20.15 -12.65 20.0 -12.65 19.4 -12.3 18.8 -11.95 18.8 -11.85 18.8 -11.7 18.85 -11.7 L18.85 -11.75 18.9 -11.7 M18.45 -7.95 L18.35 -7.4 18.25 -7.3 18.45 -7.95 M17.95 -6.85 L17.9 -6.8 17.9 -6.75 17.85 -6.75 Q17.65 -6.6 17.3 -6.45 16.65 -6.15 15.8 -6.0 L15.95 -5.9 15.65 -6.0 15.4 -5.95 15.15 -5.95 16.3 -6.25 Q17.55 -6.6 17.95 -6.85 M12.75 -12.3 L12.65 -12.35 12.6 -12.4 12.55 -12.4 Q12.4 -12.45 12.35 -12.6 L12.35 -12.7 12.5 -12.75 12.75 -12.95 12.85 -13.1 13.1 -12.65 13.2 -12.35 13.1 -12.35 12.75 -12.3 M13.3 -9.85 L13.35 -9.9 13.9 -10.15 Q14.6 -10.35 14.9 -10.35 L15.2 -10.35 15.45 -10.25 15.75 -10.1 Q15.7 -9.85 15.2 -9.55 L14.9 -9.4 14.95 -9.65 14.95 -9.7 14.85 -9.7 14.8 -9.35 14.45 -9.3 Q14.0 -9.3 14.0 -9.35 L13.0 -9.45 12.95 -9.55 Q13.05 -9.7 13.3 -9.85 M14.8 -7.2 Q14.7 -7.2 14.65 -7.15 L14.65 -7.05 14.7 -6.9 15.55 -6.9 Q15.6 -6.95 15.55 -7.05 L15.45 -7.15 15.35 -7.15 14.8 -7.2 M18.05 2.15 L17.9 1.0 17.8 -0.05 Q18.0 0.1 18.25 0.1 18.9 0.1 19.4 -1.45 L19.7 -2.45 19.75 -2.45 Q20.1 -2.45 20.5 -3.25 L20.5 -2.95 Q20.5 -2.7 20.05 -1.55 L19.75 -0.7 Q19.4 -0.1 19.1 0.75 L18.55 2.6 Q18.3 2.4 18.05 2.15 M13.25 -6.4 L13.2 -6.55 13.05 -6.5 Q12.95 -6.5 12.9 -6.4 12.95 -6.35 13.1 -6.3 13.15 -6.3 13.2 -6.35 L13.25 -6.4 M12.05 -6.6 L12.15 -6.5 12.1 -6.6 12.05 -6.6" fill="#99380f" fill-rule="evenodd" stroke="none"/>
    <path d="M14.65 -7.7 L14.6 -7.5 14.55 -7.5 14.6 -7.7 14.7 -8.4 14.8 -9.3 14.8 -9.35 14.85 -9.7 14.95 -9.7 14.95 -9.65 14.9 -9.4 14.9 -9.0 14.85 -8.85 14.85 -8.7 14.8 -8.4 14.8 -8.35 14.65 -7.7 M13.65 -8.15 L13.65 -8.1 Q13.65 -7.9 13.4 -7.65 13.15 -7.4 13.15 -7.25 13.15 -7.15 13.65 -6.55 L14.1 -6.1 Q15.15 -6.2 16.15 -6.45 17.4 -6.8 18.0 -7.15 18.15 -8.1 18.25 -8.6 18.55 -9.6 19.1 -10.15 L18.9 -9.45 18.75 -9.05 18.45 -7.95 18.25 -7.3 18.2 -6.85 Q18.15 -6.8 18.05 -6.8 18.0 -6.8 17.95 -6.85 17.55 -6.6 16.3 -6.25 L15.15 -5.95 14.45 -6.1 14.45 -6.05 13.95 -6.1 Q12.9 -6.9 12.9 -7.3 L12.95 -7.5 13.2 -7.85 13.55 -8.3 13.65 -8.25 13.65 -8.15 M22.05 -18.9 L22.15 -18.85 22.65 -18.65 22.75 -18.65 22.75 -18.6 22.7 -18.5 Q22.65 -18.45 22.5 -18.5 22.25 -18.55 22.05 -18.7 L22.05 -18.9 M21.65 -21.1 L21.7 -21.05 21.6 -20.95 21.6 -21.0 21.65 -21.1 M18.85 -15.8 L18.75 -15.95 Q18.6 -16.15 18.3 -16.2 L18.25 -16.2 18.2 -16.25 18.2 -16.35 18.3 -16.4 18.8 -16.3 18.85 -16.25 18.9 -16.0 19.0 -15.55 19.0 -15.35 18.95 -14.6 18.35 -13.55 18.2 -13.5 18.15 -13.5 Q17.9 -13.35 17.55 -13.35 L17.25 -13.45 Q18.0 -13.45 18.4 -13.8 L18.5 -13.95 Q18.75 -14.2 18.85 -14.7 L18.9 -14.95 18.9 -15.0 18.95 -15.4 Q18.9 -15.65 18.85 -15.8 M18.45 -12.7 Q18.75 -12.85 19.0 -13.1 19.35 -13.3 19.6 -13.75 19.8 -14.1 19.9 -14.4 19.8 -13.95 19.7 -13.7 19.35 -12.95 18.5 -12.5 L18.45 -12.55 18.45 -12.7 M20.0 -14.9 L20.0 -15.4 Q20.05 -15.2 20.05 -15.05 L20.0 -14.9 M10.8 -14.85 L10.85 -14.95 10.95 -14.95 10.9 -14.85 10.85 -14.75 Q10.8 -14.3 10.8 -14.1 10.85 -13.95 11.15 -13.15 L11.1 -13.15 11.0 -13.25 10.95 -13.25 10.9 -13.5 10.85 -13.55 10.65 -14.1 10.65 -14.15 10.6 -14.15 10.65 -14.3 Q10.75 -14.35 10.75 -14.45 L10.7 -14.6 10.75 -14.75 10.8 -14.8 10.8 -14.85 M11.05 -9.8 L11.0 -9.8 11.0 -9.9 11.1 -10.1 Q11.25 -10.4 11.25 -10.85 L11.35 -11.2 11.45 -11.2 Q11.55 -11.05 11.5 -10.8 11.5 -10.6 11.1 -9.8 L11.05 -9.8 M10.5 -7.0 Q10.45 -7.15 10.45 -7.2 L10.55 -7.55 10.9 -8.4 11.15 -8.95 11.25 -9.15 Q11.75 -10.25 12.0 -10.65 L12.05 -10.65 12.05 -10.85 Q12.25 -11.25 12.3 -11.7 L12.35 -12.0 12.4 -11.7 12.4 -11.35 12.2 -10.95 12.1 -10.65 12.1 -10.55 12.1 -10.5 12.0 -10.3 11.9 -10.0 Q11.7 -9.5 11.3 -8.7 L11.3 -8.65 11.15 -8.35 11.1 -8.35 11.1 -8.3 10.75 -7.6 10.55 -7.15 Q10.55 -7.05 10.6 -6.9 L10.65 -6.9 Q10.85 -6.9 11.4 -6.55 11.75 -6.35 12.0 -6.2 L13.05 -6.05 13.25 -6.05 Q12.8 -6.0 12.8 -5.75 L12.8 -5.7 Q12.1 -5.7 11.75 -5.9 L11.7 -5.95 Q11.45 -6.05 11.15 -6.2 L11.05 -6.3 10.85 -6.45 Q10.65 -6.65 10.55 -6.8 L10.6 -6.85 10.5 -7.0 M9.25 -4.25 L9.3 -4.2 9.4 -3.9 9.5 -3.7 9.55 -3.45 9.5 -3.4 9.45 -3.35 9.4 -3.4 9.4 -3.5 9.25 -3.95 9.2 -4.0 Q9.1 -4.2 8.65 -4.35 L8.1 -4.5 Q8.2 -4.55 8.4 -4.65 8.9 -4.8 9.2 -4.35 L9.25 -4.25 M17.9 -6.75 L17.9 -6.7 17.85 -6.75 17.9 -6.75 M12.95 -8.35 L13.0 -8.3 13.05 -8.15 12.95 -7.75 12.85 -7.6 Q12.75 -7.6 12.75 -7.65 12.85 -7.85 12.95 -8.35 M15.4 -5.95 L16.15 -5.6 Q17.35 -5.05 17.8 -4.6 18.2 -4.2 18.15 -3.65 17.95 -4.3 17.35 -4.85 16.65 -5.45 15.5 -5.8 L15.45 -5.85 15.15 -5.95 15.4 -5.95 M17.4 -0.6 L17.5 0.1 17.6 0.7 Q17.8 1.6 17.9 1.95 L17.75 1.65 17.55 0.75 17.3 -0.4 17.4 -0.6" fill="#773110" fill-rule="evenodd" stroke="none"/>
    <path d="M20.45 -11.35 Q21.4 -11.85 22.1 -14.05 22.45 -15.2 22.6 -16.4 L22.85 -16.7 22.95 -16.75 Q22.9 -16.65 22.9 -16.5 L22.9 -16.35 Q22.95 -16.25 23.0 -16.2 L22.95 -16.05 Q22.7 -15.65 22.55 -15.1 L22.2 -13.7 Q22.0 -12.8 21.65 -12.25 L21.25 -11.7 20.85 -11.4 Q20.5 -11.15 20.25 -10.85 20.2 -10.85 20.2 -10.95 L20.45 -11.35 M18.45 -21.75 L18.65 -22.0 Q19.1 -22.6 19.1 -22.1 19.1 -22.05 18.75 -21.5 L18.45 -21.0 18.4 -20.95 18.35 -20.95 Q18.25 -21.0 18.2 -21.05 18.15 -21.1 18.2 -21.2 L18.2 -21.3 Q18.25 -21.45 18.45 -21.75 M19.05 -21.7 Q19.2 -21.75 19.2 -21.55 L19.2 -21.45 19.15 -21.45 19.15 -21.4 19.0 -21.4 Q18.9 -21.4 18.85 -21.45 L18.85 -21.55 Q18.85 -21.65 19.05 -21.7 M22.2 -21.45 Q22.4 -21.4 22.4 -21.25 L22.35 -21.1 Q22.25 -21.1 22.2 -21.1 22.2 -21.4 22.0 -21.35 22.05 -21.45 22.2 -21.45 M16.2 -13.9 L16.6 -14.0 16.85 -14.05 Q17.4 -14.15 17.4 -13.95 17.4 -13.8 17.0 -13.6 16.55 -13.4 16.2 -13.4 15.8 -13.4 15.8 -13.65 15.8 -13.75 16.2 -13.9 M21.5 -20.85 L21.45 -20.65 21.45 -20.55 Q21.2 -19.45 20.95 -19.2 20.9 -19.15 20.85 -19.15 L20.8 -19.15 Q20.6 -19.15 20.55 -19.3 20.55 -19.35 20.55 -19.45 20.55 -20.05 21.0 -20.75 21.2 -21.0 21.35 -21.05 21.5 -21.1 21.5 -20.85 M17.8 -14.45 Q18.0 -14.45 18.0 -14.25 18.0 -14.2 17.95 -14.1 17.9 -14.05 17.8 -14.05 17.7 -14.05 17.65 -14.15 17.6 -14.2 17.6 -14.25 17.6 -14.4 17.8 -14.45 M23.3 -16.9 L23.35 -16.85 Q23.3 -16.9 23.2 -16.9 L23.3 -16.9 M9.25 -17.15 L9.3 -17.2 9.3 -17.05 8.85 -16.5 Q8.6 -16.1 8.65 -15.75 L8.5 -15.7 8.35 -15.8 8.35 -16.05 Q8.35 -16.4 8.55 -16.7 8.75 -17.0 9.05 -17.1 L9.2 -17.1 9.2 -17.15 9.25 -17.15 M9.2 -16.4 L9.25 -16.55 9.4 -16.75 9.6 -16.75 Q9.65 -16.75 9.65 -16.6 L9.55 -16.4 Q9.45 -16.2 9.35 -16.2 9.25 -16.25 9.2 -16.25 9.2 -16.3 9.2 -16.4 M11.2 -11.6 L11.15 -11.75 11.15 -12.3 11.1 -12.35 11.2 -12.4 11.25 -12.5 Q11.5 -12.25 11.5 -11.85 L11.45 -11.7 Q11.45 -11.55 11.25 -11.55 L11.2 -11.6 M10.9 -14.85 Q11.05 -15.0 11.05 -14.2 11.05 -14.05 11.35 -13.6 L11.65 -13.15 Q11.65 -13.1 11.6 -13.05 11.55 -13.0 11.5 -13.0 11.2 -13.0 11.0 -13.25 L11.1 -13.15 11.15 -13.15 Q10.85 -13.95 10.8 -14.1 10.8 -14.3 10.85 -14.75 L10.9 -14.85 M12.1 -10.55 Q12.45 -11.05 12.45 -10.5 12.45 -10.4 11.9 -9.3 11.35 -8.15 11.25 -8.15 11.15 -8.15 11.1 -8.3 L11.1 -8.35 11.15 -8.35 11.3 -8.65 11.3 -8.7 Q11.7 -9.5 11.9 -10.0 L12.0 -10.2 12.0 -10.3 12.1 -10.5 12.1 -10.55 M9.3 -6.55 Q9.5 -6.75 9.55 -6.8 9.7 -7.1 9.8 -7.55 9.85 -7.8 10.05 -8.0 L10.05 -7.9 10.15 -7.9 10.15 -8.05 Q10.25 -8.1 10.25 -7.8 10.25 -7.65 10.0 -7.05 L9.8 -6.4 Q9.8 -6.0 9.6 -5.65 9.1 -5.6 8.65 -5.45 L8.4 -5.35 Q8.75 -5.7 8.85 -5.95 L8.95 -6.1 9.2 -6.3 9.3 -6.55 M10.5 -6.0 Q10.5 -5.9 10.4 -5.8 10.25 -5.65 10.15 -5.65 10.0 -5.65 9.95 -5.75 L9.95 -5.85 Q9.95 -6.05 10.25 -6.15 10.5 -6.2 10.5 -6.0 M7.65 -4.35 Q8.1 -4.7 8.1 -4.2 8.1 -4.15 7.3 -2.35 7.1 -2.35 7.05 -2.55 7.05 -2.65 7.05 -2.8 7.05 -2.95 7.15 -3.25 7.25 -3.5 7.25 -3.7 7.25 -4.05 7.65 -4.35 M7.1 -1.95 Q7.3 -1.95 7.3 -1.8 7.3 -1.7 7.2 -1.65 7.15 -1.6 7.1 -1.6 6.9 -1.6 6.9 -1.7 L6.85 -1.8 Q6.85 -2.0 7.1 -1.95 M25.4 -13.85 L25.1 -13.75 25.05 -13.8 24.95 -14.15 24.85 -14.45 24.85 -14.5 Q24.85 -15.1 25.45 -15.75 L25.6 -15.9 25.85 -16.05 Q25.95 -16.05 26.0 -15.9 L26.0 -15.8 Q26.0 -15.6 25.65 -14.9 L25.4 -14.45 25.4 -14.4 Q25.5 -14.4 25.5 -14.25 25.5 -14.05 25.4 -13.95 L25.4 -13.85 M18.45 -7.95 L18.75 -9.05 19.25 -10.35 Q19.65 -11.2 19.65 -10.6 19.65 -9.75 18.9 -7.85 18.1 -5.9 17.7 -5.9 17.55 -5.9 17.55 -6.0 L17.5 -6.1 Q17.5 -6.25 17.9 -6.7 L17.9 -6.75 17.9 -6.8 17.95 -6.85 Q18.0 -6.8 18.05 -6.8 18.15 -6.8 18.2 -6.85 L18.25 -7.3 18.35 -7.4 18.45 -7.95 M11.95 -11.85 L11.85 -11.75 Q11.8 -11.65 11.7 -11.65 L11.65 -11.65 11.6 -11.7 11.6 -11.8 Q11.6 -11.95 11.75 -12.0 11.95 -12.0 11.95 -11.85 M15.2 -10.35 L14.9 -10.35 Q14.6 -10.35 13.9 -10.15 L13.35 -9.9 13.3 -9.85 13.2 -9.85 Q13.1 -9.85 13.05 -9.85 13.0 -9.9 13.0 -9.95 13.0 -10.3 14.15 -10.55 15.3 -10.8 15.3 -10.5 15.3 -10.4 15.2 -10.35 M14.85 -8.85 L15.05 -9.2 Q15.3 -9.6 15.3 -9.25 15.3 -9.05 15.15 -8.65 15.0 -8.2 14.9 -8.1 14.85 -8.2 14.8 -8.35 L14.8 -8.4 14.85 -8.7 14.85 -8.85 M15.85 -8.9 Q15.85 -8.55 15.65 -8.55 15.55 -8.55 15.5 -8.65 L15.5 -8.7 Q15.5 -9.2 15.7 -9.3 15.85 -9.4 15.85 -8.9 M19.15 -6.6 L19.0 -5.95 Q18.9 -5.45 18.9 -5.3 L18.85 -5.3 Q18.85 -5.25 18.8 -5.25 18.6 -5.25 18.55 -5.5 18.5 -5.6 18.5 -5.75 18.5 -6.1 18.85 -6.6 19.15 -7.1 19.15 -6.6 M19.9 -6.3 L19.95 -5.8 Q19.95 -5.25 19.8 -5.0 L19.7 -5.0 Q19.6 -6.2 19.6 -6.45 19.6 -6.65 19.6 -6.6 19.85 -6.5 19.9 -6.3 M25.75 -14.75 Q25.75 -15.1 26.05 -15.4 26.4 -15.7 26.4 -15.3 26.4 -15.15 26.3 -14.85 26.15 -14.55 26.0 -14.5 L25.95 -14.5 Q25.8 -14.5 25.75 -14.65 25.75 -14.7 25.75 -14.75" fill="#cb8945" fill-rule="evenodd" stroke="none"/>
    <path d="M13.1 -13.65 L13.05 -13.7 12.75 -14.25 Q12.75 -14.4 12.7 -14.5 L12.75 -14.7 12.7 -14.7 12.7 -15.1 12.7 -15.2 12.75 -15.55 12.7 -15.95 12.7 -16.35 Q12.75 -16.85 12.95 -17.0 13.2 -16.5 13.25 -15.55 13.35 -14.25 13.4 -14.0 L13.3 -13.9 13.4 -13.75 13.35 -13.65 13.2 -13.6 13.1 -13.65 M18.5 -25.85 Q18.65 -26.15 18.65 -25.9 18.65 -25.45 18.25 -23.65 17.9 -22.0 17.8 -21.8 L17.65 -21.85 Q17.6 -21.85 17.6 -22.0 17.6 -23.5 18.15 -25.05 18.3 -25.6 18.5 -25.85 M15.0 -21.5 Q15.0 -21.25 14.4 -20.95 13.75 -20.6 13.35 -20.6 L12.9 -20.7 12.85 -20.75 Q12.85 -20.8 12.85 -20.95 12.85 -21.15 13.65 -21.35 L14.95 -21.7 15.0 -21.65 15.0 -21.5 M14.8 -19.8 L14.85 -19.7 Q14.85 -19.4 14.4 -18.95 14.1 -18.65 13.75 -18.45 L13.6 -18.6 Q13.55 -18.7 13.55 -18.75 13.55 -18.85 14.0 -19.3 14.55 -19.75 14.8 -19.8 M16.7 -18.05 Q16.75 -17.9 16.45 -17.55 16.15 -17.2 16.0 -17.1 L15.95 -17.15 Q15.9 -17.15 15.9 -17.25 15.9 -17.45 16.25 -17.75 16.55 -18.05 16.7 -18.05 M14.25 -20.3 L14.3 -20.15 Q14.3 -20.0 14.05 -19.9 13.85 -19.75 13.6 -19.75 L13.4 -20.0 Q13.4 -20.2 13.7 -20.3 L14.25 -20.35 14.25 -20.3 M12.0 -16.15 L12.0 -16.0 11.95 -16.0 11.9 -15.95 Q11.8 -15.9 11.7 -15.9 11.5 -15.9 11.1 -16.25 10.75 -16.55 10.6 -16.75 L10.6 -18.45 Q11.1 -18.6 11.15 -18.1 L11.1 -17.4 Q11.1 -17.2 11.55 -16.75 12.0 -16.35 12.0 -16.15 M14.4 -15.5 L14.35 -15.65 Q14.35 -15.95 14.85 -16.35 15.3 -16.85 15.75 -16.8 L15.75 -16.75 15.8 -16.6 Q15.8 -16.4 15.3 -15.9 14.85 -15.5 14.7 -15.45 L14.4 -15.5" fill="#c6ad64" fill-rule="evenodd" stroke="none"/>
    <path d="M16.15 -18.25 L16.15 -18.15 16.15 -18.05 Q16.15 -17.8 15.8 -17.55 L15.1 -17.0 Q14.05 -16.15 14.05 -14.5 L14.0 -14.5 Q13.8 -15.45 13.8 -15.65 13.8 -16.05 14.75 -17.05 L14.75 -17.1 Q14.75 -17.35 15.4 -18.15 L15.55 -18.3 Q16.05 -19.0 16.1 -19.5 L16.1 -19.6 16.0 -20.05 15.9 -20.25 15.85 -20.5 Q15.75 -20.85 15.75 -21.0 L15.75 -21.15 15.8 -21.2 Q15.95 -21.15 16.15 -20.5 16.35 -19.95 16.35 -19.6 16.35 -19.05 15.85 -18.25 L15.55 -17.75 16.1 -18.3 16.15 -18.25 M13.05 -17.9 L13.05 -17.95 13.05 -18.45 13.05 -18.5 13.1 -18.5 13.2 -18.5 Q13.15 -18.25 13.15 -17.7 13.15 -17.2 13.2 -17.0 13.25 -16.6 13.55 -16.35 13.3 -16.4 13.2 -16.65 L13.05 -17.0 13.05 -17.9 M18.5 -23.2 L18.75 -23.8 18.95 -24.25 18.7 -23.25 18.5 -22.4 18.35 -22.05 18.3 -22.1 Q18.25 -22.2 18.25 -22.3 18.25 -22.55 18.5 -23.2 M12.55 -14.8 Q12.55 -14.95 12.6 -15.2 L12.65 -15.55 Q12.65 -15.95 12.35 -16.75 12.05 -17.55 11.7 -18.0 L11.8 -18.0 Q12.15 -17.65 12.5 -16.75 L12.7 -15.95 12.75 -15.55 12.7 -15.2 12.7 -15.1 12.65 -14.85 12.55 -14.8 M14.15 -12.55 L14.15 -12.5 Q14.0 -12.75 13.8 -13.25 L13.55 -14.15 13.75 -14.25 13.95 -13.6 14.0 -13.4 Q14.15 -12.8 14.15 -12.6 L14.15 -12.55" fill="#64391e" fill-rule="evenodd" stroke="none"/>
  </g>
</svg>
