<?xml version="1.0" encoding="UTF-8" standalone="no"?>
<svg xmlns:ffdec="https://www.free-decompiler.com/flash" xmlns:xlink="http://www.w3.org/1999/xlink" ffdec:objectType="shape" height="36.7px" width="25.85px" xmlns="http://www.w3.org/2000/svg">
  <g transform="matrix(1.0, 0.0, 0.0, 1.0, -1.9, 34.65)">
    <path d="M27.1 -28.9 Q27.55 -28.3 27.7 -27.75 L27.75 -27.55 27.75 -27.4 Q27.8 -27.0 27.6 -25.5 L27.45 -24.55 Q27.1 -24.25 26.8 -23.8 26.45 -23.35 26.25 -23.0 L25.6 -22.55 Q24.1 -21.5 24.0 -21.1 23.85 -21.0 23.75 -20.95 L23.95 -20.6 Q24.45 -20.45 25.05 -20.05 26.2 -19.25 26.2 -18.7 L26.2 -18.5 26.15 -18.35 26.15 -18.3 26.1 -18.3 26.1 -18.0 25.95 -17.9 25.95 -17.8 Q25.75 -17.15 25.75 -16.95 L25.65 -16.4 25.6 -15.9 Q25.6 -15.65 25.35 -14.35 L25.35 -13.95 25.4 -14.0 25.6 -13.3 25.65 -13.15 25.6 -13.0 25.7 -12.7 25.85 -12.4 26.05 -11.85 26.3 -11.25 27.1 -9.65 27.35 -9.1 Q27.35 -8.7 27.15 -8.3 27.1 -8.0 26.95 -7.65 26.85 -7.35 26.55 -7.05 26.25 -6.7 25.8 -6.3 24.6 -5.2 22.6 -4.2 20.6 -3.2 18.45 -2.65 17.1 -2.25 15.9 -2.15 L15.7 -2.05 Q14.15 -1.5 13.15 -1.1 L12.7 -0.85 10.55 0.5 10.5 0.5 10.35 0.65 9.7 1.4 Q9.35 1.6 8.95 1.85 L8.65 2.05 8.65 2.0 Q8.35 1.95 8.2 1.45 L8.1 0.85 8.1 0.75 8.0 0.4 7.9 -0.25 Q7.15 0.9 6.65 1.0 6.6 1.15 6.6 0.9 L6.6 0.85 6.4 1.25 Q6.3 0.85 6.3 0.5 L6.3 0.45 Q6.35 0.15 6.4 -0.4 L6.4 -0.45 6.45 -0.7 6.4 -0.7 6.45 -1.05 6.5 -1.2 6.35 -2.0 6.25 -2.55 5.85 -3.75 5.65 -4.15 5.6 -4.15 5.35 -4.6 4.85 -5.35 4.75 -5.45 4.8 -5.45 4.65 -5.65 Q3.85 -6.75 3.05 -7.35 L2.35 -7.8 2.2 -7.9 Q2.05 -8.0 1.95 -8.2 1.9 -8.35 1.9 -8.45 L2.0 -9.05 2.2 -10.0 2.4 -10.3 2.5 -10.65 Q2.75 -11.65 2.85 -12.35 L3.4 -14.0 Q3.9 -14.65 4.25 -14.95 L7.45 -17.45 Q7.8 -17.65 8.25 -17.8 L8.55 -18.0 Q9.0 -18.2 9.15 -18.3 L9.2 -18.3 9.65 -18.4 9.7 -18.5 9.65 -18.65 9.15 -18.6 9.15 -18.55 Q8.95 -18.85 7.95 -19.1 7.85 -19.3 7.65 -19.6 7.3 -20.05 6.8 -20.4 5.75 -21.15 4.85 -20.9 L4.8 -20.9 4.8 -21.1 Q4.8 -21.55 4.7 -21.8 L4.75 -21.85 5.15 -22.4 Q5.85 -23.4 5.85 -23.95 5.85 -24.45 5.65 -24.9 L5.65 -25.0 5.6 -25.2 5.65 -25.35 6.4 -25.85 6.45 -25.9 6.9 -25.3 7.05 -25.05 Q7.5 -24.4 7.55 -24.05 L7.55 -23.75 7.35 -23.3 7.0 -22.55 7.0 -22.35 7.2 -22.3 Q7.5 -22.3 7.85 -22.55 L8.1 -22.75 8.8 -22.7 8.95 -22.35 Q9.0 -22.1 9.15 -22.1 L9.3 -22.1 Q9.4 -22.2 9.5 -22.5 L9.5 -22.55 9.65 -22.65 Q9.75 -22.6 9.85 -22.6 10.05 -22.6 10.2 -22.7 10.3 -22.75 10.3 -22.85 10.3 -22.95 10.1 -23.4 9.75 -24.7 9.25 -24.65 L8.95 -24.95 8.9 -24.95 Q8.75 -25.65 8.45 -26.25 L8.3 -26.5 Q8.3 -27.4 8.45 -28.25 L8.45 -28.35 Q8.8 -29.75 8.9 -30.4 L9.55 -31.0 9.55 -30.85 Q9.55 -30.65 9.65 -30.05 9.75 -29.45 9.85 -29.35 L9.9 -29.2 10.0 -28.5 Q10.05 -28.35 10.15 -28.15 L10.4 -27.65 Q10.55 -27.35 10.7 -27.25 L10.7 -27.15 Q10.85 -26.9 11.2 -26.5 11.5 -26.15 11.55 -26.15 L11.65 -26.15 11.75 -26.2 11.75 -26.3 11.6 -26.7 11.6 -26.75 11.85 -28.15 12.05 -28.95 Q12.35 -29.75 12.35 -29.95 L12.35 -30.0 12.5 -30.25 12.75 -30.5 13.05 -29.6 13.15 -29.4 Q13.15 -28.8 13.25 -28.2 13.35 -27.0 13.7 -27.0 13.8 -27.0 13.8 -27.1 L13.7 -27.35 13.7 -27.6 13.65 -28.05 Q14.1 -28.8 14.5 -30.45 14.85 -31.8 14.95 -32.9 L15.05 -33.1 15.05 -33.25 15.15 -33.75 15.6 -34.45 16.0 -33.7 16.7 -31.7 16.95 -30.95 17.05 -30.7 Q17.3 -30.1 17.45 -29.1 L17.45 -29.05 17.4 -29.05 Q17.15 -28.2 17.15 -27.75 17.2 -27.3 17.3 -26.85 L17.3 -26.8 17.35 -26.7 17.4 -26.5 17.35 -26.5 17.35 -26.4 17.55 -25.85 Q17.85 -25.25 18.0 -25.25 L18.1 -25.3 18.1 -25.2 Q18.15 -25.2 18.2 -25.2 18.4 -25.4 18.65 -25.8 L18.8 -26.05 Q19.45 -26.7 19.65 -26.85 L21.0 -27.65 21.25 -27.75 21.4 -27.55 Q21.35 -26.9 21.2 -26.25 L21.05 -25.45 Q21.05 -25.3 21.35 -25.05 21.75 -24.65 22.2 -24.65 22.35 -24.65 22.4 -24.7 L22.45 -24.7 Q23.9 -25.1 24.65 -25.45 25.65 -26.0 25.9 -26.7 26.0 -27.0 26.0 -27.4 L26.0 -28.4 Q26.3 -28.7 26.7 -29.2 L27.1 -28.9 M9.2 -31.3 L9.25 -31.35 9.25 -31.3 9.2 -31.3 M10.85 -26.2 Q10.15 -26.8 9.7 -28.15 9.45 -28.9 9.35 -29.65 L9.3 -30.1 9.05 -28.95 Q8.85 -27.85 8.75 -27.15 L8.75 -26.95 8.8 -26.55 8.85 -26.6 8.85 -26.3 Q8.85 -26.15 8.9 -26.0 L9.05 -25.65 Q9.3 -25.0 9.75 -24.85 10.0 -24.6 10.1 -24.4 10.3 -24.1 10.35 -23.65 10.45 -23.25 10.5 -22.65 L10.5 -22.4 10.6 -22.35 Q10.9 -22.25 11.2 -21.9 L11.3 -21.75 11.4 -21.4 Q11.0 -22.0 10.8 -22.15 L10.2 -22.2 10.1 -22.2 10.05 -22.15 9.85 -22.15 9.85 -21.8 9.65 -21.05 9.5 -20.45 9.5 -20.4 9.55 -20.4 Q9.9 -20.2 10.4 -19.85 L10.75 -19.6 10.8 -19.55 10.9 -19.5 11.0 -19.45 11.05 -19.4 11.1 -19.4 11.3 -19.3 11.35 -19.25 Q11.45 -19.2 11.5 -19.15 L11.6 -19.1 11.6 -19.15 11.65 -19.15 11.65 -19.2 11.75 -19.8 Q11.75 -20.0 11.55 -20.6 L11.45 -21.05 11.4 -21.15 11.4 -21.3 11.45 -21.3 11.55 -21.05 11.65 -20.75 11.8 -20.05 11.8 -19.9 11.85 -19.85 11.9 -19.4 11.9 -19.25 11.85 -18.95 11.9 -18.8 11.75 -18.15 Q11.65 -17.6 11.65 -17.35 L11.6 -16.6 11.6 -16.1 11.75 -16.1 12.85 -18.45 12.9 -18.55 12.85 -18.6 12.85 -18.65 12.8 -18.65 12.75 -18.7 12.8 -18.65 12.85 -18.7 12.8 -18.75 12.75 -18.85 12.75 -18.9 Q12.65 -19.05 12.65 -19.35 L12.65 -19.7 Q12.65 -20.05 12.75 -20.4 12.8 -20.6 12.9 -20.7 L13.0 -20.9 13.05 -20.9 13.05 -20.8 13.15 -20.85 13.15 -20.75 Q13.15 -20.7 13.05 -20.35 12.9 -20.05 12.9 -19.7 12.9 -19.5 13.0 -19.3 13.05 -19.15 13.15 -19.0 L13.25 -18.95 13.9 -18.95 15.45 -19.05 16.3 -19.0 16.5 -19.0 16.6 -19.05 16.7 -19.0 Q17.05 -19.1 17.25 -19.3 L17.3 -19.4 17.3 -19.45 Q17.25 -20.05 17.3 -20.25 L17.35 -20.65 17.4 -21.1 17.4 -21.15 Q17.4 -21.5 17.25 -21.7 L17.2 -21.75 16.95 -21.95 16.9 -21.95 Q15.75 -21.9 14.3 -21.25 L13.7 -20.95 13.75 -21.05 14.0 -21.3 14.15 -21.4 Q14.9 -21.7 16.3 -22.1 L17.15 -22.1 17.2 -22.05 17.45 -21.75 17.65 -21.45 17.7 -21.25 17.6 -19.8 Q17.4 -19.3 17.05 -18.75 L17.0 -18.75 16.35 -18.65 16.3 -18.65 16.05 -18.6 15.9 -18.6 15.5 -18.55 15.45 -18.2 15.4 -18.1 Q15.25 -17.85 15.0 -17.8 L14.5 -17.8 14.45 -17.75 14.0 -17.85 13.85 -17.9 13.8 -17.9 13.4 -18.1 13.35 -18.15 Q13.2 -18.3 13.15 -18.4 L13.15 -18.45 13.05 -18.55 13.0 -18.45 12.85 -18.1 12.8 -17.95 12.75 -17.85 12.6 -17.45 12.55 -17.35 12.5 -17.25 11.9 -15.95 11.85 -15.95 11.8 -15.95 11.55 -16.0 11.4 -16.05 11.25 -16.15 11.4 -16.15 11.4 -16.25 11.35 -17.25 11.35 -17.35 11.3 -17.45 11.3 -18.15 11.1 -17.95 11.05 -18.1 11.2 -18.25 11.25 -18.25 11.35 -18.35 11.2 -18.35 11.15 -18.35 Q10.9 -18.4 10.75 -18.6 L10.7 -18.6 10.7 -18.65 10.65 -18.7 Q10.55 -18.75 10.5 -18.8 L10.45 -18.9 10.55 -18.8 10.6 -18.8 10.45 -19.0 10.35 -19.25 Q10.35 -19.4 10.45 -19.4 L10.1 -19.7 10.05 -19.75 Q9.8 -19.9 9.65 -20.0 9.2 -20.3 9.2 -20.4 L9.3 -20.8 9.35 -21.2 9.3 -21.55 9.35 -21.65 9.3 -21.65 Q9.25 -21.75 9.2 -21.65 8.85 -21.65 8.65 -21.95 L8.5 -22.2 8.3 -22.25 8.25 -22.2 Q8.2 -22.15 8.05 -22.15 L7.95 -22.15 Q7.85 -22.05 7.75 -22.05 L7.65 -22.05 Q7.15 -22.15 6.85 -22.05 L6.75 -22.0 6.75 -22.05 6.5 -22.2 6.55 -22.25 Q6.6 -22.45 6.8 -22.85 L7.0 -23.25 7.0 -23.3 6.9 -24.1 6.75 -24.6 6.75 -24.7 6.65 -24.9 6.35 -25.4 6.05 -25.05 5.85 -24.85 5.85 -24.75 5.95 -24.55 Q6.1 -24.15 6.1 -23.85 L6.1 -23.6 6.15 -23.5 Q6.15 -23.2 5.95 -22.85 L5.9 -22.7 Q5.75 -22.45 5.6 -22.25 L5.45 -22.1 5.4 -22.0 5.3 -21.9 5.0 -21.35 Q5.15 -21.25 5.35 -21.25 5.4 -21.15 5.6 -21.1 6.35 -20.9 7.15 -20.8 7.55 -20.45 7.85 -20.3 L7.9 -20.25 7.95 -20.25 7.95 -20.1 7.95 -19.9 8.0 -19.85 8.05 -19.85 8.05 -19.9 8.2 -19.6 8.25 -19.45 8.75 -19.2 8.8 -19.15 9.3 -18.85 9.35 -18.8 9.4 -18.75 9.4 -18.8 9.4 -19.05 9.45 -19.3 9.45 -19.35 Q9.45 -19.45 9.6 -19.55 L9.6 -19.5 10.25 -17.0 10.25 -16.95 10.2 -16.95 10.35 -16.5 10.25 -16.45 10.05 -16.45 10.05 -16.4 9.95 -16.35 Q10.0 -16.25 10.2 -16.05 L10.35 -15.75 10.35 -15.6 Q10.35 -15.4 10.2 -15.2 L9.7 -14.85 9.65 -14.75 Q8.95 -14.85 8.7 -15.3 8.6 -15.55 8.45 -16.0 L8.35 -15.9 Q8.3 -16.0 8.25 -15.7 8.2 -15.65 8.2 -15.55 L8.2 -15.25 Q8.25 -14.75 8.35 -14.25 8.5 -13.7 8.7 -13.45 L8.6 -13.35 8.55 -13.4 Q8.15 -13.35 7.55 -12.6 L7.5 -12.5 7.1 -12.1 6.9 -11.8 Q6.7 -11.55 6.65 -11.4 L5.85 -11.3 Q5.45 -11.25 5.4 -11.1 L5.1 -11.1 5.0 -11.0 5.15 -11.0 Q5.15 -10.9 5.2 -10.75 5.35 -10.55 5.65 -10.55 L5.75 -10.55 5.75 -10.6 5.85 -10.7 5.9 -10.7 Q6.05 -10.8 6.25 -10.8 L6.45 -10.9 6.6 -10.65 6.7 -10.6 6.8 -10.5 6.85 -10.5 6.9 -10.45 6.7 -10.0 6.6 -9.8 6.5 -9.55 Q6.5 -9.45 6.6 -9.3 L6.7 -9.1 Q6.8 -9.15 6.85 -9.15 7.0 -9.7 7.3 -10.2 7.45 -10.5 7.7 -10.75 L7.8 -10.9 7.95 -11.05 8.0 -11.1 8.8 -11.2 8.95 -11.15 9.1 -11.25 Q9.25 -11.4 9.25 -11.8 L9.25 -11.85 9.3 -11.9 9.3 -11.35 9.35 -10.95 9.35 -10.75 9.4 -10.65 Q9.4 -10.45 9.5 -10.35 L9.5 -10.3 Q9.5 -10.15 9.6 -10.0 9.75 -9.7 10.05 -9.7 10.2 -9.7 10.3 -9.85 L10.3 -9.9 10.6 -10.0 10.65 -10.0 10.75 -10.35 10.8 -10.85 10.9 -11.3 Q10.85 -10.95 10.85 -10.8 L11.2 -10.85 11.25 -10.95 Q11.3 -10.8 11.45 -10.5 L11.65 -10.25 11.75 -10.0 11.75 -9.95 Q11.8 -9.75 11.85 -9.6 11.95 -9.25 12.2 -9.25 12.4 -9.25 12.95 -9.95 L13.25 -10.35 13.85 -10.9 13.95 -10.9 13.95 -11.0 14.1 -11.1 14.15 -11.15 14.65 -11.55 14.65 -11.5 Q14.85 -11.55 14.9 -11.6 L14.9 -11.7 15.15 -11.9 15.15 -11.95 15.5 -12.15 15.55 -12.15 Q15.7 -12.15 16.25 -12.65 L16.3 -12.7 16.35 -12.65 Q16.45 -12.75 16.75 -13.3 L17.85 -14.7 Q18.45 -15.4 19.05 -15.8 L19.3 -15.9 19.3 -15.95 19.45 -16.0 Q19.9 -16.35 21.2 -17.0 L21.45 -17.35 21.45 -17.55 21.65 -17.6 21.6 -17.7 21.5 -17.75 Q21.55 -18.3 21.8 -19.0 L21.85 -19.3 21.9 -19.55 21.9 -19.6 21.95 -19.75 23.35 -21.0 23.4 -21.0 23.55 -21.25 24.45 -22.1 Q25.5 -23.2 25.95 -23.75 L26.5 -24.15 26.6 -24.35 Q26.85 -24.9 27.0 -25.5 L27.05 -25.55 27.05 -26.2 Q27.1 -27.05 27.1 -27.7 L27.1 -27.8 26.95 -28.1 Q26.8 -28.35 26.65 -28.4 26.6 -27.8 26.5 -27.3 L26.4 -26.85 26.4 -26.7 26.35 -26.65 26.35 -26.7 Q26.2 -26.3 25.95 -25.85 L25.75 -25.45 Q25.2 -25.2 23.65 -24.7 L22.6 -24.35 22.55 -24.35 Q22.3 -24.35 22.05 -24.15 L22.05 -24.1 21.55 -23.9 21.35 -23.8 21.3 -23.75 21.25 -23.75 21.0 -23.55 20.9 -23.5 Q20.1 -22.95 19.7 -22.5 19.35 -22.15 19.2 -21.75 19.35 -22.5 20.05 -23.05 L20.55 -23.45 21.0 -23.75 21.75 -24.35 21.3 -24.6 20.85 -24.9 20.7 -24.9 20.7 -24.95 20.7 -25.1 20.65 -25.25 20.7 -25.3 20.7 -25.6 Q20.65 -25.8 20.75 -26.0 L20.8 -26.1 20.85 -26.35 20.9 -26.5 20.9 -26.7 21.0 -27.3 20.95 -27.25 20.8 -27.15 20.55 -26.9 20.4 -26.8 19.5 -26.1 19.45 -26.05 19.25 -25.9 18.75 -25.4 18.45 -25.05 18.45 -25.0 18.4 -24.9 18.25 -24.65 18.25 -24.45 18.2 -24.4 18.0 -24.55 17.75 -25.05 17.25 -25.4 17.1 -25.65 Q17.0 -25.85 16.9 -26.2 16.85 -26.3 16.85 -26.45 L16.85 -26.5 Q16.85 -26.7 16.75 -26.8 L16.75 -26.95 16.7 -27.15 16.7 -27.55 16.65 -27.5 16.65 -27.55 16.7 -27.55 Q16.7 -27.9 16.75 -28.4 L16.8 -29.35 16.8 -29.45 16.75 -29.6 16.25 -31.55 16.15 -32.0 Q15.7 -32.95 15.6 -33.5 L15.6 -33.6 15.6 -33.9 15.5 -33.7 15.5 -33.6 15.45 -32.95 Q15.3 -32.0 14.75 -29.9 L14.75 -29.75 14.25 -27.25 14.15 -27.0 Q14.0 -26.55 14.0 -26.4 L14.0 -26.35 Q13.95 -26.3 14.0 -26.25 L14.0 -26.15 13.95 -25.95 Q13.9 -25.75 13.9 -25.65 13.9 -25.4 14.0 -25.2 14.1 -25.05 14.2 -24.95 L14.45 -24.65 14.45 -24.6 14.55 -24.5 14.55 -24.45 Q14.7 -24.05 14.85 -23.75 L14.6 -24.1 14.9 -23.65 14.95 -23.6 Q13.95 -24.6 13.4 -26.35 L13.0 -27.8 12.85 -28.25 12.85 -28.75 Q12.8 -29.15 12.7 -29.15 L12.6 -29.65 Q12.55 -29.4 12.5 -29.0 L12.5 -28.9 12.45 -28.8 Q12.25 -28.2 12.25 -27.8 L12.25 -27.7 Q12.15 -27.65 12.15 -27.15 L12.15 -27.1 12.05 -25.95 12.05 -25.9 12.0 -25.8 12.0 -25.7 12.0 -25.5 12.05 -25.1 12.05 -24.8 12.0 -24.75 11.9 -24.5 11.85 -24.4 11.85 -24.35 11.8 -24.25 11.7 -24.05 11.65 -24.0 11.6 -23.9 11.6 -23.8 11.55 -23.75 11.5 -23.75 11.45 -23.55 11.45 -23.5 Q11.35 -23.3 11.35 -23.05 11.35 -22.8 11.5 -22.55 L11.5 -22.45 11.0 -22.7 11.25 -22.65 11.2 -22.75 Q11.1 -22.9 11.1 -23.1 11.1 -23.5 11.3 -23.9 L11.4 -24.1 11.4 -24.2 11.5 -24.35 11.7 -24.8 11.6 -25.2 Q11.6 -25.35 11.55 -25.55 L11.45 -25.8 11.4 -25.85 Q11.2 -25.95 10.95 -26.1 L10.85 -26.2 M12.75 -18.7 L12.7 -18.75 12.7 -18.8 12.75 -18.7 M15.75 -34.65 L15.8 -34.55 15.7 -34.6 15.75 -34.65 M20.65 -25.45 L20.7 -25.4 20.65 -25.4 20.65 -25.45 M21.55 -25.2 Q21.5 -25.25 21.45 -25.25 L21.55 -25.2 M18.3 -22.4 L18.4 -22.4 18.35 -22.35 18.35 -22.3 18.3 -22.4 M15.0 -18.1 Q15.3 -18.25 15.3 -18.45 L15.3 -18.6 13.9 -18.6 14.0 -18.4 14.05 -18.2 Q14.05 -18.15 14.05 -18.1 14.0 -18.0 13.9 -18.0 L14.5 -18.0 Q14.8 -18.0 15.0 -18.1 M15.4 -17.45 L15.15 -17.2 Q15.0 -17.2 14.95 -17.25 15.25 -17.4 15.7 -17.9 L15.75 -17.95 16.25 -18.5 16.25 -18.45 Q16.15 -18.25 16.0 -18.0 L15.95 -18.0 Q15.65 -17.75 15.4 -17.45 M13.25 -18.0 L13.6 -17.6 Q13.9 -17.35 14.4 -17.2 L14.45 -17.2 14.55 -17.15 14.3 -17.1 Q14.05 -17.1 13.85 -17.2 L13.55 -17.45 13.45 -17.5 13.3 -17.7 13.25 -18.0 M12.8 -15.25 L13.3 -15.05 13.65 -14.95 14.3 -14.75 14.45 -14.65 14.6 -14.6 14.7 -14.5 14.75 -14.3 14.15 -14.5 13.55 -14.75 13.1 -14.9 13.0 -14.9 Q12.0 -15.2 10.75 -15.25 10.5 -15.1 10.25 -14.75 L10.1 -14.5 Q9.95 -14.3 9.85 -14.05 L9.8 -14.0 9.8 -14.05 9.75 -14.1 9.75 -14.15 Q9.75 -14.2 10.05 -14.6 L10.25 -14.95 10.55 -15.35 10.65 -15.4 10.65 -15.45 10.7 -15.5 10.75 -15.5 12.25 -15.35 12.8 -15.25 M25.0 -19.25 Q24.3 -19.9 23.6 -20.35 L23.35 -20.5 23.25 -20.4 22.95 -20.0 22.85 -19.85 Q22.6 -19.55 22.45 -19.2 22.45 -18.85 22.35 -18.35 L22.2 -17.85 22.1 -17.45 22.9 -17.85 23.15 -18.1 23.6 -18.65 23.6 -19.0 Q23.6 -19.85 23.55 -20.05 L23.7 -20.05 23.85 -19.7 23.85 -19.75 23.75 -19.7 23.85 -19.4 23.9 -19.2 Q23.8 -19.1 23.8 -18.9 L24.0 -19.1 24.1 -18.7 24.1 -18.65 24.15 -18.55 24.15 -18.45 24.2 -18.3 Q24.2 -18.05 23.4 -17.45 L23.3 -17.4 22.7 -16.95 22.35 -16.8 Q22.15 -16.65 21.95 -16.55 L21.5 -16.3 21.6 -16.35 18.9 -14.65 18.55 -14.4 18.5 -14.35 17.8 -13.7 17.55 -13.25 Q17.15 -12.6 16.4 -12.2 L14.6 -10.85 14.65 -10.95 14.4 -10.7 14.05 -10.4 13.5 -9.85 12.0 -8.2 Q11.1 -7.2 10.35 -6.8 L10.15 -6.5 9.75 -5.95 9.15 -4.7 8.85 -4.15 8.7 -3.75 8.4 -3.25 Q8.3 -2.75 8.3 -2.3 8.3 -1.5 8.35 -0.85 L8.35 -0.55 8.45 -0.25 Q8.45 0.0 8.55 0.25 L8.55 0.3 8.7 0.95 8.7 1.0 8.75 1.1 8.75 1.15 8.85 1.3 8.9 1.3 9.0 1.2 9.1 1.05 9.2 0.95 Q9.1 0.7 9.1 0.35 9.1 -0.05 9.65 -1.45 10.2 -2.85 10.35 -2.5 L9.65 -0.75 Q9.3 0.15 9.3 0.75 L9.5 0.55 10.05 0.15 Q10.95 -0.5 12.35 -1.25 L13.0 -1.55 Q14.9 -2.45 16.35 -2.75 L17.3 -3.15 19.05 -3.6 19.1 -3.6 Q21.3 -4.05 23.15 -5.2 L23.75 -5.35 23.35 -5.35 23.65 -5.5 24.35 -6.05 Q24.9 -6.5 25.3 -6.95 L25.55 -7.3 25.6 -7.4 25.7 -7.55 25.75 -7.55 25.75 -7.6 26.0 -8.0 26.15 -8.25 26.15 -8.35 26.25 -8.7 26.35 -8.7 Q26.5 -9.05 26.55 -9.35 L26.55 -9.55 26.4 -9.9 25.65 -11.15 25.4 -11.7 25.4 -11.85 Q25.4 -12.0 25.35 -12.05 L25.2 -12.05 25.15 -12.0 25.1 -12.0 25.15 -12.15 25.0 -11.95 24.4 -11.45 Q23.9 -10.95 23.15 -10.1 L22.8 -9.75 22.3 -9.1 22.1 -9.0 21.45 -8.55 21.4 -8.55 21.4 -8.5 21.35 -8.5 21.3 -8.6 22.1 -9.35 21.65 -9.1 22.2 -9.55 22.8 -10.15 22.85 -10.2 23.15 -10.4 Q23.35 -10.55 23.55 -10.75 24.0 -11.15 24.2 -11.5 L24.3 -11.6 24.35 -11.75 24.45 -11.9 Q24.55 -12.1 24.55 -12.3 24.55 -12.45 24.7 -12.75 L24.7 -12.8 Q24.75 -12.95 24.75 -13.05 L24.75 -13.15 24.85 -13.25 Q24.85 -14.4 25.05 -15.55 L25.1 -15.65 25.05 -16.45 25.05 -16.65 Q25.05 -16.8 25.4 -17.5 L25.7 -18.1 25.65 -18.3 25.6 -18.6 25.1 -19.15 25.0 -19.25 M14.4 -10.65 L14.4 -10.7 14.4 -10.65 M18.05 -14.15 L17.9 -13.9 17.9 -13.85 18.15 -14.2 18.05 -14.15 M8.55 -25.5 L8.55 -25.4 8.6 -25.3 8.55 -25.35 8.55 -25.5 M9.8 -23.05 L9.8 -23.05 M9.6 -17.55 L9.55 -17.7 9.55 -17.95 9.4 -17.95 9.35 -17.9 9.2 -17.85 9.0 -17.7 Q7.55 -16.95 6.5 -16.2 5.6 -15.55 5.2 -15.05 L4.65 -14.65 4.2 -14.25 4.05 -13.95 4.05 -13.85 Q4.05 -13.5 3.3 -11.4 L3.1 -10.85 Q3.1 -10.65 2.85 -9.95 2.55 -9.25 2.55 -8.9 L2.55 -8.8 2.6 -8.75 2.75 -8.4 2.95 -8.1 Q3.25 -7.95 3.5 -7.75 L3.6 -7.65 Q4.1 -7.2 4.45 -6.65 L4.5 -6.6 4.5 -6.55 4.6 -6.35 5.15 -5.8 5.15 -5.75 5.2 -5.7 Q5.9 -4.8 6.35 -3.85 L6.65 -3.0 6.75 -2.8 6.85 -2.55 6.8 -2.4 6.95 -1.7 7.0 -1.5 7.05 -1.4 7.05 -0.8 6.95 -0.45 6.85 0.05 6.8 0.15 6.65 0.75 Q6.7 0.5 7.0 0.1 L7.25 -0.15 7.25 -0.2 7.7 -0.6 7.8 -0.6 7.85 -0.65 7.85 -1.3 7.9 -2.2 7.9 -2.35 7.95 -2.55 7.85 -2.45 7.8 -2.4 7.85 -2.5 7.85 -3.2 7.65 -3.5 7.7 -3.7 Q7.35 -4.6 6.85 -5.2 L6.8 -5.35 6.7 -5.5 6.65 -5.55 5.2 -6.95 Q4.55 -7.55 4.0 -8.0 L3.65 -8.55 Q3.3 -9.1 3.3 -9.15 3.3 -9.4 3.3 -9.3 L3.4 -9.25 3.4 -9.5 Q3.4 -9.8 3.7 -11.25 4.05 -12.9 4.3 -13.35 L4.35 -13.2 3.95 -11.95 Q3.75 -11.2 3.75 -10.7 L3.75 -10.65 3.7 -9.9 Q3.65 -9.4 3.65 -9.05 L4.0 -8.75 4.05 -8.7 4.05 -8.65 4.35 -8.25 4.45 -8.1 4.5 -8.05 Q5.1 -7.3 5.55 -6.95 5.9 -6.7 7.1 -5.7 L8.2 -4.8 Q8.25 -4.6 8.45 -4.45 L8.65 -4.75 8.65 -4.95 8.9 -5.2 8.9 -5.05 9.25 -5.5 9.95 -6.5 Q10.35 -7.05 10.7 -7.45 L10.65 -7.65 Q10.4 -7.95 10.3 -8.4 10.2 -8.65 10.15 -9.25 L10.1 -9.45 9.85 -9.45 9.8 -9.4 9.75 -9.45 Q9.65 -9.55 9.55 -9.55 L9.5 -9.55 9.4 -9.85 Q9.15 -10.5 8.8 -10.7 L8.25 -10.65 Q8.0 -10.5 7.8 -10.2 L7.4 -9.45 7.2 -9.15 Q7.0 -8.85 6.9 -8.75 L6.25 -8.8 Q5.95 -9.05 5.95 -9.45 5.95 -9.7 6.1 -10.1 L6.1 -10.3 5.95 -10.2 Q5.65 -10.05 5.45 -10.05 5.05 -10.05 4.75 -10.55 4.5 -10.9 4.5 -11.05 4.5 -11.4 4.65 -11.45 L5.65 -11.45 5.85 -11.6 6.0 -11.6 Q6.5 -11.6 7.25 -12.5 7.7 -13.05 7.85 -13.35 L8.1 -13.5 8.35 -13.7 Q8.1 -14.05 8.0 -14.3 7.95 -14.45 7.95 -15.15 7.95 -15.7 8.0 -15.8 8.05 -16.15 8.35 -16.5 L8.4 -16.45 8.4 -16.5 8.55 -16.5 8.8 -15.7 Q8.9 -15.4 9.0 -15.25 L9.35 -15.2 Q9.55 -15.2 9.65 -15.35 9.75 -15.5 9.75 -15.55 L9.65 -16.05 9.4 -16.75 Q9.4 -16.8 9.45 -16.85 L9.5 -16.85 Q9.55 -16.9 9.7 -16.85 9.75 -16.95 9.75 -17.15 L9.75 -17.2 9.7 -17.45 9.65 -17.45 9.65 -17.5 9.6 -17.55 M8.85 -18.45 L8.85 -18.45 M11.15 -18.9 L11.15 -18.65 11.1 -18.55 11.2 -18.55 Q11.45 -18.55 11.45 -18.8 L11.45 -18.85 Q11.35 -18.9 11.2 -18.95 L11.15 -18.95 11.15 -18.9 M11.5 -16.15 L11.5 -16.2 11.45 -16.2 11.5 -16.15 M10.05 -15.6 L10.0 -15.7 10.0 -15.55 10.05 -15.6 M11.15 -10.7 L11.15 -10.75 11.1 -10.75 11.1 -10.7 Q11.1 -10.3 11.05 -10.15 11.0 -10.05 10.95 -9.95 10.85 -9.8 10.75 -9.65 L10.65 -9.6 10.6 -9.6 10.7 -9.5 10.8 -9.35 Q11.0 -8.9 11.0 -8.3 L11.0 -7.8 11.05 -7.85 Q11.4 -8.4 11.85 -8.9 L11.7 -9.05 Q11.6 -9.2 11.5 -9.55 L11.2 -10.7 11.2 -10.6 11.15 -10.55 11.15 -10.7 M8.35 -11.9 L8.35 -11.95 8.35 -11.75 8.35 -11.9 M12.05 -7.55 L12.05 -7.6 12.1 -7.6 12.05 -7.55 M11.55 -4.45 L11.35 -4.25 Q10.75 -3.5 10.75 -2.9 10.7 -2.65 10.75 -2.45 10.85 -2.1 11.2 -2.1 L11.5 -2.7 Q11.95 -3.05 12.15 -3.45 L12.15 -3.5 12.25 -3.6 Q12.45 -3.9 12.45 -4.05 12.45 -4.3 12.3 -4.35 L12.35 -4.45 Q12.35 -4.85 12.1 -4.85 11.85 -4.8 11.55 -4.45 M12.5 -2.95 L12.3 -2.55 Q11.65 -1.55 10.9 -1.5 10.85 -1.0 10.65 -0.65 10.5 -0.8 10.4 -1.15 L10.25 -0.9 10.25 -0.95 10.3 -1.1 Q10.5 -1.6 10.5 -1.85 10.5 -2.3 10.4 -2.4 L10.35 -2.4 Q10.4 -3.3 10.5 -3.65 10.65 -4.0 10.9 -4.25 L11.0 -4.35 Q11.3 -4.8 11.7 -5.35 12.15 -5.85 12.45 -6.05 L12.5 -6.05 Q12.85 -6.2 12.85 -5.75 12.85 -5.6 12.35 -5.0 L12.55 -4.75 12.65 -4.5 12.75 -4.6 12.8 -4.55 12.65 -4.4 12.7 -4.35 Q12.8 -4.1 12.8 -3.85 L12.8 -3.75 Q12.75 -3.45 12.5 -2.95 M13.3 -5.3 Q13.55 -5.6 14.0 -5.85 L14.4 -6.1 14.65 -6.2 15.15 -6.45 15.35 -6.45 15.95 -6.7 16.25 -6.7 16.75 -6.75 17.7 -6.9 16.6 -6.6 16.25 -6.5 15.2 -6.2 14.55 -5.85 13.3 -5.0 13.25 -5.0 13.1 -4.85 13.05 -4.9 Q13.1 -5.1 13.3 -5.3 M19.7 -7.7 Q20.5 -8.15 21.25 -8.75 L21.3 -8.75 21.3 -8.8 21.45 -8.85 21.3 -8.65 Q20.7 -8.15 19.75 -7.7 19.3 -7.45 18.75 -7.25 19.25 -7.45 19.7 -7.7 M13.95 -11.4 L13.95 -11.4 M17.7 -6.9 L17.7 -6.9" fill="#000000" fill-rule="evenodd" stroke="none"/>
    <path d="M10.9 -19.5 L10.8 -19.55 10.75 -19.6 10.4 -19.85 Q9.9 -20.2 9.55 -20.4 L9.5 -20.4 9.5 -20.45 9.65 -21.05 9.85 -21.8 9.85 -22.15 10.05 -22.15 10.1 -22.2 10.2 -22.2 10.8 -22.15 Q11.0 -22.0 11.4 -21.4 L11.3 -21.75 11.2 -21.9 Q10.9 -22.25 10.6 -22.35 L10.5 -22.4 10.5 -22.65 Q10.45 -23.25 10.35 -23.65 10.3 -24.1 10.1 -24.4 10.0 -24.6 9.75 -24.85 9.3 -25.0 9.05 -25.65 L8.9 -26.0 Q8.85 -26.15 8.85 -26.3 L8.85 -26.6 8.8 -26.55 8.75 -26.95 8.75 -27.15 Q8.85 -27.85 9.05 -28.95 L9.3 -30.1 9.35 -29.65 Q9.45 -28.9 9.7 -28.15 10.15 -26.8 10.85 -26.2 10.8 -26.05 10.8 -25.9 L10.9 -25.65 11.25 -24.4 Q11.25 -24.2 11.15 -24.1 L11.05 -24.05 Q11.2 -23.95 11.3 -23.9 11.1 -23.5 11.1 -23.1 11.1 -22.9 11.2 -22.75 L11.25 -22.65 11.0 -22.7 11.5 -22.45 11.5 -22.55 Q11.35 -22.8 11.35 -23.05 11.35 -23.3 11.45 -23.5 L11.45 -23.55 11.5 -23.75 11.55 -23.75 11.6 -23.8 11.55 -23.8 Q11.7 -23.8 11.7 -23.9 L11.75 -24.0 11.7 -24.05 11.8 -24.25 Q12.0 -24.35 12.05 -24.8 L12.05 -25.1 12.0 -25.5 12.0 -25.7 12.0 -25.8 12.05 -25.9 12.05 -25.95 12.15 -27.1 12.15 -27.15 Q12.15 -27.65 12.25 -27.7 L12.25 -27.8 Q12.25 -28.2 12.45 -28.8 L12.5 -28.9 12.5 -29.0 Q12.55 -29.4 12.6 -29.65 L12.7 -29.15 Q12.8 -29.15 12.85 -28.75 L12.85 -28.25 12.85 -28.05 13.05 -26.55 13.2 -25.3 13.4 -24.6 13.5 -24.45 13.6 -24.45 Q13.95 -24.4 13.95 -23.9 13.95 -23.8 13.85 -23.7 L14.5 -22.85 Q14.65 -22.95 14.8 -23.1 15.0 -23.35 15.0 -23.5 L14.95 -23.6 14.9 -23.65 14.85 -23.75 Q14.7 -24.05 14.55 -24.45 L14.55 -24.5 14.45 -24.6 14.5 -24.5 Q14.25 -25.2 14.1 -25.95 14.1 -26.5 14.3 -27.3 L14.35 -27.5 14.25 -27.25 14.75 -29.75 14.75 -29.9 Q15.3 -32.0 15.45 -32.95 L15.8 -31.05 Q16.15 -29.1 16.15 -28.45 L16.2 -28.35 Q16.5 -28.0 16.6 -27.2 L16.65 -26.85 16.75 -26.8 Q16.85 -26.7 16.85 -26.5 L16.85 -26.45 16.8 -26.35 Q16.9 -26.05 16.9 -25.9 L16.85 -25.35 16.95 -24.95 16.9 -24.85 Q16.8 -24.7 16.7 -24.7 L16.65 -24.45 16.75 -24.15 Q17.0 -23.5 17.0 -23.35 16.9 -23.1 16.85 -22.85 L17.4 -22.95 Q18.1 -23.05 18.3 -23.2 L18.3 -23.3 Q18.2 -23.65 18.2 -24.0 L18.1 -24.2 Q18.1 -24.3 18.2 -24.4 L18.25 -24.45 18.25 -24.65 18.4 -24.9 18.45 -25.0 18.45 -25.05 18.75 -25.4 19.25 -25.9 19.45 -26.05 19.5 -26.1 20.4 -26.8 20.55 -26.9 20.8 -27.15 Q20.9 -27.05 20.9 -26.7 L20.9 -26.5 20.85 -26.35 20.8 -26.1 20.75 -26.0 20.55 -25.65 20.55 -25.6 20.65 -25.45 20.65 -25.4 20.65 -25.25 20.7 -25.1 20.7 -24.95 Q20.2 -24.85 20.05 -24.4 L19.95 -24.35 20.0 -24.0 19.95 -23.7 20.05 -23.75 20.0 -23.75 20.0 -23.7 Q20.1 -23.45 20.55 -23.45 L20.05 -23.05 Q19.35 -22.5 19.2 -21.75 19.35 -22.15 19.7 -22.5 20.1 -22.95 20.9 -23.5 21.3 -23.55 21.55 -23.9 L22.05 -24.1 22.05 -24.15 Q22.3 -24.35 22.55 -24.35 L22.6 -24.35 23.65 -24.7 Q25.2 -25.2 25.75 -25.45 L25.95 -25.85 Q26.2 -26.3 26.35 -26.7 L26.35 -26.65 Q26.55 -26.45 26.55 -26.15 26.55 -25.45 26.0 -24.85 L25.9 -24.65 25.85 -24.3 25.5 -24.1 Q24.95 -23.4 24.05 -22.6 L23.9 -22.5 Q23.85 -22.1 23.6 -21.75 23.55 -22.3 23.25 -23.1 22.8 -24.2 22.3 -24.15 23.3 -22.9 23.35 -21.4 L23.2 -21.2 Q22.55 -20.6 21.7 -20.3 L21.65 -20.25 21.35 -19.85 21.2 -20.0 21.0 -19.45 20.9 -19.15 20.8 -19.15 Q20.6 -18.45 20.25 -17.95 19.6 -16.95 18.45 -16.95 18.3 -17.05 18.25 -17.15 L18.4 -17.15 Q18.55 -17.15 18.65 -17.25 L18.7 -17.35 18.6 -17.8 Q18.45 -18.15 18.05 -18.1 18.05 -17.95 18.05 -17.75 18.0 -17.55 18.05 -17.45 18.05 -17.35 18.1 -17.25 L18.1 -17.3 Q18.0 -17.55 18.0 -17.8 18.0 -18.8 18.25 -19.25 18.85 -20.2 19.25 -21.4 L18.95 -21.4 Q18.9 -21.35 18.9 -21.2 18.9 -20.95 18.7 -20.65 L18.3 -20.1 Q17.7 -19.3 17.7 -18.35 17.7 -18.05 17.85 -17.6 17.9 -17.35 18.0 -17.15 17.6 -16.7 17.35 -16.5 17.05 -16.1 16.8 -15.6 L16.45 -15.0 Q16.25 -13.45 16.05 -13.2 16.05 -13.05 16.1 -12.95 16.15 -12.85 16.3 -12.7 L16.25 -12.65 Q15.7 -12.15 15.55 -12.15 L15.5 -12.15 15.15 -11.95 15.15 -11.9 14.9 -11.7 Q14.85 -12.05 14.65 -12.55 L14.4 -13.2 14.2 -12.95 14.15 -12.9 14.0 -12.75 13.85 -12.4 13.85 -12.1 Q13.95 -11.95 13.95 -11.7 L13.95 -11.5 14.1 -11.1 13.95 -11.0 13.95 -10.9 13.85 -10.9 13.25 -10.35 12.95 -9.95 Q12.4 -9.25 12.2 -9.25 11.95 -9.25 11.85 -9.6 11.8 -9.75 11.75 -9.95 L11.75 -10.0 11.65 -10.25 11.45 -10.5 Q11.3 -10.8 11.25 -10.95 L11.25 -11.6 Q11.25 -12.15 11.15 -12.6 10.95 -13.15 10.6 -13.15 L10.6 -13.2 10.55 -13.2 10.55 -13.15 10.55 -13.1 Q10.05 -11.9 10.15 -10.35 L10.15 -10.25 10.2 -10.25 10.25 -10.2 10.3 -10.2 10.35 -10.05 10.3 -9.9 10.3 -9.85 Q10.2 -9.7 10.05 -9.7 9.75 -9.7 9.6 -10.0 9.5 -10.15 9.5 -10.3 L9.5 -10.35 Q9.4 -10.45 9.4 -10.65 L9.35 -10.75 9.35 -10.95 9.3 -11.35 9.45 -11.55 Q9.5 -11.35 9.6 -11.3 9.75 -11.5 9.85 -12.05 10.0 -12.8 10.05 -12.95 L10.7 -13.85 Q11.2 -14.55 11.2 -14.8 L11.2 -14.95 11.15 -15.0 Q10.2 -14.4 9.75 -13.55 9.55 -13.15 9.45 -12.65 9.25 -12.7 8.9 -12.55 L8.85 -12.45 Q8.8 -12.65 8.6 -12.9 L8.75 -13.2 Q8.75 -13.3 8.6 -13.35 L8.7 -13.45 Q8.5 -13.7 8.35 -14.25 8.25 -14.75 8.2 -15.25 L8.2 -15.55 Q8.2 -15.65 8.25 -15.7 8.3 -16.0 8.35 -15.9 L8.45 -16.0 Q8.6 -15.55 8.7 -15.3 8.95 -14.85 9.65 -14.75 L9.7 -14.85 10.2 -15.2 Q10.35 -15.4 10.35 -15.6 L10.35 -15.75 10.2 -16.05 Q10.0 -16.25 9.95 -16.35 L10.05 -16.4 10.05 -16.45 10.25 -16.45 10.35 -16.5 10.2 -16.95 10.25 -16.95 10.25 -17.0 9.6 -19.5 9.6 -19.55 Q9.45 -19.45 9.45 -19.35 L9.45 -19.3 9.15 -19.55 9.2 -19.6 9.4 -19.85 8.7 -20.3 Q8.2 -20.6 8.2 -20.1 8.05 -20.1 8.0 -19.85 L7.95 -19.9 7.95 -20.1 Q8.0 -20.45 8.15 -20.7 8.25 -20.95 8.5 -21.4 L8.45 -21.55 Q8.05 -21.5 7.85 -20.95 7.75 -20.65 7.75 -20.35 L7.85 -20.3 Q7.55 -20.45 7.15 -20.8 6.35 -20.9 5.6 -21.1 5.4 -21.15 5.35 -21.25 5.15 -21.25 5.0 -21.35 L5.3 -21.9 5.4 -22.0 5.45 -22.1 5.6 -22.25 Q5.75 -22.45 5.9 -22.7 L5.95 -22.85 Q6.15 -23.2 6.15 -23.5 L6.1 -23.6 6.1 -23.85 Q6.1 -24.15 5.95 -24.55 L5.85 -24.75 5.85 -24.85 6.05 -25.05 6.35 -25.4 6.65 -24.9 6.75 -24.7 6.75 -24.6 6.9 -24.1 7.0 -23.3 7.0 -23.25 6.8 -22.85 Q6.6 -22.45 6.55 -22.25 L6.5 -22.2 6.75 -22.05 6.75 -22.0 6.85 -22.05 Q7.15 -22.15 7.65 -22.05 7.6 -21.9 7.6 -21.8 7.6 -21.55 7.65 -21.35 L7.75 -21.4 8.0 -22.1 8.05 -22.15 Q8.2 -22.15 8.25 -22.2 L8.3 -22.25 8.5 -22.2 8.65 -21.95 Q8.85 -21.65 9.2 -21.65 9.25 -21.75 9.3 -21.65 L9.35 -21.65 9.3 -21.55 9.35 -21.2 9.3 -20.8 9.2 -20.4 Q9.2 -20.3 9.65 -20.0 9.8 -19.9 10.05 -19.75 L10.1 -19.7 10.45 -19.4 Q10.35 -19.4 10.35 -19.25 L10.45 -19.0 10.6 -18.8 10.55 -18.8 10.45 -18.9 10.5 -18.8 Q9.95 -19.25 9.95 -18.55 L10.35 -18.05 Q10.8 -17.5 10.9 -17.5 11.05 -17.5 11.15 -17.75 L11.1 -17.95 11.3 -18.15 11.3 -17.45 11.35 -17.35 11.35 -17.25 11.4 -16.25 11.4 -16.15 11.25 -16.15 11.4 -16.05 11.4 -16.0 Q11.45 -15.85 11.65 -15.85 11.75 -15.85 11.8 -15.9 L11.85 -15.95 11.9 -15.95 12.5 -17.25 12.55 -17.35 Q12.5 -17.1 12.55 -16.7 12.55 -16.55 12.65 -16.45 12.7 -16.3 12.8 -16.25 12.85 -16.3 12.95 -16.85 L13.05 -17.5 13.1 -17.5 Q13.6 -16.9 14.45 -16.95 14.8 -16.95 15.2 -17.15 15.0 -16.9 15.0 -16.8 15.0 -16.75 15.1 -16.65 L15.3 -16.45 16.15 -17.15 Q16.9 -17.85 16.9 -18.0 16.9 -18.3 16.75 -18.4 L17.0 -18.65 17.05 -18.75 Q17.4 -19.3 17.6 -19.8 L17.7 -21.25 17.65 -21.45 17.45 -21.75 17.2 -22.05 17.15 -22.1 16.3 -22.1 Q14.9 -21.7 14.15 -21.4 L14.0 -21.3 13.75 -21.05 13.7 -20.95 14.3 -21.25 Q15.75 -21.9 16.9 -21.95 L16.95 -21.95 17.2 -21.75 17.25 -21.7 17.2 -21.7 Q16.85 -21.75 16.25 -20.7 16.2 -20.55 16.05 -20.4 15.9 -20.2 15.65 -19.9 15.05 -19.1 14.25 -19.1 14.0 -19.1 13.8 -19.3 13.65 -19.1 13.4 -19.1 L13.2 -19.1 13.1 -19.15 13.1 -19.45 13.0 -19.3 Q12.9 -19.5 12.9 -19.7 12.9 -20.05 13.05 -20.35 13.15 -20.7 13.15 -20.75 L13.15 -20.85 13.05 -20.8 13.05 -20.9 13.0 -20.9 12.9 -20.7 Q12.8 -20.6 12.75 -20.4 12.65 -20.05 12.65 -19.7 L12.65 -19.35 Q12.65 -19.05 12.75 -18.9 L12.75 -18.85 12.8 -18.75 12.85 -18.7 12.8 -18.75 12.75 -18.7 12.7 -18.8 12.7 -18.75 12.75 -18.7 Q12.35 -18.5 11.95 -17.6 11.7 -16.95 11.6 -16.6 L11.65 -17.35 Q11.65 -17.6 11.75 -18.15 L11.9 -18.8 11.85 -18.95 11.9 -19.25 11.9 -19.4 11.85 -19.85 11.8 -20.45 Q11.8 -20.85 11.55 -21.05 L11.45 -21.3 11.4 -21.3 11.4 -21.15 11.45 -21.05 11.35 -21.15 11.3 -21.15 Q11.4 -20.9 11.4 -20.6 11.4 -20.25 11.3 -20.0 11.15 -19.65 10.9 -19.6 L10.9 -19.5 M13.95 -25.95 L14.0 -26.15 14.0 -26.05 13.95 -25.95 M15.5 -33.6 L15.5 -33.7 15.6 -33.9 15.6 -33.6 15.6 -33.65 15.5 -33.6 M20.95 -27.25 L21.0 -27.3 20.95 -27.25 M21.95 -19.75 L21.9 -19.6 21.9 -19.7 21.95 -19.75 M8.0 -11.1 L7.95 -11.05 8.0 -11.1 M6.7 -9.1 L6.6 -9.3 Q6.5 -9.45 6.5 -9.55 L6.6 -9.8 6.6 -9.4 Q6.65 -9.2 6.7 -9.1 M6.7 -10.6 L6.6 -10.65 6.45 -10.9 6.25 -10.8 Q6.05 -10.8 5.9 -10.7 L5.85 -10.7 5.75 -10.6 5.75 -10.55 5.65 -10.55 Q5.35 -10.55 5.2 -10.75 5.15 -10.9 5.15 -11.0 L5.0 -11.0 5.1 -11.1 5.4 -11.1 Q5.45 -11.25 5.85 -11.3 L6.65 -11.4 Q6.7 -11.55 6.9 -11.8 L7.1 -12.1 7.5 -12.5 Q7.0 -11.85 7.0 -11.55 7.0 -11.35 7.0 -11.3 L7.15 -11.25 8.0 -12.15 8.4 -12.65 Q8.4 -12.55 8.5 -12.3 L8.55 -12.15 8.35 -11.95 8.35 -11.9 8.2 -12.35 Q8.0 -12.25 8.0 -11.55 7.35 -11.0 7.05 -11.0 L7.0 -11.0 Q6.95 -10.9 6.9 -10.9 L6.8 -10.9 6.7 -10.6 M9.4 -18.8 L9.4 -18.75 9.35 -18.8 9.4 -18.8 M11.2 -18.35 L11.35 -18.35 11.25 -18.25 Q11.2 -18.3 11.2 -18.35 M12.75 -17.85 L12.8 -17.95 12.85 -17.85 12.8 -17.9 12.75 -17.85 M13.0 -18.45 L13.05 -18.55 13.15 -18.45 13.15 -18.4 13.0 -18.45 M14.0 -17.85 L14.45 -17.75 14.4 -17.75 Q14.2 -17.75 14.0 -17.85 M17.25 -19.3 Q17.05 -19.1 16.7 -19.0 L16.6 -19.05 16.7 -19.05 Q17.05 -19.2 17.25 -19.3 M12.85 -18.65 L12.85 -18.6 12.9 -18.55 12.85 -18.45 12.85 -18.65 M15.0 -27.7 L15.05 -27.75 15.35 -28.95 Q15.5 -29.7 15.5 -30.15 15.5 -30.65 15.3 -30.95 15.25 -30.85 15.0 -29.75 14.8 -28.65 14.8 -28.35 14.8 -27.85 14.95 -27.7 L15.0 -27.7 M20.15 -25.15 L20.1 -25.2 20.1 -25.15 20.15 -25.15 M18.3 -22.4 L18.35 -22.3 18.35 -22.35 18.4 -22.4 18.3 -22.4 M23.05 -23.75 L23.0 -23.7 23.05 -23.7 23.05 -23.75 M21.45 -23.25 L21.4 -23.3 Q20.55 -23.4 19.7 -22.0 19.0 -20.8 19.0 -20.15 L19.05 -19.95 Q19.1 -19.8 19.25 -19.65 L19.4 -19.75 19.5 -19.8 Q19.85 -21.25 20.7 -22.2 L21.25 -22.75 Q21.45 -23.0 21.45 -23.1 L21.45 -23.25 M20.75 -21.65 Q20.45 -21.3 20.45 -21.2 20.45 -21.05 20.5 -21.05 L20.65 -21.0 Q20.85 -21.1 21.1 -21.4 21.35 -21.7 21.35 -21.8 21.35 -21.95 21.3 -22.0 L21.25 -22.05 Q21.05 -22.0 20.75 -21.65 M23.05 -21.75 Q22.95 -22.15 22.6 -22.15 22.6 -22.25 22.6 -22.0 22.6 -21.9 22.8 -21.45 L22.95 -21.05 23.05 -21.1 23.05 -21.75 M15.5 -28.1 L15.35 -27.95 15.3 -27.95 Q15.5 -27.5 15.85 -26.3 L15.85 -26.25 15.5 -25.8 15.15 -25.3 Q15.4 -25.4 15.65 -25.7 15.85 -25.9 15.9 -26.05 L16.05 -25.6 Q15.95 -25.55 15.85 -25.45 L15.65 -25.1 15.65 -25.0 15.75 -24.95 Q15.95 -25.1 16.05 -25.25 L16.15 -25.35 Q16.3 -24.9 16.45 -24.65 L16.5 -24.9 Q16.2 -25.35 15.9 -26.6 15.7 -27.3 15.55 -28.0 L15.5 -28.1 M15.05 -26.85 Q15.05 -27.0 15.0 -27.05 L14.9 -27.25 Q14.65 -27.15 14.55 -26.5 14.45 -26.05 14.45 -25.75 L14.45 -25.3 14.5 -25.25 14.7 -25.25 Q14.85 -25.25 14.85 -25.3 L14.9 -25.35 Q14.9 -25.65 14.95 -26.2 L15.05 -26.85 M12.45 -26.85 Q12.3 -26.8 12.25 -26.55 L12.25 -26.15 Q12.25 -25.75 12.4 -25.35 12.6 -25.35 12.6 -25.45 L12.55 -26.15 12.45 -26.85 M14.0 -25.85 L14.0 -25.8 13.95 -25.75 14.0 -26.05 14.0 -25.85 M12.35 -23.15 Q12.0 -23.4 11.75 -23.35 11.8 -23.1 12.0 -22.85 12.3 -22.5 12.65 -22.5 12.9 -22.5 13.0 -22.65 L12.9 -22.7 Q12.75 -22.8 12.35 -23.15 M12.8 -23.65 L12.5 -23.85 Q12.2 -24.05 11.95 -24.05 12.05 -23.9 12.2 -23.75 12.4 -23.55 12.55 -23.55 L12.75 -23.55 12.8 -23.65 M12.15 -21.65 L12.45 -21.55 12.35 -21.15 Q12.15 -20.55 12.2 -20.3 12.2 -19.95 12.25 -19.85 L12.3 -19.9 Q12.3 -20.25 12.4 -20.8 L12.55 -21.55 13.0 -21.5 13.75 -21.6 Q13.85 -21.6 14.05 -21.7 L13.95 -21.8 Q12.8 -21.65 12.2 -21.85 L11.9 -22.0 11.65 -21.95 Q11.75 -21.8 12.15 -21.65 M15.45 -24.1 L15.5 -24.3 15.4 -24.55 Q15.3 -24.75 15.2 -24.75 15.0 -24.7 15.0 -24.4 15.0 -24.35 15.1 -24.2 15.2 -24.05 15.3 -24.05 L15.45 -24.1 M14.6 -20.05 Q14.6 -19.9 14.65 -19.85 14.7 -19.8 14.85 -19.75 15.0 -19.85 15.1 -20.0 L15.2 -20.2 Q15.2 -20.45 15.15 -20.35 14.85 -20.45 14.7 -20.3 14.6 -20.2 14.6 -20.05 M14.65 -20.85 L14.65 -20.9 Q13.95 -21.0 13.5 -20.55 13.1 -20.2 13.1 -19.85 13.1 -19.7 13.15 -19.65 L13.3 -19.5 Q14.2 -19.8 14.7 -20.65 L14.65 -20.85 M11.95 -16.05 L11.95 -16.05 M12.55 -15.95 Q12.55 -16.05 12.5 -16.05 L12.4 -16.1 Q12.1 -15.95 12.1 -15.85 L12.1 -15.8 Q12.1 -15.7 12.15 -15.75 L12.25 -15.75 Q12.55 -15.8 12.55 -15.95 M12.8 -15.25 L12.25 -15.35 10.75 -15.5 10.7 -15.5 10.65 -15.45 10.65 -15.4 10.55 -15.35 10.25 -14.95 10.05 -14.6 Q9.75 -14.2 9.75 -14.15 L9.75 -14.1 9.8 -14.05 9.8 -14.0 9.85 -14.05 Q9.95 -14.3 10.1 -14.5 L10.25 -14.75 Q10.5 -15.1 10.75 -15.25 12.0 -15.2 13.0 -14.9 L13.1 -14.9 13.55 -14.75 14.15 -14.5 14.75 -14.3 14.7 -14.5 14.6 -14.6 14.45 -14.65 14.3 -14.75 13.65 -14.95 13.3 -15.05 12.8 -15.25 M16.4 -16.95 Q16.3 -16.95 16.1 -16.6 15.85 -16.3 15.85 -16.15 15.85 -16.0 15.9 -16.0 L16.05 -15.95 16.45 -16.4 Q16.6 -16.55 16.6 -16.75 L16.55 -16.95 16.4 -16.95 M15.05 -15.6 L14.9 -15.85 14.6 -15.75 Q14.95 -15.05 15.25 -14.6 L15.4 -14.1 Q15.55 -13.9 15.55 -13.8 L15.55 -13.75 Q15.65 -13.45 15.8 -13.25 L15.8 -13.35 Q15.6 -13.75 15.3 -14.9 L15.05 -15.6 M17.1 -15.05 Q17.05 -15.05 17.05 -15.2 17.05 -15.4 17.45 -15.9 17.85 -16.5 18.15 -16.6 18.2 -16.25 17.9 -15.75 L17.3 -15.0 17.1 -15.05 M20.15 -17.8 Q19.8 -17.2 19.4 -17.0 19.75 -17.25 20.15 -17.8 M18.65 -21.05 L18.65 -21.1 18.6 -21.05 18.65 -21.05 M19.15 -19.1 L19.1 -19.1 19.05 -18.95 Q19.15 -18.8 19.3 -18.6 19.55 -18.3 19.7 -18.3 L19.75 -18.3 Q19.6 -18.6 19.15 -19.1 M18.5 -18.35 L18.7 -18.05 Q18.95 -17.8 19.3 -17.8 L19.5 -17.8 Q18.9 -17.95 18.75 -18.35 18.65 -18.6 18.65 -18.95 L18.5 -18.95 18.5 -18.35 M18.05 -14.15 L18.15 -14.2 17.9 -13.85 17.9 -13.9 18.05 -14.15 M9.45 -25.9 L9.55 -26.05 9.35 -27.2 Q9.25 -27.85 9.15 -28.3 8.95 -28.2 8.9 -27.9 L8.9 -27.5 Q8.9 -27.3 9.05 -26.65 9.2 -25.95 9.3 -25.85 L9.05 -25.75 9.05 -25.65 9.25 -25.6 Q9.3 -25.6 9.5 -25.7 9.7 -25.85 9.9 -25.95 L9.5 -25.95 9.45 -25.9 M10.65 -25.6 L10.5 -25.6 Q10.5 -24.3 10.4 -23.75 L10.45 -23.6 Q10.6 -23.75 10.7 -24.1 10.85 -24.4 10.85 -24.55 10.85 -24.8 10.65 -25.6 M7.1 -21.4 Q6.9 -21.6 6.6 -21.7 5.85 -22.0 5.55 -21.4 5.6 -21.35 6.15 -21.1 6.7 -20.9 6.85 -20.9 7.05 -20.9 7.2 -21.0 7.3 -21.05 7.3 -21.2 7.3 -21.25 7.1 -21.4 M9.95 -21.9 Q9.9 -21.85 9.9 -21.45 L9.9 -20.95 Q9.95 -20.65 10.15 -20.55 L10.35 -20.65 10.4 -21.3 10.45 -21.8 Q10.45 -21.9 10.4 -21.95 L10.35 -22.0 Q10.0 -22.05 9.95 -21.9 M11.0 -21.15 L10.95 -21.2 Q10.75 -21.1 10.65 -20.95 L10.65 -20.85 Q10.65 -20.7 10.65 -20.65 L10.8 -20.55 10.9 -20.6 11.0 -20.75 Q11.05 -20.85 11.05 -21.0 11.05 -21.15 11.0 -21.15 M11.3 -16.0 L11.15 -16.0 Q11.15 -15.9 11.2 -15.85 L11.3 -15.85 11.3 -16.0 M11.35 -14.45 Q11.25 -14.3 11.25 -14.15 L11.25 -14.0 11.35 -14.0 Q11.55 -14.4 11.55 -14.7 11.45 -14.65 11.35 -14.45 M11.1 -10.7 L11.1 -10.75 11.15 -10.75 11.15 -10.7 11.1 -10.7 M10.7 -9.5 L10.6 -9.6 10.65 -9.6 10.75 -9.65 10.7 -9.5 M16.75 -13.3 L16.75 -13.3 M12.6 -11.5 Q12.45 -11.45 12.25 -10.95 12.05 -10.5 12.05 -10.35 L12.1 -10.1 Q12.15 -9.85 12.3 -9.85 12.6 -9.85 12.75 -10.4 12.85 -10.75 12.85 -11.05 L12.8 -11.2 12.6 -11.5 M12.1 -13.95 L12.1 -14.0 11.9 -14.05 Q11.9 -13.95 11.75 -13.85 11.6 -13.75 11.6 -13.65 L11.6 -13.5 Q11.65 -13.35 11.85 -13.3 L11.9 -13.55 12.1 -13.95 M13.95 -11.4 L13.95 -11.4 M24.95 -24.4 L24.9 -24.55 Q24.45 -24.65 23.95 -24.45 23.4 -24.25 23.4 -23.95 L23.65 -23.7 Q23.95 -23.8 24.3 -23.95 24.85 -24.25 24.95 -24.4" fill="#c07129" fill-rule="evenodd" stroke="none"/>
    <path d="M15.0 -18.1 Q14.8 -18.0 14.5 -18.0 L13.9 -18.0 Q14.0 -18.0 14.05 -18.1 14.05 -18.15 14.05 -18.2 L14.0 -18.4 13.9 -18.6 15.3 -18.6 15.3 -18.45 Q15.3 -18.25 15.0 -18.1 M11.15 -18.9 L11.15 -18.95 11.2 -18.95 Q11.35 -18.9 11.45 -18.85 L11.45 -18.8 Q11.45 -18.55 11.2 -18.55 L11.1 -18.55 11.15 -18.65 11.15 -18.9 M11.55 -4.45 Q11.85 -4.8 12.1 -4.85 12.35 -4.85 12.35 -4.45 L12.3 -4.35 Q12.45 -4.3 12.45 -4.05 12.45 -3.9 12.25 -3.6 L12.15 -3.5 12.15 -3.45 Q11.95 -3.05 11.5 -2.7 L11.2 -2.1 Q10.85 -2.1 10.75 -2.45 10.7 -2.65 10.75 -2.9 10.75 -3.5 11.35 -4.25 L11.55 -4.45" fill="#ffffb3" fill-rule="evenodd" stroke="none"/>
    <path d="M11.8 -24.25 L11.85 -24.35 11.85 -24.4 11.9 -24.5 12.0 -24.75 12.05 -24.8 Q12.0 -24.35 11.8 -24.25 M12.0 -25.5 L12.0 -25.7 12.0 -25.5 M11.4 -16.25 L11.4 -16.15 11.4 -16.25 M11.4 -16.05 L11.55 -16.0 11.8 -15.95 11.85 -15.95 11.8 -15.9 Q11.75 -15.85 11.65 -15.85 11.45 -15.85 11.4 -16.0 L11.4 -16.05 M11.85 -19.85 L11.8 -19.9 11.8 -20.05 11.65 -20.75 11.55 -21.05 Q11.8 -20.85 11.8 -20.45 L11.85 -19.85 M20.15 -25.15 L20.1 -25.15 20.1 -25.2 20.15 -25.15 M11.95 -16.05 L11.95 -16.05 M14.05 -10.4 L14.4 -10.7 14.4 -10.65 14.05 -10.4 M14.4 -10.7 L14.65 -10.95 14.6 -10.85 14.4 -10.7 M11.5 -16.15 L11.45 -16.2 11.5 -16.2 11.5 -16.15 M11.1 -10.7 L11.15 -10.7 11.15 -10.55 11.2 -10.6 11.2 -10.7 11.5 -9.55 Q11.6 -9.2 11.7 -9.05 L11.85 -8.9 Q11.4 -8.4 11.05 -7.85 L11.0 -7.8 11.0 -8.3 Q11.0 -8.9 10.8 -9.35 L10.7 -9.5 10.75 -9.65 Q10.85 -9.8 10.95 -9.95 11.0 -10.05 11.05 -10.15 11.1 -10.3 11.1 -10.7" fill="#a25611" fill-rule="evenodd" stroke="none"/>
    <path d="M25.0 -19.25 L25.1 -19.15 25.6 -18.6 25.65 -18.3 25.25 -17.8 Q24.95 -17.5 23.45 -16.6 L22.4 -15.95 Q21.65 -15.5 21.5 -15.35 L18.1 -12.6 18.0 -12.5 15.95 -10.85 Q14.85 -10.05 13.7 -9.1 12.75 -8.3 12.1 -7.6 L12.05 -7.6 12.05 -7.55 Q11.0 -6.5 10.75 -5.85 10.35 -5.35 10.05 -4.85 L9.8 -4.45 Q8.55 -2.2 8.55 0.25 8.45 0.0 8.45 -0.25 L8.35 -0.55 8.35 -0.85 Q8.3 -1.5 8.3 -2.3 8.3 -2.75 8.4 -3.25 L8.7 -3.75 8.85 -4.15 9.15 -4.7 9.75 -5.95 10.15 -6.5 10.35 -6.8 Q11.1 -7.2 12.0 -8.2 L13.5 -9.85 14.05 -10.4 14.4 -10.65 14.4 -10.7 14.6 -10.85 16.4 -12.2 Q17.15 -12.6 17.55 -13.25 L17.8 -13.7 18.5 -14.35 18.55 -14.4 18.9 -14.65 21.6 -16.35 21.5 -16.3 21.95 -16.55 Q22.15 -16.65 22.35 -16.8 L22.7 -16.95 23.3 -17.4 23.4 -17.45 Q24.2 -18.05 24.2 -18.3 L24.15 -18.45 25.0 -19.25 M25.0 -11.95 L25.15 -12.15 25.1 -12.0 25.0 -11.95 M24.35 -6.05 L23.65 -5.5 23.35 -5.35 23.75 -5.35 23.15 -5.2 Q21.3 -4.05 19.1 -3.6 L19.05 -3.6 17.3 -3.15 16.35 -2.75 Q14.9 -2.45 13.0 -1.55 L13.25 -2.05 13.5 -2.5 13.55 -2.6 13.55 -2.55 14.15 -2.55 Q14.5 -2.55 14.9 -2.9 15.2 -3.15 15.3 -3.3 14.75 -3.55 14.3 -3.7 L14.4 -3.8 14.35 -3.8 Q14.85 -4.35 15.4 -4.85 16.15 -4.05 17.05 -4.05 17.2 -4.05 17.25 -4.1 L17.25 -4.15 Q17.1 -4.6 16.8 -5.2 L16.55 -5.65 Q17.2 -6.05 17.9 -6.35 L17.95 -6.35 Q18.3 -6.0 19.35 -5.7 20.6 -5.35 21.2 -5.35 L21.8 -5.35 21.8 -5.4 21.15 -6.05 20.6 -6.65 20.1 -7.05 20.2 -7.05 20.5 -7.1 21.3 -7.15 Q22.35 -7.15 22.65 -7.0 L24.35 -6.05 M8.9 1.3 L8.85 1.3 8.75 1.15 8.75 1.1 8.7 1.0 8.9 1.3 M3.5 -7.75 Q3.25 -7.95 2.95 -8.1 L2.75 -8.4 2.6 -8.75 2.55 -8.8 2.55 -8.9 Q2.55 -9.25 2.85 -9.95 3.1 -10.65 3.1 -10.85 L3.3 -11.4 Q4.05 -13.5 4.05 -13.85 L4.05 -13.95 4.2 -14.25 4.65 -14.65 5.2 -15.05 Q5.6 -15.55 6.5 -16.2 7.55 -16.95 9.0 -17.7 L9.2 -17.85 9.35 -17.9 9.4 -17.95 9.55 -17.95 9.55 -17.7 9.6 -17.55 9.6 -17.6 9.45 -17.5 8.3 -16.8 6.85 -15.85 Q5.65 -15.0 5.35 -14.65 4.9 -14.15 4.25 -12.3 3.9 -11.35 3.75 -10.65 L3.75 -10.7 Q3.75 -11.2 3.95 -11.95 L4.35 -13.2 4.3 -13.35 Q4.05 -12.9 3.7 -11.25 3.4 -9.8 3.4 -9.5 L3.4 -9.25 3.3 -9.3 Q3.3 -9.4 3.3 -9.15 3.3 -9.1 3.65 -8.55 L4.0 -8.0 Q4.55 -7.55 5.2 -6.95 L6.65 -5.55 6.7 -5.5 6.8 -5.35 6.85 -5.2 Q7.35 -4.6 7.7 -3.7 L7.65 -3.5 7.85 -3.2 7.85 -2.5 7.15 -3.85 Q5.85 -6.2 4.15 -7.35 3.8 -7.6 3.5 -7.75 M10.05 -15.6 L10.0 -15.55 10.0 -15.7 10.05 -15.6 M7.05 -0.8 L7.25 -0.15 7.0 0.1 Q6.7 0.5 6.65 0.75 L6.8 0.15 6.85 0.05 6.95 -0.45 7.05 -0.8 M7.9 -2.35 L7.85 -2.45 7.95 -2.55 7.9 -2.35" fill="#668f06" fill-rule="evenodd" stroke="none"/>
    <path d="M24.15 -18.45 L24.15 -18.55 24.1 -18.65 24.1 -18.7 24.0 -19.1 23.8 -18.9 Q23.8 -19.1 23.9 -19.2 L23.85 -19.4 23.75 -19.7 23.85 -19.75 23.85 -19.7 23.7 -20.05 23.55 -20.05 Q23.6 -19.85 23.6 -19.0 L23.6 -18.65 23.15 -18.1 22.9 -17.85 22.1 -17.45 22.2 -17.85 22.35 -18.35 Q22.45 -18.85 22.45 -19.2 22.6 -19.55 22.85 -19.85 L22.95 -20.0 23.25 -20.4 23.35 -20.5 23.6 -20.35 Q24.3 -19.9 25.0 -19.25 L24.15 -18.45 M25.65 -18.3 L25.7 -18.1 25.4 -17.5 Q25.05 -16.8 25.05 -16.65 L25.05 -16.45 Q24.6 -15.55 24.25 -14.55 23.85 -13.25 23.85 -12.35 23.85 -12.2 24.25 -11.65 L24.3 -11.6 24.2 -11.5 Q24.0 -11.15 23.55 -10.75 23.35 -10.55 23.15 -10.4 L22.85 -10.2 22.8 -10.15 22.7 -12.4 Q22.7 -12.55 23.0 -13.8 L23.3 -15.0 Q23.3 -15.15 23.25 -15.2 L23.1 -15.2 Q21.95 -14.45 21.4 -12.7 20.95 -11.35 20.95 -9.85 20.95 -9.25 21.25 -8.75 20.5 -8.15 19.7 -7.7 19.4 -8.15 19.4 -8.4 19.4 -9.05 19.25 -9.5 L19.25 -9.55 Q19.15 -9.85 19.1 -10.05 L19.1 -10.35 Q19.1 -10.8 19.4 -11.6 L19.7 -12.35 Q19.7 -12.5 19.65 -12.5 L19.6 -12.5 Q19.4 -12.4 19.05 -11.8 L18.8 -11.35 Q18.2 -10.25 18.2 -9.75 18.2 -9.25 17.9 -8.2 L17.8 -7.75 17.65 -7.2 Q17.65 -7.1 17.7 -6.9 L16.75 -6.75 16.25 -6.7 Q16.15 -7.2 16.15 -7.85 16.15 -8.05 16.4 -8.75 L16.65 -9.55 Q16.65 -10.05 16.45 -10.05 L16.35 -10.05 15.75 -8.85 Q15.4 -8.25 15.05 -7.75 L14.85 -6.95 14.65 -6.2 14.4 -6.1 14.0 -5.85 Q13.55 -5.6 13.3 -5.3 L13.15 -5.8 Q13.05 -6.15 13.05 -6.35 L13.05 -6.6 Q13.05 -6.85 12.9 -7.0 L12.45 -6.05 Q12.15 -5.85 11.7 -5.35 11.3 -4.8 11.0 -4.35 L10.9 -4.25 Q10.65 -4.0 10.5 -3.65 10.4 -3.3 10.35 -2.4 L10.4 -2.4 Q10.5 -2.3 10.5 -1.85 10.5 -1.6 10.3 -1.1 L10.25 -0.95 10.25 -0.9 10.4 -1.15 Q10.5 -0.8 10.65 -0.65 10.85 -1.0 10.9 -1.5 11.65 -1.55 12.3 -2.55 L12.5 -2.95 Q12.95 -2.55 13.5 -2.5 L13.25 -2.05 13.0 -1.55 12.35 -1.25 Q10.95 -0.5 10.05 0.15 L9.5 0.55 9.3 0.75 Q9.3 0.15 9.65 -0.75 L10.35 -2.5 Q10.2 -2.85 9.65 -1.45 9.1 -0.05 9.1 0.35 9.1 0.7 9.2 0.95 L9.1 1.05 9.0 1.2 8.9 1.3 8.7 1.0 8.7 0.95 8.55 0.3 8.55 0.25 Q8.55 -2.2 9.8 -4.45 L10.05 -4.85 Q10.35 -5.35 10.75 -5.85 11.0 -6.5 12.05 -7.55 L12.1 -7.6 Q12.75 -8.3 13.7 -9.1 14.85 -10.05 15.95 -10.85 L18.0 -12.5 18.1 -12.6 21.5 -15.35 Q21.65 -15.5 22.4 -15.95 L23.45 -16.6 Q24.95 -17.5 25.25 -17.8 L25.65 -18.3 M21.3 -8.6 L21.35 -8.5 21.4 -8.5 21.55 -8.3 Q22.4 -7.35 24.15 -7.35 24.45 -7.35 24.55 -7.5 24.65 -7.6 24.65 -7.7 24.65 -7.9 23.75 -8.75 22.8 -9.65 22.8 -9.7 L22.8 -9.75 23.15 -10.1 Q23.9 -10.95 24.4 -11.45 24.8 -10.95 25.3 -10.45 25.95 -9.75 26.55 -9.35 26.5 -9.05 26.35 -8.7 L26.25 -8.7 26.15 -8.35 26.15 -8.25 26.0 -8.0 25.75 -7.6 25.75 -7.55 25.7 -7.55 25.6 -7.4 25.55 -7.3 25.3 -6.95 Q24.9 -6.5 24.35 -6.05 L22.65 -7.0 Q22.35 -7.15 21.3 -7.15 L20.5 -7.1 20.2 -7.05 19.9 -7.45 19.75 -7.7 Q20.7 -8.15 21.3 -8.65 L21.3 -8.6 M3.5 -7.75 Q3.8 -7.6 4.15 -7.35 5.85 -6.2 7.15 -3.85 L7.85 -2.5 7.8 -2.4 7.85 -2.45 7.9 -2.35 7.9 -2.2 7.85 -1.3 7.85 -0.65 7.8 -0.6 7.7 -0.6 7.25 -0.2 7.25 -0.15 7.05 -0.8 7.05 -1.4 7.0 -1.5 Q7.15 -1.8 7.15 -2.05 7.15 -3.5 5.75 -5.15 5.4 -5.55 5.15 -5.8 L4.6 -6.35 4.5 -6.55 4.5 -6.6 4.45 -6.65 Q4.1 -7.2 3.6 -7.65 L3.5 -7.75 M3.75 -10.65 Q3.9 -11.35 4.25 -12.3 4.9 -14.15 5.35 -14.65 5.65 -15.0 6.85 -15.85 L8.3 -16.8 9.45 -17.5 9.6 -17.6 9.6 -17.55 9.65 -17.5 9.65 -17.45 9.7 -17.45 9.75 -17.2 9.75 -17.15 Q9.75 -16.95 9.7 -16.85 9.55 -16.9 9.5 -16.85 L9.45 -16.85 Q9.4 -16.8 9.4 -16.75 L9.65 -16.05 9.75 -15.55 Q9.75 -15.5 9.65 -15.35 9.55 -15.2 9.35 -15.2 L9.0 -15.25 Q8.9 -15.4 8.8 -15.7 L8.55 -16.5 8.4 -16.5 8.4 -16.45 8.35 -16.5 Q8.05 -16.15 8.0 -15.8 7.95 -15.7 7.95 -15.15 7.95 -14.45 8.0 -14.3 8.1 -14.05 8.35 -13.7 L8.1 -13.5 7.85 -13.35 Q7.7 -13.05 7.25 -12.5 6.5 -11.6 6.0 -11.6 L5.85 -11.6 5.65 -11.45 4.65 -11.45 Q4.5 -11.4 4.5 -11.05 4.5 -10.9 4.75 -10.55 5.05 -10.05 5.45 -10.05 5.65 -10.05 5.95 -10.2 L6.1 -10.3 6.1 -10.1 Q5.95 -9.7 5.95 -9.45 5.95 -9.05 6.25 -8.8 L6.9 -8.75 Q7.0 -8.85 7.2 -9.15 L7.4 -9.45 7.8 -10.2 Q8.0 -10.5 8.25 -10.65 L8.8 -10.7 Q9.15 -10.5 9.4 -9.85 L9.5 -9.55 9.55 -9.55 Q9.65 -9.55 9.75 -9.45 L9.8 -9.4 9.85 -9.45 10.1 -9.45 10.15 -9.25 Q10.2 -8.65 10.3 -8.4 10.4 -7.95 10.65 -7.65 L10.7 -7.45 Q10.35 -7.05 9.95 -6.5 L9.25 -5.5 8.9 -5.05 8.9 -5.2 8.65 -4.95 8.65 -4.75 8.45 -4.45 Q8.25 -4.6 8.2 -4.8 L7.1 -5.7 Q5.9 -6.7 5.55 -6.95 5.1 -7.3 4.5 -8.05 L4.45 -8.1 4.35 -8.25 4.05 -8.65 4.05 -8.7 4.0 -8.75 3.65 -9.05 Q3.65 -9.4 3.7 -9.9 L3.75 -10.65 M16.45 -5.6 L16.55 -5.65 16.4 -6.05 16.25 -6.5 16.6 -6.6 17.7 -6.9 Q17.75 -6.65 17.9 -6.35 17.2 -6.05 16.55 -5.65 L16.45 -5.6 M14.55 -5.85 L14.55 -5.8 15.05 -5.25 15.25 -5.0 15.4 -4.85 Q14.85 -4.35 14.35 -3.8 L13.85 -3.8 13.35 -4.15 13.05 -4.35 13.2 -4.9 13.25 -5.0 13.3 -5.0 14.55 -5.85" fill="#5a6d1b" fill-rule="evenodd" stroke="none"/>
    <path d="M25.05 -16.45 L25.1 -15.65 25.05 -15.55 Q24.85 -14.4 24.85 -13.25 L24.75 -13.15 24.75 -13.05 Q24.75 -12.95 24.7 -12.8 L24.7 -12.75 Q24.55 -12.45 24.55 -12.3 24.55 -12.1 24.45 -11.9 L24.35 -11.75 24.3 -11.6 24.25 -11.65 Q23.85 -12.2 23.85 -12.35 23.85 -13.25 24.25 -14.55 24.6 -15.55 25.05 -16.45 M22.8 -10.15 L22.2 -9.55 21.65 -9.1 22.1 -9.35 21.3 -8.6 21.3 -8.65 21.45 -8.85 21.3 -8.8 21.3 -8.75 21.25 -8.75 Q20.95 -9.25 20.95 -9.85 20.95 -11.35 21.4 -12.7 21.95 -14.45 23.1 -15.2 L23.25 -15.2 Q23.3 -15.15 23.3 -15.0 L23.0 -13.8 Q22.7 -12.55 22.7 -12.4 L22.8 -10.15 M21.4 -8.5 L21.4 -8.55 21.45 -8.55 22.1 -9.0 22.3 -9.1 22.8 -9.75 22.8 -9.7 Q22.8 -9.65 23.75 -8.75 24.65 -7.9 24.65 -7.7 24.65 -7.6 24.55 -7.5 24.45 -7.35 24.15 -7.35 22.4 -7.35 21.55 -8.3 L21.4 -8.5 M24.4 -11.45 L25.0 -11.95 25.1 -12.0 25.15 -12.0 25.2 -12.05 25.35 -12.05 Q25.4 -12.0 25.4 -11.85 L25.4 -11.7 25.65 -11.15 26.4 -9.9 26.55 -9.55 26.55 -9.35 Q25.95 -9.75 25.3 -10.45 24.8 -10.95 24.4 -11.45 M7.0 -1.5 L6.95 -1.7 6.8 -2.4 6.85 -2.55 6.75 -2.8 6.65 -3.0 6.35 -3.85 Q5.9 -4.8 5.2 -5.7 L5.15 -5.75 5.15 -5.8 Q5.4 -5.55 5.75 -5.15 7.15 -3.5 7.15 -2.05 7.15 -1.8 7.0 -1.5 M12.5 -2.95 Q12.75 -3.45 12.8 -3.75 L12.8 -3.85 Q12.8 -4.1 12.7 -4.35 L12.65 -4.4 12.8 -4.55 12.75 -4.6 12.65 -4.5 12.55 -4.75 12.35 -5.0 Q12.85 -5.6 12.85 -5.75 12.85 -6.2 12.5 -6.05 L12.45 -6.05 12.9 -7.0 Q13.05 -6.85 13.05 -6.6 L13.05 -6.35 Q13.05 -6.15 13.15 -5.8 L13.3 -5.3 Q13.1 -5.1 13.05 -4.9 L13.1 -4.85 13.25 -5.0 13.2 -4.9 13.05 -4.35 13.35 -4.15 13.85 -3.8 14.35 -3.8 14.4 -3.8 14.3 -3.7 14.15 -3.55 13.55 -2.65 13.55 -2.6 13.5 -2.5 Q12.95 -2.55 12.5 -2.95 M14.65 -6.2 L14.85 -6.95 15.05 -7.75 Q15.4 -8.25 15.75 -8.85 L16.35 -10.05 16.45 -10.05 Q16.65 -10.05 16.65 -9.55 L16.4 -8.75 Q16.15 -8.05 16.15 -7.85 16.15 -7.2 16.25 -6.7 L15.95 -6.7 15.35 -6.45 15.15 -6.45 14.65 -6.2 M17.7 -6.9 Q17.65 -7.1 17.65 -7.2 L17.8 -7.75 17.9 -8.2 Q18.2 -9.25 18.2 -9.75 18.2 -10.25 18.8 -11.35 L19.05 -11.8 Q19.4 -12.4 19.6 -12.5 L19.65 -12.5 Q19.7 -12.5 19.7 -12.35 L19.4 -11.6 Q19.1 -10.8 19.1 -10.35 L19.1 -10.05 Q19.15 -9.85 19.25 -9.55 L19.25 -9.5 Q19.4 -9.05 19.4 -8.4 19.4 -8.15 19.7 -7.7 19.25 -7.45 18.75 -7.25 19.3 -7.45 19.75 -7.7 L19.9 -7.45 20.2 -7.05 20.1 -7.05 Q18.95 -6.75 17.95 -6.35 L17.9 -6.35 Q17.75 -6.65 17.7 -6.9 L17.7 -6.9 M16.25 -6.5 L16.4 -6.05 16.55 -5.65 16.45 -5.6 16.4 -5.55 15.4 -4.85 15.25 -5.0 15.05 -5.25 14.55 -5.8 14.55 -5.85 15.2 -6.2 16.25 -6.5" fill="#808c22" fill-rule="evenodd" stroke="none"/>
    <path d="M16.45 -5.6 L16.55 -5.65 16.8 -5.2 Q17.1 -4.6 17.25 -4.15 L17.25 -4.1 Q17.2 -4.05 17.05 -4.05 16.15 -4.05 15.4 -4.85 L16.4 -5.55 16.45 -5.6 M14.3 -3.7 Q14.75 -3.55 15.3 -3.3 15.2 -3.15 14.9 -2.9 14.5 -2.55 14.15 -2.55 L13.55 -2.55 13.55 -2.6 13.55 -2.65 14.15 -3.55 14.3 -3.7 M20.1 -7.05 L20.6 -6.65 21.15 -6.05 21.8 -5.4 21.8 -5.35 21.2 -5.35 Q20.6 -5.35 19.35 -5.7 18.3 -6.0 17.95 -6.35 18.95 -6.75 20.1 -7.05" fill="#9eb407" fill-rule="evenodd" stroke="none"/>
    <path d="M10.85 -26.2 L10.95 -26.1 Q11.2 -25.95 11.4 -25.85 L11.45 -25.8 11.55 -25.55 Q11.6 -25.35 11.6 -25.2 L11.7 -24.8 11.5 -24.35 11.4 -24.2 11.4 -24.1 11.3 -23.9 Q11.2 -23.95 11.05 -24.05 L11.15 -24.1 Q11.25 -24.2 11.25 -24.4 L10.9 -25.65 10.8 -25.9 Q10.8 -26.05 10.85 -26.2 M11.6 -23.8 L11.6 -23.9 11.65 -24.0 11.7 -24.05 11.75 -24.0 11.7 -23.9 Q11.7 -23.8 11.55 -23.8 L11.6 -23.8 M12.5 -28.9 L12.5 -29.0 12.5 -28.9 M12.85 -28.25 L13.0 -27.8 13.4 -26.35 Q13.95 -24.6 14.95 -23.6 L15.0 -23.5 Q15.0 -23.35 14.8 -23.1 14.65 -22.95 14.5 -22.85 L13.85 -23.7 Q13.95 -23.8 13.95 -23.9 13.95 -24.4 13.6 -24.45 L13.5 -24.45 13.4 -24.6 13.2 -25.3 13.05 -26.55 12.85 -28.05 12.85 -28.25 M14.9 -23.65 L14.6 -24.1 14.85 -23.75 14.9 -23.65 M15.45 -32.95 L15.5 -33.6 15.6 -33.65 15.6 -33.6 15.6 -33.5 Q15.7 -32.95 16.15 -32.0 L16.25 -31.55 16.75 -29.6 16.8 -29.45 16.8 -29.35 16.75 -28.4 Q16.7 -27.9 16.7 -27.55 L16.65 -27.55 16.65 -27.5 16.7 -27.55 16.7 -27.15 16.75 -26.95 16.75 -26.8 16.65 -26.85 16.6 -27.2 Q16.5 -28.0 16.2 -28.35 L16.15 -28.45 Q16.15 -29.1 15.8 -31.05 L15.45 -32.95 M16.85 -26.45 Q16.85 -26.3 16.9 -26.2 17.0 -25.85 17.1 -25.65 L17.25 -25.4 17.75 -25.05 18.0 -24.55 18.2 -24.4 Q18.1 -24.3 18.1 -24.2 L18.2 -24.0 Q18.2 -23.65 18.3 -23.3 L18.3 -23.2 Q18.1 -23.05 17.4 -22.95 L16.85 -22.85 Q16.9 -23.1 17.0 -23.35 17.0 -23.5 16.75 -24.15 L16.65 -24.45 16.7 -24.7 Q16.8 -24.7 16.9 -24.85 L16.95 -24.95 16.85 -25.35 16.9 -25.9 Q16.9 -26.05 16.8 -26.35 L16.85 -26.45 M20.8 -27.15 L20.95 -27.25 21.0 -27.3 20.9 -26.7 Q20.9 -27.05 20.8 -27.15 M20.75 -26.0 Q20.65 -25.8 20.7 -25.6 L20.7 -25.3 20.65 -25.25 20.65 -25.4 20.7 -25.4 20.65 -25.45 20.55 -25.6 20.55 -25.65 20.75 -26.0 M20.7 -24.95 L20.7 -24.9 20.85 -24.9 21.3 -24.6 21.75 -24.35 21.0 -23.75 20.55 -23.45 Q20.1 -23.45 20.0 -23.7 L20.0 -23.75 20.05 -23.75 19.95 -23.7 20.0 -24.0 19.95 -24.35 20.05 -24.4 Q20.2 -24.85 20.7 -24.95 M20.9 -23.5 L21.0 -23.55 21.25 -23.75 21.3 -23.75 21.35 -23.8 21.55 -23.9 Q21.3 -23.55 20.9 -23.5 M26.35 -26.65 L26.4 -26.7 26.4 -26.85 26.5 -27.3 Q26.6 -27.8 26.65 -28.4 26.8 -28.35 26.95 -28.1 L27.1 -27.8 27.1 -27.7 Q27.1 -27.05 27.05 -26.2 L27.05 -25.55 27.0 -25.5 Q26.85 -24.9 26.6 -24.35 L26.5 -24.15 25.95 -23.75 Q25.5 -23.2 24.45 -22.1 L23.55 -21.25 23.6 -21.55 23.6 -21.75 Q23.85 -22.1 23.9 -22.5 L24.05 -22.6 Q24.95 -23.4 25.5 -24.1 L25.85 -24.3 25.9 -24.65 26.0 -24.85 Q26.55 -25.45 26.55 -26.15 26.55 -26.45 26.35 -26.65 M23.35 -21.0 L21.95 -19.75 21.9 -19.7 21.9 -19.6 21.9 -19.55 21.85 -19.3 21.8 -19.0 Q21.55 -18.3 21.5 -17.75 21.2 -17.85 20.6 -17.5 19.85 -17.05 19.85 -16.9 19.85 -16.75 19.9 -16.75 L19.95 -16.8 Q20.2 -16.85 20.8 -17.2 L21.45 -17.55 21.45 -17.35 21.2 -17.0 Q19.9 -16.35 19.45 -16.0 L19.3 -15.95 19.3 -15.9 19.05 -15.8 Q18.45 -15.4 17.85 -14.7 L16.75 -13.3 Q16.45 -12.75 16.35 -12.65 L16.3 -12.7 Q16.15 -12.85 16.1 -12.95 16.05 -13.05 16.05 -13.2 16.25 -13.45 16.45 -15.0 L16.8 -15.6 Q17.05 -16.1 17.35 -16.5 17.6 -16.7 18.0 -17.15 18.15 -16.85 18.35 -16.7 L18.95 -16.65 19.4 -17.0 Q19.8 -17.2 20.15 -17.8 20.95 -18.7 20.95 -18.95 L20.9 -19.15 21.0 -19.45 21.2 -20.0 21.35 -19.85 21.65 -20.25 21.7 -20.3 Q22.55 -20.6 23.2 -21.2 L23.35 -21.4 23.35 -21.0 M14.65 -11.55 L14.15 -11.15 14.1 -11.1 13.95 -11.5 13.95 -11.7 Q13.95 -11.95 13.85 -12.1 L13.85 -12.4 14.0 -12.75 14.15 -12.9 14.15 -12.85 14.35 -12.2 Q14.45 -11.85 14.6 -11.7 L14.65 -11.55 M10.9 -11.3 L10.8 -10.85 10.75 -10.35 10.65 -10.0 10.6 -10.0 10.3 -9.9 10.35 -10.05 10.3 -10.2 10.25 -10.2 10.2 -10.25 10.15 -10.25 10.15 -10.35 Q10.05 -11.9 10.55 -13.1 10.55 -12.9 10.75 -12.45 10.9 -11.95 10.9 -11.75 L10.9 -11.3 M9.3 -11.35 L9.3 -11.9 9.25 -11.85 9.25 -12.0 9.1 -12.2 8.95 -12.1 Q8.95 -11.65 8.8 -11.45 L8.75 -11.45 8.85 -11.65 8.85 -12.45 8.9 -12.55 Q9.25 -12.7 9.45 -12.65 9.35 -12.35 9.35 -11.95 L9.45 -11.55 9.3 -11.35 M7.95 -11.05 L7.8 -10.9 7.7 -10.75 Q7.45 -10.5 7.3 -10.2 7.0 -9.7 6.85 -9.15 6.8 -9.15 6.7 -9.1 6.65 -9.2 6.6 -9.4 L6.6 -9.8 6.7 -10.0 6.9 -10.45 6.85 -10.5 6.8 -10.5 6.7 -10.6 6.8 -10.9 6.9 -10.9 Q6.95 -10.9 7.0 -11.0 L7.05 -11.0 Q7.35 -11.0 8.0 -11.55 L7.95 -11.25 8.0 -11.1 7.95 -11.05 M9.45 -19.3 L9.4 -19.05 9.4 -18.8 9.35 -18.8 9.3 -18.85 8.8 -19.15 8.75 -19.2 8.25 -19.45 8.2 -19.6 8.05 -19.9 8.05 -19.85 8.0 -19.85 Q8.05 -20.1 8.2 -20.1 L8.2 -20.05 Q8.2 -19.95 8.4 -19.8 8.65 -19.55 9.05 -19.55 L9.15 -19.55 9.45 -19.3 M7.95 -20.1 L7.95 -20.25 7.9 -20.25 7.85 -20.3 7.75 -20.35 Q7.75 -20.65 7.85 -20.95 8.05 -21.5 8.45 -21.55 L8.5 -21.4 Q8.25 -20.95 8.15 -20.7 8.0 -20.45 7.95 -20.1 M7.65 -22.05 L7.75 -22.05 Q7.85 -22.05 7.95 -22.15 L8.05 -22.15 8.0 -22.1 7.75 -21.4 7.65 -21.35 Q7.6 -21.55 7.6 -21.8 7.6 -21.9 7.65 -22.05 M10.5 -18.8 Q10.55 -18.75 10.65 -18.7 L10.7 -18.65 10.7 -18.6 10.75 -18.6 Q10.9 -18.4 11.15 -18.35 L11.2 -18.35 Q11.2 -18.3 11.25 -18.25 L11.2 -18.25 11.05 -18.1 Q10.9 -18.45 10.5 -18.75 L10.5 -18.8 M12.55 -17.35 L12.6 -17.45 12.75 -17.85 12.8 -17.9 12.85 -17.85 12.8 -17.95 12.85 -18.1 13.0 -18.45 13.15 -18.4 Q13.2 -18.3 13.35 -18.15 L13.4 -18.1 13.8 -17.9 13.85 -17.9 14.0 -17.85 Q14.2 -17.75 14.4 -17.75 L14.45 -17.75 14.5 -17.8 15.0 -17.8 Q15.25 -17.85 15.4 -18.1 L15.45 -18.2 15.5 -18.55 15.9 -18.6 16.05 -18.6 16.3 -18.65 16.35 -18.65 17.0 -18.75 17.05 -18.75 17.0 -18.65 16.75 -18.4 Q16.55 -18.5 16.0 -18.0 16.15 -18.25 16.25 -18.45 L16.25 -18.5 15.75 -17.95 15.7 -17.9 Q15.25 -17.4 14.95 -17.25 15.0 -17.2 15.15 -17.2 L15.4 -17.45 15.2 -17.15 Q14.8 -16.95 14.45 -16.95 13.6 -16.9 13.1 -17.5 L13.05 -17.5 12.95 -16.85 Q12.85 -16.3 12.8 -16.25 12.7 -16.3 12.65 -16.45 12.55 -16.55 12.55 -16.7 12.5 -17.1 12.55 -17.35 M17.25 -21.7 Q17.4 -21.5 17.4 -21.15 L17.4 -21.1 17.35 -20.65 17.3 -20.25 Q17.25 -20.05 17.3 -19.45 L17.3 -19.4 17.25 -19.3 Q17.05 -19.2 16.7 -19.05 L16.6 -19.05 16.5 -19.0 16.3 -19.0 15.45 -19.05 13.9 -18.95 13.25 -18.95 13.15 -19.0 Q13.05 -19.15 13.0 -19.3 L13.1 -19.45 13.1 -19.15 13.2 -19.1 13.4 -19.1 Q13.65 -19.1 13.8 -19.3 14.0 -19.1 14.25 -19.1 15.05 -19.1 15.65 -19.9 15.9 -20.2 16.05 -20.4 16.2 -20.55 16.25 -20.7 16.85 -21.75 17.2 -21.7 L17.25 -21.7 M12.85 -18.7 L12.8 -18.65 12.75 -18.7 12.8 -18.65 12.85 -18.65 12.85 -18.45 11.75 -16.1 11.6 -16.1 11.6 -16.6 Q11.7 -16.95 11.95 -17.6 12.35 -18.5 12.75 -18.7 L12.8 -18.75 12.85 -18.7 M11.45 -21.05 L11.55 -20.6 Q11.75 -20.0 11.75 -19.8 L11.65 -19.2 11.65 -19.15 11.6 -19.15 11.6 -19.1 11.5 -19.15 Q11.45 -19.2 11.35 -19.25 L11.3 -19.3 11.1 -19.4 11.05 -19.4 11.0 -19.45 10.9 -19.5 10.9 -19.6 Q11.15 -19.65 11.3 -20.0 11.4 -20.25 11.4 -20.6 11.4 -20.9 11.3 -21.15 L11.35 -21.15 11.45 -21.05 M18.25 -17.15 Q18.3 -17.05 18.45 -16.95 18.2 -16.95 18.1 -17.25 L18.25 -17.15 M23.05 -23.75 L23.05 -23.7 23.0 -23.7 23.05 -23.75 M13.25 -18.0 L13.3 -17.7 13.45 -17.5 13.55 -17.45 13.85 -17.2 Q14.05 -17.1 14.3 -17.1 L14.55 -17.15 14.45 -17.2 14.4 -17.2 Q13.9 -17.35 13.6 -17.6 L13.25 -18.0 M17.1 -15.05 L17.3 -15.0 17.9 -15.75 Q18.2 -16.25 18.15 -16.6 17.85 -16.5 17.45 -15.9 17.05 -15.4 17.05 -15.2 17.05 -15.05 17.1 -15.05 M18.65 -21.05 L18.6 -21.05 18.65 -21.1 18.65 -21.05 M9.45 -25.9 L9.5 -25.95 9.9 -25.95 Q9.7 -25.85 9.5 -25.7 9.3 -25.6 9.25 -25.6 L9.05 -25.65 9.05 -25.75 9.3 -25.85 Q9.4 -25.85 9.45 -25.9 M10.65 -25.6 Q10.85 -24.8 10.85 -24.55 10.85 -24.4 10.7 -24.1 10.6 -23.75 10.45 -23.6 L10.4 -23.75 Q10.5 -24.3 10.5 -25.6 L10.65 -25.6 M10.55 -13.15 L10.55 -13.2 10.6 -13.2 10.6 -13.15 10.55 -13.15 M8.35 -11.95 L8.55 -12.15 8.6 -11.95 8.55 -11.65 8.55 -11.55 Q8.4 -11.6 8.35 -11.75 L8.35 -11.95 M16.75 -13.3 L16.75 -13.3" fill="#99380f" fill-rule="evenodd" stroke="none"/>
    <path d="M14.45 -24.6 L14.45 -24.65 14.2 -24.95 Q14.1 -25.05 14.0 -25.2 13.9 -25.4 13.9 -25.65 13.9 -25.75 13.95 -25.95 L14.0 -26.05 14.0 -26.15 14.0 -26.25 Q13.95 -26.3 14.0 -26.35 L14.0 -26.4 Q14.0 -26.55 14.15 -27.0 L14.25 -27.25 14.35 -27.5 14.3 -27.3 Q14.1 -26.5 14.1 -25.95 14.25 -25.2 14.5 -24.5 L14.45 -24.6 M23.55 -21.25 L23.4 -21.0 23.35 -21.0 23.35 -21.4 Q23.3 -22.9 22.3 -24.15 22.8 -24.2 23.25 -23.1 23.55 -22.3 23.6 -21.75 L23.6 -21.55 23.55 -21.25 M21.5 -17.75 L21.6 -17.7 21.65 -17.6 21.45 -17.55 20.8 -17.2 Q20.2 -16.85 19.95 -16.8 L19.9 -16.75 Q19.85 -16.75 19.85 -16.9 19.85 -17.05 20.6 -17.5 21.2 -17.85 21.5 -17.75 M14.9 -11.7 L14.9 -11.6 Q14.85 -11.55 14.65 -11.5 L14.65 -11.55 14.6 -11.7 Q14.45 -11.85 14.35 -12.2 L14.15 -12.85 14.15 -12.9 14.2 -12.95 14.4 -13.2 14.65 -12.55 Q14.85 -12.05 14.9 -11.7 M11.25 -10.95 L11.2 -10.85 10.85 -10.8 Q10.85 -10.95 10.9 -11.3 L10.9 -11.75 Q10.9 -11.95 10.75 -12.45 10.55 -12.9 10.55 -13.1 L10.55 -13.15 10.6 -13.15 Q10.95 -13.15 11.15 -12.6 11.25 -12.15 11.25 -11.6 L11.25 -10.95 M9.25 -11.85 L9.25 -11.8 Q9.25 -11.4 9.1 -11.25 L8.95 -11.15 8.8 -11.2 8.0 -11.1 7.95 -11.25 8.0 -11.55 Q8.0 -12.25 8.2 -12.35 L8.35 -11.9 8.35 -11.75 Q8.4 -11.6 8.55 -11.55 L8.55 -11.65 8.6 -11.95 8.55 -12.15 8.5 -12.3 Q8.4 -12.55 8.4 -12.65 L8.4 -12.85 8.45 -12.95 8.6 -12.95 8.6 -12.9 Q8.8 -12.65 8.85 -12.45 L8.85 -11.65 8.75 -11.45 8.8 -11.45 Q8.95 -11.65 8.95 -12.1 L9.1 -12.2 9.25 -12.0 9.25 -11.85 M15.0 -27.7 L14.95 -27.7 15.0 -27.7 M18.0 -17.15 Q17.9 -17.35 17.85 -17.6 17.7 -18.05 17.7 -18.35 17.7 -19.3 18.3 -20.1 L18.7 -20.65 Q18.9 -20.95 18.9 -21.2 18.9 -21.35 18.95 -21.4 L19.25 -21.4 Q18.85 -20.2 18.25 -19.25 18.0 -18.8 18.0 -17.8 18.0 -17.55 18.1 -17.3 L18.1 -17.25 Q18.2 -16.95 18.45 -16.95 19.6 -16.95 20.25 -17.95 20.6 -18.45 20.8 -19.15 L20.9 -19.15 20.95 -18.95 Q20.95 -18.7 20.15 -17.8 19.75 -17.25 19.4 -17.0 L18.95 -16.65 18.35 -16.7 Q18.15 -16.85 18.0 -17.15 M23.05 -21.75 L23.05 -21.1 22.95 -21.05 22.8 -21.45 Q22.6 -21.9 22.6 -22.0 22.6 -22.25 22.6 -22.15 22.95 -22.15 23.05 -21.75 M15.5 -28.1 L15.55 -28.0 Q15.7 -27.3 15.9 -26.6 16.2 -25.35 16.5 -24.9 L16.45 -24.65 Q16.3 -24.9 16.15 -25.35 L16.05 -25.25 Q15.95 -25.1 15.75 -24.95 L15.65 -25.0 15.65 -25.1 15.85 -25.45 Q15.95 -25.55 16.05 -25.6 L15.9 -26.05 Q15.85 -25.9 15.65 -25.7 15.4 -25.4 15.15 -25.3 L15.5 -25.8 15.85 -26.25 15.85 -26.3 Q15.5 -27.5 15.3 -27.95 L15.35 -27.95 15.5 -28.1 M14.0 -25.85 L14.0 -26.05 13.95 -25.75 14.0 -25.8 14.0 -25.85 M12.15 -21.65 Q11.75 -21.8 11.65 -21.95 L11.9 -22.0 12.2 -21.85 Q12.8 -21.65 13.95 -21.8 L14.05 -21.7 Q13.85 -21.6 13.75 -21.6 L13.0 -21.5 12.55 -21.55 12.4 -20.8 Q12.3 -20.25 12.3 -19.9 L12.25 -19.85 Q12.2 -19.95 12.2 -20.3 12.15 -20.55 12.35 -21.15 L12.45 -21.55 12.15 -21.65 M12.55 -15.95 Q12.55 -15.8 12.25 -15.75 L12.15 -15.75 Q12.1 -15.7 12.1 -15.8 L12.1 -15.85 Q12.1 -15.95 12.4 -16.1 L12.5 -16.05 Q12.55 -16.05 12.55 -15.95 M15.05 -15.6 L15.3 -14.9 Q15.6 -13.75 15.8 -13.35 L15.8 -13.25 Q15.65 -13.45 15.55 -13.75 L15.55 -13.8 Q15.55 -13.9 15.4 -14.1 L15.25 -14.6 Q14.95 -15.05 14.6 -15.75 L14.9 -15.85 15.05 -15.6 M18.5 -18.35 L18.5 -18.95 18.65 -18.95 Q18.65 -18.6 18.75 -18.35 18.9 -17.95 19.5 -17.8 L19.3 -17.8 Q18.95 -17.8 18.7 -18.05 L18.5 -18.35 M19.15 -19.1 Q19.6 -18.6 19.75 -18.3 L19.7 -18.3 Q19.55 -18.3 19.3 -18.6 19.15 -18.8 19.05 -18.95 L19.1 -19.1 19.15 -19.1 M11.3 -16.0 L11.3 -15.85 11.2 -15.85 Q11.15 -15.9 11.15 -16.0 L11.3 -16.0" fill="#773110" fill-rule="evenodd" stroke="none"/>
    <path d="M7.5 -12.5 L7.55 -12.6 Q8.15 -13.35 8.55 -13.4 L8.6 -13.35 Q8.75 -13.3 8.75 -13.2 L8.6 -12.9 8.6 -12.95 8.45 -12.95 8.4 -12.85 8.4 -12.65 8.0 -12.15 7.15 -11.25 7.0 -11.3 Q7.0 -11.35 7.0 -11.55 7.0 -11.85 7.5 -12.5 M11.05 -18.1 L11.1 -17.95 11.15 -17.75 Q11.05 -17.5 10.9 -17.5 10.8 -17.5 10.35 -18.05 L9.95 -18.55 Q9.95 -19.25 10.5 -18.8 L10.5 -18.75 Q10.9 -18.45 11.05 -18.1 M14.95 -27.7 Q14.8 -27.85 14.8 -28.35 14.8 -28.65 15.0 -29.75 15.25 -30.85 15.3 -30.95 15.5 -30.65 15.5 -30.15 15.5 -29.7 15.35 -28.95 L15.05 -27.75 15.0 -27.7 14.95 -27.7 M18.1 -17.25 Q18.05 -17.35 18.05 -17.45 18.0 -17.55 18.05 -17.75 18.05 -17.95 18.05 -18.1 18.45 -18.15 18.6 -17.8 L18.7 -17.35 18.65 -17.25 Q18.55 -17.15 18.4 -17.15 L18.25 -17.15 18.1 -17.25 M21.45 -23.25 L21.45 -23.1 Q21.45 -23.0 21.25 -22.75 L20.7 -22.2 Q19.85 -21.25 19.5 -19.8 L19.4 -19.75 19.25 -19.65 Q19.1 -19.8 19.05 -19.95 L19.0 -20.15 Q19.0 -20.8 19.7 -22.0 20.55 -23.4 21.4 -23.3 L21.45 -23.25 M20.75 -21.65 Q21.05 -22.0 21.25 -22.05 L21.3 -22.0 Q21.35 -21.95 21.35 -21.8 21.35 -21.7 21.1 -21.4 20.85 -21.1 20.65 -21.0 L20.5 -21.05 Q20.45 -21.05 20.45 -21.2 20.45 -21.3 20.75 -21.65 M15.05 -26.85 L14.95 -26.2 Q14.9 -25.65 14.9 -25.35 L14.85 -25.3 Q14.85 -25.25 14.7 -25.25 L14.5 -25.25 14.45 -25.3 14.45 -25.75 Q14.45 -26.05 14.55 -26.5 14.65 -27.15 14.9 -27.25 L15.0 -27.05 Q15.05 -27.0 15.05 -26.85 M12.45 -26.85 L12.55 -26.15 12.6 -25.45 Q12.6 -25.35 12.4 -25.35 12.25 -25.75 12.25 -26.15 L12.25 -26.55 Q12.3 -26.8 12.45 -26.85 M12.8 -23.65 L12.75 -23.55 12.55 -23.55 Q12.4 -23.55 12.2 -23.75 12.05 -23.9 11.95 -24.05 12.2 -24.05 12.5 -23.85 L12.8 -23.65 M12.35 -23.15 Q12.75 -22.8 12.9 -22.7 L13.0 -22.65 Q12.9 -22.5 12.65 -22.5 12.3 -22.5 12.0 -22.85 11.8 -23.1 11.75 -23.35 12.0 -23.4 12.35 -23.15 M15.45 -24.1 L15.3 -24.05 Q15.2 -24.05 15.1 -24.2 15.0 -24.35 15.0 -24.4 15.0 -24.7 15.2 -24.75 15.3 -24.75 15.4 -24.55 L15.5 -24.3 15.45 -24.1 M14.65 -20.85 L14.7 -20.65 Q14.2 -19.8 13.3 -19.5 L13.15 -19.65 Q13.1 -19.7 13.1 -19.85 13.1 -20.2 13.5 -20.55 13.95 -21.0 14.65 -20.9 L14.65 -20.85 M14.6 -20.05 Q14.6 -20.2 14.7 -20.3 14.85 -20.45 15.15 -20.35 15.2 -20.45 15.2 -20.2 L15.1 -20.0 Q15.0 -19.85 14.85 -19.75 14.7 -19.8 14.65 -19.85 14.6 -19.9 14.6 -20.05 M16.0 -18.0 Q16.55 -18.5 16.75 -18.4 16.9 -18.3 16.9 -18.0 16.9 -17.85 16.15 -17.15 L15.3 -16.45 15.1 -16.65 Q15.0 -16.75 15.0 -16.8 15.0 -16.9 15.2 -17.15 L15.4 -17.45 Q15.65 -17.75 15.95 -18.0 L16.0 -18.0 M16.4 -16.95 L16.55 -16.95 16.6 -16.75 Q16.6 -16.55 16.45 -16.4 L16.05 -15.95 15.9 -16.0 Q15.85 -16.0 15.85 -16.15 15.85 -16.3 16.1 -16.6 16.3 -16.95 16.4 -16.95 M9.3 -25.85 Q9.2 -25.95 9.05 -26.65 8.9 -27.3 8.9 -27.5 L8.9 -27.9 Q8.95 -28.2 9.15 -28.3 9.25 -27.85 9.35 -27.2 L9.55 -26.05 9.45 -25.9 Q9.4 -25.85 9.3 -25.85 M7.1 -21.4 Q7.3 -21.25 7.3 -21.2 7.3 -21.05 7.2 -21.0 7.05 -20.9 6.85 -20.9 6.7 -20.9 6.15 -21.1 5.6 -21.35 5.55 -21.4 5.85 -22.0 6.6 -21.7 6.9 -21.6 7.1 -21.4 M9.95 -21.9 Q10.0 -22.05 10.35 -22.0 L10.4 -21.95 Q10.45 -21.9 10.45 -21.8 L10.4 -21.3 10.35 -20.65 10.15 -20.55 Q9.95 -20.65 9.9 -20.95 L9.9 -21.45 Q9.9 -21.85 9.95 -21.9 M11.0 -21.15 Q11.05 -21.15 11.05 -21.0 11.05 -20.85 11.0 -20.75 L10.9 -20.6 10.8 -20.55 10.65 -20.65 Q10.65 -20.7 10.65 -20.85 L10.65 -20.95 Q10.75 -21.1 10.95 -21.2 L11.0 -21.15 M9.15 -19.55 L9.05 -19.55 Q8.65 -19.55 8.4 -19.8 8.2 -19.95 8.2 -20.05 L8.2 -20.1 Q8.2 -20.6 8.7 -20.3 L9.4 -19.85 9.2 -19.6 9.15 -19.55 M9.45 -12.65 Q9.55 -13.15 9.75 -13.55 10.2 -14.4 11.15 -15.0 L11.2 -14.95 11.2 -14.8 Q11.2 -14.55 10.7 -13.85 L10.05 -12.95 Q10.0 -12.8 9.85 -12.05 9.75 -11.5 9.6 -11.3 9.5 -11.35 9.45 -11.55 L9.35 -11.95 Q9.35 -12.35 9.45 -12.65 M11.35 -14.45 Q11.45 -14.65 11.55 -14.7 11.55 -14.4 11.35 -14.0 L11.25 -14.0 11.25 -14.15 Q11.25 -14.3 11.35 -14.45 M12.1 -13.95 L11.9 -13.55 11.85 -13.3 Q11.65 -13.35 11.6 -13.5 L11.6 -13.65 Q11.6 -13.75 11.75 -13.85 11.9 -13.95 11.9 -14.05 L12.1 -14.0 12.1 -13.95 M12.6 -11.5 L12.8 -11.2 12.85 -11.05 Q12.85 -10.75 12.75 -10.4 12.6 -9.85 12.3 -9.85 12.15 -9.85 12.1 -10.1 L12.05 -10.35 Q12.05 -10.5 12.25 -10.95 12.45 -11.45 12.6 -11.5 M24.95 -24.4 Q24.85 -24.25 24.3 -23.95 23.95 -23.8 23.65 -23.7 L23.4 -23.95 Q23.4 -24.25 23.95 -24.45 24.45 -24.65 24.9 -24.55 L24.95 -24.4" fill="#cb8945" fill-rule="evenodd" stroke="none"/>
  </g>
</svg>
