<?xml version="1.0" encoding="UTF-8" standalone="no"?>
<svg xmlns:ffdec="https://www.free-decompiler.com/flash" xmlns:xlink="http://www.w3.org/1999/xlink" ffdec:objectType="shape" height="47.05px" width="36.25px" xmlns="http://www.w3.org/2000/svg">
  <g transform="matrix(1.0, 0.0, 0.0, 1.0, -4.35, 45.55)">
    <path d="M14.65 -33.5 Q14.5 -33.9 13.6 -33.9 11.65 -33.9 10.25 -32.5 9.65 -31.95 8.95 -30.8 8.75 -30.4 8.65 -29.9 8.0 -29.4 7.15 -28.7 L5.9 -27.65 5.85 -27.55 Q5.7 -27.45 5.5 -27.45 L5.4 -27.55 5.3 -27.5 5.25 -27.45 5.25 -27.55 Q5.15 -27.6 5.05 -27.75 L5.15 -28.05 5.15 -28.15 5.5 -29.25 Q6.5 -32.5 6.75 -34.0 7.0 -34.45 7.3 -34.85 L8.0 -35.55 Q8.85 -36.35 11.65 -38.0 L13.35 -39.0 Q14.4 -39.25 15.4 -39.15 16.5 -39.3 17.4 -38.95 18.35 -38.75 19.0 -38.3 L19.55 -37.4 19.75 -37.1 19.9 -36.15 Q20.15 -34.7 20.3 -34.35 20.8 -32.95 21.1 -32.15 L21.15 -32.0 Q21.5 -30.8 21.7 -30.4 21.65 -30.3 21.65 -30.1 L21.65 -29.75 21.7 -29.75 21.9 -29.7 Q22.1 -29.7 22.15 -29.8 22.2 -29.9 22.2 -30.15 L22.2 -30.3 22.3 -30.5 Q22.4 -30.7 22.4 -31.05 L22.3 -31.15 22.3 -31.35 Q22.3 -32.2 21.75 -33.75 L21.7 -33.85 Q22.0 -35.55 23.2 -38.25 L23.7 -39.35 Q24.2 -40.1 24.75 -40.85 25.45 -41.8 26.2 -42.6 27.45 -43.55 29.25 -44.75 L30.45 -45.55 30.45 -45.5 30.5 -45.3 30.4 -45.25 30.4 -44.85 30.35 -44.35 30.4 -44.25 30.65 -43.15 Q30.65 -43.05 30.65 -42.7 30.65 -42.0 30.85 -40.7 31.05 -39.35 31.2 -38.9 L31.55 -37.9 Q31.55 -37.45 31.35 -36.55 L31.35 -36.15 30.7 -34.15 Q29.9 -32.15 28.25 -30.65 L26.95 -30.2 Q24.75 -29.3 24.75 -28.9 24.75 -28.7 24.8 -28.65 L24.95 -28.55 Q25.05 -28.65 25.4 -28.8 L25.55 -28.65 26.95 -28.65 Q27.3 -28.85 28.65 -29.05 L30.35 -29.2 30.8 -29.15 33.1 -29.1 Q37.15 -28.15 40.6 -26.6 39.85 -24.75 39.45 -24.3 39.2 -23.95 37.1 -22.1 36.4 -21.9 35.65 -21.85 L34.15 -21.95 Q32.6 -22.05 31.2 -22.5 30.5 -22.7 29.7 -22.95 28.75 -23.3 28.0 -23.65 L27.5 -24.25 26.5 -25.25 26.7 -24.7 Q26.9 -24.0 27.0 -23.25 L27.15 -22.95 Q27.2 -21.15 27.25 -19.9 27.3 -19.05 27.4 -18.3 L27.3 -17.6 26.95 -16.0 Q26.5 -14.9 26.05 -13.9 L25.9 -13.6 25.2 -12.8 Q24.1 -11.4 24.1 -11.2 24.1 -11.05 24.15 -11.0 23.85 -10.75 23.6 -10.6 L23.9 -10.25 24.65 -9.1 24.6 -8.95 24.5 -8.9 Q24.1 -9.2 23.8 -9.6 24.45 -7.85 24.45 -7.7 24.45 -7.6 24.35 -7.5 24.3 -7.35 24.1 -7.35 23.2 -8.4 23.2 -7.65 23.2 -7.75 24.75 -5.55 L25.0 -4.4 25.05 -4.3 25.15 -3.5 25.2 -2.8 25.2 -2.75 Q25.2 -2.15 24.8 -1.1 L24.5 -0.45 24.05 0.4 24.1 0.5 23.95 0.85 23.8 1.1 23.6 0.3 23.6 0.25 Q23.15 -1.0 22.85 -1.55 22.3 -2.6 21.75 -3.0 L21.75 -2.8 Q21.75 -2.7 22.3 -1.5 L21.9 -1.45 Q22.05 -1.3 22.2 -1.05 L22.15 -0.4 Q22.0 0.8 21.65 0.8 21.55 0.8 21.45 0.7 20.9 -0.8 20.5 -1.65 19.85 -3.25 18.9 -4.15 L18.65 -4.65 Q18.55 -5.1 18.3 -5.65 17.85 -6.55 17.85 -5.75 L17.9 -5.35 17.75 -5.15 Q17.35 -5.15 17.0 -4.95 L16.8 -4.95 Q14.95 -3.95 14.7 -2.35 L14.7 -2.1 14.5 -1.4 14.45 -1.3 Q13.55 -0.65 12.3 0.7 11.9 1.1 11.6 1.5 11.3 1.5 11.05 1.05 L11.05 1.0 11.0 1.0 Q10.8 0.6 10.6 -0.15 L10.55 -0.45 10.35 -2.25 10.35 -2.55 10.2 -2.4 9.85 -1.85 9.3 -1.1 9.1 -0.8 8.8 -0.35 Q8.6 0.0 8.55 0.3 L8.2 0.35 8.15 0.35 8.15 0.3 Q7.8 -0.05 7.7 -0.55 7.65 -0.75 7.65 -1.4 7.65 -2.8 7.9 -3.9 L8.15 -4.65 7.85 -4.45 Q8.3 -4.85 8.3 -4.95 8.3 -5.1 8.2 -5.15 L8.1 -5.2 6.4 -3.9 6.05 -3.65 6.15 -5.5 6.2 -7.0 6.3 -7.2 Q6.7 -8.0 7.55 -8.95 L7.95 -9.3 9.05 -9.95 9.35 -10.15 Q9.85 -10.35 10.1 -10.6 L11.1 -10.85 Q10.65 -11.2 10.3 -11.55 L10.1 -11.8 10.1 -11.75 Q9.65 -11.55 9.55 -11.55 9.3 -11.55 8.95 -12.0 L8.95 -12.15 8.9 -12.2 8.75 -12.2 Q8.0 -12.3 7.1 -11.85 L6.85 -11.75 6.8 -12.3 6.9 -12.4 6.85 -12.55 Q5.9 -12.55 4.85 -12.15 L4.75 -12.15 4.9 -12.6 Q5.3 -13.85 5.6 -14.35 L6.8 -16.25 Q7.6 -17.5 7.7 -17.8 L8.45 -18.7 8.1 -18.7 8.0 -18.65 6.85 -18.65 6.7 -18.8 Q7.15 -19.1 8.0 -19.8 L8.6 -20.35 8.7 -20.4 9.4 -20.8 9.5 -20.95 9.55 -21.15 9.55 -21.2 9.6 -21.45 10.1 -22.25 10.2 -22.5 Q10.5 -22.95 11.15 -23.9 11.85 -24.95 12.35 -25.55 12.5 -26.3 13.2 -27.55 14.05 -29.1 14.75 -29.55 L14.8 -29.5 14.95 -29.65 Q15.2 -29.4 15.25 -28.45 L15.35 -28.5 15.35 -28.3 15.45 -28.25 15.45 -28.2 15.6 -28.2 Q16.7 -28.8 17.3 -29.1 L17.6 -29.2 17.65 -29.2 19.35 -29.3 Q19.5 -29.25 19.8 -29.25 20.1 -29.25 20.25 -29.35 L19.6 -29.95 Q19.0 -30.6 18.45 -30.75 L18.45 -30.85 Q19.0 -30.95 19.7 -30.3 20.1 -29.9 20.4 -29.5 L20.4 -29.8 Q20.4 -30.15 20.35 -30.1 L20.3 -30.1 Q20.3 -31.7 19.2 -32.45 19.1 -32.8 18.7 -33.0 17.6 -33.65 14.7 -33.05 L14.7 -33.25 14.65 -33.3 14.7 -33.35 14.65 -33.5 M29.75 -44.25 L29.7 -44.7 29.4 -44.4 Q27.8 -43.05 26.2 -41.45 25.5 -40.75 24.95 -40.05 L24.4 -39.45 Q23.7 -38.35 23.3 -37.2 L23.1 -36.6 Q22.55 -35.15 22.1 -33.7 L22.25 -32.95 Q22.6 -31.85 22.55 -31.25 22.6 -30.7 22.5 -30.4 L22.5 -30.0 22.4 -29.8 Q22.3 -29.5 22.1 -29.25 L21.95 -29.15 21.65 -28.9 20.75 -28.8 20.65 -28.65 20.55 -28.65 20.55 -28.8 20.25 -28.8 20.25 -28.75 Q19.75 -28.45 17.85 -26.95 L17.8 -27.0 Q18.05 -27.3 19.0 -28.05 19.8 -28.6 20.1 -28.8 L19.05 -28.7 Q18.55 -29.05 17.5 -28.45 L17.2 -28.4 16.8 -28.2 Q16.15 -27.9 15.55 -27.55 15.3 -27.4 15.0 -27.2 15.05 -25.7 15.1 -25.25 L15.0 -25.1 14.9 -25.25 14.9 -25.4 14.85 -25.25 14.75 -25.25 14.7 -25.95 Q14.65 -26.1 14.65 -26.3 L14.65 -26.95 14.55 -28.65 14.5 -28.7 14.45 -28.6 Q14.1 -28.05 13.65 -27.0 L13.4 -26.5 13.4 -26.4 Q13.25 -25.75 13.0 -24.15 13.0 -24.1 12.95 -24.05 L12.85 -24.35 12.85 -24.25 Q12.85 -24.05 12.95 -23.8 13.05 -23.5 13.15 -23.5 L13.4 -23.55 13.55 -23.6 14.15 -24.0 14.25 -24.15 Q14.5 -24.5 14.7 -24.9 L14.8 -24.85 14.8 -24.7 Q14.8 -24.5 14.45 -23.9 L14.2 -23.65 Q13.9 -23.25 13.65 -23.25 12.6 -23.25 12.6 -24.25 12.6 -24.6 12.65 -25.05 L12.45 -24.85 12.3 -24.55 12.25 -24.55 12.3 -24.5 12.2 -24.45 11.45 -23.25 10.9 -22.45 11.1 -22.45 11.1 -22.4 11.85 -22.3 Q11.85 -22.45 12.05 -22.8 12.25 -23.25 12.55 -23.35 12.6 -23.15 12.4 -22.75 L12.1 -22.25 12.55 -22.15 12.8 -22.1 Q13.55 -22.05 13.6 -21.95 L13.65 -21.9 13.5 -21.85 13.45 -21.85 13.2 -21.9 12.15 -21.9 12.2 -21.85 12.3 -21.7 12.7 -21.15 13.0 -21.05 13.2 -21.0 Q13.45 -21.1 14.25 -20.7 14.85 -20.4 15.5 -19.95 15.9 -19.7 16.2 -19.35 L16.85 -18.85 Q17.4 -18.4 17.75 -17.9 L17.8 -17.85 18.1 -17.6 Q18.15 -17.7 18.65 -17.95 L19.0 -18.1 18.85 -18.2 16.85 -20.25 15.7 -21.1 15.7 -21.2 Q16.45 -21.2 18.3 -19.3 L19.15 -18.5 19.4 -18.25 Q19.45 -18.4 19.55 -18.6 19.8 -18.95 19.95 -19.0 L19.75 -18.45 Q19.7 -18.2 19.55 -18.1 L19.6 -18.05 Q20.5 -17.05 21.0 -16.15 L21.1 -15.95 20.65 -16.35 20.4 -16.55 20.2 -16.8 19.35 -17.7 19.15 -17.65 Q18.6 -17.5 18.35 -17.4 L19.15 -16.6 19.85 -15.85 19.95 -15.75 20.85 -14.7 Q21.25 -13.95 21.7 -13.2 21.85 -13.25 22.25 -13.35 L22.65 -13.4 22.5 -13.65 Q21.65 -15.1 20.85 -16.05 L20.85 -16.1 Q21.4 -15.65 22.7 -13.7 L22.85 -13.45 22.95 -13.45 Q22.95 -13.65 23.6 -14.7 24.25 -15.65 24.35 -15.75 24.3 -15.25 23.85 -14.5 L23.05 -13.3 23.0 -13.2 Q23.65 -12.2 23.85 -11.8 L24.1 -12.05 Q24.7 -13.0 25.05 -13.6 L25.4 -14.2 Q25.75 -14.6 26.05 -15.7 26.6 -17.2 26.6 -18.65 L26.55 -19.15 26.55 -21.7 Q26.5 -22.55 26.3 -23.6 L25.85 -24.8 25.6 -25.65 Q25.45 -26.15 25.0 -27.4 24.9 -27.85 24.45 -28.35 L24.35 -28.5 Q24.2 -28.4 24.05 -28.4 L24.0 -28.45 23.95 -28.35 Q23.85 -28.4 23.8 -28.25 L23.6 -28.3 23.45 -28.25 23.35 -28.3 22.65 -28.4 22.4 -28.5 22.45 -28.5 23.0 -28.6 23.2 -28.7 Q23.45 -28.8 23.45 -28.95 L23.55 -29.0 23.7 -29.0 Q24.05 -29.0 24.85 -29.5 L25.1 -29.65 Q25.7 -29.95 26.25 -30.2 L26.9 -30.65 27.35 -31.0 Q28.2 -31.6 28.55 -32.1 29.0 -32.6 29.25 -32.95 29.9 -34.05 30.35 -35.35 30.6 -36.05 30.75 -36.65 30.75 -37.15 30.75 -37.7 30.75 -38.55 30.65 -39.4 L30.65 -39.45 30.6 -39.6 30.55 -39.85 30.55 -39.95 30.35 -40.9 Q29.95 -42.55 29.75 -44.25 M23.0 -28.6 L23.0 -28.6 M28.9 -39.8 Q28.95 -35.9 27.5 -33.8 26.8 -32.8 25.6 -31.75 24.85 -31.15 22.85 -29.65 23.15 -30.55 25.6 -32.45 27.95 -34.3 28.1 -35.25 L28.55 -38.0 Q28.75 -39.6 28.7 -40.7 L28.75 -40.7 Q28.9 -40.4 28.9 -39.8 M37.95 -23.55 Q38.35 -23.9 38.75 -24.35 39.05 -24.7 39.5 -25.6 L39.95 -26.4 37.95 -27.25 36.85 -27.6 Q35.35 -28.05 34.1 -28.35 L32.25 -28.7 29.55 -28.65 28.75 -28.6 28.45 -28.55 28.0 -28.45 Q26.6 -28.1 25.55 -28.1 L24.9 -28.1 25.0 -27.9 26.95 -25.5 27.35 -24.95 Q28.6 -23.95 29.8 -23.3 31.75 -22.6 34.25 -22.5 L35.8 -22.5 36.0 -22.55 36.3 -22.55 36.5 -22.6 36.95 -22.8 Q37.0 -22.9 37.2 -22.95 37.6 -23.2 37.95 -23.55 M18.85 -37.1 L18.8 -37.15 18.45 -37.6 18.4 -37.6 18.15 -37.85 Q15.95 -39.45 11.05 -37.15 L10.4 -36.75 10.25 -36.65 10.15 -36.55 10.1 -36.55 10.0 -36.45 9.95 -36.45 9.8 -36.3 9.65 -36.2 8.55 -35.2 8.5 -35.1 8.45 -35.1 8.45 -35.05 7.95 -34.4 7.9 -34.4 7.9 -34.35 7.85 -34.25 7.6 -33.9 7.4 -33.5 7.35 -33.35 7.35 -33.3 7.3 -33.15 Q7.0 -32.1 6.15 -29.75 L5.7 -28.4 Q6.05 -28.85 6.75 -29.35 7.15 -29.7 7.7 -30.1 L8.35 -30.55 Q8.45 -31.35 9.4 -32.3 10.05 -32.9 10.85 -33.4 11.25 -33.65 11.7 -33.85 13.05 -34.5 14.0 -34.5 14.9 -34.55 15.05 -33.9 L15.05 -33.7 15.0 -33.4 15.55 -33.55 Q17.15 -33.9 18.35 -33.85 18.9 -33.8 19.35 -33.65 L19.5 -33.2 19.6 -33.1 19.5 -33.35 19.65 -33.4 19.75 -33.1 20.05 -32.05 20.25 -31.75 20.25 -31.7 20.35 -31.55 Q20.5 -31.05 20.75 -29.95 L20.8 -29.9 20.8 -29.4 20.85 -29.3 21.15 -29.3 21.3 -29.3 Q21.05 -29.9 20.8 -30.8 L20.5 -31.9 20.35 -31.8 20.4 -32.0 20.05 -33.15 19.95 -33.4 19.8 -34.55 19.7 -34.9 19.4 -36.0 19.25 -36.4 18.95 -37.0 18.85 -37.1 M10.85 -34.95 Q12.75 -36.25 14.7 -36.2 16.25 -36.25 16.5 -36.2 16.75 -36.15 17.3 -35.95 L15.4 -36.1 Q12.55 -36.05 10.8 -34.8 10.2 -34.4 8.85 -32.75 9.15 -33.75 10.85 -34.95 M21.65 -32.4 L21.6 -32.5 21.7 -32.2 21.7 -32.25 21.65 -32.4 M20.25 -28.5 L20.3 -28.5 20.3 -28.45 20.2 -28.4 20.25 -28.5 M21.2 -24.2 Q21.2 -25.35 21.3 -26.3 20.1 -25.4 19.45 -23.95 19.0 -22.95 18.9 -21.95 18.95 -21.8 18.95 -21.65 L19.0 -21.45 19.1 -21.25 19.45 -20.95 20.05 -20.95 Q20.4 -21.0 20.55 -21.15 20.65 -21.3 20.75 -21.6 L20.85 -21.6 20.9 -21.6 20.85 -21.05 20.85 -20.95 Q20.95 -20.95 20.95 -20.8 20.95 -20.7 20.8 -20.55 L20.65 -20.45 19.35 -20.45 Q19.0 -20.5 18.7 -20.9 18.4 -21.25 18.4 -21.55 18.4 -22.6 18.8 -23.6 18.95 -24.25 19.3 -24.75 L19.6 -25.1 20.15 -25.8 Q20.8 -26.55 21.35 -26.85 21.4 -26.9 21.5 -26.9 L21.7 -27.1 21.7 -27.0 Q21.9 -26.95 21.9 -26.75 21.9 -24.8 21.5 -23.15 L21.45 -23.15 21.4 -23.15 21.4 -23.0 21.25 -23.0 21.2 -24.2 M12.25 -21.25 L12.5 -21.2 12.15 -21.5 11.85 -21.9 10.5 -21.75 10.4 -21.75 10.25 -21.55 11.75 -21.3 Q11.9 -21.4 12.15 -21.25 L12.25 -21.25 M15.05 -22.9 L15.5 -23.65 Q17.0 -25.8 17.4 -26.2 L15.45 -23.4 15.1 -22.75 15.05 -22.9 M15.4 -18.95 L15.5 -19.1 15.3 -19.3 15.25 -19.3 15.25 -19.35 15.2 -19.4 Q15.15 -19.6 15.05 -19.75 14.75 -20.15 14.15 -20.2 L14.05 -20.2 13.9 -20.3 13.9 -20.15 13.8 -20.05 Q13.6 -19.75 13.55 -19.45 L13.5 -19.35 Q13.4 -19.25 13.35 -19.15 L13.2 -19.35 13.2 -19.4 13.05 -19.55 12.85 -19.8 12.8 -19.9 12.75 -19.95 12.7 -19.95 12.65 -20.0 12.6 -20.1 Q12.25 -20.35 11.85 -20.5 L11.8 -20.5 11.7 -20.55 11.55 -20.6 11.3 -20.6 11.3 -20.45 11.25 -20.2 11.25 -20.1 10.85 -19.1 10.3 -17.7 Q10.2 -17.6 10.1 -17.35 L9.55 -16.15 9.5 -15.9 Q9.25 -15.45 9.25 -14.85 L9.25 -14.7 9.3 -14.6 9.4 -14.2 Q9.5 -13.9 9.7 -13.55 L9.8 -13.35 9.8 -13.3 9.85 -13.25 9.9 -13.15 10.4 -12.35 10.5 -12.25 Q10.55 -12.3 10.55 -12.2 L11.1 -11.6 Q11.65 -11.15 12.05 -10.85 L12.1 -10.85 13.45 -10.15 Q13.55 -10.05 13.65 -9.9 L13.7 -9.85 13.65 -9.8 13.7 -9.6 13.7 -9.55 13.7 -9.0 14.3 -9.2 14.7 -9.25 Q15.1 -9.5 15.6 -9.65 L15.6 -9.7 15.0 -9.75 Q14.75 -9.85 14.65 -9.85 L14.6 -9.9 Q14.75 -10.3 15.85 -10.95 L17.6 -12.0 Q17.9 -12.4 18.1 -12.85 18.7 -14.1 18.65 -15.75 18.6 -15.85 18.55 -15.95 L18.5 -15.85 Q18.45 -16.3 18.15 -16.45 L17.9 -16.65 Q17.15 -17.35 16.35 -17.2 16.15 -17.15 16.05 -17.05 L15.95 -16.9 15.9 -16.85 15.8 -16.75 15.75 -16.75 15.75 -16.85 15.85 -16.95 16.05 -17.2 16.15 -17.35 16.4 -17.45 16.45 -17.45 Q16.55 -17.45 16.6 -17.55 L16.75 -17.6 16.9 -17.6 16.75 -17.75 16.7 -17.75 16.7 -17.8 Q16.7 -18.1 15.95 -18.1 L15.6 -18.05 15.55 -18.05 Q15.45 -18.05 15.35 -18.1 L15.4 -18.2 15.3 -18.15 Q15.25 -18.2 15.2 -18.3 15.2 -18.4 15.2 -18.55 15.2 -18.7 15.4 -18.95 M11.25 -18.55 Q11.25 -18.75 11.35 -18.9 L11.35 -19.3 Q11.35 -19.5 11.5 -19.65 L11.6 -19.7 Q11.75 -19.85 11.95 -19.9 L12.1 -19.95 Q12.2 -19.95 12.35 -19.9 L12.4 -19.85 12.5 -19.8 12.55 -19.7 12.65 -19.65 12.65 -19.6 13.0 -18.9 Q13.1 -18.55 13.15 -18.25 L13.0 -17.8 13.0 -17.85 13.0 -17.9 12.85 -18.55 Q12.75 -19.1 12.4 -19.5 L12.15 -19.6 12.0 -19.6 Q11.7 -19.4 11.65 -19.15 L11.75 -19.1 Q11.95 -19.05 12.05 -18.85 12.3 -18.6 12.35 -18.25 L12.35 -17.65 Q12.25 -17.25 11.9 -17.25 L11.85 -17.25 Q11.95 -17.2 12.05 -17.15 L12.55 -17.0 Q11.6 -17.05 11.35 -17.55 11.3 -17.65 11.25 -17.9 11.25 -18.05 11.2 -18.25 11.2 -18.4 11.25 -18.55 M12.35 -16.7 L12.15 -16.6 Q11.85 -16.55 11.8 -16.65 L11.85 -16.7 12.4 -16.7 12.5 -16.75 12.35 -16.7 M13.1 -16.75 L13.3 -17.55 13.4 -17.9 13.45 -17.35 Q13.45 -17.05 13.35 -16.65 13.25 -16.35 13.25 -16.15 12.65 -15.0 12.05 -14.8 L12.4 -14.55 12.5 -14.45 12.95 -14.05 Q13.05 -14.0 12.85 -14.0 12.7 -14.0 12.55 -14.05 12.35 -14.15 12.1 -14.4 11.8 -14.7 11.8 -14.85 11.8 -14.95 12.35 -15.55 12.9 -16.25 13.05 -16.6 L13.1 -16.75 M12.35 -14.75 L12.35 -14.8 12.4 -14.75 12.35 -14.75 M12.55 -16.8 L12.55 -16.8 M15.85 -16.55 L15.85 -16.6 15.9 -16.6 15.95 -16.65 16.1 -16.7 16.45 -16.75 16.5 -16.7 Q17.2 -16.4 17.2 -15.5 L17.2 -15.2 17.1 -14.95 16.9 -14.75 16.75 -14.65 Q17.05 -14.4 17.45 -14.4 L17.75 -14.3 17.8 -14.3 18.0 -14.45 18.3 -14.65 18.35 -14.65 Q18.15 -14.4 17.95 -14.25 L17.85 -14.25 17.8 -14.25 17.45 -14.15 17.2 -14.15 16.95 -14.2 Q16.65 -14.25 16.45 -14.45 16.35 -14.55 16.25 -14.65 L16.2 -14.75 16.0 -14.85 15.75 -15.4 15.7 -15.45 15.65 -15.8 15.65 -16.0 15.7 -16.35 15.75 -16.45 15.85 -16.55 M18.4 -14.75 L18.45 -14.9 18.45 -15.0 18.45 -14.9 18.4 -14.75 M15.9 -14.0 Q15.5 -14.4 15.35 -14.9 L15.5 -14.7 15.65 -14.55 15.65 -14.5 15.9 -14.05 15.9 -14.0 M22.15 -20.85 Q22.25 -20.7 22.25 -20.35 L21.75 -19.1 21.7 -19.1 21.7 -19.05 Q21.65 -19.05 21.65 -19.2 21.65 -19.65 21.75 -19.95 21.95 -20.4 22.0 -20.85 L22.15 -20.85 M18.5 -16.2 L18.5 -16.2 M19.25 -14.45 L19.15 -14.45 Q19.15 -14.25 19.05 -13.9 L19.0 -13.9 Q18.85 -12.95 18.35 -12.25 L18.0 -11.85 Q17.6 -11.65 17.0 -11.3 15.4 -10.4 15.4 -10.25 L15.4 -10.15 15.35 -10.1 15.2 -10.05 15.35 -10.05 15.4 -10.1 15.45 -10.05 16.05 -10.05 Q16.25 -9.95 16.35 -9.85 16.7 -9.95 17.0 -10.1 L16.85 -9.9 16.75 -9.8 16.5 -9.65 15.35 -7.8 15.45 -7.8 15.4 -7.65 16.5 -8.2 16.5 -8.25 Q17.4 -8.7 17.7 -8.7 17.8 -8.7 17.9 -8.6 18.05 -8.55 18.2 -8.1 18.35 -7.7 18.55 -7.05 L18.8 -5.9 Q20.1 -7.7 20.85 -8.55 22.15 -10.1 22.15 -9.4 L22.1 -9.25 Q22.3 -9.2 22.8 -8.9 L23.15 -8.65 23.55 -8.45 23.35 -9.0 23.3 -8.95 22.4 -10.85 Q21.8 -12.1 21.35 -12.8 L19.9 -14.55 19.3 -15.4 19.25 -14.9 19.25 -14.45 M15.2 -10.05 L15.2 -10.05 M10.65 -22.15 L10.65 -22.15 M9.35 -16.75 L9.85 -18.0 10.95 -20.6 10.75 -20.55 10.6 -20.55 10.55 -20.65 10.45 -20.65 9.3 -20.15 Q8.95 -20.0 8.75 -19.9 L8.7 -19.85 7.75 -19.2 7.65 -19.1 7.7 -19.1 7.8 -19.1 8.85 -19.2 9.3 -19.3 9.1 -19.0 9.1 -18.9 8.95 -18.65 8.9 -18.5 8.6 -18.2 Q8.35 -17.55 7.15 -15.7 5.9 -13.8 5.25 -12.85 L5.2 -12.8 5.15 -12.7 5.25 -12.75 6.05 -13.0 6.15 -13.05 6.35 -13.1 7.15 -13.55 7.2 -13.55 7.3 -13.55 Q7.4 -13.7 7.45 -13.55 L7.5 -13.5 7.45 -13.45 7.5 -13.2 7.4 -12.85 7.4 -12.8 7.35 -12.5 Q7.35 -12.4 7.35 -12.45 L7.35 -12.5 Q7.6 -12.65 8.35 -12.85 L8.5 -12.9 8.45 -13.05 8.75 -13.0 8.85 -13.0 8.85 -12.95 Q9.05 -12.8 9.2 -12.55 9.5 -12.0 9.55 -12.0 9.7 -12.0 9.85 -12.05 9.25 -12.8 9.05 -13.15 8.75 -13.7 8.75 -14.6 8.75 -15.0 8.85 -15.2 8.95 -15.65 9.35 -16.75 M10.4 -17.8 L10.4 -17.85 10.35 -17.8 10.4 -17.8 M11.0 -13.6 Q11.2 -13.7 11.3 -13.65 11.4 -13.5 11.5 -13.35 12.05 -12.8 13.7 -12.8 L14.8 -13.0 15.7 -13.15 15.8 -13.15 15.85 -13.1 Q15.65 -12.9 14.75 -12.7 13.9 -12.5 13.2 -12.5 12.05 -12.5 11.45 -13.0 11.15 -13.2 11.0 -13.6 M6.7 -12.6 L6.7 -12.6 M10.6 -9.55 L10.55 -9.6 Q11.15 -9.95 11.65 -10.0 12.15 -10.05 12.7 -9.75 L12.6 -9.75 12.35 -9.8 10.95 -9.7 10.6 -9.55 M9.45 -7.2 Q10.45 -8.5 11.9 -9.0 L12.15 -9.15 12.3 -9.0 12.1 -8.9 11.2 -8.25 Q10.55 -7.75 10.15 -7.35 9.85 -6.95 9.5 -6.4 L9.2 -5.8 9.05 -5.4 8.75 -4.7 Q8.45 -3.8 8.45 -3.35 8.45 -3.3 8.5 -3.25 8.2 -2.1 8.15 -1.5 L8.15 -1.25 Q8.2 -1.05 8.3 -0.6 L8.35 -0.4 8.4 -0.5 Q8.4 -0.95 9.35 -2.75 10.05 -4.25 10.75 -5.0 L10.35 -4.9 9.95 -4.7 9.75 -4.7 Q9.7 -4.7 9.7 -4.85 L9.7 -4.9 Q9.9 -5.0 10.15 -5.25 10.15 -5.6 10.95 -6.7 L11.8 -7.8 Q12.15 -8.35 12.8 -8.65 L12.85 -8.75 Q13.0 -8.8 13.15 -8.85 L13.05 -9.2 Q12.9 -9.85 12.3 -10.1 11.9 -10.25 11.5 -10.55 L11.15 -10.45 Q10.65 -10.2 9.9 -10.0 L9.1 -9.8 9.15 -9.8 9.15 -9.65 Q8.95 -9.55 8.75 -9.4 8.3 -9.1 7.85 -8.55 7.25 -7.85 6.9 -7.0 6.65 -6.3 6.45 -5.45 6.4 -5.15 6.35 -4.8 7.05 -5.4 8.8 -6.15 9.1 -6.75 9.45 -7.2 M4.35 -12.6 L4.35 -12.6 M11.5 -6.8 Q11.35 -6.55 11.35 -6.3 L11.35 -6.25 10.85 -5.7 10.95 -5.8 Q11.15 -5.9 11.3 -5.9 L11.35 -5.9 Q11.55 -6.1 11.65 -6.15 L11.7 -6.1 Q11.75 -6.1 11.75 -5.95 L11.65 -5.6 11.6 -5.5 11.3 -4.5 Q10.8 -3.2 10.8 -2.0 L10.8 -1.8 10.9 -1.5 Q10.95 -1.1 11.1 -0.6 11.3 -0.05 11.65 1.0 L11.9 0.8 Q12.1 0.5 12.5 0.05 L14.2 -2.05 14.3 -2.15 14.3 -2.25 Q14.3 -3.05 15.05 -4.1 15.85 -5.15 16.75 -5.15 L16.75 -5.2 Q17.45 -5.95 17.9 -6.35 L17.9 -6.5 Q17.8 -7.1 17.7 -7.75 L17.7 -7.8 17.0 -7.5 Q15.8 -7.0 15.25 -6.9 L15.05 -6.75 14.9 -6.8 14.85 -6.8 14.85 -6.85 14.7 -6.85 Q14.65 -6.9 14.65 -7.15 L14.7 -7.4 14.75 -7.45 14.7 -7.45 14.7 -7.6 Q14.7 -7.8 15.2 -8.9 L14.5 -8.7 14.35 -8.55 Q13.6 -7.8 13.5 -7.0 13.5 -6.95 13.4 -6.9 L13.35 -6.95 Q13.3 -7.05 13.3 -7.2 13.3 -7.9 13.9 -8.55 12.4 -8.15 11.95 -7.5 L11.5 -6.8 M21.85 -12.9 Q22.55 -11.8 22.95 -11.35 L22.95 -11.25 Q23.0 -11.1 23.25 -11.1 L23.3 -11.1 Q23.45 -11.1 23.55 -11.3 23.6 -11.4 23.6 -11.55 L23.65 -11.65 22.85 -13.05 22.75 -13.0 Q22.5 -12.85 22.2 -12.85 L21.85 -12.9 M24.65 -2.55 L24.7 -2.95 Q24.7 -3.65 24.4 -4.55 L24.4 -4.6 24.35 -4.75 24.1 -5.3 24.15 -5.3 23.75 -6.1 23.15 -7.15 Q22.9 -7.65 22.9 -8.0 L22.9 -8.15 22.85 -8.15 21.8 -8.85 21.4 -8.3 21.0 -7.8 20.35 -7.0 19.35 -5.7 19.3 -5.55 19.15 -5.35 19.45 -4.8 Q20.6 -2.8 21.25 -0.85 21.45 -1.35 21.45 -2.1 21.5 -2.9 21.3 -3.7 L21.35 -3.8 Q21.4 -3.85 21.55 -3.85 21.9 -3.85 23.15 -1.45 L23.85 0.0 Q23.95 -0.5 24.2 -1.2 L24.5 -1.95 Q24.6 -2.3 24.65 -2.55 M12.15 -9.5 L12.1 -9.4 12.1 -9.45 12.15 -9.5 M32.45 -26.05 Q32.35 -26.05 30.0 -26.85 27.45 -27.7 25.4 -27.9 L26.2 -27.95 Q28.7 -27.85 30.25 -27.2 L31.4 -26.7 Q32.05 -26.4 32.7 -26.25 L32.7 -26.2 32.65 -26.1 32.45 -26.05" fill="#000000" fill-rule="evenodd" stroke="none"/>
    <path d="M22.4 -28.5 L22.65 -28.4 23.35 -28.3 23.35 -28.2 Q23.35 -28.25 23.45 -28.25 L23.6 -28.3 23.8 -28.25 Q23.85 -28.4 23.95 -28.35 L23.95 -28.1 Q23.95 -27.95 24.5 -25.85 24.9 -24.25 25.05 -23.5 L25.0 -23.2 25.1 -22.15 Q25.1 -21.35 24.55 -18.6 24.0 -15.9 23.85 -15.65 L23.7 -15.65 23.5 -15.4 Q23.15 -15.05 22.5 -15.05 L22.45 -15.05 Q22.45 -14.95 22.45 -15.0 L22.4 -15.05 22.35 -15.05 Q21.65 -15.1 21.25 -15.75 L21.2 -15.9 21.0 -16.15 Q20.5 -17.05 19.6 -18.05 L19.55 -18.1 Q19.7 -18.2 19.75 -18.45 L19.95 -19.0 Q19.8 -18.95 19.55 -18.6 19.45 -18.4 19.4 -18.25 L19.15 -18.5 18.3 -19.3 Q16.45 -21.2 15.7 -21.2 L15.7 -21.1 15.55 -21.2 Q14.1 -22.0 13.15 -22.15 12.8 -22.25 12.55 -22.15 L12.1 -22.25 12.4 -22.75 Q12.6 -23.15 12.55 -23.35 12.25 -23.25 12.05 -22.8 11.85 -22.45 11.85 -22.3 L11.1 -22.4 11.1 -22.45 10.9 -22.45 11.45 -23.25 12.2 -24.45 12.3 -24.5 12.25 -24.55 12.3 -24.55 12.45 -24.85 12.65 -25.05 Q12.6 -24.6 12.6 -24.25 12.6 -23.25 13.65 -23.25 13.9 -23.25 14.2 -23.65 14.45 -23.8 14.6 -24.1 L14.7 -24.25 Q14.9 -24.6 14.95 -25.0 L14.95 -25.1 14.9 -25.25 15.0 -25.1 15.1 -25.25 Q15.05 -25.7 15.0 -27.2 15.3 -27.4 15.55 -27.55 16.15 -27.9 16.8 -28.2 L17.4 -28.4 17.05 -28.2 Q16.5 -27.85 16.05 -27.45 15.65 -27.05 15.65 -26.85 15.65 -26.7 15.7 -26.65 15.75 -26.6 15.85 -26.6 L16.4 -27.05 17.1 -27.65 Q17.15 -27.7 18.15 -28.0 18.95 -28.3 19.1 -28.65 L19.05 -28.7 20.1 -28.8 Q19.8 -28.6 19.0 -28.05 18.05 -27.3 17.8 -27.0 L17.85 -26.95 Q19.75 -28.45 20.25 -28.75 L20.25 -28.8 20.55 -28.8 20.55 -28.65 20.65 -28.65 20.75 -28.8 21.65 -28.9 21.95 -29.15 Q21.9 -29.0 21.9 -28.85 21.9 -28.7 21.9 -28.65 22.0 -28.5 22.4 -28.5 M20.25 -28.5 L20.2 -28.4 20.3 -28.45 20.3 -28.5 20.25 -28.5 M21.45 -23.15 L21.5 -23.15 Q21.9 -24.8 21.9 -26.75 21.9 -26.95 21.7 -27.0 L21.7 -27.1 21.5 -26.9 Q21.4 -26.9 21.35 -26.85 20.8 -26.55 20.15 -25.8 L19.6 -25.1 19.3 -24.75 Q18.95 -24.25 18.8 -23.6 18.4 -22.6 18.4 -21.55 18.4 -21.25 18.7 -20.9 19.0 -20.5 19.35 -20.45 L20.65 -20.45 20.8 -20.55 Q20.95 -20.7 20.95 -20.8 20.95 -20.95 20.85 -20.95 L20.85 -21.05 20.9 -21.6 20.85 -21.6 21.0 -21.9 Q21.4 -22.75 21.45 -23.15 M17.35 -21.45 Q17.45 -21.55 17.5 -21.7 17.4 -21.95 17.3 -22.1 17.1 -22.05 16.9 -21.8 16.8 -21.65 16.7 -21.5 16.8 -21.4 16.9 -21.35 L17.05 -21.3 Q17.25 -21.35 17.35 -21.45 M18.0 -23.25 Q17.9 -23.5 17.8 -23.65 17.45 -23.65 17.2 -23.2 17.25 -23.1 17.4 -23.0 L17.55 -22.95 Q17.85 -23.05 18.0 -23.25 M18.1 -25.3 Q18.1 -25.6 18.0 -25.6 L17.95 -25.55 Q17.05 -25.15 16.3 -24.05 15.7 -23.1 15.5 -22.1 L15.55 -21.6 15.65 -21.65 15.6 -21.75 15.65 -21.9 15.95 -21.9 Q16.5 -22.45 17.25 -23.6 18.1 -25.05 18.1 -25.3 M15.05 -22.9 L15.1 -22.75 15.45 -23.4 17.4 -26.2 Q17.0 -25.8 15.5 -23.65 L15.05 -22.9 M22.15 -20.85 L22.0 -20.85 Q21.95 -20.4 21.75 -19.95 21.65 -19.65 21.65 -19.2 21.65 -19.05 21.7 -19.05 L21.7 -19.1 21.75 -19.1 22.25 -20.35 Q22.25 -20.7 22.15 -20.85 M22.85 -20.65 L22.5 -19.45 Q22.3 -18.75 22.3 -18.2 22.3 -18.1 22.55 -17.9 23.35 -19.7 23.45 -20.15 23.5 -20.45 23.5 -22.0 L23.5 -23.3 Q23.35 -24.1 22.9 -23.85 23.25 -22.2 22.85 -20.65 M24.5 -21.75 L24.25 -21.8 24.15 -21.75 Q24.1 -21.8 24.1 -21.55 24.1 -21.4 24.15 -21.35 L24.3 -21.3 24.6 -21.4 24.6 -21.6 24.5 -21.75" fill="#c07129" fill-rule="evenodd" stroke="none"/>
    <path d="M25.2 -3.5 L25.25 -3.05 25.25 -3.0 25.2 -2.8 25.15 -3.5 25.2 -3.5 M24.5 -0.45 L24.1 0.5 24.05 0.4 24.5 -0.45 M11.05 1.05 L11.05 1.1 Q10.75 0.75 10.6 -0.15 10.8 0.6 11.0 1.0 L11.05 1.0 11.05 1.05 M10.2 -2.4 Q9.55 -1.15 9.1 -0.8 L9.3 -1.1 9.85 -1.85 10.2 -2.4 M16.8 -28.2 L17.2 -28.4 17.5 -28.45 17.4 -28.4 16.8 -28.2 M8.75 -9.4 Q8.95 -9.55 9.15 -9.65 L9.15 -9.8 9.1 -9.8 9.9 -10.0 Q10.65 -10.2 11.15 -10.45 L11.5 -10.55 Q11.9 -10.25 12.3 -10.1 12.9 -9.85 13.05 -9.2 L13.15 -8.85 Q13.0 -8.8 12.85 -8.75 L12.8 -8.65 Q12.15 -8.35 11.8 -7.8 L10.95 -6.7 Q10.15 -5.6 10.15 -5.25 9.9 -5.0 9.7 -4.9 L9.7 -4.85 Q9.7 -4.7 9.75 -4.7 L9.95 -4.7 10.35 -4.9 10.75 -5.0 Q10.05 -4.25 9.35 -2.75 8.4 -0.95 8.4 -0.5 L8.35 -0.4 8.3 -0.6 Q8.2 -1.05 8.15 -1.25 L8.15 -1.5 Q8.2 -2.1 8.5 -3.25 8.45 -3.3 8.45 -3.35 8.45 -3.8 8.75 -4.7 L9.05 -5.4 9.2 -5.8 9.5 -6.4 Q9.85 -6.95 10.15 -7.35 10.55 -7.75 11.2 -8.25 L12.1 -8.9 12.3 -9.0 12.15 -9.15 11.9 -9.0 Q10.45 -8.5 9.45 -7.2 L9.4 -7.15 Q7.8 -6.35 6.45 -5.45 6.65 -6.3 6.9 -7.0 7.75 -7.0 8.4 -7.8 8.95 -8.5 8.95 -9.05 8.95 -9.3 8.75 -9.4 M10.6 -9.55 L10.95 -9.7 12.35 -9.8 12.6 -9.75 12.7 -9.75 Q12.15 -10.05 11.65 -10.0 11.15 -9.95 10.55 -9.6 L10.6 -9.55 M11.5 -6.8 L11.95 -7.5 Q12.4 -8.15 13.9 -8.55 13.3 -7.9 13.3 -7.2 13.3 -7.05 13.35 -6.95 L13.4 -6.9 Q13.5 -6.95 13.5 -7.0 13.6 -7.8 14.35 -8.55 L14.5 -8.7 15.2 -8.9 Q14.7 -7.8 14.7 -7.6 L14.7 -7.45 14.75 -7.45 14.7 -7.4 14.65 -7.15 Q14.65 -6.9 14.7 -6.85 L14.85 -6.85 14.85 -6.8 14.9 -6.8 15.05 -6.75 15.25 -6.9 Q15.8 -7.0 17.0 -7.5 L17.7 -7.8 17.7 -7.75 Q17.8 -7.1 17.9 -6.5 L17.9 -6.35 Q17.45 -5.95 16.75 -5.2 L16.75 -5.15 Q15.85 -5.15 15.05 -4.1 14.3 -3.05 14.3 -2.25 L14.3 -2.15 14.2 -2.05 12.5 0.05 Q12.1 0.5 11.9 0.8 L11.65 1.0 Q11.3 -0.05 11.1 -0.6 10.95 -1.1 10.9 -1.5 L10.8 -1.8 10.8 -2.0 Q10.8 -3.2 11.3 -4.5 L11.6 -5.5 11.65 -5.6 11.75 -5.95 Q11.75 -6.1 11.7 -6.1 L11.65 -6.15 Q11.55 -6.1 11.35 -5.9 L11.3 -5.9 Q11.15 -5.9 10.95 -5.8 L10.85 -5.7 11.35 -6.25 11.35 -6.3 Q11.35 -6.55 11.5 -6.8 M9.15 -3.95 L9.05 -3.95 8.8 -3.3 8.85 -3.25 9.15 -3.2 9.4 -3.25 9.55 -3.6 Q9.35 -3.9 9.15 -3.95 M19.3 -5.55 L19.35 -5.7 20.35 -7.0 21.0 -7.8 21.4 -8.3 21.8 -8.85 22.85 -8.15 22.9 -8.15 22.9 -8.0 Q22.9 -7.65 23.15 -7.15 L23.75 -6.1 24.15 -5.3 24.1 -5.3 24.35 -4.75 24.4 -4.6 24.4 -4.55 Q24.7 -3.65 24.7 -2.95 L24.65 -2.55 24.5 -2.15 24.45 -2.0 24.5 -1.95 24.2 -1.2 Q23.95 -0.5 23.85 0.0 L23.15 -1.45 Q21.9 -3.85 21.55 -3.85 21.4 -3.85 21.35 -3.8 L21.3 -3.7 Q21.5 -2.9 21.45 -2.1 21.45 -1.35 21.25 -0.85 20.6 -2.8 19.45 -4.8 L19.15 -5.35 19.3 -5.55 M22.3 -7.5 Q21.9 -7.45 21.9 -7.15 21.85 -7.05 21.9 -6.95 21.95 -6.8 22.2 -6.8 22.35 -6.8 22.5 -6.9 22.75 -7.05 22.75 -7.2 22.75 -7.55 22.3 -7.5 M12.15 -9.5 L12.1 -9.45 12.1 -9.4 12.15 -9.5 M22.55 -4.1 L22.6 -3.75 Q22.85 -3.4 23.65 -3.4 L24.25 -3.4 Q24.2 -3.95 23.95 -4.65 L23.4 -4.65 23.0 -4.55 Q22.55 -4.4 22.55 -4.1 M21.1 -6.2 L21.1 -6.25 Q20.85 -6.2 20.75 -6.1 20.65 -6.05 20.65 -6.0 L20.85 -5.8 Q20.95 -5.8 21.05 -5.9 21.1 -6.0 21.1 -6.05 L21.1 -6.2 M22.45 -6.25 Q22.1 -6.15 21.8 -5.9 21.5 -5.65 21.5 -5.35 L21.55 -5.15 Q21.65 -4.95 22.05 -4.95 22.6 -4.95 23.05 -5.3 23.45 -5.55 23.45 -5.75 23.45 -6.1 23.15 -6.25 22.85 -6.35 22.45 -6.25 M12.45 -2.05 Q12.0 -2.2 11.8 -2.0 11.65 -1.85 11.65 -1.6 11.65 -1.35 11.75 -1.25 L12.1 -1.15 Q12.55 -1.55 12.65 -1.8 L12.45 -2.05 M12.85 -4.0 L12.15 -3.95 Q11.8 -3.85 11.8 -3.55 11.8 -3.35 12.25 -3.05 12.8 -2.65 13.45 -2.7 13.6 -2.65 13.75 -2.8 13.9 -2.9 13.9 -3.15 13.9 -3.8 12.85 -4.0 M15.1 -4.5 Q15.2 -4.65 15.3 -4.9 14.3 -5.8 13.25 -5.95 12.2 -6.1 12.2 -5.4 12.2 -5.1 12.55 -4.8 13.1 -4.3 14.5 -4.3 14.95 -4.3 15.1 -4.5 M23.7 -2.2 L23.7 -2.05 Q23.8 -1.85 24.0 -1.85 24.15 -1.85 24.3 -2.0 24.35 -2.1 24.35 -2.2 24.35 -2.6 24.05 -2.55 23.7 -2.5 23.7 -2.2" fill="#5a6d1b" fill-rule="evenodd" stroke="none"/>
    <path d="M13.4 -23.55 L13.15 -23.5 Q13.05 -23.5 12.95 -23.8 12.85 -24.05 12.85 -24.25 L12.85 -24.35 12.95 -24.05 Q13.0 -24.1 13.0 -24.15 13.25 -25.75 13.4 -26.4 L13.4 -26.5 13.65 -27.0 Q14.1 -28.05 14.45 -28.6 L14.5 -28.7 14.55 -28.65 14.65 -26.95 14.65 -26.3 14.55 -26.4 Q14.3 -26.2 13.85 -25.0 13.4 -23.85 13.4 -23.6 L13.4 -23.55 M19.0 -21.45 L18.95 -21.65 Q18.95 -21.8 18.9 -21.95 19.0 -22.95 19.45 -23.95 20.1 -25.4 21.3 -26.3 21.2 -25.35 21.2 -24.2 20.85 -24.15 20.45 -23.85 L19.95 -22.7 Q19.3 -21.4 19.25 -21.4 19.1 -21.4 19.0 -21.45" fill="#b18d56" fill-rule="evenodd" stroke="none"/>
    <path d="M15.25 -19.35 Q15.35 -19.15 15.4 -18.95 15.2 -18.7 15.2 -18.55 15.2 -18.4 15.2 -18.3 15.25 -18.2 15.3 -18.15 15.0 -18.0 14.5 -17.2 13.9 -16.3 13.9 -16.1 13.9 -16.0 14.05 -15.85 L14.2 -15.85 14.4 -16.35 Q14.5 -16.1 14.8 -15.7 L14.8 -15.45 14.85 -15.3 15.0 -15.1 Q15.45 -14.5 15.75 -13.75 15.8 -13.9 15.9 -14.0 L15.9 -14.05 Q16.05 -14.25 16.35 -14.4 L16.45 -14.45 Q16.65 -14.25 16.95 -14.2 L17.2 -14.15 17.45 -14.15 17.7 -14.1 17.85 -14.25 17.95 -14.25 Q18.15 -14.4 18.35 -14.65 L18.3 -14.65 18.4 -14.75 18.45 -14.9 18.45 -15.0 18.5 -15.6 18.5 -15.85 18.55 -15.95 Q18.6 -15.85 18.65 -15.75 18.7 -14.1 18.1 -12.85 17.9 -12.4 17.6 -12.0 L15.85 -10.95 Q14.75 -10.3 14.6 -9.9 L14.65 -9.85 Q14.05 -9.6 13.7 -9.6 L13.65 -9.8 13.7 -9.85 13.65 -9.9 Q13.55 -10.05 13.45 -10.15 L12.1 -10.85 12.05 -10.85 Q11.65 -11.15 11.1 -11.6 L10.55 -12.2 Q10.55 -12.3 10.5 -12.25 L10.4 -12.35 9.9 -13.15 9.85 -13.25 9.8 -13.3 9.8 -13.35 9.7 -13.55 Q9.5 -13.9 9.4 -14.2 L9.3 -14.6 9.25 -14.7 9.25 -14.85 Q9.25 -15.45 9.5 -15.9 L9.55 -16.15 10.1 -17.35 Q10.2 -17.6 10.3 -17.7 L10.85 -19.1 10.85 -18.9 Q10.85 -18.75 10.85 -18.6 10.9 -18.3 11.15 -18.3 L11.25 -18.55 Q11.2 -18.4 11.2 -18.25 11.25 -18.05 11.25 -17.9 11.3 -17.65 11.35 -17.55 11.6 -17.05 12.55 -17.0 L12.05 -17.15 12.3 -17.1 Q12.5 -17.1 12.65 -17.2 L12.6 -17.05 12.6 -16.8 12.35 -16.7 12.5 -16.75 12.4 -16.7 11.85 -16.7 11.8 -16.65 Q11.85 -16.55 12.15 -16.6 L12.0 -16.5 11.65 -16.25 11.6 -15.9 11.7 -15.85 Q11.9 -15.75 11.95 -15.75 12.3 -15.75 12.5 -16.0 12.7 -16.25 12.7 -16.5 L12.7 -16.75 12.9 -16.65 13.1 -16.75 13.05 -16.6 Q12.9 -16.25 12.35 -15.55 11.8 -14.95 11.8 -14.85 11.8 -14.7 12.1 -14.4 12.35 -14.15 12.55 -14.05 12.7 -13.95 12.9 -13.95 13.1 -13.95 13.2 -14.1 13.3 -14.25 13.3 -14.4 13.3 -14.75 12.8 -15.0 12.45 -15.15 12.35 -14.8 L12.35 -14.75 12.4 -14.55 12.05 -14.8 Q12.65 -15.0 13.25 -16.15 13.25 -16.35 13.35 -16.65 13.45 -17.05 13.45 -17.35 L13.4 -17.9 13.4 -18.05 13.3 -18.6 Q13.3 -18.85 13.4 -18.9 L13.35 -18.9 13.35 -19.15 Q13.4 -19.25 13.5 -19.35 L13.55 -19.45 Q13.6 -19.75 13.8 -20.05 L13.9 -20.15 Q13.95 -20.2 14.0 -20.2 L14.05 -20.2 14.15 -20.2 Q14.75 -20.15 15.05 -19.75 15.15 -19.6 15.2 -19.4 L15.25 -19.35 M16.05 -17.2 L15.85 -16.95 15.9 -17.1 15.85 -17.05 15.95 -17.2 16.05 -17.2 M15.8 -16.75 L15.9 -16.85 Q15.85 -16.7 15.85 -16.55 L15.75 -16.45 15.8 -16.75 M14.3 -9.2 L13.7 -9.0 13.7 -9.55 Q13.85 -9.35 14.3 -9.2 M12.65 -20.0 L12.7 -19.95 12.65 -20.0 M14.15 -19.1 L14.25 -19.05 14.2 -19.1 14.15 -19.1 M12.55 -16.8 L12.55 -16.8 M15.65 -15.8 L15.7 -15.45 15.65 -15.65 15.65 -15.8 M15.2 -10.05 L15.2 -10.05 M10.4 -17.8 L10.35 -17.8 10.4 -17.85 10.4 -17.8 M11.0 -13.6 Q11.15 -13.2 11.45 -13.0 12.05 -12.5 13.2 -12.5 13.9 -12.5 14.75 -12.7 15.65 -12.9 15.85 -13.1 L15.8 -13.15 15.7 -13.15 14.8 -13.0 13.7 -12.8 Q12.05 -12.8 11.5 -13.35 11.4 -13.5 11.3 -13.65 11.2 -13.7 11.0 -13.6" fill="#dae399" fill-rule="evenodd" stroke="none"/>
    <path d="M19.25 -14.45 L19.25 -14.9 19.3 -15.4 19.9 -14.55 21.35 -12.8 Q21.8 -12.1 22.4 -10.85 L23.3 -8.95 23.35 -9.0 23.55 -8.45 23.15 -8.65 22.8 -8.9 Q22.3 -9.2 22.1 -9.25 L22.15 -9.4 Q22.15 -10.1 20.85 -8.55 20.1 -7.7 18.8 -5.9 L18.55 -7.05 Q18.35 -7.7 18.2 -8.1 18.05 -8.55 17.9 -8.6 17.8 -8.7 17.7 -8.7 17.4 -8.7 16.5 -8.25 L16.8 -8.7 16.95 -8.7 Q18.0 -8.7 19.0 -11.1 L19.05 -11.3 18.85 -10.25 Q18.65 -8.95 18.65 -8.55 18.6 -8.35 18.65 -8.15 18.7 -7.7 19.05 -7.7 19.2 -7.7 19.6 -10.3 20.0 -12.75 20.0 -12.95 20.0 -13.9 19.75 -13.85 L19.75 -14.25 Q19.65 -14.5 19.25 -14.45 M9.35 -16.75 Q8.95 -15.65 8.85 -15.2 8.75 -15.0 8.75 -14.6 8.75 -13.7 9.05 -13.15 9.25 -12.8 9.85 -12.05 9.7 -12.0 9.55 -12.0 9.5 -12.0 9.2 -12.55 9.05 -12.8 8.85 -12.95 L8.85 -13.0 8.75 -13.0 8.45 -13.05 8.5 -12.9 8.35 -12.85 Q7.6 -12.65 7.35 -12.5 L7.35 -12.45 Q7.35 -12.4 7.35 -12.5 L7.4 -12.8 7.4 -12.85 7.5 -13.2 7.45 -13.45 7.5 -13.5 7.45 -13.55 Q7.4 -13.7 7.3 -13.55 L7.2 -13.55 Q7.9 -14.35 8.8 -15.8 L9.35 -16.75 M5.25 -12.75 L5.15 -12.7 5.2 -12.8 5.25 -12.85 5.25 -12.75 M7.7 -19.1 L7.65 -19.1 7.7 -19.1 M8.6 -14.15 L8.45 -14.2 Q8.15 -14.1 7.85 -13.65 7.6 -13.25 7.6 -13.1 7.6 -12.85 7.7 -12.85 L7.75 -12.9 Q8.05 -13.05 8.35 -13.35 8.65 -13.7 8.65 -13.9 8.65 -14.15 8.6 -14.15" fill="#5b7686" fill-rule="evenodd" stroke="none"/>
    <path d="M15.9 -16.85 L15.95 -16.9 16.05 -17.05 Q16.15 -17.15 16.35 -17.2 17.15 -17.35 17.9 -16.65 L18.15 -16.45 Q18.45 -16.3 18.5 -15.85 L18.5 -15.6 18.45 -15.0 18.45 -14.9 18.4 -14.75 18.3 -14.65 18.0 -14.45 17.8 -14.3 17.75 -14.3 17.45 -14.4 Q17.05 -14.4 16.75 -14.65 L16.9 -14.75 17.1 -14.95 17.2 -15.2 17.2 -15.5 Q17.2 -16.4 16.5 -16.7 L16.45 -16.75 16.1 -16.7 15.95 -16.65 15.9 -16.6 15.85 -16.6 15.85 -16.55 Q15.85 -16.7 15.9 -16.85 M12.05 -17.15 Q11.95 -17.2 11.85 -17.25 L11.9 -17.25 Q12.25 -17.25 12.35 -17.65 L12.35 -18.25 Q12.3 -18.6 12.05 -18.85 11.95 -19.05 11.75 -19.1 L11.65 -19.15 Q11.7 -19.4 12.0 -19.6 L12.15 -19.6 12.4 -19.5 Q12.75 -19.1 12.85 -18.55 L13.0 -17.9 13.0 -17.85 12.9 -17.65 12.85 -17.5 12.75 -17.3 12.65 -17.2 Q12.5 -17.1 12.3 -17.1 L12.05 -17.15" fill="#ffffb3" fill-rule="evenodd" stroke="none"/>
    <path d="M8.45 -18.7 L8.45 -18.65 8.0 -18.65 8.1 -18.7 8.45 -18.7 M29.4 -44.4 L29.7 -44.7 29.75 -44.25 Q29.6 -44.35 29.4 -44.4 M30.65 -39.45 L30.65 -39.4 Q30.75 -38.55 30.75 -37.7 30.75 -37.15 30.75 -36.65 30.6 -36.05 30.35 -35.35 29.9 -34.05 29.25 -32.95 29.0 -32.6 28.55 -32.1 28.2 -31.6 27.35 -31.0 L26.9 -30.65 26.25 -30.2 Q25.7 -29.95 25.1 -29.65 L24.85 -29.5 Q24.05 -29.0 23.7 -29.0 L23.55 -29.0 23.45 -28.95 Q23.4 -29.55 22.65 -29.45 22.3 -29.4 22.1 -29.25 22.3 -29.5 22.4 -29.8 L22.5 -30.0 22.5 -30.4 22.6 -30.3 22.85 -30.4 Q23.0 -33.45 24.4 -36.6 26.0 -40.05 28.7 -42.7 28.9 -41.5 29.1 -40.65 29.5 -39.05 30.2 -39.05 30.35 -39.05 30.6 -39.35 L30.65 -39.45 M22.25 -32.95 L22.1 -33.7 Q22.55 -35.15 23.1 -36.6 L23.3 -37.2 Q23.7 -38.35 24.4 -39.45 L24.95 -40.05 Q24.1 -38.6 23.45 -36.9 22.55 -34.65 22.25 -32.95 M28.9 -39.8 Q28.9 -40.4 28.75 -40.7 L28.7 -40.7 Q28.75 -39.6 28.55 -38.0 L28.1 -35.25 Q27.95 -34.3 25.6 -32.45 23.15 -30.55 22.85 -29.65 24.85 -31.15 25.6 -31.75 26.8 -32.8 27.5 -33.8 28.95 -35.9 28.9 -39.8 M27.45 -33.3 L26.5 -32.05 Q26.5 -31.45 27.05 -31.45 27.4 -31.45 28.4 -32.75 29.3 -34.0 29.3 -34.15 29.3 -34.4 29.25 -34.45 L29.2 -34.55 Q28.55 -34.5 27.45 -33.3 M27.15 -37.4 L27.05 -37.65 Q26.9 -37.8 26.8 -37.85 26.65 -37.8 26.55 -37.65 26.45 -37.45 26.45 -37.25 26.55 -37.2 26.7 -37.15 26.75 -37.1 26.8 -37.1 27.05 -37.2 27.15 -37.4 M25.3 -36.95 Q25.3 -36.9 25.4 -36.8 L25.8 -36.4 Q25.95 -36.45 26.15 -36.65 26.35 -36.9 26.35 -37.05 26.35 -37.35 26.25 -37.4 L26.2 -37.4 Q25.3 -37.75 25.3 -36.95 M28.45 -28.55 L28.75 -28.6 29.55 -28.65 32.25 -28.7 34.1 -28.35 Q35.35 -28.05 36.85 -27.6 L37.95 -27.25 39.95 -26.4 39.5 -25.6 Q39.05 -24.7 38.75 -24.35 38.35 -23.9 37.95 -23.55 L37.5 -24.0 Q35.55 -23.65 34.95 -23.6 32.25 -23.6 31.7 -23.65 29.85 -23.85 29.2 -24.75 L28.55 -25.45 Q28.05 -26.0 27.85 -26.25 L32.95 -25.4 Q33.2 -25.4 33.35 -25.5 33.65 -25.65 33.65 -26.05 33.65 -26.4 33.05 -26.65 32.4 -26.95 31.3 -27.15 30.1 -27.3 30.1 -27.85 30.1 -28.15 30.1 -28.25 30.0 -28.4 29.6 -28.45 L28.45 -28.55 M10.85 -33.4 L9.9 -33.0 Q9.25 -32.7 8.6 -32.3 L7.9 -31.85 7.9 -31.9 8.5 -33.15 Q9.1 -34.2 9.85 -35.0 12.1 -37.4 15.7 -37.4 17.2 -37.45 17.75 -37.1 L18.05 -36.85 Q18.25 -36.7 18.45 -36.65 18.65 -36.65 18.8 -37.0 L18.85 -37.1 18.95 -37.0 19.25 -36.4 19.4 -36.0 19.7 -34.9 19.8 -34.55 19.95 -33.4 20.05 -33.15 20.0 -33.2 19.8 -33.15 19.75 -33.1 19.65 -33.4 19.5 -33.35 19.6 -33.1 19.5 -33.2 19.35 -33.65 Q18.9 -33.8 18.35 -33.85 17.15 -33.9 15.55 -33.55 L15.5 -33.65 Q15.35 -33.8 15.05 -33.9 14.9 -34.55 14.0 -34.5 13.05 -34.5 11.7 -33.85 11.25 -33.65 10.85 -33.4 M21.15 -29.3 L20.85 -29.3 20.8 -29.4 20.8 -29.9 Q20.95 -29.5 21.15 -29.3 M10.85 -34.95 Q9.15 -33.75 8.85 -32.75 10.2 -34.4 10.8 -34.8 12.55 -36.05 15.4 -36.1 L17.3 -35.95 Q16.75 -36.15 16.5 -36.2 16.25 -36.25 14.7 -36.2 12.75 -36.25 10.85 -34.95 M16.15 -35.35 L15.9 -35.4 Q15.65 -35.45 15.45 -35.3 15.25 -35.1 15.25 -34.9 L15.7 -34.45 Q16.25 -34.8 16.2 -35.1 16.2 -35.35 16.15 -35.35 M6.8 -18.2 L6.8 -18.2 M35.5 -24.8 L35.55 -25.15 35.5 -25.35 35.5 -25.55 34.7 -25.6 34.35 -25.55 34.3 -25.4 34.3 -25.15 Q34.3 -24.9 34.35 -24.85 L34.4 -24.8 34.5 -24.75 34.95 -24.7 35.35 -24.75 35.5 -24.8" fill="#91ae28" fill-rule="evenodd" stroke="none"/>
    <path d="M14.65 -33.3 L14.55 -33.45 14.65 -33.5 14.7 -33.35 14.65 -33.3 M29.4 -44.4 Q29.6 -44.35 29.75 -44.25 29.95 -42.55 30.35 -40.9 L30.55 -39.95 30.55 -39.85 30.6 -39.6 30.65 -39.45 30.6 -39.35 Q30.35 -39.05 30.2 -39.05 29.5 -39.05 29.1 -40.65 28.9 -41.5 28.7 -42.7 26.0 -40.05 24.4 -36.6 23.0 -33.45 22.85 -30.4 L22.6 -30.3 22.5 -30.4 Q22.6 -30.7 22.55 -31.25 22.6 -31.85 22.25 -32.95 22.55 -34.65 23.45 -36.9 24.1 -38.6 24.95 -40.05 25.5 -40.75 26.2 -41.45 27.8 -43.05 29.4 -44.4 M23.45 -28.95 Q23.45 -28.8 23.2 -28.7 L23.0 -28.6 22.45 -28.5 22.4 -28.5 Q22.0 -28.5 21.9 -28.65 21.9 -28.7 21.9 -28.85 21.9 -29.0 21.95 -29.15 L22.1 -29.25 Q22.3 -29.4 22.65 -29.45 23.4 -29.55 23.45 -28.95 M25.3 -36.95 Q25.3 -37.75 26.2 -37.4 L26.25 -37.4 Q26.35 -37.35 26.35 -37.05 26.35 -36.9 26.15 -36.65 25.95 -36.45 25.8 -36.4 L25.4 -36.8 Q25.3 -36.9 25.3 -36.95 M27.15 -37.4 Q27.05 -37.2 26.8 -37.1 26.75 -37.1 26.7 -37.15 26.55 -37.2 26.45 -37.25 26.45 -37.45 26.55 -37.65 26.65 -37.8 26.8 -37.85 26.9 -37.8 27.05 -37.65 L27.15 -37.4 M27.45 -33.3 Q28.55 -34.5 29.2 -34.55 L29.25 -34.45 Q29.3 -34.4 29.3 -34.15 29.3 -34.0 28.4 -32.75 27.4 -31.45 27.05 -31.45 26.5 -31.45 26.5 -32.05 L27.45 -33.3 M28.45 -28.55 L29.6 -28.45 Q30.0 -28.4 30.1 -28.25 30.1 -28.15 30.1 -27.85 30.1 -27.3 31.3 -27.15 32.4 -26.95 33.05 -26.65 33.65 -26.4 33.65 -26.05 33.65 -25.65 33.35 -25.5 33.2 -25.4 32.95 -25.4 L27.85 -26.25 Q28.05 -26.0 28.55 -25.45 L29.2 -24.75 Q29.85 -23.85 31.7 -23.65 32.25 -23.6 34.95 -23.6 35.55 -23.65 37.5 -24.0 L37.95 -23.55 Q37.6 -23.2 37.2 -22.95 37.0 -22.9 36.95 -22.8 L36.5 -22.6 36.3 -22.55 36.0 -22.55 35.8 -22.5 34.25 -22.5 Q31.75 -22.6 29.8 -23.3 28.6 -23.95 27.35 -24.95 L26.95 -25.5 25.0 -27.9 24.9 -28.1 25.55 -28.1 Q26.6 -28.1 28.0 -28.45 L28.45 -28.55 M10.85 -33.4 Q10.05 -32.9 9.4 -32.3 8.45 -31.35 8.35 -30.55 L7.7 -30.1 Q7.15 -29.7 6.75 -29.35 6.05 -28.85 5.7 -28.4 L6.15 -29.75 Q7.0 -32.1 7.3 -33.15 L7.35 -33.3 7.35 -33.35 7.4 -33.5 7.6 -33.9 7.85 -34.25 7.9 -34.35 7.9 -34.4 7.95 -34.4 8.45 -35.05 8.45 -35.1 8.5 -35.1 8.55 -35.2 9.65 -36.2 9.8 -36.3 9.95 -36.45 10.0 -36.45 10.1 -36.55 10.15 -36.55 10.25 -36.65 10.4 -36.75 11.05 -37.15 Q15.95 -39.45 18.15 -37.85 L18.4 -37.6 18.45 -37.6 18.8 -37.15 18.85 -37.1 18.8 -37.0 Q18.65 -36.65 18.45 -36.65 18.25 -36.7 18.05 -36.85 L17.75 -37.1 Q17.2 -37.45 15.7 -37.4 12.1 -37.4 9.85 -35.0 9.1 -34.2 8.5 -33.15 L7.9 -31.9 7.9 -31.85 8.6 -32.3 Q9.25 -32.7 9.9 -33.0 L10.85 -33.4 M20.05 -33.15 L20.4 -32.0 20.35 -31.8 20.5 -31.9 20.8 -30.8 Q21.05 -29.9 21.3 -29.3 L21.15 -29.3 Q20.95 -29.5 20.8 -29.9 L20.75 -29.95 Q20.5 -31.05 20.35 -31.55 L20.25 -31.7 20.25 -31.75 20.05 -32.05 19.75 -33.1 19.8 -33.15 20.0 -33.2 20.05 -33.15 M15.55 -33.55 L15.0 -33.4 15.05 -33.7 15.05 -33.9 Q15.35 -33.8 15.5 -33.65 L15.55 -33.55 M16.15 -35.35 Q16.2 -35.35 16.2 -35.1 16.25 -34.8 15.7 -34.45 L15.25 -34.9 Q15.25 -35.1 15.45 -35.3 15.65 -35.45 15.9 -35.4 L16.15 -35.35 M8.75 -9.4 Q8.95 -9.3 8.95 -9.05 8.95 -8.5 8.4 -7.8 7.75 -7.0 6.9 -7.0 7.25 -7.85 7.85 -8.55 8.3 -9.1 8.75 -9.4 M6.45 -5.45 Q7.8 -6.35 9.4 -7.15 L9.45 -7.2 Q9.1 -6.75 8.8 -6.15 7.05 -5.4 6.35 -4.8 6.4 -5.15 6.45 -5.45 M9.15 -3.95 Q9.35 -3.9 9.55 -3.6 L9.4 -3.25 9.15 -3.2 8.85 -3.25 8.8 -3.3 9.05 -3.95 9.15 -3.95 M22.3 -7.5 Q22.75 -7.55 22.75 -7.2 22.75 -7.05 22.5 -6.9 22.35 -6.8 22.2 -6.8 21.95 -6.8 21.9 -6.95 21.85 -7.05 21.9 -7.15 21.9 -7.45 22.3 -7.5 M15.1 -4.5 Q14.95 -4.3 14.5 -4.3 13.1 -4.3 12.55 -4.8 12.2 -5.1 12.2 -5.4 12.2 -6.1 13.25 -5.95 14.3 -5.8 15.3 -4.9 15.2 -4.65 15.1 -4.5 M12.85 -4.0 Q13.9 -3.8 13.9 -3.15 13.9 -2.9 13.75 -2.8 13.6 -2.65 13.45 -2.7 12.8 -2.65 12.25 -3.05 11.8 -3.35 11.8 -3.55 11.8 -3.85 12.15 -3.95 L12.85 -4.0 M12.45 -2.05 L12.65 -1.8 Q12.55 -1.55 12.1 -1.15 L11.75 -1.25 Q11.65 -1.35 11.65 -1.6 11.65 -1.85 11.8 -2.0 12.0 -2.2 12.45 -2.05 M22.45 -6.25 Q22.85 -6.35 23.15 -6.25 23.45 -6.1 23.45 -5.75 23.45 -5.55 23.05 -5.3 22.6 -4.95 22.05 -4.95 21.65 -4.95 21.55 -5.15 L21.5 -5.35 Q21.5 -5.65 21.8 -5.9 22.1 -6.15 22.45 -6.25 M21.1 -6.2 L21.1 -6.05 Q21.1 -6.0 21.05 -5.9 20.95 -5.8 20.85 -5.8 L20.65 -6.0 Q20.65 -6.05 20.75 -6.1 20.85 -6.2 21.1 -6.25 L21.1 -6.2 M22.55 -4.1 Q22.55 -4.4 23.0 -4.55 L23.4 -4.65 23.95 -4.65 Q24.2 -3.95 24.25 -3.4 L23.65 -3.4 Q22.85 -3.4 22.6 -3.75 L22.55 -4.1 M35.5 -24.8 L35.35 -24.75 34.95 -24.7 34.5 -24.75 34.4 -24.8 34.35 -24.85 Q34.3 -24.9 34.3 -25.15 L34.3 -25.4 34.35 -25.55 34.7 -25.6 35.5 -25.55 35.5 -25.35 35.55 -25.15 35.5 -24.8 M32.45 -26.05 L32.65 -26.1 32.7 -26.2 32.7 -26.25 Q32.05 -26.4 31.4 -26.7 L30.25 -27.2 Q28.7 -27.85 26.2 -27.95 L25.4 -27.9 Q27.45 -27.7 30.0 -26.85 32.35 -26.05 32.45 -26.05 M23.7 -2.2 Q23.7 -2.5 24.05 -2.55 24.35 -2.6 24.35 -2.2 24.35 -2.1 24.3 -2.0 24.15 -1.85 24.0 -1.85 23.8 -1.85 23.7 -2.05 L23.7 -2.2" fill="#bbc776" fill-rule="evenodd" stroke="none"/>
    <path d="M14.2 -23.65 L14.45 -23.9 Q14.8 -24.5 14.8 -24.7 L14.8 -24.85 14.7 -24.9 Q14.5 -24.5 14.25 -24.15 L14.15 -24.0 13.55 -23.6 13.4 -23.55 13.4 -23.6 Q13.4 -23.85 13.85 -25.0 14.3 -26.2 14.55 -26.4 L14.65 -26.3 Q14.65 -26.1 14.7 -25.95 L14.75 -25.25 14.85 -25.25 14.9 -25.4 14.9 -25.25 14.95 -25.1 14.95 -25.0 Q14.9 -24.6 14.7 -24.25 L14.6 -24.1 Q14.45 -23.8 14.2 -23.65 M19.0 -21.45 Q19.1 -21.4 19.25 -21.4 19.3 -21.4 19.95 -22.7 L20.45 -23.85 Q20.85 -24.15 21.2 -24.2 L21.25 -23.0 21.4 -23.0 21.4 -23.15 21.45 -23.15 Q21.4 -22.75 21.0 -21.9 L20.85 -21.6 20.75 -21.6 Q20.65 -21.3 20.55 -21.15 20.4 -21.0 20.05 -20.95 L19.45 -20.95 19.1 -21.25 19.0 -21.45" fill="#94552c" fill-rule="evenodd" stroke="none"/>
    <path d="M15.2 -10.05 L15.35 -10.1 15.4 -10.15 15.4 -10.25 Q15.4 -10.4 17.0 -11.3 17.6 -11.65 18.0 -11.85 L18.35 -12.25 Q18.85 -12.95 19.0 -13.9 L19.05 -13.9 Q19.15 -14.25 19.15 -14.45 L19.25 -14.45 Q19.65 -14.5 19.75 -14.25 L19.75 -13.85 Q20.0 -13.9 20.0 -12.95 20.0 -12.75 19.6 -10.3 19.2 -7.7 19.05 -7.7 18.7 -7.7 18.65 -8.15 18.6 -8.35 18.65 -8.55 18.65 -8.95 18.85 -10.25 L19.05 -11.3 19.0 -11.1 Q18.0 -8.7 16.95 -8.7 L16.8 -8.7 16.5 -8.25 16.5 -8.2 15.4 -7.65 15.45 -7.8 15.35 -7.8 16.5 -9.65 16.75 -9.8 16.85 -9.9 17.0 -10.1 Q16.7 -9.95 16.35 -9.85 16.25 -9.95 16.05 -10.05 L15.45 -10.05 15.4 -10.1 15.35 -10.05 15.2 -10.05 M7.65 -19.1 L7.75 -19.2 8.7 -19.85 8.75 -19.9 Q8.95 -20.0 9.3 -20.15 L10.45 -20.65 10.55 -20.65 10.6 -20.55 10.75 -20.55 10.95 -20.6 9.85 -18.0 9.35 -16.75 8.8 -15.8 Q7.9 -14.35 7.2 -13.55 L7.15 -13.55 6.35 -13.1 6.15 -13.05 6.05 -13.0 5.25 -12.75 5.25 -12.85 Q5.9 -13.8 7.15 -15.7 8.35 -17.55 8.6 -18.2 L8.9 -18.5 8.95 -18.65 9.1 -18.9 9.1 -19.0 9.3 -19.3 8.85 -19.2 7.8 -19.1 7.7 -19.1 7.65 -19.1 M8.6 -14.15 Q8.65 -14.15 8.65 -13.9 8.65 -13.7 8.35 -13.35 8.05 -13.05 7.75 -12.9 L7.7 -12.85 Q7.6 -12.85 7.6 -13.1 7.6 -13.25 7.85 -13.65 8.15 -14.1 8.45 -14.2 L8.6 -14.15" fill="#7da7b7" fill-rule="evenodd" stroke="none"/>
    <path d="M25.0 -4.4 L25.2 -3.5 25.15 -3.5 25.05 -4.3 25.0 -4.4 M24.5 -1.95 L24.45 -2.0 24.5 -2.15 24.65 -2.55 Q24.6 -2.3 24.5 -1.95" fill="#679205" fill-rule="evenodd" stroke="none"/>
    <path d="M15.25 -19.35 L15.25 -19.3 15.3 -19.3 15.5 -19.1 15.4 -18.95 Q15.35 -19.15 15.25 -19.35 M14.65 -9.85 Q14.75 -9.85 15.0 -9.75 L15.6 -9.7 15.6 -9.65 Q15.1 -9.5 14.7 -9.25 L14.3 -9.2 Q13.85 -9.35 13.7 -9.55 L13.7 -9.6 Q14.05 -9.6 14.65 -9.85 M13.9 -20.15 L13.9 -20.3 14.05 -20.2 14.0 -20.2 Q13.95 -20.2 13.9 -20.15 M14.15 -19.1 L14.2 -19.1 14.25 -19.05 14.15 -19.1 M17.45 -14.15 L17.8 -14.25 17.85 -14.25 17.7 -14.1 17.45 -14.15 M18.5 -16.2 L18.5 -16.2" fill="#c6d361" fill-rule="evenodd" stroke="none"/>
    <path d="M23.35 -28.3 L23.45 -28.25 Q23.35 -28.25 23.35 -28.2 L23.35 -28.3 M23.95 -28.35 L24.0 -28.45 24.05 -28.4 Q24.2 -28.4 24.35 -28.5 L24.45 -28.35 Q24.9 -27.85 25.0 -27.4 25.45 -26.15 25.6 -25.65 L25.85 -24.8 26.3 -23.6 Q26.5 -22.55 26.55 -21.7 L26.55 -19.15 26.6 -18.65 Q26.6 -17.2 26.05 -15.7 25.75 -14.6 25.4 -14.2 L25.05 -13.6 Q24.7 -13.0 24.1 -12.05 L23.85 -11.8 Q23.65 -12.2 23.0 -13.2 L23.05 -13.3 23.85 -14.5 Q24.3 -15.25 24.35 -15.75 24.25 -15.65 23.6 -14.7 22.95 -13.65 22.95 -13.45 L22.85 -13.45 22.7 -13.7 Q21.4 -15.65 20.85 -16.1 L20.85 -16.05 Q21.65 -15.1 22.5 -13.65 L22.65 -13.4 22.25 -13.35 Q21.85 -13.25 21.7 -13.2 21.25 -13.95 20.85 -14.7 L19.95 -15.75 19.85 -15.85 19.15 -16.6 18.35 -17.4 Q18.6 -17.5 19.15 -17.65 L19.35 -17.7 20.2 -16.8 20.4 -16.55 20.65 -16.35 21.1 -15.95 21.0 -16.15 21.2 -15.9 21.25 -15.75 Q21.65 -15.1 22.35 -15.05 L22.4 -15.05 22.45 -15.0 Q22.45 -14.95 22.45 -15.05 L22.5 -15.05 Q23.15 -15.05 23.5 -15.4 L23.7 -15.65 23.85 -15.65 Q24.0 -15.9 24.55 -18.6 25.1 -21.35 25.1 -22.15 L25.0 -23.2 25.05 -23.5 Q24.9 -24.25 24.5 -25.85 23.95 -27.95 23.95 -28.1 L23.95 -28.35 M15.7 -21.1 L16.85 -20.25 18.85 -18.2 19.0 -18.1 18.65 -17.95 Q18.15 -17.7 18.1 -17.6 L17.8 -17.85 17.75 -17.9 Q17.4 -18.4 16.85 -18.85 L16.2 -19.35 Q15.9 -19.7 15.5 -19.95 14.85 -20.4 14.25 -20.7 13.45 -21.1 13.2 -21.0 L13.0 -21.05 12.7 -21.15 12.3 -21.7 12.2 -21.85 12.15 -21.9 13.2 -21.9 13.45 -21.85 13.5 -21.85 13.65 -21.9 13.6 -21.95 Q13.55 -22.05 12.8 -22.1 L12.55 -22.15 Q12.8 -22.25 13.15 -22.15 14.1 -22.0 15.55 -21.2 L15.7 -21.1 M12.25 -21.25 L12.15 -21.25 Q11.9 -21.4 11.75 -21.3 L10.25 -21.55 10.4 -21.75 10.5 -21.75 11.85 -21.9 12.15 -21.5 12.5 -21.2 12.25 -21.25 M10.65 -22.15 L10.65 -22.15 M21.85 -12.9 L22.2 -12.85 Q22.5 -12.85 22.75 -13.0 L22.85 -13.05 23.65 -11.65 23.6 -11.55 Q23.6 -11.4 23.55 -11.3 23.45 -11.1 23.3 -11.1 L23.25 -11.1 Q23.0 -11.1 22.95 -11.25 L22.95 -11.35 Q22.55 -11.8 21.85 -12.9" fill="#99380f" fill-rule="evenodd" stroke="none"/>
    <path d="M15.3 -18.15 L15.4 -18.2 15.35 -18.1 Q15.45 -18.05 15.55 -18.05 L15.6 -18.05 15.95 -18.1 Q16.7 -18.1 16.7 -17.8 L16.7 -17.75 16.75 -17.75 16.9 -17.6 16.75 -17.6 16.6 -17.55 Q16.55 -17.45 16.45 -17.45 L16.4 -17.45 16.15 -17.35 16.05 -17.2 15.95 -17.2 15.85 -17.05 15.9 -17.1 15.85 -16.95 15.75 -16.85 15.75 -16.75 15.8 -16.75 15.75 -16.45 15.7 -16.35 15.65 -16.0 15.65 -15.8 15.65 -15.65 15.7 -15.45 15.75 -15.4 16.0 -14.85 16.2 -14.75 16.25 -14.65 Q16.35 -14.55 16.45 -14.45 L16.35 -14.4 Q16.05 -14.25 15.9 -14.05 L15.65 -14.5 15.65 -14.55 15.5 -14.7 15.35 -14.9 Q15.5 -14.4 15.9 -14.0 15.8 -13.9 15.75 -13.75 15.45 -14.5 15.0 -15.1 L14.85 -15.3 14.8 -15.45 14.8 -15.7 Q14.5 -16.1 14.4 -16.35 L14.2 -15.85 14.05 -15.85 Q13.9 -16.0 13.9 -16.1 13.9 -16.3 14.5 -17.2 15.0 -18.0 15.3 -18.15 M10.85 -19.1 L11.25 -20.1 11.25 -20.2 11.3 -20.45 11.3 -20.6 11.55 -20.6 11.7 -20.55 11.8 -20.5 11.85 -20.5 Q12.25 -20.35 12.6 -20.1 L12.65 -20.0 12.7 -19.95 12.75 -19.95 12.8 -19.9 12.85 -19.8 13.05 -19.55 13.2 -19.4 13.2 -19.35 13.35 -19.15 13.35 -18.9 13.4 -18.9 Q13.3 -18.85 13.3 -18.6 L13.4 -18.05 13.4 -17.9 13.3 -17.55 13.1 -16.75 12.9 -16.65 12.7 -16.75 12.7 -16.5 Q12.7 -16.25 12.5 -16.0 12.3 -15.75 11.95 -15.75 11.9 -15.75 11.7 -15.85 L11.6 -15.9 11.65 -16.25 12.0 -16.5 12.15 -16.6 12.35 -16.7 12.6 -16.8 12.6 -17.05 12.65 -17.2 12.75 -17.3 12.85 -17.5 12.9 -17.65 13.0 -17.85 13.0 -17.8 13.15 -18.25 Q13.1 -18.55 13.0 -18.9 L12.65 -19.6 12.65 -19.65 12.55 -19.7 12.5 -19.8 12.4 -19.85 12.35 -19.9 Q12.2 -19.95 12.1 -19.95 L11.95 -19.9 Q11.75 -19.85 11.6 -19.7 L11.5 -19.65 Q11.35 -19.5 11.35 -19.3 L11.35 -18.9 Q11.25 -18.75 11.25 -18.55 L11.15 -18.3 Q10.9 -18.3 10.85 -18.6 10.85 -18.75 10.85 -18.9 L10.85 -19.1 M12.55 -14.05 Q12.7 -14.0 12.85 -14.0 13.05 -14.0 12.95 -14.05 L12.5 -14.45 12.4 -14.55 12.35 -14.75 12.4 -14.75 12.35 -14.8 Q12.45 -15.15 12.8 -15.0 13.3 -14.75 13.3 -14.4 13.3 -14.25 13.2 -14.1 13.1 -13.95 12.9 -13.95 12.7 -13.95 12.55 -14.05" fill="#cad04a" fill-rule="evenodd" stroke="none"/>
    <path d="M17.5 -28.45 Q18.55 -29.05 19.05 -28.7 L19.1 -28.65 Q18.95 -28.3 18.15 -28.0 17.15 -27.7 17.1 -27.65 L16.4 -27.05 15.85 -26.6 Q15.75 -26.6 15.7 -26.65 15.65 -26.7 15.65 -26.85 15.65 -27.05 16.05 -27.45 16.5 -27.85 17.05 -28.2 L17.4 -28.4 17.5 -28.45 M18.1 -25.3 Q18.1 -25.05 17.25 -23.6 16.5 -22.45 15.95 -21.9 L15.65 -21.9 15.6 -21.75 15.65 -21.65 15.55 -21.6 15.5 -22.1 Q15.7 -23.1 16.3 -24.05 17.05 -25.15 17.95 -25.55 L18.0 -25.6 Q18.1 -25.6 18.1 -25.3 M18.0 -23.25 Q17.85 -23.05 17.55 -22.95 L17.4 -23.0 Q17.25 -23.1 17.2 -23.2 17.45 -23.65 17.8 -23.65 17.9 -23.5 18.0 -23.25 M17.35 -21.45 Q17.25 -21.35 17.05 -21.3 L16.9 -21.35 Q16.8 -21.4 16.7 -21.5 16.8 -21.65 16.9 -21.8 17.1 -22.05 17.3 -22.1 17.4 -21.95 17.5 -21.7 17.45 -21.55 17.35 -21.45 M22.85 -20.65 Q23.25 -22.2 22.9 -23.85 23.35 -24.1 23.5 -23.3 L23.5 -22.0 Q23.5 -20.45 23.45 -20.15 23.35 -19.7 22.55 -17.9 22.3 -18.1 22.3 -18.2 22.3 -18.75 22.5 -19.45 L22.85 -20.65 M24.5 -21.75 L24.6 -21.6 24.6 -21.4 24.3 -21.3 24.15 -21.35 Q24.1 -21.4 24.1 -21.55 24.1 -21.8 24.15 -21.75 L24.25 -21.8 24.5 -21.75" fill="#d09553" fill-rule="evenodd" stroke="none"/>
  </g>
</svg>
