<?xml version="1.0" encoding="UTF-8" standalone="no"?>
<svg xmlns:ffdec="https://www.free-decompiler.com/flash" xmlns:xlink="http://www.w3.org/1999/xlink" ffdec:objectType="shape" height="38.8px" width="26.15px" xmlns="http://www.w3.org/2000/svg">
  <g transform="matrix(1.0, 0.0, 0.0, 1.0, -4.15, 34.35)">
    <path d="M18.95 -33.45 L18.9 -33.8 Q18.9 -34.5 19.25 -34.3 19.65 -34.1 19.65 -33.8 19.65 -33.6 19.15 -31.8 L19.0 -31.35 Q18.7 -31.05 18.55 -30.75 18.45 -30.45 18.45 -29.35 L17.85 -26.65 Q17.5 -25.25 16.8 -25.25 L16.7 -25.25 16.6 -25.3 16.6 -25.45 17.1 -26.7 Q17.75 -27.75 18.05 -29.3 L19.05 -33.1 18.95 -33.45 M8.35 -22.5 Q8.65 -22.45 8.85 -22.05 L8.4 -22.1 Q8.35 -22.25 8.35 -22.35 L8.35 -22.5 M8.85 -9.6 L9.0 -9.55 9.3 -9.2 8.85 -9.6 M8.3 -17.65 L8.0 -16.65 9.6 -15.5 10.25 -13.55 Q10.25 -13.5 10.15 -13.5 L8.25 -15.75 8.0 -16.65 7.85 -17.05 8.05 -17.3 Q8.1 -17.3 8.3 -17.65 M9.0 -21.7 Q9.05 -21.5 9.05 -21.3 L8.2 -19.95 Q7.35 -18.75 7.2 -18.75 L6.95 -18.95 Q6.95 -19.0 7.2 -19.3 L7.3 -19.3 Q7.6 -19.3 8.15 -20.15 8.55 -20.75 8.65 -21.1 L8.85 -21.4 9.0 -21.7" fill="#000000" fill-rule="evenodd" stroke="none"/>
    <path d="M19.35 -18.7 Q19.35 -18.55 18.5 -17.15 19.0 -14.85 19.0 -14.6 L18.85 -14.3 Q18.7 -14.3 18.2 -15.95 17.7 -17.5 17.7 -17.6 19.45 -20.25 19.45 -19.05 L19.35 -18.7" fill="#91953e" fill-rule="evenodd" stroke="none"/>
    <path d="M19.2 -34.05 L19.3 -33.9 19.15 -32.45 18.35 -30.6 18.0 -28.4 17.05 -25.25 17.6 -25.15 Q17.95 -25.15 18.25 -25.8 L18.55 -26.75 21.55 -28.55 Q21.95 -28.75 22.3 -29.1 L22.95 -29.55 23.7 -30.15 24.25 -30.7 24.7 -30.9 24.75 -30.9 24.9 -30.65 24.85 -30.25 24.45 -28.65 24.4 -28.4 24.25 -28.0 Q23.15 -27.45 23.15 -26.1 L22.9 -24.8 22.35 -23.4 30.1 -29.1 28.95 -24.9 28.8 -24.7 28.7 -24.55 Q27.85 -23.55 27.75 -23.0 L27.7 -22.75 27.65 -22.6 27.5 -21.7 Q27.4 -21.4 27.25 -20.95 27.05 -20.25 26.95 -19.75 L26.9 -19.55 Q26.75 -19.1 26.7 -18.6 26.35 -17.65 26.0 -16.95 L25.95 -16.85 28.4 -17.75 28.15 -17.05 27.45 -15.1 27.05 -13.6 26.9 -13.15 26.7 -12.6 26.15 -11.3 25.95 -11.0 24.2 -10.0 23.7 -9.9 22.95 -9.85 20.6 -9.7 20.5 -9.65 20.0 -9.6 19.85 -9.6 Q19.75 -9.55 19.75 -9.5 L19.05 -9.25 Q18.5 -8.95 17.85 -8.6 L16.5 -8.25 16.85 -8.5 17.1 -8.65 Q18.0 -9.25 18.55 -9.5 19.2 -9.8 19.9 -9.95 L20.15 -10.05 20.25 -10.05 21.75 -10.2 23.05 -10.25 Q23.8 -10.3 24.55 -10.6 L24.9 -10.85 Q25.8 -11.45 26.35 -12.75 L26.7 -13.75 26.9 -14.4 27.0 -14.85 Q27.1 -15.35 27.3 -15.8 L27.35 -15.9 Q27.6 -16.6 28.0 -17.05 L28.1 -17.25 Q27.4 -17.0 26.2 -16.3 L26.1 -16.3 Q25.4 -16.0 24.45 -15.3 L24.2 -15.05 22.05 -13.7 22.3 -13.0 21.75 -12.45 Q21.45 -12.1 21.05 -12.1 L20.55 -12.55 20.35 -12.05 20.35 -11.95 19.15 -10.9 18.5 -10.3 18.4 -10.3 18.3 -10.5 18.25 -10.75 18.6 -12.6 19.4 -14.2 19.3 -14.9 18.75 -16.4 19.15 -18.5 19.2 -18.55 19.45 -19.3 19.65 -20.0 19.45 -18.55 18.9 -16.85 19.45 -15.55 Q19.65 -15.1 19.7 -14.55 L19.75 -14.6 Q19.8 -14.6 19.8 -14.5 L19.8 -14.45 19.85 -14.75 19.7 -15.7 Q19.7 -16.15 19.9 -16.8 L20.1 -16.95 Q19.85 -16.35 19.85 -16.1 19.8 -15.95 19.9 -15.5 L20.0 -14.65 19.7 -14.1 19.6 -13.95 19.3 -13.45 18.55 -11.7 18.5 -10.95 18.5 -10.9 18.85 -10.85 Q19.05 -10.85 19.6 -11.45 L20.15 -12.2 20.3 -12.65 20.35 -13.05 Q20.5 -13.4 20.7 -13.75 20.7 -13.55 20.7 -13.05 L20.7 -12.7 20.8 -12.3 21.25 -12.3 21.8 -12.65 22.05 -12.85 22.1 -13.05 21.7 -13.95 Q21.5 -14.3 21.5 -14.45 L21.5 -15.2 21.45 -15.4 Q21.45 -16.15 22.05 -17.45 L22.15 -17.35 22.25 -17.4 23.5 -15.3 Q23.6 -15.65 23.65 -16.4 L24.1 -17.55 Q24.55 -18.0 24.65 -18.65 L25.5 -24.55 26.35 -25.8 21.8 -22.4 Q21.55 -22.05 21.55 -21.5 L21.35 -21.3 21.35 -21.85 21.85 -23.2 21.85 -23.45 22.4 -24.55 Q22.45 -24.95 22.45 -25.4 L23.2 -27.15 Q22.75 -27.35 22.55 -27.85 L22.4 -28.6 Q21.25 -27.75 20.6 -27.75 L20.55 -27.75 Q20.5 -27.6 20.3 -27.35 L19.8 -26.7 19.05 -24.6 Q19.05 -24.35 19.45 -23.75 L19.55 -21.2 19.2 -20.5 18.7 -20.15 Q19.65 -21.75 19.65 -22.75 L19.35 -23.6 Q18.95 -24.25 18.95 -24.6 L18.95 -24.75 Q18.95 -25.15 19.05 -25.6 L18.9 -26.15 Q18.7 -25.75 18.65 -25.3 L18.45 -24.2 Q18.25 -22.85 17.45 -22.05 16.75 -21.35 16.3 -19.85 15.85 -18.4 15.5 -17.8 L15.85 -17.75 17.1 -17.85 18.05 -18.7 18.0 -18.6 18.2 -18.85 18.75 -19.45 18.65 -19.3 18.15 -18.7 18.05 -18.55 17.6 -17.9 15.8 -17.65 14.9 -17.55 14.85 -17.55 14.65 -17.45 13.1 -16.95 11.85 -15.6 11.25 -16.55 11.85 -20.35 10.8 -19.65 10.55 -19.5 10.2 -19.5 10.2 -19.7 10.25 -20.45 10.3 -20.85 10.35 -20.9 10.4 -20.45 10.4 -20.4 11.5 -20.4 11.65 -20.5 13.4 -22.15 15.25 -21.5 Q15.4 -21.15 15.4 -20.65 L15.4 -20.3 15.45 -20.5 15.45 -20.35 15.55 -20.45 Q15.55 -21.05 15.35 -21.7 L15.35 -22.0 Q15.35 -22.6 15.4 -23.2 15.6 -25.95 16.7 -28.6 L17.8 -30.95 Q17.6 -30.4 17.45 -29.85 L16.7 -27.85 Q16.05 -26.2 15.75 -24.9 L15.4 -22.55 Q15.4 -22.45 15.55 -21.6 L15.7 -20.65 15.45 -19.0 15.15 -17.85 15.35 -17.8 15.4 -17.8 Q15.55 -18.15 16.1 -20.0 16.55 -21.35 17.3 -22.15 17.8 -22.6 18.0 -23.25 L16.45 -25.2 16.55 -25.6 17.7 -29.45 17.9 -30.05 18.7 -32.5 18.8 -32.8 19.05 -33.6 19.2 -34.05 19.0 -33.85 18.05 -32.85 Q17.65 -32.7 17.3 -32.35 L15.45 -30.1 15.55 -30.2 Q16.0 -30.8 16.65 -31.85 L17.45 -32.85 17.6 -33.0 19.05 -34.2 19.1 -34.2 19.2 -34.05 M11.85 -24.8 L12.15 -26.55 Q12.8 -27.4 13.7 -28.8 L14.0 -29.2 14.15 -29.15 14.3 -29.15 Q14.65 -29.15 15.05 -29.55 L15.3 -29.55 15.65 -28.95 15.05 -26.95 Q14.2 -26.0 13.95 -25.6 13.65 -25.1 13.55 -24.25 L13.3 -23.4 Q13.35 -25.2 14.45 -26.4 L15.55 -28.45 15.5 -29.0 13.35 -27.5 13.35 -27.15 Q13.35 -27.05 13.45 -26.85 13.6 -26.7 13.7 -26.7 14.45 -26.7 14.85 -27.6 15.05 -28.05 15.1 -28.5 L14.1 -28.3 13.8 -27.65 Q13.8 -27.5 13.85 -27.35 L14.45 -27.4 14.3 -27.3 Q14.2 -27.2 14.05 -27.2 13.7 -27.2 13.65 -27.4 13.6 -27.55 13.65 -27.65 L15.2 -28.8 Q15.2 -28.3 14.95 -27.65 L13.95 -26.6 Q13.35 -26.6 13.25 -27.0 L12.55 -26.5 12.35 -26.1 11.85 -24.8 M11.0 -24.45 L9.9 -23.05 9.75 -22.8 9.5 -21.1 9.35 -20.3 9.3 -20.1 10.35 -21.3 10.25 -21.0 9.8 -20.35 9.15 -19.05 9.3 -19.05 10.5 -15.6 9.65 -16.2 8.3 -16.85 8.35 -16.7 Q8.45 -16.7 8.55 -16.65 L9.75 -16.0 9.8 -15.9 9.5 -16.0 9.3 -15.7 9.85 -14.15 10.05 -13.65 10.05 -13.6 10.0 -13.6 8.2 -15.9 8.1 -15.2 8.05 -15.1 8.0 -14.75 Q8.15 -14.65 8.3 -14.45 L8.9 -12.55 8.85 -12.05 Q8.8 -11.9 8.35 -11.55 L8.6 -11.1 8.8 -10.25 Q9.1 -9.5 9.6 -8.9 L9.9 -8.6 9.2 -8.8 8.45 -10.0 8.1 -11.3 7.6 -12.5 7.25 -12.9 6.9 -13.35 6.75 -13.55 Q6.35 -14.05 6.2 -14.45 L6.1 -15.3 6.1 -17.0 5.95 -18.15 5.95 -19.85 Q5.9 -20.4 5.85 -20.75 L6.1 -20.55 7.35 -18.6 7.55 -19.15 7.8 -19.65 8.15 -20.15 8.2 -20.15 8.9 -21.1 Q9.25 -21.8 9.4 -22.3 L10.35 -23.65 10.75 -24.15 11.0 -24.45 M22.6 -28.75 L22.6 -28.7 22.75 -27.95 Q22.85 -27.65 23.2 -27.2 L22.95 -29.05 22.6 -28.75 M21.75 -27.4 L21.75 -26.55 21.8 -26.1 Q21.8 -26.05 22.0 -25.75 L21.95 -25.7 Q21.8 -25.9 21.7 -26.2 21.6 -26.6 21.6 -27.0 21.6 -27.4 21.6 -27.55 L21.85 -27.85 Q21.8 -27.7 21.75 -27.4 M20.4 -22.05 L20.25 -22.85 Q20.4 -23.2 20.75 -23.45 20.45 -23.2 20.45 -22.7 L20.4 -22.05 M14.6 -28.1 L14.6 -27.95 14.3 -27.55 Q14.35 -27.65 14.45 -27.8 L14.2 -27.9 14.3 -28.1 Q14.4 -28.2 14.6 -28.2 L14.6 -28.1 M14.35 -17.6 Q14.45 -17.6 14.6 -17.7 L14.85 -17.8 15.0 -18.6 15.2 -20.15 15.2 -20.9 Q15.0 -21.95 14.4 -21.95 L12.3 -20.65 11.8 -18.8 11.6 -18.15 11.45 -17.75 11.45 -16.15 11.6 -15.75 14.5 -18.3 14.6 -19.85 Q14.55 -20.25 14.5 -20.45 L14.4 -21.45 Q14.6 -21.3 14.7 -20.95 L14.8 -20.05 14.8 -19.95 14.35 -17.6 M16.2 -21.75 L16.35 -22.2 Q16.75 -22.7 17.3 -23.1 17.2 -22.7 16.3 -21.9 L16.2 -21.75 M13.05 -20.55 L12.6 -19.05 12.7 -18.45 14.05 -19.3 14.0 -19.5 13.7 -20.0 Q13.35 -20.0 13.2 -19.55 L13.15 -19.1 13.15 -18.8 13.0 -18.65 13.0 -18.85 12.95 -19.05 Q12.95 -19.4 13.05 -19.65 13.2 -20.15 13.55 -20.15 L14.05 -19.75 14.1 -19.45 13.15 -17.95 12.4 -19.25 13.05 -20.55 M13.3 -16.65 L13.6 -16.5 13.3 -16.65 M14.6 -16.4 L17.65 -16.3 18.2 -13.25 15.85 -14.25 14.65 -14.6 13.4 -14.55 14.6 -16.4 M11.95 -14.75 Q11.8 -14.45 11.45 -14.1 11.25 -13.9 11.15 -13.75 L11.1 -13.65 11.0 -13.55 10.85 -13.4 10.85 -13.35 10.75 -13.0 Q10.85 -13.0 10.95 -12.9 L10.45 -11.3 10.1 -11.65 Q10.1 -11.8 10.1 -11.95 L10.8 -13.55 10.75 -15.15 10.85 -15.05 10.9 -13.7 10.9 -13.65 11.2 -14.0 11.85 -14.6 11.95 -14.75 M10.2 -13.75 L10.15 -13.75 10.2 -13.75 M12.9 -14.7 L13.0 -14.7 18.2 -13.45 17.6 -16.05 16.2 -16.55 12.9 -14.7 M13.35 -14.2 L15.5 -13.25 16.1 -12.65 16.55 -12.1 16.6 -11.8 16.45 -11.75 14.9 -12.8 14.5 -11.6 Q14.8 -11.45 15.15 -11.45 L15.25 -11.45 15.5 -11.3 Q14.3 -11.3 13.75 -11.9 L13.35 -14.2 M22.75 -18.65 L22.45 -17.85 22.75 -18.65 M22.85 -20.05 L22.7 -20.25 Q21.35 -18.8 21.0 -16.1 L20.85 -16.45 Q20.85 -16.75 21.45 -18.5 21.6 -18.8 21.8 -19.55 22.1 -20.2 22.85 -20.4 22.9 -20.35 22.9 -20.15 L22.85 -20.05 M9.1 -20.55 L9.05 -20.85 Q8.8 -20.4 8.5 -20.15 L8.4 -20.05 8.5 -19.55 8.6 -19.0 9.1 -20.55 M8.35 -19.95 L7.9 -19.05 7.6 -18.3 7.95 -17.8 8.1 -17.5 8.25 -18.15 Q8.45 -18.85 8.45 -19.5 L8.35 -19.95 M6.2 -19.5 L6.3 -18.65 6.4 -18.4 Q6.45 -18.0 6.45 -16.65 L6.45 -16.2 6.55 -15.0 Q6.6 -14.6 6.75 -14.1 L7.5 -13.05 7.55 -13.2 7.6 -13.2 7.65 -13.85 7.8 -15.15 Q7.95 -15.9 8.0 -16.25 L7.7 -17.15 7.6 -17.35 7.55 -17.35 7.2 -17.95 6.9 -18.5 6.15 -19.8 6.2 -19.5 M8.0 -14.6 L7.95 -14.15 Q8.0 -13.35 8.05 -12.7 L8.45 -11.75 8.85 -12.7 8.3 -14.25 8.25 -14.3 8.0 -14.6 M9.35 -15.05 L9.5 -14.7 9.6 -14.85 9.55 -14.95 9.35 -15.05 M10.85 -12.85 L10.7 -12.9 10.2 -12.0 10.2 -11.75 10.85 -12.85 M9.35 -12.75 L9.7 -13.05 Q9.95 -13.2 10.15 -13.2 L10.1 -13.1 Q9.55 -12.7 9.5 -12.7 L9.35 -12.75 M9.9 -10.3 L10.85 -10.15 12.25 -9.1 12.35 -8.95 12.5 -8.7 12.55 -8.65 10.5 -8.9 9.45 -9.75 9.6 -10.15 9.9 -10.3 M9.9 -9.85 L11.05 -9.2 Q11.85 -8.85 12.05 -8.85 L12.2 -9.0 Q12.2 -9.35 10.95 -9.95 L9.9 -10.25 9.9 -9.85 M17.95 -10.3 Q17.8 -9.95 17.5 -9.6 L17.25 -9.55 Q17.7 -10.05 17.85 -10.45 L17.95 -10.3 M14.8 -12.5 L14.65 -12.9 14.8 -12.5 M15.9 -10.9 L17.25 -11.3 17.35 -11.3 Q17.25 -11.15 16.45 -11.0 L15.9 -10.9 M13.1 -11.8 Q13.05 -11.95 12.7 -12.6 12.85 -12.5 13.25 -11.95 L13.5 -11.7 13.8 -11.45 13.8 -11.4 14.1 -11.15 14.05 -11.1 Q13.45 -11.3 13.1 -11.8 M14.8 -10.4 L14.7 -10.2 14.8 -10.4 M29.75 -28.2 L29.8 -28.3 Q29.3 -28.1 28.85 -27.8 L27.0 -26.35 29.4 -27.7 29.7 -27.85 29.75 -28.2 M29.35 -27.65 Q28.05 -26.9 26.95 -26.25 L26.65 -25.85 26.3 -20.4 Q26.3 -20.1 26.15 -19.15 L27.2 -21.65 27.3 -22.35 Q27.3 -22.8 27.35 -23.1 L27.5 -23.7 27.6 -23.9 Q27.95 -24.75 28.7 -25.6 L29.4 -26.6 29.7 -27.8 29.35 -27.65 M24.65 -22.2 L24.75 -20.5 Q24.85 -19.35 24.85 -18.85 L23.75 -16.2 Q23.7 -15.9 23.7 -15.4 L24.4 -15.75 25.45 -16.4 25.95 -19.35 Q26.1 -20.3 26.1 -21.15 L24.65 -22.2" fill="#000000" fill-rule="evenodd" stroke="none"/>
    <path d="M15.4 -17.8 L15.35 -17.8 15.4 -17.8 M10.4 -20.4 L10.4 -20.45 10.4 -20.4 M18.2 -18.85 L18.0 -18.6 18.05 -18.7 18.2 -18.85 M20.3 -12.65 L20.15 -12.2 20.3 -12.65 M22.95 -9.85 L23.7 -9.9 22.95 -9.85 M27.45 -15.1 L28.15 -17.05 27.45 -15.1 M13.0 -14.7 L12.9 -14.7 13.0 -14.7 M9.9 -10.25 L9.9 -9.85 9.9 -10.25" fill="#aad2bc" fill-rule="evenodd" stroke="none"/>
    <path d="M14.8 -14.6 L14.65 -14.6 15.85 -14.25 14.8 -14.6" fill="#679205" fill-rule="evenodd" stroke="none"/>
    <path d="M9.95 -14.05 L10.05 -13.65 9.85 -14.15 9.95 -14.05 M16.45 -11.75 L15.25 -11.45 15.15 -11.45 Q14.8 -11.45 14.5 -11.6 L14.9 -12.8 16.45 -11.75" fill="#ffffb3" fill-rule="evenodd" stroke="none"/>
    <path d="M9.5 -14.7 L9.35 -15.05 9.5 -14.7 M14.8 -12.5 L14.65 -12.9 14.8 -12.5" fill="#990000" fill-rule="evenodd" stroke="none"/>
    <path d="M10.35 -20.9 L10.3 -20.85 10.25 -20.45 10.2 -19.7 10.2 -19.5 10.55 -19.5 10.8 -19.65 11.85 -20.35 11.25 -16.55 11.85 -15.6 13.1 -16.95 13.0 -16.9 Q13.05 -16.7 13.15 -16.6 L13.3 -16.65 13.6 -16.5 14.6 -16.4 13.4 -14.55 13.35 -14.2 13.75 -11.9 Q14.3 -11.3 15.5 -11.3 L15.25 -11.45 16.45 -11.75 16.6 -11.8 16.55 -12.1 16.1 -12.65 14.8 -14.6 15.85 -14.25 18.2 -13.25 Q18.35 -12.75 18.6 -12.6 L18.25 -10.75 18.3 -10.5 18.4 -10.3 18.5 -10.3 19.15 -10.9 20.35 -11.95 20.35 -12.05 20.55 -12.55 21.05 -12.1 Q21.45 -12.1 21.75 -12.45 L22.3 -13.0 22.05 -13.7 24.2 -15.05 24.45 -15.3 Q25.4 -16.0 26.1 -16.3 L26.2 -16.3 Q27.4 -17.0 28.1 -17.25 L28.0 -17.05 Q27.6 -16.6 27.35 -15.9 L27.3 -15.8 Q27.1 -15.35 27.0 -14.85 L26.9 -14.4 26.7 -13.75 26.35 -12.75 Q25.8 -11.45 24.9 -10.85 L24.55 -10.6 Q23.8 -10.3 23.05 -10.25 L21.75 -10.2 20.25 -10.05 20.15 -10.05 19.9 -9.95 Q19.2 -9.8 18.55 -9.5 18.0 -9.25 17.1 -8.65 L14.7 -7.85 Q14.0 -7.85 13.65 -8.1 L11.05 -8.3 9.6 -8.9 Q9.1 -9.5 8.8 -10.25 L8.6 -11.1 8.35 -11.55 Q8.8 -11.9 8.85 -12.05 L8.9 -12.55 8.3 -14.45 Q8.15 -14.65 8.0 -14.75 L8.05 -15.1 8.1 -15.2 8.2 -15.9 10.0 -13.6 10.05 -13.6 10.05 -13.65 9.95 -14.05 10.15 -13.75 10.2 -13.75 9.5 -16.0 9.8 -15.9 10.8 -13.55 10.1 -11.95 Q10.1 -11.8 10.1 -11.65 L10.45 -11.3 10.95 -12.9 Q10.85 -13.0 10.75 -13.0 L10.85 -13.35 10.85 -13.4 Q11.15 -13.4 11.15 -13.75 11.25 -13.9 11.45 -14.1 11.8 -14.45 11.95 -14.75 L11.85 -14.95 11.55 -14.9 Q11.15 -14.9 10.85 -15.05 L10.75 -15.15 10.5 -15.6 9.3 -19.05 9.15 -19.05 9.8 -20.35 10.25 -21.0 10.35 -20.9 M18.05 -18.55 L18.15 -18.7 18.65 -19.3 18.75 -19.45 19.45 -20.1 19.65 -20.0 19.45 -19.3 19.1 -19.3 18.05 -18.55 M19.3 -14.9 L19.4 -14.2 19.3 -14.9 M10.9 -13.7 L10.9 -13.65 10.9 -13.7 M9.75 -16.0 L8.55 -16.65 Q8.45 -16.7 8.35 -16.7 L8.3 -16.85 9.65 -16.2 9.75 -16.0 M6.2 -19.5 L6.15 -19.8 6.9 -18.5 7.2 -17.95 7.55 -17.35 7.6 -17.35 7.7 -17.15 8.0 -16.25 Q7.95 -15.9 7.8 -15.15 L7.65 -13.85 7.6 -13.2 7.55 -13.2 7.5 -13.05 6.75 -14.1 Q6.6 -14.6 6.55 -15.0 L6.45 -16.2 6.45 -16.65 Q6.45 -18.0 6.4 -18.4 L6.3 -18.65 6.2 -19.5 M9.35 -12.75 L9.5 -12.7 Q9.55 -12.7 10.1 -13.1 L10.15 -13.2 Q9.95 -13.2 9.7 -13.05 L9.35 -12.75 M10.85 -10.15 L10.45 -10.35 Q9.95 -10.55 9.9 -10.3 L9.6 -10.15 9.45 -9.75 10.5 -8.9 12.55 -8.65 12.5 -8.7 12.35 -8.95 12.25 -9.1 10.85 -10.15 M17.95 -10.3 L17.85 -10.45 Q17.7 -10.05 17.25 -9.55 L17.5 -9.6 Q17.8 -9.95 17.95 -10.3 M13.1 -11.8 Q13.45 -11.3 14.05 -11.1 L14.1 -11.15 13.8 -11.4 13.8 -11.45 13.5 -11.7 13.25 -11.95 Q12.85 -12.5 12.7 -12.6 13.05 -11.95 13.1 -11.8 M15.9 -10.9 L16.45 -11.0 Q17.25 -11.15 17.35 -11.3 L17.25 -11.3 15.9 -10.9 M14.7 -10.2 L14.8 -10.4 14.7 -10.2" fill="#bece4d" fill-rule="evenodd" stroke="none"/>
    <path d="M19.1 -34.2 L19.05 -34.2 19.1 -34.2 M17.6 -33.0 L17.45 -32.85 17.6 -33.0 M10.35 -23.65 L10.75 -24.15 10.35 -23.65" fill="#7d7115" fill-rule="evenodd" stroke="none"/>
    <path d="M22.25 -17.4 L22.15 -17.35 22.05 -17.45 23.0 -20.15 23.05 -19.85 23.05 -19.75 23.0 -19.35 22.75 -18.65 22.45 -17.85 22.35 -17.65 22.25 -17.4 M22.6 -28.75 L22.95 -29.05 23.2 -27.2 Q22.85 -27.65 22.75 -27.95 L22.6 -28.7 22.6 -28.75 M14.35 -17.6 L14.8 -19.95 14.8 -20.05 14.7 -20.95 Q14.6 -21.3 14.4 -21.45 L14.5 -20.45 Q14.55 -20.25 14.6 -19.85 L14.5 -18.3 11.6 -15.75 11.45 -16.15 11.45 -17.75 11.6 -18.15 11.8 -18.8 12.3 -20.65 14.4 -21.95 Q15.0 -21.95 15.2 -20.9 L15.2 -20.15 15.0 -18.6 14.85 -17.8 14.6 -17.7 Q14.45 -17.6 14.35 -17.6 M13.05 -20.55 L12.4 -19.25 13.15 -17.95 14.1 -19.45 14.05 -19.75 13.55 -20.15 Q13.2 -20.15 13.05 -19.65 12.95 -19.4 12.95 -19.05 L13.0 -18.85 13.0 -18.65 13.15 -18.8 13.15 -19.1 13.2 -19.55 Q13.35 -20.0 13.7 -20.0 L14.0 -19.5 14.05 -19.3 12.7 -18.45 12.6 -19.05 13.05 -20.55 M10.85 -15.05 Q11.15 -14.9 11.55 -14.9 L11.85 -14.95 11.95 -14.75 11.85 -14.6 11.2 -14.0 10.9 -13.65 10.9 -13.7 10.85 -15.05 M8.0 -14.6 L8.25 -14.3 8.3 -14.25 8.85 -12.7 8.45 -11.75 8.05 -12.7 Q8.0 -13.35 7.95 -14.15 L8.0 -14.6 M11.1 -13.65 L11.0 -13.55 11.1 -13.65 M10.85 -12.85 L10.2 -11.75 10.2 -12.0 10.7 -12.9 10.85 -12.85 M29.35 -27.65 L29.7 -27.8 29.4 -26.6 28.7 -25.6 Q27.95 -24.75 27.6 -23.9 L27.5 -23.7 27.35 -23.1 Q27.3 -22.8 27.3 -22.35 L27.2 -21.65 26.15 -19.15 Q26.3 -20.1 26.3 -20.4 L26.65 -25.85 26.95 -26.25 Q28.05 -26.9 29.35 -27.65 M29.75 -28.2 L29.7 -27.85 29.4 -27.7 27.0 -26.35 28.85 -27.8 Q29.3 -28.1 29.8 -28.3 L29.75 -28.2" fill="#ffffcc" fill-rule="evenodd" stroke="none"/>
    <path d="M9.35 -15.05 L9.55 -14.95 9.6 -14.85 9.5 -14.7 9.35 -15.05 M14.65 -12.9 L14.8 -12.5 14.65 -12.9" fill="#f3ebf1" fill-rule="evenodd" stroke="none"/>
    <path d="M19.2 -34.05 L19.05 -33.6 18.8 -32.8 18.7 -32.5 17.9 -30.05 17.7 -29.45 16.55 -25.6 16.45 -25.2 18.0 -23.25 Q17.8 -22.6 17.3 -22.15 16.55 -21.35 16.1 -20.0 15.55 -18.15 15.4 -17.8 L15.35 -17.8 15.15 -17.85 15.45 -19.0 15.7 -20.65 15.55 -21.6 Q15.4 -22.45 15.4 -22.55 L15.75 -24.9 Q16.05 -26.2 16.7 -27.85 L17.45 -29.85 Q17.6 -30.4 17.8 -30.95 L16.7 -28.6 Q15.6 -25.95 15.4 -23.2 15.35 -22.6 15.35 -22.0 L15.35 -21.7 Q15.55 -21.05 15.55 -20.45 L15.45 -20.35 15.45 -20.5 15.4 -20.3 15.4 -20.65 Q15.4 -21.15 15.25 -21.5 L13.4 -22.15 11.65 -20.5 11.5 -20.4 10.4 -20.4 10.4 -20.45 10.35 -20.9 10.25 -21.0 10.35 -21.3 9.3 -20.1 9.35 -20.3 9.5 -21.1 9.75 -22.8 9.9 -23.05 11.0 -24.45 11.85 -24.8 12.35 -26.1 12.55 -26.5 13.25 -27.0 Q13.35 -26.6 13.95 -26.6 L14.95 -27.65 Q15.2 -28.3 15.2 -28.8 L13.65 -27.65 Q13.6 -27.55 13.65 -27.4 13.7 -27.2 14.05 -27.2 14.2 -27.2 14.3 -27.3 L14.45 -27.4 13.85 -27.35 Q13.8 -27.5 13.8 -27.65 L14.1 -28.3 15.1 -28.5 Q15.05 -28.05 14.85 -27.6 14.45 -26.7 13.7 -26.7 13.6 -26.7 13.45 -26.85 13.35 -27.05 13.35 -27.15 L13.35 -27.5 15.5 -29.0 15.55 -28.45 14.45 -26.4 Q13.35 -25.2 13.3 -23.4 L13.55 -24.25 Q13.65 -25.1 13.95 -25.6 14.2 -26.0 15.05 -26.95 L15.65 -28.95 15.3 -29.55 15.05 -29.55 15.3 -29.85 15.45 -30.1 17.3 -32.35 Q17.65 -32.7 18.05 -32.85 L19.0 -33.85 19.2 -34.05 M18.75 -19.45 L18.2 -18.85 18.05 -18.7 17.1 -17.85 15.85 -17.75 15.5 -17.8 Q15.85 -18.4 16.3 -19.85 16.75 -21.35 17.45 -22.05 18.25 -22.85 18.45 -24.2 L18.65 -25.3 Q18.7 -25.75 18.9 -26.15 L19.05 -25.6 Q18.95 -25.15 18.95 -24.75 L18.95 -24.6 Q18.95 -24.25 19.35 -23.6 L19.65 -22.75 Q19.65 -21.75 18.7 -20.15 L19.2 -20.5 19.55 -21.2 19.45 -23.75 Q19.05 -24.35 19.05 -24.6 L19.8 -26.7 20.3 -27.35 Q20.5 -27.6 20.55 -27.75 L20.6 -27.75 Q21.25 -27.75 22.4 -28.6 L22.55 -27.85 Q22.75 -27.35 23.2 -27.15 L22.45 -25.4 Q22.45 -24.95 22.4 -24.55 L21.85 -23.45 21.85 -23.2 21.35 -21.85 21.35 -21.3 21.55 -21.5 Q21.55 -22.05 21.8 -22.4 L26.35 -25.8 25.5 -24.55 24.65 -18.65 Q24.55 -18.0 24.1 -17.55 L23.65 -16.4 Q23.6 -15.65 23.5 -15.3 L22.25 -17.4 22.35 -17.65 22.45 -17.85 22.75 -18.65 23.0 -19.35 23.05 -19.75 23.05 -19.85 23.0 -20.15 22.05 -17.45 Q21.45 -16.15 21.45 -15.4 L21.5 -15.2 21.5 -14.45 Q21.5 -14.3 21.7 -13.95 L22.1 -13.05 22.05 -12.85 21.8 -12.65 21.25 -12.3 20.8 -12.3 20.7 -12.7 20.7 -13.05 Q20.7 -13.55 20.7 -13.75 20.5 -13.4 20.35 -13.05 L20.3 -12.65 20.15 -12.2 19.6 -11.45 Q19.05 -10.85 18.85 -10.85 L18.5 -10.9 18.5 -10.95 18.55 -11.7 19.3 -13.45 19.6 -13.95 19.7 -14.1 20.0 -14.65 19.9 -15.5 Q19.8 -15.95 19.85 -16.1 19.85 -16.35 20.1 -16.95 L19.9 -16.8 Q19.7 -16.15 19.7 -15.7 L19.85 -14.75 19.8 -14.45 19.8 -14.5 Q19.8 -14.6 19.75 -14.6 L19.7 -14.55 Q19.65 -15.1 19.45 -15.55 L18.9 -16.85 19.45 -18.55 19.65 -20.0 19.45 -20.1 18.75 -19.45 M14.6 -28.1 L14.6 -28.2 Q14.4 -28.2 14.3 -28.1 L14.2 -27.9 14.45 -27.8 Q14.35 -27.65 14.3 -27.55 L14.6 -27.95 14.6 -28.1 M20.4 -22.05 L20.45 -22.7 Q20.45 -23.2 20.75 -23.45 20.4 -23.2 20.25 -22.85 L20.4 -22.05 M21.75 -27.4 Q21.8 -27.7 21.85 -27.85 L21.6 -27.55 Q21.6 -27.4 21.6 -27.0 21.6 -26.6 21.7 -26.2 21.8 -25.9 21.95 -25.7 L22.0 -25.75 Q21.8 -26.05 21.8 -26.1 L21.75 -26.55 21.75 -27.4 M16.2 -21.75 L16.3 -21.9 Q17.2 -22.7 17.3 -23.1 16.75 -22.7 16.35 -22.2 L16.2 -21.75 M22.85 -20.05 L22.9 -20.15 Q22.9 -20.35 22.85 -20.4 22.1 -20.2 21.8 -19.55 21.6 -18.8 21.45 -18.5 20.85 -16.75 20.85 -16.45 L21.0 -16.1 Q21.35 -18.8 22.7 -20.25 L22.85 -20.05 M9.1 -20.55 L8.6 -19.0 8.5 -19.55 8.4 -20.05 8.5 -20.15 Q8.8 -20.4 9.05 -20.85 L9.1 -20.55 M8.35 -19.95 L8.45 -19.5 Q8.45 -18.85 8.25 -18.15 L8.1 -17.5 7.95 -17.8 7.6 -18.3 7.9 -19.05 8.35 -19.95 M24.65 -22.2 L26.1 -21.15 Q26.1 -20.3 25.95 -19.35 L25.45 -16.4 24.4 -15.75 23.7 -15.4 Q23.7 -15.9 23.75 -16.2 L24.85 -18.85 Q24.85 -19.35 24.75 -20.5 L24.65 -22.2" fill="#f5e08b" fill-rule="evenodd" stroke="none"/>
    <path d="M11.15 -13.75 Q11.15 -13.4 10.85 -13.4 L11.0 -13.55 11.1 -13.65 11.15 -13.75 M10.8 -13.55 L9.8 -15.9 9.75 -16.0 9.65 -16.2 10.5 -15.6 10.75 -15.15 10.8 -13.55 M9.5 -16.0 L10.2 -13.75 10.15 -13.75 9.95 -14.05 9.85 -14.15 9.3 -15.7 9.5 -16.0" fill="#91953e" fill-rule="evenodd" stroke="none"/>
    <path d="M13.1 -16.95 L14.65 -17.45 14.85 -17.55 14.9 -17.55 15.8 -17.65 17.6 -17.9 18.05 -18.55 19.1 -19.3 19.45 -19.3 19.2 -18.55 19.15 -18.5 18.75 -16.4 19.3 -14.9 19.4 -14.2 18.6 -12.6 Q18.35 -12.75 18.2 -13.25 L17.65 -16.3 14.6 -16.4 13.6 -16.5 13.3 -16.65 13.15 -16.6 Q13.05 -16.7 13.0 -16.9 L13.1 -16.95 M13.0 -14.7 L12.9 -14.7 16.2 -16.55 17.6 -16.05 18.2 -13.45 13.0 -14.7 M13.4 -14.55 L14.65 -14.6 14.8 -14.6 16.1 -12.65 15.5 -13.25 13.35 -14.2 13.4 -14.55" fill="#a7b733" fill-rule="evenodd" stroke="none"/>
    <path d="M25.0 -30.45 Q24.95 -30.0 24.75 -29.5 24.6 -29.15 24.05 -28.15 L23.85 -27.8 Q23.15 -27.2 23.15 -26.1 L23.15 -25.55 Q23.05 -25.15 23.05 -24.75 23.05 -24.4 23.0 -24.1 L23.95 -24.7 Q25.65 -25.8 26.5 -26.55 27.1 -27.1 28.1 -28.2 29.15 -29.3 29.65 -29.8 30.1 -29.4 30.3 -28.25 L30.25 -27.65 Q30.05 -26.75 29.5 -25.85 29.2 -25.35 28.95 -24.85 L28.7 -24.55 Q27.85 -23.55 27.75 -23.0 27.7 -22.9 27.7 -22.0 27.45 -21.7 27.25 -20.95 27.05 -20.25 26.95 -19.75 L26.9 -19.55 Q26.7 -19.05 26.7 -18.5 26.7 -18.4 26.75 -18.2 L26.45 -17.05 Q26.75 -17.25 27.3 -17.5 28.1 -17.8 28.7 -17.95 L28.65 -17.75 Q28.55 -17.3 28.1 -16.05 L27.4 -14.35 26.7 -12.6 25.75 -10.5 Q25.05 -9.95 23.9 -9.65 L23.05 -9.6 Q20.85 -9.7 20.0 -9.6 L19.85 -9.6 Q19.75 -9.55 19.75 -9.4 L19.9 -9.2 Q19.85 -9.15 19.85 -9.0 L22.0 -6.25 22.9 -4.55 22.55 -4.55 Q22.15 -4.6 21.85 -4.65 21.55 -4.75 21.35 -4.85 L20.65 -5.3 20.15 -5.3 Q20.0 -3.75 18.85 -1.65 18.2 -0.5 16.7 1.7 L16.75 1.75 16.65 1.95 16.45 1.95 Q15.95 1.95 15.0 0.7 L14.4 -0.1 14.15 0.45 Q13.7 1.5 13.4 1.5 13.2 1.5 13.0 0.95 L12.9 0.7 Q12.4 1.35 10.9 2.55 9.05 4.1 8.45 4.35 L8.4 4.4 Q8.35 4.45 8.2 4.45 7.55 4.45 7.05 3.65 L6.8 3.3 Q6.45 2.75 6.1 1.8 5.7 0.65 5.55 -0.45 5.55 -1.25 5.7 -2.2 5.9 -3.15 6.15 -4.0 6.1 -3.95 5.95 -3.85 5.75 -3.75 5.65 -3.75 L5.45 -3.8 5.4 -3.8 5.4 -4.0 5.5 -4.4 6.15 -6.1 6.65 -7.4 6.8 -8.05 7.15 -9.4 8.2 -10.35 7.0 -12.85 6.2 -14.35 5.95 -16.65 5.95 -19.85 5.85 -20.8 Q6.05 -20.8 6.55 -20.1 L7.0 -19.45 7.0 -19.35 7.05 -19.3 7.1 -19.3 7.15 -19.2 Q7.25 -19.0 7.35 -18.85 L7.6 -19.4 Q7.85 -19.65 8.15 -20.15 8.45 -20.6 8.55 -20.9 L8.9 -21.45 Q9.0 -21.8 9.05 -22.0 L8.6 -22.05 8.6 -22.15 8.15 -22.1 Q6.9 -22.3 5.4 -22.65 L4.65 -22.8 4.6 -22.8 4.6 -22.95 5.55 -24.1 Q6.1 -24.65 6.55 -25.0 5.65 -25.2 4.8 -27.35 4.4 -28.55 4.15 -29.75 4.15 -29.85 4.15 -29.95 L4.15 -30.15 4.2 -30.2 4.3 -30.15 4.35 -30.2 4.35 -30.15 Q5.05 -30.0 8.45 -29.05 L8.2 -29.25 Q6.85 -30.3 6.5 -31.0 6.9 -31.0 7.4 -30.45 8.15 -29.6 8.35 -29.4 L9.15 -28.85 9.45 -28.75 Q9.0 -29.45 8.8 -29.85 8.65 -30.25 8.45 -31.1 L8.1 -32.4 Q8.4 -31.95 9.2 -30.2 L9.55 -29.55 9.5 -29.8 Q9.5 -30.15 9.8 -31.0 10.15 -31.9 10.55 -32.7 11.2 -33.95 11.6 -33.95 L11.8 -33.5 Q12.25 -32.45 12.45 -32.05 L13.35 -30.45 Q13.6 -30.05 13.8 -29.8 13.95 -29.35 14.05 -29.05 L14.2 -29.15 14.3 -29.15 Q14.9 -29.15 15.65 -30.4 16.1 -31.05 16.25 -31.5 L16.5 -31.95 17.0 -32.6 Q17.55 -33.25 18.05 -33.65 18.65 -34.2 19.05 -34.3 L19.05 -34.25 Q19.3 -33.85 19.55 -33.75 L19.55 -33.6 Q19.55 -33.15 18.9 -31.3 L18.9 -31.25 Q18.65 -31.0 18.55 -30.75 18.5 -30.55 18.45 -29.9 L18.3 -29.4 Q18.25 -29.15 18.3 -28.3 18.3 -27.7 18.15 -27.35 L18.05 -27.15 Q17.6 -26.45 17.4 -26.1 L17.25 -25.8 17.2 -25.3 17.8 -25.35 18.15 -26.15 Q18.35 -26.7 18.55 -27.0 19.15 -27.9 20.55 -28.3 21.05 -28.45 21.65 -28.7 22.35 -29.1 22.95 -29.55 L23.7 -30.15 24.2 -30.65 24.25 -30.65 24.3 -30.7 24.7 -30.9 24.75 -30.9 Q24.85 -30.65 25.0 -30.45 M22.3 -23.35 L22.2 -23.3 22.2 -23.45 Q22.25 -23.7 22.4 -24.2 L22.55 -25.05 Q22.55 -25.7 22.65 -26.2 22.75 -26.5 22.9 -26.75 23.45 -27.7 23.8 -28.55 L24.0 -28.95 24.35 -29.9 23.9 -29.55 22.8 -28.9 Q21.35 -28.1 20.9 -27.95 L20.85 -27.9 20.75 -27.85 20.65 -27.85 20.2 -27.75 20.05 -27.7 Q19.6 -27.5 19.3 -26.95 L19.1 -26.7 19.1 -26.65 Q18.95 -26.45 18.75 -25.8 L18.65 -25.45 Q18.5 -25.2 18.35 -25.05 L18.35 -25.0 18.1 -24.9 18.05 -24.9 17.75 -24.8 Q17.25 -24.95 16.85 -25.15 L16.7 -25.25 16.75 -25.3 16.75 -25.35 Q16.7 -25.45 16.7 -25.6 L16.75 -25.7 17.15 -26.3 Q17.3 -26.65 17.4 -27.05 17.7 -27.55 17.75 -27.75 17.8 -28.15 17.85 -28.8 L17.85 -29.4 18.2 -30.4 Q19.05 -33.0 19.05 -33.35 L19.1 -33.7 19.0 -33.8 18.4 -33.35 17.6 -32.35 17.1 -31.6 Q16.65 -31.05 16.1 -30.3 L15.1 -29.2 15.0 -29.05 14.45 -28.65 14.15 -28.4 Q12.6 -27.4 12.4 -25.5 L12.15 -25.0 12.1 -24.85 12.15 -24.8 12.05 -24.75 11.95 -24.65 11.9 -24.65 11.8 -24.7 Q11.8 -24.9 11.7 -24.9 11.6 -24.9 11.4 -24.55 10.55 -23.3 10.3 -23.05 L10.0 -22.75 Q9.75 -22.55 9.65 -22.35 9.45 -21.8 9.35 -21.4 9.25 -21.1 9.25 -20.85 L9.25 -20.8 9.3 -20.75 9.3 -20.6 9.3 -20.45 9.35 -20.2 9.4 -20.35 9.45 -20.45 9.55 -20.55 9.7 -20.85 9.75 -20.9 Q9.95 -21.25 10.1 -21.4 L10.15 -21.35 10.15 -21.4 10.2 -21.4 10.2 -21.5 10.3 -21.8 Q10.35 -22.1 10.45 -22.35 L10.45 -22.4 10.5 -22.45 Q10.75 -22.7 11.25 -23.45 L11.3 -23.55 Q11.45 -23.65 11.65 -23.7 L10.65 -21.5 Q10.6 -21.35 10.65 -21.05 L10.65 -20.95 10.65 -20.9 10.7 -20.15 10.7 -20.1 10.75 -20.15 10.8 -20.1 Q10.95 -20.25 11.35 -20.45 11.75 -20.6 11.9 -20.65 L11.9 -20.5 11.75 -19.95 11.35 -17.1 11.35 -15.95 11.95 -15.9 13.05 -17.0 Q13.6 -17.35 14.3 -17.45 L15.45 -17.55 17.7 -18.15 18.35 -18.85 18.5 -19.05 18.55 -19.2 18.85 -19.8 18.9 -19.8 18.95 -19.95 19.05 -20.3 19.25 -20.1 19.25 -19.95 Q19.2 -19.25 19.2 -18.65 L19.2 -18.15 Q19.0 -17.0 18.95 -16.5 L19.2 -16.1 19.3 -15.85 19.45 -15.05 19.55 -14.2 19.45 -13.7 19.3 -13.05 19.2 -12.8 18.6 -11.4 18.6 -10.95 18.7 -11.05 19.0 -11.2 19.65 -11.45 20.25 -12.3 20.4 -12.7 20.5 -12.9 Q20.5 -13.2 20.65 -13.4 20.8 -13.3 20.8 -13.0 20.8 -12.85 20.8 -12.8 L20.8 -12.75 Q20.7 -12.6 20.7 -12.5 L20.7 -12.4 20.75 -12.3 21.15 -12.25 Q21.4 -12.25 21.65 -12.6 21.95 -12.9 21.95 -13.05 L22.0 -13.15 21.9 -13.3 21.75 -13.95 Q21.55 -14.5 21.55 -14.75 L21.55 -14.85 21.6 -15.25 21.8 -15.3 21.8 -14.95 21.9 -14.35 22.15 -14.25 22.25 -14.3 22.45 -13.2 Q22.45 -13.05 22.4 -12.85 22.25 -12.6 21.95 -12.35 L21.8 -12.25 21.8 -12.2 21.45 -12.0 Q21.15 -11.9 20.8 -11.9 L20.6 -11.85 20.15 -11.45 18.8 -10.7 18.6 -10.6 18.4 -10.9 18.7 -12.7 18.9 -13.1 19.2 -14.55 18.9 -15.5 Q18.55 -16.0 18.55 -16.3 L18.55 -16.6 Q18.55 -16.8 18.65 -17.3 L18.95 -19.05 Q18.6 -18.0 17.6 -17.6 L17.45 -17.5 Q17.25 -17.35 15.5 -17.2 14.4 -17.15 13.8 -16.9 L12.05 -15.5 11.95 -15.45 Q11.8 -15.35 11.65 -15.4 L11.45 -15.4 11.25 -15.4 Q11.0 -15.5 10.95 -15.65 10.9 -15.8 10.95 -15.95 10.95 -16.4 11.2 -17.45 L11.3 -18.3 11.55 -20.0 11.55 -20.05 11.35 -19.9 11.25 -19.85 10.7 -19.6 10.5 -19.55 10.45 -19.55 Q10.1 -19.55 10.05 -19.95 10.05 -20.2 10.15 -20.6 9.6 -19.85 9.1 -18.8 L10.35 -16.0 10.4 -15.6 10.15 -15.7 8.65 -17.15 8.6 -17.2 8.55 -17.2 8.3 -16.75 9.4 -15.35 9.9 -14.55 10.1 -13.85 9.9 -13.6 Q9.45 -13.6 9.15 -13.8 L8.5 -14.65 8.2 -15.5 Q7.9 -15.65 7.65 -16.1 7.75 -16.1 7.9 -16.0 L7.9 -16.65 Q7.9 -16.85 8.15 -17.5 L8.15 -17.6 8.35 -18.0 8.75 -19.0 8.85 -19.15 9.0 -19.55 9.0 -19.6 Q8.95 -19.7 8.9 -19.85 L8.95 -20.05 8.9 -20.2 8.9 -20.4 8.7 -20.15 Q8.15 -19.65 7.85 -19.2 L7.6 -18.7 7.3 -18.55 7.2 -18.4 7.1 -18.45 Q7.0 -18.5 7.0 -18.65 L7.05 -18.75 6.05 -19.95 Q6.2 -19.1 6.2 -17.95 6.2 -15.4 6.25 -15.1 6.3 -14.6 6.9 -13.75 L7.6 -12.75 7.7 -12.8 Q8.0 -12.3 8.25 -11.45 L8.4 -10.95 8.7 -10.15 8.9 -9.65 9.05 -9.25 9.75 -8.9 10.35 -8.65 10.55 -8.6 Q11.5 -8.4 12.95 -8.25 L14.45 -8.15 Q16.3 -8.45 18.05 -9.1 18.75 -9.4 19.3 -9.55 L19.45 -9.6 19.55 -9.7 19.65 -9.75 Q19.75 -9.9 20.05 -9.8 20.65 -10.1 20.9 -10.1 L20.95 -10.1 20.95 -9.95 22.3 -10.0 20.9 -9.75 22.35 -9.8 Q25.2 -10.15 26.05 -11.35 26.35 -11.75 26.5 -12.4 L26.8 -13.4 Q27.0 -13.95 27.4 -15.3 27.8 -16.55 28.15 -17.35 L27.15 -16.9 26.35 -16.5 26.3 -16.55 26.3 -16.4 26.2 -16.4 26.1 -16.35 Q26.05 -16.35 26.0 -16.55 L25.95 -16.55 25.95 -16.6 25.9 -16.75 25.9 -16.85 25.9 -17.2 26.0 -17.65 26.0 -17.8 26.4 -19.25 26.5 -19.55 26.85 -20.7 Q27.15 -22.05 27.2 -22.65 L27.25 -22.95 27.25 -23.05 Q27.5 -23.9 28.6 -25.4 L28.8 -25.7 29.4 -26.65 Q29.55 -26.85 29.7 -27.25 L29.7 -27.75 29.7 -28.3 Q29.75 -28.7 29.85 -29.0 L29.8 -29.05 29.4 -28.6 29.15 -28.4 29.0 -28.3 28.7 -28.0 Q27.95 -27.15 27.15 -26.35 L27.1 -26.3 26.65 -25.8 25.7 -25.05 25.3 -24.8 24.2 -24.1 23.55 -23.65 22.85 -23.5 22.3 -23.35 M8.45 -27.95 L8.75 -27.95 Q9.55 -27.9 10.05 -27.55 L10.3 -27.4 10.15 -27.6 10.1 -27.65 9.3 -28.35 9.2 -28.45 8.2 -28.6 7.1 -28.8 6.85 -28.8 Q6.5 -28.9 5.85 -29.15 L5.8 -29.15 Q4.95 -29.4 4.55 -29.65 4.55 -29.45 4.6 -29.25 4.85 -28.35 5.2 -27.7 L5.25 -27.5 5.4 -27.25 Q5.7 -26.75 6.05 -26.35 6.7 -25.75 7.55 -25.45 L7.75 -25.65 7.85 -25.7 Q8.5 -26.2 9.05 -26.5 L8.65 -26.2 8.4 -26.0 Q7.95 -25.55 7.6 -25.05 L7.45 -24.9 7.05 -24.55 6.4 -24.0 6.25 -23.9 6.1 -23.75 5.35 -23.05 5.6 -22.95 6.35 -22.95 7.45 -22.85 8.1 -22.9 Q9.0 -23.0 9.65 -23.35 L10.05 -23.65 10.1 -23.65 10.15 -23.7 10.5 -24.05 10.5 -24.15 10.55 -24.15 10.55 -24.35 Q10.55 -24.55 10.85 -24.9 11.2 -25.25 11.5 -25.3 L11.65 -25.3 11.8 -25.25 11.8 -25.2 11.85 -25.2 11.9 -25.15 11.9 -25.1 12.15 -25.65 12.35 -26.2 Q12.6 -26.95 12.85 -27.4 13.1 -27.9 13.4 -28.3 L13.4 -28.6 Q13.1 -29.3 12.4 -30.65 11.55 -32.2 11.5 -33.15 10.0 -30.8 10.1 -29.15 L10.1 -29.05 10.15 -28.95 Q10.3 -28.85 10.6 -28.2 L10.75 -27.85 Q10.9 -27.55 10.9 -27.4 10.9 -27.35 10.4 -27.1 L9.65 -26.65 Q9.2 -26.25 9.05 -25.8 L8.75 -25.0 Q8.6 -24.45 8.7 -24.1 8.55 -24.1 8.55 -24.25 L8.5 -24.55 Q8.5 -25.2 9.1 -26.15 9.5 -26.85 10.0 -27.2 9.55 -27.35 9.3 -27.35 L7.85 -27.3 7.3 -27.2 Q7.1 -27.2 7.0 -27.35 7.6 -27.9 8.45 -27.95 M10.25 -28.4 L10.2 -28.3 10.65 -27.55 10.7 -27.55 Q10.5 -27.85 10.2 -28.75 10.2 -28.55 10.25 -28.4 M13.7 -28.65 L13.65 -28.8 13.65 -28.6 13.7 -28.65 M12.45 -14.6 L12.85 -14.6 12.25 -14.25 11.6 -13.6 12.45 -14.6 M12.75 -14.0 L13.1 -13.2 12.6 -13.6 12.6 -13.65 12.6 -13.95 12.7 -14.05 12.75 -14.0 M9.3 -26.7 L9.4 -26.7 9.35 -26.65 9.3 -26.7 M8.45 -15.75 L9.55 -14.85 Q9.1 -15.95 8.4 -15.95 L8.5 -15.85 8.45 -15.75 M8.0 -14.6 Q7.9 -14.65 7.9 -14.7 L8.0 -14.9 8.05 -14.9 8.1 -14.8 8.05 -14.85 8.1 -14.7 8.05 -14.7 8.0 -14.6 M13.95 -4.0 L14.05 -4.7 14.35 -7.65 14.05 -7.65 Q12.25 -7.65 10.4 -8.2 L10.05 -8.3 Q9.55 -8.45 9.2 -8.6 L8.85 -8.8 Q8.5 -9.0 8.25 -9.2 L7.85 -9.45 7.8 -9.35 7.55 -8.4 7.35 -7.3 Q7.1 -6.05 7.0 -5.1 L7.0 -4.8 6.95 -4.45 6.8 -3.85 6.7 -3.25 6.7 -3.3 6.6 -2.95 Q6.3 -1.85 6.3 -0.85 6.3 0.2 6.85 1.7 L6.95 1.9 7.15 2.45 7.35 2.9 7.4 2.9 8.2 3.75 8.15 3.8 8.2 3.8 8.35 3.65 8.5 3.65 8.75 3.45 9.1 3.15 9.65 2.75 10.15 2.3 10.45 2.0 11.3 1.0 11.1 1.25 11.2 1.3 12.35 0.1 13.15 -0.75 13.5 -1.4 13.9 -2.65 12.95 -1.55 13.95 -4.0 M8.7 0.6 L8.7 0.6 8.7 0.6 M7.9 -9.5 L7.95 -9.55 7.9 -9.6 7.9 -9.5 M9.7 -10.05 L12.1 -9.05 12.05 -8.95 Q11.05 -9.2 9.7 -9.95 L9.7 -10.05 M6.85 -5.35 L7.05 -6.7 6.45 -5.05 6.7 -5.35 6.85 -5.35 M19.5 -6.55 L19.15 -9.05 18.35 -8.75 Q16.05 -7.85 14.65 -7.7 L14.6 -3.7 14.5 -1.0 Q14.55 -0.95 14.55 -0.9 L15.15 -0.15 15.8 0.6 16.15 1.0 Q16.3 0.65 16.8 -0.2 L17.55 -1.55 Q18.75 -3.55 19.4 -4.8 19.45 -5.2 19.45 -5.65 L19.45 -5.85 19.5 -5.85 19.65 -6.05 19.5 -6.55 M20.7 -7.05 L19.45 -8.7 19.65 -6.0 19.6 -5.9 19.7 -5.95 20.05 -5.95 20.15 -6.0 20.3 -5.95 20.6 -5.85 20.7 -5.8 20.8 -5.8 21.05 -5.7 21.3 -5.65 21.7 -5.5 22.2 -5.3 21.95 -5.55 20.7 -7.05 M15.95 -11.95 L15.95 -12.1 16.15 -12.1 Q16.15 -12.0 16.1 -11.95 L15.95 -11.95 M28.35 -24.45 L28.2 -24.15 28.15 -24.15 28.35 -24.45" fill="#000000" fill-rule="evenodd" stroke="none"/>
    <path d="M7.35 2.9 L7.15 2.45 6.95 1.9 7.15 2.35 Q7.35 2.75 7.35 2.9 M7.9 -9.5 L7.9 -9.6 7.95 -9.55 7.9 -9.5 M21.95 -5.55 L22.2 -5.3 21.7 -5.5 21.95 -5.55" fill="#91ae28" fill-rule="evenodd" stroke="none"/>
    <path d="M10.75 -13.0 Q11.05 -13.15 11.25 -13.05 11.45 -12.95 11.45 -12.55 11.45 -12.15 11.3 -11.8 11.05 -11.2 10.45 -11.2 10.1 -11.2 10.05 -11.45 10.0 -11.55 10.05 -11.7 L10.05 -11.8 10.75 -12.95 10.75 -13.0 M8.0 -14.6 L8.05 -14.7 8.1 -14.7 8.35 -13.95 8.35 -14.0 Q8.35 -13.6 8.4 -13.1 L8.6 -12.25 8.6 -13.35 9.0 -12.25 8.95 -11.95 8.7 -11.4 8.7 -11.5 8.65 -11.55 8.2 -11.85 7.85 -13.9 Q7.85 -14.4 8.0 -14.6 M9.35 -13.0 L9.3 -13.25 9.35 -13.0 M9.25 -11.7 L9.15 -10.85 9.25 -11.7 M16.3 -8.65 Q15.85 -8.45 15.4 -8.45 15.1 -8.45 14.9 -8.55 14.75 -8.65 14.7 -8.9 14.6 -9.1 14.65 -9.35 14.65 -10.0 15.2 -10.55 15.55 -11.0 16.1 -11.2 L16.35 -11.3 16.45 -11.35 Q17.05 -11.55 17.5 -11.4 L18.05 -10.65 Q18.05 -10.1 17.3 -9.35 16.8 -8.85 16.3 -8.65 M14.4 -9.85 Q14.4 -9.65 14.25 -9.5 14.1 -9.3 13.9 -9.3 13.6 -9.3 13.55 -9.5 13.55 -9.55 13.55 -9.7 13.55 -10.15 14.0 -10.2 14.4 -10.25 14.4 -9.85" fill="#ffffcc" fill-rule="evenodd" stroke="none"/>
    <path d="M7.85 -25.7 L6.5 -26.6 Q5.5 -27.4 5.5 -27.9 5.5 -28.0 5.6 -28.05 5.7 -28.15 5.7 -28.25 L5.65 -28.5 5.55 -28.75 Q6.45 -28.45 8.45 -27.95 7.6 -27.9 7.0 -27.35 7.1 -27.2 7.3 -27.2 L7.85 -27.3 9.3 -27.35 Q9.55 -27.35 10.0 -27.2 9.5 -26.85 9.1 -26.15 8.5 -25.2 8.5 -24.55 L8.55 -24.25 Q8.55 -24.1 8.7 -24.1 8.6 -24.45 8.75 -25.0 L9.05 -25.8 Q9.2 -26.25 9.65 -26.65 L10.4 -27.1 Q10.9 -27.35 10.9 -27.4 10.9 -27.55 10.75 -27.85 10.9 -28.05 10.9 -28.3 10.9 -28.5 10.7 -29.1 10.55 -29.7 10.55 -29.8 10.55 -30.05 10.95 -31.25 L11.35 -32.5 11.4 -32.45 Q11.55 -32.05 11.55 -31.4 L11.6 -30.4 Q11.7 -29.9 12.15 -29.15 12.65 -28.4 12.65 -28.35 12.65 -28.1 12.05 -26.8 L11.6 -25.7 Q11.0 -25.6 10.35 -24.9 9.65 -24.05 9.35 -23.8 L6.5 -23.45 5.75 -23.35 Q6.45 -23.9 7.2 -24.55 7.85 -25.15 8.8 -26.15 L8.4 -26.0 8.65 -26.2 9.05 -26.5 Q8.5 -26.2 7.85 -25.7 M10.05 -27.55 L10.15 -27.6 10.3 -27.4 10.05 -27.55 M10.25 -28.4 Q10.2 -28.55 10.2 -28.75 10.5 -27.85 10.7 -27.55 L10.65 -27.55 10.2 -28.3 10.25 -28.4 M11.85 -28.6 Q11.85 -28.8 11.7 -28.85 L11.65 -28.8 11.6 -28.6 Q11.6 -28.5 11.65 -28.45 L11.7 -28.4 11.85 -28.45 11.85 -28.6 M11.3 -29.5 Q11.3 -29.35 11.35 -29.35 L11.35 -29.4 11.5 -29.4 Q11.6 -29.4 11.6 -29.45 L11.6 -29.55 11.55 -29.7 11.4 -29.6 11.3 -29.5 M10.5 -24.15 L10.5 -24.05 10.15 -23.7 10.2 -23.8 10.5 -24.15 M12.15 -25.65 L11.9 -25.1 11.9 -25.15 12.15 -25.65 M9.3 -26.7 L9.35 -26.65 9.4 -26.7 9.3 -26.7 M8.05 -24.4 L7.95 -24.35 Q7.95 -24.3 7.95 -24.2 7.95 -24.05 7.95 -24.0 L8.05 -23.95 8.15 -24.05 8.2 -24.15 8.2 -24.3 8.05 -24.4 M8.1 -24.55 Q8.25 -24.6 8.25 -24.65 L8.25 -24.75 Q8.2 -24.8 8.05 -24.8 8.05 -24.85 8.05 -24.65 L8.05 -24.5 8.1 -24.55 M6.3 -27.6 L6.3 -27.75 6.25 -27.95 5.95 -28.0 Q5.8 -27.95 5.8 -27.85 5.8 -27.6 6.1 -27.55 L6.25 -27.55 6.3 -27.6 M6.85 -28.1 Q6.75 -28.15 6.65 -28.1 6.6 -28.05 6.6 -27.95 L6.6 -27.8 6.75 -27.75 6.85 -27.8 6.95 -27.95 6.85 -28.1 M9.9 -25.0 L9.6 -24.95 Q9.55 -24.9 9.55 -24.75 L9.55 -24.55 9.6 -24.55 9.75 -24.5 Q9.95 -24.5 9.9 -24.55 L9.95 -24.9 9.9 -25.0" fill="#eca8b6" fill-rule="evenodd" stroke="none"/>
    <path d="M12.95 -8.25 Q11.5 -8.4 10.55 -8.6 L9.95 -8.95 9.65 -9.2 9.55 -9.2 Q9.25 -9.2 8.7 -10.55 8.4 -11.2 8.2 -11.8 L8.2 -11.85 8.65 -11.55 8.7 -11.5 8.7 -11.4 8.95 -11.95 9.0 -12.25 8.6 -13.35 8.45 -13.7 8.35 -13.95 8.1 -14.7 8.05 -14.85 8.1 -14.8 8.5 -14.65 9.15 -13.8 9.3 -13.25 9.35 -13.0 9.35 -12.3 9.4 -12.3 9.45 -12.2 9.35 -12.05 9.25 -11.7 9.15 -10.85 9.35 -10.55 9.6 -10.7 9.7 -10.75 9.85 -10.85 10.0 -10.85 Q9.85 -10.9 9.75 -11.05 L9.7 -11.15 Q9.55 -11.4 9.55 -11.55 L10.05 -13.0 10.15 -13.5 10.1 -13.85 9.9 -14.55 9.8 -14.85 9.35 -15.6 8.3 -16.75 8.55 -17.2 8.6 -17.2 8.65 -17.15 10.15 -15.7 10.3 -15.0 Q10.4 -14.4 10.4 -14.0 L9.7 -11.55 Q9.7 -11.45 9.85 -11.25 L9.9 -11.2 10.1 -11.05 Q10.3 -10.9 10.5 -10.95 L10.5 -10.9 10.4 -10.8 Q10.8 -10.7 11.3 -10.4 L11.35 -10.35 11.65 -10.2 12.55 -9.55 Q13.25 -9.05 13.25 -8.7 13.25 -8.45 13.1 -8.35 13.05 -8.3 12.95 -8.25 M10.4 -15.6 L10.35 -16.0 10.05 -18.9 Q10.35 -18.6 10.8 -16.55 L10.95 -15.95 Q10.9 -15.8 10.95 -15.65 11.0 -15.5 11.25 -15.4 L11.45 -15.4 11.85 -15.3 12.05 -15.5 13.8 -16.9 12.45 -14.6 11.6 -13.6 11.2 -13.25 Q11.15 -13.15 11.05 -13.15 11.0 -13.15 10.95 -13.2 L10.85 -13.2 10.9 -13.3 Q10.75 -13.55 10.65 -14.25 L10.4 -15.6 M10.7 -19.6 L11.25 -19.85 11.35 -19.9 11.55 -20.05 11.55 -20.0 11.3 -18.3 Q11.1 -18.45 10.85 -18.85 10.55 -19.4 10.55 -19.5 L10.6 -19.55 10.7 -19.6 M18.7 -12.7 L18.4 -10.9 18.6 -10.6 18.8 -10.7 20.15 -11.45 20.35 -11.55 20.45 -11.55 20.45 -11.45 Q20.45 -11.3 19.5 -10.75 19.1 -10.5 18.8 -10.35 L18.95 -10.2 18.9 -10.15 18.8 -10.15 Q18.7 -10.15 18.6 -10.25 L18.5 -10.2 18.6 -9.9 Q18.55 -9.8 18.5 -9.8 L18.45 -9.85 18.45 -9.75 Q18.45 -9.55 17.45 -9.05 L16.75 -8.75 16.3 -8.65 Q16.8 -8.85 17.3 -9.35 18.05 -10.1 18.05 -10.65 L17.5 -11.4 Q17.05 -11.55 16.45 -11.35 L16.9 -11.55 17.45 -11.85 Q17.1 -11.7 16.5 -11.5 15.15 -11.1 14.55 -11.1 L14.2 -11.55 14.5 -11.5 Q14.95 -11.5 16.2 -11.85 17.45 -12.2 17.7 -12.2 L18.1 -10.7 Q18.1 -10.1 17.6 -9.45 L17.55 -9.35 18.4 -9.85 Q18.3 -9.95 18.25 -10.2 L18.15 -12.65 18.35 -12.4 18.7 -12.7 M20.8 -11.9 Q21.15 -11.9 21.45 -12.0 L20.85 -11.7 Q20.8 -11.7 20.75 -11.7 20.75 -11.75 20.75 -11.8 L20.8 -11.9 M21.8 -12.25 L21.95 -12.35 Q22.25 -12.6 22.4 -12.85 22.8 -13.1 22.95 -13.1 L23.0 -13.0 Q23.0 -12.9 21.9 -12.3 L21.8 -12.25 M12.85 -14.6 L16.3 -13.3 15.9 -13.5 12.75 -14.0 12.7 -14.05 12.2 -14.2 12.25 -14.25 12.85 -14.6 M13.1 -13.2 L13.35 -12.25 13.25 -12.45 12.6 -13.6 13.1 -13.2 M12.6 -13.65 L12.4 -13.8 12.6 -13.95 12.6 -13.65 M9.7 -10.05 L9.7 -9.95 Q11.05 -9.2 12.05 -8.95 L12.1 -9.05 9.7 -10.05 M14.9 -8.55 Q14.65 -8.7 14.5 -9.05 14.45 -9.3 14.45 -9.6 14.45 -9.95 14.75 -10.45 15.1 -11.0 15.5 -11.2 L15.6 -11.15 15.55 -11.05 15.55 -11.0 16.1 -11.2 Q15.55 -11.0 15.2 -10.55 14.65 -10.0 14.65 -9.35 14.6 -9.1 14.7 -8.9 14.75 -8.65 14.9 -8.55" fill="#bece4d" fill-rule="evenodd" stroke="none"/>
    <path d="M19.1 -26.65 L19.1 -26.7 19.3 -26.95 19.15 -26.75 19.1 -26.65" fill="#f5e08b" fill-rule="evenodd" stroke="none"/>
    <path d="M8.45 -27.95 Q6.45 -28.45 5.55 -28.75 L5.65 -28.5 5.7 -28.25 Q5.7 -28.15 5.6 -28.05 5.5 -28.0 5.5 -27.9 5.5 -27.4 6.5 -26.6 L7.85 -25.7 7.75 -25.65 7.55 -25.45 Q6.7 -25.75 6.05 -26.35 5.7 -26.75 5.4 -27.25 L5.25 -27.5 5.2 -27.7 Q4.85 -28.35 4.6 -29.25 4.55 -29.45 4.55 -29.65 4.95 -29.4 5.8 -29.15 L5.85 -29.15 Q6.5 -28.9 6.85 -28.8 L7.1 -28.8 8.2 -28.6 9.2 -28.45 9.3 -28.35 10.1 -27.65 10.15 -27.6 10.05 -27.55 Q9.55 -27.9 8.75 -27.95 L8.45 -27.95 M8.4 -26.0 L8.8 -26.15 Q7.85 -25.15 7.2 -24.55 6.45 -23.9 5.75 -23.35 L6.5 -23.45 9.35 -23.8 Q9.65 -24.05 10.35 -24.9 11.0 -25.6 11.6 -25.7 L12.05 -26.8 Q12.65 -28.1 12.65 -28.35 12.65 -28.4 12.15 -29.15 11.7 -29.9 11.6 -30.4 L11.55 -31.4 Q11.55 -32.05 11.4 -32.45 L11.35 -32.5 10.95 -31.25 Q10.55 -30.05 10.55 -29.8 10.55 -29.7 10.7 -29.1 10.9 -28.5 10.9 -28.3 10.9 -28.05 10.75 -27.85 L10.6 -28.2 Q10.3 -28.85 10.15 -28.95 L10.1 -29.05 10.1 -29.15 Q10.0 -30.8 11.5 -33.15 11.55 -32.2 12.4 -30.65 13.1 -29.3 13.4 -28.6 L13.4 -28.3 Q13.1 -27.9 12.85 -27.4 12.6 -26.95 12.35 -26.2 L12.15 -25.65 11.9 -25.15 11.85 -25.2 11.8 -25.2 11.8 -25.25 11.65 -25.3 11.5 -25.3 Q11.2 -25.25 10.85 -24.9 10.55 -24.55 10.55 -24.35 L10.55 -24.15 10.5 -24.15 10.2 -23.8 10.15 -23.7 10.1 -23.65 10.05 -23.65 9.65 -23.35 Q9.0 -23.0 8.1 -22.9 L7.45 -22.85 6.35 -22.95 5.6 -22.95 5.35 -23.05 6.1 -23.75 6.25 -23.9 6.4 -24.0 7.05 -24.55 7.45 -24.9 7.6 -25.05 Q7.95 -25.55 8.4 -26.0 M11.3 -29.5 L11.4 -29.6 11.55 -29.7 11.6 -29.55 11.6 -29.45 Q11.6 -29.4 11.5 -29.4 L11.35 -29.4 11.35 -29.35 Q11.3 -29.35 11.3 -29.5 M11.85 -28.6 L11.85 -28.45 11.7 -28.4 11.65 -28.45 Q11.6 -28.5 11.6 -28.6 L11.65 -28.8 11.7 -28.85 Q11.85 -28.8 11.85 -28.6 M9.9 -25.0 L9.95 -24.9 9.9 -24.55 Q9.95 -24.5 9.75 -24.5 L9.6 -24.55 9.55 -24.55 9.55 -24.75 Q9.55 -24.9 9.6 -24.95 L9.9 -25.0 M6.85 -28.1 L6.95 -27.95 6.85 -27.8 6.75 -27.75 6.6 -27.8 6.6 -27.95 Q6.6 -28.05 6.65 -28.1 6.75 -28.15 6.85 -28.1 M6.3 -27.6 L6.25 -27.55 6.1 -27.55 Q5.8 -27.6 5.8 -27.85 5.8 -27.95 5.95 -28.0 L6.25 -27.95 6.3 -27.75 6.3 -27.6 M8.1 -24.55 L8.05 -24.5 8.05 -24.65 Q8.05 -24.85 8.05 -24.8 8.2 -24.8 8.25 -24.75 L8.25 -24.65 Q8.25 -24.6 8.1 -24.55 M8.05 -24.4 L8.2 -24.3 8.2 -24.15 8.15 -24.05 8.05 -23.95 7.95 -24.0 Q7.95 -24.05 7.95 -24.2 7.95 -24.3 7.95 -24.35 L8.05 -24.4" fill="#faeff4" fill-rule="evenodd" stroke="none"/>
    <path d="M6.95 -4.45 Q7.2 -4.45 7.45 -4.05 7.65 -3.7 7.65 -3.45 L7.95 -3.65 Q8.15 -3.7 8.4 -3.7 9.35 -3.7 9.35 -2.45 L9.35 -2.0 Q9.2 -1.95 9.0 -1.9 8.6 -1.7 8.3 -1.3 8.0 -0.85 8.0 -0.35 L8.0 0.15 Q8.1 0.6 8.7 0.6 9.3 0.6 9.7 -0.3 10.0 -0.95 10.0 -1.25 L11.9 -2.85 Q13.5 -4.2 13.6 -4.2 13.75 -4.2 13.95 -4.0 L12.95 -1.55 13.9 -2.65 13.5 -1.4 13.15 -0.75 12.35 0.1 11.2 1.3 11.1 1.25 11.3 1.0 10.45 2.0 10.15 2.3 9.65 2.75 9.1 3.15 8.75 3.45 8.5 3.65 8.35 3.65 8.2 3.8 8.15 3.8 8.2 3.75 7.4 2.9 7.35 2.9 Q7.35 2.75 7.15 2.35 L6.95 1.9 6.85 1.7 Q6.3 0.2 6.3 -0.85 6.3 -1.85 6.6 -2.95 L6.7 -3.3 6.7 -3.25 6.8 -3.85 6.95 -4.45 M10.1 -6.7 Q9.4 -4.55 9.0 -4.55 8.55 -4.55 8.35 -4.8 L8.2 -5.05 8.2 -5.95 Q8.35 -6.85 9.0 -7.05 L9.95 -7.05 10.05 -7.0 Q10.1 -6.9 10.1 -6.7 M10.9 -3.6 L10.8 -3.45 Q10.7 -3.35 10.55 -3.35 10.3 -3.35 10.3 -3.4 10.25 -3.45 10.25 -3.7 10.25 -4.05 10.3 -4.15 10.4 -4.35 10.9 -4.25 L10.95 -4.2 11.0 -3.9 Q11.0 -3.7 10.9 -3.6 M14.6 -3.7 Q15.0 -3.6 15.4 -2.9 L16.05 -1.7 Q16.35 -2.15 16.85 -3.2 17.45 -4.5 17.65 -4.8 18.3 -6.0 19.4 -6.55 L19.5 -6.55 19.65 -6.05 19.5 -5.85 19.45 -5.85 19.45 -5.65 Q19.45 -5.2 19.4 -4.8 18.75 -3.55 17.55 -1.55 L16.8 -0.2 Q16.25 0.3 15.8 0.6 L15.15 -0.15 14.55 -0.9 Q14.55 -0.95 14.5 -1.0 L14.6 -3.7 M20.3 -5.95 Q20.15 -6.2 20.15 -6.5 20.15 -7.1 20.7 -7.05 L21.95 -5.55 21.7 -5.5 21.3 -5.65 21.05 -5.7 20.8 -5.8 20.7 -5.8 20.6 -5.85 20.3 -5.95 M17.2 -6.7 Q17.45 -6.7 17.8 -6.45 17.75 -6.25 17.7 -6.2 17.6 -6.1 17.3 -6.1 L17.0 -6.15 16.9 -6.2 16.9 -6.45 Q16.9 -6.75 17.2 -6.7 M8.7 0.6 L8.7 0.6" fill="#bbc776" fill-rule="evenodd" stroke="none"/>
    <path d="M10.15 -15.7 L10.4 -15.6 10.65 -14.25 Q10.75 -13.55 10.9 -13.3 L10.85 -13.2 10.75 -13.0 10.75 -12.95 10.05 -11.8 9.95 -11.55 Q9.95 -11.45 10.0 -11.3 L10.15 -11.15 10.15 -11.1 Q10.2 -11.05 10.1 -11.05 L9.9 -11.2 9.85 -11.25 Q9.7 -11.45 9.7 -11.55 L10.4 -14.0 Q10.4 -14.4 10.3 -15.0 L10.15 -15.7 M19.2 -14.55 L18.9 -13.1 18.7 -12.7 18.35 -12.4 Q18.45 -12.7 18.6 -13.0 19.05 -13.9 19.05 -14.35 19.05 -14.45 18.95 -14.85 18.95 -15.1 19.1 -14.85 L19.2 -14.55 M13.35 -12.25 L13.25 -12.45 13.35 -12.25 M12.4 -13.8 L12.2 -14.2 12.7 -14.05 12.6 -13.95 12.4 -13.8 M9.35 -15.6 L9.8 -14.85 9.35 -15.6" fill="#91953e" fill-rule="evenodd" stroke="none"/>
    <path d="M26.0 -17.65 L25.9 -17.2 25.85 -17.3 26.0 -17.65 M21.15 -12.25 L20.75 -12.3 20.7 -12.4 Q20.85 -12.25 21.15 -12.25 M20.25 -12.3 L19.65 -11.45 20.25 -12.3 M11.95 -15.9 L11.35 -15.95 11.95 -15.9 M10.2 -21.5 L10.2 -21.4 10.2 -21.5 M9.45 -20.45 L9.4 -20.35 9.3 -20.45 9.3 -20.6 Q9.35 -20.55 9.45 -20.45 M6.95 -4.45 L7.0 -4.8 7.0 -5.1 Q7.1 -6.05 7.35 -7.3 L7.55 -8.4 7.8 -9.35 7.85 -9.45 8.25 -9.2 Q8.5 -9.0 8.85 -8.8 L9.2 -8.6 Q9.55 -8.45 10.05 -8.3 L10.4 -8.2 Q12.25 -7.65 14.05 -7.65 L14.35 -7.65 14.05 -4.7 13.95 -4.0 Q13.75 -4.2 13.6 -4.2 13.5 -4.2 11.9 -2.85 L10.0 -1.25 Q10.0 -0.95 9.7 -0.3 9.3 0.6 8.7 0.6 8.1 0.6 8.0 0.15 L8.0 -0.35 Q8.0 -0.85 8.3 -1.3 8.6 -1.7 9.0 -1.9 9.2 -1.95 9.35 -2.0 L9.35 -2.45 Q9.35 -3.7 8.4 -3.7 8.15 -3.7 7.95 -3.65 L7.65 -3.45 Q7.65 -3.7 7.45 -4.05 7.2 -4.45 6.95 -4.45 M8.7 0.6 L8.7 0.6 M10.9 -3.6 Q11.0 -3.7 11.0 -3.9 L10.95 -4.2 10.9 -4.25 Q10.4 -4.35 10.3 -4.15 10.25 -4.05 10.25 -3.7 10.25 -3.45 10.3 -3.4 10.3 -3.35 10.55 -3.35 10.7 -3.35 10.8 -3.45 L10.9 -3.6 M10.1 -6.7 Q10.1 -6.9 10.05 -7.0 L9.95 -7.05 9.0 -7.05 Q8.35 -6.85 8.2 -5.95 L8.2 -5.05 8.35 -4.8 Q8.55 -4.55 9.0 -4.55 9.4 -4.55 10.1 -6.7 M6.85 -5.35 L6.7 -5.35 6.45 -5.05 7.05 -6.7 6.85 -5.35 M14.6 -3.7 L14.65 -7.7 Q16.05 -7.85 18.35 -8.75 L19.15 -9.05 19.5 -6.55 19.4 -6.55 Q18.3 -6.0 17.65 -4.8 17.45 -4.5 16.85 -3.2 16.35 -2.15 16.05 -1.7 L15.4 -2.9 Q15.0 -3.6 14.6 -3.7 M16.8 -0.2 Q16.3 0.65 16.15 1.0 L15.8 0.6 Q16.25 0.3 16.8 -0.2 M20.3 -5.95 L20.15 -6.0 20.05 -5.95 19.7 -5.95 19.6 -5.9 19.65 -6.0 19.45 -8.7 20.7 -7.05 Q20.15 -7.1 20.15 -6.5 20.15 -6.2 20.3 -5.95 M17.2 -6.7 Q16.9 -6.75 16.9 -6.45 L16.9 -6.2 17.0 -6.15 17.3 -6.1 Q17.6 -6.1 17.7 -6.2 17.75 -6.25 17.8 -6.45 17.45 -6.7 17.2 -6.7" fill="#5a6d1b" fill-rule="evenodd" stroke="none"/>
    <path d="M16.3 -13.3 L15.9 -13.5 16.3 -13.3 M6.5 -18.7 Q6.5 -19.3 7.0 -18.35 7.55 -17.45 7.55 -17.3 L7.55 -17.2 7.5 -17.1 Q7.5 -17.05 7.35 -17.05 7.1 -17.05 6.75 -17.85 6.6 -18.25 6.5 -18.7 M23.05 -13.75 Q23.05 -13.9 23.95 -14.65 24.85 -15.4 25.1 -15.4 L25.15 -15.0 Q25.15 -14.6 24.65 -14.05 24.1 -13.4 23.55 -13.4 23.15 -13.4 23.05 -13.55 23.05 -13.6 23.05 -13.75 M25.9 -15.9 Q25.9 -16.0 26.05 -16.05 L26.45 -16.0 26.45 -15.7 Q26.4 -15.65 26.2 -15.65 L26.0 -15.7 25.95 -15.75 Q25.9 -15.75 25.9 -15.9" fill="#a7b733" fill-rule="evenodd" stroke="none"/>
    <path d="M22.3 -23.35 L22.85 -23.5 23.55 -23.65 24.2 -24.1 25.3 -24.8 25.55 -20.6 Q25.15 -19.75 25.1 -19.4 24.75 -18.2 23.2 -16.4 L22.2 -15.25 21.95 -14.9 21.8 -14.95 21.8 -15.3 21.6 -15.25 21.55 -14.85 21.4 -14.8 20.8 -14.0 Q20.7 -13.75 20.6 -13.45 20.55 -13.55 20.4 -13.55 20.1 -13.5 19.7 -13.1 L18.65 -11.25 Q18.65 -11.15 18.7 -11.05 L18.6 -10.95 18.6 -11.4 19.2 -12.8 19.3 -13.05 19.45 -13.7 19.55 -14.2 19.45 -15.05 19.3 -15.85 19.2 -16.1 18.95 -16.5 Q19.0 -17.0 19.2 -18.15 L19.2 -18.65 Q19.2 -19.25 19.25 -19.95 L19.25 -20.1 11.6 -17.5 Q11.45 -17.35 11.35 -17.1 L11.75 -19.95 11.9 -20.5 12.45 -21.7 Q12.45 -22.25 12.15 -22.35 11.9 -22.45 11.5 -22.15 11.15 -21.85 10.85 -21.4 10.7 -21.15 10.65 -20.95 L10.65 -21.05 Q10.6 -21.35 10.65 -21.5 L11.65 -23.7 Q11.45 -23.65 11.3 -23.55 L11.25 -23.45 Q10.75 -22.7 10.5 -22.45 L10.45 -22.4 Q10.1 -22.3 9.65 -21.65 9.3 -21.05 9.25 -20.85 9.25 -21.1 9.35 -21.4 9.45 -21.8 9.65 -22.35 9.75 -22.55 10.0 -22.75 L10.3 -23.05 Q10.55 -23.3 11.4 -24.55 11.6 -24.9 11.7 -24.9 11.8 -24.9 11.8 -24.7 L11.9 -24.65 11.95 -24.65 12.05 -24.75 12.15 -24.8 12.1 -24.85 12.15 -25.0 12.4 -25.5 Q12.6 -27.4 14.15 -28.4 L14.45 -28.65 15.0 -29.05 15.1 -29.2 16.1 -30.3 Q16.65 -31.05 17.1 -31.6 L17.6 -32.35 18.4 -33.35 17.35 -30.25 16.1 -25.45 Q16.25 -25.1 16.6 -25.1 L16.85 -25.15 Q17.25 -24.95 17.75 -24.8 L18.05 -24.9 18.1 -24.9 18.35 -25.0 18.65 -25.1 18.65 -25.45 18.75 -25.8 Q18.95 -26.45 19.1 -26.65 L19.15 -26.75 19.3 -26.95 Q19.6 -27.5 20.05 -27.7 20.15 -27.6 20.3 -27.55 L21.0 -25.7 20.55 -24.4 Q20.55 -24.05 20.7 -23.75 21.0 -23.1 21.9 -23.1 22.1 -23.1 22.3 -23.35 M25.7 -25.05 L26.65 -25.8 27.1 -26.3 27.15 -26.35 Q27.95 -27.15 28.7 -28.0 L29.0 -28.3 29.15 -28.4 29.4 -28.6 29.8 -29.05 29.85 -29.0 Q29.75 -28.7 29.7 -28.3 L29.7 -27.75 Q29.25 -27.3 28.35 -25.9 L25.7 -25.05 M20.9 -27.95 Q21.35 -28.1 22.8 -28.9 L23.9 -29.55 24.35 -29.9 24.0 -28.95 23.95 -28.95 Q23.75 -28.95 23.4 -28.55 22.45 -27.3 22.0 -26.95 L21.85 -26.8 21.7 -26.7 Q21.7 -27.15 21.4 -27.55 21.15 -27.8 20.9 -27.95 M22.7 -17.65 Q22.7 -17.55 22.75 -17.4 22.85 -17.2 23.2 -17.2 23.4 -17.2 23.55 -17.35 23.65 -17.5 23.65 -17.7 23.65 -18.3 23.2 -18.2 22.7 -18.1 22.7 -17.65 M22.8 -16.85 Q22.8 -17.25 22.55 -17.35 22.3 -17.5 21.95 -17.4 21.65 -17.25 21.4 -17.0 21.15 -16.7 21.15 -16.4 21.1 -16.2 21.2 -16.05 21.3 -15.8 21.7 -15.8 22.2 -15.8 22.55 -16.2 22.8 -16.55 22.8 -16.85" fill="#c07129" fill-rule="evenodd" stroke="none"/>
    <path d="M24.0 -28.95 L23.8 -28.55 Q23.45 -27.7 22.9 -26.75 22.75 -26.5 22.65 -26.2 22.55 -25.7 22.55 -25.05 L22.4 -24.2 Q22.25 -23.7 22.2 -23.45 L22.2 -23.3 22.3 -23.35 Q22.1 -23.1 21.9 -23.1 21.0 -23.1 20.7 -23.75 20.55 -24.05 20.55 -24.4 L21.0 -25.7 20.3 -27.55 Q20.15 -27.6 20.05 -27.7 L20.2 -27.75 20.65 -27.85 20.75 -27.85 20.85 -27.9 20.9 -27.95 Q21.15 -27.8 21.4 -27.55 21.7 -27.15 21.7 -26.7 L21.85 -26.8 22.0 -26.95 Q22.45 -27.3 23.4 -28.55 23.75 -28.95 23.95 -28.95 L24.0 -28.95 M25.3 -24.8 L25.7 -25.05 28.35 -25.9 Q29.25 -27.3 29.7 -27.75 L29.7 -27.25 Q29.55 -26.85 29.4 -26.65 L28.8 -25.7 28.6 -25.4 Q27.5 -23.9 27.25 -23.05 L27.25 -22.95 27.2 -22.65 Q27.15 -22.05 26.85 -20.7 L26.5 -19.55 26.4 -19.25 26.0 -17.8 26.0 -17.65 25.85 -17.3 25.9 -17.2 25.9 -16.85 25.85 -16.8 25.85 -16.7 Q25.85 -16.5 24.3 -15.5 22.9 -14.6 22.25 -14.3 L22.15 -14.25 21.9 -14.35 21.8 -14.95 21.95 -14.9 22.2 -15.25 23.2 -16.4 Q24.75 -18.2 25.1 -19.4 25.15 -19.75 25.55 -20.6 L25.3 -24.8 M7.6 -18.7 L7.85 -19.2 Q8.15 -19.65 8.7 -20.15 L8.9 -20.4 8.9 -20.2 8.95 -20.05 8.9 -19.85 Q8.95 -19.7 9.0 -19.6 L8.85 -19.15 8.75 -19.0 8.35 -18.0 8.15 -17.6 8.15 -17.5 8.0 -17.5 Q7.8 -17.5 7.65 -17.8 7.5 -18.0 7.5 -18.1 7.5 -18.4 7.6 -18.7 M21.55 -14.85 L21.55 -14.75 Q21.55 -14.5 21.75 -13.95 L21.9 -13.3 21.95 -13.05 Q21.95 -12.9 21.65 -12.6 21.4 -12.25 21.15 -12.25 20.85 -12.25 20.7 -12.4 L20.7 -12.5 Q20.7 -12.6 20.8 -12.75 L20.8 -12.8 Q20.8 -12.85 20.8 -13.0 20.8 -13.3 20.65 -13.4 L20.6 -13.45 20.55 -13.45 20.55 -13.4 20.4 -12.7 20.25 -12.3 19.65 -11.45 19.0 -11.2 18.7 -11.05 Q18.65 -11.15 18.65 -11.25 L19.7 -13.1 Q20.1 -13.5 20.4 -13.55 20.55 -13.55 20.6 -13.45 20.7 -13.75 20.8 -14.0 L21.4 -14.8 21.55 -14.85 M19.25 -20.1 L19.05 -20.3 18.95 -19.95 18.9 -19.8 18.85 -19.8 18.55 -19.2 18.5 -19.05 18.35 -18.85 17.7 -18.15 15.45 -17.55 14.3 -17.45 Q13.6 -17.35 13.05 -17.0 L11.95 -15.9 11.35 -15.95 11.35 -17.1 Q11.45 -17.35 11.6 -17.5 L19.25 -20.1 M11.9 -20.5 L11.9 -20.65 Q11.75 -20.6 11.35 -20.45 10.95 -20.25 10.8 -20.1 L10.75 -20.15 10.7 -20.15 10.65 -20.9 10.65 -20.95 Q10.7 -21.15 10.85 -21.4 11.15 -21.85 11.5 -22.15 11.9 -22.45 12.15 -22.35 12.45 -22.25 12.45 -21.7 L11.9 -20.5 M10.45 -22.4 L10.45 -22.35 Q10.35 -22.1 10.3 -21.8 L10.2 -21.5 10.2 -21.4 10.15 -21.4 10.15 -21.35 10.1 -21.4 Q9.95 -21.25 9.75 -20.9 L9.7 -20.85 9.55 -20.55 9.45 -20.45 Q9.35 -20.55 9.3 -20.6 L9.3 -20.75 9.25 -20.8 9.25 -20.85 Q9.3 -21.05 9.65 -21.65 10.1 -22.3 10.45 -22.4 M18.4 -33.35 L19.0 -33.8 19.1 -33.7 19.05 -33.35 Q19.05 -33.0 18.2 -30.4 L17.85 -29.4 17.7 -29.05 17.5 -27.55 17.4 -27.05 Q17.3 -26.65 17.15 -26.3 L16.75 -25.7 16.5 -25.35 16.7 -25.25 16.85 -25.15 16.6 -25.1 Q16.25 -25.1 16.1 -25.45 L17.35 -30.25 18.4 -33.35 M22.8 -16.85 Q22.8 -16.55 22.55 -16.2 22.2 -15.8 21.7 -15.8 21.3 -15.8 21.2 -16.05 21.1 -16.2 21.15 -16.4 21.15 -16.7 21.4 -17.0 21.65 -17.25 21.95 -17.4 22.3 -17.5 22.55 -17.35 22.8 -17.25 22.8 -16.85 M22.7 -17.65 Q22.7 -18.1 23.2 -18.2 23.65 -18.3 23.65 -17.7 23.65 -17.5 23.55 -17.35 23.4 -17.2 23.2 -17.2 22.85 -17.2 22.75 -17.4 22.7 -17.55 22.7 -17.65" fill="#99380f" fill-rule="evenodd" stroke="none"/>
    <path d="M16.8 -25.55 L16.75 -25.55 16.75 -25.5 16.8 -25.55 M22.45 -23.95 L22.5 -23.7 22.5 -23.6 Q22.45 -23.55 22.3 -23.55 L22.2 -23.6 22.45 -23.9 22.45 -23.95 M21.5 -16.7 L21.45 -16.7 21.5 -16.7 M20.8 -12.9 L20.65 -12.8 20.65 -12.75 Q20.6 -12.75 20.6 -12.85 L20.7 -13.25 20.7 -13.3 20.8 -12.9 M19.9 -11.55 L20.25 -11.95 Q20.4 -12.15 20.5 -12.2 L20.65 -12.15 20.65 -12.0 Q20.65 -11.7 20.0 -11.15 19.35 -10.55 18.85 -10.55 L18.45 -10.6 18.35 -10.7 18.15 -11.35 18.2 -11.65 18.3 -12.05 18.35 -12.2 Q18.45 -12.5 18.65 -12.8 19.15 -13.7 19.15 -14.5 19.15 -14.95 18.85 -15.35 18.55 -15.75 18.55 -16.05 18.55 -17.05 18.7 -17.95 L18.8 -18.75 18.15 -18.2 Q17.15 -17.5 16.85 -17.5 14.65 -17.35 13.6 -17.0 13.5 -17.0 13.3 -16.9 13.0 -16.75 12.8 -16.55 L12.7 -16.3 12.5 -15.95 Q12.35 -15.65 11.95 -15.5 L11.9 -15.45 11.8 -15.55 11.7 -15.55 Q11.1 -15.55 11.0 -15.75 10.9 -15.9 10.95 -16.0 10.95 -16.95 11.3 -18.85 11.65 -21.15 12.25 -22.1 12.4 -22.45 12.55 -22.6 L12.6 -22.45 12.4 -21.7 12.3 -21.4 12.25 -21.15 12.0 -20.25 Q11.7 -19.55 11.7 -19.2 L11.65 -18.75 11.55 -17.7 11.5 -17.3 Q11.4 -16.95 11.4 -16.6 11.4 -16.4 11.4 -16.25 L11.45 -16.1 Q11.55 -15.95 11.75 -15.95 11.85 -15.95 11.95 -16.2 L12.05 -16.25 12.05 -16.1 12.2 -16.05 Q12.7 -16.65 13.95 -17.35 L14.7 -17.5 16.1 -17.75 16.2 -17.7 16.4 -17.7 Q16.95 -17.7 17.55 -18.15 17.85 -18.4 18.0 -18.6 L18.45 -19.0 Q18.85 -19.45 19.05 -19.85 L19.25 -19.6 Q19.2 -19.45 19.2 -19.35 L19.15 -19.15 19.2 -18.45 Q19.0 -16.95 18.95 -16.35 L18.9 -16.05 Q18.9 -15.85 19.3 -15.2 L19.4 -15.05 Q19.55 -14.7 19.55 -14.5 19.55 -13.65 19.1 -12.75 L18.85 -12.2 Q18.5 -11.6 18.5 -11.45 18.5 -11.35 18.55 -11.3 L18.55 -11.25 18.45 -10.9 18.55 -10.9 19.0 -10.95 19.1 -10.95 Q19.45 -10.95 19.9 -11.55 M17.8 -8.95 L18.95 -9.3 19.0 -9.3 Q19.3 -9.3 20.75 -7.55 L20.95 -7.3 20.95 -7.35 19.95 -8.75 19.3 -9.15 Q19.35 -9.4 19.7 -9.3 L19.6 -9.45 Q19.6 -9.6 19.75 -9.6 L19.8 -9.6 Q19.75 -9.55 19.75 -9.4 L20.0 -9.15 20.15 -9.15 20.2 -9.05 20.35 -8.95 Q21.3 -8.3 21.45 -8.0 L21.4 -7.9 Q21.4 -7.85 21.3 -7.85 L20.7 -8.2 21.2 -7.6 Q21.85 -6.65 22.25 -5.75 L22.25 -5.7 22.6 -5.2 Q22.6 -5.0 22.45 -4.85 21.8 -5.65 20.2 -7.55 L20.0 -7.75 Q19.3 -8.55 19.05 -8.9 18.9 -9.1 18.9 -9.15 L18.9 -9.2 Q17.9 -8.75 16.7 -8.35 15.15 -7.85 14.25 -7.7 15.0 -8.0 16.3 -8.45 L16.7 -8.6 17.8 -8.95 M16.7 -11.85 L16.55 -11.8 Q16.4 -11.8 15.7 -12.6 14.95 -13.45 14.6 -13.55 L13.6 -13.55 13.7 -13.45 13.75 -13.5 Q13.95 -13.55 14.2 -13.4 14.45 -13.3 14.6 -13.15 L14.85 -13.05 Q15.15 -12.85 15.3 -12.6 15.05 -12.75 14.9 -12.75 L14.35 -12.95 14.3 -13.0 Q14.7 -12.6 14.7 -12.1 L14.65 -11.8 Q14.6 -11.7 14.4 -11.7 L14.35 -11.7 14.65 -11.65 14.7 -11.65 15.05 -11.6 15.1 -11.6 15.05 -11.6 15.65 -11.7 Q15.9 -11.8 16.0 -11.75 L15.65 -11.6 Q15.3 -11.45 15.1 -11.45 L14.5 -11.45 14.4 -11.5 14.35 -11.55 14.25 -11.6 Q14.2 -11.55 14.15 -11.55 L14.05 -11.55 Q13.95 -11.55 13.8 -11.65 L13.65 -11.8 Q13.3 -12.0 13.1 -12.4 L12.95 -12.7 Q12.85 -12.9 12.8 -13.1 L12.85 -13.25 12.75 -13.3 12.5 -13.55 12.4 -13.65 12.4 -13.7 Q12.45 -13.85 12.75 -14.0 13.05 -14.15 13.45 -14.2 L13.55 -14.25 Q14.3 -13.95 15.55 -13.05 L16.45 -12.4 16.65 -11.9 16.7 -11.85 M10.85 -13.5 Q10.8 -13.05 10.65 -12.6 10.4 -11.95 9.8 -11.25 9.75 -11.25 9.75 -11.35 L9.85 -11.5 10.15 -12.0 Q10.6 -12.9 10.6 -13.3 L10.6 -13.4 10.6 -13.45 10.6 -13.6 Q10.55 -14.0 10.45 -14.1 L10.45 -14.2 Q10.7 -13.75 10.85 -13.5 M8.3 -14.6 L8.25 -14.9 8.15 -15.2 8.15 -15.55 Q8.1 -15.1 7.85 -14.2 L7.5 -12.85 Q7.5 -12.15 8.4 -10.55 9.1 -9.3 9.5 -8.75 L9.45 -8.7 Q9.45 -8.65 9.3 -8.65 8.6 -8.65 7.95 -10.05 7.85 -10.0 7.7 -9.85 L7.6 -9.7 7.65 -9.65 Q7.7 -9.65 7.7 -9.55 7.7 -9.45 7.25 -8.75 L7.2 -8.65 7.15 -8.15 7.1 -8.1 7.0 -8.05 Q6.9 -8.1 6.9 -8.15 6.65 -7.9 6.5 -7.8 L6.5 -7.75 Q6.45 -7.75 6.45 -7.85 6.45 -8.25 6.85 -8.85 6.9 -9.15 7.05 -9.5 7.35 -10.2 7.85 -10.3 L7.7 -10.7 Q7.4 -11.55 7.2 -12.35 6.6 -12.5 6.25 -13.7 L5.95 -16.85 5.65 -19.45 5.65 -20.7 5.85 -20.7 Q6.0 -20.7 6.5 -20.1 L7.0 -19.4 7.0 -19.35 7.2 -19.15 7.25 -19.3 7.3 -19.3 Q7.6 -19.3 8.15 -20.15 8.55 -20.75 8.65 -21.1 L8.85 -21.4 Q9.0 -21.75 9.05 -22.0 L8.45 -22.05 Q8.4 -22.15 8.4 -22.25 8.4 -22.4 8.45 -22.4 8.95 -22.35 9.1 -21.95 9.15 -21.8 9.15 -21.3 9.15 -21.2 8.5 -20.05 8.15 -19.9 7.9 -19.45 7.65 -19.0 7.6 -18.6 L7.45 -18.4 Q7.3 -18.4 6.55 -19.25 6.2 -19.7 5.95 -20.05 6.15 -19.5 6.15 -18.85 L6.1 -16.75 Q6.05 -15.45 6.3 -14.6 6.5 -13.7 7.1 -13.0 7.1 -13.4 7.2 -13.7 L7.55 -14.85 Q7.65 -15.3 7.75 -15.65 L7.85 -15.9 7.7 -16.05 Q7.45 -16.45 7.45 -16.6 7.45 -17.2 8.15 -16.85 L8.45 -17.85 8.6 -18.2 8.7 -18.45 8.9 -19.0 Q8.9 -19.45 9.1 -19.4 9.4 -20.15 9.65 -20.45 L9.75 -20.4 Q9.8 -20.35 9.8 -20.25 L9.8 -20.2 9.6 -19.85 9.2 -18.9 9.0 -18.5 9.0 -18.45 Q9.4 -18.3 9.7 -17.7 L10.15 -16.6 Q10.5 -15.45 10.6 -14.5 10.55 -14.45 10.45 -14.4 10.3 -14.7 10.15 -15.15 L10.1 -15.35 9.85 -16.3 9.85 -16.35 Q9.55 -17.35 8.75 -17.95 8.45 -17.2 8.45 -16.9 L8.45 -16.8 8.4 -16.7 8.5 -16.65 8.55 -16.6 8.6 -16.55 9.05 -16.15 9.45 -15.7 Q9.7 -15.35 9.85 -14.75 L10.1 -13.85 10.1 -13.45 9.95 -13.4 9.8 -13.65 Q9.65 -14.05 9.5 -14.65 L9.4 -14.7 9.45 -14.4 Q9.45 -13.85 9.35 -13.65 9.3 -13.55 9.2 -13.55 9.0 -13.55 8.85 -13.7 L8.65 -13.85 Q8.5 -14.05 8.35 -14.5 L8.3 -14.6 M16.55 -15.45 Q17.85 -15.15 18.0 -14.15 L17.95 -14.1 17.85 -14.05 17.8 -14.15 Q17.65 -14.45 17.35 -14.7 16.75 -15.1 15.05 -15.1 14.35 -15.1 13.2 -14.8 L12.15 -14.5 11.9 -14.55 Q12.0 -14.85 12.85 -15.05 L13.35 -15.2 Q14.3 -15.5 15.25 -15.5 L16.55 -15.45 M8.3 -15.95 L8.35 -15.95 Q8.45 -15.95 8.55 -15.8 8.7 -15.9 8.9 -15.75 8.65 -16.05 8.25 -16.25 L8.2 -16.05 8.3 -15.95 M8.45 -14.85 L8.6 -14.45 Q8.8 -14.0 9.05 -14.0 9.25 -14.0 9.3 -14.05 L9.35 -14.3 Q9.35 -14.75 8.9 -15.1 8.45 -15.4 8.45 -14.85 M9.7 -9.9 L9.55 -10.0 9.6 -10.0 Q9.85 -10.0 10.5 -9.8 L11.85 -9.4 12.35 -9.45 12.55 -9.45 12.85 -9.45 13.2 -9.5 12.85 -9.3 12.65 -9.2 12.35 -9.2 11.95 -9.2 Q11.25 -9.2 10.4 -9.55 9.95 -9.75 9.7 -9.9 M24.5 -11.8 L24.6 -11.95 Q24.75 -12.25 24.75 -12.3 L24.55 -12.7 Q23.8 -12.65 23.35 -12.35 L23.0 -12.2 Q22.5 -11.8 22.3 -11.8 L22.75 -12.3 24.45 -14.0 25.4 -14.8 26.3 -15.45 Q26.7 -15.7 27.1 -15.95 L27.2 -16.0 27.2 -15.95 Q26.4 -15.35 24.4 -13.45 L23.65 -12.7 Q24.05 -12.85 24.6 -12.85 L24.9 -12.55 24.95 -12.3 Q24.95 -12.15 24.8 -11.85 24.65 -11.55 24.5 -11.45 L24.35 -11.45 24.3 -11.5 24.5 -11.8 M13.2 -12.8 Q13.25 -12.6 13.35 -12.4 13.55 -12.0 13.95 -12.0 14.25 -12.0 14.25 -12.35 14.25 -12.7 13.75 -13.1 13.2 -13.45 13.2 -12.8 M14.55 -0.8 L15.05 -0.1 15.0 0.0 Q14.95 0.05 14.85 0.05 14.65 0.05 14.4 -0.25 14.2 -0.55 14.2 -0.6 L14.2 -0.75 Q14.25 -1.15 14.5 -0.9 L14.55 -0.8 M27.2 -23.0 Q27.4 -22.45 27.4 -22.15 L27.4 -22.0 27.35 -22.0 Q27.35 -21.95 27.2 -21.95 L27.1 -22.25 Q27.2 -22.65 27.2 -23.0" fill="#000000" fill-rule="evenodd" stroke="none"/>
    <path d="M14.1 -0.95 Q14.1 0.05 13.7 0.5 13.35 0.15 13.3 -0.4 L13.3 -1.25 13.25 -1.3 13.15 -1.05 Q13.1 -0.9 12.9 -0.85 12.8 -0.85 12.75 -0.9 L12.2 0.15 Q11.85 0.85 10.55 1.7 L8.15 3.25 8.0 3.25 Q7.95 3.2 7.95 3.1 7.95 2.95 8.35 2.7 L9.45 2.15 Q11.15 1.1 11.95 -0.25 L13.0 -2.0 13.4 -3.1 13.45 -3.2 13.45 -3.85 13.5 -3.85 13.5 -3.8 Q13.65 -3.9 13.75 -3.75 L13.8 -3.8 13.75 -3.1 13.75 -2.75 Q13.8 -2.55 13.9 -2.5 L14.0 -1.75 Q14.05 -1.25 14.1 -0.95" fill="#bbc776" fill-rule="evenodd" stroke="none"/>
    <path d="M8.5 -11.35 Q8.05 -11.5 7.9 -12.15 7.8 -12.6 7.85 -13.15 7.85 -13.7 7.85 -13.85 7.9 -14.3 8.2 -14.3 8.25 -13.8 8.55 -13.0 L8.6 -12.8 8.65 -12.6 8.75 -12.0 8.8 -11.7 8.65 -11.5 8.5 -11.35" fill="#ffffcc" fill-rule="evenodd" stroke="none"/>
    <path d="M18.35 -10.7 L18.4 -10.05 18.2 -9.85 18.15 -9.95 18.15 -9.7 18.1 -9.7 18.0 -9.6 18.0 -9.65 Q17.85 -9.8 17.75 -10.15 L17.65 -10.8 Q17.5 -11.15 17.15 -11.55 L17.1 -11.55 Q17.0 -11.5 16.9 -11.5 16.85 -11.5 16.7 -11.85 16.9 -11.85 17.0 -12.0 17.05 -12.15 17.05 -12.3 17.05 -13.05 16.55 -13.6 15.8 -14.35 14.15 -14.6 13.7 -14.65 13.55 -14.5 13.45 -14.45 13.45 -14.2 13.05 -14.15 12.75 -14.0 12.45 -13.85 12.4 -13.7 12.15 -13.6 12.1 -13.2 11.85 -13.2 11.8 -13.3 L11.8 -13.35 Q11.65 -13.3 11.6 -13.25 L11.5 -13.35 Q11.45 -13.2 11.2 -13.2 11.1 -13.2 10.85 -13.5 10.7 -13.75 10.45 -14.2 L10.35 -14.35 9.9 -15.25 10.05 -15.15 10.15 -15.15 Q10.3 -14.7 10.45 -14.4 10.55 -14.45 10.6 -14.5 10.5 -15.45 10.15 -16.6 L9.7 -17.7 Q9.4 -18.3 9.0 -18.45 L9.0 -18.5 9.2 -18.9 9.6 -19.85 9.8 -20.2 Q9.9 -20.35 10.05 -20.45 10.35 -20.7 10.35 -20.1 L10.25 -19.85 Q10.35 -19.7 10.35 -19.3 L10.3 -18.95 Q10.2 -18.7 10.2 -18.6 L10.4 -17.8 10.7 -16.75 10.85 -15.85 Q11.0 -15.3 11.0 -15.0 L11.0 -14.7 11.05 -14.6 Q11.4 -13.95 11.5 -13.65 L11.5 -13.7 11.7 -13.85 Q11.7 -13.95 11.75 -14.05 11.65 -14.1 11.6 -14.2 L11.6 -14.3 Q11.5 -14.45 11.5 -14.5 11.5 -14.75 11.8 -15.2 L11.95 -15.5 Q12.35 -15.65 12.5 -15.95 L12.7 -16.3 12.95 -16.5 Q13.15 -16.75 13.3 -16.9 13.5 -17.0 13.6 -17.0 L13.7 -16.9 13.75 -16.9 Q14.15 -17.1 14.6 -17.05 15.5 -17.25 15.95 -17.15 16.0 -17.25 16.0 -17.05 L15.8 -16.95 Q15.3 -16.85 14.65 -16.6 14.35 -16.6 14.25 -16.5 L14.3 -16.5 Q15.0 -16.4 15.95 -15.85 L16.55 -15.45 15.25 -15.5 Q14.3 -15.5 13.35 -15.2 L12.85 -15.05 Q12.0 -14.85 11.9 -14.55 L12.15 -14.5 13.2 -14.8 Q14.35 -15.1 15.05 -15.1 16.75 -15.1 17.35 -14.7 17.65 -14.45 17.8 -14.15 L17.85 -14.05 17.95 -14.1 Q18.25 -13.6 18.3 -13.2 L18.3 -13.1 18.3 -12.85 Q18.3 -12.6 18.25 -12.3 L18.25 -12.25 18.2 -12.15 18.3 -12.05 18.2 -11.65 18.15 -11.7 18.05 -11.65 18.0 -11.7 18.15 -11.35 18.35 -10.7 M14.4 -11.5 Q14.8 -11.2 15.25 -11.05 15.3 -11.15 15.3 -10.95 L15.3 -10.85 15.25 -10.85 14.9 -10.8 Q14.3 -10.8 13.4 -11.9 L12.8 -12.5 12.9 -12.65 12.95 -12.7 13.1 -12.4 Q13.3 -12.0 13.65 -11.8 L13.8 -11.65 Q13.95 -11.55 14.05 -11.55 L14.15 -11.55 Q14.2 -11.55 14.25 -11.6 L14.35 -11.55 14.4 -11.5 M9.75 -11.35 Q9.65 -11.2 9.55 -11.15 L9.6 -10.85 9.6 -10.5 9.55 -10.45 Q9.5 -10.4 9.4 -10.4 9.3 -10.4 9.1 -10.6 9.0 -10.75 8.85 -10.8 L9.15 -10.2 Q9.45 -9.55 9.75 -9.2 L9.75 -9.15 Q9.5 -9.3 9.3 -9.55 L9.45 -9.25 Q9.2 -9.35 8.8 -10.05 8.35 -10.75 8.35 -11.0 8.35 -11.15 8.4 -11.15 8.45 -11.25 8.5 -11.35 L8.65 -11.5 8.8 -11.7 8.85 -11.75 8.75 -12.0 8.65 -12.6 8.6 -12.8 8.25 -14.55 8.3 -14.6 8.35 -14.5 Q8.5 -14.05 8.65 -13.85 L8.85 -13.3 8.95 -13.2 Q8.95 -13.45 9.15 -13.45 9.4 -13.4 9.4 -13.15 9.4 -12.95 9.3 -12.75 L9.2 -12.75 9.3 -12.35 9.45 -11.65 9.8 -12.4 Q10.05 -12.9 10.15 -13.3 L10.2 -13.05 Q10.05 -12.8 9.8 -12.45 9.45 -11.8 9.45 -11.6 9.45 -11.45 9.5 -11.45 L9.7 -11.4 9.85 -11.5 9.75 -11.35 M12.5 -14.15 L12.3 -14.05 Q12.4 -14.1 12.45 -14.15 L12.5 -14.2 12.5 -14.15 M16.65 -11.9 L16.7 -11.85 16.65 -11.9 M8.5 -16.65 L8.45 -16.7 8.45 -16.8 8.45 -16.9 Q8.45 -17.2 8.75 -17.95 9.55 -17.35 9.85 -16.35 L9.65 -16.5 Q9.4 -16.7 9.2 -16.65 9.05 -16.65 9.0 -16.55 L8.9 -16.65 Q8.8 -16.55 8.7 -16.55 L8.6 -16.6 8.55 -16.6 8.5 -16.65 M10.6 -13.4 L10.55 -13.45 10.45 -13.35 10.45 -13.45 Q10.45 -13.8 10.4 -14.2 L10.45 -14.1 Q10.55 -14.0 10.6 -13.6 L10.6 -13.45 10.6 -13.4 M12.35 -9.2 L12.2 -9.05 Q12.0 -8.9 11.75 -8.9 L11.55 -8.9 11.55 -8.95 11.5 -9.05 11.15 -9.05 Q10.45 -9.25 10.0 -9.6 9.8 -9.75 9.7 -9.9 9.95 -9.75 10.4 -9.55 11.25 -9.2 11.95 -9.2 L12.35 -9.2 M9.6 -10.0 Q9.55 -10.1 9.55 -10.2 9.55 -10.6 10.65 -10.25 10.55 -10.3 10.55 -10.35 L10.55 -10.5 10.6 -10.55 11.25 -10.25 Q11.85 -10.0 12.45 -10.05 L12.5 -10.0 12.55 -9.9 12.4 -9.7 Q12.3 -9.6 12.15 -9.6 L11.95 -9.65 12.05 -9.5 Q12.35 -9.7 12.55 -9.65 L12.55 -9.45 12.35 -9.45 11.85 -9.4 10.5 -9.8 Q9.85 -10.0 9.6 -10.0" fill="#bece4d" fill-rule="evenodd" stroke="none"/>
    <path d="M20.0 -7.75 L20.05 -7.45 Q20.05 -7.35 20.0 -7.35 19.9 -7.35 19.9 -7.25 19.9 -7.15 20.0 -6.8 20.15 -6.45 20.15 -6.3 20.15 -6.1 20.05 -6.0 19.95 -5.9 19.85 -5.9 19.4 -5.9 19.2 -7.3 19.05 -8.0 19.0 -8.7 L19.05 -8.9 Q19.3 -8.55 20.0 -7.75 M7.9 -9.0 Q7.9 -8.85 7.5 -7.35 7.25 -6.45 7.1 -5.95 L7.3 -5.95 7.4 -5.45 Q7.5 -5.1 7.55 -5.0 L7.5 -4.9 7.35 -4.8 Q7.1 -4.95 7.0 -5.2 L6.95 -5.35 Q6.9 -5.3 6.8 -5.3 6.65 -5.45 6.65 -5.55 6.65 -5.85 7.05 -7.3 7.5 -8.85 7.8 -9.35 L7.9 -9.2 7.9 -9.0 M9.15 -8.0 Q9.2 -8.1 9.2 -8.2 L10.1 -8.15 Q11.0 -7.85 11.1 -7.35 L11.1 -7.25 Q11.05 -7.25 10.95 -7.25 10.3 -7.25 9.65 -7.5 9.05 -7.75 9.05 -7.85 9.05 -7.95 9.15 -8.0 M13.45 -3.85 Q13.2 -3.7 12.85 -3.7 L12.7 -3.7 12.7 -3.75 12.65 -3.75 12.65 -3.9 12.95 -4.3 Q13.35 -4.8 13.4 -5.35 L13.4 -5.8 Q13.1 -5.85 13.1 -6.1 13.1 -6.2 13.35 -6.3 L13.5 -6.4 13.65 -6.45 13.75 -6.5 13.6 -6.5 13.25 -6.4 Q13.0 -6.4 12.8 -6.7 12.65 -6.95 12.65 -7.05 12.65 -7.25 13.5 -7.5 14.3 -7.7 15.35 -7.85 18.05 -8.2 18.05 -7.55 18.05 -7.3 16.7 -6.7 L15.95 -6.35 16.05 -5.4 16.1 -3.8 16.1 -3.6 Q16.05 -3.45 15.9 -3.4 L16.05 -3.0 16.0 -2.85 15.8 -2.85 Q15.25 -3.3 15.0 -3.75 14.95 -3.25 14.8 -2.25 L14.55 -0.8 14.5 -0.9 Q14.25 -1.15 14.2 -0.75 L14.1 -0.95 Q14.05 -1.25 14.0 -1.75 L13.9 -2.5 Q13.8 -2.55 13.75 -2.75 L13.75 -3.1 13.8 -3.8 13.85 -4.15 Q13.65 -3.95 13.5 -3.85 L13.45 -3.85" fill="#5a6d1b" fill-rule="evenodd" stroke="none"/>
    <path d="M15.3 -12.6 L15.45 -12.55 16.15 -12.0 16.1 -11.9 Q16.05 -11.85 15.95 -11.85 L15.7 -11.85 15.65 -11.75 Q15.5 -11.6 15.1 -11.6 L15.05 -11.6 14.7 -11.65 14.65 -11.65 14.35 -11.7 14.4 -11.7 Q14.6 -11.7 14.65 -11.8 L14.7 -12.1 Q14.7 -12.6 14.3 -13.0 L14.35 -12.95 14.9 -12.75 Q15.05 -12.75 15.3 -12.6 M9.35 -13.65 Q9.45 -13.85 9.45 -14.4 L9.4 -14.7 9.5 -14.65 Q9.65 -14.05 9.8 -13.65 9.75 -13.6 9.6 -13.6 9.5 -13.6 9.4 -13.65 L9.35 -13.65" fill="#ffffb3" fill-rule="evenodd" stroke="none"/>
    <path d="M18.1 -9.7 Q18.3 -9.65 18.3 -9.6 18.25 -9.6 18.15 -9.55 L18.2 -9.5 18.25 -9.35 Q18.25 -9.2 17.8 -8.95 L16.7 -8.6 16.3 -8.45 Q16.65 -8.75 17.2 -9.1 L18.0 -9.65 18.0 -9.6 18.1 -9.7 M12.8 -12.5 Q12.45 -12.9 12.3 -13.2 L12.1 -13.2 Q12.15 -13.6 12.4 -13.7 L12.4 -13.65 12.5 -13.55 12.45 -13.35 12.7 -13.2 12.75 -13.3 12.85 -13.25 12.8 -13.1 Q12.85 -12.9 12.95 -12.7 L12.9 -12.65 12.8 -12.5 M16.55 -15.45 L15.95 -15.85 Q15.0 -16.4 14.3 -16.5 L14.25 -16.5 Q14.35 -16.6 14.65 -16.6 15.3 -16.85 15.8 -16.95 L16.0 -16.95 Q17.75 -17.15 18.4 -15.9 18.7 -15.25 18.7 -14.2 18.75 -13.9 18.7 -13.7 18.65 -13.25 18.3 -13.2 18.25 -13.6 17.95 -14.1 L18.0 -14.15 Q17.85 -15.15 16.55 -15.45 M12.5 -14.15 L12.5 -14.2 12.45 -14.15 Q12.4 -14.1 12.3 -14.05 L12.5 -14.15 M16.65 -11.9 L16.45 -12.4 15.55 -13.05 Q14.3 -13.95 13.55 -14.25 L13.45 -14.2 Q13.45 -14.45 13.55 -14.5 13.7 -14.65 14.15 -14.6 15.8 -14.35 16.55 -13.6 17.05 -13.05 17.05 -12.3 17.05 -12.15 17.0 -12.0 16.9 -11.85 16.7 -11.85 L16.65 -11.9 M17.05 -15.95 L17.2 -15.9 Q17.1 -16.35 16.45 -16.25 16.8 -16.1 17.05 -15.95 M18.65 -12.8 Q18.45 -12.5 18.35 -12.2 L18.25 -12.25 18.25 -12.3 Q18.3 -12.6 18.3 -12.85 L18.3 -13.1 18.65 -12.8 M9.85 -16.35 L9.85 -16.3 10.1 -15.35 10.15 -15.15 10.05 -15.15 9.9 -15.25 10.35 -14.35 10.4 -14.2 Q10.45 -13.8 10.45 -13.45 L10.45 -13.35 10.55 -13.45 10.6 -13.4 10.6 -13.3 Q10.6 -12.9 10.15 -12.0 L9.85 -11.5 9.7 -11.4 9.5 -11.45 Q9.45 -11.45 9.45 -11.6 9.45 -11.8 9.8 -12.45 10.05 -12.8 10.2 -13.05 L10.15 -13.3 10.1 -13.45 10.1 -13.85 9.85 -14.75 Q9.7 -15.35 9.45 -15.7 L9.05 -16.15 8.6 -16.55 8.6 -16.6 8.7 -16.55 Q8.8 -16.55 8.9 -16.65 L9.0 -16.55 Q9.05 -16.65 9.2 -16.65 9.4 -16.7 9.65 -16.5 L9.85 -16.35 M24.5 -11.8 L24.55 -11.9 24.6 -12.2 24.6 -12.45 Q24.55 -12.65 24.45 -12.65 24.15 -12.65 23.75 -12.45 22.35 -11.3 22.25 -11.3 L22.1 -11.35 22.05 -11.35 22.05 -11.55 Q22.05 -11.6 22.75 -12.3 L22.3 -11.8 Q22.5 -11.8 23.0 -12.2 L23.35 -12.35 Q23.8 -12.65 24.55 -12.7 L24.75 -12.3 Q24.75 -12.25 24.6 -11.95 L24.5 -11.8 M25.4 -14.8 L25.55 -14.95 Q26.0 -15.4 26.3 -15.45 L25.4 -14.8 M27.1 -15.95 L27.3 -16.05 27.35 -15.95 27.05 -15.5 27.1 -15.45 27.1 -15.35 Q27.1 -14.85 26.2 -13.45 L25.05 -11.7 24.95 -11.75 Q24.9 -11.4 24.7 -11.4 L24.55 -11.4 24.55 -11.45 24.5 -11.45 Q24.65 -11.55 24.8 -11.85 24.95 -12.15 24.95 -12.3 L24.9 -12.55 24.6 -12.85 Q24.05 -12.85 23.65 -12.7 L24.4 -13.45 Q26.4 -15.35 27.2 -15.95 L27.2 -16.0 27.1 -15.95" fill="#a7b733" fill-rule="evenodd" stroke="none"/>
    <path d="M13.75 -26.3 Q13.75 -26.4 13.8 -26.5 13.8 -27.05 14.25 -27.3 14.45 -27.4 14.7 -27.4 16.6 -31.15 17.15 -30.95 L17.55 -31.7 17.7 -31.95 17.65 -31.95 17.4 -32.2 Q17.4 -32.5 18.05 -33.2 18.75 -34.0 19.25 -34.0 L19.25 -33.9 19.3 -33.7 Q19.3 -33.6 19.1 -33.3 18.7 -32.55 18.2 -31.6 17.7 -30.7 17.4 -29.85 L17.1 -29.15 Q17.45 -28.55 17.45 -28.05 17.4 -27.55 17.3 -27.1 L17.2 -26.6 Q17.05 -25.9 16.8 -25.55 L16.75 -25.5 Q16.45 -25.15 16.15 -25.15 16.0 -25.15 15.9 -25.25 15.6 -25.35 15.5 -25.65 L15.4 -25.95 Q15.2 -25.85 15.0 -25.75 14.95 -25.85 14.8 -26.0 14.55 -25.95 14.45 -25.95 L14.05 -26.0 14.15 -26.2 14.15 -26.35 14.1 -26.35 Q13.9 -26.4 13.75 -26.3 M21.9 -27.45 Q21.6 -27.45 21.55 -27.6 21.5 -27.65 21.5 -27.75 22.95 -29.4 22.95 -28.3 22.95 -28.15 22.55 -27.8 22.15 -27.45 21.9 -27.45 M20.1 -26.3 L20.4 -26.3 20.4 -26.35 Q20.0 -26.9 20.0 -26.95 20.0 -27.5 20.3 -27.6 20.5 -27.65 20.9 -27.3 21.2 -27.05 21.4 -26.65 L21.5 -26.5 21.65 -26.1 21.75 -25.8 21.75 -25.5 Q21.75 -24.8 21.65 -24.55 L21.5 -24.2 21.45 -24.15 Q21.35 -23.6 21.15 -23.45 21.05 -23.35 20.95 -23.35 20.5 -23.35 20.5 -23.7 20.5 -23.85 20.6 -24.05 20.6 -24.15 20.55 -24.15 20.45 -24.15 20.45 -24.25 L20.55 -24.7 20.6 -25.1 Q20.6 -25.4 20.15 -25.5 L19.9 -25.55 Q20.1 -26.05 20.1 -26.3 M12.75 -18.9 L12.8 -18.6 Q13.4 -19.15 14.35 -19.7 L15.55 -20.45 15.6 -20.5 Q15.55 -20.6 15.55 -20.65 15.55 -20.8 15.85 -21.2 16.2 -21.65 16.65 -21.6 L16.65 -21.55 Q16.7 -21.55 16.7 -21.4 16.7 -21.25 16.6 -21.0 L16.75 -21.1 Q16.75 -21.3 17.0 -21.35 L17.05 -21.4 Q17.1 -21.6 17.55 -21.55 L18.05 -21.55 18.45 -21.45 18.05 -22.05 Q17.15 -23.1 15.55 -23.4 16.8 -23.8 17.75 -22.95 L16.7 -23.1 Q18.2 -22.45 18.7 -21.25 19.0 -20.05 19.35 -19.55 L19.45 -19.65 19.55 -19.95 19.3 -20.55 Q19.2 -20.9 19.2 -21.2 19.2 -21.55 19.05 -21.85 19.2 -21.95 19.3 -21.95 19.5 -21.9 19.5 -21.35 19.5 -21.25 19.4 -21.05 19.75 -20.75 20.05 -20.35 19.95 -20.1 19.95 -19.95 19.95 -19.85 20.05 -19.6 20.15 -19.3 20.25 -19.3 20.6 -19.3 21.65 -20.75 L21.85 -21.05 21.85 -20.9 Q22.15 -20.85 22.35 -20.75 L22.25 -20.75 22.1 -20.65 Q21.95 -20.55 21.95 -20.45 21.95 -20.4 22.0 -20.35 L22.25 -20.15 22.45 -20.25 22.45 -20.7 Q22.65 -20.5 22.8 -20.25 22.65 -20.25 22.55 -20.1 22.65 -19.95 22.8 -19.8 L22.95 -19.85 Q23.05 -19.45 23.05 -18.95 23.05 -18.5 22.55 -17.9 22.3 -17.6 22.1 -17.45 21.9 -17.3 21.75 -17.3 L21.65 -17.25 Q21.45 -17.1 21.2 -17.1 21.1 -17.1 21.0 -17.15 L20.85 -17.25 20.8 -16.8 Q20.75 -16.55 20.55 -16.5 20.6 -15.6 21.1 -15.3 L21.5 -14.95 Q21.65 -14.65 21.65 -14.15 21.65 -13.55 21.1 -13.55 L21.05 -13.55 20.8 -13.55 Q20.55 -13.6 20.4 -13.65 L20.2 -13.25 19.75 -12.5 Q19.15 -11.55 18.75 -11.1 L18.7 -11.1 Q18.6 -11.15 18.55 -11.25 L18.55 -11.3 Q18.5 -11.35 18.5 -11.45 18.5 -11.6 18.85 -12.2 L19.2 -12.9 Q19.85 -13.95 20.2 -14.35 L20.3 -14.5 20.25 -14.65 20.25 -14.6 20.2 -14.55 20.2 -14.5 20.05 -14.5 19.9 -14.45 Q19.75 -14.5 19.4 -15.05 L19.3 -15.2 Q18.9 -15.85 18.9 -16.05 L18.95 -16.35 19.15 -16.85 Q19.35 -17.4 19.45 -17.45 19.55 -17.35 19.6 -17.2 L19.75 -17.25 Q19.75 -18.05 20.0 -18.85 19.7 -19.1 19.4 -19.45 L19.25 -19.6 19.05 -19.85 18.95 -19.95 18.85 -20.05 Q18.55 -19.8 17.95 -19.5 16.55 -18.8 15.0 -18.8 L14.85 -18.8 14.65 -18.75 Q13.75 -18.3 13.15 -17.85 L12.75 -17.3 Q12.3 -16.7 12.05 -16.4 L11.95 -16.2 Q11.85 -15.95 11.75 -15.95 11.55 -15.95 11.45 -16.1 L11.4 -16.25 Q11.4 -16.4 11.4 -16.6 11.4 -16.95 11.5 -17.3 L11.65 -17.75 11.85 -18.25 Q11.8 -18.3 11.75 -18.45 L11.75 -18.65 11.75 -18.85 11.8 -19.1 Q11.85 -19.5 12.0 -20.25 L12.25 -21.15 12.3 -21.4 12.4 -21.7 12.6 -22.45 12.55 -22.6 12.35 -23.2 Q12.35 -24.0 12.9 -23.25 13.35 -24.45 13.8 -24.45 13.95 -24.45 14.0 -24.35 L14.1 -24.25 14.3 -24.45 Q14.55 -24.7 14.85 -24.7 L14.9 -24.45 14.15 -22.55 Q14.8 -22.55 15.25 -22.25 L15.2 -22.2 Q15.7 -22.05 15.7 -21.6 15.7 -21.4 15.55 -21.35 L15.25 -21.3 15.05 -21.15 14.85 -20.9 14.55 -21.05 Q14.55 -21.1 14.65 -21.3 14.4 -21.5 13.9 -21.5 L13.7 -21.5 13.35 -20.6 12.75 -19.1 12.75 -18.95 12.75 -18.9 M8.5 -20.05 L8.75 -20.1 8.75 -19.9 Q8.75 -19.8 8.4 -19.05 8.0 -18.3 7.8 -18.1 7.65 -18.15 7.65 -18.2 7.6 -18.25 7.6 -18.4 L7.6 -18.6 Q7.65 -19.0 7.9 -19.45 8.15 -19.9 8.5 -20.05 M12.65 -23.85 L12.0 -23.25 Q11.25 -22.65 11.2 -22.3 11.05 -21.75 11.15 -20.6 L11.1 -20.55 10.95 -20.5 Q10.75 -20.5 10.65 -21.15 10.65 -21.45 10.65 -21.8 10.65 -22.8 11.65 -23.75 12.05 -24.1 12.35 -24.15 12.65 -24.25 12.65 -23.85 M12.85 -22.1 Q12.85 -21.95 12.9 -21.9 L13.05 -21.9 Q13.2 -21.95 13.4 -22.2 L13.6 -22.4 13.55 -22.55 Q13.3 -22.55 13.1 -22.4 12.85 -22.25 12.85 -22.1 M14.45 -22.5 L14.3 -22.45 Q14.1 -22.35 14.1 -22.05 14.1 -21.75 14.15 -21.6 L14.15 -21.55 14.55 -21.55 14.7 -21.7 14.8 -22.05 Q14.8 -22.1 14.7 -22.25 14.6 -22.4 14.45 -22.5 M13.25 -20.85 L13.2 -21.1 Q12.9 -21.1 12.55 -20.75 L12.2 -20.25 12.2 -19.75 12.45 -19.7 Q12.65 -19.7 12.95 -20.15 13.25 -20.6 13.25 -20.85 M21.7 -18.7 Q21.7 -18.75 21.8 -19.0 L21.75 -19.1 Q21.5 -18.9 21.45 -18.9 L21.3 -19.0 Q21.2 -19.0 21.1 -18.45 L20.95 -17.75 20.95 -17.7 Q21.35 -18.05 21.6 -18.35 L21.7 -18.7 M20.0 -15.55 Q19.85 -16.25 19.8 -16.7 19.7 -16.3 19.85 -15.75 19.95 -15.3 20.15 -15.0 L20.0 -15.55 M25.2 -19.75 Q24.75 -18.5 23.95 -17.75 L23.8 -17.8 Q23.9 -18.25 24.1 -19.1 L24.4 -20.4 24.15 -20.4 Q23.85 -20.4 23.75 -20.6 23.75 -20.75 23.75 -20.85 23.75 -21.15 24.1 -21.75 L24.5 -22.55 24.55 -22.6 24.2 -22.45 Q24.1 -22.35 23.95 -22.35 23.55 -22.35 23.5 -22.55 23.45 -22.65 23.5 -22.8 23.5 -23.3 25.25 -24.8 26.55 -25.9 27.3 -26.25 27.85 -26.7 28.2 -26.9 L28.5 -27.3 Q29.5 -28.5 29.5 -27.8 L29.35 -27.5 29.35 -27.2 Q29.15 -26.5 27.8 -24.7 26.2 -22.7 26.1 -22.5 L26.0 -22.35 25.95 -22.65 Q25.7 -23.4 24.75 -23.75 L24.75 -23.65 Q25.4 -23.05 25.6 -22.5 25.7 -22.2 25.75 -21.7 L25.65 -21.4 25.35 -20.25 25.35 -20.15 25.2 -19.75 M27.55 -25.85 L27.45 -25.9 Q27.05 -25.65 26.5 -25.0 25.95 -24.3 25.9 -23.85 26.4 -24.0 27.55 -25.7 L27.55 -25.85" fill="#c07129" fill-rule="evenodd" stroke="none"/>
    <path d="M8.45 -14.85 Q8.45 -15.4 8.9 -15.1 9.35 -14.75 9.35 -14.3 L9.3 -14.05 Q9.25 -14.0 9.05 -14.0 8.8 -14.0 8.6 -14.45 L8.45 -14.85 M13.2 -12.8 Q13.2 -13.45 13.75 -13.1 14.25 -12.7 14.25 -12.35 14.25 -12.0 13.95 -12.0 13.55 -12.0 13.35 -12.4 13.25 -12.6 13.2 -12.8" fill="#d26144" fill-rule="evenodd" stroke="none"/>
    <path d="M17.4 -29.85 Q17.7 -29.45 17.8 -29.25 L17.8 -28.8 Q17.8 -28.0 17.45 -27.15 L17.3 -27.1 Q17.4 -27.55 17.45 -28.05 17.45 -28.55 17.1 -29.15 L17.4 -29.85 M21.4 -26.65 L21.45 -26.6 Q21.95 -26.45 22.15 -26.05 L22.1 -25.9 22.0 -25.85 Q21.85 -25.85 21.75 -26.0 L21.65 -26.1 21.5 -26.5 21.4 -26.65 M21.75 -25.8 Q22.1 -25.75 22.35 -25.45 22.65 -25.1 22.65 -24.6 22.65 -24.3 22.45 -23.95 L22.45 -23.9 22.2 -23.6 Q21.9 -23.35 21.5 -23.35 21.3 -23.35 21.15 -23.45 21.35 -23.6 21.45 -24.15 L21.5 -24.2 21.65 -24.55 Q21.75 -24.8 21.75 -25.5 L21.75 -25.8 M17.75 -22.95 Q18.3 -22.8 18.65 -22.45 18.95 -22.2 19.05 -21.85 19.2 -21.55 19.2 -21.2 19.2 -20.9 19.3 -20.55 L19.55 -19.95 19.45 -19.65 19.35 -19.55 Q19.0 -20.05 18.7 -21.25 18.2 -22.45 16.7 -23.1 L17.75 -22.95 M22.1 -17.45 L21.55 -16.7 21.5 -16.7 21.45 -16.7 21.45 -16.75 Q21.5 -16.95 21.65 -17.25 L21.75 -17.3 Q21.9 -17.3 22.1 -17.45 M21.05 -13.55 L21.0 -13.15 Q20.9 -13.0 20.8 -12.9 L20.7 -13.3 20.8 -13.55 21.05 -13.55 M20.6 -12.85 L20.6 -12.8 Q20.6 -12.6 20.1 -11.8 L19.9 -11.55 Q19.45 -10.95 19.1 -10.95 L19.0 -10.95 Q18.8 -11.0 18.7 -11.1 L18.75 -11.1 Q19.15 -11.55 19.75 -12.5 L20.2 -13.25 Q20.6 -13.45 20.6 -12.85 M12.75 -18.95 Q12.8 -19.2 13.05 -19.65 13.35 -20.2 13.55 -20.35 L13.4 -19.6 Q13.3 -19.1 12.95 -18.8 L12.75 -18.9 12.75 -18.95 M14.45 -22.5 Q14.6 -22.4 14.7 -22.25 14.8 -22.1 14.8 -22.05 L14.7 -21.7 14.55 -21.55 14.15 -21.55 14.15 -21.6 Q14.1 -21.75 14.1 -22.05 14.1 -22.35 14.3 -22.45 L14.45 -22.5 M12.05 -16.4 Q12.3 -16.7 12.75 -17.3 L13.15 -17.85 Q13.75 -18.3 14.65 -18.75 L14.85 -18.8 15.0 -18.8 Q16.55 -18.8 17.95 -19.5 18.55 -19.8 18.85 -20.05 L18.95 -19.95 Q18.75 -19.7 18.15 -19.15 L18.2 -18.95 Q18.2 -18.8 18.0 -18.6 17.85 -18.4 17.55 -18.15 16.95 -17.7 16.4 -17.7 L16.2 -17.7 16.1 -17.75 16.05 -17.75 16.05 -18.0 15.95 -18.0 15.75 -18.25 Q14.7 -17.75 13.95 -17.35 12.7 -16.65 12.2 -16.05 L12.05 -16.1 12.05 -16.25 12.05 -16.4 M11.75 -18.65 L11.7 -18.6 11.8 -19.1 11.75 -18.85 11.75 -18.65 M21.8 -12.6 Q21.65 -12.25 21.4 -12.25 21.1 -12.25 21.05 -12.6 21.0 -12.75 21.0 -12.95 21.0 -13.45 21.45 -13.45 21.95 -13.4 21.95 -13.05 21.95 -12.85 21.8 -12.6 M29.35 -27.2 Q29.45 -27.15 29.45 -26.85 29.45 -26.75 27.15 -23.2 L27.2 -23.0 Q27.2 -22.65 27.1 -22.25 L26.85 -21.35 Q26.4 -20.0 25.75 -20.0 L25.7 -20.0 25.55 -19.85 25.5 -19.85 Q25.65 -19.45 25.6 -19.15 L25.5 -19.05 Q25.4 -19.2 25.2 -19.75 L25.35 -20.15 25.35 -20.1 25.4 -20.0 25.45 -20.1 Q25.4 -20.15 25.35 -20.25 L25.65 -21.4 25.75 -21.7 Q25.7 -22.2 25.6 -22.5 25.4 -23.05 24.75 -23.65 L24.75 -23.75 Q25.7 -23.4 25.95 -22.65 L26.0 -22.35 26.1 -22.5 Q26.2 -22.7 27.8 -24.7 29.15 -26.5 29.35 -27.2 M27.55 -25.85 L27.55 -25.7 Q26.4 -24.0 25.9 -23.85 25.95 -24.3 26.5 -25.0 27.05 -25.65 27.45 -25.9 L27.55 -25.85 M24.65 -17.15 L24.8 -17.3 24.9 -17.25 Q24.95 -17.2 24.95 -17.1 24.95 -16.85 24.75 -16.55 L24.7 -16.5 Q24.65 -16.25 24.55 -15.9 24.4 -15.45 24.2 -15.35 L24.15 -15.4 24.15 -15.5 Q24.15 -15.65 24.25 -16.1 L24.2 -16.05 24.0 -16.1 Q23.95 -16.1 23.95 -16.2 23.95 -16.35 24.35 -16.8 L24.4 -16.9 24.5 -17.45 24.6 -17.45 24.65 -17.15 M23.75 -16.1 L23.75 -15.7 23.65 -15.5 23.55 -15.5 23.5 -15.9 Q23.5 -16.0 23.55 -16.1 23.6 -16.2 23.7 -16.25 L23.75 -16.1" fill="#99380f" fill-rule="evenodd" stroke="none"/>
    <path d="M14.05 -26.0 Q13.7 -25.45 13.5 -25.35 L13.35 -25.4 Q13.3 -25.4 13.3 -25.55 13.3 -25.8 13.55 -26.1 13.65 -26.25 13.75 -26.3 13.9 -26.4 14.1 -26.35 L14.15 -26.35 14.15 -26.2 14.05 -26.0 M19.9 -25.55 L19.65 -24.9 Q19.15 -23.65 18.8 -23.65 L18.65 -23.65 18.65 -23.7 18.6 -23.75 18.55 -23.95 Q18.55 -24.6 19.35 -26.15 20.1 -27.65 20.1 -26.35 L20.1 -26.3 Q20.1 -26.05 19.9 -25.55 M19.6 -24.2 L20.0 -24.2 20.1 -24.05 20.05 -23.85 19.95 -23.8 19.8 -23.75 Q19.7 -23.75 19.65 -23.85 19.6 -23.9 19.6 -24.0 L19.6 -24.2 M20.05 -20.35 Q20.35 -20.85 21.1 -21.6 22.3 -22.75 22.95 -22.75 L23.0 -22.65 21.85 -21.05 21.65 -20.75 Q20.6 -19.3 20.25 -19.3 20.15 -19.3 20.05 -19.6 19.95 -19.85 19.95 -19.95 19.95 -20.1 20.05 -20.35 M22.35 -20.75 L22.4 -20.7 22.45 -20.7 22.45 -20.25 22.25 -20.15 22.0 -20.35 Q21.95 -20.4 21.95 -20.45 21.95 -20.55 22.1 -20.65 L22.25 -20.75 22.35 -20.75 M22.8 -20.25 L23.05 -20.25 23.1 -20.1 Q23.1 -19.95 22.95 -19.85 L22.8 -19.8 Q22.65 -19.95 22.55 -20.1 22.65 -20.25 22.8 -20.25 M14.7 -28.05 Q14.1 -27.5 13.6 -26.65 L12.75 -25.3 Q12.45 -25.3 12.45 -25.55 12.45 -25.9 13.2 -26.9 14.0 -28.05 14.6 -28.2 14.65 -28.15 14.7 -28.05 M12.85 -22.1 Q12.85 -22.25 13.1 -22.4 13.3 -22.55 13.55 -22.55 L13.6 -22.4 13.4 -22.2 Q13.2 -21.95 13.05 -21.9 L12.9 -21.9 Q12.85 -21.95 12.85 -22.1 M13.25 -20.85 Q13.25 -20.6 12.95 -20.15 12.65 -19.7 12.45 -19.7 L12.2 -19.75 12.2 -20.25 12.55 -20.75 Q12.9 -21.1 13.2 -21.1 L13.25 -20.85" fill="#d09553" fill-rule="evenodd" stroke="none"/>
  </g>
</svg>
