<?xml version="1.0" encoding="UTF-8" standalone="no"?>
<svg xmlns:ffdec="https://www.free-decompiler.com/flash" xmlns:xlink="http://www.w3.org/1999/xlink" ffdec:objectType="shape" height="26.0px" width="20.0px" xmlns="http://www.w3.org/2000/svg">
  <g transform="matrix(1.0, 0.0, 0.0, 1.0, -4.85, 25.75)">
    <path d="M19.8 -7.3 L22.4 -15.9 Q22.8 -14.85 22.8 -14.2 L19.95 -7.5 19.8 -7.3 M15.2 -18.9 L15.1 -18.9 15.2 -18.9 M16.35 -17.5 L15.45 -15.8 17.15 -16.65 16.35 -17.5" fill="#000000" fill-rule="evenodd" stroke="none"/>
    <path d="M19.95 -7.5 L19.8 -7.3 19.95 -7.5 M15.1 -18.9 L15.2 -18.9 15.1 -18.9" fill="#999999" fill-rule="evenodd" stroke="none"/>
    <path d="M18.95 -24.55 Q18.45 -24.9 17.65 -24.8 L17.65 -24.7 17.85 -23.8 18.0 -23.15 18.2 -23.05 18.35 -23.05 18.4 -23.05 18.7 -23.1 18.75 -23.1 18.85 -23.0 18.9 -23.0 Q19.0 -22.95 19.1 -22.9 L19.25 -22.8 19.3 -22.75 19.35 -22.75 19.35 -22.7 19.5 -22.6 19.6 -22.7 Q19.75 -22.95 19.7 -23.15 L19.7 -23.25 19.65 -23.4 19.6 -23.45 19.55 -23.65 19.5 -23.75 19.5 -23.85 19.45 -23.85 19.45 -23.9 19.25 -24.25 18.95 -24.55 M17.55 -23.6 L17.55 -23.85 17.5 -24.1 17.4 -24.65 17.4 -24.75 17.35 -24.8 17.25 -24.75 17.2 -24.75 16.85 -24.55 16.7 -24.4 Q16.6 -24.3 16.55 -24.1 L16.5 -24.0 16.5 -23.4 16.6 -23.4 16.55 -23.3 Q16.55 -23.05 16.6 -22.95 L16.85 -22.6 16.9 -22.65 Q17.1 -22.75 17.85 -22.95 17.65 -23.1 17.6 -23.45 L17.55 -23.6 M18.6 -22.6 L18.4 -22.65 18.3 -22.65 18.1 -22.6 18.05 -22.6 17.9 -22.55 Q17.8 -22.55 17.75 -22.5 L17.75 -22.1 17.8 -21.55 17.8 -21.2 17.85 -20.65 Q18.05 -19.55 18.35 -19.25 L18.4 -19.25 18.45 -19.2 Q18.55 -19.1 18.65 -19.1 L18.8 -19.05 18.95 -19.05 19.25 -19.1 Q19.4 -19.15 19.6 -19.25 L19.7 -19.4 19.75 -19.55 19.85 -19.75 19.85 -19.95 19.9 -19.9 19.95 -20.25 19.95 -20.6 19.9 -21.0 19.75 -21.45 19.5 -21.95 19.45 -21.95 19.45 -22.0 19.3 -22.25 Q19.0 -22.55 18.6 -22.6 M17.5 -21.25 L17.5 -21.3 Q17.45 -21.9 17.45 -22.05 17.45 -22.2 17.5 -22.35 L17.35 -22.25 17.25 -22.1 17.25 -22.05 17.2 -22.0 16.9 -21.5 16.9 -21.4 16.75 -21.0 Q16.6 -20.6 16.6 -20.25 L16.6 -20.2 16.55 -19.95 16.6 -19.8 16.65 -19.45 16.7 -19.35 Q16.8 -19.0 17.1 -18.6 L17.5 -18.15 17.55 -18.05 17.65 -18.0 17.65 -17.95 17.8 -17.9 18.15 -17.8 18.25 -17.75 18.95 -17.65 19.4 -17.7 19.6 -18.5 19.65 -18.75 19.7 -18.95 19.55 -18.9 Q19.25 -18.8 19.0 -18.75 18.7 -18.75 18.45 -18.85 18.3 -18.95 18.2 -19.1 18.0 -19.25 17.9 -19.55 L17.85 -19.55 Q17.75 -19.8 17.7 -20.05 L17.7 -20.1 17.65 -20.1 Q17.55 -20.55 17.55 -21.0 L17.5 -21.25 M19.95 -22.35 Q19.85 -22.05 19.85 -22.0 L19.9 -21.95 20.3 -21.7 20.6 -21.55 20.65 -21.5 Q20.75 -21.65 20.8 -21.9 20.85 -22.05 20.8 -22.2 L20.05 -22.7 19.95 -22.35 M20.1 -21.4 Q20.3 -20.85 20.35 -20.2 L20.35 -19.9 Q20.9 -19.75 21.55 -19.3 L21.6 -19.3 21.65 -19.45 21.6 -19.7 Q21.4 -20.3 20.95 -20.8 L20.7 -21.0 20.2 -21.35 20.1 -21.4 M20.4 -23.1 Q20.85 -22.95 21.5 -22.55 L22.15 -22.05 Q22.2 -22.2 22.4 -22.35 22.8 -22.6 23.3 -22.55 23.85 -22.55 24.25 -22.2 24.7 -21.85 24.75 -21.1 24.8 -20.6 24.65 -20.25 24.45 -19.95 24.1 -19.65 L24.3 -19.0 24.55 -18.15 Q24.6 -17.6 23.95 -16.75 23.35 -15.95 22.6 -15.8 L22.55 -15.55 22.6 -15.4 Q22.6 -15.1 22.65 -14.85 L22.7 -14.6 Q22.75 -14.35 22.9 -14.05 23.1 -13.55 23.2 -13.2 23.3 -12.9 23.35 -12.7 23.35 -12.3 22.9 -11.55 22.65 -11.2 22.55 -10.95 L22.8 -10.35 23.0 -9.85 23.05 -9.65 23.2 -9.35 23.4 -8.85 23.4 -8.8 24.1 -6.9 24.2 -6.65 24.5 -6.0 24.7 -5.5 24.65 -5.45 24.75 -5.2 24.8 -5.2 24.85 -5.1 Q24.75 -5.0 24.6 -4.95 22.9 -4.8 21.0 -6.4 L20.7 -6.7 19.2 -5.05 19.05 -4.8 Q18.9 -4.5 18.65 -4.3 17.15 -2.4 15.7 -1.35 L15.55 -1.2 15.1 -0.9 14.75 -0.55 15.0 -0.85 Q14.55 -0.6 14.15 -0.45 L13.8 -0.3 12.65 0.25 Q12.35 0.25 11.7 0.05 11.2 -0.1 10.95 -0.35 9.75 -0.25 8.85 -1.3 8.7 -1.5 8.55 -1.7 8.2 -2.0 8.05 -2.35 L7.8 -2.65 7.6 -3.0 7.45 -3.25 Q6.85 -4.0 6.6 -4.6 6.45 -4.6 6.35 -4.9 L6.35 -5.05 6.3 -5.25 Q6.25 -6.1 6.8 -7.0 7.45 -8.1 7.7 -9.0 7.6 -9.25 7.6 -9.35 L7.4 -9.8 7.35 -10.05 Q7.3 -10.75 7.7 -11.1 L7.9 -11.35 Q7.75 -11.5 7.6 -11.75 L7.5 -11.95 7.45 -12.0 6.7 -12.9 Q6.5 -13.1 5.6 -13.45 4.9 -13.7 4.9 -14.05 4.8 -15.25 5.4 -16.75 5.9 -18.0 6.65 -18.65 6.55 -18.85 6.5 -19.15 6.4 -19.5 6.35 -19.9 6.3 -20.55 6.65 -21.0 L7.35 -21.9 7.15 -22.45 Q6.9 -23.2 6.85 -23.3 6.85 -23.65 7.8 -24.15 8.35 -24.5 9.05 -24.65 9.8 -25.0 10.15 -24.85 L10.4 -24.85 10.8 -25.15 Q11.7 -25.6 13.55 -25.75 15.15 -25.6 15.75 -25.3 15.95 -25.2 16.25 -25.0 16.35 -25.25 16.75 -25.4 17.35 -25.6 18.15 -25.4 19.0 -25.2 19.6 -24.65 20.3 -24.05 20.35 -23.2 L20.4 -23.1 M20.75 -21.45 L21.05 -21.25 21.8 -20.9 Q21.9 -21.05 21.9 -21.3 L21.95 -21.55 Q21.6 -21.7 21.15 -22.0 L20.95 -22.1 Q21.0 -21.8 20.95 -21.75 20.9 -21.6 20.75 -21.45 M22.35 -21.3 L22.05 -21.45 22.05 -21.1 Q22.05 -20.95 21.95 -20.8 L22.45 -20.55 Q22.6 -20.6 22.9 -20.85 L22.4 -21.25 22.35 -21.3 M23.3 -20.85 L23.3 -21.2 Q23.25 -21.85 23.25 -22.2 L22.95 -22.2 Q22.65 -22.05 22.5 -21.65 L22.85 -21.35 22.85 -21.3 Q23.1 -21.1 23.15 -20.85 L23.15 -20.8 Q23.1 -20.7 22.9 -20.55 L22.8 -20.45 Q22.65 -20.35 22.55 -20.35 L22.55 -20.15 22.75 -20.15 22.8 -20.15 Q23.3 -20.05 23.65 -19.85 23.5 -20.0 23.4 -20.35 L23.4 -20.4 23.3 -20.85 M22.55 -20.35 L22.55 -20.35 M15.65 -24.7 L15.3 -24.85 14.65 -25.1 12.95 -25.2 Q11.15 -25.05 10.55 -24.65 L10.45 -24.5 10.45 -24.1 10.5 -24.0 11.35 -24.0 12.7 -23.95 16.2 -23.65 16.2 -23.7 Q16.2 -23.8 16.2 -23.95 16.2 -24.25 16.25 -24.4 L15.75 -24.7 15.65 -24.7 M13.7 -23.25 L13.7 -23.15 13.8 -22.8 13.9 -22.6 14.05 -22.6 14.65 -22.55 15.0 -22.5 16.5 -22.4 16.35 -22.75 16.25 -23.2 15.8 -23.15 13.7 -23.35 13.7 -23.25 M13.5 -23.35 L12.9 -23.4 11.2 -23.6 Q11.1 -23.4 11.1 -23.3 11.1 -23.2 11.2 -23.05 L11.25 -23.0 11.35 -22.85 11.85 -22.8 13.7 -22.65 13.65 -22.8 Q13.55 -23.0 13.55 -23.15 L13.55 -23.25 13.5 -23.35 M15.4 -23.45 L15.4 -23.45 M15.15 -22.05 L13.1 -22.25 Q11.5 -22.4 10.4 -22.65 L10.15 -22.65 Q9.8 -22.3 9.65 -21.6 9.55 -21.35 9.55 -21.1 11.15 -21.2 13.0 -20.95 L13.45 -20.9 Q14.75 -20.75 15.5 -20.55 L15.7 -20.5 15.4 -20.75 15.3 -20.8 14.35 -21.6 Q14.8 -21.55 15.2 -21.3 L15.5 -21.0 16.1 -20.45 16.15 -20.4 16.2 -20.55 Q16.25 -20.95 16.35 -21.35 16.5 -21.75 16.7 -22.05 L16.7 -22.1 16.7 -22.15 16.65 -22.2 16.6 -22.15 16.4 -22.15 16.4 -22.1 Q16.35 -22.05 16.25 -22.05 15.85 -22.0 15.15 -22.05 M16.15 -20.1 L16.1 -20.1 13.5 -20.35 13.5 -20.25 Q13.4 -19.95 13.4 -19.85 13.4 -19.75 13.55 -19.5 L13.6 -19.45 Q15.5 -19.2 16.5 -18.95 16.3 -19.4 16.15 -19.85 L16.15 -20.1 M17.95 -16.3 Q17.65 -16.6 17.3 -17.1 16.8 -17.75 16.4 -18.4 16.4 -18.55 16.45 -18.65 L16.4 -18.7 Q15.45 -18.7 12.8 -19.1 L9.1 -19.65 9.0 -19.55 Q9.0 -19.45 8.95 -19.35 L9.1 -19.4 9.1 -19.35 Q8.9 -19.15 8.35 -18.9 7.95 -18.7 7.65 -18.6 L7.45 -18.45 7.35 -18.4 7.05 -18.1 6.5 -17.5 6.05 -16.9 Q5.95 -16.75 5.85 -16.55 L5.9 -16.6 6.0 -16.6 6.4 -16.7 7.45 -16.95 8.35 -17.15 8.6 -17.25 8.65 -17.3 8.7 -17.4 9.05 -18.15 Q9.15 -18.5 9.3 -18.75 9.55 -19.15 9.85 -19.35 L9.45 -18.2 9.35 -18.0 Q9.2 -17.65 9.0 -17.4 L9.05 -17.45 9.2 -17.55 9.2 -17.5 Q9.45 -17.65 9.8 -18.0 10.35 -18.3 11.25 -18.05 L11.25 -18.0 Q12.8 -17.8 14.3 -17.3 L14.4 -17.25 14.5 -17.25 Q15.15 -17.0 15.7 -16.75 L15.85 -16.7 16.6 -16.35 16.15 -17.5 15.95 -17.8 15.95 -17.95 16.0 -17.95 16.05 -17.9 16.05 -17.85 16.4 -17.4 16.5 -17.25 16.9 -16.45 16.95 -16.4 16.95 -16.35 17.1 -16.05 17.25 -15.95 17.3 -15.9 17.45 -15.6 17.7 -15.0 18.25 -13.85 18.25 -13.6 18.3 -13.5 18.3 -13.3 Q18.35 -12.75 18.55 -12.0 18.6 -11.6 18.9 -10.55 19.2 -9.35 20.35 -7.7 20.7 -7.2 22.0 -6.5 L22.8 -6.05 Q23.5 -5.8 24.3 -5.6 24.0 -6.05 23.8 -6.65 L23.2 -8.0 22.35 -9.95 21.9 -10.6 21.6 -10.2 21.65 -10.95 22.05 -11.5 Q22.65 -12.45 22.6 -13.3 22.55 -13.65 22.25 -14.75 L22.15 -15.1 22.05 -15.85 22.05 -16.0 Q21.75 -16.15 21.3 -16.75 L20.85 -17.6 Q20.8 -17.8 20.85 -17.85 L20.9 -17.85 Q21.05 -17.55 21.2 -17.3 21.15 -17.55 21.25 -17.85 L20.95 -17.95 20.25 -18.25 Q20.2 -18.25 20.2 -18.15 20.0 -18.3 20.0 -18.05 L20.0 -18.1 Q19.85 -17.75 19.65 -17.55 L19.5 -17.4 19.25 -17.4 19.15 -17.35 18.65 -17.35 Q17.8 -17.45 17.0 -18.05 L16.9 -18.15 16.6 -18.45 Q16.65 -18.2 16.85 -17.9 17.25 -17.3 18.1 -16.6 L18.75 -16.05 Q18.9 -16.0 19.0 -15.9 19.05 -15.85 18.9 -15.8 18.7 -15.8 18.45 -15.95 L18.35 -16.0 Q18.25 -16.05 18.15 -16.15 L18.0 -16.25 17.95 -16.3 M13.35 -20.35 L12.35 -20.45 10.15 -20.65 Q10.1 -20.55 10.05 -20.4 10.0 -20.1 10.1 -19.9 L10.55 -19.95 10.75 -19.9 11.0 -19.85 11.5 -19.8 12.45 -19.6 12.5 -19.6 13.35 -19.45 Q13.25 -19.7 13.25 -19.85 13.2 -20.05 13.35 -20.35 M14.4 -16.85 L13.5 -17.1 13.2 -16.8 12.65 -16.05 Q13.3 -16.5 14.2 -16.75 L14.4 -16.85 M15.1 -12.65 L15.45 -12.5 Q15.65 -12.4 15.75 -12.3 L15.8 -12.35 15.8 -12.25 15.9 -12.15 Q16.0 -11.9 16.05 -11.5 L16.1 -11.25 16.15 -11.1 16.1 -11.1 16.1 -11.05 16.45 -11.3 17.1 -11.75 17.05 -11.75 17.1 -11.85 Q17.4 -12.15 17.65 -12.55 L17.7 -12.75 17.9 -12.95 17.85 -13.2 Q17.75 -13.9 17.6 -14.2 L17.0 -15.3 16.9 -15.4 Q16.9 -15.35 16.8 -15.35 L16.5 -15.75 16.05 -16.15 15.95 -16.35 15.05 -16.65 14.9 -16.65 Q14.1 -16.6 13.2 -16.0 L13.25 -15.95 13.65 -15.9 14.3 -15.65 Q14.8 -15.5 15.4 -15.2 L15.65 -15.1 16.2 -14.85 16.55 -15.2 16.6 -15.2 16.55 -15.1 16.6 -15.1 Q16.6 -14.95 16.45 -14.7 L16.25 -14.5 16.1 -14.4 16.0 -14.35 15.9 -14.2 15.85 -14.2 15.85 -14.15 Q15.65 -14.0 15.5 -13.95 L15.3 -13.9 14.65 -13.9 Q13.8 -13.9 13.3 -14.4 13.0 -14.7 12.95 -15.05 L12.95 -15.15 12.85 -15.4 12.85 -15.45 12.65 -15.5 12.35 -15.3 Q12.3 -15.25 12.25 -15.25 L12.05 -15.25 12.05 -15.4 11.9 -15.65 11.9 -15.7 11.85 -15.9 11.85 -16.05 11.8 -16.5 Q11.85 -16.8 12.0 -16.9 L12.0 -16.95 12.1 -16.95 12.15 -16.8 12.1 -16.45 12.05 -16.05 12.1 -15.85 12.15 -15.75 12.25 -15.95 12.45 -16.25 12.5 -16.3 12.65 -16.5 12.65 -16.55 13.15 -17.2 Q12.3 -17.4 11.55 -17.6 L11.4 -16.85 11.3 -16.45 11.3 -16.15 11.3 -15.95 Q11.4 -15.95 11.55 -15.75 L11.65 -15.55 Q11.9 -15.1 11.95 -14.8 L12.0 -14.75 11.95 -14.7 11.95 -14.55 11.9 -14.55 11.9 -14.65 Q11.8 -14.8 11.6 -15.25 L11.35 -15.65 11.2 -15.75 11.0 -15.55 10.85 -15.35 10.8 -15.25 Q10.55 -14.8 10.55 -14.0 10.55 -13.55 10.6 -12.9 L10.7 -12.65 10.65 -12.55 10.65 -12.45 10.6 -12.5 10.55 -12.5 10.55 -12.55 10.5 -12.55 10.5 -12.6 Q10.4 -12.8 10.35 -13.15 L10.2 -13.0 10.05 -12.8 10.05 -12.7 Q10.05 -12.65 10.45 -12.05 L10.45 -12.0 10.55 -11.8 10.65 -11.7 Q10.85 -12.0 11.45 -12.25 L12.75 -12.8 12.75 -12.85 12.7 -13.0 12.65 -13.1 12.45 -13.35 12.4 -13.5 12.4 -13.65 Q12.6 -13.75 12.75 -13.55 L12.8 -13.45 12.85 -13.45 13.0 -13.2 13.05 -13.15 Q13.3 -12.95 14.5 -12.75 L14.45 -12.75 15.1 -12.65 M14.35 -15.25 L14.35 -15.15 Q14.4 -14.8 14.1 -14.8 13.85 -14.75 13.65 -14.95 13.45 -15.15 13.45 -15.25 13.45 -15.4 13.55 -15.45 L13.3 -15.55 13.05 -15.55 13.05 -15.5 13.0 -15.5 13.0 -15.45 Q13.2 -14.95 13.45 -14.65 13.9 -14.1 14.5 -14.1 L15.0 -14.2 15.3 -14.3 15.3 -14.25 15.5 -14.4 15.85 -14.65 14.9 -15.1 14.65 -15.15 14.45 -15.2 14.35 -15.25 M16.35 -16.4 Q16.4 -16.35 16.45 -16.35 L16.25 -16.45 Q16.3 -16.4 16.35 -16.4 M22.7 -17.5 L22.7 -17.75 Q22.65 -18.0 22.7 -18.8 22.75 -19.55 22.85 -19.8 L22.85 -19.85 22.65 -19.9 Q22.45 -19.85 22.15 -19.75 L22.05 -19.6 22.05 -19.5 21.9 -19.1 Q22.45 -18.7 22.45 -18.45 L22.45 -18.0 22.4 -17.9 22.45 -17.9 22.5 -17.8 Q22.4 -17.65 22.2 -17.65 21.95 -17.65 21.5 -17.75 21.45 -17.4 21.45 -17.15 L21.45 -17.1 Q21.55 -16.95 21.8 -16.75 L22.0 -16.6 Q22.2 -16.5 22.4 -16.45 L22.55 -16.45 22.8 -16.5 Q23.05 -16.65 23.25 -16.9 22.85 -17.15 22.75 -17.25 L22.7 -17.5 M23.55 -19.45 Q23.35 -19.7 23.0 -19.8 L23.0 -19.6 23.05 -19.4 22.95 -18.6 22.95 -18.4 22.9 -17.95 22.9 -17.75 Q22.95 -17.45 23.05 -17.35 L23.4 -17.05 23.55 -17.3 23.7 -17.5 23.8 -17.8 Q23.9 -18.2 23.85 -18.6 L23.85 -18.75 23.7 -19.2 23.6 -19.4 23.55 -19.45 M21.05 -19.1 L20.9 -19.2 20.8 -18.85 Q20.7 -18.6 20.55 -18.5 L21.75 -18.1 21.85 -18.3 21.9 -18.55 Q21.65 -18.8 21.15 -19.05 L21.15 -19.1 21.05 -19.1 M20.8 -19.25 L20.3 -19.55 20.1 -19.65 20.1 -19.6 20.15 -19.6 20.15 -19.45 Q20.15 -19.4 20.1 -19.3 L20.1 -18.8 20.05 -18.6 20.15 -18.6 20.4 -18.55 Q20.8 -19.0 20.8 -19.1 L20.8 -19.25 M22.0 -18.2 L21.9 -18.05 22.15 -17.95 22.25 -18.0 Q22.2 -18.2 22.05 -18.4 L22.0 -18.2 M19.35 -15.35 L19.45 -15.35 Q19.65 -14.1 20.35 -12.5 20.75 -11.5 21.65 -9.65 21.0 -10.05 20.25 -11.95 19.45 -13.75 19.35 -14.85 L19.35 -15.35 M8.45 -23.5 Q8.5 -23.8 8.6 -24.0 L8.6 -24.1 8.25 -23.85 8.15 -23.8 8.1 -23.75 7.8 -23.55 7.75 -23.45 Q7.55 -23.15 7.6 -22.7 L7.7 -22.35 7.7 -22.3 7.75 -22.3 Q7.85 -22.3 8.0 -22.35 8.15 -22.5 8.3 -22.75 L8.35 -23.15 8.4 -23.3 8.45 -23.5 M9.25 -22.95 L9.2 -23.35 Q9.15 -23.55 9.3 -23.75 L9.35 -23.8 9.3 -23.85 9.4 -23.85 9.45 -23.95 9.55 -23.9 9.6 -23.9 9.8 -23.95 10.25 -24.0 10.2 -24.1 10.05 -24.25 9.8 -24.45 9.75 -24.4 8.85 -24.2 Q8.9 -23.55 8.55 -22.8 8.4 -22.5 8.25 -22.25 L8.6 -22.3 8.7 -22.3 8.8 -22.3 Q9.05 -22.25 9.25 -22.1 L9.4 -21.9 9.5 -22.1 9.65 -22.4 9.8 -22.65 9.6 -22.7 9.55 -22.65 Q9.3 -22.7 9.25 -22.95 M8.45 -22.0 L8.25 -21.95 8.0 -21.8 7.9 -21.75 7.9 -21.65 Q7.95 -21.3 7.65 -20.65 L7.6 -20.6 Q7.3 -19.5 7.0 -19.5 L6.9 -19.5 6.9 -19.4 7.1 -19.05 7.2 -19.1 7.25 -18.95 7.25 -18.85 7.4 -18.85 Q7.55 -18.95 7.75 -19.05 L7.9 -19.1 Q8.35 -19.35 8.6 -19.55 8.4 -19.6 8.1 -19.8 L8.05 -19.85 Q7.75 -20.05 7.75 -20.15 7.7 -20.6 8.05 -20.85 L8.1 -20.85 Q8.2 -20.95 8.35 -21.0 L8.45 -21.0 8.5 -21.05 8.55 -21.05 9.2 -21.1 9.3 -21.1 9.3 -21.15 9.3 -21.2 Q9.25 -21.35 9.3 -21.5 L9.2 -21.7 9.05 -21.8 9.0 -21.85 8.75 -22.0 8.75 -22.05 8.45 -22.0 M10.95 -23.25 Q10.95 -23.5 10.95 -23.65 L10.05 -23.7 9.5 -23.6 9.45 -23.25 Q9.45 -23.1 9.75 -23.0 L11.1 -22.85 11.1 -22.9 11.05 -23.0 Q10.95 -23.15 10.95 -23.25 M5.5 -14.85 Q5.55 -14.35 5.8 -14.15 5.95 -14.0 6.3 -13.95 6.75 -13.85 6.95 -13.75 7.3 -13.6 7.55 -13.1 7.95 -12.3 8.1 -12.05 8.2 -11.95 8.3 -11.8 L8.35 -11.95 Q8.35 -12.15 7.8 -13.2 7.25 -14.35 7.2 -14.65 7.2 -15.1 7.6 -15.85 L7.65 -16.0 Q7.85 -16.5 8.1 -16.7 L8.0 -16.65 7.95 -16.65 7.95 -16.7 7.2 -16.45 5.65 -16.0 5.55 -15.5 5.5 -14.9 5.5 -14.85 M10.0 -20.65 L8.65 -20.8 Q8.5 -20.75 8.45 -20.7 L8.4 -20.65 Q8.15 -20.4 8.15 -20.25 L8.15 -20.2 8.2 -20.1 Q8.3 -20.05 8.45 -20.0 L9.65 -19.9 10.05 -19.9 9.95 -20.05 9.9 -20.2 Q9.9 -20.4 10.0 -20.65 M11.1 -16.45 L11.05 -16.65 11.15 -16.65 11.25 -17.15 Q11.25 -17.35 11.3 -17.45 L11.4 -17.65 10.95 -17.8 10.45 -17.7 10.8 -16.9 10.95 -16.45 11.0 -16.2 11.1 -16.45 M7.35 -20.5 L7.45 -20.7 Q7.7 -21.2 7.75 -21.6 L7.25 -20.95 7.15 -20.8 7.1 -20.75 6.95 -20.5 6.9 -20.4 Q6.85 -20.1 6.85 -19.8 L6.85 -19.65 6.9 -19.65 7.35 -20.5 M10.25 -14.45 L10.3 -14.7 9.8 -14.75 Q9.3 -14.8 8.95 -15.25 8.75 -15.45 8.4 -15.9 L8.3 -15.95 Q8.25 -15.95 8.2 -15.95 L8.2 -16.0 8.15 -16.0 8.1 -16.1 8.0 -15.85 7.95 -15.75 7.9 -15.7 7.8 -15.35 Q7.7 -15.05 7.7 -14.85 7.75 -14.4 8.25 -13.55 L8.7 -12.85 8.75 -12.8 Q8.75 -13.05 8.8 -13.2 8.95 -12.65 9.05 -11.55 9.15 -10.5 9.25 -9.95 L9.7 -9.1 9.65 -9.4 9.55 -9.8 9.55 -9.9 Q9.4 -10.75 9.35 -11.35 L9.35 -11.5 9.3 -11.5 Q9.25 -12.2 9.5 -12.45 9.6 -12.6 9.7 -12.6 L9.85 -12.9 10.0 -13.15 Q10.15 -13.45 10.3 -13.5 10.25 -13.85 10.25 -14.4 L10.25 -14.45 M8.35 -16.05 L8.35 -16.05 M7.75 -15.05 L7.75 -15.05 M10.2 -17.65 L9.4 -17.25 9.45 -17.2 9.95 -16.75 10.05 -16.7 10.65 -16.15 10.6 -16.35 10.45 -17.05 10.2 -17.65 M8.85 -17.0 L8.75 -16.95 Q8.5 -16.65 8.4 -16.1 L8.7 -16.2 8.75 -16.2 9.05 -16.3 9.4 -16.3 9.95 -16.25 9.85 -16.35 Q9.45 -16.75 9.2 -17.1 L9.1 -17.1 8.9 -17.0 8.85 -17.0 M9.15 -15.95 L9.0 -15.8 9.1 -15.65 Q9.25 -15.4 9.4 -15.15 9.75 -14.95 10.35 -14.9 L10.5 -15.15 10.75 -15.65 Q10.55 -15.75 10.2 -15.85 10.25 -15.8 10.25 -15.65 L10.3 -15.4 Q10.25 -15.35 10.1 -15.35 9.8 -15.3 9.6 -15.45 9.5 -15.55 9.5 -15.65 9.5 -15.9 9.7 -15.95 L9.15 -15.95 M9.9 -12.55 L9.95 -12.55 9.9 -12.6 9.9 -12.55 M14.4 -11.35 Q14.1 -11.15 13.75 -10.95 12.5 -10.25 11.9 -10.2 10.45 -10.1 9.6 -11.2 L9.6 -10.95 9.9 -9.35 9.9 -9.0 Q10.35 -8.85 10.9 -8.9 12.3 -9.05 13.8 -9.7 14.25 -9.9 14.8 -10.2 L15.65 -10.75 15.7 -10.75 15.9 -10.9 15.85 -11.1 15.8 -11.4 15.75 -11.8 15.65 -11.9 15.55 -12.1 Q15.0 -11.7 14.4 -11.35 M12.7 -12.35 Q12.4 -12.2 11.8 -12.05 L11.75 -12.0 11.35 -11.7 Q10.95 -11.4 10.9 -11.4 L10.6 -11.4 10.5 -11.5 Q10.35 -11.6 10.3 -11.75 L10.1 -12.0 Q9.85 -12.35 9.75 -12.5 9.55 -12.2 9.55 -11.65 L9.55 -11.35 9.65 -11.3 10.15 -10.9 Q10.75 -10.55 11.7 -10.65 12.95 -10.75 14.15 -11.55 L14.35 -11.65 15.0 -12.15 Q15.15 -12.25 15.3 -12.35 L15.0 -12.5 Q14.6 -12.7 14.0 -12.7 L13.3 -12.75 Q13.15 -12.8 13.05 -12.9 L13.0 -12.8 13.1 -12.75 13.0 -12.7 Q13.0 -12.5 12.95 -12.45 12.85 -12.4 12.7 -12.35 M8.3 -11.0 Q7.65 -10.45 7.65 -10.05 L7.7 -9.95 7.75 -9.65 7.95 -9.2 8.1 -8.6 8.2 -8.5 8.2 -8.45 Q8.45 -7.85 8.85 -7.1 L8.9 -7.05 8.9 -7.55 Q8.95 -8.75 8.9 -9.15 L8.85 -9.25 Q8.7 -9.35 8.6 -9.65 L8.45 -9.8 Q8.25 -10.1 8.2 -10.25 L8.2 -10.45 8.3 -10.5 8.4 -10.2 8.5 -10.15 8.5 -10.2 8.4 -11.1 8.3 -11.0 M7.95 -8.2 L7.9 -8.3 Q7.8 -7.95 7.6 -7.45 L7.5 -7.3 Q7.95 -7.35 8.3 -6.9 L8.55 -6.55 8.45 -6.85 Q8.0 -7.8 7.95 -8.0 L7.95 -8.2 M9.75 -8.75 L9.55 -8.75 9.35 -8.95 9.05 -9.2 9.1 -9.1 Q9.1 -8.75 9.1 -7.3 L9.1 -6.6 Q9.6 -5.75 9.9 -5.25 L9.95 -5.2 10.35 -5.1 11.35 -4.9 11.6 -4.85 11.4 -5.1 11.25 -5.4 Q10.9 -6.05 10.85 -6.6 10.85 -6.8 10.85 -7.05 L10.7 -7.75 Q10.55 -8.25 10.2 -8.6 L10.15 -8.6 9.9 -8.7 9.8 -8.7 9.75 -8.75 M13.2 -9.1 Q11.95 -8.6 11.15 -8.55 L10.6 -8.55 10.7 -8.4 Q10.9 -8.2 10.95 -7.95 11.05 -7.7 11.1 -6.9 L11.15 -6.4 Q11.25 -5.85 11.5 -5.4 11.75 -5.0 12.25 -4.75 L12.55 -4.8 12.95 -4.8 12.95 -4.85 Q13.45 -5.25 14.0 -5.55 L14.9 -6.05 14.45 -7.25 Q14.05 -8.4 14.05 -8.65 14.0 -9.0 14.6 -9.7 L14.75 -9.8 14.6 -9.75 13.35 -9.2 13.2 -9.1 M8.75 -5.95 L8.45 -6.3 8.4 -6.35 8.05 -6.8 Q7.75 -7.15 7.65 -7.1 L7.4 -7.05 7.3 -6.95 Q6.8 -5.85 6.75 -5.45 L6.9 -5.55 6.95 -5.55 Q7.25 -5.85 7.85 -5.9 L7.95 -5.9 8.65 -5.75 8.8 -5.7 8.85 -5.7 8.75 -5.9 8.9 -5.75 8.75 -5.95 M10.9 -4.75 L10.85 -4.75 9.8 -4.95 9.6 -4.95 Q8.9 -4.85 8.7 -3.9 L8.7 -2.9 8.75 -2.3 8.8 -2.2 8.85 -1.95 8.9 -1.9 8.95 -1.7 9.15 -1.55 Q9.55 -1.25 9.95 -1.15 10.2 -1.05 10.45 -1.05 L10.6 -1.1 10.65 -1.05 10.65 -1.1 10.75 -1.25 10.65 -1.25 Q10.65 -1.45 10.75 -1.7 L10.75 -1.75 Q10.85 -2.6 11.5 -3.35 L12.1 -4.05 12.2 -4.2 12.2 -4.3 12.15 -4.45 12.3 -4.4 12.3 -4.45 12.1 -4.45 12.0 -4.45 Q11.65 -4.6 10.9 -4.75 M9.25 -4.95 L9.55 -5.0 9.4 -5.05 9.15 -5.15 8.1 -5.3 Q7.65 -5.35 7.35 -5.3 6.95 -5.2 6.95 -4.85 L6.9 -4.8 6.95 -4.75 Q6.95 -4.65 7.05 -4.55 L7.0 -4.5 7.35 -4.15 8.35 -2.8 8.45 -2.7 8.4 -2.9 Q8.4 -3.25 8.4 -3.55 8.4 -3.95 8.5 -4.2 8.7 -4.75 9.25 -4.95 M7.85 -5.45 L7.85 -5.45 M11.0 -1.25 L11.05 -0.95 11.05 -0.85 11.55 -0.6 12.25 -0.5 12.8 -0.5 13.35 -0.6 Q13.2 -0.75 13.15 -0.9 L13.1 -1.0 Q13.05 -1.15 13.05 -1.45 L13.05 -2.4 13.1 -2.55 Q13.2 -3.15 13.45 -3.8 13.7 -4.55 14.1 -5.05 12.9 -4.3 12.1 -3.35 L12.05 -3.25 Q11.75 -2.85 11.4 -2.15 L11.0 -1.3 11.0 -1.25 M18.25 -9.55 L18.35 -10.05 18.25 -10.35 Q18.2 -10.5 18.15 -11.2 L18.05 -11.85 17.75 -11.6 17.55 -11.45 Q17.45 -11.2 17.5 -11.1 17.5 -11.05 17.8 -10.3 18.05 -9.8 18.15 -9.45 L18.15 -9.35 18.2 -9.4 18.2 -9.45 18.25 -9.55 M14.8 -7.3 Q15.0 -6.85 15.05 -6.45 L15.1 -6.25 15.1 -6.15 15.65 -6.45 16.1 -6.7 Q16.7 -7.3 17.45 -8.25 L18.0 -9.0 18.05 -9.05 Q17.85 -9.4 17.6 -10.1 17.25 -10.95 17.25 -11.1 L17.25 -11.25 17.2 -11.2 16.15 -10.55 16.0 -10.45 15.9 -10.45 15.55 -10.15 Q14.2 -9.0 14.25 -8.65 L14.65 -7.7 14.8 -7.3 M18.65 -9.0 L18.6 -9.2 18.45 -8.9 18.45 -8.85 18.35 -8.6 Q18.2 -8.1 18.2 -8.0 18.25 -7.85 18.65 -7.05 19.05 -6.25 19.1 -5.6 L19.1 -5.55 19.35 -5.8 19.6 -6.05 20.3 -7.05 20.0 -7.4 19.3 -8.2 18.75 -8.75 18.75 -8.8 18.65 -9.0 M17.25 -3.5 L17.4 -3.7 18.95 -5.35 18.9 -5.55 Q18.85 -6.2 18.45 -6.9 18.05 -7.65 18.0 -8.0 L18.0 -8.1 17.9 -8.05 17.85 -8.0 Q17.7 -7.65 17.45 -7.35 L17.35 -7.25 17.15 -6.65 16.85 -5.45 16.45 -3.55 Q16.3 -3.0 16.1 -2.55 L16.0 -2.3 16.0 -2.2 16.3 -2.45 17.25 -3.5 M16.55 -6.45 L16.55 -6.5 16.5 -6.45 16.55 -6.45 M13.25 -1.85 Q13.25 -1.7 13.25 -1.5 13.3 -1.25 13.55 -0.65 L13.8 -0.75 14.0 -0.9 14.35 -1.0 Q14.85 -1.3 15.45 -1.75 L15.65 -2.5 Q15.8 -3.15 15.9 -3.5 16.1 -3.9 16.25 -4.95 L16.35 -5.35 16.4 -5.75 16.4 -5.8 16.45 -5.85 16.45 -5.9 16.5 -6.3 16.2 -6.15 16.05 -6.05 Q15.65 -5.9 15.1 -5.6 L14.65 -5.3 14.45 -5.25 Q14.0 -4.7 13.65 -3.7 13.25 -2.65 13.25 -1.85 M24.15 -21.2 Q24.05 -21.45 23.85 -21.75 23.6 -22.1 23.35 -22.2 L23.5 -21.65 23.55 -20.9 23.55 -20.85 23.65 -20.45 23.65 -20.4 Q23.75 -20.25 23.85 -20.15 L23.9 -20.1 23.95 -20.15 24.0 -20.3 Q24.2 -20.85 24.15 -21.05 L24.15 -21.2" fill="#000000" fill-rule="evenodd" stroke="none"/>
    <path d="M22.55 -20.35 L22.55 -20.35 M15.4 -23.45 L15.4 -23.45 M14.35 -15.25 L14.45 -15.2 14.65 -15.15 14.9 -15.1 15.85 -14.65 15.5 -14.4 15.3 -14.25 15.3 -14.3 15.0 -14.2 14.5 -14.1 Q13.9 -14.1 13.45 -14.65 13.2 -14.95 13.0 -15.45 L13.0 -15.5 13.05 -15.5 13.05 -15.55 13.3 -15.55 13.55 -15.45 Q13.45 -15.4 13.45 -15.25 13.45 -15.15 13.65 -14.95 13.85 -14.75 14.1 -14.8 14.4 -14.8 14.35 -15.15 L14.35 -15.25 M8.35 -16.05 L8.35 -16.05 M9.15 -15.95 L9.7 -15.95 Q9.5 -15.9 9.5 -15.65 9.5 -15.55 9.6 -15.45 9.8 -15.3 10.1 -15.35 10.25 -15.35 10.3 -15.4 L10.25 -15.65 Q10.25 -15.8 10.2 -15.85 10.55 -15.75 10.75 -15.65 L10.5 -15.15 10.35 -14.9 Q9.75 -14.95 9.4 -15.15 9.25 -15.4 9.1 -15.65 L9.0 -15.8 9.15 -15.95 M9.9 -12.55 L9.9 -12.6 9.95 -12.55 9.9 -12.55 M16.55 -6.45 L16.5 -6.45 16.55 -6.5 16.55 -6.45" fill="#ffffff" fill-rule="evenodd" stroke="none"/>
    <path d="M15.5 -13.95 Q15.4 -13.5 15.2 -12.95 L15.1 -12.65 14.45 -12.75 14.5 -12.75 Q13.3 -12.95 13.05 -13.15 L13.0 -13.2 12.85 -13.45 12.8 -13.45 12.75 -13.55 Q12.85 -13.7 12.85 -13.95 12.85 -14.5 12.6 -15.0 L12.35 -15.3 12.65 -15.5 12.85 -15.45 12.85 -15.4 12.95 -15.15 12.95 -15.05 Q13.0 -14.7 13.3 -14.4 13.8 -13.9 14.65 -13.9 L15.3 -13.9 15.5 -13.95 M12.45 -13.35 L12.65 -13.1 12.7 -13.0 12.75 -12.85 12.75 -12.8 11.45 -12.25 Q10.85 -12.0 10.65 -11.7 L10.55 -11.8 10.45 -12.0 10.45 -12.05 Q10.05 -12.65 10.05 -12.7 L10.05 -12.8 10.2 -13.0 10.35 -13.15 Q10.4 -12.8 10.5 -12.6 L10.5 -12.55 10.55 -12.55 10.55 -12.5 10.6 -12.5 10.65 -12.45 10.65 -12.55 10.7 -12.65 10.6 -12.9 Q10.55 -13.55 10.55 -14.0 10.55 -14.8 10.8 -15.25 L10.85 -15.35 11.0 -15.55 11.2 -15.75 11.35 -15.65 Q11.15 -15.45 11.15 -15.0 11.25 -14.55 11.4 -14.15 11.75 -13.3 12.25 -13.3 L12.45 -13.35 M11.55 -15.75 Q11.4 -15.95 11.3 -15.95 L11.3 -16.15 Q11.5 -15.9 11.85 -15.85 L11.85 -15.9 11.9 -15.7 Q11.7 -15.8 11.55 -15.75 M12.25 -15.95 L12.15 -15.75 12.1 -15.85 12.2 -15.85 12.25 -15.95 M10.95 -16.45 L11.1 -16.45 11.0 -16.2 10.95 -16.45 M7.8 -15.35 L7.75 -15.25 8.05 -14.9 Q8.8 -14.15 9.55 -14.15 9.8 -14.15 10.05 -14.25 L10.25 -14.45 10.25 -14.4 Q10.25 -13.85 10.3 -13.5 10.15 -13.45 10.0 -13.15 L9.85 -12.9 9.7 -12.6 Q9.6 -12.6 9.5 -12.45 9.25 -12.2 9.3 -11.5 L9.35 -11.5 9.35 -11.35 Q9.4 -10.75 9.55 -9.9 L9.55 -9.8 9.65 -9.4 9.7 -9.1 9.25 -9.95 Q9.15 -10.5 9.05 -11.55 8.95 -12.65 8.8 -13.2 8.75 -13.05 8.75 -12.8 L8.7 -12.85 8.25 -13.55 Q7.75 -14.4 7.7 -14.85 7.7 -15.05 7.8 -15.35 M7.75 -15.05 L7.75 -15.05 M14.8 -10.2 Q14.25 -9.9 13.8 -9.7 12.3 -9.05 10.9 -8.9 10.35 -8.85 9.9 -9.0 L9.9 -9.35 9.6 -10.95 9.6 -11.2 Q10.45 -10.1 11.9 -10.2 12.5 -10.25 13.75 -10.95 14.1 -11.15 14.4 -11.35 14.35 -11.1 14.35 -10.85 14.3 -10.65 14.4 -10.45 14.5 -10.25 14.65 -10.15 L14.8 -10.2 M15.85 -11.1 L15.9 -10.9 15.7 -10.75 15.85 -11.0 15.85 -11.1 M14.35 -11.65 L14.15 -11.55 Q12.95 -10.75 11.7 -10.65 10.75 -10.55 10.15 -10.9 L9.65 -11.3 9.55 -11.35 9.55 -11.65 Q9.55 -12.2 9.75 -12.5 9.85 -12.35 10.1 -12.0 L10.3 -11.75 Q10.35 -11.6 10.5 -11.5 L10.6 -11.4 10.9 -11.4 Q10.95 -11.4 11.35 -11.7 L11.75 -12.0 11.8 -12.05 Q12.4 -12.2 12.7 -12.35 12.85 -12.2 13.25 -12.0 13.75 -11.75 14.35 -11.65" fill="#bbc1d0" fill-rule="evenodd" stroke="none"/>
    <path d="M8.3 -11.0 L8.4 -11.1 8.5 -10.2 8.5 -10.15 8.4 -10.2 8.3 -10.5 8.2 -10.45 8.2 -10.25 Q8.25 -10.1 8.45 -9.8 L8.6 -9.65 Q8.7 -9.35 8.85 -9.25 L8.9 -9.15 Q8.95 -8.75 8.9 -7.55 L8.9 -7.05 8.85 -7.1 Q8.45 -7.85 8.2 -8.45 L8.2 -8.5 8.1 -8.6 7.95 -9.2 7.75 -9.65 7.7 -9.95 7.65 -10.05 Q7.65 -10.45 8.3 -11.0 M7.95 -8.2 L7.95 -8.0 Q8.0 -7.8 8.45 -6.85 L8.55 -6.55 8.3 -6.9 Q7.95 -7.35 7.5 -7.3 L7.6 -7.45 Q7.8 -7.95 7.9 -8.3 L7.95 -8.2 M10.35 -5.1 L9.95 -5.2 9.9 -5.25 Q9.6 -5.75 9.1 -6.6 L9.1 -7.3 Q9.1 -8.75 9.1 -9.1 L9.05 -9.2 9.35 -8.95 9.55 -8.75 9.75 -8.75 Q9.65 -8.55 9.65 -8.2 9.8 -7.3 10.0 -6.4 10.2 -5.55 10.35 -5.1 M11.4 -5.1 L11.6 -4.85 11.35 -4.9 11.4 -5.1 M12.55 -4.8 L12.25 -4.75 Q11.75 -5.0 11.5 -5.4 11.25 -5.85 11.15 -6.4 L11.1 -6.9 Q11.05 -7.7 10.95 -7.95 10.9 -8.2 10.7 -8.4 L10.6 -8.55 11.15 -8.55 Q11.95 -8.6 13.2 -9.1 L12.95 -8.6 Q12.75 -8.0 12.75 -7.75 L12.6 -6.45 Q12.45 -5.3 12.45 -5.15 12.45 -4.95 12.55 -4.8 M14.6 -9.75 L14.75 -9.8 14.6 -9.7 14.6 -9.75 M8.65 -5.75 L8.75 -5.85 8.75 -5.9 8.8 -5.9 8.75 -5.95 8.9 -5.75 8.75 -5.9 8.85 -5.7 8.8 -5.7 8.65 -5.75 M8.05 -6.8 Q7.8 -6.65 7.8 -6.3 7.8 -6.2 7.85 -6.0 L7.95 -5.9 7.85 -5.9 Q7.25 -5.85 6.95 -5.55 L6.9 -5.55 6.75 -5.45 Q6.8 -5.85 7.3 -6.95 L7.4 -7.05 7.65 -7.1 Q7.75 -7.15 8.05 -6.8 M8.75 -2.3 L8.7 -2.9 8.7 -3.9 Q8.9 -4.85 9.6 -4.95 L9.8 -4.95 10.85 -4.75 10.9 -4.75 10.65 -4.55 Q9.9 -3.85 9.05 -2.85 L8.75 -2.45 8.75 -2.3 M10.75 -1.75 L10.75 -1.7 Q10.65 -1.45 10.65 -1.25 L10.75 -1.25 10.65 -1.1 10.65 -1.05 10.6 -1.1 10.45 -1.05 Q10.2 -1.05 9.95 -1.15 10.25 -1.3 10.75 -1.75 M9.25 -4.95 L9.3 -5.1 9.15 -5.15 9.4 -5.05 9.55 -5.0 9.25 -4.95 M8.1 -5.3 L7.85 -5.05 Q7.55 -4.7 7.55 -4.35 7.55 -3.75 8.1 -3.2 L8.4 -3.55 Q8.4 -3.25 8.4 -2.9 L8.45 -2.7 8.35 -2.8 7.35 -4.15 7.0 -4.5 7.05 -4.55 Q6.95 -4.65 6.95 -4.75 L6.9 -4.8 6.95 -4.85 Q6.95 -5.2 7.35 -5.3 7.65 -5.35 8.1 -5.3 M11.0 -1.25 L11.0 -1.3 11.4 -2.15 Q11.75 -2.85 12.05 -3.25 L12.1 -3.35 Q12.9 -4.3 14.1 -5.05 13.7 -4.55 13.45 -3.8 13.2 -3.15 13.1 -2.55 12.8 -2.55 12.3 -2.3 11.8 -2.05 11.35 -1.65 11.1 -1.4 11.0 -1.25 M13.1 -1.0 L13.15 -0.9 Q13.2 -0.75 13.35 -0.6 L12.8 -0.5 12.25 -0.5 Q12.6 -0.65 13.0 -0.95 L13.1 -1.0 M18.15 -11.2 L17.9 -11.5 17.75 -11.6 18.05 -11.85 18.15 -11.2 M18.15 -9.45 L18.2 -9.45 18.25 -9.55 18.2 -9.45 18.2 -9.4 18.15 -9.35 18.15 -9.45 M16.0 -10.45 L15.85 -9.95 15.15 -8.35 14.75 -7.45 14.8 -7.3 14.65 -7.7 14.25 -8.65 Q14.2 -9.0 15.55 -10.15 L15.9 -10.45 16.0 -10.45 M19.35 -5.8 L19.1 -5.55 19.1 -5.6 Q19.05 -6.25 18.65 -7.05 18.25 -7.85 18.2 -8.0 18.2 -8.1 18.35 -8.6 L18.45 -8.85 18.45 -8.9 18.6 -9.2 18.65 -9.0 Q18.45 -8.8 18.45 -8.25 18.45 -8.1 18.85 -7.0 19.15 -6.05 19.35 -5.8 M18.0 -8.1 Q17.7 -7.6 17.45 -6.8 17.1 -5.5 17.1 -3.95 17.1 -3.75 17.2 -3.55 L17.25 -3.5 16.3 -2.45 16.0 -2.2 16.0 -2.3 16.1 -2.55 Q16.3 -3.0 16.45 -3.55 L16.85 -5.45 17.15 -6.65 17.35 -7.25 17.45 -7.35 Q17.7 -7.65 17.85 -8.0 L17.9 -8.05 18.0 -8.1 M15.1 -5.6 L15.0 -5.45 Q14.4 -4.4 13.7 -2.85 L13.25 -1.85 Q13.25 -2.65 13.65 -3.7 14.0 -4.7 14.45 -5.25 L14.65 -5.3 15.1 -5.6" fill="#c2b17c" fill-rule="evenodd" stroke="none"/>
    <path d="M16.2 -23.7 L16.2 -23.65 12.7 -23.95 11.35 -24.0 10.5 -24.0 10.45 -24.1 10.45 -24.5 10.55 -24.65 Q11.15 -25.05 12.95 -25.2 L14.65 -25.1 15.3 -24.85 15.65 -24.7 Q15.55 -24.55 15.55 -24.35 15.55 -24.15 15.6 -24.0 15.7 -23.7 16.1 -23.7 L16.2 -23.7 M15.15 -22.05 L15.15 -21.8 Q15.15 -21.55 15.2 -21.3 14.8 -21.55 14.35 -21.6 L15.3 -20.8 Q15.4 -20.65 15.5 -20.55 14.75 -20.75 13.45 -20.9 L13.0 -20.95 Q11.15 -21.2 9.55 -21.1 9.55 -21.35 9.65 -21.6 9.8 -22.3 10.15 -22.65 L10.4 -22.65 Q11.5 -22.4 13.1 -22.25 L15.15 -22.05 M16.1 -20.45 L16.2 -20.55 16.15 -20.4 16.1 -20.45 M16.7 -22.05 L16.7 -22.1 16.7 -22.05 M7.45 -16.95 L6.4 -16.7 6.0 -16.6 5.9 -16.6 5.85 -16.55 Q5.95 -16.75 6.05 -16.9 L6.5 -17.5 7.05 -18.1 7.35 -18.4 7.45 -18.45 7.65 -18.6 Q7.95 -18.7 8.35 -18.9 8.9 -19.15 9.1 -19.35 L9.1 -19.4 8.95 -19.35 Q9.0 -19.45 9.0 -19.55 L9.1 -19.65 12.8 -19.1 Q15.45 -18.7 16.4 -18.7 L16.45 -18.65 Q16.4 -18.55 16.4 -18.4 16.8 -17.75 17.3 -17.1 17.65 -16.6 17.95 -16.3 L17.9 -16.35 17.8 -16.3 Q17.55 -16.0 17.45 -15.6 L17.3 -15.9 17.25 -15.95 17.1 -16.05 16.95 -16.35 16.95 -16.4 16.9 -16.45 Q16.9 -16.75 16.45 -17.3 L16.5 -17.25 16.4 -17.4 16.05 -17.85 16.05 -17.9 16.0 -17.95 15.95 -17.95 15.95 -17.8 15.95 -17.85 15.25 -18.4 Q14.75 -18.75 14.35 -18.85 L13.95 -18.9 Q13.55 -18.9 13.55 -18.3 13.85 -17.85 14.3 -17.3 12.8 -17.8 11.25 -18.0 L11.25 -18.05 Q10.35 -18.3 9.8 -18.0 9.45 -17.65 9.2 -17.5 L9.2 -17.55 9.05 -17.45 9.0 -17.4 Q9.5 -18.0 9.5 -18.25 L9.5 -18.3 9.45 -18.2 9.85 -19.35 Q9.55 -19.15 9.3 -18.75 9.05 -18.9 8.45 -18.45 8.05 -18.15 7.75 -17.75 7.45 -17.35 7.45 -17.15 7.45 -17.05 7.45 -16.95 M16.85 -17.9 Q16.65 -18.2 16.6 -18.45 L16.9 -18.15 16.85 -17.9" fill="#cc4839" fill-rule="evenodd" stroke="none"/>
    <path d="M19.95 -22.35 L20.05 -22.7 20.8 -22.2 Q20.85 -22.05 20.8 -21.9 20.75 -21.65 20.65 -21.5 L20.6 -21.55 20.3 -21.7 19.9 -21.95 19.85 -22.0 Q19.85 -22.05 19.95 -22.35 M22.35 -21.3 L22.4 -21.25 22.9 -20.85 Q22.6 -20.6 22.45 -20.55 L21.95 -20.8 Q22.05 -20.95 22.05 -21.1 L22.05 -21.45 22.35 -21.3 M20.75 -21.45 Q20.9 -21.6 20.95 -21.75 21.0 -21.8 20.95 -22.1 L21.15 -22.0 Q21.6 -21.7 21.95 -21.55 L21.9 -21.3 Q21.9 -21.05 21.8 -20.9 L21.05 -21.25 20.75 -21.45 M13.5 -23.35 L13.55 -23.25 13.55 -23.15 Q13.55 -23.0 13.65 -22.8 L13.7 -22.65 11.85 -22.8 11.35 -22.85 11.25 -23.0 11.2 -23.05 Q11.1 -23.2 11.1 -23.3 11.1 -23.4 11.2 -23.6 L12.9 -23.4 13.5 -23.35 M13.7 -23.25 L13.7 -23.35 15.8 -23.15 16.25 -23.2 16.35 -22.75 16.5 -22.4 15.0 -22.5 14.65 -22.55 14.05 -22.6 13.9 -22.6 13.8 -22.8 13.7 -23.15 13.7 -23.25 M16.15 -20.1 L16.15 -19.85 Q16.3 -19.4 16.5 -18.95 15.5 -19.2 13.6 -19.45 L13.55 -19.5 Q13.4 -19.75 13.4 -19.85 13.4 -19.95 13.5 -20.25 L13.5 -20.35 16.1 -20.1 16.15 -20.1 M13.35 -20.35 Q13.2 -20.05 13.25 -19.85 13.25 -19.7 13.35 -19.45 L12.5 -19.6 12.45 -19.6 11.5 -19.8 11.0 -19.85 10.75 -19.9 10.55 -19.95 10.1 -19.9 Q10.0 -20.1 10.05 -20.4 10.1 -20.55 10.15 -20.65 L12.35 -20.45 13.35 -20.35 M22.0 -18.2 L22.05 -18.4 Q22.2 -18.2 22.25 -18.0 L22.15 -17.95 21.9 -18.05 22.0 -18.2 M20.8 -19.25 L20.8 -19.1 Q20.8 -19.0 20.4 -18.55 L20.15 -18.6 20.05 -18.6 20.1 -18.8 20.1 -19.3 Q20.15 -19.4 20.15 -19.45 L20.15 -19.6 20.1 -19.6 20.1 -19.65 20.3 -19.55 20.8 -19.25 M21.05 -19.1 L21.15 -19.1 21.15 -19.05 Q21.65 -18.8 21.9 -18.55 L21.85 -18.3 21.75 -18.1 20.55 -18.5 Q20.7 -18.6 20.8 -18.85 L20.9 -19.2 21.05 -19.1 M10.95 -23.25 Q10.95 -23.15 11.05 -23.0 L11.1 -22.9 11.1 -22.85 9.75 -23.0 Q9.45 -23.1 9.45 -23.25 L9.5 -23.6 10.05 -23.7 10.95 -23.65 Q10.95 -23.5 10.95 -23.25 M10.0 -20.65 Q9.9 -20.4 9.9 -20.2 L9.95 -20.05 10.05 -19.9 9.65 -19.9 8.45 -20.0 Q8.3 -20.05 8.2 -20.1 L8.15 -20.2 8.15 -20.25 Q8.15 -20.4 8.4 -20.65 L8.45 -20.7 Q8.5 -20.75 8.65 -20.8 L10.0 -20.65" fill="#605593" fill-rule="evenodd" stroke="none"/>
    <path d="M18.35 -23.05 L18.2 -23.05 18.0 -23.15 17.85 -23.8 17.65 -24.7 17.65 -24.8 Q18.45 -24.9 18.95 -24.55 L18.75 -24.65 Q18.25 -24.3 18.25 -23.3 18.25 -23.2 18.35 -23.05 M19.7 -23.25 L19.7 -23.15 Q19.75 -22.95 19.6 -22.7 L19.5 -22.6 19.35 -22.7 19.35 -22.75 Q19.55 -22.9 19.7 -23.25 M17.4 -24.75 L17.25 -24.75 17.35 -24.8 17.4 -24.75 M16.5 -24.0 L16.55 -23.85 Q16.75 -23.45 17.15 -23.45 17.4 -23.45 17.55 -23.6 L17.6 -23.45 Q17.65 -23.1 17.85 -22.95 17.1 -22.75 16.9 -22.65 L16.85 -22.6 16.6 -22.95 Q16.55 -23.05 16.55 -23.3 L16.6 -23.4 16.5 -23.4 16.5 -24.0 M18.5 -22.15 Q18.4 -22.25 18.2 -22.25 17.9 -22.25 17.75 -22.1 L17.75 -22.5 Q17.8 -22.55 17.9 -22.55 L18.05 -22.6 18.1 -22.6 18.3 -22.65 18.4 -22.65 18.6 -22.6 Q18.55 -22.45 18.5 -22.15 M17.8 -21.2 Q17.95 -21.1 18.2 -21.1 18.35 -21.1 18.55 -21.2 L18.6 -21.25 18.65 -20.6 Q18.4 -19.6 18.4 -19.25 L18.35 -19.25 Q18.05 -19.55 17.85 -20.65 L17.8 -21.2 M16.9 -21.4 L16.9 -21.5 17.2 -22.0 17.25 -22.05 17.25 -22.1 17.35 -22.25 17.5 -22.35 Q17.45 -22.2 17.45 -22.05 17.45 -21.9 17.5 -21.3 L17.5 -21.25 Q17.3 -21.45 17.0 -21.45 L16.9 -21.4 M17.7 -20.05 Q17.75 -19.8 17.85 -19.55 L17.9 -19.55 Q18.0 -19.25 18.2 -19.1 L17.95 -18.95 Q17.65 -18.65 17.65 -18.15 L17.65 -18.0 17.55 -18.05 17.5 -18.15 17.1 -18.6 Q16.8 -19.0 16.7 -19.35 L16.65 -19.45 16.6 -19.8 Q16.75 -19.7 17.0 -19.7 17.45 -19.7 17.7 -20.05 M19.55 -18.9 L19.7 -18.95 19.65 -18.75 19.55 -18.9 M23.15 -20.8 L23.15 -20.85 Q23.1 -21.1 22.85 -21.3 L22.85 -21.35 22.5 -21.65 Q22.65 -22.05 22.95 -22.2 L23.25 -22.2 Q23.25 -21.85 23.3 -21.2 L23.3 -20.85 23.15 -20.8 M22.75 -20.15 L22.55 -20.15 22.55 -20.35 Q22.65 -20.35 22.8 -20.45 L22.75 -20.2 22.75 -20.15 M21.8 -16.75 Q21.55 -16.95 21.45 -17.1 L21.45 -17.15 Q21.45 -17.4 21.5 -17.75 21.95 -17.65 22.2 -17.65 22.4 -17.65 22.5 -17.8 L22.45 -17.9 22.4 -17.9 22.45 -18.0 22.45 -18.45 Q22.45 -18.7 21.9 -19.1 L22.05 -19.5 22.05 -19.6 22.15 -19.75 Q22.45 -19.85 22.65 -19.9 L22.85 -19.85 22.85 -19.8 Q22.75 -19.55 22.7 -18.8 22.65 -18.0 22.7 -17.75 L22.7 -17.5 22.65 -17.5 Q21.85 -17.4 21.8 -16.75 M22.95 -18.6 L23.05 -19.4 23.0 -19.6 23.0 -19.8 Q23.35 -19.7 23.55 -19.45 23.1 -19.2 22.95 -18.6 M23.55 -17.3 L23.4 -17.05 23.05 -17.35 Q22.95 -17.45 22.9 -17.75 L22.9 -17.95 Q22.9 -17.8 22.95 -17.65 23.05 -17.25 23.45 -17.25 L23.55 -17.3 M8.15 -23.8 L8.25 -23.85 8.6 -24.1 8.6 -24.0 Q8.5 -23.8 8.45 -23.5 L8.15 -23.8 M8.35 -23.15 L8.3 -22.75 Q8.15 -22.5 8.0 -22.35 7.85 -22.3 7.75 -22.3 L7.7 -22.3 7.7 -22.35 7.6 -22.7 Q7.55 -23.15 7.75 -23.45 L7.8 -23.55 8.1 -23.75 Q8.1 -23.6 7.95 -23.5 L7.75 -23.45 Q7.75 -23.3 8.1 -23.0 L8.3 -23.1 8.35 -23.15 M8.7 -22.3 L8.6 -22.3 8.25 -22.25 Q8.4 -22.5 8.55 -22.8 8.9 -23.55 8.85 -24.2 L9.75 -24.4 9.8 -24.45 10.05 -24.25 10.2 -24.1 10.25 -24.0 9.8 -23.95 9.6 -23.9 9.55 -23.9 9.45 -23.95 9.4 -23.85 9.3 -23.85 9.35 -23.8 9.3 -23.75 Q9.15 -23.55 9.2 -23.35 L9.25 -22.95 9.15 -22.95 Q8.7 -22.95 8.7 -22.4 L8.7 -22.3 M9.6 -22.7 L9.8 -22.65 9.65 -22.4 9.65 -22.45 9.6 -22.7 M9.5 -22.1 L9.4 -21.9 9.25 -22.1 9.35 -22.0 9.5 -22.1 M7.75 -19.05 Q7.55 -18.95 7.4 -18.85 L7.25 -18.85 7.25 -18.95 7.2 -19.1 7.1 -19.05 6.9 -19.4 6.9 -19.5 7.0 -19.5 Q7.3 -19.5 7.6 -20.6 L7.65 -20.65 Q7.95 -21.3 7.9 -21.65 L7.9 -21.75 8.0 -21.8 8.25 -21.95 8.45 -22.0 Q8.35 -21.85 8.35 -21.55 8.35 -21.35 8.4 -21.2 8.4 -21.1 8.45 -21.0 L8.35 -21.0 Q8.2 -20.95 8.1 -20.85 L8.05 -20.85 Q7.7 -20.6 7.75 -20.15 7.75 -20.05 8.05 -19.85 7.65 -19.75 7.65 -19.35 7.65 -19.15 7.7 -19.1 L7.75 -19.05 M7.45 -20.7 L7.3 -20.9 7.25 -20.95 7.75 -21.6 Q7.7 -21.2 7.45 -20.7 M6.95 -20.5 L6.95 -20.4 7.1 -20.3 7.3 -20.5 7.35 -20.5 6.9 -19.65 6.85 -19.65 6.85 -19.8 Q6.85 -20.1 6.9 -20.4 L6.95 -20.5 M23.55 -20.9 L23.5 -21.65 23.35 -22.2 Q23.6 -22.1 23.85 -21.75 24.05 -21.45 24.15 -21.2 L24.05 -21.2 Q23.7 -21.15 23.55 -20.9 M23.95 -20.15 L23.9 -20.1 23.85 -20.15 23.95 -20.15" fill="#f1d785" fill-rule="evenodd" stroke="none"/>
    <path d="M14.4 -16.85 L14.2 -16.75 Q13.3 -16.5 12.65 -16.05 L13.2 -16.8 13.5 -17.1 14.4 -16.85 M10.2 -17.65 L10.45 -17.05 10.6 -16.35 10.65 -16.15 10.05 -16.7 9.95 -16.75 9.45 -17.2 9.4 -17.25 10.2 -17.65" fill="#e7d68f" fill-rule="evenodd" stroke="none"/>
    <path d="M10.35 -5.1 Q10.2 -5.55 10.0 -6.4 9.8 -7.3 9.65 -8.2 9.65 -8.55 9.75 -8.75 L9.8 -8.7 9.9 -8.7 10.15 -8.6 10.2 -8.6 Q10.55 -8.25 10.7 -7.75 L10.85 -7.05 Q10.85 -6.8 10.85 -6.6 10.9 -6.05 11.25 -5.4 L11.4 -5.1 11.35 -4.9 10.35 -5.1 M12.55 -4.8 Q12.45 -4.95 12.45 -5.15 12.45 -5.3 12.6 -6.45 L12.75 -7.75 Q12.75 -8.0 12.95 -8.6 L13.2 -9.1 13.35 -9.2 14.6 -9.75 14.6 -9.7 Q14.0 -9.0 14.05 -8.65 14.05 -8.4 14.45 -7.25 L14.9 -6.05 14.0 -5.55 Q13.45 -5.25 12.95 -4.85 L12.95 -4.8 12.55 -4.8 M8.75 -5.95 L8.8 -5.9 8.75 -5.9 8.75 -5.85 8.65 -5.75 7.95 -5.9 7.85 -6.0 Q7.8 -6.2 7.8 -6.3 7.8 -6.65 8.05 -6.8 L8.4 -6.35 8.45 -6.3 8.75 -5.95 M8.75 -2.3 L8.75 -2.45 9.05 -2.85 Q9.9 -3.85 10.65 -4.55 L10.9 -4.75 Q11.65 -4.6 12.0 -4.45 L12.1 -4.45 12.15 -4.45 12.2 -4.3 12.2 -4.2 12.1 -4.05 11.5 -3.35 Q10.85 -2.6 10.75 -1.75 10.25 -1.3 9.95 -1.15 9.55 -1.25 9.15 -1.55 L8.95 -1.7 8.9 -1.9 8.85 -1.95 8.8 -2.2 8.75 -2.3 M9.15 -5.15 L9.3 -5.1 9.25 -4.95 Q8.7 -4.75 8.5 -4.2 8.4 -3.95 8.4 -3.55 L8.1 -3.2 Q7.55 -3.75 7.55 -4.35 7.55 -4.7 7.85 -5.05 L8.1 -5.3 9.15 -5.15 M12.25 -0.5 L11.55 -0.6 11.05 -0.85 11.05 -0.95 11.0 -1.25 Q11.1 -1.4 11.35 -1.65 11.8 -2.05 12.3 -2.3 12.8 -2.55 13.1 -2.55 L13.05 -2.4 13.05 -1.45 Q13.05 -1.15 13.1 -1.0 L13.0 -0.95 Q12.6 -0.65 12.25 -0.5 M18.15 -11.2 Q18.2 -10.5 18.25 -10.35 L18.35 -10.05 18.25 -9.55 18.2 -9.45 18.15 -9.45 Q18.05 -9.8 17.8 -10.3 17.5 -11.05 17.5 -11.1 17.45 -11.2 17.55 -11.45 L17.75 -11.6 17.9 -11.5 18.15 -11.2 M16.0 -10.45 L16.15 -10.55 17.2 -11.2 17.25 -11.25 17.25 -11.1 Q17.25 -10.95 17.6 -10.1 17.85 -9.4 18.05 -9.05 L18.0 -9.0 17.45 -8.25 Q16.7 -7.3 16.1 -6.7 L15.65 -6.45 15.1 -6.15 15.1 -6.25 15.05 -6.45 Q15.0 -6.85 14.8 -7.3 L14.75 -7.45 15.15 -8.35 15.85 -9.95 16.0 -10.45 M19.35 -5.8 Q19.15 -6.05 18.85 -7.0 18.45 -8.1 18.45 -8.25 18.45 -8.8 18.65 -9.0 L18.75 -8.8 18.75 -8.75 19.3 -8.2 20.0 -7.4 20.3 -7.05 19.6 -6.05 19.35 -5.8 M18.0 -8.1 L18.0 -8.0 Q18.05 -7.65 18.45 -6.9 18.85 -6.2 18.9 -5.55 L18.95 -5.35 17.4 -3.7 17.25 -3.5 17.2 -3.55 Q17.1 -3.75 17.1 -3.95 17.1 -5.5 17.45 -6.8 17.7 -7.6 18.0 -8.1 M15.1 -5.6 Q15.65 -5.9 16.05 -6.05 L16.2 -6.15 16.5 -6.3 16.45 -5.9 16.45 -5.85 16.4 -5.8 16.4 -5.75 16.35 -5.35 16.25 -4.95 Q16.1 -3.9 15.9 -3.5 15.8 -3.15 15.65 -2.5 L15.45 -1.75 Q14.85 -1.3 14.35 -1.0 L14.0 -0.9 13.8 -0.75 13.55 -0.65 Q13.3 -1.25 13.25 -1.5 13.25 -1.7 13.25 -1.85 L13.7 -2.85 Q14.4 -4.4 15.0 -5.45 L15.1 -5.6" fill="#9ea262" fill-rule="evenodd" stroke="none"/>
    <path d="M15.5 -13.95 Q15.65 -14.0 15.85 -14.15 L15.85 -14.2 15.9 -14.2 16.0 -14.35 16.1 -14.4 16.25 -14.5 16.45 -14.7 Q16.6 -14.95 16.6 -15.1 L16.55 -15.1 16.6 -15.2 16.55 -15.2 16.2 -14.85 15.65 -15.1 15.4 -15.2 Q14.8 -15.5 14.3 -15.65 L13.65 -15.9 13.25 -15.95 13.2 -16.0 Q14.1 -16.6 14.9 -16.65 L15.05 -16.65 15.95 -16.35 16.05 -16.15 16.5 -15.75 16.8 -15.35 Q16.9 -15.35 16.9 -15.4 L17.0 -15.3 17.6 -14.2 Q17.75 -13.9 17.85 -13.2 L17.9 -12.95 17.7 -12.75 17.65 -12.55 Q17.4 -12.15 17.1 -11.85 L17.05 -11.75 17.1 -11.75 16.45 -11.3 16.1 -11.05 16.1 -11.1 16.15 -11.1 16.1 -11.25 16.05 -11.5 Q16.0 -11.9 15.9 -12.15 L15.8 -12.25 15.8 -12.35 15.75 -12.3 Q15.65 -12.4 15.45 -12.5 L15.1 -12.65 15.2 -12.95 Q15.4 -13.5 15.5 -13.95 M12.75 -13.55 Q12.6 -13.75 12.4 -13.65 L12.4 -13.5 12.45 -13.35 12.25 -13.3 Q11.75 -13.3 11.4 -14.15 11.25 -14.55 11.15 -15.0 11.15 -15.45 11.35 -15.65 L11.6 -15.25 Q11.8 -14.8 11.9 -14.65 L11.9 -14.55 11.95 -14.55 11.95 -14.7 12.0 -14.75 11.95 -14.8 Q11.9 -15.1 11.65 -15.55 L11.55 -15.75 Q11.7 -15.8 11.9 -15.7 L11.9 -15.65 12.05 -15.4 12.05 -15.25 12.25 -15.25 Q12.3 -15.25 12.35 -15.3 L12.6 -15.0 Q12.85 -14.5 12.85 -13.95 12.85 -13.7 12.75 -13.55 M11.3 -16.15 L11.3 -16.45 11.4 -16.85 11.55 -17.6 Q12.3 -17.4 13.15 -17.2 L12.65 -16.55 12.65 -16.5 12.5 -16.3 12.45 -16.25 12.25 -15.95 12.2 -15.85 12.1 -15.85 12.05 -16.05 12.1 -16.45 12.15 -16.8 12.1 -16.95 12.0 -16.95 12.0 -16.9 Q11.85 -16.8 11.8 -16.5 L11.85 -16.05 11.85 -15.9 11.85 -15.85 Q11.5 -15.9 11.3 -16.15 M10.95 -16.45 L10.8 -16.9 10.45 -17.7 10.95 -17.8 11.4 -17.65 11.3 -17.45 Q11.25 -17.35 11.25 -17.15 L11.15 -16.65 11.05 -16.65 11.1 -16.45 10.95 -16.45 M7.8 -15.35 L7.9 -15.7 7.95 -15.75 8.0 -15.85 8.1 -16.1 8.15 -16.0 8.2 -16.0 8.2 -15.95 Q8.25 -15.95 8.3 -15.95 L8.4 -15.9 Q8.75 -15.45 8.95 -15.25 9.3 -14.8 9.8 -14.75 L10.3 -14.7 10.25 -14.45 10.05 -14.25 Q9.8 -14.15 9.55 -14.15 8.8 -14.15 8.05 -14.9 L7.75 -15.25 7.8 -15.35 M8.85 -17.0 L8.9 -17.0 9.1 -17.1 9.2 -17.1 Q9.45 -16.75 9.85 -16.35 L9.95 -16.25 9.4 -16.3 9.05 -16.3 8.75 -16.2 8.7 -16.2 8.4 -16.1 Q8.5 -16.65 8.75 -16.95 L8.85 -17.0 M14.8 -10.2 L14.65 -10.15 Q14.5 -10.25 14.4 -10.45 14.3 -10.65 14.35 -10.85 14.35 -11.1 14.4 -11.35 15.0 -11.7 15.55 -12.1 L15.65 -11.9 15.75 -11.8 15.8 -11.4 15.85 -11.1 15.85 -11.0 15.7 -10.75 15.65 -10.75 14.8 -10.2 M14.35 -11.65 Q13.75 -11.75 13.25 -12.0 12.85 -12.2 12.7 -12.35 12.85 -12.4 12.95 -12.45 13.0 -12.5 13.0 -12.7 L13.1 -12.75 13.0 -12.8 13.05 -12.9 Q13.15 -12.8 13.3 -12.75 L14.0 -12.7 Q14.6 -12.7 15.0 -12.5 L15.3 -12.35 Q15.15 -12.25 15.0 -12.15 L14.35 -11.65" fill="#a59bb3" fill-rule="evenodd" stroke="none"/>
    <path d="M18.35 -23.05 Q18.25 -23.2 18.25 -23.3 18.25 -24.3 18.75 -24.65 L18.95 -24.55 19.25 -24.25 19.2 -24.3 Q19.0 -24.25 18.8 -24.0 18.6 -23.75 18.6 -23.3 18.6 -23.15 18.6 -23.1 L18.7 -23.1 18.4 -23.05 18.35 -23.05 M19.35 -22.7 L19.35 -22.75 19.35 -22.7 M18.5 -22.15 Q18.55 -22.45 18.6 -22.6 19.0 -22.55 19.3 -22.25 L19.45 -22.0 19.45 -21.95 19.5 -21.95 19.75 -21.45 19.9 -21.0 Q19.45 -20.75 18.6 -19.7 18.6 -19.55 18.7 -19.4 18.85 -19.15 19.25 -19.1 L18.95 -19.05 18.8 -19.05 18.65 -19.1 Q18.55 -19.1 18.45 -19.2 L18.4 -19.25 Q18.4 -19.6 18.65 -20.6 L18.6 -21.25 18.6 -21.3 18.5 -21.95 18.5 -22.15 M18.2 -19.1 Q18.3 -18.95 18.45 -18.85 L18.15 -18.65 Q17.8 -18.25 17.8 -18.05 L17.8 -17.9 17.65 -17.95 17.65 -18.0 17.65 -18.15 Q17.65 -18.65 17.95 -18.95 L18.2 -19.1 M21.8 -16.75 Q21.85 -17.4 22.65 -17.5 L22.7 -17.5 22.75 -17.25 Q22.85 -17.15 23.25 -16.9 23.05 -16.65 22.8 -16.5 L22.55 -16.45 22.4 -16.45 Q22.2 -16.5 22.0 -16.6 L21.8 -16.75 M22.95 -18.6 Q23.1 -19.2 23.55 -19.45 L23.6 -19.4 23.7 -19.2 23.85 -18.75 23.45 -18.7 Q23.15 -18.6 22.95 -18.4 L22.95 -18.6 M8.7 -22.3 L8.7 -22.4 Q8.7 -22.95 9.15 -22.95 L9.25 -22.95 Q9.3 -22.7 9.55 -22.65 L9.6 -22.7 9.65 -22.45 9.65 -22.4 9.5 -22.1 9.35 -22.0 9.25 -22.1 Q9.05 -22.25 8.8 -22.3 L8.7 -22.3 M8.45 -21.0 Q8.4 -21.1 8.4 -21.2 8.35 -21.35 8.35 -21.55 8.35 -21.85 8.45 -22.0 L8.75 -22.05 8.75 -22.0 9.0 -21.85 8.95 -21.9 Q8.75 -21.8 8.75 -21.5 L8.85 -21.4 9.15 -21.15 9.3 -21.15 9.3 -21.1 9.2 -21.1 8.55 -21.05 8.5 -21.05 8.45 -21.0 M24.0 -20.3 L23.95 -20.15 23.85 -20.15 Q23.75 -20.25 23.65 -20.4 23.8 -20.3 24.0 -20.3" fill="#e9b554" fill-rule="evenodd" stroke="none"/>
    <path d="M17.4 -24.75 L17.4 -24.65 17.5 -24.1 17.55 -23.85 17.55 -23.6 Q17.4 -23.45 17.15 -23.45 16.75 -23.45 16.55 -23.85 L16.5 -24.0 16.55 -24.1 Q16.6 -24.3 16.7 -24.4 L16.85 -24.55 17.2 -24.75 17.25 -24.75 17.4 -24.75 M17.75 -22.1 Q17.9 -22.25 18.2 -22.25 18.4 -22.25 18.5 -22.15 L18.5 -21.95 18.6 -21.3 18.6 -21.25 18.55 -21.2 Q18.35 -21.1 18.2 -21.1 17.95 -21.1 17.8 -21.2 L17.8 -21.55 17.75 -22.1 M16.9 -21.4 L17.0 -21.45 Q17.3 -21.45 17.5 -21.25 L17.55 -21.0 Q17.55 -20.55 17.65 -20.1 L17.7 -20.1 17.7 -20.05 Q17.45 -19.7 17.0 -19.7 16.75 -19.7 16.6 -19.8 L16.55 -19.95 16.6 -20.2 16.6 -20.25 Q16.6 -20.6 16.75 -21.0 L16.9 -21.4 M8.15 -23.8 L8.45 -23.5 8.4 -23.3 8.35 -23.15 8.3 -23.1 8.1 -23.0 Q7.75 -23.3 7.75 -23.45 L7.95 -23.5 Q8.1 -23.6 8.1 -23.75 L8.15 -23.8 M7.45 -20.7 L7.35 -20.5 7.3 -20.5 7.1 -20.3 6.95 -20.4 6.95 -20.5 7.1 -20.75 7.15 -20.8 7.25 -20.95 7.3 -20.9 7.45 -20.7" fill="#fae6b8" fill-rule="evenodd" stroke="none"/>
    <path d="M19.25 -24.25 L19.45 -23.9 19.45 -23.85 19.5 -23.85 19.5 -23.75 19.55 -23.65 19.6 -23.45 19.65 -23.4 19.7 -23.25 Q19.55 -22.9 19.35 -22.75 L19.3 -22.75 19.25 -22.8 19.1 -22.9 Q19.0 -22.95 18.9 -23.0 L18.85 -23.0 18.75 -23.1 18.7 -23.1 18.6 -23.1 Q18.6 -23.15 18.6 -23.3 18.6 -23.75 18.8 -24.0 19.0 -24.25 19.2 -24.3 L19.25 -24.25 M18.45 -18.85 Q18.7 -18.75 19.0 -18.75 19.25 -18.8 19.55 -18.9 L19.65 -18.75 19.6 -18.5 19.4 -17.7 18.95 -17.65 18.25 -17.75 18.15 -17.8 17.8 -17.9 17.8 -18.05 Q17.8 -18.25 18.15 -18.65 L18.45 -18.85 M23.15 -20.8 L23.3 -20.85 23.4 -20.4 23.4 -20.35 Q23.5 -20.0 23.65 -19.85 23.3 -20.05 22.8 -20.15 L22.75 -20.15 22.75 -20.2 22.8 -20.45 22.9 -20.55 Q23.1 -20.7 23.15 -20.8 M23.85 -18.75 L23.85 -18.6 Q23.9 -18.2 23.8 -17.8 L23.7 -17.5 23.55 -17.3 23.45 -17.25 Q23.05 -17.25 22.95 -17.65 22.9 -17.8 22.9 -17.95 L22.95 -18.4 Q23.15 -18.6 23.45 -18.7 L23.85 -18.75 M19.9 -21.0 L19.95 -20.6 19.95 -20.25 19.9 -19.9 19.85 -19.95 19.85 -19.75 19.75 -19.55 19.7 -19.4 19.6 -19.25 Q19.4 -19.15 19.25 -19.1 18.85 -19.15 18.7 -19.4 18.6 -19.55 18.6 -19.7 19.45 -20.75 19.9 -21.0 M7.75 -19.05 L7.7 -19.1 Q7.65 -19.15 7.65 -19.35 7.65 -19.75 8.05 -19.85 L8.1 -19.8 Q8.4 -19.6 8.6 -19.55 8.35 -19.35 7.9 -19.1 L7.75 -19.05 M9.0 -21.85 L9.05 -21.8 9.2 -21.7 9.3 -21.5 Q9.25 -21.35 9.3 -21.2 L9.3 -21.15 9.15 -21.15 8.85 -21.4 8.75 -21.5 Q8.75 -21.8 8.95 -21.9 L9.0 -21.85 M23.55 -20.9 Q23.7 -21.15 24.05 -21.2 L24.15 -21.2 24.15 -21.05 Q24.2 -20.85 24.0 -20.3 23.8 -20.3 23.65 -20.4 L23.65 -20.45 23.55 -20.85 23.55 -20.9" fill="#de9a1d" fill-rule="evenodd" stroke="none"/>
    <path d="M20.1 -21.4 L20.2 -21.35 20.7 -21.0 20.95 -20.8 Q21.4 -20.3 21.6 -19.7 L21.65 -19.45 21.6 -19.3 21.55 -19.3 Q20.9 -19.75 20.35 -19.9 L20.35 -20.2 Q20.3 -20.85 20.1 -21.4 M16.2 -23.7 L16.1 -23.7 Q15.7 -23.7 15.6 -24.0 15.55 -24.15 15.55 -24.35 15.55 -24.55 15.65 -24.7 L15.75 -24.7 16.25 -24.4 Q16.2 -24.25 16.2 -23.95 16.2 -23.8 16.2 -23.7 M15.2 -21.3 Q15.15 -21.55 15.15 -21.8 L15.15 -22.05 Q15.85 -22.0 16.25 -22.05 16.35 -22.05 16.4 -22.1 L16.4 -22.15 16.6 -22.15 16.65 -22.2 16.7 -22.15 16.7 -22.1 16.7 -22.05 Q16.5 -21.75 16.35 -21.35 16.25 -20.95 16.2 -20.55 L16.1 -20.45 15.5 -21.0 15.2 -21.3 M15.5 -20.55 Q15.4 -20.65 15.3 -20.8 L15.4 -20.75 15.7 -20.5 15.5 -20.55 M7.45 -16.95 Q7.45 -17.05 7.45 -17.15 7.45 -17.35 7.75 -17.75 8.05 -18.15 8.45 -18.45 9.05 -18.9 9.3 -18.75 9.15 -18.5 9.05 -18.15 L8.7 -17.4 8.65 -17.3 8.6 -17.25 8.35 -17.15 7.45 -16.95 M9.45 -18.2 L9.5 -18.3 9.5 -18.25 Q9.5 -18.0 9.0 -17.4 9.2 -17.65 9.35 -18.0 L9.45 -18.2 M14.3 -17.3 Q13.85 -17.85 13.55 -18.3 13.55 -18.9 13.95 -18.9 L14.35 -18.85 Q14.75 -18.75 15.25 -18.4 L15.95 -17.85 15.95 -17.8 16.15 -17.5 16.6 -16.35 15.85 -16.7 15.7 -16.75 Q15.15 -17.0 14.5 -17.25 L14.4 -17.25 14.3 -17.3 M16.5 -17.25 L16.45 -17.3 Q16.9 -16.75 16.9 -16.45 L16.5 -17.25 M17.45 -15.6 Q17.55 -16.0 17.8 -16.3 L17.9 -16.35 17.95 -16.3 18.0 -16.25 18.15 -16.15 Q18.25 -16.05 18.35 -16.0 L18.45 -15.95 Q18.7 -15.8 18.9 -15.8 19.05 -15.85 19.0 -15.9 18.9 -16.0 18.75 -16.05 L18.1 -16.6 Q17.25 -17.3 16.85 -17.9 L16.9 -18.15 17.0 -18.05 Q17.8 -17.45 18.65 -17.35 L19.15 -17.35 19.25 -17.4 19.5 -17.4 19.65 -17.55 Q19.85 -17.75 20.0 -18.1 L20.0 -18.05 Q20.0 -18.3 20.2 -18.15 20.2 -18.25 20.25 -18.25 L20.95 -17.95 21.25 -17.85 Q21.15 -17.55 21.2 -17.3 21.05 -17.55 20.9 -17.85 L20.85 -17.85 Q20.8 -17.8 20.85 -17.6 L21.3 -16.75 Q21.75 -16.15 22.05 -16.0 L22.05 -15.85 22.15 -15.1 22.25 -14.75 Q22.55 -13.65 22.6 -13.3 22.65 -12.45 22.05 -11.5 L21.65 -10.95 21.6 -10.2 21.9 -10.6 22.35 -9.95 23.2 -8.0 23.8 -6.65 Q24.0 -6.05 24.3 -5.6 23.5 -5.8 22.8 -6.05 L22.0 -6.5 Q20.7 -7.2 20.35 -7.7 19.2 -9.35 18.9 -10.55 18.6 -11.6 18.55 -12.0 18.35 -12.75 18.3 -13.3 L18.3 -13.5 18.25 -13.6 18.25 -13.85 17.7 -15.0 17.45 -15.6 M19.35 -15.35 L19.35 -14.85 Q19.45 -13.75 20.25 -11.95 21.0 -10.05 21.65 -9.65 20.75 -11.5 20.35 -12.5 19.65 -14.1 19.45 -15.35 L19.35 -15.35" fill="#9d3631" fill-rule="evenodd" stroke="none"/>
    <path d="M5.5 -14.85 L5.5 -14.9 5.55 -15.5 5.65 -16.0 7.2 -16.45 7.95 -16.7 7.95 -16.65 8.0 -16.65 8.1 -16.7 Q7.85 -16.5 7.65 -16.0 L7.6 -15.85 Q7.2 -15.1 7.2 -14.65 7.25 -14.35 7.8 -13.2 8.35 -12.15 8.35 -11.95 L8.3 -11.8 Q8.2 -11.95 8.1 -12.05 7.95 -12.3 7.55 -13.1 7.3 -13.6 6.95 -13.75 6.75 -13.85 6.3 -13.95 5.95 -14.0 5.8 -14.15 5.55 -14.35 5.5 -14.85" fill="#882f2b" fill-rule="evenodd" stroke="none"/>
  </g>
</svg>
