<?xml version="1.0" encoding="UTF-8" standalone="no"?>
<svg xmlns:ffdec="https://www.free-decompiler.com/flash" xmlns:xlink="http://www.w3.org/1999/xlink" ffdec:objectType="shape" height="30.3px" width="28.05px" xmlns="http://www.w3.org/2000/svg">
  <g transform="matrix(1.0, 0.0, 0.0, 1.0, -4.6, 32.15)">
    <path d="M16.6 -32.1 L16.7 -32.15 Q17.3 -32.15 18.25 -31.65 L18.7 -31.3 Q19.2 -30.95 19.8 -30.45 20.85 -29.45 22.25 -27.3 23.75 -24.85 23.75 -23.75 L23.75 -23.7 23.8 -23.55 24.9 -24.25 Q27.1 -25.5 28.45 -25.1 28.85 -25.0 28.85 -24.7 L28.0 -24.1 27.9 -24.05 Q29.0 -23.8 30.4 -22.7 31.3 -22.0 31.9 -21.2 32.55 -20.35 32.65 -19.7 L32.65 -18.6 32.55 -18.5 Q32.5 -18.45 32.4 -18.45 32.2 -18.45 30.75 -19.15 L30.1 -19.5 29.8 -19.6 Q29.05 -19.9 28.55 -20.15 28.8 -19.75 29.05 -19.3 29.25 -18.8 29.35 -18.35 29.5 -18.0 29.5 -17.75 29.5 -17.55 29.45 -17.35 L29.4 -17.25 Q29.35 -17.15 29.35 -17.0 L29.15 -16.95 29.05 -16.95 Q28.75 -16.95 27.8 -18.15 L26.8 -19.4 Q24.9 -21.4 23.8 -22.15 L23.55 -21.05 Q23.3 -19.95 23.1 -19.5 23.55 -19.2 23.75 -18.6 L23.95 -18.0 23.95 -17.95 Q24.2 -17.35 24.2 -16.9 24.2 -15.9 24.05 -15.65 L23.95 -15.55 23.95 -15.6 23.85 -15.55 23.8 -15.8 23.75 -15.85 23.75 -15.8 Q23.75 -15.75 23.6 -15.75 L23.35 -16.0 23.35 -15.4 Q23.35 -15.1 23.15 -14.5 22.95 -13.8 22.6 -13.15 21.6 -11.4 20.3 -11.4 L20.0 -11.45 Q20.35 -10.25 20.35 -8.95 L20.35 -8.35 Q20.3 -8.0 20.15 -7.8 20.05 -7.55 19.95 -7.55 L19.8 -7.55 19.8 -7.7 Q19.8 -7.75 19.7 -8.1 L19.7 -8.2 19.6 -8.35 19.15 -9.05 19.2 -8.55 19.25 -8.15 Q19.25 -8.0 19.1 -7.45 L19.0 -6.75 18.9 -6.0 18.65 -5.5 18.55 -5.25 18.3 -4.8 Q17.95 -4.0 17.4 -3.15 16.85 -2.2 16.45 -2.0 L16.45 -1.95 Q16.4 -1.9 16.15 -1.85 L16.05 -2.05 16.05 -2.1 Q15.45 -3.3 14.5 -4.65 L12.9 -6.8 12.7 -6.55 Q12.1 -5.9 11.45 -5.9 10.7 -5.9 9.8 -7.5 9.55 -8.0 9.3 -8.55 9.05 -7.9 8.95 -7.25 8.7 -5.8 8.45 -3.0 L8.45 -2.8 8.5 -2.75 8.45 -2.7 8.45 -2.65 8.35 -2.65 Q8.1 -2.65 7.65 -3.25 7.4 -3.5 7.05 -3.95 6.35 -4.85 6.1 -5.4 5.85 -5.9 5.65 -6.6 5.35 -7.45 5.35 -7.95 L5.4 -8.5 5.4 -8.55 5.45 -9.25 5.45 -9.35 Q5.45 -10.1 5.6 -10.8 5.7 -11.15 5.8 -11.45 L5.8 -11.55 4.8 -10.9 Q4.65 -10.9 4.65 -11.0 4.6 -11.05 4.6 -11.15 4.6 -11.9 5.4 -12.85 L5.85 -13.4 5.95 -13.55 6.35 -14.0 Q7.25 -15.0 8.15 -15.25 8.05 -15.5 7.95 -15.95 7.8 -16.4 7.7 -16.9 7.7 -17.4 7.9 -18.0 L7.8 -18.1 Q7.2 -18.35 6.85 -19.4 L6.8 -19.65 Q6.65 -20.15 6.65 -20.6 L6.65 -21.2 6.4 -20.8 6.3 -20.65 6.2 -20.85 Q6.2 -20.9 6.2 -21.05 6.2 -21.8 7.6 -23.15 8.4 -25.85 12.2 -27.55 13.15 -28.0 13.85 -28.75 14.2 -29.15 14.75 -30.0 L15.5 -31.25 Q15.8 -31.65 16.25 -31.95 16.35 -32.1 16.6 -32.1 M17.1 -31.15 L16.95 -31.15 Q16.4 -31.15 15.0 -29.35 L14.6 -28.7 14.3 -28.3 14.1 -28.05 13.2 -26.95 Q13.95 -26.75 14.05 -26.55 L14.05 -26.5 Q14.05 -26.45 13.95 -26.45 L13.45 -26.6 12.85 -26.75 12.55 -26.45 12.85 -26.6 12.65 -26.4 13.05 -26.2 Q13.8 -25.9 13.85 -25.6 L13.85 -25.55 Q13.85 -25.5 13.75 -25.5 L12.9 -25.9 12.35 -26.15 Q11.85 -25.7 11.85 -25.65 L11.9 -25.55 11.8 -25.5 11.9 -25.45 11.9 -25.4 Q12.05 -25.2 12.35 -25.2 L12.6 -25.25 Q14.85 -24.55 16.75 -23.25 17.35 -22.8 17.95 -22.3 18.95 -21.45 19.8 -20.4 L19.95 -20.25 19.95 -20.3 20.2 -20.2 20.5 -20.2 Q21.05 -20.05 21.75 -19.65 L21.9 -19.5 22.05 -19.5 22.05 -19.55 22.1 -19.6 22.05 -19.6 Q22.0 -19.65 22.0 -19.85 L22.35 -19.8 22.9 -22.2 22.3 -22.0 22.0 -22.0 22.15 -21.2 22.15 -21.1 22.1 -21.0 22.05 -21.0 Q21.95 -21.25 21.8 -22.0 L21.8 -22.05 Q21.75 -22.05 21.75 -22.15 L21.75 -22.2 21.7 -22.85 Q21.7 -23.05 21.8 -23.15 L22.0 -22.25 22.2 -22.25 22.75 -22.6 Q22.75 -22.75 22.8 -22.8 L22.95 -22.75 22.95 -22.85 23.05 -22.95 Q23.05 -23.2 22.65 -24.3 22.1 -25.85 21.45 -27.1 L20.95 -27.95 Q20.45 -28.75 19.8 -29.5 19.15 -30.1 18.45 -30.5 17.7 -31.0 17.15 -31.15 L17.1 -31.15 M19.5 -21.65 L19.55 -21.65 19.85 -21.8 Q20.2 -21.95 20.6 -21.95 L20.9 -22.0 21.1 -22.05 21.1 -22.95 21.25 -22.95 21.3 -22.4 21.35 -22.0 21.35 -21.95 21.4 -21.95 21.4 -21.9 Q21.45 -21.45 21.6 -21.1 21.45 -21.2 21.35 -21.45 L21.35 -21.3 21.25 -21.25 Q21.2 -21.55 21.1 -21.8 L20.7 -21.7 20.25 -21.6 19.65 -21.55 19.55 -21.55 19.5 -21.65 M21.75 -23.15 L21.75 -23.15 M12.0 -26.9 Q11.55 -26.6 11.1 -26.4 10.1 -25.85 9.4 -24.95 9.1 -24.6 8.9 -24.25 10.2 -25.3 11.15 -25.65 L11.4 -26.05 11.45 -26.05 11.35 -25.85 11.25 -25.7 11.3 -25.7 12.0 -26.25 11.8 -26.3 Q11.7 -26.4 11.65 -26.5 L12.25 -26.5 12.55 -26.8 12.5 -26.8 Q12.4 -26.8 12.3 -26.95 12.45 -27.05 12.8 -27.0 L13.3 -27.5 12.6 -27.15 12.0 -26.9 M14.65 -24.0 Q14.6 -24.05 14.5 -24.1 14.15 -24.2 13.7 -24.45 L12.25 -24.85 Q12.05 -24.85 11.9 -24.95 L11.8 -25.0 11.45 -25.05 11.25 -25.3 10.0 -24.55 9.7 -24.4 8.3 -23.25 7.9 -22.85 Q7.5 -22.35 7.4 -21.85 7.25 -21.55 7.2 -21.3 7.8 -22.6 9.85 -23.45 8.1 -22.6 7.5 -21.4 7.35 -21.1 7.25 -20.75 L7.2 -20.4 7.2 -20.35 Q7.25 -19.85 7.45 -19.3 7.6 -19.0 7.8 -18.7 L8.1 -18.55 8.0 -19.0 7.95 -19.05 7.9 -19.15 7.9 -19.2 7.85 -19.3 7.75 -19.3 7.75 -19.45 Q7.75 -19.55 8.0 -19.95 8.2 -20.3 8.45 -20.55 8.8 -20.95 9.1 -21.0 L9.45 -20.95 9.95 -21.8 10.4 -22.35 10.6 -22.55 10.6 -22.8 10.65 -22.85 10.65 -22.9 Q10.75 -23.3 10.85 -23.5 L11.0 -23.8 11.15 -24.05 Q11.4 -24.45 11.75 -24.65 L11.8 -24.65 11.85 -24.55 11.5 -24.0 11.25 -23.25 Q11.05 -22.6 11.0 -22.0 11.1 -21.25 11.6 -20.45 11.9 -19.9 12.3 -19.45 L12.3 -19.5 12.35 -19.4 Q12.75 -19.05 13.2 -18.75 13.4 -18.6 13.7 -18.5 L13.85 -18.45 14.25 -18.35 14.6 -18.3 14.65 -18.3 15.15 -18.2 15.5 -18.2 15.85 -18.15 15.65 -18.3 15.3 -18.6 Q15.15 -18.75 15.1 -18.9 14.3 -19.5 13.7 -20.55 L13.7 -20.6 Q13.05 -21.5 12.9 -22.4 12.8 -22.75 12.75 -23.05 L12.75 -23.5 12.75 -23.55 Q12.8 -24.1 12.95 -24.25 L13.05 -24.0 13.05 -23.8 Q13.05 -23.55 13.2 -22.9 L13.3 -22.6 Q13.5 -21.8 13.8 -21.1 14.0 -20.8 14.15 -20.5 L14.2 -20.4 Q15.25 -18.45 17.05 -18.45 17.8 -18.45 18.15 -18.6 L18.3 -18.6 Q18.55 -18.65 19.45 -19.0 20.2 -19.35 20.45 -19.35 L20.55 -19.3 Q20.35 -19.0 19.3 -18.65 L19.4 -18.45 19.5 -18.1 19.55 -18.0 Q19.75 -17.45 19.75 -17.1 19.75 -16.9 19.55 -16.45 19.5 -16.4 19.4 -16.2 L19.35 -16.15 Q19.05 -15.6 18.75 -15.5 L18.75 -15.45 18.6 -15.3 18.55 -15.4 18.5 -15.4 18.5 -15.45 Q18.35 -15.55 18.3 -15.85 L18.1 -16.35 18.05 -16.45 17.65 -16.95 17.6 -16.35 17.55 -15.85 17.4 -15.35 17.3 -15.0 Q18.35 -14.45 19.05 -13.45 L19.1 -13.5 19.4 -14.2 19.5 -14.45 Q19.65 -14.85 19.9 -15.35 L20.0 -15.65 20.35 -16.1 21.1 -16.85 20.8 -16.05 21.15 -16.05 21.8 -15.75 Q22.15 -15.55 22.35 -15.4 L22.4 -15.6 22.45 -15.75 22.4 -16.15 22.2 -16.65 22.05 -17.05 22.0 -17.15 Q21.2 -17.8 21.2 -17.65 21.2 -18.2 22.15 -17.5 L22.7 -17.1 22.9 -16.95 22.95 -16.9 23.0 -16.9 23.4 -16.5 23.35 -16.65 23.5 -16.55 23.65 -16.55 23.65 -16.8 23.65 -17.0 Q23.65 -17.4 23.35 -18.15 23.1 -18.75 22.8 -19.0 L22.5 -19.1 21.6 -19.2 Q21.35 -19.3 20.7 -19.65 L20.3 -19.9 20.2 -19.9 20.3 -19.8 20.2 -19.7 20.05 -19.8 Q19.6 -20.3 18.7 -21.0 L18.4 -21.3 Q17.35 -22.35 16.45 -22.9 L15.3 -23.6 14.65 -24.0 M14.75 -16.75 L15.0 -16.9 15.35 -17.3 15.6 -17.65 15.6 -17.7 15.45 -17.75 14.65 -17.75 14.5 -17.8 Q14.7 -17.6 14.7 -17.35 14.7 -17.3 14.7 -17.2 L14.6 -17.1 Q14.5 -16.95 14.3 -16.95 L13.95 -17.05 13.95 -17.0 Q14.25 -16.85 14.55 -16.75 L14.7 -16.7 14.6 -16.65 14.15 -16.8 14.2 -16.75 14.25 -16.75 Q14.3 -16.7 14.15 -16.7 14.05 -16.7 13.9 -16.8 13.7 -16.9 13.5 -17.1 L13.3 -17.3 13.3 -17.35 13.15 -17.5 Q13.05 -17.65 13.0 -17.8 L12.75 -17.8 12.7 -17.75 12.7 -17.85 12.6 -17.85 12.6 -17.8 12.45 -17.8 12.45 -17.9 12.4 -17.9 12.35 -17.95 12.3 -17.95 12.3 -18.0 12.3 -18.1 Q12.3 -18.25 12.4 -18.4 L12.5 -18.6 Q12.0 -18.95 11.55 -19.45 11.1 -20.05 10.85 -20.55 10.75 -20.75 10.65 -21.0 10.5 -21.4 10.5 -21.8 L10.45 -21.7 10.3 -21.55 10.3 -21.5 9.95 -21.05 9.7 -20.75 9.8 -20.6 Q10.05 -20.3 10.35 -19.6 10.75 -18.8 10.75 -18.45 L10.75 -18.1 10.7 -18.1 10.5 -17.9 10.2 -17.35 Q10.0 -16.95 9.9 -16.6 L9.9 -16.2 9.8 -14.5 Q9.9 -13.7 10.1 -13.0 L10.25 -12.65 10.35 -12.75 Q10.45 -13.2 11.15 -13.9 12.0 -14.8 12.45 -14.3 L12.5 -14.4 12.6 -14.7 12.65 -14.85 Q12.9 -15.7 12.9 -16.05 L12.9 -16.15 Q12.8 -16.65 12.55 -16.65 L12.1 -16.55 Q11.85 -16.45 11.65 -16.2 L11.15 -15.65 11.1 -15.65 11.1 -15.6 11.05 -15.55 11.0 -15.6 Q10.95 -15.6 10.95 -15.7 L11.05 -15.75 11.05 -15.8 11.1 -15.95 11.15 -16.05 11.35 -16.25 Q11.65 -16.55 11.9 -16.7 13.2 -17.8 13.2 -16.05 L13.15 -15.45 13.15 -15.35 13.2 -15.35 13.45 -15.4 14.9 -15.5 Q15.95 -15.5 16.8 -15.2 L17.1 -16.25 Q17.1 -16.4 17.1 -17.05 17.1 -17.7 17.35 -17.7 17.75 -17.7 18.15 -16.95 18.45 -16.45 18.65 -15.85 L18.9 -16.1 Q19.15 -16.45 19.25 -16.8 19.35 -17.05 19.35 -17.25 19.35 -17.5 19.1 -18.15 L18.95 -18.5 18.9 -18.55 Q18.3 -18.35 17.8 -18.25 L17.7 -18.25 17.15 -18.2 Q16.6 -18.2 16.05 -18.4 L16.4 -18.15 16.65 -18.15 Q16.8 -18.15 16.75 -18.15 L16.65 -18.0 16.75 -17.9 Q16.75 -17.8 16.65 -17.75 L16.35 -17.75 16.25 -17.8 16.2 -17.75 15.95 -17.75 15.8 -17.7 Q15.8 -17.45 15.5 -17.15 15.3 -16.95 15.1 -16.85 L14.95 -16.8 15.0 -16.85 14.85 -16.8 14.75 -16.75 M12.65 -18.15 L13.1 -18.25 12.8 -18.4 12.6 -18.15 12.65 -18.15 M15.9 -14.8 L15.8 -14.8 Q14.85 -15.05 13.7 -15.05 L13.65 -15.05 13.45 -15.1 13.1 -15.1 13.0 -14.75 Q12.95 -14.5 12.8 -14.3 12.7 -14.05 12.55 -13.85 12.45 -13.9 12.4 -13.95 L12.4 -14.0 Q12.35 -14.0 12.3 -14.05 L12.15 -14.1 Q11.7 -14.1 10.95 -13.15 L10.8 -12.95 10.8 -12.85 Q10.7 -12.75 10.7 -12.6 L10.7 -12.5 10.55 -12.25 10.45 -12.25 10.4 -12.2 10.4 -12.25 10.25 -12.25 10.2 -12.2 Q10.1 -12.2 10.0 -12.35 9.95 -12.5 9.85 -12.75 L9.65 -13.45 9.6 -13.7 Q9.5 -14.35 9.5 -15.05 L9.5 -15.2 9.4 -15.2 9.0 -15.0 Q8.3 -14.7 8.0 -14.5 L6.65 -13.5 Q6.35 -13.3 6.1 -13.0 5.85 -12.7 5.65 -12.3 L5.55 -12.1 5.65 -12.15 Q5.95 -12.35 6.1 -12.4 L6.2 -12.35 6.3 -12.5 Q6.7 -13.1 7.35 -13.55 L7.35 -13.45 Q6.55 -12.45 6.2 -11.45 L6.15 -11.25 6.0 -10.0 5.85 -8.9 5.85 -8.8 Q5.85 -7.3 6.45 -5.95 L6.45 -5.85 6.5 -5.8 6.75 -5.25 7.1 -4.65 Q7.2 -4.55 7.25 -4.5 7.55 -4.05 7.9 -3.6 L7.9 -4.1 7.95 -5.0 Q7.95 -7.05 8.45 -8.2 8.75 -9.0 9.6 -10.15 L9.65 -10.2 9.7 -10.35 9.8 -10.55 10.45 -11.5 10.45 -11.55 Q10.45 -11.65 10.7 -11.95 11.0 -12.25 11.1 -12.2 L11.2 -12.15 Q11.3 -12.0 11.35 -11.8 L11.4 -11.55 Q11.55 -10.9 11.65 -10.6 L11.75 -10.3 Q12.15 -9.35 12.55 -8.6 12.95 -7.95 13.55 -7.1 L14.1 -6.4 15.0 -5.4 Q15.5 -4.85 15.85 -4.3 L16.0 -4.15 16.05 -4.05 16.1 -4.0 16.15 -4.0 16.2 -3.75 Q16.45 -3.3 16.55 -2.95 L16.95 -3.6 Q17.8 -4.85 18.05 -5.65 18.55 -7.15 18.55 -8.85 18.55 -9.7 18.15 -10.65 L17.75 -11.6 Q17.75 -11.75 17.75 -11.7 18.5 -11.4 18.8 -10.4 L18.8 -10.3 Q19.1 -10.15 19.4 -9.5 L19.55 -9.3 Q19.3 -11.15 19.05 -11.65 L19.05 -11.7 19.0 -11.75 18.8 -12.15 18.75 -12.35 18.7 -12.4 18.65 -12.5 18.25 -13.2 18.2 -13.2 18.2 -13.25 18.15 -13.35 18.05 -13.45 Q17.45 -14.1 16.65 -14.55 L16.6 -14.55 16.55 -14.6 16.25 -14.7 16.2 -14.7 15.9 -14.8 M15.75 -16.55 L15.75 -16.55 M22.5 -16.7 Q22.6 -16.35 22.7 -15.75 L22.7 -15.4 Q22.65 -15.2 22.45 -15.05 L22.25 -15.2 22.2 -15.2 22.05 -15.25 22.05 -15.35 21.65 -15.5 21.6 -15.55 21.3 -15.6 21.0 -15.55 20.65 -15.5 20.65 -14.7 20.9 -14.85 Q21.1 -15.05 21.2 -15.05 21.5 -15.05 21.65 -14.5 L21.75 -13.95 Q21.75 -13.55 21.65 -13.4 21.5 -13.1 21.1 -12.9 L21.05 -12.9 21.05 -12.95 21.3 -13.3 Q21.55 -13.7 21.55 -13.95 21.45 -14.85 21.25 -14.85 20.95 -14.85 20.8 -14.55 L20.65 -14.15 Q20.55 -14.25 20.55 -14.35 L20.5 -14.6 20.45 -14.95 20.5 -15.3 20.55 -15.5 19.5 -13.25 19.35 -12.95 19.8 -12.0 Q19.9 -11.95 20.05 -11.95 L20.2 -11.9 20.35 -11.9 20.85 -11.95 21.1 -12.0 Q21.55 -12.35 22.1 -13.35 22.4 -13.8 22.6 -14.3 L22.75 -14.6 22.7 -14.75 22.85 -15.65 22.85 -16.4 22.5 -16.7 M10.5 -18.3 L10.5 -18.35 Q10.35 -18.85 10.05 -19.5 L9.7 -20.2 9.65 -20.2 9.5 -20.5 9.5 -20.45 9.4 -20.5 9.35 -20.5 9.35 -20.55 9.35 -20.6 9.3 -20.6 9.25 -20.5 9.2 -20.55 9.2 -20.6 Q8.95 -20.55 8.7 -20.35 L8.5 -20.05 8.35 -19.65 Q8.55 -19.65 8.85 -19.5 9.1 -19.4 9.35 -19.2 9.95 -18.85 10.4 -18.3 L10.45 -18.25 10.5 -18.3 M9.8 -18.2 Q9.9 -18.05 9.9 -17.85 9.9 -17.7 9.8 -17.65 9.75 -17.5 9.55 -17.5 L9.5 -17.5 9.6 -17.45 9.9 -17.45 9.95 -17.55 Q10.05 -17.95 10.25 -18.1 10.15 -18.15 10.05 -18.25 L9.75 -18.35 9.8 -18.2 M8.8 -18.15 L8.8 -18.2 Q8.6 -18.45 8.6 -18.55 L8.55 -18.5 8.55 -18.4 8.5 -18.35 8.5 -18.25 8.45 -17.85 8.35 -17.2 8.4 -16.8 Q8.45 -16.65 8.45 -16.4 L8.45 -16.35 Q8.5 -16.05 8.55 -15.75 L8.6 -15.6 8.65 -15.55 8.65 -15.4 8.7 -15.4 8.7 -15.45 8.75 -15.4 8.9 -15.4 Q9.3 -15.55 9.45 -15.5 L9.45 -15.6 Q9.45 -16.05 9.55 -16.4 9.55 -16.65 9.55 -16.75 9.65 -17.05 9.8 -17.35 L9.6 -17.35 Q9.3 -17.45 8.95 -17.9 L8.8 -18.15 M8.45 -18.95 L8.45 -18.95 M8.25 -19.2 L8.4 -19.05 8.7 -19.05 8.2 -19.25 8.25 -19.2 M12.55 -7.25 Q11.95 -8.15 11.6 -8.9 L11.5 -9.15 Q11.05 -10.2 11.0 -11.25 L10.5 -10.6 10.25 -10.25 Q9.9 -9.75 9.65 -9.2 9.9 -8.35 10.4 -7.6 11.05 -6.6 11.6 -6.6 12.15 -6.6 12.55 -7.1 L12.6 -7.15 12.65 -7.2 12.55 -7.25 M6.0 -9.45 L6.0 -9.45 M32.25 -19.15 L32.25 -19.55 31.95 -20.2 Q31.7 -20.7 31.35 -21.15 31.1 -21.4 30.75 -21.7 30.4 -22.05 29.9 -22.4 29.6 -22.65 29.15 -22.9 28.65 -23.25 28.15 -23.5 L27.95 -23.55 Q27.4 -23.85 26.6 -23.9 L26.95 -24.05 27.0 -24.05 27.15 -24.15 27.6 -24.3 Q27.9 -24.55 28.0 -24.65 L27.95 -24.65 Q26.25 -24.45 25.35 -24.1 L24.8 -23.8 24.55 -23.65 24.35 -23.45 24.2 -23.35 23.9 -23.05 23.9 -23.0 Q24.45 -23.15 25.15 -23.1 L25.9 -22.95 25.95 -22.95 Q26.85 -22.7 28.5 -21.9 L28.4 -21.9 27.9 -22.05 26.35 -22.45 Q24.65 -22.9 24.25 -22.9 L23.9 -22.85 23.9 -22.7 23.95 -22.7 Q24.5 -22.4 25.35 -21.65 26.15 -20.95 26.9 -20.15 28.25 -18.85 29.1 -17.55 28.9 -18.55 28.65 -19.2 L28.3 -19.65 27.6 -20.4 Q27.3 -20.7 27.3 -20.8 L27.25 -20.8 27.25 -20.85 27.1 -20.95 27.1 -21.05 Q27.1 -21.1 27.3 -21.1 27.65 -21.1 29.5 -20.3 31.25 -19.55 32.25 -19.0 L32.25 -19.15 M23.2 -17.2 L23.2 -17.2" fill="#000000" fill-rule="evenodd" stroke="none"/>
    <path d="M23.65 -16.8 L23.65 -16.55 23.5 -16.55 23.65 -16.8 M18.8 -12.15 L18.8 -12.25 18.75 -12.3 18.75 -12.35 18.8 -12.15 M16.2 -14.7 L16.2 -14.6 15.9 -14.8 16.2 -14.7 M12.6 -7.15 L12.6 -7.2 12.55 -7.25 12.65 -7.2 12.6 -7.15" fill="#cccccc" fill-rule="evenodd" stroke="none"/>
    <path d="M14.55 -16.75 Q14.25 -16.85 13.95 -17.0 L13.95 -17.05 14.3 -16.95 Q14.5 -16.95 14.6 -17.1 L14.7 -17.2 Q14.7 -17.3 14.7 -17.35 14.7 -17.6 14.5 -17.8 L14.65 -17.75 15.45 -17.75 15.6 -17.7 15.6 -17.65 15.35 -17.3 15.0 -16.9 14.75 -16.75 14.7 -16.7 14.55 -16.75 M9.8 -18.2 L9.75 -18.35 10.05 -18.25 Q10.15 -18.15 10.25 -18.1 10.05 -17.95 9.95 -17.55 L9.9 -17.45 9.6 -17.45 9.5 -17.5 9.55 -17.5 Q9.75 -17.5 9.8 -17.65 9.9 -17.7 9.9 -17.85 9.9 -18.05 9.8 -18.2 M8.8 -18.15 L8.8 -18.2 8.8 -18.15" fill="#ffffff" fill-rule="evenodd" stroke="none"/>
    <path d="M14.55 -16.75 L14.7 -16.7 14.75 -16.75 14.85 -16.8 15.0 -16.85 14.95 -16.8 15.1 -16.85 15.0 -16.4 Q14.9 -15.85 14.9 -15.75 14.9 -15.65 14.9 -15.5 L13.45 -15.4 13.5 -15.8 13.6 -16.35 13.6 -16.55 13.55 -16.55 Q13.65 -16.55 13.75 -16.65 L13.9 -16.8 Q14.05 -16.7 14.15 -16.7 14.3 -16.7 14.25 -16.75 L14.2 -16.75 14.15 -16.8 14.6 -16.65 14.7 -16.7 14.55 -16.75 M11.05 -15.75 L10.95 -15.7 Q10.95 -15.6 11.0 -15.6 L11.05 -15.55 11.1 -15.6 Q11.2 -15.4 11.35 -15.2 11.8 -14.75 12.6 -14.7 L12.5 -14.4 12.45 -14.3 Q12.0 -14.8 11.15 -13.9 10.45 -13.2 10.35 -12.75 L10.25 -12.65 10.1 -13.0 Q9.9 -13.7 9.8 -14.5 L9.9 -16.2 9.9 -16.6 Q10.0 -16.95 10.2 -17.35 L10.5 -17.9 10.7 -18.1 10.75 -18.1 10.75 -18.45 Q10.75 -18.8 10.35 -19.6 10.05 -20.3 9.8 -20.6 L9.7 -20.75 9.95 -21.05 Q10.05 -20.8 10.6 -20.2 11.1 -19.65 11.55 -19.45 12.0 -18.95 12.5 -18.6 L12.4 -18.4 Q12.3 -18.25 12.3 -18.1 L12.3 -18.0 Q11.8 -17.8 11.4 -17.3 11.0 -16.7 11.0 -16.0 L11.05 -15.75 M8.8 -18.2 L8.8 -18.15 8.95 -17.9 Q9.3 -17.45 9.6 -17.35 L9.8 -17.35 Q9.65 -17.05 9.55 -16.75 9.55 -16.65 9.55 -16.4 9.45 -16.05 9.45 -15.6 L9.45 -15.5 Q9.3 -15.55 8.9 -15.4 L8.75 -15.4 8.7 -15.45 8.7 -15.4 8.65 -15.4 8.65 -15.55 8.6 -15.6 8.55 -15.75 Q8.5 -16.05 8.45 -16.35 L8.45 -16.4 Q8.45 -16.65 8.4 -16.8 L8.35 -17.2 8.45 -17.85 8.5 -18.25 8.5 -18.35 8.55 -18.4 8.55 -18.5 8.6 -18.55 Q8.6 -18.45 8.8 -18.2 M10.5 -10.6 Q10.65 -9.8 10.8 -9.0 11.15 -7.15 11.6 -6.6 11.05 -6.6 10.4 -7.6 9.9 -8.35 9.65 -9.2 9.9 -9.75 10.25 -10.25 L10.5 -10.6" fill="#f4c49f" fill-rule="evenodd" stroke="none"/>
    <path d="M15.1 -16.85 Q15.3 -16.95 15.5 -17.15 15.8 -17.45 15.8 -17.7 L15.95 -17.75 16.2 -17.75 16.25 -17.8 16.35 -17.75 16.65 -17.75 Q16.75 -17.8 16.75 -17.9 L16.65 -18.0 16.75 -18.15 Q16.8 -18.15 16.65 -18.15 L16.4 -18.15 16.05 -18.4 Q16.6 -18.2 17.15 -18.2 L17.7 -18.25 17.8 -18.25 Q18.3 -18.35 18.9 -18.55 L18.95 -18.5 19.1 -18.15 Q19.35 -17.5 19.35 -17.25 19.35 -17.05 19.25 -16.8 19.15 -16.45 18.9 -16.1 L18.65 -15.85 Q18.45 -16.45 18.15 -16.95 17.75 -17.7 17.35 -17.7 17.1 -17.7 17.1 -17.05 17.1 -16.4 17.1 -16.25 L16.8 -15.2 Q15.95 -15.5 14.9 -15.5 14.9 -15.65 14.9 -15.75 14.9 -15.85 15.0 -16.4 L15.1 -16.85 M13.45 -15.4 L13.2 -15.35 13.15 -15.35 13.15 -15.45 13.2 -16.05 Q13.2 -17.8 11.9 -16.7 11.65 -16.55 11.35 -16.25 L11.15 -16.05 11.1 -15.95 11.05 -15.8 11.05 -15.75 11.0 -16.0 Q11.0 -16.7 11.4 -17.3 11.8 -17.8 12.3 -18.0 L12.3 -17.95 12.35 -17.95 12.4 -17.9 12.45 -17.9 12.45 -17.8 12.6 -17.8 12.6 -17.85 12.7 -17.85 12.7 -17.75 12.75 -17.8 13.0 -17.8 Q13.05 -17.65 13.15 -17.5 L13.3 -17.35 13.3 -17.3 13.5 -17.1 Q13.7 -16.9 13.9 -16.8 L13.75 -16.65 Q13.65 -16.55 13.55 -16.55 L13.6 -16.55 13.6 -16.35 13.5 -15.8 13.45 -15.4 M11.1 -15.6 L11.1 -15.65 11.15 -15.65 11.65 -16.2 Q11.85 -16.45 12.1 -16.55 L12.55 -16.65 Q12.8 -16.65 12.9 -16.15 L12.9 -16.05 Q12.9 -15.7 12.65 -14.85 L12.6 -14.7 Q11.8 -14.75 11.35 -15.2 11.2 -15.4 11.1 -15.6 M9.95 -21.05 L10.3 -21.5 10.3 -21.55 10.45 -21.7 10.5 -21.8 Q10.5 -21.4 10.65 -21.0 10.75 -20.75 10.85 -20.55 11.1 -20.05 11.55 -19.45 11.1 -19.65 10.6 -20.2 10.05 -20.8 9.95 -21.05 M15.75 -16.55 L15.75 -16.55 M22.5 -16.7 L22.85 -16.4 22.85 -15.65 22.7 -14.75 22.75 -14.6 22.6 -14.3 Q22.4 -13.8 22.1 -13.35 21.55 -12.35 21.1 -12.0 L20.85 -11.95 20.35 -11.9 20.2 -11.9 20.05 -11.95 Q19.9 -11.95 19.8 -12.0 L19.35 -12.95 19.5 -13.25 20.55 -15.5 20.5 -15.3 20.45 -14.95 20.5 -14.6 20.55 -14.35 Q20.55 -14.25 20.65 -14.15 L20.8 -14.55 Q20.95 -14.85 21.25 -14.85 21.45 -14.85 21.55 -13.95 21.55 -13.7 21.3 -13.3 L21.05 -12.95 21.05 -12.9 21.1 -12.9 Q21.5 -13.1 21.65 -13.4 21.75 -13.55 21.75 -13.95 L21.65 -14.5 Q21.5 -15.05 21.2 -15.05 21.1 -15.05 20.9 -14.85 L20.65 -14.7 20.65 -15.5 21.0 -15.55 21.3 -15.6 21.6 -15.55 21.65 -15.5 22.05 -15.35 22.05 -15.25 22.2 -15.2 22.25 -15.2 22.45 -15.05 Q22.65 -15.2 22.7 -15.4 L22.7 -15.75 Q22.6 -16.35 22.5 -16.7 M8.25 -19.2 L8.2 -19.25 8.7 -19.05 8.4 -19.05 8.25 -19.2 M8.45 -18.95 L8.45 -18.95 M10.5 -10.6 L11.0 -11.25 Q11.05 -10.2 11.5 -9.15 L11.6 -8.9 Q11.95 -8.15 12.55 -7.25 L12.6 -7.2 12.6 -7.15 12.55 -7.1 Q12.15 -6.6 11.6 -6.6 11.15 -7.15 10.8 -9.0 10.65 -9.8 10.5 -10.6" fill="#e7955f" fill-rule="evenodd" stroke="none"/>
    <path d="M17.95 -22.3 Q17.35 -22.8 16.75 -23.25 14.85 -24.55 12.6 -25.25 L12.35 -25.2 Q12.05 -25.2 11.9 -25.4 L11.9 -25.45 11.8 -25.5 11.9 -25.55 11.85 -25.65 Q11.85 -25.7 12.35 -26.15 L12.9 -25.9 13.75 -25.5 Q13.85 -25.5 13.85 -25.55 L13.85 -25.6 Q13.8 -25.9 13.05 -26.2 L12.65 -26.4 12.85 -26.6 12.55 -26.45 12.85 -26.75 13.45 -26.6 13.95 -26.45 Q14.05 -26.45 14.05 -26.5 L14.05 -26.55 Q13.95 -26.75 13.2 -26.95 L14.1 -28.05 14.3 -28.3 14.6 -28.7 15.0 -29.35 Q16.4 -31.15 16.95 -31.15 L17.1 -31.15 Q17.05 -30.9 17.05 -30.6 17.05 -29.65 17.75 -27.45 18.5 -25.2 18.5 -24.3 18.5 -24.0 18.1 -22.7 L17.95 -22.3 M12.0 -26.9 L12.6 -27.15 13.3 -27.5 12.8 -27.0 Q12.45 -27.05 12.3 -26.95 12.4 -26.8 12.5 -26.8 L12.55 -26.8 12.25 -26.5 11.65 -26.5 Q11.7 -26.4 11.8 -26.3 L12.0 -26.25 11.3 -25.7 11.25 -25.7 11.35 -25.85 11.45 -26.05 11.4 -26.05 11.15 -25.65 Q10.2 -25.3 8.9 -24.25 9.1 -24.6 9.4 -24.95 10.1 -25.85 11.1 -26.4 11.55 -26.6 12.0 -26.9" fill="#844a4a" fill-rule="evenodd" stroke="none"/>
    <path d="M17.95 -22.3 L18.1 -22.7 Q18.5 -24.0 18.5 -24.3 18.5 -25.2 17.75 -27.45 17.05 -29.65 17.05 -30.6 17.05 -30.9 17.1 -31.15 L17.15 -31.15 Q17.7 -31.0 18.45 -30.5 19.15 -30.1 19.8 -29.5 20.45 -28.75 20.95 -27.95 L21.45 -27.1 Q22.1 -25.85 22.65 -24.3 23.05 -23.2 23.05 -22.95 L22.95 -22.85 22.95 -22.75 22.8 -22.8 Q22.75 -22.75 22.75 -22.6 L22.2 -22.25 22.0 -22.25 21.8 -23.15 Q21.7 -23.05 21.7 -22.85 L21.75 -22.2 21.75 -22.15 Q21.75 -22.05 21.8 -22.05 L21.8 -22.0 Q21.95 -21.25 22.05 -21.0 L22.1 -21.0 22.15 -21.1 22.15 -21.2 22.0 -22.0 22.3 -22.0 22.9 -22.2 22.35 -19.8 22.0 -19.85 Q22.0 -19.65 22.05 -19.6 L22.1 -19.6 22.05 -19.55 22.05 -19.5 21.9 -19.5 21.75 -19.65 Q21.05 -20.05 20.5 -20.2 L20.2 -20.2 19.95 -20.3 19.95 -20.25 19.8 -20.4 Q18.95 -21.45 17.95 -22.3 M19.5 -21.65 L19.55 -21.55 19.65 -21.55 20.25 -21.6 20.7 -21.7 21.1 -21.8 Q21.2 -21.55 21.25 -21.25 L21.35 -21.3 21.35 -21.45 Q21.45 -21.2 21.6 -21.1 21.45 -21.45 21.4 -21.9 L21.4 -21.95 21.35 -21.95 21.35 -22.0 21.3 -22.4 21.25 -22.95 21.1 -22.95 21.1 -22.05 20.9 -22.0 20.6 -21.95 Q20.2 -21.95 19.85 -21.8 L19.55 -21.65 19.5 -21.65 M21.75 -23.15 L21.75 -23.15" fill="#5a3232" fill-rule="evenodd" stroke="none"/>
    <path d="M9.85 -23.45 Q7.8 -22.6 7.2 -21.3 7.25 -21.55 7.4 -21.85 7.5 -22.35 7.9 -22.85 L8.3 -23.25 9.7 -24.4 10.0 -24.55 11.25 -25.3 11.45 -25.05 11.8 -25.0 11.9 -24.95 Q12.05 -24.85 12.25 -24.85 L13.7 -24.45 Q14.15 -24.2 14.5 -24.1 14.6 -24.05 14.65 -24.0 14.2 -23.8 14.2 -22.85 L14.2 -22.45 14.05 -22.4 13.95 -22.25 Q13.95 -22.55 13.75 -22.6 13.5 -22.65 13.5 -22.4 L13.6 -21.9 13.6 -21.95 13.3 -22.6 13.2 -22.9 Q13.05 -23.55 13.05 -23.8 L13.05 -24.0 12.95 -24.25 Q12.8 -24.1 12.75 -23.55 L12.75 -23.5 Q12.4 -24.1 12.2 -24.1 11.8 -24.1 11.8 -22.6 12.15 -21.3 12.8 -19.95 13.15 -19.15 13.6 -18.55 L13.7 -18.5 Q13.4 -18.6 13.2 -18.75 12.75 -19.05 12.35 -19.4 L12.3 -19.5 12.3 -19.45 Q11.9 -19.9 11.6 -20.45 11.1 -21.25 11.0 -22.0 11.05 -22.6 11.25 -23.25 L11.5 -24.0 11.85 -24.55 11.8 -24.65 11.75 -24.65 Q11.4 -24.45 11.15 -24.05 11.05 -25.1 10.35 -24.2 L9.85 -23.45 Q9.25 -22.55 9.05 -22.35 8.5 -21.75 7.9 -21.3 7.3 -20.8 7.25 -20.75 7.35 -21.1 7.5 -21.4 8.1 -22.6 9.85 -23.45 M12.65 -18.15 L12.6 -18.15 12.8 -18.4 13.1 -18.25 12.65 -18.15 M13.45 -15.1 L13.45 -15.0 Q13.45 -14.9 13.9 -14.1 14.55 -13.0 14.95 -12.2 16.4 -9.2 16.4 -6.85 16.4 -5.75 16.05 -4.55 L15.95 -4.2 16.0 -4.15 15.85 -4.3 Q15.5 -4.85 15.0 -5.4 L14.1 -6.4 13.55 -7.1 Q12.95 -7.95 12.55 -8.6 12.15 -9.35 11.75 -10.3 L11.65 -10.6 Q11.55 -10.9 11.4 -11.55 L11.35 -11.8 Q11.3 -12.0 11.2 -12.15 11.15 -12.65 10.7 -12.6 10.7 -12.75 10.8 -12.85 L10.8 -12.95 10.95 -13.15 Q11.7 -14.1 12.15 -14.1 L12.3 -14.05 Q12.35 -14.0 12.4 -14.0 L12.4 -13.95 Q12.45 -13.9 12.55 -13.85 12.7 -14.05 12.8 -14.3 12.95 -14.5 13.0 -14.75 L13.1 -15.1 13.45 -15.1 M9.35 -20.55 L9.3 -20.55 9.25 -20.5 9.25 -20.35 Q9.25 -20.3 9.8 -19.3 10.35 -18.3 10.45 -18.3 L10.5 -18.3 10.45 -18.25 10.4 -18.3 Q9.95 -18.85 9.35 -19.2 9.1 -19.4 8.85 -19.5 8.55 -19.65 8.35 -19.65 L8.5 -20.05 8.7 -20.35 Q8.95 -20.55 9.2 -20.6 L9.2 -20.55 9.25 -20.5 9.3 -20.6 9.35 -20.6 9.35 -20.55 M6.75 -5.25 L6.5 -5.8 6.45 -5.85 6.45 -5.95 Q5.85 -7.3 5.85 -8.8 L5.85 -8.9 6.0 -10.0 6.15 -11.25 6.2 -11.45 Q6.55 -12.45 7.35 -13.45 L7.35 -13.55 Q6.7 -13.1 6.3 -12.5 L6.2 -12.35 6.1 -12.4 Q5.95 -12.35 5.65 -12.15 L5.55 -12.1 5.65 -12.3 Q5.85 -12.7 6.1 -13.0 6.35 -13.3 6.65 -13.5 L8.0 -14.5 Q8.3 -14.7 9.0 -15.0 L9.4 -15.2 9.5 -15.2 9.5 -15.05 Q9.5 -14.35 9.6 -13.7 L9.65 -13.45 9.85 -12.75 Q9.95 -12.5 10.0 -12.35 9.55 -12.05 8.95 -11.4 8.0 -10.35 7.45 -8.85 6.75 -7.15 6.75 -5.25 M6.0 -9.45 L6.0 -9.45" fill="#dcd2b6" fill-rule="evenodd" stroke="none"/>
    <path d="M9.85 -23.45 L10.35 -24.2 Q11.05 -25.1 11.15 -24.05 L11.0 -23.8 10.85 -23.5 Q10.75 -23.3 10.65 -22.9 L10.65 -22.85 10.6 -22.8 10.6 -22.55 10.4 -22.35 9.95 -21.8 9.45 -20.95 9.1 -21.0 Q8.8 -20.95 8.45 -20.55 8.2 -20.3 8.0 -19.95 7.75 -19.55 7.75 -19.45 L7.75 -19.3 7.85 -19.3 7.9 -19.2 7.9 -19.15 7.95 -19.05 8.0 -19.0 8.1 -18.55 7.8 -18.7 Q7.6 -19.0 7.45 -19.3 7.25 -19.85 7.2 -20.35 L7.2 -20.4 7.25 -20.75 Q7.3 -20.8 7.9 -21.3 8.5 -21.75 9.05 -22.35 9.25 -22.55 9.85 -23.45 M13.7 -18.5 L13.6 -18.55 Q13.15 -19.15 12.8 -19.95 12.15 -21.3 11.8 -22.6 11.8 -24.1 12.2 -24.1 12.4 -24.1 12.75 -23.5 L12.75 -23.05 Q12.8 -22.75 12.9 -22.4 13.05 -21.5 13.7 -20.6 L13.7 -20.55 Q14.3 -19.5 15.1 -18.9 15.15 -18.75 15.3 -18.6 L15.65 -18.3 15.85 -18.15 15.5 -18.2 15.15 -18.2 14.65 -18.3 14.6 -18.3 14.25 -18.35 13.85 -18.45 13.7 -18.5 M13.3 -22.6 L13.6 -21.95 13.6 -21.9 13.5 -22.4 Q13.5 -22.65 13.75 -22.6 13.95 -22.55 13.95 -22.25 L14.05 -22.4 14.2 -22.45 14.2 -22.85 Q14.2 -23.8 14.65 -24.0 L15.3 -23.6 16.45 -22.9 Q17.35 -22.35 18.4 -21.3 L18.7 -21.0 Q19.6 -20.3 20.05 -19.8 L20.2 -19.7 20.3 -19.8 20.2 -19.9 20.3 -19.9 20.7 -19.65 Q21.35 -19.3 21.6 -19.2 L22.5 -19.1 22.8 -19.0 Q23.1 -18.75 23.35 -18.15 23.65 -17.4 23.65 -17.0 L23.65 -16.8 23.5 -16.55 23.35 -16.65 23.4 -16.5 23.0 -16.9 22.95 -16.9 22.9 -16.95 22.7 -17.1 22.15 -17.5 Q21.2 -18.2 21.2 -17.65 21.2 -17.8 22.0 -17.15 L22.05 -17.05 22.2 -16.65 22.4 -16.15 22.45 -15.75 22.4 -15.6 22.35 -15.4 Q22.15 -15.55 21.8 -15.75 L21.15 -16.05 20.8 -16.05 21.1 -16.85 20.35 -16.1 20.0 -15.65 19.9 -15.35 Q19.65 -14.85 19.5 -14.45 L19.4 -14.2 19.1 -13.5 19.05 -13.45 Q18.35 -14.45 17.3 -15.0 L17.4 -15.35 17.55 -15.85 17.6 -16.35 17.65 -16.95 18.05 -16.45 18.1 -16.35 18.3 -15.85 Q18.35 -15.55 18.5 -15.45 L18.5 -15.4 18.55 -15.4 18.6 -15.3 18.75 -15.45 18.75 -15.5 Q19.05 -15.6 19.35 -16.15 L19.4 -16.2 Q19.5 -16.4 19.55 -16.45 19.75 -16.9 19.75 -17.1 19.75 -17.45 19.55 -18.0 L19.5 -18.1 19.4 -18.45 19.3 -18.65 Q20.35 -19.0 20.55 -19.3 L20.45 -19.35 Q20.2 -19.35 19.45 -19.0 18.55 -18.65 18.3 -18.6 L18.15 -18.6 Q17.8 -18.45 17.05 -18.45 15.25 -18.45 14.2 -20.4 L14.15 -20.5 Q14.0 -20.8 13.8 -21.1 13.5 -21.8 13.3 -22.6 M13.45 -15.1 L13.65 -15.05 13.7 -15.05 Q14.85 -15.05 15.8 -14.8 L15.9 -14.8 16.2 -14.6 16.2 -14.7 16.25 -14.7 16.55 -14.6 16.6 -14.55 16.65 -14.55 Q17.45 -14.1 18.05 -13.45 L18.15 -13.35 18.2 -13.25 18.2 -13.2 18.25 -13.2 18.65 -12.5 18.7 -12.4 18.75 -12.35 18.75 -12.3 18.8 -12.25 18.8 -12.15 19.0 -11.75 19.05 -11.7 19.05 -11.65 Q19.3 -11.15 19.55 -9.3 L19.4 -9.5 Q19.1 -10.15 18.8 -10.3 L18.8 -10.4 Q18.5 -11.4 17.75 -11.7 17.75 -11.75 17.75 -11.6 L18.15 -10.65 Q18.55 -9.7 18.55 -8.85 18.55 -7.15 18.05 -5.65 17.8 -4.85 16.95 -3.6 L16.55 -2.95 Q16.45 -3.3 16.2 -3.75 L16.15 -4.0 16.1 -4.0 16.05 -4.05 16.0 -4.15 15.95 -4.2 16.05 -4.55 Q16.4 -5.75 16.4 -6.85 16.4 -9.2 14.95 -12.2 14.55 -13.0 13.9 -14.1 13.45 -14.9 13.45 -15.0 L13.45 -15.1 M10.7 -12.6 Q11.15 -12.65 11.2 -12.15 L11.1 -12.2 Q11.0 -12.25 10.7 -11.95 10.45 -11.65 10.45 -11.55 L10.45 -11.5 9.8 -10.55 9.7 -10.35 9.65 -10.2 9.6 -10.15 Q8.75 -9.0 8.45 -8.2 7.95 -7.05 7.95 -5.0 L7.9 -4.1 7.9 -3.6 Q7.55 -4.05 7.25 -4.5 7.2 -4.55 7.1 -4.65 L6.75 -5.25 Q6.75 -7.15 7.45 -8.85 8.0 -10.35 8.95 -11.4 9.55 -12.05 10.0 -12.35 10.1 -12.2 10.2 -12.2 L10.25 -12.25 10.4 -12.25 10.4 -12.2 10.45 -12.25 10.55 -12.25 10.7 -12.5 10.7 -12.6 M9.35 -20.55 L9.35 -20.5 9.4 -20.5 9.5 -20.45 9.5 -20.5 9.65 -20.2 9.7 -20.2 10.05 -19.5 Q10.35 -18.85 10.5 -18.35 L10.5 -18.3 10.45 -18.3 Q10.35 -18.3 9.8 -19.3 9.25 -20.3 9.25 -20.35 L9.25 -20.5 9.3 -20.55 9.35 -20.55 M23.2 -17.2 L23.2 -17.2" fill="#bcad89" fill-rule="evenodd" stroke="none"/>
    <path d="M27.9 -22.05 L28.4 -21.9 28.5 -21.9 Q26.85 -22.7 25.95 -22.95 L25.9 -22.95 25.15 -23.1 Q24.45 -23.15 23.9 -23.0 L23.9 -23.05 24.2 -23.35 24.35 -23.45 24.55 -23.65 24.8 -23.8 25.35 -24.1 Q26.25 -24.45 27.95 -24.65 L28.0 -24.65 Q27.9 -24.55 27.6 -24.3 L27.15 -24.15 27.0 -24.05 26.95 -24.05 26.6 -23.9 Q27.4 -23.85 27.95 -23.55 L28.15 -23.5 Q28.65 -23.25 29.15 -22.9 29.6 -22.65 29.9 -22.4 30.4 -22.05 30.75 -21.7 31.1 -21.4 31.35 -21.15 31.7 -20.7 31.95 -20.2 L32.25 -19.55 32.25 -19.15 32.15 -19.1 Q32.1 -19.1 30.7 -20.15 L28.85 -21.55 Q28.5 -21.75 27.7 -22.1 L27.9 -22.05" fill="#9ca75f" fill-rule="evenodd" stroke="none"/>
    <path d="M32.25 -19.15 L32.25 -19.0 Q31.25 -19.55 29.5 -20.3 27.65 -21.1 27.3 -21.1 27.1 -21.1 27.1 -21.05 L27.1 -20.95 27.25 -20.85 27.25 -20.8 27.3 -20.8 Q27.3 -20.7 27.6 -20.4 L28.3 -19.65 28.65 -19.2 Q28.9 -18.55 29.1 -17.55 28.25 -18.85 26.9 -20.15 26.15 -20.95 25.35 -21.65 24.5 -22.4 23.95 -22.7 L23.9 -22.7 23.9 -22.85 24.25 -22.9 Q24.65 -22.9 26.35 -22.45 L27.9 -22.05 27.7 -22.1 Q28.5 -21.75 28.85 -21.55 L30.7 -20.15 Q32.1 -19.1 32.15 -19.1 L32.25 -19.15" fill="#b4bc85" fill-rule="evenodd" stroke="none"/>
  </g>
</svg>
