<?xml version="1.0" encoding="UTF-8" standalone="no"?>
<svg xmlns:ffdec="https://www.free-decompiler.com/flash" xmlns:xlink="http://www.w3.org/1999/xlink" ffdec:objectType="shape" height="26.45px" width="20.65px" xmlns="http://www.w3.org/2000/svg">
  <g transform="matrix(1.0, 0.0, 0.0, 1.0, -5.1, 25.8)">
    <path d="M9.75 -2.55 L9.7 -2.55 9.65 -2.6 9.6 -2.75 9.75 -2.6 9.75 -2.55 M12.0 -13.15 L11.9 -13.05 Q11.65 -13.05 11.5 -13.15 11.25 -13.25 11.1 -13.45 10.95 -13.7 10.95 -13.9 10.95 -14.0 11.0 -14.1 11.05 -14.2 11.15 -14.25 11.45 -14.25 11.75 -14.05 L11.95 -13.85 12.1 -13.65 12.1 -13.4 12.0 -13.15 M11.4 -13.8 Q11.2 -13.9 11.2 -13.7 L11.25 -13.55 Q11.35 -13.4 11.5 -13.4 11.55 -13.4 11.6 -13.45 L11.6 -13.55 Q11.6 -13.7 11.4 -13.8 M8.45 -6.1 L8.45 -6.1 M15.45 -12.7 Q15.45 -12.6 15.3 -12.45 15.05 -12.25 14.55 -12.25 13.9 -12.25 13.45 -12.7 13.15 -13.05 13.15 -13.25 13.15 -13.75 13.5 -13.85 L13.85 -13.85 Q14.25 -13.75 14.85 -13.35 15.15 -13.1 15.45 -12.85 L15.45 -12.7 M13.6 -13.4 Q13.4 -13.5 13.4 -13.25 L13.45 -13.1 Q13.55 -12.9 13.7 -12.9 13.8 -12.9 13.85 -12.95 L13.85 -13.1 Q13.85 -13.3 13.6 -13.4" fill="#ffffff" fill-rule="evenodd" stroke="none"/>
    <path d="M17.9 -24.8 L17.6 -24.95 17.1 -25.0 16.9 -25.0 17.15 -24.75 Q17.7 -24.2 18.0 -23.65 L18.05 -23.6 18.2 -23.25 Q18.3 -23.25 18.3 -23.1 L18.25 -22.95 18.3 -22.95 18.15 -22.8 18.1 -22.75 18.0 -22.75 17.95 -22.7 Q17.7 -22.55 17.3 -22.55 16.7 -22.55 15.3 -23.15 L14.4 -23.5 13.7 -23.7 13.0 -23.75 Q11.75 -23.75 10.85 -23.2 L10.7 -23.05 11.35 -23.1 12.05 -23.05 12.4 -22.95 12.5 -22.95 Q13.0 -22.85 13.3 -22.6 L13.35 -22.6 13.35 -22.55 13.4 -22.5 Q13.4 -22.45 13.3 -22.45 L12.45 -22.7 12.4 -22.7 Q11.55 -22.7 10.75 -22.1 L10.3 -21.7 9.95 -21.4 9.85 -21.25 Q9.5 -20.85 9.15 -20.35 8.6 -19.45 8.25 -18.55 L8.1 -18.05 Q8.35 -18.5 8.75 -18.95 L8.9 -19.1 Q9.55 -20.0 10.2 -20.3 10.25 -20.3 10.25 -20.2 10.25 -20.05 9.85 -19.6 9.25 -18.9 9.0 -18.55 8.15 -17.4 7.9 -16.15 7.85 -15.7 7.85 -15.1 L7.85 -14.4 Q7.9 -14.0 8.05 -13.6 8.0 -13.95 8.0 -14.3 8.0 -15.35 8.2 -16.0 8.65 -17.25 9.25 -17.55 L9.3 -17.5 Q8.7 -16.7 8.45 -15.9 8.2 -15.15 8.2 -14.3 8.2 -13.55 8.55 -12.65 L8.6 -12.55 Q8.85 -11.9 9.2 -11.45 9.25 -11.55 9.5 -11.95 9.75 -12.5 9.75 -12.9 9.75 -13.45 9.35 -13.95 9.1 -14.2 9.0 -14.45 8.95 -14.55 8.95 -14.7 L8.9 -14.85 8.9 -14.9 Q8.9 -15.6 9.5 -16.1 9.95 -16.45 10.7 -16.7 11.0 -16.95 11.05 -17.25 L10.95 -17.5 10.95 -17.6 10.9 -17.7 10.85 -17.9 10.75 -18.25 10.7 -18.4 10.7 -18.55 10.65 -19.0 10.65 -19.05 Q10.65 -19.3 10.7 -19.55 L10.7 -19.35 Q10.7 -19.1 11.0 -18.4 L11.0 -18.35 Q11.05 -18.1 11.15 -17.85 L11.4 -17.2 11.55 -16.9 Q12.0 -15.9 12.8 -14.85 13.0 -15.45 14.25 -16.85 15.15 -17.85 15.7 -18.25 L16.2 -18.55 Q16.25 -18.55 16.25 -18.45 16.25 -18.4 15.9 -18.1 15.95 -18.05 15.9 -17.85 L15.9 -17.45 15.85 -16.75 15.9 -16.75 15.85 -16.6 15.8 -16.3 15.65 -15.7 15.45 -14.5 Q16.45 -14.85 17.25 -15.45 L17.4 -15.55 17.4 -15.6 Q17.6 -15.75 17.8 -15.95 18.15 -16.25 18.55 -16.8 L18.55 -16.9 18.6 -16.85 18.65 -16.9 18.75 -17.1 18.95 -17.4 19.3 -18.05 19.35 -18.05 19.35 -17.9 Q19.35 -17.35 18.95 -16.75 L18.85 -16.6 18.9 -16.55 Q19.05 -16.05 19.05 -15.75 L18.95 -15.1 Q18.95 -14.3 18.45 -13.3 L18.45 -13.25 18.35 -13.1 Q17.65 -11.75 17.5 -10.85 L17.5 -10.75 Q17.6 -11.0 17.8 -11.3 L18.3 -12.15 Q18.5 -12.5 18.7 -13.05 L19.05 -13.85 19.1 -13.8 Q19.05 -13.15 18.45 -12.0 L18.2 -11.55 18.15 -11.35 18.1 -10.9 Q18.05 -10.4 18.05 -10.2 L18.05 -10.0 Q18.05 -9.8 18.05 -9.7 L18.2 -9.05 18.2 -8.95 18.25 -9.0 18.25 -8.8 18.3 -8.75 18.85 -8.35 19.1 -8.2 20.05 -7.4 20.4 -7.95 Q20.9 -8.75 21.2 -9.45 21.35 -9.85 21.45 -10.55 21.55 -11.2 21.55 -11.65 L21.45 -12.55 21.35 -13.3 Q21.75 -13.25 21.75 -11.65 21.75 -8.9 20.15 -7.35 L20.25 -7.25 20.65 -7.6 21.5 -8.3 Q22.0 -8.8 22.4 -9.7 22.75 -10.45 22.9 -11.1 23.0 -11.7 23.0 -12.4 L22.7 -13.75 22.65 -14.1 22.35 -14.95 Q22.35 -15.2 22.55 -14.95 L22.55 -15.0 22.6 -14.85 22.7 -14.75 Q23.0 -14.25 23.1 -13.65 L23.25 -13.15 Q23.4 -12.85 23.45 -12.15 L23.45 -12.1 Q23.55 -11.55 23.55 -11.35 L23.55 -10.65 23.6 -10.5 23.95 -11.4 Q24.65 -13.2 24.65 -14.55 24.65 -15.45 24.35 -16.4 L24.2 -17.1 Q23.75 -16.8 23.2 -16.8 L23.1 -16.8 23.0 -16.85 23.0 -16.9 22.95 -16.9 Q23.4 -17.05 23.7 -17.3 L24.25 -17.95 Q24.9 -18.8 24.9 -19.65 24.9 -19.95 24.75 -20.55 L24.75 -20.65 24.7 -20.75 Q24.5 -20.85 24.1 -20.85 23.15 -20.85 22.55 -19.95 L22.5 -19.9 22.3 -19.5 Q22.2 -19.3 22.1 -18.9 L22.3 -18.4 22.45 -17.95 22.45 -17.85 22.5 -17.7 22.5 -17.6 22.55 -17.55 22.55 -17.5 22.65 -17.0 22.8 -16.5 22.85 -16.4 22.85 -16.25 Q22.85 -16.2 22.8 -16.2 L22.75 -16.25 Q22.7 -16.25 22.65 -16.35 L22.65 -16.3 22.6 -16.3 22.5 -16.55 22.0 -17.2 22.05 -16.95 22.2 -16.6 Q22.4 -16.05 22.85 -15.65 L22.8 -15.6 22.7 -15.65 22.85 -15.5 22.7 -15.55 Q22.4 -15.75 22.15 -16.3 L22.05 -16.45 Q21.8 -16.95 21.8 -17.25 L21.8 -17.45 21.5 -17.75 21.5 -17.8 21.15 -18.05 21.2 -18.1 Q21.45 -18.15 21.95 -17.65 L22.0 -17.6 22.05 -17.6 22.2 -17.4 22.35 -17.25 Q22.2 -17.9 22.1 -18.25 L21.8 -18.85 21.8 -18.9 21.6 -19.15 21.6 -19.2 21.3 -19.5 21.2 -19.55 21.2 -19.6 21.15 -19.6 20.8 -19.95 20.75 -19.9 20.7 -19.95 20.6 -19.9 20.55 -19.9 20.65 -20.0 20.6 -20.05 20.7 -20.05 20.7 -20.1 Q20.7 -20.2 21.05 -20.45 L21.4 -20.75 21.6 -20.9 21.45 -20.85 21.4 -20.8 21.35 -20.8 21.0 -20.6 20.85 -20.5 20.8 -20.5 20.25 -20.05 20.2 -20.05 20.2 -20.15 Q20.2 -20.25 20.35 -20.4 L20.35 -20.45 Q20.5 -20.6 20.95 -20.85 L21.2 -21.0 21.3 -21.05 21.25 -21.05 20.5 -21.8 Q20.2 -22.1 20.2 -22.5 L20.2 -22.65 Q20.2 -22.95 20.45 -23.4 20.55 -23.65 20.85 -24.15 20.6 -24.0 20.35 -23.8 19.9 -23.4 19.55 -22.8 L19.5 -22.75 19.45 -21.75 19.4 -21.7 Q19.3 -21.95 19.3 -22.6 L19.3 -22.7 19.25 -23.05 19.1 -23.55 19.0 -23.8 Q18.8 -24.1 18.4 -24.45 L17.9 -24.8 M22.35 -17.25 L22.35 -17.25 M9.65 -2.6 L9.95 -1.85 Q10.2 -1.15 10.25 -0.75 L10.25 -0.7 10.3 -0.55 10.3 -0.45 10.4 -0.35 10.4 -0.3 10.2 -0.3 10.15 -0.25 9.85 -0.2 Q9.25 -0.2 8.25 -0.95 7.7 -1.4 7.35 -1.75 L7.4 -1.45 Q7.4 -1.4 7.3 -1.4 L7.25 -1.4 7.15 -1.35 Q6.95 -1.35 6.75 -1.55 L6.65 -1.6 Q6.2 -1.9 5.9 -2.8 5.7 -3.45 5.65 -4.15 5.65 -5.05 6.05 -5.9 L6.2 -6.2 6.05 -6.05 5.8 -5.75 5.1 -4.8 Q5.25 -5.25 5.45 -5.55 L5.7 -6.05 5.95 -6.4 6.45 -6.85 6.9 -7.3 7.1 -7.55 Q6.85 -7.95 6.8 -8.35 L6.8 -8.7 Q6.8 -9.4 7.3 -9.95 7.75 -10.4 8.75 -11.05 L8.9 -11.2 Q8.45 -11.7 8.15 -12.45 L7.9 -13.0 Q7.5 -14.1 7.5 -15.15 7.5 -16.2 7.95 -17.35 L7.9 -17.35 7.85 -17.3 Q7.75 -17.35 7.75 -17.45 7.75 -18.1 8.1 -18.9 L8.15 -19.1 8.1 -19.05 Q7.6 -18.65 7.45 -18.4 L7.15 -17.9 Q7.0 -17.65 6.85 -17.45 6.75 -17.55 6.75 -17.65 6.75 -18.05 7.3 -18.65 7.7 -19.15 8.25 -19.5 8.2 -19.7 8.1 -20.15 8.0 -20.75 8.0 -20.85 8.0 -22.0 8.3 -22.6 8.85 -23.65 10.1 -21.9 10.7 -22.55 11.4 -22.75 L11.6 -22.85 10.85 -22.85 10.8 -22.8 Q10.55 -22.8 10.15 -22.7 L10.0 -22.7 Q9.95 -22.7 9.95 -22.75 9.95 -22.85 10.1 -22.95 10.25 -23.2 11.0 -23.6 11.85 -24.0 12.5 -24.0 12.9 -24.1 13.3 -24.05 14.1 -23.95 15.15 -23.5 L15.3 -23.45 15.55 -23.35 15.6 -23.35 Q15.3 -23.55 15.0 -23.85 L14.05 -24.65 Q13.5 -25.0 13.1 -25.0 L12.75 -24.9 12.7 -24.95 Q12.65 -24.95 12.65 -25.0 12.65 -25.25 13.15 -25.2 13.65 -25.2 14.0 -24.9 14.45 -24.65 15.0 -24.15 15.25 -23.85 15.95 -23.45 L16.65 -23.1 Q17.4 -22.9 17.75 -22.9 L17.9 -23.0 18.0 -23.05 18.0 -23.1 Q18.0 -23.25 17.8 -23.55 L17.45 -24.05 Q17.2 -24.4 16.85 -24.75 L16.5 -25.0 16.5 -25.05 Q16.5 -25.1 16.5 -25.15 16.5 -25.45 16.95 -25.4 17.4 -25.35 18.0 -25.0 19.1 -24.35 19.4 -23.55 19.55 -24.0 19.95 -24.65 20.6 -25.8 21.15 -25.8 20.45 -25.1 20.05 -24.3 19.8 -23.8 19.65 -23.35 19.85 -23.6 20.25 -23.95 21.05 -24.7 21.05 -24.2 21.05 -24.1 20.95 -23.85 L20.5 -22.95 Q20.45 -22.7 20.45 -22.5 L20.45 -22.3 21.5 -21.15 Q21.9 -21.3 21.95 -21.25 L21.95 -21.25 22.0 -21.15 21.95 -21.1 21.95 -21.05 21.75 -20.85 21.8 -20.8 22.25 -21.0 22.3 -21.05 22.65 -21.25 Q23.7 -21.85 24.2 -21.65 24.5 -21.6 24.65 -21.4 L24.75 -21.25 Q24.9 -21.05 25.0 -20.7 25.15 -20.1 25.15 -19.6 25.15 -18.9 24.9 -18.15 24.7 -17.6 24.4 -17.3 L24.45 -17.15 24.5 -17.15 25.0 -16.55 Q25.75 -15.45 25.75 -14.55 L25.7 -14.1 25.6 -14.05 Q25.5 -14.3 25.4 -14.85 25.3 -15.4 25.2 -15.65 25.0 -16.05 24.75 -16.5 L24.85 -15.9 25.0 -14.05 Q25.0 -13.2 24.5 -11.6 24.0 -10.0 23.5 -9.8 L23.4 -9.65 23.35 -9.7 Q23.3 -9.7 23.3 -9.75 L23.3 -9.85 23.35 -10.0 23.3 -10.5 23.25 -10.7 Q23.0 -9.75 22.2 -8.6 21.8 -8.05 21.45 -7.65 21.0 -7.2 20.6 -6.95 21.5 -6.45 22.1 -5.4 22.7 -4.3 22.7 -3.2 L22.65 -2.9 22.55 -2.6 22.55 -2.7 Q22.55 -4.25 21.45 -5.75 L21.55 -5.4 Q21.7 -4.9 21.7 -4.35 21.7 -3.05 20.55 -1.5 20.05 -0.85 19.55 -0.45 18.8 0.25 18.25 0.25 L18.1 0.25 18.1 0.2 18.05 0.2 18.05 0.05 18.2 -0.3 Q18.35 -0.75 18.35 -1.15 18.35 -1.3 18.3 -1.55 L18.15 -1.25 Q17.45 -0.15 17.1 0.55 L17.0 0.55 17.0 0.45 Q17.0 0.3 17.55 -0.8 L17.9 -1.45 Q17.65 -1.05 17.3 -0.75 17.05 -0.5 16.8 -0.3 16.55 -0.1 16.5 -0.1 16.4 -0.1 16.4 -0.2 L16.4 -0.25 16.35 -0.3 16.4 -0.35 16.45 -1.0 Q16.15 -0.7 15.7 -0.35 14.7 0.5 14.15 0.55 L14.15 0.6 Q14.2 0.65 14.1 0.65 14.05 0.65 14.0 0.6 L13.95 0.5 13.95 0.45 Q13.95 0.35 14.05 0.15 L14.15 -0.2 Q14.3 -0.8 14.3 -1.25 14.3 -1.65 14.15 -2.3 14.1 -2.2 13.9 -2.15 L13.25 -2.15 Q12.5 -2.15 12.2 -2.3 L11.65 -2.15 11.8 -2.1 11.3 -2.05 11.0 -2.05 Q10.55 -2.05 10.45 -2.15 10.15 -2.3 9.8 -2.55 L9.75 -2.55 9.75 -2.6 9.6 -2.75 9.65 -2.6 M15.6 -16.9 L15.65 -17.85 15.5 -17.7 15.5 -17.65 15.45 -17.65 14.9 -17.1 14.85 -17.1 Q15.15 -17.05 15.45 -16.9 L15.6 -16.9 M15.4 -15.55 L15.55 -16.55 15.45 -16.6 15.0 -16.7 14.85 -16.7 14.45 -16.65 14.4 -16.55 14.3 -16.45 14.2 -16.3 14.1 -16.15 Q13.6 -15.7 13.2 -15.1 13.0 -14.9 12.8 -14.55 L12.8 -14.45 Q12.65 -14.55 12.5 -14.75 12.35 -14.9 12.15 -15.25 11.85 -15.6 11.5 -16.3 L11.25 -16.3 Q10.65 -16.3 10.15 -16.1 L9.9 -15.9 9.65 -15.75 9.6 -15.7 9.6 -15.65 Q9.35 -15.35 9.35 -15.0 9.35 -14.6 9.5 -14.3 L9.55 -14.2 9.65 -14.05 9.95 -13.65 10.05 -13.45 Q10.2 -13.3 10.2 -13.1 L10.2 -12.95 Q10.2 -12.75 10.0 -12.2 L10.0 -12.15 9.95 -12.05 10.05 -12.15 10.5 -12.5 10.55 -12.55 Q10.5 -12.65 10.45 -12.75 L10.45 -13.3 Q10.35 -13.4 10.3 -13.6 L10.25 -13.6 9.8 -14.95 Q9.85 -15.65 10.4 -15.55 11.05 -15.5 11.9 -14.35 L12.05 -14.25 Q12.15 -14.15 12.2 -14.0 L12.2 -13.7 Q12.2 -13.4 12.15 -13.25 12.1 -13.1 11.95 -12.95 L11.9 -12.85 11.8 -12.8 11.55 -12.75 11.5 -12.75 11.05 -12.6 Q10.8 -12.45 10.5 -12.15 10.15 -11.85 10.05 -11.65 L9.5 -11.15 9.55 -11.1 9.5 -11.1 9.35 -11.05 9.35 -11.0 9.4 -10.95 9.5 -10.7 9.55 -10.65 Q9.85 -10.4 10.0 -10.35 10.3 -10.2 10.85 -10.2 L11.75 -10.3 12.15 -10.35 12.3 -10.4 12.6 -10.4 12.9 -10.45 12.95 -10.45 13.15 -10.4 Q13.7 -10.4 14.05 -10.2 14.15 -10.15 14.25 -10.1 L14.3 -10.1 14.3 -10.15 14.25 -10.25 Q13.95 -11.0 13.3 -12.1 L13.25 -12.15 13.25 -12.2 13.25 -12.25 13.35 -12.2 Q13.85 -11.85 14.2 -10.95 L14.3 -10.65 14.3 -10.6 14.45 -10.35 14.45 -10.25 Q14.6 -9.85 14.65 -9.75 14.75 -9.5 14.8 -9.2 L14.9 -8.7 Q14.9 -8.0 14.2 -7.2 L14.05 -7.1 13.9 -6.9 13.85 -6.9 13.85 -6.85 13.8 -6.8 Q13.4 -6.5 12.9 -6.25 12.15 -5.85 11.15 -5.7 L11.1 -5.65 10.4 -5.6 10.25 -5.6 10.25 -5.55 10.35 -5.25 10.4 -4.7 10.45 -4.45 11.2 -4.35 11.45 -4.35 Q12.1 -4.35 13.3 -4.8 L13.4 -4.8 14.15 -4.9 15.65 -4.8 15.8 -4.8 16.25 -4.7 16.3 -4.65 16.5 -4.6 17.05 -4.4 17.25 -4.35 17.25 -4.4 16.95 -4.9 16.7 -5.4 Q16.5 -5.6 16.35 -5.85 L15.75 -7.1 Q15.2 -8.3 15.2 -8.95 L15.2 -9.1 Q15.3 -8.65 15.5 -8.2 15.8 -7.45 16.3 -6.55 L16.85 -5.6 16.9 -5.5 17.05 -5.25 17.1 -5.15 17.25 -4.95 17.2 -5.0 16.95 -5.75 16.8 -6.35 Q16.8 -6.45 16.8 -6.4 17.05 -6.3 17.3 -5.45 17.5 -4.8 17.55 -4.35 L17.55 -4.15 Q17.55 -3.85 17.5 -3.7 L17.4 -3.7 17.35 -4.1 17.15 -4.1 16.5 -4.0 15.85 -3.8 15.75 -3.75 14.2 -3.2 14.2 -3.25 13.65 -3.0 Q13.1 -2.7 12.7 -2.5 L14.1 -2.55 14.05 -2.85 14.05 -2.9 Q14.05 -3.05 14.15 -2.9 L14.2 -2.9 Q14.3 -2.8 14.35 -2.55 L14.4 -2.35 14.4 -2.3 14.45 -2.2 Q14.55 -1.6 14.55 -1.25 L14.5 -1.0 14.5 -0.9 14.45 -0.65 14.25 0.25 14.4 0.15 15.35 -0.55 15.95 -1.1 16.0 -1.15 16.35 -1.55 16.35 -1.65 16.55 -1.9 16.55 -1.95 16.6 -2.05 Q16.75 -2.45 16.75 -2.8 L16.75 -2.85 16.8 -2.95 Q16.8 -3.1 16.8 -3.05 L16.95 -2.75 17.0 -2.35 Q17.0 -1.75 16.55 -1.15 16.5 -0.7 16.55 -0.45 L17.0 -0.7 17.4 -1.1 17.7 -1.55 17.85 -1.95 18.1 -2.35 Q18.3 -3.0 18.4 -3.65 L18.4 -4.4 18.35 -4.7 Q18.35 -4.8 18.45 -4.85 18.6 -4.45 18.6 -3.6 L18.6 -3.0 Q18.6 -2.55 18.45 -2.05 18.55 -1.9 18.6 -1.65 18.65 -1.25 18.6 -0.9 L18.55 -0.5 18.55 -0.4 19.6 -1.3 Q21.2 -2.8 21.2 -4.2 21.2 -5.4 20.5 -6.4 L20.45 -6.5 20.35 -6.55 20.05 -6.85 20.0 -6.85 19.9 -6.95 19.5 -7.3 19.1 -7.55 19.05 -7.6 18.9 -7.7 18.85 -7.75 Q18.15 -8.25 17.65 -8.85 L17.5 -9.05 Q16.85 -9.7 16.85 -10.3 L16.85 -10.35 Q17.0 -10.25 17.35 -9.75 17.65 -9.2 18.05 -8.95 L18.05 -9.0 18.0 -9.05 Q17.7 -9.75 17.8 -10.75 L17.75 -10.65 17.6 -10.2 17.55 -10.15 17.55 -10.2 17.5 -10.15 17.45 -10.2 17.35 -10.2 17.25 -10.7 17.25 -10.85 Q17.25 -11.5 18.05 -13.0 18.75 -14.4 18.8 -15.55 L18.8 -16.1 18.75 -16.4 18.75 -16.45 Q18.3 -15.9 17.55 -15.35 L17.7 -15.1 Q17.95 -14.75 18.15 -14.15 L18.15 -14.0 18.1 -14.0 18.05 -14.05 18.05 -14.0 18.0 -13.95 17.65 -14.6 17.3 -15.2 16.55 -14.7 16.25 -14.55 Q16.2 -14.5 16.1 -14.5 L15.7 -14.3 15.65 -14.3 16.05 -13.9 16.2 -13.6 16.3 -13.3 16.45 -12.6 16.4 -12.6 16.35 -12.65 Q16.35 -12.4 16.15 -12.0 15.85 -11.55 15.6 -11.55 L15.6 -11.6 15.6 -11.65 15.65 -11.65 Q16.0 -11.95 16.15 -12.3 L16.25 -12.65 16.25 -12.7 16.25 -12.75 16.1 -12.9 16.1 -12.85 16.0 -13.0 15.75 -13.2 15.55 -13.4 Q15.35 -13.6 14.9 -13.85 14.7 -14.0 14.45 -14.1 L13.95 -14.3 13.25 -14.35 13.15 -14.3 13.1 -14.2 13.0 -14.1 12.75 -13.65 Q12.8 -14.0 13.0 -14.4 L13.15 -14.65 Q13.3 -14.75 13.4 -14.75 L13.55 -14.8 13.75 -14.85 13.85 -14.85 Q14.3 -14.95 14.85 -14.75 L15.2 -14.6 15.25 -14.75 15.3 -15.1 15.35 -15.4 15.4 -15.55 M14.3 -10.1 L14.3 -10.1 M23.2 -21.2 L23.1 -21.2 22.4 -20.75 Q21.6 -20.25 21.15 -20.1 L21.05 -20.05 21.25 -19.85 21.7 -19.45 21.9 -19.2 Q22.0 -19.5 22.2 -19.75 L22.35 -19.95 22.45 -20.05 Q22.65 -20.3 22.9 -20.5 L23.3 -20.75 Q23.95 -21.1 24.4 -21.0 L24.55 -21.0 24.5 -21.05 Q24.3 -21.3 24.0 -21.35 L23.9 -21.4 23.85 -21.4 23.2 -21.2 M21.0 -20.05 L20.95 -20.0 21.0 -20.0 21.0 -20.05 M8.3 -21.8 L8.25 -21.1 Q8.25 -20.75 8.35 -20.25 8.4 -19.95 8.45 -19.75 L8.5 -19.8 Q8.7 -20.2 9.0 -20.55 L9.35 -21.1 Q9.65 -21.5 10.0 -21.8 L9.5 -22.25 Q8.95 -22.75 8.7 -22.75 8.6 -22.7 8.5 -22.6 8.4 -22.35 8.3 -21.8 M8.35 -19.55 L8.4 -19.6 8.35 -19.6 8.35 -19.55 M11.4 -16.55 L11.2 -16.9 11.2 -16.95 11.05 -16.6 11.35 -16.55 11.4 -16.5 11.4 -16.55 M10.9 -14.2 L10.9 -14.2 M10.95 -13.5 L10.9 -13.65 Q10.7 -13.8 10.7 -14.1 10.7 -14.5 10.95 -14.6 L11.1 -14.6 Q10.8 -14.8 10.45 -14.8 10.35 -14.75 10.35 -14.5 L10.35 -14.45 Q10.35 -14.25 10.45 -13.8 L10.5 -13.55 10.5 -13.5 10.6 -13.4 10.65 -13.25 10.8 -12.95 10.8 -12.9 Q10.7 -12.95 10.6 -13.05 10.6 -12.75 10.65 -12.6 L10.9 -12.7 10.95 -12.75 11.0 -12.75 11.3 -12.95 11.5 -13.05 Q11.4 -13.05 11.3 -13.1 L11.25 -13.15 Q11.2 -13.2 11.15 -13.25 L11.1 -13.25 11.05 -13.4 11.0 -13.4 10.95 -13.5 M11.4 -13.8 Q11.6 -13.7 11.6 -13.55 L11.6 -13.45 Q11.55 -13.4 11.5 -13.4 11.35 -13.4 11.25 -13.55 L11.2 -13.7 Q11.2 -13.9 11.4 -13.8 M12.1 -13.4 L12.1 -13.65 11.95 -13.85 11.75 -14.05 Q11.45 -14.25 11.15 -14.25 11.05 -14.2 11.0 -14.1 10.95 -14.0 10.95 -13.9 10.95 -13.7 11.1 -13.45 11.25 -13.25 11.5 -13.15 11.65 -13.05 11.9 -13.05 L12.0 -13.15 12.05 -13.3 12.1 -13.4 M12.0 -10.2 L11.75 -10.15 10.85 -10.05 Q10.0 -10.05 9.55 -10.45 L9.4 -10.6 9.25 -10.8 9.15 -10.9 Q7.95 -10.1 7.65 -9.8 L7.45 -9.55 Q7.3 -9.3 7.3 -9.1 7.3 -9.05 7.3 -9.0 L7.3 -8.85 Q7.3 -8.5 7.4 -8.15 L7.45 -8.05 7.5 -7.9 Q7.65 -7.65 7.85 -7.35 L7.9 -7.35 8.05 -7.2 8.3 -6.9 8.4 -6.8 8.4 -6.75 8.5 -6.7 8.65 -6.55 Q9.05 -6.25 9.4 -6.1 L9.6 -5.95 10.05 -5.95 11.1 -6.05 Q10.95 -6.15 10.85 -6.4 10.75 -6.65 10.75 -6.95 10.75 -7.55 11.25 -8.1 11.7 -8.65 12.4 -8.9 13.05 -9.15 13.5 -8.95 13.85 -8.8 13.95 -8.5 14.05 -8.3 14.05 -8.0 L14.05 -7.65 14.0 -7.55 14.0 -7.5 14.1 -7.6 Q14.45 -8.0 14.6 -8.35 14.6 -8.95 14.45 -9.55 L14.35 -9.75 14.25 -9.85 Q13.8 -10.25 12.95 -10.25 L12.9 -10.25 12.25 -10.2 12.0 -10.2 M8.25 -4.05 L7.95 -4.35 7.75 -4.6 Q7.35 -5.1 7.35 -5.2 L7.9 -6.05 8.1 -6.35 Q7.8 -6.55 7.55 -6.9 L7.25 -7.25 7.2 -7.15 7.2 -7.1 7.0 -6.8 6.75 -6.45 Q6.1 -5.4 6.1 -4.25 6.1 -3.95 6.15 -3.7 6.2 -3.35 6.35 -3.0 6.6 -2.3 7.05 -1.85 L6.95 -2.35 Q6.85 -2.6 6.75 -3.0 6.6 -3.7 6.6 -4.05 6.6 -4.35 6.65 -4.5 6.7 -4.6 6.75 -4.65 L6.9 -3.95 6.95 -3.75 7.05 -3.4 7.15 -3.2 7.4 -2.6 Q7.7 -1.95 7.85 -1.75 L8.15 -1.45 8.3 -1.35 8.45 -1.2 Q8.75 -0.95 9.4 -0.7 L9.75 -0.55 10.0 -0.5 Q9.85 -0.75 9.65 -1.4 L9.45 -2.1 9.4 -2.45 9.3 -3.0 8.7 -3.6 8.25 -4.0 8.25 -4.05 M12.65 -8.75 L12.6 -8.75 Q12.1 -8.6 11.6 -8.15 L11.55 -8.1 11.4 -7.85 Q11.15 -7.4 11.1 -7.05 L11.1 -6.9 Q11.1 -6.65 11.2 -6.45 L11.3 -6.3 11.5 -6.15 11.55 -6.15 12.2 -6.7 Q12.5 -7.05 12.65 -7.35 L12.85 -7.95 12.85 -8.0 12.85 -8.1 12.65 -8.75 M9.05 -5.6 L9.3 -5.2 9.35 -5.2 9.35 -5.15 9.5 -4.95 9.6 -4.85 10.0 -4.6 Q10.1 -4.55 10.2 -4.55 L10.3 -4.5 10.35 -4.5 10.3 -4.6 10.25 -4.65 10.3 -4.7 10.3 -4.75 10.2 -4.8 10.2 -4.9 Q10.1 -5.2 10.1 -5.4 L10.1 -5.6 9.95 -5.6 Q9.3 -5.65 8.9 -5.9 L8.85 -5.95 9.05 -5.6 M9.65 -4.55 L9.55 -4.6 Q9.4 -4.65 9.3 -4.75 L9.05 -5.0 Q8.45 -5.65 8.4 -6.1 L8.4 -6.15 Q8.3 -5.9 7.8 -5.35 L7.85 -5.35 7.9 -5.2 8.0 -5.0 8.4 -4.5 8.65 -4.2 8.9 -3.95 8.95 -3.95 9.0 -3.9 9.25 -3.6 9.45 -3.4 9.55 -3.35 9.6 -3.3 Q9.9 -3.0 10.25 -2.75 10.55 -2.6 10.85 -2.45 L11.1 -2.45 Q11.3 -2.45 12.0 -2.65 L12.25 -2.75 Q12.75 -2.95 13.5 -3.35 14.15 -3.7 14.95 -3.95 L15.4 -4.1 15.85 -4.2 16.1 -4.25 16.2 -4.3 16.35 -4.3 16.2 -4.45 16.15 -4.45 Q15.65 -4.7 14.8 -4.7 L14.75 -4.7 13.75 -4.55 13.55 -4.5 12.05 -4.2 11.05 -4.15 Q10.4 -4.15 10.0 -4.3 9.85 -4.35 9.75 -4.45 L9.65 -4.55 M8.45 -6.1 L8.45 -6.1 M7.3 -2.3 L7.2 -2.55 7.25 -2.4 7.3 -2.3 M13.05 -13.9 L13.15 -14.0 Q13.25 -14.1 13.45 -14.15 L14.15 -14.0 14.2 -13.95 14.35 -13.9 14.55 -13.85 14.7 -13.7 14.9 -13.6 15.15 -13.45 15.2 -13.45 Q15.45 -13.2 15.5 -13.1 L15.55 -13.0 15.6 -12.95 15.6 -12.7 15.55 -12.75 15.55 -12.65 Q15.55 -12.5 15.35 -12.35 L15.3 -12.3 Q15.15 -12.25 15.0 -12.2 L14.55 -12.15 14.25 -12.15 14.0 -12.2 Q13.85 -12.25 13.75 -12.35 L13.7 -12.35 13.8 -12.25 Q14.35 -11.7 15.55 -11.75 L15.4 -11.65 15.35 -11.55 Q14.45 -11.45 13.8 -12.0 13.4 -12.35 13.35 -12.55 13.2 -12.6 13.15 -12.75 L13.1 -12.85 13.0 -13.0 Q12.9 -13.2 12.9 -13.4 L12.9 -13.6 12.95 -13.55 12.95 -13.6 13.05 -13.9 M15.45 -12.7 L15.45 -12.85 Q15.15 -13.1 14.85 -13.35 14.25 -13.75 13.85 -13.85 L13.5 -13.85 Q13.15 -13.75 13.15 -13.25 13.15 -13.05 13.45 -12.7 13.9 -12.25 14.55 -12.25 15.05 -12.25 15.3 -12.45 15.45 -12.6 15.45 -12.7 M13.6 -13.4 Q13.85 -13.3 13.85 -13.1 L13.85 -12.95 Q13.8 -12.9 13.7 -12.9 13.55 -12.9 13.45 -13.1 L13.4 -13.25 Q13.4 -13.5 13.6 -13.4 M13.0 -8.55 L13.0 -7.95 Q13.0 -7.55 12.75 -7.1 L12.55 -6.75 12.3 -6.45 Q12.75 -6.65 13.2 -6.95 L13.6 -7.2 13.7 -7.4 13.8 -7.5 13.85 -7.8 Q13.85 -8.2 13.8 -8.35 13.7 -8.55 13.55 -8.7 13.3 -8.75 13.0 -8.75 L12.9 -8.75 Q12.95 -8.7 13.0 -8.55" fill="#000000" fill-rule="evenodd" stroke="none"/>
    <path d="M14.05 -7.1 L14.2 -7.2 14.05 -7.1 M24.4 -21.0 L24.5 -21.05 24.55 -21.0 24.4 -21.0 M11.35 -16.55 L11.35 -16.5 11.4 -16.55 11.4 -16.5 11.35 -16.55" fill="#c8ac59" fill-rule="evenodd" stroke="none"/>
    <path d="M21.25 -21.05 L21.3 -21.05 21.2 -21.0 20.95 -20.85 21.25 -21.05" fill="#c87a59" fill-rule="evenodd" stroke="none"/>
    <path d="M7.3 -9.0 Q7.3 -9.05 7.3 -9.1 7.3 -9.3 7.45 -9.55 L7.65 -9.8 Q7.95 -10.1 9.15 -10.9 L9.25 -10.8 9.4 -10.6 9.55 -10.45 Q10.0 -10.05 10.85 -10.05 L11.75 -10.15 12.0 -10.2 11.7 -9.85 11.15 -9.1 Q10.95 -8.7 10.7 -8.35 10.25 -7.8 9.55 -7.8 9.1 -7.8 8.25 -8.4 7.45 -9.0 7.35 -9.0 L7.3 -9.0" fill="#8a6a57" fill-rule="evenodd" stroke="none"/>
    <path d="M11.05 -12.6 L11.5 -12.75 11.55 -12.75 11.45 -12.65 Q11.35 -12.6 11.15 -12.6 L11.05 -12.6 M11.8 -12.8 L11.9 -12.85 11.9 -12.8 11.8 -12.8" fill="#c98950" fill-rule="evenodd" stroke="none"/>
    <path d="M18.15 -22.8 L18.15 -22.6 18.1 -22.75 18.15 -22.8 M10.7 -18.55 Q10.55 -18.65 10.55 -18.75 10.55 -18.85 10.65 -19.0 L10.7 -18.55 M21.2 -19.55 L21.3 -19.5 21.6 -19.2 21.6 -19.15 21.2 -19.55 M22.35 -17.25 L22.35 -17.25 M18.9 -16.55 L18.85 -16.6 18.95 -16.75 19.0 -16.7 18.9 -16.55" fill="#cd524b" fill-rule="evenodd" stroke="none"/>
    <path d="M22.55 -17.5 L22.55 -17.55 22.5 -17.6 22.5 -17.7 22.45 -17.85 22.45 -17.95 22.3 -18.4 22.1 -18.9 Q22.2 -19.3 22.3 -19.5 L22.5 -19.9 22.85 -19.95 Q23.25 -19.95 23.55 -19.65 23.9 -19.3 23.9 -18.7 23.9 -18.4 23.7 -18.05 23.35 -17.5 22.8 -17.5 L22.55 -17.5" fill="#c16f46" fill-rule="evenodd" stroke="none"/>
    <path d="M13.0 -14.1 L13.1 -14.2 13.15 -14.3 13.25 -14.35 13.95 -14.3 14.45 -14.1 Q14.7 -14.0 14.9 -13.85 15.35 -13.6 15.55 -13.4 L15.75 -13.2 15.7 -13.15 15.65 -13.05 15.6 -13.1 15.55 -13.0 15.5 -13.1 Q15.45 -13.2 15.2 -13.45 L15.15 -13.45 14.9 -13.6 14.7 -13.7 14.55 -13.85 14.35 -13.9 14.2 -13.95 14.15 -14.0 13.45 -14.15 Q13.25 -14.1 13.15 -14.0 L13.05 -13.9 12.95 -13.75 13.0 -14.1 M14.3 -10.6 L14.3 -10.65 14.2 -10.95 Q13.85 -11.85 13.35 -12.2 13.7 -12.15 14.05 -11.4 L14.3 -10.6 M14.3 -10.1 L14.3 -10.1 M22.9 -20.5 L22.9 -20.6 Q22.9 -21.0 23.2 -21.2 L23.85 -21.4 24.0 -21.35 Q24.3 -21.3 24.5 -21.05 L24.4 -21.0 Q23.95 -21.1 23.3 -20.75 L22.9 -20.5 M10.5 -13.55 L10.45 -13.8 Q10.35 -14.25 10.35 -14.45 L10.35 -14.5 Q10.35 -14.75 10.45 -14.8 10.8 -14.8 11.1 -14.6 L10.95 -14.6 Q10.7 -14.5 10.7 -14.1 10.7 -13.8 10.9 -13.65 L10.95 -13.5 Q10.85 -13.6 10.7 -13.6 L10.5 -13.55 M10.9 -14.2 L10.9 -14.2 M11.3 -13.1 Q11.4 -13.05 11.5 -13.05 L11.3 -12.95 11.4 -13.0 11.35 -13.1 11.3 -13.1" fill="#b9554a" fill-rule="evenodd" stroke="none"/>
    <path d="M7.3 -9.0 L7.35 -9.0 Q7.45 -9.0 8.25 -8.4 9.1 -7.8 9.55 -7.8 10.25 -7.8 10.7 -8.35 10.95 -8.7 11.15 -9.1 L11.7 -9.85 12.0 -10.2 12.25 -10.2 12.9 -10.25 12.95 -10.25 Q13.8 -10.25 14.25 -9.85 L14.35 -9.75 14.45 -9.55 Q14.6 -8.95 14.6 -8.35 14.45 -8.0 14.1 -7.6 L14.0 -7.5 14.0 -7.55 14.05 -7.65 14.05 -8.0 Q14.05 -8.3 13.95 -8.5 13.85 -8.8 13.5 -8.95 13.05 -9.15 12.4 -8.9 11.7 -8.65 11.25 -8.1 10.75 -7.55 10.75 -6.95 10.75 -6.65 10.85 -6.4 10.95 -6.15 11.1 -6.05 L10.05 -5.95 9.6 -5.95 9.4 -6.1 Q9.05 -6.25 8.65 -6.55 L8.5 -6.7 8.4 -6.75 8.4 -6.8 8.3 -6.9 8.05 -7.2 7.9 -7.35 7.85 -7.35 Q7.65 -7.65 7.5 -7.9 L7.45 -8.05 7.4 -8.15 Q7.3 -8.5 7.3 -8.85 L7.3 -9.0" fill="#8a5453" fill-rule="evenodd" stroke="none"/>
    <path d="M11.1 -7.05 Q11.3 -6.85 11.8 -6.85 12.25 -6.85 12.6 -7.25 L12.65 -7.35 Q12.5 -7.05 12.2 -6.7 L11.55 -6.15 11.5 -6.15 11.3 -6.3 11.2 -6.45 Q11.1 -6.65 11.1 -6.9 L11.1 -7.05 M12.85 -8.0 L12.85 -8.1 12.85 -8.0" fill="#663f3e" fill-rule="evenodd" stroke="none"/>
    <path d="M11.1 -7.05 Q11.15 -7.4 11.4 -7.85 L11.55 -8.1 11.6 -8.15 Q12.1 -8.6 12.6 -8.75 L12.65 -8.75 12.85 -8.1 12.85 -8.0 12.85 -7.95 12.65 -7.35 12.6 -7.25 Q12.25 -6.85 11.8 -6.85 11.3 -6.85 11.1 -7.05" fill="#563e3a" fill-rule="evenodd" stroke="none"/>
    <path d="M13.0 -8.55 Q12.95 -8.7 12.9 -8.75 L13.0 -8.75 Q13.3 -8.75 13.55 -8.7 13.7 -8.55 13.8 -8.35 13.85 -8.2 13.85 -7.8 L13.8 -7.5 13.7 -7.4 13.6 -7.2 13.2 -6.95 Q12.75 -6.65 12.3 -6.45 L12.55 -6.75 12.75 -7.1 Q13.0 -7.55 13.0 -7.95 L13.0 -8.55" fill="#6f4342" fill-rule="evenodd" stroke="none"/>
    <path d="M14.2 -16.3 L14.9 -15.85 15.4 -15.55 15.35 -15.4 15.3 -15.1 15.25 -14.75 15.2 -14.6 14.85 -14.75 Q14.3 -14.95 13.85 -14.85 L13.75 -14.85 13.55 -14.8 13.4 -14.75 Q13.3 -14.75 13.15 -14.65 L13.0 -14.4 Q12.8 -14.0 12.75 -13.65 L13.0 -14.1 12.95 -13.75 13.05 -13.9 12.95 -13.6 12.95 -13.55 12.9 -13.6 12.9 -13.4 Q12.9 -13.2 13.0 -13.0 L13.1 -12.85 13.15 -12.75 Q13.2 -12.6 13.35 -12.55 13.4 -12.35 13.8 -12.0 14.45 -11.45 15.35 -11.55 L15.4 -11.65 Q15.55 -11.65 15.65 -11.7 L15.65 -11.65 15.6 -11.65 15.55 -11.6 15.4 -11.5 Q15.8 -11.05 15.8 -10.3 15.8 -9.9 15.75 -9.65 L15.6 -8.8 15.5 -8.2 Q15.3 -8.65 15.2 -9.1 L15.2 -8.95 Q15.2 -8.3 15.75 -7.1 L16.35 -5.85 Q16.5 -5.6 16.7 -5.4 L16.95 -4.9 16.9 -4.85 Q16.8 -4.7 16.6 -4.7 L16.55 -4.7 16.5 -4.6 16.3 -4.65 16.25 -4.7 15.8 -4.8 15.65 -4.8 14.15 -4.9 13.4 -4.8 13.3 -4.8 Q12.1 -4.35 11.45 -4.35 L11.2 -4.35 10.45 -4.45 10.4 -4.7 10.35 -5.25 10.25 -5.55 10.25 -5.6 10.4 -5.6 11.1 -5.65 11.15 -5.7 Q12.15 -5.85 12.9 -6.25 13.4 -6.5 13.8 -6.8 L13.85 -6.85 13.85 -6.9 13.9 -6.9 14.05 -7.1 14.2 -7.2 Q14.9 -8.0 14.9 -8.7 L14.8 -9.2 Q14.75 -9.5 14.65 -9.75 14.6 -9.85 14.45 -10.25 L14.45 -10.35 14.3 -10.6 14.05 -11.4 Q13.7 -12.15 13.35 -12.2 L13.25 -12.25 13.25 -12.2 Q13.05 -12.15 13.0 -11.85 L13.0 -11.4 Q12.9 -11.2 12.7 -10.9 12.55 -10.65 12.55 -10.45 L12.6 -10.4 12.3 -10.4 12.15 -10.35 11.75 -10.3 10.85 -10.2 Q10.3 -10.2 10.0 -10.35 9.85 -10.4 9.55 -10.65 L9.5 -10.7 9.4 -10.95 9.35 -11.0 9.35 -11.05 9.5 -11.1 9.55 -11.1 9.5 -11.15 10.05 -11.65 Q10.15 -11.85 10.5 -12.15 10.8 -12.45 11.05 -12.6 L11.15 -12.6 Q11.35 -12.6 11.45 -12.65 L11.55 -12.75 11.8 -12.8 11.9 -12.8 11.9 -12.85 11.95 -12.95 Q12.1 -13.1 12.15 -13.25 12.2 -13.4 12.2 -13.7 L12.2 -14.0 Q12.15 -14.15 12.05 -14.25 L11.9 -14.35 Q11.05 -15.5 10.4 -15.55 9.85 -15.65 9.8 -14.95 L10.25 -13.6 10.3 -13.6 Q10.35 -13.4 10.45 -13.3 L10.45 -12.75 Q10.5 -12.65 10.55 -12.55 L10.5 -12.5 10.05 -12.15 9.95 -12.05 10.0 -12.15 10.0 -12.2 Q10.2 -12.75 10.2 -12.95 L10.2 -13.1 Q10.2 -13.3 10.05 -13.45 L9.95 -13.65 9.65 -14.05 9.55 -14.2 9.5 -14.3 Q9.35 -14.6 9.35 -15.0 9.35 -15.35 9.6 -15.65 L9.6 -15.7 9.65 -15.75 9.9 -15.9 10.15 -16.1 Q10.65 -16.3 11.25 -16.3 L11.5 -16.3 Q11.85 -15.6 12.15 -15.25 12.35 -14.9 12.5 -14.75 12.65 -14.55 12.8 -14.45 L12.8 -14.55 Q13.0 -14.9 13.2 -15.1 13.6 -15.7 14.1 -16.15 L14.2 -16.3 M16.05 -13.9 L15.65 -14.3 15.7 -14.3 16.1 -14.5 Q16.05 -14.25 16.05 -13.9 M14.55 -1.25 Q14.55 -1.6 14.45 -2.2 L14.4 -2.3 14.4 -2.35 14.35 -2.55 Q14.3 -2.8 14.2 -2.9 L14.15 -2.9 Q14.05 -3.05 14.05 -2.9 L14.05 -2.85 14.1 -2.55 12.7 -2.5 Q13.1 -2.7 13.65 -3.0 L14.2 -3.25 14.2 -3.2 15.75 -3.75 15.85 -3.8 15.75 -3.55 Q15.65 -3.2 15.6 -2.7 15.55 -2.45 14.55 -1.3 L14.55 -1.25 M14.3 -10.15 L14.3 -10.1 14.25 -10.1 14.3 -10.15 M23.2 -21.2 Q22.9 -21.0 22.9 -20.6 L22.9 -20.5 Q22.65 -20.3 22.45 -20.05 L22.35 -19.95 22.2 -19.75 Q22.0 -19.5 21.9 -19.2 L21.7 -19.45 21.25 -19.85 21.05 -20.05 21.15 -20.1 Q21.6 -20.25 22.4 -20.75 L23.1 -21.2 23.2 -21.2 M21.0 -20.05 L21.0 -20.0 20.95 -20.0 21.0 -20.05 M8.3 -21.8 Q8.4 -22.35 8.5 -22.6 8.6 -22.7 8.7 -22.75 8.95 -22.75 9.5 -22.25 L10.0 -21.8 Q9.65 -21.5 9.35 -21.1 L9.0 -20.55 Q8.7 -20.2 8.5 -19.8 L8.45 -19.75 Q8.4 -19.95 8.35 -20.25 8.25 -20.75 8.25 -21.1 L8.3 -21.8 M12.0 -13.15 L12.1 -13.4 12.05 -13.3 12.0 -13.15 M6.15 -3.7 Q6.1 -3.95 6.1 -4.25 6.1 -5.4 6.75 -6.45 L7.0 -6.8 7.2 -7.1 7.2 -7.15 7.25 -7.25 7.55 -6.9 Q7.8 -6.55 8.1 -6.35 L7.9 -6.05 7.35 -5.2 Q7.35 -5.1 7.75 -4.6 L7.95 -4.35 8.25 -4.05 Q8.1 -3.65 8.1 -2.55 8.1 -1.75 8.15 -1.45 L7.85 -1.75 Q7.7 -1.95 7.4 -2.6 L7.15 -3.2 7.05 -3.4 6.95 -3.75 6.9 -3.95 6.75 -4.65 Q6.7 -4.6 6.65 -4.5 6.6 -4.5 6.5 -4.45 6.2 -4.15 6.15 -3.7 M9.05 -5.6 L8.85 -5.95 8.9 -5.9 Q9.3 -5.65 9.95 -5.6 L10.1 -5.6 10.1 -5.4 Q10.1 -5.2 10.2 -4.9 L10.2 -4.8 10.3 -4.75 10.3 -4.7 10.25 -4.65 10.3 -4.6 10.35 -4.5 10.3 -4.5 10.2 -4.55 Q10.1 -4.55 10.0 -4.6 L9.6 -4.85 9.5 -4.95 9.35 -5.15 9.35 -5.2 9.3 -5.2 9.05 -5.6 M15.85 -11.9 L15.85 -11.9" fill="#bf8059" fill-rule="evenodd" stroke="none"/>
    <path d="M18.15 -22.8 L18.3 -22.95 18.25 -22.95 18.3 -23.1 Q18.3 -23.25 18.2 -23.25 L18.05 -23.6 18.0 -23.65 Q17.7 -24.2 17.15 -24.75 L16.9 -25.0 17.1 -25.0 17.6 -24.95 17.9 -24.8 18.0 -24.7 Q19.05 -23.5 19.05 -22.4 18.75 -20.8 18.25 -19.3 17.25 -16.45 16.05 -16.25 L15.65 -15.7 15.8 -16.3 15.85 -16.6 15.9 -16.75 15.85 -16.75 15.9 -17.45 15.9 -17.85 Q15.95 -18.05 15.9 -18.1 16.25 -18.4 16.25 -18.45 16.25 -18.55 16.2 -18.55 L15.7 -18.25 Q15.8 -18.5 15.8 -18.75 L15.55 -19.0 Q15.15 -18.7 14.0 -17.9 12.3 -16.7 11.95 -16.7 11.75 -16.7 11.55 -16.9 L11.4 -17.2 11.15 -17.85 Q11.05 -18.1 11.0 -18.35 L11.0 -18.4 Q10.7 -19.1 10.7 -19.35 L10.7 -19.55 Q10.65 -19.3 10.65 -19.05 L10.65 -19.0 Q10.55 -18.85 10.55 -18.75 10.55 -18.65 10.7 -18.55 L10.7 -18.4 10.75 -18.25 Q10.6 -17.85 9.95 -16.85 L9.5 -16.1 Q8.9 -15.6 8.9 -14.9 L8.9 -14.85 8.95 -14.7 Q8.95 -14.55 9.0 -14.45 L8.95 -13.65 Q8.85 -12.9 8.6 -12.55 L8.55 -12.65 Q8.2 -13.55 8.2 -14.3 8.2 -15.15 8.45 -15.9 8.7 -16.7 9.3 -17.5 L9.25 -17.55 Q8.65 -17.25 8.2 -16.0 8.0 -15.35 8.0 -14.3 8.0 -13.95 8.05 -13.6 7.9 -14.0 7.85 -14.4 L7.85 -15.1 Q7.85 -15.7 7.9 -16.15 8.15 -17.4 9.0 -18.55 9.25 -18.9 9.85 -19.6 10.25 -20.05 10.25 -20.2 10.25 -20.3 10.2 -20.3 9.55 -20.0 8.9 -19.1 L8.75 -18.95 Q8.35 -18.5 8.1 -18.05 L8.25 -18.55 Q8.6 -19.45 9.15 -20.35 9.5 -20.85 9.85 -21.25 L9.95 -21.4 10.3 -21.7 10.75 -22.1 Q11.55 -22.7 12.4 -22.7 L12.45 -22.7 13.3 -22.45 Q13.4 -22.45 13.4 -22.5 L13.35 -22.55 13.35 -22.6 13.3 -22.6 Q13.0 -22.85 12.5 -22.95 L12.4 -22.95 12.05 -23.05 11.35 -23.1 10.7 -23.05 10.85 -23.2 Q11.75 -23.75 13.0 -23.75 L13.7 -23.7 14.4 -23.5 15.3 -23.15 Q16.7 -22.55 17.3 -22.55 17.7 -22.55 17.95 -22.7 L18.0 -22.75 18.1 -22.75 18.15 -22.6 18.15 -22.8 M18.85 -8.35 L18.3 -8.75 18.25 -8.8 18.25 -9.0 18.2 -8.95 18.2 -9.05 18.05 -9.7 Q18.05 -9.8 18.05 -10.0 L18.05 -10.2 Q18.05 -10.4 18.1 -10.9 L18.15 -11.35 18.2 -11.55 18.45 -12.0 Q19.05 -13.15 19.1 -13.8 L19.05 -13.85 18.7 -13.05 Q18.5 -12.5 18.3 -12.15 L17.8 -11.3 Q17.6 -11.0 17.5 -10.75 L17.5 -10.85 Q17.65 -11.75 18.35 -13.1 L18.45 -13.25 18.45 -13.3 Q18.95 -14.3 18.95 -15.1 L19.05 -15.75 Q19.05 -16.05 18.9 -16.55 L19.0 -16.7 18.95 -16.75 Q19.35 -17.35 19.35 -17.9 L19.35 -18.05 19.3 -18.05 18.95 -17.4 Q19.0 -17.95 19.2 -18.05 19.45 -18.2 19.85 -17.7 20.25 -17.25 20.5 -16.45 20.8 -15.65 20.8 -14.85 20.75 -13.15 20.45 -11.55 19.95 -8.5 18.85 -8.35" fill="#b45749" fill-rule="evenodd" stroke="none"/>
    <path d="M8.6 -12.55 Q8.85 -12.9 8.95 -13.65 L9.0 -14.45 Q9.1 -14.2 9.35 -13.95 9.75 -13.45 9.75 -12.9 9.75 -12.5 9.5 -11.95 9.25 -11.55 9.2 -11.45 8.85 -11.9 8.6 -12.55 M9.5 -16.1 L9.95 -16.85 Q10.6 -17.85 10.75 -18.25 L10.85 -17.9 10.9 -17.7 10.95 -17.6 10.95 -17.5 11.05 -17.25 Q11.0 -16.95 10.7 -16.7 9.95 -16.45 9.5 -16.1 M11.55 -16.9 Q11.75 -16.7 11.95 -16.7 12.3 -16.7 14.0 -17.9 15.15 -18.7 15.55 -19.0 L15.8 -18.75 Q15.8 -18.5 15.7 -18.25 15.15 -17.85 14.25 -16.85 13.0 -15.45 12.8 -14.85 12.0 -15.9 11.55 -16.9 M15.65 -15.7 L16.05 -16.25 Q17.25 -16.45 18.25 -19.3 18.75 -20.8 19.05 -22.4 19.05 -23.5 18.0 -24.7 L17.9 -24.8 18.4 -24.45 Q18.8 -24.1 19.0 -23.8 L19.1 -23.55 19.25 -23.05 19.3 -22.7 19.3 -22.6 Q19.3 -21.95 19.4 -21.7 L19.45 -21.75 19.5 -22.75 19.55 -22.8 Q19.9 -23.4 20.35 -23.8 20.6 -24.0 20.85 -24.15 20.55 -23.65 20.45 -23.4 20.2 -22.95 20.2 -22.65 L20.2 -22.5 Q20.2 -22.1 20.5 -21.8 L21.25 -21.05 20.95 -20.85 Q20.5 -20.6 20.35 -20.45 L20.35 -20.4 Q20.2 -20.25 20.2 -20.15 L20.2 -20.05 20.25 -20.05 20.8 -20.5 20.85 -20.5 21.0 -20.6 21.35 -20.8 21.4 -20.8 21.45 -20.85 21.6 -20.9 21.4 -20.75 21.05 -20.45 Q20.7 -20.2 20.7 -20.1 L20.7 -20.05 20.6 -20.05 20.65 -20.0 20.55 -19.9 20.6 -19.9 20.7 -19.95 20.75 -19.9 20.8 -19.95 21.15 -19.6 21.2 -19.6 21.2 -19.55 21.6 -19.15 21.8 -18.9 21.8 -18.85 22.1 -18.25 Q22.2 -17.9 22.35 -17.25 L22.2 -17.4 22.05 -17.6 22.0 -17.6 21.95 -17.65 Q21.45 -18.15 21.2 -18.1 L21.15 -18.05 21.5 -17.8 21.5 -17.75 21.8 -17.45 21.8 -17.25 Q21.8 -16.95 22.05 -16.45 L22.15 -16.3 Q22.4 -15.75 22.7 -15.55 L22.85 -15.5 22.7 -15.65 22.8 -15.6 22.85 -15.65 Q22.4 -16.05 22.2 -16.6 L22.05 -16.95 22.0 -17.2 22.5 -16.55 22.6 -16.3 22.65 -16.3 22.65 -16.35 Q22.7 -16.25 22.75 -16.25 L22.8 -16.2 Q22.85 -16.2 22.85 -16.25 L22.85 -16.4 22.8 -16.5 22.65 -17.0 22.55 -17.5 22.8 -17.5 Q23.35 -17.5 23.7 -18.05 23.9 -18.4 23.9 -18.7 23.9 -19.3 23.55 -19.65 23.25 -19.95 22.85 -19.95 L22.5 -19.9 22.55 -19.95 Q23.15 -20.85 24.1 -20.85 24.5 -20.85 24.7 -20.75 L24.75 -20.65 24.75 -20.55 Q24.9 -19.95 24.9 -19.65 24.9 -18.8 24.25 -17.95 L23.7 -17.3 Q23.4 -17.05 22.95 -16.9 L23.0 -16.9 23.0 -16.85 23.1 -16.8 23.2 -16.8 Q23.75 -16.8 24.2 -17.1 L24.35 -16.4 Q24.65 -15.45 24.65 -14.55 24.65 -13.2 23.95 -11.4 L23.6 -10.5 23.55 -10.65 23.55 -11.35 Q23.55 -11.55 23.45 -12.1 L23.45 -12.15 Q23.4 -12.85 23.25 -13.15 L23.1 -13.65 Q23.0 -14.25 22.7 -14.75 L22.6 -14.85 22.55 -15.0 22.55 -14.95 Q22.35 -15.2 22.35 -14.95 L22.65 -14.1 22.7 -13.75 23.0 -12.4 Q23.0 -11.7 22.9 -11.1 22.75 -10.45 22.4 -9.7 22.0 -8.8 21.5 -8.3 L20.65 -7.6 20.25 -7.25 20.15 -7.35 Q21.75 -8.9 21.75 -11.65 21.75 -13.25 21.35 -13.3 L21.45 -12.55 21.55 -11.65 Q21.55 -11.2 21.45 -10.55 21.35 -9.85 21.2 -9.45 20.9 -8.75 20.4 -7.95 L20.05 -7.4 19.1 -8.2 18.85 -8.35 Q19.95 -8.5 20.45 -11.55 20.75 -13.15 20.8 -14.85 20.8 -15.65 20.5 -16.45 20.25 -17.25 19.85 -17.7 19.45 -18.2 19.2 -18.05 19.0 -17.95 18.95 -17.4 L18.75 -17.1 18.65 -16.9 18.6 -16.85 18.55 -16.9 18.55 -16.8 Q18.15 -16.25 17.8 -15.95 17.6 -15.75 17.4 -15.6 L17.4 -15.55 17.25 -15.45 Q16.45 -14.85 15.45 -14.5 L15.65 -15.7 M10.5 -13.55 L10.7 -13.6 Q10.85 -13.6 10.95 -13.5 L11.0 -13.4 10.95 -13.4 Q10.75 -13.35 10.65 -13.25 L10.6 -13.4 10.5 -13.5 10.5 -13.55" fill="#974642" fill-rule="evenodd" stroke="none"/>
    <path d="M15.75 -13.2 L16.0 -13.0 16.1 -12.85 16.1 -12.9 16.25 -12.75 16.25 -12.7 16.25 -12.65 16.15 -12.3 Q16.0 -11.95 15.65 -11.65 L15.65 -11.7 Q15.55 -11.65 15.4 -11.65 L15.55 -11.75 Q14.35 -11.7 13.8 -12.25 L13.7 -12.35 13.75 -12.35 Q13.85 -12.25 14.0 -12.2 L14.25 -12.15 14.55 -12.15 15.0 -12.2 Q15.15 -12.25 15.3 -12.3 L15.35 -12.35 Q15.55 -12.5 15.55 -12.65 L15.55 -12.75 15.6 -12.7 15.6 -12.95 15.55 -13.0 15.6 -13.1 15.65 -13.05 15.7 -13.15 15.75 -13.2 M11.0 -13.4 L11.05 -13.4 11.1 -13.25 11.15 -13.25 Q11.2 -13.2 11.25 -13.15 L11.3 -13.1 11.35 -13.1 11.4 -13.0 11.3 -12.95 11.0 -12.75 10.95 -12.75 10.9 -12.7 10.65 -12.6 Q10.6 -12.75 10.6 -13.05 10.7 -12.95 10.8 -12.9 L10.8 -12.95 10.65 -13.25 Q10.75 -13.35 10.95 -13.4 L11.0 -13.4 M15.85 -11.9 L15.85 -11.9 M15.6 -11.6 L15.6 -11.6" fill="#803a37" fill-rule="evenodd" stroke="none"/>
    <path d="M15.6 -16.9 L15.45 -16.9 Q15.15 -17.05 14.85 -17.1 L14.9 -17.1 15.45 -17.65 15.5 -17.65 15.5 -17.7 15.65 -17.85 15.6 -16.9 M14.2 -16.3 L14.3 -16.45 14.4 -16.55 14.45 -16.65 14.85 -16.7 15.0 -16.7 15.45 -16.6 15.55 -16.55 15.4 -15.55 14.9 -15.85 14.2 -16.3 M16.25 -12.7 L16.25 -12.65 16.25 -12.7 M15.6 -11.65 L15.6 -11.6 15.6 -11.55 Q15.85 -11.55 16.15 -12.0 16.35 -12.4 16.35 -12.65 L16.4 -12.6 16.45 -12.6 16.3 -13.3 16.2 -13.6 16.05 -13.9 Q16.05 -14.25 16.1 -14.5 16.2 -14.5 16.25 -14.55 L16.55 -14.7 17.3 -15.2 17.65 -14.6 18.0 -13.95 18.05 -14.0 18.05 -14.05 18.1 -14.0 18.15 -14.0 18.15 -14.15 Q17.95 -14.75 17.7 -15.1 L17.55 -15.35 Q18.3 -15.9 18.75 -16.45 L18.75 -16.4 18.8 -16.1 18.8 -15.55 Q18.75 -14.4 18.05 -13.0 17.25 -11.5 17.25 -10.85 L17.25 -10.7 17.35 -10.2 17.45 -10.2 17.5 -10.15 17.55 -10.2 17.55 -10.15 17.6 -10.2 17.75 -10.65 17.8 -10.75 Q17.7 -9.75 18.0 -9.05 L18.05 -9.0 18.05 -8.95 Q17.65 -9.2 17.35 -9.75 17.0 -10.25 16.85 -10.35 L16.85 -10.3 Q16.85 -9.7 17.5 -9.05 L17.65 -8.85 Q18.15 -8.25 18.85 -7.75 L18.9 -7.7 19.05 -7.6 19.1 -7.55 19.5 -7.3 19.9 -6.95 20.0 -6.85 20.05 -6.85 20.35 -6.55 20.45 -6.5 20.5 -6.4 Q21.2 -5.4 21.2 -4.2 21.2 -2.8 19.6 -1.3 L18.55 -0.4 18.55 -0.5 18.6 -0.9 Q18.65 -1.25 18.6 -1.65 18.55 -1.9 18.45 -2.05 18.6 -2.55 18.6 -3.0 L18.6 -3.6 Q18.6 -4.45 18.45 -4.85 18.35 -4.8 18.35 -4.7 L18.4 -4.4 18.4 -3.65 Q18.3 -3.0 18.1 -2.35 L17.85 -1.95 17.7 -1.55 17.4 -1.1 17.0 -0.7 16.55 -0.45 Q16.5 -0.7 16.55 -1.15 17.0 -1.75 17.0 -2.35 L16.95 -2.75 16.8 -3.05 Q16.8 -3.1 16.8 -2.95 L16.75 -2.85 16.75 -2.8 Q16.75 -2.45 16.6 -2.05 L16.55 -1.95 16.55 -1.9 16.35 -1.65 16.35 -1.55 16.0 -1.15 15.95 -1.1 15.35 -0.55 14.4 0.15 14.25 0.25 14.45 -0.65 14.5 -0.9 14.5 -1.0 14.55 -1.25 14.55 -1.3 Q15.55 -2.45 15.6 -2.7 15.65 -3.2 15.75 -3.55 L15.85 -3.8 16.5 -4.0 17.15 -4.1 17.35 -4.1 17.4 -3.7 17.5 -3.7 Q17.55 -3.85 17.55 -4.15 L17.55 -4.35 Q17.5 -4.8 17.3 -5.45 17.05 -6.3 16.8 -6.4 16.8 -6.45 16.8 -6.35 L16.95 -5.75 17.2 -5.0 17.25 -4.95 17.1 -5.15 17.05 -5.25 16.9 -5.5 16.85 -5.6 16.3 -6.55 Q15.8 -7.45 15.5 -8.2 L15.6 -8.8 15.75 -9.65 Q15.8 -9.9 15.8 -10.3 15.8 -11.05 15.4 -11.5 L15.55 -11.6 15.6 -11.65 M16.95 -4.9 L17.25 -4.4 17.25 -4.35 17.05 -4.4 16.5 -4.6 16.55 -4.7 16.6 -4.7 Q16.8 -4.7 16.9 -4.85 L16.95 -4.9 M13.25 -12.2 L13.25 -12.15 13.3 -12.1 Q13.95 -11.0 14.25 -10.25 L14.3 -10.15 14.25 -10.1 Q14.15 -10.15 14.05 -10.2 13.7 -10.4 13.15 -10.4 L12.95 -10.45 12.9 -10.45 12.6 -10.4 12.55 -10.45 Q12.55 -10.65 12.7 -10.9 12.9 -11.2 13.0 -11.4 L13.0 -11.85 Q13.05 -12.15 13.25 -12.2 M11.35 -16.55 L11.05 -16.6 11.2 -16.95 11.2 -16.9 11.4 -16.55 11.35 -16.5 11.35 -16.55 M6.15 -3.7 Q6.2 -4.15 6.5 -4.45 6.6 -4.5 6.65 -4.5 6.6 -4.35 6.6 -4.05 6.6 -3.7 6.75 -3.0 6.85 -2.6 6.95 -2.35 L7.05 -1.85 Q6.6 -2.3 6.35 -3.0 6.2 -3.35 6.15 -3.7 M8.15 -1.45 Q8.1 -1.75 8.1 -2.55 8.1 -3.65 8.25 -4.05 L8.25 -4.0 8.7 -3.6 9.3 -3.0 9.4 -2.45 9.45 -2.1 9.65 -1.4 Q9.85 -0.75 10.0 -0.5 L9.75 -0.55 9.4 -0.7 Q8.75 -0.95 8.45 -1.2 L8.3 -1.35 8.15 -1.45 M9.65 -4.55 L9.75 -4.45 Q9.85 -4.35 10.0 -4.3 10.4 -4.15 11.05 -4.15 L12.05 -4.2 13.55 -4.5 13.75 -4.55 14.75 -4.7 14.8 -4.7 Q15.65 -4.7 16.15 -4.45 L16.2 -4.45 16.35 -4.3 16.2 -4.3 16.1 -4.25 15.85 -4.2 15.4 -4.1 14.95 -3.95 Q14.15 -3.7 13.5 -3.35 12.75 -2.95 12.25 -2.75 L12.0 -2.65 Q11.3 -2.45 11.1 -2.45 L10.85 -2.45 Q10.55 -2.6 10.25 -2.75 9.9 -3.0 9.6 -3.3 L9.55 -3.35 9.45 -3.4 9.25 -3.6 9.0 -3.9 8.95 -3.95 8.9 -3.95 8.65 -4.2 8.4 -4.5 8.0 -5.0 7.9 -5.2 7.85 -5.35 7.8 -5.35 Q8.3 -5.9 8.4 -6.15 L8.4 -6.1 Q8.45 -5.65 9.05 -5.0 L9.3 -4.75 Q9.4 -4.65 9.55 -4.6 L9.65 -4.55 M15.6 -11.6 L15.6 -11.6" fill="#bc6b5c" fill-rule="evenodd" stroke="none"/>
  </g>
</svg>
