<?xml version="1.0" encoding="UTF-8" standalone="no"?>
<svg xmlns:ffdec="https://www.free-decompiler.com/flash" xmlns:xlink="http://www.w3.org/1999/xlink" ffdec:objectType="shape" height="21.25px" width="24.65px" xmlns="http://www.w3.org/2000/svg">
  <g transform="matrix(1.0, 0.0, 0.0, 1.0, 9.95, 19.95)">
    <path d="M10.4 -11.4 L10.5 -11.4 10.85 -11.55 11.35 -11.9 Q11.75 -12.2 12.0 -12.55 L12.1 -12.7 12.15 -12.7 Q12.45 -13.15 12.7 -14.15 L12.8 -14.55 12.8 -14.6 Q12.9 -14.5 12.9 -14.4 L12.9 -14.2 Q12.9 -13.95 12.85 -13.7 12.85 -13.45 12.7 -13.15 L12.6 -12.95 Q12.45 -12.75 12.25 -12.5 12.05 -12.2 11.7 -11.9 L11.35 -11.5 11.05 -11.25 11.15 -11.3 11.4 -11.3 11.5 -11.3 11.85 -11.15 Q12.1 -11.05 12.1 -10.75 L11.9 -9.8 11.55 -8.6 Q11.3 -7.75 11.1 -7.5 L11.05 -7.4 11.05 -7.35 11.0 -7.3 10.25 -6.75 10.1 -6.7 Q9.9 -6.6 9.65 -6.5 L9.15 -6.5 Q9.05 -6.55 9.0 -6.7 10.0 -6.85 10.5 -7.15 L10.55 -7.15 10.85 -7.4 11.05 -7.6 Q11.3 -7.95 11.45 -8.75 11.55 -8.95 11.7 -9.6 L11.75 -9.95 11.9 -10.6 11.95 -10.85 11.95 -10.9 Q11.95 -11.0 11.75 -11.0 L11.6 -11.0 10.7 -11.0 10.6 -10.95 Q10.25 -10.95 9.85 -10.8 L9.6 -10.7 9.9 -10.0 Q10.15 -9.35 10.15 -9.1 L10.15 -9.05 Q10.25 -8.9 10.25 -8.8 9.6 -7.5 9.0 -7.5 8.6 -7.5 8.05 -7.8 L7.6 -8.0 Q7.85 -7.65 7.85 -7.25 7.35 -5.7 6.8 -5.65 L6.7 -5.7 6.65 -5.7 Q6.65 -5.75 6.65 -5.8 L6.85 -6.0 7.1 -6.3 Q7.6 -6.85 7.6 -7.25 7.6 -7.65 7.25 -8.1 6.95 -8.5 6.95 -8.75 6.95 -9.25 7.35 -9.65 L7.65 -9.95 Q8.0 -10.25 8.5 -10.5 L8.65 -10.55 9.4 -10.95 10.4 -11.4 M8.55 -11.45 Q8.55 -11.3 8.35 -11.3 L8.2 -11.35 8.05 -11.25 8.15 -11.35 7.7 -11.35 Q6.55 -11.35 6.25 -10.35 6.2 -10.0 6.2 -8.55 6.15 -8.3 6.15 -8.2 L6.1 -8.2 Q6.0 -8.3 5.95 -8.85 5.9 -9.4 5.9 -9.6 5.9 -10.45 6.3 -11.05 6.9 -11.95 8.15 -11.65 L8.2 -11.7 8.25 -11.95 8.25 -12.0 Q8.25 -12.15 8.25 -12.3 L8.15 -13.05 8.05 -13.5 Q7.9 -13.8 7.6 -14.15 L7.25 -14.65 Q6.95 -14.95 6.3 -15.9 5.8 -16.6 5.6 -17.0 4.95 -18.0 4.35 -18.55 3.55 -19.2 2.75 -19.45 L2.2 -19.5 1.55 -19.45 Q1.1 -19.3 0.9 -19.0 0.8 -18.75 0.8 -18.1 L0.85 -17.95 0.9 -17.55 1.1 -17.5 1.15 -17.5 2.0 -17.4 3.05 -17.2 Q3.3 -17.15 4.35 -16.7 L4.3 -16.65 4.15 -16.7 4.05 -16.75 3.0 -17.0 2.1 -17.2 1.7 -17.25 Q0.6 -17.25 -0.2 -16.75 L-0.55 -16.5 -0.55 -16.45 -0.7 -16.35 -0.75 -16.25 Q0.15 -16.55 0.6 -16.75 0.6 -16.85 0.6 -16.65 0.6 -16.35 -1.1 -15.85 L-1.15 -15.85 -1.55 -15.75 Q-1.6 -15.7 -1.7 -15.65 L-1.75 -15.65 Q-2.5 -15.3 -4.0 -14.85 L-4.3 -14.8 -5.4 -14.45 -6.05 -14.25 -6.2 -14.15 -5.25 -12.45 -5.2 -12.55 -5.05 -13.05 Q-4.85 -13.65 -4.4 -13.7 L-4.35 -13.75 -4.3 -13.7 Q-4.65 -13.35 -4.8 -13.0 L-4.9 -12.55 -4.95 -12.45 -5.0 -12.05 -4.95 -12.0 -5.0 -11.9 -5.05 -11.9 -5.0 -11.7 -4.95 -11.65 -4.75 -11.4 -4.8 -11.35 Q-4.7 -11.35 -4.55 -11.25 L-4.4 -11.15 Q-4.15 -10.95 -3.85 -10.6 L-3.8 -10.55 -3.7 -10.4 -3.75 -10.35 -4.3 -10.75 Q-4.55 -10.95 -4.8 -11.05 L-4.9 -11.05 -4.95 -11.05 Q-5.05 -10.95 -5.3 -10.95 L-5.5 -10.9 -6.0 -10.85 -6.4 -10.9 -6.5 -10.9 Q-6.85 -10.85 -6.95 -10.75 L-7.65 -9.5 Q-8.0 -8.9 -8.25 -8.5 -8.35 -8.25 -8.35 -8.1 -8.35 -8.0 -8.2 -7.5 -8.0 -6.8 -7.75 -6.2 -7.45 -5.6 -7.15 -5.2 L-7.1 -5.2 Q-6.5 -4.4 -5.75 -4.4 L-5.65 -4.4 -5.6 -4.45 -5.6 -4.4 -5.45 -4.45 -5.2 -4.8 Q-4.75 -5.3 -4.6 -5.65 L-4.55 -5.85 -4.45 -6.3 -4.4 -6.65 -4.45 -7.2 -4.55 -7.55 -4.65 -7.8 -4.7 -8.0 -4.8 -8.25 -4.8 -8.35 -4.85 -8.35 -4.5 -8.55 -4.4 -8.6 -4.35 -8.6 Q-4.2 -8.6 -4.15 -8.55 -4.1 -8.55 -4.2 -8.5 -3.6 -8.45 -3.45 -7.5 L-3.4 -6.45 -3.4 -6.4 -3.25 -6.55 -3.0 -6.85 -2.8 -7.2 Q-2.75 -7.45 -2.75 -7.7 -2.75 -8.25 -3.4 -8.95 L-4.4 -10.1 -4.45 -10.1 -4.7 -10.4 -4.55 -10.3 -4.45 -10.25 -4.1 -10.0 -4.15 -10.1 -3.95 -9.9 Q-3.5 -9.55 -3.15 -9.15 L-3.05 -9.05 -3.15 -9.3 -2.95 -9.0 Q-2.75 -8.9 -2.6 -8.65 -2.4 -8.35 -2.35 -8.15 L-2.25 -8.05 -2.1 -7.85 -1.6 -7.35 -1.5 -7.3 Q-0.65 -6.55 0.35 -6.55 L0.5 -6.55 0.6 -6.6 0.55 -6.55 Q0.3 -6.5 0.05 -6.45 L-0.55 -6.45 -0.65 -6.5 Q-1.0 -6.65 -1.3 -6.85 L-1.45 -6.95 Q-1.85 -7.25 -2.2 -7.65 L-2.3 -7.8 Q-2.35 -7.45 -2.55 -7.05 L-2.8 -6.75 -2.8 -6.7 Q-2.95 -6.35 -3.2 -6.2 L-3.3 -6.1 -3.45 -6.1 -3.5 -6.15 -3.5 -6.2 Q-3.6 -6.25 -3.6 -6.6 L-3.6 -6.95 -3.55 -7.0 Q-3.55 -7.35 -3.65 -7.7 -3.85 -8.3 -4.3 -8.3 L-4.55 -8.3 -4.55 -8.25 Q-4.4 -8.1 -4.3 -7.8 -4.15 -7.35 -4.15 -6.95 -4.15 -6.3 -4.45 -5.45 L-4.5 -5.35 -4.5 -5.3 -4.75 -4.8 Q-5.0 -4.25 -5.35 -4.25 L-5.55 -4.2 -5.6 -4.2 -5.75 -4.1 -5.75 -4.15 -6.1 -4.2 -6.2 -4.25 -6.25 -4.25 -6.45 -4.4 -6.6 -4.45 -6.85 -4.55 -6.9 -4.65 Q-7.5 -5.1 -7.95 -6.1 -8.25 -6.7 -8.45 -7.45 -8.6 -8.0 -8.6 -8.1 L-8.65 -8.1 -8.65 -8.2 Q-8.65 -8.4 -8.1 -9.45 L-7.75 -10.15 -7.7 -10.25 -7.6 -10.35 Q-7.25 -10.9 -7.0 -11.1 L-6.9 -11.05 -6.8 -11.1 Q-6.95 -11.2 -7.05 -11.4 L-7.15 -11.6 -7.1 -11.6 -7.2 -11.9 Q-7.45 -12.2 -7.45 -12.35 L-7.7 -12.4 Q-7.7 -12.2 -7.45 -11.85 L-7.3 -11.55 Q-7.2 -11.25 -7.15 -11.15 L-7.2 -11.15 Q-7.3 -11.15 -7.4 -11.2 L-8.15 -10.65 -8.2 -10.6 Q-8.7 -10.2 -9.05 -9.8 -9.5 -9.2 -9.5 -8.55 -9.5 -7.2 -7.8 -4.45 L-7.15 -3.45 -5.9 -1.5 -5.65 -1.9 Q-5.85 -2.0 -5.95 -2.3 L-6.1 -2.75 Q-6.1 -2.95 -6.0 -3.2 -5.9 -3.35 -5.9 -3.65 L-5.9 -3.8 Q-5.75 -3.8 -5.7 -3.75 -5.6 -3.65 -5.6 -3.55 -5.6 -3.4 -5.75 -3.15 L-5.85 -2.95 -5.9 -2.7 Q-5.9 -2.55 -5.75 -2.4 L-5.5 -2.15 -5.45 -2.25 -5.15 -2.85 -5.25 -2.8 -5.25 -2.9 -5.35 -2.95 -5.2 -2.95 -5.2 -3.05 -4.6 -3.1 -4.55 -3.1 Q-4.3 -3.1 -4.05 -3.0 L-3.85 -2.9 Q-3.65 -2.8 -3.2 -2.4 L-2.95 -2.2 Q-2.55 -2.0 -1.9 -1.75 L-1.4 -1.7 Q-0.3 -1.7 0.7 -2.6 L1.1 -3.4 Q1.3 -4.3 1.35 -4.7 L1.45 -5.7 1.6 -6.3 Q1.7 -6.65 1.9 -6.9 L1.8 -6.85 1.2 -6.15 1.15 -6.05 0.6 -5.35 Q0.65 -5.6 0.75 -5.85 0.8 -5.95 0.9 -6.1 1.05 -6.4 1.55 -6.85 L1.9 -7.2 Q2.25 -7.45 2.55 -7.6 3.35 -8.1 3.8 -7.9 L3.9 -7.8 Q3.15 -7.7 2.55 -7.4 L2.25 -6.9 2.0 -6.55 1.9 -6.15 1.85 -6.0 Q1.75 -4.95 1.65 -4.4 1.55 -3.35 1.35 -2.8 1.0 -1.95 -0.35 -1.65 -0.3 -1.55 -0.3 -1.25 L-0.3 -1.15 -0.25 -1.0 -0.25 -0.9 -0.25 -0.65 Q-0.25 -0.5 -0.5 -0.4 -0.85 -0.2 -1.65 -0.2 -1.8 -0.2 -1.9 -0.3 -2.05 -0.3 -2.1 -0.4 L-2.1 -0.55 -2.0 -1.1 -1.85 -1.5 -2.25 -1.6 Q-2.9 -1.75 -3.5 -2.2 -4.15 -2.7 -4.95 -2.85 L-4.95 -2.8 Q-4.95 -2.7 -5.1 -2.2 L-5.15 -2.15 Q-5.15 -1.7 -5.45 -1.05 -5.75 -0.4 -5.75 -0.2 -5.75 0.1 -5.4 0.35 -5.15 0.5 -4.8 0.6 -4.35 0.75 -3.75 0.75 -2.0 0.75 0.6 -0.45 1.95 -1.05 3.15 -1.75 4.25 -2.35 4.95 -2.75 L5.3 -3.05 Q5.8 -3.5 5.95 -4.0 L5.95 -4.95 5.7 -6.0 Q5.5 -6.9 5.4 -7.35 5.35 -7.75 5.35 -8.1 L5.35 -8.3 5.4 -8.35 5.4 -8.4 5.45 -8.45 6.5 -4.8 6.8 -4.5 Q7.5 -4.15 8.75 -4.15 L9.25 -4.2 Q9.85 -4.3 10.35 -4.55 10.9 -4.9 11.4 -5.45 L11.45 -5.5 11.75 -5.9 12.45 -7.05 Q13.45 -8.75 13.85 -9.9 L14.05 -10.5 Q14.15 -11.0 14.15 -11.4 L14.05 -13.5 13.9 -14.45 Q13.85 -15.0 13.85 -15.3 L13.45 -15.8 11.75 -14.2 10.65 -13.2 Q9.15 -11.75 8.55 -11.45 M3.25 -15.3 Q3.75 -15.5 4.25 -15.45 5.05 -15.45 5.6 -14.9 6.0 -14.55 6.15 -14.0 6.35 -13.5 6.35 -12.9 6.35 -12.55 5.95 -12.05 L5.85 -12.0 Q5.6 -11.6 5.25 -11.4 L5.15 -11.35 5.1 -11.3 5.05 -11.3 Q4.65 -11.15 4.15 -11.15 L3.35 -11.25 3.8 -9.9 Q4.4 -8.25 4.4 -8.05 4.4 -7.95 4.35 -7.85 L4.2 -7.8 Q3.95 -7.8 3.7 -8.65 L3.65 -8.7 1.9 -9.7 1.85 -9.75 1.85 -9.65 Q1.95 -9.35 1.95 -9.15 L1.95 -8.8 1.75 -8.75 1.65 -8.5 1.35 -8.05 0.35 -7.55 0.25 -7.55 0.15 -7.55 Q-0.55 -7.55 -1.15 -7.9 L-1.4 -8.05 -1.5 -8.1 Q-1.95 -8.45 -2.3 -8.95 L-2.4 -9.05 -2.45 -9.15 Q-2.95 -9.95 -3.15 -10.8 L-3.15 -10.85 Q-3.3 -10.85 -3.35 -11.0 L-3.4 -11.25 -3.55 -11.35 -3.4 -11.4 Q-3.65 -11.5 -3.75 -11.7 -4.0 -11.9 -4.0 -12.0 L-3.95 -12.3 -3.85 -13.0 Q-3.65 -13.65 -3.4 -13.75 L-3.35 -13.7 -3.35 -13.65 -3.25 -13.65 -3.25 -13.55 -3.4 -13.2 -3.5 -12.9 -3.65 -12.15 -3.65 -12.0 -3.6 -11.95 -3.4 -12.05 Q-2.5 -12.45 -1.7 -12.75 L-0.25 -13.35 Q0.3 -13.55 1.05 -13.4 1.5 -13.3 1.9 -13.05 1.85 -13.3 1.85 -13.65 1.85 -13.9 2.15 -14.35 2.5 -14.85 3.0 -15.15 L3.25 -15.3 M14.25 -15.7 Q14.7 -14.9 14.7 -13.7 14.7 -13.5 14.6 -13.0 L14.6 -11.35 Q14.6 -9.7 13.55 -7.8 L13.1 -7.05 Q12.25 -5.5 11.2 -4.7 L10.8 -4.3 10.75 -4.3 Q9.65 -3.55 8.2 -3.55 7.05 -3.55 6.5 -4.0 6.4 -3.35 5.55 -2.65 4.7 -1.95 3.0 -1.15 1.6 -0.35 0.35 0.2 -2.1 1.3 -3.8 1.3 L-4.15 1.3 -5.0 1.2 Q-5.75 1.0 -6.05 0.6 -6.35 0.2 -6.3 -0.2 -6.3 -0.55 -6.15 -0.9 -6.55 -1.3 -7.05 -2.05 -7.65 -3.05 -8.45 -4.55 -8.9 -5.45 -9.35 -6.45 L-9.4 -6.65 Q-9.65 -7.25 -9.8 -7.7 -9.95 -8.25 -9.95 -8.55 -9.95 -9.5 -9.45 -10.15 -8.95 -10.75 -7.75 -11.35 -7.9 -11.55 -8.0 -12.0 L-8.15 -12.55 -8.45 -12.6 Q-9.2 -12.65 -9.2 -13.0 L-8.9 -13.55 Q-8.6 -14.15 -8.25 -14.6 L-7.75 -15.05 Q-7.75 -15.65 -7.45 -16.9 -7.1 -18.2 -6.9 -18.0 L-6.75 -18.1 -6.75 -17.65 Q-6.6 -17.0 -6.3 -16.3 -5.9 -15.5 -5.35 -14.8 -4.9 -15.0 -4.4 -15.15 -4.35 -15.75 -3.85 -16.25 L-3.65 -16.45 Q-3.15 -16.9 -2.5 -17.15 -1.8 -17.4 -1.35 -17.25 -1.05 -17.15 -0.95 -16.85 L-0.6 -17.15 Q-0.05 -17.6 0.6 -17.6 0.55 -17.75 0.5 -18.3 L0.45 -19.05 Q0.45 -19.35 0.8 -19.65 1.25 -20.0 2.1 -19.9 2.65 -19.75 3.15 -19.55 3.95 -19.3 4.65 -18.7 5.05 -18.4 5.4 -18.0 5.8 -17.55 6.2 -16.85 6.55 -16.25 6.75 -15.9 L7.0 -15.55 Q7.25 -15.25 7.95 -14.6 8.3 -14.25 8.45 -13.85 8.6 -13.4 8.6 -12.35 L8.6 -12.05 9.7 -13.0 Q11.45 -14.55 12.15 -15.35 13.55 -16.95 14.25 -15.7 M2.95 -14.6 Q2.65 -14.4 2.45 -14.0 2.25 -13.6 2.15 -13.2 L2.15 -12.9 2.45 -12.65 Q2.75 -12.4 2.9 -12.15 L3.2 -11.5 Q3.7 -11.35 4.45 -11.35 4.8 -11.35 5.05 -11.45 L5.55 -12.05 Q5.8 -12.35 5.95 -12.6 L6.05 -13.15 Q6.05 -13.55 5.95 -13.85 L5.7 -14.35 Q5.6 -14.55 5.4 -14.7 L4.4 -15.1 Q3.5 -15.1 2.95 -14.6 M7.5 -8.25 L8.05 -8.0 Q8.65 -7.7 8.75 -7.7 L9.2 -7.7 Q9.5 -7.9 9.8 -8.4 L10.0 -8.8 Q9.95 -9.25 9.75 -10.0 L9.5 -10.65 Q9.3 -10.55 9.05 -10.45 L8.95 -10.35 8.25 -10.0 Q7.15 -9.35 7.15 -8.75 7.15 -8.65 7.45 -8.25 L7.5 -8.25 M3.2 -10.35 L-3.05 -11.75 -3.2 -11.75 -3.35 -11.8 -2.95 -11.6 -2.9 -11.6 2.45 -9.8 3.2 -10.35 M1.55 -9.1 Q1.4 -9.4 1.3 -9.75 L0.75 -10.0 Q-0.3 -10.4 -0.7 -10.5 L-2.1 -10.85 -2.9 -11.1 Q-2.9 -10.95 -2.8 -10.55 -2.6 -9.9 -2.35 -9.4 -1.4 -7.8 0.15 -7.8 1.0 -7.8 1.35 -8.4 1.55 -8.7 1.55 -9.05 L1.55 -9.1 M-6.25 -15.3 L-6.4 -15.65 Q-6.7 -16.3 -7.0 -17.2 L-7.2 -16.2 -7.3 -15.3 Q-7.0 -15.35 -6.75 -15.0 L-6.65 -14.85 -6.5 -14.6 -6.4 -14.6 -6.3 -14.55 -6.4 -14.5 -5.8 -14.65 -5.75 -14.7 -5.8 -14.7 Q-6.0 -14.9 -6.25 -15.3 M-6.95 -14.7 L-7.05 -14.25 -6.95 -14.7 M-2.55 -16.9 Q-2.85 -16.85 -3.05 -16.65 -3.3 -16.45 -3.6 -16.1 L-4.0 -15.45 -4.05 -15.25 -3.3 -15.5 -2.75 -15.7 Q-2.3 -15.9 -2.0 -16.0 -1.65 -16.15 -1.3 -16.5 L-1.3 -16.55 -1.4 -16.6 Q-1.7 -16.9 -2.25 -16.9 L-2.55 -16.9 M-5.4 -11.95 L-5.3 -12.2 -5.4 -11.95 M-6.65 -11.35 Q-6.55 -11.15 -6.35 -11.15 L-6.3 -11.15 -6.4 -11.2 Q-6.55 -11.4 -6.55 -11.5 L-6.55 -11.6 -6.5 -11.65 Q-6.3 -11.65 -6.05 -11.45 -5.8 -11.3 -5.8 -11.15 L-5.85 -11.1 Q-5.7 -11.1 -5.6 -11.15 L-5.55 -11.15 -5.45 -11.2 -5.0 -11.3 -5.05 -11.35 -5.4 -11.5 Q-5.5 -11.6 -5.65 -11.7 L-6.95 -12.2 Q-6.95 -11.95 -6.9 -11.75 L-6.85 -11.75 -6.8 -11.6 -6.65 -11.35 M-1.2 -9.3 Q-1.3 -9.2 -1.4 -9.2 -1.7 -9.2 -1.95 -9.55 -2.2 -9.8 -2.2 -9.9 -2.2 -10.05 -2.1 -10.15 L-1.85 -10.15 Q-1.65 -10.15 -1.35 -9.9 -1.1 -9.6 -1.1 -9.5 -1.1 -9.4 -1.2 -9.3 M-1.6 -1.35 Q-1.6 -1.2 -1.7 -0.95 -1.85 -0.7 -1.85 -0.45 L-1.35 -0.45 Q-0.4 -0.45 -0.4 -0.9 L-0.45 -1.2 -0.45 -1.3 -0.55 -1.6 Q-0.95 -1.45 -1.4 -1.45 L-1.65 -1.5 -1.6 -1.35" fill="#000000" fill-rule="evenodd" stroke="none"/>
    <path d="M11.35 -11.5 Q11.35 -11.4 11.4 -11.3 L11.15 -11.3 11.05 -11.25 11.35 -11.5 M10.1 -6.7 L9.85 -6.4 Q9.3 -5.85 8.85 -5.6 7.9 -5.2 6.75 -5.05 L6.8 -5.65 Q7.35 -5.7 7.85 -7.25 7.85 -7.65 7.6 -8.0 L8.05 -7.8 Q8.6 -7.5 9.0 -7.5 9.6 -7.5 10.25 -8.8 10.25 -8.9 10.15 -9.05 L10.15 -9.1 Q10.15 -9.35 9.9 -10.0 L9.6 -10.7 9.85 -10.8 Q10.25 -10.95 10.6 -10.95 L10.7 -11.0 11.6 -11.0 11.65 -11.0 Q11.85 -10.8 11.9 -10.6 L11.75 -9.95 11.7 -9.6 11.25 -8.6 10.6 -7.2 10.5 -7.15 Q10.0 -6.85 9.0 -6.7 9.05 -6.55 9.15 -6.5 L9.65 -6.5 Q9.9 -6.6 10.1 -6.7 M6.85 -6.0 L6.85 -6.7 6.75 -7.9 Q6.7 -9.1 6.75 -9.7 L7.35 -9.65 Q6.95 -9.25 6.95 -8.75 6.95 -8.5 7.25 -8.1 7.6 -7.65 7.6 -7.25 7.6 -6.85 7.1 -6.3 L6.85 -6.0 M8.5 -10.5 Q8.6 -10.8 8.6 -11.15 L8.55 -11.45 Q9.15 -11.75 10.65 -13.2 L11.75 -14.2 10.85 -13.0 Q10.3 -12.25 10.3 -11.7 10.3 -11.55 10.35 -11.45 L10.4 -11.4 9.4 -10.95 8.65 -10.55 8.5 -10.5 M1.55 -19.45 L1.55 -19.2 Q1.55 -18.75 1.8 -17.95 1.9 -17.65 2.0 -17.4 L1.15 -17.5 1.1 -17.5 0.9 -17.55 0.85 -17.95 0.8 -18.1 Q0.8 -18.75 0.9 -19.0 1.1 -19.3 1.55 -19.45 M2.1 -17.2 Q2.3 -16.7 2.6 -16.2 2.9 -15.65 3.25 -15.3 L3.0 -15.15 Q2.5 -14.85 2.15 -14.35 1.85 -13.9 1.85 -13.65 1.85 -13.3 1.9 -13.05 1.5 -13.3 1.05 -13.4 0.3 -13.55 -0.25 -13.35 L-1.7 -12.75 Q-2.5 -12.45 -3.4 -12.05 L-3.65 -12.15 -3.5 -12.9 -3.4 -13.2 -3.25 -13.55 -3.25 -13.65 -3.35 -13.65 -3.35 -13.7 -3.4 -13.75 Q-3.65 -13.65 -3.85 -13.0 L-3.95 -12.3 -4.25 -12.4 -4.95 -12.45 -4.9 -12.55 -4.8 -13.0 Q-4.65 -13.35 -4.3 -13.7 L-4.35 -13.75 -4.4 -13.7 Q-4.85 -13.65 -5.05 -13.05 L-5.2 -12.55 -5.25 -12.45 -6.2 -14.15 -6.05 -14.25 -5.4 -14.45 -4.3 -14.8 -4.0 -14.85 Q-2.5 -15.3 -1.75 -15.65 L-1.7 -15.65 Q-1.6 -15.7 -1.55 -15.75 L-1.15 -15.85 -1.1 -15.85 Q0.6 -16.35 0.6 -16.65 0.6 -16.85 0.6 -16.75 0.15 -16.55 -0.75 -16.25 L-0.7 -16.35 -0.55 -16.45 -0.55 -16.5 -0.2 -16.75 Q0.6 -17.25 1.7 -17.25 L2.1 -17.2 M1.9 -9.7 L1.85 -9.75 1.9 -9.7 M1.65 -8.5 L1.7 -8.55 2.05 -8.55 Q2.4 -8.45 2.4 -8.0 2.4 -7.8 1.7 -7.2 1.0 -6.55 0.65 -6.55 L0.55 -6.55 0.6 -6.6 0.5 -6.55 Q0.3 -6.6 0.15 -6.8 0.05 -6.95 0.05 -7.1 0.05 -7.35 0.25 -7.55 L0.35 -7.55 1.35 -8.05 1.65 -8.5 M-2.8 -6.7 L-2.8 -6.65 Q-1.85 -5.05 -0.35 -5.05 L0.0 -5.1 Q0.2 -5.0 0.4 -5.0 0.8 -5.0 1.45 -5.7 L1.35 -4.7 Q1.3 -4.3 1.1 -3.4 L0.7 -2.6 Q-0.3 -1.7 -1.4 -1.7 L-1.9 -1.75 Q-2.55 -2.0 -2.95 -2.2 L-3.2 -2.4 Q-3.65 -2.8 -3.85 -2.9 L-4.05 -3.0 Q-4.3 -3.1 -4.55 -3.1 L-4.6 -3.1 -5.2 -3.05 -5.2 -2.95 -5.35 -2.95 -5.25 -2.9 -5.25 -2.8 -5.15 -2.85 -5.45 -2.25 -5.55 -2.4 Q-5.85 -2.75 -5.85 -2.85 L-5.85 -2.95 -5.75 -3.15 Q-5.6 -3.4 -5.6 -3.55 -5.6 -3.65 -5.7 -3.75 -5.75 -3.8 -5.9 -3.8 L-5.9 -3.65 Q-5.95 -4.0 -6.05 -4.15 L-6.1 -4.2 -5.75 -4.15 -5.75 -4.1 -5.6 -4.2 -5.55 -4.2 -5.35 -4.25 Q-5.0 -4.25 -4.75 -4.8 L-4.5 -5.3 -4.5 -5.35 -4.5 -5.3 -4.2 -5.2 Q-3.75 -5.35 -3.5 -6.1 L-3.5 -6.15 -3.45 -6.1 -3.3 -6.1 -3.2 -6.2 Q-2.95 -6.35 -2.8 -6.7 M1.9 -6.15 L2.35 -6.7 2.4 -6.65 2.45 -5.95 Q2.45 -4.85 2.1 -3.75 1.95 -3.3 1.8 -3.05 1.3 -2.2 1.0 -1.8 0.5 -1.3 -0.25 -0.9 L-0.25 -1.0 -0.3 -1.15 -0.3 -1.25 Q-0.3 -1.55 -0.35 -1.65 1.0 -1.95 1.35 -2.8 1.55 -3.35 1.65 -4.4 1.75 -4.95 1.85 -6.0 L1.9 -6.15 M-1.9 -0.3 L-3.25 0.1 Q-4.3 0.4 -4.8 0.6 -5.15 0.5 -5.4 0.35 -5.75 0.1 -5.75 -0.2 -5.75 -0.4 -5.45 -1.05 -5.15 -1.7 -5.15 -2.15 L-5.1 -2.2 Q-4.95 -2.7 -4.95 -2.8 L-4.95 -2.85 Q-4.15 -2.7 -3.5 -2.2 -2.9 -1.75 -2.25 -1.6 L-1.85 -1.5 -2.0 -1.1 -2.1 -0.55 -2.1 -0.4 Q-2.05 -0.3 -1.9 -0.3 M2.95 -14.6 L3.1 -14.4 Q3.6 -13.9 3.6 -13.25 3.6 -12.6 3.0 -12.25 L2.9 -12.15 Q2.75 -12.4 2.45 -12.65 L2.15 -12.9 2.15 -13.2 Q2.25 -13.6 2.45 -14.0 2.65 -14.4 2.95 -14.6 M-3.05 -11.75 L3.2 -10.35 2.45 -9.8 -2.9 -11.6 -3.05 -11.75 M-1.15 -7.9 Q-1.25 -7.8 -1.35 -7.7 L-1.35 -7.8 -1.4 -8.05 -1.15 -7.9 M-1.5 -7.3 L-1.6 -7.35 -1.5 -7.45 -1.5 -7.3 M-4.45 -10.25 L-4.55 -10.3 -4.7 -10.4 -4.45 -10.1 -4.4 -10.1 Q-4.35 -9.55 -4.35 -8.9 L-4.4 -8.6 -4.5 -8.55 -4.85 -8.35 -4.8 -8.35 -4.8 -8.25 -4.7 -8.0 -4.65 -7.8 Q-4.8 -7.3 -5.0 -6.9 -5.85 -5.15 -7.0 -5.15 L-7.1 -5.2 -7.15 -5.2 Q-7.45 -5.6 -7.75 -6.2 -8.0 -6.8 -8.2 -7.5 -8.35 -8.0 -8.35 -8.1 -8.35 -8.25 -8.25 -8.5 -8.0 -8.9 -7.65 -9.5 L-6.95 -10.75 Q-6.85 -10.85 -6.5 -10.9 L-6.4 -10.9 -6.0 -10.85 -5.5 -10.9 -5.3 -10.95 Q-5.05 -10.95 -4.95 -11.05 L-4.9 -11.05 Q-4.6 -10.9 -4.5 -10.45 L-4.45 -10.25 M-7.15 -3.45 L-7.8 -4.45 Q-9.5 -7.2 -9.5 -8.55 -9.5 -9.2 -9.05 -9.8 -8.7 -10.2 -8.2 -10.6 -8.2 -10.5 -8.1 -10.4 -8.0 -10.15 -7.75 -10.15 L-8.1 -9.45 Q-8.65 -8.4 -8.65 -8.2 L-8.65 -8.1 -8.6 -8.1 Q-8.6 -8.0 -8.45 -7.45 -8.25 -6.7 -7.95 -6.1 -7.5 -5.1 -6.9 -4.65 L-6.85 -4.55 -6.6 -4.45 -6.45 -4.4 -6.55 -4.4 Q-6.8 -4.3 -7.0 -3.85 L-7.15 -3.45 M-6.75 -15.0 Q-7.0 -15.35 -7.3 -15.3 L-7.2 -16.2 -7.0 -17.2 Q-6.7 -16.3 -6.4 -15.65 L-6.25 -15.3 -6.4 -15.25 Q-6.6 -15.15 -6.75 -15.0 M-5.8 -14.7 L-5.75 -14.7 -5.8 -14.65 -5.8 -14.7 M-7.05 -14.25 L-6.95 -14.7 -7.05 -14.25 M-2.75 -15.7 L-3.3 -15.5 -4.05 -15.25 -4.0 -15.45 -3.6 -16.1 Q-3.3 -16.45 -3.05 -16.65 -2.85 -16.85 -2.55 -16.9 L-2.6 -16.85 Q-2.75 -16.45 -2.75 -15.7 M-5.3 -12.2 L-5.4 -11.95 -5.3 -12.2 M-6.65 -11.35 L-6.8 -11.6 -6.65 -11.35" fill="#c7a36d" fill-rule="evenodd" stroke="none"/>
    <path d="M1.55 -9.1 L1.55 -9.05 Q1.55 -8.7 1.35 -8.4 1.0 -7.8 0.15 -7.8 -1.4 -7.8 -2.35 -9.4 -2.6 -9.9 -2.8 -10.55 -2.9 -10.95 -2.9 -11.1 L-2.1 -10.85 -0.7 -10.5 Q-0.3 -10.4 0.75 -10.0 L1.3 -9.75 Q1.4 -9.4 1.55 -9.1 M-6.8 -11.6 L-6.85 -11.75 -6.9 -11.75 Q-6.95 -11.95 -6.95 -12.2 L-5.65 -11.7 Q-5.5 -11.6 -5.4 -11.5 L-5.05 -11.35 -5.0 -11.3 -5.45 -11.2 -5.55 -11.15 -5.6 -11.15 Q-5.7 -11.1 -5.85 -11.1 L-5.8 -11.15 Q-5.8 -11.3 -6.05 -11.45 -6.3 -11.65 -6.5 -11.65 L-6.55 -11.6 -6.55 -11.5 Q-6.55 -11.4 -6.4 -11.2 L-6.3 -11.15 -6.35 -11.15 Q-6.55 -11.15 -6.65 -11.35 L-6.8 -11.6 M-1.2 -9.3 Q-1.1 -9.4 -1.1 -9.5 -1.1 -9.6 -1.35 -9.9 -1.65 -10.15 -1.85 -10.15 L-2.1 -10.15 Q-2.2 -10.05 -2.2 -9.9 -2.2 -9.8 -1.95 -9.55 -1.7 -9.2 -1.4 -9.2 -1.3 -9.2 -1.2 -9.3 M-1.6 -1.35 L-1.65 -1.5 -1.4 -1.45 Q-0.95 -1.45 -0.55 -1.6 L-0.45 -1.3 -0.45 -1.2 -0.4 -0.9 Q-0.4 -0.45 -1.35 -0.45 L-1.85 -0.45 Q-1.85 -0.7 -1.7 -0.95 -1.6 -1.2 -1.6 -1.35" fill="#ffffff" fill-rule="evenodd" stroke="none"/>
    <path d="M11.35 -11.5 L11.7 -11.9 Q12.05 -12.2 12.25 -12.5 12.45 -12.75 12.6 -12.95 L12.7 -13.15 Q12.85 -13.45 12.85 -13.7 12.9 -13.95 12.9 -14.2 L12.9 -14.4 Q12.9 -14.5 12.8 -14.6 L12.8 -14.55 12.7 -14.15 Q12.45 -13.15 12.15 -12.7 L12.1 -12.7 12.0 -12.55 Q11.75 -12.2 11.35 -11.9 L10.85 -11.55 10.5 -11.4 10.4 -11.4 10.35 -11.45 Q10.3 -11.55 10.3 -11.7 10.3 -12.25 10.85 -13.0 L11.75 -14.2 13.45 -15.8 13.85 -15.3 Q13.85 -15.0 13.9 -14.45 L14.05 -13.5 14.15 -11.4 Q14.15 -11.0 14.05 -10.5 L13.85 -9.9 Q13.45 -8.75 12.45 -7.05 L11.75 -5.9 11.45 -5.5 11.4 -5.45 Q10.9 -4.9 10.35 -4.55 9.85 -4.3 9.25 -4.2 L8.75 -4.15 Q7.5 -4.15 6.8 -4.5 L6.5 -4.8 5.45 -8.45 5.4 -8.4 5.4 -8.35 5.35 -8.3 5.35 -8.1 Q5.35 -7.75 5.4 -7.35 5.5 -6.9 5.7 -6.0 L5.95 -4.95 5.95 -4.0 Q5.8 -3.5 5.3 -3.05 L4.95 -2.75 Q4.25 -2.35 3.15 -1.75 1.95 -1.05 0.6 -0.45 -2.0 0.75 -3.75 0.75 -4.35 0.75 -4.8 0.6 -4.3 0.4 -3.25 0.1 L-1.9 -0.3 Q-1.8 -0.2 -1.65 -0.2 -0.85 -0.2 -0.5 -0.4 -0.25 -0.5 -0.25 -0.65 L-0.25 -0.9 Q0.5 -1.3 1.0 -1.8 1.3 -2.2 1.8 -3.05 1.95 -3.3 2.1 -3.75 2.45 -4.85 2.45 -5.95 L2.4 -6.65 2.35 -6.7 1.9 -6.15 2.0 -6.55 2.25 -6.9 2.55 -7.4 Q3.15 -7.7 3.9 -7.8 L3.8 -7.9 Q3.35 -8.1 2.55 -7.6 2.25 -7.45 1.9 -7.2 L1.55 -6.85 Q1.05 -6.4 0.9 -6.1 0.8 -5.95 0.75 -5.85 0.65 -5.6 0.6 -5.35 L1.15 -6.05 1.2 -6.15 1.8 -6.85 1.9 -6.9 Q1.7 -6.65 1.6 -6.3 L1.45 -5.7 Q0.8 -5.0 0.4 -5.0 0.2 -5.0 0.0 -5.1 L-0.35 -5.05 Q-1.85 -5.05 -2.8 -6.65 L-2.8 -6.7 -2.8 -6.75 -2.55 -7.05 Q-2.35 -7.45 -2.3 -7.8 L-2.2 -7.65 Q-1.85 -7.25 -1.45 -6.95 L-1.3 -6.85 Q-1.0 -6.65 -0.65 -6.5 L-0.55 -6.45 0.05 -6.45 Q0.3 -6.5 0.55 -6.55 L0.65 -6.55 Q1.0 -6.55 1.7 -7.2 2.4 -7.8 2.4 -8.0 2.4 -8.45 2.05 -8.55 L1.7 -8.55 1.65 -8.5 1.75 -8.75 1.95 -8.8 1.95 -9.15 Q1.95 -9.35 1.85 -9.65 L1.85 -9.75 1.9 -9.7 3.65 -8.7 3.7 -8.65 Q3.95 -7.8 4.2 -7.8 L4.35 -7.85 Q4.4 -7.95 4.4 -8.05 4.4 -8.25 3.8 -9.9 L3.35 -11.25 4.15 -11.15 Q4.65 -11.15 5.05 -11.3 L5.1 -11.3 5.15 -11.35 5.25 -11.4 Q5.6 -11.6 5.85 -12.0 L5.95 -12.05 Q6.35 -12.55 6.35 -12.9 6.35 -13.5 6.15 -14.0 6.0 -14.55 5.6 -14.9 5.05 -15.45 4.25 -15.45 3.75 -15.5 3.25 -15.3 2.9 -15.65 2.6 -16.2 2.3 -16.7 2.1 -17.2 L3.0 -17.0 4.05 -16.75 4.15 -16.7 4.3 -16.65 4.35 -16.7 Q3.3 -17.15 3.05 -17.2 L2.0 -17.4 Q1.9 -17.65 1.8 -17.95 1.55 -18.75 1.55 -19.2 L1.55 -19.45 2.2 -19.5 2.75 -19.45 Q3.55 -19.2 4.35 -18.55 4.95 -18.0 5.6 -17.0 5.8 -16.6 6.3 -15.9 6.95 -14.95 7.25 -14.65 L7.6 -14.15 Q7.9 -13.8 8.05 -13.5 L8.15 -13.05 8.25 -12.3 Q8.25 -12.15 8.25 -12.0 L8.25 -11.95 8.2 -11.7 8.15 -11.65 Q6.9 -11.95 6.3 -11.05 5.9 -10.45 5.9 -9.6 5.9 -9.4 5.95 -8.85 6.0 -8.3 6.1 -8.2 L6.15 -8.2 Q6.15 -8.3 6.2 -8.55 6.2 -10.0 6.25 -10.35 6.55 -11.35 7.7 -11.35 L8.15 -11.35 8.05 -11.25 8.2 -11.35 8.35 -11.3 Q8.55 -11.3 8.55 -11.45 L8.6 -11.15 Q8.6 -10.8 8.5 -10.5 8.0 -10.25 7.65 -9.95 L7.35 -9.65 6.75 -9.7 Q6.7 -9.1 6.75 -7.9 L6.85 -6.7 6.85 -6.0 6.65 -5.8 Q6.65 -5.75 6.65 -5.7 L6.7 -5.7 6.8 -5.65 6.75 -5.05 Q7.9 -5.2 8.85 -5.6 9.3 -5.85 9.85 -6.4 L10.1 -6.7 10.25 -6.75 11.0 -7.3 11.05 -7.35 11.05 -7.4 11.1 -7.5 Q11.3 -7.75 11.55 -8.6 L11.9 -9.8 12.1 -10.75 Q12.1 -11.05 11.85 -11.15 L11.5 -11.3 11.4 -11.3 Q11.35 -11.4 11.35 -11.5 M-4.95 -12.45 L-4.25 -12.4 -3.95 -12.3 -4.0 -12.0 Q-4.0 -11.9 -3.75 -11.7 -3.65 -11.5 -3.4 -11.4 L-3.55 -11.35 -3.4 -11.25 -3.35 -11.0 Q-3.3 -10.85 -3.15 -10.85 L-3.15 -10.8 Q-2.95 -9.95 -2.45 -9.15 L-2.4 -9.05 -2.3 -8.95 Q-1.95 -8.45 -1.5 -8.1 L-1.4 -8.05 -1.35 -7.8 -1.35 -7.7 Q-1.25 -7.8 -1.15 -7.9 -0.55 -7.55 0.15 -7.55 L0.25 -7.55 Q0.05 -7.35 0.05 -7.1 0.05 -6.95 0.15 -6.8 0.3 -6.6 0.5 -6.55 L0.35 -6.55 Q-0.65 -6.55 -1.5 -7.3 L-1.5 -7.45 -1.6 -7.35 -2.1 -7.85 -2.25 -8.05 -2.35 -8.15 Q-2.4 -8.35 -2.6 -8.65 -2.75 -8.9 -2.95 -9.0 L-3.15 -9.3 -3.05 -9.05 -3.15 -9.15 Q-3.5 -9.55 -3.95 -9.9 L-4.15 -10.1 -4.1 -10.0 -4.45 -10.25 -4.5 -10.45 Q-4.6 -10.9 -4.9 -11.05 L-4.8 -11.05 Q-4.55 -10.95 -4.3 -10.75 L-3.75 -10.35 -3.7 -10.4 -3.8 -10.55 -3.85 -10.6 Q-4.15 -10.95 -4.4 -11.15 L-4.55 -11.25 Q-4.7 -11.35 -4.8 -11.35 L-4.75 -11.4 -4.95 -11.65 -5.0 -11.7 -5.05 -11.9 -5.0 -11.9 -4.95 -12.0 -5.0 -12.05 -4.95 -12.45 M-3.65 -12.15 L-3.4 -12.05 -3.6 -11.95 -3.65 -12.0 -3.65 -12.15 M2.9 -12.15 L3.0 -12.25 Q3.6 -12.6 3.6 -13.25 3.6 -13.9 3.1 -14.4 L2.95 -14.6 Q3.5 -15.1 4.4 -15.1 L5.4 -14.7 Q5.6 -14.55 5.7 -14.35 L5.95 -13.85 Q6.05 -13.55 6.05 -13.15 L5.95 -12.6 Q5.8 -12.35 5.55 -12.05 L5.05 -11.45 Q4.8 -11.35 4.45 -11.35 3.7 -11.35 3.2 -11.5 L2.9 -12.15 M11.6 -11.0 L11.75 -11.0 Q11.95 -11.0 11.95 -10.9 L11.95 -10.85 11.9 -10.6 Q11.85 -10.8 11.65 -11.0 L11.6 -11.0 M11.7 -9.6 Q11.55 -8.95 11.45 -8.75 11.3 -7.95 11.05 -7.6 L10.85 -7.4 10.55 -7.15 10.5 -7.15 10.6 -7.2 11.25 -8.6 11.7 -9.6 M7.5 -8.25 L7.45 -8.25 Q7.15 -8.65 7.15 -8.75 7.15 -9.35 8.25 -10.0 L8.95 -10.35 9.05 -10.45 Q9.3 -10.55 9.5 -10.65 L9.75 -10.0 Q9.95 -9.25 10.0 -8.8 L9.8 -8.4 Q9.5 -7.9 9.2 -7.7 L8.75 -7.7 Q8.65 -7.7 8.05 -8.0 L7.5 -8.25 M-3.05 -11.75 L-2.9 -11.6 -2.95 -11.6 -3.35 -11.8 -3.2 -11.75 -3.05 -11.75 M2.45 -9.8 L3.2 -10.35 2.45 -9.8 M-4.4 -10.1 L-3.4 -8.95 Q-2.75 -8.25 -2.75 -7.7 -2.75 -7.45 -2.8 -7.2 L-3.0 -6.85 -3.25 -6.55 -3.4 -6.4 -3.4 -6.45 -3.45 -7.5 Q-3.6 -8.45 -4.2 -8.5 -4.1 -8.55 -4.15 -8.55 -4.2 -8.6 -4.35 -8.6 L-4.4 -8.6 -4.35 -8.9 Q-4.35 -9.55 -4.4 -10.1 M-4.65 -7.8 L-4.55 -7.55 -4.45 -7.2 -4.4 -6.65 -4.45 -6.3 -4.55 -5.85 -4.6 -5.65 Q-4.75 -5.3 -5.2 -4.8 L-5.45 -4.45 -5.6 -4.4 -5.6 -4.45 -5.65 -4.4 -5.75 -4.4 Q-6.5 -4.4 -7.1 -5.2 L-7.0 -5.15 Q-5.85 -5.15 -5.0 -6.9 -4.8 -7.3 -4.65 -7.8 M-5.45 -2.25 L-5.5 -2.15 -5.75 -2.4 Q-5.9 -2.55 -5.9 -2.7 L-5.85 -2.95 -5.85 -2.85 Q-5.85 -2.75 -5.55 -2.4 L-5.45 -2.25 M-5.9 -3.65 Q-5.9 -3.35 -6.0 -3.2 -6.1 -2.95 -6.1 -2.75 L-5.95 -2.3 Q-5.85 -2.0 -5.65 -1.9 L-5.9 -1.5 -7.15 -3.45 -7.0 -3.85 Q-6.8 -4.3 -6.55 -4.4 L-6.45 -4.4 -6.25 -4.25 -6.2 -4.25 -6.1 -4.2 -6.05 -4.15 Q-5.95 -4.0 -5.9 -3.65 M-8.2 -10.6 L-8.15 -10.65 -7.4 -11.2 Q-7.3 -11.15 -7.2 -11.15 L-7.15 -11.15 Q-7.2 -11.25 -7.3 -11.55 L-7.45 -11.85 Q-7.7 -12.2 -7.7 -12.4 L-7.45 -12.35 Q-7.45 -12.2 -7.2 -11.9 L-7.1 -11.6 -7.15 -11.6 -7.05 -11.4 Q-6.95 -11.2 -6.8 -11.1 L-6.9 -11.05 -7.0 -11.1 Q-7.25 -10.9 -7.6 -10.35 L-7.7 -10.25 -7.75 -10.15 Q-8.0 -10.15 -8.1 -10.4 -8.2 -10.5 -8.2 -10.6 M-4.5 -5.35 L-4.45 -5.45 Q-4.15 -6.3 -4.15 -6.95 -4.15 -7.35 -4.3 -7.8 -4.4 -8.1 -4.55 -8.25 L-4.55 -8.3 -4.3 -8.3 Q-3.85 -8.3 -3.65 -7.7 -3.55 -7.35 -3.55 -7.0 L-3.6 -6.95 -3.6 -6.6 Q-3.6 -6.25 -3.5 -6.2 L-3.5 -6.15 -3.5 -6.1 Q-3.75 -5.35 -4.2 -5.2 L-4.5 -5.3 -4.5 -5.35 M-6.75 -15.0 Q-6.6 -15.15 -6.4 -15.25 L-6.25 -15.3 Q-6.0 -14.9 -5.8 -14.7 L-5.8 -14.65 -6.4 -14.5 -6.3 -14.55 -6.4 -14.6 -6.5 -14.6 -6.65 -14.85 -6.75 -15.0 M-7.05 -14.25 L-6.95 -14.7 -7.05 -14.25 M-2.75 -15.7 Q-2.75 -16.45 -2.6 -16.85 L-2.55 -16.9 -2.25 -16.9 Q-1.7 -16.9 -1.4 -16.6 L-1.3 -16.55 -1.3 -16.5 Q-1.65 -16.15 -2.0 -16.0 -2.3 -15.9 -2.75 -15.7 M-5.4 -11.95 L-5.3 -12.2 -5.4 -11.95" fill="#a9854f" fill-rule="evenodd" stroke="none"/>
    <path d="M-0.2 -12.9 Q-1.3 -12.6 -2.75 -11.65 L-2.85 -11.6 Q-1.65 -11.3 0.25 -10.55 L0.3 -10.55 0.7 -10.4 Q3.1 -9.45 3.6 -8.95 3.4 -9.25 3.15 -10.2 2.8 -11.5 2.45 -12.1 1.6 -13.4 -0.2 -12.9 M2.8 -12.05 Q3.0 -11.55 3.55 -10.05 4.1 -8.55 4.1 -8.4 L4.05 -8.2 Q4.0 -8.15 3.9 -8.15 3.85 -8.15 3.35 -8.65 L2.75 -9.25 1.85 -9.65 0.55 -10.2 -1.95 -11.05 Q-3.75 -11.65 -3.75 -11.75 L-3.75 -11.8 -3.7 -11.85 -3.65 -11.85 -3.35 -11.75 Q-3.0 -11.75 -1.6 -12.5 -0.1 -13.3 0.0 -13.35 1.1 -13.6 1.95 -13.0 2.45 -12.65 2.8 -12.05 M2.1 -9.25 Q2.1 -9.15 1.75 -8.45 L1.15 -7.4 1.05 -7.4 Q1.0 -7.4 1.0 -7.45 1.0 -7.7 1.5 -8.45 1.9 -9.25 2.1 -9.35 L2.1 -9.25 M-7.05 -12.5 Q-6.3 -12.3 -5.55 -12.0 -5.7 -12.55 -6.2 -13.45 L-6.95 -14.9 Q-7.3 -14.8 -7.7 -14.4 L-8.15 -14.0 Q-8.9 -13.25 -8.9 -12.85 L-8.05 -12.7 -7.05 -12.5 M-6.5 -14.55 Q-6.1 -13.85 -5.7 -13.15 -5.0 -11.8 -5.0 -11.55 L-5.0 -11.45 -5.1 -11.4 -5.85 -11.75 Q-6.65 -12.1 -6.95 -12.15 L-8.35 -12.4 -8.45 -12.4 -8.65 -12.45 Q-9.15 -12.55 -9.15 -12.85 -9.15 -13.1 -8.85 -13.6 -8.5 -14.15 -8.1 -14.55 -6.95 -15.65 -6.5 -14.55 M-4.25 -7.45 L-4.2 -7.2 Q-4.2 -7.05 -4.3 -6.9 -4.4 -7.0 -4.45 -7.45 -4.45 -7.6 -4.35 -7.7 L-4.25 -7.45" fill="#000000" fill-rule="evenodd" stroke="none"/>
    <path d="M-0.2 -12.9 Q-0.1 -12.55 0.25 -12.1 L0.7 -11.5 Q0.7 -11.45 0.5 -11.1 0.3 -10.8 0.25 -10.55 -1.65 -11.3 -2.85 -11.6 L-2.75 -11.65 Q-1.3 -12.6 -0.2 -12.9 M-7.7 -14.4 Q-7.65 -13.95 -7.2 -12.85 L-7.05 -12.5 -8.05 -12.7 -8.9 -12.85 Q-8.9 -13.25 -8.15 -14.0 L-7.7 -14.4" fill="#003060" fill-rule="evenodd" stroke="none"/>
    <path d="M0.25 -10.55 Q0.3 -10.8 0.5 -11.1 0.7 -11.45 0.7 -11.5 L0.25 -12.1 Q-0.1 -12.55 -0.2 -12.9 1.6 -13.4 2.45 -12.1 2.8 -11.5 3.15 -10.2 3.4 -9.25 3.6 -8.95 3.1 -9.45 0.7 -10.4 L0.3 -10.55 0.25 -10.55 M-7.7 -14.4 Q-7.3 -14.8 -6.95 -14.9 L-6.2 -13.45 Q-5.7 -12.55 -5.55 -12.0 -6.3 -12.3 -7.05 -12.5 L-7.2 -12.85 Q-7.65 -13.95 -7.7 -14.4" fill="#002040" fill-rule="evenodd" stroke="none"/>
  </g>
</svg>
