<?xml version="1.0" encoding="UTF-8" standalone="no"?>
<svg xmlns:ffdec="https://www.free-decompiler.com/flash" xmlns:xlink="http://www.w3.org/1999/xlink" ffdec:objectType="shape" height="32.75px" width="35.25px" xmlns="http://www.w3.org/2000/svg">
  <g transform="matrix(1.0, 0.0, 0.0, 1.0, 12.85, 32.8)">
    <path d="M1.85 -31.0 Q2.55 -30.4 5.8 -30.05 9.45 -29.7 9.75 -29.55 11.45 -28.85 12.7 -28.05 14.2 -27.05 14.7 -26.05 L14.7 -26.0 14.6 -25.9 13.55 -26.45 Q14.2 -25.95 14.9 -25.35 15.55 -24.9 16.05 -24.45 16.4 -24.15 16.75 -23.8 L17.25 -23.15 17.75 -22.6 17.65 -21.9 17.2 -22.35 15.65 -22.95 Q15.95 -22.55 16.25 -22.0 L16.6 -21.35 16.75 -20.75 Q16.9 -20.1 16.9 -19.35 L16.9 -18.5 16.8 -18.1 16.75 -17.75 Q16.8 -17.7 16.55 -17.7 16.35 -17.7 16.2 -17.95 16.25 -17.5 16.15 -16.95 16.15 -16.65 15.95 -16.1 L15.9 -16.0 Q17.2 -16.25 18.45 -16.2 L18.95 -16.25 20.55 -15.9 20.7 -15.85 22.05 -15.35 22.1 -15.25 22.2 -15.15 22.4 -14.65 21.8 -14.4 Q21.65 -14.35 21.55 -14.3 L20.7 -13.9 Q18.45 -12.7 16.9 -10.75 L15.35 -8.55 14.6 -7.6 Q14.45 -7.3 14.05 -7.0 L13.55 -6.5 13.45 -6.55 12.95 -6.3 Q11.75 -5.7 10.25 -5.45 L10.2 -5.4 10.0 -5.4 Q9.15 -5.15 8.45 -5.1 7.35 -4.5 6.7 -4.15 5.05 -3.15 4.4 -2.5 3.7 -1.8 2.3 -1.1 0.2 -0.05 -2.0 -0.05 L-2.8 -0.05 -3.45 -0.1 -3.5 -0.1 Q-4.15 -0.45 -4.95 -0.75 L-5.2 -0.9 Q-5.9 -1.4 -6.35 -2.15 L-6.75 -2.6 -6.75 -2.65 Q-6.95 -2.95 -6.95 -3.25 L-7.2 -3.6 -7.5 -4.05 -7.55 -4.1 -8.2 -4.95 -8.5 -5.4 -8.8 -5.7 -9.05 -6.15 -9.4 -6.6 Q-9.45 -6.85 -9.7 -7.1 -10.0 -7.75 -10.0 -8.2 -10.0 -8.4 -9.7 -9.25 L-9.6 -9.55 Q-9.45 -9.75 -9.4 -10.05 L-8.55 -11.75 -8.4 -12.1 -8.45 -12.15 -8.55 -12.15 -8.6 -12.2 -8.95 -12.2 Q-9.7 -12.2 -10.75 -11.65 L-11.5 -11.1 -11.6 -11.25 Q-11.95 -11.3 -12.2 -11.85 L-12.3 -12.1 Q-12.45 -12.35 -12.55 -12.65 -12.85 -13.4 -12.85 -14.0 -12.85 -15.25 -12.25 -16.15 -11.95 -16.55 -11.5 -16.85 -10.75 -17.45 -9.65 -17.5 L-9.15 -17.55 -9.15 -17.6 -9.0 -17.6 Q-8.95 -17.75 -8.6 -18.1 L-8.25 -18.45 Q-8.65 -19.8 -8.65 -20.05 -8.65 -20.8 -8.0 -21.8 -7.6 -22.45 -7.2 -22.8 L-7.4 -22.7 -7.7 -22.65 Q-8.2 -22.5 -8.75 -22.5 L-9.25 -22.55 Q-9.25 -22.6 -9.35 -22.7 -9.15 -22.75 -8.95 -22.85 L-8.35 -23.4 Q-7.6 -24.3 -7.25 -25.6 -6.75 -27.6 -5.4 -28.0 L-5.8 -28.1 -7.6 -27.85 -8.05 -27.85 Q-8.1 -27.85 -8.1 -27.9 L-8.25 -27.95 Q-8.3 -27.85 -8.3 -28.1 L-8.3 -28.2 -8.35 -28.25 -8.2 -28.3 Q-8.0 -28.6 -7.25 -28.9 L-6.85 -29.15 Q-5.85 -29.75 -4.0 -30.0 L-2.9 -30.2 Q-3.45 -30.35 -3.8 -30.9 L-4.15 -31.65 Q-4.15 -31.95 -3.95 -32.05 -3.6 -31.35 -2.95 -31.05 L-2.45 -30.8 -2.45 -30.9 -2.5 -31.55 Q-2.5 -32.85 -1.75 -32.05 L-0.55 -30.8 -0.55 -32.5 Q-0.5 -32.9 -0.3 -32.7 L-0.3 -32.75 -0.25 -32.8 Q0.1 -32.7 0.75 -32.1 L1.85 -31.0 M0.8 -30.85 Q0.3 -31.6 0.0 -31.9 0.0 -31.45 -0.15 -30.5 L-0.3 -30.4 -0.5 -30.4 Q-0.55 -30.4 -0.55 -30.5 L-0.7 -30.5 Q-1.05 -30.5 -1.6 -31.15 -1.9 -31.45 -2.1 -31.85 L-2.2 -31.85 -2.2 -31.15 -2.0 -30.65 -2.0 -30.6 -1.7 -30.4 -1.8 -30.3 -1.55 -30.1 Q-1.7 -29.95 -2.15 -29.85 -2.65 -29.65 -3.55 -29.5 L-5.35 -29.25 -5.9 -29.1 Q-6.1 -29.05 -6.45 -28.85 L-7.25 -28.35 -6.4 -28.5 Q-4.65 -28.7 -4.65 -28.2 L-4.65 -27.65 Q-5.15 -27.5 -5.7 -27.15 L-6.2 -26.75 Q-6.6 -26.15 -6.85 -25.3 L-6.95 -25.0 Q-7.05 -24.5 -7.2 -24.15 L-7.25 -24.05 -7.35 -23.75 Q-7.55 -23.35 -7.85 -23.1 L-7.95 -23.0 -8.05 -22.95 Q-7.55 -22.95 -6.95 -23.2 L-6.7 -23.35 -6.6 -23.35 Q-6.5 -23.3 -6.4 -23.25 L-6.35 -23.25 -6.35 -23.2 -6.3 -23.2 Q-6.25 -23.15 -6.25 -23.05 -6.25 -22.85 -7.05 -21.8 -7.85 -20.55 -7.85 -19.35 L-7.8 -19.05 -7.75 -18.9 -7.65 -18.45 -7.5 -17.85 -7.5 -17.7 -7.8 -17.85 -7.9 -18.0 -7.95 -17.9 -8.3 -17.35 -8.05 -17.25 Q-7.4 -17.05 -6.5 -16.5 L-6.05 -16.45 -6.25 -16.5 -5.65 -16.4 -5.45 -16.35 -1.85 -15.55 1.15 -14.8 1.15 -14.85 1.75 -14.6 2.4 -14.4 2.6 -14.4 2.85 -14.25 Q2.5 -14.85 2.3 -15.4 L2.4 -15.4 2.45 -15.5 2.55 -15.5 Q2.8 -15.3 3.65 -13.9 L4.0 -13.4 4.1 -13.25 4.55 -12.5 4.7 -13.05 Q4.65 -13.4 4.7 -13.8 L4.65 -14.15 4.45 -14.75 Q4.45 -14.85 4.5 -15.0 4.2 -16.0 3.6 -17.0 4.6 -16.35 4.95 -14.95 L5.4 -13.55 Q5.8 -12.5 6.5 -11.75 L6.6 -11.7 6.8 -11.85 6.9 -11.85 Q7.5 -12.4 8.6 -13.0 L9.0 -13.15 9.0 -13.2 Q10.4 -14.05 10.6 -14.15 11.75 -14.75 13.1 -15.1 13.7 -15.4 14.05 -15.5 L14.85 -15.75 15.1 -16.35 Q15.4 -17.05 15.4 -17.55 L15.25 -18.5 15.05 -19.65 Q15.75 -19.7 15.9 -18.85 L15.95 -18.85 16.15 -18.65 16.35 -18.4 15.95 -20.55 Q15.6 -22.3 14.25 -23.35 L14.15 -23.45 14.2 -23.45 14.2 -23.6 14.4 -23.65 14.55 -23.6 15.2 -23.4 16.6 -22.9 15.35 -24.05 Q12.6 -26.45 10.15 -27.5 10.1 -27.35 10.1 -27.6 10.1 -28.6 11.95 -27.5 L12.0 -27.5 12.05 -27.45 12.15 -27.5 12.05 -27.55 11.3 -28.0 11.15 -28.1 Q10.95 -28.25 10.85 -28.25 L10.05 -28.65 Q9.0 -29.1 7.0 -29.35 L5.7 -29.45 Q4.7 -29.5 3.8 -29.65 2.65 -29.75 1.85 -30.15 1.2 -30.35 0.8 -30.85 M18.85 -13.7 Q19.7 -14.25 20.7 -14.5 L21.75 -14.8 20.7 -15.05 20.55 -15.05 Q19.2 -15.35 17.45 -15.4 L15.2 -14.95 15.2 -15.05 Q14.85 -15.0 14.15 -14.75 L13.0 -14.4 10.25 -13.15 Q7.5 -11.3 6.65 -10.8 L6.35 -10.6 6.15 -10.6 Q6.1 -10.6 6.1 -10.75 6.1 -11.0 6.35 -11.3 6.1 -11.3 5.8 -11.7 5.6 -12.0 5.35 -12.45 5.2 -12.7 5.1 -12.95 L5.1 -12.35 5.0 -11.95 4.9 -11.75 4.95 -11.7 4.9 -11.45 4.7 -11.4 4.5 -11.6 Q4.5 -11.65 4.5 -11.7 L3.95 -12.45 Q3.6 -12.7 3.3 -13.05 L3.15 -13.2 2.9 -13.45 2.6 -13.9 2.55 -13.9 0.9 -14.5 -1.75 -15.1 -2.0 -15.0 Q-2.25 -14.95 -2.45 -14.95 L-2.6 -14.95 Q-2.85 -14.95 -2.9 -15.05 -2.85 -15.15 -2.45 -15.2 L-2.35 -15.2 -2.3 -15.25 -2.4 -15.25 -3.1 -15.4 -3.65 -15.5 -4.1 -15.6 -4.4 -15.7 -4.5 -15.7 Q-4.55 -15.65 -4.65 -15.75 L-5.1 -15.85 -5.95 -16.2 -6.05 -16.2 -5.5 -15.9 -5.5 -15.8 -5.45 -15.75 -5.25 -15.6 -5.1 -15.6 Q-4.8 -15.55 -4.6 -15.4 L-4.3 -15.2 -4.1 -15.0 -4.15 -14.9 -4.55 -15.1 -4.65 -15.15 -4.7 -15.15 -4.65 -15.1 -4.35 -14.85 -4.35 -14.75 -3.85 -14.3 Q-4.4 -14.55 -5.05 -15.15 L-5.2 -15.3 -5.3 -15.3 -5.3 -15.35 -6.3 -16.0 -6.45 -16.1 Q-7.15 -16.65 -8.45 -16.9 L-8.6 -16.95 -8.65 -16.9 -8.8 -16.95 -8.85 -17.0 -10.3 -16.95 Q-10.7 -16.85 -10.95 -16.6 -12.3 -15.8 -12.4 -14.2 -12.35 -13.6 -12.05 -12.85 L-11.95 -12.65 -11.6 -11.95 -11.55 -11.9 -11.55 -11.85 Q-11.1 -12.2 -10.45 -12.35 L-9.9 -12.5 Q-9.05 -12.8 -8.35 -12.65 -7.8 -12.4 -7.4 -12.05 -6.6 -11.75 -6.3 -11.1 L-6.3 -11.05 Q-6.25 -11.0 -6.25 -10.85 -6.2 -10.85 -6.25 -10.8 L-6.35 -10.8 -6.35 -10.75 -6.45 -10.65 -6.55 -10.4 -6.6 -10.4 Q-6.7 -10.15 -6.95 -9.85 L-7.55 -9.1 -7.65 -8.95 -7.4 -8.75 -7.1 -8.55 Q-6.85 -8.3 -6.75 -8.1 L-6.05 -7.45 Q-5.65 -7.05 -5.15 -6.9 -4.75 -6.75 -4.3 -6.75 L-3.55 -6.75 -3.05 -6.8 Q-1.65 -6.9 -0.65 -7.35 L-0.6 -7.45 Q-0.05 -7.55 0.1 -8.15 L0.2 -8.25 Q0.25 -9.35 0.65 -10.25 1.25 -11.55 2.15 -10.0 L2.05 -9.8 2.3 -10.05 2.45 -10.35 2.45 -10.45 Q2.6 -11.1 2.65 -11.5 L1.6 -11.9 0.9 -12.2 -0.1 -12.65 0.0 -12.65 0.35 -12.55 0.2 -12.65 Q1.85 -12.45 3.15 -11.75 L3.05 -11.55 3.15 -11.4 3.2 -11.25 3.4 -10.8 3.7 -9.65 3.7 -9.4 Q3.7 -9.35 3.55 -9.3 L3.4 -9.6 3.4 -9.7 Q3.2 -10.1 3.05 -10.65 L2.9 -11.05 2.85 -10.9 2.8 -10.65 2.85 -10.65 2.85 -10.5 2.8 -10.3 Q2.65 -9.95 2.05 -9.35 L1.05 -8.4 0.75 -8.1 0.3 -7.6 0.15 -7.5 Q0.05 -7.45 0.0 -7.4 -0.75 -6.7 -1.4 -6.15 -1.8 -5.75 -2.25 -5.4 -3.75 -4.2 -4.9 -4.1 L-5.55 -4.1 Q-5.75 -4.15 -5.85 -4.25 L-5.95 -4.35 -5.85 -4.15 -6.05 -4.25 Q-6.15 -4.55 -6.15 -4.85 L-6.1 -4.75 -6.2 -5.05 -6.15 -5.6 -6.0 -6.1 -5.9 -6.95 -5.95 -6.95 Q-6.55 -7.2 -6.9 -7.55 L-7.0 -7.65 -7.15 -7.85 Q-7.3 -8.05 -7.4 -8.3 L-7.9 -8.7 -8.05 -8.7 -8.05 -8.8 -8.4 -8.95 Q-8.1 -9.85 -7.45 -10.35 -7.05 -10.7 -6.95 -11.1 L-7.35 -11.5 -7.6 -11.7 -7.65 -11.75 -8.0 -11.95 -8.1 -11.75 Q-8.3 -11.25 -8.7 -10.4 L-8.7 -10.35 Q-8.95 -9.7 -9.1 -9.45 L-9.15 -9.45 -9.15 -9.4 -9.3 -8.95 -9.4 -8.25 Q-9.4 -7.8 -8.85 -6.7 L-8.35 -6.0 -7.65 -5.05 -7.6 -5.05 -7.55 -4.95 -7.3 -4.6 -7.4 -5.3 -7.45 -5.6 -7.45 -5.7 -7.5 -5.85 -7.5 -6.1 -7.45 -6.7 -7.55 -7.25 Q-7.75 -7.65 -7.75 -7.8 L-7.75 -7.85 -7.75 -7.95 -7.6 -8.0 -7.55 -7.9 -7.5 -7.8 Q-7.35 -7.55 -7.25 -7.2 L-7.25 -7.15 -7.2 -6.95 -7.1 -7.05 -7.1 -6.95 Q-7.05 -6.4 -7.0 -5.5 L-7.0 -5.35 Q-6.95 -4.85 -6.85 -4.45 L-6.7 -3.85 -6.65 -3.75 -6.6 -3.6 Q-5.85 -1.9 -3.3 -0.7 L-3.25 -0.8 -3.05 -0.6 -3.0 -0.6 -1.0 -0.75 -0.85 -0.75 Q-0.2 -0.85 1.0 -1.25 2.75 -3.0 3.8 -4.3 4.5 -5.2 4.85 -5.85 L5.0 -6.25 5.05 -6.3 5.05 -6.4 5.3 -7.4 5.35 -7.7 5.35 -8.35 Q5.3 -10.0 5.3 -11.15 L5.3 -11.4 5.4 -11.4 5.55 -10.9 5.7 -10.45 5.7 -9.65 Q5.7 -7.75 5.15 -6.15 4.95 -5.55 4.65 -5.0 L4.45 -4.6 4.35 -4.5 3.45 -3.2 Q2.75 -2.4 1.9 -1.6 L2.65 -2.05 Q3.25 -2.4 3.95 -2.95 5.65 -4.2 6.3 -4.65 7.05 -5.1 7.65 -5.35 L7.65 -5.55 Q7.35 -5.7 6.9 -5.95 6.25 -6.4 6.25 -6.6 6.25 -6.65 6.3 -6.7 L6.3 -6.75 6.4 -6.7 Q6.6 -6.6 7.1 -6.35 L7.55 -6.05 8.1 -5.75 8.45 -5.85 9.05 -5.85 10.65 -6.3 13.0 -6.85 13.25 -7.05 Q13.6 -7.35 13.9 -7.95 14.15 -8.4 14.4 -8.7 14.6 -9.1 14.95 -9.6 L15.0 -9.6 15.05 -9.65 16.65 -11.7 Q17.5 -12.9 18.8 -13.7 L18.85 -13.7 M11.05 -7.25 Q10.55 -7.0 10.0 -7.0 9.55 -7.0 9.45 -7.1 9.95 -7.3 10.4 -7.55 L10.45 -7.55 10.85 -7.85 11.4 -8.2 11.5 -8.25 11.75 -8.45 Q13.0 -9.35 13.0 -9.9 13.0 -10.25 12.6 -10.5 12.1 -10.75 10.45 -11.3 L11.0 -11.35 Q12.0 -11.35 12.55 -11.05 L12.6 -11.05 12.9 -10.85 Q13.25 -10.5 13.25 -9.9 13.25 -9.8 13.15 -9.6 13.0 -9.15 12.4 -8.4 11.75 -7.6 11.05 -7.25 M10.2 -12.05 L11.15 -12.65 11.05 -12.65 11.55 -12.9 11.6 -12.9 11.75 -12.95 12.3 -13.2 15.25 -14.55 Q16.05 -14.8 16.75 -14.9 L16.8 -14.9 16.9 -14.95 Q18.2 -15.1 19.05 -14.65 L18.1 -14.6 17.1 -14.45 17.05 -14.45 15.25 -13.95 14.85 -13.85 Q13.7 -13.5 12.6 -13.0 L11.15 -12.35 11.15 -12.25 Q11.05 -11.9 10.35 -11.55 L10.0 -11.3 10.4 -11.3 Q9.9 -11.0 9.3 -10.8 L8.8 -10.5 Q8.65 -10.3 8.65 -9.9 8.65 -9.3 8.75 -8.85 L8.75 -8.8 9.0 -8.8 Q9.1 -8.8 9.4 -8.9 9.65 -9.0 9.8 -9.0 L10.2 -9.0 Q11.0 -10.1 11.0 -10.25 10.9 -10.5 10.9 -11.05 L10.9 -11.15 Q11.3 -11.05 11.3 -10.65 11.3 -10.45 11.0 -9.85 10.65 -9.25 10.4 -9.0 L10.45 -9.0 10.55 -8.8 Q10.55 -8.75 10.5 -8.8 L10.3 -8.8 Q9.8 -8.8 9.5 -8.7 9.2 -8.55 9.05 -8.55 8.55 -8.55 8.45 -9.25 L8.45 -9.95 Q8.45 -10.65 8.55 -10.75 L8.65 -10.8 8.7 -10.9 8.65 -10.85 8.6 -10.85 8.8 -11.05 10.05 -11.95 10.2 -12.05 M22.1 -14.6 L22.1 -14.6 M6.1 -13.55 L6.25 -13.55 Q6.45 -13.3 6.8 -12.2 6.8 -11.95 6.75 -11.9 L6.65 -11.9 Q6.65 -12.15 6.5 -12.65 L6.1 -13.45 6.1 -13.55 M2.1 -13.05 Q1.7 -13.2 0.45 -13.9 -0.65 -14.6 -2.0 -14.55 L-2.25 -14.65 Q-0.8 -15.1 0.65 -14.3 1.45 -13.85 2.15 -13.05 L2.2 -13.0 2.1 -13.05 M1.75 -10.0 L1.3 -10.55 Q0.75 -9.95 0.6 -9.05 L0.55 -8.5 1.9 -9.7 1.95 -9.75 1.75 -10.0 M-3.45 -11.65 L-2.9 -11.15 Q-2.5 -11.45 -2.15 -11.8 -1.75 -12.25 -1.75 -12.45 -1.75 -12.7 -2.0 -13.0 L-2.5 -13.45 -2.5 -13.5 Q-2.05 -13.5 -1.75 -13.15 -1.5 -12.8 -1.5 -12.5 -1.5 -12.0 -1.8 -11.55 -2.1 -11.05 -2.75 -10.9 L-2.9 -10.85 -3.0 -10.85 -2.95 -10.75 -3.2 -11.0 -3.5 -11.2 -3.85 -11.55 Q-4.7 -12.25 -4.95 -12.25 -5.25 -12.25 -5.45 -12.0 L-5.5 -11.9 -5.5 -11.7 -5.55 -11.75 -5.6 -11.7 Q-5.4 -11.55 -4.9 -11.3 -4.95 -11.25 -5.2 -11.25 -5.7 -11.25 -5.8 -11.5 L-5.8 -11.6 Q-5.8 -12.0 -5.7 -12.2 L-5.7 -12.25 Q-5.7 -13.3 -4.7 -12.65 -4.3 -12.35 -3.45 -11.65 M-1.1 -13.2 Q-1.2 -13.2 -1.55 -13.55 -1.9 -13.95 -2.1 -14.05 -1.9 -14.1 -1.6 -13.8 L-1.1 -13.25 -1.1 -13.2 M-2.55 -6.5 L-2.95 -6.5 Q-2.95 -6.35 -3.2 -5.7 -3.3 -5.5 -3.35 -5.25 -2.4 -5.65 -1.9 -6.1 -1.55 -6.35 -1.0 -6.95 L-1.5 -6.8 Q-2.1 -6.5 -2.55 -6.5" fill="#000000" fill-rule="evenodd" stroke="none"/>
    <path d="M0.8 -30.85 Q1.2 -30.35 1.85 -30.15 2.65 -29.75 3.8 -29.65 4.7 -29.5 5.7 -29.45 L7.0 -29.35 Q9.0 -29.1 10.05 -28.65 L10.85 -28.25 Q10.95 -28.25 11.15 -28.1 L11.3 -28.0 12.05 -27.55 12.15 -27.5 12.05 -27.45 12.0 -27.5 11.95 -27.5 Q10.1 -28.6 10.1 -27.6 10.1 -27.35 10.15 -27.5 12.6 -26.45 15.35 -24.05 L16.6 -22.9 15.2 -23.4 14.55 -23.6 14.4 -23.65 14.2 -23.6 14.2 -23.45 14.15 -23.45 14.25 -23.35 Q15.6 -22.3 15.95 -20.55 L16.35 -18.4 16.15 -18.65 15.95 -18.85 15.9 -18.85 Q15.75 -19.7 15.05 -19.65 L15.25 -18.5 15.4 -17.55 Q15.4 -17.05 15.1 -16.35 L14.85 -15.75 14.05 -15.5 Q13.7 -15.4 13.1 -15.1 11.75 -14.75 10.6 -14.15 10.4 -14.05 9.0 -13.2 L9.0 -13.15 8.6 -13.0 Q7.5 -12.4 6.9 -11.85 L6.8 -11.85 6.6 -11.7 6.5 -11.75 Q5.8 -12.5 5.4 -13.55 L4.95 -14.95 Q4.6 -16.35 3.6 -17.0 4.2 -16.0 4.5 -15.0 4.45 -14.85 4.45 -14.75 L4.65 -14.15 4.7 -13.8 Q4.65 -13.4 4.7 -13.05 L4.55 -12.5 4.1 -13.25 4.0 -13.4 3.65 -13.9 Q2.8 -15.3 2.55 -15.5 L2.45 -15.5 2.4 -15.4 2.3 -15.4 Q2.5 -14.85 2.85 -14.25 L2.6 -14.4 2.4 -14.4 1.75 -14.6 1.15 -14.85 1.15 -14.8 -1.85 -15.55 -5.45 -16.35 -5.65 -16.4 -6.25 -16.5 -6.05 -16.45 -6.5 -16.5 Q-7.4 -17.05 -8.05 -17.25 L-8.3 -17.35 -7.95 -17.9 -7.9 -18.0 -7.8 -17.85 -7.5 -17.7 -7.5 -17.85 -7.65 -18.45 -7.75 -18.9 -7.8 -19.05 -7.85 -19.35 Q-7.85 -20.55 -7.05 -21.8 -6.25 -22.85 -6.25 -23.05 -6.25 -23.15 -6.3 -23.2 L-6.35 -23.2 -6.35 -23.25 -6.4 -23.25 Q-6.5 -23.3 -6.6 -23.35 L-6.7 -23.35 -6.95 -23.2 Q-7.55 -22.95 -8.05 -22.95 L-7.95 -23.0 -7.85 -23.1 Q-7.55 -23.35 -7.35 -23.75 L-7.25 -24.05 -7.2 -24.15 Q-7.05 -24.5 -6.95 -25.0 L-6.85 -25.3 Q-6.6 -26.15 -6.2 -26.75 L-5.7 -27.15 Q-5.15 -27.5 -4.65 -27.65 L-4.65 -28.2 Q-4.65 -28.7 -6.4 -28.5 L-7.25 -28.35 -6.45 -28.85 Q-6.1 -29.05 -5.9 -29.1 L-5.35 -29.25 -3.55 -29.5 Q-2.65 -29.65 -2.15 -29.85 -1.7 -29.95 -1.55 -30.1 L-1.8 -30.3 -1.7 -30.4 -2.0 -30.6 -2.0 -30.65 -2.2 -31.15 -2.2 -31.85 -2.1 -31.85 Q-1.9 -31.45 -1.6 -31.15 -1.05 -30.5 -0.7 -30.5 L-0.55 -30.5 Q-0.55 -30.4 -0.5 -30.4 L-0.3 -30.4 -0.15 -30.5 Q0.0 -31.45 0.0 -31.9 0.3 -31.6 0.8 -30.85 M6.1 -13.55 L6.1 -13.45 6.5 -12.65 Q6.65 -12.15 6.65 -11.9 L6.75 -11.9 Q6.8 -11.95 6.8 -12.2 6.45 -13.3 6.25 -13.55 L6.1 -13.55" fill="#403020" fill-rule="evenodd" stroke="none"/>
    <path d="M6.65 -10.8 Q7.5 -11.3 10.25 -13.15 L13.0 -14.4 14.15 -14.75 Q14.85 -15.0 15.2 -15.05 L15.2 -14.95 17.45 -15.4 Q19.2 -15.35 20.55 -15.05 L20.7 -15.05 21.75 -14.8 20.7 -14.5 Q19.7 -14.25 18.85 -13.7 L18.9 -13.75 Q19.05 -13.95 19.05 -14.0 19.05 -14.5 18.1 -14.6 L19.05 -14.65 Q18.2 -15.1 16.9 -14.95 L16.8 -14.9 16.75 -14.9 Q16.05 -14.8 15.25 -14.55 L12.3 -13.2 11.75 -12.95 11.6 -12.9 11.55 -12.9 11.05 -12.65 11.15 -12.65 10.2 -12.05 Q9.35 -11.8 8.75 -11.25 7.9 -10.45 7.9 -9.2 L8.35 -8.4 Q9.0 -7.55 10.1 -7.55 L10.4 -7.55 Q9.95 -7.3 9.45 -7.1 9.55 -7.0 10.0 -7.0 10.55 -7.0 11.05 -7.25 11.4 -6.8 11.55 -6.8 12.15 -6.8 14.95 -9.6 14.6 -9.1 14.4 -8.7 14.15 -8.4 13.9 -7.95 13.6 -7.35 13.25 -7.05 L13.0 -6.85 10.65 -6.3 9.05 -5.85 8.45 -5.85 8.1 -5.75 7.55 -6.05 Q7.4 -6.35 7.2 -6.5 7.05 -6.6 6.9 -6.65 L6.95 -7.45 Q6.85 -9.35 6.65 -10.7 L6.65 -10.8 M14.85 -13.85 Q14.05 -13.25 13.15 -12.35 L12.7 -11.9 12.6 -11.95 Q11.95 -12.25 11.15 -12.25 L11.15 -12.35 12.6 -13.0 Q13.7 -13.5 14.85 -13.85 M3.15 -13.2 L3.3 -13.05 Q3.6 -12.7 3.95 -12.45 L4.5 -11.7 Q4.5 -11.65 4.5 -11.6 L4.7 -11.4 4.9 -11.45 4.95 -11.7 4.9 -11.75 5.0 -11.95 5.1 -12.35 5.1 -12.95 Q5.2 -12.7 5.35 -12.45 5.6 -12.0 5.8 -11.7 5.7 -11.5 5.6 -11.2 L5.55 -10.9 5.4 -11.4 5.3 -11.4 5.3 -11.15 Q5.3 -10.0 5.35 -8.35 L5.35 -7.7 5.05 -6.95 Q4.65 -5.9 4.65 -5.8 L4.65 -5.65 Q4.15 -5.1 3.8 -4.3 2.75 -3.0 1.0 -1.25 -0.2 -0.85 -0.85 -0.75 L-1.0 -0.75 Q-0.9 -0.85 -0.9 -1.0 -0.95 -1.65 -1.5 -1.65 -3.1 -1.65 -4.15 -2.15 -4.55 -2.4 -5.55 -3.15 -6.2 -4.15 -6.45 -4.45 -6.75 -4.7 -6.9 -4.65 L-6.85 -4.45 Q-6.95 -4.85 -7.0 -5.35 L-7.0 -5.5 Q-6.95 -5.65 -6.9 -5.85 L-6.9 -6.95 Q-6.9 -7.4 -7.0 -7.65 L-6.9 -7.55 Q-6.55 -7.2 -5.95 -6.95 L-5.9 -6.95 -6.0 -6.1 -6.15 -5.6 -6.2 -5.05 -6.1 -4.75 -6.15 -4.85 Q-6.15 -4.55 -6.05 -4.25 L-5.85 -4.15 -5.95 -4.35 -5.85 -4.25 Q-5.75 -4.15 -5.55 -4.1 L-4.9 -4.1 Q-3.75 -4.2 -2.25 -5.4 -1.8 -5.75 -1.4 -6.15 -0.75 -6.7 0.0 -7.4 0.05 -7.45 0.15 -7.5 L0.3 -7.6 0.75 -8.1 1.05 -8.4 2.05 -9.35 Q2.65 -9.95 2.8 -10.3 L2.85 -10.5 2.85 -10.65 2.8 -10.65 2.85 -10.9 2.9 -11.05 3.05 -10.65 Q3.2 -10.1 3.4 -9.7 3.25 -9.9 3.15 -10.0 3.1 -9.95 3.0 -9.0 2.85 -8.1 2.85 -7.75 2.85 -7.5 2.7 -6.65 2.7 -6.6 2.85 -6.5 2.9 -6.45 3.0 -6.4 3.15 -6.6 3.45 -7.3 3.75 -8.05 3.75 -8.3 3.55 -9.2 3.4 -9.6 L3.55 -9.3 Q3.7 -9.35 3.7 -9.4 L3.7 -9.65 3.4 -10.8 3.2 -11.25 3.15 -11.4 3.05 -11.55 3.15 -11.75 Q1.85 -12.45 0.2 -12.65 L0.35 -12.55 0.0 -12.65 0.2 -12.65 1.8 -13.05 2.1 -13.05 2.2 -13.0 2.15 -13.05 2.95 -13.05 Q3.05 -13.05 3.15 -13.2 M3.45 -3.2 L3.1 -2.8 2.65 -2.05 1.9 -1.6 Q2.75 -2.4 3.45 -3.2 M-2.6 -14.95 Q-2.65 -14.8 -2.65 -14.55 -2.65 -14.1 -2.1 -13.5 -1.35 -12.65 -0.1 -12.65 L0.9 -12.2 0.85 -12.2 Q0.7 -12.2 0.55 -12.15 0.65 -11.95 1.4 -11.5 2.1 -11.0 2.35 -11.0 2.5 -11.0 2.5 -11.05 L2.5 -11.15 Q2.25 -11.5 1.65 -11.9 L1.6 -11.9 2.65 -11.5 Q2.6 -11.1 2.45 -10.45 L2.45 -10.35 2.3 -10.05 2.05 -9.8 2.15 -10.0 Q1.25 -11.55 0.65 -10.25 0.25 -9.35 0.2 -8.25 L0.1 -8.15 Q-0.05 -7.55 -0.6 -7.45 L-0.65 -7.35 Q-1.65 -6.9 -3.05 -6.8 L-3.55 -6.75 -4.3 -6.75 Q-4.75 -6.75 -5.15 -6.9 -5.65 -7.05 -6.05 -7.45 L-6.75 -8.1 Q-6.85 -8.3 -7.1 -8.55 L-7.4 -8.75 -7.65 -8.95 -7.55 -9.1 -6.95 -9.85 Q-6.7 -10.15 -6.6 -10.4 L-6.55 -10.4 -6.45 -10.65 -6.35 -10.75 -6.35 -10.8 -6.25 -10.8 Q-5.4 -10.25 -5.2 -10.25 -4.7 -10.25 -4.0 -10.75 -3.65 -11.05 -3.5 -11.2 L-3.2 -11.0 -2.95 -10.75 -3.0 -10.85 -2.9 -10.85 -2.75 -10.9 Q-2.1 -11.05 -1.8 -11.55 -1.5 -12.0 -1.5 -12.5 -1.5 -12.8 -1.75 -13.15 -2.05 -13.5 -2.5 -13.5 L-2.5 -13.45 -2.0 -13.0 Q-1.75 -12.7 -1.75 -12.45 -1.75 -12.25 -2.15 -11.8 -2.5 -11.45 -2.9 -11.15 L-3.45 -11.65 Q-3.55 -12.05 -4.1 -12.65 -4.9 -13.4 -6.0 -13.4 L-6.45 -13.5 -6.85 -13.6 Q-8.7 -13.6 -10.25 -13.3 -11.45 -13.05 -11.95 -12.65 L-12.05 -12.85 Q-12.35 -13.6 -12.4 -14.2 -12.3 -15.8 -10.95 -16.6 -10.7 -16.85 -10.3 -16.95 L-8.85 -17.0 -8.8 -16.95 -8.65 -16.9 -8.6 -16.95 -8.45 -16.9 Q-7.15 -16.65 -6.45 -16.1 L-6.3 -16.0 -5.3 -15.35 -5.3 -15.3 -5.2 -15.3 -5.05 -15.15 Q-4.4 -14.55 -3.85 -14.3 L-4.35 -14.75 -4.35 -14.85 -4.65 -15.1 -4.55 -15.1 -4.15 -14.9 -4.1 -15.0 -4.3 -15.2 -4.25 -15.25 Q-4.1 -15.35 -4.1 -15.5 L-4.1 -15.6 -3.65 -15.5 -3.1 -15.4 -2.4 -15.25 -2.45 -15.2 Q-2.85 -15.15 -2.9 -15.05 -2.85 -14.95 -2.6 -14.95 M-7.55 -7.9 L-7.6 -8.0 -7.75 -7.95 -7.75 -7.85 Q-8.35 -7.55 -8.35 -6.4 L-8.35 -6.0 -8.85 -6.7 Q-9.4 -7.8 -9.4 -8.25 L-9.3 -8.95 -9.15 -9.4 -9.15 -9.45 -9.1 -9.45 Q-8.95 -9.7 -8.7 -10.35 L-8.7 -10.4 Q-8.3 -11.25 -8.1 -11.75 L-7.65 -11.75 -7.6 -11.7 -7.35 -11.5 -6.95 -11.1 Q-7.05 -10.7 -7.45 -10.35 -8.1 -9.85 -8.4 -8.95 L-8.05 -8.8 -8.05 -8.7 -7.9 -8.7 -7.4 -8.3 Q-7.3 -8.05 -7.15 -7.85 L-7.2 -7.85 Q-7.3 -8.0 -7.55 -7.9 M-7.4 -5.3 L-7.3 -4.6 -7.55 -4.95 -7.4 -5.0 -7.4 -5.3 M-5.25 -15.6 L-5.45 -15.75 -5.5 -15.8 -5.5 -15.9 -6.05 -16.2 -5.95 -16.2 -5.1 -15.85 Q-5.2 -15.8 -5.25 -15.6" fill="#c7a36d" fill-rule="evenodd" stroke="none"/>
    <path d="M6.65 -10.8 L6.65 -10.7 Q6.85 -9.35 6.95 -7.45 L6.9 -6.65 Q7.05 -6.6 7.2 -6.5 7.4 -6.35 7.55 -6.05 L7.1 -6.35 Q6.6 -6.6 6.4 -6.7 L6.3 -6.75 6.3 -6.7 Q6.25 -6.65 6.25 -6.6 6.25 -6.4 6.9 -5.95 7.35 -5.7 7.65 -5.55 L7.65 -5.35 Q7.05 -5.1 6.3 -4.65 5.65 -4.2 3.95 -2.95 3.25 -2.4 2.65 -2.05 L3.1 -2.8 3.45 -3.2 4.35 -4.5 4.45 -4.6 4.65 -5.0 Q4.95 -5.55 5.15 -6.15 5.7 -7.75 5.7 -9.65 L5.7 -10.45 5.55 -10.9 5.6 -11.2 Q5.7 -11.5 5.8 -11.7 6.1 -11.3 6.35 -11.3 6.1 -11.0 6.1 -10.75 6.1 -10.6 6.15 -10.6 L6.35 -10.6 6.65 -10.8 M14.95 -9.6 Q12.15 -6.8 11.55 -6.8 11.4 -6.8 11.05 -7.25 11.75 -7.6 12.4 -8.4 13.0 -9.15 13.15 -9.6 13.25 -9.8 13.25 -9.9 13.25 -10.5 12.9 -10.85 L12.6 -11.05 12.55 -11.05 Q12.0 -11.35 11.0 -11.35 L10.45 -11.3 Q12.1 -10.75 12.6 -10.5 13.0 -10.25 13.0 -9.9 13.0 -9.35 11.75 -8.45 L11.5 -8.25 11.4 -8.2 10.85 -7.85 10.45 -7.55 10.4 -7.55 10.1 -7.55 Q9.0 -7.55 8.35 -8.4 L7.9 -9.2 Q7.9 -10.45 8.75 -11.25 9.35 -11.8 10.2 -12.05 L10.05 -11.95 8.8 -11.05 8.6 -10.85 8.65 -10.85 8.7 -10.9 8.65 -10.8 8.55 -10.75 Q8.45 -10.65 8.45 -9.95 L8.45 -9.25 Q8.55 -8.55 9.05 -8.55 9.2 -8.55 9.5 -8.7 9.8 -8.8 10.3 -8.8 L10.5 -8.8 Q10.55 -8.75 10.55 -8.8 L10.45 -9.0 10.4 -9.0 Q10.65 -9.25 11.0 -9.85 11.3 -10.45 11.3 -10.65 11.3 -11.05 10.9 -11.15 L10.9 -11.05 Q10.9 -10.5 11.0 -10.25 11.0 -10.1 10.2 -9.0 L9.8 -9.0 Q9.65 -9.0 9.4 -8.9 9.1 -8.8 9.0 -8.8 L8.75 -8.8 8.75 -8.85 Q8.65 -9.3 8.65 -9.9 8.65 -10.3 8.8 -10.5 L9.3 -10.8 Q9.9 -11.0 10.4 -11.3 L10.0 -11.3 10.35 -11.55 Q11.05 -11.9 11.15 -12.25 11.95 -12.25 12.6 -11.95 L12.7 -11.9 13.15 -12.35 Q14.05 -13.25 14.85 -13.85 L15.25 -13.95 17.05 -14.45 17.1 -14.45 18.1 -14.6 Q19.05 -14.5 19.05 -14.0 19.05 -13.95 18.9 -13.75 L18.85 -13.7 18.8 -13.7 Q17.5 -12.9 16.65 -11.7 L15.05 -9.65 15.0 -9.6 14.95 -9.6 M-2.6 -14.95 L-2.45 -14.95 Q-2.25 -14.95 -2.0 -15.0 L-1.75 -15.1 0.9 -14.5 2.55 -13.9 2.6 -13.9 2.9 -13.45 3.15 -13.2 Q3.05 -13.05 2.95 -13.05 L2.15 -13.05 Q1.45 -13.85 0.65 -14.3 -0.8 -15.1 -2.25 -14.65 L-2.0 -14.55 Q-0.65 -14.6 0.45 -13.9 1.7 -13.2 2.1 -13.05 L1.8 -13.05 0.2 -12.65 0.0 -12.65 -0.1 -12.65 Q-1.35 -12.65 -2.1 -13.5 -2.65 -14.1 -2.65 -14.55 -2.65 -14.8 -2.6 -14.95 M3.4 -9.7 L3.4 -9.6 Q3.55 -9.2 3.75 -8.3 3.75 -8.05 3.45 -7.3 3.15 -6.6 3.0 -6.4 2.9 -6.45 2.85 -6.5 2.7 -6.6 2.7 -6.65 2.85 -7.5 2.85 -7.75 2.85 -8.1 3.0 -9.0 3.1 -9.95 3.15 -10.0 3.25 -9.9 3.4 -9.7 M5.35 -7.7 L5.3 -7.4 5.05 -6.4 5.05 -6.3 5.0 -6.25 4.85 -5.85 Q4.5 -5.2 3.8 -4.3 4.15 -5.1 4.65 -5.65 L4.65 -5.8 Q4.65 -5.9 5.05 -6.95 L5.35 -7.7 M-1.0 -0.75 L-3.0 -0.6 -3.05 -0.6 -3.25 -0.8 -3.3 -0.7 Q-5.85 -1.9 -6.6 -3.6 L-6.65 -3.75 -6.7 -3.85 -6.85 -4.45 -6.9 -4.65 Q-6.75 -4.7 -6.45 -4.45 -6.2 -4.15 -5.55 -3.15 -4.55 -2.4 -4.15 -2.15 -3.1 -1.65 -1.5 -1.65 -0.95 -1.65 -0.9 -1.0 -0.9 -0.85 -1.0 -0.75 M-7.0 -5.5 Q-7.05 -6.4 -7.1 -6.95 L-7.1 -7.05 -7.2 -6.95 -7.25 -7.15 -7.25 -7.2 Q-7.35 -7.55 -7.5 -7.8 L-7.55 -7.9 Q-7.3 -8.0 -7.2 -7.85 L-7.15 -7.85 -7.0 -7.65 Q-6.9 -7.4 -6.9 -6.95 L-6.9 -5.85 Q-6.95 -5.65 -7.0 -5.5 M-7.75 -7.85 L-7.75 -7.8 Q-7.75 -7.65 -7.55 -7.25 L-7.45 -6.7 -7.5 -6.1 -7.5 -5.85 -7.45 -5.7 -7.45 -5.6 -7.4 -5.3 -7.4 -5.0 -7.55 -4.95 -7.6 -5.05 -7.65 -5.05 -8.35 -6.0 -8.35 -6.4 Q-8.35 -7.55 -7.75 -7.85 M-8.1 -11.75 L-8.0 -11.95 -7.65 -11.75 -8.1 -11.75 M1.6 -11.9 L1.65 -11.9 Q2.25 -11.5 2.5 -11.15 L2.5 -11.05 Q2.5 -11.0 2.35 -11.0 2.1 -11.0 1.4 -11.5 0.65 -11.95 0.55 -12.15 0.7 -12.2 0.85 -12.2 L0.9 -12.2 1.6 -11.9 M-11.95 -12.65 Q-11.45 -13.05 -10.25 -13.3 -8.7 -13.6 -6.85 -13.6 L-6.45 -13.5 -6.0 -13.4 Q-4.9 -13.4 -4.1 -12.65 -3.55 -12.05 -3.45 -11.65 -4.3 -12.35 -4.7 -12.65 -5.7 -13.3 -5.7 -12.25 L-5.7 -12.2 Q-5.8 -12.0 -5.8 -11.6 L-5.8 -11.5 Q-5.7 -11.25 -5.2 -11.25 -4.95 -11.25 -4.9 -11.3 -5.4 -11.55 -5.6 -11.7 L-5.55 -11.75 -5.5 -11.7 -5.5 -11.9 -5.45 -12.0 Q-5.25 -12.25 -4.95 -12.25 -4.7 -12.25 -3.85 -11.55 L-3.5 -11.2 Q-3.65 -11.05 -4.0 -10.75 -4.7 -10.25 -5.2 -10.25 -5.4 -10.25 -6.25 -10.8 -6.2 -10.85 -6.25 -10.85 -6.25 -11.0 -6.3 -11.05 L-6.3 -11.1 Q-6.6 -11.75 -7.4 -12.05 -7.8 -12.4 -8.35 -12.65 -9.05 -12.8 -9.9 -12.5 L-10.45 -12.35 Q-11.1 -12.2 -11.55 -11.85 L-11.55 -11.9 -11.6 -11.95 -11.95 -12.65 M-5.1 -15.85 L-4.65 -15.75 Q-4.55 -15.65 -4.5 -15.7 L-4.4 -15.7 -4.1 -15.6 -4.1 -15.5 Q-4.1 -15.35 -4.25 -15.25 L-4.3 -15.2 -4.6 -15.4 Q-4.8 -15.55 -5.1 -15.6 L-5.25 -15.6 Q-5.2 -15.8 -5.1 -15.85 M-2.4 -15.25 L-2.3 -15.25 -2.35 -15.2 -2.45 -15.2 -2.4 -15.25 M-4.55 -15.1 L-4.65 -15.1 -4.7 -15.15 -4.65 -15.15 -4.55 -15.1 M-1.1 -13.2 L-1.1 -13.25 -1.6 -13.8 Q-1.9 -14.1 -2.1 -14.05 -1.9 -13.95 -1.55 -13.55 -1.2 -13.2 -1.1 -13.2" fill="#a9854f" fill-rule="evenodd" stroke="none"/>
    <path d="M1.75 -10.0 L1.95 -9.75 1.9 -9.7 0.55 -8.5 0.6 -9.05 Q0.75 -9.95 1.3 -10.55 L1.75 -10.0" fill="#ffffff" fill-rule="evenodd" stroke="none"/>
    <path d="M-2.55 -6.5 Q-2.1 -6.5 -1.5 -6.8 L-1.0 -6.95 Q-1.55 -6.35 -1.9 -6.1 -2.4 -5.65 -3.35 -5.25 -3.3 -5.5 -3.2 -5.7 -2.95 -6.35 -2.95 -6.5 L-2.55 -6.5" fill="#f4ccb9" fill-rule="evenodd" stroke="none"/>
  </g>
</svg>
