<?xml version="1.0" encoding="UTF-8" standalone="no"?>
<svg xmlns:ffdec="https://www.free-decompiler.com/flash" xmlns:xlink="http://www.w3.org/1999/xlink" ffdec:objectType="shape" height="6.8px" width="4.35px" xmlns="http://www.w3.org/2000/svg">
  <g transform="matrix(1.0, 0.0, 0.0, 1.0, -0.1, 8.45)">
    <path d="M1.55 -8.2 Q1.3 -8.15 1.15 -8.05 0.95 -7.9 0.8 -7.65 L0.75 -7.55 0.75 -7.5 Q0.6 -7.3 0.55 -7.05 0.35 -6.6 0.35 -6.0 0.35 -5.85 0.35 -5.7 L0.5 -5.55 0.6 -5.45 0.65 -5.45 0.9 -5.4 0.95 -5.4 0.9 -5.5 0.9 -5.55 0.85 -5.9 Q0.85 -6.6 1.05 -7.25 1.3 -7.9 1.7 -8.2 L1.55 -8.2 M1.05 -8.25 Q1.35 -8.45 1.7 -8.45 L1.8 -8.45 2.0 -8.4 2.05 -8.35 2.45 -8.45 Q2.65 -8.45 2.65 -8.25 L3.05 -8.4 Q3.5 -8.5 3.6 -8.35 L3.65 -8.35 Q3.9 -8.5 4.1 -8.45 4.25 -8.4 4.3 -8.3 4.45 -8.25 4.45 -8.15 L4.35 -8.0 4.2 -7.75 Q4.05 -7.5 4.0 -7.2 3.95 -6.75 3.95 -6.4 L3.95 -6.15 4.0 -5.8 4.1 -5.25 Q4.1 -5.15 4.0 -5.1 L3.95 -5.05 3.95 -4.9 4.0 -4.35 4.0 -4.25 Q4.0 -3.95 4.15 -3.25 L4.3 -2.35 4.3 -2.2 Q4.3 -2.05 4.15 -2.0 L3.9 -1.95 Q3.75 -1.9 3.5 -1.8 2.95 -1.65 2.55 -1.65 2.0 -1.65 1.8 -1.75 1.65 -1.85 1.55 -2.0 1.3 -2.15 1.2 -2.3 0.85 -2.45 0.2 -2.45 L0.15 -2.5 0.1 -2.5 0.1 -2.55 0.15 -2.65 0.15 -2.75 0.1 -2.8 0.15 -4.9 0.15 -5.1 Q0.15 -5.25 0.2 -5.35 0.2 -5.45 0.2 -5.55 L0.15 -5.55 0.15 -5.7 0.2 -5.95 0.2 -6.15 Q0.2 -6.35 0.25 -6.6 L0.25 -6.9 Q0.25 -7.2 0.6 -7.8 0.85 -8.1 1.05 -8.25 M2.45 -8.15 L2.5 -8.2 2.45 -8.2 Q1.65 -8.2 1.25 -7.45 1.0 -7.0 1.0 -6.65 L0.95 -6.4 0.9 -6.2 Q0.9 -5.75 1.05 -5.4 L1.05 -5.35 1.1 -5.3 Q1.3 -5.15 1.4 -5.15 1.65 -5.15 1.7 -5.2 L1.8 -5.3 1.85 -5.5 1.8 -5.55 1.85 -6.45 Q1.85 -7.05 1.9 -7.25 2.05 -7.75 2.4 -8.1 L2.45 -8.15 M4.0 -8.15 L3.9 -8.15 Q3.85 -8.2 3.75 -8.2 L3.8 -8.2 Q3.35 -8.1 3.1 -7.45 2.95 -7.0 2.95 -6.65 L2.95 -5.7 Q2.95 -5.45 3.0 -5.35 3.05 -5.25 3.2 -5.15 L3.4 -5.1 3.55 -5.1 3.8 -5.3 3.8 -6.4 Q3.8 -6.6 3.8 -7.0 3.85 -7.2 3.9 -7.55 3.9 -7.7 3.95 -7.85 4.0 -8.0 4.1 -8.05 L4.1 -8.15 4.0 -8.15 M3.3 -8.2 L3.15 -8.25 Q2.2 -8.25 1.95 -7.2 1.85 -6.9 1.85 -6.0 1.85 -5.85 1.9 -5.65 L1.95 -5.4 1.95 -5.35 2.05 -5.2 2.2 -5.05 2.3 -5.05 Q2.6 -5.05 2.95 -5.2 2.95 -5.35 2.95 -5.6 L2.95 -5.75 Q2.9 -6.2 2.9 -6.65 L2.95 -7.2 Q2.95 -7.85 3.35 -8.15 L3.3 -8.2 M3.75 -4.7 L3.75 -4.95 Q3.55 -4.85 3.35 -4.85 3.25 -4.85 3.15 -4.9 L2.95 -4.95 2.85 -4.9 Q2.75 -4.85 2.6 -4.85 L2.2 -4.9 Q2.1 -4.9 2.0 -4.95 L1.75 -5.0 Q1.0 -5.05 0.95 -5.2 L0.7 -5.15 0.5 -5.2 0.4 -4.7 0.35 -4.5 0.4 -3.75 0.5 -3.65 0.55 -3.65 1.1 -3.5 0.95 -4.05 0.8 -4.9 0.9 -4.4 0.95 -4.35 1.0 -4.2 1.05 -3.85 1.15 -3.5 1.2 -3.5 Q1.2 -3.3 1.35 -3.15 1.6 -2.95 2.05 -2.95 L2.3 -3.0 2.5 -3.05 2.65 -3.1 3.05 -3.25 3.1 -3.25 3.25 -3.3 3.55 -3.35 3.85 -3.4 3.8 -4.25 3.8 -4.6 3.75 -4.7 M3.6 -3.2 L3.0 -3.1 2.75 -3.05 2.75 -3.0 2.6 -3.0 2.3 -2.9 2.05 -2.9 Q1.55 -2.9 1.25 -3.15 L1.15 -3.25 Q1.2 -3.0 1.35 -2.55 L1.45 -2.3 1.5 -2.3 Q1.65 -2.1 1.9 -2.0 L2.2 -1.9 2.5 -1.9 2.85 -1.95 2.95 -1.95 3.3 -2.1 3.5 -2.15 3.65 -2.2 3.75 -2.2 4.0 -2.3 Q3.9 -2.6 3.85 -3.25 L3.7 -3.25 3.6 -3.2 M1.1 -3.35 L1.05 -3.5 0.7 -3.5 0.4 -3.4 0.35 -3.3 0.4 -2.8 0.4 -2.7 0.7 -2.7 Q0.9 -2.7 1.1 -2.6 L1.15 -2.65 1.2 -2.75 Q1.2 -2.9 1.1 -3.35" fill="#111111" fill-rule="evenodd" stroke="none"/>
    <path d="M3.75 -4.7 L3.8 -4.6 3.8 -4.25 3.85 -3.4 3.55 -3.35 3.55 -4.55 3.8 -4.65 3.75 -4.7 M2.65 -3.1 L2.5 -3.05 2.3 -3.0 2.05 -2.95 Q1.6 -2.95 1.35 -3.15 1.2 -3.3 1.2 -3.5 L1.15 -3.5 1.05 -3.85 1.0 -4.2 0.9 -4.65 0.85 -4.85 0.95 -4.9 1.05 -4.8 Q1.15 -4.75 1.3 -4.75 L1.4 -4.55 Q1.6 -4.05 1.9 -4.05 2.3 -4.05 2.65 -4.6 L2.7 -4.65 2.9 -4.7 3.1 -4.65 3.2 -4.6 3.15 -4.45 Q3.15 -4.25 2.95 -3.75 L2.75 -3.3 2.65 -3.1" fill="#9c9581" fill-rule="evenodd" stroke="none"/>
    <path d="M0.5 -5.55 L0.35 -5.7 Q0.35 -5.85 0.35 -6.0 0.35 -6.6 0.55 -7.05 0.6 -7.3 0.75 -7.5 L0.75 -7.55 0.8 -7.65 Q0.95 -7.9 1.15 -8.05 1.3 -8.15 1.55 -8.2 1.3 -8.0 1.15 -7.7 0.95 -7.35 0.9 -6.95 L0.8 -6.2 Q0.75 -5.9 0.5 -5.65 L0.45 -5.65 0.5 -5.55 M0.9 -5.5 L0.95 -5.4 0.9 -5.4 0.95 -5.45 0.9 -5.5 M1.05 -5.4 Q0.9 -5.75 0.9 -6.2 L0.95 -6.4 1.0 -6.65 Q1.0 -7.0 1.25 -7.45 1.65 -8.2 2.45 -8.2 L2.5 -8.2 2.45 -8.15 Q2.1 -7.95 1.9 -7.6 1.6 -7.05 1.6 -6.05 1.65 -5.85 1.6 -5.65 1.5 -5.3 1.25 -5.3 1.2 -5.3 1.1 -5.4 L1.05 -5.4 M3.2 -5.15 Q3.05 -5.25 3.0 -5.35 2.95 -5.45 2.95 -5.7 L2.95 -6.65 Q2.95 -7.0 3.1 -7.45 3.35 -8.1 3.8 -8.2 L3.75 -8.2 Q3.85 -8.2 3.9 -8.15 L4.0 -8.15 Q3.55 -7.75 3.55 -7.25 L3.55 -7.15 3.5 -7.0 3.5 -5.55 Q3.45 -5.35 3.25 -5.2 L3.2 -5.15 M2.2 -5.05 L2.05 -5.2 1.95 -5.35 1.95 -5.4 1.9 -5.65 Q1.85 -5.85 1.85 -6.0 1.85 -6.9 1.95 -7.2 2.2 -8.25 3.15 -8.25 L3.3 -8.2 Q3.05 -8.05 2.9 -7.6 2.75 -7.15 2.7 -6.6 L2.7 -6.2 2.65 -5.75 Q2.6 -5.3 2.35 -5.15 L2.2 -5.05 M2.6 -3.0 L2.4 -2.7 2.3 -2.45 2.2 -2.25 Q2.1 -2.05 1.9 -2.0 1.65 -2.1 1.5 -2.3 L1.45 -2.3 1.35 -2.55 Q1.2 -3.0 1.15 -3.25 L1.25 -3.15 Q1.55 -2.9 2.05 -2.9 L2.3 -2.9 2.6 -3.0 M3.65 -2.2 L3.6 -3.2 3.7 -3.25 3.85 -3.25 Q3.9 -2.6 4.0 -2.3 L3.75 -2.2 3.65 -2.2" fill="#b00000" fill-rule="evenodd" stroke="none"/>
    <path d="M1.0 -4.2 L0.95 -4.35 0.9 -4.4 0.8 -4.9 0.95 -4.05 1.1 -3.5 0.55 -3.65 0.5 -3.65 0.4 -3.75 0.35 -4.5 0.4 -4.7 0.5 -5.2 0.7 -5.15 0.95 -5.2 Q1.0 -5.05 1.75 -5.0 L2.0 -4.95 Q2.1 -4.9 2.2 -4.9 L2.6 -4.85 Q2.75 -4.85 2.85 -4.9 L2.95 -4.95 3.15 -4.9 Q3.25 -4.85 3.35 -4.85 3.55 -4.85 3.75 -4.95 L3.75 -4.7 3.8 -4.65 3.55 -4.55 3.55 -3.35 3.25 -3.3 3.1 -3.25 3.05 -3.25 2.65 -3.1 2.75 -3.3 2.95 -3.75 Q3.15 -4.25 3.15 -4.45 L3.2 -4.6 3.1 -4.65 2.9 -4.7 2.7 -4.65 2.65 -4.6 Q2.3 -4.05 1.9 -4.05 1.6 -4.05 1.4 -4.55 L1.3 -4.75 Q1.15 -4.75 1.05 -4.8 L0.95 -4.9 0.85 -4.85 0.9 -4.65 1.0 -4.2" fill="#666154" fill-rule="evenodd" stroke="none"/>
    <path d="M0.5 -5.55 L0.45 -5.65 0.5 -5.65 Q0.75 -5.9 0.8 -6.2 L0.9 -6.95 Q0.95 -7.35 1.15 -7.7 1.3 -8.0 1.55 -8.2 L1.7 -8.2 Q1.3 -7.9 1.05 -7.25 0.85 -6.6 0.85 -5.9 L0.9 -5.55 0.9 -5.5 0.95 -5.45 0.9 -5.4 0.65 -5.45 0.6 -5.45 0.5 -5.55 M2.45 -8.15 L2.4 -8.1 Q2.05 -7.75 1.9 -7.25 1.85 -7.05 1.85 -6.45 L1.8 -5.55 1.85 -5.5 1.8 -5.3 1.7 -5.2 Q1.65 -5.15 1.4 -5.15 1.3 -5.15 1.1 -5.3 L1.05 -5.35 1.05 -5.4 1.1 -5.4 Q1.2 -5.3 1.25 -5.3 1.5 -5.3 1.6 -5.65 1.65 -5.85 1.6 -6.05 1.6 -7.05 1.9 -7.6 2.1 -7.95 2.45 -8.15 M3.2 -5.15 L3.25 -5.2 Q3.45 -5.35 3.5 -5.55 L3.5 -7.0 3.55 -7.15 3.55 -7.25 Q3.55 -7.75 4.0 -8.15 L4.1 -8.15 4.1 -8.05 Q4.0 -8.0 3.95 -7.85 3.9 -7.7 3.9 -7.55 3.85 -7.2 3.8 -7.0 3.8 -6.6 3.8 -6.4 L3.8 -5.3 3.55 -5.1 3.4 -5.1 3.2 -5.15 M3.3 -8.2 L3.35 -8.15 Q2.95 -7.85 2.95 -7.2 L2.9 -6.65 Q2.9 -6.2 2.95 -5.75 L2.95 -5.6 Q2.95 -5.35 2.95 -5.2 2.6 -5.05 2.3 -5.05 L2.2 -5.05 2.35 -5.15 Q2.6 -5.3 2.65 -5.75 L2.7 -6.2 2.7 -6.6 Q2.75 -7.15 2.9 -7.6 3.05 -8.05 3.3 -8.2 M2.6 -3.0 L2.75 -3.0 2.75 -3.05 3.0 -3.1 3.6 -3.2 3.65 -2.2 3.5 -2.15 3.3 -2.1 2.95 -1.95 2.85 -1.95 2.5 -1.9 2.2 -1.9 1.9 -2.0 Q2.1 -2.05 2.2 -2.25 L2.3 -2.45 2.4 -2.7 2.6 -3.0 M1.1 -3.35 Q1.2 -2.9 1.2 -2.75 L1.15 -2.65 1.1 -2.6 Q0.9 -2.7 0.7 -2.7 L0.4 -2.7 0.4 -2.8 0.35 -3.3 0.4 -3.4 0.7 -3.5 1.05 -3.5 1.1 -3.35" fill="#600000" fill-rule="evenodd" stroke="none"/>
  </g>
</svg>
