<?xml version="1.0" encoding="UTF-8" standalone="no"?>
<svg xmlns:ffdec="https://www.free-decompiler.com/flash" xmlns:xlink="http://www.w3.org/1999/xlink" ffdec:objectType="shape" height="10.6px" width="21.2px" xmlns="http://www.w3.org/2000/svg">
  <g transform="matrix(1.0, 0.0, 0.0, 1.0, 2.15, 7.2)">
    <path d="M6.9 -6.55 L6.75 -6.6 6.55 -6.35 Q6.0 -5.4 5.45 -4.65 L5.35 -4.45 5.15 -4.15 5.15 -4.1 5.1 -4.05 4.8 -3.5 4.7 -3.35 4.65 -3.25 Q4.25 -2.9 3.9 -2.7 3.55 -2.5 3.35 -2.5 3.2 -2.5 3.05 -2.95 2.95 -3.4 2.45 -3.4 1.9 -3.4 1.6 -3.3 1.35 -3.15 1.35 -2.95 L1.4 -2.85 1.25 -2.8 1.25 -3.8 Q1.35 -4.15 1.6 -4.9 1.7 -5.3 2.5 -6.0 3.1 -6.5 3.35 -6.8 L3.6 -6.85 3.95 -6.85 6.35 -6.65 6.9 -6.55 M6.85 -2.85 L6.55 -2.75 Q5.95 -2.45 5.4 -2.3 L5.15 -2.25 4.05 -2.05 3.95 -2.05 5.0 -2.8 Q5.75 -3.1 6.6 -3.65 6.4 -3.5 6.4 -3.4 6.4 -3.35 6.7 -3.0 L6.85 -2.85 M10.45 -6.7 L10.5 -6.75 13.15 -6.75 13.35 -6.7 Q13.6 -6.4 14.15 -5.9 14.95 -5.2 15.1 -4.8 L15.15 -4.7 Q15.45 -3.75 15.5 -3.5 L15.45 -2.9 15.15 -3.2 14.25 -3.25 Q14.15 -3.25 13.85 -2.85 13.55 -2.45 13.45 -2.45 13.05 -2.45 12.3 -3.95 L12.15 -4.3 11.8 -4.7 11.6 -5.0 10.45 -6.7 M9.9 -2.65 L10.05 -2.8 Q10.35 -3.15 10.35 -3.2 L10.35 -3.25 Q10.3 -3.35 10.1 -3.5 L10.65 -3.15 12.1 -2.15 11.6 -2.3 11.25 -2.3 10.65 -2.4 Q10.3 -2.5 9.9 -2.65" fill="#80c0f0" fill-rule="evenodd" stroke="none"/>
    <path d="M3.6 -7.2 L5.55 -7.1 8.25 -6.9 9.3 -7.0 10.2 -7.1 10.4 -7.05 10.45 -7.05 Q10.8 -7.15 11.05 -7.2 L13.2 -7.2 Q13.55 -7.15 13.7 -7.0 L13.85 -6.75 Q14.65 -6.3 15.3 -4.75 L15.3 -4.7 Q15.9 -3.25 15.95 -2.0 L16.3 -1.65 16.45 -1.45 Q16.5 -1.25 16.5 -1.1 L16.5 -0.9 16.6 -0.7 Q16.85 -0.2 16.85 -0.1 L16.85 -0.05 Q17.05 0.3 17.1 0.45 L17.05 0.85 17.05 0.9 Q17.05 1.0 17.35 1.25 17.65 1.4 17.85 1.6 L18.2 2.0 Q19.05 2.7 19.05 2.8 19.05 3.0 17.7 3.2 16.4 3.4 14.95 3.4 L14.45 3.4 Q13.0 3.35 11.9 3.05 L11.65 3.0 11.1 2.9 Q10.55 2.8 10.45 2.6 10.15 2.5 10.05 2.4 10.0 2.3 10.0 2.2 10.0 2.15 10.05 1.95 10.05 1.8 10.15 1.6 10.1 0.75 9.95 0.1 9.75 -0.6 9.75 -1.0 9.75 -1.3 9.85 -1.5 L9.7 -1.7 Q9.4 -2.0 9.4 -2.15 9.35 -2.45 9.65 -2.85 9.9 -3.2 9.9 -3.3 L9.9 -3.35 Q9.6 -3.65 9.4 -4.0 9.25 -4.05 9.05 -4.15 L8.9 -4.25 Q8.85 -4.2 8.75 -4.25 L8.45 -4.3 Q7.65 -4.3 7.25 -4.15 L7.15 -4.1 7.1 -4.05 Q6.85 -3.9 6.85 -3.5 6.85 -3.4 7.1 -3.05 7.4 -2.65 7.4 -2.35 7.4 -2.25 7.1 -1.9 L6.9 -1.75 Q7.05 -1.55 7.05 -1.3 7.05 -0.85 6.85 -0.2 6.7 0.4 6.7 1.25 L6.8 1.6 6.9 1.8 Q6.9 1.95 6.75 2.05 L6.6 2.1 6.55 2.15 6.4 2.25 Q6.25 2.45 5.8 2.5 L5.35 2.6 Q4.15 2.95 2.75 2.95 L2.6 2.95 1.95 3.0 -0.85 2.8 Q-2.15 2.6 -2.15 2.4 -2.15 2.3 -1.35 1.65 L-1.05 1.25 Q-0.8 1.05 -0.55 0.9 -0.25 0.65 -0.25 0.55 L-0.2 0.55 -0.25 0.15 Q-0.25 0.0 -0.05 -0.35 -0.05 -0.5 0.2 -0.95 L0.3 -1.15 0.25 -1.35 Q0.25 -1.6 0.5 -1.9 L0.7 -2.1 0.8 -2.25 Q0.85 -3.45 1.4 -4.9 2.1 -6.6 3.05 -6.95 L3.2 -7.0 3.6 -7.2 M6.9 -6.55 L6.35 -6.65 3.95 -6.85 3.6 -6.85 3.35 -6.8 Q3.1 -6.5 2.5 -6.0 1.7 -5.3 1.6 -4.9 1.35 -4.15 1.25 -3.8 L1.25 -2.8 1.25 -2.45 Q1.5 -2.2 1.8 -2.05 L1.95 -2.05 Q2.3 -1.9 2.85 -1.9 L2.95 -1.9 3.35 -1.95 5.95 -1.95 6.55 -2.15 6.6 -2.1 6.7 -2.2 Q7.0 -2.45 7.0 -2.6 7.0 -2.65 6.85 -2.85 L6.7 -3.0 Q6.4 -3.35 6.4 -3.4 6.4 -3.5 6.6 -3.65 L6.75 -3.8 6.9 -3.9 Q7.05 -4.1 7.1 -4.3 L7.1 -4.45 Q7.1 -4.5 7.15 -4.55 7.3 -4.7 7.95 -4.65 L7.8 -5.25 7.75 -5.7 7.75 -5.95 Q7.75 -6.1 7.85 -6.3 L7.9 -6.5 7.7 -6.5 6.9 -6.55 M6.35 -1.7 L5.1 -1.8 1.95 -1.9 Q1.65 -1.9 1.4 -2.05 L1.35 -2.1 Q0.95 -1.75 0.75 -1.45 L0.7 -1.4 0.55 -1.0 0.6 -0.95 Q0.65 -0.85 0.9 -0.65 L1.6 -0.45 2.9 -0.25 3.2 -0.2 4.55 -0.15 5.6 -0.15 Q6.15 -0.15 6.4 -0.5 L6.65 -0.75 Q6.65 -0.95 6.5 -1.4 L6.4 -1.7 6.35 -1.7 M5.2 -0.05 L5.15 -0.05 Q4.65 -0.1 4.1 -0.05 L3.75 -0.1 3.25 -0.15 3.15 -0.2 1.6 -0.4 0.95 -0.55 0.7 -0.55 Q0.4 -0.55 0.4 -0.3 L0.35 -0.25 Q0.25 -0.15 0.2 0.0 0.1 0.1 0.1 0.3 0.1 0.5 0.2 0.6 0.3 0.7 0.45 0.75 L0.7 0.8 1.3 0.9 1.6 1.05 2.75 1.35 3.55 1.65 4.3 1.85 4.55 1.95 Q4.55 2.0 4.35 2.0 L3.1 1.65 3.0 1.65 2.25 1.5 Q1.1 1.3 0.0 1.3 L-0.1 1.3 -0.3 1.25 Q-0.85 1.45 -0.9 1.55 L-1.4 2.0 -1.65 2.2 -1.65 2.35 Q-1.65 2.45 -1.55 2.5 L-1.4 2.55 0.65 2.65 Q3.95 2.65 5.1 2.25 L5.35 2.2 Q5.55 2.15 5.75 2.1 5.9 2.05 6.0 2.0 L6.45 1.55 6.45 1.0 6.25 0.35 6.3 0.25 6.15 0.2 Q5.8 0.05 5.65 0.05 L5.6 0.05 5.2 -0.05 M15.45 -2.9 L15.5 -3.5 Q15.45 -3.75 15.15 -4.7 L15.1 -4.8 Q14.95 -5.2 14.15 -5.9 13.6 -6.4 13.35 -6.7 L13.15 -6.75 10.5 -6.75 10.45 -6.7 10.35 -6.7 Q9.95 -6.45 8.95 -6.45 L8.05 -6.45 7.95 -6.15 Q7.8 -5.75 7.8 -5.65 L8.0 -4.6 8.35 -4.6 9.1 -4.5 9.35 -4.45 9.55 -4.35 9.55 -4.4 9.6 -4.3 9.7 -4.2 9.9 -3.8 10.1 -3.5 Q10.3 -3.35 10.35 -3.25 L10.35 -3.2 Q10.35 -3.15 10.05 -2.8 L9.9 -2.65 9.9 -2.6 9.75 -2.4 9.75 -2.35 Q9.75 -2.2 10.05 -1.95 L10.15 -1.9 10.2 -1.9 10.8 -1.7 13.4 -1.7 13.9 -1.65 Q14.5 -1.65 14.85 -1.85 L14.95 -1.85 Q15.3 -2.0 15.5 -2.25 15.5 -2.35 15.5 -2.55 L15.45 -2.9 M10.4 -1.45 L10.35 -1.45 10.3 -1.15 Q10.15 -0.7 10.15 -0.5 L10.4 -0.2 Q10.7 0.15 11.2 0.15 L12.3 0.15 13.6 0.1 Q14.45 0.0 15.25 -0.15 L15.9 -0.35 16.2 -0.65 16.25 -0.75 16.2 -0.75 16.15 -0.9 16.05 -1.15 16.05 -1.2 15.85 -1.45 15.4 -1.85 15.35 -1.85 Q15.15 -1.65 14.85 -1.65 L11.7 -1.55 10.65 -1.45 10.4 -1.45 M16.6 0.95 Q16.7 0.85 16.7 0.7 L16.7 0.6 Q16.7 0.4 16.6 0.3 16.55 0.15 16.45 0.05 L16.4 0.0 Q16.4 -0.25 16.1 -0.3 L15.85 -0.25 15.25 -0.1 13.65 0.1 13.6 0.15 13.1 0.2 12.7 0.25 11.15 0.35 11.1 0.35 10.7 0.5 10.55 0.6 10.55 0.65 10.35 1.35 10.4 1.85 10.4 1.9 10.45 2.0 Q10.5 2.05 10.65 2.15 L10.75 2.25 10.8 2.25 Q11.1 2.45 11.4 2.5 11.6 2.6 11.75 2.65 12.95 3.05 16.2 3.05 L18.3 2.95 Q18.5 2.9 18.55 2.75 L18.55 2.7 18.5 2.6 18.25 2.35 17.75 1.9 Q17.7 1.85 17.15 1.6 L16.95 1.65 16.85 1.65 Q15.35 1.65 13.85 2.0 L12.85 2.3 12.5 2.4 Q12.35 2.4 12.3 2.3 L13.3 2.0 14.1 1.7 15.25 1.4 15.55 1.25 16.4 1.1 Q16.55 1.05 16.6 0.95" fill="#111111" fill-rule="evenodd" stroke="none"/>
    <path d="M1.25 -2.8 L1.4 -2.85 1.35 -2.95 Q1.35 -3.15 1.6 -3.3 1.9 -3.4 2.45 -3.4 2.95 -3.4 3.05 -2.95 3.2 -2.5 3.35 -2.5 3.55 -2.5 3.9 -2.7 4.25 -2.9 4.65 -3.25 L4.7 -3.35 4.8 -3.5 5.1 -4.05 5.15 -4.1 5.15 -4.15 5.35 -4.45 5.45 -4.65 Q6.0 -5.4 6.55 -6.35 L6.75 -6.6 6.9 -6.55 7.7 -6.5 7.9 -6.5 7.85 -6.3 Q7.75 -6.1 7.75 -5.95 L7.75 -5.7 7.8 -5.25 7.95 -4.65 Q7.3 -4.7 7.15 -4.55 7.1 -4.5 7.1 -4.45 L7.1 -4.3 Q7.05 -4.1 6.9 -3.9 L6.75 -3.8 6.6 -3.65 Q5.75 -3.1 5.0 -2.8 L3.95 -2.05 4.05 -2.05 5.15 -2.25 5.4 -2.3 Q5.95 -2.45 6.55 -2.75 L6.85 -2.85 Q7.0 -2.65 7.0 -2.6 7.0 -2.45 6.7 -2.2 L6.6 -2.1 6.55 -2.15 5.95 -1.95 3.35 -1.95 2.95 -1.9 2.85 -1.9 Q2.3 -1.9 1.95 -2.05 L1.8 -2.05 Q1.5 -2.2 1.25 -2.45 L1.25 -2.8 M10.45 -6.7 L11.6 -5.0 11.8 -4.7 12.15 -4.3 12.3 -3.95 Q13.05 -2.45 13.45 -2.45 13.55 -2.45 13.85 -2.85 14.15 -3.25 14.25 -3.25 L15.15 -3.2 15.45 -2.9 15.5 -2.55 Q15.5 -2.35 15.5 -2.25 15.3 -2.0 14.95 -1.85 L14.85 -1.85 Q14.5 -1.65 13.9 -1.65 L13.4 -1.7 10.8 -1.7 10.2 -1.9 10.15 -1.9 10.05 -1.95 Q9.75 -2.2 9.75 -2.35 L9.75 -2.4 9.9 -2.6 9.9 -2.65 Q10.3 -2.5 10.65 -2.4 L11.25 -2.3 11.6 -2.3 12.1 -2.15 10.65 -3.15 10.1 -3.5 9.9 -3.8 9.7 -4.2 9.6 -4.3 9.55 -4.4 9.55 -4.35 9.35 -4.45 9.1 -4.5 8.35 -4.6 8.0 -4.6 7.8 -5.65 Q7.8 -5.75 7.95 -6.15 L8.05 -6.45 8.95 -6.45 Q9.95 -6.45 10.35 -6.7 L10.45 -6.7" fill="#0070e0" fill-rule="evenodd" stroke="none"/>
    <path d="M2.9 -0.25 L1.6 -0.45 0.9 -0.65 Q0.65 -0.85 0.6 -0.95 L0.55 -1.0 0.7 -1.4 0.75 -1.45 Q0.95 -1.75 1.35 -2.1 L1.4 -2.05 Q1.65 -1.9 1.95 -1.9 L5.1 -1.8 6.35 -1.7 Q5.45 -0.9 5.15 -0.85 L2.9 -0.25 M0.7 0.8 L0.45 0.75 Q0.3 0.7 0.2 0.6 0.1 0.5 0.1 0.3 0.1 0.1 0.2 0.0 0.25 -0.15 0.35 -0.25 L0.4 -0.3 Q0.4 -0.55 0.7 -0.55 L0.95 -0.55 1.6 -0.4 3.15 -0.2 3.25 -0.15 3.75 -0.1 4.1 -0.05 Q4.65 -0.1 5.15 -0.05 L5.2 -0.05 Q5.2 0.45 5.05 0.6 4.8 0.9 3.65 0.9 L0.7 0.8 M-1.55 2.5 Q-1.65 2.45 -1.65 2.35 L-1.65 2.2 -1.4 2.0 -0.9 1.55 Q-0.85 1.45 -0.3 1.25 L-0.1 1.3 0.0 1.3 Q1.1 1.3 2.25 1.5 L2.65 1.6 3.1 1.65 4.35 2.0 Q4.55 2.0 4.55 1.95 L4.3 1.85 4.6 1.9 4.7 1.95 4.55 2.0 4.35 2.0 4.6 2.05 3.0 2.25 0.4 2.5 -1.55 2.5 M16.15 -0.9 Q15.1 -0.5 14.6 -0.4 L12.95 -0.4 11.45 -0.55 Q10.85 -0.65 10.6 -1.1 L10.4 -1.45 10.65 -1.45 11.7 -1.55 14.85 -1.65 Q15.15 -1.65 15.35 -1.85 L15.4 -1.85 15.85 -1.45 16.05 -1.2 16.05 -1.15 16.15 -0.9 M11.1 0.35 L11.15 0.35 12.7 0.25 13.1 0.2 13.6 0.15 13.65 0.1 15.25 -0.1 15.85 -0.25 16.1 -0.3 Q16.4 -0.25 16.4 0.0 L16.45 0.05 Q16.55 0.15 16.6 0.3 16.7 0.4 16.7 0.6 L16.7 0.7 Q16.7 0.85 16.6 0.95 L11.8 1.55 11.75 1.55 11.55 1.4 Q11.4 1.4 11.25 1.0 L11.2 0.85 11.2 0.75 11.15 0.6 11.1 0.35 M12.85 2.3 L13.85 2.0 Q15.35 1.65 16.85 1.65 L16.95 1.65 17.15 1.6 Q17.7 1.85 17.75 1.9 L18.25 2.35 18.5 2.6 18.55 2.7 17.65 2.7 Q13.85 2.7 13.25 2.65 L12.85 2.6 12.7 2.45 12.85 2.3" fill="#9c9581" fill-rule="evenodd" stroke="none"/>
    <path d="M2.9 -0.25 L5.15 -0.85 Q5.45 -0.9 6.35 -1.7 L6.4 -1.7 6.5 -1.4 Q6.65 -0.95 6.65 -0.75 L6.4 -0.5 Q6.15 -0.15 5.6 -0.15 L4.55 -0.15 3.2 -0.2 2.9 -0.25 M5.2 -0.05 L5.6 0.05 5.65 0.05 Q5.8 0.05 6.15 0.2 L6.3 0.25 6.25 0.35 6.45 1.0 6.45 1.55 6.0 2.0 Q5.9 2.05 5.75 2.1 5.55 2.15 5.35 2.2 L5.1 2.25 Q3.95 2.65 0.65 2.65 L-1.4 2.55 -1.55 2.5 0.4 2.5 3.0 2.25 4.6 2.05 4.35 2.0 4.55 2.0 4.7 1.95 4.6 1.9 4.3 1.85 3.55 1.65 2.75 1.35 1.6 1.05 1.3 0.9 0.7 0.8 3.65 0.9 Q4.8 0.9 5.05 0.6 5.2 0.45 5.2 -0.05 M2.25 1.5 L3.0 1.65 3.1 1.65 2.65 1.6 2.25 1.5 M16.15 -0.9 L16.2 -0.75 16.25 -0.75 16.2 -0.65 15.9 -0.35 15.25 -0.15 Q14.45 0.0 13.6 0.1 L12.3 0.15 11.2 0.15 Q10.7 0.15 10.4 -0.2 L10.15 -0.5 Q10.15 -0.7 10.3 -1.15 L10.35 -1.45 10.4 -1.45 10.6 -1.1 Q10.85 -0.65 11.45 -0.55 L12.95 -0.4 14.6 -0.4 Q15.1 -0.5 16.15 -0.9 M11.1 0.35 L11.15 0.6 11.2 0.75 11.2 0.85 11.25 1.0 Q11.4 1.4 11.55 1.4 L11.75 1.55 11.8 1.55 16.6 0.95 Q16.55 1.05 16.4 1.1 L15.55 1.25 15.25 1.4 14.1 1.7 13.3 2.0 12.3 2.3 Q12.35 2.4 12.5 2.4 L12.85 2.3 12.7 2.45 12.85 2.6 13.25 2.65 Q13.85 2.7 17.65 2.7 L18.55 2.7 18.55 2.75 Q18.5 2.9 18.3 2.95 L16.2 3.05 Q12.95 3.05 11.75 2.65 11.6 2.6 11.4 2.5 11.1 2.45 10.8 2.25 L10.75 2.25 10.65 2.15 Q10.5 2.05 10.45 2.0 L10.4 1.9 10.4 1.85 10.35 1.35 10.55 0.65 10.55 0.6 10.7 0.5 11.1 0.35" fill="#666154" fill-rule="evenodd" stroke="none"/>
  </g>
</svg>
