<?xml version="1.0" encoding="UTF-8" standalone="no"?>
<svg xmlns:ffdec="https://www.free-decompiler.com/flash" xmlns:xlink="http://www.w3.org/1999/xlink" ffdec:objectType="shape" height="16.6px" width="14.0px" xmlns="http://www.w3.org/2000/svg">
  <g transform="matrix(1.0, 0.0, 0.0, 1.0, -0.55, 13.3)">
    <path d="M4.45 -13.05 Q4.9 -13.35 6.5 -13.3 7.8 -13.25 8.55 -13.05 L10.45 -12.55 Q11.15 -12.35 11.85 -12.25 L12.2 -12.15 12.6 -12.1 Q12.9 -12.0 13.05 -11.8 L13.1 -11.6 13.15 -11.2 13.15 -11.15 13.25 -11.05 13.45 -10.4 Q13.4 -10.35 13.35 -10.25 L13.45 -7.7 13.4 -7.05 13.4 -6.85 Q13.45 -6.8 13.45 -6.7 13.45 -6.4 13.15 -6.4 13.05 -6.35 12.9 -6.35 12.1 -6.35 11.0 -6.9 L10.25 -7.3 10.2 -7.25 10.2 -7.3 10.05 -7.3 Q10.0 -7.4 10.0 -7.2 10.0 -6.8 10.2 -6.3 L9.9 -6.65 9.9 -6.7 9.4 -7.3 Q9.2 -7.75 9.2 -8.0 L9.2 -8.05 Q9.5 -8.45 9.5 -8.5 L9.45 -8.5 9.3 -8.45 9.2 -8.3 7.35 -6.35 Q6.9 -5.65 6.75 -5.35 L6.4 -5.7 6.35 -5.8 5.95 -6.35 5.9 -6.45 Q5.2 -7.5 5.2 -7.85 L5.2 -8.0 5.15 -8.1 5.15 -8.25 4.85 -8.35 4.85 -8.25 Q4.85 -8.2 4.85 -8.1 L4.8 -8.1 Q4.55 -7.95 4.2 -7.5 L3.8 -6.95 3.75 -6.95 3.65 -7.25 3.55 -7.6 3.55 -10.25 3.6 -10.3 3.65 -10.55 3.7 -10.85 3.75 -10.95 Q3.95 -11.75 4.45 -13.05 M13.65 -9.7 Q13.85 -9.0 13.85 -8.8 13.85 -8.35 13.8 -7.7 13.65 -8.6 13.65 -9.0 L13.7 -9.4 13.7 -9.55 13.65 -9.7" fill="#888a42" fill-rule="evenodd" stroke="none"/>
    <path d="M8.95 -6.35 Q9.05 -6.25 9.25 -6.25 9.5 -6.25 9.6 -6.5 L9.65 -6.35 Q9.95 -5.85 10.2 -5.7 10.4 -5.5 10.5 -5.5 10.6 -5.5 10.65 -5.6 L10.65 -5.7 10.6 -5.8 Q10.8 -5.8 10.8 -5.95 L10.75 -6.05 11.1 -5.9 11.9 -5.55 Q12.0 -5.45 12.05 -4.85 12.05 -4.5 12.4 -4.4 L12.3 -4.35 12.15 -4.35 11.5 -4.25 11.4 -4.25 9.75 -4.2 9.45 -4.9 9.45 -5.0 9.4 -5.15 8.95 -6.35 M8.9 -7.6 L8.85 -7.65 8.9 -7.6 M4.1 -6.95 L4.15 -6.85 Q4.35 -6.6 5.05 -6.6 5.2 -6.6 5.3 -6.65 L5.3 -6.7 5.4 -6.5 Q6.05 -4.95 6.75 -4.95 L6.8 -4.8 Q6.85 -4.65 6.95 -4.6 6.25 -4.3 4.7 -4.2 4.7 -4.45 4.5 -5.0 L4.35 -5.75 4.1 -6.95 M10.7 -6.7 L10.6 -6.65 10.55 -6.8 10.7 -6.7" fill="#d5bc88" fill-rule="evenodd" stroke="none"/>
    <path d="M3.5 -4.35 L3.65 -4.2 Q3.85 -3.95 4.15 -3.95 L4.3 -3.95 4.65 -3.95 Q4.7 -3.95 4.8 -4.0 L5.25 -4.0 Q6.25 -4.0 7.0 -4.35 7.2 -4.5 7.35 -4.6 L7.3 -4.55 Q7.15 -4.1 6.95 -3.4 L6.45 -1.7 Q6.15 -0.55 6.1 -0.05 L6.2 0.0 5.85 -0.05 5.75 -0.1 5.85 0.0 5.5 -0.3 Q5.2 -0.6 5.0 -0.65 4.75 -0.75 4.4 -0.55 L4.45 -0.5 Q4.3 -0.45 4.25 -0.4 L4.3 -0.4 Q3.6 -0.75 3.65 -1.25 L3.8 -1.7 Q3.85 -2.0 3.85 -2.2 3.8 -2.4 3.6 -3.1 3.4 -3.75 3.4 -4.0 3.4 -4.15 3.5 -4.3 L3.5 -4.35 M1.05 1.6 L1.0 1.55 0.95 1.5 1.0 1.45 1.05 1.4 Q1.05 1.45 1.05 1.55 L1.05 1.6 M1.25 1.2 L1.45 1.0 Q1.55 0.85 1.9 0.55 2.35 0.2 2.85 -0.05 3.6 -0.35 4.1 -0.3 L4.2 -0.3 4.2 -0.25 Q4.6 -0.15 4.75 0.3 4.55 0.5 3.65 0.9 2.8 1.3 2.3 1.4 L1.75 1.4 Q1.55 1.35 1.45 1.25 L1.45 1.15 1.25 1.2 M5.15 -0.35 L5.0 -0.4 4.85 -0.4 5.15 -0.35 M9.2 -4.55 L9.15 -4.55 9.0 -4.5 9.15 -4.7 9.2 -4.55 M8.8 -4.05 L8.8 -3.95 Q8.9 -3.8 9.15 -3.8 9.25 -3.8 9.35 -3.85 L9.65 -3.8 9.7 -3.75 10.8 -3.75 12.35 -3.95 Q12.65 -4.0 12.75 -4.05 L12.8 -4.05 Q12.95 -3.95 13.2 -3.95 L13.3 -3.95 Q13.15 -3.55 13.05 -2.9 L12.75 -1.25 Q12.6 -0.55 11.75 -0.1 L11.25 0.1 Q10.75 -0.15 10.3 -0.15 9.65 -0.2 9.55 0.15 9.45 0.2 9.4 0.3 9.2 0.1 9.15 -0.1 L9.15 -0.25 9.05 -1.1 9.0 -1.8 8.95 -2.3 8.9 -2.5 8.85 -3.35 8.8 -3.5 8.85 -3.55 8.8 -3.6 8.8 -4.05 M14.1 -4.3 L14.1 -4.0 14.1 -4.1 14.05 -4.25 14.1 -4.3 M13.0 2.4 L12.9 2.45 12.95 2.35 13.0 2.4 M9.85 3.0 L8.5 3.0 8.05 2.95 7.45 2.85 7.4 2.85 Q7.35 2.8 7.35 2.75 7.35 2.5 8.5 1.55 L9.4 0.8 9.5 0.8 9.6 0.75 9.65 0.75 9.65 0.7 9.8 0.85 Q9.85 0.8 9.95 0.75 L10.4 0.75 Q11.0 0.75 11.15 1.0 L11.15 1.05 Q11.4 1.05 11.4 1.35 L11.4 1.4 Q11.4 1.65 10.45 2.5 L9.85 3.0 M11.15 0.25 L11.0 0.2 10.9 0.25 10.95 0.3 10.9 0.3 10.65 0.2 10.85 0.2 11.15 0.25" fill="#9d7548" fill-rule="evenodd" stroke="none"/>
    <path d="M8.95 -6.35 L8.6 -7.2 8.65 -7.3 8.65 -7.4 8.75 -7.5 8.85 -7.65 8.9 -7.6 9.5 -6.65 9.6 -6.5 Q9.5 -6.25 9.25 -6.25 9.05 -6.25 8.95 -6.35 M4.1 -6.95 L4.1 -7.0 4.5 -7.4 4.85 -7.85 4.95 -7.65 4.95 -7.6 Q5.1 -7.15 5.3 -6.7 L5.3 -6.65 Q5.2 -6.6 5.05 -6.6 4.35 -6.6 4.15 -6.85 L4.1 -6.95 M6.75 -4.95 L6.8 -4.95 6.8 -5.0 6.9 -5.1 7.15 -5.45 7.2 -5.4 7.15 -4.8 Q7.15 -4.75 7.2 -4.75 L7.05 -4.65 6.95 -4.6 Q6.85 -4.65 6.8 -4.8 L6.75 -4.95 M10.7 -6.7 L10.8 -6.65 11.35 -6.4 11.45 -6.35 11.5 -6.35 Q11.9 -6.2 12.35 -6.1 L12.55 -6.05 13.0 -6.05 Q12.9 -5.95 12.9 -5.85 L12.9 -5.75 Q12.9 -5.3 12.85 -5.15 L12.8 -4.9 Q12.65 -4.65 12.45 -4.45 L12.4 -4.4 Q12.05 -4.5 12.05 -4.85 12.0 -5.45 11.9 -5.55 L11.1 -5.9 10.75 -6.05 10.7 -6.2 Q10.65 -6.4 10.65 -6.45 L10.6 -6.6 10.6 -6.65 10.7 -6.7" fill="#a26f48" fill-rule="evenodd" stroke="none"/>
    <path d="M3.5 -4.35 L3.95 -4.9 4.1 -5.0 4.15 -5.0 Q4.3 -4.4 4.45 -4.2 L4.25 -4.2 4.05 -4.25 3.8 -4.3 Q3.8 -4.15 4.0 -4.05 4.15 -4.0 4.3 -3.95 L4.15 -3.95 Q3.85 -3.95 3.65 -4.2 L3.5 -4.35 M7.35 -4.6 L7.45 -4.7 Q7.6 -4.85 7.6 -4.95 7.6 -5.15 7.55 -5.05 7.5 -5.05 7.4 -4.9 L7.35 -4.85 7.4 -5.2 7.45 -5.4 7.95 -5.35 7.95 -5.3 8.05 -5.0 8.05 -4.85 Q8.05 -3.65 7.85 -1.95 L7.6 -0.2 7.6 0.1 7.55 0.25 7.5 0.6 7.5 1.05 6.8 1.25 Q6.5 1.45 5.9 1.55 L3.05 1.75 2.95 1.75 1.8 1.8 Q1.1 1.8 1.05 1.6 L1.05 1.55 Q1.05 1.45 1.05 1.4 L1.1 1.3 Q1.15 1.2 1.25 1.2 L1.45 1.15 1.45 1.25 Q1.55 1.35 1.75 1.4 L2.3 1.4 Q2.8 1.3 3.65 0.9 4.55 0.5 4.75 0.3 4.6 -0.15 4.2 -0.25 L4.2 -0.3 Q4.3 -0.3 4.3 -0.35 L4.3 -0.4 4.25 -0.4 Q4.3 -0.45 4.45 -0.5 L4.45 -0.45 4.55 -0.45 4.85 -0.4 5.0 -0.4 5.15 -0.35 Q5.4 -0.2 5.65 0.0 L6.5 0.7 7.15 0.7 Q7.15 0.55 7.1 0.45 L6.85 0.45 Q6.35 0.35 5.85 0.0 L5.75 -0.1 5.85 -0.05 6.2 0.0 6.1 -0.05 Q6.15 -0.55 6.45 -1.7 L6.95 -3.4 Q7.15 -4.1 7.3 -4.55 L7.35 -4.6 M9.0 -4.5 L9.15 -4.55 9.2 -4.55 9.25 -4.4 Q9.35 -4.15 9.45 -4.0 L9.35 -4.0 9.1 -4.05 9.25 -3.9 9.35 -3.85 Q9.25 -3.8 9.15 -3.8 8.9 -3.8 8.8 -3.95 L8.8 -4.05 Q8.85 -4.25 8.95 -4.45 L9.0 -4.5 M12.75 -4.05 Q12.85 -4.15 12.85 -4.2 L12.85 -4.3 13.25 -4.55 Q13.65 -4.85 13.65 -4.95 13.65 -5.1 13.2 -4.75 L13.25 -5.0 13.35 -5.3 13.4 -5.3 14.05 -5.25 14.1 -5.25 14.1 -4.3 14.05 -4.25 14.1 -4.1 14.1 -4.0 14.05 -3.6 14.05 -3.5 14.0 0.2 13.95 1.25 Q13.85 1.85 13.75 2.05 L13.75 2.1 Q13.7 2.2 13.6 2.2 L13.6 2.25 13.1 2.4 13.0 2.4 12.95 2.35 12.9 2.45 12.15 2.65 Q11.2 2.9 10.1 3.0 L9.85 3.0 10.45 2.5 Q11.4 1.65 11.4 1.4 L11.4 1.35 Q11.4 1.05 11.15 1.05 L11.15 1.0 Q11.0 0.75 10.4 0.75 L9.95 0.75 Q9.85 0.8 9.8 0.85 L9.65 0.7 9.7 0.6 9.4 0.3 Q9.45 0.2 9.55 0.15 L9.5 0.3 Q9.5 0.5 9.6 0.4 9.8 0.3 10.25 0.25 L10.6 0.2 10.65 0.2 10.9 0.3 10.95 0.3 10.9 0.25 11.0 0.2 11.15 0.25 Q11.5 0.4 11.95 0.75 L12.45 1.25 12.9 1.65 Q13.1 1.65 13.05 1.6 L13.05 1.55 12.9 1.4 11.9 0.45 Q11.55 0.25 11.25 0.1 L11.75 -0.1 Q12.6 -0.55 12.75 -1.25 L13.05 -2.9 Q13.15 -3.55 13.3 -3.95 L13.2 -3.95 Q12.95 -3.95 12.8 -4.05 L12.75 -4.05" fill="#6f4e2d" fill-rule="evenodd" stroke="none"/>
    <path d="M4.45 -13.05 Q3.95 -11.75 3.75 -10.95 L3.7 -10.85 3.65 -10.55 3.6 -10.3 3.55 -10.25 3.55 -7.6 3.65 -7.25 3.75 -6.95 3.8 -6.95 4.2 -7.5 Q4.55 -7.95 4.8 -8.1 L4.85 -8.1 Q4.85 -8.2 4.85 -8.25 L4.85 -8.35 5.15 -8.25 5.15 -8.1 5.2 -8.0 5.2 -7.85 Q5.2 -7.5 5.9 -6.45 L5.95 -6.35 6.35 -5.8 6.4 -5.7 6.75 -5.35 Q6.9 -5.65 7.35 -6.35 L9.2 -8.3 9.3 -8.45 9.45 -8.5 9.5 -8.5 Q9.5 -8.45 9.2 -8.05 L9.2 -8.0 Q9.2 -7.75 9.4 -7.3 L9.9 -6.7 9.9 -6.65 10.2 -6.3 Q10.0 -6.8 10.0 -7.2 10.0 -7.4 10.05 -7.3 L10.2 -7.3 10.2 -7.25 10.25 -7.3 11.0 -6.9 Q12.1 -6.35 12.9 -6.35 13.05 -6.35 13.15 -6.4 13.45 -6.4 13.45 -6.7 13.45 -6.8 13.4 -6.85 L13.4 -7.05 13.45 -7.7 13.35 -10.25 Q13.4 -10.35 13.45 -10.4 L13.5 -10.45 13.6 -10.45 Q13.6 -10.05 13.65 -9.7 L13.7 -9.55 13.7 -9.4 13.65 -9.0 Q13.65 -8.6 13.8 -7.7 L13.85 -7.4 14.05 -6.25 Q14.05 -6.0 13.9 -6.0 L13.85 -6.05 Q13.8 -6.0 13.7 -6.0 L13.65 -6.0 Q13.6 -5.95 13.55 -5.95 L13.5 -5.7 13.95 -5.6 Q14.55 -5.45 14.55 -5.0 L14.5 -4.35 14.5 -4.1 14.45 -4.1 14.4 -2.85 Q14.25 -1.3 14.25 -1.05 L14.35 -0.1 14.3 1.35 14.35 1.55 14.3 1.8 14.3 1.9 14.2 2.15 14.15 2.2 Q14.15 2.55 13.05 2.9 11.55 3.3 9.15 3.3 L7.85 3.25 Q6.95 3.15 6.95 3.0 6.95 2.95 7.0 2.9 L6.95 2.85 Q6.95 2.65 7.25 2.3 L7.6 2.0 Q7.95 1.7 8.15 1.35 L8.2 1.3 Q8.4 1.15 8.55 1.05 L8.85 0.75 Q8.75 0.65 8.75 0.6 L8.85 0.05 Q8.75 -0.15 8.75 -0.3 L8.75 -0.95 8.65 -1.95 8.55 -2.7 8.55 -3.5 Q8.55 -3.95 8.75 -4.35 L8.75 -4.2 8.9 -4.6 9.05 -4.9 Q8.85 -5.2 8.6 -5.9 8.45 -6.35 8.35 -6.8 L7.65 -5.8 7.7 -5.75 Q8.0 -5.85 8.1 -5.7 8.25 -5.55 8.25 -5.25 L8.25 -5.2 8.35 -4.8 8.45 -3.9 8.35 -2.05 Q8.35 -1.8 8.1 -1.1 7.9 -0.35 7.9 0.0 7.9 0.15 8.0 1.0 L8.0 1.05 7.95 1.2 8.0 1.2 Q7.9 1.4 7.75 1.5 L7.3 1.8 6.9 1.9 5.0 2.15 4.0 2.15 2.45 2.2 Q1.3 2.2 0.8 1.95 0.55 1.8 0.55 1.65 0.55 0.95 1.7 0.2 2.55 -0.35 3.25 -0.5 3.2 -0.65 3.15 -0.85 3.15 -0.95 3.3 -1.5 3.4 -2.05 3.4 -2.25 L3.2 -3.1 Q3.15 -3.1 3.1 -3.35 L3.05 -3.7 3.05 -4.3 Q3.05 -4.5 3.15 -4.45 3.3 -4.75 3.7 -5.25 L3.9 -5.45 3.8 -5.7 Q3.75 -6.05 3.7 -6.4 3.5 -6.45 3.2 -7.4 3.2 -8.35 3.3 -9.4 3.35 -9.95 3.4 -10.5 L3.4 -10.55 3.45 -10.55 3.6 -11.3 Q3.9 -12.75 4.5 -13.15 L4.45 -13.05 M8.85 -7.65 L8.75 -7.5 8.65 -7.4 8.65 -7.3 8.6 -7.2 8.95 -6.35 9.4 -5.15 9.45 -5.0 9.45 -4.9 9.75 -4.2 11.4 -4.25 11.5 -4.25 12.15 -4.35 12.3 -4.35 12.4 -4.4 12.45 -4.45 Q12.65 -4.65 12.8 -4.9 L12.85 -5.15 Q12.9 -5.3 12.9 -5.75 L12.9 -5.85 Q12.9 -5.95 13.0 -6.05 L12.55 -6.05 12.35 -6.1 Q11.9 -6.2 11.5 -6.35 L11.45 -6.35 11.35 -6.4 10.8 -6.65 10.7 -6.7 10.55 -6.8 10.6 -6.65 10.6 -6.6 10.65 -6.45 Q10.65 -6.4 10.7 -6.2 L10.75 -6.05 10.8 -5.95 Q10.8 -5.8 10.6 -5.8 L10.65 -5.7 10.65 -5.6 Q10.6 -5.5 10.5 -5.5 10.4 -5.5 10.2 -5.7 9.95 -5.85 9.65 -6.35 L9.6 -6.5 9.5 -6.65 8.9 -7.6 8.85 -7.65 M5.3 -6.7 Q5.1 -7.15 4.95 -7.6 L4.95 -7.65 4.85 -7.85 4.5 -7.4 4.1 -7.0 4.1 -6.95 4.35 -5.75 4.5 -5.0 Q4.7 -4.45 4.7 -4.2 6.25 -4.3 6.95 -4.6 L7.05 -4.65 7.2 -4.75 Q7.15 -4.75 7.15 -4.8 L7.2 -5.4 7.15 -5.45 6.9 -5.1 6.8 -5.0 6.8 -4.95 6.75 -4.95 Q6.05 -4.95 5.4 -6.5 L5.3 -6.7 M4.3 -3.95 Q4.15 -4.0 4.0 -4.05 3.8 -4.15 3.8 -4.3 L4.05 -4.25 4.25 -4.2 4.45 -4.2 Q4.3 -4.4 4.15 -5.0 L4.1 -5.0 3.95 -4.9 3.5 -4.35 3.5 -4.3 Q3.4 -4.15 3.4 -4.0 3.4 -3.75 3.6 -3.1 3.8 -2.4 3.85 -2.2 3.85 -2.0 3.8 -1.7 L3.65 -1.25 Q3.6 -0.75 4.3 -0.4 L4.3 -0.35 Q4.3 -0.3 4.2 -0.3 L4.1 -0.3 Q3.6 -0.35 2.85 -0.05 2.35 0.2 1.9 0.55 1.55 0.85 1.45 1.0 L1.25 1.2 Q1.15 1.2 1.1 1.3 L1.05 1.4 1.0 1.45 0.95 1.5 0.95 1.55 1.0 1.55 1.05 1.6 Q1.1 1.8 1.8 1.8 L2.95 1.75 3.05 1.75 5.9 1.55 Q6.5 1.45 6.8 1.25 L7.5 1.05 7.5 0.6 7.55 0.25 7.6 0.1 7.6 -0.2 7.85 -1.95 Q8.05 -3.65 8.05 -4.85 L8.05 -5.0 7.95 -5.3 7.95 -5.35 7.45 -5.4 7.4 -5.2 7.35 -4.85 7.4 -4.9 Q7.5 -5.05 7.55 -5.05 7.6 -5.15 7.6 -4.95 7.6 -4.85 7.45 -4.7 L7.35 -4.6 Q7.2 -4.5 7.0 -4.35 6.25 -4.0 5.25 -4.0 L4.8 -4.0 Q4.7 -3.95 4.65 -3.95 L4.3 -3.95 M4.45 -0.5 L4.4 -0.55 Q4.75 -0.75 5.0 -0.65 5.2 -0.6 5.5 -0.3 L5.85 0.0 Q6.35 0.35 6.85 0.45 L7.1 0.45 Q7.15 0.55 7.15 0.7 L6.5 0.7 5.65 0.0 Q5.4 -0.2 5.15 -0.35 L4.85 -0.4 4.55 -0.45 4.45 -0.45 4.45 -0.5 M9.0 -4.5 L8.95 -4.45 Q8.85 -4.25 8.8 -4.05 L8.8 -3.6 8.85 -3.55 8.8 -3.5 8.85 -3.35 8.9 -2.5 8.95 -2.3 9.0 -1.8 9.05 -1.1 9.15 -0.25 9.15 -0.1 Q9.2 0.1 9.4 0.3 L9.7 0.6 9.65 0.7 9.65 0.75 9.6 0.75 9.5 0.8 9.4 0.8 8.5 1.55 Q7.35 2.5 7.35 2.75 7.35 2.8 7.4 2.85 L7.45 2.85 8.05 2.95 8.5 3.0 9.85 3.0 10.1 3.0 Q11.2 2.9 12.15 2.65 L12.9 2.45 13.0 2.4 13.1 2.4 13.6 2.25 13.6 2.2 Q13.7 2.2 13.75 2.1 L13.75 2.05 Q13.85 1.85 13.95 1.25 L14.0 0.2 14.05 -3.5 14.05 -3.6 14.1 -4.0 14.1 -4.3 14.1 -5.25 14.05 -5.25 13.4 -5.3 13.35 -5.3 13.25 -5.0 13.2 -4.75 Q13.65 -5.1 13.65 -4.95 13.65 -4.85 13.25 -4.55 L12.85 -4.3 12.85 -4.2 Q12.85 -4.15 12.75 -4.05 12.65 -4.0 12.35 -3.95 L10.8 -3.75 9.7 -3.75 9.65 -3.8 9.35 -3.85 9.25 -3.9 9.1 -4.05 9.35 -4.0 9.45 -4.0 Q9.35 -4.15 9.25 -4.4 L9.2 -4.55 9.15 -4.7 9.0 -4.5 M9.55 0.15 Q9.65 -0.2 10.3 -0.15 10.75 -0.15 11.25 0.1 11.55 0.25 11.9 0.45 L12.9 1.4 13.05 1.55 13.05 1.6 Q13.1 1.65 12.9 1.65 L12.45 1.25 11.95 0.75 Q11.5 0.4 11.15 0.25 L10.85 0.2 10.65 0.2 10.6 0.2 10.25 0.25 Q9.8 0.3 9.6 0.4 9.5 0.5 9.5 0.3 L9.55 0.15 M14.25 -5.2 L14.25 -5.2 M13.05 -4.7 L13.05 -4.7 M14.1 0.2 L14.1 0.35 14.15 0.4 14.1 0.2" fill="#101010" fill-rule="evenodd" stroke="none"/>
  </g>
</svg>
