<?xml version="1.0" encoding="UTF-8" standalone="no"?>
<svg xmlns:ffdec="https://www.free-decompiler.com/flash" xmlns:xlink="http://www.w3.org/1999/xlink" ffdec:objectType="shape" height="6.35px" width="4.4px" xmlns="http://www.w3.org/2000/svg">
  <g transform="matrix(1.0, 0.0, 0.0, 1.0, 3.3, 4.85)">
    <path d="M-0.5 -0.5 L-0.6 -0.4 Q-0.85 -0.1 -0.85 0.25 -0.85 0.4 -0.65 0.4 L-0.2 0.4 Q-0.15 0.4 0.0 0.45 L-0.1 0.45 -0.65 0.4 -1.05 0.45 -1.25 0.5 -1.4 0.5 -1.65 0.6 -1.8 0.3 Q-1.45 -0.05 -0.9 -0.3 -0.7 -0.4 -0.5 -0.5 M-1.85 -3.7 L-1.85 -3.5 -1.95 -3.15 -2.0 -2.75 Q-2.0 -2.5 -1.9 -2.25 -1.85 -2.05 -1.75 -1.9 L-2.35 -1.35 -2.65 -1.0 Q-2.95 -1.4 -2.95 -1.45 -2.95 -1.75 -2.7 -2.45 L-2.7 -2.6 -2.45 -3.0 -1.85 -3.7" fill="#888a42" fill-rule="evenodd" stroke="none"/>
    <path d="M0.3 -0.9 L0.3 -0.95 0.3 -0.9 M-0.15 -2.3 L-0.15 -2.35 -0.15 -2.3 M-0.4 -2.55 L-0.65 -2.45 -0.7 -2.15 -0.65 -1.95 -0.7 -2.05 Q-0.8 -2.3 -0.85 -2.4 L-0.4 -2.55 M-1.35 -2.1 L-0.95 -2.3 -1.0 -2.15 Q-0.65 -1.35 -0.65 -1.15 L-0.65 -0.75 -0.6 -0.7 -1.2 -1.75 Q-1.25 -2.0 -1.35 -2.1 M-2.1 -1.4 L-1.95 -0.95 Q-1.75 -0.35 -1.45 -0.25 L-1.65 -0.1 Q-1.9 -0.65 -2.1 -1.0 L-2.3 -1.2 -2.1 -1.4" fill="#d6ba4e" fill-rule="evenodd" stroke="none"/>
    <path d="M-0.5 -0.5 Q-0.05 -0.7 0.35 -0.75 L0.4 -0.55 Q0.75 0.5 0.75 0.6 L0.75 0.65 Q0.45 0.55 0.0 0.45 -0.15 0.4 -0.2 0.4 L-0.65 0.4 Q-0.85 0.4 -0.85 0.25 -0.85 -0.1 -0.6 -0.4 L-0.5 -0.5 M-1.85 -3.7 L-1.85 -3.75 -1.55 -4.05 -1.5 -4.05 -1.35 -4.15 -1.25 -4.2 -0.95 -4.3 -0.9 -4.3 Q-0.85 -4.05 -0.55 -3.35 L-0.5 -3.25 -0.3 -2.75 -0.65 -2.6 -1.3 -2.25 -1.45 -2.15 -1.5 -2.1 -1.75 -1.9 Q-1.85 -2.05 -1.9 -2.25 -2.0 -2.5 -2.0 -2.75 L-1.95 -3.15 -1.85 -3.5 -1.85 -3.7" fill="#46471b" fill-rule="evenodd" stroke="none"/>
    <path d="M0.3 -0.95 L0.3 -0.9 -0.3 -0.75 Q-0.45 -0.95 -0.55 -1.4 L-0.65 -1.85 -0.65 -1.95 -0.7 -2.15 -0.65 -2.45 -0.4 -2.55 -0.25 -2.6 -0.15 -2.35 -0.15 -2.3 -0.1 -2.2 0.0 -1.9 Q0.05 -1.7 0.3 -0.95 M-1.65 -0.1 Q-1.85 0.05 -1.9 0.15 L-2.35 -0.45 -2.5 -0.8 Q-2.45 -1.0 -2.3 -1.2 L-2.1 -1.0 Q-1.9 -0.65 -1.65 -0.1" fill="#c27a29" fill-rule="evenodd" stroke="none"/>
    <path d="M-0.65 -1.95 L-0.65 -1.85 -0.55 -1.4 Q-0.45 -0.95 -0.3 -0.75 L-0.6 -0.65 -0.8 -0.6 Q-1.2 -0.4 -1.45 -0.25 -1.75 -0.35 -1.95 -0.95 L-2.1 -1.4 Q-1.9 -1.65 -1.6 -1.9 L-1.35 -2.1 Q-1.25 -2.0 -1.2 -1.75 L-0.6 -0.7 -0.65 -0.75 -0.65 -1.15 Q-0.65 -1.35 -1.0 -2.15 L-0.95 -2.3 -0.85 -2.4 Q-0.8 -2.3 -0.7 -2.05 L-0.65 -1.95" fill="#eee2b5" fill-rule="evenodd" stroke="none"/>
    <path d="M0.05 -2.85 L0.1 -2.65 0.05 -2.65 0.15 -2.4 0.2 -2.15 Q0.45 -1.35 0.6 -0.95 0.65 -0.7 0.9 0.25 L1.1 1.3 1.1 1.5 1.05 1.5 Q0.5 1.0 -0.25 0.8 -1.05 0.6 -1.6 0.9 -1.75 0.95 -1.85 1.1 L-1.95 1.05 Q-2.15 0.7 -2.6 0.0 L-2.8 -0.3 Q-3.0 -0.45 -3.1 -0.75 L-3.2 -0.9 -3.2 -1.0 -3.3 -1.45 Q-3.3 -1.85 -3.1 -2.25 L-3.15 -2.35 -2.75 -3.0 -2.25 -3.9 -1.95 -4.25 -1.65 -4.5 -1.25 -4.75 -0.8 -4.85 -0.6 -4.6 -0.55 -4.5 -0.7 -4.5 -0.65 -4.45 -0.55 -4.45 -0.45 -4.3 -0.6 -4.3 Q-0.4 -3.85 0.0 -2.85 L0.05 -2.85 M0.3 -0.9 L0.3 -0.95 Q0.05 -1.7 0.0 -1.9 L-0.1 -2.2 -0.15 -2.3 -0.15 -2.35 -0.25 -2.6 -0.4 -2.55 -0.85 -2.4 -0.95 -2.3 -1.35 -2.1 -1.6 -1.9 Q-1.9 -1.65 -2.1 -1.4 L-2.3 -1.2 Q-2.45 -1.0 -2.5 -0.8 L-2.35 -0.45 -1.9 0.15 Q-1.85 0.05 -1.65 -0.1 L-1.45 -0.25 Q-1.2 -0.4 -0.8 -0.6 L-0.6 -0.65 -0.3 -0.75 0.3 -0.9 M0.0 0.45 Q0.45 0.55 0.75 0.65 L0.75 0.6 Q0.75 0.5 0.4 -0.55 L0.35 -0.75 Q-0.05 -0.7 -0.5 -0.5 -0.7 -0.4 -0.9 -0.3 -1.45 -0.05 -1.8 0.3 L-1.65 0.6 -1.4 0.5 -1.25 0.5 -1.05 0.45 -0.65 0.4 -0.1 0.45 0.0 0.45 M-1.75 -1.9 L-1.5 -2.1 -1.45 -2.15 -1.3 -2.25 -0.65 -2.6 -0.3 -2.75 -0.5 -3.25 -0.55 -3.35 Q-0.85 -4.05 -0.9 -4.3 L-0.95 -4.3 -1.25 -4.2 -1.35 -4.15 -1.5 -4.05 -1.55 -4.05 -1.85 -3.75 -1.85 -3.7 -2.45 -3.0 -2.7 -2.6 -2.7 -2.45 Q-2.95 -1.75 -2.95 -1.45 -2.95 -1.4 -2.65 -1.0 L-2.35 -1.35 -1.75 -1.9" fill="#101010" fill-rule="evenodd" stroke="none"/>
  </g>
</svg>
