<?xml version="1.0" encoding="UTF-8" standalone="no"?>
<svg xmlns:ffdec="https://www.free-decompiler.com/flash" xmlns:xlink="http://www.w3.org/1999/xlink" ffdec:objectType="shape" height="5.0px" width="15.85px" xmlns="http://www.w3.org/2000/svg">
  <g transform="matrix(1.0, 0.0, 0.0, 1.0, 1.7, 5.05)">
    <path d="M-1.1 -1.3 Q-1.25 -1.45 -1.35 -1.55 L-1.35 -1.65 Q-1.35 -2.0 -0.4 -3.2 L0.5 -4.35 Q1.25 -4.5 2.65 -4.05 4.4 -3.5 5.55 -3.5 5.9 -3.5 7.4 -3.8 L7.4 -3.7 Q7.5 -3.45 7.9 -3.45 L8.75 -3.5 9.3 -3.65 9.3 -3.6 8.25 -2.55 Q7.75 -2.1 7.6 -1.8 L7.05 -2.05 6.5 -2.25 6.3 -2.45 5.75 -2.45 5.6 -2.35 Q5.45 -2.95 4.2 -2.65 2.6 -2.1 2.2 -2.0 L0.0 -1.6 -1.1 -1.3" fill="#8d873f" fill-rule="evenodd" stroke="none"/>
    <path d="M-1.1 -1.3 L0.0 -1.6 2.2 -2.0 Q2.6 -2.1 4.2 -2.65 5.45 -2.95 5.6 -2.35 4.25 -1.75 3.35 -1.4 2.65 -1.15 2.05 -0.95 1.5 -0.7 1.0 -0.7 L0.45 -0.7 Q0.0 -0.7 -0.4 -0.85 -0.6 -0.95 -0.85 -1.1 L-1.05 -1.25 -1.1 -1.3 M7.6 -1.8 Q7.75 -2.1 8.25 -2.55 L9.3 -3.6 9.3 -3.65 8.75 -3.5 7.9 -3.45 Q7.5 -3.45 7.4 -3.7 L7.4 -3.8 9.05 -4.15 11.25 -4.65 Q11.7 -4.3 12.6 -3.05 L12.9 -2.65 13.65 -1.4 13.7 -1.2 Q13.65 -1.0 13.5 -0.8 L13.4 -0.7 Q12.9 -0.55 11.85 -0.55 10.3 -0.55 8.35 -1.4 L7.6 -1.8" fill="#676129" fill-rule="evenodd" stroke="none"/>
    <path d="M3.1 -4.4 Q4.3 -4.0 5.75 -4.0 6.7 -4.0 8.7 -4.5 10.05 -4.85 10.45 -5.05 L10.9 -5.05 Q11.5 -4.85 11.85 -4.8 L12.55 -3.95 Q13.15 -3.15 13.55 -2.35 13.95 -1.7 14.0 -1.35 L14.15 -1.1 14.15 -1.0 13.75 -0.6 Q13.4 -0.3 12.9 -0.05 L12.45 -0.05 Q9.8 -0.05 7.95 -0.85 7.2 -1.15 6.7 -1.55 L6.6 -1.6 6.3 -1.9 6.3 -1.85 5.95 -1.95 5.85 -1.9 5.25 -1.9 Q5.1 -1.9 5.0 -1.85 L4.8 -1.8 Q4.6 -1.75 4.5 -1.6 4.1 -1.45 3.65 -1.25 L1.75 -0.5 1.5 -0.4 0.5 -0.3 0.3 -0.3 Q-0.6 -0.3 -1.25 -0.95 L-1.45 -1.2 Q-1.65 -1.4 -1.7 -1.55 -1.5 -2.3 -1.0 -3.15 L-0.85 -3.3 Q-0.2 -4.2 0.3 -4.55 L0.3 -4.6 0.4 -4.65 Q0.7 -4.8 1.65 -4.8 L2.15 -4.75 3.1 -4.4 M7.4 -3.8 Q5.9 -3.5 5.55 -3.5 4.4 -3.5 2.65 -4.05 1.25 -4.5 0.5 -4.35 L-0.4 -3.2 Q-1.35 -2.0 -1.35 -1.65 L-1.35 -1.55 Q-1.25 -1.45 -1.1 -1.3 L-1.05 -1.25 -0.85 -1.1 Q-0.6 -0.95 -0.4 -0.85 0.0 -0.7 0.45 -0.7 L1.0 -0.7 Q1.5 -0.7 2.05 -0.95 2.65 -1.15 3.35 -1.4 4.25 -1.75 5.6 -2.35 L5.75 -2.45 6.3 -2.45 6.5 -2.25 7.05 -2.05 7.6 -1.8 8.35 -1.4 Q10.3 -0.55 11.85 -0.55 12.9 -0.55 13.4 -0.7 L13.5 -0.8 Q13.65 -1.0 13.7 -1.2 L13.65 -1.4 12.9 -2.65 12.6 -3.05 Q11.7 -4.3 11.25 -4.65 L9.05 -4.15 7.4 -3.8" fill="#101010" fill-rule="evenodd" stroke="none"/>
  </g>
</svg>
