<?xml version="1.0" encoding="UTF-8" standalone="no"?>
<svg xmlns:ffdec="https://www.free-decompiler.com/flash" xmlns:xlink="http://www.w3.org/1999/xlink" ffdec:objectType="shape" height="5.7px" width="11.0px" xmlns="http://www.w3.org/2000/svg">
  <g transform="matrix(1.0, 0.0, 0.0, 1.0, -0.6, 4.15)">
    <path d="M1.45 -4.05 L1.55 -4.05 1.6 -4.1 1.75 -4.05 2.05 -3.85 Q3.35 -3.05 5.4 -3.05 7.4 -3.05 9.2 -3.65 L9.55 -3.85 10.05 -4.15 Q10.2 -4.1 10.25 -4.05 L10.2 -4.05 10.5 -3.6 11.25 -2.3 Q11.4 -2.0 11.6 -1.1 L11.6 -0.95 11.55 -0.7 11.4 -0.65 11.4 -0.7 Q11.25 -0.6 10.75 -0.35 10.35 -0.15 10.1 -0.1 L9.9 -0.1 9.95 -0.05 Q10.05 0.4 9.35 0.75 8.4 1.1 7.9 1.45 7.4 1.55 7.05 1.55 3.95 1.55 2.0 0.05 1.35 -0.45 0.95 -1.05 0.65 -1.5 0.65 -1.7 0.6 -1.7 0.6 -1.8 0.6 -2.25 1.45 -3.95 L1.45 -4.05 M1.55 -3.8 L1.55 -3.7 1.5 -3.6 1.3 -2.9 1.1 -2.4 1.0 -1.95 1.0 -1.75 1.15 -1.45 Q1.9 -0.55 2.6 -0.05 3.8 0.85 5.35 1.1 L5.4 1.1 5.7 1.15 6.55 1.15 7.1 1.1 8.1 0.85 8.2 0.85 8.5 0.75 8.7 0.65 8.85 0.6 8.95 0.55 9.65 0.1 9.6 -0.1 Q9.6 -0.2 9.5 -0.45 L9.3 -1.5 9.25 -2.05 8.9 -3.25 8.85 -3.25 Q7.7 -2.85 5.6 -2.85 3.5 -2.85 2.4 -3.3 2.1 -3.45 1.6 -3.8 L1.55 -3.85 1.55 -3.8 M9.6 -3.55 Q9.4 -3.4 9.2 -3.3 9.4 -2.6 9.7 -1.05 9.7 -0.8 9.8 -0.45 L10.4 -0.6 11.0 -0.9 11.25 -1.1 Q11.1 -1.65 10.85 -2.35 L10.65 -2.75 Q10.2 -3.6 10.1 -3.95 L9.6 -3.55" fill="#111111" fill-rule="evenodd" stroke="none"/>
    <path d="M1.6 -3.8 L1.55 -3.8 1.55 -3.85 1.6 -3.8" fill="#97c543" fill-rule="evenodd" stroke="none"/>
    <path d="M1.1 -2.4 L1.3 -2.9 1.5 -3.6 1.55 -3.7 1.55 -3.8 1.6 -3.8 Q2.1 -3.45 2.4 -3.3 3.5 -2.85 5.6 -2.85 7.7 -2.85 8.85 -3.25 L8.9 -3.25 9.25 -2.05 9.3 -1.5 9.5 -0.45 Q9.6 -0.2 9.6 -0.1 L9.65 0.1 8.95 0.55 8.85 0.6 8.7 0.65 8.5 0.75 8.2 0.85 8.1 0.85 7.1 1.1 Q6.95 0.95 6.8 0.75 L6.5 0.1 Q6.25 -0.45 4.75 -0.85 3.25 -1.25 2.4 -1.6 1.45 -2.0 1.1 -2.4 M9.6 -3.55 L10.1 -3.95 Q10.2 -3.6 10.65 -2.75 L10.85 -2.35 Q11.1 -1.65 11.25 -1.1 L11.0 -0.9 10.4 -0.6 9.8 -0.45 Q9.7 -0.8 9.7 -1.05 9.4 -2.6 9.2 -3.3 9.4 -3.4 9.6 -3.55" fill="#492321" fill-rule="evenodd" stroke="none"/>
    <path d="M1.1 -2.4 Q1.45 -2.0 2.4 -1.6 3.25 -1.25 4.75 -0.85 6.25 -0.45 6.5 0.1 L6.8 0.75 Q6.95 0.95 7.1 1.1 L6.55 1.15 5.7 1.15 5.4 1.1 5.35 1.1 Q3.8 0.85 2.6 -0.05 1.9 -0.55 1.15 -1.45 L1.0 -1.75 1.0 -1.95 1.1 -2.4" fill="#67312e" fill-rule="evenodd" stroke="none"/>
  </g>
</svg>
