<?xml version="1.0" encoding="UTF-8" standalone="no"?>
<svg xmlns:ffdec="https://www.free-decompiler.com/flash" xmlns:xlink="http://www.w3.org/1999/xlink" ffdec:objectType="shape" height="5.05px" width="8.95px" xmlns="http://www.w3.org/2000/svg">
  <g transform="matrix(1.0, 0.0, 0.0, 1.0, 1.6, 9.15)">
    <path d="M6.9 -7.4 Q6.5 -6.85 5.9 -6.35 4.2 -5.0 1.45 -5.0 0.6 -5.0 -0.1 -5.3 L-0.25 -5.35 -0.4 -5.45 -0.75 -5.65 Q-1.15 -5.95 -1.35 -6.15 L-1.35 -5.95 Q-1.35 -5.4 -0.95 -5.0 -0.3 -4.35 1.2 -4.35 4.65 -4.35 6.15 -5.95 6.95 -6.8 7.05 -7.65 L6.9 -7.4 M6.2 -8.65 Q6.2 -8.3 5.9 -7.8 5.55 -7.2 4.95 -6.65 3.25 -5.25 0.5 -5.25 L0.45 -5.25 Q0.95 -5.15 1.5 -5.15 3.25 -5.15 4.7 -5.75 5.6 -6.15 5.9 -6.5 L6.8 -7.55 Q6.9 -7.65 6.9 -8.25 6.7 -8.45 6.35 -8.55 L6.2 -8.65 M5.95 -8.7 Q5.15 -8.9 4.05 -8.8 2.9 -8.8 1.7 -8.4 0.55 -8.05 0.05 -7.65 -0.15 -7.5 -0.65 -7.15 -1.1 -6.9 -1.15 -6.8 L-1.3 -6.5 -1.3 -6.45 -1.25 -6.35 Q-1.25 -6.0 -0.5 -5.6 -0.25 -5.45 0.05 -5.35 L0.65 -5.3 Q3.1 -5.3 4.75 -6.6 5.35 -7.1 5.7 -7.65 6.0 -8.1 6.0 -8.4 L5.95 -8.7 M4.1 -9.15 Q7.35 -9.15 7.35 -7.9 7.35 -7.55 7.1 -6.95 6.75 -6.25 6.2 -5.65 4.65 -4.05 2.1 -4.1 L1.05 -4.1 Q0.2 -4.05 -0.7 -4.6 -1.6 -5.1 -1.6 -5.45 L-1.55 -6.55 Q-1.55 -7.1 -1.15 -7.3 L-0.5 -7.6 Q0.05 -8.15 1.3 -8.6 2.75 -9.2 4.1 -9.15" fill="#111111" fill-rule="evenodd" stroke="none"/>
    <path d="M5.95 -8.7 L6.0 -8.4 Q6.0 -8.1 5.7 -7.65 5.35 -7.1 4.75 -6.6 3.1 -5.3 0.65 -5.3 L0.05 -5.35 Q-0.25 -5.45 -0.5 -5.6 -1.25 -6.0 -1.25 -6.35 L-1.3 -6.45 -1.3 -6.5 -1.15 -6.8 Q-1.1 -6.9 -0.65 -7.15 -0.15 -7.5 0.05 -7.65 0.55 -8.05 1.7 -8.4 2.9 -8.8 4.05 -8.8 5.15 -8.9 5.95 -8.7 M6.2 -8.65 L6.35 -8.55 Q6.7 -8.45 6.9 -8.25 6.9 -7.65 6.8 -7.55 L5.9 -6.5 Q5.6 -6.15 4.7 -5.75 3.25 -5.15 1.5 -5.15 0.95 -5.15 0.45 -5.25 L0.5 -5.25 Q3.25 -5.25 4.95 -6.65 5.55 -7.2 5.9 -7.8 6.2 -8.3 6.2 -8.65 M6.9 -7.4 L7.05 -7.65 Q6.95 -6.8 6.15 -5.95 4.65 -4.35 1.2 -4.35 -0.3 -4.35 -0.95 -5.0 -1.35 -5.4 -1.35 -5.95 L-1.35 -6.15 Q-1.15 -5.95 -0.75 -5.65 L-0.4 -5.45 -0.25 -5.35 -0.1 -5.3 Q0.6 -5.0 1.45 -5.0 4.2 -5.0 5.9 -6.35 6.5 -6.85 6.9 -7.4" fill="#425829" fill-rule="evenodd" stroke="none"/>
  </g>
</svg>
