<?xml version="1.0" encoding="UTF-8" standalone="no"?>
<svg xmlns:ffdec="https://www.free-decompiler.com/flash" xmlns:xlink="http://www.w3.org/1999/xlink" ffdec:objectType="shape" height="3.9px" width="6.0px" xmlns="http://www.w3.org/2000/svg">
  <g transform="matrix(1.0, 0.0, 0.0, 1.0, 0.05, 7.95)">
    <path d="M1.25 -7.6 Q0.7 -7.6 0.65 -7.4 0.65 -7.1 0.6 -6.9 L0.6 -6.8 0.55 -6.7 Q0.55 -5.95 1.05 -5.55 1.6 -5.0 3.15 -4.65 L3.85 -4.65 5.15 -4.8 5.3 -4.85 5.55 -5.05 5.7 -5.2 5.7 -5.6 Q5.7 -6.0 5.3 -6.1 L3.75 -6.55 Q2.95 -6.85 1.25 -7.6 M0.35 -7.35 Q0.5 -7.95 0.8 -7.95 1.2 -7.95 1.85 -7.6 L2.7 -7.2 Q3.15 -7.05 3.8 -6.75 4.4 -6.55 5.05 -6.5 5.7 -6.45 5.85 -6.2 L5.9 -5.75 5.95 -5.0 5.9 -4.9 Q5.85 -4.55 5.35 -4.35 L5.0 -4.15 4.95 -4.15 3.7 -4.05 Q2.4 -4.05 1.45 -4.55 L1.55 -4.45 Q1.05 -4.75 0.45 -5.25 L0.15 -5.55 Q0.0 -5.85 -0.05 -6.2 L0.1 -6.45 Q0.3 -6.7 0.3 -6.8 L0.35 -7.35 M5.3 -4.7 L5.1 -4.65 4.5 -4.55 3.75 -4.55 Q2.1 -4.55 1.05 -5.45 0.55 -5.95 0.35 -6.35 L0.3 -6.25 0.4 -5.95 Q0.5 -5.55 0.9 -5.25 1.4 -4.85 1.8 -4.65 2.75 -4.2 3.9 -4.2 4.7 -4.2 5.2 -4.5 5.3 -4.6 5.5 -4.75 L5.4 -4.75 5.3 -4.7" fill="#111111" fill-rule="evenodd" stroke="none"/>
    <path d="M1.25 -7.6 Q2.95 -6.85 3.75 -6.55 L5.3 -6.1 Q5.7 -6.0 5.7 -5.6 L5.7 -5.2 5.55 -5.05 5.3 -4.85 5.15 -4.8 3.85 -4.65 3.15 -4.65 Q1.6 -5.0 1.05 -5.55 0.55 -5.95 0.55 -6.7 L0.6 -6.8 0.6 -6.9 Q0.65 -7.1 0.65 -7.4 0.7 -7.6 1.25 -7.6 M5.3 -4.7 L5.4 -4.75 5.5 -4.75 Q5.3 -4.6 5.2 -4.5 4.7 -4.2 3.9 -4.2 2.75 -4.2 1.8 -4.65 1.4 -4.85 0.9 -5.25 0.5 -5.55 0.4 -5.95 L0.3 -6.25 0.35 -6.35 Q0.55 -5.95 1.05 -5.45 2.1 -4.55 3.75 -4.55 L4.5 -4.55 5.1 -4.65 5.3 -4.7" fill="#666154" fill-rule="evenodd" stroke="none"/>
  </g>
</svg>
