<?xml version="1.0" encoding="UTF-8" standalone="no"?>
<svg xmlns:ffdec="https://www.free-decompiler.com/flash" xmlns:xlink="http://www.w3.org/1999/xlink" ffdec:objectType="shape" height="13.4px" width="10.55px" xmlns="http://www.w3.org/2000/svg">
  <g transform="matrix(1.0, 0.0, 0.0, 1.0, -0.9, 0.25)">
    <path d="M2.45 -0.25 Q3.0 -0.15 3.55 0.05 4.75 0.6 5.5 1.45 L6.6 2.75 6.65 2.85 7.35 3.9 7.3 4.35 Q7.2 4.4 7.2 4.55 7.25 4.65 7.4 4.75 L7.8 4.75 7.9 4.85 8.4 5.3 8.75 5.55 9.0 5.9 9.2 6.25 Q9.75 7.4 9.8 8.2 L9.75 9.2 9.75 9.35 9.2 10.95 8.7 12.4 8.5 12.7 7.85 11.95 Q7.2 11.2 7.05 11.25 L7.0 11.2 Q6.2 12.25 5.9 12.8 5.65 13.0 5.4 13.05 L5.3 13.15 4.95 12.1 Q4.6 11.2 4.25 10.9 L4.25 11.05 Q3.95 11.6 3.55 12.55 L3.35 13.1 3.2 13.1 Q3.0 13.1 2.85 13.0 L2.4 11.45 Q1.9 9.7 1.9 9.45 L1.85 9.25 1.85 9.05 1.95 8.9 Q1.95 8.45 1.5 8.8 L1.2 9.05 Q1.15 9.05 1.15 9.0 L1.0 9.0 0.9 7.4 Q0.95 6.8 1.4 4.35 L1.4 4.1 Q1.55 3.6 1.85 2.7 L2.3 1.3 2.45 0.8 Q2.4 0.45 2.25 0.0 L2.1 -0.25 2.45 -0.25 M6.8 3.65 L6.8 3.6 6.7 3.5 6.5 3.2 6.45 3.15 Q6.05 2.55 5.5 2.0 4.65 1.15 3.55 0.55 3.35 0.35 3.0 0.2 2.75 0.1 2.55 0.05 L2.45 0.05 2.5 0.2 Q2.55 0.4 2.65 0.65 L3.75 2.6 4.0 3.05 4.2 3.3 4.25 3.35 4.25 3.3 4.7 4.0 4.8 4.1 4.9 4.35 5.1 4.6 5.1 4.65 5.2 4.75 5.25 4.85 Q5.55 5.2 5.85 5.5 6.1 5.65 6.35 5.65 6.5 5.65 6.6 5.55 L6.75 5.45 6.75 5.4 6.8 5.3 6.9 5.1 6.95 5.0 7.0 4.65 7.05 4.65 7.05 4.5 7.15 4.25 7.05 4.05 6.95 3.9 6.85 3.7 6.8 3.65 M7.2 4.8 L7.25 4.75 7.25 4.65 7.2 4.65 7.2 4.75 7.1 4.95 7.2 4.8 M7.6 4.95 L7.55 4.9 7.5 5.0 7.2 5.4 6.75 5.85 Q6.55 6.0 6.4 6.0 5.75 6.05 4.9 4.9 L4.9 4.85 4.75 4.6 4.65 4.4 4.4 4.0 4.3 4.35 Q4.25 4.65 4.1 5.05 L4.05 5.2 4.1 5.2 Q4.25 5.3 4.35 5.4 L4.6 5.65 4.9 6.1 5.1 6.5 5.4 7.2 Q6.75 9.1 6.8 9.55 6.8 9.75 6.95 9.75 L6.85 9.45 Q7.85 11.5 8.4 12.25 L8.45 12.3 8.5 12.2 8.5 12.1 8.55 12.05 8.55 12.0 8.5 12.05 9.2 9.7 9.25 9.7 9.35 9.3 9.35 9.15 9.4 8.8 Q9.45 8.3 9.45 7.75 L9.45 7.7 9.4 7.6 Q9.35 7.15 9.05 6.6 L8.75 6.1 8.7 6.05 8.55 5.85 8.4 5.65 7.9 5.2 7.6 4.95 M3.8 3.05 Q3.25 2.25 2.85 1.65 L2.7 1.4 2.6 1.2 2.55 1.2 2.55 1.25 2.55 1.4 2.05 3.2 1.85 4.0 1.6 5.15 Q1.45 6.0 1.35 6.8 L1.35 6.95 1.3 7.05 1.3 7.1 1.25 7.9 1.3 8.7 1.4 8.7 Q2.05 7.95 2.65 7.0 L3.05 6.45 3.7 5.05 3.8 4.9 Q4.0 4.3 4.0 3.75 L4.05 3.45 4.05 3.35 4.0 3.35 3.85 3.1 3.8 3.05 M2.6 1.2 L2.6 1.2 M4.05 5.2 L4.05 5.2 M4.05 5.4 L4.0 5.3 4.0 5.35 3.9 5.55 3.85 5.6 3.45 6.4 3.2 6.75 2.95 7.2 2.8 7.45 2.4 8.15 2.25 8.35 2.3 8.3 2.3 9.35 2.3 9.9 Q2.35 10.45 2.6 11.2 L3.0 12.75 3.05 12.85 3.15 12.8 3.2 12.75 3.4 12.35 3.55 12.0 3.6 12.0 3.9 11.2 4.2 10.1 4.25 9.45 4.25 9.35 4.35 8.55 4.35 8.1 4.45 7.35 4.35 6.7 4.3 6.15 Q4.3 5.95 4.2 5.65 L4.05 5.4 M4.5 6.4 L4.5 6.05 4.3 5.7 4.5 6.4 M6.0 8.85 L5.75 8.4 4.55 6.15 4.55 6.75 4.7 7.55 4.7 7.95 Q4.7 8.6 4.6 9.25 L4.55 9.9 Q4.65 10.2 4.9 11.35 4.95 11.7 5.05 11.95 5.1 12.25 5.25 12.45 L5.4 12.7 5.45 12.7 5.85 12.3 Q6.2 11.95 6.45 11.5 L6.9 10.55 6.0 8.85 M2.05 8.5 L2.05 8.45 1.95 8.55 1.85 8.65 2.05 8.55 2.05 8.5 M11.45 7.6 L11.45 7.6 M8.75 9.25 L8.7 9.35 8.65 9.35 8.75 9.25" fill="#111111" fill-rule="evenodd" stroke="none"/>
    <path d="M7.05 4.05 L7.15 4.25 7.05 4.5 7.05 4.35 7.05 4.05 M6.9 5.1 L6.8 5.3 6.85 5.15 6.9 5.1 M6.75 5.4 L6.75 5.45 6.6 5.55 6.75 5.4 M5.25 4.85 L5.2 4.75 5.1 4.65 5.15 4.7 5.25 4.85 M7.25 4.65 L7.2 4.75 7.2 4.8 7.1 4.95 7.2 4.75 7.2 4.65 7.25 4.65 M6.85 9.45 L6.95 9.75 Q6.8 9.75 6.8 9.55 6.75 9.1 5.4 7.2 L5.1 6.5 4.9 6.1 4.95 6.2 Q5.45 7.05 6.1 8.05 L6.55 8.75 6.85 9.45 M4.35 5.4 Q4.25 5.3 4.1 5.2 L4.05 5.2 4.1 5.05 4.35 5.4 M4.75 4.6 L4.9 4.85 4.85 4.8 4.75 4.6 M1.3 8.7 L1.4 8.7 1.3 8.7 M3.7 5.05 L3.75 4.85 Q3.95 4.25 4.0 3.75 4.0 4.3 3.8 4.9 L3.7 5.05 M3.2 4.0 L3.2 4.0 M4.0 5.35 L4.0 5.3 4.05 5.4 4.05 5.45 4.0 5.35 M4.05 5.2 L4.05 5.2 M4.35 6.7 L4.45 7.35 4.35 8.1 Q4.4 7.4 4.35 6.7 M2.3 8.3 L2.25 8.35 2.4 8.15 Q2.7 7.8 2.75 7.55 L2.8 7.45 2.95 7.2 3.2 6.75 3.45 6.4 3.25 6.75 Q2.9 7.5 2.55 7.95 L2.3 8.3 M4.5 6.4 L4.3 5.7 4.5 6.05 4.5 6.4 M1.95 8.55 L2.05 8.5 2.05 8.55 1.85 8.65 1.95 8.55" fill="#000000" fill-rule="evenodd" stroke="none"/>
    <path d="M7.25 4.65 L7.25 4.75 7.2 4.8 7.2 4.75 7.25 4.65" fill="#666600" fill-rule="evenodd" stroke="none"/>
    <path d="M7.5 5.0 L7.6 4.95 7.9 5.2 7.9 5.25 Q7.9 5.8 7.0 6.15 6.8 6.0 6.75 5.85 L7.2 5.4 7.5 5.0 M8.55 5.85 L8.7 6.05 8.75 6.1 9.05 6.6 Q8.7 7.0 7.4 8.35 7.2 8.4 6.4 7.05 6.4 6.9 7.15 6.35 7.75 5.9 7.9 5.85 L8.55 5.85 M9.4 7.6 L9.45 7.7 9.45 7.75 Q9.45 8.3 9.4 8.8 L9.25 9.0 Q8.65 9.8 8.6 9.8 8.05 9.85 7.85 9.3 L7.8 8.95 7.75 8.7 Q8.25 8.2 8.8 7.85 L8.95 7.8 8.95 7.75 9.35 7.6 9.4 7.6 M4.05 3.45 L4.0 3.35 4.05 3.35 4.05 3.45 M2.3 9.9 L2.3 9.35 Q2.4 8.85 2.95 8.85 3.2 8.85 3.45 9.0 3.65 9.15 3.65 9.35 3.7 9.7 3.6 10.0 3.45 10.5 3.05 10.5 2.7 10.5 2.45 10.15 L2.3 9.9 M2.4 8.15 L2.8 7.45 2.75 7.55 Q2.7 7.8 2.4 8.15 M2.55 7.95 Q2.9 7.5 3.25 6.75 L3.45 6.4 Q4.05 5.6 4.05 6.4 4.1 6.95 4.0 7.45 3.9 8.25 3.55 8.25 2.95 8.3 2.7 8.15 2.6 8.1 2.55 7.95 M4.7 7.95 L4.7 7.55 4.55 6.75 4.55 6.15 5.75 8.4 6.0 8.85 5.95 8.85 Q5.85 9.0 5.75 9.0 5.1 9.0 4.7 7.95 M4.85 10.1 L4.8 9.9 Q4.8 9.4 5.05 9.2 L5.65 9.2 Q6.0 9.35 6.3 9.7 6.6 10.1 6.6 10.6 6.6 10.7 6.55 10.8 6.45 10.85 6.2 10.85 5.3 10.9 5.0 10.45 4.85 10.3 4.85 10.1 M1.95 8.55 L2.05 8.45 2.05 8.5 1.95 8.55 M8.75 9.25 L8.65 9.35 8.7 9.35 8.75 9.25" fill="#5a6d1b" fill-rule="evenodd" stroke="none"/>
    <path d="M6.8 3.65 L6.85 3.7 6.75 3.7 6.8 3.65 M7.05 4.5 L7.05 4.65 7.0 4.65 6.95 5.0 6.9 5.1 6.85 5.15 6.8 5.3 6.75 5.4 6.6 5.55 Q6.5 5.65 6.35 5.65 6.1 5.65 5.85 5.5 5.55 5.2 5.25 4.85 L5.15 4.7 5.1 4.65 5.1 4.6 4.9 4.35 4.8 4.1 4.7 4.0 4.25 3.3 4.25 3.35 4.2 3.3 4.0 3.05 3.75 2.6 2.65 0.65 Q2.55 0.4 2.5 0.2 3.05 0.55 3.4 1.4 3.75 2.3 4.1 2.6 4.35 2.85 4.55 3.25 L4.85 3.9 Q5.05 4.25 5.55 4.5 5.85 4.7 5.9 5.05 5.9 5.15 5.95 5.25 L6.1 5.4 Q6.4 5.25 6.65 4.75 L6.85 4.35 6.95 4.4 7.05 4.35 7.05 4.5 M9.35 9.15 L9.35 9.3 9.25 9.7 9.2 9.7 8.5 12.05 8.55 12.0 8.55 12.05 8.5 12.1 8.5 12.2 8.45 12.25 8.4 12.25 Q7.85 11.5 6.85 9.45 L6.55 8.75 6.1 8.05 Q5.45 7.05 4.95 6.2 L4.9 6.1 4.6 5.65 Q4.15 5.0 4.15 5.15 4.15 4.4 4.95 5.6 5.4 6.3 6.35 7.9 6.55 8.05 6.65 8.35 L6.75 8.85 Q6.8 9.1 7.0 9.3 7.25 9.45 7.3 9.65 L7.55 10.5 7.85 10.75 Q8.15 10.95 8.2 11.2 L8.95 9.85 9.35 9.15 M5.0 1.75 L5.05 1.9 4.9 2.05 4.75 2.0 4.75 1.7 4.9 1.65 Q4.95 1.65 5.0 1.75 M4.2 1.75 L3.95 1.5 Q3.75 1.35 3.75 1.25 L3.75 1.15 3.85 1.1 4.1 1.3 Q4.25 1.35 4.3 1.55 4.3 1.7 4.2 1.75 M1.6 5.15 L1.75 4.45 Q2.25 2.55 2.55 1.85 2.45 2.2 2.3 2.65 L2.4 3.05 Q2.4 3.25 2.5 3.35 L2.25 3.85 Q1.9 4.75 1.95 5.45 1.95 5.85 1.75 6.65 1.5 7.5 1.55 7.85 1.55 8.05 1.55 8.15 L1.55 8.2 1.8 7.6 2.1 6.95 Q2.2 6.7 2.55 6.25 2.95 5.85 3.0 5.7 3.3 5.1 3.45 4.4 3.55 3.9 3.65 3.1 L3.7 3.05 3.8 3.05 3.85 3.1 4.0 3.35 4.05 3.45 4.0 3.75 Q3.95 4.25 3.75 4.85 L3.7 5.05 3.05 6.45 2.65 7.0 Q2.05 7.95 1.4 8.7 L1.3 8.7 1.25 7.9 1.3 7.1 1.3 7.05 1.35 6.95 1.35 6.8 Q1.45 6.0 1.6 5.15 M2.6 1.2 L2.55 1.25 2.55 1.2 2.6 1.2 M4.85 2.65 L4.85 2.7 4.65 2.75 Q4.6 2.7 4.6 2.65 L4.6 2.5 4.75 2.5 4.85 2.65 M2.8 4.75 Q2.8 4.95 2.75 4.9 L2.65 4.95 2.55 4.95 Q2.5 4.9 2.5 4.8 2.5 4.65 2.55 4.6 L2.65 4.55 2.75 4.6 Q2.8 4.65 2.8 4.75 M2.75 5.15 Q2.8 5.15 2.8 5.25 2.8 5.4 2.6 5.6 2.4 5.4 2.4 5.35 2.4 5.25 2.65 5.1 L2.75 5.15 M4.0 5.35 L4.05 5.45 4.05 5.4 4.2 5.65 Q4.3 5.95 4.3 6.15 L4.35 6.7 Q4.4 7.4 4.35 8.1 L4.35 8.55 4.25 9.35 4.25 9.45 4.2 10.1 3.9 11.2 3.6 12.0 3.55 12.0 3.4 12.35 3.2 12.75 3.15 12.8 3.1 12.75 3.05 12.6 3.1 12.5 3.55 11.1 3.85 9.95 3.95 9.35 4.0 8.85 4.0 8.8 Q4.0 8.45 4.1 7.85 4.2 7.3 4.15 6.4 L3.85 5.65 3.85 5.6 3.9 5.55 4.0 5.35 M5.85 12.3 L5.45 12.7 5.3 12.55 5.25 12.45 Q5.1 12.25 5.05 11.95 5.1 11.7 5.45 11.9 5.75 12.1 5.85 12.3" fill="#bbc776" fill-rule="evenodd" stroke="none"/>
    <path d="M7.5 5.0 L7.55 4.9 7.6 4.95 7.5 5.0 M7.9 5.2 L8.4 5.65 8.55 5.85 7.9 5.85 Q7.75 5.9 7.15 6.35 6.4 6.9 6.4 7.05 7.2 8.4 7.4 8.35 8.7 7.0 9.05 6.6 9.35 7.15 9.4 7.6 L9.35 7.6 8.95 7.75 8.95 7.8 8.8 7.85 Q8.25 8.2 7.75 8.7 L7.8 8.95 7.85 9.3 Q8.05 9.85 8.6 9.8 8.65 9.8 9.25 9.0 L9.4 8.8 9.35 9.15 8.95 9.85 8.2 11.2 Q8.15 10.95 7.85 10.75 L7.55 10.5 7.3 9.65 Q7.25 9.45 7.0 9.3 6.8 9.1 6.75 8.85 L6.65 8.35 Q6.55 8.05 6.35 7.9 5.4 6.3 4.95 5.6 4.15 4.4 4.15 5.15 4.15 5.0 4.6 5.65 L4.35 5.4 4.1 5.05 Q4.25 4.65 4.3 4.35 L4.4 4.0 4.65 4.4 4.75 4.6 4.85 4.8 4.9 4.85 4.9 4.9 Q5.75 6.05 6.4 6.0 6.55 6.0 6.75 5.85 6.8 6.0 7.0 6.15 7.9 5.8 7.9 5.25 L7.9 5.2 M8.5 12.2 L8.45 12.3 8.4 12.25 8.45 12.25 8.5 12.2 M3.15 12.8 L3.05 12.85 3.0 12.75 2.6 11.2 Q2.35 10.45 2.3 9.9 L2.45 10.15 Q2.7 10.5 3.05 10.5 3.45 10.5 3.6 10.0 3.7 9.7 3.65 9.35 3.65 9.15 3.45 9.0 3.2 8.85 2.95 8.85 2.4 8.85 2.3 9.35 L2.3 8.3 2.55 7.95 Q2.6 8.1 2.7 8.15 2.95 8.3 3.55 8.25 3.9 8.25 4.0 7.45 4.1 6.95 4.05 6.4 4.05 5.6 3.45 6.4 L3.85 5.6 3.85 5.65 4.15 6.4 Q4.2 7.3 4.1 7.85 4.0 8.45 4.0 8.8 L4.0 8.85 3.95 9.35 3.85 9.95 3.55 11.1 3.1 12.5 3.05 12.6 3.1 12.75 3.15 12.8 M4.7 7.95 Q5.1 9.0 5.75 9.0 5.85 9.0 5.95 8.85 L6.0 8.85 6.9 10.55 6.45 11.5 Q6.2 11.95 5.85 12.3 5.75 12.1 5.45 11.9 5.1 11.7 5.05 11.95 4.95 11.7 4.9 11.35 4.65 10.2 4.55 9.9 L4.6 9.25 Q4.7 8.6 4.7 7.95 M5.45 12.7 L5.4 12.7 5.25 12.45 5.3 12.55 5.45 12.7 M4.85 10.1 Q4.85 10.3 5.0 10.45 5.3 10.9 6.2 10.85 6.45 10.85 6.55 10.8 6.6 10.7 6.6 10.6 6.6 10.1 6.3 9.7 6.0 9.35 5.65 9.2 L5.05 9.2 Q4.8 9.4 4.8 9.9 L4.85 10.1" fill="#668f06" fill-rule="evenodd" stroke="none"/>
    <path d="M2.5 0.2 L2.45 0.05 2.55 0.05 Q2.75 0.1 3.0 0.2 3.35 0.35 3.55 0.55 4.65 1.15 5.5 2.0 6.05 2.55 6.45 3.15 L6.5 3.2 6.7 3.5 6.8 3.6 6.8 3.65 6.75 3.7 6.85 3.7 6.95 3.9 7.05 4.05 7.05 4.35 6.95 4.4 6.85 4.35 6.65 4.75 Q6.4 5.25 6.1 5.4 L5.95 5.25 Q5.9 5.15 5.9 5.05 5.85 4.7 5.55 4.5 5.05 4.25 4.85 3.9 L4.55 3.25 Q4.35 2.85 4.1 2.6 3.75 2.3 3.4 1.4 3.05 0.55 2.5 0.2 M3.8 3.05 L3.7 3.05 3.65 3.1 Q3.55 3.9 3.45 4.4 3.3 5.1 3.0 5.7 2.95 5.85 2.55 6.25 2.2 6.7 2.1 6.95 L1.8 7.6 1.55 8.2 1.55 8.15 Q1.55 8.05 1.55 7.85 1.5 7.5 1.75 6.65 1.95 5.85 1.95 5.45 1.9 4.75 2.25 3.85 L2.5 3.35 Q2.4 3.25 2.4 3.05 L2.3 2.65 Q2.45 2.2 2.55 1.85 2.25 2.55 1.75 4.45 L1.6 5.15 1.85 4.0 2.05 3.2 2.55 1.4 2.55 1.25 2.6 1.2 2.7 1.4 2.85 1.65 Q3.25 2.25 3.8 3.05 M4.2 1.75 Q4.3 1.7 4.3 1.55 4.25 1.35 4.1 1.3 L3.85 1.1 3.75 1.15 3.75 1.25 Q3.75 1.35 3.95 1.5 L4.2 1.75 M5.0 1.75 Q4.95 1.65 4.9 1.65 L4.75 1.7 4.75 2.0 4.9 2.05 5.05 1.9 5.0 1.75 M4.85 2.65 L4.75 2.5 4.6 2.5 4.6 2.65 Q4.6 2.7 4.65 2.75 L4.85 2.7 4.85 2.65 M2.6 1.2 L2.6 1.2 M2.75 5.15 L2.65 5.1 Q2.4 5.25 2.4 5.35 2.4 5.4 2.6 5.6 2.8 5.4 2.8 5.25 2.8 5.15 2.75 5.15 M2.8 4.75 Q2.8 4.65 2.75 4.6 L2.65 4.55 2.55 4.6 Q2.5 4.65 2.5 4.8 2.5 4.9 2.55 4.95 L2.65 4.95 2.75 4.9 Q2.8 4.95 2.8 4.75 M3.2 4.0 L3.2 4.0" fill="#91ae28" fill-rule="evenodd" stroke="none"/>
  </g>
</svg>
