<?xml version="1.0" encoding="UTF-8" standalone="no"?>
<svg xmlns:ffdec="https://www.free-decompiler.com/flash" xmlns:xlink="http://www.w3.org/1999/xlink" ffdec:objectType="shape" height="6.8px" width="7.2px" xmlns="http://www.w3.org/2000/svg">
  <g transform="matrix(1.0, 0.0, 0.0, 1.0, 0.75, -0.4)">
    <path d="M3.0 1.25 Q3.1 1.4 3.3 1.6 L3.45 1.85 Q3.75 1.7 4.2 1.85 L4.45 1.9 Q4.6 1.7 5.45 1.9 6.45 2.2 6.45 2.6 L5.0 3.9 Q3.55 5.25 2.95 5.95 L2.75 6.2 2.6 6.4 2.5 6.5 Q2.0 7.2 1.2 7.2 0.3 7.2 -0.3 6.65 -0.75 6.2 -0.75 5.8 -0.75 4.85 -0.2 4.25 L0.15 4.0 Q0.15 3.9 0.5 3.05 L1.05 1.65 1.1 0.95 Q1.15 0.5 1.35 0.4 1.5 0.35 2.25 0.65 L2.6 0.8 Q3.0 1.05 3.0 1.2 L3.0 1.25 M4.3 2.15 Q4.25 2.05 4.1 2.05 L4.0 2.05 3.8 2.0 Q3.65 2.05 3.6 2.1 L3.5 2.05 3.3 2.35 Q3.0 2.75 2.8 3.1 2.6 3.4 2.4 3.65 L2.1 3.95 2.3 4.1 2.45 4.3 Q2.6 4.45 2.65 4.65 L2.7 4.65 Q2.8 4.4 3.0 4.15 L3.15 3.9 3.6 3.3 3.6 3.35 3.3 3.95 Q3.05 4.35 3.05 4.4 3.05 4.6 2.85 4.85 L2.75 4.95 2.8 5.15 2.85 5.5 2.85 5.7 3.75 4.95 Q4.95 3.9 5.75 2.8 L5.9 2.55 Q5.7 2.2 4.9 2.2 L4.75 2.2 4.75 2.25 4.7 2.25 Q4.5 2.3 4.45 2.45 L4.3 2.45 Q4.1 2.65 3.85 2.95 L4.3 2.3 4.3 2.15 M1.9 3.85 L2.05 3.95 Q3.25 2.25 3.25 2.0 3.25 1.9 3.05 1.8 L2.85 1.7 Q2.5 1.95 2.25 2.35 L2.2 2.45 2.05 2.65 2.05 2.7 Q1.9 3.0 1.65 3.75 L1.9 3.85 M1.05 3.7 L1.45 3.7 1.85 2.9 Q2.4 1.85 2.75 1.55 L2.55 1.05 Q2.45 0.9 2.3 0.8 2.05 0.65 1.65 0.65 1.6 0.65 1.55 0.8 1.45 0.9 1.4 1.15 L1.1 2.05 Q0.75 3.25 0.45 3.85 0.75 3.7 1.05 3.7 M0.0 5.7 Q-0.1 5.45 -0.1 5.2 -0.1 5.15 -0.05 5.05 0.0 4.75 0.25 4.6 0.55 4.4 1.0 4.4 L1.35 4.4 Q1.55 4.45 1.75 4.55 2.05 4.75 2.1 5.0 L2.1 5.1 2.0 5.55 Q1.95 5.85 1.75 5.95 L1.95 5.55 Q1.95 5.3 1.7 4.95 L1.6 4.9 Q1.5 4.75 1.35 4.7 1.1 4.5 0.8 4.5 0.6 4.5 0.45 4.6 L0.35 4.65 0.15 4.85 Q-0.1 5.2 -0.05 5.35 L0.05 5.65 Q0.15 5.85 0.4 6.05 0.8 6.4 1.35 6.35 L1.55 6.35 1.5 6.4 Q1.3 6.5 1.1 6.5 0.45 6.5 0.15 6.0 L0.1 5.95 0.1 5.9 0.0 5.7 M-0.45 6.1 L-0.35 6.3 Q0.05 7.0 1.0 7.0 1.85 7.0 2.3 6.4 L2.35 6.3 Q2.6 5.85 2.6 5.5 L2.5 5.0 2.5 4.9 2.4 4.75 2.35 4.7 2.15 4.45 2.05 4.35 Q1.65 4.0 1.35 4.05 L1.25 4.1 1.25 4.05 0.7 4.05 Q0.2 4.1 -0.2 4.5 -0.6 4.9 -0.6 5.3 -0.6 5.75 -0.45 6.1" fill="#111111" fill-rule="evenodd" stroke="none"/>
    <path d="M2.1 5.0 Q2.05 4.75 1.75 4.55 1.55 4.45 1.35 4.4 L1.0 4.4 Q0.55 4.4 0.25 4.6 0.0 4.75 -0.05 5.05 -0.1 5.15 -0.1 5.2 -0.1 5.45 0.0 5.7 L0.0 5.8 Q0.0 5.9 0.15 6.0 0.45 6.5 1.1 6.5 1.3 6.5 1.5 6.4 L1.55 6.35 Q1.85 6.25 2.0 6.0 2.2 5.7 2.2 5.35 2.2 5.15 2.1 5.0 M1.7 4.95 L1.55 5.2 Q1.4 5.6 1.3 5.7 1.1 5.85 0.45 5.85 0.4 5.85 0.3 5.75 0.15 5.6 0.1 5.6 L0.05 5.65 -0.05 5.35 Q-0.1 5.2 0.15 4.85 L0.35 4.65 0.45 4.6 Q0.6 4.5 0.8 4.5 1.1 4.5 1.35 4.7 1.5 4.75 1.6 4.9 L1.7 4.95 M2.35 4.7 Q2.45 5.05 2.45 5.4 2.45 5.75 2.2 6.15 1.85 6.7 1.3 6.7 0.05 6.7 -0.45 6.1 -0.6 5.75 -0.6 5.3 -0.6 4.9 -0.2 4.5 0.2 4.1 0.7 4.05 L1.25 4.05 1.25 4.1 1.35 4.05 Q1.65 4.0 2.05 4.35 L2.15 4.45 2.35 4.7" fill="#9c9581" fill-rule="evenodd" stroke="none"/>
    <path d="M2.1 5.0 Q2.2 5.15 2.2 5.35 2.2 5.7 2.0 6.0 1.85 6.25 1.55 6.35 L1.35 6.35 Q0.8 6.4 0.4 6.05 0.15 5.85 0.05 5.65 L0.1 5.6 Q0.15 5.6 0.3 5.75 0.4 5.85 0.45 5.85 1.1 5.85 1.3 5.7 1.4 5.6 1.55 5.2 L1.7 4.95 Q1.95 5.3 1.95 5.55 L1.75 5.95 Q1.95 5.85 2.0 5.55 L2.1 5.1 2.1 5.0 M0.15 6.0 Q0.0 5.9 0.0 5.8 L0.0 5.7 0.1 5.9 0.1 5.95 0.15 6.0 M2.35 4.7 L2.4 4.75 2.5 4.9 2.5 5.0 2.6 5.5 Q2.6 5.85 2.35 6.3 L2.3 6.4 Q1.85 7.0 1.0 7.0 0.05 7.0 -0.35 6.3 L-0.45 6.1 Q0.05 6.7 1.3 6.7 1.85 6.7 2.2 6.15 2.45 5.75 2.45 5.4 2.45 5.05 2.35 4.7" fill="#666154" fill-rule="evenodd" stroke="none"/>
    <path d="M2.45 4.3 L2.3 4.1 2.1 3.95 2.4 3.65 Q2.6 3.4 2.8 3.1 3.0 2.75 3.3 2.35 L3.5 2.05 3.6 2.1 Q3.65 2.05 3.8 2.0 L4.0 2.05 4.1 2.05 Q4.25 2.05 4.3 2.15 3.8 2.7 2.8 3.85 L2.45 4.3 M4.3 2.45 L4.45 2.45 Q4.5 2.3 4.7 2.25 L4.75 2.25 4.75 2.2 4.9 2.2 Q5.7 2.2 5.9 2.55 L5.75 2.8 Q5.1 3.15 4.15 3.9 3.4 4.5 2.8 5.05 L2.8 5.15 2.75 4.95 2.85 4.85 Q3.05 4.6 3.05 4.4 3.05 4.35 3.3 3.95 L3.6 3.35 4.05 2.8 4.3 2.45 M2.25 2.35 Q2.5 1.95 2.85 1.7 L3.05 1.8 Q3.25 1.9 3.25 2.0 3.25 2.25 2.05 3.95 L1.9 3.85 Q1.95 3.15 2.25 2.35 M1.05 3.7 Q0.75 3.7 0.45 3.85 0.75 3.25 1.1 2.05 L1.4 1.15 Q1.45 0.9 1.55 0.8 1.6 0.65 1.65 0.65 2.05 0.65 2.3 0.8 2.45 0.9 2.55 1.05 2.05 1.85 1.5 2.8 L1.35 3.05 1.05 3.7" fill="#80c0f0" fill-rule="evenodd" stroke="none"/>
    <path d="M4.3 2.15 L4.3 2.3 3.85 2.95 Q4.1 2.65 4.3 2.45 L4.05 2.8 3.6 3.35 3.6 3.3 3.15 3.9 3.0 4.15 Q2.8 4.4 2.7 4.65 L2.65 4.65 Q2.6 4.45 2.45 4.3 L2.8 3.85 Q3.8 2.7 4.3 2.15 M5.75 2.8 Q4.95 3.9 3.75 4.95 L2.85 5.7 2.85 5.5 2.8 5.15 2.8 5.05 Q3.4 4.5 4.15 3.9 5.1 3.15 5.75 2.8 M2.25 2.35 Q1.95 3.15 1.9 3.85 L1.65 3.75 Q1.9 3.0 2.05 2.7 L2.05 2.65 2.2 2.45 2.25 2.35 M2.55 1.05 L2.75 1.55 Q2.4 1.85 1.85 2.9 L1.45 3.7 1.05 3.7 1.35 3.05 1.5 2.8 Q2.05 1.85 2.55 1.05" fill="#0070e0" fill-rule="evenodd" stroke="none"/>
  </g>
</svg>
