<?xml version="1.0" encoding="UTF-8" standalone="no"?>
<svg xmlns:ffdec="https://www.free-decompiler.com/flash" xmlns:xlink="http://www.w3.org/1999/xlink" ffdec:objectType="shape" height="12.15px" width="14.55px" xmlns="http://www.w3.org/2000/svg">
  <g transform="matrix(1.0, 0.0, 0.0, 1.0, 5.65, 0.05)">
    <path d="M7.45 1.5 Q8.2 1.9 8.2 2.15 L8.2 2.25 Q8.15 2.3 8.05 2.25 L7.8 2.2 7.55 2.1 7.25 2.1 Q7.6 2.25 8.2 2.5 8.9 2.8 8.9 2.95 8.9 3.0 8.55 3.15 8.1 3.4 7.85 3.65 L7.5 4.05 7.55 4.1 Q7.55 4.45 6.75 4.8 5.85 5.2 4.8 5.15 L4.75 5.15 Q5.05 5.3 5.05 5.55 5.05 5.7 4.75 5.7 L4.4 5.75 3.9 5.75 3.55 5.8 2.95 5.85 2.9 5.85 2.35 5.95 1.9 5.9 1.45 5.8 Q1.25 5.6 -0.15 6.95 L-0.4 7.25 -0.65 7.4 -1.3 7.95 -2.15 8.75 Q-2.5 9.05 -3.45 10.2 -4.05 10.9 -4.35 11.35 L-4.5 11.55 Q-4.95 12.1 -5.05 12.1 -5.3 12.1 -5.35 11.9 L-5.4 11.7 -5.35 11.3 -5.35 11.2 -5.65 10.35 Q-5.65 10.3 -5.35 9.75 L-4.8 8.9 Q-4.55 8.55 -4.15 8.1 L-3.35 7.35 -2.6 6.75 -1.5 5.75 Q-0.95 5.25 -0.6 5.0 L-0.4 4.8 -0.4 4.75 -0.3 4.65 -0.3 4.6 -0.45 4.4 -0.45 4.3 -0.5 4.05 -0.5 4.0 -0.55 3.85 -0.55 3.8 -0.5 3.8 Q-0.5 3.45 -0.25 2.9 -0.05 2.45 0.2 2.1 0.5 1.65 1.2 1.35 L1.6 0.9 Q1.9 0.55 2.0 0.55 L2.3 0.65 2.5 0.7 Q2.75 0.7 3.25 0.6 L3.85 0.4 4.4 0.0 Q4.65 -0.15 4.65 0.15 4.7 0.4 4.65 0.65 L4.6 0.7 4.95 0.6 Q5.8 0.65 6.15 0.85 6.3 0.9 6.4 1.05 L6.45 1.05 6.6 1.15 6.85 1.15 Q6.95 1.2 7.25 1.4 L7.45 1.5 M7.35 1.7 L7.25 1.7 6.7 1.5 Q6.2 1.35 5.8 1.3 L5.25 1.35 5.2 1.35 Q5.0 1.3 4.95 1.25 L5.85 1.15 6.2 1.15 5.85 1.0 5.6 0.95 5.0 0.9 4.4 1.0 4.15 1.05 4.1 1.05 Q4.25 0.85 4.25 0.65 L4.35 0.45 4.45 0.3 4.4 0.3 3.65 0.65 Q2.9 1.0 2.45 1.0 L2.3 0.95 Q2.25 0.85 2.05 0.85 2.0 0.85 1.8 1.1 1.55 1.4 1.3 1.6 0.55 2.1 0.4 2.3 L0.0 3.0 Q-0.25 3.6 -0.25 3.75 -0.25 4.05 -0.2 4.3 L-0.2 4.35 -0.15 4.4 Q0.1 4.8 0.4 5.05 0.6 5.25 0.8 5.35 1.15 5.5 1.8 5.6 L2.25 5.55 2.7 5.65 3.25 5.6 3.35 5.55 4.15 5.55 4.25 5.5 4.75 5.5 Q4.7 5.35 4.5 5.25 L4.2 5.15 3.8 5.05 3.75 5.0 3.7 5.0 3.0 4.9 3.15 4.9 3.05 4.85 Q3.55 4.8 4.0 4.85 L5.9 4.85 Q6.45 4.8 7.1 4.35 L6.8 4.4 6.0 4.5 5.9 4.45 6.2 4.4 6.15 4.4 Q6.75 4.3 7.3 3.85 L7.5 3.7 7.65 3.5 7.95 3.3 Q8.25 3.15 8.4 3.0 L8.1 2.8 7.65 2.55 Q7.35 2.35 7.1 2.25 L6.8 2.15 6.85 2.1 6.75 2.1 7.1 2.0 7.75 1.9 Q7.7 1.85 7.55 1.8 L7.5 1.75 7.35 1.7 M0.25 5.15 L0.1 5.0 0.05 5.0 -0.15 4.8 -0.6 5.25 -2.65 7.05 Q-5.35 9.6 -5.35 10.45 L-5.3 10.7 -5.2 10.8 -5.15 10.85 -5.1 11.05 -5.05 11.2 -5.15 11.5 -5.1 11.7 -5.05 11.75 -4.65 11.3 Q-4.35 10.8 -3.75 10.15 -2.7 9.1 -2.3 8.55 -2.0 8.2 -0.65 7.0 L-0.45 6.8 Q0.6 5.85 1.0 5.65 L0.8 5.55 0.55 5.4 0.5 5.4 0.5 5.35 0.25 5.15" fill="#111111" fill-rule="evenodd" stroke="none"/>
    <path d="M5.2 1.35 L5.25 1.35 5.8 1.3 Q6.2 1.35 6.7 1.5 L7.25 1.7 7.35 1.7 6.55 1.8 Q5.55 1.75 5.0 1.95 4.85 2.0 4.25 2.3 L4.25 2.35 4.55 2.25 5.0 2.2 5.3 2.2 Q4.85 2.35 4.5 2.7 4.1 3.05 3.8 3.2 L3.85 3.2 Q4.25 2.95 4.7 2.75 4.5 2.9 4.45 3.1 4.3 3.35 3.85 3.65 3.65 3.8 3.5 3.9 3.15 4.1 2.85 4.2 L3.25 4.05 3.1 4.15 Q3.4 4.0 4.05 3.8 L4.45 3.6 Q4.5 3.55 4.6 3.55 L4.2 4.05 Q4.1 4.15 3.4 4.45 3.05 4.6 2.9 4.7 L2.15 4.8 2.25 4.75 2.65 4.4 1.75 4.65 Q1.25 4.75 1.25 4.8 L1.3 4.9 Q1.3 4.95 1.5 4.95 1.7 5.0 2.0 4.85 L2.4 4.9 2.35 4.9 2.9 5.0 3.05 5.0 3.15 5.05 3.35 5.0 3.7 5.0 3.75 5.0 3.8 5.05 4.2 5.15 4.5 5.25 4.05 5.2 1.35 5.35 Q1.05 5.35 0.45 5.1 L0.4 5.05 Q0.1 4.8 -0.15 4.4 L-0.2 4.35 -0.2 4.3 Q-0.25 4.05 -0.25 3.75 -0.25 3.6 0.0 3.0 L0.4 2.3 Q0.55 2.1 1.3 1.6 1.55 1.4 1.8 1.1 2.0 0.85 2.05 0.85 2.25 0.85 2.3 0.95 L2.45 1.0 Q2.9 1.0 3.65 0.65 L4.4 0.3 4.45 0.3 4.35 0.45 4.25 0.65 Q4.25 0.85 4.1 1.05 L4.15 1.05 4.4 1.0 5.0 0.9 5.6 0.95 Q5.25 1.0 5.1 1.1 L4.95 1.25 4.75 1.4 Q4.55 1.55 4.2 1.65 4.5 1.55 5.1 1.4 L5.2 1.35 M6.2 2.35 L6.2 2.4 5.7 2.6 5.7 2.55 Q5.7 2.5 5.9 2.4 L6.2 2.35 M6.1 3.1 L5.75 3.2 5.1 3.4 5.1 3.35 Q5.15 3.25 5.2 3.2 5.4 3.05 5.65 2.95 5.95 2.85 6.2 2.8 L6.5 2.85 6.1 3.1 M3.1 3.0 Q3.0 3.05 2.95 3.2 2.85 3.45 2.7 3.55 L2.25 3.85 Q1.9 4.05 1.85 4.1 1.95 4.15 2.05 4.15 2.6 4.2 2.85 3.75 L3.0 3.75 Q3.3 3.8 3.6 3.45 3.85 3.15 3.85 3.05 3.85 2.8 3.9 2.75 L3.95 2.65 2.9 3.55 Q3.0 3.15 3.1 3.0 M3.2 2.55 L3.25 2.5 Q3.3 2.5 3.35 2.5 3.5 2.5 3.95 2.25 L4.45 1.95 Q4.2 1.95 3.75 2.15 3.3 2.4 3.2 2.55 M5.0 2.75 Q5.25 2.55 5.6 2.65 L5.6 2.7 4.7 3.1 Q4.75 2.9 5.0 2.75 M1.7 3.6 L1.65 3.55 1.2 3.85 Q0.95 4.05 0.95 4.2 L0.95 4.25 1.0 4.25 1.05 4.3 Q1.2 4.3 1.45 4.0 1.7 3.75 1.7 3.65 L1.7 3.6 M-5.2 10.8 L-5.3 10.7 -5.35 10.45 Q-5.35 9.6 -2.65 7.05 L-0.6 5.25 -0.15 4.8 0.05 5.0 0.1 5.0 0.25 5.15 -0.7 6.1 -1.8 7.05 -2.8 8.0 -1.85 7.25 Q-1.3 6.75 -0.65 6.45 L-0.55 6.4 Q-0.4 6.3 0.4 5.6 L0.55 5.5 0.6 5.75 Q0.6 5.8 0.0 6.3 L-0.65 6.8 -1.05 7.1 Q-1.65 7.55 -2.55 8.5 -3.0 8.95 -4.05 10.15 L-4.95 11.25 Q-5.05 11.25 -5.0 11.25 -4.75 10.15 -4.15 9.4 L-4.9 10.35 -5.2 10.8 M4.4 4.4 Q4.15 4.55 3.95 4.65 L3.85 4.55 Q3.85 4.5 4.2 4.35 4.55 4.15 4.7 4.15 L4.4 4.4 M5.2 4.0 L5.2 3.95 Q5.7 3.75 6.05 3.7 L5.3 4.15 5.0 4.35 5.2 4.0" fill="#9c9581" fill-rule="evenodd" stroke="none"/>
    <path d="M5.2 1.35 L5.1 1.4 Q4.5 1.55 4.2 1.65 4.55 1.55 4.75 1.4 L4.95 1.25 5.1 1.1 Q5.25 1.0 5.6 0.95 L5.85 1.0 6.2 1.15 5.85 1.15 4.95 1.25 Q5.0 1.3 5.2 1.35 M0.4 5.05 L0.45 5.1 Q1.05 5.35 1.35 5.35 L4.05 5.2 4.5 5.25 Q4.7 5.35 4.75 5.5 L4.25 5.5 4.15 5.55 3.35 5.55 3.25 5.6 2.7 5.65 2.25 5.55 1.8 5.6 Q1.15 5.5 0.8 5.35 0.6 5.25 0.4 5.05 M3.7 5.0 L3.35 5.0 3.15 5.05 3.05 5.0 2.9 5.0 2.35 4.9 2.4 4.9 2.0 4.85 Q1.7 5.0 1.5 4.95 1.3 4.95 1.3 4.9 L1.25 4.8 Q1.25 4.75 1.75 4.65 L2.65 4.4 2.25 4.75 2.15 4.8 2.9 4.7 Q3.05 4.6 3.4 4.45 4.1 4.15 4.2 4.05 L4.6 3.55 Q4.5 3.55 4.45 3.6 L4.05 3.8 Q3.4 4.0 3.1 4.15 L3.25 4.05 2.85 4.2 Q3.15 4.1 3.5 3.9 3.65 3.8 3.85 3.65 4.3 3.35 4.45 3.1 4.5 2.9 4.7 2.75 4.25 2.95 3.85 3.2 L3.8 3.2 Q4.1 3.05 4.5 2.7 4.85 2.35 5.3 2.2 L5.0 2.2 4.55 2.25 4.25 2.35 4.25 2.3 Q4.85 2.0 5.0 1.95 5.55 1.75 6.55 1.8 L7.35 1.7 7.5 1.75 7.55 1.8 Q7.7 1.85 7.75 1.9 L7.1 2.0 6.75 2.1 6.85 2.1 6.8 2.15 7.1 2.25 Q7.35 2.35 7.65 2.55 L8.1 2.8 8.4 3.0 Q8.25 3.15 7.95 3.3 L7.65 3.5 7.5 3.7 7.3 3.85 Q6.75 4.3 6.15 4.4 L6.2 4.4 5.9 4.45 6.0 4.5 6.8 4.4 7.1 4.35 Q6.45 4.8 5.9 4.85 L4.0 4.85 Q3.55 4.8 3.05 4.85 L3.15 4.9 3.0 4.9 3.7 5.0 M6.1 3.1 L6.5 2.85 6.2 2.8 Q5.95 2.85 5.65 2.95 5.4 3.05 5.2 3.2 5.15 3.25 5.1 3.35 L5.1 3.4 5.75 3.2 6.1 3.1 M6.2 2.35 L5.9 2.4 Q5.7 2.5 5.7 2.55 L5.7 2.6 6.2 2.4 6.2 2.35 M3.2 2.55 Q3.3 2.4 3.75 2.15 4.2 1.95 4.45 1.95 L3.95 2.25 Q3.5 2.5 3.35 2.5 3.3 2.5 3.25 2.5 L3.2 2.55 M3.1 3.0 Q3.0 3.15 2.9 3.55 L3.95 2.65 3.9 2.75 Q3.85 2.8 3.85 3.05 3.85 3.15 3.6 3.45 3.3 3.8 3.0 3.75 L2.85 3.75 Q2.6 4.2 2.05 4.15 1.95 4.15 1.85 4.1 1.9 4.05 2.25 3.85 L2.7 3.55 Q2.85 3.45 2.95 3.2 3.0 3.05 3.1 3.0 M5.0 2.75 Q4.75 2.9 4.7 3.1 L5.6 2.7 5.6 2.65 Q5.25 2.55 5.0 2.75 M1.7 3.6 L1.7 3.65 Q1.7 3.75 1.45 4.0 1.2 4.3 1.05 4.3 L1.0 4.25 0.95 4.25 0.95 4.2 Q0.95 4.05 1.2 3.85 L1.65 3.55 1.7 3.6 M0.25 5.15 L0.5 5.35 0.5 5.4 0.55 5.4 0.8 5.55 1.0 5.65 Q0.6 5.85 -0.45 6.8 L-0.65 7.0 Q-2.0 8.2 -2.3 8.55 -2.7 9.1 -3.75 10.15 -4.35 10.8 -4.65 11.3 L-5.05 11.75 -5.1 11.7 -5.15 11.5 -5.05 11.2 -5.1 11.05 -5.15 10.85 -5.2 10.8 -4.9 10.35 -4.15 9.4 Q-4.75 10.15 -5.0 11.25 -5.05 11.25 -4.95 11.25 L-4.05 10.15 Q-3.0 8.95 -2.55 8.5 -1.65 7.55 -1.05 7.1 L-0.65 6.8 0.0 6.3 Q0.6 5.8 0.6 5.75 L0.55 5.5 0.4 5.6 Q-0.4 6.3 -0.55 6.4 L-0.65 6.45 Q-1.3 6.75 -1.85 7.25 L-2.8 8.0 -1.8 7.05 -0.7 6.1 0.25 5.15 M4.4 4.4 L4.7 4.15 Q4.55 4.15 4.2 4.35 3.85 4.5 3.85 4.55 L3.95 4.65 Q4.15 4.55 4.4 4.4 M5.2 4.0 L5.0 4.35 5.3 4.15 6.05 3.7 Q5.7 3.75 5.2 3.95 L5.2 4.0" fill="#666154" fill-rule="evenodd" stroke="none"/>
  </g>
</svg>
