<?xml version="1.0" encoding="UTF-8" standalone="no"?>
<svg xmlns:ffdec="https://www.free-decompiler.com/flash" xmlns:xlink="http://www.w3.org/1999/xlink" ffdec:objectType="shape" height="15.35px" width="15.8px" xmlns="http://www.w3.org/2000/svg">
  <g transform="matrix(1.0, 0.0, 0.0, 1.0, -0.45, 1.45)">
    <path d="M10.3 -0.75 L4.6 0.65 Q4.2 1.2 4.15 1.5 L3.75 2.9 Q3.6 3.55 3.5 4.3 3.5 4.5 3.55 5.15 3.55 5.35 3.5 5.45 L3.5 5.5 Q3.5 5.55 3.3 5.75 3.05 5.9 3.05 6.1 3.05 6.25 3.15 6.55 L3.2 6.6 Q4.0 7.4 5.35 7.4 L5.5 7.4 Q5.85 7.3 6.2 7.1 L6.35 6.95 9.55 6.15 9.6 6.7 9.7 6.95 9.75 7.0 10.05 7.25 Q10.75 7.55 11.75 7.6 L11.85 7.6 Q12.15 7.55 12.45 7.45 L12.55 7.4 12.65 7.3 Q13.0 7.2 13.3 6.85 13.45 6.55 13.45 6.4 13.45 6.25 13.25 6.05 13.05 5.9 12.95 5.7 L12.95 5.6 12.9 5.25 12.9 5.15 12.85 4.8 Q12.85 4.15 12.75 3.4 L12.65 2.8 12.55 2.4 12.1 1.0 12.1 0.95 11.7 0.2 10.3 -0.75 M11.5 -0.8 Q11.8 -0.6 11.95 -0.2 L12.15 0.15 12.15 0.1 12.2 0.1 12.65 1.45 12.75 1.7 12.7 1.7 12.85 2.05 12.95 2.5 13.0 2.55 13.1 3.3 Q13.15 3.8 13.2 4.85 13.25 5.5 13.55 5.75 L13.7 5.95 Q13.85 6.05 13.85 6.15 L13.85 6.65 13.75 6.95 13.65 7.0 13.65 7.05 Q13.75 7.15 13.75 7.35 L13.75 7.4 13.85 7.55 14.0 8.0 Q14.1 8.4 14.4 8.65 L14.65 8.85 Q14.65 9.0 14.25 9.4 13.85 9.85 13.85 10.0 L13.85 10.1 13.9 10.4 14.15 11.4 14.3 11.75 14.6 12.4 14.65 12.45 Q14.75 12.5 14.75 12.55 15.05 12.7 15.4 12.9 16.25 13.4 16.25 13.45 L16.25 13.6 16.2 13.6 Q16.2 13.75 16.0 13.75 15.95 13.85 15.8 13.85 L15.4 13.85 Q14.75 13.9 13.65 13.85 13.4 13.85 12.9 13.7 L12.25 13.6 Q11.6 13.5 11.25 13.35 11.05 13.35 10.95 13.15 10.9 13.1 10.9 13.0 L10.9 12.0 Q10.9 11.8 11.0 11.4 L10.55 10.15 Q10.25 10.1 9.85 9.9 9.45 9.65 9.45 9.5 9.45 9.15 9.6 8.5 9.7 8.05 9.7 7.55 L9.6 7.45 Q9.2 7.2 9.2 7.1 9.15 6.95 9.15 6.4 L7.0 7.05 6.9 7.25 6.9 7.35 6.85 7.8 6.95 8.85 7.1 9.35 Q7.1 9.55 6.6 9.75 6.15 9.9 5.95 10.0 5.65 11.0 5.6 11.35 L5.7 11.95 5.75 12.75 5.8 12.85 5.8 12.95 Q5.8 13.05 5.75 13.15 5.65 13.3 5.5 13.3 L5.45 13.3 Q5.15 13.45 4.5 13.5 L3.85 13.6 Q3.35 13.75 3.1 13.75 L1.55 13.65 1.35 13.6 0.9 13.6 Q0.75 13.6 0.7 13.5 0.55 13.5 0.5 13.35 L0.5 13.35 0.45 13.2 Q0.45 13.15 1.25 12.7 L1.55 12.55 1.9 12.4 Q1.9 12.3 2.0 12.25 L2.25 11.55 2.4 11.25 2.55 10.25 2.65 9.75 2.65 9.7 Q2.55 9.5 2.35 9.3 1.85 8.75 1.85 8.55 L2.25 8.15 2.3 8.15 2.3 8.1 2.45 7.9 2.9 6.9 2.75 6.5 Q2.65 6.2 2.6 5.9 L2.65 5.85 2.75 5.65 Q2.85 5.55 3.05 5.45 L3.1 5.4 3.15 5.25 3.25 4.8 3.3 4.05 3.5 2.6 3.55 2.55 3.55 2.4 3.7 1.85 3.8 1.55 4.1 0.8 Q4.25 0.4 4.3 0.1 4.45 -0.35 5.1 -0.75 6.15 -1.5 7.9 -1.45 10.6 -1.35 11.5 -0.8 M13.6 7.95 L13.5 7.75 13.4 7.6 13.4 7.55 13.35 7.45 13.3 7.45 Q13.2 7.55 13.1 7.6 L13.1 7.55 12.8 7.75 12.7 7.75 11.6 8.0 11.15 7.9 11.1 7.9 Q10.7 7.9 10.3 7.75 L10.15 7.75 Q10.1 7.7 10.05 7.7 L10.0 8.0 9.95 8.05 9.95 8.1 9.9 8.25 9.9 8.85 Q9.9 9.4 10.15 9.65 L10.45 9.8 Q10.6 9.9 10.85 9.95 L11.15 10.0 11.8 10.05 11.95 10.05 13.3 9.9 13.85 9.35 14.2 8.95 14.05 8.65 13.75 8.2 13.6 7.95 M13.7 10.6 L13.6 9.85 13.2 10.1 11.85 10.25 11.5 10.25 11.0 10.15 Q11.5 11.1 11.45 12.6 L11.45 12.8 11.6 12.9 12.35 12.75 12.85 12.65 13.25 12.55 13.75 12.45 14.05 12.35 14.1 12.35 14.05 12.3 Q13.85 12.05 13.85 11.65 L13.7 11.3 13.7 10.6 M12.7 12.85 L11.9 13.05 12.6 13.35 14.2 13.5 15.0 13.5 15.45 13.45 15.45 13.35 14.5 12.8 Q14.2 12.65 14.1 12.55 13.75 12.55 13.55 12.55 L12.7 12.85 M14.05 12.4 L14.05 12.4 M5.6 9.7 L5.75 9.65 6.1 9.5 6.35 9.35 Q6.65 9.1 6.65 8.6 6.65 8.1 6.55 7.75 L6.5 7.5 6.4 7.5 Q6.25 7.55 6.15 7.6 L6.15 7.55 6.05 7.6 Q5.8 7.75 5.65 7.75 L4.7 7.7 4.45 7.65 4.25 7.6 4.2 7.55 Q3.95 7.5 3.7 7.4 L3.3 7.2 3.2 7.1 2.95 7.6 2.95 7.65 2.9 7.7 2.8 7.85 2.75 7.9 2.45 8.35 2.3 8.65 2.35 8.65 2.65 9.05 2.7 9.1 2.85 9.3 3.25 9.65 4.35 9.75 4.7 9.75 5.6 9.7 M4.25 12.65 L4.45 12.7 4.9 12.8 5.1 12.85 Q5.2 12.8 5.25 12.75 L5.2 12.55 Q5.0 10.85 5.65 9.85 L5.0 10.0 4.45 10.0 3.3 9.85 2.85 9.55 2.8 9.75 2.8 10.4 Q2.8 10.8 2.85 11.15 L2.75 11.5 Q2.75 11.9 2.55 12.15 L2.55 12.2 2.6 12.2 2.9 12.3 3.4 12.4 3.4 12.45 3.85 12.55 4.2 12.65 4.25 12.65 M4.1 12.75 L3.1 12.4 2.55 12.4 Q2.45 12.5 2.15 12.65 L1.55 12.95 1.2 13.1 1.25 13.25 1.55 13.3 1.75 13.3 2.2 13.35 2.35 13.35 4.1 13.25 4.45 13.1 4.8 13.0 4.6 12.95 4.45 12.9 4.2 12.8 4.1 12.75" fill="#111111" fill-rule="evenodd" stroke="none"/>
    <path d="M12.65 2.8 L12.75 3.4 12.75 3.3 12.7 3.0 12.65 2.9 12.65 2.8" fill="#1c9558" fill-rule="evenodd" stroke="none"/>
    <path d="M13.6 7.95 L13.75 8.2 14.05 8.65 14.2 8.95 13.85 9.35 13.3 9.9 11.95 10.05 11.8 10.05 11.15 10.0 11.2 9.75 11.75 8.15 Q12.35 8.05 13.0 7.75 12.95 8.05 13.0 8.6 12.85 9.15 12.1 9.4 L12.1 9.45 12.2 9.45 Q12.65 9.45 13.15 8.7 13.5 8.3 13.6 7.95 M12.35 12.75 L12.4 12.2 12.25 11.65 12.35 11.45 Q12.7 10.6 13.7 10.6 L13.7 11.3 13.85 11.65 Q13.85 12.05 14.05 12.3 L14.1 12.35 14.05 12.35 13.75 12.45 13.25 12.55 12.85 12.65 12.35 12.75 M12.7 12.85 L13.55 12.55 Q13.75 12.55 14.1 12.55 14.2 12.65 14.5 12.8 L15.45 13.35 15.45 13.45 15.0 13.5 14.2 13.5 Q13.45 13.2 13.2 13.1 L12.7 12.85 M4.2 7.55 L4.85 8.05 3.85 9.1 3.9 9.15 4.0 9.15 4.25 9.1 4.45 9.05 Q4.85 9.05 5.5 8.85 L5.6 9.7 4.7 9.75 4.35 9.75 3.25 9.65 2.85 9.3 2.7 9.1 2.65 9.05 2.35 8.65 2.3 8.65 2.45 8.35 2.75 7.9 2.8 7.85 2.9 7.7 2.95 7.65 2.95 7.6 3.2 7.1 3.3 7.2 3.7 7.4 Q3.95 7.5 4.2 7.55 M2.8 10.4 Q3.8 10.5 4.25 10.75 L4.35 10.85 Q4.3 11.6 4.25 12.65 L4.2 12.65 3.85 12.55 3.4 12.45 3.4 12.4 2.9 12.3 2.6 12.2 2.55 12.2 2.55 12.15 Q2.75 11.9 2.75 11.5 L2.85 11.15 Q2.8 10.8 2.8 10.4 M2.35 13.35 L2.2 13.35 1.75 13.3 1.55 13.3 1.25 13.25 1.2 13.1 1.55 12.95 2.15 12.65 Q2.45 12.5 2.55 12.4 L3.1 12.4 4.1 12.75 4.05 12.75 3.35 12.95 2.35 13.35" fill="#684e1c" fill-rule="evenodd" stroke="none"/>
    <path d="M11.15 10.0 L10.85 9.95 Q10.6 9.9 10.45 9.8 L10.15 9.65 Q9.9 9.4 9.9 8.85 L9.9 8.25 9.95 8.1 9.95 8.05 10.0 8.0 10.05 7.7 Q10.1 7.7 10.15 7.75 L10.3 7.75 Q10.7 7.9 11.1 7.9 L11.15 7.9 11.6 8.0 12.7 7.75 12.8 7.75 13.1 7.55 13.1 7.6 Q13.2 7.55 13.3 7.45 L13.35 7.45 13.4 7.55 13.4 7.6 13.5 7.75 13.6 7.95 Q13.5 8.3 13.15 8.7 12.65 9.45 12.2 9.45 L12.1 9.45 12.1 9.4 Q12.85 9.15 13.0 8.6 12.95 8.05 13.0 7.75 12.35 8.05 11.75 8.15 L11.2 9.75 11.15 10.0 M13.6 9.85 L13.7 10.6 Q12.7 10.6 12.35 11.45 L12.25 11.65 12.4 12.2 12.35 12.75 11.6 12.9 11.45 12.8 11.45 12.6 Q11.5 11.1 11.0 10.15 L11.5 10.25 11.85 10.25 13.2 10.1 13.6 9.85 M14.2 13.5 L12.6 13.35 11.9 13.05 12.7 12.85 13.2 13.1 Q13.45 13.2 14.2 13.5 M4.2 7.55 L4.25 7.6 4.45 7.65 4.7 7.7 5.65 7.75 Q5.8 7.75 6.05 7.6 L6.15 7.55 6.15 7.6 Q6.25 7.55 6.4 7.5 L6.5 7.5 6.55 7.75 Q6.65 8.1 6.65 8.6 6.65 9.1 6.35 9.35 L6.1 9.5 5.75 9.65 5.6 9.7 5.5 8.85 Q4.85 9.05 4.45 9.05 L4.25 9.1 4.0 9.15 3.9 9.15 3.85 9.1 4.85 8.05 4.2 7.55 M2.8 10.4 L2.8 9.75 2.85 9.55 3.3 9.85 4.45 10.0 5.0 10.0 5.65 9.85 Q5.0 10.85 5.2 12.55 L5.25 12.75 Q5.2 12.8 5.1 12.85 L4.9 12.8 4.45 12.7 4.25 12.65 Q4.3 11.6 4.35 10.85 L4.25 10.75 Q3.8 10.5 2.8 10.4 M2.35 13.35 L3.35 12.95 4.05 12.75 4.1 12.75 4.2 12.8 4.45 12.9 4.6 12.95 4.8 13.0 4.45 13.1 4.1 13.25 2.35 13.35" fill="#4e2714" fill-rule="evenodd" stroke="none"/>
    <path d="M3.2 6.6 L3.15 6.55 Q3.05 6.25 3.05 6.1 3.05 5.9 3.3 5.75 3.5 5.55 3.5 5.5 L3.5 5.45 Q3.55 5.35 3.55 5.15 3.5 4.5 3.5 4.3 3.6 3.55 3.75 2.9 L4.15 1.5 Q4.2 1.2 4.6 0.65 L10.3 -0.75 11.85 2.3 Q12.0 2.65 12.05 3.2 L12.15 4.1 Q12.2 4.4 12.15 5.2 L9.6 6.7 9.55 6.15 5.2 6.6 Q4.75 6.75 4.15 6.75 L3.55 6.65 3.2 6.6" fill="#e1daa2" fill-rule="evenodd" stroke="none"/>
    <path d="M3.2 6.6 L3.55 6.65 4.15 6.75 Q4.75 6.75 5.2 6.6 L9.55 6.15 6.35 6.95 6.2 7.1 Q5.85 7.3 5.5 7.4 L5.35 7.4 Q4.0 7.4 3.2 6.6 M9.6 6.7 L12.15 5.2 Q12.2 4.4 12.15 4.1 L12.05 3.2 Q12.0 2.65 11.85 2.3 L10.3 -0.75 11.7 0.2 12.1 0.95 12.1 1.0 12.55 2.4 12.65 2.8 12.65 2.9 12.7 3.0 12.75 3.3 12.75 3.4 Q12.85 4.15 12.85 4.8 L12.9 5.15 12.9 5.25 12.95 5.6 12.95 5.7 Q13.05 5.9 13.25 6.05 13.45 6.25 13.45 6.4 13.45 6.55 13.3 6.85 13.0 7.2 12.65 7.3 L12.55 7.4 12.45 7.45 Q12.15 7.55 11.85 7.6 L11.75 7.6 Q10.75 7.55 10.05 7.25 L9.75 7.0 9.7 6.95 9.6 6.7" fill="#a8ae59" fill-rule="evenodd" stroke="none"/>
    <path d="M4.85 -0.85 Q4.95 -0.9 5.05 -1.0 L5.1 -0.9 Q5.4 -0.9 5.85 -1.15 L8.05 -1.25 10.2 -1.2 Q11.4 -1.3 11.75 -0.6 11.85 -0.35 11.85 0.25 12.0 1.0 12.05 2.85 12.05 3.3 12.15 4.25 L12.3 5.4 12.3 5.5 12.35 6.2 Q12.35 6.3 9.55 7.05 L9.35 7.05 7.9 7.2 6.65 7.2 6.7 7.15 Q5.5 6.9 4.45 6.6 L3.55 6.25 3.55 6.15 Q3.8 5.6 4.0 4.85 L4.0 4.75 Q4.3 3.35 4.3 2.5 4.3 2.15 4.5 0.8 4.65 -0.3 4.85 -0.85 M10.95 -0.65 L10.55 -0.8 10.15 -0.9 8.0 -0.9 6.85 -0.95 6.25 -0.85 Q5.45 -0.65 5.2 -0.5 L5.0 -0.35 Q4.9 -0.2 4.85 0.1 L4.75 0.75 4.7 1.4 4.6 1.8 4.6 1.95 4.55 2.15 4.5 2.45 4.5 3.05 Q4.5 3.25 4.2 4.7 L4.15 4.95 4.0 6.05 Q4.0 6.2 4.45 6.35 L5.3 6.6 5.35 6.6 Q6.45 6.9 7.6 6.95 L7.85 6.95 9.05 6.85 9.75 6.7 9.8 6.7 9.8 6.65 9.95 6.6 10.1 6.6 10.95 6.4 11.55 6.2 Q11.9 6.15 11.95 5.65 L12.0 5.1 11.8 2.65 Q11.7 1.6 11.7 1.35 L11.7 1.05 11.65 0.7 11.65 0.45 11.6 0.35 11.6 0.3 Q11.55 -0.3 11.45 -0.4 11.35 -0.55 10.95 -0.65 M5.3 5.1 L5.1 4.95 5.15 4.55 5.2 4.1 Q5.2 3.95 5.25 3.7 L5.3 3.35 Q5.35 1.8 5.25 1.45 L5.3 1.45 5.3 1.3 5.65 1.35 Q6.85 1.55 8.75 1.55 L9.7 1.5 10.4 1.45 10.65 1.4 10.7 1.4 10.75 1.45 10.75 1.55 10.65 2.15 Q10.5 2.7 10.5 3.2 L10.55 4.05 10.55 4.9 10.55 5.0 10.5 5.1 10.45 5.15 10.3 5.2 10.25 5.2 10.2 5.25 9.75 5.4 8.5 5.7 6.7 5.65 Q6.3 5.65 5.65 5.3 L5.3 5.1 M10.5 1.8 L10.5 1.7 8.75 1.75 7.55 1.75 5.55 1.7 Q5.4 1.9 5.4 2.3 L5.4 3.15 Q5.35 3.45 5.3 4.05 L5.25 4.7 5.25 4.75 Q5.25 4.95 6.8 5.55 L8.5 5.55 Q10.05 5.5 10.35 4.75 L10.4 4.4 10.4 3.15 10.5 1.8" fill="#111111" fill-rule="evenodd" stroke="none"/>
    <path d="M4.6 1.8 L4.7 1.4 4.75 0.75 4.85 0.1 Q4.9 -0.2 5.0 -0.35 L5.2 -0.5 Q5.45 -0.65 6.25 -0.85 L6.85 -0.95 8.0 -0.9 10.15 -0.9 10.55 -0.8 10.95 -0.65 10.9 -0.45 Q10.65 0.55 10.4 1.45 L9.7 1.5 8.75 1.55 Q6.85 1.55 5.65 1.35 L5.3 1.3 5.3 1.45 5.25 1.45 Q5.35 1.8 5.3 3.35 L5.25 3.7 Q5.2 3.95 5.2 4.1 L5.15 4.55 5.1 4.95 5.3 5.1 Q5.55 5.35 6.25 5.8 7.1 6.25 7.95 6.4 L7.6 6.95 Q6.45 6.9 5.35 6.6 L5.3 6.6 Q5.25 6.25 5.1 5.95 4.9 5.6 4.85 5.05 4.8 4.75 4.8 4.2 L4.8 3.35 4.7 3.35 4.6 4.35 Q4.55 4.8 4.55 5.2 4.55 5.85 4.45 6.3 L4.45 6.35 Q4.0 6.2 4.0 6.05 L4.15 4.95 4.2 4.7 Q4.5 3.25 4.5 3.05 L4.5 2.45 4.55 2.15 Q4.6 2.25 4.8 2.25 4.9 2.25 4.95 2.2 5.0 2.15 5.0 2.05 5.0 1.8 4.8 1.8 4.65 1.75 4.6 1.8 M10.95 6.4 L10.1 6.6 9.95 6.6 9.8 6.65 9.8 6.7 10.0 6.25 10.5 5.1 10.55 5.0 10.55 4.9 10.55 4.95 11.45 3.05 11.25 4.75 Q11.15 5.55 10.95 6.4 M8.75 0.85 Q8.95 0.7 8.95 0.6 8.95 0.2 8.45 0.3 7.95 0.4 7.95 0.95 L7.95 1.05 8.15 1.1 Q8.5 1.0 8.75 0.85 M9.3 3.4 L9.35 3.15 9.45 2.45 9.4 2.35 9.4 2.4 Q9.15 2.55 8.75 3.2 8.3 3.9 8.05 4.15 L7.1 5.1 Q6.4 5.05 5.9 4.9 5.45 4.75 5.25 4.7 L5.3 4.05 Q5.35 3.45 5.4 3.15 L5.4 2.3 Q5.4 1.9 5.55 1.7 L7.55 1.75 8.75 1.75 10.5 1.7 10.5 1.8 10.4 2.15 9.55 4.15 9.25 4.8 9.2 4.85 9.25 4.05 9.25 4.0 9.45 3.8 Q9.7 3.55 9.7 3.4 L9.65 3.3 9.65 3.25 Q9.5 3.25 9.3 3.4 M8.7 2.5 L8.85 2.45 Q8.9 2.4 8.9 2.3 L8.9 2.2 8.85 2.15 Q8.65 2.05 8.55 2.15 8.5 2.2 8.5 2.25 8.5 2.35 8.7 2.5 M6.25 6.3 L6.25 6.2 Q6.25 6.05 6.05 5.95 5.9 5.9 5.9 6.15 L5.9 6.25 Q5.95 6.4 6.1 6.4 L6.2 6.35 6.25 6.35 6.25 6.3 M7.5 4.15 Q7.6 4.05 7.6 3.95 7.6 3.6 7.2 3.7 6.85 3.75 6.85 4.0 L6.9 4.1 Q6.95 4.25 7.2 4.25 7.35 4.25 7.5 4.15 M8.35 3.05 L8.25 3.1 Q8.15 3.15 8.15 3.25 8.15 3.3 8.2 3.3 L8.25 3.35 8.35 3.3 Q8.4 3.25 8.45 3.2 L8.35 3.05 M8.15 2.3 L8.1 2.2 Q7.95 2.2 7.85 2.25 7.65 2.35 7.65 2.45 L7.8 2.6 8.05 2.45 8.15 2.3 M6.7 2.45 Q6.1 2.6 6.1 3.45 6.1 3.6 6.15 3.55 L6.3 3.6 7.0 3.15 Q7.3 2.95 7.3 2.75 L7.25 2.6 7.3 2.7 7.4 2.6 Q7.5 2.4 7.5 2.35 L7.5 2.2 Q7.0 2.2 6.95 2.4 L6.7 2.45 M6.85 0.8 Q6.6 0.75 6.5 0.8 6.4 0.8 6.4 0.95 L6.4 1.1 6.8 1.1 Q6.85 1.05 6.85 0.9 L6.85 0.8" fill="#515151" fill-rule="evenodd" stroke="none"/>
    <path d="M4.45 6.35 L4.45 6.3 Q4.55 5.85 4.55 5.2 4.55 4.8 4.6 4.35 L4.7 3.35 4.8 3.35 4.8 4.2 Q4.8 4.75 4.85 5.05 4.9 5.6 5.1 5.95 5.25 6.25 5.3 6.6 L4.45 6.35 M7.6 6.95 L7.95 6.4 Q7.1 6.25 6.25 5.8 5.55 5.35 5.3 5.1 L5.65 5.3 Q6.3 5.65 6.7 5.65 L8.5 5.7 9.75 5.4 10.2 5.25 10.25 5.2 10.3 5.2 10.45 5.15 10.5 5.1 10.0 6.25 9.8 6.7 9.75 6.7 9.05 6.85 7.85 6.95 7.6 6.95 M10.4 1.45 Q10.65 0.55 10.9 -0.45 L10.95 -0.65 Q11.35 -0.55 11.45 -0.4 11.55 -0.3 11.6 0.3 L11.6 0.35 11.65 0.45 11.65 0.7 11.7 1.05 11.7 1.35 Q11.7 1.6 11.8 2.65 L12.0 5.1 11.95 5.65 Q11.9 6.15 11.55 6.2 L10.95 6.4 Q11.15 5.55 11.25 4.75 L11.45 3.05 10.55 4.95 10.55 4.9 10.55 4.05 10.5 3.2 Q10.5 2.7 10.65 2.15 L10.75 1.55 10.75 1.45 10.7 1.4 10.65 1.4 10.4 1.45 M5.25 4.7 Q5.45 4.75 5.9 4.9 6.4 5.05 7.1 5.1 L8.05 4.15 Q8.3 3.9 8.75 3.2 9.15 2.55 9.4 2.4 L9.4 2.35 9.45 2.45 9.35 3.15 9.3 3.4 9.3 3.25 9.15 3.3 Q8.75 3.55 8.75 3.85 L8.75 4.0 Q8.8 4.1 8.9 4.1 L9.25 4.05 9.2 4.85 9.25 4.8 9.55 4.15 10.4 2.15 10.5 1.8 10.4 3.15 10.4 4.4 10.35 4.75 Q10.05 5.5 8.5 5.55 L6.8 5.55 Q5.25 4.95 5.25 4.75 L5.25 4.7 M8.5 6.25 Q8.5 6.35 8.5 6.4 L8.55 6.45 8.75 6.5 8.9 6.35 9.0 6.2 Q9.0 6.0 8.75 6.05 8.5 6.1 8.5 6.25 M9.95 5.75 Q9.8 5.7 9.7 5.75 9.65 5.8 9.65 5.9 L9.8 6.05 9.9 6.05 9.95 6.0 9.95 5.75" fill="#37363f" fill-rule="evenodd" stroke="none"/>
    <path d="M4.6 1.8 Q4.65 1.75 4.8 1.8 5.0 1.8 5.0 2.05 5.0 2.15 4.95 2.2 4.9 2.25 4.8 2.25 4.6 2.25 4.55 2.15 L4.6 1.95 4.6 1.8 M8.75 0.85 Q8.5 1.0 8.15 1.1 L7.95 1.05 7.95 0.95 Q7.95 0.4 8.45 0.3 8.95 0.2 8.95 0.6 8.95 0.7 8.75 0.85 M9.3 3.4 Q9.5 3.25 9.65 3.25 L9.65 3.3 9.7 3.4 Q9.7 3.55 9.45 3.8 L9.25 4.0 9.3 3.4 M8.7 2.5 Q8.5 2.35 8.5 2.25 8.5 2.2 8.55 2.15 8.65 2.05 8.85 2.15 L8.9 2.2 8.9 2.3 Q8.9 2.4 8.85 2.45 L8.7 2.5 M6.85 0.8 L6.85 0.9 Q6.85 1.05 6.8 1.1 L6.4 1.1 6.4 0.95 Q6.4 0.8 6.5 0.8 6.6 0.75 6.85 0.8 M6.7 2.45 L6.95 2.4 Q7.0 2.2 7.5 2.2 L7.5 2.35 Q7.5 2.4 7.4 2.6 L7.3 2.7 7.25 2.6 7.3 2.75 Q7.3 2.95 7.0 3.15 L6.3 3.6 6.15 3.55 Q6.1 3.6 6.1 3.45 6.1 2.6 6.7 2.45 M8.15 2.3 L8.05 2.45 7.8 2.6 7.65 2.45 Q7.65 2.35 7.85 2.25 7.95 2.2 8.1 2.2 L8.15 2.3 M8.35 3.05 L8.45 3.2 Q8.4 3.25 8.35 3.3 L8.25 3.35 8.2 3.3 Q8.15 3.3 8.15 3.25 8.15 3.15 8.25 3.1 L8.35 3.05 M7.5 4.15 Q7.35 4.25 7.2 4.25 6.95 4.25 6.9 4.1 L6.85 4.0 Q6.85 3.75 7.2 3.7 7.6 3.6 7.6 3.95 7.6 4.05 7.5 4.15 M6.25 6.3 L6.25 6.35 6.2 6.35 6.1 6.4 Q5.95 6.4 5.9 6.25 L5.9 6.15 Q5.9 5.9 6.05 5.95 6.25 6.05 6.25 6.2 L6.25 6.3" fill="#6f6f5b" fill-rule="evenodd" stroke="none"/>
    <path d="M9.25 4.0 L9.25 4.05 8.9 4.1 Q8.8 4.1 8.75 4.0 L8.75 3.85 Q8.75 3.55 9.15 3.3 L9.3 3.25 9.3 3.4 9.25 4.0 M8.5 6.25 Q8.5 6.1 8.75 6.05 9.0 6.0 9.0 6.2 L8.9 6.35 8.75 6.5 8.55 6.45 8.5 6.4 Q8.5 6.35 8.5 6.25 M9.95 5.75 L9.95 6.0 9.9 6.05 9.8 6.05 9.65 5.9 Q9.65 5.8 9.7 5.75 9.8 5.7 9.95 5.75" fill="#5a5a49" fill-rule="evenodd" stroke="none"/>
  </g>
</svg>
