<?xml version="1.0" encoding="UTF-8" standalone="no"?>
<svg xmlns:ffdec="https://www.free-decompiler.com/flash" xmlns:xlink="http://www.w3.org/1999/xlink" ffdec:objectType="shape" height="28.15px" width="17.8px" xmlns="http://www.w3.org/2000/svg">
  <g transform="matrix(1.0, 0.0, 0.0, 1.0, 8.9, 28.15)">
    <path d="M5.05 -15.45 Q5.2 -16.05 5.65 -17.1 L5.75 -17.45 Q6.4 -19.45 6.45 -20.85 L6.6 -20.95 6.65 -21.0 Q6.7 -21.05 6.8 -21.05 L7.0 -21.2 7.15 -21.3 7.25 -21.3 7.25 -21.4 Q7.0 -22.25 6.55 -23.25 6.45 -23.8 6.25 -24.3 5.75 -25.85 4.6 -27.5 L4.4 -27.8 5.05 -27.85 Q5.25 -27.85 6.1 -27.3 L6.15 -27.3 6.15 -27.25 6.4 -27.1 Q7.35 -25.9 7.8 -25.15 7.65 -24.75 7.5 -23.9 L7.4 -22.35 7.25 -20.75 Q7.0 -18.75 5.65 -16.45 L5.05 -15.45 M-1.25 -21.9 L-2.25 -21.3 -2.2 -21.45 -2.2 -21.5 Q-1.15 -22.15 -0.25 -23.25 0.55 -23.9 1.15 -24.65 L1.2 -24.65 1.2 -24.7 1.35 -24.9 1.5 -25.05 Q2.1 -25.9 2.55 -26.9 L2.6 -26.9 Q2.65 -26.9 2.9 -27.05 L2.95 -27.0 3.0 -26.85 2.8 -26.6 Q1.9 -25.2 1.6 -24.8 1.2 -24.35 -0.1 -23.1 -1.25 -21.95 -1.25 -21.9 M4.45 -27.1 L4.65 -26.7 4.65 -26.4 Q4.85 -24.35 5.0 -23.1 5.25 -21.35 5.6 -20.0 L4.6 -19.85 3.45 -19.65 3.3 -19.65 3.25 -19.7 3.25 -20.45 3.35 -22.05 3.45 -22.9 3.5 -24.3 3.6 -25.6 3.55 -25.9 3.45 -26.25 3.4 -26.35 3.3 -26.65 Q3.2 -26.95 3.0 -27.15 L3.1 -27.2 3.95 -27.6 4.2 -27.7 4.45 -27.1 M6.6 -22.35 Q7.0 -21.75 7.0 -21.6 L7.0 -21.5 7.1 -21.3 7.05 -21.3 6.8 -21.25 6.65 -21.25 6.65 -21.2 6.3 -21.1 6.0 -20.9 Q5.75 -20.75 5.65 -20.7 L5.25 -23.45 4.9 -26.2 5.6 -24.55 6.6 -22.35 M0.75 -23.0 L0.65 -22.8 0.45 -22.7 0.25 -22.4 Q-0.15 -22.1 -0.2 -21.85 L-0.35 -21.7 -0.4 -21.7 -0.4 -21.55 -0.5 -21.55 -0.5 -20.45 -0.55 -20.3 -0.7 -20.0 -0.75 -19.95 Q-0.9 -19.7 -1.2 -19.5 -1.4 -19.2 -1.95 -18.9 -2.2 -18.65 -2.65 -18.4 -3.2 -18.15 -3.75 -18.0 -4.2 -17.8 -4.55 -17.8 L-4.75 -17.8 -5.3 -17.75 Q-5.9 -17.75 -6.45 -17.9 -6.85 -17.95 -7.0 -18.0 -7.1 -18.05 -7.15 -18.15 L-7.3 -18.25 -7.3 -18.4 -7.3 -18.5 -7.35 -18.5 -7.3 -18.7 -7.3 -18.75 -7.25 -18.75 -7.25 -18.85 -7.2 -18.85 -7.25 -18.9 -7.15 -19.2 -7.1 -19.15 -6.65 -19.15 Q-6.25 -19.15 -4.15 -20.2 L-3.15 -20.7 -2.55 -21.05 Q-1.75 -21.5 -1.05 -21.9 L-0.7 -22.1 0.75 -23.0 M-7.75 -16.75 L-7.7 -16.95 -7.65 -17.3 -7.65 -17.4 -7.6 -17.65 -7.5 -17.9 -7.45 -18.2 -7.25 -18.0 Q-6.75 -17.55 -6.05 -17.45 L-6.0 -17.4 -5.5 -17.35 -5.4 -17.35 -4.35 -17.3 Q-3.7 -17.3 -2.2 -18.1 L-2.1 -18.15 Q-2.35 -17.65 -3.55 -17.1 -4.95 -16.4 -5.85 -16.4 -6.45 -16.4 -7.2 -16.6 L-7.75 -16.75 M-3.6 -21.2 L-4.0 -21.0 -5.8 -19.95 -5.8 -19.8 -5.75 -19.75 Q-6.35 -19.5 -6.95 -19.3 -6.85 -19.45 -6.8 -19.8 -6.75 -20.05 -6.75 -20.2 -6.75 -20.5 -6.75 -20.7 L-6.7 -20.7 -6.7 -20.8 -6.6 -20.8 -6.6 -20.75 -6.15 -20.75 -5.75 -20.8 -5.6 -20.8 Q-5.25 -20.8 -4.5 -21.0 -4.15 -21.05 -3.8 -21.15 L-3.6 -21.2 M3.3 -17.85 L3.4 -18.0 3.55 -18.0 Q4.15 -18.0 5.05 -18.75 L5.1 -18.8 4.85 -17.45 4.7 -15.95 4.7 -15.2 4.75 -15.35 4.75 -14.3 4.8 -14.35 4.95 -14.35 5.0 -14.4 5.0 -14.45 Q5.95 -15.2 6.75 -15.95 L6.75 -15.75 6.7 -15.5 6.75 -15.5 6.7 -14.55 6.7 -14.4 6.55 -12.5 Q6.3 -9.8 6.3 -8.9 L6.3 -8.45 Q6.3 -8.3 6.35 -8.15 L6.2 -8.05 6.2 -8.15 6.15 -8.25 6.15 -8.3 5.95 -8.3 5.8 -8.5 5.5 -8.95 5.15 -9.25 5.1 -9.35 4.95 -9.45 Q4.7 -9.65 4.35 -10.05 L4.1 -10.25 Q3.9 -10.3 3.8 -10.45 L3.75 -10.45 3.75 -10.5 Q3.7 -10.65 3.7 -10.85 L3.7 -14.8 3.65 -15.0 3.65 -15.2 3.6 -15.6 3.55 -15.75 3.45 -16.55 3.65 -16.55 Q3.5 -16.65 3.45 -16.85 L3.4 -16.95 3.35 -17.4 3.35 -17.5 3.3 -17.85" fill="#6d2716" fill-rule="evenodd" stroke="none"/>
    <path d="M7.8 -25.15 L8.05 -24.75 8.2 -24.2 8.3 -23.45 8.25 -23.45 Q8.2 -23.45 8.2 -23.15 L8.25 -21.45 8.25 -19.75 8.2 -19.4 8.2 -17.7 Q7.45 -17.2 6.6 -16.25 L5.5 -15.15 5.5 -15.1 5.45 -15.15 5.35 -15.0 5.2 -14.85 5.0 -14.7 5.0 -15.2 5.05 -15.35 5.05 -15.45 5.65 -16.45 Q7.0 -18.75 7.25 -20.75 L7.4 -22.35 7.5 -23.9 Q7.65 -24.75 7.8 -25.15 M6.4 -23.65 L6.2 -24.0 Q5.7 -25.05 5.2 -25.85 L4.9 -26.45 4.95 -26.5 4.6 -27.3 Q5.7 -25.85 6.2 -24.35 L6.4 -23.65 M-1.25 -21.9 Q-1.25 -21.95 -0.1 -23.1 1.2 -24.35 1.6 -24.8 1.9 -25.2 2.8 -26.6 L3.0 -26.85 3.15 -26.35 3.2 -26.3 3.2 -26.25 Q3.0 -26.2 2.75 -25.85 L2.25 -25.0 1.7 -24.2 Q1.4 -23.75 1.3 -23.55 L1.1 -23.45 Q0.4 -23.05 0.05 -22.75 -0.75 -22.2 -0.95 -22.1 L-1.25 -21.9 M2.95 -25.55 Q2.95 -25.7 3.1 -25.9 L3.25 -26.05 3.3 -25.8 3.35 -25.6 3.3 -25.55 Q3.25 -25.45 3.15 -25.4 L3.05 -25.4 3.0 -25.4 Q3.0 -25.45 2.95 -25.5 L2.95 -25.55 M2.7 -25.2 L2.85 -24.6 2.85 -24.45 1.8 -23.85 2.35 -24.65 2.7 -25.2 M-0.5 -20.45 L-0.5 -20.25 -0.55 -20.05 Q-0.7 -19.65 -0.7 -19.5 -0.7 -19.3 -0.45 -19.1 L0.1 -19.05 Q0.2 -19.1 0.2 -19.15 L0.2 -19.2 0.4 -19.2 0.4 -19.1 Q0.55 -19.15 0.65 -19.25 L0.65 -19.3 0.8 -19.45 0.8 -19.5 0.85 -19.55 0.9 -19.75 0.8 -20.1 Q0.75 -20.4 0.75 -20.45 0.75 -20.55 1.0 -20.9 L1.05 -21.0 1.2 -20.5 Q1.3 -20.05 1.3 -19.7 L1.3 -19.65 1.25 -19.65 0.95 -19.3 -0.15 -18.55 -1.35 -17.75 -1.4 -17.7 -1.75 -17.5 -1.8 -17.5 -1.95 -17.35 -2.0 -17.35 -2.35 -17.15 -3.75 -16.5 Q-4.85 -16.2 -5.95 -16.2 L-6.5 -16.2 -6.9 -16.3 -6.95 -16.35 -7.05 -16.35 -7.2 -16.4 -7.55 -16.6 -7.75 -16.7 -7.75 -16.75 -7.2 -16.6 Q-6.45 -16.4 -5.85 -16.4 -4.95 -16.4 -3.55 -17.1 -2.35 -17.65 -2.1 -18.15 L-2.2 -18.1 Q-3.7 -17.3 -4.35 -17.3 L-5.4 -17.35 -5.5 -17.35 -6.05 -17.45 Q-6.75 -17.55 -7.25 -18.0 L-7.45 -18.2 -7.45 -18.3 Q-7.45 -18.45 -7.35 -18.5 L-7.3 -18.5 -7.3 -18.4 -7.3 -18.25 -7.15 -18.15 Q-7.1 -18.05 -7.0 -18.0 -6.85 -17.95 -6.45 -17.9 -5.9 -17.75 -5.3 -17.75 L-4.75 -17.8 -4.55 -17.8 Q-4.2 -17.8 -3.75 -18.0 -3.2 -18.15 -2.65 -18.4 -2.2 -18.65 -1.95 -18.9 -1.4 -19.2 -1.2 -19.5 -0.9 -19.7 -0.75 -19.95 L-0.7 -20.0 -0.55 -20.3 -0.5 -20.45 M-3.6 -21.2 Q-3.05 -21.4 -2.8 -21.65 L-2.6 -21.75 -2.55 -21.75 Q-1.95 -22.25 -1.35 -22.8 L-0.3 -23.85 -0.2 -23.85 -0.15 -23.9 -0.15 -23.95 0.75 -24.7 1.0 -24.75 0.25 -24.0 Q-0.45 -23.25 -0.5 -23.1 -0.85 -22.95 -1.25 -22.55 -1.7 -22.2 -2.45 -21.4 L-2.6 -21.25 -2.7 -21.2 Q-3.3 -20.85 -4.4 -20.4 -3.75 -20.65 -2.9 -21.05 L-2.65 -21.2 -2.9 -21.0 Q-4.3 -20.3 -5.75 -19.75 L-5.8 -19.8 -5.8 -19.95 -4.0 -21.0 -3.6 -21.2 M3.3 -17.85 L3.15 -19.1 3.15 -19.4 3.6 -19.35 4.3 -19.4 4.45 -19.4 Q4.85 -19.4 5.15 -19.6 L5.25 -19.65 5.25 -19.5 5.15 -19.0 5.1 -18.8 5.05 -18.75 Q4.15 -18.0 3.55 -18.0 L3.4 -18.0 3.3 -17.85 M5.65 -19.9 L5.75 -19.95 5.65 -20.55 6.25 -20.8 6.05 -19.3 Q5.9 -18.25 5.65 -17.55 L5.0 -15.8 5.0 -15.75 Q5.05 -16.25 5.15 -16.95 5.45 -18.65 5.45 -19.4 L5.4 -19.75 5.65 -19.9 M8.25 -17.5 L8.25 -17.4 8.2 -16.65 8.15 -16.15 8.15 -15.35 8.05 -14.3 8.0 -12.8 7.85 -11.05 7.8 -9.4 6.95 -8.7 6.45 -8.3 Q6.4 -9.45 6.6 -11.4 6.9 -13.8 6.9 -14.65 L6.9 -15.35 6.85 -15.7 6.85 -15.85 6.8 -15.95 6.75 -15.95 6.75 -16.0 6.95 -16.15 7.0 -16.2 8.15 -17.4 8.25 -17.55 8.25 -17.5" fill="#4d1106" fill-rule="evenodd" stroke="none"/>
    <path d="M-5.3 -15.9 L-5.55 -15.9 -6.15 -15.85 Q-6.35 -15.8 -6.35 -15.55 L-6.3 -15.3 Q-6.15 -15.1 -5.65 -15.1 -4.6 -15.1 -2.15 -16.3 -0.8 -17.0 0.1 -17.55 L0.05 -17.45 -0.05 -17.4 -0.2 -17.25 -0.35 -17.2 Q-0.55 -17.05 -0.55 -16.8 L-0.55 -16.65 -0.5 -16.6 -0.35 -16.6 Q-0.1 -16.45 0.55 -16.4 L0.8 -16.0 1.3 -15.95 1.25 -15.5 Q1.25 -14.2 1.4 -13.15 1.55 -11.7 1.85 -11.25 0.65 -10.95 -0.8 -10.9 L-1.8 -10.9 Q-3.0 -11.2 -5.15 -11.9 L-5.45 -12.0 -5.7 -12.05 -5.8 -12.1 -5.8 -12.2 -5.9 -12.15 -5.95 -12.2 -4.1 -13.75 -3.9 -13.85 -2.3 -14.9 -2.2 -15.0 -1.85 -15.4 -1.85 -15.45 -1.8 -15.45 -1.8 -15.5 -1.75 -15.5 -1.7 -15.55 -1.65 -15.65 -1.75 -15.55 -1.8 -15.6 -1.95 -15.6 Q-2.2 -15.6 -3.1 -14.85 L-3.5 -14.5 -4.05 -14.0 Q-4.5 -13.75 -5.55 -13.15 -6.25 -12.8 -6.95 -12.65 L-7.05 -12.65 -7.25 -12.75 -7.25 -13.0 -7.2 -13.55 -7.2 -13.65 -7.15 -13.3 -7.1 -13.6 -7.1 -13.9 -7.05 -14.25 Q-6.95 -14.85 -6.95 -15.2 L-6.95 -15.4 -6.9 -15.8 -6.9 -16.1 Q-6.3 -15.95 -5.4 -15.95 L-5.05 -16.0 -5.3 -15.9" fill="#c07847" fill-rule="evenodd" stroke="none"/>
    <path d="M2.95 -25.5 L2.95 -25.55 2.95 -25.5 M0.2 -20.1 L0.1 -20.1 -0.1 -20.05 -0.25 -20.0 -0.2 -20.15 -0.05 -20.2 Q0.1 -20.2 0.2 -20.1 M-0.25 -19.35 L-0.35 -19.35 -0.35 -19.45 -0.35 -19.4 -0.3 -19.4 -0.3 -19.35 -0.25 -19.35 M1.05 -16.25 L1.35 -16.25 1.15 -16.2 1.05 -16.25 M0.2 -16.8 L-0.1 -16.75 -0.15 -16.75 -0.2 -16.8 -0.3 -16.8 -0.25 -16.85 -0.2 -16.8 0.2 -16.8" fill="#f1ae6b" fill-rule="evenodd" stroke="none"/>
    <path d="M3.3 -25.55 L3.3 -24.8 3.25 -24.5 3.15 -23.5 3.05 -23.7 3.1 -23.7 3.05 -23.75 3.15 -23.75 Q3.1 -24.15 3.1 -24.65 L3.05 -25.4 3.15 -25.4 Q3.25 -25.45 3.3 -25.55 M0.75 -23.0 L0.85 -23.05 1.3 -23.3 1.4 -23.4 1.5 -23.4 1.55 -23.45 Q2.15 -23.85 2.45 -24.1 L2.35 -24.05 2.85 -24.4 2.9 -24.15 2.9 -23.95 2.85 -23.85 Q2.3 -23.7 1.85 -23.4 L1.1 -23.1 0.65 -22.8 0.75 -23.0" fill="#522112" fill-rule="evenodd" stroke="none"/>
    <path d="M3.15 -23.5 L3.1 -23.0 3.05 -21.9 Q2.95 -21.95 2.85 -21.7 L2.85 -21.65 2.9 -21.85 Q2.9 -22.45 2.65 -22.0 2.5 -21.6 2.45 -21.3 L2.25 -20.65 2.0 -19.95 Q1.85 -19.45 1.7 -19.05 L1.6 -19.15 1.55 -19.15 Q1.6 -19.35 1.6 -19.55 1.6 -19.75 1.5 -20.25 1.55 -20.2 1.6 -20.2 1.75 -20.2 1.75 -20.3 1.75 -20.55 1.85 -21.1 L1.95 -21.7 1.9 -21.85 Q2.15 -22.05 2.15 -22.35 2.15 -22.5 2.1 -22.5 L1.95 -22.55 0.65 -21.4 Q0.25 -20.95 0.25 -20.3 L0.25 -20.25 Q0.1 -20.35 -0.05 -20.35 L-0.2 -20.35 -0.2 -21.35 -0.15 -21.35 -0.2 -21.4 -0.15 -21.4 0.1 -21.35 0.3 -21.35 0.35 -21.4 0.35 -21.45 Q0.25 -21.55 0.05 -21.55 L-0.2 -21.5 -0.2 -21.55 Q0.8 -22.55 2.0 -23.2 2.8 -23.55 3.05 -23.7 L3.15 -23.5 M2.9 -19.95 L2.9 -19.8 2.85 -19.7 2.9 -19.95 M2.25 -17.75 L2.1 -17.2 1.95 -16.95 1.95 -17.05 2.25 -17.75 M1.25 -16.75 L1.15 -16.65 1.05 -16.6 1.0 -16.55 0.95 -16.55 0.95 -16.6 1.25 -16.75 M0.75 -16.9 L0.8 -16.9 0.85 -17.0 Q0.95 -17.1 1.05 -17.1 L1.0 -17.05 0.75 -16.9 M2.65 -20.7 L2.65 -20.65 2.7 -20.85 2.65 -20.7 M1.9 -18.5 Q1.7 -17.8 1.7 -17.65 L1.75 -17.55 1.65 -17.55 1.6 -17.5 1.6 -17.55 Q1.55 -17.6 1.5 -17.65 1.65 -17.9 1.9 -18.5 M1.45 -17.65 L1.45 -17.6 1.5 -17.5 1.25 -17.35 Q1.1 -17.25 0.9 -17.2 L0.9 -17.25 1.0 -17.35 Q1.1 -17.45 1.2 -17.45 1.3 -17.45 1.45 -17.65 M0.75 -17.55 L0.65 -17.5 1.05 -18.1 1.1 -18.15 1.1 -18.25 1.15 -18.35 Q1.4 -18.8 1.55 -19.1 L1.6 -18.8 Q1.3 -18.25 1.0 -17.85 L0.75 -17.55 M1.35 -20.85 L1.25 -21.1 1.3 -21.2 1.25 -21.2 1.25 -21.3 1.4 -21.45 1.4 -21.5 Q1.35 -21.25 1.35 -21.0 L1.35 -20.85 M0.45 -19.5 L0.25 -19.3 0.25 -19.25 0.2 -19.25 0.35 -19.45 0.4 -19.45 0.45 -19.5" fill="#fad8b6" fill-rule="evenodd" stroke="none"/>
    <path d="M3.05 -21.9 L3.0 -21.15 2.9 -20.15 2.9 -19.95 2.85 -19.7 2.8 -19.6 Q2.7 -19.5 2.6 -19.3 2.55 -19.1 2.45 -18.8 L2.4 -18.85 2.35 -18.6 2.4 -18.6 2.3 -18.3 Q2.25 -18.1 2.25 -17.75 L1.95 -17.05 1.8 -17.15 Q1.75 -17.15 1.65 -17.1 L1.4 -16.95 1.3 -16.85 1.25 -16.75 0.95 -16.6 0.9 -16.65 Q0.85 -16.75 0.7 -16.8 L0.75 -16.9 1.0 -17.05 1.05 -17.1 1.1 -17.1 1.25 -17.15 1.75 -17.45 1.85 -17.55 1.9 -17.55 Q2.05 -17.9 2.35 -19.15 2.7 -20.4 2.7 -20.6 L2.7 -20.7 2.65 -20.7 2.7 -20.85 2.65 -20.65 Q2.35 -20.2 2.05 -19.0 L2.0 -18.9 2.0 -18.85 1.9 -18.6 1.9 -18.5 Q1.65 -17.9 1.5 -17.65 L1.45 -17.65 Q1.3 -17.45 1.2 -17.45 1.1 -17.45 1.0 -17.35 L0.9 -17.25 0.9 -17.6 0.8 -17.55 0.75 -17.55 1.0 -17.85 Q1.3 -18.25 1.6 -18.8 L1.65 -18.45 1.65 -18.5 1.75 -18.7 1.75 -18.85 1.7 -19.0 1.7 -19.05 Q1.85 -19.45 2.0 -19.95 L2.25 -20.65 2.45 -21.3 Q2.5 -21.6 2.65 -22.0 2.9 -22.45 2.9 -21.85 L2.85 -21.65 2.85 -21.7 Q2.95 -21.95 3.05 -21.9 M1.5 -20.25 L1.45 -20.35 1.45 -20.4 1.35 -20.75 1.35 -20.85 1.35 -21.0 Q1.35 -21.25 1.4 -21.5 L1.4 -21.45 1.25 -21.3 1.25 -21.35 1.3 -21.45 1.55 -21.8 2.0 -22.4 Q1.7 -22.4 1.4 -21.95 1.1 -21.6 1.1 -21.4 L0.75 -21.1 0.65 -21.0 0.55 -20.85 0.6 -20.85 Q0.5 -20.6 0.5 -20.4 0.5 -20.2 0.55 -20.0 L0.6 -19.9 Q0.6 -19.8 0.55 -19.7 L0.45 -19.5 0.4 -19.45 Q0.5 -19.65 0.5 -19.8 0.5 -20.0 0.35 -20.15 L0.25 -20.25 0.25 -20.3 Q0.25 -20.95 0.65 -21.4 L1.95 -22.55 2.1 -22.5 Q2.15 -22.5 2.15 -22.35 2.15 -22.05 1.9 -21.85 L1.95 -21.7 1.85 -21.1 Q1.75 -20.55 1.75 -20.3 1.75 -20.2 1.6 -20.2 1.55 -20.2 1.5 -20.25 M1.8 -21.9 L1.8 -21.9 M2.8 -19.75 L2.8 -19.75" fill="#eb9a49" fill-rule="evenodd" stroke="none"/>
    <path d="M-7.25 -18.85 L-7.25 -18.9 -7.2 -18.85 -7.25 -18.85 M5.65 -19.9 L5.65 -19.9 M3.45 -16.55 L3.45 -16.85 Q3.5 -16.65 3.65 -16.55 L3.45 -16.55 M-5.3 -15.9 L-5.9 -15.65 -5.95 -15.65 -5.8 -15.6 Q-4.15 -15.6 -1.9 -17.05 L-1.5 -17.25 -1.4 -17.2 -0.95 -17.55 -0.75 -17.65 Q-0.65 -17.75 -0.55 -17.8 L0.25 -18.35 Q0.85 -18.75 1.15 -19.1 L1.1 -18.8 0.9 -18.45 0.6 -17.9 0.5 -17.9 0.45 -17.85 0.35 -17.85 0.15 -17.6 0.1 -17.55 Q-0.8 -17.0 -2.15 -16.3 -4.6 -15.1 -5.65 -15.1 -6.15 -15.1 -6.3 -15.3 L-6.35 -15.55 Q-6.35 -15.8 -6.15 -15.85 L-5.55 -15.9 -5.3 -15.9 M1.3 -15.95 L1.35 -15.95 Q1.55 -16.05 1.8 -16.3 L2.05 -16.65 2.05 -16.7 Q2.45 -17.2 2.65 -18.0 L2.9 -19.0 3.15 -16.7 3.35 -14.95 3.35 -14.6 3.3 -11.65 3.15 -11.55 3.05 -11.55 2.0 -11.25 1.85 -11.25 Q1.55 -11.7 1.4 -13.15 1.25 -14.2 1.25 -15.5 L1.3 -15.95 M-5.95 -12.2 L-6.4 -12.4 -6.55 -12.5 Q-6.95 -12.5 -7.0 -12.6 L-7.05 -12.65 -6.95 -12.65 Q-6.25 -12.8 -5.55 -13.15 -4.5 -13.75 -4.05 -14.0 L-3.5 -14.5 -3.1 -14.85 Q-2.2 -15.6 -1.95 -15.6 L-1.8 -15.6 -1.75 -15.55 -1.65 -15.65 -1.7 -15.55 -1.75 -15.5 -1.8 -15.5 -1.8 -15.45 -1.85 -15.45 -1.85 -15.4 -2.2 -15.0 -2.3 -14.9 -3.9 -13.85 -4.1 -13.75 -5.95 -12.2" fill="#993820" fill-rule="evenodd" stroke="none"/>
    <path d="M0.2 -20.1 L0.25 -20.1 Q0.35 -19.95 0.35 -19.8 0.35 -19.7 0.3 -19.6 0.2 -19.45 0.05 -19.35 L0.1 -19.5 0.15 -19.8 0.1 -20.1 0.2 -20.1 M-0.35 -19.45 L-0.4 -19.45 -0.4 -19.7 Q-0.4 -19.8 -0.35 -19.9 L-0.3 -19.9 -0.35 -19.55 -0.35 -19.4 -0.35 -19.45 M1.05 -16.25 L1.0 -16.25 1.0 -16.35 Q1.0 -16.45 1.45 -16.75 1.6 -16.85 1.7 -16.9 L1.85 -16.9 1.85 -16.8 1.7 -16.55 1.55 -16.5 Q1.45 -16.4 1.45 -16.3 L1.35 -16.25 1.05 -16.25 M0.75 -17.4 L0.8 -17.4 0.8 -17.3 0.85 -17.15 Q0.85 -17.05 0.7 -16.95 L0.65 -16.9 0.65 -16.85 0.3 -16.8 0.2 -16.8 -0.2 -16.8 -0.25 -16.85 -0.2 -16.9 -0.2 -16.85 0.0 -16.85 Q0.1 -16.85 0.45 -17.05 0.75 -17.3 0.75 -17.4" fill="#e29c7e" fill-rule="evenodd" stroke="none"/>
    <path d="M0.1 -20.1 L0.15 -19.8 0.1 -19.5 0.05 -19.35 -0.25 -19.35 -0.3 -19.35 -0.3 -19.4 -0.35 -19.4 -0.35 -19.55 -0.3 -19.9 -0.25 -19.9 -0.25 -20.0 -0.1 -20.05 0.1 -20.1 M-0.2 -16.9 L-0.15 -16.95 -0.1 -16.95 -0.1 -17.1 0.15 -17.2 0.35 -17.3 0.4 -17.35 0.45 -17.3 0.5 -17.4 0.6 -17.4 0.75 -17.45 0.75 -17.4 Q0.75 -17.3 0.45 -17.05 0.1 -16.85 0.0 -16.85 L-0.2 -16.85 -0.2 -16.9" fill="#f7e0d7" fill-rule="evenodd" stroke="none"/>
    <path d="M2.3 -8.0 Q1.9 -9.0 1.45 -9.8 L1.05 -10.5 2.55 -10.8 Q2.5 -9.85 2.35 -8.15 L2.3 -8.0 M-5.2 -11.4 L-4.95 -11.3 -4.9 -11.3 -4.55 -11.15 Q-4.1 -11.0 -3.65 -10.85 L-3.65 -10.5 -3.7 -8.4 -3.7 -8.1 -3.75 -7.45 -4.3 -7.5 -4.45 -8.35 Q-4.7 -9.3 -4.7 -9.9 -4.9 -10.8 -5.2 -11.4" fill="#323816" fill-rule="evenodd" stroke="none"/>
    <path d="M1.05 -10.5 L1.45 -9.8 Q1.9 -9.0 2.3 -8.0 2.15 -6.75 2.15 -5.85 L1.95 -5.8 1.35 -5.8 1.15 -6.35 1.0 -6.8 1.05 -7.0 Q1.05 -7.1 1.0 -7.15 L0.85 -7.15 0.6 -7.8 0.35 -10.05 0.4 -10.2 0.45 -10.45 0.8 -10.45 1.05 -10.5 M-4.3 -7.5 L-4.75 -7.5 -5.05 -7.55 -5.05 -7.6 -5.1 -7.6 -5.2 -8.3 -5.25 -8.3 Q-5.4 -8.3 -5.65 -11.4 -5.65 -11.5 -5.55 -11.5 L-5.45 -11.5 -5.2 -11.4 Q-4.9 -10.8 -4.7 -9.9 -4.7 -9.3 -4.45 -8.35 L-4.3 -7.5" fill="#556127" fill-rule="evenodd" stroke="none"/>
    <path d="M2.8 -5.8 L2.85 -5.85 2.95 -5.85 2.95 -5.9 3.0 -5.9 3.15 -5.8 3.1 -5.2 3.15 -4.9 3.15 -4.5 3.2 -4.35 3.15 -4.3 3.2 -4.25 Q3.25 -3.95 3.65 -3.5 L3.95 -3.1 3.95 -3.0 4.0 -2.9 4.05 -2.8 4.1 -2.7 4.05 -2.6 Q4.0 -2.55 3.9 -2.55 3.8 -2.55 3.7 -2.65 L3.5 -2.9 3.4 -2.95 Q3.15 -3.05 2.9 -3.3 2.7 -3.45 2.6 -3.45 2.55 -3.45 2.5 -3.35 2.4 -3.2 2.3 -3.15 2.2 -3.2 2.15 -3.25 L2.0 -3.1 Q1.9 -3.15 1.85 -3.15 1.8 -3.2 1.8 -3.35 1.8 -3.45 2.3 -3.95 L2.45 -4.1 Q2.45 -4.3 2.55 -4.65 L2.7 -5.25 2.8 -5.8 M-4.25 -6.9 L-4.15 -6.9 Q-4.05 -7.0 -3.85 -7.05 L-3.5 -7.1 -3.2 -7.1 -3.15 -7.05 -3.15 -6.9 -3.25 -6.95 -3.25 -6.85 Q-3.25 -6.55 -3.05 -5.3 L-2.95 -4.8 -2.95 -4.35 -2.9 -3.85 Q-2.95 -3.8 -3.0 -3.8 L-3.0 -3.65 Q-3.05 -3.5 -3.15 -3.4 L-4.25 -3.05 -4.4 -3.25 Q-4.7 -3.25 -4.9 -3.45 L-4.85 -3.5 -5.0 -3.45 -5.35 -3.8 -5.25 -3.9 -4.8 -3.55 -4.4 -3.25 Q-4.55 -3.45 -4.55 -3.55 L-4.1 -4.05 -4.6 -4.7 -4.6 -4.8 -4.25 -4.8 Q-4.2 -4.9 -4.1 -4.9 L-3.9 -4.9 Q-3.75 -4.85 -3.55 -4.95 -3.8 -5.95 -4.1 -6.45 L-4.25 -6.7 -4.25 -6.9" fill="#66421a" fill-rule="evenodd" stroke="none"/>
    <path d="M2.8 -5.8 L2.7 -5.25 2.55 -4.65 Q2.45 -4.3 2.45 -4.1 L2.3 -3.95 Q1.8 -3.45 1.8 -3.35 1.8 -3.2 1.85 -3.15 1.9 -3.15 2.0 -3.1 L2.15 -3.25 Q2.2 -3.2 2.3 -3.15 2.4 -3.2 2.5 -3.35 2.55 -3.45 2.6 -3.45 2.7 -3.45 2.9 -3.3 3.15 -3.05 3.4 -2.95 L3.5 -2.9 3.7 -2.65 3.45 -2.5 Q2.5 -1.95 2.35 -1.5 L1.75 -1.75 1.05 -2.25 0.6 -2.5 0.6 -2.8 Q0.85 -4.15 0.9 -4.85 L0.9 -5.2 0.85 -5.4 0.8 -5.55 0.8 -5.65 0.9 -5.65 0.9 -5.6 0.95 -5.65 2.5 -5.65 2.5 -5.7 2.8 -5.8 M4.05 -2.8 L4.0 -2.9 4.1 -2.85 4.05 -2.8 M-4.25 -6.9 L-4.25 -6.7 -4.1 -6.45 Q-3.8 -5.95 -3.55 -4.95 -3.75 -4.85 -3.9 -4.9 L-4.1 -4.9 Q-4.2 -4.9 -4.25 -4.8 L-4.6 -4.8 -4.6 -4.7 -4.1 -4.05 -4.55 -3.55 Q-4.55 -3.45 -4.4 -3.25 L-4.8 -3.55 -5.25 -3.9 -5.35 -3.8 -5.75 -4.1 -5.95 -4.2 -6.3 -4.4 -6.2 -4.5 Q-5.5 -4.95 -5.1 -5.3 L-5.05 -5.25 -5.0 -5.3 -5.15 -5.75 -5.2 -6.65 -5.2 -7.0 -5.15 -6.95 -4.65 -6.9 -4.25 -6.9" fill="#9a853a" fill-rule="evenodd" stroke="none"/>
    <path d="M5.0 -1.85 L6.15 -0.55 5.8 -0.55 4.7 -0.7 Q3.9 -0.9 2.75 -1.35 3.6 -2.25 4.3 -2.65 L4.5 -2.4 5.0 -1.85 M-6.2 -3.95 L-5.9 -3.8 Q-5.15 -3.4 -5.1 -3.2 L-5.2 -3.1 Q-5.3 -3.0 -5.45 -3.0 L-5.5 -3.0 -5.75 -2.9 -7.75 -2.55 -8.25 -2.55 -8.35 -2.6 Q-8.4 -2.65 -8.4 -2.75 -8.4 -2.9 -7.9 -3.25 L-7.65 -3.4 -7.4 -3.6 Q-7.15 -3.65 -6.5 -4.2 L-6.2 -3.95" fill="#7c6d3a" fill-rule="evenodd" stroke="none"/>
    <path d="M6.85 -27.1 L7.85 -25.9 8.35 -25.0 8.65 -23.65 8.8 -22.95 8.8 -22.8 Q8.8 -22.35 8.9 -21.45 L8.9 -20.55 8.85 -20.05 8.75 -19.4 8.7 -18.05 8.6 -17.25 8.45 -15.0 8.45 -12.6 8.4 -12.0 8.4 -11.15 Q8.35 -11.0 8.35 -10.7 L8.3 -10.25 8.25 -10.2 8.2 -9.9 8.15 -9.25 7.8 -9.0 7.05 -8.35 6.9 -8.2 6.3 -7.75 6.05 -7.6 5.95 -7.6 6.0 -7.65 Q5.55 -7.9 3.4 -10.2 L3.4 -10.15 3.3 -9.75 3.25 -8.95 3.2 -8.0 Q3.15 -7.05 2.85 -6.6 L2.75 -6.7 2.75 -6.45 2.8 -6.4 2.9 -6.4 3.35 -5.45 3.35 -4.9 Q3.4 -4.75 3.4 -4.55 L3.45 -4.55 Q3.45 -4.05 4.05 -3.45 L5.15 -2.35 5.4 -2.15 5.75 -1.75 6.0 -1.5 6.1 -1.45 6.55 -0.75 Q6.8 -0.4 6.8 -0.3 6.8 -0.2 6.45 -0.1 6.15 0.0 6.05 0.0 L5.9 0.0 5.85 -0.1 Q5.85 -0.05 5.85 -0.1 4.4 -0.15 3.0 -0.8 L2.45 -1.0 Q0.25 -1.8 0.15 -2.45 L0.1 -2.55 Q0.1 -2.75 0.15 -3.05 0.2 -3.6 0.25 -4.05 0.4 -4.6 0.4 -5.75 L0.4 -5.85 0.35 -5.9 0.4 -5.9 Q0.4 -5.95 0.4 -6.05 L0.55 -6.2 Q0.45 -6.25 0.4 -6.35 L0.25 -6.75 0.25 -7.05 Q0.35 -7.1 0.45 -7.1 L0.35 -7.4 Q0.1 -7.45 -0.1 -8.8 L-0.25 -10.1 -1.15 -10.1 -2.25 -10.35 -3.05 -10.45 -3.15 -10.45 -3.1 -10.3 -3.2 -9.75 -3.2 -8.7 -3.1 -7.95 -3.1 -7.8 -3.15 -7.6 -3.05 -7.6 -3.0 -7.5 -2.9 -7.45 Q-2.9 -7.05 -2.75 -6.15 L-2.55 -4.8 Q-2.5 -4.45 -2.55 -3.25 -3.1 -2.95 -4.65 -2.55 -6.85 -1.95 -8.1 -1.95 -8.65 -1.95 -8.8 -2.15 L-8.85 -2.3 -8.9 -2.35 -8.9 -2.45 Q-8.9 -2.7 -8.75 -2.9 -8.6 -3.1 -8.6 -3.2 L-8.3 -3.4 Q-8.05 -3.65 -7.65 -4.0 L-7.45 -4.15 -7.15 -4.35 -6.9 -4.6 -6.7 -4.7 Q-5.95 -5.3 -5.85 -5.55 -5.75 -5.65 -5.75 -5.75 -5.75 -6.55 -5.85 -7.05 L-5.8 -7.2 -5.8 -7.45 -5.6 -7.6 -6.2 -9.8 -6.7 -11.65 Q-7.15 -11.85 -7.45 -12.1 L-7.9 -12.55 -7.8 -13.3 -7.7 -14.0 -7.7 -14.05 -7.65 -14.25 -7.3 -15.5 Q-7.3 -15.85 -7.35 -15.95 L-7.35 -16.05 -7.75 -16.05 -7.95 -16.35 Q-8.1 -16.6 -8.25 -16.65 -8.1 -17.05 -7.85 -17.75 -7.45 -19.0 -7.45 -19.5 L-7.3 -19.75 Q-7.1 -19.95 -7.1 -20.5 L-7.15 -20.85 -7.0 -20.95 -6.95 -21.0 -6.9 -21.1 -6.75 -21.05 -6.75 -21.15 Q-6.2 -21.15 -5.65 -21.3 -4.5 -21.3 -3.65 -21.65 -3.3 -21.9 -2.6 -22.3 L-1.75 -23.1 Q-0.35 -24.4 0.7 -25.05 L1.05 -25.05 1.45 -25.7 Q1.95 -26.5 2.35 -27.0 L2.35 -26.95 2.4 -26.95 2.45 -27.0 2.4 -27.05 Q2.65 -27.3 3.3 -27.6 3.75 -27.8 4.15 -27.9 L4.15 -27.95 4.25 -28.0 4.3 -27.95 4.6 -28.15 4.7 -28.1 4.85 -28.05 5.65 -27.8 5.8 -27.7 5.65 -27.9 Q6.15 -27.5 6.85 -27.1 M7.8 -25.15 Q7.35 -25.9 6.4 -27.1 L6.15 -27.25 6.15 -27.3 6.1 -27.3 Q5.25 -27.85 5.05 -27.85 L4.4 -27.8 4.6 -27.5 Q5.75 -25.85 6.25 -24.3 6.45 -23.8 6.55 -23.25 7.0 -22.25 7.25 -21.4 L7.25 -21.3 7.15 -21.3 7.0 -21.2 6.8 -21.05 Q6.7 -21.05 6.65 -21.0 L6.6 -20.95 6.45 -20.85 Q6.4 -19.45 5.75 -17.45 L5.65 -17.1 Q5.2 -16.05 5.05 -15.45 L5.05 -15.35 5.0 -15.2 5.0 -14.7 5.2 -14.85 5.35 -15.0 5.45 -15.15 5.5 -15.1 5.5 -15.15 6.6 -16.25 Q7.45 -17.2 8.2 -17.7 L8.2 -19.4 8.25 -19.75 8.25 -21.45 8.2 -23.15 Q8.2 -23.45 8.25 -23.45 L8.3 -23.45 8.2 -24.2 8.05 -24.75 7.8 -25.15 M8.4 -23.85 L8.4 -23.85 M6.4 -23.65 L6.2 -24.35 Q5.7 -25.85 4.6 -27.3 L4.95 -26.5 4.9 -26.45 5.2 -25.85 Q5.7 -25.05 6.2 -24.0 L6.4 -23.65 M6.6 -22.35 L5.6 -24.55 4.9 -26.2 5.25 -23.45 5.65 -20.7 Q5.75 -20.75 6.0 -20.9 L6.3 -21.1 6.65 -21.2 6.65 -21.25 6.8 -21.25 7.05 -21.3 7.1 -21.3 7.0 -21.5 7.0 -21.6 Q7.0 -21.75 6.6 -22.35 M4.45 -27.1 L4.2 -27.7 3.95 -27.6 3.1 -27.2 3.0 -27.15 Q3.2 -26.95 3.3 -26.65 L3.4 -26.35 3.45 -26.25 3.55 -25.9 3.6 -25.6 3.5 -24.3 3.45 -22.9 3.35 -22.05 3.25 -20.45 3.25 -19.7 3.3 -19.65 3.45 -19.65 4.6 -19.85 5.6 -20.0 Q5.25 -21.35 5.0 -23.1 4.85 -24.35 4.65 -26.4 L4.65 -26.7 4.45 -27.1 M3.0 -26.85 L2.95 -27.0 2.9 -27.05 Q2.65 -26.9 2.6 -26.9 L2.55 -26.9 Q2.1 -25.9 1.5 -25.05 L1.35 -24.9 1.2 -24.7 1.2 -24.65 1.15 -24.65 Q0.55 -23.9 -0.25 -23.25 -1.15 -22.15 -2.2 -21.5 L-2.2 -21.45 -2.25 -21.3 -1.25 -21.9 -0.95 -22.1 Q-0.75 -22.2 0.05 -22.75 0.4 -23.05 1.1 -23.45 L1.3 -23.55 Q1.4 -23.75 1.7 -24.2 L2.25 -25.0 2.75 -25.85 Q3.0 -26.2 3.2 -26.25 L3.2 -26.3 3.15 -26.35 3.0 -26.85 M3.3 -25.55 L3.35 -25.6 3.3 -25.8 3.25 -26.05 3.1 -25.9 Q2.95 -25.7 2.95 -25.55 L2.95 -25.5 Q3.0 -25.45 3.0 -25.4 L3.05 -25.4 3.1 -24.65 Q3.1 -24.15 3.15 -23.75 L3.05 -23.75 3.1 -23.7 3.05 -23.7 Q2.8 -23.55 2.0 -23.2 0.8 -22.55 -0.2 -21.55 L-0.2 -21.5 0.05 -21.55 Q0.25 -21.55 0.35 -21.45 L0.35 -21.4 0.3 -21.35 0.1 -21.35 -0.15 -21.4 -0.2 -21.4 -0.15 -21.35 -0.2 -21.35 -0.2 -20.35 -0.05 -20.35 Q0.1 -20.35 0.25 -20.25 L0.35 -20.15 Q0.5 -20.0 0.5 -19.8 0.5 -19.65 0.4 -19.45 L0.35 -19.45 0.2 -19.25 0.25 -19.25 0.25 -19.3 0.45 -19.5 0.55 -19.7 Q0.6 -19.8 0.6 -19.9 L0.55 -20.0 Q0.5 -20.2 0.5 -20.4 0.5 -20.6 0.6 -20.85 L0.55 -20.85 0.65 -21.0 0.75 -21.1 1.1 -21.4 Q1.1 -21.6 1.4 -21.95 1.7 -22.4 2.0 -22.4 L1.55 -21.8 1.3 -21.45 1.25 -21.35 1.25 -21.3 1.25 -21.2 1.3 -21.2 1.25 -21.1 1.35 -20.85 1.35 -20.75 1.45 -20.4 1.45 -20.35 1.5 -20.25 Q1.6 -19.75 1.6 -19.55 1.6 -19.35 1.55 -19.15 L1.6 -19.15 1.7 -19.05 1.7 -19.0 1.75 -18.85 1.75 -18.7 1.65 -18.5 1.65 -18.45 1.6 -18.8 1.55 -19.1 Q1.4 -18.8 1.15 -18.35 L1.1 -18.25 1.1 -18.15 1.05 -18.1 0.65 -17.5 0.75 -17.55 0.8 -17.55 0.9 -17.6 0.9 -17.25 0.9 -17.2 Q1.1 -17.25 1.25 -17.35 L1.5 -17.5 1.45 -17.6 1.45 -17.65 1.5 -17.65 Q1.55 -17.6 1.6 -17.55 L1.6 -17.5 1.65 -17.55 1.75 -17.55 1.7 -17.65 Q1.7 -17.8 1.9 -18.5 L1.9 -18.6 2.0 -18.85 2.0 -18.9 2.05 -19.0 Q2.35 -20.2 2.65 -20.65 L2.65 -20.7 2.7 -20.7 2.7 -20.6 Q2.7 -20.4 2.35 -19.15 2.05 -17.9 1.9 -17.55 L1.85 -17.55 1.75 -17.45 1.25 -17.15 1.1 -17.1 1.05 -17.1 Q0.95 -17.1 0.85 -17.0 L0.8 -16.9 0.75 -16.9 0.7 -16.8 Q0.85 -16.75 0.9 -16.65 L0.95 -16.6 0.95 -16.55 1.0 -16.55 1.05 -16.6 1.15 -16.65 1.25 -16.75 1.3 -16.85 1.4 -16.95 1.65 -17.1 Q1.75 -17.15 1.8 -17.15 L1.95 -17.05 1.95 -16.95 2.1 -17.2 2.25 -17.75 Q2.25 -18.1 2.3 -18.3 L2.4 -18.6 2.35 -18.6 2.4 -18.85 2.45 -18.8 Q2.55 -19.1 2.6 -19.3 2.7 -19.5 2.8 -19.6 L2.85 -19.7 2.9 -19.8 2.9 -19.95 2.9 -20.15 3.0 -21.15 3.05 -21.9 3.1 -23.0 3.15 -23.5 3.25 -24.5 3.3 -24.8 3.3 -25.55 M2.7 -25.2 L2.35 -24.65 1.8 -23.85 2.85 -24.45 2.85 -24.6 2.7 -25.2 M0.65 -22.8 L1.1 -23.1 1.85 -23.4 Q2.3 -23.7 2.85 -23.85 L2.9 -23.95 2.9 -24.15 2.85 -24.4 2.35 -24.05 2.45 -24.1 Q2.15 -23.85 1.55 -23.45 L1.5 -23.4 1.4 -23.4 1.3 -23.3 0.85 -23.05 0.75 -23.0 -0.7 -22.1 -1.05 -21.9 Q-1.75 -21.5 -2.55 -21.05 L-3.15 -20.7 -4.15 -20.2 Q-6.25 -19.15 -6.65 -19.15 L-7.1 -19.15 -7.15 -19.2 -7.25 -18.9 -7.25 -18.85 -7.25 -18.75 -7.3 -18.75 -7.3 -18.7 -7.35 -18.5 Q-7.45 -18.45 -7.45 -18.3 L-7.45 -18.2 -7.5 -17.9 -7.6 -17.65 -7.65 -17.4 -7.65 -17.3 -7.7 -16.95 -7.75 -16.75 -7.75 -16.7 -7.55 -16.6 -7.2 -16.4 -7.05 -16.35 -6.95 -16.35 -6.9 -16.3 -6.5 -16.2 -5.95 -16.2 Q-4.85 -16.2 -3.75 -16.5 L-2.35 -17.15 -2.0 -17.35 -1.95 -17.35 -1.8 -17.5 -1.75 -17.5 -1.4 -17.7 -1.35 -17.75 -0.15 -18.55 0.95 -19.3 1.25 -19.65 1.3 -19.65 1.3 -19.7 Q1.3 -20.05 1.2 -20.5 L1.05 -21.0 1.0 -20.9 Q0.75 -20.55 0.75 -20.45 0.75 -20.4 0.8 -20.1 L0.9 -19.75 0.85 -19.55 0.8 -19.5 0.8 -19.45 0.65 -19.3 0.65 -19.25 Q0.55 -19.15 0.4 -19.1 L0.4 -19.2 0.2 -19.2 0.2 -19.15 Q0.2 -19.1 0.1 -19.05 L-0.45 -19.1 Q-0.7 -19.3 -0.7 -19.5 -0.7 -19.65 -0.55 -20.05 L-0.5 -20.25 -0.5 -20.45 -0.5 -21.55 -0.4 -21.55 -0.4 -21.7 -0.35 -21.7 -0.2 -21.85 Q-0.15 -22.1 0.25 -22.4 L0.45 -22.7 0.65 -22.8 M0.05 -24.3 L0.05 -24.3 M1.8 -21.9 L1.8 -21.9 M-5.75 -19.75 Q-4.3 -20.3 -2.9 -21.0 L-2.65 -21.2 -2.9 -21.05 Q-3.75 -20.65 -4.4 -20.4 -3.3 -20.85 -2.7 -21.2 L-2.6 -21.25 -2.45 -21.4 Q-1.7 -22.2 -1.25 -22.55 -0.85 -22.95 -0.5 -23.1 -0.45 -23.25 0.25 -24.0 L1.0 -24.75 0.75 -24.7 -0.15 -23.95 -0.15 -23.9 -0.2 -23.85 -0.3 -23.85 -1.35 -22.8 Q-1.95 -22.25 -2.55 -21.75 L-2.6 -21.75 -2.8 -21.65 Q-3.05 -21.4 -3.6 -21.2 L-3.8 -21.15 Q-4.15 -21.05 -4.5 -21.0 -5.25 -20.8 -5.6 -20.8 L-5.75 -20.8 -6.15 -20.75 -6.6 -20.75 -6.6 -20.8 -6.7 -20.8 -6.7 -20.7 -6.75 -20.7 Q-6.75 -20.5 -6.75 -20.2 -6.75 -20.05 -6.8 -19.8 -6.85 -19.45 -6.95 -19.3 -6.35 -19.5 -5.75 -19.75 M5.65 -19.9 L5.65 -19.9 5.4 -19.75 5.45 -19.4 Q5.45 -18.65 5.15 -16.95 5.05 -16.25 5.0 -15.75 L5.0 -15.8 5.65 -17.55 Q5.9 -18.25 6.05 -19.3 L6.25 -20.8 5.65 -20.55 5.75 -19.95 5.65 -19.9 M5.1 -18.8 L5.15 -19.0 5.25 -19.5 5.25 -19.65 5.15 -19.6 Q4.85 -19.4 4.45 -19.4 L4.3 -19.4 3.6 -19.35 3.15 -19.4 3.15 -19.1 3.3 -17.85 3.35 -17.5 3.35 -17.4 3.4 -16.95 3.45 -16.85 3.45 -16.55 3.55 -15.75 3.6 -15.6 3.65 -15.2 3.65 -15.0 3.7 -14.8 3.7 -10.85 Q3.7 -10.65 3.75 -10.5 L3.75 -10.45 3.8 -10.45 Q3.9 -10.3 4.1 -10.25 L4.35 -10.05 Q4.7 -9.65 4.95 -9.45 L5.1 -9.35 5.15 -9.25 5.5 -8.95 5.8 -8.5 5.95 -8.3 6.15 -8.3 6.15 -8.25 6.2 -8.15 6.2 -8.05 6.35 -8.15 Q6.3 -8.3 6.3 -8.45 L6.3 -8.9 Q6.3 -9.8 6.55 -12.5 L6.7 -14.4 6.7 -14.55 6.75 -15.5 6.7 -15.5 6.75 -15.75 6.75 -15.95 Q5.95 -15.2 5.0 -14.45 L5.0 -14.4 4.95 -14.35 4.8 -14.35 4.75 -14.3 4.75 -15.35 4.7 -15.2 4.7 -15.95 4.85 -17.45 5.1 -18.8 M2.8 -19.75 L2.8 -19.75 M0.05 -19.35 Q0.2 -19.45 0.3 -19.6 0.35 -19.7 0.35 -19.8 0.35 -19.95 0.25 -20.1 L0.2 -20.1 Q0.1 -20.2 -0.05 -20.2 L-0.2 -20.15 -0.25 -20.0 -0.25 -19.9 -0.3 -19.9 -0.35 -19.9 Q-0.4 -19.8 -0.4 -19.7 L-0.4 -19.45 -0.35 -19.45 -0.35 -19.35 -0.25 -19.35 0.05 -19.35 M0.1 -17.55 L0.15 -17.6 0.35 -17.85 0.45 -17.85 0.5 -17.9 0.6 -17.9 0.9 -18.45 1.1 -18.8 1.15 -19.1 Q0.85 -18.75 0.25 -18.35 L-0.55 -17.8 Q-0.65 -17.75 -0.75 -17.65 L-0.95 -17.55 -1.4 -17.2 -1.5 -17.25 -1.9 -17.05 Q-4.15 -15.6 -5.8 -15.6 L-5.95 -15.65 -5.9 -15.65 -5.3 -15.9 -5.05 -16.0 -5.4 -15.95 Q-6.3 -15.95 -6.9 -16.1 L-6.9 -15.8 -6.95 -15.4 -6.95 -15.2 Q-6.95 -14.85 -7.05 -14.25 L-7.1 -13.9 -7.1 -13.6 -7.15 -13.3 -7.2 -13.65 -7.2 -13.55 -7.25 -13.0 -7.25 -12.75 -7.05 -12.65 -7.0 -12.6 Q-6.95 -12.5 -6.55 -12.5 L-6.4 -12.4 -5.95 -12.2 -5.9 -12.15 -5.8 -12.2 -5.8 -12.1 -5.7 -12.05 -5.45 -12.0 -5.15 -11.9 Q-3.0 -11.2 -1.8 -10.9 L-0.8 -10.9 Q0.65 -10.95 1.85 -11.25 L2.0 -11.25 3.05 -11.55 3.15 -11.55 3.3 -11.65 3.35 -14.6 3.35 -14.95 3.15 -16.7 2.9 -19.0 2.65 -18.0 Q2.45 -17.2 2.05 -16.7 L2.05 -16.65 1.8 -16.3 Q1.55 -16.05 1.35 -15.95 L1.3 -15.95 0.8 -16.0 0.55 -16.4 Q-0.1 -16.45 -0.35 -16.6 L-0.5 -16.6 -0.55 -16.65 -0.55 -16.8 Q-0.55 -17.05 -0.35 -17.2 L-0.2 -17.25 -0.05 -17.4 0.05 -17.45 0.1 -17.55 M1.35 -16.25 L1.45 -16.3 Q1.45 -16.4 1.55 -16.5 L1.7 -16.55 1.85 -16.8 1.85 -16.9 1.7 -16.9 Q1.6 -16.85 1.45 -16.75 1.0 -16.45 1.0 -16.35 L1.0 -16.25 1.05 -16.25 1.15 -16.2 1.35 -16.25 M0.2 -16.8 L0.3 -16.8 0.65 -16.85 0.65 -16.9 0.7 -16.95 Q0.85 -17.05 0.85 -17.15 L0.8 -17.3 0.8 -17.4 0.75 -17.4 0.75 -17.45 0.6 -17.4 0.5 -17.4 0.45 -17.3 0.4 -17.35 0.35 -17.3 0.15 -17.2 -0.1 -17.1 -0.1 -16.95 -0.15 -16.95 -0.2 -16.9 -0.25 -16.85 -0.3 -16.8 -0.2 -16.8 -0.15 -16.75 -0.1 -16.75 0.2 -16.8 M8.25 -17.5 L8.25 -17.55 8.15 -17.4 7.0 -16.2 6.95 -16.15 6.75 -16.0 6.75 -15.95 6.8 -15.95 6.85 -15.85 6.85 -15.7 6.9 -15.35 6.9 -14.65 Q6.9 -13.8 6.6 -11.4 6.4 -9.45 6.45 -8.3 L6.95 -8.7 7.8 -9.4 7.85 -11.05 8.0 -12.8 8.05 -14.3 8.15 -15.35 8.15 -16.15 8.2 -16.65 8.25 -17.4 8.25 -17.5 M7.85 -8.9 L7.85 -8.9 M1.05 -10.5 L0.8 -10.45 0.45 -10.45 0.4 -10.2 0.35 -10.05 0.6 -7.8 0.85 -7.15 1.0 -7.15 Q1.05 -7.1 1.05 -7.0 L1.0 -6.8 1.15 -6.35 1.35 -5.8 1.95 -5.8 2.15 -5.85 Q2.15 -6.75 2.3 -8.0 L2.35 -8.15 Q2.5 -9.85 2.55 -10.8 L1.05 -10.5 M4.0 -2.9 L3.95 -3.0 3.95 -3.1 3.65 -3.5 Q3.25 -3.95 3.2 -4.25 L3.15 -4.3 3.2 -4.35 3.15 -4.5 3.15 -4.9 3.1 -5.2 3.15 -5.8 3.0 -5.9 2.95 -5.9 2.95 -5.85 2.85 -5.85 2.8 -5.8 2.5 -5.7 2.5 -5.65 0.95 -5.65 0.9 -5.6 0.9 -5.65 0.8 -5.65 0.8 -5.55 0.85 -5.4 0.9 -5.2 0.9 -4.85 Q0.85 -4.15 0.6 -2.8 L0.6 -2.5 1.05 -2.25 1.75 -1.75 2.35 -1.5 Q2.5 -1.95 3.45 -2.5 L3.7 -2.65 Q3.8 -2.55 3.9 -2.55 4.0 -2.55 4.05 -2.6 L4.1 -2.7 4.05 -2.8 4.1 -2.85 4.0 -2.9 M2.5 -6.0 L2.5 -6.0 M0.85 -5.85 L0.75 -5.85 0.75 -5.8 0.85 -5.8 0.85 -5.85 M1.9 -1.7 L2.0 -1.6 2.1 -1.55 1.9 -1.7 M5.0 -1.85 L4.5 -2.4 4.3 -2.65 Q3.6 -2.25 2.75 -1.35 3.9 -0.9 4.7 -0.7 L5.8 -0.55 6.15 -0.55 5.0 -1.85 M-6.05 -17.45 L-5.5 -17.35 -6.0 -17.4 -6.05 -17.45 M-0.4 -19.8 L-0.4 -19.85 -0.45 -19.6 -0.4 -19.8 M-5.2 -11.4 L-5.45 -11.5 -5.55 -11.5 Q-5.65 -11.5 -5.65 -11.4 -5.4 -8.3 -5.25 -8.3 L-5.2 -8.3 -5.1 -7.6 -5.05 -7.6 -5.05 -7.55 -4.75 -7.5 -4.3 -7.5 -3.75 -7.45 -3.7 -8.1 -3.7 -8.4 -3.65 -10.5 -3.65 -10.85 Q-4.1 -11.0 -4.55 -11.15 L-4.9 -11.3 -4.95 -11.3 -5.2 -11.4 M-5.2 -7.3 L-5.2 -7.3 M-5.35 -3.8 L-5.0 -3.45 -4.85 -3.5 -4.9 -3.45 Q-4.7 -3.25 -4.4 -3.25 L-4.25 -3.05 -3.15 -3.4 Q-3.05 -3.5 -3.0 -3.65 L-3.0 -3.8 Q-2.95 -3.8 -2.9 -3.85 L-2.95 -4.35 -2.95 -4.8 -3.05 -5.3 Q-3.25 -6.55 -3.25 -6.85 L-3.25 -6.95 -3.15 -6.9 -3.15 -7.05 -3.2 -7.1 -3.5 -7.1 -3.85 -7.05 Q-4.05 -7.0 -4.15 -6.9 L-4.25 -6.9 -4.65 -6.9 -5.15 -6.95 -5.2 -7.0 -5.2 -6.65 -5.15 -5.75 -5.0 -5.3 -5.05 -5.25 -5.1 -5.3 Q-5.5 -4.95 -6.2 -4.5 L-6.3 -4.4 -5.95 -4.2 -5.75 -4.1 -5.35 -3.8 M-6.25 -11.75 L-6.2 -11.8 -6.25 -11.8 -6.25 -11.75 M-6.2 -3.95 L-6.5 -4.2 Q-7.15 -3.65 -7.4 -3.6 L-7.65 -3.4 -7.9 -3.25 Q-8.4 -2.9 -8.4 -2.75 -8.4 -2.65 -8.35 -2.6 L-8.25 -2.55 -7.75 -2.55 -5.75 -2.9 -5.5 -3.0 -5.45 -3.0 Q-5.3 -3.0 -5.2 -3.1 L-5.1 -3.2 Q-5.15 -3.4 -5.9 -3.8 L-6.2 -3.95 M-2.9 -3.8 L-2.9 -3.8" fill="#101010" fill-rule="evenodd" stroke="none"/>
  </g>
</svg>
