<?xml version="1.0" encoding="UTF-8" standalone="no"?>
<svg xmlns:ffdec="https://www.free-decompiler.com/flash" xmlns:xlink="http://www.w3.org/1999/xlink" ffdec:objectType="shape" height="20.9px" width="15.3px" xmlns="http://www.w3.org/2000/svg">
  <g transform="matrix(1.0, 0.0, 0.0, 1.0, 7.65, 20.9)">
    <path d="M4.45 -20.9 L4.55 -20.8 4.45 -20.85 4.45 -20.9" fill="#fad8b6" fill-rule="evenodd" stroke="none"/>
    <path d="M-7.5 -9.45 L-7.4 -9.5 Q-7.35 -10.6 -6.8 -12.1 -6.55 -12.75 -6.1 -13.65 -5.85 -13.9 -5.55 -14.0 -5.15 -14.4 -4.85 -14.85 L-4.75 -14.9 Q-5.0 -14.2 -5.6 -11.35 -6.0 -9.45 -6.1 -8.55 -5.95 -9.45 -5.55 -10.95 L-5.25 -11.9 Q-4.7 -14.6 -4.7 -14.85 L-4.7 -14.9 Q-4.55 -15.05 -4.4 -15.4 L-4.35 -15.4 Q-4.25 -15.4 -4.2 -15.45 L-4.15 -15.5 -4.1 -15.45 -4.05 -15.35 -3.95 -15.3 -3.95 -14.15 Q-3.8 -14.0 -3.8 -13.8 -3.8 -13.65 -4.05 -12.75 L-4.3 -10.4 -4.3 -10.15 -4.55 -10.2 -5.5 -6.8 Q-5.9 -5.35 -6.05 -4.3 L-6.05 -4.15 Q-6.0 -3.9 -6.1 -3.7 L-6.1 -3.05 -6.1 -2.85 -6.05 -2.85 -5.95 -3.0 -5.8 -3.1 -5.6 -3.25 -5.3 -3.45 -4.15 -5.5 -4.1 -5.55 -4.05 -5.7 -3.6 -6.5 -3.5 -6.65 -3.4 -6.85 Q-3.35 -6.9 -3.35 -7.0 L-3.2 -7.3 -2.25 -10.65 -1.6 -12.9 -1.4 -13.45 -1.35 -13.55 -0.9 -14.7 -0.95 -14.75 -0.6 -15.2 -0.35 -15.6 -0.35 -15.75 Q0.15 -15.1 0.65 -14.9 1.0 -15.0 1.35 -14.8 L2.05 -14.05 2.45 -13.6 2.6 -13.35 2.7 -13.25 2.8 -13.1 2.9 -12.9 3.05 -12.7 3.65 -11.75 4.1 -10.9 Q3.05 -11.7 2.7 -11.75 1.95 -12.1 1.5 -11.35 1.1 -10.35 0.85 -10.0 0.65 -9.7 0.3 -8.9 L0.1 -8.55 0.15 -10.8 Q0.15 -13.25 0.1 -13.8 0.05 -14.9 -0.2 -14.35 L-0.2 -15.15 -0.45 -13.2 -0.45 -13.35 -0.6 -12.65 -0.9 -10.1 Q-1.15 -7.85 -1.15 -7.1 L-1.15 -6.95 -1.1 -6.6 -1.15 -6.25 -1.85 -4.3 Q-3.0 -1.05 -3.1 -0.45 L-3.2 -0.45 -4.7 -0.5 -5.95 -0.65 -6.25 -0.75 Q-6.4 -0.85 -6.7 -0.95 L-7.0 -1.05 -7.05 -1.3 -7.05 -1.35 Q-7.0 -1.45 -7.0 -1.65 -7.0 -1.95 -7.15 -3.45 -7.3 -5.0 -7.3 -5.55 -7.3 -7.2 -6.7 -9.15 L-6.35 -10.4 Q-6.15 -10.95 -6.15 -11.1 L-6.15 -11.25 -6.2 -11.3 -6.8 -9.7 Q-7.3 -9.45 -7.5 -8.6 L-7.55 -8.45 -7.55 -8.55 -7.5 -9.45 M-7.55 -6.3 L-7.55 -6.0 -7.6 -6.0 -7.65 -6.75 -7.65 -6.7 -7.55 -6.3 M-5.7 -0.25 Q-4.7 -0.05 -3.2 -0.05 L-3.1 -0.05 -3.05 0.0 -2.4 -0.05 -2.3 -0.05 -3.55 0.0 -5.0 -0.05 Q-5.35 -0.15 -5.7 -0.25 M7.45 -2.5 L7.5 -2.65 7.5 -2.55 7.45 -2.5" fill="#c07847" fill-rule="evenodd" stroke="none"/>
    <path d="M-4.3 -10.15 Q-4.6 -7.35 -4.6 -6.1 L-4.6 -5.85 Q-4.6 -5.8 -4.5 -5.7 L-4.6 -5.55 Q-5.5 -3.8 -5.55 -3.35 L-5.6 -3.25 -5.8 -3.1 -6.1 -3.05 -6.1 -3.7 Q-6.0 -3.9 -6.05 -4.15 L-6.05 -4.3 Q-5.9 -5.35 -5.5 -6.8 L-4.55 -10.2 -4.3 -10.15 M4.1 -10.9 L4.2 -10.65 4.4 -10.35 4.35 -10.35 4.45 -10.25 4.55 -10.1 Q4.75 -9.8 4.9 -9.65 L4.75 -9.75 4.6 -9.8 5.05 -9.5 5.3 -9.2 6.15 -8.25 Q6.9 -7.25 7.15 -6.6 L7.25 -6.15 7.25 -5.4 Q7.15 -4.8 7.1 -4.05 L7.1 -2.9 7.0 -2.3 6.95 -2.35 Q5.85 -1.6 4.5 -1.2 2.0 -0.45 -3.1 -0.45 -3.0 -1.05 -1.85 -4.3 L-1.15 -6.25 -1.15 -6.15 -1.0 -6.2 -0.95 -6.75 -0.95 -7.75 Q-0.9 -9.0 -0.55 -11.3 -0.25 -13.15 -0.2 -14.35 0.05 -14.9 0.1 -13.8 0.15 -13.25 0.15 -10.8 L0.1 -8.55 0.3 -8.9 Q0.65 -9.7 0.85 -10.0 1.1 -10.35 1.5 -11.35 1.95 -12.1 2.7 -11.75 3.05 -11.7 4.1 -10.9 M-6.8 -9.7 L-6.9 -9.4 -7.05 -8.9 -7.05 -8.85 Q-7.1 -8.35 -7.25 -7.45 L-7.45 -6.45 -7.55 -6.45 -7.55 -6.3 -7.65 -6.7 -7.65 -6.75 -7.65 -6.8 Q-7.65 -7.3 -7.5 -8.1 L-7.55 -8.1 -7.55 -8.45 -7.5 -8.6 Q-7.3 -9.45 -6.8 -9.7 M-3.1 -0.05 Q-2.4 -0.05 -1.75 -0.1 L-2.3 -0.05 -2.4 -0.05 -3.05 0.0 -3.1 -0.05 M5.4 -1.05 L5.75 -1.15 5.6 -1.05 5.4 -1.05 M1.5 -9.0 L1.5 -9.0 M-0.45 -13.2 L-0.65 -11.75 Q-1.05 -8.65 -1.05 -8.05 L-1.05 -7.7 -1.1 -6.9 -1.1 -6.6 -1.15 -6.95 -1.15 -7.1 Q-1.15 -7.85 -0.9 -10.1 L-0.6 -12.65 -0.45 -13.35 -0.45 -13.2 M-0.4 -6.7 L-0.3 -6.8 -0.4 -6.8 Q-0.4 -6.75 -0.4 -6.8 L-0.4 -6.7" fill="#993820" fill-rule="evenodd" stroke="none"/>
    <path d="M-3.4 -15.5 L-3.05 -15.85 Q-2.65 -16.05 -2.05 -16.3 -0.7 -16.8 -0.7 -16.25 L-0.7 -16.15 Q-0.9 -15.9 -1.15 -15.65 -1.3 -15.5 -1.45 -15.4 L-1.75 -15.25 -1.9 -15.15 Q-2.3 -14.9 -2.95 -14.9 -3.4 -14.9 -3.5 -15.15 L-3.55 -15.25 -3.4 -15.5 M-1.75 -14.9 Q-1.2 -15.15 -0.9 -15.35 L-0.8 -15.4 -0.95 -15.25 Q-1.4 -14.65 -1.4 -14.5 L-1.5 -14.25 -1.45 -14.2 Q-1.45 -14.05 -1.65 -13.85 L-1.7 -13.65 -1.75 -13.7 -1.7 -13.65 Q-1.65 -13.75 -1.65 -14.2 -1.65 -14.65 -1.75 -14.9 M-4.25 -7.6 L-3.4 -7.95 -3.45 -7.6 -3.55 -7.35 -3.6 -7.2 Q-3.85 -6.85 -4.25 -6.2 L-4.3 -6.6 -4.25 -7.6" fill="#393441" fill-rule="evenodd" stroke="none"/>
    <path d="M-1.75 -13.7 L-1.8 -13.7 Q-2.0 -13.55 -2.1 -13.55 L-2.15 -13.5 -2.4 -13.4 -2.6 -13.35 -3.15 -13.35 -3.1 -13.4 -3.4 -13.7 -3.4 -13.75 -3.6 -14.0 -3.55 -14.2 -3.6 -14.1 -3.7 -14.35 -3.7 -14.85 Q-3.65 -14.75 -3.5 -14.65 L-3.45 -14.6 -3.35 -14.55 -2.55 -14.55 -1.75 -14.9 Q-1.65 -14.65 -1.65 -14.2 -1.65 -13.75 -1.7 -13.65 L-1.75 -13.7 M-4.25 -7.6 L-4.2 -7.95 -4.0 -10.0 Q-3.85 -11.15 -3.8 -12.0 L-3.7 -13.0 -3.7 -13.1 -3.65 -13.5 -3.5 -13.35 -3.35 -13.1 -2.75 -13.05 -2.0 -13.1 -1.95 -13.1 -1.9 -13.15 -2.0 -12.8 -2.55 -10.75 Q-3.15 -8.95 -3.4 -7.95 L-4.25 -7.6" fill="#52495a" fill-rule="evenodd" stroke="none"/>
    <path d="M-7.5 -9.45 L-7.55 -9.45 -7.55 -9.75 Q-7.55 -10.75 -6.9 -12.4 -6.25 -14.0 -5.6 -14.65 L-5.75 -14.3 Q-5.6 -14.5 -5.6 -14.6 -4.95 -15.2 -4.8 -15.45 L-4.8 -15.5 -4.75 -15.65 Q-4.6 -15.8 -4.45 -15.8 L-4.2 -15.75 -3.9 -15.75 -3.5 -16.05 Q-2.9 -16.45 -2.2 -16.7 -0.3 -17.35 -0.3 -16.25 L-0.3 -16.05 Q-0.25 -16.0 -0.2 -15.95 -0.15 -15.8 0.2 -15.6 0.7 -15.3 1.45 -15.25 L1.55 -15.25 2.55 -14.3 3.0 -13.85 3.1 -13.7 3.5 -12.9 4.1 -12.0 4.55 -11.15 Q4.8 -10.6 5.1 -10.2 5.4 -10.0 5.8 -9.6 6.45 -8.95 7.0 -8.05 7.5 -7.35 7.6 -6.6 L7.65 -5.45 7.65 -4.45 Q7.65 -3.85 7.55 -3.5 7.5 -3.25 7.5 -2.7 L7.5 -2.65 7.45 -2.5 7.4 -2.45 Q6.7 -1.65 5.75 -1.15 L5.4 -1.05 Q4.65 -0.8 3.65 -0.65 1.15 -0.2 -1.75 -0.1 -2.4 -0.05 -3.1 -0.05 L-3.2 -0.05 Q-4.7 -0.05 -5.7 -0.25 L-6.05 -0.35 -6.2 -0.35 Q-6.4 -0.4 -6.7 -0.5 -6.95 -0.6 -7.1 -0.7 L-7.25 -1.1 -7.35 -1.9 -7.4 -1.9 -7.5 -3.2 Q-7.6 -4.15 -7.6 -4.8 L-7.55 -5.1 -7.55 -6.0 -7.55 -6.3 -7.55 -6.45 -7.45 -6.45 -7.25 -7.45 Q-7.1 -8.35 -7.05 -8.85 L-7.05 -8.9 -6.9 -9.4 -6.8 -9.7 -6.2 -11.3 -6.15 -11.25 -6.15 -11.1 Q-6.15 -10.95 -6.35 -10.4 L-6.7 -9.15 Q-7.3 -7.2 -7.3 -5.55 -7.3 -5.0 -7.15 -3.45 -7.0 -1.95 -7.0 -1.65 -7.0 -1.45 -7.05 -1.35 L-7.05 -1.3 -7.0 -1.05 -6.7 -0.95 Q-6.4 -0.85 -6.25 -0.75 L-5.95 -0.65 -4.7 -0.5 -3.2 -0.45 -3.1 -0.45 Q2.0 -0.45 4.5 -1.2 5.85 -1.6 6.95 -2.35 L7.0 -2.3 7.1 -2.9 7.1 -4.05 Q7.15 -4.8 7.25 -5.4 L7.25 -6.15 7.15 -6.6 Q6.9 -7.25 6.15 -8.25 L5.3 -9.2 5.05 -9.5 4.6 -9.8 4.75 -9.75 4.9 -9.65 Q4.75 -9.8 4.55 -10.1 L4.45 -10.25 4.35 -10.35 4.4 -10.35 4.2 -10.65 4.1 -10.9 3.65 -11.75 3.05 -12.7 2.9 -12.9 2.8 -13.1 2.7 -13.25 2.6 -13.35 2.45 -13.6 2.05 -14.05 1.35 -14.8 Q1.0 -15.0 0.65 -14.9 0.15 -15.1 -0.35 -15.75 L-0.35 -15.6 -0.6 -15.2 -0.95 -14.75 -0.9 -14.7 -1.35 -13.55 -1.4 -13.45 -1.6 -12.9 -2.25 -10.65 -3.2 -7.3 -3.35 -7.0 Q-3.35 -6.9 -3.4 -6.85 L-3.5 -6.65 -3.6 -6.5 -4.05 -5.7 -4.1 -5.55 -4.15 -5.5 -5.3 -3.45 -5.6 -3.25 -5.55 -3.35 Q-5.5 -3.8 -4.6 -5.55 L-4.5 -5.7 Q-4.6 -5.8 -4.6 -5.85 L-4.6 -6.1 Q-4.6 -7.35 -4.3 -10.15 L-4.3 -10.4 -4.05 -12.75 Q-3.8 -13.65 -3.8 -13.8 -3.8 -14.0 -3.95 -14.15 L-3.95 -15.3 -4.05 -15.35 -4.1 -15.45 -4.15 -15.5 -4.2 -15.45 Q-4.25 -15.4 -4.35 -15.4 L-4.4 -15.4 Q-4.55 -15.05 -4.7 -14.9 L-4.7 -14.85 Q-4.7 -14.6 -5.25 -11.9 L-5.55 -10.95 Q-5.95 -9.45 -6.1 -8.55 -6.0 -9.45 -5.6 -11.35 -5.0 -14.2 -4.75 -14.9 L-4.85 -14.85 Q-5.15 -14.4 -5.55 -14.0 -5.85 -13.9 -6.1 -13.65 -6.55 -12.75 -6.8 -12.1 -7.35 -10.6 -7.4 -9.5 L-7.5 -9.45 M-6.1 -13.65 L-6.1 -13.65 M-0.2 -14.35 Q-0.25 -13.15 -0.55 -11.3 -0.9 -9.0 -0.95 -7.75 L-0.95 -6.75 -1.0 -6.2 -1.15 -6.15 -1.15 -6.25 -1.1 -6.6 -1.1 -6.9 -1.05 -7.7 -1.05 -8.05 Q-1.05 -8.65 -0.65 -11.75 L-0.45 -13.2 -0.2 -15.15 -0.2 -14.35 M1.5 -9.0 L1.5 -9.0 M-3.4 -15.5 L-3.55 -15.25 -3.5 -15.15 Q-3.4 -14.9 -2.95 -14.9 -2.3 -14.9 -1.9 -15.15 L-1.75 -15.25 -1.45 -15.4 Q-1.3 -15.5 -1.15 -15.65 -0.9 -15.9 -0.7 -16.15 L-0.7 -16.25 Q-0.7 -16.8 -2.05 -16.3 -2.65 -16.05 -3.05 -15.85 L-3.4 -15.5 M-1.75 -14.9 L-2.55 -14.55 -3.35 -14.55 -3.45 -14.6 -3.5 -14.65 Q-3.65 -14.75 -3.7 -14.85 L-3.7 -14.35 -3.6 -14.1 -3.55 -14.2 -3.6 -14.0 -3.4 -13.75 -3.4 -13.7 -3.1 -13.4 -3.15 -13.35 -2.6 -13.35 -2.4 -13.4 -2.15 -13.5 -2.1 -13.55 Q-2.0 -13.55 -1.8 -13.7 L-1.75 -13.7 -1.7 -13.65 -1.65 -13.85 Q-1.45 -14.05 -1.45 -14.2 L-1.5 -14.25 -1.4 -14.5 Q-1.4 -14.65 -0.95 -15.25 L-0.8 -15.4 -0.9 -15.35 Q-1.2 -15.15 -1.75 -14.9 M-3.4 -7.95 Q-3.15 -8.95 -2.55 -10.75 L-2.0 -12.8 -1.9 -13.15 -1.95 -13.1 -2.0 -13.1 -2.75 -13.05 -3.35 -13.1 -3.5 -13.35 -3.65 -13.5 -3.7 -13.1 -3.7 -13.0 -3.8 -12.0 Q-3.85 -11.15 -4.0 -10.0 L-4.2 -7.95 -4.25 -7.6 -4.3 -6.6 -4.25 -6.2 Q-3.85 -6.85 -3.6 -7.2 L-3.55 -7.35 -3.45 -7.6 -3.4 -7.95 M-6.05 -2.85 L-6.1 -2.85 -6.1 -3.05 -5.8 -3.1 -5.95 -3.0 -6.05 -2.85 M-0.4 -6.7 L-0.4 -6.8 Q-0.4 -6.75 -0.4 -6.8 L-0.3 -6.8 -0.4 -6.7 M-3.5 -6.85 L-3.5 -6.85" fill="#101010" fill-rule="evenodd" stroke="none"/>
  </g>
</svg>
