<?xml version="1.0" encoding="UTF-8" standalone="no"?>
<svg xmlns:ffdec="https://www.free-decompiler.com/flash" xmlns:xlink="http://www.w3.org/1999/xlink" ffdec:objectType="shape" height="12.0px" width="16.5px" xmlns="http://www.w3.org/2000/svg">
  <g transform="matrix(1.0, 0.0, 0.0, 1.0, 8.25, 12.0)">
    <path d="M6.6 -11.9 L6.85 -11.7 Q7.1 -11.45 7.35 -11.1 7.55 -10.8 7.6 -10.7 L7.85 -8.7 7.85 -7.55 7.8 -7.65 Q7.35 -8.4 6.1 -7.45 L5.85 -7.2 Q5.45 -6.9 4.85 -6.45 3.95 -5.75 3.45 -5.25 L3.35 -5.25 2.9 -4.65 2.2 -4.05 1.7 -3.6 Q1.75 -3.9 2.05 -4.5 L2.2 -4.7 2.2 -4.9 2.7 -5.85 Q3.0 -6.4 3.1 -6.9 L3.15 -7.1 3.15 -7.3 3.2 -7.55 2.85 -7.1 2.7 -6.9 2.2 -6.2 1.65 -5.35 Q1.4 -4.8 0.75 -3.9 L0.4 -3.25 0.2 -2.25 Q-0.1 -0.7 -0.3 -0.6 L-0.6 -0.65 Q-0.7 -0.75 -0.75 -0.85 L-0.75 -1.15 Q-0.75 -1.7 -0.65 -2.35 L-0.65 -2.45 -0.7 -3.85 -0.7 -5.0 Q-0.8 -5.55 -0.8 -6.65 L-0.75 -7.6 -0.75 -7.7 Q-0.6 -9.0 -0.55 -9.55 -0.1 -9.1 0.9 -9.0 L1.3 -8.95 1.5 -8.95 2.0 -9.0 2.15 -9.0 2.45 -9.05 3.2 -9.35 3.5 -9.5 4.1 -9.7 4.5 -10.0 4.55 -9.95 4.8 -10.15 Q5.25 -10.5 5.7 -10.95 L6.05 -11.25 6.05 -11.35 Q6.25 -11.45 6.6 -11.9 M7.6 -6.95 L7.55 -6.95 7.6 -7.0 7.6 -6.95" fill="#c07847" fill-rule="evenodd" stroke="none"/>
    <path d="M7.85 -7.55 L7.9 -7.5 7.95 -7.5 7.95 -7.35 Q8.05 -7.0 8.1 -6.45 L8.1 -6.25 8.15 -6.2 Q8.25 -5.25 8.25 -4.8 L8.25 -4.65 8.2 -3.7 Q8.15 -3.4 8.0 -3.15 L7.9 -3.0 7.85 -2.95 Q7.5 -2.5 6.6 -2.0 L6.4 -1.85 Q4.85 -0.9 2.55 -0.35 L1.1 -0.4 0.45 -0.45 0.05 -0.45 0.0 -0.5 -0.3 -0.6 Q-0.1 -0.7 0.2 -2.25 L0.4 -3.25 0.75 -3.9 Q1.4 -4.8 1.65 -5.35 L2.2 -6.2 2.7 -6.9 2.85 -7.1 3.2 -7.55 3.15 -7.3 3.15 -7.1 3.1 -6.9 Q3.0 -6.4 2.7 -5.85 L2.2 -4.9 2.2 -4.7 2.05 -4.5 Q1.75 -3.9 1.7 -3.6 L2.2 -4.05 2.9 -4.65 3.35 -5.25 3.45 -5.25 Q3.95 -5.75 4.85 -6.45 5.45 -6.9 5.85 -7.2 L6.1 -7.45 Q7.35 -8.4 7.8 -7.65 L7.85 -7.55 M4.5 -0.7 L4.3 -0.65 4.1 -0.55 4.5 -0.7 M7.6 -6.95 L7.6 -7.0 7.55 -6.95 7.6 -6.95" fill="#993820" fill-rule="evenodd" stroke="none"/>
    <path d="M-6.15 -10.35 L-5.9 -10.9 -5.65 -11.5 -4.4 -11.5 Q-4.15 -11.55 -3.95 -11.6 -3.75 -11.45 -3.15 -11.2 L-2.15 -10.85 Q-2.05 -10.8 -1.5 -10.55 -1.9 -10.6 -2.4 -10.35 -3.1 -9.95 -3.1 -9.55 L-3.1 -9.4 Q-3.25 -9.35 -3.55 -9.0 -3.65 -9.1 -3.75 -9.05 L-3.65 -8.8 Q-3.9 -8.5 -4.1 -8.1 -4.35 -7.7 -4.35 -7.55 L-4.35 -7.35 Q-4.5 -7.2 -4.5 -7.0 L-4.55 -6.85 -4.45 -6.65 -4.45 -6.55 Q-4.35 -6.35 -4.3 -6.25 L-4.3 -6.2 -4.35 -6.2 -4.35 -6.15 -4.5 -6.25 -4.5 -6.15 -4.6 -6.25 -4.55 -6.25 -4.75 -6.45 -4.85 -6.8 -4.75 -7.05 -4.35 -7.8 Q-3.85 -8.75 -3.85 -9.15 L-3.85 -9.6 Q-3.85 -10.0 -3.95 -10.35 L-3.9 -10.35 -3.95 -10.45 -4.05 -10.7 -4.45 -10.7 -4.85 -10.65 -5.4 -10.65 -5.5 -10.6 -5.5 -10.55 Q-5.6 -10.45 -5.65 -10.25 L-5.65 -10.2 -5.75 -9.95 -5.8 -9.8 -5.75 -9.95 -5.8 -10.1 -5.85 -10.2 Q-5.9 -10.25 -6.25 -10.05 -6.5 -9.85 -6.6 -9.7 L-6.45 -9.9 -6.45 -9.95 -6.4 -9.95 -6.4 -10.0 -6.3 -10.0 -6.2 -10.1 -6.15 -10.1 -5.85 -10.25 -5.95 -10.25 -5.9 -10.3 -6.15 -10.3 -6.15 -10.35 M-0.95 -10.25 L-0.9 -10.25 -0.9 -10.2 -0.95 -10.25 M-3.1 -8.55 L-3.25 -8.4 -3.25 -8.45 -3.1 -8.55 M-3.45 -8.4 L-3.35 -8.3 -3.65 -8.1 -3.4 -8.35 -3.45 -8.4 M-7.45 -7.25 L-7.6 -6.6 -7.65 -6.6 -7.6 -6.7 -7.6 -6.95 -7.45 -7.25 M-6.6 -9.7 Q-6.5 -9.65 -6.45 -9.6 L-6.2 -9.7 Q-6.15 -9.65 -6.05 -9.3 -6.0 -8.95 -6.0 -8.9 L-6.0 -8.8 -5.95 -8.85 -5.9 -8.85 -5.9 -7.9 -5.95 -7.9 -5.95 -7.85 -6.3 -7.8 -6.45 -7.65 -6.55 -7.95 -6.6 -8.7 -6.6 -9.7 M-5.85 -9.25 L-5.8 -9.5 -5.8 -9.35 -5.85 -9.25 M-6.15 -6.7 L-6.2 -6.85 -6.0 -6.85 Q-5.85 -6.85 -5.7 -7.0 L-5.65 -6.95 -5.65 -6.75 -5.7 -6.7 -5.8 -6.55 -6.0 -6.55 Q-6.05 -6.6 -6.15 -6.7 M-4.55 -6.25 L-4.55 -6.25" fill="#fad8b6" fill-rule="evenodd" stroke="none"/>
    <path d="M-6.3 -10.0 L-6.4 -10.0 -6.3 -10.0 M-6.45 -9.9 L-6.6 -9.7 Q-6.5 -9.85 -6.25 -10.05 -5.9 -10.25 -5.85 -10.2 L-5.8 -10.1 -5.75 -9.95 -5.8 -9.8 -5.8 -9.5 -5.85 -9.25 -5.85 -8.85 -5.9 -8.85 -5.95 -8.85 -6.0 -8.8 -6.0 -8.9 Q-6.0 -8.95 -6.05 -9.3 -6.15 -9.65 -6.2 -9.7 L-6.45 -9.6 Q-6.5 -9.65 -6.6 -9.7 L-6.6 -9.8 -6.45 -9.95 -6.45 -9.9 M-3.55 -9.0 Q-3.25 -9.35 -3.1 -9.4 L-3.1 -9.55 Q-3.1 -9.95 -2.4 -10.35 -1.9 -10.6 -1.5 -10.55 L-0.95 -10.25 -0.9 -10.2 -0.85 -10.0 -0.85 -9.95 -0.95 -9.05 -0.95 -8.8 -1.45 -9.0 -1.55 -9.1 -1.55 -9.15 -1.65 -9.2 -1.7 -9.1 -1.75 -9.15 -1.8 -9.15 -1.85 -9.2 -1.75 -9.25 Q-1.25 -9.5 -1.05 -9.85 L-1.15 -9.8 -1.15 -9.95 -1.2 -9.95 Q-1.4 -9.75 -1.65 -9.6 -2.15 -9.3 -2.6 -9.3 L-2.55 -9.25 -3.0 -9.25 -3.05 -9.35 -3.05 -9.25 -3.1 -9.1 -3.05 -9.05 -3.05 -8.8 Q-3.05 -8.7 -3.1 -8.55 L-3.25 -8.45 -3.3 -8.5 -3.4 -8.75 -3.4 -8.8 -3.55 -9.0 M-7.6 -6.95 L-7.6 -7.4 Q-7.65 -7.5 -7.8 -7.65 L-7.75 -7.7 -7.75 -8.2 Q-7.7 -8.35 -7.6 -8.4 L-7.7 -8.45 -7.35 -9.2 -7.15 -9.2 Q-7.1 -9.2 -7.1 -9.25 L-7.25 -9.3 -7.15 -9.5 -6.9 -9.9 Q-6.3 -10.85 -6.05 -11.35 L-5.95 -11.45 -5.9 -11.45 -6.15 -11.05 -6.35 -10.4 -6.45 -10.35 -6.45 -10.3 -6.75 -10.1 Q-6.85 -10.0 -6.85 -9.9 L-6.9 -9.9 -6.9 -9.25 -7.1 -8.95 -7.1 -8.85 -7.25 -8.4 -7.3 -8.4 -7.3 -8.25 -7.35 -8.15 -7.4 -8.0 -7.35 -7.95 -7.35 -7.65 -7.45 -7.35 -7.45 -7.25 -7.6 -6.95" fill="#eb9a49" fill-rule="evenodd" stroke="none"/>
    <path d="M-5.75 -7.85 L-5.75 -7.85 M-5.55 -7.2 L-5.5 -7.05 -5.5 -7.0 -5.55 -7.05 -5.55 -7.2" fill="#dec458" fill-rule="evenodd" stroke="none"/>
    <path d="M-6.15 -10.35 L-6.15 -10.3 -6.15 -10.35 M-4.35 -7.55 Q-4.35 -7.7 -4.1 -8.1 -3.9 -8.5 -3.65 -8.8 L-3.45 -8.45 -3.45 -8.4 -3.4 -8.35 -3.65 -8.1 -3.65 -8.05 -3.7 -8.05 -3.65 -8.15 -3.85 -7.9 -3.95 -7.55 -4.35 -7.55 M-5.75 -7.25 L-5.7 -7.15 -5.7 -7.1 -5.8 -7.05 -5.75 -7.1 -5.75 -7.25 M-6.35 -7.0 L-6.4 -7.0 -6.4 -7.05 -6.35 -7.0 M-7.95 -6.7 L-8.05 -6.7 -8.05 -6.8 -7.95 -6.7" fill="#f1ae6b" fill-rule="evenodd" stroke="none"/>
    <path d="M-5.8 -7.05 L-5.85 -7.0 -5.85 -7.25 Q-5.8 -7.35 -5.85 -7.45 -5.85 -7.6 -6.0 -7.65 L-5.9 -7.7 -5.75 -7.4 -5.75 -7.25 -5.75 -7.1 -5.8 -7.05 M-6.25 -6.95 L-6.35 -7.0 -6.25 -6.95 M-6.4 -7.05 L-6.4 -7.2 -6.35 -7.3 -6.35 -7.0 -6.4 -7.05 M-3.75 -7.4 L-3.75 -7.3 -3.7 -7.3 Q-3.65 -7.25 -3.65 -7.15 L-3.65 -7.0 Q-3.65 -6.8 -3.7 -6.7 L-3.85 -6.4 -4.0 -6.35 -4.1 -6.4 -4.05 -6.5 -4.15 -6.5 -4.2 -6.55 -4.25 -6.55 -4.35 -6.65 -4.2 -6.65 Q-4.1 -6.65 -3.95 -6.9 -3.75 -7.15 -3.75 -7.35 L-3.75 -7.4 M-8.05 -6.8 L-8.0 -7.1 -8.0 -7.15 -7.85 -7.3 Q-7.7 -7.4 -7.7 -7.05 -7.7 -7.0 -7.75 -6.85 L-7.85 -6.7 -7.95 -6.7 -8.05 -6.8" fill="#e29c7e" fill-rule="evenodd" stroke="none"/>
    <path d="M-4.3 -6.25 Q-4.35 -6.35 -4.45 -6.55 L-4.45 -6.65 -4.35 -6.45 -4.25 -6.4 -4.25 -6.35 -4.3 -6.25 M-4.5 -7.0 Q-4.5 -7.2 -4.35 -7.35 L-4.35 -7.55 -3.95 -7.55 -4.0 -7.55 -3.95 -7.45 -4.05 -7.45 -4.05 -7.5 -4.2 -7.5 -4.25 -7.4 -4.4 -7.15 -4.5 -7.0" fill="#b87c63" fill-rule="evenodd" stroke="none"/>
    <path d="M-5.85 -7.0 Q-5.95 -6.9 -6.1 -6.9 L-6.15 -6.9 -6.25 -6.95 -6.35 -7.0 -6.35 -7.3 -6.3 -7.35 Q-6.3 -7.45 -6.2 -7.5 L-6.0 -7.65 Q-5.85 -7.6 -5.85 -7.45 -5.8 -7.35 -5.85 -7.25 L-5.85 -7.0 M-3.95 -7.45 L-3.95 -7.4 -3.9 -7.4 -3.9 -7.45 -3.85 -7.45 -3.8 -7.4 -3.75 -7.4 -3.75 -7.35 Q-3.75 -7.15 -3.95 -6.9 -4.1 -6.65 -4.2 -6.65 L-4.35 -6.65 -4.4 -6.7 -4.4 -6.85 Q-4.4 -6.95 -4.35 -7.05 L-4.3 -7.15 -4.1 -7.4 -4.05 -7.45 -3.95 -7.45" fill="#f7e0d7" fill-rule="evenodd" stroke="none"/>
    <path d="M-1.6 -7.3 L-1.6 -8.8 -0.95 -8.5 -0.9 -8.5 -0.9 -8.3 Q-0.9 -8.15 -1.0 -8.0 L-1.0 -6.85 Q-1.1 -5.65 -1.1 -4.1 L-1.1 -3.15 Q-1.2 -3.35 -1.25 -3.2 L-1.35 -4.1 -1.55 -5.45 -1.6 -6.25 -1.55 -6.6 -1.6 -7.3" fill="#6d2716" fill-rule="evenodd" stroke="none"/>
    <path d="M-4.8 -6.1 L-4.85 -6.1 -4.8 -6.1" fill="#e9d78d" fill-rule="evenodd" stroke="none"/>
    <path d="M-4.85 -6.1 L-5.1 -6.5 -5.1 -6.8 Q-5.15 -6.7 -5.15 -6.9 L-5.1 -7.0 -5.1 -7.05 -5.05 -7.05 -5.05 -7.1 -4.95 -7.25 Q-4.85 -7.6 -4.55 -8.1 L-4.2 -8.95 -4.1 -9.1 -4.1 -9.4 -4.3 -10.3 -4.45 -10.3 -5.35 -10.35 -5.35 -10.4 -5.5 -9.95 -5.6 -8.9 -5.65 -8.4 Q-5.65 -8.15 -5.5 -7.65 L-5.35 -7.05 -5.35 -7.0 Q-5.35 -6.75 -5.35 -6.7 L-5.5 -6.5 -5.6 -6.35 -5.7 -6.35 -5.75 -6.3 -5.85 -6.3 Q-5.85 -6.25 -5.9 -6.3 -5.95 -6.3 -6.05 -6.35 L-6.15 -6.35 -6.35 -6.6 -6.4 -6.8 -6.5 -6.95 -6.5 -7.05 -6.6 -7.6 -6.6 -7.65 Q-6.55 -7.85 -6.7 -7.95 L-6.8 -8.25 -6.8 -8.55 Q-6.8 -8.65 -6.95 -8.7 -7.1 -8.65 -7.1 -8.35 L-7.15 -8.0 -7.1 -7.65 -7.05 -7.45 -7.05 -7.25 -7.0 -6.65 -7.1 -6.4 Q-7.1 -6.3 -7.0 -6.15 -6.9 -6.0 -6.9 -5.9 -6.9 -5.75 -7.0 -5.7 L-7.25 -5.7 Q-7.7 -5.7 -7.9 -5.95 L-7.95 -6.25 -7.95 -6.3 Q-8.15 -6.45 -8.15 -6.55 L-8.25 -6.5 -8.2 -7.5 Q-8.2 -7.6 -8.25 -7.9 L-8.15 -8.15 -8.15 -8.3 -8.1 -8.3 -7.9 -8.8 -6.65 -11.3 Q-6.4 -11.6 -6.2 -11.75 -6.15 -11.8 -6.05 -11.85 L-5.95 -11.9 -5.9 -11.85 -4.85 -11.95 -3.75 -12.0 -3.35 -11.8 -2.85 -11.6 -2.8 -11.6 Q-1.35 -10.7 -0.55 -10.4 L-0.45 -10.25 Q-0.2 -9.9 0.15 -9.75 L0.2 -9.75 0.2 -9.65 0.15 -9.65 0.35 -9.5 0.45 -9.5 Q0.7 -9.35 1.45 -9.35 L2.5 -9.4 2.7 -9.45 2.7 -9.5 Q3.05 -9.55 3.3 -9.7 3.65 -9.85 3.8 -10.05 4.1 -10.15 4.5 -10.45 4.65 -10.7 5.2 -11.2 L5.85 -11.7 5.95 -11.8 Q6.25 -12.0 6.55 -11.95 L6.6 -11.9 Q6.25 -11.45 6.05 -11.35 L6.05 -11.25 5.7 -10.95 Q5.25 -10.5 4.8 -10.15 L4.55 -9.95 4.5 -10.0 4.1 -9.7 3.5 -9.5 3.2 -9.35 2.45 -9.05 2.15 -9.0 2.0 -9.0 1.5 -8.95 1.3 -8.95 0.9 -9.0 Q-0.1 -9.1 -0.55 -9.55 -0.6 -9.0 -0.75 -7.7 L-0.75 -7.6 -0.8 -6.65 Q-0.8 -5.55 -0.7 -5.0 L-0.7 -3.85 -0.65 -2.45 -0.65 -2.35 Q-0.75 -1.7 -0.75 -1.15 L-0.75 -0.85 Q-0.7 -0.75 -0.6 -0.65 L-0.3 -0.6 0.0 -0.5 0.05 -0.45 0.45 -0.45 1.1 -0.4 2.55 -0.35 Q4.85 -0.9 6.4 -1.85 L6.6 -2.0 Q7.5 -2.5 7.85 -2.95 L7.95 -3.05 7.9 -2.8 Q7.35 -2.2 6.5 -1.65 5.7 -1.15 4.65 -0.75 L4.5 -0.7 4.1 -0.55 3.85 -0.5 3.2 -0.3 Q3.05 -0.2 2.8 -0.1 L2.1 0.0 0.45 -0.1 Q-0.45 -0.15 -1.15 -0.35 -1.4 -1.4 -1.65 -3.25 -2.1 -6.2 -2.1 -7.9 L-2.1 -8.05 -2.15 -8.6 -2.15 -8.85 -2.55 -8.85 -2.55 -8.75 Q-2.8 -8.65 -3.1 -8.35 -3.4 -8.0 -3.4 -7.75 L-3.35 -7.65 -3.3 -7.5 Q-3.4 -7.3 -3.5 -7.0 -3.55 -6.6 -3.55 -6.15 L-3.55 -6.1 -3.65 -6.0 -3.85 -5.95 -3.8 -5.9 -3.85 -5.9 -4.2 -5.8 -4.3 -5.8 -4.8 -6.1 -4.85 -6.1 M-1.5 -10.55 Q-2.05 -10.8 -2.15 -10.85 L-3.15 -11.2 Q-3.75 -11.45 -3.95 -11.6 -4.15 -11.55 -4.4 -11.5 L-5.65 -11.5 -5.9 -10.9 -6.15 -10.35 -6.15 -10.3 -5.9 -10.3 -5.95 -10.25 -5.85 -10.25 -6.15 -10.1 -6.2 -10.1 -6.3 -10.0 -6.4 -10.0 -6.4 -9.95 -6.45 -9.95 -6.45 -9.9 -6.45 -9.95 -6.6 -9.8 -6.6 -9.7 -6.6 -8.7 -6.55 -7.95 -6.45 -7.65 -6.3 -7.8 -5.95 -7.85 -5.95 -7.9 -5.9 -7.9 -5.9 -8.85 -5.85 -8.85 -5.85 -9.25 -5.8 -9.35 -5.8 -9.5 -5.8 -9.8 -5.75 -9.95 -5.65 -10.2 -5.65 -10.25 Q-5.6 -10.45 -5.5 -10.55 L-5.5 -10.6 -5.4 -10.65 -4.85 -10.65 -4.45 -10.7 -4.05 -10.7 -3.95 -10.45 -3.9 -10.35 -3.95 -10.35 Q-3.85 -10.0 -3.85 -9.6 L-3.85 -9.15 Q-3.85 -8.75 -4.35 -7.8 L-4.75 -7.05 -4.85 -6.8 -4.75 -6.45 -4.55 -6.25 -4.6 -6.25 -4.5 -6.15 -4.5 -6.25 -4.35 -6.15 -4.35 -6.2 -4.3 -6.2 -4.3 -6.25 -4.25 -6.35 -4.25 -6.4 -4.35 -6.45 -4.45 -6.65 -4.55 -6.85 -4.5 -7.0 -4.4 -7.15 -4.25 -7.4 -4.2 -7.5 -4.05 -7.5 -4.05 -7.45 -4.1 -7.4 -4.3 -7.15 -4.35 -7.05 Q-4.4 -6.95 -4.4 -6.85 L-4.4 -6.7 -4.35 -6.65 -4.25 -6.55 -4.2 -6.55 -4.15 -6.5 -4.05 -6.5 -4.1 -6.4 -4.0 -6.35 -3.85 -6.4 -3.7 -6.7 Q-3.65 -6.8 -3.65 -7.0 L-3.65 -7.15 Q-3.65 -7.25 -3.7 -7.3 L-3.75 -7.3 -3.75 -7.4 -3.8 -7.4 -3.85 -7.45 -3.9 -7.45 -3.9 -7.4 -3.95 -7.4 -3.95 -7.45 -4.0 -7.55 -3.95 -7.55 -3.85 -7.9 -3.65 -8.15 -3.7 -8.05 -3.65 -8.05 -3.65 -8.1 -3.35 -8.3 -3.45 -8.4 -3.45 -8.45 -3.65 -8.8 -3.75 -9.05 Q-3.65 -9.1 -3.55 -9.0 L-3.4 -8.8 -3.4 -8.75 -3.3 -8.5 -3.25 -8.45 -3.25 -8.4 -3.1 -8.55 Q-3.05 -8.7 -3.05 -8.8 L-3.05 -9.05 -3.1 -9.1 -3.05 -9.25 -3.05 -9.35 -3.0 -9.25 -2.55 -9.25 -2.6 -9.3 Q-2.15 -9.3 -1.65 -9.6 -1.4 -9.75 -1.2 -9.95 L-1.15 -9.95 -1.15 -9.8 -1.05 -9.85 Q-1.25 -9.5 -1.75 -9.25 L-1.85 -9.2 -1.8 -9.15 -1.75 -9.15 -1.7 -9.1 -1.65 -9.2 -1.55 -9.15 -1.55 -9.1 -1.45 -9.0 -0.95 -8.8 -0.95 -9.05 -0.85 -9.95 -0.85 -10.0 -0.9 -10.2 -0.9 -10.25 -0.95 -10.25 -1.5 -10.55 M-2.95 -9.1 L-2.95 -9.1 M-5.75 -7.85 L-5.75 -7.85 M-5.8 -7.05 L-5.7 -7.1 -5.7 -7.15 -5.75 -7.25 -5.75 -7.4 -5.9 -7.7 -6.0 -7.65 -6.2 -7.5 Q-6.3 -7.45 -6.3 -7.35 L-6.35 -7.3 -6.4 -7.2 -6.4 -7.05 -6.4 -7.0 -6.35 -7.0 -6.25 -6.95 -6.15 -6.9 -6.1 -6.9 Q-5.95 -6.9 -5.85 -7.0 L-5.8 -7.05 M-5.55 -7.2 L-5.55 -7.05 -5.5 -7.0 -5.5 -7.05 -5.55 -7.2 M-3.7 -7.8 L-3.7 -7.8 M-3.65 -7.4 L-3.65 -7.4 M-1.6 -7.3 L-1.55 -6.6 -1.6 -6.25 -1.55 -5.45 -1.35 -4.1 -1.25 -3.2 Q-1.2 -3.35 -1.1 -3.15 L-1.1 -4.1 Q-1.1 -5.65 -1.0 -6.85 L-1.0 -8.0 Q-0.9 -8.15 -0.9 -8.3 L-0.9 -8.5 -0.95 -8.5 -1.6 -8.8 -1.6 -7.3 M-0.95 -8.7 L-0.95 -8.7 M-7.45 -7.25 L-7.45 -7.35 -7.35 -7.65 -7.35 -7.95 -7.4 -8.0 -7.35 -8.15 -7.3 -8.25 -7.3 -8.4 -7.25 -8.4 -7.1 -8.85 -7.1 -8.95 -6.9 -9.25 -6.9 -9.9 -6.85 -9.9 Q-6.85 -10.0 -6.75 -10.1 L-6.45 -10.3 -6.45 -10.35 -6.35 -10.4 -6.15 -11.05 -5.9 -11.45 -5.95 -11.45 -6.05 -11.35 Q-6.3 -10.85 -6.9 -9.9 L-7.15 -9.5 -7.25 -9.3 -7.1 -9.25 Q-7.1 -9.2 -7.15 -9.2 L-7.35 -9.2 -7.7 -8.45 -7.6 -8.4 Q-7.7 -8.35 -7.75 -8.2 L-7.75 -7.7 -7.8 -7.65 Q-7.65 -7.5 -7.6 -7.4 L-7.6 -6.95 -7.6 -6.7 -7.65 -6.6 -7.6 -6.6 -7.45 -7.25 M-7.9 -8.35 L-7.9 -8.4 -7.95 -8.3 -7.95 -8.25 -7.9 -8.25 -7.9 -8.35 M-7.95 -7.6 L-7.95 -7.6 M-7.95 -6.7 L-7.85 -6.7 -7.75 -6.85 Q-7.7 -7.0 -7.7 -7.05 -7.7 -7.4 -7.85 -7.3 L-8.0 -7.15 -8.0 -7.1 -8.05 -6.8 -8.05 -6.7 -7.95 -6.7 M-6.15 -6.7 Q-6.05 -6.6 -6.0 -6.55 L-5.8 -6.55 -5.7 -6.7 -5.65 -6.75 -5.65 -6.95 -5.7 -7.0 Q-5.85 -6.85 -6.0 -6.85 L-6.2 -6.85 -6.15 -6.7 M-4.55 -6.25 L-4.55 -6.25" fill="#101010" fill-rule="evenodd" stroke="none"/>
  </g>
</svg>
