<?xml version="1.0" encoding="UTF-8" standalone="no"?>
<svg xmlns:ffdec="https://www.free-decompiler.com/flash" xmlns:xlink="http://www.w3.org/1999/xlink" ffdec:objectType="shape" height="30.2px" width="4.0px" xmlns="http://www.w3.org/2000/svg">
  <g transform="matrix(1.0, 0.0, 0.0, 1.0, 2.0, 30.2)">
    <path d="M-0.3 -29.75 L-0.2 -29.75 -0.15 -29.85 -0.15 -29.8 0.75 -29.8 0.85 -29.7 0.85 -29.75 Q1.05 -29.65 1.1 -29.45 L1.1 -29.4 1.1 -29.15 Q1.1 -28.85 1.05 -28.75 L1.05 -28.7 Q1.0 -28.45 0.8 -28.25 0.65 -28.15 0.5 -28.1 L0.2 -28.1 Q0.0 -28.1 -0.15 -28.2 -0.25 -28.3 -0.35 -28.5 L-0.5 -28.7 -0.5 -29.1 Q-0.5 -29.4 -0.5 -29.5 -0.45 -29.65 -0.25 -29.7 L-0.25 -29.75 -0.3 -29.75" fill="#fef0cf" fill-rule="evenodd" stroke="none"/>
    <path d="M-0.3 -29.75 L-0.25 -29.75 -0.25 -29.7 Q-0.45 -29.65 -0.5 -29.5 -0.5 -29.4 -0.5 -29.1 L-0.5 -28.7 -0.35 -28.5 Q-0.25 -28.3 -0.15 -28.2 0.0 -28.1 0.2 -28.1 L0.5 -28.1 Q0.65 -28.15 0.8 -28.25 1.0 -28.45 1.05 -28.7 L1.05 -28.75 Q1.1 -28.85 1.1 -29.15 L1.1 -29.4 1.15 -29.4 Q1.35 -29.15 1.45 -28.85 1.55 -28.55 1.6 -28.2 L1.6 -28.15 1.6 -28.05 1.0 -27.4 Q0.65 -27.0 0.3 -26.85 L0.0 -26.8 Q-0.7 -26.8 -1.05 -27.4 L-1.3 -27.85 Q-1.4 -28.05 -1.5 -28.1 L-1.45 -28.75 -1.3 -29.15 Q-1.2 -29.3 -0.8 -29.6 L-0.55 -29.7 -0.5 -29.75 -0.45 -29.75 -0.3 -29.75" fill="#dec458" fill-rule="evenodd" stroke="none"/>
    <path d="M1.6 -28.15 L1.6 -28.05 1.6 -28.15" fill="#f1ae6b" fill-rule="evenodd" stroke="none"/>
    <path d="M1.6 -28.05 L1.65 -27.65 Q1.65 -27.35 1.45 -26.55 L1.45 -26.45 1.4 -26.35 1.35 -26.1 1.25 -25.95 1.2 -25.85 1.15 -25.8 Q0.8 -25.35 0.5 -25.35 L0.1 -25.35 0.0 -25.3 0.0 -25.35 -0.05 -25.35 -0.3 -25.3 -0.45 -25.3 -0.55 -25.3 -0.65 -25.35 -0.7 -25.4 -0.85 -25.5 Q-1.0 -25.5 -1.15 -25.6 -1.25 -25.85 -1.35 -26.25 -1.55 -27.0 -1.55 -27.4 L-1.5 -28.1 Q-1.4 -28.05 -1.3 -27.85 L-1.05 -27.4 Q-0.7 -26.8 0.0 -26.8 L0.3 -26.85 Q0.65 -27.0 1.0 -27.4 L1.6 -28.05 M-0.35 -26.0 L-0.35 -26.0" fill="#937331" fill-rule="evenodd" stroke="none"/>
    <path d="M1.25 -25.95 L1.25 -25.85 1.2 -25.85 1.25 -25.95" fill="#e29c7e" fill-rule="evenodd" stroke="none"/>
    <path d="M0.0 -25.3 L-0.3 -25.3 -0.05 -25.35 0.0 -25.35 0.0 -25.3 M-0.45 -25.3 L-0.55 -25.3 -0.45 -25.3" fill="#e9d78d" fill-rule="evenodd" stroke="none"/>
    <path d="M0.0 -24.8 Q0.25 -25.0 0.35 -25.05 L0.45 -25.1 0.5 -25.15 0.55 -25.15 0.65 -25.1 0.65 -25.2 0.85 -25.2 Q0.95 -25.2 1.0 -25.0 0.45 -24.6 0.0 -23.8 -0.2 -23.35 -0.45 -23.0 L-0.95 -22.5 -0.6 -22.5 Q0.0 -22.5 0.4 -23.25 0.55 -23.55 0.65 -23.65 0.8 -23.8 1.05 -23.75 L1.1 -23.3 1.05 -23.3 0.6 -22.6 Q0.25 -22.15 -0.4 -22.15 L-0.8 -22.2 -0.85 -22.2 -1.0 -22.45 -1.0 -22.5 -1.1 -22.7 -1.15 -22.75 -1.1 -22.8 Q-1.05 -22.9 -1.0 -23.05 L-1.0 -23.15 -0.95 -23.25 -0.85 -23.75 -0.85 -23.8 -0.65 -24.1 0.0 -24.8 M1.05 -20.1 L0.9 -20.1 Q0.3 -20.1 0.05 -20.65 L-0.1 -21.2 Q-0.1 -21.35 0.0 -21.6 0.2 -22.0 0.5 -22.0 1.1 -22.0 1.25 -21.9 L0.55 -21.6 Q0.25 -21.45 0.25 -21.15 0.25 -20.95 0.3 -20.85 L0.4 -20.65 0.4 -20.55 Q0.4 -20.5 0.65 -20.5 0.95 -20.5 1.2 -20.75 L1.15 -20.6 1.05 -20.1 M0.85 -21.25 Q1.0 -21.25 1.1 -21.15 1.1 -20.95 1.0 -20.85 L0.8 -20.85 Q0.75 -20.95 0.75 -21.25 L0.85 -21.25 M1.25 -22.75 Q1.2 -22.65 1.05 -22.55 0.9 -22.65 0.9 -22.8 L1.0 -22.8 1.25 -22.75 M0.55 -17.9 L0.45 -17.65 0.5 -17.6 0.4 -17.35 0.35 -17.1 0.35 -17.0 0.25 -17.0 Q0.15 -17.1 0.2 -17.7 0.2 -18.25 -0.2 -18.3 L-0.2 -18.25 -0.25 -18.25 -0.05 -18.65 0.0 -18.7 0.55 -18.7 0.55 -17.9 M0.2 -16.25 L0.1 -15.65 0.1 -15.45 0.35 -14.65 Q0.55 -13.85 0.65 -13.55 L0.7 -13.3 0.75 -13.15 0.75 -13.0 0.8 -12.5 Q0.8 -12.15 0.85 -11.85 L0.8 -11.55 0.75 -11.45 0.75 -10.65 Q0.75 -10.5 0.75 -10.6 L0.7 -10.55 0.85 -9.55 0.95 -8.75 1.0 -8.3 1.1 -7.35 1.1 -6.65 1.05 -6.25 1.05 -4.45 1.0 -2.8 Q1.0 -2.65 1.05 -2.45 L1.05 -1.95 Q0.65 -2.3 0.65 -2.9 L0.75 -5.45 0.6 -6.3 0.65 -6.35 0.15 -11.1 0.15 -11.15 0.1 -11.75 0.1 -11.85 Q0.1 -11.9 0.1 -11.95 L0.1 -12.0 0.15 -12.3 0.2 -12.5 0.05 -13.65 -0.15 -14.4 -0.25 -14.7 -0.4 -15.35 -0.45 -15.5 -0.65 -16.15 -0.7 -16.35 -0.7 -16.45 -0.75 -17.15 -0.8 -17.25 -0.75 -17.3 -0.6 -17.55 -0.6 -17.6 -0.55 -17.65 Q-0.2 -17.1 0.2 -16.25 M0.2 -19.15 L0.1 -19.15 0.05 -19.1 Q0.05 -19.05 0.05 -19.3 0.05 -19.5 0.2 -19.55 L0.25 -19.55 0.2 -19.55 0.2 -19.35 0.25 -19.3 0.2 -19.2 0.2 -19.15" fill="#b87c63" fill-rule="evenodd" stroke="none"/>
    <path d="M-0.85 -22.2 L-0.8 -22.2 -0.4 -22.15 Q0.25 -22.15 0.6 -22.6 L1.05 -23.3 1.1 -23.3 Q1.15 -22.9 1.35 -22.7 1.3 -21.75 1.2 -20.75 0.95 -20.5 0.65 -20.5 0.4 -20.5 0.4 -20.55 L0.4 -20.65 0.3 -20.85 Q0.25 -20.95 0.25 -21.15 0.25 -21.45 0.55 -21.6 L1.25 -21.9 Q1.1 -22.0 0.5 -22.0 0.2 -22.0 0.0 -21.6 -0.1 -21.35 -0.1 -21.2 L0.05 -20.65 Q0.3 -20.1 0.9 -20.1 L1.05 -20.1 0.9 -19.35 0.8 -19.05 0.65 -18.4 0.65 -18.3 0.55 -17.9 0.55 -18.7 0.0 -18.7 0.2 -19.15 0.2 -19.2 0.25 -19.3 0.2 -19.35 0.2 -19.55 0.25 -19.55 0.25 -19.6 0.15 -20.0 -0.05 -20.65 -0.1 -20.85 -0.15 -20.9 -0.2 -21.05 -0.35 -21.25 -0.35 -21.3 -0.55 -21.65 -0.85 -22.2 M1.05 -23.75 Q0.8 -23.8 0.65 -23.65 0.55 -23.55 0.4 -23.25 0.0 -22.5 -0.6 -22.5 L-0.95 -22.5 -0.45 -23.0 Q-0.2 -23.35 0.0 -23.8 0.45 -24.6 1.0 -25.0 L1.0 -24.95 1.1 -24.65 1.05 -23.9 1.05 -23.75 M1.25 -22.75 L1.0 -22.8 0.9 -22.8 Q0.9 -22.65 1.05 -22.55 1.2 -22.65 1.25 -22.75 M0.85 -21.25 L0.75 -21.25 Q0.75 -20.95 0.8 -20.85 L1.0 -20.85 Q1.1 -20.95 1.1 -21.15 1.0 -21.25 0.85 -21.25 M0.35 -17.0 L0.3 -16.8 0.3 -16.7 0.25 -16.6 0.2 -16.25 Q-0.2 -17.1 -0.55 -17.65 L-0.6 -17.6 -0.3 -18.0 -0.25 -18.25 -0.2 -18.25 -0.2 -18.3 Q0.2 -18.25 0.2 -17.7 0.15 -17.1 0.25 -17.0 L0.35 -17.0" fill="#864b28" fill-rule="evenodd" stroke="none"/>
    <path d="M-0.5 -29.75 L-0.45 -29.8 -0.45 -29.75 -0.5 -29.75" fill="#fad8b6" fill-rule="evenodd" stroke="none"/>
    <path d="M0.0 -24.8 L-0.65 -24.1 -0.85 -23.8 -0.5 -24.45 -0.4 -24.6 0.0 -24.8" fill="#504441" fill-rule="evenodd" stroke="none"/>
    <path d="M0.6 -30.15 L0.7 -30.1 0.95 -30.05 1.15 -29.75 Q1.6 -29.45 1.85 -28.95 2.0 -28.5 2.0 -27.75 2.0 -26.25 1.35 -25.15 1.25 -24.9 1.25 -24.75 L1.3 -24.3 Q1.35 -23.8 1.5 -23.35 1.55 -23.15 1.65 -22.95 L1.7 -22.45 Q1.7 -21.45 1.1 -19.05 0.85 -17.8 0.55 -16.8 L0.65 -16.7 0.65 -16.6 Q0.4 -16.05 0.4 -15.65 L0.4 -15.6 Q0.45 -15.3 0.8 -14.5 L0.85 -14.3 Q1.2 -13.25 1.2 -12.3 1.05 -11.8 1.05 -11.3 1.0 -11.0 1.0 -10.75 L1.05 -10.35 1.05 -10.25 Q1.05 -9.95 1.1 -9.45 1.25 -8.95 1.25 -8.55 L1.25 -8.5 Q1.35 -7.95 1.35 -7.6 L1.35 -7.55 Q1.4 -7.55 1.4 -6.65 L1.4 -6.5 1.5 -6.2 1.5 -0.25 1.4 -0.15 1.35 -0.2 1.35 -0.05 1.2 0.0 Q1.1 -0.2 1.05 -0.6 L0.9 -1.25 0.9 -1.3 Q0.45 -2.45 0.45 -2.85 0.55 -3.25 0.6 -3.8 L0.55 -3.95 0.55 -4.05 0.45 -4.5 Q0.35 -5.6 0.25 -7.2 L0.2 -7.3 0.15 -8.15 Q0.15 -8.85 0.0 -9.25 L-0.05 -9.5 -0.15 -10.4 -0.25 -11.05 -0.15 -11.45 Q-0.05 -12.05 -0.05 -12.1 L-0.05 -12.3 -0.1 -12.35 -0.05 -12.55 -0.05 -12.95 Q-0.05 -13.35 -0.3 -13.75 L-0.35 -13.9 -1.15 -16.75 -1.1 -17.45 Q-0.95 -17.75 -0.65 -18.2 L-0.6 -18.25 Q-0.45 -18.4 -0.35 -18.7 -0.25 -19.0 -0.25 -19.4 -0.25 -19.85 -0.4 -20.3 L-0.5 -20.7 -0.5 -20.75 -0.8 -21.25 -1.5 -22.4 -1.55 -22.4 -1.65 -22.45 -1.45 -23.3 -1.3 -23.85 -1.2 -24.0 Q-0.9 -24.5 -0.9 -24.55 L-0.9 -24.7 Q-1.2 -25.25 -1.6 -25.75 L-1.75 -25.9 -1.95 -26.4 -2.0 -27.0 Q-2.0 -27.4 -1.95 -27.8 L-1.95 -27.85 -1.85 -28.5 Q-1.75 -29.05 -1.6 -29.4 L-1.55 -29.45 -1.5 -29.6 -1.4 -29.55 Q-1.2 -29.75 -0.8 -29.9 -0.1 -30.25 0.3 -30.15 L0.25 -30.1 0.6 -30.15 M1.1 -29.4 L1.1 -29.45 Q1.05 -29.65 0.85 -29.75 L0.85 -29.7 0.75 -29.8 -0.15 -29.8 -0.15 -29.85 -0.2 -29.75 -0.3 -29.75 -0.45 -29.75 -0.45 -29.8 -0.5 -29.75 -0.55 -29.7 -0.8 -29.6 Q-1.2 -29.3 -1.3 -29.15 L-1.45 -28.75 -1.5 -28.1 -1.55 -27.4 Q-1.55 -27.0 -1.35 -26.25 -1.25 -25.85 -1.15 -25.6 -1.0 -25.5 -0.85 -25.5 L-0.7 -25.4 -0.65 -25.35 -0.55 -25.3 -0.45 -25.3 -0.3 -25.3 0.0 -25.3 0.1 -25.35 0.5 -25.35 Q0.8 -25.35 1.15 -25.8 L1.2 -25.85 1.25 -25.85 1.25 -25.95 1.35 -26.1 1.4 -26.35 1.45 -26.45 1.45 -26.55 Q1.65 -27.35 1.65 -27.65 L1.6 -28.05 1.6 -28.15 1.6 -28.2 Q1.55 -28.55 1.45 -28.85 1.35 -29.15 1.15 -29.4 L1.1 -29.4 M1.0 -25.0 Q0.95 -25.2 0.85 -25.2 L0.65 -25.2 0.65 -25.1 0.55 -25.15 0.5 -25.15 0.45 -25.1 0.35 -25.05 Q0.25 -25.0 0.0 -24.8 L-0.4 -24.6 -0.5 -24.45 -0.85 -23.8 -0.85 -23.75 -0.95 -23.25 -1.0 -23.15 -1.0 -23.05 Q-1.05 -22.9 -1.1 -22.8 L-1.15 -22.75 -1.1 -22.7 -1.0 -22.5 -1.0 -22.45 -0.85 -22.2 -0.55 -21.65 -0.35 -21.3 -0.35 -21.25 -0.2 -21.05 -0.15 -20.9 -0.1 -20.85 -0.05 -20.65 0.15 -20.0 0.25 -19.6 0.25 -19.55 0.2 -19.55 Q0.05 -19.5 0.05 -19.3 0.05 -19.05 0.05 -19.1 L0.1 -19.15 0.2 -19.15 0.0 -18.7 -0.05 -18.65 -0.25 -18.25 -0.3 -18.0 -0.6 -17.6 -0.6 -17.55 -0.75 -17.3 -0.8 -17.25 -0.75 -17.15 -0.7 -16.45 -0.7 -16.35 -0.65 -16.15 -0.45 -15.5 -0.4 -15.35 -0.25 -14.7 -0.15 -14.4 0.05 -13.65 0.2 -12.5 0.15 -12.3 0.1 -12.0 0.1 -11.95 Q0.1 -11.9 0.1 -11.85 L0.1 -11.75 0.15 -11.15 0.15 -11.1 0.65 -6.35 0.6 -6.3 0.75 -5.45 0.65 -2.9 Q0.65 -2.3 1.05 -1.95 L1.05 -2.45 Q1.0 -2.65 1.0 -2.8 L1.05 -4.45 1.05 -6.25 1.1 -6.65 1.1 -7.35 1.0 -8.3 0.95 -8.75 0.85 -9.55 0.7 -10.55 0.75 -10.6 Q0.75 -10.5 0.75 -10.65 L0.75 -11.45 0.8 -11.55 0.85 -11.85 Q0.8 -12.15 0.8 -12.5 L0.75 -13.0 0.75 -13.15 0.7 -13.3 0.65 -13.55 Q0.55 -13.85 0.35 -14.65 L0.1 -15.45 0.1 -15.65 0.2 -16.25 0.25 -16.6 0.3 -16.7 0.3 -16.8 0.35 -17.0 0.35 -17.1 0.4 -17.35 0.5 -17.6 0.45 -17.65 0.55 -17.9 0.65 -18.3 0.65 -18.4 0.8 -19.05 0.9 -19.35 1.05 -20.1 1.15 -20.6 1.2 -20.75 Q1.3 -21.75 1.35 -22.7 1.15 -22.9 1.1 -23.3 L1.05 -23.75 1.05 -23.9 1.1 -24.65 1.0 -24.95 1.0 -25.0 M1.05 -25.25 L1.1 -25.2 1.1 -25.3 1.05 -25.25 M-1.8 -26.85 L-1.8 -26.85 M-1.65 -26.15 L-1.65 -26.15 M-0.35 -26.0 L-0.35 -26.0" fill="#101010" fill-rule="evenodd" stroke="none"/>
  </g>
</svg>
