<?xml version="1.0" encoding="UTF-8" standalone="no"?>
<svg xmlns:ffdec="https://www.free-decompiler.com/flash" xmlns:xlink="http://www.w3.org/1999/xlink" ffdec:objectType="shape" height="16.2px" width="12.2px" xmlns="http://www.w3.org/2000/svg">
  <g transform="matrix(1.0, 0.0, 0.0, 1.0, 6.1, 16.2)">
    <path d="M3.25 -11.8 L3.3 -11.75 3.35 -11.85 Q4.25 -11.75 5.2 -9.8 5.65 -8.8 5.85 -8.05 L6.0 -7.15 6.0 -7.1 Q5.65 -6.65 5.15 -5.3 L4.0 -2.2 3.95 -2.25 3.6 -2.15 3.55 -2.1 Q5.3 -5.8 5.3 -6.7 L5.3 -6.9 Q5.25 -6.95 5.2 -7.0 L5.05 -7.0 Q4.75 -5.75 3.75 -3.45 2.8 -1.3 2.8 -1.2 L2.8 -1.15 2.75 -1.1 2.2 -1.05 1.9 -1.0 1.9 -1.1 Q1.9 -1.25 2.6 -2.8 L3.5 -4.75 Q3.9 -5.7 4.2 -6.3 L4.0 -6.35 3.5 -5.55 3.1 -5.6 2.6 -5.6 2.6 -6.4 2.5 -6.4 2.25 -6.3 2.15 -7.65 Q2.05 -8.45 2.05 -8.65 2.05 -9.25 2.55 -10.15 L2.8 -10.55 2.9 -10.7 2.9 -10.9 2.9 -11.15 2.65 -11.15 Q2.5 -11.15 2.6 -11.05 2.65 -10.9 2.5 -10.9 0.75 -10.9 -0.1 -11.4 -0.4 -11.6 -0.55 -11.75 L-0.6 -11.85 0.35 -13.0 Q0.45 -12.95 0.65 -13.05 L0.8 -13.1 0.95 -13.1 0.9 -13.0 1.05 -12.95 1.05 -13.1 1.4 -13.05 1.65 -12.85 Q2.05 -12.55 2.65 -12.15 2.9 -11.95 3.25 -11.8 M3.7 -1.85 L3.6 -1.8 3.4 -1.85 3.45 -1.9 3.7 -1.85 M1.45 -5.55 L1.75 -5.3 1.65 -5.2 1.05 -4.85 1.0 -4.95 0.85 -5.15 0.8 -5.2 Q0.85 -5.4 1.05 -5.5 L1.45 -5.55 M2.95 -4.85 L3.05 -4.8 2.8 -4.4 Q2.3 -3.55 2.0 -2.85 L2.0 -2.7 Q2.0 -2.4 1.75 -1.85 1.65 -1.6 1.5 -1.45 L1.35 -0.7 1.25 -0.65 0.85 -0.65 0.85 -0.8 Q0.8 -0.75 0.75 -0.8 L0.7 -0.8 0.65 -1.65 Q0.7 -2.0 0.7 -2.25 L0.7 -2.4 0.75 -2.55 1.15 -2.8 1.4 -2.95 1.5 -3.0 1.55 -3.05 1.85 -3.25 1.8 -3.35 1.6 -3.3 1.6 -3.9 Q1.75 -4.05 1.85 -4.25 L2.0 -4.8 2.05 -4.85 2.2 -4.95 2.8 -4.85 2.85 -4.8 2.85 -4.85 2.95 -4.85" fill="#65441f" fill-rule="evenodd" stroke="none"/>
    <path d="M1.05 -13.1 L1.05 -12.95 0.9 -13.0 0.95 -13.1 1.05 -13.1 M-0.6 -11.85 L-0.55 -11.75 Q-0.4 -11.6 -0.1 -11.4 0.75 -10.9 2.5 -10.9 2.65 -10.9 2.6 -11.05 2.5 -11.15 2.65 -11.15 L2.9 -11.15 2.9 -10.9 Q2.3 -10.45 1.8 -9.8 1.05 -8.8 0.9 -7.8 0.8 -7.6 0.8 -7.4 0.8 -7.25 0.85 -7.2 L0.9 -6.8 0.9 -6.65 Q0.95 -6.35 1.2 -5.95 L1.45 -5.55 1.05 -5.5 Q0.85 -5.4 0.8 -5.2 L0.75 -5.25 0.85 -5.35 Q0.75 -5.7 0.55 -5.95 0.45 -6.15 0.45 -6.45 0.45 -7.25 0.65 -8.05 L0.8 -8.05 0.8 -8.1 0.85 -8.2 0.65 -8.2 Q0.8 -8.8 1.05 -9.4 L1.15 -9.7 0.45 -8.7 0.4 -8.65 0.3 -8.25 0.2 -8.25 0.15 -8.15 0.3 -8.1 Q0.15 -7.2 0.15 -6.45 L0.2 -5.85 0.2 -5.75 0.15 -5.75 0.4 -5.45 0.55 -5.25 0.7 -5.2 Q0.7 -5.15 0.7 -5.1 L0.7 -5.05 0.8 -4.95 0.65 -5.05 0.55 -5.0 Q-0.85 -5.0 -1.5 -5.5 L-1.85 -5.65 -2.15 -5.65 -2.15 -5.7 -2.0 -5.75 -2.25 -5.95 -2.3 -6.05 -2.35 -6.05 -2.35 -6.1 -2.5 -6.4 -2.55 -6.6 Q-2.55 -6.95 -2.5 -7.4 -2.25 -9.5 -0.6 -11.85 M2.8 -10.55 L2.55 -10.15 Q2.05 -9.25 2.05 -8.65 2.05 -8.45 2.15 -7.65 L2.25 -6.3 2.5 -6.4 2.6 -6.4 2.6 -5.6 Q2.4 -5.6 2.3 -5.5 L2.1 -5.55 1.75 -5.7 1.5 -6.05 1.3 -6.4 1.25 -6.55 Q1.15 -6.8 1.15 -7.05 L1.15 -7.3 Q1.15 -8.0 1.6 -8.7 L1.65 -8.8 1.6 -8.8 1.75 -9.1 Q2.15 -9.8 2.6 -10.4 L2.8 -10.55 M0.7 -7.65 L0.8 -7.85 0.6 -7.55 0.7 -7.65 M1.75 -5.3 L1.85 -5.2 Q1.35 -5.0 1.2 -4.85 L1.05 -4.85 1.65 -5.2 1.75 -5.3 M1.15 -4.4 L1.15 -4.4 M-1.05 -12.55 L-0.9 -12.7 -0.85 -12.7 -1.05 -12.55" fill="#9b7a37" fill-rule="evenodd" stroke="none"/>
    <path d="M1.55 -13.4 L1.1 -13.7 1.15 -13.75 Q1.35 -13.55 1.75 -13.3 L1.55 -13.4 M0.4 -13.6 L0.5 -13.6 0.4 -13.55 0.4 -13.6 M-1.0 -14.55 L-2.4 -15.5 -1.35 -14.8 -0.8 -14.4 -1.0 -14.55" fill="#732c0d" fill-rule="evenodd" stroke="none"/>
    <path d="M-0.05 -1.9 L0.05 -1.9 0.1 -2.0 0.15 -2.0 0.15 -1.7 Q0.05 -1.8 -0.05 -1.9 M0.15 -0.8 L0.2 -0.75 0.1 -0.75 0.05 -0.8 0.15 -0.8 M-0.6 -1.1 Q-0.8 -1.2 -0.8 -1.25 -0.8 -1.45 -0.7 -1.65 L-0.6 -1.75 -0.65 -1.5 -0.65 -1.2 -0.6 -1.1" fill="#e7955f" fill-rule="evenodd" stroke="none"/>
    <path d="M0.15 -1.7 L0.35 -1.5 0.35 -0.9 Q0.3 -0.85 0.15 -0.8 L0.05 -0.8 -0.05 -0.8 Q-0.25 -0.8 -0.4 -0.85 -0.55 -0.95 -0.6 -1.1 L-0.65 -1.2 -0.65 -1.5 -0.6 -1.75 -0.6 -1.8 -0.2 -1.95 -0.05 -1.9 Q0.05 -1.8 0.15 -1.7" fill="#d36f2c" fill-rule="evenodd" stroke="none"/>
    <path d="M-3.85 -15.95 L-3.85 -15.95" fill="#8eac62" fill-rule="evenodd" stroke="none"/>
    <path d="M-5.45 -11.25 L-5.45 -11.85 Q-5.45 -13.2 -4.45 -14.55 L-4.35 -14.6 -4.3 -14.65 Q-3.8 -15.0 -3.5 -14.8 -3.15 -14.65 -3.1 -14.0 L-3.1 -13.9 -3.1 -13.8 Q-3.1 -13.2 -3.45 -12.5 L-3.55 -12.35 -3.7 -12.1 -3.75 -12.0 -3.85 -11.7 Q-4.2 -11.15 -4.75 -11.15 -5.2 -11.15 -5.45 -11.25" fill="#883720" fill-rule="evenodd" stroke="none"/>
    <path d="M-3.1 -13.9 L-3.1 -14.0 -3.1 -13.9 M-3.45 -15.8 L-3.45 -15.8 M-2.75 -15.3 Q-2.5 -15.15 -2.25 -15.1 -1.7 -14.65 -1.2 -14.15 L-0.75 -14.1 Q-0.45 -14.0 -0.35 -13.8 -0.4 -13.55 -0.85 -13.05 -1.1 -12.7 -1.4 -12.4 L-1.6 -12.2 -1.65 -12.25 -1.65 -12.35 -1.75 -12.25 Q-1.7 -12.5 -1.7 -12.6 -1.7 -12.65 -1.9 -13.25 L-2.05 -13.6 -2.05 -13.9 Q-2.2 -14.05 -2.35 -14.45 L-2.65 -15.15 -2.75 -15.3" fill="#46471b" fill-rule="evenodd" stroke="none"/>
    <path d="M-3.55 -12.35 L-3.45 -12.5 Q-3.1 -13.2 -3.1 -13.8 L-3.1 -13.9 -3.1 -14.0 Q-3.15 -14.65 -3.5 -14.8 -3.8 -15.0 -4.3 -14.65 L-4.35 -14.6 -3.75 -15.4 Q-3.5 -15.65 -3.45 -15.8 -3.05 -15.75 -2.75 -15.3 L-2.65 -15.15 -2.35 -14.45 Q-2.2 -14.05 -2.05 -13.9 L-2.05 -13.6 -1.9 -13.25 Q-1.7 -12.65 -1.7 -12.6 -1.7 -12.5 -1.75 -12.25 L-1.65 -12.35 -1.65 -12.25 -1.6 -12.2 -1.4 -12.4 -1.35 -12.4 Q-2.0 -11.15 -2.4 -9.95 L-2.5 -9.75 Q-2.95 -8.55 -2.95 -7.65 L-2.95 -7.4 -3.0 -6.7 -3.15 -6.7 -3.15 -6.75 Q-3.25 -6.7 -3.4 -6.7 -4.05 -6.7 -4.55 -8.05 L-4.95 -9.2 -5.05 -9.55 -5.05 -9.8 -5.0 -9.95 -4.95 -9.95 Q-4.8 -9.95 -4.65 -10.05 -4.5 -10.15 -4.5 -10.25 -4.25 -10.35 -4.05 -10.7 L-3.65 -11.9 -3.55 -12.35" fill="#888a42" fill-rule="evenodd" stroke="none"/>
    <path d="M-5.45 -11.25 Q-5.2 -11.15 -4.75 -11.15 -4.2 -11.15 -3.85 -11.7 -3.9 -11.45 -4.15 -11.0 -4.45 -10.4 -4.7 -10.4 L-5.05 -10.4 -5.1 -10.4 Q-5.25 -10.45 -5.3 -10.55 L-5.45 -11.25" fill="#53251a" fill-rule="evenodd" stroke="none"/>
    <path d="M-5.05 -10.4 L-5.1 -10.4 -5.05 -10.4" fill="#72742c" fill-rule="evenodd" stroke="none"/>
    <path d="M3.25 -11.8 Q2.9 -11.95 2.65 -12.15 2.05 -12.55 1.65 -12.85 L1.4 -13.05 1.05 -13.1 0.95 -13.1 0.8 -13.1 0.65 -13.05 Q0.45 -12.95 0.35 -13.0 L-0.6 -11.85 Q-2.25 -9.5 -2.5 -7.4 -2.55 -6.95 -2.55 -6.6 L-2.5 -6.4 -2.35 -6.1 -2.35 -6.05 -2.3 -6.05 -2.25 -5.95 -2.0 -5.75 -2.15 -5.7 -2.15 -5.65 -1.85 -5.65 -1.5 -5.5 Q-0.85 -5.0 0.55 -5.0 L0.65 -5.05 0.8 -4.95 0.7 -5.05 0.7 -5.1 Q0.7 -5.15 0.7 -5.2 L0.55 -5.25 0.4 -5.45 0.15 -5.75 0.2 -5.75 0.2 -5.85 0.15 -6.45 Q0.15 -7.2 0.3 -8.1 L0.15 -8.15 0.2 -8.25 0.3 -8.25 0.4 -8.65 0.45 -8.7 1.15 -9.7 1.05 -9.4 Q0.8 -8.8 0.65 -8.2 L0.85 -8.2 0.8 -8.1 0.8 -8.05 0.65 -8.05 Q0.45 -7.25 0.45 -6.45 0.45 -6.15 0.55 -5.95 0.75 -5.7 0.85 -5.35 L0.75 -5.25 0.8 -5.2 0.85 -5.15 1.0 -4.95 1.05 -4.85 1.2 -4.85 Q1.35 -5.0 1.85 -5.2 L1.75 -5.3 1.45 -5.55 1.2 -5.95 Q0.95 -6.35 0.9 -6.65 L0.9 -6.8 0.85 -7.2 Q0.8 -7.25 0.8 -7.4 0.8 -7.6 0.9 -7.8 1.05 -8.8 1.8 -9.8 2.3 -10.45 2.9 -10.9 L2.9 -10.7 2.8 -10.55 2.6 -10.4 Q2.15 -9.8 1.75 -9.1 L1.6 -8.8 1.65 -8.8 1.6 -8.7 Q1.15 -8.0 1.15 -7.3 L1.15 -7.05 Q1.15 -6.8 1.25 -6.55 L1.3 -6.4 1.5 -6.05 1.75 -5.7 2.1 -5.55 2.3 -5.5 Q2.4 -5.6 2.6 -5.6 L3.1 -5.6 3.5 -5.55 4.0 -6.35 4.2 -6.3 Q3.9 -5.7 3.5 -4.75 L2.6 -2.8 Q1.9 -1.25 1.9 -1.1 L1.9 -1.0 2.2 -1.05 2.75 -1.1 2.8 -1.1 2.8 -1.15 2.8 -1.2 Q2.8 -1.3 3.75 -3.45 4.75 -5.75 5.05 -7.0 L5.2 -7.0 Q5.25 -6.95 5.3 -6.9 L5.3 -6.7 Q5.3 -5.8 3.55 -2.1 L3.6 -2.15 3.95 -2.25 4.0 -2.2 5.15 -5.3 Q5.65 -6.65 6.0 -7.1 L6.1 -6.35 5.45 -4.7 Q4.5 -2.6 4.15 -2.1 L4.05 -2.15 Q4.0 -2.05 3.8 -1.85 L3.7 -1.85 3.45 -1.9 3.4 -1.85 3.0 -0.95 2.85 -0.95 Q2.85 -0.9 2.6 -0.8 2.35 -0.7 2.15 -0.7 L1.85 -0.7 1.8 -0.3 1.7 -0.25 1.65 -0.2 1.6 -0.05 1.3 -0.1 Q1.2 -0.1 1.1 0.0 0.75 -0.05 0.5 -0.25 L0.3 -0.2 0.05 -0.15 Q-0.65 -0.15 -1.1 -0.6 L-1.15 -0.6 Q-1.4 -0.8 -1.4 -1.2 -1.4 -1.35 -1.2 -1.7 -1.15 -1.95 -0.95 -2.2 L-0.9 -2.25 -0.85 -2.25 -0.6 -2.5 0.2 -2.5 Q0.2 -2.85 0.3 -3.05 L0.45 -3.0 0.55 -3.25 0.7 -3.55 Q0.6 -4.1 0.35 -4.3 L0.25 -4.4 Q-0.15 -4.8 -1.6 -4.95 L-2.45 -5.05 -2.55 -5.25 Q-2.65 -5.45 -2.75 -5.65 -3.3 -5.65 -3.75 -6.0 -4.25 -6.7 -5.1 -8.1 L-5.1 -8.15 -5.35 -8.7 -5.4 -8.85 -5.6 -9.65 -5.85 -10.35 -5.95 -10.35 Q-6.1 -11.05 -6.1 -11.65 -6.1 -12.75 -5.8 -13.8 -5.5 -14.05 -5.2 -14.6 L-5.15 -14.6 Q-5.1 -14.8 -4.95 -14.95 L-4.9 -15.0 Q-4.7 -15.3 -4.5 -15.5 L-4.6 -15.6 Q-4.5 -15.55 -4.45 -15.5 -4.25 -15.7 -4.0 -15.85 L-4.0 -16.0 Q-3.8 -16.05 -3.55 -16.2 L-3.5 -16.2 Q-3.2 -16.2 -2.15 -15.7 -1.1 -15.25 0.05 -14.55 3.0 -12.8 3.25 -11.8 M1.55 -13.4 L1.75 -13.3 Q1.35 -13.55 1.15 -13.75 L1.1 -13.7 1.55 -13.4 M0.4 -13.6 L0.4 -13.55 0.5 -13.6 0.4 -13.6 M0.7 -7.65 L0.6 -7.55 0.8 -7.85 0.7 -7.65 M2.95 -4.85 L2.85 -4.85 2.85 -4.8 2.8 -4.85 2.2 -4.95 2.05 -4.85 2.0 -4.8 1.85 -4.25 Q1.75 -4.05 1.6 -3.9 L1.6 -3.3 1.8 -3.35 1.85 -3.25 1.55 -3.05 1.5 -3.0 1.4 -2.95 1.15 -2.8 0.75 -2.55 0.7 -2.4 0.7 -2.25 Q0.7 -2.0 0.65 -1.65 L0.7 -0.8 0.75 -0.8 Q0.8 -0.75 0.85 -0.8 L0.85 -0.65 1.25 -0.65 1.35 -0.7 1.5 -1.45 Q1.65 -1.6 1.75 -1.85 2.0 -2.4 2.0 -2.7 L2.0 -2.85 Q2.3 -3.55 2.8 -4.4 L3.05 -4.8 2.95 -4.85 M1.15 -4.4 L1.15 -4.4 M0.15 -1.7 L0.15 -2.0 0.1 -2.0 0.05 -1.9 -0.05 -1.9 -0.2 -1.95 -0.6 -1.8 -0.6 -1.75 -0.7 -1.65 Q-0.8 -1.45 -0.8 -1.25 -0.8 -1.2 -0.6 -1.1 -0.55 -0.95 -0.4 -0.85 -0.25 -0.8 -0.05 -0.8 L0.05 -0.8 0.1 -0.75 0.2 -0.75 0.15 -0.8 Q0.3 -0.85 0.35 -0.9 L0.35 -1.5 0.15 -1.7 M-3.85 -15.95 L-3.85 -15.95 M-4.35 -14.6 L-4.45 -14.55 Q-5.45 -13.2 -5.45 -11.85 L-5.45 -11.25 -5.3 -10.55 Q-5.25 -10.45 -5.1 -10.4 L-5.05 -10.4 -4.7 -10.4 Q-4.45 -10.4 -4.15 -11.0 -3.9 -11.45 -3.85 -11.7 L-3.75 -12.0 -3.7 -12.1 -3.55 -12.35 -3.65 -11.9 -4.05 -10.7 Q-4.25 -10.35 -4.5 -10.25 -4.5 -10.15 -4.65 -10.05 -4.8 -9.95 -4.95 -9.95 L-5.0 -9.95 -5.05 -9.8 -5.05 -9.55 -4.95 -9.2 -4.55 -8.05 Q-4.05 -6.7 -3.4 -6.7 -3.25 -6.7 -3.15 -6.75 L-3.15 -6.7 -3.0 -6.7 -2.95 -7.4 -2.95 -7.65 Q-2.95 -8.55 -2.5 -9.75 L-2.4 -9.95 Q-2.0 -11.15 -1.35 -12.4 L-1.4 -12.4 Q-1.1 -12.7 -0.85 -13.05 -0.4 -13.55 -0.35 -13.8 -0.45 -14.0 -0.75 -14.1 L-1.2 -14.15 Q-1.7 -14.65 -2.25 -15.1 -2.5 -15.15 -2.75 -15.3 -3.05 -15.75 -3.45 -15.8 -3.5 -15.65 -3.75 -15.4 L-4.35 -14.6 M-3.45 -15.8 L-3.45 -15.8 M-1.0 -14.55 L-0.8 -14.4 -1.35 -14.8 -2.4 -15.5 -1.0 -14.55 M-1.05 -12.55 L-0.85 -12.7 -0.9 -12.7 -1.05 -12.55" fill="#101010" fill-rule="evenodd" stroke="none"/>
  </g>
</svg>
