<?xml version="1.0" encoding="UTF-8" standalone="no"?>
<svg xmlns:ffdec="https://www.free-decompiler.com/flash" xmlns:xlink="http://www.w3.org/1999/xlink" ffdec:objectType="shape" height="13.75px" width="3.55px" xmlns="http://www.w3.org/2000/svg">
  <g transform="matrix(1.0, 0.0, 0.0, 1.0, -1.15, 13.45)">
    <path d="M3.45 -12.7 L3.5 -12.65 3.55 -12.55 3.55 -12.4 3.75 -11.7 3.8 -11.3 3.85 -11.1 3.85 -11.05 3.9 -10.8 4.0 -10.5 4.0 -10.45 4.0 -10.4 4.05 -10.35 4.0 -10.4 Q3.9 -10.3 3.9 -10.2 L4.0 -10.0 Q4.0 -9.75 4.25 -8.75 L4.45 -7.75 Q4.4 -7.55 4.35 -7.2 4.3 -6.75 4.3 -6.3 L4.25 -6.15 4.25 -6.55 4.3 -6.95 4.3 -7.0 4.35 -7.2 4.35 -7.35 4.4 -7.45 4.35 -7.4 4.35 -7.55 4.4 -7.55 Q4.35 -7.75 4.2 -7.85 L4.35 -7.8 Q4.4 -7.8 4.4 -7.85 L4.4 -7.9 4.3 -7.95 4.35 -8.0 4.35 -8.1 4.3 -8.3 Q4.3 -8.55 4.15 -8.8 L4.05 -9.2 4.05 -9.3 3.95 -9.85 3.9 -9.85 Q3.8 -10.5 3.8 -10.85 3.7 -11.65 3.6 -12.15 L3.45 -12.7 M4.2 -5.9 L4.15 -5.65 4.05 -5.2 4.05 -5.45 4.1 -5.65 4.15 -5.7 4.15 -5.9 4.2 -5.9 M3.8 -4.05 L3.75 -3.75 3.75 -3.7 3.15 -3.7 3.7 -3.7 3.8 -4.05 M2.7 -3.7 L2.65 -3.7 2.6 -3.8 2.65 -4.0 2.75 -4.3 2.7 -3.7 M3.4 -7.0 Q3.4 -7.1 3.35 -7.1 L3.15 -7.0 3.15 -7.05 3.25 -7.05 3.2 -7.1 3.25 -7.1 3.7 -7.25 3.95 -7.3 Q3.95 -7.35 4.15 -7.45 L4.25 -7.5 4.25 -7.35 4.1 -7.3 4.15 -7.35 3.95 -7.2 Q3.8 -7.25 3.6 -7.1 L3.4 -7.05 3.45 -7.05 3.4 -7.0 M3.2 -7.25 L3.15 -7.25 3.1 -7.3 2.95 -7.5 3.2 -7.25 M2.85 -7.6 L2.8 -7.7 2.85 -7.6 M3.75 -8.0 L3.85 -8.0 3.85 -7.95 3.75 -8.0 M2.85 -8.05 L2.85 -7.95 2.8 -7.95 2.8 -8.0 2.75 -8.05 2.85 -8.05 M1.35 -11.5 L1.3 -11.65 1.2 -11.65 Q1.15 -11.0 1.15 -10.8 1.15 -10.4 1.15 -10.35 L1.3 -10.2 Q1.25 -10.15 1.25 -10.1 L1.3 -10.0 Q1.2 -10.15 1.15 -10.25 1.15 -10.4 1.15 -10.8 1.15 -11.8 1.6 -12.65 L1.8 -12.95 1.85 -12.95 Q1.75 -12.8 1.65 -12.65 1.55 -12.55 1.5 -12.25 L1.4 -11.85 1.35 -11.5 M4.0 -1.25 L4.05 -1.3 4.0 -1.25 M4.05 -1.35 L4.1 -1.55 4.1 -1.4 4.05 -1.4 4.05 -1.35 M2.65 -3.9 L2.65 -3.9 M2.85 -3.45 L2.85 -3.45 M2.55 -3.1 L2.8 -3.05 3.15 -2.9 Q3.65 -2.95 3.7 -3.25 L3.25 -3.35 3.1 -3.4 Q3.15 -3.4 3.15 -3.45 L3.1 -3.45 3.1 -3.5 3.7 -3.35 3.7 -3.5 3.75 -3.5 3.8 -3.5 3.75 -3.35 Q3.7 -3.25 3.8 -3.2 L3.75 -2.9 3.75 -2.7 Q4.05 -1.95 4.05 -1.8 L4.0 -1.6 4.0 -1.85 3.85 -2.2 3.85 -2.3 Q3.7 -2.65 3.7 -2.8 L3.65 -2.8 3.65 -2.85 Q3.55 -2.75 3.45 -2.75 L3.4 -2.75 3.1 -2.8 Q2.8 -2.8 2.6 -2.9 L2.55 -2.95 2.55 -2.9 2.45 -2.75 2.45 -2.85 Q2.45 -2.95 2.55 -3.1 M2.3 -0.7 L2.25 -0.85 2.25 -1.05 2.2 -1.05 2.2 -1.4 2.15 -1.5 2.15 -1.65 2.1 -1.85 2.2 -2.1 2.4 -2.65 2.45 -2.65 2.35 -2.45 2.35 -2.35 2.3 -2.25 Q2.2 -2.05 2.2 -1.95 L2.2 -1.45 2.25 -1.35 2.3 -1.15 2.3 -0.7 M3.35 -1.4 L3.4 -1.4 3.3 -0.35 3.45 -0.35 3.4 -0.25 Q3.35 -0.25 3.3 -0.2 3.25 -0.15 3.25 -0.1 L3.25 -0.05 2.85 0.0 2.85 -0.1 2.8 -0.1 2.55 0.05 2.45 0.05 2.4 0.0 2.5 0.0 2.6 -0.1 2.65 -0.2 2.65 -0.25 2.75 -0.85 2.8 -1.0 2.8 -1.3 2.85 -1.25 2.85 -0.7 2.8 -0.45 2.8 -0.1 3.15 -0.1 Q3.2 -0.15 3.25 -0.3 L3.25 -0.7 3.3 -0.85 3.3 -1.0 3.35 -1.15 3.3 -1.15 3.35 -1.35 3.35 -1.4 M2.3 -0.65 L2.3 -0.4 2.3 -0.65" fill="#111111" fill-rule="evenodd" stroke="none"/>
    <path d="M2.95 -13.2 L3.15 -13.05 3.3 -12.95 3.45 -12.7 3.6 -12.15 Q3.7 -11.65 3.8 -10.85 3.8 -10.5 3.9 -9.85 L3.95 -9.85 4.05 -9.3 4.05 -9.2 4.15 -8.8 Q4.3 -8.55 4.3 -8.3 L4.3 -8.05 4.35 -8.1 4.35 -8.0 4.3 -7.95 4.3 -8.0 4.25 -7.95 Q4.25 -7.9 4.1 -7.9 4.05 -7.9 3.95 -8.0 3.9 -8.05 3.85 -8.2 3.8 -8.4 3.8 -8.55 3.8 -8.65 3.6 -8.9 L3.5 -9.15 3.4 -9.2 3.1 -9.45 2.95 -9.55 Q2.75 -9.6 2.55 -9.85 2.15 -10.05 1.85 -10.8 1.6 -11.35 1.45 -11.85 L1.45 -11.95 1.4 -11.85 1.5 -12.25 Q1.55 -12.55 1.65 -12.65 1.75 -12.8 1.85 -12.95 L1.95 -13.1 Q2.15 -13.3 2.4 -13.35 2.7 -13.35 2.85 -13.25 L2.95 -13.2" fill="#cdd7f8" fill-rule="evenodd" stroke="none"/>
    <path d="M3.05 -6.1 L3.05 -6.3 3.05 -6.1 M4.3 -7.0 L4.3 -7.3 4.35 -7.35 4.35 -7.2 4.3 -7.0" fill="#a5b6ef" fill-rule="evenodd" stroke="none"/>
    <path d="M2.3 -0.7 L2.3 -1.15 2.25 -1.35 2.2 -1.45 2.2 -1.95 Q2.2 -2.05 2.3 -2.25 L2.35 -2.35 2.45 -2.3 2.45 -2.35 Q2.45 -2.8 3.05 -2.7 3.7 -2.65 3.7 -2.15 3.7 -2.0 3.6 -1.9 3.55 -1.8 3.45 -1.8 L3.4 -1.4 3.35 -1.4 3.35 -1.45 Q3.2 -1.7 3.05 -1.65 2.65 -1.45 2.65 -0.2 L2.6 -0.1 2.5 0.0 2.4 0.0 2.3 -0.15 2.3 -0.4 2.3 -0.65 2.3 -0.7" fill="#f1cda9" fill-rule="evenodd" stroke="none"/>
    <path d="M3.95 -8.0 L3.65 -8.05 3.55 -8.05 3.55 -8.1 3.0 -8.1 2.9 -8.05 2.85 -8.05 2.75 -8.05 Q2.15 -8.75 1.95 -8.85 L1.95 -8.9 Q1.85 -9.1 1.8 -9.55 1.75 -9.75 1.65 -9.85 L1.6 -10.0 1.6 -10.05 1.55 -10.05 1.4 -10.35 Q1.25 -10.6 1.25 -10.75 L1.35 -11.4 1.35 -11.5 1.4 -11.85 1.45 -11.95 1.45 -11.85 Q1.6 -11.35 1.85 -10.8 2.15 -10.05 2.55 -9.85 2.75 -9.6 2.95 -9.55 L3.1 -9.45 3.4 -9.2 3.5 -9.15 3.6 -8.9 Q3.8 -8.65 3.8 -8.55 3.8 -8.4 3.85 -8.2 3.9 -8.05 3.95 -8.0 M4.35 -8.1 L4.3 -8.05 4.3 -8.3 4.35 -8.1" fill="#8da4ef" fill-rule="evenodd" stroke="none"/>
    <path d="M4.25 -6.15 L4.2 -5.9 4.15 -5.9 4.15 -5.7 4.1 -5.65 4.05 -5.45 4.05 -5.2 4.0 -4.95 3.8 -4.05 3.7 -3.7 3.15 -3.7 2.7 -3.7 2.75 -4.3 2.75 -4.5 Q2.95 -5.3 2.95 -5.7 L2.95 -5.75 3.05 -6.1 3.05 -6.3 Q3.05 -6.45 3.1 -6.55 L3.15 -6.55 3.25 -6.65 3.35 -6.7 Q3.45 -6.7 3.5 -6.75 L3.75 -6.9 3.95 -7.2 4.15 -7.35 4.1 -7.3 4.25 -7.35 4.25 -7.5 4.15 -7.45 Q3.95 -7.35 3.95 -7.3 L3.7 -7.25 3.7 -7.3 Q3.7 -7.65 3.25 -7.85 L3.0 -7.95 Q3.2 -8.1 3.65 -8.0 L3.75 -8.0 3.85 -7.95 Q4.05 -7.9 4.2 -7.85 4.35 -7.75 4.4 -7.55 L4.35 -7.55 4.35 -7.4 4.4 -7.45 4.35 -7.35 4.3 -7.3 4.3 -7.0 4.3 -6.95 4.25 -6.55 4.25 -6.15 M3.25 -7.15 L3.2 -7.2 3.25 -7.15 M2.8 -7.7 L2.75 -7.75 2.8 -7.7 M2.7 -3.5 L2.75 -3.5 2.75 -3.4 2.7 -3.35 2.7 -3.5" fill="#7285de" fill-rule="evenodd" stroke="none"/>
    <path d="M3.1 -6.55 Q3.15 -6.7 3.25 -6.8 L3.4 -7.0 3.45 -7.05 3.4 -7.05 3.6 -7.1 Q3.8 -7.25 3.95 -7.2 L3.75 -6.9 3.5 -6.75 Q3.45 -6.7 3.35 -6.7 L3.25 -6.65 3.15 -6.55 3.1 -6.55 M3.25 -7.1 L3.25 -7.15 3.2 -7.2 3.2 -7.25 2.95 -7.5 2.85 -7.6 2.8 -7.7 2.75 -7.75 2.8 -7.9 Q2.85 -8.0 3.0 -7.95 L3.25 -7.85 Q3.7 -7.65 3.7 -7.3 L3.7 -7.25 3.25 -7.1 M2.85 -3.45 L2.85 -3.45 M2.7 -3.35 L2.75 -3.4 2.75 -3.5 2.7 -3.5 3.7 -3.5 3.7 -3.35 3.1 -3.5 3.1 -3.45 3.15 -3.45 Q3.15 -3.4 3.1 -3.4 L3.25 -3.35 3.7 -3.25 Q3.65 -2.95 3.15 -2.9 L2.8 -3.05 2.55 -3.1 2.6 -3.2 2.7 -3.35" fill="#4659a6" fill-rule="evenodd" stroke="none"/>
    <path d="M2.35 -2.35 L2.35 -2.45 2.45 -2.65 2.45 -2.75 2.55 -2.9 2.55 -2.95 2.6 -2.9 Q2.8 -2.8 3.1 -2.8 L3.4 -2.75 3.45 -2.75 Q3.55 -2.75 3.65 -2.85 L3.65 -2.8 3.7 -2.8 Q3.7 -2.65 3.85 -2.3 L3.85 -2.2 4.0 -1.85 4.0 -1.6 3.75 -1.0 3.45 -0.35 3.3 -0.35 3.4 -1.4 3.35 -1.4 3.35 -1.35 3.3 -1.15 3.35 -1.15 3.3 -1.0 3.3 -0.85 3.25 -0.7 3.25 -0.3 Q3.2 -0.15 3.15 -0.1 L2.8 -0.1 2.8 -0.45 2.85 -0.7 2.85 -1.25 2.8 -1.3 2.8 -1.0 2.75 -0.85 2.65 -0.25 2.65 -0.2 Q2.65 -1.45 3.05 -1.65 3.2 -1.7 3.35 -1.45 L3.35 -1.4 3.4 -1.4 3.45 -1.8 Q3.55 -1.8 3.6 -1.9 3.7 -2.0 3.7 -2.15 3.7 -2.65 3.05 -2.7 2.45 -2.8 2.45 -2.35 L2.45 -2.3 2.35 -2.35" fill="#e8ac6a" fill-rule="evenodd" stroke="none"/>
    <path d="M2.95 -13.2 Q2.8 -13.35 2.5 -13.35 L2.25 -13.3 2.25 -13.35 Q2.3 -13.35 2.35 -13.4 L2.75 -13.45 3.15 -13.4 3.45 -13.25 3.5 -13.25 3.65 -13.1 3.9 -12.6 3.9 -12.55 3.95 -12.3 4.0 -11.85 4.05 -11.25 4.0 -11.0 4.1 -10.7 4.25 -9.95 4.25 -9.9 4.5 -8.7 4.7 -7.9 4.7 -7.7 4.65 -7.7 4.65 -7.65 4.55 -6.8 Q4.45 -6.2 4.45 -6.05 L4.45 -5.85 4.3 -5.35 4.3 -5.25 4.25 -5.1 Q4.15 -4.75 4.1 -4.45 L4.0 -3.95 3.9 -3.65 Q3.95 -3.6 3.95 -3.5 L3.95 -3.35 4.0 -3.35 Q4.05 -3.25 4.05 -3.2 4.05 -2.95 3.95 -2.8 3.95 -2.75 3.9 -2.75 L4.05 -2.4 Q4.2 -2.0 4.2 -1.8 L4.1 -1.55 4.05 -1.35 4.05 -1.3 4.0 -1.25 Q3.6 0.15 3.25 0.15 L2.75 0.1 Q2.6 0.15 2.55 0.25 L2.35 0.3 2.25 0.15 2.0 -0.1 1.95 -1.3 1.95 -1.45 1.9 -1.55 1.9 -1.7 Q1.9 -1.8 2.0 -2.2 2.15 -2.65 2.3 -2.85 L2.25 -3.0 Q2.25 -3.05 2.35 -3.2 2.4 -3.35 2.5 -3.45 2.45 -3.5 2.4 -3.55 L2.35 -3.7 2.75 -5.5 Q2.75 -5.7 2.7 -6.1 L2.7 -6.45 Q2.7 -6.6 2.75 -6.65 L2.8 -6.75 2.95 -7.1 3.0 -7.1 Q2.75 -7.3 2.65 -7.4 2.5 -7.55 2.5 -7.75 L2.5 -7.8 Q2.3 -7.9 2.1 -8.2 1.9 -8.45 1.75 -8.8 1.6 -9.15 1.45 -9.75 L1.3 -10.0 1.25 -10.1 Q1.25 -10.15 1.3 -10.2 L1.15 -10.35 Q1.15 -10.4 1.15 -10.8 1.15 -11.0 1.2 -11.65 L1.3 -11.65 1.35 -11.5 1.35 -11.4 1.25 -10.75 Q1.25 -10.6 1.4 -10.35 L1.55 -10.05 1.6 -10.05 1.6 -10.0 1.65 -9.85 Q1.75 -9.75 1.8 -9.55 1.85 -9.1 1.95 -8.9 L1.95 -8.85 Q2.15 -8.75 2.75 -8.05 L2.8 -8.0 2.8 -7.95 2.85 -7.95 2.85 -8.05 2.9 -8.05 3.0 -8.1 3.55 -8.1 3.55 -8.05 3.65 -8.05 3.95 -8.0 Q4.05 -7.9 4.1 -7.9 4.25 -7.9 4.25 -7.95 L4.3 -8.0 4.3 -7.95 4.4 -7.9 4.4 -7.85 Q4.4 -7.8 4.35 -7.8 L4.2 -7.85 Q4.05 -7.9 3.85 -7.95 L3.85 -8.0 3.75 -8.0 3.65 -8.0 Q3.2 -8.1 3.0 -7.95 2.85 -8.0 2.8 -7.9 L2.75 -7.75 2.8 -7.7 2.85 -7.6 2.95 -7.5 3.1 -7.3 3.15 -7.25 3.2 -7.25 3.2 -7.2 3.25 -7.15 3.25 -7.1 3.2 -7.1 3.25 -7.05 3.15 -7.05 3.15 -7.0 3.35 -7.1 Q3.4 -7.1 3.4 -7.0 L3.25 -6.8 Q3.15 -6.7 3.1 -6.55 3.05 -6.45 3.05 -6.3 L3.05 -6.1 2.95 -5.75 2.95 -5.7 Q2.95 -5.3 2.75 -4.5 L2.75 -4.3 2.65 -4.0 2.6 -3.8 2.65 -3.7 2.7 -3.7 3.15 -3.7 3.75 -3.7 3.75 -3.75 3.8 -4.05 4.0 -4.95 4.05 -5.2 4.15 -5.65 4.2 -5.9 4.25 -6.15 4.3 -6.3 Q4.3 -6.75 4.35 -7.2 4.4 -7.55 4.45 -7.75 L4.25 -8.75 Q4.0 -9.75 4.0 -10.0 L3.9 -10.2 Q3.9 -10.3 4.0 -10.4 L4.05 -10.35 4.0 -10.45 4.0 -10.5 3.9 -10.8 3.85 -11.05 3.85 -11.1 3.8 -11.3 3.75 -11.7 3.55 -12.4 3.55 -12.55 3.5 -12.65 3.45 -12.7 3.3 -12.95 3.15 -13.05 2.95 -13.2 M2.7 -3.5 L2.7 -3.35 2.6 -3.2 2.55 -3.1 Q2.45 -2.95 2.45 -2.85 L2.45 -2.75 2.45 -2.65 2.4 -2.65 2.2 -2.1 2.1 -1.85 2.15 -1.65 2.15 -1.5 2.2 -1.4 2.2 -1.05 2.25 -1.05 2.25 -0.85 2.3 -0.7 2.3 -0.65 2.3 -0.4 2.3 -0.15 2.4 0.0 2.45 0.05 2.55 0.05 2.8 -0.1 2.85 -0.1 2.85 0.0 3.25 -0.05 3.25 -0.1 Q3.25 -0.15 3.3 -0.2 3.35 -0.25 3.4 -0.25 L3.45 -0.35 3.75 -1.0 4.0 -1.6 4.05 -1.8 Q4.05 -1.95 3.75 -2.7 L3.75 -2.9 3.8 -3.2 Q3.7 -3.25 3.75 -3.35 L3.8 -3.5 3.75 -3.5 3.7 -3.5 2.7 -3.5" fill="#101010" fill-rule="evenodd" stroke="none"/>
  </g>
</svg>
