<?xml version="1.0" encoding="UTF-8" standalone="no"?>
<svg xmlns:ffdec="https://www.free-decompiler.com/flash" xmlns:xlink="http://www.w3.org/1999/xlink" ffdec:objectType="shape" height="26.4px" width="11.25px" xmlns="http://www.w3.org/2000/svg">
  <g transform="matrix(1.0, 0.0, 0.0, 1.0, -2.1, 19.2)">
    <path d="M3.5 -10.25 Q3.45 -10.25 3.45 -10.3 L3.45 -10.45 Q3.45 -10.6 3.55 -10.8 L3.65 -10.95 3.6 -11.0 3.55 -11.3 3.55 -11.5 3.65 -12.0 Q3.9 -13.05 3.9 -13.25 L3.9 -13.45 3.5 -14.75 3.3 -15.15 3.3 -15.25 Q3.3 -15.65 3.5 -16.2 L3.75 -16.75 3.8 -16.85 3.85 -16.9 3.8 -17.2 Q3.8 -17.3 4.0 -17.6 L4.1 -17.8 4.15 -17.85 4.2 -18.1 4.2 -18.55 4.25 -18.95 Q4.4 -19.2 4.75 -19.1 L4.75 -19.15 5.25 -19.1 5.9 -19.1 6.95 -18.95 Q6.95 -19.05 7.0 -19.05 L7.0 -19.0 8.45 -18.95 8.5 -18.95 8.75 -19.0 8.8 -19.0 8.8 -18.95 9.3 -18.95 9.5 -19.0 9.75 -18.9 10.05 -18.8 10.1 -18.85 10.35 -18.5 10.5 -18.2 10.55 -18.2 10.6 -18.05 10.65 -17.95 10.65 -17.9 10.7 -17.6 10.7 -17.3 10.6 -16.45 Q10.5 -15.75 10.35 -15.45 10.25 -15.25 10.2 -15.15 L10.15 -15.1 Q9.8 -14.4 9.6 -14.0 9.4 -13.65 9.4 -13.55 L9.4 -13.5 9.35 -13.15 9.3 -12.7 9.5 -12.2 9.5 -12.1 9.55 -11.95 Q9.55 -11.9 9.7 -11.55 9.5 -11.8 9.5 -11.6 L9.7 -11.3 Q9.65 -11.25 9.6 -11.15 L9.55 -11.1 9.5 -11.15 9.5 -11.2 9.5 -11.25 9.5 -11.3 9.45 -11.35 9.4 -11.35 9.35 -11.55 9.25 -11.75 9.25 -11.8 9.2 -11.85 9.0 -11.75 8.7 -11.55 8.4 -11.3 7.9 -11.0 7.7 -10.8 Q7.4 -10.6 7.25 -10.6 L7.2 -10.6 Q6.6 -10.25 6.2 -10.0 L5.7 -9.65 5.55 -9.5 5.85 -9.7 Q6.5 -10.1 6.8 -10.2 L7.0 -10.25 6.65 -10.05 6.4 -9.85 6.6 -9.95 6.65 -10.0 6.75 -10.05 Q7.45 -10.45 8.15 -10.75 L7.25 -10.3 Q7.1 -10.25 6.55 -9.95 L6.25 -9.75 6.2 -9.7 5.95 -9.55 5.85 -9.5 5.55 -9.3 5.35 -9.1 5.3 -9.1 5.25 -9.05 5.2 -8.95 5.15 -8.95 5.1 -8.9 5.15 -8.9 5.25 -8.75 5.55 -8.75 5.6 -8.85 5.85 -9.05 6.2 -9.2 6.6 -9.45 6.8 -9.55 8.0 -10.2 8.05 -10.15 8.2 -10.2 Q8.05 -10.15 8.0 -10.1 L7.75 -9.95 7.7 -9.95 7.35 -9.75 7.2 -9.65 6.7 -9.45 6.6 -9.4 6.1 -9.05 6.0 -9.0 6.0 -8.95 5.75 -8.75 Q5.5 -8.55 5.35 -8.5 L5.2 -8.5 5.15 -8.45 5.1 -8.15 5.0 -7.85 5.0 -7.75 5.0 -7.65 5.1 -6.85 5.1 -6.15 5.2 -5.3 5.2 -5.25 5.25 -4.75 Q5.2 -5.1 5.05 -5.15 L5.0 -5.4 5.0 -5.65 5.0 -5.8 4.95 -6.1 4.95 -5.9 5.0 -6.6 5.0 -6.85 4.95 -6.85 4.95 -7.7 4.75 -7.7 4.65 -7.7 4.65 -7.35 Q4.65 -6.9 4.5 -6.4 L4.45 -6.15 Q4.3 -5.7 4.05 -4.7 3.7 -3.25 3.7 -2.6 L3.7 -2.0 3.65 -1.6 3.6 -1.55 3.6 -1.25 3.45 -1.25 3.45 -1.55 Q3.45 -2.1 3.55 -2.95 3.65 -3.55 3.75 -3.85 L3.75 -4.0 Q3.85 -4.45 4.1 -5.4 L4.35 -6.3 4.35 -6.35 4.55 -7.55 4.55 -7.8 4.45 -7.85 4.45 -7.95 4.4 -8.1 4.35 -8.1 4.25 -8.35 4.25 -8.4 4.3 -8.5 4.5 -8.8 4.1 -9.0 4.05 -8.65 4.05 -8.5 Q3.9 -8.15 3.7 -7.55 L3.45 -6.7 3.25 -5.95 3.15 -5.4 Q3.1 -5.15 3.05 -4.8 2.95 -4.5 2.9 -3.95 L2.8 -3.35 2.75 -3.1 Q2.65 -2.6 2.6 -2.15 L2.6 -0.6 Q2.7 -0.15 2.7 0.45 L2.7 3.5 2.5 5.05 2.5 5.35 2.7 5.55 2.9 5.65 3.35 6.0 4.95 6.0 5.25 6.0 5.6 6.05 5.55 6.2 5.55 6.15 5.45 6.1 5.15 6.15 3.75 6.15 3.2 6.1 3.15 6.05 2.75 5.75 2.6 5.6 Q2.4 5.35 2.3 5.3 L2.4 4.8 Q2.5 4.2 2.5 4.05 L2.5 3.95 2.4 3.9 Q2.3 4.05 2.25 4.3 L2.3 3.35 2.3 1.2 2.35 -0.6 2.35 -1.35 2.6 -3.8 3.1 -5.95 3.7 -8.4 3.7 -9.2 3.75 -9.25 3.7 -9.3 3.65 -9.3 3.6 -9.35 3.6 -9.45 Q3.45 -9.6 3.4 -9.7 L3.6 -10.2 3.5 -10.25 M2.5 5.35 L2.5 5.25 2.45 5.35 2.5 5.35 M8.15 -18.85 L8.1 -18.85 8.05 -18.8 7.55 -18.8 7.2 -18.75 7.15 -18.75 7.1 -18.7 6.6 -18.7 6.1 -18.75 Q5.8 -18.8 5.7 -18.75 L5.3 -18.8 4.95 -18.85 4.7 -18.8 4.55 -18.8 4.5 -18.75 Q4.4 -18.7 4.35 -18.4 L4.35 -18.1 4.3 -18.1 4.3 -17.95 4.35 -17.65 Q4.4 -17.4 4.45 -17.25 L4.45 -17.2 Q4.55 -16.9 4.75 -16.6 L4.75 -16.55 4.85 -16.45 4.85 -16.4 Q5.0 -16.25 5.2 -16.2 L5.3 -16.15 5.55 -16.15 5.8 -16.2 5.85 -16.25 5.9 -16.25 5.75 -16.05 5.05 -16.1 4.8 -16.35 4.55 -16.85 Q4.45 -17.05 4.35 -17.15 L4.25 -17.5 4.15 -17.35 4.1 -17.3 4.1 -17.1 4.05 -16.95 4.05 -16.3 4.1 -16.2 4.1 -16.0 4.15 -15.95 4.2 -15.8 Q4.4 -15.5 4.75 -15.4 4.95 -15.4 5.35 -15.55 L5.7 -15.6 6.05 -15.85 6.1 -15.9 6.15 -15.9 6.35 -16.1 6.45 -16.15 7.25 -16.8 Q8.25 -17.65 8.65 -18.1 L8.65 -18.15 9.0 -18.4 9.05 -18.4 9.1 -18.45 9.15 -18.45 9.4 -18.55 9.9 -18.3 10.25 -18.15 10.2 -18.2 10.25 -18.2 10.15 -18.35 10.0 -18.6 9.95 -18.7 9.9 -18.75 9.7 -18.85 8.15 -18.85 M4.3 -11.1 L4.3 -11.15 4.35 -12.35 4.4 -12.9 4.45 -13.05 4.55 -13.65 4.55 -13.95 Q4.6 -14.2 4.65 -14.75 L4.65 -15.25 4.55 -15.35 Q4.35 -15.5 4.2 -15.65 L4.15 -15.8 4.05 -15.95 3.95 -16.55 3.95 -16.65 3.75 -16.2 3.55 -15.8 Q3.45 -15.55 3.45 -15.35 L3.5 -15.2 Q3.55 -14.85 3.8 -14.5 3.95 -14.3 4.0 -14.15 L4.1 -13.95 4.1 -13.35 Q4.05 -12.25 3.9 -11.75 L3.9 -11.3 Q3.9 -11.2 4.05 -10.95 L4.2 -10.75 4.1 -10.75 4.2 -10.5 4.3 -10.2 4.45 -9.85 4.45 -9.9 4.45 -9.95 4.3 -10.9 4.3 -11.1 M10.55 -17.55 L10.6 -17.55 10.6 -17.65 Q10.6 -17.85 10.15 -18.1 L9.85 -18.2 9.8 -18.25 9.5 -18.25 9.1 -18.05 9.05 -18.0 9.0 -18.0 7.5 -16.75 7.4 -16.7 Q6.9 -16.25 5.85 -15.55 L5.75 -15.5 5.7 -15.5 Q5.55 -15.4 5.35 -15.3 5.05 -15.15 5.0 -15.15 L4.8 -15.2 Q4.75 -15.1 4.75 -14.95 L4.75 -14.7 4.7 -14.15 4.55 -13.5 4.5 -13.05 4.45 -12.65 4.4 -12.15 4.4 -11.05 4.4 -11.0 Q4.45 -10.65 4.6 -9.95 L4.8 -9.3 4.8 -9.25 4.9 -9.15 Q4.95 -9.1 5.0 -9.1 L5.55 -9.6 6.65 -10.35 7.1 -10.7 7.45 -10.95 7.85 -11.2 8.2 -11.6 8.45 -11.85 Q8.85 -12.15 9.15 -12.25 L9.3 -12.3 Q9.3 -12.35 9.2 -12.4 L9.1 -12.7 9.1 -12.85 9.05 -13.0 Q9.05 -13.7 9.2 -13.9 L9.2 -14.0 9.3 -14.15 9.4 -14.2 9.5 -14.4 Q9.65 -14.6 9.8 -14.7 L9.95 -14.9 10.0 -15.0 10.2 -15.5 Q10.55 -16.4 10.55 -16.9 L10.55 -17.55 M9.85 -18.4 L9.85 -18.4 M8.5 -10.4 L8.8 -10.55 9.0 -10.7 9.4 -10.85 9.65 -11.0 10.0 -10.7 10.35 -10.35 10.45 -10.2 10.5 -10.15 11.0 -9.3 11.2 -9.0 11.3 -8.75 11.5 -8.3 11.55 -8.0 11.5 -7.9 11.55 -7.75 11.45 -7.85 11.45 -7.95 Q11.35 -8.25 11.1 -8.8 10.9 -9.25 10.75 -9.4 L10.6 -9.7 10.45 -9.95 Q10.05 -10.55 9.8 -10.75 L9.8 -10.8 9.7 -10.85 9.7 -10.8 8.75 -10.1 Q8.35 -9.85 8.15 -9.6 L8.0 -9.5 8.0 -9.45 7.95 -9.45 7.8 -9.35 7.95 -9.6 8.1 -9.7 8.2 -9.8 8.25 -9.8 8.35 -9.9 8.4 -10.0 8.45 -10.0 8.85 -10.3 9.45 -10.7 9.55 -10.75 9.5 -10.75 9.65 -10.85 9.6 -10.85 Q9.15 -10.75 8.7 -10.45 L8.65 -10.45 8.5 -10.4 M10.2 -3.45 L10.35 -3.3 10.7 -2.05 10.85 -1.35 10.9 -1.3 11.4 0.7 11.45 0.8 11.55 1.15 11.6 1.15 12.1 2.45 12.1 2.55 12.2 2.9 12.2 3.1 Q12.05 2.9 12.05 3.15 L12.25 3.6 12.45 3.9 12.4 4.0 12.5 4.1 12.55 4.1 12.5 4.15 Q12.5 4.25 12.6 4.3 L12.65 4.25 12.9 5.05 12.65 4.6 12.55 4.35 12.6 4.4 12.55 4.3 12.45 4.15 12.4 4.05 12.15 3.6 12.0 3.2 11.95 3.0 11.9 2.85 11.85 2.65 11.8 2.4 11.75 2.35 11.45 1.45 11.35 1.05 Q11.1 -0.05 10.6 -1.65 L10.25 -2.75 10.2 -2.85 10.05 -3.35 Q10.15 -3.4 10.2 -3.45 M11.9 -1.15 L11.9 -4.4 11.85 -4.9 11.85 -5.65 Q11.9 -5.1 12.05 -5.1 L12.05 -3.4 12.0 -2.25 Q12.0 -1.7 12.1 -1.3 L12.1 -1.15 12.0 -1.2 11.9 -1.15 M4.1 -10.25 L4.05 -10.45 4.05 -10.5 4.0 -10.45 3.9 -10.65 3.85 -10.65 3.75 -10.5 3.85 -10.25 3.9 -10.25 3.9 -10.15 4.05 -9.9 4.15 -9.7 4.1 -9.7 4.1 -9.65 3.95 -9.95 3.8 -10.1 3.7 -10.25 Q3.7 -10.2 3.65 -10.2 L3.6 -10.15 3.6 -9.95 3.6 -9.9 Q3.6 -9.75 3.7 -9.6 L3.75 -9.5 3.85 -9.45 3.9 -9.4 3.9 -9.35 Q4.05 -9.25 4.15 -9.15 L4.25 -9.15 4.3 -9.1 4.45 -9.05 4.65 -8.95 4.5 -9.15 4.4 -9.25 4.35 -9.25 4.35 -9.3 4.4 -9.35 Q4.45 -9.2 4.55 -9.15 L4.6 -9.2 4.6 -9.25 4.1 -10.25 M4.45 -9.85 L4.45 -9.85 M4.8 -8.65 L4.7 -8.7 4.55 -8.55 Q4.4 -8.4 4.4 -8.3 4.4 -8.25 4.4 -8.15 L4.65 -7.9 Q4.75 -7.95 4.8 -8.15 L4.85 -8.45 Q4.85 -8.65 4.8 -8.65 M4.95 -8.0 L4.95 -8.0 M5.0 -8.3 L5.0 -8.3 M6.2 -2.5 L6.15 -2.7 6.15 -2.9 6.1 -3.3 6.1 -3.45 Q6.1 -4.05 5.95 -4.4 L5.7 -4.9 Q5.5 -5.2 5.45 -5.35 L5.3 -5.8 5.1 -6.3 5.1 -6.4 5.15 -6.4 Q5.55 -5.35 6.0 -4.35 L6.0 -4.3 5.85 -4.85 5.85 -4.9 6.15 -3.95 Q6.15 -3.6 6.2 -2.6 L6.2 -2.5 M4.6 -0.75 L4.6 -0.9 4.7 -1.6 4.7 -1.85 4.75 -2.0 4.75 -2.35 4.8 -2.55 4.8 -2.9 4.85 -3.4 4.8 -3.45 4.8 -5.15 4.85 -5.25 4.85 -5.05 4.95 -3.25 5.0 -3.25 5.0 -2.9 5.0 -2.75 5.0 -2.65 4.95 -2.4 4.9 -2.3 4.9 -2.25 Q4.9 -2.1 4.85 -1.9 L4.85 -1.7 4.7 -0.7 4.75 -0.6 4.7 -0.45 4.65 -0.55 4.6 -0.65 4.6 -0.75 M12.6 3.2 L12.6 3.2 M12.95 2.9 L13.0 3.1 13.1 3.4 13.05 3.4 13.0 3.45 13.0 3.4 12.95 2.9 M7.25 6.55 L7.35 6.55 8.3 6.6 Q9.25 6.6 11.05 6.1 12.1 5.75 12.55 5.5 L12.55 5.45 Q12.7 5.45 12.85 5.4 L12.95 5.3 13.05 5.5 Q12.45 5.65 11.2 6.15 L10.8 6.35 10.6 6.4 10.3 6.5 Q9.35 6.7 8.7 6.7 L8.5 6.7 8.55 6.8 7.5 6.8 7.5 6.7 Q7.5 6.65 7.25 6.55 M6.25 6.35 L6.15 6.35 6.15 6.45 Q6.15 6.55 6.35 6.6 L6.4 6.6 7.35 6.8 7.3 6.8 6.5 6.7 6.35 6.75 6.1 6.7 6.05 6.65 5.95 5.8 Q5.9 5.2 5.9 4.9 L5.95 4.3 6.0 4.4 6.0 4.5 6.0 4.9 Q6.05 5.4 6.1 5.8 L6.1 5.85 6.2 6.3 6.25 6.35 M5.95 3.95 Q5.95 3.8 5.85 3.75 L5.8 3.95 5.8 3.8 Q5.8 2.45 5.9 0.65 L5.95 0.65 6.0 1.85 6.0 2.0 Q5.95 3.0 5.95 3.8 L5.95 3.95 M5.8 4.0 L5.75 4.1 5.75 4.0 5.8 4.0 M5.8 6.2 L5.85 6.5 5.75 6.45 5.7 6.4 5.8 6.2" fill="#111111" fill-rule="evenodd" stroke="none"/>
    <path d="M4.45 -17.25 Q4.4 -17.4 4.35 -17.65 L4.3 -17.95 4.3 -18.1 4.35 -18.1 4.35 -18.4 Q4.4 -18.7 4.5 -18.75 L4.55 -18.8 4.7 -18.8 4.95 -18.85 5.3 -18.8 5.7 -18.75 Q5.8 -18.8 6.1 -18.75 L6.6 -18.7 7.1 -18.7 7.15 -18.75 7.2 -18.75 7.55 -18.8 8.05 -18.8 8.1 -18.85 8.15 -18.85 8.2 -18.8 8.15 -18.8 Q7.25 -17.9 6.95 -17.75 6.55 -17.45 5.4 -16.9 5.2 -16.8 5.05 -16.7 L5.0 -16.75 Q4.65 -17.2 4.45 -17.25 M6.1 -15.9 L6.05 -15.85 6.1 -15.9 M4.2 -15.8 L4.15 -15.95 4.1 -16.0 4.1 -16.2 4.05 -16.3 4.05 -16.95 4.1 -17.1 4.1 -17.3 4.15 -17.35 4.25 -17.5 4.35 -17.15 Q4.45 -17.05 4.55 -16.85 L4.8 -16.35 4.8 -16.15 Q4.55 -16.05 4.3 -15.95 L4.15 -15.85 4.2 -15.8" fill="#f5f8e9" fill-rule="evenodd" stroke="none"/>
    <path d="M4.95 6.0 L3.35 6.0 2.9 5.65 2.7 5.55 2.5 5.35 2.5 5.05 2.7 3.5 2.7 0.45 Q2.7 -0.15 2.6 -0.6 L2.6 -2.15 Q2.65 -2.6 2.75 -3.1 L2.8 -3.35 2.9 -3.95 Q2.95 -4.5 3.05 -4.8 3.1 -5.15 3.15 -5.4 L3.25 -5.95 3.45 -6.7 3.7 -7.55 Q3.9 -8.15 4.05 -8.5 L4.05 -8.65 4.1 -9.0 4.5 -8.8 4.3 -8.5 4.25 -8.4 4.25 -8.35 4.35 -8.1 4.4 -8.1 4.45 -7.95 4.45 -7.85 4.55 -7.8 4.55 -7.55 4.35 -6.35 4.35 -6.3 4.1 -5.4 Q3.85 -4.45 3.75 -4.0 L3.75 -3.85 Q3.65 -3.55 3.55 -2.95 3.45 -2.1 3.45 -1.55 L3.45 -1.25 3.6 -1.25 Q3.85 -1.25 4.25 -0.9 L4.65 -0.55 4.7 -0.45 4.75 -0.6 4.7 -0.7 4.85 -1.7 4.85 -1.9 Q4.9 -2.1 4.9 -2.25 L4.9 -2.3 4.95 -2.35 4.95 -2.3 5.0 -2.5 Q5.0 -2.65 5.1 -2.75 L5.4 -2.7 5.45 -2.75 5.45 -2.7 5.6 -2.6 Q5.9 -2.55 6.25 -2.35 L6.2 -2.5 6.2 -2.6 Q6.15 -3.6 6.15 -3.95 L5.85 -4.9 5.8 -4.95 5.8 -5.0 Q5.2 -6.6 5.0 -7.75 L5.0 -7.85 5.1 -8.15 5.15 -8.45 5.2 -8.5 5.35 -8.5 Q5.5 -8.55 5.75 -8.75 L6.0 -8.95 6.0 -9.0 6.1 -9.05 6.6 -9.4 6.7 -9.45 7.2 -9.65 7.35 -9.75 7.7 -9.95 7.75 -9.95 8.0 -10.1 Q8.05 -10.15 8.2 -10.2 L8.5 -10.4 8.65 -10.45 Q8.2 -10.15 8.2 -9.9 L8.2 -9.85 8.25 -9.8 8.2 -9.8 8.1 -9.7 7.95 -9.6 7.7 -9.35 Q7.0 -8.6 7.0 -8.4 7.0 -8.35 7.05 -8.35 L7.15 -8.3 7.5 -8.5 Q7.9 -8.7 8.45 -8.9 8.5 -8.95 8.6 -9.0 L8.65 -9.05 8.65 -9.0 8.7 -9.0 9.65 -8.05 9.75 -7.8 10.1 -6.9 Q10.2 -6.55 10.25 -6.1 L10.35 -5.35 10.45 -4.15 Q10.4 -3.65 10.2 -3.45 10.15 -3.4 10.05 -3.35 10.55 -1.45 11.1 0.45 11.6 2.05 11.95 3.0 L12.0 3.2 12.15 3.6 12.4 4.05 12.45 4.15 12.55 4.35 12.65 4.6 12.9 5.05 12.95 5.3 12.85 5.4 Q12.7 5.45 12.55 5.45 L12.55 5.5 Q12.1 5.75 11.05 6.1 9.25 6.6 8.3 6.6 L7.35 6.55 7.25 6.55 6.9 6.45 6.25 6.35 6.2 6.3 6.25 6.2 6.1 5.85 6.1 5.8 Q6.05 5.4 6.0 4.9 L6.0 4.5 6.0 2.0 6.0 1.85 6.05 0.55 6.0 0.5 5.95 0.35 5.9 0.35 5.5 1.15 Q5.4 1.4 5.25 1.85 L5.3 2.4 5.25 2.8 5.1 4.55 4.95 5.95 4.95 6.0 M6.35 6.6 L6.4 6.6 6.35 6.6" fill="#cce6f9" fill-rule="evenodd" stroke="none"/>
    <path d="M4.05 -10.95 Q3.9 -11.2 3.9 -11.3 L3.9 -11.75 Q4.05 -12.25 4.1 -13.35 L4.1 -13.95 4.0 -14.15 Q3.95 -14.3 3.8 -14.5 3.55 -14.85 3.5 -15.2 L3.45 -15.35 Q3.45 -15.55 3.55 -15.8 L3.75 -16.2 3.95 -16.65 3.95 -16.55 4.05 -15.95 4.15 -15.8 4.2 -15.65 Q4.35 -15.5 4.55 -15.35 L4.65 -15.25 4.65 -14.75 Q4.6 -14.2 4.55 -13.95 L4.55 -13.65 4.45 -13.05 4.4 -12.9 4.35 -12.35 4.3 -11.15 4.3 -11.1 4.3 -10.9 4.3 -11.0 Q4.15 -11.0 4.05 -10.95 M4.4 -11.05 L4.4 -12.15 4.45 -12.65 4.5 -13.05 4.55 -13.5 4.7 -14.15 4.75 -14.7 4.75 -14.95 Q4.75 -15.1 4.8 -15.2 L5.0 -15.15 Q5.05 -15.15 5.35 -15.3 5.55 -15.4 5.7 -15.5 L5.75 -15.5 5.85 -15.55 Q6.9 -16.25 7.4 -16.7 L7.5 -16.75 9.0 -18.0 9.05 -18.0 9.1 -18.05 9.5 -18.25 9.8 -18.25 9.85 -18.2 10.15 -18.1 Q10.6 -17.85 10.6 -17.65 L10.6 -17.55 10.55 -17.55 10.5 -17.55 Q10.35 -18.15 9.45 -16.9 9.3 -16.65 9.25 -16.3 L9.15 -15.8 Q9.0 -15.3 8.7 -14.9 L8.7 -14.85 Q8.7 -14.1 7.6 -13.6 L6.95 -13.6 6.95 -13.55 Q7.2 -13.5 7.45 -13.35 L7.55 -13.25 7.6 -13.25 7.75 -13.1 Q8.0 -12.95 8.2 -12.7 L8.2 -12.5 Q8.3 -12.3 8.3 -12.05 8.35 -11.9 8.45 -11.85 L8.2 -11.6 7.85 -11.2 7.45 -10.95 7.1 -10.7 6.65 -10.35 5.55 -9.6 Q5.15 -10.25 4.75 -10.7 L4.4 -11.05 M4.85 -13.65 L4.85 -13.65 M4.75 -13.6 L4.75 -13.6 M5.35 -11.7 L5.4 -11.75 5.25 -11.7 5.35 -11.7" fill="#cdd7f8" fill-rule="evenodd" stroke="none"/>
    <path d="M3.6 -1.55 L3.65 -1.6 3.7 -2.0 3.7 -2.6 Q3.7 -3.25 4.05 -4.7 4.3 -5.7 4.45 -6.15 L4.5 -6.4 Q4.65 -6.9 4.65 -7.35 L4.65 -7.7 4.75 -7.7 4.8 -7.55 4.8 -7.45 Q4.85 -7.25 4.85 -6.9 4.6 -2.6 4.35 -1.3 L4.3 -1.45 4.25 -1.4 4.2 -1.4 4.2 -1.25 4.25 -1.2 4.0 -1.4 Q3.8 -1.6 3.65 -1.55 L3.6 -1.55 M5.0 -5.4 L5.05 -5.15 5.0 -5.15 5.0 -5.4 M6.6 -9.45 L6.2 -9.2 5.85 -9.05 5.6 -8.85 5.55 -8.75 5.25 -8.75 5.15 -8.9 5.1 -8.9 5.15 -8.95 5.2 -8.95 5.25 -9.05 5.3 -9.1 5.35 -9.1 5.55 -9.3 5.85 -9.5 5.95 -9.55 6.2 -9.7 6.25 -9.75 6.55 -9.95 6.55 -9.9 6.9 -10.1 7.3 -10.25 7.6 -10.45 7.85 -10.55 Q8.4 -10.85 8.7 -10.9 L8.75 -10.8 8.45 -10.6 7.95 -10.25 7.95 -10.2 7.55 -10.0 6.4 -9.5 6.45 -9.4 6.45 -9.35 Q6.55 -9.4 6.6 -9.45 M6.6 -9.95 L6.4 -9.85 6.65 -10.05 6.6 -9.95 M6.8 -10.2 Q6.5 -10.1 5.85 -9.7 L5.55 -9.5 5.7 -9.65 6.2 -10.0 Q6.6 -10.25 7.2 -10.6 L7.2 -10.55 6.95 -10.35 6.8 -10.2 M9.5 -11.25 L9.5 -11.2 9.5 -11.15 9.55 -11.1 9.45 -11.1 9.5 -11.15 9.5 -11.2 9.45 -11.2 9.5 -11.25 M8.45 -10.65 L8.45 -10.65 M3.85 -10.25 L3.75 -10.5 3.85 -10.65 3.9 -10.65 4.0 -10.45 4.05 -10.5 4.05 -10.45 4.1 -10.25 4.15 -10.2 4.05 -10.1 3.95 -10.15 3.9 -10.15 3.9 -10.25 3.9 -10.3 3.85 -10.25 M4.35 -9.3 L4.35 -9.25 4.4 -9.25 Q4.4 -9.2 4.25 -9.2 L4.1 -9.25 4.15 -9.15 Q4.05 -9.25 3.9 -9.35 L3.9 -9.4 3.85 -9.45 3.75 -9.5 3.7 -9.6 Q3.6 -9.75 3.6 -9.9 L3.6 -9.95 3.6 -10.0 3.7 -10.25 3.8 -10.1 3.75 -10.05 4.0 -9.8 Q4.2 -9.5 4.35 -9.35 L4.35 -9.3 M5.0 -5.65 L5.0 -5.65 M4.6 -0.75 L4.6 -0.65 4.55 -0.75 4.6 -0.75 M5.0 -2.75 L5.0 -2.9 5.0 -2.8 5.0 -2.75" fill="#993333" fill-rule="evenodd" stroke="none"/>
    <path d="M4.05 -10.95 Q4.15 -11.0 4.3 -11.0 L4.3 -10.9 4.45 -9.95 4.45 -9.9 4.45 -9.85 4.3 -10.2 4.2 -10.5 4.1 -10.75 4.2 -10.75 4.05 -10.95 M4.4 -11.05 L4.75 -10.7 Q5.15 -10.25 5.55 -9.6 L5.0 -9.1 Q4.95 -9.1 4.9 -9.15 L4.8 -9.25 4.8 -9.3 4.6 -9.95 Q4.45 -10.65 4.4 -11.0 L4.4 -11.05 M8.45 -11.85 Q8.35 -11.9 8.3 -12.05 8.3 -12.3 8.2 -12.5 L8.2 -12.7 Q8.0 -12.95 7.75 -13.1 L7.6 -13.25 7.55 -13.25 7.45 -13.35 Q7.2 -13.5 6.95 -13.55 L6.95 -13.6 7.6 -13.6 Q8.7 -14.1 8.7 -14.85 L8.7 -14.9 Q9.0 -15.3 9.15 -15.8 L9.25 -16.3 Q9.3 -16.65 9.45 -16.9 10.35 -18.15 10.5 -17.55 L10.55 -17.55 10.55 -16.9 Q10.55 -16.4 10.2 -15.5 L10.0 -15.0 9.95 -14.9 9.8 -14.7 Q9.65 -14.6 9.5 -14.4 L9.4 -14.2 9.3 -14.15 9.2 -14.0 9.2 -13.9 Q9.05 -13.7 9.05 -13.0 L9.1 -12.85 9.1 -12.7 9.2 -12.4 Q9.3 -12.35 9.3 -12.3 L9.15 -12.25 Q8.85 -12.15 8.45 -11.85 M4.85 -13.65 L4.85 -13.65 M4.75 -13.6 L4.75 -13.6 M5.35 -11.7 L5.25 -11.7 5.4 -11.75 5.35 -11.7" fill="#8da4ef" fill-rule="evenodd" stroke="none"/>
    <path d="M8.15 -18.85 L9.7 -18.85 9.9 -18.75 9.95 -18.7 10.0 -18.6 10.15 -18.35 10.25 -18.2 10.2 -18.2 10.25 -18.15 9.9 -18.3 9.4 -18.55 9.15 -18.45 9.1 -18.45 9.05 -18.4 9.0 -18.4 8.65 -18.15 8.65 -18.1 Q8.25 -17.65 7.25 -16.8 L6.45 -16.15 6.35 -16.1 6.15 -15.9 6.1 -15.9 6.05 -15.85 5.7 -15.6 5.35 -15.55 Q4.95 -15.4 4.75 -15.4 4.4 -15.5 4.2 -15.8 L4.15 -15.85 4.3 -15.95 Q4.55 -16.05 4.8 -16.15 L4.8 -16.35 5.05 -16.1 5.75 -16.05 5.9 -16.25 5.85 -16.25 5.8 -16.2 5.55 -16.15 5.3 -16.15 5.2 -16.2 Q5.0 -16.25 4.85 -16.4 L4.85 -16.45 4.75 -16.55 4.75 -16.6 Q4.55 -16.9 4.45 -17.2 L4.45 -17.25 Q4.65 -17.2 5.0 -16.75 L5.05 -16.7 Q5.2 -16.8 5.4 -16.9 6.55 -17.45 6.95 -17.75 7.25 -17.9 8.15 -18.8 L8.2 -18.8 8.15 -18.85 M9.85 -18.4 L9.85 -18.4" fill="#a6b08e" fill-rule="evenodd" stroke="none"/>
    <path d="M4.75 -7.7 L4.95 -7.7 4.95 -6.85 5.0 -6.85 5.0 -6.6 4.95 -5.9 4.95 -6.1 5.0 -5.8 5.0 -5.65 5.0 -5.4 5.0 -5.15 5.05 -5.15 Q5.2 -5.1 5.25 -4.75 L5.2 -5.25 5.2 -5.3 5.1 -6.15 5.3 -5.65 Q5.45 -5.25 5.8 -4.6 6.05 -4.2 6.05 -3.35 6.0 -2.85 6.05 -2.55 L5.85 -2.65 Q5.35 -2.75 5.2 -2.9 5.1 -2.8 5.0 -2.8 L5.0 -2.9 5.0 -3.25 4.95 -3.25 4.85 -5.05 4.85 -5.25 4.8 -5.15 4.8 -3.45 4.85 -3.4 4.8 -2.9 4.8 -2.55 4.75 -2.35 4.75 -2.0 4.7 -1.85 4.7 -1.6 4.6 -0.9 4.6 -0.75 4.55 -0.75 4.25 -1.2 4.2 -1.25 4.2 -1.4 4.25 -1.4 4.3 -1.45 4.35 -1.3 Q4.6 -2.6 4.85 -6.9 4.85 -7.25 4.8 -7.45 L4.8 -7.55 4.75 -7.7 M8.0 -10.2 L6.8 -9.55 6.6 -9.45 Q6.55 -9.4 6.45 -9.35 L6.45 -9.4 6.4 -9.5 7.55 -10.0 7.95 -10.2 8.0 -10.2 M6.55 -9.95 Q7.1 -10.25 7.25 -10.3 L8.15 -10.75 Q7.45 -10.45 6.75 -10.05 L6.65 -10.0 6.6 -9.95 6.65 -10.05 7.0 -10.25 6.8 -10.2 6.95 -10.35 7.2 -10.55 7.2 -10.6 7.25 -10.6 Q7.4 -10.6 7.7 -10.8 L7.9 -11.0 8.4 -11.3 8.7 -11.55 9.0 -11.75 9.2 -11.85 9.25 -11.8 9.25 -11.75 9.35 -11.55 9.4 -11.35 9.45 -11.35 9.5 -11.3 9.5 -11.25 9.45 -11.2 9.5 -11.2 9.5 -11.15 9.45 -11.1 9.1 -10.95 Q8.95 -10.9 8.75 -10.8 L8.7 -10.9 Q8.4 -10.85 7.85 -10.55 L7.6 -10.45 7.3 -10.25 6.9 -10.1 6.55 -9.9 6.55 -9.95 M8.45 -10.65 L8.45 -10.65 M3.85 -10.25 L3.9 -10.3 3.9 -10.25 3.85 -10.25 M3.9 -10.15 L3.95 -10.15 4.05 -10.1 4.15 -10.2 4.1 -10.25 4.6 -9.25 4.6 -9.2 4.55 -9.15 Q4.45 -9.2 4.4 -9.35 L4.35 -9.3 4.35 -9.35 Q4.2 -9.5 4.0 -9.8 L3.75 -10.05 3.8 -10.1 3.95 -9.95 4.1 -9.65 4.1 -9.7 4.15 -9.7 4.05 -9.9 3.9 -10.15 M4.4 -9.25 L4.5 -9.15 4.65 -8.95 4.45 -9.05 4.3 -9.1 4.25 -9.15 4.15 -9.15 4.1 -9.25 4.25 -9.2 Q4.4 -9.2 4.4 -9.25 M4.8 -8.65 Q4.85 -8.65 4.85 -8.45 L4.8 -8.15 Q4.75 -7.95 4.65 -7.9 L4.4 -8.15 Q4.4 -8.25 4.4 -8.3 4.4 -8.4 4.55 -8.55 L4.7 -8.7 4.8 -8.65 M5.0 -5.65 L5.0 -5.65" fill="#6a1730" fill-rule="evenodd" stroke="none"/>
    <path d="M5.6 6.05 L5.25 6.0 4.95 6.0 4.95 5.95 5.1 4.55 5.25 2.8 5.3 2.4 5.25 1.85 Q5.4 1.4 5.5 1.15 L5.9 0.35 5.95 0.35 6.0 0.5 6.05 0.55 6.0 1.85 5.95 0.65 5.9 0.65 Q5.8 2.45 5.8 3.8 L5.8 3.95 5.8 4.0 5.75 4.0 5.75 4.1 5.75 4.3 5.7 4.85 5.75 5.6 Q5.65 5.65 5.6 5.85 L5.6 6.05 M8.65 -10.45 L8.7 -10.45 Q9.15 -10.75 9.6 -10.85 L9.65 -10.85 9.5 -10.75 9.55 -10.75 9.45 -10.7 8.85 -10.3 8.45 -10.0 8.4 -10.0 8.35 -9.9 8.25 -9.8 8.2 -9.85 8.2 -9.9 Q8.2 -10.15 8.65 -10.45 M7.95 -9.6 L7.8 -9.35 7.95 -9.45 8.0 -9.45 8.0 -9.5 8.15 -9.6 Q8.35 -9.85 8.75 -10.1 L9.7 -10.8 9.7 -10.85 9.8 -10.8 9.8 -10.75 Q10.05 -10.55 10.45 -9.95 L10.6 -9.7 10.75 -9.4 Q10.9 -9.25 11.1 -8.8 11.35 -8.25 11.45 -7.95 L11.45 -7.85 11.55 -7.75 11.65 -7.25 11.75 -6.5 11.85 -5.65 11.85 -4.9 11.9 -4.4 11.9 -1.15 11.9 -1.05 Q11.9 -0.75 12.3 1.15 L12.6 2.4 12.8 3.4 12.8 3.5 Q12.7 3.6 12.6 3.7 L12.35 3.3 12.2 3.1 12.2 2.9 12.1 2.55 12.1 2.45 11.6 1.15 11.55 1.15 11.45 0.8 11.4 0.7 10.9 -1.3 10.85 -1.35 10.7 -2.05 10.35 -3.3 10.2 -3.45 Q10.4 -3.65 10.45 -4.15 L10.35 -5.35 10.25 -6.1 Q10.2 -6.55 10.1 -6.9 L9.75 -7.8 9.65 -8.05 8.7 -9.0 8.65 -9.0 8.65 -9.05 8.6 -9.0 Q8.5 -8.95 8.45 -8.9 7.9 -8.7 7.5 -8.5 L7.15 -8.3 7.05 -8.35 Q7.0 -8.35 7.0 -8.4 7.0 -8.6 7.7 -9.35 L7.95 -9.6 M10.05 -3.35 L10.2 -2.85 10.25 -2.75 10.6 -1.65 Q11.1 -0.05 11.35 1.05 L11.45 1.45 11.75 2.35 11.8 2.4 11.85 2.65 11.9 2.85 11.95 3.0 Q11.6 2.05 11.1 0.45 10.55 -1.45 10.05 -3.35 M12.45 4.15 L12.55 4.3 12.6 4.4 12.55 4.35 12.45 4.15 M12.6 3.2 L12.6 3.2 M5.95 4.3 L5.95 3.95 5.95 3.8 Q5.95 3.0 6.0 2.0 L6.0 4.5 6.0 4.4 5.95 4.3 M6.1 5.85 L6.25 6.2 6.2 6.3 6.1 5.85" fill="#7b9cc4" fill-rule="evenodd" stroke="none"/>
    <path d="M3.5 -10.25 L3.6 -10.2 3.4 -9.7 Q3.45 -9.6 3.6 -9.45 L3.6 -9.35 3.65 -9.3 3.55 -9.45 Q3.35 -9.65 3.35 -9.75 3.35 -9.9 3.45 -10.15 L3.5 -10.25 M2.25 4.3 Q2.3 4.05 2.4 3.9 L2.5 3.95 2.5 4.05 Q2.5 4.2 2.4 4.8 L2.3 5.3 Q2.4 5.35 2.6 5.6 L2.75 5.75 3.15 6.05 3.2 6.1 3.75 6.15 5.15 6.15 5.45 6.1 5.55 6.15 5.55 6.2 5.6 6.05 5.6 5.85 Q5.65 5.65 5.75 5.6 L5.7 4.85 5.75 4.3 5.75 4.1 5.8 4.0 5.8 3.95 5.85 3.75 Q5.95 3.8 5.95 3.95 L5.95 4.3 5.9 4.9 Q5.9 5.2 5.95 5.8 L6.05 6.65 6.1 6.7 6.35 6.75 6.5 6.7 7.3 6.8 7.35 6.8 6.4 6.6 6.35 6.6 Q6.15 6.55 6.15 6.45 L6.15 6.35 6.25 6.35 6.9 6.45 7.25 6.55 Q7.5 6.65 7.5 6.7 L7.5 6.8 8.55 6.8 8.5 6.7 8.7 6.7 Q9.35 6.7 10.3 6.5 L10.6 6.4 10.8 6.35 11.2 6.15 Q12.45 5.65 13.05 5.5 L12.95 5.3 12.9 5.05 12.65 4.25 12.6 4.3 Q12.5 4.25 12.5 4.15 L12.55 4.1 12.5 4.1 12.4 4.0 12.45 3.9 12.25 3.6 12.05 3.15 Q12.05 2.9 12.2 3.1 L12.35 3.3 12.6 3.7 Q12.7 3.6 12.8 3.5 L12.8 3.4 12.6 2.4 12.3 1.15 Q11.9 -0.75 11.9 -1.05 L11.9 -1.15 12.0 -1.2 12.1 -1.15 12.1 -1.3 Q12.0 -1.7 12.0 -2.25 L12.05 -3.4 12.05 -5.1 Q11.9 -5.1 11.85 -5.65 L11.75 -6.5 11.65 -7.25 11.55 -7.75 11.5 -7.9 11.55 -8.0 11.5 -8.3 11.3 -8.75 11.2 -9.0 11.0 -9.3 10.5 -10.15 10.45 -10.2 10.35 -10.35 10.0 -10.7 9.65 -11.0 9.4 -10.85 9.0 -10.7 8.8 -10.55 8.5 -10.4 8.2 -10.2 8.05 -10.15 8.0 -10.2 7.95 -10.2 7.95 -10.25 8.45 -10.6 8.75 -10.8 Q8.95 -10.9 9.1 -10.95 L9.45 -11.1 9.55 -11.1 9.6 -11.15 Q9.65 -11.25 9.7 -11.3 L9.5 -11.6 Q9.5 -11.8 9.7 -11.55 L9.75 -11.5 9.95 -11.2 Q9.9 -11.15 9.9 -11.05 9.9 -10.95 10.0 -10.95 L10.1 -10.95 10.3 -10.75 11.35 -9.25 11.4 -9.05 11.7 -8.6 11.7 -8.55 Q11.9 -8.35 12.0 -7.85 12.15 -7.55 12.15 -7.25 L12.15 -7.1 12.2 -6.75 12.2 -5.55 Q12.15 -4.75 12.15 -3.8 12.15 -3.3 12.2 -2.8 L12.2 -2.15 12.15 -1.8 12.15 -1.7 12.55 0.05 12.7 0.8 13.0 2.05 13.2 2.7 13.35 3.65 13.35 3.7 13.3 3.75 Q13.25 3.85 13.05 4.0 L12.8 4.2 Q12.95 4.35 13.05 4.7 L13.2 5.4 12.75 5.95 Q12.45 6.15 11.8 6.4 10.75 6.85 9.8 7.0 L8.6 7.2 7.7 7.2 6.95 7.1 6.7 7.1 6.25 7.0 6.15 7.0 6.1 6.95 Q5.65 6.65 5.4 6.5 5.4 6.4 5.2 6.4 L3.85 6.4 3.45 6.3 3.0 6.15 2.6 5.75 2.1 5.3 Q2.15 4.7 2.25 4.3 M3.6 -1.25 L3.6 -1.55 3.65 -1.55 Q3.8 -1.6 4.0 -1.4 L4.25 -1.2 4.55 -0.75 4.6 -0.65 4.65 -0.55 4.25 -0.9 Q3.85 -1.25 3.6 -1.25 M5.1 -6.15 L5.1 -6.85 5.0 -7.65 5.0 -7.75 Q5.2 -6.6 5.8 -5.0 L5.8 -4.95 5.85 -4.9 5.85 -4.85 6.0 -4.3 6.0 -4.35 Q5.55 -5.35 5.15 -6.4 L5.1 -6.4 5.1 -6.3 5.3 -5.8 5.45 -5.35 Q5.5 -5.2 5.7 -4.9 L5.95 -4.4 Q6.1 -4.05 6.1 -3.45 L6.1 -3.3 6.15 -2.9 6.15 -2.7 6.2 -2.5 6.25 -2.35 Q5.9 -2.55 5.6 -2.6 L5.45 -2.7 5.45 -2.75 5.4 -2.7 5.1 -2.75 Q5.0 -2.65 5.0 -2.5 L4.95 -2.3 4.95 -2.35 4.9 -2.3 4.95 -2.4 5.0 -2.65 5.0 -2.75 5.0 -2.8 Q5.1 -2.8 5.2 -2.9 5.35 -2.75 5.85 -2.65 L6.05 -2.55 Q6.0 -2.85 6.05 -3.35 6.05 -4.2 5.8 -4.6 5.45 -5.25 5.3 -5.65 L5.1 -6.15 M10.1 -18.85 L10.05 -18.8 9.75 -18.9 9.5 -19.0 9.3 -18.95 8.8 -18.95 8.8 -19.0 Q8.95 -19.15 9.2 -19.2 L9.75 -19.0 10.05 -18.95 10.1 -18.85 M3.6 -9.95 L3.6 -10.15 3.65 -10.2 Q3.7 -10.2 3.7 -10.25 L3.6 -10.0 3.6 -9.95 M12.95 2.9 L13.0 3.4 13.0 3.45 13.05 3.4 13.1 3.4 13.0 3.1 12.95 2.9 M5.8 6.2 L5.7 6.4 5.75 6.45 5.85 6.5 5.8 6.2 M8.7 7.05 L8.7 7.05" fill="#101010" fill-rule="evenodd" stroke="none"/>
    <path d="M4.45 -9.85 L4.45 -9.9" fill="none" stroke="#101010" stroke-linecap="round" stroke-linejoin="round" stroke-width="0.0"/>
  </g>
</svg>
