<?xml version="1.0" encoding="UTF-8" standalone="no"?>
<svg xmlns:ffdec="https://www.free-decompiler.com/flash" xmlns:xlink="http://www.w3.org/1999/xlink" ffdec:objectType="shape" height="12.25px" width="16.3px" xmlns="http://www.w3.org/2000/svg">
  <g transform="matrix(1.0, 0.0, 0.0, 1.0, 8.15, 6.15)">
    <path d="M2.55 -5.75 L2.95 -5.6 3.3 -5.45 3.35 -5.45 3.5 -5.4 3.5 -5.35 3.55 -5.35 3.7 -5.3 3.75 -5.25 3.85 -5.2 Q4.8 -4.7 4.9 -4.7 L4.95 -4.6 Q5.25 -4.55 5.85 -4.0 L5.9 -3.95 Q5.9 -3.9 6.15 -3.7 L6.35 -3.5 6.45 -3.35 6.6 -3.1 6.65 -3.05 Q6.7 -2.95 6.8 -2.75 L6.9 -2.6 7.1 -2.2 7.15 -2.2 7.35 -1.7 7.55 -1.35 7.55 -1.4 7.6 -1.3 7.65 -1.15 7.8 -0.65 7.85 -0.4 8.05 0.45 8.05 1.0 8.1 1.2 8.1 2.4 8.05 2.4 Q8.05 2.85 7.95 3.3 7.85 3.85 7.6 4.1 L7.55 4.05 7.55 4.1 7.5 4.1 7.45 4.05 7.3 4.15 7.25 4.15 7.1 4.2 Q6.65 4.45 5.85 4.65 5.8 4.7 5.55 4.75 L5.35 4.8 5.05 4.9 5.0 4.9 4.85 4.95 Q4.7 5.0 4.55 5.05 L3.95 5.25 3.55 5.3 3.4 5.35 2.75 5.55 2.65 5.55 Q2.0 5.9 1.35 5.95 0.75 6.1 0.4 6.1 -0.4 6.1 -1.55 5.85 L-2.55 5.6 -5.4 5.6 Q-5.7 5.55 -6.0 5.6 -6.15 5.6 -6.25 5.5 L-6.65 5.4 -6.9 5.4 -7.15 5.3 -7.35 5.25 Q-7.6 5.15 -7.75 4.9 -7.8 4.8 -7.9 4.7 L-7.9 4.65 -8.05 4.3 Q-8.15 3.85 -8.15 3.35 L-8.15 2.85 Q-8.1 2.15 -7.9 1.0 -7.75 0.2 -7.65 -0.45 L-7.65 -0.6 Q-7.55 -0.95 -7.55 -1.15 L-7.55 -2.75 -7.55 -2.9 -7.5 -3.05 -7.4 -3.15 -7.25 -3.35 -7.25 -3.4 -7.2 -3.4 -5.85 -4.3 Q-5.35 -4.6 -4.3 -5.05 L-3.25 -5.4 -2.6 -5.6 -2.55 -5.6 -2.4 -5.65 -2.25 -5.65 -1.95 -5.75 -1.45 -5.85 Q-1.15 -6.0 -0.2 -6.05 L1.1 -6.15 1.35 -6.1 1.45 -6.1 2.0 -5.95 2.2 -5.85 2.45 -5.75 2.55 -5.75 M7.65 -0.1 L7.5 -0.6 7.25 -1.35 6.65 -2.4 Q6.4 -2.9 6.25 -3.1 L4.8 -4.3 4.75 -4.3 Q4.65 -4.3 4.55 -4.4 4.45 -4.4 4.45 -4.45 L4.3 -4.5 4.2 -4.55 3.75 -4.75 3.6 -4.85 Q3.1 -4.5 2.8 -4.15 2.7 -4.15 2.35 -3.75 L2.2 -3.6 2.05 -3.5 1.95 -3.4 1.9 -3.35 1.75 -3.15 1.4 -2.8 1.35 -2.65 1.1 -2.45 0.9 -2.2 Q0.6 -1.75 -0.7 -0.5 -2.35 1.1 -2.85 1.35 L-2.1 0.65 Q-3.45 1.65 -4.3 1.75 L-4.45 1.6 -4.4 1.6 Q-3.85 1.6 -3.05 1.1 -2.35 0.7 -1.45 -0.15 -0.3 -1.15 0.4 -2.1 L0.75 -2.45 Q0.95 -2.75 1.45 -3.2 L2.0 -3.75 2.1 -3.85 2.25 -3.95 2.45 -4.1 2.8 -4.4 2.9 -4.5 3.05 -4.65 Q3.25 -4.8 3.45 -4.9 L3.2 -5.05 3.05 -5.1 3.0 -5.15 2.9 -5.2 2.35 -5.5 1.8 -5.65 Q1.55 -5.75 1.45 -5.8 L1.3 -5.85 0.0 -5.85 -0.05 -5.85 -0.8 -5.75 -1.15 -5.7 -1.35 -5.7 -1.5 -5.65 -1.7 -5.6 -1.75 -5.55 -1.8 -5.55 -2.45 -5.45 -2.45 -5.4 -2.7 -5.35 Q-3.1 -5.2 -3.2 -5.2 L-3.45 -5.1 -3.75 -5.0 -4.45 -4.75 -4.55 -4.65 -4.5 -4.65 -4.55 -4.6 -4.65 -4.55 -4.7 -4.5 -5.05 -4.1 -5.2 -3.95 -5.55 -3.55 -5.6 -3.45 -5.65 -3.3 -5.7 -3.35 -5.8 -3.15 -5.9 -2.9 -5.9 -2.6 -5.85 -2.45 -5.9 -2.45 Q-5.85 -2.25 -5.85 -1.95 L-5.75 -1.3 -5.65 -0.4 -5.65 -0.25 -5.3 0.35 -5.1 0.5 -5.05 0.55 Q-4.3 1.2 -4.0 1.25 L-3.95 1.35 Q-4.0 1.4 -4.2 1.4 L-4.25 1.4 Q-4.35 1.4 -4.5 1.3 L-4.85 1.05 -4.9 1.0 -4.75 1.3 -4.75 1.25 -4.7 1.25 -4.7 1.35 -4.85 1.25 Q-5.25 0.85 -5.4 0.55 -5.7 -0.1 -5.8 -0.3 L-5.8 -0.35 -5.85 -0.5 Q-6.05 -1.2 -6.05 -2.3 L-6.05 -2.55 Q-6.05 -2.95 -5.95 -3.1 L-5.5 -3.8 -5.0 -4.4 -5.1 -4.4 -5.1 -4.35 -5.3 -4.25 -5.65 -4.05 -6.15 -3.8 -6.2 -3.75 -6.7 -3.3 -7.05 -3.05 -7.05 -3.0 -7.3 -2.75 -7.3 -2.55 Q-7.25 -2.4 -7.2 -2.1 L-7.1 -1.5 -7.1 -0.85 -7.15 -0.8 Q-7.15 -0.4 -7.25 0.05 L-7.3 0.5 -7.3 0.55 -7.4 1.1 -7.35 0.95 -7.55 1.75 Q-7.65 2.2 -7.65 2.6 L-7.7 2.8 -7.75 2.85 -7.75 3.25 -7.75 3.5 -7.65 3.8 -7.6 3.9 -7.5 4.05 Q-6.95 5.0 -5.65 5.35 L-5.6 5.4 -5.45 5.45 -4.35 5.45 -2.9 5.45 Q-3.15 5.3 -3.3 5.2 L-3.7 4.9 -3.75 4.8 -3.75 4.75 -3.75 4.7 -3.65 4.7 -3.4 4.8 -3.05 4.95 -2.75 5.1 Q-2.35 5.25 -2.3 5.3 -1.95 5.5 -0.9 5.65 L-0.7 5.65 -0.1 5.7 1.25 5.7 Q2.65 5.35 3.7 4.45 L4.35 3.95 4.8 3.65 Q4.65 4.0 4.65 4.25 L4.6 4.3 4.55 4.45 4.5 4.45 4.45 4.55 Q4.2 4.8 3.6 5.1 L3.85 5.0 4.15 4.9 4.85 4.75 5.3 4.6 5.35 4.6 6.45 4.25 Q7.2 3.95 7.4 3.85 L7.5 3.8 7.55 3.7 7.65 3.4 7.75 2.95 Q7.85 2.75 7.9 2.45 L7.9 2.25 Q7.8 2.05 7.8 1.6 L7.75 0.55 7.75 0.4 7.65 -0.1 M2.0 -3.75 L2.0 -3.75 M-5.9 -2.55 L-5.9 -2.55 M-4.55 -4.6 L-4.55 -4.6" fill="#000000" fill-rule="evenodd" stroke="none"/>
    <path d="M7.25 4.15 L7.3 4.15 7.45 4.05 7.5 4.1 Q7.4 4.15 7.3 4.15 L7.25 4.15 M2.05 -3.5 L2.2 -3.6 2.35 -3.75 Q2.7 -4.15 2.8 -4.15 3.1 -4.5 3.6 -4.85 L3.75 -4.75 4.2 -4.55 4.3 -4.5 4.45 -4.45 Q4.45 -4.4 4.55 -4.4 4.65 -4.3 4.75 -4.3 L4.8 -4.3 6.25 -3.1 Q6.4 -2.9 6.65 -2.4 L7.25 -1.35 7.5 -0.6 7.65 -0.1 7.7 0.3 7.75 0.55 7.8 1.6 Q7.8 2.05 7.9 2.25 L7.9 2.45 Q7.85 2.75 7.75 2.95 L7.65 3.4 7.55 3.7 7.5 3.8 7.4 3.85 Q7.2 3.95 6.45 4.25 L5.35 4.6 5.3 4.6 4.85 4.75 4.15 4.9 3.85 5.0 3.6 5.1 Q4.2 4.8 4.45 4.55 L4.5 4.45 4.55 4.45 4.6 4.3 4.65 4.25 Q4.65 4.0 4.8 3.65 L4.35 3.95 3.7 4.45 Q2.65 5.35 1.25 5.7 L-0.1 5.7 -0.7 5.65 -0.9 5.65 -0.7 5.4 1.25 3.8 Q4.0 1.55 4.0 0.8 4.0 0.2 3.0 -1.65 L2.3 -2.9 2.2 -3.05 Q2.05 -3.3 2.05 -3.45 L2.05 -3.5 M5.7 -0.6 L5.7 -0.6 M7.15 3.75 L7.15 3.65 7.1 3.8 7.15 3.75 M-4.35 5.45 Q-4.4 5.35 -4.35 5.25 -4.35 4.9 -3.75 4.8 L-3.7 4.9 -3.3 5.2 Q-3.15 5.3 -2.9 5.45 L-4.35 5.45 M-3.4 4.8 Q-2.7 4.75 -2.65 5.15 L-2.75 5.1 -3.05 4.95 -3.4 4.8" fill="#4e4a23" fill-rule="evenodd" stroke="none"/>
    <path d="M2.9 -4.5 L2.8 -4.4 2.45 -4.1 2.25 -3.95 2.1 -3.85 2.0 -3.75 2.0 -3.75 1.85 -4.0 1.8 -4.1 1.75 -4.1 1.75 -4.15 1.35 -4.55 0.95 -4.9 0.85 -5.0 0.8 -5.15 2.1 -4.85 2.35 -4.7 Q2.6 -4.6 2.75 -4.55 L2.75 -4.6 2.85 -4.5 2.9 -4.5 M-3.05 1.1 Q-3.85 1.6 -4.4 1.6 L-4.45 1.6 -4.7 1.35 -4.7 1.25 -4.75 1.25 -4.75 1.3 -4.9 1.0 -4.85 1.05 -4.5 1.3 Q-4.35 1.4 -4.25 1.4 L-4.2 1.4 Q-4.0 1.4 -3.95 1.35 L-4.0 1.25 Q-4.3 1.2 -5.05 0.55 L-5.1 0.5 -5.3 0.35 -5.65 -0.25 -5.65 -0.4 -5.75 -1.3 -5.85 -1.95 Q-5.85 -2.25 -5.9 -2.45 L-5.85 -2.45 -5.9 -2.6 -5.9 -2.9 -5.8 -3.15 -5.7 -3.35 -5.65 -3.3 -5.6 -3.45 -5.55 -3.55 -5.2 -3.95 -5.05 -4.1 -4.7 -4.5 -4.65 -4.55 -4.55 -4.6 -4.5 -4.65 -4.55 -4.65 -4.45 -4.75 -3.75 -5.0 -3.45 -5.1 -3.2 -5.2 Q-3.1 -5.2 -2.7 -5.35 L-2.45 -5.4 -2.45 -5.45 -1.8 -5.55 -1.75 -5.55 Q-1.85 -5.5 -1.85 -5.4 L-1.7 -4.85 -1.45 -4.05 Q-1.4 -3.75 -1.4 -2.9 L-1.4 -2.7 Q-1.4 -2.6 -1.6 -2.2 -1.9 -1.75 -2.0 -1.5 L-2.4 -0.9 -2.7 -0.35 Q-3.15 0.25 -3.15 0.75 -3.15 0.9 -3.1 1.0 L-3.05 1.1 M5.7 -0.6 L5.7 -0.6 M-7.75 3.25 L-7.65 3.8 -7.75 3.5 -7.75 3.25" fill="#5c6269" fill-rule="evenodd" stroke="none"/>
    <path d="M7.75 0.55 L7.7 0.3 7.65 -0.1 7.75 0.4 7.75 0.55 M0.0 -5.85 L1.3 -5.85 1.45 -5.8 Q1.55 -5.75 1.8 -5.65 L2.35 -5.5 2.9 -5.2 3.0 -5.15 3.05 -5.1 3.2 -5.05 3.45 -4.9 Q3.25 -4.8 3.05 -4.65 L2.9 -4.5 2.85 -4.5 2.75 -4.6 2.75 -4.55 Q2.6 -4.6 2.35 -4.7 L2.1 -4.85 0.8 -5.15 0.85 -5.0 0.95 -4.9 1.35 -4.55 1.75 -4.15 1.75 -4.1 1.8 -4.1 1.85 -4.0 2.0 -3.75 1.45 -3.2 Q0.95 -2.75 0.75 -2.45 L0.4 -2.1 Q-0.3 -1.15 -1.45 -0.15 -2.35 0.7 -3.05 1.1 L-3.1 1.0 Q-3.15 0.9 -3.15 0.75 -3.15 0.25 -2.7 -0.35 L-2.4 -0.9 -2.0 -1.5 Q-1.9 -1.75 -1.6 -2.2 -1.4 -2.6 -1.4 -2.7 L-1.4 -2.9 Q-1.4 -3.75 -1.45 -4.05 L-1.7 -4.85 -1.85 -5.4 Q-1.85 -5.5 -1.75 -5.55 L-1.7 -5.6 -1.5 -5.65 -1.35 -5.7 -1.15 -5.7 -0.8 -5.75 -0.05 -5.85 0.0 -5.85 M-4.65 -4.55 L-4.7 -4.5 -4.65 -4.55 M-4.55 -4.6 L-4.55 -4.6" fill="#363a3f" fill-rule="evenodd" stroke="none"/>
    <path d="M2.55 -5.75 L2.45 -5.75 2.55 -5.75 M-0.05 -5.85 L0.0 -5.85 -0.05 -5.85" fill="#a47c71" fill-rule="evenodd" stroke="none"/>
    <path d="M2.1 -3.85 L2.0 -3.75 2.1 -3.85 M1.9 -3.35 L1.95 -3.4 1.9 -3.35 M7.15 3.75 L7.1 3.8 7.15 3.65 7.15 3.75 M-5.55 -3.55 L-5.6 -3.45 -5.55 -3.55" fill="#da9250" fill-rule="evenodd" stroke="none"/>
    <path d="M2.05 -3.5 L2.05 -3.45 Q2.05 -3.3 2.2 -3.05 L2.3 -2.9 3.0 -1.65 Q4.0 0.2 4.0 0.8 4.0 1.55 1.25 3.8 L-0.7 5.4 -0.9 5.65 Q-1.95 5.5 -2.3 5.3 -2.35 5.25 -2.75 5.1 L-2.65 5.15 Q-2.7 4.75 -3.4 4.8 L-3.65 4.7 -3.75 4.7 -3.75 4.75 -3.75 4.8 Q-4.35 4.9 -4.35 5.25 -4.4 5.35 -4.35 5.45 L-5.45 5.45 -5.6 5.4 -5.65 5.35 Q-6.95 5.0 -7.5 4.05 L-7.6 3.9 -7.65 3.8 -7.75 3.25 -7.75 2.85 -7.7 2.8 -7.65 2.6 Q-7.65 2.2 -7.55 1.75 L-7.35 0.95 -7.4 1.1 -7.3 0.55 -7.3 0.5 -7.25 0.05 Q-7.15 -0.4 -7.15 -0.8 L-7.1 -0.85 -7.1 -1.5 -7.2 -2.1 Q-7.25 -2.4 -7.3 -2.55 L-7.3 -2.75 -7.05 -3.0 -7.05 -3.05 -6.7 -3.3 -6.2 -3.75 -6.15 -3.8 -5.65 -4.05 -5.3 -4.25 -5.1 -4.35 -5.1 -4.4 -5.0 -4.4 -5.5 -3.8 -5.95 -3.1 Q-6.05 -2.95 -6.05 -2.55 L-6.05 -2.3 Q-6.05 -1.2 -5.85 -0.5 L-5.8 -0.35 -5.8 -0.3 Q-5.7 -0.1 -5.4 0.55 -5.25 0.85 -4.85 1.25 L-4.7 1.35 -4.45 1.6 -4.3 1.75 Q-3.45 1.65 -2.1 0.65 L-2.85 1.35 Q-2.35 1.1 -0.7 -0.5 0.6 -1.75 0.9 -2.2 L1.1 -2.45 1.35 -2.65 1.4 -2.8 1.75 -3.15 1.9 -3.35 1.95 -3.4 2.05 -3.5 M-5.9 -2.55 L-5.9 -2.55" fill="#8d873f" fill-rule="evenodd" stroke="none"/>
    <path d="M-7.2 -3.4 L-7.25 -3.4 -7.25 -3.35 -7.25 -3.45 -7.15 -3.45 -7.2 -3.4 M-7.55 -2.9 L-7.55 -2.75 -7.55 -2.9 M8.1 1.2 L8.05 1.0 Q8.1 1.1 8.15 1.2 L8.1 1.2" fill="#f8ca8b" fill-rule="evenodd" stroke="none"/>
  </g>
</svg>
