<?xml version="1.0" encoding="UTF-8" standalone="no"?>
<svg xmlns:ffdec="https://www.free-decompiler.com/flash" xmlns:xlink="http://www.w3.org/1999/xlink" ffdec:objectType="shape" height="20.7px" width="20.6px" xmlns="http://www.w3.org/2000/svg">
  <g transform="matrix(1.0, 0.0, 0.0, 1.0, 10.3, 10.35)">
    <path d="M6.65 -10.2 Q6.85 -10.25 7.05 -10.35 L7.1 -10.35 Q7.3 -10.35 7.45 -9.6 L7.5 -9.25 7.5 -9.15 Q7.5 -9.1 7.55 -9.05 L7.7 -9.0 7.8 -9.0 8.1 -8.4 8.35 -7.95 8.35 -7.9 8.55 -7.45 8.7 -6.95 8.9 -6.5 8.9 -6.45 8.95 -6.35 9.0 -6.15 9.05 -6.0 9.1 -5.9 9.1 -5.8 9.2 -5.6 Q9.6 -4.65 9.8 -3.75 L10.05 -2.6 Q10.3 -1.5 10.3 -1.05 L10.3 -0.85 Q10.25 -0.65 10.05 -0.65 L9.75 -0.45 9.5 -0.3 Q9.5 0.35 9.45 0.65 L9.2 1.85 Q9.4 1.8 9.5 2.05 9.6 2.15 9.6 2.2 L9.6 2.25 9.55 2.25 9.6 2.95 Q9.6 3.4 9.45 4.35 9.3 5.35 9.3 5.8 9.3 6.05 9.45 7.4 L9.6 8.45 9.65 8.5 9.6 8.6 9.65 9.05 9.65 9.15 9.55 9.85 9.3 9.9 9.15 9.95 Q8.95 10.05 8.4 10.2 7.6 10.35 6.65 10.35 5.0 10.35 4.15 9.65 L3.9 9.4 Q3.7 9.4 3.65 9.25 L3.6 9.05 3.65 8.95 3.6 8.8 3.7 8.0 3.8 7.05 Q3.8 6.6 3.4 5.95 L3.2 5.65 3.15 5.55 Q2.6 4.9 2.45 4.55 L2.4 4.45 2.4 4.2 2.25 4.1 Q1.95 3.8 1.65 3.2 L1.25 2.25 1.1 1.85 0.95 1.65 0.05 1.7 -0.15 1.65 -0.65 1.7 -2.15 1.7 -2.25 1.9 Q-2.5 2.35 -2.5 2.65 -2.5 3.4 -2.65 5.0 L-2.7 6.4 -2.75 6.55 -2.75 7.55 -2.95 7.6 -3.1 7.65 -4.45 7.85 -7.15 7.85 -7.7 7.8 -8.45 7.8 Q-9.1 7.75 -9.6 7.45 -10.25 7.25 -10.25 6.9 L-10.3 6.85 -10.3 6.75 Q-10.3 6.3 -9.1 5.3 L-8.45 4.85 -8.5 4.65 -8.55 3.75 -8.5 3.0 Q-8.75 2.75 -9.0 2.2 -9.2 1.65 -9.35 1.15 L-9.25 0.3 -9.15 -0.35 Q-9.4 -0.5 -9.55 -0.85 L-9.65 -1.1 -9.75 -1.2 -9.95 -1.65 Q-9.95 -2.2 -9.45 -3.55 -9.25 -4.45 -8.9 -5.55 -8.35 -7.25 -7.9 -7.9 L-7.9 -8.0 -7.75 -8.35 -7.75 -8.4 -7.7 -8.45 -7.55 -8.7 -7.5 -8.9 -7.45 -8.9 -7.25 -9.2 -7.1 -9.5 -7.1 -9.55 -7.0 -9.6 -6.9 -9.55 -6.7 -9.35 -6.7 -9.3 Q-6.7 -9.2 -6.95 -8.8 L-7.0 -8.75 -6.95 -8.75 -6.95 -8.7 -7.0 -8.65 -7.05 -8.65 -7.15 -8.4 -7.15 -8.35 Q-7.1 -8.05 -6.45 -7.9 -5.65 -7.7 -3.55 -7.7 -2.75 -7.7 -2.0 -7.75 L-1.05 -7.75 -0.1 -7.85 0.75 -7.9 1.1 -7.95 1.2 -7.95 3.05 -8.2 3.1 -8.2 3.0 -8.15 3.15 -8.15 3.95 -8.3 4.0 -8.3 Q4.3 -8.3 5.55 -8.55 L6.3 -8.7 6.35 -8.7 6.7 -8.8 6.75 -8.8 7.1 -8.9 7.0 -9.45 6.8 -10.1 6.75 -10.15 6.75 -10.2 6.65 -10.2 M-9.3 -1.8 L-9.3 -1.45 -9.1 -1.3 -8.95 -1.2 Q-8.6 -1.0 -7.8 -0.5 L-7.05 -0.05 -6.8 0.05 -5.3 0.55 -3.85 0.85 -2.05 1.15 -1.15 1.2 0.15 1.2 0.3 1.15 0.8 1.15 Q3.5 0.85 5.9 0.35 7.0 0.1 8.4 -0.45 L9.55 -0.9 9.85 -1.0 9.75 -1.4 Q9.7 -1.8 9.7 -2.2 9.7 -2.5 9.55 -3.15 L9.35 -4.15 9.05 -5.1 8.75 -5.9 8.7 -6.15 8.65 -6.2 8.6 -6.35 8.35 -7.0 8.25 -7.2 8.05 -7.65 8.05 -7.75 7.95 -7.95 7.6 -8.55 7.45 -8.8 7.4 -8.8 7.15 -8.75 7.15 -8.8 6.95 -8.7 6.85 -8.7 5.9 -8.5 5.55 -8.45 5.3 -8.4 5.25 -8.4 5.1 -8.35 5.0 -8.35 4.8 -8.3 4.75 -8.3 4.6 -8.25 4.55 -8.25 3.9 -8.15 3.45 -8.05 Q2.5 -7.85 1.55 -7.7 L-1.1 -7.25 Q-0.45 -7.5 0.6 -7.7 L0.45 -7.7 -1.15 -7.6 Q-2.3 -7.55 -3.55 -7.55 -6.55 -7.55 -7.2 -8.05 L-7.25 -8.0 -7.45 -7.5 -8.2 -5.7 -8.65 -4.5 Q-9.2 -2.6 -9.3 -1.8 M9.0 6.45 L8.95 6.3 8.95 5.85 Q8.95 5.4 9.0 4.9 L9.0 3.95 9.05 2.45 9.05 2.25 8.95 2.25 7.3 2.4 6.5 2.5 Q5.75 2.75 4.95 3.05 L4.55 3.2 Q3.55 3.9 2.7 4.4 L2.7 4.45 2.75 4.55 3.9 5.95 4.0 5.95 4.0 6.05 4.15 6.25 4.15 6.3 Q4.15 6.35 4.05 6.35 L4.05 6.4 4.15 6.75 Q4.3 6.45 4.45 6.25 4.85 5.6 5.55 5.35 5.7 5.25 5.9 5.2 L5.55 5.4 Q4.9 5.85 4.55 6.4 L4.2 7.0 4.2 7.9 4.15 8.4 Q4.1 8.65 4.05 8.95 L4.35 9.2 Q5.0 9.65 6.2 9.7 L6.35 9.7 8.0 9.7 9.25 9.45 9.35 9.4 9.35 9.2 9.35 9.15 9.2 7.9 9.15 7.8 Q8.5 6.4 8.3 6.15 7.85 5.65 6.8 5.65 L6.75 5.65 Q6.35 5.65 5.95 5.8 L5.5 6.0 Q5.0 6.25 4.8 6.45 L4.75 6.4 Q4.75 6.15 5.75 5.75 6.7 5.3 7.15 5.45 7.9 5.7 8.35 6.1 L7.65 4.85 Q7.85 5.0 8.45 5.9 8.9 6.6 9.05 6.9 L9.0 6.7 9.0 6.45 M3.05 3.15 L3.05 3.65 3.0 3.7 3.0 3.8 Q3.1 3.75 3.2 3.65 L3.4 3.55 Q4.0 3.05 4.7 2.75 5.55 2.4 6.85 2.2 8.05 1.9 8.9 1.9 L8.9 0.6 Q8.95 0.2 9.0 -0.1 8.05 0.3 6.15 0.8 L5.35 0.95 Q3.2 1.45 1.5 1.6 L1.6 1.75 1.9 2.35 1.9 2.4 1.95 2.4 2.0 2.6 Q2.2 2.9 2.65 3.5 L2.7 3.55 2.75 3.6 2.75 3.55 2.75 3.35 2.8 2.65 2.9 1.65 3.0 1.65 Q3.1 1.9 3.1 2.25 L3.05 3.15 M9.1 7.25 L9.05 7.25 9.1 7.4 9.1 7.25 M-6.85 -9.35 L-6.85 -9.35 M-7.45 0.0 L-7.45 -0.05 Q-8.2 -0.35 -8.7 -0.7 L-8.65 -0.5 -8.6 -0.4 -8.6 -0.3 -8.65 -0.25 -8.65 0.0 -8.7 0.45 -8.8 0.85 -8.75 0.95 -8.7 1.25 -8.65 1.35 -8.4 1.9 -8.25 2.3 -8.0 2.85 -7.6 2.75 Q-6.85 2.6 -6.05 2.55 L-5.65 2.55 Q-4.6 2.6 -3.95 2.85 -3.75 2.95 -3.5 3.05 L-3.05 3.25 -3.1 2.85 -3.1 2.75 -4.0 2.1 Q-4.7 1.65 -5.35 1.4 L-5.35 1.3 Q-4.7 1.35 -3.9 1.95 L-3.1 2.7 -3.05 2.6 -3.1 2.45 Q-3.1 2.2 -2.9 1.8 -2.8 1.6 -2.7 1.4 -3.4 1.35 -4.5 1.1 L-6.05 0.7 Q-6.3 0.6 -7.45 0.0 M-2.75 2.55 L-2.75 2.5 -2.8 2.55 -2.75 2.55 M-4.65 2.95 Q-5.15 2.8 -5.65 2.8 L-7.0 2.95 -8.0 3.1 -8.05 3.2 -8.1 3.2 -8.1 3.25 -8.05 3.65 -8.05 3.95 -8.0 4.25 -7.95 4.65 Q-7.85 4.7 -7.85 4.85 L-7.95 4.9 -7.95 4.95 Q-8.0 5.0 -7.9 5.0 L-7.4 4.85 Q-6.7 4.85 -5.85 5.7 L-5.75 5.8 -4.8 6.95 -4.9 7.0 Q-5.0 7.0 -5.25 6.7 L-5.8 6.0 -6.05 5.75 Q-6.8 5.05 -7.4 5.05 -7.65 4.9 -8.25 5.3 -8.55 5.5 -8.8 5.75 L-9.1 5.95 Q-9.95 6.65 -9.95 6.85 -9.95 7.05 -9.15 7.2 L-8.35 7.35 -7.2 7.55 -6.45 7.55 -5.4 7.45 -4.3 7.45 Q-4.55 7.2 -4.8 6.55 -5.1 5.8 -5.45 5.45 -4.95 5.4 -4.65 6.2 L-4.25 7.45 -4.1 7.45 -3.15 7.2 -3.2 7.0 -3.2 6.5 Q-3.2 5.4 -3.05 4.25 L-3.0 3.75 -3.0 3.7 -3.15 3.6 -3.85 3.25 Q-4.25 3.05 -4.6 2.95 L-4.65 2.95" fill="#000000" fill-rule="evenodd" stroke="none"/>
    <path d="M-1.2 -9.15 L-0.4 -9.15 -0.3 -9.2 0.0 -9.2 1.65 -9.35 2.45 -9.45 3.15 -9.6 5.05 -9.95 5.45 -10.05 5.6 -10.05 Q5.85 -10.05 6.45 -10.2 L6.65 -10.2 6.75 -10.2 6.75 -10.15 6.8 -10.1 7.0 -9.45 7.1 -8.9 6.75 -8.8 6.7 -8.8 6.35 -8.7 6.3 -8.7 5.55 -8.55 Q4.3 -8.3 4.0 -8.3 L3.95 -8.3 3.15 -8.15 3.0 -8.15 3.1 -8.2 3.05 -8.2 1.2 -7.95 1.1 -7.95 0.75 -7.9 -0.1 -7.85 -1.05 -7.75 -2.0 -7.75 -2.05 -7.9 Q-2.05 -8.15 -1.85 -8.3 L-1.85 -8.35 -1.75 -8.5 -1.5 -8.75 -1.35 -8.95 Q-1.3 -9.05 -1.2 -9.1 L-1.15 -9.15 -1.2 -9.15 M7.3 2.4 L8.95 2.25 9.05 2.25 9.05 2.45 9.0 3.95 9.0 4.9 Q8.95 5.4 8.95 5.85 L8.95 6.3 9.0 6.45 8.95 6.55 9.0 6.7 9.05 6.9 Q8.9 6.6 8.45 5.9 7.85 5.0 7.65 4.85 L8.35 6.1 Q7.9 5.7 7.15 5.45 6.7 5.3 5.75 5.75 5.6 5.6 5.55 5.4 L5.9 5.2 Q5.7 5.25 5.55 5.35 5.55 5.1 5.7 4.9 5.95 4.6 6.5 4.7 6.85 4.25 6.8 4.1 6.65 3.75 6.65 3.6 6.65 3.45 7.1 2.65 L7.3 2.4 M6.35 9.7 L6.25 9.5 Q6.15 9.2 6.15 8.9 6.15 8.5 6.7 7.7 7.05 7.15 7.6 6.55 6.95 6.25 6.1 5.95 L5.85 5.85 5.95 5.8 Q6.35 5.65 6.75 5.65 L6.8 5.65 Q7.85 5.65 8.3 6.15 8.5 6.4 9.15 7.8 L9.2 7.9 9.35 9.15 9.35 9.2 9.25 9.4 9.25 9.45 8.0 9.7 6.35 9.7 M-5.85 5.7 Q-5.9 5.25 -5.9 4.45 L-5.9 3.6 Q-5.9 3.25 -5.8 3.15 -5.65 2.95 -4.65 2.95 L-4.6 2.95 Q-4.25 3.05 -3.85 3.25 L-3.15 3.6 -3.1 3.9 Q-3.05 4.05 -3.05 4.25 -3.2 5.4 -3.2 6.5 L-3.2 7.0 -3.15 7.2 -4.1 7.45 -4.25 7.45 -4.65 6.2 Q-4.95 5.4 -5.45 5.45 -5.1 5.8 -4.8 6.55 -4.55 7.2 -4.3 7.45 L-5.4 7.45 -6.45 7.55 -7.2 7.55 -8.35 7.35 -8.35 7.15 Q-8.35 6.0 -6.05 5.75 L-5.8 6.0 -5.25 6.7 Q-5.0 7.0 -4.9 7.0 L-4.8 6.95 -5.75 5.8 -5.85 5.7" fill="#693705" fill-rule="evenodd" stroke="none"/>
    <path d="M-1.15 -7.6 L0.45 -7.7 0.6 -7.7 Q-0.45 -7.5 -1.1 -7.25 L1.55 -7.7 Q2.5 -7.85 3.45 -8.05 L3.9 -8.15 4.55 -8.25 4.6 -8.25 4.75 -8.3 4.8 -8.3 5.0 -8.35 5.1 -8.35 5.25 -8.4 5.3 -8.4 5.55 -8.45 5.9 -8.5 6.85 -8.7 6.95 -8.7 7.15 -8.8 7.15 -8.75 7.4 -8.8 7.45 -8.8 7.6 -8.55 7.95 -7.95 8.05 -7.75 8.05 -7.65 8.25 -7.2 8.35 -7.0 8.6 -6.35 8.65 -6.2 8.7 -6.15 8.75 -5.9 9.05 -5.1 9.35 -4.15 9.55 -3.15 Q9.7 -2.5 9.7 -2.2 9.7 -1.8 9.75 -1.4 L9.85 -1.0 9.55 -0.9 8.4 -0.45 Q7.0 0.1 5.9 0.35 3.5 0.85 0.8 1.15 L0.3 1.15 0.15 1.2 -1.15 1.2 -2.05 1.15 -3.85 0.85 -5.3 0.55 -6.8 0.05 -7.05 -0.05 -7.8 -0.5 Q-8.6 -1.0 -8.95 -1.2 L-9.1 -1.3 -9.3 -1.45 -9.3 -1.8 -9.2 -1.8 -7.4 -1.25 Q-5.5 -0.7 -5.05 -0.7 -3.5 -0.7 -1.85 -2.8 -1.35 -3.5 -0.75 -4.45 L-0.05 -5.65 Q-1.25 -6.85 -1.25 -7.25 -1.25 -7.45 -1.15 -7.6" fill="#4e4a23" fill-rule="evenodd" stroke="none"/>
    <path d="M5.35 0.95 L6.15 0.8 Q8.05 0.3 9.0 -0.1 8.95 0.2 8.9 0.6 L8.9 1.9 Q8.05 1.9 6.85 2.2 5.55 2.4 4.7 2.75 4.0 3.05 3.4 3.55 L3.2 3.65 Q3.1 3.75 3.0 3.8 L3.0 3.7 3.05 3.65 3.05 3.15 3.05 3.05 Q3.55 2.55 4.5 1.7 L5.35 0.95 M2.75 3.55 L2.75 3.6 2.7 3.55 2.75 3.5 2.75 3.55 M-5.65 2.55 L-6.3 1.9 Q-7.0 1.15 -7.5 0.4 -7.5 0.15 -7.45 0.0 -6.3 0.6 -6.05 0.7 L-4.5 1.1 Q-3.4 1.35 -2.7 1.4 -2.8 1.6 -2.9 1.8 -3.1 2.2 -3.1 2.45 L-3.05 2.6 -3.1 2.7 -3.9 1.95 Q-4.7 1.35 -5.35 1.3 L-5.35 1.4 Q-4.7 1.65 -4.0 2.1 L-3.1 2.75 -3.1 2.85 -3.05 3.25 -3.5 3.05 Q-3.75 2.95 -3.95 2.85 -4.6 2.6 -5.65 2.55" fill="#363a3f" fill-rule="evenodd" stroke="none"/>
    <path d="M-6.7 -9.35 Q-6.65 -9.4 -6.4 -9.35 L-5.9 -9.25 -5.5 -9.2 -4.65 -9.2 -4.35 -9.15 -3.55 -9.15 -3.15 -9.1 -2.35 -9.1 -2.1 -9.15 -1.2 -9.15 -1.15 -9.15 -1.2 -9.1 Q-1.3 -9.05 -1.35 -8.95 L-1.5 -8.75 -1.75 -8.5 -1.85 -8.35 -1.85 -8.3 Q-2.05 -8.15 -2.05 -7.9 L-2.0 -7.75 Q-2.75 -7.7 -3.55 -7.7 -5.65 -7.7 -6.45 -7.9 -7.1 -8.05 -7.15 -8.35 L-7.15 -8.4 -7.05 -8.65 -7.0 -8.65 -6.95 -8.7 -6.95 -8.75 -7.0 -8.75 -6.95 -8.8 Q-6.7 -9.2 -6.7 -9.3 L-6.7 -9.35 M7.3 2.4 L7.1 2.65 Q6.65 3.45 6.65 3.6 6.65 3.75 6.8 4.1 6.85 4.25 6.5 4.7 5.95 4.6 5.7 4.9 5.55 5.1 5.55 5.35 4.85 5.6 4.45 6.25 4.3 6.45 4.15 6.75 L4.05 6.4 4.05 6.35 Q4.15 6.35 4.15 6.3 L4.15 6.25 4.0 6.05 4.0 5.95 3.9 5.95 2.75 4.55 2.7 4.45 2.7 4.4 Q3.55 3.9 4.55 3.2 L4.95 3.05 Q5.75 2.75 6.5 2.5 L7.3 2.4 M5.55 5.4 Q5.6 5.6 5.75 5.75 4.75 6.15 4.75 6.4 L4.8 6.45 Q5.0 6.25 5.5 6.0 L5.95 5.8 5.85 5.85 6.1 5.95 Q6.95 6.25 7.6 6.55 7.05 7.15 6.7 7.7 6.15 8.5 6.15 8.9 6.15 9.2 6.25 9.5 L6.35 9.7 6.2 9.7 Q5.0 9.65 4.35 9.2 L4.05 8.95 Q4.1 8.65 4.15 8.4 L4.2 7.9 4.2 7.0 4.55 6.4 Q4.9 5.85 5.55 5.4 M9.0 6.7 L8.95 6.55 9.0 6.45 9.0 6.7 M9.25 9.45 L9.25 9.4 9.35 9.2 9.35 9.4 9.25 9.45 M-5.85 5.7 Q-6.7 4.85 -7.4 4.85 L-7.9 5.0 Q-8.0 5.0 -7.95 4.95 L-7.95 4.9 -7.85 4.85 Q-7.85 4.7 -7.95 4.65 L-8.0 4.25 -8.05 3.95 -8.05 3.65 -8.1 3.25 -8.1 3.2 -8.05 3.2 -8.0 3.1 -7.0 2.95 -5.65 2.8 Q-5.15 2.8 -4.65 2.95 -5.65 2.95 -5.8 3.15 -5.9 3.25 -5.9 3.6 L-5.9 4.45 Q-5.9 5.25 -5.85 5.7 M-3.15 3.6 L-3.0 3.7 -3.0 3.75 -3.05 4.25 Q-3.05 4.05 -3.1 3.9 L-3.15 3.6 M-8.35 7.35 L-9.15 7.2 Q-9.95 7.05 -9.95 6.85 -9.95 6.65 -9.1 5.95 L-8.8 5.75 Q-8.55 5.5 -8.25 5.3 -7.65 4.9 -7.4 5.05 -6.8 5.05 -6.05 5.75 -8.35 6.0 -8.35 7.15 L-8.35 7.35" fill="#854607" fill-rule="evenodd" stroke="none"/>
    <path d="M5.35 0.95 L4.5 1.7 Q3.55 2.55 3.05 3.05 L3.05 3.15 3.1 2.25 Q3.1 1.9 3.0 1.65 L2.9 1.65 2.8 2.65 2.75 3.35 2.75 3.55 2.75 3.5 2.7 3.55 2.65 3.5 Q2.2 2.9 2.0 2.6 L1.95 2.4 1.9 2.4 1.9 2.35 1.6 1.75 1.5 1.6 Q3.2 1.45 5.35 0.95 M-5.65 2.55 L-6.05 2.55 Q-6.85 2.6 -7.6 2.75 L-8.0 2.85 -8.25 2.3 -8.4 1.9 -8.65 1.35 -8.7 1.25 -8.75 0.95 -8.8 0.85 -8.7 0.45 -8.65 0.0 -8.65 -0.25 -8.6 -0.3 -8.6 -0.4 -8.65 -0.5 -8.7 -0.7 Q-8.2 -0.35 -7.45 -0.05 L-7.45 0.0 Q-7.5 0.15 -7.5 0.4 -7.0 1.15 -6.3 1.9 L-5.65 2.55" fill="#5c6269" fill-rule="evenodd" stroke="none"/>
    <path d="M-1.15 -7.6 Q-1.25 -7.45 -1.25 -7.25 -1.25 -6.85 -0.05 -5.65 L-0.75 -4.45 Q-1.35 -3.5 -1.85 -2.8 -3.5 -0.7 -5.05 -0.7 -5.5 -0.7 -7.4 -1.25 L-9.2 -1.8 -9.3 -1.8 Q-9.2 -2.6 -8.65 -4.5 L-8.2 -5.7 -7.45 -7.5 -7.25 -8.0 -7.2 -8.05 Q-6.55 -7.55 -3.55 -7.55 -2.3 -7.55 -1.15 -7.6" fill="#8d873f" fill-rule="evenodd" stroke="none"/>
  </g>
</svg>
