<?xml version="1.0" encoding="UTF-8" standalone="no"?>
<svg xmlns:ffdec="https://www.free-decompiler.com/flash" xmlns:xlink="http://www.w3.org/1999/xlink" ffdec:objectType="shape" height="28.3px" width="13.9px" xmlns="http://www.w3.org/2000/svg">
  <g transform="matrix(1.0, 0.0, 0.0, 1.0, 6.95, 14.15)">
    <path d="M-5.85 -9.15 L-5.8 -9.25 Q-5.2 -10.55 -1.85 -12.75 0.35 -14.15 2.9 -14.15 L3.2 -14.15 3.25 -14.05 3.4 -13.7 3.45 -13.2 3.5 -10.4 Q3.5 -9.3 3.3 -3.7 L3.25 -2.25 3.05 -0.85 2.45 0.85 2.4 1.1 Q1.95 2.35 1.65 3.15 L1.0 4.55 0.8 5.15 Q-0.05 7.6 -0.7 8.7 L-0.75 8.7 -0.75 8.75 -0.85 8.9 -0.95 9.0 -1.25 9.4 -1.05 9.45 Q-0.5 9.8 0.15 9.85 L0.5 9.85 Q1.95 9.85 3.4 9.0 3.8 8.75 5.35 7.55 5.75 7.2 6.05 7.15 L6.15 8.4 Q6.25 9.2 6.4 9.7 5.7 10.45 5.5 10.6 L4.4 11.3 Q3.6 11.75 3.1 11.95 1.8 12.35 0.6 12.75 -1.8 13.45 -2.7 13.45 L-6.0 13.3 -6.1 13.2 Q-6.2 13.1 -6.25 12.95 L-6.25 12.45 Q-6.2 11.8 -6.05 10.9 L-5.7 8.95 -5.7 8.45 -5.7 7.5 -5.7 5.05 -5.6 3.9 -5.5 2.5 -5.3 -0.05 -5.3 -3.6 -5.85 -9.15 M3.95 -8.3 L3.95 -8.3" fill="#af481d" fill-rule="evenodd" stroke="none"/>
    <path d="M-5.85 -9.15 L-5.3 -3.6 -5.3 -0.05 -5.5 2.5 -5.6 3.9 -5.95 3.9 -5.95 3.75 -5.9 3.8 -5.9 3.1 -5.9 3.0 Q-5.75 0.1 -5.65 -1.6 L-5.7 -1.6 -5.7 -1.75 -5.65 -2.0 -5.65 -5.1 -5.7 -5.6 -5.75 -6.0 -5.8 -5.95 -5.85 -6.45 -5.9 -6.6 -5.85 -6.6 -5.95 -6.95 -6.0 -7.2 -6.0 -8.0 -5.95 -8.0 -6.0 -8.1 -6.0 -8.25 -5.9 -8.95 -5.85 -9.15 M-5.7 7.5 L-5.7 8.45 -6.0 9.8 -6.05 9.8 -6.0 9.15 -6.05 7.65 Q-5.9 7.65 -5.7 7.55 L-5.7 7.5 M4.8 -13.75 Q5.15 -13.6 5.35 -13.45 L5.35 -13.4 5.3 -12.35 5.15 -8.6 5.15 -8.55 5.1 -8.45 5.1 -8.35 5.2 -6.4 5.2 -5.2 Q4.8 -9.25 4.8 -12.45 L4.8 -12.95 Q4.8 -13.4 4.8 -13.75 M-6.45 8.35 L-6.45 8.3 -6.35 7.2 -6.2 6.0 -6.2 5.8 -6.15 5.45 -6.1 5.2 Q-6.05 4.95 -6.05 4.9 L-6.05 4.85 Q-6.0 4.75 -5.95 4.85 -5.9 4.95 -5.9 5.1 -5.9 5.25 -5.95 5.5 -6.05 5.7 -6.05 5.95 -6.05 6.45 -6.15 6.75 L-6.15 7.0 -6.25 7.6 -6.35 8.3 -6.3 8.35 -6.4 8.35 -6.4 8.45 -6.45 8.45 -6.45 8.35 M4.55 -12.55 L4.55 -12.5 Q4.55 -9.65 4.55 -8.95 4.65 -7.45 5.1 -1.75 L5.2 -0.65 5.1 -0.5 Q5.0 -0.45 5.0 -0.4 5.0 0.55 5.35 2.4 L5.75 4.4 5.6 3.95 5.6 3.85 5.4 3.3 5.35 3.25 5.35 2.7 Q5.05 1.7 4.8 0.4 4.5 -1.55 4.45 -3.7 L4.4 -4.25 4.35 -4.95 Q4.55 -6.8 4.55 -8.4 L4.55 -12.4 4.5 -12.5 4.55 -12.55 M5.8 4.8 L5.85 4.85 5.75 4.8 5.8 4.8 M0.15 9.55 L-0.1 9.3 -0.05 9.3 0.1 9.5 0.15 9.5 0.15 9.55" fill="#111111" fill-rule="evenodd" stroke="none"/>
    <path d="M6.05 7.15 Q5.75 7.2 5.35 7.55 3.8 8.75 3.4 9.0 1.95 9.85 0.5 9.85 L0.15 9.85 Q-0.5 9.8 -1.05 9.45 L-1.25 9.4 -0.95 9.0 -0.85 8.9 -0.75 8.75 -0.75 8.7 -0.7 8.7 Q-0.05 7.6 0.8 5.15 L1.0 4.55 1.65 3.15 Q1.95 2.35 2.4 1.1 L2.45 0.85 3.05 -0.85 3.25 -2.25 3.3 -3.7 Q3.5 -9.3 3.5 -10.4 L3.45 -13.2 3.4 -13.7 3.25 -14.05 3.2 -14.15 Q3.85 -14.1 4.55 -13.85 L4.6 -13.85 4.6 -12.9 4.55 -12.55 4.5 -12.5 4.55 -12.4 4.55 -8.4 Q4.55 -6.8 4.35 -4.95 L4.4 -4.25 4.45 -3.7 Q4.5 -1.55 4.8 0.4 5.05 1.7 5.35 2.7 L5.35 3.25 5.4 3.3 5.6 3.85 5.6 3.95 5.75 4.4 5.8 4.8 5.75 4.8 5.85 4.85 5.85 5.05 6.05 7.15 M3.95 -8.3 L3.95 -8.3 M0.15 9.55 L0.15 9.5 0.1 9.5 -0.05 9.3 -0.1 9.3 0.15 9.55" fill="#872710" fill-rule="evenodd" stroke="none"/>
    <path d="M-5.6 3.9 L-5.7 5.05 -5.7 7.5 -5.7 7.55 Q-5.9 7.65 -6.05 7.65 L-6.0 9.15 -6.05 9.8 -6.05 9.85 -6.0 9.8 -5.7 8.45 -5.7 8.95 -6.05 10.9 Q-6.2 11.8 -6.25 12.45 L-6.25 12.95 Q-6.2 13.1 -6.1 13.2 L-6.0 13.3 -2.7 13.45 Q-1.8 13.45 0.6 12.75 1.8 12.35 3.1 11.95 3.6 11.75 4.4 11.3 L5.5 10.6 Q5.7 10.45 6.4 9.7 6.25 9.2 6.15 8.4 L6.05 7.15 5.85 5.05 5.85 4.85 5.8 4.8 5.75 4.4 5.35 2.4 Q5.0 0.55 5.0 -0.4 5.0 -0.45 5.1 -0.5 L5.2 -0.65 5.1 -1.75 Q4.65 -7.45 4.55 -8.95 4.55 -9.65 4.55 -12.5 L4.55 -12.55 4.6 -12.9 4.6 -13.85 4.8 -13.75 Q4.8 -13.4 4.8 -12.95 L4.8 -12.45 Q4.8 -9.25 5.2 -5.2 5.5 -2.1 5.95 1.45 L6.2 3.0 Q6.3 4.45 6.5 6.4 6.65 8.3 6.8 9.55 6.95 9.65 6.95 10.15 L6.9 10.45 6.9 10.55 6.85 10.6 Q6.4 11.55 4.15 12.4 L3.9 12.5 Q0.25 14.15 -2.95 14.15 L-4.65 14.1 Q-5.9 14.05 -6.45 13.8 -6.75 13.7 -6.95 13.45 L-6.9 13.2 -6.9 13.15 -6.85 13.15 Q-6.85 12.45 -6.65 10.25 L-6.55 9.05 -6.55 8.85 -6.45 8.4 -6.45 8.35 -6.45 8.45 -6.4 8.45 -6.4 8.35 -6.3 8.35 -6.35 8.3 -6.25 7.6 -6.15 7.0 -6.15 6.75 Q-6.05 6.45 -6.05 5.95 -6.05 5.7 -5.95 5.5 -5.9 5.25 -5.9 5.1 -5.9 4.95 -5.95 4.85 -6.0 4.75 -6.05 4.85 L-5.95 3.9 -5.6 3.9 M-5.95 3.75 Q-5.9 3.5 -5.9 3.2 L-5.9 3.1 -5.9 3.8 -5.95 3.75" fill="#101010" fill-rule="evenodd" stroke="none"/>
  </g>
</svg>
