<?xml version="1.0" encoding="UTF-8" standalone="no"?>
<svg xmlns:ffdec="https://www.free-decompiler.com/flash" xmlns:xlink="http://www.w3.org/1999/xlink" ffdec:objectType="shape" height="20.0px" width="23.1px" xmlns="http://www.w3.org/2000/svg">
  <g transform="matrix(1.0, 0.0, 0.0, 1.0, 11.55, 10.0)">
    <path d="M-6.35 -5.9 L-6.4 -6.3 Q-6.5 -6.7 -6.4 -7.1 -6.35 -7.35 -6.0 -7.55 -5.75 -7.75 -5.7 -7.7 L-5.25 -7.9 -5.1 -7.95 Q-4.05 -8.2 -3.35 -8.4 -3.2 -8.45 -2.95 -8.6 L-2.5 -8.8 Q-2.45 -8.8 -2.35 -8.85 L-2.3 -8.9 -1.3 -9.25 -0.35 -9.45 -0.2 -9.5 0.4 -9.55 0.65 -9.55 0.8 -9.6 1.85 -9.6 2.65 -9.5 3.0 -9.5 Q3.05 -9.45 3.2 -9.4 L3.55 -9.25 3.7 -9.2 4.1 -8.8 4.35 -8.3 4.4 -8.3 4.4 -7.95 4.45 -7.85 4.45 -7.8 4.5 -7.8 4.5 -7.85 4.7 -7.85 4.8 -7.85 3.45 -6.25 3.4 -6.3 3.05 -6.1 2.25 -5.65 2.25 -5.6 2.05 -5.5 1.9 -5.45 1.85 -5.4 1.15 -4.65 0.8 -4.35 0.8 -4.25 0.75 -4.25 0.1 -3.6 0.15 -3.6 0.8 -4.0 1.05 -4.1 1.4 -4.35 1.6 -4.55 Q2.15 -5.0 2.75 -5.4 L2.15 -4.7 Q0.25 -2.25 -1.45 -0.85 L-1.4 -0.8 Q0.75 -2.4 2.55 -4.55 L2.6 -4.65 2.65 -4.65 2.95 -5.1 3.0 -5.1 Q0.25 -0.5 -1.5 -0.5 -1.8 -0.5 -2.7 -1.3 -2.35 -0.4 -1.55 0.0 -0.9 0.35 0.2 0.4 L1.75 0.5 Q2.3 0.6 2.4 1.05 1.9 1.2 1.65 1.3 L1.6 1.3 Q1.0 1.55 0.25 1.55 -1.6 1.55 -3.1 0.2 L-3.2 0.1 -3.35 -0.05 Q-4.6 -1.35 -5.65 -3.65 L-5.65 -3.75 -5.7 -3.8 -5.7 -3.85 -5.75 -4.0 -5.8 -4.05 -5.8 -4.1 -5.85 -4.25 -6.1 -5.1 -6.25 -5.45 -6.3 -5.85 -6.35 -5.9 M4.9 -7.85 L4.95 -7.85 6.45 -6.9 Q8.0 -5.85 8.7 -5.15 9.05 -5.1 9.6 -4.15 10.1 -3.25 10.45 -2.0 L10.7 -0.9 Q10.8 -0.3 10.8 0.2 L10.85 0.2 10.8 1.55 10.75 2.2 10.6 2.9 Q10.4 4.0 9.95 4.9 L9.65 5.4 Q9.55 5.5 9.45 5.65 L9.25 6.0 8.85 6.3 8.3 6.6 8.15 6.7 7.85 6.8 7.8 6.8 7.8 6.85 7.65 6.85 6.9 7.05 6.45 7.1 4.75 7.1 4.1 7.0 3.7 6.95 3.2 6.8 2.95 6.75 2.75 6.7 2.7 6.7 2.6 6.65 Q2.0 6.4 1.55 6.1 1.0 5.7 0.85 5.55 L0.65 5.25 0.55 5.15 0.5 5.0 1.15 5.65 Q1.3 5.75 1.65 5.9 L2.3 6.25 Q2.55 6.4 2.95 6.5 L3.6 6.65 4.2 6.8 5.35 6.95 6.5 6.95 6.6 6.9 6.65 6.9 Q6.95 6.9 7.35 6.7 L7.65 6.45 8.1 6.05 8.35 5.75 8.4 5.7 8.65 5.35 8.9 4.8 9.05 4.4 9.1 4.4 9.1 4.3 9.2 3.9 9.3 3.7 9.45 3.0 9.55 2.25 9.55 1.95 9.6 1.85 9.6 1.1 9.55 0.45 9.45 -0.05 9.4 -0.15 Q8.7 -1.7 8.5 -1.95 L7.7 -3.0 Q7.15 -3.65 6.55 -4.1 L5.0 -5.1 Q3.95 -5.75 3.7 -6.0 L3.95 -6.2 3.85 -6.2 3.85 -6.25 3.95 -6.4 4.3 -6.95 4.9 -7.85 M-2.95 1.8 L-3.55 1.15 -3.35 1.25 -2.95 1.8 M-3.25 0.55 Q-2.75 1.0 -2.25 1.3 L-2.65 1.2 Q-3.25 1.0 -3.25 0.55 M1.75 1.55 L1.85 1.5 Q2.15 1.35 2.4 1.15 2.4 1.35 2.25 1.45 2.1 1.55 1.75 1.55 M4.65 -7.4 L4.65 -7.4 M3.4 -6.2 L3.4 -6.2 M-5.7 -1.45 L-2.75 2.2 -1.45 3.55 -1.0 4.15 Q-0.2 5.15 0.2 5.9 L0.2 6.0 0.1 6.0 Q-1.05 5.5 -2.25 4.55 L-2.4 4.45 -2.9 4.0 -3.9 2.5 Q-4.15 2.1 -4.9 0.5 -5.7 -1.2 -5.7 -1.45 M-6.85 0.65 L-7.25 0.4 -7.45 0.1 -6.85 0.65 M-8.9 -5.05 L-8.8 -5.15 -8.8 -5.1 -8.9 -5.0 -8.9 -5.05 M-0.35 -1.5 L-0.35 -1.5" fill="#872710" fill-rule="evenodd" stroke="none"/>
    <path d="M-11.15 -1.85 L-11.2 -1.95 Q-11.45 -2.1 -11.55 -2.3 -11.5 -2.7 -11.0 -3.4 -10.5 -4.2 -9.65 -5.05 -8.4 -6.4 -7.75 -6.7 L-7.65 -6.8 -7.4 -6.9 Q-7.25 -7.05 -6.75 -7.25 L-6.65 -7.3 -6.65 -7.35 -6.55 -7.5 Q-6.4 -7.8 -5.5 -8.1 L-5.2 -8.25 Q-4.0 -8.6 -3.4 -8.85 L-2.9 -9.05 -2.8 -9.05 -2.75 -9.1 Q-2.5 -9.3 -1.55 -9.6 -1.1 -9.65 -0.8 -9.85 -0.45 -9.95 0.85 -10.0 L2.1 -10.0 2.85 -9.9 2.95 -9.9 Q3.15 -9.9 3.6 -9.8 4.05 -9.7 4.25 -9.55 L4.3 -9.5 4.35 -9.5 4.4 -9.45 4.6 -9.2 4.65 -9.1 4.85 -8.8 5.15 -8.2 Q6.65 -7.8 7.9 -6.8 L7.9 -6.75 8.1 -6.65 8.25 -6.45 8.35 -6.4 8.65 -6.15 8.9 -5.9 8.85 -5.85 Q8.85 -5.8 8.9 -5.75 L9.0 -5.7 9.1 -5.6 9.2 -5.55 Q9.25 -5.4 9.3 -5.35 9.35 -5.25 9.45 -5.2 L9.45 -5.25 9.4 -5.3 9.45 -5.3 9.75 -4.8 Q11.05 -3.1 11.1 -1.55 11.55 -0.35 11.55 0.6 L11.55 0.7 11.45 1.6 Q11.45 1.9 11.35 2.65 L11.2 3.35 11.1 3.75 10.95 4.05 10.9 4.1 10.85 4.25 10.65 4.7 10.4 5.2 10.15 5.55 9.85 5.95 9.6 6.2 9.55 6.3 9.45 6.4 Q9.45 6.45 9.25 6.55 L9.2 6.6 9.15 6.6 9.0 6.7 8.8 6.85 8.45 7.0 Q7.8 7.35 7.4 7.4 L7.2 7.4 6.85 7.45 Q6.7 7.7 6.1 8.1 L5.95 8.25 5.65 8.45 5.2 8.7 5.2 8.65 5.0 8.75 Q4.65 8.9 4.05 9.15 L3.5 9.3 3.15 9.45 2.35 9.6 2.25 9.65 1.95 9.75 1.85 9.8 1.75 9.8 1.65 9.85 1.6 9.85 1.05 9.9 1.0 9.9 0.55 9.95 0.5 10.0 -2.0 10.0 -2.5 9.95 -3.25 9.9 -3.75 9.8 -3.9 9.75 -4.35 9.65 -4.55 9.6 -5.15 9.4 -5.65 9.25 -5.8 9.25 -5.95 9.2 -6.25 9.05 -6.45 8.9 -6.75 8.75 -7.3 8.45 -7.55 8.3 -7.6 8.25 -8.1 7.9 -8.15 7.75 -8.25 7.7 Q-8.6 7.35 -8.9 6.95 L-8.95 6.9 Q-9.25 6.6 -9.5 5.85 L-9.55 5.7 Q-9.55 5.6 -9.6 5.5 L-9.6 5.45 -9.8 4.75 -9.9 4.6 -9.8 4.65 -9.85 4.5 -9.9 3.75 -9.95 3.75 -9.95 3.45 Q-9.95 3.35 -10.0 3.25 L-10.05 3.05 -10.1 2.75 -10.1 2.55 Q-10.1 2.35 -10.15 2.2 L-10.15 2.1 -10.1 2.0 -10.0 1.95 -10.05 1.9 -10.05 -0.15 -10.0 -0.05 -10.0 -0.2 -9.85 -0.2 -9.85 0.05 -9.8 0.0 Q-9.7 0.65 -9.65 1.75 L-9.6 3.3 -9.55 3.35 Q-9.55 3.4 -9.55 3.5 L-9.55 3.65 Q-9.45 4.4 -9.25 5.1 L-9.1 5.5 Q-8.8 6.3 -8.3 6.95 L-8.35 7.05 -8.35 7.1 -8.2 7.0 -8.25 6.9 -8.15 7.0 -7.85 7.7 Q-7.8 7.65 -7.7 7.7 L-7.5 7.55 -7.45 7.75 -7.35 7.95 -7.0 8.25 -6.8 8.35 -6.8 8.2 Q-6.8 7.85 -6.7 7.4 L-6.7 7.25 -6.6 5.55 -6.55 5.5 -6.45 4.3 Q-6.75 4.5 -6.95 4.5 L-7.45 4.45 -7.05 4.1 Q-6.65 3.75 -6.65 3.6 L-6.65 3.5 -6.75 3.45 -6.8 3.5 Q-7.15 3.2 -7.15 2.8 -6.85 2.75 -6.35 2.95 L-6.25 1.95 -8.1 0.4 -8.15 0.35 -8.35 0.25 -9.4 -0.6 -9.65 -0.85 -9.8 -0.95 -10.0 -1.1 -10.85 -1.7 -10.95 -1.7 -11.05 -1.75 -11.05 -1.8 -11.15 -1.9 -11.15 -1.85 M4.7 -7.85 L4.5 -7.85 4.5 -7.8 4.45 -7.8 4.45 -7.85 4.4 -7.95 4.4 -8.3 4.35 -8.3 4.1 -8.8 3.7 -9.2 3.55 -9.25 3.2 -9.4 Q3.05 -9.45 3.0 -9.5 L2.65 -9.5 1.85 -9.6 0.8 -9.6 0.65 -9.55 0.4 -9.55 -0.2 -9.5 -0.35 -9.45 -1.3 -9.25 -2.3 -8.9 -2.35 -8.85 Q-2.45 -8.8 -2.5 -8.8 L-2.95 -8.6 Q-3.2 -8.45 -3.35 -8.4 -4.05 -8.2 -5.1 -7.95 L-5.25 -7.9 -5.7 -7.7 Q-5.75 -7.75 -6.0 -7.55 -6.35 -7.35 -6.4 -7.1 -6.5 -6.7 -6.4 -6.3 L-6.35 -5.9 -6.3 -5.85 -6.25 -5.45 -6.1 -5.1 -5.85 -4.25 -5.8 -4.1 -5.8 -4.05 -5.75 -4.0 -5.7 -3.85 -5.7 -3.8 -5.65 -3.75 -5.65 -3.65 Q-4.6 -1.35 -3.35 -0.05 L-3.2 0.1 -3.1 0.2 Q-1.6 1.55 0.25 1.55 1.0 1.55 1.6 1.3 L1.65 1.3 Q1.9 1.2 2.4 1.05 L2.65 0.95 2.4 1.15 Q2.15 1.35 1.85 1.5 L1.75 1.55 Q0.95 1.9 -0.1 1.9 -1.2 1.9 -2.25 1.3 -2.75 1.0 -3.25 0.55 -4.05 -0.2 -4.8 -1.4 -5.4 -2.35 -5.9 -3.5 L-6.0 -3.75 -6.05 -3.85 -6.3 -4.1 -6.15 -4.1 -6.3 -4.45 -6.3 -4.5 -6.35 -4.6 -6.35 -4.7 -6.4 -4.75 -6.45 -4.85 -6.45 -5.0 -6.55 -5.35 -6.7 -5.9 -6.8 -6.4 -6.95 -6.9 -7.0 -6.85 -7.0 -6.65 -7.05 -6.55 -7.05 -6.5 Q-7.1 -6.5 -7.15 -6.5 L-6.35 -3.9 Q-5.8 -2.3 -5.15 -1.1 -4.5 0.05 -3.55 1.15 L-2.95 1.8 -2.3 2.55 -2.9 1.8 Q-1.6 3.0 -0.8 3.8 L-0.4 4.15 -0.15 4.4 0.3 4.75 0.35 4.85 0.4 4.85 0.45 4.95 0.5 5.0 0.55 5.15 0.65 5.25 0.85 5.55 Q1.0 5.7 1.55 6.1 2.0 6.4 2.6 6.65 L2.7 6.7 2.75 6.7 3.2 6.8 3.7 6.95 4.1 7.0 4.75 7.1 6.45 7.1 6.9 7.05 7.65 6.85 7.8 6.85 7.8 6.8 7.85 6.8 8.15 6.7 8.3 6.6 8.85 6.3 9.25 6.0 9.45 5.65 Q9.55 5.5 9.65 5.4 L9.95 4.9 Q10.4 4.0 10.6 2.9 L10.75 2.2 10.8 1.55 10.85 0.2 Q10.85 0.05 10.9 0.0 L10.95 0.05 11.0 0.0 11.05 0.0 11.1 -0.65 Q11.15 -1.1 10.7 -3.1 10.5 -3.05 10.5 -2.7 10.5 -2.3 10.6 -1.5 L10.7 -0.9 10.45 -2.0 Q10.1 -3.25 9.6 -4.15 9.05 -5.1 8.7 -5.15 8.0 -5.85 6.45 -6.9 L4.95 -7.85 4.9 -7.85 4.3 -6.95 3.95 -6.4 3.85 -6.25 3.85 -6.2 3.95 -6.2 3.7 -6.0 3.6 -5.95 3.0 -5.1 2.95 -5.1 2.65 -4.65 2.6 -4.65 2.55 -4.55 Q0.75 -2.4 -1.4 -0.8 L-1.45 -0.85 Q0.25 -2.25 2.15 -4.7 L2.75 -5.4 Q2.15 -5.0 1.6 -4.55 L1.4 -4.35 1.05 -4.1 0.8 -4.0 0.15 -3.6 0.1 -3.6 0.75 -4.25 0.8 -4.25 0.8 -4.35 1.15 -4.65 1.85 -5.4 1.9 -5.45 2.05 -5.5 2.25 -5.6 2.25 -5.65 3.05 -6.1 3.4 -6.3 3.45 -6.25 4.8 -7.85 4.8 -7.9 4.65 -7.95 4.7 -7.85 M3.4 -6.2 L3.4 -6.2 M-0.6 9.7 L-0.5 9.7 Q0.25 9.7 1.7 9.3 L1.95 9.25 2.15 9.25 2.35 9.2 Q3.4 9.0 3.6 8.8 L3.95 8.65 5.0 8.25 5.3 8.15 5.45 8.05 5.65 7.9 Q5.9 7.7 6.15 7.55 L6.0 7.55 5.95 7.6 5.8 7.6 5.3 7.65 4.2 7.6 2.6 7.4 Q2.1 7.3 1.8 7.2 L1.55 7.15 0.35 6.85 0.2 6.75 0.15 6.7 -0.5 6.35 -0.8 6.15 -1.45 7.25 -1.9 7.9 -1.9 8.0 -1.95 8.05 -2.1 8.4 -2.2 8.6 -2.25 8.6 -2.3 8.75 -2.35 8.75 -2.4 8.85 Q-2.75 9.45 -2.95 9.6 L-2.55 9.65 -1.4 9.65 -0.75 9.7 -0.6 9.7 M-2.9 4.0 L-2.4 4.45 -2.25 4.55 Q-1.05 5.5 0.1 6.0 L0.2 6.0 0.2 5.9 Q-0.2 5.15 -1.0 4.15 L-1.45 3.55 -2.75 2.2 -5.7 -1.45 -5.7 -1.5 -6.3 -2.7 Q-7.45 -5.2 -7.45 -6.15 L-7.4 -6.55 -7.85 -6.1 -7.65 -6.15 -7.6 -6.15 -7.6 -6.1 -7.8 -6.05 Q-7.95 -5.95 -8.2 -5.8 L-8.8 -5.15 -8.9 -5.05 -9.8 -4.0 -10.1 -3.6 -10.15 -3.6 -10.25 -3.5 -10.3 -3.35 Q-10.65 -2.85 -10.95 -2.3 L-10.85 -2.4 -10.95 -2.25 -10.9 -2.25 -10.9 -2.1 -10.8 -2.05 Q-9.5 -1.55 -8.1 -0.3 L-7.7 0.1 -7.25 0.4 -6.85 0.65 -6.45 1.05 Q-5.4 2.05 -4.55 2.6 L-4.3 2.8 Q-3.95 3.05 -3.45 3.5 -3.1 3.8 -2.9 4.0 M-10.95 -2.2 L-10.95 -2.2 M-10.95 -2.1 L-10.95 -2.1 M-3.15 4.45 L-4.7 3.2 -5.0 2.95 -5.2 3.2 -5.2 3.25 -5.25 3.25 -5.45 3.45 Q-5.2 3.6 -5.1 3.7 L-4.4 4.25 -4.4 4.35 -4.5 4.4 Q-5.45 4.3 -6.0 4.0 L-6.2 4.15 -6.35 5.5 -6.45 7.2 -6.5 7.2 Q-6.5 7.5 -6.5 7.9 -6.5 8.25 -6.5 8.4 L-6.5 8.5 -6.15 8.7 -5.95 8.75 -5.6 8.9 -5.3 9.0 -5.1 9.1 -4.65 9.25 -4.15 9.35 Q-4.0 9.35 -3.9 9.45 L-3.6 9.45 -3.4 9.5 -3.35 9.5 -3.3 9.55 -3.15 9.6 -2.8 9.25 -2.5 8.75 -2.0 7.95 -2.0 7.9 -1.45 6.9 -1.15 6.35 -1.25 6.35 -1.05 6.0 -1.25 5.85 -1.45 5.7 -1.75 5.5 -3.15 4.45 M-6.1 3.05 L-6.05 3.1 Q-5.65 2.85 -5.25 2.75 L-6.0 2.15 -6.0 2.2 -6.1 3.05 M-7.75 7.8 L-7.75 7.8 M-3.65 9.45 L-3.65 9.45" fill="#111111" fill-rule="evenodd" stroke="none"/>
    <path d="M-7.5 7.55 L-7.7 7.7 Q-7.8 7.65 -7.85 7.7 L-8.15 7.0 -8.4 6.1 Q-8.4 5.9 -8.55 5.5 L-8.6 5.25 Q-8.8 4.55 -8.85 4.2 L-8.9 4.05 -8.9 4.0 -8.95 3.4 -8.75 2.0 -8.7 1.6 -8.75 2.0 -8.75 2.7 Q-8.75 3.95 -8.35 5.5 L-8.2 5.9 Q-7.9 6.9 -7.55 7.55 L-7.5 7.55 M9.4 -5.3 L9.45 -5.25 9.45 -5.2 Q9.35 -5.25 9.3 -5.35 9.25 -5.4 9.2 -5.55 L9.1 -5.6 9.0 -5.7 8.9 -5.75 Q8.85 -5.8 8.85 -5.85 L8.9 -5.9 9.4 -5.3 M8.25 -6.45 L8.1 -6.65 8.3 -6.45 8.25 -6.45 M-6.35 -5.9 L-6.3 -5.85 -6.35 -5.9 M-5.8 -4.1 L-5.8 -4.05 -5.8 -4.1 M-5.7 -3.85 L-5.7 -3.8 -5.7 -3.85 M4.8 -7.85 L4.7 -7.85 4.65 -7.95 4.8 -7.9 4.8 -7.85 M4.9 -7.85 L4.95 -7.85 4.9 -7.85 M10.7 -0.9 L10.6 -1.5 Q10.5 -2.3 10.5 -2.7 10.5 -3.05 10.7 -3.1 11.15 -1.1 11.1 -0.65 L11.05 0.0 11.0 0.0 10.95 0.05 10.9 0.0 Q10.85 0.05 10.85 0.2 L10.8 0.2 Q10.8 -0.3 10.7 -0.9 M-7.6 -6.1 L-7.6 -6.15 -7.65 -6.15 -7.85 -6.1 -7.4 -6.55 -7.45 -6.15 -7.6 -6.1 M-7.75 7.8 L-7.75 7.8" fill="#101010" fill-rule="evenodd" stroke="none"/>
    <path d="M-3.2 0.1 L-3.1 0.2 -3.2 0.1 M2.4 1.05 Q2.3 0.6 1.75 0.5 L0.2 0.4 Q-0.9 0.35 -1.55 0.0 -2.35 -0.4 -2.7 -1.3 -1.8 -0.5 -1.5 -0.5 0.25 -0.5 3.0 -5.1 L3.6 -5.95 3.7 -6.0 Q3.95 -5.75 5.0 -5.1 L6.55 -4.1 Q7.15 -3.65 7.7 -3.0 L8.5 -1.95 Q8.7 -1.7 9.4 -0.15 L9.45 -0.05 9.55 0.45 9.6 1.1 9.6 1.85 9.55 1.95 9.55 2.25 9.45 3.0 9.3 3.7 9.2 3.9 9.1 4.3 9.1 4.4 9.05 4.4 8.9 4.8 8.65 5.35 8.4 5.7 8.35 5.75 8.1 6.05 7.65 6.45 7.35 6.7 Q6.95 6.9 6.65 6.9 L6.6 6.9 6.5 6.95 5.35 6.95 4.2 6.8 3.6 6.65 2.95 6.5 Q2.55 6.4 2.3 6.25 L1.65 5.9 Q1.3 5.75 1.15 5.65 L0.5 5.0 0.45 4.95 0.4 4.85 0.35 4.85 0.3 4.75 -0.15 4.4 -0.4 4.15 -0.8 3.8 Q-1.6 3.0 -2.9 1.8 L-2.3 2.55 -2.95 1.8 -3.35 1.25 -3.55 1.15 Q-4.5 0.05 -5.15 -1.1 -5.8 -2.3 -6.35 -3.9 L-7.15 -6.5 Q-7.1 -6.5 -7.05 -6.5 L-7.05 -6.55 -7.0 -6.65 -7.0 -6.6 Q-6.9 -5.8 -6.7 -5.45 L-6.6 -5.2 -6.55 -5.05 -6.45 -4.85 -6.4 -4.75 -6.35 -4.7 -6.35 -4.6 -6.3 -4.5 -6.3 -4.45 -6.15 -4.1 -6.3 -4.1 -6.05 -3.85 -6.0 -3.75 -5.9 -3.5 Q-5.4 -2.35 -4.8 -1.4 -4.05 -0.2 -3.25 0.55 -3.25 1.0 -2.65 1.2 L-2.25 1.3 Q-1.2 1.9 -0.1 1.9 0.95 1.9 1.75 1.55 2.1 1.55 2.25 1.45 2.4 1.35 2.4 1.15 L2.65 0.95 2.4 1.05 M3.2 6.8 L2.75 6.7 2.95 6.75 3.2 6.8 M4.65 -7.4 L4.65 -7.4 M-5.7 -1.45 Q-5.7 -1.2 -4.9 0.5 -4.15 2.1 -3.9 2.5 L-2.9 4.0 Q-3.1 3.8 -3.45 3.5 -3.95 3.05 -4.3 2.8 L-4.55 2.6 Q-5.4 2.05 -6.45 1.05 L-6.85 0.65 -7.45 0.1 -7.25 0.4 -7.7 0.1 -8.1 -0.3 Q-9.5 -1.55 -10.8 -2.05 L-10.9 -2.1 -10.9 -2.25 -10.95 -2.25 -10.85 -2.4 -10.95 -2.3 Q-10.65 -2.85 -10.3 -3.35 L-10.25 -3.5 -10.15 -3.6 -10.1 -3.6 -9.8 -4.0 -8.9 -5.05 -8.9 -5.0 -8.8 -5.1 -8.8 -5.15 -8.2 -5.8 Q-7.95 -5.95 -7.8 -6.05 L-7.6 -6.1 -7.45 -6.15 Q-7.45 -5.2 -6.3 -2.7 L-5.7 -1.5 -5.7 -1.45 M-10.95 -2.2 L-10.95 -2.2" fill="#af481d" fill-rule="evenodd" stroke="none"/>
    <path d="M8.35 -6.4 L8.25 -6.45 8.3 -6.45 8.35 -6.4" fill="#663300" fill-rule="evenodd" stroke="none"/>
    <path d="M-0.5 6.35 L0.15 6.7 0.2 6.75 0.35 6.85 1.55 7.15 1.8 7.2 Q2.1 7.3 2.6 7.4 L4.2 7.6 5.3 7.65 5.8 7.6 5.95 7.6 6.0 7.55 6.15 7.55 Q5.9 7.7 5.65 7.9 L5.45 8.05 5.3 8.15 5.0 8.25 3.95 8.65 3.6 8.8 Q3.4 9.0 2.35 9.2 L2.15 9.25 1.95 9.25 1.7 9.3 Q0.25 9.7 -0.5 9.7 L-0.6 9.7 Q-0.35 9.65 -0.05 9.5 L0.2 9.4 0.25 9.4 0.35 9.3 0.45 9.0 0.4 8.9 0.3 8.3 0.15 7.7 0.05 7.4 Q-0.25 7.1 -0.5 6.35" fill="#574d2d" fill-rule="evenodd" stroke="none"/>
    <path d="M-11.15 -1.85 L-11.15 -1.9 -11.05 -1.8 -11.15 -1.85 M-10.0 -1.1 L-9.8 -0.95 -9.65 -0.85 -9.4 -0.6 -8.35 0.25 -8.15 0.35 -8.1 0.4 -8.45 0.35 -8.6 0.35 -8.6 0.5 Q-8.6 0.7 -8.7 1.6 L-8.75 2.0 -8.95 3.4 -8.9 4.0 -8.9 4.05 -8.85 4.2 -8.7 5.0 -8.7 5.05 -8.65 5.1 -8.6 5.25 -8.55 5.5 Q-8.4 5.9 -8.4 6.1 L-8.4 6.2 -8.25 6.9 -8.2 7.0 -8.35 7.1 -8.35 7.05 -8.3 6.95 Q-8.8 6.3 -9.1 5.5 L-9.25 5.1 Q-9.45 4.4 -9.55 3.65 L-9.55 3.5 Q-9.55 3.4 -9.55 3.35 L-9.6 3.3 -9.65 1.75 Q-9.7 0.65 -9.8 0.0 L-9.85 0.05 -9.85 -0.2 -10.0 -0.2 -10.0 -0.05 -10.05 -0.15 -10.0 -1.1 M-0.5 6.35 Q-0.25 7.1 0.05 7.4 L0.15 7.7 0.3 8.3 0.4 8.9 0.45 9.0 0.35 9.3 0.25 9.4 0.2 9.4 -0.05 9.5 Q-0.35 9.65 -0.6 9.7 L-0.75 9.7 -1.4 9.65 -2.55 9.65 -2.95 9.6 Q-2.75 9.45 -2.4 8.85 L-2.35 8.75 -2.3 8.75 -2.25 8.6 -2.2 8.6 -2.1 8.4 -1.95 8.05 -1.9 8.0 -1.9 7.9 -1.45 7.25 -0.8 6.15 -0.5 6.35 M-10.95 -2.1 L-10.95 -2.1" fill="#8d873f" fill-rule="evenodd" stroke="none"/>
    <path d="M-7.0 -6.65 L-7.0 -6.85 -6.95 -6.9 -6.8 -6.4 -6.7 -5.9 -6.55 -5.35 -6.45 -5.0 -6.45 -4.85 -6.55 -5.05 -6.6 -5.2 -6.7 -5.45 Q-6.9 -5.8 -7.0 -6.6 L-7.0 -6.65 M-6.35 -4.7 L-6.35 -4.6 -6.35 -4.7" fill="#653223" fill-rule="evenodd" stroke="none"/>
    <path d="M-0.35 -1.5 L-0.35 -1.5" fill="#652110" fill-rule="evenodd" stroke="none"/>
    <path d="M-8.1 0.4 L-6.25 1.95 -6.35 2.95 Q-6.85 2.75 -7.15 2.8 -7.15 3.2 -6.8 3.5 L-6.75 3.45 -6.65 3.5 -6.65 3.6 Q-6.65 3.75 -7.05 4.1 L-7.45 4.45 -6.95 4.5 Q-6.75 4.5 -6.45 4.3 L-6.55 5.5 -6.6 5.55 -6.7 7.25 -6.7 7.4 Q-6.8 7.85 -6.8 8.2 L-6.8 8.35 -7.0 8.25 -7.35 7.95 -7.45 7.75 -7.5 7.55 -7.55 7.55 Q-7.9 6.9 -8.2 5.9 L-8.35 5.5 Q-8.75 3.95 -8.75 2.7 L-8.75 2.0 -8.7 1.6 Q-8.6 0.7 -8.6 0.5 L-8.6 0.35 -8.45 0.35 -8.1 0.4 M-8.15 7.0 L-8.25 6.9 -8.4 6.2 -8.4 6.1 -8.15 7.0 M-1.25 5.85 L-1.05 6.0 -1.25 6.35 -1.15 6.35 -1.45 6.9 -2.0 7.9 -2.0 7.95 -2.5 8.75 -2.8 9.25 -3.15 9.6 -3.3 9.55 -3.35 9.5 -3.4 9.5 -3.6 9.45 -3.9 9.45 Q-4.0 9.35 -4.15 9.35 L-4.65 9.25 -5.1 9.1 -5.3 9.0 -5.6 8.9 -5.95 8.75 -6.15 8.7 -6.5 8.5 -6.5 8.4 Q-6.5 8.25 -6.5 7.9 -6.5 7.5 -6.5 7.2 L-6.45 7.2 -6.35 5.5 -6.2 4.15 -6.0 4.0 Q-5.45 4.3 -4.5 4.4 L-4.4 4.35 -4.4 4.25 -5.1 3.7 Q-5.2 3.6 -5.45 3.45 L-5.25 3.25 -5.2 3.25 -5.2 3.2 -5.0 2.95 -4.7 3.2 -3.15 4.45 Q-2.6 5.15 -2.1 5.5 -1.8 5.75 -1.45 5.8 L-1.25 5.85 M-6.1 3.05 L-6.0 2.2 -6.0 2.15 -5.25 2.75 Q-5.65 2.85 -6.05 3.1 L-6.1 3.05 M-8.85 4.2 Q-8.8 4.55 -8.6 5.25 L-8.65 5.1 -8.7 5.05 -8.7 5.0 -8.85 4.2 M-2.85 8.7 L-2.85 8.7 M-3.65 9.45 L-3.65 9.45" fill="#c0a854" fill-rule="evenodd" stroke="none"/>
    <path d="M-1.25 5.85 L-1.45 5.8 Q-1.8 5.75 -2.1 5.5 -2.6 5.15 -3.15 4.45 L-1.75 5.5 -1.45 5.7 -1.25 5.85" fill="#695a27" fill-rule="evenodd" stroke="none"/>
    <path d="M-8.25 7.7 L-8.15 7.75 -8.1 7.9 -8.25 7.7 M-2.85 8.7 L-2.85 8.7" fill="#743d0a" fill-rule="evenodd" stroke="none"/>
    <path d="M-7.6 8.25 L-7.55 8.3 -7.6 8.25" fill="#ebe9e2" fill-rule="evenodd" stroke="none"/>
    <path d="M-2.35 8.75 L-2.3 8.75 -2.35 8.75" fill="#3d2005" fill-rule="evenodd" stroke="none"/>
  </g>
</svg>
