<?xml version="1.0" encoding="UTF-8" standalone="no"?>
<svg xmlns:ffdec="https://www.free-decompiler.com/flash" xmlns:xlink="http://www.w3.org/1999/xlink" ffdec:objectType="shape" height="33.8px" width="28.85px" xmlns="http://www.w3.org/2000/svg">
  <g transform="matrix(1.0, 0.0, 0.0, 1.0, 14.45, 16.9)">
    <path d="M-10.95 11.55 L-10.45 10.85 Q-10.45 10.8 -10.35 10.6 L-10.3 10.6 -10.2 10.45 -10.1 10.35 -9.85 9.95 -9.55 9.6 -8.65 8.5 -8.15 7.75 -8.05 7.7 Q-7.9 7.5 -7.5 7.05 L-7.4 6.9 -6.7 6.2 -6.5 5.95 -5.85 5.25 Q-5.55 4.95 -5.25 4.6 L-4.85 4.05 -4.8 4.05 -4.75 3.95 -4.35 3.5 -3.5 2.6 Q-2.9 1.95 -2.8 1.8 -2.1 0.95 -1.45 0.25 L3.35 -4.9 6.15 -7.9 6.6 -8.4 6.7 -8.45 6.7 -8.5 Q6.75 -8.6 7.0 -8.85 L7.05 -8.95 7.5 -9.35 7.85 -9.8 7.95 -9.95 Q8.5 -10.9 10.05 -12.85 11.05 -14.1 12.2 -15.45 12.2 -15.7 12.25 -15.85 12.45 -16.35 13.05 -16.9 L13.1 -16.9 13.15 -16.85 13.15 -16.75 12.85 -16.2 12.8 -16.2 12.75 -16.05 12.75 -16.1 12.8 -16.05 12.8 -16.0 12.8 -15.95 Q12.8 -15.8 12.5 -15.35 L12.5 -15.1 Q12.5 -14.4 12.9 -13.45 13.3 -12.45 13.3 -11.55 13.3 -10.65 12.55 -9.3 L12.3 -8.85 11.7 -7.8 11.55 -7.6 11.55 -7.55 11.4 -7.3 11.55 -7.2 10.9 -6.1 10.75 -5.9 10.15 -5.15 10.2 -5.05 9.6 -4.35 8.9 -3.55 7.8 -2.15 7.2 -1.3 7.1 -1.2 6.4 -0.55 6.3 -0.5 6.25 -0.4 5.9 -0.05 5.6 0.3 5.55 0.35 5.0 1.0 4.4 1.85 Q3.6 2.9 3.2 3.4 L2.55 4.2 2.45 4.3 2.1 4.7 2.1 4.75 2.05 4.8 Q1.55 5.35 1.05 5.75 L1.1 5.75 Q0.8 6.2 0.25 6.75 L-1.05 8.1 -1.15 8.2 -2.65 9.7 Q-3.7 10.75 -3.7 10.8 L-3.9 11.05 -3.95 11.05 -4.45 11.55 -5.7 12.6 -5.75 12.55 -5.8 12.65 -5.8 12.55 -6.1 12.85 -6.45 13.1 Q-6.85 13.35 -7.35 13.55 -8.35 14.0 -9.4 14.15 L-10.35 14.25 -11.45 14.25 -11.55 14.25 -11.55 14.3 -11.7 14.45 Q-11.8 14.55 -12.0 14.55 -12.25 14.55 -12.3 14.35 L-13.0 15.0 -13.05 15.05 -13.4 15.6 -13.55 15.6 Q-13.85 15.95 -13.95 16.3 L-13.9 16.3 -13.8 16.25 -13.3 15.85 -12.8 15.35 -12.7 15.25 Q-11.9 14.55 -10.3 14.35 L-9.9 14.35 -8.7 14.3 -8.2 14.3 -6.65 14.3 -6.35 14.3 Q-6.25 14.25 -6.15 14.2 L-5.95 14.15 -5.95 13.9 -5.95 13.85 -5.55 13.5 -4.1 12.6 Q-3.2 12.0 -2.7 11.4 L-2.25 10.85 -1.75 10.4 -1.05 9.65 -0.5 9.0 0.25 8.1 0.6 7.75 1.15 7.1 1.4 6.85 Q1.6 6.75 2.0 6.25 L2.8 5.3 3.1 4.9 Q3.25 4.65 3.4 4.55 L4.65 3.25 Q4.85 3.05 5.3 2.3 L5.5 2.1 5.8 1.75 6.5 0.85 7.05 0.25 7.65 -0.4 8.3 -1.05 8.7 -1.55 Q9.0 -1.55 10.65 -3.9 L11.55 -5.15 Q11.6 -5.35 11.95 -5.95 12.15 -6.3 12.35 -6.5 L12.3 -6.55 12.35 -6.6 12.4 -6.7 12.65 -7.3 12.65 -7.35 12.65 -7.4 13.15 -8.65 13.6 -9.85 Q14.05 -11.15 14.05 -11.65 14.05 -11.9 13.65 -12.6 L13.6 -12.65 13.55 -12.75 Q13.15 -13.5 13.15 -14.3 L13.1 -14.9 13.05 -15.6 Q13.05 -15.8 13.05 -15.95 13.05 -16.15 13.1 -16.3 L13.15 -16.45 Q13.2 -16.6 13.35 -16.65 L13.35 -16.55 Q13.4 -15.6 13.45 -13.95 13.45 -13.6 13.6 -13.3 13.8 -13.0 14.1 -12.6 14.25 -12.4 14.35 -11.95 L14.4 -11.25 Q14.4 -10.7 13.6 -8.55 L12.7 -6.35 Q12.6 -5.9 11.85 -4.95 L11.5 -4.3 Q11.05 -3.85 10.3 -2.8 L10.25 -2.75 Q10.15 -2.65 9.95 -2.4 L9.7 -2.0 9.3 -1.5 8.45 -0.7 8.45 -0.65 7.45 0.6 7.2 0.9 6.8 1.4 Q6.15 2.1 6.0 2.25 L6.0 2.3 4.6 3.95 4.5 4.05 4.45 4.15 4.45 4.2 4.2 4.5 3.05 5.75 Q2.65 6.2 1.95 7.1 L0.7 8.5 -0.15 9.4 Q-0.2 9.55 -0.7 10.05 L-1.0 10.4 -1.7 11.15 -1.9 11.4 Q-2.35 11.95 -2.45 11.95 L-2.95 12.35 -2.95 12.4 -3.15 12.6 -3.5 12.9 -3.95 13.3 Q-4.2 13.45 -4.4 13.65 L-4.8 13.9 -4.85 13.95 -5.1 14.15 -5.7 14.5 -5.85 14.6 -5.95 14.55 -6.25 14.65 -7.25 14.65 -8.25 14.65 -9.95 14.7 -10.3 14.7 Q-11.95 14.85 -12.75 15.5 L-13.4 16.1 Q-13.8 16.5 -14.15 16.75 L-14.25 16.65 -14.45 16.45 -14.45 15.7 -14.3 15.6 -14.25 15.75 -14.3 15.65 Q-14.3 15.55 -13.65 15.0 L-13.3 14.75 -13.15 14.6 -12.9 14.2 -12.05 13.0 -11.9 12.8 -11.75 12.65 -10.95 11.55 M-13.95 16.3 L-13.95 16.3 M8.3 -9.85 L8.1 -9.55 7.8 -9.2 7.15 -8.5 6.45 -7.75 6.4 -7.75 3.7 -4.75 Q0.5 -1.25 -1.05 0.35 -2.05 1.4 -2.95 2.45 L-3.35 2.85 -4.2 3.85 -5.6 5.35 -6.55 6.35 -6.9 6.8 -7.15 7.0 Q-7.55 7.35 -7.9 7.85 L-8.5 8.65 -9.3 9.6 Q-9.8 10.2 -9.8 10.3 L-9.95 10.45 Q-10.6 11.5 -11.65 13.05 L-12.3 13.95 Q-7.7 13.5 -6.85 12.95 -6.65 12.85 -6.4 12.45 -6.15 12.15 -5.7 11.9 L-5.7 11.9 -5.55 11.7 -4.85 11.2 Q-4.0 10.55 -3.75 10.2 L-3.5 9.95 -3.05 9.6 -2.85 9.4 -2.35 9.0 -2.3 8.9 Q-1.7 8.45 -0.5 6.95 L0.05 6.25 0.7 5.5 2.95 2.85 4.85 0.65 Q5.75 -0.4 6.15 -1.0 L6.7 -1.6 Q7.5 -2.5 9.1 -4.55 10.25 -6.05 10.7 -6.75 L10.9 -6.95 Q11.0 -7.05 11.1 -7.3 11.15 -7.5 11.3 -7.6 L12.05 -9.0 Q12.95 -10.8 12.95 -11.5 12.95 -12.4 12.55 -13.25 12.15 -14.05 12.15 -14.8 L12.15 -14.9 11.5 -14.0 10.55 -12.8 Q9.05 -10.9 8.3 -9.85 M9.15 -10.9 L9.15 -10.9 M11.3 -7.45 L11.3 -7.35 11.35 -7.4 11.3 -7.45 M-5.0 11.35 L-5.2 11.6 -5.05 11.45 -5.0 11.35 M-14.2 16.05 L-14.15 16.3 -14.15 16.4 -14.1 16.4 -14.1 16.35 -14.2 16.1 -14.2 16.05 -14.25 15.95 -14.2 16.0 -14.2 16.05" fill="#111111" fill-rule="evenodd" stroke="none"/>
    <path d="M13.15 -16.85 Q13.2 -16.8 13.3 -16.75 L13.25 -16.7 13.3 -16.7 13.3 -16.75 13.35 -16.7 13.35 -16.55 13.35 -16.65 Q13.2 -16.6 13.15 -16.45 L13.0 -16.3 12.85 -16.2 13.15 -16.75 13.15 -16.85 M-7.25 14.65 L-7.7 14.7 -8.2 14.7 -8.25 14.65 -7.25 14.65 M-9.95 14.7 Q-12.4 15.15 -13.4 16.35 L-13.45 16.3 -13.85 16.7 -13.9 16.85 Q-13.95 16.9 -14.0 16.9 L-14.1 16.85 -14.15 16.85 -14.15 16.8 -14.25 16.7 -14.25 16.65 -14.15 16.75 Q-13.8 16.5 -13.4 16.1 L-12.75 15.5 Q-11.95 14.85 -10.3 14.7 L-9.95 14.7 M13.1 -14.9 L13.15 -14.3 Q13.15 -13.5 13.55 -12.75 L13.6 -12.65 13.65 -12.6 Q14.05 -11.9 14.05 -11.65 14.05 -11.15 13.6 -9.85 L13.9 -11.5 13.9 -11.55 13.95 -11.6 13.95 -11.75 13.85 -11.85 13.85 -11.95 13.8 -11.95 13.8 -11.9 Q13.55 -12.15 13.4 -12.4 L13.2 -13.0 Q13.25 -13.4 13.0 -14.55 13.05 -14.75 13.1 -14.9 M12.65 -7.4 L12.65 -7.35 12.65 -7.4 M12.4 -6.7 L12.35 -6.6 12.4 -6.7 M-5.95 13.9 L-5.95 14.15 -6.15 14.2 Q-6.25 14.25 -6.35 14.3 L-6.65 14.3 -6.6 14.3 -6.45 14.25 -6.4 14.2 -6.15 14.1 -6.15 14.05 -6.0 13.95 -5.95 13.9 M-12.8 15.35 L-13.3 15.85 -13.8 16.25 -13.8 16.15 Q-13.35 15.7 -12.8 15.35 M-13.05 15.05 L-13.0 15.0 -12.3 14.35 Q-12.25 14.55 -12.0 14.55 -11.8 14.55 -11.7 14.45 L-11.55 14.3 -11.45 14.25 -10.35 14.25 Q-11.25 14.35 -11.8 14.5 L-12.2 14.65 -12.35 14.7 -12.4 14.65 Q-12.75 14.85 -13.05 15.05 M-9.4 14.15 Q-8.35 14.0 -7.35 13.55 -6.85 13.35 -6.45 13.1 L-6.1 12.85 -5.8 12.55 -5.8 12.65 -5.85 12.65 -5.95 12.75 -6.0 12.8 -6.05 12.85 -6.45 13.15 Q-6.85 13.45 -7.15 13.55 L-7.2 13.55 -7.9 13.85 -8.15 13.95 -8.2 13.95 -8.7 14.1 -9.4 14.15 M11.55 -7.2 L11.4 -7.3 11.55 -7.55 11.55 -7.6 11.7 -7.8 11.8 -7.95 12.3 -8.85 12.55 -9.3 Q13.3 -10.65 13.3 -11.55 13.3 -12.45 12.9 -13.45 12.5 -14.4 12.5 -15.1 L12.6 -15.0 12.65 -14.8 12.7 -14.65 Q12.95 -14.15 13.1 -13.3 L13.15 -12.75 13.2 -12.45 13.25 -12.2 Q13.4 -11.3 13.3 -10.9 L13.25 -10.55 13.25 -10.5 13.2 -10.25 13.15 -10.05 13.05 -9.8 Q13.0 -9.4 12.9 -9.25 12.8 -9.15 12.8 -9.25 L12.8 -9.2 Q12.55 -8.55 12.2 -8.05 L12.3 -8.0 11.6 -7.15 11.55 -7.2 M-14.15 16.3 L-14.1 16.35 -14.1 16.4 -14.15 16.4 -14.15 16.3 M-14.2 16.05 L-14.2 16.0 -14.25 15.95 -14.2 16.05" fill="#101010" fill-rule="evenodd" stroke="none"/>
    <path d="M12.85 -16.2 L13.0 -16.3 13.15 -16.45 13.1 -16.3 13.0 -16.2 12.85 -16.1 12.8 -16.05 12.75 -16.1 12.75 -16.05 12.8 -16.2 12.85 -16.2 M13.05 -15.95 Q13.05 -15.8 13.05 -15.6 L13.1 -14.9 Q13.05 -14.75 13.0 -14.55 13.25 -13.4 13.2 -13.0 L13.4 -12.4 Q13.55 -12.15 13.8 -11.9 L13.8 -11.95 13.85 -11.95 13.85 -11.85 13.95 -11.75 13.95 -11.6 13.9 -11.55 13.9 -11.5 13.8 -11.3 Q13.7 -10.7 13.35 -9.95 12.85 -8.45 12.4 -7.9 L12.35 -7.8 Q12.35 -7.7 12.2 -7.45 L12.2 -7.4 11.85 -6.95 11.9 -6.95 11.8 -6.85 11.7 -6.7 Q11.55 -6.45 11.5 -6.35 10.9 -5.6 9.8 -4.35 8.95 -3.1 7.75 -1.5 L9.4 -3.6 Q10.7 -5.2 11.3 -6.1 10.65 -5.1 9.4 -3.55 L7.4 -1.05 4.5 2.8 4.45 2.75 Q5.55 1.0 7.35 -1.35 L8.7 -3.1 7.2 -1.3 7.8 -2.15 8.9 -3.55 9.6 -4.35 10.2 -5.05 10.15 -5.15 10.75 -5.9 10.9 -6.1 11.55 -7.2 11.6 -7.15 12.3 -8.0 12.2 -8.05 Q12.55 -8.55 12.8 -9.2 L12.8 -9.25 Q12.8 -9.15 12.9 -9.25 13.0 -9.4 13.05 -9.8 L13.15 -10.05 13.2 -10.25 13.25 -10.5 13.25 -10.55 13.3 -10.9 Q13.4 -11.3 13.25 -12.2 L13.2 -12.45 13.15 -12.75 13.1 -13.3 Q12.95 -14.15 12.7 -14.65 L12.65 -14.8 12.6 -15.0 12.5 -15.1 12.5 -15.35 Q12.8 -15.8 12.8 -15.95 L12.8 -16.0 12.95 -15.05 12.95 -15.2 13.0 -15.6 13.05 -15.95 M-5.95 13.85 L-5.95 13.9 -6.0 13.95 -6.15 14.05 -6.15 14.1 -6.4 14.2 -6.45 14.25 -6.6 14.3 -6.45 14.2 -6.25 14.05 -6.2 14.05 -5.95 13.85 M-8.2 14.3 L-8.7 14.3 Q-7.95 14.1 -7.35 13.85 L-7.35 13.8 Q-6.95 13.65 -6.55 13.45 L-6.45 13.35 -5.85 13.0 -5.85 13.05 -5.55 12.85 -4.9 12.4 -4.55 12.15 -4.5 12.15 -4.35 12.05 -3.55 11.45 Q-3.15 11.15 -2.65 10.55 L-2.1 9.9 -3.55 11.25 Q-5.1 12.65 -5.65 12.8 -6.0 13.0 -6.15 13.0 L-6.2 13.0 -6.0 12.8 -5.95 12.75 -5.85 12.65 -5.8 12.65 -5.7 12.6 -4.45 11.55 -3.95 11.05 -3.9 11.05 -3.9 11.0 -2.65 9.9 Q-2.2 9.45 -1.75 8.95 L-1.15 8.2 -1.05 8.1 0.25 6.75 Q0.8 6.2 1.1 5.75 L1.05 5.75 Q1.55 5.35 2.05 4.8 L2.1 4.75 2.1 4.7 2.45 4.3 2.55 4.2 3.3 3.5 4.25 2.3 5.5 0.55 5.55 0.35 5.6 0.3 5.9 -0.05 6.25 -0.4 6.3 -0.5 6.4 -0.55 7.1 -1.2 6.1 0.0 Q5.5 1.0 4.65 2.2 L4.8 2.05 4.6 2.35 Q4.4 2.6 4.4 2.7 4.4 2.75 3.65 3.5 L1.9 5.65 Q1.55 6.2 0.75 7.05 L0.05 7.9 Q-0.85 9.05 -1.6 9.8 L-3.3 11.65 -4.5 12.5 Q-5.6 13.25 -5.85 13.3 L-6.1 13.4 -6.45 13.6 -6.55 13.7 Q-7.1 14.0 -8.2 14.3 M-9.9 14.35 L-10.3 14.35 Q-11.9 14.55 -12.7 15.25 L-12.8 15.35 Q-13.35 15.7 -13.8 16.15 L-13.8 16.25 -13.9 16.3 -13.9 16.25 -13.95 16.3 Q-13.85 15.95 -13.55 15.6 L-13.4 15.6 -13.05 15.05 Q-12.75 14.85 -12.4 14.65 L-12.35 14.7 -12.2 14.65 -11.8 14.5 Q-11.25 14.35 -10.35 14.25 L-9.4 14.15 -8.7 14.1 -8.7 14.2 -9.9 14.35 M12.2 -7.35 L12.25 -7.4 Q12.75 -8.1 13.0 -8.75 12.8 -8.05 12.4 -7.55 L12.2 -7.35 M12.2 -7.7 L12.2 -7.7 M13.3 -10.3 L13.3 -10.4 13.25 -10.35 13.25 -10.2 13.3 -10.3 M0.15 7.05 L-0.25 7.55 1.0 6.1 0.15 7.05 M-14.15 16.3 L-14.2 16.05 -14.2 16.1 -14.1 16.35 -14.15 16.3" fill="#663300" fill-rule="evenodd" stroke="none"/>
    <path d="M13.1 -16.3 Q13.05 -16.15 13.05 -15.95 L13.0 -15.6 12.95 -15.2 12.95 -15.05 12.8 -16.0 12.8 -16.05 12.85 -16.1 13.0 -16.2 13.1 -16.3 M13.6 -9.85 L13.15 -8.65 12.65 -7.4 12.65 -7.35 12.65 -7.3 12.4 -6.7 12.35 -6.6 12.3 -6.55 12.35 -6.5 Q12.15 -6.3 11.95 -5.95 11.6 -5.35 11.55 -5.15 L10.65 -3.9 Q9.0 -1.55 8.7 -1.55 L8.3 -1.05 7.65 -0.4 7.05 0.25 6.5 0.85 5.8 1.75 5.5 2.1 5.3 2.3 Q4.85 3.05 4.65 3.25 L3.4 4.55 Q3.25 4.65 3.1 4.9 L2.8 5.3 2.0 6.25 Q1.6 6.75 1.4 6.85 L1.15 7.1 0.6 7.75 0.25 8.1 -0.5 9.0 -1.05 9.65 -1.75 10.4 -2.25 10.85 -2.7 11.4 Q-3.2 12.0 -4.1 12.6 L-5.55 13.5 -5.95 13.85 -6.2 14.05 -6.25 14.05 -6.45 14.2 -6.6 14.3 -6.65 14.3 -8.2 14.3 Q-7.1 14.0 -6.55 13.7 L-6.45 13.6 -6.1 13.4 -5.85 13.3 Q-5.6 13.25 -4.5 12.5 L-3.3 11.65 -1.6 9.8 Q-0.85 9.05 0.05 7.9 L0.75 7.05 Q1.55 6.2 1.9 5.65 L3.65 3.5 Q4.4 2.75 4.4 2.7 4.4 2.6 4.6 2.35 L4.8 2.05 4.65 2.2 Q5.5 1.0 6.1 0.0 L7.1 -1.2 7.2 -1.3 8.7 -3.1 7.35 -1.35 Q5.55 1.0 4.45 2.75 L4.5 2.8 7.4 -1.05 9.4 -3.55 Q10.65 -5.1 11.3 -6.1 10.7 -5.2 9.4 -3.6 L7.75 -1.5 Q8.95 -3.1 9.8 -4.35 10.9 -5.6 11.5 -6.35 11.55 -6.45 11.7 -6.7 L11.8 -6.85 11.9 -6.95 11.85 -6.95 12.2 -7.4 12.2 -7.45 Q12.35 -7.7 12.35 -7.8 L12.4 -7.9 Q12.85 -8.45 13.35 -9.95 13.7 -10.7 13.8 -11.3 L13.9 -11.5 13.6 -9.85 M-8.7 14.3 L-9.9 14.35 -8.7 14.2 -8.7 14.1 -8.2 13.95 -8.15 13.95 -7.9 13.85 -7.2 13.55 -7.15 13.55 Q-6.85 13.45 -6.45 13.15 L-6.05 12.85 -6.0 12.8 -6.2 13.0 -6.15 13.0 Q-6.0 13.0 -5.65 12.8 -5.1 12.65 -3.55 11.25 L-2.1 9.9 -2.65 10.55 Q-3.15 11.15 -3.55 11.45 L-4.35 12.05 -4.5 12.15 -4.55 12.15 -4.9 12.4 -5.55 12.85 -5.85 13.05 -5.85 13.0 -6.45 13.35 -6.55 13.45 Q-6.95 13.65 -7.35 13.8 L-7.35 13.85 Q-7.95 14.1 -8.7 14.3 M-13.95 16.3 L-13.95 16.3 -13.9 16.25 -13.95 16.3 M-5.8 12.65 L-5.75 12.55 -5.7 12.6 -5.8 12.65 -5.85 12.65 -5.8 12.65 M-3.9 11.05 L-3.7 10.8 Q-3.7 10.75 -2.65 9.7 L-1.15 8.2 -1.75 8.95 Q-2.2 9.45 -2.65 9.9 L-3.9 11.0 -3.9 11.05 M2.55 4.2 L3.2 3.4 Q3.6 2.9 4.4 1.85 L5.0 1.0 5.55 0.35 5.5 0.55 4.25 2.3 3.3 3.5 2.55 4.2 M11.3 -7.45 L11.35 -7.4 11.3 -7.35 11.3 -7.45 M13.3 -10.3 L13.25 -10.2 13.25 -10.35 13.3 -10.4 13.3 -10.3 M12.2 -7.7 L12.2 -7.7 M12.2 -7.35 L12.4 -7.55 Q12.8 -8.05 13.0 -8.75 12.75 -8.1 12.25 -7.4 L12.2 -7.35 M0.15 7.05 L1.0 6.1 -0.25 7.55 0.15 7.05" fill="#9a5a2c" fill-rule="evenodd" stroke="none"/>
    <path d="M-13.65 15.0 L-11.9 12.8 -12.05 13.0 -12.9 14.2 -13.3 14.75 -13.65 15.0 M-11.75 12.65 Q-10.85 11.3 -10.1 10.05 L-10.05 10.15 -10.15 10.3 -10.95 11.55 -11.75 12.65 M11.5 -14.0 L10.85 -13.1 9.9 -11.85 9.15 -10.9 9.1 -10.8 8.75 -10.4 8.3 -9.85 Q9.05 -10.9 10.55 -12.8 L11.5 -14.0" fill="#c7b8b1" fill-rule="evenodd" stroke="none"/>
  </g>
</svg>
