<?xml version="1.0" encoding="UTF-8" standalone="no"?>
<svg xmlns:ffdec="https://www.free-decompiler.com/flash" xmlns:xlink="http://www.w3.org/1999/xlink" ffdec:objectType="shape" height="31.5px" width="10.35px" xmlns="http://www.w3.org/2000/svg">
  <g transform="matrix(1.0, 0.0, 0.0, 1.0, 15.65, 17.5)">
    <path d="M-9.75 -9.05 L-10.0 -9.05 Q-10.65 -9.0 -11.1 -8.3 L-11.4 -7.85 -11.55 -7.35 Q-11.7 -6.95 -11.9 -6.7 L-11.95 -6.7 -12.2 -6.5 -12.6 -6.2 -13.65 -5.5 -13.7 -5.5 Q-13.75 -5.5 -13.75 -5.55 L-13.7 -5.6 Q-13.95 -6.05 -14.35 -7.35 -14.85 -9.0 -14.85 -9.55 -14.85 -9.85 -14.65 -9.9 -14.2 -10.0 -13.85 -10.35 L-14.15 -10.45 -15.35 -10.45 Q-15.6 -10.6 -15.65 -11.75 L-15.65 -13.3 Q-15.65 -14.7 -15.35 -15.35 -14.95 -16.2 -13.4 -17.5 -13.25 -17.25 -13.15 -16.5 -13.05 -15.8 -12.85 -15.4 -12.3 -14.1 -10.1 -13.4 L-8.65 -13.4 -7.35 -13.55 Q-6.2 -13.55 -5.95 -13.05 -5.85 -12.9 -5.85 -12.7 L-5.9 -12.5 Q-5.9 -11.75 -6.4 -10.9 -6.85 -10.05 -6.85 -9.8 -6.85 -9.7 -6.8 -9.55 -6.7 -9.45 -6.7 -9.35 -6.7 -9.2 -6.95 -8.9 L-7.0 -8.85 -7.4 -8.6 -7.6 -8.65 -7.65 -8.65 -7.7 -8.85 -7.6 -8.85 -7.45 -8.75 -7.4 -8.75 -7.3 -8.85 -7.15 -9.05 Q-7.05 -9.2 -7.0 -9.4 -7.0 -9.45 -7.05 -9.65 L-7.1 -9.85 Q-7.1 -10.15 -6.6 -10.95 -6.1 -11.8 -6.1 -12.5 -6.1 -12.9 -6.15 -12.95 -6.35 -13.25 -7.15 -13.3 L-7.45 -13.3 -8.25 -13.25 -8.7 -13.2 -10.05 -13.2 Q-12.2 -13.8 -12.95 -15.05 -13.25 -15.55 -13.35 -16.5 L-13.4 -17.2 Q-14.85 -16.0 -15.2 -15.2 -15.45 -14.65 -15.45 -13.3 L-15.45 -12.0 Q-15.45 -11.2 -15.3 -10.7 -13.65 -10.7 -13.65 -10.45 -13.65 -10.25 -13.9 -10.0 L-13.95 -10.0 -14.1 -9.9 -14.15 -9.85 -14.7 -9.55 Q-14.7 -9.1 -14.2 -7.45 L-13.65 -5.8 -13.45 -5.85 -13.4 -5.9 -12.55 -6.5 -12.4 -6.6 -12.1 -6.75 -12.05 -6.85 -12.05 -6.9 -11.9 -7.15 -11.75 -7.5 -11.7 -7.6 -11.45 -8.25 -11.45 -8.3 Q-11.25 -8.7 -10.95 -8.95 L-10.75 -9.15 Q-10.65 -9.25 -10.55 -9.3 L-9.75 -9.3 -9.75 -9.15 -9.6 -9.15 -9.55 -9.05 -9.75 -9.05 M-9.4 6.85 Q-9.45 6.4 -9.5 5.65 -9.6 4.6 -9.6 3.65 L-9.55 2.7 -9.45 1.0 -9.45 -3.35 -9.4 -8.25 -9.45 -8.6 -9.5 -8.9 -9.5 -9.05 -9.55 -9.25 -8.95 -9.05 -8.9 -9.05 -8.75 -9.0 -8.7 -9.0 -8.3 -8.9 -7.85 -8.85 -7.9 -8.7 -8.1 -8.75 -8.2 -8.8 -8.25 -8.8 -8.3 -8.85 -9.4 -9.0 Q-9.35 -8.8 -9.3 -8.35 L-9.2 -4.05 -9.25 -3.3 -9.25 -2.8 -9.25 1.1 -9.35 1.7 -9.4 4.6 Q-9.4 5.5 -9.3 7.3 L-9.4 6.85 M-7.85 2.35 L-7.85 2.1 -7.9 1.0 -7.85 0.95 -7.85 0.2 -7.8 0.2 Q-7.7 0.8 -7.7 1.3 L-7.7 8.15 -7.75 10.95 -7.65 11.95 -7.7 12.7 -7.75 12.75 -7.75 12.7 -7.75 11.95 -7.85 8.4 -7.85 5.7 -7.85 2.35" fill="#111111" fill-rule="evenodd" stroke="none"/>
    <path d="M-7.65 -8.65 L-7.65 -8.55 Q-7.75 -8.5 -7.75 -8.35 L-7.8 -8.05 -7.65 -3.55 -7.65 0.85 -7.6 1.0 -7.6 2.95 -7.55 7.45 -7.6 8.7 -7.65 10.95 -7.55 12.75 -7.55 13.05 -7.6 13.5 -8.0 13.9 -8.5 14.0 Q-8.95 14.0 -9.2 13.8 L-9.3 13.75 -9.35 13.75 Q-9.45 13.6 -9.45 13.3 L-9.5 12.8 Q-9.5 12.1 -9.4 11.05 L-9.35 9.1 -9.4 6.85 -9.3 7.3 Q-9.4 5.5 -9.4 4.6 L-9.35 1.7 -9.25 4.45 -9.2 5.2 -9.2 5.55 Q-9.1 8.4 -9.1 9.15 L-9.15 11.45 -9.25 13.25 -9.25 13.55 -9.05 13.65 -8.75 13.7 -8.4 13.75 -7.9 13.6 -7.8 13.25 -7.75 12.7 -7.75 12.75 -7.7 12.7 -7.65 11.95 -7.75 10.95 -7.7 8.15 -7.7 1.3 Q-7.7 0.8 -7.8 0.2 L-7.85 0.2 -7.85 0.95 -7.9 0.95 -7.9 -3.45 -7.95 -5.5 -8.0 -6.7 -8.05 -7.3 -8.05 -7.5 -7.95 -8.5 -7.9 -8.7 -7.85 -8.85 -7.7 -8.85 -7.65 -8.65 M-9.55 2.7 L-9.55 0.15 -9.5 -2.15 -9.5 -4.15 -9.6 -8.35 Q-9.65 -8.6 -9.75 -8.75 L-9.75 -9.05 -9.55 -9.05 -9.6 -9.15 -9.75 -9.15 -9.75 -9.3 -9.55 -9.25 -9.5 -9.05 -9.5 -8.9 -9.45 -8.6 -9.4 -8.25 -9.45 -3.35 -9.45 1.0 -9.55 2.7" fill="#000000" fill-rule="evenodd" stroke="none"/>
    <path d="M-9.5 -2.15 L-9.5 -4.15 -9.5 -2.15" fill="#532402" fill-rule="evenodd" stroke="none"/>
    <path d="M-9.2 -4.05 L-9.3 -8.35 -8.55 -6.65 -8.0 -6.7 -7.95 -5.5 -9.2 -4.05 M-8.1 -8.75 L-7.9 -8.7 -7.95 -8.5 -7.95 -8.6 -8.05 -8.75 -8.1 -8.75 M-9.25 -2.8 L-9.05 -2.1 Q-8.7 -1.05 -8.7 -0.5 -8.75 0.65 -8.7 1.35 -8.65 2.55 -8.15 2.55 L-7.95 2.45 -9.25 4.45 -9.35 1.7 -9.25 1.1 -9.25 -2.8 M-9.25 13.25 L-9.15 11.45 -9.1 9.15 Q-9.1 8.4 -9.2 5.55 L-9.2 5.2 -9.1 5.15 Q-9.0 5.45 -8.6 5.85 L-8.6 6.35 -8.5 7.45 Q-8.35 8.55 -8.15 8.55 L-7.85 8.4 -7.75 11.95 -7.85 11.85 Q-8.3 11.55 -8.65 12.25 -8.75 12.5 -9.2 13.25 L-9.25 13.25" fill="#8c9794" fill-rule="evenodd" stroke="none"/>
    <path d="M-11.75 -7.5 L-11.9 -7.15 -11.95 -7.25 -11.75 -7.5 M-12.4 -6.6 L-12.55 -6.5 -12.45 -6.55 -12.5 -6.6 -12.4 -6.6 M-13.35 -16.5 Q-13.25 -15.55 -12.95 -15.05 -12.2 -13.8 -10.05 -13.2 L-8.7 -13.2 -8.25 -13.25 -8.25 -13.2 Q-8.25 -12.85 -8.25 -12.55 -8.3 -11.9 -8.5 -11.7 L-9.1 -10.95 Q-9.5 -10.5 -9.95 -10.3 -11.15 -9.85 -11.85 -9.0 -12.5 -8.2 -12.5 -7.5 L-12.5 -7.25 Q-13.75 -7.45 -13.75 -9.4 -13.75 -9.95 -13.45 -9.9 L-13.35 -9.9 Q-13.25 -10.1 -13.25 -10.5 -13.25 -11.05 -13.75 -12.0 -14.3 -12.95 -14.3 -13.4 -14.3 -14.25 -13.85 -15.25 -13.35 -16.25 -13.35 -16.3 L-13.35 -16.5 M-7.15 -13.3 Q-6.35 -13.25 -6.15 -12.95 -6.1 -12.9 -6.1 -12.5 -6.1 -11.8 -6.6 -10.95 -7.1 -10.15 -7.1 -9.85 L-7.05 -9.65 Q-7.0 -9.45 -7.0 -9.4 -7.05 -9.2 -7.15 -9.05 L-7.3 -8.85 -7.35 -8.85 -7.45 -8.75 -7.6 -8.85 -7.7 -8.85 -7.85 -8.85 -8.3 -8.9 Q-6.4 -12.1 -6.4 -12.2 -6.4 -12.3 -6.75 -12.7 -7.15 -13.1 -7.15 -13.25 L-7.15 -13.3 M-8.9 -9.05 Q-8.9 -9.2 -8.6 -9.75 -8.2 -10.45 -7.8 -10.75 L-7.75 -10.7 -8.15 -9.8 Q-8.35 -9.3 -8.7 -9.0 L-8.75 -9.0 -8.9 -9.05 M-9.0 -11.45 Q-8.8 -11.7 -8.8 -11.8 -8.8 -12.2 -9.2 -11.95 -9.6 -11.75 -9.6 -11.5 -9.55 -11.2 -9.3 -11.2 -9.2 -11.2 -9.0 -11.45 M-10.2 -10.85 L-10.3 -10.9 -10.35 -10.9 -10.35 -10.7 -10.3 -10.65 Q-10.25 -10.7 -10.2 -10.7 L-10.2 -10.85 M-10.35 -12.0 Q-10.35 -12.35 -10.65 -12.15 -10.95 -12.0 -10.95 -11.75 L-10.95 -11.65 Q-10.9 -11.55 -10.75 -11.55 -10.6 -11.55 -10.5 -11.75 -10.35 -11.9 -10.35 -12.0" fill="#b6c7c4" fill-rule="evenodd" stroke="none"/>
    <path d="M-11.9 -7.15 L-12.05 -6.9 -12.05 -6.85 -12.1 -6.75 -12.4 -6.6 -12.5 -6.6 -12.45 -6.55 -12.55 -6.5 -13.4 -5.9 -13.45 -5.85 -13.65 -5.8 -14.2 -7.45 Q-14.7 -9.1 -14.7 -9.55 L-14.15 -9.85 -14.1 -9.9 -13.95 -10.0 -13.9 -10.0 Q-13.65 -10.25 -13.65 -10.45 -13.65 -10.7 -15.3 -10.7 -15.45 -11.2 -15.45 -12.0 L-15.45 -13.3 Q-15.45 -14.65 -15.2 -15.2 -14.85 -16.0 -13.4 -17.2 L-13.35 -16.5 -13.35 -16.3 Q-13.35 -16.25 -13.85 -15.25 -14.3 -14.25 -14.3 -13.4 -14.3 -12.95 -13.75 -12.0 -13.25 -11.05 -13.25 -10.5 -13.25 -10.1 -13.35 -9.9 L-13.45 -9.9 Q-13.75 -9.95 -13.75 -9.4 -13.75 -7.45 -12.5 -7.25 L-12.2 -7.25 Q-12.1 -7.25 -12.0 -7.3 L-11.95 -7.25 -11.9 -7.15" fill="#dee7e6" fill-rule="evenodd" stroke="none"/>
    <path d="M-9.75 -9.3 L-10.55 -9.3 Q-10.65 -9.25 -10.75 -9.15 L-10.95 -8.95 Q-11.25 -8.7 -11.45 -8.3 L-11.45 -8.25 -11.7 -7.6 -11.75 -7.5 -11.95 -7.25 -12.0 -7.3 Q-12.1 -7.25 -12.2 -7.25 L-12.5 -7.25 -12.5 -7.5 Q-12.5 -8.2 -11.85 -9.0 -11.15 -9.85 -9.95 -10.3 -9.5 -10.5 -9.1 -10.95 L-8.5 -11.7 Q-8.3 -11.9 -8.25 -12.55 -8.25 -12.85 -8.25 -13.2 L-8.25 -13.25 -7.45 -13.3 -7.15 -13.3 -7.15 -13.25 Q-7.15 -13.1 -6.75 -12.7 -6.4 -12.3 -6.4 -12.2 -6.4 -12.1 -8.3 -8.9 L-8.7 -9.0 Q-8.35 -9.3 -8.15 -9.8 L-7.75 -10.7 -7.8 -10.75 Q-8.2 -10.45 -8.6 -9.75 -8.9 -9.2 -8.9 -9.05 L-8.95 -9.05 -9.55 -9.25 -9.75 -9.3 M-7.3 -8.85 L-7.4 -8.75 -7.45 -8.75 -7.35 -8.85 -7.3 -8.85 M-10.35 -12.0 Q-10.35 -11.9 -10.5 -11.75 -10.6 -11.55 -10.75 -11.55 -10.9 -11.55 -10.95 -11.65 L-10.95 -11.75 Q-10.95 -12.0 -10.65 -12.15 -10.35 -12.35 -10.35 -12.0 M-10.2 -10.85 L-10.2 -10.7 Q-10.25 -10.7 -10.3 -10.65 L-10.35 -10.7 -10.35 -10.9 -10.3 -10.9 -10.2 -10.85 M-9.0 -11.45 Q-9.2 -11.2 -9.3 -11.2 -9.55 -11.2 -9.6 -11.5 -9.6 -11.75 -9.2 -11.95 -8.8 -12.2 -8.8 -11.8 -8.8 -11.7 -9.0 -11.45" fill="#92a59c" fill-rule="evenodd" stroke="none"/>
    <path d="M-9.2 -4.05 L-7.95 -5.5 -7.9 -3.45 -7.9 0.95 -7.85 0.95 -7.9 1.0 -7.85 2.1 -7.85 2.35 -7.95 2.45 -8.15 2.55 Q-8.65 2.55 -8.7 1.35 -8.75 0.65 -8.7 -0.5 -8.7 -1.05 -9.05 -2.1 L-9.25 -2.8 -9.25 -3.3 -9.2 -4.05 M-8.0 -6.7 L-8.55 -6.65 -9.3 -8.35 Q-9.35 -8.8 -9.4 -9.0 L-8.3 -8.85 -8.25 -8.8 -8.2 -8.8 -8.1 -8.75 -8.05 -8.75 -7.95 -8.6 -7.95 -8.5 -8.05 -7.5 -8.05 -7.3 -8.0 -6.7 M-7.75 12.7 L-7.8 13.25 -7.9 13.6 -8.4 13.75 -8.75 13.7 -9.05 13.65 -9.25 13.55 -9.25 13.25 -9.2 13.25 Q-8.75 12.5 -8.65 12.25 -8.3 11.55 -7.85 11.85 L-7.75 11.95 -7.75 12.7 M-7.85 8.4 L-8.15 8.55 Q-8.35 8.55 -8.5 7.45 L-8.6 6.35 -8.6 5.85 Q-8.55 5.6 -8.25 5.55 L-7.85 5.7 -7.85 8.4" fill="#6d7872" fill-rule="evenodd" stroke="none"/>
    <path d="M-7.95 2.45 L-7.85 2.35 -7.85 5.7 -8.25 5.55 Q-8.55 5.6 -8.6 5.85 -9.0 5.45 -9.1 5.15 L-9.2 5.2 -9.25 4.45 -7.95 2.45" fill="#872710" fill-rule="evenodd" stroke="none"/>
    <path d="M-7.6 8.4 L-7.55 8.35 Q-7.7 8.2 -7.7 8.0 L-7.65 6.35 Q-8.55 6.2 -9.85 4.35 L-9.9 4.35 -10.0 4.2 -9.9 2.55 Q-9.9 2.4 -10.0 1.85 L-10.1 1.2 Q-10.1 1.0 -9.85 0.8 -9.65 0.55 -9.45 0.6 L-9.4 0.65 -9.4 0.75 -9.3 1.0 -9.35 1.2 -9.3 1.35 -9.25 1.4 -9.3 1.45 -8.9 1.8 Q-8.4 2.2 -7.8 2.3 L-7.8 1.3 -7.85 1.1 Q-7.85 0.9 -7.75 0.9 L-7.25 1.5 Q-6.85 2.0 -6.85 2.15 -6.85 2.6 -7.1 4.35 -7.35 6.1 -7.35 6.3 L-7.4 6.35 -7.5 6.35 -7.5 6.4 Q-7.45 7.3 -7.5 8.25 -7.2 8.3 -7.1 8.45 -7.1 8.5 -7.1 8.75 -7.1 9.15 -7.25 10.25 -7.4 11.2 -7.35 11.9 L-7.35 12.1 -7.5 12.1 -7.65 12.15 -8.35 12.1 -8.7 12.05 -8.75 12.05 -9.05 11.9 -9.3 11.85 Q-9.5 11.8 -9.5 11.65 L-9.55 11.35 -9.5 9.65 Q-9.6 9.6 -9.65 9.45 L-9.65 9.15 -9.55 8.1 -9.5 7.6 Q-9.5 7.35 -9.4 7.3 L-9.25 7.3 -9.25 7.35 -9.25 7.5 -9.35 8.2 -9.4 8.3 Q-9.45 8.8 -9.45 9.1 -9.45 9.25 -9.4 9.3 L-9.4 9.35 -9.35 9.35 -9.35 9.4 -9.3 9.45 -9.2 9.65 -9.2 9.7 -9.3 9.7 Q-9.25 10.25 -9.25 11.15 L-9.15 11.5 -9.1 11.55 -9.1 11.6 -9.05 11.7 -9.0 11.75 -8.9 11.8 -8.85 11.8 Q-8.4 12.0 -7.55 11.95 L-7.5 11.95 -7.55 11.8 -7.55 11.6 -7.6 10.6 -7.6 10.25 -7.55 10.05 -7.45 9.9 -7.4 9.6 Q-7.25 9.05 -7.25 8.75 L-7.3 8.65 -7.3 8.55 -7.4 8.45 -7.4 8.5 -7.45 8.55 -7.65 8.45 -7.6 8.4 M-9.7 4.3 Q-9.6 4.5 -9.0 5.05 L-8.9 5.1 -8.7 5.3 -7.55 6.2 -7.5 6.2 -7.5 5.7 Q-7.5 5.35 -7.25 3.75 L-7.05 2.15 Q-7.05 2.05 -7.45 1.7 L-7.65 1.5 -7.65 2.3 -7.15 2.3 -7.15 2.4 -7.25 2.5 -7.5 2.5 -8.1 2.45 Q-8.6 2.3 -9.0 1.95 -9.4 1.55 -9.55 1.15 L-9.4 1.35 -9.45 1.15 -9.5 0.85 -9.6 0.95 Q-9.75 1.05 -9.75 1.1 L-9.65 2.9 -9.7 3.35 -9.7 3.55 -9.75 4.25 -9.7 4.3 M-7.85 13.65 L-7.85 13.65" fill="#111111" fill-rule="evenodd" stroke="none"/>
    <path d="M-9.4 7.3 L-9.45 7.25 -9.45 7.1 -9.4 7.1 -9.3 7.25 -9.25 7.25 -9.25 7.3 -9.4 7.3 M-9.25 7.35 Q-9.05 7.7 -8.8 7.9 -8.35 8.25 -7.6 8.4 L-7.65 8.45 -7.45 8.55 -7.4 8.5 -7.4 8.45 -7.3 8.55 -7.45 8.6 Q-8.5 8.6 -9.2 7.6 L-9.25 7.5 -9.25 7.35 M-7.3 8.65 L-7.25 8.75 Q-7.25 9.05 -7.4 9.6 L-7.45 9.9 -7.55 10.05 -7.6 10.05 -7.85 10.1 -8.0 10.1 Q-8.45 10.1 -8.8 10.0 L-8.85 9.95 -9.2 9.7 -9.2 9.65 -9.3 9.45 -9.35 9.4 -9.35 9.35 -9.4 9.35 -9.4 9.3 Q-9.45 9.25 -9.45 9.1 -9.45 8.8 -9.4 8.3 L-9.4 8.75 Q-9.4 9.1 -9.3 9.3 -9.15 9.65 -8.75 9.8 -8.4 9.95 -7.85 9.95 L-7.65 9.9 -7.5 9.85 -7.4 9.3 -7.3 8.65" fill="#000000" fill-rule="evenodd" stroke="none"/>
    <path d="M-8.9 11.8 L-9.0 11.75 -9.05 11.7 -9.1 11.6 -9.1 11.55 -9.15 11.5 -9.25 11.15 Q-9.25 10.25 -9.3 9.7 L-9.2 9.7 -8.85 9.95 -8.85 10.05 Q-8.85 10.15 -8.85 10.1 L-8.8 10.15 -8.7 10.15 -8.8 11.0 -8.9 11.8 M-9.4 8.3 L-9.35 8.2 -9.25 7.5 -9.2 7.6 -9.2 7.75 Q-9.2 7.85 -8.85 8.4 -8.5 8.9 -8.5 9.2 L-8.65 9.55 -8.75 9.8 Q-9.15 9.65 -9.3 9.3 -9.4 9.1 -9.4 8.75 L-9.4 8.3 M-8.1 2.45 Q-8.8 3.55 -9.7 4.25 L-9.75 4.3 -9.7 4.3 -9.75 4.25 -9.7 3.55 -9.7 3.35 -9.65 2.9 -9.75 1.1 Q-9.75 1.05 -9.6 0.95 L-9.5 0.85 -9.45 1.15 -9.4 1.35 -9.55 1.15 Q-9.4 1.55 -9.0 1.95 -8.6 2.3 -8.1 2.45" fill="#a4490d" fill-rule="evenodd" stroke="none"/>
    <path d="M-7.3 8.55 L-7.3 8.65 -7.4 9.3 -7.5 9.85 -7.65 9.9 -7.85 9.95 Q-8.4 9.95 -8.75 9.8 L-8.65 9.55 -8.5 9.2 Q-8.5 8.9 -8.85 8.4 -9.2 7.85 -9.2 7.75 L-9.2 7.6 Q-8.5 8.6 -7.45 8.6 L-7.3 8.55 M-7.55 10.05 L-7.6 10.25 -7.6 10.6 -7.55 11.6 -7.55 11.8 -7.5 11.95 -7.55 11.95 Q-8.4 12.0 -8.85 11.8 L-8.9 11.8 -8.8 11.0 -8.7 10.15 -8.8 10.15 -8.85 10.1 Q-8.85 10.15 -8.85 10.05 L-8.85 9.95 -8.8 10.0 Q-8.45 10.1 -8.0 10.1 L-7.85 10.1 -7.6 10.05 -7.55 10.05 M-8.1 2.45 L-7.5 2.5 -7.25 2.5 -7.15 2.4 -7.15 2.3 -7.65 2.3 -7.65 1.5 -7.45 1.7 Q-7.05 2.05 -7.05 2.15 L-7.25 3.75 Q-7.5 5.35 -7.5 5.7 L-7.5 6.2 -7.55 6.2 -8.7 5.3 -8.9 5.1 -9.0 5.05 Q-9.6 4.5 -9.7 4.3 L-9.75 4.3 -9.7 4.25 Q-8.8 3.55 -8.1 2.45" fill="#872710" fill-rule="evenodd" stroke="none"/>
    <path d="M-11.3 -5.85 Q-11.4 -5.45 -11.4 -5.0 L-11.35 -4.65 -11.25 -4.35 -11.3 -4.35 Q-11.5 -4.6 -11.55 -4.9 L-11.6 -5.45 Q-11.6 -5.65 -11.5 -5.85 L-11.2 -6.35 -11.2 -6.45 -11.55 -6.2 Q-12.5 -5.5 -12.5 -5.15 -12.5 -4.75 -12.45 -4.4 -12.4 -4.15 -12.35 -3.95 -12.3 -3.8 -12.15 -3.55 L-11.65 -2.65 Q-10.85 -1.65 -9.55 -1.6 L-9.55 -2.2 -9.6 -2.5 -9.6 -2.9 -9.65 -3.65 -10.0 -3.65 Q-10.75 -3.8 -10.75 -4.4 L-10.7 -4.7 -10.65 -4.85 -10.65 -4.9 -10.55 -5.05 -10.5 -5.15 Q-10.6 -5.25 -10.8 -5.65 L-11.05 -6.2 -11.05 -6.4 -11.1 -6.3 -11.2 -6.2 -11.3 -5.85 M-6.2 -2.05 L-6.2 -2.0 Q-6.2 -1.9 -6.9 -1.35 -7.45 -0.9 -7.7 -0.75 L-7.7 -0.95 -7.65 -1.0 -7.7 -1.5 -7.75 -1.5 -7.75 -1.7 Q-7.85 -3.25 -7.9 -4.95 L-8.1 -5.05 -8.1 -5.0 -8.15 -5.1 -8.2 -5.15 -8.15 -5.05 Q-8.15 -5.0 -8.15 -4.7 L-8.15 -4.45 Q-8.15 -4.3 -8.25 -4.15 L-8.3 -4.0 Q-8.55 -3.85 -9.1 -3.8 L-9.1 -3.75 Q-9.15 -3.65 -9.4 -3.65 L-9.4 -3.45 -9.35 -3.3 -9.35 -3.15 -9.4 -2.4 -9.35 -1.35 -9.45 -1.35 -9.45 -1.3 Q-9.45 -0.45 -9.5 0.0 L-9.45 0.1 Q-9.45 0.2 -9.55 0.2 L-9.7 0.25 -10.1 0.2 Q-10.9 0.1 -11.8 -1.5 L-12.15 -2.15 Q-12.65 -3.0 -12.65 -3.25 L-12.65 -3.45 -12.6 -3.55 -12.55 -3.55 -12.5 -3.75 Q-12.7 -4.3 -12.7 -4.75 -12.7 -5.25 -12.6 -5.5 -12.5 -5.65 -12.25 -5.8 -11.7 -6.15 -11.2 -6.7 L-11.05 -6.75 -11.0 -6.85 -11.0 -7.0 -10.95 -7.5 Q-10.95 -7.9 -10.8 -8.2 -10.6 -8.75 -10.15 -8.6 L-9.85 -8.6 -9.65 -8.5 -9.5 -8.5 -8.7 -8.35 Q-8.5 -8.4 -8.35 -8.2 L-8.15 -8.15 -8.2 -8.15 -8.25 -8.1 -8.2 -8.05 -8.15 -7.9 -8.1 -7.9 -8.1 -7.7 -8.15 -7.5 Q-8.2 -7.35 -8.3 -7.2 L-8.4 -6.9 -8.4 -6.85 -8.1 -7.15 -7.95 -7.25 -7.95 -7.8 Q-7.95 -8.0 -7.85 -8.05 L-8.0 -8.15 -7.85 -8.15 -7.85 -8.25 -7.5 -8.15 Q-7.1 -8.1 -6.8 -7.9 -6.35 -7.65 -6.35 -7.2 -6.35 -6.95 -6.65 -6.2 L-6.55 -6.15 -6.25 -5.6 Q-5.8 -4.9 -5.8 -4.65 L-5.8 -4.5 Q-5.75 -4.45 -5.65 -4.25 L-5.35 -3.6 -5.35 -3.4 -5.35 -3.35 -5.45 -3.3 -5.55 -3.45 -5.75 -3.9 -5.85 -4.2 Q-6.0 -3.65 -6.55 -2.85 -7.05 -2.15 -7.6 -1.65 L-7.55 -1.5 -7.55 -1.1 Q-7.1 -1.6 -6.6 -1.95 L-6.3 -2.1 -6.25 -2.1 -6.2 -2.05 M-12.4 -3.5 L-12.4 -3.35 Q-12.4 -2.95 -12.15 -2.4 L-11.7 -1.65 -11.35 -1.15 Q-10.65 -0.3 -10.15 -0.1 L-9.75 -0.1 -9.55 -0.05 -9.55 -1.35 -10.1 -1.35 Q-11.2 -1.55 -12.05 -2.9 L-12.4 -3.5 M-10.4 -8.4 Q-10.55 -8.25 -10.65 -7.75 L-10.75 -7.1 -10.75 -7.0 -10.7 -6.95 -10.75 -6.9 Q-10.6 -6.95 -10.3 -7.0 L-10.1 -7.0 Q-10.2 -7.1 -10.25 -7.3 -10.35 -7.55 -10.3 -7.75 -10.3 -8.1 -10.2 -8.3 L-10.15 -8.35 -10.25 -8.4 -10.4 -8.4 M-8.9 -7.25 L-8.75 -7.25 -8.65 -7.55 -8.6 -7.85 -8.65 -8.1 -8.7 -8.1 -9.15 -8.2 -9.35 -8.15 -9.4 -8.15 -9.4 -8.05 -9.4 -7.7 Q-9.4 -7.35 -9.25 -7.25 L-8.9 -7.25 M-8.9 -6.95 L-8.8 -6.95 -8.8 -7.0 -8.7 -7.0 Q-8.6 -7.05 -8.55 -7.1 L-8.5 -7.35 -8.45 -7.5 Q-8.35 -7.75 -8.35 -7.8 L-8.35 -7.9 -8.4 -8.0 -8.4 -8.05 -8.6 -8.2 -8.9 -8.25 -9.6 -8.25 -9.95 -8.35 -10.0 -8.3 -10.05 -8.15 -10.1 -8.1 -10.15 -7.75 Q-10.15 -7.5 -10.05 -7.35 -9.9 -7.15 -9.55 -7.05 L-9.4 -7.0 -8.9 -6.95 M-9.5 -7.8 L-9.5 -8.1 -9.55 -8.2 -8.9 -8.2 Q-8.7 -8.15 -8.5 -8.05 L-8.5 -7.9 Q-8.6 -7.7 -8.7 -7.25 L-8.7 -7.15 -8.75 -7.1 -8.9 -7.1 -9.3 -7.1 Q-9.45 -7.25 -9.5 -7.4 L-9.5 -7.8 M-9.55 -8.2 L-9.55 -8.2 M-7.25 -7.8 L-7.5 -7.9 -7.65 -8.0 Q-7.85 -7.85 -7.9 -7.65 L-7.85 -7.4 -7.65 -7.7 -7.6 -7.7 -7.6 -7.6 -7.65 -7.45 Q-7.55 -7.45 -7.3 -7.3 L-7.25 -7.25 Q-6.85 -7.05 -6.7 -6.8 -6.6 -7.1 -6.6 -7.25 L-6.6 -7.4 Q-6.7 -7.6 -7.05 -7.7 L-7.25 -7.8 M-7.35 -6.75 Q-7.1 -6.9 -6.8 -6.45 L-6.75 -6.65 -6.85 -6.85 Q-7.05 -7.25 -7.25 -7.25 L-7.5 -7.2 Q-7.7 -7.2 -7.8 -7.1 L-7.95 -6.95 -8.1 -6.6 -8.1 -6.55 -8.15 -6.5 Q-8.3 -6.25 -8.35 -6.05 L-8.35 -5.85 -8.2 -5.55 -8.0 -5.3 Q-7.95 -5.25 -7.9 -5.25 L-7.85 -5.2 -7.8 -5.2 -7.75 -5.15 -7.65 -5.15 Q-7.5 -5.15 -7.35 -5.3 L-7.35 -5.35 -7.4 -5.35 Q-7.55 -5.35 -7.65 -5.45 L-7.75 -5.6 -7.8 -5.65 Q-7.85 -5.8 -7.85 -5.95 L-7.8 -6.2 -7.75 -6.3 Q-7.6 -6.65 -7.35 -6.75 M-6.85 -6.4 Q-6.9 -6.55 -7.05 -6.6 L-7.2 -6.6 -7.35 -6.55 Q-7.5 -6.45 -7.6 -6.3 L-7.7 -6.15 -7.75 -6.0 -7.7 -5.9 -7.7 -5.85 -7.65 -5.8 -7.65 -5.75 -7.6 -5.75 -7.6 -5.7 -7.4 -5.55 -7.3 -5.4 -7.25 -5.45 -7.25 -5.5 -7.2 -5.6 -7.0 -6.05 -7.0 -6.1 -6.95 -6.1 -6.95 -6.15 -6.9 -6.2 -6.85 -6.35 -6.85 -6.4 M-6.75 -6.0 Q-7.0 -5.5 -7.2 -5.2 -7.4 -4.85 -7.5 -4.85 L-7.7 -4.9 Q-7.65 -4.65 -7.65 -4.3 L-7.65 -3.35 Q-7.65 -2.75 -7.6 -1.85 -7.15 -2.3 -6.75 -2.9 -6.05 -3.9 -6.0 -4.5 L-6.05 -4.55 -6.0 -4.55 -6.0 -4.6 Q-6.0 -4.8 -6.4 -5.4 L-6.75 -6.0 M-9.5 -6.3 L-9.55 -6.55 -9.55 -6.65 -9.5 -6.7 -8.65 -6.7 -8.55 -6.55 -8.55 -6.65 -8.6 -6.75 -8.6 -6.8 -8.75 -6.75 -8.95 -6.75 -9.45 -6.85 -9.65 -6.85 -9.9 -6.7 -10.05 -6.6 -10.1 -6.55 -10.1 -6.5 Q-10.2 -6.25 -10.2 -6.0 -10.2 -5.8 -10.0 -5.6 L-9.9 -5.5 -9.85 -5.5 -9.85 -5.45 -9.8 -5.4 -8.75 -5.45 -8.55 -5.45 -8.45 -5.55 -8.5 -5.55 Q-8.55 -5.7 -8.55 -5.8 L-8.6 -5.85 -8.6 -5.9 -8.75 -5.65 -8.75 -5.6 -8.8 -5.6 -9.0 -5.55 -9.35 -5.55 -9.5 -5.65 -9.5 -6.3 M-8.7 -6.1 Q-8.65 -6.2 -8.65 -6.25 L-8.65 -6.45 Q-8.7 -6.55 -8.8 -6.6 L-9.4 -6.6 -9.4 -6.35 -9.4 -6.3 -9.45 -6.05 -9.4 -5.9 Q-9.4 -5.8 -9.3 -5.7 L-9.0 -5.7 Q-8.9 -5.75 -8.75 -6.0 L-8.7 -6.1 M-8.7 -4.05 Q-8.55 -4.1 -8.45 -4.15 L-8.4 -4.15 -8.3 -4.4 -8.3 -4.5 Q-8.3 -4.8 -8.4 -5.05 L-8.45 -5.2 -8.45 -5.25 -8.8 -5.25 -8.9 -5.25 -9.4 -5.2 -9.5 -5.2 Q-9.55 -5.25 -9.6 -5.2 L-9.8 -5.2 -9.95 -5.05 -10.05 -4.9 -10.05 -4.8 Q-10.05 -4.15 -9.25 -4.0 L-8.7 -4.05 M-9.4 -4.7 L-9.4 -5.1 -8.7 -5.2 Q-8.4 -5.1 -8.4 -4.95 -8.4 -4.85 -8.5 -4.55 L-8.55 -4.55 -8.55 -4.5 -8.65 -4.2 -8.75 -4.15 -9.25 -4.15 Q-9.35 -4.25 -9.4 -4.4 L-9.4 -4.7 M-8.6 -4.45 Q-8.55 -4.6 -8.55 -4.85 -8.55 -4.95 -8.7 -5.0 -8.9 -5.1 -9.3 -5.1 L-9.3 -4.65 Q-9.3 -4.4 -9.2 -4.3 L-8.7 -4.3 -8.6 -4.45 M-8.75 -6.75 L-8.75 -6.75 M-9.45 -6.75 L-9.45 -6.75 M-10.75 -6.4 L-10.6 -5.9 -10.45 -5.45 -10.4 -5.35 -10.3 -5.35 -10.15 -5.4 -10.1 -5.4 -10.2 -5.55 Q-10.35 -5.8 -10.35 -6.0 -10.35 -6.35 -10.2 -6.65 L-10.05 -6.85 -10.4 -6.8 Q-10.6 -6.8 -10.7 -6.65 L-10.7 -6.6 -10.75 -6.4 M-10.35 -4.9 L-10.4 -4.75 Q-10.45 -4.6 -10.45 -4.4 -10.4 -4.05 -9.8 -4.0 -10.0 -4.1 -10.1 -4.3 -10.2 -4.55 -10.2 -4.75 -10.2 -5.05 -10.1 -5.2 L-10.3 -4.95 -10.35 -4.9" fill="#111111" fill-rule="evenodd" stroke="none"/>
    <path d="M-5.35 -3.4 L-5.3 -3.35 Q-5.3 -3.15 -5.9 -2.45 L-6.2 -2.05 -6.25 -2.1 -6.3 -2.1 -6.6 -1.95 Q-7.1 -1.6 -7.55 -1.1 L-7.55 -1.5 -7.6 -1.65 Q-7.05 -2.15 -6.55 -2.85 -6.0 -3.65 -5.85 -4.2 L-5.75 -3.9 -5.55 -3.45 -5.45 -3.3 -5.35 -3.35 -5.35 -3.4 M-12.4 -3.5 L-12.05 -2.9 Q-11.2 -1.55 -10.1 -1.35 L-9.55 -1.35 -9.55 -0.05 -9.75 -0.1 -10.15 -0.1 Q-10.65 -0.3 -11.35 -1.15 L-11.7 -1.65 -12.15 -2.4 Q-12.4 -2.95 -12.4 -3.35 L-12.4 -3.5" fill="#8d873f" fill-rule="evenodd" stroke="none"/>
    <path d="M-9.4 -8.05 L-9.15 -7.6 -8.9 -7.25 -9.25 -7.25 Q-9.4 -7.35 -9.4 -7.7 L-9.4 -8.05 M-10.05 -8.15 L-9.95 -8.05 Q-9.75 -7.85 -9.5 -7.8 L-9.5 -7.4 Q-9.45 -7.25 -9.3 -7.1 L-8.9 -7.1 -8.9 -6.95 -9.4 -7.0 -9.55 -7.05 Q-9.9 -7.15 -10.05 -7.35 -10.15 -7.5 -10.15 -7.75 L-10.1 -8.1 -10.05 -8.15 M-7.5 -7.2 L-7.55 -7.2 Q-7.5 -7.0 -7.4 -6.8 L-7.35 -6.75 Q-7.6 -6.65 -7.75 -6.3 L-7.8 -6.2 -7.85 -5.95 Q-7.85 -5.8 -7.8 -5.65 L-7.75 -5.6 Q-8.0 -5.55 -8.0 -5.3 L-8.2 -5.55 -8.35 -5.85 -8.35 -6.05 Q-8.3 -6.25 -8.15 -6.5 L-8.1 -6.55 -8.1 -6.6 -7.95 -6.95 -7.8 -7.1 Q-7.7 -7.2 -7.5 -7.2 M-7.7 -6.15 L-7.7 -5.9 -7.75 -6.0 -7.7 -6.15 M-7.4 -5.55 L-7.3 -5.45 -7.25 -5.45 -7.3 -5.4 -7.4 -5.55 M-6.95 -6.15 L-6.9 -6.2 -6.95 -6.15 M-6.85 -6.35 L-6.85 -6.4 -6.85 -6.35 M-10.1 -6.55 L-10.05 -6.45 Q-9.9 -6.3 -9.5 -6.3 L-9.5 -5.65 -9.35 -5.55 -9.0 -5.55 -8.8 -5.6 -8.75 -5.45 -9.8 -5.4 -9.85 -5.45 -9.85 -5.5 -9.9 -5.5 -10.0 -5.6 Q-10.2 -5.8 -10.2 -6.0 -10.2 -6.25 -10.1 -6.5 L-10.1 -6.55 M-9.4 -6.35 L-9.3 -6.25 Q-9.0 -6.1 -8.8 -6.1 L-8.7 -6.1 -8.75 -6.0 Q-8.9 -5.75 -9.0 -5.7 L-9.3 -5.7 Q-9.4 -5.8 -9.4 -5.9 L-9.45 -6.05 -9.4 -6.3 -9.4 -6.35 M-8.8 -5.25 L-8.9 -5.25 -8.8 -5.25 M-10.05 -4.9 Q-9.85 -4.7 -9.45 -4.7 L-9.4 -4.7 -9.4 -4.4 Q-9.35 -4.25 -9.25 -4.15 L-8.75 -4.15 -8.65 -4.2 -8.7 -4.15 -8.7 -4.05 -9.25 -4.0 Q-10.05 -4.15 -10.05 -4.8 L-10.05 -4.9 M-9.3 -4.65 Q-9.0 -4.45 -8.6 -4.45 L-8.7 -4.3 -9.2 -4.3 Q-9.3 -4.4 -9.3 -4.65" fill="#fccd9e" fill-rule="evenodd" stroke="none"/>
    <path d="M-11.65 -2.65 L-12.15 -3.55 Q-12.3 -3.8 -12.35 -3.95 -12.4 -4.15 -12.45 -4.4 -12.5 -4.75 -12.5 -5.15 -12.5 -5.5 -11.55 -6.2 L-11.2 -6.45 -11.2 -6.35 -11.5 -5.85 Q-11.6 -5.65 -11.6 -5.45 L-11.55 -4.9 Q-11.5 -4.6 -11.3 -4.35 L-11.25 -4.35 -11.35 -4.65 -11.4 -5.0 Q-11.4 -5.45 -11.3 -5.85 L-11.1 -5.3 Q-10.9 -4.85 -10.7 -4.7 L-10.75 -4.4 Q-10.75 -3.8 -10.0 -3.65 L-10.05 -3.65 -10.25 -3.45 Q-10.6 -3.1 -11.35 -2.8 L-11.65 -2.65 M-11.2 -6.2 L-11.1 -6.3 -11.05 -6.4 -11.05 -6.2 -11.1 -6.3 -11.2 -6.2 M-10.4 -8.4 L-10.25 -8.4 -10.15 -8.35 -10.2 -8.3 Q-10.3 -8.1 -10.3 -7.75 -10.35 -7.55 -10.25 -7.3 -10.2 -7.1 -10.1 -7.0 L-10.3 -7.0 Q-10.6 -6.95 -10.75 -6.9 L-10.7 -6.95 -10.75 -7.0 -10.75 -7.1 -10.65 -7.75 Q-10.55 -8.25 -10.4 -8.4 M-7.25 -7.25 L-7.3 -7.3 Q-7.55 -7.45 -7.65 -7.45 L-7.6 -7.6 -7.6 -7.7 -7.65 -7.7 -7.85 -7.4 -7.9 -7.65 Q-7.85 -7.85 -7.65 -8.0 L-7.5 -7.9 -7.25 -7.8 -7.3 -7.8 Q-7.4 -7.75 -7.4 -7.6 L-7.25 -7.25 M-10.75 -6.4 L-10.7 -6.6 -10.7 -6.65 Q-10.6 -6.8 -10.4 -6.8 L-10.05 -6.85 -10.2 -6.65 Q-10.35 -6.35 -10.35 -6.0 -10.35 -5.8 -10.2 -5.55 L-10.1 -5.4 -10.15 -5.4 -10.3 -5.35 -10.4 -5.35 -10.45 -5.45 -10.6 -5.9 -10.75 -6.4 M-10.35 -4.9 L-10.3 -4.95 -10.1 -5.2 Q-10.2 -5.05 -10.2 -4.75 -10.2 -4.55 -10.1 -4.3 -10.0 -4.1 -9.8 -4.0 -10.4 -4.05 -10.45 -4.4 -10.45 -4.6 -10.4 -4.75 L-10.35 -4.9" fill="#663300" fill-rule="evenodd" stroke="none"/>
    <path d="M-11.3 -5.85 L-11.2 -6.2 -11.1 -6.3 -11.05 -6.2 -10.8 -5.65 Q-10.6 -5.25 -10.5 -5.15 L-10.55 -5.05 -10.65 -4.9 -10.65 -4.85 -10.7 -4.7 Q-10.9 -4.85 -11.1 -5.3 L-11.3 -5.85 M-10.0 -3.65 L-9.65 -3.65 -9.6 -2.9 -9.6 -2.5 -9.55 -2.2 -9.55 -1.6 Q-10.85 -1.65 -11.65 -2.65 L-11.35 -2.8 Q-10.6 -3.1 -10.25 -3.45 L-10.05 -3.65 -10.0 -3.65 M-7.25 -7.25 L-7.4 -7.6 Q-7.4 -7.75 -7.3 -7.8 L-7.25 -7.8 -7.05 -7.7 Q-6.7 -7.6 -6.6 -7.4 L-6.6 -7.25 Q-6.6 -7.1 -6.7 -6.8 -6.85 -7.05 -7.25 -7.25 M-6.75 -6.0 L-6.4 -5.4 Q-6.0 -4.8 -6.0 -4.6 L-6.0 -4.55 -6.05 -4.55 -6.0 -4.5 Q-6.05 -3.9 -6.75 -2.9 -7.15 -2.3 -7.6 -1.85 -7.65 -2.75 -7.65 -3.35 L-7.65 -4.3 Q-7.65 -4.65 -7.7 -4.9 L-7.5 -4.85 Q-7.4 -4.85 -7.2 -5.2 -7.0 -5.5 -6.75 -6.0" fill="#532402" fill-rule="evenodd" stroke="none"/>
    <path d="M-9.4 -8.05 L-9.4 -8.15 -9.35 -8.15 -9.15 -8.2 -8.7 -8.1 -8.65 -8.1 -8.6 -7.85 -8.65 -7.55 -8.75 -7.25 -8.9 -7.25 -9.15 -7.6 -9.4 -8.05 M-10.05 -8.15 L-10.0 -8.3 -9.95 -8.35 -9.6 -8.25 -8.9 -8.25 -8.6 -8.2 -8.4 -8.05 -8.4 -8.0 -8.35 -7.9 -8.35 -7.8 Q-8.35 -7.75 -8.45 -7.5 L-8.5 -7.35 -8.55 -7.1 Q-8.6 -7.05 -8.7 -7.0 L-8.8 -7.0 -8.8 -6.95 -8.9 -6.95 -8.9 -7.1 -8.75 -7.1 -8.7 -7.15 -8.7 -7.25 Q-8.6 -7.7 -8.5 -7.9 L-8.5 -8.05 Q-8.7 -8.15 -8.9 -8.2 L-9.55 -8.2 -9.5 -8.1 -9.5 -7.8 Q-9.75 -7.85 -9.95 -8.05 L-10.05 -8.15 M-9.55 -8.2 L-9.55 -8.2 M-7.35 -6.75 L-7.4 -6.8 Q-7.5 -7.0 -7.55 -7.2 L-7.5 -7.2 -7.25 -7.25 Q-7.05 -7.25 -6.85 -6.85 L-6.75 -6.65 -6.8 -6.45 Q-7.1 -6.9 -7.35 -6.75 M-8.0 -5.3 Q-8.0 -5.55 -7.75 -5.6 L-7.65 -5.45 Q-7.55 -5.35 -7.4 -5.35 L-7.35 -5.35 -7.35 -5.3 Q-7.5 -5.15 -7.65 -5.15 L-7.75 -5.15 -7.8 -5.2 -7.85 -5.2 -7.9 -5.25 Q-7.95 -5.25 -8.0 -5.3 M-7.7 -6.15 L-7.6 -6.3 Q-7.5 -6.45 -7.35 -6.55 L-7.2 -6.6 -7.05 -6.6 Q-6.9 -6.55 -6.85 -6.4 L-6.85 -6.35 -6.9 -6.2 -6.95 -6.15 -6.95 -6.1 -7.0 -6.1 -7.0 -6.05 -7.2 -5.6 -7.25 -5.5 -7.25 -5.45 -7.3 -5.45 -7.4 -5.55 -7.6 -5.7 -7.6 -5.75 -7.65 -5.75 -7.65 -5.8 -7.7 -5.85 -7.7 -5.9 -7.7 -6.15 M-10.1 -6.55 L-10.05 -6.6 -9.9 -6.7 -9.65 -6.85 -9.45 -6.85 -8.95 -6.75 -8.75 -6.75 -8.6 -6.8 -8.6 -6.75 -8.55 -6.65 -8.55 -6.55 -8.65 -6.7 -9.5 -6.7 -9.55 -6.65 -9.55 -6.55 -9.5 -6.3 Q-9.9 -6.3 -10.05 -6.45 L-10.1 -6.55 M-8.8 -5.6 L-8.75 -5.6 -8.75 -5.65 -8.6 -5.9 -8.6 -5.85 -8.55 -5.8 Q-8.55 -5.7 -8.5 -5.55 L-8.45 -5.55 -8.55 -5.45 -8.75 -5.45 -8.8 -5.6 M-9.4 -6.35 L-9.4 -6.6 -8.8 -6.6 Q-8.7 -6.55 -8.65 -6.45 L-8.65 -6.25 Q-8.65 -6.2 -8.7 -6.1 L-8.8 -6.1 Q-9.0 -6.1 -9.3 -6.25 L-9.4 -6.35 M-8.8 -5.25 L-8.45 -5.25 -8.45 -5.2 -8.4 -5.05 Q-8.3 -4.8 -8.3 -4.5 L-8.3 -4.4 -8.4 -4.15 -8.45 -4.15 Q-8.55 -4.1 -8.7 -4.05 L-8.7 -4.15 -8.65 -4.2 -8.55 -4.5 -8.55 -4.55 -8.5 -4.55 Q-8.4 -4.85 -8.4 -4.95 -8.4 -5.1 -8.7 -5.2 L-9.4 -5.1 -9.4 -4.7 -9.45 -4.7 Q-9.85 -4.7 -10.05 -4.9 L-9.95 -5.05 -9.8 -5.2 -9.6 -5.2 Q-9.55 -5.25 -9.5 -5.2 L-9.4 -5.2 -8.9 -5.25 -8.8 -5.25 M-9.3 -4.65 L-9.3 -5.1 Q-8.9 -5.1 -8.7 -5.0 -8.55 -4.95 -8.55 -4.85 -8.55 -4.6 -8.6 -4.45 -9.0 -4.45 -9.3 -4.65 M-8.75 -6.75 L-8.75 -6.75 M-9.45 -6.75 L-9.45 -6.75" fill="#ecac66" fill-rule="evenodd" stroke="none"/>
  </g>
</svg>
