<?xml version="1.0" encoding="UTF-8" standalone="no"?>
<svg xmlns:ffdec="https://www.free-decompiler.com/flash" xmlns:xlink="http://www.w3.org/1999/xlink" ffdec:objectType="shape" height="17.65px" width="12.1px" xmlns="http://www.w3.org/2000/svg">
  <g transform="matrix(1.0, 0.0, 0.0, 1.0, 1.55, 13.45)">
    <path d="M10.05 -2.2 L10.1 -2.2 10.1 -2.35 10.15 -3.4 Q10.2 -3.8 10.15 -4.15 L10.0 -5.35 Q10.0 -5.7 9.75 -6.45 9.6 -6.9 9.45 -7.05 L9.4 -7.1 9.3 -7.3 Q9.1 -7.75 8.8 -8.1 8.45 -8.45 7.75 -8.9 L7.7 -8.95 7.6 -9.0 Q6.95 -9.5 5.8 -9.65 L4.95 -9.65 3.85 -9.5 Q3.2 -9.35 2.6 -9.1 L2.3 -8.95 1.8 -8.65 1.5 -8.45 1.25 -8.25 0.8 -7.85 0.55 -7.55 Q-0.05 -6.85 -0.3 -6.15 -0.85 -5.15 -1.0 -3.9 L-1.05 -3.8 -1.05 -3.7 -1.1 -3.5 -1.1 -3.4 -1.15 -3.05 -1.15 -2.5 Q-1.25 -1.8 -1.15 -1.1 L-1.15 -0.95 -1.1 -0.8 Q-1.0 0.05 -0.65 0.9 L-0.45 1.3 Q0.7 3.55 3.6 3.75 6.85 3.95 8.75 1.1 9.1 0.55 9.4 0.0 9.75 -0.7 9.95 -1.45 L9.95 -1.55 10.05 -2.2 M0.35 0.7 L0.25 0.5 0.1 -0.05 -0.1 -0.75 -0.15 -1.5 -0.15 -3.2 0.0 -3.75 0.05 -4.05 0.2 -4.7 0.45 -5.45 Q0.65 -6.0 1.1 -6.6 L1.55 -7.2 1.65 -7.3 Q2.15 -7.8 2.8 -8.15 3.65 -8.6 4.7 -8.75 L5.4 -8.8 5.45 -8.85 5.5 -8.85 6.05 -8.8 Q7.0 -8.7 7.7 -8.25 8.35 -7.85 8.9 -7.1 L9.15 -6.6 9.5 -5.85 9.6 -5.65 Q10.1 -4.15 9.9 -2.4 L9.8 -1.85 9.65 -1.35 Q9.45 -0.7 9.1 0.0 L8.6 0.75 Q8.1 1.45 7.6 1.9 6.15 3.15 4.15 3.0 L3.95 3.0 Q2.95 2.9 2.1 2.4 L2.0 2.35 Q1.6 2.1 1.25 1.75 L0.8 1.3 0.7 1.15 0.55 1.0 0.35 0.75 0.35 0.7 M7.25 -7.9 L7.2 -7.9 7.15 -7.95 7.05 -8.0 6.15 -8.3 6.05 -8.35 6.0 -8.35 6.0 -8.4 5.9 -8.4 5.9 -8.35 6.2 -7.65 6.25 -7.5 6.3 -7.4 6.3 -7.25 6.35 -7.15 6.4 -7.1 6.4 -6.9 6.45 -6.9 6.85 -4.6 6.85 -4.4 6.85 -3.55 6.85 -3.4 6.5 -1.05 6.45 -0.95 6.6 -1.15 6.8 -1.55 6.85 -1.75 Q7.35 -2.8 7.5 -4.15 L7.5 -4.25 Q7.7 -5.85 7.45 -7.3 L7.4 -7.4 7.3 -7.8 7.3 -7.85 7.35 -7.85 7.25 -7.9 M5.9 -8.1 L5.8 -8.35 5.8 -8.4 5.75 -8.4 5.65 -8.4 5.55 -8.4 5.55 -8.45 5.35 -8.45 4.85 -8.4 4.05 -8.25 4.0 -8.25 4.1 -8.1 4.35 -7.8 4.4 -7.7 4.4 -7.65 4.9 -6.95 4.9 -6.9 5.0 -6.8 5.0 -6.7 5.85 -4.85 5.9 -4.7 5.95 -4.5 6.0 -4.4 6.0 -4.35 6.2 -3.5 6.2 -3.4 6.3 -3.05 6.3 -2.95 6.4 -1.55 6.4 -1.1 6.6 -1.95 6.75 -2.9 6.75 -3.05 6.8 -3.95 6.75 -4.6 6.7 -5.05 Q6.6 -6.2 6.2 -7.35 L6.2 -7.4 6.15 -7.5 5.95 -8.05 5.9 -8.1 M8.3 -7.1 L8.25 -7.15 7.8 -7.55 7.6 -7.65 7.55 -7.7 7.45 -7.8 7.4 -7.8 7.55 -7.15 Q7.65 -6.6 7.7 -6.05 7.7 -5.2 7.6 -4.3 L7.6 -4.15 Q7.5 -3.45 7.35 -2.8 L7.3 -2.75 6.55 -0.95 6.5 -0.9 6.8 -1.1 7.8 -2.05 8.1 -2.35 8.1 -2.4 8.15 -2.4 8.75 -3.2 8.8 -3.25 9.0 -3.55 9.25 -4.1 9.35 -4.3 9.45 -4.45 9.45 -4.5 9.5 -4.5 9.45 -4.65 9.4 -4.95 9.15 -5.7 8.75 -6.5 Q8.7 -6.7 8.45 -6.95 L8.3 -7.05 8.3 -7.1 M0.9 -10.7 Q1.1 -11.8 2.7 -12.8 L3.55 -13.3 Q3.65 -13.65 4.15 -13.05 L4.7 -12.25 4.8 -12.15 5.2 -11.5 5.35 -11.1 5.65 -10.25 5.7 -10.0 Q6.9 -9.9 7.8 -9.35 8.9 -8.7 9.6 -7.35 L9.75 -7.05 Q10.8 -4.9 10.5 -2.3 L10.35 -1.55 Q10.2 -0.75 9.8 0.05 9.45 0.75 8.95 1.5 6.9 4.4 3.55 4.2 1.15 4.05 -0.55 2.0 L-0.7 1.8 -0.95 1.45 -0.95 1.4 -1.1 1.2 -1.3 0.55 -1.5 -0.35 Q-1.55 -1.0 -1.55 -1.75 L-1.55 -3.25 -1.3 -4.25 Q-1.0 -5.55 -0.85 -5.95 -0.45 -6.95 0.45 -8.05 L0.6 -8.2 Q0.9 -8.45 1.2 -8.7 L1.15 -9.0 0.9 -10.4 0.9 -10.7 M3.6 -13.05 L3.1 -13.05 3.1 -13.0 2.85 -12.85 2.8 -12.8 2.05 -12.3 1.9 -12.15 Q1.45 -11.7 1.2 -11.3 L1.0 -10.45 1.15 -9.4 1.25 -10.05 Q1.3 -9.8 1.35 -9.65 L1.3 -9.35 1.45 -8.85 1.85 -9.15 2.15 -9.3 Q2.45 -9.45 2.75 -9.55 3.25 -9.75 3.8 -9.85 L4.25 -9.95 5.2 -10.0 5.2 -10.1 5.05 -10.5 5.0 -10.8 4.8 -11.35 4.75 -11.5 Q4.5 -11.9 4.15 -12.4 L3.75 -12.9 3.6 -13.05 M3.2 -7.9 L3.15 -7.85 3.1 -7.85 3.0 -7.8 2.7 -7.6 2.65 -7.55 2.55 -7.5 Q2.0 -7.05 1.55 -6.45 L1.4 -6.2 1.15 -5.85 1.15 -5.8 1.1 -5.75 0.95 -5.45 0.95 -5.35 1.2 -5.25 1.65 -5.1 1.7 -5.05 1.75 -5.05 2.35 -4.8 2.7 -4.6 3.15 -4.35 Q3.5 -4.15 3.85 -3.85 L4.0 -3.75 4.1 -3.65 4.2 -3.6 4.7 -3.1 4.75 -3.1 4.75 -3.05 5.2 -2.6 5.2 -2.55 5.25 -2.5 5.3 -2.5 5.35 -2.4 5.35 -2.35 5.45 -2.25 5.65 -2.0 6.15 -1.15 6.2 -1.1 6.2 -1.05 6.3 -0.95 6.3 -1.65 6.25 -2.7 6.2 -2.85 6.2 -2.95 6.15 -3.2 6.15 -3.25 Q5.95 -4.6 5.35 -5.85 L5.2 -6.2 4.9 -6.8 4.85 -6.8 4.85 -6.85 4.35 -7.65 4.3 -7.7 4.25 -7.75 4.2 -7.9 4.0 -8.1 3.95 -8.2 3.8 -8.15 Q3.5 -8.05 3.2 -7.9 M6.3 -0.95 L6.3 -0.95 M6.2 -0.9 L6.15 -1.0 5.9 -1.4 5.55 -1.9 5.55 -1.95 5.25 -2.35 5.2 -2.4 4.75 -2.95 4.35 -3.35 3.35 -4.1 3.1 -4.3 2.85 -4.4 2.65 -4.55 2.3 -4.7 2.2 -4.75 1.95 -4.9 1.35 -5.15 1.25 -5.2 1.15 -5.2 1.05 -5.25 1.0 -5.25 0.95 -5.3 0.9 -5.0 Q0.75 -3.85 1.0 -2.8 L1.05 -2.55 1.2 -2.1 Q1.25 -1.9 1.35 -1.65 L1.4 -1.55 Q1.6 -1.0 1.95 -0.55 L1.95 -0.5 2.2 -0.15 Q2.55 0.3 3.0 0.7 L3.0 0.75 3.0 0.8 2.95 0.75 2.75 0.75 Q2.1 0.7 1.55 0.35 L1.45 0.3 Q1.2 0.15 1.0 -0.05 0.75 -0.25 0.5 -0.55 L0.45 -0.6 0.25 -0.85 0.35 -0.55 Q0.45 -0.15 0.6 0.25 L0.9 0.85 1.0 0.95 Q1.35 1.15 1.6 1.25 L1.65 1.3 1.75 1.3 2.25 1.45 3.05 1.6 3.75 1.65 3.75 1.7 3.95 1.7 3.9 1.75 3.7 1.9 3.35 2.1 3.15 2.15 2.7 2.2 2.55 2.25 2.5 2.25 2.65 2.3 3.9 2.6 4.2 2.65 4.65 2.65 4.8 2.6 5.05 2.2 5.55 1.2 Q5.85 0.55 6.1 -0.1 L6.2 -0.35 6.2 -0.4 6.3 -0.65 6.3 -0.7 6.2 -0.85 6.2 -0.9 M0.8 -5.15 L0.75 -4.95 0.25 -3.25 0.25 -3.05 0.2 -2.95 0.2 -2.7 0.15 -2.5 0.2 -2.25 0.15 -2.25 0.15 -2.0 Q0.15 -1.5 0.25 -1.05 L0.25 -1.0 0.3 -1.0 Q0.5 -0.7 0.75 -0.45 L1.2 0.05 1.4 0.15 Q1.9 0.5 2.7 0.7 L2.75 0.7 2.9 0.7 2.7 0.5 Q2.35 0.2 2.05 -0.15 L1.9 -0.4 1.85 -0.45 1.8 -0.55 1.55 -1.0 1.4 -1.35 1.25 -1.65 1.2 -1.8 1.1 -2.0 1.05 -2.2 0.95 -2.5 Q0.85 -2.75 0.8 -2.9 0.75 -3.25 0.75 -3.9 L0.75 -4.15 0.7 -4.35 Q0.7 -4.6 0.8 -5.05 L0.8 -5.15 M9.35 -4.1 L9.3 -3.95 9.1 -3.6 8.85 -3.2 8.8 -3.1 Q8.55 -2.8 8.3 -2.45 L7.95 -2.05 7.7 -1.85 Q7.3 -1.4 6.8 -1.0 L6.75 -1.0 6.45 -0.7 6.4 -0.6 6.35 -0.6 6.3 -0.35 6.2 -0.05 5.7 1.1 5.4 1.7 5.2 2.1 4.9 2.65 Q5.95 2.55 6.8 2.05 6.7 2.0 6.65 1.9 L6.65 1.8 Q6.6 1.7 6.6 1.55 L6.65 1.5 6.7 1.5 6.75 1.55 6.9 1.55 7.05 1.6 7.3 1.55 7.5 1.55 7.65 1.4 7.95 1.05 7.9 1.15 7.9 1.05 8.15 0.7 8.6 0.05 8.65 0.0 8.5 0.1 8.3 0.25 Q7.95 0.5 7.8 0.5 L7.75 0.5 7.75 0.55 7.65 0.55 7.65 0.5 8.1 -0.2 8.4 -0.75 8.4 -0.8 8.6 -1.15 8.8 -1.6 8.9 -1.8 9.25 -2.95 9.25 -3.1 9.35 -3.35 9.4 -3.8 9.45 -4.0 9.45 -4.25 9.35 -4.1 M9.55 -2.3 L9.55 -2.55 9.6 -2.65 9.65 -3.0 Q9.65 -3.35 9.6 -3.5 L9.6 -3.95 9.55 -4.2 9.5 -3.8 Q9.4 -3.0 9.15 -2.2 L8.95 -1.75 8.95 -1.7 8.85 -1.4 8.8 -1.3 8.7 -1.05 8.45 -0.6 8.15 -0.05 8.1 0.0 8.05 0.1 8.05 0.15 7.85 0.45 8.3 0.15 Q8.55 -0.05 8.8 -0.35 L9.15 -0.9 9.15 -0.95 9.2 -0.95 9.3 -1.2 9.3 -1.25 9.4 -1.6 Q9.5 -1.95 9.55 -2.3 M1.3 1.35 Q1.65 1.8 2.2 2.1 L2.2 2.05 2.4 2.1 2.65 2.15 3.05 2.05 3.5 1.9 3.7 1.8 3.75 1.75 2.4 1.6 1.65 1.35 1.45 1.3 1.45 1.25 1.4 1.25 1.1 1.1 1.25 1.3 1.3 1.35 M7.4 1.6 L7.35 1.65 6.85 1.65 6.75 1.6 6.7 1.6 6.7 1.8 Q6.75 1.9 6.9 1.95 L6.9 2.0 7.25 1.7 7.3 1.7 7.4 1.6 M0.2 0.25 L0.2 0.25 M-1.15 0.9 L-1.15 0.9" fill="#111111" fill-rule="evenodd" stroke="none"/>
    <path d="M7.55 -7.7 L7.6 -7.65 7.8 -7.55 8.25 -7.15 8.3 -7.1 8.3 -7.05 8.45 -6.95 Q8.7 -6.7 8.75 -6.5 L9.15 -5.7 9.4 -4.95 9.35 -4.6 9.3 -4.6 9.3 -4.5 9.25 -4.35 9.1 -3.95 8.8 -3.5 8.8 -3.45 Q8.45 -2.95 7.9 -2.4 L7.15 -1.7 7.15 -1.8 7.25 -2.35 7.25 -2.4 7.3 -2.75 7.35 -2.8 Q7.5 -3.45 7.6 -4.15 L7.6 -4.3 Q7.7 -5.2 7.7 -6.05 L7.7 -5.85 7.75 -6.2 7.65 -6.95 7.55 -7.45 7.6 -7.45 7.55 -7.7 M1.15 -9.0 L1.05 -9.45 Q0.85 -10.2 0.85 -10.4 L0.9 -10.7 0.9 -10.4 1.15 -9.0 M2.7 -7.6 L3.0 -7.8 3.1 -7.85 3.15 -7.85 3.2 -7.9 3.5 -8.05 3.8 -8.15 3.85 -8.15 Q3.9 -8.1 3.95 -8.1 L4.15 -7.9 4.2 -7.9 4.25 -7.75 4.3 -7.7 4.1 -7.7 3.75 -7.6 Q3.25 -7.45 2.9 -7.2 2.75 -7.1 2.7 -7.0 2.45 -6.75 2.4 -6.55 2.35 -6.4 2.35 -6.25 2.35 -6.05 2.45 -5.85 2.65 -5.5 3.1 -5.45 L3.2 -5.45 Q3.6 -5.45 4.1 -5.85 L4.15 -5.95 4.2 -6.0 4.3 -6.15 4.35 -6.15 4.75 -6.6 4.9 -6.8 5.2 -6.2 5.35 -5.85 Q5.95 -4.6 6.15 -3.25 L6.15 -3.2 6.2 -2.95 6.2 -2.85 6.25 -2.7 6.3 -1.65 Q5.9 -1.7 5.65 -2.0 L5.65 -2.05 5.5 -2.3 5.45 -2.35 5.4 -2.45 5.25 -2.65 4.85 -3.05 4.8 -3.15 4.7 -3.2 4.15 -3.7 4.05 -3.8 3.8 -4.0 2.5 -4.9 2.3 -5.0 1.7 -5.25 Q1.3 -5.45 1.15 -5.65 L1.1 -5.75 1.15 -5.8 1.15 -5.85 1.4 -6.2 1.55 -6.45 Q2.0 -7.05 2.55 -7.5 L2.65 -7.55 2.7 -7.6 M0.75 -4.95 L0.8 -5.15 0.8 -5.05 Q0.7 -4.6 0.7 -4.35 L0.75 -4.15 0.75 -3.9 Q0.75 -3.25 0.8 -2.9 0.85 -2.75 0.95 -2.5 L1.05 -2.2 1.1 -2.0 1.2 -1.8 1.25 -1.65 1.4 -1.35 1.55 -1.0 1.8 -0.55 1.85 -0.45 1.9 -0.4 2.05 -0.15 Q2.35 0.2 2.7 0.5 L2.9 0.7 2.75 0.7 Q2.5 0.6 2.15 0.2 L1.85 -0.2 1.6 -0.55 1.6 -0.6 1.4 -1.1 1.1 -1.25 Q0.95 -1.35 0.85 -1.45 0.45 -1.75 0.15 -2.2 L0.15 -2.25 0.2 -2.25 0.15 -2.5 0.2 -2.7 0.2 -2.95 0.25 -2.95 0.25 -3.05 0.25 -3.25 0.75 -4.95 M8.05 0.15 L8.05 0.1 8.1 0.0 8.15 -0.05 8.45 -0.6 8.7 -1.05 8.8 -1.3 8.85 -1.4 8.95 -1.7 8.95 -1.75 9.15 -2.2 Q9.4 -3.0 9.5 -3.8 L9.55 -4.2 9.6 -3.95 9.6 -3.5 Q9.65 -3.35 9.65 -3.0 L9.6 -2.65 9.55 -2.55 9.55 -2.3 9.45 -2.15 9.2 -1.8 8.95 -1.5 8.95 -1.45 8.85 -1.2 8.8 -1.1 8.75 -1.05 Q8.3 0.05 8.0 0.2 L8.05 0.15 M1.3 1.35 L1.25 1.3 1.1 1.1 1.4 1.25 1.45 1.25 1.45 1.3 1.65 1.35 2.4 1.6 3.75 1.75 3.7 1.8 3.1 1.8 2.3 1.7 Q1.95 1.6 1.55 1.45 L1.3 1.35" fill="#7a3010" fill-rule="evenodd" stroke="none"/>
    <path d="M5.65 -8.4 L5.75 -8.4 5.7 -8.4 5.65 -8.4 M1.15 -5.8 L1.15 -5.85 1.15 -5.8 M1.0 0.95 L0.9 0.85 1.0 0.95 M0.35 -0.55 L0.25 -0.85 0.35 -0.55 M0.2 0.25 L0.2 0.25" fill="#6d7b85" fill-rule="evenodd" stroke="none"/>
    <path d="M4.05 -8.25 L4.85 -8.4 4.35 -8.3 4.05 -8.25 M3.2 -7.9 Q3.5 -8.05 3.8 -8.15 L3.95 -8.2 3.9 -8.2 3.85 -8.15 3.8 -8.15 3.5 -8.05 3.2 -7.9 M0.75 -4.95 L0.8 -5.15 0.75 -4.95 M0.15 -2.0 L0.15 -2.25 0.15 -2.2 0.15 -2.0" fill="#99a6ac" fill-rule="evenodd" stroke="none"/>
    <path d="M7.25 -7.9 L7.35 -7.85 7.3 -7.85 7.3 -7.8 7.4 -7.4 7.35 -7.5 7.4 -7.45 7.3 -7.65 7.25 -7.9 M8.3 -7.05 L8.3 -7.1 8.3 -7.05 M2.65 -7.55 L2.7 -7.6 2.65 -7.55 M1.35 -5.15 L1.3 -5.15 1.15 -5.2 1.25 -5.2 1.35 -5.15 M1.05 -5.25 L1.0 -5.25 1.05 -5.25 M0.2 -2.95 L0.25 -3.05 0.25 -2.95 0.2 -2.95 M6.45 -0.7 L6.45 -0.7 M9.45 -4.25 L9.35 -4.1 9.45 -4.25" fill="#0070e0" fill-rule="evenodd" stroke="none"/>
    <path d="M6.6 -1.15 L6.45 -0.95 6.5 -1.05 6.6 -1.15 M6.85 -3.55 L6.85 -4.4 6.9 -4.1 6.9 -3.95 6.85 -3.55 M5.9 -8.35 L5.9 -8.4 5.9 -8.35 M6.3 -0.95 L6.3 -0.95 M0.2 -1.85 L0.2 -1.85" fill="#80c0f0" fill-rule="evenodd" stroke="none"/>
    <path d="M5.75 -8.4 L5.8 -8.4 5.8 -8.35 5.9 -8.1 Q5.85 -8.15 5.8 -8.25 L5.75 -8.25 5.75 -8.4 5.7 -8.4 5.75 -8.4 M6.3 -0.35 L6.3 -0.35" fill="#600000" fill-rule="evenodd" stroke="none"/>
    <path d="M5.45 -0.2 L5.45 -0.2 M2.8 -3.1 L3.4 -2.75 2.7 -3.15 2.8 -3.1 M8.4 -1.5 L8.4 -1.45 Q8.2 -1.35 7.95 -1.2 L8.4 -1.5" fill="#bd0f06" fill-rule="evenodd" stroke="none"/>
    <path d="M-1.15 -3.05 L-1.1 -3.4 -1.1 -3.5 -1.05 -3.7 -1.05 -3.8 -1.0 -3.9 Q-0.85 -5.15 -0.3 -6.15 -0.05 -6.85 0.55 -7.55 L0.8 -7.85 1.25 -8.25 1.5 -8.45 1.8 -8.65 2.3 -8.95 2.6 -9.1 Q3.2 -9.35 3.85 -9.5 L4.95 -9.65 5.8 -9.65 Q6.95 -9.5 7.6 -9.0 L7.7 -8.95 7.75 -8.9 Q8.45 -8.45 8.8 -8.1 9.1 -7.75 9.3 -7.3 L9.4 -7.1 9.45 -7.05 Q9.6 -6.9 9.75 -6.45 10.0 -5.7 10.0 -5.35 L10.15 -4.15 Q10.2 -3.8 10.15 -3.4 L10.1 -2.35 10.1 -2.2 10.05 -2.2 10.0 -2.1 9.8 -1.9 9.8 -1.85 9.9 -2.4 Q10.1 -4.15 9.6 -5.65 L9.5 -5.85 9.15 -6.6 8.9 -7.1 Q8.35 -7.85 7.7 -8.25 7.0 -8.7 6.05 -8.8 L5.5 -8.85 5.45 -8.85 5.4 -8.8 4.7 -8.75 Q3.65 -8.6 2.8 -8.15 2.15 -7.8 1.65 -7.3 L1.55 -7.2 1.1 -6.6 Q0.65 -6.0 0.45 -5.45 L0.2 -4.7 0.05 -4.05 0.0 -3.75 -0.15 -3.2 -0.15 -1.5 -0.1 -0.75 0.1 -0.05 0.25 0.5 0.35 0.7 0.25 0.5 Q0.15 0.35 0.1 0.15 L-0.15 -0.75 -0.2 -0.9 Q-0.4 -1.8 -0.35 -2.35 L-0.3 -2.5 -0.35 -2.5 Q-0.45 -2.55 -0.9 -2.8 L-0.95 -2.8 -1.15 -3.05 M2.55 -9.0 L2.35 -8.9 1.8 -8.55 1.5 -8.35 1.25 -8.15 0.5 -7.4 Q-0.2 -6.5 -0.3 -5.65 L-0.3 -5.4 -0.15 -5.8 Q0.1 -6.35 0.45 -6.85 0.8 -7.35 1.3 -7.8 L1.55 -8.0 1.75 -8.15 Q2.6 -8.85 3.85 -9.4 3.15 -9.3 2.55 -9.0" fill="#c6c9ba" fill-rule="evenodd" stroke="none"/>
    <path d="M-1.15 -3.05 L-0.95 -2.8 -0.9 -2.8 Q-0.45 -2.55 -0.35 -2.5 L-0.3 -2.5 -0.35 -2.35 Q-0.4 -1.8 -0.2 -0.9 L-0.15 -0.75 0.1 0.15 Q0.15 0.35 0.25 0.5 L0.35 0.7 0.35 0.75 0.55 1.0 0.7 1.15 0.8 1.3 1.25 1.75 Q1.6 2.1 2.0 2.35 L2.1 2.4 Q2.95 2.9 3.95 3.0 L4.15 3.0 Q6.15 3.15 7.6 1.9 8.1 1.45 8.6 0.75 L9.1 0.0 Q9.45 -0.7 9.65 -1.35 L9.8 -1.85 9.8 -1.9 10.0 -2.1 10.05 -2.2 9.95 -1.55 9.95 -1.45 Q9.75 -0.7 9.4 0.0 9.1 0.55 8.75 1.1 6.85 3.95 3.6 3.75 0.7 3.55 -0.45 1.3 L-0.65 0.9 Q-1.0 0.05 -1.1 -0.8 L-1.15 -0.95 -1.15 -1.1 Q-1.25 -1.8 -1.15 -2.5 L-1.15 -3.05" fill="#8f9188" fill-rule="evenodd" stroke="none"/>
    <path d="M2.55 -9.0 Q3.15 -9.3 3.85 -9.4 2.6 -8.85 1.75 -8.15 L1.55 -8.0 1.3 -7.8 Q0.8 -7.35 0.45 -6.85 0.1 -6.35 -0.15 -5.8 L-0.3 -5.4 -0.3 -5.65 Q-0.2 -6.5 0.5 -7.4 L1.25 -8.15 1.5 -8.35 1.8 -8.55 2.35 -8.9 2.55 -9.0" fill="#eff0ec" fill-rule="evenodd" stroke="none"/>
    <path d="M6.0 -8.35 L6.05 -8.35 6.15 -8.3 7.05 -8.0 7.15 -7.95 7.2 -7.9 7.25 -7.9 7.3 -7.65 7.4 -7.45 7.35 -7.5 7.4 -7.4 7.45 -7.3 Q7.7 -5.85 7.5 -4.25 L7.5 -4.15 Q7.35 -2.8 6.85 -1.75 L6.75 -1.75 6.75 -2.15 Q6.75 -2.45 6.8 -2.6 L7.0 -3.95 7.0 -4.1 6.95 -4.8 Q6.9 -5.5 6.65 -6.4 L6.4 -7.4 6.45 -7.45 Q6.55 -7.55 6.55 -7.65 6.6 -7.95 6.2 -8.05 L6.15 -8.05 6.05 -8.25 6.05 -8.3 6.1 -8.35 6.0 -8.35 M5.9 -8.1 L5.95 -8.05 5.85 -8.05 5.8 -8.05 Q5.55 -8.0 5.45 -7.9 L5.4 -7.85 Q5.3 -7.8 5.3 -7.7 5.3 -7.6 5.35 -7.55 5.45 -7.4 5.8 -7.35 L6.05 -7.35 6.15 -7.4 6.15 -7.35 6.2 -7.4 6.2 -7.35 Q6.6 -6.2 6.7 -5.05 L6.75 -4.6 6.8 -3.95 6.75 -3.05 6.75 -2.9 6.6 -1.95 6.55 -2.1 Q6.45 -2.3 6.4 -2.55 L6.4 -2.9 6.35 -3.0 6.35 -3.2 6.3 -3.4 5.85 -5.05 Q5.45 -6.05 5.1 -6.75 L4.95 -6.95 5.0 -7.1 5.0 -7.35 Q4.9 -7.55 4.65 -7.65 L4.5 -7.7 4.4 -7.8 4.3 -7.95 Q4.2 -8.0 4.1 -8.1 L4.1 -8.15 4.05 -8.25 4.0 -8.2 4.0 -8.25 4.05 -8.25 4.35 -8.3 4.85 -8.4 5.35 -8.45 5.55 -8.45 5.55 -8.4 5.65 -8.4 5.7 -8.4 5.75 -8.4 5.75 -8.25 5.8 -8.25 Q5.85 -8.15 5.9 -8.1 M1.35 -5.15 L1.95 -4.9 2.2 -4.75 2.3 -4.7 2.65 -4.55 2.85 -4.4 3.1 -4.3 3.35 -4.1 4.35 -3.35 4.75 -2.95 5.2 -2.4 5.25 -2.35 5.55 -1.95 5.55 -1.9 5.9 -1.4 6.15 -1.0 6.2 -0.9 6.2 -0.8 6.15 -0.55 5.9 -0.3 5.45 -0.2 5.0 -0.15 4.85 -0.15 4.45 -0.2 4.35 -0.25 4.0 -0.3 Q3.25 -0.5 2.65 -0.8 2.4 -0.9 2.2 -1.0 1.7 -1.3 1.4 -1.55 L1.35 -1.65 Q1.25 -1.9 1.2 -2.1 L1.05 -2.55 1.0 -2.8 Q0.75 -3.85 0.9 -5.0 L0.95 -5.3 1.0 -5.25 1.05 -5.25 1.15 -5.2 1.3 -5.15 1.35 -5.15 M5.45 -0.2 L5.45 -0.2 M2.8 -3.1 L2.7 -3.15 3.4 -2.75 2.8 -3.1 M6.45 -0.7 L6.75 -1.0 6.8 -1.0 Q7.3 -1.4 7.7 -1.85 L7.95 -2.05 8.3 -2.45 Q8.55 -2.8 8.8 -3.1 L8.85 -3.2 9.1 -3.6 9.3 -3.95 9.35 -4.1 9.45 -4.25 9.45 -4.0 9.4 -3.8 9.35 -3.35 9.25 -3.1 9.25 -2.95 8.9 -1.8 8.8 -1.6 8.35 -1.3 7.7 -0.85 Q7.3 -0.65 6.8 -0.5 L6.55 -0.45 Q6.3 -0.25 6.2 0.05 L6.0 0.65 5.8 1.05 5.4 1.7 5.7 1.1 6.2 -0.05 6.3 -0.35 6.35 -0.6 6.4 -0.6 6.45 -0.7 6.45 -0.7 M6.3 -0.35 L6.3 -0.35 M8.4 -1.5 L7.95 -1.2 Q8.2 -1.35 8.4 -1.45 L8.4 -1.5" fill="#e8c13c" fill-rule="evenodd" stroke="none"/>
    <path d="M6.85 -1.75 L6.8 -1.55 6.6 -1.15 6.5 -1.05 6.85 -3.4 6.85 -3.55 6.9 -3.95 6.9 -4.1 6.85 -4.4 6.85 -4.6 6.45 -6.9 6.4 -6.9 6.4 -7.1 6.35 -7.15 6.3 -7.25 6.3 -7.4 6.25 -7.5 6.2 -7.65 5.9 -8.35 5.9 -8.4 6.0 -8.4 6.0 -8.35 6.1 -8.35 6.05 -8.3 6.05 -8.25 6.15 -8.05 6.1 -8.05 6.2 -8.0 6.3 -7.7 6.35 -7.45 6.35 -7.4 6.4 -7.45 6.4 -7.4 6.65 -6.4 Q6.9 -5.5 6.95 -4.8 L7.0 -4.1 7.0 -3.95 6.8 -2.6 Q6.75 -2.45 6.75 -2.15 L6.75 -1.75 6.85 -1.75 M6.6 -1.95 L6.4 -1.1 6.4 -1.55 6.3 -2.95 6.3 -3.05 6.2 -3.4 6.2 -3.5 6.0 -4.35 6.0 -4.4 5.95 -4.5 5.9 -4.7 5.85 -4.85 5.0 -6.7 5.0 -6.8 4.9 -6.9 4.9 -6.95 4.4 -7.65 4.4 -7.7 4.35 -7.8 4.1 -8.1 4.0 -8.25 4.0 -8.2 4.05 -8.25 4.1 -8.15 4.1 -8.1 Q4.2 -8.0 4.3 -7.95 L4.4 -7.8 4.5 -7.7 4.45 -7.7 4.55 -7.6 4.75 -7.25 4.9 -7.0 4.95 -6.9 4.95 -6.95 5.1 -6.75 Q5.45 -6.05 5.85 -5.05 L6.3 -3.4 6.35 -3.2 6.35 -3.0 6.4 -2.9 6.4 -2.55 Q6.45 -2.3 6.55 -2.1 L6.6 -1.95 M1.4 -1.55 Q1.7 -1.3 2.2 -1.0 2.4 -0.9 2.65 -0.8 3.25 -0.5 4.0 -0.3 L4.35 -0.25 4.45 -0.2 4.85 -0.15 5.0 -0.15 5.45 -0.2 5.9 -0.3 6.15 -0.55 6.2 -0.8 6.2 -0.9 6.2 -0.85 6.3 -0.7 6.3 -0.65 6.2 -0.4 6.2 -0.35 6.1 -0.1 Q5.85 0.55 5.55 1.2 L5.05 2.2 4.8 2.6 4.65 2.65 4.2 2.65 3.9 2.6 2.65 2.3 2.5 2.25 2.55 2.25 2.7 2.2 3.15 2.15 3.35 2.1 3.7 1.9 3.9 1.75 3.95 1.7 3.75 1.7 3.75 1.65 3.05 1.6 2.25 1.45 1.75 1.3 1.65 1.3 1.6 1.25 Q1.35 1.15 1.0 0.95 L0.9 0.85 0.6 0.25 Q0.45 -0.15 0.35 -0.55 L0.25 -0.85 0.45 -0.6 0.5 -0.55 Q0.75 -0.25 1.0 -0.05 1.2 0.15 1.45 0.3 L1.55 0.35 Q2.1 0.7 2.75 0.75 L2.95 0.75 3.0 0.8 3.0 0.75 3.0 0.7 Q2.55 0.3 2.2 -0.15 L1.95 -0.5 1.95 -0.55 Q1.6 -1.0 1.4 -1.55 M5.4 1.7 L5.8 1.05 6.0 0.65 6.2 0.05 Q6.3 -0.25 6.55 -0.45 L6.8 -0.5 Q7.3 -0.65 7.7 -0.85 L8.35 -1.3 8.8 -1.6 8.6 -1.15 8.4 -0.8 8.4 -0.75 8.1 -0.2 7.65 0.5 7.65 0.55 7.75 0.55 7.75 0.5 7.8 0.5 Q7.95 0.5 8.3 0.25 L8.5 0.1 8.65 0.0 8.6 0.05 8.15 0.7 7.9 1.05 7.9 1.15 7.95 1.05 7.65 1.4 7.5 1.55 7.3 1.55 7.05 1.6 6.9 1.55 6.75 1.55 6.7 1.5 6.65 1.5 6.6 1.55 Q6.6 1.7 6.65 1.8 L6.65 1.9 Q6.7 2.0 6.8 2.05 5.95 2.55 4.9 2.65 L5.2 2.1 5.4 1.7" fill="#e2a64b" fill-rule="evenodd" stroke="none"/>
    <path d="M7.55 -7.7 L7.6 -7.45 7.55 -7.45 7.65 -6.95 7.75 -6.2 7.7 -5.85 7.7 -6.05 Q7.65 -6.6 7.55 -7.15 L7.4 -7.8 7.45 -7.8 7.55 -7.7 M7.3 -2.75 L7.25 -2.4 7.25 -2.35 7.15 -1.8 7.15 -1.7 7.9 -2.4 Q8.45 -2.95 8.8 -3.45 L8.8 -3.5 9.1 -3.95 9.25 -4.35 9.3 -4.5 9.3 -4.6 9.35 -4.6 9.4 -4.95 9.45 -4.65 9.5 -4.5 9.45 -4.5 9.45 -4.45 9.35 -4.3 9.25 -4.1 9.0 -3.55 8.8 -3.25 8.75 -3.2 8.15 -2.4 8.1 -2.4 8.1 -2.35 7.8 -2.05 6.8 -1.1 6.5 -0.9 6.55 -0.95 7.3 -2.75 M3.95 -8.2 L4.0 -8.1 4.2 -7.9 4.15 -7.9 3.95 -8.1 Q3.9 -8.1 3.85 -8.15 L3.8 -8.15 3.85 -8.15 3.9 -8.2 3.95 -8.2 M6.3 -1.65 L6.3 -0.95 6.2 -1.05 6.2 -1.1 6.15 -1.15 5.65 -2.0 5.45 -2.25 5.35 -2.35 5.35 -2.4 5.3 -2.5 5.25 -2.5 5.2 -2.55 5.2 -2.6 4.75 -3.05 4.75 -3.1 4.7 -3.1 4.2 -3.6 4.1 -3.65 4.0 -3.75 3.85 -3.85 Q3.5 -4.15 3.15 -4.35 L2.7 -4.6 2.35 -4.8 1.75 -5.05 1.7 -5.05 1.65 -5.1 1.2 -5.25 0.95 -5.35 0.95 -5.45 1.1 -5.75 1.15 -5.65 Q1.3 -5.45 1.7 -5.25 L2.3 -5.0 2.5 -4.9 3.8 -4.0 4.05 -3.8 4.15 -3.7 4.7 -3.2 4.8 -3.15 4.85 -3.05 5.25 -2.65 5.4 -2.45 5.45 -2.35 5.5 -2.3 5.65 -2.05 5.65 -2.0 Q5.9 -1.7 6.3 -1.65 M2.75 0.7 L2.7 0.7 Q1.9 0.5 1.4 0.15 L1.2 0.05 0.75 -0.45 Q0.5 -0.7 0.3 -1.0 L0.25 -1.0 0.25 -1.05 Q0.15 -1.5 0.15 -2.0 L0.15 -2.2 Q0.45 -1.75 0.85 -1.45 0.95 -1.35 1.1 -1.25 L1.4 -1.1 1.6 -0.6 1.6 -0.55 1.85 -0.2 2.15 0.2 Q2.5 0.6 2.75 0.7 M0.2 -1.85 L0.2 -1.85 M9.55 -2.3 Q9.5 -1.95 9.4 -1.6 L9.3 -1.25 9.3 -1.2 9.2 -0.95 9.15 -0.95 9.15 -0.9 8.8 -0.35 Q8.55 -0.05 8.3 0.15 L7.85 0.45 8.05 0.15 8.0 0.2 Q8.3 0.05 8.75 -1.05 L8.8 -1.1 8.85 -1.2 8.95 -1.45 8.95 -1.5 9.2 -1.8 9.45 -2.15 9.55 -2.3 M7.4 1.6 L7.3 1.7 7.25 1.7 6.9 2.0 6.9 1.95 Q6.75 1.9 6.7 1.8 L6.7 1.6 6.75 1.6 6.85 1.65 7.35 1.65 7.4 1.6 M3.7 1.8 L3.5 1.9 3.05 2.05 2.65 2.15 2.4 2.1 2.2 2.05 2.2 2.1 Q1.65 1.8 1.3 1.35 L1.55 1.45 Q1.95 1.6 2.3 1.7 L3.1 1.8 3.7 1.8" fill="#421a09" fill-rule="evenodd" stroke="none"/>
    <path d="M6.15 -8.05 L6.2 -8.05 Q6.6 -7.95 6.55 -7.65 6.55 -7.55 6.45 -7.45 L6.4 -7.4 6.4 -7.45 6.35 -7.4 6.35 -7.45 6.3 -7.7 6.2 -8.0 6.1 -8.05 6.15 -8.05 M5.95 -8.05 L6.15 -7.5 6.2 -7.4 6.15 -7.35 6.15 -7.4 6.05 -7.35 5.8 -7.35 Q5.45 -7.4 5.35 -7.55 5.3 -7.6 5.3 -7.7 5.3 -7.8 5.4 -7.85 L5.45 -7.9 Q5.55 -8.0 5.8 -8.05 L5.85 -8.05 5.95 -8.05 M4.3 -7.7 L4.35 -7.65 4.85 -6.85 4.85 -6.8 4.9 -6.8 4.75 -6.6 4.35 -6.15 4.3 -6.15 4.2 -6.0 4.15 -5.95 4.1 -5.85 Q3.6 -5.45 3.2 -5.45 L3.1 -5.45 Q2.65 -5.5 2.45 -5.85 2.35 -6.05 2.35 -6.25 2.35 -6.4 2.4 -6.55 2.45 -6.75 2.7 -7.0 2.75 -7.1 2.9 -7.2 3.25 -7.45 3.75 -7.6 L4.1 -7.7 4.3 -7.7 M4.95 -6.95 L4.95 -6.9 4.9 -7.0 4.75 -7.25 4.55 -7.6 4.45 -7.7 4.5 -7.7 4.65 -7.65 Q4.9 -7.55 5.0 -7.35 L5.0 -7.1 4.95 -6.95" fill="#fff9f9" fill-rule="evenodd" stroke="none"/>
    <path d="M3.8 -9.85 Q3.25 -9.75 2.75 -9.55 2.45 -9.45 2.15 -9.3 L1.85 -9.15 1.45 -8.85 1.3 -9.35 1.35 -9.65 Q1.3 -9.8 1.25 -10.05 L1.15 -9.4 1.0 -10.45 1.2 -11.3 Q1.45 -11.7 1.9 -12.15 L2.05 -12.3 2.8 -12.8 2.85 -12.85 3.1 -13.0 3.1 -13.05 3.6 -13.05 Q3.4 -13.0 3.4 -12.5 3.4 -12.0 3.6 -10.9 L3.8 -9.85" fill="#a69f4a" fill-rule="evenodd" stroke="none"/>
    <path d="M3.8 -9.85 L3.6 -10.9 Q3.4 -12.0 3.4 -12.5 3.4 -13.0 3.6 -13.05 L3.75 -12.9 4.15 -12.4 Q4.5 -11.9 4.75 -11.5 L4.8 -11.35 5.0 -10.8 5.05 -10.5 5.2 -10.1 5.2 -10.0 4.25 -9.95 3.8 -9.85" fill="#7c6d34" fill-rule="evenodd" stroke="none"/>
    <path d="M2.4 -2.75 Q2.4 -2.3 2.75 -1.5 3.25 -0.35 4.05 -0.35 L4.55 -0.4 4.8 -0.55 Q5.05 -0.65 5.05 -0.8 5.05 -1.1 4.05 -2.0 3.0 -3.0 2.45 -2.85 L2.4 -2.75 M2.3 -2.75 Q2.3 -3.05 2.75 -2.9 3.15 -2.8 3.7 -2.4 5.15 -1.45 5.15 -0.8 5.15 -0.65 5.0 -0.55 4.9 -0.4 4.55 -0.25 3.4 -0.2 2.75 -1.3 2.3 -2.1 2.3 -2.75 M3.35 -1.9 Q3.35 -1.45 3.45 -1.3 3.55 -0.95 3.95 -0.8 4.1 -0.8 4.1 -0.9 L4.15 -1.0 Q4.15 -1.25 3.9 -1.6 3.7 -2.0 3.45 -2.0 3.35 -2.05 3.35 -1.9 M3.85 -1.75 L4.2 -1.2 4.2 -0.75 Q4.15 -0.7 4.0 -0.7 3.6 -0.7 3.4 -1.15 3.3 -1.35 3.3 -1.6 3.3 -1.9 3.35 -2.15 3.6 -2.15 3.85 -1.75 M8.3 -1.9 L7.7 -1.3 Q7.15 -0.8 7.15 -0.45 L7.1 -0.45 Q7.1 -0.4 7.2 -0.4 7.9 -0.4 8.3 -1.1 8.5 -1.45 8.55 -1.8 L8.5 -1.95 8.5 -2.0 8.45 -2.0 8.35 -1.9 8.3 -1.9 M8.5 -2.2 L8.6 -2.0 8.65 -1.8 Q8.65 -1.55 8.35 -1.05 7.95 -0.3 7.45 -0.3 7.2 -0.3 7.1 -0.4 7.05 -0.45 7.05 -0.55 7.05 -0.75 7.65 -1.4 L7.95 -1.7 8.0 -1.7 8.45 -2.15 8.45 -2.2 8.45 -2.15 8.5 -2.2 M8.15 -1.35 L7.9 -1.15 7.75 -0.95 7.65 -0.9 Q8.0 -0.95 8.1 -1.05 L8.2 -1.25 8.15 -1.35 M8.15 -1.05 Q8.05 -0.9 7.95 -0.85 L7.6 -0.8 7.6 -0.9 Q7.6 -1.1 7.75 -1.25 7.85 -1.35 8.1 -1.5 L8.25 -1.3 Q8.25 -1.2 8.15 -1.05" fill="#111111" fill-rule="evenodd" stroke="none"/>
    <path d="M2.4 -2.75 L2.45 -2.85 Q3.0 -3.0 4.05 -2.0 5.05 -1.1 5.05 -0.8 5.05 -0.65 4.8 -0.55 L4.55 -0.4 4.05 -0.35 Q3.25 -0.35 2.75 -1.5 2.4 -2.3 2.4 -2.75 M8.3 -1.9 L8.35 -1.9 8.45 -2.0 8.5 -2.0 8.5 -1.95 8.55 -1.8 Q8.5 -1.45 8.3 -1.1 7.9 -0.4 7.2 -0.4 7.1 -0.4 7.1 -0.45 L7.15 -0.45 Q7.15 -0.8 7.7 -1.3 L8.3 -1.9 M3.85 -1.75 Q3.6 -2.15 3.35 -2.15 3.3 -1.9 3.3 -1.6 3.3 -1.35 3.4 -1.15 3.6 -0.7 4.0 -0.7 4.15 -0.7 4.2 -0.75 L4.2 -1.2 3.85 -1.75 M8.15 -1.05 Q8.25 -1.2 8.25 -1.3 L8.1 -1.5 Q7.85 -1.35 7.75 -1.25 7.6 -1.1 7.6 -0.9 L7.6 -0.8 7.95 -0.85 Q8.05 -0.9 8.15 -1.05" fill="#7a3010" fill-rule="evenodd" stroke="none"/>
    <path d="M8.45 -2.2 L8.4 -2.2 Q8.3 -2.2 8.3 -2.25 8.35 -2.35 8.65 -2.5 L8.8 -2.5 8.8 -2.45 8.65 -2.4 8.7 -2.3 Q8.7 -2.2 8.6 -2.2 L8.5 -2.2 8.45 -2.15 8.45 -2.2" fill="#e8c13c" fill-rule="evenodd" stroke="none"/>
    <path d="M1.3 -11.5 L1.15 -10.85 Q1.05 -10.5 1.05 -10.25 1.05 -10.1 1.2 -9.5 L1.3 -8.9 1.3 -8.6 1.2 -8.55 Q1.15 -8.65 1.0 -9.1 0.85 -9.55 0.85 -9.7 0.85 -10.35 0.9 -10.7 1.0 -11.3 1.3 -11.5" fill="#000000" fill-rule="evenodd" stroke="none"/>
  </g>
</svg>
