<?xml version="1.0" encoding="UTF-8" standalone="no"?>
<svg xmlns:ffdec="https://www.free-decompiler.com/flash" xmlns:xlink="http://www.w3.org/1999/xlink" ffdec:objectType="shape" height="24.7px" width="10.0px" xmlns="http://www.w3.org/2000/svg">
  <g transform="matrix(1.0, 0.0, 0.0, 1.0, -2.95, 19.6)">
    <path d="M11.8 -2.95 L11.85 -2.95 11.9 -2.9 Q11.9 -2.65 11.3 -2.75 L11.5 -2.5 11.55 -2.45 11.6 -1.3 Q11.55 -0.85 11.55 -0.45 L11.4 -0.3 11.15 0.0 11.1 0.05 11.1 0.3 Q11.1 0.5 11.3 1.7 L11.3 4.3 11.25 4.3 11.15 4.35 Q10.95 4.5 10.5 4.7 L10.45 4.7 Q10.1 4.9 9.95 4.9 L9.9 4.95 9.65 4.95 8.6 5.1 Q7.35 5.1 7.1 4.7 7.0 4.6 7.05 4.4 L7.05 4.15 7.1 4.1 7.1 3.4 Q7.15 3.25 7.2 3.2 L7.25 2.95 7.2 3.0 5.5 3.0 Q4.15 3.0 3.45 2.75 L3.4 2.75 3.35 2.7 3.3 2.7 Q3.05 2.6 3.0 2.5 L2.95 2.5 2.95 2.25 Q2.95 1.55 3.3 1.1 3.8 0.45 4.8 0.4 L4.95 0.25 Q4.95 0.2 5.0 0.05 L5.1 -0.15 Q4.85 -1.05 4.4 -1.2 L4.4 -2.75 Q3.9 -2.9 3.6 -3.05 3.3 -3.25 3.2 -3.45 L3.1 -3.65 3.1 -4.05 3.05 -4.5 Q3.05 -4.9 3.15 -5.95 L3.25 -7.15 Q3.35 -7.75 3.75 -8.75 L4.0 -9.2 3.9 -9.55 3.85 -10.0 Q3.85 -10.1 3.85 -10.2 L3.9 -10.35 Q3.65 -10.4 3.6 -10.7 L3.6 -11.05 Q3.6 -11.5 3.65 -11.8 3.7 -12.15 3.75 -12.35 L3.9 -13.35 3.9 -13.4 4.0 -13.75 4.1 -14.05 4.2 -14.4 4.25 -14.45 4.6 -15.05 4.65 -15.2 Q4.85 -15.4 4.85 -15.45 L5.0 -15.6 5.05 -15.75 5.1 -15.8 Q5.45 -16.15 5.45 -16.25 L5.25 -16.2 4.95 -16.25 5.0 -16.25 5.05 -16.35 5.2 -16.6 5.9 -17.45 5.9 -17.5 6.8 -17.95 6.85 -17.95 Q6.95 -17.95 7.15 -18.05 7.9 -18.2 8.5 -18.8 L9.05 -19.35 Q9.35 -19.6 9.5 -19.6 L9.55 -19.55 Q9.9 -19.2 10.3 -19.05 L10.35 -19.0 Q10.3 -18.75 10.3 -18.6 L10.3 -18.55 Q10.5 -18.5 10.75 -18.15 L10.8 -18.0 11.25 -17.75 Q11.6 -17.4 11.65 -17.15 L11.6 -17.15 11.35 -17.15 Q11.3 -17.15 11.25 -17.2 L11.2 -17.2 10.9 -17.25 10.8 -17.2 10.7 -17.35 10.65 -17.35 10.5 -17.55 10.3 -17.9 10.05 -18.25 9.85 -17.65 9.75 -17.4 Q9.65 -16.95 9.2 -16.4 L9.1 -16.35 Q8.8 -16.15 8.75 -15.9 L8.65 -15.8 Q8.2 -15.4 7.8 -15.05 L7.35 -14.8 7.3 -14.8 Q7.3 -14.75 7.2 -14.75 L7.2 -14.8 7.15 -14.8 7.15 -14.85 7.05 -15.05 Q6.85 -15.3 6.6 -15.65 L6.45 -15.85 6.3 -16.0 6.35 -16.0 6.15 -16.2 6.1 -16.15 Q5.95 -16.25 5.9 -16.15 L5.85 -15.9 5.8 -15.75 5.7 -15.65 5.55 -15.35 5.5 -15.35 5.5 -15.3 5.55 -15.55 5.65 -15.8 5.7 -15.95 5.9 -16.25 5.95 -16.3 5.9 -16.3 5.85 -16.35 5.85 -16.3 5.7 -16.3 5.7 -16.25 5.6 -16.1 5.15 -15.5 4.75 -14.95 4.75 -14.85 4.65 -14.65 4.6 -14.7 4.4 -14.2 4.4 -14.0 4.3 -13.95 Q4.25 -13.7 4.2 -13.45 4.15 -13.05 4.05 -12.05 L4.0 -12.05 3.95 -11.1 3.95 -10.9 4.1 -10.85 4.3 -10.85 4.6 -10.75 Q4.85 -10.65 5.1 -10.6 L5.25 -10.55 5.55 -10.5 5.85 -10.5 5.85 -10.45 6.3 -10.5 6.75 -10.5 6.85 -10.6 6.95 -10.6 7.25 -10.65 7.3 -10.65 7.35 -10.7 7.45 -10.7 7.6 -10.75 7.55 -10.75 7.25 -10.85 7.2 -10.9 7.15 -10.9 6.9 -11.0 Q6.7 -11.1 6.6 -11.2 6.85 -11.05 7.15 -11.05 L7.15 -11.0 Q7.4 -10.9 7.6 -10.85 L7.85 -10.85 8.0 -10.8 8.05 -10.8 8.15 -10.8 8.25 -10.8 8.3 -10.75 8.45 -10.75 8.45 -10.8 8.35 -11.0 8.35 -11.1 8.3 -11.25 8.25 -11.3 8.2 -11.65 8.15 -11.75 8.15 -11.85 8.0 -12.45 Q7.9 -12.7 7.85 -12.8 L7.8 -12.9 7.75 -13.1 7.75 -13.25 7.7 -13.6 7.8 -13.6 8.25 -12.0 8.4 -11.55 8.65 -10.8 8.9 -10.95 9.3 -10.95 Q9.25 -10.8 9.0 -10.75 L8.9 -10.75 9.1 -10.65 9.25 -10.65 9.25 -10.6 Q9.45 -10.65 9.45 -10.4 L9.45 -10.1 9.4 -10.0 9.4 -9.85 9.3 -9.85 9.3 -9.8 9.2 -9.75 8.7 -9.5 8.7 -9.45 Q8.25 -9.25 7.6 -9.1 L7.55 -9.1 7.4 -9.05 Q7.2 -9.0 7.15 -9.0 7.05 -9.0 7.0 -9.05 L6.95 -9.05 6.4 -9.05 6.25 -8.95 Q5.55 -8.7 5.25 -8.6 4.95 -8.45 4.75 -8.35 4.8 -8.5 5.3 -8.8 5.55 -8.9 5.75 -8.95 L5.55 -8.95 5.4 -9.05 5.35 -9.0 5.3 -9.0 5.3 -9.05 5.0 -9.1 4.8 -9.1 4.6 -9.15 4.5 -9.1 4.5 -9.15 4.35 -9.1 4.2 -9.15 4.15 -9.05 4.15 -9.0 4.1 -8.6 Q4.0 -8.4 4.0 -8.3 L3.95 -8.15 3.85 -7.8 Q3.6 -7.1 3.55 -6.75 L3.5 -6.6 Q3.45 -5.75 3.45 -4.0 L3.45 -3.7 3.5 -3.7 3.55 -3.6 3.65 -3.5 3.6 -3.5 3.75 -3.45 Q4.0 -3.3 4.5 -3.15 L4.5 -3.2 4.6 -3.15 4.65 -3.15 4.85 -3.1 5.35 -3.0 5.45 -3.0 6.25 -2.85 6.65 -2.85 Q6.85 -3.0 7.95 -3.0 L7.95 -3.05 9.25 -3.05 9.25 -3.0 9.3 -3.05 10.1 -3.1 11.3 -3.1 11.8 -2.95 M5.75 -16.95 L5.6 -16.8 5.4 -16.5 Q5.45 -16.6 5.6 -16.6 L5.75 -16.6 6.05 -17.0 6.1 -17.0 6.15 -17.1 6.25 -17.25 6.3 -17.25 6.3 -17.4 6.2 -17.4 6.15 -17.35 5.75 -17.0 5.75 -16.95 M5.6 -16.5 L5.6 -16.5 M8.7 -18.2 Q8.85 -18.2 9.05 -18.3 L9.3 -18.5 9.35 -18.6 Q9.4 -18.75 9.4 -19.15 L9.4 -19.4 9.35 -19.45 9.3 -19.35 8.8 -18.95 8.25 -18.45 Q8.15 -18.4 8.05 -18.35 L7.6 -18.05 7.55 -18.05 7.5 -18.0 7.45 -18.0 6.85 -17.8 Q6.5 -17.65 6.45 -17.65 L6.45 -17.6 6.5 -17.6 6.5 -17.55 6.55 -17.5 6.55 -17.45 6.6 -17.45 6.6 -17.4 Q6.95 -17.45 7.85 -17.8 L8.3 -18.0 8.35 -18.05 Q8.5 -18.05 8.65 -18.2 L8.7 -18.2 M10.0 -18.85 L10.0 -18.9 Q10.0 -19.0 9.8 -19.15 9.65 -19.25 9.6 -19.2 L9.6 -18.95 Q9.55 -18.8 9.5 -18.7 L9.4 -18.35 9.35 -18.35 9.3 -18.2 8.85 -17.9 8.0 -17.4 7.85 -17.3 7.8 -17.25 7.8 -17.3 7.1 -16.85 6.7 -16.6 6.5 -16.5 6.35 -16.4 6.25 -16.35 6.5 -16.1 6.8 -15.85 7.0 -15.6 Q7.15 -15.35 7.3 -14.95 L7.85 -15.4 8.6 -16.0 8.85 -16.25 9.15 -16.55 9.2 -16.65 9.45 -17.15 9.45 -17.25 9.6 -17.55 9.65 -17.55 9.75 -17.9 9.8 -18.15 9.9 -18.3 9.9 -18.35 Q9.95 -18.65 10.0 -18.85 M7.5 -17.3 L8.05 -17.6 Q8.65 -17.95 8.9 -18.2 L8.45 -18.05 7.95 -17.85 7.7 -17.7 Q7.65 -17.7 7.55 -17.65 7.0 -17.45 6.7 -17.35 L6.55 -17.35 6.55 -17.3 6.5 -17.25 Q6.45 -17.2 6.45 -17.05 L6.45 -16.85 6.35 -16.75 6.35 -16.8 Q6.3 -16.9 6.25 -16.95 L6.15 -16.8 5.95 -16.55 6.1 -16.45 6.15 -16.4 Q6.25 -16.4 6.3 -16.5 L6.35 -16.55 6.35 -16.6 6.7 -16.8 7.25 -17.1 7.3 -17.15 7.35 -17.15 7.45 -17.25 7.5 -17.3 M11.25 -17.5 L11.25 -17.5 M7.9 -10.35 L8.0 -10.1 8.0 -10.05 8.05 -9.95 8.05 -9.8 8.0 -9.65 7.9 -9.45 7.9 -9.4 7.7 -9.25 7.7 -9.2 7.75 -9.2 Q8.2 -9.35 8.6 -9.6 L9.25 -9.9 9.2 -10.3 9.2 -10.45 9.1 -10.55 9.0 -10.5 9.0 -10.55 7.85 -10.55 7.85 -10.5 7.75 -10.5 7.75 -10.45 7.8 -10.45 7.85 -10.4 7.9 -10.35 M7.15 -10.4 L7.1 -10.4 6.6 -10.35 5.95 -10.2 6.0 -10.0 5.95 -9.35 5.95 -9.25 6.15 -9.25 7.05 -9.25 7.1 -9.2 7.15 -9.2 7.3 -9.25 Q7.5 -9.3 7.65 -9.4 L7.7 -9.45 7.85 -9.65 7.9 -9.7 7.9 -9.75 7.95 -9.9 Q7.95 -10.15 7.85 -10.25 7.7 -10.55 7.2 -10.45 L7.15 -10.4 M6.8 -9.8 Q6.8 -9.9 6.95 -10.05 7.05 -9.9 7.05 -9.85 L7.05 -9.75 7.0 -9.65 6.8 -9.75 6.8 -9.8 M5.45 -9.15 L5.55 -9.05 5.8 -9.05 5.8 -9.1 5.85 -9.75 5.85 -10.35 5.45 -10.35 5.4 -10.3 5.45 -10.25 5.4 -10.3 5.4 -9.2 5.45 -9.2 5.45 -9.15 M5.45 -10.25 L5.75 -10.25 5.45 -10.25 M6.1 -9.8 Q6.1 -10.0 6.2 -10.05 L6.25 -10.0 6.3 -10.0 6.3 -9.95 6.35 -9.8 Q6.4 -9.8 6.3 -9.8 L6.3 -9.7 6.1 -9.7 6.1 -9.8 M6.0 -9.05 L6.0 -9.05 M4.4 -9.35 L4.45 -9.35 Q4.45 -9.5 4.55 -9.8 4.45 -9.8 4.45 -9.85 4.45 -9.95 4.45 -10.0 L4.45 -10.6 4.4 -10.6 Q4.3 -10.7 4.2 -10.65 4.1 -10.7 4.1 -10.55 L4.1 -10.5 4.15 -10.5 4.15 -9.45 4.25 -9.35 4.3 -9.25 4.4 -9.25 4.4 -9.35 M5.25 -9.35 L5.2 -9.8 Q5.2 -10.1 5.25 -10.3 5.15 -10.3 4.95 -10.4 L4.75 -10.5 4.55 -10.55 4.5 -10.55 4.55 -10.2 4.55 -10.3 4.6 -10.5 4.7 -10.5 4.7 -10.4 4.65 -10.1 4.6 -10.05 4.8 -10.05 4.8 -9.75 4.75 -9.7 Q4.7 -9.75 4.6 -9.8 L4.6 -9.4 4.65 -9.4 4.65 -9.35 4.7 -9.35 Q4.8 -9.3 5.0 -9.25 L5.05 -9.25 5.15 -9.2 5.3 -9.2 5.3 -9.25 5.35 -9.3 5.25 -9.35 M4.6 -9.95 L4.7 -9.9 4.65 -10.0 4.55 -10.0 4.6 -9.95 M4.5 -9.35 L4.5 -9.3 4.55 -9.3 4.5 -9.35 M4.3 -10.55 L4.3 -10.55 M4.95 -2.8 L4.8 -2.85 4.75 -2.85 Q4.7 -2.8 4.65 -2.7 L4.65 -2.65 4.6 -2.6 4.65 -2.25 4.65 -2.1 4.65 -2.05 Q4.6 -1.9 4.65 -1.7 4.7 -1.35 4.95 -1.35 5.0 -1.3 5.05 -1.3 L5.05 -1.25 5.1 -1.25 5.25 -1.2 5.35 -1.1 Q5.55 -0.95 5.85 -0.95 L5.9 -0.95 6.45 -0.95 6.6 -1.0 6.75 -1.0 Q6.65 -1.15 6.65 -1.35 L6.65 -1.6 Q6.65 -1.7 6.65 -1.85 L6.55 -2.4 6.55 -2.6 6.25 -2.6 5.8 -2.65 5.4 -2.7 5.05 -2.8 4.95 -2.8 M5.1 -0.95 Q5.05 -0.85 5.05 -0.7 5.05 -0.6 5.2 -0.45 L5.2 -0.4 Q5.3 -0.3 5.3 -0.2 L5.25 0.1 Q5.15 0.3 5.0 0.45 4.8 0.6 4.35 0.8 3.9 0.95 3.6 1.3 L3.55 1.35 Q3.4 1.55 3.35 1.8 3.3 2.0 3.3 2.25 L3.25 2.3 3.25 2.45 Q3.35 2.45 3.4 2.45 L3.45 2.5 3.65 2.55 3.7 2.55 4.15 2.6 4.35 2.65 4.5 2.65 4.6 2.75 4.7 2.7 4.8 2.7 4.95 2.65 5.75 2.65 5.85 2.6 6.1 2.6 6.5 2.55 6.8 2.55 6.8 2.5 Q6.9 2.5 6.95 2.45 L7.0 2.35 Q6.95 2.3 6.95 2.2 L7.0 2.15 7.15 -0.05 7.1 -0.45 7.05 -0.55 7.05 -0.65 6.8 -0.95 6.7 -0.9 6.1 -0.9 6.0 -0.85 5.9 -0.9 5.85 -0.9 5.75 -0.95 5.7 -0.95 Q5.5 -0.95 5.4 -1.05 L5.25 -1.05 5.25 -1.0 Q5.15 -1.0 5.1 -0.95 M8.45 -2.65 L7.95 -2.65 7.3 -2.6 6.95 -2.55 6.85 -2.55 6.85 -2.4 6.95 -1.75 Q7.0 -1.35 7.35 -0.95 L7.55 -0.7 7.8 -0.4 7.9 -0.25 Q8.15 -0.1 8.45 -0.15 L8.85 -0.15 8.85 -0.1 8.9 -0.1 8.95 0.0 8.0 0.0 8.05 0.2 8.15 0.5 8.2 0.6 8.2 0.7 8.25 0.9 8.25 1.05 8.3 1.1 Q8.5 0.9 9.2 1.1 9.5 1.2 9.75 1.3 10.1 1.4 10.35 1.55 L10.4 1.6 10.4 1.75 10.35 1.7 10.3 1.7 Q10.2 1.6 10.05 1.55 L9.95 1.45 9.9 1.45 9.8 1.4 Q9.45 1.15 9.15 1.15 8.9 1.15 8.7 1.25 8.55 1.25 8.4 1.35 8.35 1.55 8.25 1.85 L7.9 2.4 Q7.6 2.95 7.5 3.5 7.4 3.9 7.4 4.3 L7.45 4.4 Q7.45 4.5 7.5 4.55 7.75 4.8 8.6 4.8 L8.7 4.8 9.65 4.7 9.7 4.7 10.15 4.55 10.4 4.45 10.5 4.35 10.55 4.35 10.55 4.4 Q10.7 4.4 10.8 4.25 L10.9 4.2 10.9 4.1 10.95 4.05 10.95 3.35 10.9 2.55 10.9 2.0 Q10.8 1.15 10.65 0.35 L10.65 0.2 10.6 0.15 10.6 -0.35 10.55 -0.35 10.3 -0.25 Q10.2 -0.15 10.1 -0.15 9.95 -0.05 9.85 -0.05 L9.8 -0.05 9.65 0.0 9.55 0.0 9.9 -0.15 10.05 -0.25 10.35 -0.4 10.65 -0.5 10.65 -0.55 10.75 -0.55 10.85 -0.6 Q11.0 -0.65 11.15 -0.7 L11.2 -0.8 11.2 -1.5 11.25 -2.15 11.25 -2.2 11.2 -2.25 11.05 -2.35 10.5 -2.6 10.3 -2.65 8.45 -2.65 M8.95 0.0 L8.95 0.0 M7.15 -0.55 L7.2 0.1 7.1 1.55 7.0 2.55 7.4 2.6 7.4 2.55 7.55 2.35 7.6 2.25 7.55 2.25 7.65 2.1 7.75 1.9 7.95 1.6 Q8.0 1.5 8.0 1.1 L8.0 0.95 7.95 0.8 7.8 0.3 7.45 -0.35 7.4 -0.35 7.35 -0.4 7.2 -0.5 7.15 -0.55 M9.7 -0.05 L9.7 -0.05" fill="#111111" fill-rule="evenodd" stroke="none"/>
    <path d="M8.7 -18.2 L8.65 -18.2 8.7 -18.2 M6.45 -17.6 L6.45 -17.65 6.45 -17.6 M7.45 -18.0 L7.5 -18.0 7.45 -18.0 M7.55 -18.05 L7.6 -18.05 7.55 -18.05 M8.85 -16.25 L8.6 -16.0 7.85 -15.4 7.3 -14.95 Q7.15 -15.35 7.0 -15.6 L6.8 -15.85 6.5 -16.1 6.25 -16.35 6.35 -16.4 6.5 -16.5 6.7 -16.6 7.1 -16.85 7.8 -17.3 7.8 -17.25 7.85 -17.3 8.0 -17.4 8.85 -17.9 9.3 -18.2 9.35 -18.35 9.4 -18.35 9.3 -18.25 9.35 -18.2 9.3 -17.8 9.3 -17.5 9.2 -17.15 9.05 -16.8 8.9 -16.55 8.85 -16.4 8.8 -16.3 Q8.8 -16.25 8.85 -16.25 M7.5 -17.3 L7.45 -17.25 7.5 -17.25 7.5 -17.3" fill="#666633" fill-rule="evenodd" stroke="none"/>
    <path d="M9.9 -18.35 L9.9 -18.3 9.8 -18.15 9.9 -18.35 M9.45 -17.15 L9.2 -16.65 9.2 -16.7 9.25 -16.85 9.45 -17.15" fill="#ccbfb7" fill-rule="evenodd" stroke="none"/>
    <path d="M7.8 -12.9 L7.85 -12.8 7.85 -12.85 7.8 -12.9 M8.15 -11.85 L8.15 -11.75 8.15 -11.85 M8.15 -10.8 L8.05 -10.8 8.15 -10.8 M8.0 -10.8 L7.85 -10.85 8.0 -10.85 8.0 -10.8 M7.55 -10.75 L7.6 -10.75 7.45 -10.7 7.55 -10.75 M6.3 -10.5 L5.85 -10.45 5.85 -10.5 6.3 -10.5" fill="#7a3010" fill-rule="evenodd" stroke="none"/>
    <path d="M7.85 -10.4 L7.8 -10.45 7.85 -10.4 M7.15 -10.4 L7.3 -10.15 Q7.4 -9.9 7.4 -9.75 7.4 -9.65 7.3 -9.6 7.15 -9.55 7.05 -9.35 L5.95 -9.35 6.0 -10.0 5.95 -10.2 6.6 -10.35 7.1 -10.4 7.15 -10.4 M5.95 -9.25 L6.15 -9.25 5.95 -9.25 M7.65 -9.4 L7.7 -9.5 7.8 -9.55 7.7 -9.45 7.65 -9.4 M6.8 -9.8 L6.8 -9.75 7.0 -9.65 7.05 -9.75 7.05 -9.85 Q7.05 -9.9 6.95 -10.05 6.8 -9.9 6.8 -9.8 M6.1 -9.8 L6.1 -9.7 6.3 -9.7 6.3 -9.8 Q6.4 -9.8 6.35 -9.8 L6.3 -9.95 6.3 -10.0 6.25 -10.0 6.2 -10.05 Q6.1 -10.0 6.1 -9.8 M4.75 -9.7 L4.8 -9.75 4.8 -10.05 4.6 -10.05 4.65 -10.1 4.7 -10.4 4.7 -10.5 4.6 -10.5 4.55 -10.3 4.55 -10.2 4.5 -10.55 4.55 -10.55 4.75 -10.5 4.95 -10.4 Q5.15 -10.3 5.25 -10.3 5.2 -10.1 5.2 -9.8 L5.25 -9.35 Q5.1 -9.45 4.8 -9.45 L4.75 -9.65 4.75 -9.7 M5.3 -9.25 L5.3 -9.2 5.15 -9.2 5.05 -9.25 5.3 -9.25 M4.7 -9.35 L4.65 -9.35 4.7 -9.35" fill="#4e3427" fill-rule="evenodd" stroke="none"/>
    <path d="M5.45 -9.15 L5.45 -9.2 5.4 -9.2 5.4 -10.3 5.45 -10.25 5.75 -10.25 5.75 -10.2 Q5.7 -10.0 5.7 -9.8 L5.7 -9.2 5.45 -9.15 M4.4 -9.35 L4.4 -9.25 4.3 -9.25 4.25 -9.35 4.15 -9.45 4.15 -10.5 4.25 -10.5 4.3 -10.45 4.4 -9.95 4.4 -9.85 Q4.4 -9.45 4.4 -9.35 M4.3 -10.55 L4.3 -10.55" fill="#e8d27d" fill-rule="evenodd" stroke="none"/>
    <path d="M11.2 -2.25 L11.25 -2.2 11.25 -2.15 11.2 -2.25 M9.7 -0.05 L9.7 -0.05" fill="#876003" fill-rule="evenodd" stroke="none"/>
    <path d="M8.5 -10.4 L8.45 -10.4 8.5 -10.45 8.5 -10.4 M7.9 -10.35 L7.85 -10.4 7.9 -10.4 7.9 -10.35 M9.0 -10.5 L9.1 -10.55 9.05 -10.5 9.0 -10.5 M8.05 -9.8 L8.05 -9.95 8.05 -9.9 8.1 -9.85 8.05 -9.8 M8.4 -10.05 L8.4 -10.05 M7.15 -9.2 L7.3 -9.25 7.15 -9.2 M7.8 -9.55 L7.85 -9.65 7.7 -9.45 7.8 -9.55 M7.9 -9.7 L7.9 -9.7 7.9 -9.75 7.9 -9.7 M4.9 -10.65 L4.9 -10.65" fill="#421a09" fill-rule="evenodd" stroke="none"/>
    <path d="M5.45 -10.25 L5.4 -10.3 5.45 -10.35 5.85 -10.35 5.85 -9.75 5.8 -9.1 5.8 -9.05 5.55 -9.05 5.45 -9.15 5.7 -9.2 5.7 -9.8 Q5.7 -10.0 5.75 -10.2 L5.75 -10.25 5.45 -10.25 M4.15 -10.5 L4.1 -10.5 4.1 -10.55 Q4.1 -10.7 4.2 -10.65 4.3 -10.7 4.4 -10.6 L4.45 -10.6 4.45 -10.0 Q4.45 -9.95 4.45 -9.85 4.45 -9.8 4.55 -9.8 4.45 -9.5 4.45 -9.35 L4.4 -9.35 Q4.4 -9.45 4.4 -9.85 L4.4 -9.95 4.3 -10.45 4.25 -10.5 4.15 -10.5 M4.6 -9.95 L4.55 -10.0 4.65 -10.0 4.7 -9.9 4.6 -9.95 M4.3 -10.55 L4.3 -10.55 4.3 -10.55" fill="#8b7418" fill-rule="evenodd" stroke="none"/>
    <path d="M9.2 -9.75 L9.3 -9.8 9.3 -9.85 9.3 -9.75 9.2 -9.75 M8.5 -10.4 L8.5 -10.45 8.45 -10.4 8.5 -10.4 M8.05 -9.95 L8.0 -10.05 8.0 -10.1 7.9 -10.35 7.9 -10.4 7.85 -10.4 7.8 -10.45 7.75 -10.45 7.75 -10.5 7.85 -10.5 7.85 -10.55 9.0 -10.55 9.0 -10.5 9.05 -10.5 9.1 -10.55 9.2 -10.45 9.2 -10.3 9.25 -9.9 8.6 -9.6 Q8.2 -9.35 7.75 -9.2 L7.7 -9.2 7.7 -9.25 7.9 -9.4 7.9 -9.45 8.0 -9.65 8.05 -9.8 8.1 -9.85 8.05 -9.9 8.05 -9.95 M8.4 -10.05 L8.4 -10.05 M5.95 -9.35 L7.05 -9.35 Q7.15 -9.55 7.3 -9.6 7.4 -9.65 7.4 -9.75 7.4 -9.9 7.3 -10.15 L7.15 -10.4 7.2 -10.45 Q7.7 -10.55 7.85 -10.25 7.95 -10.15 7.95 -9.9 L7.9 -9.75 7.9 -9.7 7.9 -9.7 7.85 -9.65 7.8 -9.55 7.7 -9.5 7.65 -9.4 Q7.5 -9.3 7.3 -9.25 L7.15 -9.2 7.1 -9.2 7.05 -9.25 6.15 -9.25 5.95 -9.25 5.95 -9.35 M5.25 -9.35 L5.35 -9.3 5.3 -9.25 5.05 -9.25 5.0 -9.25 Q4.8 -9.3 4.7 -9.35 L4.65 -9.35 4.65 -9.4 4.6 -9.4 4.6 -9.8 Q4.7 -9.75 4.75 -9.7 L4.75 -9.65 4.8 -9.45 Q5.1 -9.45 5.25 -9.35 M4.5 -9.35 L4.55 -9.3 4.5 -9.3 4.5 -9.35" fill="#2f1f17" fill-rule="evenodd" stroke="none"/>
    <path d="M4.65 -2.1 L4.65 -2.25 4.6 -2.6 4.65 -2.65 4.65 -2.7 Q4.7 -2.8 4.75 -2.85 L4.8 -2.85 4.95 -2.8 Q4.75 -2.5 4.65 -2.2 L4.65 -2.1 M5.1 -0.95 L5.1 -0.9 Q5.1 -0.75 5.2 -0.4 L5.2 -0.45 Q5.05 -0.6 5.05 -0.7 5.05 -0.85 5.1 -0.95 M5.3 -0.2 L5.35 0.05 5.25 0.1 5.3 -0.2 M7.3 -2.6 Q7.0 -2.4 7.0 -2.1 7.0 -1.85 7.35 -0.95 7.0 -1.35 6.95 -1.75 L6.85 -2.4 6.85 -2.55 6.95 -2.55 7.3 -2.6 M8.3 1.1 L8.25 1.05 8.3 1.1" fill="#473201" fill-rule="evenodd" stroke="none"/>
    <path d="M4.0 -11.45 L4.05 -11.45 4.0 -11.4 4.0 -11.45" fill="#d0af3c" fill-rule="evenodd" stroke="none"/>
    <path d="M4.65 -2.1 L4.65 -2.2 Q4.75 -2.5 4.95 -2.8 L5.05 -2.8 5.4 -2.7 5.4 -2.35 Q5.4 -2.05 5.8 -1.25 L5.9 -0.95 5.85 -0.95 Q5.55 -0.95 5.35 -1.1 L5.25 -1.2 5.1 -1.25 5.05 -1.25 5.05 -1.3 Q5.0 -1.3 4.95 -1.35 4.7 -1.35 4.65 -1.7 4.6 -1.9 4.65 -2.05 L4.65 -2.1 M5.2 -0.4 Q5.1 -0.75 5.1 -0.9 L5.1 -0.95 Q5.15 -1.0 5.25 -1.0 L5.25 -1.05 5.4 -1.05 Q5.5 -0.95 5.7 -0.95 L5.75 -0.95 5.85 -0.9 5.9 -0.9 6.0 -0.85 6.1 -0.9 6.2 -0.9 Q6.4 -0.6 6.4 -0.5 6.35 -0.3 6.35 0.0 L6.05 0.75 Q5.75 1.55 5.75 1.6 5.75 1.8 5.95 2.05 6.15 2.3 6.15 2.4 L6.1 2.6 5.85 2.6 5.75 2.65 4.95 2.65 4.8 2.7 4.7 2.7 4.6 2.75 4.5 2.65 4.35 2.65 4.15 2.6 3.7 2.55 3.65 2.55 3.45 2.5 3.4 2.45 Q3.35 2.45 3.25 2.45 L3.25 2.3 3.3 2.25 Q3.3 2.0 3.35 1.8 3.4 1.55 3.55 1.35 L3.6 1.3 Q3.9 0.95 4.35 0.8 4.8 0.6 5.0 0.45 5.15 0.3 5.25 0.1 L5.35 0.05 5.3 -0.2 Q5.3 -0.3 5.2 -0.4 M7.3 -2.6 L7.95 -2.65 8.45 -2.65 Q9.05 -2.35 9.05 -1.35 L9.0 -0.85 8.9 -0.4 Q8.9 -0.2 8.95 0.0 L8.9 -0.1 8.85 -0.1 8.85 -0.15 8.45 -0.15 Q8.15 -0.1 7.9 -0.25 L7.8 -0.4 7.55 -0.7 7.35 -0.95 Q7.0 -1.85 7.0 -2.1 7.0 -2.4 7.3 -2.6 M9.7 4.7 L9.65 4.7 8.7 4.8 8.6 4.8 Q7.75 4.8 7.5 4.55 7.45 4.5 7.45 4.4 L7.4 4.3 Q7.4 3.9 7.5 3.5 7.6 2.95 7.9 2.4 L8.25 1.85 Q8.35 1.55 8.4 1.35 8.55 1.25 8.7 1.25 8.9 1.15 9.15 1.15 9.45 1.15 9.8 1.4 L9.9 1.45 9.95 1.45 10.05 1.55 Q10.2 1.6 10.3 1.7 L10.25 1.8 Q10.0 2.3 10.0 3.25 10.0 4.05 9.8 4.45 L9.7 4.7 M10.35 1.55 Q10.1 1.4 9.75 1.3 9.5 1.2 9.2 1.1 8.5 0.9 8.3 1.1 L8.25 1.05 8.25 0.9 8.2 0.7 8.2 0.6 8.15 0.5 8.05 0.2 8.0 0.0 8.95 0.0 Q9.1 0.55 9.7 0.8 L10.2 1.0 Q10.45 1.15 10.45 1.4 L10.35 1.55" fill="#854607" fill-rule="evenodd" stroke="none"/>
    <path d="M5.4 -2.7 L5.8 -2.65 6.25 -2.6 6.55 -2.6 6.55 -2.4 6.65 -1.85 Q6.65 -1.7 6.65 -1.6 L6.65 -1.35 Q6.65 -1.15 6.75 -1.0 L6.6 -1.0 6.45 -0.95 5.9 -0.95 5.8 -1.25 Q5.4 -2.05 5.4 -2.35 L5.4 -2.7 M6.1 2.6 L6.15 2.4 Q6.15 2.3 5.95 2.05 5.75 1.8 5.75 1.6 5.75 1.55 6.05 0.75 L6.35 0.0 Q6.35 -0.3 6.4 -0.5 6.4 -0.6 6.2 -0.9 L6.1 -0.9 6.7 -0.9 6.8 -0.95 7.05 -0.65 7.05 -0.55 7.1 -0.45 7.15 -0.05 7.0 2.15 6.95 2.2 Q6.95 2.3 7.0 2.35 L6.95 2.45 Q6.9 2.5 6.8 2.5 L6.8 2.55 6.5 2.55 6.1 2.6 M8.95 0.0 Q8.9 -0.2 8.9 -0.4 L9.0 -0.85 9.05 -1.35 Q9.05 -2.35 8.45 -2.65 L10.3 -2.65 10.5 -2.6 11.05 -2.35 11.2 -2.25 11.25 -2.15 11.2 -1.5 11.2 -0.8 11.15 -0.7 Q11.0 -0.65 10.85 -0.6 L10.75 -0.55 10.65 -0.55 10.65 -0.5 10.35 -0.4 10.05 -0.25 9.9 -0.15 9.55 0.0 9.65 0.0 9.8 -0.05 9.85 -0.05 Q9.95 -0.05 10.1 -0.15 10.2 -0.15 10.3 -0.25 L10.55 -0.35 10.6 -0.35 10.6 0.15 10.65 0.2 10.65 0.35 Q10.8 1.15 10.9 2.0 L10.9 2.55 10.95 3.35 10.95 4.05 10.9 4.1 10.9 4.2 10.8 4.25 Q10.7 4.4 10.55 4.4 L10.55 4.35 10.5 4.35 10.4 4.45 10.15 4.55 9.7 4.7 9.8 4.45 Q10.0 4.05 10.0 3.25 10.0 2.3 10.25 1.8 L10.3 1.7 10.35 1.7 10.4 1.75 10.4 1.6 10.35 1.55 10.45 1.4 Q10.45 1.15 10.2 1.0 L9.7 0.8 Q9.1 0.55 8.95 0.0 L8.95 0.0 M7.15 -0.55 L7.2 -0.5 7.35 -0.4 7.4 -0.35 7.45 -0.35 7.8 0.3 7.95 0.8 8.0 0.95 8.0 1.1 Q8.0 1.5 7.95 1.6 L7.75 1.9 7.65 2.1 7.55 2.25 7.6 2.25 7.55 2.35 7.4 2.55 7.4 2.6 7.0 2.55 7.1 1.55 7.2 0.1 7.15 -0.55" fill="#693705" fill-rule="evenodd" stroke="none"/>
    <path d="M9.25 -3.05 L7.95 -3.05 7.95 -3.0 Q6.85 -3.0 6.65 -2.85 L6.25 -2.85 5.45 -3.0 5.35 -3.0 4.85 -3.1 4.65 -3.15 4.6 -3.15 4.5 -3.2 4.5 -3.15 Q4.0 -3.3 3.75 -3.45 L3.6 -3.5 3.65 -3.5 3.55 -3.6 3.5 -3.7 3.45 -3.7 3.45 -4.0 Q3.45 -5.75 3.5 -6.6 L3.55 -6.75 Q3.6 -7.1 3.85 -7.8 L3.95 -8.15 4.0 -8.3 Q4.0 -8.4 4.1 -8.6 L4.15 -9.0 4.15 -9.05 4.2 -9.15 4.35 -9.1 4.5 -9.15 4.5 -9.1 4.6 -9.15 4.8 -9.1 5.0 -9.1 4.95 -9.05 4.95 -9.0 Q4.95 -8.95 4.55 -8.6 L4.25 -8.2 4.3 -8.2 Q4.55 -8.2 4.95 -8.35 L5.4 -8.55 5.5 -8.6 5.95 -8.75 6.2 -8.9 6.25 -8.95 6.4 -9.05 6.95 -9.05 6.9 -8.95 7.0 -8.95 7.0 -8.75 6.95 -8.3 Q7.05 -8.2 7.3 -8.2 7.5 -8.2 8.85 -9.0 L9.1 -6.95 Q9.15 -6.3 9.3 -5.95 L9.25 -5.75 9.3 -4.8 9.3 -3.65 Q9.2 -3.35 9.2 -3.25 L9.25 -3.05 M8.4 -11.55 L8.25 -12.0 7.8 -13.6 7.7 -13.6 7.75 -13.25 7.6 -13.45 7.6 -13.0 Q7.6 -12.7 7.85 -12.0 L8.05 -11.3 Q8.05 -11.0 7.85 -11.0 7.7 -11.0 7.4 -11.1 L7.05 -11.25 6.75 -11.25 6.7 -11.3 6.6 -11.2 6.45 -11.05 6.35 -11.0 Q5.85 -10.6 5.5 -10.6 L5.05 -10.65 5.1 -10.65 5.1 -10.6 5.45 -10.55 5.55 -10.5 5.25 -10.55 5.1 -10.6 Q4.85 -10.65 4.6 -10.75 L4.3 -10.85 4.1 -10.85 3.95 -10.9 3.95 -11.1 4.0 -12.05 4.05 -12.05 Q4.15 -13.05 4.2 -13.45 4.25 -13.7 4.3 -13.95 L4.4 -14.0 4.4 -14.2 4.6 -14.7 4.65 -14.65 4.75 -14.85 4.75 -14.95 5.15 -15.5 5.6 -16.1 5.7 -16.25 5.7 -16.3 5.85 -16.3 5.85 -16.35 5.9 -16.3 5.95 -16.3 5.9 -16.25 5.7 -15.95 5.65 -15.8 5.55 -15.55 5.5 -15.3 Q5.35 -15.55 5.35 -15.7 L5.3 -15.7 5.25 -15.55 5.25 -15.4 Q5.25 -15.35 5.35 -15.2 L5.2 -15.1 Q4.8 -14.75 4.7 -14.4 L5.3 -14.9 5.45 -15.05 5.75 -14.65 6.3 -14.05 Q6.4 -14.05 6.45 -14.1 6.3 -14.35 5.8 -14.95 L5.6 -15.15 6.1 -15.6 Q5.8 -15.55 5.55 -15.35 L5.7 -15.65 5.8 -15.75 5.8 -15.7 5.85 -15.7 Q6.0 -15.75 6.15 -15.85 L6.3 -16.0 6.45 -15.85 6.6 -15.65 Q6.85 -15.3 7.05 -15.05 L7.15 -14.85 7.15 -14.8 7.2 -14.8 7.2 -14.75 Q7.3 -14.75 7.3 -14.8 L7.35 -14.8 7.8 -15.05 Q8.2 -15.4 8.65 -15.8 L8.75 -15.9 8.7 -15.8 8.9 -15.2 Q8.4 -13.7 8.4 -11.65 L8.4 -11.55 M4.0 -11.45 L4.0 -11.4 4.05 -11.45 4.0 -11.45 M4.9 -10.65 L4.9 -10.65" fill="#a69f4a" fill-rule="evenodd" stroke="none"/>
    <path d="M11.6 -17.15 Q11.85 -16.95 11.95 -16.65 L12.0 -16.6 12.2 -16.05 12.4 -15.6 12.75 -14.5 12.95 -13.6 Q12.95 -13.5 12.1 -10.45 11.75 -9.1 11.65 -7.3 L11.65 -6.65 11.7 -6.25 Q12.15 -4.4 12.15 -3.45 12.15 -3.15 11.8 -2.95 L11.3 -3.1 10.1 -3.1 9.3 -3.05 9.25 -3.0 9.25 -3.05 9.2 -3.25 Q9.2 -3.35 9.3 -3.65 L9.3 -4.8 9.25 -5.75 9.3 -5.95 Q9.15 -6.3 9.1 -6.95 L8.85 -9.0 Q7.5 -8.2 7.3 -8.2 7.05 -8.2 6.95 -8.3 L7.0 -8.75 7.0 -8.95 6.9 -8.95 6.95 -9.05 7.0 -9.05 Q7.05 -9.0 7.15 -9.0 7.2 -9.0 7.4 -9.05 L7.55 -9.1 7.6 -9.1 Q8.25 -9.25 8.7 -9.45 L8.7 -9.5 9.2 -9.75 9.3 -9.75 9.3 -9.85 9.4 -9.85 9.4 -10.0 9.45 -10.1 9.45 -10.4 Q9.45 -10.65 9.25 -10.6 L9.25 -10.65 9.1 -10.65 8.9 -10.75 9.0 -10.75 Q9.25 -10.8 9.3 -10.95 L8.9 -10.95 8.65 -10.8 8.4 -11.55 8.4 -11.65 Q8.4 -13.7 8.9 -15.2 L8.7 -15.8 8.75 -15.9 Q8.8 -16.15 9.1 -16.35 L9.2 -16.4 Q9.65 -16.95 9.75 -17.4 L9.85 -17.65 10.05 -18.25 10.3 -17.9 10.5 -17.55 10.65 -17.35 10.7 -17.35 10.8 -17.2 10.9 -17.25 11.2 -17.2 11.25 -17.2 Q11.3 -17.15 11.35 -17.15 L11.6 -17.15 M5.0 -9.1 L5.3 -9.05 5.3 -9.0 5.35 -9.0 5.4 -9.05 5.55 -8.95 5.75 -8.95 Q5.55 -8.9 5.3 -8.8 4.8 -8.5 4.75 -8.35 4.95 -8.45 5.25 -8.6 5.55 -8.7 6.25 -8.95 L6.2 -8.9 5.95 -8.75 5.5 -8.6 5.4 -8.55 4.95 -8.35 Q4.55 -8.2 4.3 -8.2 L4.25 -8.2 4.55 -8.6 Q4.95 -8.95 4.95 -9.0 L4.95 -9.05 5.0 -9.1 M7.75 -13.25 L7.75 -13.1 7.8 -12.9 7.85 -12.85 7.85 -12.8 Q7.9 -12.7 8.0 -12.45 L8.15 -11.85 8.15 -11.75 8.2 -11.65 8.25 -11.3 8.3 -11.25 8.35 -11.1 8.35 -11.0 8.45 -10.8 8.45 -10.75 8.3 -10.75 8.25 -10.8 8.15 -10.8 8.05 -10.8 8.0 -10.8 8.0 -10.85 7.85 -10.85 7.6 -10.85 Q7.4 -10.9 7.15 -11.0 L7.15 -11.05 Q6.85 -11.05 6.6 -11.2 6.7 -11.1 6.9 -11.0 L7.15 -10.9 7.2 -10.9 7.25 -10.85 7.55 -10.75 7.45 -10.7 7.35 -10.7 7.3 -10.65 7.25 -10.65 6.95 -10.6 6.85 -10.6 6.75 -10.5 6.3 -10.5 5.85 -10.5 5.55 -10.5 5.45 -10.55 5.1 -10.6 5.1 -10.65 5.05 -10.65 5.5 -10.6 Q5.85 -10.6 6.35 -11.0 L6.45 -11.05 6.6 -11.2 6.7 -11.3 6.75 -11.25 7.05 -11.25 7.4 -11.1 Q7.7 -11.0 7.85 -11.0 8.05 -11.0 8.05 -11.3 L7.85 -12.0 Q7.6 -12.7 7.6 -13.0 L7.6 -13.45 7.75 -13.25 M5.8 -15.75 L5.85 -15.9 5.9 -16.15 Q5.95 -16.25 6.1 -16.15 L6.15 -16.2 6.35 -16.0 6.3 -16.0 6.15 -15.85 Q6.0 -15.75 5.85 -15.7 L5.8 -15.7 5.8 -15.75" fill="#7c6d34" fill-rule="evenodd" stroke="none"/>
    <path d="M8.35 -18.05 L8.3 -18.0 7.85 -17.8 Q6.95 -17.45 6.6 -17.4 L6.6 -17.45 6.55 -17.45 6.55 -17.5 6.5 -17.55 6.5 -17.6 Q6.65 -17.6 7.55 -17.95 8.05 -18.15 8.3 -18.25 L8.25 -18.2 8.3 -18.1 8.35 -18.05 M7.25 -17.1 L6.7 -16.8 6.35 -16.6 6.35 -16.75 6.45 -16.85 6.45 -17.05 Q6.45 -17.2 6.5 -17.25 L6.55 -17.3 6.55 -17.35 6.7 -17.35 Q7.0 -17.45 7.55 -17.65 L7.45 -17.55 Q7.2 -17.25 7.2 -17.15 L7.25 -17.1" fill="#a4490d" fill-rule="evenodd" stroke="none"/>
    <path d="M7.6 -18.05 L8.05 -18.35 Q8.15 -18.4 8.25 -18.45 L8.8 -18.95 9.3 -19.35 9.35 -19.45 9.4 -19.4 9.4 -19.15 Q9.4 -18.75 9.35 -18.6 L9.3 -18.5 9.05 -18.3 Q8.85 -18.2 8.7 -18.2 L8.65 -18.2 Q8.5 -18.05 8.35 -18.05 L8.3 -18.1 8.25 -18.2 8.3 -18.25 Q8.05 -18.15 7.55 -17.95 6.65 -17.6 6.5 -17.6 L6.45 -17.6 6.45 -17.65 Q6.5 -17.65 6.85 -17.8 L7.45 -18.0 7.5 -18.0 7.55 -18.05 7.6 -18.05 M7.55 -17.65 Q7.65 -17.7 7.7 -17.7 L7.95 -17.85 8.45 -18.05 8.9 -18.2 Q8.65 -17.95 8.05 -17.6 L7.5 -17.3 7.5 -17.25 7.45 -17.25 7.35 -17.15 7.3 -17.15 7.25 -17.1 7.2 -17.15 Q7.2 -17.25 7.45 -17.55 L7.55 -17.65 M6.35 -16.6 L6.35 -16.55 6.3 -16.5 Q6.25 -16.4 6.15 -16.4 L6.1 -16.45 5.95 -16.55 6.15 -16.8 6.25 -16.95 Q6.3 -16.9 6.35 -16.8 L6.35 -16.75 6.35 -16.6" fill="#872710" fill-rule="evenodd" stroke="none"/>
    <path d="M5.5 -15.3 L5.5 -15.35 5.55 -15.35 Q5.8 -15.55 6.1 -15.6 L5.6 -15.15 5.8 -14.95 Q6.3 -14.35 6.45 -14.1 6.4 -14.05 6.3 -14.05 L5.75 -14.65 5.45 -15.05 5.3 -14.9 4.7 -14.4 Q4.8 -14.75 5.2 -15.1 L5.35 -15.2 Q5.25 -15.35 5.25 -15.4 L5.25 -15.55 5.3 -15.7 5.35 -15.7 Q5.35 -15.55 5.5 -15.3" fill="#000000" fill-rule="evenodd" stroke="none"/>
    <path d="M5.75 -16.95 L5.75 -17.0 6.15 -17.35 6.2 -17.4 6.3 -17.4 6.3 -17.25 6.25 -17.25 6.15 -17.1 6.1 -17.0 6.05 -17.0 5.75 -16.6 5.6 -16.6 Q5.45 -16.6 5.4 -16.5 L5.6 -16.8 5.75 -16.95 M9.4 -18.35 L9.5 -18.7 Q9.55 -18.8 9.6 -18.95 L9.6 -19.2 Q9.65 -19.25 9.8 -19.15 10.0 -19.0 10.0 -18.9 L10.0 -18.85 Q9.95 -18.65 9.9 -18.35 L9.8 -18.15 9.75 -17.9 9.65 -17.55 9.6 -17.55 9.45 -17.25 9.45 -17.15 9.25 -16.85 9.2 -16.7 9.2 -16.65 9.15 -16.55 8.85 -16.25 Q8.8 -16.25 8.8 -16.3 L8.85 -16.4 8.9 -16.55 9.05 -16.8 9.2 -17.15 9.3 -17.5 9.3 -17.8 9.35 -18.2 9.3 -18.25 9.4 -18.35" fill="#464220" fill-rule="evenodd" stroke="none"/>
  </g>
</svg>
