<?xml version="1.0" encoding="UTF-8" standalone="no"?>
<svg xmlns:ffdec="https://www.free-decompiler.com/flash" xmlns:xlink="http://www.w3.org/1999/xlink" ffdec:objectType="shape" height="28.15px" width="25.65px" xmlns="http://www.w3.org/2000/svg">
  <g transform="matrix(1.0, 0.0, 0.0, 1.0, 7.9, 15.0)">
    <path d="M5.25 -0.6 L5.3 -0.15 5.25 -0.6 M2.7 1.1 L2.7 1.05 2.7 1.1" fill="#727f7f" fill-rule="evenodd" stroke="none"/>
    <path d="M0.95 0.45 L0.9 0.45 0.95 0.45 M-1.0 1.1 L0.15 2.75 -1.0 1.1 M0.35 2.85 L0.4 2.85 0.35 2.85 M1.1 2.0 L1.1 1.9 1.1 2.0" fill="#4a5e5f" fill-rule="evenodd" stroke="none"/>
    <path d="M0.9 0.45 L0.95 0.45 1.1 1.9 1.1 2.0 0.4 2.85 0.35 2.85 0.15 2.75 -1.0 1.1 0.9 0.45" fill="#2c3a43" fill-rule="evenodd" stroke="none"/>
    <path d="M1.4 -0.45 L0.35 -4.1 1.2 -4.4 2.1 -4.55 2.05 -3.35 2.0 -3.15 1.4 -0.45" fill="#d5d0ca" fill-rule="evenodd" stroke="none"/>
    <path d="M2.65 -4.55 L5.25 -0.6 5.3 -0.15 2.7 1.1 2.7 1.05 2.05 0.4 2.65 -4.55" fill="#8994a0" fill-rule="evenodd" stroke="none"/>
    <path d="M0.35 -4.1 L1.2 -4.4 0.35 -4.1 M2.0 -3.15 L2.05 -3.35 2.0 -3.15" fill="#ddd9d4" fill-rule="evenodd" stroke="none"/>
    <path d="M2.05 0.4 L1.4 -0.45 2.0 -3.15 2.05 -3.35 2.1 -4.55 2.65 -4.55 2.05 0.4" fill="#f5f4f3" fill-rule="evenodd" stroke="none"/>
    <path d="M5.25 -0.6 L2.65 -4.55 2.1 -4.55 1.2 -4.4 0.35 -4.1 1.4 -0.45 2.05 0.4 2.7 1.05 2.7 1.1 5.3 -0.15 5.25 -0.6 M0.95 0.45 L0.9 0.45 -1.0 1.1 0.15 2.75 0.35 2.85 0.4 2.85 1.1 2.0 1.1 1.9 0.95 0.45" fill="#101010" fill-rule="evenodd" stroke="none"/>
    <path d="M-6.95 1.1 L-7.05 0.4 -7.05 0.2 -7.0 -0.2 -7.0 -0.55 Q-7.1 -3.0 -6.3 -5.1 -6.05 -6.6 -5.05 -8.1 L-4.55 -8.85 -3.8 -9.7 -3.35 -10.2 Q-3.05 -10.5 -2.75 -10.75 -2.3 -11.1 -1.8 -11.5 L-1.25 -11.85 Q-0.15 -12.6 1.25 -13.15 2.3 -13.55 3.55 -13.9 L4.2 -14.0 4.6 -14.05 5.3 -14.1 Q7.7 -14.35 9.25 -13.65 L9.5 -13.6 9.65 -13.55 Q11.3 -12.95 12.15 -12.35 12.9 -11.8 13.45 -11.1 13.55 -10.9 13.75 -10.7 L13.85 -10.65 Q14.25 -10.4 14.7 -9.6 15.5 -8.3 15.65 -7.65 15.8 -7.0 16.35 -5.4 16.55 -4.8 16.65 -3.95 16.8 -2.95 16.85 -1.95 L16.9 -1.7 16.85 -1.65 16.75 -1.5 Q16.7 -1.35 16.45 -1.05 L16.45 -0.9 16.45 -2.0 Q16.25 -5.4 14.65 -8.0 L14.4 -8.4 Q13.95 -9.1 13.4 -9.7 L12.65 -10.5 Q11.3 -11.7 9.7 -12.3 8.1 -12.8 6.15 -12.65 L4.95 -12.5 4.85 -12.5 Q4.75 -12.45 4.7 -12.4 4.0 -12.3 3.25 -12.05 1.1 -11.35 -0.5 -10.15 -1.7 -9.25 -2.6 -8.05 L-2.75 -7.85 -3.55 -6.55 Q-4.2 -5.25 -4.5 -4.05 L-4.7 -2.55 -4.8 -1.25 -4.95 0.4 -4.7 1.85 -4.6 2.55 -4.55 2.8 -4.35 3.65 -4.0 5.0 Q-3.7 5.6 -3.35 6.3 L-2.8 7.3 Q-2.65 7.45 -2.55 7.6 L-2.8 7.3 Q-3.1 7.0 -3.3 6.7 L-3.3 6.65 Q-3.8 5.8 -4.15 5.1 L-4.25 4.75 Q-4.95 3.2 -5.05 2.15 L-5.05 1.85 -5.1 1.85 -6.35 1.45 Q-6.4 1.45 -6.45 1.45 L-6.95 1.1 M-1.3 -11.7 L-1.75 -11.4 Q-2.25 -11.0 -2.75 -10.55 L-3.3 -10.05 -3.75 -9.5 -4.4 -8.75 -5.0 -7.85 Q-6.25 -5.85 -6.15 -4.2 L-6.1 -3.95 -6.0 -3.75 -5.8 -4.55 Q-5.55 -5.7 -4.95 -6.8 -4.4 -7.85 -3.55 -8.85 L-3.1 -9.4 -2.75 -9.8 Q-1.15 -11.4 1.2 -12.95 -0.15 -12.45 -1.3 -11.7" fill="#c6c9ba" fill-rule="evenodd" stroke="none"/>
    <path d="M1.05 -13.8 L1.9 -14.1 Q2.9 -14.45 3.9 -14.6 L3.85 -14.75 4.9 -15.0 5.0 -14.8 Q7.5 -15.05 9.6 -14.4 12.15 -13.6 14.05 -11.3 L14.55 -10.75 Q17.45 -7.1 17.75 -2.05 17.75 -1.3 17.7 -0.5 17.6 1.05 17.1 2.7 16.6 4.2 15.8 5.8 12.55 12.1 5.5 13.0 0.35 13.65 -3.95 10.45 L-4.35 10.1 -4.95 9.6 -5.05 9.5 -5.35 9.1 -6.05 7.95 -6.6 6.85 -6.8 6.4 Q-7.15 5.1 -7.4 3.7 -7.65 2.5 -7.9 0.8 L-7.85 0.5 -7.8 -0.45 -7.75 -1.2 Q-7.55 -3.75 -7.4 -4.55 -6.9 -6.65 -5.35 -9.05 L-5.1 -9.35 Q-4.65 -9.95 -4.1 -10.45 L-4.0 -10.25 Q-3.85 -10.35 -3.85 -10.45 L-3.85 -10.65 Q-3.1 -11.25 -2.3 -12.0 L-2.25 -12.05 Q-1.7 -12.45 -1.1 -12.8 -0.1 -13.4 1.05 -13.8 M16.85 -1.65 L16.9 -1.7 16.85 -1.95 Q16.8 -2.95 16.65 -3.95 16.55 -4.8 16.35 -5.4 15.8 -7.0 15.65 -7.65 15.5 -8.3 14.7 -9.6 14.25 -10.4 13.85 -10.65 L13.75 -10.7 Q13.55 -10.9 13.45 -11.1 12.9 -11.8 12.15 -12.35 11.3 -12.95 9.65 -13.55 L9.5 -13.6 9.25 -13.65 Q7.7 -14.35 5.3 -14.1 L4.6 -14.05 4.2 -14.0 3.55 -13.9 Q2.3 -13.55 1.25 -13.15 -0.15 -12.6 -1.25 -11.85 L-1.8 -11.5 Q-2.3 -11.1 -2.75 -10.75 -3.05 -10.5 -3.35 -10.2 L-3.8 -9.7 -4.55 -8.85 -5.05 -8.1 Q-6.05 -6.6 -6.3 -5.1 -7.1 -3.0 -7.0 -0.55 L-7.0 -0.2 -7.05 0.2 -7.05 0.4 -6.95 1.1 -6.85 1.6 Q-6.85 1.75 -6.85 1.85 L-6.85 2.1 Q-6.7 3.5 -6.35 4.8 L-6.25 5.1 -6.15 5.35 Q-5.6 6.95 -4.6 8.4 L-4.05 9.1 Q-0.75 12.9 5.4 12.1 12.25 11.2 15.2 5.15 15.8 4.0 16.2 2.8 16.7 1.25 16.85 -0.2 L16.85 -1.65 M-2.55 7.6 Q-2.65 7.45 -2.8 7.3 L-3.35 6.3 Q-3.7 5.6 -4.0 5.0 L-4.35 3.65 -4.55 2.8 -4.6 2.55 -4.7 1.85 -4.95 0.4 -4.8 -1.25 -4.7 -2.55 -4.5 -4.05 Q-4.2 -5.25 -3.55 -6.55 L-2.75 -7.85 -2.6 -8.05 Q-1.7 -9.25 -0.5 -10.15 1.1 -11.35 3.25 -12.05 4.0 -12.3 4.7 -12.4 4.75 -12.45 4.85 -12.5 L4.95 -12.5 6.15 -12.65 Q8.1 -12.8 9.7 -12.3 11.3 -11.7 12.65 -10.5 L13.4 -9.7 Q13.95 -9.1 14.4 -8.4 L14.65 -8.0 Q16.25 -5.4 16.45 -2.0 L16.45 -0.9 16.3 0.1 Q16.1 1.45 15.6 2.9 L15.3 3.5 14.85 4.5 Q14.05 6.0 13.1 7.1 10.5 10.0 6.2 10.55 L5.85 10.6 Q3.7 10.8 1.75 10.15 L1.55 10.1 Q0.6 9.75 -0.3 9.25 L-1.65 8.35 -1.95 8.1 -2.45 7.7 -2.5 7.6 -2.55 7.6 M9.65 -11.15 L9.4 -11.25 9.3 -11.25 Q9.6 -10.7 9.8 -10.15 10.2 -9.1 10.5 -8.05 10.9 -6.45 11.0 -4.7 L11.0 -4.4 Q11.05 -3.05 10.9 -1.75 L10.9 -1.6 9.95 2.05 9.9 2.1 Q9.9 2.15 9.85 2.15 L9.9 2.15 Q9.9 2.2 9.85 2.2 L9.9 2.2 9.9 2.15 10.4 1.7 Q11.45 0.5 12.2 -0.55 L12.65 -1.15 12.7 -1.2 12.7 -1.25 12.75 -1.25 Q13.3 -2.15 13.75 -3.1 L13.8 -3.2 14.1 -3.85 14.55 -5.0 14.65 -5.35 14.8 -5.75 14.8 -5.8 14.85 -5.85 14.75 -6.1 14.5 -6.6 14.35 -6.9 13.7 -7.95 13.45 -8.3 12.6 -9.3 Q12.45 -9.65 11.8 -10.05 L11.5 -10.15 11.45 -10.25 11.4 -10.25 11.3 -10.35 10.25 -10.95 10.0 -11.0 9.8 -11.1 9.65 -11.15 M9.45 -10.5 L9.1 -11.25 9.1 -11.35 9.0 -11.4 8.95 -11.4 8.85 -11.4 8.7 -11.45 8.65 -11.45 8.45 -11.5 8.15 -11.55 6.5 -11.75 6.3 -11.8 6.15 -11.8 5.95 -11.8 5.95 -11.75 6.0 -11.75 6.0 -11.7 6.85 -10.5 6.95 -10.3 7.1 -10.05 7.2 -9.8 7.4 -9.5 7.55 -9.2 7.6 -9.15 9.25 -4.95 9.3 -4.7 9.35 -4.6 9.55 -3.7 9.65 -3.1 9.65 -2.95 9.7 -2.65 9.75 1.95 Q9.75 2.05 9.7 2.1 L9.95 1.65 10.2 0.8 10.3 0.45 Q10.9 -1.75 10.8 -4.4 L10.8 -4.55 Q10.65 -7.65 9.55 -10.3 L9.45 -10.5 M6.15 -11.2 L6.1 -11.25 5.8 -11.7 5.75 -11.75 5.75 -11.8 5.55 -11.8 5.4 -11.8 5.35 -11.75 4.9 -11.75 4.7 -11.7 3.7 -11.4 Q2.85 -11.15 2.15 -10.8 L2.0 -10.75 2.05 -10.75 2.25 -10.6 2.85 -10.05 3.0 -9.95 Q2.95 -9.95 3.0 -9.95 L3.05 -9.9 3.1 -9.9 Q3.75 -9.3 4.3 -8.65 L4.4 -8.55 Q4.45 -8.5 4.5 -8.5 L4.55 -8.4 4.65 -8.3 7.1 -5.0 7.4 -4.4 7.5 -4.25 7.6 -4.15 8.3 -2.65 8.35 -2.5 8.6 -1.8 8.65 -1.7 8.65 -1.65 9.4 0.95 9.45 1.15 9.5 1.6 9.55 1.85 9.65 0.15 Q9.7 -0.75 9.6 -1.65 L9.6 -2.0 9.35 -3.75 9.05 -4.95 8.8 -5.8 Q8.1 -7.95 6.9 -10.0 6.8 -10.1 6.75 -10.2 L6.15 -11.2 M2.5 -10.15 L2.05 -10.5 1.9 -10.7 1.85 -10.7 1.85 -10.65 1.6 -10.55 1.45 -10.45 0.45 -9.8 0.25 -9.7 0.05 -9.55 -0.45 -9.1 -0.5 -9.05 -0.5 -9.0 -0.55 -9.0 -0.6 -9.0 -0.75 -8.8 Q-1.8 -7.75 -2.55 -6.4 L-2.8 -5.9 -3.15 -5.1 -3.2 -5.05 -3.25 -4.9 Q-3.35 -4.75 -3.4 -4.5 L-3.45 -4.3 -3.45 -4.1 -3.4 -4.1 -2.9 -4.0 -1.8 -3.9 -1.75 -3.85 -1.65 -3.85 Q-0.95 -3.7 -0.25 -3.55 L0.55 -3.35 1.55 -3.05 Q2.4 -2.75 3.15 -2.4 L3.6 -2.2 3.85 -2.1 4.0 -2.0 Q4.7 -1.7 5.3 -1.3 L5.35 -1.3 5.4 -1.25 5.45 -1.25 5.55 -1.15 5.7 -1.1 6.15 -0.75 6.5 -0.5 6.55 -0.45 Q6.6 -0.45 6.65 -0.4 L6.9 -0.15 7.15 0.05 7.6 0.45 7.65 0.45 Q8.35 1.1 9.0 1.8 L9.15 1.95 9.3 2.15 9.35 2.15 9.45 2.25 9.4 2.15 9.2 0.9 Q8.95 -0.15 8.65 -1.1 L8.55 -1.35 8.45 -1.65 8.3 -2.05 8.3 -2.15 Q7.35 -4.6 5.7 -6.75 L5.25 -7.4 4.35 -8.4 4.3 -8.4 4.25 -8.5 Q3.6 -9.15 2.9 -9.8 L2.85 -9.85 2.7 -10.0 2.5 -10.15 M9.2 2.3 L8.35 1.45 8.4 1.45 7.5 0.6 7.45 0.6 6.65 -0.1 6.6 -0.1 5.45 -1.0 5.3 -1.15 4.4 -1.65 2.15 -2.7 1.45 -2.95 0.45 -3.25 -0.3 -3.4 -0.5 -3.5 -1.2 -3.6 -2.5 -3.85 -2.75 -3.9 -2.85 -3.9 -3.15 -3.9 -3.25 -3.95 -3.4 -3.95 -3.4 -3.4 Q-3.25 -1.2 -2.45 0.7 L-2.2 1.2 -1.75 2.0 Q-1.55 2.35 -1.25 2.75 L-1.1 3.0 Q-0.45 3.9 0.4 4.65 L0.4 4.7 1.1 5.25 Q2.0 6.0 3.05 6.65 L3.1 6.65 3.1 6.7 3.15 6.7 3.1 6.75 2.9 6.75 2.55 6.8 Q1.15 6.9 -0.1 6.5 L-0.15 6.5 -0.3 6.45 Q-0.9 6.25 -1.4 5.95 -2.0 5.65 -2.6 5.15 -2.65 5.1 -2.75 5.1 L-3.2 4.7 -3.25 4.7 -3.0 5.2 Q-2.65 5.95 -2.15 6.65 L-1.7 7.2 -1.25 7.7 -1.1 7.85 Q-0.25 8.1 0.3 8.2 L0.45 8.2 0.65 8.25 1.7 8.35 Q2.45 8.35 3.45 8.35 L5.0 8.15 5.2 8.1 5.35 8.1 5.3 8.2 Q5.25 8.35 4.9 8.6 4.6 8.9 4.25 9.1 L3.85 9.3 Q3.4 9.5 2.9 9.6 L2.6 9.7 2.5 9.7 2.85 9.8 5.6 9.85 6.2 9.8 7.05 9.65 7.1 9.65 7.15 9.6 7.5 9.5 7.9 8.6 8.6 6.5 Q9.0 5.15 9.3 3.9 L9.35 3.35 9.4 3.35 9.4 3.2 9.45 2.75 9.5 2.65 9.25 2.45 9.2 2.3 M4.2 4.25 Q2.9 4.0 1.85 2.85 0.6 1.55 0.35 0.3 0.25 -0.25 1.25 -0.15 2.1 -0.15 3.45 0.4 6.75 1.65 7.0 2.9 7.05 3.2 6.85 3.45 6.65 3.8 5.95 4.2 L5.55 4.3 4.2 4.25 M14.75 -5.0 L14.6 -4.65 14.35 -3.95 14.35 -3.9 14.3 -3.9 13.95 -3.05 13.85 -2.9 Q13.5 -2.2 13.05 -1.5 L12.45 -0.55 12.05 -0.05 Q11.35 0.9 10.45 1.85 L10.25 2.05 Q10.1 2.15 10.0 2.3 L9.85 2.55 9.75 2.6 9.7 2.75 9.7 2.8 9.65 2.75 9.65 2.8 9.6 3.25 9.55 3.3 9.55 3.35 Q9.5 3.6 9.45 3.9 9.25 5.1 8.85 6.3 L8.45 7.55 8.15 8.35 7.7 9.5 Q9.9 8.95 11.5 7.65 11.3 7.6 11.15 7.45 L11.05 7.3 Q10.95 7.1 10.9 6.8 L11.0 6.7 11.05 6.7 11.2 6.75 11.25 6.75 11.55 6.7 11.9 6.7 12.35 6.6 12.65 6.45 12.75 6.45 13.0 6.15 13.1 6.05 13.6 5.35 13.45 5.5 13.5 5.4 13.85 4.55 Q14.2 4.0 14.6 3.2 L14.65 3.05 14.05 3.65 Q13.35 4.25 13.05 4.35 L13.0 4.4 12.9 4.4 Q12.9 4.45 12.85 4.45 L12.8 4.45 12.75 4.4 12.8 4.4 13.45 2.95 13.9 1.7 13.9 1.65 14.15 0.95 14.45 -0.05 14.55 -0.5 Q14.8 -1.95 14.85 -2.75 L14.85 -3.05 Q14.85 -3.25 14.9 -3.55 L14.9 -4.45 Q14.9 -4.6 14.9 -4.8 L14.85 -5.3 14.85 -5.35 14.75 -5.0 M11.1 2.6 Q11.1 2.1 12.1 0.85 L12.6 0.15 12.65 0.15 12.65 0.1 12.95 -0.25 13.05 -0.35 13.2 -0.6 13.3 -0.65 13.45 -0.95 13.45 -1.0 13.6 -1.0 13.75 -0.95 13.75 -0.9 14.0 -0.4 Q14.05 -0.1 13.9 0.45 L13.65 1.25 Q13.05 2.75 12.0 2.95 11.45 3.05 11.2 2.85 11.1 2.8 11.1 2.65 L11.1 2.6 M15.75 -1.65 L15.7 -1.8 15.75 -1.95 15.7 -2.1 15.7 -3.05 Q15.6 -3.7 15.4 -3.9 L15.4 -4.1 15.35 -4.3 15.2 -4.8 15.05 -5.25 15.1 -4.45 Q15.15 -2.9 14.9 -1.3 L14.7 -0.4 14.7 -0.3 14.55 0.35 Q14.5 0.45 14.5 0.6 L14.35 1.0 14.05 2.0 13.55 3.2 13.55 3.25 13.45 3.45 Q13.45 3.5 13.45 3.55 13.4 3.55 13.45 3.6 L13.1 4.2 13.35 4.0 Q13.7 3.8 14.0 3.5 14.45 3.0 14.85 2.3 L15.35 1.15 Q15.35 1.1 15.4 1.1 L15.45 1.1 15.55 0.5 15.6 0.4 15.7 -0.25 Q15.8 -1.0 15.75 -1.65 M13.3 -0.4 L13.2 -0.35 13.15 -0.3 12.2 0.95 Q11.5 1.85 11.35 2.45 11.3 2.6 11.3 2.8 L11.45 2.85 Q12.9 2.55 13.5 1.1 L13.65 0.65 13.8 0.25 13.75 0.25 13.85 -0.3 13.7 -0.65 13.65 -0.7 13.35 -0.4 13.3 -0.4 M2.45 6.65 L2.45 6.7 2.5 6.7 2.55 6.65 2.8 6.65 2.35 6.4 Q1.45 5.9 0.75 5.3 L0.3 4.9 0.3 4.85 0.1 4.75 -0.65 3.9 -1.05 3.35 -1.5 2.8 -1.5 2.75 -1.65 2.55 -1.85 2.2 -2.1 1.85 -2.45 1.3 -2.8 0.55 Q-3.05 0.0 -3.25 -1.25 L-3.35 -1.6 -3.35 -1.7 -3.4 -1.8 -3.5 -2.05 Q-3.6 -2.6 -3.6 -3.5 L-3.6 -3.7 -3.7 -3.25 -4.1 0.15 -4.05 0.35 -4.05 0.55 -4.1 0.8 -4.1 0.85 -4.15 0.8 -4.05 0.85 -4.1 0.9 -4.05 1.2 Q-4.05 1.35 -4.05 1.55 L-3.9 2.1 -3.95 2.05 -3.95 2.15 -3.9 2.55 Q-3.7 3.5 -3.35 4.4 L-3.25 4.4 Q-2.7 4.9 -2.1 5.3 -1.55 5.7 -0.95 6.0 L-0.5 6.2 Q0.7 6.6 2.45 6.65 M-3.0 6.85 L-3.0 6.75 Q-3.0 6.85 -2.95 6.85 L-2.9 6.95 Q-2.95 6.9 -3.0 6.85 M4.9 8.4 L5.0 8.3 Q3.35 8.55 2.1 8.5 L1.8 8.5 0.0 8.3 -0.05 8.25 -0.15 8.25 -0.85 8.1 Q-0.65 8.3 -0.4 8.45 L-0.35 8.5 Q0.65 9.15 1.8 9.55 L1.85 9.5 2.8 9.5 3.65 9.15 Q4.15 8.95 4.5 8.7 L4.9 8.4 M-5.55 8.55 L-5.6 8.45 Q-5.65 8.55 -5.55 8.6 L-5.5 8.7 -5.55 8.55 M12.85 0.95 L12.8 1.0 12.65 1.15 Q12.5 1.4 12.4 1.6 L12.3 1.75 12.55 1.7 Q13.0 1.5 13.15 1.25 L13.25 1.05 13.3 0.85 13.2 0.7 Q13.0 0.75 12.85 0.95 M13.4 0.75 L13.4 0.9 13.25 1.25 Q13.1 1.6 12.9 1.75 L12.15 1.9 12.15 1.95 12.1 1.75 Q12.0 1.4 12.3 1.05 12.5 0.8 13.0 0.45 13.2 0.55 13.3 0.65 13.4 0.7 13.4 0.75 M12.45 6.8 L12.5 6.7 12.6 6.6 12.5 6.65 12.2 6.75 Q11.8 6.9 11.45 6.9 L11.2 6.9 11.1 6.85 11.15 6.95 11.2 7.1 11.2 7.2 Q11.35 7.45 11.65 7.45 L11.75 7.5 12.35 6.85 12.45 6.8 M6.8 2.95 Q6.7 2.35 4.3 1.0 1.8 -0.4 0.65 0.0 L0.6 0.1 0.6 0.3 Q0.8 1.15 1.75 2.5 3.2 4.45 4.9 4.15 L5.9 3.9 6.4 3.5 Q6.85 3.2 6.8 2.95 M4.85 3.15 L4.8 2.9 Q4.75 2.45 4.15 1.85 3.5 1.2 3.0 1.3 2.85 1.25 2.9 1.5 3.05 2.3 3.25 2.65 3.65 3.3 4.5 3.4 4.8 3.3 4.85 3.15 M5.1 3.4 Q5.0 3.5 4.7 3.55 3.85 3.7 3.25 2.95 3.0 2.55 2.85 2.15 2.7 1.5 2.8 1.05 3.25 0.95 4.0 1.55 L4.95 2.5 5.1 3.4" fill="#111111" fill-rule="evenodd" stroke="none"/>
    <path d="M9.45 -10.5 L9.55 -10.3 Q10.65 -7.65 10.8 -4.55 L10.8 -4.4 Q10.9 -1.75 10.3 0.45 L10.1 0.45 9.9 -0.25 Q9.8 -0.9 9.9 -1.15 9.85 -3.15 9.8 -3.8 L9.75 -4.1 Q9.65 -4.75 9.45 -5.45 9.0 -6.75 8.25 -8.35 7.75 -9.4 7.3 -10.15 L7.35 -10.25 Q7.6 -10.4 7.55 -10.65 7.55 -11.2 6.65 -11.25 L6.55 -11.3 6.3 -11.6 6.3 -11.7 6.35 -11.75 6.3 -11.75 6.15 -11.8 6.3 -11.8 6.5 -11.75 8.15 -11.55 8.45 -11.5 8.65 -11.45 8.7 -11.45 8.85 -11.4 8.95 -11.4 9.15 -10.95 9.4 -10.6 9.35 -10.65 9.45 -10.5 M6.1 -11.25 L6.15 -11.2 6.0 -11.15 5.85 -11.1 5.85 -11.15 Q5.4 -10.95 5.15 -10.7 L5.05 -10.55 Q4.95 -10.4 4.95 -10.25 4.95 -10.05 5.05 -9.95 5.3 -9.75 6.05 -9.85 L6.55 -9.95 6.6 -9.95 6.8 -10.0 6.8 -9.95 6.9 -10.0 Q8.1 -7.95 8.8 -5.8 L9.05 -4.95 9.35 -3.75 9.6 -2.0 9.6 -1.65 Q9.7 -0.75 9.65 0.15 L9.5 -0.05 Q9.2 -0.45 9.05 -0.95 L8.95 -1.3 8.9 -1.55 8.8 -1.75 8.7 -2.05 8.7 -2.1 8.55 -2.5 Q7.65 -4.35 7.0 -5.5 5.85 -7.2 4.85 -8.35 L4.5 -8.75 4.5 -9.05 4.4 -9.45 Q4.15 -9.85 3.55 -9.95 L3.2 -9.95 3.0 -10.1 2.7 -10.3 Q2.5 -10.35 2.3 -10.6 L2.1 -10.8 2.05 -10.75 2.0 -10.75 2.15 -10.8 Q2.4 -10.95 2.75 -11.05 L3.7 -11.4 4.7 -11.7 4.9 -11.75 5.35 -11.75 5.4 -11.8 5.55 -11.8 5.6 -11.75 5.7 -11.5 5.8 -11.5 Q5.95 -11.3 6.1 -11.25 M-2.5 -3.85 L-1.2 -3.6 -0.5 -3.5 -0.3 -3.4 0.45 -3.25 1.45 -2.95 2.15 -2.7 4.4 -1.65 5.3 -1.15 5.45 -1.0 6.6 -0.1 6.65 -0.1 7.45 0.6 7.5 0.6 8.4 1.45 8.35 1.45 9.2 2.3 9.2 2.45 Q9.2 2.85 9.15 2.95 9.1 3.15 8.8 3.55 L8.75 3.6 7.9 3.9 7.75 3.65 7.85 3.9 6.9 4.2 6.75 4.25 6.7 4.25 5.75 4.3 5.55 4.3 5.95 4.2 Q6.65 3.8 6.85 3.45 7.05 3.2 7.0 2.9 6.75 1.65 3.45 0.4 2.1 -0.15 1.25 -0.15 0.25 -0.25 0.35 0.3 0.6 1.55 1.85 2.85 2.9 4.0 4.2 4.25 2.95 4.15 1.75 3.9 L0.8 3.65 Q-0.35 3.35 -1.1 3.0 L-1.25 2.75 Q-1.55 2.35 -1.75 2.0 L-2.2 1.2 -2.45 0.7 Q-3.25 -1.2 -3.4 -3.4 L-3.4 -3.95 -3.25 -3.95 -3.2 -3.95 -3.15 -3.9 -2.85 -3.9 -2.55 -3.85 -2.5 -3.85 M1.1 -0.6 Q1.8 -0.35 2.65 -0.1 L1.3 -0.55 1.1 -0.6 M14.75 -5.0 L14.85 -5.3 14.9 -4.8 Q14.9 -4.6 14.9 -4.45 L14.9 -3.55 Q14.85 -3.25 14.85 -3.05 L14.85 -2.75 Q14.8 -1.95 14.55 -0.5 L14.45 -0.05 13.9 0.45 Q14.05 -0.1 14.0 -0.4 L13.75 -0.9 13.75 -0.95 13.6 -1.0 13.45 -1.0 13.45 -0.95 13.3 -0.65 13.2 -0.6 13.05 -0.35 12.95 -0.25 12.65 0.1 12.65 0.15 12.6 0.15 12.1 0.85 Q11.1 2.1 11.1 2.6 L10.55 2.85 10.15 3.05 Q9.65 3.5 9.55 4.05 L9.4 5.35 9.05 6.2 8.45 7.55 8.85 6.3 Q9.25 5.1 9.45 3.9 9.5 3.6 9.55 3.35 L9.65 3.25 9.6 3.25 9.65 2.8 9.65 2.75 9.7 2.8 9.7 2.75 9.75 2.6 9.8 2.65 9.85 2.6 9.85 2.55 10.0 2.3 Q10.1 2.15 10.25 2.05 L10.45 1.85 Q11.35 0.9 12.05 -0.05 L12.45 -0.55 13.05 -1.5 Q13.5 -2.2 13.85 -2.9 L13.95 -3.05 14.3 -3.9 14.35 -3.9 14.35 -3.95 14.6 -4.65 14.75 -5.0 M13.2 0.7 L13.05 0.8 12.9 0.95 12.85 0.95 Q13.0 0.75 13.2 0.7 L13.3 0.85 13.25 1.05 Q12.75 1.5 12.55 1.7 L12.3 1.75 12.4 1.6 Q12.5 1.4 12.65 1.15 L12.8 1.0 13.2 0.7 M4.85 3.15 Q4.8 3.3 4.5 3.4 3.65 3.3 3.25 2.65 3.05 2.3 2.9 1.5 2.85 1.25 3.0 1.3 3.5 1.2 4.15 1.85 4.75 2.45 4.8 2.9 L4.85 3.15" fill="#e8c13c" fill-rule="evenodd" stroke="none"/>
    <path d="M5.55 -11.8 L5.75 -11.8 5.75 -11.75 5.8 -11.7 6.1 -11.25 Q5.95 -11.3 5.8 -11.5 L5.7 -11.5 5.6 -11.75 5.55 -11.8 M9.6 3.25 L9.65 3.25 9.55 3.35 9.55 3.3 9.6 3.25" fill="#600000" fill-rule="evenodd" stroke="none"/>
    <path d="M10.3 0.45 L10.2 0.8 9.95 1.65 9.8 1.95 9.75 1.95 9.7 -2.65 9.65 -2.95 9.65 -3.1 9.55 -3.7 9.5 -4.05 9.35 -4.6 9.3 -4.7 9.25 -4.95 7.6 -9.15 7.55 -9.2 7.4 -9.5 7.2 -9.8 7.1 -10.05 6.95 -10.3 6.85 -10.5 6.0 -11.7 6.0 -11.75 5.95 -11.75 5.95 -11.8 6.15 -11.8 6.3 -11.75 6.35 -11.75 6.3 -11.7 6.3 -11.6 6.55 -11.3 6.5 -11.3 6.65 -11.15 Q6.85 -10.95 7.0 -10.65 L7.2 -10.2 7.25 -10.15 7.3 -10.2 7.3 -10.15 Q7.75 -9.4 8.25 -8.35 9.0 -6.75 9.45 -5.45 9.65 -4.75 9.75 -4.1 L9.8 -3.8 Q9.85 -3.15 9.9 -1.15 9.8 -0.9 9.9 -0.25 L10.1 0.45 10.3 0.45 M9.65 0.15 L9.55 1.85 9.5 1.6 9.45 1.15 9.4 0.95 8.65 -1.65 8.65 -1.7 8.6 -1.8 8.35 -2.5 8.3 -2.65 7.6 -4.15 7.5 -4.25 7.4 -4.4 7.1 -5.0 4.65 -8.3 4.55 -8.4 4.5 -8.5 Q4.45 -8.5 4.4 -8.55 L4.3 -8.65 Q3.75 -9.3 3.1 -9.9 L3.05 -9.9 3.0 -9.95 Q2.95 -9.95 3.0 -9.95 L2.85 -10.05 2.25 -10.6 2.05 -10.75 2.1 -10.8 2.3 -10.6 Q2.5 -10.35 2.7 -10.3 L3.0 -10.1 3.2 -9.95 3.15 -9.95 3.35 -9.8 3.9 -9.25 3.9 -9.2 3.95 -9.2 4.3 -8.8 4.35 -8.8 4.45 -8.65 4.5 -8.75 4.85 -8.35 Q5.85 -7.2 7.0 -5.5 7.65 -4.35 8.55 -2.5 L8.7 -2.1 8.7 -2.05 8.8 -1.75 8.9 -1.55 8.95 -1.3 9.05 -0.95 Q9.2 -0.45 9.5 -0.05 L9.65 0.15 M-1.1 3.0 Q-0.35 3.35 0.8 3.65 L1.75 3.9 Q2.95 4.15 4.2 4.25 L5.55 4.3 5.75 4.3 6.7 4.25 6.75 4.25 6.9 4.2 7.85 3.9 7.9 3.9 8.75 3.6 8.8 3.55 Q9.1 3.15 9.15 2.95 9.2 2.85 9.2 2.45 L9.2 2.3 9.25 2.45 9.5 2.65 9.45 2.75 9.4 3.2 9.4 3.35 9.35 3.35 9.3 3.9 Q9.0 5.15 8.6 6.5 L7.9 8.6 7.5 9.5 7.15 9.6 7.1 9.65 7.05 9.65 6.2 9.8 5.6 9.85 2.85 9.8 2.5 9.7 2.6 9.7 2.9 9.6 Q3.4 9.5 3.85 9.3 L4.25 9.1 Q4.6 8.9 4.9 8.6 5.25 8.35 5.3 8.2 L5.35 8.1 5.2 8.1 5.0 8.15 3.45 8.35 Q2.45 8.35 1.7 8.35 L0.65 8.25 0.45 8.2 0.3 8.2 Q-0.25 8.1 -1.1 7.85 L-1.25 7.7 -1.7 7.2 -2.15 6.65 Q-2.65 5.95 -3.0 5.2 L-3.25 4.7 -3.2 4.7 -2.75 5.1 Q-2.65 5.1 -2.6 5.15 -2.0 5.65 -1.4 5.95 -0.9 6.25 -0.3 6.45 L-0.15 6.5 -0.1 6.5 Q1.15 6.9 2.55 6.8 L2.9 6.75 3.1 6.75 3.15 6.7 3.1 6.7 3.1 6.65 3.05 6.65 Q2.0 6.0 1.1 5.25 L0.4 4.7 0.4 4.65 Q-0.45 3.9 -1.1 3.0 M8.45 7.55 L9.05 6.2 9.4 5.35 9.55 4.05 Q9.65 3.5 10.15 3.05 L10.55 2.85 11.1 2.6 11.1 2.65 Q11.1 2.8 11.2 2.85 11.45 3.05 12.0 2.95 13.05 2.75 13.65 1.25 L13.9 0.45 14.45 -0.05 14.15 0.95 13.9 1.65 13.9 1.7 13.45 2.95 12.8 4.4 12.75 4.4 12.8 4.45 12.85 4.45 Q12.9 4.45 12.9 4.4 L13.0 4.4 13.05 4.35 Q13.35 4.25 14.05 3.65 L14.65 3.05 14.6 3.2 Q14.2 4.0 13.85 4.55 L13.5 5.4 13.45 5.5 13.6 5.35 13.1 6.05 13.0 6.15 12.75 6.45 12.65 6.45 12.35 6.6 11.9 6.7 11.55 6.7 11.25 6.75 11.2 6.75 11.05 6.7 11.0 6.7 10.9 6.8 Q10.95 7.1 11.05 7.3 L11.15 7.45 Q11.3 7.6 11.5 7.65 9.9 8.95 7.7 9.5 L8.15 8.35 8.45 7.55 M13.25 1.05 L13.15 1.25 Q13.0 1.5 12.55 1.7 12.75 1.5 13.25 1.05" fill="#e2a64b" fill-rule="evenodd" stroke="none"/>
    <path d="M9.95 1.65 L9.7 2.1 Q9.75 2.05 9.75 1.95 L9.8 1.95 9.95 1.65 M9.65 -3.1 L9.55 -3.7 9.35 -4.6 9.5 -4.05 9.55 -3.7 9.65 -3.1 M5.95 -11.75 L5.95 -11.8 5.95 -11.75 M9.4 2.15 L9.45 2.25 9.35 2.15 9.4 2.15 M-3.75 2.85 L-3.7 2.9 -3.75 2.9 -3.75 2.85" fill="#80c0f0" fill-rule="evenodd" stroke="none"/>
    <path d="M6.15 -11.2 L6.75 -10.2 Q6.8 -10.1 6.9 -10.0 L6.8 -9.95 6.8 -10.0 6.6 -9.95 6.55 -9.95 6.05 -9.85 Q5.3 -9.75 5.05 -9.95 4.95 -10.05 4.95 -10.25 4.95 -10.4 5.05 -10.55 L5.15 -10.7 Q5.4 -10.95 5.85 -11.15 L5.85 -11.1 6.0 -11.15 6.15 -11.2 M7.3 -10.15 L7.3 -10.2 7.25 -10.15 7.2 -10.2 7.0 -10.65 Q6.85 -10.95 6.65 -11.15 L6.5 -11.3 6.55 -11.3 6.65 -11.25 Q7.55 -11.2 7.55 -10.65 7.6 -10.4 7.35 -10.25 L7.3 -10.15 M2.85 -9.85 L2.9 -9.8 Q3.6 -9.15 4.25 -8.5 L4.3 -8.4 4.35 -8.4 Q4.2 -8.1 4.15 -7.95 3.9 -7.5 3.45 -6.95 L3.4 -6.9 3.2 -6.6 3.15 -6.5 3.0 -6.3 3.05 -6.3 Q2.2 -5.3 1.25 -5.15 L1.05 -5.15 Q0.1 -5.05 -0.45 -5.7 -0.7 -6.0 -0.8 -6.4 -0.8 -6.65 -0.75 -6.9 -0.7 -7.4 -0.3 -7.9 -0.3 -8.15 0.1 -8.4 0.7 -9.0 1.65 -9.5 2.05 -9.7 2.45 -9.8 L2.6 -9.85 2.85 -9.85 M3.2 -9.95 L3.55 -9.95 Q4.15 -9.85 4.4 -9.45 L4.5 -9.05 4.5 -8.75 4.45 -8.65 4.35 -8.8 4.3 -8.8 3.95 -9.2 3.9 -9.2 3.9 -9.25 3.35 -9.8 3.15 -9.95 3.2 -9.95" fill="#fff9f9" fill-rule="evenodd" stroke="none"/>
    <path d="M10.5 -8.05 L10.6 -7.75 10.55 -8.35 10.1 -9.75 9.75 -10.7 9.8 -10.7 Q9.7 -10.95 9.65 -11.15 L9.8 -11.1 10.0 -11.0 10.25 -10.95 11.3 -10.35 11.4 -10.25 11.45 -10.25 11.45 -10.2 11.5 -10.15 11.8 -10.05 Q12.45 -9.65 12.6 -9.3 L13.45 -8.3 13.7 -7.95 14.35 -6.9 14.5 -6.6 Q14.5 -6.35 14.45 -6.0 14.5 -5.95 14.45 -5.95 L14.45 -5.8 14.4 -5.45 14.15 -4.65 13.95 -4.0 13.8 -3.65 13.75 -3.55 Q13.2 -2.5 12.25 -1.15 11.7 -0.4 10.95 0.45 L10.95 0.4 Q10.9 0.4 10.85 0.25 L10.9 -0.9 10.9 -1.6 10.9 -1.75 Q11.05 -3.05 11.0 -4.4 L11.0 -4.7 Q10.9 -6.45 10.5 -8.05 M2.5 -10.15 L2.7 -10.0 2.85 -9.85 2.6 -9.85 2.45 -9.8 Q2.05 -9.7 1.65 -9.5 0.7 -9.0 0.1 -8.4 -0.3 -8.15 -0.3 -7.9 -0.7 -7.4 -0.75 -6.9 -0.8 -6.65 -0.8 -6.4 -0.7 -6.0 -0.45 -5.7 0.1 -5.05 1.05 -5.15 L1.25 -5.15 Q2.2 -5.3 3.05 -6.3 L3.0 -6.3 3.15 -6.5 3.2 -6.6 3.4 -6.9 3.45 -6.95 Q3.9 -7.5 4.15 -7.95 4.2 -8.1 4.35 -8.4 L5.25 -7.4 5.7 -6.75 Q7.35 -4.6 8.3 -2.15 L8.3 -2.05 8.45 -1.65 8.55 -1.35 8.65 -1.1 Q8.95 -0.15 9.2 0.9 8.3 0.9 7.7 0.45 L7.65 0.4 7.6 0.4 7.2 -0.05 7.1 -0.2 6.95 -0.35 6.6 -0.65 6.45 -0.7 5.55 -1.3 5.45 -1.35 5.25 -1.5 3.95 -2.25 Q3.8 -2.3 3.7 -2.35 L3.0 -2.65 Q1.6 -3.25 0.0 -3.85 L-1.8 -4.25 Q-2.65 -4.45 -3.1 -4.75 L-3.1 -4.8 -3.2 -4.9 -3.25 -4.9 -3.2 -5.05 -3.15 -5.05 -3.15 -5.1 -2.8 -5.9 -2.55 -6.4 Q-1.8 -7.75 -0.75 -8.8 L-0.6 -9.0 -0.55 -9.0 -0.5 -9.0 -0.5 -9.05 -0.45 -9.1 0.05 -9.55 0.25 -9.7 0.45 -9.8 1.0 -10.2 1.45 -10.45 1.6 -10.55 1.65 -10.55 1.9 -10.45 Q2.3 -10.3 2.45 -10.15 L2.5 -10.15 M13.45 3.6 Q13.4 3.55 13.45 3.55 13.45 3.5 13.45 3.45 L13.55 3.25 13.55 3.2 14.05 2.0 14.35 1.0 14.5 0.6 Q14.5 0.45 14.55 0.35 L14.7 -0.3 14.7 -0.4 14.9 -1.3 Q15.15 -2.9 15.1 -4.45 L15.05 -5.25 15.2 -4.8 15.35 -4.3 15.4 -4.1 15.4 -3.9 Q15.6 -3.7 15.7 -3.05 L15.7 -2.1 15.75 -1.95 15.7 -1.8 15.75 -1.65 15.55 -1.35 15.15 -0.55 14.75 0.05 14.75 0.2 14.65 0.7 14.55 0.95 14.55 1.0 Q13.9 3.25 13.4 3.7 L13.45 3.6 M13.3 -0.4 L13.35 -0.4 13.65 -0.7 13.7 -0.65 13.85 -0.3 13.75 0.25 13.8 0.25 13.65 0.65 13.5 1.1 Q12.9 2.55 11.45 2.85 L11.3 2.8 Q11.3 2.6 11.35 2.45 11.5 1.85 12.2 0.95 L13.15 -0.3 13.2 -0.35 13.3 -0.4 M-4.05 0.55 L-4.05 0.35 -4.1 0.15 -3.7 -3.25 -3.6 -3.7 -3.6 -3.5 Q-3.6 -2.6 -3.5 -2.05 L-3.4 -1.8 -3.35 -1.7 -3.35 -1.6 -3.25 -1.25 Q-3.05 0.0 -2.8 0.55 L-2.45 1.3 -2.1 1.85 -1.85 2.2 -1.65 2.55 -1.5 2.75 -1.5 2.8 -1.05 3.35 -0.65 3.9 0.1 4.75 0.3 4.85 0.3 4.9 0.75 5.3 Q1.45 5.9 2.35 6.4 L2.8 6.65 2.55 6.65 2.5 6.7 2.45 6.7 2.45 6.65 Q1.9 6.5 1.15 6.0 0.7 5.7 0.35 5.35 L-0.35 4.75 -0.4 4.65 -0.95 3.8 -0.75 3.85 -1.45 3.65 -1.65 3.6 Q-1.95 3.5 -2.2 3.35 -3.2 2.9 -3.95 2.15 L-3.95 2.05 -3.9 2.1 -4.05 1.55 Q-4.05 1.35 -4.05 1.2 L-4.1 0.9 -4.05 0.85 -4.15 0.8 -4.1 0.85 -4.1 0.8 -4.0 0.7 -4.05 0.55 M-0.35 8.5 L-0.4 8.45 Q-0.65 8.3 -0.85 8.1 L-0.15 8.25 -0.05 8.25 0.0 8.3 1.8 8.5 2.1 8.5 Q3.35 8.55 5.0 8.3 L4.9 8.4 3.6 8.65 1.95 8.7 0.3 8.6 0.25 8.6 -0.35 8.5 M13.4 0.75 Q13.4 0.7 13.3 0.65 13.2 0.55 13.0 0.45 12.5 0.8 12.3 1.05 12.0 1.4 12.1 1.75 L12.15 1.95 12.15 1.9 12.9 1.75 Q13.1 1.6 13.25 1.25 L13.4 0.9 13.4 0.75 M6.8 2.95 Q6.85 3.2 6.4 3.5 L5.9 3.9 4.9 4.15 Q3.2 4.45 1.75 2.5 0.8 1.15 0.6 0.3 L0.6 0.1 0.65 0.0 Q1.8 -0.4 4.3 1.0 6.7 2.35 6.8 2.95 M5.1 3.4 L4.95 2.5 4.0 1.55 Q3.25 0.95 2.8 1.05 2.7 1.5 2.85 2.15 3.0 2.55 3.25 2.95 3.85 3.7 4.7 3.55 5.0 3.5 5.1 3.4" fill="#7a3010" fill-rule="evenodd" stroke="none"/>
    <path d="M11.45 -10.25 L11.5 -10.15 11.45 -10.2 11.45 -10.25 M8.95 -11.4 L9.0 -11.4 9.1 -11.35 9.1 -11.25 9.45 -10.5 9.35 -10.65 9.4 -10.6 9.15 -10.95 8.95 -11.4 M-0.6 -9.0 L-0.55 -9.0 -0.6 -9.0 M-0.5 -9.05 L-0.45 -9.1 -0.5 -9.05 M-2.5 -3.85 L-2.55 -3.85 -2.85 -3.9 -2.75 -3.9 -2.5 -3.85 M-3.15 -3.9 L-3.2 -3.95 -3.25 -3.95 -3.15 -3.9 M14.85 -5.3 L14.75 -5.0 14.85 -5.35 14.85 -5.3 M9.85 2.55 L9.85 2.6 9.8 2.65 9.75 2.6 9.85 2.55 M-4.1 0.8 L-4.05 0.55 -4.0 0.7 -4.1 0.8" fill="#0070e0" fill-rule="evenodd" stroke="none"/>
    <path d="M10.5 -8.05 Q10.2 -9.1 9.8 -10.15 9.6 -10.7 9.3 -11.25 L9.4 -11.25 9.65 -11.15 Q9.7 -10.95 9.8 -10.7 L9.75 -10.7 10.1 -9.75 10.55 -8.35 10.6 -7.75 10.5 -8.05 M14.5 -6.6 L14.75 -6.1 14.85 -5.85 14.8 -5.8 14.8 -5.75 14.65 -5.35 14.55 -5.0 14.1 -3.85 13.8 -3.2 13.75 -3.1 Q13.3 -2.15 12.75 -1.25 L12.7 -1.25 12.7 -1.2 12.65 -1.15 12.2 -0.55 Q11.45 0.5 10.4 1.7 L9.9 2.15 9.9 2.2 9.85 2.2 Q9.9 2.2 9.9 2.15 L9.85 2.15 Q9.9 2.15 9.9 2.1 L9.95 2.05 10.9 -1.6 10.9 -0.9 10.85 0.25 Q10.9 0.4 10.95 0.4 L10.95 0.45 Q11.7 -0.4 12.25 -1.15 13.2 -2.5 13.75 -3.55 L13.8 -3.65 13.95 -4.0 14.15 -4.65 14.4 -5.45 14.45 -5.8 14.45 -5.95 Q14.5 -5.95 14.45 -6.0 14.5 -6.35 14.5 -6.6 M1.85 -10.65 L1.85 -10.7 1.9 -10.7 2.05 -10.5 2.5 -10.15 2.45 -10.15 Q2.3 -10.3 1.9 -10.45 L1.65 -10.55 1.6 -10.55 Q1.65 -10.55 1.7 -10.6 L1.85 -10.65 M9.2 0.9 L9.4 2.15 9.35 2.15 9.3 2.15 9.15 1.95 9.0 1.8 Q8.35 1.1 7.65 0.45 L7.6 0.45 7.15 0.05 6.9 -0.15 6.65 -0.4 Q6.6 -0.45 6.55 -0.45 L6.5 -0.5 6.15 -0.75 5.7 -1.1 5.55 -1.15 5.45 -1.25 5.4 -1.25 5.35 -1.3 5.3 -1.3 Q4.7 -1.7 4.0 -2.0 L3.85 -2.1 3.6 -2.2 3.15 -2.4 Q2.4 -2.75 1.55 -3.05 L0.55 -3.35 -0.25 -3.55 Q-0.95 -3.7 -1.65 -3.85 L-1.75 -3.85 -1.8 -3.9 -2.9 -4.0 -3.4 -4.1 -3.45 -4.1 -3.45 -4.3 -3.4 -4.5 Q-3.35 -4.75 -3.25 -4.9 L-3.2 -4.9 -3.1 -4.8 -3.1 -4.75 Q-2.65 -4.45 -1.8 -4.25 L0.0 -3.85 Q1.6 -3.25 3.0 -2.65 L3.7 -2.35 Q3.8 -2.3 3.95 -2.25 L5.25 -1.5 5.45 -1.35 5.55 -1.3 6.45 -0.7 6.6 -0.65 6.95 -0.35 7.1 -0.2 7.2 -0.05 7.6 0.4 7.65 0.4 7.7 0.45 Q8.3 0.9 9.2 0.9 M15.75 -1.65 Q15.8 -1.0 15.7 -0.25 L15.6 0.4 15.55 0.5 15.45 1.1 15.4 1.1 Q15.35 1.1 15.35 1.15 L14.85 2.3 Q14.45 3.0 14.0 3.5 13.7 3.8 13.35 4.0 L13.1 4.2 13.45 3.6 13.4 3.7 Q13.9 3.25 14.55 1.0 L14.55 0.95 14.65 0.7 14.75 0.2 14.75 0.05 15.15 -0.55 15.55 -1.35 15.75 -1.65 M2.45 6.65 Q0.7 6.6 -0.5 6.2 L-0.95 6.0 Q-1.55 5.7 -2.1 5.3 -2.7 4.9 -3.25 4.4 L-3.35 4.4 Q-3.7 3.5 -3.9 2.55 L-3.85 2.55 -3.95 2.15 Q-3.2 2.9 -2.2 3.35 -1.95 3.5 -1.65 3.6 L-1.45 3.65 -0.75 3.85 -0.95 3.8 -0.4 4.65 -0.35 4.75 0.35 5.35 Q0.7 5.7 1.15 6.0 1.9 6.5 2.45 6.65 M-3.75 2.85 L-3.75 2.9 -3.7 2.9 -3.75 2.85 M4.9 8.4 L4.5 8.7 Q4.15 8.95 3.65 9.15 L2.8 9.5 1.85 9.5 1.8 9.55 Q0.65 9.15 -0.35 8.5 L0.25 8.6 0.3 8.6 1.95 8.7 3.6 8.65 4.9 8.4 M12.45 6.8 L12.35 6.85 11.75 7.5 11.65 7.45 Q11.35 7.45 11.2 7.2 L11.2 7.1 11.15 6.95 11.1 6.85 11.2 6.9 11.45 6.9 Q11.8 6.9 12.2 6.75 L12.5 6.65 12.6 6.6 12.5 6.7 12.45 6.8" fill="#421a09" fill-rule="evenodd" stroke="none"/>
    <path d="M3.85 -14.75 L3.9 -14.6 Q2.9 -14.45 1.9 -14.1 L1.05 -13.8 1.0 -13.85 Q2.4 -14.4 3.85 -14.75" fill="#7c6d34" fill-rule="evenodd" stroke="none"/>
    <path d="M1.05 -13.8 Q-0.1 -13.4 -1.1 -12.8 -1.7 -12.45 -2.25 -12.05 L-2.3 -12.0 -2.0 -12.35 -1.75 -12.6 Q-0.4 -13.35 1.0 -13.85 L1.05 -13.8" fill="#a69f4a" fill-rule="evenodd" stroke="none"/>
    <path d="M-1.3 -11.7 Q-0.15 -12.45 1.2 -12.95 -1.15 -11.4 -2.75 -9.8 L-3.1 -9.4 -3.55 -8.85 Q-4.4 -7.85 -4.95 -6.8 -5.55 -5.7 -5.8 -4.55 L-6.0 -3.75 -6.1 -3.95 -6.15 -4.2 Q-6.25 -5.85 -5.0 -7.85 L-4.4 -8.75 -3.75 -9.5 -3.3 -10.05 -2.75 -10.55 Q-2.25 -11.0 -1.75 -11.4 L-1.3 -11.7" fill="#eff0ec" fill-rule="evenodd" stroke="none"/>
    <path d="M2.15 -10.8 Q2.85 -11.15 3.7 -11.4 L2.75 -11.05 Q2.4 -10.95 2.15 -10.8 M0.45 -9.8 L1.45 -10.45 1.0 -10.2 0.45 -9.8 M1.6 -10.55 L1.85 -10.65 1.7 -10.6 Q1.65 -10.55 1.6 -10.55 M-3.9 2.55 L-3.95 2.15 -3.85 2.55 -3.9 2.55" fill="#99a6ac" fill-rule="evenodd" stroke="none"/>
    <path d="M5.4 -11.8 L5.55 -11.8 5.4 -11.8 M-3.2 -5.05 L-3.15 -5.1 -3.15 -5.05 -3.2 -5.05 M-3.0 6.85 Q-2.95 6.9 -2.9 6.95 L-2.95 6.85 Q-3.0 6.85 -3.0 6.75 L-3.0 6.85" fill="#6d7b85" fill-rule="evenodd" stroke="none"/>
    <path d="M7.85 3.9 L7.75 3.65 7.9 3.9 7.85 3.9 M1.1 -0.6 L1.3 -0.55 2.65 -0.1 Q1.8 -0.35 1.1 -0.6 M12.85 0.95 L12.9 0.95 13.05 0.8 13.2 0.7 12.8 1.0 12.85 0.95" fill="#bd0f06" fill-rule="evenodd" stroke="none"/>
    <path d="M-6.95 1.1 L-6.45 1.45 Q-6.4 1.45 -6.35 1.45 L-5.1 1.85 -5.05 1.85 -5.05 2.15 Q-4.95 3.2 -4.25 4.75 L-4.15 5.1 Q-3.8 5.8 -3.3 6.65 L-3.3 6.7 Q-3.1 7.0 -2.8 7.3 L-2.55 7.6 -2.5 7.6 -2.45 7.7 -1.95 8.1 -1.65 8.35 -0.3 9.25 Q0.6 9.75 1.55 10.1 L1.75 10.15 Q3.7 10.8 5.85 10.6 L6.2 10.55 Q10.5 10.0 13.1 7.1 14.05 6.0 14.85 4.5 L15.3 3.5 15.6 2.9 Q16.1 1.45 16.3 0.1 L16.45 -0.9 16.45 -1.05 Q16.7 -1.35 16.75 -1.5 L16.85 -1.65 16.85 -0.2 Q16.7 1.25 16.2 2.8 15.8 4.0 15.2 5.15 12.25 11.2 5.4 12.1 -0.75 12.9 -4.05 9.1 L-4.6 8.4 Q-5.6 6.95 -6.15 5.35 L-6.25 5.1 -6.35 4.8 Q-6.7 3.5 -6.85 2.1 L-6.85 1.85 Q-6.85 1.75 -6.85 1.6 L-6.95 1.1" fill="#8f9188" fill-rule="evenodd" stroke="none"/>
    <path d="M-3.85 -10.65 L-3.85 -10.45 Q-3.85 -10.35 -4.0 -10.25 L-4.1 -10.45 -3.85 -10.65" fill="#000000" fill-rule="evenodd" stroke="none"/>
  </g>
</svg>
