<?xml version="1.0" encoding="UTF-8" standalone="no"?>
<svg xmlns:ffdec="https://www.free-decompiler.com/flash" xmlns:xlink="http://www.w3.org/1999/xlink" ffdec:objectType="shape" height="26.0px" width="20.4px" xmlns="http://www.w3.org/2000/svg">
  <g transform="matrix(1.0, 0.0, 0.0, 1.0, 9.05, 21.95)">
    <path d="M1.05 1.2 L1.0 1.3 1.05 1.15 1.05 1.2 M1.9 0.05 L2.2 -0.2 2.15 -0.15 1.9 0.05" fill="#ffffff" fill-rule="evenodd" stroke="none"/>
    <path d="M0.95 -17.1 L0.8 -17.0 0.2 -16.25 Q1.1 -16.95 2.1 -17.55 2.2 -17.5 2.25 -17.5 L2.25 -17.15 Q2.25 -17.05 2.2 -16.85 L2.25 -16.8 2.25 -16.45 Q2.25 -15.95 1.75 -14.9 1.2 -13.85 0.45 -12.75 -1.55 -10.0 -3.1 -9.7 L-3.2 -9.7 Q-3.7 -9.5 -4.2 -9.5 -4.6 -9.5 -4.85 -9.65 -5.2 -10.4 -5.45 -11.25 -5.8 -12.35 -6.1 -13.8 L-4.95 -13.85 -3.4 -14.0 Q-1.95 -14.65 0.8 -17.05 L0.95 -17.1 M3.5 -13.7 L3.45 -13.55 3.4 -13.5 3.5 -13.7 M3.35 -13.2 Q3.35 -13.15 3.4 -13.1 L3.4 -12.9 3.45 -12.75 3.3 -13.1 3.35 -13.2 M3.4 -9.4 L3.4 -9.3 3.4 -9.4 M9.05 -7.55 L9.0 -7.55 8.4 -7.75 Q8.2 -7.9 7.85 -8.0 L7.4 -8.15 Q7.0 -8.4 6.65 -8.65 5.95 -9.0 5.45 -9.45 5.0 -9.8 4.75 -10.15 L4.5 -10.5 Q4.25 -11.2 3.85 -12.75 L3.85 -13.05 Q3.95 -13.55 4.35 -14.8 L4.35 -14.85 4.45 -15.25 5.0 -16.0 5.05 -16.1 5.1 -16.15 Q5.65 -16.7 6.25 -16.7 L6.45 -16.55 Q8.35 -15.7 9.5 -14.35 10.6 -13.1 10.6 -12.0 10.6 -11.15 9.7 -9.25 9.25 -8.25 9.05 -7.55 M-5.25 -9.95 L-5.3 -10.05 -5.55 -10.45 -5.65 -10.5 -5.95 -10.6 Q-6.1 -10.65 -6.15 -10.7 L-6.15 -10.65 -6.3 -10.85 -6.4 -11.1 -6.45 -11.1 -6.55 -11.35 -6.55 -11.5 -6.6 -11.7 Q-6.75 -12.05 -6.95 -12.5 L-7.2 -13.2 Q-7.45 -13.6 -7.45 -13.65 -7.4 -13.85 -7.35 -13.95 -7.25 -13.9 -7.0 -13.85 L-6.7 -13.8 -6.3 -13.8 Q-6.1 -12.25 -5.7 -11.1 -5.5 -10.5 -5.25 -9.95" fill="#993333" fill-rule="evenodd" stroke="none"/>
    <path d="M5.65 -0.8 L5.6 -0.9 5.65 -0.9 5.8 -0.95 5.8 -0.85 5.65 -0.8 M1.15 0.45 L0.6 1.15 1.15 0.45 M-1.05 -10.0 L-0.75 -10.2 -0.7 -10.25 -0.75 -10.2 -0.9 -10.05 -1.05 -10.0" fill="#4a5e5f" fill-rule="evenodd" stroke="none"/>
    <path d="M3.45 -1.0 L3.6 -1.0 Q4.0 -1.15 4.15 -0.8 L4.25 -0.75 Q4.3 -0.6 4.3 -0.5 4.3 -0.3 3.25 0.7 2.25 1.7 1.65 1.8 L1.45 1.9 Q1.1 1.9 1.05 1.55 L1.05 1.2 1.05 1.15 1.05 1.1 Q1.05 0.75 1.9 0.05 L2.15 -0.15 2.2 -0.2 Q2.5 -0.5 2.85 -0.75 L3.0 -0.85 Q3.25 -1.0 3.45 -1.0" fill="#4f4116" fill-rule="evenodd" stroke="none"/>
    <path d="M3.75 -20.55 Q3.5 -20.2 2.75 -19.45 L1.65 -18.4 1.0 -17.85 Q-1.2 -15.75 -2.15 -15.3 L-2.55 -15.05 Q-2.9 -14.85 -3.2 -14.75 L-3.45 -14.6 Q-3.95 -14.4 -4.6 -14.4 -5.65 -14.05 -6.4 -14.15 -6.85 -14.2 -7.0 -14.35 -7.05 -14.4 -7.05 -14.6 -7.0 -14.9 -6.3 -16.0 L-6.2 -16.1 Q-5.1 -17.2 -3.5 -18.3 -1.6 -19.65 0.25 -20.5 L0.95 -20.8 Q1.7 -21.05 2.2 -21.1 L2.75 -21.3 Q3.9 -21.55 3.85 -20.85 L3.85 -20.75 Q3.8 -20.55 3.75 -20.55 M0.95 -17.1 L1.5 -17.65 Q2.55 -18.55 3.45 -19.45 L4.35 -20.35 4.85 -19.1 5.0 -18.75 5.35 -17.95 5.4 -17.25 5.45 -17.15 5.4 -17.0 Q5.4 -16.7 5.05 -16.1 L5.0 -16.0 4.45 -15.25 4.35 -14.85 4.35 -14.8 Q3.95 -13.55 3.85 -13.05 L3.85 -12.75 Q4.25 -11.2 4.5 -10.5 L4.75 -10.15 Q5.0 -9.8 5.45 -9.45 5.95 -9.0 6.65 -8.65 7.0 -8.4 7.4 -8.15 L7.85 -8.0 Q8.2 -7.9 8.4 -7.75 L9.0 -7.55 9.05 -7.55 Q8.85 -6.85 8.85 -6.45 8.85 -5.65 9.15 -4.55 L9.3 -4.0 9.3 -3.9 Q9.45 -3.45 9.6 -3.1 L9.6 -3.05 6.55 -0.6 6.25 -0.45 6.1 -0.45 6.05 -0.5 Q6.15 -1.05 6.1 -1.45 6.05 -1.7 5.95 -1.95 5.6 -2.2 5.4 -2.95 5.2 -3.5 5.15 -4.1 5.15 -4.45 4.9 -5.15 L4.75 -5.5 4.55 -5.8 Q4.1 -6.75 3.85 -7.5 L3.8 -7.75 3.75 -7.8 3.65 -8.1 3.65 -8.15 3.4 -9.15 3.4 -9.3 3.4 -9.4 3.35 -9.55 3.4 -9.7 3.45 -10.25 3.5 -10.4 3.5 -10.55 3.6 -11.1 3.6 -11.8 3.45 -12.55 3.45 -12.75 3.4 -12.9 3.4 -13.1 Q3.35 -13.15 3.35 -13.2 L3.3 -13.2 Q3.3 -13.3 3.3 -13.4 L3.4 -13.5 3.45 -13.55 3.5 -13.7 3.75 -14.25 4.1 -14.95 4.1 -15.0 4.25 -15.3 Q4.3 -15.45 4.4 -15.6 3.95 -15.05 3.75 -14.65 3.5 -14.15 3.05 -13.65 L2.95 -13.5 Q2.85 -13.3 2.45 -12.9 L1.85 -12.35 1.6 -12.15 1.5 -12.0 Q1.2 -11.7 0.5 -11.25 L-0.25 -10.8 -0.3 -10.8 -1.2 -10.35 Q-1.45 -10.2 -1.65 -10.1 L-2.3 -9.8 -2.4 -9.75 -2.45 -9.7 -2.65 -9.6 -3.0 -9.5 -3.6 -9.3 -3.7 -9.25 -4.15 -9.1 -4.45 -9.15 -4.65 -9.2 -4.85 -9.65 Q-4.6 -9.5 -4.2 -9.5 -3.7 -9.5 -3.2 -9.7 L-3.1 -9.7 Q-1.55 -10.0 0.45 -12.75 1.2 -13.85 1.75 -14.9 2.25 -15.95 2.25 -16.45 L2.25 -16.8 2.2 -16.85 Q2.25 -17.05 2.25 -17.15 L2.25 -17.5 Q2.2 -17.5 2.1 -17.55 1.1 -16.95 0.2 -16.25 L0.8 -17.0 0.95 -17.1 M7.45 -1.55 L7.35 -1.45 7.3 -1.45 7.45 -1.55 M-6.15 -10.65 L-6.15 -10.7 Q-6.1 -10.65 -5.95 -10.6 L-5.65 -10.5 -5.55 -10.45 -5.3 -10.05 -5.25 -9.95 -4.9 -9.25 Q-5.05 -9.35 -5.2 -9.45 -5.4 -9.55 -5.6 -9.75 L-6.0 -10.35 -6.1 -10.6 -6.15 -10.65" fill="#6a1730" fill-rule="evenodd" stroke="none"/>
    <path d="M-6.5 -0.2 L-6.5 -0.25 -6.5 -0.2 M3.2 -2.65 L3.05 -2.65 3.05 -2.7 3.2 -2.65 M-2.65 0.05 L-2.65 0.05 M-5.8 0.35 L-5.7 0.4 -5.8 0.3 -5.95 0.25 -5.8 0.35" fill="#8994a0" fill-rule="evenodd" stroke="none"/>
    <path d="M1.0 1.3 Q0.85 1.65 0.85 2.0 L0.55 2.85 0.15 3.0 Q-0.35 3.05 -1.1 3.35 -1.65 3.55 -2.15 3.85 L-3.4 4.05 -3.6 3.9 Q-5.2 2.8 -5.35 2.7 L-6.45 1.5 -6.95 1.05 -6.9 0.9 Q-7.35 0.3 -7.55 -0.5 L-7.8 -1.55 -8.25 -2.25 -8.35 -2.25 -8.5 -2.65 -8.7 -3.15 -8.65 -3.2 Q-8.95 -4.1 -9.05 -4.5 L-9.05 -8.1 -9.0 -8.35 -8.95 -8.35 Q-8.8 -8.9 -8.3 -9.8 -7.65 -11.1 -7.1 -11.5 L-7.55 -12.35 Q-8.25 -13.55 -8.25 -13.75 -8.25 -14.45 -6.85 -16.0 L-6.8 -16.1 -6.45 -16.7 -6.3 -16.9 -6.1 -17.15 -5.95 -17.3 -5.9 -17.3 -5.65 -17.55 -5.25 -17.9 -5.25 -17.85 Q-4.3 -18.65 -2.9 -19.5 L-2.0 -20.0 Q-0.4 -21.0 1.0 -21.5 2.85 -22.2 4.05 -21.85 L4.05 -21.9 4.25 -21.9 4.3 -21.75 4.55 -21.65 4.45 -21.55 4.6 -21.1 4.6 -21.05 5.4 -19.4 Q5.5 -19.15 5.55 -18.7 L5.65 -18.15 Q5.85 -17.8 6.1 -17.55 L6.5 -17.15 6.6 -17.15 Q7.15 -16.8 8.35 -16.45 8.65 -16.4 9.65 -15.8 L9.9 -15.4 10.0 -15.25 10.25 -15.0 Q10.8 -14.45 10.95 -13.35 11.3 -12.55 11.3 -12.15 L11.3 -12.05 11.35 -11.95 Q11.35 -11.2 10.5 -9.05 9.9 -7.5 9.55 -6.85 L9.45 -6.15 9.5 -5.5 Q9.55 -5.15 9.7 -4.7 9.95 -3.85 9.95 -3.35 L10.0 -3.35 Q10.05 -3.35 10.05 -3.15 10.05 -3.05 9.95 -2.9 L10.0 -2.8 10.0 -2.75 9.65 -2.5 Q9.25 -2.1 8.45 -1.4 7.1 -0.25 6.2 0.15 L6.15 0.15 5.85 0.3 5.8 0.35 Q5.75 0.35 5.75 0.15 L6.0 -0.15 5.65 -0.8 5.8 -0.85 5.8 -0.95 Q5.8 -1.1 5.8 -1.25 L5.85 -1.4 Q5.8 -1.75 5.65 -2.0 L5.5 -2.2 Q5.3 -2.65 5.0 -3.25 L5.0 -3.35 4.7 -3.85 4.7 -3.9 Q4.75 -4.5 4.45 -5.25 L3.95 -6.3 3.75 -6.7 Q3.0 -8.1 2.85 -9.2 L2.85 -10.1 Q2.85 -10.4 2.85 -10.75 L3.1 -12.05 3.0 -12.55 Q2.9 -12.85 2.85 -13.05 L2.85 -13.0 Q2.7 -12.9 2.65 -12.8 L2.3 -12.5 2.1 -12.3 1.4 -11.7 0.2 -10.85 0.15 -10.8 -0.2 -10.6 -0.3 -10.5 -0.4 -10.45 -0.6 -10.3 -0.7 -10.25 -0.75 -10.2 -1.05 -10.0 Q-1.75 -9.7 -2.65 -9.1 -3.25 -8.85 -4.3 -8.6 L-4.35 -8.65 -4.25 -8.45 -4.3 -8.35 -4.5 -8.7 -4.6 -8.7 -4.85 -8.8 Q-5.8 -9.25 -6.5 -10.8 L-6.75 -11.05 -7.45 -9.65 Q-8.1 -8.45 -8.5 -7.8 L-8.55 -7.3 Q-8.45 -6.6 -8.35 -5.65 L-8.1 -3.25 -8.05 -3.05 -7.85 -2.75 -7.7 -2.6 Q-7.2 -2.1 -6.8 -1.8 -5.95 -1.25 -4.85 -0.9 -3.9 -0.6 -2.75 -0.45 -2.8 -0.3 -3.0 -0.25 L-3.15 -0.25 Q-5.55 -0.5 -6.9 -1.5 L-6.95 -1.55 Q-6.85 -1.3 -6.75 -1.0 L-6.55 -0.7 -6.6 -0.6 -6.45 -0.4 -6.45 -0.3 -6.5 -0.25 -6.5 -0.2 -6.55 -0.2 -6.55 -0.1 -6.6 -0.1 Q-6.55 0.25 -6.55 0.6 L-6.55 0.8 Q-6.2 1.2 -5.7 1.6 -4.95 2.2 -4.3 2.4 L-4.1 2.5 Q-3.9 2.55 -3.7 2.65 -3.3 2.75 -2.8 2.8 -1.7 2.9 -1.05 2.65 L-1.05 2.6 Q-0.75 2.6 -0.3 2.15 -0.2 2.15 0.25 1.5 L0.6 1.15 1.15 0.45 2.55 -0.7 3.0 -0.85 2.85 -0.75 Q2.5 -0.5 2.2 -0.2 L1.9 0.05 Q1.05 0.75 1.05 1.1 L1.05 1.15 1.0 1.3 M3.75 -20.55 Q3.8 -20.55 3.85 -20.75 L3.85 -20.85 Q3.9 -21.55 2.75 -21.3 L2.2 -21.1 Q1.7 -21.05 0.95 -20.8 L0.25 -20.5 Q-1.6 -19.65 -3.5 -18.3 -5.1 -17.2 -6.2 -16.1 L-6.3 -16.0 Q-7.0 -14.9 -7.05 -14.6 -7.05 -14.4 -7.0 -14.35 -6.85 -14.2 -6.4 -14.15 -5.65 -14.05 -4.6 -14.4 -3.95 -14.4 -3.45 -14.6 L-3.2 -14.75 Q-2.9 -14.85 -2.55 -15.05 L-2.15 -15.3 Q-1.2 -15.75 1.0 -17.85 L1.65 -18.4 2.75 -19.45 Q3.5 -20.2 3.75 -20.55 M5.05 -16.1 Q5.4 -16.7 5.4 -17.0 L5.45 -17.15 5.4 -17.25 5.35 -17.95 5.0 -18.75 4.85 -19.1 4.35 -20.35 3.45 -19.45 Q2.55 -18.55 1.5 -17.65 L0.95 -17.1 0.8 -17.05 Q-1.95 -14.65 -3.4 -14.0 L-4.95 -13.85 -6.1 -13.8 Q-5.8 -12.35 -5.45 -11.25 -5.2 -10.4 -4.85 -9.65 L-4.65 -9.2 -4.45 -9.15 -4.15 -9.1 -3.7 -9.25 -3.6 -9.3 -3.0 -9.5 -2.65 -9.6 -2.45 -9.7 -2.4 -9.75 -2.3 -9.8 -1.65 -10.1 Q-1.45 -10.2 -1.2 -10.35 L-0.3 -10.8 -0.25 -10.8 0.5 -11.25 Q1.2 -11.7 1.5 -12.0 L1.6 -12.15 1.85 -12.35 2.45 -12.9 Q2.85 -13.3 2.95 -13.5 L3.05 -13.65 Q3.5 -14.15 3.75 -14.65 3.95 -15.05 4.4 -15.6 4.3 -15.45 4.25 -15.3 L4.1 -15.0 4.1 -14.95 3.75 -14.25 3.5 -13.7 3.4 -13.5 3.3 -13.4 Q3.3 -13.3 3.3 -13.2 L3.35 -13.2 3.3 -13.1 3.45 -12.75 3.45 -12.55 3.6 -11.8 3.6 -11.1 3.5 -10.55 3.5 -10.4 3.45 -10.25 3.4 -9.7 3.35 -9.55 3.4 -9.4 3.4 -9.3 3.4 -9.15 3.65 -8.15 3.65 -8.1 3.75 -7.8 3.8 -7.75 3.85 -7.5 Q4.1 -6.75 4.55 -5.8 L4.75 -5.5 4.9 -5.15 Q5.15 -4.45 5.15 -4.1 5.2 -3.5 5.4 -2.95 5.6 -2.2 5.95 -1.95 6.05 -1.7 6.1 -1.45 6.15 -1.05 6.05 -0.5 L6.1 -0.45 6.25 -0.45 6.55 -0.6 9.6 -3.05 9.6 -3.1 Q9.45 -3.45 9.3 -3.9 L9.3 -4.0 9.15 -4.55 Q8.85 -5.65 8.85 -6.45 8.85 -6.85 9.05 -7.55 9.25 -8.25 9.7 -9.25 10.6 -11.15 10.6 -12.0 10.6 -13.1 9.5 -14.35 8.35 -15.7 6.45 -16.55 L6.25 -16.7 Q5.65 -16.7 5.1 -16.15 L5.05 -16.1 M-6.9 -9.2 L-6.85 -9.2 -6.9 -9.2 M7.45 -1.55 L7.3 -1.45 7.35 -1.45 7.45 -1.55 M-6.15 -10.65 L-6.1 -10.6 -6.0 -10.35 -5.6 -9.75 Q-5.4 -9.55 -5.2 -9.45 -5.05 -9.35 -4.9 -9.25 L-5.25 -9.95 Q-5.5 -10.5 -5.7 -11.1 -6.1 -12.25 -6.3 -13.8 L-6.7 -13.8 -7.0 -13.85 Q-7.25 -13.9 -7.35 -13.95 -7.4 -13.85 -7.45 -13.65 -7.45 -13.6 -7.2 -13.2 L-6.95 -12.5 Q-6.75 -12.05 -6.6 -11.7 L-6.55 -11.5 -6.55 -11.35 -6.45 -11.1 -6.4 -11.1 -6.3 -10.85 -6.15 -10.65" fill="#101010" fill-rule="evenodd" stroke="none"/>
    <path d="M-3.7 2.65 Q-3.9 2.55 -4.1 2.5 L-4.3 2.4 Q-4.95 2.2 -5.7 1.6 -6.2 1.2 -6.55 0.8 L-6.55 0.6 Q-6.55 0.25 -6.6 -0.1 L-6.55 -0.1 -6.55 -0.2 -6.5 -0.2 -6.5 -0.25 -6.45 -0.3 -5.8 -0.1 -5.35 0.0 Q-5.95 -0.4 -5.95 -0.6 L-5.95 -0.7 -5.9 -0.75 -5.15 -0.4 Q-4.5 -0.1 -4.3 -0.1 L-2.75 -0.15 -2.85 -0.2 -3.05 -0.2 -3.15 -0.25 -3.0 -0.25 Q-2.8 -0.3 -2.75 -0.45 -3.9 -0.6 -4.85 -0.9 -5.45 -1.2 -6.05 -1.6 -6.55 -1.95 -6.95 -2.3 -7.15 -2.35 -7.25 -2.5 L-7.5 -2.75 Q-7.9 -3.0 -8.05 -3.25 L-8.1 -3.25 -8.35 -5.65 Q-8.45 -6.6 -8.55 -7.3 L-8.5 -7.8 Q-8.1 -8.45 -7.45 -9.65 L-6.75 -11.05 -6.5 -10.8 Q-5.8 -9.25 -4.85 -8.8 L-5.7 -9.0 -6.85 -9.2 -6.9 -9.2 -3.55 -6.65 Q-2.65 -7.0 -1.3 -7.85 L0.1 -8.85 1.05 -10.15 Q2.5 -12.15 2.85 -12.5 2.45 -11.1 2.25 -10.45 2.0 -9.75 1.7 -9.15 L1.65 -9.15 Q1.6 -8.85 1.5 -8.6 L1.65 -7.95 1.7 -7.85 1.95 -6.9 1.95 -6.75 2.1 -6.25 2.15 -6.15 2.15 -6.05 Q2.4 -5.15 2.7 -4.4 2.9 -3.9 3.15 -3.4 L3.5 -3.1 3.5 -3.05 Q3.5 -3.0 3.4 -3.0 L3.4 -2.95 3.25 -2.95 3.1 -2.85 3.25 -2.75 3.5 -2.55 Q3.25 -2.25 3.15 -2.3 L2.55 -2.05 Q1.6 -1.75 1.25 -1.35 L-0.1 0.0 Q-1.9 1.8 -3.65 2.55 L-3.7 2.55 -3.7 2.65 M3.2 -2.65 L3.05 -2.7 3.05 -2.65 3.2 -2.65 M-2.65 0.05 L-2.65 0.05 M-5.8 0.35 L-5.95 0.25 -5.8 0.3 -5.7 0.4 -5.8 0.35" fill="#b8beab" fill-rule="evenodd" stroke="none"/>
    <path d="M5.6 -0.9 Q4.95 -2.05 4.8 -2.05 4.5 -2.1 3.95 -1.65 3.5 -1.3 3.45 -1.0 3.25 -1.0 3.0 -0.85 L2.55 -0.7 1.15 0.45 0.6 1.15 0.25 1.5 Q-0.2 2.15 -0.3 2.15 -0.75 2.6 -1.05 2.6 L-1.05 2.65 Q-1.7 2.9 -2.8 2.8 -3.3 2.75 -3.7 2.65 L-3.7 2.55 -3.65 2.55 Q-1.9 1.8 -0.1 0.0 L1.25 -1.35 Q1.6 -1.75 2.55 -2.05 L3.15 -2.3 Q3.25 -2.25 3.5 -2.55 L3.25 -2.75 3.1 -2.85 3.25 -2.95 3.4 -2.95 3.4 -3.0 Q3.5 -3.0 3.5 -3.05 L3.5 -3.1 3.15 -3.4 Q2.9 -3.9 2.7 -4.4 2.4 -5.15 2.15 -6.05 L2.15 -6.15 2.1 -6.25 1.95 -6.75 1.95 -6.9 1.7 -7.85 1.65 -7.95 1.5 -8.6 Q1.6 -8.85 1.65 -9.15 L1.7 -9.15 Q2.0 -9.75 2.25 -10.45 2.45 -11.1 2.85 -12.5 2.5 -12.15 1.05 -10.15 L0.1 -8.85 -1.3 -7.85 Q-2.65 -7.0 -3.55 -6.65 L-6.9 -9.2 -6.85 -9.2 -5.7 -9.0 -4.85 -8.8 -4.6 -8.7 -4.5 -8.7 -4.3 -8.35 -4.25 -8.45 -4.35 -8.65 -4.3 -8.6 Q-3.25 -8.85 -2.65 -9.1 -1.75 -9.7 -1.05 -10.0 L-0.9 -10.05 -0.75 -10.2 -0.7 -10.25 -0.6 -10.3 -0.4 -10.45 -0.3 -10.5 -0.2 -10.6 0.15 -10.8 0.2 -10.85 1.4 -11.7 2.1 -12.3 2.3 -12.5 2.65 -12.8 Q2.7 -12.9 2.85 -13.0 L2.85 -13.05 Q2.9 -12.85 3.0 -12.55 L3.1 -12.05 2.85 -10.75 Q2.85 -10.4 2.85 -10.1 L2.85 -9.2 Q3.0 -8.1 3.75 -6.7 L3.95 -6.3 4.45 -5.25 Q4.75 -4.5 4.7 -3.9 L4.7 -3.85 5.0 -3.35 5.0 -3.25 Q5.3 -2.65 5.5 -2.2 L5.65 -2.0 Q5.8 -1.75 5.85 -1.4 L5.8 -1.25 Q5.8 -1.1 5.8 -0.95 L5.65 -0.9 5.6 -0.9 M-6.45 -0.3 L-6.45 -0.4 -6.6 -0.6 -6.55 -0.7 -6.75 -1.0 Q-6.85 -1.3 -6.95 -1.55 L-6.9 -1.5 Q-5.55 -0.5 -3.15 -0.25 L-3.05 -0.2 -2.85 -0.2 -2.75 -0.15 -4.3 -0.1 Q-4.5 -0.1 -5.15 -0.4 L-5.9 -0.75 -5.95 -0.7 -5.95 -0.6 Q-5.95 -0.4 -5.35 0.0 L-5.8 -0.1 -6.45 -0.3 M-4.85 -0.9 Q-5.95 -1.25 -6.8 -1.8 -7.2 -2.1 -7.7 -2.6 L-7.85 -2.75 -8.05 -3.05 -8.1 -3.25 -8.05 -3.25 Q-7.9 -3.0 -7.5 -2.75 L-7.25 -2.5 Q-7.15 -2.35 -6.95 -2.3 -6.55 -1.95 -6.05 -1.6 -5.45 -1.2 -4.85 -0.9" fill="#999782" fill-rule="evenodd" stroke="none"/>
    <path d="M2.4 -0.95 Q-0.5 -3.5 -3.15 -6.1 -3.75 -6.65 -4.3 -7.45 L-5.3 -8.85 Q-5.55 -9.25 -6.35 -10.55 -6.65 -11.05 -6.9 -11.25 L-6.9 -10.7 Q-6.95 -9.35 -6.9 -8.9 -6.75 -7.05 -5.55 -5.15 -4.85 -4.05 -2.3 -1.45 -0.6 0.35 0.15 1.55 0.3 1.35 0.55 1.0 0.9 0.5 1.2 0.25 1.4 0.05 1.85 -0.6 2.1 -0.85 2.4 -0.95 M2.0 -0.2 Q0.95 0.7 0.4 1.9 L0.55 2.3 0.3 2.05 0.3 2.1 Q0.35 2.1 0.2 2.1 0.1 2.1 0.1 2.05 L0.1 1.8 Q-2.7 -1.15 -3.9 -2.5 -5.55 -4.4 -6.3 -5.75 -7.0 -7.05 -7.25 -8.6 -7.4 -9.45 -7.4 -11.1 L-7.45 -11.2 -7.4 -11.2 -7.4 -11.35 -7.45 -11.35 -7.45 -11.4 -7.4 -11.6 -7.4 -12.3 Q-7.05 -12.05 -6.95 -11.4 L-6.75 -11.25 Q-6.05 -10.55 -5.1 -9.1 L-4.15 -7.7 Q-3.6 -6.85 -2.95 -6.3 -0.7 -4.4 0.3 -3.5 1.85 -2.1 2.6 -1.05 L3.0 -1.05 3.0 -1.0 3.05 -0.9 2.8 -0.8 2.85 -0.7 2.8 -0.6 2.7 -0.7 2.0 -0.2" fill="#101010" fill-rule="evenodd" stroke="none"/>
    <path d="M2.4 -0.95 Q2.1 -0.85 1.85 -0.6 1.4 0.05 1.2 0.25 0.9 0.5 0.55 1.0 0.3 1.35 0.15 1.55 -0.6 0.35 -2.3 -1.45 -4.85 -4.05 -5.55 -5.15 -6.75 -7.05 -6.9 -8.9 -6.95 -9.35 -6.9 -10.7 L-6.9 -11.25 Q-6.65 -11.05 -6.35 -10.55 -5.55 -9.25 -5.3 -8.85 L-4.3 -7.45 Q-3.75 -6.65 -3.15 -6.1 -0.5 -3.5 2.4 -0.95" fill="#4f4116" fill-rule="evenodd" stroke="none"/>
  </g>
</svg>
