<?xml version="1.0" encoding="UTF-8" standalone="no"?>
<svg xmlns:ffdec="https://www.free-decompiler.com/flash" xmlns:xlink="http://www.w3.org/1999/xlink" ffdec:objectType="shape" height="15.0px" width="15.95px" xmlns="http://www.w3.org/2000/svg">
  <g transform="matrix(1.0, 0.0, 0.0, 1.0, 3.55, 8.2)">
    <path d="M2.3 -8.15 L2.3 -8.15 M8.65 -4.9 L9.0 -4.65 9.0 -4.4 9.05 -4.3 9.0 -4.3 Q8.9 -4.6 8.65 -4.9 M9.1 -4.05 L9.15 -3.95 9.05 -4.05 9.1 -4.05 M5.3 5.55 L4.9 5.45 Q4.8 5.45 4.75 5.35 L4.75 5.2 Q5.05 5.4 5.3 5.55" fill="#cccccc" fill-rule="evenodd" stroke="none"/>
    <path d="M4.75 5.35 L4.45 6.25 4.45 6.35 4.5 6.35 4.45 6.45 Q4.4 6.55 4.3 6.55 4.2 6.6 4.15 6.6 3.6 6.6 2.8 6.2 2.3 5.95 2.05 5.75 L2.05 6.6 2.0 6.65 Q1.8 6.7 1.65 6.8 0.05 6.75 -1.45 4.9 L-2.05 4.05 -2.15 3.85 Q-2.75 2.95 -3.15 1.95 -3.55 0.95 -3.55 0.55 -3.55 -1.1 -2.55 -3.25 -2.15 -4.2 -1.6 -5.0 L-1.1 -5.65 -1.0 -5.8 -0.8 -6.0 -0.7 -6.05 0.15 -6.75 0.2 -6.75 0.25 -6.8 0.3 -6.8 0.55 -6.95 1.65 -7.5 1.95 -7.6 2.2 -7.7 2.25 -7.7 2.25 -7.75 2.45 -7.7 2.6 -7.7 3.3 -7.6 4.25 -7.5 4.65 -7.4 Q5.4 -7.2 6.3 -6.75 L7.0 -6.3 7.25 -6.15 7.6 -5.9 Q8.3 -5.4 8.65 -4.9 8.9 -4.6 9.0 -4.3 L9.05 -4.3 9.1 -4.05 9.05 -4.05 9.05 -3.95 Q9.05 -3.9 9.0 -3.85 L9.7 -3.1 9.75 -3.05 Q10.25 -2.55 10.55 -2.1 L10.8 -1.7 Q11.1 -1.15 11.15 -0.45 L11.2 -0.25 11.2 -0.15 Q11.2 -0.1 11.15 -0.1 L11.1 -0.05 11.45 0.5 11.6 0.65 11.8 1.0 11.9 1.2 Q12.25 1.9 12.3 2.45 L12.3 2.5 12.4 2.9 12.4 3.15 12.2 3.2 11.9 2.9 Q11.55 2.45 11.3 2.15 10.85 1.75 10.4 1.5 10.2 1.4 9.95 1.3 L9.55 1.2 9.1 1.15 8.9 1.15 Q8.7 1.3 8.45 1.55 8.15 1.95 7.75 2.5 L7.3 3.2 7.05 3.55 Q6.85 3.95 6.65 4.5 L6.4 5.1 6.35 5.4 6.25 5.6 6.25 5.65 6.2 5.7 6.2 5.9 6.1 5.95 6.1 6.0 Q6.0 6.0 5.9 5.9 5.7 5.8 5.35 5.55 L5.3 5.55 Q5.05 5.4 4.75 5.2 L4.75 5.35 M1.7 -7.3 L1.55 -7.15 1.15 -7.0 0.45 -6.55 -0.4 -5.8 -0.75 -5.45 -1.15 -4.95 -1.3 -4.7 Q-3.25 -1.85 -3.25 0.55 -3.25 1.2 -2.75 2.15 -2.3 3.15 -1.55 4.1 L-1.5 4.15 -1.15 4.55 -0.85 4.9 -0.15 5.55 Q0.4 6.0 0.9 6.3 1.25 6.45 1.6 6.55 L1.6 6.4 1.55 5.8 1.55 5.15 Q1.65 4.2 2.0 3.05 L2.25 2.45 Q2.6 1.25 2.8 0.8 L3.0 0.45 Q3.25 -0.1 3.75 -0.7 4.6 -1.85 5.9 -2.95 7.05 -3.95 7.9 -4.25 L8.0 -4.3 8.4 -4.4 8.6 -4.4 8.35 -4.75 Q7.3 -6.0 5.15 -6.8 L5.0 -6.85 Q4.2 -7.1 3.4 -7.3 L2.95 -7.35 2.8 -7.35 1.8 -7.3 1.7 -7.3 M1.9 -7.15 L2.0 -7.2 2.1 -7.2 1.9 -7.15 M5.4 -2.0 L5.3 -1.9 4.35 -0.8 3.95 -0.3 3.7 0.15 3.6 0.35 Q3.25 0.9 2.9 1.6 2.65 2.2 2.45 2.85 2.1 3.95 2.1 4.7 L2.1 4.9 2.05 5.1 2.05 5.4 2.1 5.4 Q2.2 5.4 2.35 5.5 L2.6 5.7 2.65 5.75 Q3.2 6.0 3.9 6.2 L4.25 6.3 4.25 6.0 4.3 5.85 4.3 5.75 4.3 5.65 4.3 5.5 4.4 4.95 4.4 4.9 4.5 4.45 Q4.75 3.25 5.15 2.25 6.65 -1.35 9.8 -1.35 L10.15 -1.3 10.3 -1.25 10.55 -1.15 10.4 -1.45 9.7 -2.6 9.5 -2.85 Q9.2 -3.25 8.5 -3.85 L8.45 -3.9 8.4 -4.0 8.3 -4.0 8.3 -3.95 8.1 -3.95 8.1 -3.9 8.05 -3.9 6.55 -3.0 6.5 -2.95 6.15 -2.65 6.05 -2.6 5.4 -2.0 M7.45 -0.35 L7.5 -0.35 7.6 -0.4 7.45 -0.35 M5.9 5.35 L6.05 4.85 6.1 4.65 Q6.5 3.6 6.95 2.7 8.35 0.1 10.1 -0.05 L10.35 -0.05 10.7 0.0 10.75 0.05 10.6 -0.25 10.4 -0.6 10.25 -0.8 Q9.95 -0.95 9.65 -0.95 8.5 -0.95 7.5 -0.05 6.75 0.6 6.1 1.7 5.5 2.65 5.15 3.7 L4.95 4.45 4.85 4.75 5.1 4.95 5.2 5.0 5.25 5.05 5.35 5.1 5.4 5.1 5.65 5.3 5.85 5.4 5.85 5.45 5.9 5.35 M9.3 0.85 L9.4 0.85 9.6 0.8 9.85 0.85 Q10.1 0.9 10.4 1.1 10.7 1.3 11.1 1.6 L11.45 1.95 11.9 2.45 11.6 1.7 11.45 1.35 Q11.05 0.55 10.55 0.4 L10.35 0.45 10.3 0.45 Q9.9 0.5 9.5 0.7 L9.3 0.85" fill="#000000" fill-rule="evenodd" stroke="none"/>
    <path d="M7.45 -0.35 L7.6 -0.4 7.5 -0.35 7.45 -0.35" fill="#ffffff" fill-rule="evenodd" stroke="none"/>
    <path d="M0.9 6.3 Q0.4 6.0 -0.15 5.55 L-0.85 4.9 -1.15 4.55 -1.5 4.15 -1.55 4.1 Q-2.3 3.15 -2.75 2.15 -3.25 1.2 -3.25 0.55 -3.25 -1.85 -1.3 -4.7 L-1.15 -4.95 -0.75 -5.45 -0.4 -5.8 0.45 -6.55 1.15 -7.0 1.55 -7.15 1.7 -7.3 1.9 -7.1 2.7 -6.4 Q3.95 -5.25 3.95 -3.85 3.95 -2.9 3.45 -1.8 3.2 -1.2 2.4 0.15 1.7 1.4 1.35 2.2 0.9 3.45 0.9 4.6 L0.8 5.65 Q0.8 5.95 0.9 6.25 L0.9 6.3 M1.7 -6.25 L1.65 -6.45 Q1.5 -6.65 1.2 -6.65 0.8 -6.65 0.15 -6.05 -0.5 -5.5 -1.1 -4.6 -2.6 -2.5 -2.6 -1.05 -2.6 -0.65 -2.45 0.0 -2.2 0.95 -1.75 0.95 -1.45 0.95 -1.15 -0.5 -0.7 -2.25 -0.65 -2.45 -0.25 -3.3 0.8 -4.85 1.7 -6.2 1.7 -6.25 M5.4 -2.0 L5.3 -1.9 5.3 -1.65 Q5.3 -1.25 4.4 1.9 4.15 2.75 3.65 3.75 L2.1 5.4 2.05 5.4 2.05 5.1 2.1 4.9 2.1 4.7 Q2.1 3.95 2.45 2.85 2.65 2.2 2.9 1.6 3.25 0.9 3.6 0.35 L3.1 1.35 Q2.8 1.95 2.8 2.3 2.8 2.4 2.9 2.5 3.0 2.7 3.2 2.7 3.45 2.7 4.15 1.1 L4.75 -0.5 Q4.75 -1.15 4.35 -0.8 L5.3 -1.9 5.4 -2.0 M4.3 5.75 L4.25 5.75 4.3 5.65 4.3 5.75 M10.15 -1.3 L10.25 -1.3 10.4 -1.45 10.55 -1.15 10.3 -1.25 10.15 -1.3 M6.5 -2.95 L6.3 -2.6 6.15 -2.65 6.5 -2.95 M10.35 -0.05 L10.6 -0.25 10.75 0.05 10.7 0.0 10.35 -0.05 M7.5 -0.05 Q7.05 0.65 6.85 1.6 6.7 2.2 5.95 3.7 L5.25 5.05 5.2 5.0 5.1 4.95 4.85 4.75 4.95 4.45 5.15 3.7 Q5.5 2.65 6.1 1.7 6.75 0.6 7.5 -0.05 M5.85 5.4 L5.9 5.4 5.9 5.35 5.85 5.45 5.85 5.4" fill="#b8beab" fill-rule="evenodd" stroke="none"/>
    <path d="M0.9 6.3 L0.9 6.25 Q0.8 5.95 0.8 5.65 L0.9 4.6 Q0.9 3.45 1.35 2.2 1.7 1.4 2.4 0.15 3.2 -1.2 3.45 -1.8 3.95 -2.9 3.95 -3.85 3.95 -5.25 2.7 -6.4 L1.9 -7.1 1.7 -7.3 1.8 -7.3 2.8 -7.35 2.95 -7.35 3.4 -7.3 Q4.2 -7.1 5.0 -6.85 L5.15 -6.8 Q7.3 -6.0 8.35 -4.75 L8.6 -4.4 8.4 -4.4 8.0 -4.3 7.9 -4.25 Q7.05 -3.95 5.9 -2.95 4.6 -1.85 3.75 -0.7 3.25 -0.1 3.0 0.45 L2.8 0.8 Q2.6 1.25 2.25 2.45 L2.0 3.05 Q1.65 4.2 1.55 5.15 L1.55 5.8 1.6 6.4 1.6 6.55 Q1.25 6.45 0.9 6.3 M1.9 -7.15 L2.1 -7.2 2.0 -7.2 1.9 -7.15 M2.1 5.4 L3.65 3.75 Q4.15 2.75 4.4 1.9 5.3 -1.25 5.3 -1.65 L5.3 -1.9 5.4 -2.0 6.05 -2.6 6.15 -2.65 6.3 -2.6 6.5 -2.95 6.55 -3.0 8.05 -3.9 8.1 -3.9 8.1 -3.95 8.3 -3.95 8.3 -4.0 8.4 -4.0 8.45 -3.9 8.5 -3.85 Q9.2 -3.25 9.5 -2.85 L9.7 -2.6 10.4 -1.45 10.25 -1.3 10.15 -1.3 9.8 -1.35 Q6.65 -1.35 5.15 2.25 4.75 3.25 4.5 4.45 L4.4 4.9 4.4 4.95 4.3 5.5 4.3 5.65 4.25 5.75 4.3 5.75 4.3 5.85 4.25 6.0 4.25 6.3 3.9 6.2 Q3.2 6.0 2.65 5.75 L2.6 5.7 2.35 5.5 Q2.2 5.4 2.1 5.4 M10.35 -0.05 L10.1 -0.05 Q8.35 0.1 6.95 2.7 6.5 3.6 6.1 4.65 L6.05 4.85 5.9 5.35 5.9 5.4 5.85 5.4 5.65 5.3 5.4 5.1 5.35 5.1 5.25 5.05 5.95 3.7 Q6.7 2.2 6.85 1.6 7.05 0.65 7.5 -0.05 8.5 -0.95 9.65 -0.95 9.95 -0.95 10.25 -0.8 L10.4 -0.6 10.6 -0.25 10.35 -0.05" fill="#92917c" fill-rule="evenodd" stroke="none"/>
    <path d="M9.3 0.85 L9.5 0.7 Q9.9 0.5 10.3 0.45 L10.35 0.45 10.55 0.4 Q11.05 0.55 11.45 1.35 L11.6 1.7 11.9 2.45 11.45 1.95 11.1 1.6 Q10.7 1.3 10.4 1.1 10.1 0.9 9.85 0.85 L9.6 0.8 9.4 0.85 9.3 0.85" fill="#6a6959" fill-rule="evenodd" stroke="none"/>
    <path d="M1.7 -6.25 Q1.7 -6.2 0.8 -4.85 -0.25 -3.3 -0.65 -2.45 -0.7 -2.25 -1.15 -0.5 -1.45 0.95 -1.75 0.95 -2.2 0.95 -2.45 0.0 -2.6 -0.65 -2.6 -1.05 -2.6 -2.5 -1.1 -4.6 -0.5 -5.5 0.15 -6.05 0.8 -6.65 1.2 -6.65 1.5 -6.65 1.65 -6.45 L1.7 -6.25 M4.35 -0.8 Q4.75 -1.15 4.75 -0.5 L4.15 1.1 Q3.45 2.7 3.2 2.7 3.0 2.7 2.9 2.5 2.8 2.4 2.8 2.3 2.8 1.95 3.1 1.35 L3.6 0.35 3.7 0.15 3.95 -0.3 4.35 -0.8" fill="#e9e9e4" fill-rule="evenodd" stroke="none"/>
  </g>
</svg>
