<?xml version="1.0" encoding="UTF-8" standalone="no"?>
<svg xmlns:ffdec="https://www.free-decompiler.com/flash" xmlns:xlink="http://www.w3.org/1999/xlink" ffdec:objectType="shape" height="8.3px" width="12.6px" xmlns="http://www.w3.org/2000/svg">
  <g transform="matrix(1.0, 0.0, 0.0, 1.0, 4.65, 8.1)">
    <path d="M1.25 0.0 L1.2 0.0 Q0.35 0.0 -1.9 -1.7 -3.5 -2.85 -4.25 -3.65 -4.55 -3.7 -4.6 -3.95 L-4.65 -4.1 -4.65 -4.5 Q-4.7 -5.05 -4.55 -5.55 -4.3 -6.6 -3.55 -6.65 -1.8 -6.85 1.9 -7.5 5.0 -8.1 6.1 -8.1 L6.55 -8.05 6.9 -7.45 7.8 -5.7 7.9 -5.15 7.45 -4.5 7.35 -4.4 Q7.45 -4.7 7.45 -5.15 L6.7 -7.45 Q6.4 -7.65 5.85 -7.65 L2.15 -7.05 -0.95 -6.55 -1.3 -6.5 -1.85 -6.45 Q-3.25 -6.45 -3.85 -5.75 -4.25 -5.3 -4.25 -4.7 -4.25 -4.5 -4.05 -4.2 -3.8 -3.75 -3.75 -3.7 L-3.8 -3.7 -2.0 -2.3 Q-0.25 -1.0 0.5 -0.6 0.85 -0.4 1.0 -0.4 L1.25 -0.45 Q1.75 -0.6 2.95 -1.15 4.5 -1.9 5.1 -2.35 L6.3 -3.2 4.9 -1.8 Q4.1 -1.25 3.5 -0.9 2.4 -0.15 1.6 -0.05 L1.25 0.0" fill="#111111" fill-rule="evenodd" stroke="none"/>
    <path d="M1.6 -0.05 L1.65 0.05 1.65 0.15 1.5 0.2 1.25 0.0 1.6 -0.05" fill="#666666" fill-rule="evenodd" stroke="none"/>
    <path d="M7.35 -4.4 L6.3 -3.2 5.1 -2.35 Q4.5 -1.9 2.95 -1.15 1.75 -0.6 1.25 -0.45 L1.0 -0.4 Q0.85 -0.4 0.5 -0.6 -0.25 -1.0 -2.0 -2.3 L-3.8 -3.7 -3.75 -3.7 Q-3.8 -3.75 -4.05 -4.2 -4.25 -4.5 -4.25 -4.7 -4.25 -5.3 -3.85 -5.75 -3.25 -6.45 -1.85 -6.45 L-1.3 -6.5 -0.95 -6.55 2.15 -7.05 5.85 -7.65 Q6.4 -7.65 6.7 -7.45 L7.45 -5.15 Q7.45 -4.7 7.35 -4.4" fill="#47290e" fill-rule="evenodd" stroke="none"/>
    <path d="M6.9 -7.45 L7.3 -6.6 7.95 -5.4 7.95 -5.35 7.9 -5.2 7.8 -4.95 7.75 -4.8 Q6.85 -3.75 4.95 -1.85 L4.7 -1.6 4.7 -1.65 Q4.7 -1.75 5.65 -2.8 6.65 -4.0 6.95 -5.0 7.05 -5.3 7.1 -5.75 L7.1 -5.95 6.85 -6.55 6.35 -7.6 Q6.35 -7.9 6.65 -7.95 L6.9 -7.45" fill="#101010" fill-rule="evenodd" stroke="none"/>
  </g>
</svg>
