<?xml version="1.0" encoding="UTF-8" standalone="no"?>
<svg xmlns:ffdec="https://www.free-decompiler.com/flash" xmlns:xlink="http://www.w3.org/1999/xlink" ffdec:objectType="shape" height="30.6px" width="27.65px" xmlns="http://www.w3.org/2000/svg">
  <g transform="matrix(1.0, 0.0, 0.0, 1.0, 5.55, 19.3)">
    <path d="M3.35 -0.8 L3.2 -0.8 2.85 -0.75 Q2.45 -0.85 1.85 -0.6 1.3 -0.35 1.05 -0.05 1.0 0.05 0.8 0.65 L0.6 1.25 Q0.4 2.1 1.25 2.85 1.75 3.25 2.4 3.5 L2.55 3.6 2.3 3.5 2.2 3.5 1.8 3.4 Q0.7 3.2 0.4 3.05 L0.3 3.05 0.15 2.95 Q-0.2 1.85 -0.55 0.9 L-0.65 0.8 Q-1.15 0.15 -1.25 -0.15 L-1.65 -0.95 Q-1.75 -1.35 -1.7 -1.7 L-1.65 -1.8 -1.6 -1.8 Q-0.65 -2.95 -0.15 -2.8 L0.8 -2.5 Q1.5 -2.2 1.6 -1.95 L2.15 -1.6 2.75 -1.2 3.0 -1.05 3.3 -0.85 3.35 -0.8 M2.85 4.95 Q2.65 5.05 2.5 5.25 2.05 5.7 1.6 6.35 1.2 6.95 1.15 7.15 1.1 7.45 1.2 7.65 L1.25 7.7 0.85 7.25 Q0.3 6.75 -0.05 6.45 L0.0 6.25 0.4 5.4 0.5 5.15 Q0.75 4.7 0.75 4.6 L0.8 4.45 0.8 4.35 0.9 4.45 Q1.45 4.75 2.2 4.9 L2.75 4.9 2.8 4.95 2.85 4.95 M1.6 8.1 L2.0 8.5 1.9 8.45 1.6 8.1 M2.6 9.2 L2.85 9.45 2.8 9.45 2.65 9.3 2.6 9.2 M4.7 9.2 L4.9 9.15 4.9 9.2 4.7 9.2 M-3.6 10.5 L-3.7 10.5 Q-3.85 10.45 -4.65 10.1 -4.75 10.0 -4.95 9.9 L-5.0 9.9 -4.9 9.7 Q-4.6 9.35 -3.9 8.85 L-3.5 8.6 -2.6 8.05 Q-2.1 7.75 -1.75 7.55 L-1.45 7.45 Q-1.2 7.35 -1.0 7.25 L-0.4 7.25 Q0.2 7.35 1.3 8.35 L1.6 8.7 1.65 8.7 1.7 8.75 1.8 8.9 1.65 8.9 Q1.4 9.1 0.1 9.55 L-0.2 9.65 -0.65 9.75 Q-3.05 10.5 -3.6 10.4 L-3.6 10.5 M-2.25 10.6 L-2.3 10.6 -2.55 10.65 -2.65 10.65 -3.0 10.6 -2.25 10.6" fill="#666633" fill-rule="evenodd" stroke="none"/>
    <path d="M2.55 3.6 L2.4 3.5 Q1.75 3.25 1.25 2.85 0.4 2.1 0.6 1.25 L0.8 0.65 Q1.0 0.05 1.05 -0.05 1.3 -0.35 1.85 -0.6 2.45 -0.85 2.85 -0.75 L3.2 -0.8 3.35 -0.8 Q3.8 -0.8 4.35 -0.6 5.9 -0.05 5.7 1.05 5.85 1.35 5.8 2.05 5.8 2.7 5.7 3.3 5.25 4.0 4.95 3.95 L4.85 4.0 4.05 4.05 Q3.0 3.85 2.55 3.6 M1.25 7.7 L1.2 7.65 Q1.1 7.45 1.15 7.15 1.2 6.95 1.6 6.35 2.05 5.7 2.5 5.25 2.65 5.05 2.85 4.95 L3.05 5.0 3.65 4.9 3.85 4.9 4.25 5.0 Q4.35 5.2 4.45 5.45 4.65 5.75 4.85 7.3 5.1 8.8 5.05 9.05 5.05 9.15 4.9 9.15 L4.7 9.2 3.85 9.3 2.9 9.45 2.85 9.45 2.6 9.2 2.3 8.8 Q2.1 8.55 2.0 8.5 L1.6 8.1 Q1.35 7.9 1.25 7.7 M1.8 8.9 L1.85 8.9 2.05 9.2 2.3 9.5 Q2.1 9.9 0.15 10.25 -1.15 10.55 -2.25 10.6 L-3.0 10.6 -3.4 10.6 -3.6 10.5 -3.6 10.4 Q-3.05 10.5 -0.65 9.75 L-0.2 9.65 0.1 9.55 Q1.4 9.1 1.65 8.9 L1.8 8.9" fill="#5c4923" fill-rule="evenodd" stroke="none"/>
    <path d="M21.75 -19.15 L22.1 -19.3 21.9 -19.2 21.75 -19.15 M3.35 -0.8 L3.3 -0.85 3.0 -1.05 2.75 -1.2 2.15 -1.6 1.6 -1.95 Q1.5 -2.2 0.8 -2.5 L-0.15 -2.8 Q-0.65 -2.95 -1.6 -1.8 L-1.65 -1.8 -1.7 -1.7 Q-1.75 -1.35 -1.65 -0.95 L-1.25 -0.15 Q-1.15 0.15 -0.65 0.8 L-0.55 0.9 Q-0.2 1.85 0.15 2.95 L0.3 3.05 0.4 3.05 Q0.7 3.2 1.8 3.4 L2.2 3.5 2.3 3.5 2.55 3.6 Q3.0 3.85 4.05 4.05 L4.85 4.0 4.95 3.95 Q5.25 4.0 5.7 3.3 5.8 2.7 5.8 2.05 5.85 1.35 5.7 1.05 5.9 -0.05 4.35 -0.6 3.8 -0.8 3.35 -0.8 M1.1 -2.65 Q2.25 -2.0 3.05 -1.75 4.45 -1.05 5.7 -0.75 L6.05 -0.25 6.3 1.25 6.45 3.15 6.45 3.2 6.3 3.6 5.8 4.25 Q5.3 4.9 5.3 4.95 L5.3 5.0 Q5.25 5.05 5.25 5.15 5.2 5.25 5.25 5.3 L5.25 5.35 5.4 6.7 5.55 8.55 5.6 8.8 5.65 9.75 5.6 9.9 5.55 9.9 4.6 10.15 Q3.4 10.45 1.95 10.75 -2.05 11.55 -3.65 11.25 -4.05 11.15 -4.6 10.9 L-4.75 10.85 Q-5.2 10.65 -5.4 10.5 L-5.55 10.45 -5.5 10.35 -5.55 10.3 -5.05 9.7 Q-4.15 8.55 -3.35 7.9 -2.95 7.6 -1.1 6.55 0.05 5.95 0.2 5.3 0.2 5.2 0.4 4.9 L0.55 4.6 Q0.6 4.3 0.5 4.2 0.45 4.05 0.25 3.9 0.2 3.7 -0.1 3.5 L-0.2 3.1 Q-0.45 2.3 -0.85 1.5 -1.3 0.65 -1.55 0.35 -1.85 -0.5 -2.25 -1.7 -1.65 -2.6 -0.75 -3.3 L0.45 -3.0 1.1 -2.65 M2.85 4.95 L2.8 4.95 2.75 4.9 2.2 4.9 Q1.45 4.75 0.9 4.45 L0.8 4.35 0.8 4.45 0.75 4.6 Q0.75 4.7 0.5 5.15 L0.4 5.4 0.0 6.25 -0.05 6.45 Q0.3 6.75 0.85 7.25 L1.25 7.7 Q1.35 7.9 1.6 8.1 L1.9 8.45 2.0 8.5 Q2.1 8.55 2.3 8.8 L2.6 9.2 2.65 9.3 2.8 9.45 2.85 9.45 2.9 9.45 3.85 9.3 4.7 9.2 4.9 9.2 4.9 9.15 Q5.05 9.15 5.05 9.05 5.1 8.8 4.85 7.3 4.65 5.75 4.45 5.45 4.35 5.2 4.25 5.0 L3.85 4.9 3.65 4.9 3.05 5.0 2.85 4.95 M5.45 9.5 L5.4 9.55 5.45 9.55 5.45 9.5 M1.8 8.9 L1.7 8.75 1.65 8.7 1.6 8.7 1.3 8.35 Q0.2 7.35 -0.4 7.25 L-1.0 7.25 Q-1.2 7.35 -1.45 7.45 L-1.75 7.55 Q-2.1 7.75 -2.6 8.05 L-3.5 8.6 -3.9 8.85 Q-4.6 9.35 -4.9 9.7 L-5.0 9.9 -4.95 9.9 Q-4.75 10.0 -4.65 10.1 -3.85 10.45 -3.7 10.5 L-3.6 10.5 -3.4 10.6 -3.0 10.6 -2.65 10.65 -2.55 10.65 -2.3 10.6 -2.25 10.6 Q-1.15 10.55 0.15 10.25 2.1 9.9 2.3 9.5 L2.05 9.2 1.85 8.9 1.8 8.9" fill="#101010" fill-rule="evenodd" stroke="none"/>
  </g>
</svg>
