<?xml version="1.0" encoding="UTF-8" standalone="no"?>
<svg xmlns:ffdec="https://www.free-decompiler.com/flash" xmlns:xlink="http://www.w3.org/1999/xlink" ffdec:objectType="shape" height="14.35px" width="13.2px" xmlns="http://www.w3.org/2000/svg">
  <g transform="matrix(1.0, 0.0, 0.0, 1.0, 0.45, 12.4)">
    <path d="M11.25 -11.6 Q12.05 -11.25 12.5 -11.0 L12.5 -10.85 12.3 -10.45 12.25 -10.3 11.75 -9.75 Q10.95 -8.8 10.95 -7.9 L10.8 -6.55 Q10.65 -5.25 10.65 -5.1 L10.75 -4.25 10.75 -4.15 11.2 -4.45 11.4 -4.55 11.75 -4.6 Q12.0 -4.6 12.25 -4.4 12.75 -4.05 12.75 -3.75 12.7 -2.25 12.55 -2.15 12.25 -1.95 11.75 -1.75 L10.95 -1.5 10.15 -1.3 8.9 -1.05 9.05 -0.9 9.3 -0.55 9.5 -0.25 9.1 0.2 Q8.65 0.65 8.5 0.9 8.4 1.1 8.3 1.15 L7.9 1.35 Q7.65 1.45 7.1 1.85 6.95 1.85 6.85 1.45 L6.75 0.8 Q6.7 0.55 6.55 0.25 6.4 -0.05 6.4 -0.2 L6.4 -0.25 6.3 -0.25 Q6.25 -0.15 5.7 0.9 L5.1 1.95 Q4.85 1.95 2.75 -0.15 L3.65 -1.05 3.45 -1.05 Q2.9 -1.1 2.15 -1.3 1.55 -1.4 1.3 -1.5 L0.55 -1.75 Q0.0 -1.95 -0.3 -2.15 -0.45 -2.25 -0.45 -3.75 -0.45 -4.05 0.0 -4.4 0.45 -4.7 0.85 -4.6 L0.9 -4.9 Q1.0 -5.3 1.0 -5.6 1.0 -6.3 0.75 -7.15 0.7 -7.2 0.65 -7.25 L0.65 -7.45 Q0.65 -8.05 0.4 -9.45 L0.15 -10.4 0.1 -10.65 Q0.1 -11.05 1.85 -11.55 1.95 -11.65 2.3 -11.75 L2.4 -11.8 Q4.4 -12.35 5.8 -12.4 L6.7 -12.4 7.1 -12.35 8.0 -12.35 9.7 -12.1 Q10.45 -11.9 11.25 -11.6 M11.35 -11.25 L11.3 -11.3 Q10.7 -11.55 9.85 -11.75 7.4 -12.3 4.4 -11.9 3.9 -11.9 2.45 -11.5 1.6 -11.25 1.15 -11.0 0.4 -10.65 0.4 -10.3 L0.4 -10.15 0.45 -10.05 0.6 -9.1 0.7 -8.2 0.8 -7.6 Q0.95 -7.15 1.05 -6.6 1.15 -6.05 1.15 -5.15 L1.1 -4.7 1.05 -4.45 1.1 -4.45 1.9 -3.95 Q2.75 -3.5 3.5 -3.5 L4.5 -3.2 4.55 -3.3 4.7 -3.45 Q5.25 -3.9 6.05 -3.95 6.85 -3.95 7.4 -3.45 L7.6 -3.25 7.65 -3.25 7.65 -3.3 7.7 -3.3 7.8 -3.2 Q8.0 -3.3 8.75 -3.5 9.5 -3.5 10.35 -3.95 L10.35 -4.1 10.4 -4.95 Q10.4 -5.3 10.5 -6.35 10.6 -7.55 10.7 -7.85 L10.9 -8.6 Q11.05 -9.05 11.15 -9.3 L11.7 -10.0 Q12.2 -10.65 12.2 -10.7 L12.15 -10.85 Q11.85 -11.05 11.35 -11.25 M0.15 -4.15 Q-0.1 -3.9 -0.1 -3.25 -0.1 -2.75 0.05 -2.45 0.25 -2.2 0.7 -2.05 1.15 -1.8 1.7 -1.6 2.65 -1.3 4.2 -1.25 L4.25 -1.25 4.6 -1.3 4.6 -1.25 4.8 -1.25 5.3 -1.3 Q5.45 -1.3 5.45 -1.45 L5.4 -1.6 5.35 -1.7 5.2 -1.85 Q3.5 -2.0 2.1 -2.45 1.3 -2.7 0.4 -3.2 L1.35 -2.75 Q1.85 -2.55 2.45 -2.4 3.35 -2.25 4.75 -2.15 5.2 -2.15 5.35 -2.05 L5.45 -2.2 5.7 -2.5 Q5.4 -2.7 4.65 -2.9 L4.6 -2.9 4.3 -2.95 4.35 -3.0 4.0 -3.1 Q2.6 -3.35 1.95 -3.75 0.6 -4.55 0.15 -4.15 M0.15 -3.45 Q0.2 -3.4 0.35 -3.25 L0.35 -3.2 0.2 -3.3 Q0.1 -3.4 0.1 -3.45 L0.15 -3.45 M5.5 -3.0 L5.55 -3.0 Q5.65 -3.1 6.1 -3.05 6.45 -3.05 6.6 -2.95 L6.8 -3.0 Q7.0 -3.0 7.1 -3.05 L7.35 -3.15 7.2 -3.25 Q6.75 -3.65 6.05 -3.65 5.4 -3.6 4.9 -3.2 L4.85 -3.15 5.15 -3.05 Q5.25 -3.0 5.5 -3.0 M5.65 -2.15 Q5.55 -2.1 5.55 -1.95 L5.8 -1.25 5.8 -1.15 Q6.0 -1.05 6.2 -1.05 6.3 -1.05 6.5 -1.2 L6.5 -1.25 6.7 -1.95 Q6.7 -2.1 6.6 -2.15 6.6 -2.35 6.35 -2.35 L6.3 -2.4 6.3 -2.45 6.35 -2.6 6.4 -2.7 Q6.4 -2.9 6.1 -2.9 5.8 -2.9 5.8 -2.7 L5.95 -2.6 6.0 -2.5 5.9 -2.35 5.8 -2.3 Q5.65 -2.25 5.65 -2.15 M3.05 -0.1 Q3.05 -0.05 3.55 0.3 L3.75 0.4 3.8 0.45 3.75 0.45 4.05 0.7 Q4.5 1.5 4.9 1.5 5.15 1.5 5.6 0.55 5.85 -0.05 5.95 -0.25 L5.35 -0.35 4.8 0.05 4.2 0.4 4.15 0.35 4.4 0.15 4.55 0.1 4.7 -0.35 4.85 -0.55 Q4.5 -0.75 4.35 -1.0 L4.1 -1.0 Q4.05 -0.95 3.6 -0.65 3.05 -0.35 3.05 -0.1 M5.3 -1.1 L4.9 -1.05 4.75 -1.0 Q5.2 -0.45 6.0 -0.45 6.45 -0.45 6.8 -0.55 L6.85 -0.6 Q7.25 -0.75 7.5 -1.1 L7.45 -1.1 7.35 -1.05 6.95 -1.1 6.7 -1.05 6.6 -1.05 Q6.35 -0.9 6.2 -0.9 L5.75 -0.95 Q5.55 -1.0 5.5 -1.05 L5.3 -1.1 M10.65 -3.95 L10.55 -3.9 10.3 -3.75 Q9.65 -3.35 8.25 -3.1 L7.95 -3.0 7.95 -2.95 7.8 -2.95 7.7 -2.9 7.5 -2.9 Q6.85 -2.7 6.6 -2.5 6.65 -2.35 6.8 -2.2 L6.9 -2.05 7.15 -2.0 7.35 -1.95 Q8.15 -1.95 9.45 -2.25 L10.45 -2.5 Q10.85 -2.75 11.55 -3.05 L12.4 -3.4 Q12.35 -3.95 12.15 -4.15 11.7 -4.5 10.65 -3.95 M6.9 -1.55 L6.85 -1.6 6.8 -1.45 6.8 -1.35 6.85 -1.35 6.9 -1.3 6.95 -1.3 7.5 -1.25 7.65 -1.25 7.7 -1.3 7.85 -1.25 8.6 -1.25 8.85 -1.3 Q9.85 -1.4 10.55 -1.6 11.15 -1.8 11.55 -2.05 12.0 -2.2 12.2 -2.45 12.4 -2.75 12.4 -3.25 12.15 -3.05 11.75 -2.85 11.15 -2.6 10.45 -2.5 L8.8 -2.1 Q7.25 -1.75 6.95 -1.55 L6.9 -1.55 M6.8 -0.25 L6.75 -0.25 6.85 0.25 Q7.0 0.75 7.1 1.4 L7.1 1.45 7.85 1.1 8.4 0.7 8.8 0.3 Q9.1 -0.05 9.1 -0.15 9.1 -0.25 8.8 -0.75 L8.55 -1.05 7.95 -1.0 7.95 -1.05 7.75 -1.05 7.7 -0.95 Q7.5 -0.6 7.15 -0.4 L7.25 -0.35 8.05 0.45 7.95 0.5 Q7.65 0.5 7.15 0.05 L6.8 -0.25" fill="#111111" fill-rule="evenodd" stroke="none"/>
    <path d="M0.15 -3.45 L0.1 -3.45 Q0.1 -3.4 0.2 -3.3 L0.35 -3.2 0.35 -3.25 Q0.2 -3.4 0.15 -3.45 M0.15 -4.15 Q0.6 -4.55 1.95 -3.75 2.6 -3.35 4.0 -3.1 L4.35 -3.0 4.3 -2.95 4.6 -2.9 4.65 -2.9 Q5.4 -2.7 5.7 -2.5 L5.45 -2.2 5.35 -2.05 Q5.2 -2.15 4.75 -2.15 3.35 -2.25 2.45 -2.4 1.85 -2.55 1.35 -2.75 L0.4 -3.2 Q1.3 -2.7 2.1 -2.45 3.5 -2.0 5.2 -1.85 L5.35 -1.7 5.4 -1.6 5.45 -1.45 Q5.45 -1.3 5.3 -1.3 L4.8 -1.25 4.6 -1.25 4.6 -1.3 4.25 -1.25 4.2 -1.25 Q2.65 -1.3 1.7 -1.6 1.15 -1.8 0.7 -2.05 0.25 -2.2 0.05 -2.45 -0.1 -2.75 -0.1 -3.25 -0.1 -3.9 0.15 -4.15 M3.05 -0.1 Q3.05 -0.35 3.6 -0.65 4.05 -0.95 4.1 -1.0 L4.35 -1.0 Q4.5 -0.75 4.85 -0.55 L4.7 -0.35 4.55 0.1 4.4 0.15 4.15 0.35 4.2 0.4 4.8 0.05 5.35 -0.35 5.95 -0.25 Q5.85 -0.05 5.6 0.55 5.15 1.5 4.9 1.5 4.5 1.5 4.05 0.7 L3.75 0.45 3.8 0.45 3.75 0.4 3.55 0.3 Q3.05 -0.05 3.05 -0.1 M10.65 -3.95 Q11.7 -4.5 12.15 -4.15 12.35 -3.95 12.4 -3.4 L11.55 -3.05 Q10.85 -2.75 10.45 -2.5 L9.45 -2.25 Q8.15 -1.95 7.35 -1.95 L7.15 -2.0 6.9 -2.05 6.8 -2.2 Q6.65 -2.35 6.6 -2.5 6.85 -2.7 7.5 -2.9 L7.7 -2.9 7.8 -2.95 7.95 -2.95 7.95 -3.0 8.25 -3.1 Q9.65 -3.35 10.3 -3.75 L10.55 -3.9 10.65 -3.95 M6.9 -1.55 L6.95 -1.55 Q7.25 -1.75 8.8 -2.1 L10.45 -2.5 Q11.15 -2.6 11.75 -2.85 12.15 -3.05 12.4 -3.25 12.4 -2.75 12.2 -2.45 12.0 -2.2 11.55 -2.05 11.15 -1.8 10.55 -1.6 9.85 -1.4 8.85 -1.3 L8.6 -1.25 7.85 -1.25 7.7 -1.3 7.65 -1.25 7.5 -1.25 6.95 -1.3 6.9 -1.3 6.85 -1.35 6.8 -1.35 6.8 -1.45 6.85 -1.6 6.9 -1.55 M6.8 -0.25 L7.15 0.05 Q7.65 0.5 7.95 0.5 L8.05 0.45 7.25 -0.35 7.15 -0.4 Q7.5 -0.6 7.7 -0.95 L7.75 -1.05 7.95 -1.05 7.95 -1.0 8.55 -1.05 8.8 -0.75 Q9.1 -0.25 9.1 -0.15 9.1 -0.05 8.8 0.3 L8.4 0.7 7.85 1.1 7.1 1.45 7.1 1.4 Q7.0 0.75 6.85 0.25 L6.75 -0.25 6.8 -0.25" fill="#54371b" fill-rule="evenodd" stroke="none"/>
    <path d="M5.5 -3.0 Q5.25 -3.0 5.15 -3.05 L4.85 -3.15 4.9 -3.2 Q5.4 -3.6 6.05 -3.65 6.75 -3.65 7.2 -3.25 L7.35 -3.15 7.1 -3.05 Q7.0 -3.0 6.8 -3.0 L6.6 -2.95 Q6.45 -3.05 6.1 -3.05 5.65 -3.1 5.55 -3.0 L5.5 -3.0 M5.3 -1.1 L5.5 -1.05 Q5.55 -1.0 5.75 -0.95 L6.2 -0.9 Q6.35 -0.9 6.6 -1.05 L6.7 -1.05 6.95 -1.1 7.35 -1.05 7.45 -1.1 7.5 -1.1 Q7.25 -0.75 6.85 -0.6 L6.8 -0.55 Q6.45 -0.45 6.0 -0.45 5.2 -0.45 4.75 -1.0 L4.9 -1.05 5.3 -1.1" fill="#666666" fill-rule="evenodd" stroke="none"/>
    <path d="M11.35 -11.25 Q11.85 -11.05 12.15 -10.85 L12.2 -10.7 Q12.2 -10.65 11.7 -10.0 L11.15 -9.3 Q11.05 -9.05 10.9 -8.6 L10.7 -7.85 Q10.6 -7.55 10.5 -6.35 10.4 -5.3 10.4 -4.95 L10.35 -4.1 10.35 -3.95 Q9.5 -3.5 8.75 -3.5 8.0 -3.3 7.8 -3.2 L7.7 -3.3 7.65 -3.3 7.65 -3.25 7.6 -3.25 7.4 -3.45 Q6.85 -3.95 6.05 -3.95 5.25 -3.9 4.7 -3.45 L4.55 -3.3 4.5 -3.2 3.5 -3.5 Q2.75 -3.5 1.9 -3.95 L1.1 -4.45 1.05 -4.45 1.1 -4.7 1.15 -5.15 Q1.15 -6.05 1.05 -6.6 0.95 -7.15 0.8 -7.6 L0.7 -8.2 0.6 -9.1 0.45 -10.05 0.4 -10.15 0.4 -10.3 Q0.4 -10.65 1.15 -11.0 1.6 -11.25 2.45 -11.5 3.9 -11.9 4.4 -11.9 7.4 -12.3 9.85 -11.75 10.7 -11.55 11.3 -11.3 L11.35 -11.25" fill="#425c1d" fill-rule="evenodd" stroke="none"/>
    <path d="M5.65 -2.15 Q5.65 -2.25 5.8 -2.3 L5.9 -2.35 6.0 -2.5 5.95 -2.6 5.8 -2.7 Q5.8 -2.9 6.1 -2.9 6.4 -2.9 6.4 -2.7 L6.35 -2.6 6.3 -2.45 6.3 -2.4 6.35 -2.35 Q6.6 -2.35 6.6 -2.15 6.7 -2.1 6.7 -1.95 L6.5 -1.25 6.5 -1.2 Q6.3 -1.05 6.2 -1.05 6.0 -1.05 5.8 -1.15 L5.8 -1.25 5.55 -1.95 Q5.55 -2.1 5.65 -2.15" fill="#251b10" fill-rule="evenodd" stroke="none"/>
  </g>
</svg>
