<?xml version="1.0" encoding="UTF-8" standalone="no"?>
<svg xmlns:ffdec="https://www.free-decompiler.com/flash" xmlns:xlink="http://www.w3.org/1999/xlink" ffdec:objectType="shape" height="24.8px" width="31.8px" xmlns="http://www.w3.org/2000/svg">
  <g transform="matrix(1.0, 0.0, 0.0, 1.0, 16.8, 21.85)">
    <path d="M10.95 -19.7 L11.25 -19.85 12.05 -21.5 11.95 -21.5 Q11.2 -21.15 10.5 -20.7 L10.4 -20.3 10.15 -19.6 10.15 -19.55 10.25 -19.55 Q10.55 -19.55 10.9 -19.7 L10.95 -19.7 M12.2 -21.85 L12.25 -21.85 12.25 -21.7 12.4 -21.7 12.4 -21.65 12.2 -21.6 12.2 -21.45 11.65 -20.3 Q11.65 -20.2 10.7 -18.05 9.75 -15.85 9.4 -14.9 L9.35 -14.7 8.85 -13.25 Q8.55 -12.4 8.45 -11.85 8.35 -11.55 7.9 -11.25 7.4 -11.0 7.15 -10.8 6.8 -10.5 5.95 -10.2 L5.55 -10.05 5.45 -9.75 Q5.75 -9.95 6.2 -10.15 6.9 -10.5 7.7 -10.65 L7.75 -10.5 Q7.75 -10.2 7.4 -9.65 7.05 -9.0 6.75 -8.95 6.25 -8.8 5.8 -8.55 L5.8 -8.3 5.85 -8.0 6.05 -8.1 6.4 -8.05 6.5 -8.05 Q6.6 -7.95 6.6 -7.8 7.4 -8.0 11.4 -8.55 L12.75 -8.9 Q14.15 -9.3 14.55 -9.3 L14.8 -9.25 14.9 -9.2 Q15.0 -9.15 15.0 -9.05 15.0 -8.7 14.4 -8.1 13.85 -7.25 13.4 -7.1 L13.25 -7.0 Q13.0 -6.8 11.5 -6.0 10.35 -5.4 9.05 -5.0 L8.35 -4.8 7.55 -4.6 6.8 -4.45 6.45 -4.45 6.45 -4.4 Q6.5 -4.15 6.5 -4.0 6.45 -3.35 6.2 -2.75 5.8 -1.65 5.25 -1.55 5.45 -0.85 5.45 -0.4 L5.45 -0.25 5.5 0.0 5.5 0.45 5.45 0.6 5.65 0.7 5.45 0.65 5.4 0.85 5.35 1.0 5.45 1.05 Q5.45 1.1 5.4 1.15 L5.3 1.2 5.3 1.25 5.25 1.25 5.25 1.15 5.15 1.15 Q4.2 1.05 3.05 0.55 3.05 0.95 1.55 1.75 L1.4 1.9 Q1.2 2.0 1.0 2.05 0.45 2.4 -0.1 2.55 -0.75 2.8 -1.2 2.85 L-1.45 2.9 -1.75 2.95 -1.9 2.95 -2.2 2.9 -2.25 2.9 Q-2.9 2.9 -3.85 2.1 L-3.9 2.05 Q-4.3 1.75 -4.65 1.35 -5.5 0.95 -5.95 0.35 -6.8 -0.2 -7.4 -1.0 -7.8 -1.55 -7.95 -2.05 L-8.05 -2.05 Q-9.05 -2.05 -11.0 -2.75 -12.05 -3.15 -12.8 -3.5 L-14.05 -4.0 Q-16.3 -5.0 -16.7 -5.6 -16.8 -5.75 -16.8 -5.95 -16.8 -6.05 -16.7 -6.1 L-16.7 -6.15 -16.65 -6.15 -16.55 -6.25 -16.45 -6.3 Q-16.05 -6.45 -14.95 -6.5 L-14.3 -6.55 -13.1 -6.5 -12.15 -6.5 -11.5 -6.45 -10.8 -6.45 -8.85 -6.1 -8.7 -6.1 -8.5 -7.1 Q-8.3 -7.75 -7.95 -7.95 L-8.05 -7.95 -8.1 -8.0 -7.6 -8.0 -7.35 -9.15 -6.95 -10.45 Q-6.7 -11.4 -6.55 -11.75 -6.3 -12.3 -6.15 -12.4 -5.8 -12.65 -4.75 -12.55 L-4.75 -12.6 -3.8 -12.6 -3.1 -12.65 -1.95 -12.7 -1.75 -12.7 2.15 -12.5 Q3.8 -12.35 3.8 -11.95 L3.8 -11.85 Q4.0 -11.7 4.15 -11.35 L4.15 -11.6 Q4.25 -12.45 4.35 -12.7 4.8 -13.7 5.2 -14.25 5.45 -15.05 5.9 -15.35 L5.9 -15.45 5.85 -15.45 5.85 -15.5 5.95 -15.8 Q5.95 -15.95 6.9 -17.3 L8.2 -19.05 Q8.85 -19.9 10.0 -20.75 11.2 -21.55 12.1 -21.7 L12.2 -21.85 M5.5 -14.35 Q5.3 -13.8 5.3 -13.35 5.15 -11.9 5.15 -11.0 L5.1 -10.0 5.35 -10.6 5.3 -10.6 5.3 -10.7 5.35 -11.5 Q5.35 -13.4 5.7 -14.7 L5.5 -14.35 M9.65 -19.05 L9.9 -19.35 9.9 -19.55 Q9.9 -19.8 10.15 -20.35 L10.25 -20.55 Q9.2 -19.8 8.35 -18.8 L8.05 -18.4 Q7.85 -17.9 7.85 -17.35 L7.9 -16.6 7.9 -16.3 8.2 -16.75 Q8.2 -16.8 8.3 -16.9 L8.35 -16.95 8.6 -17.45 8.65 -17.5 Q9.1 -18.35 9.65 -19.05 M10.35 -17.9 L10.35 -17.95 10.4 -18.0 10.7 -18.65 11.1 -19.55 10.8 -19.45 9.95 -19.35 8.8 -17.35 8.7 -17.15 9.15 -17.4 9.25 -17.45 10.15 -17.85 10.35 -17.9 M7.2 -15.55 L7.2 -15.15 7.8 -16.15 7.75 -16.45 7.75 -16.65 Q7.65 -17.15 7.65 -17.4 7.65 -17.7 7.7 -17.95 L7.15 -17.1 7.1 -17.05 7.2 -15.55 M5.65 -12.8 L5.6 -12.25 5.6 -12.1 5.5 -11.0 5.65 -11.4 Q6.3 -13.4 6.65 -14.1 L7.1 -14.95 7.05 -15.1 7.05 -15.15 7.0 -15.3 Q6.95 -15.5 6.95 -15.55 6.95 -16.45 7.0 -16.95 L6.15 -15.7 Q6.05 -15.4 6.0 -15.1 5.8 -14.1 5.65 -12.8 M9.9 -17.55 L9.4 -17.3 8.5 -16.8 7.7 -15.45 7.4 -14.8 7.4 -14.75 Q7.7 -15.0 8.1 -15.2 8.8 -15.6 9.35 -15.65 L9.4 -15.65 9.45 -15.75 Q9.8 -16.7 10.3 -17.8 L9.9 -17.55 M9.05 -15.35 L8.2 -15.0 Q7.6 -14.75 7.35 -14.6 L7.25 -14.4 7.2 -14.25 Q7.1 -14.1 7.1 -14.05 L7.0 -13.75 7.6 -14.2 Q8.25 -14.6 8.8 -14.8 L9.1 -14.85 9.35 -15.5 9.05 -15.35 M7.0 -12.55 Q8.0 -13.05 8.55 -13.05 8.75 -13.9 9.1 -14.8 L9.0 -14.75 8.85 -14.7 Q8.25 -14.45 7.6 -14.05 L6.95 -13.5 6.4 -12.25 7.0 -12.55 M7.05 -10.95 L7.2 -11.0 7.65 -11.3 7.75 -11.35 7.95 -11.55 Q8.1 -11.75 8.2 -12.0 L8.3 -12.15 8.35 -12.25 8.35 -12.35 8.5 -13.0 8.45 -12.95 7.35 -12.45 6.3 -12.0 6.0 -11.2 5.65 -10.35 5.95 -10.5 7.05 -10.95 M5.95 -8.9 Q6.65 -9.05 6.95 -9.45 7.15 -9.7 7.35 -10.2 L7.35 -10.25 7.2 -10.2 6.2 -9.8 5.35 -9.5 5.0 -8.4 Q5.4 -8.85 5.9 -8.9 L5.95 -8.9 M5.95 -7.6 Q5.3 -7.25 4.6 -7.0 L4.55 -6.9 4.55 -6.95 4.5 -6.95 4.35 -6.9 4.1 -6.8 Q2.85 -6.45 0.85 -6.05 L0.5 -6.0 -2.1 -5.7 -4.1 -5.5 -5.2 -5.5 -4.7 -5.45 -2.85 -5.25 -1.2 -5.2 Q2.3 -5.2 4.35 -5.85 4.9 -6.05 5.7 -6.4 L6.15 -6.6 6.25 -6.65 6.25 -7.0 Q6.25 -7.3 6.3 -7.8 L5.95 -7.6 M14.6 -8.95 L14.6 -9.0 Q13.5 -8.8 11.65 -8.3 10.1 -7.85 8.25 -7.65 L7.05 -7.55 6.65 -7.6 6.55 -7.65 6.5 -7.2 6.6 -6.8 6.75 -6.8 6.7 -6.75 8.7 -6.7 8.8 -6.7 8.65 -7.0 8.7 -7.05 8.95 -6.7 9.05 -6.75 Q9.85 -7.2 10.2 -7.25 L10.3 -7.25 9.4 -6.7 10.9 -6.6 Q11.95 -7.0 12.6 -7.35 L12.65 -7.35 12.8 -7.4 13.15 -7.6 Q12.1 -6.9 11.25 -6.45 11.3 -6.35 11.35 -6.25 12.1 -6.6 12.8 -7.1 L13.3 -7.4 14.2 -8.3 14.55 -8.8 14.6 -8.95 M4.9 -12.85 L4.95 -13.0 5.0 -13.5 5.05 -13.7 Q4.65 -12.85 4.55 -12.5 4.35 -12.0 4.3 -11.1 L4.35 -11.1 4.3 -11.05 4.3 -10.85 4.3 -10.7 Q4.3 -10.25 4.45 -9.3 L4.45 -9.15 4.55 -8.6 4.7 -9.0 5.05 -9.85 5.05 -9.9 5.0 -10.4 Q4.9 -11.65 4.9 -12.2 L4.9 -12.85 M3.75 -11.65 L3.7 -11.75 3.7 -11.7 Q3.35 -11.95 1.5 -12.1 L1.55 -12.0 Q1.75 -11.55 1.7 -11.2 L1.7 -10.8 Q2.15 -10.55 2.2 -10.45 L2.2 -10.4 Q2.0 -10.4 1.75 -10.55 L1.75 -10.45 1.8 -9.85 1.8 -9.8 Q2.05 -9.9 2.25 -9.8 L1.8 -9.5 1.75 -8.7 1.7 -8.05 1.9 -8.05 2.15 -8.1 2.75 -8.25 2.8 -8.25 2.95 -8.3 4.05 -8.55 4.25 -8.55 4.15 -9.15 4.15 -9.25 Q4.1 -9.75 4.1 -10.3 3.95 -10.6 3.9 -11.0 L3.85 -11.0 3.65 -11.05 3.35 -11.05 2.85 -11.15 Q2.95 -11.25 3.6 -11.25 L3.65 -11.2 3.85 -11.2 3.75 -11.65 M1.15 -11.05 L1.25 -11.0 1.35 -11.0 1.4 -10.95 1.5 -10.9 1.5 -10.95 Q1.45 -11.15 1.45 -11.55 1.4 -11.9 1.1 -12.1 L1.05 -12.1 1.05 -12.15 1.0 -12.15 0.4 -12.15 -3.8 -12.35 -4.75 -12.35 -5.35 -12.4 Q-5.85 -12.3 -6.0 -12.1 L-6.1 -11.95 -5.15 -11.85 -4.65 -11.8 -2.55 -11.55 -0.95 -11.3 -0.85 -11.3 -2.1 -11.3 -4.45 -11.5 -5.55 -11.6 -6.1 -11.7 -6.15 -11.45 -6.35 -10.85 -6.6 -10.25 -6.7 -9.8 -6.85 -9.35 -7.0 -8.95 -7.05 -8.75 Q-7.25 -8.2 -7.4 -7.95 L-7.2 -7.95 -6.5 -7.85 -5.05 -8.0 -4.75 -8.0 Q-3.95 -8.05 -3.7 -8.0 L-3.85 -7.95 -0.85 -7.9 -0.4 -7.9 0.1 -7.9 0.4 -7.95 0.6 -7.95 0.95 -8.0 1.3 -8.0 1.45 -8.05 1.45 -8.1 1.5 -9.05 1.55 -9.4 1.5 -9.35 1.4 -9.3 1.35 -9.25 Q1.2 -9.2 1.1 -9.2 L1.1 -9.15 Q1.05 -9.15 1.05 -9.2 1.05 -9.35 1.4 -9.55 L1.5 -9.65 1.6 -9.7 Q1.6 -10.25 1.55 -10.7 L1.5 -10.7 1.35 -10.85 1.1 -11.05 1.0 -11.1 1.05 -11.1 1.15 -11.05 M0.55 -7.75 L-0.6 -7.65 -1.55 -7.7 -5.05 -7.7 -0.6 -7.35 0.8 -7.75 0.55 -7.75 M-8.3 -6.0 L-7.0 -5.75 -5.85 -5.6 Q-2.3 -5.85 -0.95 -6.05 L2.2 -6.6 Q2.65 -6.65 4.0 -7.1 L4.0 -7.15 4.1 -7.45 4.4 -8.15 4.3 -8.55 Q2.25 -7.65 0.45 -7.05 -3.1 -5.9 -6.25 -5.9 L-6.95 -5.95 -7.3 -5.95 -8.25 -6.0 -8.3 -6.05 -8.4 -6.05 -8.3 -6.0 M5.5 -8.05 Q5.45 -8.25 5.45 -8.4 L5.3 -8.3 Q5.0 -8.1 4.85 -7.95 L4.75 -7.7 4.65 -7.35 5.45 -7.6 5.45 -7.65 Q5.45 -7.7 5.6 -7.85 L5.55 -8.0 5.5 -8.05 M4.65 -8.1 L4.7 -8.25 4.6 -8.0 4.6 -7.95 4.65 -8.1 M4.35 -7.5 L4.25 -7.2 4.35 -7.25 4.55 -7.75 4.55 -7.8 4.5 -7.85 4.35 -7.5 M5.2 -5.85 L5.2 -5.85 M6.1 -4.05 Q6.15 -4.3 6.15 -4.45 5.65 -4.4 5.5 -4.25 L4.7 -4.2 4.1 -4.15 4.15 -4.1 4.4 -3.7 Q4.45 -3.85 4.65 -4.0 4.9 -4.15 5.1 -4.15 L5.35 -4.1 5.4 -4.05 Q5.05 -3.95 4.85 -3.8 5.1 -3.75 5.25 -3.65 5.4 -3.5 5.4 -3.35 L5.3 -3.15 Q5.1 -3.45 4.8 -3.7 L4.75 -3.65 4.65 -3.2 4.95 -2.55 5.0 -2.4 5.15 -1.9 5.5 -2.4 Q5.85 -2.9 6.0 -3.2 6.05 -3.45 6.1 -4.0 L6.1 -4.05 M5.05 -0.6 L5.05 -0.7 4.8 -1.65 4.75 -1.85 4.75 -1.9 4.45 -2.9 4.15 -3.5 3.85 -4.15 2.9 -4.15 3.1 -3.8 3.2 -3.7 Q3.85 -2.75 4.3 -2.0 L4.5 -1.55 5.0 -0.55 5.1 -0.2 5.15 -0.2 5.05 -0.6 M9.15 -5.7 L8.1 -5.5 8.05 -5.5 10.5 -6.45 9.1 -6.55 9.1 -6.5 9.15 -6.3 Q9.15 -6.25 9.05 -6.15 L8.9 -6.45 Q8.3 -6.15 7.9 -6.1 L8.65 -6.55 8.05 -6.6 6.65 -6.75 6.6 -6.7 6.6 -6.5 6.65 -6.5 6.6 -6.45 Q6.55 -6.35 6.5 -6.35 L6.45 -6.35 6.3 -6.25 6.05 -6.1 Q5.4 -5.7 4.8 -5.5 4.25 -5.35 3.55 -5.2 2.65 -4.95 1.6 -4.85 L1.6 -4.8 1.35 -4.8 0.9 -4.8 0.65 -4.75 -1.1 -4.75 -2.1 -4.85 Q-4.65 -5.05 -6.05 -5.45 L-6.7 -5.55 -6.7 -5.5 -6.8 -5.55 -7.95 -5.75 -8.05 -5.8 -9.3 -5.95 -10.15 -6.0 -11.4 -6.15 -12.45 -6.15 -13.35 -6.2 -14.05 -6.15 -16.1 -6.15 Q-16.3 -6.05 -16.5 -6.0 L-16.55 -5.95 -16.55 -5.85 -16.5 -5.7 -16.35 -5.55 -16.3 -5.45 Q-14.75 -4.5 -12.5 -3.75 -9.75 -2.95 -8.0 -2.3 -8.1 -2.6 -8.1 -2.9 -8.1 -3.55 -7.95 -4.05 -7.8 -4.5 -7.4 -5.05 L-7.85 -5.1 -8.45 -5.2 -11.25 -5.45 -13.05 -5.55 -15.3 -5.5 -15.85 -5.4 Q-15.65 -5.6 -15.0 -5.7 L-14.6 -5.8 -12.6 -5.95 Q-10.15 -5.95 -8.15 -5.6 L-6.0 -5.15 -2.2 -4.75 0.5 -4.55 1.5 -4.55 1.55 -4.5 3.7 -4.5 Q6.95 -4.8 8.4 -5.15 8.8 -5.25 10.7 -5.95 L11.15 -6.15 11.15 -6.25 Q11.1 -6.3 11.0 -6.35 L10.95 -6.3 10.85 -6.25 10.4 -6.1 9.85 -5.9 9.15 -5.7 M3.0 -3.9 L2.85 -4.15 1.45 -4.15 0.5 -4.2 -1.0 -4.3 -1.6 -4.3 -1.55 -4.25 -1.5 -4.15 Q0.05 -2.8 1.5 -1.7 L1.6 -1.65 Q0.65 -2.15 -0.2 -2.85 -1.2 -3.65 -1.75 -4.35 L-1.9 -4.35 -2.05 -4.35 -2.25 -4.4 -2.3 -4.4 -2.35 -4.4 -2.2 -4.2 -1.05 -3.0 Q-0.15 -2.05 0.6 -1.4 L0.8 -1.25 1.35 -0.8 1.6 -0.7 1.55 -0.7 Q1.9 -0.45 2.45 -0.1 3.0 0.15 3.3 0.25 L3.25 0.25 3.25 0.2 3.4 0.3 3.5 0.3 5.25 0.95 5.25 0.6 5.05 0.55 Q4.55 0.55 2.75 -0.45 L2.6 -0.55 2.4 -0.7 2.3 -0.7 2.25 -0.75 2.2 -0.75 2.2 -0.8 Q1.3 -1.3 0.75 -1.65 L0.6 -1.75 0.25 -2.0 Q1.3 -1.4 2.95 -0.6 L3.4 -0.4 5.25 0.5 5.2 0.15 5.1 0.15 Q4.6 0.05 3.7 -0.4 L3.65 -0.45 3.35 -0.6 2.65 -1.05 2.05 -1.45 1.9 -1.5 1.9 -1.6 3.65 -0.85 4.05 -0.7 5.0 -0.25 4.4 -1.35 4.4 -1.45 4.1 -1.95 3.0 -3.9 M4.3 -1.1 L4.35 -1.05 4.6 -0.65 4.3 -0.95 3.85 -1.45 3.1 -2.25 3.15 -2.25 Q3.6 -1.9 4.0 -1.45 L4.3 -1.1 M2.9 0.5 L2.85 0.55 2.95 0.5 2.9 0.5 M-2.05 2.7 L-2.0 2.75 Q-0.65 2.5 0.45 2.05 L0.9 1.8 1.55 1.4 1.8 1.2 1.9 1.1 2.75 0.4 Q1.6 -0.15 0.25 -1.15 -0.95 -2.1 -1.75 -3.0 -2.45 -3.85 -2.5 -4.4 L-2.65 -4.4 -2.7 -4.45 -4.35 -4.6 -4.55 -4.65 -4.75 -4.4 -4.3 -4.45 -4.3 -4.4 Q-3.85 -4.45 -3.55 -4.25 L-3.5 -4.25 -3.35 -4.1 Q-3.2 -4.0 -3.1 -3.85 -3.0 -3.6 -3.0 -3.3 L-3.0 -3.15 -3.05 -3.0 -3.05 -2.9 Q-3.0 -2.85 -3.0 -2.8 -3.0 -2.65 -3.1 -2.55 L-3.35 -2.3 Q-3.55 -2.2 -3.8 -2.15 L-3.85 -2.1 Q-4.1 -2.0 -4.2 -2.0 L-4.45 -2.0 Q-5.0 -2.1 -5.4 -2.5 -5.6 -2.75 -5.65 -2.9 L-5.7 -2.85 -5.75 -2.7 Q-5.6 -2.25 -5.4 -1.15 L-5.35 -0.9 -5.25 -0.25 Q-5.05 0.25 -4.7 0.75 L-4.4 1.1 -4.05 1.5 Q-3.85 1.75 -3.1 2.15 -2.3 2.55 -2.05 2.7 M-3.3 -6.7 L-1.85 -7.05 Q-4.15 -7.15 -5.4 -7.35 -5.85 -7.4 -7.45 -7.8 L-7.6 -7.8 -7.8 -7.5 Q-8.0 -7.2 -8.1 -6.95 L-8.1 -6.9 -8.15 -6.9 Q-8.3 -6.35 -8.4 -6.1 L-7.95 -6.1 Q-6.2 -6.1 -3.75 -6.6 L-3.3 -6.7 M-6.15 -3.5 L-6.1 -3.45 -5.95 -3.45 -6.0 -3.5 -5.9 -3.5 Q-5.6 -3.95 -5.15 -4.3 -5.0 -4.5 -4.8 -4.65 L-4.9 -4.65 -5.85 -4.8 -5.9 -4.8 -5.9 -4.85 Q-6.55 -4.95 -7.1 -5.05 L-7.3 -5.05 -7.3 -4.75 -7.35 -4.45 -7.55 -3.55 -7.65 -2.9 Q-7.65 -2.05 -6.9 -1.1 L-6.3 -0.4 Q-6.45 -0.85 -6.45 -1.35 L-6.45 -1.9 Q-6.35 -2.55 -6.1 -3.1 L-6.25 -3.2 -6.45 -3.4 -6.25 -3.25 -6.3 -3.35 Q-6.5 -3.45 -6.5 -3.55 L-6.25 -3.5 -6.15 -3.5 M-5.9 -2.05 Q-5.95 -2.05 -6.0 -2.1 -6.1 -1.7 -6.1 -1.3 -6.1 -0.75 -5.65 0.05 L-5.45 0.4 -5.15 0.7 -5.3 0.65 Q-5.0 1.0 -4.7 1.25 -5.05 0.85 -5.25 0.35 -5.85 -0.85 -5.85 -2.5 L-5.95 -2.15 -5.9 -2.15 -5.9 -2.05 M-5.1 -3.9 L-5.15 -3.9 -5.45 -3.3 -4.85 -3.3 -4.25 -3.25 -4.0 -3.25 -3.55 -3.15 -3.5 -3.1 Q-3.25 -3.05 -3.15 -2.95 L-3.15 -3.0 Q-3.3 -3.35 -3.6 -3.65 -3.95 -3.95 -4.45 -4.2 -4.85 -4.1 -5.1 -3.95 L-5.1 -3.9 M-4.75 -4.4 L-4.75 -4.4 M-4.85 -4.35 L-4.85 -4.35 M-3.5 -2.9 L-3.65 -2.95 -3.75 -2.95 Q-3.8 -2.85 -3.9 -2.75 -4.1 -2.5 -4.4 -2.5 L-4.75 -2.5 -4.8 -2.55 Q-4.95 -2.6 -5.05 -2.75 -5.15 -2.85 -5.15 -3.0 L-5.25 -3.0 -5.45 -2.95 -5.25 -2.65 -5.2 -2.6 -5.2 -2.55 Q-5.05 -2.45 -4.9 -2.35 -4.65 -2.25 -4.3 -2.25 L-3.95 -2.3 Q-3.75 -2.4 -3.5 -2.55 L-3.25 -2.8 -3.3 -2.85 -3.5 -2.9 M-4.7 -2.9 L-4.75 -3.0 -5.0 -3.0 -5.0 -2.95 -4.9 -2.8 Q-4.7 -2.65 -4.6 -2.65 -4.35 -2.65 -4.15 -2.75 L-4.1 -2.8 Q-4.0 -2.9 -4.0 -3.0 L-4.35 -3.05 -4.35 -2.95 -4.5 -2.95 -4.35 -2.9 Q-4.4 -2.85 -4.55 -2.85 -4.65 -2.85 -4.7 -2.9 M-4.4 -3.05 L-4.4 -3.05 M-5.8 -2.65 L-5.75 -2.55 -5.75 -2.65 -5.8 -2.65 M-4.75 -1.05 Q-4.75 -0.9 -4.85 -0.9 -5.0 -0.9 -5.0 -1.0 -5.0 -1.15 -4.85 -1.2 -4.75 -1.2 -4.75 -1.05 M-3.1 -1.1 L-3.05 -1.1 -3.05 -1.15 -3.0 -1.2 -2.95 -1.2 -2.95 -1.15 -3.0 -1.05 -3.05 -0.85 -3.05 -0.75 Q-3.05 -0.65 -2.75 -0.45 L-2.65 -0.4 -2.45 -0.25 -2.6 -0.25 -2.65 -0.25 Q-2.75 -0.25 -2.95 -0.35 -3.05 -0.4 -3.15 -0.45 -3.25 -0.55 -3.25 -0.7 L-3.15 -0.95 -3.1 -1.1 M-2.1 -0.5 Q-2.0 -0.5 -1.95 -0.45 L-1.9 -0.4 -1.95 -0.35 -1.95 -0.3 -2.0 -0.3 Q-2.1 -0.25 -2.15 -0.25 L-2.2 -0.25 -2.25 -0.25 Q-2.3 -0.25 -2.3 -0.3 L-2.3 -0.35 -2.25 -0.45 -2.15 -0.5 -2.1 -0.5 M-1.35 1.25 L-1.5 1.4 Q-1.7 1.6 -1.95 1.7 L-2.35 1.75 -2.4 1.75 Q-2.75 1.75 -2.95 1.5 L-2.95 1.45 -3.05 1.25 -3.1 1.2 -3.1 1.15 -3.1 1.1 -3.05 1.05 -3.1 1.05 -3.15 1.0 -3.15 0.95 -3.2 0.85 -3.15 0.7 -3.05 0.55 -3.05 0.6 Q-2.95 0.3 -2.65 0.2 L-2.45 0.15 -2.15 0.1 Q-2.0 0.15 -1.85 0.2 -1.65 0.25 -1.55 0.35 -1.25 0.55 -1.2 0.85 -1.2 1.05 -1.35 1.2 L-1.35 1.25 M-1.45 0.7 L-1.6 0.6 Q-1.9 0.35 -2.15 0.35 -2.65 0.35 -2.9 0.7 L-2.95 0.9 -2.9 0.9 -2.55 0.95 -2.25 0.85 Q-1.85 0.7 -1.55 0.7 L-1.45 0.7 M-2.7 1.1 L-2.9 1.05 -2.95 1.05 -2.9 1.25 -2.85 1.3 -2.7 1.5 -2.3 1.55 Q-1.8 1.55 -1.5 1.25 -1.35 1.1 -1.35 0.95 L-1.45 0.95 -1.65 0.9 -2.0 0.95 -2.5 1.05 -2.6 1.05 -2.7 1.1" fill="#111111" fill-rule="evenodd" stroke="none"/>
    <path d="M11.95 -21.5 L11.75 -21.15 Q11.3 -20.45 10.95 -19.7 L10.9 -19.7 Q10.55 -19.55 10.25 -19.55 L10.15 -19.55 10.15 -19.6 10.4 -20.3 10.5 -20.7 Q11.2 -21.15 11.95 -21.5 M7.75 -16.45 L7.4 -15.95 7.2 -15.55 7.1 -17.05 7.15 -17.1 7.7 -17.95 Q7.65 -17.7 7.65 -17.4 7.65 -17.15 7.75 -16.65 L7.75 -16.45 M8.8 -14.8 Q8.25 -14.6 7.6 -14.2 L7.0 -13.75 7.1 -14.05 Q7.1 -14.1 7.2 -14.25 L7.25 -14.4 7.35 -14.6 Q7.6 -14.75 8.2 -15.0 L9.05 -15.35 Q8.9 -15.15 8.8 -14.8 M7.05 -10.95 L5.95 -10.5 5.65 -10.35 6.0 -11.2 6.3 -12.0 7.35 -12.45 8.45 -12.95 Q8.25 -12.75 7.85 -12.25 7.2 -11.3 7.05 -10.95 M7.2 -10.2 L7.1 -10.15 6.7 -9.75 5.95 -8.9 5.9 -8.9 Q5.4 -8.85 5.0 -8.4 L5.35 -9.5 6.2 -9.8 7.2 -10.2 M4.35 -11.1 Q4.5 -11.7 4.8 -12.5 L4.9 -12.85 4.9 -12.2 Q4.9 -11.65 5.0 -10.4 4.9 -10.25 4.7 -9.85 4.55 -9.6 4.45 -9.3 4.3 -10.25 4.3 -10.7 L4.3 -10.85 4.35 -11.1" fill="#333333" fill-rule="evenodd" stroke="none"/>
    <path d="M11.95 -21.5 L12.05 -21.5 11.25 -19.85 10.95 -19.7 Q11.3 -20.45 11.75 -21.15 L11.95 -21.5 M7.2 -15.55 L7.4 -15.95 7.75 -16.45 7.8 -16.15 7.2 -15.15 7.2 -15.55 M8.8 -14.8 Q8.9 -15.15 9.05 -15.35 L9.35 -15.5 9.1 -14.85 8.8 -14.8 M8.45 -12.95 L8.5 -13.0 8.35 -12.35 8.35 -12.25 8.3 -12.15 8.2 -12.0 Q8.1 -11.75 7.95 -11.55 L7.75 -11.35 7.65 -11.3 7.2 -11.0 7.05 -10.95 Q7.2 -11.3 7.85 -12.25 8.25 -12.75 8.45 -12.95 M7.2 -10.2 L7.35 -10.25 7.35 -10.2 Q7.15 -9.7 6.95 -9.45 6.65 -9.05 5.95 -8.9 L6.7 -9.75 7.1 -10.15 7.2 -10.2 M4.9 -12.85 L4.8 -12.5 Q4.5 -11.7 4.35 -11.1 L4.3 -11.1 Q4.35 -12.0 4.55 -12.5 4.65 -12.85 5.05 -13.7 L5.0 -13.5 4.95 -13.0 4.9 -12.85 M4.45 -9.3 Q4.55 -9.6 4.7 -9.85 4.9 -10.25 5.0 -10.4 L5.05 -9.9 5.05 -9.85 4.7 -9.0 4.55 -8.6 4.45 -9.15 4.45 -9.3 M4.35 -7.5 L4.5 -7.85 4.55 -7.8 4.55 -7.75 4.35 -7.25 4.25 -7.2 4.35 -7.5 M4.65 -8.1 L4.6 -7.95 4.6 -8.0 4.7 -8.25 4.65 -8.1" fill="#252222" fill-rule="evenodd" stroke="none"/>
    <path d="M7.9 -16.6 L7.85 -17.35 Q7.85 -17.9 8.05 -18.4 L8.35 -18.8 Q9.2 -19.8 10.25 -20.55 L10.15 -20.35 Q9.9 -19.8 9.9 -19.55 L9.9 -19.35 9.65 -19.05 9.6 -19.05 Q9.0 -18.45 8.0 -16.8 L7.9 -16.6 M10.8 -19.45 L10.7 -19.3 10.2 -18.5 Q9.85 -18.1 9.15 -17.6 L8.8 -17.35 9.95 -19.35 10.8 -19.45 M5.65 -12.8 Q5.8 -14.1 6.0 -15.1 6.05 -15.4 6.15 -15.7 L7.0 -16.95 Q6.95 -16.45 6.95 -15.55 6.95 -15.5 7.0 -15.3 6.65 -14.9 6.4 -14.35 6.05 -13.55 5.85 -13.15 L5.65 -12.8 M9.9 -17.55 L9.75 -17.3 Q9.45 -16.5 9.35 -16.25 9.15 -15.85 8.4 -15.45 L7.4 -14.8 7.7 -15.45 8.5 -16.8 9.4 -17.3 9.9 -17.55 M9.35 -15.65 L9.45 -15.75 9.4 -15.65 9.35 -15.65 M8.85 -14.7 L8.8 -14.6 8.35 -13.5 Q8.35 -13.35 7.3 -12.7 L7.0 -12.55 6.4 -12.25 6.95 -13.5 7.6 -14.05 Q8.25 -14.45 8.85 -14.7 M8.25 -13.15 L8.25 -13.15" fill="#d0ccc0" fill-rule="evenodd" stroke="none"/>
    <path d="M7.9 -16.6 L8.0 -16.8 Q9.0 -18.45 9.6 -19.05 L9.65 -19.05 Q9.1 -18.35 8.65 -17.5 L8.6 -17.45 8.35 -16.95 8.3 -16.9 Q8.2 -16.8 8.2 -16.75 L7.9 -16.3 7.9 -16.6 M10.8 -19.45 L11.1 -19.55 10.7 -18.65 10.4 -18.0 10.35 -17.95 10.35 -17.9 10.15 -17.85 9.25 -17.45 9.15 -17.4 8.7 -17.15 8.8 -17.35 9.15 -17.6 Q9.85 -18.1 10.2 -18.5 L10.7 -19.3 10.8 -19.45 M7.0 -15.3 L7.05 -15.15 7.05 -15.1 7.1 -14.95 6.65 -14.1 Q6.3 -13.4 5.65 -11.4 L5.5 -11.0 5.6 -12.1 5.6 -12.25 5.65 -12.8 5.85 -13.15 Q6.05 -13.55 6.4 -14.35 6.65 -14.9 7.0 -15.3 M7.4 -14.8 L8.4 -15.45 Q9.15 -15.85 9.35 -16.25 9.45 -16.5 9.75 -17.3 L9.9 -17.55 10.3 -17.8 Q9.8 -16.7 9.45 -15.75 L9.35 -15.65 Q8.8 -15.6 8.1 -15.2 7.7 -15.0 7.4 -14.75 L7.4 -14.8 M7.0 -12.55 L7.3 -12.7 Q8.35 -13.35 8.35 -13.5 L8.8 -14.6 8.85 -14.7 9.0 -14.75 9.1 -14.8 Q8.75 -13.9 8.55 -13.05 8.0 -13.05 7.0 -12.55 M8.25 -13.15 L8.25 -13.15" fill="#a39772" fill-rule="evenodd" stroke="none"/>
    <path d="M12.65 -7.35 L12.6 -7.35 Q11.95 -7.0 10.9 -6.6 L9.4 -6.7 10.3 -7.25 10.2 -7.25 Q9.85 -7.2 9.05 -6.75 L8.95 -6.7 8.7 -7.05 8.65 -7.0 8.8 -6.7 8.7 -6.7 6.7 -6.75 6.75 -6.8 6.6 -6.8 6.5 -7.2 6.55 -7.65 6.65 -7.6 7.05 -7.55 8.25 -7.65 Q10.1 -7.85 11.65 -8.3 13.5 -8.8 14.6 -9.0 L14.6 -8.95 14.05 -8.5 12.85 -7.5 12.65 -7.35 M1.9 -8.05 L1.7 -8.05 1.75 -8.7 1.8 -9.5 2.25 -9.8 Q2.05 -9.9 1.8 -9.8 L1.8 -9.85 1.75 -10.45 1.75 -10.55 Q2.0 -10.4 2.2 -10.4 L2.2 -10.45 Q2.15 -10.55 1.7 -10.8 L1.7 -11.2 Q1.75 -11.55 1.55 -12.0 L1.5 -12.1 Q3.35 -11.95 3.7 -11.7 L3.7 -11.75 3.75 -11.65 3.65 -11.2 3.6 -11.25 Q2.95 -11.25 2.85 -11.15 L3.35 -11.05 3.65 -11.05 Q3.6 -10.6 3.35 -10.1 3.2 -9.6 2.9 -9.15 2.6 -8.65 1.9 -8.05 M1.0 -12.15 L1.0 -11.9 1.05 -11.6 1.15 -11.25 1.1 -11.1 1.15 -11.05 1.05 -11.1 1.0 -11.1 1.1 -11.05 0.8 -10.2 0.4 -8.95 Q0.2 -8.5 -0.4 -7.9 L-0.85 -7.9 -3.85 -7.95 -3.7 -8.0 Q-3.95 -8.05 -4.75 -8.0 L-5.05 -8.0 Q-5.25 -8.05 -5.45 -8.15 -6.55 -8.65 -6.6 -9.55 L-6.7 -9.85 -6.7 -9.8 -6.6 -10.25 -6.35 -10.85 -6.15 -11.45 -6.05 -11.45 -4.4 -11.3 -3.3 -11.15 -1.2 -11.05 -0.4 -11.1 0.1 -11.2 -0.85 -11.3 -0.95 -11.3 -2.55 -11.55 -4.65 -11.8 -5.15 -11.85 -6.1 -11.95 -6.0 -12.1 Q-5.85 -12.3 -5.35 -12.4 L-4.75 -12.35 -3.8 -12.35 0.4 -12.15 1.0 -12.15 M1.45 -8.1 L1.45 -8.05 1.3 -8.0 1.4 -8.05 1.45 -8.1 M2.8 -8.25 L2.75 -8.25 2.9 -8.45 2.8 -8.25 M1.35 -4.8 L1.6 -4.8 1.6 -4.85 Q2.65 -4.95 3.55 -5.2 4.25 -5.35 4.8 -5.5 5.4 -5.7 6.05 -6.1 L6.3 -6.25 6.45 -6.35 6.5 -6.35 Q6.55 -6.35 6.6 -6.45 L6.65 -6.5 6.6 -6.5 6.6 -6.7 6.65 -6.75 8.05 -6.6 8.65 -6.55 7.9 -6.1 Q8.3 -6.15 8.9 -6.45 L9.05 -6.15 Q9.15 -6.25 9.15 -6.3 L9.1 -6.5 9.1 -6.55 10.5 -6.45 8.05 -5.5 8.1 -5.5 9.15 -5.7 8.4 -5.4 Q8.0 -5.15 6.5 -5.0 L3.55 -4.8 1.35 -4.8 M-2.2 -4.75 L-6.0 -5.15 -8.15 -5.6 Q-10.15 -5.95 -12.6 -5.95 L-14.6 -5.8 -15.0 -5.7 -16.1 -5.6 -16.35 -5.55 -16.5 -5.7 -16.55 -5.85 -16.55 -5.95 -16.5 -6.0 Q-16.3 -6.05 -16.1 -6.15 L-14.05 -6.15 -13.35 -6.2 -12.45 -6.15 -11.4 -6.15 -10.15 -6.0 -9.3 -5.95 -8.05 -5.8 -7.95 -5.75 -6.8 -5.55 -6.7 -5.5 -6.7 -5.55 -6.05 -5.45 Q-4.65 -5.05 -2.1 -4.85 L-2.2 -4.75" fill="#b00000" fill-rule="evenodd" stroke="none"/>
    <path d="M12.65 -7.35 L12.85 -7.5 14.05 -8.5 14.6 -8.95 14.55 -8.8 14.2 -8.3 13.3 -7.4 12.8 -7.1 Q12.1 -6.6 11.35 -6.25 11.3 -6.35 11.25 -6.45 12.1 -6.9 13.15 -7.6 L12.8 -7.4 12.65 -7.35 M1.9 -8.05 Q2.6 -8.65 2.9 -9.15 3.2 -9.6 3.35 -10.1 3.6 -10.6 3.65 -11.05 L3.85 -11.0 3.9 -11.0 Q3.95 -10.6 4.1 -10.3 4.1 -9.75 4.15 -9.25 L4.15 -9.15 4.25 -8.55 4.05 -8.55 2.95 -8.3 2.8 -8.25 2.9 -8.45 2.75 -8.25 2.15 -8.1 1.9 -8.05 M3.65 -11.2 L3.75 -11.65 3.85 -11.2 3.65 -11.2 M1.15 -11.05 L1.1 -11.1 1.15 -11.25 1.05 -11.6 1.0 -11.9 1.0 -12.15 1.05 -12.15 1.05 -12.1 1.1 -12.1 Q1.4 -11.9 1.45 -11.55 1.45 -11.15 1.5 -10.95 L1.5 -10.9 1.4 -10.95 1.35 -11.0 1.25 -11.0 1.15 -11.05 M-0.85 -11.3 L0.1 -11.2 -0.4 -11.1 -1.2 -11.05 -3.3 -11.15 -4.4 -11.3 -6.05 -11.45 -6.15 -11.45 -6.1 -11.7 -5.55 -11.6 -4.45 -11.5 -2.1 -11.3 -0.85 -11.3 M-6.7 -9.8 L-6.7 -9.85 -6.6 -9.55 Q-6.55 -8.65 -5.45 -8.15 -5.25 -8.05 -5.05 -8.0 L-6.5 -7.85 -7.2 -7.95 -7.4 -7.95 Q-7.25 -8.2 -7.05 -8.75 L-7.0 -8.95 -6.85 -9.35 -6.7 -9.8 M-0.4 -7.9 Q0.2 -8.5 0.4 -8.95 L0.8 -10.2 1.1 -11.05 1.35 -10.85 1.5 -10.7 1.55 -10.7 Q1.6 -10.25 1.6 -9.7 L1.5 -9.65 1.4 -9.55 Q1.05 -9.35 1.05 -9.2 1.05 -9.15 1.1 -9.15 L1.1 -9.2 Q1.2 -9.2 1.35 -9.25 L1.4 -9.3 1.5 -9.35 1.55 -9.4 1.5 -9.05 1.45 -8.1 1.4 -8.05 1.3 -8.0 0.95 -8.0 0.6 -7.95 0.4 -7.95 0.1 -7.9 -0.4 -7.9 M1.35 -4.8 L3.55 -4.8 6.5 -5.0 Q8.0 -5.15 8.4 -5.4 L9.15 -5.7 9.85 -5.9 10.4 -6.1 10.85 -6.25 10.95 -6.3 11.0 -6.35 Q11.1 -6.3 11.15 -6.25 L11.15 -6.15 10.7 -5.95 Q8.8 -5.25 8.4 -5.15 6.95 -4.8 3.7 -4.5 L1.55 -4.5 1.5 -4.55 0.5 -4.55 -2.2 -4.75 -2.1 -4.85 -1.1 -4.75 0.65 -4.75 0.9 -4.8 1.35 -4.8 M-15.0 -5.7 Q-15.65 -5.6 -15.85 -5.4 L-15.3 -5.5 -13.05 -5.55 -11.25 -5.45 -8.45 -5.2 -7.85 -5.1 -7.4 -5.05 Q-7.8 -4.5 -7.95 -4.05 -8.1 -3.55 -8.1 -2.9 -8.1 -2.6 -8.0 -2.3 -9.75 -2.95 -12.5 -3.75 -14.75 -4.5 -16.3 -5.45 L-16.35 -5.55 -16.1 -5.6 -15.0 -5.7" fill="#600000" fill-rule="evenodd" stroke="none"/>
    <path d="M4.35 -11.1 L4.3 -10.85 4.3 -11.05 4.35 -11.1" fill="#4d3824" fill-rule="evenodd" stroke="none"/>
    <path d="M6.15 -6.6 L6.25 -6.65 6.15 -6.6 M-8.3 -6.05 L-8.3 -6.0 -8.4 -6.05 -8.3 -6.05" fill="#80c0f0" fill-rule="evenodd" stroke="none"/>
    <path d="M3.2 -3.7 L3.1 -3.8 2.9 -4.15 3.85 -4.15 4.15 -3.5 4.45 -2.9 4.75 -1.9 4.75 -1.85 4.8 -1.65 5.05 -0.7 5.05 -0.6 5.05 -0.4 5.0 -0.55 4.5 -1.55 4.5 -1.65 Q4.5 -2.1 4.35 -2.8 L4.3 -2.85 4.3 -2.95 4.15 -3.1 Q3.85 -3.4 3.2 -3.7 M-1.6 -4.3 L-1.0 -4.3 0.5 -4.2 1.45 -4.15 2.85 -4.15 3.0 -3.9 1.45 -4.0 -0.25 -3.9 -0.5 -3.9 -0.45 -3.85 1.0 -2.6 Q1.6 -2.05 3.0 -1.35 L4.15 -0.85 4.2 -0.85 4.25 -1.0 4.3 -0.95 4.6 -0.65 4.35 -1.05 4.3 -1.1 4.4 -1.35 4.4 -1.45 4.4 -1.35 5.0 -0.25 4.05 -0.7 3.65 -0.85 1.9 -1.6 1.9 -1.5 2.05 -1.45 2.65 -1.05 Q2.15 -1.3 1.6 -1.65 L1.5 -1.7 Q0.05 -2.8 -1.5 -4.15 L-1.55 -4.25 -1.6 -4.3 M3.65 -0.45 L3.7 -0.4 Q4.6 0.05 5.1 0.15 L5.2 0.15 5.25 0.5 3.4 -0.4 2.95 -0.6 Q1.3 -1.4 0.25 -2.0 L-0.3 -2.45 -0.05 -2.25 Q0.75 -1.45 1.65 -0.8 L1.5 -0.85 Q2.15 -0.55 2.75 -0.45 4.55 0.55 5.05 0.55 L5.25 0.6 5.25 0.95 3.5 0.3 3.4 0.3 3.25 0.2 3.25 0.25 3.3 0.25 Q3.0 0.15 2.45 -0.1 1.9 -0.45 1.55 -0.7 L1.6 -0.7 1.35 -0.8 0.8 -1.25 0.6 -1.4 Q-0.15 -2.05 -1.05 -3.0 L-2.2 -4.2 -2.3 -4.4 -2.25 -4.4 -2.05 -4.35 -1.9 -4.35 -1.05 -3.5 -0.3 -2.85 Q0.1 -2.5 0.55 -2.2 2.2 -1.15 3.5 -0.4 L3.65 -0.45 M0.6 -1.75 L0.75 -1.65 Q1.3 -1.3 2.2 -0.8 L2.2 -0.75 2.25 -0.75 2.3 -0.7 2.4 -0.7 2.6 -0.55 Q1.6 -1.05 0.6 -1.75 M-7.35 -4.45 L-7.3 -4.75 -7.3 -5.05 -7.1 -5.05 Q-6.55 -4.95 -5.9 -4.85 L-5.9 -4.8 -5.85 -4.8 -4.9 -4.65 -4.8 -4.65 Q-5.0 -4.5 -5.15 -4.3 -5.6 -3.95 -5.9 -3.5 L-6.0 -3.5 -5.95 -3.45 -6.1 -3.45 -6.15 -3.5 -6.05 -3.7 Q-6.05 -3.75 -6.15 -3.9 L-6.1 -4.0 -6.1 -4.1 Q-6.15 -4.2 -6.3 -4.2 L-6.4 -4.2 Q-6.75 -4.65 -7.05 -4.65 -7.15 -4.65 -7.35 -4.45 M-6.25 -3.2 L-6.1 -3.1 Q-6.35 -2.55 -6.45 -1.9 L-6.45 -1.35 Q-6.45 -0.85 -6.3 -0.4 L-6.9 -1.1 Q-7.65 -2.05 -7.65 -2.9 L-7.55 -3.55 -7.55 -3.4 Q-7.5 -3.0 -7.4 -2.75 -7.25 -2.45 -7.05 -2.2 L-7.1 -2.8 -7.0 -3.5 Q-6.75 -2.5 -6.6 -2.05 -6.55 -2.35 -6.25 -3.2 M-5.9 -2.05 L-5.9 -2.15 -5.95 -2.15 -5.85 -2.5 Q-5.85 -0.85 -5.25 0.35 -5.05 0.85 -4.7 1.25 -5.0 1.0 -5.3 0.65 L-5.15 0.7 -5.45 0.4 -5.65 0.05 Q-6.1 -0.75 -6.1 -1.3 -6.1 -1.7 -6.0 -2.1 -5.95 -2.05 -5.9 -2.05" fill="#4d254a" fill-rule="evenodd" stroke="none"/>
    <path d="M3.2 -3.7 Q3.85 -3.4 4.15 -3.1 L4.3 -2.95 4.15 -3.0 Q3.95 -3.1 3.8 -2.95 3.85 -2.85 4.05 -2.65 L4.3 -2.45 Q4.25 -2.6 4.3 -2.7 L4.35 -2.8 Q4.5 -2.1 4.5 -1.65 L4.5 -1.55 4.3 -2.0 Q3.85 -2.75 3.2 -3.7 M5.0 -0.55 L5.05 -0.4 5.05 -0.6 5.15 -0.2 5.1 -0.2 5.0 -0.55 M-1.6 -4.3 L-1.55 -4.25 -1.6 -4.3 M1.6 -1.65 Q2.15 -1.3 2.65 -1.05 L3.35 -0.6 3.65 -0.45 3.5 -0.4 Q2.2 -1.15 0.55 -2.2 0.1 -2.5 -0.3 -2.85 L-1.05 -3.5 -1.9 -4.35 -1.75 -4.35 Q-1.2 -3.65 -0.2 -2.85 0.65 -2.15 1.6 -1.65 M4.4 -1.45 L4.4 -1.35 4.3 -1.1 4.0 -1.45 Q3.6 -1.9 3.15 -2.25 L3.1 -2.25 3.85 -1.45 4.3 -0.95 4.25 -1.0 4.2 -0.85 4.15 -0.85 3.0 -1.35 Q1.6 -2.05 1.0 -2.6 L-0.45 -3.85 -0.5 -3.9 -0.25 -3.9 1.45 -4.0 3.0 -3.9 4.1 -1.95 4.4 -1.45 M2.4 -3.15 Q2.45 -3.05 2.8 -2.9 L3.35 -2.65 3.25 -2.7 3.25 -2.8 2.5 -3.4 Q2.3 -3.4 2.25 -3.35 2.2 -3.3 2.25 -3.15 L2.1 -3.35 Q1.9 -3.55 1.75 -3.55 1.35 -3.55 1.35 -3.35 L1.4 -3.1 Q1.3 -3.15 1.1 -3.35 L0.8 -3.55 0.75 -3.45 1.25 -2.75 Q1.6 -2.2 1.85 -2.2 1.95 -2.2 2.05 -2.35 L2.1 -2.5 1.9 -2.95 2.05 -2.8 Q2.15 -2.7 2.25 -2.7 L2.35 -2.75 Q2.45 -2.8 2.5 -2.85 L2.45 -2.95 Q2.4 -3.0 2.4 -3.05 L2.4 -3.15 M-2.3 -4.4 L-2.2 -4.2 -2.35 -4.4 -2.3 -4.4 M2.75 -0.45 Q2.15 -0.55 1.5 -0.85 L1.65 -0.8 Q0.75 -1.45 -0.05 -2.25 L-0.3 -2.45 0.25 -2.0 0.6 -1.75 Q1.6 -1.05 2.6 -0.55 L2.75 -0.45 M-7.35 -4.45 Q-7.15 -4.65 -7.05 -4.65 -6.75 -4.65 -6.4 -4.2 -6.55 -4.2 -6.6 -4.05 -6.7 -4.25 -6.9 -4.2 L-7.35 -4.0 -7.2 -3.95 -7.0 -4.1 -6.8 -4.15 -6.75 -4.15 -6.75 -3.75 -6.55 -3.75 Q-6.35 -3.75 -6.2 -3.85 L-6.15 -3.9 Q-6.05 -3.75 -6.05 -3.7 L-6.15 -3.5 -6.25 -3.5 -6.5 -3.55 Q-6.5 -3.45 -6.3 -3.35 L-6.25 -3.25 -6.45 -3.4 -6.25 -3.2 Q-6.55 -2.35 -6.6 -2.05 -6.75 -2.5 -7.0 -3.5 L-7.1 -2.8 -7.05 -2.2 Q-7.25 -2.45 -7.4 -2.75 -7.5 -3.0 -7.55 -3.4 L-7.55 -3.55 -7.35 -4.45" fill="#663264" fill-rule="evenodd" stroke="none"/>
    <path d="M4.3 -2.95 L4.3 -2.85 4.35 -2.8 4.3 -2.7 Q4.25 -2.6 4.3 -2.45 L4.05 -2.65 Q3.85 -2.85 3.8 -2.95 3.95 -3.1 4.15 -3.0 L4.3 -2.95 M2.4 -3.15 L2.4 -3.05 Q2.4 -3.0 2.45 -2.95 L2.5 -2.85 Q2.45 -2.8 2.35 -2.75 L2.25 -2.7 Q2.15 -2.7 2.05 -2.8 L1.9 -2.95 2.1 -2.5 2.05 -2.35 Q1.95 -2.2 1.85 -2.2 1.6 -2.2 1.25 -2.75 L0.75 -3.45 0.8 -3.55 1.1 -3.35 Q1.3 -3.15 1.4 -3.1 L1.35 -3.35 Q1.35 -3.55 1.75 -3.55 1.9 -3.55 2.1 -3.35 L2.25 -3.15 Q2.2 -3.3 2.25 -3.35 2.3 -3.4 2.5 -3.4 L3.25 -2.8 3.25 -2.7 3.35 -2.65 2.8 -2.9 Q2.45 -3.05 2.4 -3.15 M-6.4 -4.2 L-6.3 -4.2 Q-6.15 -4.2 -6.1 -4.1 L-6.1 -4.0 -6.15 -3.9 -6.2 -3.85 Q-6.35 -3.75 -6.55 -3.75 L-6.75 -3.75 -6.75 -4.15 -6.8 -4.15 -7.0 -4.1 -7.2 -3.95 -7.35 -4.0 -6.9 -4.2 Q-6.7 -4.25 -6.6 -4.05 -6.55 -4.2 -6.4 -4.2" fill="#9f649c" fill-rule="evenodd" stroke="none"/>
    <path d="M5.0 -2.4 L4.95 -2.55 4.65 -3.2 4.75 -3.65 4.8 -3.7 Q5.1 -3.45 5.3 -3.15 L5.4 -3.35 Q5.4 -3.5 5.25 -3.65 5.1 -3.75 4.85 -3.8 5.05 -3.95 5.4 -4.05 L5.35 -4.1 5.1 -4.15 Q4.9 -4.15 4.65 -4.0 4.45 -3.85 4.4 -3.7 L4.15 -4.1 4.1 -4.15 4.7 -4.2 5.5 -4.25 Q5.65 -4.4 6.15 -4.45 6.15 -4.3 6.1 -4.05 5.85 -3.95 5.65 -3.95 L5.55 -3.9 Q5.65 -3.7 5.65 -3.35 5.65 -3.1 5.5 -2.85 5.35 -2.55 5.1 -2.4 L5.0 -2.4 M-4.75 -4.4 L-4.55 -4.65 -4.35 -4.6 -2.7 -4.45 -2.65 -4.4 -2.5 -4.4 Q-2.45 -3.85 -1.75 -3.0 -0.95 -2.1 0.25 -1.15 1.6 -0.15 2.75 0.4 L1.9 1.1 1.8 1.2 1.55 1.4 0.9 1.8 0.45 2.05 Q-0.65 2.5 -2.0 2.75 L-2.05 2.7 Q-0.8 2.45 0.2 1.85 1.15 1.2 1.4 0.6 L1.4 0.55 Q1.25 0.0 0.8 -0.5 0.35 -0.95 -0.4 -1.45 -0.9 -1.75 -1.35 -2.2 L-2.0 -2.85 -2.45 -3.6 -2.5 -3.75 -3.0 -3.8 -2.9 -3.8 Q-2.8 -3.5 -2.8 -3.3 -2.8 -3.1 -2.85 -2.85 -2.95 -2.65 -3.1 -2.55 -3.0 -2.65 -3.0 -2.8 -3.0 -2.85 -3.05 -2.9 L-3.05 -3.0 -3.0 -3.15 -3.0 -3.3 Q-3.0 -3.6 -3.1 -3.85 -3.2 -4.0 -3.35 -4.1 L-3.5 -4.25 -3.55 -4.25 Q-3.85 -4.45 -4.3 -4.4 L-4.3 -4.45 -4.75 -4.4 M-5.35 -0.9 L-5.4 -1.15 Q-5.6 -2.25 -5.75 -2.7 L-5.7 -2.85 -5.65 -2.9 Q-5.6 -2.75 -5.4 -2.5 -5.0 -2.1 -4.45 -2.0 L-4.5 -2.0 -4.75 -2.05 Q-5.2 -2.15 -5.3 -1.8 -5.4 -1.45 -5.4 -1.25 -5.35 -1.1 -5.35 -0.9 M-5.1 -3.9 L-5.1 -3.95 Q-4.85 -4.1 -4.45 -4.2 -3.95 -3.95 -3.6 -3.65 -3.3 -3.35 -3.15 -3.0 L-3.15 -2.95 Q-3.25 -3.05 -3.5 -3.1 L-3.55 -3.15 -4.0 -3.25 -4.25 -3.25 -4.85 -3.3 -5.45 -3.3 -5.15 -3.9 -5.1 -3.9 M-1.35 1.25 Q-1.35 1.45 -1.55 1.65 -1.8 1.95 -2.2 1.95 -2.75 1.95 -2.95 1.55 -3.05 1.35 -3.1 1.15 L-3.1 1.2 -3.05 1.25 -2.95 1.45 -2.95 1.5 Q-2.75 1.75 -2.4 1.75 L-2.35 1.75 -1.95 1.7 Q-1.7 1.6 -1.5 1.4 L-1.35 1.25 M-3.1 1.15 L-3.1 1.05 -3.05 1.05 -3.1 1.1 -3.1 1.15 M-2.7 1.1 L-2.6 1.05 -2.5 1.05 -2.0 0.95 -1.65 0.9 -1.45 0.95 -1.35 0.95 Q-1.35 1.1 -1.5 1.25 -1.8 1.55 -2.3 1.55 L-2.7 1.5 -2.85 1.3 -2.9 1.25 -2.95 1.05 -2.9 1.05 -2.7 1.1 M-1.45 0.7 L-1.55 0.7 Q-1.85 0.7 -2.25 0.85 L-2.55 0.95 -2.9 0.9 -2.95 0.9 -2.9 0.7 Q-2.65 0.35 -2.15 0.35 -1.9 0.35 -1.6 0.6 L-1.45 0.7 M-1.75 1.25 Q-1.7 1.15 -1.7 1.1 -1.7 0.95 -1.85 1.0 -2.05 1.05 -2.05 1.2 L-2.05 1.25 Q-2.0 1.3 -1.95 1.3 -1.85 1.3 -1.75 1.25" fill="#997d54" fill-rule="evenodd" stroke="none"/>
    <path d="M-3.5 -2.9 L-3.3 -2.85 -3.25 -2.8 -3.5 -2.55 Q-3.75 -2.4 -3.95 -2.3 L-4.3 -2.25 Q-4.65 -2.25 -4.9 -2.35 -5.05 -2.45 -5.2 -2.55 L-5.2 -2.6 -5.25 -2.65 -5.45 -2.95 -5.25 -3.0 -5.15 -3.0 Q-5.15 -2.85 -5.05 -2.75 -4.95 -2.6 -4.8 -2.55 L-4.75 -2.5 -4.4 -2.5 Q-4.1 -2.5 -3.9 -2.75 -3.8 -2.85 -3.75 -2.95 L-3.65 -2.95 -3.5 -2.9" fill="#ffffff" fill-rule="evenodd" stroke="none"/>
    <path d="M5.0 -2.4 L5.1 -2.4 Q5.35 -2.55 5.5 -2.85 5.65 -3.1 5.65 -3.35 5.65 -3.7 5.55 -3.9 L5.65 -3.95 Q5.85 -3.95 6.1 -4.05 L6.1 -4.0 Q6.05 -3.45 6.0 -3.2 5.85 -2.9 5.5 -2.4 L5.15 -1.9 5.0 -2.4 M-3.55 -4.25 L-3.5 -4.25 -3.55 -4.25 M-3.1 -2.55 Q-2.95 -2.65 -2.85 -2.85 -2.8 -3.1 -2.8 -3.3 -2.8 -3.5 -2.9 -3.8 L-3.0 -3.8 -2.5 -3.75 -2.45 -3.6 -2.0 -2.85 -1.35 -2.2 Q-0.9 -1.75 -0.4 -1.45 0.35 -0.95 0.8 -0.5 1.25 0.0 1.4 0.55 L1.4 0.6 Q1.15 1.2 0.2 1.85 -0.8 2.45 -2.05 2.7 -2.3 2.55 -3.1 2.15 -3.85 1.75 -4.05 1.5 L-4.4 1.1 -4.7 0.75 Q-5.05 0.25 -5.25 -0.25 L-5.35 -0.9 Q-5.35 -1.1 -5.4 -1.25 -5.4 -1.45 -5.3 -1.8 -5.2 -2.15 -4.75 -2.05 L-4.5 -2.0 -4.45 -2.0 -4.2 -2.0 Q-4.1 -2.0 -3.85 -2.1 L-3.8 -2.15 Q-3.55 -2.2 -3.35 -2.3 L-3.1 -2.55 M-4.75 -4.4 L-4.75 -4.4 M-4.75 -1.05 Q-4.75 -1.2 -4.85 -1.2 -5.0 -1.15 -5.0 -1.0 -5.0 -0.9 -4.85 -0.9 -4.75 -0.9 -4.75 -1.05 M-1.9 -0.4 Q-1.85 -0.55 -1.85 -0.65 -1.85 -1.2 -2.45 -1.35 -3.0 -1.5 -3.1 -1.1 L-3.15 -0.95 -3.25 -0.7 Q-3.25 -0.55 -3.15 -0.45 -3.05 -0.4 -2.95 -0.35 -2.75 -0.25 -2.65 -0.25 L-2.6 -0.25 -2.3 -0.2 -2.25 -0.2 Q-2.05 -0.2 -1.95 -0.3 L-1.95 -0.35 -1.9 -0.4 M-3.1 1.15 Q-3.05 1.35 -2.95 1.55 -2.75 1.95 -2.2 1.95 -1.8 1.95 -1.55 1.65 -1.35 1.45 -1.35 1.25 L-1.35 1.2 Q-1.2 1.05 -1.2 0.85 -1.25 0.55 -1.55 0.35 -1.65 0.25 -1.85 0.2 -2.0 0.15 -2.15 0.1 L-2.45 0.15 -2.65 0.2 Q-2.95 0.3 -3.05 0.6 L-3.05 0.55 -3.15 0.7 -3.2 0.85 -3.15 0.95 -3.15 1.0 -3.1 1.05 -3.1 1.15" fill="#b69562" fill-rule="evenodd" stroke="none"/>
    <path d="M-4.15 -2.9 L-4.15 -2.9 -4.3 -2.75 Q-4.4 -2.7 -4.6 -2.7 -4.75 -2.7 -4.8 -2.75 L-4.9 -2.85 -4.7 -2.9 Q-4.65 -2.85 -4.55 -2.85 -4.4 -2.85 -4.35 -2.9 L-4.15 -2.9" fill="#009900" fill-rule="evenodd" stroke="none"/>
    <path d="M-3.0 -1.05 L-2.95 -1.15 -2.95 -1.2 -3.0 -1.2 -3.05 -1.15 -3.05 -1.1 -3.1 -1.1 Q-3.0 -1.5 -2.45 -1.35 -1.85 -1.2 -1.85 -0.65 -1.85 -0.55 -1.9 -0.4 L-1.95 -0.45 Q-2.0 -0.5 -2.1 -0.5 L-2.1 -0.55 Q-2.1 -0.7 -2.25 -0.85 -2.4 -1.1 -2.75 -1.1 L-3.0 -1.05 M-2.25 -0.2 L-2.2 -0.25 -2.15 -0.25 Q-2.1 -0.25 -2.0 -0.3 L-1.95 -0.3 Q-2.05 -0.2 -2.25 -0.2" fill="#b67962" fill-rule="evenodd" stroke="none"/>
    <path d="M-2.65 -0.4 L-2.75 -0.45 Q-3.05 -0.65 -3.05 -0.75 L-3.05 -0.85 -2.85 -0.9 -2.65 -0.85 -2.7 -0.75 -2.7 -0.7 Q-2.65 -0.7 -2.55 -0.7 L-2.5 -0.7 -2.5 -0.65 Q-2.5 -0.6 -2.6 -0.45 L-2.65 -0.4" fill="#b66262" fill-rule="evenodd" stroke="none"/>
    <path d="M-3.0 -1.05 L-2.75 -1.1 Q-2.4 -1.1 -2.25 -0.85 -2.1 -0.7 -2.1 -0.55 L-2.1 -0.5 -2.15 -0.5 -2.25 -0.45 -2.3 -0.35 -2.3 -0.3 Q-2.3 -0.25 -2.25 -0.25 L-2.2 -0.25 -2.25 -0.2 -2.3 -0.2 -2.6 -0.25 -2.45 -0.25 -2.65 -0.4 -2.6 -0.45 Q-2.5 -0.6 -2.5 -0.65 L-2.5 -0.7 -2.45 -0.75 Q-2.45 -0.8 -2.45 -0.85 -2.45 -0.95 -2.55 -0.9 L-2.65 -0.85 -2.85 -0.9 -3.05 -0.85 -3.0 -1.05" fill="#b66b62" fill-rule="evenodd" stroke="none"/>
    <path d="M-2.65 -0.85 L-2.55 -0.9 Q-2.45 -0.95 -2.45 -0.85 -2.45 -0.8 -2.45 -0.75 L-2.5 -0.7 -2.55 -0.7 Q-2.65 -0.7 -2.7 -0.7 L-2.7 -0.75 -2.65 -0.85 M-1.75 1.25 Q-1.85 1.3 -1.95 1.3 -2.0 1.3 -2.05 1.25 L-2.05 1.2 Q-2.05 1.05 -1.85 1.0 -1.7 0.95 -1.7 1.1 -1.7 1.15 -1.75 1.25" fill="#eccfa2" fill-rule="evenodd" stroke="none"/>
    <path d="M-4.15 -2.9 L-4.2 -3.0 -4.35 -2.95 -4.35 -3.05 -4.0 -3.0 Q-4.0 -2.9 -4.1 -2.8 L-4.15 -2.75 Q-4.35 -2.65 -4.6 -2.65 -4.7 -2.65 -4.9 -2.8 L-5.0 -2.95 -5.0 -3.0 -4.75 -3.0 -4.7 -2.9 -4.9 -2.85 -4.8 -2.75 Q-4.75 -2.7 -4.6 -2.7 -4.4 -2.7 -4.3 -2.75 L-4.15 -2.9 -4.15 -2.9 M-4.4 -3.05 L-4.4 -3.05" fill="#024d02" fill-rule="evenodd" stroke="none"/>
    <path d="M-4.35 -2.95 L-4.2 -3.0 -4.15 -2.9 -4.35 -2.9 -4.5 -2.95 -4.35 -2.95" fill="#c1e7c1" fill-rule="evenodd" stroke="none"/>
    <path d="M5.5 -8.05 L5.55 -8.0 5.6 -7.85 Q5.45 -7.7 5.45 -7.65 L5.45 -7.6 4.65 -7.35 4.75 -7.7 5.25 -7.95 5.5 -8.05" fill="#10173f" fill-rule="evenodd" stroke="none"/>
    <path d="M5.95 -7.6 L5.95 -7.55 Q6.05 -7.3 5.8 -7.05 5.6 -6.8 5.15 -6.65 4.35 -6.2 3.8 -6.05 L3.8 -6.0 Q3.3 -5.85 2.4 -5.7 L2.1 -5.65 2.25 -5.65 -0.3 -5.5 -2.8 -5.4 -4.0 -5.5 -4.1 -5.5 -2.1 -5.7 0.5 -6.0 0.85 -6.05 Q2.85 -6.45 4.1 -6.8 L4.35 -6.9 4.5 -6.95 4.55 -6.95 4.55 -6.9 4.6 -7.0 Q5.3 -7.25 5.95 -7.6 M4.1 -7.45 Q2.85 -7.0 1.6 -6.7 L-1.3 -6.25 Q-4.25 -5.8 -5.4 -5.8 L-6.95 -5.95 -6.25 -5.9 Q-3.1 -5.9 0.45 -7.05 2.25 -7.65 4.3 -8.55 L4.4 -8.15 4.1 -7.45 M4.75 -7.7 L4.85 -7.95 Q5.0 -8.1 5.3 -8.3 L5.45 -8.4 Q5.45 -8.25 5.5 -8.05 L5.25 -7.95 4.75 -7.7 M-8.1 -6.95 Q-8.0 -7.2 -7.8 -7.5 L-7.6 -7.8 -7.45 -7.8 Q-5.85 -7.4 -5.4 -7.35 -4.15 -7.15 -1.85 -7.05 L-3.3 -6.7 -4.4 -6.8 Q-5.3 -6.95 -5.75 -7.05 L-5.8 -7.0 Q-5.45 -6.8 -4.6 -6.6 L-5.75 -6.6 -7.55 -6.9 -8.1 -6.95" fill="#192466" fill-rule="evenodd" stroke="none"/>
    <path d="M-4.1 -5.5 L-4.0 -5.5 -2.8 -5.4 -0.3 -5.5 2.25 -5.65 2.1 -5.65 2.4 -5.7 Q3.3 -5.85 3.8 -6.0 L3.8 -6.05 Q4.35 -6.2 5.15 -6.65 5.6 -6.8 5.8 -7.05 6.05 -7.3 5.95 -7.55 L5.95 -7.6 6.3 -7.8 Q6.25 -7.3 6.25 -7.0 L6.25 -6.65 6.15 -6.6 5.7 -6.4 Q4.9 -6.05 4.35 -5.85 2.3 -5.2 -1.2 -5.2 L-2.85 -5.25 -4.7 -5.45 -5.2 -5.5 -4.1 -5.5 M0.55 -7.75 L0.8 -7.75 -0.6 -7.35 -5.05 -7.7 -1.55 -7.7 -0.6 -7.65 0.55 -7.75 M4.1 -7.45 L4.0 -7.15 4.0 -7.1 Q2.65 -6.65 2.2 -6.6 L-0.95 -6.05 Q-2.3 -5.85 -5.85 -5.6 L-7.0 -5.75 -8.3 -6.0 -8.3 -6.05 -8.25 -6.0 -7.3 -5.95 -6.95 -5.95 -5.4 -5.8 Q-4.25 -5.8 -1.3 -6.25 L1.6 -6.7 Q2.85 -7.0 4.1 -7.45 M-8.1 -6.95 L-7.55 -6.9 -5.75 -6.6 -4.6 -6.6 Q-5.45 -6.8 -5.8 -7.0 L-5.75 -7.05 Q-5.3 -6.95 -4.4 -6.8 L-3.3 -6.7 -3.75 -6.6 Q-6.2 -6.1 -7.95 -6.1 L-8.4 -6.1 Q-8.3 -6.35 -8.15 -6.9 L-8.1 -6.9 -8.1 -6.95" fill="#060e3f" fill-rule="evenodd" stroke="none"/>
  </g>
</svg>
