<?xml version="1.0" encoding="UTF-8" standalone="no"?>
<svg xmlns:ffdec="https://www.free-decompiler.com/flash" xmlns:xlink="http://www.w3.org/1999/xlink" ffdec:objectType="shape" height="6.8px" width="6.35px" xmlns="http://www.w3.org/2000/svg">
  <g transform="matrix(1.0, 0.0, 0.0, 1.0, 3.2, 6.3)">
    <path d="M2.55 -5.8 Q3.05 -5.4 3.05 -4.8 3.05 -4.35 2.65 -4.0 2.9 -3.85 3.0 -3.6 3.05 -3.5 3.05 -3.15 3.05 -2.95 2.9 -2.75 L3.1 -2.55 Q3.15 -2.4 3.15 -2.15 3.15 -1.8 2.85 -1.4 L2.55 -1.05 2.55 -1.0 2.6 -0.85 Q2.6 -0.45 2.2 -0.1 1.9 0.2 1.45 0.3 1.0 0.5 0.4 0.5 -0.8 0.5 -1.25 -0.2 -1.35 -0.4 -1.4 -0.7 L-1.4 -0.75 -1.45 -0.8 -1.65 -1.4 -1.65 -1.55 -1.75 -1.75 Q-2.6 -1.95 -2.95 -2.6 -3.2 -3.1 -3.2 -3.75 -3.2 -4.45 -3.0 -4.8 -2.65 -5.35 -1.6 -5.55 L-1.55 -5.65 Q-1.0 -6.25 0.25 -6.3 0.85 -6.2 0.85 -6.3 1.35 -6.3 1.85 -6.1 2.25 -6.0 2.55 -5.8 M-0.65 -3.7 Q-0.1 -3.75 0.45 -3.9 1.15 -4.05 1.45 -4.05 L2.0 -4.05 2.2 -3.85 1.3 -3.7 1.25 -3.7 1.3 -3.55 1.25 -3.4 Q1.15 -3.3 1.05 -3.25 1.0 -3.25 1.0 -3.3 L1.1 -3.35 Q1.2 -3.4 1.15 -3.7 L0.95 -3.65 Q0.05 -3.4 -0.25 -3.4 L-0.8 -3.45 -0.95 -3.1 Q-1.2 -2.6 -1.2 -2.35 L-1.15 -2.1 Q-1.1 -1.75 -0.9 -1.4 -0.5 -1.25 0.1 -1.25 0.55 -1.25 1.15 -1.55 1.4 -1.7 1.8 -1.95 L1.7 -1.75 1.9 -2.0 Q2.7 -2.8 2.7 -3.15 L2.65 -3.5 2.65 -3.55 2.6 -3.8 2.55 -3.85 2.55 -3.9 2.5 -3.9 2.4 -3.8 2.3 -3.75 2.3 -3.75 2.4 -3.9 2.45 -4.05 Q2.45 -4.15 2.45 -4.05 L2.5 -4.05 2.6 -4.25 Q2.85 -4.6 2.85 -4.8 L2.85 -4.85 Q2.8 -5.3 2.25 -5.65 1.6 -6.05 0.5 -6.1 -0.15 -6.05 -0.6 -5.9 L-0.75 -5.7 -0.8 -5.55 -0.95 -5.15 -1.0 -5.1 Q-1.05 -5.1 -1.05 -4.9 L-1.05 -4.65 Q-1.0 -4.4 -0.75 -3.8 L-0.7 -3.75 -0.7 -3.7 -0.65 -3.7 M2.75 -2.5 L2.6 -2.3 2.35 -1.95 2.3 -1.9 1.9 -1.55 Q1.0 -0.85 0.05 -0.85 -0.3 -0.85 -0.6 -0.95 L-0.65 -0.95 -0.65 -0.75 -0.6 -0.55 Q-0.2 -0.4 0.25 -0.4 1.0 -0.4 1.6 -0.7 1.85 -0.85 2.1 -1.0 L2.15 -1.1 2.4 -1.45 Q2.8 -2.0 2.8 -2.2 L2.75 -2.5 M0.1 -0.1 L-0.45 -0.25 -0.4 -0.05 -0.3 0.2 Q0.0 0.3 0.35 0.3 L1.25 0.2 1.5 0.0 2.1 -0.35 Q2.25 -0.5 2.35 -0.75 L2.4 -0.95 Q2.25 -0.9 2.1 -0.8 L2.05 -0.8 Q1.15 0.0 0.5 -0.1 L0.1 -0.1 M-1.15 -4.8 Q-1.15 -5.15 -1.05 -5.5 L-0.95 -5.75 Q-1.35 -5.55 -1.5 -5.2 L-1.6 -4.95 -1.6 -4.9 -1.65 -4.65 -1.65 -4.6 Q-1.65 -4.35 -1.45 -4.1 -1.25 -3.75 -0.9 -3.7 -1.0 -3.85 -1.05 -4.05 -1.15 -4.3 -1.15 -4.7 L-1.15 -4.75 -1.15 -4.8 M-2.85 -3.45 L-2.85 -3.4 -2.75 -2.95 -2.7 -2.85 Q-2.45 -2.35 -1.8 -1.9 -1.9 -2.15 -1.9 -2.45 -1.9 -2.9 -1.85 -3.15 -1.75 -3.45 -1.5 -3.75 L-1.75 -4.0 -1.85 -4.15 Q-1.95 -4.35 -1.95 -4.6 -1.95 -5.15 -1.65 -5.55 -2.3 -5.3 -2.6 -4.8 -2.9 -4.4 -2.9 -3.9 L-2.85 -3.45 M-1.3 -2.75 L-1.2 -3.05 Q-1.1 -3.35 -1.0 -3.5 L-1.2 -3.6 -1.4 -3.15 -1.5 -2.9 -1.55 -2.8 -1.55 -2.7 -1.6 -2.55 Q-1.6 -2.05 -1.35 -1.75 L-1.2 -1.6 -1.25 -1.8 -1.35 -2.3 -1.35 -2.45 -1.3 -2.5 -1.3 -2.75 M-0.75 -1.0 Q-1.1 -1.1 -1.3 -1.25 L-1.2 -1.1 -0.8 -0.7 -0.75 -0.9 -0.75 -1.0 M-1.05 -0.35 L-1.0 -0.3 -0.95 -0.3 Q-0.8 -0.1 -0.6 0.05 L-0.65 -0.05 -0.6 -0.2 -0.55 -0.3 Q-0.85 -0.4 -1.0 -0.55 L-1.15 -0.55 -1.05 -0.35" fill="#111111" fill-rule="evenodd" stroke="none"/>
    <path d="M-0.7 -3.75 L-0.65 -3.7 -0.7 -3.7 -0.7 -3.75 M-1.15 -4.75 L-1.2 -4.8 -1.15 -4.8 -1.15 -4.75" fill="#80c0f0" fill-rule="evenodd" stroke="none"/>
    <path d="M1.3 -3.7 L1.6 -3.7 2.3 -3.75 2.3 -3.75 2.4 -3.8 2.5 -3.9 2.55 -3.9 2.55 -3.85 2.6 -3.8 2.65 -3.55 2.6 -3.5 Q2.25 -3.0 2.1 -2.85 1.2 -1.9 -0.3 -1.9 -0.65 -1.9 -1.15 -2.1 L-1.2 -2.35 Q-1.2 -2.6 -0.95 -3.1 L-0.8 -3.45 -0.25 -3.4 Q0.05 -3.4 0.95 -3.65 L1.15 -3.7 Q1.2 -3.4 1.1 -3.35 L1.0 -3.3 Q1.0 -3.25 1.05 -3.25 1.15 -3.3 1.25 -3.4 L1.3 -3.55 1.25 -3.7 1.3 -3.7 M2.85 -4.85 L2.8 -4.8 Q2.7 -4.65 2.35 -4.65 L2.0 -4.65 0.45 -4.3 Q-0.3 -4.3 -0.75 -4.85 L-0.9 -5.05 -0.85 -4.95 -0.85 -5.1 -0.9 -5.15 -0.85 -5.15 -0.75 -5.5 -0.75 -5.7 -0.6 -5.9 Q-0.15 -6.05 0.5 -6.1 1.6 -6.05 2.25 -5.65 2.8 -5.3 2.85 -4.85 M-1.5 -5.2 Q-1.35 -5.55 -0.95 -5.75 L-1.05 -5.5 Q-1.15 -5.15 -1.15 -4.8 -1.15 -5.15 -1.5 -5.2 M-1.85 -4.15 Q-1.95 -3.9 -2.0 -3.75 -2.25 -3.4 -2.7 -3.4 L-2.85 -3.45 -2.9 -3.9 Q-2.9 -4.4 -2.6 -4.8 -2.3 -5.3 -1.65 -5.55 -1.95 -5.15 -1.95 -4.6 -1.95 -4.35 -1.85 -4.15 M-1.5 -2.9 L-1.4 -3.15 -1.2 -3.6 -1.0 -3.5 Q-1.1 -3.35 -1.2 -3.05 L-1.3 -2.75 -1.5 -2.9" fill="#192466" fill-rule="evenodd" stroke="none"/>
    <path d="M1.3 -3.7 L2.2 -3.85 2.0 -4.05 1.45 -4.05 Q1.15 -4.05 0.45 -3.9 -0.1 -3.75 -0.65 -3.7 L-0.7 -3.75 -0.75 -3.8 Q-1.0 -4.4 -1.05 -4.65 L-1.05 -4.9 Q-1.05 -5.1 -1.0 -5.1 L-0.95 -5.15 -0.8 -5.55 -0.75 -5.7 -0.75 -5.5 -0.85 -5.15 -0.9 -5.15 -0.85 -5.1 -0.85 -4.95 -0.9 -5.05 -0.75 -4.85 Q-0.3 -4.3 0.45 -4.3 L2.0 -4.65 2.35 -4.65 Q2.7 -4.65 2.8 -4.8 L2.85 -4.85 2.85 -4.8 Q2.85 -4.6 2.6 -4.25 L2.5 -4.05 2.45 -4.05 Q2.45 -4.15 2.45 -4.05 L2.4 -3.9 2.3 -3.75 1.6 -3.7 1.3 -3.7 M2.65 -3.55 L2.65 -3.5 2.7 -3.15 Q2.7 -2.8 1.9 -2.0 L1.7 -1.75 1.8 -1.95 Q1.4 -1.7 1.15 -1.55 0.55 -1.25 0.1 -1.25 -0.5 -1.25 -0.9 -1.4 -1.1 -1.75 -1.15 -2.1 -0.65 -1.9 -0.3 -1.9 1.2 -1.9 2.1 -2.85 2.25 -3.0 2.6 -3.5 L2.65 -3.55 M0.1 -0.1 L0.5 -0.1 Q1.15 0.0 2.05 -0.8 L2.1 -0.8 Q2.25 -0.9 2.4 -0.95 L2.35 -0.75 Q2.25 -0.5 2.1 -0.35 L1.5 0.0 1.25 0.2 0.35 0.3 Q0.0 0.3 -0.3 0.2 L-0.4 -0.05 -0.45 -0.25 0.1 -0.1 M2.75 -2.5 L2.8 -2.2 Q2.8 -2.0 2.4 -1.45 L2.15 -1.1 2.1 -1.0 Q1.85 -0.85 1.6 -0.7 1.0 -0.4 0.25 -0.4 -0.2 -0.4 -0.6 -0.55 L-0.65 -0.75 -0.65 -0.95 -0.6 -0.95 Q-0.3 -0.85 0.05 -0.85 1.0 -0.85 1.9 -1.55 L2.3 -1.9 2.35 -1.95 2.6 -2.3 2.75 -2.5 M-1.5 -5.2 Q-1.15 -5.15 -1.15 -4.8 L-1.2 -4.8 -1.15 -4.75 -1.15 -4.7 Q-1.15 -4.3 -1.05 -4.05 -1.0 -3.85 -0.9 -3.7 -1.25 -3.75 -1.45 -4.1 -1.65 -4.35 -1.65 -4.6 L-1.65 -4.65 -1.6 -4.9 -1.6 -4.95 -1.5 -5.2 M-1.85 -4.15 L-1.75 -4.0 -1.5 -3.75 Q-1.75 -3.45 -1.85 -3.15 -1.9 -2.9 -1.9 -2.45 -1.9 -2.15 -1.8 -1.9 -2.45 -2.35 -2.7 -2.85 L-2.75 -2.95 -2.85 -3.4 -2.85 -3.45 -2.7 -3.4 Q-2.25 -3.4 -2.0 -3.75 -1.95 -3.9 -1.85 -4.15 M-1.5 -2.9 L-1.3 -2.75 -1.3 -2.5 -1.35 -2.45 -1.35 -2.3 -1.25 -1.8 -1.2 -1.6 -1.35 -1.75 Q-1.6 -2.05 -1.6 -2.55 L-1.55 -2.7 -1.55 -2.8 -1.5 -2.9 M-1.05 -0.35 L-1.15 -0.55 -1.0 -0.55 Q-0.85 -0.4 -0.55 -0.3 L-0.6 -0.2 -0.65 -0.05 -0.6 0.05 Q-0.8 -0.1 -0.95 -0.3 L-1.0 -0.3 -1.05 -0.35 M-0.75 -1.0 L-0.75 -0.9 -0.8 -0.7 -1.2 -1.1 -1.3 -1.25 Q-1.1 -1.1 -0.75 -1.0" fill="#060e3f" fill-rule="evenodd" stroke="none"/>
  </g>
</svg>
