<?xml version="1.0" encoding="UTF-8" standalone="no"?>
<svg xmlns:ffdec="https://www.free-decompiler.com/flash" xmlns:xlink="http://www.w3.org/1999/xlink" ffdec:objectType="shape" height="9.35px" width="10.0px" xmlns="http://www.w3.org/2000/svg">
  <g transform="matrix(1.0, 0.0, 0.0, 1.0, 5.0, 9.35)">
    <path d="M-3.05 -1.5 L-2.8 -1.35 -2.35 -1.55 -2.65 -2.0 -2.6 -2.0 -2.65 -2.1 -2.6 -2.2 Q-2.5 -1.95 -2.15 -1.6 L-1.6 -1.8 Q-1.0 -2.05 -0.7 -2.3 -1.05 -2.55 -1.35 -2.95 -1.55 -3.15 -1.75 -3.45 L-2.0 -3.9 Q-2.1 -4.15 -2.2 -4.45 -2.3 -4.8 -2.3 -5.1 -2.3 -5.85 -2.05 -6.5 -1.85 -7.25 -1.3 -7.8 -0.55 -8.6 0.65 -8.85 L0.35 -9.0 0.15 -9.0 -1.75 -9.1 Q-2.25 -9.05 -2.65 -8.9 L-2.7 -8.9 Q-3.55 -8.4 -4.1 -7.3 -4.65 -6.1 -4.65 -5.1 -4.65 -4.7 -4.6 -4.35 L-4.55 -4.1 -4.55 -4.0 -4.5 -3.8 -4.45 -3.65 -4.4 -3.45 Q-4.15 -2.8 -3.65 -2.2 L-3.15 -1.6 -3.05 -1.55 -3.05 -1.5 M1.05 -8.9 Q2.05 -9.05 2.9 -8.7 3.8 -8.3 4.1 -7.6 L4.25 -7.45 Q4.6 -7.05 4.65 -6.75 4.9 -6.4 4.95 -6.05 L5.0 -5.4 Q5.0 -5.0 4.9 -4.65 L4.8 -4.25 Q4.8 -3.65 3.4 -2.8 L2.45 -2.3 2.4 -2.2 2.4 -2.05 Q2.4 -1.6 1.75 -1.1 L1.6 -1.0 Q0.7 0.0 -0.9 0.0 L-1.35 -0.05 Q-1.45 -0.05 -1.6 -0.2 -2.7 -0.55 -3.75 -1.7 -4.3 -2.35 -4.65 -3.1 -5.0 -3.75 -5.0 -4.15 L-4.95 -5.6 Q-4.9 -6.25 -4.5 -7.15 -3.8 -8.85 -2.55 -9.2 L-2.6 -9.2 -2.6 -9.25 -2.55 -9.2 Q-2.15 -9.35 -1.7 -9.3 L-1.55 -9.35 -0.05 -9.35 0.0 -9.3 0.0 -9.35 0.45 -9.35 0.85 -9.2 Q1.0 -9.15 1.05 -9.0 L1.05 -8.9 M2.3 -8.4 L2.2 -8.55 1.35 -8.55 Q0.85 -8.35 0.35 -7.55 0.15 -7.2 -0.05 -6.9 L-0.05 -6.85 -0.2 -6.5 -0.25 -6.4 -0.35 -6.0 -0.4 -6.0 -0.35 -6.15 -0.35 -6.3 -0.3 -6.65 Q-0.3 -7.15 0.3 -7.95 0.6 -8.35 0.95 -8.55 L0.75 -8.5 0.7 -8.5 Q0.25 -8.2 -0.1 -7.75 L-0.35 -7.35 -0.4 -7.25 -0.4 -7.2 -0.45 -7.2 -0.6 -6.8 -0.65 -6.65 Q-0.8 -6.2 -0.95 -5.6 L-0.95 -5.65 -0.95 -5.7 Q-0.95 -7.45 0.15 -8.3 L-0.3 -8.05 Q-0.85 -7.7 -1.3 -7.1 -1.9 -6.15 -1.9 -5.25 -1.9 -4.5 -1.4 -3.65 L-1.3 -3.5 Q-1.05 -3.05 -0.7 -2.7 -0.4 -2.55 -0.05 -2.55 L0.05 -2.45 Q-0.15 -2.45 -0.35 -2.45 -0.1 -2.3 0.2 -2.2 0.65 -2.4 1.15 -2.7 1.05 -2.95 1.0 -3.3 L1.05 -3.3 1.25 -2.75 1.3 -2.8 Q1.55 -2.95 1.8 -3.05 1.55 -3.2 1.4 -3.35 L0.9 -3.9 0.35 -4.4 0.2 -4.5 0.1 -4.55 0.15 -4.55 Q0.3 -4.75 0.6 -4.65 L0.8 -4.55 Q1.1 -4.3 1.35 -4.0 1.5 -3.75 1.7 -3.6 1.85 -3.5 2.0 -3.4 L2.15 -3.35 2.4 -3.25 Q2.65 -3.6 2.8 -3.95 L2.8 -4.0 2.95 -4.3 3.0 -4.45 Q3.1 -4.85 3.1 -5.25 L3.1 -5.4 3.05 -6.05 Q3.0 -6.55 2.9 -7.05 L2.85 -7.1 Q2.7 -7.8 2.4 -8.25 L2.3 -8.4 M3.65 -7.7 L3.6 -7.75 Q3.2 -8.3 2.45 -8.5 3.0 -7.5 3.2 -6.65 3.25 -6.35 3.25 -5.65 L3.3 -5.0 3.3 -4.75 3.25 -4.3 3.15 -4.05 3.15 -3.95 3.0 -3.65 Q2.85 -3.4 2.7 -3.2 L3.1 -3.2 Q3.5 -3.35 3.85 -3.7 4.2 -3.95 4.35 -4.2 L4.4 -4.4 Q4.45 -4.55 4.45 -4.95 L4.45 -5.3 Q4.45 -6.05 4.05 -6.9 L3.9 -7.15 3.85 -7.25 3.65 -7.7 M2.25 -2.85 Q2.05 -2.75 1.85 -2.7 L1.9 -2.75 1.55 -2.55 1.4 -2.5 1.45 -2.2 1.45 -2.1 1.55 -2.1 2.6 -2.8 2.25 -2.85 M1.4 -2.15 Q1.3 -2.25 1.25 -2.4 0.9 -2.25 0.55 -2.15 L1.15 -2.1 1.4 -2.1 1.4 -2.15 M1.5 -1.7 L1.3 -1.65 Q0.35 -1.6 -0.4 -2.05 -0.55 -1.7 -1.2 -1.55 L-2.0 -1.4 -1.4 -0.8 -1.4 -0.75 Q-1.65 -0.75 -2.05 -1.2 L-1.65 -0.8 -1.65 -0.75 Q-1.95 -0.95 -2.2 -1.35 L-2.7 -1.2 Q-1.7 -0.45 -0.55 -0.3 0.45 -0.45 1.3 -1.3 L1.65 -1.7 1.5 -1.7 M-1.95 -9.2 L-1.95 -9.2" fill="#111111" fill-rule="evenodd" stroke="none"/>
    <path d="M-3.15 -1.6 L-3.05 -1.5 -3.05 -1.55 -3.15 -1.6" fill="#80c0f0" fill-rule="evenodd" stroke="none"/>
    <path d="M0.15 -9.0 Q-0.95 -8.75 -1.8 -7.45 -2.2 -6.9 -2.45 -6.25 -2.65 -5.7 -2.65 -5.5 -2.55 -4.7 -2.65 -4.4 -2.75 -4.0 -3.65 -4.0 -4.25 -4.0 -4.6 -4.35 -4.65 -4.7 -4.65 -5.1 -4.65 -6.1 -4.1 -7.3 -3.55 -8.4 -2.7 -8.9 L-2.65 -8.9 Q-2.25 -9.05 -1.75 -9.1 L0.15 -9.0 M-0.35 -6.3 L-0.35 -6.15 -0.4 -6.0 -0.35 -6.0 -0.25 -6.4 -0.2 -6.5 -0.05 -6.85 -0.05 -6.9 Q0.15 -7.2 0.35 -7.55 0.85 -8.35 1.35 -8.55 L2.2 -8.55 2.3 -8.4 2.5 -7.7 Q2.7 -7.0 2.7 -6.3 2.7 -5.5 2.55 -5.1 2.45 -4.75 2.2 -4.5 L2.1 -4.55 2.05 -4.55 1.65 -4.65 0.1 -4.75 Q-0.15 -4.75 -0.45 -4.65 -0.2 -4.55 0.05 -4.4 0.4 -4.15 0.4 -4.0 L0.75 -3.65 Q0.65 -3.55 0.45 -3.55 0.2 -3.55 0.1 -3.65 0.0 -3.75 -0.65 -3.75 -1.05 -3.75 -1.3 -3.65 L-1.4 -3.65 Q-1.9 -4.5 -1.9 -5.25 -1.9 -6.15 -1.3 -7.1 -0.85 -7.7 -0.3 -8.05 -0.55 -7.8 -0.8 -7.35 -1.3 -6.4 -1.3 -5.8 -1.3 -5.6 -1.25 -5.4 -1.15 -5.2 -1.1 -4.95 L-1.05 -4.95 -0.95 -5.65 -0.95 -5.6 Q-0.8 -6.2 -0.65 -6.65 L-0.55 -6.95 -0.55 -6.8 Q-0.65 -6.35 -0.65 -5.75 L-0.6 -5.55 -0.5 -5.95 -0.35 -6.3" fill="#192466" fill-rule="evenodd" stroke="none"/>
    <path d="M0.15 -9.0 L0.35 -9.0 0.65 -8.85 Q-0.55 -8.6 -1.3 -7.8 -1.85 -7.25 -2.05 -6.5 -2.3 -5.85 -2.3 -5.1 -2.3 -4.8 -2.2 -4.45 -2.1 -4.15 -2.0 -3.9 L-1.75 -3.45 Q-1.55 -3.15 -1.35 -2.95 -1.05 -2.55 -0.7 -2.3 -1.0 -2.05 -1.6 -1.8 L-2.15 -1.6 Q-2.5 -1.95 -2.6 -2.2 L-2.65 -2.1 -2.6 -2.0 -2.65 -2.0 -2.35 -1.55 -2.8 -1.35 -3.05 -1.5 -3.15 -1.6 -3.65 -2.2 Q-4.15 -2.8 -4.4 -3.45 L-4.45 -3.65 -4.5 -3.8 -4.55 -4.0 -4.55 -4.1 -4.6 -4.35 Q-4.25 -4.0 -3.65 -4.0 -2.75 -4.0 -2.65 -4.4 -2.55 -4.7 -2.65 -5.5 -2.65 -5.7 -2.45 -6.25 -2.2 -6.9 -1.8 -7.45 -0.95 -8.75 0.15 -9.0 M2.3 -8.4 L2.4 -8.25 Q2.7 -7.8 2.85 -7.1 L2.9 -7.05 Q3.0 -6.55 3.05 -6.05 L3.1 -5.4 3.1 -5.25 Q3.1 -4.85 3.0 -4.45 L2.95 -4.3 2.8 -4.0 2.8 -3.95 Q2.65 -3.6 2.4 -3.25 L2.15 -3.35 2.0 -3.4 Q1.85 -3.5 1.7 -3.6 1.5 -3.75 1.35 -4.0 1.1 -4.3 0.8 -4.55 L0.6 -4.65 Q0.3 -4.75 0.15 -4.55 L0.1 -4.55 0.2 -4.5 0.35 -4.4 0.9 -3.9 1.4 -3.35 Q1.55 -3.2 1.8 -3.05 1.55 -2.95 1.3 -2.8 L1.25 -2.75 1.05 -3.3 1.0 -3.3 Q1.05 -2.95 1.15 -2.7 0.65 -2.4 0.2 -2.2 -0.1 -2.3 -0.35 -2.45 -0.15 -2.45 0.05 -2.45 L-0.05 -2.55 Q-0.4 -2.55 -0.7 -2.7 -1.05 -3.05 -1.3 -3.5 L-1.4 -3.65 -1.3 -3.65 Q-1.05 -3.75 -0.65 -3.75 0.0 -3.75 0.1 -3.65 0.2 -3.55 0.45 -3.55 0.65 -3.55 0.75 -3.65 L0.4 -4.0 Q0.4 -4.15 0.05 -4.4 -0.2 -4.55 -0.45 -4.65 -0.15 -4.75 0.1 -4.75 L1.65 -4.65 2.05 -4.55 2.1 -4.55 2.2 -4.5 Q2.45 -4.75 2.55 -5.1 2.7 -5.5 2.7 -6.3 2.7 -7.0 2.5 -7.7 L2.3 -8.4 M-0.3 -8.05 L0.15 -8.3 Q-0.95 -7.45 -0.95 -5.7 L-0.95 -5.65 -1.05 -4.95 -1.1 -4.95 Q-1.15 -5.2 -1.25 -5.4 -1.3 -5.6 -1.3 -5.8 -1.3 -6.4 -0.8 -7.35 -0.55 -7.8 -0.3 -8.05 M-0.65 -6.65 L-0.6 -6.8 -0.45 -7.2 -0.4 -7.2 -0.4 -7.25 -0.35 -7.35 -0.1 -7.75 Q0.25 -8.2 0.7 -8.5 L0.75 -8.5 0.95 -8.55 Q0.6 -8.35 0.3 -7.95 -0.3 -7.15 -0.3 -6.65 L-0.35 -6.3 -0.5 -5.95 -0.6 -5.55 -0.65 -5.75 Q-0.65 -6.35 -0.55 -6.8 L-0.55 -6.95 -0.65 -6.65 M1.5 -1.7 L1.65 -1.7 1.3 -1.3 Q0.45 -0.45 -0.55 -0.3 -1.7 -0.45 -2.7 -1.2 L-2.2 -1.35 Q-1.95 -0.95 -1.65 -0.75 L-1.65 -0.8 -2.05 -1.2 Q-1.65 -0.75 -1.4 -0.75 L-1.4 -0.8 -2.0 -1.4 -1.2 -1.55 Q-0.55 -1.7 -0.4 -2.05 0.35 -1.6 1.3 -1.65 L1.5 -1.7 M1.4 -2.15 L1.4 -2.1 1.15 -2.1 0.55 -2.15 Q0.9 -2.25 1.25 -2.4 1.3 -2.25 1.4 -2.15 M2.25 -2.85 L2.6 -2.8 1.55 -2.1 1.45 -2.1 1.45 -2.2 1.4 -2.5 1.55 -2.55 1.9 -2.75 1.85 -2.7 Q2.05 -2.75 2.25 -2.85 M3.65 -7.7 L3.85 -7.25 3.9 -7.15 4.05 -6.9 Q4.45 -6.05 4.45 -5.3 L4.45 -4.95 Q4.45 -4.55 4.4 -4.4 L4.35 -4.2 Q4.2 -3.95 3.85 -3.7 3.5 -3.35 3.1 -3.2 L2.7 -3.2 Q2.85 -3.4 3.0 -3.65 L3.15 -3.95 3.15 -4.05 3.25 -4.3 3.3 -4.75 3.3 -5.0 3.25 -5.65 Q3.25 -6.35 3.2 -6.65 3.0 -7.5 2.45 -8.5 3.2 -8.3 3.6 -7.75 L3.65 -7.7" fill="#060e3f" fill-rule="evenodd" stroke="none"/>
  </g>
</svg>
