<?xml version="1.0" encoding="UTF-8" standalone="no"?>
<svg xmlns:ffdec="https://www.free-decompiler.com/flash" xmlns:xlink="http://www.w3.org/1999/xlink" ffdec:objectType="shape" height="16.2px" width="37.7px" xmlns="http://www.w3.org/2000/svg">
  <g transform="matrix(1.0, 0.0, 0.0, 1.0, 18.85, 16.2)">
    <path d="M11.75 -15.1 L11.95 -14.9 Q12.4 -15.1 13.45 -15.45 L14.4 -15.7 15.6 -16.15 Q16.1 -16.25 16.25 -16.0 16.4 -15.75 16.4 -14.85 L16.75 -13.65 17.0 -13.1 Q17.6 -13.05 17.85 -12.65 18.0 -12.4 18.0 -11.95 18.0 -11.65 17.9 -11.45 17.85 -11.3 17.75 -11.2 L17.95 -10.75 Q18.85 -8.4 18.85 -8.05 18.85 -7.8 18.6 -7.65 L18.15 -7.35 Q18.15 -7.25 18.05 -7.15 L18.1 -6.9 18.15 -6.55 18.15 -6.5 18.0 -7.1 Q17.75 -6.9 17.2 -6.7 16.05 -6.3 14.2 -6.3 L14.05 -6.3 Q14.1 -6.4 14.4 -6.45 L14.35 -6.55 13.55 -6.55 Q11.45 -5.95 6.05 -4.7 L4.75 -4.35 Q4.05 -4.15 0.0 -3.25 L-1.75 -2.9 -3.35 -2.5 -3.4 -2.45 -4.6 -2.15 -4.4 -1.25 -4.35 -1.25 -4.35 -1.15 -4.45 -1.1 -4.45 -1.0 -4.5 -1.0 -4.55 -1.1 -4.6 -1.1 -4.95 -1.05 -5.25 -1.05 -5.55 -1.0 -5.85 -1.0 -6.2 -1.05 -6.25 -1.05 -6.25 -1.1 -6.5 -1.1 -6.6 -1.35 -6.75 -2.25 -6.75 -2.4 -6.8 -2.45 -6.8 -2.6 -6.95 -3.2 -7.0 -3.2 Q-7.25 -3.2 -7.45 -3.5 -7.55 -3.65 -7.6 -3.8 L-11.2 -2.95 Q-15.5 -1.9 -15.8 -1.9 L-15.85 -1.85 -15.7 -1.8 -15.85 -1.8 -15.9 -1.7 -16.2 -1.35 -16.5 -0.95 -16.1 -0.15 Q-16.1 -0.05 -16.15 -0.05 L-16.2 -0.1 -16.25 -0.1 -16.25 -0.05 -16.2 -0.05 -16.35 0.0 -16.95 -0.05 Q-17.55 -0.1 -17.95 -0.3 -18.15 -0.45 -18.2 -0.55 L-18.25 -0.65 -18.35 -0.75 -18.4 -0.85 -18.45 -0.9 -18.5 -1.0 Q-18.6 -1.15 -18.55 -1.3 L-18.55 -1.5 -18.6 -1.8 Q-18.7 -2.25 -18.85 -3.0 -18.85 -3.15 -18.75 -3.35 -18.65 -3.8 -18.1 -4.2 -17.35 -4.8 -16.0 -4.95 L-16.0 -4.85 -15.9 -5.0 Q-15.85 -4.85 -15.85 -4.75 L-16.05 -4.05 -15.7 -4.1 -14.2 -4.6 -12.25 -5.2 -9.6 -6.0 -8.2 -6.35 -8.2 -6.45 Q-8.2 -6.95 -7.8 -7.15 L-8.05 -8.9 -8.0 -9.05 Q-7.8 -9.3 -7.1 -9.65 L-6.25 -10.1 -6.25 -10.15 -6.2 -10.15 -6.2 -10.1 -6.15 -10.1 -6.15 -10.25 -6.1 -10.25 -6.1 -10.1 -6.0 -9.7 -5.95 -9.4 -5.85 -9.1 Q-5.6 -9.25 -5.05 -9.45 L-4.55 -9.6 -4.55 -9.7 -4.5 -9.7 -4.5 -9.65 -3.55 -9.95 -3.85 -9.75 Q0.5 -11.5 10.3 -14.0 L11.8 -14.5 11.65 -14.75 Q11.65 -14.85 11.8 -14.95 11.8 -15.0 11.75 -14.95 L11.75 -15.1 M12.1 -14.7 L12.15 -14.65 12.25 -14.65 12.3 -14.6 12.6 -14.75 Q12.85 -14.85 13.3 -15.05 14.6 -15.5 15.65 -15.5 L15.8 -15.5 15.9 -15.5 15.95 -15.45 16.0 -15.45 16.15 -15.35 16.05 -15.7 16.0 -15.85 Q16.05 -15.9 15.95 -15.9 L15.75 -15.85 Q15.55 -15.8 15.25 -15.7 L15.15 -15.65 14.1 -15.3 13.9 -15.25 13.15 -15.05 13.05 -15.05 13.0 -15.0 12.05 -14.8 12.1 -14.7 M12.35 -14.2 L12.4 -14.2 12.55 -13.75 12.75 -13.15 13.1 -12.0 13.15 -11.9 13.4 -11.05 14.15 -9.05 14.5 -7.95 Q14.65 -7.45 14.65 -7.15 L14.75 -7.15 14.8 -7.1 14.8 -7.0 Q16.45 -7.3 16.95 -7.45 17.5 -7.65 17.75 -8.0 L17.35 -9.45 17.3 -9.7 Q16.6 -12.4 16.6 -13.1 L16.5 -13.6 16.35 -14.1 16.2 -14.45 16.15 -14.65 16.1 -14.65 16.05 -14.75 16.0 -14.95 Q15.95 -15.15 15.85 -15.25 14.7 -15.05 13.55 -14.7 L12.4 -14.35 12.3 -14.35 12.35 -14.2 M16.2 -15.05 L16.2 -15.05 M10.6 -13.8 L10.55 -13.8 11.4 -12.5 11.55 -12.25 12.25 -10.95 12.55 -10.35 13.7 -8.15 13.75 -7.95 14.2 -7.05 14.3 -7.05 14.3 -7.4 Q14.25 -7.8 14.0 -8.5 L13.55 -9.7 13.25 -10.55 12.85 -11.6 Q12.6 -12.25 12.5 -12.7 12.4 -13.15 12.2 -13.7 L11.9 -14.3 Q11.35 -14.05 10.6 -13.8 M11.7 -11.3 L11.7 -11.4 11.35 -12.05 Q11.2 -12.4 10.7 -13.15 L10.5 -13.45 Q11.0 -12.25 11.7 -9.65 L12.0 -8.6 12.05 -8.45 12.3 -7.45 12.3 -7.35 Q12.2 -8.05 12.2 -9.15 12.2 -9.35 12.1 -9.85 L11.95 -10.5 11.75 -11.1 11.7 -11.3 M11.7 -8.45 L11.2 -10.15 Q11.05 -10.75 10.85 -11.95 10.65 -12.95 10.05 -13.65 L9.5 -13.45 4.15 -11.75 3.4 -11.55 2.45 -11.25 -1.05 -10.2 Q-0.05 -9.15 1.0 -7.55 L1.85 -6.15 1.85 -6.05 2.4 -5.2 2.8 -4.55 2.9 -4.4 4.8 -4.85 10.8 -6.25 12.15 -6.55 12.15 -6.6 Q12.15 -6.75 11.75 -8.2 L11.7 -8.4 11.7 -8.45 M1.0 -4.35 L0.85 -4.7 0.1 -5.85 -0.45 -6.75 -0.35 -6.5 0.4 -4.6 0.6 -3.95 0.65 -3.85 1.2 -4.0 1.15 -4.1 1.1 -4.25 1.0 -4.35 M-0.55 -4.45 Q-0.45 -3.9 -0.45 -3.6 L0.4 -3.8 Q0.3 -3.95 0.1 -4.35 -0.2 -5.0 -0.7 -6.35 L-0.85 -6.75 -1.25 -7.75 -1.1 -7.15 Q-0.7 -5.45 -0.55 -4.45 M-1.35 -8.8 L-0.8 -7.55 0.25 -6.2 Q1.4 -4.65 1.5 -4.05 L2.5 -4.3 2.5 -4.35 2.45 -4.5 2.4 -4.7 Q2.2 -5.15 1.85 -5.65 L0.75 -7.2 -0.2 -8.7 Q-0.75 -9.45 -1.4 -10.1 L-1.75 -10.0 -1.75 -9.9 -1.35 -8.8 M17.4 -12.15 L17.65 -11.45 17.7 -11.55 Q17.8 -11.7 17.8 -11.9 L17.8 -12.15 Q17.75 -12.4 17.7 -12.55 17.5 -12.9 17.05 -13.0 L17.4 -12.15 M17.55 -11.05 L17.5 -11.15 Q17.25 -11.75 17.15 -12.15 L17.45 -10.8 Q18.0 -8.4 18.1 -7.65 L18.2 -7.75 Q18.55 -7.95 18.55 -8.05 18.55 -8.25 18.45 -8.65 18.25 -9.3 17.75 -10.5 L17.55 -11.05 M17.75 -7.85 L17.75 -7.85 M17.85 -7.45 L17.85 -7.5 17.8 -7.85 Q17.5 -7.6 16.85 -7.35 15.7 -6.9 14.7 -6.9 L14.65 -6.65 14.65 -6.55 Q15.15 -6.7 16.05 -6.85 L16.6 -6.95 16.75 -6.95 17.2 -7.1 17.85 -7.45 M12.6 -7.6 L12.6 -7.3 12.65 -7.05 12.6 -6.65 14.15 -7.05 13.8 -7.6 13.3 -8.45 13.3 -8.5 13.0 -9.1 12.9 -9.2 12.9 -9.3 12.35 -10.25 12.1 -10.7 12.15 -10.35 12.25 -9.95 Q12.55 -8.55 12.6 -7.6 M-17.9 -4.15 L-17.85 -4.2 -18.1 -4.05 -18.4 -3.8 -17.95 -4.15 -17.9 -4.15 M-17.1 -4.45 L-17.55 -4.25 -17.8 -4.1 Q-18.55 -3.45 -18.55 -3.05 L-18.4 -2.15 -18.35 -1.9 Q-18.3 -1.6 -18.3 -1.45 L-18.3 -1.3 Q-18.15 -1.55 -17.8 -1.85 L-17.35 -2.15 -17.0 -2.4 -16.95 -2.4 -16.75 -2.5 -16.7 -2.7 -16.55 -3.25 Q-16.35 -4.2 -16.15 -4.55 L-16.1 -4.7 -16.15 -4.75 -16.25 -4.75 -16.6 -4.65 -17.1 -4.45 M-17.6 -3.0 L-17.75 -2.8 -17.8 -2.6 -17.75 -2.45 Q-17.75 -2.4 -17.7 -2.4 -17.6 -2.4 -17.55 -2.55 L-17.55 -2.75 Q-17.5 -2.85 -17.6 -3.0 M-17.65 -3.15 Q-17.4 -3.2 -17.4 -2.8 -17.45 -2.25 -17.7 -2.25 -17.85 -2.25 -17.9 -2.45 L-17.95 -2.65 Q-17.9 -3.1 -17.65 -3.15 M-17.15 -2.15 L-17.3 -2.0 -17.7 -1.65 -18.05 -1.35 -18.15 -1.2 -18.15 -0.9 -18.1 -0.8 -18.15 -0.75 Q-18.1 -0.65 -17.95 -0.6 L-17.4 -0.35 -17.25 -0.3 -16.85 -0.25 -16.55 -0.25 -17.0 -0.7 Q-17.2 -0.8 -17.2 -1.15 -17.2 -1.6 -17.15 -1.8 L-17.0 -2.05 -17.0 -2.1 -17.0 -2.3 -17.15 -2.15 M-13.7 -4.2 L-13.4 -4.5 -13.5 -4.45 -13.75 -4.4 -13.85 -4.35 -13.9 -4.35 -14.7 -4.1 -14.75 -4.1 Q-14.75 -4.05 -15.15 -3.45 L-15.65 -2.8 -15.8 -2.65 -15.4 -2.45 -15.35 -2.4 -15.2 -2.35 -14.95 -2.4 -14.35 -2.55 -14.2 -2.6 Q-14.3 -2.65 -14.45 -2.7 L-14.65 -2.85 -14.45 -3.2 -13.7 -4.2 M-12.35 -4.8 L-13.35 -4.5 -13.9 -3.8 -14.3 -3.2 -14.5 -2.9 -14.45 -2.9 -14.05 -2.75 -14.0 -2.75 -14.0 -2.7 -13.9 -2.7 -12.6 -3.0 -12.65 -3.05 -12.75 -3.05 -12.95 -3.2 -12.75 -3.5 -12.65 -3.7 -12.65 -3.75 -12.55 -3.95 -12.2 -4.55 -12.05 -4.9 -12.35 -4.8 M-11.95 -4.95 L-12.0 -4.9 -12.05 -4.8 -11.95 -4.95 M-10.65 -5.35 L-11.85 -4.95 -11.9 -4.95 -12.4 -4.05 -12.55 -3.7 -12.75 -3.25 -12.5 -3.05 -12.1 -3.15 -10.25 -3.5 -10.55 -3.7 Q-11.0 -3.95 -11.0 -4.0 L-11.0 -4.05 -10.7 -4.8 -10.4 -5.4 -10.5 -5.35 -10.65 -5.35 M-12.6 -3.6 L-12.6 -3.6 M-12.5 -3.95 L-12.5 -3.95 M-15.2 -4.0 L-15.25 -3.95 -16.05 -3.7 -16.1 -3.6 -16.15 -3.6 -16.35 -2.8 -16.4 -2.7 -16.45 -2.6 -16.5 -2.45 Q-16.5 -2.35 -16.4 -2.25 L-16.2 -2.15 -16.15 -2.1 -16.05 -2.1 -15.5 -2.25 -15.65 -2.3 -15.75 -2.4 Q-16.0 -2.5 -16.0 -2.55 L-15.8 -2.9 -15.55 -3.2 -15.15 -3.65 -14.75 -4.1 -14.8 -4.1 -15.15 -4.0 -15.2 -4.0 M-15.45 -2.25 L-16.05 -2.05 -16.0 -2.05 -15.4 -2.25 -15.45 -2.25 M-15.8 -1.9 L-15.85 -1.9 -15.85 -1.85 -15.8 -1.9 M-16.75 -2.5 L-16.75 -2.5 M-16.7 -0.75 L-16.7 -0.8 -16.75 -0.95 -16.75 -1.0 -16.7 -1.05 -16.4 -1.5 -16.2 -1.75 -16.45 -1.95 -16.7 -2.2 -16.8 -2.25 -16.85 -2.15 -16.9 -1.95 -16.9 -1.9 -16.95 -1.55 -17.0 -1.45 Q-17.0 -1.2 -16.85 -0.9 L-16.7 -0.75 -16.7 -0.75 M-15.95 -2.0 L-15.95 -2.0 M-4.35 -8.25 Q-4.5 -8.7 -4.65 -9.05 L-5.35 -8.85 -5.6 -8.75 -5.8 -8.5 -5.75 -8.45 -5.55 -7.35 -5.2 -5.2 -5.05 -4.45 -5.05 -4.25 -4.9 -3.65 -4.75 -3.0 -4.65 -2.55 -4.65 -2.4 -4.6 -2.4 Q-4.2 -2.6 -3.25 -2.85 -3.15 -3.1 -3.15 -3.15 -3.15 -3.35 -3.3 -3.95 -3.4 -4.6 -3.65 -5.8 -4.0 -7.3 -4.35 -8.25 M-2.1 -9.85 L-2.1 -9.85 M-1.3 -6.25 L-2.15 -9.85 Q-3.5 -9.4 -4.3 -9.15 L-3.55 -6.55 -3.25 -5.45 -2.85 -3.8 -2.85 -3.75 -2.8 -3.3 -2.8 -3.2 Q-2.8 -3.05 -2.85 -2.95 L-0.8 -3.5 -1.05 -4.85 -1.25 -6.0 -1.3 -6.25 M-6.25 -10.1 L-6.35 -10.0 -6.25 -10.05 -6.25 -10.1 M-6.4 -9.85 Q-6.65 -9.7 -7.0 -9.5 L-7.2 -9.4 -7.45 -9.25 -7.6 -9.15 -7.65 -9.15 -7.75 -9.1 -7.85 -9.0 -7.8 -8.85 -7.8 -8.7 -7.75 -8.75 -7.2 -9.1 Q-6.85 -9.4 -6.65 -9.45 L-6.25 -9.5 -6.3 -9.8 -6.3 -9.95 -6.4 -9.85 M-6.2 -9.15 L-6.25 -9.2 -6.25 -9.25 -6.4 -9.3 Q-6.6 -9.3 -7.1 -9.0 -7.7 -8.65 -7.7 -8.4 L-7.65 -7.9 -7.55 -7.45 -7.5 -7.2 -7.45 -7.2 -7.5 -7.15 -7.35 -6.45 -7.3 -6.45 -7.35 -6.4 -7.35 -6.35 Q-7.25 -6.25 -7.25 -6.1 L-7.3 -5.9 -7.15 -5.3 -7.1 -4.85 -7.0 -4.55 -7.0 -4.4 -6.95 -4.4 -6.95 -4.25 -6.9 -4.1 -6.9 -4.0 -6.85 -3.75 -6.65 -2.9 -6.5 -2.15 -6.45 -2.05 -6.45 -1.9 -6.4 -1.9 -6.4 -1.75 Q-6.35 -1.65 -6.2 -1.65 L-6.1 -1.65 -5.55 -1.75 -4.95 -1.85 -4.85 -1.85 -4.8 -1.9 -4.8 -1.95 -4.9 -2.3 -4.9 -2.4 Q-4.9 -2.55 -4.95 -2.65 L-5.05 -3.1 Q-5.35 -4.35 -5.65 -6.1 L-5.9 -7.25 -5.9 -7.4 -6.05 -8.15 -6.15 -8.6 -6.2 -9.15 M-5.75 -5.95 L-5.7 -5.9 Q-5.65 -5.75 -5.65 -5.55 L-5.65 -5.45 Q-5.65 -5.2 -5.7 -5.0 -5.85 -4.7 -6.3 -4.7 -6.65 -4.7 -6.8 -5.0 -6.9 -5.2 -6.9 -5.35 L-6.9 -5.5 -6.85 -5.85 Q-6.8 -6.15 -6.5 -6.3 -5.95 -6.35 -5.75 -5.95 M-7.9 -8.65 L-7.9 -8.65 M-7.7 -7.5 L-7.65 -7.2 -7.7 -7.55 -7.7 -7.5 M-6.65 -5.45 L-6.65 -5.4 -6.6 -5.25 -6.5 -5.05 -6.4 -5.05 -6.15 -5.05 -6.1 -5.1 Q-6.05 -5.15 -5.95 -5.3 -5.85 -5.45 -5.85 -5.55 -5.85 -6.0 -6.25 -6.05 -6.65 -6.05 -6.65 -5.45 M-7.45 -6.7 L-7.4 -6.45 -7.5 -6.8 -7.45 -6.7 M-7.6 -6.9 L-7.6 -6.9 M-7.7 -6.65 L-7.75 -6.85 -7.75 -6.9 Q-7.95 -6.6 -8.0 -6.4 L-7.9 -6.4 -7.65 -6.45 -7.7 -6.65 M-7.7 -6.25 L-8.9 -5.85 -7.75 -6.15 -7.7 -6.2 -7.7 -6.25 M-9.5 -4.55 L-9.5 -4.5 Q-9.5 -4.4 -9.25 -4.1 L-8.85 -3.8 -7.75 -4.05 -8.1 -4.3 -8.45 -4.7 -8.45 -4.8 -8.15 -5.4 -7.75 -6.15 -7.8 -6.15 -7.9 -6.1 -8.9 -5.8 -9.2 -5.2 -9.5 -4.55 M-7.65 -6.2 L-7.7 -6.2 -7.7 -6.15 -7.65 -6.2 -7.75 -6.1 -8.05 -5.45 -8.3 -4.8 -7.55 -4.05 -7.45 -4.1 -7.35 -4.1 -7.15 -4.3 -7.3 -5.05 -7.6 -6.15 -7.65 -6.2 M-7.35 -4.1 L-7.35 -4.1 M-7.3 -3.7 Q-7.2 -3.5 -7.0 -3.45 L-7.05 -3.9 -7.05 -3.95 -7.4 -3.85 -7.3 -3.7 M-9.3 -5.7 L-9.7 -5.6 -10.35 -5.4 -10.65 -4.8 -10.95 -4.15 -10.95 -4.1 Q-10.95 -4.0 -10.55 -3.7 L-10.2 -3.5 -9.2 -3.7 -9.05 -3.75 -9.1 -3.85 -9.6 -4.35 -9.65 -4.4 -9.65 -4.45 -9.25 -5.2 -8.95 -5.8 -9.3 -5.7 M-9.1 -5.8 L-9.1 -5.8 M-6.3 -1.25 Q-5.9 -1.5 -5.3 -1.45 L-4.7 -1.4 -4.75 -1.65 Q-4.9 -1.55 -5.15 -1.5 L-5.95 -1.45 -6.35 -1.5 -6.3 -1.25" fill="#111111" fill-rule="evenodd" stroke="none"/>
    <path d="M15.9 -15.5 L15.8 -15.5 15.9 -15.5 M-17.0 -2.1 L-17.0 -2.05 -17.0 -2.1 M-16.7 -0.75 L-16.7 -0.75 M-6.2 -9.15 L-6.25 -9.2 -6.2 -9.15 M-6.05 -8.15 L-6.1 -8.35 -6.1 -8.4 -6.15 -8.6 -6.05 -8.15" fill="#80c0f0" fill-rule="evenodd" stroke="none"/>
    <path d="M13.7 -8.15 L12.55 -10.35 12.25 -10.95 11.55 -12.25 11.4 -12.5 10.55 -13.8 10.6 -13.8 Q11.45 -12.95 12.35 -11.45 L13.1 -10.05 Q13.05 -10.85 12.6 -12.35 L12.2 -13.7 Q12.4 -13.15 12.5 -12.7 12.6 -12.25 12.85 -11.6 L13.25 -10.55 13.55 -9.7 14.0 -8.5 Q14.25 -7.8 14.3 -7.4 L14.3 -7.05 14.2 -7.05 13.75 -7.95 13.7 -8.2 13.7 -8.15 M12.0 -8.6 L11.7 -11.4 11.7 -11.3 11.75 -11.1 11.95 -10.5 12.1 -9.85 Q12.2 -9.35 12.2 -9.15 12.2 -8.05 12.3 -7.35 L12.3 -7.45 12.05 -8.45 12.0 -8.6 M0.4 -4.6 L0.7 -4.55 1.0 -4.35 1.1 -4.25 1.15 -4.1 1.2 -4.0 0.65 -3.85 0.6 -3.95 0.4 -4.6 M0.1 -4.35 Q0.3 -3.95 0.4 -3.8 L-0.45 -3.6 Q-0.45 -3.9 -0.55 -4.45 L-0.05 -4.4 0.1 -4.35 M-1.35 -8.8 Q-0.75 -8.15 -0.1 -7.2 1.15 -5.3 1.7 -4.5 L2.05 -4.65 2.4 -4.7 2.45 -4.5 2.5 -4.35 2.5 -4.3 1.5 -4.05 Q1.4 -4.65 0.25 -6.2 L-0.8 -7.55 -1.35 -8.8 M17.4 -12.15 Q17.5 -12.1 17.55 -12.1 L17.8 -12.15 17.8 -11.9 Q17.8 -11.7 17.7 -11.55 L17.65 -11.45 17.4 -12.15 M12.9 -9.3 L12.9 -9.2 13.0 -9.1 13.3 -8.5 13.3 -8.45 13.8 -7.6 14.15 -7.05 12.6 -6.65 12.65 -7.05 12.6 -7.3 12.6 -7.6 12.65 -7.75 Q12.95 -8.25 12.95 -8.7 L12.9 -9.3 M-17.6 -3.0 Q-17.5 -2.85 -17.55 -2.75 L-17.55 -2.55 Q-17.6 -2.4 -17.7 -2.4 -17.75 -2.4 -17.75 -2.45 L-17.8 -2.6 -17.75 -2.8 -17.6 -3.0 M-13.5 -4.45 L-13.65 -4.25 -13.7 -4.2 -14.45 -3.2 -14.65 -2.85 -14.45 -2.7 Q-14.3 -2.65 -14.2 -2.6 L-14.35 -2.55 -14.95 -2.4 -15.2 -2.35 -15.35 -2.4 -15.4 -2.45 -15.8 -2.65 -15.65 -2.8 -14.95 -3.05 -14.6 -3.15 -14.4 -3.5 Q-14.05 -4.05 -13.75 -4.4 L-13.5 -4.45 M-14.3 -3.2 L-13.7 -3.35 -13.15 -3.45 -12.9 -3.9 -12.35 -4.8 -12.05 -4.9 -12.2 -4.55 -12.55 -3.95 -12.65 -3.75 -12.65 -3.7 -12.7 -3.7 -12.8 -3.5 -12.75 -3.5 -12.95 -3.2 -12.75 -3.05 -12.65 -3.05 -13.5 -2.8 -14.0 -2.7 -14.0 -2.75 -14.05 -2.75 -14.45 -2.9 -14.5 -2.9 -14.3 -3.2 M-12.55 -3.7 L-12.4 -3.75 -11.45 -4.0 -11.1 -4.55 -10.65 -5.35 -10.5 -5.35 -10.4 -5.4 -10.7 -4.8 -11.0 -4.05 -11.0 -4.0 Q-11.0 -3.95 -10.55 -3.7 L-10.25 -3.5 -12.1 -3.15 -12.5 -3.05 -12.75 -3.25 -12.55 -3.7 M-16.4 -2.7 L-16.0 -2.85 -15.65 -3.35 -15.2 -3.95 -15.2 -4.0 -15.15 -4.0 -14.8 -4.1 -15.15 -3.65 -15.55 -3.2 -15.8 -2.9 -16.0 -2.55 Q-16.0 -2.5 -15.75 -2.4 L-15.65 -2.3 -15.5 -2.25 -16.05 -2.1 -16.15 -2.1 -16.2 -2.15 -16.4 -2.25 Q-16.5 -2.35 -16.5 -2.45 L-16.45 -2.6 -16.4 -2.7 M-5.05 -4.45 Q-4.95 -4.4 -4.95 -4.3 L-4.9 -4.05 Q-4.8 -3.65 -4.25 -3.65 -3.55 -3.65 -3.5 -3.85 L-3.5 -4.05 Q-3.6 -4.8 -3.9 -6.4 L-4.35 -8.25 Q-4.0 -7.3 -3.65 -5.8 -3.4 -4.6 -3.3 -3.95 -3.15 -3.35 -3.15 -3.15 -3.15 -3.1 -3.25 -2.85 -4.2 -2.6 -4.6 -2.4 L-4.65 -2.4 -4.65 -2.55 -4.75 -3.0 -4.9 -3.65 -5.05 -4.25 -5.05 -4.45 M-3.25 -5.45 L-3.05 -4.8 Q-2.8 -4.05 -2.4 -4.05 -1.9 -4.05 -1.35 -4.3 -1.25 -4.4 -1.2 -4.6 -1.15 -4.8 -1.15 -5.0 -1.15 -5.2 -1.25 -5.55 L-1.35 -6.1 -1.3 -6.25 -1.25 -6.0 -1.05 -4.85 -0.8 -3.5 -2.85 -2.95 Q-2.8 -3.05 -2.8 -3.2 L-2.8 -3.3 -2.85 -3.75 -2.8 -3.75 -2.85 -3.8 -3.25 -5.45 M-6.4 -5.05 L-6.5 -5.05 -6.6 -5.25 -6.65 -5.4 -6.65 -5.45 -6.65 -5.5 -6.6 -5.45 Q-6.5 -5.35 -6.3 -5.35 -6.0 -5.35 -5.85 -5.55 -5.85 -5.45 -5.95 -5.3 -6.05 -5.15 -6.1 -5.1 L-6.4 -5.05 M-7.9 -6.1 L-7.8 -6.15 -7.75 -6.15 -8.15 -5.4 -8.45 -4.8 -8.45 -4.7 -8.1 -4.3 -7.75 -4.05 -8.85 -3.8 -9.25 -4.1 Q-9.5 -4.4 -9.5 -4.5 L-9.5 -4.55 Q-9.2 -4.65 -8.8 -4.75 L-8.75 -4.75 -8.6 -5.1 Q-8.2 -5.75 -7.9 -6.1 M-7.75 -6.1 L-7.65 -6.2 -7.6 -6.15 -7.3 -5.05 -7.15 -4.3 -7.35 -4.1 -7.45 -4.1 -7.55 -4.05 -8.3 -4.8 Q-7.75 -5.0 -7.5 -5.05 L-7.55 -5.3 -7.75 -6.1 M-9.3 -5.7 L-8.95 -5.8 -9.25 -5.2 -9.65 -4.45 -9.65 -4.4 -9.6 -4.35 -9.1 -3.85 -9.05 -3.8 -9.2 -3.7 -10.2 -3.5 -10.55 -3.7 Q-10.95 -4.0 -10.95 -4.1 L-10.95 -4.15 -10.4 -4.3 -10.05 -4.35 -9.8 -4.85 Q-9.6 -5.3 -9.3 -5.7" fill="#600000" fill-rule="evenodd" stroke="none"/>
    <path d="M13.7 -8.15 L13.7 -8.2 13.75 -7.95 13.7 -8.15 M12.2 -13.7 L12.6 -12.35 Q13.05 -10.85 13.1 -10.05 L12.35 -11.45 Q11.45 -12.95 10.6 -13.8 11.35 -14.05 11.9 -14.3 L12.2 -13.7 M12.0 -8.6 L11.7 -9.65 Q11.0 -12.25 10.5 -13.45 L10.7 -13.15 Q11.2 -12.4 11.35 -12.05 L11.7 -11.4 11.7 -11.3 11.7 -11.4 12.0 -8.6 M1.0 -4.35 L0.7 -4.55 0.4 -4.6 -0.35 -6.5 -0.45 -6.75 0.1 -5.85 0.85 -4.7 1.0 -4.35 M0.1 -4.35 L-0.05 -4.4 -0.55 -4.45 Q-0.7 -5.45 -1.1 -7.15 L-1.25 -7.75 -0.85 -6.75 -0.7 -6.35 Q-0.2 -5.0 0.1 -4.35 M2.4 -4.7 L2.05 -4.65 1.7 -4.5 Q1.15 -5.3 -0.1 -7.2 -0.75 -8.15 -1.35 -8.8 L-1.75 -9.9 -1.75 -10.0 -1.4 -10.1 Q-0.75 -9.45 -0.2 -8.7 L0.75 -7.2 1.85 -5.65 Q2.2 -5.15 2.4 -4.7 M17.8 -12.15 L17.55 -12.1 Q17.5 -12.1 17.4 -12.15 L17.05 -13.0 Q17.5 -12.9 17.7 -12.55 17.75 -12.4 17.8 -12.15 M12.6 -7.6 Q12.55 -8.55 12.25 -9.95 L12.15 -10.35 12.1 -10.7 12.35 -10.25 12.9 -9.3 12.95 -8.7 Q12.95 -8.25 12.65 -7.75 L12.6 -7.6 M-13.5 -4.45 L-13.4 -4.5 -13.7 -4.2 -13.65 -4.25 -13.5 -4.45 M-15.65 -2.8 L-15.15 -3.45 Q-14.75 -4.05 -14.75 -4.1 L-14.7 -4.1 -13.9 -4.35 -13.85 -4.35 -13.75 -4.4 Q-14.05 -4.05 -14.4 -3.5 L-14.6 -3.15 -14.95 -3.05 -15.65 -2.8 M-14.3 -3.2 L-13.9 -3.8 -13.35 -4.5 -12.35 -4.8 -12.9 -3.9 -13.15 -3.45 -13.7 -3.35 -14.3 -3.2 M-12.65 -3.7 L-12.75 -3.5 -12.8 -3.5 -12.7 -3.7 -12.65 -3.7 M-12.65 -3.05 L-12.6 -3.0 -13.9 -2.7 -14.0 -2.7 -13.5 -2.8 -12.65 -3.05 M-12.55 -3.7 L-12.4 -4.05 -11.9 -4.95 -11.85 -4.95 -10.65 -5.35 -11.1 -4.55 -11.45 -4.0 -12.4 -3.75 -12.55 -3.7 M-16.4 -2.7 L-16.35 -2.8 -16.15 -3.6 -16.1 -3.6 -16.05 -3.7 -15.25 -3.95 -15.2 -4.0 -15.2 -3.95 -15.65 -3.35 -16.0 -2.85 -16.4 -2.7 M-14.8 -4.1 L-14.75 -4.1 -15.15 -3.65 -14.8 -4.1 M-15.45 -2.25 L-15.4 -2.25 -16.0 -2.05 -16.05 -2.05 -15.45 -2.25 M-15.95 -2.0 L-15.95 -2.0 M-5.05 -4.45 L-5.2 -5.2 -5.55 -7.35 -5.75 -8.45 -5.8 -8.5 -5.6 -8.75 -5.35 -8.85 -4.65 -9.05 Q-4.5 -8.7 -4.35 -8.25 L-3.9 -6.4 Q-3.6 -4.8 -3.5 -4.05 L-3.5 -3.85 Q-3.55 -3.65 -4.25 -3.65 -4.8 -3.65 -4.9 -4.05 L-4.95 -4.3 Q-4.95 -4.4 -5.05 -4.45 M-4.6 -2.4 L-4.65 -2.4 -4.6 -2.4 M-3.25 -5.45 L-3.55 -6.55 -4.3 -9.15 Q-3.5 -9.4 -2.15 -9.85 L-1.3 -6.25 -1.35 -6.1 -1.25 -5.55 Q-1.15 -5.2 -1.15 -5.0 -1.15 -4.8 -1.2 -4.6 -1.25 -4.4 -1.35 -4.3 -1.9 -4.05 -2.4 -4.05 -2.8 -4.05 -3.05 -4.8 L-3.25 -5.45 M-2.85 -3.75 L-2.85 -3.8 -2.8 -3.75 -2.85 -3.75 M-6.65 -5.45 Q-6.65 -6.05 -6.25 -6.05 -5.85 -6.0 -5.85 -5.55 -6.0 -5.35 -6.3 -5.35 -6.5 -5.35 -6.6 -5.45 L-6.65 -5.5 -6.65 -5.45 M-6.1 -5.1 L-6.15 -5.05 -6.4 -5.05 -6.1 -5.1 M-7.9 -6.1 Q-8.2 -5.75 -8.6 -5.1 L-8.75 -4.75 -8.8 -4.75 Q-9.2 -4.65 -9.5 -4.55 L-9.2 -5.2 -8.9 -5.8 -7.9 -6.1 M-8.3 -4.8 L-8.05 -5.45 -7.75 -6.1 -7.55 -5.3 -7.5 -5.05 Q-7.75 -5.0 -8.3 -4.8 M-10.95 -4.15 L-10.65 -4.8 -10.35 -5.4 -9.7 -5.6 -9.3 -5.7 Q-9.6 -5.3 -9.8 -4.85 L-10.05 -4.35 -10.4 -4.3 -10.95 -4.15 M-9.65 -4.4 L-9.6 -4.35 -9.65 -4.4 M-9.1 -3.85 L-9.05 -3.75 -9.2 -3.7 -9.05 -3.8 -9.1 -3.85" fill="#b00000" fill-rule="evenodd" stroke="none"/>
    <path d="M12.1 -14.7 L12.05 -14.8 13.0 -15.0 Q12.4 -14.8 12.1 -14.7 M15.25 -15.7 Q15.55 -15.8 15.75 -15.85 L15.95 -15.9 Q16.05 -15.9 16.0 -15.85 L16.05 -15.7 15.6 -15.75 15.25 -15.7 M12.55 -13.75 L12.7 -13.4 13.25 -12.25 Q13.15 -12.5 13.15 -12.65 L12.95 -13.3 Q12.7 -13.95 12.65 -14.15 13.0 -14.3 13.65 -14.55 14.35 -14.8 15.15 -14.95 L15.55 -15.05 Q15.7 -15.05 15.85 -14.9 L16.05 -14.75 16.1 -14.65 16.15 -14.65 16.2 -14.45 16.35 -14.1 16.4 -13.6 Q16.4 -12.95 16.8 -11.3 17.15 -9.7 17.15 -8.55 L17.1 -8.05 17.05 -7.9 Q16.5 -7.55 15.05 -7.45 14.95 -7.55 14.85 -7.7 14.65 -8.35 14.55 -8.55 14.25 -9.1 13.95 -9.85 L13.7 -10.55 Q13.6 -10.95 13.45 -11.15 L13.2 -11.8 13.1 -12.0 12.75 -13.15 12.55 -13.75 M12.4 -14.35 L12.35 -14.3 12.35 -14.2 12.3 -14.35 12.4 -14.35 M18.45 -8.65 L18.35 -8.65 18.05 -8.55 17.65 -10.5 17.55 -11.05 17.75 -10.5 Q18.25 -9.3 18.45 -8.65 M-18.35 -1.9 L-18.4 -2.15 -18.55 -3.05 Q-18.55 -3.45 -17.8 -4.1 L-17.55 -4.25 -17.1 -4.45 Q-17.4 -4.3 -17.7 -4.1 -18.5 -3.5 -18.5 -3.1 -18.5 -2.75 -18.35 -2.7 -18.6 -3.2 -17.9 -3.7 -16.9 -4.3 -16.4 -4.65 L-16.6 -4.65 -16.25 -4.75 Q-16.4 -4.45 -16.5 -4.05 L-16.7 -3.1 -16.8 -2.8 -16.85 -2.75 Q-17.0 -2.55 -17.15 -2.45 L-17.3 -2.3 -17.6 -2.1 -17.8 -1.95 Q-18.0 -1.85 -18.1 -1.85 L-18.35 -1.9 M-17.65 -3.15 Q-17.9 -3.1 -17.95 -2.65 L-17.9 -2.45 Q-17.85 -2.25 -17.7 -2.25 -17.45 -2.25 -17.4 -2.8 -17.4 -3.2 -17.65 -3.15 M-18.15 -0.75 L-18.1 -0.8 -18.15 -0.9 -18.15 -1.2 -18.05 -1.35 -17.7 -1.65 -17.3 -2.0 -17.15 -2.15 -17.2 -2.05 -17.35 -1.55 Q-17.4 -1.25 -17.4 -1.05 L-17.2 -0.6 -17.5 -0.6 Q-17.7 -0.6 -18.15 -0.75 M-17.9 -1.35 L-17.9 -1.35 M-18.05 -0.95 L-18.05 -1.0 -17.7 -1.45 -17.25 -1.9 -17.45 -1.75 -17.3 -1.9 -17.3 -1.95 -17.8 -1.5 Q-18.1 -1.3 -18.1 -1.05 -18.1 -1.0 -18.05 -0.95 M-16.85 -2.15 L-16.7 -2.0 -16.55 -1.8 Q-16.55 -1.75 -16.6 -1.55 L-16.7 -1.3 -16.85 -0.9 Q-17.0 -1.2 -17.0 -1.45 L-16.95 -1.55 -16.9 -1.9 -16.9 -1.95 -16.85 -2.15 M-6.4 -9.85 L-6.4 -9.8 Q-6.4 -9.65 -6.65 -9.55 L-7.25 -9.3 -7.8 -8.85 -7.85 -9.0 -6.55 -9.7 -6.55 -9.75 -7.1 -9.45 -7.2 -9.4 -7.0 -9.5 Q-6.65 -9.7 -6.4 -9.85 M-6.4 -9.3 Q-6.35 -8.7 -5.85 -6.45 L-5.75 -6.0 -5.75 -5.95 Q-5.95 -6.35 -6.5 -6.3 -6.8 -6.15 -6.85 -5.85 L-6.9 -5.5 -6.9 -5.35 -6.95 -5.1 Q-6.95 -5.0 -6.7 -4.8 -6.45 -4.5 -6.2 -4.5 -5.8 -4.5 -5.6 -4.95 L-5.55 -5.2 -5.3 -4.2 -5.0 -2.4 Q-5.0 -2.25 -5.25 -2.15 L-5.65 -2.15 Q-6.3 -2.05 -6.5 -2.45 -6.6 -2.7 -6.65 -3.15 L-6.85 -3.75 -6.9 -4.0 -6.9 -4.1 -6.95 -4.25 -6.95 -4.4 -7.0 -4.4 -7.0 -4.55 -7.1 -4.85 -7.15 -5.3 -7.3 -5.9 -7.25 -6.1 Q-7.25 -6.25 -7.35 -6.35 L-7.35 -6.4 -7.3 -6.45 -7.35 -6.45 -7.5 -7.15 -7.45 -7.2 -7.5 -7.2 -7.55 -7.45 -7.65 -7.9 -7.7 -8.4 Q-7.7 -8.65 -7.1 -9.0 -6.6 -9.3 -6.4 -9.3 M-6.4 -9.0 Q-6.35 -9.35 -7.0 -9.05 -7.6 -8.75 -7.6 -8.35 -7.55 -8.1 -7.6 -8.0 L-7.55 -8.0 Q-7.55 -8.3 -7.25 -8.55 -6.95 -8.85 -6.4 -9.0 M-7.9 -6.4 L-8.0 -6.4 Q-7.95 -6.6 -7.75 -6.9 L-7.75 -6.85 -7.7 -6.65 -7.75 -6.6 -7.9 -6.4" fill="#e2bf00" fill-rule="evenodd" stroke="none"/>
    <path d="M15.8 -15.5 L15.65 -15.5 Q14.6 -15.5 13.3 -15.05 12.85 -14.85 12.6 -14.75 L12.3 -14.6 12.25 -14.65 12.15 -14.65 12.1 -14.7 Q12.4 -14.8 13.0 -15.0 L13.05 -15.05 13.15 -15.05 13.9 -15.25 14.1 -15.3 15.15 -15.65 15.25 -15.7 15.6 -15.75 16.05 -15.7 16.15 -15.35 16.0 -15.45 15.95 -15.45 15.9 -15.5 15.8 -15.5 M16.35 -14.1 L16.5 -13.6 16.6 -13.1 Q16.6 -12.4 17.3 -9.7 L17.35 -9.45 17.75 -8.0 Q17.5 -7.65 16.95 -7.45 16.45 -7.3 14.8 -7.0 L14.8 -7.1 14.75 -7.15 14.65 -7.15 Q14.65 -7.45 14.5 -7.95 L14.15 -9.05 13.4 -11.05 13.15 -11.9 13.1 -12.0 13.2 -11.8 13.45 -11.15 Q13.6 -10.95 13.7 -10.55 L13.95 -9.85 Q14.25 -9.1 14.55 -8.55 14.65 -8.35 14.85 -7.7 14.95 -7.55 15.05 -7.45 16.5 -7.55 17.05 -7.9 L17.1 -8.05 17.15 -8.55 Q17.15 -9.7 16.8 -11.3 16.4 -12.95 16.4 -13.6 L16.35 -14.1 M18.45 -8.65 Q18.55 -8.25 18.55 -8.05 18.55 -7.95 18.2 -7.75 L18.1 -7.65 Q18.0 -8.4 17.45 -10.8 L17.15 -12.15 Q17.25 -11.75 17.5 -11.15 L17.55 -11.05 17.65 -10.5 18.05 -8.55 18.35 -8.65 18.45 -8.65 M17.85 -7.45 L17.2 -7.1 16.75 -6.95 16.6 -6.95 16.05 -6.85 Q15.15 -6.7 14.65 -6.55 L14.65 -6.65 14.7 -6.9 Q15.7 -6.9 16.85 -7.35 17.5 -7.6 17.8 -7.85 L17.85 -7.5 17.85 -7.45 M-18.35 -1.9 L-18.1 -1.85 Q-18.0 -1.85 -17.8 -1.95 L-17.6 -2.1 -17.3 -2.3 -17.15 -2.45 Q-17.0 -2.55 -16.85 -2.75 L-16.8 -2.8 -16.7 -3.1 -16.5 -4.05 Q-16.4 -4.45 -16.25 -4.75 L-16.15 -4.75 -16.1 -4.7 -16.15 -4.55 Q-16.35 -4.2 -16.55 -3.25 L-16.7 -2.7 -16.75 -2.5 -16.95 -2.4 -17.0 -2.4 -17.35 -2.15 -17.8 -1.85 Q-18.15 -1.55 -18.3 -1.3 L-18.3 -1.45 Q-18.3 -1.6 -18.35 -1.9 M-18.15 -0.75 Q-17.7 -0.6 -17.5 -0.6 L-17.2 -0.6 -17.4 -1.05 Q-17.4 -1.25 -17.35 -1.55 L-17.2 -2.05 -17.15 -2.15 -17.0 -2.3 -17.0 -2.1 -17.0 -2.05 -17.15 -1.8 Q-17.2 -1.6 -17.2 -1.15 -17.2 -0.8 -17.0 -0.7 L-16.55 -0.25 -16.85 -0.25 -17.25 -0.3 -17.4 -0.35 -17.95 -0.6 Q-18.1 -0.65 -18.15 -0.75 M-16.85 -2.15 L-16.8 -2.25 -16.7 -2.2 -16.45 -1.95 -16.2 -1.75 -16.4 -1.5 -16.7 -1.05 -16.75 -1.0 -16.75 -0.95 -16.7 -0.8 -16.7 -0.75 -16.85 -0.9 -16.7 -1.3 -16.6 -1.55 Q-16.55 -1.75 -16.55 -1.8 L-16.7 -2.0 -16.85 -2.15 M-7.8 -8.85 L-7.25 -9.3 -6.65 -9.55 Q-6.4 -9.65 -6.4 -9.8 L-6.4 -9.85 -6.3 -9.95 -6.3 -9.8 -6.25 -9.5 -6.65 -9.45 Q-6.85 -9.4 -7.2 -9.1 L-7.75 -8.75 -7.8 -8.7 -7.8 -8.85 M-6.25 -9.2 L-6.2 -9.15 -6.15 -8.6 -6.1 -8.4 -6.1 -8.35 -6.05 -8.15 -5.9 -7.4 -5.9 -7.25 -5.65 -6.1 Q-5.35 -4.35 -5.05 -3.1 L-4.95 -2.65 Q-4.9 -2.55 -4.9 -2.4 L-4.9 -2.3 -4.8 -1.95 -4.8 -1.9 -4.85 -1.85 -4.95 -1.85 -5.55 -1.75 -6.1 -1.65 -6.2 -1.65 Q-6.35 -1.65 -6.4 -1.75 L-6.4 -1.9 -6.45 -1.9 -6.45 -2.05 -6.5 -2.15 -6.65 -2.9 -6.85 -3.75 -6.65 -3.15 Q-6.6 -2.7 -6.5 -2.45 -6.3 -2.05 -5.65 -2.15 L-5.25 -2.15 Q-5.0 -2.25 -5.0 -2.4 L-5.3 -4.2 -5.55 -5.2 -5.6 -4.95 Q-5.8 -4.5 -6.2 -4.5 -6.45 -4.5 -6.7 -4.8 -6.95 -5.0 -6.95 -5.1 L-6.9 -5.35 -6.9 -5.5 -6.9 -5.35 Q-6.9 -5.2 -6.8 -5.0 -6.65 -4.7 -6.3 -4.7 -5.85 -4.7 -5.7 -5.0 -5.65 -5.2 -5.65 -5.45 L-5.65 -5.55 Q-5.65 -5.75 -5.7 -5.9 L-5.75 -5.95 -5.75 -6.0 -5.85 -6.45 Q-6.35 -8.7 -6.4 -9.3 L-6.25 -9.25 -6.25 -9.2 M-7.7 -6.65 L-7.65 -6.45 -7.9 -6.4 -7.75 -6.6 -7.7 -6.65 M-7.3 -3.7 L-7.4 -3.85 -7.05 -3.95 -7.05 -3.9 -7.0 -3.45 Q-7.2 -3.5 -7.3 -3.7 M-6.3 -1.25 L-6.35 -1.5 -5.95 -1.45 -5.15 -1.5 Q-4.9 -1.55 -4.75 -1.65 L-4.7 -1.4 -5.3 -1.45 Q-5.9 -1.5 -6.3 -1.25" fill="#b37500" fill-rule="evenodd" stroke="none"/>
    <path d="M12.55 -13.75 L12.4 -14.2 12.35 -14.2 12.35 -14.3 12.4 -14.35 13.55 -14.7 Q14.7 -15.05 15.85 -15.25 15.95 -15.15 16.0 -14.95 L16.05 -14.75 15.85 -14.9 Q15.7 -15.05 15.55 -15.05 L15.15 -14.95 Q14.35 -14.8 13.65 -14.55 13.0 -14.3 12.65 -14.15 12.7 -13.95 12.95 -13.3 L13.15 -12.65 Q13.15 -12.5 13.25 -12.25 L12.7 -13.4 12.55 -13.75 M-16.6 -4.65 L-16.4 -4.65 Q-16.9 -4.3 -17.9 -3.7 -18.6 -3.2 -18.35 -2.7 -18.5 -2.75 -18.5 -3.1 -18.5 -3.5 -17.7 -4.1 -17.4 -4.3 -17.1 -4.45 L-16.6 -4.65 M-18.05 -0.95 Q-18.1 -1.0 -18.1 -1.05 -18.1 -1.3 -17.8 -1.5 L-17.3 -1.95 -17.3 -1.9 -17.45 -1.75 -17.25 -1.9 -17.7 -1.45 -18.05 -1.0 -18.05 -0.95 M-17.9 -1.35 L-17.9 -1.35 M-7.2 -9.4 L-7.1 -9.45 -6.55 -9.75 -6.55 -9.7 -7.85 -9.0 -7.75 -9.1 -7.65 -9.15 -7.6 -9.15 -7.45 -9.25 -7.2 -9.4 M-6.4 -9.0 Q-6.95 -8.85 -7.25 -8.55 -7.55 -8.3 -7.55 -8.0 L-7.6 -8.0 Q-7.55 -8.1 -7.6 -8.35 -7.6 -8.75 -7.0 -9.05 -6.35 -9.35 -6.4 -9.0" fill="#fff7cb" fill-rule="evenodd" stroke="none"/>
    <path d="M1.85 -6.15 Q2.65 -5.5 3.3 -5.5 3.9 -5.5 6.65 -6.2 L10.3 -7.1 Q11.2 -7.3 11.5 -7.8 11.6 -8.05 11.7 -8.45 L11.7 -8.4 11.75 -8.2 Q12.15 -6.75 12.15 -6.6 L12.15 -6.55 10.8 -6.25 4.8 -4.85 2.9 -4.4 2.8 -4.55 2.4 -5.2 1.85 -6.05 1.85 -6.15" fill="#262626" fill-rule="evenodd" stroke="none"/>
    <path d="M1.85 -6.15 L1.0 -7.55 Q-0.05 -9.15 -1.05 -10.2 L2.45 -11.25 3.4 -11.55 4.15 -11.75 9.5 -13.45 10.05 -13.65 Q10.65 -12.95 10.85 -11.95 11.05 -10.75 11.2 -10.15 L11.7 -8.45 Q11.6 -8.05 11.5 -7.8 11.2 -7.3 10.3 -7.1 L6.65 -6.2 Q3.9 -5.5 3.3 -5.5 2.65 -5.5 1.85 -6.15" fill="#3a3a3a" fill-rule="evenodd" stroke="none"/>
  </g>
</svg>
