<?xml version="1.0" encoding="UTF-8" standalone="no"?>
<svg xmlns:ffdec="https://www.free-decompiler.com/flash" xmlns:xlink="http://www.w3.org/1999/xlink" ffdec:objectType="shape" height="12.8px" width="13.5px" xmlns="http://www.w3.org/2000/svg">
  <g transform="matrix(1.0, 0.0, 0.0, 1.0, 0.6, 13.25)">
    <path d="M12.25 -10.9 Q11.9 -11.35 11.6 -11.6 11.2 -11.95 10.45 -12.05 L10.0 -12.05 Q10.15 -12.15 10.3 -12.15 10.35 -12.2 10.45 -12.25 10.5 -12.3 10.6 -12.3 L10.65 -12.35 10.7 -12.35 10.6 -12.4 9.8 -12.65 9.2 -12.75 8.3 -12.7 8.05 -12.6 8.0 -12.6 7.95 -12.65 Q7.9 -12.65 7.9 -12.7 L7.9 -12.75 7.95 -12.8 8.05 -12.95 Q7.95 -13.0 7.9 -13.0 7.05 -13.0 6.45 -12.8 L6.0 -12.65 4.85 -12.95 3.55 -13.0 Q3.4 -13.0 3.3 -12.95 L3.65 -12.6 3.6 -12.5 3.5 -12.5 2.85 -12.6 Q2.45 -12.6 1.8 -12.25 L1.4 -12.0 1.25 -11.95 1.15 -11.85 Q1.2 -11.8 1.25 -11.75 L1.4 -11.75 1.5 -11.7 1.7 -11.7 1.75 -11.65 1.7 -11.6 Q1.6 -11.5 1.35 -11.35 0.95 -11.15 0.9 -11.0 L0.8 -10.8 0.75 -10.7 0.7 -10.7 Q0.95 -10.8 1.2 -10.8 L1.25 -10.8 1.3 -10.75 1.2 -10.7 1.35 -10.75 Q0.95 -10.55 0.65 -10.3 L0.65 -10.25 0.55 -10.2 Q0.25 -9.9 0.3 -9.7 L0.3 -9.65 0.3 -9.5 Q0.35 -9.5 0.5 -9.55 0.65 -9.7 0.85 -9.8 L0.85 -9.75 0.75 -9.55 0.7 -9.4 Q0.5 -9.0 0.5 -8.8 L0.5 -8.6 0.55 -8.55 0.6 -8.35 Q0.65 -8.35 0.9 -8.55 L1.15 -8.7 Q1.25 -8.7 1.25 -8.55 L1.25 -8.5 1.1 -8.1 Q1.1 -8.05 1.2 -7.95 L1.2 -7.9 Q1.4 -8.0 1.5 -8.0 L1.85 -7.95 1.9 -7.9 Q2.1 -7.7 2.55 -7.6 L3.25 -7.4 3.95 -7.25 4.15 -7.25 4.3 -7.2 4.4 -7.2 4.95 -7.1 6.1 -6.9 7.9 -6.95 8.35 -6.95 8.65 -6.95 10.05 -7.2 10.15 -7.2 10.9 -7.35 11.0 -7.3 11.15 -7.35 Q11.45 -7.4 11.6 -7.6 L11.7 -7.85 11.75 -7.95 11.85 -8.05 11.9 -8.05 12.05 -7.9 12.2 -7.7 12.25 -7.85 12.3 -7.9 Q12.4 -8.15 12.4 -8.45 L12.35 -8.5 12.3 -8.6 12.2 -8.75 12.2 -8.8 12.3 -8.85 12.5 -8.75 12.55 -8.7 12.55 -9.05 12.5 -9.15 12.4 -9.4 12.35 -9.45 12.05 -9.9 11.95 -9.95 11.8 -10.1 11.75 -10.15 Q11.9 -10.15 12.05 -10.05 L12.35 -9.75 12.45 -9.75 12.5 -9.8 12.3 -10.05 12.3 -10.1 12.0 -10.35 11.75 -10.55 11.65 -10.65 11.35 -10.8 11.3 -10.85 11.3 -10.9 Q11.75 -10.8 12.1 -10.6 L12.35 -10.75 12.35 -10.8 12.25 -10.9 M10.85 -12.2 Q11.3 -12.1 11.8 -11.75 12.15 -11.5 12.4 -11.15 12.65 -10.85 12.65 -10.65 L12.6 -10.6 12.5 -10.45 12.4 -10.4 Q12.8 -10.15 12.8 -9.8 L12.8 -9.65 12.75 -9.65 Q12.75 -9.55 12.6 -9.55 L12.5 -9.55 Q12.7 -9.25 12.8 -8.95 12.9 -8.65 12.9 -8.45 L12.85 -8.4 12.8 -8.3 Q12.75 -8.3 12.65 -8.4 L12.55 -8.4 12.6 -7.9 Q12.4 -7.3 12.25 -7.3 12.15 -7.3 12.05 -7.5 L11.95 -7.75 Q11.9 -7.55 11.7 -7.3 11.5 -7.05 11.25 -6.95 L11.3 -6.9 11.3 -6.85 Q11.3 -6.65 11.45 -6.05 L11.5 -5.85 11.5 -4.85 11.6 -4.8 Q11.6 -4.55 11.6 -4.35 11.7 -3.75 12.05 -3.7 L12.55 -3.25 Q12.9 -2.65 12.9 -2.2 12.95 -1.55 11.2 -1.0 9.55 -0.45 7.9 -0.45 3.8 -0.35 1.3 -0.9 0.6 -1.05 0.15 -1.25 -0.65 -1.75 -0.6 -2.55 L-0.5 -2.9 -0.45 -3.15 Q-0.1 -3.75 0.3 -3.8 L0.45 -4.8 Q0.45 -5.3 0.6 -5.75 L0.7 -6.4 0.75 -6.85 Q0.75 -7.1 1.05 -7.6 0.95 -7.7 0.95 -7.85 0.85 -8.1 0.9 -8.25 L0.8 -8.2 Q0.7 -8.05 0.6 -8.05 0.35 -8.05 0.3 -8.4 0.25 -8.55 0.25 -8.75 0.25 -9.0 0.3 -9.2 L0.25 -9.15 0.15 -9.1 0.05 -9.1 0.05 -9.15 Q0.0 -9.2 0.0 -9.25 L0.05 -9.5 0.05 -9.55 Q0.05 -9.85 0.25 -10.25 L0.45 -10.45 Q0.45 -10.6 0.5 -10.75 0.55 -11.05 0.85 -11.35 L1.1 -11.55 Q1.0 -11.6 0.95 -11.6 0.85 -11.7 0.85 -11.75 0.85 -11.85 0.95 -11.95 1.0 -12.2 1.4 -12.45 2.0 -12.8 3.1 -12.85 3.05 -12.9 3.05 -12.95 3.05 -13.3 3.95 -13.25 4.6 -13.25 5.3 -13.0 L5.4 -13.0 5.95 -12.9 6.4 -13.0 7.7 -13.05 8.25 -13.0 8.3 -12.95 Q8.65 -13.05 9.5 -12.95 11.0 -12.75 11.0 -12.4 11.0 -12.3 10.85 -12.2 M3.55 -2.4 Q3.6 -3.25 3.8 -4.15 L3.95 -5.35 4.05 -6.45 4.05 -6.55 4.0 -7.05 2.5 -7.3 Q1.65 -7.5 1.4 -7.8 1.15 -7.35 1.05 -6.85 L0.95 -6.4 0.8 -5.8 0.65 -5.1 Q0.5 -4.15 0.5 -3.9 L0.45 -3.75 0.65 -3.55 0.8 -3.35 0.6 -3.5 Q-0.05 -3.9 -0.05 -3.15 -0.1 -2.75 2.75 -2.15 5.45 -1.65 6.75 -1.65 9.35 -1.7 11.05 -2.2 L11.4 -2.3 Q10.95 -2.1 10.55 -2.0 L9.55 -1.75 Q8.65 -1.55 7.9 -1.55 L3.8 -1.75 1.95 -2.05 Q1.05 -2.4 0.5 -2.55 L0.25 -2.6 0.15 -2.7 Q0.0 -2.85 -0.2 -2.8 L-0.3 -2.5 Q-0.35 -2.25 -0.2 -2.05 -0.05 -1.85 -0.05 -1.7 0.85 -1.3 3.4 -1.0 6.15 -0.7 7.9 -0.75 9.35 -0.75 10.95 -1.25 12.7 -1.8 12.7 -2.35 L12.65 -2.55 Q12.55 -2.7 12.35 -2.7 L12.15 -2.65 Q12.4 -2.85 12.4 -3.05 L12.35 -3.2 Q12.3 -3.4 12.1 -3.4 11.95 -3.4 11.6 -3.1 11.2 -2.8 10.75 -2.7 10.1 -2.55 8.4 -2.3 L6.1 -2.1 3.55 -2.4 M1.4 -2.95 Q1.65 -2.8 1.9 -2.75 L1.55 -2.8 1.4 -2.95 M5.7 -6.45 Q5.45 -4.35 5.45 -3.8 5.45 -3.45 5.55 -2.65 L5.6 -2.3 7.35 -2.3 Q7.35 -2.55 7.35 -2.85 L7.35 -4.2 Q7.3 -4.6 7.45 -5.6 7.45 -6.2 7.35 -6.5 L7.2 -6.65 6.15 -6.65 5.75 -6.7 5.7 -6.45 M5.5 -6.45 L5.5 -6.6 Q5.5 -6.7 5.55 -6.75 L4.3 -7.0 4.15 -6.45 4.1 -5.95 Q3.9 -4.85 3.85 -4.4 3.8 -3.25 3.8 -2.4 L5.45 -2.3 5.4 -3.8 5.5 -6.1 5.5 -6.45 M10.95 -7.0 L10.1 -6.85 8.6 -6.65 7.55 -6.65 7.5 -6.5 Q7.4 -5.05 7.4 -4.7 7.4 -4.5 7.55 -3.25 L7.65 -2.35 Q10.3 -2.5 11.0 -3.0 L11.05 -3.05 Q11.2 -3.1 11.35 -3.25 11.55 -3.45 11.55 -3.65 11.5 -4.0 11.3 -4.8 11.25 -5.5 11.1 -6.15 L11.05 -6.55 10.95 -6.95 10.95 -7.0" fill="#111111" fill-rule="evenodd" stroke="none"/>
    <path d="M0.8 -3.35 L1.4 -2.95 1.55 -2.8 1.9 -2.75 3.55 -2.4 6.1 -2.1 8.4 -2.3 Q10.1 -2.55 10.75 -2.7 11.2 -2.8 11.6 -3.1 11.95 -3.4 12.1 -3.4 12.3 -3.4 12.35 -3.2 L12.4 -3.05 Q12.4 -2.85 12.15 -2.65 L12.35 -2.7 Q12.55 -2.7 12.65 -2.55 L12.7 -2.35 Q12.7 -1.8 10.95 -1.25 9.35 -0.75 7.9 -0.75 6.15 -0.7 3.4 -1.0 0.85 -1.3 -0.05 -1.7 -0.05 -1.85 -0.2 -2.05 -0.35 -2.25 -0.3 -2.5 L-0.2 -2.8 Q0.0 -2.85 0.15 -2.7 L0.25 -2.6 0.5 -2.55 Q1.05 -2.4 1.95 -2.05 L3.8 -1.75 7.9 -1.55 Q8.65 -1.55 9.55 -1.75 L10.55 -2.0 Q10.95 -2.1 11.4 -2.3 L11.05 -2.2 Q9.35 -1.7 6.75 -1.65 5.45 -1.65 2.75 -2.15 -0.1 -2.75 -0.05 -3.15 -0.05 -3.9 0.6 -3.5 L0.8 -3.35 M5.7 -6.45 L5.75 -6.7 6.15 -6.65 7.2 -6.65 7.35 -6.5 Q7.45 -6.2 7.45 -5.6 7.3 -4.6 7.35 -4.2 L7.35 -2.85 Q7.35 -2.55 7.35 -2.3 L5.6 -2.3 5.55 -2.65 Q5.45 -3.45 5.45 -3.8 5.45 -4.35 5.7 -6.45 M5.5 -6.45 L5.5 -6.1 5.4 -3.8 5.45 -2.3 3.8 -2.4 Q3.8 -3.25 3.85 -4.4 3.9 -4.85 4.1 -5.95 L4.15 -6.45 4.3 -7.0 5.55 -6.75 Q5.5 -6.7 5.5 -6.6 L5.5 -6.45" fill="#600000" fill-rule="evenodd" stroke="none"/>
    <path d="M0.8 -3.35 L0.65 -3.55 0.45 -3.75 0.5 -3.9 Q0.5 -4.15 0.65 -5.1 L0.8 -5.8 0.95 -6.4 1.05 -6.85 Q1.15 -7.35 1.4 -7.8 1.65 -7.5 2.5 -7.3 L4.0 -7.05 4.05 -6.55 4.05 -6.45 3.95 -5.35 3.8 -4.15 Q3.6 -3.25 3.55 -2.4 L1.9 -2.75 Q1.65 -2.8 1.4 -2.95 L0.8 -3.35 M10.95 -7.0 L10.95 -6.95 11.05 -6.55 11.1 -6.15 Q11.25 -5.5 11.3 -4.8 11.5 -4.0 11.55 -3.65 11.55 -3.45 11.35 -3.25 11.2 -3.1 11.05 -3.05 L11.0 -3.0 Q10.3 -2.5 7.65 -2.35 L7.55 -3.25 Q7.4 -4.5 7.4 -4.7 7.4 -5.05 7.5 -6.5 L7.55 -6.65 8.6 -6.65 10.1 -6.85 10.95 -7.0" fill="#0070e0" fill-rule="evenodd" stroke="none"/>
    <path d="M1.4 -12.0 L1.8 -12.25 Q2.45 -12.6 2.85 -12.6 L3.5 -12.5 3.6 -12.5 3.65 -12.6 3.3 -12.95 Q3.4 -13.0 3.55 -13.0 L4.85 -12.95 6.0 -12.65 6.45 -12.8 Q7.05 -13.0 7.9 -13.0 7.95 -13.0 8.05 -12.95 L7.95 -12.8 7.9 -12.75 7.9 -12.7 Q7.9 -12.65 7.95 -12.65 L8.0 -12.6 8.05 -12.6 8.3 -12.7 9.2 -12.75 9.8 -12.65 10.6 -12.4 10.7 -12.35 10.65 -12.35 10.6 -12.3 Q10.5 -12.3 10.45 -12.25 10.35 -12.2 10.3 -12.15 10.15 -12.15 10.0 -12.05 L10.45 -12.05 Q11.2 -11.95 11.6 -11.6 11.9 -11.35 12.25 -10.9 L12.15 -11.05 11.75 -11.05 Q11.55 -11.05 11.1 -11.2 L10.55 -11.35 Q10.8 -11.25 11.15 -10.85 11.4 -10.65 11.75 -10.55 L12.0 -10.35 12.3 -10.1 12.3 -10.05 12.05 -10.05 Q11.9 -10.15 11.75 -10.15 L11.8 -10.1 11.6 -10.2 11.55 -10.2 12.05 -9.9 11.95 -9.95 12.05 -9.9 12.35 -9.45 12.4 -9.4 12.5 -9.15 12.4 -9.2 Q11.45 -9.65 11.25 -9.75 L11.2 -9.7 12.1 -8.75 12.35 -8.5 12.4 -8.45 Q12.4 -8.15 12.3 -7.9 12.2 -8.1 11.8 -8.4 L11.2 -8.8 Q11.3 -8.7 11.55 -8.2 L10.9 -7.8 10.2 -7.25 10.15 -7.2 10.05 -7.2 8.65 -6.95 8.35 -6.95 Q9.45 -8.25 9.45 -9.45 9.45 -10.5 9.15 -10.95 8.65 -11.95 6.95 -12.05 5.05 -12.1 4.1 -11.2 3.45 -10.55 3.45 -9.7 3.45 -9.15 3.8 -8.25 4.1 -7.55 4.3 -7.2 L4.15 -7.25 3.95 -7.25 3.25 -7.4 3.2 -7.45 Q3.0 -7.5 2.7 -7.8 L2.25 -8.2 2.2 -8.25 Q2.35 -8.55 2.35 -8.85 L2.35 -8.9 2.3 -8.95 2.1 -8.6 Q1.9 -8.35 1.6 -8.2 L1.15 -8.0 1.2 -7.95 Q1.1 -8.05 1.1 -8.1 L1.25 -8.5 Q1.8 -9.1 1.95 -9.55 L0.75 -8.75 0.5 -8.6 0.5 -8.8 Q0.5 -9.0 0.7 -9.4 L0.75 -9.55 0.85 -9.75 1.3 -10.25 Q0.65 -9.9 0.3 -9.65 L0.3 -9.7 Q0.25 -9.9 0.55 -10.2 L0.65 -10.25 0.65 -10.3 Q0.95 -10.55 1.35 -10.75 L1.2 -10.7 1.3 -10.75 1.8 -11.1 0.8 -10.8 0.9 -11.0 Q0.95 -11.15 1.35 -11.35 1.6 -11.5 1.7 -11.6 1.95 -11.7 2.45 -11.95 L1.4 -12.0" fill="#9c9581" fill-rule="evenodd" stroke="none"/>
    <path d="M1.4 -12.0 L2.45 -11.95 Q1.95 -11.7 1.7 -11.6 L1.75 -11.65 1.7 -11.7 1.5 -11.7 1.4 -11.75 1.25 -11.75 Q1.2 -11.8 1.15 -11.85 L1.25 -11.95 1.4 -12.0 M0.8 -10.8 L1.8 -11.1 1.3 -10.75 1.25 -10.8 1.2 -10.8 Q0.95 -10.8 0.7 -10.7 L0.75 -10.7 0.8 -10.8 M0.3 -9.65 Q0.65 -9.9 1.3 -10.25 L0.85 -9.75 0.85 -9.8 Q0.65 -9.7 0.5 -9.55 0.35 -9.5 0.3 -9.5 L0.3 -9.65 M0.5 -8.6 L0.75 -8.75 1.95 -9.55 Q1.8 -9.1 1.25 -8.5 L1.25 -8.55 Q1.25 -8.7 1.15 -8.7 L0.9 -8.55 Q0.65 -8.35 0.6 -8.35 L0.55 -8.55 0.5 -8.6 M1.2 -7.95 L1.15 -8.0 1.6 -8.2 Q1.9 -8.35 2.1 -8.6 L2.3 -8.95 2.35 -8.9 2.35 -8.85 Q2.35 -8.55 2.2 -8.25 L2.25 -8.2 2.7 -7.8 Q3.0 -7.5 3.2 -7.45 L3.25 -7.4 2.55 -7.6 Q2.1 -7.7 1.9 -7.9 L1.85 -7.95 1.5 -8.0 Q1.4 -8.0 1.2 -7.9 L1.2 -7.95 M4.3 -7.2 Q4.1 -7.55 3.8 -8.25 3.45 -9.15 3.45 -9.7 3.45 -10.55 4.1 -11.2 5.05 -12.1 6.95 -12.05 8.65 -11.95 9.15 -10.95 9.45 -10.5 9.45 -9.45 9.45 -8.25 8.35 -6.95 L7.9 -6.95 6.1 -6.9 4.95 -7.1 4.4 -7.2 4.3 -7.2 M10.15 -7.2 L10.2 -7.25 10.9 -7.8 11.55 -8.2 Q11.3 -8.7 11.2 -8.8 L11.8 -8.4 Q12.2 -8.1 12.3 -7.9 L12.25 -7.85 12.2 -7.7 12.05 -7.9 11.9 -8.05 11.85 -8.05 11.75 -7.95 11.7 -7.85 11.6 -7.6 Q11.45 -7.4 11.15 -7.35 L11.0 -7.3 10.9 -7.35 10.15 -7.2 M12.35 -8.5 L12.1 -8.75 11.2 -9.7 11.25 -9.75 Q11.45 -9.65 12.4 -9.2 L12.5 -9.15 12.55 -9.05 12.55 -8.7 12.5 -8.75 12.3 -8.85 12.2 -8.8 12.2 -8.75 12.3 -8.6 12.35 -8.5 M11.95 -9.95 L12.05 -9.9 11.55 -10.2 11.6 -10.2 11.8 -10.1 11.95 -9.95 M12.05 -10.05 L12.3 -10.05 12.5 -9.8 12.45 -9.75 12.35 -9.75 12.05 -10.05 M11.75 -10.55 Q11.4 -10.65 11.15 -10.85 10.8 -11.25 10.55 -11.35 L11.1 -11.2 Q11.55 -11.05 11.75 -11.05 L12.15 -11.05 12.25 -10.9 12.35 -10.8 12.35 -10.75 12.1 -10.6 Q11.75 -10.8 11.3 -10.9 L11.3 -10.85 11.35 -10.8 11.65 -10.65 11.75 -10.55" fill="#666154" fill-rule="evenodd" stroke="none"/>
  </g>
</svg>
