<?xml version="1.0" encoding="UTF-8" standalone="no"?>
<svg xmlns:ffdec="https://www.free-decompiler.com/flash" xmlns:xlink="http://www.w3.org/1999/xlink" ffdec:objectType="shape" height="10.55px" width="9.4px" xmlns="http://www.w3.org/2000/svg">
  <g transform="matrix(1.0, 0.0, 0.0, 1.0, 4.7, 10.55)">
    <path d="M-3.15 -8.05 L-3.2 -8.0 -3.35 -7.25 -3.35 -7.1 -3.55 -6.1 -3.55 -5.95 -3.5 -5.95 -3.55 -5.9 -3.5 -5.85 -2.95 -6.05 Q-1.45 -6.5 0.45 -6.35 1.5 -6.25 2.45 -6.0 L2.45 -5.95 2.7 -5.9 2.8 -6.05 3.0 -6.4 3.05 -6.65 3.1 -6.75 3.1 -6.85 2.75 -7.05 2.8 -7.05 2.8 -7.1 3.0 -7.05 3.05 -7.0 3.1 -7.0 Q3.15 -7.35 3.2 -7.55 3.25 -7.7 3.35 -7.85 L3.3 -7.85 3.3 -7.9 3.1 -8.0 1.45 -8.95 Q-0.15 -9.75 -1.75 -10.3 -2.3 -10.25 -2.6 -9.95 -2.8 -9.65 -2.95 -9.05 L-3.05 -8.75 -3.1 -8.35 -3.15 -8.05 M4.25 -7.6 L4.3 -7.55 Q4.5 -7.55 4.6 -7.45 4.7 -7.3 4.7 -7.1 4.7 -6.95 4.3 -6.1 3.9 -5.15 3.75 -5.15 3.7 -5.15 3.45 -5.35 L3.2 -4.7 Q2.8 -3.75 2.6 -2.9 2.55 -2.7 2.55 -2.25 L2.5 -1.6 Q2.45 -1.35 2.3 -1.15 2.25 -0.95 1.95 -0.8 L1.9 -0.8 Q1.75 -0.6 1.55 -0.45 1.05 -0.05 0.7 -0.05 L0.55 -0.05 -0.05 0.0 Q-2.5 0.0 -3.7 -1.35 -3.95 -1.6 -4.1 -1.9 L-4.4 -2.2 Q-4.7 -2.5 -4.7 -2.7 -4.7 -3.05 -4.3 -3.45 -3.75 -4.05 -3.55 -4.3 -3.4 -4.6 -3.2 -5.1 L-3.2 -5.15 -3.05 -5.65 -3.25 -5.6 -3.6 -5.6 -3.65 -5.7 -3.7 -5.7 -3.7 -5.75 -3.75 -5.85 -3.75 -5.9 -3.85 -6.15 Q-3.1 -11.15 -1.85 -10.5 -0.25 -10.35 1.65 -9.3 2.9 -8.65 3.75 -7.85 4.05 -7.8 4.25 -7.6 M3.75 -7.65 L3.6 -7.7 3.35 -6.95 3.5 -6.9 3.65 -6.8 Q3.65 -6.7 3.55 -6.7 3.45 -6.7 3.25 -6.75 L3.15 -6.45 3.15 -6.4 2.9 -5.85 3.4 -5.65 3.5 -5.65 3.75 -5.6 Q3.8 -5.6 4.1 -6.4 L4.25 -6.85 4.4 -7.2 4.35 -7.25 3.75 -7.65 M1.15 -1.05 L0.95 -0.65 0.75 -0.4 Q1.3 -0.7 1.6 -0.95 L1.8 -1.25 1.95 -1.9 2.1 -2.5 2.3 -3.15 2.45 -3.6 Q2.6 -4.2 2.65 -4.35 2.75 -4.7 2.95 -4.95 3.1 -5.2 3.3 -5.4 L2.65 -5.65 2.4 -5.7 2.25 -5.3 2.1 -5.0 Q1.85 -4.4 1.7 -3.85 L1.85 -3.55 Q2.0 -3.4 2.0 -3.3 L1.95 -3.2 1.95 -3.2 Q1.9 -3.2 1.65 -3.65 L1.5 -3.1 1.5 -3.0 1.45 -2.25 1.4 -2.0 1.65 -2.1 1.7 -2.1 Q1.7 -2.0 1.4 -1.85 L1.35 -1.55 1.15 -1.05 M1.3 -4.55 L1.35 -4.5 1.4 -4.35 1.45 -4.25 1.55 -4.15 1.55 -4.1 1.65 -4.55 Q1.8 -5.05 2.1 -5.45 L2.25 -5.75 2.2 -5.75 Q0.75 -6.05 -0.4 -6.05 -0.9 -6.05 -2.05 -5.85 L-2.85 -5.7 -2.75 -5.35 Q-2.65 -5.1 -2.65 -4.7 -2.65 -4.0 -3.4 -3.05 L-3.45 -3.05 Q-3.4 -3.25 -3.4 -3.5 L-3.35 -3.55 -3.25 -4.05 Q-3.45 -3.75 -3.7 -3.55 L-4.4 -3.1 -4.45 -3.0 -4.4 -2.8 -4.35 -2.65 -4.35 -2.6 Q-3.8 -1.65 -3.1 -1.25 -2.15 -0.6 -0.45 -0.45 L0.0 -0.4 0.1 -0.4 0.2 -0.45 0.45 -0.5 0.65 -0.8 Q0.8 -1.1 1.0 -1.65 0.8 -1.6 0.75 -1.6 L0.65 -1.6 0.65 -1.65 0.7 -1.65 1.05 -1.85 1.25 -2.65 1.35 -2.9 1.35 -3.05 1.5 -3.9 1.25 -4.4 1.2 -4.5 1.2 -4.6 1.25 -4.6 1.3 -4.55" fill="#111111" fill-rule="evenodd" stroke="none"/>
    <path d="M3.5 -6.9 L3.35 -6.95 3.6 -7.7 3.75 -7.65 3.5 -6.9" fill="#000a33" fill-rule="evenodd" stroke="none"/>
    <path d="M3.1 -8.0 L3.05 -7.85 Q2.95 -7.45 2.9 -7.3 2.85 -7.1 2.4 -6.75 L1.95 -6.4 1.4 -6.45 0.35 -6.6 -1.6 -6.6 Q-2.6 -6.85 -2.9 -7.3 -3.0 -7.4 -3.15 -8.05 L-3.1 -8.35 -3.05 -8.75 -2.95 -9.05 Q-2.8 -9.65 -2.6 -9.95 -2.3 -10.25 -1.75 -10.3 -0.15 -9.75 1.45 -8.95 L3.1 -8.0 M3.5 -6.9 L3.75 -7.65 4.35 -7.25 4.4 -7.2 4.25 -6.85 4.1 -6.7 3.65 -6.8 3.5 -6.9 M2.25 -5.3 L2.75 -5.05 Q2.55 -4.7 2.35 -4.3 L1.9 -3.0 Q1.8 -2.1 1.6 -1.65 1.45 -1.3 1.15 -1.05 L1.35 -1.55 1.4 -1.85 Q1.7 -2.0 1.7 -2.1 L1.65 -2.1 1.4 -2.0 1.45 -2.25 1.5 -3.0 1.5 -3.1 1.65 -3.65 Q1.9 -3.2 1.95 -3.2 L1.95 -3.2 2.0 -3.3 Q2.0 -3.4 1.85 -3.55 L1.7 -3.85 Q1.85 -4.4 2.1 -5.0 L2.25 -5.3 M-3.35 -3.55 Q-3.7 -3.0 -3.7 -2.95 L-3.7 -2.85 -3.65 -2.85 Q-3.6 -2.8 -3.5 -2.8 -3.25 -2.8 -2.9 -3.4 -2.55 -4.0 -2.45 -4.45 L-2.2 -5.25 Q-2.1 -5.6 -1.6 -5.7 L-1.35 -5.8 0.0 -5.8 Q0.9 -5.75 1.75 -5.55 1.4 -5.15 1.3 -4.55 L1.25 -4.6 1.2 -4.6 1.2 -4.5 1.25 -4.4 Q1.2 -4.05 1.1 -3.05 0.95 -2.2 0.7 -1.65 L0.65 -1.65 0.65 -1.6 0.6 -1.55 0.4 -1.25 0.1 -1.15 -0.25 -1.0 -1.5 -1.0 Q-2.9 -1.35 -3.8 -2.15 L-3.65 -2.0 -3.7 -2.1 -4.1 -2.75 Q-4.25 -2.95 -4.4 -3.1 L-3.7 -3.55 Q-3.45 -3.75 -3.25 -4.05 L-3.35 -3.55" fill="#192466" fill-rule="evenodd" stroke="none"/>
    <path d="M3.1 -8.0 L3.3 -7.9 3.3 -7.85 3.35 -7.85 Q3.25 -7.7 3.2 -7.55 3.15 -7.35 3.1 -7.0 L3.05 -7.0 3.0 -7.05 2.8 -7.1 2.8 -7.05 2.75 -7.05 3.1 -6.85 3.1 -6.75 3.05 -6.65 3.0 -6.4 2.8 -6.05 2.7 -5.9 2.45 -5.95 2.45 -6.0 Q1.5 -6.25 0.45 -6.35 -1.45 -6.5 -2.95 -6.05 L-3.5 -5.85 -3.55 -5.9 -3.5 -5.95 -3.55 -5.95 -3.55 -6.1 -3.35 -7.1 -3.35 -7.25 -3.2 -8.0 -3.15 -8.05 Q-3.0 -7.4 -2.9 -7.3 -2.6 -6.85 -1.6 -6.6 L0.35 -6.6 1.4 -6.45 1.95 -6.4 2.4 -6.75 Q2.85 -7.1 2.9 -7.3 2.95 -7.45 3.05 -7.85 L3.1 -8.0 M4.25 -6.85 L4.1 -6.4 Q3.8 -5.6 3.75 -5.6 L3.5 -5.65 3.4 -5.65 2.9 -5.85 3.15 -6.4 3.15 -6.45 3.25 -6.75 Q3.45 -6.7 3.55 -6.7 3.65 -6.7 3.65 -6.8 L4.1 -6.7 4.25 -6.85 M2.25 -5.3 L2.4 -5.7 2.65 -5.65 3.3 -5.4 Q3.1 -5.2 2.95 -4.95 2.75 -4.7 2.65 -4.35 2.6 -4.2 2.45 -3.6 L2.3 -3.15 2.1 -2.5 1.95 -1.9 1.8 -1.25 1.6 -0.95 Q1.3 -0.7 0.75 -0.4 L0.95 -0.65 1.15 -1.05 Q1.45 -1.3 1.6 -1.65 1.8 -2.1 1.9 -3.0 L2.35 -4.3 Q2.55 -4.7 2.75 -5.05 L2.25 -5.3 M-3.35 -3.55 L-3.4 -3.5 Q-3.4 -3.25 -3.45 -3.05 L-3.4 -3.05 Q-2.65 -4.0 -2.65 -4.7 -2.65 -5.1 -2.75 -5.35 L-2.85 -5.7 -2.05 -5.85 Q-0.9 -6.05 -0.4 -6.05 0.75 -6.05 2.2 -5.75 L2.25 -5.75 2.1 -5.45 Q1.8 -5.05 1.65 -4.55 L1.55 -4.1 1.55 -4.15 1.45 -4.25 1.4 -4.35 1.35 -4.5 1.3 -4.55 Q1.4 -5.15 1.75 -5.55 0.9 -5.75 0.0 -5.8 L-1.35 -5.8 -1.6 -5.7 Q-2.1 -5.6 -2.2 -5.25 L-2.45 -4.45 Q-2.55 -4.0 -2.9 -3.4 -3.25 -2.8 -3.5 -2.8 -3.6 -2.8 -3.65 -2.85 L-3.7 -2.85 -3.7 -2.95 Q-3.7 -3.0 -3.35 -3.55 M1.25 -4.4 L1.5 -3.9 1.35 -3.05 1.35 -2.9 1.25 -2.65 1.05 -1.85 0.7 -1.65 Q0.95 -2.2 1.1 -3.05 1.2 -4.05 1.25 -4.4 M0.65 -1.6 L0.75 -1.6 Q0.8 -1.6 1.0 -1.65 0.8 -1.1 0.65 -0.8 L0.45 -0.5 0.2 -0.45 0.1 -0.4 0.0 -0.4 -0.45 -0.45 Q-2.15 -0.6 -3.1 -1.25 -3.8 -1.65 -4.35 -2.6 L-4.35 -2.65 -4.4 -2.8 -4.45 -3.0 -4.4 -3.1 Q-4.25 -2.95 -4.1 -2.75 L-3.7 -2.1 -3.65 -2.0 -3.8 -2.15 Q-2.9 -1.35 -1.5 -1.0 L-0.25 -1.0 0.1 -1.15 0.4 -1.25 0.6 -1.55 0.65 -1.6" fill="#060e3f" fill-rule="evenodd" stroke="none"/>
  </g>
</svg>
