<?xml version="1.0" encoding="UTF-8" standalone="no"?>
<svg xmlns:ffdec="https://www.free-decompiler.com/flash" xmlns:xlink="http://www.w3.org/1999/xlink" ffdec:objectType="shape" height="13.3px" width="7.6px" xmlns="http://www.w3.org/2000/svg">
  <g transform="matrix(1.0, 0.0, 0.0, 1.0, 3.8, 13.3)">
    <path d="M-0.15 -12.75 Q0.2 -13.0 0.9 -13.0 1.7 -13.0 2.35 -12.55 2.9 -12.15 3.05 -11.8 L3.1 -11.8 3.1 -11.85 3.35 -11.25 Q3.45 -10.9 3.45 -10.45 3.35 -10.25 3.1 -10.25 3.05 -10.25 2.55 -10.9 L1.8 -11.75 Q1.35 -12.2 0.45 -12.6 0.05 -12.75 -0.15 -12.75 M1.45 -6.4 L1.3 -6.25 Q1.05 -6.0 0.85 -6.0 L0.75 -6.0 0.5 -6.45 Q-0.05 -7.6 -0.55 -8.15 0.2 -7.65 0.8 -7.1 L1.45 -6.4 M0.9 -5.65 L1.0 -5.75 0.95 -5.65 0.9 -5.65 M1.25 -4.9 L1.55 -5.2 1.65 -5.35 Q1.5 -5.1 1.25 -4.85 L1.25 -4.9 M-1.35 -7.95 Q-1.15 -7.25 -0.45 -5.7 L-0.4 -5.6 Q-0.5 -5.5 -0.75 -5.4 L-0.9 -5.3 -1.05 -5.45 Q-1.95 -6.05 -2.35 -6.2 -1.7 -7.45 -1.35 -7.95 M-0.5 -5.05 L-0.5 -5.05" fill="#b00000" fill-rule="evenodd" stroke="none"/>
    <path d="M3.6 -11.05 Q3.8 -10.5 3.8 -9.6 3.8 -9.0 3.4 -8.2 2.95 -7.3 2.35 -7.2 L1.85 -6.25 1.9 -6.15 2.0 -5.9 2.05 -5.65 2.05 -5.6 2.0 -5.55 Q1.9 -5.35 1.4 -4.75 0.75 -3.95 0.45 -3.95 L0.35 -3.95 0.35 -3.9 0.25 -3.9 Q0.15 -3.9 -0.05 -4.05 L-0.25 -3.7 Q-0.6 -3.2 -0.75 -2.45 -0.8 -1.9 -0.9 -1.6 -1.0 -1.2 -1.25 -0.95 -1.7 -0.1 -2.1 0.0 L-2.6 0.0 Q-3.2 0.0 -3.55 -0.8 -3.8 -1.3 -3.8 -1.65 L-3.75 -2.15 -3.75 -2.2 Q-3.75 -2.35 -3.6 -2.65 -3.5 -3.05 -3.25 -3.45 L-3.25 -3.5 Q-2.85 -4.3 -2.2 -5.4 -2.5 -5.6 -2.55 -5.9 -2.6 -6.05 -2.6 -6.15 -2.6 -6.35 -2.0 -7.4 -1.35 -8.55 -1.1 -8.55 -0.8 -8.55 -0.75 -8.45 L-0.7 -8.4 -0.45 -8.3 -0.3 -9.1 -0.1 -10.15 Q-0.05 -10.45 0.1 -10.75 -0.15 -10.95 -0.35 -11.45 -0.65 -11.95 -0.65 -12.3 -0.65 -12.7 -0.35 -12.95 0.05 -13.3 0.9 -13.3 L1.05 -13.3 Q1.8 -13.25 2.5 -12.7 L2.7 -12.55 2.75 -12.5 3.0 -12.15 Q3.45 -11.6 3.6 -11.05 M3.45 -10.45 Q3.45 -10.9 3.35 -11.25 L3.1 -11.85 3.1 -11.8 3.05 -11.8 Q2.9 -12.15 2.35 -12.55 1.7 -13.0 0.9 -13.0 0.2 -13.0 -0.15 -12.75 -0.35 -12.6 -0.4 -12.45 L-0.4 -12.3 Q-0.4 -12.05 0.0 -11.45 L0.25 -11.0 0.35 -11.1 Q0.65 -11.5 1.0 -11.8 0.5 -12.2 -0.05 -12.3 -0.05 -12.25 -0.05 -12.15 L-0.05 -11.95 -0.15 -12.1 Q-0.25 -12.25 -0.25 -12.3 L-0.25 -12.5 -0.2 -12.55 -0.05 -12.6 0.25 -12.5 Q0.85 -12.3 1.3 -11.95 1.95 -11.5 2.35 -10.7 2.55 -10.3 2.7 -9.9 2.9 -9.25 2.95 -8.6 L2.95 -8.35 2.85 -7.95 Q3.05 -8.25 3.2 -8.6 L3.25 -8.7 Q3.5 -9.3 3.5 -10.0 L3.45 -10.45 M2.2 -7.5 L2.45 -7.9 2.6 -8.35 Q2.6 -9.75 1.75 -10.95 1.45 -11.4 1.1 -11.7 L1.1 -11.65 0.85 -11.35 0.8 -11.35 0.5 -10.8 0.35 -10.5 0.35 -10.45 Q0.25 -10.25 0.2 -10.05 L-0.05 -9.1 Q-0.2 -8.6 -0.4 -8.25 0.15 -8.0 0.9 -7.3 L1.3 -6.9 1.6 -6.6 1.75 -6.4 Q1.85 -6.85 2.1 -7.35 L2.15 -7.35 2.2 -7.5 M1.65 -5.35 L1.85 -5.7 1.85 -5.85 Q1.75 -6.05 1.55 -6.3 L1.45 -6.4 0.8 -7.1 Q0.2 -7.65 -0.55 -8.15 -0.05 -7.6 0.5 -6.45 L0.75 -6.0 0.75 -5.95 0.9 -5.75 0.9 -5.65 0.95 -5.65 Q1.2 -5.1 1.25 -4.9 L1.25 -4.85 Q1.5 -5.1 1.65 -5.35 M-0.35 -6.95 L0.55 -4.25 Q0.75 -4.4 1.15 -4.75 1.05 -4.75 1.0 -4.9 L1.15 -4.9 1.05 -5.1 0.05 -6.8 -0.5 -7.8 -0.7 -8.1 -0.7 -8.15 -0.75 -8.2 -0.8 -8.3 -1.0 -8.35 -1.1 -8.25 -0.85 -7.85 Q-0.6 -7.45 -0.35 -6.95 M-2.35 -6.2 L-2.4 -6.15 Q-2.4 -6.05 -2.3 -5.95 L-2.2 -5.8 -2.05 -5.7 -2.0 -5.7 -1.05 -5.15 Q0.0 -4.5 0.25 -4.2 L0.35 -4.2 0.5 -4.25 0.4 -4.4 Q0.05 -5.1 -0.55 -6.45 -1.1 -7.75 -1.2 -8.15 L-1.35 -7.95 Q-1.7 -7.45 -2.35 -6.2 M-2.1 -5.25 Q-2.25 -4.75 -2.8 -3.75 -3.1 -3.3 -3.25 -2.9 L-3.3 -2.7 -3.45 -2.0 Q-3.45 -1.55 -3.3 -1.05 -3.2 -0.75 -3.05 -0.55 L-2.9 -0.45 -2.75 -0.3 -2.65 -0.3 -2.6 -0.25 Q-2.0 -0.25 -1.5 -0.95 L-1.25 -1.45 Q-1.0 -2.05 -1.0 -2.6 -0.9 -2.85 -0.7 -3.5 L-0.5 -3.85 -0.25 -4.15 -0.6 -4.4 -1.35 -4.95 -2.05 -5.35 -2.1 -5.3 -2.1 -5.25 M-1.55 -0.65 L-1.55 -0.65" fill="#111111" fill-rule="evenodd" stroke="none"/>
    <path d="M0.5 -10.8 L0.8 -11.35 0.85 -11.35 1.1 -11.65 1.1 -11.7 Q1.45 -11.4 1.75 -10.95 2.6 -9.75 2.6 -8.35 L2.45 -7.9 2.2 -7.5 2.15 -7.4 2.15 -7.35 2.1 -7.35 Q1.85 -6.85 1.75 -6.4 L1.6 -6.6 1.3 -6.9 Q1.65 -7.5 1.8 -7.85 L2.05 -8.35 Q2.05 -9.8 1.05 -10.5 0.75 -10.7 0.5 -10.8 M-2.1 -5.25 L-2.1 -5.3 -2.05 -5.35 -1.35 -4.95 -0.6 -4.4 -0.25 -4.15 -0.5 -3.85 -0.7 -3.5 Q-0.9 -2.85 -1.0 -2.6 -1.0 -2.05 -1.25 -1.45 L-1.5 -0.95 Q-2.0 -0.25 -2.6 -0.25 L-2.65 -0.3 -2.75 -0.3 -2.45 -0.5 -1.95 -0.9 Q-1.8 -1.05 -1.65 -1.3 -1.55 -1.55 -1.5 -1.7 L-1.0 -3.3 -1.4 -2.85 -1.7 -2.4 -1.75 -2.4 -1.85 -2.25 -1.9 -2.3 -1.9 -2.45 Q-1.9 -2.7 -1.5 -3.4 -1.1 -4.1 -1.1 -4.35 -1.1 -4.6 -1.2 -4.75 L-1.8 -5.1 -2.1 -5.25 M-0.85 -4.35 L-0.85 -4.35" fill="#997d54" fill-rule="evenodd" stroke="none"/>
    <path d="M-0.15 -12.75 Q0.05 -12.75 0.45 -12.6 1.35 -12.2 1.8 -11.75 L2.55 -10.9 Q3.05 -10.25 3.1 -10.25 3.35 -10.25 3.45 -10.45 L3.5 -10.0 Q3.5 -9.3 3.25 -8.7 L3.2 -8.6 Q3.05 -8.25 2.85 -7.95 L2.95 -8.35 2.95 -8.6 Q2.9 -9.25 2.7 -9.9 2.55 -10.3 2.35 -10.7 1.95 -11.5 1.3 -11.95 0.85 -12.3 0.25 -12.5 L-0.05 -12.6 -0.2 -12.55 -0.25 -12.5 -0.25 -12.3 Q-0.25 -12.25 -0.15 -12.1 L-0.05 -11.95 -0.05 -12.15 Q-0.05 -12.25 -0.05 -12.3 0.5 -12.2 1.0 -11.8 0.65 -11.5 0.35 -11.1 L0.25 -11.0 0.0 -11.45 Q-0.4 -12.05 -0.4 -12.3 L-0.4 -12.45 Q-0.35 -12.6 -0.15 -12.75 M1.45 -6.4 L1.55 -6.3 Q1.75 -6.05 1.85 -5.85 L1.85 -5.7 1.65 -5.35 1.55 -5.2 1.25 -4.9 Q1.2 -5.1 0.95 -5.65 L1.0 -5.75 0.9 -5.65 0.9 -5.75 0.75 -5.95 0.75 -6.0 0.85 -6.0 Q1.05 -6.0 1.3 -6.25 L1.45 -6.4 M-1.35 -7.95 L-1.2 -8.15 Q-1.1 -7.75 -0.55 -6.45 0.05 -5.1 0.4 -4.4 L0.5 -4.25 0.35 -4.2 0.25 -4.2 Q0.0 -4.5 -1.05 -5.15 L-2.0 -5.7 -2.05 -5.7 -2.2 -5.8 -2.3 -5.95 Q-2.4 -6.05 -2.4 -6.15 L-2.35 -6.2 Q-1.95 -6.05 -1.05 -5.45 L-0.9 -5.3 -0.75 -5.4 Q-0.5 -5.5 -0.4 -5.6 L-0.45 -5.7 Q-1.15 -7.25 -1.35 -7.95 M-0.5 -5.05 L-0.5 -5.05" fill="#600000" fill-rule="evenodd" stroke="none"/>
    <path d="M0.5 -10.8 Q0.75 -10.7 1.05 -10.5 2.05 -9.8 2.05 -8.35 L1.8 -7.85 Q1.65 -7.5 1.3 -6.9 L0.9 -7.3 Q0.15 -8.0 -0.4 -8.25 -0.2 -8.6 -0.05 -9.1 L0.2 -10.05 Q0.25 -10.25 0.35 -10.45 L0.35 -10.5 0.5 -10.8 M2.15 -7.35 L2.15 -7.4 2.2 -7.5 2.15 -7.35 M-2.75 -0.3 L-2.9 -0.45 -3.05 -0.55 Q-3.2 -0.75 -3.3 -1.05 -3.45 -1.55 -3.45 -2.0 L-3.3 -2.7 -3.25 -2.9 Q-3.1 -3.3 -2.8 -3.75 -2.25 -4.75 -2.1 -5.25 L-1.8 -5.1 -1.2 -4.75 Q-1.1 -4.6 -1.1 -4.35 -1.1 -4.1 -1.5 -3.4 -1.9 -2.7 -1.9 -2.45 L-1.9 -2.3 -1.85 -2.25 -1.75 -2.4 -1.7 -2.4 -1.4 -2.85 -1.0 -3.3 -1.5 -1.7 Q-1.55 -1.55 -1.65 -1.3 -1.8 -1.05 -1.95 -0.9 L-2.45 -0.5 -2.75 -0.3 M-0.85 -4.35 L-0.85 -4.35" fill="#b69562" fill-rule="evenodd" stroke="none"/>
    <path d="M0.05 -6.8 L-0.15 -6.85 -0.35 -6.95 Q-0.6 -7.45 -0.85 -7.85 -0.7 -7.75 -0.5 -7.8 L0.05 -6.8 M-0.7 -8.15 L-0.7 -8.1 -0.7 -8.15" fill="#e2bf00" fill-rule="evenodd" stroke="none"/>
    <path d="M0.05 -6.8 L1.05 -5.1 1.15 -4.9 1.0 -4.9 Q1.05 -4.75 1.15 -4.75 0.75 -4.4 0.55 -4.25 L-0.35 -6.95 -0.15 -6.85 0.05 -6.8" fill="#b37500" fill-rule="evenodd" stroke="none"/>
    <path d="M-0.85 -7.85 L-1.1 -8.25 -1.0 -8.35 -0.8 -8.3 -0.75 -8.2 -0.7 -8.15 -0.7 -8.1 -0.5 -7.8 Q-0.7 -7.75 -0.85 -7.85" fill="#fff7cb" fill-rule="evenodd" stroke="none"/>
  </g>
</svg>
