<?xml version="1.0" encoding="UTF-8" standalone="no"?>
<svg xmlns:ffdec="https://www.free-decompiler.com/flash" xmlns:xlink="http://www.w3.org/1999/xlink" ffdec:objectType="shape" height="11.9px" width="9.5px" xmlns="http://www.w3.org/2000/svg">
  <g transform="matrix(1.0, 0.0, 0.0, 1.0, 4.75, 11.9)">
    <path d="M-2.45 -4.8 L-2.4 -4.65 -2.0 -4.3 -2.0 -4.45 -1.8 -4.25 -1.5 -4.25 Q-0.75 -4.25 0.05 -5.15 L0.5 -5.7 1.3 -6.4 Q2.15 -7.05 2.85 -7.55 2.65 -7.2 2.65 -7.05 L2.5 -6.6 2.3 -6.15 2.35 -6.15 2.85 -7.05 Q3.15 -7.6 3.3 -7.9 3.7 -7.5 3.7 -7.4 3.7 -7.0 2.85 -5.7 1.9 -4.15 1.7 -3.6 L1.75 -3.6 Q2.15 -3.95 2.6 -4.45 L2.35 -3.75 Q2.2 -3.4 1.9 -2.9 1.65 -2.7 1.25 -2.7 1.15 -2.7 1.1 -2.8 L1.05 -3.0 1.3 -3.4 Q1.7 -4.05 1.7 -4.5 L1.7 -4.55 0.95 -3.7 Q0.7 -3.35 0.6 -3.05 L0.35 -2.7 Q0.1 -2.25 -0.1 -2.25 -0.15 -2.25 -0.2 -2.2 L-0.9 -2.15 Q-1.25 -2.3 -1.4 -2.3 L-1.35 -2.25 -1.4 -2.25 Q-2.2 -2.45 -2.75 -2.9 -3.0 -3.2 -3.1 -3.4 -3.15 -3.6 -3.15 -3.95 L-3.0 -4.35 Q-2.8 -4.9 -2.7 -5.35 L-2.6 -5.1 -2.4 -4.35 -2.35 -4.35 -2.35 -4.45 -2.4 -4.55 -2.4 -4.65 -2.45 -4.85 -2.45 -4.8 M-3.45 -4.3 L-3.45 -4.2 -3.5 -4.15 -3.45 -4.3 M4.15 -7.55 Q4.15 -7.75 3.95 -7.95 L4.2 -7.9 4.3 -7.95 4.15 -7.55 M1.1 -7.2 L0.4 -6.55 -0.7 -5.55 Q-1.2 -5.15 -1.4 -5.15 -1.85 -5.15 -2.15 -6.1 L-2.3 -6.5 -2.35 -6.5 Q-1.75 -6.8 -0.95 -7.3 0.25 -7.9 2.2 -8.1 L2.15 -8.1 1.2 -7.25 1.1 -7.2 M1.1 -2.35 L1.15 -2.35 1.0 -2.3 1.1 -2.35" fill="#b69562" fill-rule="evenodd" stroke="none"/>
    <path d="M1.45 -11.8 L1.4 -11.9 Q2.85 -11.6 3.85 -10.45 4.65 -9.45 4.7 -8.6 L4.75 -8.35 Q4.75 -7.4 3.65 -5.4 L3.55 -5.2 Q3.25 -4.3 3.0 -3.45 2.95 -2.4 2.45 -1.7 2.1 -1.25 1.55 -0.85 0.7 -0.1 -0.3 0.0 L-1.05 0.0 Q-2.5 -0.1 -3.4 -0.65 L-3.35 -0.6 Q-4.2 -1.0 -4.5 -1.5 -4.75 -1.85 -4.75 -2.45 -4.75 -3.35 -4.1 -4.35 -3.7 -5.05 -3.4 -5.6 L-3.35 -5.75 Q-3.2 -6.25 -3.1 -6.8 L-3.15 -7.0 Q-3.15 -7.75 -3.05 -8.4 L-3.05 -8.6 Q-3.05 -9.4 -2.4 -10.2 -2.2 -10.55 -1.9 -10.85 -0.8 -11.85 0.8 -11.85 L1.45 -11.8 M4.3 -7.95 L4.35 -8.1 4.45 -8.65 Q4.15 -9.6 3.15 -10.6 1.95 -11.75 1.25 -11.65 L1.2 -11.65 1.3 -11.7 Q-0.8 -11.6 -1.85 -10.4 -2.8 -9.3 -2.8 -7.4 L-2.85 -7.1 -2.85 -7.05 -2.65 -6.1 Q-2.3 -4.9 -2.3 -4.75 L-2.3 -4.6 -2.35 -4.7 -2.45 -4.8 -2.45 -4.85 -2.4 -4.65 -2.4 -4.55 -2.35 -4.45 -2.35 -4.35 -2.4 -4.35 -2.6 -5.1 -2.7 -5.35 -2.75 -5.45 -2.8 -5.6 -2.85 -5.7 -2.85 -5.75 -2.9 -5.9 -2.9 -5.7 Q-3.05 -5.15 -3.35 -4.5 L-3.45 -4.3 -3.5 -4.15 -3.65 -3.7 -3.75 -3.55 -3.75 -3.45 Q-4.1 -2.6 -4.1 -2.25 -4.1 -1.95 -3.8 -1.65 L-3.45 -1.25 Q-2.85 -0.75 -2.05 -0.5 -1.55 -0.35 -1.0 -0.35 L0.4 -0.5 Q0.95 -0.65 1.5 -1.05 L2.1 -1.6 2.2 -1.8 Q2.25 -2.05 2.35 -2.4 L2.45 -2.75 2.55 -3.4 2.65 -3.7 2.7 -3.9 2.8 -4.45 Q2.8 -4.6 2.9 -4.85 L2.95 -4.9 3.0 -5.1 3.45 -6.0 Q3.9 -6.85 4.15 -7.55 L4.3 -7.95 M1.2 -7.25 Q1.6 -7.6 2.05 -7.85 L2.85 -8.2 Q2.45 -7.85 1.55 -7.1 L0.25 -6.05 0.6 -6.65 0.65 -6.7 1.1 -7.2 1.2 -7.25" fill="#111111" fill-rule="evenodd" stroke="none"/>
    <path d="M-2.45 -4.8 L-2.35 -4.7 -2.3 -4.6 -2.3 -4.75 Q-2.3 -4.9 -2.65 -6.1 L-2.85 -7.05 -2.85 -7.1 -2.8 -7.4 Q-2.8 -9.3 -1.85 -10.4 -0.8 -11.6 1.3 -11.7 L1.2 -11.65 1.25 -11.65 Q1.95 -11.75 3.15 -10.6 4.15 -9.6 4.45 -8.65 L4.35 -8.1 4.3 -7.95 4.2 -7.9 3.95 -7.95 Q4.15 -7.75 4.15 -7.55 3.9 -6.85 3.45 -6.0 L3.0 -5.1 2.95 -4.9 2.9 -4.85 Q2.8 -4.6 2.8 -4.45 L2.7 -3.9 2.65 -3.7 2.55 -3.4 2.45 -2.75 2.35 -2.4 Q2.25 -2.05 2.2 -1.8 L2.1 -1.6 1.5 -1.05 Q0.95 -0.65 0.4 -0.5 L-1.0 -0.35 Q-1.55 -0.35 -2.05 -0.5 -2.85 -0.75 -3.45 -1.25 L-3.8 -1.65 Q-4.1 -1.95 -4.1 -2.25 -4.1 -2.6 -3.75 -3.45 L-3.75 -3.55 -3.65 -3.7 -3.5 -4.15 -3.45 -4.2 -3.45 -4.3 -3.35 -4.5 Q-3.05 -5.15 -2.9 -5.7 L-2.9 -5.9 -2.85 -5.75 -2.85 -5.7 -2.8 -5.6 -2.75 -5.45 -2.7 -5.35 Q-2.8 -4.9 -3.0 -4.35 L-3.15 -3.95 Q-3.15 -3.6 -3.1 -3.4 -3.0 -3.2 -2.75 -2.9 -2.2 -2.45 -1.4 -2.25 L-1.35 -2.25 -1.4 -2.3 Q-1.25 -2.3 -0.9 -2.15 L-0.2 -2.2 Q-0.15 -2.25 -0.1 -2.25 0.1 -2.25 0.35 -2.7 L0.6 -3.05 Q0.7 -3.35 0.95 -3.7 L1.7 -4.55 1.7 -4.5 Q1.7 -4.05 1.3 -3.4 L1.05 -3.0 1.1 -2.8 Q1.15 -2.7 1.25 -2.7 1.65 -2.7 1.9 -2.9 2.2 -3.4 2.35 -3.75 L2.6 -4.45 Q2.15 -3.95 1.75 -3.6 L1.7 -3.6 Q1.9 -4.15 2.85 -5.7 3.7 -7.0 3.7 -7.4 3.7 -7.5 3.3 -7.9 3.15 -7.6 2.85 -7.05 L2.35 -6.15 2.3 -6.15 2.5 -6.6 2.65 -7.05 Q2.65 -7.2 2.85 -7.55 2.15 -7.05 1.3 -6.4 L0.5 -5.7 0.05 -5.15 Q-0.75 -4.25 -1.5 -4.25 L-1.8 -4.25 -2.0 -4.45 -2.0 -4.3 -2.4 -4.65 -2.45 -4.8 M1.2 -7.25 L2.15 -8.1 2.2 -8.1 Q0.25 -7.9 -0.95 -7.3 -1.75 -6.8 -2.35 -6.5 L-2.3 -6.5 -2.15 -6.1 Q-1.85 -5.15 -1.4 -5.15 -1.2 -5.15 -0.7 -5.55 L0.4 -6.55 1.1 -7.2 0.65 -6.7 0.6 -6.65 0.25 -6.05 1.55 -7.1 Q2.45 -7.85 2.85 -8.2 L2.05 -7.85 Q1.6 -7.6 1.2 -7.25 M1.1 -2.35 L1.0 -2.3 1.15 -2.35 1.1 -2.35" fill="#997d54" fill-rule="evenodd" stroke="none"/>
  </g>
</svg>
