<?xml version="1.0" encoding="UTF-8" standalone="no"?>
<svg xmlns:ffdec="https://www.free-decompiler.com/flash" xmlns:xlink="http://www.w3.org/1999/xlink" ffdec:objectType="shape" height="30.9px" width="29.75px" xmlns="http://www.w3.org/2000/svg">
  <g transform="matrix(1.0, 0.0, 0.0, 1.0, 1.55, 3.65)">
    <path d="M7.7 -0.1 Q7.05 0.45 6.85 0.95 L6.6 1.9 Q6.5 2.15 6.35 2.3 L6.45 2.3 Q7.1 2.3 7.85 -0.25 L7.7 -0.1 M17.0 -3.25 L16.95 -3.25 16.0 -3.35 Q14.1 -3.35 11.7 -1.75 L10.15 -0.6 Q9.7 -0.3 9.4 -0.1 L9.35 -0.1 Q9.2 0.0 9.1 0.05 9.3 -0.25 9.65 -0.6 L10.6 -2.15 10.6 -2.2 10.45 -2.25 Q9.7 -2.25 8.9 -1.2 8.5 -0.6 7.9 0.4 7.8 0.6 7.65 1.05 7.5 1.55 7.35 1.75 7.2 2.1 6.9 2.35 L8.15 2.3 Q8.85 2.45 9.5 2.65 L10.35 2.95 Q11.35 3.3 12.2 3.85 L12.6 4.1 12.85 4.3 13.6 4.85 13.65 4.9 14.35 5.55 14.7 5.95 15.0 6.25 15.3 6.6 15.75 7.15 15.75 7.2 16.3 7.9 16.35 7.95 17.15 9.1 Q17.5 9.7 17.75 10.2 L17.85 10.5 18.0 10.9 Q18.05 11.2 18.05 11.45 L18.05 11.85 18.05 12.05 Q18.65 12.15 19.15 12.75 19.65 13.25 19.8 13.9 19.85 14.25 19.85 14.95 L19.8 15.25 20.2 15.35 20.95 15.4 21.6 15.35 22.3 15.3 22.5 15.3 21.9 15.05 21.35 14.75 20.9 14.65 Q19.95 14.35 19.95 14.3 19.95 14.15 19.95 14.2 L20.0 14.25 Q21.2 14.5 22.05 14.5 22.6 14.5 23.3 14.3 L23.6 14.2 23.25 14.1 Q22.65 13.95 21.85 13.65 20.85 13.25 20.45 13.0 L20.45 12.85 Q20.85 12.85 21.25 13.15 21.7 13.4 21.95 13.4 L23.0 13.55 23.9 13.75 23.95 13.75 Q24.7 13.85 24.9 13.95 24.95 14.1 24.95 13.9 24.95 13.15 23.6 11.9 L22.65 11.1 22.65 11.05 22.45 10.9 Q21.75 10.25 21.4 9.85 L21.35 9.65 21.4 9.6 21.45 9.6 21.65 9.55 Q24.25 10.35 25.75 10.8 25.4 10.15 24.8 9.6 L24.5 9.35 Q23.9 8.85 23.05 8.4 22.4 8.35 21.4 7.75 L21.25 7.65 21.2 7.65 20.5 7.15 20.45 7.1 20.3 7.0 20.8 7.2 20.9 7.25 21.1 7.3 21.25 7.35 21.35 7.4 21.95 7.6 22.0 7.65 Q22.6 7.85 24.15 7.95 L24.3 8.0 25.75 8.05 27.4 8.05 27.35 8.0 27.3 7.85 Q27.2 7.5 27.0 7.15 L27.0 7.1 26.7 6.65 Q26.45 6.3 26.15 5.95 L25.8 5.6 25.8 5.55 25.55 5.35 Q24.2 4.15 22.15 3.4 L22.2 3.35 22.2 3.3 22.35 3.3 Q23.85 3.3 26.05 5.35 L26.25 5.55 25.95 4.65 Q25.8 4.2 25.55 3.85 L25.55 3.8 Q25.3 3.35 24.9 2.95 23.6 1.55 21.45 1.05 20.45 0.8 18.9 0.6 L18.35 0.55 Q19.65 0.2 21.25 0.6 22.05 0.55 23.35 0.55 L23.35 0.5 23.3 0.5 23.3 0.45 Q23.2 0.25 23.05 0.0 22.85 -0.2 22.6 -0.45 L22.55 -0.5 22.2 -0.75 Q20.85 -1.6 18.65 -1.6 L16.95 -1.45 Q15.75 -1.3 15.0 -1.15 L13.8 -1.15 13.7 -1.2 Q13.65 -1.2 13.65 -1.35 L15.0 -1.95 Q16.6 -2.65 17.3 -3.0 L17.3 -3.05 17.25 -3.05 17.05 -3.2 17.0 -3.25 M2.7 5.2 Q2.75 5.0 3.35 4.45 L4.2 3.65 Q4.55 2.95 4.85 2.65 5.15 2.4 5.55 2.35 L5.6 2.35 5.95 1.7 Q6.35 1.0 6.5 0.75 7.15 -0.3 8.1 -0.7 8.6 -1.35 9.15 -1.75 10.05 -2.4 11.45 -2.8 L11.5 -2.75 11.55 -2.6 Q11.55 -2.4 10.85 -1.65 11.75 -2.3 12.65 -2.8 15.9 -4.4 18.55 -3.0 18.45 -2.9 17.3 -2.4 L15.9 -1.8 18.7 -2.1 Q21.8 -2.1 23.2 -0.75 23.65 -0.3 23.95 0.35 24.1 0.7 24.25 1.15 24.15 1.1 23.9 1.05 23.6 1.05 23.5 1.05 L23.4 1.05 22.5 1.0 Q23.4 1.4 24.25 1.95 25.6 2.9 26.3 4.0 27.05 5.15 26.8 6.0 L26.75 6.05 Q27.2 6.5 27.55 7.0 28.2 7.85 28.2 8.25 L28.1 8.45 Q28.05 8.55 27.95 8.55 26.55 8.55 24.85 8.5 L24.3 8.45 Q24.7 8.7 25.05 9.1 25.65 9.65 26.05 10.3 26.4 10.9 26.4 11.2 L26.35 11.7 26.35 11.75 26.2 11.75 25.8 11.35 25.25 10.85 Q24.5 10.4 23.5 10.35 23.0 10.3 22.45 10.35 23.8 11.4 24.5 12.25 25.45 13.35 25.45 14.25 L25.4 14.45 Q25.3 14.55 25.2 14.55 L24.1 14.3 Q23.95 14.45 23.65 14.6 23.15 14.8 22.65 14.9 L23.9 15.1 23.9 15.15 23.95 15.3 Q23.95 15.4 23.0 15.65 21.9 15.95 21.0 15.95 20.05 15.95 19.6 15.8 L19.45 16.05 Q19.85 16.1 20.35 16.35 21.85 17.1 21.85 18.1 21.85 18.35 21.85 18.3 L21.6 18.3 21.25 18.25 Q20.95 18.25 20.75 18.4 L20.55 18.65 Q20.85 18.95 21.25 19.05 L21.3 19.15 Q21.5 19.2 21.5 19.35 21.5 19.95 21.15 20.35 20.6 20.95 19.45 20.95 L19.45 21.0 19.35 21.05 19.35 20.95 19.3 20.95 19.0 20.35 18.9 20.45 Q18.6 20.65 18.1 20.65 17.5 20.65 17.0 20.45 16.6 20.3 16.6 20.2 16.6 20.0 16.7 19.65 16.85 19.25 16.85 19.1 L16.75 18.65 16.65 18.3 16.6 18.45 Q16.4 19.25 16.15 19.4 15.75 18.95 15.3 18.45 L15.4 18.95 Q15.55 19.55 15.5 20.4 L15.5 20.55 15.45 20.6 15.25 20.6 Q15.15 20.6 14.6 20.15 L14.25 19.85 14.6 21.0 Q15.1 22.9 15.1 24.2 15.1 24.35 15.0 24.5 14.95 24.65 14.8 24.65 13.5 24.65 12.5 23.1 L12.65 23.55 Q13.2 24.95 13.2 25.15 13.2 25.5 12.95 25.5 12.05 25.5 11.3 24.1 10.9 23.35 10.45 22.05 10.55 22.9 10.35 23.85 10.15 24.75 9.8 25.5 9.7 26.0 9.7 26.85 L9.65 27.1 Q9.6 27.25 9.45 27.25 8.5 27.25 7.4 25.4 6.8 24.5 6.45 23.55 L6.4 23.2 Q6.25 23.85 5.9 24.5 5.3 25.55 5.15 26.65 L5.1 26.65 4.95 26.7 Q4.75 26.7 4.5 26.1 4.3 25.55 4.3 25.45 4.3 24.95 4.4 24.35 4.15 24.65 3.9 24.8 3.65 24.95 2.9 25.9 2.2 26.85 2.1 26.85 1.8 26.85 1.45 25.75 1.25 24.85 1.25 24.6 1.25 23.7 1.55 22.95 L1.75 22.6 Q1.45 23.2 0.9 23.9 -0.1 25.1 -0.4 25.1 -0.6 25.1 -0.65 24.3 L-0.65 23.55 Q-0.65 22.35 -0.6 22.1 -0.45 21.35 0.35 20.5 L-0.25 21.05 Q-0.75 21.5 -1.05 21.5 -1.25 21.5 -1.3 21.35 L-1.3 21.15 Q-1.3 20.4 -0.75 19.7 L-0.3 19.1 Q-0.45 19.2 -0.55 19.25 L-0.95 18.25 Q-1.2 17.65 -1.2 17.25 -1.2 16.55 -0.7 15.9 -0.25 15.4 0.0 14.8 L-0.15 14.95 Q-0.85 15.65 -1.4 15.75 L-1.5 15.65 -1.55 15.4 Q-1.55 14.65 -0.95 13.75 -0.5 13.05 0.1 12.95 -0.15 12.7 -0.35 12.35 -0.75 11.7 -0.85 11.05 -0.85 9.85 -0.6 9.35 -0.35 8.9 0.1 8.75 -0.35 8.55 -0.35 8.5 0.0 8.15 0.3 7.9 L0.05 7.95 Q-0.15 7.95 -0.2 7.8 L-0.2 7.7 Q-0.2 7.5 0.0 7.15 0.25 6.75 0.6 6.5 1.05 6.2 1.5 6.2 1.2 5.8 1.2 5.55 1.2 5.25 1.55 5.15 1.85 5.1 2.35 5.25 L2.55 5.35 2.7 5.4 Q2.9 5.5 3.05 5.6 L3.1 5.6 3.15 5.65 3.3 5.75 3.35 5.75 Q3.65 6.0 3.85 6.35 L3.85 5.9 3.9 5.85 3.85 5.7 3.9 5.75 3.95 5.7 Q3.95 5.0 4.45 5.55 4.6 5.8 4.85 6.15 5.15 6.45 5.25 6.8 L5.3 6.85 Q5.7 6.7 6.85 7.1 7.45 7.3 8.1 7.55 L8.5 7.75 8.55 7.75 Q9.45 7.4 10.2 7.55 10.7 7.6 11.0 7.9 L11.2 7.9 Q11.7 7.9 12.8 8.25 13.9 8.6 13.9 8.7 13.9 8.85 13.7 9.0 13.45 9.15 12.9 9.3 L12.75 9.3 Q14.15 9.7 14.55 10.75 L14.6 10.8 14.85 11.4 15.65 11.9 15.9 12.05 15.9 11.95 15.95 11.95 16.0 12.15 Q16.2 12.35 16.3 12.5 16.4 12.45 16.5 12.4 L16.0 11.7 16.0 11.65 15.9 11.55 15.1 10.35 14.85 9.95 14.75 9.75 14.8 9.65 14.7 9.65 14.5 9.2 14.25 8.5 13.8 7.05 13.85 7.05 Q14.0 7.5 14.15 7.9 L14.3 8.2 14.5 8.65 14.6 8.85 Q15.15 9.95 15.9 10.9 16.7 11.8 17.0 12.15 L17.05 12.15 17.5 12.05 17.35 11.45 Q17.1 10.2 17.0 9.95 L16.85 9.65 Q16.6 9.1 16.15 8.4 L15.4 7.35 Q14.65 6.3 12.4 4.7 9.7 2.75 8.15 2.75 6.7 2.75 6.4 2.8 5.9 2.8 5.55 2.95 5.4 3.0 5.3 3.05 4.8 3.25 4.3 3.85 L4.25 3.85 3.95 4.25 Q3.7 4.5 3.35 4.9 L2.9 5.5 2.7 5.3 2.7 5.2 M14.45 11.25 L14.35 11.05 13.8 10.3 Q13.45 9.85 12.35 9.65 L11.7 9.5 Q11.4 9.35 11.4 9.2 11.4 9.05 11.45 9.0 11.5 8.95 11.65 9.0 12.15 9.05 12.65 8.8 L12.75 8.8 11.85 8.65 11.35 8.55 11.15 8.55 11.0 8.45 10.8 8.45 9.85 8.5 9.1 8.7 9.8 8.15 Q10.0 8.05 10.2 8.0 9.9 7.9 9.75 7.85 9.15 7.85 8.6 8.1 L8.55 8.1 8.45 8.15 Q8.1 8.3 7.8 8.55 7.25 8.95 7.05 9.35 6.9 9.6 6.9 9.8 6.9 10.0 7.1 10.4 L7.3 10.85 7.4 11.05 7.8 11.15 Q8.3 11.35 8.85 11.7 9.45 11.95 9.8 12.05 10.5 12.25 11.35 12.3 L11.5 12.3 9.85 11.05 Q9.85 10.95 9.85 11.0 L9.9 11.05 Q10.45 11.3 11.15 11.55 L12.15 11.9 Q13.1 12.25 13.65 13.05 L13.7 13.05 13.75 12.45 13.75 12.4 Q13.75 12.1 13.6 11.85 13.5 11.55 13.25 11.3 13.05 11.15 11.35 10.05 L11.4 10.05 11.4 10.0 Q13.0 10.3 13.7 11.35 L13.75 11.35 14.05 11.55 Q14.4 11.75 14.5 11.75 L14.5 11.7 14.55 11.55 14.45 11.25 M12.9 15.25 L12.95 15.25 13.45 15.75 Q13.8 15.85 14.55 16.0 14.5 15.85 14.25 15.2 14.0 14.6 13.95 14.3 14.05 14.15 14.25 14.15 14.6 14.15 14.9 14.45 L15.3 14.8 Q15.3 15.0 15.3 14.75 15.3 14.45 14.55 13.45 L14.2 12.95 14.25 13.0 14.25 13.35 14.25 13.6 14.2 13.65 Q14.15 13.75 14.0 13.75 13.85 13.75 13.4 13.5 L12.25 12.8 Q12.05 12.95 11.7 12.95 11.1 12.9 9.2 12.15 L8.15 11.7 Q8.35 12.0 8.6 12.25 9.1 12.8 9.55 13.0 L9.55 13.05 10.0 13.2 10.6 13.2 Q11.3 13.3 11.9 13.85 L12.05 14.05 Q12.5 14.5 12.75 15.1 L12.9 15.25 M15.6 12.55 Q15.35 12.25 15.0 11.75 L14.95 11.65 14.9 11.6 14.95 11.7 Q14.95 11.85 14.85 12.05 14.8 12.35 14.65 12.35 14.45 12.3 14.2 12.15 L14.55 12.9 14.6 13.05 15.15 13.6 15.15 13.65 15.35 14.05 15.45 14.4 15.5 15.25 15.5 15.5 15.45 15.45 15.15 15.1 Q14.85 14.3 14.4 14.3 L14.4 14.25 Q14.35 14.25 14.35 14.4 L14.65 15.95 14.7 16.2 14.65 16.15 Q14.2 16.0 13.95 16.25 L13.9 16.35 14.05 16.5 14.3 16.8 15.1 18.0 15.15 18.05 Q15.65 18.45 16.1 18.75 L16.15 18.55 16.25 18.0 16.35 17.35 16.35 17.2 Q16.2 16.75 15.9 16.2 L16.0 16.3 16.1 16.3 16.15 16.3 16.2 16.25 16.35 16.4 16.45 16.15 16.45 16.1 16.5 16.0 Q16.6 15.85 16.6 15.45 16.6 14.85 16.2 14.1 15.8 13.35 15.8 13.25 L15.85 12.8 15.6 12.55 M19.3 13.65 L19.25 13.5 Q18.9 12.55 18.3 12.55 17.4 12.55 16.7 13.0 16.5 13.1 16.35 13.25 L16.5 13.95 16.55 14.15 17.0 13.85 Q17.45 13.6 17.9 13.45 18.5 13.25 18.75 13.4 19.0 13.55 18.95 14.05 L18.9 14.05 18.75 13.8 Q18.65 13.6 18.45 13.6 18.05 13.6 17.85 13.7 L17.1 14.05 Q17.4 14.25 17.55 14.7 L17.6 14.8 17.65 15.2 17.7 15.35 17.7 15.7 Q17.7 15.85 17.55 16.1 17.3 16.45 16.95 16.45 16.9 16.55 16.9 16.35 16.9 16.3 17.2 15.95 17.4 15.65 17.5 15.35 L17.5 15.15 Q17.5 15.05 17.25 14.85 17.1 14.75 16.65 14.5 L16.6 14.45 Q16.75 15.15 16.75 15.7 L16.75 16.6 Q17.0 16.7 17.35 16.7 18.65 16.7 19.2 15.65 L19.2 15.55 19.15 15.55 19.25 15.35 19.35 15.25 19.4 14.9 19.45 14.5 Q19.45 14.15 19.3 13.65 M4.9 9.35 L4.8 8.8 Q4.8 8.7 4.95 8.4 5.1 8.1 5.1 7.75 5.1 7.45 4.65 6.65 L4.15 5.8 4.15 6.35 4.1 6.6 4.15 6.75 4.25 6.9 4.35 7.1 4.35 7.2 Q4.3 7.3 4.2 7.3 4.1 7.3 3.85 7.0 L3.4 6.35 Q2.7 5.4 2.05 5.4 L1.55 5.5 Q1.7 5.8 2.25 6.3 2.85 6.9 3.1 7.3 2.65 7.25 2.2 6.9 L1.95 6.8 Q1.7 6.7 1.05 6.7 0.95 6.7 0.85 6.8 0.75 6.85 0.6 7.0 L0.45 7.15 0.3 7.35 0.25 7.45 0.4 7.45 Q0.8 7.15 1.8 7.45 L1.85 7.45 1.9 7.5 Q3.05 7.85 3.45 8.25 3.2 8.2 2.65 7.95 L2.4 7.9 1.3 7.75 0.9 7.85 0.8 7.95 0.2 8.25 0.2 8.3 0.35 8.35 Q0.75 8.55 1.1 8.55 L1.9 8.5 Q2.05 8.5 2.25 8.6 L2.8 8.6 Q3.1 8.8 4.15 9.8 L4.7 10.35 4.9 9.65 4.95 9.5 4.95 9.45 4.9 9.45 4.9 9.35 M6.4 9.5 L6.35 9.1 Q6.35 8.5 6.4 8.25 6.45 8.05 6.65 7.65 5.85 7.45 5.45 7.5 L5.5 8.25 5.4 9.1 5.35 9.2 Q5.3 9.85 5.3 10.05 L5.3 10.1 5.35 10.15 5.55 10.6 Q5.55 10.7 5.5 10.75 L5.7 10.85 Q5.6 11.1 4.95 11.45 L4.55 11.6 Q3.5 12.05 3.25 12.4 L3.1 12.65 3.1 12.7 Q2.8 13.1 2.75 13.35 2.65 13.6 2.6 14.05 L2.6 14.2 Q2.6 14.85 3.15 15.3 3.85 15.85 5.15 15.85 L5.25 15.8 6.3 15.55 6.5 15.6 6.55 15.6 6.6 15.65 6.05 16.05 Q5.45 16.45 4.95 16.45 L4.65 16.45 Q3.7 16.35 2.95 15.55 L2.75 15.35 2.5 15.05 2.5 15.0 2.2 14.55 Q2.05 14.2 2.05 14.1 2.05 13.95 2.1 13.7 1.55 13.95 1.2 14.25 L1.15 14.35 1.1 14.4 1.0 14.45 Q0.7 14.7 0.6 15.0 0.35 15.5 0.35 16.65 0.35 17.6 1.0 18.45 L1.4 19.0 1.45 19.05 1.45 19.1 1.75 19.25 1.7 19.2 1.45 18.75 1.25 18.35 1.05 17.9 0.85 17.4 0.8 17.2 0.8 17.1 0.85 17.05 0.85 17.1 Q0.9 16.75 0.95 16.3 L1.2 15.25 1.25 15.25 1.25 15.3 Q1.2 15.5 1.15 15.7 L1.15 15.8 Q1.0 16.15 1.0 16.3 1.0 16.8 1.2 17.3 1.2 18.0 1.45 18.55 1.8 19.5 2.65 19.85 L2.75 19.7 2.8 19.7 Q2.8 19.45 2.95 19.1 3.1 18.75 3.25 18.65 3.45 18.35 3.6 18.25 L3.65 17.6 Q3.75 16.75 3.8 16.7 L3.9 17.6 3.9 17.95 3.95 17.95 3.95 18.1 4.0 18.4 4.15 19.6 4.2 20.05 4.25 20.15 4.3 20.1 4.4 20.05 4.35 20.1 4.1 20.3 4.25 20.3 Q5.05 20.5 5.85 18.95 L6.2 18.7 6.35 18.25 6.35 18.2 Q6.35 17.8 6.55 17.4 L6.6 17.1 6.65 17.1 6.65 16.8 6.75 16.8 Q6.9 17.2 7.4 17.7 L7.65 17.95 7.9 18.25 8.05 18.4 8.05 18.45 8.1 18.45 8.35 18.6 Q8.75 18.8 9.25 18.8 L9.2 18.75 9.15 18.75 Q8.45 18.0 8.1 17.4 L8.0 17.2 7.9 16.95 7.9 16.9 7.95 16.9 8.2 17.15 8.25 17.15 Q8.55 17.7 9.5 18.3 L10.75 19.1 Q10.95 19.1 11.0 18.75 L11.0 18.6 11.0 18.4 Q10.95 18.0 10.8 17.6 10.75 17.25 10.5 16.8 L9.85 15.55 9.9 15.5 10.35 16.0 10.8 16.6 10.8 16.65 10.85 16.7 Q10.95 16.95 11.05 17.2 L11.1 17.15 Q11.25 17.45 11.4 17.65 L11.55 17.9 Q11.9 18.45 12.65 18.55 L12.75 18.2 12.8 18.0 12.85 17.35 Q12.85 17.2 12.7 16.35 L12.6 16.1 12.55 15.9 Q12.25 15.25 12.05 14.95 11.8 14.4 11.5 14.1 11.0 13.7 10.4 13.5 L10.3 13.5 8.75 13.75 8.65 14.1 8.45 14.5 8.45 14.55 8.4 14.55 Q7.95 15.45 7.4 15.45 L7.0 15.3 6.05 14.95 7.0 14.95 7.25 14.9 7.3 14.9 7.55 14.85 Q7.9 14.85 8.1 14.3 8.25 13.95 8.25 13.75 8.25 13.6 7.95 13.2 L7.8 13.0 Q7.3 12.35 6.9 12.35 6.7 12.35 6.35 12.5 L5.95 12.65 5.8 12.75 5.65 12.9 5.6 12.85 Q5.95 11.65 6.8 11.9 L6.95 11.95 Q7.2 12.05 7.45 12.2 7.9 12.5 8.4 13.05 L8.45 13.1 8.55 13.05 Q8.35 12.9 8.2 12.6 8.1 12.35 7.9 11.6 L7.7 11.5 7.7 11.6 Q7.7 11.65 7.6 11.65 7.15 11.6 6.75 10.8 6.45 10.2 6.45 9.95 L6.4 9.55 6.4 9.5 M3.6 9.75 Q3.9 10.35 3.95 11.2 L4.4 10.9 4.1 10.55 3.7 9.85 3.6 9.75 M3.25 9.25 L3.15 9.2 Q3.35 9.35 3.45 9.55 3.4 9.35 3.25 9.25 M1.2 9.15 L1.15 9.15 1.0 9.2 Q1.7 9.3 2.3 9.9 L2.5 10.25 2.85 10.9 Q3.1 11.5 3.1 11.85 L3.1 12.05 3.25 11.9 3.5 11.6 3.55 11.5 Q3.75 11.15 3.75 10.9 3.75 10.25 3.4 9.7 3.05 9.2 2.4 9.0 L2.0 9.0 Q1.65 9.15 1.3 9.15 L1.2 9.15 M1.3 9.55 L0.95 9.55 Q0.1 9.95 0.0 10.7 L-0.05 10.85 -0.05 11.05 Q0.0 11.2 0.1 11.45 L0.3 11.75 Q0.7 12.3 1.25 12.3 2.0 12.3 2.45 12.1 2.6 12.0 2.7 11.95 L2.75 11.9 2.75 11.45 Q2.7 10.9 2.5 10.45 L2.3 10.05 Q1.95 9.55 1.3 9.55 M0.35 13.9 L0.4 13.8 0.45 13.75 0.45 13.7 0.55 13.7 0.55 13.85 0.45 14.2 0.45 14.25 0.25 14.5 0.15 14.75 Q0.0 15.05 0.0 15.15 L-0.4 15.8 Q-0.75 16.4 -0.75 16.9 -0.75 17.6 -0.7 18.1 L-0.6 18.5 -0.6 18.55 -0.15 18.2 Q0.15 18.0 0.3 18.0 L0.35 17.95 0.05 16.7 0.05 16.4 Q0.1 15.35 0.45 14.75 L0.5 14.6 0.8 14.2 0.8 13.9 Q0.8 13.6 0.85 13.4 L0.45 13.2 0.25 13.45 -0.5 14.2 Q-1.15 14.85 -1.25 15.35 L-1.25 15.4 -0.35 14.6 Q0.1 14.2 0.35 13.9 M0.3 18.0 L0.3 18.0 M1.25 13.85 Q1.65 13.65 2.2 13.5 L1.7 13.55 1.3 13.5 1.25 13.85 M1.8 12.95 L2.05 12.7 Q0.55 12.65 0.0 11.8 -0.25 11.4 -0.25 10.65 -0.25 10.15 -0.05 9.9 L0.1 9.75 Q-0.2 9.85 -0.35 10.0 L-0.4 10.15 -0.5 10.55 -0.5 10.6 -0.5 10.8 -0.45 10.95 -0.5 10.95 -0.4 11.45 -0.4 11.5 -0.3 11.65 Q0.25 12.95 1.7 12.95 L1.8 12.95 M6.75 7.65 L6.7 8.05 Q6.65 8.45 6.65 8.65 L6.65 9.05 Q6.8 8.85 7.1 8.6 7.45 8.25 7.9 8.05 L7.05 7.75 6.75 7.65 M6.7 17.15 L6.7 17.25 6.75 17.2 6.7 17.15 M13.1 16.8 L13.05 16.95 13.0 17.5 12.9 18.9 Q12.9 19.05 12.8 19.1 L12.6 19.2 Q12.2 19.2 11.5 18.5 L11.4 18.4 11.35 19.15 Q11.3 19.75 11.15 19.8 L11.15 19.95 10.8 19.8 Q10.3 19.7 9.6 19.15 L9.05 19.15 Q8.55 19.0 7.85 18.55 L6.85 17.8 6.8 17.9 6.65 18.35 Q6.4 18.9 6.15 19.3 5.55 20.25 4.9 20.55 4.55 20.65 4.25 20.65 L4.1 20.6 3.9 20.7 Q3.65 20.45 3.6 19.75 L3.6 19.35 3.5 19.1 3.5 19.15 3.5 19.1 3.3 19.3 Q3.25 19.55 3.15 19.85 L3.15 19.95 Q3.15 20.3 2.95 20.3 L2.85 20.3 2.7 20.35 Q2.25 20.35 1.8 20.05 L1.65 20.0 1.5 19.85 1.3 19.7 Q1.1 19.65 0.95 19.45 0.75 19.2 0.6 18.75 L-0.05 19.4 Q-0.9 20.2 -0.9 20.5 L-0.9 20.7 -0.9 20.8 Q0.15 20.25 0.35 20.25 0.55 20.25 0.6 20.35 L0.6 20.4 0.5 20.6 0.45 20.65 Q0.15 21.15 0.05 21.65 -0.25 22.1 -0.3 22.3 L-0.3 24.4 -0.05 24.25 0.1 24.1 1.9 21.9 1.95 21.7 1.95 21.65 2.0 21.65 2.05 20.95 Q2.2 21.25 2.2 21.5 2.2 21.85 1.9 22.9 1.65 23.95 1.65 24.25 1.65 24.55 1.8 25.3 L1.9 25.7 2.1 26.25 2.5 25.75 2.5 25.8 2.6 25.65 3.45 24.75 3.5 24.75 3.5 24.7 3.55 24.7 3.55 24.65 3.6 24.65 3.6 24.6 3.65 24.6 4.1 24.15 Q4.45 23.8 4.6 23.35 L4.85 22.4 4.9 21.9 4.95 21.9 5.0 22.2 5.0 22.9 4.8 23.75 Q4.6 24.55 4.6 25.0 4.6 25.2 4.65 25.4 L4.7 25.5 4.8 25.8 4.85 25.75 4.95 25.6 5.3 24.95 5.55 24.45 5.8 24.0 Q6.2 23.1 6.25 22.4 L6.3 22.15 6.3 22.05 6.35 20.7 6.4 20.7 Q6.45 22.6 6.85 23.8 7.5 25.6 9.2 26.7 L9.2 26.65 Q9.2 26.55 9.3 26.25 L9.45 25.75 Q9.6 25.35 9.6 24.95 L9.6 24.4 Q9.5 23.6 9.2 22.6 8.8 21.1 8.25 20.45 L8.3 20.4 Q9.05 20.7 9.45 22.1 9.75 23.05 9.75 23.55 L9.8 24.1 9.9 24.6 9.9 24.7 Q10.0 24.35 10.1 24.0 10.15 23.8 10.15 22.9 10.15 22.35 9.9 21.6 9.6 20.9 9.6 20.75 L9.65 20.65 9.65 20.6 Q10.2 20.95 10.5 21.55 10.65 21.8 10.95 22.65 11.15 23.4 11.45 23.85 11.85 24.4 12.5 24.85 L12.65 24.95 12.75 24.95 12.75 24.9 12.7 24.9 12.7 24.85 12.25 23.4 12.25 23.25 12.2 23.25 11.9 22.3 11.9 22.2 11.65 21.55 11.65 21.5 11.8 21.7 Q11.65 21.35 11.65 21.15 L11.7 21.25 Q11.9 21.45 12.05 21.7 L12.15 21.9 12.6 22.65 Q13.25 23.65 14.7 24.1 L14.7 24.05 14.75 23.7 Q14.75 22.15 14.15 20.5 L13.75 19.35 Q13.6 18.95 13.55 18.55 L13.55 17.95 13.6 17.95 13.6 18.0 13.7 18.25 14.0 19.1 14.0 19.15 14.15 19.6 14.45 19.7 Q14.95 19.95 15.1 20.0 L15.15 19.85 15.15 19.6 Q15.15 19.05 14.9 18.45 14.8 17.95 14.4 17.25 13.8 16.25 13.2 16.0 L13.15 16.05 13.2 16.15 13.1 16.0 13.1 16.8 M20.05 18.6 L20.4 18.15 Q20.8 17.8 21.35 17.75 L21.0 17.25 Q20.7 16.9 20.5 16.75 20.2 16.55 19.4 16.6 L19.0 16.55 Q18.75 16.8 18.5 17.0 L18.45 17.15 18.55 17.25 Q18.65 17.45 18.65 17.55 L18.65 17.6 18.75 17.7 18.75 17.75 Q19.0 18.0 20.05 18.7 19.4 18.55 18.85 18.0 L18.75 17.85 18.3 17.4 18.25 17.55 18.05 17.85 18.0 17.9 18.05 18.05 Q18.35 18.3 18.85 19.05 19.5 20.05 19.55 20.45 L20.4 20.55 Q20.5 20.55 20.6 20.5 L20.95 20.1 Q21.2 19.7 21.2 19.6 21.2 19.55 21.05 19.4 L21.0 19.35 Q20.6 19.35 20.3 19.0 20.05 18.75 20.05 18.65 L20.05 18.6 M17.65 18.2 Q17.45 18.35 17.25 18.35 17.4 18.5 17.4 18.7 17.4 18.95 17.25 19.3 17.0 19.75 16.95 19.9 L17.75 20.2 18.3 20.2 18.5 19.85 18.7 19.65 18.6 19.45 Q18.5 19.1 18.0 18.55 L17.65 18.2 M16.8 17.4 L16.75 17.8 17.2 17.8 Q17.5 17.8 17.8 17.3 L17.1 17.35 16.8 17.35 16.8 17.4" fill="#111111" fill-rule="evenodd" stroke="none"/>
    <path d="M2.55 5.35 Q2.6 5.25 2.7 5.2 L2.7 5.3 2.9 5.5 3.35 4.9 Q3.7 4.5 3.95 4.25 L4.1 4.2 Q6.1 3.65 7.3 3.6 L7.3 3.65 9.05 4.2 11.0 4.8 Q10.3 4.3 8.85 3.75 7.25 3.1 5.95 2.95 L5.55 2.95 Q5.9 2.8 6.4 2.8 6.7 2.75 8.15 2.75 9.7 2.75 12.4 4.7 14.65 6.3 15.4 7.35 L16.15 8.4 16.0 8.2 Q15.95 8.5 15.85 8.65 L15.45 8.6 15.2 8.25 Q14.2 6.8 14.15 7.9 14.0 7.5 13.85 7.05 L13.8 7.05 14.25 8.5 14.5 9.2 14.45 9.3 14.05 9.75 13.2 9.4 12.9 9.3 Q13.45 9.15 13.7 9.0 13.9 8.85 13.9 8.7 13.9 8.6 12.8 8.25 11.7 7.9 11.2 7.9 L11.0 7.9 Q10.7 7.6 10.2 7.55 9.45 7.4 8.55 7.75 L8.5 7.75 8.1 7.55 Q7.45 7.3 6.85 7.1 5.7 6.7 5.3 6.85 L5.25 6.8 Q5.15 6.45 4.85 6.15 4.6 5.8 4.45 5.55 3.95 5.0 3.95 5.7 L3.9 5.75 3.85 5.7 3.9 5.85 3.85 5.9 3.85 6.35 Q3.65 6.0 3.35 5.75 L3.3 5.75 3.15 5.65 3.1 5.6 3.05 5.6 Q2.9 5.5 2.7 5.4 L2.55 5.35 M6.15 4.8 L6.3 4.45 Q6.3 3.95 5.55 4.15 4.75 4.4 4.75 4.8 4.75 4.9 4.8 4.9 L4.9 4.9 5.15 4.8 Q5.3 4.7 5.45 4.7 5.55 4.7 5.6 4.75 L5.6 4.8 Q5.5 5.25 5.75 5.85 6.1 6.7 7.2 6.7 7.6 6.7 8.1 6.1 L8.55 5.45 8.75 5.75 Q9.0 6.15 9.05 6.2 L9.3 5.95 Q9.45 5.85 9.45 5.75 9.45 5.45 9.2 5.25 L9.05 5.05 Q8.75 4.65 8.4 4.65 8.2 4.65 7.75 5.35 7.3 6.0 7.0 6.0 6.35 6.0 6.1 5.7 5.95 5.55 5.95 5.2 5.95 5.1 6.15 4.8 M7.25 5.3 Q7.35 5.15 7.35 5.0 7.35 4.6 6.95 4.65 6.55 4.65 6.55 5.05 L6.6 5.25 Q6.65 5.4 6.95 5.4 7.15 5.4 7.25 5.3 M18.75 17.75 L18.9 17.85 Q19.55 18.4 20.05 18.6 L20.05 18.65 Q20.05 18.75 20.3 19.0 20.6 19.35 21.0 19.35 L21.05 19.4 Q21.2 19.55 21.2 19.6 21.2 19.7 20.95 20.1 L20.6 20.5 Q19.65 19.55 19.5 19.25 L18.75 17.85 18.85 18.0 Q19.4 18.55 20.05 18.7 19.0 18.0 18.75 17.75" fill="#33594e" fill-rule="evenodd" stroke="none"/>
    <path d="M12.2 3.85 Q13.45 3.05 14.5 2.85 13.7 3.45 12.85 4.3 L12.6 4.1 12.2 3.85 M13.6 4.85 L13.9 4.55 Q15.85 3.0 17.7 3.0 L19.75 3.15 17.0 3.75 Q16.1 4.0 15.35 4.6 16.35 4.15 17.4 4.0 18.75 3.65 20.35 3.85 22.1 4.0 23.65 4.7 L22.9 4.55 21.7 4.45 21.55 4.45 21.8 4.6 Q22.6 5.0 22.85 5.05 23.45 5.3 24.1 5.3 24.9 5.3 26.0 5.9 L26.15 5.95 Q26.45 6.3 26.7 6.65 25.25 6.25 22.7 5.65 L22.05 5.5 21.35 5.35 Q22.55 5.95 24.15 6.7 L24.1 6.65 21.4 6.0 Q20.0 5.75 16.9 5.8 L16.95 5.8 Q17.6 5.4 18.0 5.25 18.75 4.95 20.25 4.95 18.7 4.1 16.0 5.25 15.3 5.55 14.7 5.95 L14.35 5.55 13.65 4.9 13.6 4.85 M21.25 7.35 L21.1 7.3 20.9 7.25 21.15 7.3 21.25 7.35 M21.25 7.65 L21.4 7.75 Q22.4 8.35 23.05 8.4 23.9 8.85 24.5 9.35 L24.8 9.6 21.9 8.7 Q20.0 7.85 18.15 7.7 L19.45 7.65 Q20.45 7.65 21.3 7.7 L21.25 7.65 M7.05 9.35 Q7.25 8.95 7.8 8.55 8.1 8.3 8.45 8.15 L8.55 8.1 8.6 8.1 Q9.15 7.85 9.75 7.85 9.9 7.9 10.2 8.0 10.0 8.05 9.8 8.15 L9.1 8.7 9.85 8.5 10.8 8.45 11.0 8.45 11.15 8.55 11.35 8.55 11.85 8.65 12.75 8.8 12.65 8.8 Q12.15 9.05 11.65 9.0 11.5 8.95 11.45 9.0 11.4 9.05 11.4 9.2 11.4 9.35 11.7 9.5 L12.35 9.65 Q13.45 9.85 13.8 10.3 L14.35 11.05 14.45 11.25 13.7 10.65 Q11.15 8.8 10.1 10.0 12.05 10.25 13.6 11.85 13.75 12.1 13.75 12.4 L13.1 11.85 Q11.25 10.35 9.35 10.35 8.0 10.35 7.75 10.15 7.65 10.1 7.6 9.95 7.5 9.75 7.35 9.65 7.2 9.45 7.05 9.35 M14.55 12.9 L14.8 12.75 Q14.95 12.6 15.25 12.6 L15.7 12.65 15.6 12.55 15.85 12.8 15.8 13.25 Q15.8 13.35 16.2 14.1 16.6 14.85 16.6 15.45 16.6 15.85 16.5 16.0 L16.45 16.1 Q16.2 15.6 15.75 14.55 15.5 14.05 15.15 13.65 L15.15 13.6 14.6 13.05 14.55 12.9 M16.1 16.3 L16.0 16.3 15.9 16.2 Q16.2 16.75 16.35 17.2 L16.35 17.35 16.25 18.0 16.15 18.55 16.15 18.45 Q15.7 17.65 15.15 16.85 L14.65 16.15 14.7 16.2 14.65 15.95 14.35 14.4 Q14.35 14.25 14.4 14.25 L14.4 14.3 Q14.85 14.3 15.15 15.1 L15.45 15.45 16.1 16.3 M14.3 16.8 L14.05 16.5 13.9 16.35 13.95 16.25 14.3 16.8 M22.65 12.05 L22.75 12.15 22.65 12.05 M0.85 6.8 Q0.95 6.7 1.05 6.7 1.7 6.7 1.95 6.8 L2.2 6.9 Q2.65 7.25 3.1 7.3 2.85 6.9 2.25 6.3 1.7 5.8 1.55 5.5 L2.05 5.4 Q2.7 5.4 3.4 6.35 L3.85 7.0 Q4.1 7.3 4.2 7.3 4.3 7.3 4.35 7.2 L4.35 7.1 4.25 6.9 4.15 6.75 4.1 6.6 4.15 6.35 4.15 5.8 4.65 6.65 Q5.1 7.45 5.1 7.75 5.1 8.1 4.95 8.4 4.8 8.7 4.8 8.8 L4.9 9.35 4.85 9.3 Q4.25 8.35 3.35 7.75 2.1 6.8 0.85 6.8 M0.2 8.25 L0.8 7.95 0.9 7.85 1.3 7.75 2.4 7.9 2.7 8.25 2.55 8.25 Q1.5 8.3 0.4 8.25 L0.2 8.25 M8.65 14.1 L8.75 13.75 10.3 13.5 10.4 13.5 Q11.0 13.7 11.5 14.1 11.8 14.4 12.05 14.95 12.25 15.25 12.55 15.9 L12.6 16.1 12.7 16.35 Q12.85 17.2 12.85 17.35 L12.8 18.0 12.75 18.2 12.2 17.5 Q11.45 16.6 10.85 16.2 10.5 15.95 10.35 16.0 L9.9 15.5 9.85 15.55 10.5 16.8 Q10.75 17.25 10.8 17.6 10.95 18.0 11.0 18.4 L11.0 18.6 10.25 18.1 10.0 17.8 Q8.5 16.15 8.5 15.8 8.5 15.7 8.6 15.45 L8.7 15.15 8.65 14.45 8.65 14.1 M8.0 17.2 L8.1 17.4 Q8.45 18.0 9.15 18.75 L9.2 18.75 9.25 18.8 Q8.75 18.8 8.35 18.6 7.75 17.7 7.6 17.0 7.75 17.05 8.0 17.2 M7.9 18.25 L7.65 17.95 7.5 17.45 7.9 18.25 M4.3 20.1 L4.25 20.15 4.2 20.05 4.15 19.6 4.0 18.4 3.95 18.1 3.95 17.95 3.9 17.95 3.9 17.6 Q4.0 17.55 4.15 17.5 4.55 17.4 4.65 17.9 L4.7 18.75 Q4.7 18.95 4.45 19.75 L4.3 20.1 M1.2 17.3 Q1.0 16.8 1.0 16.3 1.0 16.15 1.15 15.8 L1.15 15.7 Q1.2 15.5 1.25 15.3 L1.25 15.25 1.2 15.25 0.95 16.3 Q0.9 16.75 0.85 17.1 L0.85 17.05 0.8 17.1 0.8 17.2 0.85 17.4 1.05 17.9 1.25 18.35 1.45 18.75 1.7 19.2 1.75 19.25 1.45 19.1 1.45 19.05 1.4 19.0 1.0 18.45 Q0.35 17.6 0.35 16.65 0.35 15.5 0.6 15.0 0.7 14.7 1.0 14.45 L1.1 14.4 1.15 14.35 1.2 14.25 Q1.55 13.95 2.1 13.7 2.05 13.95 2.05 14.1 2.05 14.2 2.2 14.55 L2.5 15.0 Q2.4 15.2 2.4 15.45 L2.45 16.05 Q2.55 16.55 2.6 16.85 L2.75 17.2 Q2.55 18.1 2.55 19.0 L2.55 19.65 Q2.1 19.3 1.65 18.55 L1.6 18.25 1.5 18.0 Q1.3 17.65 1.2 17.3 M0.35 13.9 Q0.1 14.2 -0.35 14.6 L-1.25 15.4 -1.25 15.35 Q-1.15 14.85 -0.5 14.2 L0.25 13.45 0.35 13.9 M0.5 14.6 L0.45 14.75 Q0.1 15.35 0.05 16.4 L-0.05 16.7 Q-0.55 17.7 -0.7 18.1 -0.75 17.6 -0.75 16.9 -0.75 16.4 -0.4 15.8 L0.0 15.15 Q0.0 15.05 0.15 14.75 L0.25 14.5 0.45 14.25 0.5 14.6 M0.3 18.0 L0.3 18.0 M3.6 19.35 L3.55 19.35 3.55 19.3 3.5 19.15 3.5 19.1 3.6 19.35 M1.65 20.0 L1.5 20.35 Q1.2 21.25 0.95 22.2 L0.55 22.95 -0.05 24.25 -0.3 24.4 -0.3 22.3 Q-0.25 22.1 0.05 21.65 0.15 21.15 0.45 20.65 L1.5 19.85 1.65 20.0 M1.9 25.7 Q1.85 25.0 1.9 24.5 1.95 23.15 2.85 23.1 L3.25 23.1 3.25 23.2 2.5 25.75 2.1 26.25 1.9 25.7 M4.65 25.4 L4.8 25.15 4.8 25.1 Q4.8 24.5 4.85 24.25 L5.3 23.2 Q5.45 23.25 5.55 23.5 L5.6 23.75 5.55 24.45 5.3 24.95 4.95 25.6 4.85 25.75 4.8 25.6 Q4.8 25.55 4.8 25.25 L4.7 25.5 4.65 25.4 M9.3 26.25 L8.9 25.5 Q7.85 23.55 7.85 23.15 8.15 22.65 8.6 22.65 9.3 22.65 9.5 24.0 L9.6 24.4 9.6 24.95 Q9.6 25.35 9.45 25.75 L9.3 26.25 M12.5 24.85 L12.4 24.75 Q12.25 24.4 12.05 24.0 11.55 22.75 11.55 22.5 11.55 21.8 11.9 22.2 L11.9 22.3 12.2 23.25 12.25 23.25 12.25 23.4 12.7 24.85 12.7 24.9 12.75 24.9 12.75 24.95 12.65 24.95 12.5 24.85 M14.7 24.05 L14.15 23.1 12.95 21.0 13.3 18.25 13.3 18.2 13.55 18.55 Q13.6 18.95 13.75 19.35 L14.15 20.5 Q14.75 22.15 14.75 23.7 L14.7 24.05 M14.0 19.15 L14.45 19.7 14.15 19.6 14.0 19.15 M15.15 19.85 L13.7 17.65 Q13.35 17.1 13.1 16.8 L13.1 16.0 13.2 16.15 13.15 16.05 13.2 16.0 Q13.8 16.25 14.4 17.25 14.8 17.95 14.9 18.45 15.15 19.05 15.15 19.6 L15.15 19.85 M4.1 16.95 Q4.05 17.0 4.0 17.0 L4.05 16.9 4.1 16.95 M0.95 19.45 Q0.4 19.75 -0.3 20.25 L-0.9 20.7 -0.9 20.5 Q-0.9 20.2 -0.05 19.4 L0.6 18.75 Q0.75 19.2 0.95 19.45" fill="#d5d0ca" fill-rule="evenodd" stroke="none"/>
    <path d="M3.6 9.75 L3.7 9.85 4.1 10.55 4.4 10.9 3.95 11.2 Q3.9 10.35 3.6 9.75 M1.2 9.15 L1.3 9.15 Q1.65 9.15 2.0 9.0 L2.4 9.0 Q3.05 9.2 3.4 9.7 3.75 10.25 3.75 10.9 3.75 11.15 3.55 11.5 L3.5 11.6 3.25 11.9 3.1 12.05 3.1 11.85 Q3.1 11.5 2.85 10.9 L2.5 10.25 2.3 9.9 Q1.7 9.3 1.0 9.2 L1.15 9.15 1.2 9.15" fill="#999999" fill-rule="evenodd" stroke="none"/>
    <path d="M1.8 12.95 L1.7 12.95 Q0.25 12.95 -0.3 11.65 L-0.4 11.5 -0.4 11.45 -0.5 10.95 -0.45 10.95 -0.5 10.8 -0.5 10.6 -0.5 10.55 -0.4 10.15 -0.35 10.0 Q-0.2 9.85 0.1 9.75 L-0.05 9.9 Q-0.25 10.15 -0.25 10.65 -0.25 11.4 0.0 11.8 0.55 12.65 2.05 12.7 L1.8 12.95" fill="#666666" fill-rule="evenodd" stroke="none"/>
    <path d="M0.0 10.7 L0.0 10.75 -0.05 10.85 0.0 10.7 M0.8 10.8 Q1.15 10.7 1.25 10.45 L1.35 10.3 1.35 10.35 1.45 10.25 1.55 10.3 1.4 10.4 Q1.15 10.65 1.15 10.95 1.15 11.15 1.25 11.4 1.55 11.8 2.2 11.8 2.6 11.8 2.75 11.45 L2.75 11.9 2.7 11.95 Q2.6 12.0 2.45 12.1 2.0 12.3 1.25 12.3 0.7 12.3 0.3 11.75 L0.1 11.45 0.2 11.6 0.3 11.55 Q0.5 11.15 0.8 10.8" fill="#c6eaea" fill-rule="evenodd" stroke="none"/>
    <path d="M0.0 10.7 Q0.1 9.95 0.95 9.55 L1.3 9.55 Q1.4 9.65 1.4 9.8 L1.4 10.0 1.35 10.2 1.35 10.3 1.25 10.45 Q1.15 10.7 0.8 10.8 L0.65 10.85 0.35 10.85 Q0.1 10.85 0.0 10.75 L0.0 10.7" fill="#ffffff" fill-rule="evenodd" stroke="none"/>
    <path d="M0.0 10.75 Q0.1 10.85 0.35 10.85 L0.65 10.85 0.8 10.8 Q0.5 11.15 0.3 11.55 L0.2 11.6 0.1 11.45 Q0.0 11.2 -0.05 11.05 L-0.05 10.85 0.0 10.75 M1.35 10.3 L1.35 10.2 1.4 10.0 1.4 9.8 Q1.4 9.65 1.3 9.55 1.95 9.55 2.3 10.05 L2.5 10.45 Q2.7 10.9 2.75 11.45 2.6 11.8 2.2 11.8 1.55 11.8 1.25 11.4 1.15 11.15 1.15 10.95 1.15 10.65 1.4 10.4 L1.55 10.3 1.45 10.25 1.35 10.35 1.35 10.3" fill="#48bbbb" fill-rule="evenodd" stroke="none"/>
    <path d="M11.9 13.85 L12.4 13.75 13.3 13.55 13.4 13.85 13.65 14.45 12.9 15.25 12.75 15.1 Q12.5 14.5 12.05 14.05 L11.9 13.85 M14.25 13.35 L14.45 13.35 14.45 13.4 14.25 13.65 14.25 13.6 14.25 13.35 M18.75 13.4 Q18.5 13.25 17.9 13.45 17.45 13.6 17.0 13.85 L16.55 14.15 16.5 13.95 16.35 13.25 Q16.5 13.1 16.7 13.0 17.4 12.55 18.3 12.55 18.9 12.55 19.25 13.5 L19.3 13.65 Q19.1 13.45 18.75 13.4 M16.75 15.7 Q16.75 15.15 16.6 14.45 L16.65 14.5 Q17.1 14.75 17.25 14.85 17.5 15.05 17.5 15.15 L17.5 15.35 Q17.25 15.5 16.8 15.7 L16.75 15.7 M17.65 15.2 L17.6 14.8 17.55 14.7 Q17.75 14.9 17.75 15.05 L17.65 15.2 M5.35 9.2 L5.4 9.1 5.5 8.25 5.45 7.5 Q5.85 7.45 6.65 7.65 6.45 8.05 6.4 8.25 6.35 8.5 6.35 9.1 L6.4 9.5 6.35 9.5 Q6.1 9.7 6.05 9.7 5.95 9.7 5.35 9.2 M6.75 7.65 L7.05 7.75 7.9 8.05 Q7.45 8.25 7.1 8.6 6.8 8.85 6.65 9.05 L6.65 8.65 Q6.65 8.45 6.7 8.05 L6.75 7.65" fill="#cfb563" fill-rule="evenodd" stroke="none"/>
    <path d="M12.9 15.25 L13.65 14.45 13.4 13.85 13.3 13.55 12.4 13.75 11.9 13.85 Q11.3 13.3 10.6 13.2 L10.0 13.2 9.55 13.05 9.55 13.0 Q9.1 12.8 8.6 12.25 8.35 12.0 8.15 11.7 L9.2 12.15 Q11.1 12.9 11.7 12.95 12.05 12.95 12.25 12.8 L13.4 13.5 Q13.85 13.75 14.0 13.75 14.15 13.75 14.2 13.65 L14.25 13.6 14.25 13.65 14.45 13.4 14.45 13.35 14.25 13.35 14.25 13.0 14.2 12.95 14.55 13.45 Q15.3 14.45 15.3 14.75 15.3 15.0 15.3 14.8 L14.9 14.45 Q14.6 14.15 14.25 14.15 14.05 14.15 13.95 14.3 14.0 14.6 14.25 15.2 14.5 15.85 14.55 16.0 13.8 15.85 13.45 15.75 L12.95 15.25 12.9 15.25 M18.75 13.4 Q19.1 13.45 19.3 13.65 19.45 14.15 19.45 14.5 L19.4 14.9 19.35 15.25 19.25 15.35 19.15 15.55 19.2 15.55 19.2 15.65 Q18.65 16.7 17.35 16.7 17.0 16.7 16.75 16.6 L16.75 15.7 16.8 15.7 Q17.25 15.5 17.5 15.35 17.4 15.65 17.2 15.95 16.9 16.3 16.9 16.35 16.9 16.55 16.95 16.45 17.3 16.45 17.55 16.1 17.7 15.85 17.7 15.7 L17.7 15.35 17.65 15.2 17.75 15.05 Q17.75 14.9 17.55 14.7 17.4 14.25 17.1 14.05 L17.85 13.7 Q18.05 13.6 18.45 13.6 18.65 13.6 18.75 13.8 L18.9 14.05 18.95 14.05 Q19.0 13.55 18.75 13.4 M5.35 9.2 Q5.95 9.7 6.05 9.7 6.1 9.7 6.35 9.5 L6.4 9.5 6.4 9.55 6.45 9.95 Q6.45 10.2 6.75 10.8 7.15 11.6 7.6 11.65 7.7 11.65 7.7 11.6 L7.7 11.5 7.9 11.6 Q8.1 12.35 8.2 12.6 8.35 12.9 8.55 13.05 L8.45 13.1 8.4 13.05 Q7.9 12.5 7.45 12.2 7.2 12.05 6.95 11.95 L6.8 11.9 6.25 11.3 4.95 11.45 Q5.6 11.1 5.7 10.85 L5.5 10.75 Q5.55 10.7 5.55 10.6 L5.35 10.15 5.3 10.1 5.3 10.05 Q5.3 9.85 5.35 9.2 M1.25 13.85 L1.3 13.5 1.7 13.55 2.2 13.5 Q1.65 13.65 1.25 13.85" fill="#c88f44" fill-rule="evenodd" stroke="none"/>
    <path d="M6.8 11.9 Q5.95 11.65 5.6 12.85 L5.65 12.9 5.8 12.75 5.95 12.65 6.35 12.5 Q6.7 12.35 6.9 12.35 7.3 12.35 7.8 13.0 L7.95 13.2 Q7.75 13.4 7.3 13.9 6.95 14.3 6.9 14.3 L6.2 14.1 4.25 14.8 Q3.7 14.8 3.1 14.35 L2.6 14.05 Q2.65 13.6 2.75 13.35 2.8 13.1 3.1 12.7 3.05 12.8 3.05 12.95 L3.05 13.25 Q3.15 13.5 3.65 13.5 4.3 13.5 4.6 13.0 4.75 12.7 4.75 12.3 4.75 12.0 4.45 11.9 4.25 11.85 3.9 12.0 3.45 12.15 3.25 12.4 3.5 12.05 4.55 11.6 L4.95 11.45 6.25 11.3 6.8 11.9" fill="#d7995b" fill-rule="evenodd" stroke="none"/>
    <path d="M7.95 13.2 Q8.25 13.6 8.25 13.75 8.25 13.95 8.1 14.3 7.9 14.85 7.55 14.85 L7.3 14.9 7.25 14.9 7.0 14.95 6.05 14.95 7.0 15.3 6.55 15.6 6.5 15.6 6.3 15.55 5.25 15.8 5.15 15.85 Q3.85 15.85 3.15 15.3 2.6 14.85 2.6 14.2 L2.6 14.05 3.1 14.35 Q3.7 14.8 4.25 14.8 L6.2 14.1 6.9 14.3 Q6.95 14.3 7.3 13.9 7.75 13.4 7.95 13.2" fill="#d76b3e" fill-rule="evenodd" stroke="none"/>
    <path d="M3.1 12.7 L3.1 12.65 3.25 12.4 Q3.45 12.15 3.9 12.0 4.25 11.85 4.45 11.9 4.75 12.0 4.75 12.3 4.75 12.7 4.6 13.0 4.3 13.5 3.65 13.5 3.15 13.5 3.05 13.25 L3.05 12.95 Q3.05 12.8 3.1 12.7" fill="#e8c19b" fill-rule="evenodd" stroke="none"/>
    <path d="M0.45 14.25 L0.45 14.2 0.55 13.85 0.55 13.7 0.45 13.7 0.45 13.75 0.4 13.8 0.35 13.9 0.25 13.45 0.45 13.2 0.85 13.4 Q0.8 13.6 0.8 13.9 L0.8 14.2 0.5 14.6 0.45 14.25" fill="#b5ad82" fill-rule="evenodd" stroke="none"/>
    <path d="M14.7 5.95 Q15.3 5.55 16.0 5.25 18.7 4.1 20.25 4.95 18.75 4.95 18.0 5.25 17.6 5.4 16.95 5.8 L16.9 5.8 Q20.0 5.75 21.4 6.0 L24.1 6.65 24.15 6.7 Q22.55 5.95 21.35 5.35 L22.05 5.5 22.7 5.65 Q25.25 6.25 26.7 6.65 L27.0 7.1 27.0 7.15 Q27.2 7.5 27.3 7.85 L27.35 8.0 27.4 8.05 25.75 8.05 24.3 8.0 24.15 7.95 Q22.6 7.85 22.0 7.65 L21.95 7.6 21.35 7.4 21.25 7.35 21.15 7.3 20.9 7.25 20.8 7.2 20.3 7.0 20.45 7.1 20.5 7.15 21.2 7.65 21.25 7.65 21.3 7.7 Q20.45 7.65 19.45 7.65 L18.15 7.7 Q20.0 7.85 21.9 8.7 L24.8 9.6 Q25.4 10.15 25.75 10.8 24.25 10.35 21.65 9.55 L21.45 9.6 21.4 9.6 21.35 9.65 21.4 9.85 Q21.75 10.25 22.45 10.9 L22.65 11.05 22.65 11.1 Q22.25 10.85 21.85 10.65 21.2 10.35 20.5 10.2 20.8 10.4 21.1 10.55 L21.3 10.75 Q22.05 11.3 22.75 12.1 L22.75 12.15 22.65 12.05 Q22.05 11.7 20.7 11.25 19.15 10.7 17.9 10.5 L17.85 10.5 17.75 10.2 Q17.5 9.7 17.15 9.1 L16.35 7.95 16.3 7.9 15.75 7.2 15.75 7.15 15.3 6.6 15.0 6.25 14.7 5.95 M18.05 11.85 L18.05 11.45 Q18.05 11.2 18.0 10.9 L18.15 11.0 Q19.1 11.5 19.4 11.75 19.2 11.9 18.95 11.95 L18.55 11.95 18.05 11.85 M7.05 9.35 Q7.2 9.45 7.35 9.65 7.5 9.75 7.6 9.95 7.65 10.1 7.75 10.15 8.0 10.35 9.35 10.35 11.25 10.35 13.1 11.85 L13.75 12.4 13.75 12.45 13.7 13.05 13.65 13.05 Q13.1 12.25 12.15 11.9 L11.15 11.55 Q10.45 11.3 9.9 11.05 L9.85 11.0 Q9.85 10.95 9.85 11.05 L11.5 12.3 11.35 12.3 Q10.5 12.25 9.8 12.05 9.45 11.95 8.85 11.7 8.3 11.35 7.8 11.15 L7.4 11.05 7.3 10.85 7.1 10.4 Q6.9 10.0 6.9 9.8 6.9 9.6 7.05 9.35 M13.6 11.85 Q12.05 10.25 10.1 10.0 11.15 8.8 13.7 10.65 L14.45 11.25 14.55 11.55 14.5 11.7 14.5 11.75 Q14.4 11.75 14.05 11.55 L13.75 11.35 13.7 11.35 Q13.0 10.3 11.4 10.0 L11.4 10.05 11.35 10.05 Q13.05 11.15 13.25 11.3 13.5 11.55 13.6 11.85 M14.55 12.9 L14.2 12.15 Q14.45 12.3 14.65 12.35 14.8 12.35 14.85 12.05 14.95 11.85 14.95 11.7 L14.9 11.6 14.95 11.65 15.0 11.75 Q15.35 12.25 15.6 12.55 L15.7 12.65 15.25 12.6 Q14.95 12.6 14.8 12.75 L14.55 12.9 M16.45 16.1 L16.45 16.15 16.35 16.4 16.2 16.25 16.15 16.3 16.1 16.3 15.45 15.45 15.5 15.5 15.5 15.25 15.45 14.4 15.35 14.05 15.15 13.65 Q15.5 14.05 15.75 14.55 16.2 15.6 16.45 16.1 M16.15 18.55 L16.1 18.75 Q15.65 18.45 15.15 18.05 L15.1 18.0 14.3 16.8 13.95 16.25 Q14.2 16.0 14.65 16.15 L15.15 16.85 Q15.7 17.65 16.15 18.45 L16.15 18.55 M0.85 6.8 Q2.1 6.8 3.35 7.75 4.25 8.35 4.85 9.3 L4.9 9.35 4.9 9.45 4.95 9.45 4.95 9.5 4.9 9.65 4.7 10.35 4.15 9.8 Q3.1 8.8 2.8 8.6 L2.25 8.6 Q2.05 8.5 1.9 8.5 L1.1 8.55 Q0.75 8.55 0.35 8.35 L0.2 8.3 0.2 8.25 0.4 8.25 Q1.5 8.3 2.55 8.25 L2.7 8.25 2.4 7.9 2.65 7.95 Q3.2 8.2 3.45 8.25 3.05 7.85 1.9 7.5 L1.85 7.45 1.8 7.45 Q0.8 7.15 0.4 7.45 L0.25 7.45 0.3 7.35 0.45 7.15 0.6 7.0 Q0.75 6.85 0.85 6.8 M7.0 15.3 L7.4 15.45 Q7.95 15.45 8.4 14.55 L8.45 14.55 8.45 14.5 8.65 14.1 8.65 14.45 8.7 15.15 8.6 15.45 Q8.5 15.7 8.5 15.8 8.5 16.15 10.0 17.8 L10.25 18.1 11.0 18.6 11.0 18.75 Q10.95 19.1 10.75 19.1 L9.5 18.3 Q8.55 17.7 8.25 17.15 L8.2 17.15 7.95 16.9 7.9 16.9 7.9 16.95 8.0 17.2 Q7.75 17.05 7.6 17.0 7.75 17.7 8.35 18.6 L8.1 18.45 8.05 18.45 8.05 18.4 7.9 18.25 7.5 17.45 7.65 17.95 7.4 17.7 Q6.9 17.2 6.75 16.8 L6.65 16.8 6.65 17.1 6.6 17.1 6.55 17.4 Q6.35 17.8 6.35 18.2 L6.35 18.25 6.2 18.7 5.85 18.95 Q5.05 20.5 4.25 20.3 L4.1 20.3 4.35 20.1 4.4 20.05 4.3 20.1 4.45 19.75 Q4.7 18.95 4.7 18.75 L4.65 17.9 Q4.55 17.4 4.15 17.5 4.0 17.55 3.9 17.6 L3.8 16.7 Q3.75 16.75 3.65 17.6 L3.6 18.25 Q3.45 18.35 3.25 18.65 3.1 18.75 2.95 19.1 2.8 19.45 2.8 19.7 L2.75 19.7 2.65 19.85 Q1.8 19.5 1.45 18.55 1.2 18.0 1.2 17.3 1.3 17.65 1.5 18.0 L1.6 18.25 1.65 18.55 Q2.1 19.3 2.55 19.65 L2.55 19.0 Q2.55 18.1 2.75 17.2 L2.6 16.85 Q2.55 16.55 2.45 16.05 L2.4 15.45 Q2.4 15.2 2.5 15.0 L2.5 15.05 2.75 15.35 2.95 15.55 Q3.7 16.35 4.65 16.45 L4.95 16.45 Q5.45 16.45 6.05 16.05 L6.6 15.65 6.55 15.6 7.0 15.3 M12.75 18.2 L12.65 18.55 Q11.9 18.45 11.55 17.9 L11.4 17.65 Q11.25 17.45 11.1 17.15 L11.05 17.2 Q10.95 16.95 10.85 16.7 L10.8 16.65 10.8 16.6 10.35 16.0 Q10.5 15.95 10.85 16.2 11.45 16.6 12.2 17.5 L12.75 18.2 M0.05 16.4 L0.05 16.7 0.35 17.95 0.3 18.0 Q0.15 18.0 -0.15 18.2 L-0.6 18.55 -0.6 18.5 -0.7 18.1 Q-0.55 17.7 -0.05 16.7 L0.05 16.4 M3.6 19.35 L3.6 19.75 Q3.65 20.45 3.9 20.7 L4.1 20.6 4.25 20.65 Q4.55 20.65 4.9 20.55 5.55 20.25 6.15 19.3 6.4 18.9 6.65 18.35 L6.8 17.9 6.85 17.8 7.85 18.55 Q8.55 19.0 9.05 19.15 L9.6 19.15 Q10.3 19.7 10.8 19.8 L11.15 19.95 11.15 19.8 Q11.3 19.75 11.35 19.15 L11.4 18.4 11.5 18.5 Q12.2 19.2 12.6 19.2 L12.8 19.1 Q12.9 19.05 12.9 18.9 L13.0 17.5 13.05 16.95 13.1 16.8 Q13.35 17.1 13.7 17.65 L15.15 19.85 15.1 20.0 Q14.95 19.95 14.45 19.7 L14.0 19.15 14.0 19.1 13.7 18.25 13.6 18.0 13.6 17.95 13.55 17.95 13.55 18.55 13.3 18.2 13.3 18.25 12.95 21.0 14.15 23.1 14.7 24.05 14.7 24.1 Q13.25 23.65 12.6 22.65 L12.15 21.9 12.05 21.7 Q11.9 21.45 11.7 21.25 L11.65 21.15 Q11.65 21.35 11.8 21.7 L11.65 21.5 11.65 21.55 11.9 22.2 Q11.55 21.8 11.55 22.5 11.55 22.75 12.05 24.0 12.25 24.4 12.4 24.75 L12.5 24.85 Q11.85 24.4 11.45 23.85 11.15 23.4 10.95 22.65 10.65 21.8 10.5 21.55 10.2 20.95 9.65 20.6 L9.65 20.65 9.6 20.75 Q9.6 20.9 9.9 21.6 10.15 22.35 10.15 22.9 10.15 23.8 10.1 24.0 10.0 24.35 9.9 24.7 L9.9 24.6 9.8 24.1 9.75 23.55 Q9.75 23.05 9.45 22.1 9.05 20.7 8.3 20.4 L8.25 20.45 Q8.8 21.1 9.2 22.6 9.5 23.6 9.6 24.4 L9.5 24.0 Q9.3 22.65 8.6 22.65 8.15 22.65 7.85 23.15 7.85 23.55 8.9 25.5 L9.3 26.25 Q9.2 26.55 9.2 26.65 L9.2 26.7 Q7.5 25.6 6.85 23.8 6.45 22.6 6.4 20.7 L6.35 20.7 6.3 22.05 6.3 22.15 6.25 22.4 Q6.2 23.1 5.8 24.0 L5.55 24.45 5.6 23.75 5.55 23.5 Q5.45 23.25 5.3 23.2 L4.85 24.25 Q4.8 24.5 4.8 25.1 L4.8 25.15 4.65 25.4 Q4.6 25.2 4.6 25.0 4.6 24.55 4.8 23.75 L5.0 22.9 5.0 22.2 4.95 21.9 4.9 21.9 4.85 22.4 4.6 23.35 Q4.45 23.8 4.1 24.15 L3.65 24.6 3.6 24.6 3.6 24.65 3.55 24.65 3.55 24.7 3.5 24.7 3.5 24.75 3.45 24.75 2.6 25.65 2.5 25.8 2.5 25.75 3.25 23.2 3.25 23.1 2.85 23.1 Q1.95 23.15 1.9 24.5 1.85 25.0 1.9 25.7 L1.8 25.3 Q1.65 24.55 1.65 24.25 1.65 23.95 1.9 22.9 2.2 21.85 2.2 21.5 2.2 21.25 2.05 20.95 L2.0 21.65 1.95 21.65 1.95 21.7 1.9 21.9 0.1 24.1 -0.05 24.25 0.55 22.95 0.95 22.2 Q1.2 21.25 1.5 20.35 L1.65 20.0 1.8 20.05 Q2.25 20.35 2.7 20.35 L2.85 20.3 2.95 20.3 Q3.15 20.3 3.15 19.95 L3.15 19.85 Q3.25 19.55 3.3 19.3 L3.5 19.1 3.5 19.15 3.55 19.3 3.55 19.35 3.6 19.35 M4.1 16.95 L4.05 16.9 4.0 17.0 Q4.05 17.0 4.1 16.95 M0.95 19.45 Q1.1 19.65 1.3 19.7 L1.5 19.85 0.45 20.65 0.5 20.6 0.6 20.4 0.6 20.35 Q0.55 20.25 0.35 20.25 0.15 20.25 -0.9 20.8 L-0.9 20.7 -0.3 20.25 Q0.4 19.75 0.95 19.45 M4.7 25.5 L4.8 25.25 Q4.8 25.55 4.8 25.6 L4.85 25.75 4.8 25.8 4.7 25.5" fill="#ada574" fill-rule="evenodd" stroke="none"/>
    <path d="M3.95 4.25 L4.25 3.85 4.3 3.85 Q4.8 3.25 5.3 3.05 5.4 3.0 5.55 2.95 L5.95 2.95 Q7.25 3.1 8.85 3.75 10.3 4.3 11.0 4.8 L9.05 4.2 7.3 3.65 7.3 3.6 Q6.1 3.65 4.1 4.2 L3.95 4.25 M16.15 8.4 Q16.6 9.1 16.85 9.65 L17.0 9.95 Q17.1 10.2 17.35 11.45 L17.5 12.05 17.05 12.15 17.0 12.15 Q16.7 11.8 15.9 10.9 15.15 9.95 14.6 8.85 L14.5 8.65 14.3 8.2 14.15 7.9 Q14.2 6.8 15.2 8.25 L15.45 8.6 15.85 8.65 Q15.95 8.5 16.0 8.2 L16.15 8.4 M14.5 9.2 L14.7 9.65 14.8 9.65 14.75 9.75 14.85 9.95 15.1 10.35 15.9 11.55 16.0 11.65 16.0 11.7 16.5 12.4 Q16.4 12.45 16.3 12.5 16.2 12.35 16.0 12.15 L15.95 11.95 15.9 11.95 15.9 12.05 15.65 11.9 14.85 11.4 14.6 10.8 14.55 10.75 Q14.15 9.7 12.75 9.3 L12.9 9.3 13.2 9.4 14.05 9.75 14.45 9.3 14.5 9.2 M18.75 17.75 L18.75 17.7 18.65 17.6 18.65 17.55 Q18.65 17.45 18.55 17.25 L18.45 17.15 18.5 17.0 Q18.75 16.8 19.0 16.55 L19.4 16.6 Q20.2 16.55 20.5 16.75 20.7 16.9 21.0 17.25 L21.35 17.75 Q20.8 17.8 20.4 18.15 L20.05 18.6 Q19.55 18.4 18.9 17.85 L18.75 17.75 M20.6 20.5 Q20.5 20.55 20.4 20.55 L19.55 20.45 Q19.5 20.05 18.85 19.05 18.35 18.3 18.05 18.05 L18.0 17.9 18.05 17.85 18.25 17.55 18.3 17.4 18.75 17.85 19.5 19.25 Q19.65 19.55 20.6 20.5 M17.65 18.2 L18.0 18.55 Q18.5 19.1 18.6 19.45 L18.7 19.65 18.5 19.85 18.3 20.2 17.75 20.2 16.95 19.9 Q17.0 19.75 17.25 19.3 17.4 18.95 17.4 18.7 17.4 18.5 17.25 18.35 17.45 18.35 17.65 18.2 M16.8 17.4 L16.8 17.35 17.1 17.35 17.8 17.3 Q17.5 17.8 17.2 17.8 L16.75 17.8 16.8 17.4" fill="#1d2d34" fill-rule="evenodd" stroke="none"/>
    <path d="M7.25 5.3 Q7.15 5.4 6.95 5.4 6.65 5.4 6.6 5.25 L6.55 5.05 Q6.55 4.65 6.95 4.65 7.35 4.6 7.35 5.0 7.35 5.15 7.25 5.3 M6.15 4.8 Q5.95 5.1 5.95 5.2 5.95 5.55 6.1 5.7 6.35 6.0 7.0 6.0 7.3 6.0 7.75 5.35 8.2 4.65 8.4 4.65 8.75 4.65 9.05 5.05 L9.2 5.25 Q9.45 5.45 9.45 5.75 9.45 5.85 9.3 5.95 L9.05 6.2 Q9.0 6.15 8.75 5.75 L8.55 5.45 8.1 6.1 Q7.6 6.7 7.2 6.7 6.1 6.7 5.75 5.85 5.5 5.25 5.6 4.8 L5.6 4.75 Q5.55 4.7 5.45 4.7 5.3 4.7 5.15 4.8 L4.9 4.9 4.8 4.9 Q4.75 4.9 4.75 4.8 4.75 4.4 5.55 4.15 6.3 3.95 6.3 4.45 L6.15 4.8" fill="#829d42" fill-rule="evenodd" stroke="none"/>
    <path d="M26.0 5.9 L25.55 5.35 25.8 5.55 25.8 5.6 26.15 5.95 26.0 5.9" fill="#705a5a" fill-rule="evenodd" stroke="none"/>
    <path d="M9.5 2.65 Q8.85 2.45 8.15 2.3 L6.9 2.35 Q7.2 2.1 7.35 1.75 7.5 1.55 7.65 1.05 7.8 0.6 7.9 0.4 8.5 -0.6 8.9 -1.2 9.7 -2.25 10.45 -2.25 L10.6 -2.2 10.6 -2.15 9.65 -0.6 Q9.3 -0.25 9.1 0.05 9.2 0.0 9.35 -0.1 L9.4 -0.1 Q9.7 -0.3 10.15 -0.6 L11.7 -1.75 Q14.1 -3.35 16.0 -3.35 L16.95 -3.25 17.0 -3.25 Q15.15 -2.6 13.9 -1.85 12.15 -0.9 12.15 -0.1 L12.2 -0.1 Q12.55 -0.55 13.8 -1.15 L15.0 -1.15 Q15.75 -1.3 16.95 -1.45 L18.65 -1.6 Q20.85 -1.6 22.2 -0.75 L22.55 -0.5 22.5 -0.5 Q20.2 -0.95 18.55 -0.5 16.95 -0.1 15.4 0.65 13.6 1.5 12.65 2.4 L12.7 2.4 Q13.6 1.85 16.4 1.15 18.1 0.75 18.9 0.6 20.45 0.8 21.45 1.05 23.6 1.55 24.9 2.95 25.3 3.35 25.55 3.8 L25.35 3.7 Q23.55 2.55 21.8 2.2 19.75 1.75 18.2 2.55 20.4 2.5 22.1 3.2 L22.35 3.3 22.2 3.3 22.2 3.35 22.15 3.4 Q24.2 4.15 25.55 5.35 L26.0 5.9 Q24.9 5.3 24.1 5.3 23.45 5.3 22.85 5.05 22.6 5.0 21.8 4.6 L21.55 4.45 21.7 4.45 22.9 4.55 23.65 4.7 Q22.1 4.0 20.35 3.85 18.75 3.65 17.4 4.0 16.35 4.15 15.35 4.6 16.1 4.0 17.0 3.75 L19.75 3.15 17.7 3.0 Q15.85 3.0 13.9 4.55 L13.6 4.85 12.85 4.3 Q13.7 3.45 14.5 2.85 13.45 3.05 12.2 3.85 11.35 3.3 10.35 2.95 10.75 1.85 11.3 0.9 L11.3 0.85 Q10.35 1.65 9.75 2.35 L9.5 2.65 M7.7 -0.1 L7.85 -0.25 Q7.1 2.3 6.45 2.3 L6.35 2.3 Q6.5 2.15 6.6 1.9 L6.85 0.95 Q7.05 0.45 7.7 -0.1" fill="#9c9183" fill-rule="evenodd" stroke="none"/>
    <path d="M9.5 2.65 L9.75 2.35 Q10.35 1.65 11.3 0.85 L11.3 0.9 Q10.75 1.85 10.35 2.95 L9.5 2.65 M22.35 3.3 L22.1 3.2 Q20.4 2.5 18.2 2.55 19.75 1.75 21.8 2.2 23.55 2.55 25.35 3.7 L25.55 3.8 25.55 3.85 Q25.8 4.2 25.95 4.65 L26.25 5.55 26.05 5.35 Q23.85 3.3 22.35 3.3 M18.9 0.6 Q18.1 0.75 16.4 1.15 13.6 1.85 12.7 2.4 L12.65 2.4 Q13.6 1.5 15.4 0.65 16.95 -0.1 18.55 -0.5 20.2 -0.95 22.5 -0.5 L22.55 -0.5 22.6 -0.45 Q22.85 -0.2 23.05 0.0 23.2 0.25 23.3 0.45 L23.3 0.5 23.35 0.5 23.35 0.55 Q22.05 0.55 21.25 0.6 19.65 0.2 18.35 0.55 L18.9 0.6 M13.8 -1.15 Q12.55 -0.55 12.2 -0.1 L12.15 -0.1 Q12.15 -0.9 13.9 -1.85 15.15 -2.6 17.0 -3.25 L17.05 -3.2 17.25 -3.05 17.3 -3.05 17.3 -3.0 Q16.6 -2.65 15.0 -1.95 L13.65 -1.35 Q13.65 -1.2 13.7 -1.2 L13.8 -1.15 M22.65 11.1 L23.6 11.9 Q24.95 13.15 24.95 13.9 24.95 14.1 24.9 13.95 24.7 13.85 23.95 13.75 L23.9 13.75 23.0 13.55 21.95 13.4 Q21.7 13.4 21.25 13.15 20.85 12.85 20.45 12.85 L20.45 13.0 Q20.85 13.25 21.85 13.65 22.65 13.95 23.25 14.1 L23.6 14.2 23.3 14.3 Q22.6 14.5 22.05 14.5 21.2 14.5 20.0 14.25 L19.95 14.2 Q19.95 14.15 19.95 14.3 19.95 14.35 20.9 14.65 L21.35 14.75 21.9 15.05 22.5 15.3 22.3 15.3 21.6 15.35 20.95 15.4 20.2 15.35 19.8 15.25 19.85 14.95 Q19.85 14.25 19.8 13.9 19.65 13.25 19.15 12.75 18.65 12.15 18.05 12.05 L18.05 11.85 18.55 11.95 18.95 11.95 Q19.2 11.9 19.4 11.75 19.1 11.5 18.15 11.0 L18.0 10.9 17.85 10.5 17.9 10.5 Q19.15 10.7 20.7 11.25 22.05 11.7 22.65 12.05 L22.75 12.15 22.75 12.1 Q22.05 11.3 21.3 10.75 L21.1 10.55 Q20.8 10.4 20.5 10.2 21.2 10.35 21.85 10.65 22.25 10.85 22.65 11.1" fill="#786161" fill-rule="evenodd" stroke="none"/>
  </g>
</svg>
