<?xml version="1.0" encoding="UTF-8" standalone="no"?>
<svg xmlns:ffdec="https://www.free-decompiler.com/flash" xmlns:xlink="http://www.w3.org/1999/xlink" ffdec:objectType="shape" height="21.25px" width="12.3px" xmlns="http://www.w3.org/2000/svg">
  <g transform="matrix(1.0, 0.0, 0.0, 1.0, 0.6, 0.3)">
    <path d="M6.3 -0.3 Q6.75 -0.15 6.85 0.35 L6.85 0.75 6.8 0.85 Q6.8 0.95 6.7 1.1 6.85 1.6 6.8 2.25 6.75 2.45 6.4 2.7 6.65 2.9 7.0 3.2 7.1 3.3 7.8 3.6 8.05 3.75 8.2 3.85 L8.5 3.9 Q9.0 3.85 9.25 3.45 L9.4 3.1 Q9.5 2.9 9.55 2.8 10.05 2.45 10.6 3.5 10.7 4.05 10.5 4.55 10.25 5.2 9.65 5.4 9.5 5.6 9.1 5.75 L8.9 5.85 8.65 6.1 9.25 7.9 Q9.55 8.65 10.05 9.2 L10.3 9.45 10.5 9.35 10.8 9.4 11.15 9.4 Q11.2 9.4 11.4 9.2 11.65 9.1 11.7 9.45 11.75 10.05 11.6 10.55 11.45 11.25 10.9 11.5 L10.6 11.95 Q10.1 12.6 9.6 13.4 L9.25 14.1 Q8.75 15.0 8.3 15.65 L8.3 15.7 Q7.9 16.25 7.5 16.6 L7.4 16.7 Q7.5 17.7 6.95 18.05 L6.5 19.1 5.8 20.9 5.7 20.9 5.6 20.95 Q5.55 20.95 4.8 19.15 L4.35 18.1 Q3.8 17.75 3.85 16.8 L3.75 16.7 Q3.35 16.35 2.95 15.8 2.45 15.15 1.95 14.25 L1.55 13.55 Q1.05 12.75 0.55 12.1 L0.2 11.7 Q-0.3 11.45 -0.5 10.75 -0.65 10.25 -0.6 9.65 -0.55 9.3 -0.35 9.4 L-0.05 9.6 0.25 9.55 0.6 9.55 0.75 9.6 1.0 9.35 Q1.5 8.8 1.75 8.0 L2.05 7.15 2.35 6.2 2.1 5.95 1.9 5.9 Q1.45 5.7 1.35 5.55 0.7 5.35 0.45 4.75 0.25 4.25 0.3 3.65 0.85 2.6 1.35 2.95 1.45 3.05 1.5 3.25 L1.65 3.6 Q1.9 3.95 2.45 4.05 L2.7 3.95 Q2.85 3.85 3.1 3.7 3.8 3.4 3.95 3.3 L4.4 2.85 Q4.15 2.6 4.0 2.15 3.85 1.6 3.9 1.2 3.9 1.05 3.95 0.95 3.85 0.85 3.8 0.7 L3.8 0.65 3.7 0.35 Q3.7 0.0 3.9 -0.1 4.15 -0.2 4.6 0.2 5.05 0.0 5.55 0.05 L5.7 0.1 Q5.7 -0.15 5.9 -0.25 6.05 -0.35 6.3 -0.3 M8.9 4.7 L8.95 4.75 Q9.15 4.95 9.3 5.0 L9.5 5.0 Q9.95 4.9 10.2 4.4 10.3 4.15 10.3 3.95 L10.3 3.75 Q10.25 3.7 10.1 3.45 L10.05 3.45 9.85 3.2 9.25 3.85 Q8.7 4.4 8.7 4.5 L8.9 4.7 M6.3 0.55 L6.2 0.6 Q5.8 0.85 5.8 1.05 5.75 1.15 5.8 1.2 L5.8 1.25 5.85 1.3 6.0 1.3 Q6.05 1.3 6.25 1.1 L6.3 1.1 Q6.2 0.95 6.25 0.9 6.35 0.75 6.35 0.7 L6.3 0.55 M6.1 2.2 L6.2 2.05 Q6.25 1.7 6.2 1.45 5.85 1.6 5.45 1.4 L5.4 1.6 5.3 1.8 5.25 1.8 Q5.35 2.05 5.65 2.15 L6.0 2.3 6.1 2.2 M6.75 6.35 L6.75 6.45 Q6.65 6.65 6.65 6.7 L6.65 6.8 6.7 6.8 Q6.95 6.7 7.75 6.0 L8.2 5.55 8.75 5.25 8.6 5.1 8.6 5.0 Q8.55 4.85 8.4 4.9 8.3 4.75 8.3 4.65 L8.15 4.5 8.1 4.5 Q8.05 4.5 6.7 3.6 L5.9 3.0 5.45 3.1 Q5.2 3.15 4.95 3.1 L4.5 3.45 4.2 3.65 Q2.9 4.6 2.8 4.6 L2.65 4.75 Q2.65 4.9 2.35 5.25 L2.3 5.3 2.2 5.35 2.45 5.5 4.2 6.65 Q4.3 6.65 4.35 6.6 4.3 6.5 4.35 6.5 L4.25 6.3 Q4.15 5.65 4.2 5.5 4.25 5.1 4.95 4.55 5.2 4.4 5.35 4.35 L5.35 4.3 Q5.4 4.25 5.55 4.3 L5.65 4.3 5.95 4.5 Q6.7 5.0 6.75 5.4 6.8 5.6 6.75 6.35 M4.8 6.7 L4.9 6.8 4.95 6.8 Q5.05 7.1 5.3 7.15 5.65 7.2 5.95 6.95 L6.1 6.85 Q6.2 6.7 6.2 6.6 L6.25 6.5 6.3 6.45 Q6.55 6.0 6.5 5.65 6.45 5.3 5.9 5.0 L5.5 4.75 Q5.35 4.9 5.05 5.05 4.55 5.35 4.5 5.7 L4.5 5.85 Q4.5 6.2 4.75 6.55 L4.8 6.7 M7.95 6.35 L7.95 6.4 Q8.0 6.75 8.1 7.25 L8.25 7.75 Q8.3 8.1 8.5 8.55 8.65 9.0 8.7 9.25 8.75 9.4 9.0 10.05 L9.3 10.75 9.3 10.85 9.6 10.65 Q10.05 10.25 10.0 9.95 L9.55 9.35 Q9.0 8.7 8.85 7.95 L8.55 7.0 8.2 6.1 7.95 6.35 M7.5 6.75 Q6.85 7.25 6.55 7.25 L6.4 7.9 Q6.2 8.95 6.3 9.6 L6.45 10.35 6.65 11.1 Q6.7 11.4 6.95 11.7 L7.2 11.95 Q7.55 11.75 8.2 11.45 L8.8 11.15 Q8.85 11.05 8.85 10.95 8.8 10.8 8.65 10.45 8.45 10.1 8.4 9.8 8.3 9.05 8.05 8.1 L7.75 7.2 Q7.75 6.95 7.5 6.75 M5.2 1.05 L5.4 0.85 5.6 0.6 Q5.5 0.55 5.4 0.55 5.0 0.4 4.65 0.65 L4.45 0.8 Q4.3 1.05 4.25 1.4 4.25 1.55 4.25 1.7 L4.35 1.95 4.35 2.0 Q4.55 2.4 5.05 2.5 L5.3 2.45 Q5.2 2.3 5.15 2.1 5.1 1.9 5.1 1.7 L5.1 1.5 Q5.05 1.35 5.05 1.25 5.05 1.2 5.2 1.05 M1.95 4.95 L2.0 4.9 2.25 4.6 Q2.25 4.55 1.7 4.0 L1.05 3.35 0.9 3.55 0.85 3.6 0.7 3.8 0.65 3.85 0.65 3.95 Q0.6 4.2 0.75 4.6 1.0 5.05 1.5 5.15 L1.6 5.1 Q1.75 5.1 1.9 5.0 L1.95 4.95 M3.5 6.85 Q3.25 7.05 3.25 7.3 L3.0 8.25 Q2.75 9.15 2.65 9.9 2.65 10.25 2.45 10.55 2.3 10.9 2.25 11.05 2.25 11.15 2.35 11.3 2.6 11.4 2.9 11.55 L3.95 12.0 4.15 11.75 Q4.4 11.45 4.45 11.15 L4.6 10.4 4.8 9.65 Q4.9 9.0 4.65 7.95 L4.45 7.35 Q4.15 7.3 3.55 6.8 L3.5 6.85 M2.8 7.7 L2.85 7.65 2.9 7.4 2.9 7.35 3.05 6.5 3.05 6.45 2.95 6.35 2.75 6.25 2.5 7.1 2.3 7.6 2.15 8.1 Q2.05 8.8 1.55 9.5 L1.05 10.1 Q1.05 10.4 1.5 10.75 L1.7 10.9 1.75 10.95 1.8 10.95 1.8 10.9 1.8 10.85 2.1 10.15 Q2.35 9.55 2.35 9.4 2.4 9.15 2.6 8.65 2.75 8.2 2.8 7.85 L2.8 7.75 2.8 7.7 M5.2 7.55 L5.1 7.55 5.05 7.5 5.05 8.0 4.9 9.65 4.75 11.25 Q4.5 11.7 4.5 12.05 L4.55 12.0 Q4.95 11.75 5.1 11.35 L5.2 11.15 5.3 11.15 Q5.45 11.05 5.55 11.0 L5.65 11.0 5.7 11.0 Q6.15 11.65 6.55 11.85 L6.5 11.6 6.5 11.55 Q6.45 11.2 6.35 10.9 L6.35 10.85 6.3 10.8 6.15 9.6 6.05 8.5 Q6.0 8.1 6.0 7.5 L6.0 7.45 5.9 7.5 5.55 7.5 5.2 7.55 M5.15 13.4 Q4.85 13.3 4.4 12.75 3.2 12.55 1.85 11.45 L1.2 10.9 1.2 11.2 1.15 11.45 1.05 11.6 1.05 11.7 0.95 11.75 1.0 11.75 1.6 12.75 2.0 13.55 2.15 13.95 Q2.55 14.5 2.95 14.95 3.45 15.6 4.05 16.1 L4.6 16.55 4.85 16.65 4.9 16.65 4.95 16.6 5.05 16.6 Q5.3 16.65 5.45 16.3 L5.55 15.9 Q5.6 15.65 5.55 15.15 L5.5 14.5 5.5 14.1 5.45 13.75 Q5.4 13.55 5.3 13.5 L5.3 13.45 5.2 13.45 5.15 13.45 5.15 13.4 M-0.2 10.55 L-0.15 10.7 Q0.0 10.9 0.2 11.05 L0.25 11.05 Q0.4 11.05 0.6 11.3 L0.65 11.3 0.7 11.3 0.7 11.2 0.75 11.0 Q0.7 10.65 0.55 10.35 0.3 9.9 -0.25 9.75 L-0.25 9.9 Q-0.3 10.25 -0.2 10.55 M6.05 11.85 L5.95 11.75 Q5.7 11.45 5.65 11.35 L5.6 11.35 5.45 11.45 5.2 11.8 Q4.85 12.15 4.85 12.25 L4.85 12.45 4.9 12.45 4.95 12.55 5.0 12.7 Q5.05 12.85 5.15 12.95 5.25 13.1 5.45 13.1 5.85 13.15 6.05 12.95 L6.1 12.85 Q6.3 12.7 6.3 12.45 L6.3 12.2 Q6.3 12.1 6.05 11.85 M5.7 13.7 L5.7 13.75 Q5.65 13.9 5.7 14.1 L5.65 14.15 5.65 15.35 Q5.7 16.45 6.05 16.55 L6.1 16.65 6.45 16.65 6.4 16.6 6.65 16.5 7.2 16.0 Q7.75 15.5 8.25 14.85 L9.0 13.8 9.2 13.4 Q9.45 12.85 9.65 12.4 L10.15 11.55 10.1 11.5 Q9.95 11.4 9.9 11.1 L9.9 11.05 Q9.9 10.9 9.9 10.75 L9.3 11.35 Q7.95 12.45 6.75 12.7 6.25 13.35 5.9 13.4 L5.9 13.55 5.8 13.55 5.7 13.7 M11.35 9.75 L11.3 9.6 Q10.8 9.7 10.55 10.2 L10.5 10.25 Q10.45 10.4 10.4 10.55 10.35 10.7 10.4 10.9 L10.4 11.0 Q10.4 11.1 10.4 11.15 L10.45 11.1 10.5 11.1 Q10.75 10.85 10.85 10.9 11.15 10.7 11.25 10.4 11.4 10.1 11.35 9.75 M5.8 17.2 L5.5 17.25 5.4 17.25 4.85 17.2 4.8 17.2 4.5 17.1 4.45 17.1 4.4 17.15 Q4.4 17.35 4.55 17.55 L4.6 17.6 4.75 17.85 Q4.95 18.05 5.1 18.1 6.35 18.25 6.55 17.7 6.65 17.65 6.75 17.5 6.9 17.25 6.85 17.05 L6.85 17.0 6.75 17.05 6.5 17.15 6.45 17.15 5.8 17.2 M6.2 18.95 L6.25 18.55 6.3 18.25 5.9 18.3 5.8 18.35 5.0 18.3 5.05 18.6 5.15 19.0 Q5.2 19.4 5.55 20.05 L5.7 20.35 5.85 20.0 Q6.15 19.35 6.2 18.95" fill="#111111" fill-rule="evenodd" stroke="none"/>
    <path d="M5.35 4.3 L5.35 4.35 Q5.2 4.4 4.95 4.55 4.25 5.1 4.2 5.5 4.15 5.65 4.25 6.3 L3.6 5.9 2.35 5.25 Q2.65 4.9 2.65 4.75 L2.8 4.6 Q2.9 4.6 4.2 3.65 L4.5 3.45 Q4.65 3.55 4.9 3.6 5.1 3.65 5.35 3.55 L5.35 3.6 Q5.35 4.0 5.35 4.3 M2.65 7.7 L2.7 7.75 2.55 8.25 2.3 9.0 Q2.2 9.55 2.1 9.85 2.05 9.75 2.0 9.8 2.0 9.9 1.75 10.4 L1.5 10.75 Q1.05 10.4 1.05 10.1 L1.55 9.5 Q2.05 8.8 2.15 8.1 L2.3 7.6 Q2.45 7.7 2.6 7.7 L2.65 7.7 M1.75 10.95 L1.8 10.9 1.8 10.95 1.75 10.95 M5.65 11.0 L5.55 11.0 Q5.45 11.05 5.3 11.15 L5.2 11.15 5.1 11.35 Q4.95 11.75 4.55 12.0 L4.75 11.45 Q5.2 10.0 5.25 9.6 5.3 9.25 5.25 8.4 L5.25 8.25 5.2 8.2 5.25 8.2 5.25 8.25 Q5.5 8.45 5.5 8.6 5.55 8.85 5.6 9.35 L5.65 10.1 5.65 11.0 M5.2 13.45 L5.3 13.45 5.2 13.45" fill="#544242" fill-rule="evenodd" stroke="none"/>
    <path d="M8.9 4.7 L9.4 4.25 Q9.75 3.9 10.05 3.45 L10.1 3.45 Q10.25 3.7 10.3 3.75 L10.3 3.95 9.65 4.55 9.25 4.95 9.3 5.0 Q9.15 4.95 8.95 4.75 L8.9 4.7 M6.1 6.85 L5.95 6.65 Q5.5 6.05 5.5 5.95 L5.55 5.8 5.55 5.7 Q5.2 5.9 4.9 6.5 L4.8 6.7 4.75 6.55 Q4.5 6.2 4.5 5.85 L4.85 5.6 5.4 5.25 6.05 6.15 6.3 6.45 6.25 6.5 6.2 6.6 Q6.2 6.7 6.1 6.85 M4.45 0.8 L4.6 0.8 Q5.1 0.9 5.2 1.05 5.05 1.2 5.05 1.25 5.05 1.35 5.1 1.5 L5.1 1.7 Q4.95 1.85 4.75 1.85 L4.25 1.7 Q4.25 1.55 4.25 1.4 4.3 1.05 4.45 0.8 M1.95 4.95 L1.9 5.0 Q1.3 4.95 0.95 4.3 0.75 4.0 0.7 3.75 L0.7 3.8 0.85 3.6 0.9 3.55 Q1.05 3.85 1.25 4.15 1.6 4.65 1.95 4.95 M0.65 11.3 L0.7 11.15 0.6 11.0 Q0.55 10.8 0.4 10.8 0.05 10.75 -0.1 10.6 L-0.2 10.55 Q-0.3 10.25 -0.25 9.9 L0.1 10.3 0.75 11.0 0.7 11.2 0.7 11.3 0.65 11.3 M6.05 11.85 Q6.3 12.1 6.3 12.2 L6.3 12.45 Q6.3 12.7 6.1 12.85 L6.05 12.95 6.05 12.8 Q5.9 12.4 5.7 12.15 5.5 12.2 5.3 12.6 5.2 12.75 5.15 12.95 5.05 12.85 5.0 12.7 L4.95 12.55 4.9 12.45 5.25 12.15 5.7 11.75 Q5.9 11.75 6.05 11.85 M10.4 10.55 L10.8 10.2 11.35 9.75 Q11.4 10.1 11.25 10.4 L11.1 10.5 Q10.55 10.75 10.4 10.9 10.35 10.7 10.4 10.55" fill="#937f7f" fill-rule="evenodd" stroke="none"/>
    <path d="M9.3 5.0 L9.25 4.95 9.65 4.55 10.3 3.95 Q10.3 4.15 10.2 4.4 9.95 4.9 9.5 5.0 L9.3 5.0 M8.6 5.0 L8.6 5.1 8.75 5.25 8.2 5.55 7.75 6.0 Q6.95 6.7 6.7 6.8 L6.65 6.8 6.65 6.7 Q6.65 6.65 6.75 6.45 L6.75 6.35 7.05 6.15 8.05 5.5 8.6 5.0 M4.25 6.3 L4.35 6.5 Q4.3 6.5 4.35 6.6 4.3 6.65 4.2 6.65 L2.45 5.5 2.2 5.35 2.3 5.3 2.35 5.25 3.6 5.9 4.25 6.3 M4.8 6.7 L4.9 6.5 Q5.2 5.9 5.55 5.7 L5.55 5.8 5.5 5.95 Q5.5 6.05 5.95 6.65 L6.1 6.85 5.95 6.95 Q5.65 7.2 5.3 7.15 5.05 7.1 4.95 6.8 L4.9 6.8 4.8 6.7 M9.6 10.65 L9.3 10.85 9.3 10.75 9.0 10.05 Q8.75 9.4 8.7 9.25 8.65 9.0 8.5 8.55 8.3 8.1 8.25 7.75 L8.1 7.25 Q8.0 6.75 7.95 6.4 L7.95 6.35 Q8.25 6.8 8.45 7.5 L8.85 9.0 Q9.05 9.6 9.6 10.65 M1.9 5.0 Q1.75 5.1 1.6 5.1 L1.5 5.15 Q1.0 5.05 0.75 4.6 0.6 4.2 0.65 3.95 L0.65 3.85 0.7 3.8 0.7 3.75 Q0.75 4.0 0.95 4.3 1.3 4.95 1.9 5.0 M2.95 6.35 L3.05 6.45 3.05 6.5 2.9 7.35 2.9 7.4 2.85 7.65 2.8 7.7 2.8 7.75 2.8 7.85 Q2.75 8.2 2.6 8.65 2.4 9.15 2.35 9.4 2.35 9.55 2.1 10.15 L1.8 10.85 1.8 10.9 1.75 10.95 1.7 10.9 1.5 10.75 1.75 10.4 Q2.0 9.9 2.0 9.8 2.05 9.75 2.1 9.85 2.2 9.55 2.3 9.0 L2.55 8.25 2.7 7.75 2.65 7.7 2.65 7.65 Q2.65 7.55 2.75 7.4 L2.85 7.1 Q2.85 6.75 2.95 6.35 M4.55 12.0 L4.5 12.05 Q4.5 11.7 4.75 11.25 L4.9 9.65 5.05 8.0 5.05 7.5 5.1 7.55 5.2 7.55 Q5.3 7.9 5.25 8.2 L5.25 8.25 5.25 8.2 5.2 8.2 5.25 8.25 5.25 8.4 Q5.3 9.25 5.25 9.6 5.2 10.0 4.75 11.45 L4.55 12.0 M5.9 7.5 L6.0 7.45 6.0 7.5 Q6.0 8.1 6.05 8.5 L6.15 9.6 6.3 10.8 6.35 10.85 6.35 10.9 Q6.45 11.2 6.5 11.55 L6.5 11.6 Q6.25 10.95 6.1 10.35 6.05 10.2 5.95 9.15 5.85 8.0 5.85 7.85 L5.9 7.5 M1.15 11.45 L1.2 11.2 1.2 10.9 1.85 11.45 Q3.2 12.55 4.4 12.75 4.85 13.3 5.15 13.4 L5.0 13.35 Q4.3 13.1 3.05 12.75 2.95 12.65 1.55 11.65 L1.15 11.45 M0.75 11.0 L0.1 10.3 -0.25 9.9 -0.25 9.75 Q0.3 9.9 0.55 10.35 0.7 10.65 0.75 11.0 M4.9 12.45 L4.85 12.45 4.85 12.25 Q4.85 12.15 5.2 11.8 L5.45 11.45 5.6 11.35 5.65 11.35 Q5.7 11.45 5.95 11.75 L6.05 11.85 Q5.9 11.75 5.7 11.75 L5.25 12.15 4.9 12.45 M5.7 13.7 L5.8 13.55 5.9 13.55 5.9 13.4 Q6.25 13.35 6.75 12.7 7.95 12.45 9.3 11.35 L9.9 10.75 Q9.9 10.9 9.9 11.05 9.5 11.4 9.1 11.9 8.65 12.25 6.85 13.15 L5.7 13.7 M11.35 9.75 L10.8 10.2 10.4 10.55 Q10.45 10.4 10.5 10.25 L10.55 10.2 Q10.8 9.7 11.3 9.6 L11.35 9.75" fill="#e7e7b4" fill-rule="evenodd" stroke="none"/>
    <path d="M10.05 3.45 Q9.75 3.9 9.4 4.25 L8.9 4.7 8.7 4.5 Q8.7 4.4 9.25 3.85 L9.85 3.2 10.05 3.45 M6.1 2.2 L6.0 2.3 5.65 2.15 Q5.35 2.05 5.25 1.8 L5.3 1.8 5.4 1.6 5.45 1.4 Q5.85 1.6 6.2 1.45 6.25 1.7 6.2 2.05 L6.1 2.2 M6.3 0.55 L6.35 0.7 Q6.35 0.75 6.25 0.9 6.2 0.95 6.3 1.1 L6.25 1.1 Q6.05 1.3 6.0 1.3 L5.85 1.3 5.8 1.25 5.8 1.2 Q5.75 1.15 5.8 1.05 5.8 0.85 6.2 0.6 L6.3 0.55 M6.3 6.45 L6.05 6.15 5.4 5.25 4.85 5.6 4.5 5.85 4.5 5.7 Q4.55 5.35 5.05 5.05 5.35 4.9 5.5 4.75 L5.9 5.0 Q6.45 5.3 6.5 5.65 6.55 6.0 6.3 6.45 M4.45 0.8 L4.65 0.65 Q5.0 0.4 5.4 0.55 5.5 0.55 5.6 0.6 L5.4 0.85 5.2 1.05 Q5.1 0.9 4.6 0.8 L4.45 0.8 M5.1 1.7 Q5.1 1.9 5.15 2.1 5.2 2.3 5.3 2.45 L5.05 2.5 Q4.55 2.4 4.35 2.0 L4.35 1.95 4.25 1.7 4.75 1.85 Q4.95 1.85 5.1 1.7 M0.9 3.55 L1.05 3.35 1.7 4.0 Q2.25 4.55 2.25 4.6 L2.0 4.9 1.95 4.95 Q1.6 4.65 1.25 4.15 1.05 3.85 0.9 3.55 M-0.2 10.55 L-0.1 10.6 Q0.05 10.75 0.4 10.8 0.55 10.8 0.6 11.0 L0.7 11.15 0.65 11.3 0.6 11.3 Q0.4 11.05 0.25 11.05 L0.2 11.05 Q0.0 10.9 -0.15 10.7 L-0.2 10.55 M6.05 12.95 Q5.85 13.15 5.45 13.1 5.25 13.1 5.15 12.95 5.2 12.75 5.3 12.6 5.5 12.2 5.7 12.15 5.9 12.4 6.05 12.8 L6.05 12.95 M10.4 10.9 Q10.55 10.75 11.1 10.5 L11.25 10.4 Q11.15 10.7 10.85 10.9 10.75 10.85 10.5 11.1 L10.45 11.1 10.4 11.15 Q10.4 11.1 10.4 11.0 L10.4 10.9 M6.2 18.95 Q6.15 19.35 5.85 20.0 L5.7 20.35 5.55 20.05 Q5.2 19.4 5.15 19.0 L5.05 18.6 5.0 18.3 5.8 18.35 5.9 18.3 6.3 18.25 6.25 18.55 6.2 18.95 M5.8 17.2 L6.45 17.15 6.5 17.15 6.75 17.05 6.85 17.0 6.85 17.05 Q6.9 17.25 6.75 17.5 6.65 17.65 6.55 17.7 6.35 18.25 5.1 18.1 4.95 18.05 4.75 17.85 L4.6 17.6 4.55 17.55 Q4.4 17.35 4.4 17.15 L4.45 17.1 4.5 17.1 4.8 17.2 4.85 17.2 5.4 17.25 5.5 17.25 5.8 17.2" fill="#6d5858" fill-rule="evenodd" stroke="none"/>
    <path d="M8.6 5.0 L8.05 5.5 7.05 6.15 6.75 6.35 Q6.8 5.6 6.75 5.4 6.7 5.0 5.95 4.5 L5.65 4.3 5.55 4.3 Q5.4 4.25 5.35 4.3 5.35 4.0 5.35 3.6 L5.35 3.55 Q5.1 3.65 4.9 3.6 4.65 3.55 4.5 3.45 L4.95 3.1 Q5.2 3.15 5.45 3.1 L5.9 3.0 6.7 3.6 Q8.05 4.5 8.1 4.5 L8.15 4.5 8.3 4.65 Q8.3 4.75 8.4 4.9 8.55 4.85 8.6 5.0 M7.95 6.35 L8.2 6.1 8.55 7.0 8.85 7.95 Q9.0 8.7 9.55 9.35 L10.0 9.95 Q10.05 10.25 9.6 10.65 9.05 9.6 8.85 9.0 L8.45 7.5 Q8.25 6.8 7.95 6.35 M2.95 6.35 Q2.85 6.75 2.85 7.1 L2.75 7.4 Q2.65 7.55 2.65 7.65 L2.65 7.7 2.6 7.7 Q2.45 7.7 2.3 7.6 L2.5 7.1 2.75 6.25 2.95 6.35 M2.8 7.75 L2.8 7.7 2.8 7.75 M5.2 7.55 L5.55 7.5 5.9 7.5 5.85 7.85 Q5.85 8.0 5.95 9.15 6.05 10.2 6.1 10.35 6.25 10.95 6.5 11.6 L6.55 11.85 Q6.15 11.65 5.7 11.0 L5.65 11.0 5.65 10.1 5.6 9.35 Q5.55 8.85 5.5 8.6 5.5 8.45 5.25 8.25 L5.25 8.2 Q5.3 7.9 5.2 7.55 M1.15 11.45 L1.55 11.65 Q2.95 12.65 3.05 12.75 4.3 13.1 5.0 13.35 L5.15 13.4 5.15 13.45 5.2 13.45 5.3 13.45 5.3 13.5 Q5.4 13.55 5.45 13.75 L5.5 14.1 5.5 14.5 5.55 15.15 Q5.6 15.65 5.55 15.9 L5.45 16.3 Q5.3 16.65 5.05 16.6 L4.95 16.6 4.9 16.65 4.85 16.65 4.6 16.55 4.05 16.1 Q3.45 15.6 2.95 14.95 2.55 14.5 2.15 13.95 L2.0 13.55 1.6 12.75 1.0 11.75 0.95 11.75 1.05 11.7 1.05 11.6 1.15 11.45 M9.9 11.05 L9.9 11.1 Q9.95 11.4 10.1 11.5 L10.15 11.55 9.65 12.4 Q9.45 12.85 9.2 13.4 L9.0 13.8 8.25 14.85 Q7.75 15.5 7.2 16.0 L6.65 16.5 6.4 16.6 6.45 16.65 6.1 16.65 6.05 16.55 Q5.7 16.45 5.65 15.35 L5.65 14.15 5.7 14.1 Q5.65 13.9 5.7 13.75 L5.7 13.7 6.85 13.15 Q8.65 12.25 9.1 11.9 9.5 11.4 9.9 11.05" fill="#432f2f" fill-rule="evenodd" stroke="none"/>
    <path d="M7.5 6.75 Q7.75 6.95 7.75 7.2 L8.05 8.1 Q8.3 9.05 8.4 9.8 8.45 10.1 8.65 10.45 8.8 10.8 8.85 10.95 8.85 11.05 8.8 11.15 L8.2 11.45 Q7.55 11.75 7.2 11.95 L6.95 11.7 Q6.7 11.4 6.65 11.1 L6.45 10.35 6.3 9.6 Q6.2 8.95 6.4 7.9 L6.55 7.25 Q6.85 7.25 7.5 6.75 M3.5 6.85 L3.55 6.8 Q4.15 7.3 4.45 7.35 L4.65 7.95 Q4.9 9.0 4.8 9.65 L4.6 10.4 4.45 11.15 Q4.4 11.45 4.15 11.75 L3.95 12.0 2.9 11.55 Q2.6 11.4 2.35 11.3 2.25 11.15 2.25 11.05 2.3 10.9 2.45 10.55 2.65 10.25 2.65 9.9 2.75 9.15 3.0 8.25 L3.25 7.3 Q3.25 7.05 3.5 6.85" fill="#fffee2" fill-rule="evenodd" stroke="none"/>
  </g>
</svg>
