<?xml version="1.0" encoding="UTF-8" standalone="no"?>
<svg xmlns:ffdec="https://www.free-decompiler.com/flash" xmlns:xlink="http://www.w3.org/1999/xlink" ffdec:objectType="shape" height="11.65px" width="9.2px" xmlns="http://www.w3.org/2000/svg">
  <g transform="matrix(1.0, 0.0, 0.0, 1.0, 1.4, 3.2)">
    <path d="M1.9 -2.25 Q1.95 -2.35 2.05 -2.45 L2.05 -2.5 Q2.3 -3.15 2.9 -3.1 3.1 -3.2 3.4 -3.2 4.15 -3.2 5.15 -2.7 6.2 -2.2 6.9 -1.45 7.75 -0.55 7.8 0.3 7.8 0.7 7.45 1.45 L7.4 1.55 7.25 2.45 7.1 3.05 7.05 3.95 7.15 4.95 Q7.2 5.8 7.05 6.4 6.7 8.15 4.6 8.35 L4.3 8.3 Q3.8 8.4 3.2 8.45 0.2 8.7 0.05 6.1 L0.05 6.05 Q-0.3 5.9 -0.8 5.15 -1.4 4.3 -1.4 4.15 -1.45 3.15 -1.3 2.6 L-1.35 2.5 -1.0 2.2 -1.0 2.05 Q-0.9 1.45 -0.9 1.1 -0.95 -1.3 0.6 -2.1 1.15 -2.35 1.65 -2.25 L1.9 -2.2 1.9 -2.25 M4.35 -2.4 Q3.7 -2.5 2.95 -2.4 L2.9 -2.45 2.8 -2.4 2.75 -2.4 Q2.6 -2.25 2.5 -2.0 2.3 -1.85 2.3 -1.45 2.2 -0.95 2.25 -0.25 2.25 -0.15 2.35 0.4 L2.45 1.05 Q2.5 1.2 2.8 1.75 L2.85 1.8 Q2.75 1.55 2.75 1.25 2.6 -0.65 3.85 -0.65 4.15 -0.6 4.5 -0.5 L4.65 -0.4 4.7 -0.4 Q5.05 -0.15 5.1 0.05 L5.1 2.3 Q4.85 2.4 4.4 2.45 L4.05 2.45 3.25 2.3 3.2 2.25 3.15 2.25 3.0 2.1 3.1 2.3 3.15 2.5 Q3.15 2.7 3.55 2.8 3.95 2.9 4.75 2.85 5.4 2.8 5.65 1.45 5.75 0.65 5.7 -0.1 5.7 -0.35 5.45 -1.1 L5.25 -1.85 4.95 -2.25 4.35 -2.4 M1.8 0.0 L1.75 -0.15 Q1.7 -1.0 1.8 -1.6 L1.75 -1.6 Q1.2 -1.4 0.9 -1.2 -0.05 -0.7 -0.3 0.15 -0.35 0.45 -0.35 0.8 L-0.2 1.25 -0.2 1.3 -0.15 1.4 Q0.05 1.3 0.25 1.25 0.95 0.95 1.95 0.75 L1.95 0.7 1.9 0.65 1.9 0.55 Q1.8 0.3 1.8 0.0 M6.95 0.75 L6.95 0.25 Q6.75 -0.55 6.35 -1.15 6.05 -1.65 5.55 -1.95 L5.65 -1.8 Q5.85 -1.45 5.9 -1.15 6.2 -0.5 6.25 -0.25 L6.25 0.3 Q6.3 1.45 6.25 1.8 6.1 2.9 5.4 3.25 L5.45 3.45 5.45 4.25 5.45 4.3 Q5.4 4.5 5.35 4.65 5.65 4.95 5.7 5.35 L5.75 5.6 5.75 5.65 5.8 6.15 5.5 6.9 Q5.5 7.0 5.55 7.1 5.65 7.25 5.9 7.25 6.5 7.25 6.7 6.1 6.8 5.55 6.8 4.85 L6.8 4.7 6.7 4.0 6.65 3.6 6.65 3.45 6.6 3.35 6.6 3.2 6.75 2.85 6.9 1.65 6.95 0.75 M4.1 2.1 L4.85 2.05 4.85 1.2 Q4.8 0.55 4.45 0.15 L4.15 -0.15 Q4.0 -0.25 3.8 -0.3 3.4 -0.3 3.15 0.05 2.9 0.45 2.95 1.15 3.0 2.2 4.1 2.1 M5.0 -1.3 Q5.25 -1.25 5.25 -1.2 L4.95 -1.25 5.0 -1.3 M3.6 3.5 Q3.7 3.75 3.95 3.95 4.35 4.05 4.7 4.2 4.85 3.9 4.8 3.7 4.8 3.6 4.7 3.5 L4.65 3.4 Q4.0 3.45 3.45 3.1 L3.5 3.15 3.6 3.5 M-0.85 3.45 L-0.85 3.95 Q-0.85 4.25 -0.45 4.6 -0.1 5.0 0.4 5.05 L0.5 4.95 1.0 4.95 Q1.35 4.75 1.95 4.65 L2.45 4.55 2.5 4.55 Q3.3 4.2 3.4 3.9 L3.65 3.95 3.45 3.7 Q3.45 3.35 3.3 3.25 L3.3 2.95 3.25 2.95 Q2.85 2.65 2.55 2.1 L2.45 1.95 2.4 1.8 2.25 1.5 2.2 1.55 2.0 1.6 0.7 1.5 Q-0.2 1.6 -0.65 2.7 -0.8 3.1 -0.85 3.45 M3.5 4.75 L3.25 4.7 1.05 5.25 0.95 5.35 Q0.5 5.95 0.5 6.25 0.55 6.75 1.05 7.1 L1.1 7.25 1.15 7.3 Q1.65 8.0 2.9 7.95 4.1 7.95 4.65 7.55 L4.3 7.1 Q3.9 6.55 3.9 6.35 3.85 6.15 4.0 5.7 4.15 5.2 4.3 5.1 L4.7 5.15 4.6 5.05 4.55 5.05 Q4.4 4.9 4.2 4.8 L4.1 4.85 3.5 4.75 M4.1 5.95 L4.1 6.2 Q4.15 6.5 4.4 6.85 L4.8 7.4 Q5.15 7.05 5.15 6.45 L5.1 6.45 5.15 6.25 5.05 5.95 Q5.05 5.7 4.95 5.5 4.75 5.35 4.35 5.35 4.3 5.35 4.25 5.4 4.15 5.5 4.15 5.75 L4.1 5.95" fill="#111111" fill-rule="evenodd" stroke="none"/>
    <path d="M4.5 -0.5 L4.5 -0.7 Q4.5 -1.0 4.4 -1.95 L4.35 -2.4 4.95 -2.25 5.25 -1.85 5.45 -1.1 Q5.7 -0.35 5.7 -0.1 5.75 0.65 5.65 1.45 5.4 2.8 4.75 2.85 3.95 2.9 3.55 2.8 3.15 2.7 3.15 2.5 L3.1 2.3 3.1 2.25 3.15 2.25 3.2 2.25 3.25 2.3 4.05 2.45 4.4 2.45 Q4.85 2.4 5.1 2.3 L5.1 0.05 Q5.05 -0.15 4.7 -0.4 L4.65 -0.4 4.5 -0.5 M-0.3 0.15 L0.95 0.1 1.8 0.0 Q1.8 0.3 1.9 0.55 L1.9 0.65 1.95 0.7 1.95 0.75 Q0.95 0.95 0.25 1.25 L-0.2 1.3 -0.2 1.25 -0.35 0.8 Q-0.35 0.45 -0.3 0.15 M4.15 -0.15 L4.45 0.15 Q4.8 0.55 4.85 1.2 L4.85 2.05 4.1 2.1 4.15 -0.15 M5.0 -1.3 L4.95 -1.25 5.25 -1.2 Q5.25 -1.25 5.0 -1.3 M2.45 1.95 L2.55 2.1 Q2.85 2.65 3.25 2.95 L3.3 2.95 3.3 3.25 Q3.45 3.35 3.45 3.7 L3.65 3.95 3.4 3.9 Q3.3 4.2 2.5 4.55 L2.45 4.55 1.95 4.65 Q1.35 4.75 1.0 4.95 L0.5 4.95 0.4 5.05 Q-0.1 5.0 -0.45 4.6 -0.85 4.25 -0.85 3.95 L-0.85 3.45 -0.65 3.6 Q-0.3 3.9 -0.1 3.9 0.2 3.9 1.35 3.6 2.55 3.3 2.55 3.15 L2.45 1.95 M3.6 3.5 L3.5 3.15 3.45 3.1 Q4.0 3.45 4.65 3.4 L4.7 3.5 Q4.8 3.6 4.8 3.7 4.85 3.9 4.7 4.2 4.35 4.05 3.95 3.95 3.7 3.75 3.6 3.5 M1.1 7.25 L1.05 7.2 1.3 7.2 Q2.9 7.2 2.9 5.85 2.9 5.45 3.25 5.05 L3.5 4.75 4.1 4.85 4.2 4.8 Q4.4 4.9 4.55 5.05 L4.6 5.05 4.7 5.15 4.3 5.1 Q4.15 5.2 4.0 5.7 3.85 6.15 3.9 6.35 3.9 6.55 4.3 7.1 L4.65 7.55 Q4.1 7.95 2.9 7.95 1.65 8.0 1.15 7.3 L1.1 7.25 M4.25 5.4 Q4.3 5.35 4.35 5.35 4.75 5.35 4.95 5.5 5.05 5.7 5.05 5.95 L5.15 6.25 5.1 6.45 5.15 6.45 Q5.15 7.05 4.8 7.4 L4.4 6.85 Q4.15 6.5 4.1 6.2 L4.1 5.95 4.25 5.4" fill="#c88f44" fill-rule="evenodd" stroke="none"/>
    <path d="M4.5 -0.5 Q4.15 -0.6 3.85 -0.65 2.6 -0.65 2.75 1.25 2.75 1.55 2.85 1.8 L2.8 1.75 Q2.5 1.2 2.45 1.05 L2.35 0.4 Q2.25 -0.15 2.25 -0.25 2.2 -0.95 2.3 -1.45 2.3 -1.85 2.5 -2.0 2.6 -2.25 2.75 -2.4 L2.8 -2.4 2.9 -2.45 2.95 -2.4 Q3.7 -2.5 4.35 -2.4 L4.4 -1.95 Q4.5 -1.0 4.5 -0.7 L4.5 -0.5 M3.1 2.3 L3.0 2.1 3.15 2.25 3.1 2.25 3.1 2.3 M-0.3 0.15 Q-0.05 -0.7 0.9 -1.2 1.2 -1.4 1.75 -1.6 L1.8 -1.6 Q1.7 -1.0 1.75 -0.15 L1.8 0.0 0.95 0.1 -0.3 0.15 M0.25 1.25 Q0.05 1.3 -0.15 1.4 L-0.2 1.3 0.25 1.25 M4.1 2.1 Q3.0 2.2 2.95 1.15 2.9 0.45 3.15 0.05 3.4 -0.3 3.8 -0.3 4.0 -0.25 4.15 -0.15 L4.1 2.1 M2.45 1.95 L2.55 3.15 Q2.55 3.3 1.35 3.6 0.2 3.9 -0.1 3.9 -0.3 3.9 -0.65 3.6 L-0.85 3.45 Q-0.8 3.1 -0.65 2.7 -0.2 1.6 0.7 1.5 L2.0 1.6 2.2 1.55 2.25 1.5 2.4 1.8 2.45 1.95 M1.1 7.25 L1.05 7.1 Q0.55 6.75 0.5 6.25 0.5 5.95 0.95 5.35 L1.05 5.25 3.25 4.7 3.5 4.75 3.25 5.05 Q2.9 5.45 2.9 5.85 2.9 7.2 1.3 7.2 L1.05 7.2 1.1 7.25 M4.25 5.4 L4.1 5.95 4.15 5.75 Q4.15 5.5 4.25 5.4" fill="#cfb563" fill-rule="evenodd" stroke="none"/>
    <path d="M6.25 0.3 L6.25 -0.25 Q6.2 -0.5 5.9 -1.15 5.85 -1.45 5.65 -1.8 L5.55 -1.95 Q6.05 -1.65 6.35 -1.15 6.75 -0.55 6.95 0.25 L6.95 0.75 6.25 0.3 M6.65 3.45 L6.65 3.6 6.7 4.0 6.8 4.7 6.75 4.5 Q6.3 5.35 5.95 5.35 L5.7 5.35 Q5.65 4.95 5.35 4.65 5.4 4.5 5.45 4.3 L5.45 4.25 5.45 4.3 6.2 3.75 6.65 3.45" fill="#9c8787" fill-rule="evenodd" stroke="none"/>
    <path d="M6.25 0.3 L6.95 0.75 6.9 1.65 6.75 2.85 6.6 3.2 6.6 3.35 6.65 3.45 6.2 3.75 5.45 4.3 5.45 4.25 5.45 3.45 5.4 3.25 Q6.1 2.9 6.25 1.8 6.3 1.45 6.25 0.3 M6.8 4.7 L6.8 4.85 Q6.8 5.55 6.7 6.1 6.5 7.25 5.9 7.25 5.65 7.25 5.55 7.1 5.5 7.0 5.5 6.9 L5.8 6.15 5.75 5.65 5.75 5.6 5.7 5.35 5.95 5.35 Q6.3 5.35 6.75 4.5 L6.8 4.7" fill="#725c5c" fill-rule="evenodd" stroke="none"/>
  </g>
</svg>
