<?xml version="1.0" encoding="UTF-8" standalone="no"?>
<svg xmlns:ffdec="https://www.free-decompiler.com/flash" xmlns:xlink="http://www.w3.org/1999/xlink" ffdec:objectType="shape" height="7.3px" width="8.6px" xmlns="http://www.w3.org/2000/svg">
  <g transform="matrix(1.0, 0.0, 0.0, 1.0, 1.9, 6.2)">
    <path d="M3.0 -3.85 L3.0 -4.3 2.9 -4.3 2.75 -4.25 2.5 -4.1 2.45 -4.05 2.35 -4.0 2.2 -3.9 Q2.0 -3.8 1.9 -3.65 1.85 -3.6 1.8 -3.45 1.8 -3.4 1.8 -3.15 L1.85 -2.75 1.9 -2.65 1.9 -2.55 Q1.9 -2.45 2.15 -2.3 L2.1 -2.6 Q2.1 -2.8 2.25 -3.15 2.3 -3.35 2.4 -3.45 L2.45 -3.5 Q2.4 -3.6 2.4 -3.7 2.4 -3.85 2.45 -3.85 L2.45 -3.7 2.5 -3.65 2.65 -3.45 2.8 -3.35 3.1 -3.45 Q3.05 -3.6 3.0 -3.85 M6.4 -2.85 L6.55 -2.7 6.7 -2.5 6.7 -2.3 Q6.7 -1.8 6.35 -1.3 6.05 -0.75 6.05 0.05 L6.0 0.05 6.05 0.1 Q6.05 0.25 5.1 0.6 L5.0 0.65 4.95 0.65 4.6 0.75 Q3.85 0.95 3.15 0.95 2.55 0.95 2.45 0.7 L2.4 0.4 2.3 0.35 2.25 0.3 2.2 0.3 2.05 0.15 1.8 0.45 Q1.8 0.5 1.75 0.5 L1.7 0.5 1.5 0.15 1.05 0.6 Q0.9 0.9 0.6 1.1 L0.5 1.1 Q0.05 1.1 -0.15 0.75 -0.3 0.6 -0.35 0.35 L-0.35 -0.3 -0.45 -0.3 Q-0.5 -0.35 -0.6 -0.6 L-1.1 0.0 -1.15 0.0 -1.2 0.05 -1.45 0.1 -1.5 0.1 -1.5 0.05 Q-1.7 0.05 -1.9 -0.4 L-1.9 -0.55 Q-1.9 -0.65 -1.85 -0.75 -1.75 -1.0 -1.1 -1.5 L-0.95 -1.65 -0.95 -1.8 Q-0.9 -2.0 -0.7 -2.45 L-0.65 -2.55 -0.55 -2.6 Q-0.4 -2.7 -0.35 -2.75 L-0.05 -2.85 0.4 -3.15 0.45 -3.15 0.6 -3.2 0.75 -3.2 0.8 -3.3 0.85 -3.35 0.85 -3.4 Q0.95 -3.55 0.95 -3.65 0.95 -4.2 0.5 -4.95 L0.45 -5.05 Q0.2 -5.55 -0.45 -6.1 L-0.35 -6.2 0.75 -6.2 Q1.35 -5.9 1.75 -5.3 L1.8 -5.25 2.15 -4.6 2.35 -4.35 2.35 -4.3 2.4 -4.25 2.55 -4.35 2.65 -4.4 2.95 -4.45 Q3.0 -4.45 3.1 -4.4 L3.1 -4.3 3.15 -4.05 3.15 -3.45 Q3.9 -3.7 4.3 -3.95 4.45 -4.1 4.55 -4.35 L4.55 -4.85 Q4.6 -4.95 4.7 -4.95 L5.15 -4.95 5.25 -4.9 5.45 -4.7 5.55 -4.45 5.65 -4.1 5.7 -4.05 5.75 -3.9 Q5.85 -3.9 5.9 -3.8 L6.05 -3.55 6.05 -3.2 Q6.05 -3.1 6.2 -3.0 L6.3 -2.9 6.4 -2.85 M4.15 -2.25 L4.45 -2.5 Q4.7 -2.8 5.05 -3.35 L5.0 -3.6 4.9 -3.85 4.9 -3.95 5.05 -3.7 5.1 -3.55 5.2 -3.75 Q5.35 -3.9 5.55 -3.85 L5.6 -3.9 Q5.55 -4.35 5.2 -4.85 L4.8 -4.9 4.75 -4.85 Q4.65 -4.75 4.65 -4.65 L4.65 -4.3 Q4.5 -4.05 4.25 -3.85 L4.2 -3.75 4.1 -3.7 Q3.8 -3.5 3.45 -3.4 L3.4 -3.35 3.05 -3.25 2.5 -3.25 2.65 -3.3 2.65 -3.35 2.5 -3.5 2.35 -3.25 2.3 -3.25 2.3 -3.2 2.25 -3.0 Q2.15 -2.7 2.15 -2.45 L2.2 -2.2 2.35 -2.1 2.55 -1.95 2.6 -1.95 2.65 -1.9 2.7 -1.9 Q2.85 -1.85 3.0 -1.85 L3.05 -1.85 3.55 -1.95 3.85 -2.05 3.85 -2.15 3.85 -2.2 3.9 -2.35 3.9 -2.4 3.85 -2.55 3.8 -2.85 3.6 -3.25 3.65 -3.25 3.75 -3.05 3.85 -2.75 3.9 -2.7 3.9 -2.4 3.95 -2.4 3.95 -2.2 3.9 -2.1 3.95 -2.1 4.0 -2.15 4.15 -2.25 M5.75 -3.75 L5.75 -3.75 M5.9 -3.25 L5.95 -3.3 5.95 -3.5 5.9 -3.65 5.8 -3.75 5.8 -3.7 5.8 -3.75 5.65 -3.55 5.55 -3.5 Q5.5 -3.45 5.5 -3.3 5.5 -3.2 5.6 -3.1 5.7 -3.1 5.9 -3.25 M5.45 -3.5 L5.55 -3.65 5.65 -3.7 5.65 -3.75 5.55 -3.8 Q5.2 -3.8 5.2 -3.5 L5.25 -3.45 5.25 -3.3 5.35 -3.2 Q5.45 -3.1 5.55 -3.1 5.5 -3.1 5.5 -3.2 L5.45 -3.4 5.45 -3.45 5.5 -3.5 5.45 -3.5 M2.45 -5.6 L2.45 -5.6 M2.3 -4.25 L2.25 -4.3 1.7 -5.05 1.35 -5.5 0.9 -5.95 0.75 -6.05 0.6 -6.05 -0.2 -6.1 Q-0.1 -6.05 0.0 -5.9 L0.05 -5.85 0.3 -5.55 0.35 -5.5 0.55 -5.2 0.6 -5.1 0.65 -5.1 0.65 -5.0 Q1.0 -4.4 1.1 -3.9 L1.15 -3.7 1.0 -3.4 1.2 -3.4 1.25 -3.3 1.35 -3.1 1.4 -3.1 1.4 -3.0 1.7 -3.0 1.75 -2.9 Q1.65 -3.25 1.65 -3.4 L1.65 -3.45 1.7 -3.55 1.7 -3.6 Q1.7 -3.75 2.0 -4.0 L2.0 -4.05 Q1.95 -4.15 1.8 -4.15 L1.7 -4.15 1.65 -4.2 1.7 -4.25 1.75 -4.25 Q1.85 -4.25 1.95 -4.15 L2.05 -4.05 2.25 -4.15 2.35 -4.25 2.3 -4.25 M1.8 -2.7 L1.75 -2.75 1.7 -2.85 1.6 -3.0 1.45 -2.95 1.45 -2.8 1.5 -2.8 Q1.75 -2.8 1.8 -2.65 L1.8 -2.7 M1.6 -0.2 L1.5 -0.45 1.45 -0.5 1.4 -0.65 1.7 -1.45 1.85 -2.0 1.95 -2.25 1.9 -2.45 Q1.5 -2.35 1.1 -1.25 L1.05 -1.25 1.0 -1.15 0.95 -1.1 0.9 -1.1 0.9 -1.05 1.0 -0.9 Q1.2 -0.6 1.5 -0.05 L1.55 0.0 1.75 0.3 1.8 0.2 1.95 0.05 1.65 -0.2 1.6 -0.2 M1.6 -2.6 Q1.45 -2.7 1.35 -2.7 1.3 -2.7 1.2 -2.6 L1.15 -2.55 1.2 -2.35 1.2 -2.3 1.15 -2.2 1.1 -2.15 Q1.2 -2.15 1.25 -1.95 L1.25 -1.8 1.4 -2.05 1.55 -2.35 1.65 -2.5 1.6 -2.6 M2.05 -2.15 L2.05 -2.15 M4.9 -0.4 L4.65 -0.4 Q4.55 -0.4 4.55 -0.45 L4.55 -0.6 Q4.6 -0.75 4.9 -0.85 L4.85 -0.95 4.85 -1.1 4.8 -1.45 4.55 -1.25 Q4.25 -1.15 4.0 -1.15 L3.75 -1.15 Q3.4 -0.9 3.05 -0.9 2.65 -0.9 2.4 -1.2 L2.3 -1.3 Q2.25 -1.4 2.2 -1.5 L2.05 -1.95 2.0 -2.05 Q1.95 -2.0 1.9 -1.8 L1.8 -1.6 1.8 -1.55 Q1.65 -1.1 1.6 -0.8 1.6 -0.5 1.8 -0.3 L2.05 -0.05 2.4 0.35 Q2.5 0.35 2.5 0.4 L2.55 0.55 2.55 0.6 Q2.65 0.85 3.2 0.85 L3.3 0.85 4.3 0.75 4.45 0.7 4.8 0.65 4.8 0.6 4.85 0.6 4.9 0.55 4.9 0.3 4.7 0.25 4.65 0.2 4.65 0.15 4.6 0.15 Q4.6 -0.05 4.9 -0.2 L4.9 -0.4 M2.45 -2.0 Q2.4 -2.0 2.25 -2.1 L2.25 -2.05 Q2.2 -2.2 2.2 -2.05 L2.25 -1.9 Q2.3 -1.55 2.4 -1.35 L2.4 -1.3 2.45 -1.3 2.45 -1.25 2.5 -1.25 2.45 -1.35 2.45 -1.75 2.6 -1.9 2.45 -2.0 M3.9 -1.95 Q3.7 -1.85 3.5 -1.8 L3.35 -1.75 3.25 -1.75 Q2.9 -1.75 2.6 -1.9 2.5 -1.75 2.5 -1.35 L2.55 -1.2 Q2.75 -1.05 3.1 -1.05 L3.25 -1.1 3.3 -1.1 3.4 -1.15 3.6 -1.25 3.9 -1.5 4.3 -1.9 4.3 -2.25 3.9 -1.95 M1.35 -3.05 Q1.35 -3.15 1.25 -3.25 1.1 -3.35 0.95 -3.35 L0.85 -3.1 1.0 -2.8 1.05 -2.75 1.05 -2.7 1.2 -2.8 1.35 -2.95 1.35 -3.05 M1.1 -2.8 L1.1 -2.8 M1.35 -2.8 L1.35 -2.9 1.25 -2.8 1.35 -2.8 M0.85 -2.15 L0.8 -2.3 0.6 -2.65 0.55 -2.7 0.45 -2.95 0.4 -3.0 0.4 -2.95 0.35 -2.95 0.25 -2.9 0.15 -2.85 0.25 -2.7 0.35 -2.55 0.6 -2.1 0.65 -2.05 0.65 -2.0 0.8 -2.05 0.85 -2.15 M0.15 -2.75 L0.1 -2.85 0.05 -2.8 Q-0.05 -2.75 -0.2 -2.6 -0.5 -2.4 -0.55 -2.35 -0.7 -2.0 -0.75 -1.75 L-0.25 -2.15 -0.25 -2.25 -0.3 -2.35 -0.2 -2.35 0.05 -2.1 0.2 -1.9 0.2 -1.8 0.15 -1.65 0.15 -1.55 0.15 -1.5 0.25 -1.5 0.25 -1.55 0.55 -1.85 0.6 -1.95 Q0.6 -2.0 0.55 -2.05 0.5 -2.15 0.4 -2.4 L0.2 -2.6 0.15 -2.75 M0.65 -3.0 L0.55 -3.0 Q0.5 -3.0 0.5 -3.05 L0.55 -2.9 0.7 -2.6 0.65 -2.65 0.7 -2.55 Q0.8 -2.25 0.85 -2.25 0.95 -2.15 1.0 -2.15 L1.05 -2.25 1.05 -2.4 0.85 -2.7 0.7 -3.0 0.65 -3.0 M0.75 -1.35 L1.05 -1.65 1.05 -1.7 Q1.05 -1.9 1.1 -2.0 L1.05 -2.05 0.9 -2.0 0.85 -1.95 Q0.8 -1.95 0.7 -1.9 L0.5 -1.75 Q0.35 -1.6 0.35 -1.5 L0.4 -1.5 0.35 -1.45 0.35 -1.4 0.45 -1.3 Q0.5 -1.3 0.55 -1.3 0.65 -1.3 0.75 -1.35 M0.95 -1.35 Q0.95 -1.4 0.95 -1.35 0.9 -1.35 0.8 -1.3 L0.75 -1.25 0.6 -1.2 0.6 -1.1 0.6 -1.05 0.5 -0.9 0.3 -0.8 0.25 -0.75 Q0.15 -0.7 0.05 -0.65 L-0.1 -0.6 -0.25 -0.65 -0.25 -0.7 0.0 -0.75 0.1 -0.75 0.15 -0.8 0.35 -0.9 0.45 -1.0 0.5 -1.15 0.4 -1.2 0.4 -1.25 0.35 -1.25 0.25 -1.3 0.2 -1.35 0.15 -1.35 0.15 -1.4 0.1 -1.4 0.1 -1.45 0.05 -1.45 Q0.0 -1.35 -0.35 -0.9 L-0.5 -0.75 -0.45 -0.65 -0.4 -0.6 -0.4 -0.55 -0.25 -0.4 0.1 -0.4 0.15 -0.4 Q0.3 -0.45 0.4 -0.6 0.55 -0.7 0.55 -0.75 L0.55 -0.85 0.75 -1.0 0.85 -1.1 0.95 -1.3 1.0 -1.35 0.95 -1.35 M1.4 -0.1 L1.35 -0.15 1.25 -0.4 1.1 -0.65 0.9 -0.9 0.85 -1.0 0.7 -0.8 0.7 -0.7 0.9 -0.05 0.85 0.2 0.85 0.15 Q0.85 -0.05 0.75 -0.3 0.65 -0.55 0.65 -0.7 L0.6 -0.65 Q0.6 -0.55 0.4 -0.45 L0.3 -0.4 -0.1 -0.3 -0.2 -0.3 -0.25 -0.2 Q-0.2 -0.1 -0.2 0.0 L-0.2 0.35 -0.15 0.55 -0.1 0.65 Q0.05 0.8 0.25 0.9 L0.6 0.9 0.65 0.9 Q1.0 0.5 1.25 0.2 L1.35 0.1 1.35 0.05 1.4 0.05 1.4 0.0 1.4 -0.1 M0.0 -1.65 L0.05 -1.65 0.0 -1.7 0.0 -1.65 M0.05 -1.7 L0.05 -1.9 -0.1 -2.1 -0.15 -2.15 -0.2 -2.05 Q-0.1 -2.05 0.0 -1.95 L0.0 -1.75 0.05 -1.7 M5.15 -3.25 L5.1 -3.25 Q4.9 -2.85 4.45 -2.4 L4.3 -2.3 4.35 -2.25 4.4 -2.15 4.35 -1.9 4.85 -2.55 5.25 -3.15 Q5.2 -3.15 5.15 -3.25 M5.15 -0.9 Q5.35 -0.95 5.35 -0.7 5.35 -0.6 5.15 -0.5 L5.0 -0.4 5.0 -0.25 Q5.35 -0.35 5.4 -0.2 L5.4 0.0 5.3 0.1 Q5.15 0.25 4.95 0.3 L4.95 0.6 5.15 0.5 Q5.45 0.4 5.8 0.15 L5.8 -0.5 Q5.7 -0.65 5.6 -0.85 5.45 -1.2 5.45 -1.6 L5.45 -1.85 5.5 -1.55 5.6 -1.25 5.7 -0.9 5.85 -0.65 Q5.9 -0.95 6.15 -1.25 6.45 -1.7 6.45 -2.45 L6.45 -2.55 6.4 -2.7 Q6.25 -2.75 6.15 -2.8 6.1 -2.85 6.0 -3.05 L5.95 -3.15 Q5.85 -3.1 5.7 -3.05 L5.5 -3.05 5.35 -3.1 Q5.0 -2.5 4.7 -2.1 L4.55 -1.95 Q4.2 -1.5 3.85 -1.25 4.3 -1.25 4.5 -1.4 4.7 -1.55 4.85 -1.55 L4.9 -1.45 5.0 -1.0 5.0 -0.9 5.15 -0.9 M4.9 -0.75 L4.85 -0.75 Q4.65 -0.65 4.6 -0.5 L4.65 -0.5 4.7 -0.45 4.95 -0.45 5.05 -0.5 5.2 -0.6 5.3 -0.7 Q5.15 -0.8 5.0 -0.8 L4.9 -0.75 M4.95 -0.1 L4.9 -0.1 4.85 -0.05 4.8 -0.05 4.7 0.05 4.7 0.2 4.75 0.2 4.75 0.25 4.9 0.25 5.1 0.2 5.15 0.15 5.2 0.05 Q5.35 0.0 5.35 -0.1 5.35 -0.25 5.0 -0.15 L4.95 -0.1 M-0.35 -1.2 L-0.2 -1.4 0.0 -1.6 0.0 -1.7 Q0.0 -1.85 -0.1 -1.9 L-0.1 -1.95 -0.25 -2.0 Q-0.35 -1.9 -0.65 -1.65 -0.55 -1.6 -0.45 -1.45 L-0.35 -1.25 -0.35 -1.2 M-1.35 -1.05 L-1.55 -0.9 -1.6 -0.85 -1.75 -0.6 -1.75 -0.55 Q-1.75 -0.45 -1.7 -0.3 L-1.6 -0.15 -1.55 -0.1 Q-1.5 -0.05 -1.45 -0.05 -1.3 -0.05 -1.05 -0.3 L-1.0 -0.4 -1.05 -0.4 -1.0 -0.6 Q-1.0 -0.8 -1.25 -1.15 L-1.35 -1.05 M-0.45 -1.15 L-0.45 -1.25 Q-0.5 -1.45 -0.7 -1.55 L-0.8 -1.5 -0.85 -1.45 Q-0.7 -1.35 -0.7 -0.95 L-0.7 -0.8 -0.6 -0.9 -0.45 -1.1 -0.45 -1.15 M-0.9 -0.5 L-0.8 -0.65 -0.75 -0.85 Q-0.75 -1.05 -0.8 -1.15 L-0.85 -1.3 -0.9 -1.4 -1.2 -1.15 -1.05 -1.05 -1.05 -0.95 -1.0 -0.9 -0.95 -0.8 -0.9 -0.55 -0.9 -0.5 -0.9 -0.5 -0.9 -0.5" fill="#000000" fill-rule="evenodd" stroke="none"/>
    <path d="M2.05 -2.15 L2.05 -2.15" fill="#ffffff" fill-rule="evenodd" stroke="none"/>
    <path d="M0.3 -0.4 L0.25 -0.1 0.3 0.2 Q0.35 0.4 0.5 0.45 L0.5 0.8 0.55 0.9 0.6 0.9 0.25 0.9 Q0.05 0.8 -0.1 0.65 L-0.15 0.55 -0.2 0.35 -0.2 0.0 Q-0.2 -0.1 -0.25 -0.2 L-0.2 -0.3 -0.1 -0.3 0.3 -0.4 M1.35 0.1 L1.35 0.05 1.35 0.1 M1.4 0.0 L1.4 -0.1 1.4 0.0" fill="#f4c49f" fill-rule="evenodd" stroke="none"/>
    <path d="M6.3 -2.9 L6.4 -2.85 6.3 -2.9 M4.2 -3.75 L4.1 -3.7 4.2 -3.75 M5.75 -3.75 L5.75 -3.75" fill="#4be1e9" fill-rule="evenodd" stroke="none"/>
    <path d="M0.95 -1.35 L1.0 -1.35 0.95 -1.3 0.95 -1.35 M0.6 -1.1 L0.6 -1.2 0.75 -1.25 0.6 -1.1" fill="#aa5540" fill-rule="evenodd" stroke="none"/>
    <path d="M0.25 -2.7 L0.15 -2.85 0.25 -2.9 0.25 -2.7 M0.05 -2.1 L-0.2 -2.35 -0.3 -2.35 -0.25 -2.25 -0.25 -2.15 -0.75 -1.75 Q-0.7 -2.0 -0.55 -2.35 -0.5 -2.4 -0.2 -2.6 -0.05 -2.75 0.05 -2.8 L0.1 -2.85 0.15 -2.75 Q0.05 -2.7 0.05 -2.45 L0.1 -2.15 0.05 -2.1 M0.25 -1.55 L0.25 -1.5 0.15 -1.5 0.15 -1.55 0.25 -1.55 M0.75 -1.35 Q0.65 -1.3 0.55 -1.3 0.5 -1.3 0.45 -1.3 L0.35 -1.4 0.35 -1.45 0.4 -1.5 0.35 -1.5 Q0.35 -1.6 0.5 -1.75 L0.5 -1.65 Q0.5 -1.55 0.55 -1.5 0.6 -1.4 0.75 -1.35 M0.1 -0.4 L-0.25 -0.4 -0.4 -0.55 -0.4 -0.6 -0.45 -0.65 -0.5 -0.75 -0.35 -0.9 Q0.0 -1.35 0.05 -1.45 L0.1 -1.45 0.1 -1.4 Q-0.1 -1.3 -0.1 -1.0 L-0.1 -0.85 Q-0.05 -0.75 0.0 -0.75 L-0.25 -0.7 -0.25 -0.65 -0.1 -0.6 0.05 -0.65 0.05 -0.45 0.1 -0.4" fill="#a04136" fill-rule="evenodd" stroke="none"/>
    <path d="M4.9 0.55 L4.85 0.6 4.8 0.6 4.8 0.65 4.45 0.7 4.5 0.7 4.6 0.65 4.8 0.6 4.9 0.55" fill="#97c543" fill-rule="evenodd" stroke="none"/>
    <path d="M4.95 -0.45 L5.0 -0.45 Q5.05 -0.55 5.05 -0.6 5.05 -0.75 4.95 -0.75 L4.9 -0.75 5.0 -0.8 Q5.15 -0.8 5.3 -0.7 L5.2 -0.6 5.05 -0.5 4.95 -0.45 M4.7 0.05 L4.7 0.2 4.7 0.05 M4.75 0.2 L4.85 0.2 Q4.95 0.2 5.0 0.15 L5.05 0.05 Q5.05 -0.1 4.95 -0.1 L5.0 -0.15 Q5.35 -0.25 5.35 -0.1 5.35 0.0 5.2 0.05 L5.15 0.15 5.1 0.2 4.9 0.25 4.75 0.25 4.75 0.2" fill="#bc742c" fill-rule="evenodd" stroke="none"/>
    <path d="M4.0 -2.15 L3.95 -2.1 3.9 -2.1 3.95 -2.2 3.9 -2.15 4.0 -2.15 M3.85 -2.15 L3.85 -2.05 3.55 -1.95 3.65 -1.95 3.85 -2.15 M5.5 -3.2 Q5.5 -3.1 5.55 -3.1 5.45 -3.1 5.35 -3.2 L5.5 -3.2 M3.3 -1.1 L3.35 -1.1 3.4 -1.15 3.3 -1.1" fill="#5b97d9" fill-rule="evenodd" stroke="none"/>
    <path d="M0.3 -0.4 L0.4 -0.45 Q0.6 -0.55 0.6 -0.65 L0.65 -0.7 Q0.65 -0.55 0.75 -0.3 0.85 -0.05 0.85 0.15 L0.85 0.2 0.9 -0.05 0.7 -0.7 0.7 -0.8 0.85 -1.0 0.9 -0.9 1.1 -0.65 1.25 -0.4 1.35 -0.15 1.4 -0.1 1.4 0.0 1.4 0.05 1.35 0.05 1.35 0.1 1.25 0.2 Q1.0 0.5 0.65 0.9 L0.6 0.9 0.55 0.9 0.5 0.8 0.5 0.45 Q0.35 0.4 0.3 0.2 L0.25 -0.1 0.3 -0.4" fill="#e7955f" fill-rule="evenodd" stroke="none"/>
    <path d="M1.35 -2.8 L1.25 -2.8 1.35 -2.9 1.35 -2.8 M-1.6 -0.15 L-1.7 -0.3 Q-1.75 -0.45 -1.75 -0.55 L-1.75 -0.6 -1.6 -0.85 -1.55 -0.9 -1.35 -1.05 -1.3 -0.7 Q-1.3 -0.5 -1.45 -0.3 L-1.6 -0.15 M-0.85 -1.3 L-0.9 -1.25 Q-1.0 -1.15 -1.05 -0.95 L-1.05 -1.05 -1.2 -1.15 -0.9 -1.4 -0.85 -1.3 M-0.9 -0.5 L-0.9 -0.5 -0.9 -0.5" fill="#8a4d79" fill-rule="evenodd" stroke="none"/>
    <path d="M0.6 -6.05 Q0.55 -6.0 0.55 -5.85 L0.6 -5.6 0.65 -5.55 0.8 -5.25 0.85 -5.2 Q1.1 -5.2 1.3 -5.1 L1.65 -4.9 Q1.55 -4.9 1.25 -5.05 L0.85 -5.15 0.95 -4.95 1.2 -4.35 1.35 -4.05 1.45 -4.15 Q1.6 -4.25 1.65 -4.2 L1.7 -4.15 1.75 -4.05 Q1.75 -3.9 1.55 -3.7 1.4 -3.55 1.25 -3.45 L1.2 -3.35 1.25 -3.3 1.2 -3.4 1.0 -3.4 1.15 -3.7 1.1 -3.9 Q1.0 -4.4 0.65 -5.0 L0.65 -5.1 0.6 -5.1 0.55 -5.2 0.35 -5.5 0.3 -5.55 0.05 -5.85 0.0 -5.9 Q-0.1 -6.05 -0.2 -6.1 L0.6 -6.05 M2.25 -4.15 L2.3 -4.2 2.3 -4.25 2.35 -4.25 2.25 -4.15 M1.25 -4.65 L1.15 -4.75 1.35 -4.75 1.45 -4.55 1.4 -4.5 Q1.3 -4.5 1.25 -4.65 M1.35 -4.35 Q1.35 -4.45 1.4 -4.4 L1.45 -4.4 1.45 -4.3 1.35 -4.3 1.35 -4.35 M1.8 -2.7 L1.8 -2.65 Q1.75 -2.8 1.5 -2.8 L1.45 -2.8 1.45 -2.95 1.6 -3.0 1.7 -2.85 1.75 -2.75 1.8 -2.7" fill="#8f9eba" fill-rule="evenodd" stroke="none"/>
    <path d="M1.05 -2.75 L1.0 -2.8 0.85 -3.1 0.95 -3.35 Q1.1 -3.35 1.25 -3.25 1.35 -3.15 1.35 -3.05 L1.35 -3.1 1.25 -3.05 Q1.05 -2.9 1.05 -2.8 L1.05 -2.75 M0.05 -1.7 L0.0 -1.75 0.0 -1.95 Q-0.1 -2.05 -0.2 -2.05 L-0.15 -2.15 -0.1 -2.1 0.05 -1.9 0.05 -1.7 M-0.35 -1.2 L-0.35 -1.25 -0.35 -1.2 M-0.45 -1.45 Q-0.55 -1.6 -0.65 -1.65 -0.35 -1.9 -0.25 -2.0 L-0.1 -1.95 -0.15 -1.85 -0.45 -1.45 M-0.7 -0.95 Q-0.7 -1.35 -0.85 -1.45 L-0.8 -1.5 -0.7 -1.55 Q-0.5 -1.45 -0.45 -1.25 L-0.45 -1.15 -0.45 -1.2 Q-0.55 -1.2 -0.65 -1.05 L-0.7 -0.95" fill="#ebc894" fill-rule="evenodd" stroke="none"/>
    <path d="M0.25 -2.9 L0.35 -2.95 0.4 -2.95 0.4 -3.0 0.45 -2.95 0.55 -2.7 0.6 -2.65 0.8 -2.3 0.85 -2.15 0.8 -2.05 0.65 -2.0 0.65 -2.05 0.6 -2.1 0.35 -2.55 0.25 -2.7 0.25 -2.9 M0.05 -2.1 L0.1 -2.15 0.05 -2.45 Q0.05 -2.7 0.15 -2.75 L0.2 -2.6 0.4 -2.4 Q0.5 -2.15 0.55 -2.05 0.6 -2.0 0.6 -1.95 L0.55 -1.85 0.25 -1.55 0.15 -1.55 0.15 -1.65 0.2 -1.8 0.2 -1.9 0.05 -2.1 M0.65 -3.0 L0.7 -3.0 0.85 -2.7 1.05 -2.4 1.05 -2.25 1.0 -2.15 Q0.95 -2.15 0.85 -2.25 0.8 -2.25 0.7 -2.55 L0.65 -2.65 0.7 -2.6 0.55 -2.9 0.5 -3.05 Q0.5 -3.0 0.55 -3.0 L0.65 -3.0 M0.5 -1.75 L0.7 -1.9 Q0.8 -1.95 0.85 -1.95 L0.9 -2.0 1.05 -2.05 1.1 -2.0 Q1.05 -1.9 1.05 -1.7 L1.05 -1.65 0.75 -1.35 Q0.6 -1.4 0.55 -1.5 0.5 -1.55 0.5 -1.65 L0.5 -1.75 M0.75 -1.25 L0.8 -1.3 Q0.9 -1.35 0.95 -1.35 0.95 -1.4 0.95 -1.35 L0.95 -1.3 0.85 -1.1 0.75 -1.0 0.55 -0.85 0.55 -0.75 Q0.55 -0.7 0.4 -0.6 0.3 -0.45 0.15 -0.4 L0.1 -0.4 0.05 -0.45 0.05 -0.65 Q0.15 -0.7 0.25 -0.75 L0.3 -0.8 0.5 -0.9 0.6 -1.05 0.6 -1.1 0.75 -1.25 M0.1 -1.4 L0.15 -1.4 0.15 -1.35 0.2 -1.35 0.25 -1.3 0.35 -1.25 0.4 -1.25 0.4 -1.2 0.5 -1.15 0.45 -1.0 0.35 -0.9 0.15 -0.8 0.1 -0.75 0.0 -0.75 Q-0.05 -0.75 -0.1 -0.85 L-0.1 -1.0 Q-0.1 -1.3 0.1 -1.4" fill="#88332f" fill-rule="evenodd" stroke="none"/>
    <path d="M1.05 -2.75 L1.05 -2.8 Q1.05 -2.9 1.25 -3.05 L1.35 -3.1 1.35 -3.05 1.35 -2.95 1.2 -2.8 1.05 -2.7 1.05 -2.75 M1.1 -2.8 L1.1 -2.8 M-0.1 -1.95 L-0.1 -1.9 Q0.0 -1.85 0.0 -1.7 L0.0 -1.6 -0.2 -1.4 -0.35 -1.2 -0.35 -1.25 -0.45 -1.45 -0.15 -1.85 -0.1 -1.95 M-0.7 -0.95 L-0.65 -1.05 Q-0.55 -1.2 -0.45 -1.2 L-0.45 -1.15 -0.45 -1.1 -0.6 -0.9 -0.7 -0.8 -0.7 -0.95" fill="#d86f54" fill-rule="evenodd" stroke="none"/>
    <path d="M-1.6 -0.15 L-1.45 -0.3 Q-1.3 -0.5 -1.3 -0.7 L-1.35 -1.05 -1.25 -1.15 Q-1.0 -0.8 -1.0 -0.6 L-1.05 -0.4 -1.0 -0.4 -1.05 -0.3 Q-1.3 -0.05 -1.45 -0.05 -1.5 -0.05 -1.55 -0.1 L-1.6 -0.15 M-0.85 -1.3 L-0.8 -1.15 Q-0.75 -1.05 -0.75 -0.85 L-0.8 -0.65 -0.9 -0.5 -0.9 -0.55 -0.95 -0.8 -1.0 -0.9 -1.05 -0.95 Q-1.0 -1.15 -0.9 -1.25 L-0.85 -1.3" fill="#6b4e63" fill-rule="evenodd" stroke="none"/>
    <path d="M0.6 -6.05 L0.75 -6.05 0.9 -5.95 1.35 -5.5 1.7 -5.05 2.25 -4.3 2.3 -4.25 2.3 -4.2 2.25 -4.15 2.05 -4.05 1.95 -4.15 Q1.85 -4.25 1.75 -4.25 L1.7 -4.25 1.65 -4.2 Q1.6 -4.25 1.45 -4.15 L1.35 -4.05 1.2 -4.35 0.95 -4.95 0.85 -5.15 1.25 -5.05 Q1.55 -4.9 1.65 -4.9 L1.3 -5.1 Q1.1 -5.2 0.85 -5.2 L0.8 -5.25 0.65 -5.55 0.6 -5.6 0.55 -5.85 Q0.55 -6.0 0.6 -6.05 M1.35 -4.35 L1.35 -4.3 1.45 -4.3 1.45 -4.4 1.4 -4.4 Q1.35 -4.45 1.35 -4.35 M1.25 -4.65 Q1.3 -4.5 1.4 -4.5 L1.45 -4.55 1.35 -4.75 1.15 -4.75 1.25 -4.65 M1.7 -4.15 L1.8 -4.15 Q1.95 -4.15 2.0 -4.05 L2.0 -4.0 Q1.7 -3.75 1.7 -3.6 L1.7 -3.55 1.65 -3.45 1.65 -3.4 Q1.65 -3.25 1.75 -2.9 L1.7 -3.0 1.4 -3.0 1.4 -3.1 1.35 -3.1 1.25 -3.3 1.2 -3.35 1.25 -3.45 Q1.4 -3.55 1.55 -3.7 1.75 -3.9 1.75 -4.05 L1.7 -4.15" fill="#7777aa" fill-rule="evenodd" stroke="none"/>
    <path d="M4.9 -0.75 L4.95 -0.75 Q5.05 -0.75 5.05 -0.6 5.05 -0.55 5.0 -0.45 L4.95 -0.45 4.7 -0.45 4.65 -0.5 4.6 -0.5 Q4.65 -0.65 4.85 -0.75 L4.9 -0.75 M4.7 0.05 L4.8 -0.05 4.85 -0.05 4.9 -0.1 4.95 -0.1 Q5.05 -0.1 5.05 0.05 L5.0 0.15 Q4.95 0.2 4.85 0.2 L4.75 0.2 4.7 0.2 4.7 0.05" fill="#e0bd54" fill-rule="evenodd" stroke="none"/>
    <path d="M1.6 -0.2 L1.65 -0.2 1.95 0.05 1.8 0.2 1.75 0.3 1.55 0.0 1.5 -0.05 Q1.55 -0.2 1.6 -0.2 M4.9 -0.4 L4.9 -0.2 Q4.6 -0.05 4.6 0.15 L4.65 0.15 4.65 0.2 4.7 0.25 4.9 0.3 4.9 0.55 4.8 0.6 4.6 0.65 4.5 0.7 4.45 0.7 4.3 0.75 3.3 0.85 3.2 0.85 Q2.65 0.85 2.55 0.6 L2.8 0.65 Q3.3 0.65 4.1 0.2 4.9 -0.2 4.9 -0.4 M4.7 -2.1 Q5.0 -2.5 5.35 -3.1 L5.5 -3.05 5.7 -3.05 Q5.85 -3.1 5.95 -3.15 L6.0 -3.05 Q6.1 -2.85 6.15 -2.8 6.25 -2.75 6.4 -2.7 L6.45 -2.55 6.45 -2.45 Q6.45 -1.7 6.15 -1.25 5.9 -0.95 5.85 -0.65 L5.7 -0.9 5.6 -1.25 5.5 -1.55 5.45 -1.85 5.45 -1.6 Q5.45 -1.2 5.6 -0.85 5.7 -0.65 5.8 -0.5 L5.8 0.15 Q5.45 0.4 5.15 0.5 L4.95 0.6 4.95 0.3 Q5.15 0.25 5.3 0.1 L5.4 0.0 5.4 -0.2 Q5.35 -0.35 5.0 -0.25 L5.0 -0.4 5.15 -0.5 Q5.35 -0.6 5.35 -0.7 5.35 -0.95 5.15 -0.9 L5.25 -1.15 Q5.25 -1.4 4.9 -1.8 L4.7 -2.1" fill="#492321" fill-rule="evenodd" stroke="none"/>
    <path d="M1.5 -0.05 Q1.2 -0.6 1.0 -0.9 L0.9 -1.05 0.9 -1.1 0.95 -1.1 1.0 -1.15 1.05 -1.25 1.1 -1.25 Q1.5 -2.35 1.9 -2.45 L1.95 -2.25 1.85 -2.0 1.7 -1.45 1.4 -0.65 1.45 -0.5 1.5 -0.45 1.6 -0.2 Q1.55 -0.2 1.5 -0.05 M2.55 0.6 L2.55 0.55 2.5 0.4 Q2.5 0.35 2.4 0.35 L2.05 -0.05 1.8 -0.3 Q1.6 -0.5 1.6 -0.8 1.65 -1.1 1.8 -1.55 L1.8 -1.6 1.9 -1.8 Q1.95 -2.0 2.0 -2.05 L2.05 -1.95 2.2 -1.5 Q2.25 -1.4 2.3 -1.3 L2.4 -1.2 Q2.65 -0.9 3.05 -0.9 3.4 -0.9 3.75 -1.15 L4.0 -1.15 Q4.25 -1.15 4.55 -1.25 L4.8 -1.45 4.85 -1.1 4.85 -0.95 4.9 -0.85 Q4.6 -0.75 4.55 -0.6 L4.55 -0.45 Q4.55 -0.4 4.65 -0.4 L4.9 -0.4 Q4.9 -0.2 4.1 0.2 3.3 0.65 2.8 0.65 L2.55 0.6 M4.7 -2.1 L4.9 -1.8 Q5.25 -1.4 5.25 -1.15 L5.15 -0.9 5.0 -0.9 5.0 -1.0 4.9 -1.45 4.85 -1.55 Q4.7 -1.55 4.5 -1.4 4.3 -1.25 3.85 -1.25 4.2 -1.5 4.55 -1.95 L4.7 -2.1" fill="#67312e" fill-rule="evenodd" stroke="none"/>
    <path d="M2.65 -3.45 L2.5 -3.65 2.45 -3.7 2.45 -3.85 Q2.4 -3.85 2.4 -3.7 2.4 -3.6 2.45 -3.5 L2.4 -3.45 Q2.3 -3.35 2.25 -3.15 2.1 -2.8 2.1 -2.6 L2.15 -2.3 Q1.9 -2.45 1.9 -2.55 L1.9 -2.65 1.85 -2.75 1.8 -3.15 Q1.8 -3.4 1.8 -3.45 1.85 -3.6 1.9 -3.65 2.0 -3.8 2.2 -3.9 L2.35 -4.0 2.45 -4.05 2.5 -4.1 2.75 -4.25 2.9 -4.3 3.0 -4.3 3.0 -3.85 2.9 -3.7 2.65 -3.45 M3.45 -3.4 L3.7 -3.25 3.6 -3.3 3.55 -3.4 3.8 -3.55 3.9 -3.45 Q4.25 -3.1 4.25 -2.65 4.25 -2.55 4.2 -2.4 L4.15 -2.25 4.0 -2.15 3.9 -2.15 3.95 -2.2 3.95 -2.4 3.9 -2.4 3.9 -2.7 3.85 -2.75 3.75 -3.05 3.65 -3.25 3.6 -3.25 3.8 -2.85 3.85 -2.55 3.9 -2.4 3.9 -2.35 3.85 -2.2 3.85 -2.15 3.65 -1.95 3.55 -1.95 3.05 -1.85 3.0 -1.85 Q2.85 -1.85 2.7 -1.9 L2.65 -1.9 2.6 -1.95 2.55 -1.95 2.35 -2.1 2.2 -2.2 2.15 -2.45 Q2.15 -2.7 2.25 -3.0 L2.3 -3.2 2.3 -3.25 2.35 -3.25 2.5 -3.5 2.65 -3.35 2.65 -3.3 2.5 -3.25 3.05 -3.25 3.4 -3.35 3.45 -3.4 M5.65 -3.55 Q5.9 -3.55 5.9 -3.35 L5.9 -3.25 Q5.7 -3.1 5.6 -3.1 5.5 -3.2 5.5 -3.3 5.5 -3.45 5.55 -3.5 L5.65 -3.55 M5.25 -3.45 Q5.3 -3.5 5.4 -3.5 L5.45 -3.5 5.5 -3.5 5.45 -3.45 5.45 -3.4 5.5 -3.2 5.35 -3.2 5.25 -3.3 5.25 -3.45 M3.3 -1.1 L3.25 -1.1 3.1 -1.05 Q2.75 -1.05 2.55 -1.2 L2.5 -1.35 Q2.5 -1.75 2.6 -1.9 2.9 -1.75 3.25 -1.75 L3.35 -1.75 3.5 -1.8 Q3.7 -1.85 3.9 -1.95 L3.95 -1.8 3.9 -1.5 3.6 -1.25 3.4 -1.15 3.35 -1.1 3.3 -1.1 M2.45 -2.0 L2.6 -1.9 2.45 -1.75 2.45 -1.35 2.5 -1.25 2.45 -1.25 2.45 -1.3 2.4 -1.3 2.4 -1.35 Q2.3 -1.55 2.25 -1.9 L2.2 -2.05 Q2.2 -2.2 2.25 -2.05 L2.25 -2.1 Q2.4 -2.0 2.45 -2.0" fill="#bdc2ce" fill-rule="evenodd" stroke="none"/>
    <path d="M2.65 -3.45 L2.9 -3.7 3.0 -3.85 Q3.05 -3.6 3.1 -3.45 L2.8 -3.35 2.65 -3.45 M4.2 -3.75 L4.25 -3.85 Q4.5 -4.05 4.65 -4.3 L4.65 -4.65 Q4.65 -4.75 4.75 -4.85 L4.8 -4.9 5.2 -4.85 Q5.55 -4.35 5.6 -3.9 L5.55 -3.85 Q5.35 -3.9 5.2 -3.75 L5.1 -3.55 5.05 -3.7 4.9 -3.95 4.9 -3.85 5.0 -3.6 5.05 -3.35 Q4.7 -2.8 4.45 -2.5 L4.15 -2.25 4.2 -2.4 Q4.25 -2.55 4.25 -2.65 4.25 -3.1 3.9 -3.45 L3.8 -3.55 3.55 -3.4 3.6 -3.3 3.7 -3.25 3.45 -3.4 Q3.8 -3.5 4.1 -3.7 L4.2 -3.75 M5.9 -3.25 L5.9 -3.35 Q5.9 -3.55 5.65 -3.55 L5.8 -3.75 5.8 -3.7 5.95 -3.5 5.95 -3.3 5.9 -3.25 M5.25 -3.45 L5.2 -3.5 Q5.2 -3.8 5.55 -3.8 L5.65 -3.75 5.65 -3.7 5.55 -3.65 5.45 -3.5 5.4 -3.5 Q5.3 -3.5 5.25 -3.45 M3.9 -1.5 L3.95 -1.8 3.9 -1.95 4.3 -2.25 4.3 -1.9 3.9 -1.5 M5.15 -3.25 Q5.2 -3.15 5.25 -3.15 L4.85 -2.55 4.35 -1.9 4.4 -2.15 4.35 -2.25 4.3 -2.3 4.45 -2.4 Q4.9 -2.85 5.1 -3.25 L5.15 -3.25" fill="#8c8aac" fill-rule="evenodd" stroke="none"/>
  </g>
</svg>
