<?xml version="1.0" encoding="UTF-8" standalone="no"?>
<svg xmlns:ffdec="https://www.free-decompiler.com/flash" xmlns:xlink="http://www.w3.org/1999/xlink" ffdec:objectType="shape" height="32.5px" width="18.45px" xmlns="http://www.w3.org/2000/svg">
  <g transform="matrix(1.0, 0.0, 0.0, 1.0, -1.1, 2.05)">
    <path d="M3.0 -1.7 L3.15 -1.6 Q3.8 -1.4 4.65 -1.4 L5.45 -1.4 5.85 -1.35 6.3 -1.4 6.45 -1.45 7.25 -1.45 7.4 -1.35 7.45 -1.5 7.55 -1.5 7.55 -1.45 7.5 -1.3 Q7.6 -1.2 7.65 -1.1 L8.15 -1.4 9.35 -2.05 Q9.0 -1.6 8.15 -0.9 L7.6 -0.4 7.5 -0.3 7.5 -0.25 7.1 1.6 Q8.3 2.3 11.35 4.75 12.55 5.6 13.7 6.65 15.0 7.85 15.55 8.7 16.0 9.45 16.35 10.15 16.95 11.35 17.25 12.5 L17.4 13.15 17.9 15.35 Q18.2 16.6 18.2 17.45 18.5 17.75 18.65 18.3 L18.65 18.35 Q18.8 18.9 18.8 19.55 18.8 19.75 18.7 20.1 L18.75 20.25 Q18.8 20.65 18.95 21.65 L19.2 22.75 19.25 22.95 19.45 23.6 Q19.55 24.1 19.55 24.4 L19.55 24.45 19.45 24.75 Q19.35 24.95 19.35 25.05 19.35 25.25 19.2 25.7 19.05 26.35 18.8 26.85 17.95 28.4 16.65 27.9 L16.65 28.1 Q16.65 28.3 16.55 28.5 16.4 28.85 15.9 29.2 15.05 29.75 13.95 29.75 12.45 29.75 12.25 29.25 L11.45 29.85 Q10.6 30.45 10.0 30.45 9.65 30.45 9.25 30.25 L9.1 30.15 Q8.75 29.95 8.45 29.55 L8.2 29.2 8.15 29.15 Q7.65 28.3 7.55 27.65 7.45 27.15 6.75 26.8 6.15 26.45 6.15 26.2 L6.1 25.25 6.05 24.65 6.0 24.55 Q6.0 24.45 6.2 23.7 L6.4 22.9 Q6.6 22.5 7.4 21.85 L7.75 21.55 Q7.55 21.05 7.55 19.8 7.55 19.7 7.75 19.25 L8.0 18.75 7.8 18.2 7.7 17.9 Q7.6 17.95 7.4 17.95 4.45 17.95 2.7 14.7 L2.35 14.05 Q1.75 12.7 1.35 11.1 1.1 9.85 1.1 9.25 1.1 8.15 1.3 6.7 1.55 5.25 1.55 4.8 1.55 4.7 2.0 3.15 L2.1 2.8 2.2 2.2 Q2.35 1.05 2.35 0.15 2.35 -0.25 2.55 -0.9 2.75 -1.5 3.0 -1.7 M3.9 12.15 Q4.0 12.75 4.3 13.35 L4.4 13.45 Q4.6 13.9 4.95 14.35 L5.05 14.5 Q4.9 13.75 4.7 13.4 4.6 13.15 4.6 12.45 L4.55 11.65 4.4 9.55 Q4.4 9.45 4.5 8.95 L4.55 8.35 Q4.55 7.05 5.8 3.3 L6.4 1.55 6.35 1.45 Q6.35 1.35 6.45 1.35 L6.95 -0.1 7.0 -0.5 7.0 -0.6 Q7.05 -1.0 7.15 -1.25 6.85 -1.25 5.9 -1.25 L5.05 -1.3 Q3.8 -1.3 3.15 -0.65 L3.05 -0.35 Q2.85 0.3 2.85 0.9 L2.75 1.35 2.45 2.6 2.25 3.3 2.25 3.35 Q1.95 4.65 1.95 4.75 1.9 5.15 1.95 6.35 L1.7 8.0 Q1.7 10.45 2.4 12.5 L2.5 12.8 Q2.8 13.5 3.15 14.2 4.5 16.7 6.55 17.1 6.1 16.8 5.4 16.0 4.55 14.95 4.2 14.3 3.55 12.9 3.45 12.45 3.45 12.35 3.45 11.8 L3.45 11.0 Q3.45 10.7 3.3 9.95 L3.2 9.05 Q3.2 8.4 3.3 7.15 L3.4 6.05 3.5 5.25 Q3.5 4.9 3.35 4.2 L3.35 4.15 Q3.2 3.5 3.2 3.4 L3.25 3.25 3.25 3.3 3.3 3.3 3.4 4.25 3.45 4.35 3.5 4.85 3.6 5.7 3.6 7.6 3.75 10.0 3.8 10.75 3.85 11.45 3.85 11.7 3.9 12.15 M16.4 12.25 L16.35 12.15 16.35 12.1 16.05 11.2 Q15.85 10.65 15.7 10.2 15.5 9.8 15.3 9.5 14.5 8.35 12.9 7.0 11.9 6.2 9.95 4.8 L7.75 3.2 7.45 2.95 7.4 2.9 7.35 2.9 7.35 2.85 7.0 2.55 7.0 2.5 6.95 2.45 6.9 2.55 6.5 3.55 Q5.95 4.75 5.95 5.05 5.95 5.15 5.85 5.35 5.8 5.6 5.8 5.7 L5.75 6.2 5.6 6.8 Q5.4 7.4 5.4 7.45 5.4 7.55 5.3 8.15 5.15 8.75 5.15 9.35 L5.1 10.15 5.05 10.2 5.0 10.95 5.0 11.25 4.95 11.55 4.95 11.6 Q4.95 11.9 5.65 14.4 5.65 14.95 6.25 15.5 L6.75 16.0 6.85 16.15 6.8 16.0 Q6.7 15.2 6.65 14.1 L6.65 13.9 6.7 11.35 6.7 11.25 6.9 9.45 Q6.9 8.7 6.55 7.6 L6.3 6.75 6.2 6.35 6.2 6.25 6.25 6.15 6.35 6.15 6.55 6.8 6.6 6.9 6.75 7.35 Q7.3 9.2 7.35 10.45 L7.35 11.95 7.3 13.8 7.25 14.0 7.25 14.1 Q7.25 14.6 7.35 15.25 L7.4 15.75 7.45 15.85 Q7.5 16.25 7.6 16.55 7.75 17.15 8.0 17.35 L8.15 17.45 8.2 17.45 8.3 17.5 8.7 17.4 Q9.8 15.75 10.35 15.1 L10.4 15.0 Q10.55 14.8 10.8 14.35 11.05 13.9 11.25 13.65 11.5 13.4 11.85 13.2 12.65 12.7 14.15 12.35 14.35 12.5 14.5 12.85 14.7 13.35 14.9 14.3 L14.9 14.45 Q14.9 15.05 13.75 15.8 L13.15 16.15 10.95 17.15 10.85 17.2 Q10.55 17.35 10.3 17.45 L10.45 17.35 10.45 17.3 10.5 17.3 11.2 16.9 11.25 16.85 11.3 16.85 11.45 16.75 Q12.0 16.45 12.7 16.05 12.95 15.95 13.2 15.8 14.55 15.0 14.55 14.1 14.55 13.8 14.45 13.3 L14.3 12.9 Q14.25 12.7 14.15 12.65 13.2 12.5 12.3 13.15 11.5 13.7 10.75 14.85 10.6 15.15 9.7 16.65 L9.35 17.3 9.15 17.55 9.05 17.6 8.95 17.7 8.9 17.65 8.9 17.75 Q8.85 17.85 8.7 17.9 L8.75 18.05 8.75 18.15 8.8 18.35 8.8 18.8 8.85 18.85 8.85 19.05 9.0 19.2 Q9.15 19.4 9.35 19.5 L9.4 19.55 9.45 19.55 9.5 19.6 Q9.8 19.7 10.1 19.7 L11.65 19.95 12.0 19.95 12.05 19.95 14.45 19.45 14.55 19.45 14.6 19.4 15.0 19.25 15.4 19.05 16.0 18.7 Q17.2 17.9 17.2 16.9 L17.25 16.6 17.25 16.55 Q17.1 15.2 16.7 13.55 L16.7 13.5 16.5 12.6 16.4 12.25 M14.3 20.25 L12.2 20.4 Q10.7 20.4 9.45 19.95 9.1 19.8 8.8 19.65 L8.8 19.6 8.6 19.35 Q8.25 18.95 8.25 19.65 L8.25 19.7 Q8.15 19.8 8.15 19.85 8.15 20.95 9.0 21.75 L9.3 22.0 Q10.3 22.8 12.05 22.8 14.7 22.8 16.5 21.35 17.15 20.8 17.55 20.2 17.9 19.65 17.9 19.4 L17.9 19.1 17.95 19.0 17.8 18.7 Q17.6 18.7 17.45 18.9 L17.45 18.85 17.2 19.1 Q16.25 20.0 14.3 20.25 M10.9 22.8 L10.15 22.75 Q9.9 22.75 9.0 22.4 L8.55 22.2 Q8.5 22.4 8.3 22.55 L7.6 23.0 Q6.9 23.4 6.7 24.05 6.6 24.3 6.6 24.6 L6.6 24.65 Q6.6 25.45 6.85 25.75 7.0 25.95 7.4 26.05 7.7 26.15 7.85 26.25 L7.95 26.35 7.95 26.4 8.0 26.45 8.1 26.7 Q8.15 26.95 8.15 27.4 8.15 27.8 8.6 28.6 8.75 28.95 8.95 29.2 L9.15 29.4 9.25 29.45 Q9.45 29.6 9.7 29.65 L9.85 29.7 9.95 29.7 Q10.9 29.7 11.2 29.2 L11.25 29.05 Q11.35 28.75 11.45 28.65 11.4 28.35 11.25 28.0 11.1 27.65 10.95 27.5 L11.2 27.7 11.25 27.75 Q11.45 28.0 11.55 28.35 L11.6 28.55 Q11.85 28.45 12.2 28.45 12.5 28.45 12.75 28.75 12.9 28.9 13.1 28.95 L13.45 29.0 14.35 29.0 Q14.9 28.95 15.2 28.8 L14.9 28.85 15.05 28.7 15.45 28.2 Q15.75 27.8 15.75 27.55 15.75 27.2 15.45 26.85 15.2 26.5 14.8 26.5 L14.75 26.45 14.7 26.45 Q14.45 26.45 14.1 26.65 L14.0 26.7 13.7 26.9 13.65 26.9 13.55 27.0 13.25 27.25 Q12.95 27.5 12.95 27.55 12.95 27.65 13.0 27.8 L13.15 28.2 13.2 28.3 13.3 28.45 Q13.5 28.8 13.55 28.8 L13.55 28.85 Q13.45 28.9 13.35 28.9 13.25 28.5 13.0 28.05 12.8 27.75 12.8 27.45 12.8 27.25 13.3 26.95 13.7 26.7 14.1 26.6 L14.45 26.5 Q15.9 26.2 16.05 27.4 16.45 27.15 17.4 27.15 17.65 27.15 17.85 27.0 L17.35 27.05 Q17.25 26.95 17.1 26.4 17.0 25.85 17.0 25.7 17.0 25.35 17.3 25.0 17.5 24.8 17.8 24.65 17.9 24.6 18.0 24.55 18.35 24.5 18.55 24.55 L18.7 24.65 18.7 24.55 18.75 24.25 18.7 23.7 18.55 23.05 18.5 22.85 18.2 22.1 Q18.0 21.55 17.85 21.15 L17.7 21.25 17.45 21.5 17.4 21.5 Q15.45 22.9 12.1 22.9 L11.95 22.9 11.9 22.85 10.95 22.8 10.9 22.8 M9.5 29.35 Q9.25 29.2 9.1 28.85 L9.05 28.75 Q8.85 28.25 8.85 28.0 8.85 27.85 8.95 27.7 9.05 27.5 9.3 27.4 9.65 27.2 10.15 27.2 9.85 27.3 9.5 27.7 9.15 28.1 9.15 28.25 9.15 28.35 9.45 28.75 L9.7 29.1 9.95 29.35 9.9 29.4 9.65 29.4 9.5 29.35 M17.25 26.05 L17.3 26.4 Q17.3 26.5 17.35 26.6 L17.4 26.75 17.5 26.8 17.85 26.7 18.1 26.7 18.3 26.3 18.5 25.45 18.55 25.15 18.5 25.05 Q18.25 24.65 18.15 24.65 17.75 24.65 17.4 25.2 17.25 25.45 17.15 25.7 17.15 25.85 17.25 26.05" fill="#111111" fill-rule="evenodd" stroke="none"/>
    <path d="M9.3 22.0 L9.0 21.75 Q8.15 20.95 8.15 19.85 8.15 19.8 8.25 19.7 L8.25 19.65 Q8.25 18.95 8.6 19.35 L8.8 19.6 8.8 19.65 Q9.1 19.8 9.45 19.95 10.7 20.4 12.2 20.4 L14.3 20.25 14.35 20.75 Q14.35 21.6 13.15 21.9 12.15 22.15 9.75 22.15 L9.3 22.0 M6.7 24.05 Q6.9 23.4 7.6 23.0 L8.3 22.55 Q8.5 22.4 8.55 22.2 L9.0 22.4 Q9.9 22.75 10.15 22.75 L10.9 22.8 13.1 23.25 13.15 23.4 13.15 23.5 13.1 23.75 13.1 24.45 13.05 25.0 13.05 25.25 Q13.0 26.05 12.9 26.55 12.7 27.6 12.2 28.45 11.85 28.45 11.6 28.55 L11.55 28.35 11.6 28.45 11.6 28.3 Q11.6 27.9 11.15 27.3 10.75 26.65 10.65 27.6 10.55 28.4 10.0 28.85 L9.7 29.1 9.45 28.75 Q9.15 28.35 9.15 28.25 9.15 28.1 9.5 27.7 9.85 27.3 10.15 27.2 9.65 27.2 9.3 27.4 9.05 27.5 8.95 27.7 8.85 27.85 8.85 28.0 8.85 28.25 9.05 28.75 L9.1 28.85 Q9.25 29.2 9.5 29.35 L9.5 29.4 9.55 29.6 9.7 29.65 Q9.45 29.6 9.25 29.45 L9.15 29.4 8.95 29.2 Q8.75 28.95 8.6 28.6 8.15 27.8 8.15 27.4 8.15 26.95 8.1 26.7 L8.1 26.75 8.35 26.45 Q8.5 26.2 8.55 26.05 L8.6 25.95 8.55 25.85 7.2 24.5 6.7 24.05 M13.15 28.2 L13.0 27.8 Q12.95 27.65 12.95 27.55 12.95 27.5 13.25 27.25 L13.55 27.0 13.65 26.9 13.7 26.9 14.0 26.7 14.1 26.65 Q14.25 26.75 14.25 27.25 14.25 27.35 14.2 27.5 14.1 27.65 14.1 27.75 14.1 28.0 14.05 28.2 13.9 28.5 13.65 28.5 13.4 28.5 13.2 28.2 L13.15 28.2" fill="#9c8787" fill-rule="evenodd" stroke="none"/>
    <path d="M7.75 3.2 L9.95 4.8 Q11.9 6.2 12.9 7.0 14.5 8.35 15.3 9.5 15.5 9.8 15.7 10.2 15.85 10.65 16.05 11.2 L16.35 12.1 16.35 12.15 16.4 12.25 16.4 13.05 Q16.4 13.7 16.15 14.6 15.8 15.8 15.15 16.45 14.4 17.2 13.25 18.5 L12.7 19.1 12.0 19.95 11.65 19.95 10.1 19.7 Q9.8 19.7 9.5 19.6 L9.45 19.55 9.4 19.55 9.35 19.5 Q9.15 19.4 9.0 19.2 L8.85 19.05 8.85 18.85 9.25 18.4 Q9.75 17.85 10.3 17.45 10.55 17.35 10.85 17.2 L10.95 17.15 13.15 16.15 13.75 15.8 Q14.9 15.05 14.9 14.45 L14.9 14.3 Q14.7 13.35 14.5 12.85 14.35 12.5 14.15 12.35 12.65 12.7 11.85 13.2 11.5 13.4 11.25 13.65 11.05 13.9 10.8 14.35 10.55 14.8 10.4 15.0 L10.35 15.1 Q10.25 15.05 10.15 14.95 L9.25 14.65 Q7.85 14.25 7.6 12.9 7.55 12.5 7.4 12.05 L7.35 11.95 7.35 10.45 Q7.3 9.2 6.75 7.35 L6.8 7.45 Q6.7 6.95 6.55 6.8 L6.35 6.15 6.25 6.15 6.2 6.25 6.2 6.35 6.3 6.75 6.3 6.8 6.25 6.9 Q6.3 7.15 6.2 7.65 L6.1 8.25 6.05 11.95 6.15 13.25 6.1 13.2 5.5 11.5 5.45 11.4 Q5.2 10.7 5.1 10.15 L5.15 9.35 Q5.15 8.75 5.3 8.15 5.4 7.55 5.4 7.45 5.4 7.4 5.6 6.8 L5.75 6.2 Q6.25 4.9 7.15 3.9 L7.75 3.2 M7.0 2.5 L6.9 2.55 6.95 2.45 7.0 2.5 M6.75 16.0 L6.85 16.05 6.8 16.0 6.85 16.15 6.75 16.0 M10.5 17.3 Q11.0 16.95 11.3 16.85 L11.25 16.85 11.2 16.9 10.5 17.3" fill="#b63e10" fill-rule="evenodd" stroke="none"/>
    <path d="M14.3 20.25 Q16.25 20.0 17.2 19.1 L17.45 18.85 17.45 18.9 Q17.6 18.7 17.8 18.7 L17.95 19.0 17.9 19.1 17.9 19.4 Q17.9 19.65 17.55 20.2 17.15 20.8 16.5 21.35 14.7 22.8 12.05 22.8 10.3 22.8 9.3 22.0 L9.75 22.15 Q12.15 22.15 13.15 21.9 14.35 21.6 14.35 20.75 L14.3 20.25 M10.9 22.8 L10.95 22.8 11.9 22.85 11.95 22.9 12.1 22.9 Q15.45 22.9 17.4 21.5 L17.45 21.5 17.7 21.25 17.85 21.15 Q18.0 21.55 18.2 22.1 L18.5 22.85 18.55 23.05 18.7 23.7 18.75 24.25 18.7 24.55 18.7 24.65 18.55 24.55 Q18.35 24.5 18.0 24.55 17.9 24.6 17.8 24.65 17.5 24.8 17.3 25.0 17.0 25.35 17.0 25.7 17.0 25.85 17.1 26.4 17.25 26.95 17.35 27.05 L17.85 27.0 Q17.65 27.15 17.4 27.15 16.45 27.15 16.05 27.4 15.9 26.2 14.45 26.5 L14.1 26.6 Q13.7 26.7 13.3 26.95 12.8 27.25 12.8 27.45 12.8 27.75 13.0 28.05 13.25 28.5 13.35 28.9 13.45 28.9 13.55 28.85 L13.55 28.8 Q13.5 28.8 13.3 28.45 L13.2 28.3 13.15 28.2 13.2 28.2 Q13.4 28.5 13.65 28.5 13.9 28.5 14.05 28.2 14.1 28.0 14.1 27.75 14.1 27.65 14.2 27.5 14.25 27.35 14.25 27.25 14.25 26.75 14.1 26.65 L14.0 26.7 14.1 26.65 Q14.45 26.45 14.7 26.45 L14.75 26.45 14.8 26.5 Q15.2 26.5 15.45 26.85 15.75 27.2 15.75 27.55 15.75 27.8 15.45 28.2 L15.05 28.7 14.9 28.85 15.2 28.8 Q14.9 28.95 14.35 29.0 L13.45 29.0 13.1 28.95 Q12.9 28.9 12.75 28.75 12.5 28.45 12.2 28.45 12.7 27.6 12.9 26.55 13.0 26.05 13.05 25.25 L13.05 25.0 13.1 24.45 13.1 23.75 13.15 23.5 13.15 23.4 13.1 23.25 10.9 22.8 M11.55 28.35 Q11.45 28.0 11.25 27.75 L11.2 27.7 10.95 27.5 Q11.1 27.65 11.25 28.0 11.4 28.35 11.45 28.65 11.35 28.75 11.25 29.05 L11.2 29.2 Q10.9 29.7 9.95 29.7 L9.85 29.7 9.7 29.65 9.55 29.6 9.5 29.4 9.5 29.35 9.65 29.4 9.9 29.4 9.95 29.35 9.7 29.1 10.0 28.85 Q10.55 28.4 10.65 27.6 10.75 26.65 11.15 27.3 11.6 27.9 11.6 28.3 L11.6 28.45 11.55 28.35 M8.1 26.7 L8.0 26.45 7.95 26.4 7.95 26.35 7.85 26.25 Q7.7 26.15 7.4 26.05 7.0 25.95 6.85 25.75 6.6 25.45 6.6 24.65 L6.6 24.6 Q6.6 24.3 6.7 24.05 L7.2 24.5 8.55 25.85 8.6 25.95 8.55 26.05 Q8.5 26.2 8.35 26.45 L8.1 26.75 8.1 26.7 M17.25 26.05 Q17.15 25.85 17.15 25.7 17.25 25.45 17.4 25.2 17.75 24.65 18.15 24.65 18.25 24.65 18.5 25.05 L18.55 25.15 18.5 25.45 18.3 26.3 18.1 26.7 17.85 26.7 17.5 26.8 17.4 26.75 17.35 26.6 Q17.3 26.5 17.3 26.4 L17.25 26.05" fill="#725c5c" fill-rule="evenodd" stroke="none"/>
    <path d="M7.75 3.2 L7.15 3.9 Q6.25 4.9 5.75 6.2 L5.8 5.7 Q5.8 5.6 5.85 5.35 5.95 5.15 5.95 5.05 5.95 4.75 6.5 3.55 L6.9 2.55 7.0 2.5 7.0 2.55 7.35 2.85 7.35 2.9 7.4 2.9 7.45 2.95 7.75 3.2 M5.1 10.15 Q5.2 10.7 5.45 11.4 L5.5 11.5 6.1 13.2 6.15 13.25 6.05 11.95 6.1 8.25 6.2 7.65 Q6.3 7.15 6.25 6.9 L6.3 6.8 6.3 6.75 6.55 7.6 Q6.9 8.7 6.9 9.45 L6.7 11.25 6.7 11.35 6.65 13.9 6.65 14.1 Q6.7 15.2 6.8 16.0 L6.85 16.05 6.75 16.0 6.25 15.5 Q5.65 14.95 5.65 14.4 4.95 11.9 4.95 11.6 L4.95 11.55 5.0 11.25 5.0 10.95 5.05 10.2 5.1 10.15 M6.55 6.8 Q6.7 6.95 6.8 7.45 L6.75 7.35 6.6 6.9 6.55 6.8 M7.35 11.95 L7.4 12.05 Q7.55 12.5 7.6 12.9 7.85 14.25 9.25 14.65 L10.15 14.95 Q10.25 15.05 10.35 15.1 9.8 15.75 8.7 17.4 L8.3 17.5 8.2 17.45 8.15 17.45 8.0 17.35 Q7.75 17.15 7.6 16.55 7.5 16.25 7.45 15.85 L7.4 15.75 7.35 15.25 Q7.25 14.6 7.25 14.1 L7.25 14.0 7.3 13.8 7.35 11.95 M10.3 17.45 Q9.75 17.85 9.25 18.4 L8.85 18.85 8.8 18.8 8.8 18.35 8.75 18.15 8.75 18.05 8.7 17.9 Q8.85 17.85 8.9 17.75 L8.9 17.65 8.95 17.7 9.05 17.6 9.15 17.55 9.35 17.3 9.7 16.65 Q10.6 15.15 10.75 14.85 11.5 13.7 12.3 13.15 13.2 12.5 14.15 12.65 14.25 12.7 14.3 12.9 L14.45 13.3 Q14.55 13.8 14.55 14.1 14.55 15.0 13.2 15.8 12.95 15.95 12.7 16.05 12.0 16.45 11.45 16.75 L11.3 16.85 Q11.0 16.95 10.5 17.3 L10.45 17.3 10.45 17.35 10.3 17.45 M12.0 19.95 L12.7 19.1 13.25 18.5 Q14.4 17.2 15.15 16.45 15.8 15.8 16.15 14.6 16.4 13.7 16.4 13.05 L16.4 12.25 16.5 12.6 16.7 13.5 16.7 13.55 Q17.1 15.2 17.25 16.55 L17.25 16.6 17.2 16.9 Q17.2 17.9 16.0 18.7 L15.4 19.05 15.0 19.25 14.6 19.4 14.55 19.45 14.45 19.45 12.05 19.95 12.0 19.95" fill="#821a0b" fill-rule="evenodd" stroke="none"/>
    <path d="M2.25 3.35 L2.25 3.3 2.45 2.6 2.75 1.35 2.85 0.9 Q2.85 0.3 3.05 -0.35 L3.15 -0.65 Q3.8 -1.3 5.05 -1.3 L5.9 -1.25 Q6.85 -1.25 7.15 -1.25 7.05 -1.0 7.0 -0.6 L7.0 -0.5 6.95 -0.1 6.45 1.35 Q6.35 1.35 6.35 1.45 L6.4 1.55 5.8 3.3 Q4.55 7.05 4.55 8.35 L4.5 8.95 Q4.4 9.45 4.4 9.55 L4.55 11.65 4.6 12.45 Q4.6 13.15 4.7 13.4 4.9 13.75 5.05 14.5 L4.95 14.35 Q4.6 13.9 4.4 13.45 L4.3 13.35 Q4.0 12.75 3.9 12.15 4.1 12.7 4.3 13.2 4.2 12.5 4.15 11.7 L4.15 10.9 4.3 9.6 Q4.45 8.4 4.45 7.9 4.45 7.8 4.5 7.4 L4.6 6.9 Q4.6 6.8 4.65 6.25 L4.75 5.6 Q4.75 5.35 5.4 3.0 L6.2 0.1 6.15 0.0 4.05 0.9 4.45 0.9 Q4.8 0.95 4.85 1.15 4.1 1.7 3.55 2.1 2.5 2.85 2.2 3.45 L2.25 3.35 M3.6 5.7 L3.5 4.85 3.45 4.35 3.4 4.25 Q3.65 4.7 3.65 5.05 L3.6 5.7 M3.35 4.15 L3.35 4.2 Q3.5 4.9 3.5 5.25 L3.4 6.05 3.3 7.15 Q3.2 8.4 3.2 9.05 L3.3 9.95 Q3.45 10.7 3.45 11.0 L3.45 11.8 Q3.45 12.35 3.45 12.45 3.55 12.9 4.2 14.3 4.55 14.95 5.4 16.0 6.1 16.8 6.55 17.1 4.5 16.7 3.15 14.2 2.8 13.5 2.5 12.8 3.3 13.6 3.45 13.7 3.05 12.7 2.85 11.85 L2.7 11.15 Q2.5 10.05 2.5 8.7 2.5 8.25 2.65 7.35 2.85 6.35 2.85 5.9 L2.9 5.15 Q2.95 4.7 3.0 4.5 3.15 3.9 3.35 4.15" fill="#ba8a32" fill-rule="evenodd" stroke="none"/>
    <path d="M2.25 3.35 L2.2 3.45 Q2.5 2.85 3.55 2.1 4.1 1.7 4.85 1.15 4.8 0.95 4.45 0.9 L4.05 0.9 6.15 0.0 6.2 0.1 5.4 3.0 Q4.75 5.35 4.75 5.6 L4.65 6.25 Q4.6 6.8 4.6 6.9 L4.5 7.4 Q4.45 7.8 4.45 7.9 4.45 8.4 4.3 9.6 L4.15 10.9 4.15 11.7 Q4.2 12.5 4.3 13.2 4.1 12.7 3.9 12.15 L3.85 11.7 3.85 11.45 3.8 10.75 3.75 10.0 3.6 7.6 3.6 5.7 3.65 5.05 Q3.65 4.7 3.4 4.25 L3.3 3.3 3.25 3.3 3.25 3.25 3.2 3.4 Q3.2 3.5 3.35 4.15 3.15 3.9 3.0 4.5 2.95 4.7 2.9 5.15 L2.85 5.9 Q2.85 6.35 2.65 7.35 2.5 8.25 2.5 8.7 2.5 10.05 2.7 11.15 L2.85 11.85 Q3.05 12.7 3.45 13.7 3.3 13.6 2.5 12.8 L2.4 12.5 Q1.7 10.45 1.7 8.0 L1.95 6.35 Q1.9 5.15 1.95 4.75 1.95 4.65 2.25 3.35" fill="#bcb447" fill-rule="evenodd" stroke="none"/>
  </g>
</svg>
