<?xml version="1.0" encoding="UTF-8" standalone="no"?>
<svg xmlns:ffdec="https://www.free-decompiler.com/flash" xmlns:xlink="http://www.w3.org/1999/xlink" ffdec:objectType="shape" height="20.15px" width="29.35px" xmlns="http://www.w3.org/2000/svg">
  <g transform="matrix(1.0, 0.0, 0.0, 1.0, -5.55, 0.75)">
    <path d="M15.4 -0.75 L19.65 -0.75 Q28.1 0.15 31.7 2.85 33.5 4.2 34.35 6.2 L34.45 6.7 Q34.9 8.7 34.9 10.35 34.9 11.5 34.6 12.6 34.35 13.5 33.85 14.55 33.35 15.2 32.2 16.1 L32.3 16.4 Q32.4 16.65 32.35 16.95 32.35 17.4 32.1 17.75 31.7 18.35 30.8 18.35 L29.7 18.2 Q28.9 18.0 28.0 18.0 26.35 18.0 24.25 18.7 22.45 19.4 22.3 19.4 20.6 19.4 20.45 17.7 20.4 17.2 20.5 16.55 L20.6 15.95 20.6 15.9 Q20.0 15.6 19.6 15.2 L19.55 15.35 Q19.35 15.8 18.95 16.2 17.8 17.4 15.75 17.4 14.35 17.4 10.75 15.9 7.15 14.4 7.15 13.9 7.15 13.1 8.2 12.65 7.4 12.3 6.7 11.15 6.35 10.8 6.1 10.35 5.55 9.25 5.55 8.0 5.55 6.65 6.0 5.7 6.3 4.4 7.1 2.85 L7.8 1.45 8.0 1.35 Q9.45 0.7 15.4 -0.75 M10.8 9.9 Q10.45 9.6 10.15 9.3 L10.2 9.3 10.2 9.35 10.9 9.8 11.0 9.85 11.7 10.35 11.9 10.45 Q12.35 10.7 12.75 10.9 L12.75 10.9 Q13.15 11.05 13.5 11.1 L15.15 11.3 17.1 11.35 17.15 11.35 19.05 11.8 19.2 11.95 Q19.3 12.1 19.3 12.3 19.3 12.5 19.35 12.75 19.4 13.25 19.65 13.75 L19.95 14.2 20.2 14.55 20.3 14.6 Q20.65 14.95 21.1 15.25 L21.2 15.3 Q21.55 15.5 21.9 15.65 L22.25 15.85 Q24.4 16.8 27.45 16.8 30.85 16.8 32.65 14.75 33.25 14.05 33.6 13.25 L33.6 13.15 33.65 13.15 33.65 13.05 33.85 12.35 34.05 11.4 Q34.1 11.1 34.1 9.95 34.1 6.65 32.55 4.65 31.25 3.05 28.7 2.15 27.2 1.6 24.0 1.05 20.95 0.55 19.8 0.1 L15.3 0.1 Q14.2 0.35 12.25 0.95 10.15 1.6 8.8 1.95 8.25 2.1 7.65 2.55 7.05 2.95 6.95 3.3 L6.95 3.25 Q7.7 2.55 8.2 2.5 8.75 2.4 8.75 3.2 8.75 3.35 8.35 3.9 7.8 4.7 7.55 5.1 6.4 6.95 6.35 8.75 L6.4 8.8 Q6.6 9.3 6.85 9.7 7.15 10.25 7.55 10.7 L8.1 11.35 8.15 11.4 8.15 11.45 8.2 11.45 8.3 11.55 Q9.15 12.4 10.15 13.0 12.75 14.6 16.4 14.6 L18.25 14.55 Q18.35 14.5 18.85 14.25 18.5 13.5 18.5 12.5 15.75 12.1 13.85 11.5 L12.95 11.15 12.9 11.15 12.55 11.0 Q12.0 10.7 11.5 10.4 L11.4 10.35 10.8 9.9 M31.2 16.5 Q30.9 16.5 30.75 16.6 L30.3 16.8 Q29.35 17.1 26.25 17.1 25.65 17.1 24.65 16.8 L23.05 16.3 Q22.2 16.05 21.8 16.05 21.7 16.0 21.6 15.95 21.0 15.8 21.0 17.1 L21.0 17.4 Q21.0 17.7 21.1 17.95 21.35 18.75 22.1 18.75 22.35 18.75 22.5 18.6 L22.55 18.55 Q23.2 18.5 23.8 18.35 L25.15 17.95 Q27.3 17.4 30.75 17.4 31.25 17.4 31.4 17.15 31.5 17.0 31.45 16.65 L31.4 16.5 31.2 16.5 M9.15 13.35 Q8.3 13.65 8.0 13.75 9.55 14.7 11.3 15.45 14.0 16.6 15.9 16.6 17.55 16.6 18.45 15.4 L18.6 15.15 Q18.5 15.1 18.25 15.1 L16.65 14.9 Q13.7 14.7 12.2 14.2 11.15 13.75 10.45 13.55 9.6 13.25 9.25 13.3 L9.15 13.35" fill="#111111" fill-rule="evenodd" stroke="none"/>
    <path d="M6.85 9.7 L7.1 9.65 6.9 9.75 Q7.1 10.15 7.4 10.5 L8.0 10.25 10.8 9.9 11.4 10.35 11.5 10.4 Q12.0 10.7 12.55 11.0 L12.05 11.15 Q10.95 11.5 10.4 11.5 8.75 11.5 7.65 10.8 L7.55 10.7 Q7.15 10.25 6.85 9.7 M25.4 12.15 L27.25 12.95 Q26.9 13.35 26.05 13.75 25.65 13.95 25.25 14.05 L24.35 14.15 Q24.35 14.5 22.8 14.05 21.2 13.6 20.75 13.0 L20.4 12.2 20.55 12.05 Q21.35 11.35 21.5 10.9 L21.35 11.0 21.55 10.85 Q23.4 11.35 25.4 12.15" fill="#173f33" fill-rule="evenodd" stroke="none"/>
    <path d="M6.85 9.7 Q6.6 9.3 6.4 8.8 L6.35 8.75 Q6.4 6.95 7.55 5.1 7.8 4.7 8.35 3.9 8.75 3.35 8.75 3.2 8.75 2.4 8.2 2.5 7.7 2.55 6.95 3.25 L6.95 3.3 Q7.05 2.95 7.65 2.55 8.25 2.1 8.8 1.95 10.15 1.6 12.25 0.95 14.2 0.35 15.3 0.1 L19.8 0.1 Q20.95 0.55 24.0 1.05 27.2 1.6 28.7 2.15 31.25 3.05 32.55 4.65 34.1 6.65 34.1 9.95 34.1 11.1 34.05 11.4 L33.85 12.35 33.65 13.05 33.65 13.15 33.6 13.15 33.6 13.25 Q33.25 14.05 32.65 14.75 30.85 16.8 27.45 16.8 24.4 16.8 22.25 15.85 L21.9 15.65 Q21.55 15.5 21.2 15.3 L21.1 15.25 Q20.65 14.95 20.3 14.6 L20.2 14.55 19.95 14.2 19.65 13.75 Q19.4 13.25 19.35 12.75 19.3 12.5 19.3 12.3 19.3 12.1 19.2 11.95 L19.05 11.8 17.15 11.35 17.1 11.35 15.15 11.3 13.5 11.1 Q13.15 11.05 12.75 10.9 L12.75 10.9 Q12.35 10.7 11.9 10.45 L11.7 10.35 11.0 9.85 10.9 9.8 10.2 9.35 10.2 9.3 10.15 9.3 Q10.45 9.6 10.8 9.9 L8.0 10.25 7.4 10.5 Q7.1 10.15 6.9 9.75 L7.1 9.65 6.85 9.7 M11.4 10.35 L11.5 10.4 11.4 10.35 M12.55 11.0 L12.9 11.15 12.95 11.15 13.85 11.5 Q15.75 12.1 18.5 12.5 18.5 13.5 18.85 14.25 18.35 14.5 18.25 14.55 L16.4 14.6 Q12.75 14.6 10.15 13.0 9.15 12.4 8.3 11.55 L8.2 11.45 8.15 11.45 8.15 11.4 8.1 11.35 7.55 10.7 7.65 10.8 Q8.75 11.5 10.4 11.5 10.95 11.5 12.05 11.15 L12.55 11.0 M25.4 12.15 Q23.4 11.35 21.55 10.85 L21.35 11.0 21.5 10.9 Q21.35 11.35 20.55 12.05 L20.4 12.2 20.75 13.0 Q21.2 13.6 22.8 14.05 24.35 14.5 24.35 14.15 L25.25 14.05 Q25.65 13.95 26.05 13.75 26.9 13.35 27.25 12.95 L25.4 12.15 M31.2 16.5 L31.4 16.5 31.45 16.65 Q31.5 17.0 31.4 17.15 31.25 17.4 30.75 17.4 27.3 17.4 25.15 17.95 L23.8 18.35 Q23.2 18.5 22.55 18.55 L22.5 18.6 Q22.35 18.75 22.1 18.75 21.35 18.75 21.1 17.95 21.0 17.7 21.0 17.4 L21.0 17.1 Q21.0 15.8 21.6 15.95 21.7 16.0 21.8 16.05 22.2 16.05 23.05 16.3 L24.65 16.8 Q25.65 17.1 26.25 17.1 29.35 17.1 30.3 16.8 L30.75 16.6 Q30.9 16.5 31.2 16.5 M9.15 13.35 L9.25 13.3 Q9.6 13.25 10.45 13.55 11.15 13.75 12.2 14.2 13.7 14.7 16.65 14.9 L18.25 15.1 Q18.5 15.1 18.6 15.15 L18.45 15.4 Q17.55 16.6 15.9 16.6 14.0 16.6 11.3 15.45 9.55 14.7 8.0 13.75 8.3 13.65 9.15 13.35" fill="#0b2a20" fill-rule="evenodd" stroke="none"/>
  </g>
</svg>
