<?xml version="1.0" encoding="UTF-8" standalone="no"?>
<svg xmlns:ffdec="https://www.free-decompiler.com/flash" xmlns:xlink="http://www.w3.org/1999/xlink" ffdec:objectType="shape" height="15.45px" width="15.95px" xmlns="http://www.w3.org/2000/svg">
  <g transform="matrix(1.0, 0.0, 0.0, 1.0, -1.45, 2.05)">
    <path d="M6.7 9.1 Q6.9 9.85 6.9 10.7 6.9 11.85 6.7 12.3 L6.6 12.45 8.35 12.45 Q13.45 11.35 15.35 9.0 16.55 7.5 16.55 4.85 16.55 3.2 15.9 1.75 15.25 0.3 14.2 -0.5 13.1 -1.3 11.95 -1.1 10.65 -0.85 9.55 0.6 8.65 2.0 8.3 2.45 L7.55 3.2 Q9.3 3.1 10.2 3.95 L11.35 5.2 Q12.1 6.0 12.1 6.45 L12.1 6.5 Q11.45 5.45 11.0 4.9 10.1 3.9 8.75 3.9 L6.95 3.95 6.4 4.2 6.05 4.45 5.95 4.55 5.4 5.0 4.8 5.5 4.3 5.9 5.0 6.5 5.9 7.3 Q6.45 7.9 6.7 9.0 L6.7 9.1 M1.5 8.1 L1.5 7.8 Q1.5 7.25 1.65 6.85 L1.5 6.75 1.45 6.55 Q1.45 6.1 2.1 5.7 2.75 5.35 3.55 5.5 L3.85 5.25 Q5.1 4.25 5.3 4.2 6.0 3.85 6.6 3.45 7.35 2.95 7.6 2.55 7.95 1.9 8.55 0.6 9.2 -0.5 10.25 -1.35 11.9 -2.75 14.1 -1.45 14.9 -0.95 15.6 -0.2 16.2 0.4 16.4 0.9 16.9 1.75 17.15 2.85 17.4 3.9 17.4 4.85 17.4 5.85 17.15 7.25 16.75 9.15 16.15 9.6 15.75 9.9 14.75 10.75 13.85 11.55 13.25 11.95 11.2 13.3 8.3 13.0 L6.05 13.0 Q5.45 13.4 4.4 13.4 3.2 13.4 2.7 13.0 2.4 12.8 2.4 12.5 2.4 12.4 2.5 12.25 2.5 12.2 2.55 12.1 3.2 12.75 4.15 12.75 5.5 12.75 5.95 11.85 6.2 11.4 6.2 10.55 6.2 9.8 6.05 9.15 5.85 8.35 5.45 7.7 4.8 6.6 3.85 6.25 2.85 5.9 2.2 6.45 1.6 6.95 1.5 8.1 M6.1 13.0 L6.7 12.95 6.15 12.95 6.1 13.0" fill="#111111" fill-rule="evenodd" stroke="none"/>
    <path d="M4.8 5.5 L4.7 5.55 Q5.65 5.75 6.2 6.15 7.1 6.8 7.65 7.6 7.75 7.75 7.85 8.25 L7.9 8.5 8.05 8.4 Q7.25 8.9 6.7 9.1 L6.7 9.0 Q6.45 7.9 5.9 7.3 L5.0 6.5 4.3 5.9 4.8 5.5" fill="#b63e10" fill-rule="evenodd" stroke="none"/>
    <path d="M2.55 12.1 Q2.05 11.6 1.75 10.65 L1.75 10.55 Q1.85 10.5 2.0 10.5 L3.2 10.45 Q5.2 10.35 5.9 9.3 L6.05 9.15 Q6.2 9.8 6.2 10.55 6.2 11.4 5.95 11.85 5.5 12.75 4.15 12.75 3.2 12.75 2.55 12.1" fill="#725c5c" fill-rule="evenodd" stroke="none"/>
    <path d="M4.8 5.5 L5.4 5.0 5.95 4.55 6.05 4.45 6.4 4.2 6.95 3.95 8.75 3.9 Q10.1 3.9 11.0 4.9 11.45 5.45 12.1 6.5 L12.1 6.45 Q12.1 6.0 11.35 5.2 L10.2 3.95 Q9.3 3.1 7.55 3.2 L8.3 2.45 Q8.65 2.0 9.55 0.6 10.65 -0.85 11.95 -1.1 13.1 -1.3 14.2 -0.5 15.25 0.3 15.9 1.75 16.55 3.2 16.55 4.85 16.55 7.5 15.35 9.0 13.45 11.35 8.35 12.45 L6.6 12.45 6.7 12.3 Q6.9 11.85 6.9 10.7 6.9 9.85 6.7 9.1 7.25 8.9 8.05 8.4 L7.9 8.5 7.85 8.25 Q7.75 7.75 7.65 7.6 7.1 6.8 6.2 6.15 5.65 5.75 4.7 5.55 L4.8 5.5" fill="#821a0b" fill-rule="evenodd" stroke="none"/>
    <path d="M1.75 10.55 Q1.55 9.95 1.5 9.25 L1.45 8.6 Q1.45 8.3 1.5 8.1 1.6 6.95 2.2 6.45 2.85 5.9 3.85 6.25 4.8 6.6 5.45 7.7 5.85 8.35 6.05 9.15 L5.9 9.3 Q5.2 10.35 3.2 10.45 L2.0 10.5 Q1.85 10.5 1.75 10.55" fill="#9c8787" fill-rule="evenodd" stroke="none"/>
  </g>
</svg>
