<?xml version="1.0" encoding="UTF-8" standalone="no"?>
<svg xmlns:ffdec="https://www.free-decompiler.com/flash" xmlns:xlink="http://www.w3.org/1999/xlink" ffdec:objectType="shape" height="56.05px" width="50.7px" xmlns="http://www.w3.org/2000/svg">
  <g transform="matrix(1.0, 0.0, 0.0, 1.0, -8.25, 4.45)">
    <path d="M20.8 -2.1 Q19.8 -1.4 19.8 -0.9 19.8 -0.7 20.1 -0.3 L20.3 0.0 20.45 0.2 20.8 0.6 21.05 1.0 Q21.35 1.15 21.95 2.0 L22.0 2.1 22.1 2.35 Q22.2 2.25 22.3 2.25 L22.45 1.85 22.4 1.85 22.4 1.8 22.35 1.65 Q22.35 1.5 22.7 1.25 L23.3 0.9 23.4 0.85 Q23.8 0.7 24.05 0.7 24.45 0.7 24.45 1.05 24.45 1.3 24.3 1.5 L24.25 1.55 Q24.15 1.65 24.1 1.85 L24.1 1.8 24.4 1.75 25.0 1.7 25.05 1.7 25.15 1.75 Q25.15 0.6 26.25 0.95 L26.5 1.05 Q27.0 1.25 27.5 1.65 L27.8 0.85 Q28.45 -0.85 28.45 -1.05 L28.35 -2.7 Q28.35 -3.15 27.7 -3.5 L27.6 -3.55 27.1 -3.75 Q26.55 -3.9 25.9 -3.95 L25.0 -3.65 Q24.55 -3.5 24.55 -3.15 L24.55 -3.05 Q24.65 -2.85 24.65 -2.55 L24.8 -2.1 Q24.9 -1.75 24.95 -1.35 25.05 -0.9 25.05 -0.35 L25.0 0.25 Q24.95 0.55 24.65 0.7 24.8 0.45 24.85 0.1 L24.85 -0.65 24.6 -2.1 24.55 -2.2 24.5 -2.35 24.45 -2.3 Q24.3 -2.15 24.15 -2.15 L24.15 -2.1 Q24.3 -1.5 24.3 -1.05 L24.3 -0.8 24.25 -0.8 Q24.2 -1.2 23.9 -1.9 L23.85 -2.2 Q23.75 -2.2 23.7 -2.3 23.65 -2.5 23.6 -2.6 23.4 -2.95 22.05 -2.9 L21.8 -2.75 20.8 -2.05 20.85 -2.1 21.0 -2.25 20.8 -2.1 M20.7 -2.8 Q21.35 -3.2 22.1 -3.55 L23.3 -3.6 Q23.5 -3.55 23.65 -3.4 L24.1 -2.85 24.2 -2.9 24.2 -2.85 24.25 -2.95 24.3 -3.0 24.35 -3.15 Q24.35 -3.25 24.25 -3.4 24.2 -3.55 24.2 -3.65 24.2 -3.95 24.4 -4.25 26.15 -4.6 27.35 -4.35 28.9 -4.0 28.9 -2.85 L28.9 -2.8 28.95 -2.7 Q29.05 -2.55 29.1 -2.4 L29.25 -2.4 Q29.3 -2.65 29.4 -2.85 29.85 -3.55 31.65 -3.6 33.0 -3.9 33.75 -2.85 34.25 -2.1 34.25 -1.55 34.25 -1.2 33.75 -0.8 L33.3 -0.5 Q32.8 0.1 32.8 0.15 32.8 0.35 33.1 0.4 L34.3 0.45 34.7 0.35 Q34.95 0.25 35.05 0.25 35.25 0.25 35.55 0.7 L35.7 0.9 Q36.05 1.45 36.2 1.9 L36.4 2.75 36.55 3.5 Q36.55 4.05 35.65 4.05 L35.15 3.95 34.95 3.9 35.05 4.05 Q35.2 4.25 35.2 4.65 L35.15 4.95 Q36.3 5.4 37.85 6.5 L38.8 7.25 Q39.1 7.5 39.5 7.95 L41.6 5.85 41.6 5.7 42.5 4.5 42.55 4.45 Q43.0 4.1 43.45 3.35 43.5 3.3 43.4 2.95 L43.15 2.2 Q42.9 1.05 43.3 0.45 43.4 0.25 44.15 -0.5 L44.85 -1.2 Q45.3 -1.8 45.75 -1.95 46.1 -2.15 47.35 -1.25 L48.5 -0.45 48.55 -0.5 Q49.6 0.2 50.15 0.65 L50.65 1.1 50.9 1.1 Q51.2 1.4 51.7 1.75 51.9 2.5 51.55 3.35 51.25 3.65 50.85 3.85 50.35 4.4 50.0 4.85 49.45 5.5 48.3 5.7 46.9 6.0 45.35 5.25 L44.75 6.15 Q43.95 6.55 43.45 7.35 L43.35 7.5 43.1 7.65 42.85 7.9 41.65 9.25 Q41.45 9.45 40.95 10.15 L41.45 11.1 Q41.7 11.4 41.9 11.85 L42.0 11.85 Q43.35 12.0 43.95 12.9 L44.2 13.45 44.25 13.45 Q44.55 13.8 45.3 14.35 L47.25 12.8 49.25 11.1 49.45 10.85 Q49.45 10.7 49.6 10.65 L50.4 9.65 Q50.85 9.15 51.35 8.7 L51.65 8.45 52.6 7.55 53.45 7.55 53.8 7.6 54.05 7.95 54.35 8.2 Q54.8 8.6 55.2 9.05 55.4 9.15 55.8 9.65 L56.35 10.3 Q56.65 10.65 56.75 10.85 L57.0 11.3 Q57.4 11.75 58.2 12.85 58.95 13.85 58.95 13.95 58.95 14.05 58.1 15.2 L56.6 17.1 56.15 17.95 55.5 18.6 Q55.0 19.05 53.4 19.8 L53.5 19.65 Q53.35 19.3 53.25 18.5 53.05 16.85 52.85 16.5 L52.15 14.8 Q51.95 14.4 51.2 13.95 50.9 13.75 50.75 13.6 L49.9 14.4 48.5 15.75 48.5 15.8 Q48.5 16.0 46.15 18.3 46.6 18.75 47.05 19.5 47.75 20.7 47.75 21.05 46.95 23.45 46.0 24.7 L47.5 24.85 49.4 25.15 50.95 25.35 54.6 25.15 56.45 25.25 Q56.55 24.95 56.8 25.35 56.95 25.5 57.0 25.75 57.15 26.1 57.25 26.5 57.25 26.85 57.35 27.5 L57.45 28.25 57.4 28.55 Q57.3 29.15 56.75 29.8 55.9 30.8 54.45 30.8 53.65 30.8 53.4 30.65 L53.0 31.45 Q53.25 31.5 53.6 31.75 54.0 32.1 54.3 32.5 54.65 33.0 54.65 33.35 54.65 34.3 54.0 35.45 52.95 37.25 51.05 37.25 L50.1 36.7 49.5 36.35 Q49.35 36.8 49.15 36.95 49.4 37.35 49.4 37.7 49.4 39.35 49.0 40.8 48.7 42.05 48.15 42.9 48.15 44.15 47.35 45.05 46.65 45.8 44.3 47.45 38.3 51.6 35.15 51.6 33.0 51.6 30.8 50.7 28.75 49.85 27.0 48.4 25.35 47.0 24.35 45.45 23.35 43.85 23.35 42.55 22.7 41.95 22.1 41.55 20.05 40.05 18.45 38.1 17.4 36.75 15.95 34.4 12.6 28.95 11.55 25.9 L11.3 25.25 Q10.65 22.95 10.65 20.1 L10.7 18.8 Q10.8 17.65 10.85 17.4 L10.9 16.75 Q10.95 16.3 11.0 16.05 11.05 15.85 11.2 15.65 L11.3 15.15 11.7 13.65 Q12.0 12.75 12.2 12.05 L11.3 11.15 Q10.45 10.3 10.15 10.05 8.25 8.15 8.25 7.8 8.25 5.7 9.2 4.8 L9.85 4.2 Q10.1 3.95 10.15 3.6 9.75 3.1 9.75 3.05 9.75 2.65 11.3 2.0 12.1 1.7 13.0 1.4 13.6 1.3 14.7 2.0 15.7 2.65 15.7 3.0 L15.4 3.6 Q15.1 4.2 15.1 4.4 15.1 5.35 15.45 6.4 L15.7 7.1 16.3 6.65 Q16.1 6.45 15.8 5.8 15.4 5.0 15.4 4.9 15.4 4.75 16.1 4.3 16.85 3.8 17.6 3.6 19.55 2.95 19.75 4.75 20.15 4.45 20.5 4.2 20.55 3.6 20.8 3.2 L19.65 3.15 Q19.25 3.15 19.1 2.35 L19.1 1.5 Q19.1 0.6 19.8 0.1 19.15 -0.8 19.15 -0.85 19.15 -1.85 20.7 -2.8 M24.4 -0.35 Q24.5 0.25 24.5 0.5 L24.45 0.75 24.4 0.75 Q24.4 0.4 24.3 -0.35 L24.4 -0.35 M29.15 -1.65 Q28.9 -1.65 28.75 -1.8 28.6 -0.95 28.2 0.35 L27.7 1.75 27.9 1.9 27.85 2.1 Q27.95 2.05 28.1 2.05 28.2 1.5 28.55 0.45 L29.2 -1.65 29.15 -1.65 M33.25 -2.8 Q33.0 -3.05 32.65 -3.05 L31.95 -3.05 30.5 -3.0 Q29.6 -2.0 29.15 -0.1 L29.1 0.1 Q28.9 0.95 28.75 1.3 28.65 1.7 28.45 2.1 L28.6 2.1 Q28.95 2.15 29.2 2.3 29.55 1.7 30.7 0.7 L30.75 0.7 31.35 0.15 33.7 -1.75 Q33.7 -2.0 33.5 -2.4 33.4 -2.65 33.25 -2.8 M45.25 -0.65 Q45.3 -0.85 45.45 -1.0 L45.55 -1.15 Q44.7 -0.8 43.7 0.7 43.3 1.3 43.7 2.3 L44.0 3.0 Q44.15 3.3 44.05 3.45 43.75 3.9 43.15 4.5 43.85 4.95 43.95 5.0 L44.0 5.25 Q44.2 5.5 44.3 5.65 L44.6 5.25 Q44.9 4.75 45.1 4.65 45.3 4.55 45.6 4.7 L46.1 5.05 Q46.55 5.3 46.95 5.35 L48.0 5.25 Q48.8 5.1 49.05 4.9 49.5 4.55 50.2 3.85 50.9 3.1 51.2 2.65 L51.25 2.55 51.4 2.4 Q51.5 2.25 51.4 2.05 51.35 1.9 51.2 1.85 L51.15 1.85 Q50.8 1.7 50.55 1.9 L50.4 1.9 49.75 2.55 49.7 2.65 Q49.55 2.85 49.35 2.9 L48.6 3.5 Q48.0 4.15 47.6 4.35 46.85 4.8 45.95 4.2 44.4 3.2 43.85 2.05 43.45 1.15 43.7 0.85 43.75 0.7 43.8 0.7 L44.0 0.65 43.95 0.75 43.95 0.85 Q43.8 1.2 44.1 1.85 44.25 2.2 44.55 2.55 44.6 2.4 44.7 2.15 44.8 1.8 45.1 1.35 45.45 0.85 45.6 0.65 L45.7 0.55 45.5 0.4 Q45.05 0.1 45.2 -0.45 L45.25 -0.65 M45.8 -0.7 Q45.6 -0.4 45.9 0.0 46.2 0.4 47.35 1.1 L48.1 1.55 Q48.8 1.9 49.2 2.2 L49.6 1.8 49.65 1.8 Q49.9 1.55 50.1 1.4 L50.2 1.35 Q49.95 1.1 49.8 0.85 49.3 0.25 48.55 -0.25 47.35 -1.05 46.5 -1.2 L46.3 -1.1 Q45.95 -0.9 45.8 -0.7 M47.25 1.55 L46.2 0.85 Q46.1 0.95 46.0 1.05 45.65 1.35 45.45 1.65 45.3 1.85 45.3 2.2 L45.15 3.1 45.1 3.1 Q45.5 3.45 46.05 3.8 47.1 4.5 48.6 3.05 L48.95 2.7 47.25 1.55 M51.2 11.2 L51.55 11.55 51.6 11.55 52.1 12.05 52.7 12.75 53.15 13.45 Q53.65 14.35 54.05 15.2 L54.6 14.65 Q55.3 13.95 55.75 13.25 55.9 13.1 56.0 12.75 L56.25 12.15 Q56.35 11.85 56.55 11.65 L56.15 11.05 Q55.8 10.75 55.0 9.8 54.3 8.9 53.85 8.4 L53.5 8.15 52.8 8.2 50.45 10.5 50.15 10.75 Q50.35 10.85 50.55 10.95 L50.75 11.0 Q51.05 11.1 51.2 11.2 M50.95 11.45 L50.85 11.35 50.5 11.15 50.4 11.2 Q50.3 11.1 50.1 11.1 49.8 11.15 49.65 11.35 L49.6 11.3 49.2 11.7 Q46.55 14.2 45.85 14.7 L46.65 15.1 Q47.05 15.3 47.45 15.4 L47.6 15.4 47.9 15.45 48.0 15.45 48.55 14.9 50.45 13.0 Q50.45 12.75 50.95 12.4 51.1 12.0 51.1 11.9 L51.1 11.8 Q51.1 11.65 50.95 11.45 M51.6 12.6 Q51.6 12.7 51.15 13.15 L51.5 13.5 Q52.25 14.4 53.2 16.0 53.45 16.45 53.75 17.95 L53.85 18.6 Q54.35 16.85 54.35 16.5 54.35 15.2 52.95 13.7 L52.0 12.7 51.8 12.45 51.6 12.6 M55.8 13.6 Q54.8 14.9 54.3 15.35 L54.45 15.55 54.55 15.85 54.4 15.85 Q54.4 15.65 54.25 15.45 L54.15 15.4 54.25 15.55 Q54.75 16.65 54.75 17.0 54.75 17.2 54.45 18.3 L54.25 18.95 55.8 17.5 Q58.2 15.15 58.2 14.1 L56.9 12.15 Q56.55 12.65 55.8 13.6 M45.0 17.15 Q45.3 17.5 45.45 17.8 45.6 17.85 45.75 17.95 45.9 17.65 46.5 17.1 46.35 17.0 46.25 16.85 45.9 16.35 45.8 16.3 L45.35 16.0 Q45.1 15.85 45.05 15.55 L45.1 15.55 Q45.3 15.85 45.95 16.15 46.55 16.45 47.1 16.55 L47.45 16.2 Q47.5 16.1 47.6 15.9 L46.85 15.7 Q45.35 15.2 44.9 15.0 44.75 14.95 44.65 14.85 L44.65 15.15 44.55 15.6 44.55 15.7 44.4 16.25 Q44.4 16.45 45.0 17.15 M46.75 20.15 L46.55 19.75 Q46.0 19.05 45.6 18.25 L45.6 18.3 45.4 19.3 45.35 19.65 Q45.8 20.05 46.1 20.7 L46.2 21.0 46.4 21.65 Q46.6 22.35 46.6 22.7 46.95 22.0 46.95 21.4 46.95 20.7 46.75 20.15 M54.25 26.8 L54.35 26.65 Q54.65 25.95 55.2 25.7 L54.5 25.7 50.9 25.55 49.05 25.4 Q47.2 25.1 46.75 25.1 46.1 25.1 45.95 25.2 L45.75 25.25 47.4 25.85 47.6 25.75 Q48.2 26.15 50.25 26.15 L52.25 26.15 52.15 26.1 52.6 26.2 Q53.5 26.4 53.5 26.45 53.5 26.6 53.4 26.85 L53.4 26.95 Q53.3 27.25 53.3 27.65 53.5 27.9 53.6 28.2 53.75 28.65 53.8 29.35 L54.0 29.35 53.95 29.25 53.95 28.85 Q53.95 27.6 54.25 26.8 M46.45 27.25 Q48.4 27.8 48.75 27.8 L49.35 27.75 49.25 27.75 50.25 27.95 50.25 27.85 Q50.25 27.6 50.95 27.35 49.5 27.1 47.5 26.55 45.7 26.0 45.0 25.65 44.7 25.85 44.4 25.9 L44.3 26.4 44.5 26.45 Q44.45 26.5 44.45 26.6 44.45 26.75 46.45 27.25 M49.0 26.6 Q50.0 26.95 52.45 26.9 52.75 27.1 53.0 27.35 L53.0 27.25 53.1 26.65 49.35 26.4 48.45 26.3 49.0 26.6 M51.05 25.55 L50.9 25.55 51.1 25.6 51.05 25.55 M50.85 28.0 L51.2 28.0 51.45 28.25 51.25 28.55 51.85 28.5 52.8 28.5 52.7 28.55 52.75 28.6 52.8 28.75 Q52.8 29.5 52.45 30.3 51.95 31.55 50.9 31.55 L50.65 31.5 50.6 31.45 50.85 32.5 50.9 32.5 Q52.0 32.75 52.75 31.1 53.35 29.8 53.35 28.85 53.35 28.55 53.15 28.25 52.95 27.95 52.45 27.45 L51.75 27.45 51.35 27.6 50.85 27.9 Q50.75 27.95 50.7 28.0 L50.85 28.0 M54.75 26.55 Q54.35 27.0 54.3 27.5 L54.8 27.5 55.45 27.35 Q55.7 27.3 55.8 27.3 L56.05 27.3 56.1 27.5 56.0 28.05 56.0 28.15 Q56.0 28.55 55.9 28.8 L55.7 29.15 Q55.35 29.65 54.6 29.7 L53.75 29.7 53.6 30.2 53.9 30.25 54.45 30.3 54.55 30.3 55.25 30.2 55.6 30.05 Q56.2 29.7 56.65 29.05 L56.7 28.9 Q56.75 28.8 56.8 28.65 56.95 28.4 56.95 28.3 56.95 28.1 56.75 27.1 L56.7 26.85 56.7 26.8 56.6 26.2 56.5 26.0 Q56.4 25.95 56.25 25.9 L56.2 25.9 Q55.6 25.95 55.2 26.2 55.0 26.3 54.85 26.45 L54.75 26.55 M55.15 27.85 L54.3 27.85 54.3 28.8 Q54.3 29.1 54.3 29.15 54.4 29.35 54.85 29.35 L54.95 29.35 Q55.25 29.25 55.5 28.7 L55.75 27.85 55.15 27.85 M52.55 28.85 Q52.1 28.6 51.7 29.15 51.4 29.55 51.4 29.75 51.4 29.95 51.5 30.05 51.65 30.2 51.9 30.2 L51.95 30.35 Q51.9 30.5 51.65 30.5 51.2 30.5 51.0 30.4 50.9 30.3 50.75 30.25 L50.5 30.2 50.55 30.5 50.65 30.7 Q50.75 31.05 50.75 31.25 L50.9 31.25 Q51.75 31.25 52.25 30.4 52.55 29.8 52.55 29.3 L52.55 28.85 M53.6 32.55 Q53.2 32.1 52.9 32.1 L52.65 32.05 52.6 32.05 52.45 32.3 52.6 32.35 Q53.0 32.5 53.25 32.65 53.7 32.75 53.7 33.8 53.7 34.35 53.25 35.0 52.65 35.85 51.6 35.85 L51.5 35.8 51.4 35.8 Q51.15 35.8 50.85 35.55 L50.8 35.5 50.6 35.45 50.65 35.55 Q50.8 36.15 51.35 36.6 L51.4 36.65 Q52.95 36.6 53.65 35.15 54.1 34.25 54.1 33.35 54.1 33.0 53.6 32.55 M52.4 33.35 L52.9 33.5 Q53.1 33.6 53.1 33.7 53.1 33.85 52.8 34.2 52.5 34.55 52.2 34.55 L51.9 34.55 Q51.85 34.55 51.5 34.4 L51.35 34.35 Q51.3 34.6 51.3 34.75 51.3 34.95 51.35 35.15 L51.4 35.2 51.75 35.45 51.65 35.5 51.7 35.55 Q52.65 35.5 53.1 34.85 53.4 34.4 53.4 33.8 L53.4 33.3 Q53.35 33.15 53.25 33.1 L53.15 33.1 52.95 33.05 Q52.85 33.1 52.7 33.15 52.45 33.3 52.4 33.35 M52.1 34.2 Q52.5 34.2 52.5 34.1 52.55 34.0 52.65 33.95 L52.35 33.85 52.1 33.75 52.1 34.2 M51.05 29.6 Q51.1 29.35 51.4 29.05 L51.45 28.95 51.15 29.0 50.95 28.95 50.9 28.95 Q50.6 29.45 50.45 29.85 L50.6 29.8 51.05 29.9 Q51.0 29.75 51.05 29.6 M50.25 29.75 L50.45 29.3 50.9 28.45 46.75 27.8 Q45.4 27.55 44.6 27.2 L45.3 28.05 Q46.25 28.35 46.75 28.8 L46.9 28.9 Q47.35 29.4 47.35 30.15 L47.35 30.4 Q47.55 30.65 47.85 31.2 48.25 31.3 49.15 31.7 49.9 32.0 50.75 32.45 L50.75 32.4 50.5 31.35 Q50.2 30.3 50.2 30.15 L50.2 30.1 50.25 29.9 50.25 29.75 M50.4 30.55 Q50.4 30.85 50.5 31.25 L50.45 30.75 50.4 30.55 M46.45 31.2 L46.4 31.15 Q45.85 31.1 45.7 31.15 45.55 31.15 45.55 31.3 45.55 31.45 45.6 31.5 L46.05 31.55 46.4 31.5 Q46.5 31.4 46.5 31.2 L46.45 31.2 M46.35 29.85 Q46.6 29.85 46.7 29.75 46.6 29.5 46.45 29.35 L46.45 29.3 46.3 29.3 Q45.9 29.3 45.9 29.6 45.9 29.75 45.95 29.75 L45.95 29.8 46.35 29.85 M46.75 31.5 Q46.6 31.7 46.35 31.7 L46.4 32.75 46.4 32.8 Q47.25 32.8 47.25 33.3 47.25 33.5 47.15 33.6 46.95 33.8 46.45 33.8 L46.5 34.25 46.5 34.3 Q46.75 34.3 47.05 34.4 47.25 34.1 47.4 33.85 48.0 33.2 48.0 34.5 L47.95 34.85 48.2 35.0 Q47.85 32.35 46.25 30.15 L46.2 30.15 46.3 30.75 Q46.8 30.75 46.8 31.25 46.8 31.35 46.75 31.5 M48.1 31.75 L48.65 33.05 49.05 33.15 Q49.6 33.35 50.55 33.35 L50.6 34.55 50.6 34.95 Q50.7 34.85 51.1 35.05 L51.0 34.75 Q51.0 34.45 51.2 33.7 51.35 33.2 51.45 32.95 L50.9 32.95 50.8 32.85 Q50.5 32.75 49.0 32.1 L48.05 31.65 48.1 31.75 M48.8 33.5 Q48.9 33.85 48.9 34.05 L48.9 34.15 Q49.7 34.1 49.7 35.45 L49.65 35.85 Q50.0 35.9 50.45 36.15 50.35 35.9 50.3 35.55 L50.35 33.8 48.95 33.55 48.8 33.5 M46.7 33.3 Q46.7 33.05 46.3 32.95 45.85 32.9 45.6 33.3 45.7 33.4 45.9 33.45 46.15 33.6 46.35 33.6 46.7 33.6 46.7 33.3 M46.9 35.4 Q46.85 35.25 46.85 35.15 46.85 34.95 46.95 34.7 46.65 34.55 46.45 34.55 L46.3 34.55 Q46.0 34.65 45.45 35.05 45.75 35.35 45.75 35.65 45.75 35.75 45.6 35.9 45.5 36.05 45.35 36.05 45.1 36.05 44.8 35.6 L44.55 35.8 Q45.05 36.25 45.05 36.6 45.05 36.75 45.0 36.9 44.85 37.1 44.6 37.1 44.35 37.1 43.9 36.5 L42.95 37.55 Q43.4 37.75 43.4 38.05 43.4 38.25 43.3 38.35 43.2 38.55 42.9 38.55 42.6 38.55 42.25 38.3 41.6 39.05 40.85 39.95 41.4 40.45 41.4 40.8 41.4 40.95 41.25 41.1 41.1 41.3 40.85 41.3 40.55 41.3 40.15 40.8 L39.65 41.35 39.5 41.55 Q39.3 41.8 39.1 42.15 39.3 42.3 39.5 42.5 39.8 42.8 39.8 42.9 39.8 43.15 39.7 43.3 39.55 43.45 39.3 43.45 38.9 43.45 38.55 43.25 L37.95 44.8 Q38.5 45.0 38.5 45.6 38.5 45.75 38.4 45.9 38.25 46.05 38.05 46.05 37.9 46.05 37.55 45.85 37.25 46.55 37.05 47.0 L36.9 47.2 Q36.45 47.9 35.9 47.85 L35.9 47.8 Q35.85 47.8 35.85 47.65 35.85 47.55 36.25 47.3 L36.3 47.25 Q36.5 47.1 36.6 46.95 L36.7 46.8 36.75 46.3 Q36.8 46.0 36.9 45.85 L37.05 45.5 36.65 45.15 Q36.65 44.95 36.95 44.8 37.2 44.7 37.5 44.75 37.8 44.2 37.9 43.95 38.0 43.5 38.3 43.0 L38.2 42.85 Q37.85 42.4 37.85 42.2 L37.85 42.15 Q37.85 42.0 37.9 41.95 L37.9 41.9 Q38.1 41.55 38.85 42.0 L38.9 42.05 38.95 42.0 40.0 40.6 39.9 40.5 39.45 39.7 Q39.45 39.0 40.45 39.65 L40.65 39.8 Q41.3 39.0 42.1 38.2 L42.0 38.1 Q41.6 37.75 41.6 37.65 41.6 37.15 42.5 37.4 L42.8 37.5 43.5 36.85 43.85 36.45 43.9 36.45 43.85 36.4 43.7 36.15 Q43.4 35.7 43.4 35.65 43.4 35.05 44.1 35.5 L44.25 35.55 44.5 35.75 44.75 35.5 44.65 35.35 44.4 34.75 Q44.4 34.05 45.05 34.6 L45.3 34.85 Q45.45 34.65 45.65 34.55 L45.75 34.35 46.0 33.8 Q45.45 33.75 45.25 33.6 45.1 33.55 45.1 33.3 45.1 33.15 45.45 33.0 45.75 32.85 46.15 32.8 L46.2 32.4 46.2 31.7 45.8 31.65 45.2 31.55 45.15 31.5 Q45.15 31.45 45.15 31.3 45.15 31.15 45.4 31.0 45.65 30.85 46.0 30.8 L46.15 30.75 46.1 30.6 46.0 30.15 Q45.75 30.1 45.55 29.95 45.35 29.8 45.35 29.6 45.35 29.4 45.55 29.25 45.0 28.65 44.2 27.9 L44.05 27.75 43.65 27.35 42.75 26.8 42.55 26.65 42.4 26.45 Q42.3 26.25 42.3 25.85 40.95 25.7 40.05 24.8 39.8 24.55 39.6 24.25 39.35 23.9 39.15 23.4 L38.95 23.0 38.6 22.1 37.7 20.45 37.65 20.35 37.55 20.4 37.55 20.45 Q37.7 20.75 37.7 20.95 37.7 21.35 37.65 21.5 37.55 21.95 37.15 21.95 37.1 21.95 36.55 21.0 L36.0 21.3 Q36.1 21.5 36.1 21.65 36.1 21.85 35.95 22.05 35.8 22.25 35.55 22.25 35.3 22.25 35.1 21.8 L35.05 21.85 34.25 22.25 33.25 22.7 Q33.5 23.05 33.5 23.35 33.5 23.5 33.4 23.6 33.25 23.85 33.0 23.85 32.8 23.85 32.35 23.15 L31.95 23.3 Q32.1 23.55 32.1 23.8 32.1 24.05 31.95 24.2 31.8 24.4 31.55 24.4 31.35 24.4 31.1 24.05 30.9 23.95 30.75 23.7 29.2 24.25 28.15 24.25 L27.5 24.2 25.35 24.3 24.4 24.3 23.7 24.35 23.3 24.35 23.3 24.3 21.5 24.25 Q19.55 24.1 19.0 24.0 L18.1 23.75 17.9 23.65 Q17.4 23.5 17.3 23.3 L17.35 23.25 Q17.55 23.0 18.5 23.2 19.05 23.35 19.95 23.65 L20.0 23.65 20.25 23.7 20.45 23.7 23.5 23.95 24.75 24.0 27.3 24.1 29.15 23.8 30.65 23.45 30.65 23.3 30.25 22.5 Q30.25 22.2 30.55 22.2 30.8 22.25 31.15 22.5 31.6 22.8 31.8 23.1 L32.2 22.95 31.7 22.2 Q31.7 21.95 31.85 21.95 L31.95 21.9 32.0 21.9 Q32.25 21.9 32.6 22.15 L32.95 22.4 33.1 22.55 33.2 22.5 34.1 21.95 34.9 21.45 34.7 20.65 Q34.7 19.75 35.4 20.45 L35.8 20.9 36.2 20.6 36.35 20.55 35.95 19.85 35.75 19.55 Q35.75 19.05 36.05 19.05 36.35 19.05 36.75 19.4 L37.15 19.8 37.2 19.85 37.3 20.05 37.45 20.0 37.35 19.8 Q36.65 18.4 36.65 17.9 36.65 17.55 37.8 16.55 L39.0 15.5 39.55 14.8 39.85 14.35 39.7 13.35 39.3 13.4 Q38.95 13.4 38.8 13.3 38.75 13.2 38.75 13.1 38.75 12.9 38.8 12.8 L38.75 12.8 38.75 12.75 38.8 12.7 38.85 12.7 Q38.95 12.55 39.2 12.4 39.4 12.25 39.55 12.05 39.4 11.55 39.25 11.1 39.05 11.2 38.85 11.2 38.65 11.2 38.55 11.0 L38.45 10.75 Q38.45 10.45 38.8 10.15 38.35 9.5 37.75 8.85 37.45 8.75 37.1 8.6 36.55 8.35 36.55 8.2 L36.55 8.05 Q36.6 7.95 36.7 7.85 L36.45 7.65 35.25 6.75 34.95 6.5 34.75 6.5 34.85 6.55 Q35.55 7.3 36.15 8.05 L36.55 8.6 Q37.25 9.6 37.25 10.0 37.25 10.25 37.25 10.3 36.55 8.95 35.9 8.05 L35.3 7.3 Q33.8 5.65 31.3 4.9 L31.2 4.85 30.75 4.75 30.7 4.8 Q30.4 5.1 30.05 5.1 L29.05 4.85 Q30.1 5.4 30.7 5.7 L31.2 6.0 31.2 6.05 31.7 6.65 32.3 7.4 32.85 8.05 33.3 8.75 33.25 8.8 32.35 7.45 31.65 6.65 31.2 6.15 Q31.1 6.1 30.7 5.95 L29.5 5.5 28.9 5.25 28.25 5.05 Q27.5 4.75 27.2 4.5 L27.1 4.45 25.25 4.3 25.2 4.3 Q25.1 4.55 24.8 4.9 L24.2 5.65 23.75 6.25 Q22.1 8.45 21.9 10.45 L21.85 10.45 21.85 10.25 21.85 9.9 Q21.85 8.95 22.0 8.3 22.25 7.45 22.85 6.75 L23.95 5.1 Q24.4 4.4 24.9 4.0 L23.85 4.1 23.55 4.35 Q23.2 4.55 23.05 4.55 L22.8 4.55 Q22.65 4.5 22.55 4.4 L22.3 4.55 22.0 4.65 21.95 4.65 Q21.7 4.8 21.45 4.95 L21.45 5.05 21.3 5.1 Q21.0 5.35 20.7 5.65 19.45 6.9 18.75 7.5 L18.7 7.5 Q19.3 6.9 20.35 5.6 L20.55 5.35 19.65 5.75 Q19.55 5.8 19.5 5.8 L19.45 5.8 19.4 5.85 18.9 6.05 Q17.55 6.65 16.5 7.35 14.75 8.45 13.7 9.85 L13.15 10.65 13.15 10.7 13.0 10.95 Q12.85 11.25 12.7 11.55 12.8 11.7 12.8 11.8 12.8 11.95 12.7 12.1 12.65 12.25 12.45 12.25 12.05 13.35 11.8 14.75 L11.75 15.2 Q11.85 15.25 11.85 15.5 L11.8 15.95 11.6 17.15 Q11.4 18.85 11.4 20.2 11.4 23.65 12.75 27.0 13.8 29.45 16.65 34.05 19.15 38.1 23.5 42.15 23.6 42.1 23.7 42.1 24.15 42.1 24.3 42.85 L24.45 43.0 Q26.75 45.1 28.65 46.3 30.7 47.55 31.8 47.55 L33.65 47.55 32.95 47.7 33.55 47.75 33.85 47.8 35.35 48.0 32.95 48.2 32.5 48.1 32.4 48.1 31.35 47.85 30.3 47.85 30.2 47.8 30.0 47.6 Q29.75 47.4 29.4 47.4 L29.25 47.4 Q27.35 46.5 25.95 45.15 L24.35 43.55 Q24.45 44.35 24.55 44.5 25.2 45.55 26.3 46.85 27.15 47.9 29.1 49.1 32.05 51.0 34.7 51.0 37.2 51.0 41.05 48.9 44.2 47.15 46.25 45.25 46.75 44.75 47.4 43.35 L47.45 43.3 47.85 42.25 Q48.75 40.0 48.75 39.0 48.75 38.6 48.55 37.5 L47.7 39.4 Q46.4 42.15 46.05 42.65 44.25 44.85 42.45 45.95 41.65 46.45 40.75 46.85 42.15 46.15 43.35 45.05 L43.7 44.75 44.6 44.05 Q45.4 43.35 46.8 40.6 48.0 38.1 48.15 36.95 48.3 36.6 48.3 36.4 L48.25 35.65 47.8 35.3 Q47.6 35.6 47.3 35.6 47.05 35.6 46.9 35.4 M47.15 34.95 L47.2 35.05 47.4 35.3 47.55 35.3 Q47.6 35.2 47.7 34.85 L47.8 34.35 47.75 34.25 Q47.45 34.25 47.3 34.55 47.15 34.75 47.15 34.95 M51.85 32.85 L51.85 32.9 Q51.75 33.1 51.5 33.8 L51.45 34.0 51.75 34.1 51.8 34.1 51.75 33.95 51.7 33.5 52.0 33.25 52.4 32.95 51.9 32.8 51.85 32.85 M49.2 35.25 Q49.15 35.1 48.95 35.0 48.75 35.2 48.75 35.5 48.75 35.55 48.8 35.65 48.85 35.8 48.95 35.9 49.2 35.7 49.2 35.5 L49.2 35.25 M43.6 5.3 L43.5 5.1 Q43.4 5.05 43.25 5.05 L43.15 5.05 Q43.05 5.05 43.0 5.1 L42.9 5.05 Q41.6 5.9 40.3 7.95 L39.85 8.45 40.3 9.05 40.35 9.2 40.65 9.65 41.15 9.15 Q42.5 7.85 43.15 6.85 L43.8 6.2 43.9 6.0 43.75 5.7 43.7 5.55 43.65 5.45 43.6 5.3 M35.8 2.85 Q35.65 2.25 35.45 1.65 35.1 0.85 34.9 0.7 34.85 0.6 34.75 0.6 L33.7 0.75 33.0 0.85 Q32.7 0.85 32.5 0.7 32.4 0.6 32.35 0.45 32.35 0.35 32.35 0.1 31.9 0.4 31.5 0.7 L30.7 1.3 30.15 1.85 30.7 1.95 30.95 2.05 Q31.15 1.9 31.5 1.7 32.2 1.25 32.4 1.2 L31.8 1.85 31.35 2.3 Q31.55 2.45 31.55 2.6 L31.55 2.7 Q31.7 2.8 31.9 2.9 32.4 3.25 32.65 3.5 L32.75 3.4 Q33.5 2.75 33.7 3.4 34.3 3.15 34.4 3.15 34.55 3.15 34.9 3.25 35.2 3.35 35.4 3.35 L35.9 3.25 35.8 2.85 M35.7 6.55 Q36.4 7.0 37.1 7.65 L37.6 7.6 37.85 7.6 38.1 7.65 37.85 7.45 37.55 7.25 Q36.9 6.85 36.25 6.5 36.1 6.55 35.95 6.55 L35.7 6.55 M38.1 8.5 L38.2 8.4 Q38.05 8.2 37.8 8.05 L37.75 8.0 37.0 8.0 37.0 8.25 Q37.55 8.45 37.7 8.55 L37.9 8.55 38.1 8.5 M35.85 6.25 L36.0 6.0 Q35.4 5.75 35.0 5.75 34.65 5.75 34.65 6.05 34.65 6.15 34.7 6.2 34.8 6.35 35.15 6.35 35.7 6.35 35.85 6.25 M38.5 8.65 Q38.4 8.85 38.2 8.85 L38.35 9.1 39.0 10.0 39.2 9.85 Q39.9 9.45 39.9 10.2 39.9 10.4 39.6 10.8 L39.55 10.9 39.75 11.3 39.8 11.35 Q40.0 11.2 40.25 11.2 40.85 11.15 40.85 11.8 40.85 11.9 40.8 12.1 40.9 12.0 41.05 11.95 L41.15 11.9 41.0 11.7 40.9 11.4 Q40.6 11.0 40.3 10.5 L40.2 10.3 40.1 10.25 40.1 10.2 40.0 10.05 39.6 9.4 Q39.15 8.65 38.6 8.1 L38.6 8.3 Q38.6 8.5 38.5 8.65 M39.45 10.5 Q39.6 10.4 39.6 10.2 39.6 10.1 39.55 10.05 L39.45 10.05 39.1 10.2 Q38.9 10.3 38.9 10.45 38.9 10.6 38.95 10.65 L39.05 10.7 39.45 10.5 M40.35 11.85 L40.3 11.65 40.3 11.6 Q40.0 11.6 39.9 11.75 L39.8 12.0 39.5 12.3 Q39.3 12.55 39.3 12.6 L39.3 12.8 39.65 12.8 Q39.9 12.8 40.15 12.45 40.35 12.1 40.35 11.85 M40.3 13.15 L40.3 13.7 40.65 13.1 40.7 12.75 40.65 12.65 40.65 12.5 40.5 12.65 40.3 12.95 40.3 13.15 M43.4 12.95 Q42.95 12.5 42.25 12.5 41.75 12.5 41.35 12.65 L41.3 12.7 Q41.3 12.9 41.05 13.3 L41.05 13.35 Q41.05 13.55 40.25 14.55 L40.2 14.8 39.95 14.9 39.95 14.85 39.9 14.9 39.45 15.55 Q38.8 16.55 37.85 17.4 37.2 18.0 37.2 18.25 37.2 18.3 37.25 18.5 L37.3 18.6 37.65 19.35 37.65 19.45 37.7 19.5 37.9 19.9 Q37.95 19.95 37.95 20.05 38.45 21.0 38.95 21.9 40.9 25.3 42.0 25.3 42.1 25.3 42.2 25.2 42.35 25.15 42.45 25.15 L43.0 25.1 Q42.35 24.45 41.85 23.05 41.5 22.2 41.15 20.85 L40.65 19.15 40.7 19.1 40.75 19.15 Q41.0 19.85 41.3 20.6 L41.35 20.8 41.7 21.55 42.2 22.65 42.3 22.85 Q43.15 24.65 43.5 25.0 L43.55 25.0 43.7 25.15 Q44.0 25.15 44.25 24.95 44.4 24.8 44.55 24.75 L44.75 24.75 Q45.4 24.3 45.95 23.65 L46.25 23.25 46.2 22.45 Q46.15 21.75 45.95 21.3 L45.9 21.2 Q45.65 20.6 45.25 20.15 L44.95 19.9 44.9 19.9 44.9 20.0 44.65 19.9 Q44.2 19.65 43.85 19.65 L42.9 18.75 Q41.6 17.6 40.85 17.6 L40.75 17.6 40.45 17.75 40.4 17.75 40.3 18.0 Q40.2 18.35 40.5 18.7 L40.45 18.75 40.1 18.2 39.95 17.9 39.9 17.9 39.1 17.7 Q38.7 17.7 38.3 17.95 37.85 18.25 37.65 18.25 L37.55 18.2 37.55 18.15 37.55 18.05 Q37.55 18.0 37.9 17.85 L38.6 17.6 38.85 17.5 39.8 17.2 Q40.4 16.8 40.8 16.95 41.05 17.05 41.6 17.4 L43.15 18.25 43.2 18.3 43.45 18.45 43.65 18.55 44.1 18.9 44.05 18.65 44.35 18.95 44.95 19.0 44.95 18.65 44.7 17.9 Q44.7 18.4 44.25 18.4 43.75 18.4 43.45 17.45 L43.4 17.45 43.15 16.45 Q43.15 16.15 43.2 16.05 43.2 15.95 43.45 15.8 43.65 15.95 43.6 16.15 43.8 16.15 44.0 16.25 L44.2 16.35 44.1 16.0 44.05 15.5 Q44.0 14.2 43.9 13.85 L43.85 13.8 43.65 13.3 43.4 12.95 M29.05 4.5 L29.45 4.55 29.55 4.6 30.0 4.65 Q30.2 4.65 30.4 4.5 L30.4 4.5 30.55 4.35 Q30.6 4.25 30.65 4.2 L30.7 4.15 30.9 3.7 Q31.0 3.2 31.0 2.65 L31.0 2.55 30.85 2.4 30.7 2.3 30.65 2.3 Q30.3 2.1 30.0 2.25 29.85 2.35 29.7 2.6 L29.5 3.0 Q29.35 3.25 29.25 3.65 L29.2 3.7 29.2 3.85 29.1 4.15 29.05 4.45 29.0 4.5 29.05 4.5 M27.75 2.5 L27.75 2.7 Q27.75 2.8 27.5 3.55 27.9 3.5 28.85 3.7 L29.0 3.85 Q29.2 3.3 29.45 2.9 29.4 2.95 29.35 2.95 L29.3 2.95 29.25 3.0 29.05 2.9 28.15 2.6 28.0 2.75 27.95 2.6 28.0 2.55 27.8 2.45 27.75 2.45 27.75 2.5 M29.5 2.6 L29.55 2.7 29.95 2.1 29.5 2.6 M31.3 3.2 Q31.05 3.75 31.05 4.05 L31.05 4.1 31.6 4.15 31.9 4.25 32.0 4.1 32.35 3.8 31.8 3.35 31.4 3.0 31.3 3.2 M33.7 4.5 L34.5 4.7 34.6 4.45 34.5 3.9 Q34.3 3.95 34.0 4.15 L33.7 4.3 33.65 4.4 33.65 4.45 33.7 4.5 M33.4 3.75 L33.35 3.75 Q33.1 3.6 32.8 3.85 L32.75 3.95 32.65 3.95 Q32.35 4.25 32.3 4.4 32.45 4.5 32.45 4.65 L32.4 4.7 32.6 4.75 Q32.8 4.75 33.1 4.4 33.4 4.1 33.4 3.9 L33.4 3.75 M34.15 5.55 L33.25 5.25 34.15 5.95 Q34.2 5.8 34.45 5.65 L34.4 5.65 34.15 5.55 M26.8 1.2 L26.6 1.15 Q25.75 0.95 25.5 1.6 25.4 2.0 25.3 2.5 25.2 3.0 25.2 3.35 25.2 3.45 25.25 3.55 L25.3 3.55 25.3 3.6 25.45 3.75 Q25.7 3.9 26.15 3.95 L26.5 3.95 Q26.8 3.95 27.15 2.95 L27.2 2.85 27.05 2.95 Q27.1 2.75 27.4 1.95 L27.4 1.85 26.8 1.2 M24.0 1.5 L23.95 1.4 23.65 1.3 Q23.55 1.3 23.1 1.5 L22.9 1.6 22.6 2.35 Q22.3 3.15 22.25 3.75 L22.25 3.8 22.3 3.95 22.35 3.95 22.45 4.0 22.55 4.0 22.6 4.05 22.7 4.05 Q23.25 4.05 23.45 3.85 L23.85 3.45 23.9 3.5 23.95 3.65 24.45 3.55 25.0 3.5 Q25.0 3.25 25.05 2.8 L25.1 2.5 25.15 2.1 24.1 2.15 24.1 2.3 Q24.1 2.45 24.15 2.5 L24.0 2.5 24.0 2.75 23.9 3.3 23.85 3.35 23.95 2.35 23.95 1.95 24.0 1.6 24.0 1.5 M27.9 4.35 L28.7 4.7 28.8 4.3 27.9 4.25 27.75 4.2 27.3 4.1 27.25 4.15 Q27.45 4.2 27.9 4.35 M32.85 22.55 Q32.25 21.95 32.25 22.45 L32.65 23.05 Q33.05 23.65 33.25 23.65 33.35 23.65 33.4 23.6 L33.45 23.55 33.45 23.35 Q33.45 23.15 32.85 22.55 M30.55 22.7 L30.55 22.9 Q30.55 22.95 30.95 23.5 31.4 24.05 31.5 24.05 31.65 24.05 31.7 24.0 L31.75 23.95 Q31.75 24.0 31.75 23.8 31.75 23.65 31.35 23.2 30.9 22.7 30.55 22.7 M34.2 26.6 Q34.1 26.55 34.0 26.5 33.9 26.45 33.9 26.3 L33.9 26.25 34.15 26.0 34.35 25.95 34.45 25.95 34.9 25.85 Q34.95 25.35 35.25 25.3 35.35 25.2 35.45 25.05 35.8 24.7 36.3 24.55 L37.35 24.6 Q37.4 24.4 37.5 24.3 37.7 24.05 38.0 24.05 38.45 24.05 38.7 24.35 38.85 24.55 38.95 24.8 L39.05 25.0 38.95 25.0 38.9 24.95 38.75 24.65 Q38.65 24.45 38.45 24.45 38.4 24.45 38.05 24.75 L37.8 24.95 Q37.95 25.15 38.1 25.45 L38.1 25.5 Q38.55 26.0 38.75 26.85 38.85 27.3 38.9 27.75 L38.9 27.7 Q39.35 27.05 39.35 26.55 39.35 26.45 39.25 25.95 L39.1 25.5 Q39.1 25.2 39.3 25.15 39.4 25.45 39.6 26.35 39.8 27.2 39.8 27.65 L39.8 27.8 39.8 27.85 39.7 28.0 39.45 28.25 39.25 28.4 Q39.85 28.4 40.25 28.65 40.35 28.55 40.65 28.35 41.2 28.1 41.95 28.2 L42.65 28.6 42.7 28.65 42.75 28.65 Q44.15 29.55 44.55 30.5 44.75 30.95 44.75 31.65 L44.75 32.85 Q44.75 33.25 44.2 33.75 L44.2 33.8 Q43.6 34.35 43.05 34.35 L42.7 34.35 42.15 34.8 41.45 35.3 41.35 35.4 40.8 35.85 Q39.95 36.7 39.6 36.95 39.35 37.05 39.15 37.15 L38.7 37.3 38.3 37.4 37.75 37.4 Q37.2 37.4 36.7 37.1 L36.25 36.85 Q35.6 36.4 35.2 35.55 35.1 35.35 35.0 35.1 L34.95 35.05 Q34.65 34.25 34.55 33.45 34.5 32.95 34.5 32.5 34.5 31.75 35.15 31.2 35.35 31.0 35.7 30.8 36.0 30.6 36.45 30.4 L36.45 30.25 Q36.45 30.05 36.5 29.9 L36.5 29.8 Q36.1 29.9 35.7 29.9 L35.6 29.95 Q35.4 30.1 35.15 30.1 34.85 30.1 34.3 28.65 L34.2 28.35 Q33.75 27.3 33.75 27.15 L33.8 26.7 33.95 26.7 34.0 26.85 Q34.25 27.75 34.6 28.35 L34.6 28.4 34.65 28.45 Q34.9 28.85 35.2 29.15 L35.55 29.45 35.7 29.4 Q35.85 29.3 36.35 29.15 37.15 28.85 37.25 28.2 L37.25 28.05 Q37.25 27.7 37.0 26.95 L36.9 26.8 Q36.75 26.45 36.6 26.25 36.45 26.05 36.25 26.0 L36.15 25.95 35.95 25.95 35.9 26.0 35.15 26.25 35.1 26.25 35.05 26.2 35.05 26.25 Q34.8 26.6 34.4 26.6 L34.2 26.6 M44.15 17.05 Q44.05 16.85 43.7 16.7 43.55 16.9 43.75 17.3 43.85 17.6 44.1 17.9 44.2 17.75 44.2 17.4 44.2 17.2 44.15 17.05 M44.3 21.1 L44.35 21.15 44.35 21.35 44.3 21.1 M35.3 20.45 Q35.1 20.5 35.1 20.75 35.1 20.85 35.35 21.15 L35.75 21.65 Q35.85 21.8 35.85 21.6 35.85 21.4 35.65 21.05 35.5 20.65 35.3 20.45 M37.15 20.1 Q36.9 19.85 36.2 19.5 L37.25 21.4 Q37.45 21.4 37.3 21.4 37.45 21.2 37.45 20.95 37.45 20.45 37.15 20.1 M38.1 26.65 L38.1 26.55 Q37.65 25.0 36.75 25.0 36.6 25.0 36.25 25.25 L36.0 25.4 Q36.55 25.65 36.75 26.05 L37.1 26.9 Q37.35 27.45 37.35 27.75 37.35 27.8 37.55 28.3 L37.6 28.45 37.65 28.7 37.7 28.7 37.65 28.5 37.65 28.45 Q37.7 27.8 38.35 28.0 L38.35 27.8 Q38.3 27.25 38.1 26.65 M38.85 28.15 Q38.6 28.05 38.4 28.15 38.25 28.25 38.25 28.35 L38.25 28.5 38.35 28.6 38.55 28.6 Q38.75 28.6 38.85 28.5 L38.95 28.35 Q38.85 28.25 38.85 28.15 M42.65 26.05 Q42.6 26.5 43.4 26.65 L43.5 26.65 Q43.55 26.35 43.65 25.95 L43.5 25.9 42.7 25.9 42.65 26.05 M19.35 1.9 L19.35 2.25 Q19.35 2.45 19.6 2.45 L19.95 2.4 20.8 2.3 20.95 2.25 21.2 2.2 21.3 2.2 Q21.2 2.0 20.65 1.25 L20.25 0.7 20.25 0.65 19.9 0.95 Q19.35 1.45 19.35 1.9 M21.4 3.45 Q21.2 3.95 21.2 4.4 L21.2 4.45 21.3 4.5 Q21.4 4.5 21.5 4.4 L21.5 4.35 Q21.5 4.25 21.55 4.0 L21.65 3.65 Q21.65 3.5 21.75 3.3 21.7 3.05 21.55 3.15 L21.4 3.45 M17.4 5.95 Q18.25 5.5 19.2 5.1 L19.1 4.85 Q18.95 3.85 18.5 3.85 17.85 3.85 16.9 4.3 L16.7 4.4 Q16.0 4.75 16.0 4.95 L16.35 5.65 Q16.65 6.3 16.7 6.4 17.05 6.15 17.4 5.95 M21.9 3.7 L21.75 4.05 22.1 3.95 Q21.95 3.75 21.95 3.6 L21.95 3.55 21.9 3.7 M15.0 2.9 Q15.0 2.75 14.4 2.3 13.8 1.9 13.55 1.9 12.95 1.9 11.8 2.35 L11.3 2.55 Q10.65 2.85 10.3 3.1 L10.45 3.3 Q10.9 3.4 11.15 4.15 L11.3 4.4 12.5 5.8 Q13.95 7.65 14.1 8.65 14.6 8.05 15.2 7.55 14.95 7.05 14.85 5.65 14.8 4.55 14.8 3.45 14.8 3.35 14.9 3.2 15.0 3.05 15.0 2.9 M13.6 9.25 L13.75 9.05 Q13.55 8.85 13.35 8.2 L13.1 7.2 Q13.1 7.0 11.45 5.1 L11.3 4.95 10.85 4.4 10.75 4.45 10.7 4.5 10.4 4.7 9.95 5.05 Q9.1 5.75 8.85 6.5 L8.75 7.0 8.75 7.1 Q8.75 8.0 10.75 9.75 L11.3 10.2 12.15 10.9 12.45 11.25 Q12.7 10.5 12.9 10.25 L12.9 10.2 Q13.25 9.7 13.6 9.25 M43.4 31.6 L43.45 32.0 43.5 32.55 43.5 32.7 Q43.5 32.95 43.35 33.3 43.25 33.45 43.15 33.55 43.75 33.35 44.1 32.9 44.25 32.75 44.25 32.35 L44.3 31.6 Q44.3 31.15 43.9 30.4 L43.7 30.0 Q42.9 28.7 41.9 28.7 L41.6 28.7 Q41.0 28.75 40.75 28.85 L40.6 28.95 40.75 28.95 41.3 29.05 Q41.55 29.1 41.8 29.2 42.9 30.35 43.2 31.0 43.3 31.25 43.4 31.6 M41.05 30.65 Q41.1 30.5 41.1 30.3 41.15 30.15 41.1 30.0 41.05 29.75 40.7 29.75 L40.65 29.75 Q40.5 29.55 40.25 29.3 40.0 29.15 39.75 29.05 L39.75 29.65 39.7 29.85 39.6 30.05 39.75 30.2 39.75 30.25 Q39.8 30.4 39.9 30.6 40.15 30.95 40.6 30.95 40.95 30.95 41.05 30.65 M43.25 31.45 Q43.1 30.95 42.6 30.2 41.75 28.95 41.0 29.35 L41.25 29.75 41.0 29.6 41.1 29.9 Q41.2 29.95 41.25 30.0 L41.3 30.2 Q41.3 30.35 41.15 30.6 L41.1 30.95 Q41.05 30.95 41.0 31.0 L40.85 31.05 Q40.45 31.45 39.9 31.35 L39.85 31.35 Q39.5 31.25 39.45 31.0 39.4 30.9 39.45 30.55 39.5 30.35 39.45 30.25 39.3 30.35 39.15 30.35 38.75 30.35 38.6 30.2 L38.55 30.15 38.5 30.3 38.5 30.35 38.45 30.4 38.45 30.45 Q38.35 30.75 38.35 30.8 38.35 30.9 38.5 31.1 38.65 31.3 38.65 31.4 38.65 31.6 38.4 31.8 38.15 32.0 37.9 32.0 37.15 32.0 36.85 31.35 L36.75 31.2 Q36.65 31.15 36.6 31.1 L36.15 31.4 35.85 31.5 35.55 31.65 Q35.35 31.85 35.25 32.0 35.1 32.3 35.1 32.75 35.0 32.9 35.0 33.05 35.1 34.1 35.6 35.1 36.3 36.35 37.45 36.75 L37.55 36.75 Q37.8 36.9 38.1 36.9 38.6 36.9 38.85 36.3 39.0 35.9 39.0 35.55 39.0 35.1 38.85 34.6 L38.65 34.1 Q38.3 33.35 37.75 32.8 L37.4 32.45 36.85 31.85 36.95 31.85 Q37.4 32.05 37.8 32.4 38.25 32.75 38.6 33.35 38.85 33.8 39.0 34.25 39.3 35.15 39.3 36.15 L39.3 36.3 Q40.0 35.9 40.95 35.05 L41.35 34.65 Q41.75 34.4 42.2 34.0 L42.65 33.55 Q43.0 33.45 43.2 32.75 43.3 32.3 43.3 31.85 43.3 31.65 43.25 31.45 M44.85 34.75 L44.8 34.75 44.8 34.9 Q44.8 34.95 44.95 35.2 45.1 35.45 45.25 35.45 L45.4 35.45 Q45.4 35.4 45.45 35.4 L45.45 35.25 Q45.4 35.05 45.3 34.95 45.1 34.75 44.85 34.75 M39.4 29.8 Q39.3 29.65 39.15 29.55 38.9 29.7 38.9 29.9 L38.95 30.1 Q39.0 30.2 39.15 30.25 L39.3 30.2 39.4 30.15 39.45 29.9 39.4 29.8 M39.5 29.0 Q39.5 28.7 39.1 28.6 38.7 28.5 38.7 28.9 38.7 29.0 38.8 29.1 38.9 29.25 39.1 29.25 39.25 29.25 39.35 29.2 39.5 29.15 39.5 29.0 M38.6 29.35 L38.65 29.25 Q38.25 29.1 38.0 29.0 37.85 29.05 37.7 29.15 37.35 29.35 37.25 29.7 37.1 29.95 37.1 30.3 L37.1 30.9 37.2 31.1 Q37.15 31.2 37.15 31.3 37.15 31.45 37.2 31.55 37.35 31.8 37.85 31.8 38.1 31.8 38.2 31.6 38.3 31.5 38.3 31.3 38.3 30.95 38.25 30.75 L38.25 30.6 Q38.3 30.15 38.5 29.95 L38.5 29.75 Q38.5 29.6 38.5 29.45 L38.6 29.35 M42.6 37.55 Q42.2 37.4 42.2 37.7 42.2 37.8 42.3 37.95 42.45 38.1 42.7 38.1 43.0 38.1 43.0 37.9 43.0 37.65 42.6 37.55 M43.95 35.7 L43.95 35.75 43.9 35.9 44.1 36.25 Q44.3 36.6 44.45 36.6 L44.65 36.55 44.65 36.5 44.7 36.4 44.4 36.0 Q44.15 35.7 43.95 35.7 M40.05 39.8 Q40.25 40.35 40.35 40.5 40.55 40.9 40.85 40.9 40.9 40.9 41.0 40.8 L41.1 40.7 Q40.85 40.3 40.65 40.1 40.3 39.65 40.05 39.8 M37.65 45.75 Q37.95 45.75 37.95 45.5 37.95 45.3 37.6 45.2 37.2 45.15 37.05 45.35 L37.3 45.6 Q37.5 45.75 37.65 45.75 M39.35 43.1 Q39.4 43.15 39.4 42.95 39.4 42.65 38.75 42.4 38.15 42.15 38.15 42.55 38.15 42.65 38.45 42.9 38.8 43.2 39.05 43.2 L39.3 43.15 39.35 43.1 M37.4 47.9 L36.2 47.95 Q36.75 47.85 37.6 47.5 L37.95 47.55 38.35 47.5 Q38.9 47.45 39.45 47.3 L38.35 47.65 37.55 47.85 37.4 47.9" fill="#111111" fill-rule="evenodd" stroke="none"/>
    <path d="M33.2 22.5 L33.1 22.55 32.95 22.4 33.2 22.5 M37.55 20.45 L37.55 20.4 37.65 20.35 37.7 20.45 37.55 20.45 M27.9 4.25 L27.9 4.35 Q27.45 4.2 27.25 4.15 L27.3 4.1 27.75 4.2 27.9 4.25 M39.8 27.65 L40.35 27.5 39.8 27.8 39.8 27.65 M35.95 25.95 L36.15 25.95 35.95 25.95 M34.65 28.45 L34.6 28.4 34.75 28.4 34.65 28.45 M44.15 17.05 Q44.2 17.2 44.2 17.4 44.2 17.75 44.1 17.9 43.85 17.6 43.75 17.3 43.55 16.9 43.7 16.7 44.05 16.85 44.15 17.05 M42.65 26.05 L42.7 25.9 43.5 25.9 43.65 25.95 Q43.55 26.35 43.5 26.65 L43.4 26.65 Q42.6 26.5 42.65 26.05 M21.4 3.45 L21.55 3.15 Q21.7 3.05 21.75 3.3 21.65 3.5 21.65 3.65 L21.55 4.0 Q21.5 4.25 21.5 4.35 L21.5 4.4 Q21.4 4.5 21.3 4.5 L21.2 4.45 21.2 4.4 Q21.2 3.95 21.4 3.45" fill="url(#gradient0)" fill-rule="evenodd" stroke="none"/>
    <path d="M49.65 1.8 L48.7 1.2 Q47.55 0.3 46.45 -0.35 L45.8 -0.7 Q45.95 -0.9 46.3 -1.1 L46.5 -1.2 Q47.35 -1.05 48.55 -0.25 49.3 0.25 49.8 0.85 49.95 1.1 50.2 1.35 L50.1 1.4 Q49.9 1.55 49.65 1.8 M46.65 15.1 L45.85 14.7 Q46.55 14.2 49.2 11.7 L49.6 11.3 49.65 11.35 Q49.8 11.15 50.1 11.1 50.3 11.1 50.4 11.2 L50.5 11.15 50.85 11.35 50.95 11.45 50.45 11.85 47.1 14.8 46.65 15.1 M48.55 14.9 L48.0 15.45 47.9 15.45 48.55 14.9 M40.3 9.05 L39.85 8.45 40.3 7.95 Q41.6 5.9 42.9 5.05 L43.0 5.1 Q43.05 5.05 43.15 5.05 L43.25 5.05 Q43.4 5.05 43.5 5.1 L43.6 5.3 Q42.5 6.4 40.65 8.65 L40.3 9.05 M27.8 2.45 L27.75 2.5 27.75 2.45 27.8 2.45 M25.1 2.5 L25.05 2.8 Q25.0 3.25 25.0 3.5 L24.45 3.55 23.95 3.65 24.0 3.35 24.05 3.25 Q24.35 3.2 25.1 2.5 M21.9 3.7 L21.95 3.55 21.95 3.6 Q21.95 3.75 22.1 3.95 L21.75 4.05 21.9 3.7" fill="#947c2e" fill-rule="evenodd" stroke="none"/>
    <path d="M46.2 21.0 L46.1 20.7 Q45.8 20.05 45.35 19.65 L45.4 19.3 45.6 18.3 45.6 18.25 Q46.0 19.05 46.55 19.75 L46.75 20.15 Q46.45 20.55 46.2 21.0 M37.25 18.5 Q37.2 18.3 37.2 18.25 37.2 18.0 37.85 17.4 38.8 16.55 39.45 15.55 L39.9 14.9 39.95 14.85 39.95 14.9 40.2 14.8 40.25 14.55 Q41.05 13.55 41.05 13.35 L41.05 13.3 Q41.3 12.9 41.3 12.7 L41.35 12.65 Q41.75 12.5 42.25 12.5 42.95 12.5 43.4 12.95 L43.2 13.3 42.65 14.35 Q42.45 14.65 41.6 15.25 40.5 15.95 39.95 16.35 38.7 17.15 38.15 17.7 38.0 17.8 37.9 17.85 37.55 18.0 37.55 18.05 L37.55 18.15 37.55 18.1 Q37.35 18.3 37.25 18.5 M44.1 16.0 L44.2 16.35 44.0 16.25 44.1 16.0 M43.45 17.45 Q43.75 18.4 44.25 18.4 44.7 18.4 44.7 17.9 L44.95 18.65 44.95 19.0 44.35 18.95 44.05 18.65 44.1 18.9 43.65 18.55 Q43.35 18.35 43.35 18.15 43.35 17.85 43.45 17.55 L43.45 17.45 M40.65 19.15 L40.65 19.15 M40.75 19.15 L41.4 19.5 Q43.0 20.25 43.8 20.25 L45.25 20.15 Q45.65 20.6 45.9 21.2 L45.9 21.25 Q45.75 21.4 45.3 22.0 44.55 23.05 43.75 23.05 43.1 23.05 42.1 21.75 41.55 21.1 41.3 20.6 41.0 19.85 40.75 19.15 M44.3 21.1 L44.35 21.35 44.35 21.15 44.3 21.1" fill="#9f9839" fill-rule="evenodd" stroke="none"/>
    <path d="M23.3 0.9 L22.7 1.25 Q22.35 1.5 22.35 1.65 L22.4 1.8 22.4 1.85 22.45 1.85 22.3 2.25 Q22.2 2.25 22.1 2.35 L22.0 2.1 21.95 2.0 Q21.35 1.15 21.05 1.0 L20.8 0.6 20.45 0.2 20.3 0.0 20.1 -0.3 Q19.8 -0.7 19.8 -0.9 19.8 -1.4 20.8 -2.1 L20.85 -2.1 21.05 -1.95 Q22.25 -1.0 23.05 0.35 L23.4 0.9 23.3 0.9 M20.8 -2.05 L20.85 -2.1 20.8 -2.05 M27.1 -3.75 L27.6 -3.55 27.7 -3.5 Q28.35 -3.15 28.35 -2.7 L28.45 -1.05 Q28.45 -0.85 27.8 0.85 L27.5 1.65 Q27.0 1.25 26.5 1.05 L26.25 0.95 26.3 0.35 Q26.3 -1.6 26.75 -3.4 L26.85 -3.8 27.1 -3.75 M25.0 1.7 L24.4 1.75 24.3 1.5 Q24.45 1.3 24.45 1.05 24.45 0.7 24.05 0.7 23.95 0.35 23.9 -0.1 23.7 -1.2 23.7 -2.3 23.75 -2.2 23.85 -2.2 L23.9 -1.9 Q24.2 -1.2 24.25 -0.8 L24.3 -0.8 24.3 -1.05 Q24.3 -1.5 24.15 -2.1 L24.15 -2.15 Q24.3 -2.15 24.45 -2.3 L24.55 -2.2 24.6 -2.1 24.85 -0.65 24.85 0.1 Q24.8 0.45 24.65 0.7 24.95 0.55 25.0 0.25 L25.05 -0.35 Q25.05 -0.9 24.95 -1.35 L25.0 -1.25 Q25.05 -0.95 25.05 0.3 L25.05 1.35 25.0 1.7 M29.15 -1.65 L29.2 -1.65 28.55 0.45 Q28.2 1.5 28.1 2.05 27.95 2.05 27.85 2.1 L27.9 1.9 27.7 1.75 28.2 0.35 Q28.6 -0.95 28.75 -1.8 28.9 -1.65 29.15 -1.65 M24.4 -0.35 L24.3 -0.35 Q24.4 0.4 24.4 0.75 L24.45 0.75 24.5 0.5 Q24.5 0.25 24.4 -0.35 M29.1 0.1 L29.75 -0.4 Q31.25 -1.65 33.25 -2.8 33.4 -2.65 33.5 -2.4 33.7 -2.0 33.7 -1.75 L31.35 0.15 30.75 0.7 30.7 0.7 Q29.55 1.7 29.2 2.3 28.95 2.15 28.6 2.1 L28.45 2.1 Q28.65 1.7 28.75 1.3 28.9 0.95 29.1 0.1 M33.55 47.75 L32.95 47.7 33.65 47.55 31.8 47.55 Q30.7 47.55 28.65 46.3 26.75 45.1 24.45 43.0 L24.3 42.85 Q24.15 42.1 23.7 42.1 23.6 42.1 23.5 42.15 19.15 38.1 16.65 34.05 13.8 29.45 12.75 27.0 11.4 23.65 11.4 20.2 11.4 18.85 11.6 17.15 L11.8 15.95 11.85 15.5 Q11.85 15.25 11.75 15.2 L11.8 14.75 Q12.05 13.35 12.45 12.25 12.65 12.25 12.7 12.1 12.8 11.95 12.8 11.8 12.8 11.7 12.7 11.55 12.85 11.25 13.0 10.95 L13.15 10.7 13.15 10.65 13.7 9.85 13.8 9.7 Q16.3 10.1 21.15 13.0 23.7 15.3 24.85 16.15 L26.25 17.15 26.35 17.5 26.25 18.05 Q26.25 18.55 26.6 18.55 26.85 18.55 27.15 17.7 27.75 18.0 28.35 18.3 29.6 18.85 31.15 19.2 L30.1 17.15 Q28.75 14.5 28.25 13.7 29.0 14.6 31.0 16.6 L34.15 19.65 35.9 19.75 35.95 19.85 36.35 20.55 36.2 20.6 35.8 20.9 35.4 20.45 Q34.7 19.75 34.7 20.65 L34.9 21.45 34.1 21.95 33.2 22.5 32.95 22.4 32.6 22.15 Q32.25 21.9 32.0 21.9 L31.95 21.9 31.85 21.95 Q31.7 21.95 31.7 22.2 L32.2 22.95 31.8 23.1 Q31.6 22.8 31.15 22.5 30.8 22.25 30.55 22.2 30.25 22.2 30.25 22.5 L30.65 23.3 30.65 23.45 29.15 23.8 27.3 24.1 24.75 24.0 23.5 23.95 20.45 23.7 20.25 23.7 20.0 23.65 19.95 23.65 Q19.05 23.35 18.5 23.2 17.55 23.0 17.35 23.25 L17.3 23.3 Q17.4 23.5 17.9 23.65 L18.1 23.75 19.0 24.0 Q19.55 24.1 21.5 24.25 L23.3 24.3 23.3 24.35 23.7 24.35 24.4 24.3 25.35 24.3 27.5 24.2 28.15 24.25 Q29.2 24.25 30.75 23.7 30.9 23.95 31.1 24.05 31.35 24.4 31.55 24.4 31.8 24.4 31.95 24.2 32.1 24.05 32.1 23.8 32.1 23.55 31.95 23.3 L32.35 23.15 Q32.8 23.85 33.0 23.85 33.25 23.85 33.4 23.6 33.5 23.5 33.5 23.35 33.5 23.05 33.25 22.7 L34.25 22.25 35.05 21.85 35.1 21.8 Q35.3 22.25 35.55 22.25 35.8 22.25 35.95 22.05 36.1 21.85 36.1 21.65 36.1 21.5 36.0 21.3 L36.55 21.0 Q37.1 21.95 37.15 21.95 37.55 21.95 37.65 21.5 37.7 21.35 37.7 20.95 37.7 20.75 37.55 20.45 L37.7 20.45 38.6 22.1 38.95 23.0 39.15 23.4 Q39.35 23.9 39.6 24.25 39.8 24.55 40.05 24.8 40.95 25.7 42.3 25.85 42.3 26.25 42.4 26.45 L42.55 26.65 42.75 26.8 43.65 27.35 44.05 27.75 43.35 28.25 43.45 28.15 Q43.4 27.95 43.15 27.75 42.75 27.35 42.35 27.45 L42.3 27.55 42.3 27.65 42.5 28.3 42.65 28.6 41.95 28.2 Q41.2 28.1 40.65 28.35 40.35 28.55 40.25 28.65 39.85 28.4 39.25 28.4 L39.45 28.25 39.7 28.0 39.8 27.85 39.8 27.8 40.35 27.5 39.8 27.65 Q39.8 27.2 39.6 26.35 39.4 25.45 39.3 25.15 39.1 25.2 39.1 25.5 L39.25 25.95 Q39.35 26.45 39.35 26.55 39.35 27.05 38.9 27.7 L38.9 27.75 Q38.85 27.3 38.75 26.85 38.55 26.0 38.1 25.5 L38.1 25.45 Q38.55 25.4 38.8 25.15 L38.9 24.95 38.95 25.0 39.05 25.0 38.95 24.8 39.0 24.7 Q39.0 24.4 38.7 24.35 38.45 24.05 38.0 24.05 37.7 24.05 37.5 24.3 37.4 24.4 37.35 24.6 L36.3 24.55 Q35.8 24.7 35.45 25.05 35.35 25.2 35.25 25.3 34.95 25.35 34.9 25.85 L34.45 25.95 34.35 25.95 34.15 26.0 33.9 26.25 33.9 26.3 Q33.9 26.45 34.0 26.5 34.1 26.55 34.2 26.6 L34.25 26.8 Q34.35 27.0 34.7 27.0 35.6 27.0 36.15 26.65 36.55 26.45 36.6 26.25 36.75 26.45 36.9 26.8 L37.0 26.95 Q37.25 27.7 37.25 28.05 L37.25 28.2 Q37.15 28.85 36.35 29.15 35.85 29.3 35.7 29.4 L35.55 29.45 35.2 29.15 Q34.9 28.85 34.65 28.45 L34.75 28.4 34.6 28.4 34.6 28.35 Q34.25 27.75 34.0 26.85 L33.95 26.7 33.8 26.7 33.75 27.15 Q33.75 27.3 34.2 28.35 L34.3 28.65 Q34.85 30.1 35.15 30.1 35.4 30.1 35.6 29.95 L35.7 29.9 Q36.1 29.9 36.5 29.8 L36.5 29.9 Q36.45 30.05 36.45 30.25 L36.45 30.4 Q36.0 30.6 35.7 30.8 35.35 31.0 35.15 31.2 34.5 31.75 34.5 32.5 34.5 32.95 34.55 33.45 34.65 34.25 34.95 35.05 L35.0 35.1 Q35.1 35.35 35.2 35.55 35.6 36.4 36.25 36.85 L36.7 37.1 Q37.2 37.4 37.75 37.4 L38.3 37.4 38.7 37.3 39.15 37.15 Q39.35 37.05 39.6 36.95 39.95 36.7 40.8 35.85 L41.35 35.4 41.45 35.3 42.15 34.8 42.7 34.35 43.05 34.35 Q43.6 34.35 44.2 33.8 L44.2 33.75 44.25 33.75 44.25 34.5 Q44.25 35.1 44.15 35.4 L44.1 35.5 Q43.4 35.05 43.4 35.65 43.4 35.7 43.7 36.15 43.25 36.5 42.4 36.75 41.85 36.85 39.95 38.3 38.1 39.75 37.95 39.75 37.2 39.75 36.6 39.35 L36.05 39.2 Q35.8 39.2 35.55 39.05 L35.2 38.9 34.8 38.75 Q34.45 38.7 33.95 38.45 33.4 38.15 33.1 37.85 L33.0 37.85 Q33.45 38.5 35.15 39.4 36.15 39.95 36.6 40.15 37.05 41.05 37.9 41.9 L37.9 41.95 Q37.85 42.0 37.85 42.15 L37.85 42.2 Q37.85 42.4 38.2 42.85 L38.3 43.0 Q38.0 43.5 37.9 43.95 37.8 44.2 37.5 44.75 37.2 44.7 36.95 44.8 36.65 44.95 36.65 45.15 L37.05 45.5 36.9 45.85 Q36.8 46.0 36.75 46.3 L36.7 46.8 36.6 46.95 36.5 47.0 Q35.8 47.1 34.85 47.35 34.2 47.55 33.45 47.75 L33.55 47.75 M18.9 6.05 L19.4 5.85 19.45 5.8 19.5 5.8 Q19.55 5.8 19.65 5.75 L20.55 5.35 20.35 5.6 Q19.3 6.9 18.7 7.5 L18.75 7.5 Q19.45 6.9 20.7 5.65 21.0 5.35 21.3 5.1 L21.45 5.05 21.45 4.95 Q21.7 4.8 21.95 4.65 L22.0 4.65 Q21.45 5.15 20.55 5.95 18.35 7.85 18.25 8.05 L17.95 8.0 Q18.2 7.7 18.55 6.85 L18.9 6.05 M22.8 4.55 L23.05 4.55 Q23.2 4.55 23.55 4.35 L23.85 4.1 24.9 4.0 Q24.4 4.4 23.95 5.1 L22.85 6.75 Q22.25 7.45 22.0 8.3 21.85 8.95 21.85 9.9 L21.85 10.25 Q21.8 10.65 21.8 11.1 L21.6 11.15 Q21.45 10.25 21.9 8.65 22.45 6.9 22.65 6.15 L22.8 4.95 22.8 4.55 M24.2 5.65 L24.8 4.9 Q25.1 4.55 25.2 4.3 L25.25 4.3 27.1 4.45 27.2 4.5 Q27.5 4.75 28.25 5.05 L27.5 5.05 27.55 5.5 Q27.5 6.6 28.2 7.3 L28.7 7.75 Q28.95 7.95 28.95 8.1 28.95 8.45 28.8 8.85 28.55 9.4 28.15 9.4 27.05 9.4 26.4 8.15 26.45 7.7 26.55 7.35 26.7 6.85 26.7 6.45 26.7 5.65 26.0 5.3 L25.5 5.3 25.4 5.4 24.2 5.65 M29.5 5.5 L30.7 5.95 Q31.1 6.1 31.2 6.15 L31.65 6.65 30.7 6.1 29.5 5.5 M31.7 6.65 L31.2 6.05 31.2 6.0 30.7 5.7 Q30.1 5.4 29.05 4.85 L30.05 5.1 Q30.4 5.1 30.7 4.8 L30.75 4.75 31.2 4.85 31.3 4.9 31.55 5.3 31.9 6.15 Q32.15 6.65 32.35 7.0 L31.7 6.65 M37.35 19.8 L37.45 20.0 37.3 20.05 37.2 19.85 37.15 19.8 37.35 19.8 M33.7 0.75 Q33.25 1.1 33.0 1.35 34.35 2.35 35.8 2.85 L35.9 3.25 35.4 3.35 Q35.2 3.35 34.9 3.25 34.55 3.15 34.4 3.15 34.3 3.15 33.7 3.4 33.5 2.75 32.75 3.4 L32.65 3.5 Q32.4 3.25 31.9 2.9 31.7 2.8 31.55 2.7 L31.55 2.6 Q31.55 2.45 31.35 2.3 L31.8 1.85 32.4 1.2 Q32.2 1.25 31.5 1.7 31.15 1.9 30.95 2.05 L30.7 1.95 30.15 1.85 30.7 1.3 31.5 0.7 Q31.9 0.4 32.35 0.1 32.35 0.35 32.35 0.45 32.4 0.6 32.5 0.7 32.7 0.85 33.0 0.85 L33.7 0.75 M36.9 11.8 L36.9 11.55 37.85 11.6 Q38.55 11.8 38.8 12.1 L38.7 12.55 38.6 12.65 Q38.5 12.7 38.3 12.7 37.6 12.7 37.15 12.3 36.9 12.0 36.9 11.8 M35.55 13.25 L35.2 13.2 35.15 13.15 34.95 12.65 Q35.1 12.55 35.35 12.6 L36.0 12.7 36.1 12.95 35.95 13.15 Q35.8 13.25 35.55 13.25 M29.1 4.15 L29.2 3.85 29.2 3.7 29.25 3.65 Q29.35 3.25 29.5 3.0 L29.7 2.6 Q29.85 2.35 30.0 2.25 30.3 2.1 30.65 2.3 L30.7 2.3 30.85 2.4 31.0 2.55 31.0 2.65 Q31.0 3.2 30.9 3.7 L30.7 4.15 30.65 4.2 Q30.6 4.25 30.55 4.35 L30.4 4.5 30.4 4.5 Q30.2 4.65 30.0 4.65 L29.55 4.6 29.45 4.55 29.05 4.5 29.1 4.25 29.1 4.15 M33.65 4.4 L33.7 4.3 34.0 4.15 Q34.3 3.95 34.5 3.9 L34.6 4.45 34.5 4.7 33.7 4.5 33.65 4.4 M33.4 3.75 L33.4 3.9 Q33.4 4.1 33.1 4.4 32.8 4.75 32.6 4.75 L32.4 4.7 32.45 4.65 Q32.45 4.5 32.3 4.4 32.35 4.25 32.65 3.95 L32.75 3.95 32.8 3.85 Q33.1 3.6 33.35 3.75 L33.4 3.75 M34.15 5.55 L34.4 5.65 34.45 5.65 Q34.2 5.8 34.15 5.95 L33.25 5.25 34.15 5.55 M26.15 3.95 Q26.6 2.85 26.6 2.25 26.6 1.85 26.7 1.2 L26.8 1.2 27.4 1.85 27.4 1.95 Q27.1 2.75 27.05 2.95 L27.2 2.85 27.15 2.95 Q26.8 3.95 26.5 3.95 L26.15 3.95 M22.45 4.0 L22.8 3.45 Q23.65 2.15 23.85 1.75 L24.0 1.5 24.0 1.6 23.95 1.95 23.95 2.35 23.85 3.35 23.9 3.3 24.0 2.75 24.0 2.5 24.15 2.5 24.05 3.2 24.05 3.25 24.0 3.35 23.9 3.5 23.85 3.45 23.45 3.85 Q23.25 4.05 22.7 4.05 L22.6 4.05 22.55 4.0 22.45 4.0 M27.9 4.25 L28.8 4.3 28.7 4.7 27.9 4.35 27.9 4.25 M25.5 11.55 Q25.5 10.95 25.95 11.05 26.35 11.2 26.9 11.8 L26.65 12.1 Q26.5 12.25 26.2 12.25 25.85 12.25 25.65 11.95 25.5 11.7 25.5 11.55 M30.25 12.05 Q30.5 12.3 30.55 12.4 30.5 12.55 30.2 12.6 L29.8 12.55 Q29.7 12.55 29.7 12.3 L29.7 12.0 Q29.75 11.95 29.75 12.0 L29.95 12.0 30.25 12.05 M34.45 14.7 Q34.55 14.6 35.15 14.6 L35.25 14.8 35.3 14.95 35.2 15.3 Q35.25 15.3 35.25 15.35 35.25 15.4 34.95 15.4 34.7 15.4 34.55 15.1 34.45 14.9 34.45 14.7 M31.15 20.9 Q31.15 20.6 30.75 20.45 30.35 20.3 30.35 20.75 L30.45 21.0 Q30.6 21.25 30.85 21.25 30.95 21.25 31.05 21.1 31.15 21.0 31.15 20.9 M28.95 20.55 L29.2 20.55 Q28.8 19.85 28.5 19.6 28.05 19.25 28.05 20.05 28.05 20.55 28.95 20.55 M24.0 19.8 Q23.85 19.4 23.4 19.15 22.9 18.95 22.9 19.55 L23.0 19.8 Q23.15 20.1 23.55 20.1 23.65 20.1 23.8 19.95 L24.0 19.8 M37.85 15.1 Q37.7 15.25 37.45 15.25 L37.1 15.2 37.1 15.15 Q36.95 15.05 36.95 14.8 37.2 14.55 37.8 14.65 L37.95 14.9 37.85 15.1 M36.3 22.65 Q36.3 22.75 36.45 22.9 36.7 23.15 37.2 23.15 37.3 23.15 37.45 23.1 37.6 22.95 37.6 22.8 37.6 22.45 36.95 22.3 36.3 22.1 36.3 22.65 M40.65 26.15 L40.75 26.4 Q40.85 26.7 41.0 26.7 41.15 26.7 41.25 26.55 41.3 26.45 41.3 26.3 41.3 25.95 41.0 25.85 40.65 25.75 40.65 26.15 M20.65 1.25 Q21.2 2.0 21.3 2.2 L21.2 2.2 20.95 2.25 20.8 2.3 19.95 2.4 19.6 2.45 Q19.35 2.45 19.35 2.25 L19.35 1.9 Q19.6 1.7 19.95 1.55 20.35 1.35 20.65 1.25 M20.9 8.75 L20.75 8.95 Q20.7 9.05 20.55 9.1 L20.3 9.05 Q20.2 9.05 20.2 8.75 20.2 8.5 20.4 8.45 L20.75 8.5 20.9 8.75 M18.1 9.25 L19.1 9.3 19.15 9.35 Q19.2 9.4 19.2 9.65 19.2 9.95 18.9 10.15 18.65 10.3 18.3 10.3 L17.9 10.25 17.8 10.2 17.75 10.1 Q17.7 9.95 17.7 9.75 17.7 9.35 18.1 9.25 M31.45 33.15 Q31.45 32.95 30.8 32.45 30.15 31.9 30.15 32.6 L30.4 33.0 Q30.65 33.5 31.05 33.5 31.2 33.5 31.35 33.4 31.45 33.3 31.45 33.15 M31.0 29.25 Q31.3 29.25 31.3 28.9 31.3 28.5 30.9 28.55 30.5 28.55 30.5 28.8 L30.55 29.0 Q30.65 29.25 31.0 29.25 M32.75 30.4 Q32.3 30.35 32.3 30.75 L32.35 30.95 Q32.5 31.2 32.85 31.2 33.0 31.2 33.1 31.05 33.15 30.95 33.15 30.85 33.15 30.5 32.75 30.4" fill="#ba8a32" fill-rule="evenodd" stroke="none"/>
    <path d="M46.2 21.0 Q46.45 20.55 46.75 20.15 46.95 20.7 46.95 21.4 46.95 22.0 46.6 22.7 46.6 22.35 46.4 21.65 L46.2 21.0 M37.25 18.5 Q37.35 18.3 37.55 18.1 L37.55 18.15 37.55 18.2 37.65 18.25 Q37.85 18.25 38.3 17.95 38.7 17.7 39.1 17.7 L39.9 17.9 39.95 17.9 40.1 18.2 40.45 18.75 40.5 18.7 Q40.2 18.35 40.3 18.0 L40.4 17.75 40.45 17.75 40.75 17.6 40.85 17.6 Q41.6 17.6 42.9 18.75 L43.85 19.65 Q44.2 19.65 44.65 19.9 L44.9 20.0 44.9 19.9 44.95 19.9 45.25 20.15 43.8 20.25 Q43.0 20.25 41.4 19.5 L40.75 19.15 40.7 19.1 40.65 19.15 41.15 20.85 Q41.5 22.2 41.85 23.05 42.35 24.45 43.0 25.1 L42.45 25.15 Q42.35 25.15 42.2 25.2 42.1 25.3 42.0 25.3 40.9 25.3 38.95 21.9 38.45 21.0 37.95 20.05 37.95 19.95 37.9 19.9 L37.7 19.5 37.65 19.45 37.65 19.35 37.3 18.6 37.25 18.5 M37.9 17.85 Q38.0 17.8 38.15 17.7 38.7 17.15 39.95 16.35 40.5 15.95 41.6 15.25 42.45 14.65 42.65 14.35 L43.2 13.3 43.4 12.95 43.65 13.3 43.85 13.8 43.9 13.85 Q44.0 14.2 44.05 15.5 L44.1 16.0 44.0 16.25 Q43.8 16.15 43.6 16.15 43.65 15.95 43.45 15.8 43.2 15.95 43.2 16.05 43.15 16.15 43.15 16.45 L43.4 17.45 43.45 17.45 43.45 17.55 Q43.35 17.85 43.35 18.15 43.35 18.35 43.65 18.55 L43.45 18.45 43.2 18.3 43.15 18.25 41.6 17.4 Q41.05 17.05 40.8 16.95 40.4 16.8 39.8 17.2 L38.85 17.5 38.6 17.6 37.9 17.85 M40.65 19.15 L40.65 19.15 M45.9 21.2 L45.95 21.3 Q46.15 21.75 46.2 22.45 L46.25 23.25 45.95 23.65 Q45.4 24.3 44.75 24.75 L44.55 24.75 Q44.4 24.8 44.25 24.95 44.0 25.15 43.7 25.15 L43.55 25.0 43.5 25.0 Q43.15 24.65 42.3 22.85 L42.2 22.65 41.7 21.55 41.35 20.8 41.3 20.6 Q41.55 21.1 42.1 21.75 43.1 23.05 43.75 23.05 44.55 23.05 45.3 22.0 45.75 21.4 45.9 21.25 L45.9 21.2 M38.85 28.15 Q38.85 28.25 38.95 28.35 L38.85 28.5 Q38.75 28.6 38.55 28.6 L38.35 28.6 38.25 28.5 38.25 28.35 Q38.25 28.25 38.4 28.15 38.6 28.05 38.85 28.15 M39.5 29.0 Q39.5 29.15 39.35 29.2 39.25 29.25 39.1 29.25 38.9 29.25 38.8 29.1 38.7 29.0 38.7 28.9 38.7 28.5 39.1 28.6 39.5 28.7 39.5 29.0 M39.4 29.8 L39.45 29.9 39.4 30.15 39.3 30.2 39.15 30.25 Q39.0 30.2 38.95 30.1 L38.9 29.9 Q38.9 29.7 39.15 29.55 39.3 29.65 39.4 29.8" fill="#787e27" fill-rule="evenodd" stroke="none"/>
    <path d="M46.85 15.7 L47.6 15.9 Q47.5 16.1 47.45 16.2 L47.1 16.55 Q46.55 16.45 45.95 16.15 45.3 15.85 45.1 15.55 L45.05 15.55 Q45.1 15.85 45.35 16.0 L45.8 16.3 Q45.9 16.35 46.25 16.85 46.35 17.0 46.5 17.1 45.9 17.65 45.75 17.95 45.6 17.85 45.45 17.8 45.3 17.5 45.0 17.15 L45.05 17.05 45.9 16.45 44.95 15.8 44.55 15.6 44.65 15.15 46.5 15.95 Q46.55 15.95 46.85 15.7 M39.5 41.55 L41.6 41.45 Q44.15 40.25 45.45 38.6 46.4 37.4 46.85 35.65 L46.9 35.4 Q47.05 35.6 47.3 35.6 47.6 35.6 47.8 35.3 L48.25 35.65 48.3 36.4 Q48.3 36.6 48.15 36.95 48.0 38.1 46.8 40.6 45.4 43.35 44.6 44.05 L43.7 44.75 43.35 45.05 Q42.15 46.15 40.75 46.85 41.65 46.45 42.45 45.95 44.25 44.85 46.05 42.65 46.4 42.15 47.7 39.4 L48.55 37.5 Q48.75 38.6 48.75 39.0 48.75 40.0 47.85 42.25 L47.45 43.3 47.4 43.35 Q46.75 44.75 46.25 45.25 44.2 47.15 41.05 48.9 37.2 51.0 34.7 51.0 32.05 51.0 29.1 49.1 27.15 47.9 26.3 46.85 25.2 45.55 24.55 44.5 24.45 44.35 24.35 43.55 L25.95 45.15 Q27.35 46.5 29.25 47.4 L29.4 47.4 Q29.75 47.4 30.0 47.6 L30.2 47.8 30.3 47.85 31.35 47.85 32.4 48.1 32.5 48.1 32.95 48.2 35.35 48.0 33.85 47.8 33.55 47.75 33.45 47.75 Q34.2 47.55 34.85 47.35 35.8 47.1 36.5 47.0 L36.6 46.95 Q36.5 47.1 36.3 47.25 L36.25 47.3 Q35.85 47.55 35.85 47.65 35.85 47.8 35.9 47.8 L35.9 47.85 Q36.45 47.9 36.9 47.2 L37.05 47.0 Q37.25 46.55 37.55 45.85 37.9 46.05 38.05 46.05 38.25 46.05 38.4 45.9 38.5 45.75 38.5 45.6 38.5 45.0 37.95 44.8 L38.55 43.25 Q38.9 43.45 39.3 43.45 39.55 43.45 39.7 43.3 39.8 43.15 39.8 42.9 39.8 42.8 39.5 42.5 39.3 42.3 39.1 42.15 39.3 41.8 39.5 41.55 M37.4 47.9 L37.55 47.85 38.35 47.65 39.45 47.3 Q38.9 47.45 38.35 47.5 L37.95 47.55 37.6 47.5 Q36.75 47.85 36.2 47.95 L37.4 47.9" fill="#5c9144" fill-rule="evenodd" stroke="none"/>
    <path d="M46.85 15.7 Q46.55 15.95 46.5 15.95 L44.65 15.15 44.65 14.85 Q44.75 14.95 44.9 15.0 45.35 15.2 46.85 15.7 M44.55 15.6 L44.95 15.8 45.9 16.45 45.05 17.05 45.0 17.15 Q44.4 16.45 44.4 16.25 L44.55 15.7 44.55 15.6 M39.5 41.55 L39.65 41.35 40.15 40.8 Q40.55 41.3 40.85 41.3 41.1 41.3 41.25 41.1 41.4 40.95 41.4 40.8 41.4 40.45 40.85 39.95 41.6 39.05 42.25 38.3 42.6 38.55 42.9 38.55 43.2 38.55 43.3 38.35 43.4 38.25 43.4 38.05 43.4 37.75 42.95 37.55 L43.9 36.5 Q44.35 37.1 44.6 37.1 44.85 37.1 45.0 36.9 45.05 36.75 45.05 36.6 45.05 36.25 44.55 35.8 L44.8 35.6 Q45.1 36.05 45.35 36.05 45.5 36.05 45.6 35.9 45.75 35.75 45.75 35.65 45.75 35.35 45.45 35.05 46.0 34.65 46.3 34.55 L46.45 34.55 Q46.65 34.55 46.95 34.7 46.85 34.95 46.85 35.15 46.85 35.25 46.9 35.4 L46.85 35.65 Q46.4 37.4 45.45 38.6 44.15 40.25 41.6 41.45 L39.5 41.55" fill="#91b450" fill-rule="evenodd" stroke="none"/>
    <path d="M23.3 0.9 L23.4 0.9 23.05 0.35 Q22.25 -1.0 21.05 -1.95 L20.85 -2.1 20.8 -2.05 21.8 -2.75 22.05 -2.9 Q23.4 -2.95 23.6 -2.6 23.65 -2.5 23.7 -2.3 23.7 -1.2 23.9 -0.1 23.95 0.35 24.05 0.7 23.8 0.7 23.4 0.85 L23.3 0.9 M20.85 -2.1 L20.8 -2.1 21.0 -2.25 20.85 -2.1 M27.1 -3.75 L26.85 -3.8 26.75 -3.4 Q26.3 -1.6 26.3 0.35 L26.25 0.95 Q25.15 0.6 25.15 1.75 L25.05 1.7 25.0 1.7 25.05 1.35 25.05 0.3 Q25.05 -0.95 25.0 -1.25 L24.95 -1.35 Q24.9 -1.75 24.8 -2.1 L24.65 -2.55 Q24.65 -2.85 24.55 -3.05 L24.55 -3.15 Q24.55 -3.5 25.0 -3.65 L25.9 -3.95 Q26.55 -3.9 27.1 -3.75 M24.4 1.75 L24.1 1.8 24.1 1.85 Q24.15 1.65 24.25 1.55 L24.3 1.5 24.4 1.75 M24.45 -2.3 L24.5 -2.35 24.55 -2.2 24.45 -2.3 M29.1 0.1 L29.15 -0.1 Q29.6 -2.0 30.5 -3.0 L31.95 -3.05 32.65 -3.05 Q33.0 -3.05 33.25 -2.8 31.25 -1.65 29.75 -0.4 L29.1 0.1 M46.75 31.5 Q46.8 31.35 46.8 31.25 46.8 30.75 46.3 30.75 L46.2 30.15 46.25 30.15 Q47.85 32.35 48.2 35.0 L47.95 34.85 48.0 34.5 Q48.0 33.2 47.4 33.85 47.25 34.1 47.05 34.4 46.75 34.3 46.5 34.3 L46.5 34.25 46.45 33.8 Q46.95 33.8 47.15 33.6 47.25 33.5 47.25 33.3 47.25 32.8 46.4 32.8 L46.4 32.75 46.35 31.7 Q46.6 31.7 46.75 31.5 M13.7 9.85 Q14.75 8.45 16.5 7.35 17.55 6.65 18.9 6.05 L18.55 6.85 Q18.2 7.7 17.95 8.0 L18.25 8.05 Q18.35 7.85 20.55 5.95 21.45 5.15 22.0 4.65 L22.3 4.55 22.55 4.4 Q22.65 4.5 22.8 4.55 L22.8 4.95 22.65 6.15 Q22.45 6.9 21.9 8.65 21.45 10.25 21.6 11.15 L21.8 11.1 Q21.8 10.65 21.85 10.25 L21.85 10.45 21.9 10.45 Q22.1 8.45 23.75 6.25 L24.2 5.65 25.4 5.4 25.5 5.3 26.0 5.3 Q26.7 5.65 26.7 6.45 26.7 6.85 26.55 7.35 26.45 7.7 26.4 8.15 27.05 9.4 28.15 9.4 28.55 9.4 28.8 8.85 28.95 8.45 28.95 8.1 28.95 7.95 28.7 7.75 L28.2 7.3 Q27.5 6.6 27.55 5.5 L27.5 5.05 28.25 5.05 28.9 5.25 29.5 5.5 30.7 6.1 31.65 6.65 32.35 7.45 33.25 8.8 33.3 8.75 32.85 8.05 32.3 7.4 31.7 6.65 32.35 7.0 Q32.15 6.65 31.9 6.15 L31.55 5.3 31.3 4.9 Q33.8 5.65 35.3 7.3 L35.9 8.05 Q36.55 8.95 37.25 10.3 37.25 10.25 37.25 10.0 37.25 9.6 36.55 8.6 L36.15 8.05 Q35.55 7.3 34.85 6.55 L34.75 6.5 34.95 6.5 35.25 6.75 36.45 7.65 36.7 7.85 Q36.6 7.95 36.55 8.05 L36.55 8.2 Q36.55 8.35 37.1 8.6 37.45 8.75 37.75 8.85 38.35 9.5 38.8 10.15 38.45 10.45 38.45 10.75 L38.55 11.0 Q38.65 11.2 38.85 11.2 39.05 11.2 39.25 11.1 39.4 11.55 39.55 12.05 39.4 12.25 39.2 12.4 38.95 12.55 38.85 12.7 L38.8 12.7 38.75 12.75 38.75 12.8 38.8 12.8 Q38.75 12.9 38.75 13.1 38.75 13.2 38.8 13.3 38.95 13.4 39.3 13.4 L39.7 13.35 39.85 14.35 39.55 14.8 39.0 15.5 37.8 16.55 Q36.65 17.55 36.65 17.9 36.65 18.4 37.35 19.8 L37.15 19.8 36.75 19.4 Q36.35 19.05 36.05 19.05 35.75 19.05 35.75 19.55 L35.95 19.85 35.9 19.75 34.15 19.65 31.0 16.6 Q29.0 14.6 28.25 13.7 28.75 14.5 30.1 17.15 L31.15 19.2 Q29.6 18.85 28.35 18.3 27.75 18.0 27.15 17.7 26.85 18.55 26.6 18.55 26.25 18.55 26.25 18.05 L26.35 17.5 26.25 17.15 24.85 16.15 Q23.7 15.3 21.15 13.0 16.3 10.1 13.8 9.7 L13.7 9.85 M44.05 27.75 L44.2 27.9 Q45.0 28.65 45.55 29.25 45.35 29.4 45.35 29.6 45.35 29.8 45.55 29.95 45.75 30.1 46.0 30.15 L46.1 30.6 46.15 30.75 46.0 30.8 Q45.65 30.85 45.4 31.0 45.15 31.15 45.15 31.3 45.15 31.45 45.15 31.5 L45.2 31.55 45.8 31.65 46.2 31.7 46.2 32.4 46.15 32.8 Q45.75 32.85 45.45 33.0 45.1 33.15 45.1 33.3 45.1 33.55 45.25 33.6 45.45 33.75 46.0 33.8 L45.75 34.35 45.65 34.55 Q45.45 34.65 45.3 34.85 L45.05 34.6 Q44.4 34.05 44.4 34.75 L44.65 35.35 44.75 35.5 44.5 35.75 44.25 35.55 44.1 35.5 44.15 35.4 Q44.25 35.1 44.25 34.5 L44.25 33.75 44.2 33.75 Q44.75 33.25 44.75 32.85 L44.75 31.65 Q44.75 30.95 44.55 30.5 44.15 29.55 42.75 28.65 L42.7 28.65 42.65 28.6 42.5 28.3 42.3 27.65 42.3 27.55 42.35 27.45 Q42.75 27.35 43.15 27.75 43.4 27.95 43.45 28.15 L43.35 28.25 44.05 27.75 M43.7 36.15 L43.85 36.4 43.9 36.45 43.85 36.45 43.5 36.85 42.8 37.5 42.5 37.4 Q41.6 37.15 41.6 37.65 41.6 37.75 42.0 38.1 L42.1 38.2 Q41.3 39.0 40.65 39.8 L40.45 39.65 Q39.45 39.0 39.45 39.7 L39.9 40.5 40.0 40.6 38.95 42.0 38.9 42.05 38.85 42.0 Q38.1 41.55 37.9 41.9 37.05 41.05 36.6 40.15 36.15 39.95 35.15 39.4 33.45 38.5 33.0 37.85 L33.1 37.85 Q33.4 38.15 33.95 38.45 34.45 38.7 34.8 38.75 L35.2 38.9 35.55 39.05 Q35.8 39.2 36.05 39.2 L36.6 39.35 Q37.2 39.75 37.95 39.75 38.1 39.75 39.95 38.3 41.85 36.85 42.4 36.75 43.25 36.5 43.7 36.15 M33.7 0.75 L34.75 0.6 Q34.85 0.6 34.9 0.7 35.1 0.85 35.45 1.65 35.65 2.25 35.8 2.85 34.35 2.35 33.0 1.35 33.25 1.1 33.7 0.75 M35.7 6.55 L35.95 6.55 Q36.1 6.55 36.25 6.5 36.9 6.85 37.55 7.25 L37.85 7.45 38.1 7.65 37.85 7.6 37.6 7.6 37.1 7.65 Q36.4 7.0 35.7 6.55 M38.5 8.65 Q38.6 8.5 38.6 8.3 L38.6 8.1 Q39.15 8.65 39.6 9.4 L40.0 10.05 40.1 10.2 40.1 10.25 40.2 10.3 40.3 10.5 Q40.6 11.0 40.9 11.4 L41.0 11.7 41.15 11.9 41.05 11.95 Q40.9 12.0 40.8 12.1 40.85 11.9 40.85 11.8 40.85 11.15 40.25 11.2 40.0 11.2 39.8 11.35 L39.75 11.3 39.55 10.9 39.6 10.8 Q39.9 10.4 39.9 10.2 39.9 9.45 39.2 9.85 L39.0 10.0 38.35 9.1 38.2 8.85 Q38.4 8.85 38.5 8.65 M35.55 13.25 Q35.8 13.25 35.95 13.15 L36.1 12.95 36.0 12.7 35.35 12.6 Q35.1 12.55 34.95 12.65 L35.15 13.15 35.2 13.2 35.55 13.25 M36.9 11.8 Q36.9 12.0 37.15 12.3 37.6 12.7 38.3 12.7 38.5 12.7 38.6 12.65 L38.7 12.55 38.8 12.1 Q38.55 11.8 37.85 11.6 L36.9 11.55 36.9 11.8 M40.3 13.15 L40.3 12.95 40.5 12.65 40.65 12.5 40.65 12.65 40.7 12.75 40.65 13.1 40.3 13.7 40.3 13.15 M29.1 4.15 L29.1 4.25 29.05 4.5 29.0 4.5 29.05 4.45 29.1 4.15 M33.65 4.4 L33.7 4.5 33.65 4.45 33.65 4.4 M26.15 3.95 Q25.7 3.9 25.45 3.75 L25.3 3.6 25.3 3.55 25.25 3.55 Q25.2 3.45 25.2 3.35 25.2 3.0 25.3 2.5 25.4 2.0 25.5 1.6 25.75 0.95 26.6 1.15 L26.8 1.2 26.7 1.2 Q26.6 1.85 26.6 2.25 26.6 2.85 26.15 3.95 M22.25 3.75 Q22.3 3.15 22.6 2.35 L22.9 1.6 23.1 1.5 Q23.55 1.3 23.65 1.3 L23.95 1.4 24.0 1.5 23.85 1.75 Q23.65 2.15 22.8 3.45 L22.45 4.0 22.35 3.95 22.25 3.75 M24.15 2.5 Q24.1 2.45 24.1 2.3 L24.1 2.15 24.2 2.2 24.15 2.5 M23.95 3.65 L23.9 3.5 24.0 3.35 23.95 3.65 M34.45 14.7 Q34.45 14.9 34.55 15.1 34.7 15.4 34.95 15.4 35.25 15.4 35.25 15.35 35.25 15.3 35.2 15.3 L35.3 14.95 35.25 14.8 35.15 14.6 Q34.55 14.6 34.45 14.7 M30.25 12.05 L29.95 12.0 29.75 12.0 Q29.75 11.95 29.7 12.0 L29.7 12.3 Q29.7 12.55 29.8 12.55 L30.2 12.6 Q30.5 12.55 30.55 12.4 30.5 12.3 30.25 12.05 M25.5 11.55 Q25.5 11.7 25.65 11.95 25.85 12.25 26.2 12.25 26.5 12.25 26.65 12.1 L26.9 11.8 Q26.35 11.2 25.95 11.05 25.5 10.95 25.5 11.55 M28.95 20.55 Q28.05 20.55 28.05 20.05 28.05 19.25 28.5 19.6 28.8 19.85 29.2 20.55 L28.95 20.55 M31.15 20.9 Q31.15 21.0 31.05 21.1 30.95 21.25 30.85 21.25 30.6 21.25 30.45 21.0 L30.35 20.75 Q30.35 20.3 30.75 20.45 31.15 20.6 31.15 20.9 M24.0 19.8 L23.8 19.95 Q23.65 20.1 23.55 20.1 23.15 20.1 23.0 19.8 L22.9 19.55 Q22.9 18.95 23.4 19.15 23.85 19.4 24.0 19.8 M38.7 24.35 Q39.0 24.4 39.0 24.7 L38.95 24.8 Q38.85 24.55 38.7 24.35 M38.9 24.95 L38.8 25.15 Q38.55 25.4 38.1 25.45 37.95 25.15 37.8 24.95 L38.05 24.75 Q38.4 24.45 38.45 24.45 38.65 24.45 38.75 24.65 L38.9 24.95 M34.2 26.6 L34.4 26.6 Q34.8 26.6 35.05 26.25 L35.05 26.2 35.1 26.25 35.15 26.25 35.9 26.0 35.95 25.95 36.15 25.95 36.25 26.0 Q36.45 26.05 36.6 26.25 36.55 26.45 36.15 26.65 35.6 27.0 34.7 27.0 34.35 27.0 34.25 26.8 L34.2 26.6 M37.85 15.1 L37.95 14.9 37.8 14.65 Q37.2 14.55 36.95 14.8 36.95 15.05 37.1 15.15 L37.1 15.2 37.45 15.25 Q37.7 15.25 37.85 15.1 M36.3 22.65 Q36.3 22.1 36.95 22.3 37.6 22.45 37.6 22.8 37.6 22.95 37.45 23.1 37.3 23.15 37.2 23.15 36.7 23.15 36.45 22.9 36.3 22.75 36.3 22.65 M40.65 26.15 Q40.65 25.75 41.0 25.85 41.3 25.95 41.3 26.3 41.3 26.45 41.25 26.55 41.15 26.7 41.0 26.7 40.85 26.7 40.75 26.4 L40.65 26.15 M20.65 1.25 Q20.35 1.35 19.95 1.55 19.6 1.7 19.35 1.9 19.35 1.45 19.9 0.95 L20.25 0.65 20.25 0.7 20.65 1.25 M18.1 9.25 Q17.7 9.35 17.7 9.75 17.7 9.95 17.75 10.1 L17.8 10.2 17.9 10.25 18.3 10.3 Q18.65 10.3 18.9 10.15 19.2 9.95 19.2 9.65 19.2 9.4 19.15 9.35 L19.1 9.3 18.1 9.25 M20.9 8.75 L20.75 8.5 20.4 8.45 Q20.2 8.5 20.2 8.75 20.2 9.05 20.3 9.05 L20.55 9.1 Q20.7 9.05 20.75 8.95 L20.9 8.75 M32.75 30.4 Q33.15 30.5 33.15 30.85 33.15 30.95 33.1 31.05 33.0 31.2 32.85 31.2 32.5 31.2 32.35 30.95 L32.3 30.75 Q32.3 30.35 32.75 30.4 M31.0 29.25 Q30.65 29.25 30.55 29.0 L30.5 28.8 Q30.5 28.55 30.9 28.55 31.3 28.5 31.3 28.9 31.3 29.25 31.0 29.25 M31.45 33.15 Q31.45 33.3 31.35 33.4 31.2 33.5 31.05 33.5 30.65 33.5 30.4 33.0 L30.15 32.6 Q30.15 31.9 30.8 32.45 31.45 32.95 31.45 33.15" fill="#bcb447" fill-rule="evenodd" stroke="none"/>
    <path d="M46.35 29.85 L45.95 29.8 45.95 29.75 Q45.9 29.75 45.9 29.6 45.9 29.3 46.3 29.3 L46.45 29.3 46.45 29.35 Q46.6 29.5 46.7 29.75 46.6 29.85 46.35 29.85 M46.45 31.2 L46.5 31.2 Q46.5 31.4 46.4 31.5 L46.05 31.55 45.6 31.5 Q45.55 31.45 45.55 31.3 45.55 31.15 45.7 31.15 45.85 31.1 46.4 31.15 L46.45 31.2 M46.7 33.3 Q46.7 33.6 46.35 33.6 46.15 33.6 45.9 33.45 45.7 33.4 45.6 33.3 45.85 32.9 46.3 32.95 46.7 33.05 46.7 33.3 M47.15 34.95 Q47.15 34.75 47.3 34.55 47.45 34.25 47.75 34.25 L47.8 34.35 47.7 34.85 Q47.6 35.2 47.55 35.3 L47.4 35.3 47.2 35.05 47.15 34.95 M49.2 35.25 L49.2 35.5 Q49.2 35.7 48.95 35.9 48.85 35.8 48.8 35.65 48.75 35.55 48.75 35.5 48.75 35.2 48.95 35.0 49.15 35.1 49.2 35.25 M35.85 6.25 Q35.7 6.35 35.15 6.35 34.8 6.35 34.7 6.2 34.65 6.15 34.65 6.05 34.65 5.75 35.0 5.75 35.4 5.75 36.0 6.0 L35.85 6.25 M38.1 8.5 L37.9 8.55 37.7 8.55 Q37.55 8.45 37.0 8.25 L37.0 8.0 37.75 8.0 37.8 8.05 Q38.05 8.2 38.2 8.4 L38.1 8.5 M39.45 10.5 L39.05 10.7 38.95 10.65 Q38.9 10.6 38.9 10.45 38.9 10.3 39.1 10.2 L39.45 10.05 39.55 10.05 Q39.6 10.1 39.6 10.2 39.6 10.4 39.45 10.5 M40.35 11.85 Q40.35 12.1 40.15 12.45 39.9 12.8 39.65 12.8 L39.3 12.8 39.3 12.6 Q39.3 12.55 39.5 12.3 L39.8 12.0 39.9 11.75 Q40.0 11.6 40.3 11.6 L40.3 11.65 40.35 11.85 M32.85 22.55 Q33.45 23.15 33.45 23.35 L33.45 23.55 33.4 23.6 Q33.35 23.65 33.25 23.65 33.05 23.65 32.65 23.05 L32.25 22.45 Q32.25 21.95 32.85 22.55 M30.55 22.7 Q30.9 22.7 31.35 23.2 31.75 23.65 31.75 23.8 31.75 24.0 31.75 23.95 L31.7 24.0 Q31.65 24.05 31.5 24.05 31.4 24.05 30.95 23.5 30.55 22.95 30.55 22.9 L30.55 22.7 M35.3 20.45 Q35.5 20.65 35.65 21.05 35.85 21.4 35.85 21.6 35.85 21.8 35.75 21.65 L35.35 21.15 Q35.1 20.85 35.1 20.75 35.1 20.5 35.3 20.45 M37.15 20.1 Q37.45 20.45 37.45 20.95 37.45 21.2 37.3 21.4 37.45 21.4 37.25 21.4 L36.2 19.5 Q36.9 19.85 37.15 20.1 M44.85 34.75 Q45.1 34.75 45.3 34.95 45.4 35.05 45.45 35.25 L45.45 35.4 Q45.4 35.4 45.4 35.45 L45.25 35.45 Q45.1 35.45 44.95 35.2 44.8 34.95 44.8 34.9 L44.8 34.75 44.85 34.75 M40.05 39.8 Q40.3 39.65 40.65 40.1 40.85 40.3 41.1 40.7 L41.0 40.8 Q40.9 40.9 40.85 40.9 40.55 40.9 40.35 40.5 40.25 40.35 40.05 39.8 M43.95 35.7 Q44.15 35.7 44.4 36.0 L44.7 36.4 44.65 36.5 44.65 36.55 44.45 36.6 Q44.3 36.6 44.1 36.25 L43.9 35.9 43.95 35.75 43.95 35.7 M42.6 37.55 Q43.0 37.65 43.0 37.9 43.0 38.1 42.7 38.1 42.45 38.1 42.3 37.95 42.2 37.8 42.2 37.7 42.2 37.4 42.6 37.55 M39.35 43.1 L39.3 43.15 39.05 43.2 Q38.8 43.2 38.45 42.9 38.15 42.65 38.15 42.55 38.15 42.15 38.75 42.4 39.4 42.65 39.4 42.95 39.4 43.15 39.35 43.1 M37.65 45.75 Q37.5 45.75 37.3 45.6 L37.05 45.35 Q37.2 45.15 37.6 45.2 37.95 45.3 37.95 45.5 37.95 45.75 37.65 45.75" fill="#dccc5a" fill-rule="evenodd" stroke="none"/>
    <path d="M36.25 25.25 Q36.6 25.0 36.75 25.0 37.65 25.0 38.1 26.55 L38.1 26.65 37.95 26.85 Q36.95 25.75 36.25 25.25 M37.65 28.45 L37.65 28.5 37.7 28.7 37.65 28.7 37.6 28.45 37.65 28.45 M43.9 30.4 L43.9 30.55 Q43.9 30.95 43.8 31.05 43.7 31.35 43.4 31.6 43.3 31.25 43.2 31.0 42.9 30.35 41.8 29.2 41.55 29.1 41.3 29.05 L41.6 28.7 41.9 28.7 Q42.9 28.7 43.7 30.0 L43.9 30.4 M40.75 28.85 L40.75 28.95 40.6 28.95 40.75 28.85 M39.75 29.65 L39.75 29.05 Q40.0 29.15 40.25 29.3 40.5 29.55 40.65 29.75 L40.7 29.75 Q41.05 29.75 41.1 30.0 41.15 30.15 41.1 30.3 41.1 30.5 41.05 30.65 40.4 30.05 39.75 29.65 M39.9 31.35 Q40.45 31.45 40.85 31.05 L41.0 31.0 Q41.05 30.95 41.1 30.95 L41.15 30.6 Q41.3 30.35 41.3 30.2 L41.25 30.0 Q41.2 29.95 41.1 29.9 L41.0 29.6 41.25 29.75 41.0 29.35 Q41.75 28.95 42.6 30.2 43.1 30.95 43.25 31.45 42.35 31.75 40.95 32.8 39.95 33.45 39.0 34.25 38.85 33.8 38.6 33.35 38.25 32.75 37.8 32.4 L37.85 32.45 Q38.55 32.2 39.45 31.65 L39.9 31.35 M37.25 29.7 Q37.35 29.35 37.7 29.15 37.85 29.05 38.0 29.0 38.25 29.1 38.65 29.25 L38.6 29.35 Q38.2 29.45 37.95 29.85 37.75 30.25 37.7 30.7 L37.25 29.7 M36.15 31.4 Q36.1 31.45 36.05 31.55 L36.2 31.55 35.85 31.5 36.15 31.4 M38.5 30.3 L38.55 30.15 38.6 30.2 38.5 30.3" fill="#bcbba9" fill-rule="evenodd" stroke="none"/>
    <path d="M36.25 25.25 Q36.95 25.75 37.95 26.85 L38.1 26.65 Q38.3 27.25 38.35 27.8 L38.35 28.0 Q37.7 27.8 37.65 28.45 L37.6 28.45 37.55 28.3 Q37.35 27.8 37.35 27.75 37.35 27.45 37.1 26.9 L36.75 26.05 Q36.55 25.65 36.0 25.4 L36.25 25.25 M43.4 31.6 Q43.7 31.35 43.8 31.05 43.9 30.95 43.9 30.55 L43.9 30.4 Q44.3 31.15 44.3 31.6 L44.25 32.35 Q44.25 32.75 44.1 32.9 43.75 33.35 43.15 33.55 43.25 33.45 43.35 33.3 43.5 32.95 43.5 32.7 L43.5 32.55 43.45 32.0 43.4 31.6 M41.6 28.7 L41.3 29.05 40.75 28.95 40.75 28.85 Q41.0 28.75 41.6 28.7 M41.05 30.65 Q40.95 30.95 40.6 30.95 40.15 30.95 39.9 30.6 39.8 30.4 39.75 30.25 L39.75 30.2 39.6 30.05 39.7 29.85 39.75 29.65 Q40.4 30.05 41.05 30.65 M39.9 31.35 L39.45 31.65 Q38.55 32.2 37.85 32.45 L37.8 32.4 Q37.4 32.05 36.95 31.85 L36.85 31.85 37.4 32.45 37.75 32.8 Q38.3 33.35 38.65 34.1 L38.85 34.6 Q39.0 35.1 39.0 35.55 39.0 35.9 38.85 36.3 38.6 36.9 38.1 36.9 37.8 36.9 37.55 36.75 L37.45 36.75 Q36.3 36.35 35.6 35.1 35.1 34.1 35.0 33.05 35.0 32.9 35.1 32.75 35.1 32.3 35.25 32.0 35.35 31.85 35.55 31.65 L35.85 31.5 36.2 31.55 36.05 31.55 Q36.1 31.45 36.15 31.4 L36.6 31.1 Q36.65 31.15 36.75 31.2 L36.85 31.35 Q37.15 32.0 37.9 32.0 38.15 32.0 38.4 31.8 38.65 31.6 38.65 31.4 38.65 31.3 38.5 31.1 38.35 30.9 38.35 30.8 38.35 30.75 38.45 30.45 L38.45 30.4 38.5 30.35 38.5 30.3 38.6 30.2 Q38.75 30.35 39.15 30.35 39.3 30.35 39.45 30.25 39.5 30.35 39.45 30.55 39.4 30.9 39.45 31.0 39.5 31.25 39.85 31.35 L39.9 31.35 M39.0 34.25 Q39.95 33.45 40.95 32.8 42.35 31.75 43.25 31.45 43.3 31.65 43.3 31.85 43.3 32.3 43.2 32.75 43.0 33.45 42.65 33.55 L42.2 34.0 Q41.75 34.4 41.35 34.65 L40.95 35.05 Q40.0 35.9 39.3 36.3 L39.3 36.15 Q39.3 35.15 39.0 34.25 M38.6 29.35 L38.5 29.45 Q38.5 29.6 38.5 29.75 L38.5 29.95 Q38.3 30.15 38.25 30.6 L38.25 30.75 Q38.3 30.95 38.3 31.3 38.3 31.5 38.2 31.6 38.1 31.8 37.85 31.8 37.35 31.8 37.2 31.55 37.15 31.45 37.15 31.3 37.15 31.2 37.2 31.1 L37.1 30.9 37.1 30.3 Q37.1 29.95 37.25 29.7 L37.7 30.7 Q37.75 30.25 37.95 29.85 38.2 29.45 38.6 29.35" fill="#89955b" fill-rule="evenodd" stroke="none"/>
    <path d="M49.65 1.8 L49.6 1.8 49.2 2.2 Q48.8 1.9 48.1 1.55 L47.35 1.1 Q46.2 0.4 45.9 0.0 45.6 -0.4 45.8 -0.7 L46.45 -0.35 Q47.55 0.3 48.7 1.2 L49.65 1.8 M46.65 15.1 L47.1 14.8 50.45 11.85 50.95 11.45 Q51.1 11.65 51.1 11.8 L51.1 11.9 Q51.1 12.0 50.95 12.4 50.45 12.75 50.45 13.0 L48.55 14.9 47.9 15.45 47.6 15.4 47.45 15.4 Q47.05 15.3 46.65 15.1 M40.3 9.05 L40.65 8.65 Q42.5 6.4 43.6 5.3 L43.65 5.45 43.7 5.55 43.75 5.7 43.9 6.0 43.8 6.2 43.15 6.85 Q42.5 7.85 41.15 9.15 L40.65 9.65 40.35 9.2 40.3 9.05 M27.8 2.45 L28.0 2.55 27.95 2.6 28.0 2.75 28.15 2.6 29.05 2.9 29.25 3.0 29.3 2.95 29.35 2.95 Q29.4 2.95 29.45 2.9 29.2 3.3 29.0 3.85 L28.85 3.7 Q27.9 3.5 27.5 3.55 27.75 2.8 27.75 2.7 L27.75 2.5 27.8 2.45 M31.3 3.2 L31.4 3.0 31.8 3.35 32.35 3.8 32.0 4.1 31.9 4.25 31.6 4.15 31.05 4.1 31.05 4.05 Q31.05 3.75 31.3 3.2 M24.1 2.15 L25.15 2.1 25.1 2.5 Q24.35 3.2 24.05 3.25 L24.05 3.2 24.15 2.5 24.2 2.2 24.1 2.15" fill="#7a521b" fill-rule="evenodd" stroke="none"/>
    <path d="M43.95 5.0 Q43.85 4.95 43.15 4.5 43.75 3.9 44.05 3.45 44.15 3.3 44.0 3.0 L43.7 2.3 Q43.3 1.3 43.7 0.7 44.7 -0.8 45.55 -1.15 L45.45 -1.0 Q45.3 -0.85 45.25 -0.65 44.9 -0.5 44.6 -0.25 44.15 0.15 44.0 0.65 L43.8 0.7 Q43.75 0.7 43.7 0.85 43.45 1.15 43.85 2.05 44.4 3.2 45.95 4.2 46.85 4.8 47.6 4.35 48.0 4.15 48.6 3.5 L49.35 2.9 Q49.55 2.85 49.7 2.65 L49.75 2.55 50.4 1.9 50.55 1.9 Q50.8 1.7 51.15 1.85 L51.2 1.85 Q50.65 2.2 49.85 2.8 L47.15 4.95 Q46.6 4.95 45.85 4.5 45.05 4.0 45.0 4.0 44.45 4.0 44.15 4.5 44.0 4.75 43.95 5.0 M51.2 11.2 Q51.05 11.1 50.75 11.0 L50.55 10.95 Q50.35 10.85 50.15 10.75 L50.45 10.5 52.8 8.2 53.5 8.15 53.85 8.4 Q54.3 8.9 55.0 9.8 55.8 10.75 56.15 11.05 L56.55 11.65 Q56.35 11.85 56.25 12.15 L56.0 12.75 Q55.9 13.1 55.75 13.25 55.3 13.95 54.6 14.65 L54.05 15.2 Q53.65 14.35 53.15 13.45 L52.7 12.75 52.1 12.05 51.6 11.55 51.55 11.55 51.2 11.2" fill="#838567" fill-rule="evenodd" stroke="none"/>
    <path d="M43.95 5.0 Q44.0 4.75 44.15 4.5 44.45 4.0 45.0 4.0 45.05 4.0 45.85 4.5 46.6 4.95 47.15 4.95 L49.85 2.8 Q50.65 2.2 51.2 1.85 51.35 1.9 51.4 2.05 51.5 2.25 51.4 2.4 L51.25 2.55 51.2 2.65 Q50.9 3.1 50.2 3.85 49.5 4.55 49.05 4.9 48.8 5.1 48.0 5.25 L46.95 5.35 Q46.55 5.3 46.1 5.05 L45.6 4.7 Q45.3 4.55 45.1 4.65 44.9 4.75 44.6 5.25 L44.3 5.65 Q44.2 5.5 44.0 5.25 L43.95 5.0 M44.0 0.65 Q44.15 0.15 44.6 -0.25 44.9 -0.5 45.25 -0.65 L45.2 -0.45 Q45.05 0.1 45.5 0.4 L45.7 0.55 45.6 0.65 Q45.45 0.85 45.1 1.35 44.8 1.8 44.7 2.15 44.6 2.4 44.55 2.55 44.25 2.2 44.1 1.85 L43.9 1.15 Q43.9 1.0 43.95 0.85 L43.95 0.75 44.0 0.65 M51.6 12.6 L51.8 12.45 52.0 12.7 52.95 13.7 Q54.35 15.2 54.35 16.5 54.35 16.85 53.85 18.6 L53.75 17.95 Q53.45 16.45 53.2 16.0 52.25 14.4 51.5 13.5 L51.15 13.15 Q51.6 12.7 51.6 12.6" fill="#545542" fill-rule="evenodd" stroke="none"/>
    <path d="M55.8 13.6 Q56.55 12.65 56.9 12.15 L58.2 14.1 Q58.2 15.15 55.8 17.5 L54.25 18.95 54.45 18.3 Q54.75 17.2 54.75 17.0 54.75 16.65 54.25 15.55 L54.15 15.4 54.25 15.45 Q54.4 15.65 54.4 15.85 L54.55 15.85 54.45 15.55 54.3 15.35 Q54.8 14.9 55.8 13.6" fill="#c6c7b6" fill-rule="evenodd" stroke="none"/>
    <path d="M53.4 26.85 Q53.5 26.6 53.5 26.45 53.5 26.4 52.6 26.2 L52.15 26.1 52.25 26.15 50.25 26.15 Q48.2 26.15 47.6 25.75 L47.4 25.85 45.75 25.25 45.95 25.2 Q46.1 25.1 46.75 25.1 47.2 25.1 49.05 25.4 L50.9 25.55 54.5 25.7 55.2 25.7 Q54.65 25.95 54.35 26.65 L54.25 26.8 Q54.05 26.8 53.7 26.85 L53.4 26.85 M46.45 27.25 Q44.45 26.75 44.45 26.6 44.45 26.5 44.5 26.45 L44.3 26.4 44.4 25.9 Q44.7 25.85 45.0 25.65 45.7 26.0 47.5 26.55 49.5 27.1 50.95 27.35 50.25 27.6 50.25 27.85 L50.25 27.95 49.25 27.75 49.35 27.75 48.75 27.8 Q48.4 27.8 46.45 27.25 M51.05 25.55 L51.1 25.6 50.9 25.55 51.05 25.55 M49.0 26.6 L48.45 26.3 49.35 26.4 53.1 26.65 53.0 27.25 53.0 27.35 Q52.75 27.1 52.45 26.9 50.0 26.95 49.0 26.6 M50.85 27.9 L50.85 28.0 50.7 28.0 Q50.75 27.95 50.85 27.9 M56.0 28.15 Q56.3 27.6 56.75 27.1 56.95 28.1 56.95 28.3 56.95 28.4 56.8 28.65 56.75 28.8 56.7 28.9 L56.65 29.05 Q56.2 29.7 55.6 30.05 L55.65 29.9 55.7 29.15 55.9 28.8 Q56.0 28.55 56.0 28.15 M55.2 26.2 Q54.95 26.35 54.75 26.55 L54.85 26.45 Q55.0 26.3 55.2 26.2 M54.85 29.35 L54.8 29.35 54.75 29.05 Q54.75 28.55 55.05 27.85 L55.15 27.85 55.75 27.85 55.5 28.7 Q55.25 29.25 54.95 29.35 L54.85 29.35 M50.6 29.8 L50.45 29.85 Q50.6 29.45 50.9 28.95 L50.95 28.95 51.15 29.0 51.45 28.95 51.4 29.05 Q51.1 29.35 51.05 29.6 L51.0 29.6 Q50.6 29.5 50.6 29.75 L50.6 29.8 M46.75 28.8 Q46.25 28.35 45.3 28.05 L44.6 27.2 Q45.4 27.55 46.75 27.8 L50.9 28.45 50.45 29.3 50.25 29.75 Q48.9 29.45 48.45 29.3 L46.7 28.75 46.75 28.8 M16.7 4.4 L16.9 4.3 Q17.85 3.85 18.5 3.85 18.95 3.85 19.1 4.85 L19.2 5.1 Q18.25 5.5 17.4 5.95 L17.0 5.15 Q17.0 4.95 16.7 4.4 M15.0 2.9 Q15.0 3.05 14.9 3.2 14.8 3.35 14.8 3.45 14.8 4.55 14.85 5.65 14.95 7.05 15.2 7.55 14.6 8.05 14.1 8.65 13.95 7.65 12.5 5.8 L11.3 4.4 11.15 4.15 Q10.9 3.4 10.45 3.3 L10.3 3.1 Q10.65 2.85 11.3 2.55 L11.8 2.35 Q12.95 1.9 13.55 1.9 13.8 1.9 14.4 2.3 15.0 2.75 15.0 2.9 M14.15 6.75 Q14.05 6.5 13.9 6.3 13.7 6.0 13.4 6.0 13.4 6.2 13.55 6.5 13.7 6.95 13.85 6.95 14.0 6.95 14.05 6.9 L14.15 6.75 M13.8 4.4 Q13.9 4.7 14.0 4.8 14.1 4.75 14.15 4.7 14.2 4.4 14.1 4.2 14.0 3.9 13.7 4.0 13.65 4.1 13.8 4.4 M12.95 2.95 Q12.75 2.95 12.75 3.05 L12.9 3.2 13.15 3.4 13.05 3.2 12.95 2.95 M10.4 4.7 L10.35 4.75 10.85 5.4 Q12.5 7.35 12.75 7.75 L13.6 9.25 Q13.25 9.7 12.9 10.2 L12.95 10.15 11.75 9.3 Q11.2 8.85 10.25 7.8 L8.9 6.4 8.85 6.5 Q9.1 5.75 9.95 5.05 L10.4 4.7 M12.1 8.3 L11.8 7.95 11.7 7.95 11.65 7.9 11.65 8.05 Q11.65 8.2 11.8 8.45 11.95 8.85 12.25 8.85 L12.4 8.85 12.1 8.3" fill="#eff2bb" fill-rule="evenodd" stroke="none"/>
    <path d="M53.4 26.85 L53.7 26.85 Q54.05 26.8 54.25 26.8 53.95 27.6 53.95 28.85 L53.95 29.25 54.0 29.35 53.8 29.35 Q53.75 28.65 53.6 28.2 53.5 27.9 53.3 27.65 53.3 27.25 53.4 26.95 L53.4 26.85 M50.85 27.9 L51.35 27.6 51.75 27.45 52.45 27.45 Q52.95 27.95 53.15 28.25 53.35 28.55 53.35 28.85 53.35 29.8 52.75 31.1 52.0 32.75 50.9 32.5 L50.85 32.5 50.6 31.45 50.65 31.5 50.9 31.55 Q51.95 31.55 52.45 30.3 52.8 29.5 52.8 28.75 L52.75 28.6 52.7 28.55 52.8 28.5 51.85 28.5 51.25 28.55 51.45 28.25 51.2 28.0 50.85 28.0 50.85 27.9 M56.0 28.15 L56.0 28.05 56.1 27.5 56.05 27.3 55.8 27.3 Q55.7 27.3 55.45 27.35 L54.8 27.5 54.3 27.5 Q54.35 27.0 54.75 26.55 54.95 26.35 55.2 26.2 55.6 25.95 56.2 25.9 L56.25 25.9 Q56.4 25.95 56.5 26.0 L56.6 26.2 56.7 26.8 56.7 26.85 56.75 27.1 Q56.3 27.6 56.0 28.15 M54.85 29.35 Q54.4 29.35 54.3 29.15 54.3 29.1 54.3 28.8 L54.3 27.85 55.15 27.85 55.05 27.85 Q54.75 28.55 54.75 29.05 L54.8 29.35 54.85 29.35 M55.7 29.15 L55.65 29.9 55.6 30.05 55.25 30.2 54.55 30.3 54.45 30.3 53.9 30.25 53.6 30.2 53.75 29.7 54.6 29.7 Q55.35 29.65 55.7 29.15 M52.1 34.2 L52.1 33.75 52.35 33.85 52.65 33.95 Q52.55 34.0 52.5 34.1 52.5 34.2 52.1 34.2 M52.4 33.35 Q52.45 33.3 52.7 33.15 52.85 33.1 52.95 33.05 L53.15 33.1 53.25 33.1 Q53.35 33.15 53.4 33.3 L53.4 33.8 Q53.4 34.4 53.1 34.85 52.65 35.5 51.7 35.55 L51.65 35.5 51.75 35.45 51.4 35.2 51.35 35.15 Q51.3 34.95 51.3 34.75 51.3 34.6 51.35 34.35 L51.5 34.4 Q51.85 34.55 51.9 34.55 L52.2 34.55 Q52.5 34.55 52.8 34.2 53.1 33.85 53.1 33.7 53.1 33.6 52.9 33.5 L52.4 33.35 M53.6 32.55 Q54.1 33.0 54.1 33.35 54.1 34.25 53.65 35.15 52.95 36.6 51.4 36.65 L51.35 36.6 Q50.8 36.15 50.65 35.55 L50.6 35.45 50.8 35.5 50.85 35.55 Q51.15 35.8 51.4 35.8 L51.5 35.8 51.6 35.85 Q52.65 35.85 53.25 35.0 53.7 34.35 53.7 33.8 53.7 32.75 53.25 32.65 53.0 32.5 52.6 32.35 L52.45 32.3 52.6 32.05 52.65 32.05 52.9 32.1 Q53.2 32.1 53.6 32.55 M52.55 28.85 L52.55 29.3 Q52.55 29.8 52.25 30.4 51.75 31.25 50.9 31.25 L50.75 31.25 Q50.75 31.05 50.65 30.7 L50.55 30.5 50.5 30.2 50.75 30.25 Q50.9 30.3 51.0 30.4 51.2 30.5 51.65 30.5 51.9 30.5 51.95 30.35 L51.9 30.2 Q51.65 30.2 51.5 30.05 51.4 29.95 51.4 29.75 51.4 29.55 51.7 29.15 52.1 28.6 52.55 28.85 M50.6 29.8 L50.6 29.75 Q50.6 29.5 51.0 29.6 L51.05 29.6 Q51.0 29.75 51.05 29.9 L50.6 29.8 M46.75 28.8 L46.7 28.75 48.45 29.3 Q48.9 29.45 50.25 29.75 L50.25 29.9 50.2 30.1 50.2 30.15 Q50.2 30.3 50.5 31.35 L50.75 32.4 50.75 32.45 Q49.9 32.0 49.15 31.7 48.25 31.3 47.85 31.2 47.55 30.65 47.35 30.4 L47.35 30.15 Q47.35 29.4 46.9 28.9 L46.75 28.8 M48.8 33.5 L48.95 33.55 50.35 33.8 50.3 35.55 Q50.35 35.9 50.45 36.15 50.0 35.9 49.65 35.85 L49.7 35.45 Q49.7 34.1 48.9 34.15 L48.9 34.05 Q48.9 33.85 48.8 33.5 M48.1 31.75 L48.05 31.65 49.0 32.1 Q50.5 32.75 50.8 32.85 L50.9 32.95 51.45 32.95 Q51.35 33.2 51.2 33.7 51.0 34.45 51.0 34.75 L51.1 35.05 Q50.7 34.85 50.6 34.95 L50.6 34.55 50.55 33.35 Q49.6 33.35 49.05 33.15 L48.65 33.05 48.1 31.75 M51.85 32.85 L51.9 32.8 52.4 32.95 52.0 33.25 51.7 33.5 51.75 33.95 51.8 34.1 51.75 34.1 51.45 34.0 51.5 33.8 Q51.75 33.1 51.85 32.9 L51.85 32.85 M16.7 4.4 Q17.0 4.95 17.0 5.15 L17.4 5.95 Q17.05 6.15 16.7 6.4 16.65 6.3 16.35 5.65 L16.0 4.95 Q16.0 4.75 16.7 4.4 M12.95 2.95 L13.05 3.2 13.15 3.4 12.9 3.2 12.75 3.05 Q12.75 2.95 12.95 2.95 M13.8 4.4 Q13.65 4.1 13.7 4.0 14.0 3.9 14.1 4.2 14.2 4.4 14.15 4.7 14.1 4.75 14.0 4.8 13.9 4.7 13.8 4.4 M14.15 6.75 L14.05 6.9 Q14.0 6.95 13.85 6.95 13.7 6.95 13.55 6.5 13.4 6.2 13.4 6.0 13.7 6.0 13.9 6.3 14.05 6.5 14.15 6.75 M10.4 4.7 L10.7 4.5 10.75 4.45 10.85 4.4 11.3 4.95 11.45 5.1 Q13.1 7.0 13.1 7.2 L13.35 8.2 Q13.55 8.85 13.75 9.05 L13.6 9.25 12.75 7.75 Q12.5 7.35 10.85 5.4 L10.35 4.75 10.4 4.7 M12.9 10.2 L12.9 10.25 Q12.7 10.5 12.45 11.25 L12.15 10.9 11.3 10.2 10.75 9.75 Q8.75 8.0 8.75 7.1 L8.75 7.0 8.85 6.5 8.9 6.4 10.25 7.8 Q11.2 8.85 11.75 9.3 L12.95 10.15 12.9 10.2 M12.1 8.3 L12.4 8.85 12.25 8.85 Q11.95 8.85 11.8 8.45 11.65 8.2 11.65 8.05 L11.65 7.9 11.7 7.95 11.8 7.95 12.1 8.3" fill="#ddb160" fill-rule="evenodd" stroke="none"/>
  </g>
  <defs>
    <linearGradient gradientTransform="matrix(0.0081, -0.0173, 0.1292, 0.0605, 58.55, -13.7)" gradientUnits="userSpaceOnUse" id="gradient0" spreadMethod="pad" x1="-819.2" x2="819.2">
      <stop offset="0.0" stop-color="#bcb447"/>
      <stop offset="1.0" stop-color="#ced165"/>
    </linearGradient>
  </defs>
</svg>
