<?xml version="1.0" encoding="UTF-8" standalone="no"?>
<svg xmlns:ffdec="https://www.free-decompiler.com/flash" xmlns:xlink="http://www.w3.org/1999/xlink" ffdec:objectType="shape" height="9.5px" width="5.35px" xmlns="http://www.w3.org/2000/svg">
  <g transform="matrix(1.0, 0.0, 0.0, 1.0, 0.05, 0.0)">
    <path d="M4.9 1.85 L4.85 1.75 4.8 1.45 4.6 0.95 Q4.35 0.4 3.95 0.4 L3.65 0.45 3.1 1.0 0.75 6.0 0.6 6.45 0.8 6.45 Q1.05 6.45 1.5 6.6 L1.55 6.55 1.55 6.5 Q1.6 6.25 1.7 6.1 L1.7 6.2 1.6 6.55 1.6 6.6 Q2.05 6.8 2.35 6.95 L2.6 7.15 2.65 7.2 2.8 6.7 3.05 5.95 3.1 5.5 3.15 5.5 3.15 6.5 3.65 6.1 3.8 5.9 Q4.85 4.7 4.95 3.15 L4.9 1.85 M4.5 1.85 L4.7 1.65 4.55 1.95 3.6 3.5 Q3.25 4.3 3.2 4.85 L3.15 4.6 3.55 3.15 4.5 1.85 M0.55 6.75 L0.6 6.55 0.6 6.45 Q0.55 6.35 0.5 6.4 0.45 6.45 0.4 6.6 L0.5 6.15 2.7 1.15 Q2.85 0.85 3.05 0.65 4.35 -0.75 4.9 0.95 5.2 1.8 5.25 3.0 5.25 3.7 4.9 4.55 4.6 5.25 4.2 5.8 L3.45 6.65 3.05 7.25 3.1 7.0 3.05 6.8 3.05 6.7 Q2.9 6.75 2.8 7.1 L2.75 7.3 2.5 7.7 2.5 7.75 2.55 7.5 2.3 7.25 1.9 6.9 1.85 6.9 1.8 6.85 1.75 6.85 1.6 6.85 1.6 7.1 Q1.35 7.35 1.35 7.6 1.25 7.8 1.25 7.9 L1.25 8.0 1.25 8.25 1.15 8.1 Q1.1 8.05 1.1 7.95 L1.3 7.55 Q1.45 7.15 1.45 6.95 L1.45 6.8 1.35 6.7 Q1.1 6.55 1.05 6.55 L0.55 6.75 M0.45 6.95 L0.3 7.75 0.2 8.15 0.2 8.2 0.25 8.45 0.25 8.55 0.3 8.6 0.5 8.9 0.45 8.65 0.45 8.15 0.5 8.15 0.55 8.25 0.55 8.55 Q0.55 8.95 0.85 9.1 L0.9 8.9 0.85 8.75 0.85 8.7 0.9 8.7 0.85 8.55 Q0.9 8.6 1.0 8.75 L1.15 8.9 1.1 8.85 Q0.95 8.95 0.95 9.05 L1.05 9.35 Q0.95 9.3 0.8 9.15 L0.6 8.95 Q0.5 8.95 0.5 9.05 L0.25 8.7 Q0.15 8.6 0.15 8.4 0.15 7.8 0.4 7.15 L0.45 6.95 M2.25 8.5 L2.0 8.7 Q1.9 8.8 1.8 8.8 L1.75 8.8 Q1.7 8.75 1.55 8.65 L1.5 8.6 1.45 8.6 1.4 8.55 1.35 8.45 1.45 8.5 1.35 8.35 1.5 8.55 1.55 8.6 1.75 8.65 1.85 8.6 1.9 8.5 2.0 8.4 2.3 8.05 2.2 8.35 2.0 8.6 2.05 8.6 2.25 8.5 M1.3 9.05 L1.45 9.15 1.45 9.2 1.2 9.15 1.2 8.95 1.3 9.05 M0.85 9.35 L0.65 9.2 Q0.5 9.2 0.35 9.05 L0.6 9.1 0.65 9.2 0.75 9.3 0.85 9.35" fill="#0f0f0f" fill-rule="evenodd" stroke="none"/>
    <path d="M4.6 0.95 L4.55 1.25 4.45 1.7 4.5 1.85 3.55 3.15 1.7 6.2 1.7 6.1 0.75 6.0 3.1 1.0 3.65 0.45 3.95 0.4 Q4.35 0.4 4.6 0.95 M4.55 1.95 L4.9 1.85 4.95 3.15 4.05 3.65 3.65 4.45 3.2 5.3 3.15 5.5 3.1 5.5 3.15 4.6 3.2 4.85 Q3.25 4.3 3.6 3.5 L4.55 1.95 M3.65 6.1 L3.15 6.5 3.65 6.1 M2.35 6.95 Q2.05 6.8 1.6 6.6 L1.6 6.55 1.75 6.6 2.3 6.8 2.25 6.9 2.35 6.95 M1.55 6.55 L1.5 6.6 Q1.05 6.45 0.8 6.45 L0.9 6.4 Q1.1 6.4 1.55 6.55" fill="#3c4d45" fill-rule="evenodd" stroke="none"/>
    <path d="M0.55 6.75 L1.05 6.55 Q1.1 6.55 1.35 6.7 L1.3 6.85 1.05 7.5 Q0.95 7.75 0.95 8.05 L1.0 8.25 1.05 8.35 Q1.1 8.5 1.15 8.6 L1.0 8.65 Q0.65 7.9 0.6 7.5 L0.5 8.15 0.55 8.25 0.5 8.15 0.45 8.15 0.3 7.65 0.3 7.75 0.45 6.95 0.55 6.75 M1.25 8.0 L1.25 7.9 Q1.25 7.8 1.35 7.6 1.35 7.35 1.6 7.1 L1.7 6.95 1.75 6.85 1.8 6.85 1.85 6.9 1.9 6.9 2.3 7.25 2.15 7.55 1.65 8.0 1.35 8.25 1.35 8.2 1.25 8.0" fill="#bec6a8" fill-rule="evenodd" stroke="none"/>
    <path d="M0.6 6.45 L0.6 6.55 0.55 6.75 0.45 6.95 0.4 7.15 Q0.15 7.8 0.15 8.4 0.15 8.6 0.25 8.7 L0.5 9.05 Q0.5 8.95 0.6 8.95 L0.8 9.15 Q0.95 9.3 1.05 9.35 L0.95 9.05 Q0.95 8.95 1.1 8.85 L1.15 8.9 1.2 8.95 1.2 9.15 1.15 9.45 1.15 9.5 Q0.95 9.45 0.85 9.35 L0.75 9.3 0.65 9.2 0.6 9.1 0.35 9.05 Q0.15 9.0 0.0 8.85 -0.05 8.65 -0.05 8.35 -0.05 7.55 0.25 6.8 L0.4 6.6 Q0.45 6.45 0.5 6.4 0.55 6.35 0.6 6.45 M2.5 7.75 L2.5 7.7 2.75 7.3 2.8 7.1 Q2.9 6.75 3.05 6.7 L3.05 6.8 3.1 7.0 3.05 7.25 2.95 7.4 2.9 7.7 Q2.75 8.25 2.25 8.5 L2.05 8.6 2.0 8.6 2.2 8.35 2.3 8.05 2.5 7.75" fill="#111111" fill-rule="evenodd" stroke="none"/>
    <path d="M4.6 0.95 L4.8 1.45 4.85 1.75 4.9 1.85 4.55 1.95 4.7 1.65 4.5 1.85 4.45 1.7 4.55 1.25 4.6 0.95 M4.95 3.15 Q4.85 4.7 3.8 5.9 L3.65 6.1 3.15 6.5 3.15 5.5 3.2 5.3 3.65 4.45 4.05 3.65 4.95 3.15 M3.1 5.5 L3.05 5.95 2.8 6.7 2.65 7.2 2.6 7.15 2.35 6.95 2.25 6.9 2.3 6.8 1.75 6.6 1.6 6.55 1.7 6.2 3.55 3.15 3.15 4.6 3.1 5.5 M1.7 6.1 Q1.6 6.25 1.55 6.5 L1.55 6.55 Q1.1 6.4 0.9 6.4 L0.8 6.45 0.6 6.45 0.75 6.0 1.7 6.1" fill="#25382f" fill-rule="evenodd" stroke="none"/>
    <path d="M1.35 6.7 L1.45 6.8 1.45 6.95 Q1.45 7.15 1.3 7.55 L1.1 7.95 Q1.1 8.05 1.15 8.1 L1.25 8.25 1.25 8.0 1.35 8.2 1.35 8.25 1.65 8.0 2.15 7.55 2.3 7.25 2.55 7.5 2.5 7.75 2.3 8.05 2.0 8.4 1.9 8.5 1.85 8.6 1.75 8.65 1.55 8.6 1.5 8.55 1.35 8.35 1.45 8.5 1.35 8.45 1.4 8.55 1.45 8.6 1.5 8.6 1.55 8.65 Q1.7 8.75 1.75 8.8 L1.8 8.8 Q1.9 8.8 2.0 8.7 L2.0 8.75 Q1.9 9.1 1.55 9.1 L1.3 9.05 1.2 8.95 1.15 8.9 1.0 8.75 Q0.9 8.6 0.85 8.55 L0.9 8.7 0.85 8.7 0.85 8.75 0.9 8.9 0.85 9.1 Q0.55 8.95 0.55 8.55 L0.55 8.25 0.5 8.15 0.6 7.5 Q0.65 7.9 1.0 8.65 L1.15 8.6 Q1.1 8.5 1.05 8.35 L1.0 8.25 0.95 8.05 Q0.95 7.75 1.05 7.5 L1.3 6.85 1.35 6.7 M1.6 7.1 L1.6 6.85 1.75 6.85 1.7 6.95 1.6 7.1 M0.3 7.75 L0.3 7.65 0.45 8.15 0.5 8.15 0.45 8.15 0.45 8.65 0.5 8.9 0.3 8.6 0.25 8.55 0.25 8.45 0.2 8.2 0.2 8.15 0.3 7.75" fill="#9aa87b" fill-rule="evenodd" stroke="none"/>
    <path d="M4.45 1.6 L4.6 1.7 Q4.8 1.75 5.1 1.75 5.25 1.75 5.3 2.1 L5.3 3.25 5.2 3.85 4.8 4.7 4.65 4.55 4.65 4.5 4.6 4.5 Q4.5 4.5 4.3 4.25 L4.0 3.95 3.6 3.85 3.5 3.8 3.6 3.6 Q3.8 3.7 4.05 3.85 4.5 4.1 4.75 4.35 L4.8 4.35 4.9 4.15 4.95 3.95 4.95 3.9 4.3 3.25 Q4.1 3.1 3.95 3.1 L3.8 3.1 3.85 2.95 3.95 2.95 4.2 3.1 4.3 3.15 Q4.6 3.3 4.85 3.45 L5.0 3.6 5.05 3.4 5.1 2.85 Q5.1 2.45 5.05 2.25 L5.0 2.2 4.85 1.95 Q4.75 1.85 4.6 1.8 L4.35 1.8 Q4.45 1.75 4.45 1.65 L4.45 1.6 M3.25 4.4 L3.3 4.5 Q3.55 4.85 3.8 5.3 L4.0 5.55 4.1 5.7 4.15 5.7 Q4.3 5.75 4.3 5.8 L3.8 6.45 3.8 6.5 Q3.8 6.65 3.3 6.9 3.25 6.9 3.1 6.6 2.95 6.3 2.65 6.3 L2.7 6.2 2.9 6.35 Q3.25 6.55 3.45 6.55 L3.5 6.5 3.6 6.35 3.6 6.3 3.5 6.15 Q3.4 6.0 3.1 5.75 L2.8 5.55 2.85 5.3 3.2 5.6 3.35 5.8 3.65 6.15 3.7 6.2 Q3.75 6.15 3.8 6.1 L3.9 6.05 Q4.05 5.9 4.05 5.8 L4.05 5.75 3.95 5.65 4.0 5.65 3.9 5.55 3.9 5.5 3.75 5.35 3.75 5.3 3.3 4.8 3.2 4.65 3.15 4.6 3.25 4.4 M2.4 6.55 L2.35 6.6 2.3 6.7 2.3 6.65 2.35 6.55 2.4 6.55 M4.15 2.0 L4.1 2.1 4.1 2.15 4.05 2.2 4.15 2.0 M3.65 3.15 L3.65 3.05 3.7 2.9 3.65 3.15 M2.85 5.1 L2.8 5.2 2.8 5.15 2.85 5.1" fill="#0f0f0f" fill-rule="evenodd" stroke="none"/>
    <path d="M3.35 1.25 L3.3 1.3 3.25 1.4 3.2 1.55 3.25 1.5 Q3.1 1.7 2.85 1.95 L2.5 2.25 2.3 2.3 2.3 2.15 Q2.25 1.9 2.45 1.6 L2.75 1.3 Q2.95 1.2 3.15 1.2 3.25 1.2 3.35 1.25 M3.25 2.2 Q3.15 1.65 3.4 1.35 L3.45 1.4 Q3.5 1.35 3.6 1.3 L3.75 1.35 3.9 1.3 Q3.8 1.65 3.45 2.0 L3.25 2.2 M3.5 2.35 L3.45 2.5 3.3 2.85 Q3.05 3.3 2.6 3.4 L2.5 3.45 2.55 3.4 2.55 3.05 Q2.55 3.0 2.55 2.9 L2.6 2.7 Q2.6 2.65 2.8 2.4 2.95 2.3 3.25 2.3 3.4 2.3 3.5 2.35 M1.75 3.55 L1.75 3.4 Q1.7 3.25 1.7 3.15 1.7 3.05 1.75 2.95 1.75 2.85 1.85 2.7 2.0 2.5 2.2 2.45 L2.3 2.4 2.5 2.4 2.65 2.45 2.6 2.6 2.4 2.9 Q2.25 3.1 1.75 3.55 M1.3 3.75 L1.25 3.75 1.2 3.45 Q1.2 3.15 1.55 2.85 L1.6 2.85 Q1.55 3.0 1.55 3.15 L1.55 3.3 Q1.25 3.65 1.25 3.7 L1.3 3.75 M1.9 2.2 Q1.95 2.1 2.05 1.9 L2.2 1.7 2.2 1.85 Q2.2 2.2 1.9 2.45 L1.9 2.2 M2.05 4.55 L2.0 4.15 Q2.0 4.0 2.2 3.75 L2.2 3.7 2.3 3.65 2.35 3.55 2.4 3.55 2.6 3.45 Q2.85 3.45 2.95 3.7 L3.0 3.75 2.9 3.95 Q2.7 4.55 2.2 4.55 L2.05 4.55 M1.15 4.75 Q1.15 4.65 1.1 4.55 L1.1 4.25 Q1.1 4.1 1.35 3.9 1.4 3.85 1.45 3.8 L1.75 3.6 1.9 3.6 Q1.95 3.55 2.05 3.55 L2.1 3.65 2.05 3.7 Q1.95 3.85 1.95 4.0 L1.8 4.25 1.35 4.6 1.15 4.75 M0.95 5.8 L0.9 5.7 Q0.85 5.6 0.85 5.5 0.85 5.35 1.05 5.15 L1.25 5.0 1.25 4.95 1.35 4.9 Q1.5 4.85 1.7 4.85 1.75 4.85 1.8 4.9 L1.8 4.95 Q1.7 5.05 1.55 5.25 L0.95 5.8 M1.7 5.8 Q1.65 5.75 1.65 5.65 1.65 5.45 1.9 5.15 L2.05 4.95 2.2 4.9 Q2.5 4.9 2.55 5.1 L2.6 5.25 2.3 5.65 Q2.15 5.8 1.8 5.75 L1.7 5.8 M0.75 4.9 L0.7 4.8 0.7 4.6 Q0.75 4.4 1.0 4.2 L1.05 4.5 1.05 4.45 Q0.85 4.75 0.75 4.9 M0.75 5.6 L0.6 5.7 0.35 5.9 0.35 5.8 Q0.35 5.6 0.6 5.4 L0.75 5.3 Q0.7 5.4 0.7 5.5 L0.75 5.6" fill="#658175" fill-rule="evenodd" stroke="none"/>
    <path d="M4.6 1.8 Q4.75 1.85 4.85 1.95 L4.65 2.4 4.3 3.15 4.2 3.1 3.95 2.95 4.25 2.35 Q4.35 2.15 4.6 1.8 M3.8 3.1 L3.95 3.1 Q4.1 3.1 4.3 3.25 L4.15 3.6 4.25 3.65 Q3.95 3.45 3.7 3.4 L3.8 3.1 M3.75 5.3 L3.6 5.6 3.5 5.45 3.2 4.95 3.25 4.7 3.2 4.65 3.3 4.8 3.75 5.3 M2.8 5.65 L2.8 5.55 3.1 5.75 Q3.4 6.0 3.5 6.15 L3.35 5.95 3.25 6.2 3.3 6.25 Q3.05 6.05 2.8 5.95 L2.8 5.65" fill="#e6edc9" fill-rule="evenodd" stroke="none"/>
    <path d="M4.45 1.6 L4.45 1.65 Q4.45 1.75 4.35 1.8 L4.35 1.9 Q4.35 2.1 4.2 2.3 4.05 2.5 3.9 2.6 L3.9 2.7 3.85 2.95 3.8 3.1 3.7 3.4 3.6 3.6 3.5 3.8 3.4 4.1 3.25 4.4 3.15 4.6 2.85 5.1 2.8 5.15 2.8 5.2 2.85 5.3 2.8 5.55 2.8 5.65 2.8 5.9 2.7 6.2 2.65 6.3 Q2.55 6.5 2.4 6.55 L2.35 6.55 Q2.25 6.55 2.2 6.45 L1.95 6.3 1.9 6.25 1.85 6.3 Q1.75 6.3 1.65 6.15 L0.85 6.05 Q0.8 6.05 0.65 6.25 L0.6 6.35 0.55 6.5 Q0.5 6.55 0.45 6.55 0.2 6.55 0.15 6.1 L0.1 5.7 Q0.1 5.5 0.3 5.3 L0.5 5.05 0.45 4.9 0.45 4.75 Q0.45 4.65 0.5 4.5 0.6 4.2 0.9 3.95 L0.95 3.75 Q0.95 3.2 1.2 2.85 L1.45 2.6 Q1.6 2.45 1.6 2.35 L1.7 2.1 1.75 1.85 Q1.8 1.65 2.05 1.4 2.3 1.15 2.7 1.05 L2.8 1.0 Q3.2 0.8 3.5 1.1 L3.85 1.15 Q4.15 1.2 4.25 1.3 L4.4 1.5 4.45 1.6 M3.3 1.3 L3.35 1.25 Q3.25 1.2 3.15 1.2 2.95 1.2 2.75 1.3 L2.45 1.6 Q2.25 1.9 2.3 2.15 L2.3 2.3 2.5 2.25 Q2.6 2.3 2.7 2.4 2.8 2.2 3.25 2.25 L3.3 2.25 Q3.75 2.25 3.85 2.5 L3.9 2.4 4.0 2.3 4.1 2.15 4.1 2.1 4.15 2.0 4.15 1.85 Q4.15 1.75 4.2 1.7 L4.15 1.55 Q4.05 1.35 3.9 1.3 L3.75 1.35 3.6 1.3 Q3.5 1.35 3.45 1.4 L3.4 1.35 Q3.15 1.65 3.25 2.2 L3.15 2.2 3.15 2.15 Q3.2 2.05 3.15 2.0 L3.2 1.8 Q3.15 1.7 3.2 1.55 L3.25 1.4 3.3 1.3 M3.7 2.9 Q3.7 2.8 3.7 2.65 L3.7 2.6 3.6 2.5 3.5 2.35 Q3.4 2.3 3.25 2.3 2.95 2.3 2.8 2.4 2.6 2.65 2.6 2.7 L2.55 2.9 Q2.55 3.0 2.55 3.05 L2.55 3.4 2.5 3.45 2.45 3.45 Q2.65 3.45 2.85 3.5 3.05 3.6 3.15 3.7 L3.25 3.7 3.5 3.45 Q3.65 3.25 3.65 3.2 L3.65 3.15 3.7 2.9 M2.6 2.6 L2.65 2.45 2.5 2.4 2.3 2.4 2.2 2.45 Q2.0 2.5 1.85 2.7 1.75 2.85 1.75 2.95 1.7 3.05 1.7 3.15 1.7 3.25 1.75 3.4 L1.75 3.55 1.9 3.5 Q2.15 3.45 2.2 3.55 2.45 3.3 2.45 2.95 2.45 2.9 2.55 2.7 L2.6 2.6 M1.9 2.2 L1.9 2.45 Q2.2 2.2 2.2 1.85 L2.2 1.7 2.05 1.9 Q1.95 2.1 1.9 2.2 M1.55 3.3 L1.55 3.15 Q1.55 3.0 1.6 2.85 L1.55 2.85 Q1.2 3.15 1.2 3.45 L1.25 3.75 1.3 3.75 1.4 3.65 1.55 3.55 1.6 3.55 1.6 3.5 1.55 3.4 1.55 3.3 M3.0 3.75 L2.95 3.7 Q2.85 3.45 2.6 3.45 L2.4 3.55 2.35 3.55 2.3 3.65 2.2 3.7 2.2 3.75 Q2.0 4.0 2.0 4.15 L2.05 4.55 2.1 4.85 2.1 4.9 2.5 4.9 Q2.6 4.95 2.7 5.0 L2.9 4.7 3.05 4.55 3.1 4.45 Q3.2 4.25 3.2 4.1 3.2 3.85 3.05 3.75 L3.0 3.75 M1.95 4.0 Q1.95 3.85 2.05 3.7 L2.1 3.65 2.05 3.55 Q1.95 3.55 1.9 3.6 L1.75 3.6 1.45 3.8 Q1.4 3.85 1.35 3.9 1.1 4.1 1.1 4.25 L1.1 4.55 Q1.15 4.65 1.15 4.75 L1.25 4.8 1.25 4.9 Q1.35 4.8 1.6 4.75 L1.95 4.8 1.95 4.7 1.9 4.25 1.95 4.0 M1.8 4.95 L1.8 4.9 Q1.75 4.85 1.7 4.85 1.5 4.85 1.35 4.9 L1.25 4.95 1.25 5.0 1.05 5.15 Q0.85 5.35 0.85 5.5 0.85 5.6 0.9 5.7 L0.95 5.8 0.95 5.9 1.0 5.95 1.15 6.05 1.55 5.95 1.6 5.95 1.55 5.75 1.6 5.25 Q1.6 5.2 1.8 5.0 L1.8 4.95 M2.6 5.25 L2.55 5.1 Q2.5 4.9 2.2 4.9 L2.05 4.95 1.9 5.15 Q1.65 5.45 1.65 5.65 1.65 5.75 1.7 5.8 L1.8 6.0 1.9 6.1 Q2.1 6.25 2.25 6.25 L2.3 6.25 2.45 6.05 2.55 5.9 2.6 5.8 2.6 5.75 2.6 5.7 2.65 5.75 2.65 5.7 2.7 5.5 2.7 5.4 2.6 5.25 M1.05 4.5 L1.0 4.2 Q0.75 4.4 0.7 4.6 L0.7 4.8 0.75 4.9 0.75 4.95 0.85 5.1 0.9 5.05 1.1 4.9 1.1 4.85 1.05 4.5 M0.35 5.9 L0.4 6.05 0.5 6.2 0.6 6.05 0.8 5.85 0.75 5.7 0.75 5.6 0.7 5.5 Q0.7 5.4 0.75 5.3 L0.6 5.4 Q0.35 5.6 0.35 5.8 L0.35 5.9" fill="#111111" fill-rule="evenodd" stroke="none"/>
    <path d="M4.4 1.5 L4.4 1.5 M3.35 1.25 L3.3 1.3 3.35 1.25 M3.2 1.55 Q3.15 1.7 3.2 1.8 L3.15 2.0 Q3.2 2.05 3.15 2.15 L3.15 2.2 3.25 2.2 3.45 2.0 Q3.8 1.65 3.9 1.3 4.05 1.35 4.15 1.55 L4.2 1.7 Q4.15 1.75 4.15 1.85 L4.15 2.0 4.05 2.2 4.0 2.3 3.9 2.4 3.85 2.5 Q3.75 2.25 3.3 2.25 L3.25 2.25 Q2.8 2.2 2.7 2.4 2.6 2.3 2.5 2.25 L2.85 1.95 Q3.1 1.7 3.25 1.5 L3.2 1.55 M3.5 2.35 L3.6 2.5 3.7 2.6 3.7 2.65 Q3.7 2.8 3.7 2.9 L3.65 3.05 3.65 3.15 3.65 3.2 Q3.65 3.25 3.5 3.45 L3.25 3.7 3.15 3.7 Q3.05 3.6 2.85 3.5 2.65 3.45 2.45 3.45 L2.5 3.45 2.6 3.4 Q3.05 3.3 3.3 2.85 L3.45 2.5 3.5 2.35 M1.75 3.55 Q2.25 3.1 2.4 2.9 L2.6 2.6 2.55 2.7 Q2.45 2.9 2.45 2.95 2.45 3.3 2.2 3.55 2.15 3.45 1.9 3.5 L1.75 3.55 M1.3 3.75 L1.25 3.7 Q1.25 3.65 1.55 3.3 L1.55 3.4 1.6 3.5 1.6 3.55 1.55 3.55 1.4 3.65 1.3 3.75 M2.05 4.55 L2.2 4.55 Q2.7 4.55 2.9 3.95 L3.0 3.75 3.05 3.75 Q3.2 3.85 3.2 4.1 3.2 4.25 3.1 4.45 L3.05 4.55 2.9 4.7 2.7 5.0 Q2.6 4.95 2.5 4.9 L2.1 4.9 2.1 4.85 2.05 4.55 M1.95 4.0 L1.9 4.25 1.95 4.7 1.95 4.8 1.6 4.75 Q1.35 4.8 1.25 4.9 L1.25 4.8 1.15 4.75 1.35 4.6 1.8 4.25 1.95 4.0 M1.8 4.95 L1.8 5.0 Q1.6 5.2 1.6 5.25 L1.55 5.75 1.6 5.95 1.55 5.95 1.15 6.05 1.0 5.95 0.95 5.9 0.95 5.8 1.55 5.25 Q1.7 5.05 1.8 4.95 M1.7 5.8 L1.8 5.75 Q2.15 5.8 2.3 5.65 L2.6 5.25 2.7 5.4 2.7 5.5 2.6 5.7 2.6 5.75 2.55 5.9 2.45 6.05 2.3 6.25 2.25 6.25 Q2.1 6.25 1.9 6.1 L1.8 6.0 1.7 5.8 M0.75 4.9 Q0.85 4.75 1.05 4.45 L1.05 4.5 1.1 4.85 1.1 4.9 0.9 5.05 0.85 5.1 0.75 4.95 0.75 4.9 M0.75 5.6 L0.75 5.7 0.8 5.85 0.6 6.05 0.5 6.2 0.4 6.05 0.35 5.9 0.6 5.7 0.75 5.6" fill="#4a6057" fill-rule="evenodd" stroke="none"/>
    <path d="M4.35 1.8 L4.6 1.8 Q4.35 2.15 4.25 2.35 L3.95 2.95 3.85 2.95 3.9 2.7 3.9 2.6 Q4.05 2.5 4.2 2.3 4.35 2.1 4.35 1.9 L4.35 1.8 M4.85 1.95 L5.0 2.2 5.05 2.25 Q5.1 2.45 5.1 2.85 L5.05 3.4 5.0 3.6 4.85 3.45 Q4.6 3.3 4.3 3.15 L4.65 2.4 4.85 1.95 M4.3 3.25 L4.95 3.9 4.95 3.95 4.9 4.15 4.8 4.35 4.75 4.35 Q4.5 4.1 4.05 3.85 3.8 3.7 3.6 3.6 L3.7 3.4 Q3.95 3.45 4.25 3.65 L4.15 3.6 4.3 3.25 M4.1 2.15 L4.0 2.3 4.05 2.2 4.1 2.15 M2.7 5.5 L2.65 5.7 2.65 5.75 2.6 5.7 2.7 5.5 M2.6 5.75 L2.6 5.8 2.55 5.9 2.6 5.75 M2.8 5.2 L2.85 5.1 3.15 4.6 3.2 4.65 3.25 4.7 3.2 4.95 3.5 5.45 3.6 5.6 3.75 5.3 3.75 5.35 3.9 5.5 3.9 5.55 4.0 5.65 3.95 5.65 4.05 5.75 4.05 5.8 Q4.05 5.9 3.9 6.05 L3.8 6.1 Q3.75 6.15 3.7 6.2 L3.65 6.15 3.35 5.8 3.2 5.6 2.85 5.3 2.8 5.2 M2.8 5.65 L2.8 5.95 Q3.05 6.05 3.3 6.25 L3.25 6.2 3.35 5.95 3.5 6.15 3.6 6.3 3.6 6.35 3.5 6.5 3.45 6.55 Q3.25 6.55 2.9 6.35 L2.7 6.2 2.8 5.9 2.8 5.65" fill="#cad98c" fill-rule="evenodd" stroke="none"/>
  </g>
</svg>
