<?xml version="1.0" encoding="UTF-8" standalone="no"?>
<svg xmlns:ffdec="https://www.free-decompiler.com/flash" xmlns:xlink="http://www.w3.org/1999/xlink" ffdec:objectType="shape" height="8.8px" width="7.1px" xmlns="http://www.w3.org/2000/svg">
  <g transform="matrix(1.0, 0.0, 0.0, 1.0, 1.1, 0.5)">
    <path d="M0.55 -0.3 Q1.15 -0.55 1.95 -0.5 L2.55 -0.35 2.7 -0.3 Q3.1 -0.05 4.35 0.25 L4.75 0.35 4.9 0.35 5.2 0.25 Q5.7 0.1 5.85 0.2 5.95 0.25 6.0 0.45 L6.0 0.7 Q6.0 1.05 5.5 1.25 5.25 1.4 4.85 1.5 L4.55 1.95 4.1 2.4 4.15 2.7 Q4.5 3.3 4.65 3.9 L4.7 3.95 4.7 4.15 4.8 4.55 4.85 4.85 Q4.95 5.5 4.95 5.95 L4.95 6.1 5.0 6.2 Q5.25 6.7 5.25 7.05 L5.2 7.45 Q5.15 7.7 4.9 7.85 4.8 7.95 4.5 8.05 4.15 8.2 3.7 8.2 L3.45 8.15 Q3.45 8.3 3.3 8.3 3.0 8.3 2.75 7.5 2.6 6.95 2.45 6.65 L2.4 6.5 2.3 6.35 Q1.85 6.05 1.55 5.2 L1.35 4.55 1.25 4.2 1.2 4.05 1.1 4.0 Q0.9 3.95 0.7 3.7 0.45 3.65 0.3 3.45 0.15 3.3 0.05 2.95 L0.05 2.9 -0.05 2.6 -0.05 2.5 -0.1 2.45 Q-0.25 2.15 -0.75 1.95 -1.1 1.75 -1.1 1.45 -1.1 1.2 -0.9 1.1 -0.85 0.9 -0.7 0.65 -0.4 0.2 -0.1 0.05 L0.5 -0.25 0.55 -0.3 M2.95 0.2 L2.9 0.15 2.6 0.0 2.25 -0.15 2.05 -0.2 1.5 -0.3 Q1.0 -0.3 0.35 0.0 L0.25 0.0 -0.05 0.2 Q-0.35 0.35 -0.45 0.55 -0.55 0.65 -0.65 0.9 L-0.7 1.1 -0.55 1.1 Q-0.15 1.15 0.05 1.45 L0.2 1.7 0.25 1.9 0.6 1.55 0.75 1.35 0.8 1.35 Q0.75 1.4 0.55 1.55 0.4 1.8 0.4 1.85 L0.3 1.95 0.4 2.3 Q0.55 2.65 0.7 2.75 L0.8 2.6 Q0.95 2.3 1.25 2.0 1.6 1.65 1.95 1.4 2.2 1.2 2.3 1.15 2.45 1.1 3.15 0.9 L3.9 0.65 4.35 0.55 3.3 0.3 2.75 0.3 2.6 0.35 2.4 0.4 2.35 0.4 Q2.1 0.45 1.9 0.6 1.55 0.75 1.25 1.0 L0.75 1.35 1.1 1.05 Q1.4 0.8 1.8 0.6 2.05 0.5 2.3 0.4 L2.35 0.4 2.55 0.35 2.65 0.3 2.7 0.3 2.75 0.25 3.05 0.25 2.95 0.2 M-0.85 1.35 L-0.9 1.4 -0.95 1.5 Q-0.95 1.6 -0.45 1.9 L-0.05 2.4 0.1 2.6 Q0.15 2.85 0.3 3.2 L0.6 3.5 0.7 3.55 0.9 3.55 1.1 3.35 1.1 3.3 1.15 3.3 1.25 3.2 1.5 2.85 1.7 2.5 1.9 2.35 Q2.6 1.75 2.9 1.65 3.4 1.5 4.6 1.3 5.1 1.2 5.35 1.0 L5.45 0.95 5.65 0.75 5.7 0.65 5.7 0.55 Q5.65 0.35 5.4 0.4 L4.9 0.65 4.8 0.6 4.4 0.75 4.1 0.85 Q2.75 1.2 2.4 1.4 1.95 1.6 1.55 2.0 L1.15 2.4 Q1.0 2.65 0.85 2.85 L0.7 2.9 0.65 2.85 0.65 2.8 0.6 2.75 0.3 2.25 Q0.2 2.05 0.0 1.85 L0.0 1.8 -0.2 1.6 Q-0.4 1.4 -0.6 1.35 -0.8 1.2 -0.85 1.35 M4.35 1.4 L4.25 1.45 3.9 1.8 4.0 2.0 4.4 1.6 4.65 1.4 4.35 1.4 M4.15 3.35 L4.0 3.1 3.9 3.0 4.0 3.05 Q3.85 2.75 3.85 2.55 L3.85 2.45 3.8 2.3 3.75 2.1 3.65 1.8 3.6 1.7 3.6 1.65 3.35 1.7 Q2.65 1.9 2.4 2.1 2.1 2.35 1.65 2.95 L1.55 3.0 1.45 3.15 1.45 3.2 1.4 3.2 1.45 3.25 Q1.55 3.35 1.8 3.4 L1.5 3.45 1.4 3.5 1.35 3.5 1.35 3.7 1.4 3.8 1.5 4.0 1.6 4.45 1.75 4.6 1.95 4.7 2.35 4.8 2.9 4.85 Q3.0 4.85 3.1 4.8 L3.15 4.75 3.1 4.7 3.2 4.7 3.25 4.65 3.3 4.7 3.45 4.7 3.3 4.75 3.3 4.8 3.05 4.9 2.7 4.95 2.3 4.9 1.85 4.8 1.8 4.8 1.7 4.75 1.7 4.9 Q1.8 5.05 2.3 5.8 L2.35 5.85 2.6 6.2 2.75 6.65 2.95 7.2 3.25 6.8 3.25 6.65 3.15 6.25 3.15 6.0 3.2 5.75 3.2 5.7 3.25 5.2 3.3 5.2 3.3 5.45 Q3.3 5.75 3.5 6.65 L3.35 6.95 Q3.2 7.25 3.2 7.45 3.2 7.6 3.2 7.75 3.3 7.95 3.4 7.95 L3.45 7.95 3.75 8.0 3.9 8.0 4.4 7.9 Q4.6 7.8 4.7 7.7 4.85 7.5 4.85 6.9 L4.8 6.8 4.8 6.7 4.75 6.65 4.7 6.35 4.65 6.65 4.65 6.7 4.6 6.7 4.6 5.55 Q4.6 5.05 4.5 4.55 L4.45 4.2 4.4 4.0 4.3 3.75 4.25 3.9 4.25 3.95 4.05 4.15 4.15 4.0 Q4.2 3.8 4.2 3.6 4.2 3.5 4.15 3.35 M3.85 1.65 L4.05 1.5 3.75 1.6 3.85 1.65 M3.25 1.9 L3.3 1.95 3.25 1.95 3.25 1.9 M3.45 1.95 Q3.5 2.0 3.55 2.15 L3.55 2.4 3.5 2.6 3.45 2.9 3.45 2.95 3.35 3.15 Q3.05 3.75 2.6 3.75 L2.3 3.6 2.2 3.5 2.45 3.5 Q3.25 3.5 3.4 2.85 L3.45 2.55 3.4 1.95 3.45 1.95 M2.75 0.1 L2.8 0.15 2.7 0.1 2.75 0.1 M1.15 3.8 L1.15 3.65 1.05 3.6 1.0 3.6 0.85 3.7 Q0.95 3.75 1.15 3.85 L1.15 3.8 M1.0 3.55 L1.0 3.55" fill="#111111" fill-rule="evenodd" stroke="none"/>
    <path d="M5.7 0.55 L5.65 0.6 Q5.35 0.85 4.8 0.95 3.85 1.2 3.55 1.3 2.8 1.55 2.5 1.7 2.15 1.85 1.85 2.15 L0.75 3.25 Q0.5 3.25 0.0 2.3 -0.55 1.35 -0.85 1.35 -0.8 1.2 -0.6 1.35 -0.4 1.4 -0.2 1.6 L0.0 1.8 0.0 1.85 Q0.2 2.05 0.3 2.25 L0.6 2.75 0.65 2.8 0.65 2.85 0.7 2.9 0.85 2.85 Q1.0 2.65 1.15 2.4 L1.55 2.0 Q1.95 1.6 2.4 1.4 2.75 1.2 4.1 0.85 L4.4 0.75 4.55 0.7 4.9 0.65 5.4 0.4 Q5.65 0.35 5.7 0.55" fill="#e2df65" fill-rule="evenodd" stroke="none"/>
    <path d="M-0.05 0.2 Q-0.3 0.4 -0.6 0.8 L-0.65 0.9 Q-0.55 0.65 -0.45 0.55 -0.35 0.35 -0.05 0.2 M0.05 1.45 Q0.65 0.85 0.85 0.75 1.1 0.6 1.4 0.45 1.6 0.35 1.7 0.35 L2.0 0.3 2.7 0.25 3.0 0.2 2.95 0.2 3.05 0.25 2.75 0.25 2.7 0.3 2.65 0.3 2.55 0.35 2.35 0.4 2.3 0.4 Q2.05 0.5 1.8 0.6 1.4 0.8 1.1 1.05 L0.75 1.35 1.25 1.0 Q1.55 0.75 1.9 0.6 2.1 0.45 2.35 0.4 L2.4 0.4 2.6 0.35 2.75 0.3 3.3 0.3 4.35 0.55 3.9 0.65 3.15 0.9 Q2.45 1.1 2.3 1.15 2.2 1.2 1.95 1.4 1.6 1.65 1.25 2.0 0.95 2.3 0.8 2.6 L0.7 2.75 Q0.55 2.65 0.4 2.3 L0.3 1.95 0.4 1.85 Q0.4 1.8 0.55 1.55 0.75 1.4 0.8 1.35 L0.75 1.35 0.6 1.55 0.25 1.9 0.2 1.7 0.05 1.45 M4.9 0.65 L4.55 0.7 4.4 0.75 4.8 0.6 4.9 0.65 M0.65 2.85 L0.65 2.8 0.65 2.85" fill="#1c9558" fill-rule="evenodd" stroke="none"/>
    <path d="M-0.85 1.35 Q-0.55 1.35 0.0 2.3 0.5 3.25 0.75 3.25 L1.85 2.15 Q2.15 1.85 2.5 1.7 2.8 1.55 3.55 1.3 3.85 1.2 4.8 0.95 5.35 0.85 5.65 0.6 L5.7 0.55 5.7 0.65 5.65 0.75 5.45 0.95 5.35 1.0 Q5.1 1.2 4.6 1.3 3.4 1.5 2.9 1.65 2.6 1.75 1.9 2.35 L1.7 2.5 1.5 2.85 1.25 3.2 1.15 3.3 1.1 3.3 1.1 3.35 0.9 3.55 0.7 3.55 0.6 3.5 0.3 3.2 Q0.15 2.85 0.1 2.6 L-0.05 2.4 -0.45 1.9 Q-0.95 1.6 -0.95 1.5 L-0.9 1.4 -0.85 1.35 M4.35 1.4 L4.65 1.4 4.4 1.6 4.0 2.0 3.9 1.8 4.25 1.45 4.35 1.4 M1.0 3.55 L1.0 3.55 M1.15 3.8 L1.15 3.85 Q0.95 3.75 0.85 3.7 L1.0 3.6 1.05 3.6 1.15 3.65 1.15 3.8" fill="#b4be2e" fill-rule="evenodd" stroke="none"/>
    <path d="M-0.05 0.2 L0.25 0.0 0.35 0.0 Q1.0 -0.3 1.5 -0.3 L2.05 -0.2 2.25 -0.15 2.6 0.0 2.9 0.15 2.95 0.2 3.0 0.2 2.7 0.25 2.0 0.3 1.7 0.35 Q1.6 0.35 1.4 0.45 1.1 0.6 0.85 0.75 0.65 0.85 0.05 1.45 -0.15 1.15 -0.55 1.1 L-0.7 1.1 -0.65 0.9 -0.6 0.8 Q-0.3 0.4 -0.05 0.2 M3.85 1.65 L3.75 1.6 4.05 1.5 3.85 1.65 M2.75 0.1 L2.7 0.1 2.8 0.15 2.75 0.1" fill="#13643c" fill-rule="evenodd" stroke="none"/>
    <path d="M1.45 3.15 L1.55 3.0 1.65 2.95 Q2.1 2.35 2.4 2.1 2.65 1.9 3.35 1.7 L3.6 1.65 3.6 1.7 3.65 1.8 3.75 2.1 3.8 2.3 3.85 2.45 3.85 2.55 Q3.85 2.75 4.0 3.05 L3.9 3.0 4.0 3.1 4.15 3.35 Q3.5 3.5 2.95 3.9 L2.95 3.85 3.05 4.0 3.1 4.35 Q2.85 4.35 2.6 4.1 2.45 4.25 2.3 4.45 L2.3 4.65 2.35 4.8 1.95 4.7 1.75 4.6 1.6 4.45 1.5 4.0 1.4 3.8 1.4 3.5 1.5 3.45 1.8 3.4 Q1.55 3.35 1.45 3.25 L1.45 3.15 M3.25 1.9 L3.25 1.95 3.3 1.95 3.25 1.9 M3.45 1.95 L3.4 1.95 3.45 2.55 3.4 2.85 Q3.25 3.5 2.45 3.5 L2.2 3.5 2.3 3.6 2.6 3.75 Q3.05 3.75 3.35 3.15 L3.45 2.95 3.45 2.9 3.5 2.6 3.55 2.4 3.55 2.15 Q3.5 2.0 3.45 1.95" fill="#25382f" fill-rule="evenodd" stroke="none"/>
    <path d="M1.45 3.15 L1.45 3.25 1.4 3.2 1.45 3.2 1.45 3.15 M1.4 3.5 L1.4 3.8 1.35 3.7 1.35 3.5 1.4 3.5 M2.35 4.8 L2.3 4.65 2.3 4.45 Q2.45 4.25 2.6 4.1 2.85 4.35 3.1 4.35 L3.05 4.0 2.95 3.85 2.95 3.9 Q3.5 3.5 4.15 3.35 4.2 3.5 4.2 3.6 4.2 3.8 4.15 4.0 L4.05 4.15 4.0 4.3 3.6 4.55 3.45 4.7 3.3 4.7 3.25 4.65 3.2 4.7 3.1 4.7 3.15 4.75 3.1 4.8 Q3.0 4.85 2.9 4.85 L2.35 4.8" fill="#3c4d45" fill-rule="evenodd" stroke="none"/>
    <path d="M4.6 6.7 L4.65 6.7 4.65 6.65 4.7 6.35 4.75 6.65 4.8 6.7 4.8 6.8 4.85 6.9 Q4.85 7.5 4.7 7.7 4.6 7.8 4.4 7.9 L3.9 8.0 3.75 8.0 3.75 7.8 Q3.75 7.6 3.9 7.15 L4.1 6.65 4.1 6.45 4.15 6.65 4.3 7.2 4.3 7.4 4.35 7.4 4.3 7.6 Q4.3 7.65 4.3 7.7 L4.35 7.65 4.6 6.8 4.6 6.7 M3.2 5.75 L3.15 6.0 3.15 6.25 3.25 6.65 3.25 6.8 2.95 7.2 2.75 6.65 2.6 6.2 2.35 5.85 2.3 5.8 Q1.8 5.05 1.7 4.9 L1.7 4.75 1.8 4.8 1.85 4.8 2.3 4.9 2.4 4.9 2.5 5.1 2.5 5.1 Q2.7 5.4 2.9 5.6 L3.2 5.75 M4.35 4.3 L4.35 4.3" fill="#9aa87b" fill-rule="evenodd" stroke="none"/>
    <path d="M4.05 4.15 L4.25 3.95 4.25 3.9 4.3 3.75 4.4 4.0 4.45 4.2 4.5 4.55 Q4.6 5.05 4.6 5.55 L4.6 6.7 4.6 6.8 4.35 7.65 4.3 7.7 Q4.3 7.65 4.3 7.6 L4.35 7.4 4.3 7.4 4.3 7.2 4.15 6.65 4.1 6.45 4.1 6.65 3.9 7.15 Q3.75 7.6 3.75 7.8 L3.75 8.0 3.45 7.95 3.4 7.95 Q3.3 7.95 3.2 7.75 3.2 7.6 3.2 7.45 3.2 7.25 3.35 6.95 L3.5 6.65 Q3.3 5.75 3.3 5.45 L3.3 5.2 3.25 5.2 3.2 5.7 3.2 5.75 2.9 5.6 Q2.7 5.4 2.5 5.1 L2.5 5.1 2.4 4.9 2.3 4.9 2.7 4.95 3.05 4.9 3.3 4.8 3.3 4.75 3.45 4.7 3.6 4.55 4.0 4.3 4.05 4.15 M4.35 4.3 L4.35 4.3" fill="#bec6a8" fill-rule="evenodd" stroke="none"/>
  </g>
</svg>
