<?xml version="1.0" encoding="UTF-8" standalone="no"?>
<svg xmlns:ffdec="https://www.free-decompiler.com/flash" xmlns:xlink="http://www.w3.org/1999/xlink" ffdec:objectType="shape" height="22.6px" width="12.4px" xmlns="http://www.w3.org/2000/svg">
  <g transform="matrix(1.0, 0.0, 0.0, 1.0, 3.1, 0.0)">
    <path d="M8.9 0.85 Q9.05 1.1 9.1 1.3 L9.2 1.5 Q9.3 1.9 9.3 2.35 9.3 3.2 9.15 4.25 8.95 5.35 8.65 6.05 8.4 6.65 7.7 7.9 7.65 8.1 7.45 8.8 L7.35 9.25 7.35 9.3 Q7.35 9.4 7.25 9.55 7.1 9.75 7.05 9.85 L7.0 10.25 6.95 10.45 6.95 10.7 Q6.9 11.2 6.7 11.5 6.15 12.15 4.65 12.2 L3.85 12.2 Q2.45 12.15 1.85 11.6 1.4 11.2 1.4 10.65 L1.45 10.5 1.45 10.45 1.4 10.35 1.45 10.15 1.45 9.9 1.5 9.45 1.5 9.4 Q1.4 9.3 1.3 9.05 L1.2 8.65 Q1.2 8.5 1.3 8.25 L1.35 8.1 1.35 7.95 Q1.35 7.7 1.1 7.2 L1.05 7.15 0.95 6.9 Q0.85 6.65 0.85 6.4 0.85 6.2 0.9 6.1 L0.95 6.0 0.85 5.75 0.65 5.2 0.65 5.15 Q0.65 4.7 0.6 4.45 0.55 4.15 0.25 4.15 L0.2 4.15 Q-0.2 3.95 -0.85 3.25 L-2.05 2.75 Q-3.0 2.4 -3.1 1.9 -3.15 1.8 -3.1 1.75 -3.05 1.65 -2.95 1.55 -2.85 1.5 -2.8 1.55 L-2.75 1.5 Q-2.55 1.45 -2.25 1.7 -1.8 1.7 -1.4 1.55 -1.15 1.45 -0.15 1.0 0.65 0.65 1.2 1.05 L1.25 1.1 Q1.45 0.95 1.9 0.75 2.5 0.5 2.9 0.45 L3.35 0.3 Q4.45 0.0 5.45 0.0 L6.75 0.1 8.15 0.4 8.35 0.45 8.05 0.2 Q8.4 0.2 8.7 0.65 L8.9 0.85 M6.3 5.8 L6.65 5.95 Q7.3 6.35 7.35 6.75 L7.4 7.5 7.45 7.75 7.45 7.7 Q7.6 7.35 7.65 7.2 L8.0 6.6 8.05 6.55 8.4 5.95 8.65 5.3 8.65 5.25 8.85 4.45 8.95 3.75 9.0 2.9 Q9.0 2.1 8.8 1.45 L8.6 0.85 Q8.4 0.7 8.05 0.6 L7.8 0.5 7.7 0.5 7.6 0.45 7.45 0.45 6.8 0.3 5.7 0.15 5.35 0.15 4.0 0.35 3.9 0.35 3.65 0.4 2.75 0.7 2.8 0.6 2.45 0.75 Q1.9 0.95 1.4 1.25 1.55 1.45 1.55 1.65 1.5 2.05 1.35 2.15 L1.4 2.25 1.4 2.3 1.45 2.3 1.45 2.35 1.4 2.4 1.4 2.45 Q1.35 2.6 1.25 2.65 1.05 3.0 0.95 3.55 0.85 4.05 0.6 4.2 L0.6 4.3 0.65 4.45 0.8 4.8 1.3 6.0 1.35 6.0 1.4 5.85 Q1.5 5.65 1.5 5.5 L1.5 4.85 1.5 4.7 Q1.6 4.15 1.75 3.95 1.85 3.75 2.1 3.6 2.45 3.35 2.45 3.7 L2.45 3.75 2.3 3.9 2.3 3.95 Q2.3 4.1 2.2 4.3 L2.15 4.45 2.05 4.7 2.05 4.75 2.05 4.85 2.0 5.0 Q1.95 5.35 1.95 5.7 1.95 5.8 2.0 6.0 L2.05 6.25 Q2.05 6.3 1.95 6.3 1.8 6.3 1.75 6.4 L1.7 6.5 1.65 6.5 1.6 6.6 1.6 6.7 1.8 7.2 1.85 7.3 1.85 7.35 1.9 7.55 1.9 7.95 1.85 8.15 1.85 8.25 1.75 8.55 1.75 8.65 1.7 8.9 1.7 9.15 Q1.65 9.4 1.65 9.7 L1.6 10.15 1.6 10.5 Q1.6 10.95 1.85 11.3 2.0 11.5 2.3 11.65 L2.45 11.7 2.8 11.8 2.85 11.8 3.85 11.95 5.05 11.95 5.45 11.9 Q6.3 11.7 6.6 11.2 L6.6 11.15 Q6.7 11.0 6.75 10.7 L6.75 10.45 Q6.8 10.2 6.8 10.05 L6.9 9.7 Q6.8 9.6 6.75 9.4 L6.65 9.0 6.65 8.95 Q6.65 8.8 6.7 8.65 6.8 8.45 6.8 8.2 L6.8 7.85 Q6.8 7.45 6.7 7.2 L6.55 6.7 Q6.55 6.65 6.45 6.6 L6.3 6.5 6.15 6.45 Q5.9 6.35 5.6 6.35 L5.4 6.35 5.4 6.4 Q5.3 6.4 5.05 6.05 L4.6 5.3 4.55 5.2 4.45 5.1 4.3 4.9 4.3 4.85 4.25 4.8 4.1 4.5 4.05 4.3 4.0 4.25 4.05 4.25 3.95 3.95 3.9 3.9 3.9 3.8 3.85 3.65 Q3.8 3.4 3.8 3.25 3.8 2.9 4.05 3.1 4.25 3.25 4.3 3.45 4.5 4.05 4.6 4.2 L4.75 4.45 5.05 4.85 5.05 4.9 5.1 4.95 5.5 5.5 Q5.95 5.6 6.3 5.8 M6.3 5.9 L6.15 5.85 5.65 5.75 5.45 5.5 4.8 4.8 4.6 4.5 4.55 4.35 4.45 4.1 4.25 3.7 4.2 3.45 4.15 3.35 4.1 3.2 4.0 3.2 Q4.05 3.2 4.05 3.25 L4.05 3.35 4.0 3.3 3.95 3.65 4.05 4.0 4.1 4.25 4.35 4.75 Q4.5 5.1 4.7 5.35 L5.15 5.95 Q5.35 6.25 5.75 6.35 L6.25 6.4 6.5 6.45 Q6.65 6.45 6.65 6.55 L6.65 6.6 6.7 6.85 6.85 7.45 6.85 7.85 6.9 7.85 6.95 8.7 6.9 8.85 6.8 9.0 6.9 9.25 6.95 9.4 7.0 9.45 7.05 9.45 7.1 9.4 Q7.25 9.35 7.3 8.75 L7.3 8.1 7.2 7.15 Q7.1 6.5 7.0 6.35 6.9 6.2 6.75 6.1 6.55 6.0 6.3 5.9 M3.0 5.0 L3.0 4.8 2.95 4.5 2.95 3.35 3.0 3.35 3.05 4.0 3.05 4.7 3.15 5.0 3.15 5.05 3.1 5.3 3.15 5.75 3.15 6.2 3.2 6.6 3.2 7.6 Q3.2 8.15 3.15 8.35 L3.1 8.6 Q3.05 8.95 3.0 9.35 L3.0 9.85 3.0 10.0 2.95 10.0 2.95 10.2 2.95 11.3 3.0 11.6 2.95 11.6 2.9 11.55 2.9 11.5 2.9 10.5 2.95 9.95 2.95 9.35 3.05 8.35 3.15 7.55 3.2 6.75 3.2 6.6 3.1 5.7 3.0 5.0 M-0.15 2.85 L0.1 3.15 Q0.4 2.75 0.55 2.25 0.6 2.05 0.9 1.95 L1.05 1.95 1.1 1.9 Q1.2 1.75 1.2 1.65 1.2 1.5 1.0 1.35 0.8 1.2 0.6 1.2 L0.0 1.25 -0.45 1.45 -0.65 1.75 -0.65 1.8 -0.8 2.1 -0.8 2.3 Q-0.45 2.4 -0.35 2.6 L-0.15 2.85 M-2.8 1.8 L-2.8 1.95 -2.75 2.0 -2.8 2.05 Q-2.6 2.4 -1.65 2.65 -0.9 2.85 -0.65 3.1 L-0.45 3.3 0.0 3.65 Q0.15 3.85 0.4 3.85 L0.55 3.85 Q0.75 3.65 0.8 3.15 0.85 2.65 1.05 2.45 L1.1 2.35 0.95 2.25 0.85 2.25 Q0.7 2.3 0.5 2.85 L0.25 3.4 Q0.15 3.4 -0.3 2.95 L-0.5 2.75 -0.55 2.75 Q-0.6 2.6 -0.9 2.5 L-0.95 2.5 -1.5 2.4 -1.9 2.25 Q-2.2 2.1 -2.4 1.95 L-2.5 1.8 Q-2.55 1.75 -2.65 1.75 -2.75 1.75 -2.8 1.8 M2.25 3.95 L2.25 3.9 2.2 3.9 2.3 3.8 2.25 3.75 2.2 3.75 2.15 3.7 Q1.95 3.7 1.75 4.1 1.6 4.45 1.6 4.7 L1.55 4.85 1.55 4.95 Q1.55 5.25 1.6 5.7 L1.6 6.05 1.55 6.05 1.35 6.25 Q1.1 6.4 1.1 6.55 L1.3 7.1 1.35 7.15 1.35 7.2 Q1.6 7.65 1.6 8.1 L1.55 8.3 1.5 8.35 1.45 8.55 1.5 8.75 1.6 8.9 1.65 8.55 Q1.65 8.45 1.7 8.3 L1.75 8.2 1.75 8.05 1.8 7.8 1.75 7.5 1.75 7.4 Q1.75 7.2 1.6 6.9 L1.5 6.75 1.45 6.65 1.45 6.6 1.5 6.5 1.65 6.4 1.7 6.35 Q1.9 6.3 1.9 6.15 L1.85 5.35 Q1.85 5.1 2.0 4.65 L2.1 4.4 2.1 4.35 2.15 4.15 2.2 4.15 2.25 3.95 M4.4 13.15 Q4.35 13.4 4.25 14.45 4.3 14.8 4.4 16.8 4.55 18.95 4.65 19.65 L4.7 21.05 5.05 21.35 Q5.4 21.55 5.6 21.55 L5.85 21.55 Q6.15 21.5 6.55 21.5 6.6 21.45 6.6 21.3 L6.7 21.0 6.75 20.7 Q6.75 19.8 6.5 16.15 L6.3 12.8 6.25 12.8 6.15 12.75 4.6 12.85 Q4.4 12.9 4.4 13.15 M5.35 12.3 L6.4 12.3 Q6.95 12.4 7.05 12.8 L7.15 13.5 7.2 14.25 7.3 15.0 7.4 16.35 7.45 17.9 7.45 18.8 Q7.45 19.8 7.45 20.3 L7.55 21.6 Q7.55 22.6 7.15 22.6 L6.2 22.45 5.45 22.35 5.35 22.4 Q5.3 22.45 5.2 22.45 4.95 22.45 4.7 22.05 4.45 21.7 4.35 21.35 L4.3 19.65 Q4.2 18.85 4.05 16.7 L3.9 14.4 Q3.9 13.35 4.15 12.8 4.45 12.1 5.35 12.3 M6.55 12.95 L6.6 14.05 Q6.7 15.25 6.7 15.8 6.65 16.35 6.75 17.25 L6.8 18.65 6.8 21.5 Q6.8 21.55 6.75 21.65 L6.6 21.75 Q5.85 21.75 5.15 21.55 L4.8 21.45 4.85 21.5 5.05 21.85 Q5.2 22.0 5.75 22.0 6.0 22.0 6.3 22.15 L6.6 22.3 Q7.15 22.3 7.25 21.95 7.3 21.8 7.3 21.0 7.0 17.2 6.95 15.9 6.85 14.5 6.7 13.35 6.8 13.15 6.75 13.0 6.75 12.9 6.55 12.85 L6.55 12.95 M-0.55 1.45 L-0.9 1.55 Q-1.8 1.9 -2.0 1.95 L-1.85 2.0 -1.55 2.15 -1.0 2.25 -0.9 2.3 -0.9 2.25 Q-0.9 1.85 -0.65 1.5 L-0.55 1.45" fill="#111111" fill-rule="evenodd" stroke="none"/>
    <path d="M6.75 6.1 Q6.9 6.2 7.0 6.35 7.1 6.5 7.2 7.15 L7.3 8.1 7.3 8.75 Q7.25 9.35 7.1 9.4 L6.95 9.4 6.9 9.25 6.8 9.0 6.9 8.85 6.95 8.7 6.9 7.85 6.85 7.85 6.85 7.45 6.7 6.85 6.65 6.6 6.65 6.55 Q6.65 6.45 6.5 6.45 L6.25 6.4 5.75 6.35 Q5.35 6.25 5.15 5.95 L4.7 5.35 Q4.5 5.1 4.35 4.75 L4.1 4.25 4.05 4.0 3.95 3.65 4.0 3.3 4.05 3.35 4.05 3.25 4.1 3.2 4.15 3.35 4.2 3.45 4.25 3.7 4.45 4.1 4.55 4.35 4.55 4.4 4.45 4.45 4.4 4.45 4.6 4.85 Q4.9 5.45 5.2 5.75 L5.6 6.05 Q5.85 6.2 6.15 6.2 L6.35 6.15 6.35 5.95 6.4 5.95 Q6.6 6.0 6.75 6.1 M-0.9 2.5 Q-0.6 2.6 -0.55 2.75 L-0.5 2.75 -0.3 2.95 Q0.15 3.4 0.25 3.4 L0.5 2.85 Q0.7 2.3 0.85 2.25 L0.95 2.25 1.1 2.35 1.05 2.45 Q0.85 2.65 0.8 3.15 0.75 3.65 0.55 3.85 L0.4 3.85 Q0.15 3.85 0.0 3.65 L-0.45 3.3 -0.65 3.1 Q-0.9 2.85 -1.65 2.65 -2.6 2.4 -2.8 2.05 L-2.75 2.0 -2.8 1.95 -2.8 1.8 -2.5 2.1 Q-2.3 2.25 -1.8 2.45 -1.1 2.65 -0.85 2.8 L-0.9 2.5 M2.2 3.75 L2.25 3.75 2.3 3.8 2.2 3.9 2.25 3.9 2.25 3.95 2.15 4.15 2.1 4.35 2.1 4.4 1.95 4.7 1.95 4.75 1.9 4.85 1.85 5.05 1.85 5.15 Q1.85 4.9 1.95 4.7 L1.9 4.65 1.85 4.55 1.65 4.45 1.7 4.3 Q1.85 3.9 2.2 3.75 M1.5 6.5 L1.45 6.55 1.45 6.65 1.5 6.75 1.55 6.8 1.5 6.8 1.4 6.7 1.3 6.65 1.35 6.6 Q1.35 6.5 1.55 6.35 L1.7 6.1 1.75 6.0 1.75 5.9 1.8 5.4 1.85 5.2 1.85 5.55 1.9 6.1 Q1.9 6.2 1.8 6.25 L1.7 6.35 1.65 6.4 1.5 6.5 M1.3 7.1 Q1.45 7.4 1.75 7.85 L1.75 8.05 1.7 8.25 1.7 8.3 Q1.65 8.45 1.65 8.55 L1.6 8.9 1.5 8.75 1.45 8.55 1.5 8.35 1.55 8.3 1.6 8.1 Q1.6 7.65 1.35 7.2 L1.35 7.15 1.3 7.1 M6.55 12.95 L6.55 12.85 Q6.75 12.9 6.75 13.0 6.8 13.15 6.7 13.35 6.85 14.5 6.95 15.9 7.0 17.2 7.3 21.0 7.3 21.8 7.25 21.95 7.15 22.3 6.6 22.3 L6.3 22.15 Q6.0 22.0 5.75 22.0 5.2 22.0 5.05 21.85 L4.85 21.5 4.8 21.45 5.15 21.55 Q5.85 21.75 6.6 21.75 L6.75 21.65 Q6.8 21.55 6.8 21.5 L6.8 18.65 6.75 17.25 Q6.65 16.35 6.7 15.8 6.7 15.25 6.6 14.05 L6.55 12.95" fill="#b4be2e" fill-rule="evenodd" stroke="none"/>
    <path d="M6.15 5.85 L6.3 5.9 6.35 5.95 6.35 6.15 6.15 6.2 Q5.85 6.2 5.6 6.05 L5.2 5.75 Q4.9 5.45 4.6 4.85 L4.4 4.45 4.45 4.45 4.55 4.4 4.55 4.35 4.6 4.5 4.8 4.8 5.45 5.5 5.65 5.75 6.15 5.85 M7.1 9.4 L7.05 9.45 7.0 9.45 6.95 9.4 7.1 9.4 M1.75 8.65 L1.75 8.55 1.75 8.65 M-0.9 2.5 L-0.85 2.8 Q-1.1 2.65 -1.8 2.45 -2.3 2.25 -2.5 2.1 L-2.8 1.8 Q-2.75 1.75 -2.65 1.75 -2.55 1.75 -2.5 1.8 L-2.4 1.95 Q-2.2 2.1 -1.9 2.25 L-1.5 2.4 -0.95 2.5 -0.9 2.5 M1.65 4.45 L1.85 4.55 1.9 4.65 1.95 4.7 Q1.85 4.9 1.85 5.15 L1.85 5.05 1.9 4.85 1.95 4.75 1.95 4.7 2.1 4.4 2.0 4.65 Q1.85 5.1 1.85 5.35 L1.9 6.15 Q1.9 6.3 1.7 6.35 L1.8 6.25 Q1.9 6.2 1.9 6.1 L1.85 5.55 1.85 5.2 1.8 5.4 1.75 5.9 1.75 6.0 1.7 6.1 1.55 6.35 Q1.35 6.5 1.35 6.6 L1.3 6.65 1.4 6.7 1.5 6.8 1.55 6.8 1.5 6.75 1.6 6.9 Q1.75 7.2 1.75 7.4 L1.75 7.5 1.8 7.8 1.75 8.05 1.75 8.2 1.7 8.3 1.7 8.25 1.75 8.05 1.75 7.85 Q1.45 7.4 1.3 7.1 L1.1 6.55 Q1.1 6.4 1.35 6.25 L1.55 6.05 1.6 6.05 1.6 5.7 Q1.55 5.25 1.55 4.95 L1.6 4.85 1.65 4.45 M2.15 4.15 L2.25 3.95 2.2 4.15 2.15 4.15 M1.45 6.65 L1.45 6.55 1.5 6.5 1.45 6.6 1.45 6.65" fill="#e2df65" fill-rule="evenodd" stroke="none"/>
    <path d="M2.8 3.4 L2.95 3.35 2.95 4.5 3.0 4.8 3.0 5.0 3.0 5.05 2.9 5.05 2.9 5.1 Q2.9 5.55 2.95 6.05 3.05 6.5 3.05 7.3 L2.9 9.2 2.75 10.8 2.75 11.2 2.8 11.8 2.45 11.7 2.3 11.65 Q2.0 11.5 1.85 11.3 1.6 10.95 1.6 10.5 L1.6 10.15 1.65 9.7 Q1.65 9.4 1.7 9.15 L1.7 8.9 1.75 8.65 1.75 8.55 1.85 8.25 1.85 8.15 1.9 7.95 1.9 7.55 1.85 7.35 1.85 7.3 1.8 7.2 1.6 6.7 1.6 6.6 1.65 6.5 1.7 6.5 1.75 6.4 Q1.8 6.3 1.95 6.3 2.05 6.3 2.05 6.25 L2.0 6.0 Q1.95 5.8 1.95 5.7 1.95 5.35 2.0 5.0 L2.05 4.85 2.05 4.75 2.1 4.75 2.85 5.05 2.85 4.95 2.8 3.4 M6.15 6.45 L5.8 7.3 Q5.3 8.85 4.9 9.65 L4.95 9.7 5.1 9.4 4.9 9.75 4.95 9.75 Q5.3 9.2 5.75 8.65 L6.0 8.35 Q5.95 9.1 5.8 9.8 L5.6 10.35 5.25 11.35 5.05 11.95 3.85 11.95 2.85 11.8 2.9 11.8 2.9 11.5 2.9 11.55 2.95 11.6 3.0 11.6 2.95 11.3 2.95 10.2 3.0 10.0 3.0 9.85 3.05 9.05 3.1 8.6 3.15 8.35 Q3.2 8.15 3.2 7.6 L3.2 6.6 3.15 6.2 3.15 6.05 3.1 5.6 3.15 5.75 3.1 5.3 3.15 5.05 Q3.4 5.05 3.85 4.75 L4.15 4.6 4.1 4.5 4.25 4.8 4.3 4.85 4.3 4.9 4.45 5.1 4.55 5.2 4.6 5.3 5.05 6.05 Q5.3 6.4 5.4 6.4 L5.4 6.35 5.6 6.35 Q5.9 6.35 6.15 6.45 M-0.65 1.75 Q-0.3 2.25 -0.2 2.6 L-0.15 2.85 -0.35 2.6 Q-0.45 2.4 -0.8 2.3 L-0.8 2.1 -0.65 1.8 -0.65 1.75 M-0.55 1.45 L-0.65 1.5 Q-0.9 1.85 -0.9 2.25 L-0.9 2.3 -1.0 2.25 -1.55 2.15 -1.85 2.0 -2.0 1.95 Q-1.8 1.9 -0.9 1.55 L-0.55 1.45" fill="#1c9558" fill-rule="evenodd" stroke="none"/>
    <path d="M2.45 3.75 L2.45 3.7 Q2.6 3.5 2.8 3.4 L2.85 4.95 2.85 5.05 2.1 4.75 2.05 4.75 2.05 4.7 2.15 4.45 2.2 4.3 Q2.3 4.1 2.3 3.95 L2.3 3.9 2.45 3.75 M2.95 3.35 Q3.35 3.25 3.75 3.6 L3.9 3.8 3.9 3.9 3.95 3.95 4.05 4.25 4.0 4.25 4.05 4.3 4.1 4.5 4.15 4.6 3.85 4.75 Q3.4 5.05 3.15 5.05 L3.15 5.0 3.05 4.7 3.05 4.0 3.0 3.35 2.95 3.35 M6.15 6.45 L6.3 6.5 6.45 6.6 Q6.55 6.65 6.55 6.7 L6.7 7.2 Q6.8 7.45 6.8 7.85 L6.8 8.2 Q6.8 8.45 6.7 8.65 6.65 8.8 6.65 8.95 L6.65 9.0 6.75 9.4 Q6.8 9.6 6.9 9.7 L6.8 10.05 Q6.8 10.2 6.75 10.45 L6.75 10.7 Q6.7 11.0 6.6 11.15 L6.6 11.2 Q6.3 11.7 5.45 11.9 L5.05 11.95 5.25 11.35 5.6 10.35 5.8 9.8 Q5.95 9.1 6.0 8.35 L5.75 8.65 Q5.3 9.2 4.95 9.75 L4.9 9.75 5.1 9.4 4.95 9.7 4.9 9.65 Q5.3 8.85 5.8 7.3 L6.15 6.45 M-0.65 1.75 L-0.45 1.45 0.0 1.25 0.6 1.2 Q0.8 1.2 1.0 1.35 1.2 1.5 1.2 1.65 1.2 1.75 1.1 1.9 L1.05 1.95 0.9 1.95 Q0.6 2.05 0.55 2.25 0.4 2.75 0.1 3.15 L-0.15 2.85 -0.2 2.6 Q-0.3 2.25 -0.65 1.75 M4.4 13.15 Q4.4 12.9 4.6 12.85 L6.15 12.75 6.25 12.8 6.3 12.8 6.5 16.15 Q6.75 19.8 6.75 20.7 L6.7 21.0 6.6 21.3 Q6.6 21.45 6.55 21.5 6.15 21.5 5.85 21.55 L5.6 21.55 Q5.4 21.55 5.05 21.35 L4.7 21.05 4.65 19.65 Q4.55 18.95 4.4 16.8 4.3 14.8 4.25 14.45 4.35 13.4 4.4 13.15" fill="#13643c" fill-rule="evenodd" stroke="none"/>
    <path d="M1.35 6.0 L1.3 6.0 0.8 4.8 0.65 4.45 0.6 4.3 0.6 4.2 Q0.85 4.05 0.95 3.55 1.05 3.0 1.25 2.65 1.35 2.6 1.4 2.45 L1.4 2.4 1.45 2.35 1.45 2.3 1.4 2.3 1.4 2.25 1.35 2.15 Q1.5 2.05 1.55 1.65 1.55 1.45 1.4 1.25 1.9 0.95 2.45 0.75 L2.8 0.6 2.75 0.7 3.65 0.4 3.9 0.35 4.0 0.35 5.35 0.15 5.7 0.15 6.8 0.3 7.45 0.45 7.6 0.45 7.7 0.5 7.8 0.5 8.05 0.6 Q8.4 0.7 8.6 0.85 L8.8 1.45 Q9.0 2.1 9.0 2.9 L8.95 3.75 8.85 4.45 8.65 5.25 8.65 5.3 8.4 5.95 8.05 6.55 8.0 6.6 7.65 7.2 Q7.6 7.35 7.45 7.7 L7.45 7.75 7.4 7.5 7.35 6.75 Q7.3 6.35 6.65 5.95 L6.3 5.8 6.6 4.8 6.65 4.7 6.6 4.7 6.55 4.5 Q5.75 4.9 5.25 4.9 L5.15 4.95 5.1 4.95 5.05 4.9 5.05 4.85 Q5.45 4.5 5.7 3.95 L5.8 3.75 5.4 3.95 4.75 4.45 4.6 4.2 Q4.5 4.05 4.3 3.45 4.25 3.25 4.05 3.1 3.8 2.9 3.8 3.25 3.8 3.4 3.85 3.65 L3.9 3.8 3.75 3.6 Q3.35 3.25 2.95 3.35 L2.8 3.4 Q2.6 3.5 2.45 3.7 L2.45 3.75 2.45 3.7 Q2.45 3.35 2.1 3.6 1.85 3.75 1.75 3.95 1.6 4.15 1.5 4.7 L1.5 4.85 0.95 4.5 Q1.05 4.75 1.2 4.95 L1.15 4.9 1.15 5.2 1.2 5.35 Q1.2 5.6 1.35 6.0 M6.3 5.9 Q6.55 6.0 6.75 6.1 6.6 6.0 6.4 5.95 L6.35 5.95 6.3 5.9 M4.05 3.25 Q4.05 3.2 4.0 3.2 L4.1 3.2 4.05 3.25 M2.2 3.75 Q1.85 3.9 1.7 4.3 L1.65 4.45 1.6 4.85 1.55 4.85 1.6 4.7 Q1.6 4.45 1.75 4.1 1.95 3.7 2.15 3.7 L2.2 3.75" fill="#25382f" fill-rule="evenodd" stroke="none"/>
    <path d="M1.35 6.0 Q1.2 5.6 1.2 5.35 L1.15 5.2 1.15 4.9 1.2 4.95 Q1.05 4.75 0.95 4.5 L1.5 4.85 1.5 5.5 Q1.5 5.65 1.4 5.85 L1.35 6.0 M4.75 4.45 L5.4 3.95 5.8 3.75 5.7 3.95 Q5.45 4.5 5.05 4.85 L4.75 4.45 M5.1 4.95 L5.15 4.95 5.25 4.9 Q5.75 4.9 6.55 4.5 L6.6 4.7 6.65 4.7 6.6 4.8 6.3 5.8 Q5.95 5.6 5.5 5.5 L5.1 4.95 M6.15 5.85 L6.3 5.9 6.15 5.85 M1.55 4.85 L1.6 4.85 1.55 4.95 1.55 4.85" fill="#3c4d45" fill-rule="evenodd" stroke="none"/>
    <path d="M2.85 11.8 L2.8 11.8 2.75 11.2 2.75 10.8 2.9 9.2 3.05 7.3 Q3.05 6.5 2.95 6.05 2.9 5.55 2.9 5.1 L2.9 5.05 3.0 5.05 3.0 5.0 3.1 5.7 3.2 6.6 3.2 6.75 3.15 7.55 3.05 8.35 2.95 9.35 2.95 9.95 2.9 10.5 2.9 11.5 2.9 11.8 2.85 11.8" fill="#22b56b" fill-rule="evenodd" stroke="none"/>
    <path d="M2.95 10.2 L2.95 10.0 3.0 10.0 2.95 10.2 M3.0 9.85 L3.0 9.35 Q3.05 8.95 3.1 8.6 L3.05 9.05 3.0 9.85 M3.15 6.2 L3.15 5.75 3.1 5.6 3.15 6.05 3.15 6.2" fill="#26ce7a" fill-rule="evenodd" stroke="none"/>
  </g>
</svg>
