<?xml version="1.0" encoding="UTF-8" standalone="no"?>
<svg xmlns:ffdec="https://www.free-decompiler.com/flash" xmlns:xlink="http://www.w3.org/1999/xlink" ffdec:objectType="shape" height="7.65px" width="8.85px" xmlns="http://www.w3.org/2000/svg">
  <g transform="matrix(1.0, 0.0, 0.0, 1.0, 0.0, 0.0)">
    <path d="M8.85 3.25 L8.6 3.4 Q8.3 3.6 8.05 3.85 L7.85 4.05 8.1 4.0 Q8.5 4.0 8.8 4.1 8.7 4.45 8.0 4.85 L7.75 4.95 7.7 5.0 7.15 5.35 Q7.25 5.35 7.6 5.15 7.65 5.1 7.65 5.2 L7.55 5.35 7.6 5.45 Q7.6 5.9 6.25 6.75 4.75 7.65 3.6 7.65 2.95 7.65 2.55 7.5 L2.5 7.5 Q1.35 7.3 0.65 6.65 0.05 6.1 0.05 5.4 L0.05 5.35 0.0 5.05 Q0.0 4.55 0.65 3.2 L1.1 2.3 1.25 1.85 Q1.65 1.05 1.65 1.85 L1.65 1.9 Q1.95 1.5 2.75 0.95 3.4 0.5 4.25 0.0 L4.25 0.55 4.2 0.7 4.2 0.75 4.15 0.85 Q4.45 0.55 5.05 0.45 L5.9 0.45 6.1 0.4 6.1 0.45 6.15 0.45 6.1 0.5 6.15 0.55 6.05 0.65 5.85 1.25 6.15 1.1 Q6.6 0.95 6.8 0.9 L6.8 1.0 Q6.8 1.25 6.7 1.7 6.9 1.4 7.1 1.2 L7.2 1.15 7.2 1.1 Q7.3 0.95 7.45 1.3 L7.5 1.35 Q7.6 1.65 7.6 1.9 7.6 2.2 7.45 2.55 7.35 2.75 7.25 2.85 L7.45 2.8 Q8.05 2.8 8.45 3.0 8.8 3.15 8.8 3.2 L8.85 3.25 M8.3 4.25 L8.0 4.25 Q7.8 4.2 7.75 4.05 L7.7 4.05 Q7.7 3.85 8.05 3.6 8.25 3.4 8.45 3.35 L8.55 3.25 7.85 3.05 7.0 3.05 6.95 3.1 6.9 3.0 7.15 2.55 Q7.4 2.1 7.4 1.95 L7.35 1.5 7.3 1.4 6.95 1.85 Q6.65 2.15 6.4 2.3 L6.3 2.4 6.25 2.4 6.25 2.35 6.4 1.95 Q6.6 1.55 6.6 1.35 L6.6 1.2 6.15 1.35 Q5.8 1.5 5.7 1.5 L5.65 1.5 Q5.55 1.6 5.45 1.6 L5.4 1.6 5.7 1.0 5.95 0.65 Q5.05 0.7 4.55 0.9 4.35 0.95 4.0 1.15 L3.95 1.2 Q3.9 1.2 3.9 1.15 L3.9 1.1 Q3.9 0.95 4.0 0.7 L4.1 0.35 4.15 0.25 2.75 1.3 Q1.95 1.95 1.55 2.35 L1.5 2.55 1.4 2.05 1.4 1.9 0.8 3.75 0.75 3.75 0.6 4.25 0.55 4.4 Q0.35 5.05 0.3 5.6 L0.35 5.7 Q0.55 6.1 0.85 6.35 1.4 6.85 2.2 7.3 L2.4 7.25 2.65 7.25 3.15 7.3 Q4.55 7.3 6.0 6.4 6.4 6.2 7.2 5.55 7.0 5.6 6.75 5.6 L6.65 5.5 Q6.65 5.3 7.2 5.05 L7.35 4.95 Q7.65 4.75 7.9 4.7 L8.45 4.35 8.45 4.3 8.3 4.25" fill="#111111" fill-rule="evenodd" stroke="none"/>
    <path d="M1.5 2.55 L1.55 2.35 Q1.95 1.95 2.75 1.3 L4.15 0.25 4.1 0.35 4.0 0.7 Q3.9 0.95 3.9 1.1 L3.9 1.15 Q3.9 1.2 3.95 1.2 L4.0 1.15 Q4.35 0.95 4.55 0.9 5.05 0.7 5.95 0.65 L5.7 1.0 5.4 1.6 5.45 1.6 Q5.55 1.6 5.65 1.5 L5.7 1.5 Q5.8 1.5 6.15 1.35 L6.6 1.2 6.6 1.35 Q6.6 1.55 6.4 1.95 L6.25 2.35 6.25 2.4 6.3 2.4 6.4 2.3 Q6.65 2.15 6.95 1.85 L7.3 1.4 7.35 1.5 7.4 1.95 Q7.4 2.1 7.15 2.55 L6.9 3.0 6.95 3.1 7.0 3.05 7.85 3.05 8.55 3.25 8.45 3.35 Q8.25 3.4 8.05 3.6 7.7 3.85 7.7 4.05 L7.75 4.05 Q7.8 4.2 8.0 4.25 L8.3 4.25 7.1 4.8 7.35 4.55 Q7.5 4.3 7.5 4.25 L7.5 4.2 7.45 4.15 Q7.4 4.15 7.05 4.3 L6.65 4.4 6.85 3.95 Q7.1 3.45 7.1 3.35 7.1 3.25 7.05 3.25 L6.7 3.35 6.6 3.3 6.4 3.45 Q6.2 3.5 6.05 3.6 5.85 3.7 5.75 3.75 L5.6 3.8 5.95 3.4 6.3 2.8 6.3 2.75 6.2 2.7 5.75 2.95 Q5.25 3.2 5.05 3.15 L5.05 3.1 Q5.4 2.85 5.65 2.45 L6.1 1.7 6.1 1.6 5.15 1.8 3.85 2.1 3.65 2.1 3.7 2.05 3.85 1.55 3.85 1.4 3.75 1.5 Q3.55 1.5 2.85 1.9 1.95 2.5 1.65 2.9 L1.6 2.7 Q1.55 2.6 1.5 2.55 L1.4 2.55 1.2 3.0 0.95 3.4 0.75 3.75 0.8 3.75 1.4 1.9 1.4 2.05 1.5 2.55 M5.9 3.05 L5.9 3.1 5.85 3.1 5.9 3.05 M4.65 2.65 Q4.35 3.5 3.75 3.8 L3.65 3.8 Q3.6 3.75 3.6 3.65 3.6 3.45 4.1 3.05 4.5 2.7 4.65 2.65 M1.65 2.95 L1.65 2.95 M1.5 5.1 L1.4 4.95 Q1.3 4.9 1.3 4.85 1.3 4.5 1.95 3.95 2.65 3.35 3.25 3.4 L2.45 4.25 1.5 5.1 M4.65 4.5 Q4.15 4.9 3.6 5.0 3.35 5.0 3.3 4.9 L4.35 4.3 5.2 3.75 Q5.05 4.15 4.65 4.5 M4.15 5.7 Q4.35 5.45 5.25 5.15 6.1 4.85 6.3 4.9 6.2 5.05 5.3 5.35 L4.15 5.75 4.15 5.7" fill="#9c9581" fill-rule="evenodd" stroke="none"/>
    <path d="M1.5 2.55 Q1.55 2.6 1.6 2.7 L1.65 2.9 Q1.95 2.5 2.85 1.9 3.55 1.5 3.75 1.5 L3.85 1.4 3.85 1.55 3.7 2.05 3.65 2.1 3.85 2.1 5.15 1.8 6.1 1.6 6.1 1.7 5.65 2.45 Q5.4 2.85 5.05 3.1 L5.05 3.15 Q5.25 3.2 5.75 2.95 L6.2 2.7 6.3 2.75 6.3 2.8 5.95 3.4 5.6 3.8 5.75 3.75 Q5.85 3.7 6.05 3.6 6.2 3.5 6.4 3.45 L6.6 3.3 6.7 3.35 7.05 3.25 Q7.1 3.25 7.1 3.35 7.1 3.45 6.85 3.95 L6.65 4.4 7.05 4.3 Q7.4 4.15 7.45 4.15 L7.5 4.2 7.5 4.25 Q7.5 4.3 7.35 4.55 L7.1 4.8 8.3 4.25 8.45 4.3 8.45 4.35 7.9 4.7 Q7.65 4.75 7.35 4.95 L7.2 5.05 Q6.65 5.3 6.65 5.5 L6.75 5.6 Q7.0 5.6 7.2 5.55 6.4 6.2 6.0 6.4 4.55 7.3 3.15 7.3 L2.65 7.25 2.4 7.25 2.2 7.3 Q1.4 6.85 0.85 6.35 0.55 6.1 0.35 5.7 L0.3 5.6 Q0.35 5.05 0.55 4.4 L0.6 4.25 0.75 3.75 0.95 3.4 1.2 3.0 1.4 2.55 1.5 2.55 M5.9 3.05 L5.85 3.1 5.9 3.1 5.9 3.05 M4.65 2.65 Q4.5 2.7 4.1 3.05 3.6 3.45 3.6 3.65 3.6 3.75 3.65 3.8 L3.75 3.8 Q4.35 3.5 4.65 2.65 M1.65 2.95 L1.65 2.95 M4.15 5.7 L4.15 5.75 5.3 5.35 Q6.2 5.05 6.3 4.9 6.1 4.85 5.25 5.15 4.35 5.45 4.15 5.7 M4.65 4.5 Q5.05 4.15 5.2 3.75 L4.35 4.3 3.3 4.9 Q3.35 5.0 3.6 5.0 4.15 4.9 4.65 4.5 M1.5 5.1 L2.45 4.25 3.25 3.4 Q2.65 3.35 1.95 3.95 1.3 4.5 1.3 4.85 1.3 4.9 1.4 4.95 L1.5 5.1" fill="#666154" fill-rule="evenodd" stroke="none"/>
  </g>
</svg>
