<?xml version="1.0" encoding="UTF-8" standalone="no"?>
<svg xmlns:ffdec="https://www.free-decompiler.com/flash" xmlns:xlink="http://www.w3.org/1999/xlink" ffdec:objectType="shape" height="8.7px" width="6.0px" xmlns="http://www.w3.org/2000/svg">
  <g transform="matrix(1.0, 0.0, 0.0, 1.0, 0.0, 0.0)">
    <path d="M3.15 0.1 Q4.25 0.1 4.95 0.9 5.55 1.6 5.55 2.45 5.55 2.9 5.25 3.65 L5.2 3.8 Q5.5 4.05 5.7 4.45 6.0 4.95 6.0 5.35 6.0 6.1 5.85 6.35 L5.2 7.15 4.85 7.75 Q4.4 8.55 4.15 8.55 L4.0 8.55 Q3.7 8.7 3.35 8.7 1.75 8.7 1.15 7.25 0.85 6.5 0.85 5.6 0.85 5.25 0.95 4.5 L1.05 3.75 Q0.8 3.65 0.6 3.45 0.25 3.15 0.2 2.9 0.1 2.8 0.1 2.7 L0.1 2.6 0.15 2.6 0.2 2.6 0.25 2.7 0.45 2.8 0.5 2.85 0.9 3.1 0.95 3.1 1.35 3.3 2.05 3.45 2.75 3.55 Q4.1 3.8 4.5 3.95 4.65 4.0 4.65 4.05 L4.6 4.15 4.65 4.2 4.7 4.15 4.9 3.6 Q5.25 2.9 5.25 2.45 5.25 1.95 4.95 1.5 L4.65 1.15 Q4.35 0.85 3.95 0.6 L3.6 0.45 3.1 0.25 2.6 0.15 2.6 0.1 2.75 0.1 3.15 0.1 M1.9 0.05 L2.3 0.15 2.4 0.2 Q2.75 0.35 3.1 0.55 L3.4 0.8 4.0 1.2 4.0 1.25 3.85 1.3 Q3.7 1.3 3.1 1.0 L2.3 0.6 Q1.45 0.15 1.3 0.15 1.35 0.1 1.45 0.1 L1.65 0.05 1.9 0.05 M1.15 3.85 Q1.05 5.1 1.25 6.15 1.65 8.25 3.45 8.25 4.4 8.25 4.8 7.45 5.1 6.95 5.1 6.35 5.1 5.85 4.75 5.15 4.4 4.5 4.4 4.2 L3.75 4.2 3.3 4.05 2.7 4.0 2.2 3.95 1.6 3.85 1.45 3.8 1.2 3.8 1.15 3.8 1.15 3.85 M5.0 4.2 L4.8 4.55 4.9 4.8 Q5.1 5.2 5.15 5.5 5.3 5.95 5.3 6.65 L5.35 6.65 5.45 6.55 Q5.7 6.25 5.75 5.9 L5.75 5.75 Q5.75 5.15 5.65 4.8 L5.15 3.9 5.0 4.2" fill="#111111" fill-rule="evenodd" stroke="none"/>
    <path d="M0.15 2.6 Q0.0 2.35 0.0 2.05 0.0 1.6 0.35 0.9 0.85 0.0 1.6 0.0 L1.9 0.05 1.65 0.05 1.45 0.1 Q1.35 0.1 1.3 0.15 1.45 0.15 2.3 0.6 L3.1 1.0 3.2 1.1 Q4.45 2.1 4.45 3.35 L4.45 3.45 4.3 3.45 Q4.05 3.45 3.05 3.25 2.0 3.0 1.55 2.8 1.3 2.7 0.75 2.25 L0.2 1.8 Q0.1 1.8 0.05 1.85 L0.0 1.9 Q0.05 2.35 0.45 2.8 L0.25 2.7 0.2 2.6 0.15 2.6 M2.3 0.15 L2.45 0.2 2.6 0.15 3.1 0.25 2.4 0.2 2.3 0.15 M2.75 0.1 L2.85 0.05 3.15 0.1 2.75 0.1 M3.95 0.6 Q4.35 0.85 4.65 1.15 L4.95 1.5 Q5.25 2.0 5.25 2.35 5.25 2.8 4.9 3.4 5.2 2.1 3.7 0.65 L3.65 0.6 3.95 0.6 M4.7 4.15 L4.65 4.2 4.6 4.15 4.7 4.15 M1.8 5.25 Q1.8 4.9 1.85 4.7 L2.05 4.0 Q3.9 3.9 4.45 4.85 4.7 5.25 4.7 6.25 4.65 6.55 4.5 6.9 4.25 7.6 3.8 7.6 2.55 7.6 2.05 6.55 1.8 6.0 1.8 5.25 M1.2 3.8 L1.15 3.85 1.15 3.8 1.2 3.8 M5.75 5.9 Q5.55 5.6 5.3 5.15 L5.1 4.5 Q5.05 4.3 5.0 4.2 L5.15 3.9 5.65 4.8 Q5.75 5.15 5.75 5.75 L5.75 5.9" fill="#c7a36d" fill-rule="evenodd" stroke="none"/>
    <path d="M3.95 0.6 L3.65 0.6 3.7 0.65 Q5.2 2.1 4.9 3.4 5.25 2.8 5.25 2.35 5.25 2.0 4.95 1.5 5.25 1.95 5.25 2.45 5.25 2.9 4.9 3.6 L4.7 4.15 4.6 4.15 4.65 4.05 Q4.65 4.0 4.5 3.95 4.1 3.8 2.75 3.55 L2.05 3.45 1.35 3.3 0.95 3.1 0.9 3.1 0.5 2.85 0.45 2.8 Q0.05 2.35 0.0 1.9 L0.05 1.85 Q0.1 1.8 0.2 1.8 L0.75 2.25 Q1.3 2.7 1.55 2.8 2.0 3.0 3.05 3.25 4.05 3.45 4.3 3.45 L4.45 3.45 4.45 3.35 Q4.45 2.1 3.2 1.1 L3.1 1.0 Q3.7 1.3 3.85 1.3 L4.0 1.25 4.0 1.2 3.4 0.8 3.1 0.55 Q2.75 0.35 2.4 0.2 L3.1 0.25 3.6 0.45 3.95 0.6 M1.8 5.25 Q1.8 6.0 2.05 6.55 2.55 7.6 3.8 7.6 4.25 7.6 4.5 6.9 4.65 6.55 4.7 6.25 4.7 5.25 4.45 4.85 3.9 3.9 2.05 4.0 L1.85 4.7 Q1.8 4.9 1.8 5.25 M1.2 3.8 L1.45 3.8 1.6 3.85 2.2 3.95 2.7 4.0 3.3 4.05 3.75 4.2 4.4 4.2 Q4.4 4.5 4.75 5.15 5.1 5.85 5.1 6.35 5.1 6.95 4.8 7.45 4.4 8.25 3.45 8.25 1.65 8.25 1.25 6.15 1.05 5.1 1.15 3.85 L1.2 3.8 M5.75 5.9 Q5.7 6.25 5.45 6.55 L5.35 6.65 5.3 6.65 Q5.3 5.95 5.15 5.5 5.1 5.2 4.9 4.8 L4.8 4.55 5.0 4.2 Q5.05 4.3 5.1 4.5 L5.3 5.15 Q5.55 5.6 5.75 5.9" fill="#a9854f" fill-rule="evenodd" stroke="none"/>
  </g>
</svg>
