<?xml version="1.0" encoding="UTF-8" standalone="no"?>
<svg xmlns:ffdec="https://www.free-decompiler.com/flash" xmlns:xlink="http://www.w3.org/1999/xlink" ffdec:objectType="shape" height="15.4px" width="8.5px" xmlns="http://www.w3.org/2000/svg">
  <g transform="matrix(1.0, 0.0, 0.0, 1.0, 4.25, 7.7)">
    <path d="M0.0 -6.8 L0.9 -6.15 1.05 -6.0 1.1 -6.0 1.1 -5.95 1.15 -5.95 1.2 -5.9 1.75 -5.45 Q2.15 -5.0 2.45 -4.5 2.8 -3.85 2.8 -3.5 L2.8 -3.25 2.75 -3.25 Q2.7 -3.2 2.65 -3.1 L2.65 -3.05 2.4 -2.8 2.3 -2.65 2.25 -2.6 2.35 -2.55 2.3 -2.45 2.35 -2.35 2.15 -2.3 Q1.9 -2.3 1.8 -2.45 1.75 -2.5 1.8 -2.6 1.8 -2.75 2.05 -3.15 2.3 -3.5 2.3 -3.75 2.3 -4.2 1.85 -4.8 1.5 -5.2 0.8 -5.8 0.3 -6.2 -0.1 -6.75 L-0.15 -6.85 0.0 -6.8 M2.35 -2.3 L2.4 -2.3 2.6 -2.5 2.6 -2.4 2.65 -2.4 2.7 -2.45 2.75 -2.4 2.75 -2.35 2.95 -1.55 2.95 -1.5 Q3.3 -0.15 3.3 1.25 L3.2 2.35 Q3.2 2.5 3.2 2.6 L3.05 2.85 Q2.75 3.3 1.8 3.75 L1.5 3.9 1.55 3.8 Q1.75 3.45 1.75 3.0 1.75 2.35 1.05 1.55 0.15 0.5 -1.3 0.5 L-1.55 0.55 Q-1.4 0.05 -1.35 -0.3 L-1.1 -0.25 -1.05 -0.3 Q0.2 0.8 1.35 0.85 L1.4 0.85 Q1.65 0.85 1.7 0.7 L1.65 0.65 Q0.1 0.35 -1.0 -0.65 -1.65 -1.25 -2.65 -2.5 L-2.65 -2.45 -2.7 -2.5 -2.7 -2.4 Q-2.7 -2.2 -2.3 -1.65 -1.95 -1.15 -1.5 -0.7 L-1.55 -0.7 Q-1.95 -0.95 -2.05 -1.0 -2.9 -1.9 -3.3 -2.7 -3.85 -3.75 -3.85 -4.9 L-3.85 -5.25 Q-3.6 -5.85 -3.55 -5.1 L-3.4 -4.35 Q-3.35 -3.95 -3.2 -3.65 -3.05 -3.45 -2.5 -2.95 -1.95 -2.45 -1.85 -2.2 L-0.85 -1.2 -0.15 -0.55 -0.1 -0.55 Q0.2 -0.35 0.4 -0.35 1.0 -0.35 1.9 -1.35 L2.45 -1.95 2.35 -2.3 M-1.5 4.4 L-1.6 4.4 -1.85 4.35 Q-2.0 4.25 -2.15 3.95 L-2.3 3.45 Q-2.3 2.9 -1.8 3.4 -1.35 3.9 -1.35 4.2 -1.35 4.25 -1.45 4.35 L-1.5 4.4 M1.75 -0.55 L1.7 -0.5 1.8 -0.65 1.85 -0.8 1.85 -0.85 Q1.7 -0.8 1.35 -0.6 L0.75 -0.3 0.8 -0.2 0.9 -0.15 1.05 -0.1 1.1 -0.1 Q0.9 -0.05 0.7 0.0 1.1 0.2 1.4 0.2 1.55 0.2 1.85 -0.1 L1.85 0.1 1.9 0.15 1.9 0.2 2.05 0.2 2.15 0.15 2.05 0.3 2.15 0.35 2.35 0.4 Q2.75 0.4 2.75 0.0 2.75 -0.2 2.65 -0.5 L2.4 -0.15 2.35 -0.2 2.35 -0.3 2.05 -0.25 2.0 -0.2 1.95 -0.2 Q2.2 -0.5 2.6 -1.15 L2.55 -1.55 Q2.4 -1.3 2.15 -1.0 L1.75 -0.55 M-1.9 3.75 Q-1.95 3.75 -1.95 3.85 -1.85 4.3 -1.7 4.3 L-1.55 4.3 -1.55 4.15 Q-1.55 4.05 -1.65 3.95 L-1.85 3.75 -1.9 3.75" fill="#a9854f" fill-rule="evenodd" stroke="none"/>
    <path d="M2.35 -2.35 L2.3 -2.45 2.35 -2.55 2.25 -2.6 2.3 -2.65 2.4 -2.8 2.65 -3.05 2.65 -3.1 Q2.7 -3.2 2.75 -3.25 L2.8 -3.25 2.8 -3.5 Q2.8 -3.85 2.45 -4.5 2.15 -5.0 1.75 -5.45 L1.2 -5.9 1.15 -5.95 1.1 -5.95 1.1 -6.0 1.05 -6.0 0.9 -6.15 0.0 -6.8 -0.45 -7.0 Q-1.25 -7.35 -2.1 -7.35 L-2.7 -7.3 -3.1 -7.05 -3.35 -6.9 Q-3.8 -6.25 -3.85 -5.25 L-3.85 -4.9 Q-3.85 -3.75 -3.3 -2.7 -2.9 -1.9 -2.05 -1.0 -1.95 -0.95 -1.55 -0.7 L-1.5 -0.7 Q-1.95 -1.15 -2.3 -1.65 -2.7 -2.2 -2.7 -2.4 L-2.7 -2.5 -2.65 -2.45 -2.65 -2.5 Q-1.65 -1.25 -1.0 -0.65 0.1 0.35 1.65 0.65 L1.7 0.7 Q1.65 0.85 1.4 0.85 L1.35 0.85 Q0.2 0.8 -1.05 -0.3 L-1.1 -0.25 -1.35 -0.3 Q-1.4 0.05 -1.55 0.55 L-1.6 0.55 -1.95 1.3 -2.05 1.5 Q-2.45 2.3 -2.55 2.8 L-2.6 3.05 -2.55 3.25 -2.15 4.25 -1.95 4.35 -1.85 4.35 -1.6 4.4 -1.5 4.4 -0.95 4.45 Q0.15 4.45 1.45 3.9 L1.5 3.9 1.8 3.75 Q2.75 3.3 3.05 2.85 L3.2 2.6 Q3.2 2.5 3.2 2.35 L3.3 1.25 Q3.3 -0.15 2.95 -1.5 L2.95 -1.55 2.75 -2.35 2.7 -2.5 2.7 -2.45 2.65 -2.4 2.6 -2.4 2.6 -2.5 2.4 -2.3 2.35 -2.3 2.35 -2.35 M2.8 -4.5 Q3.25 -3.8 3.25 -3.35 L3.2 -3.3 Q3.2 -3.1 3.0 -2.9 3.25 -2.4 3.4 -1.5 3.65 -0.25 3.65 0.55 L3.55 1.75 3.45 2.35 Q3.8 2.05 4.0 2.45 4.25 2.9 4.25 3.65 4.25 4.05 3.75 4.5 3.4 5.2 2.8 5.9 1.3 7.7 -0.4 7.7 -1.55 7.7 -2.65 6.95 -3.6 6.35 -3.6 5.95 L-3.5 4.75 -3.45 4.6 -3.5 4.45 -3.45 4.45 Q-3.25 3.6 -3.05 3.6 L-2.9 3.65 -2.95 3.4 Q-2.95 2.4 -2.35 1.35 -1.8 0.3 -1.8 -0.05 -1.8 -0.3 -1.85 -0.4 L-2.0 -0.7 Q-3.1 -1.4 -3.65 -2.45 -4.25 -3.5 -4.25 -4.75 -4.25 -6.1 -3.7 -6.8 L-3.7 -6.9 Q-3.65 -7.55 -2.85 -7.6 L-2.0 -7.7 Q-0.3 -7.6 1.0 -6.5 L2.5 -4.95 Q2.65 -4.7 2.8 -4.5 M1.75 -0.55 L1.55 -0.3 Q1.35 -0.15 1.1 -0.1 L1.05 -0.1 0.9 -0.15 0.8 -0.2 0.75 -0.3 1.35 -0.6 Q1.7 -0.8 1.85 -0.85 L1.85 -0.8 1.8 -0.65 1.7 -0.5 1.75 -0.55 M1.85 -0.1 L1.95 -0.2 2.0 -0.2 2.05 -0.25 2.35 -0.3 2.35 -0.2 2.4 -0.15 2.4 -0.05 Q2.4 0.0 2.25 0.1 L2.15 0.15 2.05 0.2 1.9 0.2 1.9 0.15 1.85 0.1 1.85 -0.1 M3.8 2.8 L3.75 2.75 3.75 2.6 3.7 2.6 Q2.6 3.8 2.05 4.2 0.85 4.9 -0.95 4.9 -1.6 4.9 -2.1 4.6 L-2.25 4.5 -2.25 4.45 Q-2.55 4.45 -2.75 4.05 L-2.9 4.2 -3.05 4.55 -3.1 4.6 -3.1 4.75 -3.05 4.8 -2.85 5.05 -2.45 5.5 Q-1.55 6.45 -0.65 6.5 L-0.55 6.5 Q-0.1 6.5 0.45 6.3 0.7 6.2 0.85 6.15 L1.05 6.15 1.1 6.2 Q0.95 6.2 0.35 6.5 -0.05 6.75 -0.6 6.75 -1.7 6.75 -2.7 5.7 -3.0 5.4 -3.15 5.1 L-3.2 5.75 Q-3.2 6.05 -2.1 6.65 -1.05 7.2 -0.4 7.2 1.35 7.2 2.8 5.55 3.3 4.95 3.65 4.3 3.9 3.8 3.9 3.55 L3.9 3.45 3.9 3.35 3.85 3.55 3.8 3.6 3.45 4.2 3.15 4.5 3.0 4.7 2.85 4.85 2.8 4.85 2.8 4.9 1.55 5.8 1.05 6.0 1.55 5.5 3.65 3.25 3.8 3.0 3.8 2.8 M-1.9 3.75 L-1.85 3.75 -1.65 3.95 Q-1.55 4.05 -1.55 4.15 L-1.55 4.3 -1.7 4.3 Q-1.85 4.3 -1.95 3.85 -1.95 3.75 -1.9 3.75" fill="#111111" fill-rule="evenodd" stroke="none"/>
    <path d="M0.0 -6.8 L-0.15 -6.85 -0.1 -6.75 Q0.3 -6.2 0.8 -5.8 1.5 -5.2 1.85 -4.8 2.3 -4.2 2.3 -3.75 2.3 -3.5 2.05 -3.15 1.8 -2.75 1.8 -2.6 1.75 -2.5 1.8 -2.45 1.9 -2.3 2.15 -2.3 L2.35 -2.35 2.35 -2.3 2.45 -1.95 1.9 -1.35 Q1.0 -0.35 0.4 -0.35 0.2 -0.35 -0.1 -0.55 L-0.15 -0.55 -0.85 -1.2 -1.85 -2.2 Q-1.95 -2.45 -2.5 -2.95 -3.05 -3.45 -3.2 -3.65 -3.35 -3.95 -3.4 -4.35 L-3.55 -5.1 Q-3.6 -5.85 -3.85 -5.25 -3.8 -6.25 -3.35 -6.9 L-3.1 -7.05 -2.7 -7.3 -2.1 -7.35 Q-1.25 -7.35 -0.45 -7.0 L0.0 -6.8 M2.7 -2.45 L2.7 -2.5 2.75 -2.35 2.75 -2.4 2.7 -2.45 M1.5 3.9 L1.45 3.9 Q0.15 4.45 -0.95 4.45 L-1.5 4.4 -1.45 4.35 Q-1.35 4.25 -1.35 4.2 -1.35 3.9 -1.8 3.4 -2.3 2.9 -2.3 3.45 L-2.15 3.95 Q-2.0 4.25 -1.85 4.35 L-1.95 4.35 -2.15 4.25 -2.55 3.25 -2.6 3.05 -2.55 2.8 Q-2.45 2.3 -2.05 1.5 L-1.95 1.3 -1.6 0.55 -1.55 0.55 -1.3 0.5 Q0.15 0.5 1.05 1.55 1.75 2.35 1.75 3.0 1.75 3.45 1.55 3.8 L1.5 3.9 M1.1 -0.1 Q1.35 -0.15 1.55 -0.3 L1.75 -0.55 2.15 -1.0 Q2.4 -1.3 2.55 -1.55 L2.6 -1.15 Q2.2 -0.5 1.95 -0.2 L1.85 -0.1 Q1.55 0.2 1.4 0.2 1.1 0.2 0.7 0.0 0.9 -0.05 1.1 -0.1 M2.15 0.15 L2.25 0.1 Q2.4 0.0 2.4 -0.05 L2.4 -0.15 2.65 -0.5 Q2.75 -0.2 2.75 0.0 2.75 0.4 2.35 0.4 L2.15 0.35 2.05 0.3 2.15 0.15" fill="#c7a36d" fill-rule="evenodd" stroke="none"/>
    <path d="M-2.9 4.2 L-2.75 4.05 Q-2.55 4.45 -2.25 4.45 L-2.25 4.5 -2.1 4.6 Q-1.6 4.9 -0.95 4.9 0.85 4.9 2.05 4.2 2.6 3.8 3.7 2.6 L3.75 2.6 3.75 2.75 3.8 2.8 3.35 3.3 Q2.8 3.9 2.25 4.3 0.8 5.4 -0.25 6.05 L0.1 6.1 Q0.7 6.1 1.45 5.6 L1.55 5.5 1.05 6.0 1.55 5.8 1.35 5.85 0.85 6.15 Q0.7 6.2 0.45 6.3 -0.1 6.5 -0.55 6.5 L-0.65 6.5 -1.4 6.15 -2.15 5.75 -2.7 5.15 -2.85 5.05 -3.05 4.8 -3.1 4.75 -3.1 4.6 -2.85 4.9 Q-2.05 5.95 -1.45 5.95 L-1.15 5.9 -0.75 5.8 Q-1.55 5.55 -2.3 4.65 -2.55 4.3 -2.8 4.1 L-2.9 4.2 M3.9 3.45 L3.85 3.5 3.85 3.55 3.9 3.35 3.9 3.45" fill="#b00000" fill-rule="evenodd" stroke="none"/>
    <path d="M-2.9 4.2 L-2.8 4.1 Q-2.55 4.3 -2.3 4.65 -1.55 5.55 -0.75 5.8 L-1.15 5.9 -1.45 5.95 Q-2.05 5.95 -2.85 4.9 L-3.1 4.6 -3.05 4.55 -2.9 4.2 M-2.85 5.05 L-2.7 5.15 -2.15 5.75 -1.4 6.15 -0.65 6.5 Q-1.55 6.45 -2.45 5.5 L-2.85 5.05 M0.85 6.15 L1.35 5.85 1.55 5.8 2.8 4.9 2.8 4.85 2.85 4.85 3.0 4.7 3.15 4.5 3.45 4.2 3.8 3.6 3.85 3.55 3.85 3.5 3.9 3.45 3.9 3.55 Q3.9 3.8 3.65 4.3 3.3 4.95 2.8 5.55 1.35 7.2 -0.4 7.2 -1.05 7.2 -2.1 6.65 -3.2 6.05 -3.2 5.75 L-3.15 5.1 Q-3.0 5.4 -2.7 5.7 -1.7 6.75 -0.6 6.75 -0.05 6.75 0.35 6.5 0.95 6.2 1.1 6.2 L1.05 6.15 0.85 6.15 M1.55 5.5 L1.45 5.6 Q0.7 6.1 0.1 6.1 L-0.25 6.05 Q0.8 5.4 2.25 4.3 2.8 3.9 3.35 3.3 L3.8 2.8 3.8 3.0 3.65 3.25 1.55 5.5" fill="#600000" fill-rule="evenodd" stroke="none"/>
  </g>
</svg>
