<?xml version="1.0" encoding="UTF-8" standalone="no"?>
<svg xmlns:ffdec="https://www.free-decompiler.com/flash" xmlns:xlink="http://www.w3.org/1999/xlink" ffdec:objectType="shape" height="7.0px" width="10.1px" xmlns="http://www.w3.org/2000/svg">
  <g transform="matrix(1.0, 0.0, 0.0, 1.0, 5.05, 3.5)">
    <path d="M0.9 -2.7 L0.85 -2.7 0.5 -2.85 0.45 -2.85 0.35 -2.9 0.4 -2.5 Q0.7 -1.95 0.9 -1.2 1.35 0.3 1.35 1.5 L1.35 1.8 Q1.55 1.7 1.95 1.9 L2.15 1.85 3.5 2.05 Q4.2 2.05 4.55 1.5 4.75 1.2 4.75 0.95 4.75 0.35 4.4 -0.2 4.1 -0.75 3.4 -1.3 2.45 -2.05 0.9 -2.7 M0.35 -2.95 Q1.75 -2.8 3.3 -1.7 5.05 -0.45 5.05 0.55 5.05 2.45 3.45 2.45 L2.6 2.25 Q2.05 2.1 1.9 2.05 1.65 2.05 1.55 2.1 1.45 2.2 1.35 2.4 1.1 2.8 0.2 2.8 L-0.05 2.75 Q-0.3 2.7 -0.55 2.65 L-0.55 2.6 -0.75 2.6 Q-0.8 2.9 -1.35 3.2 -1.95 3.5 -2.35 3.5 -3.0 3.5 -3.5 3.05 -3.95 2.65 -3.95 2.35 L-3.95 2.3 -3.9 2.3 -3.8 1.65 -3.9 1.65 Q-4.65 1.65 -4.9 1.25 -5.0 1.1 -5.0 0.7 L-4.95 0.7 -5.05 0.5 Q-5.05 0.3 -4.5 0.2 L-3.95 0.15 Q-3.7 -0.1 -3.6 -0.35 L-3.7 -0.9 Q-3.8 -1.4 -3.75 -1.65 -3.7 -1.9 -3.55 -2.0 L-3.6 -2.1 -3.6 -2.95 -3.5 -3.1 Q-3.4 -3.4 -3.1 -3.5 -2.95 -3.5 -1.3 -3.5 -0.05 -3.5 0.15 -3.4 0.3 -3.3 0.35 -2.95 M-0.7 1.3 L-0.7 1.35 -0.8 1.7 -0.85 1.75 -0.85 1.65 Q-0.8 2.1 -0.5 2.35 L-0.15 2.35 0.2 2.4 0.75 2.35 1.1 1.95 1.1 1.75 1.05 1.55 Q1.05 0.5 0.65 -1.05 L0.3 -2.0 Q0.1 -2.3 0.05 -2.5 L-0.1 -2.95 Q-0.2 -3.0 -0.4 -3.05 L-1.2 -3.1 -2.1 -3.2 -2.5 -3.3 -2.7 -3.3 Q-3.1 -3.3 -3.25 -3.1 L-3.25 -3.0 Q-2.3 -3.5 -1.45 -1.65 -1.1 -0.95 -0.85 0.0 L-0.7 0.7 -0.7 0.8 -0.65 1.0 -0.7 1.3 M-3.25 -2.15 L-2.35 -2.15 Q-2.75 -2.5 -3.3 -2.75 L-3.3 -2.45 -3.25 -2.15 M-3.2 -1.85 Q-3.25 -1.7 -3.3 -1.5 L-3.3 0.95 Q-3.4 1.15 -3.45 1.6 -3.55 2.0 -3.55 2.25 L-3.55 2.4 -3.35 2.55 -3.25 2.6 Q-2.95 2.95 -2.5 2.95 L-2.15 2.9 -1.95 2.9 -1.4 2.65 -1.4 2.6 -1.35 2.6 -1.35 2.55 -1.0 2.3 -1.0 1.6 -0.95 1.25 -1.1 0.6 Q-1.2 -0.25 -1.35 -0.65 -1.55 -1.4 -2.15 -1.95 L-2.35 -1.95 -2.35 -2.0 -2.65 -2.0 -2.75 -2.05 Q-3.05 -2.05 -3.2 -1.85 M-4.65 1.05 L-4.65 1.15 -4.7 1.15 Q-4.7 1.2 -4.35 1.3 -4.0 1.35 -3.8 1.45 L-3.75 1.2 -3.7 1.15 -3.65 0.65 Q-3.55 0.25 -3.55 -0.05 -3.7 0.2 -4.0 0.45 -4.55 0.8 -4.65 1.05" fill="#111111" fill-rule="evenodd" stroke="none"/>
    <path d="M4.4 -0.2 Q4.15 0.05 3.85 0.2 3.2 0.55 2.15 0.55 L1.6 0.5 Q1.6 -1.35 0.9 -2.7 2.45 -2.05 3.4 -1.3 4.1 -0.75 4.4 -0.2 M3.65 0.9 L4.5 0.8 Q4.5 1.05 4.05 1.25 3.5 1.5 2.3 1.5 L2.15 1.45 2.25 1.05 3.65 0.9" fill="#b00000" fill-rule="evenodd" stroke="none"/>
    <path d="M-0.4 -3.05 L-0.15 -2.35 Q0.25 -1.4 0.25 -0.75 0.25 -0.1 -0.35 0.8 -0.4 0.45 -0.6 -0.15 -0.95 -1.25 -1.4 -2.05 -1.95 -3.05 -2.5 -3.3 L-2.1 -3.2 -1.2 -3.1 -0.4 -3.05 M-0.7 0.8 Q-0.65 1.0 -0.65 1.05 L-0.65 1.2 -0.7 1.3 -0.65 1.0 -0.7 0.8 M0.15 0.85 L0.55 0.1 Q0.65 0.3 0.8 0.8 0.9 1.2 0.9 1.35 L0.9 1.5 Q0.85 1.55 0.8 1.55 L-0.25 1.65 -0.25 1.6 0.15 0.85" fill="#80c0f0" fill-rule="evenodd" stroke="none"/>
    <path d="M-0.4 -3.05 Q-0.2 -3.0 -0.1 -2.95 L0.05 -2.5 Q0.1 -2.3 0.3 -2.0 L0.65 -1.05 Q1.05 0.5 1.05 1.55 L1.1 1.75 1.1 1.95 0.75 2.35 0.2 2.4 -0.15 2.35 -0.5 2.35 Q-0.8 2.1 -0.85 1.65 L-0.85 1.75 -0.8 1.7 -0.7 1.35 -0.7 1.3 -0.65 1.2 -0.65 1.05 Q-0.65 1.0 -0.7 0.8 L-0.7 0.7 -0.85 0.0 Q-1.1 -0.95 -1.45 -1.65 -2.3 -3.5 -3.25 -3.0 L-3.25 -3.1 Q-3.1 -3.3 -2.7 -3.3 L-2.5 -3.3 Q-1.95 -3.05 -1.4 -2.05 -0.95 -1.25 -0.6 -0.15 -0.4 0.45 -0.35 0.8 0.25 -0.1 0.25 -0.75 0.25 -1.4 -0.15 -2.35 L-0.4 -3.05 M0.15 0.85 L-0.25 1.6 -0.25 1.65 0.8 1.55 Q0.85 1.55 0.9 1.5 L0.9 1.35 Q0.9 1.2 0.8 0.8 0.65 0.3 0.55 0.1 L0.15 0.85 M-3.25 -2.15 L-3.3 -2.45 -3.3 -2.75 Q-2.75 -2.5 -2.35 -2.15 L-3.25 -2.15" fill="#0070e0" fill-rule="evenodd" stroke="none"/>
    <path d="M4.4 -0.2 Q4.75 0.35 4.75 0.95 4.75 1.2 4.55 1.5 4.2 2.05 3.5 2.05 L2.15 1.85 1.95 1.9 Q1.55 1.7 1.35 1.8 L1.35 1.5 Q1.35 0.3 0.9 -1.2 0.7 -1.95 0.4 -2.5 L0.35 -2.9 0.45 -2.85 0.5 -2.85 0.85 -2.7 0.9 -2.7 Q1.6 -1.35 1.6 0.5 L2.15 0.55 Q3.2 0.55 3.85 0.2 4.15 0.05 4.4 -0.2 M3.65 0.9 L2.25 1.05 2.15 1.45 2.3 1.5 Q3.5 1.5 4.05 1.25 4.5 1.05 4.5 0.8 L3.65 0.9" fill="#600000" fill-rule="evenodd" stroke="none"/>
    <path d="M-3.35 2.55 L-3.55 2.4 -3.55 2.25 Q-3.55 2.0 -3.45 1.6 -3.4 1.15 -3.3 0.95 L-3.3 -1.5 Q-3.25 -1.7 -3.2 -1.85 -2.9 -1.6 -2.65 -1.35 L-2.65 -1.4 -2.6 -1.45 Q-2.2 -1.05 -1.8 -0.2 -1.4 0.7 -1.4 1.2 -1.4 1.4 -1.5 1.6 L-2.55 2.7 -2.5 2.55 Q-2.4 2.35 -2.4 2.3 -2.4 2.15 -2.45 2.05 L-2.5 2.0 Q-2.4 1.55 -2.4 1.45 L-2.45 1.3 -2.45 1.25 Q-2.6 1.3 -2.75 1.7 L-2.8 1.85 -2.85 1.85 Q-2.75 1.5 -2.55 1.15 -2.75 1.0 -2.95 1.6 L-3.1 2.0 Q-3.2 2.1 -3.3 2.3 L-3.35 2.55 M-3.65 0.65 Q-4.0 0.75 -4.55 1.0 L-4.65 1.05 Q-4.55 0.8 -4.0 0.45 -3.7 0.2 -3.55 -0.05 -3.55 0.25 -3.65 0.65" fill="#c7a36d" fill-rule="evenodd" stroke="none"/>
    <path d="M-3.35 2.55 L-3.3 2.3 Q-3.2 2.1 -3.1 2.0 L-2.95 1.6 Q-2.75 1.0 -2.55 1.15 -2.75 1.5 -2.85 1.85 L-2.8 1.85 -2.75 1.7 Q-2.6 1.3 -2.45 1.25 L-2.45 1.3 -2.4 1.45 Q-2.4 1.55 -2.5 2.0 L-2.45 2.05 Q-2.4 2.15 -2.4 2.3 -2.4 2.35 -2.5 2.55 L-2.55 2.7 -1.5 1.6 Q-1.4 1.4 -1.4 1.2 -1.4 0.7 -1.8 -0.2 -2.2 -1.05 -2.6 -1.45 L-2.65 -1.4 -2.65 -1.35 Q-2.9 -1.6 -3.2 -1.85 -3.05 -2.05 -2.75 -2.05 L-2.65 -2.0 -2.35 -2.0 -2.35 -1.95 -2.15 -1.95 Q-1.55 -1.4 -1.35 -0.65 -1.2 -0.25 -1.1 0.6 L-0.95 1.25 -1.0 1.6 -1.0 2.3 -1.35 2.55 -1.35 2.6 -1.4 2.6 -1.4 2.65 -1.95 2.9 -2.15 2.9 -2.5 2.95 Q-2.95 2.95 -3.25 2.6 L-3.35 2.55 M-3.65 0.65 L-3.7 1.15 -3.75 1.2 -3.8 1.45 Q-4.0 1.35 -4.35 1.3 -4.7 1.2 -4.7 1.15 L-4.65 1.15 -4.65 1.05 -4.55 1.0 Q-4.0 0.75 -3.65 0.65" fill="#a9854f" fill-rule="evenodd" stroke="none"/>
  </g>
</svg>
