<?xml version="1.0" encoding="UTF-8" standalone="no"?>
<svg xmlns:ffdec="https://www.free-decompiler.com/flash" xmlns:xlink="http://www.w3.org/1999/xlink" ffdec:objectType="shape" height="6.4px" width="6.4px" xmlns="http://www.w3.org/2000/svg">
  <g transform="matrix(1.0, 0.0, 0.0, 1.0, 3.2, 3.2)">
    <path d="M-2.85 -2.2 L-2.85 -2.65 -2.8 -2.8 Q-2.7 -2.9 -2.55 -2.9 L-2.5 -2.9 Q-2.3 -2.9 -2.05 -2.75 -1.25 -2.35 0.0 -1.15 1.05 -0.05 2.0 1.1 2.65 1.95 2.8 2.35 2.1 2.0 1.35 1.4 -0.2 0.25 -0.6 0.0 -1.2 -0.35 -1.65 -0.75 -1.85 -1.0 -2.25 -1.45 L-2.85 -2.2 M0.2 0.8 Q0.25 0.8 0.3 0.85 L0.2 0.8 M-1.95 -0.5 Q-2.45 -1.1 -2.45 -1.2 L-2.45 -1.25 Q-1.4 -0.15 -0.45 0.6 0.85 1.7 2.4 2.5 1.7 2.35 0.15 1.4 -1.45 0.45 -1.45 0.15 -1.45 0.05 -1.95 -0.5" fill="#b00000" fill-rule="evenodd" stroke="none"/>
    <path d="M-1.95 -2.95 Q-0.65 -2.5 1.05 -0.65 1.95 0.35 2.55 1.3 3.2 2.35 3.2 2.9 3.2 3.0 3.05 3.1 2.95 3.2 2.7 3.2 L1.7 3.1 Q-0.05 2.85 -1.6 1.05 -2.3 0.25 -2.75 -0.65 -3.2 -1.55 -3.2 -2.1 -3.2 -3.05 -2.75 -3.15 L-2.6 -3.2 Q-2.4 -3.2 -2.05 -3.05 L-1.95 -2.95 M2.8 2.35 Q2.65 1.95 2.0 1.1 1.05 -0.05 0.0 -1.15 -1.25 -2.35 -2.05 -2.75 -2.3 -2.9 -2.5 -2.9 L-2.55 -2.9 Q-2.7 -2.9 -2.8 -2.8 L-2.85 -2.65 -2.85 -2.2 Q-2.85 -1.8 -2.7 -1.4 L-2.5 -1.0 -1.65 0.4 Q-1.1 1.0 -0.35 1.6 1.15 2.75 2.25 2.75 L2.55 2.75 2.9 2.65 2.9 2.6 2.8 2.35" fill="#111111" fill-rule="evenodd" stroke="none"/>
    <path d="M-2.85 -2.2 L-2.25 -1.45 Q-1.85 -1.0 -1.65 -0.75 -1.2 -0.35 -0.6 0.0 -0.2 0.25 1.35 1.4 2.1 2.0 2.8 2.35 L2.9 2.6 2.9 2.65 2.55 2.75 2.25 2.75 Q1.15 2.75 -0.35 1.6 -1.1 1.0 -1.65 0.4 L-2.5 -1.0 -2.7 -1.4 Q-2.85 -1.8 -2.85 -2.2 M-1.95 -0.5 Q-1.45 0.05 -1.45 0.15 -1.45 0.45 0.15 1.4 1.7 2.35 2.4 2.5 0.85 1.7 -0.45 0.6 -1.4 -0.15 -2.45 -1.25 L-2.45 -1.2 Q-2.45 -1.1 -1.95 -0.5 M0.2 0.8 L0.3 0.85 Q0.25 0.8 0.2 0.8" fill="#600000" fill-rule="evenodd" stroke="none"/>
  </g>
</svg>
