<?xml version="1.0" encoding="UTF-8" standalone="no"?>
<svg xmlns:ffdec="https://www.free-decompiler.com/flash" xmlns:xlink="http://www.w3.org/1999/xlink" ffdec:objectType="shape" height="13.3px" width="13.75px" xmlns="http://www.w3.org/2000/svg">
  <g transform="matrix(1.0, 0.0, 0.0, 1.0, 4.65, 6.65)">
    <path d="M8.5 -5.95 Q8.15 -6.25 7.65 -6.3 L6.5 -6.3 5.5 -6.2 4.8 -6.15 4.2 -6.2 3.3 -6.3 3.05 -6.3 1.55 -6.25 Q0.4 -6.1 0.15 -5.3 0.1 -5.1 -0.05 -4.85 L-0.1 -4.7 -0.3 -4.45 Q0.3 -4.7 1.25 -5.0 3.65 -5.8 4.65 -5.75 L4.6 -5.75 4.2 -5.65 4.15 -5.6 1.1 -4.65 0.6 -4.45 0.65 -4.5 0.5 -4.4 -0.25 -4.1 -0.4 -4.05 -0.7 -3.9 -1.0 -3.55 -0.95 -3.5 0.35 -3.45 0.3 -3.45 0.4 -3.5 0.55 -3.5 Q1.3 -3.5 4.3 -3.05 L4.7 -3.0 4.85 -2.95 5.05 -2.95 5.65 -2.85 6.8 -2.75 7.3 -2.7 Q8.05 -2.7 8.35 -2.85 L8.45 -2.9 8.6 -3.8 8.75 -4.45 8.85 -5.15 Q8.85 -5.4 8.75 -5.65 L8.65 -5.8 8.5 -5.95 M4.8 -6.5 L6.45 -6.6 7.7 -6.6 Q8.55 -6.4 8.9 -5.95 9.1 -5.65 9.1 -5.15 9.1 -4.85 8.9 -4.05 8.7 -3.35 8.7 -2.95 L8.7 -2.85 Q8.7 -2.65 8.4 -2.5 L8.25 -2.45 Q7.8 -2.2 6.75 -1.75 4.9 -0.95 4.45 -0.95 L4.4 -0.95 3.85 -0.9 3.8 -0.6 3.85 -0.45 Q3.85 -0.25 3.6 0.4 3.65 0.45 3.65 0.65 L3.65 0.85 Q3.65 1.3 3.45 2.05 3.15 3.1 2.6 4.0 0.85 6.65 -2.85 6.65 -3.75 6.65 -4.25 6.2 -4.65 5.85 -4.65 5.6 -4.65 5.3 -4.25 5.25 -3.85 5.15 -3.55 5.05 L-3.55 5.0 Q-2.9 4.45 -2.45 3.85 -2.3 3.6 -2.05 2.85 -1.95 2.6 -1.85 2.45 L-1.95 2.25 Q-2.05 2.2 -2.1 2.0 L-2.2 2.0 Q-2.3 2.0 -2.5 1.4 L-3.05 -0.25 Q-3.15 -0.65 -3.15 -0.95 -3.15 -1.55 -2.55 -2.1 L-1.35 -3.15 Q-1.45 -3.25 -1.45 -3.45 L-1.25 -3.8 -1.2 -3.85 -0.85 -4.3 Q-0.25 -5.2 -0.15 -5.5 0.25 -6.6 1.75 -6.65 L2.75 -6.55 3.85 -6.6 4.8 -6.5 M2.2 -2.6 L2.75 -2.8 1.7 -2.95 1.65 -2.9 1.4 -2.8 Q0.25 -2.3 -1.25 -1.8 L-1.75 -1.55 Q-2.1 -1.35 -2.25 -1.15 -2.6 -0.75 -2.6 -0.05 L-2.6 0.25 -2.45 0.6 -2.3 1.1 -2.3 0.95 Q-2.3 0.25 -2.1 -0.3 -1.95 -0.8 -1.65 -1.05 -1.5 -1.25 -1.3 -1.4 -1.05 -1.55 -0.85 -1.65 L-0.7 -1.75 -0.75 -1.75 -0.4 -1.9 Q0.0 -2.0 0.95 -2.2 1.3 -2.25 2.2 -2.6 M-2.15 -2.0 L-2.25 -1.9 Q-2.85 -1.35 -2.85 -0.8 -2.85 -0.65 -2.8 -0.4 -2.75 -0.85 -2.55 -1.2 -2.3 -1.6 -1.7 -1.9 -1.2 -2.15 -0.15 -2.45 L0.8 -2.75 1.4 -2.95 1.3 -2.95 0.25 -3.0 -0.65 -3.05 Q-1.05 -3.0 -1.25 -3.1 L-1.4 -2.8 Q-1.7 -2.4 -2.15 -2.0 M1.15 -0.3 L1.25 -0.25 0.6 -0.2 0.5 -0.2 -0.2 -0.2 Q-0.35 -0.25 -0.35 -0.4 L-0.35 -0.45 Q-0.25 -0.6 0.4 -0.75 L1.3 -0.95 2.95 -1.15 3.1 -1.2 3.15 -1.2 3.65 -1.25 3.7 -1.25 Q4.75 -1.35 6.1 -1.85 L7.45 -2.4 7.3 -2.4 Q5.8 -2.4 4.15 -2.65 4.1 -2.6 3.9 -2.6 L2.95 -2.75 Q2.4 -2.3 1.15 -1.9 -0.6 -1.3 -1.2 -0.85 -1.65 -0.55 -1.8 -0.15 -1.95 0.4 -1.95 0.95 L-1.85 1.45 -1.85 1.5 Q-1.7 1.5 -1.65 1.7 L-1.65 2.2 -1.6 2.15 -1.6 2.4 -1.55 2.35 Q-1.45 2.35 -1.45 2.5 -1.4 2.55 -1.4 2.6 -1.1 2.8 -0.45 2.8 0.95 2.8 1.95 2.25 2.4 2.0 2.75 1.6 L3.3 0.65 3.25 0.7 Q3.3 0.4 3.5 -0.2 L3.55 -0.35 3.55 -0.55 3.6 -0.85 3.6 -0.9 3.2 -0.8 2.4 0.0 1.3 1.0 1.25 1.0 1.85 0.7 Q2.3 0.5 2.55 0.4 L2.6 0.45 1.85 1.0 Q1.2 1.5 1.05 1.5 L0.9 1.5 0.8 1.3 Q0.8 0.9 1.9 0.05 L2.8 -0.7 2.95 -0.75 1.6 -0.65 0.75 -0.55 0.55 -0.5 0.0 -0.5 -0.15 -0.45 0.4 -0.5 0.55 -0.5 0.95 -0.4 1.15 -0.3 M3.7 -0.9 L3.7 -0.8 3.75 -0.9 3.7 -0.9 M-3.7 5.45 Q-3.9 5.6 -4.1 5.65 -4.05 5.8 -3.8 5.95 -3.45 6.2 -2.85 6.2 0.0 6.2 1.6 4.6 2.3 3.95 2.75 3.05 3.1 2.35 3.35 1.5 3.05 1.8 2.6 2.15 1.3 3.1 -0.95 3.1 -1.25 3.1 -1.5 2.95 L-1.5 3.05 Q-1.75 3.55 -2.35 4.3 L-2.65 4.6 -3.15 5.1 -3.3 5.2 -2.4 5.05 Q-0.8 4.8 -0.4 4.8 L-0.4 4.85 -0.45 4.85 Q-0.6 5.0 -0.95 5.1 -1.4 5.3 -2.0 5.35 L-3.7 5.45" fill="#111111" fill-rule="evenodd" stroke="none"/>
    <path d="M4.2 -6.2 L2.85 -5.95 Q2.15 -5.75 0.7 -5.15 L-0.05 -4.85 Q0.1 -5.1 0.15 -5.3 0.4 -6.1 1.55 -6.25 L3.05 -6.3 3.3 -6.3 4.2 -6.2 M4.15 -5.6 Q5.95 -6.0 7.75 -6.0 L8.35 -5.95 8.5 -5.95 8.65 -5.8 8.75 -5.65 Q8.1 -5.2 7.95 -5.15 7.15 -4.85 6.7 -4.8 L5.5 -4.6 1.35 -4.25 -0.3 -4.05 0.6 -4.45 1.1 -4.65 4.15 -5.6 M2.65 -3.75 L2.7 -3.75 Q4.9 -3.9 6.25 -4.15 7.25 -4.3 8.5 -4.7 8.75 -4.2 7.85 -3.75 6.95 -3.3 5.8 -3.3 5.3 -3.3 4.05 -3.5 L2.65 -3.75 M1.4 -2.8 L1.25 -2.75 2.2 -2.6 Q1.3 -2.25 0.95 -2.2 0.0 -2.0 -0.4 -1.9 L-0.75 -1.75 -1.7 -1.5 Q-1.75 -1.5 -1.75 -1.55 L-1.25 -1.8 Q0.25 -2.3 1.4 -2.8 M-1.4 -2.8 Q-1.25 -2.75 -0.85 -2.75 L-0.3 -2.75 Q-1.15 -2.5 -1.65 -2.25 L-2.15 -2.0 Q-1.7 -2.4 -1.4 -2.8" fill="#b00000" fill-rule="evenodd" stroke="none"/>
    <path d="M0.5 -1.4 L0.35 -1.35 0.35 -1.4 0.5 -1.4 M0.5 -0.2 L0.6 -0.2 1.25 -0.25 1.15 -0.3 1.2 -0.3 2.15 -0.5 2.8 -0.7 1.9 0.05 Q0.8 0.9 0.8 1.3 L0.9 1.5 0.85 1.45 Q0.85 1.65 1.1 1.65 1.6 1.65 2.85 0.4 L3.0 0.25 2.8 0.7 Q2.15 2.2 0.65 2.2 L-0.45 2.2 Q-0.9 2.2 -1.05 2.1 -1.4 1.85 -1.4 0.4 L-1.35 -0.15 Q-1.05 -0.05 -0.45 -0.05 -0.2 -0.05 -0.1 -0.1 L-0.05 -0.15 0.5 -0.2 M1.5 -1.7 L1.2 -1.7 1.4 -1.8 Q2.9 -2.4 3.1 -2.4 L3.5 -2.4 3.95 -2.3 5.3 -2.05 4.15 -1.85 3.15 -1.7 1.5 -1.7" fill="#80c0f0" fill-rule="evenodd" stroke="none"/>
    <path d="M-1.5 3.05 L-1.55 3.15 Q-1.3 3.3 -0.8 3.4 L0.2 3.5 Q1.05 3.5 1.8 3.1 L2.2 2.85 2.45 2.9 1.85 3.85 Q1.3 4.55 0.65 5.0 -0.6 5.8 -2.3 5.8 -3.25 5.8 -3.7 5.5 L-3.7 5.45 -2.0 5.35 Q-1.4 5.3 -0.95 5.1 -0.6 5.0 -0.45 4.85 L-0.2 4.85 Q0.15 4.75 0.15 4.5 0.15 4.25 -1.75 4.45 L-2.65 4.6 -2.35 4.3 Q-1.75 3.55 -1.5 3.05" fill="#9c9581" fill-rule="evenodd" stroke="none"/>
    <path d="M-3.7 5.45 L-3.7 5.5 Q-3.25 5.8 -2.3 5.8 -0.6 5.8 0.65 5.0 1.3 4.55 1.85 3.85 L2.45 2.9 2.2 2.85 1.8 3.1 Q1.05 3.5 0.2 3.5 L-0.8 3.4 Q-1.3 3.3 -1.55 3.15 L-1.5 3.05 -1.5 2.95 Q-1.25 3.1 -0.95 3.1 1.3 3.1 2.6 2.15 3.05 1.8 3.35 1.5 3.1 2.35 2.75 3.05 2.3 3.95 1.6 4.6 0.0 6.2 -2.85 6.2 -3.45 6.2 -3.8 5.95 -4.05 5.8 -4.1 5.65 -3.9 5.6 -3.7 5.45 M-2.65 4.6 L-1.75 4.45 Q0.15 4.25 0.15 4.5 0.15 4.75 -0.2 4.85 L-0.45 4.85 -0.4 4.85 -0.4 4.8 Q-0.8 4.8 -2.4 5.05 L-3.3 5.2 -3.15 5.1 -2.65 4.6" fill="#666154" fill-rule="evenodd" stroke="none"/>
    <path d="M0.5 -1.4 L0.35 -1.4 0.35 -1.35 0.5 -1.4 M1.15 -0.3 L0.95 -0.4 0.55 -0.5 0.4 -0.5 -0.15 -0.45 0.0 -0.5 0.55 -0.5 0.75 -0.55 1.6 -0.65 2.95 -0.75 2.8 -0.7 2.15 -0.5 1.2 -0.3 1.15 -0.3 M0.9 1.5 L1.05 1.5 Q1.2 1.5 1.85 1.0 L2.6 0.45 2.55 0.4 Q2.3 0.5 1.85 0.7 L1.25 1.0 1.3 1.0 2.4 0.0 3.2 -0.8 3.6 -0.9 3.6 -0.85 3.55 -0.55 3.55 -0.35 3.5 -0.2 Q3.3 0.4 3.25 0.7 L3.3 0.65 2.75 1.6 Q2.4 2.0 1.95 2.25 0.95 2.8 -0.45 2.8 -1.1 2.8 -1.4 2.6 -1.4 2.55 -1.45 2.5 -1.45 2.35 -1.55 2.35 L-1.6 2.4 -1.6 2.15 -1.65 2.2 -1.65 1.7 Q-1.7 1.5 -1.85 1.5 L-1.85 1.45 -1.95 0.95 Q-1.95 0.4 -1.8 -0.15 -1.65 -0.55 -1.2 -0.85 -0.6 -1.3 1.15 -1.9 2.4 -2.3 2.95 -2.75 L3.9 -2.6 Q4.1 -2.6 4.15 -2.65 5.8 -2.4 7.3 -2.4 L7.45 -2.4 6.1 -1.85 Q4.75 -1.35 3.7 -1.25 L3.65 -1.25 3.15 -1.2 3.1 -1.2 2.95 -1.15 1.3 -0.95 0.4 -0.75 Q-0.25 -0.6 -0.35 -0.45 L-0.35 -0.4 Q-0.35 -0.25 -0.2 -0.2 L0.5 -0.2 -0.05 -0.15 -0.1 -0.1 Q-0.2 -0.05 -0.45 -0.05 -1.05 -0.05 -1.35 -0.15 L-1.4 0.4 Q-1.4 1.85 -1.05 2.1 -0.9 2.2 -0.45 2.2 L0.65 2.2 Q2.15 2.2 2.8 0.7 L3.0 0.25 2.85 0.4 Q1.6 1.65 1.1 1.65 0.85 1.65 0.85 1.45 L0.9 1.5 M1.5 -1.7 L3.15 -1.7 4.15 -1.85 5.3 -2.05 3.95 -2.3 3.5 -2.4 3.1 -2.4 Q2.9 -2.4 1.4 -1.8 L1.2 -1.7 1.5 -1.7" fill="#0070e0" fill-rule="evenodd" stroke="none"/>
    <path d="M4.2 -6.2 L4.8 -6.15 5.5 -6.2 6.5 -6.3 7.65 -6.3 Q8.15 -6.25 8.5 -5.95 L8.35 -5.95 7.75 -6.0 Q5.95 -6.0 4.15 -5.6 L4.2 -5.65 4.6 -5.75 4.65 -5.75 Q3.65 -5.8 1.25 -5.0 0.3 -4.7 -0.3 -4.45 L-0.1 -4.7 -0.05 -4.85 0.7 -5.15 Q2.15 -5.75 2.85 -5.95 L4.2 -6.2 M8.75 -5.65 Q8.85 -5.4 8.85 -5.15 L8.75 -4.45 8.6 -3.8 8.45 -2.9 8.35 -2.85 Q8.05 -2.7 7.3 -2.7 L6.8 -2.75 5.65 -2.85 5.05 -2.95 4.85 -2.95 4.7 -3.0 4.3 -3.05 Q1.3 -3.5 0.55 -3.5 L0.4 -3.5 0.3 -3.45 0.35 -3.45 -0.95 -3.5 -1.0 -3.55 -0.7 -3.9 -0.4 -4.05 -0.25 -4.1 0.5 -4.4 0.65 -4.5 0.6 -4.45 -0.3 -4.05 1.35 -4.25 5.5 -4.6 6.7 -4.8 Q7.15 -4.85 7.95 -5.15 8.1 -5.2 8.75 -5.65 M2.65 -3.75 L4.05 -3.5 Q5.3 -3.3 5.8 -3.3 6.95 -3.3 7.85 -3.75 8.75 -4.2 8.5 -4.7 7.25 -4.3 6.25 -4.15 4.9 -3.9 2.7 -3.75 L2.65 -3.75 M1.4 -2.8 L1.65 -2.9 1.7 -2.95 2.75 -2.8 2.2 -2.6 1.25 -2.75 1.4 -2.8 M-0.75 -1.75 L-0.7 -1.75 -0.85 -1.65 Q-1.05 -1.55 -1.3 -1.4 -1.5 -1.25 -1.65 -1.05 -1.95 -0.8 -2.1 -0.3 -2.3 0.25 -2.3 0.95 L-2.3 1.1 -2.45 0.6 -2.6 0.25 -2.6 -0.05 Q-2.6 -0.75 -2.25 -1.15 -2.1 -1.35 -1.75 -1.55 -1.75 -1.5 -1.7 -1.5 L-0.75 -1.75 M-1.4 -2.8 L-1.25 -3.1 Q-1.05 -3.0 -0.65 -3.05 L0.25 -3.0 1.3 -2.95 1.4 -2.95 0.8 -2.75 -0.15 -2.45 Q-1.2 -2.15 -1.7 -1.9 -2.3 -1.6 -2.55 -1.2 -2.75 -0.85 -2.8 -0.4 -2.85 -0.65 -2.85 -0.8 -2.85 -1.35 -2.25 -1.9 L-2.15 -2.0 -1.65 -2.25 Q-1.15 -2.5 -0.3 -2.75 L-0.85 -2.75 Q-1.25 -2.75 -1.4 -2.8" fill="#600000" fill-rule="evenodd" stroke="none"/>
  </g>
</svg>
