<?xml version="1.0" encoding="UTF-8" standalone="no"?>
<svg xmlns:ffdec="https://www.free-decompiler.com/flash" xmlns:xlink="http://www.w3.org/1999/xlink" ffdec:objectType="shape" height="11.7px" width="8.0px" xmlns="http://www.w3.org/2000/svg">
  <g transform="matrix(1.0, 0.0, 0.0, 1.0, 3.4, 5.85)">
    <path d="M3.25 -4.1 Q3.8 -2.95 4.1 -1.75 4.35 -0.6 4.45 0.85 4.55 1.6 4.6 2.0 L4.6 2.2 Q4.6 3.4 4.0 4.25 3.55 4.85 2.9 5.2 1.85 5.8 0.1 5.8 L0.05 5.8 -0.75 5.85 Q-1.25 5.85 -2.0 5.65 -2.8 5.4 -2.8 5.2 L-2.8 5.1 -2.7 5.0 -3.05 3.75 Q-3.4 2.35 -3.4 2.1 -3.4 0.65 -2.7 -0.95 -1.8 -3.1 -0.15 -3.3 L-0.05 -3.55 -0.05 -3.6 Q-0.05 -3.8 0.9 -5.05 L1.45 -5.75 Q1.65 -5.9 1.9 -5.8 2.15 -5.8 2.4 -5.6 L2.4 -5.65 2.55 -5.4 2.9 -4.9 Q3.1 -4.45 3.25 -4.1 M2.2 -5.1 Q2.0 -5.55 1.8 -5.55 L1.65 -5.5 1.5 -5.35 Q1.85 -5.4 1.85 -4.95 1.85 -4.55 1.05 -2.3 0.4 -0.5 0.1 0.2 -0.75 2.2 -1.0 2.75 -1.55 3.8 -2.15 4.65 L-2.4 4.95 -2.45 4.95 -2.55 5.15 -2.0 5.25 -1.3 5.4 Q-1.3 5.25 -0.4 3.3 L1.05 0.1 Q1.5 -0.9 1.9 -2.55 L2.45 -4.55 2.2 -5.1 M0.8 -4.45 L0.15 -3.35 0.25 -3.35 0.8 -3.3 1.1 -3.2 Q1.45 -4.2 1.65 -4.95 L1.6 -5.05 Q1.45 -5.05 1.2 -4.7 1.0 -4.5 0.8 -4.45 M2.55 -3.95 L2.55 -3.85 Q2.25 -2.3 1.0 1.05 -0.05 3.95 -0.65 5.0 L-0.7 5.1 -0.95 5.45 -0.2 5.45 Q2.8 5.3 3.7 4.05 4.05 3.6 4.2 2.8 L4.3 2.25 4.3 1.7 4.15 0.75 3.85 -0.9 Q3.75 -1.85 3.4 -2.9 L3.35 -2.85 3.1 -3.5 Q2.55 -4.85 2.55 -3.95 M-3.05 2.05 L-2.9 2.6 -2.6 2.85 Q-2.3 3.25 -2.3 3.6 L-2.3 3.65 -2.35 3.65 -2.6 3.6 Q-2.5 4.1 -2.45 4.6 L-2.25 4.2 Q-1.65 3.2 -1.4 2.55 L-0.8 1.3 -0.25 0.1 0.8 -2.45 1.0 -2.95 0.55 -3.05 0.05 -3.05 -0.05 -3.05 -0.2 -2.9 -0.25 -2.95 -0.2 -3.05 Q-1.65 -2.75 -2.45 -0.7 -3.05 0.8 -3.05 2.0 L-3.05 2.05" fill="#111111" fill-rule="evenodd" stroke="none"/>
    <path d="M2.45 -2.55 Q2.45 -2.6 2.5 -2.7 L2.55 -2.9 Q2.55 -2.95 2.65 -3.2 3.6 0.0 3.6 0.5 3.6 1.25 2.3 2.9 0.9 4.75 -0.15 4.85 L-0.1 4.8 1.55 2.7 Q2.45 1.45 2.5 0.6 L1.55 1.8 0.65 2.85 1.7 -0.2 Q2.45 -2.4 2.45 -2.55 M3.75 2.35 Q3.8 2.95 3.65 3.3 3.3 4.4 1.2 4.8 2.25 4.05 2.95 3.15 3.6 2.35 3.8 1.55 3.75 1.75 3.75 2.35" fill="#80c0f0" fill-rule="evenodd" stroke="none"/>
    <path d="M-2.15 4.65 Q-1.55 3.8 -1.0 2.75 -0.75 2.2 0.1 0.2 0.4 -0.5 1.05 -2.3 1.85 -4.55 1.85 -4.95 1.85 -5.4 1.5 -5.35 L1.65 -5.5 1.8 -5.55 Q2.0 -5.55 2.2 -5.1 2.05 -4.85 1.95 -4.4 1.7 -3.3 1.55 -2.8 L0.7 -0.05 0.2 1.25 -0.3 2.6 Q-0.6 3.4 -1.85 4.4 L-2.15 4.65" fill="#b00000" fill-rule="evenodd" stroke="none"/>
    <path d="M-2.15 4.65 L-1.85 4.4 Q-0.6 3.4 -0.3 2.6 L0.2 1.25 0.7 -0.05 1.55 -2.8 Q1.7 -3.3 1.95 -4.4 2.05 -4.85 2.2 -5.1 L2.45 -4.55 1.9 -2.55 Q1.5 -0.9 1.05 0.1 L-0.4 3.3 Q-1.3 5.25 -1.3 5.4 L-2.0 5.25 -2.55 5.15 -2.45 4.95 -2.4 4.95 -2.15 4.65 M0.8 -4.45 Q1.0 -4.5 1.2 -4.7 1.45 -5.05 1.6 -5.05 L1.65 -4.95 Q1.45 -4.2 1.1 -3.2 L0.8 -3.3 0.25 -3.35 0.15 -3.35 0.8 -4.45" fill="#600000" fill-rule="evenodd" stroke="none"/>
    <path d="M2.55 -3.95 Q2.55 -4.85 3.1 -3.5 L3.35 -2.85 3.4 -2.9 Q3.75 -1.85 3.85 -0.9 L4.15 0.75 4.3 1.7 4.3 2.25 4.2 2.8 Q4.05 3.6 3.7 4.05 2.8 5.3 -0.2 5.45 L-0.95 5.45 -0.7 5.1 -0.65 5.0 Q-0.05 3.95 1.0 1.05 2.25 -2.3 2.55 -3.85 L2.55 -3.95 M2.45 -2.55 Q2.45 -2.4 1.7 -0.2 L0.65 2.85 1.55 1.8 2.5 0.6 Q2.45 1.45 1.55 2.7 L-0.1 4.8 -0.15 4.85 Q0.9 4.75 2.3 2.9 3.6 1.25 3.6 0.5 3.6 0.0 2.65 -3.2 2.55 -2.95 2.55 -2.9 L2.5 -2.7 Q2.45 -2.6 2.45 -2.55 M3.75 2.35 Q3.75 1.75 3.8 1.55 3.6 2.35 2.95 3.15 2.25 4.05 1.2 4.8 3.3 4.4 3.65 3.3 3.8 2.95 3.75 2.35" fill="#0070e0" fill-rule="evenodd" stroke="none"/>
    <path d="M0.05 -3.05 L-0.05 -3.05 -0.05 -3.0 Q-0.05 -2.9 0.15 -2.7 0.4 -2.55 0.4 -2.3 0.4 -1.4 -0.4 0.3 -0.8 1.25 -1.5 2.65 L-1.65 1.4 -1.65 1.3 Q-1.65 1.25 -1.65 1.2 L-1.75 1.25 -1.65 0.75 Q-1.75 0.85 -1.8 1.0 L-1.75 0.95 Q-2.1 1.1 -2.1 2.45 L-2.05 2.7 Q-2.35 2.6 -2.7 2.3 L-3.05 2.05 -3.05 2.0 Q-3.05 0.8 -2.45 -0.7 -1.65 -2.75 -0.2 -3.05 L-0.25 -2.95 -0.2 -2.9 -0.05 -3.05 0.05 -3.05" fill="#c7a36d" fill-rule="evenodd" stroke="none"/>
    <path d="M0.05 -3.05 L0.55 -3.05 1.0 -2.95 0.8 -2.45 -0.25 0.1 -0.8 1.3 -1.4 2.55 Q-1.65 3.2 -2.25 4.2 L-2.45 4.6 Q-2.5 4.1 -2.6 3.6 L-2.35 3.65 -2.3 3.65 -2.3 3.6 Q-2.3 3.25 -2.6 2.85 L-2.9 2.6 -3.05 2.05 -2.7 2.3 Q-2.35 2.6 -2.05 2.7 L-2.1 2.45 Q-2.1 1.1 -1.75 0.95 L-1.8 1.0 Q-1.75 0.85 -1.65 0.75 L-1.75 1.25 -1.65 1.2 Q-1.65 1.25 -1.65 1.3 L-1.65 1.4 -1.5 2.65 Q-0.8 1.25 -0.4 0.3 0.4 -1.4 0.4 -2.3 0.4 -2.55 0.15 -2.7 -0.05 -2.9 -0.05 -3.0 L-0.05 -3.05 0.05 -3.05" fill="#a9854f" fill-rule="evenodd" stroke="none"/>
  </g>
</svg>
