<?xml version="1.0" encoding="UTF-8" standalone="no"?>
<svg xmlns:ffdec="https://www.free-decompiler.com/flash" xmlns:xlink="http://www.w3.org/1999/xlink" ffdec:objectType="shape" height="13.4px" width="8.55px" xmlns="http://www.w3.org/2000/svg">
  <g transform="matrix(1.0, 0.0, 0.0, 1.0, 4.0, 6.75)">
    <path d="M4.1 -6.4 Q4.0 -6.45 3.9 -6.45 3.2 -6.45 2.15 -5.65 L1.85 -5.4 Q1.55 -5.15 1.35 -4.85 0.7 -4.0 0.35 -2.65 0.25 -2.4 0.0 -0.5 L0.0 -0.35 -0.3 0.8 -0.5 1.2 -0.75 1.6 -0.8 1.6 -0.55 0.25 Q-1.1 1.3 -2.15 2.25 -1.7 2.45 -1.35 2.75 -1.05 2.95 -0.75 3.25 L-0.75 3.3 Q-0.35 3.7 -0.15 4.1 L0.0 3.8 0.75 2.75 Q1.8 1.15 1.8 0.15 1.8 -0.15 2.15 -1.2 2.35 -1.9 2.8 -3.0 3.25 -4.15 3.55 -4.6 3.8 -5.05 3.95 -5.25 4.3 -5.95 4.3 -6.1 4.3 -6.25 4.2 -6.35 L4.1 -6.4 M4.1 -5.0 L3.85 -4.65 3.55 -4.25 3.3 -3.65 Q2.6 -2.05 2.6 -1.65 L2.4 -0.95 2.2 -0.15 2.05 0.55 1.9 1.0 1.9 1.05 Q1.75 1.8 1.05 2.85 L-0.05 4.35 0.0 4.6 0.1 4.95 Q0.2 5.15 0.2 5.3 L0.15 5.4 0.15 5.45 0.1 5.5 0.1 5.45 -0.2 5.85 Q-0.45 6.05 -0.55 6.1 L-0.6 6.15 -0.6 6.35 Q-0.6 6.5 -0.7 6.55 -0.8 6.65 -1.0 6.65 L-1.2 6.6 -1.25 6.6 Q-1.6 6.6 -1.6 6.4 L-2.05 5.95 -2.7 5.15 -3.25 4.8 Q-3.6 4.6 -3.7 4.45 -4.0 3.85 -4.0 3.65 -3.4 2.35 -3.0 2.15 -2.65 1.95 -2.3 2.35 L-2.25 2.35 Q-2.1 2.05 -1.6 1.45 -1.1 0.75 -0.9 0.45 -0.75 0.15 -0.55 -0.7 L-0.35 -1.25 Q-0.2 -2.15 0.05 -2.8 L0.4 -3.6 0.75 -4.45 Q1.05 -5.05 1.6 -5.55 L1.8 -5.65 Q2.25 -6.05 2.8 -6.3 L3.1 -6.45 Q4.55 -7.15 4.55 -6.15 4.55 -5.8 4.25 -5.3 L4.1 -5.0 M-2.15 2.3 L-2.2 2.35 -1.9 2.45 -2.15 2.3 M-3.5 3.25 L-3.75 3.65 Q-3.75 4.0 -3.35 4.35 L-2.6 4.95 -1.85 5.7 -1.3 6.3 -1.05 6.25 -1.0 6.25 -1.0 6.2 -0.95 6.15 -0.95 5.9 -1.95 3.65 -2.1 3.2 -2.4 2.7 -2.6 2.45 -2.9 2.45 Q-3.05 2.55 -3.5 3.25 M-1.3 3.25 Q-1.7 2.9 -2.1 2.6 L-2.05 2.7 Q-1.9 2.95 -1.75 3.25 L-1.6 3.5 Q-1.2 3.7 -0.65 4.05 L-0.45 4.2 Q-0.85 3.65 -1.3 3.25 M-1.35 4.1 L-1.1 4.75 -1.05 4.8 Q-0.8 5.4 -0.7 5.8 L-0.5 5.6 Q-0.2 5.35 -0.15 5.2 L-1.45 3.9 -1.35 4.1" fill="#111111" fill-rule="evenodd" stroke="none"/>
    <path d="M0.0 -0.35 L0.0 -0.5 Q0.25 -2.4 0.35 -2.65 0.7 -4.0 1.35 -4.85 1.55 -5.15 1.85 -5.4 L2.15 -5.65 Q3.2 -6.45 3.9 -6.45 4.0 -6.45 4.1 -6.4 3.95 -6.2 3.8 -5.7 3.65 -5.3 3.35 -4.75 L2.85 -3.85 Q2.3 -2.5 1.95 -1.9 1.35 -0.8 0.1 -0.15 L0.05 -0.3 0.0 -0.35 M-0.75 3.25 Q-1.05 2.95 -1.35 2.75 -1.7 2.45 -2.15 2.25 -1.1 1.3 -0.55 0.25 L-0.8 1.6 -0.75 1.6 -0.5 1.2 Q-0.4 1.3 -0.25 1.3 L-0.05 1.2 Q0.15 1.2 0.15 1.4 0.15 2.1 -0.45 2.85 L-0.75 3.25" fill="#c7a36d" fill-rule="evenodd" stroke="none"/>
    <path d="M0.0 -0.35 L0.05 -0.3 0.1 -0.15 Q1.35 -0.8 1.95 -1.9 2.3 -2.5 2.85 -3.85 L3.35 -4.75 Q3.65 -5.3 3.8 -5.7 3.95 -6.2 4.1 -6.4 L4.2 -6.35 Q4.3 -6.25 4.3 -6.1 4.3 -5.95 3.95 -5.25 3.8 -5.05 3.55 -4.6 3.25 -4.15 2.8 -3.0 2.35 -1.9 2.15 -1.2 1.8 -0.15 1.8 0.15 1.8 1.15 0.75 2.75 L0.0 3.8 -0.15 4.1 Q-0.35 3.7 -0.75 3.3 L-0.75 3.25 -0.45 2.85 Q0.15 2.1 0.15 1.4 0.15 1.2 -0.05 1.2 L-0.25 1.3 Q-0.4 1.3 -0.5 1.2 L-0.3 0.8 0.0 -0.35" fill="#a9854f" fill-rule="evenodd" stroke="none"/>
    <path d="M-2.9 2.45 L-2.6 3.0 Q-2.05 4.1 -1.8 4.7 L-1.85 4.7 -2.35 3.9 Q-2.7 3.4 -3.0 3.2 -2.85 3.9 -2.2 4.9 L-2.85 4.35 Q-3.0 4.2 -3.5 3.25 -3.05 2.55 -2.9 2.45 M-1.75 3.25 Q-1.9 2.95 -2.05 2.7 L-2.1 2.6 Q-1.7 2.9 -1.3 3.25 -1.65 3.05 -1.75 3.25" fill="#b00000" fill-rule="evenodd" stroke="none"/>
    <path d="M-2.9 2.45 L-2.6 2.45 -2.4 2.7 -2.1 3.2 -1.95 3.65 -0.95 5.9 -0.95 6.15 -1.0 6.2 -1.0 6.25 -1.05 6.25 -1.3 6.3 -1.85 5.7 -2.6 4.95 -3.35 4.35 Q-3.75 4.0 -3.75 3.65 L-3.5 3.25 Q-3.0 4.2 -2.85 4.35 L-2.2 4.9 Q-2.85 3.9 -3.0 3.2 -2.7 3.4 -2.35 3.9 L-1.85 4.7 -1.8 4.7 Q-2.05 4.1 -2.6 3.0 L-2.9 2.45 M-1.3 3.25 Q-0.85 3.65 -0.45 4.2 L-0.65 4.05 Q-1.2 3.7 -1.6 3.5 L-1.75 3.25 Q-1.65 3.05 -1.3 3.25 M-1.35 4.1 L-1.45 3.9 -0.15 5.2 Q-0.2 5.35 -0.5 5.6 L-0.7 5.8 Q-0.8 5.4 -1.05 4.8 L-1.1 4.75 -1.35 4.1" fill="#600000" fill-rule="evenodd" stroke="none"/>
  </g>
</svg>
