<?xml version="1.0" encoding="UTF-8" standalone="no"?>
<svg xmlns:ffdec="https://www.free-decompiler.com/flash" xmlns:xlink="http://www.w3.org/1999/xlink" ffdec:objectType="shape" height="14.1px" width="7.15px" xmlns="http://www.w3.org/2000/svg">
  <g transform="matrix(1.0, 0.0, 0.0, 1.0, 2.45, 7.05)">
    <path d="M-1.0 4.25 L-0.8 4.3 Q0.5 4.65 0.9 4.65 L1.15 4.65 1.8 4.55 1.9 4.55 Q2.85 4.35 3.45 3.9 3.85 3.55 4.1 3.0 4.35 2.4 4.4 1.55 L4.45 0.3 4.45 0.1 Q4.45 0.0 4.5 -0.05 L4.45 -0.45 Q4.3 -0.2 4.0 0.25 3.55 1.0 3.25 1.25 L3.2 1.2 Q4.05 -0.3 4.4 -0.8 4.3 -2.0 4.0 -3.0 3.4 -5.05 1.9 -6.45 L1.55 -6.55 1.35 -6.6 0.95 -6.65 Q-0.85 -6.65 -1.7 -4.65 -1.95 -4.0 -2.1 -3.25 L-2.2 -2.5 Q-2.2 -1.25 -1.7 0.15 -1.3 1.2 -1.2 2.05 -1.2 2.3 -1.2 2.5 L-1.2 2.7 -1.2 2.75 Q-1.2 2.9 -1.25 3.0 L-1.25 3.05 Q-0.85 2.75 -0.1 2.3 0.5 1.9 1.15 1.55 L1.3 1.5 1.6 1.35 Q1.3 1.95 0.1 2.65 -0.8 3.2 -1.3 3.25 L-1.3 3.3 1.35 2.85 1.35 2.9 1.4 2.95 1.35 3.1 -0.4 3.35 -0.5 3.35 Q-1.6 3.6 -1.75 3.8 L-1.7 3.8 -1.0 3.75 0.4 3.6 0.7 3.55 1.45 3.4 1.55 3.5 0.15 3.95 -0.8 4.15 -1.1 4.2 -1.0 4.25 M2.15 -6.45 Q3.2 -6.0 3.95 -3.8 4.7 -1.6 4.7 0.25 L4.7 1.05 Q4.7 2.35 4.4 3.05 4.55 3.1 4.6 3.45 4.65 3.9 4.65 4.35 4.65 5.4 4.3 5.95 3.65 7.0 1.85 7.0 L1.45 7.0 1.25 7.05 -0.4 7.05 -0.65 7.0 -0.95 7.05 Q-1.6 7.05 -2.05 6.8 -2.45 6.55 -2.45 6.3 -2.45 5.65 -2.3 5.15 -2.2 4.55 -1.95 4.45 L-1.95 4.4 -1.9 4.4 -2.0 4.25 -2.1 4.15 -2.15 4.0 Q-1.85 3.3 -1.55 3.15 -1.8 1.4 -2.0 0.5 -2.3 -0.65 -2.35 -1.05 -2.45 -1.65 -2.45 -2.5 -2.45 -4.45 -1.65 -5.8 -0.4 -7.9 2.15 -6.5 L2.15 -6.45 M-0.75 4.95 Q-1.15 4.85 -1.45 4.7 L-1.55 4.6 -1.6 4.6 -1.65 4.55 Q-1.8 4.8 -1.9 5.35 -2.0 5.85 -2.0 6.1 -2.0 6.35 -1.75 6.4 L-0.35 6.6 1.2 6.6 1.65 6.55 2.4 6.35 3.6 6.1 Q3.9 6.0 4.0 5.65 4.05 5.3 4.1 5.2 4.25 4.9 4.25 4.4 L4.15 4.55 Q3.75 5.1 3.45 5.25 L3.4 5.25 3.9 4.3 4.05 4.1 4.2 3.85 4.2 3.55 3.95 3.85 Q3.25 4.65 1.8 4.8 L1.55 4.9 0.95 4.95 0.65 5.05 Q-0.15 5.05 -0.75 4.95 M4.05 5.85 L4.15 5.7 4.2 5.55 4.2 5.65 4.05 5.85" fill="#111111" fill-rule="evenodd" stroke="none"/>
    <path d="M-1.0 4.25 L-1.1 4.2 -0.8 4.15 -1.0 4.25 M0.7 3.55 L0.4 3.6 -1.0 3.75 0.75 3.5 0.65 3.55 0.7 3.55 M-0.4 3.35 L1.35 3.1 1.4 2.95 1.35 2.9 1.7 2.8 1.3 3.2 -0.4 3.35 M1.3 1.5 L1.15 1.55 1.35 1.4 1.4 1.35 1.35 1.45 1.3 1.5 M-1.2 2.75 L-1.2 2.7 -0.45 1.8 Q0.65 0.35 0.95 -0.45 0.5 -0.2 -0.65 1.3 L-1.2 2.05 Q-1.3 1.2 -1.7 0.15 -2.2 -1.25 -2.2 -2.5 L-2.1 -3.25 Q-1.95 -4.0 -1.7 -4.65 -0.85 -6.65 0.95 -6.65 L1.35 -6.6 1.3 -6.6 Q1.6 -6.2 1.85 -5.45 2.5 -3.8 2.5 -1.95 2.5 -1.55 2.4 -0.95 L2.25 -0.25 0.25 1.45 -1.2 2.75 M2.35 0.8 L2.0 2.2 0.85 2.45 0.85 2.4 Q1.15 2.2 2.05 1.1 L2.35 0.8" fill="#80c0f0" fill-rule="evenodd" stroke="none"/>
    <path d="M-1.55 4.6 L-1.45 4.7 Q-1.15 4.85 -0.75 4.95 0.05 5.3 0.6 5.3 2.1 5.3 3.4 4.6 3.05 4.95 2.5 5.3 2.15 5.55 1.45 6.0 0.85 5.95 0.25 5.75 L-0.75 5.35 Q-1.2 5.15 -1.55 4.65 L-1.55 4.6 M-1.8 5.9 Q-1.7 5.7 -1.75 5.4 -1.35 5.45 -0.7 5.7 L0.45 6.15 0.1 6.2 Q-0.9 6.2 -1.35 6.05 L-1.8 5.9 M2.5 5.75 L2.55 5.8 3.2 5.4 3.85 5.05 Q3.75 5.45 3.55 5.6 3.1 6.05 2.1 6.05 L2.55 5.8 2.5 5.75" fill="#b00000" fill-rule="evenodd" stroke="none"/>
    <path d="M-1.55 4.6 L-1.55 4.65 Q-1.2 5.15 -0.75 5.35 L0.25 5.75 Q0.85 5.95 1.45 6.0 2.15 5.55 2.5 5.3 3.05 4.95 3.4 4.6 2.1 5.3 0.6 5.3 0.05 5.3 -0.75 4.95 -0.15 5.05 0.65 5.05 L0.95 4.95 1.55 4.9 1.8 4.8 Q3.25 4.65 3.95 3.85 L4.2 3.55 4.2 3.85 4.05 4.1 3.9 4.3 3.4 5.25 3.45 5.25 Q3.75 5.1 4.15 4.55 L4.25 4.4 Q4.25 4.9 4.1 5.2 4.05 5.3 4.0 5.65 3.9 6.0 3.6 6.1 L2.4 6.35 1.65 6.55 1.2 6.6 -0.35 6.6 -1.75 6.4 Q-2.0 6.35 -2.0 6.1 -2.0 5.85 -1.9 5.35 -1.8 4.8 -1.65 4.55 L-1.6 4.6 -1.55 4.6 M-1.8 5.9 L-1.35 6.05 Q-0.9 6.2 0.1 6.2 L0.45 6.15 -0.7 5.7 Q-1.35 5.45 -1.75 5.4 -1.7 5.7 -1.8 5.9 M2.5 5.75 L2.55 5.8 2.1 6.05 Q3.1 6.05 3.55 5.6 3.75 5.45 3.85 5.05 L3.2 5.4 2.55 5.8 2.5 5.75" fill="#600000" fill-rule="evenodd" stroke="none"/>
    <path d="M1.35 -6.6 L1.55 -6.55 1.9 -6.45 Q3.4 -5.05 4.0 -3.0 4.3 -2.0 4.4 -0.8 4.05 -0.3 3.2 1.2 L3.25 1.25 Q3.55 1.0 4.0 0.25 4.3 -0.2 4.45 -0.45 L4.5 -0.05 Q4.45 0.0 4.45 0.1 L4.45 0.3 4.4 1.55 Q4.35 2.4 4.1 3.0 3.85 3.55 3.45 3.9 2.85 4.35 1.9 4.55 L1.8 4.55 1.15 4.65 0.9 4.65 Q0.5 4.65 -0.8 4.3 L-1.0 4.25 -0.8 4.15 0.15 3.95 1.55 3.5 1.45 3.4 0.7 3.55 0.65 3.55 0.75 3.5 -1.0 3.75 -1.7 3.8 -1.75 3.8 Q-1.6 3.6 -0.5 3.35 L-0.4 3.35 1.3 3.2 1.7 2.8 1.35 2.9 1.35 2.85 -1.3 3.3 -1.3 3.25 Q-0.8 3.2 0.1 2.65 1.3 1.95 1.6 1.35 L1.3 1.5 1.35 1.45 1.4 1.35 1.35 1.4 1.15 1.55 Q0.5 1.9 -0.1 2.3 -0.85 2.75 -1.25 3.05 L-1.25 3.0 Q-1.2 2.9 -1.2 2.75 L0.25 1.45 2.25 -0.25 2.4 -0.95 Q2.5 -1.55 2.5 -1.95 2.5 -3.8 1.85 -5.45 1.6 -6.2 1.3 -6.6 L1.35 -6.6 M-1.2 2.7 L-1.2 2.5 Q-1.2 2.3 -1.2 2.05 L-0.65 1.3 Q0.5 -0.2 0.95 -0.45 0.65 0.35 -0.45 1.8 L-1.2 2.7 M2.35 0.8 L2.05 1.1 Q1.15 2.2 0.85 2.4 L0.85 2.45 2.0 2.2 2.35 0.8" fill="#0070e0" fill-rule="evenodd" stroke="none"/>
  </g>
</svg>
