<?xml version="1.0" encoding="UTF-8" standalone="no"?>
<svg xmlns:ffdec="https://www.free-decompiler.com/flash" xmlns:xlink="http://www.w3.org/1999/xlink" ffdec:objectType="shape" height="11.35px" width="15.45px" xmlns="http://www.w3.org/2000/svg">
  <g transform="matrix(1.0, 0.0, 0.0, 1.0, 6.45, 4.9)">
    <path d="M4.9 -4.65 L4.9 -4.9 Q5.6 -3.7 6.5 -0.95 7.35 1.5 7.35 1.8 L7.35 2.0 7.3 2.2 7.15 2.45 7.3 2.55 Q7.6 2.75 8.0 3.2 9.0 4.3 9.0 5.25 9.0 5.55 7.8 6.0 6.5 6.45 5.4 6.45 4.7 6.45 4.1 6.0 3.6 5.6 3.6 5.4 3.6 5.2 4.0 4.1 L4.35 3.15 Q3.75 2.95 3.25 2.5 2.55 1.85 2.55 1.3 L2.5 1.15 2.35 0.8 2.15 0.35 1.8 0.3 1.05 0.15 0.5 0.35 Q0.75 0.55 1.1 0.95 1.5 1.45 1.5 1.55 L1.3 2.05 Q1.05 2.45 1.05 2.6 L1.25 2.75 Q1.4 2.95 1.4 3.0 1.4 3.1 1.25 3.3 1.35 3.35 1.4 3.5 1.5 3.75 1.5 4.0 L1.45 4.25 1.4 4.6 Q1.3 4.9 0.9 5.1 0.4 5.35 -0.55 5.45 -1.95 5.7 -4.35 5.7 -5.3 5.7 -5.85 5.25 -6.1 5.05 -6.25 4.8 L-6.35 4.55 -6.45 4.35 -6.4 4.2 -6.3 4.05 Q-5.15 3.85 -4.3 3.3 L-3.8 2.95 Q-3.4 2.6 -3.0 2.4 -2.9 2.35 -2.75 2.3 L-2.85 2.2 -2.8 1.95 Q-2.7 1.8 -2.7 1.7 -2.7 1.6 -2.75 1.4 L-2.9 1.2 Q-3.55 0.3 -3.55 -0.1 -3.55 -0.55 -2.4 -2.1 -1.65 -3.1 -1.3 -3.5 L-1.15 -3.65 -0.9 -3.95 Q-0.9 -4.0 -0.85 -3.95 L-0.85 -3.9 Q-0.85 -3.75 -1.3 -3.15 L-1.6 -2.7 -1.7 -2.6 -1.75 -2.5 -2.3 -1.65 -2.95 -0.45 -3.05 -0.2 -3.1 -0.1 Q-3.1 0.05 -2.5 1.0 -1.85 1.95 -1.85 2.1 -1.85 2.15 -1.9 2.25 L-1.95 2.35 -2.4 1.9 -2.45 2.1 Q-2.45 2.15 -1.15 2.75 L0.15 3.35 Q0.3 3.35 0.75 3.1 L1.05 2.95 0.9 2.8 Q0.8 2.7 0.8 2.65 L0.9 2.2 1.0 1.7 0.65 1.1 Q0.3 0.65 0.25 0.45 L0.15 0.5 0.1 0.5 -0.1 0.55 -0.2 0.6 -0.9 0.85 -1.3 0.9 -1.4 0.9 -1.45 0.85 Q-1.1 0.55 -0.05 0.2 L0.6 0.05 0.45 0.0 Q-0.85 -0.15 -1.15 -0.4 L-1.15 -0.45 Q-0.8 -0.45 0.05 -0.4 L0.7 -0.4 1.2 -0.35 2.4 -0.25 2.95 -0.15 Q3.4 -0.1 3.55 0.0 L3.5 0.05 3.4 0.1 3.75 0.15 4.3 0.3 4.2 0.35 4.15 0.35 3.95 0.4 3.0 0.4 Q3.4 0.65 4.0 1.05 L4.15 1.15 4.15 1.2 Q3.45 1.0 2.85 0.65 L2.65 0.5 3.05 1.45 Q3.6 2.55 4.55 2.9 L5.15 2.95 Q5.95 2.95 6.6 2.5 7.1 2.15 7.1 1.95 L6.15 -1.0 5.8 -2.1 5.55 -2.75 5.5 -2.85 Q5.2 -3.65 5.05 -4.15 L4.9 -4.6 4.9 -4.65 M-2.4 1.9 L-2.4 1.9 M6.7 1.15 L6.7 1.15 M7.3 2.85 L7.05 2.6 7.0 2.7 Q6.6 3.05 6.05 3.2 L5.35 3.3 4.55 3.2 4.5 3.35 4.2 4.1 Q3.9 4.95 3.9 5.1 3.9 5.3 4.2 5.6 L4.75 5.7 4.9 5.65 Q5.1 5.6 5.5 5.4 6.0 5.05 6.15 5.05 6.35 5.0 7.1 5.15 L7.8 5.3 8.25 5.3 Q8.55 5.3 8.6 5.25 L8.75 5.1 Q8.75 4.6 8.35 4.0 L7.85 3.35 7.3 2.85 M5.9 5.65 Q5.2 6.0 5.05 6.0 L4.5 5.9 Q4.9 6.15 5.4 6.15 6.4 6.15 7.6 5.75 L8.15 5.55 7.55 5.45 7.15 5.35 Q6.55 5.35 5.9 5.65 M-4.75 5.4 L-4.55 5.4 -1.5 5.25 Q0.15 5.1 0.65 4.9 L0.7 4.9 0.9 4.7 1.05 4.45 1.2 4.1 Q1.15 3.9 1.1 3.65 L1.05 3.45 0.85 3.45 0.85 3.4 Q0.4 3.7 0.2 3.7 -0.25 3.7 -1.6 2.95 L-2.55 2.4 -2.65 2.45 -2.7 2.5 -3.15 2.8 -3.55 3.1 -3.6 3.15 -3.7 3.2 -3.9 3.4 -4.25 3.6 Q-4.95 4.1 -5.7 4.35 L-6.1 4.45 Q-6.0 4.65 -5.7 4.9 L-5.5 5.05 Q-5.1 5.3 -4.75 5.4" fill="#111111" fill-rule="evenodd" stroke="none"/>
    <path d="M5.5 -2.85 L5.55 -2.75 5.5 -2.85 5.5 -2.85 M4.15 1.2 L4.15 1.15 4.0 1.05 3.5 0.6 4.7 0.8 5.65 0.95 5.75 0.95 5.8 1.0 5.9 0.95 5.85 0.95 6.05 0.9 5.9 0.8 Q5.5 0.1 3.5 -0.3 L2.85 -0.4 Q4.0 -0.55 4.4 -0.8 L3.95 -0.85 3.55 -0.9 0.7 -0.75 -0.65 -0.65 Q-1.25 -0.6 -1.55 -0.5 L-2.15 -0.45 Q-2.25 -0.4 -2.3 -0.25 -2.15 -0.05 -1.5 0.05 L-0.75 0.05 -0.85 0.1 Q-1.05 0.25 -1.35 0.4 -1.85 0.65 -2.05 0.65 -2.35 0.2 -2.65 -0.15 L-2.95 -0.45 -2.3 -1.65 -1.75 -2.5 -1.7 -2.6 Q-1.5 -2.3 -0.65 -2.0 0.4 -1.65 1.35 -1.65 3.85 -1.65 5.2 -2.6 L5.4 -2.0 5.75 -0.8 6.2 0.4 Q6.55 1.3 6.55 1.45 6.55 1.7 6.35 1.8 6.15 1.95 5.8 1.95 5.2 1.95 4.35 1.35 L4.15 1.15 4.15 1.2 M-0.9 0.85 L-0.2 0.6 -0.3 0.65 0.2 1.1 Q0.65 1.55 0.65 1.7 0.65 1.85 0.15 2.05 -0.3 2.25 -0.6 2.25 -0.95 2.25 -1.4 1.75 L-1.85 1.2 Q-1.6 1.1 -0.95 0.85 L-0.9 0.85 M-2.4 1.9 L-2.4 1.9" fill="#b00000" fill-rule="evenodd" stroke="none"/>
    <path d="M-0.85 -3.95 L-0.35 -4.05 1.5 -4.1 Q2.35 -4.2 3.85 -4.8 4.65 -5.05 4.9 -4.65 L4.9 -4.6 5.05 -4.15 Q5.2 -3.65 5.5 -2.85 L5.5 -2.85 5.55 -2.75 5.8 -2.1 6.15 -1.0 7.1 1.95 Q7.1 2.15 6.6 2.5 5.95 2.95 5.15 2.95 L4.55 2.9 Q3.6 2.55 3.05 1.45 L2.65 0.5 2.85 0.65 Q3.45 1.0 4.15 1.2 L4.15 1.15 4.35 1.35 Q5.2 1.95 5.8 1.95 6.15 1.95 6.35 1.8 6.55 1.7 6.55 1.45 6.55 1.3 6.2 0.4 L5.75 -0.8 5.4 -2.0 5.2 -2.6 Q3.85 -1.65 1.35 -1.65 0.4 -1.65 -0.65 -2.0 -1.5 -2.3 -1.7 -2.6 L-1.6 -2.7 -1.3 -3.15 Q-0.85 -3.75 -0.85 -3.9 L-0.85 -3.95 M4.0 1.05 Q3.4 0.65 3.0 0.4 L3.95 0.4 4.15 0.35 4.2 0.35 4.3 0.3 3.75 0.15 3.4 0.1 3.5 0.05 3.55 0.0 Q3.4 -0.1 2.95 -0.15 L2.4 -0.25 1.2 -0.35 0.7 -0.4 0.05 -0.4 Q-0.8 -0.45 -1.15 -0.45 L-1.15 -0.4 Q-0.85 -0.15 0.45 0.0 L0.6 0.05 -0.05 0.2 Q-1.1 0.55 -1.45 0.85 L-1.4 0.9 -1.3 0.9 -0.9 0.85 -0.95 0.85 Q-1.6 1.1 -1.85 1.2 L-1.4 1.75 Q-0.95 2.25 -0.6 2.25 -0.3 2.25 0.15 2.05 0.65 1.85 0.65 1.7 0.65 1.55 0.2 1.1 L-0.3 0.65 -0.2 0.6 -0.1 0.55 0.1 0.5 0.15 0.5 0.25 0.45 Q0.3 0.65 0.65 1.1 L1.0 1.7 0.9 2.2 0.8 2.65 Q0.8 2.7 0.9 2.8 L1.05 2.95 0.75 3.1 Q0.3 3.35 0.15 3.35 L-1.15 2.75 Q-2.45 2.15 -2.45 2.1 L-2.4 1.9 -1.95 2.35 -1.9 2.25 Q-1.85 2.15 -1.85 2.1 -1.85 1.95 -2.5 1.0 -3.1 0.05 -3.1 -0.1 L-3.05 -0.2 -2.95 -0.45 -2.65 -0.15 Q-2.35 0.2 -2.05 0.65 -1.85 0.65 -1.35 0.4 -1.05 0.25 -0.85 0.1 L-0.75 0.05 -1.5 0.05 Q-2.15 -0.05 -2.3 -0.25 -2.25 -0.4 -2.15 -0.45 L-1.55 -0.5 Q-1.25 -0.6 -0.65 -0.65 L0.7 -0.75 3.55 -0.9 3.95 -0.85 4.4 -0.8 Q4.0 -0.55 2.85 -0.4 L3.5 -0.3 Q5.5 0.1 5.9 0.8 L6.05 0.9 5.85 0.95 5.9 0.95 5.8 1.0 5.75 0.95 5.65 0.95 4.7 0.8 3.5 0.6 4.0 1.05 M6.7 1.15 L6.7 1.15" fill="#600000" fill-rule="evenodd" stroke="none"/>
    <path d="M4.9 5.65 L4.75 5.55 Q4.3 5.3 4.3 5.2 4.3 4.95 4.6 4.15 L4.8 3.45 5.7 3.5 Q6.45 3.5 7.05 3.05 L7.3 2.85 7.85 3.35 8.35 4.0 Q8.5 4.35 8.5 4.5 8.5 4.8 8.25 5.0 L7.8 5.3 7.1 5.15 Q6.35 5.0 6.15 5.05 6.0 5.05 5.5 5.4 5.1 5.6 4.9 5.65 M-2.7 2.5 L-2.55 2.55 -1.6 3.3 Q-0.45 4.15 -0.1 4.15 L0.45 3.95 Q0.6 3.95 0.8 3.8 L0.8 3.85 Q0.8 3.9 0.8 4.15 0.75 4.4 0.4 4.55 -0.55 5.1 -4.05 5.1 -4.9 5.1 -5.5 4.5 L-5.7 4.35 Q-4.95 4.1 -4.25 3.6 L-3.9 3.4 -3.7 3.2 -3.6 3.15 -3.55 3.1 -3.15 2.8 -2.7 2.5 M-5.5 5.05 Q-5.2 5.25 -4.85 5.35 L-4.75 5.4 Q-5.1 5.3 -5.5 5.05" fill="#9c9581" fill-rule="evenodd" stroke="none"/>
    <path d="M4.9 5.65 L4.75 5.7 4.2 5.6 Q3.9 5.3 3.9 5.1 3.9 4.95 4.2 4.1 L4.5 3.35 4.55 3.2 5.35 3.3 6.05 3.2 Q6.6 3.05 7.0 2.7 L7.05 2.6 7.3 2.85 7.05 3.05 Q6.45 3.5 5.7 3.5 L4.8 3.45 4.6 4.15 Q4.3 4.95 4.3 5.2 4.3 5.3 4.75 5.55 L4.9 5.65 M8.35 4.0 Q8.75 4.6 8.75 5.1 L8.6 5.25 Q8.55 5.3 8.25 5.3 L7.8 5.3 8.25 5.0 Q8.5 4.8 8.5 4.5 8.5 4.35 8.35 4.0 M5.9 5.65 Q6.55 5.35 7.15 5.35 L7.55 5.45 8.15 5.55 7.6 5.75 Q6.4 6.15 5.4 6.15 4.9 6.15 4.5 5.9 L5.05 6.0 Q5.2 6.0 5.9 5.65 M-2.7 2.5 L-2.65 2.45 -2.55 2.4 -1.6 2.95 Q-0.25 3.7 0.2 3.7 0.4 3.7 0.85 3.4 L0.85 3.45 1.05 3.45 1.1 3.65 Q1.15 3.9 1.2 4.1 L1.05 4.45 0.9 4.7 0.7 4.9 0.65 4.9 Q0.15 5.1 -1.5 5.25 L-4.55 5.4 -4.75 5.4 -4.85 5.35 Q-5.2 5.25 -5.5 5.05 L-5.7 4.9 Q-6.0 4.65 -6.1 4.45 L-5.7 4.35 -5.5 4.5 Q-4.9 5.1 -4.05 5.1 -0.55 5.1 0.4 4.55 0.75 4.4 0.8 4.15 0.8 3.9 0.8 3.85 L0.8 3.8 Q0.6 3.95 0.45 3.95 L-0.1 4.15 Q-0.45 4.15 -1.6 3.3 L-2.55 2.55 -2.7 2.5" fill="#666154" fill-rule="evenodd" stroke="none"/>
  </g>
</svg>
