<?xml version="1.0" encoding="UTF-8" standalone="no"?>
<svg xmlns:ffdec="https://www.free-decompiler.com/flash" xmlns:xlink="http://www.w3.org/1999/xlink" ffdec:objectType="shape" height="13.75px" width="17.85px" xmlns="http://www.w3.org/2000/svg">
  <g transform="matrix(1.0, 0.0, 0.0, 1.0, 4.8, 11.35)">
    <path d="M0.75 -3.65 Q0.85 -3.65 0.95 -3.6 L1.1 -2.4 1.1 -2.35 Q1.2 -2.35 1.25 -2.2 1.3 -2.15 1.35 -2.0 L1.4 -2.05 1.45 -2.05 1.25 -2.4 Q1.1 -2.8 1.1 -2.95 L1.2 -3.3 Q1.3 -3.7 1.45 -3.95 1.95 -4.85 2.6 -4.25 L2.65 -4.2 Q2.6 -4.15 2.5 -4.15 L1.45 -3.65 Q1.25 -3.2 1.25 -2.9 L1.4 -2.4 1.5 -2.2 1.35 -1.75 0.85 -1.25 1.6 0.4 Q1.6 0.35 1.65 0.3 L1.75 0.35 1.7 0.5 1.7 0.55 Q1.7 0.7 1.85 1.15 L1.8 1.35 1.65 1.6 1.55 1.7 0.9 2.25 0.7 2.3 -0.6 0.75 -0.5 0.1 -0.65 -0.05 -0.8 -0.3 Q-0.95 -0.45 -0.95 -0.6 L-0.8 -0.85 -0.65 -1.05 -1.05 -1.75 Q-1.05 -1.95 -0.9 -2.15 -0.7 -2.4 -0.7 -2.7 -0.7 -2.8 -0.4 -3.0 -0.15 -3.15 -0.05 -3.15 L-0.05 -3.25 0.1 -3.4 Q0.3 -3.55 0.35 -3.55 0.4 -3.6 0.55 -3.65 L0.75 -3.65 M0.8 -3.55 L0.95 -2.3 1.0 -2.35 0.95 -2.85 0.8 -3.55 M0.05 -3.1 L-0.55 -2.5 -0.75 -2.15 Q-0.9 -1.9 -0.9 -1.75 L-0.8 -1.5 -0.55 -1.2 0.05 -1.35 Q-0.1 -1.35 -0.15 -1.65 L-0.15 -1.7 0.0 -1.55 0.35 -2.45 0.05 -3.1 M1.25 -1.8 L1.25 -1.85 1.1 -1.6 1.25 -1.75 1.25 -1.8 M0.05 -2.15 L0.0 -2.0 -0.15 -2.3 0.05 -2.15" fill="#000000" fill-rule="evenodd" stroke="none"/>
    <path d="M4.45 -5.5 L4.6 -4.8 Q4.9 -4.95 5.05 -4.75 L5.1 -4.05 5.0 -3.75 5.9 -2.5 Q5.75 -2.0 5.75 -1.5 5.75 -0.95 5.9 -0.5 6.0 -0.1 6.3 0.4 L6.35 0.4 6.35 0.5 6.3 0.5 Q6.15 0.75 5.45 1.1 4.5 1.55 3.75 1.55 L3.7 1.55 Q3.7 1.6 3.7 1.5 3.65 1.4 3.6 1.25 L3.6 1.15 3.35 1.15 Q3.0 1.15 2.8 1.1 L2.85 1.15 Q2.85 1.25 2.75 1.3 L2.7 1.35 2.65 1.35 Q2.45 1.35 1.95 0.75 1.5 0.15 1.5 0.05 L1.8 -0.9 2.75 -3.25 2.35 -3.9 Q2.35 -4.0 2.65 -4.2 2.85 -4.35 3.05 -4.4 L2.95 -5.1 2.95 -5.15 Q3.2 -4.85 3.25 -3.4 L3.15 -2.85 3.25 -2.65 3.35 -2.55 Q3.35 -3.6 4.2 -3.95 L4.6 -4.1 4.5 -4.65 4.4 -5.35 Q4.4 -5.5 4.45 -5.5 M4.6 -4.75 L4.65 -4.3 4.65 -4.1 4.8 -4.15 4.9 -4.7 4.6 -4.75 M5.05 -4.25 L3.45 -2.5 3.45 -2.45 2.75 -1.6 Q2.65 -1.05 2.65 -0.15 L3.7 -0.25 3.85 -1.45 3.9 -2.65 Q3.95 -2.85 4.35 -3.25 L4.9 -3.7 4.9 -3.8 4.95 -3.8 5.0 -4.15 5.05 -4.25 M5.0 -3.6 L3.95 -1.35 3.85 -0.2 5.75 -0.5 Q5.65 -1.0 5.6 -1.5 L5.0 -3.6 M2.5 -3.9 L3.1 -3.0 3.15 -3.4 3.05 -4.3 2.8 -4.15 2.5 -3.9 M2.5 -2.9 L1.85 -0.7 Q1.65 0.0 1.65 0.05 L2.5 -0.15 Q2.5 -2.05 3.0 -2.85 L2.5 -2.9 M0.1 -2.15 L0.05 -2.15 0.1 -2.0 0.05 -1.8 Q0.0 -1.85 0.0 -2.0 L-0.15 -1.65 0.0 -1.45 -0.05 -1.4 Q-0.4 -1.75 -0.4 -1.9 L-0.15 -2.25 -0.4 -2.65 -0.35 -2.7 Q-0.2 -2.55 -0.05 -2.35 L0.1 -2.15 M1.8 1.25 L1.8 1.3 Q1.8 1.45 1.35 1.9 0.85 2.4 0.4 2.4 L0.35 2.4 Q0.35 2.45 0.35 2.35 -0.05 2.05 -0.7 0.8 -0.7 0.55 -0.6 0.35 -0.55 0.1 -0.4 0.05 L1.8 1.25 M2.8 1.1 L2.8 1.1" fill="#000000" fill-rule="evenodd" stroke="none"/>
    <path d="M2.5 -2.9 L3.0 -2.85 Q2.5 -2.05 2.5 -0.15 L1.65 0.05 Q1.65 0.0 1.85 -0.7 L2.5 -2.9 M2.5 -3.9 L2.8 -4.15 3.05 -4.3 3.15 -3.4 3.1 -3.0 2.5 -3.9 M5.0 -3.6 L5.6 -1.5 Q5.65 -1.0 5.75 -0.5 L3.85 -0.2 3.95 -1.35 5.0 -3.6 M5.05 -4.25 L5.0 -4.15 4.95 -3.8 4.9 -3.8 4.9 -3.7 4.35 -3.25 Q3.95 -2.85 3.9 -2.65 L3.85 -1.45 3.7 -0.25 2.65 -0.15 Q2.65 -1.05 2.75 -1.6 L3.45 -2.45 3.45 -2.5 5.05 -4.25" fill="#ffffff" fill-rule="evenodd" stroke="none"/>
    <path d="M4.45 -5.5 L4.5 -5.45 4.6 -4.9 Q5.05 -4.95 5.15 -4.8 5.25 -4.75 5.25 -4.55 5.25 -4.4 5.15 -4.05 L5.75 -1.5 Q5.75 -0.95 5.9 -0.5 6.0 -0.1 6.3 0.4 L6.35 0.4 6.35 0.5 6.3 0.5 Q6.15 0.75 5.45 1.1 4.5 1.55 3.75 1.55 L3.7 1.55 Q3.7 1.6 3.7 1.5 3.65 1.4 3.6 1.25 L3.6 1.15 3.35 1.15 Q3.0 1.15 2.8 1.1 L2.85 1.15 Q2.85 1.25 2.75 1.3 L2.7 1.35 2.65 1.35 Q2.45 1.35 1.95 0.75 L1.75 0.45 1.7 0.5 1.7 0.55 Q1.7 0.7 1.85 1.15 L1.8 1.35 1.75 1.45 1.65 1.6 1.35 1.9 Q1.15 2.15 0.9 2.25 0.65 2.4 0.4 2.4 L0.35 2.4 Q0.35 2.45 0.35 2.35 -0.05 2.05 -0.7 0.8 -0.7 0.55 -0.6 0.35 L-0.55 0.2 -0.5 0.1 -0.65 -0.05 -0.8 -0.3 Q-0.95 -0.45 -0.95 -0.6 L-0.8 -0.85 -0.65 -1.05 -1.05 -1.75 Q-1.05 -1.95 -0.9 -2.15 -0.7 -2.4 -0.7 -2.7 -0.7 -2.8 -0.4 -3.0 -0.15 -3.15 -0.05 -3.15 L-0.05 -3.25 0.1 -3.4 Q0.3 -3.55 0.35 -3.55 0.4 -3.6 0.55 -3.65 L0.75 -3.65 Q0.85 -3.65 0.95 -3.6 L1.1 -2.4 1.1 -2.35 Q1.2 -2.35 1.25 -2.2 L1.3 -2.05 1.4 -2.15 1.25 -2.4 1.1 -2.95 1.2 -3.3 Q1.3 -3.7 1.45 -3.95 1.95 -4.85 2.6 -4.25 L2.65 -4.2 Q2.85 -4.35 3.0 -4.4 L3.05 -4.4 2.95 -4.95 3.0 -5.05 Q3.25 -4.7 3.25 -3.4 L3.15 -2.85 3.25 -2.65 3.35 -2.55 Q3.35 -3.6 4.2 -3.95 L4.6 -4.1 4.5 -4.65 4.4 -5.35 Q4.4 -5.45 4.45 -5.5 M3.05 -4.3 L2.85 -4.15 2.5 -3.9 2.9 -3.3 3.05 -3.1 3.1 -3.0 3.15 -3.4 3.1 -4.2 3.05 -4.3 M4.6 -4.75 L4.65 -4.3 4.65 -4.1 4.8 -4.15 5.0 -4.3 5.05 -4.45 5.0 -4.6 5.0 -4.65 4.6 -4.75 M4.45 -3.3 L4.5 -3.35 4.6 -3.4 4.85 -3.6 4.9 -3.75 4.9 -3.8 4.95 -3.8 4.95 -4.0 5.0 -4.2 4.6 -4.0 4.55 -4.0 Q3.85 -3.65 3.65 -3.45 3.55 -3.3 3.5 -2.95 L3.4 -2.5 3.45 -2.5 3.45 -2.45 3.1 -1.95 2.75 -1.6 Q2.65 -1.05 2.65 -0.15 2.65 0.2 2.75 0.65 L2.75 0.9 2.8 0.95 Q2.95 1.05 3.25 1.05 L3.6 1.0 3.6 0.95 Q3.6 0.5 3.7 -0.25 L3.85 -1.45 3.9 -2.65 Q3.95 -2.75 4.05 -2.95 L4.35 -3.25 4.45 -3.3 M4.3 1.3 Q5.1 1.1 5.3 1.0 L5.9 0.65 Q6.1 0.55 6.2 0.5 5.95 0.35 5.75 -0.5 5.65 -1.0 5.6 -1.5 L4.75 -3.3 4.0 -2.55 3.95 -1.35 3.85 -0.2 Q3.75 0.6 3.75 0.95 3.75 1.1 3.85 1.4 L4.3 1.3 M0.6 -3.55 L0.55 -3.55 0.5 -3.45 0.6 -3.25 0.65 -3.15 0.95 -2.3 1.0 -2.35 0.95 -2.85 Q0.9 -3.3 0.8 -3.55 L0.7 -3.55 0.6 -3.55 M2.0 -4.25 Q1.7 -4.25 1.45 -3.65 1.25 -3.2 1.25 -2.9 L1.3 -2.7 1.6 -2.25 0.95 -1.35 0.85 -1.25 0.9 -1.2 1.0 -0.95 1.05 -0.8 1.15 -0.8 Q1.3 -0.8 1.5 -0.6 L1.65 -0.45 1.8 -0.9 1.75 -2.0 1.95 -1.7 2.0 -1.7 2.7 -3.2 2.75 -3.25 2.7 -3.3 2.35 -3.9 Q2.35 -4.0 2.55 -4.15 L2.5 -4.15 2.4 -4.2 2.05 -4.25 2.0 -4.25 M2.25 0.8 L2.65 1.2 Q2.65 1.15 2.7 1.1 2.5 0.5 2.5 -0.15 2.5 -2.05 3.0 -2.85 L2.2 -2.05 1.85 -0.7 1.75 -0.35 1.75 -0.3 1.7 -0.3 1.65 0.05 Q1.65 0.2 2.25 0.8 M0.25 -2.9 Q0.45 -2.65 0.65 -2.1 L0.7 -2.15 0.85 -2.25 Q0.75 -2.45 0.65 -2.75 L0.45 -3.2 0.35 -3.4 0.15 -3.25 Q0.1 -3.2 0.1 -3.15 L0.1 -3.1 0.15 -3.05 0.25 -2.9 M-0.05 -1.55 L0.0 -1.55 0.0 -1.5 0.15 -1.5 0.15 -1.55 0.35 -1.75 0.45 -1.9 0.55 -2.0 0.4 -2.35 0.4 -2.4 0.35 -2.4 0.35 -2.45 Q0.1 -2.9 0.05 -3.1 L-0.25 -3.0 -0.3 -3.0 Q-0.4 -2.9 -0.5 -2.7 L-0.55 -2.65 -0.55 -2.5 -0.65 -2.3 -0.75 -2.15 Q-0.9 -1.9 -0.9 -1.75 L-0.8 -1.5 -0.55 -1.2 -0.4 -0.9 Q-0.4 -0.75 -0.5 -0.65 L-0.5 -0.75 -0.55 -0.9 -0.6 -0.85 -0.8 -0.55 -0.8 -0.5 -0.75 -0.45 -0.55 -0.15 -0.3 0.1 Q-0.2 0.15 -0.05 0.15 L0.1 0.15 Q0.3 0.15 0.5 0.05 L0.7 -0.05 0.85 -0.2 1.0 -0.3 1.0 -0.35 1.05 -0.35 1.15 -0.5 0.75 -1.2 0.55 -1.15 0.55 -1.1 0.4 -1.1 Q0.25 -1.1 0.2 -1.25 L0.15 -1.35 0.0 -1.35 -0.1 -1.4 -0.1 -1.45 -0.3 -1.7 -0.15 -2.25 -0.4 -2.65 -0.35 -2.7 Q-0.2 -2.55 -0.05 -2.35 L0.05 -2.2 0.1 -2.15 0.05 -2.15 0.1 -2.0 0.05 -1.8 Q0.0 -1.85 0.0 -1.95 L-0.1 -1.65 -0.05 -1.55 M1.25 -1.8 L1.25 -1.85 Q1.05 -2.4 1.0 -2.2 L0.6 -1.8 0.45 -1.7 0.35 -1.6 Q0.3 -1.55 0.3 -1.45 L0.25 -1.4 0.3 -1.3 0.3 -1.25 0.45 -1.25 0.65 -1.3 0.55 -1.25 0.85 -1.45 0.95 -1.45 1.25 -1.75 1.25 -1.8 M0.2 1.9 L0.5 2.2 0.75 2.1 Q1.1 1.95 1.3 1.75 L1.45 1.6 Q1.55 1.45 1.6 1.3 L1.65 1.2 1.6 1.1 1.65 1.1 1.55 0.75 1.5 0.6 1.2 -0.15 1.35 0.0 1.35 -0.05 1.45 0.15 1.6 0.4 1.6 0.35 1.65 0.3 Q1.5 0.1 1.5 0.05 L1.65 -0.35 Q1.35 -0.65 1.15 -0.7 L1.3 -0.55 Q1.3 -0.5 1.2 -0.4 L1.1 -0.3 1.1 -0.25 1.05 -0.25 1.05 -0.2 0.9 -0.05 0.8 0.0 Q0.8 0.95 0.15 0.95 -0.1 0.95 -0.25 0.6 L-0.35 0.25 -0.45 0.5 -0.5 0.55 -0.5 0.75 Q-0.5 0.95 -0.1 1.55 L-0.05 1.6 0.2 1.9 M0.6 0.15 Q0.4 0.5 0.15 0.5 -0.1 0.5 -0.2 0.35 L-0.2 0.45 -0.25 0.5 Q-0.15 0.85 0.1 0.85 0.5 0.85 0.65 0.4 L0.7 0.05 0.6 0.15 M0.05 0.3 L-0.1 0.35 -0.15 0.35 Q-0.1 0.4 0.05 0.4 0.3 0.4 0.45 0.25 L0.1 0.3 0.05 0.3" fill="#000000" fill-rule="evenodd" stroke="none"/>
    <path d="M4.6 -4.9 L4.5 -5.45 4.6 -4.9" fill="#ffffff" fill-rule="evenodd" stroke="none"/>
    <path d="M3.05 -4.3 L3.1 -4.2 3.05 -4.3 M2.9 -3.3 L2.5 -3.9 2.85 -4.15 2.8 -3.9 Q2.8 -3.75 2.85 -3.4 L2.9 -3.3 M3.1 -1.95 L3.6 -1.4 Q3.6 -1.0 3.05 0.05 L2.75 0.65 Q2.65 0.2 2.65 -0.15 2.65 -1.05 2.75 -1.6 L3.1 -1.95 M0.9 -0.05 L0.85 0.3 Q0.85 1.05 0.4 1.6 L0.2 1.9 -0.05 1.6 -0.1 1.55 Q-0.5 0.95 -0.5 0.75 L-0.5 0.55 -0.45 0.5 -0.35 0.25 -0.25 0.6 Q-0.1 0.95 0.15 0.95 0.8 0.95 0.8 0.0 L0.9 -0.05" fill="#ebd9a0" fill-rule="evenodd" stroke="none"/>
    <path d="M4.05 -2.95 Q4.1 -3.05 4.45 -3.3 L4.35 -3.25 4.05 -2.95" fill="#585070" fill-rule="evenodd" stroke="none"/>
    <path d="M4.0 -2.55 L4.5 -0.85 4.4 -0.15 Q4.25 0.65 4.25 1.05 L4.3 1.3 3.85 1.4 Q3.75 1.1 3.75 0.95 3.75 0.6 3.85 -0.2 L3.95 -1.35 4.0 -2.55 M2.0 -4.25 L1.95 -4.25 1.9 -3.95 1.85 -3.55 1.3 -2.7 1.25 -2.9 Q1.25 -3.2 1.45 -3.65 1.7 -4.25 2.0 -4.25 M1.95 -1.7 L2.0 -1.7 1.95 -1.7 M2.7 -3.2 L2.7 -3.3 2.75 -3.25 2.7 -3.2 M2.2 -2.05 L2.35 -1.6 2.35 -0.05 Q2.25 0.45 2.25 0.8 1.65 0.2 1.65 0.05 L1.7 -0.3 1.75 -0.3 1.75 -0.35 1.85 -0.7 2.2 -2.05" fill="#b8933d" fill-rule="evenodd" stroke="none"/>
    <path d="M4.45 -5.5 Q4.4 -5.45 4.4 -5.35 L4.5 -4.65 4.6 -4.1 4.2 -3.95 Q3.35 -3.6 3.35 -2.55 L3.25 -2.65 3.15 -2.85 3.25 -3.4 Q3.25 -4.7 3.0 -5.05 3.15 -5.25 3.6 -5.4 4.25 -5.65 4.45 -5.5 M2.95 -4.95 L3.05 -4.4 3.0 -4.4 2.95 -4.85 2.95 -4.95" fill="#d18252" fill-rule="evenodd" stroke="none"/>
    <path d="M0.6 -3.55 L0.7 -3.55 0.75 -3.55 0.8 -3.4 0.75 -3.3 0.6 -3.25 0.5 -3.45 Q0.5 -3.55 0.6 -3.55 M0.45 -3.2 L0.45 -3.0 Q0.4 -2.9 0.3 -2.9 L0.25 -2.9 0.15 -3.05 Q0.15 -3.1 0.15 -3.2 L0.15 -3.25 0.35 -3.4 0.45 -3.2 M0.1 -3.15 L0.15 -3.05 0.1 -3.1 0.1 -3.15 M-0.25 -3.0 Q0.1 -3.0 0.1 -2.3 L0.05 -2.2 -0.05 -2.35 Q-0.2 -2.55 -0.35 -2.7 L-0.4 -2.65 -0.15 -2.25 -0.3 -1.7 -0.1 -1.45 -0.1 -1.4 0.0 -1.35 0.05 -0.95 0.1 -0.8 Q0.0 0.1 -0.25 0.1 L-0.3 0.1 -0.55 -0.15 -0.75 -0.45 -0.8 -0.5 -0.8 -0.55 -0.6 -0.85 -0.55 -0.9 -0.5 -0.75 -0.5 -0.65 Q-0.4 -0.75 -0.4 -0.9 L-0.55 -1.2 -0.8 -1.5 -0.9 -1.75 Q-0.9 -1.9 -0.75 -2.15 L-0.65 -2.3 -0.55 -2.5 -0.55 -2.65 -0.5 -2.7 Q-0.4 -2.9 -0.3 -3.0 L-0.25 -3.0 M0.0 -1.95 L-0.05 -1.75 -0.05 -1.55 -0.1 -1.65 0.0 -1.95" fill="#76785a" fill-rule="evenodd" stroke="none"/>
    <path d="M4.75 -3.3 L5.6 -1.5 Q5.65 -1.0 5.75 -0.5 5.95 0.35 6.2 0.5 6.1 0.55 5.9 0.65 L5.3 1.0 Q5.1 1.1 4.3 1.3 L4.25 1.05 Q4.25 0.65 4.4 -0.15 L4.5 -0.85 4.0 -2.55 4.75 -3.3 M1.3 -2.7 L1.85 -3.55 1.9 -3.95 1.95 -4.25 2.0 -4.25 2.05 -4.25 2.4 -4.2 2.5 -4.15 2.55 -4.15 Q2.35 -4.0 2.35 -3.9 L2.7 -3.3 2.7 -3.2 2.0 -1.7 1.95 -1.7 1.75 -2.0 1.6 -2.25 1.3 -2.7 M2.2 -2.05 L3.0 -2.85 Q2.5 -2.05 2.5 -0.15 2.5 0.5 2.7 1.1 2.65 1.15 2.65 1.2 L2.25 0.8 Q2.25 0.45 2.35 -0.05 L2.35 -1.6 2.2 -2.05" fill="#a6713c" fill-rule="evenodd" stroke="none"/>
    <path d="M2.85 -4.15 L3.05 -4.3 3.1 -4.2 3.15 -3.4 3.1 -3.0 3.05 -3.1 2.9 -3.3 2.85 -3.4 Q2.8 -3.75 2.8 -3.9 L2.85 -4.15 M3.1 -1.95 L3.45 -2.45 3.45 -2.5 3.4 -2.5 3.5 -2.95 Q3.55 -3.3 3.65 -3.45 3.85 -3.65 4.55 -4.0 L4.6 -4.0 5.0 -4.2 4.95 -4.0 4.95 -3.8 4.9 -3.8 4.9 -3.75 4.85 -3.6 4.6 -3.4 4.5 -3.35 4.45 -3.3 Q4.1 -3.05 4.05 -2.95 3.95 -2.75 3.9 -2.65 L3.85 -1.45 3.7 -0.25 Q3.6 0.5 3.6 0.95 L3.6 1.0 3.25 1.05 Q2.95 1.05 2.8 0.95 L2.75 0.9 2.75 0.65 3.05 0.05 Q3.6 -1.0 3.6 -1.4 L3.1 -1.95 M4.6 -4.75 L5.0 -4.65 5.0 -4.6 5.05 -4.45 5.0 -4.3 4.8 -4.15 4.65 -4.1 4.65 -4.3 4.6 -4.75 M0.9 -0.05 L1.05 -0.2 1.05 -0.25 1.1 -0.25 1.1 -0.3 1.2 -0.4 Q1.3 -0.5 1.3 -0.55 L1.15 -0.7 Q1.35 -0.65 1.65 -0.35 L1.5 0.05 Q1.5 0.1 1.65 0.3 L1.6 0.35 1.6 0.4 1.45 0.15 1.35 -0.05 1.35 0.0 1.2 -0.15 1.5 0.6 1.55 0.75 1.65 1.1 1.6 1.1 1.65 1.2 1.6 1.3 Q1.55 1.45 1.45 1.6 L1.3 1.75 Q1.1 1.95 0.75 2.1 L0.5 2.2 0.2 1.9 0.4 1.6 Q0.85 1.05 0.85 0.3 L0.9 -0.05" fill="#ddc46a" fill-rule="evenodd" stroke="none"/>
    <path d="M0.05 0.3 L0.1 0.3 0.45 0.25 Q0.3 0.4 0.05 0.4 -0.1 0.4 -0.15 0.35 L-0.1 0.35 0.05 0.3 M0.6 0.15 L0.7 0.05 0.65 0.4 Q0.5 0.85 0.1 0.85 -0.15 0.85 -0.25 0.5 L-0.2 0.45 -0.2 0.35 Q-0.1 0.5 0.15 0.5 0.4 0.5 0.6 0.15" fill="#7b4944" fill-rule="evenodd" stroke="none"/>
    <path d="M0.5 -3.45 L0.55 -3.55 0.6 -3.55 Q0.5 -3.55 0.5 -3.45 M0.7 -3.55 L0.8 -3.55 Q0.9 -3.3 0.95 -2.85 L1.0 -2.35 0.95 -2.3 0.65 -3.15 0.6 -3.25 0.75 -3.3 0.8 -3.4 0.75 -3.55 0.7 -3.55 M0.25 -2.9 L0.3 -2.9 Q0.4 -2.9 0.45 -3.0 L0.45 -3.2 0.65 -2.75 Q0.75 -2.45 0.85 -2.25 L0.7 -2.15 0.65 -2.1 Q0.45 -2.65 0.25 -2.9 M0.15 -3.25 L0.15 -3.2 Q0.15 -3.1 0.15 -3.05 L0.1 -3.15 Q0.1 -3.2 0.15 -3.25 M-0.25 -3.0 L0.05 -3.1 Q0.1 -2.9 0.35 -2.45 L0.35 -2.4 0.4 -2.4 0.4 -2.35 0.55 -2.0 0.45 -1.9 0.35 -1.75 0.15 -1.55 0.15 -1.5 0.0 -1.5 0.0 -1.55 -0.05 -1.55 -0.05 -1.75 0.0 -1.95 Q0.0 -1.85 0.05 -1.8 L0.1 -2.0 0.05 -2.15 0.1 -2.15 0.05 -2.2 0.1 -2.3 Q0.1 -3.0 -0.25 -3.0 M1.25 -1.8 L1.25 -1.75 0.95 -1.45 0.85 -1.45 0.55 -1.25 0.65 -1.3 0.45 -1.25 0.3 -1.25 0.3 -1.3 0.25 -1.4 0.3 -1.45 Q0.3 -1.55 0.35 -1.6 L0.45 -1.7 0.6 -1.8 1.0 -2.2 Q1.05 -2.4 1.25 -1.85 L1.25 -1.8 M0.0 -1.35 L0.15 -1.35 0.2 -1.25 Q0.25 -1.1 0.4 -1.1 L0.55 -1.1 0.55 -1.15 0.75 -1.2 1.15 -0.5 1.05 -0.35 1.0 -0.35 1.0 -0.3 0.85 -0.2 0.7 -0.05 0.5 0.05 Q0.3 0.15 0.1 0.15 L-0.05 0.15 Q-0.2 0.15 -0.3 0.1 L-0.25 0.1 Q0.0 0.1 0.1 -0.8 L0.05 -0.95 0.0 -1.35" fill="#625e48" fill-rule="evenodd" stroke="none"/>
    <path d="M1.6 -2.25 L1.75 -2.0 1.8 -0.9 1.65 -0.45 1.5 -0.6 Q1.3 -0.8 1.15 -0.8 L1.05 -0.8 1.0 -0.95 0.9 -1.2 0.85 -1.25 0.95 -1.35 1.6 -2.25" fill="#724e6f" fill-rule="evenodd" stroke="none"/>
    <path d="M10.05 -11.0 Q10.25 -11.1 10.7 -11.25 L11.3 -11.35 11.45 -11.35 11.45 -11.3 11.55 -11.25 Q11.7 -11.05 11.65 -10.95 L11.6 -10.75 Q11.65 -10.55 11.85 -10.15 11.9 -9.95 12.1 -9.55 L12.6 -8.85 12.7 -8.75 12.9 -8.45 12.95 -8.35 13.0 -8.4 13.05 -8.25 12.95 -7.95 12.7 -7.4 12.65 -7.4 12.6 -7.3 Q12.55 -7.25 12.05 -7.05 L11.55 -6.8 11.4 -6.75 9.85 -5.95 9.8 -5.95 9.75 -6.0 9.4 -6.3 8.55 -7.5 Q8.4 -7.7 8.05 -7.5 L7.8 -7.25 7.7 -7.1 7.65 -6.9 7.4 -6.7 7.0 -6.35 5.45 -5.25 5.05 -4.95 4.45 -4.55 1.75 -2.65 Q1.7 -2.6 1.45 -2.4 1.2 -2.25 1.15 -2.25 1.0 -2.25 0.95 -2.4 L0.95 -2.65 Q0.95 -2.95 1.0 -3.0 L1.1 -3.05 1.1 -3.1 1.2 -3.15 2.75 -4.25 2.9 -4.35 4.8 -6.05 Q5.3 -6.5 5.8 -7.4 L6.1 -7.9 Q6.2 -8.2 6.75 -8.8 L6.85 -8.85 7.75 -9.55 8.95 -10.35 Q9.1 -10.45 9.25 -10.55 L10.0 -11.0 10.05 -11.0 M10.2 -10.1 L10.4 -10.3 10.4 -10.35 10.55 -10.5 10.55 -10.95 10.15 -10.8 9.85 -10.7 8.8 -10.05 8.85 -9.8 8.8 -9.65 8.8 -9.45 8.7 -9.25 8.7 -9.2 8.6 -9.0 Q8.5 -8.8 8.45 -8.5 L8.45 -8.4 8.6 -8.35 8.6 -8.3 8.75 -8.2 Q8.85 -8.15 8.95 -8.1 L9.1 -7.8 9.6 -6.9 9.6 -6.85 9.7 -6.7 9.75 -6.6 9.85 -6.45 9.95 -6.15 10.35 -6.35 10.5 -6.45 Q10.45 -6.55 10.45 -6.7 L10.45 -6.75 10.5 -6.85 10.6 -6.9 10.6 -6.95 10.7 -7.0 10.7 -7.05 11.05 -7.25 11.0 -7.25 Q10.95 -7.35 10.8 -7.35 L10.65 -7.35 10.55 -7.3 10.05 -7.3 10.95 -7.5 11.0 -7.55 11.15 -7.55 11.2 -7.6 11.4 -7.65 11.7 -7.8 Q11.5 -7.7 11.3 -7.6 11.1 -7.5 10.85 -7.45 L10.8 -7.4 10.9 -7.4 Q11.05 -7.35 11.1 -7.25 L11.3 -7.35 Q11.75 -7.55 11.9 -7.7 12.25 -7.95 12.4 -8.1 12.6 -8.3 12.65 -8.55 L12.55 -8.65 12.55 -8.7 12.35 -8.9 12.35 -8.95 12.2 -9.1 Q11.85 -9.6 11.7 -9.95 11.65 -10.05 11.6 -10.2 L11.6 -10.25 11.5 -10.45 11.5 -10.9 11.45 -11.0 11.4 -11.15 11.35 -11.2 11.2 -11.2 11.15 -11.15 10.6 -11.0 10.65 -10.9 10.55 -10.5 10.5 -10.45 10.5 -10.4 10.45 -10.3 10.35 -10.15 10.25 -10.05 10.2 -10.05 10.2 -10.0 10.15 -10.0 10.25 -10.1 10.2 -10.1 M9.1 -8.35 L9.2 -8.2 Q9.35 -8.0 9.45 -7.9 L9.65 -7.75 9.85 -7.5 9.8 -7.45 Q9.25 -7.9 9.05 -8.35 L9.0 -8.45 9.0 -8.75 Q8.95 -8.95 9.0 -9.15 L9.05 -9.25 9.1 -9.3 9.1 -9.4 9.15 -9.4 9.15 -9.5 9.3 -9.7 9.65 -10.05 Q9.7 -10.1 9.7 -10.05 9.65 -9.9 9.5 -9.7 L9.45 -9.7 9.45 -9.65 9.25 -9.4 9.2 -9.35 9.15 -9.25 9.05 -8.85 9.05 -8.7 Q9.05 -8.55 9.1 -8.4 L9.1 -8.35 M9.9 -9.9 Q9.95 -10.05 10.0 -10.1 L10.1 -10.1 10.1 -10.05 10.05 -9.95 10.0 -9.9 10.0 -9.85 9.95 -9.85 9.95 -9.8 9.9 -9.7 9.85 -9.7 9.8 -9.75 9.9 -9.9 M7.45 -7.15 L7.5 -7.35 7.7 -7.6 7.9 -8.0 8.0 -8.3 8.2 -8.35 8.35 -8.4 8.4 -8.4 Q8.35 -8.45 8.35 -8.6 8.35 -8.75 8.5 -9.0 L8.55 -9.05 8.55 -9.1 8.6 -9.2 8.7 -9.35 Q8.75 -9.55 8.75 -9.75 L8.75 -10.0 Q8.7 -9.95 8.7 -10.0 L7.8 -9.35 Q6.95 -8.7 6.75 -8.5 L6.65 -8.35 6.2 -7.75 6.15 -7.6 5.75 -6.85 Q5.55 -6.5 5.35 -6.3 L5.3 -6.25 4.95 -5.85 4.4 -5.3 4.45 -4.75 4.65 -4.85 5.0 -5.3 5.35 -5.7 5.45 -5.85 5.6 -6.0 5.9 -6.4 6.1 -6.6 7.45 -8.2 7.85 -8.65 7.75 -8.5 7.75 -8.45 7.7 -8.45 7.7 -8.4 6.9 -7.45 6.75 -7.25 6.75 -7.2 6.65 -7.1 6.25 -6.6 6.1 -6.4 6.05 -6.35 5.75 -6.0 5.1 -5.25 5.05 -5.15 6.05 -5.85 7.1 -6.6 7.25 -6.75 7.5 -6.95 7.45 -7.0 7.45 -7.15 M6.7 -8.25 L6.75 -8.25 Q6.85 -8.15 6.85 -7.9 L6.8 -7.65 6.75 -7.45 6.7 -7.45 6.75 -7.65 6.8 -7.9 6.7 -8.2 6.7 -8.25 M6.9 -8.25 L6.95 -8.25 7.0 -8.0 6.95 -8.1 6.9 -8.25 M8.1 -8.15 L7.9 -7.75 Q7.8 -7.55 7.7 -7.35 L7.95 -7.55 Q8.15 -7.7 8.35 -7.75 L8.6 -7.75 8.65 -7.7 8.7 -7.55 9.5 -6.4 9.6 -6.3 Q9.7 -6.15 9.85 -6.15 L9.0 -7.6 9.0 -7.75 8.95 -7.85 8.95 -7.9 8.75 -8.15 Q8.6 -8.3 8.4 -8.3 8.3 -8.3 8.15 -8.15 L8.1 -8.15 M10.85 -10.3 Q10.75 -10.4 10.7 -10.4 L10.75 -10.4 Q10.85 -10.4 11.1 -10.25 L11.15 -10.2 11.4 -10.05 11.5 -10.0 11.5 -9.9 11.45 -9.9 11.35 -9.95 Q11.25 -10.0 11.15 -10.1 L11.1 -10.1 11.05 -10.15 10.85 -10.3 M12.25 -7.55 Q12.25 -7.7 12.2 -7.8 L12.1 -7.75 Q11.9 -7.6 11.4 -7.35 L11.15 -7.2 11.15 -7.15 11.1 -7.15 10.75 -6.95 10.7 -6.95 Q10.5 -6.8 10.5 -6.65 10.5 -6.55 10.55 -6.5 L10.55 -6.45 10.6 -6.45 10.7 -6.55 10.85 -6.65 10.9 -6.7 11.3 -7.0 11.45 -7.15 11.5 -7.15 11.15 -6.8 Q11.3 -6.85 11.45 -6.95 L11.6 -7.05 11.85 -7.15 12.2 -7.3 12.25 -7.35 12.25 -7.45 12.25 -7.55 M3.55 -4.35 L3.3 -4.25 3.15 -4.25 3.0 -4.2 2.95 -4.15 2.75 -4.05 2.7 -4.0 1.7 -3.3 1.55 -3.1 1.3 -2.85 1.15 -2.6 1.1 -2.55 1.1 -2.4 1.15 -2.4 1.25 -2.5 4.05 -4.5 3.55 -4.35 M1.45 -3.15 L1.3 -3.05 1.1 -2.85 1.1 -2.75 1.2 -2.8 1.55 -3.2 1.45 -3.15 M0.05 -2.2 L0.1 -2.15 0.1 -1.9 0.05 -1.85 0.0 -1.75 0.0 -1.7 -0.3 -1.5 -0.4 -1.4 Q-0.4 -1.35 -0.5 -1.3 -0.55 -1.25 -0.75 -1.15 L-3.0 0.4 -2.45 1.3 -2.1 1.8 -2.1 1.9 -2.05 1.9 Q-2.15 2.1 -2.4 2.3 L-2.5 2.35 -2.55 2.35 -2.65 2.4 -2.65 2.35 -2.7 2.4 -3.5 1.15 -4.75 -0.85 -4.8 -0.9 Q-4.8 -1.0 -4.5 -1.15 L-4.35 -1.35 Q-4.25 -1.45 -4.15 -1.35 L-3.7 -0.65 -3.65 -0.65 -3.35 -0.15 -3.0 -0.3 -2.9 -0.4 -2.05 -1.0 -1.9 -1.1 -1.8 -1.2 -1.0 -1.85 -0.95 -1.9 -0.9 -1.9 -0.75 -2.0 -0.15 -2.45 0.0 -2.15 0.0 -2.25 0.05 -2.15 0.05 -2.2 M12.8 -8.35 L12.75 -8.45 12.75 -8.4 12.55 -8.15 12.2 -7.8 12.3 -7.75 12.35 -7.6 12.35 -7.35 12.4 -7.4 12.55 -7.45 12.5 -7.45 12.6 -7.55 12.65 -7.55 Q12.65 -7.7 12.75 -7.9 L12.85 -8.15 12.9 -8.2 12.8 -8.35 M12.55 -7.45 L12.55 -7.45 M-2.35 1.7 L-2.55 1.4 -3.1 0.5 -3.2 0.4 -3.3 0.2 -3.3 0.15 -3.45 0.0 -3.75 -0.55 -4.2 -1.2 Q-4.25 -1.15 -4.35 -1.05 -4.2 -1.0 -4.1 -0.65 L-4.0 -0.3 -4.45 -1.05 Q-4.45 -1.0 -4.5 -1.0 L-4.6 -0.95 -4.6 -0.9 -4.0 0.05 -3.5 0.8 Q-3.45 0.85 -3.3 0.9 L-3.3 0.95 Q-3.05 1.05 -2.95 1.15 L-2.6 1.65 -2.5 1.75 -2.35 1.8 -2.3 1.85 -2.25 1.85 -2.3 1.8 -2.3 1.75 -2.35 1.75 -2.35 1.7 M-3.3 -0.05 L-3.2 0.1 -2.95 -0.15 -2.55 -0.4 -3.15 -0.1 -3.3 -0.05 M-0.7 -1.85 L-1.4 -1.35 -1.5 -1.3 -1.5 -1.25 -1.6 -1.2 -1.65 -1.15 -2.4 -0.55 Q-2.0 -0.8 -1.45 -1.0 L-1.35 -1.0 Q-1.15 -1.1 -1.0 -1.2 L-0.65 -1.4 -0.2 -1.7 -0.15 -1.85 -0.1 -1.9 -0.05 -2.0 -0.05 -2.1 -0.1 -2.15 -0.1 -2.25 -0.2 -2.15 -0.25 -2.15 -0.65 -1.85 -0.7 -1.85 M-1.9 -0.7 L-2.0 -0.7 Q-2.2 -0.55 -2.4 -0.45 L-2.45 -0.45 -2.9 -0.05 -3.15 0.15 -3.1 0.25 -3.05 0.3 -2.15 -0.35 -1.65 -0.7 -1.4 -0.9 -1.25 -1.0 -1.3 -0.95 -1.35 -0.95 -1.9 -0.7 M-2.6 2.25 L-2.6 2.3 -2.5 2.2 -2.3 1.95 -2.35 1.95 Q-2.45 1.9 -2.55 1.8 L-2.6 1.75 -3.0 1.15 -3.35 1.0 -3.4 1.0 -3.35 1.05 -3.05 1.55 -2.8 1.95 -2.6 2.25" fill="#000000" fill-rule="evenodd" stroke="none"/>
    <path d="M11.1 -10.1 Q11.0 -10.15 10.9 -10.25 L10.85 -10.3 11.05 -10.15 11.1 -10.1 M12.75 -8.4 L12.75 -8.45 12.8 -8.35 12.75 -8.4 M12.4 -7.4 L12.35 -7.35 12.4 -7.4 M-2.3 1.8 L-2.25 1.85 -2.3 1.85 -2.3 1.8 M-1.3 -0.95 L-1.25 -1.0 -1.3 -0.95" fill="#e8c27d" fill-rule="evenodd" stroke="none"/>
    <path d="M9.85 -6.45 L9.75 -6.6 9.7 -6.7 9.6 -6.85 9.6 -6.9 9.1 -7.8 8.95 -8.1 Q8.85 -8.15 8.75 -8.2 L8.6 -8.3 8.6 -8.35 8.45 -8.4 8.45 -8.5 Q8.5 -8.8 8.6 -9.0 L8.7 -9.2 8.7 -9.25 8.8 -9.45 8.8 -9.65 8.85 -9.8 8.8 -10.05 9.85 -10.7 10.15 -10.8 10.55 -10.95 10.55 -10.5 10.4 -10.35 10.4 -10.3 10.2 -10.1 10.1 -10.05 10.1 -10.1 10.0 -10.1 Q9.95 -10.05 9.9 -9.9 9.65 -9.75 9.45 -9.7 L9.5 -9.7 Q9.65 -9.9 9.7 -10.05 9.7 -10.1 9.65 -10.05 L9.3 -9.7 9.15 -9.5 9.15 -9.4 9.15 -9.45 9.05 -9.35 9.0 -9.25 8.9 -8.85 8.9 -8.65 Q8.95 -8.4 9.05 -8.35 9.25 -7.9 9.8 -7.45 L9.85 -7.5 9.65 -7.75 9.45 -7.9 Q9.35 -8.0 9.2 -8.2 L9.1 -8.35 Q9.2 -8.35 9.2 -8.45 9.4 -9.3 10.1 -9.75 10.45 -10.0 10.8 -10.1 L10.75 -10.2 10.35 -10.15 10.45 -10.3 10.5 -10.4 10.5 -10.45 10.55 -10.5 10.65 -10.9 10.6 -11.0 11.15 -11.15 11.2 -11.2 11.35 -11.2 11.4 -11.15 11.45 -11.0 11.5 -10.9 11.5 -10.45 11.6 -10.25 11.6 -10.2 Q11.65 -10.05 11.7 -9.95 11.85 -9.6 12.2 -9.1 L12.35 -8.95 12.35 -8.9 12.55 -8.7 12.55 -8.65 12.65 -8.55 Q12.6 -8.3 12.4 -8.1 12.25 -7.95 11.9 -7.7 11.75 -7.55 11.3 -7.35 L11.1 -7.25 Q11.05 -7.35 10.9 -7.4 L10.8 -7.4 10.85 -7.45 Q11.1 -7.5 11.3 -7.6 11.5 -7.7 11.7 -7.8 L11.4 -7.65 11.2 -7.6 11.15 -7.55 11.0 -7.55 10.95 -7.5 10.05 -7.3 10.55 -7.3 10.65 -7.35 10.8 -7.35 Q10.95 -7.35 11.0 -7.25 L11.05 -7.25 10.7 -7.05 10.7 -7.0 10.6 -6.95 10.6 -6.9 10.5 -6.85 10.45 -6.75 10.45 -6.7 Q10.15 -6.65 9.95 -6.55 L9.8 -6.45 9.85 -6.45 M6.05 -5.85 L5.05 -5.15 5.1 -5.25 5.75 -6.0 6.05 -6.35 6.1 -6.4 6.25 -6.6 6.65 -7.1 6.75 -7.2 6.75 -7.25 6.9 -7.45 7.7 -8.4 7.7 -8.45 7.75 -8.45 7.75 -8.5 7.85 -8.65 7.45 -8.2 6.1 -6.6 5.9 -6.4 5.6 -6.0 5.45 -5.85 5.35 -5.7 5.0 -5.3 4.65 -4.85 4.45 -4.75 4.4 -5.3 4.95 -5.85 5.3 -6.25 5.35 -6.3 Q5.55 -6.5 5.75 -6.85 L6.15 -7.6 6.2 -7.75 6.65 -8.35 6.75 -8.5 Q6.95 -8.7 7.8 -9.35 L8.7 -10.0 Q8.7 -9.95 8.75 -10.0 L8.75 -9.75 Q8.75 -9.55 8.7 -9.35 L8.6 -9.2 8.55 -9.1 8.55 -9.05 8.5 -9.0 Q8.35 -8.75 8.35 -8.6 8.35 -8.45 8.4 -8.4 L8.35 -8.4 8.2 -8.35 8.0 -8.3 7.9 -8.0 7.7 -7.6 7.5 -7.35 7.45 -7.15 7.4 -7.2 6.6 -6.55 6.15 -6.1 Q6.05 -6.0 6.05 -5.9 L6.05 -5.85 M7.45 -7.0 L7.5 -6.95 7.25 -6.75 7.1 -6.6 7.45 -7.0 M6.9 -8.25 L6.95 -8.1 7.0 -8.0 6.95 -8.25 6.9 -8.25 M6.7 -8.25 L6.7 -8.2 6.8 -7.9 6.75 -7.65 6.7 -7.45 6.75 -7.45 6.8 -7.65 6.85 -7.9 Q6.85 -8.15 6.75 -8.25 L6.7 -8.25 M10.85 -10.3 L10.9 -10.25 Q11.0 -10.15 11.1 -10.1 L11.15 -10.1 Q11.25 -10.0 11.35 -9.95 L11.45 -9.9 11.5 -9.9 11.5 -10.0 11.4 -10.05 11.15 -10.2 11.1 -10.25 Q10.85 -10.4 10.75 -10.4 L10.7 -10.4 Q10.75 -10.4 10.85 -10.3 M10.1 -7.5 L10.1 -7.55 9.9 -7.55 Q9.8 -7.5 9.8 -7.45 L9.85 -7.35 9.9 -7.3 10.0 -7.3 Q10.1 -7.3 10.1 -7.35 L10.15 -7.45 10.1 -7.5 M10.5 -6.65 Q10.5 -6.8 10.7 -6.95 L10.75 -6.95 11.1 -7.15 11.15 -7.15 11.15 -7.2 11.4 -7.35 Q11.9 -7.6 12.1 -7.75 L12.2 -7.8 Q12.25 -7.7 12.25 -7.55 L12.25 -7.6 Q11.9 -7.45 11.25 -7.1 L10.5 -6.65 M12.25 -7.45 L12.25 -7.35 12.2 -7.3 11.85 -7.15 12.0 -7.2 12.25 -7.45 M1.15 -2.6 L1.25 -2.5 1.3 -2.5 3.3 -3.95 3.55 -4.35 4.05 -4.5 1.25 -2.5 1.15 -2.4 1.1 -2.4 1.1 -2.55 1.15 -2.6 1.3 -2.85 1.55 -3.1 1.7 -3.3 2.7 -4.0 2.75 -4.05 2.95 -4.15 3.0 -4.2 3.15 -4.25 3.3 -4.25 Q3.2 -4.05 2.4 -3.5 L1.45 -2.9 1.15 -2.6 M1.45 -3.15 L1.55 -3.2 1.2 -2.8 1.1 -2.75 1.1 -2.85 1.3 -3.05 1.45 -3.15 M12.75 -8.4 L12.8 -8.35 12.9 -8.2 Q12.8 -8.4 12.5 -8.0 L12.3 -7.75 12.2 -7.8 12.55 -8.15 12.75 -8.4 M-2.6 1.65 L-2.95 1.15 Q-3.05 1.05 -3.3 0.95 L-3.3 0.9 Q-3.45 0.85 -3.5 0.8 L-4.0 0.05 -4.6 -0.9 -4.6 -0.95 -4.5 -1.0 Q-4.45 -1.0 -4.45 -1.05 L-4.0 -0.3 -4.1 -0.65 Q-4.2 -1.0 -4.35 -1.05 -4.25 -1.15 -4.2 -1.2 L-3.75 -0.55 -3.45 0.0 -3.3 0.15 -3.3 0.2 -3.2 0.4 -3.1 0.5 -2.55 1.4 -2.35 1.7 -2.4 1.6 Q-2.55 1.6 -2.6 1.65 M-2.3 1.85 L-2.35 1.8 -2.3 1.85 -2.3 1.8 -2.3 1.85 M-0.7 -1.85 L-0.65 -1.85 -0.25 -2.15 -0.2 -2.15 -0.1 -2.25 -0.1 -2.15 -0.05 -2.1 -0.05 -2.0 -0.1 -1.9 -0.15 -1.85 -0.2 -1.7 -0.65 -1.4 -1.0 -1.2 Q-1.15 -1.1 -1.35 -1.0 L-1.45 -1.0 Q-2.0 -0.8 -2.4 -0.55 L-1.65 -1.15 -1.6 -1.2 -1.5 -1.25 -1.5 -1.3 -1.4 -1.35 -0.7 -1.85 M-3.3 -0.05 L-3.15 -0.1 -2.55 -0.4 -2.95 -0.15 -3.2 0.1 -3.3 -0.05 M-2.9 -0.05 L-3.15 0.2 -3.1 0.25 -3.15 0.15 -2.9 -0.05 M-1.65 -0.7 L-1.9 -0.7 -1.35 -0.95 -1.3 -0.95 -1.25 -1.0 -1.4 -0.9 -1.65 -0.7 M-2.35 1.95 L-2.3 1.95 -2.5 2.2 -2.6 2.3 -2.6 2.25 -2.4 2.05 -2.35 1.95 M-2.8 1.95 L-3.05 1.55 -3.35 1.05 -3.4 1.0 -3.35 1.0 -3.0 1.15 -2.6 1.75 -2.8 1.95" fill="#d28857" fill-rule="evenodd" stroke="none"/>
    <path d="M9.85 -6.45 L9.8 -6.45 9.95 -6.55 Q10.15 -6.65 10.45 -6.7 10.45 -6.55 10.5 -6.45 L10.35 -6.35 9.95 -6.15 9.85 -6.45 M10.35 -10.15 L10.75 -10.2 10.8 -10.1 Q10.45 -10.0 10.1 -9.75 9.4 -9.3 9.2 -8.45 9.2 -8.35 9.1 -8.35 L9.1 -8.4 Q9.05 -8.55 9.05 -8.7 L9.05 -8.85 9.15 -9.25 9.2 -9.35 9.25 -9.4 9.45 -9.65 9.45 -9.7 Q9.65 -9.75 9.9 -9.9 L9.8 -9.75 9.85 -9.7 9.9 -9.7 9.95 -9.8 9.95 -9.85 10.0 -9.85 10.0 -9.9 10.05 -9.95 10.1 -10.05 10.2 -10.1 10.25 -10.1 10.15 -10.0 10.2 -10.0 10.2 -10.05 10.25 -10.05 10.35 -10.15 M9.05 -8.35 Q8.95 -8.4 8.9 -8.65 L8.9 -8.85 9.0 -9.25 9.05 -9.35 9.15 -9.45 9.15 -9.4 9.1 -9.4 9.1 -9.3 9.05 -9.25 9.0 -9.15 Q8.95 -8.95 9.0 -8.75 L9.0 -8.45 9.05 -8.35 M6.05 -5.85 L6.05 -5.9 Q6.05 -6.0 6.15 -6.1 L6.6 -6.55 7.4 -7.2 7.45 -7.15 7.45 -7.0 7.1 -6.6 6.05 -5.85 M8.1 -8.15 L8.15 -8.15 Q8.3 -8.3 8.4 -8.3 8.6 -8.3 8.75 -8.15 L8.95 -7.9 8.95 -7.85 9.0 -7.75 9.0 -7.6 9.85 -6.15 Q9.7 -6.15 9.6 -6.3 L9.5 -6.4 8.7 -7.55 8.65 -7.7 8.6 -7.75 8.35 -7.75 Q8.15 -7.7 7.95 -7.55 L7.7 -7.35 Q7.8 -7.55 7.9 -7.75 L8.1 -8.15 M10.1 -7.5 L10.15 -7.45 10.1 -7.35 Q10.1 -7.3 10.0 -7.3 L9.9 -7.3 9.85 -7.35 9.8 -7.45 Q9.8 -7.5 9.9 -7.55 L10.1 -7.55 10.1 -7.5 M10.5 -6.65 L11.25 -7.1 Q11.9 -7.45 12.25 -7.6 L12.25 -7.55 12.25 -7.45 12.0 -7.2 11.85 -7.15 11.6 -7.05 11.45 -6.95 Q11.3 -6.85 11.15 -6.8 L11.5 -7.15 11.45 -7.15 11.3 -7.0 10.9 -6.7 10.85 -6.65 10.7 -6.55 10.6 -6.45 10.55 -6.45 10.55 -6.5 Q10.5 -6.55 10.5 -6.65 M3.55 -4.35 L3.3 -3.95 1.3 -2.5 1.25 -2.5 1.15 -2.6 1.45 -2.9 2.4 -3.5 Q3.2 -4.05 3.3 -4.25 L3.55 -4.35 M12.9 -8.2 L12.85 -8.15 12.75 -7.9 Q12.65 -7.7 12.65 -7.55 L12.6 -7.55 12.5 -7.45 12.55 -7.45 12.4 -7.4 12.35 -7.35 12.35 -7.6 12.3 -7.75 12.5 -8.0 Q12.8 -8.4 12.9 -8.2 M12.55 -7.45 L12.55 -7.45 M-2.6 1.65 Q-2.55 1.6 -2.4 1.6 L-2.35 1.7 -2.35 1.75 -2.3 1.75 -2.3 1.8 -2.3 1.85 -2.35 1.8 -2.5 1.75 -2.6 1.65 M-2.9 -0.05 L-2.45 -0.45 -2.4 -0.45 Q-2.2 -0.55 -2.0 -0.7 L-1.9 -0.7 -1.65 -0.7 -2.15 -0.35 -3.05 0.3 -3.1 0.25 -3.15 0.2 -2.9 -0.05 M-2.35 1.95 L-2.4 2.05 -2.6 2.25 -2.8 1.95 -2.6 1.75 -2.55 1.8 Q-2.45 1.9 -2.35 1.95" fill="#b06039" fill-rule="evenodd" stroke="none"/>
    <path d="M4.25 -5.5 L4.25 -5.6 Q4.25 -5.7 4.35 -5.75 4.4 -5.6 4.5 -5.1 L4.55 -4.95 4.55 -4.9 4.7 -4.15 4.6 -4.05 Q4.55 -4.2 4.45 -4.5 4.35 -4.85 4.25 -5.5 M1.4 -2.0 L1.5 -2.35 1.55 -2.65 Q1.65 -2.8 1.8 -2.9 L2.2 -3.15 2.45 -3.35 2.5 -3.4 2.55 -3.35 Q2.8 -3.3 3.05 -3.0 L3.1 -2.9 3.1 -3.3 Q3.1 -3.85 3.0 -4.4 2.9 -4.9 2.9 -5.1 L2.95 -5.2 Q3.05 -5.05 3.15 -4.65 L3.2 -4.35 3.3 -3.55 3.3 -3.3 3.25 -2.85 3.25 -2.7 3.45 -2.4 Q3.7 -2.45 4.3 -3.1 L5.0 -3.85 5.05 -3.95 5.15 -4.1 5.4 -4.0 5.75 -3.8 Q6.15 -3.4 6.4 -2.85 L6.65 -2.05 7.0 -1.35 7.0 -1.3 7.05 -1.15 7.05 -1.1 Q6.85 -0.9 5.85 -0.65 L5.4 -0.55 Q4.65 -0.35 4.3 -0.35 L4.25 -0.35 3.4 -0.3 Q2.5 -0.3 1.8 -0.55 1.35 -0.75 1.15 -0.9 L1.15 -0.85 1.1 -0.85 1.1 -0.9 1.15 -0.95 1.1 -1.0 1.1 -1.1 Q1.2 -1.15 1.3 -1.25 L1.5 -1.6 1.75 -2.15 1.85 -2.25 1.85 -2.2 1.75 -1.95 1.65 -1.65 1.6 -1.55 1.25 -1.05 1.3 -1.0 1.6 -0.9 1.9 -0.8 2.15 -0.7 2.25 -0.65 2.3 -0.65 Q2.85 -0.5 3.5 -0.45 L3.9 -0.45 4.5 -0.5 Q5.2 -0.6 5.95 -0.8 L6.4 -1.0 6.5 -1.0 6.45 -1.05 6.8 -1.15 6.85 -1.2 6.85 -1.25 6.8 -1.3 6.8 -1.35 6.75 -1.4 Q6.25 -2.35 6.15 -2.7 L5.8 -3.4 Q5.75 -3.55 5.35 -3.75 L5.15 -3.85 Q4.65 -3.2 4.3 -2.85 L3.95 -2.55 Q3.55 -2.2 3.25 -2.1 L3.0 -2.05 Q2.9 -2.05 2.75 -2.15 L2.75 -2.25 2.8 -2.15 Q2.85 -2.1 3.0 -2.1 3.1 -2.1 3.3 -2.2 L3.5 -2.3 3.45 -2.3 Q3.35 -2.3 3.3 -2.35 3.2 -2.4 3.1 -2.5 L3.1 -2.55 Q3.05 -2.55 3.05 -2.6 L3.0 -2.7 3.0 -2.75 2.8 -3.0 2.75 -3.05 2.55 -3.25 1.9 -2.75 1.8 -2.6 1.75 -2.5 Q1.65 -2.5 1.4 -2.05 L1.4 -2.0 M1.05 -1.4 Q1.0 -1.35 0.95 -1.3 L0.9 -1.3 0.9 -1.35 Q0.9 -1.4 1.1 -1.55 1.25 -1.7 1.25 -2.0 L1.35 -1.95 1.35 -1.8 Q1.35 -1.7 1.2 -1.55 L1.05 -1.4 M5.25 -4.0 L5.25 -4.0" fill="#000000" fill-rule="evenodd" stroke="none"/>
    <path d="M1.4 -2.05 Q1.65 -2.5 1.75 -2.5 L1.8 -2.6 1.9 -2.75 2.55 -3.25 2.75 -3.05 Q2.5 -3.1 2.5 -2.6 2.5 -2.45 2.55 -2.3 2.7 -1.95 3.0 -1.95 3.1 -1.95 3.2 -2.05 L3.25 -2.1 Q3.55 -2.2 3.95 -2.55 L4.3 -2.85 Q4.65 -3.2 5.15 -3.85 L5.35 -3.75 Q5.45 -3.55 5.45 -3.35 5.45 -2.75 4.9 -1.75 4.35 -0.6 3.5 -0.45 2.85 -0.5 2.3 -0.65 L2.25 -0.65 2.15 -0.7 1.9 -0.8 1.6 -0.9 1.55 -1.0 Q1.5 -1.05 1.5 -1.15 L1.65 -1.45 Q1.8 -1.75 1.8 -1.85 L1.8 -2.0 1.75 -1.95 1.85 -2.2 1.85 -2.25 1.75 -2.15 Q1.7 -2.4 1.4 -2.05 M3.3 -2.35 Q3.35 -2.3 3.45 -2.3 L3.5 -2.3 3.3 -2.2 3.3 -2.35" fill="#724e6f" fill-rule="evenodd" stroke="none"/>
    <path d="M1.1 -1.1 L1.05 -1.1 Q1.0 -1.1 0.95 -1.15 L0.95 -1.2 1.05 -1.4 1.2 -1.55 Q1.35 -1.7 1.35 -1.8 L1.35 -1.95 1.4 -2.0 1.4 -2.05 Q1.7 -2.4 1.75 -2.15 L1.5 -1.6 1.3 -1.25 Q1.2 -1.15 1.1 -1.1 M2.75 -3.05 L2.8 -3.0 3.0 -2.75 3.0 -2.7 3.05 -2.6 Q3.05 -2.55 3.1 -2.55 L3.1 -2.5 Q3.2 -2.4 3.3 -2.35 L3.3 -2.2 Q3.1 -2.1 3.0 -2.1 2.85 -2.1 2.8 -2.15 L2.75 -2.25 2.75 -2.15 Q2.9 -2.05 3.0 -2.05 L3.25 -2.1 3.2 -2.05 Q3.1 -1.95 3.0 -1.95 2.7 -1.95 2.55 -2.3 2.5 -2.45 2.5 -2.6 2.5 -3.1 2.75 -3.05 M5.35 -3.75 Q5.75 -3.55 5.8 -3.4 L6.15 -2.7 Q6.25 -2.35 6.75 -1.4 L6.8 -1.35 6.8 -1.3 6.85 -1.25 6.85 -1.2 6.8 -1.15 6.45 -1.05 6.5 -1.0 6.4 -1.0 5.95 -0.8 Q5.2 -0.6 4.5 -0.5 L3.9 -0.45 3.5 -0.45 Q4.35 -0.6 4.9 -1.75 5.45 -2.75 5.45 -3.35 5.45 -3.55 5.35 -3.75 M1.6 -0.9 L1.3 -1.0 1.25 -1.05 1.6 -1.55 1.65 -1.65 1.75 -1.95 1.8 -2.0 1.8 -1.85 Q1.8 -1.75 1.65 -1.45 L1.5 -1.15 Q1.5 -1.05 1.55 -1.0 L1.6 -0.9" fill="#593c4d" fill-rule="evenodd" stroke="none"/>
    <path d="M4.25 -5.5 Q4.35 -4.85 4.45 -4.5 L4.2 -4.2 Q3.9 -3.9 3.75 -3.9 3.7 -3.9 3.6 -4.0 3.55 -3.45 3.4 -3.45 3.35 -3.45 3.3 -3.55 L3.2 -4.35 3.15 -4.65 Q3.15 -4.8 3.2 -4.9 3.3 -5.1 3.6 -5.3 L3.65 -5.25 3.7 -5.25 Q3.8 -5.25 4.0 -5.45 4.15 -5.55 4.25 -5.5 M4.55 -4.95 L4.5 -5.1 4.55 -5.05 4.55 -4.95" fill="#d18252" fill-rule="evenodd" stroke="none"/>
  </g>
</svg>
