<?xml version="1.0" encoding="UTF-8" standalone="no"?>
<svg xmlns:ffdec="https://www.free-decompiler.com/flash" xmlns:xlink="http://www.w3.org/1999/xlink" ffdec:objectType="shape" height="20.85px" width="9.8px" xmlns="http://www.w3.org/2000/svg">
  <g transform="matrix(1.0, 0.0, 0.0, 1.0, 4.75, 10.45)">
    <path d="M4.7 9.75 L4.75 9.8 4.6 9.9 4.5 10.0 Q4.25 10.1 3.8 10.2 2.95 10.4 1.45 10.4 0.15 10.4 -1.1 10.15 -1.9 9.95 -2.4 9.75 L-2.5 9.85 -2.7 9.65 -2.7 9.6 -2.8 9.5 -2.7 9.5 Q-2.7 9.0 -2.55 8.1 -2.35 7.15 -2.35 6.15 L-2.2 4.1 Q-2.0 2.2 -2.0 0.35 -2.0 -0.25 -2.15 -0.85 -2.25 -1.4 -2.45 -1.75 L-2.5 -1.75 -2.8 -1.35 -3.2 -0.85 -3.15 -0.85 -3.2 -0.75 Q-3.25 -0.7 -3.4 -0.7 -3.65 -0.7 -4.2 -1.2 -4.75 -1.6 -4.75 -1.75 -4.75 -2.15 -3.4 -4.2 -2.45 -5.65 -2.0 -6.25 -0.8 -7.65 0.25 -8.65 L0.4 -8.8 Q0.75 -9.2 1.15 -9.5 1.8 -10.25 2.4 -10.4 L2.75 -10.45 2.85 -10.45 2.9 -10.25 2.9 -10.2 2.95 -10.1 2.7 -10.1 2.5 -10.1 2.3 -10.05 Q1.85 -9.7 1.4 -9.35 L1.35 -9.3 Q0.15 -8.05 -1.0 -6.7 L-2.25 -5.25 Q-2.9 -4.35 -3.55 -3.35 L-3.3 -3.15 -3.45 -3.3 Q-2.75 -2.8 -2.25 -1.9 -1.85 -1.1 -1.8 -0.4 -1.7 0.1 -1.65 0.7 -1.65 1.0 -1.65 3.05 -1.65 3.5 -1.85 4.9 L-2.1 6.5 Q-2.05 7.75 -2.05 8.4 -2.1 9.15 -2.3 9.55 L-1.85 9.6 -0.95 9.7 -0.45 9.8 1.45 9.9 3.7 9.8 4.1 9.7 4.55 9.65 Q4.7 9.65 4.65 9.7 L4.7 9.75 M2.0 -9.95 L2.1 -10.05 2.0 -10.0 2.0 -9.95 M-2.75 -2.0 L-3.1 -2.5 Q-3.25 -2.75 -3.5 -2.9 L-3.75 -3.05 -4.25 -2.3 Q-4.4 -2.0 -4.4 -1.85 -4.4 -1.7 -3.8 -1.35 L-3.45 -1.1 -3.35 -1.0 -3.0 -1.5 -2.8 -1.75 -2.7 -1.95 -2.75 -2.0" fill="#111111" fill-rule="evenodd" stroke="none"/>
    <path d="M-3.5 -2.9 L-3.6 -2.9 Q-3.55 -2.75 -3.75 -2.45 -3.95 -2.05 -3.95 -2.0 -3.95 -1.85 -3.65 -1.4 L-3.45 -1.1 -3.8 -1.35 Q-4.4 -1.7 -4.4 -1.85 -4.4 -2.0 -4.25 -2.3 L-3.75 -3.05 -3.5 -2.9 M-2.8 -1.75 L-2.75 -2.0 -2.7 -1.95 -2.8 -1.75" fill="#80c0f0" fill-rule="evenodd" stroke="none"/>
    <path d="M-1.85 9.6 L-2.3 9.55 Q-2.1 9.15 -2.05 8.4 -2.05 7.75 -2.1 6.5 L-1.85 4.9 Q-1.65 3.5 -1.65 3.05 -1.65 1.0 -1.65 0.7 -1.7 0.1 -1.8 -0.4 -1.85 -1.1 -2.25 -1.9 -2.75 -2.8 -3.45 -3.3 L-3.3 -3.15 -3.55 -3.35 Q-2.9 -4.35 -2.25 -5.25 L-1.0 -6.7 Q0.15 -8.05 1.35 -9.3 L1.4 -9.35 Q1.85 -9.7 2.3 -10.05 L2.5 -10.1 2.7 -10.1 2.45 -9.8 Q1.4 -8.9 -0.35 -6.9 -2.45 -4.5 -2.45 -4.3 L-2.45 -4.2 -2.4 -4.2 Q-1.4 -5.1 -0.05 -6.55 -1.75 -4.3 -1.75 -3.8 L-1.2 -2.65 Q-0.65 -1.45 -0.65 -0.5 L-0.5 4.85 Q-0.5 5.4 -0.6 5.55 -0.75 5.25 -0.8 4.65 L-0.85 4.3 -0.85 3.9 -1.05 1.65 -1.15 1.65 -1.3 4.55 -1.35 5.2 -1.5 6.6 -1.75 8.0 Q-1.9 8.85 -1.9 9.45 L-1.85 9.6" fill="#b00000" fill-rule="evenodd" stroke="none"/>
    <path d="M4.7 9.75 L4.65 9.7 Q4.7 9.65 4.55 9.65 L4.1 9.7 3.7 9.8 1.45 9.9 -0.45 9.8 -0.95 9.7 -1.85 9.6 -1.9 9.45 Q-1.9 8.85 -1.75 8.0 L-1.5 6.6 -1.35 5.2 -1.3 4.55 -1.15 1.65 -1.05 1.65 -0.85 3.9 -0.85 4.3 -0.8 4.65 Q-0.75 5.25 -0.6 5.55 -0.5 5.4 -0.5 4.85 L-0.65 -0.5 Q-0.65 -1.45 -1.2 -2.65 L-1.75 -3.8 Q-1.75 -4.3 -0.05 -6.55 -1.4 -5.1 -2.4 -4.2 L-2.45 -4.2 -2.45 -4.3 Q-2.45 -4.5 -0.35 -6.9 1.4 -8.9 2.45 -9.8 L2.7 -10.1 2.95 -10.1 2.9 -10.2 2.9 -10.25 2.95 -10.2 3.0 -10.1 Q3.95 -9.05 4.2 -7.2 L4.35 -5.5 Q4.4 -4.35 4.45 -3.8 L4.75 -0.55 Q5.05 2.3 5.05 2.85 5.05 4.25 4.9 6.35 L4.9 8.45 Q4.85 9.35 4.7 9.75 M4.15 1.2 L4.15 1.25 Q4.15 1.4 4.2 1.4 L4.2 1.5 Q4.2 1.3 4.15 1.2 M4.25 2.0 Q4.25 1.75 4.2 1.6 L4.25 2.0 M4.3 2.25 L4.25 2.2 4.25 2.45 4.3 2.25" fill="#600000" fill-rule="evenodd" stroke="none"/>
    <path d="M-3.5 -2.9 Q-3.25 -2.75 -3.1 -2.5 L-2.75 -2.0 -2.8 -1.75 -3.0 -1.5 -3.35 -1.0 -3.45 -1.1 -3.65 -1.4 Q-3.95 -1.85 -3.95 -2.0 -3.95 -2.05 -3.75 -2.45 -3.55 -2.75 -3.6 -2.9 L-3.5 -2.9" fill="#0070e0" fill-rule="evenodd" stroke="none"/>
  </g>
</svg>
