<?xml version="1.0" encoding="UTF-8" standalone="no"?>
<svg xmlns:ffdec="https://www.free-decompiler.com/flash" xmlns:xlink="http://www.w3.org/1999/xlink" ffdec:objectType="shape" height="57.2px" width="39.05px" xmlns="http://www.w3.org/2000/svg">
  <g transform="matrix(1.0, 0.0, 0.0, 1.0, 19.55, 29.25)">
    <path d="M19.35 -26.6 L19.3 -26.3 Q19.2 -26.05 18.95 -26.0 L18.8 -25.85 14.85 -25.3 9.55 -25.45 8.3 -25.65 Q8.1 -25.5 7.5 -25.5 L5.2 -25.7 2.95 -26.0 -5.6 -25.15 -8.75 -23.0 -1.05 9.15 Q-0.4 11.25 -0.4 11.45 -0.4 12.95 -2.4 15.8 -4.1 18.2 -5.8 19.75 L-8.25 22.05 Q-10.0 23.7 -11.2 24.75 -14.85 27.95 -16.1 27.95 -16.95 27.95 -17.25 27.5 -17.4 27.3 -17.4 26.85 L-14.45 13.2 -16.25 -0.5 -18.9 -24.15 Q-18.4 -27.0 -17.15 -27.6 L-13.3 -28.75 -9.75 -27.05 -8.65 -27.4 Q-6.4 -27.95 -0.95 -27.95 L3.75 -27.4 4.2 -27.5 8.35 -27.1 10.05 -26.9 18.6 -27.2 Q19.1 -27.3 19.2 -27.0 L19.35 -26.6 M18.25 -26.35 L18.25 -26.4 18.15 -26.4 18.25 -26.35" fill="#775d2b" fill-rule="evenodd" stroke="none"/>
    <path d="M18.25 -26.15 Q18.45 -25.95 18.9 -26.05 19.1 -26.1 19.3 -26.25 L19.4 -26.25 Q19.45 -26.25 19.45 -26.1 19.45 -26.0 19.15 -25.85 L12.8 -25.3 7.45 -25.55 7.5 -25.6 7.4 -25.6 5.75 -25.75 -1.65 -25.85 Q-5.45 -25.7 -7.4 -24.35 L-8.55 -23.2 -8.55 -22.0 -0.65 9.85 Q-0.85 10.0 -1.05 10.0 -2.65 10.0 -4.05 3.1 -4.8 -0.35 -5.15 -3.75 L-7.85 -14.85 Q-8.55 -17.45 -8.6 -19.05 L-8.85 -20.2 Q-9.05 -20.45 -9.4 -21.35 L-9.8 -22.6 Q-9.8 -23.05 -9.15 -23.5 L-7.7 -24.7 Q-5.65 -25.9 -3.3 -26.5 L-2.1 -26.5 -1.1 -26.55 -0.7 -26.6 2.45 -26.3 3.2 -26.25 Q3.45 -26.3 3.8 -26.25 5.3 -26.0 6.7 -25.95 L7.5 -25.95 8.1 -25.9 8.2 -25.9 8.3 -25.85 10.4 -25.75 Q12.55 -25.6 14.7 -25.65 16.4 -25.7 18.0 -26.0 L18.15 -26.05 18.25 -26.15 M-11.1 -23.75 Q-11.05 -23.75 -11.05 -23.4 -11.05 -23.1 -11.15 -22.8 L-11.45 -22.2 -11.6 -22.2 -11.7 -22.4 Q-11.75 -22.55 -11.75 -22.85 -11.75 -23.1 -11.65 -23.3 -11.5 -23.6 -11.2 -23.7 -11.15 -23.75 -11.1 -23.75 M-12.55 -25.4 Q-12.45 -25.5 -12.25 -25.5 -11.8 -24.95 -11.8 -24.35 -11.8 -24.05 -11.85 -23.95 L-11.85 -23.9 -11.9 -23.8 Q-12.0 -23.7 -12.15 -23.65 -12.4 -24.0 -12.5 -24.25 -12.65 -24.6 -12.65 -24.9 -12.65 -25.25 -12.55 -25.4 M-11.75 -26.05 L-11.95 -26.15 Q-11.85 -26.15 -11.85 -26.1 L-11.75 -26.05 M-13.75 -2.4 Q-13.7 -1.95 -13.7 -1.5 -13.7 -1.2 -13.8 -1.0 L-13.95 -0.65 -14.1 -0.65 Q-14.1 -0.85 -14.45 -1.9 -14.75 -3.0 -14.75 -3.15 L-14.75 -3.7 Q-14.65 -4.0 -14.35 -4.1 -14.0 -3.5 -13.85 -2.8 L-13.8 -2.55 -13.7 -2.35 -13.75 -2.4 M-10.45 -12.0 Q-10.05 -11.65 -9.75 -11.15 L-9.35 -10.3 Q-9.4 -10.15 -9.55 -10.0 -9.7 -9.85 -9.85 -9.8 -10.25 -9.95 -10.65 -10.5 -11.0 -10.95 -11.0 -11.3 -11.0 -11.55 -10.75 -11.75 L-10.45 -12.0" fill="#55420f" fill-rule="evenodd" stroke="none"/>
    <path d="M19.4 -27.35 L19.45 -27.2 19.5 -27.1 19.5 -26.55 Q19.5 -26.3 19.4 -26.1 19.3 -25.9 19.15 -25.8 L19.1 -25.75 Q18.95 -25.55 18.45 -25.45 16.8 -25.05 11.7 -25.05 L7.7 -25.3 7.25 -25.3 7.3 -25.35 5.4 -25.35 Q4.95 -25.6 4.25 -25.5 L2.45 -25.55 -3.3 -25.3 -4.5 -25.1 -4.95 -25.05 -5.0 -25.0 -5.05 -25.0 -5.35 -24.9 Q-5.85 -24.7 -6.35 -24.45 L-6.55 -24.4 Q-6.9 -24.25 -7.15 -24.05 L-7.4 -23.85 Q-8.1 -23.1 -8.55 -22.4 -7.65 -19.35 -6.35 -14.75 L-4.05 -6.65 Q-3.1 -3.45 -1.55 2.5 0.15 9.05 0.15 9.65 0.15 10.6 -0.3 10.6 -1.05 10.6 -2.1 5.85 L-2.95 1.8 Q-3.45 -0.6 -3.75 -1.65 -6.95 -13.1 -6.95 -13.95 L-7.9 -17.45 Q-8.9 -21.2 -8.9 -22.55 L-8.85 -22.75 -8.9 -22.85 -8.95 -22.8 Q-9.15 -22.7 -9.3 -22.7 L-9.7 -22.75 -9.75 -23.0 -9.45 -23.05 -8.9 -23.1 -8.85 -23.1 Q-8.7 -23.35 -7.95 -23.9 L-7.6 -24.25 -6.9 -24.7 -6.35 -25.1 Q-4.95 -25.8 -3.95 -25.95 L0.95 -26.2 1.0 -26.2 1.8 -26.15 1.95 -26.1 3.1 -25.95 3.15 -25.95 5.3 -25.85 Q5.65 -25.75 6.05 -25.75 L6.5 -25.65 7.5 -25.55 7.55 -25.6 8.1 -25.55 8.95 -25.55 Q13.45 -25.2 17.9 -25.8 L17.95 -25.9 Q18.05 -25.85 18.1 -25.95 L18.1 -26.0 18.0 -26.15 17.95 -26.15 17.95 -26.2 18.05 -26.2 18.0 -26.35 18.0 -26.45 18.1 -26.6 18.1 -26.75 18.2 -26.75 18.2 -26.8 18.25 -26.8 18.2 -26.75 18.15 -26.65 18.15 -26.55 18.2 -26.4 18.2 -26.3 18.25 -26.25 18.25 -26.1 18.4 -25.95 18.85 -25.95 18.85 -26.0 18.9 -26.0 18.95 -26.05 19.1 -26.15 19.15 -26.3 Q19.25 -26.45 19.2 -26.5 L19.25 -26.65 19.25 -26.8 Q19.25 -26.9 19.2 -26.95 L19.15 -27.0 19.1 -27.0 19.1 -27.05 19.05 -27.05 18.95 -27.1 18.75 -27.15 18.55 -27.1 Q18.35 -27.05 18.3 -26.9 L18.3 -27.0 18.2 -27.1 Q16.5 -26.8 14.75 -26.75 12.85 -26.7 10.9 -26.7 9.3 -26.7 7.75 -27.0 L4.3 -27.35 4.2 -27.35 4.2 -27.3 4.1 -27.3 0.95 -27.7 -2.25 -27.85 -3.15 -27.9 -3.6 -27.9 -4.8 -27.85 Q-5.7 -27.8 -6.5 -27.55 -7.3 -27.5 -8.3 -27.25 L-8.95 -27.1 Q-9.45 -26.9 -9.7 -26.8 L-10.15 -26.6 -10.55 -26.4 Q-10.4 -26.05 -10.4 -25.8 L-10.45 -25.8 Q-10.55 -25.75 -10.65 -25.7 L-10.75 -25.9 Q-10.85 -26.05 -10.85 -26.2 L-10.8 -26.3 -10.85 -26.3 -10.9 -26.35 -10.9 -26.5 Q-10.9 -26.85 -10.4 -27.0 L-10.35 -27.05 -10.45 -27.2 -11.3 -27.6 Q-12.55 -28.2 -13.5 -28.2 -15.95 -28.2 -17.4 -26.65 -17.8 -26.25 -18.15 -25.7 -18.25 -25.3 -18.4 -24.15 -18.6 -23.0 -18.6 -22.5 -18.6 -21.25 -17.8 -16.1 L-16.1 -5.35 Q-13.65 10.1 -13.65 13.5 -13.65 15.0 -14.1 16.9 -14.45 18.3 -15.15 20.4 L-16.2 24.4 Q-16.7 26.2 -16.95 26.85 L-16.95 27.15 Q-16.95 27.4 -16.95 27.35 L-16.95 27.45 Q-17.0 27.5 -17.15 27.5 -17.4 27.5 -17.5 27.05 L-17.5 27.0 Q-17.6 26.85 -17.7 26.55 L-17.75 25.9 Q-17.75 25.05 -17.3 23.4 L-16.25 20.2 Q-14.8 15.6 -14.8 13.55 -14.8 12.65 -15.1 9.45 L-15.4 6.1 Q-15.4 5.9 -16.0 3.0 -16.6 -0.1 -16.65 -0.75 L-17.1 -4.15 -17.55 -7.6 Q-17.6 -8.5 -18.6 -14.75 -19.55 -20.55 -19.55 -21.2 -19.55 -23.05 -19.4 -24.0 L-19.25 -25.0 Q-19.2 -25.35 -19.0 -25.75 L-18.9 -25.9 Q-18.85 -26.2 -18.6 -26.6 -18.25 -27.25 -17.6 -27.8 -15.8 -29.25 -12.95 -29.25 -11.85 -29.25 -10.8 -28.5 -10.05 -28.0 -9.85 -27.65 L-9.65 -27.5 -9.0 -27.7 -8.75 -27.7 -8.65 -27.75 -8.25 -27.85 -8.05 -27.85 -7.55 -27.95 Q-5.9 -28.2 -3.65 -28.2 L0.95 -28.1 0.95 -28.05 3.55 -27.7 4.0 -27.7 4.25 -27.6 9.25 -27.15 10.35 -27.15 Q13.45 -26.95 16.6 -27.2 L16.8 -27.2 17.05 -27.25 17.1 -27.3 18.9 -27.4 19.4 -27.35 M-10.35 -25.35 L-10.2 -25.35 Q-10.1 -25.15 -9.85 -24.25 L-9.55 -23.3 Q-9.55 -23.15 -9.6 -23.15 L-9.6 -23.1 Q-9.6 -23.05 -9.7 -23.05 L-9.8 -23.25 -10.1 -24.05 Q-10.4 -24.95 -10.4 -25.15 -10.4 -25.3 -10.35 -25.35" fill="#362612" fill-rule="evenodd" stroke="none"/>
    <path d="M-13.35 -28.35 Q-12.15 -28.35 -11.5 -27.5 -11.3 -27.25 -11.2 -26.9 L-11.05 -26.5 -11.05 -26.4 -11.1 -26.55 Q-11.35 -27.0 -11.7 -27.3 -12.8 -28.2 -14.25 -28.3 L-14.55 -28.2 -14.5 -28.25 -14.25 -28.3 -13.35 -28.35 M-1.1 -26.45 L-0.25 -26.35 -0.3 -26.3 Q-1.2 -26.35 -2.35 -26.3 L-4.1 -26.15 -4.25 -26.1 Q-4.35 -26.1 -4.4 -26.1 -6.55 -25.4 -7.25 -24.95 -7.75 -24.65 -8.35 -24.05 -8.85 -23.55 -9.15 -23.15 L-9.25 -23.15 -9.25 -23.1 -9.3 -23.3 Q-9.3 -23.6 -8.6 -24.15 L-7.7 -24.8 -7.55 -24.95 -6.75 -25.5 -7.25 -25.1 -6.9 -25.25 Q-4.5 -26.6 -3.3 -26.45 L-1.1 -26.45 M-10.55 -25.15 L-10.25 -24.35 -10.2 -24.5 -10.1 -24.5 -9.65 -22.8 -9.6 -22.8 Q-8.9 -20.5 -8.25 -17.35 L-8.05 -16.35 -7.95 -16.0 -7.95 -16.1 -7.85 -16.1 -7.85 -16.0 -7.8 -16.0 -7.85 -15.85 -7.8 -15.85 -7.8 -15.75 -7.75 -15.7 -7.75 -15.6 -7.7 -15.45 -7.7 -15.35 -7.65 -15.25 -7.65 -15.05 -7.6 -14.95 -7.55 -14.9 -7.55 -14.5 -7.5 -14.45 -7.45 -14.35 -7.45 -14.05 -7.35 -13.9 -7.35 -13.7 -7.3 -13.6 -7.25 -13.55 -7.25 -13.4 -7.2 -13.25 -7.2 -13.15 -7.05 -12.95 -4.65 -2.65 Q-2.9 4.7 -1.95 9.45 L-1.95 10.15 -2.05 10.15 -5.1 -2.25 Q-6.8 -9.2 -7.65 -14.0 L-7.75 -14.4 -6.95 -9.9 -7.05 -9.85 Q-7.65 -12.25 -8.45 -16.2 L-9.25 -20.55 Q-10.0 -23.2 -10.6 -25.15 L-10.55 -25.15 M-15.55 -18.0 Q-15.75 -13.8 -14.3 -7.55 -12.45 -0.6 -11.8 2.9 -11.25 6.15 -10.85 14.95 -10.6 21.15 -10.6 23.85 L-10.6 24.0 Q-10.65 23.95 -10.65 24.0 L-10.7 24.0 Q-10.95 21.55 -11.25 14.35 -11.55 8.2 -12.0 4.6 -12.25 2.7 -12.95 -0.05 -13.3 -1.65 -14.2 -4.9 -15.75 -11.05 -15.75 -14.6 -15.75 -17.25 -15.55 -18.0 M-10.4 -12.35 L-10.35 -12.35 Q-10.15 -10.7 -9.5 -8.6 -9.25 -7.65 -8.3 -4.9 -6.65 -0.05 -6.55 2.55 -6.3 11.7 -5.9 17.45 L-5.9 17.5 Q-5.95 17.55 -6.0 17.55 -6.4 14.8 -6.55 10.25 -6.7 4.4 -6.85 2.85 -7.1 -0.6 -8.8 -5.5 -9.75 -8.1 -9.95 -8.85 -10.45 -10.55 -10.45 -11.7 L-10.4 -12.35" fill="#362612" fill-rule="evenodd" stroke="none"/>
    <path d="M10.2 -26.95 Q10.25 -26.9 10.1 -26.9 L9.4 -27.0 9.2 -26.95 8.5 -27.0 Q8.5 -26.95 8.4 -26.95 L7.95 -27.0 7.9 -27.0 5.65 -27.15 Q4.5 -27.25 4.1 -27.4 L3.95 -27.4 3.9 -27.45 3.95 -27.45 Q3.9 -27.45 3.85 -27.5 L3.8 -27.55 3.7 -27.55 3.7 -27.65 5.15 -27.65 6.45 -27.55 7.85 -27.45 8.3 -27.35 9.0 -27.25 9.65 -27.2 Q10.05 -27.15 10.2 -27.0 L10.2 -26.95" fill="#362612" fill-rule="evenodd" stroke="none"/>
  </g>
</svg>
