<?xml version="1.0" encoding="UTF-8" standalone="no"?>
<svg xmlns:ffdec="https://www.free-decompiler.com/flash" xmlns:xlink="http://www.w3.org/1999/xlink" ffdec:objectType="shape" height="15.3px" width="13.95px" xmlns="http://www.w3.org/2000/svg">
  <g transform="matrix(1.0, 0.0, 0.0, 1.0, 6.95, 7.65)">
    <path d="M-6.65 -1.65 Q-6.65 -2.5 -6.05 -3.7 L-5.8 -4.25 Q-5.45 -4.8 -5.2 -5.15 -4.9 -5.5 -4.3 -5.9 -3.55 -6.4 -2.9 -6.65 L-2.3 -6.9 Q-1.85 -7.1 -1.4 -7.2 L0.2 -7.4 0.3 -7.45 0.5 -7.4 Q3.65 -7.4 5.4 -5.55 6.05 -4.9 6.4 -4.15 L6.35 -4.05 Q6.2 -3.75 6.05 -3.55 L5.05 -2.65 Q4.4 -2.0 3.95 -1.75 2.7 -1.05 0.7 -1.05 -0.5 -1.05 -1.55 -1.75 L-2.45 -2.45 -2.55 -2.4 Q-2.45 -3.05 -2.3 -3.75 L-2.3 -3.8 Q-2.6 -3.25 -2.7 -2.65 -2.75 -2.3 -2.8 -1.85 -2.9 -1.6 -3.1 -1.4 -3.65 -0.8 -4.45 -0.8 -5.8 -0.8 -6.5 -1.5 L-6.65 -1.65 M-1.35 0.5 Q-1.35 0.7 -1.6 0.75 L-2.9 0.85 -3.95 0.95 Q-4.1 0.95 -4.15 0.9 L-4.25 0.8 Q-4.05 0.25 -2.7 0.15 -1.35 0.05 -1.35 0.5" fill="#c7a36d" fill-rule="evenodd" stroke="none"/>
    <path d="M3.7 -7.15 Q5.65 -6.0 6.3 -4.85 L6.5 -4.45 Q7.0 -3.55 7.0 -2.5 7.0 -1.45 6.65 -0.25 6.4 0.55 6.05 1.15 L5.85 1.6 5.95 1.6 5.95 1.65 5.9 1.65 Q6.1 1.75 6.2 1.9 6.35 2.1 6.35 2.4 6.35 2.75 6.1 3.0 L6.25 3.0 5.75 3.35 5.75 3.45 5.95 3.7 6.0 3.95 Q6.0 4.35 5.8 4.65 L5.85 4.7 5.85 4.8 Q5.85 5.05 5.25 5.55 4.6 6.05 3.65 6.5 1.25 7.65 -0.9 7.65 -2.35 7.65 -3.8 6.85 -4.95 6.15 -5.05 5.7 -5.6 5.4 -5.6 5.1 L-5.6 4.95 Q-6.25 4.65 -6.25 4.15 -6.25 3.85 -6.2 3.45 -6.1 3.1 -6.1 2.75 L-6.2 2.6 -6.25 2.55 -6.25 2.5 Q-6.45 2.25 -6.45 2.1 L-6.45 1.95 Q-6.4 1.8 -6.35 1.7 -6.3 1.65 -6.1 1.55 L-6.1 1.05 Q-6.3 0.25 -6.65 -0.25 -6.8 -0.5 -6.9 -0.8 -6.95 -1.05 -6.95 -1.3 L-6.95 -1.5 Q-6.95 -2.15 -6.7 -2.9 L-6.7 -3.0 Q-6.3 -4.25 -5.5 -5.25 -3.35 -8.0 1.05 -7.65 1.0 -7.6 0.9 -7.55 2.9 -7.45 4.25 -6.75 L3.7 -7.15 M6.4 -4.15 Q6.05 -4.9 5.4 -5.55 3.65 -7.4 0.5 -7.4 L0.3 -7.45 0.2 -7.4 -1.4 -7.2 Q-1.85 -7.1 -2.3 -6.9 L-2.9 -6.65 Q-3.55 -6.4 -4.3 -5.9 -4.9 -5.5 -5.2 -5.15 -5.45 -4.8 -5.8 -4.25 L-6.05 -3.7 Q-6.65 -2.5 -6.65 -1.65 L-6.65 -1.15 Q-6.55 -0.65 -6.25 -0.25 L-6.2 -0.15 -6.1 -0.15 Q-5.95 -0.05 -5.75 -0.05 L-4.75 -0.15 -4.3 -0.25 -3.95 -0.15 -3.7 -0.25 Q-4.25 0.25 -4.75 0.25 L-5.2 0.25 Q-5.65 0.25 -6.0 0.15 -5.8 0.45 -5.8 0.65 L-5.9 1.05 -5.9 1.45 -5.85 1.45 Q-5.45 1.2 -5.1 1.15 L-0.35 0.85 Q0.85 0.85 3.35 1.2 L5.5 1.55 5.45 1.5 5.6 1.55 6.3 -0.5 6.45 -0.9 Q6.65 -1.9 6.65 -3.0 6.65 -3.4 6.55 -3.75 L6.55 -3.8 6.45 -4.05 6.4 -4.1 6.4 -4.15 M-2.8 -1.85 Q-2.75 -2.3 -2.7 -2.65 -2.6 -3.25 -2.3 -3.8 L-2.3 -3.75 Q-2.45 -3.05 -2.55 -2.4 L-2.6 -2.2 -2.6 -1.6 -2.65 -1.55 Q-2.65 -1.1 -2.6 -0.75 L-2.7 -0.7 -2.75 -1.1 -2.8 -1.3 -2.8 -1.85 M5.75 -2.8 L5.8 -2.85 5.85 -2.95 5.9 -2.65 5.85 -2.05 Q5.85 -1.35 5.2 -0.45 4.25 0.95 2.35 0.95 1.8 0.95 0.35 0.55 -0.8 0.25 -1.9 -0.15 L-1.65 -0.3 -1.35 -0.35 Q-0.85 -0.35 0.4 0.05 1.65 0.5 2.35 0.5 4.35 0.5 5.1 -1.05 5.25 -1.4 5.5 -2.2 5.6 -2.6 5.75 -2.8 M-0.25 5.45 L-0.45 5.45 Q-0.75 5.4 -2.55 5.4 -4.25 5.4 -5.2 5.15 -4.7 5.45 -3.7 5.75 -2.0 6.3 -0.25 6.3 3.6 6.3 4.9 5.3 5.35 4.9 5.55 4.25 5.15 4.75 4.1 5.2 2.7 5.85 0.8 6.1 L0.75 6.1 0.7 6.05 2.4 5.5 4.25 4.85 Q4.75 4.6 5.15 4.05 L5.45 3.55 5.15 3.7 Q4.5 4.0 3.95 4.05 L0.5 4.1 -0.55 4.0 -0.8 3.9 -0.45 3.9 Q-0.55 3.9 -0.55 3.85 -0.55 3.7 -0.5 3.8 L0.7 3.9 1.2 3.9 1.65 3.85 3.5 3.8 Q4.25 3.7 4.9 3.45 L5.6 3.1 Q6.05 2.85 6.05 2.55 6.05 2.15 5.95 1.95 L5.75 1.75 5.65 1.85 5.65 1.7 5.55 1.8 5.55 1.65 4.6 1.55 3.4 1.4 -0.3 1.15 -1.6 1.2 -2.1 1.2 -3.7 1.3 -4.75 1.45 -4.8 1.45 Q-5.25 1.5 -5.75 1.7 L-6.05 1.85 -6.1 2.0 Q-6.1 2.1 -6.0 2.55 L-5.95 2.6 -4.75 2.95 Q-3.35 3.35 -2.55 3.65 L-2.65 3.65 -4.0 3.45 -4.75 3.3 -4.5 3.45 Q-3.6 3.85 -2.35 3.95 L-2.85 4.0 -3.3 4.05 -4.1 3.95 Q-4.45 3.95 -4.95 3.65 L-5.45 3.25 -5.45 3.1 -5.75 2.95 -5.85 2.85 -5.8 3.0 -6.0 2.8 -6.0 3.6 Q-6.0 4.1 -5.85 4.25 -5.7 4.55 -5.15 4.7 -4.1 5.05 0.05 5.4 L0.35 5.4 -0.05 5.45 -0.25 5.45 M-4.05 6.1 Q-2.9 6.85 -2.6 7.0 -1.95 7.35 -0.9 7.35 1.25 7.35 3.6 6.15 2.1 6.6 -0.2 6.6 -2.2 6.6 -3.9 6.15 L-4.05 6.1" fill="#111111" fill-rule="evenodd" stroke="none"/>
    <path d="M-1.6 1.2 L-0.3 1.15 3.4 1.4 4.6 1.55 5.55 1.65 5.55 1.8 5.65 1.7 5.65 1.85 5.75 1.75 5.95 1.95 Q6.05 2.15 6.05 2.55 6.05 2.85 5.6 3.1 L4.9 3.45 Q4.25 3.7 3.5 3.8 L1.65 3.85 1.2 3.9 0.7 3.9 -0.5 3.8 Q-0.55 3.7 -0.55 3.85 -0.55 3.9 -0.45 3.9 L-0.8 3.9 -0.55 4.0 0.5 4.1 3.95 4.05 Q4.5 4.0 5.15 3.7 L5.45 3.55 5.15 4.05 Q4.75 4.6 4.25 4.85 L2.4 5.5 0.7 6.05 0.75 6.1 0.8 6.1 Q2.7 5.85 4.1 5.2 5.15 4.75 5.55 4.25 5.35 4.9 4.9 5.3 3.6 6.3 -0.25 6.3 -2.0 6.3 -3.7 5.75 -4.7 5.45 -5.2 5.15 -4.25 5.4 -2.55 5.4 -0.75 5.4 -0.45 5.45 L-0.25 5.45 -0.4 5.5 -2.05 5.85 Q-2.05 5.95 -2.0 6.0 L-1.35 6.05 Q-0.05 6.05 1.75 5.5 3.4 4.95 3.4 4.65 L3.4 4.6 Q3.6 4.5 3.85 4.35 L3.15 4.3 -0.7 4.2 -3.8 4.1 -4.4 4.05 Q-4.7 4.0 -4.8 4.2 -4.15 4.55 -2.25 4.75 L-1.0 4.9 Q-0.9 4.95 -0.85 5.0 L0.1 5.05 1.2 5.1 0.05 5.4 Q-4.1 5.05 -5.15 4.7 -5.7 4.55 -5.85 4.25 -6.0 4.1 -6.0 3.6 L-6.0 2.8 -5.8 3.0 -5.85 2.85 -5.75 2.95 -5.45 3.1 -5.45 3.25 -4.95 3.65 Q-4.45 3.95 -4.1 3.95 L-3.3 4.05 -2.85 4.0 -2.35 3.95 Q-3.6 3.85 -4.5 3.45 L-4.75 3.3 -4.0 3.45 -2.65 3.65 -2.55 3.65 Q-3.35 3.35 -4.75 2.95 L-5.95 2.6 -6.0 2.55 Q-6.1 2.1 -6.1 2.0 L-6.05 1.85 -5.75 1.7 Q-5.25 1.5 -4.8 1.45 L-4.75 1.45 -3.7 1.3 -3.8 1.35 -3.95 1.35 Q-5.0 1.55 -5.0 1.85 -5.0 2.1 -4.0 2.45 -2.8 2.9 -1.05 2.9 L1.45 2.9 Q2.85 2.85 3.8 2.45 4.65 2.15 4.65 1.8 4.65 1.5 1.7 1.3 L-1.5 1.2 -1.6 1.2 M1.1 6.75 Q1.1 6.6 1.05 6.7 L-1.25 6.6 Q-2.05 6.5 -2.25 6.75 -2.05 6.85 -1.6 6.9 L-0.75 7.0 -0.35 7.0 0.2 6.95 Q1.1 6.85 1.1 6.75 M-4.05 6.1 L-3.9 6.15 Q-2.2 6.6 -0.2 6.6 2.1 6.6 3.6 6.15 1.25 7.35 -0.9 7.35 -1.95 7.35 -2.6 7.0 -2.9 6.85 -4.05 6.1" fill="#0070e0" fill-rule="evenodd" stroke="none"/>
    <path d="M-1.6 1.2 L-1.5 1.2 1.7 1.3 Q4.65 1.5 4.65 1.8 4.65 2.15 3.8 2.45 2.85 2.85 1.45 2.9 L-1.05 2.9 Q-2.8 2.9 -4.0 2.45 -5.0 2.1 -5.0 1.85 -5.0 1.55 -3.95 1.35 L-3.8 1.35 -3.7 1.3 -2.1 1.2 -1.6 1.2 M0.05 5.4 L1.2 5.1 0.1 5.05 -0.85 5.0 Q-0.9 4.95 -1.0 4.9 L-2.25 4.75 Q-4.15 4.55 -4.8 4.2 -4.7 4.0 -4.4 4.05 L-3.8 4.1 -0.7 4.2 3.15 4.3 3.85 4.35 Q3.6 4.5 3.4 4.6 L3.4 4.65 Q3.4 4.95 1.75 5.5 -0.05 6.05 -1.35 6.05 L-2.0 6.0 Q-2.05 5.95 -2.05 5.85 L-0.4 5.5 -0.25 5.45 -0.05 5.45 0.35 5.4 0.05 5.4 M1.1 6.75 Q1.1 6.85 0.2 6.95 L-0.35 7.0 -0.75 7.0 -1.6 6.9 Q-2.05 6.85 -2.25 6.75 -2.05 6.5 -1.25 6.6 L1.05 6.7 Q1.1 6.6 1.1 6.75" fill="#80c0f0" fill-rule="evenodd" stroke="none"/>
    <path d="M-6.65 -1.65 L-6.5 -1.5 Q-5.8 -0.8 -4.45 -0.8 -3.65 -0.8 -3.1 -1.4 -2.9 -1.6 -2.8 -1.85 L-2.8 -1.3 -2.75 -1.1 -2.7 -0.7 -2.6 -0.75 Q-2.65 -1.1 -2.65 -1.55 L-2.6 -1.6 -2.6 -2.2 -2.55 -2.4 -2.45 -2.45 -1.55 -1.75 Q-0.5 -1.05 0.7 -1.05 2.7 -1.05 3.95 -1.75 4.4 -2.0 5.05 -2.65 L6.05 -3.55 Q6.2 -3.75 6.35 -4.05 L6.4 -4.15 6.4 -4.1 6.45 -4.05 6.55 -3.8 6.55 -3.75 Q6.65 -3.4 6.65 -3.0 6.65 -1.9 6.45 -0.9 L6.3 -0.5 5.6 1.55 5.45 1.5 5.5 1.55 3.35 1.2 Q0.85 0.85 -0.35 0.85 L-5.1 1.15 Q-5.45 1.2 -5.85 1.45 L-5.9 1.45 -5.9 1.05 -5.8 0.65 Q-5.8 0.45 -6.0 0.15 -5.65 0.25 -5.2 0.25 L-4.75 0.25 Q-4.25 0.25 -3.7 -0.25 L-3.95 -0.15 -4.3 -0.25 -4.75 -0.15 -5.75 -0.05 Q-5.95 -0.05 -6.1 -0.15 L-6.2 -0.15 -6.25 -0.25 Q-6.55 -0.65 -6.65 -1.15 L-6.65 -1.65 M5.75 -2.8 Q5.6 -2.6 5.5 -2.2 5.25 -1.4 5.1 -1.05 4.35 0.5 2.35 0.5 1.65 0.5 0.4 0.05 -0.85 -0.35 -1.35 -0.35 L-1.65 -0.3 -1.9 -0.15 Q-0.8 0.25 0.35 0.55 1.8 0.95 2.35 0.95 4.25 0.95 5.2 -0.45 5.85 -1.35 5.85 -2.05 L5.9 -2.65 5.85 -2.95 5.8 -2.85 5.75 -2.8 M-1.35 0.5 Q-1.35 0.05 -2.7 0.15 -4.05 0.25 -4.25 0.8 L-4.15 0.9 Q-4.1 0.95 -3.95 0.95 L-2.9 0.85 -1.6 0.75 Q-1.35 0.7 -1.35 0.5" fill="#a9854f" fill-rule="evenodd" stroke="none"/>
  </g>
</svg>
