<?xml version="1.0" encoding="UTF-8" standalone="no"?>
<svg xmlns:ffdec="https://www.free-decompiler.com/flash" xmlns:xlink="http://www.w3.org/1999/xlink" ffdec:objectType="shape" height="7.8px" width="9.0px" xmlns="http://www.w3.org/2000/svg">
  <g transform="matrix(1.0, 0.0, 0.0, 1.0, 4.5, 3.9)">
    <path d="M-2.25 -3.85 L-2.35 -3.9 -1.85 -3.9 Q-1.05 -3.8 0.15 -3.15 1.35 -2.55 1.75 -2.05 L2.2 -2.05 Q2.8 -1.95 2.8 -1.4 L2.75 -1.15 3.05 -1.2 Q3.45 -1.2 3.45 -1.0 3.4 -0.75 3.4 -0.65 3.45 -0.45 3.6 -0.35 3.75 -0.25 3.75 -0.1 L3.55 0.05 3.7 0.4 Q4.05 0.75 4.25 1.4 4.5 2.25 4.5 3.1 4.5 3.25 4.4 3.5 L4.25 3.9 Q4.1 3.85 4.05 3.75 4.0 3.65 4.05 3.55 L4.1 3.1 Q4.1 2.45 3.8 1.6 L3.4 0.35 3.35 0.25 3.35 0.2 3.3 0.2 2.65 0.6 Q1.45 1.35 1.15 1.6 L-0.05 2.8 0.0 2.8 0.1 2.85 Q0.35 2.9 0.7 3.05 L0.65 3.05 0.85 3.15 1.25 3.3 1.45 3.4 1.75 3.4 1.8 3.45 1.75 3.55 1.55 3.6 1.3 3.6 Q0.7 3.6 0.15 3.35 -0.1 3.25 -0.25 3.15 L-0.3 3.1 -0.65 3.45 -1.25 3.15 Q-1.7 2.9 -1.8 2.85 -2.1 2.8 -2.1 2.5 L-2.1 2.45 Q-2.5 2.45 -2.55 2.25 L-2.55 2.1 -2.6 1.85 -2.6 1.75 -2.6 1.65 -2.65 1.65 Q-2.95 1.55 -3.25 1.1 -3.5 0.75 -3.7 0.3 L-3.6 0.2 -3.05 0.9 -2.55 1.45 -2.5 1.4 -2.3 0.95 -2.25 0.85 -2.2 0.8 Q-1.8 0.2 -1.0 -0.45 0.15 -1.45 1.15 -1.8 L1.5 -1.9 -0.25 -2.85 -2.25 -3.85 M0.1 -0.75 L0.3 -0.9 -0.1 -0.65 Q-1.6 0.35 -2.1 1.15 -2.25 1.4 -2.3 1.65 L-2.3 1.85 Q-2.3 1.95 -2.25 2.05 L-2.05 2.15 Q-1.85 1.2 -0.4 -0.25 L0.05 -0.7 0.15 -0.75 0.1 -0.75 M0.95 -1.1 L0.15 -0.35 -0.2 0.0 -0.35 0.2 Q-1.35 1.35 -1.8 2.5 L-1.7 2.55 -1.7 2.6 -1.65 2.55 Q-1.25 2.0 0.25 0.65 1.8 -0.7 2.55 -1.05 L2.5 -1.35 2.45 -1.45 Q2.35 -1.8 2.15 -1.8 L1.9 -1.75 1.9 -1.7 1.85 -1.75 1.7 -1.65 1.65 -1.7 0.95 -1.1 M-0.9 2.15 L-1.4 2.65 -1.45 2.65 Q-1.4 2.7 -1.05 2.9 L-0.65 3.15 -0.5 2.95 -0.4 2.9 -0.35 2.8 0.4 2.0 Q1.65 0.9 3.05 0.15 L3.25 0.05 3.25 0.0 3.3 0.0 3.3 -0.05 Q3.35 -0.1 3.4 -0.1 3.15 -0.25 3.15 -0.45 L3.15 -0.55 Q3.1 -0.7 3.15 -0.9 2.2 -0.65 0.8 0.6 L-0.9 2.15 M-4.25 1.0 L-4.1 1.1 -3.9 1.2 -3.85 1.25 Q-3.4 1.55 -2.65 1.65 L-2.75 1.75 -3.0 1.8 -3.3 1.75 -3.65 1.65 Q-3.85 1.55 -4.05 1.4 L-4.15 1.3 Q-4.4 1.05 -4.5 0.9 L-4.25 1.0" fill="#111111" fill-rule="evenodd" stroke="none"/>
    <path d="M0.1 -0.75 L0.15 -0.75 0.05 -0.7 -0.4 -0.25 Q-1.85 1.2 -2.05 2.15 L-2.25 2.05 Q-2.3 1.95 -2.3 1.85 L-2.3 1.65 Q-2.25 1.4 -2.1 1.15 -1.6 0.35 -0.1 -0.65 L-0.05 -0.65 0.1 -0.75 M0.95 -1.1 L0.45 -0.45 -0.55 0.7 -0.55 0.75 Q0.15 0.05 1.1 -0.55 1.85 -1.05 2.5 -1.35 L2.55 -1.05 Q1.8 -0.7 0.25 0.65 -1.25 2.0 -1.65 2.55 L-1.7 2.6 -1.7 2.55 -1.8 2.5 Q-1.35 1.35 -0.35 0.2 L-0.2 0.0 0.15 -0.35 0.95 -1.1 M3.15 -0.55 L3.15 -0.45 Q3.15 -0.25 3.4 -0.1 3.35 -0.1 3.3 -0.05 L3.3 0.0 3.25 0.0 3.25 0.05 3.05 0.15 Q1.65 0.9 0.4 2.0 L-0.35 2.8 -0.4 2.9 -0.5 2.95 -0.65 3.15 -1.05 2.9 Q-1.4 2.7 -1.45 2.65 L-1.4 2.65 -0.9 2.15 -0.1 1.7 0.55 1.1 Q1.0 0.75 1.3 0.6 L2.85 -0.4 3.15 -0.55" fill="#600000" fill-rule="evenodd" stroke="none"/>
    <path d="M-0.1 -0.65 L0.3 -0.9 0.1 -0.75 -0.05 -0.65 -0.1 -0.65 M2.5 -1.35 Q1.85 -1.05 1.1 -0.55 0.15 0.05 -0.55 0.75 L-0.55 0.7 0.45 -0.45 0.95 -1.1 1.65 -1.7 1.7 -1.65 1.85 -1.75 1.9 -1.7 1.9 -1.75 2.15 -1.8 Q2.35 -1.8 2.45 -1.45 L2.5 -1.35 M-1.7 2.55 L-1.7 2.6 -1.65 2.55 -1.7 2.6 -1.7 2.55 M-0.9 2.15 L0.8 0.6 Q2.2 -0.65 3.15 -0.9 3.1 -0.7 3.15 -0.55 L2.85 -0.4 1.3 0.6 Q1.0 0.75 0.55 1.1 L-0.1 1.7 -0.9 2.15" fill="#b00000" fill-rule="evenodd" stroke="none"/>
    <path d="M-2.25 -3.85 L-0.25 -2.85 1.5 -1.9 Q0.3 -1.8 -0.95 -0.95 -1.65 -0.45 -2.15 0.15 L-2.45 0.6 -2.6 0.45 Q-3.35 -0.25 -3.8 -0.35 L-3.8 0.15 -3.45 1.05 -3.8 0.95 -4.05 0.85 -4.15 0.9 -4.15 0.95 -4.1 1.1 -4.25 1.0 Q-4.35 0.7 -4.3 0.35 L-4.2 -0.4 Q-4.0 -1.15 -3.8 -1.85 -3.15 -3.6 -2.25 -3.85 M-2.65 1.65 L-2.6 1.65 -2.6 1.75 -3.0 1.85 -3.3 1.75 -3.0 1.8 -2.75 1.75 -2.65 1.65 M1.25 3.3 L0.85 3.15 Q0.95 3.1 1.0 3.0 L1.05 2.75 Q1.05 2.6 0.8 2.4 L0.9 2.45 1.1 2.3 1.8 1.55 Q2.2 1.25 3.15 0.65 L3.4 0.45 3.4 0.35 3.8 1.6 Q4.1 2.45 4.1 3.1 L4.05 3.55 Q4.0 3.65 4.05 3.75 4.0 3.8 3.9 3.8 L3.0 3.55 Q2.15 3.3 1.3 3.3 L1.25 3.3 M-4.15 1.3 L-4.05 1.4 Q-3.85 1.55 -3.65 1.65 -4.0 1.6 -4.15 1.3" fill="#c7a36d" fill-rule="evenodd" stroke="none"/>
    <path d="M1.5 -1.9 L1.15 -1.8 Q0.15 -1.45 -1.0 -0.45 -1.8 0.2 -2.2 0.8 L-2.25 0.85 -2.3 0.95 -2.5 1.4 -2.55 1.45 -3.05 0.9 -3.6 0.2 -3.7 0.3 Q-3.5 0.75 -3.25 1.1 -2.95 1.55 -2.65 1.65 -3.4 1.55 -3.85 1.25 L-3.9 1.2 -4.1 1.1 -4.15 0.95 -4.15 0.9 -4.05 0.85 -3.8 0.95 -3.45 1.05 -3.8 0.15 -3.8 -0.35 Q-3.35 -0.25 -2.6 0.45 L-2.45 0.6 -2.15 0.15 Q-1.65 -0.45 -0.95 -0.95 0.3 -1.8 1.5 -1.9 M0.85 3.15 L0.65 3.05 0.7 3.05 Q0.35 2.9 0.1 2.85 L0.0 2.8 -0.05 2.8 1.15 1.6 Q1.45 1.35 2.65 0.6 L3.3 0.2 3.35 0.25 3.4 0.35 3.4 0.45 3.15 0.65 Q2.2 1.25 1.8 1.55 L1.1 2.3 0.9 2.45 0.8 2.4 Q1.05 2.6 1.05 2.75 L1.0 3.0 Q0.95 3.1 0.85 3.15" fill="#a9854f" fill-rule="evenodd" stroke="none"/>
  </g>
</svg>
