<?xml version="1.0" encoding="UTF-8" standalone="no"?>
<svg xmlns:ffdec="https://www.free-decompiler.com/flash" xmlns:xlink="http://www.w3.org/1999/xlink" ffdec:objectType="shape" height="6.25px" width="16.9px" xmlns="http://www.w3.org/2000/svg">
  <g transform="matrix(1.0, 0.0, 0.0, 1.0, -0.25, 6.6)">
    <path d="M4.8 -5.5 L4.45 -5.45 4.3 -5.4 3.85 -5.35 3.7 -5.3 3.6 -5.3 3.45 -5.25 3.25 -5.15 2.75 -5.0 2.25 -4.75 2.1 -4.7 1.7 -4.45 Q1.15 -4.05 0.8 -3.55 0.55 -3.1 0.55 -2.8 0.55 -2.65 0.6 -2.5 L0.6 -2.4 0.65 -2.4 0.7 -2.3 0.75 -2.25 1.05 -1.9 Q1.45 -1.6 2.1 -1.4 L2.15 -1.4 2.5 -1.3 2.8 -1.25 3.1 -1.2 3.3 -1.15 3.55 -1.15 3.9 -1.15 4.25 -1.15 4.35 -1.15 4.5 -1.2 Q5.35 -1.4 5.85 -1.7 L6.3 -1.9 Q6.45 -2.0 6.8 -2.25 L6.9 -2.25 6.8 -3.15 6.8 -3.3 6.75 -3.45 Q6.7 -4.5 6.7 -5.2 L6.7 -5.55 6.25 -5.55 4.8 -5.5 M0.25 -2.95 L0.3 -2.95 0.3 -2.9 Q0.35 -3.1 0.55 -3.5 0.8 -4.0 1.3 -4.45 2.65 -5.75 4.7 -5.75 L6.15 -5.7 6.7 -5.6 6.75 -5.75 6.9 -5.9 7.25 -6.0 7.25 -6.05 Q7.25 -6.25 7.35 -6.35 7.5 -6.55 7.9 -6.6 8.5 -6.7 8.5 -6.35 L8.5 -6.2 8.75 -6.2 Q8.95 -6.15 9.05 -5.95 L9.1 -5.9 9.1 -5.85 Q9.2 -6.0 9.55 -6.15 L10.8 -6.1 11.1 -6.2 11.4 -6.25 Q11.9 -6.25 12.25 -5.75 12.45 -5.45 12.5 -5.2 14.1 -5.1 15.55 -4.35 16.9 -3.65 17.1 -2.9 L17.15 -2.8 17.1 -2.55 17.15 -2.45 Q17.15 -1.95 16.25 -1.3 15.75 -0.95 15.2 -0.75 14.2 -0.35 13.05 -0.35 11.85 -0.35 10.45 -1.05 9.6 -1.5 9.1 -1.9 L8.95 -1.8 8.75 -1.7 Q8.7 -1.55 8.6 -1.4 8.45 -1.15 8.1 -1.15 7.8 -1.15 7.6 -1.3 L7.6 -1.35 7.55 -1.35 7.55 -1.4 7.5 -1.55 7.5 -1.6 7.35 -1.65 7.15 -1.65 Q7.1 -1.65 7.05 -1.75 L6.95 -1.8 Q6.85 -1.9 6.85 -2.05 L6.85 -2.1 6.55 -1.85 5.85 -1.45 5.75 -1.4 Q5.15 -1.1 4.35 -0.95 L3.15 -0.95 Q1.65 -1.15 0.85 -1.8 0.55 -2.1 0.4 -2.45 L0.35 -2.45 Q0.3 -2.5 0.3 -2.65 L0.25 -2.95 M11.65 -4.8 Q11.6 -5.05 11.4 -5.35 11.25 -5.6 11.05 -5.75 L10.9 -5.85 10.7 -5.9 10.45 -5.95 10.4 -5.95 10.1 -6.0 10.05 -6.0 9.75 -5.9 9.35 -5.8 9.25 -5.7 9.2 -5.6 9.1 -5.6 9.1 -5.1 9.2 -3.45 9.2 -2.55 9.35 -2.45 9.4 -2.4 Q9.65 -2.3 9.85 -2.3 L10.25 -2.3 Q10.95 -2.45 11.35 -3.15 L11.4 -3.25 11.4 -3.3 Q11.65 -3.8 11.7 -4.25 L11.7 -4.35 11.65 -4.35 11.7 -4.4 11.7 -4.45 11.65 -4.8 M12.3 -5.35 Q12.25 -5.6 11.95 -5.8 L11.7 -5.95 11.4 -6.0 10.9 -6.05 11.2 -5.9 11.3 -5.8 11.4 -5.65 11.45 -5.6 11.6 -5.35 11.75 -5.0 11.8 -4.8 11.85 -4.7 11.85 -4.45 Q12.35 -4.8 12.35 -5.2 L12.3 -5.35 M8.95 -5.65 L8.95 -5.7 8.9 -5.75 8.9 -5.8 8.85 -5.85 8.75 -5.9 Q8.6 -6.0 8.5 -6.0 L7.5 -5.95 7.3 -5.9 7.15 -5.85 6.95 -5.75 6.9 -5.6 6.9 -5.55 6.85 -5.55 6.85 -5.5 6.8 -5.4 6.8 -5.3 6.9 -4.4 6.9 -3.8 6.95 -3.5 6.95 -3.0 7.0 -2.55 7.0 -2.15 7.05 -2.05 7.2 -1.9 7.3 -1.85 7.35 -1.85 7.55 -1.8 8.3 -1.8 8.65 -1.9 8.7 -1.95 8.8 -2.0 8.85 -2.0 8.95 -2.1 9.05 -2.15 9.05 -2.35 9.0 -2.5 9.0 -3.4 8.95 -5.0 8.95 -5.65 M9.1 -5.7 L9.1 -5.65 9.15 -5.7 9.1 -5.7 M8.25 -6.3 L8.2 -6.35 Q8.1 -6.5 7.9 -6.5 L7.7 -6.45 7.6 -6.4 7.55 -6.35 7.5 -6.25 7.4 -6.1 7.35 -6.05 7.45 -6.05 7.6 -6.1 7.65 -6.1 8.3 -6.2 8.35 -6.2 8.25 -6.3 M8.1 -5.3 Q8.55 -5.3 8.55 -4.7 L8.55 -4.6 Q8.55 -4.4 8.45 -4.25 8.35 -4.1 8.25 -4.05 8.1 -3.95 7.95 -3.95 L7.85 -3.95 7.55 -4.05 7.45 -4.15 7.4 -4.25 Q7.3 -4.45 7.3 -4.65 7.3 -4.9 7.5 -5.1 7.6 -5.2 7.75 -5.25 L7.95 -5.3 8.1 -5.3 M6.75 -5.7 L6.75 -5.7 M8.4 -4.9 Q8.35 -5.05 8.25 -5.1 L8.2 -5.1 7.8 -5.1 Q7.65 -5.05 7.6 -4.95 L7.55 -4.85 7.5 -4.85 7.5 -4.7 Q7.5 -4.6 7.55 -4.45 L7.6 -4.4 7.65 -4.3 Q7.75 -4.2 7.8 -4.2 L8.0 -4.25 8.15 -4.3 8.25 -4.35 Q8.35 -4.35 8.4 -4.6 L8.45 -4.65 8.4 -4.85 8.4 -4.9 M7.4 -2.85 Q7.45 -3.15 7.8 -3.2 L7.9 -3.2 8.1 -3.2 8.25 -3.15 Q8.35 -3.15 8.4 -3.05 8.5 -3.0 8.55 -2.8 L8.55 -2.65 Q8.55 -2.5 8.4 -2.25 8.25 -2.1 8.15 -2.05 L8.0 -2.0 7.75 -2.0 Q7.55 -2.1 7.45 -2.25 7.35 -2.45 7.35 -2.6 7.35 -2.75 7.4 -2.85 M8.35 -2.85 L8.15 -3.05 8.0 -3.05 Q7.8 -3.0 7.7 -2.95 L7.65 -2.9 Q7.6 -2.85 7.6 -2.65 L7.6 -2.45 7.65 -2.4 7.75 -2.25 8.0 -2.25 8.2 -2.4 8.3 -2.5 Q8.4 -2.6 8.4 -2.7 L8.35 -2.85 M8.5 -1.65 L7.65 -1.65 7.7 -1.6 7.7 -1.55 7.85 -1.4 Q7.9 -1.4 7.95 -1.35 L8.3 -1.4 Q8.4 -1.45 8.45 -1.55 L8.5 -1.65 M11.2 -2.65 L10.9 -2.35 10.75 -2.3 10.8 -2.3 Q10.35 -2.1 9.85 -2.1 9.6 -2.1 9.45 -2.15 L9.35 -2.2 9.3 -2.3 9.2 -2.4 9.2 -2.15 9.6 -1.85 9.8 -1.75 10.65 -1.2 Q10.95 -1.0 11.3 -0.85 L11.35 -0.85 Q11.7 -0.75 12.7 -0.6 L12.8 -0.55 13.3 -0.6 13.9 -0.6 14.2 -0.65 14.45 -0.7 14.55 -0.7 14.85 -0.8 14.9 -0.8 15.35 -1.0 15.4 -1.05 Q15.75 -1.2 16.05 -1.45 16.55 -1.8 16.8 -2.15 L16.95 -2.4 16.95 -2.45 Q16.95 -3.3 15.65 -4.05 L15.6 -4.05 15.6 -4.1 15.55 -4.1 15.4 -4.2 15.25 -4.25 Q14.45 -4.65 13.5 -4.9 L13.0 -5.0 12.5 -5.1 Q12.5 -4.85 12.3 -4.65 12.15 -4.5 12.0 -4.45 L12.1 -4.3 Q12.15 -4.2 12.15 -4.1 12.15 -3.9 11.9 -3.6 L11.65 -3.35 11.5 -3.1 Q11.4 -2.85 11.2 -2.65 M11.95 -4.3 L11.85 -4.4 11.8 -3.9 11.75 -3.8 11.75 -3.65 Q12.0 -4.0 12.0 -4.2 L11.95 -4.3" fill="#111111" fill-rule="evenodd" stroke="none"/>
    <path d="M8.9 -5.75 L8.95 -5.7 8.95 -5.65 8.9 -5.75 M6.8 -5.4 L6.85 -5.5 6.85 -5.55 6.9 -5.55 6.9 -5.6 6.95 -5.75 7.15 -5.85 7.3 -5.9 7.5 -5.95 8.5 -6.0 Q8.6 -6.0 8.75 -5.9 L8.8 -5.5 8.85 -5.2 8.8 -4.8 Q8.8 -4.5 8.75 -4.35 8.65 -4.1 7.7 -3.5 7.3 -3.2 7.05 -3.05 L7.05 -2.9 7.0 -3.95 Q6.95 -4.85 6.8 -5.4 M8.25 -6.3 L8.2 -6.25 8.1 -6.25 7.8 -6.35 7.7 -6.45 7.9 -6.5 Q8.1 -6.5 8.2 -6.35 L8.25 -6.3 M7.6 -6.4 L7.8 -6.2 Q7.65 -6.25 7.55 -6.35 L7.6 -6.4 M8.1 -5.3 L7.95 -5.3 7.75 -5.25 Q7.6 -5.2 7.5 -5.1 7.3 -4.9 7.3 -4.65 7.3 -4.45 7.4 -4.25 L7.45 -4.15 7.55 -4.05 7.85 -3.95 7.95 -3.95 Q8.1 -3.95 8.25 -4.05 8.35 -4.1 8.45 -4.25 8.55 -4.4 8.55 -4.6 L8.55 -4.7 Q8.55 -5.3 8.1 -5.3 M8.4 -4.9 L8.35 -4.9 Q8.3 -4.5 8.0 -4.4 8.25 -4.55 8.25 -4.9 L8.25 -5.1 Q8.35 -5.05 8.4 -4.9 M8.2 -5.1 Q8.2 -4.95 8.15 -4.75 8.05 -4.4 7.75 -4.4 7.65 -4.4 7.6 -4.65 L7.55 -4.85 7.6 -4.95 Q7.65 -5.05 7.8 -5.1 L8.2 -5.1 M7.4 -2.85 L7.3 -2.85 7.15 -2.95 7.75 -3.35 8.4 -3.8 Q8.3 -3.6 7.95 -3.25 L7.9 -3.2 7.8 -3.2 Q7.45 -3.15 7.4 -2.85 M8.1 -3.2 L8.3 -3.4 Q8.6 -3.7 8.7 -4.0 8.65 -3.55 8.55 -3.3 L8.4 -3.05 Q8.35 -3.15 8.25 -3.15 L8.1 -3.2 M7.7 -2.95 Q7.8 -3.0 8.0 -3.05 L8.15 -3.05 8.35 -2.85 8.25 -2.75 Q8.05 -2.55 7.85 -2.55 7.75 -2.55 7.7 -2.75 L7.7 -2.95 M8.25 -2.55 Q8.15 -2.5 8.05 -2.5 L8.35 -2.7 Q8.35 -2.65 8.25 -2.55" fill="#9c9581" fill-rule="evenodd" stroke="none"/>
    <path d="M4.45 -5.45 L4.25 -4.95 Q4.1 -4.6 4.1 -4.35 4.05 -4.2 4.05 -3.8 L4.05 -3.75 Q4.0 -3.8 3.9 -3.8 3.55 -3.8 3.25 -3.4 L3.2 -3.35 Q3.05 -3.1 3.0 -2.95 L3.0 -2.75 3.05 -2.7 3.1 -2.75 3.35 -3.2 Q3.45 -3.45 3.6 -3.5 3.7 -3.6 3.8 -3.6 L3.9 -3.55 3.95 -3.4 Q3.4 -2.25 2.9 -2.25 2.85 -2.25 2.7 -2.45 2.6 -2.65 2.6 -2.75 2.6 -2.85 2.65 -3.0 3.7 -4.35 3.7 -4.45 L3.7 -4.55 3.65 -4.55 Q3.45 -4.4 2.85 -3.65 2.35 -3.05 2.25 -2.8 L2.25 -2.75 2.2 -2.8 2.15 -3.05 Q2.15 -3.65 2.5 -4.45 L2.75 -5.0 3.25 -5.15 3.45 -5.25 3.6 -5.3 3.7 -5.3 3.5 -5.1 Q2.8 -4.5 2.55 -3.8 L2.6 -3.8 Q2.75 -4.3 3.7 -5.0 L4.35 -5.45 4.3 -5.4 4.45 -5.45 M2.1 -4.7 Q2.0 -4.4 1.9 -4.1 1.8 -3.6 1.8 -2.7 L1.85 -2.45 1.1 -2.45 0.6 -2.5 Q0.55 -2.65 0.55 -2.8 0.55 -3.1 0.8 -3.55 1.15 -4.05 1.7 -4.45 L2.1 -4.7 M3.8 -2.5 L4.2 -2.9 4.25 -2.55 3.8 -2.5 M4.6 -2.65 Q4.4 -3.1 4.4 -3.75 4.4 -4.2 4.5 -4.5 L4.55 -4.65 4.55 -4.75 Q4.55 -4.95 4.7 -5.3 L4.8 -5.5 6.25 -5.55 6.7 -5.55 6.7 -5.2 Q6.7 -4.5 6.75 -3.45 L5.8 -3.0 Q5.25 -2.8 4.6 -2.65 M2.4 -2.65 L2.5 -2.75 2.45 -2.65 2.4 -2.65 M11.2 -2.65 Q11.4 -2.85 11.5 -3.1 L11.65 -3.35 11.9 -3.6 Q12.15 -3.9 12.15 -4.1 12.15 -4.2 12.1 -4.3 L12.0 -4.45 Q12.15 -4.5 12.3 -4.65 12.5 -4.85 12.5 -5.1 L13.0 -5.0 13.1 -4.75 Q13.2 -4.6 13.25 -4.3 13.35 -3.85 13.35 -3.55 13.35 -2.85 13.2 -2.15 12.4 -2.3 11.2 -2.65 M13.5 -4.9 Q14.45 -4.65 15.25 -4.25 L15.3 -4.05 15.4 -3.75 15.35 -3.8 15.3 -4.1 Q15.2 -4.3 15.0 -4.2 14.8 -4.15 14.3 -3.85 13.95 -3.6 13.8 -3.5 L13.8 -3.55 13.75 -3.9 Q14.4 -4.2 14.7 -4.5 14.5 -4.5 13.95 -4.25 L13.75 -4.15 13.65 -4.55 13.55 -4.8 13.5 -4.9 M15.65 -4.05 Q16.95 -3.3 16.95 -2.45 L16.85 -2.45 Q16.4 -2.25 15.75 -2.15 L15.85 -2.75 Q15.85 -3.4 15.75 -3.8 L15.65 -4.05 M13.55 -2.05 L13.6 -2.25 13.7 -2.75 13.75 -3.2 Q14.0 -3.35 14.35 -3.6 14.7 -3.8 15.0 -3.9 L15.3 -3.3 Q15.25 -3.25 14.9 -3.1 L14.4 -2.95 14.4 -3.0 Q14.45 -3.1 14.65 -3.2 14.85 -3.3 14.85 -3.4 L14.85 -3.5 14.7 -3.55 Q14.6 -3.55 14.35 -3.4 L14.1 -3.2 Q14.1 -3.1 14.15 -2.85 14.25 -2.55 14.35 -2.55 15.2 -2.9 15.5 -3.1 L15.5 -3.05 Q15.5 -2.55 15.4 -2.1 L14.85 -2.05 14.25 -2.05 Q14.7 -2.4 14.95 -2.5 L14.85 -2.55 Q14.35 -2.4 13.8 -2.05 L13.55 -2.05" fill="#c7a36d" fill-rule="evenodd" stroke="none"/>
    <path d="M9.2 -3.45 L9.1 -5.1 9.1 -5.6 9.2 -5.6 9.25 -5.7 9.35 -5.8 9.75 -5.9 10.05 -6.0 10.1 -6.0 10.4 -5.95 10.45 -5.95 10.7 -5.9 10.9 -5.85 11.05 -5.75 Q11.25 -5.6 11.4 -5.35 11.6 -5.05 11.65 -4.8 11.65 -4.35 11.15 -3.95 10.45 -3.4 9.4 -3.4 L9.2 -3.45 M11.75 -5.0 L11.6 -5.35 11.45 -5.6 11.4 -5.65 11.3 -5.8 11.2 -5.9 10.9 -6.05 11.4 -6.0 11.7 -5.95 11.95 -5.8 Q12.25 -5.6 12.3 -5.35 L12.05 -5.25 Q11.8 -5.2 11.7 -5.1 L11.75 -5.0" fill="#80c0f0" fill-rule="evenodd" stroke="none"/>
    <path d="M11.65 -4.8 L11.7 -4.45 11.7 -4.4 11.65 -4.35 11.7 -4.35 11.7 -4.25 Q11.65 -3.8 11.4 -3.3 L11.4 -3.25 11.35 -3.15 Q10.95 -2.45 10.25 -2.3 L9.85 -2.3 Q9.65 -2.3 9.4 -2.4 L9.35 -2.45 9.2 -2.55 9.2 -3.45 9.4 -3.4 Q10.45 -3.4 11.15 -3.95 11.65 -4.35 11.65 -4.8 M12.3 -5.35 L12.35 -5.2 Q12.35 -4.8 11.85 -4.45 L11.85 -4.7 11.8 -4.8 11.75 -5.0 11.7 -5.1 Q11.8 -5.2 12.05 -5.25 L12.3 -5.35 M11.95 -4.3 L12.0 -4.2 Q12.0 -4.0 11.75 -3.65 L11.75 -3.8 11.8 -3.9 11.85 -4.4 11.95 -4.3" fill="#0070e0" fill-rule="evenodd" stroke="none"/>
    <path d="M8.9 -5.75 L8.95 -5.65 8.95 -5.0 9.0 -3.4 9.0 -2.5 9.05 -2.35 9.05 -2.15 8.95 -2.1 8.85 -2.0 8.8 -2.0 8.7 -1.95 8.65 -1.9 8.3 -1.8 7.55 -1.8 7.35 -1.85 7.3 -1.85 7.2 -1.9 7.05 -2.05 7.0 -2.15 7.0 -2.55 6.95 -3.0 6.95 -3.5 6.9 -3.8 6.9 -4.4 6.8 -5.3 6.8 -5.4 Q6.95 -4.85 7.0 -3.95 L7.05 -2.9 7.05 -3.05 Q7.3 -3.2 7.7 -3.5 8.65 -4.1 8.75 -4.35 8.8 -4.5 8.8 -4.8 L8.85 -5.2 8.8 -5.5 8.75 -5.9 8.85 -5.85 8.9 -5.8 8.9 -5.75 M7.7 -6.45 L7.8 -6.35 8.1 -6.25 8.2 -6.25 8.25 -6.3 8.35 -6.2 8.3 -6.2 7.65 -6.1 7.6 -6.1 7.45 -6.05 7.35 -6.05 7.4 -6.1 7.5 -6.25 7.55 -6.35 Q7.65 -6.25 7.8 -6.2 L7.6 -6.4 7.7 -6.45 M8.25 -5.1 L8.25 -4.9 Q8.25 -4.55 8.0 -4.4 8.3 -4.5 8.35 -4.9 L8.4 -4.9 8.4 -4.85 8.45 -4.65 8.4 -4.6 Q8.35 -4.35 8.25 -4.35 L8.15 -4.3 8.0 -4.25 7.8 -4.2 Q7.75 -4.2 7.65 -4.3 L7.6 -4.4 7.55 -4.45 Q7.5 -4.6 7.5 -4.7 L7.5 -4.85 7.55 -4.85 7.6 -4.65 Q7.65 -4.4 7.75 -4.4 8.05 -4.4 8.15 -4.75 8.2 -4.95 8.2 -5.1 L8.25 -5.1 M7.9 -3.2 L7.95 -3.25 Q8.3 -3.6 8.4 -3.8 L7.75 -3.35 7.15 -2.95 7.3 -2.85 7.4 -2.85 Q7.35 -2.75 7.35 -2.6 7.35 -2.45 7.45 -2.25 7.55 -2.1 7.75 -2.0 L8.0 -2.0 8.15 -2.05 Q8.25 -2.1 8.4 -2.25 8.55 -2.5 8.55 -2.65 L8.55 -2.8 Q8.5 -3.0 8.4 -3.05 L8.55 -3.3 Q8.65 -3.55 8.7 -4.0 8.6 -3.7 8.3 -3.4 L8.1 -3.2 7.9 -3.2 M7.7 -2.95 L7.7 -2.75 Q7.75 -2.55 7.85 -2.55 8.05 -2.55 8.25 -2.75 L8.35 -2.85 8.4 -2.7 Q8.4 -2.6 8.3 -2.5 L8.2 -2.4 8.0 -2.25 7.75 -2.25 7.65 -2.4 7.6 -2.45 7.6 -2.65 Q7.6 -2.85 7.65 -2.9 L7.7 -2.95 M8.25 -2.55 Q8.35 -2.65 8.35 -2.7 L8.05 -2.5 Q8.15 -2.5 8.25 -2.55 M8.5 -1.65 L8.45 -1.55 Q8.4 -1.45 8.3 -1.4 L7.95 -1.35 Q7.9 -1.4 7.85 -1.4 L7.7 -1.55 7.7 -1.6 7.65 -1.65 8.5 -1.65" fill="#666154" fill-rule="evenodd" stroke="none"/>
    <path d="M1.85 -2.45 L1.85 -2.2 1.95 -1.8 2.1 -1.4 Q1.45 -1.6 1.05 -1.9 L0.75 -2.25 0.7 -2.3 0.65 -2.4 0.6 -2.4 0.6 -2.5 1.1 -2.45 1.85 -2.45 M2.5 -1.3 L2.6 -1.25 2.4 -1.85 2.3 -2.1 2.3 -2.25 2.45 -2.1 Q2.75 -1.9 2.95 -1.9 3.1 -1.9 3.4 -2.15 L3.75 -2.45 3.8 -2.5 4.25 -2.55 4.35 -2.35 4.4 -2.15 Q4.6 -1.6 4.8 -1.3 L5.15 -1.4 5.05 -1.55 Q4.75 -2.05 4.7 -2.4 L4.65 -2.45 4.6 -2.65 Q5.25 -2.8 5.8 -3.0 L6.75 -3.45 6.8 -3.3 6.8 -3.15 6.9 -2.25 6.8 -2.25 Q6.45 -2.0 6.3 -1.9 L5.85 -1.7 Q5.35 -1.4 4.5 -1.2 4.2 -1.8 4.0 -1.6 L3.55 -1.15 3.3 -1.15 3.1 -1.2 3.25 -1.15 4.05 -2.15 4.0 -2.15 3.7 -2.0 Q3.45 -1.85 3.35 -1.75 L2.95 -1.4 2.8 -1.25 2.5 -1.3 M4.25 -1.15 L3.9 -1.15 4.15 -1.35 4.25 -1.15 M12.7 -0.6 Q11.7 -0.75 11.35 -0.85 L11.3 -0.85 Q10.95 -1.0 10.65 -1.2 L9.8 -1.75 9.6 -1.85 9.2 -2.15 9.2 -2.4 9.3 -2.3 9.35 -2.2 9.45 -2.15 Q9.6 -2.1 9.85 -2.1 10.35 -2.1 10.8 -2.3 L10.75 -2.3 10.9 -2.35 11.2 -2.65 Q12.4 -2.3 13.2 -2.15 L13.1 -1.8 13.1 -1.75 13.05 -1.65 12.9 -1.25 12.6 -0.65 12.6 -0.6 12.7 -0.6 M16.95 -2.45 L16.95 -2.4 16.8 -2.15 Q16.55 -1.8 16.05 -1.45 15.75 -1.2 15.4 -1.05 L15.55 -1.35 15.75 -1.95 15.75 -2.15 Q16.4 -2.25 16.85 -2.45 L16.95 -2.45 M14.45 -0.7 L14.2 -0.65 14.3 -0.8 Q14.4 -0.9 14.4 -0.95 L14.4 -1.05 14.2 -1.1 13.9 -0.95 Q13.85 -0.9 13.85 -0.8 L13.9 -0.6 13.3 -0.6 13.8 -0.95 14.55 -1.45 14.65 -1.2 14.7 -0.95 14.55 -0.75 14.45 -0.7 M13.55 -2.05 L13.8 -2.05 13.5 -1.9 13.55 -2.05 M14.25 -2.05 L14.85 -2.05 15.4 -2.1 15.35 -1.8 15.25 -1.65 15.05 -1.1 Q15.0 -1.75 14.6 -1.75 14.35 -1.75 13.95 -1.45 13.65 -1.2 13.25 -0.8 L13.1 -0.65 13.35 -1.4 13.85 -1.75 14.25 -2.05" fill="#a9854f" fill-rule="evenodd" stroke="none"/>
    <path d="M4.45 -5.45 L4.8 -5.5 4.7 -5.3 Q4.55 -4.95 4.55 -4.75 L4.55 -4.65 4.5 -4.5 Q4.4 -4.2 4.4 -3.75 4.4 -3.1 4.6 -2.65 L4.65 -2.45 4.7 -2.4 Q4.75 -2.05 5.05 -1.55 L5.15 -1.4 4.8 -1.3 Q4.6 -1.6 4.4 -2.15 L4.35 -2.35 4.25 -2.55 4.2 -2.9 3.8 -2.5 3.75 -2.45 3.4 -2.15 Q3.1 -1.9 2.95 -1.9 2.75 -1.9 2.45 -2.1 L2.3 -2.25 2.3 -2.1 2.4 -1.85 2.6 -1.25 2.5 -1.3 2.15 -1.4 2.1 -1.4 1.95 -1.8 1.85 -2.2 1.85 -2.45 1.8 -2.7 Q1.8 -3.6 1.9 -4.1 2.0 -4.4 2.1 -4.7 L2.25 -4.75 2.75 -5.0 2.5 -4.45 Q2.15 -3.65 2.15 -3.05 L2.2 -2.8 2.25 -2.75 2.25 -2.8 Q2.35 -3.05 2.85 -3.65 3.45 -4.4 3.65 -4.55 L3.7 -4.55 3.7 -4.45 Q3.7 -4.35 2.65 -3.0 2.6 -2.85 2.6 -2.75 2.6 -2.65 2.7 -2.45 2.85 -2.25 2.9 -2.25 3.4 -2.25 3.95 -3.4 L3.9 -3.55 3.8 -3.6 Q3.7 -3.6 3.6 -3.5 3.45 -3.45 3.35 -3.2 L3.1 -2.75 3.05 -2.7 3.0 -2.75 3.0 -2.95 Q3.05 -3.1 3.2 -3.35 L3.25 -3.4 Q3.55 -3.8 3.9 -3.8 4.0 -3.8 4.05 -3.75 L4.05 -3.8 Q4.05 -4.2 4.1 -4.35 4.1 -4.6 4.25 -4.95 L4.45 -5.45 M4.5 -1.2 L4.35 -1.15 4.25 -1.15 4.15 -1.35 3.9 -1.15 3.55 -1.15 4.0 -1.6 Q4.2 -1.8 4.5 -1.2 M3.1 -1.2 L2.8 -1.25 2.95 -1.4 3.35 -1.75 Q3.45 -1.85 3.7 -2.0 L4.0 -2.15 4.05 -2.15 3.25 -1.15 3.1 -1.2 M3.7 -5.3 L3.85 -5.35 4.3 -5.4 4.35 -5.45 3.7 -5.0 Q2.75 -4.3 2.6 -3.8 L2.55 -3.8 Q2.8 -4.5 3.5 -5.1 L3.7 -5.3 M2.4 -2.65 L2.45 -2.65 2.5 -2.75 2.4 -2.65 M13.0 -5.0 L13.5 -4.9 13.55 -4.8 13.65 -4.55 13.75 -4.15 13.95 -4.25 Q14.5 -4.5 14.7 -4.5 14.4 -4.2 13.75 -3.9 L13.8 -3.55 13.8 -3.5 Q13.95 -3.6 14.3 -3.85 14.8 -4.15 15.0 -4.2 15.2 -4.3 15.3 -4.1 L15.35 -3.8 15.4 -3.75 15.3 -4.05 15.25 -4.25 15.4 -4.2 15.55 -4.1 15.6 -4.1 15.6 -4.05 15.65 -4.05 15.75 -3.8 Q15.85 -3.4 15.85 -2.75 L15.75 -2.15 15.75 -1.95 15.55 -1.35 15.4 -1.05 15.35 -1.0 14.9 -0.8 14.85 -0.8 14.55 -0.7 14.45 -0.7 14.55 -0.75 14.7 -0.95 14.65 -1.2 14.55 -1.45 13.8 -0.95 13.3 -0.6 12.8 -0.55 12.7 -0.6 12.6 -0.6 12.6 -0.65 12.9 -1.25 13.05 -1.65 13.1 -1.75 13.1 -1.8 13.2 -2.15 Q13.35 -2.85 13.35 -3.55 13.35 -3.85 13.25 -4.3 13.2 -4.6 13.1 -4.75 L13.0 -5.0 M14.2 -0.65 L13.9 -0.6 13.85 -0.8 Q13.85 -0.9 13.9 -0.95 L14.2 -1.1 14.4 -1.05 14.4 -0.95 Q14.4 -0.9 14.3 -0.8 L14.2 -0.65 M15.4 -2.1 Q15.5 -2.55 15.5 -3.05 L15.5 -3.1 Q15.2 -2.9 14.35 -2.55 14.25 -2.55 14.15 -2.85 14.1 -3.1 14.1 -3.2 L14.35 -3.4 Q14.6 -3.55 14.7 -3.55 L14.85 -3.5 14.85 -3.4 Q14.85 -3.3 14.65 -3.2 14.45 -3.1 14.4 -3.0 L14.4 -2.95 14.9 -3.1 Q15.25 -3.25 15.3 -3.3 L15.0 -3.9 Q14.7 -3.8 14.35 -3.6 14.0 -3.35 13.75 -3.2 L13.7 -2.75 13.6 -2.25 13.55 -2.05 13.5 -1.9 13.8 -2.05 Q14.35 -2.4 14.85 -2.55 L14.95 -2.5 Q14.7 -2.4 14.25 -2.05 L13.85 -1.75 13.35 -1.4 13.1 -0.65 13.25 -0.8 Q13.65 -1.2 13.95 -1.45 14.35 -1.75 14.6 -1.75 15.0 -1.75 15.05 -1.1 L15.25 -1.65 15.35 -1.8 15.4 -2.1" fill="#fff2e5" fill-rule="evenodd" stroke="none"/>
  </g>
</svg>
