<?xml version="1.0" encoding="UTF-8" standalone="no"?>
<svg xmlns:ffdec="https://www.free-decompiler.com/flash" xmlns:xlink="http://www.w3.org/1999/xlink" ffdec:objectType="shape" height="10.1px" width="12.55px" xmlns="http://www.w3.org/2000/svg">
  <g transform="matrix(1.0, 0.0, 0.0, 1.0, 0.0, 10.1)">
    <path d="M7.8 -9.4 L8.1 -9.2 Q7.2 -9.8 6.5 -9.8 L6.1 -9.75 Q7.05 -9.75 7.8 -9.4 M6.3 -10.1 Q7.3 -10.1 8.7 -9.15 L8.8 -9.1 8.8 -9.05 8.85 -9.15 8.85 -9.05 Q9.7 -8.45 10.35 -7.65 L10.45 -7.6 10.5 -7.5 Q11.1 -6.75 11.15 -6.45 L11.75 -5.55 Q12.55 -4.15 12.55 -3.4 12.55 -3.25 12.5 -3.05 12.4 -2.35 11.7 -1.65 L11.45 -1.4 Q10.8 -0.9 9.9 -0.6 L9.05 -0.35 Q8.8 -0.1 8.5 -0.1 L8.35 -0.15 8.35 -0.2 Q7.35 0.0 6.2 0.0 3.9 0.0 2.6 -0.45 L2.35 -0.55 Q1.65 -0.8 1.4 -1.05 L1.6 -1.0 1.55 -1.05 Q0.8 -1.35 0.4 -1.8 0.0 -2.3 0.0 -2.9 0.0 -4.8 1.75 -6.85 2.85 -8.1 4.3 -9.05 4.3 -9.65 5.3 -9.75 5.7 -10.05 6.3 -10.1 L6.3 -10.1 M6.3 -3.6 Q6.75 -4.1 7.1 -4.6 8.5 -6.65 8.5 -8.95 7.4 -9.75 6.3 -9.75 5.95 -9.75 5.5 -9.6 3.6 -8.25 2.25 -6.65 L2.1 -6.5 1.15 -5.15 1.05 -5.0 Q1.85 -4.3 2.7 -3.7 L4.75 -2.25 Q5.6 -2.85 6.3 -3.6 M9.2 -8.35 L9.0 -8.5 9.1 -8.1 9.1 -8.05 9.1 -8.0 9.15 -7.1 9.15 -7.05 Q9.15 -5.9 8.85 -4.6 8.7 -3.9 8.5 -3.4 L8.85 -3.9 9.0 -4.15 Q9.7 -5.2 10.05 -6.3 L10.25 -7.1 10.25 -7.15 10.2 -7.25 9.5 -8.05 9.2 -8.35 M8.05 -2.8 L8.15 -2.9 8.3 -3.6 Q8.65 -4.7 8.65 -5.0 L8.75 -5.8 Q8.85 -6.6 8.85 -7.25 L8.8 -7.9 Q8.65 -7.45 8.4 -6.85 7.9 -5.45 7.1 -4.2 6.25 -2.8 5.3 -1.95 L5.2 -1.85 3.35 -0.85 3.3 -0.85 3.45 -0.8 Q4.9 -0.5 5.65 -0.45 6.65 -1.3 7.45 -2.15 L7.55 -2.2 8.0 -2.75 8.05 -2.8 M3.9 -2.3 Q3.25 -2.65 2.4 -3.45 1.35 -4.35 0.95 -4.85 0.65 -4.25 0.55 -3.65 L0.5 -3.4 1.75 -2.4 2.4 -1.95 2.5 -1.9 2.55 -1.85 3.05 -1.55 3.25 -1.45 3.4 -1.4 Q3.95 -1.7 4.45 -2.0 4.2 -2.1 3.9 -2.3 M0.9 -1.9 Q1.05 -1.7 1.3 -1.5 1.45 -1.4 1.5 -1.35 L1.7 -1.25 2.55 -1.0 3.1 -1.25 Q2.3 -1.4 1.55 -2.0 0.95 -2.45 0.45 -3.2 L0.45 -2.9 Q0.45 -2.4 0.9 -1.9 M3.15 -0.65 L3.15 -0.65 M4.2 -0.45 L3.9 -0.5 4.1 -0.5 4.2 -0.45 M5.2 -0.35 L4.9 -0.4 4.85 -0.4 5.2 -0.35 M10.7 -5.35 L10.7 -6.5 10.55 -6.75 10.4 -6.95 10.4 -6.9 Q10.4 -5.65 8.7 -3.3 8.1 -2.4 7.5 -1.75 6.8 -0.95 6.15 -0.5 L6.05 -0.45 6.15 -0.45 8.65 -0.6 Q9.4 -1.3 9.9 -2.1 10.3 -2.8 10.5 -3.6 L10.55 -3.65 10.55 -3.8 Q10.7 -4.45 10.7 -5.35 M12.05 -4.1 L11.8 -4.6 Q11.45 -5.35 11.0 -6.1 L11.0 -5.7 10.9 -3.9 10.75 -3.4 10.7 -3.2 Q10.5 -2.55 10.2 -1.9 9.85 -1.25 9.55 -0.8 10.3 -1.05 10.95 -1.45 L11.5 -1.85 11.75 -2.25 Q12.25 -3.05 12.25 -3.4 12.25 -3.6 12.05 -4.1" fill="#111111" fill-rule="evenodd" stroke="none"/>
    <path d="M2.1 -6.5 L2.25 -6.65 Q3.6 -8.25 5.5 -9.6 5.95 -9.75 6.3 -9.75 7.4 -9.75 8.5 -8.95 8.5 -6.65 7.1 -4.6 6.75 -4.1 6.3 -3.6 4.5 -3.85 3.1 -5.4 2.55 -6.0 2.2 -6.6 L2.1 -6.5 M10.75 -3.4 L10.9 -3.9 11.0 -5.7 11.0 -6.1 Q11.45 -5.35 11.8 -4.6 L12.05 -4.1 11.75 -3.9 Q11.65 -3.85 10.95 -3.5 L10.75 -3.4" fill="#80c0f0" fill-rule="evenodd" stroke="none"/>
    <path d="M9.1 -8.05 L9.1 -8.1 9.0 -8.5 9.2 -8.35 9.1 -8.45 9.1 -8.05 M9.5 -8.05 L10.2 -7.25 9.85 -6.55 Q9.55 -5.8 9.25 -5.55 L9.4 -6.75 9.45 -7.7 9.5 -8.05 M10.05 -6.3 Q9.7 -5.2 9.0 -4.15 L9.6 -5.35 10.05 -6.3 M5.3 -1.95 Q6.25 -2.8 7.1 -4.2 7.9 -5.45 8.4 -6.85 8.65 -7.45 8.8 -7.9 L8.85 -7.25 Q8.85 -6.6 8.75 -5.8 L8.65 -5.0 Q8.65 -4.7 8.3 -3.6 L8.15 -2.9 8.05 -2.8 Q7.95 -2.9 7.75 -2.9 7.55 -2.9 7.25 -2.75 6.95 -2.9 6.1 -2.45 L5.45 -2.05 5.3 -1.95 M3.9 -2.3 L3.5 -2.25 3.45 -2.25 Q2.25 -2.35 1.3 -3.05 L0.55 -3.7 0.55 -3.65 Q0.65 -4.25 0.95 -4.85 1.35 -4.35 2.4 -3.45 3.25 -2.65 3.9 -2.3 M7.5 -1.75 Q8.1 -2.4 8.7 -3.3 10.4 -5.65 10.4 -6.9 L10.4 -6.95 10.55 -6.75 10.7 -6.5 10.7 -5.35 10.05 -3.8 Q9.9 -3.45 9.4 -2.45 9.1 -2.5 8.55 -2.3 7.8 -2.05 7.55 -1.75 L7.5 -1.75 M6.15 -0.45 L6.05 -0.45 6.15 -0.5 6.15 -0.45" fill="#b00000" fill-rule="evenodd" stroke="none"/>
    <path d="M9.1 -8.05 L9.1 -8.45 9.2 -8.35 9.5 -8.05 9.45 -7.7 9.4 -6.75 9.25 -5.55 Q9.55 -5.8 9.85 -6.55 L10.2 -7.25 10.25 -7.15 10.25 -7.1 10.05 -6.3 9.6 -5.35 9.0 -4.15 8.85 -3.9 8.5 -3.4 Q8.7 -3.9 8.85 -4.6 9.15 -5.9 9.15 -7.05 L9.15 -7.1 9.1 -8.0 9.1 -8.05 M5.3 -1.95 L5.45 -2.05 6.1 -2.45 Q6.95 -2.9 7.25 -2.75 7.55 -2.9 7.75 -2.9 7.95 -2.9 8.05 -2.8 L8.0 -2.75 7.55 -2.2 7.45 -2.15 Q6.65 -1.3 5.65 -0.45 4.9 -0.5 3.45 -0.8 L3.3 -0.85 3.35 -0.85 5.2 -1.85 5.3 -1.95 M0.55 -3.65 L0.55 -3.7 1.3 -3.05 Q2.25 -2.35 3.45 -2.25 L3.5 -2.25 3.9 -2.3 Q4.2 -2.1 4.45 -2.0 3.95 -1.7 3.4 -1.4 L3.25 -1.45 3.05 -1.55 2.55 -1.85 2.5 -1.9 2.4 -1.95 1.75 -2.4 0.5 -3.4 0.55 -3.65 M0.9 -1.9 Q0.45 -2.4 0.45 -2.9 L0.45 -3.2 Q0.95 -2.45 1.55 -2.0 2.3 -1.4 3.1 -1.25 L2.55 -1.0 1.7 -1.25 1.5 -1.35 Q1.45 -1.4 1.3 -1.5 1.05 -1.7 0.9 -1.9 M7.5 -1.75 L7.55 -1.75 Q7.8 -2.05 8.55 -2.3 9.1 -2.5 9.4 -2.45 9.9 -3.45 10.05 -3.8 L10.7 -5.35 Q10.7 -4.45 10.55 -3.8 L10.55 -3.65 10.5 -3.6 Q10.3 -2.8 9.9 -2.1 9.4 -1.3 8.65 -0.6 L6.15 -0.45 6.15 -0.5 Q6.8 -0.95 7.5 -1.75" fill="#600000" fill-rule="evenodd" stroke="none"/>
    <path d="M2.1 -6.5 L2.2 -6.6 Q2.55 -6.0 3.1 -5.4 4.5 -3.85 6.3 -3.6 5.6 -2.85 4.75 -2.25 L2.7 -3.7 Q1.85 -4.3 1.05 -5.0 L1.15 -5.15 2.1 -6.5 M10.75 -3.4 L10.95 -3.5 Q11.65 -3.85 11.75 -3.9 L12.05 -4.1 Q12.25 -3.6 12.25 -3.4 12.25 -3.05 11.75 -2.25 L11.5 -1.85 10.95 -1.45 Q10.3 -1.05 9.55 -0.8 9.85 -1.25 10.2 -1.9 10.5 -2.55 10.7 -3.2 L10.75 -3.4" fill="#0070e0" fill-rule="evenodd" stroke="none"/>
  </g>
</svg>
