<?xml version="1.0" encoding="UTF-8" standalone="no"?>
<svg xmlns:ffdec="https://www.free-decompiler.com/flash" xmlns:xlink="http://www.w3.org/1999/xlink" ffdec:objectType="shape" height="8.75px" width="12.0px" xmlns="http://www.w3.org/2000/svg">
  <g transform="matrix(1.0, 0.0, 0.0, 1.0, 0.0, 6.25)">
    <path d="M2.95 -5.4 L2.25 -5.35 1.25 -5.2 Q1.1 -5.2 1.0 -5.1 2.75 -3.95 4.35 -3.2 5.5 -2.65 6.8 -2.2 L8.1 -2.8 9.45 -3.35 Q9.95 -3.55 10.7 -4.1 L11.5 -4.75 Q11.5 -4.9 11.55 -4.95 L11.5 -5.05 Q11.35 -5.25 11.2 -5.35 L11.15 -5.4 10.9 -5.45 8.8 -5.85 7.2 -5.85 4.1 -5.6 4.05 -5.6 2.95 -5.4 M2.85 -3.65 Q1.7 -4.35 0.95 -5.1 L0.8 -4.95 0.65 -4.75 0.6 -4.75 0.55 -4.7 0.5 -4.7 1.1 -4.1 1.4 -3.75 1.85 -3.3 Q2.5 -2.55 2.7 -2.4 L3.35 -1.9 3.35 -1.85 Q3.75 -1.6 4.2 -1.3 L4.25 -1.25 Q5.35 -0.6 6.15 -0.35 L7.15 -0.5 Q7.75 -0.65 8.35 -0.9 L8.85 -1.15 9.1 -1.3 8.45 -1.45 8.45 -1.4 8.25 -1.4 8.35 -1.45 7.35 -1.75 Q5.7 -2.25 4.25 -2.95 L4.2 -2.95 2.85 -3.65 M2.8 -1.95 L2.25 -2.4 2.05 -2.6 0.65 -4.25 0.45 -4.5 Q0.2 -4.1 0.2 -3.9 0.2 -3.7 0.3 -3.5 0.4 -3.3 0.55 -3.15 L0.55 -3.1 0.6 -3.0 Q0.95 -2.55 1.45 -2.05 2.05 -1.45 2.7 -1.05 L2.75 -1.05 Q3.95 -0.3 5.35 -0.3 L5.4 -0.3 5.5 -0.3 5.35 -0.35 5.15 -0.45 3.8 -1.25 3.75 -1.25 2.8 -1.95 M0.45 -4.5 L0.45 -4.5 M0.25 -4.8 Q0.45 -5.4 0.8 -5.35 1.35 -5.6 2.45 -5.7 L3.2 -5.8 Q4.75 -6.05 6.45 -6.15 L7.05 -6.25 7.4 -6.2 8.75 -6.2 Q10.75 -5.9 11.15 -5.75 11.6 -5.6 11.75 -5.3 L11.9 -5.15 Q12.0 -4.95 12.0 -4.45 L11.95 -4.05 Q11.95 -3.55 11.75 -3.3 11.65 -3.1 11.15 -2.65 L11.1 -1.5 Q11.05 -0.05 11.05 0.85 L11.0 1.3 Q10.9 1.65 10.5 1.65 L10.25 1.6 10.2 1.55 10.15 1.55 10.15 1.5 Q10.1 1.1 10.1 0.5 10.1 -0.2 10.2 -1.5 L10.2 -1.65 9.7 -1.3 9.25 -0.95 9.2 -0.8 9.2 -0.45 9.25 -0.35 9.2 -0.35 9.25 0.15 9.3 0.5 9.3 1.1 Q9.35 1.4 9.35 1.75 9.3 2.35 9.0 2.5 L8.65 2.5 Q8.5 2.3 8.4 1.4 L8.3 0.45 8.3 0.4 8.35 -0.55 7.55 -0.3 6.05 -0.05 5.4 0.0 5.25 0.0 Q2.95 -0.05 1.35 -1.75 0.65 -2.5 0.3 -3.2 0.2 -3.3 0.1 -3.45 0.0 -3.65 0.0 -3.9 0.0 -4.3 0.25 -4.8 M11.6 -4.25 L11.6 -4.3 11.55 -4.5 11.55 -4.55 11.2 -4.2 Q10.65 -3.75 9.95 -3.25 8.8 -2.55 7.9 -2.2 L7.8 -2.2 7.3 -2.05 7.25 -2.05 8.65 -1.65 9.1 -1.95 9.15 -1.95 Q9.7 -2.4 10.3 -2.9 L10.4 -3.0 10.7 -3.25 Q11.25 -3.8 11.6 -4.25 M8.85 -1.55 L9.1 -1.5 9.15 -1.5 9.3 -1.45 9.35 -1.45 Q9.8 -1.75 10.25 -2.15 L10.4 -2.3 11.1 -3.1 11.15 -3.25 11.2 -3.3 11.2 -3.05 11.25 -3.1 11.4 -3.3 Q11.55 -3.6 11.6 -3.85 L11.15 -3.35 11.1 -3.3 Q10.8 -3.0 10.4 -2.7 L10.4 -2.65 10.25 -2.55 Q9.65 -2.1 9.15 -1.75 L9.1 -1.75 9.0 -1.7 8.8 -1.6 8.85 -1.55 M10.4 -1.85 L10.35 -1.15 10.5 -1.4 Q10.7 -1.6 10.9 -1.75 L11.0 -2.4 11.0 -2.5 10.9 -2.45 10.85 -2.4 10.85 -2.35 10.4 -1.85 M9.0 -0.1 L8.9 -0.05 8.5 0.35 8.5 0.45 8.5 1.2 Q8.7 0.7 9.05 0.55 L9.05 0.0 9.05 -0.15 9.05 -0.2 9.0 -0.1 M9.05 -0.4 L9.1 -0.9 8.45 -0.6 8.45 0.1 8.7 -0.1 Q8.9 -0.35 9.05 -0.4 M10.9 -1.4 L10.9 -1.6 Q10.6 -1.3 10.35 -0.9 L10.35 -0.75 10.3 -0.5 10.65 -0.5 Q10.8 -0.45 10.9 -0.35 L10.9 -1.4 M10.9 0.1 L10.9 -0.15 10.85 -0.15 Q10.75 -0.15 10.3 -0.45 L10.3 -0.15 10.25 0.75 Q10.4 0.65 10.6 0.6 L10.85 0.65 10.9 0.25 10.9 0.1 M10.85 0.9 L10.85 0.75 Q10.75 0.85 10.45 0.85 L10.35 0.85 10.25 0.8 10.25 1.0 10.2 1.5 10.35 1.55 Q10.75 1.55 10.85 1.2 10.9 1.05 10.85 0.9 M9.05 1.05 L9.05 0.8 9.0 0.85 8.5 1.25 8.55 1.5 Q8.65 2.25 8.9 2.25 9.05 2.25 9.1 1.7 9.05 1.4 9.05 1.05" fill="#111111" fill-rule="evenodd" stroke="none"/>
    <path d="M0.65 -4.75 L0.8 -4.95 0.95 -5.1 Q1.7 -4.35 2.85 -3.65 L2.8 -3.7 2.25 -3.95 2.0 -4.05 Q1.2 -4.5 0.75 -4.7 L0.65 -4.75 M2.95 -5.4 L4.05 -5.6 4.1 -5.6 7.2 -5.85 8.8 -5.85 10.9 -5.45 11.15 -5.4 11.2 -5.35 Q11.35 -5.25 11.5 -5.05 L11.55 -4.95 Q11.5 -4.9 11.5 -4.75 L10.7 -4.1 Q9.95 -3.55 9.45 -3.35 L8.1 -2.8 6.8 -2.2 Q5.5 -2.65 4.35 -3.2 2.75 -3.95 1.0 -5.1 1.1 -5.2 1.25 -5.2 L2.25 -5.35 2.95 -5.4 M5.4 -0.3 L5.35 -0.35 5.5 -0.3 5.4 -0.3 M3.75 -1.25 L4.35 -0.8 Q3.05 -1.35 2.1 -2.05 1.2 -2.75 0.9 -3.4 L2.6 -2.1 2.8 -1.95 3.75 -1.25 M0.45 -4.5 L0.45 -4.5 M5.15 -1.75 L5.45 -1.6 Q5.95 -1.35 6.2 -1.2 L6.6 -0.95 6.45 -1.0 Q6.55 -0.95 6.65 -0.9 6.5 -0.9 6.15 -1.05 5.9 -1.05 5.55 -1.2 5.2 -1.35 4.8 -1.6 L4.55 -1.75 4.5 -1.75 Q3.55 -2.3 2.25 -3.45 L2.05 -3.6 3.2 -3.0 Q3.75 -2.65 4.75 -2.05 L4.75 -2.0 Q4.9 -1.9 5.15 -1.75 M7.9 -2.2 Q8.8 -2.55 9.95 -3.25 10.65 -3.75 11.2 -4.2 L11.55 -4.55 11.55 -4.5 11.6 -4.3 11.6 -4.25 Q11.15 -3.95 10.35 -3.35 L10.3 -3.35 10.1 -3.2 Q8.65 -2.1 8.45 -2.1 L7.9 -2.2 M9.0 -1.7 L8.85 -1.55 8.8 -1.6 9.0 -1.7 M8.5 0.45 L8.5 0.35 8.9 -0.05 9.0 -0.1 9.05 -0.15 9.05 0.0 8.5 0.45 M10.35 -0.75 L10.35 -0.9 Q10.6 -1.3 10.9 -1.6 L10.9 -1.4 10.75 -1.2 10.35 -0.75 M10.9 0.1 Q10.7 0.05 10.35 -0.1 L10.3 -0.15 10.3 -0.45 Q10.75 -0.15 10.85 -0.15 L10.9 -0.15 10.9 0.1 M10.35 0.85 L10.45 0.85 Q10.75 0.85 10.85 0.75 L10.85 0.9 10.3 1.0 10.25 1.0 10.25 0.8 10.35 0.85 M8.55 1.5 L8.5 1.25 9.0 0.85 9.05 0.8 9.05 1.05 8.95 1.15 8.55 1.5" fill="#b00000" fill-rule="evenodd" stroke="none"/>
    <path d="M0.65 -4.75 L0.75 -4.7 Q1.2 -4.5 2.0 -4.05 L2.25 -3.95 2.8 -3.7 2.85 -3.65 4.2 -2.95 4.25 -2.95 Q5.7 -2.25 7.35 -1.75 L8.35 -1.45 8.25 -1.4 8.45 -1.4 8.45 -1.45 9.1 -1.3 8.85 -1.15 8.35 -0.9 Q7.75 -0.65 7.15 -0.5 L6.15 -0.35 Q5.35 -0.6 4.25 -1.25 L4.2 -1.3 Q3.75 -1.6 3.35 -1.85 L3.35 -1.9 2.7 -2.4 Q2.5 -2.55 1.85 -3.3 L1.4 -3.75 1.1 -4.1 0.5 -4.7 0.55 -4.7 0.6 -4.75 0.65 -4.75 M0.45 -4.5 L0.65 -4.25 2.05 -2.6 2.25 -2.4 2.8 -1.95 2.6 -2.1 0.9 -3.4 Q1.2 -2.75 2.1 -2.05 3.05 -1.35 4.35 -0.8 L3.75 -1.25 3.8 -1.25 5.15 -0.45 5.35 -0.35 5.4 -0.3 5.35 -0.3 Q3.95 -0.3 2.75 -1.05 L2.7 -1.05 Q2.05 -1.45 1.45 -2.05 0.95 -2.55 0.6 -3.0 L0.55 -3.1 0.55 -3.15 Q0.4 -3.3 0.3 -3.5 0.2 -3.7 0.2 -3.9 0.2 -4.1 0.45 -4.5 M5.15 -1.75 Q4.9 -1.9 4.75 -2.0 L4.75 -2.05 Q3.75 -2.65 3.2 -3.0 L2.05 -3.6 2.25 -3.45 Q3.55 -2.3 4.5 -1.75 L4.55 -1.75 4.8 -1.6 Q5.2 -1.35 5.55 -1.2 5.9 -1.05 6.15 -1.05 6.5 -0.9 6.65 -0.9 6.55 -0.95 6.45 -1.0 L6.6 -0.95 6.2 -1.2 Q5.95 -1.35 5.45 -1.6 L5.15 -1.75 M7.9 -2.2 L8.45 -2.1 Q8.65 -2.1 10.1 -3.2 L10.3 -3.35 10.35 -3.35 Q11.15 -3.95 11.6 -4.25 11.25 -3.8 10.7 -3.25 L10.4 -3.0 10.3 -2.9 Q9.7 -2.4 9.15 -1.95 L9.1 -1.95 8.65 -1.65 7.25 -2.05 7.3 -2.05 7.8 -2.2 7.9 -2.2 M9.0 -1.7 L9.1 -1.75 9.15 -1.75 Q9.65 -2.1 10.25 -2.55 L10.4 -2.65 10.4 -2.7 Q10.8 -3.0 11.1 -3.3 L11.15 -3.35 11.6 -3.85 Q11.55 -3.6 11.4 -3.3 L11.25 -3.1 11.2 -3.05 11.2 -3.3 11.15 -3.25 11.1 -3.1 10.4 -2.3 10.25 -2.15 Q9.8 -1.75 9.35 -1.45 L9.3 -1.45 9.15 -1.5 9.1 -1.5 8.85 -1.55 9.0 -1.7 M10.4 -1.85 L10.85 -2.35 10.85 -2.4 10.9 -2.45 11.0 -2.5 11.0 -2.4 10.9 -1.75 Q10.7 -1.6 10.5 -1.4 L10.35 -1.15 10.4 -1.85 M8.5 0.45 L9.05 0.0 9.05 0.55 Q8.7 0.7 8.5 1.2 L8.5 0.45 M9.05 -0.15 L9.0 -0.1 9.05 -0.2 9.05 -0.15 M9.05 -0.4 Q8.9 -0.35 8.7 -0.1 L8.45 0.1 8.45 -0.6 9.1 -0.9 9.05 -0.4 M10.35 -0.75 L10.75 -1.2 10.9 -1.4 10.9 -0.35 Q10.8 -0.45 10.65 -0.5 L10.3 -0.5 10.35 -0.75 M10.3 -0.15 L10.35 -0.1 Q10.7 0.05 10.9 0.1 L10.9 0.25 10.85 0.65 10.6 0.6 Q10.4 0.65 10.25 0.75 L10.3 -0.15 M10.35 0.85 L10.25 0.8 10.35 0.85 M10.25 1.0 L10.3 1.0 10.85 0.9 Q10.9 1.05 10.85 1.2 10.75 1.55 10.35 1.55 L10.2 1.5 10.25 1.0 M8.55 1.5 L8.95 1.15 9.05 1.05 Q9.05 1.4 9.1 1.7 9.05 2.25 8.9 2.25 8.65 2.25 8.55 1.5" fill="#600000" fill-rule="evenodd" stroke="none"/>
  </g>
</svg>
