<?xml version="1.0" encoding="UTF-8" standalone="no"?>
<svg xmlns:ffdec="https://www.free-decompiler.com/flash" xmlns:xlink="http://www.w3.org/1999/xlink" ffdec:objectType="shape" height="12.05px" width="20.45px" xmlns="http://www.w3.org/2000/svg">
  <g transform="matrix(1.0, 0.0, 0.0, 1.0, 1.9, 9.0)">
    <path d="M2.5 -4.65 L2.85 -5.85 3.2 -7.35 3.7 -7.85 4.0 -8.0 Q4.55 -8.2 5.5 -8.4 L6.9 -8.6 9.3 -8.8 9.95 -8.8 10.65 -8.75 11.35 -8.75 Q11.4 -8.7 12.5 -8.5 13.6 -8.25 13.85 -7.8 14.1 -7.45 14.15 -7.0 L14.2 -6.65 14.3 -6.8 14.3 -6.85 14.35 -6.7 14.3 -6.5 14.35 -6.0 14.35 -5.4 Q14.45 -4.3 14.65 -4.3 14.8 -4.3 15.0 -5.5 L15.45 -4.9 16.2 -4.0 Q16.15 -3.55 15.1 -2.5 L14.4 -1.9 14.15 -1.75 Q13.5 -1.35 13.0 -1.35 12.95 -1.35 12.65 -1.55 L12.7 -1.5 13.1 -1.75 13.4 -1.9 13.6 -2.05 Q14.5 -2.65 14.5 -2.8 14.5 -2.9 14.45 -2.9 L14.05 -3.0 12.3 -3.1 12.2 -3.1 12.2 -3.15 12.7 -3.35 13.9 -3.5 Q14.2 -3.55 14.2 -3.75 14.2 -3.95 13.8 -4.05 L12.95 -4.1 Q12.75 -4.1 11.8 -3.8 L11.05 -3.55 10.6 -3.35 Q8.5 -2.6 8.25 -2.6 7.55 -2.6 6.55 -3.35 6.0 -3.75 5.6 -4.1 5.55 -4.1 5.5 -4.05 5.45 -4.05 5.4 -4.05 5.3 -4.05 4.35 -4.4 L4.0 -4.5 Q3.4 -4.55 3.4 -4.1 3.4 -4.05 4.0 -3.75 L4.65 -3.4 Q4.85 -3.3 5.05 -3.2 4.9 -3.05 4.8 -2.8 L4.0 -2.85 3.6 -2.85 Q3.3 -2.8 3.25 -2.55 3.6 -2.35 4.0 -2.0 L4.45 -1.6 4.55 -1.5 4.55 -1.2 4.35 -0.9 4.05 -0.9 3.8 -1.05 Q3.3 -1.25 2.95 -1.55 L2.8 -1.65 2.35 -2.1 2.25 -2.25 2.2 -2.25 2.2 -2.3 1.75 -2.6 1.4 -3.05 0.95 -3.6 0.8 -3.9 0.7 -4.0 1.45 -4.95 1.55 -5.1 Q1.75 -3.6 1.95 -3.6 2.35 -3.6 2.45 -4.35 L2.5 -4.65 M14.7 -5.9 L14.75 -5.9 14.7 -5.85 14.7 -5.9" fill="#80c0f0" fill-rule="evenodd" stroke="none"/>
    <path d="M14.35 -6.7 L14.3 -6.85 14.3 -6.8 14.2 -6.65 14.15 -7.0 Q14.1 -7.45 13.85 -7.8 13.6 -8.25 12.5 -8.5 11.4 -8.7 11.35 -8.75 L10.65 -8.75 9.95 -8.8 9.3 -8.8 6.9 -8.6 5.5 -8.4 Q4.55 -8.2 4.0 -8.0 L3.7 -7.85 3.2 -7.35 2.85 -5.85 2.5 -4.65 2.45 -4.6 2.15 -3.75 2.15 -3.7 2.1 -3.7 Q2.15 -4.75 2.5 -5.9 L2.7 -6.55 2.75 -6.8 2.8 -6.9 Q2.3 -6.1 1.55 -5.1 L1.45 -4.95 0.7 -4.0 0.55 -3.85 0.5 -3.7 0.3 -3.5 Q0.3 -3.05 0.45 -2.85 L0.55 -2.75 Q1.15 -2.15 1.7 -1.65 L1.75 -1.65 1.85 -1.5 Q2.3 -1.4 2.7 -1.25 3.2 -1.0 3.55 -0.65 L3.8 -0.4 3.9 -0.35 4.0 -0.35 Q4.1 -0.35 4.2 -0.5 L4.15 -0.3 4.25 -0.3 5.5 -0.45 6.15 -0.6 6.55 -0.7 6.6 -0.7 7.45 -0.9 7.3 -0.85 7.85 -1.0 8.0 -1.5 8.05 -1.7 8.05 -2.0 7.65 -2.1 7.55 -2.1 7.55 -2.15 Q7.25 -2.3 6.55 -2.8 L6.25 -3.05 5.85 -3.35 5.75 -3.55 Q5.95 -3.5 6.15 -3.35 L6.55 -3.0 7.1 -2.6 8.15 -2.4 8.15 -2.45 8.2 -2.4 Q8.25 -2.4 8.3 -2.35 L8.35 -2.35 8.4 -2.3 Q8.8 -2.35 9.45 -2.6 L10.5 -3.0 10.6 -3.0 11.05 -3.35 Q11.5 -3.55 11.8 -3.45 L11.95 -3.4 11.85 -3.3 11.8 -3.3 11.05 -3.0 10.65 -2.85 Q10.05 -2.55 9.8 -2.3 L9.75 -2.3 10.1 -2.6 8.75 -2.15 9.1 -1.95 10.0 -1.4 9.95 -1.35 8.95 -1.75 Q8.65 -1.9 8.45 -2.05 L8.4 -2.05 8.45 -1.7 8.4 -0.95 Q8.4 -0.75 9.0 -0.55 L9.75 -0.4 9.9 -0.4 11.5 -0.3 12.2 -0.35 12.4 -0.5 12.85 -0.85 13.3 -1.25 Q13.8 -1.55 14.2 -1.75 L14.45 -1.8 14.55 -1.85 14.75 -1.9 15.05 -1.95 Q15.9 -2.55 16.5 -3.1 L16.6 -3.4 Q16.6 -3.55 16.25 -4.0 L16.2 -4.0 15.45 -4.9 15.0 -5.5 14.75 -5.9 14.7 -5.9 14.65 -6.0 14.4 -6.6 14.35 -6.7 M11.2 -9.0 Q12.9 -8.85 13.7 -8.4 14.4 -8.05 14.4 -7.55 L14.35 -7.35 14.5 -7.0 Q14.7 -6.55 15.1 -6.0 15.4 -5.55 15.8 -5.05 L16.95 -3.55 Q16.95 -3.25 16.6 -2.85 16.25 -2.45 15.8 -2.25 L15.8 -2.2 15.9 -2.3 15.85 -2.3 15.8 -2.2 15.1 -1.95 15.35 -2.0 15.7 -1.95 16.25 -1.9 Q16.6 -1.85 16.9 -1.75 17.55 -1.45 18.0 -0.75 18.55 0.1 18.55 1.15 18.55 1.35 18.4 1.7 18.2 2.15 18.0 2.15 17.55 2.35 16.65 2.55 15.25 2.85 14.1 2.85 13.0 2.85 12.1 2.6 L12.05 2.6 Q11.65 2.55 10.35 2.0 L9.5 1.55 9.45 1.6 9.3 1.45 9.1 1.35 Q9.1 1.25 9.15 1.25 L9.1 1.05 Q9.1 0.6 9.2 0.3 9.3 0.05 9.45 -0.15 8.65 -0.25 8.3 -0.45 8.05 -0.6 8.05 -0.95 L8.05 -0.9 8.1 -0.8 Q8.1 -0.55 6.95 -0.35 7.2 0.2 7.2 0.55 L7.2 1.1 Q7.1 1.5 6.9 1.5 L6.8 1.5 6.55 1.65 Q5.75 2.4 5.25 2.8 L5.2 2.8 5.2 2.85 5.15 2.9 5.15 2.85 5.05 2.9 4.9 3.0 4.85 2.95 3.5 3.05 Q1.35 3.05 -0.15 2.7 -1.1 2.45 -1.5 2.2 L-1.6 2.2 Q-1.7 2.2 -1.75 1.95 L-1.85 1.7 -1.9 1.2 Q-1.9 -0.2 -1.1 -0.95 -0.4 -1.6 0.7 -1.65 L1.4 -1.6 1.35 -1.65 1.1 -1.95 Q0.6 -2.1 0.3 -2.45 0.0 -2.8 0.0 -3.1 0.0 -3.6 1.55 -5.7 2.35 -6.75 3.2 -7.85 L3.3 -8.05 3.35 -8.0 3.35 -7.9 Q3.55 -8.1 4.0 -8.3 4.25 -8.4 4.6 -8.5 5.45 -8.7 6.55 -8.85 L9.85 -9.0 11.2 -9.0 M4.35 0.5 Q4.0 0.05 3.55 -0.35 L3.35 -0.55 3.25 -0.6 Q2.6 -1.05 1.8 -1.2 L1.8 -1.25 1.7 -1.25 1.05 -1.3 Q-0.6 -1.3 -1.25 -0.15 -1.5 0.3 -1.55 0.8 L-1.55 1.2 -1.5 1.55 -1.5 1.6 -1.5 1.7 -1.45 1.95 Q-1.0 2.0 0.0 2.3 1.55 2.75 2.55 2.75 L4.2 2.7 4.9 2.6 Q4.95 2.55 5.05 2.5 4.75 1.3 4.6 1.0 4.45 0.75 4.35 0.5 M7.0 -2.65 L7.0 -2.65 M6.55 -0.25 L4.35 0.0 Q4.55 0.25 4.75 0.55 5.25 1.4 5.3 2.25 5.65 1.95 6.05 1.65 L6.55 1.3 6.7 1.2 6.85 0.9 Q6.95 0.7 6.95 0.5 6.95 0.3 6.8 -0.05 L6.7 -0.3 6.55 -0.25 M9.8 -0.1 L9.65 0.25 Q9.45 0.8 9.45 1.05 9.45 1.2 9.5 1.35 L10.6 1.75 Q11.15 1.95 11.6 2.15 L11.85 2.15 11.8 2.05 Q11.65 1.9 11.65 1.7 11.65 0.85 12.05 0.15 L12.15 0.0 Q11.85 0.25 11.7 0.4 11.65 0.5 11.65 0.35 11.65 0.15 12.05 -0.15 L11.1 -0.05 9.8 -0.1 M17.8 -0.35 L17.75 -0.45 Q17.05 -1.7 15.7 -1.7 L14.9 -1.6 13.25 -0.7 13.15 -0.65 12.85 -0.3 12.65 -0.05 12.35 0.45 12.3 0.45 12.2 0.7 Q12.05 1.2 12.0 1.95 L12.05 2.2 12.05 2.25 12.2 2.35 Q12.75 2.55 14.3 2.55 15.8 2.55 17.05 2.15 L17.8 1.9 18.05 1.85 18.1 1.6 Q18.2 1.25 18.2 1.15 L18.2 1.1 18.15 0.6 Q18.1 0.35 18.0 0.05 L17.8 -0.35" fill="#111111" fill-rule="evenodd" stroke="none"/>
    <path d="M2.5 -4.65 L2.45 -4.35 Q2.35 -3.6 1.95 -3.6 1.75 -3.6 1.55 -5.1 2.3 -6.1 2.8 -6.9 L2.75 -6.8 2.7 -6.55 2.5 -5.9 Q2.15 -4.75 2.1 -3.7 L2.15 -3.7 2.15 -3.75 2.45 -4.6 2.5 -4.65 M0.7 -4.0 L0.8 -3.9 0.95 -3.6 1.4 -3.05 1.75 -2.6 2.2 -2.3 2.2 -2.25 2.25 -2.25 2.35 -2.1 2.8 -1.65 2.95 -1.55 Q3.3 -1.25 3.8 -1.05 L4.05 -0.9 4.35 -0.9 4.55 -1.2 4.55 -1.5 4.45 -1.6 4.0 -2.0 Q3.6 -2.35 3.25 -2.55 3.3 -2.8 3.6 -2.85 L4.0 -2.85 4.8 -2.8 Q4.9 -3.05 5.05 -3.2 4.85 -3.3 4.65 -3.4 L4.0 -3.75 Q3.4 -4.05 3.4 -4.1 3.4 -4.55 4.0 -4.5 L4.35 -4.4 Q5.3 -4.05 5.4 -4.05 5.45 -4.05 5.5 -4.05 5.55 -4.1 5.6 -4.1 6.0 -3.75 6.55 -3.35 7.55 -2.6 8.25 -2.6 8.5 -2.6 10.6 -3.35 L11.05 -3.55 11.8 -3.8 Q12.75 -4.1 12.95 -4.1 L13.8 -4.05 Q14.2 -3.95 14.2 -3.75 14.2 -3.55 13.9 -3.5 L12.7 -3.35 12.2 -3.15 12.2 -3.1 12.3 -3.1 14.05 -3.0 14.45 -2.9 Q14.5 -2.9 14.5 -2.8 14.5 -2.65 13.6 -2.05 L13.4 -1.9 13.1 -1.75 12.7 -1.5 12.65 -1.55 Q12.95 -1.35 13.0 -1.35 13.5 -1.35 14.15 -1.75 L14.4 -1.9 15.1 -2.5 Q16.15 -3.55 16.2 -4.0 L16.25 -4.0 Q16.6 -3.55 16.6 -3.4 L16.5 -3.1 Q15.9 -2.55 15.05 -1.95 L14.75 -1.9 14.55 -1.85 14.45 -1.8 14.2 -1.75 Q13.8 -1.55 13.3 -1.25 L12.85 -0.85 12.4 -0.5 12.2 -0.35 11.5 -0.3 9.9 -0.4 9.75 -0.4 9.0 -0.55 Q8.4 -0.75 8.4 -0.95 L8.45 -1.7 8.4 -2.05 8.45 -2.05 Q8.65 -1.9 8.95 -1.75 L9.95 -1.35 10.0 -1.4 9.1 -1.95 8.75 -2.15 10.1 -2.6 9.75 -2.3 9.8 -2.3 Q10.05 -2.55 10.65 -2.85 L11.05 -3.0 11.8 -3.3 11.85 -3.3 11.95 -3.4 11.8 -3.45 Q11.5 -3.55 11.05 -3.35 L10.6 -3.0 10.5 -3.0 9.45 -2.6 Q8.8 -2.35 8.4 -2.3 L8.35 -2.35 8.3 -2.35 Q8.25 -2.4 8.2 -2.4 L8.15 -2.45 8.15 -2.4 7.1 -2.6 6.55 -3.0 6.15 -3.35 Q5.95 -3.5 5.75 -3.55 L5.85 -3.35 6.25 -3.05 6.55 -2.8 Q7.25 -2.3 7.55 -2.15 L7.55 -2.1 7.65 -2.1 8.05 -2.0 8.05 -1.7 8.0 -1.5 7.85 -1.0 7.3 -0.85 7.45 -0.9 6.6 -0.7 6.55 -0.7 6.15 -0.6 5.5 -0.45 4.25 -0.3 4.15 -0.3 4.2 -0.5 Q4.1 -0.35 4.0 -0.35 L3.9 -0.35 3.8 -0.4 3.55 -0.65 Q3.2 -1.0 2.7 -1.25 2.3 -1.4 1.85 -1.5 L1.75 -1.65 1.7 -1.65 Q1.15 -2.15 0.55 -2.75 L0.45 -2.85 Q0.3 -3.05 0.3 -3.5 L0.5 -3.7 0.55 -3.85 0.7 -4.0 M15.0 -5.5 Q14.8 -4.3 14.65 -4.3 14.45 -4.3 14.35 -5.4 L14.35 -6.0 14.3 -6.5 14.35 -6.7 14.4 -6.6 14.65 -6.0 14.7 -5.9 14.7 -5.85 14.75 -5.9 15.0 -5.5" fill="#0070e0" fill-rule="evenodd" stroke="none"/>
    <path d="M-1.55 0.8 Q-1.5 0.3 -1.25 -0.15 -0.6 -1.3 1.05 -1.3 L1.7 -1.25 1.8 -1.25 1.8 -1.2 Q2.6 -1.05 3.25 -0.6 L3.35 -0.55 3.55 -0.35 Q4.0 0.05 4.35 0.5 L4.2 0.6 0.7 1.15 -0.85 1.15 Q-1.15 1.05 -1.45 0.85 L-1.55 0.8 M-1.5 1.7 L-1.5 1.6 -1.45 1.65 -1.5 1.7 M12.65 -0.05 L12.85 -0.3 13.15 -0.65 13.25 -0.7 14.9 -1.6 15.7 -1.7 Q17.05 -1.7 17.75 -0.45 L17.8 -0.35 17.0 0.2 Q15.3 1.35 14.3 1.35 13.35 1.35 12.85 0.4 L12.65 -0.05 M18.0 0.05 Q18.1 0.35 18.15 0.6 L18.1 0.45 17.45 0.9 Q16.65 1.35 15.6 1.35 L15.65 1.35 Q17.2 0.7 18.0 0.05 M1.2 1.75 L-0.2 1.65 2.0 1.45 3.45 1.2 Q3.25 1.35 2.85 1.5 2.1 1.75 1.2 1.75" fill="#9c9581" fill-rule="evenodd" stroke="none"/>
    <path d="M-1.55 0.8 L-1.45 0.85 Q-1.15 1.05 -0.85 1.15 L0.7 1.15 4.2 0.6 4.35 0.5 Q4.45 0.75 4.6 1.0 4.75 1.3 5.05 2.5 4.95 2.55 4.9 2.6 L4.2 2.7 2.55 2.75 Q1.55 2.75 0.0 2.3 -1.0 2.0 -1.45 1.95 L-1.5 1.7 -1.45 1.65 -1.5 1.6 -1.5 1.55 -1.55 1.2 -1.55 0.8 M9.8 -0.1 L11.1 -0.05 12.05 -0.15 Q11.65 0.15 11.65 0.35 11.65 0.5 11.7 0.4 11.85 0.25 12.15 0.0 L12.05 0.15 Q11.65 0.85 11.65 1.7 11.65 1.9 11.8 2.05 L11.85 2.15 11.6 2.15 Q11.15 1.95 10.6 1.75 L9.5 1.35 Q9.45 1.2 9.45 1.05 9.45 0.8 9.65 0.25 L9.8 -0.1 M6.55 -0.25 L6.7 -0.3 6.8 -0.05 Q6.95 0.3 6.95 0.5 6.95 0.7 6.85 0.9 L6.7 1.2 6.55 1.3 6.05 1.65 Q5.65 1.95 5.3 2.25 5.25 1.4 4.75 0.55 4.55 0.25 4.35 0.0 L6.55 -0.25 M12.65 -0.05 L12.85 0.4 Q13.35 1.35 14.3 1.35 15.3 1.35 17.0 0.2 L17.8 -0.35 18.0 0.05 Q17.2 0.7 15.65 1.35 L15.6 1.35 Q16.65 1.35 17.45 0.9 L18.1 0.45 18.15 0.6 18.2 1.1 18.2 1.15 Q18.2 1.25 18.1 1.6 L18.05 1.85 17.8 1.9 17.05 2.15 Q15.8 2.55 14.3 2.55 12.75 2.55 12.2 2.35 L12.05 2.25 12.05 2.2 12.0 1.95 Q12.05 1.2 12.2 0.7 L12.3 0.45 12.35 0.45 12.65 -0.05 M1.2 1.75 Q2.1 1.75 2.85 1.5 3.25 1.35 3.45 1.2 L2.0 1.45 -0.2 1.65 1.2 1.75" fill="#666154" fill-rule="evenodd" stroke="none"/>
  </g>
</svg>
