<?xml version="1.0" encoding="UTF-8" standalone="no"?>
<svg xmlns:ffdec="https://www.free-decompiler.com/flash" xmlns:xlink="http://www.w3.org/1999/xlink" ffdec:objectType="shape" height="6.05px" width="6.95px" xmlns="http://www.w3.org/2000/svg">
  <g transform="matrix(1.0, 0.0, 0.0, 1.0, 0.0, 6.05)">
    <path d="M3.95 -5.65 L4.0 -5.65 4.2 -5.7 4.5 -5.7 Q4.9 -5.5 5.3 -5.1 5.85 -4.6 6.1 -4.2 L6.3 -4.3 6.55 -4.45 Q6.7 -4.0 6.7 -3.4 6.7 -2.65 6.4 -2.0 6.05 -1.1 5.35 -0.8 L5.3 -0.9 Q5.75 -1.5 5.75 -2.45 5.75 -3.2 5.2 -3.9 4.4 -4.95 2.75 -4.95 L2.65 -4.95 Q2.8 -5.1 3.0 -5.25 3.7 -5.25 4.15 -5.0 L5.0 -4.5 Q5.4 -4.25 5.65 -4.2 L5.5 -4.25 5.2 -4.65 Q5.0 -4.9 4.5 -5.25 L3.95 -5.65" fill="#600000" fill-rule="evenodd" stroke="none"/>
    <path d="M4.5 -5.7 L4.2 -5.7 4.0 -5.65 3.95 -5.65 Q3.45 -5.5 3.0 -5.25 2.8 -5.1 2.65 -4.95 L2.75 -4.95 Q4.4 -4.95 5.2 -3.9 5.75 -3.2 5.75 -2.45 5.75 -1.5 5.3 -0.9 L5.15 -0.75 5.35 -0.8 Q6.05 -1.1 6.4 -2.0 6.7 -2.65 6.7 -3.4 6.7 -4.0 6.55 -4.45 6.35 -4.95 5.9 -5.3 5.35 -5.75 4.5 -5.7 M5.35 -3.1 Q5.15 -3.65 4.7 -3.95 4.0 -4.5 2.95 -4.4 L2.4 -4.3 2.3 -4.35 Q2.05 -4.35 1.75 -4.2 1.4 -4.0 1.2 -3.7 0.5 -3.05 0.45 -2.2 L0.45 -1.9 Q0.5 -1.4 0.8 -1.05 1.4 -0.35 2.75 -0.35 L3.35 -0.4 2.9 -0.45 Q3.55 -0.5 3.95 -0.6 L4.1 -0.7 4.35 -0.7 Q4.65 -0.85 4.85 -1.0 5.2 -1.35 5.45 -1.9 L5.5 -2.2 Q5.5 -2.55 5.4 -2.9 L5.35 -3.1 M1.95 -4.8 Q2.85 -6.05 4.2 -6.05 6.05 -6.05 6.7 -4.85 6.95 -4.3 6.95 -3.4 6.95 -2.35 6.45 -1.6 5.85 -0.7 4.7 -0.45 3.95 0.0 2.65 0.0 1.2 0.0 0.5 -0.75 0.0 -1.3 0.0 -1.8 0.0 -2.55 0.7 -3.6 1.25 -4.5 1.95 -4.8" fill="#111111" fill-rule="evenodd" stroke="none"/>
    <path d="M3.95 -5.65 L4.5 -5.25 Q5.0 -4.9 5.2 -4.65 L5.5 -4.25 5.65 -4.2 Q5.4 -4.25 5.0 -4.5 L4.15 -5.0 Q3.7 -5.25 3.0 -5.25 3.45 -5.5 3.95 -5.65 M5.3 -0.9 L5.35 -0.8 5.15 -0.75 5.3 -0.9 M6.55 -4.45 L6.3 -4.3 6.1 -4.2 Q5.85 -4.6 5.3 -5.1 4.9 -5.5 4.5 -5.7 5.35 -5.75 5.9 -5.3 6.35 -4.95 6.55 -4.45" fill="#b00000" fill-rule="evenodd" stroke="none"/>
    <path d="M0.45 -2.2 Q0.5 -3.05 1.2 -3.7 1.4 -4.0 1.75 -4.2 2.05 -4.35 2.3 -4.35 L2.4 -4.3 2.95 -4.4 Q4.0 -4.5 4.7 -3.95 5.15 -3.65 5.35 -3.1 5.15 -2.95 4.95 -2.8 3.75 -2.0 1.75 -2.0 1.2 -2.0 0.75 -2.1 L0.45 -2.2" fill="#c7a36d" fill-rule="evenodd" stroke="none"/>
    <path d="M5.35 -3.1 L5.4 -2.9 Q5.5 -2.55 5.5 -2.2 L5.45 -1.9 Q5.2 -1.35 4.85 -1.0 4.65 -0.85 4.35 -0.7 L4.1 -0.7 3.95 -0.6 Q3.55 -0.5 2.9 -0.45 L3.35 -0.4 2.75 -0.35 Q1.4 -0.35 0.8 -1.05 0.5 -1.4 0.45 -1.9 L0.45 -2.2 0.75 -2.1 Q1.2 -2.0 1.75 -2.0 3.75 -2.0 4.95 -2.8 5.15 -2.95 5.35 -3.1" fill="#a9854f" fill-rule="evenodd" stroke="none"/>
  </g>
</svg>
