<?xml version="1.0" encoding="UTF-8" standalone="no"?>
<svg xmlns:ffdec="https://www.free-decompiler.com/flash" xmlns:xlink="http://www.w3.org/1999/xlink" ffdec:objectType="shape" height="21.9px" width="12.85px" xmlns="http://www.w3.org/2000/svg">
  <g transform="matrix(1.0, 0.0, 0.0, 1.0, 0.0, 21.9)">
    <path d="M11.65 -19.75 L11.65 -19.55 Q11.0 -16.9 10.85 -16.3 10.5 -14.65 10.45 -13.5 10.5 -11.3 11.15 -7.95 L11.2 -7.7 Q11.9 -4.6 12.75 -2.95 L12.85 -3.0 12.8 -2.9 12.8 -2.85 Q12.8 -2.75 12.75 -2.75 L12.7 -2.85 Q12.55 -2.7 12.3 -2.6 L12.5 -1.85 Q12.5 -1.7 12.25 -1.55 12.1 -1.4 11.95 -1.45 11.4 -0.95 10.35 -0.6 8.7 0.0 6.45 0.0 4.95 0.0 3.5 -0.55 2.1 -1.1 1.5 -1.3 L1.45 -1.25 1.35 -1.25 1.35 -1.3 1.25 -1.35 Q1.05 -1.35 1.35 -1.4 L1.7 -1.75 1.95 -2.1 1.25 -2.4 Q0.4 -2.85 0.0 -3.05 L0.15 -3.1 0.15 -3.15 0.7 -3.95 Q1.4 -4.95 1.95 -6.2 L2.55 -7.7 Q2.9 -8.55 3.1 -9.2 3.45 -10.5 3.65 -12.25 3.75 -12.95 3.95 -15.3 L4.0 -15.3 3.9 -16.95 Q3.9 -17.15 4.55 -17.55 5.0 -17.8 5.35 -17.9 L5.5 -18.05 Q5.8 -18.5 6.3 -18.9 6.75 -19.35 7.25 -19.45 L7.25 -19.5 8.0 -20.1 Q10.65 -22.1 11.2 -21.9 L11.35 -21.85 Q11.5 -21.8 11.5 -21.55 L11.5 -21.3 11.55 -21.0 Q11.55 -20.7 11.35 -20.05 L11.3 -19.8 11.6 -19.8 11.65 -19.75 M11.05 -21.7 Q10.8 -21.7 9.6 -20.9 L8.6 -20.15 8.25 -19.9 7.7 -19.45 8.1 -19.25 Q8.45 -19.1 8.7 -18.8 8.95 -18.55 8.95 -18.35 L8.95 -18.3 9.45 -18.8 9.5 -18.9 10.1 -19.7 10.15 -19.7 10.6 -20.5 11.05 -21.4 11.2 -21.6 11.2 -21.65 Q11.2 -21.7 11.05 -21.7 M6.0 -15.3 L6.0 -16.1 6.05 -16.1 6.05 -16.15 Q6.2 -16.3 6.7 -16.6 L7.2 -16.85 7.95 -17.45 8.8 -18.15 8.6 -18.55 8.5 -18.7 Q8.1 -19.15 7.45 -19.15 6.25 -19.15 5.5 -17.65 L5.5 -17.6 5.15 -16.35 Q4.9 -15.55 4.8 -15.0 4.85 -14.8 4.9 -14.55 L5.1 -14.15 5.25 -13.85 5.45 -13.5 5.5 -13.4 5.8 -13.0 5.8 -13.1 5.85 -13.75 5.9 -13.85 5.9 -14.25 5.95 -14.7 6.0 -15.3 M5.8 -13.0 L5.8 -13.0 M5.15 -17.55 L4.6 -17.2 4.55 -17.2 4.7 -17.3 4.3 -17.1 4.25 -16.85 Q4.2 -16.7 4.2 -16.45 L4.25 -15.5 4.2 -14.55 4.15 -13.5 4.1 -13.1 4.15 -13.55 4.15 -13.7 4.1 -13.85 Q4.05 -11.3 3.05 -8.2 1.95 -4.6 0.4 -3.05 0.65 -3.0 1.0 -2.85 L2.05 -2.3 Q2.7 -3.1 3.2 -4.0 L3.75 -5.15 4.0 -8.65 4.1 -9.65 4.1 -10.45 Q4.05 -11.35 4.05 -11.9 4.05 -13.0 4.5 -15.05 L4.55 -15.15 4.55 -15.55 Q4.7 -16.25 4.9 -16.95 5.0 -17.25 5.15 -17.55 M4.65 -14.25 L4.55 -13.45 4.55 -13.35 Q4.6 -11.85 5.5 -10.8 L5.55 -11.15 5.65 -11.6 5.7 -12.3 5.75 -12.75 Q5.45 -13.1 5.15 -13.55 4.95 -13.9 4.7 -14.65 L4.7 -14.55 4.65 -14.25 M11.1 -19.8 Q11.25 -20.75 11.3 -21.35 L11.15 -21.0 10.9 -20.5 Q10.4 -19.55 9.55 -18.6 L9.4 -18.45 9.0 -17.95 8.95 -17.95 8.95 -17.9 Q7.35 -16.2 6.3 -15.95 L6.35 -15.25 Q6.35 -13.85 6.2 -12.45 L6.3 -12.35 6.15 -12.4 Q6.05 -11.45 5.85 -10.45 L5.9 -10.4 5.85 -10.3 5.8 -10.3 Q5.55 -9.2 5.2 -8.1 4.85 -6.95 4.45 -5.95 L4.25 -5.5 4.1 -5.25 4.1 -5.1 4.05 -5.1 4.05 -5.05 3.95 -4.9 3.9 -4.65 3.85 -4.6 3.8 -4.65 3.7 -4.4 Q3.15 -3.25 2.35 -2.3 L2.2 -2.1 2.2 -2.05 2.1 -2.0 2.0 -1.85 1.8 -1.6 1.6 -1.4 2.0 -1.45 Q2.45 -1.45 3.8 -0.9 5.15 -0.4 6.45 -0.4 8.65 -0.4 10.3 -0.95 11.1 -1.15 11.95 -1.5 L12.05 -1.65 Q12.2 -1.8 12.2 -1.9 L12.1 -2.3 12.05 -2.5 Q10.8 -2.0 7.1 -2.0 L5.05 -2.15 4.85 -2.2 4.4 -2.2 4.2 -2.25 3.85 -2.3 3.75 -2.35 3.75 -2.4 3.7 -2.4 3.7 -2.45 Q3.65 -2.45 3.8 -2.45 L3.85 -2.45 3.8 -2.5 Q4.85 -4.25 5.9 -8.5 6.9 -12.6 6.9 -15.05 L6.9 -15.2 6.95 -15.35 6.95 -15.45 Q6.95 -15.65 7.4 -15.95 L8.55 -16.75 Q10.05 -17.75 10.95 -18.9 L11.05 -19.5 11.0 -19.5 11.0 -19.6 Q11.0 -19.7 11.1 -19.75 L11.1 -19.8 M11.35 -19.6 L11.25 -19.5 11.2 -19.5 11.15 -19.2 11.15 -19.15 11.15 -19.2 11.25 -19.35 11.4 -19.55 11.35 -19.6 M11.15 -19.15 L11.15 -19.15 M10.75 -8.7 Q10.25 -11.4 10.25 -12.5 L10.25 -14.75 10.5 -15.8 10.45 -15.15 10.7 -16.5 Q10.9 -17.4 11.1 -18.1 L11.15 -18.3 11.3 -18.8 11.2 -18.65 10.9 -18.35 10.9 -18.25 10.8 -18.15 10.8 -18.2 Q10.4 -17.8 9.8 -17.3 8.8 -16.5 7.4 -15.6 L7.2 -15.5 7.25 -15.25 7.25 -15.2 7.3 -15.5 7.3 -15.15 Q7.35 -14.45 7.2 -13.55 L7.0 -12.55 6.95 -12.45 6.8 -11.75 6.75 -11.35 Q6.75 -10.1 5.6 -6.6 5.15 -5.15 4.75 -4.2 L4.7 -4.0 4.6 -3.85 Q4.15 -2.75 3.85 -2.45 L4.75 -2.4 Q8.3 -2.3 10.5 -2.55 L11.85 -2.8 12.0 -2.8 Q12.1 -2.8 12.2 -2.9 L12.25 -2.85 12.65 -2.95 Q12.15 -3.85 11.75 -5.0 L11.75 -5.1 11.7 -5.1 11.75 -4.85 11.6 -5.2 11.6 -5.25 11.55 -5.3 11.25 -6.0 11.2 -6.25 11.15 -6.65 10.8 -8.45 10.75 -8.7 M10.7 -17.9 L10.7 -17.9 M6.15 -15.95 L6.2 -15.8 6.2 -15.95 6.15 -15.95 M6.1 -13.8 L6.1 -13.75 6.0 -12.85 6.15 -13.8 6.1 -13.8 M4.35 -7.45 L4.35 -6.55 4.5 -6.9 4.9 -8.0 5.1 -8.7 5.35 -9.95 5.45 -10.4 Q5.3 -10.55 5.15 -10.85 L5.05 -11.05 4.8 -11.5 Q4.6 -12.1 4.45 -12.5 L4.45 -11.95 4.4 -11.6 4.35 -10.4 4.35 -7.45 M4.25 -7.65 L4.25 -6.85 4.2 -6.15 4.25 -6.3 4.3 -6.4 4.3 -7.15 4.25 -7.65" fill="#111111" fill-rule="evenodd" stroke="none"/>
    <path d="M11.05 -21.7 Q11.2 -21.7 11.2 -21.65 L11.2 -21.6 11.05 -21.4 10.6 -20.5 10.15 -19.7 10.1 -19.7 9.5 -18.9 9.45 -18.8 8.95 -18.3 8.95 -18.35 Q8.95 -18.55 8.7 -18.8 8.45 -19.1 8.1 -19.25 L7.7 -19.45 8.25 -19.9 8.6 -20.15 9.6 -20.9 Q10.8 -21.7 11.05 -21.7 M5.15 -17.55 Q5.0 -17.25 4.9 -16.95 4.7 -16.25 4.55 -15.55 L4.55 -15.15 4.5 -15.05 Q4.05 -13.0 4.05 -11.9 4.05 -11.35 4.1 -10.45 L4.1 -9.65 4.0 -8.65 3.75 -5.15 3.2 -4.0 Q2.7 -3.1 2.05 -2.3 L1.0 -2.85 Q0.65 -3.0 0.4 -3.05 1.95 -4.6 3.05 -8.2 4.05 -11.3 4.1 -13.85 L4.15 -13.7 4.15 -13.55 4.1 -13.1 4.15 -13.5 4.2 -14.55 4.25 -15.5 4.2 -16.45 Q4.2 -16.7 4.25 -16.85 L4.3 -17.1 4.7 -17.3 4.55 -17.2 4.6 -17.2 5.15 -17.55 M12.1 -2.3 Q11.6 -2.05 10.6 -1.85 9.2 -1.65 7.45 -1.65 L4.85 -1.75 Q3.8 -1.85 3.6 -2.1 L3.55 -2.05 3.5 -2.1 3.55 -2.15 3.5 -2.2 Q3.5 -2.3 3.55 -2.35 L3.6 -2.4 Q3.65 -2.95 4.2 -4.05 L4.25 -4.15 4.6 -5.15 Q5.2 -6.8 5.3 -7.3 L5.6 -8.55 5.7 -8.9 Q6.05 -10.3 6.3 -12.15 L6.4 -13.0 Q6.45 -13.5 6.5 -13.8 L6.55 -14.2 Q6.5 -14.5 6.55 -14.65 6.55 -15.3 6.6 -15.4 6.65 -15.65 6.85 -15.85 L7.6 -16.35 9.15 -17.35 Q9.5 -17.6 10.65 -19.2 L11.1 -19.8 11.1 -19.75 Q11.0 -19.7 11.0 -19.6 L11.0 -19.5 11.05 -19.5 10.95 -18.9 Q10.05 -17.75 8.55 -16.75 L7.4 -15.95 Q6.95 -15.65 6.95 -15.45 L6.95 -15.35 6.9 -15.2 6.9 -15.05 Q6.9 -12.6 5.9 -8.5 4.85 -4.25 3.8 -2.5 L3.85 -2.45 3.8 -2.45 Q3.65 -2.45 3.7 -2.45 L3.7 -2.4 3.75 -2.4 3.75 -2.35 3.85 -2.3 4.2 -2.25 4.4 -2.2 4.85 -2.2 5.05 -2.15 7.1 -2.0 Q10.8 -2.0 12.05 -2.5 L12.1 -2.3 M5.2 -6.4 L5.1 -6.1 4.75 -5.2 4.95 -5.6 5.2 -6.4" fill="#0070e0" fill-rule="evenodd" stroke="none"/>
    <path d="M5.8 -13.0 L5.8 -13.0 M4.65 -14.25 L4.7 -14.55 4.7 -14.65 Q4.95 -13.9 5.15 -13.55 5.45 -13.1 5.75 -12.75 L5.7 -12.3 4.95 -13.5 4.65 -14.25 M5.65 -11.6 L5.55 -11.15 5.5 -11.3 Q4.9 -12.4 4.7 -12.95 5.15 -12.2 5.35 -11.95 L5.65 -11.6" fill="#9c9581" fill-rule="evenodd" stroke="none"/>
    <path d="M5.55 -11.15 L5.5 -10.8 Q4.6 -11.85 4.55 -13.35 L4.55 -13.45 4.65 -14.25 4.95 -13.5 5.7 -12.3 5.65 -11.6 5.35 -11.95 Q5.15 -12.2 4.7 -12.95 4.9 -12.4 5.5 -11.3 L5.55 -11.15" fill="#666154" fill-rule="evenodd" stroke="none"/>
    <path d="M4.9 -14.55 L6.0 -15.3 5.95 -14.7 5.55 -14.45 5.1 -14.15 4.9 -14.55 M5.9 -14.25 L5.9 -13.85 5.85 -13.75 5.8 -13.1 5.8 -13.0 5.5 -13.4 5.45 -13.5 5.4 -13.6 Q5.4 -13.7 5.9 -14.25 M7.4 -15.6 L7.5 -14.5 7.6 -13.3 7.5 -10.9 Q7.35 -8.15 7.1 -6.35 7.3 -6.5 7.45 -6.5 7.65 -6.5 7.8 -6.35 7.95 -6.25 7.95 -6.15 7.95 -5.65 7.2 -4.55 L6.95 -4.2 Q9.15 -4.3 10.3 -4.65 10.85 -4.8 11.4 -5.2 L11.35 -5.35 11.3 -5.9 Q11.1 -6.45 9.4 -6.45 8.85 -6.45 8.6 -6.7 8.45 -6.8 8.45 -7.0 8.45 -7.45 9.35 -8.1 10.05 -8.6 10.75 -8.7 L10.8 -8.45 11.15 -6.65 11.2 -6.25 11.25 -6.0 11.55 -5.3 11.6 -5.25 11.6 -5.2 11.75 -4.85 11.7 -5.1 11.75 -5.1 11.75 -5.0 Q12.15 -3.85 12.65 -2.95 L12.25 -2.85 12.2 -2.9 Q12.1 -2.8 12.0 -2.8 L11.85 -2.8 10.5 -2.55 Q8.3 -2.3 4.75 -2.4 L3.85 -2.45 Q4.15 -2.75 4.6 -3.85 L4.7 -4.0 4.75 -4.2 Q5.15 -5.15 5.6 -6.6 6.75 -10.1 6.75 -11.35 L6.8 -11.75 6.95 -12.45 7.0 -12.55 7.2 -13.55 Q7.35 -14.45 7.3 -15.15 L7.3 -15.5 7.25 -15.2 7.25 -15.25 7.2 -15.5 7.4 -15.6 M7.1 -10.9 Q7.15 -11.1 7.1 -11.1 L7.1 -10.9 M7.2 -11.65 Q7.25 -11.9 7.2 -12.0 L7.2 -11.65 M4.4 -11.6 L4.45 -11.95 4.45 -12.5 Q4.6 -12.1 4.8 -11.5 L5.05 -11.05 5.15 -10.85 Q5.3 -10.55 5.45 -10.4 L5.35 -9.95 5.1 -8.7 4.9 -8.0 4.5 -6.9 4.35 -6.55 4.35 -7.45 4.45 -7.95 Q4.7 -9.6 4.7 -10.1 4.8 -10.0 4.85 -9.7 4.9 -9.4 4.95 -9.3 5.1 -9.65 5.05 -10.2 L5.05 -10.4 4.7 -10.95 Q4.55 -11.3 4.4 -11.6 M4.25 -7.65 L4.3 -7.15 4.3 -6.4 4.25 -6.3 4.2 -6.15 4.25 -6.85 4.25 -7.65" fill="#600000" fill-rule="evenodd" stroke="none"/>
    <path d="M4.9 -14.55 Q4.85 -14.8 4.8 -15.0 4.9 -15.55 5.15 -16.35 L5.5 -17.6 5.5 -17.65 Q6.25 -19.15 7.45 -19.15 8.1 -19.15 8.5 -18.7 L8.6 -18.55 8.8 -18.15 7.95 -17.45 7.2 -16.85 6.7 -16.6 Q6.2 -16.3 6.05 -16.15 L6.05 -16.1 6.0 -16.1 6.0 -15.3 4.9 -14.55 M5.95 -14.7 L5.9 -14.25 Q5.4 -13.7 5.4 -13.6 L5.45 -13.5 5.25 -13.85 5.1 -14.15 5.55 -14.45 5.95 -14.7 M11.15 -19.15 L11.15 -19.2 11.2 -19.5 11.25 -19.5 11.35 -19.6 11.4 -19.55 11.25 -19.35 11.15 -19.2 11.15 -19.15 M7.4 -15.6 Q8.8 -16.5 9.8 -17.3 10.4 -17.8 10.8 -18.2 L10.8 -18.15 10.9 -18.25 10.9 -18.35 11.2 -18.65 11.3 -18.8 11.15 -18.3 11.1 -18.1 Q10.9 -17.4 10.7 -16.5 L10.45 -15.15 10.5 -15.8 10.25 -14.75 10.25 -12.5 Q10.25 -11.4 10.75 -8.7 10.05 -8.6 9.35 -8.1 8.45 -7.45 8.45 -7.0 8.45 -6.8 8.6 -6.7 8.85 -6.45 9.4 -6.45 11.1 -6.45 11.3 -5.9 L11.35 -5.35 11.4 -5.2 Q10.85 -4.8 10.3 -4.65 9.15 -4.3 6.95 -4.2 L7.2 -4.55 Q7.95 -5.65 7.95 -6.15 7.95 -6.25 7.8 -6.35 7.65 -6.5 7.45 -6.5 7.3 -6.5 7.1 -6.35 7.35 -8.15 7.5 -10.9 L7.6 -13.3 7.5 -14.5 7.4 -15.6 M10.7 -17.9 L10.7 -17.9 M7.2 -11.65 L7.2 -12.0 Q7.25 -11.9 7.2 -11.65 M7.1 -10.9 L7.1 -11.1 Q7.15 -11.1 7.1 -10.9 M4.4 -11.6 Q4.55 -11.3 4.7 -10.95 L5.05 -10.4 5.05 -10.2 Q5.1 -9.65 4.95 -9.3 4.9 -9.4 4.85 -9.7 4.8 -10.0 4.7 -10.1 4.7 -9.6 4.45 -7.95 L4.35 -7.45 4.35 -10.4 4.4 -11.6" fill="#b00000" fill-rule="evenodd" stroke="none"/>
    <path d="M12.1 -2.3 L12.2 -1.9 Q12.2 -1.8 12.05 -1.65 L11.95 -1.5 Q11.1 -1.15 10.3 -0.95 8.65 -0.4 6.45 -0.4 5.15 -0.4 3.8 -0.9 2.45 -1.45 2.0 -1.45 L1.6 -1.4 1.8 -1.6 2.0 -1.85 2.1 -2.0 2.2 -2.05 2.2 -2.1 2.35 -2.3 Q3.15 -3.25 3.7 -4.4 L3.8 -4.65 3.85 -4.6 3.9 -4.65 3.95 -4.9 4.05 -5.05 4.05 -5.1 4.1 -5.1 4.1 -5.25 4.25 -5.5 4.45 -5.95 Q4.85 -6.95 5.2 -8.1 5.55 -9.2 5.8 -10.3 L5.85 -10.3 5.9 -10.4 5.85 -10.45 Q6.05 -11.45 6.15 -12.4 L6.3 -12.35 6.2 -12.45 Q6.35 -13.85 6.35 -15.25 L6.3 -15.95 Q7.35 -16.2 8.95 -17.9 L8.95 -17.95 9.0 -17.95 9.4 -18.45 9.55 -18.6 Q10.4 -19.55 10.9 -20.5 L11.15 -21.0 11.3 -21.35 Q11.25 -20.75 11.1 -19.8 L10.65 -19.2 Q9.5 -17.6 9.15 -17.35 L7.6 -16.35 6.85 -15.85 Q6.65 -15.65 6.6 -15.4 6.55 -15.3 6.55 -14.65 6.5 -14.5 6.55 -14.2 L6.5 -13.8 Q6.45 -13.5 6.4 -13.0 L6.3 -12.15 Q6.05 -10.3 5.7 -8.9 L5.6 -8.55 5.3 -7.3 Q5.2 -6.8 4.6 -5.15 L4.25 -4.15 4.2 -4.05 Q3.65 -2.95 3.6 -2.4 L3.55 -2.35 Q3.5 -2.3 3.5 -2.2 L3.55 -2.15 3.5 -2.1 3.55 -2.05 3.6 -2.1 Q3.8 -1.85 4.85 -1.75 L7.45 -1.65 Q9.2 -1.65 10.6 -1.85 11.6 -2.05 12.1 -2.3 M5.2 -6.4 L4.95 -5.6 4.75 -5.2 5.1 -6.1 5.2 -6.4" fill="#80c0f0" fill-rule="evenodd" stroke="none"/>
  </g>
</svg>
