<?xml version="1.0" encoding="UTF-8" standalone="no"?>
<svg xmlns:ffdec="https://www.free-decompiler.com/flash" xmlns:xlink="http://www.w3.org/1999/xlink" ffdec:objectType="shape" height="12.35px" width="6.0px" xmlns="http://www.w3.org/2000/svg">
  <g transform="matrix(1.0, 0.0, 0.0, 1.0, 0.0, 12.35)">
    <path d="M3.2 -12.2 L3.25 -12.2 3.2 -12.25 3.2 -12.2 M4.5 -7.2 L4.45 -7.45 3.8 -9.4 3.8 -9.6 3.75 -10.35 3.65 -11.1 Q3.5 -11.6 3.3 -11.95 L3.25 -11.95 Q2.8 -12.1 2.45 -12.1 L1.85 -12.05 1.55 -11.95 1.4 -11.75 1.2 -11.2 Q0.95 -10.55 0.95 -10.45 L0.8 -9.65 Q0.7 -8.95 0.7 -8.6 L0.6 -8.0 Q0.6 -7.65 0.35 -5.7 L0.35 -5.25 0.3 -4.55 0.3 -4.5 Q0.9 -5.1 2.1 -5.9 3.4 -6.8 4.2 -6.9 L4.2 -6.95 4.5 -6.95 4.65 -6.9 4.55 -7.2 4.5 -7.2 M3.35 -12.2 Q3.8 -11.9 3.85 -11.3 L3.85 -11.2 4.3 -9.15 4.7 -7.1 4.8 -6.95 4.9 -6.75 4.85 -6.65 Q4.85 -6.55 4.75 -6.4 L4.65 -6.25 4.9 -5.65 4.95 -5.5 5.2 -4.9 5.3 -4.65 Q5.6 -4.0 5.85 -3.5 L5.9 -3.55 5.95 -3.55 6.0 -3.45 Q6.0 -3.3 5.85 -3.1 5.55 -2.55 3.8 -1.45 2.05 -0.3 1.15 -0.1 L0.6 0.0 0.4 0.0 0.35 -0.1 0.4 -0.1 Q0.1 -0.65 0.05 -1.4 0.0 -1.7 0.0 -2.8 0.0 -3.85 0.1 -5.3 L0.35 -7.75 0.45 -9.0 Q0.55 -9.7 0.65 -10.25 0.75 -10.9 1.0 -11.5 L1.1 -11.85 Q1.2 -12.05 1.35 -12.15 1.85 -12.45 3.6 -12.25 L3.4 -12.2 3.35 -12.2 M1.15 -11.5 Q1.0 -11.2 0.9 -10.55 1.05 -11.2 1.2 -11.55 L1.15 -11.5 M4.55 -6.65 L4.6 -6.45 4.65 -6.55 4.65 -6.6 Q4.6 -6.65 4.55 -6.65 M5.7 -3.45 Q5.55 -3.65 5.35 -3.95 L5.3 -4.0 Q4.9 -4.7 4.6 -5.55 L4.5 -5.9 4.3 -6.6 4.2 -6.6 2.5 -5.8 2.4 -5.75 2.25 -5.65 2.05 -5.55 0.3 -4.35 0.3 -4.15 0.25 -3.9 0.3 -3.7 0.3 -1.75 0.45 -0.65 0.5 -0.5 Q0.55 -0.3 0.6 -0.25 L0.65 -0.25 1.05 -0.3 Q2.1 -0.65 3.05 -1.15 L3.75 -1.65 Q4.7 -2.4 5.75 -3.4 L5.7 -3.45" fill="#111111" fill-rule="evenodd" stroke="none"/>
    <path d="M1.4 -11.75 L1.55 -11.95 1.85 -12.05 2.45 -12.1 Q2.8 -12.1 3.25 -11.95 L3.3 -11.95 Q3.5 -11.6 3.65 -11.1 L3.75 -10.35 3.8 -9.6 3.8 -9.4 4.45 -7.45 4.5 -7.2 4.45 -7.2 Q3.45 -7.2 2.15 -6.45 L1.0 -5.65 1.05 -5.65 Q1.35 -6.05 2.25 -6.7 L2.75 -7.05 Q3.4 -7.5 4.1 -7.85 L4.1 -7.9 Q3.65 -7.8 1.95 -6.8 L2.0 -6.85 Q1.4 -6.95 1.15 -7.8 0.95 -8.4 0.95 -9.45 0.95 -10.05 1.2 -10.95 L1.4 -11.75 M0.3 -4.5 L0.3 -4.55 0.3 -4.5 M4.55 -6.65 Q4.6 -6.65 4.65 -6.6 L4.65 -6.55 4.6 -6.45 4.55 -6.65 M1.0 -6.2 L0.85 -6.1 0.95 -6.15 0.95 -6.2 1.0 -6.2" fill="#b00000" fill-rule="evenodd" stroke="none"/>
    <path d="M1.4 -11.75 L1.2 -10.95 Q0.95 -10.05 0.95 -9.45 0.95 -8.4 1.15 -7.8 1.4 -6.95 2.0 -6.85 L1.95 -6.8 Q3.65 -7.8 4.1 -7.9 L4.1 -7.85 Q3.4 -7.5 2.75 -7.05 L2.25 -6.7 Q1.35 -6.05 1.05 -5.65 L1.0 -5.65 2.15 -6.45 Q3.45 -7.2 4.45 -7.2 L4.5 -7.2 4.55 -7.2 4.65 -6.9 4.5 -6.95 4.2 -6.95 4.2 -6.9 Q3.4 -6.8 2.1 -5.9 0.9 -5.1 0.3 -4.5 L0.3 -4.55 0.35 -5.25 0.35 -5.7 Q0.6 -7.65 0.6 -8.0 L0.7 -8.6 Q0.7 -8.95 0.8 -9.65 L0.95 -10.45 Q0.95 -10.55 1.2 -11.2 L1.4 -11.75 M1.0 -6.2 L0.95 -6.2 0.95 -6.15 0.85 -6.1 1.0 -6.2" fill="#600000" fill-rule="evenodd" stroke="none"/>
    <path d="M4.5 -5.9 L4.6 -5.55 Q4.9 -4.7 5.3 -4.0 L5.35 -3.95 Q5.55 -3.65 5.7 -3.45 L3.3 -1.9 2.95 -1.7 2.9 -1.7 Q2.7 -2.15 2.65 -2.85 L2.55 -3.6 2.5 -3.4 2.3 -1.95 2.25 -1.9 Q2.15 -2.55 2.15 -3.5 2.15 -3.75 2.15 -3.95 L1.9 -3.85 1.8 -3.7 Q1.6 -3.3 1.05 -2.0 0.7 -2.4 0.65 -3.05 0.65 -3.2 0.7 -3.75 L0.7 -4.25 Q1.25 -4.45 2.3 -5.05 3.9 -5.95 3.95 -5.95 L4.25 -5.95 4.5 -5.9 M0.9 -1.8 L0.95 -1.8 1.0 -1.75 0.95 -1.75 0.9 -1.8 M0.5 -0.5 L0.55 -0.55 0.55 -0.5 0.5 -0.5" fill="#80c0f0" fill-rule="evenodd" stroke="none"/>
    <path d="M4.5 -5.9 L4.25 -5.95 3.95 -5.95 Q3.9 -5.95 2.3 -5.05 1.25 -4.45 0.7 -4.25 L0.7 -3.75 Q0.65 -3.2 0.65 -3.05 0.7 -2.4 1.05 -2.0 1.6 -3.3 1.8 -3.7 L1.9 -3.85 2.15 -3.95 Q2.15 -3.75 2.15 -3.5 2.15 -2.55 2.25 -1.9 L2.3 -1.95 2.5 -3.4 2.55 -3.6 2.65 -2.85 Q2.7 -2.15 2.9 -1.7 L2.95 -1.7 3.3 -1.9 5.7 -3.45 5.75 -3.4 Q4.7 -2.4 3.75 -1.65 L3.05 -1.15 Q2.1 -0.65 1.05 -0.3 L0.65 -0.25 0.6 -0.25 Q0.55 -0.3 0.5 -0.5 L0.45 -0.65 0.3 -1.75 0.3 -3.7 0.25 -3.9 0.3 -4.15 0.3 -4.35 2.05 -5.55 2.25 -5.65 2.4 -5.75 2.5 -5.8 4.2 -6.6 4.3 -6.6 4.5 -5.9 M0.9 -1.8 L0.95 -1.75 1.0 -1.75 0.95 -1.8 0.9 -1.8 M0.5 -0.5 L0.55 -0.5 0.55 -0.55 0.5 -0.5" fill="#0070e0" fill-rule="evenodd" stroke="none"/>
  </g>
</svg>
