<?xml version="1.0" encoding="UTF-8" standalone="no"?>
<svg xmlns:ffdec="https://www.free-decompiler.com/flash" xmlns:xlink="http://www.w3.org/1999/xlink" ffdec:objectType="shape" height="6.5px" width="4.3px" xmlns="http://www.w3.org/2000/svg">
  <g transform="matrix(1.0, 0.0, 0.0, 1.0, 0.6, 12.15)">
    <path d="M1.45 -5.95 Q2.1 -6.15 2.8 -7.5 3.55 -9.1 3.6 -10.85 3.5 -11.1 3.35 -11.3 L3.25 -11.4 3.2 -11.4 Q2.85 -11.8 2.55 -11.8 L2.5 -11.85 2.4 -11.85 Q2.35 -11.85 1.95 -11.35 1.45 -10.75 1.0 -10.2 -0.3 -8.35 -0.3 -7.5 L-0.25 -7.2 -0.25 -7.1 Q-0.25 -6.9 -0.15 -6.7 0.05 -6.5 0.3 -6.3 0.35 -6.25 0.4 -6.2 L0.5 -6.2 0.6 -6.15 Q0.8 -6.0 1.05 -5.95 L1.4 -5.9 1.45 -5.95 M3.6 -11.1 Q3.65 -11.1 3.65 -10.9 L3.7 -10.8 3.7 -10.55 Q3.75 -9.6 3.7 -9.25 3.65 -8.85 3.0 -7.4 2.6 -6.5 2.1 -6.05 1.9 -5.85 1.65 -5.7 L1.6 -5.65 1.25 -5.65 Q0.75 -5.65 0.25 -5.95 -0.2 -6.2 -0.35 -6.65 L-0.4 -6.75 Q-0.5 -6.9 -0.5 -7.1 -0.6 -7.3 -0.6 -7.55 -0.6 -8.55 0.8 -10.35 L0.85 -10.4 Q1.4 -11.25 1.75 -11.65 1.75 -11.8 1.9 -11.95 L2.0 -12.05 2.2 -12.15 2.35 -12.15 Q2.85 -12.15 3.3 -11.65 3.5 -11.4 3.6 -11.1" fill="#111111" fill-rule="evenodd" stroke="none"/>
    <path d="M3.35 -11.3 Q3.5 -11.1 3.6 -10.85 3.55 -9.1 2.8 -7.5 2.1 -6.15 1.45 -5.95 L1.5 -5.95 Q1.3 -6.4 1.3 -6.7 1.3 -7.8 2.3 -9.6 2.75 -10.4 3.35 -11.3" fill="#80c0f0" fill-rule="evenodd" stroke="none"/>
    <path d="M1.45 -5.95 L1.4 -5.9 1.05 -5.95 Q0.8 -6.0 0.6 -6.15 L0.5 -6.2 0.4 -6.2 Q0.35 -6.25 0.3 -6.3 0.05 -6.5 -0.15 -6.7 -0.25 -6.9 -0.25 -7.1 L-0.25 -7.2 -0.3 -7.5 Q-0.3 -8.35 1.0 -10.2 1.45 -10.75 1.95 -11.35 2.35 -11.85 2.4 -11.85 L2.5 -11.85 2.55 -11.8 Q2.85 -11.8 3.2 -11.4 L3.25 -11.4 3.35 -11.3 Q2.75 -10.4 2.3 -9.6 1.3 -7.8 1.3 -6.7 1.3 -6.4 1.5 -5.95 L1.45 -5.95" fill="#0070e0" fill-rule="evenodd" stroke="none"/>
  </g>
</svg>
