<?xml version="1.0" encoding="UTF-8" standalone="no"?>
<svg xmlns:ffdec="https://www.free-decompiler.com/flash" xmlns:xlink="http://www.w3.org/1999/xlink" ffdec:objectType="shape" height="11.1px" width="8.55px" xmlns="http://www.w3.org/2000/svg">
  <g transform="matrix(1.0, 0.0, 0.0, 1.0, 0.0, 11.1)">
    <path d="M1.4 -1.75 Q1.6 -2.3 2.0 -3.0 2.65 -4.1 3.65 -5.15 4.65 -6.15 5.5 -7.3 6.4 -8.6 6.6 -9.3 L6.7 -9.5 Q6.9 -10.0 6.9 -10.4 L6.9 -10.65 Q6.85 -10.85 6.7 -10.9 L6.7 -10.95 6.45 -10.9 6.85 -11.0 Q7.05 -11.0 7.15 -10.15 L7.2 -9.65 6.9 -8.95 Q6.5 -8.05 5.45 -6.4 5.1 -5.9 4.4 -5.1 L3.3 -3.85 2.25 -2.65 Q1.75 -2.0 1.55 -1.65 L1.45 -1.7 1.4 -1.75 M1.15 -5.8 Q1.4 -6.2 1.7 -6.65 L1.6 -6.45 Q1.45 -6.1 1.4 -5.7 L1.3 -5.3 Q1.15 -4.55 1.15 -3.95 1.15 -3.7 1.25 -3.15 1.3 -2.9 1.35 -2.75 L1.3 -2.6 1.1 -3.05 Q0.9 -3.55 0.9 -4.0 0.9 -4.55 1.05 -5.35 L1.15 -5.8 M1.2 -2.35 L1.15 -2.25 1.05 -2.65 1.2 -2.35" fill="#b00000" fill-rule="evenodd" stroke="none"/>
    <path d="M7.2 -9.65 L7.15 -10.15 Q7.05 -11.0 6.85 -11.0 L6.45 -10.9 6.7 -10.95 6.7 -10.9 Q6.85 -10.85 6.9 -10.65 L6.9 -10.4 Q6.9 -10.0 6.7 -9.5 L6.6 -9.3 Q6.4 -8.6 5.5 -7.3 4.65 -6.15 3.65 -5.15 2.65 -4.1 2.0 -3.0 1.6 -2.3 1.4 -1.75 1.25 -1.35 1.2 -1.0 L1.55 -0.85 1.6 -0.85 Q1.6 -1.1 1.75 -1.45 1.95 -1.85 2.25 -2.35 2.7 -3.0 3.15 -3.45 L3.9 -4.35 4.6 -5.05 Q5.6 -6.05 6.35 -7.25 L6.55 -7.6 7.05 -8.65 7.2 -9.15 7.2 -9.65 M6.65 -10.8 L6.25 -10.65 6.05 -10.6 Q5.8 -10.5 5.75 -10.4 3.65 -9.2 2.1 -7.2 L1.9 -6.95 1.85 -6.85 1.85 -6.75 1.8 -6.7 1.55 -6.0 1.45 -5.55 Q1.35 -5.15 1.35 -4.75 L1.35 -4.65 Q1.35 -4.2 1.4 -3.7 L1.55 -3.05 1.8 -3.4 Q2.3 -4.2 3.6 -5.6 5.05 -7.1 5.45 -7.7 5.85 -8.2 6.05 -8.6 L6.3 -8.95 6.55 -9.5 Q6.75 -10.1 6.75 -10.4 L6.75 -10.6 6.65 -10.8 M7.2 -10.75 L7.3 -9.35 7.3 -9.3 7.35 -9.3 7.35 -9.2 7.5 -8.45 7.9 -7.2 Q8.4 -5.6 8.4 -5.35 8.4 -5.25 8.5 -4.8 8.55 -4.4 8.55 -3.95 L8.5 -3.2 Q8.5 -2.35 7.75 -1.35 6.8 -0.05 5.15 0.0 L4.7 -0.05 4.15 -0.1 4.15 -0.15 4.0 -0.15 3.85 -0.1 3.35 -0.1 3.05 -0.15 3.0 -0.2 3.15 -0.2 2.55 -0.35 2.5 -0.35 1.75 -0.45 Q1.55 -0.5 1.3 -0.6 1.2 -0.65 1.1 -0.7 L1.05 -0.7 Q0.5 -0.9 0.2 -1.65 0.0 -2.15 0.0 -2.75 0.0 -5.45 2.7 -8.35 3.8 -9.5 4.95 -10.2 L5.4 -10.5 Q6.15 -10.95 6.55 -11.05 7.2 -11.25 7.2 -10.75 M8.2 -5.7 L7.95 -6.7 7.95 -6.5 Q7.4 -7.6 7.25 -8.7 L7.15 -8.5 Q6.8 -7.4 5.5 -5.85 L5.4 -5.7 4.8 -5.1 3.55 -3.7 3.35 -3.45 3.4 -3.5 3.25 -3.25 3.15 -3.15 2.6 -2.35 Q2.1 -1.65 2.0 -1.3 L2.0 -1.15 1.95 -1.0 1.9 -0.95 1.9 -0.75 Q3.0 -0.4 4.0 -0.4 L4.7 -0.5 Q5.2 -0.6 5.55 -0.95 L6.25 -2.0 6.3 -2.2 6.55 -2.6 6.65 -2.65 6.6 -2.4 6.5 -2.1 6.45 -1.9 6.35 -1.75 6.4 -1.75 Q6.0 -0.9 5.3 -0.5 5.1 -0.35 4.9 -0.3 L5.2 -0.25 Q6.85 -0.3 7.75 -1.6 8.35 -2.5 8.35 -3.3 L8.4 -3.7 8.4 -4.1 Q8.4 -4.5 8.3 -5.1 L8.3 -5.15 8.2 -5.7 M1.3 -2.6 L1.35 -2.75 Q1.3 -2.9 1.25 -3.15 1.15 -3.7 1.15 -3.95 1.15 -4.55 1.3 -5.3 L1.4 -5.7 Q1.45 -6.1 1.6 -6.45 L1.7 -6.65 Q1.4 -6.2 1.15 -5.8 L0.9 -5.3 0.8 -4.4 Q0.8 -3.6 1.0 -2.7 L1.05 -2.65 1.15 -2.25 1.2 -2.35 1.3 -2.6 M1.05 -1.9 L1.05 -2.0 Q0.85 -2.25 0.75 -2.75 0.65 -3.3 0.65 -3.85 0.65 -4.4 0.75 -4.95 0.35 -4.05 0.25 -3.2 L0.25 -2.75 Q0.25 -2.4 0.55 -1.8 L0.85 -1.2 0.95 -1.15 0.95 -1.25 Q0.95 -1.55 1.05 -1.9 M2.2 -2.0 L2.25 -2.0 2.35 -2.25 2.2 -2.0 M1.0 -0.9 L1.0 -0.9" fill="#111111" fill-rule="evenodd" stroke="none"/>
    <path d="M6.65 -10.8 L6.75 -10.6 6.75 -10.4 Q6.75 -10.1 6.55 -9.5 L6.3 -8.95 6.05 -8.6 Q5.85 -8.2 5.45 -7.7 5.05 -7.1 3.6 -5.6 2.3 -4.2 1.8 -3.4 L1.55 -3.05 1.4 -3.7 Q1.35 -4.2 1.35 -4.65 L1.35 -4.75 Q1.35 -5.15 1.45 -5.55 L1.55 -6.0 1.8 -6.7 1.85 -6.75 1.85 -6.85 1.9 -6.95 2.1 -7.2 Q3.65 -9.2 5.75 -10.4 5.8 -10.5 6.05 -10.6 L6.25 -10.65 6.65 -10.8 M2.0 -1.3 L2.15 -1.3 Q2.4 -1.3 3.1 -1.1 L3.85 -0.95 Q5.05 -0.95 5.85 -2.3 6.3 -3.1 6.5 -4.05 L6.5 -4.15 Q6.5 -4.25 6.6 -4.25 6.8 -3.8 6.8 -3.4 6.8 -3.05 6.65 -2.65 L6.55 -2.6 6.3 -2.2 6.25 -2.0 5.55 -0.95 Q5.2 -0.6 4.7 -0.5 L4.0 -0.4 Q3.0 -0.4 1.9 -0.75 L1.9 -0.95 1.95 -1.0 2.0 -1.15 2.0 -1.3 M6.5 -2.1 Q7.2 -2.75 7.6 -3.6 8.15 -4.65 8.15 -5.8 L8.2 -5.7 8.3 -5.15 8.3 -5.1 Q8.4 -4.5 8.4 -4.1 L8.4 -3.7 8.35 -3.3 Q8.35 -2.5 7.75 -1.6 6.85 -0.3 5.2 -0.25 L4.9 -0.3 Q5.1 -0.35 5.3 -0.5 6.0 -0.9 6.4 -1.75 L6.35 -1.75 6.45 -1.9 6.5 -2.1 M0.25 -3.2 L0.4 -2.9 Q0.5 -2.55 0.55 -2.4 L1.05 -1.9 Q0.95 -1.55 0.95 -1.25 L0.95 -1.15 0.85 -1.2 0.55 -1.8 Q0.25 -2.4 0.25 -2.75 L0.25 -3.2" fill="#0070e0" fill-rule="evenodd" stroke="none"/>
    <path d="M1.4 -1.75 L1.45 -1.7 1.55 -1.65 Q1.75 -2.0 2.25 -2.65 L3.3 -3.85 4.4 -5.1 Q5.1 -5.9 5.45 -6.4 6.5 -8.05 6.9 -8.95 L7.2 -9.65 7.2 -9.15 7.05 -8.65 6.55 -7.6 6.35 -7.25 Q5.6 -6.05 4.6 -5.05 L3.9 -4.35 3.15 -3.45 Q2.7 -3.0 2.25 -2.35 1.95 -1.85 1.75 -1.45 1.6 -1.1 1.6 -0.85 L1.55 -0.85 1.2 -1.0 Q1.25 -1.35 1.4 -1.75 M1.15 -5.8 L1.05 -5.35 Q0.9 -4.55 0.9 -4.0 0.9 -3.55 1.1 -3.05 L1.3 -2.6 1.2 -2.35 1.05 -2.65 1.0 -2.7 Q0.8 -3.6 0.8 -4.4 L0.9 -5.3 1.15 -5.8" fill="#600000" fill-rule="evenodd" stroke="none"/>
    <path d="M2.0 -1.3 Q2.1 -1.65 2.6 -2.35 L3.15 -3.15 3.25 -3.25 3.4 -3.5 3.35 -3.45 3.55 -3.7 4.8 -5.1 5.4 -5.7 5.5 -5.85 Q6.8 -7.4 7.15 -8.5 L7.25 -8.7 Q7.4 -7.6 7.95 -6.5 L7.95 -6.7 8.2 -5.7 8.15 -5.8 Q8.15 -4.65 7.6 -3.6 7.2 -2.75 6.5 -2.1 L6.6 -2.4 6.65 -2.65 Q6.8 -3.05 6.8 -3.4 6.8 -3.8 6.6 -4.25 6.5 -4.25 6.5 -4.15 L6.5 -4.05 Q6.3 -3.1 5.85 -2.3 5.05 -0.95 3.85 -0.95 L3.1 -1.1 Q2.4 -1.3 2.15 -1.3 L2.0 -1.3 M0.25 -3.2 Q0.35 -4.05 0.75 -4.95 0.65 -4.4 0.65 -3.85 0.65 -3.3 0.75 -2.75 0.85 -2.25 1.05 -2.0 L1.05 -1.9 0.55 -2.4 Q0.5 -2.55 0.4 -2.9 L0.25 -3.2" fill="#80c0f0" fill-rule="evenodd" stroke="none"/>
  </g>
</svg>
