<?xml version="1.0" encoding="UTF-8" standalone="no"?>
<svg xmlns:ffdec="https://www.free-decompiler.com/flash" xmlns:xlink="http://www.w3.org/1999/xlink" ffdec:objectType="shape" height="10.95px" width="6.7px" xmlns="http://www.w3.org/2000/svg">
  <g transform="matrix(1.0, 0.0, 0.0, 1.0, 0.0, 10.95)">
    <path d="M5.95 -1.6 L5.75 -4.25 5.55 -6.15 5.55 -6.3 5.45 -6.3 5.45 -3.9 5.5 -3.1 5.6 -1.6 5.6 -1.2 5.55 -0.8 5.5 -0.6 5.55 -0.65 5.6 -0.5 5.55 -0.5 5.5 -0.3 Q5.4 -0.15 5.25 -0.15 L5.15 -0.1 5.0 -0.4 Q5.0 -0.65 5.0 -0.85 L5.0 -1.05 4.95 -1.85 4.95 -4.1 5.0 -4.95 5.0 -6.2 Q4.15 -5.3 3.2 -5.3 L2.75 -5.3 Q1.7 -5.3 0.75 -6.2 0.05 -6.95 0.0 -7.45 L0.0 -7.5 Q0.0 -7.9 0.35 -8.4 0.8 -9.25 2.05 -9.95 3.2 -10.75 4.35 -10.9 5.15 -11.05 5.25 -10.85 L5.45 -10.85 Q5.75 -10.85 5.95 -10.7 6.1 -10.65 6.25 -10.55 6.45 -10.4 6.5 -10.2 L6.5 -9.65 Q6.5 -9.2 6.45 -8.8 6.65 -8.5 6.65 -7.95 6.65 -7.65 6.5 -7.35 L6.45 -7.25 6.5 -7.05 6.5 -6.8 6.6 -5.75 Q6.6 -4.5 6.65 -4.2 L6.65 -2.85 6.7 -2.3 6.7 -2.0 6.55 -1.85 6.55 -1.8 Q6.5 -1.75 6.45 -1.75 L6.5 -1.8 Q6.45 -2.15 6.25 -4.05 L6.1 -6.05 6.1 -6.65 5.95 -6.55 5.95 -6.25 6.0 -5.4 6.1 -4.45 Q6.3 -2.55 6.3 -2.2 L6.3 -1.35 6.35 -1.4 6.35 -1.3 6.3 -1.2 6.2 -1.1 Q6.15 -1.0 6.05 -1.0 L6.0 -1.25 5.95 -1.4 5.95 -1.6 M6.1 -10.45 Q5.75 -10.7 5.15 -10.8 L4.65 -10.75 Q2.8 -10.5 1.45 -9.35 0.8 -8.75 0.5 -8.25 L0.5 -8.15 Q0.5 -7.65 1.0 -7.25 1.45 -6.95 2.3 -6.8 L2.8 -6.85 3.1 -6.85 3.15 -6.8 3.35 -6.9 4.15 -7.45 Q4.1 -7.65 4.1 -7.8 4.1 -8.2 4.15 -8.5 4.25 -8.8 4.5 -9.2 4.55 -9.3 4.85 -9.5 5.15 -9.7 5.3 -9.7 L5.8 -9.6 Q5.9 -9.55 6.0 -9.5 L6.05 -9.45 6.4 -9.95 6.35 -10.2 Q6.3 -10.35 6.1 -10.45 M6.2 -9.3 L6.2 -9.1 6.25 -9.05 6.35 -8.9 6.45 -8.85 6.3 -9.05 6.35 -9.6 6.2 -9.3 M4.85 -7.8 L4.8 -8.1 Q4.8 -8.65 5.1 -8.95 5.35 -9.25 5.75 -9.2 5.95 -9.2 6.1 -9.1 L6.05 -9.2 5.9 -9.35 Q5.75 -9.5 5.55 -9.55 4.8 -9.5 4.5 -8.85 L4.45 -8.75 4.35 -8.45 Q4.3 -8.25 4.3 -8.0 L4.3 -7.9 Q4.3 -7.5 4.45 -7.2 L4.5 -7.2 Q4.65 -7.25 4.75 -7.35 L4.85 -7.5 4.85 -7.8 M6.5 -8.25 L6.35 -8.7 6.35 -8.75 6.2 -8.9 6.0 -9.0 5.75 -9.05 Q5.45 -9.05 5.25 -8.8 5.0 -8.55 5.0 -8.15 5.0 -7.9 5.15 -7.6 5.35 -7.1 5.7 -7.1 6.2 -7.1 6.4 -7.6 6.5 -7.85 6.5 -8.1 L6.5 -8.25 M6.4 -7.15 L6.3 -7.0 Q6.3 -6.95 6.2 -6.85 L6.15 -6.75 6.25 -6.65 6.2 -6.65 6.15 -6.5 Q6.4 -4.05 6.5 -2.85 L6.5 -4.2 Q6.4 -5.75 6.4 -7.15 M2.85 -6.65 L2.4 -6.6 Q1.5 -6.6 0.85 -7.2 L0.75 -7.3 Q0.4 -7.6 0.4 -8.0 L0.35 -7.95 0.3 -7.75 Q0.25 -7.5 0.25 -7.3 L0.35 -7.1 Q0.6 -6.65 0.9 -6.35 L1.0 -6.3 1.55 -6.2 Q2.0 -6.2 2.85 -6.65 M1.5 -5.85 Q1.95 -5.6 2.5 -5.5 L2.85 -5.45 2.8 -5.5 3.2 -5.45 Q3.9 -5.45 4.8 -6.35 4.5 -6.55 4.3 -7.0 L4.2 -7.25 4.15 -7.25 4.15 -7.2 Q2.65 -6.1 1.4 -6.1 L1.15 -6.1 1.5 -5.85 M4.9 -7.35 Q4.7 -7.1 4.5 -7.1 4.65 -6.85 4.85 -6.7 L4.85 -6.75 Q5.05 -6.8 5.1 -6.9 L5.15 -7.0 5.2 -7.0 Q5.0 -7.15 4.9 -7.35 M5.15 -6.8 L5.05 -6.65 5.2 -6.65 5.35 -6.6 5.7 -6.6 5.85 -6.7 6.05 -6.85 5.8 -6.85 Q5.5 -6.85 5.3 -6.95 L5.15 -6.8 M5.15 -6.25 L5.15 -5.35 5.2 -3.25 5.15 -1.9 5.15 -1.3 5.1 -0.45 5.1 -0.3 5.15 -0.3 Q5.2 -0.3 5.3 -0.35 L5.4 -0.5 Q5.35 -0.9 5.35 -1.5 L5.4 -2.8 5.3 -5.25 5.35 -6.25 5.15 -6.25 M5.65 -6.2 Q5.65 -5.85 5.9 -3.9 6.1 -2.3 6.15 -1.55 L6.15 -1.3 6.25 -1.35 6.05 -3.2 Q5.8 -5.25 5.8 -5.7 L5.85 -5.95 5.8 -6.4 5.8 -6.45 5.65 -6.35 5.65 -6.2 M5.6 -6.3 L5.6 -6.3 M4.95 -6.5 L4.9 -6.55 4.85 -6.55 4.95 -6.5 M4.9 -0.05 L4.9 -0.05 M5.9 -6.5 L5.9 -6.5 M6.5 -2.75 L6.5 -2.75 M6.0 -1.9 L6.05 -1.7 6.05 -1.75 6.0 -1.9 M6.55 -2.4 L6.55 -2.15 6.6 -2.05 6.6 -2.1 6.55 -2.35 6.55 -2.4 M6.1 -1.2 L6.05 -1.35 6.05 -1.2 6.1 -1.2" fill="#111111" fill-rule="evenodd" stroke="none"/>
    <path d="M4.15 -7.2 Q3.8 -6.85 3.2 -6.5 2.3 -5.95 1.5 -5.85 L1.15 -6.1 1.4 -6.1 Q2.65 -6.1 4.15 -7.2" fill="#b00000" fill-rule="evenodd" stroke="none"/>
    <path d="M0.35 -7.1 L0.25 -7.3 Q0.25 -7.5 0.3 -7.75 L0.35 -7.95 0.4 -8.0 Q0.4 -7.6 0.75 -7.3 L0.85 -7.2 Q1.5 -6.6 2.4 -6.6 L2.85 -6.65 Q2.45 -6.55 2.2 -6.55 1.6 -6.55 0.9 -6.85 0.55 -6.95 0.35 -7.1" fill="#9c9581" fill-rule="evenodd" stroke="none"/>
    <path d="M6.0 -1.25 Q5.95 -1.4 5.95 -1.55 L5.95 -1.6 5.95 -1.4 6.0 -1.25 M6.2 -9.3 L6.35 -9.6 6.3 -9.05 6.45 -8.85 6.35 -8.9 6.25 -9.05 6.2 -9.1 6.2 -9.3 M6.1 -10.45 Q6.3 -10.35 6.35 -10.2 L6.4 -9.95 6.05 -9.45 6.0 -9.5 Q5.9 -9.55 5.8 -9.6 L5.3 -9.7 Q5.15 -9.7 4.85 -9.5 4.55 -9.3 4.5 -9.2 4.25 -8.8 4.15 -8.5 4.1 -8.2 4.1 -7.8 4.1 -7.65 4.15 -7.45 L3.35 -6.9 3.15 -6.8 3.1 -6.85 2.8 -6.85 2.3 -6.8 Q1.45 -6.95 1.0 -7.25 0.5 -7.65 0.5 -8.15 L0.5 -8.25 Q0.8 -8.75 1.45 -9.35 2.8 -10.5 4.65 -10.75 L5.15 -10.8 Q5.75 -10.7 6.1 -10.45 M6.4 -7.15 Q6.4 -5.75 6.5 -4.2 L6.5 -2.85 Q6.4 -4.05 6.15 -6.5 L6.2 -6.65 6.25 -6.65 6.15 -6.75 6.2 -6.85 Q6.3 -6.95 6.3 -7.0 L6.4 -7.15 M4.15 -7.2 L4.15 -7.25 4.2 -7.25 4.3 -7.0 Q4.5 -6.55 4.8 -6.35 3.9 -5.45 3.2 -5.45 L2.8 -5.5 2.85 -5.45 2.5 -5.5 Q1.95 -5.6 1.5 -5.85 2.3 -5.95 3.2 -6.5 3.8 -6.85 4.15 -7.2 M5.65 -6.2 L5.65 -6.35 5.8 -6.45 5.8 -6.4 5.85 -5.95 5.8 -5.7 Q5.8 -5.25 6.05 -3.2 L6.25 -1.35 6.15 -1.3 6.15 -1.55 Q6.1 -2.3 5.9 -3.9 5.65 -5.85 5.65 -6.2 M5.15 -6.25 L5.35 -6.25 5.3 -5.25 5.4 -2.8 5.35 -1.5 Q5.35 -0.9 5.4 -0.5 L5.3 -0.35 Q5.2 -0.3 5.15 -0.3 L5.1 -0.3 5.1 -0.45 5.15 -1.3 5.15 -1.9 5.2 -3.25 5.15 -5.35 5.15 -6.25 M6.1 -1.2 L6.05 -1.2 6.05 -1.35 6.1 -1.2 M6.55 -2.4 L6.55 -2.35 6.6 -2.1 6.6 -2.05 6.55 -2.15 6.55 -2.4" fill="#600000" fill-rule="evenodd" stroke="none"/>
    <path d="M0.35 -7.1 Q0.55 -6.95 0.9 -6.85 1.6 -6.55 2.2 -6.55 2.45 -6.55 2.85 -6.65 2.0 -6.2 1.55 -6.2 L1.0 -6.3 0.9 -6.35 Q0.6 -6.65 0.35 -7.1" fill="#666154" fill-rule="evenodd" stroke="none"/>
    <path d="M4.3 -7.9 L4.3 -8.0 Q4.3 -8.25 4.35 -8.45 L4.45 -8.75 4.5 -8.85 Q4.8 -9.5 5.55 -9.55 5.75 -9.5 5.9 -9.35 L6.05 -9.2 6.1 -9.1 Q5.95 -9.2 5.75 -9.2 5.35 -9.25 5.1 -8.95 4.8 -8.65 4.8 -8.1 L4.85 -7.8 4.8 -7.8 Q4.4 -7.8 4.3 -7.9" fill="#ffe24c" fill-rule="evenodd" stroke="none"/>
    <path d="M4.9 -7.35 Q5.0 -7.15 5.2 -7.0 L5.15 -7.0 5.1 -6.9 Q5.05 -6.8 4.85 -6.75 L4.85 -6.7 Q4.65 -6.85 4.5 -7.1 4.7 -7.1 4.9 -7.35" fill="#1c2626" fill-rule="evenodd" stroke="none"/>
    <path d="M4.3 -7.9 Q4.4 -7.8 4.8 -7.8 L4.85 -7.8 4.85 -7.5 4.75 -7.35 Q4.65 -7.25 4.5 -7.2 L4.45 -7.2 Q4.3 -7.5 4.3 -7.9 M5.15 -6.8 L5.3 -6.95 Q5.5 -6.85 5.8 -6.85 L6.05 -6.85 5.85 -6.7 5.7 -6.6 5.35 -6.6 5.2 -6.65 5.05 -6.65 5.15 -6.8" fill="#bfa938" fill-rule="evenodd" stroke="none"/>
    <path d="M6.0 -9.0 L5.9 -9.0 Q5.55 -8.95 5.55 -8.55 5.6 -8.45 5.65 -8.3 5.85 -8.0 6.2 -8.0 L6.3 -8.0 6.05 -7.5 6.05 -7.45 6.1 -7.45 6.4 -7.85 Q6.5 -8.0 6.5 -8.15 L6.5 -8.25 6.5 -8.1 Q6.5 -7.85 6.4 -7.6 6.2 -7.1 5.7 -7.1 5.35 -7.1 5.15 -7.6 5.0 -7.9 5.0 -8.15 5.0 -8.55 5.25 -8.8 5.45 -9.05 5.75 -9.05 L6.0 -9.0 M5.65 -7.25 L5.7 -7.25 Q5.85 -7.25 5.85 -7.4 5.85 -7.45 5.75 -7.5 5.65 -7.55 5.6 -7.4 L5.6 -7.3 5.65 -7.25" fill="#bfb69e" fill-rule="evenodd" stroke="none"/>
    <path d="M6.5 -8.25 L6.5 -8.15 Q6.5 -8.0 6.4 -7.85 L6.1 -7.45 6.05 -7.45 6.05 -7.5 6.3 -8.0 6.2 -8.0 Q5.85 -8.0 5.65 -8.3 5.6 -8.45 5.55 -8.55 5.55 -8.95 5.9 -9.0 L6.0 -9.0 6.2 -8.9 6.35 -8.75 6.35 -8.7 6.5 -8.25 M5.65 -7.25 L5.6 -7.3 5.6 -7.4 Q5.65 -7.55 5.75 -7.5 5.85 -7.45 5.85 -7.4 5.85 -7.25 5.7 -7.25 L5.65 -7.25" fill="#fff4d4" fill-rule="evenodd" stroke="none"/>
  </g>
</svg>
