<?xml version="1.0" encoding="UTF-8" standalone="no"?>
<svg xmlns:ffdec="https://www.free-decompiler.com/flash" xmlns:xlink="http://www.w3.org/1999/xlink" ffdec:objectType="shape" height="13.55px" width="11.3px" xmlns="http://www.w3.org/2000/svg">
  <g transform="matrix(1.0, 0.0, 0.0, 1.0, 0.0, 13.55)">
    <path d="M8.1 -12.35 Q9.15 -11.55 10.1 -10.45 L10.75 -9.6 10.75 -9.45 Q11.05 -9.1 11.2 -8.7 11.3 -8.35 11.3 -7.6 L11.25 -6.95 Q11.1 -6.15 10.65 -5.1 10.15 -3.9 10.0 -3.2 L9.85 -3.0 9.8 -2.9 9.75 -2.7 9.7 -2.15 Q9.55 -1.55 8.6 -1.35 8.15 -1.15 7.4 -0.85 5.35 -0.05 4.7 -0.05 L4.15 0.0 4.0 -0.05 3.85 -0.05 Q2.5 -0.05 1.8 -0.35 1.65 -0.4 0.3 -1.2 L0.2 -1.15 Q0.1 -1.1 0.1 -1.2 L0.15 -1.25 0.15 -1.3 0.5 -2.1 Q0.9 -3.0 0.9 -3.5 0.9 -3.95 0.65 -4.95 L0.6 -5.15 0.5 -5.45 0.3 -5.9 Q0.05 -6.65 0.05 -6.9 L0.05 -7.1 0.0 -7.35 0.0 -7.45 Q0.0 -7.55 0.1 -7.75 0.2 -8.45 0.5 -9.2 0.75 -9.85 1.15 -10.5 1.7 -11.4 2.55 -12.0 3.2 -12.5 3.9 -12.85 4.65 -13.45 5.55 -13.45 L5.55 -13.5 Q5.55 -13.6 6.0 -13.55 6.55 -13.45 7.3 -13.0 L8.05 -12.45 8.1 -12.35 M10.9 -7.6 Q10.9 -8.05 10.75 -8.6 L10.65 -8.95 10.2 -9.65 Q9.6 -10.55 9.0 -11.25 8.8 -11.35 8.65 -11.5 L7.9 -12.15 Q6.8 -13.1 5.5 -13.1 4.9 -13.1 4.25 -12.65 L4.25 -12.7 Q3.15 -12.1 2.3 -11.25 L1.7 -10.6 1.7 -10.55 1.65 -10.1 1.65 -9.6 Q1.65 -8.9 1.9 -8.0 L2.1 -7.3 Q2.5 -6.2 3.2 -4.95 L3.75 -3.85 Q4.1 -3.2 4.45 -2.75 4.95 -2.2 6.3 -0.75 6.65 -0.85 6.95 -1.0 7.35 -1.15 8.1 -1.5 8.6 -1.7 9.1 -1.85 9.25 -2.05 9.3 -2.35 L9.2 -2.2 9.1 -2.2 10.55 -5.45 10.65 -6.0 Q10.85 -7.0 10.9 -7.4 L10.9 -7.6 M11.0 -8.05 Q11.0 -7.9 11.0 -7.85 L11.05 -7.8 11.05 -7.95 11.0 -8.05 M0.8 -8.85 Q0.8 -7.95 0.85 -7.8 L1.05 -6.55 Q1.3 -5.45 1.75 -4.35 2.6 -2.25 4.0 -0.45 L5.0 -0.5 5.4 -0.6 5.65 -0.6 5.9 -0.65 Q5.6 -0.85 5.1 -1.45 4.75 -1.9 4.2 -2.6 3.9 -2.95 3.55 -3.6 L2.95 -4.7 Q2.55 -5.4 2.1 -6.65 1.9 -7.15 1.8 -7.55 1.7 -7.8 1.6 -8.15 1.45 -8.75 1.45 -9.45 L1.4 -10.1 Q1.1 -9.55 0.8 -8.95 L0.8 -8.85 M0.05 -7.35 Q0.0 -7.25 0.05 -7.2 L0.1 -7.7 Q0.05 -7.5 0.05 -7.35 M0.45 -7.15 L0.4 -6.9 0.4 -6.8 0.45 -6.7 0.65 -5.95 0.75 -5.55 0.95 -4.85 Q1.3 -3.8 1.3 -3.55 L1.3 -3.5 1.35 -3.35 1.35 -3.3 1.3 -3.25 1.25 -3.4 Q1.25 -2.9 0.9 -2.15 0.7 -1.65 0.45 -1.35 L0.6 -1.35 1.25 -1.0 Q2.35 -0.45 3.45 -0.45 L3.6 -0.45 3.3 -0.85 Q2.8 -1.55 2.6 -1.95 L2.15 -2.85 Q1.85 -3.45 1.7 -3.8 L1.05 -5.6 Q0.85 -6.2 0.75 -6.65 L0.7 -6.9 Q0.6 -7.45 0.6 -7.7 0.6 -8.1 0.6 -8.4 0.45 -7.95 0.35 -7.65 L0.35 -7.45 0.4 -7.1 0.45 -7.15" fill="#111111" fill-rule="evenodd" stroke="none"/>
    <path d="M1.65 -10.1 L1.7 -10.55 1.7 -10.6 2.3 -11.25 Q3.15 -12.1 4.25 -12.7 L4.25 -12.65 Q4.9 -13.1 5.5 -13.1 6.8 -13.1 7.9 -12.15 L8.65 -11.5 Q8.8 -11.35 9.0 -11.25 9.6 -10.55 10.2 -9.65 L10.65 -8.95 10.75 -8.6 Q10.9 -8.05 10.9 -7.6 L10.9 -7.65 Q10.05 -7.5 9.65 -7.5 6.35 -7.5 5.45 -8.45 L5.45 -8.45 Q4.9 -8.9 4.7 -9.2 L4.6 -9.15 Q5.15 -8.2 5.75 -7.4 6.8 -5.9 8.1 -4.6 8.1 -4.55 8.0 -4.55 7.55 -4.55 5.95 -5.6 4.5 -6.55 3.8 -7.3 2.85 -8.2 2.3 -8.95 1.9 -9.55 1.65 -10.1 M5.35 -8.1 L5.35 -8.1 M2.65 -8.75 L2.95 -8.45 3.0 -8.35 2.65 -8.75" fill="#80c0f0" fill-rule="evenodd" stroke="none"/>
    <path d="M0.8 -8.85 L0.8 -8.95 Q1.1 -9.55 1.4 -10.1 L1.45 -9.45 Q1.45 -8.75 1.6 -8.15 1.7 -7.8 1.8 -7.55 1.9 -7.15 2.1 -6.65 2.55 -5.4 2.95 -4.7 L3.55 -3.6 Q3.9 -2.95 4.2 -2.6 4.75 -1.9 5.1 -1.45 5.6 -0.85 5.9 -0.65 L5.65 -0.6 5.4 -0.6 5.0 -0.5 4.0 -0.45 Q2.6 -2.25 1.75 -4.35 1.3 -5.45 1.05 -6.55 L0.85 -7.8 Q0.8 -7.95 0.8 -8.85" fill="#b00000" fill-rule="evenodd" stroke="none"/>
    <path d="M1.65 -10.1 Q1.9 -9.55 2.3 -8.95 2.85 -8.2 3.8 -7.3 4.5 -6.55 5.95 -5.6 7.55 -4.55 8.0 -4.55 8.1 -4.55 8.1 -4.6 6.8 -5.9 5.75 -7.4 5.15 -8.2 4.6 -9.15 L4.7 -9.2 Q4.9 -8.9 5.45 -8.45 L5.45 -8.45 Q6.35 -7.5 9.65 -7.5 10.05 -7.5 10.9 -7.65 L10.9 -7.6 10.9 -7.4 Q10.85 -7.0 10.65 -6.0 L10.55 -5.45 9.1 -2.2 9.2 -2.2 9.3 -2.35 Q9.25 -2.05 9.1 -1.85 8.6 -1.7 8.1 -1.5 7.35 -1.15 6.95 -1.0 6.65 -0.85 6.3 -0.75 4.95 -2.2 4.45 -2.75 4.1 -3.2 3.75 -3.85 L3.2 -4.95 Q2.5 -6.2 2.1 -7.3 L1.9 -8.0 Q1.65 -8.9 1.65 -9.6 L1.65 -10.1 M0.45 -7.15 L0.4 -7.1 0.35 -7.45 0.35 -7.65 Q0.45 -7.95 0.6 -8.4 0.6 -8.1 0.6 -7.7 0.6 -7.45 0.7 -6.9 L0.75 -6.65 Q0.85 -6.2 1.05 -5.6 L1.7 -3.8 Q1.85 -3.45 2.15 -2.85 L2.6 -1.95 Q2.8 -1.55 3.3 -0.85 L3.6 -0.45 3.45 -0.45 Q2.35 -0.45 1.25 -1.0 L0.6 -1.35 0.45 -1.35 Q0.7 -1.65 0.9 -2.15 1.25 -2.9 1.25 -3.4 L1.3 -3.25 1.35 -3.3 1.35 -3.35 1.3 -3.5 1.3 -3.55 Q1.3 -3.8 0.95 -4.85 L0.75 -5.55 0.65 -5.95 0.45 -6.7 0.4 -6.8 0.4 -6.9 0.45 -7.15 M2.65 -8.75 L3.0 -8.35 2.95 -8.45 2.65 -8.75 M5.35 -8.1 L5.35 -8.1" fill="#0070e0" fill-rule="evenodd" stroke="none"/>
  </g>
</svg>
