<?xml version="1.0" encoding="UTF-8" standalone="no"?>
<svg xmlns:ffdec="https://www.free-decompiler.com/flash" xmlns:xlink="http://www.w3.org/1999/xlink" ffdec:objectType="shape" height="8.8px" width="5.6px" xmlns="http://www.w3.org/2000/svg">
  <g transform="matrix(1.0, 0.0, 0.0, 1.0, 0.0, 8.8)">
    <path d="M1.95 -8.5 Q2.15 -8.8 2.35 -8.8 L3.35 -8.65 Q3.7 -8.6 3.8 -8.6 L4.1 -8.6 Q4.7 -8.6 4.75 -8.2 4.65 -7.65 4.65 -7.4 L4.75 -6.75 4.85 -6.05 4.95 -5.45 4.95 -5.3 5.1 -4.4 5.6 -2.4 5.6 -2.25 5.5 -2.15 Q5.4 -2.2 5.35 -2.4 5.2 -2.25 4.65 -2.25 L3.95 -2.25 3.5 -2.3 3.5 -2.05 3.55 -1.55 3.7 -0.25 Q3.7 -0.05 3.4 -0.05 L2.25 0.0 Q2.0 0.0 1.85 -0.15 L1.85 -0.2 1.55 -0.2 1.55 -0.15 Q1.5 -0.15 1.4 -0.15 1.25 -0.15 1.3 -0.15 L1.25 -0.25 1.2 -0.25 1.15 -1.3 1.15 -2.5 Q0.25 -2.55 0.05 -3.2 0.0 -3.4 0.0 -3.7 L0.05 -4.1 Q0.05 -5.85 0.25 -6.8 0.65 -8.55 1.7 -8.5 L1.95 -8.5 M1.35 -5.4 L1.35 -5.8 1.5 -6.95 1.55 -7.15 Q1.6 -7.6 1.7 -7.9 1.8 -8.2 1.9 -8.35 0.95 -8.35 0.55 -6.55 0.4 -5.9 0.35 -5.1 L0.3 -4.75 0.3 -4.05 Q0.3 -3.45 0.35 -3.3 0.5 -3.05 1.0 -2.75 L1.15 -2.7 Q1.2 -3.85 1.3 -4.65 L1.3 -5.0 1.35 -5.05 1.35 -5.4 M3.1 -4.65 L3.05 -6.0 Q3.05 -6.9 3.1 -7.0 L3.4 -8.35 2.35 -8.35 Q1.8 -7.3 1.65 -5.85 L1.65 -5.6 1.6 -5.55 1.6 -4.75 1.6 -4.25 1.55 -2.75 1.5 -2.55 1.5 -2.25 1.5 -1.65 1.5 -0.55 2.05 -0.5 2.1 -0.5 2.55 -0.45 2.6 -0.45 Q2.95 -0.5 3.35 -0.45 L3.35 -0.6 3.3 -1.65 3.3 -1.7 3.25 -2.2 3.25 -2.3 3.2 -2.3 3.2 -2.45 3.25 -2.45 3.2 -3.05 3.2 -3.2 3.15 -3.95 3.1 -4.5 3.1 -4.6 3.1 -4.65 M4.55 -6.4 L4.45 -7.45 4.4 -7.85 4.4 -8.25 4.35 -8.3 Q4.25 -8.35 3.65 -8.35 3.55 -8.2 3.5 -7.95 3.4 -7.5 3.4 -6.95 L3.4 -5.8 3.4 -5.6 3.4 -5.4 3.4 -4.95 3.4 -4.9 3.4 -3.55 3.45 -2.45 4.05 -2.4 5.15 -2.5 5.3 -2.45 5.35 -2.4 5.25 -2.65 Q5.2 -3.0 5.2 -3.15 L5.2 -3.25 Q4.85 -4.5 4.7 -5.65 L4.65 -5.75 4.65 -5.95 4.6 -6.15 4.6 -6.2 4.55 -6.4 M3.2 -6.0 L3.25 -5.2 3.25 -6.7 Q3.2 -6.35 3.2 -6.0" fill="#111111" fill-rule="evenodd" stroke="none"/>
    <path d="M0.35 -5.1 Q0.4 -5.9 0.55 -6.55 0.95 -8.35 1.9 -8.35 1.8 -8.2 1.7 -7.9 1.6 -7.6 1.55 -7.15 L1.5 -6.95 1.35 -5.8 1.35 -5.4 1.35 -5.05 1.35 -5.15 0.55 -5.05 0.35 -5.1 M1.35 -5.4 L1.35 -5.5 1.15 -5.45 0.85 -5.35 0.85 -5.3 Q0.9 -5.25 0.95 -5.25 L1.3 -5.35 1.35 -5.4 M3.4 -5.8 L3.4 -6.95 Q3.4 -7.5 3.5 -7.95 3.55 -8.2 3.65 -8.35 4.25 -8.35 4.35 -8.3 L4.4 -8.25 4.4 -7.85 4.45 -7.45 4.55 -6.4 3.4 -5.8 M4.6 -6.2 L4.6 -6.15 4.35 -5.95 Q3.95 -5.55 3.4 -5.4 L3.4 -5.6 4.0 -5.9 Q4.35 -6.05 4.6 -6.2 M3.4 -4.9 L3.4 -4.95 3.4 -4.9" fill="#9c9581" fill-rule="evenodd" stroke="none"/>
    <path d="M1.65 -5.85 Q1.8 -7.3 2.35 -8.35 L3.4 -8.35 3.1 -7.0 Q3.05 -6.9 3.05 -6.0 L3.1 -4.65 2.15 -5.45 1.65 -5.85 M3.1 -4.6 L3.1 -4.5 3.05 -4.55 Q2.2 -5.15 1.85 -5.5 L2.5 -5.0 3.1 -4.6 M3.15 -3.95 L3.2 -3.2 2.25 -3.8 1.6 -4.25 1.6 -4.75 2.45 -4.3 3.15 -3.95 M1.6 -5.55 L1.6 -5.55" fill="#b00000" fill-rule="evenodd" stroke="none"/>
    <path d="M0.35 -5.1 L0.55 -5.05 1.35 -5.15 1.35 -5.05 1.3 -5.0 1.3 -4.65 Q1.2 -3.85 1.15 -2.7 L1.0 -2.75 Q0.5 -3.05 0.35 -3.3 0.3 -3.45 0.3 -4.05 L0.3 -4.75 0.35 -5.1 M1.35 -5.4 L1.3 -5.35 0.95 -5.25 Q0.9 -5.25 0.85 -5.3 L0.85 -5.35 1.15 -5.45 1.35 -5.5 1.35 -5.4 M3.4 -5.8 L4.55 -6.4 4.6 -6.2 Q4.35 -6.05 4.0 -5.9 L3.4 -5.6 3.4 -5.8 M4.6 -6.15 L4.65 -5.95 4.65 -5.75 4.7 -5.65 Q4.85 -4.5 5.2 -3.25 L5.2 -3.15 Q5.2 -3.0 5.25 -2.65 L5.35 -2.4 5.3 -2.45 5.15 -2.5 4.05 -2.4 3.45 -2.45 3.4 -3.55 3.4 -4.9 3.4 -4.95 3.4 -5.4 Q3.95 -5.55 4.35 -5.95 L4.6 -6.15" fill="#666154" fill-rule="evenodd" stroke="none"/>
    <path d="M1.65 -5.85 L2.15 -5.45 3.1 -4.65 3.1 -4.6 2.5 -5.0 1.85 -5.5 Q2.2 -5.15 3.05 -4.55 L3.1 -4.5 3.15 -3.95 2.45 -4.3 1.6 -4.75 1.6 -5.55 1.65 -5.6 1.65 -5.85 M3.2 -3.2 L3.2 -3.05 3.25 -2.45 3.2 -2.45 3.2 -2.3 2.85 -2.25 2.85 -1.65 3.1 -1.7 3.3 -1.7 3.3 -1.65 3.35 -0.6 3.35 -0.45 Q2.95 -0.5 2.6 -0.45 L2.65 -1.2 2.65 -1.25 2.1 -1.25 2.1 -0.5 2.05 -0.5 1.5 -0.55 1.5 -1.65 1.8 -1.65 1.85 -1.7 1.85 -2.3 1.5 -2.25 1.5 -2.55 1.55 -2.75 1.6 -4.25 2.25 -3.8 3.2 -3.2 M1.6 -5.55 L1.6 -5.55 M2.45 -1.85 Q2.4 -1.75 2.3 -1.75 2.25 -1.75 2.2 -1.8 L2.2 -1.85 Q2.2 -2.05 2.3 -2.1 2.45 -2.15 2.45 -1.95 L2.45 -1.85 M2.55 -1.95 Q2.55 -2.25 2.35 -2.25 2.1 -2.25 2.1 -1.85 L2.1 -1.75 Q2.15 -1.6 2.3 -1.6 2.45 -1.6 2.5 -1.75 L2.55 -1.95" fill="#600000" fill-rule="evenodd" stroke="none"/>
    <path d="M3.2 -2.3 L3.25 -2.3 3.25 -2.2 3.3 -1.7 3.3 -1.65 3.3 -1.7 3.1 -1.7 2.85 -1.65 2.85 -2.25 3.2 -2.3 M2.6 -0.45 L2.55 -0.45 2.1 -0.5 2.1 -1.25 2.65 -1.25 2.65 -1.2 2.6 -0.45 M1.5 -1.65 L1.5 -2.25 1.85 -2.3 1.85 -1.7 1.8 -1.65 1.5 -1.65 M2.45 -1.85 L2.45 -1.95 Q2.45 -2.15 2.3 -2.1 2.2 -2.05 2.2 -1.85 L2.2 -1.8 Q2.25 -1.75 2.3 -1.75 2.4 -1.75 2.45 -1.85 M2.55 -1.95 L2.5 -1.75 Q2.45 -1.6 2.3 -1.6 2.15 -1.6 2.1 -1.75 L2.1 -1.85 Q2.1 -2.25 2.35 -2.25 2.55 -2.25 2.55 -1.95" fill="#ffffff" fill-rule="evenodd" stroke="none"/>
  </g>
</svg>
