<?xml version="1.0" encoding="UTF-8" standalone="no"?>
<svg xmlns:ffdec="https://www.free-decompiler.com/flash" xmlns:xlink="http://www.w3.org/1999/xlink" ffdec:objectType="shape" height="10.75px" width="10.35px" xmlns="http://www.w3.org/2000/svg">
  <g transform="matrix(1.0, 0.0, 0.0, 1.0, -0.95, 10.5)">
    <path d="M8.2 -5.9 Q7.75 -7.4 7.45 -8.05 7.05 -8.9 6.35 -9.6 L6.25 -9.6 5.85 -9.95 Q5.35 -10.3 4.35 -10.3 3.5 -10.3 2.85 -10.0 L2.0 -9.5 2.0 -9.55 1.8 -9.2 Q1.9 -8.6 2.1 -8.1 L2.3 -7.25 Q2.75 -6.0 3.2 -5.0 L3.6 -4.35 Q4.05 -3.6 4.5 -2.95 5.65 -1.5 7.25 -0.4 7.5 -0.3 7.75 -0.2 8.7 -0.35 9.8 -0.75 L10.15 -0.9 10.2 -0.9 10.3 -0.95 Q10.7 -1.15 11.1 -1.3 L11.1 -1.4 Q9.85 -2.3 9.2 -3.4 8.7 -4.2 8.25 -5.7 L8.2 -5.9 M1.7 -9.4 L1.8 -9.4 1.75 -9.3 2.2 -9.8 2.1 -9.7 Q2.8 -10.35 4.25 -10.45 5.1 -10.55 5.65 -10.3 6.9 -10.3 7.75 -8.4 8.05 -7.8 8.3 -6.95 L8.55 -6.0 Q9.1 -4.35 9.5 -3.6 10.1 -2.4 11.1 -1.45 L11.3 -1.45 11.3 -1.3 Q11.3 -1.25 11.05 -0.95 L11.0 -0.85 Q10.55 -0.65 9.8 -0.4 7.95 0.25 7.0 0.25 L3.5 0.0 1.15 -0.2 1.1 -0.25 1.05 -0.2 Q1.2 -0.45 1.2 -0.55 L1.25 -0.85 1.3 -2.15 Q1.3 -2.95 1.15 -3.95 0.95 -4.9 0.95 -6.05 0.95 -7.2 1.2 -8.05 1.35 -8.7 1.7 -9.2 L1.7 -9.3 Q1.7 -9.35 1.7 -9.4 M3.25 -4.6 L3.0 -5.05 Q2.5 -6.05 2.15 -7.1 1.75 -8.25 1.7 -9.05 1.5 -8.6 1.5 -8.4 L1.35 -7.75 1.35 -7.5 1.3 -6.95 Q1.45 -6.3 1.65 -5.7 2.6 -3.65 2.8 -3.3 L3.1 -2.85 3.2 -2.65 3.35 -2.45 3.6 -2.05 4.2 -1.35 Q4.7 -0.75 5.3 -0.2 L6.9 -0.05 7.35 -0.1 Q6.9 -0.35 6.3 -0.9 4.9 -1.9 3.7 -3.8 L3.35 -4.35 3.25 -4.6 M1.35 -5.25 L1.45 -4.3 Q1.65 -2.9 1.65 -2.15 L1.6 -1.15 1.6 -1.1 1.5 -0.9 Q1.4 -0.6 1.1 -0.25 L1.3 -0.35 1.3 -0.4 1.7 -0.45 2.05 -0.5 4.55 -0.25 4.85 -0.25 Q3.75 -1.05 2.5 -3.2 L2.35 -3.45 Q1.6 -4.85 1.3 -5.85 L1.35 -5.25 M5.2 -0.2 L5.3 -0.2 5.05 -0.4 5.2 -0.2 M7.55 -0.2 L7.6 -0.15 7.65 -0.15 7.55 -0.2" fill="#111111" fill-rule="evenodd" stroke="none"/>
    <path d="M2.1 -8.1 Q1.9 -8.6 1.8 -9.2 L2.0 -9.55 2.0 -9.5 2.85 -10.0 Q3.5 -10.3 4.35 -10.3 5.35 -10.3 5.85 -9.95 L6.25 -9.6 6.35 -9.6 Q7.05 -8.9 7.45 -8.05 7.75 -7.4 8.2 -5.9 L8.15 -6.1 8.05 -5.9 Q7.75 -5.4 7.55 -5.15 7.25 -4.8 7.0 -4.65 6.45 -4.85 6.15 -5.0 5.9 -5.15 5.4 -5.6 L4.7 -6.2 Q4.6 -6.25 4.6 -6.1 4.6 -5.6 5.95 -3.8 6.35 -3.3 7.05 -2.55 L7.4 -2.2 7.1 -2.35 Q5.5 -3.3 4.6 -4.4 4.1 -4.9 2.75 -7.05 L2.1 -8.1 M1.35 -5.25 Q1.55 -4.7 1.85 -3.85 2.45 -2.4 2.45 -1.6 2.45 -1.45 2.35 -1.3 2.1 -1.1 1.7 -1.1 L1.6 -1.1 1.6 -1.15 1.65 -2.15 Q1.65 -2.9 1.45 -4.3 L1.35 -5.25 M7.55 -0.2 L7.65 -0.15 7.6 -0.15 7.55 -0.2 M5.2 -0.2 L5.05 -0.4 5.3 -0.2 5.2 -0.2" fill="#80c0f0" fill-rule="evenodd" stroke="none"/>
    <path d="M1.35 -7.5 L1.35 -7.75 1.5 -8.4 Q1.5 -8.6 1.7 -9.05 1.75 -8.25 2.15 -7.1 2.5 -6.05 3.0 -5.05 L3.25 -4.6 3.2 -4.6 Q2.45 -5.15 2.1 -5.8 1.95 -6.15 1.7 -6.75 L1.35 -7.5 M3.6 -2.05 L3.35 -2.45 3.2 -2.65 3.55 -2.2 3.6 -2.05" fill="#b00000" fill-rule="evenodd" stroke="none"/>
    <path d="M2.1 -8.1 L2.75 -7.05 Q4.1 -4.9 4.6 -4.4 5.5 -3.3 7.1 -2.35 L7.4 -2.2 7.05 -2.55 Q6.35 -3.3 5.95 -3.8 4.6 -5.6 4.6 -6.1 4.6 -6.25 4.7 -6.2 L5.4 -5.6 Q5.9 -5.15 6.15 -5.0 6.45 -4.85 7.0 -4.65 7.25 -4.8 7.55 -5.15 7.75 -5.4 8.05 -5.9 L8.15 -6.1 8.2 -5.9 8.25 -5.7 Q8.7 -4.2 9.2 -3.4 9.85 -2.3 11.1 -1.4 L11.1 -1.3 Q10.7 -1.15 10.3 -0.95 L10.2 -0.9 10.15 -0.9 9.8 -0.75 Q8.7 -0.35 7.75 -0.2 7.5 -0.3 7.25 -0.4 5.65 -1.5 4.5 -2.95 4.05 -3.6 3.6 -4.35 L3.2 -5.0 Q2.75 -6.0 2.3 -7.25 L2.1 -8.1 M1.6 -1.1 L1.7 -1.1 Q2.1 -1.1 2.35 -1.3 2.45 -1.45 2.45 -1.6 2.45 -2.4 1.85 -3.85 1.55 -4.7 1.35 -5.25 L1.3 -5.85 Q1.6 -4.85 2.35 -3.45 L2.5 -3.2 Q3.75 -1.05 4.85 -0.25 L4.55 -0.25 2.05 -0.5 1.7 -0.45 1.3 -0.4 1.3 -0.35 1.1 -0.25 Q1.4 -0.6 1.5 -0.9 L1.6 -1.1" fill="#0070e0" fill-rule="evenodd" stroke="none"/>
    <path d="M1.35 -7.5 L1.7 -6.75 Q1.95 -6.15 2.1 -5.8 2.45 -5.15 3.2 -4.6 L3.25 -4.6 3.35 -4.35 3.7 -3.8 Q4.9 -1.9 6.3 -0.9 6.9 -0.35 7.35 -0.1 L6.9 -0.05 5.3 -0.2 Q4.7 -0.75 4.2 -1.35 L3.6 -2.05 3.55 -2.2 3.2 -2.65 3.1 -2.85 2.8 -3.3 Q2.6 -3.65 1.65 -5.7 1.45 -6.3 1.3 -6.95 L1.35 -7.5" fill="#600000" fill-rule="evenodd" stroke="none"/>
  </g>
</svg>
