<?xml version="1.0" encoding="UTF-8" standalone="no"?>
<svg xmlns:ffdec="https://www.free-decompiler.com/flash" xmlns:xlink="http://www.w3.org/1999/xlink" ffdec:objectType="shape" height="7.3px" width="4.5px" xmlns="http://www.w3.org/2000/svg">
  <g transform="matrix(1.0, 0.0, 0.0, 1.0, 0.85, 12.35)">
    <path d="M3.4 -12.05 Q3.5 -11.85 3.55 -11.5 3.65 -11.0 3.65 -10.7 L3.65 -9.75 Q3.65 -8.65 2.7 -6.9 1.7 -5.1 1.0 -5.1 L0.9 -5.1 Q0.7 -5.05 0.55 -5.05 0.3 -5.05 0.2 -5.15 L0.15 -5.2 Q-0.2 -5.35 -0.5 -5.85 -0.85 -6.4 -0.85 -6.75 -0.85 -7.05 -0.4 -8.1 0.1 -9.3 0.7 -10.3 2.2 -12.8 3.25 -12.3 L3.35 -12.3 3.4 -12.15 3.45 -12.1 3.4 -12.1 3.4 -12.05 M3.5 -10.4 L3.45 -10.95 3.45 -11.2 3.35 -11.55 3.15 -12.15 Q2.2 -12.1 0.7 -9.7 0.2 -8.8 -0.25 -7.95 L-0.35 -7.75 -0.6 -7.2 Q-0.6 -6.85 -0.3 -6.25 -0.05 -5.85 0.25 -5.55 L0.5 -5.3 0.55 -5.3 0.7 -5.25 Q1.35 -5.25 2.35 -6.75 3.4 -8.25 3.45 -9.4 L3.45 -9.7 3.5 -10.05 3.5 -10.4" fill="#111111" fill-rule="evenodd" stroke="none"/>
    <path d="M-0.25 -7.95 Q0.2 -8.8 0.7 -9.7 2.2 -12.1 3.15 -12.15 L3.35 -11.55 3.45 -11.2 3.45 -10.95 3.5 -10.4 Q3.25 -9.85 2.9 -9.3 1.85 -7.7 0.5 -7.7 0.3 -7.7 -0.25 -7.95" fill="#80c0f0" fill-rule="evenodd" stroke="none"/>
    <path d="M-0.25 -7.95 Q0.3 -7.7 0.5 -7.7 1.85 -7.7 2.9 -9.3 3.25 -9.85 3.5 -10.4 L3.5 -10.05 3.45 -9.7 3.45 -9.4 Q3.4 -8.25 2.35 -6.75 1.35 -5.25 0.7 -5.25 L0.55 -5.3 0.5 -5.3 0.25 -5.55 Q-0.05 -5.85 -0.3 -6.25 -0.6 -6.85 -0.6 -7.2 L-0.35 -7.75 -0.25 -7.95" fill="#0070e0" fill-rule="evenodd" stroke="none"/>
  </g>
</svg>
