<?xml version="1.0" encoding="UTF-8" standalone="no"?>
<svg xmlns:ffdec="https://www.free-decompiler.com/flash" xmlns:xlink="http://www.w3.org/1999/xlink" ffdec:objectType="shape" height="9.0px" width="5.6px" xmlns="http://www.w3.org/2000/svg">
  <g transform="matrix(1.0, 0.0, 0.0, 1.0, 0.0, 9.0)">
    <path d="M1.05 -8.85 Q1.4 -8.7 1.65 -8.45 L1.75 -8.4 Q2.35 -8.15 3.45 -8.0 4.35 -8.05 4.65 -8.15 L4.8 -8.2 4.85 -8.25 4.95 -8.3 Q5.15 -8.3 5.15 -8.1 L5.05 -7.7 5.25 -7.4 Q5.4 -7.1 5.4 -6.85 L5.35 -6.7 Q5.3 -6.55 5.15 -6.35 L5.0 -6.25 Q5.1 -5.15 5.35 -3.5 5.6 -2.15 5.6 -1.0 5.6 -0.55 5.55 -0.35 L5.45 -0.3 5.4 -0.8 5.05 -2.55 Q4.95 -3.05 4.9 -3.45 L4.9 -3.1 5.0 -1.0 Q4.95 -0.65 4.95 -0.5 L4.95 -0.45 4.9 -0.6 4.9 -0.35 4.95 -0.1 4.9 0.0 4.9 -0.05 4.85 -0.05 4.75 -0.1 4.75 -0.4 Q4.6 -0.9 4.55 -1.55 4.5 -2.1 4.45 -3.15 L4.45 -3.3 4.35 -5.3 4.35 -6.0 4.3 -5.95 4.0 -5.85 4.05 -5.85 4.1 -5.8 3.7 -5.8 Q3.05 -5.8 2.5 -6.0 2.0 -6.1 1.2 -6.6 0.55 -6.95 0.3 -7.25 L0.2 -7.35 Q0.0 -7.55 0.0 -7.75 0.0 -7.9 0.1 -8.0 L0.2 -8.1 0.35 -8.35 0.45 -8.7 0.5 -8.75 Q0.55 -9.0 0.9 -8.9 L0.95 -8.85 0.85 -9.0 0.9 -9.0 1.05 -8.85 M4.1 -7.35 L4.15 -7.45 Q4.15 -7.6 4.3 -7.7 L4.35 -7.75 Q4.55 -7.85 4.85 -7.8 L4.9 -7.8 4.95 -8.05 4.95 -8.1 4.7 -7.95 4.55 -7.9 4.3 -7.8 3.4 -7.8 Q2.4 -7.9 1.7 -8.25 1.35 -8.45 1.1 -8.75 0.95 -8.8 0.85 -8.8 0.75 -8.8 0.65 -8.65 L0.55 -8.5 0.7 -8.4 0.65 -8.4 Q0.9 -8.3 1.15 -8.0 1.5 -7.7 1.65 -7.55 2.1 -7.25 2.9 -7.0 L3.95 -6.8 4.0 -6.8 4.0 -6.9 4.05 -7.1 4.05 -7.2 4.1 -7.3 4.1 -7.35 M0.45 -8.1 L0.35 -8.0 0.35 -7.95 0.4 -7.9 Q0.9 -7.2 1.35 -6.85 L1.55 -6.7 Q2.05 -6.4 2.45 -6.25 L2.85 -6.1 3.05 -6.1 Q2.5 -6.4 1.8 -7.1 L0.85 -8.05 0.55 -8.4 0.55 -8.3 0.5 -8.25 0.45 -8.1 M1.15 -6.8 L1.1 -6.85 Q0.55 -7.35 0.3 -7.85 L0.3 -7.9 0.2 -7.75 Q0.2 -7.65 0.4 -7.4 0.55 -7.2 0.75 -7.1 L0.75 -7.05 0.7 -7.05 0.95 -6.9 1.15 -6.8 M1.85 -7.3 L1.9 -7.25 1.95 -7.3 1.85 -7.3 M2.1 -7.1 L2.1 -7.15 2.15 -7.05 2.35 -6.9 3.4 -6.15 3.45 -6.1 3.55 -6.1 3.65 -6.0 3.75 -6.0 Q3.95 -6.0 4.3 -6.15 L4.35 -6.15 Q4.25 -6.2 4.2 -6.25 L4.1 -6.35 4.05 -6.5 4.0 -6.65 3.75 -6.65 Q3.15 -6.65 2.3 -7.05 L2.1 -7.1 M4.85 -7.6 L4.7 -7.6 4.8 -7.5 Q4.9 -7.35 4.9 -7.1 4.9 -6.6 4.7 -6.35 L4.75 -6.3 Q5.1 -6.35 5.2 -6.95 L5.2 -7.05 5.1 -7.3 5.1 -7.4 4.95 -7.55 4.95 -7.5 4.9 -7.55 4.9 -7.6 4.85 -7.6 M4.9 -7.6 L4.9 -7.6 M4.3 -7.25 L4.3 -7.05 4.5 -7.1 4.75 -7.05 4.8 -7.05 Q4.8 -7.2 4.7 -7.4 L4.55 -7.6 Q4.4 -7.5 4.3 -7.25 M4.7 -6.7 L4.7 -6.75 4.65 -6.85 4.55 -6.95 Q4.4 -6.95 4.3 -6.85 L4.25 -6.8 Q4.25 -6.65 4.3 -6.5 L4.3 -6.45 4.45 -6.35 4.55 -6.5 4.7 -6.7 M4.65 -6.25 L4.7 -6.25 4.7 -6.35 4.65 -6.25 M5.05 -4.65 L5.05 -4.9 4.95 -5.45 Q4.95 -5.75 4.95 -5.95 L4.95 -6.2 4.8 -6.15 Q4.85 -5.8 4.9 -5.25 L4.9 -4.85 Q4.9 -4.35 4.95 -4.15 L5.15 -2.95 5.25 -2.55 5.2 -3.25 5.15 -3.8 5.05 -4.65 M4.65 -5.7 L4.65 -5.75 4.6 -6.05 4.6 -6.1 4.5 -6.1 4.5 -5.15 4.5 -5.1 4.5 -4.95 4.6 -3.15 Q4.6 -2.0 4.75 -1.05 L4.8 -2.5 4.75 -3.3 4.75 -4.75 4.7 -5.3 4.7 -5.35 4.65 -5.65 4.65 -5.7" fill="#111111" fill-rule="evenodd" stroke="none"/>
    <path d="M0.65 -8.65 Q0.75 -8.8 0.85 -8.8 0.95 -8.8 1.1 -8.75 1.35 -8.45 1.7 -8.25 2.4 -7.9 3.4 -7.8 L4.3 -7.8 4.55 -7.9 4.7 -7.95 4.95 -8.1 4.95 -8.05 4.9 -7.8 4.85 -7.8 Q4.55 -7.85 4.35 -7.75 L4.3 -7.7 Q4.15 -7.6 4.15 -7.45 L4.1 -7.35 3.7 -7.5 Q2.7 -7.7 1.95 -8.0 L1.1 -8.4 0.65 -8.65 M4.05 -7.2 L4.05 -7.1 4.0 -7.05 Q3.25 -7.15 2.8 -7.3 2.55 -7.35 2.1 -7.6 L2.75 -7.4 Q3.2 -7.3 4.05 -7.2 M4.0 -6.8 L3.95 -6.8 4.0 -6.8 M0.5 -8.25 Q0.7 -8.0 1.15 -7.5 L2.0 -6.65 Q1.6 -6.85 0.9 -7.55 L0.45 -8.1 0.5 -8.25 M0.95 -6.9 L1.15 -6.8 0.95 -6.9 M2.15 -7.05 L2.1 -7.15 2.1 -7.1 2.15 -7.05 M4.05 -6.5 L4.1 -6.35 4.2 -6.25 3.7 -6.2 Q3.65 -6.2 3.35 -6.35 L2.95 -6.65 3.3 -6.55 Q3.6 -6.45 3.75 -6.45 L4.05 -6.5 M5.1 -7.4 L5.1 -7.0 Q5.05 -6.75 4.95 -6.6 5.0 -6.9 5.0 -7.2 5.0 -7.4 4.9 -7.55 L4.85 -7.6 4.9 -7.6 4.9 -7.55 4.95 -7.5 4.95 -7.55 5.1 -7.4 M4.75 -7.05 Q4.65 -7.15 4.5 -7.2 L4.3 -7.25 Q4.4 -7.5 4.55 -7.6 L4.7 -7.4 Q4.8 -7.2 4.8 -7.05 L4.75 -7.05 M4.3 -6.5 Q4.25 -6.65 4.25 -6.8 L4.3 -6.85 Q4.4 -6.95 4.55 -6.95 L4.65 -6.85 4.7 -6.75 4.7 -6.7 Q4.65 -6.75 4.5 -6.7 4.35 -6.65 4.3 -6.5 M4.9 -4.85 L5.05 -4.3 5.05 -4.65 5.15 -3.8 5.2 -3.25 5.25 -2.55 5.15 -2.95 4.95 -4.15 Q4.9 -4.35 4.9 -4.85 M4.5 -5.15 L4.55 -5.15 4.5 -5.1 4.5 -5.15 M4.5 -4.95 L4.55 -4.9 4.55 -4.85 4.7 -5.15 4.7 -5.3 4.75 -4.75 4.75 -3.3 4.8 -2.5 4.75 -1.05 Q4.6 -2.0 4.6 -3.15 L4.5 -4.95 M4.65 -5.65 L4.6 -5.65 4.65 -5.7 4.65 -5.65" fill="#b00000" fill-rule="evenodd" stroke="none"/>
    <path d="M0.65 -8.65 L1.1 -8.4 1.95 -8.0 Q2.7 -7.7 3.7 -7.5 L4.1 -7.35 4.1 -7.3 4.05 -7.2 Q3.2 -7.3 2.75 -7.4 L2.1 -7.6 Q2.55 -7.35 2.8 -7.3 3.25 -7.15 4.0 -7.05 L4.05 -7.1 4.0 -6.9 4.0 -6.8 3.95 -6.8 2.9 -7.0 Q2.1 -7.25 1.65 -7.55 1.5 -7.7 1.15 -8.0 0.9 -8.3 0.65 -8.4 L0.7 -8.4 0.55 -8.5 0.65 -8.65 M0.5 -8.25 L0.55 -8.3 0.55 -8.4 0.85 -8.05 1.8 -7.1 Q2.5 -6.4 3.05 -6.1 L2.85 -6.1 2.45 -6.25 Q2.05 -6.4 1.55 -6.7 L1.35 -6.85 Q0.9 -7.2 0.4 -7.9 L0.35 -7.95 0.35 -8.0 0.45 -8.1 0.9 -7.55 Q1.6 -6.85 2.0 -6.65 L1.15 -7.5 Q0.7 -8.0 0.5 -8.25 M0.95 -6.9 L0.7 -7.05 0.75 -7.05 0.75 -7.1 Q0.55 -7.2 0.4 -7.4 0.2 -7.65 0.2 -7.75 L0.3 -7.9 0.3 -7.85 Q0.55 -7.35 1.1 -6.85 L1.15 -6.8 0.95 -6.9 M2.15 -7.05 L2.1 -7.1 2.3 -7.05 Q3.15 -6.65 3.75 -6.65 L4.0 -6.65 4.05 -6.5 3.75 -6.45 Q3.6 -6.45 3.3 -6.55 L2.95 -6.65 3.35 -6.35 Q3.65 -6.2 3.7 -6.2 L4.2 -6.25 Q4.25 -6.2 4.35 -6.15 L4.3 -6.15 Q3.95 -6.0 3.75 -6.0 L3.65 -6.0 3.55 -6.1 3.45 -6.1 3.4 -6.15 2.35 -6.9 2.15 -7.05 M5.1 -7.4 L5.1 -7.3 5.2 -7.05 5.2 -6.95 Q5.1 -6.35 4.75 -6.3 L4.7 -6.35 Q4.9 -6.6 4.9 -7.1 4.9 -7.35 4.8 -7.5 L4.7 -7.6 4.85 -7.6 4.9 -7.55 Q5.0 -7.4 5.0 -7.2 5.0 -6.9 4.95 -6.6 5.05 -6.75 5.1 -7.0 L5.1 -7.4 M4.75 -7.05 L4.5 -7.1 4.3 -7.05 4.3 -7.25 4.5 -7.2 Q4.65 -7.15 4.75 -7.05 M4.3 -6.5 Q4.35 -6.65 4.5 -6.7 4.65 -6.75 4.7 -6.7 L4.55 -6.5 4.45 -6.35 4.3 -6.45 4.3 -6.5 M4.9 -4.85 L4.9 -5.25 Q4.85 -5.8 4.8 -6.15 L4.95 -6.2 4.95 -5.95 Q4.95 -5.75 4.95 -5.45 L5.05 -4.9 5.05 -4.65 5.05 -4.3 4.9 -4.85 M4.5 -5.15 L4.5 -6.1 4.6 -6.1 4.6 -6.05 4.65 -5.75 4.65 -5.7 4.6 -5.65 4.65 -5.65 4.7 -5.35 4.7 -5.3 4.7 -5.15 4.55 -4.85 4.55 -4.9 4.5 -4.95 4.5 -5.1 4.55 -5.15 4.5 -5.15" fill="#600000" fill-rule="evenodd" stroke="none"/>
  </g>
</svg>
