<?xml version="1.0" encoding="UTF-8" standalone="no"?>
<svg xmlns:ffdec="https://www.free-decompiler.com/flash" xmlns:xlink="http://www.w3.org/1999/xlink" ffdec:objectType="shape" height="10.9px" width="10.8px" xmlns="http://www.w3.org/2000/svg">
  <g transform="matrix(1.0, 0.0, 0.0, 1.0, 0.0, 10.9)">
    <path d="M1.15 -8.3 Q1.45 -9.25 1.95 -10.15 2.45 -10.7 3.0 -10.7 3.5 -10.7 4.3 -10.4 L5.15 -10.05 6.15 -9.75 Q6.75 -9.55 6.95 -9.4 L6.95 -9.35 Q7.15 -8.7 7.15 -8.5 L7.25 -7.9 Q7.05 -6.85 6.9 -6.6 6.85 -6.5 6.55 -6.3 5.95 -6.35 5.65 -6.55 5.25 -6.95 4.9 -7.15 4.5 -7.6 3.95 -7.55 3.4 -7.55 3.4 -7.2 L4.35 -3.45 Q4.2 -3.05 3.75 -3.05 2.65 -3.05 1.75 -5.2 1.45 -5.9 1.2 -6.7 1.05 -7.3 1.05 -7.45 L1.1 -7.9 1.2 -8.35 1.2 -8.45 1.15 -8.3" fill="#80c0f0" fill-rule="evenodd" stroke="none"/>
    <path d="M7.1 -9.4 L7.7 -7.5 Q8.1 -6.3 8.4 -5.45 8.75 -4.55 9.85 -2.9 L10.8 -1.4 Q10.8 -1.25 10.75 -1.3 L10.75 -1.25 10.6 -1.2 10.55 -1.2 Q10.25 -0.85 9.7 -0.6 8.95 -0.25 7.9 -0.15 7.25 0.0 6.65 0.0 L5.45 -0.05 4.05 -0.3 3.9 -0.3 Q2.35 -0.55 1.55 -0.55 L1.0 -0.6 0.4 -0.65 0.35 -0.65 Q0.3 -0.65 0.3 -0.7 L0.25 -0.7 Q0.2 -0.75 0.15 -0.8 0.15 -0.85 0.25 -0.85 0.15 -1.15 0.1 -1.8 0.0 -2.4 0.0 -3.0 0.0 -5.25 0.45 -7.15 1.05 -9.6 2.35 -10.85 L2.25 -10.7 Q2.6 -10.9 3.15 -10.9 3.85 -10.85 4.5 -10.55 4.85 -10.35 6.05 -10.05 6.95 -9.8 7.1 -9.55 L7.1 -9.4 M7.25 -7.9 L7.15 -8.5 Q7.15 -8.7 6.95 -9.35 L6.95 -9.4 Q6.75 -9.55 6.15 -9.75 L5.15 -10.05 4.3 -10.4 Q3.5 -10.7 3.0 -10.7 2.45 -10.7 1.95 -10.15 1.45 -9.25 1.15 -8.3 L0.8 -7.15 0.7 -6.75 0.6 -6.3 Q0.3 -4.65 0.3 -2.65 L0.5 -1.0 0.5 -0.85 1.05 -0.85 1.85 -0.95 3.9 -0.7 Q5.45 -0.5 6.7 -0.5 8.15 -0.5 9.2 -0.8 9.55 -0.9 9.9 -1.05 L9.95 -1.05 10.4 -1.25 Q10.2 -1.35 9.95 -1.65 9.4 -2.35 8.6 -4.1 8.05 -5.35 7.6 -6.6 L7.5 -7.0 7.35 -7.3 Q7.25 -7.65 7.25 -7.9" fill="#111111" fill-rule="evenodd" stroke="none"/>
    <path d="M1.15 -8.3 L1.2 -8.45 1.2 -8.35 1.1 -7.9 1.05 -7.45 Q1.05 -7.3 1.2 -6.7 1.45 -5.9 1.75 -5.2 2.65 -3.05 3.75 -3.05 4.2 -3.05 4.35 -3.45 L3.4 -7.2 Q3.4 -7.55 3.95 -7.55 4.5 -7.6 4.9 -7.15 5.25 -6.95 5.65 -6.55 5.95 -6.35 6.55 -6.3 6.85 -6.5 6.9 -6.6 7.05 -6.85 7.25 -7.9 7.25 -7.65 7.35 -7.3 L7.5 -7.0 7.6 -6.6 Q8.05 -5.35 8.6 -4.1 9.4 -2.35 9.95 -1.65 10.2 -1.35 10.4 -1.25 L9.95 -1.05 9.9 -1.05 Q9.55 -0.9 9.2 -0.8 8.15 -0.5 6.7 -0.5 5.45 -0.5 3.9 -0.7 L1.85 -0.95 1.05 -0.85 0.5 -0.85 0.5 -1.0 0.3 -2.65 Q0.3 -4.65 0.6 -6.3 L0.7 -6.75 0.8 -7.15 1.15 -8.3" fill="#0070e0" fill-rule="evenodd" stroke="none"/>
  </g>
</svg>
