<?xml version="1.0" encoding="UTF-8" standalone="no"?>
<svg xmlns:ffdec="https://www.free-decompiler.com/flash" xmlns:xlink="http://www.w3.org/1999/xlink" ffdec:objectType="shape" height="10.55px" width="11.05px" xmlns="http://www.w3.org/2000/svg">
  <g transform="matrix(1.0, 0.0, 0.0, 1.0, 2.15, 9.5)">
    <path d="M0.0 -0.6 L0.0 -0.45 Q-0.2 -0.3 -0.35 -0.25 L-0.65 -0.2 -0.7 -0.2 -1.1 -0.3 Q-1.3 -0.35 -1.45 -0.55 -1.55 -0.6 -1.6 -0.85 -1.65 -0.95 -1.75 -0.95 -1.9 -0.95 -2.0 -1.05 -2.1 -1.15 -2.1 -1.25 -2.15 -1.65 -2.15 -1.8 L-2.1 -1.9 Q-2.05 -2.1 -1.95 -2.15 L-1.8 -2.2 Q-1.75 -2.35 -1.6 -2.4 L-1.25 -2.45 Q-1.1 -2.45 -1.0 -2.35 L-0.8 -2.35 -0.65 -2.3 -0.55 -1.8 -0.5 -1.65 -0.3 -1.35 Q-0.2 -1.35 -0.15 -1.4 L-0.1 -1.15 Q-0.2 -1.05 -0.3 -1.05 L-0.35 -1.05 -0.3 -0.9 -0.25 -0.8 -0.3 -0.8 Q-0.3 -0.95 -0.4 -1.1 L-0.5 -1.2 -0.5 -1.3 -0.55 -1.35 -0.6 -1.45 -0.7 -1.55 Q-0.8 -1.7 -0.9 -1.7 -1.2 -1.65 -1.35 -1.45 L-1.4 -1.35 -1.45 -1.3 -1.45 -1.25 -1.4 -1.25 -1.25 -1.3 -1.1 -1.4 -1.05 -1.4 -1.05 -1.45 -1.05 -1.5 -1.0 -1.45 -0.95 -1.45 -0.9 -1.3 -0.95 -1.15 -0.95 -0.95 Q-0.9 -0.75 -0.7 -0.55 L-0.45 -0.4 -0.15 -0.5 0.0 -0.6 M-0.85 -1.8 L-0.7 -1.75 -0.7 -1.8 -0.75 -1.9 -0.8 -2.1 Q-0.85 -2.2 -1.0 -2.25 L-1.05 -2.25 Q-1.3 -2.2 -1.35 -1.95 L-1.4 -1.65 -1.4 -1.55 -1.1 -1.75 -1.15 -1.75 -1.05 -1.95 -0.95 -2.1 -0.95 -2.0 -0.95 -1.95 -1.0 -1.8 -0.85 -1.8 M-1.8 -2.05 L-1.95 -1.9 Q-2.05 -1.7 -2.05 -1.65 -2.0 -1.3 -1.85 -1.25 L-1.8 -1.3 -1.85 -1.35 -1.85 -1.7 -1.8 -2.0 -1.8 -2.05 M-1.45 -2.15 L-1.2 -2.3 Q-1.55 -2.35 -1.7 -2.05 -1.8 -1.85 -1.75 -1.55 -1.75 -1.5 -1.65 -1.45 L-1.55 -1.5 Q-1.65 -1.7 -1.55 -1.8 -1.6 -2.0 -1.45 -2.15 M-1.55 -1.1 Q-1.5 -1.0 -1.5 -0.95 -1.45 -0.75 -1.3 -0.55 -1.15 -0.45 -0.9 -0.4 L-0.65 -0.3 Q-0.75 -0.35 -0.9 -0.45 -1.0 -0.6 -1.05 -0.7 L-1.05 -1.3 Q-1.3 -1.15 -1.55 -1.1" fill="#111111" fill-rule="evenodd" stroke="none"/>
    <path d="M-1.0 -1.45 L-1.05 -1.5 -1.05 -1.45 -1.2 -1.45 -1.4 -1.35 -1.35 -1.45 Q-1.2 -1.65 -0.9 -1.7 -0.8 -1.7 -0.7 -1.55 L-0.6 -1.45 -0.55 -1.35 -0.5 -1.3 -0.5 -1.2 -0.4 -1.1 Q-0.3 -0.95 -0.3 -0.8 L-0.25 -0.8 -0.3 -0.9 -0.35 -1.05 -0.3 -1.05 Q-0.2 -1.05 -0.1 -1.15 L-0.05 -0.85 Q-0.35 -0.7 -0.4 -0.65 -0.6 -0.65 -0.7 -0.9 L-0.75 -1.25 Q-0.75 -1.5 -1.0 -1.45 M-1.05 -1.95 L-1.15 -1.75 -1.1 -1.75 -1.4 -1.55 -1.4 -1.65 -1.35 -1.95 Q-1.3 -2.2 -1.05 -2.25 L-1.0 -2.25 Q-0.85 -2.2 -0.8 -2.1 L-0.75 -1.9 -0.7 -1.8 -0.7 -1.75 -0.85 -1.8 Q-0.9 -2.0 -0.95 -2.05 L-0.95 -2.0 -0.95 -2.1 -1.0 -2.1 Q-1.1 -2.1 -1.1 -1.95 L-1.05 -1.95 M-1.45 -2.15 Q-1.6 -2.0 -1.55 -1.8 -1.65 -1.7 -1.55 -1.5 L-1.65 -1.45 Q-1.75 -1.5 -1.75 -1.55 -1.8 -1.85 -1.7 -2.05 -1.55 -2.35 -1.2 -2.3 L-1.45 -2.15 M-1.8 -2.05 L-1.8 -2.0 -1.85 -1.7 -1.85 -1.35 -1.8 -1.3 -1.85 -1.25 Q-2.0 -1.3 -2.05 -1.65 -2.05 -1.7 -1.95 -1.9 L-1.8 -2.05" fill="#c7a36d" fill-rule="evenodd" stroke="none"/>
    <path d="M0.0 -0.6 L-0.15 -0.5 -0.45 -0.4 -0.7 -0.55 Q-0.9 -0.75 -0.95 -0.95 L-0.95 -1.15 -0.9 -1.3 -0.95 -1.45 -1.0 -1.45 Q-0.75 -1.5 -0.75 -1.25 L-0.7 -0.9 Q-0.6 -0.65 -0.4 -0.65 -0.35 -0.7 -0.05 -0.85 L0.0 -0.6 M-1.05 -1.45 L-1.05 -1.4 -1.1 -1.4 -1.25 -1.3 -1.4 -1.25 -1.45 -1.25 -1.45 -1.3 -1.4 -1.35 -1.2 -1.45 -1.05 -1.45 M-0.85 -1.8 L-1.0 -1.8 -0.95 -1.95 -0.95 -2.0 -0.95 -2.05 Q-0.9 -2.0 -0.85 -1.8 M-0.95 -2.1 L-1.05 -1.95 -1.1 -1.95 Q-1.1 -2.1 -1.0 -2.1 L-0.95 -2.1 M-1.55 -1.1 Q-1.3 -1.15 -1.05 -1.3 L-1.05 -0.7 Q-1.0 -0.6 -0.9 -0.45 -0.75 -0.35 -0.65 -0.3 L-0.9 -0.4 Q-1.15 -0.45 -1.3 -0.55 -1.45 -0.75 -1.5 -0.95 -1.5 -1.0 -1.55 -1.1" fill="#a9854f" fill-rule="evenodd" stroke="none"/>
    <path d="M2.35 -3.65 L2.4 -3.7 2.65 -3.85 2.7 -3.9 2.75 -3.9 Q2.65 -4.1 2.55 -4.6 L2.4 -5.4 2.45 -6.35 2.5 -6.45 2.55 -6.75 2.55 -6.8 2.65 -7.05 2.65 -7.25 Q2.65 -7.5 3.0 -7.7 L3.05 -7.75 3.15 -7.8 Q2.9 -7.55 2.7 -7.15 2.5 -6.6 2.5 -5.95 2.5 -5.65 2.6 -5.15 L2.7 -4.75 2.75 -4.6 2.95 -4.05 Q3.35 -4.3 3.85 -4.45 4.55 -4.75 5.25 -5.15 6.0 -5.6 6.15 -5.95 L6.55 -6.65 Q6.8 -7.2 6.8 -7.45 6.8 -7.55 6.75 -7.8 L6.6 -8.05 6.6 -8.1 6.55 -8.2 Q6.35 -8.6 6.2 -8.7 6.45 -8.7 6.6 -8.55 L6.65 -8.5 Q6.75 -8.4 6.8 -8.15 L6.9 -7.8 6.95 -7.45 Q6.95 -7.1 6.8 -6.75 L6.4 -6.05 Q6.2 -5.6 5.35 -5.1 L4.45 -4.65 Q3.6 -4.25 2.95 -3.85 L2.55 -3.6 2.4 -3.5 2.2 -3.35 2.15 -3.3 1.5 -2.6 Q1.2 -2.45 0.95 -1.8 L0.9 -1.7 Q0.65 -1.2 0.6 -0.85 0.55 -0.6 0.55 -0.35 0.55 -0.25 0.6 -0.2 L0.55 -0.25 0.55 -0.15 Q0.55 0.1 0.8 0.35 1.25 0.75 2.35 0.75 2.5 0.75 2.5 0.6 L2.5 0.15 2.55 -0.05 Q2.75 -0.8 2.85 -1.1 3.0 -1.4 3.55 -1.95 L3.95 -2.35 Q5.15 -3.25 5.85 -3.5 6.45 -3.65 7.05 -4.1 L7.9 -4.75 Q8.15 -4.95 8.4 -5.5 L8.55 -5.7 8.55 -5.9 8.6 -6.6 Q8.6 -6.9 8.5 -7.25 8.35 -7.6 8.15 -8.0 7.45 -9.25 6.2 -9.25 4.15 -9.25 2.7 -7.7 2.2 -7.1 1.85 -6.45 L1.7 -6.1 1.7 -6.0 1.55 -5.65 1.45 -5.35 1.3 -5.2 1.25 -5.1 1.0 -4.85 Q0.75 -4.6 0.6 -4.35 L0.55 -4.2 Q0.45 -3.95 0.45 -3.7 L0.4 -3.55 Q0.4 -3.2 0.65 -2.8 0.7 -2.55 0.8 -2.4 L0.8 -2.35 0.9 -2.2 0.9 -2.15 1.15 -2.45 1.15 -2.5 Q1.3 -2.7 1.55 -2.9 L2.05 -3.4 2.2 -3.5 2.35 -3.65 M8.3 -8.3 Q8.85 -7.35 8.85 -6.75 8.75 -5.5 8.65 -5.1 L8.65 -4.9 8.7 -4.35 Q8.9 -3.75 8.9 -3.15 L8.85 -2.65 Q8.7 -0.75 6.35 0.25 4.6 1.05 3.0 1.05 2.75 1.05 2.5 0.95 1.65 0.95 1.05 0.55 0.5 0.55 0.15 0.05 -0.1 -0.35 -0.1 -0.6 L-0.15 -0.9 -0.1 -1.15 -0.15 -1.25 Q-0.3 -1.4 -0.4 -1.65 -0.65 -2.15 -0.65 -2.4 L-0.65 -2.65 Q-0.65 -3.2 -0.2 -3.8 L-0.15 -3.8 0.0 -3.95 0.35 -4.35 0.4 -4.35 0.4 -4.45 0.55 -4.65 0.65 -4.75 0.65 -4.8 0.7 -4.9 1.15 -5.35 1.15 -5.4 Q1.3 -5.6 1.5 -6.05 L1.55 -6.15 Q1.65 -6.6 1.7 -6.7 2.05 -7.35 2.65 -7.95 3.0 -8.3 3.4 -8.55 L3.6 -8.7 Q4.9 -9.55 6.75 -9.5 7.65 -9.45 8.3 -8.3 M3.8 -8.2 L3.8 -8.2 M0.75 -2.05 L0.7 -2.1 0.6 -2.3 Q0.5 -2.5 0.45 -2.8 0.3 -3.25 0.25 -3.75 L0.25 -3.85 0.1 -3.7 Q-0.4 -3.2 -0.4 -2.7 L-0.4 -2.65 -0.35 -2.4 -0.3 -2.2 -0.3 -2.1 -0.25 -1.95 Q-0.15 -1.7 0.05 -1.5 0.25 -1.3 0.4 -1.2 L0.45 -1.2 0.45 -1.25 0.5 -1.4 0.55 -1.5 0.8 -1.95 0.75 -2.0 0.75 -2.05 M0.3 -1.05 L0.25 -1.05 Q0.2 -1.05 0.2 -0.95 0.1 -0.85 0.1 -0.7 0.1 -0.55 0.45 0.0 L0.45 -0.05 0.4 -0.25 0.35 -0.35 0.4 -0.65 0.45 -1.0 Q0.45 -1.25 0.3 -1.05 M2.8 -0.45 Q2.65 -0.1 2.65 0.3 L2.65 0.35 2.75 0.5 2.8 0.7 2.8 0.75 3.45 0.8 Q4.8 0.8 6.3 0.0 7.25 -0.5 7.85 -1.05 8.3 -1.5 8.55 -2.2 8.7 -2.8 8.7 -3.45 L8.55 -4.25 Q8.45 -4.7 8.4 -5.0 L8.15 -4.7 Q7.85 -4.5 7.5 -4.25 L7.0 -3.95 Q6.6 -3.7 6.05 -3.5 4.75 -2.9 4.0 -2.2 L3.4 -1.65 3.35 -1.55 3.15 -1.2 3.0 -0.95 2.9 -0.8 Q2.85 -0.6 2.85 -0.45 L2.8 -0.45" fill="#111111" fill-rule="evenodd" stroke="none"/>
    <path d="M-0.4 -2.65 L-0.4 -2.7 Q-0.4 -3.2 0.1 -3.7 L0.25 -3.85 0.25 -3.75 Q0.3 -3.25 0.45 -2.8 0.5 -2.5 0.6 -2.3 L0.7 -2.1 0.75 -2.05 0.65 -2.05 Q0.1 -2.05 -0.2 -2.35 -0.35 -2.55 -0.4 -2.65 M4.35 -2.35 Q4.8 -2.7 5.4 -2.9 5.95 -3.1 6.5 -3.15 L6.55 -3.15 6.45 -3.05 Q6.35 -2.9 6.25 -2.6 L6.05 -2.1 Q5.9 -1.85 5.65 -1.65 5.15 -1.25 4.35 -1.25 4.1 -1.25 3.75 -1.45 L3.8 -1.55 Q4.05 -2.05 4.35 -2.35" fill="#b00000" fill-rule="evenodd" stroke="none"/>
    <path d="M-0.4 -2.65 Q-0.35 -2.55 -0.2 -2.35 0.1 -2.05 0.65 -2.05 L0.75 -2.05 0.75 -2.0 0.8 -1.95 0.55 -1.5 0.5 -1.4 0.45 -1.25 0.45 -1.2 0.4 -1.2 Q0.25 -1.3 0.05 -1.5 -0.15 -1.7 -0.25 -1.95 L-0.3 -2.1 -0.3 -2.2 -0.35 -2.4 -0.4 -2.65 M0.3 -1.05 Q0.45 -1.25 0.45 -1.0 L0.4 -0.65 0.35 -0.35 0.4 -0.25 0.45 -0.05 0.45 0.0 Q0.1 -0.55 0.1 -0.7 0.1 -0.85 0.2 -0.95 0.2 -1.05 0.25 -1.05 L0.3 -1.05 M2.8 -0.45 L2.85 -0.45 Q2.85 -0.6 2.9 -0.8 L3.0 -0.95 3.15 -1.2 3.35 -1.55 3.4 -1.65 4.0 -2.2 Q4.75 -2.9 6.05 -3.5 6.6 -3.7 7.0 -3.95 L7.5 -4.25 Q7.85 -4.5 8.15 -4.7 L8.4 -5.0 Q8.45 -4.7 8.55 -4.25 L8.7 -3.45 Q8.7 -2.8 8.55 -2.2 8.3 -1.5 7.85 -1.05 7.25 -0.5 6.3 0.0 4.8 0.8 3.45 0.8 L2.8 0.75 2.8 0.7 2.75 0.5 2.65 0.35 2.65 0.3 Q2.65 -0.1 2.8 -0.45 M4.35 -2.35 Q4.05 -2.05 3.8 -1.55 L3.75 -1.45 Q4.1 -1.25 4.35 -1.25 5.15 -1.25 5.65 -1.65 5.9 -1.85 6.05 -2.1 L6.25 -2.6 Q6.35 -2.9 6.45 -3.05 L6.55 -3.15 6.5 -3.15 Q5.95 -3.1 5.4 -2.9 4.8 -2.7 4.35 -2.35" fill="#600000" fill-rule="evenodd" stroke="none"/>
    <path d="M2.4 -3.5 L2.6 -3.4 3.0 -3.25 3.25 -2.95 3.45 -2.7 3.55 -2.4 3.35 -2.25 2.9 -1.65 Q2.3 -0.9 2.1 -0.9 1.7 -0.9 1.3 -1.2 0.9 -1.45 0.9 -1.6 0.9 -1.7 1.0 -1.85 L0.95 -1.8 Q1.2 -2.45 1.5 -2.6 L2.15 -3.3 2.2 -3.35 2.4 -3.5 M1.0 -4.85 L1.4 -4.2 Q1.85 -3.55 2.05 -3.4 L1.55 -2.9 Q1.3 -2.7 1.15 -2.5 L1.15 -2.45 Q1.1 -2.55 1.0 -2.6 L0.8 -2.9 Q0.5 -3.35 0.45 -3.7 0.45 -3.95 0.55 -4.2 L0.6 -4.35 Q0.75 -4.6 1.0 -4.85" fill="#80c0f0" fill-rule="evenodd" stroke="none"/>
    <path d="M2.4 -3.5 L2.55 -3.6 2.95 -3.85 Q3.6 -4.25 4.45 -4.65 L5.35 -5.1 Q6.2 -5.6 6.4 -6.05 L6.8 -6.75 Q6.95 -7.1 6.95 -7.45 L6.9 -7.8 6.8 -8.15 Q6.75 -8.4 6.65 -8.5 L6.6 -8.55 Q6.45 -8.7 6.2 -8.7 6.35 -8.6 6.55 -8.2 L6.6 -8.1 6.6 -8.05 6.75 -7.8 Q6.8 -7.55 6.8 -7.45 6.8 -7.2 6.55 -6.65 L6.15 -5.95 Q6.0 -5.6 5.25 -5.15 4.55 -4.75 3.85 -4.45 3.35 -4.3 2.95 -4.05 L2.75 -4.6 2.7 -4.75 2.6 -5.15 Q2.5 -5.65 2.5 -5.95 2.5 -6.6 2.7 -7.15 2.9 -7.55 3.15 -7.8 L3.05 -7.75 3.0 -7.7 Q2.65 -7.5 2.65 -7.25 L2.65 -7.05 2.55 -6.8 2.55 -6.75 2.5 -6.45 2.45 -6.35 2.4 -5.4 2.55 -4.6 Q2.65 -4.1 2.75 -3.9 L2.7 -3.9 2.65 -3.85 2.4 -3.7 2.35 -3.65 2.2 -3.5 2.05 -3.4 Q1.85 -3.55 1.4 -4.2 L1.0 -4.85 1.25 -5.1 1.3 -5.2 1.45 -5.35 1.55 -5.65 1.7 -6.0 1.7 -6.1 1.85 -6.45 Q2.2 -7.1 2.7 -7.7 4.15 -9.25 6.2 -9.25 7.45 -9.25 8.15 -8.0 8.35 -7.6 8.5 -7.25 8.6 -6.9 8.6 -6.6 L8.55 -5.9 8.55 -5.7 8.4 -5.5 Q8.15 -4.95 7.9 -4.75 L7.05 -4.1 Q6.45 -3.65 5.85 -3.5 5.15 -3.25 3.95 -2.35 L3.55 -1.95 Q3.0 -1.4 2.85 -1.1 2.75 -0.8 2.55 -0.05 L2.5 0.15 2.5 0.6 Q2.5 0.75 2.35 0.75 1.25 0.75 0.8 0.35 0.55 0.1 0.55 -0.15 L0.55 -0.25 0.6 -0.2 Q0.55 -0.25 0.55 -0.35 0.55 -0.6 0.6 -0.85 0.65 -1.2 0.9 -1.7 L0.95 -1.8 1.0 -1.85 Q0.9 -1.7 0.9 -1.6 0.9 -1.45 1.3 -1.2 1.7 -0.9 2.1 -0.9 2.3 -0.9 2.9 -1.65 L3.35 -2.25 3.55 -2.4 3.45 -2.7 3.25 -2.95 3.0 -3.25 2.6 -3.4 2.4 -3.5 M3.8 -8.2 L3.8 -8.2 M0.45 -3.7 Q0.5 -3.35 0.8 -2.9 L1.0 -2.6 Q1.1 -2.55 1.15 -2.45 L0.9 -2.15 0.9 -2.2 0.8 -2.35 0.8 -2.4 Q0.7 -2.55 0.65 -2.8 0.4 -3.2 0.4 -3.55 L0.45 -3.7" fill="#0070e0" fill-rule="evenodd" stroke="none"/>
  </g>
</svg>
