<?xml version="1.0" encoding="UTF-8" standalone="no"?>
<svg xmlns:ffdec="https://www.free-decompiler.com/flash" xmlns:xlink="http://www.w3.org/1999/xlink" ffdec:objectType="shape" height="12.3px" width="4.3px" xmlns="http://www.w3.org/2000/svg">
  <g transform="matrix(1.0, 0.0, 0.0, 1.0, 0.0, 12.3)">
    <path d="M3.1 -11.05 L3.15 -11.0 Q3.45 -10.45 3.45 -9.95 3.45 -9.7 3.05 -8.1 L2.55 -5.9 Q2.45 -5.35 2.0 -3.75 1.75 -2.9 1.75 -2.1 L1.35 -2.5 Q0.8 -3.05 0.4 -3.35 0.75 -4.85 1.45 -6.45 L2.3 -8.55 2.75 -10.0 3.1 -11.05" fill="#80c0f0" fill-rule="evenodd" stroke="none"/>
    <path d="M1.75 -2.1 L2.4 -1.45 2.4 -1.9 Q2.4 -4.95 3.2 -7.35 L3.75 -8.9 Q4.0 -9.75 4.0 -10.5 4.0 -10.85 3.9 -11.25 3.75 -11.8 3.45 -11.95 L3.2 -11.5 3.1 -11.15 3.1 -11.05 2.75 -10.0 2.3 -8.55 1.45 -6.45 Q0.75 -4.85 0.4 -3.35 0.8 -3.05 1.35 -2.5 L1.75 -2.1 M3.35 -12.15 L3.45 -12.3 Q3.6 -12.3 3.6 -12.25 L3.55 -12.15 Q3.75 -12.15 3.95 -11.85 4.3 -11.45 4.3 -9.95 4.3 -9.65 4.05 -8.8 L3.55 -6.95 Q2.75 -4.1 2.75 -1.35 L2.8 -0.9 2.85 -0.5 2.85 -0.4 3.0 -0.3 2.95 -0.25 2.95 -0.2 2.9 -0.2 2.9 -0.15 2.8 -0.1 2.8 -0.05 2.75 0.0 2.7 -0.1 Q1.95 -0.15 1.05 -1.2 0.45 -1.85 0.2 -2.3 L0.2 -2.2 0.15 -2.2 0.05 -2.6 0.0 -2.95 Q0.0 -4.15 1.6 -8.15 2.2 -9.6 2.7 -10.65 L2.65 -10.7 Q2.65 -11.1 3.05 -11.75 3.2 -12.05 3.35 -12.15 M1.3 -2.2 L0.4 -3.25 0.25 -2.5 0.25 -2.45 1.25 -1.7 1.4 -1.6 Q2.1 -1.0 2.55 -0.65 L2.5 -0.95 2.45 -1.2 Q2.1 -1.35 1.3 -2.2" fill="#111111" fill-rule="evenodd" stroke="none"/>
    <path d="M1.25 -1.7 L0.25 -2.45 0.25 -2.5 0.4 -3.25 1.3 -2.2 Q1.25 -2.05 1.25 -1.7" fill="#b00000" fill-rule="evenodd" stroke="none"/>
    <path d="M3.1 -11.05 L3.1 -11.15 3.2 -11.5 3.45 -11.95 Q3.75 -11.8 3.9 -11.25 4.0 -10.85 4.0 -10.5 4.0 -9.75 3.75 -8.9 L3.2 -7.35 Q2.4 -4.95 2.4 -1.9 L2.4 -1.45 1.75 -2.1 Q1.75 -2.9 2.0 -3.75 2.45 -5.35 2.55 -5.9 L3.05 -8.1 Q3.45 -9.7 3.45 -9.95 3.45 -10.45 3.15 -11.0 L3.1 -11.05" fill="#0070e0" fill-rule="evenodd" stroke="none"/>
    <path d="M1.25 -1.7 Q1.25 -2.05 1.3 -2.2 2.1 -1.35 2.45 -1.2 L2.5 -0.95 2.55 -0.65 Q2.1 -1.0 1.4 -1.6 L1.25 -1.7" fill="#600000" fill-rule="evenodd" stroke="none"/>
  </g>
</svg>
