<?xml version="1.0" encoding="UTF-8" standalone="no"?>
<svg xmlns:ffdec="https://www.free-decompiler.com/flash" xmlns:xlink="http://www.w3.org/1999/xlink" ffdec:objectType="shape" height="7.7px" width="6.45px" xmlns="http://www.w3.org/2000/svg">
  <g transform="matrix(1.0, 0.0, 0.0, 1.0, 0.0, 7.7)">
    <path d="M4.85 -7.3 L4.9 -7.3 4.9 -7.35 4.95 -7.35 4.95 -7.15 5.25 -6.6 Q5.45 -6.2 5.75 -5.95 6.05 -5.6 6.25 -5.25 L6.45 -4.85 6.45 -4.6 Q6.45 -4.45 6.35 -4.25 L6.2 -3.9 6.2 -3.95 Q6.05 -3.7 5.85 -3.5 5.6 -3.25 5.3 -3.05 L5.25 -3.05 Q5.25 -2.75 4.7 -2.0 L4.6 -1.9 4.2 -1.15 Q4.2 -0.85 3.8 -0.5 3.3 0.0 2.6 0.0 1.4 0.0 0.7 -0.75 0.2 -1.3 0.2 -1.7 L0.2 -1.8 Q0.2 -2.05 0.25 -2.45 0.25 -2.9 0.15 -3.6 0.0 -4.3 0.0 -4.65 0.0 -5.2 0.1 -5.55 L0.2 -5.9 0.2 -5.95 Q0.35 -6.3 0.45 -6.4 0.4 -6.3 0.4 -6.2 L0.5 -6.35 Q0.8 -6.75 1.05 -6.95 1.9 -7.6 3.35 -7.7 4.25 -7.75 4.65 -7.45 L4.85 -7.25 4.85 -7.3 M6.0 -5.15 Q5.55 -5.7 5.35 -6.1 5.0 -6.6 4.9 -7.0 L4.7 -7.25 Q4.35 -7.55 3.55 -7.55 2.4 -7.55 1.6 -7.1 L1.15 -6.75 1.15 -6.8 1.05 -6.7 1.0 -6.65 0.95 -6.6 Q0.55 -6.2 0.4 -5.75 0.15 -5.25 0.15 -4.55 0.15 -4.4 0.3 -3.5 L0.35 -3.35 0.35 -3.25 Q0.4 -2.6 0.45 -1.8 L0.6 -1.45 Q0.75 -1.1 0.95 -0.9 1.1 -0.65 1.45 -0.5 L1.55 -0.45 1.7 -0.45 1.8 -0.4 1.9 -0.4 2.55 -0.35 2.6 -0.35 Q3.3 -0.35 3.65 -0.7 L3.95 -1.05 Q4.0 -1.45 4.5 -2.15 L4.7 -2.45 4.85 -2.7 5.0 -2.9 4.65 -2.75 Q4.3 -2.65 3.95 -2.6 L4.15 -2.65 Q4.4 -2.75 4.7 -2.9 5.2 -3.2 5.6 -3.55 6.05 -3.9 6.25 -4.25 L6.25 -4.6 6.2 -4.95 6.0 -5.15 M5.2 -6.9 L5.3 -6.6 5.2 -6.85 5.2 -6.9 M2.65 -1.15 Q2.65 -1.5 3.25 -1.95 L3.35 -2.05 4.2 -2.5 4.3 -2.55 4.35 -2.55 Q3.85 -2.25 3.4 -1.85 L3.2 -1.65 3.15 -1.65 2.65 -1.15" fill="#111111" fill-rule="evenodd" stroke="none"/>
    <path d="M1.55 -0.45 L1.45 -0.5 1.45 -0.55 1.55 -0.45" fill="#b00000" fill-rule="evenodd" stroke="none"/>
    <path d="M1.15 -6.75 L1.6 -7.1 Q2.4 -7.55 3.55 -7.55 4.35 -7.55 4.7 -7.25 L4.9 -7.0 Q5.0 -6.6 5.35 -6.1 5.55 -5.7 6.0 -5.15 L6.0 -5.1 Q6.0 -5.05 6.05 -4.95 L6.15 -4.7 Q6.15 -4.45 5.85 -4.1 5.45 -3.7 4.9 -3.7 L3.9 -3.3 Q3.0 -2.95 2.75 -2.95 2.05 -2.95 1.4 -3.4 L1.2 -3.55 1.1 -3.7 Q0.95 -4.05 0.95 -4.4 L0.95 -5.15 0.85 -5.9 Q0.85 -6.05 1.0 -6.4 L1.15 -6.75 M4.15 -2.65 L3.95 -2.6 3.85 -2.55 3.6 -2.35 Q2.05 -1.25 2.0 -0.75 L1.75 -0.55 1.65 -0.55 Q1.45 -0.75 1.25 -1.15 1.0 -1.7 1.0 -2.05 L1.05 -2.25 1.0 -2.35 1.05 -2.5 1.05 -2.55 1.3 -2.45 1.65 -2.35 1.75 -2.4 2.35 -2.45 3.55 -2.7 3.8 -2.8 4.1 -2.85 4.25 -2.8 4.3 -2.75 4.15 -2.65 M2.6 -0.35 L2.55 -0.35 2.15 -0.4 2.2 -0.4 Q2.65 -0.6 3.2 -1.0 L4.05 -1.7 Q3.95 -1.3 3.7 -1.0 3.25 -0.35 2.6 -0.35 M1.0 -6.65 L1.05 -6.7 0.95 -6.55 1.0 -6.65 M0.85 -3.9 L0.85 -3.9 M1.35 -2.15 L1.2 -2.25 1.2 -2.2 1.35 -2.15 M4.65 -2.7 Q4.35 -2.2 3.8 -1.7 3.2 -1.15 2.45 -0.75 3.45 -2.0 4.65 -2.7" fill="#80c0f0" fill-rule="evenodd" stroke="none"/>
    <path d="M1.15 -6.75 L1.0 -6.4 Q0.85 -6.05 0.85 -5.9 L0.95 -5.15 0.95 -4.4 Q0.95 -4.05 1.1 -3.7 L1.2 -3.55 1.4 -3.4 Q2.05 -2.95 2.75 -2.95 3.0 -2.95 3.9 -3.3 L4.9 -3.7 Q5.45 -3.7 5.85 -4.1 6.15 -4.45 6.15 -4.7 L6.05 -4.95 Q6.0 -5.05 6.0 -5.1 L6.0 -5.15 6.2 -4.95 6.25 -4.6 6.25 -4.25 Q6.05 -3.9 5.6 -3.55 5.2 -3.2 4.7 -2.9 4.4 -2.75 4.15 -2.65 L4.3 -2.75 4.25 -2.8 4.1 -2.85 3.8 -2.8 3.55 -2.7 2.35 -2.45 1.75 -2.4 1.65 -2.35 1.3 -2.45 1.05 -2.55 1.05 -2.5 1.0 -2.35 1.05 -2.25 1.0 -2.05 Q1.0 -1.7 1.25 -1.15 1.45 -0.75 1.65 -0.55 L1.75 -0.55 2.0 -0.75 Q2.05 -1.25 3.6 -2.35 L3.85 -2.55 3.95 -2.6 Q4.3 -2.65 4.65 -2.75 L5.0 -2.9 4.85 -2.7 4.7 -2.45 4.5 -2.15 Q4.0 -1.45 3.95 -1.05 L3.65 -0.7 Q3.3 -0.35 2.6 -0.35 3.25 -0.35 3.7 -1.0 3.95 -1.3 4.05 -1.7 L3.2 -1.0 Q2.65 -0.6 2.2 -0.4 L2.15 -0.4 2.55 -0.35 1.9 -0.4 1.8 -0.4 1.7 -0.45 1.55 -0.45 1.45 -0.55 1.45 -0.5 Q1.1 -0.65 0.95 -0.9 0.75 -1.1 0.6 -1.45 L0.45 -1.8 Q0.4 -2.6 0.35 -3.25 L0.35 -3.35 0.3 -3.5 Q0.15 -4.4 0.15 -4.55 0.15 -5.25 0.4 -5.75 0.55 -6.2 0.95 -6.6 L1.0 -6.65 0.95 -6.55 1.05 -6.7 1.15 -6.8 1.15 -6.75 M0.85 -3.9 L0.85 -3.9 M1.35 -2.15 L1.2 -2.2 1.2 -2.25 1.35 -2.15 M2.65 -1.15 L3.15 -1.65 3.2 -1.65 3.4 -1.85 Q3.85 -2.25 4.35 -2.55 L4.3 -2.55 4.2 -2.5 3.35 -2.05 3.25 -1.95 Q2.65 -1.5 2.65 -1.15 M4.65 -2.7 Q3.45 -2.0 2.45 -0.75 3.2 -1.15 3.8 -1.7 4.35 -2.2 4.65 -2.7" fill="#0070e0" fill-rule="evenodd" stroke="none"/>
  </g>
</svg>
