<?xml version="1.0" encoding="UTF-8" standalone="no"?>
<svg xmlns:ffdec="https://www.free-decompiler.com/flash" xmlns:xlink="http://www.w3.org/1999/xlink" ffdec:objectType="shape" height="3.2px" width="2.4px" xmlns="http://www.w3.org/2000/svg">
  <g transform="matrix(1.0, 0.0, 0.0, 1.0, 0.0, 3.2)">
    <path d="M1.9 -2.7 L1.95 -2.65 2.1 -2.45 2.1 -2.4 2.15 -2.35 2.15 -2.25 2.3 -1.85 2.3 -1.75 2.35 -1.55 2.35 -1.35 2.4 -1.2 2.4 -0.95 Q2.4 -0.75 2.3 -0.45 L2.3 -0.4 Q2.2 -0.15 2.1 -0.05 L2.05 0.0 2.0 0.0 1.9 -0.05 Q1.8 -0.1 1.7 -0.15 L1.7 -0.2 1.5 -0.3 1.4 -0.4 1.3 -0.45 0.9 -0.75 0.8 -0.8 0.65 -0.9 0.55 -1.0 0.5 -1.0 0.45 -1.05 Q0.35 -1.05 0.25 -1.1 L0.25 -1.15 0.15 -1.25 0.1 -1.4 Q0.0 -1.6 0.0 -1.75 0.0 -2.0 0.05 -2.15 L0.1 -2.25 0.05 -2.25 0.05 -2.45 Q0.05 -3.05 0.75 -3.15 1.2 -3.25 1.5 -3.05 L1.55 -3.05 1.55 -3.0 1.6 -3.0 1.85 -2.8 1.9 -2.7 M1.8 -2.35 L1.75 -2.45 Q1.4 -3.05 0.95 -3.05 L0.8 -3.0 0.75 -3.0 Q0.45 -2.95 0.3 -2.7 L0.25 -2.65 0.2 -2.5 0.2 -2.45 0.4 -2.45 0.5 -2.4 0.55 -2.4 Q0.75 -2.3 0.95 -2.15 L1.0 -2.1 Q1.25 -1.9 1.5 -1.5 1.8 -1.05 1.95 -0.7 L2.0 -0.45 2.1 -0.55 2.1 -0.7 2.15 -1.0 Q2.15 -1.5 1.9 -2.1 L1.8 -2.35 M0.3 -2.05 L0.2 -1.85 Q0.2 -1.65 0.3 -1.45 L0.35 -1.3 0.5 -1.3 Q0.7 -1.3 1.2 -0.9 L1.75 -0.45 1.55 -0.95 1.55 -1.05 1.5 -1.05 1.45 -1.3 1.35 -1.5 1.2 -1.65 1.2 -1.7 1.15 -1.8 1.05 -1.9 0.85 -2.05 0.8 -2.05 0.75 -2.1 0.65 -2.15 0.45 -2.2 0.4 -2.2 0.35 -2.1 0.3 -2.05" fill="#111111" fill-rule="evenodd" stroke="none"/>
    <path d="M0.25 -2.65 L0.3 -2.65 Q1.1 -2.65 1.6 -1.7 1.8 -1.8 1.8 -2.15 L1.8 -2.35 1.9 -2.1 Q2.15 -1.5 2.15 -1.0 L2.1 -0.7 2.1 -0.55 2.0 -0.45 1.95 -0.7 Q1.8 -1.05 1.5 -1.5 1.25 -1.9 1.0 -2.1 L0.95 -2.15 Q0.75 -2.3 0.55 -2.4 L0.5 -2.4 0.4 -2.45 0.2 -2.45 0.2 -2.5 0.25 -2.65 M0.3 -2.05 L0.35 -2.1 0.4 -2.2 0.45 -2.2 0.65 -2.15 0.75 -2.1 0.8 -2.05 0.85 -2.05 1.05 -1.9 1.15 -1.8 1.2 -1.7 1.2 -1.65 1.35 -1.5 1.45 -1.3 1.5 -1.05 1.55 -1.05 1.55 -0.95 1.75 -0.45 1.2 -0.9 Q0.7 -1.3 0.5 -1.3 L0.35 -1.3 0.3 -1.45 Q0.35 -1.45 0.8 -1.3 L0.95 -1.2 Q1.05 -1.25 1.05 -1.45 L1.0 -1.6 Q0.8 -1.9 0.55 -2.05 L0.3 -2.05" fill="#600000" fill-rule="evenodd" stroke="none"/>
    <path d="M1.8 -2.35 L1.8 -2.15 Q1.8 -1.8 1.6 -1.7 1.1 -2.65 0.3 -2.65 L0.25 -2.65 0.3 -2.7 Q0.45 -2.95 0.75 -3.0 L0.8 -3.0 0.95 -3.05 Q1.4 -3.05 1.75 -2.45 L1.8 -2.35 M0.2 -2.5 L0.2 -2.45 0.2 -2.5 M0.3 -1.45 Q0.2 -1.65 0.2 -1.85 L0.3 -2.05 0.55 -2.05 Q0.8 -1.9 1.0 -1.6 L1.05 -1.45 Q1.05 -1.25 0.95 -1.2 L0.8 -1.3 Q0.35 -1.45 0.3 -1.45" fill="#b00000" fill-rule="evenodd" stroke="none"/>
  </g>
</svg>
