<?xml version="1.0" encoding="UTF-8" standalone="no"?>
<svg xmlns:ffdec="https://www.free-decompiler.com/flash" xmlns:xlink="http://www.w3.org/1999/xlink" ffdec:objectType="shape" height="12.25px" width="4.6px" xmlns="http://www.w3.org/2000/svg">
  <g transform="matrix(1.0, 0.0, 0.0, 1.0, 0.0, 12.25)">
    <path d="M3.45 -12.25 Q3.5 -11.75 3.5 -11.25 3.5 -10.9 3.45 -9.95 3.35 -8.95 3.35 -8.1 3.35 -6.35 3.6 -5.05 3.85 -4.0 4.45 -2.1 L4.5 -2.15 4.55 -2.1 4.55 -2.05 4.5 -1.95 4.6 -1.7 4.5 -1.9 Q4.25 -1.55 3.1 -0.9 1.6 0.0 0.95 0.0 L0.85 0.0 Q0.45 0.0 0.2 -2.05 0.05 -3.05 0.0 -4.1 0.0 -4.8 0.15 -6.45 0.3 -8.05 0.4 -8.45 0.7 -9.7 1.15 -10.65 1.5 -11.45 1.9 -11.75 2.5 -12.25 3.05 -12.05 3.3 -12.0 3.4 -11.85 L3.45 -12.25 M3.35 -11.35 L3.4 -11.45 3.35 -11.5 3.3 -11.6 Q3.15 -11.8 2.8 -11.85 L2.45 -11.85 Q1.15 -10.85 0.6 -8.3 0.2 -6.55 0.2 -4.4 0.2 -2.9 0.6 -1.45 L0.85 -0.8 1.75 -1.3 2.2 -1.65 2.4 -1.8 2.85 -2.15 Q3.45 -2.6 3.9 -3.15 L3.95 -3.1 Q3.6 -4.0 3.4 -4.9 3.1 -6.25 3.1 -8.1 3.1 -8.9 3.25 -10.2 L3.35 -11.35 M2.85 -1.8 L2.8 -1.8 2.8 -1.75 2.55 -1.6 2.5 -1.55 Q1.4 -0.85 0.9 -0.6 L1.0 -0.15 2.0 -0.7 2.95 -1.2 4.4 -2.05 4.0 -2.95 Q3.95 -2.6 2.85 -1.8" fill="#111111" fill-rule="evenodd" stroke="none"/>
    <path d="M2.85 -2.15 L2.4 -1.8 2.2 -1.65 1.75 -1.3 0.85 -0.8 0.6 -1.45 Q0.2 -2.9 0.2 -4.4 0.2 -6.55 0.6 -8.3 1.15 -10.85 2.45 -11.85 L2.8 -11.85 Q3.15 -11.8 3.3 -11.6 L3.35 -11.5 3.4 -11.45 3.35 -11.35 Q3.2 -10.8 2.95 -9.45 2.7 -7.85 2.7 -7.2 L2.8 -5.0 Q2.8 -4.65 2.95 -4.1 L2.9 -4.1 Q2.5 -4.85 2.4 -5.9 2.35 -6.35 2.35 -7.75 L2.3 -6.75 2.2 -6.0 Q2.2 -4.45 2.65 -2.85 L2.85 -2.15 M2.75 -11.0 L2.8 -11.0 2.85 -11.05 2.8 -11.05 2.75 -11.0" fill="#0070e0" fill-rule="evenodd" stroke="none"/>
    <path d="M3.35 -11.35 L3.25 -10.2 Q3.1 -8.9 3.1 -8.1 3.1 -6.25 3.4 -4.9 3.6 -4.0 3.95 -3.1 L3.9 -3.15 Q3.45 -2.6 2.85 -2.15 L2.65 -2.85 Q2.2 -4.45 2.2 -6.0 L2.3 -6.75 2.35 -7.75 Q2.35 -6.35 2.4 -5.9 2.5 -4.85 2.9 -4.1 L2.95 -4.1 Q2.8 -4.65 2.8 -5.0 L2.7 -7.2 Q2.7 -7.85 2.95 -9.45 3.2 -10.8 3.35 -11.35 M2.75 -11.0 L2.8 -11.05 2.85 -11.05 2.8 -11.0 2.75 -11.0" fill="#80c0f0" fill-rule="evenodd" stroke="none"/>
    <path d="M2.95 -1.2 L2.0 -0.7 1.0 -0.15 0.9 -0.6 Q1.4 -0.85 2.5 -1.55 L2.55 -1.6 2.8 -1.75 2.8 -1.8 2.85 -1.8 2.9 -1.85 Q3.05 -1.75 3.05 -1.45 L2.95 -1.2" fill="#600000" fill-rule="evenodd" stroke="none"/>
    <path d="M2.95 -1.2 L3.05 -1.45 Q3.05 -1.75 2.9 -1.85 L2.85 -1.8 Q3.95 -2.6 4.0 -2.95 L4.4 -2.05 2.95 -1.2" fill="#b00000" fill-rule="evenodd" stroke="none"/>
  </g>
</svg>
